<?xml version="1.0" encoding="utf-8"?>
<!DOCTYPE svg PUBLIC "-//W3C//DTD SVG 1.0//EN" "http://www.w3.org/TR/2001/REC-SVG-20010904/DTD/svg10.dtd">
<svg version="1.0" xmlns="http://www.w3.org/2000/svg" width="40px" height="40px" viewBox="0 0 40 40" preserveAspectRatio="xMidYMid meet">
 <g fill="#131008">
  <path d="M4.35 35.65 c-0.50 -0.90 -0.85 -4.20 -0.55 -5.35 0.15 -0.70 0.60 -1.30 1 -1.30 0.55 0 0.65 0.80 0.60 3.50 -0.10 3.15 -0.45 4.20 -1.05 3.15z"/>
  <path d="M33.70 32.90 c0.15 -0.65 0.30 -1.45 0.30 -1.75 0 -0.35 0.35 -0.65 0.75 -0.65 0.80 0 0.90 0.60 0.45 2.40 -0.20 0.60 -0.65 1.10 -1.05 1.10 -0.55 0 -0.70 -0.30 -0.45 -1.10z"/>
  <path d="M8.75 32.85 c-0.20 -0.50 -0.25 -1.05 -0.05 -1.20 0.50 -0.50 0.90 0.20 0.65 1.20 -0.20 0.85 -0.20 0.85 -0.60 0z"/>
  <path d="M27.65 32.40 c0.10 -0.35 0.50 -1.50 0.90 -2.50 0.35 -1.05 0.85 -1.90 1.05 -1.90 0.25 0 0 -0.50 -0.60 -1.10 -0.55 -0.60 -1 -1.40 -1 -1.75 0 -0.35 -0.20 -0.65 -0.40 -0.65 -0.70 0 -2.10 1.75 -2.10 2.65 0 0.45 -0.35 0.85 -0.75 0.85 -0.40 0 -0.75 0.45 -0.75 0.95 0 1 -0.90 1.55 -2.50 1.55 -0.75 0 -1 -0.55 -1.35 -2.60 -0.40 -2.55 -0.50 -2.65 -2.05 -2.80 -0.90 -0.10 -1.80 -0.50 -1.95 -0.90 -0.35 -0.95 -1.65 -0.90 -1.65 0.05 0 0.40 -0.20 0.75 -0.50 0.75 -0.25 0 -0.50 0.55 -0.50 1.20 0 0.70 -0.25 1.40 -0.55 1.55 -0.80 0.55 -1.10 -0.05 -0.50 -1.15 0.45 -0.80 0.35 -1.05 -0.40 -1.25 -1.15 -0.30 -2.55 0.40 -1.50 0.75 0.45 0.15 0.40 0.60 -0.30 1.80 -1.05 1.80 -1.70 2.05 -1.85 0.75 0 -0.50 -0.10 -1.10 -0.15 -1.40 -0.10 -0.25 -0.15 -0.70 -0.20 -1 -0.05 -0.30 -0.20 -0.25 -0.45 0.05 -0.20 0.35 -1.05 0.45 -2 0.35 l-1.65 -0.25 1.10 -1.20 c0.65 -0.70 1.70 -1.20 2.50 -1.20 1.70 0 2.45 -0.95 1 -1.35 -0.60 -0.15 -1.05 -0.60 -1.05 -0.95 0 -0.45 -0.55 -0.70 -1.50 -0.70 -1.15 0 -1.50 -0.20 -1.50 -1 0 -0.75 0.35 -1 1.40 -1 2.15 0 3.55 0.55 3.75 1.45 0.20 0.65 0.25 0.65 0.30 -0.15 0.05 -0.65 0.30 -0.80 0.95 -0.55 1.40 0.60 2.75 0.55 2.95 -0.10 0.15 -0.35 -0.10 -0.65 -0.50 -0.65 -0.50 0 -0.70 -0.45 -0.60 -1.60 0.10 -0.90 0.20 -1.75 0.25 -1.90 0.05 -0.15 0.05 -0.75 0 -1.35 -0.05 -0.65 0.15 -1.15 0.45 -1.15 0.30 0 0.55 0.25 0.55 0.50 0 0.30 0.25 0.50 0.50 0.50 0.30 0 0.40 -0.55 0.20 -1.25 -0.25 -1 -0.15 -1.20 0.45 -0.95 1.15 0.40 1.60 -0.75 0.55 -1.50 -0.85 -0.65 -0.85 -0.75 -0.05 -2.40 1.05 -2.20 2.35 -3.40 2.35 -2.20 0 0.45 0.40 0.80 0.95 0.80 0.55 0 1.30 0.15 1.75 0.30 0.60 0.20 0.80 0 0.80 -0.75 0 -0.85 -0.30 -1.05 -1.50 -1.05 -0.80 0 -1.50 -0.20 -1.50 -0.50 0 -0.25 0.25 -0.50 0.50 -0.50 0.30 0 0.50 -0.75 0.50 -1.60 l0.05 -1.65 0.95 1.20 c0.55 0.65 1 1.45 1 1.85 0 0.40 0.25 0.70 0.55 0.70 0.30 0 0.45 -0.35 0.25 -0.75 -0.15 -0.40 -0.10 -0.75 0.15 -0.75 0.25 0 0.55 -0.45 0.70 -1 0.15 -0.55 0.50 -1 0.85 -1 0.30 0 0.40 0.25 0.25 0.55 -0.20 0.25 -0.20 1.05 -0.05 1.70 0.25 0.95 0.90 1.40 3 2 1.50 0.45 3 1.10 3.30 1.50 0.80 0.95 0.20 2.60 -1.70 4.45 -1.30 1.30 -1.40 1.55 -0.65 1.70 0.90 0.20 1.15 1.35 0.35 1.85 -0.25 0.15 -0.50 1.20 -0.50 2.25 0 1.65 -0.20 2 -1.50 2.60 -0.80 0.35 -1.50 0.80 -1.50 1 0 0.55 0.60 0.45 2 -0.35 0.70 -0.40 1.95 -0.70 2.85 -0.75 0.85 0 1.65 -0.20 1.75 -0.50 0.10 -0.25 0.90 -0.60 1.80 -0.80 1.25 -0.25 1.60 -0.15 1.60 0.50 0 0.45 0.25 0.80 0.50 0.80 0.30 0 0.50 0.70 0.50 1.60 0 1.25 -0.15 1.45 -0.60 1 -0.75 -0.75 -3.90 -0.80 -3.90 -0.10 0 0.30 0.80 1 1.80 1.60 1.10 0.65 1.65 1.30 1.50 1.75 -0.15 0.40 -0.30 1.30 -0.30 2 0 1.25 -0.05 1.25 -0.90 0.50 -1.30 -1.20 -1.65 -1.05 -1.10 0.40 0.65 1.70 -0.25 1.60 -1.20 -0.10 l-0.75 -1.40 -0.05 1.25 c0 0.70 -0.55 2.10 -1.25 3.15 -1.25 1.80 -2.10 2.45 -1.60 1.25z m-10.15 -15.65 c0 -1.40 -0.60 -1.60 -1.50 -0.50 -0.70 0.80 -0.30 1.75 0.80 1.75 0.40 0 0.70 -0.50 0.70 -1.25z m7.85 -1.45 c-0.55 -1.35 -1.35 -0.85 -1.35 0.80 0 1.50 0.05 1.55 0.80 0.80 0.45 -0.45 0.70 -1.20 0.55 -1.60z"/>
  <path d="M38.50 25.80 c0 -1.65 0.10 -1.80 0.75 -1.10 0.40 0.40 0.75 0.95 0.75 1.20 0 0.25 -0.35 0.75 -0.75 1.10 -0.65 0.55 -0.75 0.35 -0.75 -1.20z"/>
  <path d="M1.60 25.65 c1.55 -3.25 2.40 -4.05 2.40 -2.35 0 0.70 0.15 0.75 0.90 0.15 0.45 -0.35 0.20 0.05 -0.60 0.95 -1.30 1.40 -3.15 2.25 -2.70 1.25z"/>
  <path d="M36.50 20.75 c0 -1.80 0.50 -2.20 1.40 -1.10 0.70 0.85 0.20 2.85 -0.70 2.85 -0.45 0 -0.70 -0.60 -0.70 -1.75z"/>
 </g>
 <g fill="#1c2417">
  <path d="M4.35 35.65 c-0.55 -0.50 -0.40 -2.15 0.15 -2.15 0.30 0 0.50 0.20 0.50 0.45 0 0.25 0.15 0.80 0.30 1.25 0.30 0.80 -0.35 1.10 -0.95 0.45z"/>
  <path d="M32.50 35.75 c0 -0.85 1.55 -3.75 1.95 -3.75 0.80 0 0.65 1.35 -0.25 2.75 -0.75 1.10 -1.70 1.70 -1.70 1z"/>
  <path d="M8.20 31.20 c-0.15 -0.95 -0.20 -2.55 -0.05 -3.50 0.45 -2.75 -0.45 -1.95 -1.70 1.55 -1.35 3.80 -2.45 4.30 -2.45 1.10 0 -1.20 0.25 -2.40 0.60 -2.75 0.45 -0.45 0.40 -0.60 -0.35 -0.60 -1.65 -0.05 2.20 -3 3.85 -3 1.50 0 2.35 -0.85 1.25 -1.30 -0.60 -0.20 -0.65 -0.55 -0.20 -1.75 0.60 -1.50 1.50 -1.90 2.15 -0.90 0.15 0.30 0.95 0.45 1.70 0.30 0.95 -0.20 1.70 0 2.45 0.75 0.60 0.55 1.25 0.85 1.45 0.65 0.20 -0.20 0.05 -0.50 -0.25 -0.60 -1 -0.35 -0.75 -1.55 0.35 -2.15 0.55 -0.30 1 -0.85 1 -1.25 0 -0.80 0.90 -0.95 2.20 -0.45 1.15 0.45 1 1.20 -0.20 1.20 -1.05 0 -1.40 0.95 -0.35 1.05 1.25 0.10 3.15 -0.15 3.95 -0.60 1.10 -0.60 2.55 -3.30 2.15 -3.95 -0.15 -0.30 0.05 -0.50 0.55 -0.50 0.45 0 1.15 -0.40 1.50 -0.85 0.90 -1.30 1.50 -0.35 0.70 1.15 -0.40 0.70 -0.65 1.80 -0.60 2.40 0.10 1.25 -1.65 3.20 -2.30 2.60 -0.20 -0.20 0.05 -0.65 0.55 -1 1.25 -0.95 1.15 -2 -0.10 -1.20 -1.05 0.65 -1.75 2.40 -1.15 3 0.20 0.20 2.05 -0.20 4.10 -0.90 7.85 -2.55 7.60 -2.50 7.25 -1.55 -0.15 0.30 0.25 0.85 0.85 1.10 0.75 0.35 1.10 0.85 1 1.45 -0.15 0.85 0.15 1.80 1.40 4.30 0.20 0.40 0.20 1.20 -0.05 1.75 -0.20 0.55 -0.50 1.60 -0.65 2.40 -0.55 2.35 -1.25 1.50 -0.95 -1.15 0.25 -2.30 0.15 -2.65 -1.55 -4.70 -1.55 -1.95 -2.10 -2.25 -3.55 -2.20 -0.95 0.05 -1.75 0.20 -1.75 0.40 0 0.50 2.25 2.50 2.85 2.50 0.25 0 0.85 0.40 1.35 0.90 0.65 0.75 0.70 1.20 0.25 2.50 -0.65 1.90 -1.05 2 -1.95 0.40 -0.35 -0.70 -0.95 -1.35 -1.30 -1.50 -0.55 -0.20 -0.50 0.20 0.15 1.75 0.60 1.50 0.65 2.15 0.20 2.60 -0.40 0.40 -0.55 0.30 -0.55 -0.40 -0.05 -0.55 -0.35 -1.55 -0.75 -2.25 l-0.70 -1.25 -0.05 1.20 c0 1.25 -1.80 4.55 -2.50 4.55 -0.50 0 -0.05 -1.90 0.55 -2.30 0.60 -0.35 0.55 -3.05 -0.05 -4.20 -0.65 -1.20 0.80 -2.60 1.50 -1.50 0.25 0.40 0.60 0.55 0.80 0.35 0.55 -0.55 -0.85 -1.90 -1.50 -1.40 -0.30 0.25 -1.65 1.05 -3.05 1.75 -1.35 0.70 -2.10 1.30 -1.60 1.30 1.30 0 1.05 1.80 -0.45 2.95 -0.75 0.60 -2 1.05 -2.75 1.05 -1.40 0 -1.45 -0.10 -1.45 -2.25 0 -1.65 -0.20 -2.25 -0.75 -2.25 -0.40 0 -0.75 0.35 -0.75 0.75 0 0.40 -0.30 0.75 -0.60 0.75 -0.35 0 -1.15 0.15 -1.75 0.30 -0.85 0.25 -1.10 0 -1.40 -1.25 -0.45 -2.15 -1.05 -1.95 -1.45 0.45 -0.15 1.10 -0.55 2 -0.80 2 -0.65 0 -0.65 -1.85 0 -2.25 0.80 -0.50 0.60 -1.25 -0.35 -1.25 -1.20 0.05 -2.65 3.05 -2.65 5.50 0 2.50 -0.85 2.60 -1.30 0.20z m13.80 -4.55 c-0.55 -0.85 -0.55 -0.85 -0.30 0 0.15 0.50 0.35 1.40 0.35 2 0.10 1.10 0.10 1.10 0.30 0 0.10 -0.60 -0.05 -1.50 -0.35 -2z m-9.50 -3.65 c-0.95 -0.65 -1.50 -0.65 -1.50 0 0 0.30 0.50 0.50 1.15 0.50 0.90 0 0.95 -0.10 0.35 -0.50z"/>
  <path d="M1 29.35 c0 -1.45 0.50 -3.25 1.55 -5.25 0.85 -1.70 1.40 -3.30 1.25 -3.55 -0.45 -0.75 1.05 -1.65 2.20 -1.30 0.55 0.15 1 0.65 1 1.05 0 0.40 0.25 0.70 0.50 0.70 1.05 0 0.45 1.40 -0.70 1.70 -1.95 0.50 -4.20 3.45 -4.55 6.05 -0.45 3 -1.25 3.40 -1.25 0.60z"/>
  <path d="M12 30.50 c0 -0.55 0.25 -1 0.50 -1 0.30 0 0.50 0.45 0.50 1 0 0.55 -0.20 1 -0.50 1 -0.25 0 -0.50 -0.45 -0.50 -1z"/>
  <path d="M16.25 29.50 c-0.90 -1 -0.85 -1 0.90 -1 1.50 0 1.85 0.20 1.85 1 0 0.65 -0.35 1 -0.90 1 -0.55 0 -1.35 -0.45 -1.85 -1z"/>
  <path d="M14.50 19.50 c0 -0.25 -0.35 -0.50 -0.80 -0.50 -0.45 0 -0.70 -0.30 -0.55 -0.65 0.15 -0.40 0.05 -1 -0.15 -1.40 -0.25 -0.40 -0.25 -0.95 0.05 -1.30 0.30 -0.35 0.40 -0.85 0.25 -1.10 -0.20 -0.25 -0.10 -0.60 0.15 -0.75 0.80 -0.50 1.45 0.90 1.40 2.90 -0.05 1.15 0.20 2.05 0.55 2.20 0.35 0.10 0.50 0.40 0.30 0.65 -0.35 0.60 -1.20 0.60 -1.20 -0.05z"/>
  <path d="M21.85 18.70 c-0.60 -0.60 -0.40 -1.20 0.40 -1.20 0.40 0 0.75 -0.25 0.75 -0.50 0 -0.30 -0.35 -0.65 -0.75 -0.80 -1.10 -0.45 -0.90 -1.70 0.25 -1.70 0.75 0 1 0.35 1 1.40 0 1.55 -1.05 3.35 -1.65 2.80z"/>
  <path d="M18.20 15.45 c-0.15 -0.30 -0.75 -0.45 -1.25 -0.30 -1.40 0.40 -1.15 -0.90 0.30 -1.55 1.60 -0.75 1.90 -0.75 1.50 -0.10 -0.15 0.30 0.05 0.35 0.45 0.20 0.60 -0.25 0.80 0 0.80 1 0 1.35 -1.15 1.80 -1.80 0.75z"/>
  <path d="M14.45 12.45 c-0.50 -0.95 -0.45 -1 0.65 -0.70 1.45 0.45 1.55 0.55 1.15 1.20 -0.50 0.85 -1.15 0.65 -1.80 -0.50z"/>
  <path d="M19.90 13.25 c-0.10 -0.15 -0.15 -0.90 0 -1.75 0.15 -1.15 0.45 -1.50 1.40 -1.50 0.60 0 1.30 0.25 1.50 0.55 0.15 0.30 0.95 0.45 1.75 0.25 1.15 -0.20 1.35 -0.10 1.10 0.50 -0.20 0.60 0 0.75 0.90 0.60 0.80 -0.10 1.25 -0.55 1.35 -1.30 0.15 -1 0 -1.15 -0.95 -1 -0.80 0.10 -1.25 -0.15 -1.35 -0.70 -0.15 -0.65 0.05 -0.80 0.75 -0.60 0.80 0.25 0.80 0.20 -0.05 -0.50 -0.95 -0.75 -0.90 -0.80 0.80 -0.80 1.70 0 1.80 0.10 2 1.80 0.15 1.45 -0.05 2.10 -1.10 3.20 -0.75 0.80 -1.55 1.25 -1.80 1.05 -0.95 -0.90 -3.10 -1.05 -3.40 -0.30 -0.25 0.70 -2.35 1.05 -2.90 0.50z"/>
  <path d="M17.65 7.75 c-0.15 -1.70 -0.10 -1.75 1.60 -1.75 1.20 0 1.75 -0.25 1.75 -0.75 0 -0.50 0.55 -0.75 1.75 -0.75 1.55 0 1.75 0.15 1.75 1.30 0 1.10 -0.10 1.25 -0.75 0.70 -0.50 -0.40 -0.75 -0.45 -0.75 -0.10 0 0.30 0.40 0.80 0.90 1.05 0.70 0.40 0.50 0.50 -1 0.55 -1.35 0 -1.90 0.20 -1.90 0.75 0 0.95 -0.35 0.95 -1.40 -0.10 -0.80 -0.80 -0.85 -0.80 -1 0 -0.30 1.45 -0.85 0.95 -0.95 -0.90z"/>
 </g>
 <g fill="#432004">
  <path d="M16.50 11.25 c0 -0.80 -0.30 -1.25 -0.75 -1.25 -0.95 0 -0.95 -0.10 0.30 -2.50 0.60 -1.15 1.75 -2.55 2.50 -3.15 0.80 -0.55 1.45 -1.35 1.45 -1.70 0 -0.35 0.25 -0.65 0.50 -0.65 0.30 0 0.50 0.25 0.50 0.50 0 0.30 0.45 0.50 1 0.50 0.55 0 1 -0.20 1 -0.50 0 -0.95 0.95 -0.50 1.10 0.55 0.10 0.60 0.50 1.30 0.90 1.50 1.20 0.70 3.70 1.60 4.15 1.50 0.20 -0.05 0.70 0.25 1.10 0.65 0.95 0.90 0.30 3.25 -1.15 4.20 -1 0.65 -1.10 0.65 -1.10 -0.35 0 -0.75 -0.30 -1.10 -0.85 -1 -0.50 0.05 -1.30 -0.05 -1.75 -0.25 -1 -0.45 -3.05 0.55 -2.60 1.25 0.15 0.30 0.85 0.45 1.50 0.30 0.65 -0.10 1.20 0 1.20 0.20 0 0.25 -1 0.45 -2.25 0.45 -1.65 0 -2.25 -0.20 -2.25 -0.75 0 -0.40 -0.20 -0.75 -0.50 -0.75 -0.25 0 -0.50 -0.35 -0.50 -0.75 0 -0.40 -0.25 -0.75 -0.55 -0.75 -0.25 0 -0.35 -0.25 -0.15 -0.60 0.20 -0.35 0.15 -0.40 -0.20 -0.20 -0.35 0.20 -0.60 1 -0.60 1.80 0 1.10 0.20 1.40 0.75 1.20 0.50 -0.20 0.75 0 0.75 0.65 0 0.80 -0.35 1 -1.75 1.05 -1.55 0.05 -1.75 -0.05 -1.75 -1.15z m10.75 -2.75 c-0.30 -0.45 -4.10 -2.50 -4.70 -2.50 -0.60 0 1.05 1.20 2.80 2.05 2.35 1.05 2.30 1.05 1.90 0.45z"/>
 </g>
 <g fill="#2e3827">
  <path d="M4.30 35.20 c-0.60 -1.55 -0.35 -4.70 0.40 -4.70 0.50 0 0.65 0.70 0.60 2.75 -0.05 2.75 -0.40 3.45 -1 1.95z"/>
  <path d="M8.30 31.15 c-0.20 -1.05 -0.10 -2.65 0.20 -3.60 0.55 -1.90 0.40 -2.30 -0.65 -1.90 -0.40 0.15 -0.85 1.10 -1.05 2.05 -0.35 1.85 -0.95 2.15 -2.30 1.30 -0.65 -0.45 -0.55 -0.65 0.50 -1.50 l1.25 -1.05 -1.50 0.30 -1.50 0.30 1.75 -1.50 c1.15 -1.05 2.25 -1.55 3.35 -1.55 1.90 0 2.05 -0.40 0.65 -1.65 -0.55 -0.45 -1 -0.60 -1 -0.35 0 0.30 -0.40 0.50 -0.90 0.50 -0.95 0 -3.60 2.25 -4.50 3.75 -0.30 0.55 -0.70 0.85 -0.90 0.65 -0.50 -0.55 2.25 -5.80 3.20 -6.05 0.55 -0.15 0.45 -0.25 -0.40 -0.30 -1.15 -0.05 -1.15 -0.10 -0.35 -0.90 0.65 -0.70 1.05 -0.75 1.75 -0.35 0.45 0.30 1.70 0.45 2.75 0.30 1.05 -0.10 2.20 0.05 2.60 0.40 0.40 0.35 1.30 0.50 2 0.30 0.70 -0.20 1.25 -0.15 1.25 0.10 0 0.20 0.70 0.80 1.50 1.25 1.60 1 1.95 2.05 0.75 2.70 -0.50 0.30 -0.55 0.65 -0.25 1.15 0.40 0.65 0.50 0.65 0.50 -0.05 0 -1.25 1.20 -2.05 1.90 -1.35 0.45 0.45 0.60 0.45 0.60 0.05 0 -0.35 -0.45 -0.90 -1.05 -1.35 -0.75 -0.50 -0.95 -1.05 -0.75 -1.90 0.15 -0.60 0.15 -0.85 0 -0.50 -0.45 0.95 -1.80 0.75 -1.60 -0.25 0.15 -0.90 0.85 -0.95 4.65 -0.55 1.10 0.10 2.70 1.75 2.75 2.80 0 0.85 1.50 0.75 1.50 -0.15 0 -0.80 2.55 -2.30 4.35 -2.50 0.80 -0.05 1.10 0.10 0.95 0.50 -0.20 0.65 2.60 3.75 3.45 3.75 0.20 0 0.80 0.35 1.25 0.75 1 0.90 0.75 3.75 -0.30 3.75 -1.05 0 -1.45 -1.40 -0.65 -2.30 0.55 -0.65 0.45 -0.70 -0.65 -0.45 -1.05 0.30 -1.45 0.05 -2.35 -1.45 l-1.15 -1.80 -1.55 1.20 c-0.90 0.70 -2.20 1.45 -3 1.75 -0.75 0.30 -1.35 0.85 -1.35 1.30 0 0.90 0.80 1 1.15 0.15 0.20 -0.45 0.30 -0.35 0.30 0.15 0.10 1.45 -2.40 3.45 -4.25 3.45 l-1.70 0 0 -2.50 c0 -1.35 -0.15 -2.50 -0.40 -2.50 -0.70 0 -2.10 2 -2.10 3.05 0 1.70 -1.20 0.80 -1.90 -1.45 -0.60 -1.75 -0.90 -2.10 -2 -2.10 -1.20 0 -3.50 0.95 -2.40 1 0.20 0 0.05 0.55 -0.40 1.25 -0.45 0.65 -0.80 2.25 -0.80 3.50 0 2.70 -0.80 3 -1.20 0.40z m14.45 -2.10 c0.15 -0.30 -0.05 -1.25 -0.45 -2.15 l-0.70 -1.65 0 2.15 c0 2 0.50 2.70 1.15 1.65z m0 -6.40 c0 -0.05 -0.55 0 -1.10 0.15 -0.90 0.25 -1 0.45 -0.55 1.20 0.55 0.90 0.60 0.85 1.15 -0.15 0.35 -0.60 0.55 -1.15 0.50 -1.20z m-9.60 0.35 c-0.60 -0.25 -1.30 -0.85 -1.60 -1.35 -0.30 -0.50 -0.55 -0.65 -0.55 -0.30 0 0.30 -0.15 0.90 -0.30 1.35 -0.25 0.65 0.05 0.80 1.60 0.75 1.65 0 1.75 -0.10 0.85 -0.45z m16.20 -1.80 c-0.25 -0.25 -2.85 0.65 -2.85 1 0 0.15 0.70 0 1.55 -0.30 0.80 -0.30 1.40 -0.60 1.30 -0.70z"/>
  <path d="M28 31.50 c0.30 -0.55 0.75 -1 1.05 -1 0.30 0 0.30 0.35 -0.05 1 -0.30 0.55 -0.75 1 -1.05 1 -0.30 0 -0.30 -0.35 0.05 -1z"/>
  <path d="M31.55 28.60 c-0.45 -1.40 -0.80 -2 -0.90 -1.45 -0.30 1.25 -1 1.05 -1.80 -0.65 -0.65 -1.25 -0.65 -1.55 -0.05 -2.05 0.40 -0.35 0.90 -0.40 1.10 -0.20 0.20 0.20 0.05 0.50 -0.25 0.60 -1.10 0.40 -0.70 1.25 0.35 0.90 0.85 -0.25 1.20 0.05 2.05 2 0.60 1.40 0.85 2.55 0.60 2.80 -0.25 0.25 -0.75 -0.55 -1.10 -1.95z"/>
  <path d="M37.95 30.25 c0 -0.25 0 -1.35 0.05 -2.35 0.15 -3.10 -0.95 -5.30 -3.10 -6.30 -2.50 -1.15 -2.60 -2.80 -0.25 -3.80 0.85 -0.35 1.65 -0.60 1.75 -0.55 0.10 0.10 -0.20 0.85 -0.65 1.70 -0.85 1.65 -0.50 2.10 0.50 0.70 0.55 -0.75 0.75 -0.75 1.45 -0.20 0.55 0.45 0.65 0.85 0.30 1.30 -0.30 0.40 -0.20 0.95 0.35 1.70 0.90 1.30 1.05 5.95 0.20 7.40 -0.30 0.50 -0.55 0.70 -0.60 0.40z"/>
  <path d="M12 28.05 c0 -0.50 0.40 -1.25 0.85 -1.60 0.75 -0.60 0.80 -0.60 0.50 0.20 -0.20 0.50 -0.35 1.25 -0.35 1.65 0 0.40 -0.20 0.70 -0.50 0.70 -0.25 0 -0.50 -0.40 -0.50 -0.95z"/>
  <path d="M23.05 20.30 c-0.45 -0.50 -0.30 -0.85 0.55 -1.40 0.65 -0.45 1.45 -1.35 1.85 -2.10 0.65 -1.15 0.60 -1.40 -0.20 -2.30 -0.50 -0.55 -0.75 -1.15 -0.55 -1.40 0.20 -0.20 0.65 0.05 1 0.55 0.80 1.05 1.60 1.10 2 0.10 0.30 -0.85 1.30 -1 1.30 -0.20 0 0.30 -0.35 0.90 -0.80 1.30 -0.50 0.55 -0.70 1.30 -0.50 2.20 0.15 0.95 -0.05 1.60 -0.75 2.20 -0.50 0.50 -1.10 0.75 -1.35 0.55 -0.20 -0.20 0.05 -0.65 0.55 -1 0.45 -0.35 0.85 -0.95 0.85 -1.35 0 -0.85 -2.45 2.05 -2.50 2.95 0 0.80 -0.75 0.75 -1.45 -0.10z"/>
  <path d="M14.50 19.50 c0 -0.25 -0.35 -0.50 -0.75 -0.50 -0.65 0 -0.65 -0.15 -0.15 -1 0.60 -0.95 0.60 -0.95 1.55 0.05 0.50 0.50 0.75 1.20 0.60 1.45 -0.40 0.65 -1.25 0.65 -1.25 0z"/>
  <path d="M18 17.75 c0 -0.80 0.85 -0.95 2.20 -0.45 1.30 0.50 0.90 1.20 -0.70 1.20 -1 0 -1.50 -0.25 -1.50 -0.75z"/>
  <path d="M14.50 15.65 c0 -0.65 0.65 -1.20 1.90 -1.65 1 -0.40 2.10 -0.85 2.35 -0.95 1 -0.40 -1.20 1.70 -2.70 2.60 -1.50 0.90 -1.55 0.90 -1.55 0z"/>
  <path d="M22.40 16.15 c-1.25 -0.30 -1.15 -1.65 0.10 -1.65 0.65 0 1 0.35 1 1 0 0.55 -0.05 0.95 -0.10 0.95 -0.10 -0.05 -0.55 -0.15 -1 -0.30z"/>
  <path d="M18.50 15 c0 -0.55 0.35 -1.15 0.75 -1.30 0.55 -0.25 0.65 -0.50 0.25 -0.95 -0.55 -0.65 -2.30 -0.45 -3.40 0.40 -0.35 0.25 -0.70 0.40 -0.75 0.30 -0.05 -0.10 -0.45 -0.60 -0.85 -1.10 -0.60 -0.85 -0.55 -0.90 0.65 -0.60 1.05 0.30 1.35 0.20 1.35 -0.45 0 -0.45 0.25 -0.80 0.50 -0.80 0.30 0 0.50 -0.35 0.50 -0.80 0 -0.40 0.25 -0.60 0.55 -0.45 0.30 0.20 0.40 0.65 0.25 1.05 -0.30 0.80 0.15 0.90 1.15 0.25 0.45 -0.30 0.55 -0.90 0.35 -1.70 -0.30 -1.25 -0.95 -1.45 -2.20 -0.65 -0.50 0.30 -0.65 0.05 -0.50 -1 0.15 -1.35 0.30 -1.45 2.60 -1.55 1.85 -0.10 2.65 0.10 3.10 0.75 0.85 1.05 0.90 2.45 0.10 2.70 -1.05 0.35 0 1.90 1.35 1.90 0.70 0 1.25 0.25 1.25 0.50 0 0.30 0.45 0.50 1 0.50 0.95 0 1.30 0.55 0.70 1.15 -0.15 0.15 -1.30 -0.15 -2.55 -0.70 -1.30 -0.55 -2.55 -0.90 -2.85 -0.75 -0.30 0.10 -0.15 0.25 0.35 0.25 0.45 0.05 0.85 0.30 0.85 0.55 0 0.30 -0.40 0.70 -0.85 0.85 -0.50 0.20 -1.10 0.60 -1.30 1 -0.20 0.35 -0.80 0.65 -1.25 0.70 -0.70 0 -0.65 0.10 0.15 0.45 0.95 0.40 0.95 0.45 -0.10 0.45 -0.85 0.05 -1.15 -0.25 -1.15 -0.95z"/>
  <path d="M28.35 10.50 c0.15 -0.55 0.60 -1 1.05 -1 0.65 0 0.60 0.15 -0.15 1 -0.50 0.55 -0.95 1 -1.05 1 -0.05 0 0 -0.45 0.15 -1z"/>
  <path d="M19.70 2.75 c-0.10 -1.60 0.45 -1.60 1.50 0 0.80 1.20 0.80 1.25 -0.30 1.25 -0.85 0 -1.15 -0.30 -1.20 -1.25z"/>
 </g>
 <g fill="#69310a">
  <path d="M15 12.50 c0 -0.25 0.35 -0.50 0.75 -0.50 0.40 0 0.75 -0.40 0.75 -0.95 0 -1.15 1.25 -2.35 1.75 -1.55 0.15 0.25 0.15 0.75 -0.05 1.10 -0.25 0.40 0 0.45 0.70 0.30 1.80 -0.50 1.25 0.30 -0.90 1.25 -2.30 0.95 -3 1.05 -3 0.35z"/>
  <path d="M28.50 10.15 c0 -0.55 -0.40 -1.35 -0.85 -1.75 -1.30 -1.05 -5.15 -2.85 -5.15 -2.35 0 0.20 0.25 0.55 0.50 0.70 0.30 0.15 0.50 0.65 0.50 1.10 0 0.65 -0.15 0.65 -1.30 -0.10 -0.75 -0.45 -1.20 -0.65 -1 -0.35 0.15 0.25 -0.05 0.75 -0.45 1.10 -0.60 0.50 -0.75 0.50 -0.75 -0.15 0 -1.45 -1 -1.40 -2.55 0.10 -0.85 0.85 -1.75 1.45 -2 1.30 -0.70 -0.45 1.40 -4.05 3.05 -5.25 1.10 -0.80 1.45 -1.35 1.25 -2.05 -0.40 -1.25 0.35 -1.20 1.15 0.10 0.35 0.55 0.95 0.90 1.35 0.75 0.40 -0.15 1 0.05 1.35 0.40 1.10 1.05 2.75 1.80 4.10 1.80 2.60 0 3.75 3 1.80 4.75 -0.95 0.90 -1 0.85 -1 -0.10z"/>
 </g>
 <g fill="#414f3a">
  <path d="M4.30 35.20 c-0.45 -1.15 -0.35 -2.20 0.15 -2.20 0.25 0 0.55 0.70 0.65 1.50 0.25 1.60 -0.30 2.05 -0.80 0.70z"/>
  <path d="M33.75 30 c0 -1.95 0.15 -3.50 0.35 -3.50 0.25 0 0.40 -0.25 0.40 -0.55 0 -0.35 -0.50 -0.45 -1.20 -0.25 -0.90 0.20 -1.30 0.05 -1.55 -0.55 -0.15 -0.50 -0.60 -1.30 -0.95 -1.80 -0.65 -0.85 -0.80 -0.80 -3.10 0.65 -2.55 1.60 -3.95 1.90 -4.35 0.90 -0.15 -0.35 -0.30 -0.20 -0.30 0.35 0 1.15 1.15 2.90 1.60 2.40 0.20 -0.15 0.35 -0.10 0.35 0.20 0 0.25 -0.50 0.95 -1.15 1.55 -0.90 0.85 -1.80 1.10 -3.75 1.10 -2.30 0 -2.70 -0.15 -3.05 -1.20 -0.25 -0.65 -0.85 -1.30 -1.25 -1.45 -0.45 -0.20 -0.80 -0.90 -0.80 -1.65 0 -1.30 -0.05 -1.35 -2.70 -1.05 -2.50 0.25 -2.65 0.20 -2.40 -0.75 0.20 -0.85 0.60 -0.95 2.65 -0.80 1.35 0.05 2.45 0 2.45 -0.20 0 -0.25 -0.55 -0.40 -1.20 -0.40 -0.70 0 -1.50 -0.50 -2 -1.20 -0.75 -1.20 -0.75 -1.25 0.80 -1.40 1.50 -0.15 2.70 -1.40 1.30 -1.40 -0.50 0 -0.70 -0.75 -0.70 -2.75 0.05 -2.65 0.35 -3.35 1.05 -2.20 0.20 0.30 1 0.40 1.90 0.20 l1.60 -0.35 -1.45 1.30 c-1.20 1.10 -1.50 1.75 -1.55 3.60 0 2 0.15 2.40 1.35 3 1.60 0.85 1.70 1.05 0.60 2.25 -0.45 0.50 -0.65 1.15 -0.40 1.50 0.25 0.45 0.50 0.30 0.80 -0.50 0.20 -0.65 0.75 -1.10 1.25 -1 1.65 0.15 1.70 -0.05 0.30 -1.35 -0.95 -0.85 -1.20 -1.35 -0.75 -1.55 0.30 -0.10 0.60 -0.55 0.60 -0.95 0 -0.85 1.10 -0.90 1.90 -0.10 0.45 0.45 0.60 0.45 0.60 -0.05 0 -0.55 0.15 -0.55 0.80 -0.05 0.90 0.80 1.90 2.55 1.35 2.40 -0.20 -0.05 -0.90 0.05 -1.50 0.30 -0.95 0.30 -1.05 0.50 -0.50 1.35 0.45 0.75 0.45 1.15 -0.05 1.95 -0.40 0.70 -0.45 1 -0.05 1 0.35 0 0.45 0.50 0.35 1.25 -0.30 1.40 0.10 1.90 1 1.30 0.50 -0.30 0.50 -0.95 0.10 -2.80 -0.60 -2.60 -0.40 -3.85 0.60 -3.70 1.35 0.15 1.90 -0.10 1.90 -0.80 0 -1 5.35 -3.25 7.65 -3.25 0.45 0 0.85 -0.20 0.85 -0.50 0 -0.25 0.55 -0.50 1.25 -0.50 1.40 0 1.60 0.60 0.50 1.65 -0.40 0.40 -0.55 0.85 -0.40 1.05 0.55 0.55 1.15 0.30 1.15 -0.45 0 -0.40 0.45 -0.75 0.95 -0.75 0.75 0 0.95 0.35 0.95 1.50 -0.05 1.65 -0.80 1.90 -2.55 0.80 -0.60 -0.35 -2.05 -0.80 -3.25 -0.95 -2.05 -0.25 -2.15 -0.20 -1.40 0.60 0.45 0.50 0.80 1.25 0.80 1.70 0 0.45 0.25 0.85 0.50 0.85 0.30 0 0.50 0.35 0.50 0.80 0 0.70 0.10 0.70 0.80 -0.05 0.75 -0.75 0.90 -0.75 1.75 0.05 0.50 0.45 0.80 1.10 0.60 1.40 -0.20 0.30 -0.30 1.35 -0.20 2.40 0.15 2.50 -0.40 4.90 -1.10 4.90 -0.40 0 -0.60 -1.15 -0.60 -3.50z m-4.75 -8.60 c0.50 -0.30 0.35 -0.35 -0.50 -0.10 -0.70 0.15 -1.60 0.55 -2 0.80 -0.50 0.30 -0.35 0.35 0.50 0.10 0.70 -0.15 1.60 -0.55 2 -0.80z"/>
  <path d="M8.70 32.40 c-0.45 -0.75 -0.45 -5.10 0 -5.85 0.50 -0.75 1.80 -0.70 1.80 0.10 0 0.35 -0.25 0.90 -0.55 1.20 -0.30 0.30 -0.55 1.55 -0.55 2.85 0 2.40 -0.10 2.70 -0.70 1.70z"/>
  <path d="M4 29.95 c0 -1.60 0.20 -2.10 1 -2.30 0.55 -0.15 1 -0.45 1 -0.70 0 -0.25 0.20 -0.45 0.45 -0.45 0.40 0 0.20 1.40 -0.70 4.40 -0.60 1.95 -1.75 1.35 -1.75 -0.95z"/>
  <path d="M28.30 31.15 c0.20 -0.50 0.45 -1.85 0.60 -3 0.15 -1.45 0.45 -2.15 1.10 -2.30 1.10 -0.30 2.50 2 2.45 4 l-0.05 1.40 -0.35 -1.50 c-0.20 -0.85 -0.65 -2 -0.95 -2.50 -0.55 -0.95 -0.55 -0.95 -0.60 0.15 0 1.50 -1.45 4.60 -2.10 4.60 -0.30 0 -0.35 -0.35 -0.10 -0.85z"/>
  <path d="M12 29.55 c0 -1.15 0.25 -2.05 0.50 -2.05 0.30 0 0.50 0.75 0.50 1.70 0 0.95 -0.20 1.90 -0.50 2.05 -0.30 0.20 -0.50 -0.50 -0.50 -1.70z"/>
  <path d="M1 29.40 c0 -1.65 0.70 -3.35 1.20 -2.90 0.40 0.45 -0.30 4.50 -0.75 4.50 -0.25 0 -0.45 -0.75 -0.45 -1.60z"/>
  <path d="M4.10 26.45 c0.10 -0.40 0.70 -0.90 1.30 -1.20 0.60 -0.25 1.10 -0.65 1.10 -0.85 0 -0.25 0.70 -0.40 1.50 -0.40 2.20 0 1.85 0.75 -0.85 1.80 -1.35 0.55 -2.60 1.05 -2.85 1.15 -0.25 0.10 -0.35 -0.15 -0.20 -0.50z"/>
  <path d="M3.50 23.30 c0 -0.70 0.45 -1.55 1.05 -2 l1.05 -0.70 -1.15 -0.20 c-1.15 -0.15 -1.15 -0.20 -0.20 -0.75 1.35 -0.70 4.25 -0.25 4.25 0.70 0 0.60 0.10 0.60 0.80 -0.05 1.20 -1.20 1.60 -0.95 1.55 0.85 -0.10 1.55 -0.15 1.60 -2.20 1.45 -1.55 -0.15 -2.55 0.10 -3.65 0.90 l-1.50 1.05 0 -1.25z"/>
  <path d="M23.15 20.25 c-0.15 -0.45 0.10 -1.10 0.65 -1.50 1.20 -0.85 1.35 -0.70 0.90 0.95 -0.35 1.45 -1.10 1.70 -1.55 0.55z"/>
  <path d="M25.40 14.75 c-0.50 -0.95 -0.65 -1.75 -0.35 -1.75 0.25 0 0.60 0.35 0.75 0.75 0.40 1 1.50 0.95 1.90 -0.05 0.20 -0.45 0.45 -0.70 0.65 -0.55 0.45 0.45 -0.90 3.35 -1.55 3.35 -0.30 0 -0.95 -0.80 -1.40 -1.75z"/>
  <path d="M18.50 14.50 c0 -0.25 0.40 -0.70 0.90 -0.95 0.80 -0.50 0.80 -0.60 -0.10 -1.30 -0.95 -0.70 -0.95 -0.75 -0.10 -1.40 0.70 -0.50 0.85 -1.10 0.70 -2.40 -0.20 -1.15 -0.05 -2 0.50 -2.55 0.65 -0.75 0.65 -0.90 0.05 -0.90 -0.40 0 -1 0.25 -1.35 0.60 -0.45 0.45 -0.60 0.40 -0.60 -0.25 0 -0.65 0.45 -0.85 1.65 -0.85 1.25 0 1.80 0.30 2.50 1.55 0.95 1.70 1.10 2.95 0.35 2.95 -0.25 0 -0.50 0.45 -0.50 1 0 0.75 0.35 1 1.25 1 0.80 0 1.25 0.30 1.25 0.75 0 0.95 -0.50 0.95 -1.90 -0.05 -0.60 -0.40 -1.50 -0.70 -2 -0.55 -0.65 0.15 -0.55 0.30 0.55 0.75 1.40 0.60 1.45 1.60 0.05 1.60 -0.40 0 -0.70 0.35 -0.70 0.75 0 0.45 -0.45 0.75 -1.25 0.75 -0.70 0 -1.25 -0.20 -1.25 -0.50z"/>
  <path d="M23.20 5.75 c-0.90 -0.75 -0.90 -0.75 0.25 -0.65 0.70 0.10 1.30 0.45 1.45 0.80 0.25 0.85 -0.50 0.75 -1.70 -0.15z"/>
 </g>
 <g fill="#9c4605">
  <path d="M16.75 10.90 c0.05 -0.65 0.40 -1.15 0.80 -1.15 0.40 0 0.65 0.30 0.55 0.70 -0.10 0.45 0.20 0.60 0.90 0.40 0.65 -0.15 1 0 1 0.45 0 0.45 -0.55 0.70 -1.65 0.70 -1.45 0 -1.65 -0.15 -1.60 -1.10z"/>
  <path d="M28.70 10.20 c0.40 -1.25 -0.35 -1.95 -3.95 -3.70 -1.55 -0.75 -2.55 -1 -2.40 -0.65 0.15 0.40 -0.15 0.65 -0.85 0.65 -0.80 0 -1 -0.20 -0.80 -0.75 0.65 -1.75 -1.25 -0.55 -2.95 1.80 -1 1.40 -1.95 2.40 -2.10 2.25 -0.65 -0.65 0.50 -2.90 2.40 -4.75 1.15 -1.10 1.90 -2.20 1.75 -2.50 -0.20 -0.30 -0.10 -0.55 0.20 -0.55 0.30 0 0.65 0.35 0.80 0.75 0.45 1.10 1.45 0.90 2.35 -0.35 l0.80 -1.15 0 1.35 c0.05 1.50 1.65 2.90 3.35 2.90 1.85 0 3.35 1.55 2.95 3.10 -0.20 0.75 -0.70 1.65 -1.10 2 -0.70 0.55 -0.75 0.50 -0.45 -0.40z"/>
 </g>
 <g fill="#536f3d">
  <path d="M33.30 33.65 c0.40 -1.05 0.80 -2.50 0.80 -3.25 0.05 -0.90 0.35 -1.40 0.80 -1.40 0.85 0 0.60 2.55 -0.50 5.05 -1 2.30 -2.10 1.90 -1.10 -0.40z"/>
  <path d="M4.05 31.90 c0.10 -2.55 0.65 -4.15 1.60 -4.30 0.90 -0.20 1.25 1.60 0.40 2.10 -0.25 0.15 -0.60 1.10 -0.75 2.05 -0.45 2.20 -1.30 2.30 -1.25 0.15z"/>
  <path d="M8.75 32.40 c-0.65 -1.75 -0.45 -6.05 0.25 -5.65 0.30 0.15 0.50 0.05 0.50 -0.20 0 -0.30 0.25 -0.55 0.50 -0.55 0.70 0 0.65 1.35 -0.10 1.60 -0.35 0.15 -0.60 1.30 -0.60 2.80 -0.05 2.65 -0.15 3.05 -0.55 2z"/>
  <path d="M28 31.65 c0 -0.25 0.25 -0.70 0.60 -1.05 0.30 -0.30 0.60 -1.40 0.60 -2.40 0.05 -1.05 0.35 -1.95 0.70 -2.10 0.80 -0.25 0.75 1.55 -0.10 3.60 -0.65 1.60 -1.80 2.80 -1.80 1.95z"/>
  <path d="M1.20 29.25 c0.10 -1.10 0.25 -2.30 0.25 -2.60 0.05 -0.35 0.30 -0.65 0.60 -0.65 0.35 0 0.40 0.70 0.20 2.15 -0.45 2.80 -1.40 3.75 -1.05 1.10z"/>
  <path d="M12 29.35 c0 -0.90 0.35 -2.10 0.75 -2.65 0.70 -0.90 0.75 -0.85 0.40 0.55 -0.20 0.85 -0.35 2 -0.30 2.65 0 0.60 -0.15 1.10 -0.40 1.10 -0.25 0 -0.45 -0.75 -0.45 -1.65z"/>
  <path d="M16.45 29.55 c-1 -0.80 -1.20 -1.40 -1.20 -3.75 0 -2.45 -0.10 -2.80 -1 -2.80 -1.30 0 -2 -0.50 -2.45 -1.75 -0.20 -0.55 -0.20 -0.80 -0.05 -0.65 0.20 0.20 0.90 0.15 1.60 -0.15 1.05 -0.40 1.20 -0.35 0.90 0.50 -0.25 0.75 -0.10 0.90 0.65 0.70 0.55 -0.10 1.35 0.15 1.80 0.60 0.80 0.80 0.80 0.95 0 1.80 -0.85 0.95 -0.65 2.45 0.30 2.45 0.35 0 0.45 -0.40 0.25 -1 -0.20 -0.70 -0.05 -1.10 0.55 -1.35 0.55 -0.20 0.95 -0.10 1.10 0.30 0.15 0.40 0.40 0.35 0.80 -0.25 1.05 -1.40 1.75 -0.35 1.60 2.20 -0.10 1.30 -0.20 2.75 -0.25 3.25 -0.05 1.20 -3.10 1.15 -4.60 -0.10z"/>
  <path d="M22.25 29.85 c0.65 -0.50 0.80 -1.10 0.60 -2.15 l-0.25 -1.45 1 1.25 1 1.20 -1.10 0.90 c-0.60 0.50 -1.35 0.90 -1.65 0.90 -0.30 0 -0.15 -0.30 0.40 -0.65z"/>
  <path d="M38.05 28.90 c-0.05 -1.05 0.20 -1.90 0.45 -1.90 0.60 0 0.60 1.35 0 2.75 -0.35 0.80 -0.45 0.65 -0.45 -0.85z"/>
  <path d="M33.50 27 c0 -0.25 0.35 -0.50 0.75 -0.50 0.40 0 0.75 0.25 0.75 0.50 0 0.30 -0.35 0.50 -0.75 0.50 -0.40 0 -0.75 -0.20 -0.75 -0.50z"/>
  <path d="M4 26.60 c0 -0.85 2.80 -2.60 4.20 -2.60 1.95 0 1.55 0.65 -1.05 1.75 -1.30 0.55 -2.55 1.10 -2.75 1.15 -0.20 0.10 -0.40 -0.05 -0.40 -0.30z"/>
  <path d="M38 25.85 c0 -0.40 -0.70 -1.65 -1.50 -2.75 -1.10 -1.55 -1.30 -2.10 -0.75 -2.10 0.40 0 0.75 -0.35 0.75 -0.75 0 -0.40 0.35 -0.75 0.80 -0.75 0.55 0 0.70 0.25 0.50 0.80 -0.15 0.40 0.05 1.40 0.45 2.20 0.85 1.65 1 4 0.25 4 -0.25 0 -0.50 -0.30 -0.50 -0.65z"/>
  <path d="M31.05 23.85 l-1.15 -1.95 -1.30 1.20 c-0.75 0.65 -2 1.50 -2.80 1.80 -1.20 0.55 -1.50 0.50 -2.10 -0.25 -0.65 -0.85 -0.65 -0.85 -0.70 0 0 1.15 -1 1.10 -1 -0.05 0 -0.85 1.30 -1.40 5.65 -2.40 0.75 -0.15 1.50 -0.55 1.70 -0.85 0.20 -0.35 -0.10 -0.40 -0.90 -0.15 -0.65 0.20 -1.75 0.50 -2.45 0.65 -1.15 0.20 -1.10 0.15 0.35 -0.85 1.80 -1.20 2.75 -0.95 5.25 1.35 0.75 0.70 1.85 1.55 2.45 1.85 1.75 0.85 1.65 1.60 -0.20 1.60 -1.45 0 -1.85 -0.30 -2.80 -1.95z"/>
  <path d="M2.50 24.65 c0 -0.60 0.55 -1.75 1.20 -2.50 1 -1.15 1.35 -1.30 1.85 -0.75 0.55 0.50 0.30 0.95 -1.20 2.50 -1.65 1.65 -1.85 1.70 -1.85 0.75z"/>
  <path d="M10 24.30 c0 -0.55 0.55 -0.70 2.10 -0.55 2.95 0.20 3.10 1.25 0.20 1.25 -1.65 0 -2.30 -0.20 -2.30 -0.70z"/>
  <path d="M18.30 22.55 c-0.75 -0.80 -0.80 -1.15 -0.25 -2.15 0.60 -1.15 0.60 -1.15 -0.50 -0.20 -1.15 1.05 -1.85 0.80 -1.40 -0.45 0.35 -0.85 1.25 -0.95 3.05 -0.25 0.95 0.35 1.20 0.70 0.95 1.35 -0.25 0.75 -0.15 0.75 0.55 -0.10 0.80 -1 0.80 -1 1.55 -0.05 0.65 0.85 0.65 1.05 -0.15 1.55 -1.70 1.20 -2.90 1.30 -3.80 0.30z"/>
  <path d="M6.65 21.80 c0.25 -0.55 -0.15 -0.90 -1.30 -1.25 -0.90 -0.25 -1.20 -0.50 -0.70 -0.50 0.45 -0.05 0.85 -0.25 0.85 -0.50 0 -0.35 4.40 0.15 4.80 0.60 0.05 0.05 0.20 0.55 0.30 1.10 0.15 0.85 -0.15 1 -2.05 1.15 -1.80 0.15 -2.15 0.05 -1.90 -0.60z"/>
  <path d="M23.25 20.50 c-0.15 -0.25 -0.15 -0.75 0.05 -1.05 0.30 -0.55 1.15 0.30 1.20 1.20 0 0.50 -0.90 0.45 -1.25 -0.15z"/>
  <path d="M31.35 20.65 c-1.55 -0.40 -0.65 -1.35 2.10 -2.30 1.50 -0.50 2.75 -0.80 2.85 -0.70 0.10 0.10 -0.35 0.85 -0.95 1.75 -1.05 1.55 -1.90 1.80 -4 1.25z"/>
  <path d="M19.55 12.45 c-1.15 -0.90 -1.15 -1 -0.30 -1.65 0.65 -0.45 0.80 -1.10 0.65 -2.30 -0.20 -1.25 0 -1.95 0.75 -2.70 l1 -1.05 -0.30 1.65 c-0.20 0.90 -0.10 1.60 0.15 1.60 0.30 0 0.50 0.65 0.50 1.45 0 1.20 -0.15 1.40 -1 1.20 -0.60 -0.15 -1 0 -1 0.35 0 0.30 0.45 0.70 1 0.85 1.10 0.30 1.40 1.65 0.40 1.65 -0.35 -0.05 -1.20 -0.50 -1.85 -1.05z"/>
  <path d="M18 5.75 c0 -0.40 0.35 -0.75 0.80 -0.75 0.70 0 0.70 0.15 0.20 0.75 -0.35 0.40 -0.70 0.75 -0.80 0.75 -0.10 0 -0.20 -0.35 -0.20 -0.75z"/>
 </g>
 <g fill="#5d665a">
  <path d="M4.35 35 c-0.15 -0.55 -0.10 -1 0.15 -1 0.20 0 0.50 0.45 0.65 1 0.15 0.55 0.10 1 -0.15 1 -0.20 0 -0.50 -0.45 -0.65 -1z"/>
  <path d="M32.50 35.60 c0 -0.60 1.40 -2.40 1.65 -2.10 0.40 0.40 -0.55 2.50 -1.15 2.50 -0.25 0 -0.50 -0.20 -0.50 -0.40z"/>
  <path d="M34.20 30.25 c-0.05 -0.70 -0.25 -1.80 -0.40 -2.50 -0.25 -0.90 -0.10 -1.25 0.40 -1.25 0.85 0 1.30 1.10 1.30 3.30 0 2 -1.20 2.40 -1.30 0.45z"/>
  <path d="M18.80 29.35 c-0.60 -0.80 -0.80 -0.85 -0.60 -0.20 0.55 1.75 -2.25 0.55 -2.85 -1.25 -0.20 -0.60 -0.05 -0.90 0.40 -0.90 0.40 0 0.75 0.30 0.75 0.70 0 0.40 0.25 0.90 0.50 1.05 0.35 0.20 0.45 -0.10 0.20 -0.95 -0.20 -0.75 -0.10 -1.30 0.20 -1.30 0.30 0 0.60 0.40 0.70 0.90 0.10 0.50 0.45 0 0.90 -1.35 0.40 -1.25 1.05 -2.30 1.35 -2.45 0.95 -0.30 1.45 1.45 0.60 1.95 -0.50 0.25 -0.70 1.05 -0.60 2.40 0.10 2.45 -0.45 2.95 -1.55 1.40z"/>
  <path d="M8.50 27.45 c0 -0.55 0.25 -0.85 0.50 -0.70 0.30 0.15 0.50 0.65 0.50 1.05 0 0.40 -0.20 0.70 -0.50 0.70 -0.25 0 -0.50 -0.45 -0.50 -1.05z"/>
  <path d="M32.35 25.65 c-0.15 -0.25 -0.10 -0.80 0.10 -1.25 0.25 -0.75 0.50 -0.80 1.50 -0.25 0.70 0.35 1.30 0.95 1.45 1.35 0.20 0.60 0.10 0.60 -0.40 0.15 -0.45 -0.40 -0.95 -0.45 -1.55 -0.15 -0.50 0.30 -1 0.35 -1.10 0.15z"/>
  <path d="M2 25.25 c0 -0.65 1.50 -3.10 2.20 -3.70 1.30 -1.05 1.05 1.20 -0.30 2.70 -1 1.15 -1.90 1.60 -1.90 1z"/>
  <path d="M23.80 24.70 c-0.45 -1.20 -0.05 -1.50 2.55 -2.20 1.30 -0.30 2.70 -0.80 3.05 -1.10 0.95 -0.85 3.10 1.30 2.20 2.20 -0.50 0.50 -0.70 0.40 -0.90 -0.50 -0.40 -1.35 -0.45 -1.35 -2.05 -0.15 -0.65 0.55 -1.55 0.85 -1.95 0.70 -0.40 -0.15 -0.70 -0.05 -0.70 0.20 0 0.20 -0.45 0.70 -0.95 1 -0.80 0.50 -1 0.45 -1.25 -0.15z"/>
  <path d="M36.85 23.05 c-0.90 -1.55 -0.70 -3.05 0.50 -3.05 0.40 0 0.55 0.20 0.40 0.50 -0.15 0.25 0.05 1.15 0.50 1.95 0.90 1.80 0.95 2.05 0.10 2.05 -0.35 0 -1 -0.65 -1.50 -1.45z"/>
  <path d="M15.50 23.25 c0 -0.50 -0.50 -0.75 -1.50 -0.75 -1.80 0 -3.10 -1.75 -1.40 -1.85 1.50 -0.15 2.35 -1.05 1.45 -1.60 -0.85 -0.55 -1.20 -2.90 -0.50 -3.30 0.25 -0.20 0.25 -0.70 -0.05 -1.30 -0.60 -1.10 -0.35 -1.20 0.95 -0.40 0.70 0.45 1.25 0.40 2.50 -0.20 2.25 -1.15 1.90 -0.10 -0.45 1.20 -1.10 0.65 -2 1.40 -2 1.70 0 1.10 1.50 2.65 2.40 2.40 1.30 -0.35 3.65 0.70 3.30 1.50 -0.15 0.40 0.10 0.70 0.55 0.70 0.50 0 0.70 -0.30 0.50 -0.80 -0.20 -0.55 0 -0.50 0.75 0.20 l1.05 0.95 -1.85 0.90 c-1.75 0.85 -1.95 0.85 -2.75 0.10 -0.70 -0.65 -0.80 -1.05 -0.40 -1.80 0.65 -1.25 0.30 -1.70 -0.55 -0.65 -0.80 0.95 -1.50 0.95 -1.50 0 0 -1.05 -0.85 -0.95 -1.50 0.20 -0.65 1.30 -0.70 1.30 0.80 1.40 1.35 0.05 2.35 1 1.90 1.75 -0.45 0.70 -1.70 0.45 -1.70 -0.35z"/>
  <path d="M26.50 21.05 c1.40 -1.10 4.35 -1.60 5.50 -1 0.55 0.30 0.35 0.40 -0.65 0.45 -0.75 0 -2.20 0.35 -3.20 0.75 -2.40 1 -3.15 0.90 -1.65 -0.20z"/>
  <path d="M4.80 20.65 c-1.35 -0.20 -1.35 -0.25 -0.45 -0.90 1.10 -0.75 3.30 -0.45 3 0.40 -0.20 0.65 -0.70 0.75 -2.55 0.50z"/>
  <path d="M23.25 20.50 c-0.15 -0.25 0.45 -1.40 1.30 -2.50 1.65 -2 1.65 -2.05 0.75 -3.50 -0.55 -0.95 -0.65 -1.50 -0.30 -1.50 0.35 0 0.70 0.45 0.85 1 0.35 1.30 0.85 1.25 1.80 -0.10 0.40 -0.65 0.90 -1 1.10 -0.80 0.15 0.15 -0.05 0.90 -0.50 1.60 -0.50 0.75 -0.75 1.85 -0.60 2.55 0.25 1.50 -1.55 3.20 -2.25 2.10 -0.30 -0.40 -0.50 -0.25 -0.70 0.55 -0.35 1.15 -0.95 1.45 -1.45 0.60z m3.65 -3.05 c0.20 -1.20 0.15 -1.20 -0.60 -0.20 -0.95 1.20 -1 1.90 -0.15 1.65 0.30 -0.15 0.65 -0.75 0.75 -1.45z"/>
  <path d="M18 17.70 c0 -0.60 0.30 -0.75 1.15 -0.50 0.60 0.15 1.25 0.30 1.50 0.30 0.20 0 0.35 0.25 0.35 0.50 0 0.30 -0.65 0.50 -1.50 0.50 -1.05 0 -1.50 -0.25 -1.50 -0.80z"/>
  <path d="M18.50 14.95 c0 -0.65 0.40 -1.15 1 -1.30 0.80 -0.20 0.90 -0.40 0.45 -0.95 -0.75 -0.90 -1.35 -0.90 -3.15 0.05 -1.75 0.95 -2.40 0.55 -0.90 -0.55 0.60 -0.40 1.10 -1.20 1.10 -1.75 0 -0.50 0.25 -0.95 0.50 -0.95 0.30 0 0.50 0.35 0.50 0.75 0 1 1.35 0.95 1.95 -0.10 0.25 -0.45 0.25 -1.30 0.05 -1.90 -0.30 -0.75 -0.10 -1.40 0.50 -2.25 0.75 -1 0.80 -1.30 0.25 -1.75 -0.80 -0.65 -1.50 -2.75 -0.85 -2.75 0.25 0 0.70 0.55 1 1.25 0.30 0.70 0.85 1.25 1.15 1.25 0.30 0 0.45 0.30 0.30 0.65 -0.15 0.40 0.10 1.45 0.55 2.35 0.60 1.25 0.65 1.75 0.20 1.90 -0.35 0.10 -0.60 0.60 -0.60 1.15 0 0.80 -0.25 0.90 -1.25 0.65 -0.95 -0.25 -1.25 -0.10 -1.25 0.50 0 0.50 0.45 0.80 1.20 0.80 1.60 0 2.20 1 0.90 1.35 -0.55 0.15 -1.15 0.80 -1.30 1.45 -0.40 1.55 -2.30 1.70 -2.30 0.15z"/>
  <path d="M21.50 15 c0 -0.55 0.30 -1 0.65 -1 1.10 0 1.35 0.55 0.60 1.30 -0.95 0.95 -1.25 0.90 -1.25 -0.30z"/>
  <path d="M25.15 12.65 c-0.60 -0.10 -1.30 -0.50 -1.60 -0.85 -0.45 -0.55 -0.30 -0.75 0.70 -0.90 0.85 -0.20 1.25 -0.05 1.25 0.40 0 0.40 0.45 0.70 1 0.70 0.55 0 1 0.25 1 0.50 0 0.50 -0.40 0.55 -2.35 0.15z"/>
  <path d="M22.80 5.55 c-0.15 -0.25 0.05 -0.70 0.45 -1.05 0.65 -0.50 0.75 -0.45 0.75 0.45 0 1.05 -0.70 1.40 -1.20 0.60z"/>
 </g>
 <g fill="#ae6a27">
  <path d="M21.15 10.65 c-0.35 -0.10 -0.65 -0.90 -0.65 -1.75 0 -1.20 0.15 -1.40 0.65 -0.95 0.40 0.30 0.85 0.40 1.05 0.20 0.20 -0.20 -0.15 -0.75 -0.80 -1.20 -1 -0.75 -1 -0.95 -0.40 -1.75 0.65 -0.80 0.65 -0.85 -0.10 -0.55 -0.75 0.25 -0.90 0.05 -0.90 -1.30 0.05 -1.45 0.10 -1.50 0.70 -0.70 0.90 1.20 2.10 1.05 2.55 -0.25 0.35 -1.05 0.40 -1 0.60 0.45 0.25 1.80 1 2.40 3.55 2.80 1.85 0.30 3.10 1.15 3.10 2.15 0 1.05 -1.10 1.40 -1.75 0.55 -0.30 -0.45 -1.20 -0.95 -2.05 -1.15 -0.80 -0.20 -2.10 -0.65 -2.85 -1.05 -1.15 -0.60 -1.30 -0.85 -0.80 -1.45 0.35 -0.40 0.35 -0.70 0.05 -0.70 -0.95 0 -1.15 1.65 -0.30 2.85 0.70 1.10 0.70 1.35 0.05 2.05 -0.40 0.50 -0.60 1.15 -0.50 1.50 0.25 0.60 -0.15 0.70 -1.20 0.25z"/>
  <path d="M15.50 9.15 c0 -1.15 1.55 -3.50 2.95 -4.45 1.55 -1.10 1.30 -0.05 -0.75 2.80 -1.95 2.75 -2.20 2.90 -2.20 1.65z"/>
 </g>
 <g fill="#dd6a06">
  <path d="M17 10.50 c0 -0.55 0.25 -1 0.50 -1 0.30 0 0.50 0.45 0.50 1 0 0.55 -0.20 1 -0.50 1 -0.25 0 -0.50 -0.45 -0.50 -1z"/>
  <path d="M15.50 9.60 c0 -1.10 1.05 -2.75 2.80 -4.45 0.95 -0.90 1.70 -2 1.75 -2.50 0 -0.80 0.10 -0.75 0.75 0.20 0.80 1.15 2.20 1.05 2.20 -0.15 0 -0.40 0.25 -0.70 0.55 -0.70 0.30 0 0.40 0.40 0.20 0.95 -0.35 1.20 1.30 2.45 3.85 2.85 2.15 0.35 3.05 1.20 2.60 2.40 -0.40 1 -0.90 1 -1.70 0.10 -0.30 -0.40 -1.40 -1 -2.40 -1.35 -2.40 -0.75 -3.20 -1.45 -2.85 -2.30 0.15 -0.45 0 -0.65 -0.35 -0.50 -0.35 0.10 -0.65 0.70 -0.60 1.30 0 0.70 -0.25 1.05 -0.90 1.05 -1.05 0 -1.15 -0.55 -0.30 -1.40 0.45 -0.45 0.45 -0.60 -0.05 -0.60 -0.70 0 -2.75 1.95 -4.40 4.25 -0.60 0.85 -1.15 1.20 -1.15 0.85z"/>
 </g>
 <g fill="#6e8e55">
  <path d="M4 30.55 c0 -2.05 0.15 -2.55 1.05 -2.80 0.55 -0.20 1.15 -0.25 1.25 -0.10 0.35 0.35 -1.45 5.35 -1.90 5.35 -0.25 0 -0.40 -1.10 -0.40 -2.45z"/>
  <path d="M34.15 31.25 c0.50 -1.70 1.35 -2.40 1.35 -1.10 0 1.40 -0.65 2.85 -1.25 2.85 -0.50 0 -0.55 -0.40 -0.10 -1.75z"/>
  <path d="M8.50 29.85 c0 -1.65 0.20 -2.85 0.50 -2.85 0.35 0 0.40 0.95 0.20 2.65 -0.45 3.50 -0.70 3.60 -0.70 0.20z"/>
  <path d="M28.80 30.75 c0.20 -0.55 0.40 -1.75 0.45 -2.65 0.15 -2.35 0.75 -2.60 0.75 -0.30 0 1.10 -0.35 2.45 -0.80 3 -0.75 0.95 -0.80 0.95 -0.40 -0.05z"/>
  <path d="M1.20 29.40 c0.15 -0.65 0.35 -1.85 0.50 -2.75 0.30 -1.80 2.55 -5.65 3.30 -5.65 0.95 0 0.50 1.75 -0.75 2.95 -0.70 0.65 -1.60 2.35 -2.05 3.85 -0.75 2.70 -1.40 3.70 -1 1.60z"/>
  <path d="M19.15 29.50 c-0.15 -0.55 -0.50 -1 -0.75 -1 -0.30 0 -0.40 0.35 -0.20 0.75 0.30 0.80 -0.55 1 -1.50 0.35 -0.95 -0.60 -1.70 -2.45 -1.70 -4.10 0 -2.15 0.90 -1.40 1.30 1.05 0.20 1.10 0.55 2.10 0.80 2.25 0.25 0.15 0.30 -0.30 0.10 -1 -0.20 -0.80 -0.10 -1.30 0.25 -1.30 0.30 0 0.55 0.35 0.55 0.80 0 0.40 0.25 0.60 0.50 0.45 0.30 -0.15 0.50 -0.80 0.50 -1.40 0 -0.60 0.35 -1.55 0.80 -2.10 0.65 -0.85 0.80 -0.90 1.20 -0.25 0.65 1.05 0.60 1.35 -0.30 1.70 -0.70 0.25 -0.70 0.40 0.05 1.15 0.80 0.75 0.80 0.90 0.05 1.40 -0.50 0.40 -0.60 0.75 -0.25 1.10 0.35 0.35 0.25 0.60 -0.30 0.85 -0.60 0.20 -0.90 0 -1.10 -0.70z"/>
  <path d="M38.05 27.50 c-0.05 -2.75 -0.80 -4.50 -2.55 -5.85 -0.65 -0.55 -0.65 -0.60 0.10 -0.65 0.45 0 0.90 -0.40 1.05 -0.85 0.15 -0.80 0.25 -0.80 0.55 0.10 0.20 0.55 0.70 1.75 1.10 2.65 0.75 1.80 0.85 4.80 0.20 6.35 -0.30 0.75 -0.45 0.25 -0.45 -1.75z"/>
  <path d="M33.85 27.75 c-0.40 -0.95 0.65 -1.55 1.20 -0.70 0.65 1 0.55 1.45 -0.25 1.45 -0.40 0 -0.80 -0.35 -0.95 -0.75z"/>
  <path d="M4 26.60 c0 -1 2.95 -2.65 4.35 -2.50 1.30 0.20 1.25 0.30 -1.10 1.40 -1.35 0.65 -2.65 1.30 -2.85 1.40 -0.25 0.10 -0.40 -0.05 -0.40 -0.30z"/>
  <path d="M17.25 25.45 c-0.50 -0.75 0.15 -1.25 0.80 -0.60 0.35 0.35 0.35 0.65 0.05 0.85 -0.30 0.15 -0.70 0.05 -0.85 -0.25z"/>
  <path d="M31.60 24.50 c-0.60 -0.80 -1.10 -1.70 -1.10 -2 0 -0.65 -0.85 -0.65 -1.25 0 -0.15 0.25 -1.40 1 -2.75 1.65 -2.30 1.10 -2.45 1.10 -2.65 0.25 -0.15 -0.50 -0.20 -0.90 -0.20 -0.90 0.05 0 1.60 -0.55 3.40 -1.15 l3.30 -1.15 1 1.10 c0.55 0.60 1.70 1.45 2.55 1.90 0.90 0.45 1.60 1.10 1.60 1.40 0 0.45 -0.15 0.45 -0.60 0 -0.35 -0.35 -0.85 -0.40 -1.40 -0.10 -0.65 0.35 -1.10 0.10 -1.90 -1z"/>
  <path d="M16 22.70 c0 -0.70 0.15 -0.70 0.75 -0.20 0.40 0.35 0.75 0.70 0.75 0.80 0 0.10 -0.35 0.20 -0.75 0.20 -0.40 0 -0.75 -0.35 -0.75 -0.80z"/>
  <path d="M18.30 22.55 c-0.70 -0.75 -0.70 -0.95 0 -1.95 1 -1.50 1.85 -1.40 1.60 0.15 -0.20 0.95 -0.10 1.15 0.35 0.75 0.30 -0.25 0.80 -0.30 1 -0.10 0.25 0.20 0.25 -0.10 0.05 -0.60 -0.25 -0.80 -0.20 -0.85 0.45 -0.30 1.05 0.90 0.75 1.45 -1.10 2.25 -1.40 0.60 -1.65 0.55 -2.35 -0.20z"/>
  <path d="M12.90 22.45 c-1.20 -0.70 -1.15 -1.45 0.10 -1.45 0.55 0 1 0.20 1 0.50 0 0.25 0.35 0.35 0.80 0.15 0.60 -0.20 0.75 -0.10 0.60 0.40 -0.30 0.90 -1.40 1.10 -2.50 0.40z"/>
  <path d="M6.50 22 c0 -0.25 0.40 -0.70 0.90 -0.95 0.80 -0.50 0.75 -0.55 -0.15 -0.45 -0.55 0.05 -1.65 0 -2.50 -0.05 -1.20 -0.05 -1.35 -0.15 -0.75 -0.55 0.40 -0.30 2.05 -0.45 3.65 -0.40 2.75 0.15 2.85 0.20 2.85 1.50 0 1.30 -0.15 1.40 -2 1.40 -1.10 0 -2 -0.20 -2 -0.50z"/>
  <path d="M26 21.55 c0 -0.50 2.30 -1.55 3.40 -1.55 0.50 0 1.15 -0.25 1.45 -0.55 0.30 -0.30 1.30 -0.70 2.20 -0.95 0.95 -0.20 2.10 -0.55 2.60 -0.75 0.85 -0.35 0.90 -0.30 0.30 0.70 -0.40 0.60 -1.20 1.05 -1.90 1.05 -1.15 0 -1.15 0.05 -0.35 0.65 0.75 0.55 0.60 0.60 -1.15 0.45 -1.10 -0.10 -3.05 0.15 -4.30 0.55 -1.25 0.45 -2.25 0.60 -2.25 0.40z"/>
  <path d="M19.85 13.65 c0.50 -0.15 0.50 -0.50 0.10 -1.25 -0.30 -0.55 -0.40 -1.10 -0.25 -1.30 0.15 -0.15 0.30 -0.05 0.30 0.25 0 0.30 0.60 0.70 1.35 0.90 l1.40 0.35 -1.25 0.65 c-0.70 0.40 -1.45 0.70 -1.75 0.70 -0.25 0 -0.20 -0.15 0.10 -0.30z"/>
 </g>
 <g fill="#778575">
  <path d="M33.65 32.75 c0.30 -0.95 0.70 -1.75 0.95 -1.75 0.60 0 0.50 2.20 -0.20 2.90 -1.05 1.05 -1.30 0.65 -0.75 -1.15z"/>
  <path d="M4.15 29.75 c0.05 -1.25 0.30 -1.85 1 -2.05 1.20 -0.40 1.50 0 1.10 1.35 -0.30 0.85 -0.45 0.95 -0.80 0.40 -0.30 -0.50 -0.45 -0.30 -0.45 0.70 0 0.75 -0.20 1.35 -0.45 1.35 -0.25 0 -0.45 -0.80 -0.40 -1.75z"/>
  <path d="M16.70 29.60 c-1.15 -0.75 -1.70 -2.55 -1.40 -4.75 0.25 -1.75 0.15 -2.25 -0.35 -2.25 -1.70 0.10 -2.45 -0.15 -2.90 -0.95 -0.35 -0.75 -0.20 -0.90 1 -1 1.05 -0.10 1.35 0.10 1.10 0.65 -0.15 0.45 0 0.60 0.45 0.45 0.40 -0.15 1.30 0.15 1.95 0.70 1.10 0.90 1.10 1 0.35 1.30 -1.30 0.50 -1.25 4.05 0.10 4.85 1 0.65 1.35 1.40 0.65 1.40 -0.25 0 -0.65 -0.20 -0.95 -0.40z"/>
  <path d="M18.85 29.05 c-0.30 -1.20 0.20 -3.45 1 -4.80 0.55 -0.85 0.70 -0.90 1.15 -0.25 0.35 0.55 0.25 0.90 -0.35 1.35 -0.65 0.50 -0.70 0.75 -0.15 1.40 0.55 0.65 0.50 0.90 -0.30 1.50 -0.55 0.40 -0.70 0.70 -0.30 0.75 0.85 0 0.75 1 -0.10 1 -0.35 0 -0.80 -0.45 -0.95 -0.95z"/>
  <path d="M33.90 28.25 c-0.15 -0.65 -0.15 -1.35 0 -1.50 0.45 -0.45 1.60 0.85 1.60 1.80 0 1.40 -1.35 1.15 -1.60 -0.30z"/>
  <path d="M4 26.50 c0 -0.80 2.90 -2.50 4.30 -2.50 0.75 0 1.25 0.15 1.05 0.30 -0.70 0.70 -5.35 2.60 -5.35 2.20z"/>
  <path d="M17.25 25.50 c-0.35 -0.60 0.10 -1.50 0.80 -1.50 0.60 0 0.60 1.35 0 1.75 -0.25 0.15 -0.60 0.05 -0.80 -0.25z"/>
  <path d="M34.75 25.50 c-0.15 -0.25 -0.60 -0.35 -1 -0.15 -0.45 0.15 -0.75 -0.05 -0.75 -0.55 0 -0.45 0.20 -0.80 0.45 -0.80 0.50 0 2.05 1.40 2.05 1.80 0 0.35 -0.45 0.20 -0.75 -0.30z"/>
  <path d="M10 24.25 c0 -0.40 0.25 -0.75 0.50 -0.75 0.30 0 0.50 0.35 0.50 0.75 0 0.40 -0.20 0.75 -0.50 0.75 -0.25 0 -0.50 -0.35 -0.50 -0.75z"/>
  <path d="M23.80 24.25 c-0.10 -0.35 0.10 -0.80 0.50 -0.95 1.10 -0.40 1.20 -0.40 1.20 0.40 0 0.95 -1.35 1.40 -1.70 0.55z"/>
  <path d="M30.65 23.10 c-0.30 -1.30 -0.55 -1.35 -1.60 -0.45 -0.50 0.45 -1.25 0.55 -2.05 0.30 -0.85 -0.25 -0.95 -0.35 -0.35 -0.40 0.50 -0.05 1.55 -0.40 2.30 -0.80 1.35 -0.65 1.45 -0.65 2.05 0.50 0.35 0.70 0.50 1.40 0.30 1.60 -0.20 0.20 -0.45 -0.15 -0.65 -0.75z"/>
  <path d="M18.50 22.75 c-0.35 -0.40 -0.45 -1.30 -0.30 -2 0.35 -1.45 -0.05 -1.60 -1 -0.35 -0.60 0.80 -0.65 0.80 -0.70 0 0 -1.15 0.70 -1.50 2.25 -1.10 1.05 0.25 1.30 0.55 1.10 1.45 -0.10 0.80 0 1.10 0.45 0.90 1.15 -0.45 1.15 0.70 -0.05 1.25 -0.90 0.40 -1.30 0.40 -1.75 -0.15z"/>
  <path d="M10 21.80 c0 -0.40 -0.65 -0.85 -1.50 -1.05 -2.05 -0.45 -1.90 -1.30 0.25 -1.10 1.55 0.10 1.75 0.25 1.75 1.50 0 0.75 -0.10 1.35 -0.25 1.35 -0.15 0 -0.25 -0.30 -0.25 -0.70z"/>
  <path d="M25.50 21.80 c0 -0.35 2.75 -1.80 3.50 -1.80 1 0 0.50 0.90 -0.70 1.20 -0.65 0.15 -1.55 0.45 -2 0.60 -0.45 0.15 -0.80 0.20 -0.80 0z"/>
  <path d="M23.25 20.45 c-0.35 -0.50 1.55 -2.95 2.25 -2.95 0.45 0 -1.15 3.45 -1.60 3.50 -0.20 0 -0.50 -0.25 -0.65 -0.55z"/>
  <path d="M4 20 c0.95 -0.65 1.50 -0.65 1.50 0 0 0.30 -0.50 0.50 -1.10 0.50 -0.95 0 -1 -0.10 -0.40 -0.50z"/>
  <path d="M30.50 20.10 c0 -0.55 3.05 -2.10 4.20 -2.10 1.35 0 0.90 1.35 -0.55 1.65 -0.80 0.15 -1.90 0.40 -2.50 0.60 -0.70 0.20 -1.15 0.15 -1.15 -0.15z"/>
  <path d="M18 17.70 c0 -0.55 0.30 -0.70 1.15 -0.45 1.90 0.60 2.15 1.25 0.45 1.25 -1.10 0 -1.60 -0.25 -1.60 -0.80z"/>
  <path d="M13.20 16.95 c-0.15 -0.30 -0.05 -0.80 0.20 -1.05 0.40 -0.40 0.40 -0.85 0.05 -1.50 -0.30 -0.60 -0.30 -0.90 0.05 -0.90 0.25 0 0.50 0.25 0.50 0.50 0 0.65 1.80 0.65 3.10 -0.05 0.55 -0.30 1.10 -0.40 1.25 -0.25 0.15 0.15 -0.30 0.50 -1.05 0.80 -1.55 0.60 -2.80 1.70 -2.80 2.45 0 0.70 -0.85 0.70 -1.30 0z"/>
  <path d="M26 15.75 c0 -0.40 0.30 -0.75 0.70 -0.75 0.40 0 0.90 -0.45 1.05 -1 0.20 -0.55 0.55 -0.90 0.80 -0.70 0.30 0.20 0.20 0.65 -0.25 1.15 -0.45 0.50 -0.80 1.15 -0.80 1.45 0 0.35 -0.35 0.60 -0.75 0.60 -0.40 0 -0.75 -0.35 -0.75 -0.75z"/>
  <path d="M18.75 15.50 c-0.40 -0.65 0.70 -2.10 1.30 -1.70 0.25 0.15 0.45 0.70 0.45 1.25 0 1 -1.20 1.30 -1.75 0.45z"/>
  <path d="M21.50 14.95 c0 -0.70 0.25 -0.95 0.85 -0.85 1.30 0.25 1.45 1.90 0.20 1.90 -0.75 0 -1.05 -0.30 -1.05 -1.05z"/>
  <path d="M14.80 12.70 c-0.45 -1.10 -0.40 -1.15 0.75 -0.85 0.75 0.20 1.10 0 1.30 -0.80 0.30 -1.20 1.15 -1.45 1.15 -0.30 0 0.45 0.30 0.60 0.75 0.45 0.40 -0.15 1.10 0.05 1.50 0.50 0.75 0.70 0.65 0.75 -0.70 0.50 -1 -0.20 -1.95 -0.05 -2.80 0.50 -1.50 1 -1.55 1 -1.95 0z"/>
  <path d="M24.55 12.20 c-0.95 -0.40 -1.60 -0.85 -1.45 -1 0.35 -0.35 4.40 0.95 4.40 1.40 0 0.60 -1.05 0.45 -2.95 -0.40z"/>
  <path d="M21 10.60 c-0.40 -0.20 -0.80 -1.10 -0.90 -1.95 -0.15 -1.70 0.55 -2.25 1.10 -0.85 0.15 0.40 0.55 0.60 0.85 0.40 0.40 -0.25 0.20 -0.65 -0.55 -1.20 -0.65 -0.50 -1 -1.10 -0.80 -1.45 0.55 -0.90 1 -0.65 1.95 1.05 0.85 1.45 0.85 1.65 0.15 2.20 -0.50 0.35 -0.70 0.90 -0.50 1.40 0.30 0.85 -0.05 0.95 -1.30 0.40z"/>
  <path d="M23.75 5.85 c-0.50 -0.40 -0.70 -0.85 -0.45 -1 0.30 -0.15 0.75 0.15 1.10 0.70 0.70 1.15 0.60 1.20 -0.65 0.30z"/>
  <path d="M19.85 2.45 c-0.20 -0.80 -0.15 -0.90 0.45 -0.40 0.80 0.65 0.95 1.45 0.25 1.45 -0.25 0 -0.55 -0.45 -0.70 -1.05z"/>
 </g>
 <g fill="#f59423">
  <path d="M16.40 12.20 c0.30 -0.15 0.60 -0.70 0.60 -1.25 0 -0.50 0.25 -0.95 0.50 -0.95 0.30 0 0.50 0.35 0.50 0.75 0 0.45 0.30 0.60 0.75 0.45 0.40 -0.20 0.75 -0.05 0.75 0.25 0 0.30 -0.30 0.55 -0.60 0.55 -0.35 0 -1.20 0.15 -1.90 0.25 -0.70 0.15 -0.95 0.15 -0.60 -0.05z"/>
  <path d="M15.55 9.60 c-0.05 -1.15 1.35 -3.45 2.95 -4.75 0.80 -0.70 1.50 -1.65 1.50 -2.10 0 -0.45 0.25 -0.65 0.50 -0.50 0.90 0.55 0.50 1.60 -1.40 3.55 -1.05 1.10 -2.25 2.50 -2.70 3.20 -0.45 0.70 -0.85 0.95 -0.85 0.60z"/>
  <path d="M29.05 8.30 c-0.35 -0.40 -1.75 -1.10 -3.10 -1.55 -1.35 -0.45 -2.55 -1 -2.70 -1.25 -0.40 -0.70 0.75 -1.15 1.40 -0.55 0.35 0.25 1.60 0.65 2.75 0.85 2.20 0.35 3.35 1.50 2.65 2.65 -0.30 0.45 -0.55 0.45 -1 -0.15z"/>
  <path d="M21.15 6.30 c-0.30 -0.40 -0.45 -0.85 -0.30 -1 0.55 -0.55 1.05 -0.30 1.30 0.70 0.30 1.15 -0.15 1.25 -1 0.30z"/>
  <path d="M23 2.80 c0 -0.40 0.25 -0.90 0.50 -1.05 0.30 -0.15 0.50 0.05 0.50 0.45 0 0.40 -0.20 0.90 -0.50 1.05 -0.25 0.15 -0.50 -0.05 -0.50 -0.45z"/>
 </g>
 <g fill="#8bab77">
  <path d="M4.30 34.35 c-0.25 -0.75 -0.30 -1.55 -0.10 -1.70 0.55 -0.55 0.90 0.25 0.70 1.70 l-0.20 1.40 -0.40 -1.40z"/>
  <path d="M33.25 34.15 c0.80 -2 1.30 -4.20 1 -4.65 -0.15 -0.30 0.05 -0.50 0.50 -0.50 0.70 0 0.80 0.35 0.50 2.10 -0.40 2.25 -1.20 3.90 -1.90 3.90 -0.25 0 -0.30 -0.40 -0.10 -0.85z"/>
  <path d="M28.65 30.75 c0.40 -0.80 0.85 -1.85 1.05 -2.25 0.15 -0.40 0.20 -0.05 0 0.75 -0.15 0.85 -0.60 1.85 -1.05 2.25 -0.70 0.70 -0.70 0.60 0 -0.75z"/>
  <path d="M4.20 29.70 c0.15 -1.25 1.55 -2.60 2.15 -2 0.45 0.45 -0.30 1.90 -0.85 1.55 -0.25 -0.15 -0.50 0.15 -0.50 0.70 0 0.60 -0.20 1.05 -0.45 1.05 -0.25 0 -0.40 -0.60 -0.35 -1.30z"/>
  <path d="M16.25 29 c-0.65 -0.70 -0.90 -1.75 -0.90 -3.60 0.05 -2.50 -0.05 -2.65 -1.20 -2.75 -1.70 -0.10 -2.65 -1.05 -1.65 -1.65 0.40 -0.25 1.05 -0.50 1.45 -0.50 0.55 0 0.55 0.15 0 0.85 -0.60 0.75 -0.60 0.80 0.20 0.50 1.15 -0.45 2.85 0.45 2.85 1.40 0 0.40 -0.20 0.75 -0.50 0.75 -0.25 0 -0.50 0.90 -0.50 2 0 1.45 0.25 2.15 1 2.60 0.55 0.35 1 0.80 1 1 0 0.70 -0.85 0.40 -1.75 -0.60z"/>
  <path d="M19.05 27.65 c0.10 -2.35 0.65 -3.65 1.50 -3.65 0.70 0 0.55 1.40 -0.15 1.65 -0.50 0.15 -0.50 0.40 0.05 1.05 0.60 0.70 0.60 0.90 -0.25 1.55 -0.55 0.40 -0.70 0.70 -0.30 0.75 0.85 0 0.75 1 -0.15 1 -0.60 0 -0.75 -0.55 -0.70 -2.35z"/>
  <path d="M38.25 28.10 c0.25 -2.15 -0.50 -4.35 -2.15 -6.20 -0.45 -0.60 -0.55 -0.90 -0.20 -0.90 0.35 0 0.60 -0.35 0.60 -0.80 0 -0.45 0.30 -0.70 0.65 -0.55 0.30 0.10 0.55 0.60 0.45 1.05 -0.10 0.50 0.20 1.40 0.60 2.05 0.85 1.30 0.95 4.25 0.25 6.25 -0.35 0.95 -0.40 0.75 -0.20 -0.90z"/>
  <path d="M1.55 28.25 c0 -0.80 0.15 -1.85 0.45 -2.25 0.75 -1.20 0.85 -0.35 0.20 1.75 -0.60 1.90 -0.60 1.90 -0.65 0.50z"/>
  <path d="M8.50 28.20 c0 -0.70 0.20 -1.15 0.45 -1 0.25 0.15 0.35 0.75 0.20 1.30 -0.35 1.40 -0.65 1.25 -0.65 -0.30z"/>
  <path d="M33.85 27.75 c-0.45 -1.15 0.55 -1.40 1.15 -0.25 0.40 0.80 0.40 1 -0.20 1 -0.35 0 -0.80 -0.35 -0.95 -0.75z"/>
  <path d="M17.35 25.70 c-0.40 -0.40 0.15 -1.70 0.70 -1.70 0.55 0 0.60 1.35 0 1.70 -0.20 0.15 -0.55 0.15 -0.70 0z"/>
  <path d="M34.80 25.55 c-0.15 -0.25 -0.75 -0.35 -1.30 -0.20 -1.05 0.25 -2.95 -1.50 -3 -2.70 0 -0.85 -0.45 -0.80 -1.45 0 -0.45 0.35 -1.75 1.05 -2.90 1.45 -1.85 0.70 -2.15 0.70 -2.15 0.10 0 -0.75 0.65 -1.05 4.15 -2.20 1.80 -0.55 2.05 -0.50 3.30 0.70 0.75 0.70 1.60 1.30 1.85 1.30 0.30 0 0.95 0.45 1.45 1 0.50 0.55 0.75 1 0.60 1 -0.15 0 -0.40 -0.20 -0.55 -0.45z"/>
  <path d="M10 24.20 c0 -0.55 0.25 -0.70 0.80 -0.50 0.45 0.15 1.50 0.30 2.35 0.35 1.55 0.05 1.55 0.05 0.35 0.45 -2.15 0.70 -3.50 0.55 -3.50 -0.30z"/>
  <path d="M3 23.95 c0 -0.40 0.35 -1.25 0.80 -1.90 0.60 -0.80 0.95 -1 1.35 -0.60 0.40 0.40 0.20 0.95 -0.80 1.90 -0.95 0.95 -1.35 1.15 -1.35 0.60z"/>
  <path d="M18.50 22.25 c-0.55 -1.50 -0.15 -2.75 0.85 -2.75 0.55 0 0.65 0.35 0.45 1.25 -0.25 0.90 -0.15 1.15 0.40 0.95 1.25 -0.50 1.30 0.65 0 1.20 -1.10 0.55 -1.30 0.45 -1.70 -0.65z"/>
  <path d="M6.80 21.95 c0.15 -0.25 1 -0.45 1.85 -0.50 1.55 0 1.55 -0.05 0.40 -0.50 -0.70 -0.25 -1.60 -0.45 -2 -0.40 -2.15 0.20 -3.25 -0.05 -2.70 -0.60 0.40 -0.40 1.50 -0.45 3.35 -0.25 2.45 0.35 2.80 0.50 2.80 1.45 0 0.95 -0.30 1.10 -2 1.15 -1.10 0.05 -1.85 -0.10 -1.70 -0.35z"/>
  <path d="M25.50 21.80 c0 -0.35 2.75 -1.80 3.50 -1.80 0.95 0 0.50 0.90 -0.60 1.15 -0.65 0.10 -1.55 0.40 -2 0.60 -0.50 0.20 -0.90 0.25 -0.90 0.05z"/>
  <path d="M16.20 20.40 c-0.20 -0.35 -0.15 -0.40 0.20 -0.20 0.35 0.20 0.60 0.05 0.60 -0.40 0 -0.45 0.25 -0.80 0.50 -0.80 0.35 0 0.35 0.30 0 1 -0.60 1.15 -0.80 1.20 -1.30 0.40z"/>
  <path d="M30.50 20 c0 -0.25 0.10 -0.50 0.20 -0.50 0.10 0 1 -0.35 2 -0.75 1.45 -0.60 1.80 -0.65 1.80 -0.10 0 0.35 -0.75 0.90 -1.65 1.25 -2.05 0.75 -2.35 0.75 -2.35 0.10z"/>
  <path d="M13.20 16.95 c-0.15 -0.30 -0.05 -0.70 0.25 -0.90 0.30 -0.20 0.45 -0.70 0.30 -1.10 -0.20 -0.50 0.20 -0.70 1.50 -0.70 l1.80 0 -1.25 1.10 c-0.70 0.60 -1.30 1.35 -1.30 1.65 0 0.65 -0.85 0.65 -1.30 -0.05z"/>
  <path d="M25.85 16 c0.15 -0.50 0 -1.05 -0.30 -1.20 -0.70 -0.45 -0.70 -1.30 -0.05 -1.30 0.30 0 0.50 0.35 0.50 0.75 0 0.40 0.35 0.75 0.75 0.75 1.10 0 0.95 1.75 -0.20 1.85 -0.65 0.05 -0.85 -0.15 -0.70 -0.85z"/>
  <path d="M19.85 13.60 c0.75 -0.50 0.20 -1.40 -1.10 -1.70 -0.90 -0.20 -0.90 -0.30 -0.15 -0.60 0.55 -0.25 1.15 -0.10 1.65 0.40 0.45 0.45 1.20 0.80 1.65 0.80 0.60 0.05 0.50 0.25 -0.40 0.75 -1.30 0.75 -2.75 1.05 -1.65 0.35z"/>
  <path d="M21.45 10.65 c-0.80 -0.20 -1.45 -1.55 -1.45 -3.05 0 -1.20 2.25 0.95 2.30 2.25 0.05 0.60 0.05 1.10 0 1.10 0 -0.05 -0.40 -0.15 -0.85 -0.30z"/>
 </g>
 <g fill="#969d94">
  <path d="M4 26.70 c0 -0.45 2.05 -2.20 2.60 -2.20 0.95 0 0.30 1.05 -1.10 1.75 -0.80 0.45 -1.50 0.65 -1.50 0.45z"/>
  <path d="M15 25.40 c0 -0.35 0.15 -1.15 0.30 -1.75 0.35 -1.30 1.70 -1.60 1.70 -0.40 0 0.40 -0.20 0.75 -0.50 0.75 -0.25 0 -0.50 0.45 -0.50 1 0 0.55 -0.20 1 -0.50 1 -0.25 0 -0.50 -0.30 -0.50 -0.60z"/>
  <path d="M18.60 22.90 c-0.75 -0.75 -0.75 -2.05 0 -2.80 0.95 -0.95 1.55 -0.70 1.20 0.60 -0.15 0.70 -0.05 1.30 0.25 1.40 0.35 0.10 0.30 0.40 -0.15 0.80 -0.55 0.45 -0.85 0.45 -1.30 0z"/>
  <path d="M16.35 20.65 c-0.20 -0.30 0 -0.80 0.40 -1.15 1.05 -0.85 1.40 -0.40 0.55 0.75 -0.40 0.55 -0.75 0.70 -0.95 0.40z"/>
  <path d="M23 20.10 c0 -0.25 0.45 -0.85 1.05 -1.40 0.60 -0.50 1.35 -1.55 1.75 -2.30 0.85 -1.65 1.70 -1.80 1.70 -0.35 0 0.55 -0.20 0.90 -0.40 0.75 -0.50 -0.30 -2.60 2.35 -2.60 3.20 0 0.25 -0.35 0.50 -0.75 0.50 -0.40 0 -0.75 -0.20 -0.75 -0.40z"/>
  <path d="M14.10 18.90 c-0.25 -0.35 -0.65 -1.15 -0.80 -1.75 -0.30 -0.90 -0.15 -1.15 0.45 -1.15 0.55 0 0.75 -0.25 0.55 -0.75 -0.20 -0.50 0.05 -0.75 0.75 -0.75 0.55 0 1.45 -0.25 2 -0.50 1.65 -0.90 1.05 -0.15 -0.80 1 -1.70 1.05 -2.30 2.60 -1.25 3.25 0.60 0.40 0.65 1.25 0.05 1.25 -0.25 0 -0.65 -0.30 -0.95 -0.60z"/>
  <path d="M18.10 17.95 c0.10 -0.30 0.35 -0.50 0.55 -0.50 0.20 0.05 0.70 0.05 1.10 0.05 0.40 0 0.75 0.25 0.75 0.50 0 0.30 -0.60 0.50 -1.30 0.50 -0.70 0 -1.20 -0.25 -1.10 -0.55z"/>
  <path d="M18.75 15.50 c-0.35 -0.60 0.60 -2 1.30 -2 0.25 0 0.45 0.55 0.45 1.25 0 1.25 -1.15 1.75 -1.75 0.75z"/>
  <path d="M21.65 15.25 c-0.15 -0.45 -0.15 -0.90 0 -1.10 0.50 -0.50 1.85 0.30 1.85 1.10 0 1 -1.45 1 -1.85 0z"/>
  <path d="M14.95 12.65 c-0.60 -0.75 -0.60 -0.80 0.15 -0.50 0.50 0.15 1.15 0.05 1.50 -0.30 0.80 -0.75 3.60 -1.05 3.15 -0.35 -0.15 0.30 -0.70 0.50 -1.15 0.50 -0.50 0 -1.35 0.35 -1.95 0.75 -0.95 0.65 -1.10 0.65 -1.70 -0.10z"/>
  <path d="M20.25 13 c-0.20 -0.30 0.30 -0.50 1.10 -0.50 1.10 0 1.25 0.10 0.65 0.50 -0.95 0.60 -1.35 0.60 -1.75 0z"/>
  <path d="M23.70 11.70 c-0.85 -0.70 -0.85 -0.75 -0.05 -0.50 0.50 0.15 1.15 0.30 1.40 0.30 0.25 0 0.45 0.25 0.45 0.50 0 0.70 -0.65 0.60 -1.80 -0.30z"/>
  <path d="M21.40 10.35 c-0.45 -0.35 -1 -1.30 -1.20 -2.15 -0.35 -1.45 -0.35 -1.45 0.70 -0.55 0.60 0.60 1.30 0.80 1.70 0.55 0.55 -0.30 0.55 -0.25 0 0.40 -0.35 0.40 -0.50 1.15 -0.30 1.60 0.35 0.95 0.20 1 -0.90 0.15z"/>
  <path d="M21.05 6.35 c-0.30 -0.40 -0.40 -0.85 -0.20 -1 0.55 -0.60 1.05 -0.35 1.30 0.65 0.30 1.15 -0.25 1.30 -1.10 0.35z"/>
  <path d="M19 4.60 c0 -0.25 0.35 -0.65 0.80 -0.80 0.50 -0.20 0.70 -0.05 0.60 0.30 -0.25 0.75 -1.40 1.15 -1.40 0.50z"/>
 </g>
 <g fill="#a8baa2">
  <path d="M32.85 35 c0.15 -0.55 0.45 -1 0.70 -1 0.55 0 0.55 0.15 0.15 1.20 -0.45 1.15 -1.15 1 -0.85 -0.20z"/>
  <path d="M4.35 34.30 c-0.20 -0.75 -0.30 -1.55 -0.10 -1.70 0.50 -0.50 0.80 0.30 0.65 1.75 l-0.15 1.40 -0.40 -1.45z"/>
  <path d="M34.10 29 c-0.40 -1.55 -0.35 -2 0.15 -2 0.70 0 1.25 1.10 1.25 2.50 0 1.80 -0.90 1.45 -1.40 -0.50z"/>
  <path d="M4.55 29.20 c0 -0.60 0.30 -1.20 0.70 -1.40 0.40 -0.15 0.75 -0.05 0.75 0.20 0 0.30 -0.20 0.50 -0.45 0.50 -0.25 0 -0.60 0.40 -0.70 0.90 -0.20 0.65 -0.25 0.60 -0.30 -0.20z"/>
  <path d="M19 27.50 c0 -0.25 0.35 -0.50 0.75 -0.50 0.40 0 0.75 0.25 0.75 0.50 0 0.30 -0.35 0.50 -0.75 0.50 -0.40 0 -0.75 -0.20 -0.75 -0.50z"/>
  <path d="M4 26.45 c0 -0.25 0.25 -0.45 0.50 -0.45 0.30 0 0.95 -0.45 1.50 -1 0.95 -0.95 3 -1.40 3 -0.60 -0.05 0.55 -5 2.60 -5 2.05z"/>
  <path d="M2 25.75 c0 -1.10 2.65 -5.10 2.85 -4.40 0.20 0.55 -2.20 5.15 -2.65 5.15 -0.10 0 -0.20 -0.35 -0.20 -0.75z"/>
  <path d="M19.10 25.65 c0.10 -0.50 0.55 -0.95 1.05 -1.05 1.15 -0.25 1.05 0.50 -0.20 1.30 -0.90 0.60 -1 0.55 -0.85 -0.25z"/>
  <path d="M24 24 c0 -0.60 1.35 -1.30 3.40 -1.65 2.40 -0.50 1.95 0.45 -0.75 1.35 -2.75 0.95 -2.65 0.95 -2.65 0.30z"/>
  <path d="M15.60 23.20 c0.20 -1.05 1.10 -1.15 1.30 -0.05 0.10 0.50 -0.15 0.85 -0.65 0.85 -0.50 0 -0.75 -0.30 -0.65 -0.80z"/>
  <path d="M30.35 22.50 c-0.45 -0.55 -0.65 -1 -0.40 -1 0.20 0 0.80 0.45 1.30 1 0.50 0.55 0.70 1 0.45 1 -0.25 0 -0.85 -0.45 -1.35 -1z"/>
  <path d="M36.65 22.45 c-0.60 -0.60 -0.25 -3.05 0.50 -2.80 0.55 0.15 0.95 3.35 0.40 3.35 -0.20 0 -0.60 -0.25 -0.90 -0.55z"/>
  <path d="M12.35 22.15 c-0.60 -0.55 -0.40 -1.05 0.65 -1.30 1.10 -0.30 1.15 -0.25 0.70 0.85 -0.35 0.85 -0.80 1 -1.35 0.45z"/>
  <path d="M25.50 21.75 c0 -0.15 0.65 -0.55 1.50 -1 1.60 -0.80 3 -1.05 2.25 -0.30 -0.60 0.50 -3.75 1.60 -3.75 1.30z"/>
  <path d="M18 21.05 c0 -0.25 0.30 -0.70 0.70 -1 0.80 -0.65 1.60 0.10 1.05 0.95 -0.40 0.60 -1.75 0.65 -1.75 0.05z"/>
  <path d="M6.35 20.65 c-2.50 -0.20 -2.80 -1.15 -0.40 -1.15 2.25 0 4.55 0.60 4.25 1.05 -0.15 0.25 -0.55 0.40 -0.85 0.35 -0.35 -0.05 -1.65 -0.15 -3 -0.25z"/>
  <path d="M16.50 20.30 c0 -0.40 0.35 -0.80 0.75 -1 0.65 -0.20 0.70 -0.10 0.25 0.70 -0.65 1.15 -1 1.30 -1 0.30z"/>
  <path d="M23.25 20 c-0.15 -0.30 0.05 -0.65 0.50 -0.80 0.45 -0.20 1.25 -1.20 1.80 -2.25 1.05 -2.15 1.95 -2.55 1.95 -0.90 0 0.55 -0.20 0.90 -0.45 0.75 -0.55 -0.35 -3.15 2.95 -2.70 3.40 0.20 0.15 0.05 0.30 -0.25 0.30 -0.30 0 -0.70 -0.25 -0.85 -0.50z"/>
  <path d="M32.50 19.10 c0 -0.25 0.80 -0.70 1.80 -1 1.50 -0.45 1.75 -0.40 1.50 0.25 -0.15 0.40 -0.30 0.85 -0.30 0.95 0 0.10 -0.65 0.20 -1.50 0.20 -0.80 0 -1.50 -0.20 -1.50 -0.40z"/>
  <path d="M13 16.50 c0 -0.25 0.35 -0.50 0.75 -0.50 0.85 0 0.95 -0.60 0.25 -1.30 -0.35 -0.35 -0.05 -0.45 1.05 -0.30 l1.55 0.25 -1.40 1.15 c-1.60 1.25 -2.20 1.45 -2.20 0.70z"/>
  <path d="M18.75 15.50 c-0.40 -0.70 0.15 -1.50 1.05 -1.50 0.40 0 0.70 0.45 0.70 1 0 1.05 -1.20 1.40 -1.75 0.50z"/>
  <path d="M20.20 12.95 c-0.15 -0.25 0.30 -0.45 1 -0.45 1.55 0 1.70 0.30 0.30 0.65 -0.55 0.15 -1.15 0.05 -1.30 -0.20z"/>
  <path d="M21.15 10.10 c-0.75 -0.45 -1 -1.80 -0.45 -2.10 0.25 -0.15 0.65 0.35 0.85 1.15 0.20 0.75 0.35 1.35 0.30 1.35 -0.05 0 -0.35 -0.20 -0.70 -0.40z"/>
  <path d="M21.35 6.65 c-0.50 -0.45 -0.45 -1.15 0.10 -1.15 0.25 0 0.55 0.35 0.75 0.75 0.25 0.75 -0.25 1 -0.85 0.40z"/>
  <path d="M19.40 4.15 c0.30 -0.10 0.60 -0.70 0.60 -1.30 0 -0.70 0.15 -0.90 0.50 -0.55 0.75 0.75 0.10 2.20 -0.95 2.15 -0.50 0 -0.55 -0.10 -0.15 -0.30z"/>
 </g>
 <g fill="#add491">
  <path d="M33 35.20 c0 -0.55 0.35 -1.45 0.75 -2 0.95 -1.30 1 0.05 0 1.80 -0.65 1.15 -0.70 1.15 -0.75 0.20z"/>
  <path d="M4 32.15 c0 -1.05 0.25 -2.25 0.50 -2.65 0.35 -0.55 0.50 0 0.50 1.90 0 1.40 -0.20 2.60 -0.50 2.60 -0.25 0 -0.50 -0.85 -0.50 -1.85z"/>
  <path d="M34.20 30.25 c0.05 -1.05 0.30 -1.75 0.70 -1.75 0.65 0 0.75 0.65 0.30 2.40 -0.45 1.70 -1.05 1.30 -1 -0.65z"/>
  <path d="M16.35 29.10 c-0.50 -0.50 -0.85 -1.15 -0.85 -1.40 0 -0.25 0.25 -0.05 0.55 0.45 0.25 0.45 0.85 0.85 1.20 0.85 0.40 0 0.75 0.25 0.75 0.50 0 0.80 -0.75 0.60 -1.65 -0.40z"/>
  <path d="M29.60 28 c0 -0.95 0.10 -1.35 0.25 -0.85 0.10 0.45 0.10 1.25 0 1.75 -0.15 0.45 -0.25 0.05 -0.25 -0.90z"/>
  <path d="M1.50 27.95 c0 -1.25 1.05 -3.95 1.55 -3.95 0.60 0 0.60 0.10 -0.55 2.55 -0.55 1.20 -1 1.85 -1 1.40z"/>
  <path d="M19 27.80 c0 -0.45 0.35 -0.80 0.80 -0.80 0.85 0 0.70 1.10 -0.20 1.40 -0.35 0.10 -0.60 -0.15 -0.60 -0.60z"/>
  <path d="M38.60 26.60 c-0.10 -1.15 -0.85 -2.75 -2.05 -4.20 -0.60 -0.80 -0.60 -0.90 0.10 -0.90 1.15 0 2.45 2.75 2.20 4.65 -0.10 1 -0.20 1.20 -0.25 0.45z"/>
  <path d="M17.50 25.30 c0 -0.40 0.25 -0.90 0.50 -1.05 0.30 -0.15 0.50 0.05 0.50 0.45 0 0.40 -0.20 0.90 -0.50 1.05 -0.25 0.15 -0.50 -0.05 -0.50 -0.45z"/>
  <path d="M19 25.60 c0 -0.20 0.25 -0.65 0.60 -1 0.80 -0.80 1.40 -0.75 1.40 0.10 0 0.40 -0.35 0.85 -0.80 1 -1.05 0.40 -1.20 0.40 -1.20 -0.10z"/>
  <path d="M31.55 24.20 c-1.40 -1.75 -1.35 -2.65 0.10 -1.35 0.60 0.55 1.55 1.15 2.10 1.35 0.80 0.30 0.85 0.45 0.25 0.80 -1.10 0.70 -1.35 0.65 -2.45 -0.80z"/>
  <path d="M10.25 24.50 c-0.15 -0.25 0.15 -0.50 0.70 -0.50 0.60 0 1.05 0.25 1.05 0.50 0 0.30 -0.30 0.50 -0.70 0.50 -0.40 0 -0.90 -0.20 -1.05 -0.50z"/>
  <path d="M24.05 24.30 c0.15 -0.60 1 -1.20 2.45 -1.60 2.70 -0.80 2.50 -0.80 2.50 -0.25 0 0.25 -0.85 0.75 -1.85 1.10 -1.05 0.30 -2.20 0.85 -2.60 1.10 -0.50 0.45 -0.65 0.35 -0.50 -0.35z"/>
  <path d="M16.15 23.65 c-0.90 -0.35 -0.80 -1.15 0.10 -1.15 0.40 0 0.75 0.35 0.75 0.75 0 0.40 -0.05 0.75 -0.10 0.70 -0.10 0 -0.45 -0.15 -0.75 -0.30z"/>
  <path d="M18.20 22.25 c-0.45 -1.05 0.15 -2.25 1.05 -2.25 0.90 0 0.95 0.60 0.15 1.40 -0.45 0.45 -0.40 0.60 0.30 0.60 0.45 0 0.70 0.25 0.55 0.50 -0.45 0.75 -1.75 0.60 -2.05 -0.25z"/>
  <path d="M12.35 22.15 c-0.60 -0.55 -0.40 -1.05 0.60 -1.30 0.70 -0.15 0.85 0 0.70 0.70 -0.25 1 -0.75 1.20 -1.30 0.60z"/>
  <path d="M7.90 20.65 c-0.50 -0.10 -0.90 -0.45 -0.90 -0.75 0 -0.25 0.35 -0.35 0.80 -0.20 0.45 0.15 1.10 0.30 1.50 0.30 0.40 0 0.70 0.25 0.70 0.50 0 0.50 -0.60 0.55 -2.10 0.15z"/>
  <path d="M30.50 20 c0 -0.25 0.05 -0.50 0.15 -0.50 0.05 0 1.30 -0.45 2.80 -0.95 2.20 -0.85 2.60 -0.85 2.35 -0.25 -0.15 0.45 -0.30 0.90 -0.30 1 0 0.10 -0.65 0.20 -1.45 0.20 -0.85 0 -1.65 0.25 -1.80 0.50 -0.15 0.30 -0.65 0.50 -1.05 0.50 -0.40 0 -0.70 -0.20 -0.70 -0.50z"/>
 </g>
 <g fill="#fcc356">
  <path d="M15.50 9.25 c0 -0.85 1.65 -3.30 2.95 -4.35 0.80 -0.70 1.55 -1.70 1.65 -2.20 0.15 -0.85 0.20 -0.90 0.50 -0.10 0.25 0.65 -0.20 1.45 -1.55 2.80 -1.05 1.05 -2.05 2.40 -2.25 3 -0.30 0.95 -1.30 1.60 -1.30 0.85z"/>
  <path d="M27.85 7.25 c-1.25 -1.10 -1.30 -1.25 -0.40 -1.25 1.65 0 2.55 0.55 2.55 1.55 0 1.25 -0.45 1.20 -2.15 -0.30z"/>
 </g>
 <g fill="#c2dfb0">
  <path d="M33.85 32.65 c0.25 -0.80 0.35 -2.35 0.30 -3.50 -0.10 -2.40 0.05 -2.60 0.85 -1.20 0.60 1.15 -0.25 6.05 -1.05 6.05 -0.25 0 -0.30 -0.60 -0.10 -1.35z"/>
  <path d="M4.30 29.65 c0.45 -1.90 0.70 -2.10 0.70 -0.50 0 0.70 -0.25 1.45 -0.50 1.60 -0.35 0.20 -0.40 -0.15 -0.20 -1.10z"/>
  <path d="M8.65 28.75 c0 -1.10 0.10 -1.50 0.20 -0.85 0.10 0.60 0.10 1.50 0 2 -0.15 0.45 -0.25 -0.05 -0.20 -1.15z"/>
  <path d="M19 27.75 c0 -0.40 0.25 -0.75 0.50 -0.75 0.30 0 0.50 0.35 0.50 0.75 0 0.40 -0.20 0.75 -0.50 0.75 -0.25 0 -0.50 -0.35 -0.50 -0.75z"/>
  <path d="M4 26.60 c0.05 -0.60 2.30 -2.05 3.70 -2.40 2.20 -0.55 1.45 0.50 -1.20 1.65 -1.40 0.60 -2.50 0.95 -2.50 0.75z"/>
  <path d="M2 26.05 c0 -1.10 2.65 -5.35 2.90 -4.65 0.10 0.35 -0.50 1.70 -1.35 3 -0.85 1.30 -1.55 2.05 -1.55 1.65z"/>
  <path d="M15.20 24.90 c0.15 -0.65 0.30 -1.45 0.30 -1.75 0 -0.35 0.35 -0.65 0.75 -0.65 0.40 0 0.75 0.35 0.75 0.75 0 0.40 -0.20 0.75 -0.50 0.75 -0.25 0 -0.50 0.45 -0.50 1 0 0.55 -0.25 1 -0.55 1 -0.35 0 -0.45 -0.45 -0.25 -1.10z"/>
  <path d="M19 25.55 c0 -0.65 1.45 -1.75 1.85 -1.40 0.35 0.40 -0.75 1.85 -1.40 1.85 -0.25 0 -0.45 -0.20 -0.45 -0.45z"/>
  <path d="M37.60 23.60 c-0.60 -1.15 -0.85 -2.10 -0.60 -2.10 0.60 0 2.10 2.90 1.90 3.60 -0.15 0.35 -0.70 -0.35 -1.30 -1.50z"/>
  <path d="M10.50 24.50 c0 -0.25 0.90 -0.50 2.05 -0.50 1.20 0 1.90 0.20 1.70 0.50 -0.15 0.30 -1.10 0.50 -2.05 0.50 -0.95 0 -1.70 -0.20 -1.70 -0.50z"/>
  <path d="M31.95 24.10 c-1.35 -1.45 -1.65 -2.40 -0.40 -1.30 0.65 0.60 1.65 1.30 2.20 1.60 l1 0.55 -1 0 c-0.55 0 -1.35 -0.40 -1.80 -0.85z"/>
  <path d="M24 24.05 c0 -0.65 0.40 -0.85 2.50 -1.30 2.10 -0.45 1.85 -0.05 -0.65 1 -1 0.40 -1.85 0.55 -1.85 0.30z"/>
  <path d="M18.20 22.25 c-0.35 -0.95 0.15 -1.75 1.15 -1.75 0.65 0 0.65 0.15 0.15 0.75 -0.45 0.50 -0.45 0.75 -0.05 0.75 0.30 0 0.55 0.25 0.55 0.50 0 0.80 -1.50 0.60 -1.80 -0.25z"/>
  <path d="M12.30 21.55 c-0.15 -0.25 0.15 -0.55 0.65 -0.70 0.70 -0.15 0.90 -0.05 0.70 0.45 -0.30 0.80 -0.95 0.90 -1.35 0.25z"/>
  <path d="M26.70 21.05 c0.15 -0.25 0.80 -0.55 1.40 -0.70 1.10 -0.30 1.10 -0.25 0.20 0.40 -1.10 0.85 -2 1 -1.60 0.30z"/>
  <path d="M7.15 20.55 c-2.45 -0.40 -3.40 -1.05 -1.55 -1.05 2 0 4.40 0.60 4.40 1.05 0 0.25 -0.15 0.40 -0.35 0.40 -0.25 -0.05 -1.35 -0.25 -2.50 -0.40z"/>
  <path d="M31.70 19.25 c0.55 -0.40 1.25 -0.75 1.50 -0.75 0.30 0 0.10 0.35 -0.40 0.75 -0.55 0.40 -1.25 0.75 -1.50 0.75 -0.30 0 -0.10 -0.35 0.40 -0.75z"/>
  <path d="M34.25 18.50 c0.15 -0.25 0.65 -0.50 1.05 -0.50 0.40 0 0.60 0.25 0.45 0.50 -0.15 0.30 -0.65 0.50 -1.05 0.50 -0.40 0 -0.60 -0.20 -0.45 -0.50z"/>
  <path d="M20.50 8.65 c0 -1.10 0.10 -1.25 0.50 -0.65 0.65 1 0.65 2 0 2 -0.25 0 -0.50 -0.60 -0.50 -1.35z"/>
 </g>
 <g fill="#c9d0c9">
  <path d="M15 25.80 c0 -1.20 0.95 -3.30 1.50 -3.30 0.25 0 0.50 0.35 0.50 0.75 0 0.40 -0.20 0.75 -0.50 0.75 -0.25 0 -0.50 0.55 -0.50 1.25 0 0.70 -0.20 1.25 -0.50 1.25 -0.25 0 -0.50 -0.30 -0.50 -0.70z"/>
  <path d="M19.50 25 c0.55 -1 1.50 -1.40 1.50 -0.60 0 0.55 -1.10 1.60 -1.60 1.60 -0.25 0 -0.20 -0.45 0.10 -1z"/>
  <path d="M24.25 23.50 c0.15 -0.25 0.80 -0.50 1.40 -0.50 0.90 0 0.95 0.10 0.35 0.50 -1 0.65 -2.15 0.65 -1.75 0z"/>
  <path d="M18.30 22.25 c-0.40 -1.10 0.15 -2.25 1 -1.90 0.55 0.20 0.60 0.45 0.15 0.95 -0.40 0.50 -0.40 0.70 0 0.70 0.30 0 0.55 0.25 0.55 0.50 0 0.80 -1.35 0.60 -1.70 -0.25z"/>
  <path d="M23.30 20.10 c-0.15 -0.30 0 -0.60 0.40 -0.75 0.40 -0.15 1.20 -1.20 1.85 -2.30 1.15 -2.10 1.95 -2.60 1.95 -1.30 0 0.40 -0.20 0.75 -0.45 0.75 -0.25 0 -1.15 0.90 -1.95 2.05 -0.85 1.10 -1.65 1.80 -1.80 1.55z"/>
  <path d="M18.85 15.70 c-0.45 -0.50 0.20 -1.70 0.95 -1.70 0.40 0 0.70 0.45 0.70 1 0 0.95 -0.95 1.35 -1.65 0.70z"/>
  <path d="M21.75 15.50 c-0.35 -0.55 0.10 -1.50 0.70 -1.50 0.25 0 0.55 0.45 0.70 1 0.25 1.05 -0.80 1.45 -1.40 0.50z"/>
 </g>
 <g fill="#ffe881">
  <path d="M28.25 7.20 c-1.35 -1.10 -1.40 -1.20 -0.45 -1.20 1.15 0 2.40 1.15 2.10 1.95 -0.05 0.25 -0.80 -0.05 -1.65 -0.75z"/>
  <path d="M17 6.55 c0 -0.25 0.75 -1 1.65 -1.60 l1.60 -1.10 -1.45 1.55 c-1.60 1.70 -1.80 1.85 -1.80 1.15z"/>
 </g>
 <g fill="#daf4cb">
  <path d="M33.30 34.50 c0.40 -1.55 1.20 -2.50 1.20 -1.45 0 0.40 -0.35 1.20 -0.80 1.75 -0.70 0.90 -0.75 0.90 -0.40 -0.30z"/>
  <path d="M34.20 29.75 c-0.10 -2.30 0.50 -3.05 0.95 -1.30 0.25 1.10 -0.10 3.55 -0.60 3.55 -0.15 0 -0.35 -1 -0.35 -2.25z"/>
  <path d="M15.40 27.50 c-0.60 -1.90 -0.50 -3.30 0.15 -2.65 0.30 0.30 0.45 1.30 0.35 2.20 -0.15 1.60 -0.15 1.65 -0.50 0.45z"/>
  <path d="M5 25.75 c1 -1.05 3.50 -2 3.50 -1.30 0 0.15 -1 0.75 -2.25 1.35 l-2.30 1.05 1.05 -1.10z"/>
  <path d="M2 26.05 c0 -0.90 1.30 -3.30 2.20 -4 0.45 -0.40 0.80 -0.50 0.80 -0.25 0 0.70 -3 4.90 -3 4.25z"/>
  <path d="M19.60 25 c0.65 -1 1.40 -1.35 1.40 -0.60 0 0.50 -1.10 1.60 -1.60 1.60 -0.25 0 -0.15 -0.45 0.20 -1z"/>
  <path d="M10.95 24.35 c0.25 -0.25 1.05 -0.35 1.85 -0.25 1.35 0.15 1.30 0.20 -0.40 0.45 -1.10 0.15 -1.70 0.05 -1.45 -0.20z"/>
  <path d="M38.05 24.30 c-0.05 -0.55 -0.40 -1.40 -0.90 -1.90 -0.45 -0.50 -0.60 -0.90 -0.30 -0.90 0.70 0 1.80 2.30 1.50 3.10 -0.15 0.40 -0.30 0.30 -0.30 -0.30z"/>
  <path d="M24.50 23.50 c0.40 -0.25 1.10 -0.50 1.50 -0.50 0.65 0 0.65 0.05 0 0.50 -0.40 0.25 -1.10 0.50 -1.50 0.50 -0.65 0 -0.65 -0.05 0 -0.50z"/>
  <path d="M18.55 22.30 c-0.70 -0.80 -0.20 -2.30 0.75 -2.30 0.85 0 0.90 0.60 0.10 1.40 -0.50 0.50 -0.50 0.75 0.10 1.10 0.40 0.25 0.50 0.50 0.20 0.50 -0.30 0 -0.85 -0.30 -1.15 -0.70z"/>
  <path d="M5.25 20 c-0.85 -0.35 -0.70 -0.45 0.65 -0.45 1 -0.05 1.55 0.15 1.35 0.45 -0.35 0.60 -0.65 0.60 -2 0z"/>
  <path d="M32.25 19.15 c0.75 -0.75 3.25 -1.25 3.25 -0.65 0 0.25 -0.45 0.50 -0.95 0.50 -0.55 0 -1.40 0.15 -1.90 0.30 -0.60 0.25 -0.75 0.20 -0.40 -0.15z"/>
  <path d="M26.30 15.75 c0.20 -0.40 0.50 -0.75 0.75 -0.75 0.25 0 0.45 0.35 0.45 0.75 0 0.40 -0.35 0.75 -0.75 0.75 -0.45 0 -0.60 -0.30 -0.45 -0.75z"/>
 </g>
 <g fill="#f4fcef">
  <path d="M34.65 29.75 c0 -1.10 0.10 -1.50 0.20 -0.85 0.10 0.60 0.10 1.50 0 2 -0.15 0.45 -0.25 -0.05 -0.20 -1.15z"/>
  <path d="M15.35 26.80 c-0.25 -1.05 -0.30 -2 -0.15 -2.15 0.45 -0.50 0.90 1.20 0.70 2.70 -0.15 1.30 -0.20 1.25 -0.55 -0.55z"/>
  <path d="M5.45 25.50 c0.65 -0.55 1.50 -1 1.95 -1 0.95 0 0.75 0.15 -1.40 1.20 l-1.75 0.85 1.20 -1.05z"/>
  <path d="M19.60 25 c0.60 -0.95 1.40 -1.35 1.40 -0.70 0 0.35 -1.35 1.70 -1.70 1.70 -0.20 0 -0.05 -0.45 0.30 -1z"/>
  <path d="M2.50 24.65 c0 -0.70 1.40 -2.45 1.70 -2.10 0.15 0.15 -0.15 0.80 -0.70 1.45 -0.55 0.65 -1 0.95 -1 0.65z"/>
  <path d="M15.60 23.45 c0.10 -0.35 0.50 -0.75 0.85 -0.85 0.40 -0.15 0.60 0.05 0.45 0.45 -0.10 0.35 -0.50 0.75 -0.85 0.85 -0.40 0.15 -0.60 -0.05 -0.45 -0.45z"/>
  <path d="M18.55 22.35 c-0.40 -0.50 -0.35 -0.95 0.15 -1.65 0.40 -0.50 0.90 -0.80 1.10 -0.60 0.20 0.20 0.05 0.75 -0.30 1.20 -0.60 0.65 -0.55 0.85 0.05 1.25 0.40 0.25 0.45 0.45 0.15 0.45 -0.30 0 -0.85 -0.30 -1.15 -0.65z"/>
  <path d="M19 14.80 c0 -0.45 0.35 -0.80 0.80 -0.80 0.45 0 0.70 0.25 0.60 0.60 -0.30 0.90 -1.40 1.05 -1.40 0.20z"/>
 </g>
</svg>