<?xml version="1.0" encoding="utf-8"?>
<!DOCTYPE svg PUBLIC "-//W3C//DTD SVG 1.0//EN" "http://www.w3.org/TR/2001/REC-SVG-20010904/DTD/svg10.dtd">
<svg version="1.0" xmlns="http://www.w3.org/2000/svg" width="40px" height="40px" viewBox="0 0 40 40" preserveAspectRatio="xMidYMid meet">
 <g fill="#130a07">
  <path d="M1.10 31.40 c-1.55 -2.95 -1.50 -4.40 0.20 -4.40 1.85 0 3.15 1.80 3.20 4.40 0 1.85 -0.15 2.10 -1.15 2.10 -0.80 0 -1.40 -0.60 -2.25 -2.10z"/>
  <path d="M24.50 9.25 c0 -1.65 0.10 -1.75 1.75 -1.75 1.65 0 1.75 0.10 1.75 1.75 0 1.65 -0.10 1.75 -1.75 1.75 -1.65 0 -1.75 -0.10 -1.75 -1.75z"/>
 </g>
 <g fill="#552e15">
  <path d="M24 37.25 c0 -1.40 0.20 -1.75 1 -1.75 0.70 0 1 0.35 1 1.15 0 0.65 0.25 1.40 0.60 1.75 0.45 0.45 0.25 0.60 -1 0.60 -1.50 0 -1.60 -0.10 -1.60 -1.75z"/>
  <path d="M2.85 37.40 c0.50 -0.80 0.30 -2.05 -0.65 -3.80 -0.35 -0.75 -0.70 -1.60 -0.70 -1.90 0 -0.30 -0.35 -0.85 -0.75 -1.20 -0.40 -0.35 -0.75 -1.15 -0.75 -1.80 0 -1.15 0.15 -1.20 3.45 -1.20 1.95 0 3.65 0.25 3.80 0.50 0.20 0.30 1.20 0.95 2.25 1.50 1.55 0.80 2.95 1 6.75 1 l4.80 0 -0.15 1.90 c-0.15 1.75 -0.25 1.90 -2.65 2.50 -3.15 0.80 -8.35 0.35 -10.45 -0.95 -2.40 -1.45 -2.80 -1.25 -2.80 1.55 0 2.35 -0.10 2.50 -1.30 2.50 -0.90 0 -1.15 -0.20 -0.85 -0.60z m-0.60 -7.30 c-0.75 -0.80 -0.80 -0.75 -0.20 0.60 0.35 0.75 0.75 1.15 0.85 0.80 0.15 -0.35 -0.15 -0.95 -0.65 -1.40z"/>
  <path d="M22.50 31 l0 -3 1.50 0 c1.25 0 1.50 -0.20 1.50 -1.25 0 -0.70 0.25 -1.25 0.50 -1.25 0.30 0 0.50 -0.45 0.50 -1 0 -0.80 0.35 -1 1.75 -1 1.70 0 1.75 0.05 1.75 2 0 1.10 -0.20 2 -0.50 2 -0.25 0 -0.50 0.35 -0.50 0.75 0 0.50 -0.50 0.75 -1.50 0.75 -1.45 0 -1.50 0.05 -1.50 2.50 l0 2.50 -1.75 0 -1.75 0 0 -3z"/>
  <path d="M7.50 22.75 c0 -1.45 0.25 -1.85 1.30 -2.25 0.70 -0.30 1.95 -0.50 2.75 -0.50 1.30 0 1.45 0.15 1.45 1.55 0 2 -1.15 2.90 -3.60 2.95 -1.85 0 -1.90 -0.05 -1.90 -1.75z"/>
  <path d="M17.65 23.55 c-1.35 -0.65 -1.65 -1.10 -1.65 -2.40 0 -1.60 0.05 -1.65 2 -1.65 1.15 0 2.70 0.35 3.50 0.75 1.25 0.65 1.50 1.10 1.50 2.50 0 1.70 -0.05 1.75 -1.85 1.70 -1.05 -0.05 -2.65 -0.45 -3.50 -0.90z"/>
  <path d="M13.85 18.65 l-2.40 -0.20 0.15 -2.10 0.15 -2.10 2.75 -0.30 2.75 -0.30 -2.60 -0.05 c-2.30 -0.10 -2.65 -0.25 -2.65 -1.10 0 -0.80 -0.35 -1 -1.50 -1 -1.35 0 -1.50 -0.15 -1.50 -1.60 0.05 -2.45 1 -3.40 3.45 -3.40 1.95 0 2.05 0.05 2.05 1.50 0 0.85 0.20 1.50 0.45 1.50 0.25 0 0.80 0.15 1.25 0.30 0.65 0.25 0.80 -0.05 0.80 -1.50 0 -1.70 0.05 -1.80 1.75 -1.80 1.65 0 1.75 0.10 1.75 1.70 0 0.95 -0.30 1.85 -0.60 1.95 -0.50 0.20 -0.50 0.30 0 0.30 0.35 0.05 0.60 0.75 0.60 1.80 0 1.05 -0.25 1.75 -0.60 1.75 -0.45 0 -0.60 0.75 -0.50 2.50 l0.20 2.50 -1.70 -0.10 c-0.90 -0.05 -2.75 -0.15 -4.05 -0.25z"/>
  <path d="M24.15 10.70 c-0.65 -0.70 -1.15 -1.95 -1.15 -2.75 0 -1.35 0.15 -1.45 1.95 -1.45 2.50 0 3.55 1.05 3.55 3.55 0 1.85 -0.05 1.95 -1.60 1.95 -1.15 0 -2 -0.40 -2.75 -1.30z"/>
  <path d="M1.10 7.15 c0.15 -1.80 0.25 -1.90 2.05 -2.05 l1.90 -0.15 -0.15 1.90 c-0.15 1.80 -0.25 1.90 -2.05 2.05 l-1.90 0.15 0.15 -1.90z"/>
  <path d="M21.15 3.40 c-0.80 -0.40 -1.15 -1 -1.15 -2 0 -1.30 0.15 -1.40 1.95 -1.40 2.95 0 3.55 0.40 3.55 2.30 0 1.60 -0.10 1.70 -1.60 1.65 -0.90 0 -2.15 -0.25 -2.75 -0.55z"/>
 </g>
 <g fill="#38404d">
  <path d="M2 39.15 c0.05 -0.90 1.60 -3.15 2.20 -3.15 0.70 0 0.25 3.40 -0.50 3.70 -1.30 0.50 -1.70 0.35 -1.70 -0.55z"/>
  <path d="M1.60 32.35 c-2 -4 -2.05 -4.85 -0.20 -4.85 1.15 0 1.60 0.35 2.25 1.75 1.15 2.40 1.05 6.25 -0.10 6.25 -0.20 0 -1.10 -1.40 -1.95 -3.15z m1.70 -0.20 c-0.20 -0.75 -0.80 -1.95 -1.35 -2.65 -1 -1.25 -1 -1.20 0 0.85 0.60 1.15 1.05 2.50 1.05 2.95 0 0.50 0.15 0.75 0.30 0.55 0.15 -0.15 0.15 -0.90 0 -1.70z"/>
  <path d="M25 33.55 c0 -1.90 1.50 -4.55 2.65 -4.55 0.65 0 0.85 -0.45 0.85 -2.10 0 -1.15 0.25 -2.85 0.60 -3.75 0.50 -1.40 0.85 -1.65 2.25 -1.65 1.95 0 2.05 0.55 0.75 4.30 -0.50 1.45 -1.15 2.45 -1.50 2.30 -0.30 -0.10 -1 0.55 -1.55 1.50 -3.45 5.95 -4.05 6.50 -4.05 3.95z"/>
  <path d="M29.30 20.05 c-0.25 -0.40 -1 -5.15 -2.15 -13.20 l-0.25 -1.90 1.90 0.15 c2.15 0.15 1.85 -0.65 3.25 7.80 0.35 2 0.80 3.75 1.05 3.90 0.20 0.15 0.40 -0.05 0.40 -0.45 0 -0.40 0.70 -0.85 1.55 -1.05 2.30 -0.45 4.45 -0.35 4.45 0.20 0 0.65 -1.70 1.50 -2.95 1.50 -0.60 0 -1.05 0.25 -1.05 0.50 0 0.30 0.20 0.50 0.40 0.50 0.25 0 0.85 0.30 1.40 0.70 0.85 0.65 0.75 0.70 -1.15 0.45 -1.75 -0.25 -2.15 -0.15 -2.15 0.55 0 0.60 -0.50 0.80 -2.20 0.80 -1.25 0 -2.35 -0.20 -2.50 -0.45z"/>
  <path d="M0 8.10 c0 -2 0.80 -3.10 2.70 -3.80 0.75 -0.25 0.85 -0.45 0.40 -0.90 -0.35 -0.35 -0.60 -1.25 -0.60 -2.05 0 -1.35 0.10 -1.40 2.15 -1.25 l2.10 0.15 0.15 3.55 c0.15 3.45 0.10 3.60 -1.10 3.90 -0.70 0.15 -1.50 0.75 -1.80 1.30 -0.40 0.70 -1.05 1 -2.25 1 -1.70 0 -1.75 -0.05 -1.75 -1.90z"/>
  <path d="M21.60 1.75 c0.05 -1.65 0.15 -1.75 1.75 -1.75 1.55 0 1.65 0.10 1.65 1.75 0 1.65 -0.10 1.75 -1.75 1.75 -1.65 0 -1.70 -0.05 -1.65 -1.75z"/>
  <path d="M26.50 1.25 c0 -1.10 0.20 -1.25 2 -1.25 1.80 0 2 0.15 2 1.25 0 1.15 -0.20 1.25 -2 1.25 -1.80 0 -2 -0.10 -2 -1.25z"/>
 </g>
 <g fill="#723e1e">
  <path d="M5.40 39.65 c-0.50 -0.10 -0.90 -0.65 -0.90 -1.20 0 -0.55 -0.35 -0.95 -0.80 -0.95 -0.40 0 -0.60 -0.20 -0.45 -0.50 0.15 -0.25 -0.15 -1.55 -0.70 -2.80 -1.30 -2.95 -1.30 -4.65 0 -1.95 0.90 1.90 0.95 1.90 0.75 0.45 -0.15 -0.80 -0.30 -1.70 -0.35 -2 -0.05 -0.25 -0.05 -1.30 0 -2.30 0.05 -1.80 0.15 -1.90 1.70 -1.90 1.10 0 2.05 0.40 2.65 1.05 0.50 0.60 1.80 1.50 2.90 2.05 2.60 1.35 8.15 0.90 10.90 -0.90 1.05 -0.65 2.25 -1.20 2.70 -1.20 0.80 0 2.15 -1.30 2.20 -2.10 0 -0.25 -1.35 -0.40 -3 -0.40 -2.35 0 -3 0.15 -3 0.75 0 0.55 -0.55 0.75 -1.85 0.75 -1.05 0 -3.10 0.15 -4.50 0.30 -2.45 0.30 -2.65 0.25 -2.65 -0.75 0 -0.85 -0.30 -1.05 -1.75 -1.05 -1.60 0 -1.75 -0.10 -1.75 -1.50 0 -1.80 1.95 -3.85 3.95 -4.30 2.15 -0.50 2.35 -0.60 0.95 -0.65 -1.25 -0.05 -1.40 -0.25 -1.40 -1.75 0 -0.95 0.20 -1.80 0.45 -1.90 0.25 -0.05 0.35 -0.75 0.20 -1.50 -0.25 -1.20 -0.50 -1.40 -1.95 -1.40 -1.60 0 -1.70 -0.10 -1.70 -1.70 0 -1.50 0.20 -1.75 1.50 -2.05 0.85 -0.20 1.50 -0.55 1.50 -0.80 0 -0.25 0.35 -0.45 0.75 -0.45 0.40 0 0.75 -0.20 0.75 -0.50 0 -0.25 0.75 -0.50 1.70 -0.50 1.70 0 1.75 0.05 1.95 2.10 l0.20 2.15 0.05 -2.10 c0.10 -2.10 0.15 -2.15 1.80 -2.15 1.80 0 2.30 0.60 2.30 2.90 0.05 1.30 1 3.10 1.70 3.10 0.15 0 0.30 -0.55 0.30 -1.25 0 -0.70 0.20 -1.25 0.45 -1.25 0.25 0 0.55 -0.60 0.65 -1.35 0.10 -1.15 0.40 -1.45 1.80 -1.55 0.95 -0.10 1.90 0.15 2.35 0.60 0.85 0.80 1.05 3.80 0.25 3.80 -0.25 0 -0.50 0.45 -0.50 1 0 0.80 -0.35 1 -1.85 1 -1.65 0.05 -1.75 0.10 -0.90 0.60 1.85 1 2.25 2 2.25 5.75 l0 3.65 1.50 0 c1.30 0 1.50 0.20 1.50 1.40 0 2.05 -0.90 4.80 -1.90 5.90 -0.50 0.50 -1.20 1.70 -1.55 2.60 -0.55 1.35 -0.95 1.60 -2.30 1.60 -0.95 0 -1.80 -0.30 -1.90 -0.60 -0.20 -0.40 -0.30 -0.35 -0.30 0.20 -0.05 0.45 -0.75 1.05 -1.60 1.35 -1.90 0.65 -9.65 0.75 -10.85 0.10 -0.45 -0.25 -1.75 -0.30 -2.85 -0.10 -1.95 0.35 -1.90 0.35 1.40 0.75 l3.35 0.40 0 1.70 0 1.70 -2.60 -0.05 c-1.45 -0.05 -3.05 -0.15 -3.50 -0.30z m11.95 -6.40 c3.10 -0.60 2.25 -1.25 -1.55 -1.15 -2.10 0 -3.80 0.25 -3.80 0.50 0 0.20 -0.35 0.40 -0.75 0.40 -0.40 0 -0.75 -0.20 -0.75 -0.40 0 -0.25 -0.90 -0.85 -2 -1.35 -1.10 -0.50 -2.25 -1.20 -2.60 -1.60 -0.40 -0.55 -0.65 -0.55 -0.95 -0.10 -0.55 0.90 0.05 2.10 0.75 1.50 0.40 -0.35 1.35 0 2.90 0.95 2.10 1.35 4.65 2 6.40 1.70 0.40 -0.05 1.50 -0.25 2.35 -0.45z m4.15 -10.50 c0 -0.35 -2.85 -1.75 -3.60 -1.75 -0.35 0 0.15 0.40 1.10 0.95 1.85 1 2.50 1.20 2.50 0.80z m2 -2.95 c0 -0.80 -0.60 -1.70 -1.60 -2.50 l-1.65 -1.30 -0.15 1.50 c-0.15 1.15 -0.45 1.50 -1.50 1.65 -1.05 0.15 -0.95 0.20 0.50 0.30 1.05 0 2.15 0.40 2.50 0.80 1 1.10 1.90 0.90 1.90 -0.45z m-5.65 -3.55 c-0.20 -0.40 -0.55 -0.75 -0.85 -0.75 -0.35 0 -0.35 0.30 0 1.05 0.65 1.15 1.30 0.95 0.85 -0.30z m-3.35 0.25 c0.40 -0.25 0.55 -0.60 0.40 -0.80 -0.50 -0.45 -1.90 0.15 -1.90 0.80 0 0.60 0.50 0.65 1.50 0z m12.50 -6.45 c0 -0.60 -1.45 -2.05 -2 -2.05 -0.25 0 0.05 0.55 0.65 1.25 1.25 1.40 1.35 1.45 1.35 0.80z m-14.25 -1.55 c0.15 -0.30 0 -0.50 -0.35 -0.50 -0.35 0 -0.95 0.45 -1.30 1.05 -0.60 0.95 -0.55 0.95 0.35 0.50 0.55 -0.30 1.15 -0.80 1.30 -1.05z"/>
  <path d="M3.60 16.65 c0.15 -2.40 0.15 -2.40 2.05 -2.55 1.80 -0.15 1.85 -0.15 1.85 1.60 0 2.70 -0.40 3.30 -2.35 3.30 l-1.70 0 0.15 -2.35z"/>
  <path d="M3 9.75 c0 -1.65 0.10 -1.75 1.75 -1.75 1.65 0 1.75 0.10 1.75 1.75 0 1.65 -0.10 1.75 -1.75 1.75 -1.65 0 -1.75 -0.10 -1.75 -1.75z"/>
  <path d="M8 4.30 c0 -1.55 0.20 -1.75 2.65 -2.85 3.45 -1.55 11.85 -2 14.30 -0.75 1.35 0.70 1.55 1.10 1.55 2.80 0 1.95 -0.05 2 -1.75 2 -1.15 0 -2.10 -0.40 -2.95 -1.25 -1.60 -1.60 -1.90 -1.55 -6.65 0.25 -2.10 0.85 -4.60 1.50 -5.50 1.50 -1.55 0 -1.65 -0.10 -1.65 -1.70z"/>
 </g>
 <g fill="#875128">
  <path d="M6.50 39.45 c-4.65 -0.90 -4.65 -0.90 -3.75 -1.80 0.50 -0.45 0.70 -1.20 0.55 -1.70 -0.75 -2.40 -0.90 -3.20 -0.40 -2.55 0.80 1.15 1.10 -0.55 0.30 -1.95 -0.35 -0.65 -0.65 -1.95 -0.70 -2.80 0 -1.55 0.10 -1.65 1.70 -1.65 1.40 0 1.75 0.20 1.90 1.10 0.15 1.25 1.55 1.75 4.80 1.85 1.75 0.05 2.10 0.20 2.10 1.05 0 2 -4.15 0.90 -7.10 -1.90 l-1.40 -1.30 0 1.25 c0 0.65 0.45 2.10 1 3.20 l1 2 -0.25 -1.60 c-0.25 -1.95 0.20 -2.05 1.80 -0.50 1.65 1.55 3.25 2.15 6.35 2.30 2.80 0.15 6.30 -0.75 5.85 -1.50 -0.15 -0.20 0.45 -0.75 1.35 -1.15 2.15 -0.90 3.75 -2.15 3.30 -2.55 -0.15 -0.20 -1.15 0.25 -2.25 0.90 -1.15 0.75 -3 1.35 -4.75 1.55 -2.65 0.30 -2.90 0.25 -2.90 -0.70 0 -0.80 0.35 -1 1.70 -1 0.95 0 1.85 0.30 1.95 0.65 0.20 0.35 0.30 0.30 0.30 -0.20 0.05 -0.95 1.05 -1.45 2.75 -1.45 1.05 0 1.20 -0.30 1.50 -3.05 0.55 -5.55 0.40 -8.95 -0.45 -8.95 -0.40 0 -1.20 -0.45 -1.75 -1 l-1 -1 0 2.75 c0 2.70 0 2.75 1.50 2.75 1.45 0 1.50 0.10 1.50 2.25 0 2.15 -0.05 2.25 -1.50 2.25 -1.15 0 -1.50 0.25 -1.50 0.95 0 0.90 -0.40 0.95 -4.75 1 l-4.75 0 0 -1.50 c0 -1.30 -0.15 -1.45 -1.50 -1.45 -1.40 0 -1.50 -0.15 -1.50 -1.75 0 -1.65 0.10 -1.75 1.75 -1.75 1.95 0 2.30 0.70 0.75 1.50 -0.55 0.30 -1 0.75 -1 1.05 0 0.30 0.35 0.30 1 -0.05 0.75 -0.40 1 -0.40 1.05 0.10 0 0.35 0.25 0.15 0.55 -0.45 0.50 -1 0.95 -1.15 3.35 -1.15 1.70 0 3.65 0.40 4.95 1 2.35 1.05 2.85 0.65 0.70 -0.60 -0.85 -0.50 -2.80 -0.90 -5 -0.95 -3.05 -0.15 -3.60 -0.30 -3.60 -1.05 0 -0.50 0.25 -0.90 0.50 -0.90 0.30 0 0.50 -0.20 0.50 -0.50 0 -0.25 -0.45 -0.50 -1 -0.50 -0.70 0 -1 -0.35 -1 -1.20 0 -0.65 -0.15 -1.85 -0.30 -2.60 -0.25 -1.35 -0.40 -1.45 -2.25 -1.30 -1.70 0.20 -1.95 0.10 -1.95 -0.85 0 -1.05 -0.15 -1.10 -3 -0.75 l-3 0.35 0 -1.90 c0 -1.40 0.20 -1.80 0.70 -1.60 0.40 0.15 1.20 -0.30 1.85 -1 0.95 -1 1 -1.25 0.35 -1 -0.65 0.25 -0.90 0.05 -0.90 -0.60 0 -1 1.30 -1.55 3.65 -1.55 0.80 0 1.35 -0.25 1.35 -0.65 0 -0.75 2.05 -1.85 3.50 -1.85 0.50 0 1 -0.30 1.10 -0.60 0.35 -0.95 9.35 -1.20 12.15 -0.35 2.05 0.60 2.25 0.80 2.25 2.30 0 1.55 -0.10 1.65 -1.60 1.65 -0.90 -0.05 -2.50 -0.35 -3.60 -0.75 -1.75 -0.60 -2.15 -0.55 -5 0.50 -2.20 0.90 -2.70 1.20 -1.75 1.25 0.80 0 1.50 0.35 1.65 0.85 0.30 0.65 0.45 0.70 0.75 0.20 0.25 -0.35 1.10 -0.55 2.10 -0.45 1.30 0.10 1.75 0.45 2 1.40 l0.35 1.25 0.05 -1.35 c0.05 -1.35 0.15 -1.40 2.55 -1.40 2.30 0 2.50 0.10 2.50 1.20 0 1 -0.20 1.15 -1.10 0.90 -1.15 -0.25 -1.15 -0.25 0.10 1.05 0.70 0.70 1.35 1.10 1.40 0.85 0.40 -1.15 1.10 -0.35 1.10 1.30 0 1.35 -0.25 1.85 -1 2.05 -1 0.25 -1.45 1.65 -0.50 1.65 0.30 0 0.50 1.40 0.50 3.25 l0 3.25 1.75 0 c1.65 0 1.75 0.10 1.75 1.65 0 1.70 -1 4.35 -1.60 4.35 -0.25 0 -0.40 0.70 -0.40 1.50 0 0.85 -0.20 1.50 -0.50 1.50 -0.25 0 -0.50 0.25 -0.50 0.50 0 0.95 -2 2.50 -3.25 2.50 -0.70 0 -1.25 0.30 -1.25 0.65 0 1.20 -2.25 2 -6.60 2.25 l-4.40 0.25 0 1.65 c0 1.60 -0.10 1.70 -1.60 1.65 -0.90 -0.05 -2.65 -0.25 -3.90 -0.50z m21.25 -12.50 c0.45 -0.85 0.75 -1.70 0.65 -1.95 -0.10 -0.25 -0.55 0.45 -1 1.50 -1 2.35 -0.75 2.65 0.35 0.45z m-9.25 -2.45 c0 -0.25 -0.65 -0.50 -1.45 -0.50 -0.85 0 -1.65 0.25 -1.80 0.50 -0.20 0.30 0.40 0.50 1.45 0.50 1 0 1.80 -0.20 1.80 -0.50z m6.85 -3.35 c-0.15 -0.50 -0.25 -0.10 -0.25 0.85 0 0.95 0.10 1.35 0.25 0.90 0.10 -0.50 0.10 -1.30 0 -1.75z m0 -3.80 c-0.20 -0.60 -1.30 -1.75 -2.45 -2.50 l-2.15 -1.35 2.15 1.85 c1.15 1.05 2.10 2.35 2.10 2.85 0 0.55 0.15 0.85 0.30 0.65 0.20 -0.15 0.20 -0.85 0.05 -1.50z m-10 -0.85 c-0.65 -1.75 -0.90 -1.80 -2.10 -0.50 -0.90 1 -0.85 1 0.40 1 0.75 0 1.35 0.25 1.35 0.50 0 0.30 0.20 0.50 0.45 0.50 0.25 0 0.20 -0.65 -0.10 -1.50z m2.80 0 c-0.15 -0.55 -0.60 -1 -0.95 -1 -0.85 0 -0.90 0.60 -0.10 1.40 0.90 0.90 1.35 0.75 1.05 -0.40z m-3.65 -5.20 c-0.75 -0.75 -1.60 0.35 -1.20 1.45 0.35 0.85 0.40 0.85 1.05 -0.05 0.45 -0.60 0.50 -1.05 0.15 -1.40z m4 1.65 c0 -0.30 0.40 -0.40 0.90 -0.25 0.70 0.25 0.70 0.20 -0.10 -0.45 -1.30 -1 -1.90 -0.95 -2.95 0.25 -0.80 0.95 -0.80 1 0.65 1 0.85 0 1.50 -0.25 1.50 -0.55z m-6.50 -2.95 c-0.60 -0.35 -0.60 -0.50 0.15 -0.80 0.45 -0.15 0.85 -0.50 0.85 -0.75 0 -0.80 -0.90 -0.50 -2.15 0.75 l-1.15 1.15 1.50 0.05 c1.05 0.05 1.30 -0.10 0.80 -0.40z m6.55 -2.15 c-0.40 -0.40 -0.55 -0.15 -0.55 0.95 0.05 1.25 0.10 1.35 0.55 0.55 0.40 -0.70 0.40 -1.10 0 -1.50z m-9.05 -0.35 c0 -1.15 -0.20 -1.50 -1 -1.50 -0.55 0 -1 0.15 -1 0.40 0 0.20 -0.15 0.85 -0.30 1.50 -0.25 0.95 -0.10 1.10 1 1.10 1.10 0 1.30 -0.20 1.30 -1.50z m5.15 -4.85 c1.85 -0.70 3.30 -1.35 3.20 -1.45 -0.25 -0.30 -5.50 1.55 -7.15 2.55 -1.60 0.90 -1 0.75 3.95 -1.10z m10.35 0.95 c0 -0.70 -1.65 -1.95 -3 -2.35 -1.05 -0.25 -1 -0.15 0.40 0.70 0.85 0.55 1.60 1.25 1.60 1.55 0 0.25 0.25 0.50 0.50 0.50 0.30 0 0.50 -0.20 0.50 -0.40z"/>
  <path d="M24 36.75 c0 -1.45 0.20 -1.75 1.05 -1.75 0.75 0 1 0.25 0.90 1.15 -0.10 0.60 0 1.40 0.20 1.75 0.30 0.40 0.05 0.60 -0.85 0.60 -1.15 0 -1.30 -0.20 -1.30 -1.75z"/>
  <path d="M3.10 17.45 c0.25 -3.35 0.75 -3.95 3.30 -3.95 1.50 0 1.60 0.10 1.60 1.70 0 1.05 -0.30 1.80 -0.75 2 -0.45 0.15 -0.75 0.90 -0.75 1.80 0 1.40 -0.15 1.50 -1.80 1.50 l-1.80 0 0.20 -3.05z"/>
 </g>
 <g fill="#5b606a">
  <path d="M2.20 39.25 c-0.40 -0.95 1.10 -2.45 2.05 -2.05 0.95 0.35 0.95 1.15 0.05 2.10 -0.95 0.90 -1.75 0.90 -2.10 -0.05z"/>
  <path d="M5.50 38.80 c0 -1.15 0.10 -1.20 1.75 -0.65 0.95 0.30 1.75 0.80 1.75 1.20 0 0.40 -0.65 0.65 -1.75 0.65 -1.50 0 -1.75 -0.15 -1.75 -1.20z"/>
  <path d="M25.50 39.25 c0 -0.40 0.35 -0.75 0.75 -0.75 0.40 0 0.75 0.35 0.75 0.75 0 0.40 -0.35 0.75 -0.75 0.75 -0.40 0 -0.75 -0.35 -0.75 -0.75z"/>
  <path d="M2.25 33.25 c-0.85 -1.65 -1.65 -3.05 -1.85 -3.15 -0.25 -0.10 -0.40 -1.05 -0.40 -2.15 0 -1.75 0.15 -1.95 1.20 -1.95 1.10 0 1.30 0.30 1.55 2.25 0.20 1.20 0.80 2.70 1.30 3.30 1 1.15 1.30 2.20 0.50 1.70 -0.25 -0.15 -0.55 0.45 -0.65 1.35 -0.15 1.65 -0.20 1.60 -1.65 -1.35z m1 -1.70 c-0.75 -1.45 -2.40 -3.55 -2.15 -2.80 0.90 2.85 2.10 5.20 2.45 4.70 0.20 -0.35 0.05 -1.20 -0.30 -1.90z"/>
  <path d="M24.50 33.95 c0 -1.90 0.80 -3.45 1.75 -3.45 0.45 0 0.75 -0.50 0.75 -1.25 0 -0.70 0.20 -1.25 0.40 -1.25 0.50 0 2.10 -6 2.10 -7.95 0 -0.85 -0.20 -1.55 -0.50 -1.55 -0.25 0 -0.50 -0.60 -0.50 -1.35 0 -0.80 -0.35 -3.15 -0.75 -5.30 -0.40 -2.15 -0.75 -4.70 -0.75 -5.65 0 -1.60 0.10 -1.70 1.75 -1.70 2.25 0 2.50 0.60 3.25 6.75 0.50 4.35 1 6.70 1 4.85 0 -0.35 0.75 -0.60 1.75 -0.60 1.85 0 2.55 1.25 0.90 1.60 -0.70 0.15 -0.60 0.35 0.60 1.05 l1.50 0.85 -1.65 -0.10 -1.65 -0.15 -1.55 4.60 c-0.90 2.65 -1.80 4.45 -2.10 4.35 -0.55 -0.20 -4.80 6.15 -4.80 7.25 0 0.30 -0.35 0.55 -0.75 0.55 -0.50 0 -0.75 -0.50 -0.75 -1.55z m7.75 -15.40 c-0.60 -0.25 -1.20 -1.25 -1.60 -2.85 l-0.60 -2.45 0.20 2.40 c0.30 3 0.50 3.35 1.90 3.30 1.05 0 1.05 -0.05 0.10 -0.40z m-2.40 -8.90 c-0.15 -0.50 -0.25 -0.10 -0.25 0.85 0 0.95 0.10 1.35 0.25 0.90 0.10 -0.50 0.10 -1.30 0 -1.75z"/>
  <path d="M37 15.50 c0 -0.55 0.35 -1 0.75 -1 0.45 0 0.75 -0.45 0.75 -1.25 0 -0.80 0.30 -1.25 0.75 -1.25 1.10 0 1.05 3.80 -0.05 4.20 -1.45 0.55 -2.20 0.30 -2.20 -0.70z"/>
  <path d="M0 10.70 c0 -4.85 0.10 -5.30 1 -5.55 0.55 -0.15 1 -0.45 1 -0.70 0 -0.25 0.50 -0.45 1.15 -0.50 0.75 0 0.85 -0.10 0.35 -0.30 -1 -0.40 -1.50 -1.20 -1.50 -2.50 0 -1.10 0.15 -1.15 5.50 -1.15 l5.50 0 0 1.25 c0 1 -0.40 1.40 -1.95 2.05 -1.50 0.60 -1.90 1 -1.70 1.75 0.20 0.65 0 0.95 -0.55 0.95 -0.45 0 -0.80 0.20 -0.80 0.45 0 0.25 -0.90 0.60 -2 0.80 -1.65 0.30 -2.05 0.60 -2.30 1.65 -0.20 1.25 -0.65 2.90 -1.45 6 -0.20 0.65 -0.70 1.10 -1.30 1.10 -0.90 0 -0.95 -0.40 -0.95 -5.30z m5 -4.70 c1.20 -0.50 1.20 -0.50 -0.25 -0.20 -1.60 0.30 -3.25 1.50 -3.25 2.35 0 0.30 0.50 0.05 1.15 -0.55 0.60 -0.55 1.65 -1.30 2.35 -1.60z"/>
  <path d="M21.50 3.20 c-0.70 -0.35 -1.85 -0.70 -2.60 -0.70 -1.55 0 -1.90 -0.80 -0.50 -1.15 0.80 -0.20 0.80 -0.25 0 -0.30 -0.50 0 -0.90 -0.30 -0.90 -0.55 0 -0.35 1.50 -0.50 4.15 -0.40 l4.10 0.15 0.15 1.90 c0.10 1.05 -0.05 1.85 -0.35 1.85 -0.30 0 -0.55 -0.30 -0.55 -0.65 0 -0.70 -1.15 -1.45 -3.60 -2.35 -2.05 -0.70 -1.70 -0.15 0.60 1 1.10 0.55 2 1.25 2 1.50 0 0.65 -1 0.55 -2.50 -0.30z"/>
 </g>
 <g fill="#945c3b">
  <path d="M8 39.60 c0 -0.20 -0.85 -0.30 -1.95 -0.20 -1.75 0.15 -1.95 0.05 -2.15 -1.10 -0.30 -1.55 -0.35 -1.50 1.95 -0.55 0.95 0.40 2.50 0.75 3.35 0.75 l1.55 -0.05 -1.40 -0.75 c-1.25 -0.65 -2.35 -2.45 -2.35 -3.75 0 -0.70 1.40 -0.55 3.35 0.35 3 1.45 11.15 0.30 11.15 -1.55 0 -0.30 0.70 -0.95 1.50 -1.45 l1.55 -0.90 -0.30 1.45 -0.30 1.40 0.90 -1.50 c0.85 -1.50 0.90 -1.50 1.05 -0.30 0.10 0.65 -0.10 1.40 -0.50 1.60 -0.55 0.35 -0.55 0.45 0 0.45 0.50 0 0.60 0.65 0.40 2.65 -0.15 1.40 -0.25 2.75 -0.30 3 0 0.20 -0.80 0.35 -1.80 0.35 -1.80 0 -1.80 0 -1.60 -1.90 l0.15 -1.90 -1.35 0.75 c-1 0.55 -1.40 1.20 -1.40 2.20 l0 1.35 -5.75 0 c-3.15 0 -5.75 -0.15 -5.75 -0.40z"/>
  <path d="M6.05 36.30 c-0.80 -0.95 -0.55 -1.45 0.40 -0.85 0.35 0.25 0.60 0.70 0.45 1.05 -0.15 0.45 -0.40 0.35 -0.85 -0.20z"/>
  <path d="M3.35 35.65 c-0.25 -0.35 -0.25 -0.90 -0.05 -1.25 0.20 -0.30 0.35 -1.30 0.30 -2.25 -0.10 -2.10 0.75 -2.15 1.65 0 0.75 1.80 0.60 2.25 -0.45 1.40 -0.60 -0.50 -0.75 -0.35 -0.90 1.05 -0.10 1.05 -0.30 1.45 -0.55 1.05z"/>
  <path d="M11.25 31.80 c-0.25 -0.10 -1.10 -0.35 -1.85 -0.50 -0.75 -0.20 -2.20 -1 -3.15 -1.90 -1.75 -1.50 -1.80 -1.50 -2.10 -0.50 -0.15 0.60 -0.60 1.10 -0.95 1.10 -0.50 0 -0.70 -0.70 -0.70 -2.55 l0 -2.50 1.90 0.15 c1.60 0.15 1.90 0.35 2.30 1.70 0.60 2.05 3 2.90 8.05 2.85 5 0 8.20 -1.40 8.25 -3.50 0 -0.35 -0.55 -0.65 -1.25 -0.65 -0.80 0 -1.25 0.30 -1.25 0.75 0 0.55 -0.55 0.75 -1.95 0.75 -1.05 0 -3.30 0.15 -5 0.30 -2.90 0.35 -3.05 0.30 -3.05 -0.75 0 -0.85 -0.30 -1.05 -1.75 -1.05 -1.70 0 -1.75 -0.05 -1.75 -2 0 -1.45 0.20 -2 0.75 -2 0.50 0 0.75 -0.50 0.75 -1.60 0 -1.60 1.60 -4.90 2.40 -4.90 0.20 0 0.30 -0.90 0.20 -2 -0.15 -1.55 -0.05 -2 0.55 -2 0.45 0 1.20 -0.15 1.70 -0.35 0.70 -0.25 0.65 -0.05 -0.35 1.05 -1 1.10 -1.05 1.30 -0.30 1 0.65 -0.25 0.85 -0.20 0.60 0.20 -0.15 0.30 -0.10 0.65 0.10 0.80 0.60 0.35 1.65 -2 1.30 -2.95 -0.20 -0.50 0 -0.75 0.50 -0.75 0.60 0 0.80 -0.50 0.80 -2 0 -1.95 0.05 -2 1.75 -2 1.45 0 1.75 0.20 1.75 1.05 0 0.60 -0.20 0.90 -0.55 0.65 -0.75 -0.45 -1.40 0.70 -1.05 1.95 0.25 0.95 0.30 0.95 0.95 0.10 0.60 -0.90 0.65 -0.90 0.65 0.15 0 0.65 0.30 1.10 0.75 1.10 0.40 0 0.75 0.25 0.75 0.50 0 0.30 0.35 0.50 0.75 0.50 0.40 0 1 0.45 1.35 1 0.35 0.55 0.90 1 1.25 1 0.35 0 0.65 0.35 0.65 0.75 0 0.40 0.35 0.75 0.75 0.75 0.50 0 0.75 0.55 0.75 1.75 0 0.95 -0.20 1.75 -0.50 1.75 -0.25 0 -0.50 -0.50 -0.50 -1.10 0 -0.65 -0.30 -1.50 -0.65 -1.90 -0.85 -1.05 -6.60 -4.50 -7.45 -4.50 -0.35 0.05 0.20 0.45 1.20 0.95 4.65 2.35 8.10 6.55 5.40 6.55 -0.55 0 -1 -0.35 -1 -0.75 0 -0.40 -0.35 -0.75 -0.75 -0.75 -0.40 0 -0.75 -0.20 -0.75 -0.50 0 -0.25 -0.30 -0.50 -0.70 -0.50 -0.40 0 -1.05 -0.45 -1.45 -1.05 -0.65 -0.90 -0.70 -0.80 -0.50 1.25 0.25 1.90 0.15 2.30 -0.55 2.30 -0.45 0 -0.80 0.25 -0.80 0.50 0 0.30 0.35 0.50 0.75 0.50 0.40 0 0.75 0.20 0.75 0.40 0 0.20 -1.30 0.35 -2.85 0.35 -3.20 -0.10 -7.15 1.15 -7.15 2.15 0 0.50 0.50 0.35 1.80 -0.40 1.45 -0.90 2.30 -1.10 4.75 -0.90 1.65 0.10 3.20 0.45 3.35 0.75 0.20 0.25 1 0.65 1.80 0.85 1.15 0.30 1.35 0.20 1.15 -0.40 -0.25 -0.65 0.05 -0.80 1.40 -0.80 1.35 0 1.70 0.20 1.90 1.15 0.20 1.10 0.20 1.10 0.30 -0.10 0.05 -0.85 0.25 -1.05 0.85 -0.85 0.45 0.15 1.45 0.30 2.25 0.30 1.35 0 1.45 0.15 1.45 1.75 0 1.25 -0.20 1.75 -0.80 1.75 -0.60 0 -0.70 -0.35 -0.45 -1.60 0.20 -1.20 -0.10 -0.80 -1.25 1.50 -0.85 1.75 -1.40 3.30 -1.30 3.55 0.15 0.20 -0.05 0.40 -0.45 0.40 -0.40 0 -0.75 -0.35 -0.75 -0.75 0 -0.65 -0.10 -0.65 -0.85 0 -1.85 1.65 -4.10 2.35 -8.20 2.60 -2.30 0.15 -4.40 0.20 -4.70 0.10z m7.25 -7.15 c0 -0.90 -5.20 -0.85 -5.90 0 -0.40 0.50 0.15 0.60 2.70 0.60 2.20 0 3.20 -0.20 3.20 -0.60z m-2.50 -6.95 c0 -0.25 -0.95 -2.25 -1.25 -2.60 -0.30 -0.35 -2.25 0.95 -2.25 1.40 0 0.30 0.45 0.50 0.95 0.50 0.55 0 1.15 0.25 1.30 0.50 0.35 0.55 1.25 0.70 1.25 0.20z m2 -1.75 c-0.45 -0.75 -0.75 -0.90 -1.15 -0.50 -0.35 0.35 -0.25 0.80 0.40 1.60 1.10 1.20 1.60 0.50 0.75 -1.10z"/>
  <path d="M3.15 20.30 c0.35 -5 1.35 -6.80 3.60 -6.80 1.60 0 1.75 0.15 1.75 1.40 0 0.75 -0.45 2.25 -1 3.35 -0.55 1.10 -1 2.80 -1 3.85 0 1.85 -0.05 1.90 -1.80 1.90 l-1.85 0 0.30 -3.70z m2.65 -3.90 c0.60 -1.20 0.60 -1.35 0 -1.10 -0.70 0.25 -1.30 1.80 -1.25 3.20 0.05 0.65 0.05 0.65 0.30 0 0.15 -0.40 0.60 -1.35 0.95 -2.10z"/>
  <path d="M0.15 14.50 c0.05 -0.55 0.25 -1 0.45 -1 0.20 0 0.40 -0.35 0.40 -0.75 0 -0.40 0.35 -0.75 0.75 -0.75 0.50 0 0.75 0.55 0.75 1.75 0 1.50 -0.15 1.75 -1.20 1.75 -0.95 0 -1.20 -0.25 -1.15 -1z"/>
  <path d="M12.40 9.15 c0.70 -0.30 0.80 -1.65 0.10 -1.65 -0.25 0 -0.50 -0.30 -0.50 -0.70 0 -0.50 -0.55 -0.60 -2.25 -0.45 l-2.20 0.30 0.05 -1.80 c0.05 -1.85 0.75 -2.35 3.30 -2.35 0.60 0 1.10 -0.20 1.10 -0.50 0 -0.25 0.55 -0.50 1.20 -0.50 0.65 0 1.30 -0.35 1.50 -0.75 0.15 -0.50 0.95 -0.75 2.30 -0.75 2.50 0 2.60 0.75 0.15 1.25 -2.30 0.40 -8.30 2.80 -7.95 3.15 0.15 0.10 2.60 -0.60 5.50 -1.60 l5.20 -1.85 2.05 1 c1.15 0.60 2.05 1.30 2.05 1.55 0 0.30 0.25 0.50 0.50 0.50 0.85 0 0.55 -1.30 -0.50 -2.25 -1.20 -1.10 -0.95 -1.55 0.45 -0.75 0.80 0.40 1.05 1 1.05 2.50 0 1.90 -0.10 2 -1.50 2 -1 0 -1.95 -0.45 -2.65 -1.20 -1.05 -1.10 -1.25 -1.15 -3.45 -0.60 -1.35 0.30 -2.40 0.70 -2.40 0.90 0 0.25 -0.65 0.40 -1.50 0.40 -0.80 0 -1.50 0.25 -1.50 0.50 0 0.30 0.70 0.50 1.50 0.50 1.40 0 1.50 0.15 1.50 1.75 0 0.95 -0.25 1.75 -0.55 1.75 -0.25 0 -0.35 -0.20 -0.20 -0.50 0.15 -0.25 0.05 -0.90 -0.20 -1.35 -0.45 -0.80 -0.50 -0.70 -0.55 0.50 0 1.10 -0.20 1.35 -1.10 1.30 -0.65 0 -0.85 -0.15 -0.50 -0.30z"/>
 </g>
 <g fill="#956337">
  <path d="M9.65 39.65 c-1.60 -0.30 -1.45 -1.05 0.25 -1.05 2.45 0 4.60 0.45 4.60 0.90 0 0.50 -2.70 0.55 -4.85 0.15z"/>
  <path d="M2.50 38.55 c0 -1 1.40 -1.65 2.45 -1.05 1.60 0.80 1.25 1.50 -0.70 1.50 -0.95 0 -1.75 -0.20 -1.75 -0.45z"/>
  <path d="M10 37.10 c0 -0.50 -0.25 -1.15 -0.60 -1.50 -0.85 -0.85 0.60 -0.80 2.40 0.15 0.90 0.45 2.10 0.60 3.55 0.40 1.95 -0.25 2.15 -0.20 2.15 0.80 0 1 -0.25 1.05 -3.75 1.05 -3.30 0 -3.75 -0.10 -3.75 -0.90z"/>
  <path d="M4.60 33.40 c-0.70 -0.70 -0.80 -1.40 -0.10 -1.40 0.25 0 0.70 0.45 1 1 0.60 1.10 0.05 1.35 -0.90 0.40z"/>
  <path d="M23 33.40 c0 -0.35 0.25 -1 0.50 -1.40 0.40 -0.60 0.50 -0.60 0.50 0.25 0 0.65 0.75 -0.20 2 -2.25 2 -3.30 3.30 -6.35 2.85 -6.80 -0.15 -0.15 -0.55 0.55 -0.85 1.60 -0.35 1.05 -1.10 2.65 -1.70 3.65 -1 1.70 -1.05 1.75 -1.20 0.60 -0.30 -1.95 0.40 -4.55 1.15 -4.55 0.55 0 0.75 -0.60 0.75 -2.25 0 -1.90 0.15 -2.25 1 -2.25 0.80 0 1 -0.35 1 -1.50 0 -2.35 1.35 -1.90 1.90 0.65 0.30 1.15 0.50 1.60 0.55 1 0.05 -0.65 0.25 -1.15 0.45 -1.15 0.80 0 0.65 5.70 -0.15 7 -0.75 1.20 -0.75 1.10 -0.50 -1.75 l0.25 -3 -0.80 2.50 c-0.40 1.40 -0.90 3.10 -1.05 3.90 -0.15 0.75 -0.60 1.35 -0.95 1.35 -0.40 0 -0.70 0.50 -0.70 1.25 0 0.75 -0.30 1.25 -0.70 1.25 -0.40 0 -0.80 0.50 -0.90 1.15 -0.10 0.85 -0.55 1.15 -1.75 1.25 -1.10 0.10 -1.65 -0.05 -1.65 -0.50z"/>
  <path d="M12.90 31.60 c-1.70 -0.35 -1 -1.60 0.85 -1.60 1.15 0 1.75 0.25 1.75 0.70 0 0.75 -1.25 1.20 -2.60 0.90z"/>
  <path d="M0.80 30.25 c-0.50 -0.75 -0.80 -1.55 -0.65 -1.90 0.10 -0.30 0.55 0.20 1 1.10 1.05 2.10 0.80 2.55 -0.35 0.80z"/>
  <path d="M2 29.50 c-0.70 -1.10 -1.40 -2 -1.60 -2 -0.25 0 -0.40 -0.90 -0.40 -2 l0 -2 2 0 c1.10 0 2 0.25 2 0.50 0 0.30 0.45 0.50 1 0.50 0.85 0 1 0.35 1 2.40 l-0.05 2.35 -0.75 -1.35 c-0.40 -0.80 -0.80 -1.40 -0.85 -1.40 -0.10 0 -0.20 0.95 -0.20 2.15 -0.05 1.15 -0.10 2.25 -0.10 2.50 -0.10 0.85 -0.90 0.20 -2.05 -1.65z"/>
  <path d="M23.50 27.15 c0 -1.45 0.25 -2.65 0.50 -2.65 0.65 0 0.65 3.50 0 4.50 -0.35 0.55 -0.50 0 -0.50 -1.85z"/>
  <path d="M3 19.85 l0 -3.20 -1.50 0.25 c-1.35 0.20 -1.50 0.05 -1.50 -1.05 0 -0.70 0.20 -1.40 0.45 -1.55 0.75 -0.50 0.95 -3.80 0.20 -3.80 -0.80 0 -0.80 -0.25 -0.05 -3.45 0.55 -2.40 0.65 -2.55 2.10 -2.55 0.85 0 2 -0.35 2.50 -0.75 1.35 -1.05 4.50 -1 4.10 0 -0.45 1.30 0.25 2.25 1.65 2.20 0.85 -0.05 1 -0.15 0.40 -0.30 -1.60 -0.40 -0.60 -1.35 2.55 -2.50 l3.10 -1.10 0 1.25 c0 1 -0.25 1.20 -1.60 1.25 -0.90 0 -1.30 0.15 -0.90 0.30 0.40 0.15 0.90 0.55 1.10 0.85 0.25 0.40 0.55 0.35 1 -0.10 0.75 -0.75 3.35 -0.75 5.90 0 2 0.65 2.75 1.90 1.15 1.90 -0.85 0.05 -0.85 0.05 0 0.55 1 0.60 1.15 1.45 0.15 1.45 -0.80 0 -1.35 1.15 -0.90 1.80 0.40 0.55 2.90 0.55 3.40 0.05 0.20 -0.20 -0.35 -0.35 -1.20 -0.35 -0.90 0 -1.60 -0.20 -1.60 -0.50 0 -0.25 0.30 -0.50 0.70 -0.50 0.40 0 0.80 -0.30 0.95 -0.60 0.15 -0.45 0.50 -0.35 1.05 0.35 0.70 0.90 0.75 0.90 0.80 0.15 0 -0.50 0.35 -0.90 0.75 -0.90 0.50 0 0.75 0.55 0.75 1.75 0 0.95 0.25 1.75 0.50 1.75 0.70 0 0.60 3.30 -0.10 3.85 -0.35 0.30 -1.25 0.65 -1.95 0.80 -1 0.25 -1.45 0.10 -1.90 -0.80 -0.70 -1.20 -6 -4.50 -8.15 -5.05 -1.05 -0.25 -1.40 -0.15 -1.40 0.40 0 0.40 -0.20 0.85 -0.40 1 -0.20 0.15 -0.40 -0.85 -0.35 -2.25 0.05 -1.35 -0.10 -2.75 -0.35 -3.10 -0.45 -0.70 -0.55 -0.25 -0.40 1.90 0.05 1 -0.30 1.85 -0.95 2.45 -0.90 0.80 -0.90 1 -0.30 1.65 1.20 1.15 0.90 1.65 -0.95 1.65 -0.95 0 -1.80 0.30 -1.95 0.70 -0.15 0.35 -0.95 0.80 -1.80 0.95 -1.55 0.30 -1.55 0.35 -1.55 3.35 l0 3 -1.75 0 -1.75 0 0 -3.15z m2.90 -2.85 c0.95 -2 0.90 -2.35 -0.25 -1.60 -0.65 0.40 -1.50 3.60 -1 3.60 0.15 0 0.70 -0.90 1.25 -2z m7.10 -8.85 c0 -0.35 -0.45 -0.65 -1.05 -0.65 -0.75 0 -0.95 0.25 -0.75 0.75 0.20 0.55 -0.30 1.10 -1.45 1.80 -2.65 1.60 -2.10 1.70 0.75 0.15 1.40 -0.75 2.50 -1.65 2.50 -2.05z m6.35 0.10 c-0.10 -0.25 -0.55 -0.55 -1 -0.65 -0.60 -0.15 -0.85 0.20 -0.85 1.05 0 0.65 0.15 1.35 0.35 1.55 0.45 0.45 1.75 -1.20 1.50 -1.95z m-17.20 0.80 c-0.25 -0.95 1.90 -3.05 3.15 -3.05 0.35 0 0.75 -0.20 0.90 -0.45 0.40 -0.60 -2.25 0 -3.55 0.80 -1.20 0.80 -1.90 2.35 -1.40 3.15 0.55 0.85 1.15 0.55 0.90 -0.45z m6.85 -1.70 c0 -1 -1.25 0.05 -1.40 1.20 -0.10 1.15 -0.10 1.15 0.65 0.25 0.40 -0.55 0.75 -1.20 0.75 -1.45z"/>
  <path d="M11.80 18.25 c1 -1.50 1.70 -1.55 2.80 -0.30 0.75 0.90 0.75 1 -0.25 1.25 -0.60 0.15 -1.60 0.30 -2.25 0.30 -1.10 0 -1.10 -0.05 -0.30 -1.25z"/>
  <path d="M10.50 17.25 c0 -0.70 0.35 -1.40 0.75 -1.55 1.45 -0.55 1.65 0.10 0.45 1.45 l-1.20 1.40 0 -1.30z"/>
  <path d="M31 17.50 c0 -0.25 0.35 -0.50 0.75 -0.50 0.40 0 0.75 0.25 0.75 0.50 0 0.30 -0.35 0.50 -0.75 0.50 -0.40 0 -0.75 -0.20 -0.75 -0.50z"/>
  <path d="M22.50 16.50 c-0.40 -0.55 -1 -1 -1.35 -1 -0.90 0 -4.65 -2.50 -4.65 -3.10 0 -0.45 1.70 -0.10 2.75 0.55 2.05 1.25 5.25 3.80 5.25 4.15 0 0.75 -1.30 0.40 -2 -0.60z"/>
  <path d="M10.50 2.50 c0 -1.15 1.50 -1.65 4.20 -1.40 l1.85 0.15 -3.05 1.10 c-2.90 1.05 -3 1.05 -3 0.15z"/>
  <path d="M18.65 3.15 c-1.40 -0.25 -1.45 -0.95 -0.15 -1.65 0.75 -0.40 1.45 -0.35 2.75 0.30 0.95 0.45 1.75 1 1.75 1.25 0 0.45 -2.30 0.50 -4.35 0.10z"/>
 </g>
 <g fill="#ae743f">
  <path d="M9.35 39.65 c-0.65 -0.65 -0.35 -0.95 1.05 -0.85 2.65 0.10 3.10 0.20 3.10 0.70 0 0.55 -3.65 0.70 -4.15 0.15z"/>
  <path d="M10.35 37.65 c-0.65 -0.65 -0.35 -1.65 0.55 -1.65 0.90 0.05 2.60 1.10 2.60 1.70 0 0.40 -2.75 0.40 -3.15 -0.05z"/>
  <path d="M4.30 32.90 c-3.80 -5.40 -4.30 -6.50 -4.30 -9.20 0 -2.55 0.05 -2.70 1.25 -2.70 0.80 0 1.25 -0.30 1.25 -0.75 0 -0.40 0.45 -0.75 0.95 -0.75 0.75 0 1.05 0.40 1.20 1.65 l0.20 1.60 0.05 -1.60 c0.05 -0.90 0.35 -1.65 0.60 -1.65 0.65 0 0.65 7.85 0.05 8.25 -0.25 0.15 -0.65 -0.25 -0.85 -0.85 -0.35 -1.10 -0.35 -1.10 -0.70 -0.15 -0.35 0.95 -0.40 0.90 -1 -0.35 -0.35 -0.80 -0.85 -1.40 -1.10 -1.40 -0.80 0 -0.35 1.25 1.10 3.20 1.45 1.95 2.80 5.15 2.35 5.60 -0.15 0.15 -0.60 -0.25 -1.05 -0.90z"/>
  <path d="M1.60 31.75 c-0.35 -0.75 -0.55 -1.50 -0.40 -1.60 0.35 -0.35 1.40 1.80 1.20 2.45 -0.10 0.30 -0.45 -0.10 -0.80 -0.85z"/>
  <path d="M25.65 30.65 c1.45 -1.65 3.35 -6.05 3.30 -7.70 l-0.05 -1.70 -0.45 1.90 c-0.45 2 -2.80 6.85 -3.25 6.85 -0.20 0 -0.15 -0.85 0.05 -1.85 0.40 -2.20 0.35 -10.75 -0.05 -11.90 -0.20 -0.50 0 -0.75 0.70 -0.75 0.55 0 1.30 -0.35 1.65 -0.85 0.65 -0.75 0.60 -0.75 -0.35 -0.15 -1.50 0.95 -4.10 0.25 -6.40 -1.65 -1.40 -1.20 -1.90 -1.95 -1.65 -2.55 0.25 -0.65 0.55 -0.75 1.30 -0.30 1.65 0.85 1.60 0.55 -0.35 -1.30 l-1.85 -1.85 1.50 0.30 c1.35 0.30 1.40 0.25 0.40 -0.25 -1.25 -0.60 -2.65 0.15 -2.65 1.45 0 0.40 -0.20 0.55 -0.50 0.40 -0.25 -0.15 -0.50 -0.10 -0.50 0.15 0 0.30 0.35 0.60 0.75 0.80 1.20 0.45 0.90 1.80 -0.35 1.85 -0.90 0 -0.75 0.20 0.65 0.70 1.80 0.65 6.35 3.85 7.05 4.95 0.55 0.85 0.45 6.20 -0.10 6.55 -0.30 0.20 -0.50 -0.70 -0.50 -2.35 0 -3.70 -0.40 -4.85 -1.80 -5.20 -0.65 -0.15 -1.20 -0.60 -1.20 -1 0 -0.40 -0.45 -0.70 -1 -0.70 -0.55 0 -1 -0.20 -1 -0.50 0 -0.25 -0.90 -0.70 -1.95 -1 -1.35 -0.35 -2.05 -0.85 -2.25 -1.65 -0.35 -1.55 0.15 -3.35 1 -3.35 0.45 0 0.70 -0.55 0.70 -1.50 0 -1.45 0.05 -1.50 2.55 -1.50 1.55 0 2.80 0.30 3.25 0.75 0.45 0.40 1.30 0.75 2 0.75 0.65 0 1.20 0.30 1.20 0.65 0 0.40 -0.70 0.60 -2.10 0.50 -1.20 -0.05 -1.70 0 -1.15 0.15 3.10 0.80 4.95 2.25 3.95 3.15 -0.20 0.15 -0.45 0 -0.55 -0.30 -0.25 -0.75 -1.65 -0.90 -1.65 -0.15 0 0.25 -0.35 0.35 -0.80 0.15 -0.50 -0.15 -0.30 0.20 0.45 1.05 0.95 1.05 1.65 1.30 3.55 1.30 2.30 0 2.30 0 2.30 1.75 0 1.20 -0.30 1.85 -1 2.25 -1.50 0.80 -1.25 1.65 0.40 1.25 1.30 -0.25 1.50 -0.10 1.95 1.35 0.45 1.30 0.55 1.40 0.60 0.55 0.10 -1.70 0.80 -1.40 0.95 0.40 0.10 1.05 -0.05 1.45 -0.50 1.35 -0.90 -0.30 -1.85 1.10 -1.90 2.65 0 3.15 -2.30 6.90 -4.20 6.95 -0.90 0 -0.90 -0.05 -0.15 -0.85z"/>
  <path d="M23.50 28.15 c0 -0.90 0.25 -1.65 0.50 -1.65 0.65 0 0.65 1.50 0 2.50 -0.35 0.55 -0.50 0.35 -0.50 -0.85z"/>
  <path d="M11.75 18.50 c0.50 -0.55 1.30 -1 1.85 -1 0.55 0 0.90 0.35 0.90 1 0 0.80 -0.35 1 -1.85 1 -1.75 0 -1.80 0 -0.90 -1z"/>
  <path d="M1.65 16.85 c-1.55 -0.50 -2.25 -1.35 -1.15 -1.35 0.30 0 0.50 -0.60 0.55 -1.35 0 -0.80 0.20 -1.85 0.40 -2.40 0.40 -0.95 0.40 -0.95 0.95 0.10 0.35 0.60 0.60 1.50 0.60 2.05 0 0.55 0.45 1.10 0.95 1.25 0.70 0.15 0.90 0.55 0.70 1.30 -0.30 1.15 -0.60 1.20 -3 0.40z"/>
  <path d="M5.50 17.20 c0 -0.15 0.70 -0.95 1.55 -1.75 1.45 -1.35 1.10 -2 -0.55 -0.95 -0.55 0.35 -1.15 0.05 -2.30 -1.30 -3 -3.35 -2.35 -6.05 1.80 -7.40 0.90 -0.30 1.75 -0.90 1.90 -1.30 0.10 -0.55 0.05 -0.55 -0.25 -0.15 -0.25 0.35 -1.45 0.80 -2.65 1.10 -2.65 0.60 -4.20 2.20 -3.75 3.90 0.20 0.80 0.05 1.15 -0.50 1.15 -0.55 0 -0.65 -0.40 -0.40 -1.60 0.55 -3 0.55 -3 5.40 -5.20 0.85 -0.35 2.65 -0.80 4 -0.95 l2.50 -0.25 -1.60 0.85 c-2.30 1.15 -2.05 1.75 0.35 0.90 2 -0.70 2 -0.70 2 0.50 0 0.70 -0.30 1.25 -0.60 1.25 -0.40 0 -0.25 0.35 0.30 0.75 0.95 0.70 0.90 0.75 -0.55 0.75 -1.25 0 -1.50 0.20 -1.30 0.90 0.15 0.60 -0.35 1.20 -1.70 2 -1.40 0.85 -1.55 1.05 -0.65 0.85 0.70 -0.20 2.10 -0.90 3.10 -1.55 1.65 -1.05 1.85 -1.10 2.05 -0.30 0.10 0.45 -0.50 1.60 -1.35 2.55 -1.40 1.50 -1.45 1.65 -0.40 1.30 1.15 -0.35 1.35 0.05 0.80 1.45 -0.20 0.50 -1.20 0.90 -2.80 1.10 -1.35 0.20 -2.75 0.65 -3.15 1 -0.70 0.75 -1.25 0.90 -1.25 0.40z m-0.10 -7.25 c0.85 -1.35 0.25 -2 -0.70 -0.75 -0.40 0.55 -0.70 1.15 -0.70 1.40 0 0.75 0.75 0.40 1.40 -0.65z"/>
  <path d="M11 16.75 c0 -0.40 0.35 -0.75 0.80 -0.75 0.70 0 0.70 0.15 0.20 0.75 -0.35 0.40 -0.70 0.75 -0.80 0.75 -0.10 0 -0.20 -0.35 -0.20 -0.75z"/>
  <path d="M26.75 10.25 c0 -1.50 0.15 -1.75 1.15 -1.75 0.95 0 1.10 0.25 1.10 1.75 0 1.50 -0.15 1.75 -1.10 1.75 -1 0 -1.15 -0.25 -1.15 -1.75z"/>
 </g>
 <g fill="#b2724c">
  <path d="M8.85 39.30 c-0.20 -0.55 0.05 -0.70 1.05 -0.55 0.75 0.10 1.65 0.20 2 0.20 0.30 0.05 0.60 0.30 0.60 0.55 0 0.80 -3.35 0.60 -3.65 -0.20z"/>
  <path d="M15.50 39.60 c0 -0.25 0.60 -0.65 1.40 -0.95 1.20 -0.50 0.90 -0.55 -2.15 -0.60 -3.80 -0.05 -4.15 -0.20 -5.15 -1.90 -0.50 -0.95 -0.50 -1.15 0.10 -1.15 0.40 0 0.85 0.20 1.05 0.50 0.65 1.05 3.65 1.40 5.85 0.65 2.65 -0.90 6.90 -3.55 6.95 -4.35 0 -0.30 0.20 -0.10 0.45 0.45 0.40 0.95 0.40 0.95 0.90 -0.25 0.55 -1.25 0.55 -1.25 0.60 0.40 0.35 6.30 0.35 6.35 -1.40 6.50 -0.90 0.10 -1.60 0.35 -1.60 0.65 0 0.25 -1.55 0.45 -3.50 0.45 -1.90 0 -3.50 -0.20 -3.50 -0.40z"/>
  <path d="M7.90 30.50 c-2.15 -1.15 -2.95 -2.40 -3.45 -5.25 l-0.30 -2 -0.15 1.75 -0.10 1.75 -0.65 -1.75 c-0.80 -2.10 -0.95 -4 -0.25 -4 0.30 0 0.50 -0.85 0.55 -1.85 0 -1.05 0.25 -2.35 0.50 -2.90 0.30 -0.70 0.40 0.10 0.25 2.65 -0.10 1.95 0.05 3.60 0.25 3.60 0.25 0 0.45 -0.80 0.45 -1.75 0 -2.30 1.15 -5.05 2.40 -5.70 1.35 -0.75 1.50 -0.70 1.75 0.35 0.20 0.80 0.25 0.80 0.30 0 0 -0.50 0.75 -1.25 1.60 -1.70 1.30 -0.65 1.65 -0.70 2.05 -0.10 0.55 0.85 1.90 -0.80 1.90 -2.45 0 -0.65 0.25 -1.15 0.50 -1.15 0.85 0 0.55 -1 -0.75 -2.40 -0.70 -0.75 -1.25 -1.05 -1.25 -0.70 0 0.30 -0.20 0.60 -0.50 0.60 -0.25 0 -0.50 -0.45 -0.50 -1 0 -0.60 -0.35 -1 -0.80 -1 -1.25 0 -0.50 -1.15 1.20 -1.85 1.50 -0.60 1.60 -0.60 1.60 0.35 0 0.55 0.35 1 0.75 1 0.50 0 0.75 0.55 0.75 1.75 0 1.20 0.25 1.75 0.75 1.75 0.40 0 0.75 0.20 0.75 0.45 0 0.25 0.15 0.80 0.30 1.25 0.20 0.55 -0.10 0.95 -0.85 1.25 -0.65 0.25 -0.90 0.50 -0.55 0.50 0.30 0.05 0.60 0.40 0.60 0.80 0 0.45 0.45 0.75 1.25 0.75 0.90 0 1.25 0.25 1.25 1 0 0.55 0.25 1 0.50 1 0.30 0 0.50 -0.35 0.50 -0.80 0 -0.65 0.30 -0.55 1.65 0.35 2.85 1.95 3.65 3.45 1.80 3.45 -0.55 0 -0.90 0.20 -0.70 0.50 0.15 0.25 0.65 0.30 1.10 0.15 0.70 -0.25 0.75 0.20 0.45 4.15 -0.20 2.45 -0.45 4.80 -0.60 5.25 -0.45 1.55 -3.70 2.55 -9.20 2.75 -4.60 0.20 -5.50 0.10 -7.10 -0.80z m12 -1.70 c1.60 -0.30 2.10 -0.60 2.10 -1.35 0 -0.50 -0.35 -0.95 -0.75 -0.95 -0.40 0 -0.75 0.35 -0.75 0.80 0 0.65 -0.50 0.75 -2.60 0.65 -4.05 -0.20 -5.40 0 -5.40 0.70 0 0.65 3.75 0.75 7.40 0.15z m-3.55 -3.30 c3.25 0 3.45 -1 0.35 -1.65 -2.30 -0.50 -4.70 0.25 -4.70 1.45 0 0.55 0.25 0.70 0.80 0.50 0.45 -0.15 2 -0.30 3.55 -0.30z m-0.55 -3.85 c1.50 0.15 3.55 0.75 4.50 1.30 2.15 1.30 2.35 1.30 1.75 0.10 -0.30 -0.50 -1.20 -1.20 -2 -1.55 -0.85 -0.35 -1.40 -0.80 -1.25 -1.05 0.15 -0.25 -0.35 -0.20 -1.10 0.10 -0.80 0.25 -2.25 0.35 -3.25 0.20 -2.45 -0.40 -5.90 1.25 -5.95 2.90 0 0.20 1.05 -0.20 2.30 -0.95 1.95 -1.15 2.65 -1.30 5 -1.05z m-4.10 -2.90 c1.25 -1.25 2.80 -1.65 2.80 -0.75 0 0.30 0.35 0.50 0.75 0.50 0.90 0 0.95 -0.45 0.25 -2.20 -0.25 -0.70 -0.80 -1.30 -1.15 -1.30 -0.75 0 -2.95 2.25 -3.80 3.90 -0.75 1.45 -0.40 1.40 1.15 -0.15z m10.50 -1 c-0.20 -0.40 -0.60 -0.75 -1 -0.75 -0.40 0 -0.70 0.35 -0.70 0.75 0 0.40 0.45 0.75 1 0.75 0.65 0 0.90 -0.25 0.70 -0.75z m-3.70 -0.40 c0 -0.35 -0.30 -1.10 -0.70 -1.65 -0.55 -0.70 -0.90 -0.80 -1.30 -0.35 -0.45 0.40 -0.35 0.80 0.45 1.60 1.20 1.20 1.55 1.30 1.55 0.40z"/>
  <path d="M25.60 23.90 c0.05 -4.45 0.10 -4.90 0.95 -4.90 0.75 0 0.95 0.40 0.95 1.95 0 1.10 -0.20 2.05 -0.50 2.15 -0.25 0.10 -0.70 1.40 -0.95 2.90 -0.40 2.60 -0.45 2.45 -0.45 -2.10z"/>
  <path d="M5.50 14 c0 -0.25 0.50 -0.50 1.15 -0.50 0.90 0 0.95 0.10 0.35 0.50 -0.95 0.65 -1.50 0.65 -1.50 0z"/>
  <path d="M22.50 14 c-0.60 -0.40 -0.55 -0.50 0.40 -0.50 0.60 0 1.10 0.25 1.10 0.50 0 0.65 -0.55 0.65 -1.50 0z"/>
  <path d="M10.50 12.25 c0 -0.40 0.35 -0.75 0.80 -0.75 0.70 0 0.70 0.15 0.20 0.75 -0.35 0.40 -0.70 0.75 -0.80 0.75 -0.10 0 -0.20 -0.35 -0.20 -0.75z"/>
  <path d="M26.50 11.50 c0.85 -0.85 0.90 -1.20 0.45 -2.05 -0.30 -0.60 -1.20 -1.30 -2 -1.60 -0.80 -0.30 -1.45 -0.85 -1.45 -1.20 0 -0.35 -0.55 -0.65 -1.25 -0.65 -0.90 0 -1.25 -0.25 -1.25 -0.95 0 -1.25 -0.75 -1.50 -3.70 -1.15 -3.15 0.35 -3 -0.75 0.25 -1.95 2.10 -0.80 2.30 -0.80 4.10 0.10 1 0.55 1.85 1.20 1.85 1.45 0 0.30 0.35 0.50 0.75 0.50 1.05 0 0.95 -1 -0.35 -2.35 -1.40 -1.50 -0.80 -1.50 0.80 0.05 0.85 0.75 1.30 1.70 1.30 2.75 0 0.85 0.25 1.55 0.50 1.55 0.30 0 0.50 0.70 0.50 1.50 0 1.15 0.20 1.50 1 1.50 0.80 0 1 0.35 1 1.75 0 1.65 -0.10 1.75 -1.75 1.75 l-1.75 0 1 -1z"/>
  <path d="M25.50 10.25 c0 -0.40 -0.45 -0.75 -1 -0.75 -0.55 0 -1 -0.20 -1 -0.50 0 -0.75 1.35 -0.60 2.20 0.30 0.90 0.90 1.05 1.70 0.30 1.70 -0.25 0 -0.50 -0.35 -0.50 -0.75z"/>
  <path d="M11 2.50 c0 -0.25 0.60 -0.50 1.40 -0.45 1.20 0 1.25 0.05 0.35 0.45 -1.35 0.60 -1.75 0.60 -1.75 0z"/>
  <path d="M15 1.10 c0 -0.50 1.65 -1.10 3.25 -1.10 1.40 0 0.30 0.85 -1.60 1.25 -0.95 0.20 -1.65 0.15 -1.65 -0.15z"/>
 </g>
 <g fill="#747d8a">
  <path d="M4.40 39.65 c-0.55 -0.15 -0.90 -0.70 -0.90 -1.40 l0 -1.15 2.50 0.80 c2.85 0.90 3.40 2.15 0.90 2.05 -0.90 -0.05 -2.05 -0.15 -2.50 -0.30z"/>
  <path d="M24.65 39.65 c-0.70 -0.25 -0.85 -1.55 -0.35 -2.85 0.35 -0.95 1.20 -1.05 1.20 -0.20 0 0.30 0.35 0.95 0.80 1.45 1.25 1.35 0.20 2.40 -1.65 1.60z"/>
  <path d="M25 32.85 c0 -1 0.40 -2.05 0.95 -2.55 0.50 -0.45 1.30 -1.70 1.80 -2.80 0.50 -1.10 1.10 -2 1.35 -2 1.10 0 -0.10 -15.35 -1.40 -17.35 -0.40 -0.60 -0.70 -1.70 -0.70 -2.40 0 -1 -0.25 -1.25 -1.25 -1.25 -0.90 0 -1.15 -0.20 -0.90 -0.80 0.15 -0.40 -0.20 -1.25 -0.80 -1.90 -0.60 -0.60 -0.90 -1.30 -0.70 -1.45 0.60 -0.60 4.55 -0.40 4.85 0.30 0.25 0.45 0.35 0.45 0.60 0 0.40 -0.90 2.20 -0.80 2.20 0.10 0 0.45 -0.45 1.30 -1 1.90 -1 1.05 -1 1.10 -0.10 1.40 1.20 0.45 2.05 2.75 2.45 6.60 0.20 1.75 0.55 2.85 0.90 2.85 0.35 0 0.90 0.35 1.25 0.75 0.35 0.40 1.15 0.75 1.80 0.75 1.05 0 1.20 -0.25 1.20 -1.75 0 -1.50 0.15 -1.75 1.20 -1.75 1.05 0 1.20 0.25 1.20 2 0.05 2.20 -0.50 2.70 -3.75 3.40 l-1.90 0.40 1.50 0.85 1.50 0.90 -1.60 -0.30 c-3.85 -0.60 -4.65 -0.85 -4.65 -1.40 0 -1.95 -1.20 -9.75 -1.60 -10.50 -0.85 -1.65 -0.95 -0.60 -0.20 3.20 0.40 2.05 0.85 5.20 1.05 7.10 0.35 3.10 1.25 5.25 1.25 2.90 0 -0.80 0.30 -1.05 1.25 -1.05 0.70 0 1.25 0.15 1.25 0.40 0 0.70 -1.40 4.85 -2.20 6.60 l-0.85 1.75 0.30 -3.25 c0.35 -3.80 -0.25 -3.20 -1.25 1.25 -0.65 2.90 -1.05 3.75 -3.20 7.10 -1.35 2.10 -1.80 2.05 -1.80 0z"/>
  <path d="M1.05 30.70 c-0.65 -1.20 -1.10 -2.35 -0.95 -2.50 0.15 -0.15 0.80 0.75 1.45 2 0.60 1.25 1 2.40 0.90 2.50 -0.15 0.15 -0.75 -0.75 -1.40 -2z"/>
  <path d="M3.60 31.90 c-0.35 -0.35 -0.60 -0.80 -0.60 -1 0 -0.50 -2 -3.45 -2.75 -4.05 -0.30 -0.25 -0.10 -0.35 0.45 -0.25 0.50 0.10 1.20 0.60 1.50 1.15 0.30 0.55 0.70 1.15 0.95 1.30 0.35 0.25 1.45 3.45 1.15 3.45 -0.05 0 -0.35 -0.25 -0.70 -0.60z"/>
  <path d="M0 7.25 c0 -2.95 0.10 -3.25 1.05 -3.25 0.55 0 1.35 0.30 1.75 0.70 0.60 0.65 0.55 0.90 -0.60 2.05 -0.95 0.95 -1.20 1.60 -1 2.55 0.25 0.85 0.10 1.20 -0.45 1.20 -0.60 0 -0.75 -0.70 -0.75 -3.25z"/>
  <path d="M5.50 6.80 c0 -0.40 3.15 -1.80 4 -1.80 0.35 0 0.25 0.35 -0.20 0.75 -0.80 0.80 -3.80 1.60 -3.80 1.05z"/>
  <path d="M4 5.05 c0 -0.35 -0.55 -1.15 -1.25 -1.85 -0.70 -0.70 -1.25 -1.70 -1.25 -2.20 0 -0.95 0.40 -1 6.25 -1 5.85 0 6.25 0.05 6.25 0.95 0 0.70 -0.80 1.35 -2.80 2.25 -1.55 0.70 -3 1.20 -3.20 1.05 -0.25 -0.15 -0.50 -0.05 -0.60 0.25 -0.25 0.75 -3.40 1.25 -3.40 0.55z m1.75 -3 c-0.35 -0.60 -2.25 -1.70 -2.25 -1.35 0 0.15 0.50 0.70 1.10 1.30 1.10 1 1.80 1.05 1.15 0.05z m5.65 -0.80 c0.60 -0.60 -1.80 -0.20 -2.70 0.50 -0.85 0.65 -0.80 0.70 0.75 0.25 0.90 -0.25 1.80 -0.60 1.95 -0.75z"/>
 </g>
 <g fill="#a37c60">
  <path d="M7 39.25 c0 -0.80 1 -0.95 2.90 -0.45 1.80 0.50 1.25 1.20 -0.90 1.20 -1.45 0 -2 -0.20 -2 -0.75z"/>
  <path d="M21.50 38.65 c0 -3.40 0.60 -5.15 1.80 -5.45 0.65 -0.15 1.50 -0.90 1.85 -1.65 0.40 -0.90 1.05 -1.35 2.10 -1.45 1.40 -0.10 1.45 -0.05 0.55 0.60 -0.50 0.45 -0.75 1 -0.50 1.35 0.20 0.35 0.15 0.50 -0.15 0.30 -0.70 -0.45 -1.85 3.50 -1.70 5.80 l0.15 1.85 -2.05 0 c-1.90 0 -2.05 -0.10 -2.05 -1.35z m3 -2.65 c0 -0.65 -0.05 -0.65 -0.50 0 -0.25 0.40 -0.50 1.10 -0.50 1.50 0 0.65 0.05 0.65 0.50 0 0.25 -0.40 0.50 -1.10 0.50 -1.50z"/>
  <path d="M2 38.70 c0 -0.85 1.80 -1.60 2.60 -1.15 1.45 0.80 1.05 1.45 -0.85 1.45 -0.95 0 -1.75 -0.15 -1.75 -0.30z"/>
  <path d="M0.85 27.50 c-0.95 -1.10 -1.15 -2.50 -0.35 -2.50 0.55 0 1.60 2.40 1.40 3.10 -0.10 0.25 -0.55 -0.05 -1.05 -0.60z"/>
  <path d="M28.25 26.65 c0.40 -1.65 0.95 -2.35 1.70 -2.10 0.30 0.15 0.20 0.80 -0.30 1.85 -0.95 1.95 -1.90 2.15 -1.40 0.25z"/>
  <path d="M19 24.75 c-0.20 -0.80 -0.60 -0.95 -2.40 -0.85 -1.85 0.15 -2.10 0.05 -2.10 -0.85 0 -0.90 0.30 -1.05 1.90 -1.05 2.50 0 3.20 0.55 3 2.30 -0.15 1.15 -0.25 1.25 -0.40 0.45z"/>
  <path d="M29 23.05 c0 -1.50 0.55 -2.55 1.30 -2.55 0.75 0 0.85 0.60 0.40 2.40 -0.40 1.35 -1.70 1.50 -1.70 0.15z"/>
  <path d="M31.90 22.50 c0.10 -0.80 0.30 -1.50 0.40 -1.50 0.10 0 0.20 0.70 0.20 1.50 0 0.85 -0.20 1.50 -0.40 1.50 -0.25 0 -0.35 -0.65 -0.20 -1.50z"/>
  <path d="M16 17.95 c0 -1.45 0.10 -1.50 0.90 -0.90 0.45 0.40 1 0.90 1.20 1.20 0.65 0.90 1.10 -0.30 0.50 -1.25 -0.50 -0.85 -0.50 -1 0.15 -1 0.50 0 0.75 0.50 0.75 1.75 0 1.65 -0.10 1.75 -1.75 1.75 -1.65 0 -1.75 -0.10 -1.75 -1.55z"/>
  <path d="M28.10 14.85 c-0.75 -5.30 -0.75 -5.85 0.10 -5.85 0.75 0 1.35 2.35 2.05 7.65 0.25 2.05 0.20 2.35 -0.60 2.35 -0.80 0 -1.05 -0.65 -1.55 -4.15z"/>
  <path d="M31.30 16.40 c-0.80 -3.85 -0.90 -4.90 -0.45 -4.90 0.30 0 0.65 1.40 0.85 3.10 0.35 3.35 0.10 4.40 -0.40 1.80z"/>
  <path d="M7.65 15.25 c1.70 -1.50 3.35 -1.65 3.35 -0.30 0 1.10 -0.95 1.55 -3.15 1.55 l-1.60 -0.05 1.40 -1.20z"/>
  <path d="M6.50 13.55 c0 -0.65 1.30 -1.05 3.15 -1.05 1.15 0.05 1.40 0.15 0.85 0.45 -1.20 0.65 -4 1.05 -4 0.60z"/>
  <path d="M8.95 11.25 c2.05 -0.90 2.05 -0.90 2.05 0 0 0.55 -0.55 0.75 -1.85 0.75 l-1.90 -0.05 1.70 -0.70z"/>
  <path d="M7.50 9.75 c0 -1.10 0.20 -1.25 1.75 -1.25 2.15 0 2.20 0.50 0.30 1.65 -1.90 1.10 -2.05 1.10 -2.05 -0.40z"/>
  <path d="M26.50 7.50 c0 -0.25 -0.45 -0.50 -1 -0.50 -0.55 0 -1 -0.20 -1 -0.50 0 -0.25 -0.85 -0.50 -1.85 -0.50 -3.25 0 -4.15 -0.45 -4.15 -2.05 l0 -1.40 -2.25 0.75 c-1.25 0.45 -2.50 0.70 -2.85 0.60 -0.35 -0.15 0.90 -0.75 2.80 -1.40 3.25 -1.05 3.50 -1.10 5.10 -0.35 1.05 0.50 1.60 1.10 1.40 1.50 -0.35 0.90 1.75 0.80 2.30 -0.15 0.45 -0.70 3 -0.30 3 0.50 0 0.30 0.25 0.50 0.50 0.50 0.30 0 0.50 -0.65 0.50 -1.40 0 -1.85 1.40 -3.10 3.40 -3.10 1.50 0 1.60 0.15 1.60 1.65 0 1.90 -1.25 3.35 -2.90 3.35 -0.80 0 -1.10 0.30 -1.10 1.10 0 1.05 0 1.05 -0.80 0.10 -0.75 -0.90 -0.75 -0.90 -0.55 0.45 0.20 1.15 0.05 1.35 -0.95 1.35 -0.65 0 -1.20 -0.20 -1.20 -0.50z"/>
  <path d="M8.50 5.30 c3.20 -1.20 4 -1.35 4 -0.90 0 0.70 -2.40 1.60 -4.15 1.55 l-1.60 0 1.75 -0.65z"/>
  <path d="M8.35 3.75 c0.25 -0.40 1.50 -1.40 2.80 -2.25 1.95 -1.20 2.95 -1.50 5.20 -1.50 3.35 0 3.05 0.45 -1.10 1.70 -1.65 0.50 -3.85 1.35 -4.85 1.85 -2.25 1.15 -2.60 1.20 -2.05 0.20z"/>
  <path d="M24.25 2 c-0.20 -0.30 0.25 -0.50 0.95 -0.50 0.70 0 1.30 0.25 1.30 0.50 0 0.30 -0.45 0.50 -0.95 0.50 -0.55 0 -1.15 -0.20 -1.30 -0.50z"/>
 </g>
 <g fill="#c88c3b">
  <path d="M4 32.25 c-0.80 -1 -1.75 -2.50 -2.45 -4.10 -0.25 -0.55 -0.75 -1.20 -1 -1.40 -0.35 -0.20 -0.55 -2.45 -0.55 -5.75 0 -4.50 0.15 -5.45 0.80 -5.70 0.45 -0.20 0.70 -0.65 0.50 -1.05 -0.35 -0.95 0.15 -2.35 0.75 -1.95 0.25 0.15 0.45 0.70 0.45 1.20 0 0.50 0.45 1.25 1.05 1.70 1 0.70 1.05 0.95 0.70 6.15 l-0.40 5.40 -0.70 -2.10 c-0.85 -2.45 -1.40 -2.70 -1.85 -0.90 -0.35 1.35 0 2.20 2.35 5.70 1.50 2.25 1.80 4.55 0.35 2.80z"/>
  <path d="M24.85 32.15 c0.20 -0.50 0.95 -1.75 1.70 -2.80 1.50 -2.10 2.20 -3.95 2.65 -7.20 0.20 -1.30 0.10 -2.15 -0.20 -2.15 -0.25 0 -0.50 0.75 -0.50 1.65 0 0.90 -0.60 2.90 -1.35 4.40 l-1.40 2.70 -0.15 -1.85 c-0.10 -1 0.20 -2.90 0.60 -4.15 0.90 -2.60 1 -3.60 0.35 -3.85 -0.25 -0.05 -0.60 -0.75 -0.80 -1.45 -0.25 -1.05 -0.10 -1.35 0.95 -1.85 0.70 -0.30 1.30 -0.85 1.30 -1.15 0 -0.40 -0.20 -0.40 -0.75 0.05 -1.50 1.25 -7.25 -1.25 -7.25 -3.10 0 -1.10 0.65 -1.10 3.70 -0.10 2.15 0.75 2.45 0.75 3.15 0.05 0.60 -0.55 0.60 -0.95 0.20 -1.75 -0.30 -0.55 -0.55 -1.85 -0.55 -2.80 0 -1.70 0.10 -1.80 1.75 -1.80 1.50 0 1.75 0.15 1.75 1.15 -0.05 1 -0.10 1 -0.55 0.20 -0.75 -1.25 -1.60 -0.55 -0.90 0.75 0.40 0.75 0.40 1.10 -0.05 1.40 -0.60 0.40 -0.25 2.50 0.50 3 0.20 0.15 0.55 1.20 0.70 2.30 0.35 1.95 0.30 2.10 -0.90 2.40 -1.85 0.45 -1.70 1.80 0.20 1.80 1.30 0 1.50 0.20 1.60 1.40 0.20 2.95 -0.20 5.40 -1.15 7 -0.50 0.90 -0.95 2.20 -0.95 2.85 0 0.70 -0.45 1.45 -1 1.75 -0.55 0.30 -1 0.85 -1 1.25 0 0.40 -0.45 0.75 -1 0.75 -0.70 0 -0.90 -0.25 -0.65 -0.85z"/>
  <path d="M5.15 25.75 c0 -1.10 0.10 -1.50 0.20 -0.85 0.10 0.60 0.10 1.50 0 2 -0.15 0.45 -0.25 -0.05 -0.20 -1.15z"/>
  <path d="M24 17.95 c0 -0.55 0.25 -0.85 0.50 -0.70 0.30 0.15 0.50 0.65 0.50 1.05 0 0.40 -0.20 0.70 -0.50 0.70 -0.25 0 -0.50 -0.45 -0.50 -1.05z"/>
  <path d="M7 15.80 c0 -0.45 4 -2.25 4.95 -2.30 1.20 0 -0.35 1.35 -1.85 1.60 -0.75 0.15 -1.75 0.45 -2.20 0.65 -0.50 0.20 -0.90 0.20 -0.90 0.05z"/>
  <path d="M21.15 15.65 c-0.35 -0.10 -0.65 -0.55 -0.65 -0.95 0 -0.40 -0.45 -0.70 -1 -0.70 -0.55 0 -1 -0.35 -1 -0.75 0 -1.05 0.10 -1 2.50 1 1.85 1.55 1.90 2.15 0.15 1.40z"/>
  <path d="M4.15 12.75 c-0.90 -0.95 -1.65 -2.05 -1.65 -2.45 0 -1.25 3.45 -4.20 5.80 -5 1.80 -0.60 2.20 -0.60 2.20 -0.05 0 0.35 0.15 1 0.30 1.45 0.25 0.60 0 0.80 -0.90 0.80 -1.80 0 -4.55 1 -5.25 1.90 -1.10 1.35 -0.70 1.85 0.50 0.70 1.45 -1.35 3.50 -2.10 4.80 -1.75 1.60 0.40 1.30 0.90 -1.30 2.05 -1.90 0.85 -2.15 1.05 -1.15 1.10 0.70 0 2 -0.45 2.90 -1 2.25 -1.35 2.65 -1.25 1.80 0.50 -0.90 1.70 -1.25 2 -3.40 2.50 -0.85 0.20 -1.90 0.50 -2.30 0.70 -0.45 0.15 -1.35 -0.35 -2.35 -1.45z"/>
  <path d="M22 10.10 c-0.95 -0.45 -1.80 -1.20 -1.90 -1.65 -0.15 -0.70 0.15 -0.75 2 -0.40 1.20 0.20 2.30 0.40 2.50 0.45 0.50 0 1.90 1.50 1.90 2.05 0 0.75 -2.60 0.50 -4.50 -0.45z"/>
  <path d="M14.80 7.75 c-0.30 -1.20 -1.30 -1.80 -1.30 -0.75 0 0.30 -0.45 0.50 -1 0.50 -1 0 -1.25 -0.75 -0.70 -2.20 0.40 -1 3 -1.05 4 -0.10 0.90 0.95 0.95 3.80 0 3.80 -0.40 0 -0.85 -0.55 -1 -1.25z"/>
  <path d="M17.55 6.65 c-0.05 -1.05 0.15 -1.15 2.95 -1.15 1.65 0 3 0.20 3 0.50 0 0.30 0.35 0.50 0.75 0.50 0.40 0 0.75 0.25 0.75 0.50 0 0.30 -0.90 0.50 -1.95 0.50 -1.10 0 -2.15 -0.20 -2.30 -0.50 -0.45 -0.70 -2.60 -0.60 -2.90 0.15 -0.15 0.30 -0.30 0.10 -0.30 -0.50z"/>
  <path d="M1.50 5.30 c0 -1.25 0.10 -1.30 3.05 -1.25 3.20 0.05 3.35 0.55 0.45 1.35 -0.95 0.25 -2.15 0.65 -2.60 0.85 -0.70 0.30 -0.90 0.10 -0.90 -0.95z"/>
  <path d="M31.80 2.40 c0.75 -0.95 0.80 -1 0.10 -0.45 -0.80 0.60 -0.90 0.55 -0.90 -0.65 0 -1.15 0.20 -1.30 1.75 -1.30 1.65 0 1.75 0.10 1.75 1.75 0 1.70 -0.05 1.75 -1.85 1.75 l-1.80 0 0.95 -1.10z"/>
 </g>
 <g fill="#b77b5e">
  <path d="M19.50 39.30 c0 -0.40 0.40 -0.85 0.90 -0.95 0.80 -0.20 0.80 -0.25 0 -0.30 -0.50 0 -0.90 -0.35 -0.90 -0.75 0 -0.70 1.45 -1.30 3.40 -1.30 0.95 0 1.05 0.15 0.60 0.95 -0.60 1.20 -0.65 1.55 -0.05 1.55 0.25 0 0.60 -0.40 0.70 -0.85 0.15 -0.60 0.25 -0.45 0.30 0.40 0.05 1 -0.25 1.40 -1.05 1.65 -2.05 0.55 -3.90 0.35 -3.90 -0.40z"/>
  <path d="M24.50 36 c0 -0.25 -0.55 -0.50 -1.25 -0.50 -1.85 0 -1.65 -1.75 0.25 -2.45 0.85 -0.25 1.50 -0.80 1.55 -1.15 0 -0.35 0.25 -0.10 0.50 0.55 0.55 1.35 0.15 4.05 -0.60 4.05 -0.25 0 -0.45 -0.20 -0.45 -0.50z"/>
  <path d="M19.40 21.20 c-1.95 -1 -1.75 -1.70 0.50 -1.70 1.20 0 1.60 0.15 1.15 0.45 -0.45 0.30 -0.50 0.55 -0.10 0.75 0.60 0.40 0.75 1.30 0.20 1.30 -0.25 -0.05 -1 -0.40 -1.75 -0.80z"/>
  <path d="M21 15.95 l0 -1.50 1.50 1.05 c2.20 1.55 2.25 2 0.30 2 -1.65 0 -1.80 -0.10 -1.80 -1.55z"/>
  <path d="M10 15.30 c0 -1.10 0.80 -1.80 2.05 -1.80 0.25 0 0.15 0.70 -0.30 1.50 -0.95 1.80 -1.75 1.95 -1.75 0.30z"/>
  <path d="M15.90 14.15 c-1.35 -0.20 -1.90 -1.30 -0.95 -1.85 0.20 -0.15 0.30 -0.85 0.15 -1.60 -0.20 -1.10 -0.10 -1.25 0.95 -1.10 1.45 0.20 1.95 1.90 0.60 1.95 -0.50 0 0.10 0.40 1.30 0.85 4.05 1.55 2.90 2.50 -2.05 1.75z"/>
  <path d="M27 8.50 c0 -0.55 -0.35 -1 -0.75 -1 -0.40 0 -0.75 -0.15 -0.75 -0.40 0 -0.50 -4.80 -1.60 -6.90 -1.60 -1.50 0 -1.60 -0.10 -1.60 -1.70 0 -1.60 0.10 -1.70 1.90 -1.90 1.15 -0.15 2.30 0.05 3.05 0.50 1.05 0.75 1.10 0.85 0.30 1.40 -0.75 0.55 -0.65 0.65 0.95 0.55 1.05 -0.10 2.10 -0.45 2.35 -0.85 0.40 -0.55 0.60 -0.60 0.80 -0.10 0.10 0.30 0.80 0.60 1.45 0.60 1.30 0 1.60 0.90 0.60 1.90 -0.45 0.45 -0.45 0.75 0 1.20 0.95 0.95 0.75 2.40 -0.40 2.40 -0.65 0 -1 -0.35 -1 -1z"/>
  <path d="M29.90 7.50 c-0.35 -1.20 -0.15 -1.90 0.40 -1.40 0.15 0.20 0.20 0.85 0.10 1.50 l-0.15 1.15 -0.35 -1.25z"/>
 </g>
 <g fill="#c08157">
  <path d="M2.30 39.15 c-0.20 -0.45 -0.05 -1 0.30 -1.25 1.05 -0.65 1.40 -0.45 1.40 0.85 0 1.40 -1.20 1.70 -1.70 0.40z"/>
  <path d="M12.75 39.50 l-3.50 -0.30 3.75 -0.15 c2.05 -0.10 4.90 -0.30 6.25 -0.55 2.10 -0.30 1.65 -0.40 -2.85 -0.45 -4.80 -0.05 -5.40 -0.15 -5.90 -1.05 -0.55 -1.05 0.15 -1.45 0.80 -0.45 0.60 1.05 5.15 0.15 8.75 -1.70 2.85 -1.45 3.45 -1.60 3.45 -0.95 0 0.50 0.40 0.10 0.80 -0.75 0.45 -0.90 1 -1.65 1.20 -1.65 0.65 0 0.90 1.20 0.45 2.25 -0.60 1.55 -0.50 4.25 0.15 4.25 0.40 0 0.45 0.15 0.10 0.50 -0.50 0.50 -7.10 1.55 -8.95 1.40 -0.55 -0.05 -2.55 -0.20 -4.50 -0.40z m11.45 -2.30 c0.40 -1.60 0.05 -2.20 -0.45 -0.75 -0.15 0.60 -0.55 1.05 -0.80 1.05 -0.30 0 -0.35 0.25 -0.20 0.50 0.55 0.85 1.15 0.55 1.45 -0.80z"/>
  <path d="M11.90 31.15 c-1.05 -0.25 -1.60 -1.80 -1.10 -3.25 0.35 -1.15 0.30 -1.15 -0.75 -0.20 -1.40 1.25 -1.60 0.95 -1.15 -1.75 0.30 -1.95 0.60 -2.30 2.55 -3.30 1.70 -0.85 2.70 -1.05 4.50 -0.80 2.70 0.35 5.55 1.55 5.90 2.50 0.45 1.15 1.25 0.70 0.85 -0.45 -0.20 -0.65 -0.35 -1.50 -0.35 -1.90 0 -0.90 -0.80 -2 -1.50 -2 -0.25 0 -0.10 0.45 0.40 1 1.10 1.20 0.45 1.30 -1.70 0.20 -0.90 -0.45 -2.20 -0.70 -2.95 -0.55 -0.70 0.15 -1.80 0.05 -2.40 -0.15 -0.70 -0.30 -1.55 -0.15 -2.45 0.30 -0.75 0.40 -1.45 0.65 -1.55 0.60 -0.20 -0.25 3.30 -3.90 3.75 -3.90 0.25 0 0.55 0.35 0.75 0.75 0.45 1.25 1.30 0.85 1.30 -0.60 l0 -1.30 1.25 1.15 c1.55 1.45 2.05 1.05 1.20 -0.95 -0.50 -1.15 -1.05 -1.55 -1.95 -1.55 -2.70 0 -2.85 -0.10 -2.30 -1.35 0.70 -1.55 2.15 -1.85 4.35 -0.95 2.15 0.90 3.55 2.30 2.25 2.30 -1.15 0 -0.95 0.60 0.75 1.90 l1.45 1.20 0 -1.15 c0 -1.10 0 -1.10 1.05 -0.15 0.90 0.85 1 1.30 0.70 5.05 -0.15 2.30 -0.60 5 -0.95 6 -0.60 1.85 -0.75 1.95 -4.55 2.85 -3 0.70 -3.95 0.80 -4.25 0.30 -0.25 -0.45 -0.45 -0.45 -0.70 -0.05 -0.35 0.55 -0.90 0.60 -2.40 0.20z m3.90 -5.50 c0.90 -0.15 1.75 0 1.90 0.30 0.65 1.05 1.35 0.55 1.20 -0.80 -0.15 -1.40 -0.20 -1.40 -3.40 -1.25 -3.15 0.20 -4 0.60 -4 2.05 0 0.50 0.40 0.55 1.40 0.30 0.75 -0.15 2.05 -0.45 2.90 -0.60z"/>
  <path d="M8.20 30.50 c-1.70 -0.65 -3.20 -2.95 -3.20 -4.80 0 -0.95 0.25 -1.70 0.50 -1.70 0.30 0 0.50 0.65 0.50 1.45 0 1.05 0.40 1.80 1.45 2.50 0.80 0.55 1.55 1.50 1.70 2.05 0.15 0.55 0.20 1 0.20 0.95 -0.05 0 -0.60 -0.20 -1.15 -0.45z"/>
  <path d="M25.70 21.65 c0.05 -3.10 0.20 -5.65 0.45 -5.65 0.20 0 0.35 0.35 0.35 0.75 0 0.40 0.25 0.75 0.50 0.75 0.30 0 0.50 1.60 0.50 3.75 0 2.90 -0.15 3.75 -0.70 3.75 -0.40 0 -0.85 0.50 -0.95 1.15 -0.10 0.60 -0.20 -1.45 -0.15 -4.50z"/>
  <path d="M3.10 22.40 c-0.35 -0.35 -0.60 -1.25 -0.60 -2 0 -1.05 0.25 -1.40 1 -1.40 0.85 0 0.95 0.25 0.70 1.90 -0.35 2.25 -0.35 2.25 -1.10 1.50z"/>
  <path d="M7.70 19.25 c-0.20 -0.40 -0.50 -0.65 -0.70 -0.50 -0.75 0.45 -1.10 -1.75 -0.40 -2.60 0.70 -0.85 4.20 -2.60 5.25 -2.65 0.45 0 0.40 0.40 -0.15 1.40 -0.35 0.75 -0.70 1.60 -0.70 1.90 0 0.75 -1.95 3.20 -2.55 3.20 -0.25 0 -0.60 -0.35 -0.75 -0.75z"/>
  <path d="M1.50 15.75 c0 -0.95 0.25 -1.75 0.50 -1.75 0.30 0 0.50 0.80 0.50 1.75 0 0.95 -0.20 1.75 -0.50 1.75 -0.25 0 -0.50 -0.80 -0.50 -1.75z"/>
  <path d="M8 13.05 c0 -0.25 0.50 -0.55 1.15 -0.75 1.80 -0.45 2.15 -0.30 1.15 0.45 -1.10 0.85 -2.30 1 -2.30 0.30z"/>
  <path d="M20.70 12.45 c-0.35 -0.60 0.60 -1.45 1.65 -1.45 1.05 0 3.15 1.15 2.85 1.55 -0.40 0.65 -4.10 0.55 -4.50 -0.10z"/>
  <path d="M15.15 10.70 c-0.20 -0.50 -0.10 -0.95 0.25 -1.10 0.35 -0.10 0.60 -1.05 0.60 -2.15 0 -1.90 0.05 -1.95 1.75 -1.95 0.95 0 1.75 0.25 1.75 0.50 0 0.30 -0.35 0.50 -0.75 0.50 -0.80 0 -1.40 1.80 -1.15 3.55 0.10 0.95 -0.10 1.25 -1 1.35 -0.70 0.10 -1.25 -0.15 -1.45 -0.70z"/>
  <path d="M22.55 10.30 l-1.20 -0.65 1.10 -0.65 c1.50 -0.75 3.35 -0.25 3.70 1 0.20 0.80 0 1 -1.05 1 -0.75 -0.05 -1.90 -0.35 -2.55 -0.70z"/>
  <path d="M26.35 8.70 c-0.55 -0.70 -1.45 -1.20 -2.25 -1.25 -0.75 0 -1.05 -0.15 -0.70 -0.30 0.30 -0.10 0.60 -0.65 0.60 -1.20 0 -0.80 -0.35 -0.95 -2.70 -0.95 -1.50 0 -2.85 -0.20 -3.05 -0.50 -0.20 -0.30 -0.75 -0.30 -1.55 0 -1.85 0.70 -4.35 0.65 -4.10 -0.10 0.25 -0.70 5.55 -2.85 7.15 -2.85 0.55 0 1.55 0.40 2.25 0.90 0.75 0.60 0.95 0.95 0.50 0.95 -0.40 -0.05 -1.55 0 -2.50 0.10 -1.45 0.10 -1.20 0.20 1.50 0.70 2.60 0.45 3.35 0.45 3.65 -0.05 0.50 -0.80 1.40 -0.80 3.10 -0.05 1.25 0.55 1.80 2 0.65 1.75 -0.40 -0.05 -0.60 0.35 -0.55 1.05 0.10 0.60 -0.05 1.10 -0.30 1.10 -0.25 0 -0.55 0.45 -0.65 0.95 -0.15 0.90 -0.20 0.85 -1.05 -0.25z"/>
  <path d="M12.50 2 c0 -0.45 2.95 -1.25 3.30 -0.90 0.10 0.15 -0.60 0.45 -1.55 0.75 -0.95 0.30 -1.75 0.35 -1.75 0.15z"/>
 </g>
 <g fill="#d4974b">
  <path d="M24.50 33.75 c0 -1.25 0.95 -2.75 1.75 -2.75 0.65 0 0.65 0.25 0.10 1.60 -0.70 1.75 -1.85 2.45 -1.85 1.15z"/>
  <path d="M3.85 32.10 c-0.50 -0.50 -0.85 -1.05 -0.85 -1.25 0 -0.15 -0.70 -1.30 -1.55 -2.60 -0.85 -1.25 -1.45 -2.60 -1.35 -3.05 0.15 -0.90 4.90 6 4.90 7.15 0 0.85 -0.20 0.85 -1.15 -0.25z"/>
  <path d="M27 29.25 c0 -0.15 0.45 -1.15 0.95 -2.15 1.10 -2.15 1.95 -7.60 1.15 -7.60 -0.25 0 -0.60 1.10 -0.80 2.50 -0.20 1.55 -0.80 3 -1.55 3.85 l-1.20 1.40 -0.05 -1.50 c0 -0.80 0.35 -2.60 0.75 -3.95 0.40 -1.35 0.75 -3.30 0.75 -4.30 0 -1.05 0.35 -2.15 0.75 -2.50 0.40 -0.35 0.75 -0.95 0.75 -1.40 0 -0.65 -0.10 -0.65 -0.90 0.05 -0.50 0.50 -1.10 0.85 -1.25 0.85 -0.65 0 -0.35 -2.05 0.40 -2.80 1.05 -1.10 0.95 -1.60 -0.75 -3.30 -1.50 -1.50 -1.75 -2.20 -1.20 -3.60 0.35 -0.90 2.50 -1.05 3.70 -0.30 1.20 0.75 -0.10 1.75 -1.40 1.05 -1.75 -0.95 -1.95 -0.60 -0.25 0.40 1.70 1.05 1.90 1.55 2.45 5.30 0.15 1.40 0.45 2.95 0.55 3.50 0.60 2.80 0.75 9.35 0.25 9.70 -0.35 0.20 -0.65 1.15 -0.70 2.15 -0.10 1 -0.35 1.70 -0.60 1.50 -0.25 -0.15 -0.35 0.10 -0.15 0.55 0.25 0.60 0.05 0.85 -0.65 0.85 -0.55 0 -1 -0.10 -1 -0.25z"/>
  <path d="M24.15 24 c0 -1.25 0.10 -1.75 0.20 -1.10 0.10 0.60 0.10 1.60 0 2.25 -0.10 0.60 -0.20 0.10 -0.20 -1.15z"/>
  <path d="M2.20 21.35 c-0.85 -1.30 -1 -2.20 -0.80 -5 l0.20 -3.40 1.40 1.95 c1 1.40 1.35 2.40 1.25 3.65 -0.10 0.95 -0.15 2.30 -0.20 3.10 -0.05 1.80 -0.55 1.70 -1.85 -0.30z"/>
  <path d="M9.25 14.50 c1.40 -0.60 2.35 -0.60 2 0 -0.15 0.30 -0.90 0.50 -1.65 0.45 -1.20 0 -1.25 -0.05 -0.35 -0.45z"/>
  <path d="M3.70 12.45 c-0.95 -1.05 -0.90 -3.15 0.20 -4.05 1.55 -1.40 7.85 -4.45 8 -3.90 0.10 0.25 0.85 0.50 1.65 0.50 1.15 0 1.45 0.20 1.45 1.05 0 0.85 -0.15 0.95 -0.70 0.50 -0.50 -0.45 -0.75 -0.40 -1 0.20 -0.30 0.85 -1.80 1.05 -1.80 0.25 0 -0.25 -0.65 -0.50 -1.50 -0.50 -0.80 0 -1.50 0.20 -1.50 0.45 0 0.25 -0.60 0.60 -1.35 0.80 -1.65 0.40 -3.15 1.65 -3.15 2.60 0 0.90 0.80 0.85 1.20 -0.10 0.40 -1.10 2.40 -1.70 4.30 -1.30 l1.65 0.30 -1.30 0.60 c-0.80 0.40 -1.35 0.45 -1.35 0.15 0 -0.30 -0.35 -0.50 -0.75 -0.50 -0.40 0 -0.75 0.30 -0.75 0.70 0 0.40 -0.40 0.85 -0.85 0.95 -0.50 0.15 -0.15 0.25 0.75 0.30 0.90 0 2.50 -0.40 3.55 -0.95 1.90 -0.95 1.95 -0.95 1.70 0 -0.15 0.50 -0.70 1.35 -1.25 1.85 -1.30 1.20 -6.15 1.25 -7.20 0.10z"/>
  <path d="M21.10 12.90 c-0.35 -0.35 -0.60 -1 -0.60 -1.55 0 -0.70 0.25 -0.85 1.15 -0.55 1.45 0.45 1.50 0.45 1.10 1.65 -0.35 1.20 -0.80 1.30 -1.65 0.45z"/>
  <path d="M25.10 10.40 c-0.70 -0.70 -0.80 -1.40 -0.10 -1.40 0.25 0 0.70 0.45 1 1 0.60 1.10 0.05 1.35 -0.90 0.40z"/>
  <path d="M21.50 9.75 l-1.25 -0.70 1.40 -0.05 c0.85 0 1.35 0.25 1.35 0.75 0 0.90 0.05 0.90 -1.50 0z"/>
  <path d="M17 7.10 c0 -0.60 -0.20 -1.10 -0.50 -1.10 -0.25 0 -0.50 -0.80 -0.50 -1.75 0 -1.65 0.10 -1.75 1.70 -1.75 1.80 0 3.10 0.95 1.45 1.05 -0.95 0.05 -0.70 0.20 2.25 1.20 0.70 0.25 1.10 0.75 1.10 1.50 0 1.05 -0.10 1.10 -2.05 0.55 -1.80 -0.45 -2.10 -0.40 -2.75 0.45 -0.70 0.90 -0.70 0.90 -0.70 -0.15z"/>
  <path d="M8.50 3.50 c0 -0.25 0.50 -0.50 1.15 -0.50 0.90 0 0.95 0.10 0.35 0.50 -0.95 0.65 -1.50 0.65 -1.50 0z"/>
 </g>
 <g fill="#8d98a6">
  <path d="M2.50 39.05 c0 -0.55 0.25 -1.15 0.55 -1.30 0.65 -0.45 6.95 1.25 6.95 1.80 0 0.25 -1.70 0.45 -3.75 0.45 -3.40 0 -3.75 -0.10 -3.75 -0.95z"/>
  <path d="M25 38.50 c0 -1.40 0.05 -1.45 0.95 -0.65 1.05 0.85 0.90 2.15 -0.25 2.15 -0.45 0 -0.70 -0.55 -0.70 -1.50z"/>
  <path d="M25.55 32.60 c-0.05 -1.05 0.40 -2.30 1.20 -3.30 0.70 -0.90 1.25 -1.90 1.25 -2.20 0 -0.35 0.30 -0.60 0.65 -0.60 0.35 0 0.65 0.45 0.65 0.95 0 0.55 -0.25 0.85 -0.50 0.70 -0.25 -0.20 -0.35 0.05 -0.15 0.55 0.25 0.55 -0.10 1.25 -0.90 2 -0.65 0.65 -1.45 1.70 -1.70 2.35 -0.45 1.15 -0.50 1.10 -0.50 -0.45z"/>
  <path d="M2.40 29.70 c-0.90 -1.45 -1.15 -2.20 -0.70 -2.20 0.60 0 2.65 3.80 2.25 4.20 -0.10 0.10 -0.80 -0.80 -1.55 -2z"/>
  <path d="M31.15 26 c1.15 -6.25 1.80 -7.85 2.55 -6.55 0.30 0.45 -1.30 5.50 -2.20 6.90 -0.50 0.80 -0.55 0.75 -0.35 -0.35z"/>
  <path d="M29.55 25 c0 -0.70 0.20 -1.70 0.45 -2.25 0.35 -0.85 0.45 -0.80 0.45 0.50 0 0.85 -0.20 1.85 -0.45 2.25 -0.40 0.60 -0.50 0.50 -0.45 -0.50z"/>
  <path d="M32.45 18.15 c-0.95 -0.25 -1.40 -2 -1.75 -6.25 -0.25 -3.65 -1.25 -6.15 -2.50 -6.20 -0.50 -0.05 -1.40 -0.20 -1.95 -0.40 -0.95 -0.35 -0.95 -0.35 -0.05 0.30 1.90 1.30 2.80 2.40 2.75 3.55 -0.05 1.05 -0.05 1 -0.50 -0.20 -0.35 -1 -1.05 -1.50 -2.70 -1.95 -1.70 -0.50 -2.25 -0.90 -2.25 -1.60 0 -0.70 0.25 -0.90 0.70 -0.75 0.45 0.20 0.85 -0.10 1.05 -0.70 0.20 -0.50 0.60 -0.95 0.95 -0.95 0.35 0 1.25 -0.65 2.05 -1.50 2.15 -2.20 2.90 -1.95 2.75 0.90 -0.05 0.20 -0.50 0.30 -1 0.20 -0.65 -0.10 -1 0.10 -1 0.70 0 0.60 0.15 0.70 0.65 0.30 0.30 -0.30 0.85 -0.55 1.10 -0.60 0.30 -0.05 0.95 -0.45 1.50 -0.85 0.95 -0.75 0.95 -0.75 0.05 -0.45 -0.95 0.35 -0.95 0.30 -0.05 -0.70 0.75 -0.80 1.50 -1 4.35 -1 l3.40 0 0 1.80 c0 1.75 -0.05 1.80 -1.50 1.60 -1.05 -0.15 -1.75 0.05 -2.40 0.75 -0.60 0.75 -0.70 1.05 -0.20 1.20 0.70 0.30 0.80 3.45 0.10 3.90 -1 0.60 0.05 1.25 2.05 1.25 1.55 0 1.95 0.20 1.95 0.90 0 0.50 -0.25 1.15 -0.60 1.50 -0.45 0.45 -0.45 0.60 0 0.60 0.90 0 0.70 1.55 -0.25 2.30 -1.30 0.95 -5.10 0.90 -6.25 -0.15 -0.55 -0.45 -0.90 -0.55 -0.90 -0.25 0 0.35 0.15 0.60 0.40 0.60 0.20 0 1.05 0.55 1.85 1.25 l1.50 1.20 -1.25 -0.05 c-0.70 0 -1.60 -0.10 -2.05 -0.25z"/>
  <path d="M29.35 16.35 c-0.20 -0.50 -0.35 -2 -0.30 -3.25 l0.05 -2.35 0.45 2.25 c0.25 1.25 0.40 2.70 0.35 3.25 -0.15 0.95 -0.20 0.95 -0.55 0.10z"/>
  <path d="M0.65 5.75 c-0.95 -1.05 -0.85 -4.25 0.10 -4.25 0.40 0 0.75 -0.35 0.75 -0.75 0 -1.15 1.30 -0.90 2.20 0.45 0.70 1.15 0.70 1.25 -0.10 1.45 -0.45 0.10 0 0.20 1.05 0.15 1.55 0 1.95 -0.25 2.45 -1.40 0.50 -1.05 1 -1.40 2 -1.40 0.80 0 1.40 0.25 1.40 0.50 0 0.30 -0.30 0.50 -0.70 0.50 -0.35 0 -1.25 0.45 -2 1.05 -1.05 0.85 -1.20 1.20 -0.75 1.75 0.45 0.55 0.30 0.80 -0.80 1.20 -0.70 0.25 -1.75 0.50 -2.25 0.50 -0.50 0 -1.10 0.25 -1.25 0.50 -0.45 0.70 -1.40 0.60 -2.10 -0.25z"/>
  <path d="M9.25 5.30 c0.85 -0.40 1.60 -0.60 1.70 -0.50 0.35 0.30 -0.10 0.55 -1.70 0.85 l-1.50 0.30 1.50 -0.65z"/>
  <path d="M8.50 3.55 c0 -0.25 0.90 -1 2 -1.60 1.10 -0.65 2 -1.30 2 -1.55 0 -0.20 1.15 -0.40 2.50 -0.40 1.40 0 2.50 0.15 2.50 0.40 0 0.20 -1.85 1 -4.15 1.85 -2.25 0.80 -4.25 1.55 -4.45 1.65 -0.25 0.10 -0.40 -0.05 -0.40 -0.35z"/>
  <path d="M24.05 1.40 c-0.35 -1 -0.25 -1.15 0.75 -1.30 0.70 -0.10 1.70 -0.10 2.25 0 1.05 0.15 1.05 0.15 0.05 1.30 -0.55 0.60 -1.35 1.10 -1.80 1.10 -0.45 0 -1 -0.50 -1.25 -1.10z"/>
 </g>
 <g fill="#d5a05b">
  <path d="M3 38.70 c0 -0.95 0.20 -1.20 0.90 -1 0.45 0.15 1.80 0.50 3 0.80 3 0.80 2.60 1.50 -0.90 1.50 -2.90 0 -3 -0.05 -3 -1.30z"/>
  <path d="M22.50 35.05 c0 -1.60 1 -2.75 1 -1.20 0.05 0.55 0.45 0.10 1.10 -1.10 0.55 -1.10 1.50 -2.55 2 -3.25 1.20 -1.55 2.40 -4.30 2.40 -5.55 0 -0.55 0.35 -0.95 0.75 -0.95 1.25 0 0.85 1.35 -1.75 6.40 -1.35 2.65 -2.50 5.40 -2.50 6.10 0 0.95 -0.10 1.10 -0.50 0.50 -0.35 -0.60 -0.60 -0.60 -1.10 -0.10 -0.95 0.95 -1.40 0.70 -1.40 -0.85z"/>
  <path d="M4.45 32.65 c-1.30 -1.60 -4.45 -6.60 -4.45 -7.15 0 -0.25 0.25 -0.50 0.50 -0.50 0.30 0 0.50 0.25 0.50 0.55 0 0.25 0.65 1.35 1.50 2.35 1.30 1.65 3.30 5.60 2.85 5.60 -0.10 0 -0.50 -0.40 -0.90 -0.85z"/>
  <path d="M25.85 26.15 c-0.20 -0.35 -0.25 -1.50 -0.05 -2.60 0.25 -1.60 0.55 -2.05 1.35 -2.05 0.85 0 0.95 0.25 0.65 1.60 -0.15 0.90 -0.50 1.70 -0.75 1.90 -0.20 0.15 -0.50 0.60 -0.65 1 -0.15 0.50 -0.30 0.55 -0.55 0.15z"/>
  <path d="M31.05 26.15 c0 -0.20 0.20 -0.85 0.45 -1.40 0.40 -0.95 0.45 -0.95 0.45 0.10 0.05 0.60 -0.15 1.25 -0.45 1.40 -0.25 0.15 -0.50 0.15 -0.45 -0.10z"/>
  <path d="M24.15 24.25 c0 -1.10 0.10 -1.50 0.20 -0.85 0.10 0.60 0.10 1.50 0 2 -0.15 0.45 -0.25 -0.05 -0.20 -1.15z"/>
  <path d="M2.70 21.65 c-0.20 -0.80 -0.50 -1.50 -0.70 -1.65 -0.15 -0.15 -0.20 -1.50 -0.05 -3 l0.30 -2.75 1 1.30 c0.80 1 0.95 1.85 0.85 4.35 -0.20 3.25 -0.85 4.05 -1.40 1.75z"/>
  <path d="M27.50 19.75 c0 -0.75 -0.30 -1.25 -0.70 -1.25 -0.55 0 -1.60 -2.05 -1.15 -2.25 1.65 -0.75 2.85 -2 2.80 -2.90 l0 -1.10 -0.80 1.15 c-1.35 1.95 -6.65 0.85 -6.65 -1.40 0 -1.20 1.90 -1.40 2.30 -0.25 0.20 0.50 0.75 0.60 1.85 0.40 1.85 -0.35 2.45 -1 2.15 -2.25 -0.25 -1 0.10 -1.10 1.15 -0.45 0.70 0.45 2.40 10.85 1.85 11.40 -0.50 0.55 -0.90 -0.20 -1.05 -2.10 -0.25 -2.75 -0.75 -2.75 -0.75 -0.10 0 1.30 -0.20 2.35 -0.50 2.35 -0.25 0 -0.50 -0.55 -0.50 -1.25z"/>
  <path d="M9.25 14.50 c0.55 -0.25 1.35 -0.45 1.75 -0.45 0.45 0 0.40 0.20 -0.25 0.45 -0.55 0.25 -1.35 0.45 -1.75 0.45 -0.45 0 -0.40 -0.20 0.25 -0.45z"/>
  <path d="M19.75 14.45 c-0.60 -0.95 0.25 -1.15 1.10 -0.30 0.80 0.80 0.80 0.85 0.05 0.85 -0.45 0 -1 -0.25 -1.15 -0.55z"/>
  <path d="M3.70 12.25 c-1.80 -2.80 1 -5.40 8.95 -8.30 3.80 -1.40 6.35 -1.80 7.05 -1.10 0.15 0.20 -0.30 0.60 -1 0.90 -1.25 0.50 -1.10 0.55 1.35 0.55 1.50 0 3.30 0.15 4.05 0.35 1.05 0.25 1.35 0.15 1.55 -0.50 0.10 -0.50 0.20 -0.10 0.20 0.95 0.05 1.65 -0.10 1.85 -1.65 2.15 -0.95 0.15 -2.15 0.05 -2.75 -0.25 -0.55 -0.35 -2.05 -0.70 -3.25 -0.80 -1.95 -0.25 -2.20 -0.15 -2.20 0.75 0 1.35 -0.35 1.30 -1.50 -0.05 -0.85 -1.05 -0.95 -1.05 -1.25 -0.25 -0.45 1.05 -1.75 1.15 -1.75 0.10 0 -0.40 -0.20 -0.75 -0.50 -0.75 -0.25 0 -0.50 0.35 -0.50 0.75 0 0.55 -0.55 0.75 -2 0.75 -1.45 0 -2.40 0.35 -3.55 1.40 -0.95 0.85 -1.45 1.70 -1.25 2 0.60 0.95 4.85 0.70 6.95 -0.40 l1.90 -1 -0.75 1.45 c-1.40 2.65 -6.65 3.50 -8.10 1.30z"/>
  <path d="M5.10 10.40 c0.50 -1.50 5.90 -2.70 5.90 -1.35 0 0.30 -0.30 0.45 -0.65 0.30 -0.35 -0.15 -0.95 0.20 -1.25 0.70 -0.70 1.10 -4.35 1.40 -4 0.35z"/>
  <path d="M24.50 10 c0 -0.55 0.20 -1 0.50 -1 0.25 0 0.70 0.45 1 1 0.45 0.85 0.40 1 -0.50 1 -0.65 0 -1 -0.35 -1 -1z"/>
  <path d="M20.70 9.30 c-1.30 -1 -0.60 -1.50 1.55 -1.10 1.05 0.20 1.75 0.65 1.75 1.05 0 0.95 -2 0.95 -3.30 0.05z"/>
  <path d="M32.55 4.85 c1.20 -1.20 2.30 -2.10 2.40 -2.05 0.50 0.40 -2.85 4.20 -3.65 4.20 -0.75 0 -0.50 -0.45 1.25 -2.15z"/>
  <path d="M0.55 5.45 c-0.80 -1.35 -0.10 -1.95 2.35 -1.95 1.10 0 1.60 0.25 1.60 0.80 0 0.55 -0.30 0.70 -1.10 0.50 -0.65 -0.15 -0.85 -0.15 -0.50 0 0.50 0.25 0.50 0.45 0.05 1 -0.80 1 -1.60 0.85 -2.40 -0.35z"/>
  <path d="M27.50 4.50 c0 -1.75 3.55 -4.50 5.85 -4.50 2.20 0 2.10 0.75 -0.60 3.60 -1.80 1.90 -2.55 2.35 -3.75 2.25 -1.25 -0.10 -1.50 -0.30 -1.50 -1.35z"/>
 </g>
 <g fill="#d2956f">
  <path d="M15.25 39.55 c-1.20 -0.30 -0.70 -0.45 2.50 -0.80 2.20 -0.30 4.50 -0.45 5.05 -0.40 0.70 0.05 1.30 -0.40 1.70 -1.15 0.90 -1.65 0.15 -2.20 -0.95 -0.75 -0.75 1 -1.45 1.20 -4.45 1.45 -4.40 0.30 -4.65 -0.35 -0.70 -1.85 1.55 -0.60 3.35 -1.60 4 -2.15 0.90 -0.90 1.10 -0.95 1.10 -0.25 0 0.45 0.25 0.95 0.60 1.15 0.30 0.20 0.40 0.15 0.25 -0.10 -0.15 -0.30 -0.10 -0.80 0.15 -1.20 0.45 -0.75 0.70 -0.05 1.20 3.80 l0.30 2.05 -3.40 0.30 c-3.85 0.40 -5.25 0.35 -7.35 -0.10z"/>
  <path d="M14.25 30.05 c-2.50 -0.40 -3.05 -2 -1.05 -3.35 1.25 -0.80 1.95 -0.80 5.45 0.10 1 0.25 1.35 0.15 1.35 -0.40 0 -1.05 -1.45 -2.90 -2.30 -2.90 -0.40 0 -0.70 -0.35 -0.70 -0.75 0 -0.40 0.30 -0.75 0.65 -0.75 1.25 0 3.85 2 4.15 3.25 l0.30 1.30 0.95 -1.55 c0.55 -0.85 0.95 -1.80 0.95 -2.15 0 -0.30 -1.25 -1.85 -2.80 -3.35 -1.50 -1.50 -2.85 -3.20 -3 -3.80 -0.20 -0.80 -0.55 -0.95 -1.75 -0.80 -1.65 0.25 -2.45 -0.95 -1.45 -2.15 0.90 -1.10 2.40 -0.90 2.75 0.30 0.25 0.80 0.45 0.90 0.75 0.45 0.60 -0.95 2.65 0.50 4.35 3.10 1.90 2.85 2.20 7.75 0.70 11.15 -1 2.20 -1.15 2.35 -2.55 2.10 -0.80 -0.20 -1.60 -0.10 -1.75 0.15 -0.35 0.55 -1.80 0.55 -5 0.05z"/>
  <path d="M9.85 26.20 c-0.55 -0.55 -0.40 -2.20 0.15 -2.20 0.75 0 1.20 1.50 0.65 2.05 -0.25 0.25 -0.60 0.30 -0.80 0.15z"/>
  <path d="M12.70 23.20 c0.15 -0.45 0.30 -0.90 0.30 -1 0 -0.10 0.70 -0.20 1.50 -0.20 1.80 0 2.05 1.25 0.40 1.70 -1.90 0.50 -2.55 0.35 -2.20 -0.50z"/>
  <path d="M20 21.25 c-0.70 -0.40 -2.20 -0.70 -3.35 -0.75 -2.70 0 -3.65 -0.40 -3.65 -1.45 0 -1.40 0.50 -1.55 1.55 -0.50 1.25 1.25 2.15 0.75 1.70 -0.90 -0.25 -1.15 0 -1.05 2.50 1.10 1.50 1.30 2.75 2.55 2.75 2.80 0 0.55 0 0.55 -1.50 -0.30z"/>
  <path d="M7 16.85 c0 -0.95 1.50 -2.20 3.15 -2.60 1.35 -0.35 1.35 -0.30 0.80 0.90 -0.80 1.80 -3.95 3.15 -3.95 1.70z"/>
  <path d="M15.30 11.10 c-0.75 -0.70 -0.20 -1.60 0.95 -1.60 1.50 0 1.70 1.25 0.30 1.65 -0.55 0.15 -1.10 0.10 -1.25 -0.05z"/>
  <path d="M22.50 5.60 c0 -0.55 0.40 -0.90 1 -0.95 0.55 -0.05 0.90 0.10 0.75 0.35 -0.15 0.30 0.05 0.35 0.45 0.20 0.40 -0.15 0.85 -0.75 0.95 -1.35 0.10 -0.60 0.20 -0.25 0.20 0.80 0 1.75 -0.10 1.85 -1.70 1.85 -1.25 0 -1.65 -0.20 -1.65 -0.90z"/>
  <path d="M11.50 5.10 c0 -0.45 9.40 -1.15 9.95 -0.75 0.10 0.10 0.05 0.30 -0.15 0.55 -0.60 0.55 -9.80 0.75 -9.80 0.20z"/>
  <path d="M15.25 3 c2.95 -1.20 3.45 -1.20 4.20 -0.30 0.75 0.85 -0.65 1.30 -4.20 1.25 l-2.50 0 2.50 -0.95z"/>
  <path d="M11.50 2.60 c0 -0.60 5.30 -2.25 6.05 -1.95 0.40 0.15 0.25 0.30 -0.40 0.30 -0.60 0.05 -2.10 0.50 -3.35 1.05 -1.25 0.50 -2.30 0.80 -2.30 0.60z"/>
 </g>
 <g fill="#d39d6d">
  <path d="M2.35 39.30 c-0.55 -1.35 0.85 -1.85 3.20 -1.10 1.20 0.40 1.80 0.70 1.35 0.75 -0.50 0.05 -0.90 0.30 -0.90 0.55 0 0.80 -3.35 0.60 -3.65 -0.20z m3.40 -0.30 c0.15 -0.25 -0.15 -0.50 -0.75 -0.50 -0.60 0 -0.90 0.25 -0.75 0.50 0.15 0.30 0.50 0.50 0.75 0.50 0.25 0 0.60 -0.20 0.75 -0.50z"/>
  <path d="M8.50 39.50 c0 -0.25 0.80 -0.50 1.75 -0.50 0.95 0 1.75 0.25 1.75 0.50 0 0.30 -0.80 0.50 -1.75 0.50 -0.95 0 -1.75 -0.20 -1.75 -0.50z"/>
  <path d="M17 39.50 c0 -0.25 0.30 -0.50 0.65 -0.55 0.30 0 1.10 -0.10 1.75 -0.15 0.65 -0.10 1.10 0.15 1.10 0.55 0 0.40 -0.65 0.65 -1.75 0.65 -0.95 0 -1.75 -0.20 -1.75 -0.50z"/>
  <path d="M22.50 39 c0 -0.65 0.25 -0.85 0.70 -0.70 0.40 0.15 0.95 -0.15 1.25 -0.75 0.75 -1.35 0.70 -2.05 -0.20 -2.05 -0.40 0 -0.75 -0.25 -0.75 -0.55 0 -0.25 0.25 -0.35 0.60 -0.15 0.30 0.20 0.40 0.15 0.25 -0.10 -0.30 -0.50 0.45 -2.10 0.80 -1.70 0.10 0.15 0.35 1.75 0.50 3.65 l0.30 3.35 -1.70 0 c-1.40 0 -1.75 -0.20 -1.75 -1z"/>
  <path d="M26.50 30.25 c0 -0.60 1.70 -3.25 2.10 -3.25 0.60 0 -0.80 3.15 -1.50 3.40 -0.35 0.10 -0.60 0.05 -0.60 -0.15z"/>
  <path d="M21.50 29 c-0.65 -0.45 -0.65 -0.55 0 -1 1.10 -0.70 1.70 -0.60 1.05 0.20 -0.45 0.55 -0.45 0.75 0.05 0.95 0.35 0.15 0.45 0.30 0.15 0.30 -0.25 0 -0.85 -0.20 -1.25 -0.45z"/>
  <path d="M1 27.50 c-0.35 -0.65 -0.35 -1 -0.05 -1 0.30 0 0.75 0.45 1.05 1 0.35 0.65 0.35 1 0.05 1 -0.30 0 -0.75 -0.45 -1.05 -1z"/>
  <path d="M13.55 18.40 c0 -0.80 0.10 -0.90 0.30 -0.40 0.15 0.40 0.55 0.90 0.85 1.10 0.35 0.25 0.20 0.40 -0.30 0.40 -0.60 0 -0.90 -0.35 -0.85 -1.10z"/>
  <path d="M28.30 14.15 c0.20 -1.80 0.15 -2.20 -0.25 -1.65 -0.40 0.60 -0.55 0.35 -0.55 -1.10 0 -1.35 0.20 -1.90 0.75 -1.90 0.40 0 0.75 0.30 0.80 0.65 0 0.30 0.10 1.05 0.25 1.60 0.10 0.55 0.30 1.85 0.40 2.90 0.15 1.55 0 1.85 -0.75 1.85 -0.80 0 -0.90 -0.30 -0.65 -2.35z"/>
  <path d="M6.50 12.10 c0 -0.25 0.30 -0.45 0.65 -0.45 0.30 0 1.10 -0.15 1.75 -0.35 0.80 -0.30 1.10 -0.15 1.10 0.40 0 0.60 -0.50 0.80 -1.75 0.80 -0.95 0 -1.75 -0.20 -1.75 -0.40z"/>
  <path d="M5 10.70 c0 -0.80 1.55 -1.60 3.65 -1.90 2.70 -0.40 3 0.05 0.80 1.35 -1.45 0.80 -4.45 1.20 -4.45 0.55z"/>
  <path d="M20.85 9.45 c-1.05 -0.60 -0.70 -1.45 0.55 -1.20 0.45 0.10 1.15 0.20 1.50 0.20 0.30 0.05 0.60 0.40 0.60 0.80 0 0.85 -1.35 0.95 -2.65 0.20z"/>
  <path d="M21.80 7.10 c-0.75 -0.15 -0.80 -0.30 -0.25 -0.65 0.50 -0.30 0.10 -0.45 -1.15 -0.45 -1.30 0 -1.90 -0.25 -1.90 -0.70 0 -0.95 2.15 -1.40 3.65 -0.85 0.70 0.30 1.40 0.35 1.55 0.20 0.15 -0.20 0.30 -0.05 0.30 0.25 0 0.30 0.30 0.45 0.65 0.35 0.60 -0.20 2.70 1.05 2.30 1.45 -0.35 0.30 -4.15 0.60 -5.15 0.40z"/>
  <path d="M31.10 7.15 c-0.30 -0.10 -0.50 -0.45 -0.30 -0.70 0.15 -0.25 -0.15 -0.45 -0.65 -0.45 -1.65 0 -2.20 -0.70 -1.85 -2.40 0.30 -1.35 0.55 -1.60 1.75 -1.60 1.10 0 1.45 -0.25 1.45 -1 0 -0.80 0.35 -1 1.75 -1 1.80 0 2.30 0.75 1.15 1.90 -0.85 0.85 -1.40 0.75 -1.05 -0.20 0.45 -1.15 -1.20 -0.20 -3.05 1.80 -1.60 1.70 -1.55 1.95 0.35 2.10 0.90 0.10 1.35 0.40 1.35 1 0 0.50 -0.05 0.90 -0.10 0.85 -0.10 0 -0.45 -0.15 -0.80 -0.30z"/>
  <path d="M25.50 4.25 c0 -0.40 0.35 -0.75 0.75 -0.75 0.40 0 0.75 0.35 0.75 0.75 0 0.40 -0.35 0.75 -0.75 0.75 -0.40 0 -0.75 -0.35 -0.75 -0.75z"/>
 </g>
 <g fill="#b1a79a">
  <path d="M2.50 39.05 c0 -0.55 0.15 -1.10 0.40 -1.25 0.55 -0.30 7.10 1.30 7.10 1.80 0 0.55 -2.40 0.50 -2.60 -0.10 -0.30 -0.95 -3.20 -1.15 -4.05 -0.25 -0.80 0.75 -0.85 0.75 -0.85 -0.20z"/>
  <path d="M10.50 39.50 c0 -0.25 0.80 -0.50 1.75 -0.50 0.95 0 1.75 0.25 1.75 0.50 0 0.30 -0.80 0.50 -1.75 0.50 -0.95 0 -1.75 -0.20 -1.75 -0.50z"/>
  <path d="M18.50 39.60 c0 -0.65 3.65 -1.60 4.90 -1.30 0.60 0.20 1.10 0.65 1.10 1 0 0.50 -0.80 0.70 -3 0.70 -1.65 0 -3 -0.20 -3 -0.40z"/>
  <path d="M25.50 31.75 c0 -0.90 2 -3.75 2.55 -3.75 0.25 0 0.15 0.70 -0.10 1.50 -0.30 0.85 -0.75 1.50 -1 1.50 -0.25 0 -0.45 0.35 -0.45 0.75 0 0.40 -0.20 0.75 -0.50 0.75 -0.25 0 -0.50 -0.35 -0.50 -0.75z"/>
  <path d="M31.30 25.75 c0.30 -1.55 0.55 -2.05 0.90 -1.70 0.10 0.10 -0.10 0.90 -0.50 1.70 l-0.70 1.50 0.30 -1.50z"/>
  <path d="M26 6.75 c0 -0.95 0.55 -0.95 1.80 0 0.90 0.70 0.90 0.70 -0.40 0.75 -0.90 0 -1.40 -0.25 -1.40 -0.75z"/>
  <path d="M31.25 7.10 c-0.65 -0.45 -0.90 -1.75 -0.30 -1.35 0.30 0.15 1.40 -0.65 2.55 -1.80 2.40 -2.50 2.55 -2.05 0.40 1.15 -1.75 2.50 -1.85 2.60 -2.65 2z"/>
  <path d="M1.20 6.05 c0.15 -0.25 -0.05 -0.55 -0.45 -0.75 -0.55 -0.20 -0.75 -1 -0.75 -2.80 0 -2.35 0.10 -2.50 1.25 -2.50 0.90 0 1.25 0.25 1.25 0.95 0 0.55 0.55 1.40 1.25 1.95 0.70 0.55 1.25 1.25 1.25 1.60 0 0.40 -0.45 0.50 -1.25 0.30 -0.75 -0.20 -1.25 -0.10 -1.25 0.20 0 0.30 0.30 0.40 0.65 0.25 0.30 -0.20 0.15 0.05 -0.35 0.45 -1.05 0.85 -2.05 1.05 -1.60 0.35z"/>
  <path d="M26.65 5.25 c-0.65 -0.25 -1.15 -0.90 -1.15 -1.40 0 -0.50 0.20 -0.80 0.45 -0.60 0.25 0.15 0.75 0 1.15 -0.35 0.35 -0.35 1.35 -0.65 2.15 -0.65 1.15 0 1.55 -0.25 1.65 -1.10 0.15 -1 0.45 -1.15 2.40 -1.15 2.80 0 2.80 0.65 -0.20 3.25 l-2.30 2 1.35 -1.80 c2.10 -2.75 1.60 -3.25 -0.90 -0.90 -1.25 1.20 -2.20 2.40 -2.05 2.70 0.25 0.65 -1.05 0.70 -2.55 0z"/>
  <path d="M36.50 3.25 c0 -1.40 0.20 -1.75 0.95 -1.75 1.85 0 2.55 0.60 2.55 2.05 0 1.30 -0.15 1.45 -1.75 1.45 -1.65 0 -1.75 -0.10 -1.75 -1.75z"/>
  <path d="M9.50 3.05 c0 -1 4.65 -3.05 6.85 -3.05 1.35 0 2.10 0.20 1.90 0.50 -0.15 0.30 -0.70 0.50 -1.20 0.50 -0.50 0 -2.25 0.55 -3.95 1.25 -3.45 1.40 -3.60 1.45 -3.60 0.80z"/>
  <path d="M24.50 2 c-0.65 -0.40 -0.60 -0.55 0.25 -1.20 1.20 -0.90 2.75 -1.05 2.75 -0.25 0 0.55 -1.45 1.90 -2 1.95 -0.15 0 -0.60 -0.25 -1 -0.50z"/>
 </g>
 <g fill="#f2b75b">
  <path d="M24.75 35.40 c-0.60 -1.30 0.15 -3.75 1.85 -5.90 1.70 -2.15 2.50 -4.65 2.65 -8.30 0.20 -4.35 -0.55 -5.95 -0.85 -1.90 -0.20 2.75 -1.70 7.05 -2.30 6.50 -0.10 -0.15 -0.25 -2.40 -0.30 -4.95 -0.05 -4.70 -0.05 -4.70 1.35 -5.30 1.05 -0.50 1.35 -0.95 1.35 -2.20 l-0.05 -1.60 -0.85 1.40 c-0.75 1.30 -1.05 1.40 -2.85 1.10 -2.15 -0.30 -3.75 -1.45 -3.75 -2.65 0 -0.55 0.35 -0.65 1.40 -0.40 4.10 0.95 4.60 0.95 4.90 0.10 0.55 -1.35 -0.60 -3.25 -2.15 -3.55 -0.75 -0.15 -2.50 -0.60 -3.80 -1.05 -3 -0.95 -3.85 -0.40 -3.85 2.35 0 1.75 -0.15 1.95 -1.25 1.95 -1.10 0 -1.25 -0.20 -1.25 -1.90 0 -1.05 -0.35 -2.35 -0.75 -2.90 -0.70 -0.95 -0.75 -0.95 -1.05 0.15 -0.30 1.05 -0.60 1.15 -3.55 1.10 -2.60 -0.05 -3.60 0.15 -4.85 1.05 l-1.55 1.05 1.35 -1.15 c3.85 -3.30 4.75 -3.60 11.10 -3.80 4.55 -0.15 6.60 0 8.55 0.65 4.15 1.30 4.35 1.55 5.10 6.80 1.20 8.60 1.35 11.70 0.55 13.25 -0.40 0.80 -1.50 2.90 -2.40 4.65 -0.95 1.75 -1.80 3.95 -1.95 4.90 -0.30 1.65 -0.30 1.65 -0.80 0.55z"/>
  <path d="M2.55 29.95 c-0.85 -1.45 -1.50 -2.80 -1.45 -3.05 0.20 -0.50 3.05 3.30 3.55 4.75 0.65 1.75 -0.55 0.80 -2.10 -1.70z"/>
  <path d="M2.55 18.95 c-0.70 -3.70 -0.45 -4.85 0.75 -3.25 0.75 1.05 1 6.05 0.30 6.50 -0.25 0.15 -0.75 -1.30 -1.05 -3.25z"/>
  <path d="M20.25 14.50 c-0.50 -0.55 -0.70 -1 -0.40 -1 0.25 0 0.90 0.45 1.40 1 0.50 0.55 0.70 1 0.40 1 -0.25 0 -0.90 -0.45 -1.40 -1z"/>
  <path d="M4 12.50 c-1.15 -1.15 -1.45 -2.50 -0.30 -1.55 1 0.85 4.45 0.80 6.30 -0.10 2.10 -1.05 2.15 -1.05 1.50 0.20 -0.65 1.20 -3.35 2.45 -5.25 2.45 -0.70 0 -1.70 -0.45 -2.25 -1z"/>
  <path d="M5 10.70 c0 -0.40 1.60 -1.65 2.15 -1.70 0.25 0 0.25 0.25 0.10 0.50 -0.15 0.30 0.20 0.50 0.85 0.50 0.90 0 1 0.10 0.40 0.50 -0.85 0.55 -3.50 0.70 -3.50 0.20z"/>
  <path d="M22.10 10 c-1.20 -0.55 -2.05 -1.20 -1.90 -1.40 0.30 -0.50 4.60 0.05 5.20 0.65 0.20 0.20 -0.40 0.20 -1.35 0 -1.15 -0.25 -1.55 -0.20 -1.35 0.20 0.20 0.30 1 0.55 1.85 0.55 0.80 0 1.45 0.25 1.45 0.50 0 0.75 -1.55 0.60 -3.90 -0.50z"/>
  <path d="M9.50 9.55 c0 -0.25 -0.40 -0.60 -0.85 -0.70 -0.50 -0.15 -0.15 -0.25 0.80 -0.30 1.45 -0.05 1.60 0.05 1.05 0.70 -0.70 0.85 -1 0.95 -1 0.30z"/>
  <path d="M1.40 5.85 c-0.30 -2.45 -0.15 -3.35 0.65 -3.35 0.85 0 2.80 1.85 2.35 2.25 -0.15 0.15 -0.90 0.05 -1.70 -0.25 -1.35 -0.55 -1.40 -0.55 -0.55 0.40 0.80 0.85 0.80 1 0.10 1.25 -0.40 0.20 -0.80 0.05 -0.85 -0.30z"/>
  <path d="M26.40 5.15 c-1.05 -0.25 -1.20 -1.15 -0.20 -1.15 1.10 0 2.30 0.55 2.30 1.05 0 0.45 -0.65 0.50 -2.10 0.10z"/>
  <path d="M14.75 3.50 c1.40 -0.60 2.85 -0.60 2.50 0 -0.15 0.30 -1.05 0.50 -1.90 0.45 -1.35 0 -1.45 -0.10 -0.60 -0.45z"/>
 </g>
 <g fill="#e4a981">
  <path d="M23.60 38.65 c0.50 -0.15 1.05 -1.05 1.30 -2.30 l0.50 -2.10 0.05 1.90 c0.05 1 0.30 1.85 0.55 1.85 0.30 0 0.50 0.25 0.50 0.50 0 0.30 -0.85 0.45 -1.85 0.45 -1.05 -0.05 -1.50 -0.15 -1.05 -0.30z"/>
  <path d="M22.25 34.50 c0.50 -0.55 1 -1 1.10 -1 0.10 0 -0.05 0.45 -0.35 1 -0.30 0.55 -0.80 1 -1.10 1 -0.30 0 -0.15 -0.45 0.35 -1z"/>
  <path d="M12.75 29 c-0.45 -0.75 1.15 -3.10 1.90 -2.85 0.35 0.15 0.55 0.45 0.50 0.75 -0.05 0.30 0.60 0.40 1.75 0.25 1.35 -0.20 2.10 -0.05 2.55 0.55 0.40 0.45 0.55 0.95 0.40 1.10 -0.55 0.55 -6.80 0.70 -7.10 0.20z"/>
  <path d="M21 28.60 c0 -0.20 0.45 -0.65 1 -1 0.55 -0.35 1 -1.05 1 -1.60 0 -0.55 0.35 -1 0.75 -1 0.90 0 0.50 1.30 -0.90 2.90 -1 1.10 -1.85 1.45 -1.85 0.70z"/>
  <path d="M19.25 24 c-0.15 -0.25 -1.65 -0.50 -3.30 -0.50 -3.70 0 -3.95 -1.15 -0.30 -1.40 2.25 -0.15 4.85 0.90 4.85 1.95 0 0.60 -0.85 0.55 -1.25 -0.05z"/>
  <path d="M19 20.75 c-1.25 -0.65 -2.90 -3 -2.45 -3.45 0.20 -0.25 4.45 3.55 4.45 4 0 0.35 -0.70 0.20 -2 -0.55z"/>
  <path d="M23.25 21.10 c-0.50 -0.35 -1.75 -2.80 -2.55 -4.85 -0.30 -0.90 -0.40 -0.90 -0.55 -0.10 -0.25 1.05 -0.85 1.10 -1.65 0.10 -0.65 -0.80 -0.20 -1.95 0.60 -1.45 0.30 0.20 0.40 -0.05 0.15 -0.80 -0.45 -1.35 0 -1.15 3.15 1.45 1.80 1.50 2.10 2.05 2.10 3.65 0 1.90 -0.45 2.60 -1.25 2z"/>
  <path d="M14.15 20.20 c-0.35 -0.15 -0.65 -0.75 -0.65 -1.30 0 -0.90 0.05 -0.90 0.80 -0.15 0.50 0.45 1.30 0.70 1.80 0.60 0.60 -0.20 0.90 -0.05 0.75 0.30 -0.20 0.65 -1.75 0.95 -2.70 0.55z"/>
  <path d="M15 14.50 c-0.65 -0.45 -0.60 -0.65 0.45 -1.50 0.60 -0.55 1.35 -0.85 1.60 -0.70 0.75 0.45 0.50 2.05 -0.35 2.40 -0.95 0.35 -0.80 0.40 -1.70 -0.20z"/>
  <path d="M15.15 10 c-0.05 -0.65 0.20 -1 0.80 -1 0.50 0 1.05 0.45 1.20 1 0.20 0.80 0 1 -0.85 1 -0.75 0 -1.10 -0.35 -1.15 -1z"/>
  <path d="M22.50 9.50 c0 -1.10 1 -1.30 2.55 -0.50 1.50 0.80 1.15 1.50 -0.80 1.50 -1.40 0 -1.75 -0.20 -1.75 -1z"/>
  <path d="M15.50 3.30 c1.90 -0.70 2.30 -0.65 1.75 0.15 -0.15 0.30 -1.05 0.55 -1.90 0.50 l-1.60 -0.05 1.75 -0.60z"/>
 </g>
 <g fill="#a5b1bf">
  <path d="M7.50 39.15 c-0.65 -0.75 -0.60 -0.80 0.20 -0.50 0.50 0.20 1.10 0.35 1.35 0.35 0.25 0 0.45 0.25 0.45 0.50 0 0.75 -1.15 0.55 -2 -0.35z"/>
  <path d="M2.50 38.50 c0 -0.80 0.80 -0.95 2.30 -0.50 1.10 0.30 1.20 0.45 0.45 0.50 -0.55 0.05 -1.40 0.15 -1.85 0.25 -0.50 0.10 -0.90 -0.05 -0.90 -0.25z"/>
  <path d="M31.05 26.75 c0 -0.95 1.75 -7.25 2.10 -7.55 0.80 -0.85 0.20 2.80 -0.90 5.30 -0.65 1.50 -1.20 2.55 -1.20 2.25z"/>
  <path d="M29.55 25 c0 -0.40 0.20 -1.20 0.45 -1.75 l0.45 -1 0 1 c0 0.55 -0.20 1.35 -0.45 1.75 -0.45 0.65 -0.50 0.65 -0.45 0z"/>
  <path d="M35.70 16.10 c0.40 -0.65 -1.35 -1.90 -2.35 -1.70 -0.85 0.15 -1.75 -1.15 -1.20 -1.75 0.20 -0.15 0.95 0 1.75 0.30 1.10 0.45 1.75 0.45 2.90 0 0.80 -0.30 1.20 -0.65 0.85 -0.80 -0.35 -0.10 -1 0 -1.55 0.30 -0.80 0.40 -1.05 0.30 -1.60 -0.70 -0.35 -0.65 -1.30 -1.35 -2.05 -1.50 -0.80 -0.20 -1.45 -0.45 -1.45 -0.60 0 -0.55 1.50 -1.70 1.90 -1.45 0.25 0.15 0.90 -0.05 1.40 -0.50 0.90 -0.70 0.85 -0.75 -0.65 -0.45 -0.90 0.20 -2 0.10 -2.45 -0.15 -0.70 -0.40 -0.60 -0.60 0.60 -1.55 1.70 -1.35 4.80 -4.95 3.70 -4.35 -0.40 0.25 -1.25 0.90 -1.85 1.45 l-1.05 0.95 0.80 -1.80 c0.85 -1.70 0.90 -1.75 3.75 -1.80 2.15 0 2.85 0.20 2.85 0.70 0 0.40 -0.30 0.85 -0.60 0.95 -0.50 0.20 -0.50 0.30 0 0.30 0.75 0.05 0.90 10.05 0.10 10.05 -0.25 0 -0.50 0.45 -0.50 1 0 0.55 0.25 1 0.50 1 0.80 0 0.60 1.10 -0.35 1.80 -0.95 0.70 -3.85 0.95 -3.45 0.30z"/>
  <path d="M24.90 6.65 c-1 -0.25 -1.20 -1.15 -0.25 -1.15 0.30 0.05 1.15 0.35 1.85 0.75 1.10 0.60 1.10 0.70 0.25 0.65 -0.55 0 -1.40 -0.10 -1.85 -0.25z"/>
  <path d="M26.40 5.15 c-0.90 -0.20 -1.30 -1.65 -0.50 -1.65 0.20 0 1.25 -0.80 2.30 -1.75 1.25 -1.15 2.40 -1.75 3.35 -1.75 0.80 0 1.45 0.20 1.45 0.40 0 0.65 -3.20 3.60 -3.90 3.60 -0.35 0 -0.60 0.35 -0.60 0.75 0 0.75 -0.45 0.85 -2.10 0.40z"/>
  <path d="M2.65 4.50 c-0.60 -0.25 -1.25 -1.05 -1.45 -1.70 -0.15 -0.70 -0.50 -1.15 -0.75 -1 -0.25 0.15 -0.45 0 -0.45 -0.25 0 -0.30 0.70 -0.55 1.50 -0.55 0.85 0 1.50 0.25 1.50 0.50 0 0.25 0.20 0.45 0.45 0.35 0.60 -0.15 3.55 2.05 3.55 2.65 0 0.60 -2.85 0.60 -4.35 0z"/>
  <path d="M9.50 3 c0 -0.90 4.65 -3 6.65 -3 1.10 0 1.90 0.15 1.70 0.30 -0.60 0.60 -8.35 3.10 -8.35 2.70z"/>
  <path d="M8 0.75 c0 -0.40 0.35 -0.75 0.75 -0.75 0.40 0 0.75 0.20 0.75 0.45 0 0.25 -0.35 0.55 -0.75 0.75 -0.45 0.15 -0.75 0 -0.75 -0.45z"/>
  <path d="M26.15 1.15 c-1 -0.40 -0.75 -1.15 0.35 -1.15 0.55 0 1 0.35 1 0.75 0 0.75 -0.30 0.85 -1.35 0.40z"/>
 </g>
 <g fill="#ffc362">
  <path d="M24.50 33.65 c0 -0.25 0.55 -1.30 1.25 -2.40 0.65 -1.10 1.60 -2.65 2.05 -3.50 1.05 -1.80 2.20 -7.40 1.80 -8.85 -0.15 -0.70 -0.05 -0.95 0.30 -0.70 0.35 0.20 0.60 1.60 0.60 3.20 0 2.50 -0.30 3.40 -2.25 6.80 -1.20 2.15 -2.35 4.35 -2.50 4.85 -0.30 0.90 -1.25 1.35 -1.25 0.60z"/>
  <path d="M2.35 29.50 c-0.80 -1.40 -1.30 -2.50 -1.15 -2.50 0.40 0 3.30 4.05 3.30 4.60 0 1.05 -0.85 0.20 -2.15 -2.10z"/>
  <path d="M26.45 23.25 c-0.05 -0.25 -0.15 -2 -0.20 -3.85 -0.15 -2.65 0 -3.40 0.60 -3.65 1.05 -0.35 1.15 -0.20 1.45 2.20 0.15 1.45 -0.05 2.55 -0.75 3.90 -0.55 1.05 -1.05 1.70 -1.10 1.40z"/>
  <path d="M3 18.50 c0 -0.55 0.25 -1 0.50 -1 0.30 0 0.50 0.45 0.50 1 0 0.55 -0.20 1 -0.50 1 -0.25 0 -0.50 -0.45 -0.50 -1z"/>
  <path d="M24.20 13.65 c-1.25 -0.25 -3 -2 -2.55 -2.50 0.20 -0.15 0.90 -0.05 1.60 0.25 0.70 0.35 2 0.60 2.85 0.60 1.15 0 1.45 0.20 1.20 0.80 -0.15 0.45 -0.30 0.90 -0.30 1 0 0.25 -1.20 0.15 -2.80 -0.15z"/>
  <path d="M5.40 13.15 c-1.50 -0.40 -1 -1.15 0.75 -1.15 0.95 0 2.40 -0.35 3.30 -0.80 2.05 -1.05 2.50 -0.60 0.70 0.65 -1.55 1.10 -3.45 1.60 -4.75 1.30z"/>
  <path d="M28.15 11.65 c-0.35 -0.15 -0.65 -0.60 -0.65 -1.10 0 -1.70 -1.45 -3 -3.75 -3.30 -1.20 -0.20 -2.50 -0.70 -2.85 -1.15 -0.50 -0.60 -0.50 -0.70 0 -0.40 0.30 0.20 0.60 0.15 0.60 -0.15 0 -0.25 -0.40 -0.60 -0.85 -0.75 -0.50 -0.15 0 -0.15 1.10 0 1.10 0.15 3.05 0.75 4.35 1.30 2 0.85 2.45 1.30 2.70 2.65 0.35 2.10 0.15 3.15 -0.65 2.90z"/>
  <path d="M6.40 10.65 c0.60 -0.10 1.10 -0.40 1.10 -0.65 0 -0.45 2.50 -1.15 2.85 -0.80 0.40 0.40 -2.75 1.80 -3.95 1.75 l-1.15 -0.10 1.15 -0.20z"/>
  <path d="M15.30 10.20 c-0.15 -0.45 -0.20 -1 -0.05 -1.25 0.15 -0.20 -0.05 -1.10 -0.50 -1.90 -1.10 -2.20 -1 -2.60 0.75 -1.95 1.15 0.35 1.70 0.35 2.25 -0.10 1.25 -1.05 1.45 -0.15 0.30 1.40 -0.60 0.85 -1.05 2.20 -1.05 3.05 0 1.65 -1.15 2.15 -1.70 0.75z"/>
  <path d="M22.90 10.40 c-1.25 -0.40 -1.30 -0.55 -0.65 -1.25 0.95 -0.90 3.40 -0.25 3.65 1 0.20 0.95 -0.85 1.05 -3 0.25z"/>
  <path d="M9.30 7.05 c-1.35 -0.30 -1.35 -0.35 -0.50 -1.10 2.15 -1.90 4.80 -1.55 3.75 0.50 -0.60 1.10 -0.85 1.15 -3.25 0.60z"/>
 </g>
 <g fill="#fdd068">
  <path d="M20.10 39.40 c0.35 -1 3.40 -1.15 3.40 -0.20 0 0.60 -0.50 0.80 -1.80 0.80 -1.20 0 -1.70 -0.20 -1.60 -0.60z"/>
  <path d="M3 30.50 c-0.35 -0.65 -0.35 -1 -0.05 -1 0.30 0 0.75 0.45 1.05 1 0.35 0.65 0.35 1 0.05 1 -0.30 0 -0.75 -0.45 -1.05 -1z"/>
  <path d="M26.80 29.75 c0.45 -0.70 0.90 -1.25 1 -1.25 0.10 0 -0.10 0.55 -0.40 1.25 -0.30 0.70 -0.75 1.25 -1 1.25 -0.25 0 -0.05 -0.55 0.40 -1.25z"/>
  <path d="M29.05 25.50 c0 -0.40 0.30 -2.10 0.70 -3.75 l0.65 -3 0.05 2.80 c0.05 1.70 -0.25 3.15 -0.70 3.75 -0.55 0.70 -0.70 0.75 -0.70 0.20z"/>
  <path d="M26.75 20.25 c-0.15 -1.10 -0.40 -2.50 -0.55 -3.05 -0.10 -0.70 0.10 -1.20 0.65 -1.40 1.05 -0.40 1.05 -0.40 1.35 2.25 0.20 1.55 0.05 2.60 -0.40 3.25 -0.65 0.85 -0.75 0.80 -1.05 -1.05z"/>
  <path d="M24.25 13.55 c-0.55 -0.25 -1.45 -0.95 -2 -1.60 l-1 -1.10 1 0.35 c0.55 0.25 1.85 0.50 2.85 0.65 1.65 0.25 1.80 0.40 1.35 1.20 -0.55 1.05 -0.75 1.10 -2.20 0.50z"/>
  <path d="M8 12.55 c0 -0.60 1.95 -1.75 2.30 -1.40 0.15 0.10 -0.35 0.60 -1.05 1.05 -0.70 0.45 -1.25 0.60 -1.25 0.35z"/>
  <path d="M28.20 11.45 c-0.30 -0.40 -0.75 -1.20 -0.95 -1.85 -0.15 -0.60 -1.20 -1.70 -2.25 -2.35 -2.40 -1.50 -3.10 -2.50 -1.45 -2 4.10 1.15 5.70 2.85 5.35 5.70 -0.10 1 -0.25 1.10 -0.70 0.50z"/>
  <path d="M5.50 10.55 c0 -0.95 1.40 -1.55 3 -1.25 l1.60 0.35 -1.15 0.65 c-1.35 0.75 -3.45 0.90 -3.45 0.25z"/>
  <path d="M15.35 9.15 c-0.15 -1.05 -0.40 -2.35 -0.65 -2.85 -0.30 -0.80 -0.20 -0.90 0.80 -0.65 0.65 0.15 1.60 0.10 2.10 -0.20 1.10 -0.60 1.15 -0.30 0.10 1.30 -0.55 0.80 -0.70 1.70 -0.45 2.75 0.30 1.25 0.20 1.50 -0.65 1.50 -0.75 0 -1.05 -0.45 -1.25 -1.85z"/>
  <path d="M23.05 10.40 l-1.70 -0.45 1.20 -0.65 c1.40 -0.75 3.15 -0.30 3.35 0.90 0.20 0.90 -0.35 0.95 -2.85 0.20z"/>
  <path d="M9.90 7.15 c-0.70 -0.20 -0.80 -0.40 -0.40 -1.20 0.65 -1.15 2.30 -1.25 2.70 -0.15 0.55 1.45 -0.20 1.90 -2.30 1.35z"/>
 </g>
 <g fill="#bfc7d1">
  <path d="M31.75 24.75 c0.20 -0.55 0.50 -1.95 0.75 -3.15 0.20 -1.20 0.55 -2.30 0.75 -2.50 0.65 -0.60 -0.25 3.95 -1.05 5.35 -0.45 0.80 -0.65 0.90 -0.45 0.30z"/>
  <path d="M36.50 16.20 c0.40 -0.20 1.25 -0.80 1.85 -1.35 0.65 -0.55 1.30 -0.85 1.50 -0.65 0.55 0.55 -0.95 1.70 -2.60 2 -0.80 0.20 -1.15 0.15 -0.75 0z"/>
  <path d="M35 14.55 c0 -0.25 0.70 -0.70 1.50 -1.05 0.85 -0.35 1.50 -0.80 1.50 -1.05 0 -0.25 0.25 -0.45 0.50 -0.45 0.90 0 0.50 1.45 -0.60 2.20 -1.20 0.85 -2.90 1.05 -2.90 0.35z"/>
  <path d="M35.50 10.75 c0 -0.70 -0.35 -1.40 -0.75 -1.55 -0.95 -0.40 -0.45 -1.20 0.75 -1.20 0.50 0 1.55 -0.65 2.35 -1.50 0.75 -0.80 1.55 -1.50 1.75 -1.50 0.25 0 0.40 1.35 0.40 3 0 3 -0.30 3.50 -1.35 2.45 -0.40 -0.40 -0.70 -0.25 -1.10 0.50 -0.80 1.50 -2.05 1.35 -2.05 -0.20z"/>
  <path d="M36.15 5.25 c0.20 -0.45 0.50 -1.45 0.65 -2.15 l0.25 -1.35 -0.75 1.30 c-0.70 1.20 -2.20 2.25 -2.60 1.80 -0.40 -0.40 2.60 -3.80 3.20 -3.60 0.30 0.10 0.60 -0.10 0.60 -0.50 0 -0.45 0.50 -0.75 1.25 -0.75 1.45 0 1.55 0.25 0.40 1.40 -0.80 0.80 -0.80 0.85 0 1 1.45 0.30 0.95 1.95 -0.75 2.65 -0.90 0.35 -1.85 0.75 -2.10 0.85 -0.25 0.15 -0.30 -0.15 -0.15 -0.65z"/>
  <path d="M3.10 4.50 c-0.60 -0.25 -1.35 -1.05 -1.70 -1.70 -0.30 -0.70 -0.75 -1.15 -0.95 -1 -0.25 0.15 -0.45 -0.20 -0.45 -0.75 0 -1.80 2.05 -1.25 4.65 1.15 1.30 1.15 2.20 2.30 2 2.50 -0.45 0.40 -2.15 0.35 -3.55 -0.20z"/>
  <path d="M26.30 4.60 c-0.15 -0.25 0.15 -0.80 0.60 -1.25 0.45 -0.40 1.30 -1.35 1.85 -2.05 0.70 -0.90 1.50 -1.30 2.65 -1.30 0.95 0 1.60 0.20 1.50 0.45 -0.20 0.65 -5.25 4.55 -5.85 4.55 -0.25 0 -0.60 -0.20 -0.75 -0.40z"/>
  <path d="M10.50 2.50 c0 -0.50 3.30 -1.65 4.05 -1.40 0.25 0.10 -0.50 0.55 -1.80 1 -1.25 0.45 -2.25 0.65 -2.25 0.40z"/>
  <path d="M25.75 0.50 c-0.15 -0.25 0.15 -0.50 0.70 -0.50 0.60 0 1.05 0.25 1.05 0.50 0 0.30 -0.30 0.50 -0.70 0.50 -0.40 0 -0.90 -0.20 -1.05 -0.50z"/>
 </g>
 <g fill="#f2cfa8">
  <path d="M20.50 39.25 c0 -0.55 0.55 -0.75 1.95 -0.75 1.10 0 2.05 -0.25 2.15 -0.55 0.30 -0.85 1.90 0.10 1.90 1.10 0 0.80 -0.35 0.95 -2.20 0.95 -1.30 0 -2.30 -0.25 -2.45 -0.60 -0.20 -0.50 -0.30 -0.50 -0.30 0 -0.05 0.85 -1.05 0.75 -1.05 -0.15z"/>
  <path d="M16.40 27.70 c0.60 -0.40 1.35 -0.60 1.60 -0.45 0.85 0.50 0.05 1.25 -1.40 1.25 l-1.30 0 1.10 -0.80z"/>
  <path d="M15.60 22.90 c0.25 -0.75 2.40 -0.90 2.40 -0.15 0 0.30 -0.55 0.55 -1.30 0.65 -0.90 0.15 -1.25 0 -1.10 -0.50z"/>
  <path d="M22.45 17 c-0.45 -0.25 -1.20 -1.10 -1.70 -1.80 l-0.90 -1.35 1.50 1.05 c2.60 1.85 3.45 3.45 1.10 2.10z"/>
  <path d="M15.10 13.70 c0.05 -0.45 0.45 -0.95 0.80 -1.10 0.45 -0.15 0.65 0.10 0.50 0.70 -0.05 0.45 -0.45 0.95 -0.80 1.10 -0.45 0.15 -0.65 -0.10 -0.50 -0.70z"/>
  <path d="M6.25 10.50 c-0.50 -0.80 0.20 -1.45 2 -1.80 2.65 -0.50 3.20 0 1.25 1.20 -1.95 1.20 -2.80 1.35 -3.25 0.60z"/>
  <path d="M21.45 9.50 l-1.20 -0.95 1.60 -0.05 c1.90 0 4.15 0.80 4.15 1.50 0 0.90 -3.35 0.55 -4.55 -0.50z"/>
 </g>
 <g fill="#fff37c">
  <path d="M26.90 19.80 c-0.15 -0.65 0.05 -1.75 0.40 -2.35 0.60 -1.15 0.65 -1.05 0.70 1.20 0 2.45 -0.70 3.20 -1.10 1.15z"/>
  <path d="M24.05 13.05 c-0.70 -0.20 -1.35 -0.65 -1.45 -1 -0.15 -0.50 0 -0.60 0.60 -0.40 0.50 0.20 1.30 0.35 1.85 0.35 0.50 0 0.95 0.35 0.95 0.75 0 0.80 -0.10 0.85 -1.95 0.30z"/>
  <path d="M28 10.40 c-0.35 -0.60 -1.30 -1.90 -2.15 -2.75 -1.70 -1.85 -1.60 -1.95 0.85 -0.95 1.35 0.55 1.70 1.05 1.95 2.60 0.40 2.30 0.15 2.70 -0.65 1.10z"/>
  <path d="M15.75 10.40 c-0.10 -0.35 -0.30 -1.45 -0.45 -2.45 -0.30 -1.75 -0.25 -1.85 0.95 -1.75 0.80 0 1.15 0.30 1 0.70 -0.15 0.40 -0.25 1.45 -0.25 2.40 0 1.65 -0.80 2.35 -1.25 1.10z"/>
  <path d="M23.70 9.75 c0.40 -0.40 0.95 -0.75 1.20 -0.75 0.30 0 0.60 0.35 0.80 0.75 0.20 0.55 -0.10 0.75 -1.25 0.75 -1.35 0 -1.45 -0.10 -0.75 -0.75z"/>
  <path d="M21.20 9.25 c-0.95 -0.70 -0.90 -0.70 0.20 -0.75 0.65 0 1.10 0.30 1.10 0.75 0 0.95 -0.05 0.95 -1.30 0z"/>
  <path d="M10.10 6.20 c0.45 -0.45 1.05 -0.65 1.35 -0.50 1 0.65 0.55 1.30 -0.80 1.30 -1.25 0 -1.30 -0.05 -0.55 -0.80z"/>
 </g>
 <g fill="#fbd3b7">
  <path d="M12.50 39.50 c0 -0.25 0.45 -0.50 1 -0.50 0.55 0 1 0.25 1 0.50 0 0.30 -0.45 0.50 -1 0.50 -0.55 0 -1 -0.20 -1 -0.50z"/>
  <path d="M16.75 28.05 c-0.35 -0.60 0.60 -1.20 1.25 -0.80 0.55 0.35 0.20 1.25 -0.50 1.25 -0.25 0 -0.55 -0.20 -0.75 -0.45z"/>
  <path d="M15.65 22.85 c0.20 -0.70 2.30 -0.80 2.50 -0.15 0.05 0.25 -0.55 0.50 -1.30 0.60 -0.90 0.10 -1.35 -0.05 -1.20 -0.45z"/>
  <path d="M1.25 2.35 c-0.20 -0.50 -0.25 -1.05 -0.05 -1.20 0.50 -0.50 0.90 0.20 0.65 1.20 -0.20 0.85 -0.20 0.85 -0.60 0z"/>
 </g>
 <g fill="#d8e2ec">
  <path d="M17.50 39.55 c0 -0.45 3.55 -1.05 6.05 -1.05 0.80 0 1.45 -0.20 1.45 -0.50 0 -0.25 0.35 -0.35 0.75 -0.20 0.40 0.20 0.75 0.75 0.75 1.25 0 0.75 -0.35 0.95 -1.95 0.95 -1.10 0 -2.10 -0.30 -2.25 -0.60 -0.25 -0.50 -0.35 -0.50 -0.60 0 -0.30 0.65 -4.20 0.85 -4.20 0.15z"/>
  <path d="M32.55 22 c0 -0.70 0.20 -1.60 0.45 -2 0.45 -0.65 0.50 -0.65 0.45 0 -0.05 0.40 -0.25 1.30 -0.45 2 l-0.40 1.25 -0.05 -1.25z"/>
  <path d="M7 10.25 c0 -0.60 2.40 -1.75 3.65 -1.75 0.90 0 -0.70 1.40 -2.20 1.95 -1.15 0.40 -1.45 0.35 -1.45 -0.20z"/>
  <path d="M22.15 9.90 c-2.20 -1.05 -1 -1.80 1.75 -1.10 1.30 0.35 1.50 1.70 0.25 1.65 -0.50 0 -1.40 -0.25 -2 -0.55z"/>
  <path d="M39 9.75 c0 -0.40 0.25 -0.75 0.50 -0.75 0.30 0 0.50 0.35 0.50 0.75 0 0.40 -0.20 0.75 -0.50 0.75 -0.25 0 -0.50 -0.35 -0.50 -0.75z"/>
  <path d="M38 6.75 c1.40 -1.50 2 -1.60 2 -0.30 0 0.95 -0.90 1.55 -2.40 1.55 -0.60 0 -0.55 -0.25 0.40 -1.25z"/>
  <path d="M37 3.70 c0.30 -0.70 0.50 -1.80 0.50 -2.50 0 -0.75 0.30 -1.20 0.75 -1.20 0.90 0 1 1.55 0.15 2.45 -0.55 0.55 -0.50 0.70 0 0.90 0.50 0.20 0.40 0.45 -0.25 0.95 -1.35 1 -1.70 0.85 -1.15 -0.60z"/>
  <path d="M1.85 3.10 c-0.50 -0.50 -0.85 -1.15 -0.85 -1.45 0 -0.30 -0.30 -0.65 -0.60 -0.80 -0.35 -0.10 -0.45 -0.40 -0.25 -0.65 0.20 -0.25 0.60 -0.10 0.90 0.30 0.40 0.65 0.50 0.65 0.95 0 0.25 -0.40 0.50 -0.50 0.55 -0.25 0.10 0.55 0.25 3.75 0.15 3.75 0 0 -0.40 -0.40 -0.85 -0.90z"/>
  <path d="M28 2.65 c0.05 -0.25 0.45 -0.90 1 -1.55 0.75 -0.90 1.35 -1.10 2.60 -1 1.45 0.15 1.50 0.25 0.65 0.65 -0.55 0.20 -1.55 0.85 -2.20 1.35 -1.25 0.95 -2.05 1.15 -2.05 0.55z"/>
 </g>
 <g fill="#faf6e2">
  <path d="M13 39.50 c0 -0.30 1.35 -0.50 3 -0.50 1.65 0 3 0.20 3 0.50 0 0.30 -1.35 0.50 -3 0.50 -1.65 0 -3 -0.20 -3 -0.50z"/>
  <path d="M21 39.40 c0 -0.70 0.40 -0.90 1.95 -0.90 1.10 0 2.10 -0.25 2.20 -0.60 0.15 -0.40 0.30 -0.30 0.30 0.25 0.05 0.45 0.30 0.85 0.55 0.85 0.30 0 0.50 0.25 0.50 0.50 0 0.30 -0.35 0.50 -0.75 0.50 -0.40 0 -0.75 -0.20 -0.75 -0.50 0 -0.70 -1.35 -0.60 -1.65 0.15 -0.20 0.45 -0.40 0.40 -0.80 -0.15 -0.50 -0.65 -0.60 -0.65 -1.05 0 -0.40 0.65 -0.50 0.60 -0.50 -0.10z"/>
  <path d="M6.80 10.60 c-0.55 -0.50 -0.30 -1 0.65 -1.25 0.55 -0.15 1.10 0.05 1.25 0.40 0.25 0.65 -1.40 1.40 -1.90 0.85z"/>
  <path d="M23.15 9.95 c0.05 -0.30 -0.20 -0.70 -0.60 -0.85 -0.40 -0.15 -0.55 0 -0.35 0.35 0.25 0.35 0.05 0.45 -0.40 0.25 -0.45 -0.15 -0.80 -0.50 -0.80 -0.75 0 -0.55 0.80 -0.55 2.95 -0.15 1.85 0.40 2.10 1.70 0.30 1.70 -0.70 0 -1.20 -0.25 -1.10 -0.55z"/>
 </g>
</svg>