<?xml version="1.0" encoding="utf-8"?>
<!DOCTYPE svg PUBLIC "-//W3C//DTD SVG 1.0//EN" "http://www.w3.org/TR/2001/REC-SVG-20010904/DTD/svg10.dtd">
<svg version="1.0" xmlns="http://www.w3.org/2000/svg" width="40px" height="40px" viewBox="0 0 40 40" preserveAspectRatio="xMidYMid meet">
 <g fill="#0f1011">
  <path d="M2.75 39.50 c0.15 -0.25 0.75 -0.50 1.30 -0.50 0.50 0 0.95 0.25 0.95 0.50 0 0.30 -0.60 0.50 -1.30 0.50 -0.70 0 -1.15 -0.20 -0.95 -0.50z"/>
  <path d="M28.50 38 l0 -2 2 0 2 0 0 2 0 2 -2 0 -2 0 0 -2z"/>
  <path d="M12.75 30.75 c0.35 -3.60 0.35 -3.70 -0.80 -4 -1.75 -0.45 -2.55 -2.40 -1.55 -3.80 0.75 -1.05 0.70 -1.10 -0.20 -0.70 -2.40 1 -3.10 0.85 -5.15 -1 -1.25 -1.10 -2.30 -2.65 -2.65 -3.85 -0.55 -1.80 -0.50 -2.05 0.65 -3.20 1.20 -1.15 1.30 -1.20 2.75 -0.45 1.25 0.60 1.80 0.60 3.05 0.15 l1.55 -0.60 -1.25 -2.50 c-0.80 -1.60 -1.05 -2.60 -0.70 -2.70 0.30 -0.10 0.55 -0.50 0.55 -0.90 0 -0.40 0.15 -0.75 0.40 -0.75 0.20 -0.05 1.05 -0.15 1.85 -0.25 0.85 -0.10 2.05 -0.75 2.80 -1.60 1.85 -2.10 2.60 -2.40 5.15 -2.20 1.60 0.15 2.65 0.55 3.40 1.40 1.30 1.35 3.90 1.65 3.90 0.45 0 -0.90 2.15 -3.25 3 -3.25 0.25 0 0.50 0.55 0.50 1.25 0 0.70 -0.20 1.25 -0.50 1.25 -0.25 0 -0.50 0.20 -0.50 0.45 0 0.20 0.55 0.30 1.25 0.15 0.70 -0.10 1.25 -0.55 1.25 -0.90 0 -1.40 1.35 -0.65 1.85 1.05 0.60 1.85 0.10 4.85 -1 6.15 -0.35 0.45 -0.35 0.80 0 1.15 0.70 0.70 0.20 2.45 -0.65 2.45 -0.40 0 -0.70 -0.50 -0.70 -1.10 0 -1.15 0 -1.15 -0.90 0.15 -0.45 0.70 -1.65 2 -2.60 2.85 l-1.75 1.60 3 -0.30 c2.50 -0.25 3.15 -0.15 3.75 0.55 0.40 0.50 0.50 0.95 0.20 1.15 -1.85 1.35 -1.75 4.20 0.40 8 0.70 1.30 0.95 2.35 0.75 3.75 -0.30 2.30 -0.75 2.85 -1.35 1.85 -0.40 -0.60 -0.50 -0.50 -0.50 0.35 0 1.75 -1.25 0.90 -1.95 -1.30 -0.30 -1.05 -0.55 -2.85 -0.55 -4 0 -2 -0.05 -2.05 -1.65 -2.05 -1.85 0 -2.85 -0.75 -2.85 -2.15 0 -0.85 -0.05 -0.85 -0.80 -0.15 -2.05 2.05 -6.70 -0.40 -6.70 -3.55 0 -2.25 -0.80 -2.50 -2.30 -0.70 -0.70 0.85 -1.60 1.55 -1.95 1.55 -0.40 0 -0.70 0.80 -0.85 2.25 -0.10 1.55 0.05 2.25 0.45 2.25 0.35 0 0.65 -0.55 0.65 -1.25 0 -1.10 0.20 -1.25 1.70 -1.25 l1.70 0 0.30 4.15 c0.30 3.20 0.20 4.50 -0.45 6 -0.70 1.65 -0.95 1.85 -2.55 1.85 l-1.80 0 0.35 -3.75z"/>
  <path d="M18 28.75 c0 -1.65 0.10 -1.75 1.75 -1.75 1.65 0 1.75 0.10 1.75 1.75 0 1.65 -0.10 1.75 -1.75 1.75 -1.65 0 -1.75 -0.10 -1.75 -1.75z"/>
 </g>
 <g fill="#25180b">
  <path d="M3 39.50 c1 -0.65 2.50 -0.65 2.50 0 0 0.30 -0.75 0.50 -1.60 0.50 -1.25 0 -1.45 -0.15 -0.90 -0.50z"/>
  <path d="M18.50 38 l0 -2.05 4.40 0.25 c2.40 0.15 3.85 0.15 3.25 0 -1.80 -0.40 -1.55 -2.85 0.45 -4.65 l1.65 -1.45 -2.40 0.25 c-1.55 0.20 -2.35 0.10 -2.35 -0.30 0 -0.30 -0.45 -0.55 -0.95 -0.55 -0.60 0 -1.05 -0.40 -1.20 -1.10 -0.15 -0.85 -0.25 -0.70 -0.30 0.50 -0.05 1.45 -0.20 1.60 -1.60 1.60 -1.30 0 -1.65 0.30 -2.35 2 -0.75 1.70 -1.05 2 -2.45 2 -1.10 0 -1.65 -0.25 -1.80 -0.85 -0.20 -0.85 -0.25 -0.85 -0.30 0 -0.05 0.60 -0.50 0.85 -1.55 0.85 l-1.55 0 1.30 -2.10 c0.65 -1.20 1.50 -2.70 1.85 -3.40 0.35 -0.70 0.80 -1.35 1 -1.55 0.20 -0.15 0.20 -1.60 -0.05 -3.25 -0.25 -1.60 -0.45 -2.65 -0.50 -2.30 0 0.30 -0.40 0.60 -0.80 0.60 -0.50 0 -0.75 0.55 -0.75 1.75 0 1.95 -0.45 2.25 -1.35 0.80 -0.50 -0.75 -0.45 -1.10 0.10 -1.55 0.95 -0.80 0.95 -1.70 0 -1.30 -0.55 0.20 -0.75 -0.05 -0.75 -0.90 0 -0.65 0.35 -1.30 0.75 -1.50 0.40 -0.15 0.75 -0.80 0.75 -1.40 0.05 -1.05 0.10 -1.10 0.70 -0.25 0.65 0.85 0.75 0.80 1.95 -0.65 1.50 -1.75 3.35 -2.05 3.35 -0.50 0 0.55 0.25 1 0.50 1 0.30 0 0.50 -0.45 0.50 -1.05 0 -1 0 -1 1.60 0.15 0.90 0.65 2.75 1.75 4.15 2.50 1.35 0.70 2.60 1.70 2.70 2.25 0.40 2.25 3 3 4.15 1.15 0.55 -0.90 0.65 -0.80 1.25 1.15 0.35 1.15 0.60 2.65 0.60 3.35 0 1.10 -0.10 1.05 -0.70 -0.50 l-0.65 -1.75 -0.05 1.75 c0 0.95 0.20 2.20 0.40 2.70 0.35 0.90 0.40 0.90 0.70 0.15 0.55 -1.45 1.35 -0.90 1.35 0.90 0 1.70 -0.65 2.35 -1.15 1.15 -0.15 -0.35 -0.30 -0.15 -0.30 0.50 -0.05 1.75 1.20 3.80 3.55 5.80 l2.10 1.80 -2 0 c-1.10 0 -2.25 -0.25 -2.60 -0.60 -0.45 -0.45 -0.60 -0.45 -0.60 0 0 0.35 -0.45 0.60 -1.05 0.60 -0.90 0 -1 -0.20 -0.75 -1.25 0.20 -0.70 0.10 -1.25 -0.15 -1.25 -0.25 0 -0.55 0.50 -0.65 1.15 -0.15 1.05 -0.35 1.10 -5.75 1.25 l-5.65 0.15 0 -2.05z m-3.25 -6.80 c0.90 -2.20 1 -3.15 0.20 -2.35 -0.50 0.50 -1.55 4.15 -1.15 4.15 0.10 0 0.55 -0.80 0.95 -1.80z m0.15 -6.25 c-0.15 -1 -0.25 -0.95 -0.45 0.45 -0.15 1 -0.10 1.45 0.20 1.15 0.25 -0.25 0.35 -0.95 0.25 -1.60z m4 -0.55 c-0.10 -1.30 -0.40 -1.70 -1.35 -1.80 -1.05 -0.15 -1.15 -0.05 -0.90 1 0.20 0.60 0.35 1.45 0.35 1.80 0 0.30 0.45 0.60 1.05 0.60 0.85 0 1 -0.25 0.85 -1.60z m2.10 -3.65 c0 -0.80 -1.90 -2 -2.40 -1.50 -0.20 0.20 0.20 0.75 0.85 1.30 1.40 1.15 1.55 1.15 1.55 0.20z"/>
  <path d="M29.20 21.55 c0.20 -0.30 0 -0.55 -0.50 -0.55 -0.65 0 -0.75 -0.15 -0.40 -0.50 0.65 -0.65 2.30 -0.10 2.05 0.65 -0.10 0.30 -0.45 0.65 -0.85 0.75 -0.35 0.15 -0.50 0 -0.30 -0.35z"/>
  <path d="M31 19.75 c0 -0.80 -0.30 -1.25 -0.75 -1.25 -0.40 0 -0.75 0.15 -0.75 0.40 0 0.20 -0.95 0.40 -2.15 0.40 -1.15 0.05 -1.60 0 -0.95 -0.15 0.60 -0.10 1.10 -0.55 1.10 -0.95 0 -0.40 0.20 -0.70 0.45 -0.70 0.25 0 0.35 -0.45 0.20 -1 -0.35 -1.35 -2.15 -1.35 -2.15 0 0 1.70 -1.95 2.05 -4.15 0.85 -2.10 -1.15 -3.85 -2.85 -2.95 -2.85 0.35 0 0.60 -0.55 0.60 -1.25 0 -0.90 0.35 -1.30 1.25 -1.55 1.40 -0.35 2.75 0 2.75 0.80 0 0.25 -0.35 0.50 -0.75 0.50 -1.45 0 -0.75 0.85 0.75 0.90 1.15 0 1.50 -0.20 1.50 -0.90 0 -0.50 0.35 -1.05 0.80 -1.20 1.80 -0.70 1.80 -0.20 -0.05 1.70 -2.55 2.60 -1.55 2.60 1.15 -0.05 1.60 -1.50 2.45 -2 3.50 -1.85 1.25 0.15 1.35 0.30 1.50 2.90 0.10 1.50 0.35 2.95 0.55 3.15 0.40 0.40 -0.70 3.35 -1.25 3.35 -0.10 0 -0.20 -0.55 -0.20 -1.25z"/>
 </g>
 <g fill="#202224">
  <path d="M12.55 30.90 c0.20 -3.95 0.15 -4.15 -0.90 -4.30 -1.25 -0.20 -2 -2.35 -1.10 -3.40 0.85 -1 0.30 -1.30 -1.25 -0.70 -1.95 0.70 -2.05 0.70 -4.05 -1.05 -4.25 -3.75 -3.80 -8.95 0.65 -7.40 1.10 0.35 1.80 0.35 2.55 0 1.20 -0.70 1.55 -0.70 1.55 -0.05 0 0.25 -0.60 0.80 -1.35 1.20 -0.90 0.50 -1.10 0.75 -0.60 0.80 0.45 0 1.30 -0.40 1.90 -0.85 l1.10 -0.90 -1.65 -3.20 -1.60 -3.20 1.15 -0.90 c1.20 -1 2.35 -0.85 1.70 0.20 -0.15 0.35 0.15 0.20 0.75 -0.35 0.60 -0.50 1.35 -0.80 1.75 -0.65 1.05 0.40 3.85 -1 3.85 -1.95 0 -0.80 -0.10 -0.75 -1.10 0.15 -2.55 2.25 -3.35 1.90 -1.10 -0.50 1.15 -1.25 1.55 -1.40 3.95 -1.20 2.50 0.20 4.25 0.95 4.25 1.85 0 0.45 -2.35 1.50 -3.40 1.50 -0.50 0 -2 0.75 -3.40 1.65 -1.40 0.95 -2.90 1.80 -3.35 2 -0.45 0.15 -0.85 0.75 -0.85 1.35 0 0.90 0.25 0.80 2.40 -0.85 2.70 -2.10 7.50 -4.35 10.25 -4.85 1 -0.20 1.85 -0.65 1.85 -1 0 -1.05 2.60 -3.45 3 -2.75 0.30 0.40 0.45 0.35 0.60 -0.10 0.20 -0.55 0.50 -0.50 1.50 0.15 1.80 1.20 2.50 5.30 1.30 7.55 -0.65 1.25 -1 8.45 -0.40 8.85 0.25 0.15 0 0.85 -0.50 1.50 l-1 1.25 0 -1.20 c0 -0.95 -0.20 -1.10 -1.10 -0.85 -3.10 0.90 -3.85 0.85 -5.85 -0.15 -2.50 -1.30 -2.65 -2.05 -0.30 -2.05 0.95 0 1.75 0.25 1.75 0.55 0 0.80 3.10 0.15 3.85 -0.85 0.50 -0.70 0.60 -0.65 0.80 0.15 0.15 0.50 0.25 0 0.20 -1.10 -0.10 -1.65 -0.30 -2.05 -1.20 -2.15 -1.30 -0.20 -1.45 -0.60 -0.55 -1.50 0.40 -0.40 0.40 -0.60 0.05 -0.60 -0.30 0 -1.60 1.15 -2.95 2.50 -1.75 1.80 -2.80 2.50 -3.80 2.50 -0.80 0 -1.40 -0.25 -1.40 -0.55 0 -0.30 -0.30 -0.45 -0.70 -0.30 -0.35 0.15 -0.95 0 -1.25 -0.30 -0.80 -0.80 -1.30 0 -0.55 0.90 0.40 0.50 0.45 0.75 0.05 0.75 -0.30 0 -0.55 0.35 -0.55 0.75 0 0.45 -0.55 1.65 -1.25 2.75 -1.45 2.30 -1.50 2.50 -0.50 2.50 0.45 0 0.75 0.45 0.75 1.25 0 0.70 0.25 1.25 0.50 1.25 0.75 0 0.55 4.65 -0.25 5.70 -0.40 0.55 -0.75 1.75 -0.75 2.65 0 1.55 -0.10 1.65 -1.80 1.65 l-1.80 0 0.15 -4.10z m3.10 -0.05 c1.10 -2.70 1.15 -3.95 0.05 -2.40 -0.90 1.25 -1.80 4.55 -1.25 4.55 0.15 0 0.70 -0.95 1.20 -2.15z m0 -6 c-0.40 -2.20 -0.50 -2.20 -0.75 0.05 -0.10 1.40 0 1.90 0.45 1.75 0.40 -0.15 0.50 -0.80 0.30 -1.80z m-6.15 -4.60 c1.40 -0.70 1.50 -0.70 1.50 0.05 0 0.50 0.15 0.75 0.30 0.55 0.15 -0.15 0.15 -0.95 -0.05 -1.85 -0.25 -1.25 -0.55 -1.50 -1.50 -1.35 -0.60 0.05 -1.50 0.45 -1.95 0.80 -0.45 0.40 -1.30 0.55 -2.05 0.35 -0.70 -0.20 -1.25 -0.10 -1.25 0.15 0 0.60 1.05 1.40 2.25 1.70 0.55 0.10 1.05 0.25 1.15 0.30 0.10 0 0.80 -0.30 1.60 -0.70z m7.20 -5.75 c0.30 0 1.05 -0.55 1.75 -1.15 0.75 -0.65 2.10 -1.70 3.15 -2.30 l1.80 -1.10 -0.25 1.15 c-0.20 1.05 -0.15 1.10 0.50 0.30 0.40 -0.50 0.90 -0.90 1.10 -0.90 0.25 0 0.80 -0.35 1.25 -0.75 0.70 -0.65 0.95 -0.65 2.20 0.05 0.80 0.40 1.45 0.65 1.50 0.60 0.05 -0.10 0.35 -0.65 0.70 -1.25 0.35 -0.70 0.40 -1.15 0.10 -1.15 -0.25 0 -0.50 -0.20 -0.50 -0.50 0 -0.25 0.35 -0.50 0.80 -0.50 0.40 0 1.10 -0.35 1.50 -0.75 1.40 -1.35 -1.10 -0.90 -2.60 0.50 -1.60 1.50 -2.45 1.60 -1.70 0.25 0.50 -0.95 0.40 -1 -1.60 -0.80 -3.05 0.30 -7.40 2.05 -10.90 4.35 -3.05 2.05 -4.40 3.40 -2.80 2.80 1 -0.40 0.70 0.30 -0.80 1.95 -0.80 0.90 -0.85 1.25 -0.30 2.45 l0.60 1.35 2.05 -2.30 c1.10 -1.25 2.20 -2.30 2.45 -2.30z m-11.70 0.30 c-0.30 -0.30 -0.75 -0.20 -1.25 0.20 -1.15 0.95 -0.90 1.45 0.45 0.85 0.75 -0.35 1.05 -0.80 0.80 -1.05z m18.25 -1.30 c0.15 -0.30 -0.20 -0.45 -0.95 -0.40 -0.65 0.05 -1.10 0.30 -1 0.50 0.35 0.55 1.60 0.50 1.95 -0.10z"/>
  <path d="M13.50 15 c0 -0.25 0.50 -0.75 1.15 -1.05 1.10 -0.60 1.10 -0.60 0.15 0.50 -1.05 1.15 -1.30 1.30 -1.30 0.55z"/>
  <path d="M30.50 31.80 c0 -0.65 -0.35 -1.45 -0.75 -1.80 -0.80 -0.65 -0.90 -4 -0.15 -4 0.20 0 0.40 -0.30 0.40 -0.70 0 -0.35 0.35 -1.35 0.75 -2.10 0.60 -1.20 0.75 -1.25 0.75 -0.45 0 0.55 0.60 2.15 1.25 3.50 1 1.95 1.20 2.95 1 4.40 -0.20 1 -0.55 1.85 -0.80 1.85 -0.55 0 -1.15 -2.30 -0.75 -2.90 0.15 -0.25 0 -1.35 -0.35 -2.40 -0.55 -1.50 -0.75 -1.70 -0.95 -0.90 -0.15 0.50 -0.05 1.40 0.15 1.95 0.55 1.45 0.55 4.75 -0.05 4.75 -0.25 0 -0.50 -0.55 -0.50 -1.20z"/>
  <path d="M20 22.75 c0 -0.45 -0.45 -0.75 -1.25 -0.75 -1.50 0 -1.60 -0.55 -0.30 -1.35 0.75 -0.50 1.10 -0.45 1.55 0.10 0.80 0.95 1.50 0.95 1.50 0 0 -1 -1.60 -1.75 -2.90 -1.40 -1.30 0.30 -1.40 -0.10 -0.30 -1.20 0.75 -0.75 1.10 -0.70 4.10 0.85 2.20 1.10 3.05 1.75 2.50 1.90 -0.50 0.10 -0.90 0.40 -0.90 0.70 0 0.35 -0.25 0.30 -0.70 -0.05 -0.55 -0.45 -0.90 -0.30 -1.70 0.70 -1.15 1.45 -1.60 1.60 -1.60 0.50z"/>
  <path d="M21.50 23.30 c0 -0.10 0.35 -0.45 0.75 -0.80 0.60 -0.50 0.75 -0.50 0.75 0.20 0 0.45 -0.35 0.80 -0.75 0.80 -0.40 0 -0.75 -0.10 -0.75 -0.20z"/>
  <path d="M27.80 21.60 c-0.45 -0.75 0.95 -1.65 1.90 -1.30 0.45 0.20 0.75 0.60 0.65 0.90 -0.25 0.70 -2.15 1 -2.55 0.40z"/>
  <path d="M27.75 14.20 c-1 -0.75 -1 -0.80 0.20 -0.60 0.70 0.10 1.30 0.45 1.45 0.80 0.25 0.80 -0.45 0.75 -1.65 -0.20z"/>
 </g>
 <g fill="#41210a">
  <path d="M17.50 37.25 c0 -1.75 0 -1.75 2.25 -1.75 2.25 0 2.25 0 2.25 1.75 0 1.75 0 1.75 -2.25 1.75 -2.25 0 -2.25 0 -2.25 -1.75z"/>
  <path d="M13.10 34.50 c0.15 -1.80 0.05 -2 -0.95 -2 -1.45 0 -1.45 -0.60 0.10 -2.35 0.95 -1.10 1.20 -1.20 1.25 -0.50 0 0.45 0.20 0.85 0.50 0.85 0.25 0 0.35 0.65 0.15 1.60 -0.45 2.30 0.45 1.40 1.60 -1.55 0.95 -2.45 2.20 -3.30 3 -2.05 0.75 1.25 1.05 0.30 0.45 -1.35 -0.35 -1.05 -0.65 -2.50 -0.70 -3.25 0 -0.80 -0.20 -1.40 -0.50 -1.40 -0.25 0 -0.50 1 -0.50 2.25 0 3 -1.35 3.15 -1.80 0.25 -0.40 -2.30 -0.75 -2.30 -1 0.05 -0.30 2.60 -0.70 2.35 -0.70 -0.45 0 -2.55 0.05 -2.60 1.50 -2.60 1.20 0 1.50 -0.20 1.55 -1.10 0 -0.65 0.15 -0.85 0.30 -0.55 0.15 0.40 0.70 0.55 1.40 0.35 0.60 -0.15 1.30 -0.05 1.45 0.25 0.20 0.30 0.55 0.55 0.85 0.55 0.70 0 0.55 -1.90 -0.15 -2.15 -0.35 -0.15 0.05 -0.20 0.90 -0.15 1.60 0.15 4.70 1.75 4.70 2.40 0 0.65 -2.75 0.45 -3.45 -0.20 -0.50 -0.55 -0.75 -0.45 -1.35 0.30 -1 1.35 -0.90 2.20 0.15 1.15 0.80 -0.80 0.90 -0.70 1.75 1.05 0.45 1 0.85 2.60 0.90 3.50 0 1.50 -0.10 1.60 -1.60 1.60 -1.35 0.05 -1.50 0.10 -0.75 0.55 0.55 0.30 0.85 1.10 0.85 2.20 l0 1.70 -3.10 0.15 c-3 0.15 -3.15 0.20 -3.30 1.55 -0.15 1.20 -0.40 1.35 -1.95 1.35 -1.75 0 -1.75 0 -1.55 -2z"/>
  <path d="M24.50 34.25 c0 -1.60 0.10 -1.75 1.55 -1.75 1.50 0 1.55 0 1.20 -2 -0.40 -2.35 0.25 -3.50 2.05 -3.50 0.85 0 1.20 0.30 1.20 0.95 0 0.55 0.25 1.15 0.50 1.30 0.85 0.50 0.60 3.25 -0.30 3.25 -0.55 0 -0.65 -0.30 -0.45 -0.95 0.15 -0.55 0 -1.15 -0.30 -1.35 -0.40 -0.25 -0.45 -0.15 -0.20 0.30 0.25 0.40 -0.30 1.25 -1.55 2.40 -1.10 1 -1.55 1.65 -1.05 1.45 0.60 -0.25 0.85 -0.05 0.85 0.65 0 0.80 -0.35 1 -1.75 1 -1.65 0 -1.75 -0.10 -1.75 -1.75z"/>
  <path d="M10 21.05 c0 -0.60 0.25 -1.05 0.50 -1.05 0.30 0 0.50 0.30 0.50 0.70 0 0.40 -0.20 0.90 -0.50 1.05 -0.25 0.15 -0.50 -0.15 -0.50 -0.70z"/>
  <path d="M11.50 20.45 l0 -1.60 1 1.30 c0.55 0.70 1 1.40 1 1.55 0 0.15 -0.45 0.30 -1 0.30 -0.80 0 -1 -0.35 -1 -1.55z"/>
  <path d="M24.40 18.60 c-1.60 -0.70 -1.90 -1.10 -1.90 -2.35 0 -1.65 1.85 -3.75 3.30 -3.75 0.70 0 0.60 0.30 -0.70 1.65 -2.15 2.20 -2.05 2.85 0.15 0.90 1 -0.85 2 -1.55 2.25 -1.55 1 0 0.45 2.30 -0.80 3.45 -0.95 0.90 -1.10 1.30 -0.60 1.60 1.30 0.80 0.10 0.80 -1.70 0.05z"/>
  <path d="M29 16.70 c0 -1.95 0.35 -2.15 1 -0.55 l0.45 1.10 0 -1.15 c0.05 -1.65 1.20 -1.10 1.60 0.70 0.25 1.45 0.20 1.50 -1.40 1.55 -1.55 0.05 -1.65 -0.05 -1.65 -1.65z"/>
 </g>
 <g fill="#2e3235">
  <path d="M12.10 34.40 c0.10 -1.55 0.40 -2.20 1.05 -2.30 0.55 -0.10 0.85 0.15 0.85 0.70 0 0.80 0.05 0.80 1 -0.05 1 -0.90 1 -0.85 1 1.40 l0 2.35 -2.05 0 -2 0 0.15 -2.10z"/>
  <path d="M24 32.25 c0 -1.50 0.15 -1.75 1.15 -1.75 0.60 0 1.35 -0.40 1.70 -0.90 0.35 -0.60 1.20 -0.95 2.35 -1 1.70 -0.05 1.80 0 1.80 1.60 0 0.90 -0.35 1.95 -0.75 2.30 -0.65 0.55 -0.70 0.50 -0.40 -0.25 0.30 -0.85 0.25 -0.85 -1 0.05 -0.70 0.50 -1.35 1.10 -1.35 1.35 0 0.20 -0.80 0.35 -1.75 0.35 -1.65 0 -1.75 -0.10 -1.75 -1.75z"/>
  <path d="M19.70 31.15 c0.30 -1.70 0.25 -1.80 -0.35 -1 -1.05 1.30 -1.35 1.05 -1.35 -1 0.05 -1.55 0.15 -1.75 0.55 -1 0.60 1.05 1.55 1.15 1.15 0.10 -0.20 -0.50 0 -0.75 0.75 -0.75 0.60 0 1.05 0.30 1.05 0.75 0 0.40 0.35 0.75 0.75 0.75 0.55 0 0.75 0.55 0.75 2 0 1.95 -0.05 2 -1.80 2 l-1.80 0 0.30 -1.85z"/>
  <path d="M32.50 29.65 c-0.05 -0.80 -0.35 -2.05 -0.70 -2.90 l-0.65 -1.50 -0.35 1.45 c-0.30 1.15 -0.45 1.35 -0.85 0.75 -0.75 -1.25 -0.50 -3.20 0.55 -3.85 0.80 -0.50 1 -0.50 1 0 0 0.35 0.55 1.70 1.20 2.95 0.75 1.40 1.15 2.75 0.95 3.40 -0.40 1.50 -1.15 1.30 -1.15 -0.30z"/>
  <path d="M13.30 28.25 c-0.25 -1.30 -0.60 -1.75 -1.30 -1.75 -0.55 0 -1 -0.35 -1 -0.75 0 -0.40 -0.20 -0.75 -0.50 -0.75 -0.75 0 -0.60 -1.05 0.30 -2.05 0.40 -0.45 0.80 -1.55 0.80 -2.40 0.05 -1.45 0.10 -1.50 0.75 -0.55 0.65 0.90 0.75 0.90 1.55 0.10 1 -1 2.35 -3.80 1.60 -3.35 -0.85 0.55 -0.55 -0.55 0.40 -1.45 0.90 -0.75 1 -0.75 1.80 0.15 0.50 0.55 0.75 1.20 0.60 1.50 -0.20 0.25 0.20 0.55 0.80 0.65 1.80 0.25 1.60 1.30 -0.30 1.65 -1.25 0.25 -1.65 0.55 -1.45 1.05 0.15 0.40 0.75 0.70 1.35 0.60 0.75 -0.10 1.10 0.15 1.20 1 0.15 0.95 -0.05 1.10 -1.65 1.10 l-1.80 0 0.25 3.65 0.30 3.60 -0.70 -3 c-0.40 -1.65 -0.60 -3.15 -0.50 -3.35 0.10 -0.20 0 -0.45 -0.30 -0.65 -0.25 -0.15 -0.55 0 -0.60 0.35 0 0.35 -0.10 0.90 -0.15 1.15 -0.10 0.30 -0.15 1.55 -0.20 2.90 -0.05 2.75 -0.80 3.10 -1.25 0.60z"/>
  <path d="M5.10 21.25 c-1.85 -1.55 -3.30 -4.95 -2.65 -6.20 0.30 -0.50 0.85 -1.20 1.30 -1.55 0.70 -0.60 0.90 -0.55 1.25 0.05 0.30 0.45 1.30 0.70 2.85 0.65 l2.40 -0.05 -1.60 0.65 c-1.15 0.50 -2 0.55 -2.95 0.20 -1.50 -0.60 -2.70 0.05 -2.70 1.40 0 0.60 0.15 0.65 0.60 0.20 0.70 -0.70 2.40 -0.80 2.40 -0.15 0 0.50 -1.50 1.25 -2.15 1.10 -0.20 0 -0.05 0.60 0.40 1.40 0.85 1.75 3.75 2.60 5.30 1.60 1.20 -0.75 1.45 -0.70 1.45 0.20 0 0.90 -1.55 1.75 -3.20 1.75 -0.65 0 -1.90 -0.55 -2.70 -1.25z"/>
  <path d="M31.15 19.40 c0.20 -1.25 0.10 -1.35 -0.95 -1.10 -1.05 0.30 -1.20 0.15 -1.20 -1.25 0 -0.85 0.25 -1.55 0.50 -1.55 0.30 0 0.50 0.35 0.50 0.75 0 0.40 0.15 0.75 0.40 0.75 0.20 0 0.30 -1 0.20 -2.25 -0.20 -2.10 -0.25 -2.25 -1.45 -1.95 -1.15 0.30 -1.20 0.25 -0.70 -0.75 0.35 -0.55 1.05 -1.05 1.55 -1.05 0.55 0 1 -0.20 1 -0.50 0 -0.25 -0.20 -0.50 -0.50 -0.50 -0.25 0 -0.50 -0.20 -0.50 -0.50 0 -0.25 0.45 -0.50 1 -0.50 0.50 0 1.15 -0.40 1.45 -0.85 0.95 -1.75 1 -0.30 0.05 1.50 -0.55 1 -0.80 1.85 -0.50 1.85 0.25 0 0.50 0.70 0.50 1.50 0 1.10 -0.25 1.50 -0.85 1.50 -0.65 0 -0.70 0.15 -0.25 0.60 0.35 0.35 0.60 1.10 0.60 1.70 0 0.60 0.20 1.20 0.50 1.30 0.25 0.10 0 0.70 -0.55 1.40 l-1.05 1.25 0.25 -1.35z"/>
  <path d="M21.15 16 c-0.20 -0.70 -0.55 -0.95 -1.15 -0.75 -0.45 0.15 -1.15 -0.10 -1.50 -0.50 -0.65 -0.80 -0.20 -1.40 2.15 -2.80 1.20 -0.70 2.25 0 1.15 0.80 -0.70 0.55 -0.70 0.70 -0.10 1.25 0.85 0.65 1.80 0.30 1.80 -0.70 0 -0.40 0.70 -1.35 1.50 -2.15 1.15 -1.10 1.85 -1.45 2.80 -1.25 1.25 0.25 1.20 0.30 -1.50 3.05 -2.80 2.85 -3.45 3.90 -2.05 3.35 0.40 -0.15 0.75 -0.05 0.75 0.20 0 0.30 -0.80 0.50 -1.80 0.50 -1.40 0 -1.85 -0.25 -2.05 -1z"/>
  <path d="M26.45 14.35 c0.75 -0.95 2.30 -1.15 2.80 -0.35 0.15 0.30 0 0.50 -0.35 0.50 -0.35 0 -1.20 0.15 -1.90 0.35 -1.10 0.30 -1.20 0.25 -0.55 -0.50z"/>
  <path d="M10 12.25 c-0.25 -0.70 -0.80 -1.90 -1.25 -2.70 -0.65 -1.35 -0.65 -1.55 0.05 -2.25 0.40 -0.45 0.95 -0.80 1.20 -0.80 0.40 0 0.95 2.50 1.15 5.10 0.10 1.25 0.15 1.25 1 0.55 0.50 -0.45 0.85 -0.55 0.85 -0.25 0 0.50 -1.50 1.60 -2.25 1.60 -0.15 0 -0.50 -0.55 -0.75 -1.25z"/>
  <path d="M14 11 c0 -1.20 6.60 -4.75 10.65 -5.70 2.60 -0.60 1.30 0.50 -1.90 1.65 -1.75 0.65 -4.45 1.90 -6 2.80 -1.50 0.95 -2.75 1.50 -2.75 1.25z"/>
  <path d="M32.70 6.10 c0.30 -0.80 0 -0.90 -2.65 -0.75 -3.45 0.15 -4.10 -0.40 -2.70 -2.25 1.50 -2 2.40 -2.40 3.85 -1.65 1.75 0.95 3.20 5.55 1.75 5.55 -0.30 0 -0.40 -0.40 -0.25 -0.90z"/>
  <path d="M13.50 5.65 c0 -0.25 0.55 -1.05 1.25 -1.80 1.10 -1.15 1.65 -1.35 3.75 -1.25 2.05 0.10 2.35 0.25 1.85 0.85 -0.50 0.60 -0.40 0.65 0.80 0.35 1.65 -0.40 1.80 0.35 0.25 1.40 -1.05 0.75 -3.45 1.15 -2.75 0.50 0.30 -0.35 -1.45 -2.20 -2.10 -2.20 -0.25 0 -0.55 0.30 -0.70 0.70 -0.35 0.80 -2.35 2.05 -2.35 1.45z"/>
 </g>
 <g fill="#4d3516">
  <path d="M6.50 39.30 c0 -0.85 3.55 -6.25 4.15 -6.30 0.20 0 0.35 1.60 0.35 3.50 l0 3.50 -2.25 0 c-1.60 0 -2.25 -0.20 -2.25 -0.70z"/>
  <path d="M15.50 38.25 c0 -1.30 0.20 -1.75 0.85 -1.75 0.45 0 1.60 -0.25 2.50 -0.60 1.30 -0.50 1.65 -0.90 1.65 -1.95 0 -0.95 -0.30 -1.40 -1.10 -1.65 -1.10 -0.30 -1.10 -0.35 -0.25 -1 0.45 -0.35 0.85 -1.10 0.85 -1.60 0 -1.20 -0.85 -2.55 -1.30 -2.05 -0.20 0.15 -0.10 0.65 0.25 1 0.65 0.80 0.20 2.50 -0.50 2.05 -0.25 -0.15 -0.45 0.20 -0.45 0.70 0 0.55 -0.35 1.25 -0.75 1.60 -0.40 0.35 -0.75 1.15 -0.75 1.80 0 1.05 -0.25 1.20 -1.75 1.20 -1.75 0 -1.75 -0.05 -1.75 -2.10 0.05 -1.20 0.35 -2.80 0.75 -3.65 0.75 -1.50 0.75 -1.50 0.45 0.95 -0.15 1.35 -0.40 2.75 -0.55 3.10 -0.15 0.40 0.05 0.70 0.55 0.70 0.50 0 0.65 -0.30 0.50 -0.75 -0.20 -0.40 -0.05 -1.10 0.30 -1.50 0.35 -0.40 0.45 -0.75 0.25 -0.75 -0.20 0 0 -0.60 0.50 -1.30 0.60 -0.95 0.75 -1.80 0.45 -3.35 -0.20 -1.15 -0.40 -2.50 -0.45 -3 -0.15 -2 -1.05 -1.80 -1.20 0.25 -0.05 1.15 -0.20 2.20 -0.30 2.30 -0.30 0.35 -2.20 -0.45 -3 -1.20 -0.85 -0.85 -1.05 -2.95 -0.25 -2.45 0.45 0.30 0.75 -1.85 0.55 -3.75 -0.10 -0.45 0.20 -0.30 0.70 0.40 0.75 1 0.90 1.05 1.60 0.30 0.45 -0.40 1.20 -1.50 1.65 -2.45 0.75 -1.50 0.75 -1.65 0.05 -1.35 -0.70 0.25 -0.70 0.15 -0.15 -0.50 1 -1.25 3.25 -0.50 3 1 -0.05 0.50 0.05 1.15 0.25 1.50 0.30 0.40 0.10 0.60 -0.60 0.60 -0.60 0 -1.05 0.15 -1.05 0.40 0 0.70 0.95 1.80 1.65 1.90 0.40 0.05 1.20 0.25 1.80 0.45 1.05 0.30 1.10 0.40 0.25 1.30 -1.20 1.30 -0.30 1.20 1.15 -0.15 0.85 -0.75 1.15 -0.85 1.15 -0.35 0 0.40 0.40 1.15 0.80 1.70 0.75 0.95 0.75 0.95 0.40 -0.50 -0.45 -1.90 -1.20 -2.85 -2 -2.55 -0.50 0.20 -1.40 -2.15 -0.95 -2.60 0.05 -0.10 1.30 0.45 2.70 1.25 2.05 1.15 2.55 1.65 2.55 2.70 0 0.75 0.35 1.60 0.75 1.95 1.15 0.95 0.90 1.70 -0.75 2.65 -0.80 0.50 -1.50 1.10 -1.50 1.40 0 0.25 0.70 0.15 1.50 -0.30 0.85 -0.45 1.50 -1 1.50 -1.30 0 -0.30 0.35 -0.40 0.80 -0.25 0.75 0.30 0.75 0.20 0 -0.95 -0.70 -1.10 -0.75 -1.25 -0.05 -1.25 0.40 0 1.25 -0.50 1.85 -1.10 l1.05 -1.05 -0.40 2.20 c-0.45 2.65 -0.45 2.90 0.10 6.45 0.25 1.50 1 3.75 1.65 4.95 0.90 1.60 1.05 2.25 0.65 2.40 -0.35 0.15 -0.65 0.55 -0.65 0.95 0 0.40 -0.50 0.70 -1.25 0.70 -0.70 0 -1.25 -0.05 -1.25 -0.15 0 -0.05 0.25 -0.90 0.50 -1.85 0.55 -1.85 0.25 -4.50 -0.55 -4.50 -0.25 0 -0.45 0.95 -0.45 2.15 0 3.10 -0.45 4.35 -1.60 4.35 -0.75 0 -0.90 -0.25 -0.65 -0.95 0.25 -0.80 0.10 -0.90 -0.75 -0.70 -0.55 0.15 -1 0.60 -1 0.95 0 0.55 -1.10 0.70 -5.25 0.70 l-5.25 0 0 -1.75z m13.45 -5.20 c0.85 -0.80 1.55 -1.70 1.55 -1.95 0 -1 -1.10 -1.20 -1.90 -0.45 -0.70 0.75 -0.65 0.75 0.45 0.50 l1.20 -0.30 -1.25 1.40 c-0.70 0.75 -1.70 1.55 -2.25 1.75 -0.75 0.35 -0.80 0.45 -0.20 0.45 0.45 0.05 1.55 -0.60 2.40 -1.40z m-2.95 -0.90 c0 -0.85 -0.80 -1.50 -2.10 -1.75 -1.20 -0.25 -1.40 -0.10 -1.40 0.90 0 1.05 0.25 1.20 1.75 1.20 0.95 0 1.75 -0.15 1.75 -0.35z m-3.50 -6.70 c0 -0.70 -0.80 -0.55 -1.45 0.25 -0.50 0.60 -0.40 0.65 0.40 0.45 0.60 -0.15 1.05 -0.45 1.05 -0.70z"/>
  <path d="M32.55 30.75 c0 -1.10 -0.25 -2.75 -0.50 -3.65 -0.30 -0.90 -0.30 -1.50 -0.05 -1.35 0.60 0.35 1.15 4.25 0.85 5.80 -0.15 0.80 -0.25 0.50 -0.30 -0.80z"/>
  <path d="M31.30 19.40 c0.30 -1.30 0.25 -1.35 -1.50 -1.05 -1.70 0.25 -1.80 0.20 -1.80 -1 0 -0.70 -0.20 -1.45 -0.50 -1.60 -0.25 -0.15 -0.50 0.05 -0.50 0.45 0 0.45 -0.20 0.80 -0.50 0.80 -0.25 0 -0.50 0.45 -0.50 1 0 0.55 0.25 1 0.60 1 0.30 0 0.45 0.15 0.25 0.30 -0.40 0.45 -5.90 -2.35 -6.20 -3.15 -0.15 -0.35 -0.55 -0.65 -0.90 -0.65 -0.35 0 -0.90 -0.30 -1.20 -0.65 -0.40 -0.50 -0.20 -0.95 0.95 -1.80 0.85 -0.60 1.45 -0.90 1.40 -0.65 -0.10 0.20 0.60 1.25 1.50 2.30 l1.65 1.90 1.60 -1.60 c1.95 -1.90 3.35 -1.80 4.05 0.35 0.30 0.85 0.75 1.75 1 2 0.25 0.25 0.30 0 0.15 -0.50 -0.20 -0.50 -0.35 -1.70 -0.35 -2.60 0 -1.35 -0.25 -1.70 -1.10 -1.90 -1.05 -0.20 -1.05 -0.20 -0.10 -0.30 0.55 0 1.55 0.45 2.20 1.05 1.10 1 1.10 1.15 0.35 1.30 -0.70 0.15 -0.80 0.35 -0.30 0.90 0.30 0.40 0.45 1.15 0.30 1.70 -0.15 0.55 -0.05 1 0.20 1 0.65 0 0.55 0.70 -0.30 1.80 -0.75 0.90 -0.75 0.90 -0.45 -0.40z"/>
  <path d="M23.25 15.05 c-0.50 -0.90 0.40 -1.95 1.40 -1.60 0.85 0.30 0.85 0.40 -0.05 1.25 -0.65 0.55 -1.10 0.70 -1.35 0.35z"/>
 </g>
 <g fill="#822d06">
  <path d="M16.50 37.90 c0 -0.20 -0.35 -0.40 -0.80 -0.40 -0.90 0 -2.20 -1.15 -2.20 -1.95 0 -0.30 0.35 -0.55 0.75 -0.55 0.40 0 0.75 -0.45 0.75 -1 0 -0.55 0.45 -1.90 1.05 -3 0.80 -1.50 1.35 -2 2.25 -2 1.40 0 1.50 0.35 0.35 2 l-0.85 1.20 1.20 -0.85 c1.10 -0.75 1.20 -0.75 1.80 0.05 0.60 0.75 0.65 0.75 0.70 0.05 0 -0.45 -0.35 -0.95 -0.75 -1.15 -1.10 -0.40 -0.90 -1.30 0.25 -1.30 0.75 0 1.10 0.45 1.35 1.50 0.15 0.85 0.50 1.65 0.70 1.80 0.80 0.45 0.50 1.70 -0.40 1.70 -0.85 0.05 -0.85 0.05 0 0.55 1.15 0.65 1.10 1.45 -0.15 1.45 -0.55 0 -1 0.30 -1 0.70 0 0.45 -0.40 0.60 -1.35 0.40 -1.25 -0.25 -1.35 -0.20 -0.70 0.60 0.65 0.75 0.55 0.85 -1.10 0.70 -1.05 -0.05 -1.85 -0.30 -1.85 -0.50z"/>
  <path d="M13.50 32.60 c0 -0.85 0.20 -1.70 0.50 -1.85 0.30 -0.20 0.35 0.30 0.15 1.35 -0.40 2.20 -0.65 2.40 -0.65 0.50z"/>
  <path d="M18.40 22.80 c-0.50 -0.35 -0.90 -0.95 -0.90 -1.30 0 -0.35 0.15 -0.50 0.35 -0.35 0.15 0.20 0.55 0.15 0.85 -0.10 0.35 -0.30 1 -0.10 1.70 0.45 1.10 0.90 1.10 0.95 0.15 1.45 -1.20 0.65 -1.10 0.65 -2.15 -0.15z"/>
 </g>
 <g fill="#5b4423">
  <path d="M3.50 39.50 c0.40 -0.25 1.15 -0.50 1.60 -0.50 0.50 0 1.80 -1.20 2.90 -2.60 1.10 -1.45 2.25 -2.90 2.50 -3.25 0.30 -0.35 0.50 -0.85 0.50 -1.15 0 -0.25 0.25 -0.50 0.50 -0.50 0.30 0 0.50 0.45 0.50 1 0 0.65 0.35 1 1 1 0.65 0 0.90 0.25 0.70 0.75 -0.25 0.55 0.05 0.75 1 0.75 0.75 0 1.30 0.30 1.30 0.70 0 0.35 0.60 0.80 1.40 1 0.75 0.15 2.15 0.95 3.10 1.80 l1.70 1.50 -3.10 0 -3.10 0 0 -1.50 c0 -1.40 -0.15 -1.50 -1.75 -1.50 -1.60 0 -1.75 0.10 -1.75 1.50 l0 1.50 -4.85 0 c-3.35 0 -4.65 -0.15 -4.15 -0.50z"/>
  <path d="M23 39.50 c0 -0.25 0.20 -0.50 0.45 -0.50 0.25 0 0.80 -0.15 1.25 -0.30 0.55 -0.20 0.80 -0.05 0.80 0.50 0 0.50 -0.45 0.80 -1.25 0.80 -0.70 0 -1.25 -0.20 -1.25 -0.50z"/>
  <path d="M28 39.65 c0 -0.25 0.35 -0.85 0.75 -1.35 0.70 -0.95 0.75 -0.95 0.75 0.35 0 0.85 -0.25 1.35 -0.75 1.35 -0.40 0 -0.75 -0.15 -0.75 -0.35z"/>
  <path d="M31.30 38.65 c0.20 -0.80 0.55 -1.55 0.85 -1.70 0.25 -0.20 0.20 -0.75 -0.15 -1.45 -0.30 -0.60 -0.45 -1.20 -0.35 -1.35 0.15 -0.10 0.40 0.25 0.60 0.80 0.15 0.55 1.35 1.95 2.65 3.05 l2.35 2 -3.15 0 -3.10 0 0.30 -1.35z"/>
  <path d="M22.10 37.45 c-2.10 -0.45 -2.20 -0.55 -1.80 -2.15 0.25 -1 0.55 -1.25 1.15 -1 2.30 0.95 4.90 0.80 6.65 -0.35 2.80 -1.85 3 -2.45 1.90 -5.90 l-1 -3 1.30 -1.30 1.35 -1.35 -0.40 1.90 c-0.45 2.30 -0.45 3.05 -0.10 6.65 0.15 1.45 0.15 2.55 0 2.35 -0.55 -0.50 -2.90 1.80 -3.15 3.10 -0.20 1.15 -0.50 1.30 -2.25 1.35 -1.10 0.05 -2.75 -0.10 -3.65 -0.30z"/>
  <path d="M21.25 33.50 c-0.20 -0.30 0.25 -0.50 0.95 -0.50 0.80 0 1.30 -0.30 1.30 -0.75 0 -0.40 -0.35 -0.75 -0.80 -0.75 -1.05 0 -1.95 -1 -2.35 -2.60 -0.30 -1.10 -0.15 -1.50 0.90 -2.20 1.25 -0.80 1.65 -1.70 0.75 -1.70 -0.60 0 -3.50 2.85 -3.50 3.45 0 0.25 0.30 0.55 0.65 0.70 0.90 0.30 -0.55 1.85 -1.80 1.85 -0.85 0 -0.95 -0.25 -0.70 -1.65 0.30 -1.95 -0.75 -6.45 -1.60 -6.75 -0.30 -0.10 -0.55 0 -0.50 0.25 0.05 0.20 0.05 1.35 0 2.55 -0.05 2.75 -0.70 2.75 -3.60 -0.15 -1 -1 -1 -2.10 0 -1.90 0.30 0.10 0.55 -0.20 0.55 -0.65 0 -0.55 0.30 -0.70 1 -0.45 0.85 0.25 1 0.10 1 -1 0 -1.10 0.20 -1.30 1 -1.10 0.55 0.15 1 0 1 -0.30 0 -0.30 0.35 -1.55 0.80 -2.75 l0.85 -2.15 1.20 1.15 c1 0.95 1.05 1.15 0.40 1.55 -0.40 0.20 -0.65 0.60 -0.50 0.80 0.10 0.25 -0.25 0.55 -0.85 0.70 -1.05 0.30 -1.05 0.35 -0.20 1.25 0.50 0.60 1.25 0.90 1.85 0.75 0.50 -0.15 0.95 0 0.95 0.30 0 0.30 0.40 0.55 0.90 0.55 0.75 0.05 0.75 0.10 -0.10 0.75 -0.55 0.40 -1.45 0.60 -1.95 0.45 -0.65 -0.20 -0.85 -0.10 -0.65 0.25 0.55 0.80 3.30 0.65 3.60 -0.20 0.45 -1.10 0.95 -0.90 1.65 0.55 0.80 1.85 1.10 1.30 0.55 -1.05 -0.50 -2.30 -0.15 -2.95 1.15 -2 0.65 0.45 0.90 1.40 1 3.55 l0.10 2.95 -2 -0.15 -2 -0.10 1.20 1 c1.45 1.25 2.10 1.25 3.75 -0.05 1.75 -1.40 2.30 -0.80 0.80 0.80 -0.65 0.70 -0.95 1.25 -0.65 1.25 0.30 0 0.80 -0.35 1.15 -0.75 0.35 -0.40 0.85 -0.60 1.10 -0.45 0.25 0.15 -0.05 0.85 -0.70 1.55 -0.85 0.90 -0.90 1.15 -0.25 0.85 1.25 -0.45 0.60 1.05 -0.90 2 -1.35 0.90 -6 1.10 -6.50 0.30z"/>
  <path d="M32.65 30.50 c0 -1.25 0.10 -1.75 0.20 -1.10 0.10 0.60 0.10 1.60 0 2.25 -0.10 0.60 -0.20 0.10 -0.20 -1.15z"/>
  <path d="M21.50 20.70 c0 -0.45 -0.40 -1.15 -0.85 -1.50 -1.45 -1.05 -0.35 -1.35 1.30 -0.40 1.80 1.05 1.90 1.45 0.55 2.20 -0.80 0.45 -1 0.40 -1 -0.30z"/>
  <path d="M31.30 19.30 c0.30 -1.25 0.25 -1.40 -0.75 -1.05 -0.75 0.25 -1.05 0.10 -1.05 -0.45 0 -0.45 -0.45 -0.80 -1 -0.80 -0.55 0 -1 -0.20 -1 -0.50 0 -0.25 -0.20 -0.50 -0.50 -0.50 -0.25 0 -0.50 0.75 -0.50 1.70 0 1.45 -0.15 1.65 -1 1.45 -0.55 -0.15 -1 -0.45 -1 -0.70 0 -0.25 -0.40 -0.45 -0.90 -0.45 -0.50 0 -1.40 -0.45 -2 -1 -0.60 -0.55 -1.25 -1 -1.50 -1 -0.45 0 -2.45 -1.95 -2.05 -2.05 3 -0.50 3.20 -0.40 5.10 2.25 0.65 0.90 0.80 0.85 2.45 -0.95 1.50 -1.65 1.85 -1.80 2.80 -1.30 0.65 0.35 1.10 1.05 1.10 1.75 0 0.65 0.35 1.30 0.75 1.50 0.55 0.20 0.75 -0.10 0.75 -1.10 0.05 -1.15 0.10 -1.25 0.55 -0.45 0.25 0.45 0.35 1.10 0.15 1.40 -0.15 0.30 -0.05 0.75 0.30 0.95 0.50 0.30 0.45 0.65 -0.20 1.55 l-0.85 1.20 0.35 -1.45z"/>
  <path d="M23.30 15.15 c-0.55 -0.55 -0.30 -1.15 0.45 -1.15 0.40 0 0.75 0.20 0.75 0.45 0 0.65 -0.80 1.10 -1.20 0.70z"/>
  <path d="M30.50 13.75 c0 -0.65 0.20 -0.70 1 -0.25 0.55 0.30 1 0.65 1 0.75 0 0.15 -0.45 0.25 -1 0.25 -0.55 0 -1 -0.35 -1 -0.75z"/>
 </g>
 <g fill="#39424b">
  <path d="M12 34.75 c0 -0.40 -0.20 -0.75 -0.50 -0.75 -0.75 0 -0.60 -1.90 0.30 -3.25 0.80 -1.20 2.70 -1.75 2.70 -0.75 0 1.85 -1.20 5.50 -1.80 5.50 -0.40 0 -0.70 -0.35 -0.70 -0.75z"/>
  <path d="M24.35 33.65 c-0.20 -0.15 -0.35 -1.05 -0.35 -2 0 -1.20 0.25 -1.65 0.90 -1.70 0.45 -0.05 1.70 -0.15 2.80 -0.25 1.85 -0.15 1.85 -0.10 1.05 0.75 -0.65 0.75 -0.65 1 -0.15 1.20 0.45 0.20 0.30 0.60 -0.60 1.30 -1.25 1 -3 1.35 -3.65 0.70z"/>
  <path d="M21 30.50 c-0.40 -0.25 -0.80 -1.05 -0.85 -1.75 -0.05 -0.95 0.15 -1.25 0.90 -1.25 0.75 0 0.95 0.35 0.95 1.75 0 1.95 0.05 1.90 -1 1.25z"/>
  <path d="M32.20 28.05 c-0.30 -1.40 -0.35 -2.40 -0.15 -2.25 0.70 0.40 1.75 2.95 1.55 3.85 -0.30 1.55 -0.90 0.90 -1.40 -1.60z"/>
  <path d="M13 27.30 c0 -0.40 -0.40 -0.85 -0.90 -1 -1.20 -0.40 -2.30 -2.30 -1.70 -2.90 0.35 -0.35 0.80 0 1.30 1.05 0.45 0.85 1 1.55 1.25 1.55 0.70 0 1.05 -2.10 0.70 -4.10 -0.25 -1.85 0.35 -2.60 1.10 -1.35 0.20 0.30 0.65 0.40 1.05 0.25 0.55 -0.20 0.70 0.25 0.65 2.10 -0.05 2 -0.10 2.10 -0.40 0.85 -0.15 -0.80 -0.55 -1.45 -0.80 -1.35 -0.55 0.10 -0.60 0.30 -0.70 3.35 -0.05 1.65 -0.25 2.25 -0.80 2.25 -0.40 0 -0.75 -0.30 -0.75 -0.70z"/>
  <path d="M30 25.90 c0 -1.35 0.20 -1.90 0.75 -1.90 0.90 0 0.90 0 0 2.05 l-0.70 1.70 -0.05 -1.85z"/>
  <path d="M12.10 23.90 c-0.90 -0.90 -0.75 -1.40 0.40 -1.40 0.65 0 1 0.35 1 1 0 1.15 -0.50 1.30 -1.40 0.40z"/>
  <path d="M4.95 20.90 c-1.50 -1.65 -2.45 -3.40 -2.45 -4.55 0 -0.35 0.45 0.35 0.95 1.50 1.30 2.80 5.30 4.80 6.30 3.15 0.15 -0.25 0.60 -0.50 0.90 -0.50 0.35 0.05 0.05 0.50 -0.60 1 -1.70 1.45 -3.35 1.25 -5.10 -0.60z"/>
  <path d="M21.50 20.55 c0 -1 -0.90 -1.55 -2.60 -1.55 -1.45 0 -2.55 -1.30 -2.10 -2.60 0.30 -0.95 0.40 -1 0.90 -0.30 0.30 0.40 0.80 0.85 1.05 0.95 1.10 0.45 4.75 2.70 4.75 2.95 0 0.15 -0.45 0.55 -1 0.90 -0.85 0.55 -1 0.50 -1 -0.35z"/>
  <path d="M26 18.55 c0 -1.55 2.65 -2.20 4.75 -1.20 1.80 0.85 2.10 1.35 1.25 1.90 -0.25 0.15 -0.50 -0.05 -0.50 -0.45 0 -1 -0.10 -1 -2.35 -0.05 -2.35 1 -3.15 0.95 -3.15 -0.20z"/>
  <path d="M21.50 15.25 c0 -0.40 -0.40 -0.75 -0.85 -0.80 -0.60 0 -0.65 -0.10 -0.25 -0.30 0.70 -0.25 2.10 0.70 2.10 1.40 0 0.25 -0.20 0.45 -0.50 0.45 -0.25 0 -0.50 -0.35 -0.50 -0.75z"/>
  <path d="M23.30 15.05 c-0.90 -1.40 2.75 -5.30 4.60 -4.95 0.65 0.15 0.25 0.80 -1.70 2.85 -1.55 1.60 -2.70 2.45 -2.90 2.10z"/>
  <path d="M26 14.75 c0.35 -0.40 0.80 -0.75 1.05 -0.75 0.25 0 0.30 0.35 0.15 0.75 -0.20 0.40 -0.65 0.75 -1.05 0.75 -0.65 0 -0.65 -0.15 -0.15 -0.75z"/>
  <path d="M3.50 14.35 c0 -1.20 0.60 -1.30 2.25 -0.30 1.40 0.85 1.40 0.95 0.40 0.95 -0.65 0 -1.15 -0.25 -1.15 -0.55 0 -0.40 -0.25 -0.40 -0.75 0.05 -0.60 0.50 -0.75 0.50 -0.75 -0.15z"/>
  <path d="M30.50 13.50 c0 -0.70 -0.35 -1 -1.05 -1 -0.90 0 -0.95 -0.10 -0.45 -0.75 0.35 -0.40 0.95 -0.75 1.30 -0.75 0.75 0 0.95 -0.75 0.35 -1.15 -0.25 -0.10 -0.10 -0.10 0.20 -0.05 0.75 0.20 1.65 -1.35 1.65 -2.75 0 -0.60 0.25 -1.05 0.55 -1.05 0.65 0 0.20 3 -0.50 3.50 -0.40 0.25 -1.55 2.25 -1.55 2.70 0 0.15 0.30 0.15 0.70 0 0.50 -0.20 0.70 0.10 0.60 1 -0.05 1.60 -1.80 1.85 -1.80 0.30z"/>
  <path d="M9.65 11.30 c-1.30 -2.65 -1.45 -3.80 -0.50 -3.80 0.85 0 2 3.35 1.75 4.95 -0.10 1 -0.30 0.85 -1.25 -1.15z"/>
  <path d="M13.20 11.25 c1.10 -0.95 2.20 -1.75 2.50 -1.75 0.30 0.05 -0.35 0.80 -1.45 1.75 -1.10 0.95 -2.20 1.75 -2.50 1.70 -0.25 0 0.40 -0.75 1.45 -1.70z"/>
  <path d="M16.50 9.15 c0 -0.25 1.25 -1.05 2.75 -1.80 3.05 -1.50 3.25 -1.55 3.25 -0.95 0 0.35 -2.30 1.60 -5.60 3 -0.25 0.10 -0.40 0 -0.40 -0.25z"/>
  <path d="M19.50 4.75 c0.35 -0.40 0.80 -0.75 1.05 -0.75 0.25 0 0.45 0.35 0.45 0.75 0 0.45 -0.45 0.75 -1.05 0.75 -0.90 0 -0.95 -0.10 -0.45 -0.75z"/>
  <path d="M28.50 5.15 c-2.05 -0.40 -2.15 -0.95 -0.60 -2.70 1.35 -1.50 1.60 -1.60 2.80 -1.05 1.25 0.55 2.75 2.80 2.20 3.35 -0.40 0.40 -3.10 0.65 -4.40 0.40z"/>
  <path d="M14.60 4 c0.80 -1.30 2 -1.65 3.90 -1.25 1.70 0.35 1.95 1 0.65 1.45 -0.55 0.25 -1.10 0.05 -1.50 -0.50 -0.60 -0.85 -0.70 -0.80 -1.80 0.20 -1.45 1.35 -2.05 1.40 -1.25 0.10z"/>
 </g>
 <g fill="#844c16">
  <path d="M14.60 38.90 c-0.35 -0.35 -0.60 -0.90 -0.60 -1.25 0 -0.35 -0.20 -0.65 -0.50 -0.65 -0.25 0 -0.45 -0.85 -0.45 -1.85 0.05 -1.25 0.15 -1.50 0.30 -0.75 0.20 0.90 0.45 1.05 1.25 0.80 0.65 -0.20 1.20 -0.05 1.45 0.35 0.60 1 0.60 -1.10 -0.05 -2.75 -0.25 -0.70 -0.25 -1.40 -0.05 -1.50 0.25 -0.15 0.55 -1.20 0.75 -2.30 0.20 -1.30 0.55 -2 1.05 -2 0.55 0 0.70 0.35 0.45 1.25 -0.25 1 -0.15 1.20 0.50 0.95 1.10 -0.40 1 0.15 -0.25 1.70 l-1.05 1.35 1.20 0.25 c0.60 0.15 1.15 0.55 1.10 0.90 -0.05 0.35 -0.10 1.05 -0.10 1.60 -0.05 0.55 -0.45 1 -0.85 1 -1.10 0 -0.95 0.45 0.55 1.65 1.25 0.95 1.30 1.05 0.40 1.40 -1.50 0.60 -4.45 0.50 -5.10 -0.15z"/>
  <path d="M20.90 37.10 c-0.60 -0.10 -0.90 -0.65 -0.90 -1.65 0 -0.80 0.20 -1.45 0.40 -1.45 0.85 0 3.10 1.25 3.10 1.75 0 0.75 -1.60 1.60 -2.60 1.35z"/>
  <path d="M21.10 33.35 c-0.35 -0.40 -0.30 -0.90 0.20 -1.55 0.55 -0.80 0.80 -0.85 1.45 -0.30 1.05 0.90 0.95 2.50 -0.20 2.50 -0.50 0 -1.15 -0.30 -1.45 -0.65z"/>
  <path d="M26.50 33.05 c0 -0.50 0.35 -1.10 0.80 -1.25 2 -0.80 2.35 0.15 0.45 1.40 -1.20 0.80 -1.25 0.75 -1.25 -0.15z"/>
  <path d="M20.45 30.40 c-0.25 -0.85 -0.20 -2.40 0.15 -2.40 0.20 0 0.40 0.55 0.40 1.25 0 1 -0.35 1.70 -0.55 1.15z"/>
  <path d="M24.75 27.05 c-0.15 -0.25 -1.10 -0.35 -2.15 -0.20 -1.80 0.25 -1.85 0.25 -0.70 -0.55 1.75 -1.35 1.30 -2 -0.65 -0.85 -1.70 1 -1.75 1 -1.75 0.05 0 -0.55 -0.35 -1 -0.75 -1 -0.40 0 -0.75 0.30 -0.75 0.70 0 0.40 -0.30 0.80 -0.70 0.95 -0.55 0.20 -0.85 -0.40 -1.25 -2.20 -0.60 -2.80 -0.35 -3.80 0.70 -2.95 0.40 0.35 1.15 0.45 1.75 0.25 0.60 -0.20 1.30 -0.05 1.75 0.45 1.15 1.10 0.90 1.45 -0.75 1.20 -0.95 -0.15 -1.45 -0.05 -1.35 0.30 0.25 0.80 2.80 1 3.65 0.30 0.55 -0.50 0.90 -0.40 1.70 0.55 l1 1.20 -0.15 -1.25 c-0.15 -1.70 1.40 -1.95 1.85 -0.30 0.55 2.25 -0.55 4.80 -1.45 3.35z"/>
  <path d="M29.45 26.35 c-0.55 -1.20 -0.50 -1.45 0.35 -2.05 1.35 -1.05 1.85 -0.25 1 1.75 l-0.70 1.70 -0.65 -1.40z"/>
  <path d="M11.15 25.25 c-0.45 -1.20 0.05 -1.35 0.75 -0.25 0.40 0.65 0.40 1 0.10 1 -0.30 0 -0.65 -0.35 -0.85 -0.75z"/>
  <path d="M13.50 25.35 c0 -0.35 -0.45 -0.90 -1 -1.25 -0.55 -0.35 -1 -0.85 -1 -1.10 0 -0.30 0.45 -0.50 1 -0.50 0.65 0 1 0.35 1 1 0 0.55 0.25 1 0.50 1 0.30 0 0.50 0.35 0.50 0.75 0 0.40 -0.20 0.75 -0.50 0.75 -0.25 0 -0.50 -0.30 -0.50 -0.65z"/>
  <path d="M14.05 22.40 c-0.05 -0.80 0.20 -1.40 0.45 -1.40 0.60 0 0.60 0.40 0 1.75 -0.40 0.90 -0.45 0.85 -0.45 -0.35z"/>
  <path d="M21.80 20.15 c-0.40 -1 -0.15 -1.25 0.90 -0.85 1 0.40 1.05 1 0.10 1.35 -0.40 0.15 -0.85 -0.05 -1 -0.50z"/>
  <path d="M23.90 18.15 c-0.80 -0.40 -1.40 -1.05 -1.40 -1.50 0 -0.70 0.10 -0.70 0.95 0.05 0.80 0.75 0.95 0.75 1.20 0.05 0.50 -1.30 1.35 -0.85 1.35 0.75 0 1.65 -0.15 1.70 -2.10 0.65z"/>
 </g>
 <g fill="#72592e">
  <path d="M5.50 39.65 c0 -0.25 0.85 -1.30 1.90 -2.45 1 -1.15 2.10 -2.50 2.40 -3 0.30 -0.50 1.15 -1 1.85 -1.10 1.05 -0.15 1.40 0.10 1.65 1.10 0.20 0.85 0.65 1.30 1.25 1.30 0.50 0 0.95 0.30 0.95 0.65 0 0.75 1.55 2.35 2.25 2.35 0.20 0 0.15 -0.30 -0.15 -0.60 -0.25 -0.35 -0.65 -1.20 -0.85 -1.85 -0.30 -1 0.15 -0.75 2.05 1.25 l2.45 2.45 -3 0.15 c-1.80 0.10 -3.05 -0.05 -3.15 -0.35 -0.10 -0.30 -0.50 -0.55 -0.85 -0.55 -0.35 0 -0.80 -0.30 -0.90 -0.60 -0.15 -0.35 -0.30 -0.15 -0.30 0.50 -0.05 1.35 -2.05 1.60 -2.05 0.25 -0.05 -0.80 -0.10 -0.80 -0.75 0.05 -0.80 1.05 -1.60 0.80 -0.95 -0.30 0.25 -0.35 0.50 -1.10 0.55 -1.60 0.10 -0.70 -0.25 -0.40 -1.20 0.85 -1.25 1.60 -3.15 2.50 -3.15 1.50z"/>
  <path d="M24 39.50 c0 -0.25 0.35 -0.50 0.75 -0.50 0.40 0 0.75 0.25 0.75 0.50 0 0.30 -0.35 0.50 -0.75 0.50 -0.40 0 -0.75 -0.20 -0.75 -0.50z"/>
  <path d="M32.90 38.75 c-0.35 -1.70 0.20 -1.95 1.80 -0.70 1.70 1.35 1.65 1.95 -0.15 1.95 -1.15 0 -1.50 -0.25 -1.65 -1.25z"/>
  <path d="M21.30 37.15 c-0.15 -0.15 -0.30 -0.70 -0.30 -1.20 0 -0.75 0.55 -0.90 3.45 -1.05 2.75 -0.10 3.35 0 2.95 0.50 -0.30 0.35 -0.90 0.55 -1.35 0.50 -0.50 -0.10 -0.75 0.20 -0.75 0.75 0.10 0.95 -1.10 1.20 -1.40 0.30 -0.15 -0.45 -0.45 -0.45 -1.25 -0.05 -0.55 0.30 -1.15 0.40 -1.35 0.25z"/>
  <path d="M29 34.15 c0 -0.25 0.45 -0.90 1 -1.40 0.55 -0.50 1 -0.75 1 -0.55 0 0.20 -0.45 0.80 -1 1.40 -0.55 0.60 -1 0.85 -1 0.55z"/>
  <path d="M21.60 33.35 c-0.30 -0.35 -0.45 -1.10 -0.30 -1.70 0.15 -0.60 0 -1.10 -0.40 -1.30 -1.10 -0.40 -0.85 -3.05 0.30 -3.25 0.50 -0.10 1.05 0 1.25 0.25 0.15 0.20 0.80 0.80 1.40 1.30 1.05 0.90 1.10 0.90 3.10 -0.35 2.20 -1.40 2.75 -1.30 0.95 0.20 -0.65 0.50 -1 1.10 -0.80 1.30 0.20 0.20 0.70 0.05 1.15 -0.30 0.45 -0.35 0.90 -0.50 1.10 -0.30 0.45 0.45 -1.85 2.30 -2.85 2.30 -0.50 0 -1 0.35 -1.20 0.75 -0.20 0.65 -0.10 0.70 0.70 0.25 0.55 -0.30 1.25 -0.40 1.50 -0.25 0.30 0.15 0.50 0.05 0.50 -0.20 0 -0.30 0.25 -0.55 0.60 -0.55 0.30 0 0.05 0.55 -0.60 1.25 -0.70 0.75 -1.75 1.25 -2.60 1.25 -1.15 0 -1.40 -0.20 -1.40 -1.25 0 -0.70 -0.20 -1.25 -0.50 -1.25 -0.25 0 -0.50 0.55 -0.50 1.25 0 1.35 -0.60 1.60 -1.40 0.60z"/>
  <path d="M32.65 30.75 c0 -1.10 0.10 -1.50 0.20 -0.85 0.10 0.60 0.10 1.50 0 2 -0.15 0.45 -0.25 -0.05 -0.20 -1.15z"/>
  <path d="M16.95 30.15 c-0.10 -1.65 0.15 -2.90 0.70 -3.60 0.50 -0.55 0.45 -0.65 -0.15 -0.45 -0.55 0.15 -0.90 -0.35 -1.25 -1.75 -0.55 -2.20 -1.50 -2.95 -1.90 -1.50 -0.15 0.50 -0.25 0.05 -0.30 -1.05 -0.05 -1.65 0.05 -1.85 0.70 -1.30 0.40 0.30 0.95 0.45 1.20 0.30 0.25 -0.20 0.65 -0.05 0.80 0.20 0.20 0.35 0.95 0.40 1.80 0.25 1.15 -0.25 1.45 -0.15 1.45 0.50 0 0.45 0.25 0.65 0.50 0.50 0.30 -0.15 0.50 -0.05 0.50 0.20 0 0.70 -1.80 0.70 -3.15 0 -1.10 -0.60 -1.10 -0.60 -0.15 0.50 1.05 1.15 3.25 1.40 4.20 0.45 0.50 -0.50 0.75 -0.50 1.10 0.10 0.80 1.20 0.60 1.40 -1.25 1.30 -1.15 -0.05 -1.70 0.15 -1.55 0.50 0.15 0.35 -0.30 1.10 -1 1.75 -1.40 1.30 -1.60 2.60 -0.40 2.10 0.70 -0.25 0.75 -0.15 0.25 0.75 -0.70 1.30 -2.05 1.45 -2.10 0.25z"/>
  <path d="M29.55 26.95 c-0.40 -0.95 -0.80 -1.80 -0.90 -1.95 -0.05 -0.15 0.40 -0.50 1.10 -0.85 1.25 -0.55 2.45 0.10 1.35 0.80 -0.30 0.15 -0.60 1.05 -0.70 2 l-0.15 1.70 -0.70 -1.70z"/>
  <path d="M10.85 25 c-0.50 -0.50 -0.70 -1.05 -0.45 -1.20 0.25 -0.15 0.85 0.25 1.30 0.95 0.95 1.45 0.45 1.60 -0.85 0.25z"/>
  <path d="M13.50 25.25 c0 -0.40 -0.45 -0.95 -1 -1.25 -1.20 -0.65 -1.30 -1.50 -0.25 -1.50 0.40 0 0.75 0.35 0.75 0.75 0 0.45 0.35 0.90 0.75 1.05 0.85 0.35 1.05 1.70 0.25 1.70 -0.25 0 -0.50 -0.35 -0.50 -0.75z"/>
  <path d="M24 21.90 c0 -2 0 -2.05 1 -1.15 0.55 0.50 1 1.30 1 1.75 0 0.50 -0.45 1 -1 1.15 -0.90 0.20 -1 0 -1 -1.75z"/>
  <path d="M21.10 19.60 c-1.15 -1.15 -1.90 -1.20 -4.30 -0.30 -0.95 0.35 -1 -0.45 -0.15 -2.45 l0.60 -1.40 2.75 2.10 c3.55 2.65 3.70 2.80 2.90 3.05 -0.35 0.10 -1.15 -0.35 -1.80 -1z"/>
  <path d="M26.50 17.80 c0 -1 -0.25 -1.80 -0.55 -1.80 -0.35 0 -0.50 0.60 -0.35 1.50 0.15 0.95 0.05 1.45 -0.30 1.35 -0.95 -0.30 -0.85 -2.10 0.15 -3.45 1.40 -1.70 3.35 -1.70 3.80 0 0.15 0.70 0.65 1.55 1.10 1.85 0.70 0.50 0.60 0.65 -0.65 1.10 -0.80 0.30 -1.85 0.70 -2.30 0.90 -0.75 0.30 -0.90 0.05 -0.90 -1.45z"/>
  <path d="M20.90 16.55 c-3 -1.90 -3.20 -2.35 -1.15 -2.40 1.40 -0.05 1.95 0.30 3 1.60 2.05 2.75 1.55 2.95 -1.85 0.80z"/>
  <path d="M23.30 15.10 c-0.10 -0.20 -0.05 -0.70 0.15 -1.05 0.30 -0.50 0.50 -0.45 0.70 0.15 0.30 0.80 -0.40 1.60 -0.85 0.90z"/>
 </g>
 <g fill="#4d565c">
  <path d="M11.70 33.15 c-0.25 -0.85 -0.05 -1.85 0.45 -2.80 0.50 -0.80 0.85 -1.90 0.85 -2.50 0 -1.65 0.55 -3.35 1.05 -3.35 0.65 0 0.55 5.15 -0.10 7.80 -0.65 2.50 -1.75 2.90 -2.25 0.85z"/>
  <path d="M21.85 33.65 c-0.20 -0.15 -0.35 -0.95 -0.35 -1.75 0 -1.15 0.20 -1.40 1.25 -1.40 0.70 0 1.25 -0.15 1.25 -0.35 0 -0.25 1.15 -0.40 2.50 -0.40 2.75 0 3.05 0.70 0.70 1.50 -1.40 0.45 -2.35 1.25 -1.95 1.65 0.10 0.10 0.70 -0.15 1.35 -0.60 1.50 -1.05 2.75 -1.10 1.90 -0.05 -0.35 0.40 -0.95 0.75 -1.30 0.75 -0.40 0 -0.70 0.25 -0.70 0.50 0 0.55 -4.15 0.70 -4.65 0.15z"/>
  <path d="M32.50 31.50 c0 -0.55 0.25 -1 0.50 -1 0.30 0 0.50 0.45 0.50 1 0 0.55 -0.20 1 -0.50 1 -0.25 0 -0.50 -0.45 -0.50 -1z"/>
  <path d="M11.05 25.30 c-0.60 -0.65 -0.90 -1.35 -0.65 -1.50 0.50 -0.30 2.35 2.10 2 2.50 -0.15 0.10 -0.75 -0.35 -1.35 -1z"/>
  <path d="M14.05 21.75 c0 -1.55 0.10 -1.80 0.45 -1.15 0.30 0.50 0.35 1.25 0.05 2 -0.45 1 -0.50 0.90 -0.50 -0.85z"/>
  <path d="M6.30 21.90 c-1.15 -0.65 -3.25 -2.95 -3.30 -3.55 0 -0.25 0.75 0.40 1.70 1.35 1.10 1.20 2.10 1.80 3 1.80 0.70 0 1.30 0.25 1.30 0.50 0 0.65 -1.50 0.60 -2.70 -0.10z"/>
  <path d="M16 19.25 c0 -1.85 2.60 -2.95 3.90 -1.65 0.85 0.85 0.75 1.20 -0.25 1.20 -0.50 0 -1.50 0.15 -2.25 0.35 -0.80 0.20 -1.40 0.25 -1.40 0.10z"/>
  <path d="M28.20 17.45 c0.10 -0.80 0.35 -1.65 0.55 -1.85 0.20 -0.20 0.25 0.15 0.10 0.80 -0.20 0.95 -0.10 1.10 0.65 0.85 1.55 -0.50 1.60 0.60 0 1.15 -1.45 0.55 -1.45 0.50 -1.30 -0.95z"/>
  <path d="M2.40 16.70 c-0.25 -1.05 0.85 -3.10 1.40 -2.55 0.20 0.20 0.10 0.60 -0.15 0.95 -0.30 0.35 -0.65 1.10 -0.75 1.65 -0.20 1 -0.20 1 -0.50 -0.05z"/>
  <path d="M23.35 15.15 c-0.70 -1.15 1.45 -3.75 3.65 -4.40 1.30 -0.40 1.30 -0.45 -3 4.40 -0.20 0.25 -0.50 0.25 -0.65 0z"/>
  <path d="M5.50 14.65 c0 -0.25 0.90 -0.40 2 -0.40 1.15 -0.05 1.70 0.10 1.35 0.35 -0.75 0.50 -3.35 0.50 -3.35 0.05z"/>
  <path d="M30.50 14.20 c0 -0.85 1.40 -2.45 1.80 -2.05 0.20 0.20 -0.10 0.85 -0.70 1.50 -0.60 0.60 -1.10 0.85 -1.10 0.55z"/>
  <path d="M9.35 10.70 c-1.25 -2.45 -1.25 -2.60 -0.40 -3.40 1.20 -1.10 1.70 -1 1.30 0.25 -0.20 0.55 -0.10 1.65 0.25 2.45 0.30 0.80 0.50 1.85 0.40 2.35 -0.15 0.65 -0.60 0.15 -1.55 -1.65z"/>
  <path d="M12 12.55 c0 -0.60 3.35 -3.15 5.65 -4.35 2.15 -1.15 1.60 0 -0.65 1.25 -1.10 0.60 -2.65 1.70 -3.50 2.40 -0.80 0.65 -1.50 1 -1.50 0.70z"/>
  <path d="M29 11.75 c0.35 -0.40 0.95 -0.75 1.35 -0.75 0.50 0 0.65 -0.30 0.45 -0.80 -0.15 -0.40 -0.10 -0.60 0.20 -0.45 0.55 0.35 1.50 -1.30 1.50 -2.70 0 -0.55 0.25 -1.15 0.55 -1.35 0.45 -0.25 0.50 0.20 0.25 1.55 -0.45 2.40 -2.60 5.25 -3.90 5.25 -0.85 0 -0.90 -0.15 -0.40 -0.75z"/>
  <path d="M26.80 4.55 c-0.40 -0.60 2.25 -3.55 3.20 -3.55 0.80 0 3 2.35 3 3.20 0 0.60 -0.55 0.75 -2.55 0.75 l-2.50 -0.10 1.10 -1.15 c0.60 -0.65 1 -1.20 0.80 -1.20 -0.15 0 -0.85 0.60 -1.50 1.30 -0.80 0.85 -1.35 1.10 -1.55 0.75z"/>
  <path d="M16 2.90 c0 -0.20 0.45 -0.40 1 -0.40 0.55 0 1 0.20 1 0.40 0 0.20 -0.45 0.40 -1 0.40 -0.55 0 -1 -0.20 -1 -0.40z"/>
 </g>
 <g fill="#8c6638">
  <path d="M11.50 39.25 c0 -0.45 -0.35 -0.90 -0.75 -1.05 -0.40 -0.20 -0.75 -0.65 -0.75 -1.05 0 -0.65 -0.15 -0.65 -0.75 -0.15 -1.25 1.05 -0.90 -0.85 0.50 -2.70 0.70 -0.90 1.25 -1.80 1.25 -2 0 -0.55 2.25 -3.80 2.65 -3.80 0.20 0 0.35 0.75 0.35 1.65 0 1.05 -0.15 1.40 -0.45 0.95 -0.35 -0.55 -0.50 -0.50 -0.75 0.15 -0.40 1.15 -0.40 1.35 0.20 1 0.30 -0.20 0.50 0.50 0.50 1.70 0 2.10 0.80 3.15 1.60 2 0.35 -0.50 0.35 -0.35 0.15 0.45 -0.20 0.65 -0.10 1.10 0.20 1.10 0.65 0 2.55 1.55 2.55 2.10 0 0.60 -2.90 0.50 -4.05 -0.10 -0.65 -0.35 -0.95 -0.35 -0.95 0 0 0.25 -0.35 0.50 -0.75 0.50 -0.40 0 -0.75 -0.35 -0.75 -0.75z"/>
  <path d="M17.55 37.75 c-0.60 -1.25 -1 -2.65 -0.90 -3.15 0.20 -0.75 0.25 -0.75 0.30 0.05 0 0.50 0.75 1.60 1.55 2.45 1.55 1.55 1.95 2.90 0.85 2.90 -0.40 0 -1.20 -1 -1.80 -2.25z"/>
  <path d="M34.15 39.25 c-1.20 -1.30 -0.70 -1.85 0.85 -0.90 0.85 0.45 1.50 1.05 1.50 1.25 0 0.65 -1.70 0.40 -2.35 -0.35z"/>
  <path d="M20.85 36 c-0.25 -0.90 0 -1 2.20 -1 2.50 0 3 0.40 1.75 1.45 -0.55 0.45 -0.80 0.45 -1.05 0.05 -0.25 -0.45 -0.50 -0.45 -0.90 -0.05 -0.85 0.85 -1.70 0.65 -2 -0.45z"/>
  <path d="M21.65 33.45 c-0.75 -0.75 0.20 -3.45 1.20 -3.45 0.40 0 0.55 -0.25 0.35 -0.55 -0.15 -0.30 -0.85 -0.45 -1.50 -0.30 -0.65 0.10 -1.05 0.05 -0.95 -0.20 0.15 -0.20 -0.05 -0.50 -0.35 -0.60 -0.45 -0.20 -0.10 -0.75 1 -1.70 2.90 -2.50 1.40 -2.65 -1.80 -0.20 -1.45 1.15 -1.60 1.50 -1.35 2.95 0.25 1.40 0.15 1.60 -0.80 1.60 -0.95 0 -1.05 -0.20 -0.70 -1.85 0.20 -1.05 0.55 -1.95 0.80 -2.05 0.60 -0.25 0.60 -1.60 -0.05 -1.60 -0.25 0 -0.50 0.30 -0.55 0.65 -0.05 0.30 -0.25 -0.20 -0.45 -1.15 -0.40 -1.55 -0.30 -1.90 0.90 -2.85 1.55 -1.30 2.60 -1.45 2.60 -0.45 0 0.40 0.30 0.85 0.65 1 0.30 0.15 -0.25 0.15 -1.30 0 -1.60 -0.30 -1.80 -0.20 -1.55 0.55 0.30 0.70 0.75 0.80 2.75 0.60 2.05 -0.25 2.45 -0.15 3.15 0.80 0.70 1.05 0.75 1 0.45 -1.20 -0.30 -2.45 0.45 -3.65 1.30 -2.10 0.85 1.65 1.20 5.50 0.50 5.90 -0.35 0.25 -0.85 0.10 -1.15 -0.35 -0.50 -0.70 -0.70 -0.70 -1.50 -0.15 -0.85 0.65 -0.85 0.75 0.45 1.95 1.50 1.35 3.65 1.70 4.65 0.70 0.70 -0.70 1.35 -0.20 0.85 0.60 -0.55 0.90 -2.45 1.45 -3.10 0.90 -0.45 -0.35 -0.65 -0.35 -0.65 0.05 0 0.30 -0.35 0.55 -0.75 0.55 -0.40 0 -0.75 0.25 -0.75 0.55 0 0.25 -0.20 0.35 -0.50 0.20 -0.25 -0.15 -0.50 -0.05 -0.50 0.20 0 0.30 0.25 0.55 0.50 0.55 0.30 0 0.50 0.25 0.50 0.50 0 0.65 -1.65 0.65 -2.35 -0.05z"/>
  <path d="M25 33.60 c0 -0.50 2.70 -2.10 3.55 -2.10 0.35 0 0.15 0.50 -0.55 1.25 -1.10 1.20 -3 1.70 -3 0.85z"/>
  <path d="M26 29.30 c0 -0.10 0.60 -0.60 1.40 -1.05 l1.35 -0.90 -0.95 1.05 c-0.85 1 -1.80 1.45 -1.80 0.90z"/>
  <path d="M29.60 26.65 c-0.90 -1.65 -0.75 -2.15 0.80 -2.15 0.75 0 1.10 0.20 0.80 0.40 -0.35 0.20 -0.70 0.90 -0.80 1.60 l-0.15 1.25 -0.65 -1.10z"/>
  <path d="M22 20.55 c0 -0.40 -0.40 -1 -0.85 -1.35 -0.50 -0.35 -0.65 -0.70 -0.35 -0.70 0.25 0 0.95 0.30 1.50 0.70 0.75 0.60 0.85 0.85 0.35 1.35 -0.55 0.55 -0.65 0.50 -0.65 0z"/>
  <path d="M24.50 17.60 c0 -1.45 1.40 -2.95 3 -3.20 1.35 -0.20 1.50 -0.10 1.50 1.10 0 0.70 -0.30 1.60 -0.60 1.95 -0.55 0.55 -0.45 0.55 0.45 0.10 0.60 -0.30 1.20 -0.35 1.35 -0.10 0.35 0.50 -0.80 1.05 -2.20 1.05 -0.55 0 -1 -0.45 -1.15 -1.10 l-0.20 -1.15 -0.10 1.15 c-0.05 1.35 -2.05 1.60 -2.05 0.20z"/>
  <path d="M17.10 17 c0.35 -0.55 0.80 -1 0.95 -1 0.15 0 0.70 0.45 1.20 1 0.90 1 0.85 1 -0.95 1 -1.70 0 -1.75 -0.05 -1.20 -1z"/>
  <path d="M19.80 15.75 c-0.70 -0.65 -1.30 -1.25 -1.30 -1.35 0 -0.10 0.60 -0.20 1.40 -0.25 1 -0.05 1.50 0.20 1.90 1.10 0.85 1.70 -0.35 2 -2 0.50z"/>
 </g>
 <g fill="#646866">
  <path d="M11.60 34.50 c0 -1.65 0.20 -2 1 -2 0.75 0 0.95 0.30 0.85 1.40 -0.10 0.75 0 1.65 0.20 2 0.30 0.40 0.05 0.60 -0.85 0.60 -1.10 0 -1.25 -0.20 -1.20 -2z"/>
  <path d="M21.85 33.65 c-0.20 -0.15 -0.35 -0.95 -0.35 -1.70 0 -0.75 -0.35 -1.45 -0.80 -1.65 -0.40 -0.15 -0.60 -0.55 -0.45 -0.80 0.20 -0.35 0.55 -0.40 0.90 -0.05 0.85 0.65 6.40 0.65 7.20 -0.05 0.80 -0.65 1.40 -0.20 0.90 0.60 -0.55 0.90 -2.45 1.45 -3.10 0.90 -0.50 -0.40 -0.65 -0.25 -0.65 0.60 0 0.90 -0.20 1.05 -1.25 0.90 -0.70 -0.15 -1.25 -0.05 -1.25 0.15 0 0.60 2.70 0.55 3.30 -0.05 0.30 -0.30 1.05 -0.60 1.75 -0.75 1.20 -0.20 1.20 -0.20 -0.20 1 -1.05 0.90 -2 1.25 -3.55 1.25 -1.15 0 -2.30 -0.15 -2.45 -0.35z"/>
  <path d="M13.05 27.90 c0.05 -1.95 0.65 -3.80 1.05 -3.10 0.15 0.25 0.30 1.40 0.30 2.60 0.05 1.50 -0.15 2.10 -0.70 2.10 -0.45 0 -0.70 -0.55 -0.65 -1.60z"/>
  <path d="M21.60 28.95 c-0.90 -0.25 -1.50 -0.70 -1.35 -0.95 0.40 -0.65 2.25 -0.65 2.25 0 0 0.30 0.35 0.50 0.75 0.50 0.40 0 0.75 0.25 0.75 0.50 0 0.60 -0.20 0.55 -2.40 -0.05z"/>
  <path d="M29.50 25.50 c0 -0.55 0.25 -1 0.50 -1 0.30 0 0.50 0.45 0.50 1 0 0.55 -0.20 1 -0.50 1 -0.25 0 -0.50 -0.45 -0.50 -1z"/>
  <path d="M18.85 22.65 c-1.10 -0.30 -0.85 -1.35 0.30 -1.55 0.50 -0.10 0.85 0.15 0.85 0.55 0 0.45 0.30 0.90 0.65 1 0.75 0.35 -0.55 0.35 -1.80 0z"/>
  <path d="M16 19.20 c0 -0.65 1.05 -2.20 1.50 -2.20 0.85 0 0.55 1.25 -0.50 1.90 -0.55 0.35 -1 0.50 -1 0.30z"/>
  <path d="M25.40 18.95 c-1.30 -0.70 -1.10 -1.45 0.35 -1.45 0.75 0 1.25 -0.30 1.25 -0.70 0 -0.70 1.45 -1.55 1.85 -1.10 0.15 0.10 -0.05 0.70 -0.35 1.30 -0.55 1 -0.50 1.05 0.45 0.55 0.55 -0.30 1.10 -0.35 1.25 -0.15 0.15 0.25 -0.55 0.80 -1.50 1.25 -2 1 -2.15 1 -3.30 0.30z"/>
  <path d="M2.50 15.85 c0 -0.40 0.40 -1.20 0.90 -1.75 0.85 -1 0.85 -1 2.35 -0.05 0.85 0.55 1.15 0.95 0.75 0.95 -0.45 0 -1.05 -0.25 -1.35 -0.55 -0.35 -0.35 -0.85 -0.15 -1.60 0.85 -0.70 0.85 -1.05 1.05 -1.05 0.55z"/>
  <path d="M9.55 10.95 c-1.20 -2.50 -1.30 -3.45 -0.40 -3.45 0.65 0 2.15 4.90 1.65 5.35 -0.15 0.15 -0.70 -0.70 -1.25 -1.90z"/>
  <path d="M25.50 12.30 c0 -0.35 0.45 -0.80 1.05 -0.95 1 -0.25 1 -0.25 0.15 0.70 -1 1.15 -1.20 1.15 -1.20 0.25z"/>
  <path d="M13.25 11.25 c0.80 -0.65 1.55 -1.10 1.70 -1 0.25 0.30 -2.05 2.20 -2.70 2.20 -0.25 0 0.15 -0.55 1 -1.20z"/>
  <path d="M29 12 c0 -0.60 1.40 -1.05 1.75 -0.55 0.10 0.25 -0.20 0.55 -0.75 0.70 -0.55 0.15 -1 0.10 -1 -0.15z"/>
  <path d="M31.45 10.25 c0.85 -1.70 1.55 -2.55 1.55 -1.95 0 0.35 -0.45 1.10 -1.05 1.75 -0.80 0.95 -0.90 1 -0.50 0.20z"/>
  <path d="M20 7.30 c0 -0.55 3.35 -1.80 4.60 -1.75 1 0.05 0.95 0.10 -0.40 0.70 -2.10 0.90 -4.20 1.45 -4.20 1.05z"/>
  <path d="M27 4.15 c0 -1.10 2.30 -3.30 3.20 -3 1 0.35 0.80 1.25 -0.50 2.65 l-1.30 1.45 0.80 -1.35 c0.45 -0.80 0.60 -1.40 0.35 -1.40 -0.25 0 -0.95 0.60 -1.50 1.40 -0.95 1.25 -1 1.30 -1.05 0.25z"/>
  <path d="M31.85 4.65 c-0.50 -0.50 -0.40 -2.15 0.10 -2.15 0.45 0 1.05 1.20 1.05 2.05 0 0.55 -0.70 0.60 -1.15 0.10z"/>
  <path d="M15.50 3.50 c0 -0.30 0.35 -0.65 0.75 -0.85 1.20 -0.45 1.35 0.05 0.25 0.75 -0.65 0.40 -1 0.40 -1 0.10z"/>
 </g>
 <g fill="#d02f3c">
  <path d="M18.75 22.50 c-0.55 -0.25 -0.70 -0.45 -0.35 -0.45 0.35 -0.05 0.50 -0.25 0.35 -0.55 -0.15 -0.25 0 -0.50 0.40 -0.50 0.40 0 0.85 0.45 1 1 0.30 1.10 0.10 1.15 -1.40 0.50z"/>
 </g>
 <g fill="#ab7227">
  <path d="M15.75 38.95 c-0.55 -0.85 -0.10 -0.90 1.25 -0.20 1.20 0.70 1.20 0.70 0.15 0.75 -0.60 0 -1.25 -0.25 -1.40 -0.55z"/>
  <path d="M17.85 38.20 c-1.95 -2.65 -1.35 -6.40 0.90 -5.50 1 0.35 1 3.30 0 3.30 -0.40 0 -0.75 0.25 -0.75 0.50 0 0.30 0.35 0.65 0.75 0.80 0.75 0.30 1.10 2.20 0.40 2.20 -0.25 0 -0.80 -0.60 -1.30 -1.30z"/>
  <path d="M8.55 35.75 c0.90 -1.25 2 -2.55 2.40 -2.90 1.40 -1.15 0.15 2.60 -1.30 3.90 -2.30 2 -2.85 1.45 -1.10 -1z"/>
  <path d="M21 35.95 c-0.75 -1.30 -0.60 -1.40 1.40 -1.10 l1.60 0.25 -1.05 0.95 c-1.35 1.15 -1.30 1.15 -1.95 -0.10z"/>
  <path d="M21.85 33.65 c-0.20 -0.15 -0.35 -0.75 -0.35 -1.25 0 -1 1.70 -1.25 2.30 -0.30 0.20 0.30 0.15 0.40 -0.10 0.25 -0.30 -0.15 -0.80 -0.10 -1.20 0.20 -0.60 0.35 -0.50 0.45 0.40 0.45 0.60 0 1.10 0.25 1.10 0.50 0 0.55 -1.65 0.70 -2.15 0.15z"/>
  <path d="M25.60 33.40 c0.15 -0.35 1 -0.90 1.95 -1.25 l1.70 -0.70 -1.40 1.30 c-1.50 1.35 -2.55 1.65 -2.25 0.65z"/>
  <path d="M16.70 30.90 c0.40 -2.60 0.55 -2.75 1.55 -1.70 0.75 0.70 0.70 0.90 -0.30 2.30 -0.65 0.80 -1.25 1.50 -1.35 1.50 -0.15 0 -0.10 -0.95 0.10 -2.10z"/>
  <path d="M26.30 31.10 c-0.70 -0.65 -0.20 -1.10 1.25 -1.10 0.80 0 1.40 0.20 1.25 0.45 -0.35 0.55 -2.15 1.05 -2.50 0.65z"/>
  <path d="M22.65 25.55 c0.10 -1.40 0.15 -1.45 1.05 -0.65 0.90 0.80 0.95 0.80 0.60 -0.55 -0.35 -1.55 0 -3.35 0.70 -3.35 0.35 0 1.50 4.20 1.50 5.50 0 0.30 -0.45 0.50 -1 0.50 -0.55 0 -1 -0.25 -1 -0.60 0 -0.45 -0.15 -0.45 -0.60 0 -0.95 0.95 -1.35 0.70 -1.25 -0.85z"/>
  <path d="M29.35 26.15 c-0.65 -0.60 -0.35 -1.65 0.40 -1.65 0.40 0 0.75 0.45 0.75 1 0 1 -0.55 1.30 -1.15 0.65z"/>
  <path d="M22 20.40 c0 -0.45 -0.30 -0.90 -0.60 -1.05 -0.35 -0.10 -0.55 -0.35 -0.40 -0.50 0.15 -0.15 0.70 0.05 1.20 0.45 0.80 0.55 0.85 0.85 0.40 1.30 -0.45 0.45 -0.60 0.40 -0.60 -0.20z"/>
  <path d="M24.70 18.30 c-0.15 -0.40 -0.05 -1.15 0.25 -1.65 0.45 -0.75 0.50 -0.65 0.55 0.75 0 1.70 -0.35 2.10 -0.80 0.90z"/>
  <path d="M22.55 17.55 c-0.35 -0.25 -0.60 -0.70 -0.45 -1.05 0.10 -0.35 0.50 -0.20 1.10 0.45 0.95 1.05 0.60 1.40 -0.65 0.60z"/>
 </g>
 <g fill="#9a7d4a">
  <path d="M3.50 39.80 c0 -0.10 0.70 -0.45 1.50 -0.75 1.20 -0.40 1.50 -0.35 1.50 0.25 0 0.45 -0.50 0.70 -1.50 0.70 -0.80 0 -1.50 -0.10 -1.50 -0.20z"/>
  <path d="M11.50 39 c0 -0.55 -0.35 -1.15 -0.80 -1.35 -0.45 -0.15 -0.65 -0.60 -0.45 -1.05 0.25 -0.60 0.05 -0.60 -0.75 0.15 -0.90 0.85 -1 0.85 -1 0.05 0 -0.50 0.55 -1.60 1.25 -2.50 0.70 -0.90 1.25 -1.85 1.25 -2.10 0.05 -0.85 1.90 -2.70 2.70 -2.70 0.90 0 1 0.40 0.30 1.50 -0.45 0.65 -0.50 0.65 -0.50 0 0 -0.65 -0.05 -0.65 -0.50 0 -0.65 1 -0.60 1.65 0.10 1.20 0.40 -0.25 0.45 0.10 0.25 1.25 -0.40 2 0.90 4.10 3.15 5.05 2.35 1 1.75 1.50 -1.75 1.50 -2.95 0 -3.25 -0.10 -3.25 -1z m0.10 -3.45 c0.10 -0.85 0.05 -1.40 -0.20 -1.25 -0.40 0.25 -0.60 2.70 -0.20 2.70 0.10 0 0.30 -0.65 0.40 -1.45z"/>
  <path d="M18.05 38.25 l-1.05 -1.80 1.15 0.60 c1.95 1.05 3 2.95 1.65 2.95 -0.40 0 -1.15 -0.80 -1.75 -1.75z"/>
  <path d="M34.30 38.95 c-1.30 -1.30 0 -1.30 1.70 0.05 1.15 0.90 1.15 1 0.25 0.95 -0.55 0 -1.45 -0.45 -1.95 -1z"/>
  <path d="M21.50 36 c0 -0.85 0.30 -1 2 -1 1.60 0 1.90 0.15 1.65 0.80 -0.15 0.40 -0.60 0.65 -1 0.50 -0.40 -0.15 -1.15 -0.05 -1.70 0.20 -0.80 0.45 -0.95 0.35 -0.95 -0.50z"/>
  <path d="M22.10 33.40 c-0.35 -0.35 -0.60 -1.05 -0.60 -1.65 0 -0.60 -0.25 -1.30 -0.60 -1.65 -0.75 -0.75 -0.40 -0.75 1.30 -0.10 0.75 0.25 1.40 0.30 1.55 0 0.15 -0.25 -0.65 -0.70 -1.75 -1 -1.10 -0.30 -2 -0.65 -2 -0.75 0 -0.10 0.70 -0.90 1.60 -1.70 0.90 -0.85 1.45 -1.65 1.30 -1.80 -0.40 -0.40 -2.30 0.60 -3.75 1.95 -1.15 1.05 -1.55 2.80 -0.65 2.80 0.25 0 0.35 0.35 0.20 0.75 -0.20 0.40 -0.75 0.75 -1.30 0.75 -0.85 0 -0.95 -0.25 -0.65 -1.60 0.20 -0.90 0.55 -1.85 0.80 -2.10 0.75 -0.80 0.55 -1.95 -0.30 -1.60 -0.60 0.20 -0.75 -0.15 -0.75 -1.55 0 -1.75 0.05 -1.80 0.95 -0.95 1.05 0.95 2.70 1.20 4.35 0.65 0.80 -0.30 1.20 -0.10 1.65 0.85 0.75 1.35 0.30 2.50 -0.75 2.10 -1.25 -0.50 -0.75 0.45 1.10 2.10 2.10 1.85 2.15 3.30 0.05 3.40 -0.75 0.05 -1.55 0.20 -1.75 0.45 -0.45 0.45 3.80 0.05 5.15 -0.50 1 -0.40 1 -0.40 0.05 0.65 -1.05 1.25 -4.20 1.50 -5.20 0.50z"/>
  <path d="M26.30 31.10 c-0.65 -0.60 -0.25 -1.10 0.95 -1.10 0.70 0 1.25 0.20 1.25 0.45 0 0.50 -1.80 1.05 -2.20 0.65z"/>
  <path d="M29.55 26.35 c-0.40 -0.75 -0.55 -1.50 -0.40 -1.70 0.60 -0.60 1.45 0.70 1.25 1.90 -0.15 1.10 -0.15 1.10 -0.85 -0.20z"/>
  <path d="M24.80 26.40 c-0.60 -1.95 -0.80 -3.55 -0.50 -4.65 0.45 -1.75 1.05 -1.15 1.45 1.40 0.15 1.15 0.45 2.50 0.55 3 0.30 1 -1.20 1.25 -1.50 0.25z"/>
  <path d="M22 20.35 c0 -0.35 -0.55 -0.95 -1.25 -1.25 -0.70 -0.30 -1.25 -0.80 -1.25 -1.10 0 -0.30 0.65 -0.10 1.50 0.50 1.80 1.30 2.15 1.85 1.50 2.25 -0.25 0.15 -0.50 0 -0.50 -0.40z"/>
  <path d="M16.50 18.25 c0 -0.65 1 -1.75 1.60 -1.75 0.20 0 0.40 0.50 0.40 1.15 0 0.80 -0.30 1.15 -1 1.15 -0.55 0 -1 -0.25 -1 -0.55z"/>
  <path d="M24.70 18.30 c-0.15 -0.40 0 -1.35 0.40 -2.15 0.50 -1 1.05 -1.40 2.30 -1.50 1.75 -0.15 2.05 0.55 1.05 2.40 -0.45 0.90 -0.35 0.95 0.90 0.70 l1.40 -0.30 -1.25 0.75 c-1.60 1 -4.45 1.05 -4.80 0.10z"/>
  <path d="M21.50 16.90 c-1.80 -1.25 -2.50 -2.40 -1.40 -2.40 0.80 0 3.70 2.85 3.30 3.25 -0.10 0.15 -1 -0.25 -1.90 -0.85z"/>
  <path d="M23.50 14.60 c0 -0.55 1.10 -1.60 1.60 -1.60 0.25 0 0.20 0.45 -0.10 1 -0.55 1 -1.50 1.40 -1.50 0.60z"/>
 </g>
 <g fill="#6e7a86">
  <path d="M22.25 33.50 c-0.20 -0.30 0.25 -0.50 0.95 -0.50 0.70 0 1.30 0.25 1.30 0.50 0 0.30 -0.45 0.50 -0.95 0.50 -0.55 0 -1.15 -0.20 -1.30 -0.50z"/>
  <path d="M12.20 32.25 c-0.20 -0.45 -0.05 -1.40 0.20 -2.15 0.30 -0.75 0.70 -2.20 0.90 -3.20 0.15 -1.05 0.45 -1.90 0.65 -1.90 0.50 0 0.50 5.10 0 6 -0.30 0.55 -0.40 0.55 -0.45 0.10 0 -0.90 -1 -0.20 -1 0.70 0 0.40 0.25 0.60 0.50 0.45 0.30 -0.15 0.50 -0.05 0.50 0.20 0 0.80 -1 0.65 -1.30 -0.20z"/>
  <path d="M21.50 31.60 c0 -0.50 -0.30 -1.20 -0.60 -1.55 -0.55 -0.55 -0.40 -0.60 0.60 -0.25 0.70 0.20 1.90 0.35 2.65 0.25 1.20 -0.05 1.40 0.10 1.25 1.05 -0.10 0.95 -0.50 1.15 -2 1.25 -1.50 0.10 -1.90 -0.05 -1.90 -0.75z"/>
  <path d="M32.35 29.15 c-0.15 -1.60 -0.20 -2.95 -0.10 -3.10 0.40 -0.35 1.25 2.50 1.25 4.25 0 2.75 -0.85 1.95 -1.15 -1.15z"/>
  <path d="M26.30 31.15 c-0.65 -0.65 -0.25 -1.15 0.85 -1.15 0.65 0 1.40 -0.25 1.75 -0.60 0.40 -0.40 0.60 -0.40 0.60 -0.05 0 0.95 -2.60 2.40 -3.20 1.80z"/>
  <path d="M25.90 19.15 c-0.95 -0.25 -1.25 -1.65 -0.35 -1.65 0.30 0 0.85 -0.35 1.25 -0.75 1.10 -1.05 1.80 -0.95 1.45 0.25 -0.30 0.90 -0.15 1 1.10 0.75 1.35 -0.30 1.30 -0.25 -0.35 0.70 -0.95 0.55 -1.85 1 -2 0.95 -0.15 0 -0.65 -0.10 -1.10 -0.25z"/>
  <path d="M16.70 18.15 c0.15 -0.40 0.30 -0.85 0.30 -0.95 0 -0.45 2.45 -0.15 2.75 0.35 0.45 0.70 0.15 0.90 -1.70 1.15 -1.25 0.15 -1.55 0 -1.35 -0.55z"/>
  <path d="M23.50 14.25 c0 -1 1.80 -2.75 2.75 -2.75 0.60 0 0.45 0.45 -0.60 1.75 -1.50 1.90 -2.15 2.20 -2.15 1z"/>
  <path d="M9.50 10.65 c-0.75 -1.60 -0.95 -2.60 -0.65 -3.10 0.70 -1.10 1.60 -1.25 1.35 -0.20 -0.15 0.50 -0.05 1.90 0.25 3.15 0.25 1.20 0.40 2.30 0.35 2.40 -0.10 0.05 -0.65 -0.95 -1.30 -2.25z"/>
  <path d="M15 10.15 c0 -0.50 2.65 -2.15 3.35 -2.15 0.20 0 -0.05 0.40 -0.60 0.80 -1.55 1.20 -2.75 1.80 -2.75 1.35z"/>
  <path d="M27.50 3.80 c0 -1.20 1.85 -2.80 2.80 -2.45 0.95 0.35 0.90 0.85 -0.35 2.20 -1 1.20 -1 1.20 -0.45 0.10 0.70 -1.50 -0.20 -1.50 -1.20 -0.05 -0.70 1 -0.80 1 -0.80 0.20z"/>
 </g>
 <g fill="#ee9f01">
  <path d="M16.95 36.15 c-0.35 -0.95 -0.35 -1.75 0 -2.50 0.55 -1.20 1.75 -1.55 2.30 -0.65 0.45 0.75 -0.30 3 -1.05 3 -0.85 0 -0.90 0.85 -0.05 1.15 0.45 0.20 0.45 0.30 -0.05 0.30 -0.35 0.05 -0.85 -0.55 -1.15 -1.30z"/>
 </g>
 <g fill="#bf9047">
  <path d="M12.55 37.80 l-0.05 -2.50 1 1.10 c1.20 1.25 1.25 1.65 0.30 1.30 -0.50 -0.20 -0.80 0.15 -0.95 1.15 -0.10 0.85 -0.25 0.45 -0.30 -1.05z"/>
  <path d="M18.15 38.25 c-1.45 -2.20 -1.45 -2.60 0 -1.15 2.05 2.05 2.55 2.90 1.80 2.90 -0.40 0 -1.20 -0.80 -1.80 -1.75z"/>
  <path d="M7.85 36.70 c1.75 -2.05 2.45 -2.55 2.55 -1.95 0.20 0.95 -3.25 4.75 -4.30 4.75 -0.35 0 0.40 -1.25 1.75 -2.80z"/>
  <path d="M17 35 c0 -0.25 0.45 -0.50 1 -0.50 0.55 0 1 0.25 1 0.50 0 0.30 -0.45 0.50 -1 0.50 -0.55 0 -1 -0.20 -1 -0.50z"/>
  <path d="M22.20 33.40 c-0.25 -0.40 0.15 -0.45 1.45 -0.25 1 0.15 1.95 0.10 2.10 -0.10 0.10 -0.25 0.70 -0.55 1.30 -0.70 1 -0.25 1 -0.25 0.15 0.70 -0.95 1.05 -4.40 1.35 -5 0.35z"/>
  <path d="M16.70 30.30 c0.15 -1.35 0.65 -2.85 1.10 -3.35 0.70 -0.80 0.70 -0.90 -0.25 -1.45 -0.60 -0.30 -1.05 -1 -1.05 -1.50 0 -1.20 0.20 -1.25 1.80 -0.15 1.05 0.65 1.60 0.75 2.75 0.30 1.90 -0.75 1.85 0.10 -0.05 1.10 -0.80 0.45 -1.50 1 -1.50 1.25 0 0.30 -0.30 0.50 -0.70 0.50 -1 0 -1.35 2.40 -0.40 2.60 0.60 0.10 0.45 0.50 -0.60 1.65 l-1.40 1.50 0.30 -2.45z"/>
  <path d="M21.50 28.20 c0 -0.45 -0.25 -0.60 -0.60 -0.40 -0.50 0.25 -0.50 0.20 0 -0.35 0.50 -0.55 0.80 -0.50 1.70 0.45 l1.10 1.10 -1.10 0 c-0.65 0 -1.10 -0.30 -1.10 -0.80z"/>
  <path d="M22.80 26.55 c-0.20 -0.30 -0.15 -0.95 0.15 -1.40 0.45 -0.85 0.50 -0.85 0.85 0 0.40 1.05 -0.50 2.25 -1 1.40z"/>
  <path d="M24.75 26.40 c-0.45 -1.65 -0.55 -3.40 -0.15 -3.40 0.55 0 1.90 3.10 1.60 3.60 -0.40 0.60 -1.20 0.45 -1.45 -0.20z"/>
  <path d="M29.55 26.10 c-0.70 -1.30 -0.35 -2.10 0.50 -1.25 0.30 0.30 0.45 0.95 0.35 1.45 -0.15 0.85 -0.25 0.85 -0.85 -0.20z"/>
  <path d="M20.75 19 c-0.55 -0.25 -1.65 -0.45 -2.40 -0.45 -1.05 -0.05 -1.40 -0.25 -1.25 -0.90 0.25 -1.40 1.50 -1.25 3.40 0.35 1.80 1.60 1.85 1.70 0.25 1z"/>
  <path d="M24.80 18.55 c-0.35 -0.55 0.45 -2.85 1.05 -3.20 0.20 -0.10 1 -0.35 1.70 -0.50 1.20 -0.30 1.30 -0.20 1.05 0.90 -0.10 0.70 -0.40 1.25 -0.65 1.25 -0.25 0 -0.45 0.45 -0.45 1 0 0.75 -0.35 1 -1.20 1 -0.70 0 -1.35 -0.20 -1.50 -0.45z"/>
  <path d="M21 16.50 c-1.65 -1.10 -2 -1.55 -1.40 -1.75 0.45 -0.20 1.40 0.30 2.45 1.20 2.20 2.05 1.65 2.35 -1.05 0.55z"/>
 </g>
 <g fill="#858c8c">
  <path d="M12 34.60 c0 -0.50 0.35 -1.35 0.75 -1.90 0.80 -1.05 1 -0.40 0.45 1.70 -0.40 1.30 -1.20 1.45 -1.20 0.20z"/>
  <path d="M11.05 33.50 c-0.05 -0.70 0.40 -1.90 0.95 -2.75 0.55 -0.80 1.10 -2.45 1.30 -3.60 0.15 -1.20 0.50 -2.15 0.70 -2.15 0.55 0 -0.05 4.60 -0.70 5.45 -0.25 0.35 -0.90 1.50 -1.35 2.50 -0.80 1.65 -0.85 1.70 -0.90 0.55z"/>
  <path d="M21.50 31.30 c0 -0.70 -0.25 -1.30 -0.60 -1.30 -0.30 0 -0.45 -0.10 -0.35 -0.25 0.15 -0.10 0.75 -0.10 1.35 0.10 0.80 0.20 1.10 0.60 1 1.30 -0.25 1.55 -1.40 1.65 -1.40 0.15z"/>
  <path d="M23.50 31.30 c0 -1 0.25 -1.30 1.05 -1.30 0.75 0 1 0.25 0.85 1.10 -0.25 1.70 -1.90 1.85 -1.90 0.20z"/>
  <path d="M32.65 28.80 c-0.30 -1 -0.35 -1.80 -0.10 -1.80 0.50 0 1.15 2.20 0.85 3.05 -0.10 0.30 -0.45 -0.25 -0.75 -1.25z"/>
  <path d="M21.15 28.65 c-0.50 -0.15 -0.50 -0.35 0 -0.90 0.40 -0.45 0.80 -0.50 1.25 -0.15 1.25 1.05 0.45 1.75 -1.25 1.05z"/>
  <path d="M22.75 26.50 c-0.20 -0.30 -0.15 -0.80 0.15 -1.10 0.30 -0.30 0.60 -0.30 0.85 0.10 0.20 0.30 0.15 0.80 -0.15 1.10 -0.30 0.30 -0.60 0.30 -0.85 -0.10z"/>
  <path d="M18.35 18.65 c-1.65 -0.20 -1.80 -0.30 -1.35 -1.20 0.70 -1.25 1.15 -1.20 2.85 0.30 0.75 0.65 1.20 1.20 0.90 1.15 -0.25 -0.05 -1.35 -0.15 -2.40 -0.25z"/>
  <path d="M25 18.30 c0 -0.40 0.30 -0.85 0.65 -0.95 0.45 -0.20 0.45 -0.40 -0.10 -0.75 -0.45 -0.35 -0.50 -0.60 -0.10 -0.80 0.30 -0.20 0.55 -0.10 0.55 0.15 0 0.30 0.55 0.55 1.20 0.55 0.95 0 1.10 0.20 0.90 1.25 -0.15 1 -0.50 1.25 -1.65 1.25 -0.90 0 -1.45 -0.25 -1.45 -0.70z"/>
  <path d="M2.50 15.60 c0.05 -0.70 1.45 -2.20 1.95 -2.05 0.25 0.10 -0.05 0.70 -0.70 1.30 -0.70 0.60 -1.25 0.90 -1.25 0.75z"/>
  <path d="M23.50 14.35 c0 -0.85 1.60 -2.35 2.45 -2.35 0.40 0 0.15 0.60 -0.55 1.45 -1.25 1.65 -1.90 1.90 -1.90 0.90z"/>
  <path d="M13.75 11 c1.75 -1.95 9.25 -5.70 9.25 -4.60 0 0.25 -0.85 0.70 -1.90 1 -1.05 0.35 -3.35 1.50 -5.15 2.65 -2 1.30 -2.85 1.65 -2.20 0.95z"/>
  <path d="M8.90 9.25 c-0.40 -0.95 -0.40 -1.40 0.10 -2 0.85 -1.05 1.65 -0.95 1.05 0.10 -0.25 0.50 -0.25 1.30 0 2 0.60 1.60 -0.40 1.50 -1.15 -0.10z"/>
  <path d="M14 5.20 c0 -0.65 2.40 -2.95 2.75 -2.60 0.15 0.10 -0.45 0.85 -1.25 1.65 -0.85 0.80 -1.50 1.20 -1.50 0.95z"/>
  <path d="M28 2.75 c0 -0.95 1.65 -1.80 2.45 -1.30 0.45 0.30 0.20 0.65 -0.90 1.20 -1.30 0.65 -1.55 0.65 -1.55 0.10z"/>
 </g>
 <g fill="#b69762">
  <path d="M5.75 38.80 c1.15 -0.75 2.75 -2.40 3.75 -4 1.95 -3.15 3.85 -4.05 2.05 -1 -0.60 0.95 -0.90 2 -0.75 2.30 0.20 0.30 0.10 0.40 -0.15 0.25 -0.30 -0.20 -1.35 0.55 -2.35 1.65 -1.25 1.40 -2.20 2 -3.15 2 -1.35 0 -1.35 -0.05 0.60 -1.20z"/>
  <path d="M11.70 36.90 c0.20 -1.70 0.70 -3.55 1.10 -4.10 0.70 -1 0.75 -0.95 0.45 0.75 -0.20 1.05 -0.10 2.30 0.20 2.90 0.40 0.70 0.40 1.05 0.05 1.05 -0.25 0 -0.50 0.55 -0.50 1.25 0 0.80 -0.30 1.25 -0.80 1.25 -0.70 0 -0.80 -0.40 -0.50 -3.10z"/>
  <path d="M34.60 39 c-0.35 -0.55 -0.40 -1 -0.20 -1 0.25 0 0.85 0.45 1.35 1 0.70 0.75 0.75 1 0.20 1 -0.40 0 -1 -0.45 -1.35 -1z"/>
  <path d="M23.80 36.15 c-0.55 -0.55 -0.30 -1.15 0.45 -1.15 0.40 0 0.75 0.20 0.75 0.45 0 0.65 -0.80 1.10 -1.20 0.70z"/>
  <path d="M25.60 33.40 c0.15 -0.35 0.65 -0.75 1.20 -0.85 0.80 -0.15 0.85 -0.05 0.25 0.65 -0.80 0.95 -1.70 1.05 -1.45 0.20z"/>
  <path d="M23.50 32.05 c0 -0.50 1.50 -1.20 1.85 -0.85 0.15 0.15 0.10 0.45 -0.10 0.75 -0.40 0.65 -1.75 0.75 -1.75 0.10z"/>
  <path d="M16.80 29.90 c0.10 -1.20 0.50 -2.35 0.80 -2.65 0.35 -0.35 0.45 -0.10 0.30 0.90 -0.15 0.75 -0.05 1.50 0.15 1.65 0.55 0.30 -0.40 2.20 -1.05 2.20 -0.30 0 -0.40 -0.90 -0.20 -2.10z"/>
  <path d="M21 28.50 c-0.60 -0.35 -0.60 -0.60 -0.15 -1.05 0.45 -0.45 0.80 -0.45 1.40 0.05 1.45 1.20 0.45 2.10 -1.25 1z"/>
  <path d="M24.85 26.65 c-0.55 -0.50 -0.40 -2.15 0.15 -2.15 0.30 0 0.50 0.55 0.50 1.25 0 1.30 -0.10 1.45 -0.65 0.90z"/>
  <path d="M22.60 25.95 c0.10 -0.30 0.40 -0.50 0.65 -0.50 0.25 0 0.55 0.20 0.65 0.50 0.10 0.30 -0.20 0.55 -0.65 0.55 -0.45 0 -0.75 -0.25 -0.65 -0.55z"/>
  <path d="M29.30 25.70 c-0.45 -1.20 -0.35 -1.40 0.45 -0.70 0.85 0.70 1 1.50 0.30 1.50 -0.25 0 -0.60 -0.35 -0.75 -0.80z"/>
  <path d="M17.30 25.20 c-0.45 -0.40 -0.80 -1.20 -0.80 -1.75 0 -0.95 0.05 -0.95 1.50 0.15 1.30 0.95 1.75 1.05 3 0.55 2.15 -0.80 1.85 0.20 -0.30 1.10 -2.25 0.95 -2.45 0.95 -3.40 -0.05z"/>
  <path d="M24.20 22.70 c0.15 -0.45 0.30 -1 0.30 -1.25 0 -0.85 0.85 -0.05 1.15 1.05 0.20 0.75 0 1 -0.75 1 -0.70 0 -0.90 -0.25 -0.70 -0.80z"/>
  <path d="M25.65 17.95 c0.15 -0.50 0 -1 -0.35 -1.10 -0.80 -0.35 0.20 -1.15 1.90 -1.55 1.35 -0.35 1.40 -0.30 1.10 1.05 -0.20 0.75 -0.35 1.65 -0.40 1.90 -0.05 0.30 -0.60 0.55 -1.30 0.55 -0.95 0.10 -1.15 -0.10 -0.95 -0.85z"/>
  <path d="M17.20 17.95 c-0.40 -0.70 0.55 -1.65 1.25 -1.25 0.30 0.20 0.55 0.70 0.55 1.10 0 0.80 -1.30 0.95 -1.80 0.15z"/>
  <path d="M22.20 17.30 c-0.50 -0.40 -0.85 -0.85 -0.70 -0.95 0.15 -0.15 0.70 0.05 1.20 0.45 0.55 0.35 0.85 0.80 0.75 0.95 -0.15 0.15 -0.70 -0.10 -1.25 -0.45z"/>
 </g>
 <g fill="#ffdf00">
  <path d="M17 34.55 c0 -1.05 1.15 -2.25 1.65 -1.70 0.20 0.15 0.35 0.85 0.35 1.50 0 0.80 -0.30 1.15 -1 1.15 -0.65 0 -1 -0.35 -1 -0.95z"/>
  <path d="M16.50 31.75 c0 -0.40 0.35 -0.75 0.80 -0.75 0.70 0 0.70 0.15 0.20 0.75 -0.35 0.40 -0.70 0.75 -0.80 0.75 -0.10 0 -0.20 -0.35 -0.20 -0.75z"/>
 </g>
 <g fill="#d7ae64">
  <path d="M5.50 39.10 c2 -1 2.45 -0.95 1.50 0.15 -0.35 0.40 -1.20 0.75 -1.95 0.75 -1.25 0 -1.20 -0.05 0.45 -0.90z"/>
  <path d="M11.50 31.55 c0.85 -1.30 1.50 -2.65 1.50 -3 0 -0.30 0.25 -0.55 0.50 -0.55 0.30 0 0.50 0.45 0.50 1 0 0.55 -0.20 1 -0.40 1 -0.25 0 -0.80 0.90 -1.25 2 -0.45 1.15 -1.10 2 -1.55 2 -0.60 0 -0.45 -0.50 0.70 -2.45z"/>
  <path d="M16.80 30.50 c0.20 -1.25 0.55 -2.60 0.80 -3 0.35 -0.55 0.40 -0.40 0.20 0.45 -0.15 0.70 -0.05 1.50 0.25 1.85 0.30 0.40 0.15 0.95 -0.55 1.75 l-1 1.20 0.30 -2.25z"/>
  <path d="M24 32.10 c0 -0.25 0.35 -0.65 0.80 -0.80 0.50 -0.20 0.70 -0.05 0.60 0.30 -0.25 0.75 -1.40 1.15 -1.40 0.50z"/>
  <path d="M21.25 28.35 c-0.60 -0.50 -0.75 -0.80 -0.30 -1.05 0.30 -0.20 0.90 -0.05 1.30 0.40 1.35 1.35 0.65 1.80 -1 0.65z"/>
  <path d="M24.80 26.40 c-0.95 -3.10 -0.45 -6.10 0.65 -4 0.70 1.30 0.70 4.60 0.05 4.60 -0.30 0 -0.60 -0.30 -0.70 -0.60z"/>
  <path d="M29.50 26.05 c-0.35 -0.75 -0.35 -1.05 0 -1.05 0.60 0 1.25 1.40 0.85 1.80 -0.15 0.15 -0.50 -0.20 -0.85 -0.75z"/>
  <path d="M22.60 26.05 c0.10 -0.35 0.35 -0.60 0.55 -0.60 0.60 0.05 0.45 0.75 -0.15 1 -0.35 0.10 -0.55 -0.10 -0.40 -0.40z"/>
  <path d="M17 24.30 c0 -1.30 0.05 -1.30 1.25 -0.50 0.85 0.55 1.70 0.70 2.85 0.45 1.30 -0.30 1.50 -0.20 1.05 0.25 -0.30 0.35 -1.60 0.75 -2.85 0.85 -2.20 0.25 -2.30 0.25 -2.30 -1.05z"/>
  <path d="M19.10 18.55 c-0.90 -0.15 -1.65 -0.45 -1.60 -0.65 0 -0.25 0 -0.60 0 -0.90 0 -0.85 0.85 -0.55 2.35 0.75 0.75 0.65 1.30 1.20 1.15 1.15 -0.15 0 -1 -0.15 -1.90 -0.35z"/>
  <path d="M25 18.30 c0 -0.40 0.30 -0.85 0.65 -0.95 0.50 -0.20 0.50 -0.30 0 -0.30 -0.95 -0.05 -0.80 -0.90 0.25 -1.20 0.45 -0.10 1.25 -0.40 1.75 -0.60 1.20 -0.50 1.10 0.80 -0.20 2.45 -1.10 1.40 -2.45 1.75 -2.45 0.60z"/>
  <path d="M20.75 16.25 c-1.95 -1.60 -1.20 -1.60 1.15 0 1 0.70 1.50 1.25 1.10 1.25 -0.40 0 -1.40 -0.55 -2.25 -1.25z"/>
 </g>
 <g fill="#98a5ae">
  <path d="M12 34.65 c0.05 -0.65 1.45 -2.95 1.50 -2.40 0 1.05 -0.65 2.75 -1.05 2.75 -0.25 0 -0.45 -0.15 -0.45 -0.35z"/>
  <path d="M11.50 32.45 c0 -0.75 0.35 -1.60 0.75 -1.95 0.35 -0.30 0.85 -1.60 1.05 -2.80 0.15 -1.20 0.50 -2.30 0.70 -2.45 0.50 -0.30 -0.05 4.45 -0.55 4.75 -0.20 0.15 -0.75 1.05 -1.15 2 -0.70 1.65 -0.75 1.70 -0.80 0.45z"/>
  <path d="M21.80 32.15 c-0.60 -0.60 -0.30 -2.15 0.45 -2.15 0.40 0 0.75 0.45 0.75 0.95 0 1.05 -0.65 1.70 -1.20 1.20z"/>
  <path d="M23.50 32.10 c0 -1.10 0.65 -2.10 1.35 -2.10 1.05 0 0.60 2.20 -0.45 2.40 -0.50 0.10 -0.90 -0.05 -0.90 -0.30z"/>
  <path d="M32.60 28.45 c-0.35 -1.15 -0.55 -2.15 -0.45 -2.30 0.35 -0.35 1.45 2.75 1.25 3.60 -0.05 0.45 -0.45 -0.15 -0.80 -1.30z"/>
  <path d="M26 18 c0 -0.70 0.35 -1 1.10 -1 1 0 1.05 0.05 0.15 1 -0.50 0.55 -1 1 -1.10 1 -0.05 0 -0.15 -0.45 -0.15 -1z"/>
  <path d="M17.35 18.15 c-0.20 -0.15 -0.10 -0.60 0.20 -1 0.45 -0.50 0.75 -0.50 1.25 -0.10 0.40 0.30 0.70 0.75 0.70 1 0 0.50 -1.70 0.60 -2.15 0.10z"/>
  <path d="M2.50 15.55 c0 -0.50 1.95 -2.30 2.15 -2 0.10 0.10 -0.35 0.70 -1 1.30 -0.65 0.60 -1.15 0.95 -1.15 0.70z"/>
  <path d="M23.50 14.45 c0 -0.85 1.85 -2.80 2.30 -2.35 0.15 0.15 -0.30 0.95 -1 1.70 -0.90 1.05 -1.25 1.20 -1.30 0.65z"/>
  <path d="M9.40 10.30 c-0.50 -1 -0.65 -1.80 -0.40 -1.80 0.65 0 1.60 1.90 1.40 2.85 -0.10 0.50 -0.45 0.10 -1 -1.05z"/>
  <path d="M22 6.55 c0 -0.45 1.70 -1.05 3 -1 0.40 0 0 0.30 -0.95 0.70 -1.95 0.90 -2.05 0.90 -2.05 0.30z"/>
  <path d="M15 4 c0 -0.25 0.50 -0.75 1.15 -1.05 1.10 -0.60 1.10 -0.60 0.15 0.50 -1.05 1.15 -1.30 1.30 -1.30 0.55z"/>
  <path d="M27.10 3.65 c0.10 -0.50 0.55 -0.95 1.05 -1.05 0.80 -0.15 0.85 -0.05 0.25 0.85 -0.80 1.25 -1.55 1.35 -1.30 0.20z"/>
 </g>
 <g fill="#d1b888">
  <path d="M4.75 39.65 c0.55 -0.15 1.30 -0.50 1.65 -0.75 0.75 -0.65 5.10 -6.80 5.10 -7.30 0.05 -0.45 1.80 -2.60 2.15 -2.60 0.60 0 -3.10 6.25 -5.05 8.50 -1.65 1.90 -2.45 2.50 -3.50 2.45 -1.05 -0.05 -1.15 -0.10 -0.35 -0.30z"/>
  <path d="M11.85 38.90 c-0.35 -1.50 0.35 -5.35 1.15 -6.05 0.50 -0.45 0.55 -0.45 0.30 0 -0.20 0.35 -0.35 2.10 -0.35 3.90 -0.05 3.20 -0.60 4.30 -1.10 2.15z"/>
  <path d="M17 29.85 c0 -1 0.25 -1.95 0.55 -2.15 0.40 -0.20 0.45 0.05 0.20 0.80 -0.20 0.70 -0.15 1.25 0.20 1.50 0.45 0.25 0.40 0.50 -0.20 1 -0.65 0.55 -0.75 0.40 -0.75 -1.15z"/>
  <path d="M24.80 25.90 c-0.55 -1.75 -0.65 -3.25 -0.35 -4.10 0.35 -0.85 0.45 -0.80 0.95 0.70 0.75 2.05 0.75 4 0.10 4 -0.30 0 -0.60 -0.30 -0.70 -0.60z"/>
  <path d="M16.75 24.45 c-0.50 -1.45 0.05 -1.75 1.25 -0.70 1.25 1.15 1.25 1.75 0.05 1.75 -0.55 0 -1.15 -0.45 -1.30 -1.05z"/>
  <path d="M19.10 18.50 c-2.05 -0.50 -2.30 -0.70 -1.50 -1.40 0.50 -0.35 1.05 -0.20 2.15 0.70 0.85 0.65 1.40 1.15 1.25 1.15 -0.15 -0.05 -1 -0.25 -1.90 -0.45z"/>
  <path d="M25 18.60 c0 -0.25 0.55 -0.95 1.20 -1.55 1.45 -1.35 2.35 -0.50 1 1 -0.85 0.95 -2.20 1.30 -2.20 0.55z"/>
 </g>
 <g fill="#f3c76d">
  <path d="M9.50 35.05 c0 -0.20 0.40 -0.95 0.90 -1.60 1.40 -1.95 2.10 -3.15 2.40 -4.05 0.20 -0.50 0.50 -0.90 0.75 -0.90 0.60 0 0.60 0.85 0 1.20 -0.25 0.15 -1.05 1.50 -1.75 3.05 -1.20 2.45 -2.30 3.55 -2.30 2.30z"/>
  <path d="M17 31.10 c0 -0.70 0.30 -1.10 0.80 -1.10 0.70 0 0.75 0.15 0.15 0.90 -0.35 0.45 -0.75 0.95 -0.80 1.05 -0.10 0.10 -0.15 -0.25 -0.15 -0.85z"/>
  <path d="M18.50 25.05 c0 -0.25 0.80 -0.55 1.80 -0.65 1.60 -0.20 1.70 -0.15 0.90 0.45 -1 0.75 -2.70 0.85 -2.70 0.20z"/>
  <path d="M25 18.60 c0 -0.25 0.70 -1.05 1.50 -1.85 1.40 -1.35 1.50 -1.35 1.50 -0.40 0 0.55 -0.55 1.40 -1.25 1.85 -1.35 0.90 -1.75 1 -1.75 0.40z"/>
  <path d="M17.75 18 c-0.55 -0.85 0.25 -1.60 1.05 -0.95 0.40 0.30 0.70 0.75 0.70 1 0 0.60 -1.35 0.55 -1.75 -0.05z"/>
 </g>
 <g fill="#b0babf">
  <path d="M23.90 32.20 c-0.50 -0.50 0.20 -2.20 0.90 -2.20 0.75 0 0.85 0.50 0.40 1.70 -0.30 0.80 -0.80 1 -1.30 0.50z"/>
  <path d="M21.70 31.20 c0.15 -0.45 0.30 -0.90 0.30 -1 0 -0.10 0.25 -0.20 0.50 -0.20 0.30 0 0.50 0.45 0.50 1 0 0.60 -0.35 1 -0.80 1 -0.55 0 -0.70 -0.25 -0.50 -0.80z"/>
  <path d="M13.30 27.90 c0.45 -2.85 0.70 -3.05 0.70 -0.50 0 1.10 -0.25 2.20 -0.50 2.35 -0.35 0.20 -0.40 -0.40 -0.20 -1.85z"/>
  <path d="M32.55 28.20 c-0.30 -0.75 -0.45 -1.45 -0.35 -1.60 0.15 -0.10 0.50 0.40 0.80 1.15 0.70 1.80 0.35 2.15 -0.45 0.45z"/>
  <path d="M17.75 17.95 c-0.20 -0.30 -0.20 -0.65 -0.05 -0.80 0.40 -0.40 1.80 0.25 1.80 0.85 0 0.65 -1.35 0.65 -1.75 -0.05z"/>
  <path d="M24 13.50 c0.30 -0.55 0.75 -1 1.05 -1 0.30 0 0.30 0.35 -0.05 1 -0.30 0.55 -0.75 1 -1.05 1 -0.30 0 -0.30 -0.35 0.05 -1z"/>
  <path d="M9.25 10 c-0.85 -1.65 -0.70 -3 0.30 -3 0.30 0 0.45 0.35 0.25 0.75 -0.15 0.40 -0.05 1.35 0.25 2.05 0.70 1.95 0.15 2.05 -0.80 0.20z"/>
  <path d="M14.75 10.25 c1.75 -1.50 6.85 -3.95 9 -4.40 l1.50 -0.35 -1.50 0.70 c-0.80 0.40 -2.25 1 -3.15 1.35 -0.90 0.30 -2.90 1.35 -4.50 2.25 -2.25 1.35 -2.50 1.45 -1.35 0.45z"/>
  <path d="M14.45 4.65 c0.60 -1.15 1.45 -1.90 1.85 -1.55 0.10 0.15 -0.40 0.75 -1.10 1.45 -1.25 1.15 -1.30 1.15 -0.75 0.10z"/>
  <path d="M27.75 2.50 c0.50 -0.55 1.50 -1 2.20 -0.95 1.25 0 1.25 0.05 0.25 0.45 -0.60 0.25 -1.25 0.65 -1.45 0.95 -0.15 0.30 -0.65 0.55 -1.10 0.55 -0.70 0 -0.70 -0.15 0.10 -1z"/>
 </g>
 <g fill="#f0d69c">
  <path d="M5.50 39.35 c0.70 -0.35 2.50 -2.35 4 -4.45 2.95 -4.20 3.90 -4.80 1.75 -1.10 -1.70 2.90 -4.95 6.20 -6.10 6.20 -0.65 0 -0.55 -0.20 0.35 -0.65z"/>
  <path d="M11.95 38.15 c-0.20 -1.35 0.20 -4 0.65 -4.40 0.35 -0.35 0.40 0.10 0.20 1.50 -0.20 1.10 -0.40 2.30 -0.40 2.65 -0.05 0.65 -0.35 0.85 -0.45 0.25z"/>
  <path d="M24.95 26.40 c-0.05 -0.10 -0.15 -1.25 -0.25 -2.65 -0.15 -2.40 -0.15 -2.45 0.55 -1.25 0.80 1.45 1 4 0.25 4 -0.25 0 -0.50 -0.05 -0.55 -0.10z"/>
  <path d="M17 24.45 c-0.75 -1.40 -0.25 -1.80 0.90 -0.80 0.50 0.50 1.20 0.85 1.50 0.85 0.35 0 0.60 0.25 0.60 0.50 0 0.95 -2.45 0.50 -3 -0.55z"/>
  <path d="M25 18.75 c0 -0.45 2.15 -2.75 2.60 -2.75 0.85 0 0.35 1.45 -0.85 2.20 -1.25 0.80 -1.75 1 -1.75 0.55z"/>
  <path d="M17.50 17.50 c0 -0.25 0.30 -0.50 0.70 -0.50 0.40 0 0.90 0.25 1.05 0.50 0.15 0.30 -0.15 0.50 -0.70 0.50 -0.60 0 -1.05 -0.20 -1.05 -0.50z"/>
 </g>
 <g fill="#cfdadf">
  <path d="M24 31.35 c0 -1.35 0.65 -1.80 1.30 -0.80 0.15 0.30 -0.05 0.90 -0.50 1.35 -0.75 0.75 -0.80 0.70 -0.80 -0.55z"/>
  <path d="M22 31.05 c0 -0.60 0.25 -1.05 0.50 -1.05 0.30 0 0.50 0.30 0.50 0.70 0 0.40 -0.20 0.90 -0.50 1.05 -0.25 0.15 -0.50 -0.15 -0.50 -0.70z"/>
  <path d="M13.35 28.25 c0.35 -2.45 0.65 -2.90 0.65 -0.95 0 0.80 -0.25 1.80 -0.50 2.20 -0.30 0.50 -0.35 0.10 -0.15 -1.25z"/>
  <path d="M9.15 9.50 c-0.35 -0.50 -0.50 -1.30 -0.35 -1.75 0.50 -1.30 0.95 -0.85 1 1 0 0.95 0 1.75 0 1.75 -0.05 0 -0.35 -0.45 -0.65 -1z"/>
  <path d="M21 6.80 c0.70 -0.45 1.60 -0.75 2 -0.75 0.65 0 0.65 0.05 0 0.40 -0.40 0.25 -1.30 0.60 -2 0.75 l-1.25 0.35 1.25 -0.75z"/>
  <path d="M15 4 c0.30 -0.55 0.80 -1 1.10 -1 0.30 0 0.15 0.45 -0.35 1 -0.50 0.55 -1 1 -1.10 1 -0.10 0 0.05 -0.45 0.35 -1z"/>
  <path d="M27 3.80 c0 -0.85 2.20 -2.50 2.90 -2.20 0.20 0.05 -0.35 0.80 -1.25 1.55 -1.25 1.10 -1.65 1.25 -1.65 0.65z"/>
 </g>
 <g fill="#f6e8ba">
  <path d="M8.85 36 c1.25 -1.65 2.40 -2.90 2.55 -2.80 0.30 0.30 -3.45 5.15 -4.25 5.50 -0.35 0.15 0.45 -1.10 1.70 -2.70z"/>
  <path d="M24.95 26.65 c-0.35 -2.80 -0.35 -4.75 0 -4.35 0.70 0.75 1.20 4.70 0.60 4.70 -0.30 0 -0.55 -0.15 -0.60 -0.35z"/>
  <path d="M17 24.55 c-0.25 -0.55 -0.50 -1.10 -0.50 -1.30 0 -0.45 2.45 1.40 2.50 1.90 0 0.75 -1.50 0.30 -2 -0.60z"/>
 </g>
 <g fill="#f6f9ec">
  <path d="M28 2.75 c0.65 -0.70 1.40 -1.25 1.65 -1.25 0.30 0 -0.10 0.55 -0.85 1.25 -0.75 0.70 -1.50 1.25 -1.65 1.25 -0.20 0 0.20 -0.55 0.85 -1.25z"/>
 </g>
</svg>