<?xml version="1.0" encoding="utf-8"?>
<!DOCTYPE svg PUBLIC "-//W3C//DTD SVG 1.0//EN" "http://www.w3.org/TR/2001/REC-SVG-20010904/DTD/svg10.dtd">
<svg version="1.0" xmlns="http://www.w3.org/2000/svg" width="40px" height="40px" viewBox="0 0 40 40" preserveAspectRatio="xMidYMid meet">
 <g fill="#1b0e12">
  <path d="M15.65 35 c-0.40 -1 -0.90 -1.50 -1.60 -1.50 -0.90 0 -1.05 -0.30 -1.05 -2 0 -1.95 0.05 -2 1.75 -2 0.95 0 1.75 0.25 1.75 0.50 0 0.30 0.45 0.50 1 0.50 1.25 0 2 1.45 2 3.95 0 2 -0.05 2.05 -1.65 2.05 -1.35 0 -1.75 -0.25 -2.20 -1.50z"/>
  <path d="M18.50 20.25 c0 -1.55 -0.15 -1.75 -1.30 -1.75 -1.25 0 -1.30 -0.10 -1.05 -2.10 0.15 -1.20 0.45 -3.05 0.70 -4.15 0.40 -1.85 0.55 -2 2.30 -2.15 1 -0.10 1.85 0 1.85 0.25 0 0.20 0.95 0.40 2.10 0.40 2.10 0 2.15 0.05 2.30 1.90 0.15 1.60 0.35 1.85 1.40 1.85 1.05 0 1.20 0.20 1.20 2 0 1.95 -0.05 2 -1.75 2 -1.70 0 -1.75 -0.05 -1.75 -2.05 0 -2 -0.05 -2.05 -1.35 -1.75 -1.30 0.30 -3.65 2.55 -3.65 3.45 0 0.20 0.55 0.35 1.25 0.35 1.10 0 1.25 0.20 1.25 1.75 0 1.65 -0.10 1.75 -1.75 1.75 -1.65 0 -1.75 -0.10 -1.75 -1.75z"/>
  <path d="M8.50 15.30 c0 -0.35 -0.15 -1.40 -0.30 -2.25 l-0.30 -1.55 2.25 0 c2.45 0 2.85 0.45 2.85 3.05 0 1.40 -0.10 1.45 -2.25 1.45 -1.60 0 -2.25 -0.20 -2.25 -0.70z"/>
 </g>
 <g fill="#242421">
  <path d="M27.50 38.25 c0 -2.15 0.50 -2.20 1.65 -0.30 1.10 1.90 1.10 2.05 -0.40 2.05 -1.10 0 -1.25 -0.20 -1.25 -1.75z"/>
  <path d="M22.30 38.25 c-0.20 -0.70 -0.55 -1.15 -0.80 -1 -0.30 0.15 -0.50 -0.05 -0.50 -0.45 0 -0.55 0.45 -0.80 1.50 -0.80 1.40 0 1.50 0.15 1.50 1.75 0 2.10 -1.20 2.45 -1.70 0.50z"/>
  <path d="M16.55 38.15 c-0.90 -0.20 -1.60 -1.20 -3.10 -4.40 -1.05 -2.30 -1.95 -4.40 -1.95 -4.70 0 -0.30 -0.65 -1.75 -1.45 -3.20 -1.30 -2.40 -1.45 -3.15 -1.45 -7.25 0 -2.55 0.20 -4.60 0.40 -4.60 0.25 0 0.75 0.35 1.20 0.75 0.40 0.40 0.95 0.75 1.25 0.75 1.20 0 2.55 2.05 2.55 3.75 0 1.65 0.10 1.75 1.75 1.75 1.75 0 1.75 0 1.75 2.25 0 2.25 0 2.25 -1.75 2.25 -1.70 0 -1.75 -0.05 -1.75 -2 0 -1.95 -0.05 -2 -1.65 -2 -1.60 0 -1.65 0.10 -1.45 1.50 0.10 0.85 0.40 1.50 0.65 1.50 0.25 0 0.45 0.35 0.45 0.75 0 0.40 0.25 0.75 0.50 0.75 0.30 0 0.50 0.65 0.50 1.45 0 1.60 0.70 2.05 3.30 2.05 1.55 0 1.70 0.15 1.70 1.50 0 1.15 0.20 1.50 1 1.50 0.80 0 1 0.35 1 1.90 0 3.90 -0.40 4.30 -3.45 3.75z m1.45 -3.40 c0 -0.15 -0.10 -0.25 -0.25 -0.25 -0.15 0 -0.25 0.10 -0.25 0.25 0 0.15 0.10 0.25 0.25 0.25 0.15 0 0.25 -0.10 0.25 -0.25z m-0.50 -1.75 c-0.30 -0.55 -0.65 -1 -0.80 -1 -0.10 0 0 0.45 0.30 1 0.30 0.55 0.65 1 0.80 1 0.10 0 0 -0.45 -0.30 -1z m-2.65 -1.85 c-0.20 -0.15 -0.35 0 -0.35 0.35 0 0.35 0.15 0.50 0.35 0.35 0.15 -0.20 0.15 -0.50 0 -0.70z"/>
  <path d="M27 31.25 c0 -1.25 0.20 -2.25 0.45 -2.25 0.25 0 0.55 -0.50 0.65 -1.10 0.10 -0.95 0.50 -1.20 2.15 -1.30 l2 -0.15 -1.75 1.80 c-0.95 0.95 -1.75 2.15 -1.75 2.65 -0.15 2.25 -0.30 2.60 -1 2.60 -0.55 0 -0.75 -0.60 -0.75 -2.25z"/>
  <path d="M32.50 22.80 c0 -1.60 0.15 -1.80 1.25 -1.80 1.20 0 1.25 0.05 0.60 1.60 -0.95 2.30 -1.85 2.40 -1.85 0.20z"/>
  <path d="M18 21.25 c0 -1.40 -0.20 -1.75 -1 -1.75 -0.85 0 -1 -0.35 -1 -2 0 -1.45 0.20 -2 0.75 -2 0.45 0 0.75 -0.45 0.75 -1.25 0 -0.90 0.25 -1.25 1 -1.25 1 0 1 0 0 1.65 -1.40 2.30 -1.25 2.95 0.20 0.80 1.20 -1.75 1.25 -1.75 4.40 -1.60 4.25 0.30 5.40 0.90 5.40 2.90 0 1.90 -0.90 2.75 -4.10 4.05 -1.35 0.50 -2.40 1.25 -2.40 1.60 0 0.35 -0.75 0.60 -2 0.60 -1.95 0 -2 -0.05 -2 -1.75z m2.50 -1 c0 -0.15 -0.10 -0.25 -0.25 -0.25 -0.15 0 -0.25 0.10 -0.25 0.25 0 0.15 0.10 0.25 0.25 0.25 0.15 0 0.25 -0.10 0.25 -0.25z m0.50 -3.30 c0 -0.25 -0.35 -0.45 -0.75 -0.45 -0.40 0 -0.75 0.35 -0.75 0.75 0 0.45 0.30 0.60 0.75 0.45 0.40 -0.20 0.75 -0.50 0.75 -0.75z m5.35 -0.80 c-0.20 -0.15 -0.35 0 -0.35 0.35 0 0.35 0.15 0.50 0.35 0.35 0.15 -0.20 0.15 -0.50 0 -0.70z"/>
  <path d="M33.50 17 c0 -2.65 0.10 -3 1 -3 0.80 0 1 0.35 1 1.90 0 2.60 -0.50 4.10 -1.30 4.10 -0.50 0 -0.70 -0.80 -0.70 -3z"/>
  <path d="M8.20 11.45 c0.45 -2.90 1.45 -4.60 3.95 -6.65 4.15 -3.40 8.65 -4.60 13.50 -3.65 1.20 0.25 1.85 0.70 1.85 1.20 0 0.60 -0.60 0.75 -3.35 0.60 -5.55 -0.20 -7.15 -0.05 -7.15 0.80 0 0.50 -0.50 0.75 -1.50 0.75 -1.15 0 -1.50 0.20 -1.50 1 0 0.65 -0.35 1 -1 1 -0.65 0 -1 0.35 -1 1 0 0.50 -0.35 1.15 -0.75 1.35 -0.40 0.25 -0.80 1.20 -0.85 2.15 -0.15 1.80 -0.65 2.50 -1.85 2.50 -0.50 0 -0.60 -0.50 -0.35 -2.05z"/>
  <path d="M29.50 5 c0 -0.25 -0.35 -0.50 -0.75 -0.50 -0.45 0 -0.75 -0.45 -0.75 -1.20 0 -1.55 1.20 -1.30 3.55 0.70 l1.70 1.45 -1.85 0.05 c-1.05 0 -1.90 -0.20 -1.90 -0.50z"/>
 </g>
 <g fill="#421328">
  <path d="M15.10 17.40 c-1 -1 -0.70 -3.60 0.55 -4.80 0.65 -0.60 1.45 -1.10 1.75 -1.10 0.35 0 0.60 -0.35 0.60 -0.75 0 -0.60 0.70 -0.75 3.30 -0.75 1.85 0 4.20 0.25 5.25 0.60 1.75 0.50 1.95 0.70 1.95 2.25 l0 1.65 -3.75 0 -3.80 0 -1 1.75 c-1.10 1.85 -1.95 2.25 -1.95 1 0 -1.65 2.15 -3.75 4.10 -4.05 1.05 -0.20 1.75 -0.50 1.65 -0.70 -0.15 -0.20 -1.20 -0.10 -2.35 0.25 -2.20 0.60 -3.90 2.55 -3.90 4.40 0 1 -1.50 1.15 -2.40 0.25z m4.15 -5.40 c0.15 -0.25 0.20 -0.50 0.05 -0.50 -0.15 0 -0.40 0.25 -0.55 0.50 -0.15 0.30 -0.20 0.50 -0.05 0.50 0.15 0 0.40 -0.20 0.55 -0.50z"/>
 </g>
 <g fill="#31302e">
  <path d="M26.80 38.70 c-0.15 -0.45 -0.30 -1.20 -0.30 -1.75 0 -0.70 -0.35 -0.95 -1.25 -0.95 -1.05 0 -1.25 0.25 -1.25 1.50 0 1.70 -1.25 2.10 -1.65 0.50 -0.25 -0.90 -0.35 -0.90 -1.70 -0.25 -0.90 0.45 -2.10 0.60 -3.25 0.40 -1.70 -0.25 -2 -0.55 -3.40 -3.60 -0.85 -1.80 -1.75 -3.70 -2 -4.15 -0.30 -0.50 -0.50 -1.30 -0.50 -1.75 0 -0.50 -0.45 -1.45 -1 -2.15 -0.55 -0.70 -1 -1.65 -1 -2.10 0 -0.45 -0.20 -1 -0.50 -1.15 -0.55 -0.35 -0.70 -3.70 -0.20 -4.95 0.15 -0.45 0.70 -0.80 1.15 -0.85 0.65 0 0.65 -0.10 0.05 -0.30 -1.90 -0.75 -1.65 -3.15 0.30 -2.75 0.95 0.15 1.15 0.05 0.90 -0.60 -0.25 -0.65 -0.70 -0.75 -1.75 -0.55 -0.95 0.20 -1.45 0.15 -1.45 -0.25 0 -1.60 1.20 -5.05 2.05 -5.80 0.90 -0.80 0.95 -0.80 0.95 0.95 0 1.05 -0.20 1.85 -0.50 1.85 -1.20 0 -0.35 1.55 1 1.80 1.40 0.30 1.50 0.50 1.50 2.50 0 2 0.10 2.20 1.25 2.20 1.10 0 1.25 0.20 1.25 1.75 0 1.60 -0.10 1.75 -1.50 1.75 -0.80 0 -1.50 -0.20 -1.50 -0.40 0 -0.25 -0.35 -0.85 -0.80 -1.40 -0.75 -0.95 -0.75 -0.90 -0.55 0.20 0.30 1.25 -0.10 1.40 -1.15 0.50 -0.60 -0.55 -0.60 -0.50 -0.05 0.25 0.35 0.45 1 0.85 1.35 0.85 0.40 0 0.70 0.35 0.70 0.75 0 0.40 -0.35 0.75 -0.75 0.75 -0.40 0 -0.75 0.25 -0.75 0.50 0 0.30 0.25 0.50 0.50 0.50 0.30 0 0.50 0.30 0.50 0.70 0 0.35 0.45 1.25 1 1.95 0.55 0.70 1 1.85 1 2.55 0 1.15 0.20 1.30 1.75 1.30 0.95 0 1.75 0.25 1.75 0.50 0 0.30 0.35 0.50 0.75 0.50 0.45 0 0.75 0.45 0.75 1.25 0 0.70 0.25 1.25 0.50 1.25 0.30 0 0.50 0.80 0.50 1.75 0 0.95 0.25 1.75 0.50 1.75 0.30 0 0.50 -0.20 0.50 -0.50 0 -0.25 0.70 -0.50 1.50 -0.50 1.25 0 1.50 -0.20 1.50 -1.25 0 -1.10 0.20 -1.25 1.75 -1.25 1.20 0 1.75 0.25 1.75 0.75 0 0.40 0.35 0.75 0.75 0.75 0.50 0 0.75 0.50 0.75 1.65 0 0.90 0.35 2.15 0.80 2.75 0.75 1.05 0.70 1.10 -0.70 1.10 -0.90 0 -1.60 -0.30 -1.80 -0.80z m-8.30 -3.70 c0 -0.70 -2.15 -4 -2.65 -4 -0.20 0 0.15 0.75 0.85 1.65 1.35 1.75 1.25 2.80 -0.15 1.70 -0.70 -0.55 -0.70 -0.50 -0.10 0.30 0.75 0.95 2.05 1.15 2.05 0.35z m-3.65 -3.85 c-0.20 -0.15 -0.35 0 -0.35 0.35 0 0.35 0.15 0.50 0.35 0.35 0.15 -0.20 0.15 -0.50 0 -0.70z"/>
  <path d="M27.50 30 c0 -0.55 -0.35 -1 -0.75 -1 -0.90 0 -1.05 -3.25 -0.20 -3.75 0.25 -0.20 1.85 -0.20 3.55 0 l3 0.35 -2.30 2.20 c-1.25 1.25 -2.30 2.45 -2.30 2.70 0 0.30 -0.20 0.50 -0.50 0.50 -0.25 0 -0.50 -0.45 -0.50 -1z"/>
  <path d="M14 24.25 c0 -1.85 1.25 -2.50 1.65 -0.85 0.20 0.80 0.25 0.80 0.30 0 0 -0.50 0.40 -0.90 0.80 -0.90 0.50 0 0.75 0.55 0.75 1.75 0 1.65 -0.10 1.75 -1.75 1.75 -1.65 0 -1.75 -0.10 -1.75 -1.75z"/>
  <path d="M31 21.75 c0 -1.65 0.10 -1.75 1.75 -1.75 1.40 0 1.75 0.20 1.75 0.95 0 1.85 -0.60 2.55 -2.05 2.55 -1.30 0 -1.45 -0.15 -1.45 -1.75z"/>
  <path d="M19 20.25 c0 -1.55 0.15 -1.75 1.25 -1.75 0.70 0 1.25 -0.20 1.25 -0.50 0 -0.25 -0.20 -0.50 -0.50 -0.50 -0.25 0 -0.50 -0.30 -0.50 -0.70 0 -0.40 -0.45 -0.80 -1 -0.90 -0.95 -0.15 -0.95 -0.20 -0.05 -1.35 0.95 -1.25 2.25 -1.45 6.10 -0.80 1.90 0.35 1.95 0.35 1.95 2.55 0 1.90 -0.15 2.20 -1.10 2.20 -1 0 -1 -0.05 -0.20 -0.95 0.85 -0.95 0.85 -1 -0.20 -1.55 -0.55 -0.30 -1.65 -0.45 -2.40 -0.35 -1.25 0.20 -1.25 0.20 0.25 0.30 2.15 0.10 2.45 0.75 0.80 2 -0.80 0.60 -1 0.90 -0.50 0.75 0.65 -0.25 0.85 -0.05 0.85 0.75 0 0.80 -0.30 1.05 -1.25 1.05 -0.80 0 -1.25 0.30 -1.25 0.75 0 0.50 -0.55 0.75 -1.75 0.75 -1.65 0 -1.75 -0.10 -1.75 -1.75z m1.50 0.55 c0 -0.40 0.60 -0.85 1.30 -1 0.75 -0.20 1.20 -0.45 1.05 -0.60 -0.55 -0.55 -2.75 0.45 -3 1.35 -0.15 0.50 -0.05 0.95 0.20 0.95 0.25 0 0.45 -0.30 0.45 -0.70z"/>
  <path d="M33.50 14 c0 -4.05 0.15 -5 0.75 -5 1.20 0 1.40 2.40 0.80 9.65 -0.05 0.20 -0.40 0.35 -0.80 0.35 -0.60 0 -0.75 -0.90 -0.75 -5z"/>
  <path d="M29 16.25 c0 -1.65 0.10 -1.75 1.75 -1.75 1.65 0 1.75 0.10 1.75 1.75 0 1.65 -0.10 1.75 -1.75 1.75 -1.65 0 -1.75 -0.10 -1.75 -1.75z"/>
  <path d="M16.50 12.70 c0 -1.65 0.10 -1.70 1.85 -1.70 1.65 0 1.75 0.05 0.95 0.65 -0.80 0.60 -0.65 0.65 1 0.55 1.10 -0.10 1.40 0 0.70 0.15 -0.70 0.10 -1.65 0.60 -2.15 1.05 -1.60 1.40 -2.35 1.20 -2.35 -0.70z m1.75 0.80 c0.15 -0.25 0.20 -0.50 0.05 -0.50 -0.15 0 -0.40 0.25 -0.55 0.50 -0.15 0.30 -0.20 0.50 -0.05 0.50 0.15 0 0.40 -0.20 0.55 -0.50z"/>
  <path d="M32 6.15 l0.05 -1.90 1.20 1.40 c1.60 1.80 1.55 2.35 0 2.35 -1.10 0 -1.25 -0.20 -1.25 -1.85z"/>
  <path d="M13 4.25 c0.35 -0.45 1.45 -1.15 2.45 -1.60 1 -0.45 1.95 -0.90 2.20 -1 0.20 -0.10 0.35 0.35 0.35 1.05 0 0.95 -0.25 1.30 -1 1.30 -0.55 0 -1 0.25 -1 0.50 0 0.30 -0.80 0.50 -1.80 0.50 -1.55 0 -1.75 -0.10 -1.20 -0.75z"/>
  <path d="M26.25 3.50 c-0.15 -0.25 -1.20 -0.50 -2.30 -0.50 -1.65 0 -1.95 -0.15 -1.95 -1 0 -0.95 0.20 -1 2.85 -0.75 2.70 0.30 5.15 1.40 5.15 2.30 0 0.60 -3.35 0.55 -3.75 -0.05z"/>
 </g>
 <g fill="#5c1c3a">
  <path d="M15.50 15.75 c0 -2.05 0.20 -2.75 0.70 -2.75 0.40 0 0.80 -0.50 0.90 -1.10 0.10 -0.85 0.55 -1.20 1.55 -1.30 0.75 -0.10 1.35 -0.45 1.35 -0.85 0 -0.95 1.20 -1.25 4.40 -1.20 1.75 0 3.45 0.35 4.35 0.90 1.25 0.75 1.50 1.20 1.50 2.85 l0 1.95 -2.25 -0.10 c-1.25 0 -3.20 -0.10 -4.30 -0.15 -2.65 -0.10 -4.10 0.80 -4.50 2.85 -0.30 1.50 -0.50 1.65 -2 1.65 l-1.70 0 0 -2.75z m4.30 -1.25 c1.50 -1.30 2.15 -1.50 4.60 -1.55 l2.85 0 -1.90 -0.75 c-1.35 -0.45 -2.25 -0.55 -2.85 -0.20 -0.50 0.30 -1.35 0.50 -1.80 0.50 -0.50 0 -1.30 0.40 -1.85 0.90 -0.95 0.80 -1 0.80 -0.45 -0.25 0.35 -0.60 0.85 -1.20 1.20 -1.30 0.35 -0.15 0.40 -0.30 0.10 -0.30 -0.30 -0.05 -1.25 0.85 -2.10 1.90 -1.35 1.70 -1.45 2.05 -0.85 2.55 0.40 0.35 0.80 1 0.80 1.45 0.05 0.45 0.20 0.35 0.30 -0.30 0.10 -0.60 1 -1.80 1.95 -2.65z"/>
  <path d="M17 15.40 c0 -0.45 0.25 -1 0.50 -1.15 0.65 -0.40 0.65 0.25 0 1.25 -0.40 0.65 -0.50 0.65 -0.50 -0.10z"/>
 </g>
 <g fill="#3d413b">
  <path d="M22.20 36.15 c-0.50 -1.85 0.35 -2.85 2.50 -3.05 1.75 -0.15 1.80 -0.10 1.80 1.50 0 2.05 -0.75 2.90 -2.60 2.90 -1.10 0 -1.45 -0.30 -1.70 -1.35z m3.30 -1.90 c0 -0.15 -0.10 -0.25 -0.25 -0.25 -0.15 0 -0.25 0.10 -0.25 0.25 0 0.15 0.10 0.25 0.25 0.25 0.15 0 0.25 -0.10 0.25 -0.25z"/>
  <path d="M14.25 33.95 c-0.45 -1.90 0.05 -2.45 1 -1.15 0.60 0.75 0.70 0.75 0.45 0.10 -0.20 -0.60 -0.05 -0.80 0.65 -0.80 0.55 0.05 0.95 0.50 0.95 1.30 0.10 0.85 -0.10 1.10 -0.65 0.85 -0.65 -0.20 -0.70 -0.15 -0.15 0.50 0.55 0.65 0.45 0.75 -0.65 0.75 -1 0 -1.35 -0.30 -1.60 -1.55z"/>
  <path d="M27 31.25 c0 -1.35 0.20 -1.75 0.90 -1.75 0.65 0 0.90 0.30 0.80 1.15 -0.05 0.60 -0.15 1.40 -0.15 1.75 -0.05 0.30 -0.40 0.60 -0.80 0.60 -0.50 0 -0.75 -0.55 -0.75 -1.75z"/>
  <path d="M18.10 19.40 c0 -2.10 0.30 -3.45 0.85 -4.10 0.75 -0.85 0.80 -0.85 1.10 0.75 l0.30 1.70 0.10 -1.60 0.05 -1.65 3.25 0 c3 0 3.25 0.10 3.25 1.05 0 0.85 -0.15 0.95 -0.70 0.50 -0.80 -0.65 -3.60 -0.90 -4.15 -0.40 -0.15 0.20 0.50 0.35 1.55 0.35 2.80 0 2.25 1.50 -1.05 2.75 -1.45 0.55 -2.70 1.40 -2.80 1.90 -0.15 0.45 -0.05 0.85 0.20 0.85 0.25 0 0.45 -0.25 0.45 -0.50 0 -0.30 1.10 -1.05 2.50 -1.70 1.35 -0.65 2.80 -1.45 3.25 -1.80 0.50 -0.40 0.75 -0.45 0.75 -0.05 0 0.30 -0.20 0.55 -0.50 0.55 -0.25 0 -0.50 0.55 -0.50 1.25 0 0.95 -0.25 1.25 -1.10 1.25 -1.95 0 -3.40 0.60 -3.40 1.30 0 0.45 -0.60 0.70 -1.75 0.70 l-1.75 0 0.10 -3.10z"/>
  <path d="M10 21.50 c0 -0.25 -0.35 -0.50 -0.80 -0.50 -0.55 0 -0.70 -0.25 -0.50 -0.80 0.15 -0.45 0.30 -1.20 0.30 -1.75 0 -1.30 1.80 -1.25 2.15 0.05 0.30 1.15 -0.15 1.30 -1.10 0.40 -0.50 -0.55 -0.55 -0.50 -0.30 0.25 0.30 0.75 2.75 1.30 2.75 0.55 0 -0.80 -1.20 -2.25 -2.40 -2.90 -0.75 -0.45 -1.05 -0.75 -0.70 -0.80 0.80 0 2.10 -1.25 2.10 -1.95 0 -0.30 0.55 -0.55 1.25 -0.55 1 0 1.25 0.25 1.25 1.25 0 0.80 0.30 1.25 0.75 1.25 0.50 0 0.75 0.55 0.75 1.75 0 1.40 -0.20 1.75 -1 1.75 -0.75 0 -1 0.35 -1 1.25 0 1.10 -0.20 1.25 -1.75 1.25 -0.95 0 -1.75 -0.20 -1.75 -0.50z m4 -3.25 c0 -0.15 -0.10 -0.25 -0.25 -0.25 -0.15 0 -0.25 0.10 -0.25 0.25 0 0.15 0.10 0.25 0.25 0.25 0.15 0 0.25 -0.10 0.25 -0.25z"/>
  <path d="M16.50 16.90 c0 -0.95 0.10 -1 0.50 -0.40 0.65 0.95 0.65 1.50 0 1.50 -0.25 0 -0.50 -0.50 -0.50 -1.10z"/>
  <path d="M33.50 14.25 c0 -1.40 0.20 -1.75 1 -1.75 1.05 0 1.20 0.50 0.70 2.40 -0.50 1.80 -1.70 1.35 -1.70 -0.65z"/>
  <path d="M8.50 10.65 c0 -1.25 2.30 -4.90 3.75 -5.85 1.25 -0.80 1.25 -0.80 1.25 0.45 0 1.50 -1.05 2.75 -2.20 2.75 -0.60 0 -0.80 0.50 -0.80 1.75 0 1.40 -0.20 1.75 -1 1.75 -0.60 0 -1 -0.35 -1 -0.85z"/>
  <path d="M16.10 2.90 c0.15 -0.35 0.95 -0.90 1.80 -1.25 1.55 -0.65 1.60 -0.60 1.60 0.60 0 1.10 -0.20 1.25 -1.80 1.25 -1.15 0 -1.70 -0.20 -1.60 -0.60z"/>
 </g>
 <g fill="#6d2647">
  <path d="M16 15.75 c0 -0.15 0.10 -0.25 0.25 -0.25 0.15 0 0.25 0.10 0.25 0.25 0 0.15 -0.10 0.25 -0.25 0.25 -0.15 0 -0.25 -0.10 -0.25 -0.25z"/>
  <path d="M19 15.25 c0.35 -0.45 0.75 -0.65 0.85 -0.55 0.35 0.35 -0.35 1.30 -0.95 1.30 -0.30 0 -0.30 -0.30 0.10 -0.75z"/>
  <path d="M16 13.75 c0 -0.85 0.30 -1.45 0.90 -1.60 0.50 -0.10 1.10 -0.70 1.35 -1.30 0.40 -0.90 1 -1.15 3.15 -1.25 2.20 -0.15 2.60 -0.30 2.60 -1.15 0 -0.85 0.30 -1 2.10 -0.85 1.90 0.15 2.15 0.30 2.50 1.80 0.25 0.90 0.75 1.60 1.15 1.60 0.50 0 0.75 0.55 0.75 1.75 l0 1.75 -2.50 0 c-1.50 0 -2.50 -0.20 -2.50 -0.55 0 -0.35 -0.85 -0.45 -2.60 -0.25 -1.75 0.25 -2.40 0.20 -1.90 -0.15 0.40 -0.25 2.20 -0.50 4 -0.60 3.85 -0.15 4.25 -0.30 3.45 -1.25 -0.65 -0.80 -1.65 -0.95 -1.20 -0.20 0.20 0.30 -0.35 0.50 -1.20 0.50 -0.85 0 -1.55 -0.20 -1.55 -0.50 0 -0.25 0.45 -0.50 1.05 -0.50 0.55 0 0.85 -0.20 0.70 -0.50 -0.40 -0.65 -3.25 -0.65 -4.25 0 -0.65 0.40 -0.60 0.50 0.20 0.50 0.70 0 0.85 0.15 0.45 0.55 -0.65 0.65 -3.25 1 -2.85 0.40 0.15 -0.25 0.05 -0.45 -0.20 -0.45 -0.70 0 -1.65 1.30 -1.50 2.05 0.10 0.35 -0.05 0.65 -0.35 0.70 -0.25 0 -0.80 0.20 -1.10 0.40 -0.45 0.30 -0.65 0 -0.65 -0.90z m2 0 c0 -0.15 -0.10 -0.25 -0.25 -0.25 -0.15 0 -0.25 0.10 -0.25 0.25 0 0.15 0.10 0.25 0.25 0.25 0.15 0 0.25 -0.10 0.25 -0.25z"/>
 </g>
 <g fill="#504a4b">
  <path d="M22.50 38.20 c0 -1.70 -0.05 -1.75 -1.10 -1 -1.55 1.10 -1.90 1 -1.90 -0.45 0 -1.10 0.20 -1.25 1.75 -1.25 0.95 0 1.75 0.25 1.75 0.50 0 0.30 0.35 0.50 0.75 0.50 0.50 0 0.75 0.55 0.75 1.75 0 1.40 -0.20 1.75 -1 1.75 -0.80 0 -1 -0.35 -1 -1.80z"/>
  <path d="M26.50 36.30 c0 -0.40 -0.50 -0.80 -1.10 -0.90 -0.90 -0.10 -1.20 -0.55 -1.30 -1.75 -0.10 -0.90 -0.40 -1.65 -0.65 -1.65 -0.30 0 -0.45 -0.85 -0.35 -1.85 0.10 -1.55 0.35 -1.95 1.30 -2.05 0.70 -0.10 1.10 -0.50 1.10 -1.15 0 -0.50 0.35 -0.95 0.75 -0.95 0.40 0 0.75 -0.30 0.75 -0.70 0 -0.75 1.05 -1.30 2.55 -1.30 0.70 0 0.95 -0.35 0.95 -1.45 0 -0.80 0.20 -1.55 0.40 -1.65 0.25 -0.05 0.60 -0.75 0.80 -1.50 0.30 -1.25 0.20 -1.40 -0.95 -1.40 -1.10 0 -1.25 -0.20 -1.25 -1.75 0 -1.65 0.10 -1.75 1.75 -1.75 1.65 0 1.75 0.10 1.75 1.75 0 1.40 0.20 1.75 1 1.75 2.55 0 -0.30 8 -3.35 9.50 -0.90 0.40 -1.65 1.05 -1.65 1.40 0 0.30 -0.45 0.60 -1 0.60 -0.65 0 -1 0.35 -1 1 0 0.55 0.20 1 0.45 1 0.60 0 1.10 2.85 0.75 4.30 -0.35 1.30 -1.70 1.70 -1.70 0.50z m-1.25 -1.80 c0.15 -0.25 0.20 -0.50 0.05 -0.50 -0.15 0 -0.40 0.25 -0.55 0.50 -0.15 0.30 -0.20 0.50 -0.05 0.50 0.15 0 0.40 -0.20 0.55 -0.50z m3 -7.50 c0.15 -0.25 0.20 -0.50 0.05 -0.50 -0.15 0 -0.40 0.25 -0.55 0.50 -0.15 0.30 -0.20 0.50 -0.05 0.50 0.15 0 0.40 -0.20 0.55 -0.50z m4.75 -5.25 c0 -0.15 -0.10 -0.25 -0.25 -0.25 -0.15 0 -0.25 0.10 -0.25 0.25 0 0.15 0.10 0.25 0.25 0.25 0.15 0 0.25 -0.10 0.25 -0.25z m-2 -5.50 c0 -0.15 -0.10 -0.25 -0.25 -0.25 -0.15 0 -0.25 0.10 -0.25 0.25 0 0.15 0.10 0.25 0.25 0.25 0.15 0 0.25 -0.10 0.25 -0.25z"/>
  <path d="M14.50 34.95 c0 -0.30 -0.35 -0.85 -0.75 -1.25 -0.40 -0.45 -0.75 -1.20 -0.75 -1.70 0 -0.50 -0.20 -1.10 -0.50 -1.25 -0.25 -0.15 -0.50 -0.75 -0.50 -1.35 0 -0.90 0.20 -1 1.55 -0.70 0.85 0.15 2.90 0.30 4.50 0.30 2.70 0 2.95 0.10 3.25 1.25 0.15 0.70 0.50 1.25 0.75 1.25 0.25 0 0.45 0.80 0.45 1.75 0 1.70 -0.05 1.75 -1.90 1.75 -1.70 0 -2.05 -0.20 -3 -1.95 -1.10 -1.95 -2.30 -2.80 -3.15 -2.30 -0.20 0.15 0 1 0.55 1.85 0.50 0.85 0.80 1.85 0.65 2.20 -0.30 0.85 -1.15 0.95 -1.15 0.15z"/>
  <path d="M16.10 34.70 c0.20 -0.15 0.05 -0.95 -0.40 -1.75 -0.85 -1.70 -0.10 -1.95 1 -0.35 1 1.40 1 1.70 -0.05 2.10 -0.50 0.20 -0.70 0.20 -0.55 0z"/>
  <path d="M11.45 27.20 c-1.60 -1.85 -3.05 -5.70 -2.70 -7.25 0.30 -1.25 0.45 -1.40 0.90 -0.80 0.80 0.95 2.25 1.40 2.65 0.80 0.40 -0.70 -1.10 -2.80 -2.30 -3.20 -0.55 -0.15 -1 -0.70 -1 -1.20 0 -0.70 0.30 -0.85 1.30 -0.65 1.05 0.20 1.25 0.05 1.10 -0.70 -0.10 -0.65 -0.60 -0.95 -1.65 -1 -1.35 0 -1.50 -0.15 -1.35 -1.45 0.25 -2 1.45 -4.75 2.05 -4.75 0.30 0 0.55 0.80 0.55 1.75 0 0.95 -0.20 1.75 -0.50 1.75 -0.25 0 -0.50 0.25 -0.50 0.50 0 0.30 0.65 0.50 1.50 0.50 1.25 0 1.50 0.20 1.80 1.75 0.35 1.85 1.20 2.40 1.20 0.85 0 -1.15 1.50 -2.60 2.65 -2.60 0.50 0 0.85 -0.40 0.85 -0.90 0 -1 2.45 -2.10 4.65 -2.10 2.20 0 1.55 1.20 -1.15 2.25 -1.50 0.60 -3.05 1.65 -3.90 2.75 -1.40 1.70 -1.40 1.80 -0.60 3.15 l0.90 1.40 0.30 -1.25 c0.15 -0.70 0.65 -1.30 1.05 -1.30 0.40 0 0.75 -0.35 0.75 -0.75 0 -1.20 1.70 -1.75 4.45 -1.40 2.45 0.30 2.55 0.35 2.55 1.80 0 1.10 -0.15 1.35 -0.60 0.95 -1.05 -0.85 -4.40 -0.95 -4.40 -0.15 0 0.25 0.45 0.35 0.95 0.20 0.55 -0.15 1.35 -0.05 1.80 0.25 0.70 0.35 0.60 0.50 -0.70 0.75 -0.90 0.20 -1.55 0.65 -1.55 1.10 0 0.45 -0.45 0.75 -1.20 0.75 -0.80 0 -1.30 0.35 -1.50 1.15 -0.15 0.60 -0.05 1.20 0.20 1.25 0.30 0.10 0.50 0.85 0.50 1.65 0 1.45 -0.10 1.50 -1.85 1.35 -1.80 -0.15 -1.90 -0.25 -2.05 -2 -0.10 -1.40 0.05 -1.85 0.75 -2.05 0.70 -0.20 0.65 -0.25 -0.20 -0.30 -0.80 -0.05 -1.20 -0.45 -1.45 -1.40 -0.50 -2.45 -0.60 -2.45 -0.95 0.25 -0.35 2.55 -0.40 2.60 -2.30 2.90 -1.85 0.30 -2.85 1.70 -1.20 1.70 0.80 0 1.40 1.80 1.15 3.50 -0.15 1.10 -0.15 1.10 -0.95 0.20z m2.40 -9.55 c-0.20 -0.15 -0.35 0 -0.35 0.35 0 0.35 0.15 0.50 0.35 0.35 0.15 -0.20 0.15 -0.50 0 -0.70z m-1.35 -2.40 c0 -0.15 -0.10 -0.25 -0.25 -0.25 -0.15 0 -0.25 0.10 -0.25 0.25 0 0.15 0.10 0.25 0.25 0.25 0.15 0 0.25 -0.10 0.25 -0.25z"/>
  <path d="M21 20.25 c0 -0.15 0.10 -0.25 0.25 -0.25 0.15 0 0.25 0.10 0.25 0.25 0 0.15 -0.10 0.25 -0.25 0.25 -0.15 0 -0.25 -0.10 -0.25 -0.25z"/>
  <path d="M33.50 13 c0 -2.75 1.15 -3.55 1.70 -1.25 0.40 1.65 -0.15 3.75 -1 3.75 -0.50 0 -0.70 -0.70 -0.70 -2.50z"/>
  <path d="M32.80 9.20 c-0.15 -0.45 -0.30 -1.35 -0.30 -2 0 -0.95 -0.25 -1.20 -1.25 -1.20 -1.05 0 -1.25 -0.25 -1.25 -1.55 l0 -1.50 1.45 1 c1.65 1.20 3.55 4 3.55 5.25 0 1.05 -1.80 1.05 -2.20 0z"/>
 </g>
 <g fill="#5b5b58">
  <path d="M22.60 39.15 c0.15 -1.95 -0.10 -2.60 -0.85 -2.35 -0.55 0.25 -0.75 -0.05 -0.75 -0.95 0 -0.95 -0.30 -1.30 -1.40 -1.50 -1.30 -0.25 -1.40 -0.45 -1.20 -2.10 0.20 -1.65 0.25 -1.70 0.90 -0.90 0.65 0.85 0.70 0.85 0.40 0 -0.30 -0.80 -0.10 -0.90 1.10 -0.75 1.30 0.15 1.45 0.35 1.60 2.05 0.10 1.40 0.40 1.85 1.10 1.85 1.35 0 1.65 0.75 1.25 3.30 -0.25 1.70 -0.50 2.20 -1.25 2.20 -0.65 0 -0.95 -0.30 -0.90 -0.85z m1.65 -3.65 c0.15 -0.25 0.20 -0.50 0.05 -0.50 -0.15 0 -0.40 0.25 -0.55 0.50 -0.15 0.30 -0.20 0.50 -0.05 0.50 0.15 0 0.40 -0.20 0.55 -0.50z m-3.25 -2.25 c0 -0.15 -0.10 -0.25 -0.25 -0.25 -0.15 0 -0.25 0.10 -0.25 0.25 0 0.15 0.10 0.25 0.25 0.25 0.15 0 0.25 -0.10 0.25 -0.25z"/>
  <path d="M15.30 36.90 c-0.45 -0.60 -0.80 -1.35 -0.80 -1.65 0 -0.30 -0.45 -1.45 -1 -2.50 -0.95 -1.85 -0.95 -2 -0.15 -2.35 0.50 -0.15 1.65 -0.35 2.55 -0.35 1.40 -0.05 1.60 0.10 1.60 1.30 l0 1.35 -0.80 -1.10 c-0.75 -1.15 -1.95 -1.45 -2.40 -0.65 -0.40 0.65 2.55 4.55 3.45 4.55 0.40 0 0.75 0.35 0.75 0.75 0 0.40 -0.35 0.75 -0.75 0.75 -0.40 0 -0.75 0.25 -0.75 0.50 0 0.85 -0.90 0.55 -1.70 -0.60z"/>
  <path d="M26.50 33.75 c0 -2.60 -0.05 -2.75 -1.25 -2.75 -1.10 0 -1.25 -0.20 -1.25 -1.80 0 -1.80 0.05 -1.80 1.75 -1.60 1.35 0.15 2 -0.05 2.65 -0.80 0.80 -1 0.80 -1 0 -0.35 -1.70 1.30 -1.05 -1.40 0.80 -3.30 0.95 -1 1.85 -2.45 2 -3.25 0.25 -1.20 0.50 -1.40 2.05 -1.40 1.40 0 1.75 0.20 1.75 1 0 2.20 -1.90 5.90 -4.15 8.10 -2.10 2 -2.35 2.50 -2.35 4.45 0 2.90 -0.45 4.45 -1.30 4.45 -0.50 0 -0.70 -0.75 -0.70 -2.75z m-1.25 -3.75 c0.15 -0.25 0.20 -0.50 0.05 -0.50 -0.15 0 -0.40 0.25 -0.55 0.50 -0.15 0.30 -0.20 0.50 -0.05 0.50 0.15 0 0.40 -0.20 0.55 -0.50z m4.75 -4.25 c0 -0.15 -0.10 -0.25 -0.25 -0.25 -0.15 0 -0.25 0.10 -0.25 0.25 0 0.15 0.10 0.25 0.25 0.25 0.15 0 0.25 -0.10 0.25 -0.25z m2.50 -3 c0 -0.15 -0.10 -0.25 -0.25 -0.25 -0.15 0 -0.25 0.10 -0.25 0.25 0 0.15 0.10 0.25 0.25 0.25 0.15 0 0.25 -0.10 0.25 -0.25z m0.50 -1 c0 -0.15 -0.10 -0.25 -0.25 -0.25 -0.15 0 -0.25 0.10 -0.25 0.25 0 0.15 0.10 0.25 0.25 0.25 0.15 0 0.25 -0.10 0.25 -0.25z m0.50 -1 c0 -0.15 -0.10 -0.25 -0.25 -0.25 -0.15 0 -0.25 0.10 -0.25 0.25 0 0.15 0.10 0.25 0.25 0.25 0.15 0 0.25 -0.10 0.25 -0.25z m0.50 -1 c0 -0.15 -0.10 -0.25 -0.25 -0.25 -0.15 0 -0.25 0.10 -0.25 0.25 0 0.15 0.10 0.25 0.25 0.25 0.15 0 0.25 -0.10 0.25 -0.25z"/>
  <path d="M16 33.20 c-0.75 -1.85 -0.60 -2 0.50 -0.55 1.10 1.40 1.25 1.85 0.50 1.85 -0.30 0 -0.75 -0.60 -1 -1.30z"/>
  <path d="M10.60 25.75 c-1.55 -2.70 -1.85 -3.80 -1.70 -6.10 0.10 -1.10 0.15 -1.10 1 -0.25 0.50 0.45 0.90 1.10 0.95 1.35 0.10 4 0.15 4.25 1.15 4.25 0.80 0 1 0.35 1 1.75 0 0.95 -0.20 1.75 -0.40 1.75 -0.20 0 -1.10 -1.25 -2 -2.75z"/>
  <path d="M13.50 23 c0 -1.80 0.15 -2 1.25 -2 0.70 0 1.25 -0.15 1.25 -0.40 0 -0.20 -0.95 -0.30 -2.10 -0.25 -1.20 0.10 -1.90 0 -1.55 -0.15 0.80 -0.35 -0.45 -2.65 -1.90 -3.40 -1.90 -0.95 -1.85 -1.95 0.15 -1.70 1.60 0.15 1.65 0.10 1.20 -0.95 -0.35 -0.70 -1 -1.15 -1.70 -1.15 -1.50 0 -1.90 -1.15 -1.15 -3.40 0.70 -2.10 1.60 -3.25 3.95 -5.25 2.05 -1.70 2.60 -1.70 2.60 -0.10 0 1 -0.25 1.25 -1.25 1.25 -0.90 0 -1.25 0.25 -1.25 1 0 0.55 -0.35 1 -0.75 1 -0.40 0 -0.75 0.45 -0.75 1 0 0.55 -0.20 1 -0.50 1 -0.25 0 -0.50 0.35 -0.50 0.75 0 0.40 0.45 0.75 1 0.75 0.55 0 1 0.35 1 0.75 0 0.40 0.25 0.75 0.50 0.75 0.30 0 0.50 0.35 0.50 0.75 0 0.40 0.25 0.75 0.50 0.75 0.30 0 0.50 0.25 0.50 0.50 0 0.75 2 2.60 2 1.90 0.05 -0.35 0.35 0.05 0.75 0.85 0.60 1.35 0.65 1.35 0.70 0.40 0.05 -1.20 3 -4.85 3.05 -3.75 0 0.30 0.35 0.60 0.75 0.60 0.40 0 0.75 0.25 0.75 0.50 0 0.30 -0.20 0.50 -0.45 0.50 -0.70 0 0.60 2.45 1.45 2.65 0.40 0.10 -0.10 0.35 -1.20 0.60 -1.40 0.30 -2 0.20 -2.35 -0.30 -0.30 -0.45 -0.40 -0.20 -0.30 0.80 0.10 1.30 -0.10 1.50 -1.25 1.65 -1.25 0.15 -1.40 0.35 -1.40 2.15 0 1.90 -0.05 1.95 -1.75 1.95 -1.70 0 -1.75 -0.05 -1.75 -2z m2.35 -0.10 c-0.15 -0.35 -0.25 -0.10 -0.25 0.60 0 0.70 0.10 0.95 0.25 0.65 0.10 -0.35 0.10 -0.95 0 -1.25z m-2 -5.25 c-0.20 -0.15 -0.35 0 -0.35 0.35 0 0.35 0.15 0.50 0.35 0.35 0.15 -0.20 0.15 -0.50 0 -0.70z m7 -0.50 c-0.20 -0.15 -0.50 -0.15 -0.70 0 -0.15 0.20 0 0.35 0.35 0.35 0.35 0 0.50 -0.15 0.35 -0.35z m-7.35 -0.40 c0 -0.15 -0.10 -0.25 -0.25 -0.25 -0.15 0 -0.25 0.10 -0.25 0.25 0 0.15 0.10 0.25 0.25 0.25 0.15 0 0.25 -0.10 0.25 -0.25z"/>
  <path d="M17.50 23.25 c0 -1.60 0.10 -1.75 1.50 -1.75 0.85 0 1.50 -0.20 1.50 -0.50 0 -0.40 2.55 -2 3.25 -2 0.15 0 0.25 0.55 0.25 1.25 0 1.05 -0.25 1.25 -1.50 1.25 -1.40 0 -1.50 0.15 -1.50 1.75 0 1.65 -0.10 1.75 -1.75 1.75 -1.65 0 -1.75 -0.10 -1.75 -1.75z m1.50 -0.45 c0 -0.15 -0.25 -0.40 -0.60 -0.60 -0.35 -0.20 -0.40 -0.15 -0.20 0.20 0.35 0.60 0.80 0.80 0.80 0.40z"/>
  <path d="M28.50 15.75 c0 -1.70 0.05 -1.75 2 -1.75 1.95 0 2 0.05 2 1.75 0 1.70 -0.05 1.75 -2 1.75 -1.95 0 -2 -0.05 -2 -1.75z m2.85 0.40 c-0.20 -0.15 -0.50 -0.15 -0.70 0 -0.15 0.20 0 0.35 0.35 0.35 0.35 0 0.50 -0.15 0.35 -0.35z"/>
  <path d="M23 16.50 c0 -0.65 1 -0.65 2 0 0.60 0.40 0.45 0.50 -0.60 0.50 -0.80 0 -1.40 -0.20 -1.40 -0.50z"/>
  <path d="M25.80 15.65 c-0.40 -0.40 -0.65 -0.45 -2.05 -0.60 -0.40 0 -0.75 -0.40 -0.75 -0.80 0 -0.50 0.55 -0.75 1.75 -0.75 1.55 0 1.75 0.15 1.75 1.25 0 1.35 -0.10 1.45 -0.70 0.90z"/>
  <path d="M19 10.25 c0 -1.10 0.20 -1.25 1.80 -1.25 2.20 0 2.10 0.90 -0.20 1.85 -1.55 0.65 -1.60 0.60 -1.60 -0.60z"/>
  <path d="M31.15 6.75 c-0.35 -0.40 -0.65 -0.90 -0.65 -1.15 0 -0.55 -2.40 -1.10 -4.60 -1.10 -0.80 0 -1.80 -0.35 -2.20 -0.75 -0.45 -0.45 -1.70 -0.75 -3 -0.75 -1.90 0 -2.25 -0.15 -2.10 -0.85 0.15 -0.80 0.70 -0.90 4.15 -0.75 2.65 0.05 4.65 0.40 6 1.05 2.25 1.05 5.25 3.65 5.25 4.50 0 0.80 -2.15 0.65 -2.85 -0.20z"/>
 </g>
 <g fill="#7b3f5b">
  <path d="M14.85 17.65 c-0.20 -0.15 -0.35 -1.05 -0.35 -2 0 -1.35 0.20 -1.65 1.05 -1.65 0.55 0 0.85 0.20 0.70 0.50 -0.20 0.30 -0.15 0.80 0.15 1.15 1.10 1.45 1.10 2.35 -0.10 2.35 -0.60 0 -1.30 -0.15 -1.45 -0.35z"/>
  <path d="M18 17.50 c0 -0.35 0.15 -0.50 0.35 -0.35 0.15 0.20 0.15 0.50 0 0.70 -0.20 0.15 -0.35 0 -0.35 -0.35z"/>
  <path d="M27.90 13.15 c0.60 -0.10 1.10 -0.45 1.10 -0.70 0 -0.90 -3.25 -2.45 -5.10 -2.45 -1.75 0 -1.90 -0.10 -1.90 -1.50 0 -1.45 0.05 -1.50 2.40 -1.50 3.25 0 4.60 0.45 4.60 1.50 0 0.50 0.35 1 0.75 1.20 0.45 0.15 0.75 0.95 0.75 2.05 0 1.70 -0.05 1.75 -1.85 1.70 -1.20 -0.05 -1.45 -0.15 -0.75 -0.30z m-1.15 -3.65 c-0.15 -0.25 -0.55 -0.50 -0.80 -0.50 -0.30 0 -0.35 0.25 -0.20 0.50 0.15 0.30 0.55 0.50 0.80 0.50 0.30 0 0.35 -0.20 0.20 -0.50z"/>
 </g>
 <g fill="#567353">
  <path d="M9 19.70 c0 -0.70 0.15 -0.75 0.90 -0.15 0.45 0.35 0.95 0.75 1.05 0.80 0.10 0.10 -0.25 0.15 -0.85 0.15 -0.70 0 -1.10 -0.30 -1.10 -0.80z"/>
  <path d="M12 20.25 c0 -0.15 0.10 -0.25 0.25 -0.25 0.15 0 0.25 0.10 0.25 0.25 0 0.15 -0.10 0.25 -0.25 0.25 -0.15 0 -0.25 -0.10 -0.25 -0.25z"/>
  <path d="M23 19.40 c1.25 -0.55 2.65 -1.35 3.15 -1.80 0.80 -0.70 0.85 -0.65 0.85 0.35 0 1.25 -2.50 2.55 -4.85 2.55 -1.25 -0.05 -1.20 -0.15 0.85 -1.10z"/>
  <path d="M10 18.20 c0 -0.40 0.25 -0.60 0.50 -0.45 0.30 0.15 0.50 0.50 0.50 0.80 0 0.25 -0.20 0.45 -0.50 0.45 -0.25 0 -0.50 -0.35 -0.50 -0.80z"/>
  <path d="M12.05 18.40 c0 -0.50 -0.65 -1.20 -1.40 -1.60 l-1.40 -0.75 1.40 -0.05 c1.45 0 2.10 0.85 1.70 2.35 -0.20 0.80 -0.25 0.80 -0.30 0.05z"/>
  <path d="M20 18.50 c0 -0.25 0.25 -0.50 0.50 -0.50 0.30 0 0.50 -0.50 0.50 -1.10 0 -1.05 0 -1.05 -0.75 -0.10 -0.70 0.95 -0.70 0.90 -0.75 -0.15 0 -1.40 1.35 -2.15 3.95 -2.15 2.50 0 3.55 0.40 3.55 1.40 0 0.65 -0.15 0.60 -1 -0.15 -0.70 -0.65 -1.40 -0.80 -2.75 -0.55 -1 0.20 -1.65 0.55 -1.50 0.85 0.20 0.25 0.55 0.35 0.80 0.15 0.70 -0.40 2.95 0.20 2.95 0.85 0 0.60 -3.05 1.95 -4.50 1.95 -0.55 0 -1 -0.20 -1 -0.50z"/>
 </g>
 <g fill="#6b6969">
  <path d="M22.80 38.40 c-0.20 -0.90 0.25 -1.70 1.85 -3.40 1.70 -1.80 1.75 -1.95 0.35 -0.70 -0.95 0.85 -2.50 2.05 -3.35 2.65 l-1.65 1.10 0 -1.50 c0 -1 0.30 -1.55 0.90 -1.70 0.45 -0.15 0.15 -0.25 -0.70 -0.30 -1.25 -0.05 -1.85 -0.45 -2.90 -2.05 -1.20 -1.85 -2.20 -2.45 -2.95 -1.70 -0.45 0.45 2.30 5.20 3.05 5.20 0.30 0 0.60 0.45 0.60 1 0 0.65 -0.35 1 -1 1 -0.80 0 -1.50 -0.95 -3 -4.30 -1.10 -2.35 -2 -4.65 -2 -5.10 0 -0.45 -0.60 -1.75 -1.25 -2.85 -1.55 -2.50 -1.55 -2.75 0 -2.75 1 0 1.25 0.25 1.25 1.25 0 0.80 0.30 1.25 0.75 1.25 0.40 0 0.75 0.45 0.75 1 0 1.85 1.10 3.45 2.65 3.80 1 0.20 1.65 0.10 1.75 -0.25 0.30 -0.85 3.60 -0.70 3.60 0.20 0 0.40 0.25 0.75 0.50 0.75 0.30 0 0.50 -0.45 0.50 -1 0 -0.75 0.35 -1 1.25 -1 1 0 1.25 -0.25 1.25 -1.25 0 -0.90 0.25 -1.25 1 -1.25 0.55 0 1 -0.30 1 -0.70 0 -1.25 3.10 -4.30 4.35 -4.30 1.80 0 1.40 1 -1.70 3.95 -2.40 2.30 -2.55 2.45 -0.65 1 1.25 -1 2.75 -2.50 3.30 -3.35 0.90 -1.30 1.15 -1.45 1.30 -0.70 0.40 1.40 -0.35 2.70 -2.80 5 -1.55 1.45 -2.30 2.60 -2.35 3.50 -0.05 0.75 -0.15 2.35 -0.25 3.55 -0.15 1.45 0.05 2.65 0.55 3.40 0.75 1.10 0.75 1.15 -0.75 1.15 -1.35 0 -1.50 -0.15 -1.50 -1.50 0 -2.15 -1.35 -1.95 -1.80 0.25 -0.35 1.95 -1.45 2.35 -1.90 0.65z m-2.75 -6.70 c-0.55 -0.75 -1.05 -1.20 -1.05 -1 0 0.50 1.70 2.75 1.95 2.55 0.10 -0.10 -0.30 -0.80 -0.90 -1.55z m6.30 -1.55 c-0.20 -0.15 -0.35 0 -0.35 0.35 0 0.35 0.15 0.50 0.35 0.35 0.15 -0.20 0.15 -0.50 0 -0.70z m-0.80 -0.50 c0.65 -0.80 0.60 -0.85 -0.15 -0.20 -0.85 0.65 -1.10 1.05 -0.70 1.05 0.10 0 0.50 -0.40 0.85 -0.85z"/>
  <path d="M16.15 33.65 c-0.15 -0.50 -0.40 -1.10 -0.55 -1.40 -0.15 -0.25 0.20 -0.05 0.80 0.45 1.20 1 1.40 1.80 0.60 1.80 -0.30 0 -0.65 -0.40 -0.85 -0.85z"/>
  <path d="M13.50 24.40 c0 -1.40 -1.20 -2.40 -2.95 -2.40 -1.40 0 -1.55 -0.15 -1.55 -1.50 0 -1.50 0.05 -1.50 1.20 -0.75 0.65 0.40 1.50 0.65 1.90 0.50 0.70 -0.30 0.70 -0.50 0.10 -1.70 -0.40 -0.75 -1.25 -1.65 -1.95 -1.95 -1.45 -0.65 -1.25 -1.60 0.30 -1.60 1.25 0 2.90 1.85 2.95 3.20 0 0.70 0.15 0.85 0.50 0.50 0.40 -0.40 0 -1.35 -1.30 -3.25 -1.50 -2.25 -2 -2.65 -3.05 -2.55 -1.20 0.20 -1.25 0.10 -0.90 -1.70 0.75 -4.20 3 -6.45 2.65 -2.75 -0.15 1.60 0 2.05 0.70 2.20 0.65 0.20 0.90 0.75 0.90 2.05 0 1.45 0.20 1.80 1 1.80 0.75 0 1 0.35 1 1.40 0 0.95 0.15 1.15 0.45 0.65 0.60 -0.95 1.45 -0.30 2 1.60 0.40 1.45 0.45 1.50 0.50 0.35 0.10 -2.60 2.45 -5 4.90 -5 2.10 0 2.25 1.30 0.15 1.75 -0.85 0.20 -1.40 0.50 -1.25 0.75 0.15 0.25 0.05 0.55 -0.25 0.75 -0.25 0.15 -0.50 0 -0.50 -0.35 0 -0.35 -0.45 0 -1 0.85 -0.65 0.95 -0.80 1.65 -0.45 2.05 0.25 0.30 0.35 0.95 0.15 1.40 -0.15 0.45 -0.05 0.80 0.25 0.80 0.30 0 0.55 -0.20 0.55 -0.50 0 -0.25 1.05 -0.95 2.40 -1.55 1.30 -0.60 2.75 -1.40 3.25 -1.85 0.80 -0.75 0.80 -0.85 -0.25 -1.95 l-1.05 -1.15 4.30 0 4.35 0 0 1.50 c0 1 0.25 1.50 0.75 1.50 0.50 0 0.75 0.55 0.75 1.75 0 1.25 -0.20 1.75 -0.80 1.75 -0.55 0 -0.70 -0.30 -0.50 -0.85 0.30 -0.85 0.25 -0.85 -0.40 0 -0.95 1.25 -1.30 1.05 -1.30 -0.65 0 -1.40 -0.10 -1.50 -2 -1.50 -1.45 0 -2 0.20 -2 0.75 0 0.50 -0.50 0.75 -1.50 0.75 -1 0 -1.50 0.25 -1.50 0.75 0 0.50 -0.55 0.75 -1.75 0.75 -1.75 0 -1.75 0 -1.75 2.20 l0 2.20 -4 0 c-3.65 0 -4 -0.05 -4 -1z m2.30 -1.75 c-0.55 -0.55 -0.85 0.20 -0.45 1.15 0.35 0.90 0.40 0.90 0.55 0.05 0.10 -0.50 0.05 -1.05 -0.10 -1.20z m3.70 0.65 c0 -0.10 -0.40 -0.50 -0.85 -0.85 -0.80 -0.65 -0.85 -0.60 -0.20 0.20 0.65 0.80 1.05 1.05 1.05 0.65z m11.75 -7.30 c-0.15 -0.25 -0.55 -0.50 -0.80 -0.50 -0.30 0 -0.35 0.25 -0.20 0.50 0.15 0.30 0.55 0.50 0.80 0.50 0.30 0 0.35 -0.20 0.20 -0.50z"/>
  <path d="M20 18.65 c0 -0.75 3.45 -2.65 4.25 -2.35 1.65 0.65 0.45 1.75 -2.60 2.45 -0.90 0.15 -1.65 0.15 -1.65 -0.10z m4.35 -1.50 c-0.20 -0.15 -0.50 -0.15 -0.70 0 -0.15 0.20 0 0.35 0.35 0.35 0.35 0 0.50 -0.15 0.35 -0.35z"/>
  <path d="M31.50 10.25 c0 -1.65 0.10 -1.75 1.75 -1.75 1.65 0 1.75 0.10 1.75 1.75 0 1.65 -0.10 1.75 -1.75 1.75 -1.65 0 -1.75 -0.10 -1.75 -1.75z"/>
  <path d="M19.50 9.80 c0 -1.20 0.20 -1.30 2 -1.30 2.25 0 2.80 1.20 0.80 1.70 -0.65 0.15 -1.55 0.45 -2 0.60 -0.60 0.25 -0.80 0 -0.80 -1z"/>
  <path d="M31 5.50 c0 -1.35 0.10 -1.45 0.95 -0.95 0.50 0.35 1.15 1 1.50 1.50 0.50 0.85 0.40 0.95 -0.95 0.95 -1.35 0 -1.50 -0.15 -1.50 -1.50z"/>
  <path d="M11.75 5.50 c0.15 -0.25 0.95 -0.95 1.75 -1.50 l1.50 -1.05 0 1.50 c0 1.45 -0.15 1.55 -1.80 1.55 -1 0 -1.65 -0.20 -1.45 -0.50z"/>
  <path d="M25.15 4.15 c-0.90 -0.10 -1.65 -0.40 -1.65 -0.70 0 -0.25 -0.70 -0.45 -1.55 -0.45 -1.20 0 -1.50 -0.20 -1.35 -0.85 0.10 -0.60 0.60 -0.85 1.40 -0.80 0.70 0.10 2.05 0.15 3 0.20 1.90 0.05 5.50 1.65 5.50 2.45 0 0.50 -2.15 0.55 -5.35 0.15z m0.85 -1.40 c0 -0.15 -0.10 -0.25 -0.25 -0.25 -0.15 0 -0.25 0.10 -0.25 0.25 0 0.15 0.10 0.25 0.25 0.25 0.15 0 0.25 -0.10 0.25 -0.25z"/>
 </g>
 <g fill="#6c8e6a">
  <path d="M19.05 19.70 c0 -0.55 0.15 -0.70 0.30 -0.30 0.15 0.35 0.10 0.80 -0.05 0.95 -0.15 0.20 -0.30 -0.10 -0.25 -0.65z"/>
  <path d="M21 20.30 c0 -0.10 0.45 -0.30 1 -0.45 0.55 -0.15 1 -0.05 1 0.20 0 0.25 -0.45 0.45 -1 0.45 -0.55 0 -1 -0.10 -1 -0.20z"/>
  <path d="M9 19.45 c0 -0.25 0.25 -0.35 0.50 -0.20 0.30 0.15 0.50 0.40 0.50 0.55 0 0.10 -0.20 0.20 -0.50 0.20 -0.25 0 -0.50 -0.25 -0.50 -0.55z"/>
  <path d="M20 18.65 c0 -0.75 3.45 -2.65 4.25 -2.35 1.65 0.65 0.45 1.75 -2.60 2.45 -0.90 0.15 -1.65 0.15 -1.65 -0.10z"/>
  <path d="M10 18.25 c0 -0.15 0.10 -0.25 0.25 -0.25 0.15 0 0.25 0.10 0.25 0.25 0 0.15 -0.10 0.25 -0.25 0.25 -0.15 0 -0.25 -0.10 -0.25 -0.25z"/>
  <path d="M25.65 18.15 c0.20 -0.15 0.50 -0.15 0.70 0 0.15 0.20 0 0.35 -0.35 0.35 -0.35 0 -0.50 -0.15 -0.35 -0.35z"/>
  <path d="M19 17.40 c0 -1.15 2.60 -2.90 4.40 -2.90 1.80 0 3.10 0.45 3.10 1.05 0 0.25 -0.40 0.20 -0.90 -0.10 -1.10 -0.70 -4.80 -0.15 -4.35 0.60 0.20 0.25 0.10 0.40 -0.20 0.35 -0.25 -0.10 -0.85 0.30 -1.25 0.85 -0.65 0.85 -0.75 0.90 -0.80 0.15z"/>
  <path d="M11.15 16.65 c0.20 -0.15 0.50 -0.15 0.70 0 0.15 0.20 0 0.35 -0.35 0.35 -0.35 0 -0.50 -0.15 -0.35 -0.35z"/>
 </g>
 <g fill="#7f7477">
  <path d="M16.15 36.15 c-0.70 -0.15 -1.15 -0.60 -1.15 -1.15 0 -0.50 -0.25 -1 -0.55 -1.10 -0.30 -0.10 -0.50 -0.65 -0.40 -1.15 0.20 -0.85 0.40 -0.70 1.35 0.90 0.75 1.15 1.55 1.85 2.20 1.85 1 0 1.05 -0.45 0.15 -2.60 -0.25 -0.65 -0.10 -0.90 0.45 -0.90 0.45 0 0.80 0.25 0.80 0.50 0 0.30 0.35 0.50 0.75 0.50 0.50 0 0.75 0.55 0.75 1.75 0 1.65 -0.10 1.75 -1.60 1.70 -0.90 -0.05 -2.15 -0.20 -2.75 -0.30z"/>
  <path d="M16.05 33.15 c-0.65 -1.40 -0.65 -1.40 0.40 -0.45 1.10 1 1.35 1.80 0.65 1.80 -0.25 0 -0.70 -0.60 -1.05 -1.35z"/>
  <path d="M26.50 33.25 c0.55 -0.65 0.50 -0.70 -0.20 -0.45 -0.60 0.25 -0.80 0 -0.80 -1 0 -1.05 0.25 -1.30 1.20 -1.30 1.55 0 1.90 0.60 1.50 2.25 -0.20 0.80 -0.65 1.25 -1.30 1.25 -0.85 0 -0.90 -0.10 -0.40 -0.75z"/>
  <path d="M16.45 31.20 c-0.40 -0.50 -0.40 -0.70 0 -0.70 0.30 0 0.55 -0.55 0.55 -1.25 0 -1.10 0.20 -1.25 1.75 -1.25 1.70 0 1.75 0.05 1.75 1.80 0 1.55 -0.10 1.75 -0.75 1.20 -0.40 -0.35 -0.75 -0.40 -0.75 -0.10 0 0.80 -1.90 1.05 -2.55 0.30z"/>
  <path d="M14 30.75 c0 -0.15 0.10 -0.25 0.25 -0.25 0.15 0 0.25 0.10 0.25 0.25 0 0.15 -0.10 0.25 -0.25 0.25 -0.15 0 -0.25 -0.10 -0.25 -0.25z"/>
  <path d="M17.50 24.75 c0 -0.40 -0.35 -0.75 -0.75 -0.75 -0.45 0 -0.60 -0.30 -0.45 -0.75 0.20 -0.45 0 -0.75 -0.50 -0.75 -0.45 0 -0.80 0.35 -0.80 0.80 0 0.55 -0.25 0.70 -0.80 0.50 -0.45 -0.15 -1 -0.30 -1.25 -0.30 -0.25 0 -0.45 -0.80 -0.45 -1.75 0 -1.85 1.25 -2.50 1.65 -0.85 0.20 0.75 0.25 0.75 0.30 -0.10 0.05 -0.75 0.30 -0.85 1.40 -0.55 0.80 0.20 1.40 0.35 1.40 0.40 0.20 0.90 1.60 2.85 2.15 3.10 0.60 0.25 0.60 0.05 -0.15 -0.75 -0.90 -1 -0.90 -1 0.40 -1 1.20 0 1.35 0.20 1.35 1.75 0 1.65 -0.10 1.75 -1.75 1.75 -1.20 0 -1.75 -0.25 -1.75 -0.75z"/>
  <path d="M31.50 21.35 c0 -1.50 0.20 -1.85 1 -1.85 0.90 0 0.90 0.15 0.40 1.40 -0.95 2.25 -1.40 2.40 -1.40 0.45z"/>
  <path d="M33.15 21.40 c0.60 -1.55 1.85 -2.50 1.85 -1.45 0 1.20 -1.05 3.05 -1.75 3.05 -0.65 0 -0.65 -0.20 -0.10 -1.60z"/>
  <path d="M13 18.50 c0 -0.55 0.10 -1 0.20 -1 0.10 0 0.30 0.45 0.45 1 0.15 0.55 0.05 1 -0.20 1 -0.25 0 -0.45 -0.45 -0.45 -1z"/>
  <path d="M14.50 18.55 c0 -0.55 -0.20 -1.15 -0.50 -1.30 -1 -0.60 -0.45 -1.25 1 -1.25 1.40 0 1.50 0.15 1.50 1.75 0 1.40 -0.20 1.75 -1 1.75 -0.65 0 -1 -0.35 -1 -0.95z"/>
  <path d="M21.75 17.50 c0.15 -0.25 0.50 -0.50 0.80 -0.50 0.25 0 0.45 0.25 0.45 0.50 0 0.30 -0.35 0.50 -0.80 0.50 -0.40 0 -0.60 -0.20 -0.45 -0.50z"/>
  <path d="M19.20 16.80 c-0.70 -0.70 0.85 -3.05 2.25 -3.45 1.50 -0.40 1.80 1.60 0.30 2.15 -0.65 0.25 -1.35 0.75 -1.60 1.15 -0.30 0.55 -0.55 0.60 -0.95 0.15z"/>
  <path d="M10.35 16.65 c-1.20 -0.30 -0.80 -1.35 0.55 -1.55 0.85 -0.15 1.10 0.10 1.10 0.85 0 1.05 -0.10 1.10 -1.65 0.70z"/>
  <path d="M21 16.25 c0 -0.15 0.10 -0.25 0.25 -0.25 0.15 0 0.25 0.10 0.25 0.25 0 0.15 -0.10 0.25 -0.25 0.25 -0.15 0 -0.25 -0.10 -0.25 -0.25z"/>
  <path d="M11.50 13.75 c0 -0.15 0.10 -0.25 0.25 -0.25 0.15 0 0.25 0.10 0.25 0.25 0 0.15 -0.10 0.25 -0.25 0.25 -0.15 0 -0.25 -0.10 -0.25 -0.25z"/>
  <path d="M8.60 12.15 c0.20 -1.20 2.90 -1.55 2.90 -0.40 0 0.45 -0.20 0.70 -0.45 0.50 -0.25 -0.15 -0.60 -0.05 -0.80 0.25 -0.55 0.85 -1.85 0.55 -1.65 -0.35z"/>
  <path d="M27.05 10.55 c-0.55 -0.35 -0.55 -0.45 0 -0.65 1.10 -0.40 0.25 -0.90 -1.85 -1.20 -1.60 -0.20 -1.75 -0.15 -0.80 0.25 1.50 0.70 1.40 1.05 -0.40 1.05 -1.25 0 -1.50 -0.20 -1.50 -1.25 0 -1.10 0.20 -1.25 1.65 -1.25 2.45 0 4.35 1.05 4.35 2.40 0 1.20 -0.35 1.35 -1.45 0.65z"/>
 </g>
 <g fill="#898887">
  <path d="M22.90 38.65 c-0.15 -1.10 0.35 -1.95 2.35 -4.10 2.05 -2.20 2.20 -2.50 0.90 -1.60 -0.90 0.60 -1.65 1.30 -1.65 1.50 0 0.55 -4.45 3.55 -5.25 3.55 -0.40 0 -0.75 -0.45 -0.75 -1 0 -0.65 0.35 -1 0.95 -1 2.20 0 2.50 -0.45 2.20 -3.05 -0.25 -2.05 -0.15 -2.45 0.55 -2.45 0.50 0 0.80 -0.45 0.80 -1.25 0 -0.90 0.40 -1.45 1.40 -1.90 0.75 -0.30 1.55 -0.85 1.75 -1.20 0.20 -0.35 0.85 -0.65 1.35 -0.65 0.70 0 1 -0.35 1 -1.20 0 -0.75 0.35 -1.30 1 -1.45 0.60 -0.15 1 -0.70 1 -1.30 0 -0.60 0.30 -1.05 0.75 -1.05 0.40 0 0.75 -0.45 0.75 -1 0 -0.55 -0.35 -1 -0.75 -1 -0.40 0 -0.75 -0.35 -0.75 -0.75 0 -0.40 -0.45 -0.75 -1 -0.75 -0.65 0 -1 0.35 -1 1 0 0.65 -0.35 1 -1 1 -0.55 0 -1 0.35 -1 0.75 0 0.50 -0.55 0.75 -1.75 0.75 -2.20 0 -2.25 -0.70 -0.10 -1.80 2.65 -1.35 2.95 -2.20 1.10 -3.20 -1.75 -0.95 -1.55 -1.50 0.50 -1.50 0.95 0 1.75 -0.20 1.75 -0.50 0 -0.25 0.80 -0.50 1.80 -0.50 1.35 0 1.85 0.25 2.05 1 0.15 0.55 0.70 1 1.20 1 0.75 0 0.95 0.35 0.95 1.75 0 0.95 0.25 1.75 0.50 1.75 1.80 0 -1.45 7.65 -3.35 7.90 -0.65 0.10 -1.15 0.50 -1.15 0.95 0 0.45 -0.35 1.25 -0.80 1.75 -0.50 0.50 -0.90 1.50 -0.95 2.25 -0.05 0.80 -0.15 1.80 -0.15 2.30 -0.05 0.50 -0.50 0.85 -1.10 0.85 -0.75 0 -1 0.35 -1 1.45 0 0.85 -0.20 1.65 -0.50 1.80 -0.25 0.15 -0.50 0.75 -0.50 1.30 0 1.60 -1.90 1.20 -2.10 -0.40z m0.60 -5.90 c0 -0.15 -0.10 -0.25 -0.25 -0.25 -0.15 0 -0.25 0.10 -0.25 0.25 0 0.15 0.10 0.25 0.25 0.25 0.15 0 0.25 -0.10 0.25 -0.25z m1.75 -2.75 c0.50 -0.55 0.80 -1 0.65 -1 -0.15 0 -0.65 0.45 -1.15 1 -0.50 0.55 -0.80 1 -0.65 1 0.15 0 0.65 -0.45 1.15 -1z m4.45 -4.05 c2.35 -2.20 4.75 -6.15 4.15 -6.80 -0.15 -0.10 -0.55 0.65 -1 1.70 -0.40 1.05 -2.05 3.20 -3.65 4.80 -3.65 3.55 -3.25 3.80 0.50 0.30z m1.80 -9.95 c-0.95 -0.65 -1.50 -0.65 -1.50 0 0 0.30 0.50 0.50 1.15 0.50 0.90 0 0.95 -0.10 0.35 -0.50z"/>
  <path d="M28 38.65 c0 -1.25 0 -1.30 1 -0.40 0.55 0.50 1 1.10 1 1.35 0 0.20 -0.45 0.40 -1 0.40 -0.75 0 -1 -0.35 -1 -1.35z"/>
  <path d="M15.05 36.15 c-0.25 -0.50 -0.50 -1.10 -0.60 -1.40 -0.05 -0.25 -0.65 -1.70 -1.30 -3.15 -0.60 -1.45 -1.15 -3.05 -1.15 -3.60 0 -0.50 -0.20 -1.05 -0.45 -1.20 -0.40 -0.30 -2.55 -4.05 -2.55 -4.55 0 -0.15 0.55 -0.25 1.25 -0.25 0.90 0 1.25 0.25 1.25 1 0 0.55 0.25 1 0.50 1 0.30 0 0.50 -0.80 0.50 -1.75 0 -1.85 1.25 -2.50 1.65 -0.85 0.20 0.80 0.25 0.80 0.30 0 0 -0.50 0.30 -0.90 0.55 -0.90 0.30 0 0.50 -0.40 0.50 -0.85 0 -0.80 -0.10 -0.80 -0.55 -0.15 -0.40 0.60 -0.45 0.50 -0.35 -0.50 0.10 -0.75 -0.30 -1.70 -1.05 -2.50 -0.65 -0.70 -1.50 -2 -1.90 -2.90 -0.60 -1.45 -0.80 -1.55 -1.70 -1.05 -1.55 0.80 -1.65 0.30 -0.70 -2.80 1.05 -3.25 3.50 -5.70 7.60 -7.55 2.60 -1.15 4.15 -1.15 4.15 0 0 0.60 -4.65 2.80 -5.90 2.80 -0.30 0 -0.60 0.35 -0.60 0.75 0 0.45 -0.45 0.75 -1.25 0.75 -1 0 -1.25 0.25 -1.25 1.25 0 0.70 -0.20 1.25 -0.50 1.25 -0.25 0 -0.50 0.35 -0.50 0.75 0 0.40 0.45 0.75 0.95 0.75 0.70 0 1.10 0.60 1.60 2.20 0.40 1.35 1 2.35 1.55 2.45 0.65 0.20 0.90 0.75 0.95 1.95 0.05 1.55 0.10 1.55 0.45 0.40 l0.40 -1.25 0.05 1.30 c0.10 2.60 0.70 4.45 1.85 5.70 0.85 0.95 0.95 1.25 0.40 1.25 -0.45 0 -1.10 0.35 -1.50 0.75 -0.85 0.85 -4.20 1.05 -4.20 0.25 0 -0.25 -0.20 -0.50 -0.50 -0.50 -0.25 0 -0.50 0.55 -0.50 1.25 0 0.80 0.30 1.25 0.75 1.25 0.40 0 0.75 0.35 0.75 0.75 0 0.40 0.45 0.75 1 0.75 0.55 0 1 0.35 1 0.75 0 0.40 -0.30 0.75 -0.70 0.75 -0.40 0 -0.90 0.20 -1.05 0.50 -0.35 0.55 2.15 4.50 2.85 4.50 0.25 0 0.15 0.35 -0.30 0.75 -0.95 0.95 -1.15 0.95 -1.75 -0.10z m1.05 -13.75 c-0.65 -0.65 -1.30 0.40 -0.85 1.50 0.30 0.80 0.35 0.80 0.85 -0.05 0.35 -0.65 0.35 -1.10 0 -1.45z"/>
  <path d="M18.85 22.60 c-1.35 -1.50 -0.95 -6.60 0.45 -6.60 0.80 0 0.95 1.05 0.25 1.80 -0.25 0.25 -0.30 1.35 -0.10 2.45 0.35 1.90 0.35 1.95 0.95 0.90 1.25 -2.25 2.75 -0.90 1.80 1.55 -0.40 1.10 -2.35 1 -3.35 -0.10z"/>
  <path d="M12.40 18.50 c-0.35 -0.85 -1.15 -1.65 -1.75 -1.80 -0.65 -0.20 -1.15 -0.50 -1.15 -0.70 0 -0.40 1.20 -1 2 -1 0.40 0 2.50 3.95 2.50 4.65 0 0.90 -1 0.20 -1.60 -1.15z"/>
  <path d="M20 18.50 c0 -0.35 0.15 -0.50 0.35 -0.35 0.15 0.20 0.15 0.50 0 0.70 -0.20 0.15 -0.35 0 -0.35 -0.35z"/>
  <path d="M21.25 18 c0.15 -0.25 0.40 -0.50 0.55 -0.50 0.10 0 0.20 0.25 0.20 0.50 0 0.30 -0.25 0.50 -0.55 0.50 -0.25 0 -0.35 -0.20 -0.20 -0.50z"/>
  <path d="M23 17.75 c0 -0.40 0.45 -0.75 1 -0.75 0.55 0 1 0.10 1 0.25 0 0.10 -0.45 0.45 -1 0.75 -0.80 0.45 -1 0.40 -1 -0.25z"/>
  <path d="M20.50 14.50 c0 -0.60 1.65 -1.50 2.70 -1.50 0.45 0 0.80 0.45 0.80 1 0 0.80 -0.35 1 -1.75 1 -0.95 0 -1.75 -0.20 -1.75 -0.50z"/>
  <path d="M18.50 10.55 c0 -1.45 0.15 -1.55 1.75 -1.55 0.95 0 1.75 -0.20 1.75 -0.50 0 -0.25 0.85 -0.45 1.90 -0.45 1.10 0.05 1.40 0.15 0.75 0.30 -0.70 0.15 -1 0.45 -0.80 0.95 0.20 0.50 -0.10 0.70 -1.10 0.70 -0.75 0 -2 0.45 -2.80 1.05 l-1.45 1 0 -1.50z"/>
  <path d="M24.40 3.90 c-1.35 -0.35 -1.90 -0.75 -1.90 -1.45 0 -1.20 1.35 -1.25 2.70 -0.05 1 0.80 1 0.80 0.35 0 -0.85 -1.10 -0.55 -1.10 1.95 -0.05 3.85 1.70 1.60 2.80 -3.10 1.55z"/>
 </g>
 <g fill="#82a97f">
  <path d="M24.20 19 c1.10 -0.55 2.10 -0.85 2.25 -0.70 0.50 0.50 -1.60 1.70 -2.90 1.70 -1.15 -0.05 -1.10 -0.15 0.65 -1z"/>
  <path d="M21.95 17.50 c1.25 -1.10 2.30 -1.30 2.80 -0.55 0.35 0.65 -1.35 1.55 -2.85 1.55 l-1.15 -0.05 1.20 -0.95z"/>
  <path d="M19.50 17.15 c0 -0.30 0.40 -0.85 0.90 -1.20 0.80 -0.65 0.80 -0.65 0.10 0.30 -0.40 0.55 -0.80 1.10 -0.85 1.20 -0.10 0.10 -0.15 0 -0.15 -0.30z"/>
  <path d="M21.65 15.15 c0.20 -0.15 0.50 -0.15 0.70 0 0.15 0.20 0 0.35 -0.35 0.35 -0.35 0 -0.50 -0.15 -0.35 -0.35z"/>
  <path d="M25.50 15.25 c0 -0.15 0.10 -0.25 0.25 -0.25 0.15 0 0.25 0.10 0.25 0.25 0 0.15 -0.10 0.25 -0.25 0.25 -0.15 0 -0.25 -0.10 -0.25 -0.25z"/>
 </g>
 <g fill="#9f9a98">
  <path d="M27.50 38.45 c0 -1.35 0.10 -1.50 0.80 -0.95 0.40 0.40 1 1.10 1.25 1.60 0.40 0.75 0.30 0.90 -0.80 0.90 -1.05 0 -1.25 -0.20 -1.25 -1.55z"/>
  <path d="M23.30 38.25 c-0.20 -0.85 0 -1.55 0.70 -2.25 l1 -1 0 2.25 c0 2.50 -1.15 3.20 -1.70 1z"/>
  <path d="M15.80 37.20 c-0.45 -0.40 -0.80 -1.05 -0.80 -1.45 0 -0.35 -0.55 -1.75 -1.20 -3.10 -0.65 -1.30 -1.45 -3.25 -1.70 -4.25 -0.50 -1.80 -0.45 -1.90 0.65 -1.90 0.90 0 1.20 0.35 1.45 1.70 0.20 0.90 0.20 2 0 2.45 -0.40 1.05 2.10 4.85 3.20 4.85 1.50 0 1.60 -0.50 0.45 -2.45 -0.65 -1.05 -1.05 -2.40 -0.95 -3.15 0.15 -1.25 0.35 -1.40 2.15 -1.40 1.60 0 1.95 0.15 1.95 1 0 0.55 0.25 1 0.55 1 0.75 0 3.95 -3.50 3.95 -4.30 0 -0.45 0.55 -0.70 1.50 -0.70 0.90 0 1.50 -0.25 1.50 -0.65 0 -0.75 2.25 -2.85 3 -2.85 1.10 0 0.35 1 -3.55 4.70 -2.20 2.15 -3.90 4 -3.75 4.20 0.15 0.15 0.75 -0.35 1.35 -1.10 0.60 -0.80 1.35 -1.25 1.80 -1.10 0.40 0.15 0.60 0.10 0.45 -0.15 -0.15 -0.20 0.80 -1.45 2.10 -2.65 1.30 -1.25 2.60 -2.70 2.90 -3.20 0.35 -0.55 0.75 -0.80 0.95 -0.60 0.70 0.65 -0.40 2.65 -2.90 5.25 -1.35 1.45 -2.55 3.15 -2.60 3.75 -0.05 0.65 -0.15 1.45 -0.20 1.80 0 0.30 -0.40 0.60 -0.85 0.60 -0.65 0 -0.70 -0.15 -0.20 -0.70 0.50 -0.65 0.35 -0.65 -0.95 -0.15 -0.85 0.30 -1.55 0.75 -1.55 0.95 0 0.20 -0.45 0.40 -1 0.40 -0.55 0 -1 0.25 -1 0.50 0 0.30 0.25 0.50 0.60 0.50 0.35 0 0.25 0.35 -0.30 0.90 -0.65 0.60 -1 0.70 -1.15 0.25 -0.35 -0.90 -1.15 -0.80 -1.15 0.10 0 0.40 -0.45 0.75 -1 0.75 -0.55 0 -1 0.25 -1 0.50 0 0.80 -1.85 0.60 -2.70 -0.30z m4.40 -5.40 c-0.45 -0.75 -0.95 -1.25 -1.05 -1.10 -0.15 0.10 0.15 0.80 0.65 1.50 0.45 0.75 0.95 1.25 1.05 1.10 0.15 -0.10 -0.15 -0.80 -0.65 -1.50z m3.15 0.35 c-0.20 -0.15 -0.35 0 -0.35 0.35 0 0.35 0.15 0.50 0.35 0.35 0.15 -0.20 0.15 -0.50 0 -0.70z m-4.35 -2.40 c0 -0.15 -0.10 -0.25 -0.25 -0.25 -0.15 0 -0.25 0.10 -0.25 0.25 0 0.15 0.10 0.25 0.25 0.25 0.15 0 0.25 -0.10 0.25 -0.25z"/>
  <path d="M16.35 33.65 c-0.20 -0.15 -0.35 -0.55 -0.35 -0.85 0 -0.30 0.25 -0.25 0.60 0.10 0.30 0.30 0.45 0.70 0.35 0.85 -0.15 0.15 -0.45 0.10 -0.60 -0.10z"/>
  <path d="M14 26.10 c0 -0.25 -0.45 -0.60 -1 -0.75 -0.75 -0.20 -1 -0.70 -1 -1.95 0 -0.95 0.15 -1.90 0.35 -2.10 0.60 -0.55 0.60 -2 0.10 -2.65 -0.30 -0.35 -0.40 -0.85 -0.20 -1.15 0.15 -0.25 -0.05 -0.60 -0.45 -0.75 -2.75 -0.85 -2.65 -0.75 -1.65 -1.30 0.45 -0.30 1.05 -0.40 1.25 -0.25 0.70 0.45 2.55 4.50 2.75 6.05 0.15 1 0.25 0.70 0.30 -0.85 0.05 -2 0.20 -2.40 1 -2.40 1.20 0 2.70 4.10 2.45 6.60 -0.15 1.50 -0.30 1.65 -2 1.80 -1.05 0.10 -1.90 -0.05 -1.90 -0.30z m2.25 -2.75 c0 -1.30 -1 -1.25 -1.15 0.10 -0.15 0.80 0.05 1.10 0.50 0.95 0.35 -0.15 0.65 -0.60 0.65 -1.05z m-1.75 -0.10 c0 -0.15 -0.10 -0.25 -0.25 -0.25 -0.15 0 -0.25 0.10 -0.25 0.25 0 0.15 0.10 0.25 0.25 0.25 0.15 0 0.25 -0.10 0.25 -0.25z"/>
  <path d="M20.50 24.25 c0 -1.65 0.10 -1.75 1.75 -1.75 1.65 0 1.75 0.10 1.75 1.75 0 1.65 -0.10 1.75 -1.75 1.75 -1.65 0 -1.75 -0.10 -1.75 -1.75z"/>
  <path d="M9.60 23.50 c-0.30 -0.55 -0.60 -1.80 -0.60 -2.80 0 -1.80 0 -1.85 1 -0.95 0.65 0.60 1 1.55 1 2.85 0 2.10 -0.45 2.40 -1.40 0.90z"/>
  <path d="M18.35 21.60 c-0.70 -1.85 0.05 -5.25 1.45 -6.75 0.95 -1.05 1.70 -1.35 3.35 -1.35 5.05 0 7.35 -1.15 4.85 -2.50 -0.50 -0.30 -0.85 -0.80 -0.70 -1.20 0.15 -0.40 -0.20 -0.80 -0.90 -1 -1.80 -0.45 -2.90 -0.35 -2.75 0.30 0.05 0.35 -0.40 0.70 -1 0.80 -0.90 0.15 -1.15 -0.10 -1.15 -0.85 0 -1.30 0.35 -1.45 3.70 -1.85 2.65 -0.30 2.80 -0.25 2.80 0.75 0 0.60 0.30 1.05 0.75 1.05 0.40 0 0.75 0.45 0.75 0.95 0 1.40 0.55 2.55 1.20 2.55 0.35 0 0.50 -0.80 0.40 -2.25 -0.20 -2 -0.10 -2.25 0.80 -2.25 0.55 0 1.15 -0.30 1.30 -0.60 0.45 -1.20 1.80 1.20 1.80 3.20 0 1.80 -0.10 1.90 -1.50 1.90 -1.40 0 -1.50 0.15 -1.50 1.75 0 1.95 -0.25 2.10 -1.50 1 -0.75 -0.70 -0.80 -0.60 -0.60 0.75 0.20 1.35 0.05 1.50 -1.10 1.50 -1.05 0 -1.30 0.25 -1.30 1.25 0 1.10 -0.20 1.25 -1.75 1.25 -2.15 0 -2.20 -0.50 -0.25 -1.65 0.85 -0.50 1.50 -1.25 1.50 -1.65 0 -1.10 -2.20 -1.85 -4.20 -1.50 -2.25 0.45 -3.70 2.40 -3.90 5.35 -0.15 1.85 -0.20 2.05 -0.55 1.05z m15.15 -11.35 c0 -0.15 -0.10 -0.25 -0.25 -0.25 -0.15 0 -0.25 0.10 -0.25 0.25 0 0.15 0.10 0.25 0.25 0.25 0.15 0 0.25 -0.10 0.25 -0.25z"/>
  <path d="M13.30 15.95 c-0.70 -0.85 -1.45 -2.05 -1.60 -2.75 -0.35 -1.35 -0.40 -1.40 -1.70 -0.70 -1.35 0.70 -1.45 0.10 -0.55 -2.70 0.95 -2.90 2.05 -3.65 2.05 -1.35 0 0.85 0.25 1.55 0.50 1.55 0.30 0 0.50 0.80 0.50 1.75 0 1.40 0.20 1.75 0.95 1.75 0.75 0 1 0.45 1.15 2 0.10 1.10 0.15 2 0.10 2 -0.05 0 -0.70 -0.70 -1.40 -1.55z"/>
  <path d="M14.60 4.90 c0.10 -1.40 0.40 -1.70 1.55 -1.80 0.80 -0.10 1.85 -0.60 2.35 -1.10 1.10 -1.10 4.50 -0.95 6.40 0.30 1.05 0.70 1.20 0.70 0.95 0.05 -0.20 -0.55 0 -0.65 0.70 -0.50 0.50 0.15 0.95 0.45 0.95 0.70 0 0.25 0.35 0.45 0.75 0.45 0.40 0 0.75 0.20 0.75 0.45 0 0.65 -1.35 1.05 -3.55 1.05 -1.40 0 -1.95 -0.20 -1.95 -0.75 0 -0.60 -0.65 -0.75 -2.75 -0.75 l-2.75 0 0 1.75 c0 1.65 -0.10 1.75 -1.80 1.75 -1.70 0 -1.75 -0.05 -1.60 -1.60z"/>
 </g>
 <g fill="#b3aeac">
  <path d="M28.50 39.20 c0 -0.70 0.15 -0.70 0.75 -0.20 0.40 0.35 0.75 0.70 0.75 0.80 0 0.10 -0.35 0.20 -0.75 0.20 -0.40 0 -0.75 -0.35 -0.75 -0.80z"/>
  <path d="M23.35 38.05 c-0.15 -0.70 0.55 -1.85 2.20 -3.70 2.65 -3 3.20 -4 1.15 -2.10 -1.30 1.20 -2.30 1.20 -3.55 -0.05 -0.95 -0.90 -0.85 -3.70 0.10 -3.70 0.40 0 0.75 -0.35 0.75 -0.75 0 -0.40 0.45 -0.75 1 -0.75 0.65 0 1 -0.35 1 -0.95 0 -0.65 0.50 -1 1.55 -1.25 2.80 -0.55 2.75 -0.35 -0.40 2.70 -1.75 1.65 -3.15 3.25 -3.15 3.60 0 0.35 0.60 0 1.25 -0.75 0.70 -0.80 1.50 -1.25 1.75 -1.10 0.30 0.15 0.70 -0.20 0.95 -0.85 0.25 -0.65 1.25 -1.80 2.25 -2.55 0.95 -0.75 2.20 -2.40 2.80 -3.70 1.05 -2.35 1.35 -3.95 0.50 -2.65 -0.40 0.65 -0.50 0.60 -0.50 -0.10 0 -0.70 -0.45 -0.90 -2 -0.90 -1.10 0 -2 -0.20 -2 -0.50 0 -0.25 -0.40 -0.50 -0.90 -0.50 -0.45 0 -1.10 -0.50 -1.35 -1.10 -0.55 -1.30 -2.05 -1.65 -4.55 -1.15 -2.15 0.40 -3.30 2.35 -2.85 4.95 0.30 1.95 0.90 2.35 1.40 0.85 0.15 -0.50 0.65 -1.05 1.15 -1.20 0.45 -0.15 1.25 -0.40 1.75 -0.60 0.65 -0.30 0.85 -0.10 0.85 0.90 0 0.80 -0.35 1.35 -0.85 1.50 -0.85 0.20 -0.85 0.25 0 0.30 1.15 0.05 1.20 3.30 0.05 3.75 -1.25 0.50 -3.70 0.35 -3.70 -0.20 0 -0.25 -0.45 -0.50 -1 -0.50 -0.55 0 -1 -0.20 -1 -0.50 0 -0.25 -0.35 -0.50 -0.75 -0.50 -0.40 0 -0.75 -0.30 -0.75 -0.70 0 -1.05 -1.05 -1.55 -1.50 -0.75 -0.25 0.35 -0.35 -0.55 -0.30 -2.10 0.05 -1.50 -0.10 -3 -0.35 -3.30 -0.35 -0.50 -0.10 -0.65 1.10 -0.65 1.50 0 1.55 0.10 1.55 2.15 0 2.10 1.50 5.35 2.50 5.35 0.30 0 0.05 -0.65 -0.55 -1.45 -1.35 -1.80 -1.10 -4.70 0.55 -7.05 1.40 -2 3.05 -2.60 6.45 -2.45 2.30 0.10 2.80 0 3.10 -0.85 0.35 -0.85 0.40 -0.85 0.40 0.20 0.05 0.75 0.35 1.10 1.05 1.10 0.55 0 1 0.20 1 0.45 0 0.25 0.60 0.55 1.35 0.65 1.25 0.15 1.45 0.40 1.75 2.65 0.40 2.80 -0.70 7.10 -1.90 7.60 -0.40 0.15 -0.70 0.50 -0.70 0.85 0 0.30 -0.90 1.40 -2 2.50 -1.10 1.05 -1.95 2.25 -1.90 2.75 0.15 1.95 -0.15 3.05 -0.85 3.05 -0.50 0 -0.75 0.50 -0.75 1.50 0 1 -0.25 1.50 -0.75 1.50 -0.40 0 -0.75 0.45 -0.75 1 0 1.30 -1.30 1.30 -1.65 0.05z m-0.85 -13.80 c0 -0.15 -0.10 -0.25 -0.25 -0.25 -0.15 0 -0.25 0.10 -0.25 0.25 0 0.15 0.10 0.25 0.25 0.25 0.15 0 0.25 -0.10 0.25 -0.25z m9.15 -8.10 c-0.65 -0.40 -1.15 -1.10 -1.15 -1.45 0 -0.40 -0.25 -0.70 -0.55 -0.70 -0.30 0 -0.40 0.35 -0.25 0.80 0.15 0.45 0.30 0.95 0.30 1.20 0 0.35 0.65 0.60 2.50 0.90 0.15 0.05 -0.25 -0.30 -0.85 -0.75z m-3.15 -0.40 c0 -0.15 -0.10 -0.25 -0.25 -0.25 -0.15 0 -0.25 0.10 -0.25 0.25 0 0.15 0.10 0.25 0.25 0.25 0.15 0 0.25 -0.10 0.25 -0.25z"/>
  <path d="M16.40 37.45 c-0.50 -0.25 -0.90 -0.85 -0.90 -1.25 0 -0.45 -0.60 -1.75 -1.30 -3 -0.70 -1.20 -1.10 -2.20 -0.85 -2.20 0.20 0 1 1 1.75 2.25 1.05 1.70 1.70 2.25 2.65 2.25 0.70 0 1.25 -0.20 1.25 -0.40 0 -0.90 -3.05 -4.60 -3.75 -4.60 -0.40 0 -0.75 -0.35 -0.75 -0.75 0 -0.50 0.50 -0.75 1.70 -0.75 1.50 0 1.85 0.30 3.05 2.30 0.85 1.45 1.15 2.45 0.85 2.65 -0.30 0.15 -0.60 1.10 -0.70 2.05 -0.15 1.90 -1.35 2.45 -3 1.45z"/>
  <path d="M20.50 36.05 c0 -1.30 0.20 -1.55 1.25 -1.55 0.70 0 1.25 -0.20 1.25 -0.50 0 -0.25 0.50 -0.50 1.10 -0.50 1.05 0 1.05 0 0.10 1.05 -0.50 0.60 -1.55 1.50 -2.30 2.05 l-1.40 0.95 0 -1.50z"/>
  <path d="M16.50 33.50 c0 -0.35 0.15 -0.50 0.35 -0.35 0.15 0.20 0.15 0.50 0 0.70 -0.20 0.15 -0.35 0 -0.35 -0.35z"/>
  <path d="M20.60 32.60 c-1.25 -2.55 -1.25 -2.60 0.10 -2.60 1.15 0 1.30 0.20 1.30 1.70 0 2.20 -0.60 2.60 -1.40 0.90z"/>
  <path d="M11.25 26.45 c-2 -4.05 -2 -3.85 -0.40 -4.10 l1.40 -0.20 -1.60 -0.40 c-1.15 -0.25 -1.65 -0.65 -1.65 -1.30 0 -1.10 0.20 -1.15 1.45 -0.35 1.15 0.70 2.75 0.15 2.40 -0.85 -0.20 -0.45 -0.05 -0.60 0.45 -0.40 0.55 0.20 0.75 0.90 0.65 2.50 -0.10 1.70 0.05 2.35 0.70 2.70 1.30 0.75 1.05 1.45 -0.50 1.50 -0.80 0 -1.10 0.15 -0.75 0.30 0.80 0.30 0.80 3.65 0 3.65 -0.35 -0.05 -1.30 -1.40 -2.15 -3.05z"/>
  <path d="M31 22.40 c0 -0.90 0.25 -1.40 0.75 -1.40 0.95 0 0.95 0.55 0 1.80 -0.70 0.90 -0.70 0.90 -0.75 -0.40z"/>
  <path d="M12.50 17.75 c0 -0.15 0.10 -0.25 0.25 -0.25 0.15 0 0.25 0.10 0.25 0.25 0 0.15 -0.10 0.25 -0.25 0.25 -0.15 0 -0.25 -0.10 -0.25 -0.25z"/>
  <path d="M10 16.05 c0 -0.25 0.35 -0.55 0.75 -0.75 0.45 -0.15 0.75 0 0.75 0.45 0 0.40 -0.35 0.75 -0.75 0.75 -0.40 0 -0.75 -0.20 -0.75 -0.45z"/>
  <path d="M11.65 13.15 c-0.45 -1.05 -0.90 -1.60 -1 -1.25 -0.15 0.30 -0.55 0.60 -0.95 0.60 -0.75 0 -0.85 -0.60 -0.40 -2.35 0.30 -1.15 1.70 -1.65 1.70 -0.60 0 0.70 1.25 1.95 1.95 1.95 0.30 0 0.55 0.80 0.55 1.75 0 2.30 -0.85 2.25 -1.85 -0.10z"/>
  <path d="M16.50 12.80 c0 -0.95 -0.25 -1.30 -1 -1.30 -0.80 0 -1 -0.35 -1 -1.55 0 -0.85 -0.30 -1.85 -0.70 -2.25 -0.95 -0.90 -1.30 -0.90 -1.30 0.05 0 0.45 -0.45 0.75 -1.25 0.75 -0.70 0 -1.25 -0.15 -1.25 -0.40 0 -1.55 5.30 -5.60 7.35 -5.60 1 0 1.15 0.25 1.15 1.85 0 1 -0.35 2.25 -0.85 2.75 -0.75 0.85 -0.75 0.90 0 0.90 0.55 0 0.85 0.45 0.90 1.15 0.05 0.80 0.10 0.90 0.30 0.25 0.15 -0.55 0.70 -0.90 1.45 -0.90 0.75 0 1.20 -0.30 1.20 -0.75 0 -0.50 0.55 -0.75 1.75 -0.75 1.20 0 1.75 0.25 1.75 0.75 0 0.40 -0.30 0.75 -0.70 0.75 -0.40 0 -0.80 0.35 -1 0.75 -0.15 0.40 -0.75 0.75 -1.30 0.75 -0.55 0 -2.05 0.95 -3.25 2.05 -2.25 2.05 -2.25 2.05 -2.25 0.75z m0 -8.05 c0 -0.15 -0.10 -0.25 -0.25 -0.25 -0.15 0 -0.25 0.10 -0.25 0.25 0 0.15 0.10 0.25 0.25 0.25 0.15 0 0.25 -0.10 0.25 -0.25z"/>
  <path d="M33.30 10.80 c0.15 -0.40 0.05 -0.85 -0.25 -1.05 -0.70 -0.40 -0.75 -3.75 -0.05 -3.75 0.65 0 1.35 1.40 1.75 3.65 0.30 1.65 0.25 1.85 -0.70 1.85 -0.65 0 -0.95 -0.25 -0.75 -0.70z"/>
  <path d="M27.90 5.15 c-0.80 -0.10 -1.40 -0.45 -1.40 -0.70 0 -0.25 -0.80 -0.45 -1.75 -0.45 -1.55 0 -1.75 -0.15 -1.75 -1.25 0 -1.40 0.60 -1.60 1.70 -0.50 0.80 0.85 2.05 1.05 1.55 0.25 -0.15 -0.25 -0.10 -0.50 0.20 -0.50 0.25 0 0.65 0.25 0.80 0.50 0.15 0.30 0.85 0.50 1.50 0.50 0.65 0 1.85 0.55 2.60 1.25 l1.40 1.20 -1.75 -0.05 c-0.95 0 -2.35 -0.15 -3.10 -0.25z"/>
 </g>
 <g fill="#c4bebb">
  <path d="M23.50 38.35 c0 -1.20 0.55 -2.25 2.25 -4.20 2.20 -2.50 3 -3.90 1.50 -2.65 -1.20 1 -0.95 -1.15 0.25 -2.25 0.55 -0.50 0.85 -1.05 0.75 -1.25 -0.15 -0.20 0.15 -0.70 0.65 -1.05 0.75 -0.65 0.80 -0.60 0.15 0.20 -0.40 0.55 -0.45 0.85 -0.10 0.85 0.30 0 0.85 -0.65 1.30 -1.50 0.45 -0.80 1 -1.50 1.25 -1.50 1 0 0.45 1.15 -1.40 2.95 -1.80 1.75 -1.90 2 -2 5.45 -0.10 2.60 0.05 3.95 0.65 4.70 1.10 1.60 0.95 1.90 -0.95 1.90 -1.65 0 -1.75 -0.10 -1.95 -1.85 l-0.20 -1.90 -0.05 1.90 c-0.10 1.50 -0.30 1.85 -1.10 1.85 -0.80 0 -1 -0.35 -1 -1.65z"/>
  <path d="M18 37.45 c0 -0.30 -0.45 -0.40 -1 -0.20 -0.75 0.25 -1.10 0 -1.55 -1.10 -0.35 -0.75 -1.15 -2.50 -1.80 -3.85 -0.60 -1.40 -1.15 -2.95 -1.15 -3.50 0 -0.60 -0.35 -1.50 -0.75 -2 -1.05 -1.40 -0.95 -1.80 0.50 -1.80 1.05 0 1.25 0.25 1.25 1.45 0 0.80 0.20 1.55 0.45 1.65 0.65 0.25 1.20 2.40 0.60 2.40 -0.95 0 -0.60 1.30 0.95 3.40 1.40 1.95 1.70 2.10 3.75 2.10 2.35 0 2.90 0.60 1.30 1.50 -1.25 0.65 -2.55 0.65 -2.55 -0.05z"/>
  <path d="M22 35.50 c0 -0.25 -0.65 -0.50 -1.45 -0.50 -1.20 0 -1.70 -0.40 -2.75 -2.20 -0.70 -1.25 -1.30 -2.90 -1.30 -3.75 0 -1.45 0.15 -1.55 1.70 -1.55 1.75 0 2.30 0.80 2.30 3.25 0 0.90 -0.10 0.90 -1.05 -0.25 l-1 -1.25 0.35 1.25 c0.20 0.70 0.80 1.80 1.35 2.50 l1 1.25 -0.30 -1.20 c-0.15 -0.65 0 -1.60 0.30 -2.10 0.70 -1.15 2.85 -1.30 2.85 -0.20 0 0.40 0.20 0.75 0.45 0.75 1.10 0 0.85 2 -0.40 3.20 -1.45 1.40 -2.05 1.60 -2.05 0.80z m1.50 -3 c0 -0.25 -0.25 -0.50 -0.55 -0.50 -0.25 0 -0.35 0.25 -0.20 0.50 0.15 0.30 0.40 0.50 0.55 0.50 0.10 0 0.20 -0.20 0.20 -0.50z"/>
  <path d="M16.50 33.75 c0 -0.15 0.10 -0.25 0.25 -0.25 0.15 0 0.25 0.10 0.25 0.25 0 0.15 -0.10 0.25 -0.25 0.25 -0.15 0 -0.25 -0.10 -0.25 -0.25z"/>
  <path d="M25 28.05 c0 -0.70 -0.45 -1 -1.85 -1.20 -4.20 -0.65 -5.05 -0.95 -5.35 -2.05 -0.55 -2.10 -0.40 -2.50 0.70 -1.55 1.40 1.25 1.85 0.60 0.55 -0.80 -1.20 -1.30 -1.40 -2.95 -0.30 -2.95 0.45 0 0.75 0.45 0.75 1.25 0 1.50 0.75 1.65 1.45 0.30 0.30 -0.50 1 -1.05 1.55 -1.20 0.80 -0.20 1 0 1 0.95 0 0.75 0.30 1.20 0.75 1.20 0.55 0 0.75 0.55 0.75 2 0 1.80 0.15 2 1.25 2 0.70 0 1.25 -0.20 1.25 -0.50 0 -0.25 0.50 -0.50 1.10 -0.50 0.95 0 0.85 0.25 -1.05 2 -1.15 1.10 -2.25 2 -2.35 2 -0.10 0 -0.20 -0.45 -0.20 -0.95z m-2.25 -4.05 c0.15 -0.25 0.10 -0.50 -0.20 -0.50 -0.25 0 -0.65 0.25 -0.80 0.50 -0.15 0.30 -0.10 0.50 0.20 0.50 0.25 0 0.65 -0.20 0.80 -0.50z"/>
  <path d="M9.50 23.05 c-0.25 -0.55 -0.50 -1.55 -0.50 -2.30 0 -1.10 0.15 -1.20 0.95 -0.75 0.55 0.25 1.45 0.50 2.05 0.50 0.90 0 1.05 -0.25 0.85 -1.35 -0.10 -0.80 -0.10 -1.10 0 -0.75 0.15 0.30 0.45 0.60 0.70 0.60 0.50 0 0.60 1.70 0.15 3.40 -0.35 1.25 -1.70 1.55 -1.70 0.35 0 -0.40 -0.20 -0.75 -0.50 -0.75 -0.25 0 -0.50 0.45 -0.50 1 0 1.25 -0.80 1.30 -1.50 0.05z"/>
  <path d="M33.25 21.70 c1.15 -2.80 0.85 -3.20 -0.50 -0.70 l-1.20 2.25 -0.05 -2.35 c0 -2.35 -0.05 -2.40 -1.50 -2.40 -1 0 -1.50 -0.25 -1.50 -0.75 0 -0.40 -0.35 -0.75 -0.75 -0.75 -0.40 0 -0.75 -0.40 -0.75 -0.95 0 -0.50 -0.45 -1.05 -1 -1.20 -0.55 -0.15 -1 -0.50 -1 -0.80 0 -0.55 0.95 -0.80 2.65 -0.65 1.40 0.15 1.70 -1.40 0.45 -2.40 -1.25 -1.05 -0.95 -1.50 1 -1.50 1.15 0 1.40 0.20 1.40 1.25 0 0.80 0.30 1.25 0.75 1.25 0.50 0 0.75 -0.50 0.75 -1.50 0 -1.25 0.20 -1.50 1.20 -1.50 1.35 0 1.80 0.80 1.80 3.30 0 1.50 -0.15 1.70 -1.25 1.70 -1.10 0 -1.25 0.15 -0.95 1.20 0.25 1.10 0.15 1.20 -0.80 0.95 -0.65 -0.15 -1.25 -0.70 -1.35 -1.25 -0.30 -1 -1.15 -1.25 -1.15 -0.25 0 1.10 0.90 2 2.10 2.20 0.65 0.10 1.25 0.40 1.30 0.65 0.10 0.30 0.65 0.50 1.20 0.50 0.90 0 0.95 0.20 0.65 1.85 -0.40 2.25 -1.10 3.65 -1.75 3.65 -0.30 0 -0.15 -0.80 0.25 -1.80z m-4.40 -6.05 c-0.20 -0.15 -0.50 -0.15 -0.70 0 -0.15 0.20 0 0.35 0.35 0.35 0.35 0 0.50 -0.15 0.35 -0.35z m3.50 -3 c-0.20 -0.15 -0.35 0 -0.35 0.35 0 0.35 0.15 0.50 0.35 0.35 0.15 -0.20 0.15 -0.50 0 -0.70z m0.75 -2.75 c-0.35 -0.35 -0.60 -0.40 -0.60 -0.10 0 0.70 0.60 1.30 0.95 0.95 0.10 -0.15 -0.05 -0.55 -0.35 -0.85z"/>
  <path d="M14.85 20.35 c-0.25 -1.95 0.05 -2.85 0.95 -2.85 0.95 0 0.95 2.85 0 3.75 -0.60 0.60 -0.75 0.50 -0.95 -0.90z"/>
  <path d="M18.50 17.75 c0 -1.25 2.65 -4.25 3.70 -4.25 1.25 0 0.90 1.35 -0.40 1.70 -0.65 0.15 -1.65 1.05 -2.25 1.90 -0.85 1.35 -1.05 1.45 -1.05 0.65z"/>
  <path d="M13.75 16.50 c-0.15 -0.25 -0.05 -0.50 0.20 -0.50 0.30 0 0.55 0.25 0.55 0.50 0 0.30 -0.10 0.50 -0.20 0.50 -0.15 0 -0.40 -0.20 -0.55 -0.50z"/>
  <path d="M10.40 15.65 c0.35 -0.15 0.80 -0.10 0.95 0.05 0.20 0.15 -0.10 0.30 -0.65 0.25 -0.55 0 -0.70 -0.15 -0.30 -0.30z"/>
  <path d="M12.25 14.50 c-0.15 -0.25 -0.05 -0.50 0.20 -0.50 0.30 0 0.55 0.25 0.55 0.50 0 0.30 -0.10 0.50 -0.20 0.50 -0.15 0 -0.40 -0.20 -0.55 -0.50z"/>
  <path d="M13.50 13.05 c0 -0.80 0.20 -2.05 0.50 -2.75 0.35 -1.05 0.30 -1.30 -0.25 -1.30 -0.40 0 -0.75 -0.20 -0.75 -0.50 0 -0.90 -0.90 -0.50 -1.15 0.50 -0.15 0.65 0 1 0.45 1 0.45 0 0.70 0.60 0.70 1.75 0 1.95 -0.70 2.30 -1.50 0.70 -0.45 -0.80 -0.70 -0.90 -1.30 -0.40 -0.60 0.45 -0.70 0.30 -0.70 -1.10 0 -3.75 4.60 -8.45 8.20 -8.45 0.70 0 1.30 -0.20 1.30 -0.50 0 -0.25 0.80 -0.50 1.75 -0.50 1.40 0 1.75 0.20 1.75 1 0 0.80 -0.35 1 -1.75 1 -1.55 0 -1.75 0.15 -1.75 1.25 0 0.80 -0.30 1.25 -0.75 1.25 -0.40 0 -0.75 0.35 -0.75 0.75 0 0.40 0.35 0.75 0.75 0.75 0.45 0 0.75 0.50 0.80 1.15 0.05 0.80 0.10 0.90 0.30 0.25 0.10 -0.50 0.55 -0.90 0.95 -0.90 0.45 0 0.70 -0.55 0.70 -1.50 0 -1.40 0.15 -1.50 1.75 -1.50 1.40 0 1.75 0.20 1.75 0.95 0 0.55 0.15 1.30 0.30 1.75 0.20 0.60 0 0.80 -0.75 0.80 -0.60 0 -1 0.30 -0.90 0.65 0.05 0.35 -0.50 0.65 -1.25 0.75 -0.85 0.10 -2.25 1.05 -3.50 2.35 -1.50 1.55 -2.55 2.25 -3.50 2.25 -1.20 0 -1.40 -0.20 -1.40 -1.45z m3.35 -3.40 c-0.20 -0.15 -0.50 -0.15 -0.70 0 -0.15 0.20 0 0.35 0.35 0.35 0.35 0 0.50 -0.15 0.35 -0.35z m0.15 -5.30 c0 -0.30 -0.45 -0.10 -1 0.40 -0.55 0.50 -1 1.15 -1 1.40 0 0.30 0.45 0.10 1 -0.40 0.55 -0.50 1 -1.15 1 -1.40z"/>
  <path d="M32 6.65 c0 -1.75 0.05 -1.80 0.95 -0.95 0.50 0.50 1.05 1.30 1.20 1.85 0.20 0.75 0 0.95 -0.95 0.95 -1.05 0 -1.20 -0.25 -1.20 -1.85z"/>
  <path d="M25.85 4.65 c-1.05 -1 0.55 -2.60 1.80 -1.80 0.35 0.20 0.85 0.40 1.10 0.45 0.30 0 0.80 0.10 1.15 0.10 0.30 0.05 0.60 0.45 0.60 0.85 0 0.55 -0.55 0.75 -2.15 0.75 -1.20 0 -2.35 -0.15 -2.50 -0.35z"/>
 </g>
 <g fill="#d0cac8">
  <path d="M23.70 38.30 c0.05 -1.10 0.80 -2.55 2 -4 1 -1.25 1.95 -2.30 2.05 -2.30 0.15 0 0 4.75 -0.20 6.15 -0.05 0.20 -0.50 0.35 -1.05 0.35 -0.55 0 -1 0.35 -1 0.75 0 0.40 -0.45 0.75 -1 0.75 -0.80 0 -0.95 -0.30 -0.80 -1.70z"/>
  <path d="M28 38.25 c0 -0.15 0.10 -0.25 0.25 -0.25 0.15 0 0.25 0.10 0.25 0.25 0 0.15 -0.10 0.25 -0.25 0.25 -0.15 0 -0.25 -0.10 -0.25 -0.25z"/>
  <path d="M16.65 37.50 c-0.70 -0.30 -1.15 -0.90 -1.15 -1.55 0 -0.55 -0.40 -1.65 -0.90 -2.35 -1.15 -1.65 -1.70 -3.10 -1.20 -3.10 0.25 0 0.65 0.75 1 1.65 0.60 1.65 2.30 3.85 3 3.85 0.20 0 0.65 -0.20 1.05 -0.45 0.60 -0.40 0.50 -0.75 -0.35 -2.30 -0.60 -1 -1.10 -2.55 -1.15 -3.40 0 -0.90 -0.15 -1.30 -0.30 -0.95 -0.10 0.30 -1 0.60 -1.90 0.60 -1.40 0 -1.80 -0.25 -2.65 -2 l-0.95 -2 1.15 0 c0.75 0 1.20 -0.30 1.20 -0.75 0 -0.85 1.25 -1 1.75 -0.25 0.60 1 1.25 -0.05 1.25 -2.05 0 -2 -0.75 -2.70 -1.15 -1.05 -0.15 0.45 -0.30 0.05 -0.35 -0.90 -0.05 -0.95 -0.15 -1.95 -0.20 -2.25 0 -0.25 -0.65 -1.30 -1.40 -2.25 -0.70 -0.95 -1.50 -2.35 -1.65 -3.10 -0.40 -1.55 -0.75 -1.70 -1.65 -0.80 -0.85 0.85 -1.20 0.25 -0.80 -1.30 0.35 -1.40 1.70 -1.80 1.70 -0.55 0 1 2.30 1 2.70 0 0.15 -0.40 0.05 -0.75 -0.20 -0.75 -0.30 0 -0.50 -0.45 -0.50 -0.95 0 -0.70 -0.40 -1.05 -1.30 -1.15 l-1.35 -0.15 1.45 -1.45 c1.85 -1.85 4.20 -3.30 5.35 -3.30 0.65 0 0.85 0.40 0.85 1.70 0 0.95 -0.25 1.80 -0.55 1.90 -0.25 0.10 -0.70 0.95 -0.90 1.90 -0.20 0.95 -0.55 2.30 -0.75 3 l-0.35 1.25 1 -1.25 c0.55 -0.70 1.05 -2 1.05 -2.85 0 -1.50 0.15 -1.65 1.50 -1.65 1 0 1.50 -0.25 1.50 -0.75 0 -0.50 0.55 -0.75 1.75 -0.75 1.20 0 1.75 0.25 1.75 0.75 0 0.50 0.50 0.75 1.50 0.75 1 0 1.50 0.25 1.50 0.75 0 0.45 0.45 0.75 1.25 0.75 1 0 1.25 0.25 1.25 1.25 0 0.80 0.30 1.25 0.75 1.25 0.50 0 0.75 0.55 0.75 1.75 0 1.20 0.25 1.75 0.75 1.75 0.50 0 0.75 -0.50 0.75 -1.50 0 -1.25 0.20 -1.50 1.25 -1.50 1.10 0 1.25 0.20 1.25 1.75 0 1.40 -0.20 1.75 -1 1.75 -0.65 0 -1 0.35 -1 0.95 0 1.40 -1.95 0.75 -2.30 -0.80 l-0.30 -1.20 -1.05 1.10 c-1 1.05 -1.05 1.05 -1.35 0.15 -0.25 -0.60 -0.10 -1 0.30 -1.10 1.10 -0.25 0.85 -2.50 -0.30 -2.85 -0.55 -0.20 -0.85 -0.55 -0.70 -0.85 0.20 -0.30 0 -0.70 -0.35 -0.95 -1.05 -0.65 -3.85 -0.55 -4.10 0.20 -0.20 0.45 -0.40 0.45 -0.75 -0.05 -0.35 -0.55 -0.50 -0.55 -0.75 0.10 -0.20 0.55 -0.95 0.80 -2.10 0.80 -1.70 0 -1.80 0.10 -1.65 1.45 0.05 0.90 -0.25 1.85 -0.85 2.55 -0.80 0.85 -0.85 1.20 -0.35 2 0.35 0.55 0.60 1.90 0.60 3.05 0 1.10 0.25 2.45 0.50 3 0.35 0.65 0.35 0.95 0 0.95 -0.25 0 -0.50 0.45 -0.50 1 0 0.55 0.35 1 0.75 1 0.40 0 0.75 -0.35 0.75 -0.80 0 -0.65 0.15 -0.70 0.70 -0.25 1.30 1.05 1.30 -0.25 0.05 -1.45 -0.70 -0.65 -1.25 -1.60 -1.25 -2.15 0 -1.25 1.20 -0.85 1.40 0.50 0.15 0.90 0.45 0.95 2.60 0.75 2.30 -0.20 2.50 -0.15 2.50 0.85 0 0.55 0.25 1.05 0.50 1.05 0.30 0 0.50 0.80 0.50 1.80 l0 1.85 -2.35 -0.30 c-1.35 -0.15 -2.80 -0.45 -3.25 -0.60 -0.65 -0.25 -0.90 -0.10 -0.90 0.45 0 0.45 0.35 0.80 0.75 0.80 0.55 0 0.75 0.55 0.75 2 0 1.45 0.20 2 0.75 2 0.40 0 0.75 -0.45 0.75 -1 0 -0.70 0.35 -1 1.20 -1 1 0 1.15 0.20 0.90 1.10 -0.20 0.90 -0.10 1 0.95 0.75 0.65 -0.20 1.40 -0.35 1.60 -0.35 0.25 0 0.30 -0.20 0.15 -0.45 -0.20 -0.25 0.60 -1.20 1.70 -2.05 1.10 -0.85 2 -1.85 2 -2.20 0 -0.35 0.45 -1.05 1 -1.55 0.95 -0.85 1 -0.85 1 0.05 0 0.50 -0.85 1.75 -1.85 2.75 -1.05 1 -2.90 3 -4.15 4.45 l-2.20 2.65 -0.55 -1.60 c-0.65 -1.90 -1.30 -1.55 -0.90 0.50 0.25 1.30 0.15 1.45 -1 1.45 -0.95 0 -1.40 0.35 -1.80 1.50 -0.50 1.55 -1.35 1.80 -3.40 1z m3.15 -6.50 c-1.50 -2.30 -2 -2.55 -1.30 -0.75 0.75 2 2.20 3.95 2.40 3.30 0.10 -0.35 -0.40 -1.50 -1.10 -2.55z m3.50 -6.50 c0 -0.55 -0.30 -1 -0.65 -1 -1 0 -1.20 0.90 -0.30 1.45 0.50 0.30 0.90 0.55 0.90 0.55 0.05 0 0.05 -0.45 0.05 -1z m-7.80 -11.75 c0 -0.15 -0.10 -0.25 -0.25 -0.25 -0.15 0 -0.25 0.10 -0.25 0.25 0 0.15 0.10 0.25 0.25 0.25 0.15 0 0.25 -0.10 0.25 -0.25z m19 -0.50 c0 -0.15 -0.10 -0.25 -0.25 -0.25 -0.15 0 -0.25 0.10 -0.25 0.25 0 0.15 0.10 0.25 0.25 0.25 0.15 0 0.25 -0.10 0.25 -0.25z m-17.30 -8.20 c-0.40 -0.40 -2.70 2.10 -2.70 2.90 0 0.50 0.55 0.15 1.45 -0.95 0.80 -0.95 1.40 -1.85 1.25 -1.95z m5.80 2.70 c0 -0.15 -0.10 -0.25 -0.25 -0.25 -0.15 0 -0.25 0.10 -0.25 0.25 0 0.15 0.10 0.25 0.25 0.25 0.15 0 0.25 -0.10 0.25 -0.25z m-8.25 -1.75 c0.15 -0.25 0.05 -0.50 -0.20 -0.50 -0.30 0 -0.55 0.25 -0.55 0.50 0 0.30 0.10 0.50 0.20 0.50 0.15 0 0.40 -0.20 0.55 -0.50z"/>
  <path d="M22.15 35.65 c0.20 -0.15 0.50 -0.15 0.70 0 0.15 0.20 0 0.35 -0.35 0.35 -0.35 0 -0.50 -0.15 -0.35 -0.35z"/>
  <path d="M28.25 27.50 c0.15 -0.25 0.40 -0.50 0.55 -0.50 0.15 0 0.10 0.25 -0.05 0.50 -0.15 0.30 -0.40 0.50 -0.55 0.50 -0.15 0 -0.10 -0.20 0.05 -0.50z"/>
  <path d="M26.50 26.05 c0 -1.15 0.25 -1.55 0.90 -1.55 0.45 0 1.40 -0.15 2.10 -0.35 1.15 -0.30 1.20 -0.25 0.55 0.55 -0.40 0.45 -1.35 1.30 -2.15 1.85 l-1.40 1 0 -1.50z"/>
  <path d="M9.75 23.25 c-0.45 -1 -0.75 -2.25 -0.65 -2.80 0.15 -1 0.15 -1 1.30 0.05 0.70 0.70 1.10 1.60 1.10 2.75 0 2.25 -0.65 2.20 -1.75 0z"/>
  <path d="M30.50 21.90 c0 -2.15 0.60 -3.05 1.90 -2.80 l1.05 0.15 -0.95 2.15 c-1.15 2.50 -2 2.70 -2 0.50z"/>
  <path d="M33.45 21.20 c0.70 -1.95 0.80 -2.10 0.95 -1 0.15 1.30 -0.65 3.30 -1.35 3.30 -0.25 0 -0.05 -1.05 0.40 -2.30z"/>
  <path d="M12 21.25 c0 -0.40 0.25 -0.75 0.55 -0.75 0.35 0 0.45 -0.50 0.25 -1.35 -0.35 -1.35 -0.35 -1.35 0.40 -0.35 0.85 1.20 0.55 3.20 -0.50 3.20 -0.40 0 -0.70 -0.35 -0.70 -0.75z"/>
  <path d="M22 20.60 c0 -0.35 0.85 -0.90 3.15 -2 0.20 -0.10 0.35 0.40 0.35 1.10 0 1.15 -0.20 1.30 -1.75 1.30 -0.95 0 -1.75 -0.20 -1.75 -0.40z"/>
  <path d="M18.50 17.90 c0 -0.65 2.10 -3.90 2.55 -3.90 0.25 0 0.45 0.15 0.45 0.40 -0.05 0.45 -2.95 3.95 -3 3.50z"/>
  <path d="M28 16.75 c0 -0.40 0.10 -0.75 0.20 -0.75 0.10 0 0.55 -0.15 1 -0.30 0.50 -0.20 0.80 -0.05 0.80 0.45 0 0.50 0.60 0.85 1.65 1 1.10 0.15 0.75 0.20 -1 0.25 -2.05 0.10 -2.65 -0.05 -2.65 -0.65z"/>
  <path d="M25.80 15.15 c-0.20 -0.20 -1.15 -0.30 -2.10 -0.20 -1.30 0.10 -1.70 -0.05 -1.70 -0.65 0 -0.60 0.55 -0.80 2.25 -0.80 1.90 0 2.25 0.15 2.25 1 0 1.10 -0.15 1.20 -0.70 0.65z"/>
  <path d="M25.65 5.15 c-1.45 -0.20 -1.65 -0.40 -1.65 -1.75 0 -1.25 0.10 -1.40 0.70 -0.95 0.40 0.35 1 0.55 1.40 0.50 0.35 -0.05 1.05 0.05 1.55 0.30 0.50 0.20 1.05 0.25 1.20 0.10 0.45 -0.50 2.15 0.60 2.15 1.40 0 0.75 -1.55 0.85 -5.35 0.40z"/>
 </g>
 <g fill="#dcd7d3">
  <path d="M25.65 39 c-0.15 -0.55 -0.60 -1 -0.95 -1 -1.30 0 -0.70 -1.75 1.30 -3.90 1.10 -1.20 2 -2 2 -1.75 -0.05 0.20 -0.25 1.35 -0.45 2.50 -0.25 1.35 -0.25 2 0.05 1.80 0.30 -0.15 0.35 0.20 0.15 0.90 -0.20 0.65 -0.20 1.05 0 0.85 0.45 -0.45 1.75 0.45 1.75 1.15 0 0.25 -0.80 0.45 -1.80 0.45 -1.35 0 -1.85 -0.25 -2.05 -1z"/>
  <path d="M17.10 37.65 c-0.60 -0.10 -1 -0.45 -0.85 -0.70 0.20 -0.25 0.10 -0.45 -0.15 -0.45 -0.25 0 -0.45 -0.30 -0.45 -0.70 0 -0.50 0.30 -0.55 1.45 -0.10 0.80 0.30 1.40 0.90 1.40 1.40 0 0.50 -0.05 0.85 -0.10 0.85 -0.10 -0.05 -0.65 -0.20 -1.30 -0.30z"/>
  <path d="M22.50 35.25 c0 -0.40 0.35 -0.75 0.80 -0.75 0.70 0 0.70 0.15 0.20 0.75 -0.35 0.40 -0.70 0.75 -0.80 0.75 -0.10 0 -0.20 -0.35 -0.20 -0.75z"/>
  <path d="M13.75 31.90 c-0.65 -1.45 -1.35 -4.15 -1.50 -6 -0.35 -3.15 -0.45 -3.35 -1.70 -3.50 -0.90 -0.10 -1.35 -0.50 -1.45 -1.25 -0.15 -0.95 0 -1.05 1.85 -0.80 1.75 0.25 2.05 0.15 2.05 -0.60 0 -0.50 0.15 -0.75 0.35 -0.55 0.20 0.20 0.30 1.35 0.20 2.55 -0.10 1.70 0.05 2.25 0.60 2.25 0.45 0 0.85 0.25 0.95 0.60 0.35 0.95 1.40 -0.10 1.40 -1.40 0 -0.75 -0.30 -1.20 -0.80 -1.20 -0.60 0 -0.75 -0.45 -0.65 -2.10 0.10 -1.75 -0.10 -2.45 -1.20 -3.55 -0.70 -0.80 -1.55 -2.20 -1.85 -3.15 -0.60 -1.85 -0.95 -2.05 -1.90 -1.10 -1 1 -1.15 0.15 -0.35 -2.40 1.25 -4.20 5.75 -7.60 10.50 -8 l2.75 -0.25 0 1.55 c0 1 0.25 1.50 0.75 1.50 1.10 0 0.95 2.80 -0.25 4 -0.55 0.55 -1.30 1 -1.70 1 -0.35 0 -1.85 1.10 -3.25 2.50 -2.40 2.35 -3.15 4.05 -2.05 4.75 0.30 0.15 0.50 1.30 0.50 2.50 0 1.75 0.30 2.60 1.45 3.85 1.85 2.10 2.65 1.50 0.85 -0.60 -1.50 -1.80 -1.65 -2.50 -0.55 -2.50 0.45 0 0.75 0.35 0.65 0.80 -0.20 1.20 0.85 1.40 1.85 0.35 0.50 -0.50 1.95 -1.45 3.20 -2.15 2.25 -1.25 2.30 -1.35 2.15 -3.40 -0.15 -1.55 0 -2.10 0.55 -2.10 0.40 0 1.45 -0.15 2.30 -0.30 1.40 -0.30 1.55 -0.20 1.50 0.85 0 0.95 -0.10 1 -0.35 0.35 -0.30 -0.75 -0.50 -0.70 -1.55 0.40 -1.05 1.10 -1.10 1.25 -0.30 1.10 0.50 -0.05 1 0.15 1.10 0.50 0.15 0.30 -0.10 0.60 -0.55 0.60 -0.60 0 -0.80 0.50 -0.80 1.70 0 1.10 -0.45 2.25 -1.25 3.20 -0.70 0.85 -1.25 1.95 -1.25 2.55 0 0.60 -0.20 1.05 -0.50 1.05 -0.25 0 -0.50 0.25 -0.50 0.50 0 0.30 0.45 0.50 1 0.50 0.55 0 1 -0.20 1 -0.50 0 -0.25 0.45 -0.50 1 -0.50 0.75 0 0.55 0.40 -1.15 2.05 l-2.10 2 -0.15 -1.25 c-0.15 -1.15 -0.25 -1.20 -0.90 -0.55 -0.45 0.40 -1.60 0.80 -2.60 0.80 -1.15 0.05 -1.45 0.15 -0.70 0.30 0.60 0.10 1.10 0.55 1.10 0.95 0 0.40 0.25 0.70 0.50 0.70 0.30 0 0.50 0.80 0.50 1.75 0 1.20 -0.25 1.75 -0.75 1.75 -0.40 0 -0.70 -0.15 -0.65 -0.35 0.15 -0.55 -2.25 -4.65 -2.70 -4.65 -0.20 0 -0.60 0.40 -0.85 0.90 -0.35 0.70 -0.90 0.90 -2 0.70 -1.75 -0.25 -1.90 0.25 -0.80 2.40 0.45 0.85 0.65 1.50 0.50 1.50 -0.15 0 -0.85 -1.20 -1.50 -2.60z m1.25 -4.15 c0 -0.15 -0.10 -0.25 -0.25 -0.25 -0.15 0 -0.25 0.10 -0.25 0.25 0 0.15 0.10 0.25 0.25 0.25 0.15 0 0.25 -0.10 0.25 -0.25z m2.35 -1.10 c-0.20 -0.15 -0.50 -0.15 -0.70 0 -0.15 0.20 0 0.35 0.35 0.35 0.35 0 0.50 -0.15 0.35 -0.35z m6.25 -1.60 c-0.35 -0.20 -0.60 -0.60 -0.55 -0.85 0.20 -1.05 -0.10 -1.30 -0.80 -0.70 -1 0.80 -0.95 1.35 0.15 1.65 1.45 0.40 1.90 0.35 1.20 -0.10z m-6.10 -15.85 c0 -0.75 -1.10 0.05 -1.75 1.30 -1.30 2.45 -0.85 3.45 0.50 1.05 0.70 -1.15 1.25 -2.25 1.25 -2.35z m-4.35 0.95 c0.15 -0.25 -0.05 -0.70 -0.45 -1.05 -0.60 -0.55 -0.70 -0.45 -0.70 0.40 0 1 0.70 1.35 1.15 0.65z m6.70 -2 c-0.20 -0.15 -0.50 -0.15 -0.70 0 -0.15 0.20 0 0.35 0.35 0.35 0.35 0 0.50 -0.15 0.35 -0.35z m-3 -4.10 c-0.25 -0.10 -0.65 0.10 -0.80 0.40 -0.20 0.30 -0.75 0.45 -1.15 0.30 -0.45 -0.20 -0.95 -0.05 -1.20 0.30 -0.20 0.35 -0.10 0.75 0.20 0.85 0.35 0.10 0.60 0.65 0.60 1.20 0 0.85 0.30 0.65 1.40 -0.90 0.80 -1.05 1.25 -2.05 0.95 -2.15z m6 2.60 c-0.20 -0.15 -0.50 -0.15 -0.70 0 -0.15 0.20 0 0.35 0.35 0.35 0.35 0 0.50 -0.15 0.35 -0.35z"/>
  <path d="M19 33.25 c0 -0.40 -0.20 -0.75 -0.50 -0.75 -0.25 0 -0.45 -0.75 -0.45 -1.60 0.05 -1.10 0.15 -1.30 0.30 -0.65 0.15 0.55 0.55 1.35 0.90 1.75 1.15 1.45 1.35 2 0.55 2 -0.45 0 -0.80 -0.35 -0.80 -0.75z"/>
  <path d="M23.50 32.90 c0 -0.35 -0.15 -1.15 -0.30 -1.75 -0.20 -0.75 -0.10 -1.15 0.30 -1.15 0.35 0 0.50 0.35 0.30 0.75 -0.50 1.35 1.20 0.80 3.50 -1.10 2.45 -2.05 5.35 -6.05 6.25 -8.60 0.90 -2.50 0.10 -2.45 -1.05 0.05 -0.50 1.20 -1.45 2.65 -2.05 3.20 l-1.10 0.95 0.30 -1.25 c0.20 -0.70 0.35 -1.65 0.35 -2.10 0 -0.55 0.40 -0.90 1 -0.90 0.60 0 1 -0.35 1 -0.80 0 -1 1.20 -2.20 2.20 -2.20 2 0 -0.40 6.40 -3.55 9.55 -1.35 1.25 -3.05 3.15 -3.80 4.15 -1.40 1.75 -3.35 2.45 -3.35 1.20z"/>
  <path d="M28.50 27.25 c0 -0.15 0.10 -0.25 0.25 -0.25 0.15 0 0.25 0.10 0.25 0.25 0 0.15 -0.10 0.25 -0.25 0.25 -0.15 0 -0.25 -0.10 -0.25 -0.25z"/>
  <path d="M19 17.35 c0 -0.60 1.50 -3.05 2.10 -3.40 0.35 -0.25 1.40 -0.45 2.30 -0.45 2.25 0 1.85 1.15 -0.45 1.35 -1.05 0.10 -2.15 0.70 -2.80 1.45 -0.65 0.70 -1.15 1.15 -1.15 1.05z"/>
  <path d="M32.35 13.15 c-0.20 -0.15 -0.35 -1.10 -0.35 -2.10 0.05 -1.45 0.10 -1.65 0.55 -0.90 0.25 0.45 0.75 0.85 1.05 0.85 0.30 0 0.25 -0.30 -0.15 -0.80 -0.60 -0.70 -0.55 -0.80 0.30 -0.65 0.75 0.15 1.05 0.70 1.15 2.10 0.15 1.65 0.05 1.85 -1.05 1.85 -0.65 0 -1.35 -0.15 -1.50 -0.35z m2 -1 c-0.20 -0.15 -0.35 0 -0.35 0.35 0 0.35 0.15 0.50 0.35 0.35 0.15 -0.20 0.15 -0.50 0 -0.70z"/>
  <path d="M28.75 11.40 c-0.55 -0.65 -0.95 -1.30 -0.85 -1.50 0.05 -0.20 -0.35 -0.60 -0.90 -0.90 -1.55 -0.80 -1.20 -1.50 0.75 -1.50 1.55 0 1.75 0.15 2 1.70 0.20 0.95 0.25 2.05 0.15 2.50 -0.10 0.70 -0.30 0.65 -1.15 -0.30z"/>
  <path d="M26.85 5.65 c-0.20 -0.15 -0.35 -0.85 -0.35 -1.55 0 -0.85 0.20 -1.10 0.75 -0.90 0.40 0.15 1.10 0.45 1.60 0.65 0.55 0.20 0.70 0.15 0.40 -0.30 -0.30 -0.50 -0.15 -0.55 0.70 -0.10 0.55 0.35 1.05 1.05 1.05 1.55 0 0.80 -0.35 1 -1.90 1 -1.05 0 -2.10 -0.15 -2.25 -0.35z"/>
 </g>
 <g fill="#e3e1df">
  <path d="M24.05 38.15 c0 -1.05 0.15 -1.60 0.30 -1.25 0.45 1.10 1.15 0.65 1.15 -0.80 0 -0.85 0.50 -1.90 1.20 -2.55 l1.15 -1.10 -0.45 2.55 c-0.30 1.60 -0.25 2.80 0.05 3.40 0.35 0.50 0.55 0.60 0.55 0.20 0 -0.90 1 -0.25 1 0.70 0 0.50 -0.65 0.70 -2.50 0.70 l-2.50 0 0.05 -1.85z"/>
  <path d="M17.65 37.70 c-0.90 -0.40 -0.80 -1.70 0.10 -1.70 1.30 0 1.40 -1.40 0.20 -3.10 -2.05 -3.05 -3.25 -3.55 -3.90 -1.75 -0.40 1 -0.50 0.85 -1.05 -1.15 -0.30 -1.25 -0.80 -2.60 -1.05 -3 -3.05 -5.15 -3.50 -7.35 -1.15 -6.50 0.85 0.35 1.35 0.25 1.90 -0.25 0.40 -0.40 0.80 -0.75 0.90 -0.75 0.10 0 0.05 1.10 0 2.45 -0.15 2.15 -0.05 2.45 0.95 2.70 0.60 0.15 1.30 0.20 1.55 0.05 0.65 -0.40 0.45 -2.55 -0.30 -2.85 -0.45 -0.20 -0.60 -0.95 -0.55 -2.35 0.10 -1.45 -0.10 -2.15 -0.65 -2.35 -0.40 -0.20 -1.25 -1.50 -1.90 -3 -1.15 -2.50 -2.35 -3.40 -2.85 -2 -0.10 0.30 -0.35 0.50 -0.50 0.30 -0.75 -0.65 1.40 -5.50 3.10 -7.05 1 -0.90 1.50 -1.30 1.20 -0.90 -0.85 0.95 -0.80 1.50 0.15 1.50 0.55 0 0.70 0.30 0.45 1 -0.35 1.15 -0.10 1.25 1.25 0.35 1.45 -0.85 2.40 0.55 1.05 1.65 -1.05 0.85 -1.60 2.15 -1.90 4.25 -0.20 1.35 -0.05 1.20 1.90 -1.40 1.15 -1.55 2.40 -2.85 2.75 -2.85 0.65 0 2 -3.35 1.50 -3.85 -0.15 -0.15 -0.05 -0.70 0.25 -1.25 0.50 -0.90 0.40 -0.90 -0.55 -0.40 -0.55 0.30 -2.20 0.50 -3.65 0.40 l-2.60 -0.15 2.25 -1.05 c3 -1.40 7.05 -1.55 8.25 -0.20 0.45 0.50 1.15 0.80 1.55 0.65 0.40 -0.15 1.20 0.15 1.75 0.65 0.80 0.70 1.10 0.75 1.40 0.25 0.50 -0.75 1.90 -0.15 3.10 1.25 0.65 0.80 0.50 0.85 -2.55 0.50 -4.45 -0.50 -5.50 -0.80 -5.50 -1.60 0 -0.85 -0.85 -0.90 -1.15 -0.05 -0.60 1.80 0.75 2.85 3.80 2.85 1.15 0 1.35 0.20 1.35 1.50 0 1.25 0.20 1.50 1.20 1.50 1.10 0 1.30 0.30 1.55 2.20 0.40 2.55 0 4.20 -0.50 2.45 -0.35 -1.10 -0.40 -1.10 -1.55 -0.25 -1.30 0.95 -1.60 1.85 -0.45 1.40 0.45 -0.15 0.90 0.05 1.05 0.45 0.20 0.40 0.60 0.75 1 0.75 0.40 0 0.70 0.25 0.70 0.50 0 0.30 -0.65 0.50 -1.50 0.50 -1.30 0 -1.50 0.20 -1.50 1.40 0 1.05 -0.35 1.50 -1.50 2 -1.05 0.50 -1.50 1.05 -1.50 1.85 0 1.35 -0.95 3.65 -1.85 4.65 -0.30 0.30 -1.25 0.60 -2.10 0.60 -1.25 0 -1.55 0.20 -1.55 1.15 -0.05 1 -0.10 1.05 -0.70 0.25 -0.35 -0.50 -0.80 -0.90 -0.95 -0.90 -0.50 0 0.30 2.25 1.30 3.60 1.15 1.60 2.25 1.35 1.20 -0.30 -0.60 -0.90 -0.60 -1.15 -0.05 -1.70 0.35 -0.30 1.15 -0.60 1.75 -0.60 0.65 0 1.70 -0.50 2.40 -1.10 0.70 -0.65 0.40 -0.10 -0.70 1.25 -1.45 1.80 -1.75 2.55 -1.35 2.95 0.45 0.45 0.60 0.35 0.60 -0.50 0 -0.70 0.25 -1.10 0.65 -1 1.65 0.40 7.75 -6.15 9.30 -9.95 1.10 -2.75 0.30 -3.05 -1.05 -0.40 -1.20 2.30 -2.20 3.45 -4.50 5.20 -0.80 0.60 -0.90 0.50 -0.90 -0.90 0 -1.35 0.20 -1.55 1.30 -1.55 1.30 0 3.15 -1.70 3.20 -2.85 0 -0.35 0.25 -0.65 0.50 -0.65 0.30 0 0.50 -0.65 0.50 -1.50 0 -1.30 0.20 -1.50 1.30 -1.50 1.25 0 1.25 0.10 0.95 2.05 -0.20 1.10 -0.65 2.65 -1.05 3.35 -0.40 0.75 -0.70 1.55 -0.70 1.85 0 0.25 -1.05 1.55 -2.35 2.85 -1.35 1.25 -3.20 3.25 -4.15 4.40 -3.35 4.10 -7.05 6.45 -8.85 5.70z m-2.15 -9.45 c-0.35 -0.40 -0.85 -0.75 -1.15 -0.75 -0.30 0 -0.10 0.35 0.45 0.75 1.25 0.95 1.50 0.95 0.70 0z m2.90 -2.75 c0.20 0 0.85 0.35 1.45 0.75 1.05 0.75 2.65 0.55 2.65 -0.30 0 -0.25 0.35 -0.45 0.80 -0.45 0.70 0 0.70 -0.15 0.20 -0.75 -0.50 -0.60 -0.50 -0.75 0.20 -0.75 1.30 0 0.90 -0.75 -0.45 -0.90 -0.70 -0.05 -1.25 0.15 -1.25 0.40 0 0.30 -0.30 0.50 -0.70 0.50 -1 0 -3.40 -2.95 -2.95 -3.65 0.25 -0.40 0.45 -0.20 0.55 0.55 0.20 1.25 1.35 1.50 1.95 0.40 0.20 -0.40 1.50 -1.25 2.85 -1.85 3.15 -1.55 3.80 -2.55 2.60 -3.90 -0.90 -1 -2.75 -1.10 -5.35 -0.30 -1.15 0.40 -1.20 0.10 -0.15 -1 0.65 -0.60 1.65 -0.75 4.30 -0.70 2.50 0.05 3.60 -0.10 3.90 -0.55 0.45 -0.75 -0.25 -2.50 -1 -2.50 -0.25 0 -0.35 -0.30 -0.20 -0.65 0.15 -0.45 -0.50 -0.90 -1.85 -1.35 -1.90 -0.65 -2.10 -0.60 -2.75 0.25 -0.40 0.50 -0.85 0.75 -1.05 0.60 -0.20 -0.20 -0.05 -0.65 0.25 -0.95 0.70 -0.70 0.80 -2.40 0.15 -2.40 -0.50 0 -1.05 1.20 -1.05 2.35 0 0.45 -1.35 2.10 -3.05 3.75 -2.95 2.90 -3 3 -2.25 4.15 0.45 0.70 0.80 2.15 0.80 3.30 0 1.30 0.35 2.50 1.05 3.35 0.75 1 0.85 1.40 0.35 1.55 -0.35 0.10 -0.85 0.50 -1.05 0.85 -0.20 0.40 -0.80 0.70 -1.25 0.70 -0.65 0 -0.60 0.25 0.40 1 l1.25 0.95 0.15 -1.20 c0.10 -0.70 0.35 -1.25 0.50 -1.25z m7.15 -4.85 c1.65 -1.85 1.60 -2.35 -0.05 -0.95 -2.10 1.75 -3.10 3.15 -1.65 2.40 0.50 -0.30 1.25 -0.90 1.70 -1.45z m-13.05 -13.90 c0 -0.15 -0.10 -0.25 -0.25 -0.25 -0.15 0 -0.25 0.10 -0.25 0.25 0 0.15 0.10 0.25 0.25 0.25 0.15 0 0.25 -0.10 0.25 -0.25z"/>
  <path d="M20 24.75 c0 -0.15 0.10 -0.25 0.25 -0.25 0.15 0 0.25 0.10 0.25 0.25 0 0.15 -0.10 0.25 -0.25 0.25 -0.15 0 -0.25 -0.10 -0.25 -0.25z"/>
  <path d="M19 17.25 c0 -0.15 0.10 -0.25 0.25 -0.25 0.15 0 0.25 0.10 0.25 0.25 0 0.15 -0.10 0.25 -0.25 0.25 -0.15 0 -0.25 -0.10 -0.25 -0.25z"/>
  <path d="M19.50 16.25 c0 -0.15 0.10 -0.25 0.25 -0.25 0.15 0 0.25 0.10 0.25 0.25 0 0.15 -0.10 0.25 -0.25 0.25 -0.15 0 -0.25 -0.10 -0.25 -0.25z"/>
  <path d="M27.50 37 c0 -0.35 0.15 -0.50 0.35 -0.35 0.15 0.20 0.15 0.50 0 0.70 -0.20 0.15 -0.35 0 -0.35 -0.35z"/>
  <path d="M14.20 32.90 c-0.20 -0.35 -0.15 -0.40 0.20 -0.20 0.60 0.35 0.80 0.80 0.40 0.80 -0.15 0 -0.40 -0.25 -0.60 -0.60z"/>
  <path d="M12.50 18.25 c0 -0.15 0.10 -0.25 0.25 -0.25 0.15 0 0.25 0.10 0.25 0.25 0 0.15 -0.10 0.25 -0.25 0.25 -0.15 0 -0.25 -0.10 -0.25 -0.25z"/>
  <path d="M32.60 13.60 c-0.35 -0.25 -0.75 -1.60 -0.95 -3 l-0.30 -2.60 1.50 0 c1.30 0 1.55 0.25 1.85 1.55 0.55 2.90 0.35 4.45 -0.55 4.45 -0.50 0 -1.20 -0.20 -1.55 -0.40z m1.15 -2.90 c-0.45 -0.70 -0.95 -1.15 -1.10 -1 -0.20 0.15 0.05 0.70 0.50 1.20 0.50 0.50 0.85 1.25 0.90 1.65 0 0.50 0.10 0.55 0.30 0.05 0.15 -0.35 -0.15 -1.20 -0.60 -1.90z"/>
 </g>
 <g fill="#efeeec">
  <path d="M24.30 39.20 c-0.60 -1.60 -0.25 -2.75 1.45 -4.60 l1.75 -1.85 -0.35 3.15 c-0.20 2.15 -0.10 3.10 0.30 3.10 0.30 0 0.55 -0.25 0.55 -0.55 0 -0.40 0.25 -0.40 0.75 0.05 1.30 1.10 0.85 1.50 -1.70 1.50 -1.75 0 -2.55 -0.20 -2.75 -0.80z"/>
  <path d="M17.30 36.80 c0.15 -0.40 0.60 -0.85 1 -1 1.05 -0.40 0.85 -1.15 -0.75 -3.55 -0.85 -1.25 -1.15 -2.05 -0.75 -1.90 1.30 0.50 0.75 -0.70 -1.05 -2.30 -2.10 -1.80 -2.30 -3.05 -0.50 -3.05 1.05 0 1.25 -0.25 1.25 -1.50 0 -0.80 -0.20 -1.50 -0.50 -1.50 -0.25 0 -0.50 -0.20 -0.50 -0.50 0 -1.05 1.30 -0.45 2.15 1 0.85 1.40 0.85 1.55 0 2.45 -0.50 0.50 -1.35 1.05 -1.90 1.15 -0.85 0.15 -0.80 0.30 0.60 1 1.55 0.75 1.60 0.75 1.90 -0.45 0.30 -1.20 0.35 -1.20 1.20 -0.45 0.50 0.45 1.15 0.80 1.50 0.80 0.90 0 3.10 -1.80 2.65 -2.20 -0.15 -0.20 0 -0.55 0.40 -0.85 0.60 -0.35 0.60 -0.55 0.15 -0.85 -0.45 -0.30 -0.15 -0.90 1.10 -2.10 2 -1.90 2.55 -3.90 0.65 -2.15 -1.60 1.40 -2.40 1.80 -2.40 1.15 0 -0.30 0.50 -0.70 1.15 -0.95 2 -0.80 2.60 -1.90 1.80 -3.35 -0.65 -1.25 -0.85 -1.30 -3.45 -1 -2.50 0.25 -2.65 0.20 -1.80 -0.45 0.65 -0.50 2.15 -0.75 4.35 -0.75 2.70 0 3.40 -0.15 3.70 -0.85 0.20 -0.60 -0.05 -1.15 -0.65 -1.65 -0.50 -0.45 -0.85 -1.05 -0.75 -1.35 0.15 -0.35 -0.70 -0.85 -1.85 -1.20 -1.70 -0.50 -2.30 -0.50 -3.15 0 -0.90 0.55 -1 0.55 -0.45 0 0.65 -0.70 0.85 -2.45 0.20 -2.45 -0.20 0 -0.65 0.25 -1 0.60 -0.45 0.45 -0.60 0.30 -0.60 -0.80 0 -0.75 0.25 -1.80 0.50 -2.35 0.65 -1.15 0.35 -1.20 -1.20 -0.20 -1.05 0.70 -3.95 0.80 -4.55 0.15 -0.60 -0.60 3.60 -1.75 5.90 -1.65 2.40 0.10 4.30 1.10 3 1.60 -0.75 0.30 -0.85 1.65 -0.15 1.65 0.30 0 0.50 0.35 0.50 0.75 0 0.45 0.45 0.75 1.25 0.75 0.90 0 1.25 0.25 1.25 1 0 0.65 0.35 1 1 1 0.75 0 1 0.35 1 1.25 0 0.80 0.30 1.25 0.75 1.25 0.40 0 0.75 0.45 0.75 1 0 0.55 0.25 1 0.50 1 0.30 0 0.50 -0.55 0.50 -1.25 0 -1.60 0.85 -1.60 1.60 0 0.30 0.65 0.70 1.10 0.90 1 0.60 -0.35 0.20 7.95 -0.40 9.05 -0.70 1.20 -0.75 0.20 -0.10 -1.50 0.85 -2.30 -0.40 -1.45 -1.75 1.15 -0.65 1.35 -1.95 3.05 -2.85 3.75 l-1.65 1.30 -0.15 -1.20 c-0.20 -1.55 1.70 -3.80 3.20 -3.80 0.70 0 1.10 -0.25 1 -0.60 -0.15 -0.35 -0.35 -1.40 -0.50 -2.25 -0.25 -1.45 -0.15 -1.65 0.85 -1.65 1.05 -0.05 1.05 -0.05 -0.25 -1.05 -0.80 -0.55 -1.40 -1.35 -1.40 -1.75 0 -0.95 -0.25 -0.90 -1.80 0.55 -1.25 1.15 -1.25 1.25 -0.30 1.25 0.90 0 1 0.25 0.75 2.15 -0.30 2.45 -1.35 4.35 -2.40 4.35 -0.50 0 -0.80 0.80 -1.05 2.50 -0.25 2.10 -0.55 2.55 -1.50 2.80 -1.50 0.40 -1.55 1.10 -0.15 1.30 1.05 0.15 1 0.20 -0.30 1.60 -0.75 0.80 -1.20 1.75 -1 2.20 0.25 0.65 0.35 0.65 1.15 -0.05 0.45 -0.45 1.95 -1.75 3.30 -2.95 l2.50 -2.15 -1.60 2.30 c-2.40 3.55 -5.80 6.35 -7.35 6.05 -0.90 -0.15 -1.25 0 -1.25 0.60 0 0.50 -0.45 0.80 -1.25 0.80 -0.85 0 -1.15 -0.20 -0.95 -0.70z m3.95 -3.25 c0.15 -0.30 -0.45 -1.55 -1.35 -2.80 -1.70 -2.40 -2.55 -2.30 -1.20 0.10 0.45 0.75 0.90 1.80 1.10 2.30 0.35 0.95 1 1.10 1.45 0.40z m0.45 -3.80 c0.15 -0.40 0.05 -0.75 -0.20 -0.75 -0.30 0 -0.50 0.35 -0.50 0.75 0 0.40 0.10 0.75 0.20 0.75 0.10 0 0.30 -0.35 0.50 -0.75z m11.30 -15.50 c0 -0.15 -0.10 -0.25 -0.25 -0.25 -0.15 0 -0.25 0.10 -0.25 0.25 0 0.15 0.10 0.25 0.25 0.25 0.15 0 0.25 -0.10 0.25 -0.25z"/>
  <path d="M14 32.75 c0 -0.15 0.10 -0.25 0.25 -0.25 0.15 0 0.25 0.10 0.25 0.25 0 0.15 -0.10 0.25 -0.25 0.25 -0.15 0 -0.25 -0.10 -0.25 -0.25z"/>
  <path d="M30.50 26.70 c3.10 -4 3.65 -4.45 2.25 -1.70 -0.40 0.80 -1.25 1.75 -1.90 2.05 -1.05 0.60 -1.05 0.55 -0.35 -0.35z"/>
  <path d="M15.20 19.40 c-0.20 -0.30 -0.10 -0.70 0.25 -0.80 0.45 -0.15 0.40 -0.40 -0.15 -1.05 -1.50 -1.65 1 -6.50 4.55 -8.80 2.25 -1.50 1.25 0.55 -1.70 3.40 -2.75 2.70 -2.80 2.80 -2.05 3.95 0.45 0.70 0.70 1.75 0.55 2.55 -0.30 1.45 -0.85 1.75 -1.45 0.75z"/>
  <path d="M9.50 11.75 c0 -0.15 0.10 -0.25 0.25 -0.25 0.15 0 0.25 0.10 0.25 0.25 0 0.15 -0.10 0.25 -0.25 0.25 -0.15 0 -0.25 -0.10 -0.25 -0.25z"/>
  <path d="M33.85 10.50 c-0.15 -0.55 -0.10 -1 0.15 -1 0.20 0 0.50 0.45 0.65 1 0.15 0.55 0.10 1 -0.15 1 -0.20 0 -0.50 -0.45 -0.65 -1z"/>
  <path d="M15 8.25 c0 -0.40 0.45 -0.75 1 -0.75 0.55 0 1 0.35 1 0.75 0 0.40 -0.45 0.75 -1 0.75 -0.55 0 -1 -0.35 -1 -0.75z"/>
  <path d="M31.50 7.30 c0 -0.75 -1.50 -1.30 -3.60 -1.30 -1.15 0 -1.40 -0.20 -1.40 -1.30 0 -1.05 0.15 -1.25 0.90 -0.95 0.45 0.20 1.60 0.40 2.55 0.45 1.15 0.05 2.05 0.55 2.85 1.45 1.55 1.80 1.50 2.35 -0.05 2.35 -0.75 0 -1.25 -0.30 -1.25 -0.70z"/>
  <path d="M14.50 3.75 c0 -0.15 0.10 -0.25 0.25 -0.25 0.15 0 0.25 0.10 0.25 0.25 0 0.15 -0.10 0.25 -0.25 0.25 -0.15 0 -0.25 -0.10 -0.25 -0.25z"/>
 </g>
 <g fill="#fbfbfb">
  <path d="M24.80 38.75 c-0.75 -1.10 -0.75 -1.40 -0.10 -2.65 0.40 -0.80 1.05 -1.70 1.45 -2.05 0.65 -0.50 0.75 -0.10 0.75 2.70 0.05 3.60 -0.65 4.20 -2.10 2z"/>
  <path d="M28 39.25 c0 -0.40 0.20 -0.75 0.45 -0.75 0.25 0 0.55 0.35 0.75 0.75 0.15 0.45 0 0.75 -0.45 0.75 -0.40 0 -0.75 -0.35 -0.75 -0.75z"/>
  <path d="M18.25 36.20 c0.70 -1.05 0.75 -1.55 0.30 -2.55 -0.70 -1.55 -0.70 -1.65 0.10 -1.65 0.40 0 0.95 0.60 1.25 1.30 0.35 0.70 0.85 1.10 1.10 0.95 0.80 -0.50 0.60 -1.10 -1.30 -3.80 -1.70 -2.45 -1.95 -3.95 -0.55 -3.95 0.35 0 0.90 0.25 1.15 0.50 0.80 0.80 3.80 -1 3.50 -2.10 -0.10 -0.50 0 -0.90 0.25 -0.90 0.25 0 0.45 -0.45 0.45 -1.05 0 -0.60 0.70 -1.70 1.50 -2.45 1.70 -1.60 1.80 -2.90 0.35 -5.05 -0.80 -1.20 -1.05 -1.25 -3.15 -0.95 -1.50 0.25 -2.10 0.20 -1.75 -0.15 0.30 -0.30 2.05 -0.60 3.90 -0.70 3.80 -0.25 4.70 -0.75 3.75 -2.05 -0.35 -0.45 -0.75 -1.20 -0.90 -1.65 -0.30 -0.95 -2.25 -1.95 -3.70 -1.95 -0.55 0 -1 -0.35 -1 -0.75 0 -0.40 -0.55 -1.10 -1.25 -1.55 -1.15 -0.75 -1.20 -0.85 -0.45 -2.25 0.80 -1.60 2.20 -1.90 3.20 -0.70 0.35 0.40 1.05 0.75 1.55 0.75 0.50 0 1.05 0.25 1.25 0.55 0.15 0.30 0.90 0.45 1.65 0.30 2.25 -0.45 5.05 2.55 5.05 5.35 0 1.40 -0.05 1.45 -0.70 0.50 -0.40 -0.50 -0.85 -0.80 -1 -0.65 -0.40 0.40 1.15 3.45 1.75 3.45 0.25 0 0.45 1.25 0.45 2.75 0 2.10 -0.20 2.75 -0.75 2.75 -0.40 0 -1.10 0.90 -1.60 2.05 -0.50 1.15 -2.95 4.05 -5.75 6.85 -3.85 3.80 -4.75 5 -4.40 5.60 0.45 0.65 0.60 0.65 1.20 -0.10 0.35 -0.50 0.85 -0.90 1.10 -0.90 0.20 0 1.20 -0.75 2.15 -1.60 l1.75 -1.65 -0.95 1.50 c-2 3.20 -7 7.25 -9 7.25 -1.35 0 -1.35 0 -0.50 -1.30z m14.75 -19.70 c0 -0.25 -0.35 -0.50 -0.75 -0.50 -0.45 0 -1.05 -0.55 -1.35 -1.25 -0.65 -1.40 -1.15 -1.60 -1.60 -0.50 -0.15 0.40 -0.60 0.75 -1.05 0.75 -0.40 0 -0.75 0.25 -0.75 0.50 0 0.30 0.45 0.50 0.95 0.50 0.55 0 1.15 0.25 1.30 0.50 0.15 0.30 0.95 0.50 1.80 0.50 0.80 0 1.45 -0.20 1.45 -0.50z"/>
  <path d="M16.40 28.30 c-1 -0.75 -1.15 -1.30 -0.40 -1.30 0.25 0 0.70 0.45 1 1 0.60 1.15 0.55 1.20 -0.60 0.30z"/>
  <path d="M31.50 25.75 c0.65 -0.70 1.30 -1.25 1.40 -1.25 0.15 0 -0.25 0.55 -0.90 1.25 -0.65 0.70 -1.30 1.25 -1.40 1.25 -0.15 0 0.25 -0.55 0.90 -1.25z"/>
  <path d="M16.60 23.95 c0.35 -0.95 0.70 -1.35 1 -1.05 0.30 0.30 0.25 0.85 -0.20 1.55 -0.95 1.55 -1.45 1.30 -0.80 -0.50z"/>
  <path d="M34 20.50 c0 -0.35 0.15 -0.50 0.35 -0.35 0.15 0.20 0.15 0.50 0 0.70 -0.20 0.15 -0.35 0 -0.35 -0.35z"/>
  <path d="M15.25 16.95 c-0.20 -0.30 -0.25 -0.65 -0.10 -0.80 0.35 -0.35 1.35 0.30 1.35 0.90 0 0.60 -0.85 0.60 -1.25 -0.10z"/>
  <path d="M16 13.50 c0 -1.15 3.60 -4.90 3.90 -4.05 0.10 0.35 -0.70 1.60 -1.85 2.70 -1.20 1.25 -2.05 1.80 -2.05 1.35z"/>
  <path d="M15.65 8.15 c0.20 -0.15 0.50 -0.15 0.70 0 0.15 0.20 0 0.35 -0.35 0.35 -0.35 0 -0.50 -0.15 -0.35 -0.35z"/>
  <path d="M16 3.20 c0 -0.15 0.80 -0.60 1.80 -1 1.85 -0.80 3.15 -0.35 2.50 0.75 -0.35 0.55 -4.30 0.80 -4.30 0.25z"/>
 </g>
</svg>