<?xml version="1.0" encoding="utf-8"?>
<!DOCTYPE svg PUBLIC "-//W3C//DTD SVG 1.0//EN" "http://www.w3.org/TR/2001/REC-SVG-20010904/DTD/svg10.dtd">
<svg version="1.0" xmlns="http://www.w3.org/2000/svg" width="40px" height="40px" viewBox="0 0 40 40" preserveAspectRatio="xMidYMid meet">
 <g fill="#1a1312">
  <path d="M15.65 36.70 c-0.35 -0.15 -0.65 -0.85 -0.65 -1.50 0 -0.70 -0.30 -1.20 -0.70 -1.20 -0.85 0 -1.30 -1.10 -1.30 -3.05 0 -1.35 0.15 -1.45 1.75 -1.45 0.95 0 1.75 0.25 1.75 0.50 0 0.30 0.45 0.50 1 0.50 0.65 0 1 0.35 1 0.95 0 0.50 0.35 1.10 0.80 1.25 0.55 0.20 0.70 0.85 0.60 2.15 -0.15 1.80 -0.25 1.90 -1.90 2 -0.95 0.05 -2.05 0 -2.35 -0.15z"/>
  <path d="M18.50 21 c0 -1.25 -0.20 -1.50 -1.25 -1.50 -1.15 0 -1.25 -0.15 -1.25 -2.35 0 -1.35 0.35 -2.85 0.75 -3.35 0.40 -0.55 0.75 -1.60 0.75 -2.40 0 -1.25 0.15 -1.40 1.75 -1.40 0.95 0 1.75 0.25 1.75 0.50 0 0.30 0.90 0.50 2 0.50 1.95 0 2 0.05 2 1.75 0 1.60 0.10 1.75 1.55 1.75 1.50 0 1.50 0.05 1.35 2.40 -0.15 2.35 -0.15 2.35 -2 2.50 -1.25 0.10 -1.90 0.40 -1.90 0.90 0 0.40 -0.45 0.70 -1 0.70 -0.55 0 -1 0.35 -1 0.75 0 0.50 -0.55 0.75 -1.75 0.75 -1.60 0 -1.75 -0.10 -1.75 -1.50z m2 -3 c0 -0.25 0.80 -0.50 1.75 -0.50 1.20 0 1.75 -0.25 1.75 -0.70 0 -0.40 0.15 -1.05 0.30 -1.50 0.50 -1.35 -1.10 -0.95 -3.05 0.75 -1.75 1.55 -2.20 2.45 -1.25 2.45 0.30 0 0.50 -0.20 0.50 -0.50z"/>
  <path d="M10.50 20.80 c0 -0.40 -0.45 -0.90 -1.05 -1.05 -0.90 -0.30 -1 -0.70 -0.90 -3.05 0.10 -1.45 0 -2.85 -0.20 -3.05 -0.20 -0.15 -0.35 -0.75 -0.35 -1.25 0 -0.75 0.40 -0.90 2.20 -0.90 2.35 0 2.80 0.45 2.80 3 0 1.20 -0.25 1.45 -1.35 1.65 l-1.40 0.20 1.40 0.10 c0.85 0 1.35 0.35 1.35 0.80 0 0.40 0.25 0.75 0.50 0.75 0.30 0 0.50 0.80 0.50 1.75 0 1.65 -0.10 1.75 -1.75 1.75 -1.20 0 -1.75 -0.25 -1.75 -0.70z"/>
 </g>
 <g fill="#3f1026">
  <path d="M15.10 17.40 c-1.25 -1.25 -0.70 -3.60 1.45 -5.85 l2.10 -2.15 3.30 0.30 c4.95 0.50 6.05 1.05 6.05 3.10 l0 1.70 -3.10 0 c-3.50 0 -3.80 0.15 -5.05 2.15 -1 1.55 -1.85 1.75 -1.85 0.40 0 -1.20 3.20 -4.05 4.65 -4.10 0.60 0 0.80 -0.15 0.50 -0.30 -1.95 -0.75 -5.65 2.30 -5.65 4.65 0 0.85 -1.55 0.95 -2.40 0.10z"/>
 </g>
 <g fill="#2f2e24">
  <path d="M22.35 37.95 c-0.25 -1 -0.35 -1 -1.55 -0.20 -1.65 1.10 -5.55 0.65 -5.95 -0.65 -0.50 -1.60 -3.90 -9.35 -5.10 -11.65 -1.05 -1.95 -1.25 -3 -1.20 -6.60 l0.05 -4.30 1.45 -0.15 c1.10 -0.10 1.30 -0.30 0.95 -0.90 -0.40 -0.60 -0.65 -0.65 -1.45 -0.15 -1.30 0.80 -1.70 0.15 -1.25 -2.20 0.50 -2.80 1.45 -4.35 3.85 -6.35 2.10 -1.70 6.25 -3.80 7.65 -3.80 0.40 0 0.70 0.45 0.70 1 0 0.70 -0.35 1 -1.05 1 -0.55 0 -1.35 0.35 -1.80 0.75 -0.40 0.45 -1.40 0.95 -2.20 1.10 -0.80 0.15 -1.45 0.60 -1.45 0.95 0 0.40 -0.50 0.70 -1.25 0.70 -1 0 -1.25 0.25 -1.25 1.25 0 0.70 -0.20 1.25 -0.45 1.25 -0.25 0 -0.55 0.55 -0.65 1.25 -0.20 1.05 -0.05 1.30 1.05 1.60 1.65 0.40 2.05 1 2.05 3.05 0 1.25 0.20 1.60 0.95 1.60 1 0 1.55 -1.25 1.55 -3.60 0 -1.25 0.20 -1.40 1.55 -1.40 1.30 0 1.50 0.10 0.95 0.75 -0.30 0.40 -0.45 0.90 -0.30 1.15 0.25 0.45 -1.15 2 -1.55 1.75 -0.65 -0.50 -0.65 0 -0.05 0.75 0.45 0.45 0.90 1.20 1.05 1.60 0.20 0.50 0.30 0.45 0.30 -0.30 0.05 -0.55 0.50 -1.45 1.05 -1.95 1 -0.90 1 -0.85 1 0.65 0 0.90 0.25 1.60 0.50 1.60 0.30 0 0.50 -0.80 0.50 -1.75 0 -1.45 0.20 -1.80 1.25 -2.05 1.60 -0.40 4.70 0.20 5.55 1.05 0.95 0.95 0.90 3.75 -0.05 3.75 -0.40 0 -0.75 0.30 -0.75 0.65 0 0.35 -1.10 1.05 -2.50 1.60 -1.35 0.55 -2.50 1.25 -2.50 1.60 0 0.40 -0.70 0.65 -2 0.65 -1.80 0 -2 -0.10 -2 -1.25 0 -0.90 -0.25 -1.25 -1 -1.25 -0.70 0 -1 -0.35 -1.05 -1.10 -0.05 -0.85 -0.10 -0.95 -0.30 -0.25 -0.10 0.45 -0.50 0.85 -0.90 0.85 -0.35 0 -0.75 0.35 -0.95 0.75 -0.15 0.45 -0.90 0.75 -1.80 0.75 -0.80 0 -1.50 0.10 -1.50 0.25 0 0.15 0.55 1.15 1.25 2.25 0.70 1.10 1.25 2.30 1.25 2.70 0 1.55 0.65 2.30 2 2.30 1.75 0 3 0.45 3 1.05 0 0.30 0.45 0.95 1 1.55 0.55 0.60 1 1.80 1 2.65 0 1.50 0.05 1.50 2 1.35 2 -0.20 2 -0.20 2 1.60 0 2 -1.20 2.55 -1.65 0.75z m-4.10 -3.45 c-0.15 -0.25 -0.65 -0.30 -1.05 -0.15 -0.60 0.20 -0.65 0.40 -0.15 0.70 0.75 0.45 1.60 0.10 1.20 -0.55z"/>
  <path d="M27.50 29.25 c0 -1.60 0.10 -1.75 1.50 -1.75 l1.50 0 -1.10 1.75 c-1.45 2.20 -1.90 2.20 -1.90 0z"/>
  <path d="M32 24.75 c0 -0.70 -0.20 -1.25 -0.50 -1.25 -0.25 0 -0.50 -0.80 -0.50 -1.75 0 -1.55 0.15 -1.75 1.25 -1.75 1.20 0 1.25 -0.10 1.25 -3.25 0 -3 0.10 -3.25 1.05 -3.25 1.05 0 1.10 0.15 0.85 3.90 -0.20 2.50 -0.70 4.70 -1.40 6.25 -1.20 2.60 -2 3 -2 1.10z"/>
  <path d="M14 23.25 c0 -2.25 0 -2.25 1.75 -2.25 1.75 0 1.75 0 1.75 2.25 0 2.25 0 2.25 -1.75 2.25 -1.75 0 -1.75 0 -1.75 -2.25z"/>
  <path d="M33.50 10.75 c0 -2 1.20 -2.45 1.70 -0.60 0.50 1.85 0.35 2.35 -0.70 2.35 -0.80 0 -1 -0.35 -1 -1.75z"/>
  <path d="M28 3.20 c0 -0.70 0.15 -1.20 0.40 -1.10 3.65 1.75 4 2.40 1.35 2.40 -1.55 0 -1.75 -0.15 -1.75 -1.30z"/>
  <path d="M22 2 c0 -1.05 0.50 -1.20 2.40 -0.70 1.80 0.50 1.35 1.70 -0.65 1.70 -1.40 0 -1.75 -0.20 -1.75 -1z"/>
 </g>
 <g fill="#5e1e3f">
  <path d="M15.50 34.25 c0 -1.85 1.10 -2.45 1.70 -0.95 0.45 1.20 0.40 1.35 -0.50 1 -0.70 -0.25 -0.75 -0.20 -0.20 0.45 0.35 0.40 0.95 0.75 1.30 0.75 0.80 0 0.95 -1.30 0.20 -1.75 -0.75 -0.45 -0.60 -1.25 0.25 -1.25 0.50 0 0.75 0.55 0.75 1.75 0 1.65 -0.10 1.75 -1.75 1.75 -1.65 0 -1.75 -0.10 -1.75 -1.75z"/>
  <path d="M14.50 16 c0 -1.55 1.70 -4 2.85 -4 0.35 0 0.65 -0.30 0.65 -0.70 0 -1.05 2.40 -2.80 3.80 -2.80 0.75 0 1.20 -0.30 1.20 -0.75 0 -0.50 0.50 -0.75 1.65 -0.75 2.35 0 3.85 0.50 3.85 1.30 0 0.35 0.45 0.90 1 1.20 0.80 0.40 1 1.05 1 2.80 l0 2.30 -3.10 -0.30 c-1.75 -0.15 -4.05 -0.30 -5.15 -0.30 -1.50 0 -1.80 -0.10 -1.25 -0.50 0.40 -0.25 1.90 -0.50 3.25 -0.50 l2.50 -0.05 -1.40 -0.75 c-0.95 -0.50 -1.90 -0.65 -2.75 -0.40 -2.55 0.65 -3.15 0.60 -2.45 -0.25 0.50 -0.60 0.45 -0.65 -0.15 -0.30 -1.25 0.70 -2.50 1.90 -2.50 2.35 0 0.25 0.30 0.30 0.65 0.10 0.40 -0.25 0.40 -0.10 -0.10 0.45 -0.80 1 -1.30 1.15 -0.75 0.25 0.30 -0.45 0.15 -0.45 -0.45 0 -0.75 0.65 -0.75 0.80 0 1.90 0.75 1.20 0.75 1.20 -0.80 1.20 -1.40 0 -1.55 -0.15 -1.55 -1.50z"/>
  <path d="M18.50 16.10 c0 -0.25 0.35 -0.75 0.75 -1.10 0.40 -0.35 0.75 -0.40 0.75 -0.10 0 0.25 -0.35 0.75 -0.75 1.10 -0.40 0.35 -0.75 0.40 -0.75 0.10z"/>
 </g>
 <g fill="#474635">
  <path d="M27.50 39.25 c0 -0.40 -0.20 -0.75 -0.50 -0.75 -0.25 0 -0.50 -0.50 -0.50 -1.10 l0 -1.05 -1.15 1.05 c-1.35 1.25 -2.85 1.45 -2.85 0.35 0 -0.95 -0.20 -0.95 -2.10 0.05 -1.60 0.85 -3.55 0.65 -4.65 -0.50 -0.90 -0.85 -4.25 -8 -4.25 -9 0 -0.45 -0.70 -1.90 -1.50 -3.20 -1.80 -2.95 -2.05 -6.25 -0.55 -7.05 0.95 -0.50 1.55 -0.30 1.55 0.60 0 0.25 -0.35 0.35 -0.70 0.20 -0.50 -0.20 -0.65 -0.05 -0.45 0.45 0.25 0.75 2.65 1 2.65 0.30 0 -0.75 -1.25 -2.15 -2.50 -2.75 -1.90 -0.95 -1.60 -2.15 0.40 -1.95 1.60 0.15 1.65 0.10 1.10 -0.90 -0.45 -0.80 -0.90 -1.05 -1.80 -0.85 -1.60 0.30 -1.75 -0.05 -1.15 -2.65 0.50 -2.20 2.60 -5.50 3.50 -5.50 0.70 0 0.55 2.90 -0.25 3.35 -0.35 0.20 -0.80 0.90 -1 1.50 -0.30 0.85 -0.10 1.10 0.80 1.25 0.75 0.10 1.20 0.55 1.30 1.30 0.10 0.60 0.40 1.10 0.65 1.10 0.25 0 0.45 0.30 0.45 0.65 0 0.35 0.45 0.90 1 1.25 0.55 0.35 1 0.95 1 1.40 0 0.50 0.30 0.70 0.70 0.55 0.50 -0.20 0.80 0.10 0.95 0.80 0.15 0.90 0.25 0.80 0.30 -0.35 0.05 -0.90 0.70 -2.05 1.80 -3.15 1.50 -1.50 2 -1.70 3.30 -1.45 0.90 0.15 2.10 0.30 2.75 0.30 1 0 1.20 0.25 1.20 1.55 0 1.20 -0.15 1.45 -0.60 1.10 -1 -0.80 -2.70 -1.05 -3.45 -0.60 -0.50 0.30 -0.30 0.45 0.65 0.45 3.05 0 1.95 2.05 -1.65 3 -1.15 0.30 -1.95 0.90 -2.10 1.50 -0.15 0.55 -0.05 1 0.20 1 0.25 0 0.45 -0.35 0.45 -0.75 0 -0.40 0.25 -0.75 0.50 -0.75 0.30 0 1.60 -0.50 2.90 -1.15 l2.40 -1.15 -0.20 1.40 c-0.20 1.20 -0.45 1.40 -1.90 1.40 -1.10 0 -1.70 0.25 -1.70 0.70 0 0.40 -0.35 0.80 -0.75 1 -0.40 0.15 -0.75 0.85 -0.75 1.55 0 1.10 -0.20 1.25 -1.75 1.25 -0.95 0 -1.75 0.25 -1.75 0.55 0 0.30 -0.80 0.45 -1.85 0.35 -1.80 -0.15 -1.90 -0.25 -2.05 -2 -0.15 -1.65 -0.35 -1.90 -1.35 -1.90 l-1.25 0 0.90 1.90 c0.45 1 1 1.95 1.15 2.10 0.20 0.15 0.45 0.80 0.50 1.50 0.20 1.20 0.40 1.25 3.75 1.40 3.25 0.15 3.55 0.25 4.35 1.55 0.45 0.80 0.85 1.85 0.85 2.30 0 0.75 0.15 0.75 0.75 0.25 0.55 -0.45 0.65 -0.75 0.25 -1 -0.30 -0.20 -0.50 -1.10 -0.40 -2.05 0.10 -1.45 0.35 -1.70 1.55 -1.85 1.05 -0.15 1.35 -0.45 1.35 -1.40 0 -0.85 0.25 -1.20 1 -1.20 0.55 0 1 -0.25 1 -0.55 0 -0.30 0.80 -1.45 1.75 -2.60 0.95 -1.10 1.75 -2.35 1.75 -2.70 0 -0.40 0.65 -0.65 1.75 -0.65 1.50 0 1.75 0.15 1.75 1.15 0 3.40 -4.30 8.80 -7.05 8.90 -1.10 0.05 -1.10 0.10 -0.20 0.35 0.75 0.25 1 0.75 0.90 1.85 -0.30 3.60 -0.10 5.90 0.60 6.90 1.05 1.50 0.95 1.85 -0.50 1.85 -0.80 0 -1.25 -0.30 -1.25 -0.75z m-7.70 -3.50 c0.60 -0.60 0.60 -0.75 0.10 -0.75 -0.35 0 -1.20 -0.70 -1.90 -1.55 -2.15 -2.70 -2.60 -3.05 -3.10 -2.55 -0.35 0.35 -0.30 0.85 0.05 1.45 0.50 0.85 0.50 0.85 0.55 -0.10 0.05 -0.95 0.10 -0.95 1 0.20 1 1.20 0.90 2.35 -0.15 1.70 -0.35 -0.20 -0.30 0 0.10 0.50 0.35 0.45 1 0.85 1.35 0.85 0.40 0 0.70 0.25 0.70 0.50 0 0.70 0.45 0.60 1.30 -0.25z m-3.80 -15.25 c0 -0.25 -0.55 -0.50 -1.25 -0.50 -0.70 0 -1.25 0.25 -1.25 0.50 0 0.30 0.55 0.50 1.25 0.50 0.70 0 1.25 -0.20 1.25 -0.50z"/>
  <path d="M29 16.25 c0 -1.70 0.05 -1.75 2 -1.75 1.95 0 2 0.05 2 1.75 0 1.70 -0.05 1.75 -2 1.75 -1.95 0 -2 -0.05 -2 -1.75z"/>
  <path d="M33.50 13 c0 -2.75 0.15 -3.50 0.75 -3.50 0.90 0 1.50 2.90 1.05 5.25 -0.20 1.05 -0.65 1.75 -1.05 1.75 -0.60 0 -0.75 -0.75 -0.75 -3.50z"/>
  <path d="M18 11 c0 -1.50 0.75 -2 3.05 -2 2.05 0 1.80 0.70 -0.80 2.15 l-2.25 1.30 0 -1.45z"/>
  <path d="M32 6.75 c0 -1 -0.25 -1.25 -1.25 -1.25 -0.75 0 -1.25 -0.30 -1.25 -0.70 0 -0.45 -0.60 -0.80 -1.60 -0.90 -1.25 -0.10 -1.70 -0.40 -1.80 -1.25 -0.20 -1.50 0.70 -1.45 3.55 0.15 2.25 1.25 4.85 3.80 4.85 4.75 0 0.25 -0.55 0.45 -1.25 0.45 -1 0 -1.25 -0.25 -1.25 -1.25z"/>
  <path d="M21.50 2 c0 -1.05 0.50 -1.20 2.40 -0.70 1.80 0.50 1.35 1.70 -0.65 1.70 -1.40 0 -1.75 -0.20 -1.75 -1z"/>
 </g>
 <g fill="#615943">
  <path d="M27 37.75 c0 -2.20 0.45 -2.20 1.90 0 l1.10 1.75 -1.50 0 c-1.40 0 -1.50 -0.15 -1.50 -1.75z"/>
  <path d="M15 36.70 c-0.30 -0.70 -0.50 -1.55 -0.50 -1.85 0 -0.35 -0.35 -1.10 -0.75 -1.70 -0.40 -0.55 -0.95 -1.60 -1.20 -2.25 l-0.45 -1.20 4.45 -0.05 c3.50 0 4.45 0.10 4.45 0.65 0 0.40 0.35 0.70 0.75 0.70 0.50 0 0.75 0.55 0.75 1.75 0 1.50 0.20 1.75 1.15 1.75 1.05 0.05 1.05 0.05 -0.30 1.25 -1.80 1.60 -2.35 1.55 -2.35 0 0 -0.70 -0.30 -1.25 -0.60 -1.25 -1 0.05 -2.90 1.80 -2.90 2.70 0 1.35 -1.95 0.95 -2.50 -0.50z m3.50 -1.70 c0 -0.95 -2.50 -4.50 -3.15 -4.50 -1.25 0 -1.25 0.55 0 2.80 0.80 1.40 1.60 2.20 2.20 2.20 0.50 0 0.95 -0.25 0.95 -0.50z"/>
  <path d="M16.05 33.55 c-0.70 -1.25 -0.70 -2.20 -0.05 -1.80 0.85 0.55 1.55 2.15 1.05 2.50 -0.30 0.15 -0.75 -0.15 -1 -0.70z"/>
  <path d="M22.50 37.60 c0 -0.25 0.45 -0.85 1 -1.35 1 -0.90 1 -0.85 1 0.40 0 1 -0.25 1.35 -1 1.35 -0.55 0 -1 -0.20 -1 -0.40z"/>
  <path d="M25.35 34.15 c-0.20 -0.15 -0.35 -0.95 -0.35 -1.75 0 -1.05 0.25 -1.40 1 -1.40 0.55 0 1 -0.20 1 -0.50 0 -0.25 -0.35 -0.50 -0.75 -0.50 -1.05 0 -1 -3.20 0.10 -4.50 0.55 -0.65 1.50 -1 2.55 -1 1.55 0 1.65 0.10 1.05 0.90 -0.35 0.45 -0.05 0.30 0.70 -0.35 1.45 -1.30 1.90 -2.10 0.50 -1 -0.75 0.65 -0.80 0.50 -0.50 -1.70 0.45 -3.40 1.10 -4.35 2.85 -4.35 1.30 0 1.50 0.20 1.50 1.45 0 2.40 -1.95 6.15 -4.30 8.35 -2 1.85 -2.20 2.25 -2.20 4.35 0 2.25 -0.05 2.35 -1.40 2.35 -0.80 0 -1.60 -0.15 -1.75 -0.35z"/>
  <path d="M14.50 23.35 c0 -1.60 -0.05 -1.60 -2 -1.45 -1.25 0.15 -2 0 -2 -0.35 0 -0.30 -0.45 -0.55 -1 -0.55 -1.05 0 -1.45 -1.65 -0.50 -2.25 0.25 -0.15 0.50 -0.10 0.50 0.20 0 0.80 2.05 1.70 2.55 1.20 0.75 -0.75 -0.20 -2.65 -1.55 -3.30 -0.70 -0.35 -1.30 -1 -1.40 -1.45 -0.15 -0.65 0.10 -0.75 1.55 -0.40 l1.70 0.35 -0.70 -1.40 c-0.60 -1.20 -0.85 -1.35 -1.95 -0.95 -1 0.40 -1.20 0.35 -1.20 -0.45 0 -1.05 0.95 -1.55 3 -1.55 1.15 0 1.50 0.25 1.75 1.50 0.40 1.75 0.80 1.90 1.65 0.50 0.40 -0.65 1.15 -1 2.15 -1 l1.55 0 -1.35 1.80 c-1.05 1.35 -1.25 1.90 -0.75 2.20 0.35 0.20 0.80 1.25 1 2.30 l0.40 1.95 0.05 -1.75 c0.10 -2.55 2.40 -5 4.75 -5 2.25 0 2.45 1.25 0.35 1.75 -0.80 0.15 -1.85 0.75 -2.35 1.30 -0.90 1.05 -1.45 4.95 -0.65 4.95 0.25 0 0.45 -0.20 0.45 -0.50 0 -0.40 2.55 -2 3.25 -2 0.15 0 0.25 0.55 0.25 1.20 0 1 -0.30 1.25 -2.25 1.50 -1.25 0.20 -2.25 0.60 -2.25 0.90 0 0.30 -0.30 0.25 -0.80 -0.10 -0.40 -0.40 -0.70 -0.45 -0.65 -0.20 0.05 0.25 0.05 0.95 0 1.60 -0.05 0.90 -0.35 1.10 -1.80 1.10 -1.65 0 -1.75 -0.10 -1.75 -1.65z m1.30 -0.70 c-0.55 -0.55 -0.95 0.30 -0.55 1.20 0.40 0.85 0.40 0.85 0.60 0 0.15 -0.50 0.10 -1.05 -0.05 -1.20z m0.20 -2.35 c0 -0.90 -1.45 -4.25 -1.50 -3.35 0 0.50 -0.15 0.55 -0.70 0.10 -0.60 -0.50 -0.65 -0.40 -0.45 0.40 0.15 0.60 0.45 1.05 0.70 1.05 0.25 0 0.45 0.55 0.45 1.25 0 0.80 0.30 1.25 0.75 1.25 0.40 0 0.75 -0.30 0.75 -0.70z"/>
  <path d="M24.50 19.20 c0 -0.15 0.55 -0.75 1.25 -1.30 1.10 -0.85 1.20 -1.15 0.65 -1.80 -0.55 -0.65 -0.50 -0.75 0.25 -0.45 0.50 0.20 1.05 0.35 1.15 0.35 0.10 0 0.20 0.80 0.20 1.75 0 1.65 -0.10 1.75 -1.75 1.75 -0.95 0 -1.75 -0.15 -1.75 -0.30z"/>
  <path d="M20 18.65 c0.05 -0.90 1.60 -2.35 2.60 -2.45 1.55 -0.15 2.90 0.25 2.90 0.85 0 0.30 -0.80 0.85 -1.75 1.25 -1.85 0.75 -3.75 0.95 -3.75 0.35z"/>
  <path d="M28.50 15.75 c0 -1.70 0.05 -1.75 2 -1.75 1.95 0 2 0.05 2 1.75 0 1.70 -0.05 1.75 -2 1.75 -1.95 0 -2 -0.05 -2 -1.75z"/>
  <path d="M27.90 10.95 c-0.50 -0.30 -0.90 -0.85 -0.90 -1.20 0 -0.40 -0.20 -0.75 -0.45 -0.75 -0.25 0 -0.90 -0.15 -1.40 -0.30 -0.75 -0.25 -0.75 -0.20 -0.15 0.25 0.80 0.55 0.90 0.55 -2.85 1.40 -2.05 0.50 -2.15 0.45 -2.15 -0.65 0 -0.85 0.30 -1.20 1 -1.20 0.60 0 1 -0.35 1 -0.80 0 -0.70 0.50 -0.80 3.25 -0.60 1.75 0.10 3.35 0.35 3.50 0.50 0.20 0.15 0.25 1.10 0.15 2.05 -0.15 1.55 -0.25 1.70 -1 1.30z"/>
  <path d="M9 9.60 c0 -1.05 2 -3.90 3.45 -4.95 1 -0.65 1.05 -0.60 1.05 0.85 0 1.15 -0.25 1.65 -0.95 1.85 -0.55 0.15 -1.05 0.85 -1.25 1.70 -0.30 1.65 -2.30 2.15 -2.30 0.55z"/>
  <path d="M33 8.25 c0 -1.95 0.70 -2.30 1.50 -0.80 0.80 1.55 0.60 2.55 -0.50 2.55 -0.80 0 -1 -0.35 -1 -1.75z"/>
  <path d="M27.50 3.25 c0 -1.20 0.05 -1.25 1.60 -0.60 2.30 0.95 2.40 1.85 0.20 1.85 -1.60 0 -1.80 -0.15 -1.80 -1.25z"/>
  <path d="M23.25 3.50 c-0.15 -0.25 -0.75 -0.50 -1.30 -0.50 -0.65 0 -0.95 -0.35 -0.95 -1.05 0 -0.95 0.20 -1.05 1.55 -0.75 0.85 0.15 2.20 0.30 3 0.30 1.20 0 1.45 0.20 1.45 1.25 0 1.10 -0.20 1.25 -1.70 1.25 -0.95 0 -1.90 -0.20 -2.05 -0.50z"/>
  <path d="M16.10 2.90 c0.15 -0.35 0.95 -0.90 1.80 -1.25 1.55 -0.65 1.60 -0.60 1.60 0.60 0 1.10 -0.20 1.25 -1.80 1.25 -1.15 0 -1.70 -0.20 -1.60 -0.60z"/>
 </g>
 <g fill="#777654">
  <path d="M22.50 38.65 c0 -0.95 0.75 -2.15 2.40 -3.90 2 -2.15 2.05 -2.25 0.35 -0.70 -1.10 1 -2.75 2.30 -3.60 2.90 -1.35 0.90 -1.65 1 -1.65 0.35 0 -0.45 -0.45 -0.80 -1 -0.80 -0.60 0 -1 0.35 -1 0.80 0 1.25 -2.10 0.65 -2.85 -0.80 -1.60 -3.30 -3.15 -7 -3.15 -7.70 0 -0.40 -0.80 -2.10 -1.75 -3.75 -2.40 -4.10 -2.40 -6.80 0.05 -5.20 0.65 0.40 1.55 0.65 1.95 0.45 0.70 -0.25 0.70 -0.45 0.05 -1.70 -0.40 -0.75 -1.30 -1.65 -2 -2 -1.65 -0.75 -1.65 -1.60 0 -1.60 1.30 0 3.15 1.70 3.20 2.90 0 0.55 1 0.90 1 0.35 0 -0.15 -0.65 -1.20 -1.50 -2.35 -0.80 -1.10 -1.50 -2.35 -1.50 -2.70 0 -0.50 -0.45 -0.60 -1.55 -0.35 l-1.60 0.30 0.35 -1.95 c0.55 -2.70 1.45 -4.25 3.75 -6.35 2.40 -2.15 3.05 -2.30 3.05 -0.60 0 1.10 -0.20 1.25 -1.75 1.25 -1.60 0 -1.75 0.10 -1.75 1.55 0 0.85 -0.25 1.95 -0.50 2.50 -0.40 0.75 -0.35 0.95 0.25 0.95 0.45 0 0.75 0.45 0.75 1.25 0 0.80 0.30 1.25 0.75 1.25 0.40 0 0.75 0.25 0.75 0.55 0 0.30 0.70 1.20 1.55 1.95 1 0.85 1.70 2.05 1.95 3.30 l0.40 1.95 0.05 -1.70 c0.05 -2.10 1.80 -5 3.40 -5.60 1.70 -0.65 2.65 -0.55 2.65 0.20 0 0.40 0.80 0.60 2.25 0.60 1.25 0 2.25 -0.15 2.25 -0.35 0 -0.25 0.80 -0.40 1.75 -0.40 0.95 0 1.75 0.25 1.75 0.50 0 0.30 0.35 0.50 0.75 0.50 0.50 0 0.75 0.55 0.75 1.75 l0 1.75 -2.50 0 c-1.35 0 -2.50 0.25 -2.50 0.50 0 0.30 -0.45 0.50 -1 0.50 -0.55 0 -1 0.35 -1 0.75 0 0.50 -0.70 0.85 -2 1.05 -1.20 0.20 -2 0.60 -2 1 0 0.40 -0.20 0.70 -0.50 0.70 -0.25 0 -0.50 0.65 -0.50 1.45 0 1.40 0 1.40 -4.05 1.75 l-4.05 0.40 0.30 1.50 c0.15 0.85 0.30 1.70 0.30 1.95 0 0.25 0.45 0.45 0.95 0.45 0.55 0 1.15 0.25 1.30 0.50 0.50 0.75 1.75 0.60 1.75 -0.25 0 -0.50 0.55 -0.75 1.75 -0.75 1.20 0 1.75 0.25 1.75 0.75 0 0.40 0.35 0.75 0.75 0.75 0.40 0 0.75 -0.40 0.75 -0.85 0 -0.90 2.05 -3.65 2.70 -3.65 0.50 0 1.80 -1.35 1.80 -1.80 0 -0.65 2.65 -3.20 3.30 -3.20 0.30 0 0.70 -0.65 0.90 -1.50 0.25 -1.25 0.50 -1.50 1.80 -1.50 1.25 0 1.50 0.20 1.50 1.20 0 2.95 -2 6 -6.45 9.75 -0.65 0.60 -0.90 1.05 -0.55 1.05 0.50 0 0.55 0.80 0.40 3.20 -0.20 2.35 -0.10 3.55 0.45 4.25 0.65 1 0.60 1.05 -0.80 1.05 -1.40 0 -1.55 -0.15 -1.55 -1.55 0 -1.95 -0.85 -1.45 -1.30 0.80 -0.25 1.40 -0.55 1.75 -1.50 1.75 -0.95 0 -1.20 -0.25 -1.20 -1.35z m-4 -3.65 c0 -0.85 -1.35 -3.25 -2.20 -3.95 -0.45 -0.35 -1.10 -0.55 -1.50 -0.40 -1.10 0.45 1.40 4.85 2.75 4.85 0.50 0 0.95 -0.25 0.95 -0.50z m3 -0.80 c0 -0.45 -0.55 -1.45 -1.25 -2.30 -1.35 -1.55 -1.70 -1.30 -0.50 0.30 0.40 0.55 0.75 1.40 0.75 1.90 0 0.50 0.25 0.90 0.50 0.90 0.30 0 0.50 -0.35 0.50 -0.80z m11.65 -12.75 c1.05 -2.65 0.55 -2.50 -0.60 0.25 -0.55 1.25 -1.90 2.95 -3.25 4.05 -1.25 1 -2.30 2.10 -2.30 2.35 0 1.05 5.40 -4.80 6.15 -6.65z m-20.10 2.15 c-0.30 -0.10 -0.55 -0.50 -0.55 -0.90 0 -0.40 -0.35 -0.70 -0.75 -0.70 -0.40 0 -0.75 0.25 -0.75 0.50 0 0.30 0.20 0.50 0.40 0.50 0.25 0 0.75 0.60 1.10 1.40 0.60 1.20 0.70 1.25 0.90 0.35 0.10 -0.50 -0.05 -1.05 -0.35 -1.15z m3.45 -0.70 c0 -0.25 -0.35 -0.40 -0.75 -0.40 -0.75 0 -1 1.05 -0.40 1.65 0.35 0.35 1.15 -0.55 1.15 -1.25z m4 -1.90 c0 -0.25 1.30 -1.05 2.90 -1.80 3.35 -1.55 3.85 -2.10 2.75 -3.30 -0.80 -0.90 -2.70 -1.10 -4.30 -0.50 -1.45 0.60 -2.70 2.95 -2.45 4.60 0.20 1.35 1.10 2.20 1.10 1z"/>
  <path d="M20 18.55 c0 -0.25 0.80 -0.95 1.75 -1.55 1.85 -1.15 3.90 -1 3.45 0.25 -0.50 1.20 -5.20 2.40 -5.20 1.30z"/>
  <path d="M19.50 9.80 c0 -1.05 0.25 -1.30 1.20 -1.30 0.70 0 1.40 -0.20 1.55 -0.50 0.15 -0.25 1.10 -0.50 2.05 -0.50 0.95 0 1.70 0.25 1.70 0.50 0 0.30 -0.60 0.50 -1.35 0.50 -1.05 0 -1.20 0.15 -0.65 0.50 0.80 0.50 0.65 0.60 -1.75 1.15 -0.55 0.15 -1.40 0.40 -1.85 0.60 -0.75 0.30 -0.90 0.10 -0.90 -0.95z"/>
  <path d="M32.50 8.45 c0 -0.30 -0.55 -1 -1.25 -1.55 -0.70 -0.55 -1.25 -1.30 -1.25 -1.70 0 -0.50 -0.75 -0.70 -2.95 -0.70 -2.15 0 -3 -0.20 -3.25 -0.75 -0.20 -0.55 -1 -0.75 -2.80 -0.75 -2.20 0 -2.55 -0.15 -2.40 -0.85 0.15 -0.75 0.70 -0.90 2.80 -0.85 1.45 0.05 3 0.40 3.45 0.75 0.60 0.50 0.75 0.50 0.45 0.10 -1.25 -2.15 6.20 1.25 7.95 3.60 1.80 2.45 1.90 3.25 0.50 3.25 -0.70 0 -1.25 -0.25 -1.25 -0.55z"/>
 </g>
 <g fill="#8c8f60">
  <path d="M23.30 39.25 c0.20 -0.40 0.05 -1.10 -0.25 -1.45 -0.45 -0.55 -0.45 -0.80 0.05 -1.15 0.35 -0.25 1.55 -1.40 2.65 -2.65 2.20 -2.40 1.25 -1.90 -2.20 1.20 -1.55 1.40 -2.30 1.80 -2.45 1.30 -0.15 -0.35 0.20 -1 0.70 -1.40 0.65 -0.50 0.75 -0.80 0.35 -0.95 -0.70 -0.25 -0.90 -3.65 -0.25 -3.65 0.20 0 0.60 -0.65 0.90 -1.40 0.45 -1.10 1.10 -1.60 2.90 -2.15 1.50 -0.45 2.30 -0.95 2.30 -1.45 0 -0.45 0.55 -1.35 1.25 -2 0.70 -0.65 1.25 -1.60 1.25 -2.10 0 -0.50 0.35 -0.90 0.75 -0.90 0.40 0 0.75 -0.45 0.75 -1 0 -0.80 -0.35 -1 -1.50 -1 -1.15 0 -1.50 -0.20 -1.50 -1 0 -0.55 -0.20 -1 -0.50 -1 -0.25 0 -0.50 -0.75 -0.50 -1.70 0 -1.80 0.60 -2.30 2.80 -2.30 0.95 0 1.20 0.25 1.20 1.25 0 0.90 0.25 1.25 1 1.25 0.75 0 1 0.35 1 1.25 0 0.70 0.25 1.25 0.50 1.25 0.30 0 0.50 0.80 0.50 1.75 0 0.95 -0.20 1.75 -0.45 1.75 -0.25 0 -0.55 0.85 -0.70 1.90 -0.25 1.40 -0.95 2.50 -2.75 4.25 -2.10 2 -2.50 2.65 -2.80 4.85 -0.25 2.05 -0.50 2.50 -1.30 2.50 -0.80 0 -1 0.35 -1 1.50 0 0.85 -0.20 1.50 -0.50 1.50 -0.25 0 -0.60 0.55 -0.80 1.25 -0.15 0.70 -0.60 1.25 -1 1.25 -0.40 0 -0.55 -0.30 -0.40 -0.75z m2.70 -9.85 c0 -0.30 -0.35 -0.25 -0.75 0.10 -0.40 0.35 -0.75 0.85 -0.75 1.10 0 0.30 0.35 0.25 0.75 -0.10 0.40 -0.35 0.75 -0.85 0.75 -1.10z m3.85 -3.50 c2.50 -2.60 4.50 -5.75 3.95 -6.25 -0.15 -0.15 -0.55 0.35 -0.85 1.15 -0.35 0.80 -2 2.85 -3.65 4.60 -1.65 1.70 -2.80 3.10 -2.50 3.10 0.25 0 1.65 -1.20 3.05 -2.60z m2.10 -9.55 c-0.10 -0.05 -0.60 -0.45 -1.05 -0.80 -0.75 -0.60 -0.90 -0.55 -0.90 0.15 0 0.50 0.40 0.80 1.10 0.80 0.60 0 0.95 -0.05 0.85 -0.15z"/>
  <path d="M28 38.65 c0 -1.25 0 -1.30 1 -0.40 0.55 0.50 1 1.10 1 1.35 0 0.20 -0.45 0.40 -1 0.40 -0.75 0 -1 -0.35 -1 -1.35z"/>
  <path d="M15 36 c-0.30 -0.55 -0.40 -1 -0.20 -1 0.15 0 0.05 -0.35 -0.30 -0.75 -0.50 -0.60 -0.50 -0.75 0 -0.75 0.85 0 1.95 1.50 2 2.65 0 1.15 -0.85 1.10 -1.50 -0.15z"/>
  <path d="M17 36.30 c0 -0.35 0.45 -0.80 1 -0.95 l1.05 -0.25 -1.05 -1.70 c-0.55 -0.90 -1 -2.50 -1 -3.50 0 -1.85 0.05 -1.90 1.70 -1.90 l1.70 0 0 4.50 0 4.50 -1.70 0 c-1.10 0 -1.70 -0.25 -1.70 -0.70z"/>
  <path d="M12.70 30.75 c-0.95 -2.35 -0.90 -3.25 0.30 -3.25 0.55 0 1 0.35 1 0.75 0 0.40 0.45 0.75 1 0.75 1.35 0 1.30 1.30 -0.05 1.65 -0.75 0.20 -1 0.55 -0.80 1.05 0.65 1.65 -0.75 0.75 -1.45 -0.95z"/>
  <path d="M14.50 25 c0 -0.65 -0.35 -1 -1 -1 -0.80 0 -1 -0.35 -1 -1.75 0 -1.20 0.25 -1.75 0.75 -1.75 0.40 0 0.75 0.40 0.80 0.90 0 0.65 0.10 0.70 0.30 0.10 0.15 -0.40 0.55 -0.95 0.85 -1.15 0.40 -0.30 0.35 -0.50 -0.05 -0.70 -0.35 -0.10 -0.65 -0.65 -0.65 -1.20 0 -0.55 -0.45 -1.45 -1 -2.05 -0.50 -0.55 -1.30 -1.80 -1.75 -2.75 -0.45 -0.90 -1 -1.55 -1.25 -1.40 -0.20 0.15 -0.75 0.15 -1.15 -0.05 -0.60 -0.20 -0.65 -0.60 -0.20 -2 0.55 -1.85 1.85 -2.35 1.85 -0.70 0 0.65 0.35 1 1 1 0.75 0 1 0.35 1 1.30 0 1.50 0.80 3.20 1.55 3.20 1.30 0 2.60 2.05 2.85 4.45 0.15 1.70 0.60 2.95 1.40 3.80 1.10 1.20 1.10 1.25 0.20 1.25 -0.55 0 -1 0.35 -1 0.75 0 0.50 -0.55 0.75 -1.75 0.75 -1.40 0 -1.75 -0.20 -1.75 -1z m1.90 -1.65 c0.10 -0.50 -0.15 -0.85 -0.60 -0.85 -0.50 0 -0.80 0.45 -0.80 1.05 0 1.20 1.15 1.05 1.40 -0.20z"/>
  <path d="M9.85 24.05 c-1.10 -1.90 -1.10 -2.05 0.40 -2.05 1.10 0 1.25 0.20 1.25 1.75 0 2.15 -0.50 2.20 -1.65 0.30z"/>
  <path d="M18.85 22.60 c-0.85 -0.95 -1.10 -2.95 -0.55 -4.90 0.30 -1.10 3.50 -3.20 4.90 -3.20 0.45 0 0.80 -0.20 0.80 -0.50 0 -0.25 0.80 -0.50 1.75 -0.50 l1.75 0 0 3.25 0 3.25 -1.60 0 c-3 0 -3.90 0.50 -3.90 2.05 0 1.20 -0.20 1.45 -1.15 1.45 -0.65 0 -1.55 -0.40 -2 -0.90z m4.15 -3.10 c3.90 -1.55 4.95 -2.95 3.05 -4 -3.45 -1.85 -7.05 0.85 -6.65 5 0.20 1.70 0.20 1.75 1 0.75 0.50 -0.60 1.65 -1.35 2.60 -1.75z"/>
  <path d="M20.50 18.50 c0 -0.75 3 -2.45 3.80 -2.15 1.20 0.45 0.80 1.15 -1.05 1.95 -2.05 0.85 -2.75 0.90 -2.75 0.20z"/>
  <path d="M9 20.25 c0 -1.30 0 -1.30 1.25 -0.40 1.55 1.15 1.55 1.65 0 1.65 -1 0 -1.25 -0.25 -1.25 -1.25z"/>
  <path d="M12.60 18.90 c-0.35 -0.35 -0.60 -0.90 -0.60 -1.25 0 -0.40 -0.60 -0.90 -1.30 -1.15 -1.35 -0.55 -1.20 -1.50 0.25 -1.50 0.50 0 1.15 0.60 1.50 1.40 0.40 0.75 0.85 1.75 1.10 2.25 0.50 1 -0.05 1.15 -0.95 0.25z"/>
  <path d="M18.50 10.55 c0 -1.40 0.15 -1.55 1.50 -1.55 0.85 0 1.50 -0.20 1.50 -0.50 0 -0.25 0.85 -0.50 1.90 -0.45 1.25 0 1.55 0.15 0.95 0.40 -0.50 0.20 -0.90 0.55 -0.85 0.80 0 0.30 -0.45 0.60 -1.10 0.70 -0.60 0.05 -1.75 0.60 -2.50 1.15 l-1.40 0.95 0 -1.50z"/>
  <path d="M31.50 10.25 c0 -1.65 0.10 -1.75 1.75 -1.75 1.65 0 1.75 0.10 1.75 1.75 0 1.65 -0.10 1.75 -1.75 1.75 -1.65 0 -1.75 -0.10 -1.75 -1.75z"/>
  <path d="M12.05 5.20 c1.50 -1.60 7.10 -4.30 8.15 -3.90 1.25 0.50 0.95 1.70 -0.45 1.70 -0.70 0 -1.25 0.20 -1.25 0.45 0 0.25 -0.75 0.70 -1.60 1.10 -0.90 0.35 -1.85 0.95 -2.05 1.30 -0.20 0.35 -1.20 0.65 -2.20 0.65 l-1.80 0 1.20 -1.30z"/>
  <path d="M27.40 4.65 c-0.80 -0.10 -1.40 -0.45 -1.40 -0.70 0 -0.25 -0.45 -0.45 -1 -0.45 -0.70 0 -1 -0.35 -1 -1.10 0 -1.05 0 -1.05 1.10 -0.10 0.95 0.85 1.05 0.85 0.75 0.10 -0.40 -1.10 0.60 -1.20 1.95 -0.15 0.50 0.40 1.30 0.75 1.75 0.75 0.45 0 1.20 0.45 1.70 1 0.90 1 0.85 1 -0.80 0.95 -0.95 -0.05 -2.30 -0.20 -3.05 -0.30z"/>
 </g>
 <g fill="#9f9d6d">
  <path d="M15.80 37.20 c-0.45 -0.40 -0.80 -1.10 -0.80 -1.45 0 -0.40 -0.45 -1.45 -0.95 -2.35 -0.55 -0.90 -1.25 -2.65 -1.60 -3.90 -0.35 -1.25 -0.85 -2.55 -1.10 -2.85 -0.35 -0.50 -0.10 -0.65 1.10 -0.65 1.50 0 1.55 0.10 1.55 2 0 1.25 0.25 2 0.65 2 0.40 0 0.35 0.15 -0.15 0.50 -0.65 0.40 -0.60 0.65 0.20 2.10 1.75 3.05 2.30 3.40 4.95 3.40 2.45 0 2.50 0 1.60 1 -1.10 1.25 -4.30 1.35 -5.45 0.20z"/>
  <path d="M24.05 36.15 c0.35 -0.50 1.30 -1.65 2.15 -2.50 2 -2.20 1.30 -2.10 -1.20 0.15 -1.10 1 -2 1.60 -2 1.30 0 -0.30 -1 -0.70 -2.25 -0.90 -2.70 -0.40 -3.65 -1.45 -3.35 -3.90 0.20 -1.65 0.35 -1.80 1.90 -1.80 1.35 0 1.70 0.20 1.70 0.95 0 1.25 0.80 1.80 1.20 0.80 0.15 -0.40 0.75 -0.75 1.30 -0.75 0.75 0 1 -0.35 1 -1.25 0 -0.70 0.20 -1.25 0.45 -1.25 0.25 0 0.55 -0.45 0.70 -1 0.20 -0.75 0.70 -1 2.10 -1 l1.85 0 -1.65 1.95 c-0.95 1.10 -1.95 2 -2.30 2 -0.65 0.05 -1.95 2.05 -1.30 2.05 0.20 0 1.75 -1.25 3.35 -2.75 2.15 -2.05 3.05 -2.60 3.35 -2.15 0.25 0.40 -0.15 1.20 -1.15 2.25 -0.85 0.90 -1.60 2.20 -1.65 3 -0.15 2.45 -0.25 2.65 -1 2.65 -0.50 0 -0.75 0.50 -0.75 1.50 0 1.35 -0.15 1.50 -1.55 1.50 -1.40 0 -1.50 -0.10 -0.90 -0.85z m-4.25 -5 c-0.70 -1 -1.30 -1.70 -1.30 -1.45 0 0.65 2.10 3.90 2.35 3.60 0.15 -0.10 -0.35 -1.10 -1.05 -2.15z"/>
  <path d="M20.50 25.20 c0 -0.45 -0.60 -1.50 -1.30 -2.35 -1.15 -1.35 -1.25 -1.80 -0.90 -4.05 0.40 -3 1.40 -4.55 3.40 -5.30 2.35 -0.85 3.80 -0.65 3.80 0.50 0 0.80 -0.35 1 -1.80 1 -2.25 0 -4.95 2.55 -4.50 4.20 0.15 0.60 0.30 1.45 0.30 1.95 0 1.10 0.85 1.10 1.20 -0.05 0.20 -0.50 1.15 -1.20 2.20 -1.55 1 -0.40 2.15 -0.80 2.50 -0.90 0.30 -0.15 0.60 -0.05 0.60 0.25 0 0.30 -0.65 0.65 -1.45 0.85 -1 0.20 -1.50 0.65 -1.70 1.55 -0.15 0.80 0 1.20 0.45 1.20 0.45 0 0.70 0.60 0.70 1.75 0 1.65 -0.10 1.75 -1.75 1.75 -1.25 0 -1.75 -0.20 -1.75 -0.80z"/>
  <path d="M12.65 25.15 c-0.70 -0.25 -0.90 -3.25 -0.30 -3.85 0.55 -0.55 0.65 -2.25 0.15 -2.55 -0.30 -0.15 -0.50 -0.75 -0.50 -1.30 0 -0.65 -0.35 -0.95 -1.05 -0.95 -1.05 0 -1.10 -1.05 -0.05 -1.40 0.70 -0.20 2.75 3.60 3.15 5.90 0.30 1.60 0.30 1.55 0.40 -0.75 0.10 -1.35 0.25 -2.20 0.40 -1.90 0.15 0.50 0.45 0.40 1.05 -0.20 0.80 -0.75 0.90 -0.65 1.40 1.80 0.35 1.40 0.85 2.90 1.20 3.30 0.50 0.65 0.40 0.75 -0.65 0.75 -0.85 0 -1.30 -0.35 -1.50 -1.05 -0.15 -0.60 -0.50 -0.90 -0.80 -0.70 -0.80 0.50 -0.65 2.25 0.20 2.25 0.40 0 0.75 0.25 0.75 0.50 0 0.50 -2.75 0.65 -3.85 0.15z"/>
  <path d="M9.60 23.50 c-0.30 -0.55 -0.60 -1.75 -0.60 -2.75 0 -1.70 0.05 -1.70 1 -0.90 0.65 0.60 1 1.50 1 2.75 0 2.10 -0.45 2.40 -1.40 0.90z"/>
  <path d="M32 24.25 c0 -0.70 1.60 -3.25 2 -3.25 0.65 0 0.65 0.65 -0.10 2.25 -0.50 1.05 -1.90 1.80 -1.90 1z"/>
  <path d="M31 22.40 c0 -0.90 0.25 -1.40 0.75 -1.40 0.95 0 0.95 0.55 0 1.80 -0.70 0.90 -0.70 0.90 -0.75 -0.40z"/>
  <path d="M22 17.50 c1.40 -1.10 2.30 -1.25 2.75 -0.50 0.35 0.55 -1.75 1.50 -3.15 1.50 -0.65 0 -0.55 -0.25 0.40 -1z"/>
  <path d="M29.50 17.75 c0 -0.40 -0.45 -0.75 -1 -0.75 -0.65 0 -1 -0.35 -1 -1 0 -0.55 -0.35 -1 -0.75 -1 -0.40 0 -0.75 -0.45 -0.75 -1 0 -0.80 0.35 -1 1.50 -1 1.75 0 2.05 -1.15 0.50 -2 -0.50 -0.30 -0.85 -0.80 -0.70 -1.20 0.15 -0.40 -0.20 -0.80 -0.90 -1 -1.70 -0.45 -3 -0.35 -2.70 0.15 0.15 0.25 -0.05 0.60 -0.50 0.75 -1.15 0.45 -1.20 0.40 -1.20 -0.90 0 -0.95 0.30 -1.20 1.90 -1.50 2.90 -0.45 4.10 -0.35 4.10 0.40 0 0.40 0.35 0.80 0.75 1 0.40 0.15 0.75 0.70 0.75 1.25 0 1.50 0.55 2.55 1.30 2.55 0.40 0 0.70 0.45 0.70 1 0 0.75 0.35 1 1.25 1 1.10 0 1.25 0.20 1.25 1.70 0 1.85 -0.60 2.30 -3.05 2.30 -0.95 0 -1.45 -0.25 -1.45 -0.75z m2.10 -1.75 c-0.55 -0.40 -1.10 -1.10 -1.20 -1.50 -0.10 -0.35 -0.35 -0.50 -0.50 -0.25 -0.55 0.90 0.45 2.55 1.55 2.55 1.05 0 1.05 -0.05 0.15 -0.80z"/>
  <path d="M13.05 15.65 c-1.80 -2.20 -2 -3.65 -0.55 -3.65 0.75 0 1 0.35 1 1.25 0 0.75 0.35 1.95 0.75 2.75 1.05 2 0.65 1.90 -1.20 -0.35z"/>
  <path d="M8.50 12.65 c0 -0.25 0.40 -1.50 0.90 -2.85 1.10 -3.05 2.10 -3.60 2.10 -1.10 0 1 -0.20 1.80 -0.50 1.80 -0.25 0 -0.35 0.30 -0.20 0.70 0.15 0.40 -0.15 0.95 -0.75 1.25 -1.15 0.65 -1.55 0.70 -1.55 0.20z"/>
  <path d="M31.50 10.75 c0 -1.20 0.25 -1.75 0.75 -1.75 0.40 0 0.75 -0.45 0.75 -1 0 -0.55 0.20 -1 0.50 -1 0.75 0 1.50 1.80 1.50 3.70 0 1.70 -0.10 1.80 -1.75 1.80 -1.65 0 -1.75 -0.10 -1.75 -1.75z"/>
  <path d="M23.10 3.75 c-0.40 -0.45 -1.55 -0.75 -2.85 -0.75 -1.65 0 -2.25 -0.20 -2.25 -0.75 0 -0.80 0.55 -0.90 3.95 -0.85 1.30 0.05 2.60 0.45 3.10 0.90 0.55 0.50 0.95 0.60 0.95 0.30 0 -0.35 0.35 -0.60 0.75 -0.60 0.40 0 0.75 0.25 0.75 0.50 0 0.30 0.35 0.50 0.75 0.50 1.35 0 0.75 0.85 -0.80 1.20 -2.40 0.45 -3.65 0.35 -4.35 -0.45z"/>
 </g>
 <g fill="#afaf75">
  <path d="M28.50 39.50 c0 -0.25 -0.55 -0.50 -1.25 -0.50 -1 0 -1.25 -0.25 -1.25 -1.25 0 -0.70 -0.20 -1.25 -0.50 -1.25 -0.25 0 -0.50 0.70 -0.50 1.50 0 1.80 -1.25 2.05 -1.65 0.40 -0.25 -0.85 0.30 -1.85 2.30 -4.15 2.45 -2.85 2.20 -3 -0.75 -0.30 l-1.40 1.25 0 -1.50 c0 -1.20 0.75 -2.15 4.20 -5.40 2.60 -2.35 4.65 -4.75 5.25 -6.10 1.20 -2.50 1.40 -4.15 0.25 -2.05 -0.95 1.80 -1.70 1.70 -1.70 -0.15 0 -1 -0.25 -1.50 -0.75 -1.50 -0.40 0 -0.75 -0.20 -0.75 -0.50 0 -0.25 -0.65 -0.50 -1.45 -0.50 -1.10 0 -1.50 -0.30 -1.75 -1.25 -0.30 -1.10 -0.55 -1.25 -2.75 -1.25 -2.10 0 -2.65 0.20 -3.70 1.50 -0.70 0.85 -1.40 1.50 -1.55 1.50 -0.70 0 -0.20 -1.55 0.85 -2.65 1.50 -1.65 4.65 -2.45 8.05 -2.05 2.40 0.30 2.65 0.40 2 1.05 -0.80 0.80 -0.95 1.35 -0.25 0.95 0.25 -0.15 0.55 0.15 0.70 0.70 0.15 0.60 0.65 0.90 1.30 0.85 1.15 -0.05 1.45 -0.85 0.35 -0.85 -0.40 0 -0.90 -0.20 -1.05 -0.50 -0.20 -0.30 0.35 -0.50 1.20 -0.50 1.40 0 1.55 0.15 1.55 1.50 0 1 0.25 1.50 0.75 1.50 0.45 0 0.75 0.50 0.75 1.30 0 1.85 -2 6.20 -2.85 6.20 -0.40 0 -0.60 0.20 -0.45 0.40 0.15 0.20 -0.60 1.20 -1.65 2.20 -1.80 1.75 -1.85 2 -1.95 5.60 -0.10 2.15 0.10 3.85 0.40 4.05 0.25 0.15 0.75 0.75 1 1.30 0.45 0.75 0.35 0.95 -0.25 0.95 -0.40 0 -0.75 -0.20 -0.75 -0.50z"/>
  <path d="M16.40 37.65 c-0.50 -0.10 -0.90 -0.50 -0.90 -0.80 0 -0.35 -0.70 -2.05 -1.50 -3.75 -2.15 -4.60 -2.20 -4.55 2.40 -4.25 2.10 0.15 3.95 0.50 4 0.70 0.10 0.25 0.50 0.45 0.90 0.45 0.50 0 0.70 0.70 0.70 2.50 0 2.30 -0.10 2.50 -1.20 2.50 -0.95 0 -1.25 0.30 -1.40 1.40 -0.15 1.40 -1.10 1.80 -3 1.25z m2.60 -2.55 c0 -1.05 -3.10 -4.60 -4 -4.60 -1.30 0 -1.25 0.60 0.25 3 0.90 1.45 1.60 2 2.50 2 0.70 0 1.25 -0.20 1.25 -0.40z m0.95 -3.80 c-1.05 -1.75 -1.45 -2.20 -1.45 -1.40 0 0.60 2.05 3.70 2.30 3.45 0.15 -0.10 -0.25 -1.05 -0.85 -2.05z"/>
  <path d="M22.50 30.25 c0 -1.65 0.10 -1.75 1.75 -1.75 1.20 0 1.75 -0.25 1.75 -0.75 0 -1 1.80 -2.75 2.85 -2.75 0.60 0 0.05 0.80 -1.65 2.40 -1.40 1.30 -2.80 2.85 -3.15 3.50 -0.85 1.60 -1.55 1.35 -1.55 -0.65z"/>
  <path d="M11.65 26.80 c-1.35 -1.70 -1.45 -2.30 -0.40 -2.30 0.45 0 0.75 -0.45 0.75 -1.25 0 -1.05 -0.25 -1.25 -1.50 -1.25 -1.25 0 -1.50 -0.20 -1.50 -1.20 0 -1.15 0.10 -1.20 1.50 -0.65 2 0.75 2.85 0 2 -1.70 l-0.60 -1.20 1.10 1.15 c0.85 0.90 1.05 1.60 0.90 3.10 -0.15 1.85 0.65 3 2.10 3 0.90 0 0.55 -2.10 -0.40 -2.35 -0.70 -0.15 -0.90 -0.70 -0.90 -2.40 -0.05 -1.60 -0.35 -2.55 -1.35 -3.75 -0.75 -0.85 -1.50 -2.10 -1.65 -2.80 -0.35 -1.40 -0.25 -1.35 -1.90 -0.70 -1.55 0.55 -1.55 0.55 -0.15 -3.20 0.75 -1.95 1.65 -3.35 2.75 -4.20 l1.60 -1.25 0 1.60 c0 1.05 -0.25 1.55 -0.75 1.55 -0.40 0 -0.75 0.30 -0.75 0.70 0 0.40 -0.35 1.10 -0.80 1.50 -0.70 0.75 -0.70 0.80 0 0.80 0.60 0 0.80 0.50 0.80 1.75 0 1.40 0.20 1.75 1 1.75 0.80 0 1 0.35 1 1.50 0 1.15 0.20 1.50 1 1.50 0.75 0 1 0.35 1 1.25 0 0.70 0.30 2 0.65 2.90 0.35 0.90 0.55 2.55 0.45 3.75 -0.20 2 -0.25 2.10 -1.90 2.10 -0.95 0 -1.70 -0.20 -1.70 -0.50 0 -1.15 -0.95 -0.40 -1.10 0.85 l-0.15 1.40 -1.10 -1.45z"/>
  <path d="M20 25.50 c0 -0.25 -0.45 -0.50 -1 -0.50 -0.70 0 -1 -0.35 -1 -1.10 0 -0.85 0.15 -0.95 0.60 -0.50 1.15 1.15 1.45 0.60 0.45 -0.85 -1.10 -1.55 -1.40 -3.05 -0.55 -3.05 0.30 0 0.50 0.45 0.50 0.95 0 1.50 1.05 1.85 1.95 0.70 0.75 -0.95 2.60 -2.15 3.25 -2.15 0.15 0 0.30 0.55 0.30 1.20 0 1 -0.30 1.25 -1.60 1.45 l-1.65 0.20 1.65 0.05 c1.45 0.10 1.60 0.25 1.60 1.80 0 1.10 -0.30 1.80 -0.80 2 -1.25 0.50 -3.70 0.35 -3.70 -0.20z"/>
  <path d="M30.50 23.05 c0 -0.60 0.30 -1.05 0.75 -1.05 0.40 0 0.75 0.20 0.75 0.45 0 0.25 -0.35 0.70 -0.75 1.05 -0.65 0.50 -0.75 0.45 -0.75 -0.45z"/>
  <path d="M10 16.05 c0 -0.55 1.30 -1.10 1.70 -0.70 0.15 0.15 0.15 0.50 0 0.70 -0.35 0.60 -1.70 0.55 -1.70 0z"/>
  <path d="M16.50 12.80 c0 -0.80 -0.25 -1.30 -0.75 -1.30 -0.50 0 -0.75 -0.55 -0.75 -1.75 0 -1.65 0.10 -1.75 1.75 -1.75 1.45 0 1.75 0.20 1.80 1.15 0.05 0.75 0.15 0.85 0.30 0.30 0.20 -0.80 2.15 -1.45 4.45 -1.45 1.15 0 1.15 0.05 0.35 1 -0.50 0.55 -1.30 1 -1.75 1 -0.50 0 -1.95 0.95 -3.15 2.05 -2.25 2.05 -2.25 2.05 -2.25 0.75z"/>
  <path d="M31.65 12.25 c-0.35 -0.40 -0.65 -1.50 -0.65 -2.50 0 -1.65 0.10 -1.75 1.70 -1.75 1.90 0 2.30 0.60 2.30 3.30 0 1.55 -0.15 1.70 -1.35 1.70 -0.80 -0.05 -1.70 -0.35 -2 -0.75z"/>
  <path d="M14.60 4.90 c0.15 -1.50 0.30 -1.65 2.05 -1.80 1.80 -0.15 1.85 -0.15 1.85 1.60 0 1.75 -0.05 1.80 -2.05 1.80 -1.95 0 -2 -0.05 -1.85 -1.60z"/>
  <path d="M25.65 4.65 c-0.85 -0.15 -1.15 -0.55 -1.15 -1.55 0 -1 0.15 -1.15 0.45 -0.65 0.40 0.60 0.60 0.60 1.20 0.10 0.50 -0.40 0.85 -0.45 1.10 -0.05 0.15 0.25 0.85 0.50 1.55 0.50 0.85 0 1.20 0.25 1.20 1 0 0.80 -0.30 1 -1.60 0.95 -0.90 -0.05 -2.15 -0.20 -2.75 -0.30z"/>
  <path d="M20 2.30 c0 -0.80 1.25 -1.20 2.65 -0.90 1.60 0.40 0.95 1.60 -0.90 1.60 -1.20 0 -1.75 -0.25 -1.75 -0.70z"/>
 </g>
 <g fill="#bcb983">
  <path d="M23.40 38.65 c-0.15 -1.10 0.40 -2.10 2.25 -4.25 1.35 -1.60 2.30 -2.90 2.10 -2.90 -0.20 0 -1.85 1.40 -3.70 3.10 -2.95 2.80 -3.30 3 -3.45 2 -0.10 -0.60 -0.50 -1.10 -0.90 -1.10 -0.50 0 -0.70 -0.55 -0.70 -1.85 0.05 -1.70 0.10 -1.80 0.70 -1 0.85 1.10 1.45 1.10 1.10 -0.05 -0.35 -1.10 1.20 -3.10 2.40 -3.10 0.50 0 0.80 -0.40 0.80 -1.05 0 -1.10 1.10 -2.45 1.95 -2.45 0.30 0 0.55 -0.35 0.55 -0.75 0 -0.55 0.55 -0.75 1.90 -0.75 l1.85 0 -3.10 2.90 c-1.75 1.60 -3.15 3.15 -3.15 3.45 0 0.30 -0.35 0.80 -0.75 1.15 -0.45 0.35 -0.65 0.75 -0.55 0.85 0.10 0.15 0.65 -0.20 1.15 -0.70 3.15 -3 5.80 -5.15 6.05 -4.90 0.20 0.15 0.10 0.45 -0.15 0.65 -0.75 0.50 -1.80 2.60 -1.55 3 0.10 0.20 0 1.65 -0.25 3.30 -0.45 2.65 -0.40 3 0.55 3.65 1.60 1.15 1.25 2.15 -0.75 2.15 -1.70 0 -1.75 -0.05 -1.75 -2 0 -1.10 -0.20 -2 -0.45 -2 -0.25 0 -0.35 0.90 -0.20 2 0.25 1.75 0.15 2 -0.75 2 -0.75 0 -1.10 -0.35 -1.20 -1.35z"/>
  <path d="M15.40 36.15 c-0.30 -0.80 -1.10 -2.50 -1.75 -3.90 l-1.20 -2.50 1.10 -0.15 c1.30 -0.20 1.90 0.30 0.95 0.90 -0.60 0.35 -0.50 0.80 0.45 2.70 0.65 1.25 1.50 2.35 1.85 2.50 0.95 0.35 0.90 1.80 -0.05 1.80 -0.45 0 -1.05 -0.60 -1.35 -1.35z"/>
  <path d="M11.10 25.85 c-0.90 -1.45 -1.60 -2.80 -1.60 -3 0 -0.20 0.55 -0.35 1.25 -0.35 0.90 0 1.30 0.35 1.55 1.25 0.15 0.70 0.50 1.25 0.75 1.25 0.25 0 0.45 0.80 0.45 1.75 0 0.95 -0.20 1.75 -0.40 1.75 -0.20 0 -1.10 -1.20 -2 -2.65z"/>
  <path d="M19.15 26.15 c-0.65 -0.10 -1.15 -0.55 -1.15 -0.95 0 -0.40 -0.35 -0.85 -0.75 -1 -0.40 -0.20 -0.75 -0.60 -0.75 -1 0 -0.35 -0.30 -0.85 -0.65 -1.05 -0.85 -0.50 -1.40 -3.20 -0.85 -4.10 0.70 -1.20 2 -0.20 2 1.55 0 1.70 2.10 4.95 2.75 4.30 0.20 -0.20 -0.15 -0.85 -0.70 -1.50 -0.90 -0.95 -1.05 -1.50 -0.75 -3.40 0.30 -2.25 0.95 -3.45 1.50 -2.90 0.15 0.20 0.05 0.75 -0.25 1.30 -0.75 1.40 -0.15 4.50 0.90 4.55 0.45 0 1.55 0.15 2.45 0.35 1.45 0.30 1.60 0.45 1.60 2.25 l0 1.95 -2.10 -0.05 c-1.20 -0.05 -2.65 -0.20 -3.25 -0.30z"/>
  <path d="M33.40 21.25 c0.45 -1.20 0.95 -2 1.15 -1.70 0.50 0.80 -0.60 3.95 -1.35 3.95 -0.50 0 -0.45 -0.50 0.20 -2.25z"/>
  <path d="M31.35 22.65 c-0.20 -0.15 -0.35 -1.05 -0.35 -2 0 -1.45 0.15 -1.65 1.25 -1.65 1.25 0 1.25 0 0.50 1.85 -0.90 2.15 -1 2.25 -1.40 1.80z"/>
  <path d="M11 21.30 c0 -0.35 0.45 -0.80 1.05 -0.95 0.80 -0.20 0.95 -0.50 0.70 -1.40 -0.35 -1.10 -0.35 -1.10 0.45 -0.30 1.20 1.20 0.55 3.35 -1 3.35 -0.70 0 -1.20 -0.30 -1.20 -0.70z"/>
  <path d="M22 20.60 c0 -0.35 0.85 -0.90 3.15 -2 0.20 -0.10 0.35 0.40 0.35 1.10 0 1.15 -0.20 1.30 -1.75 1.30 -0.95 0 -1.75 -0.20 -1.75 -0.40z"/>
  <path d="M28.35 17.40 c-0.20 -0.70 0 -1.30 0.50 -1.65 0.75 -0.55 0.65 -0.60 -0.50 -0.60 -0.75 0 -1.35 0.20 -1.35 0.45 0 0.30 -0.35 0.25 -0.75 -0.10 -0.55 -0.45 -1.70 -0.55 -3.90 -0.30 l-3.10 0.30 1.05 -1 c0.75 -0.80 1.80 -1.05 4.70 -1.20 3.90 -0.15 4.95 -0.90 3.25 -2.30 -1.15 -0.95 -0.90 -1.50 0.75 -1.50 1.25 0 1.50 0.20 1.50 1.25 0 0.75 0.30 1.25 0.70 1.25 0.40 0 0.85 0.40 0.95 0.90 0.15 0.45 0.25 0.10 0.30 -0.85 0.05 -1.45 0.15 -1.60 0.80 -1.05 0.45 0.40 0.75 0.45 0.75 0.10 0 -0.30 -0.20 -0.70 -0.50 -0.85 -0.75 -0.45 -0.60 -2.75 0.20 -2.75 0.85 0 1.30 1.55 1.30 4.40 0 1.90 -0.10 2.10 -1.25 2.10 -0.70 0 -1.25 0.25 -1.25 0.50 0 0.30 0.45 0.50 1 0.50 0.80 0 1 0.35 1 1.75 l0 1.75 -2.95 0 c-2.60 0 -2.95 -0.15 -3.20 -1.10z m4.15 -0.85 c0 -0.25 -0.45 -0.55 -1 -0.70 -0.55 -0.15 -1 -0.60 -1 -1.05 0 -0.45 -0.20 -0.80 -0.50 -0.80 -0.60 0 -0.60 0.10 0 1.70 0.45 1.20 2.50 1.90 2.50 0.85z"/>
  <path d="M13.50 12.80 c0 -1 0.25 -1.80 0.50 -1.80 0.30 0 0.50 -0.55 0.50 -1.25 0 -0.70 -0.20 -1.25 -0.50 -1.25 -0.25 0 -0.50 -1 -0.50 -2.25 0 -2.20 0.05 -2.25 2.50 -3.50 3 -1.50 4 -1.60 4 -0.25 0 0.55 -0.35 1 -0.75 1 -0.40 0 -0.75 0.45 -0.75 1.05 0 0.55 -0.25 1.45 -0.50 2 -0.40 0.75 -0.35 0.95 0.25 0.95 0.40 0 0.75 0.45 0.75 1 0 0.55 0.25 1 0.50 1 0.30 0 0.50 -0.35 0.50 -0.75 0 -0.40 0.45 -0.75 1 -0.75 0.55 0 1 -0.35 1 -0.75 0 -0.55 0.60 -0.75 2.50 -0.75 2.30 0 2.50 0.10 2.50 1.15 0 1 -0.20 1.15 -1.50 0.95 -0.90 -0.15 -1.75 0.10 -2.25 0.60 -0.45 0.45 -1.20 0.80 -1.65 0.80 -0.50 0 -1.60 0.65 -2.50 1.45 -0.85 0.85 -1.60 1.25 -1.65 0.90 -0.05 -0.35 -0.20 -0.05 -0.40 0.65 -0.25 0.95 -0.70 1.30 -1.95 1.40 -1.55 0.15 -1.60 0.10 -1.60 -1.60z"/>
  <path d="M11.25 12.40 c-0.20 -0.70 -0.40 -0.90 -0.60 -0.50 -0.40 0.95 -1.75 0.75 -1.55 -0.25 0.10 -0.55 0.70 -0.95 1.55 -1.05 1.20 -0.15 1.35 0 1.35 1.35 0 1.85 -0.25 2 -0.75 0.45z"/>
  <path d="M26 4.50 c0 -0.25 -0.65 -0.50 -1.50 -0.50 -1.25 0 -1.50 -0.20 -1.50 -1.25 0 -1.40 0.60 -1.60 1.65 -0.55 0.40 0.40 1.15 0.75 1.65 0.75 2.90 0.05 3.95 0.35 4.10 1.20 0.15 0.70 -0.20 0.85 -2.10 0.85 -1.25 0 -2.30 -0.20 -2.30 -0.50z"/>
 </g>
 <g fill="#cbcc88">
  <path d="M23.65 38.40 c-0.10 -1.20 0.30 -2.05 1.70 -3.60 1 -1.15 2.05 -2.15 2.30 -2.25 0.20 -0.10 0.25 1.25 0.05 2.95 -0.25 2.45 -0.20 3.05 0.30 2.75 0.35 -0.20 0.80 -0.10 1.05 0.30 0.75 1.20 0.50 1.45 -1.25 1.45 -1.40 0 -1.75 -0.20 -1.95 -1.10 l-0.20 -1.15 -0.10 1.15 c-0.10 1.80 -1.80 1.45 -1.90 -0.50z"/>
  <path d="M16.95 37.65 c-0.85 -0.20 -4.45 -7.55 -4.45 -9.05 0 -0.50 -0.35 -1.40 -0.80 -2 -0.70 -1 -0.70 -1.10 0 -1.10 0.55 0 0.80 -0.50 0.80 -1.50 0 -0.80 0.25 -1.50 0.50 -1.50 0.30 0 0.50 0.30 0.50 0.65 0 1.15 2.15 1.70 3.40 0.90 0.90 -0.55 1.40 -0.60 2.10 -0.15 1.50 0.90 1.60 0 0.20 -1.45 -0.80 -0.85 -1.20 -1.70 -1.05 -2.15 0.50 -1.25 1.35 -0.95 1.35 0.45 0 1.40 0.70 1.65 1.35 0.50 0.50 -0.90 5.85 -3.60 6.60 -3.35 1.05 0.35 0.60 3.15 -0.70 4.20 -0.90 0.70 -1.25 1.45 -1.25 2.70 0 2 0.95 2.25 2.50 0.70 0.55 -0.55 1.25 -1 1.55 -1 0.30 0 -0.90 1.45 -2.65 3.15 -3.85 3.85 -4.45 4.65 -4.30 5.45 0.10 0.30 -0.25 0.70 -0.75 0.80 -0.50 0.10 -0.80 0 -0.75 -0.25 0.20 -0.55 -2.15 -4.25 -2.50 -3.95 -0.15 0.15 0.30 1.45 0.95 2.80 1.15 2.40 1.30 2.50 2.85 2.25 0.85 -0.15 1.60 -0.20 1.60 -0.05 0 0.10 -0.95 0.90 -2.10 1.75 -1.95 1.45 -3.05 1.75 -4.95 1.20z m1.50 -2.10 c1.15 -0.75 -1.60 -5.05 -3.20 -5.05 -1.55 0 -1.55 0.70 -0.20 3 1.50 2.45 2.15 2.85 3.40 2.05z m5.85 -6.80 c0.35 -1.30 -0.25 -2.50 -0.65 -1.35 -0.15 0.30 -1 0.60 -1.95 0.60 -0.95 0 -1.70 0.25 -1.70 0.50 0 0.30 0.35 0.50 0.75 0.50 0.40 0 0.75 0.25 0.75 0.50 0 0.30 0.55 0.50 1.25 0.50 0.90 0 1.30 -0.35 1.55 -1.25z m-9.30 -1.50 c0 -0.70 -0.20 -1.25 -0.50 -1.25 -0.55 0 -0.70 1.65 -0.15 2.15 0.55 0.55 0.65 0.40 0.65 -0.90z m8 -3.05 c0 -0.45 -0.25 -0.70 -0.60 -0.60 -0.90 0.30 -1.05 1.40 -0.20 1.40 0.45 0 0.80 -0.35 0.80 -0.80z"/>
  <path d="M23.70 32.70 c0.15 -0.45 0.30 -0.90 0.30 -1 0 -0.10 0.25 -0.20 0.50 -0.20 1.10 0 8 -7.70 8.80 -9.85 1.15 -2.95 0.45 -3.35 -0.75 -0.45 -1.20 2.75 -2.05 2.95 -2.05 0.55 0 -0.95 0.25 -1.75 0.55 -1.75 0.30 0 0.85 -0.35 1.25 -0.75 0.95 -0.95 2.70 -1 2.70 -0.05 0 1.35 -1.55 5.05 -2.35 5.70 -0.45 0.30 -0.65 0.60 -0.35 0.60 0.25 0 -0.45 0.85 -1.55 1.90 -1.10 1.05 -2.75 2.85 -3.65 4 -1.65 2.10 -4.05 3 -3.40 1.30z"/>
  <path d="M9.80 23.35 c-0.50 -0.90 -0.80 -2.15 -0.75 -2.75 l0.20 -1.15 1.15 1.05 c0.70 0.70 1.10 1.60 1.10 2.75 0 2.20 -0.60 2.20 -1.70 0.10z"/>
  <path d="M16.50 21.75 c0 -1.45 -0.80 -1.70 -1.15 -0.35 -0.15 0.45 -0.30 0.05 -0.35 -0.90 -0.05 -0.95 -0.15 -1.95 -0.20 -2.25 0 -0.25 -0.65 -1.30 -1.40 -2.25 -0.75 -0.95 -1.60 -2.40 -1.90 -3.20 -0.40 -1.10 -0.70 -1.30 -1.10 -0.90 -1.05 1.05 -1.50 0.65 -1.15 -1 1.10 -5.15 4.95 -8.40 9.90 -8.40 2.70 0 2.85 0.05 2.85 1.25 0 0.90 0.25 1.25 1 1.25 0.80 0 1 -0.35 1 -1.55 0 -1.35 0.10 -1.50 0.75 -0.95 0.40 0.35 1.05 0.50 1.50 0.35 0.40 -0.20 0.85 -0.05 1.05 0.20 0.15 0.30 0.80 0.40 1.45 0.25 0.75 -0.20 1.60 0.10 2.50 0.80 1.30 1 1.30 1.10 0.45 1.45 -1.40 0.55 -4.60 0.50 -4.95 -0.05 -0.60 -0.95 -2.25 -0.55 -2.25 0.50 0 0.85 0.35 1 2 1 1.65 0 2 0.15 2 1 0 0.55 0.35 1 0.75 1 0.40 0 0.75 0.35 0.75 0.75 0 0.40 0.25 0.75 0.50 0.75 0.30 0 0.50 0.80 0.50 1.75 0 1.40 0.20 1.75 1 1.75 0.70 0 1 0.35 1 1.20 0 0.95 -0.20 1.15 -1 0.95 -0.50 -0.15 -1.15 -0.80 -1.35 -1.45 l-0.40 -1.15 -1.25 1.30 c-1.20 1.25 -1.20 1.30 -0.10 0.95 0.80 -0.25 1.10 -0.15 1.10 0.40 0 0.45 0.60 0.80 1.65 0.95 0.95 0.10 0.50 0.20 -1.25 0.25 l-2.90 0.10 0 -2 c0 -1.45 0.20 -2 0.75 -2 0.45 0 0.75 -0.45 0.75 -1.20 0 -0.65 -0.35 -1.30 -0.75 -1.50 -0.40 -0.15 -0.75 -0.60 -0.75 -0.95 0 -0.70 -2 -1.85 -3.25 -1.85 -0.40 0 -0.75 0.35 -0.75 0.75 0 0.40 -0.40 0.75 -0.85 0.75 -1.30 0 -3.50 1.60 -5.30 3.75 -1.25 1.55 -1.40 2 -0.95 2.80 0.35 0.50 0.60 1.85 0.60 3 0 1.10 0.25 2.45 0.50 3 0.40 0.75 0.35 0.95 -0.25 0.95 -0.45 0 -0.75 -0.45 -0.75 -1.25z m-3.40 -12.65 c-0.70 -0.70 -0.90 -0.75 -1 -0.15 -0.20 0.75 0.85 1.65 1.50 1.25 0.20 -0.15 0 -0.65 -0.50 -1.10z m4.25 0.10 c-0.45 -0.45 -1.40 0.30 -1.05 0.90 0.20 0.30 0.50 0.30 0.85 -0.05 0.30 -0.30 0.40 -0.65 0.20 -0.85z m-0.35 -4.90 c0 -0.25 -0.45 -0.05 -1 0.45 -0.55 0.50 -1 1.25 -1 1.70 0 0.60 0.30 0.45 1 -0.45 0.55 -0.70 1 -1.45 1 -1.70z"/>
  <path d="M11.80 21.25 c-0.15 -0.45 0 -0.75 0.45 -0.75 0.40 0 0.75 -0.35 0.75 -0.75 0 -0.40 0.25 -0.75 0.50 -0.75 0.55 0 0.60 0.30 0.20 1.90 -0.35 1.25 -1.45 1.45 -1.90 0.35z"/>
  <path d="M18.50 17.70 c0 -0.60 0.65 -1.80 1.45 -2.65 1.25 -1.35 1.80 -1.55 4 -1.55 2.25 0 2.55 0.10 2.55 1.05 0 0.70 -0.20 0.90 -0.60 0.60 -0.65 -0.35 -2.95 -0.30 -4.50 0.15 -0.45 0.15 -1.30 0.95 -1.85 1.85 -0.90 1.40 -1.05 1.45 -1.05 0.55z"/>
  <path d="M32.50 11.95 c0 -1.35 0.10 -1.50 0.75 -0.95 0.45 0.40 0.75 0.45 0.75 0.10 0 -0.30 -0.20 -0.70 -0.50 -0.85 -0.75 -0.45 -0.60 -2.25 0.20 -2.25 0.80 0 1.30 1.50 1.30 3.90 0 1.40 -0.15 1.60 -1.25 1.60 -1.05 0 -1.25 -0.25 -1.25 -1.55z"/>
 </g>
 <g fill="#d9dc96">
  <path d="M26 39.05 c0 -2.45 1.45 -3.55 1.55 -1.15 0 0.75 0.15 1.05 0.30 0.70 0.20 -0.50 0.40 -0.50 0.95 -0.05 1.15 0.95 0.80 1.45 -1.05 1.45 -1.40 0 -1.75 -0.20 -1.75 -0.95z"/>
  <path d="M17.50 37.65 c-0.85 -0.35 -1.95 -1.65 -2 -2.35 0 -0.25 0.30 -0.20 0.65 0.10 1 0.80 4.85 0.65 4.85 -0.20 0 -0.40 -0.35 -0.70 -0.75 -0.70 -0.45 0 -0.75 -0.45 -0.75 -1.10 0 -1.05 0.05 -1.05 0.65 -0.15 0.45 0.55 0.80 0.70 1 0.40 0.35 -0.55 -2.55 -4.90 -2.95 -4.50 -0.15 0.10 0 0.80 0.25 1.55 0.65 1.65 0.05 1.70 -1.95 0.20 -1.15 -0.85 -1.65 -0.95 -2.10 -0.50 -1 1 -1.35 0.70 -1.70 -1.25 -0.20 -1.05 -0.60 -2.25 -0.95 -2.65 -0.90 -1.05 -2.05 -3.50 -2.45 -5.10 -0.30 -1.25 -0.25 -1.30 1.70 -1.05 1.30 0.20 2 0.10 2 -0.30 0 -0.30 0.15 -0.55 0.40 -0.55 0.20 0 0.30 1 0.20 2.25 -0.20 2 -0.05 2.30 0.95 2.70 1.55 0.55 1.95 0.30 1.95 -1.25 0 -0.75 -0.30 -1.20 -0.75 -1.20 -0.55 0 -0.75 -0.60 -0.75 -2.45 0 -1.60 -0.25 -2.55 -0.70 -2.70 -0.35 -0.15 -1.20 -1.35 -1.80 -2.70 -1.45 -3.05 -1.35 -2.90 -2.25 -2.15 -0.45 0.35 -0.90 0.55 -1.05 0.40 -0.35 -0.40 1.30 -5.05 2.20 -6 1.05 -1.20 2.60 -1.15 2.60 0.05 0 1.60 0.75 1.60 2.25 0.05 0.80 -0.85 1.95 -1.50 2.55 -1.50 0.65 0 1.30 -0.25 1.45 -0.55 0.25 -0.35 -0.80 -0.40 -3.35 -0.25 l-3.65 0.30 2.25 -1.35 c3 -1.80 7.55 -2.20 9.05 -0.85 0.60 0.55 1.45 0.90 1.90 0.80 0.50 -0.05 1.30 0.35 1.80 0.90 0.90 1 0.90 1 -1.45 1 l-2.40 0 0.35 1.50 c0.25 1.20 0.15 1.50 -0.50 1.50 -0.40 0 -0.90 0.35 -1.05 0.75 -0.20 0.40 -0.70 0.75 -1.20 0.75 -0.50 0 -2.20 1.25 -3.75 2.80 -2.75 2.70 -2.80 2.80 -2.05 3.95 0.45 0.65 0.80 2.10 0.80 3.20 0 1.55 0.35 2.45 1.45 3.65 1.85 2.05 2.65 1.50 0.90 -0.60 -1.15 -1.35 -1.40 -3.40 -0.30 -2.75 0.20 0.15 0.30 0.60 0.15 0.95 -0.40 1.05 0.85 1.60 1.50 0.65 0.35 -0.40 1.70 -1.30 3.05 -1.95 3.20 -1.55 3.80 -2.55 2.45 -3.95 -1 -0.95 -1.30 -1 -3.50 -0.55 -2.75 0.60 -3.40 0.35 -2 -0.70 0.65 -0.45 2.25 -0.70 4.60 -0.70 4 0 4.95 -0.75 3.20 -2.50 -0.55 -0.55 -1 -1.25 -1 -1.50 0 -0.30 -0.35 -0.65 -0.75 -0.80 -1.35 -0.55 -0.80 -1.20 1 -1.20 1.55 0 1.75 0.15 1.75 1.25 0 0.75 0.30 1.25 0.70 1.25 0.50 0 0.85 0.80 1.10 2.25 0.15 1.25 0.50 2.25 0.75 2.25 0.55 0 0.55 0.10 -0.05 -2 -0.30 -0.95 -0.40 -3.05 -0.20 -4.70 0.30 -2.90 0.30 -2.90 1.30 -1.95 1.40 1.40 2 4.85 1.65 8.85 l-0.35 3.40 -2.65 -0.30 c-2.70 -0.30 -3.25 0 -3.25 2 0 0.40 -0.50 1.25 -1.10 2 -0.65 0.70 -1.40 2.25 -1.75 3.40 -0.65 2.15 -2.05 3.30 -4.15 3.30 -0.75 0 -1 0.35 -1 1.25 0 0.90 0.25 1.25 1 1.25 0.55 0 1 -0.20 1 -0.50 0 -0.25 0.35 -0.50 0.75 -0.50 0.95 0 0.95 0.45 -0.10 1.60 -0.60 0.65 -0.65 1.10 -0.30 1.45 0.40 0.40 0.65 0.25 0.90 -0.50 0.15 -0.60 0.60 -1.05 0.90 -1.05 1.40 0 7.50 -6.80 8.75 -9.65 0.95 -2.35 1.35 -1.15 0.35 1.25 -0.45 1.20 -1.90 3.20 -3.15 4.50 -1.30 1.25 -3.35 3.50 -4.60 4.95 -2.15 2.45 -6.15 5.45 -7.25 5.40 -0.25 0 -0.85 -0.15 -1.25 -0.30z m4.40 -11.75 c-0.10 -0.30 -0.85 -0.65 -1.70 -0.75 -1.40 -0.15 -1.40 -0.10 -0.50 0.60 1.15 0.90 2.45 1 2.20 0.15z m1.85 -1.65 c0 -1.40 -0.35 -1.50 -1.85 -0.70 -1.05 0.55 -1.05 0.60 -0.15 1.25 1.40 1.05 2 0.85 2 -0.55z m1.05 -3.35 l0.95 -1.05 -1.35 0.90 c-1.45 0.90 -1.70 1.25 -1 1.25 0.25 0 0.85 -0.50 1.40 -1.10z m7.10 -5.05 c-0.70 -0.60 -1.40 -1.40 -1.50 -1.75 -0.10 -0.45 -0.60 -0.20 -1.40 0.70 -1.25 1.35 -1.25 1.35 -0.10 1.05 0.75 -0.15 1.10 -0.05 1.10 0.45 0 0.45 0.55 0.70 1.65 0.70 l1.60 0 -1.35 -1.15z m-16.20 -3.10 c0.75 -1.25 2 -2.75 2.80 -3.35 1.70 -1.25 1.85 -1.80 0.65 -2.25 -0.50 -0.20 -1.10 -0.55 -1.30 -0.85 -0.25 -0.30 -0.30 -0.05 -0.10 0.55 0.20 0.75 0 1.30 -0.70 1.75 -0.55 0.40 -1.25 1.30 -1.50 2.05 -0.30 0.75 -0.75 1.35 -1.05 1.35 -0.25 0 -0.50 0.70 -0.50 1.50 0 0.85 0.10 1.50 0.20 1.50 0.10 0 0.80 -1 1.50 -2.25z m18.10 -2.05 c-0.50 -0.70 -1 -1.15 -1.15 -1.05 -0.30 0.30 1.50 2.85 1.80 2.55 0.10 -0.10 -0.20 -0.75 -0.65 -1.50z m-11 -4.05 c-0.20 -0.20 -0.55 -0.05 -0.80 0.35 -0.80 1.25 -0.55 1.75 0.35 0.85 0.45 -0.45 0.65 -1 0.45 -1.20z m1.70 -2.65 c0 -0.25 -0.35 -0.50 -0.75 -0.50 -0.40 0 -0.75 0.25 -0.75 0.50 0 0.30 0.35 0.50 0.75 0.50 0.40 0 0.75 -0.20 0.75 -0.50z"/>
  <path d="M26 34.85 c0 -0.40 0.45 -1.10 1 -1.60 1.05 -0.95 1.20 -0.75 0.70 1.15 -0.35 1.20 -1.70 1.55 -1.70 0.45z"/>
  <path d="M27 25.55 c0 -1.25 0.20 -1.50 1.40 -1.65 1.05 -0.10 1.40 -0.45 1.50 -1.50 0.10 -0.80 0.35 -1.40 0.60 -1.40 0.25 0 0.80 -0.15 1.25 -0.35 0.70 -0.25 0.80 -0.10 0.50 0.90 -0.40 1.40 -1.90 3.10 -3.85 4.55 l-1.40 0.95 0 -1.50z"/>
 </g>
 <g fill="#e4eba3">
  <path d="M24 38.25 c0 -1.35 0.45 -2.25 1.90 -3.80 l1.85 -2 -0.15 3.75 -0.20 3.80 -1.70 0 c-1.60 0 -1.70 -0.10 -1.70 -1.75z"/>
  <path d="M17.35 37.15 c-0.60 -0.55 -0.40 -1.15 0.40 -1.15 1.35 0 1.35 -1.35 0.05 -3.45 -0.70 -1.10 -1.30 -2.10 -1.30 -2.20 0 -0.45 2 -0.20 2 0.30 0.05 1 2.35 3.50 2.70 2.90 0.45 -0.75 -2.55 -4.75 -3.60 -4.80 -0.50 0 -1.50 -0.50 -2.25 -1.10 -1.70 -1.30 -1.65 -3 0.05 -2.75 0.95 0.15 1.10 -0.05 1.10 -1.35 0 -0.85 -0.20 -1.55 -0.50 -1.55 -0.25 0 -0.50 -0.20 -0.50 -0.50 0 -1.05 1.30 -0.40 2.35 1.10 1.15 1.60 1.15 1.65 0.15 2 -0.55 0.20 -1 0.60 -1 0.90 0 0.25 -0.40 0.50 -0.85 0.50 -0.80 0.05 -0.80 0.10 0.05 0.75 1.30 1 1.65 0.95 1.95 -0.35 0.30 -1 0.35 -1 1.55 -0.20 1.20 0.75 1.45 0.75 2.85 0.05 0.95 -0.50 1.45 -1.10 1.25 -1.50 -0.15 -0.40 0 -0.85 0.30 -1.05 0.35 -0.20 0.30 -0.45 -0.10 -0.70 -0.45 -0.30 -0.10 -0.85 1.20 -2 2.15 -1.95 2.40 -3 0.30 -1.45 -0.80 0.65 -1.65 0.95 -1.85 0.70 -0.25 -0.20 -0.10 -0.50 0.25 -0.60 0.35 -0.15 1.30 -0.80 2.10 -1.50 1.45 -1.20 1.45 -1.25 0.60 -2.45 -0.80 -1.15 -1.05 -1.20 -3.60 -0.90 -2.45 0.25 -2.65 0.20 -2.05 -0.50 0.50 -0.60 1.60 -0.80 4.40 -0.80 3.30 0 3.75 -0.10 4 -1 0.15 -0.55 0.45 -1 0.70 -1 0.25 0 0.45 -0.80 0.45 -1.75 0 -1.65 0.10 -1.75 1.75 -1.75 1.45 0 1.85 0.25 2.25 1.30 0.30 0.70 0.50 1.75 0.50 2.35 0 0.90 -0.15 0.85 -0.80 -0.50 -0.45 -0.90 -1.05 -1.65 -1.30 -1.65 -0.25 0 -0.40 0.15 -0.30 0.40 1.20 2.40 1.60 3.10 2 3.10 0.20 0 0.40 0.35 0.40 0.75 0 0.45 -0.45 0.75 -1.25 0.75 -0.80 0 -1.25 0.30 -1.25 0.80 0 1.40 -1.35 0.40 -2.30 -1.70 -0.05 -0.10 -0.70 0.40 -1.45 1.10 l-1.40 1.30 1.30 0 c0.70 0 1.35 0.25 1.45 0.60 0.15 0.35 1.15 0.55 2.55 0.50 2.15 -0.10 2.35 0 2.35 1.10 0 2 -1.60 6.25 -2.85 7.60 -1.80 1.95 -2.05 1 -0.30 -0.95 1.40 -1.55 2.60 -5.10 1.95 -5.70 -0.10 -0.15 -0.80 0.85 -1.45 2.20 -0.70 1.30 -2.40 3.35 -3.75 4.55 -3.70 3.10 -6.40 6.50 -5.70 7.20 0.40 0.40 0.65 0.35 0.85 -0.20 0.40 -1 4.15 -3.65 4.55 -3.25 0.45 0.40 -3.70 4.75 -6.15 6.40 -1.95 1.35 -4.10 1.85 -4.80 1.10z m10.35 -13.25 c0.45 -1.70 0.40 -1.85 -0.70 -1.55 -0.65 0.15 -1 0.70 -1 1.45 0 1.55 1.30 1.60 1.70 0.10z m3.80 -5.15 c0 -0.45 -0.45 -0.75 -1.25 -0.75 -0.80 0 -1.25 0.30 -1.25 0.75 0 0.45 0.45 0.75 1.25 0.75 0.80 0 1.25 -0.30 1.25 -0.75z"/>
  <path d="M19 22.25 c-0.30 -0.40 -0.50 -1 -0.35 -1.35 0.20 -0.45 0.30 -0.35 0.30 0.20 0.05 0.45 0.45 0.90 0.95 1 0.55 0.10 0.65 0.30 0.30 0.55 -0.35 0.20 -0.85 0 -1.20 -0.40z"/>
  <path d="M16.05 18.95 c-0.05 -0.45 -0.45 -1.15 -0.95 -1.65 -0.90 -0.80 -0.90 -0.90 0.10 -2.95 1.30 -2.70 2.75 -4.50 4.15 -5.25 2.75 -1.50 2.15 0.20 -1.10 3.05 -2.95 2.60 -3.15 3.05 -2 4.35 0.60 0.65 0.65 1.15 0.30 2.05 -0.30 0.75 -0.50 0.90 -0.50 0.40z"/>
  <path d="M22 9.05 c0 -0.30 0.25 -0.65 0.50 -0.80 0.75 -0.45 0.60 -2.25 -0.20 -2.25 -0.40 0 -0.85 0.30 -1 0.65 -0.20 0.30 -0.20 -0.45 -0.05 -1.80 0.25 -2.35 0.25 -2.35 -0.90 -1.65 -1.10 0.75 -4.20 0.95 -4.60 0.30 -0.10 -0.20 0.65 -0.75 1.70 -1.25 2.40 -1.05 6.10 -0.80 7.55 0.50 0.55 0.50 1.15 0.75 1.35 0.60 0.15 -0.20 0.85 0 1.55 0.45 0.95 0.60 1.30 0.65 1.60 0.20 0.45 -0.70 1.90 -0.10 3 1.20 0.55 0.70 0.35 0.80 -1.70 0.80 -1.70 0 -2.30 0.20 -2.30 0.75 0 0.40 -0.20 0.75 -0.50 0.75 -0.25 0 -0.50 0.35 -0.50 0.75 0 0.55 -0.25 0.60 -1.30 0.25 -1.85 -0.70 -3.20 -0.60 -3.20 0.25 0 0.40 -0.20 0.75 -0.50 0.75 -0.25 0 -0.50 -0.20 -0.50 -0.45z"/>
  <path d="M15 8.25 c0 -0.40 0.45 -0.75 1 -0.75 0.55 0 1 0.35 1 0.75 0 0.40 -0.45 0.75 -1 0.75 -0.55 0 -1 -0.35 -1 -0.75z"/>
 </g>
 <g fill="#f0f9b0">
  <path d="M24.80 39.20 c-0.45 -0.40 -0.80 -1 -0.80 -1.25 0 -0.85 1.35 -3.15 2.40 -4.10 1 -0.90 1 -0.85 0.90 2.60 -0.05 2.95 -0.20 3.55 -0.90 3.55 -0.45 0 -1.20 -0.35 -1.60 -0.80z"/>
  <path d="M28 39.25 c0 -0.40 0.25 -0.75 0.50 -0.75 0.30 0 0.50 0.35 0.50 0.75 0 0.40 -0.20 0.75 -0.50 0.75 -0.25 0 -0.50 -0.35 -0.50 -0.75z"/>
  <path d="M18.25 37 c-0.15 -0.25 0 -0.90 0.30 -1.40 0.45 -0.70 0.40 -1.25 -0.25 -2.45 -0.75 -1.50 -0.75 -1.55 0.20 -1.30 0.55 0.15 1.10 0.70 1.25 1.20 0.35 1.05 1 1.25 1.50 0.45 0.30 -0.50 -1.80 -4.15 -2.75 -4.75 -0.65 -0.40 -0.65 -2.10 0.05 -2.50 0.25 -0.20 0.90 0 1.40 0.45 0.75 0.70 1 0.70 2.65 -0.10 1.65 -0.80 1.80 -1 1.65 -2.70 -0.15 -1.60 0.05 -2 1.60 -3.15 1.35 -1.10 1.65 -1.60 1.45 -2.55 -0.35 -1.40 1.40 -2.70 2.35 -1.75 0.70 0.70 3.35 0.70 3.35 0.05 0 -0.25 -0.35 -0.50 -0.75 -0.50 -0.45 0 -1.10 -0.70 -1.45 -1.60 -0.65 -1.55 -0.70 -1.55 -1.25 -0.50 -0.30 0.60 -0.90 1.10 -1.30 1.10 -0.40 0 -0.75 0.25 -0.75 0.60 0 0.35 -0.35 0.25 -0.85 -0.25 -1.05 -0.90 -3.10 -1.25 -4.05 -0.65 -0.35 0.20 -0.80 0.25 -1 0.05 -0.40 -0.40 0.95 -1.25 1.90 -1.20 0.40 0.05 1.95 0.05 3.40 0 2.20 -0.05 2.60 -0.20 2.60 -1 0 -0.55 -0.40 -1.30 -0.85 -1.65 -0.50 -0.35 -0.90 -0.95 -0.95 -1.25 -0.10 -1.35 -0.20 -1.55 -0.80 -1.50 -2.85 0.10 -3.80 -0.20 -3.55 -1.05 0.15 -0.60 -0.20 -1.10 -1.10 -1.50 -1.25 -0.60 -1.25 -0.65 -0.50 -2.10 0.85 -1.65 2.25 -1.95 3.25 -0.75 0.35 0.40 1.05 0.75 1.55 0.75 0.50 0 1.05 0.25 1.20 0.50 0.40 0.65 2.25 0.65 2.25 -0.05 0 -0.85 2.95 1.50 3.70 2.95 0.35 0.75 0.80 2.15 0.95 3.10 0.30 1.70 0.30 1.75 -0.50 0.60 -0.40 -0.60 -1.10 -1.10 -1.55 -1.10 -0.65 0 -0.65 0.10 0.05 0.90 0.50 0.50 0.85 1.30 0.85 1.75 0 0.45 0.35 0.85 0.75 0.85 0.60 0 0.75 0.65 0.75 3.05 0 2.55 -0.15 3 -0.75 2.75 -0.55 -0.20 -1 0.30 -1.55 1.65 -0.45 1.15 -2.40 3.55 -4.85 5.90 -5.35 5.15 -6.10 6.10 -5.35 6.85 0.40 0.40 0.75 0.35 1.20 -0.30 0.35 -0.50 0.90 -0.90 1.15 -0.90 0.30 0 0.80 -0.35 1.15 -0.75 0.70 -0.85 1.65 -1 1.40 -0.25 -0.10 0.30 -1.75 1.90 -3.65 3.50 -3.35 2.85 -4.85 3.55 -5.50 2.50z"/>
  <path d="M16 27.75 c-0.70 -0.80 -0.50 -0.90 0.70 -0.45 0.45 0.15 0.80 0.50 0.80 0.75 0 0.70 -0.80 0.55 -1.50 -0.30z"/>
  <path d="M17 22.90 c0 -0.60 0.05 -0.95 0.15 -0.85 0.05 0.10 0.45 0.60 0.80 1.10 0.60 0.70 0.55 0.85 -0.15 0.85 -0.50 0 -0.80 -0.40 -0.80 -1.10z"/>
  <path d="M15.65 17.15 c-0.35 -0.15 -0.65 -0.60 -0.65 -1.05 0 -0.75 0.10 -0.75 0.85 0.05 0.90 0.90 0.80 1.35 -0.20 1z"/>
  <path d="M16 13.50 c0 -0.90 3.20 -4.50 3.95 -4.50 1 0 0.55 0.80 -1.70 3 -1.30 1.25 -2.25 1.90 -2.25 1.50z"/>
  <path d="M15.75 8.45 c-0.50 -0.75 0.15 -1.25 0.80 -0.60 0.35 0.35 0.35 0.65 0.05 0.85 -0.30 0.15 -0.70 0.05 -0.85 -0.25z"/>
  <path d="M16 3.20 c0 -0.15 0.80 -0.60 1.80 -1 1.85 -0.80 3.15 -0.35 2.50 0.75 -0.35 0.55 -4.30 0.80 -4.30 0.25z"/>
 </g>
 <g fill="#f9fdc3">
  <path d="M28 39.20 c0 -0.45 0.25 -0.70 0.60 -0.60 0.90 0.30 1.05 1.40 0.20 1.40 -0.45 0 -0.80 -0.35 -0.80 -0.80z"/>
  <path d="M25.85 35.75 c-0.15 -0.35 0.15 -1.20 0.70 -1.85 l0.95 -1.15 -0.20 1.50 c-0.10 0.85 -0.25 1.65 -0.25 1.90 -0.10 0.65 -0.95 0.40 -1.20 -0.40z"/>
  <path d="M21 34.25 c0 -0.40 0.25 -0.75 0.50 -0.75 0.30 0 0.50 0.35 0.50 0.75 0 0.40 -0.20 0.75 -0.50 0.75 -0.25 0 -0.50 -0.35 -0.50 -0.75z"/>
  <path d="M23.50 33.65 c0 -0.70 0.95 -1.90 1.25 -1.60 0.40 0.40 -0.25 1.95 -0.80 1.95 -0.25 0 -0.45 -0.15 -0.45 -0.35z"/>
  <path d="M31 22.40 c0.05 -0.75 1.20 -2.40 1.70 -2.40 0.20 0 0 0.70 -0.45 1.50 -0.80 1.60 -1.25 1.90 -1.25 0.90z"/>
  <path d="M29.15 20.10 c-0.95 -0.15 -1.15 -0.50 -1.15 -1.85 0 -0.90 0.30 -1.75 0.65 -1.90 0.90 -0.35 2.60 0.95 1.85 1.40 -0.40 0.25 -0.40 0.55 0.05 1.05 0.75 0.95 0.05 1.55 -1.40 1.30z"/>
  <path d="M34 15.90 c0 -0.90 0.25 -2 0.50 -2.40 0.35 -0.55 0.50 -0.10 0.50 1.65 0 1.30 -0.20 2.35 -0.50 2.35 -0.25 0 -0.50 -0.75 -0.50 -1.60z"/>
  <path d="M33.55 9.65 c-0.50 -1.05 -1.40 -2.35 -2 -2.85 -1.05 -0.95 -1.10 -0.95 -1.80 0 -0.45 0.55 -0.65 1.55 -0.55 2.25 0.15 0.75 0.15 1.45 0 1.60 -0.50 0.50 -1.65 -0.20 -1.40 -0.85 0.15 -0.35 -0.35 -0.90 -1.05 -1.20 -1.15 -0.50 -1.80 -2.10 -0.85 -2.10 0.20 0 0.70 -0.20 1.10 -0.50 0.60 -0.35 0.60 -0.60 -0.20 -1.45 -1.20 -1.30 -0.10 -1.45 1.35 -0.20 0.90 0.85 1 0.85 1.50 0.05 0.50 -0.75 0.65 -0.75 1.95 0.20 1.60 1.10 2.60 2.85 3.05 5.30 0.40 2.10 0.10 2.05 -1.10 -0.25z"/>
 </g>
</svg>