<?xml version="1.0" encoding="utf-8"?>
<!DOCTYPE svg PUBLIC "-//W3C//DTD SVG 1.0//EN" "http://www.w3.org/TR/2001/REC-SVG-20010904/DTD/svg10.dtd">
<svg version="1.0" xmlns="http://www.w3.org/2000/svg" width="40px" height="40px" viewBox="0 0 40 40" preserveAspectRatio="xMidYMid meet">
 <g fill="#161717">
  <path d="M15 37.25 c0 -0.45 -0.45 -1.65 -1 -2.75 -0.55 -1.10 -1 -2.65 -1 -3.50 0 -0.85 -0.25 -1.50 -0.60 -1.50 -0.35 -0.05 -1.10 -1.05 -1.70 -2.25 l-1.05 -2.25 1.35 0 c1.50 0 2 0.75 2 3.05 0 1.40 0.10 1.45 2.15 1.45 2.30 0 3.85 1.05 3.85 2.65 0 0.45 0.25 0.85 0.50 0.85 0.30 0 0.50 0.90 0.50 2 0 1.90 -0.10 2 -1.50 2 -0.80 0 -1.50 0.25 -1.50 0.50 0 0.30 -0.45 0.50 -1 0.50 -0.55 0 -1 -0.35 -1 -0.75z"/>
  <path d="M18.50 21.25 c0 -1.55 -0.15 -1.75 -1.25 -1.75 -1.40 0 -1.55 -0.85 -0.90 -5.95 0.25 -2 0.55 -2.75 1.25 -2.95 0.50 -0.10 0.90 -0.40 0.90 -0.65 0 -0.25 0.80 -0.45 1.75 -0.45 1.40 0 1.75 0.20 1.75 1 0 0.55 0.25 1 0.50 1 0.30 0 0.50 0.75 0.50 1.70 0 1.20 -0.25 1.80 -0.85 2.05 -0.50 0.15 -1.25 0.80 -1.70 1.40 -0.85 1.10 -0.80 1.15 0.85 0.95 1.25 -0.15 1.80 -0.55 2.30 -1.65 0.60 -1.35 0.85 -1.50 2.65 -1.35 1.90 0.15 2 0.25 2.15 2 0.10 1.40 -0.10 2 -1 2.60 -0.60 0.45 -1.65 0.80 -2.25 0.80 -0.65 0 -1.15 0.20 -1.15 0.45 0 0.25 -0.45 0.65 -1 0.80 -0.55 0.15 -1 0.65 -1 1.05 0 0.45 -0.55 0.70 -1.75 0.70 -1.65 0 -1.75 -0.10 -1.75 -1.75z"/>
  <path d="M8.90 20.25 c-0.05 -0.70 -0.10 -1.85 -0.15 -2.65 -0.05 -0.75 -0.25 -2.40 -0.45 -3.75 l-0.35 -2.35 1.65 0 c2.35 0 3.25 0.90 3.60 3.50 0.20 1.25 0.45 3.20 0.60 4.40 l0.30 2.10 -2.55 0 c-2.35 0 -2.55 -0.10 -2.65 -1.25z"/>
 </g>
 <g fill="#401223">
  <path d="M15.85 35.15 c-0.10 -0.50 -0.25 -1.55 -0.30 -2.35 l-0.05 -1.45 1.10 0.95 c1.05 0.85 1.05 0.85 0.40 0.05 -0.65 -0.85 -0.60 -0.90 0.80 -0.75 1.30 0.15 1.45 0.35 1.60 2.30 0.15 2.10 0.15 2.10 -1.60 2.10 -1.25 0 -1.80 -0.25 -1.95 -0.85z m2.65 -0.10 c0 -0.25 -0.55 -0.55 -1.25 -0.65 -1 -0.20 -1.15 -0.15 -0.70 0.40 0.65 0.80 1.95 0.95 1.95 0.25z"/>
  <path d="M15.10 17.40 c-1.25 -1.25 -0.70 -3.60 1.30 -5.55 1.80 -1.75 2.05 -1.85 5.15 -1.85 1.85 0 4 0.25 4.90 0.55 1.35 0.45 1.55 0.80 1.55 2.25 0 1.65 -0.05 1.70 -2.20 1.70 -3.65 0 -5.05 0.50 -6 2.05 -0.45 0.80 -1.05 1.45 -1.35 1.45 -0.90 0 -0.45 -1.75 0.80 -3.15 0.80 -0.80 1.05 -1.35 0.65 -1.35 -0.80 0 -2.40 2.50 -2.40 3.70 0 0.95 -1.55 1.05 -2.40 0.20z"/>
 </g>
 <g fill="#263230">
  <path d="M27.50 38.25 c0 -2.15 0.50 -2.20 1.65 -0.30 1.10 1.90 1.10 2.05 -0.40 2.05 -1.10 0 -1.25 -0.20 -1.25 -1.75z"/>
  <path d="M22.35 37.95 c-0.25 -1 -0.35 -1 -1.55 -0.20 -1.50 1 -4.80 0.65 -4.80 -0.45 0 -0.40 -0.30 -0.80 -0.70 -0.95 -0.80 -0.30 -3.80 -6.40 -3.80 -7.75 0 -0.55 -0.40 -1.50 -0.90 -2.15 -1.85 -2.60 -2.10 -3.45 -2.05 -7.90 l0.10 -4.50 1.55 0.25 c1.50 0.25 1.50 0.25 0.60 -0.50 -0.55 -0.45 -1.40 -0.65 -1.95 -0.50 -0.85 0.30 -0.90 0.10 -0.60 -1.85 0.50 -3.10 1.40 -4.60 3.90 -6.65 2.10 -1.70 6.25 -3.80 7.65 -3.80 0.40 0 0.70 0.45 0.70 1 0 0.70 -0.35 1 -1.05 1 -0.55 0 -1.35 0.35 -1.80 0.75 -0.40 0.45 -1.40 0.95 -2.20 1.10 -0.80 0.15 -1.45 0.60 -1.45 0.95 0 0.40 -0.35 0.70 -0.75 0.70 -0.40 0 -0.75 0.20 -0.75 0.50 0 0.25 -0.60 1.30 -1.30 2.35 l-1.30 1.90 1.45 0.25 c1.30 0.25 1.40 0.45 1.35 2.65 0 2.25 0.05 2.35 1.40 2.35 1.25 0 1.40 0.15 1.40 1.75 0 1.40 -0.20 1.75 -0.95 1.75 -0.55 0 -1.15 0.45 -1.30 1 -0.15 0.55 -0.75 1 -1.30 1 -0.50 0 -0.95 0.10 -0.95 0.25 0 0.50 1.30 3.05 1.85 3.65 0.35 0.35 0.65 1.20 0.65 1.90 0 1.30 0.75 1.45 5.65 1.20 1.85 -0.10 1.85 -0.10 1.85 1.95 0 1.15 -0.20 2.05 -0.50 2.05 -0.25 0 -0.50 0.75 -0.45 1.65 0 0.85 0.15 1.30 0.30 1 0.10 -0.35 1 -0.65 1.95 -0.65 1.65 0 1.70 0.05 1.70 2 0 2.15 -1.15 2.85 -1.65 0.95z m-3.85 -2.80 c0 -0.80 -2.05 -3.70 -2.75 -4 -1.10 -0.40 -1.55 0.25 -0.75 1 0.50 0.45 0.55 0.45 0.30 0 -0.60 -1.10 0.60 -0.70 1.40 0.45 1.05 1.45 1 2.10 0 1.70 -0.70 -0.25 -0.75 -0.20 -0.20 0.45 0.65 0.80 2 1.05 2 0.40z m-6 -15.55 c0 -0.65 -1.45 -2.40 -1.50 -1.75 0 0.30 0.25 0.75 0.50 0.90 0.30 0.20 0.40 0.55 0.25 0.80 -0.20 0.25 -0.05 0.45 0.20 0.45 0.30 0 0.55 -0.20 0.55 -0.40z"/>
  <path d="M27.50 29.25 c0 -1.20 0.25 -1.75 0.75 -1.75 0.40 0 0.75 -0.35 0.75 -0.75 0 -0.55 0.55 -0.75 1.85 -0.75 l1.85 0 -2.10 2 c-1.15 1.15 -2.10 2.25 -2.10 2.50 0 0.30 -0.20 0.50 -0.50 0.50 -0.25 0 -0.50 -0.80 -0.50 -1.75z"/>
  <path d="M14 23.25 c0 -2.25 0 -2.25 1.75 -2.25 1.75 0 1.75 0 1.75 2.25 0 2.25 0 2.25 -1.75 2.25 -1.75 0 -1.75 0 -1.75 -2.25z"/>
  <path d="M32.50 24 c0 -0.25 -0.35 -0.50 -0.75 -0.50 -0.50 0 -0.75 -0.55 -0.75 -1.75 0 -1.55 0.15 -1.75 1.25 -1.75 l1.25 0 0 -5.50 c0 -4.50 0.15 -5.50 0.75 -5.50 0.40 0 0.85 0.70 1.05 1.80 0.55 2.90 -0.05 10.30 -1 12.10 -0.80 1.55 -1.80 2.15 -1.80 1.10z"/>
  <path d="M18 21.50 c0 -1.15 -0.20 -1.50 -1 -1.50 -0.80 0 -1 -0.35 -1 -1.75 0 -1.85 1.25 -2.50 1.65 -0.85 0.20 0.80 0.25 0.80 0.30 0 0.05 -1.05 1.35 -1.20 1.70 -0.25 0.20 0.35 0.30 0.30 0.30 -0.25 0.05 -0.45 -0.30 -0.90 -0.75 -1 -0.65 -0.10 -0.60 -0.35 0.30 -1.25 1.10 -1.20 3.25 -1.45 6.45 -0.85 1.40 0.30 1.55 0.50 1.55 2.15 0 3 -0.45 3.75 -2.65 4.70 -1.15 0.45 -2.40 0.85 -2.75 0.85 -0.30 0 -0.60 0.35 -0.60 0.75 0 0.50 -0.55 0.75 -1.75 0.75 -1.60 0 -1.75 -0.10 -1.75 -1.50z m3.55 -1.75 c1.35 -0.45 0.95 -0.80 -0.45 -0.40 -0.75 0.15 -1.10 0.65 -1.05 1.35 0.05 0.80 0.10 0.85 0.30 0.20 0.10 -0.45 0.65 -1 1.20 -1.15z m5.10 -3.05 c-0.05 -0.25 -0.35 -0.50 -0.75 -0.65 -0.35 -0.10 -0.50 0 -0.25 0.20 0.20 0.25 -0.05 0.90 -0.50 1.45 -0.90 1 -0.90 1 0.35 0.20 0.70 -0.40 1.20 -0.95 1.15 -1.20z"/>
  <path d="M29 16.25 c0 -1.65 0.10 -1.75 1.75 -1.75 1.65 0 1.75 0.10 1.75 1.75 0 1.65 -0.10 1.75 -1.75 1.75 -1.65 0 -1.75 -0.10 -1.75 -1.75z"/>
  <path d="M17.80 13.65 c-0.15 -0.15 -0.30 -1.05 -0.30 -2 0 -1.55 0.10 -1.65 1.75 -1.65 1.35 0 1.75 0.20 1.70 0.90 0 0.95 -2.65 3.25 -3.15 2.75z m1.75 -1.45 l1.20 -1.35 -1.35 0.90 c-0.80 0.45 -1.40 1.05 -1.40 1.30 0 0.70 0.25 0.55 1.55 -0.85z"/>
  <path d="M29.50 5 c0 -0.25 -0.35 -0.50 -0.75 -0.50 -0.45 0 -0.75 -0.45 -0.75 -1.20 0 -1.55 1.20 -1.30 3.55 0.70 l1.70 1.45 -1.85 0.05 c-1.05 0 -1.90 -0.20 -1.90 -0.50z"/>
  <path d="M23.50 2.10 c0 -0.65 0.35 -0.85 1.40 -0.80 2.45 0.15 2.60 0.20 2.60 0.95 0 0.55 -0.55 0.75 -2 0.75 -1.60 0 -2 -0.20 -2 -0.90z"/>
 </g>
 <g fill="#601e3c">
  <path d="M15.15 15.70 c0.15 -1.70 0.65 -2.75 1.90 -4.05 2.15 -2.25 3.85 -2.95 8.10 -3.40 2.70 -0.30 3.35 -0.25 3.35 0.30 0 0.40 0.45 1 1 1.35 0.75 0.45 1 1.15 1 2.60 l0 2 -2.60 0 c-1.45 0 -2.95 -0.20 -3.30 -0.45 -1.40 -0.85 -3.80 0.15 -5.10 2.15 -1 1.55 -1.30 1.75 -1.45 1 -0.10 -0.55 0.50 -1.55 1.65 -2.55 1.50 -1.40 2.15 -1.65 4.40 -1.70 l2.65 -0.05 -1.75 -0.75 c-1.30 -0.55 -1.95 -0.60 -2.65 -0.20 -0.50 0.35 -1.10 0.45 -1.40 0.25 -0.65 -0.35 -1.85 0.65 -3.05 2.55 -0.50 0.85 -0.90 1.15 -0.90 0.75 0 -0.40 0.85 -1.55 1.90 -2.65 1 -1.05 1.50 -1.75 1.05 -1.60 -0.45 0.15 -1.55 1.20 -2.40 2.25 -1.30 1.65 -1.40 2 -0.80 2.50 1.20 1 0.90 2 -0.55 2 -1.30 0 -1.30 -0.10 -1.05 -2.30z"/>
 </g>
 <g fill="#364847">
  <path d="M22.50 38.25 l0 -1.70 -1.60 0.90 c-2 1.10 -5.30 0.90 -5.75 -0.40 -0.15 -0.45 -0.90 -2.20 -1.70 -3.90 -0.80 -1.70 -1.50 -3.60 -1.65 -4.25 -0.10 -0.65 -0.90 -2.35 -1.75 -3.80 -1.70 -2.90 -2 -5.55 -0.75 -6.80 0.80 -0.80 1.70 -0.65 1.70 0.30 0 0.25 -0.35 0.40 -0.70 0.25 -0.50 -0.20 -0.65 -0.05 -0.50 0.40 0.35 0.90 1.40 1.25 2.20 0.75 0.55 -0.35 0.50 -0.65 -0.15 -1.65 -0.45 -0.70 -1.30 -1.40 -1.85 -1.60 -1.40 -0.45 -1.30 -2.10 0.15 -2.05 0.65 0.05 1.10 -0.25 1.10 -0.70 0 -0.50 -0.50 -0.75 -1.50 -0.75 -0.85 -0.05 -1.50 -0.30 -1.45 -0.65 0.05 -0.35 0.10 -1.15 0.15 -1.75 0.05 -1.45 2.40 -5.05 3.95 -6.15 1.05 -0.75 1.10 -0.70 1.10 0.80 0 1.10 -0.25 1.65 -0.90 1.85 -0.45 0.10 -1.10 1 -1.40 1.95 -0.50 1.55 -0.45 1.70 0.40 1.70 0.65 0 1.25 0.70 1.90 2.15 0.65 1.40 1 1.75 1 1.05 0 -1.20 1.45 -2.70 2.65 -2.70 0.50 0 0.85 -0.40 0.85 -1 0 -0.70 0.35 -1 1.20 -1 0.65 0 1.30 -0.25 1.40 -0.50 0.10 -0.30 2 -0.65 4.30 -0.85 l4.10 -0.30 0 1.90 c0 1.55 -0.15 1.80 -0.85 1.50 -3.45 -1.45 -3.60 -1.45 -6.30 -0.60 -2 0.65 -3.10 1.35 -4.15 2.70 -1.50 1.95 -1.95 3.70 -0.90 3.30 0.35 -0.10 0.70 0.25 0.85 0.95 0.20 1.05 0.20 1.05 0.30 -0.15 0.05 -0.85 0.70 -1.95 1.85 -2.95 1.50 -1.30 2.15 -1.55 3.35 -1.30 0.80 0.15 2 0.30 2.65 0.30 1 0 1.20 0.25 1.20 1.55 0 1.20 -0.15 1.45 -0.60 1.10 -1 -0.80 -3.05 -1.10 -4.15 -0.65 -0.80 0.35 -0.60 0.45 0.85 0.45 3.50 0.10 2.75 2 -1.15 3.05 -1.15 0.30 -1.95 0.90 -2.10 1.50 -0.15 0.55 -0.05 1 0.20 1 0.25 0 0.45 -0.35 0.45 -0.75 0 -0.40 0.25 -0.75 0.50 -0.75 0.30 0 1.60 -0.50 2.90 -1.15 l2.40 -1.15 -0.20 1.40 c-0.15 0.95 -0.50 1.40 -1.15 1.40 -0.55 0 -0.95 0.20 -0.95 0.40 0 0.25 -0.90 0.75 -2 1.10 -1.10 0.35 -2 0.95 -2 1.35 0 0.35 -0.55 0.65 -1.25 0.65 -0.95 0 -1.25 0.25 -1.25 1.05 0 0.85 -0.25 1 -1.85 0.85 -1.80 -0.15 -1.90 -0.25 -2.05 -2 -0.15 -1.75 -0.30 -1.90 -1.65 -1.90 -1.40 0 -1.45 0.05 -0.75 0.80 0.45 0.40 0.95 1.30 1.10 2 0.15 0.65 0.50 1.20 0.70 1.20 0.25 0 0.50 0.60 0.60 1.40 0.15 1.15 0.40 1.35 2.05 1.50 1.60 0.15 1.85 0.30 1.90 1.50 0.05 0.85 0.15 1.05 0.30 0.50 0.15 -0.65 0.70 -0.90 1.85 -0.90 1.90 0 2.80 0.75 2.80 2.40 0 1.05 0.10 1.15 0.75 0.60 0.55 -0.45 0.65 -0.75 0.25 -1 -0.30 -0.20 -0.50 -1.10 -0.40 -2.05 0.10 -1.30 0.40 -1.75 1.30 -1.85 0.65 -0.10 1.10 -0.50 1.10 -1.05 0 -0.50 1 -1.75 2.25 -2.80 1.25 -1 2.70 -2.75 3.25 -3.90 1.20 -2.50 1.20 -2.35 0.05 -2.35 -1.90 0 -2.55 -0.55 -2.55 -2.30 0 -1.55 0.15 -1.70 1.45 -1.70 2.45 0 3.05 0.45 3.05 2.30 0 1.35 0.20 1.70 1 1.70 2.50 0 0.05 7.15 -3.40 9.90 -1.10 0.85 -2.45 1.60 -2.95 1.65 -0.70 0 -0.75 0.10 -0.15 0.30 1.10 0.45 1.50 1.25 1.15 2.40 -0.50 1.60 -0.15 4.90 0.65 6.15 0.70 1.05 0.65 1.10 -0.80 1.10 -1.30 0 -1.55 -0.25 -1.85 -1.50 -0.25 -1.45 -0.35 -1.50 -1.20 -0.70 -0.55 0.45 -0.95 1.25 -0.95 1.80 0 0.55 -0.35 0.90 -1 0.90 -0.80 0 -1 -0.35 -1 -1.75z m-3 -2.20 c0 -0.25 0.40 -0.60 0.90 -0.70 0.55 -0.15 0.40 -0.25 -0.45 -0.30 -0.90 -0.05 -1.55 -0.55 -2.35 -2 -1.10 -2 -1.90 -2.55 -2.90 -2.20 -0.95 0.30 1.35 4.15 2.70 4.45 0.60 0.20 1.10 0.50 1.10 0.75 0 0.25 0.25 0.45 0.50 0.45 0.30 0 0.50 -0.20 0.50 -0.45z m-3.50 -15.55 c0 -0.25 -0.35 -0.50 -0.75 -0.50 -0.40 0 -0.75 0.25 -0.75 0.50 0 0.30 0.35 0.50 0.75 0.50 0.40 0 0.75 -0.20 0.75 -0.50z"/>
  <path d="M33.50 13.50 c0 -2.25 0.20 -3 0.70 -3 0.90 0 1.50 2.50 1.05 4.50 -0.20 0.85 -0.65 1.50 -1.05 1.50 -0.50 0 -0.70 -0.75 -0.70 -3z"/>
  <path d="M32 6.15 l0.05 -1.90 1.20 1.40 c1.60 1.80 1.55 2.35 0 2.35 -1.10 0 -1.25 -0.20 -1.25 -1.85z"/>
  <path d="M25.50 3.65 c-3 -0.45 -3.50 -0.70 -3.50 -1.65 0 -0.95 0.25 -1 2.90 -0.70 2.75 0.35 5.10 1.35 5.10 2.25 0 0.45 -2.10 0.50 -4.50 0.10z"/>
 </g>
 <g fill="#624454">
  <path d="M14.30 34.40 c-0.45 -0.85 -0.80 -2.20 -0.80 -3 0 -1.30 0.15 -1.40 1.95 -1.40 2.40 0 3.55 1.30 3.55 4.10 0 1.90 -0.05 1.90 -1.95 1.90 -1.70 0 -2.10 -0.20 -2.75 -1.60z m4.20 0.45 c0 -1 -2.50 -4.35 -3.25 -4.35 -1.20 0 -1.20 0.70 0.10 2.90 1.20 2 3.15 2.95 3.15 1.45z"/>
  <path d="M15.75 33 c-0.90 -1.75 -0.20 -2.05 0.95 -0.40 0.90 1.30 1 1.90 0.30 1.90 -0.25 0 -0.80 -0.65 -1.25 -1.50z"/>
  <path d="M15.15 17.75 c-0.35 -0.40 -0.65 -1.40 -0.65 -2.25 0 -1.15 0.20 -1.50 1 -1.50 0.60 0 0.85 0.25 0.70 0.70 -0.15 0.35 0.10 1 0.50 1.45 0.45 0.45 0.80 1.15 0.80 1.55 0 1 -1.55 1 -2.35 0.05z"/>
  <path d="M18 17.65 c0 -0.50 0.25 -1.25 0.50 -1.65 0.35 -0.55 0.50 -0.35 0.50 0.90 0 0.85 -0.20 1.60 -0.50 1.60 -0.25 0 -0.50 -0.40 -0.50 -0.85z"/>
  <path d="M27.90 13.15 c0.60 -0.10 1.10 -0.45 1.10 -0.70 0 -0.80 -3.65 -2.70 -4.75 -2.50 -0.55 0.10 -1.25 0.20 -1.60 0.25 -0.35 0.05 -0.80 0.25 -0.95 0.45 -0.20 0.20 -0.80 0.35 -1.30 0.35 -1.40 0 -1.15 -1.85 0.35 -2.20 0.70 -0.20 1.25 -0.65 1.25 -1.05 0 -0.55 0.60 -0.75 2.45 -0.75 2.90 0 4.05 0.35 4.05 1.30 0 0.35 0.45 0.90 1 1.20 0.70 0.40 1 1.05 1 2.25 0 1.70 -0.05 1.75 -1.85 1.70 -1.20 -0.05 -1.45 -0.15 -0.75 -0.30z"/>
 </g>
 <g fill="#48655f">
  <path d="M22.75 38.55 c0 -1.05 0.60 -2.15 2 -3.65 l2 -2.15 -2 1.80 c-1.10 0.95 -2.60 2.15 -3.35 2.60 l-1.40 0.85 0 -1.45 c0 -0.80 0.30 -1.60 0.65 -1.70 0.30 -0.15 0 -0.30 -0.70 -0.30 -0.95 -0.05 -1.70 -0.60 -2.65 -2.05 -1.25 -1.90 -1.25 -2 -0.30 -2 0.55 0 1 -0.20 1 -0.50 0 -0.25 0.75 -0.50 1.70 -0.50 1.75 0 2.30 0.75 2.30 3.40 0 1.35 0.80 1.45 1.15 0.10 0.15 -0.55 0.60 -1 1.05 -1 0.45 0 0.80 -0.20 0.80 -0.50 0 -0.25 -0.20 -0.50 -0.50 -0.50 -0.25 0 -0.50 -0.80 -0.50 -1.75 0 -0.95 0.25 -1.75 0.50 -1.75 0.65 0 3 -2.45 3 -3.05 0 -0.25 0.70 -0.45 1.50 -0.45 1 0 1.50 -0.25 1.50 -0.75 0 -0.40 0.30 -1.65 0.60 -2.75 0.60 -1.80 0.80 -2 2.25 -2 1.40 0 1.65 0.20 1.65 1.20 0 2.15 -1.95 5.80 -4.05 7.75 -1.75 1.55 -2.10 2.25 -2.25 4.10 -0.35 4.10 -0.75 5.45 -1.45 5.45 -0.40 0 -0.75 -0.20 -0.75 -0.50 0 -0.25 -0.30 -0.50 -0.70 -0.50 -0.40 0 -0.90 0.80 -1.15 1.85 -0.55 2.35 -1.90 2.85 -1.90 0.70z m-2.70 -6.85 c-0.55 -0.75 -1.05 -1.20 -1.05 -1 0 0.50 1.70 2.75 1.95 2.55 0.10 -0.10 -0.30 -0.80 -0.90 -1.55z"/>
  <path d="M15.30 36.90 c-0.45 -0.60 -0.80 -1.35 -0.80 -1.65 0 -0.25 -0.55 -1.60 -1.25 -3 -0.65 -1.35 -1.25 -2.90 -1.25 -3.35 0 -0.45 -0.65 -2 -1.50 -3.40 -1.85 -3.15 -2.20 -4.45 -1.55 -6.15 0.50 -1.30 2.05 -1.90 2.05 -0.80 0 0.30 -0.35 0.45 -0.75 0.25 -0.40 -0.15 -0.75 -0.05 -0.75 0.20 0 0.70 1.85 1.55 2.65 1.20 0.65 -0.25 0.65 -0.45 0.05 -1.65 -0.40 -0.75 -1.25 -1.65 -1.95 -1.95 -1.85 -0.85 -1.55 -1.75 0.45 -1.50 1.70 0.20 1.70 0.20 1.05 -1.15 -0.55 -1.05 -0.95 -1.25 -2.05 -1.05 -1.30 0.25 -1.35 0.20 -0.95 -1.70 0.70 -3.75 2.25 -5.10 2.25 -1.95 0 1.40 0.20 1.75 1 1.75 0.80 0 1 0.35 1 1.50 0 0.95 0.25 1.50 0.70 1.50 0.40 0 0.90 0.70 1.10 1.65 0.25 1.25 0.40 1.40 0.65 0.70 0.35 -0.90 0.35 -0.90 1.15 0 0.45 0.50 0.90 1.60 1.05 2.40 0.20 1.35 0.20 1.35 0.30 -0.35 0.10 -2.70 2.30 -5.05 4.60 -5 0.90 0 1.75 0.30 1.85 0.55 0.25 0.70 4.10 0.70 4.10 0 0 -0.30 0.80 -0.45 1.90 -0.35 1.80 0.15 1.85 0.20 1.85 2.15 0 1.90 -0.05 2 -1.75 2.15 -0.95 0.10 -1.95 0.50 -2.15 0.90 -0.20 0.40 -1.05 0.70 -1.85 0.70 -1 0 -1.50 0.25 -1.50 0.75 0 0.50 -0.55 0.75 -1.75 0.75 -1.75 0 -1.75 0 -1.75 2.25 0 2.15 -0.05 2.25 -1.50 2.25 -2.05 0 -4 -1 -4 -2.10 0 -0.50 -0.25 -0.90 -0.55 -0.90 -0.30 0 -0.45 0.45 -0.30 1 0.15 0.55 0.05 1 -0.20 1 -0.25 0 -0.45 -0.35 -0.45 -0.75 0 -0.40 -0.45 -0.75 -1 -0.75 -0.55 0 -1 -0.20 -1 -0.50 0 -0.25 -0.35 -0.50 -0.75 -0.50 -0.40 0 -0.75 0.25 -0.75 0.50 0 0.30 0.25 0.50 0.50 0.50 0.30 0 0.50 0.45 0.50 1 0 0.55 0.25 1 0.50 1 0.30 0 0.50 0.60 0.50 1.30 0 0.70 0.35 1.60 0.75 2.05 0.40 0.40 0.70 1.35 0.65 2.05 -0.05 0.75 0.50 2.30 1.25 3.45 1.95 3.10 1.65 5.90 -0.35 3.05z m5.20 -15.90 c0 -0.25 1.20 -1 2.65 -1.70 3.50 -1.60 4.15 -2.40 2.85 -3.55 -0.70 -0.65 -1.40 -0.80 -2.75 -0.55 -1 0.20 -1.65 0.55 -1.45 0.85 0.15 0.25 0.70 0.35 1.15 0.20 1.05 -0.30 2.55 0.15 2.55 0.80 0 0.65 -2.80 1.95 -4.25 1.95 -1.25 0 -1.70 -0.70 -0.75 -1.25 0.30 -0.15 0.50 -0.55 0.50 -0.90 0 -0.40 -0.15 -0.40 -0.60 0.05 -0.70 0.70 -1 4.60 -0.35 4.60 0.25 0 0.45 -0.20 0.45 -0.50z m-6 -2.95 c0 -0.25 -0.30 -0.70 -0.70 -1 -0.60 -0.50 -0.65 -0.40 -0.45 0.40 0.25 1.05 1.15 1.50 1.15 0.60z"/>
  <path d="M19 10.30 c0 -1.25 0.80 -1.80 2.80 -1.80 0.65 0 1.20 -0.20 1.20 -0.50 0 -0.25 0.80 -0.50 1.75 -0.50 1.10 0 1.75 0.25 1.75 0.65 0 0.45 -0.55 0.65 -1.60 0.55 -0.90 -0.10 -1.25 -0.05 -0.75 0.10 1.25 0.40 1.05 1.20 -0.35 1.20 -0.65 0 -2 0.35 -3 0.75 -1.80 0.75 -1.80 0.75 -1.80 -0.45z"/>
  <path d="M32.75 8.85 c-0.20 -0.65 -0.85 -1.55 -1.55 -2.05 -0.65 -0.55 -1.20 -1.25 -1.20 -1.60 0 -0.50 -0.80 -0.70 -3 -0.70 -2.25 0 -3.10 -0.20 -3.30 -0.75 -0.20 -0.40 -0.85 -0.75 -1.50 -0.75 -0.90 0 -1.20 -0.30 -1.20 -1.05 0 -0.95 0.20 -1 1.65 -0.75 0.85 0.20 2.15 0.30 2.85 0.30 3.30 -0.05 9.50 4.85 9.50 7.60 0 1.35 -1.90 1.15 -2.25 -0.25z"/>
  <path d="M13.15 4.25 c1.80 -1.60 2.35 -1.55 2.35 0 0 1.10 -0.20 1.25 -1.85 1.25 l-1.90 -0.05 1.40 -1.20z"/>
  <path d="M16.10 2.90 c0.15 -0.35 0.95 -0.90 1.80 -1.25 1.55 -0.65 1.60 -0.60 1.60 0.60 0 1.10 -0.20 1.25 -1.80 1.25 -1.15 0 -1.70 -0.20 -1.60 -0.60z"/>
 </g>
 <g fill="#5e7f7a">
  <path d="M22.90 38.65 c-0.15 -1.10 0.30 -1.95 2.10 -3.85 1.55 -1.70 1.85 -2.15 0.90 -1.60 -0.70 0.50 -1.40 1.15 -1.55 1.45 -0.15 0.35 -0.95 1 -1.80 1.50 -1.35 0.80 -1.55 0.80 -1.55 0.15 0 -0.45 0.20 -0.80 0.45 -0.80 0.20 0 0.30 -1.10 0.15 -2.50 -0.15 -1.65 -0.05 -2.50 0.35 -2.50 0.30 0 0.55 -0.35 0.55 -0.75 0 -0.45 0.45 -0.75 1.25 -0.75 1 0 1.25 -0.25 1.25 -1.25 0 -0.80 0.30 -1.25 0.75 -1.25 0.40 0 0.75 -0.20 0.75 -0.50 0 -0.25 0.35 -0.50 0.75 -0.50 0.40 0 0.75 -0.40 0.75 -0.85 0 -0.50 0.90 -1.90 2 -3.05 2.30 -2.50 2.40 -2.90 1 -3.25 -1.20 -0.30 -1.35 -1.70 -0.15 -1.95 0.75 -0.15 0.75 -0.20 0 -0.85 -0.75 -0.60 -0.85 -0.55 -0.85 0.15 0 0.45 -0.40 0.80 -1 0.80 -0.80 0 -1 -0.35 -1 -1.75 0 -1.65 0.10 -1.75 1.75 -1.75 1.20 0 1.75 0.25 1.75 0.70 0 0.40 0.50 0.80 1.15 0.90 0.80 0.10 1.15 0.55 1.25 1.55 0.10 0.75 0.40 1.35 0.65 1.35 0.70 0 0.55 3.20 -0.35 5.30 -0.90 2.25 -2.55 4.20 -3.55 4.20 -0.35 0 -0.65 0.25 -0.65 0.60 0 0.30 -0.30 0.95 -0.70 1.35 -0.40 0.45 -0.85 2.35 -1.05 4.35 -0.25 3.05 -0.15 3.70 0.75 4.80 1.25 1.65 1.25 1.90 0 1.90 -0.55 0 -1 -0.20 -1 -0.50 0 -0.25 -0.35 -0.50 -0.75 -0.50 -0.55 0 -0.75 -0.60 -0.80 -2.10 l-0.05 -2.15 -0.85 2.65 c-0.90 2.95 -2.35 3.65 -2.65 1.25z m10.25 -17.20 c1.05 -2.65 0.55 -2.50 -0.60 0.20 -0.55 1.20 -1.90 2.90 -3.25 4 -1.25 1.05 -2.30 2.15 -2.30 2.45 0 1.05 5.40 -4.75 6.15 -6.65z"/>
  <path d="M14.65 35.15 c-2.40 -5.45 -2.35 -5.15 -0.25 -5.10 1.65 0 1.70 0.05 0.70 0.50 l-1.15 0.45 1.25 2.10 c0.70 1.20 1.70 2.20 2.30 2.30 1.20 0.20 1.25 -0.60 0.25 -2.40 -0.40 -0.70 -0.70 -2.10 -0.75 -3.10 0 -1.85 0.05 -1.90 1.75 -1.90 1.70 0 1.75 0.05 1.75 1.85 0 1.40 -0.15 1.70 -0.55 1.30 -0.45 -0.45 -0.75 -0.40 -1.25 0.10 -1.05 1.05 -0.85 1.75 0.55 1.75 1.10 0 1.25 0.20 1.25 1.75 0 1.55 -0.15 1.75 -1.25 1.75 -0.80 0 -1.25 0.30 -1.25 0.75 0 0.40 -0.45 0.75 -1.05 0.75 -0.75 0 -1.35 -0.70 -2.30 -2.85z"/>
  <path d="M11.55 27.40 c-0.40 -0.90 -0.90 -2.05 -1.10 -2.50 -0.35 -0.75 -0.20 -0.90 0.80 -0.90 0.80 0 1.25 0.30 1.25 0.75 0 0.40 0.25 0.75 0.50 0.75 0.30 0 0.50 -0.45 0.50 -1 0 -0.55 -0.20 -1 -0.50 -1 -0.25 0 -0.50 -0.35 -0.50 -0.75 0 -0.40 -0.45 -0.75 -1 -0.75 -0.55 0 -1 -0.35 -1 -0.75 0 -0.40 -0.35 -0.75 -0.75 -0.75 -0.40 0 -0.75 -0.35 -0.75 -0.85 0 -0.75 0.10 -0.75 0.95 0.05 1.05 0.95 3.30 0.65 2.85 -0.35 -0.15 -0.35 -0.45 -1 -0.60 -1.50 -0.20 -0.45 -0.85 -1 -1.55 -1.15 -1.40 -0.35 -1.30 -1.40 0.20 -1.60 0.80 -0.10 1.30 0.35 2.10 2.05 0.55 1.20 1.05 2.70 1.10 3.40 0 0.75 0.15 0.90 0.30 0.45 0.15 -0.40 0.55 -0.90 0.85 -1.10 0.40 -0.25 0.35 -0.40 -0.05 -0.40 -0.35 0 -0.65 -0.35 -0.65 -0.75 0 -0.40 -0.65 -1.70 -1.50 -2.85 -0.80 -1.10 -1.50 -2.35 -1.50 -2.75 0 -0.55 -0.40 -0.65 -1.50 -0.40 -1.80 0.40 -1.85 0 -0.70 -3.40 0.55 -1.60 1.55 -3 3.10 -4.40 2.20 -1.90 2.35 -2 2.50 -0.95 0.25 1.70 -0.25 2.50 -1.65 2.50 -0.95 0 -1.25 0.25 -1.25 1.05 0 0.55 -0.25 1.45 -0.50 2 -0.40 0.75 -0.35 0.95 0.25 0.95 0.40 0 0.75 0.35 0.75 0.75 0 0.40 0.20 0.75 0.50 0.75 0.25 0 0.60 0.55 0.80 1.25 0.15 0.70 0.50 1.25 0.75 1.25 0.25 0 0.45 0.35 0.45 0.75 0 0.40 0.35 0.75 0.75 0.75 0.90 0 1.75 1.55 1.75 3.20 0 0.80 -0.30 1.30 -0.75 1.30 -0.40 0 -0.75 0.20 -0.75 0.50 0 0.25 0.30 0.35 0.65 0.20 0.35 -0.10 0.95 0.30 1.35 1 0.35 0.70 1 1.40 1.45 1.55 0.50 0.20 0.40 -0.10 -0.35 -0.90 -2.15 -2.30 -1.05 -7.50 2 -9.15 1.55 -0.90 2.90 -0.85 2.90 0 0 0.40 0.30 0.80 0.60 0.90 0.35 0.15 -0.30 0.40 -1.50 0.55 -2.55 0.45 -4.05 2.40 -3.70 4.85 0.20 1.45 0.85 2 1.20 1 0.10 -0.30 1.60 -1.20 3.35 -2 2.40 -1.15 3.10 -1.30 2.85 -0.70 -0.15 0.40 -0.30 1.10 -0.30 1.55 0 0.60 -0.45 0.70 -2 0.55 -1.80 -0.15 -2 -0.05 -2 0.95 0 0.60 -0.35 1.40 -0.75 1.85 -0.40 0.40 -0.75 1.10 -0.75 1.55 0 0.70 -0.40 0.80 -2 0.65 -1.10 -0.10 -2 0 -2 0.20 0 0.25 -0.80 0.40 -1.75 0.40 -1.60 0 -1.75 0.10 -1.75 1.50 0 2 -1.10 1.95 -1.95 -0.10z m4.35 -4.85 c-0.75 -0.25 -1.05 0.35 -0.65 1.30 0.35 0.85 0.40 0.85 0.75 -0.10 0.20 -0.55 0.15 -1.10 -0.10 -1.20z"/>
  <path d="M20 18.60 c0 -0.25 0.35 -0.65 0.80 -0.80 0.40 -0.15 0.60 -0.55 0.40 -0.85 -0.20 -0.40 -0.15 -0.45 0.25 -0.25 0.30 0.20 0.90 0.15 1.25 -0.15 0.40 -0.35 1.10 -0.40 1.75 -0.15 1.10 0.40 1.10 0.40 0.15 1.25 -1.15 1.05 -4.60 1.75 -4.60 0.95z"/>
  <path d="M19.50 9.80 c0 -1.10 0.20 -1.30 1.50 -1.30 0.85 0 1.50 -0.20 1.50 -0.50 0 -0.30 1.40 -0.50 3.25 -0.50 l3.25 0 0 1.80 c0 1.40 -0.15 1.75 -0.85 1.60 -0.50 -0.10 -0.90 -0.45 -0.90 -0.80 0 -0.85 -1.25 -1.60 -2.75 -1.60 -1.20 0.05 -1.20 0.05 -0.25 0.65 0.90 0.50 0.80 0.60 -1 0.90 -1.10 0.15 -2.40 0.45 -2.85 0.70 -0.75 0.30 -0.90 0.10 -0.90 -0.95z"/>
  <path d="M31 6.10 c0 -0.75 -0.70 -1.05 -3.50 -1.60 -1.95 -0.35 -3.65 -0.85 -3.80 -1.10 -0.15 -0.20 -1.40 -0.40 -2.75 -0.40 -2.15 0 -2.50 -0.15 -2.35 -0.85 0.25 -1.30 5 -1.15 6.55 0.15 0.90 0.80 1 0.80 0.40 0.10 -0.55 -0.75 -0.55 -0.90 0.10 -0.90 1.85 0 6.15 2.55 7.80 4.65 0.60 0.75 0.50 0.85 -0.90 0.85 -1.15 0 -1.55 -0.20 -1.55 -0.90z"/>
 </g>
 <g fill="#689594">
  <path d="M23.15 38.40 c0 -0.90 0.15 -1.75 0.30 -1.90 0.15 -0.15 1.20 -1.25 2.30 -2.50 1.80 -1.95 1.85 -2.05 0.40 -1 -0.85 0.70 -2.60 2.10 -3.80 3.15 -2.05 1.70 -2.40 1.85 -4.30 1.55 -1.55 -0.25 -2.05 -0.55 -2.05 -1.25 0 -0.55 -0.20 -0.95 -0.45 -0.95 -0.60 0 -3.55 -6.05 -3.55 -7.20 0 -0.45 0.40 -0.80 1 -0.80 0.55 0 1 0.35 1 0.75 0 0.40 0.45 0.75 1 0.75 0.55 0 1 0.35 1 0.75 0 0.40 -0.30 0.75 -0.70 0.75 -1.35 0 -1.35 0.95 -0.05 3 1.15 1.80 2.55 2.55 3.40 1.70 0.15 -0.15 -0.15 -1 -0.70 -1.85 -0.50 -0.90 -0.95 -2.35 -0.95 -3.20 0 -1.55 0.10 -1.65 1.75 -1.65 1.65 0 1.75 0.10 1.75 1.75 0 1.40 0.20 1.75 1 1.75 0.65 0 1 0.35 1 1 0 0.65 0.35 1 1 1 1.20 0 1.40 -1.75 0.25 -2.20 -0.45 -0.15 -0.75 -0.95 -0.75 -2.05 0 -1.60 0.20 -1.90 1.75 -2.55 0.95 -0.35 2.10 -0.70 2.55 -0.70 0.75 0 0.75 0.10 -0.10 1.05 -0.50 0.60 -0.70 1 -0.40 0.90 0.90 -0.30 4.55 -3.75 5.50 -5.15 1.10 -1.70 1.90 -1.65 1.45 0.10 -0.35 1.45 -2.60 4.10 -3.45 4.10 -0.60 0 -1.95 2.70 -2.05 4 -0.05 0.40 -0.10 1.25 -0.15 1.90 -0.05 0.75 -0.40 1.10 -1.10 1.10 -0.80 0 -1 0.35 -1 1.50 0 0.85 -0.20 1.50 -0.50 1.50 -0.25 0 -0.50 0.55 -0.50 1.25 0 0.90 -0.25 1.25 -0.90 1.25 -0.70 0 -0.95 -0.40 -0.95 -1.60z m-2.95 -6.60 c-0.45 -0.75 -0.95 -1.25 -1.05 -1.10 -0.15 0.10 0.15 0.80 0.65 1.50 0.45 0.75 0.95 1.25 1.05 1.10 0.15 -0.10 -0.15 -0.80 -0.65 -1.50z"/>
  <path d="M14 25.75 c0 -0.40 -0.45 -0.75 -1 -0.75 -0.80 0 -1 -0.35 -1 -1.55 0 -0.85 0.25 -1.95 0.55 -2.50 0.70 -1.35 -0.60 -4.20 -2.15 -4.65 -1.05 -0.30 -1.05 -0.35 -0.25 -0.85 0.45 -0.25 1.10 -0.35 1.35 -0.20 0.85 0.50 2.50 4.10 2.60 5.60 0 0.90 0.15 0.60 0.35 -0.85 0.25 -1.85 0.10 -2.40 -0.80 -3.45 -1.85 -1.95 -1.45 -2.50 1.05 -1.55 0.85 0.30 1.30 0.85 1.30 1.60 0 0.85 0.15 0.95 0.45 0.45 0.30 -0.45 0.55 0.20 0.80 2 0.20 1.50 0.55 3.05 0.75 3.45 0.20 0.40 0.15 1.50 -0.10 2.40 -0.40 1.40 -0.65 1.60 -2.15 1.60 -1.20 0 -1.75 -0.25 -1.75 -0.75z m2.20 -2.05 c0.45 -1.10 0.40 -1.20 -0.45 -1.20 -0.40 0 -0.75 0.45 -0.75 1 0 1.20 0.75 1.35 1.20 0.20z"/>
  <path d="M20.50 24.25 c0 -1.65 0.10 -1.75 1.75 -1.75 1.65 0 1.75 0.10 1.75 1.75 0 1.65 -0.10 1.75 -1.75 1.75 -1.65 0 -1.75 -0.10 -1.75 -1.75z"/>
  <path d="M28.50 25.30 c0 -1.05 1.95 -3.30 2.90 -3.30 1 0 0.70 0.70 -1.15 2.50 -1.40 1.35 -1.75 1.50 -1.75 0.80z"/>
  <path d="M9.85 24.05 c-1.10 -1.90 -1.10 -3.05 0.10 -3.05 1.05 0 1.55 0.95 1.55 3.05 0 1.85 -0.55 1.85 -1.65 0z"/>
  <path d="M18.85 22.60 c-1.45 -1.60 -0.95 -5.60 1 -7.80 0.90 -1 1.60 -1.30 3.25 -1.30 5.10 0 7.40 -1.15 4.90 -2.50 -0.50 -0.30 -0.85 -0.80 -0.70 -1.20 0.15 -0.40 -0.20 -0.80 -0.90 -1 -2 -0.50 -2.90 -0.35 -2.60 0.45 0.25 0.55 -0.05 0.75 -1.05 0.75 -0.75 0 -2 0.45 -2.80 1.05 l-1.45 1 0 -1.50 c0 -1.45 0.15 -1.55 1.75 -1.55 1.15 0 1.75 -0.25 1.75 -0.70 0 -0.40 0.75 -0.80 1.90 -1 3.30 -0.55 4.10 -0.40 4.10 0.70 0 0.55 0.35 1 0.75 1 0.40 0 0.75 0.45 0.75 0.95 0 1.50 0.55 2.55 1.30 2.55 0.50 0 0.70 -0.60 0.70 -2 0 -1.95 0.05 -2 1.75 -2 1.70 0 1.75 0.05 1.75 2 0 1.90 -0.10 2 -1.50 2 -1.25 0 -1.50 0.20 -1.50 1.25 0 0.80 0.30 1.25 0.75 1.25 0.50 0 0.75 0.55 0.75 1.75 0 1.65 -0.10 1.75 -1.75 1.75 -1.45 0 -1.75 -0.20 -1.75 -1.05 0 -0.85 0.25 -1 1.25 -0.85 0.70 0.15 1.25 0.20 1.25 0.15 0 0 -0.65 -0.55 -1.45 -1.15 l-1.45 -1.05 0.30 1.05 c0.20 0.90 0.10 1 -0.80 0.80 -0.95 -0.25 -1.15 -0.05 -1.40 1.65 -0.30 1.80 -0.45 1.95 -2 1.95 -2.10 0 -2.15 -0.50 -0.20 -1.65 1.80 -1.10 1.90 -1.95 0.30 -2.85 -1.80 -0.95 -4.55 -0.25 -5.75 1.40 -0.80 1.20 -0.90 1.75 -0.50 3.80 0.50 2.85 0.40 3.15 -0.70 1.90z"/>
  <path d="M20.50 18.65 c0 -0.70 3.10 -2.55 3.80 -2.30 0.80 0.30 0.90 0.95 0.20 1.40 -0.25 0.15 -0.50 0.05 -0.50 -0.20 0 -0.30 -0.35 -0.55 -0.75 -0.55 -0.40 0 -0.75 0.45 -0.75 1 0 0.65 -0.35 1 -1 1 -0.55 0 -1 -0.15 -1 -0.35z"/>
  <path d="M11.50 13 c-0.45 -0.85 -0.70 -0.90 -1.55 -0.45 -1.40 0.70 -1.75 0.25 -1 -1.35 0.40 -0.85 0.85 -1.20 1.35 -1 0.45 0.15 1.20 0.30 1.75 0.30 0.75 0 0.95 0.35 0.95 1.75 0 1.95 -0.70 2.30 -1.50 0.75z"/>
  <path d="M13.55 4.15 c0.40 -0.45 1.85 -1.30 3.20 -1.90 2.95 -1.30 6.85 -1.25 8.45 0.15 0.90 0.80 0.95 0.80 0.65 0 -0.25 -0.70 -0.15 -0.75 0.80 -0.35 0.60 0.25 1.50 0.60 2 0.75 1.55 0.55 1 1.70 -0.90 1.70 -0.95 0 -1.75 -0.20 -1.75 -0.45 0 -0.65 -7.05 -1.30 -7.45 -0.70 -0.55 0.90 -2.45 1.65 -4.10 1.65 -1.40 0 -1.50 -0.10 -0.90 -0.85z"/>
 </g>
 <g fill="#8ca988">
  <path d="M15 34.40 c0 -0.60 0.05 -0.95 0.15 -0.85 0.05 0.10 0.45 0.60 0.80 1.10 0.60 0.70 0.55 0.85 -0.15 0.85 -0.50 0 -0.80 -0.40 -0.80 -1.10z"/>
  <path d="M21.50 20.15 c0.40 -0.20 1.70 -0.70 2.90 -1.20 1.15 -0.50 2.10 -0.70 2.10 -0.45 0 0.75 -2.80 2 -4.35 1.95 -0.80 0 -1.10 -0.15 -0.65 -0.30z"/>
  <path d="M21 18.55 c0 -0.80 2.55 -2.50 3.30 -2.20 1.10 0.40 0.85 1.05 -0.80 1.90 -1.65 0.85 -2.50 0.95 -2.50 0.30z"/>
  <path d="M21.55 14.95 c0.65 -0.40 4.40 -0.70 3.90 -0.25 -0.10 0.10 -1.20 0.30 -2.40 0.45 -1.45 0.20 -2 0.10 -1.50 -0.20z"/>
 </g>
 <g fill="#77a5a4">
  <path d="M27.50 38.45 c0 -1.35 0.10 -1.50 0.80 -0.95 0.40 0.40 1 1.10 1.25 1.60 0.40 0.75 0.30 0.90 -0.80 0.90 -1.05 0 -1.25 -0.20 -1.25 -1.55z"/>
  <path d="M23.35 38.40 c-0.30 -1.15 -0.05 -1.55 2.90 -4.85 1.40 -1.60 1.45 -1.65 0.25 -1 -0.70 0.35 -1.45 0.60 -1.65 0.55 -0.25 -0.05 -0.30 0.10 -0.15 0.30 0.15 0.25 -0.15 0.85 -0.70 1.35 -0.90 0.80 -1 0.80 -1 0.10 0 -0.50 -0.40 -0.85 -1 -0.85 -0.55 0 -1 -0.25 -1 -0.55 0 -0.25 -0.55 -1.35 -1.25 -2.35 -0.70 -1 -1.25 -1.60 -1.25 -1.35 0 0.30 0.45 1.20 1 2 1.20 1.85 1.25 2.05 0.10 2.35 -0.65 0.20 -1.25 -0.25 -2 -1.40 -0.60 -0.95 -0.90 -1.70 -0.60 -1.70 0.25 0 0.50 -0.55 0.50 -1.25 0 -1.10 0.20 -1.25 1.75 -1.25 1.40 0 1.75 0.20 1.75 1 0 0.55 0.35 1 0.75 1 0.40 0 0.75 -0.20 0.75 -0.50 0 -0.25 0.45 -0.50 1.05 -0.50 0.75 0 0.95 0.25 0.75 0.75 -0.40 1.05 0.40 0.95 1.45 -0.25 0.50 -0.55 1.20 -1 1.50 -1 0.35 0 0.75 -0.40 0.85 -0.90 0.15 -0.50 0.95 -1.45 1.85 -2.05 1.45 -1.05 1.55 -1.05 1.55 -0.20 0 0.55 -0.80 1.70 -1.75 2.65 -0.95 0.90 -1.70 2 -1.65 2.45 0.15 1.95 -0.15 3.05 -0.85 3.05 -0.50 0 -0.75 0.50 -0.75 1.50 0 1 -0.25 1.50 -0.75 1.50 -0.45 0 -0.75 0.45 -0.75 1.25 0 1.55 -1.25 1.65 -1.65 0.15z"/>
  <path d="M15.80 37.25 c-0.45 -0.45 -0.80 -1.10 -0.80 -1.50 0 -0.35 -0.55 -1.75 -1.20 -3.10 -0.70 -1.30 -1.40 -3.05 -1.60 -3.90 -0.20 -0.80 -0.65 -1.95 -1 -2.50 -0.90 -1.25 -0.90 -1.75 0.05 -1.75 0.50 0 0.75 -0.55 0.75 -1.75 0 -0.95 0.20 -1.75 0.40 -1.75 0.55 0 0.60 -1.95 0.05 -2.25 -0.25 -0.20 -0.35 -0.55 -0.15 -0.80 0.50 -0.85 1.65 1.20 1.70 3 0 0.95 0.15 1.55 0.35 1.35 0.20 -0.20 0.30 -1.25 0.20 -2.30 -0.10 -1.70 0 -2 0.85 -2 0.55 0 1.15 -0.30 1.25 -0.60 0.15 -0.35 0.30 0.25 0.30 1.35 0.05 2.05 1.60 5.25 2.55 5.25 0.30 0 0.05 -0.65 -0.55 -1.45 -1.50 -2.05 -1 -5.85 1.10 -7.85 1.35 -1.30 1.90 -1.45 5.10 -1.55 2.95 -0.05 3.60 -0.25 3.90 -1 0.35 -0.80 0.40 -0.75 0.40 0.25 0.05 0.75 0.35 1.10 1.05 1.10 0.55 0 1 0.35 1 0.75 0 0.50 0.50 0.75 1.50 0.75 1.40 0 1.50 0.15 1.50 1.75 0 1.65 -0.10 1.75 -1.75 1.75 -1.10 0 -1.75 -0.25 -1.75 -0.65 0 -0.45 -0.60 -0.55 -1.95 -0.45 -1.70 0.15 -1.95 0.05 -2.25 -1.10 -0.25 -1.10 -0.60 -1.30 -2.20 -1.30 -2.80 0 -3.85 0.45 -4.75 1.95 -0.55 0.95 -0.70 2 -0.50 3.20 0.30 2 0.90 2.40 1.40 0.90 0.15 -0.50 0.65 -1.05 1.15 -1.20 0.45 -0.15 1.25 -0.40 1.75 -0.60 0.65 -0.30 0.85 -0.10 0.85 0.90 0 0.80 -0.35 1.35 -0.85 1.50 -0.75 0.20 -0.80 0.25 -0.10 0.30 0.90 0.05 1.45 1.45 1.45 3.70 0 1.20 -0.15 1.35 -1.75 1.35 -1.15 0 -1.75 -0.25 -1.75 -0.70 0 -0.40 -0.35 -0.85 -0.80 -1 -1.25 -0.50 -2.70 -0.35 -2.70 0.25 0 0.40 -0.80 0.50 -2.60 0.30 -1.55 -0.20 -2.35 -0.15 -1.95 0.10 0.40 0.25 0.70 1.45 0.75 3.15 0.05 1.75 0.45 3.35 1.15 4.55 1.05 1.75 1.55 2.10 3.05 1.90 0.45 -0.10 0.60 0.30 0.50 1.05 -0.20 1.40 -1.95 1.80 -3.10 0.65z m0.35 -14.80 c-0.40 -0.40 -0.90 -0.35 -1.70 0.25 -0.90 0.60 -0.95 0.80 -0.35 0.80 0.45 0 0.95 0.40 1.15 0.90 0.30 0.75 0.40 0.75 0.90 -0.30 0.35 -0.80 0.35 -1.30 0 -1.65z m15.50 -6.30 c-0.65 -0.40 -1.15 -1.10 -1.15 -1.45 0 -0.40 -0.25 -0.70 -0.55 -0.70 -0.30 0 -0.40 0.35 -0.25 0.80 0.15 0.45 0.30 0.95 0.30 1.20 0 0.25 0.40 0.55 0.90 0.65 1.65 0.45 1.85 0.30 0.75 -0.50z"/>
  <path d="M25.60 27.30 c0.15 -1.80 0.30 -2.05 1.80 -2.40 2.70 -0.70 2.75 -0.30 0.35 2.10 l-2.30 2.25 0.15 -1.95z"/>
  <path d="M32.80 22.65 c0.45 -1.05 0.90 -2.30 1.05 -2.75 0.30 -1.10 1.15 -1.20 1.15 -0.15 0 1.40 -1.60 4.75 -2.30 4.75 -0.60 0 -0.60 -0.30 0.10 -1.85z"/>
  <path d="M31 22.30 c0 -0.75 0.35 -1.30 1 -1.45 0.90 -0.25 0.95 -0.15 0.20 1.20 -0.90 1.75 -1.20 1.85 -1.20 0.25z"/>
  <path d="M9 20.25 c0 -1.30 0 -1.30 1.25 -0.40 1.55 1.15 1.55 1.65 0 1.65 -1 0 -1.25 -0.25 -1.25 -1.25z"/>
  <path d="M13.30 15.95 c-0.70 -0.85 -1.45 -2.05 -1.60 -2.70 -0.25 -1 -0.50 -1.15 -1.70 -0.90 l-1.45 0.25 0.70 -2.25 c0.40 -1.25 0.95 -2.75 1.25 -3.30 1.10 -2.15 8.25 -6.15 10.05 -5.70 1.45 0.40 1.15 1.55 -0.55 1.90 -1.20 0.25 -1.50 0.60 -1.50 1.60 0 0.65 -0.40 1.60 -0.85 2.05 -0.80 0.80 -0.80 0.85 0 1 0.45 0.10 0.90 0.65 0.90 1.25 0.05 0.85 0.10 0.90 0.30 0.25 0.15 -0.55 0.70 -0.90 1.45 -0.90 0.75 0 1.20 -0.30 1.20 -0.75 0 -0.50 0.55 -0.75 1.75 -0.75 1.20 0 1.75 0.25 1.75 0.75 0 0.40 -0.35 0.75 -0.75 0.75 -0.40 0 -0.75 0.35 -0.75 0.75 0 0.45 -0.45 0.75 -1.25 0.75 -0.75 0 -2.05 0.75 -3.25 1.80 -1.80 1.65 -2 1.70 -2 0.75 0 -0.80 -0.30 -1.05 -1.25 -1.05 -1.05 0 -1.25 -0.25 -1.25 -1.55 0 -0.85 -0.30 -1.85 -0.70 -2.25 -0.95 -0.90 -1.30 -0.90 -1.30 0.05 0 0.40 -0.20 0.75 -0.50 0.75 -0.25 0 -0.50 0.35 -0.50 0.75 0 0.40 0.25 0.75 0.50 0.75 0.30 0 0.50 0.80 0.50 1.75 0 1.40 0.20 1.75 0.95 1.75 0.75 0 1 0.45 1.15 2 0.10 1.10 0.15 2 0.10 2 -0.05 0 -0.70 -0.70 -1.40 -1.55z"/>
  <path d="M11.10 16.65 c-0.65 -0.15 -1.05 -0.50 -0.95 -0.80 0.30 -1 1.25 -0.95 1.85 0.10 0.30 0.60 0.45 1 0.40 1 -0.10 -0.05 -0.65 -0.20 -1.30 -0.30z"/>
  <path d="M31.65 12.15 c-0.40 -0.10 -0.65 -1.10 -0.65 -2.20 0 -1.60 0.20 -1.95 0.95 -1.95 0.55 0 1.10 -0.30 1.25 -0.60 0.45 -1.20 1.80 1.20 1.80 3.20 0 1.75 -0.10 1.90 -1.35 1.85 -0.80 0 -1.70 -0.15 -2 -0.30z"/>
  <path d="M23.50 2.95 c0 -1.55 0 -1.55 1.25 -0.75 0.70 0.45 1.25 0.60 1.25 0.30 0 -0.25 0.35 -0.50 0.75 -0.50 0.40 0 0.75 0.25 0.75 0.50 0 0.30 0.35 0.50 0.75 0.50 0.40 0 0.75 0.20 0.75 0.45 0 0.65 -1.35 1.05 -3.55 1.05 -1.85 0 -1.95 -0.10 -1.95 -1.55z"/>
 </g>
 <g fill="#84b9b8">
  <path d="M23.40 38.55 c-0.15 -1.20 0.25 -2 2.25 -4.25 1.35 -1.55 2.25 -2.80 2.10 -2.80 -0.20 0 -1.80 1.35 -3.55 3 -1.80 1.65 -3.80 3.15 -4.45 3.30 -1.95 0.50 -3.75 -0.20 -4.35 -1.70 -0.30 -0.75 -1.10 -2.45 -1.75 -3.80 -0.60 -1.40 -1.15 -2.90 -1.15 -3.40 0 -0.45 -0.65 -1.95 -1.50 -3.25 -0.85 -1.30 -1.50 -2.50 -1.50 -2.70 0 -0.20 0.60 -0.50 1.40 -0.60 1.25 -0.20 1.25 -0.20 -0.25 -0.30 -1.40 -0.05 -1.65 -0.25 -1.65 -1.30 0 -1.10 0.10 -1.20 1.20 -0.65 1.70 0.75 2.85 0.20 2.65 -1.20 -0.10 -0.65 -0.10 -0.85 0 -0.50 0.15 0.30 0.45 0.60 0.75 0.60 0.35 0 0.45 0.85 0.30 2.25 -0.25 1.90 -0.10 2.30 0.85 2.95 0.65 0.40 1.25 0.60 1.45 0.45 0.55 -0.60 0.30 -2.10 -0.45 -2.50 -0.40 -0.25 -0.80 -1.35 -0.90 -2.50 -0.10 -1.20 -0.75 -2.70 -1.50 -3.70 -0.70 -0.95 -1.55 -2.40 -1.90 -3.20 -0.30 -0.85 -0.65 -1.20 -0.80 -0.85 -0.15 0.30 -0.55 0.60 -1 0.60 -0.75 0 -0.60 -1.70 0.40 -4.40 0.90 -2.35 5.30 -5.60 7.60 -5.60 1.20 0 1.35 0.20 1.35 1.70 0 0.95 -0.30 1.85 -0.60 1.95 -0.35 0.15 -0.05 0.30 0.65 0.30 0.75 0.05 1.45 -0.30 1.65 -0.70 0.40 -1.05 3.80 -1.05 3.80 0 0 0.40 0.45 0.75 1 0.75 0.65 0 1 0.35 1 1 0 0.75 0.35 1 1.25 1 0.70 0 1.25 0.25 1.25 0.50 0 0.30 0.35 0.50 0.75 0.50 0.45 0 0.75 0.45 0.75 1.25 0 0.80 0.30 1.25 0.75 1.25 0.50 0 0.75 -0.50 0.75 -1.35 0.05 -1.20 0.10 -1.25 0.55 -0.50 0.25 0.45 0.75 0.85 1.05 0.85 0.45 0 0.45 -0.15 0 -0.60 -0.85 -0.85 -0.75 -2.90 0.10 -2.90 0.85 0 1.30 1.55 1.30 4.40 0 1.85 -0.15 2.10 -1.10 2.15 -0.65 0 -0.85 0.15 -0.50 0.30 0.30 0.10 0.60 1 0.60 1.95 0 0.95 0.25 1.70 0.50 1.70 0.30 0 0.50 0.40 0.50 0.90 0 1.60 -1.60 5.65 -2.30 5.95 -0.40 0.15 -0.70 0.50 -0.70 0.85 0 0.30 -0.85 1.35 -1.90 2.35 -1.80 1.70 -1.90 1.90 -2 5.40 -0.10 3 0.05 3.85 0.90 5.05 l1.05 1.50 -2 0 c-1.95 0 -2 -0.05 -2.20 -1.85 l-0.20 -1.90 -0.05 1.90 c-0.10 1.45 -0.30 1.85 -1.05 1.85 -0.65 0 -1 -0.45 -1.15 -1.45z m-4.90 -3.05 c0.60 -0.35 0.50 -0.80 -0.80 -2.60 -1.40 -2 -3.70 -3.20 -3.70 -1.90 0 0.95 2.80 5 3.45 5 0.15 0 0.65 -0.25 1.05 -0.50z m1.45 -4.20 c-0.55 -1 -1.15 -1.80 -1.30 -1.80 -0.40 0 0.45 2.20 1.30 3.35 1.20 1.60 1.25 0.50 0 -1.55z m7.20 -2 c0.20 0.20 0.55 -0.25 0.85 -1 0.25 -0.70 0.65 -1.25 0.90 -1.20 0.65 0.25 3.40 -3.20 4.30 -5.30 1.20 -2.85 0.95 -3.35 -0.45 -0.80 l-1.20 2.25 -0.05 -2.35 c0 -2.20 -0.10 -2.40 -1.25 -2.40 -0.80 0 -1.25 -0.30 -1.25 -0.75 0 -0.40 -0.40 -0.75 -0.90 -0.75 -0.45 0 -1.15 -0.45 -1.50 -1 -0.65 -1.05 -2.65 -1.30 -5 -0.70 -1.60 0.45 -2.60 2.65 -2.25 4.90 0.30 1.85 0.85 2.30 1.30 1.10 0.15 -0.40 1.15 -1.10 2.20 -1.60 1.05 -0.50 2.05 -0.95 2.30 -1.05 0.20 -0.10 0.35 0.35 0.35 1.05 0 1.10 -0.20 1.30 -1.50 1.30 -0.80 0 -1.50 0.25 -1.50 0.50 0 0.30 0.55 0.50 1.25 0.50 1.15 0 1.25 0.20 1.25 2 0 1.45 0.20 2 0.75 2 0.40 0 0.75 -0.35 0.75 -0.75 0 -0.55 0.55 -0.75 1.85 -0.75 l1.85 0 -3.10 3 c-1.70 1.65 -3.10 3.25 -3.10 3.60 0 0.30 0.65 0 1.40 -0.75 0.80 -0.75 1.55 -1.20 1.75 -1.05z m-4.85 -0.05 c0.20 -0.40 0.60 -0.75 1 -0.75 0.40 0 0.70 -0.35 0.70 -0.75 0 -0.40 0.30 -0.80 0.65 -0.85 0.30 -0.05 -0.65 -0.20 -2.15 -0.35 -1.50 -0.15 -2.85 -0.25 -2.90 -0.20 -0.10 0.05 0.05 0.90 0.40 1.85 0.60 1.85 1.80 2.40 2.30 1.05z m-6.15 -0.60 c-0.35 -0.10 -0.65 -0.65 -0.65 -1.20 0 -0.60 -0.35 -0.95 -1 -0.95 -0.55 0 -1 0.25 -1 0.50 0 0.95 1.20 1.95 2.25 1.95 0.55 0 0.70 -0.15 0.40 -0.30z m3.85 -4.90 c0 -0.15 -0.45 -0.80 -1 -1.40 -0.85 -0.90 -0.95 -1.45 -0.70 -3.35 0.40 -2.65 1.80 -4.90 3.35 -5.25 0.60 -0.15 2.45 -0.35 4.10 -0.45 3.30 -0.15 4.15 -1.10 2.30 -2.40 -0.60 -0.40 -0.90 -0.90 -0.70 -1.10 0.60 -0.55 -0.95 -1.30 -2.70 -1.30 -1 0 -1.60 0.25 -1.50 0.60 0.05 0.35 -0.55 0.70 -1.30 0.85 -1.50 0.30 -5.85 4.30 -5.85 5.40 0 0.95 -1.40 0.80 -1.70 -0.20 -0.20 -0.70 -0.20 -0.70 -0.15 0.10 0.05 0.60 0.55 1.05 1.20 1.15 1.05 0.15 1.65 1.35 1.65 3.50 0 1.30 1.75 4.10 2.55 4.10 0.25 0 0.45 -0.10 0.45 -0.25z m11.90 -7.55 c-0.80 -0.40 -1.40 -1.05 -1.40 -1.45 0 -0.40 -0.20 -0.75 -0.50 -0.75 -1.15 0 -0.30 2.15 1 2.65 1.55 0.60 2.20 0.30 0.90 -0.45z m-18.20 -7.10 c-0.40 -0.10 -0.70 -0.40 -0.70 -0.65 0 -0.85 -0.90 -0.45 -1.15 0.55 -0.15 0.65 0 1 0.45 1 0.40 0 0.70 0.40 0.70 0.90 0.05 0.65 0.20 0.55 0.75 -0.40 0.60 -1.10 0.60 -1.25 -0.05 -1.40z"/>
  <path d="M27.75 5.15 c-0.80 -0.15 -1.70 -0.45 -1.95 -0.70 -0.30 -0.25 -1 -0.45 -1.65 -0.45 -0.90 0 -1.15 -0.30 -1.15 -1.25 0 -1.40 0.60 -1.60 1.70 -0.50 0.40 0.40 1.15 0.70 1.65 0.65 2.30 -0.20 3.70 0.20 5 1.35 l1.40 1.20 -1.75 -0.05 c-0.95 0 -2.40 -0.15 -3.25 -0.25z"/>
 </g>
 <g fill="#97d2d0">
  <path d="M23.75 38.30 c0.05 -1.25 0.70 -2.45 2.25 -4.25 2.35 -2.85 2.55 -3.95 0.25 -1.55 -0.80 0.85 -1.90 1.50 -2.45 1.50 -0.75 0 -0.85 0.15 -0.40 0.45 0.80 0.45 -2.05 2.80 -4 3.30 -1.90 0.50 -3.90 -0.50 -3.90 -1.95 0 -0.65 -0.35 -1.45 -0.75 -1.80 -0.40 -0.35 -1.20 -2.10 -1.75 -3.90 -0.55 -1.80 -1.25 -3.55 -1.55 -3.95 -0.40 -0.45 -0.40 -0.65 0 -0.65 0.30 0 0.55 -0.20 0.55 -0.50 0 -0.25 -0.30 -0.35 -0.65 -0.20 -0.85 0.30 -2.35 -2.35 -2.35 -4.10 0 -1.10 0.15 -1.25 0.60 -0.80 0.90 0.90 3.40 0.75 3.40 -0.15 0 -0.40 0.20 -0.75 0.50 -0.75 0.25 0 0.35 1.05 0.15 2.50 -0.25 2.05 -0.15 2.50 0.50 2.50 0.40 0 0.85 0.25 0.95 0.60 0.35 0.95 1.40 -0.10 1.40 -1.40 0 -0.75 -0.30 -1.20 -0.75 -1.20 -0.65 0 -1.10 -2 -0.80 -3.65 0.05 -0.25 -0.45 -1.05 -1.10 -1.80 -0.65 -0.80 -1.50 -2.20 -1.85 -3.10 -0.90 -2.20 -0.85 -2.20 -1.75 -1.45 -1.25 1.05 -1.40 0.25 -0.55 -2.40 1.50 -4.45 6.60 -8.05 11.45 -8.10 2.30 0 2.35 0.05 2.40 1.65 l0.05 1.60 0.35 -1.50 c0.20 -1.05 0.45 -1.30 0.75 -0.85 0.20 0.35 0.75 0.60 1.20 0.55 0.50 -0.05 1.25 0.05 1.75 0.30 0.45 0.20 1.15 0.25 1.50 0.10 0.35 -0.15 1.05 0.05 1.55 0.45 0.80 0.55 0.85 0.80 0.30 1.45 -0.70 0.85 -3.75 1.05 -4.25 0.25 -0.50 -0.80 -2.25 -0.60 -2.25 0.25 0 0.45 0.45 0.75 1.25 0.75 0.80 0 1.25 0.30 1.25 0.75 0 0.45 0.45 0.75 1.20 0.75 0.65 0 1.35 0.35 1.50 0.80 0.50 1.25 0.35 3.70 -0.20 3.70 -0.25 0 -0.50 -0.30 -0.50 -0.70 0 -0.40 -0.35 -0.80 -0.75 -1 -0.40 -0.15 -0.75 -0.60 -0.75 -1 0 -0.40 -0.80 -1 -1.85 -1.35 -1.50 -0.50 -1.90 -0.45 -2.35 0.15 -0.30 0.40 -1.05 0.90 -1.70 1.10 -1.40 0.45 -5.60 4.55 -5.60 5.50 0 0.40 0.25 0.90 0.50 1.05 0.30 0.15 0.50 1.40 0.50 2.75 0 1.90 0.30 2.75 1.30 3.95 0.70 0.85 1.50 1.40 1.80 1.25 0.25 -0.20 -0.10 -0.95 -0.85 -1.70 -0.85 -0.90 -1.25 -1.75 -1.10 -2.20 0.50 -1.25 1.35 -0.95 1.35 0.45 0 1.35 0.85 1.70 1.30 0.50 0.15 -0.40 1.50 -1.30 3 -1.95 1.50 -0.70 2.85 -1.60 3 -2.05 0.50 -1.25 -1.10 -2.65 -2.70 -2.40 -3.05 0.45 -3.55 0.70 -4.55 2.25 -0.85 1.35 -1.05 1.45 -1.05 0.65 0 -0.55 0.65 -1.75 1.45 -2.65 1.45 -1.55 1.60 -1.60 5.75 -1.60 2.35 0 4.30 0.10 4.30 0.25 0 0.10 -0.50 0.70 -1.10 1.30 -1.15 1.05 -1.15 1.05 -0.10 0.75 0.75 -0.20 1.20 -0.10 1.40 0.45 0.15 0.40 0.60 0.75 1.05 0.75 0.40 0 0.75 0.35 0.75 0.75 0 0.50 -0.55 0.75 -1.75 0.75 -1.55 0 -1.75 0.15 -1.75 1.25 0 0.80 -0.55 1.60 -1.50 2.35 -1.90 1.40 -2.15 4.25 -0.45 4.50 1.05 0.15 1 0.20 -0.35 1.60 l-1.45 1.45 -0.15 -1.35 c-0.15 -1.15 -0.25 -1.20 -0.90 -0.55 -0.45 0.40 -1.35 0.75 -2.10 0.80 -0.75 0 -1.05 0.15 -0.70 0.30 0.30 0.10 0.60 0.50 0.60 0.85 0 0.45 0.45 0.60 1.25 0.40 1.45 -0.25 1.60 0.20 0.40 1.50 -0.65 0.70 -0.70 1.05 -0.25 1.50 0.45 0.45 0.60 0.35 0.60 -0.50 0 -0.70 0.30 -1.10 0.80 -1.10 1 0 4.45 -2.95 6.35 -5.45 1.75 -2.30 3.50 -5.90 3.20 -6.70 -0.10 -0.35 -0.65 0.40 -1.20 1.65 -0.55 1.25 -1.70 2.90 -2.60 3.70 -1.70 1.60 -1.95 1.45 -0.85 -0.60 0.40 -0.75 0.85 -1.90 1 -2.60 0.45 -1.95 0.90 -2.40 2.95 -2.75 2.25 -0.45 2.35 0 0.80 3.85 -0.65 1.65 -1.90 3.50 -3.45 4.95 -1.55 1.50 -2.40 2.75 -2.40 3.50 0 0.65 -0.15 2.60 -0.30 4.35 -0.20 2.25 -0.15 3.05 0.25 2.80 0.50 -0.30 1.45 0.60 1.45 1.45 0 0.20 -0.80 0.35 -1.75 0.35 -1.45 0 -1.75 -0.20 -1.80 -1.10 l0 -1.15 -0.45 1.15 c-0.70 1.75 -1.80 1.35 -1.75 -0.60z m-5 -2.80 c0.20 -0.30 -0.25 -1.55 -1 -2.75 -0.95 -1.70 -1.60 -2.25 -2.50 -2.25 -1.55 0 -1.55 0.70 -0.20 3 1.50 2.45 2.95 3.20 3.70 2z m1.05 -4.50 c-1.50 -2.30 -2 -2.55 -1.30 -0.75 0.75 2 2.20 3.95 2.40 3.30 0.10 -0.35 -0.40 -1.50 -1.10 -2.55z m3.55 -6.50 c-0.05 -0.60 -0.35 -0.95 -0.80 -0.90 -1.10 0.20 -1.25 1.30 -0.20 1.55 0.50 0.15 0.95 0.25 1 0.30 0.05 0 0.05 -0.40 0 -0.95z m-6.65 -13.50 c1.50 -2.30 1.60 -2.60 0.55 -2.15 -0.85 0.30 -2.75 4.15 -2.05 4.15 0.10 0 0.75 -0.90 1.50 -2z m0.20 -6.95 c-0.30 -0.10 -0.70 0.10 -0.90 0.45 -0.20 0.35 -0.60 0.50 -0.80 0.35 -0.25 -0.15 -0.50 0.45 -0.55 1.30 l-0.10 1.60 1.45 -1.75 c0.80 -0.95 1.20 -1.85 0.90 -1.95z"/>
  <path d="M31.15 15.65 c-0.90 -0.35 -0.80 -2.15 0.10 -2.15 0.55 0 0.75 -0.55 0.75 -1.85 l0.05 -1.90 1.20 1.40 c1.60 1.85 1.60 1.05 0 -1.15 -0.75 -1.05 -1.25 -2.35 -1.25 -3.40 0 -1.70 0 -1.75 1 -0.85 1.20 1.10 2 3.75 2 6.65 0 1.90 -0.10 2.10 -1.25 2.10 -0.80 0 -1.25 0.30 -1.25 0.75 0 0.75 -0.30 0.85 -1.35 0.40z"/>
 </g>
 <g fill="#a4e3e2">
  <path d="M24 38.25 c0 -1.35 0.45 -2.25 1.90 -3.80 l1.85 -2 -0.10 3.40 c-0.05 1.85 0 3.10 0.15 2.75 0.25 -0.50 0.45 -0.50 1 -0.05 1.30 1.05 0.75 1.45 -2.05 1.45 l-2.75 0 0 -1.75z"/>
  <path d="M17 36.75 c0 -0.40 0.35 -0.75 0.75 -0.75 1.30 0 1.40 -1.40 0.20 -3.10 -1.65 -2.45 -2.40 -2.95 -3.50 -2.35 -0.80 0.40 -1.05 0.25 -1.45 -0.80 -0.30 -0.75 -0.50 -1.60 -0.50 -2 0 -0.40 -0.25 -0.85 -0.50 -1 -0.85 -0.55 -2.50 -4.15 -2.50 -5.50 0 -1.10 0.15 -1.20 0.95 -0.75 1.25 0.65 1.35 0.65 2.25 -0.30 0.75 -0.70 0.80 -0.60 0.70 1.50 -0.10 2.65 -0.10 2.60 1.75 3.05 1.25 0.35 1.35 0.25 1.35 -1.15 0 -0.80 -0.30 -1.60 -0.65 -1.75 -0.45 -0.15 -0.65 -1 -0.60 -2.20 0.05 -1.45 -0.25 -2.25 -1.35 -3.40 -0.80 -0.80 -1.65 -2.30 -1.95 -3.35 -0.55 -2.05 -1.15 -2.40 -1.90 -1.05 -0.25 0.50 -0.60 0.75 -0.75 0.60 -0.45 -0.45 1.20 -5.10 2.15 -6.10 1.05 -1.05 2.55 -0.65 2.55 0.70 0 1.05 0.55 1.20 1.35 0.40 0.30 -0.30 0.80 -0.40 1.10 -0.25 0.80 0.50 0.65 1.65 -0.20 2 -0.40 0.15 -0.75 0.55 -0.75 0.90 0 0.35 -0.70 1.05 -1.55 1.50 -1.40 0.80 -1.45 0.95 -0.75 1.70 0.45 0.40 0.80 1.10 0.80 1.50 0 0.40 0.25 0.70 0.50 0.70 0.30 0 0.50 -0.40 0.50 -0.85 0 -1.15 3.30 -5.30 4.55 -5.75 0.75 -0.30 0.95 -0.85 0.95 -2.45 0 -1.30 0.35 -2.55 0.90 -3.15 0.85 -1.05 0.85 -1.05 -0.20 -0.15 -0.85 0.70 -1.75 0.85 -4 0.75 l-2.95 -0.15 2.25 -1.05 c3 -1.45 7.05 -1.55 8.25 -0.20 0.50 0.55 1.10 0.85 1.35 0.70 0.25 -0.15 0.95 0.05 1.60 0.45 0.80 0.55 1.35 0.60 1.70 0.25 0.55 -0.55 2 0.05 3.05 1.25 0.50 0.60 0.20 0.80 -1.70 1.05 -1.25 0.20 -2.25 0.55 -2.25 0.85 0 0.25 0.25 0.45 0.50 0.45 0.30 0 0.50 0.70 0.50 1.50 0 1 0.25 1.50 0.75 1.50 0.50 0 0.85 0.70 1.05 2 0.30 1.80 0.50 2 1.70 2 1.30 0 1.45 0.20 1.75 2.40 0.50 3.60 -1.10 7.65 -4.10 10.60 -1.35 1.25 -3.30 3.40 -4.35 4.70 -2.70 3.30 -5.55 5.30 -7.65 5.30 -1.15 0 -1.65 -0.25 -1.65 -0.75z m3.15 -5.65 c-0.75 -1.15 -1.60 -2.05 -1.80 -2.10 -0.60 0 0.15 2 1.30 3.60 1.65 2.25 2.10 0.80 0.50 -1.50z m4.45 0.40 c0.10 0.15 1.25 -0.60 2.55 -1.70 3.65 -2.95 7.30 -8.65 6.75 -10.40 -0.15 -0.35 -0.85 0.50 -1.55 1.90 -0.75 1.45 -2.15 3.30 -3.20 4.15 l-1.90 1.60 -0.15 -1.30 c-0.20 -1.45 2.10 -4.25 3.45 -4.25 0.45 0 1 -0.35 1.15 -0.80 0.45 -1.20 0.35 -2.70 -0.20 -2.70 -0.25 0 -0.50 -0.20 -0.50 -0.50 0 -0.25 0.50 -0.50 1.15 -0.50 1.05 -0.05 1.05 -0.05 -0.25 -1.05 -0.80 -0.55 -1.40 -1.40 -1.40 -1.85 -0.05 -0.75 -0.10 -0.75 -0.70 0.05 -0.35 0.45 -0.90 0.85 -1.25 0.85 -0.30 0 -0.55 0.25 -0.55 0.50 0 0.30 0.45 0.50 1 0.50 0.85 0 0.95 0.15 0.50 0.95 -0.25 0.55 -0.50 1.50 -0.50 2.15 0 0.75 -0.40 1.35 -1.10 1.65 -0.90 0.40 -1.30 1.25 -1.85 3.65 -0.55 2.40 -0.95 3.10 -1.65 3.10 -0.50 0 -0.90 0.25 -0.90 0.50 0 0.30 -0.80 0.50 -1.75 0.50 -1.75 0 -2.15 0.60 -1.35 1.85 0.30 0.45 0.60 0.35 1.10 -0.35 0.40 -0.55 1.30 -1 2 -1 0.70 0 1.60 -0.30 2 -0.60 0.35 -0.35 -0.15 0.40 -1.20 1.70 -1.10 1.35 -1.75 2.60 -1.50 2.95 0.20 0.40 0.55 0.20 1 -0.60 0.35 -0.65 0.70 -1.10 0.80 -0.95z m-8.85 -3 c-0.50 -0.55 -1.15 -1 -1.45 -1 -0.30 0 0 0.45 0.70 1 1.60 1.25 1.90 1.25 0.75 0z m2.45 -2.30 c0.40 -1.50 0 -2.30 -0.50 -1 -0.15 0.45 -0.80 0.80 -1.40 0.80 -1.05 0.05 -1.05 0.05 -0.10 0.75 1.35 1.05 1.65 0.95 2 -0.55z m3.75 0.35 c0.35 -0.25 0.55 -0.65 0.35 -0.95 -0.20 -0.30 0.15 -0.40 0.80 -0.20 1.05 0.25 1.10 0.20 0.45 -0.55 -0.45 -0.55 -0.50 -0.85 -0.10 -0.85 0.30 0 0.55 -0.20 0.55 -0.50 0 -0.70 -1.65 -0.65 -2.40 0.10 -0.45 0.45 -0.95 0.20 -2.10 -1.05 -1.50 -1.50 -1.80 -2.70 -0.75 -2.55 0.30 0 0.45 0.50 0.35 1 -0.20 1.15 1.15 1.35 1.75 0.30 0.20 -0.40 1.50 -1.25 2.85 -1.85 3.25 -1.60 3.90 -2.60 2.45 -4.05 -1 -1 -1.30 -1.05 -3.50 -0.55 -1.30 0.30 -2.45 0.50 -2.50 0.45 -0.05 -0.05 0.10 -0.40 0.35 -0.80 0.30 -0.50 1.65 -0.80 4.50 -0.90 3.85 -0.20 4 -0.25 4 -1.40 0 -0.70 -0.35 -1.35 -0.75 -1.50 -0.40 -0.20 -0.65 -0.50 -0.50 -0.75 0.30 -0.45 -2.30 -1.95 -3.45 -1.95 -0.40 0 -0.95 0.40 -1.25 0.85 -0.75 1.40 -1.30 0.30 -0.55 -1.10 0.70 -1.30 0.45 -2.10 -0.45 -1.50 -0.30 0.15 -0.55 0.85 -0.55 1.55 0 0.85 -0.95 2.15 -3.05 4.20 -3.05 2.95 -3.10 3 -2.25 4.20 0.45 0.70 0.80 2.25 0.80 3.45 0 1.35 0.30 2.45 0.75 2.85 0.40 0.30 0.85 1.10 1.05 1.65 0.35 1.15 1.65 2.85 2.15 2.85 0.15 0 0.60 -0.20 1 -0.45z m5.05 -7.70 c0 -0.30 -0.65 0.05 -1.40 0.80 -0.75 0.75 -1.65 1.35 -2 1.35 -0.35 0 -0.60 0.35 -0.60 0.80 0 0.60 0.50 0.40 2 -0.80 1.10 -0.85 2 -1.85 2 -2.15z m-2.45 -14.40 l-0.50 -1.20 0 1.30 c-0.05 0.70 0.10 1.45 0.30 1.65 0.60 0.60 0.70 -0.45 0.20 -1.75z"/>
  <path d="M31.80 12.15 c-0.60 -3.65 -0.45 -4.15 1.15 -4.15 1.20 0 1.45 0.25 1.75 1.55 0.15 0.85 0.30 2.20 0.30 3 0 1.25 -0.20 1.45 -1.45 1.45 -1.25 0 -1.45 -0.20 -1.75 -1.85z m1.95 -1.45 c-1.15 -1.80 -1.50 -1.20 -0.40 0.70 0.50 0.90 1 1.35 1.05 1.05 0.10 -0.25 -0.20 -1.05 -0.65 -1.75z"/>
 </g>
 <g fill="#acf6f7">
  <path d="M24.30 38.75 c-0.35 -1.45 0.55 -3.55 2.25 -5 l1.10 -1 -0.40 1.75 c-0.45 2.25 -0.40 4.05 0.25 4.70 0.35 0.35 0.50 0.30 0.50 -0.10 0 -0.35 0.25 -0.60 0.50 -0.60 0.30 0 0.50 0.35 0.50 0.75 0 0.55 -0.60 0.75 -2.20 0.75 -1.90 0 -2.25 -0.15 -2.50 -1.25z"/>
  <path d="M18 37 c0 -0.30 0.25 -0.95 0.60 -1.45 0.45 -0.75 0.35 -1.25 -0.55 -2.70 l-1.10 -1.75 1.25 0.55 c0.70 0.35 1.50 1.15 1.80 1.85 0.50 1.10 0.65 1.15 1.05 0.40 0.35 -0.65 0.05 -1.45 -1.30 -3.30 -1.75 -2.50 -2.15 -3.80 -1.25 -4.35 0.25 -0.15 0.90 0 1.40 0.30 1.30 0.80 4.25 -0.40 3.95 -1.65 -0.15 -0.45 0 -0.95 0.35 -1.10 0.40 -0.15 0.40 -0.35 -0.05 -0.65 -0.50 -0.35 -0.10 -0.95 1.30 -2.35 2.10 -2.05 2.35 -3.25 0.90 -5.30 -0.70 -1.05 -1.05 -1.10 -3.45 -0.80 -2.45 0.30 -2.55 0.30 -1.60 -0.40 0.60 -0.45 2.45 -0.80 4.45 -0.90 3.70 -0.15 4.40 -0.75 2.90 -2.30 -0.55 -0.50 -0.90 -1.15 -0.80 -1.40 0.20 -0.65 -2 -1.70 -3.60 -1.70 -0.90 0 -1.25 -0.30 -1.25 -0.95 0 -0.50 -0.50 -1.25 -1.10 -1.65 -1 -0.70 -1.05 -0.75 -0.15 -2.05 0.95 -1.50 2.30 -1.75 3.25 -0.60 0.35 0.45 0.90 0.70 1.20 0.60 0.30 -0.15 1 0.20 1.60 0.75 0.95 0.85 1.10 0.85 1.70 0.15 0.55 -0.65 0.80 -0.60 2.05 0.30 0.80 0.55 1.85 1.75 2.30 2.60 1 2 1.50 10.35 0.70 12.85 -0.45 1.40 -0.50 1.45 -0.35 0.35 0.25 -2.10 -0.45 -2.05 -1.45 0.10 -0.45 1.10 -2.95 4.05 -5.55 6.65 -2.55 2.55 -4.70 5.05 -4.70 5.55 0 1.15 1.05 1.10 1.35 -0.15 0.15 -0.55 0.50 -0.85 0.75 -0.70 0.25 0.15 1.15 -0.30 1.95 -1.10 0.80 -0.75 1.45 -1.10 1.45 -0.75 0 0.70 -3.30 4.05 -6.10 6.20 -1.85 1.35 -3.90 1.80 -3.90 0.85z m15 -20.45 c0 -0.25 -0.45 -0.55 -1.05 -0.70 -0.55 -0.15 -1.15 -0.75 -1.30 -1.30 -0.35 -1.30 -0.30 -1.30 -1.95 0.20 l-1.35 1.25 1.35 0 c0.70 0 1.30 0.25 1.30 0.50 0 0.30 0.70 0.50 1.50 0.50 0.85 0 1.50 -0.20 1.50 -0.45z m1.50 -4.45 c0 -1.05 -1.30 -3 -1.70 -2.55 -0.30 0.30 1.05 3.45 1.50 3.45 0.10 0 0.20 -0.40 0.20 -0.90z"/>
  <path d="M15.85 27.95 c-0.75 -0.55 -1.35 -1.30 -1.30 -1.60 0 -0.40 0.10 -0.40 0.30 0.05 0.10 0.30 0.65 0.60 1.15 0.60 0.50 0 1.05 0.35 1.20 0.80 0.50 1.25 0.10 1.30 -1.35 0.15z"/>
  <path d="M30.90 26.20 c0.30 -0.55 1 -1.40 1.65 -1.95 l1.15 -1 -1 1.70 c-1 1.85 -2.75 3 -1.80 1.25z"/>
  <path d="M16 25.55 c0 -0.30 0.25 -0.65 0.55 -0.85 0.30 -0.15 0.45 -0.85 0.30 -1.50 -0.25 -1.45 0.40 -1.60 1.10 -0.25 0.40 0.70 0.35 1 -0.20 1.25 -0.40 0.15 -0.75 0.60 -0.75 1.05 0 0.40 -0.20 0.75 -0.50 0.75 -0.25 0 -0.50 -0.20 -0.50 -0.45z"/>
  <path d="M15.30 17.35 c-0.75 -0.55 -0.80 -0.75 -0.20 -1.25 0.55 -0.40 0.80 -0.35 1.30 0.40 0.70 1.20 0.05 1.70 -1.10 0.85z"/>
  <path d="M16 13.55 c0 -0.90 3.05 -4.55 3.85 -4.55 1.10 0 0.75 0.70 -1.60 3 -1.25 1.20 -2.25 1.90 -2.25 1.55z"/>
  <path d="M15.25 8.55 c-0.35 -0.60 0.60 -1.20 1.25 -0.80 0.55 0.35 0.20 1.25 -0.50 1.25 -0.25 0 -0.55 -0.20 -0.75 -0.45z"/>
  <path d="M17.25 3.50 l-1.50 -0.30 1.15 -0.65 c0.65 -0.35 2.10 -0.70 3.20 -0.80 1.90 -0.20 1.95 -0.15 1.15 0.75 -1 1.10 -2.05 1.40 -4 1z"/>
 </g>
 <g fill="#c4f9f8">
  <path d="M28 39.20 c0 -0.45 0.25 -0.70 0.60 -0.60 0.90 0.30 1.05 1.40 0.20 1.40 -0.45 0 -0.80 -0.35 -0.80 -0.80z"/>
  <path d="M26 35.65 c0 -0.85 0.40 -1.85 0.85 -2.20 0.75 -0.65 0.80 -0.55 0.45 1.05 -0.45 2.35 -1.30 3.15 -1.30 1.15z"/>
  <path d="M21 34.30 c0 -0.40 0.25 -0.90 0.50 -1.05 0.30 -0.15 0.50 0.15 0.50 0.70 0 0.60 -0.20 1.05 -0.50 1.05 -0.25 0 -0.50 -0.30 -0.50 -0.70z"/>
  <path d="M23.85 32.45 c0.20 -0.65 0.45 -0.85 0.75 -0.55 0.55 0.55 0.15 1.60 -0.60 1.60 -0.20 0 -0.30 -0.45 -0.15 -1.05z"/>
  <path d="M30.50 22.65 c0.05 -0.55 2.50 -3.50 2.50 -3 0 0.80 -1.55 3.35 -2 3.35 -0.30 0 -0.50 -0.15 -0.50 -0.35z"/>
  <path d="M28 18.90 c0 -0.65 0.35 -1.55 0.75 -2.10 0.65 -0.85 0.75 -0.85 1.50 -0.10 0.45 0.45 0.60 0.80 0.30 0.80 -0.30 0 -0.55 0.35 -0.55 0.75 0 0.40 0.25 0.75 0.50 0.75 0.30 0 0.50 0.25 0.50 0.50 0 0.30 -0.65 0.50 -1.50 0.50 -1.25 0 -1.50 -0.20 -1.50 -1.10z"/>
  <path d="M34.15 14.75 c0.35 -3.50 -0.25 -5.65 -2.15 -7.60 -1.85 -2.05 -3 -1.10 -3 2.45 0 1 -0.20 1.30 -0.75 1.10 -0.40 -0.20 -0.60 -0.50 -0.45 -0.80 0.15 -0.25 -0.15 -0.80 -0.75 -1.20 -1.20 -0.85 -1.40 -2.70 -0.30 -2.70 0.95 0 0.95 -0.70 0 -1.50 -0.40 -0.35 -0.60 -0.85 -0.45 -1.10 0.15 -0.25 0.80 0 1.40 0.55 1.25 1.20 2.10 1.35 2.40 0.45 0.35 -0.95 2.70 0.80 3.70 2.75 1.10 2.10 1.65 10.85 0.70 10.85 -0.50 0 -0.55 -0.80 -0.35 -3.25z"/>
 </g>
</svg>