<?xml version="1.0" encoding="utf-8"?>
<!DOCTYPE svg PUBLIC "-//W3C//DTD SVG 1.0//EN" "http://www.w3.org/TR/2001/REC-SVG-20010904/DTD/svg10.dtd">
<svg version="1.0" xmlns="http://www.w3.org/2000/svg" width="40px" height="40px" viewBox="0 0 40 40" preserveAspectRatio="xMidYMid meet">
 <g fill="#1b1213">
  <path d="M27.50 38.25 c0 -2.15 0.50 -2.20 1.65 -0.30 1.10 1.90 1.10 2.05 -0.40 2.05 -1.10 0 -1.25 -0.20 -1.25 -1.75z"/>
  <path d="M22.35 37.95 c-0.25 -1 -0.35 -1 -1.45 -0.25 -1.40 1 -2.90 1.05 -2.90 0.05 0 -0.40 -0.35 -0.75 -0.75 -0.75 -0.40 0 -0.75 0.25 -0.75 0.50 0 1.35 -1.15 0.20 -2.45 -2.50 -1.85 -3.90 -1.60 -5.50 0.75 -5.50 0.95 0 1.70 0.20 1.70 0.45 0 0.25 0.50 0.55 1.15 0.65 0.70 0.10 1.15 0.55 1.25 1.30 0.10 0.60 0.40 1.10 0.65 1.10 0.25 0 0.45 0.85 0.50 1.90 0 1 0.15 1.55 0.30 1.25 0.10 -0.35 1 -0.65 1.95 -0.65 1.60 0 1.70 0.10 1.70 1.75 0 1.95 -1.20 2.45 -1.65 0.70z"/>
  <path d="M27 31.75 c0 -0.95 0.20 -1.75 0.45 -1.75 0.30 0 0.55 -0.75 0.65 -1.60 0.15 -1.45 0.35 -1.65 1.80 -1.80 1.40 -0.15 1.60 -0.35 1.60 -1.65 0 -0.90 0.25 -1.45 0.70 -1.45 0.45 0 0.80 -1 1.05 -3.25 0.30 -2.80 0.45 -3.25 1.35 -3.25 0.90 0 0.95 0.20 0.65 2.15 -0.50 3.35 -1.75 5.95 -4.20 8.50 -1.25 1.30 -2.30 2.80 -2.35 3.25 -0.15 2.30 -0.25 2.60 -0.95 2.60 -0.50 0 -0.75 -0.55 -0.75 -1.75z"/>
  <path d="M10.90 27.15 c-0.70 -1.65 -0.70 -1.90 -0.05 -2.05 1.45 -0.35 2.15 0.35 2.15 2.15 0 2.35 -1.05 2.25 -2.10 -0.10z"/>
  <path d="M14 23 c0 -1.40 -0.15 -1.50 -1.75 -1.50 -0.95 0 -1.75 -0.25 -1.75 -0.55 0 -0.35 -0.45 -0.95 -0.95 -1.40 -0.70 -0.65 -1 -1.65 -1.10 -4.30 l-0.20 -3.50 1.95 -0.15 c2.40 -0.20 2.80 0.30 2.80 3.80 0 1.40 0.25 2.60 0.50 2.60 0.30 0 0.50 0.70 0.50 1.50 0 1.40 0.15 1.50 1.75 1.50 1.65 0 1.75 0.10 1.75 1.75 0 1.65 -0.10 1.75 -1.75 1.75 -1.60 0 -1.75 -0.10 -1.75 -1.50z"/>
  <path d="M18 21.25 c0 -1.40 -0.20 -1.75 -1 -1.75 -0.85 0 -1 -0.30 -0.95 -2.35 0.05 -4.50 1.70 -5.95 6.85 -6.10 2.10 -0.05 2.10 -0.05 2.10 1.70 0 1.60 0.10 1.75 1.55 1.75 1.50 0 1.50 0.05 1.35 2.40 -0.15 2.35 -0.15 2.35 -2 2.50 -1.25 0.10 -1.90 0.40 -1.90 0.90 0 0.40 -0.45 0.70 -1 0.70 -0.65 0 -1 0.35 -1 1 0 0.85 -0.35 1 -2 1 -1.95 0 -2 -0.05 -2 -1.75z m2.95 -3.70 c0.35 -0.25 0.60 -0.70 0.45 -1.05 -0.10 -0.35 -0.50 -0.20 -1.10 0.45 -0.95 1.05 -0.60 1.40 0.65 0.60z"/>
  <path d="M29 16.25 c0 -1.65 0.10 -1.75 1.75 -1.75 1.65 0 1.75 0.10 1.75 1.75 0 1.65 -0.10 1.75 -1.75 1.75 -1.65 0 -1.75 -0.10 -1.75 -1.75z"/>
  <path d="M10.75 6 c0.15 -0.25 0.95 -0.95 1.75 -1.50 l1.50 -1.05 0 1.50 c0 1.45 -0.15 1.55 -1.80 1.55 -1 0 -1.65 -0.20 -1.45 -0.50z"/>
  <path d="M19 1.75 c0 -0.95 3.10 -1.50 4.45 -0.80 1.80 1 1.15 1.55 -1.70 1.55 -2.05 0 -2.75 -0.20 -2.75 -0.75z"/>
 </g>
 <g fill="#292320">
  <path d="M16.15 38 c-0.65 -0.25 -1.15 -0.75 -1.15 -1.10 0 -0.35 -0.80 -2.20 -1.75 -4.10 -0.95 -1.85 -1.75 -3.85 -1.75 -4.40 0 -0.55 -0.65 -1.95 -1.50 -3.15 -1.25 -1.80 -1.50 -2.70 -1.50 -4.95 0 -2.35 0.15 -2.80 0.90 -2.80 0.80 -0.05 0.80 -0.05 0 -0.55 -0.50 -0.25 -0.90 -0.95 -0.90 -1.45 0 -0.75 0.35 -1 1.50 -1 1.10 0 1.40 -0.20 1.20 -0.75 -0.20 -0.50 -0.80 -0.70 -1.65 -0.65 -1.25 0.15 -1.30 0.05 -1.10 -1.85 0.20 -2.30 1 -4.10 2.50 -5.45 1.05 -0.95 1.05 -0.95 1.05 0.50 0 0.85 -0.45 2.40 -1 3.45 l-1.05 2 1.60 0.15 c1.55 0.15 1.55 0.25 1.35 2.25 -0.20 1.45 0 2.35 0.45 2.80 0.45 0.40 0.65 1.35 0.55 2.45 -0.15 1.65 -0.30 1.90 -1.80 2.10 -1.55 0.25 -1.60 0.30 -0.90 1.25 0.45 0.55 0.80 1.60 0.80 2.40 0 0.80 0.25 1.35 0.70 1.35 0.35 0 0.80 0.70 1 1.50 0.25 1.35 0.45 1.50 2.30 1.50 1.75 0 2 0.15 2 1.20 0 0.75 0.35 1.30 1 1.45 0.75 0.20 1 0.70 1.05 2.20 0 1.05 0.15 1.60 0.30 1.30 0.10 -0.35 1 -0.65 1.95 -0.65 1.60 0 1.70 0.10 1.70 1.75 0 1.20 -0.25 1.75 -0.75 1.75 -0.40 0 -0.75 -0.35 -0.75 -0.75 0 -0.90 -0.05 -0.90 -1.80 0 -1.60 0.85 -2.90 0.90 -4.55 0.25z m2.35 -3 c0 -0.25 -0.20 -0.50 -0.50 -0.50 -0.25 0 -0.50 0.25 -0.50 0.50 0 0.30 0.25 0.50 0.50 0.50 0.30 0 0.50 -0.20 0.50 -0.50z m-1 -2.20 c0 -0.15 -0.25 -0.40 -0.60 -0.60 -0.35 -0.20 -0.40 -0.15 -0.20 0.20 0.35 0.60 0.80 0.80 0.80 0.40z m-2.50 -1.55 c0 -0.15 -0.10 -0.25 -0.25 -0.25 -0.15 0 -0.25 0.10 -0.25 0.25 0 0.15 0.10 0.25 0.25 0.25 0.15 0 0.25 -0.10 0.25 -0.25z m-2.50 -11.50 c0 -0.15 -0.10 -0.25 -0.25 -0.25 -0.15 0 -0.25 0.10 -0.25 0.25 0 0.15 0.10 0.25 0.25 0.25 0.15 0 0.25 -0.10 0.25 -0.25z m-1.15 -2.10 c-0.20 -0.15 -0.35 0 -0.35 0.35 0 0.35 0.15 0.50 0.35 0.35 0.15 -0.20 0.15 -0.50 0 -0.70z"/>
  <path d="M26.50 36 c0 -1.65 0.20 -2 0.95 -2 0.75 0 1 0.45 1.15 2 0.15 1.80 0.05 2 -0.95 2 -1 0 -1.15 -0.25 -1.15 -2z"/>
  <path d="M27.50 29.25 c0 -1.20 0.25 -1.75 0.75 -1.75 0.40 0 0.75 -0.35 0.75 -0.75 0 -0.55 0.55 -0.75 1.85 -0.75 l1.85 0 -2.10 2 c-1.15 1.15 -2.10 2.25 -2.10 2.50 0 0.30 -0.20 0.50 -0.50 0.50 -0.25 0 -0.50 -0.80 -0.50 -1.75z"/>
  <path d="M14 23.50 c0 -1.95 0.05 -2 1.75 -2 1.70 0 1.75 0.05 1.75 2 0 1.95 -0.05 2 -1.75 2 -1.70 0 -1.75 -0.05 -1.75 -2z m2 -0.75 c0 -0.15 -0.10 -0.25 -0.25 -0.25 -0.15 0 -0.25 0.10 -0.25 0.25 0 0.15 0.10 0.25 0.25 0.25 0.15 0 0.25 -0.10 0.25 -0.25z"/>
  <path d="M32.50 24 c0 -0.25 -0.35 -0.50 -0.75 -0.50 -0.50 0 -0.75 -0.55 -0.75 -1.75 0 -1.55 0.15 -1.75 1.25 -1.75 1.20 0 1.25 -0.15 1.25 -3 0 -2.70 0.10 -3 1.05 -3 1 0 1.05 0.20 0.80 2.65 -0.50 4.20 -0.80 5.80 -1.35 6.85 -0.55 1.05 -1.50 1.35 -1.50 0.50z"/>
  <path d="M19 19.50 c0 -1.65 0.15 -2 1 -2 0.80 0 1 -0.35 1 -1.75 l0 -1.75 3.05 0 c3.35 0 4.45 0.65 4.45 2.70 0 1.55 -1.10 2.75 -3.65 3.95 -2.70 1.25 -4.35 1.15 -4.40 -0.25 l0 -1.15 -0.45 1.15 c-0.70 1.65 -1 1.35 -1 -0.90z m3.50 -0.25 c0 -0.15 -0.10 -0.25 -0.25 -0.25 -0.15 0 -0.25 0.10 -0.25 0.25 0 0.15 0.10 0.25 0.25 0.25 0.15 0 0.25 -0.10 0.25 -0.25z m3.90 -2.80 c-0.15 -0.40 -0.35 -0.15 -0.55 0.50 -0.20 0.85 -0.15 1.05 0.25 0.65 0.25 -0.25 0.40 -0.80 0.30 -1.15z m-2.90 -0.70 c0 -0.15 -0.10 -0.25 -0.25 -0.25 -0.15 0 -0.25 0.10 -0.25 0.25 0 0.15 0.10 0.25 0.25 0.25 0.15 0 0.25 -0.10 0.25 -0.25z"/>
  <path d="M33.50 10.75 c0 -2 1.20 -2.45 1.70 -0.60 0.50 1.85 0.35 2.35 -0.70 2.35 -0.80 0 -1 -0.35 -1 -1.75z"/>
  <path d="M32 6.75 c0 -1 -0.25 -1.25 -1.25 -1.25 -0.70 0 -1.25 -0.20 -1.25 -0.50 0 -0.25 -0.30 -0.50 -0.60 -0.50 -0.35 0 -1.30 -0.35 -2.15 -0.80 -1.75 -0.95 -8.10 -1.20 -8.65 -0.40 -0.60 0.95 -2.45 1.70 -4.15 1.70 -1.40 0 -1.50 -0.10 -0.90 -0.85 1 -1.20 5.75 -3.15 7.85 -3.25 5.10 -0.15 9.50 1.45 12.15 4.45 1.80 2.05 1.85 2.65 0.20 2.65 -1 0 -1.25 -0.25 -1.25 -1.25z"/>
 </g>
 <g fill="#400e22">
  <path d="M15.35 17.65 c-0.20 -0.15 -0.35 -1.20 -0.35 -2.25 0 -2.20 1.50 -4.60 3.60 -5.70 1.55 -0.80 4.40 -0.95 4.40 -0.20 0 0.30 0.40 0.50 0.90 0.50 0.45 0 1.70 0.25 2.75 0.55 1.65 0.45 1.85 0.65 1.85 2.20 l0 1.70 -3.85 0.15 c-3.65 0.15 -3.85 0.20 -4.65 1.60 -0.95 1.80 -2 2.25 -2 0.90 0 -0.55 0.80 -1.70 1.80 -2.60 1.60 -1.40 1.70 -1.55 0.70 -1.40 -1.20 0.15 -2.90 2.45 -2.95 4.05 -0.05 0.85 -1.55 1.20 -2.20 0.50z m8 -4.95 c-0.15 -0.15 -0.60 -0.20 -0.95 -0.05 -0.40 0.15 -0.25 0.30 0.30 0.30 0.55 0.05 0.85 -0.10 0.65 -0.25z"/>
 </g>
 <g fill="#413431">
  <path d="M26.60 37.90 l-0.40 -1.65 -0.95 1.15 c-1.20 1.35 -2.75 1.45 -2.75 0.15 0 -0.90 -0.05 -0.90 -1.85 -0.05 -1.15 0.55 -2.50 0.80 -3.45 0.65 -1.40 -0.20 -1.75 -0.65 -3.40 -4.40 -1 -2.30 -1.80 -4.45 -1.80 -4.75 0 -0.30 -0.80 -1.95 -1.75 -3.70 -1.05 -1.95 -1.75 -3.90 -1.75 -4.95 0 -2 0.75 -2.85 1.15 -1.35 0.15 0.70 0.70 1 1.55 1 0.70 0 1.30 -0.15 1.30 -0.30 0 -0.85 -1.20 -2.30 -2.30 -2.70 -1.70 -0.65 -1.65 -2.50 0.10 -2.50 0.80 0 1.20 -0.25 1.05 -0.60 -0.10 -0.35 -0.80 -0.60 -1.55 -0.55 -1.15 0.10 -1.30 -0.10 -1.30 -1.45 0 -2.20 1.80 -5.70 3.55 -6.95 l1.45 -1 0 1.30 c0 1.35 -1 2.75 -1.95 2.75 -0.30 0 -0.55 0.45 -0.55 0.95 0 0.55 -0.15 1.30 -0.30 1.75 -0.25 0.60 0 0.80 0.85 0.80 1.25 0 2.45 1.80 2.45 3.60 0 0.55 0.40 0.90 1 0.95 2 0.15 2.15 0.20 2.55 1.20 0.35 0.95 0.40 0.95 0.40 -0.05 0.05 -0.60 0.85 -1.80 1.85 -2.70 1.50 -1.30 2.15 -1.55 3.35 -1.30 0.80 0.15 1.90 0.30 2.40 0.30 0.65 0 0.95 0.35 0.95 1.15 0 1 -0.20 1.10 -2.10 1 -2.15 -0.10 -2.15 -0.10 -0.50 0.40 1.75 0.50 1.95 0.90 1 1.90 -0.55 0.55 -0.50 0.65 0.25 0.40 0.65 -0.25 0.85 -0.05 0.85 0.90 0 1.10 -0.20 1.25 -1.75 1.25 -1.15 0 -1.75 0.25 -1.75 0.70 0 0.85 -1.10 1.30 -3.05 1.30 -0.95 0 -1.45 -0.25 -1.45 -0.75 0 -0.40 -0.20 -0.75 -0.50 -0.75 -0.25 0 -0.35 1.05 -0.15 2.55 l0.30 2.50 -1.95 -0.15 c-1.85 -0.15 -1.95 -0.25 -2.10 -2 -0.15 -1.80 -0.25 -1.90 -1.75 -1.85 -0.90 0 -1.30 0.15 -0.95 0.30 0.30 0.10 0.60 0.65 0.60 1.20 0 0.50 0.25 0.95 0.50 0.95 0.30 0 0.50 0.35 0.50 0.75 0 0.40 0.25 0.75 0.50 0.75 0.30 0 0.50 0.70 0.50 1.50 0 1.40 0.15 1.50 1.80 1.50 2.30 0 3.30 1.05 3.55 3.90 0.25 2.05 0.15 2.25 -0.40 1.50 -0.60 -0.75 -0.80 -0.75 -1.35 -0.10 -0.55 0.60 -0.50 0.75 0.25 1.05 0.50 0.20 1.10 0.55 1.30 0.85 0.30 0.40 0.50 0.35 0.70 -0.05 0.10 -0.35 0.55 -0.65 0.90 -0.65 0.35 0 1.40 -0.80 2.30 -1.75 1.15 -1.20 2.10 -1.75 3.05 -1.75 1.15 0 1.40 -0.20 1.40 -1.25 0 -0.90 0.25 -1.25 0.95 -1.25 0.75 0 0.90 0.30 0.75 1.60 -0.10 0.85 -0.50 1.75 -0.85 2 -0.45 0.30 -0.45 0.40 0.10 0.40 0.45 0 0.60 0.40 0.40 1.40 -0.20 0.95 0.05 2 0.65 3 l1 1.60 -1.50 0 c-1.25 0 -1.55 -0.25 -1.90 -1.60z m-9.70 -5.90 c-0.65 -1 -2.40 -1.40 -2.40 -0.50 0 0.25 0.30 0.35 0.65 0.20 0.40 -0.15 1 0.10 1.35 0.55 0.90 1.05 1.10 0.95 0.40 -0.25z m-1.05 -9.10 c-0.15 -0.40 -0.30 -0.25 -0.30 0.30 -0.05 0.55 0.10 0.85 0.25 0.65 0.15 -0.15 0.20 -0.60 0.05 -0.95z m4.65 -2.05 c0 -0.35 0.80 -0.95 1.80 -1.30 2.15 -0.80 2.05 -1.10 -0.25 -0.65 -1.10 0.25 -1.85 0.75 -2.10 1.50 -0.25 0.65 -0.20 1.10 0.05 1.10 0.30 0 0.50 -0.30 0.50 -0.65z m-4.50 -0.35 c0 -0.25 -0.55 -0.50 -1.25 -0.50 -0.70 0 -1.25 0.25 -1.25 0.50 0 0.30 0.55 0.50 1.25 0.50 0.70 0 1.25 -0.20 1.25 -0.50z"/>
  <path d="M29.50 27.05 c0 -1.45 0.15 -1.55 1.80 -1.55 1.95 0 1.90 0.45 -0.30 2 l-1.50 1.05 0 -1.50z"/>
  <path d="M31.50 20.75 c0 -1.40 0.20 -1.75 1 -1.75 0.95 0 1 -0.35 1 -4.75 0 -3.75 0.15 -4.75 0.70 -4.75 1.05 0 1.40 2.45 1.10 7.25 -0.40 5.30 -0.55 5.75 -2.35 5.75 -1.30 0 -1.45 -0.15 -1.45 -1.75z m1.50 1 c0 -0.15 -0.10 -0.25 -0.25 -0.25 -0.15 0 -0.25 0.10 -0.25 0.25 0 0.15 0.10 0.25 0.25 0.25 0.15 0 0.25 -0.10 0.25 -0.25z"/>
  <path d="M10 18.20 c0 -0.40 0.25 -0.60 0.50 -0.45 0.30 0.15 0.50 0.50 0.50 0.80 0 0.25 -0.20 0.45 -0.50 0.45 -0.25 0 -0.50 -0.35 -0.50 -0.80z"/>
  <path d="M29.15 17.65 c-0.35 -0.10 -0.65 -1 -0.65 -1.95 0 -1.55 0.15 -1.70 1.45 -1.70 2.45 0 3.05 0.45 3.05 2.30 0 1.60 -0.10 1.70 -1.60 1.65 -0.90 0 -1.95 -0.15 -2.25 -0.30z m1.85 -1.40 c0 -0.15 -0.10 -0.25 -0.25 -0.25 -0.15 0 -0.25 0.10 -0.25 0.25 0 0.15 0.10 0.25 0.25 0.25 0.15 0 0.25 -0.10 0.25 -0.25z"/>
  <path d="M17 15.05 c0 -0.25 0.25 -0.65 0.50 -0.80 0.30 -0.15 0.50 -0.10 0.50 0.20 0 0.25 -0.20 0.65 -0.50 0.80 -0.25 0.15 -0.50 0.10 -0.50 -0.20z"/>
  <path d="M20 11.75 c0.55 -0.65 0.50 -0.70 -0.20 -0.45 -0.60 0.25 -0.80 0 -0.80 -1 0 -1.15 0.20 -1.30 1.75 -1.30 1.60 0 1.75 0.15 1.75 1.45 0 1.40 -0.70 2.05 -2.35 2.05 -0.65 0 -0.65 -0.15 -0.15 -0.75z m1.50 -1 c0 -0.15 -0.10 -0.25 -0.25 -0.25 -0.15 0 -0.25 0.10 -0.25 0.25 0 0.15 0.10 0.25 0.25 0.25 0.15 0 0.25 -0.10 0.25 -0.25z"/>
  <path d="M16 2.90 c0 -0.70 3.30 -1.90 5.10 -1.90 3.30 0 5.40 0.60 5.40 1.50 0 0.75 -0.65 0.85 -5.25 0.85 -2.90 0 -5.25 -0.20 -5.25 -0.45z"/>
 </g>
 <g fill="#641b3c">
  <path d="M14.50 15.30 c0 -1.05 0.30 -1.80 0.75 -2 0.40 -0.15 0.75 -0.60 0.75 -1.05 0 -0.40 0.25 -0.75 0.55 -0.75 0.30 0 1.20 -0.55 2 -1.20 2.20 -1.90 9.95 -3.15 9.95 -1.65 0 0.35 0.45 0.90 1 1.25 0.75 0.45 1 1.15 1 2.60 l0 2 -2.30 0 c-1.25 0 -2.70 -0.25 -3.25 -0.50 -1.50 -0.80 -4.65 0.20 -5.35 1.75 -0.30 0.70 -0.80 1.25 -1.10 1.25 -0.95 0 1.55 -3.05 2.85 -3.55 0.65 -0.25 2.25 -0.45 3.55 -0.45 1.90 -0.05 2.15 -0.15 1.45 -0.55 -1.20 -0.70 -3.75 -0.75 -5.85 -0.05 l-1.75 0.55 1.40 -1.20 c1.70 -1.55 1.30 -1.65 -0.75 -0.20 -0.80 0.60 -1.35 1.35 -1.20 1.70 0.10 0.35 -0.10 1.05 -0.45 1.60 -0.40 0.50 -0.75 0.65 -0.75 0.40 0 -0.30 0.20 -0.80 0.50 -1.15 0.25 -0.35 0.10 -0.25 -0.35 0.15 -0.75 0.65 -0.80 0.95 -0.25 1.75 0.55 0.90 0.50 1 -0.90 1 -1.35 0 -1.50 -0.15 -1.50 -1.70z"/>
 </g>
 <g fill="#5c4641">
  <path d="M22.50 38.60 c0 -0.75 0.30 -1.70 0.65 -2.05 0.50 -0.55 0.40 -0.55 -0.50 -0.10 -1.50 0.75 -1.65 0.70 -1.65 -0.45 0 -0.70 -0.35 -1 -1.15 -1 -0.80 0 -1.50 -0.65 -2.50 -2.30 -1.05 -1.80 -1.60 -2.25 -2.35 -2.05 -0.55 0.15 -1 0.05 -1 -0.20 0 -0.25 0.80 -0.45 1.75 -0.45 0.95 0 1.75 -0.20 1.75 -0.50 0 -0.25 0.70 -0.50 1.55 -0.50 1.85 0 3.40 1.65 3.45 3.65 0 1 0.25 1.35 1 1.35 0.65 0 1 -0.35 1 -1 0 -0.55 -0.35 -1 -0.80 -1 -0.60 0 -0.70 -0.45 -0.60 -1.85 0.10 -1.55 0.35 -1.95 1.30 -2.05 0.60 -0.10 1.10 -0.50 1.10 -0.95 0 -0.40 1.45 -2.15 3.25 -3.90 2.05 -1.95 3.25 -3.50 3.25 -4.15 0 -0.90 0.30 -1.10 1.50 -1.10 1.30 0 1.50 0.15 1.50 1.45 0 2.40 -1.90 6.10 -4.25 8.30 -2 1.85 -2.25 2.30 -2.25 4.30 0 1.20 -0.15 2.70 -0.30 3.35 -0.35 1.25 -1.70 1.55 -1.70 0.35 0 -0.40 -0.20 -0.75 -0.50 -0.75 -0.25 0 -0.50 0.55 -0.50 1.25 0 0.70 -0.20 1.25 -0.50 1.25 -0.25 0 -0.50 0.55 -0.50 1.25 0 0.90 -0.25 1.25 -1 1.25 -0.75 0 -1 -0.35 -1 -1.40z m2.75 -4.10 c0.50 -0.55 0.80 -1 0.65 -1 -0.15 0 -0.65 0.45 -1.15 1 -0.50 0.55 -0.80 1 -0.65 1 0.15 0 0.65 -0.45 1.15 -1z m7.75 -12.75 c0 -0.15 -0.10 -0.25 -0.25 -0.25 -0.15 0 -0.25 0.10 -0.25 0.25 0 0.15 0.10 0.25 0.25 0.25 0.15 0 0.25 -0.10 0.25 -0.25z m0.50 -1 c0 -0.15 -0.10 -0.25 -0.25 -0.25 -0.15 0 -0.25 0.10 -0.25 0.25 0 0.15 0.10 0.25 0.25 0.25 0.15 0 0.25 -0.10 0.25 -0.25z"/>
  <path d="M14.20 34.40 c-0.50 -1.20 -1 -2.30 -1.10 -2.50 -0.10 -0.25 0.15 -0.40 0.60 -0.40 0.40 0 1.25 0.90 1.85 2 0.65 1.10 1.45 2 1.80 2 0.35 0 0.65 0.25 0.65 0.50 0 0.30 -0.65 0.50 -1.40 0.50 -1.15 0 -1.55 -0.35 -2.40 -2.10z"/>
  <path d="M16 33.55 c-0.85 -1.65 -0.55 -2.40 0.50 -1.10 0.55 0.65 1 1.35 1 1.60 0 0.80 -0.95 0.45 -1.50 -0.50z"/>
  <path d="M10.60 25.70 c-1.95 -3.40 -2.30 -4.60 -1.70 -6.15 0.40 -1.15 0.45 -1.15 1.25 0.60 0.45 0.95 0.85 2.45 0.85 3.30 0 1.20 0.20 1.55 1 1.55 0.80 0 1 0.35 1 1.75 0 0.95 -0.20 1.75 -0.40 1.75 -0.20 0 -1.10 -1.25 -2 -2.80z"/>
  <path d="M16.90 24.65 c-0.50 -0.10 -0.90 -0.65 -0.90 -1.20 0 -0.50 -0.25 -0.95 -0.55 -0.95 -0.30 0 -0.45 0.45 -0.30 1 0.15 0.55 0.05 1 -0.20 1 -0.25 0 -0.45 -0.75 -0.45 -1.70 0 -1.20 0.25 -1.80 0.90 -1.95 0.45 -0.15 -0.10 -0.25 -1.30 -0.30 -1.20 0 -2.05 -0.25 -1.85 -0.50 0.45 -0.75 -0.70 -2.80 -1.90 -3.30 -0.60 -0.30 -1.15 -0.85 -1.25 -1.35 -0.15 -0.70 0.10 -0.75 1.55 -0.40 1.65 0.35 1.70 0.35 1.15 -0.85 -0.45 -0.95 -0.85 -1.15 -1.95 -1 -1.20 0.15 -1.35 0 -1.25 -0.85 0.10 -0.80 0.55 -1.10 2.05 -1.20 1.40 -0.10 1.85 0 1.85 0.60 0 0.45 0.25 0.80 0.50 0.80 0.30 0 0.50 0.25 0.50 0.55 0 0.30 0.30 0.85 0.70 1.25 0.65 0.60 0.75 0.50 0.90 -0.65 0.10 -1.10 0.45 -1.45 1.55 -1.55 1.05 -0.15 1.35 -0.45 1.35 -1.40 0 -0.85 0.30 -1.20 0.95 -1.20 0.55 0 1.05 -0.20 1.15 -0.50 0.10 -0.25 1.55 -0.65 3.30 -0.80 2.60 -0.30 3.10 -0.20 3.10 0.45 0 0.90 -0.60 1.15 -3.75 1.65 -1.95 0.25 -2.85 0.75 -4.60 2.60 -1.95 2 -2.10 2.30 -1.45 3.05 0.40 0.45 0.80 1.50 0.95 2.30 l0.20 1.50 0.10 -1.45 c0 -0.80 0.60 -2.20 1.35 -3.15 1.20 -1.55 1.40 -1.65 4.50 -1.65 l3.20 0 0 1.50 c0 1.50 0 1.50 -1.25 0.70 -1.30 -0.85 -4.55 -0.55 -3.95 0.35 0.15 0.25 0.70 0.35 1.25 0.20 0.50 -0.20 1.35 -0.10 1.80 0.20 0.80 0.45 0.75 0.55 -0.35 0.55 -1.15 0.05 -1.15 0.10 -0.25 0.50 0.95 0.35 0.90 0.45 -0.40 0.95 -1.50 0.60 -3.85 0.75 -3.85 0.25 0 -0.15 0.25 -0.75 0.55 -1.35 0.45 -0.90 0.45 -1 -0.10 -0.50 -0.60 0.60 -1.15 4.65 -0.60 4.65 0.15 0 0.55 -0.35 0.85 -0.75 0.30 -0.40 1.40 -1.05 2.45 -1.50 1.85 -0.75 1.85 -0.75 1.85 0.45 0 1.25 -0.80 1.80 -2.80 1.80 -1.05 0 -1.20 0.25 -1.20 1.75 0 1.65 -0.10 1.75 -1.60 1.70 -0.90 -0.05 -2.05 -0.15 -2.50 -0.30z m-2.40 -6.65 c0 -0.25 -0.20 -0.50 -0.50 -0.50 -0.25 0 -0.50 0.25 -0.50 0.50 0 0.30 0.25 0.50 0.50 0.50 0.30 0 0.50 -0.20 0.50 -0.50z"/>
  <path d="M29 15.75 c0 -1.65 0.10 -1.75 1.75 -1.75 1.65 0 1.75 0.10 1.75 1.75 0 1.65 -0.10 1.75 -1.75 1.75 -1.65 0 -1.75 -0.10 -1.75 -1.75z m2.50 0.55 c0 -0.10 -0.35 -0.35 -0.80 -0.50 -0.40 -0.15 -0.60 -0.10 -0.45 0.20 0.30 0.50 1.25 0.70 1.25 0.30z"/>
  <path d="M32.75 8.95 c-0.45 -1.35 -2.85 -3.75 -4.20 -4.20 -0.70 -0.20 -1.05 -0.75 -1.05 -1.50 0 -1.10 0.10 -1.20 1.30 -0.75 3.05 1.15 6.20 4.60 6.20 6.70 0 1.20 -1.85 1 -2.25 -0.25z"/>
  <path d="M9.40 8.60 c0.45 -1.15 1.65 -2.70 2.75 -3.55 0.75 -0.60 0.85 -0.55 0.85 0.90 0 1.05 -0.25 1.55 -0.75 1.55 -0.40 0 -0.75 0.45 -0.75 1 0 0.75 -0.35 1 -1.25 1 -0.95 0 -1.15 -0.20 -0.85 -0.90z"/>
  <path d="M23.50 3.50 c0 -0.25 -1.15 -0.50 -2.55 -0.50 -2.15 0 -2.50 -0.15 -2.35 -0.85 0.15 -0.75 0.65 -0.90 2.90 -0.80 1.50 0.05 3.35 0.10 4.15 0.10 1.10 0.05 1.35 0.25 1.35 1.30 0 1.10 -0.20 1.25 -1.75 1.25 -0.95 0 -1.75 -0.20 -1.75 -0.50z"/>
 </g>
 <g fill="#804252">
  <path d="M14.85 17.65 c-0.20 -0.15 -0.35 -1.30 -0.35 -2.50 0 -2.05 0.05 -2.15 1.50 -2.15 1.45 0 1.50 0.05 0.80 1.15 -0.65 0.95 -0.65 1.25 0 2.05 0.40 0.55 0.70 1.15 0.70 1.40 0 0.50 -2.20 0.55 -2.65 0.05z"/>
  <path d="M18 17.50 c0 -0.35 0.15 -0.50 0.35 -0.35 0.15 0.20 0.15 0.50 0 0.70 -0.20 0.15 -0.35 0 -0.35 -0.35z"/>
  <path d="M27.90 13.15 c1.40 -0.25 1.20 -1.20 -0.30 -1.90 -0.60 -0.25 -1 -0.80 -0.85 -1.15 0.25 -0.65 0.10 -0.60 -4.60 0.10 -1.40 0.25 -1.65 0.15 -1.65 -0.70 0 -0.65 0.35 -1 1 -1 0.55 0 1 -0.35 1 -0.75 0 -0.55 0.55 -0.75 2.15 -0.75 3 0 4.35 0.50 4.35 1.50 0 0.50 0.35 1 0.75 1.20 0.45 0.15 0.75 0.95 0.75 2.05 0 1.70 -0.05 1.75 -1.85 1.70 -1.25 -0.05 -1.50 -0.15 -0.75 -0.30z"/>
 </g>
 <g fill="#6f5950">
  <path d="M22.80 38.75 c-0.40 -1.50 -0.05 -2.25 1 -2.25 0.45 0 0.70 0.55 0.70 1.75 0 2.10 -1.20 2.45 -1.70 0.50z"/>
  <path d="M28 39.50 c0 -0.25 -0.35 -0.50 -0.75 -0.50 -0.50 0 -0.75 -0.50 -0.75 -1.50 0 -1.30 -0.20 -1.50 -1.35 -1.50 l-1.35 0 1.50 -1.60 1.45 -1.65 -1.75 1.55 c-0.95 0.85 -2.50 2.05 -3.35 2.65 l-1.65 1.10 0 -1.50 c0 -1.40 0.15 -1.55 1.50 -1.55 1.25 0 1.50 -0.20 1.50 -1.20 0 -0.70 0.50 -1.60 1.10 -2 0.60 -0.45 0.85 -0.80 0.50 -0.80 -0.35 0 -0.60 -0.70 -0.60 -1.75 0 -1.55 0.15 -1.75 1.25 -1.75 0.90 0 1.25 -0.25 1.25 -1 0 -0.55 0.25 -1 0.50 -1 0.30 0 0.50 -0.35 0.50 -0.75 0 -0.45 0.45 -0.75 1.25 -0.75 1 0 1.25 -0.25 1.25 -1.25 0 -0.70 0.15 -1.25 0.40 -1.25 0.20 0 0.60 -0.80 0.90 -1.75 l0.55 -1.75 -1.65 0 c-1.70 0 -1.70 -0.05 -1.70 -2.25 0 -2.25 0 -2.25 1.75 -2.25 0.95 0 1.75 0.25 1.75 0.50 0 0.30 0.35 0.50 0.75 0.50 0.50 0 0.75 0.50 0.75 1.50 0 1 0.25 1.50 0.75 1.50 1 0 0.95 2.15 -0.10 5.20 -0.60 1.60 -1.75 3.30 -3.25 4.75 -2.30 2.20 -2.40 2.45 -2.65 5.80 -0.25 3.10 -0.15 3.70 0.70 4.85 1.30 1.65 1.30 1.90 0.05 1.90 -0.55 0 -1 -0.20 -1 -0.50z m-2.75 -9.50 c0.15 -0.25 0.20 -0.50 0.05 -0.50 -0.15 0 -0.40 0.25 -0.55 0.50 -0.15 0.30 -0.20 0.50 -0.05 0.50 0.15 0 0.40 -0.20 0.55 -0.50z m7.75 -8.05 c0 -0.40 -0.40 0 -0.95 0.85 -0.50 0.85 -1.85 2.25 -3 3.15 -1.10 0.90 -2.05 1.90 -2.05 2.20 0 0.30 1.35 -0.80 3 -2.50 1.65 -1.65 3 -3.35 3 -3.70z m0.50 -1.20 c0 -0.15 -0.10 -0.25 -0.25 -0.25 -0.15 0 -0.25 0.10 -0.25 0.25 0 0.15 0.10 0.25 0.25 0.25 0.15 0 0.25 -0.10 0.25 -0.25z m0.50 -1 c0 -0.15 -0.10 -0.25 -0.25 -0.25 -0.15 0 -0.25 0.10 -0.25 0.25 0 0.15 0.10 0.25 0.25 0.25 0.15 0 0.25 -0.10 0.25 -0.25z m-2.75 -3.75 c-0.15 -0.25 -0.55 -0.50 -0.80 -0.50 -0.30 0 -0.35 0.25 -0.20 0.50 0.15 0.30 0.55 0.50 0.80 0.50 0.30 0 0.35 -0.20 0.20 -0.50z"/>
  <path d="M15.60 37.40 c-0.35 -0.35 -0.60 -0.80 -0.60 -1.10 0 -0.25 -0.65 -1.90 -1.50 -3.65 -0.80 -1.70 -1.50 -3.55 -1.50 -4.05 0 -0.45 -0.60 -1.75 -1.25 -2.85 -1.55 -2.50 -1.55 -2.75 0 -2.75 0.90 0 1.30 0.35 1.55 1.25 0.35 1.50 1.20 1.65 1.20 0.20 0 -1.45 -1.20 -2.45 -2.95 -2.45 -1.45 0 -1.55 -0.15 -1.55 -1.75 0 -1.75 0 -1.75 1 -0.75 1.10 1.10 1.80 1.25 2.20 0.55 0.50 -0.75 -0.60 -3.05 -1.40 -3.05 -0.45 0 -1 -0.45 -1.30 -1 -0.45 -0.90 -0.40 -1 0.80 -1 1.40 0 3.15 1.70 3.20 3.15 0 0.45 0.25 0.85 0.50 0.85 0.85 0 0.55 -0.80 -1.30 -3.55 -1.50 -2.25 -2 -2.65 -3.05 -2.55 -1.25 0.20 -1.25 0.10 -0.90 -1.70 0.65 -3.55 2.25 -5.15 2.25 -2.25 0 1 0.30 1.50 1 1.70 0.75 0.20 1 0.70 1 2.05 0 1.45 0.20 1.80 1 1.80 0.80 0 1 0.35 1.05 1.65 0.05 1.20 0.15 1.35 0.30 0.45 0.20 -1.15 0.25 -1.15 1.20 -0.30 0.50 0.45 1 1.55 1 2.40 0.05 1.55 0.05 1.55 0.40 -0.25 0.70 -3.40 4 -6.60 4.80 -4.55 0.25 0.75 -0.85 2.10 -1.75 2.10 -0.65 0 -2 2.95 -1.50 3.25 0.30 0.20 0.40 0.75 0.25 1.30 -0.40 1.20 0.15 1.25 1.05 0.10 0.60 -0.80 0.65 -0.55 0.70 1.90 l0 2.80 -4.05 0.35 -4.05 0.40 0.35 1.30 c0.20 0.75 0.40 1.95 0.45 2.65 0.10 0.70 0.75 2.40 1.45 3.70 1.80 3.20 1.75 5.45 -0.05 3.65z m0.30 -14.85 c-0.75 -0.25 -1.05 0.35 -0.65 1.30 0.35 0.85 0.40 0.85 0.75 -0.10 0.20 -0.55 0.15 -1.10 -0.10 -1.20z m3.60 0.75 c0 -0.10 -0.40 -0.50 -0.85 -0.85 -0.80 -0.65 -0.85 -0.60 -0.20 0.20 0.65 0.80 1.05 1.05 1.05 0.65z m-1.50 -2.05 c0 -0.15 -0.10 -0.25 -0.25 -0.25 -0.15 0 -0.25 0.10 -0.25 0.25 0 0.15 0.10 0.25 0.25 0.25 0.15 0 0.25 -0.10 0.25 -0.25z"/>
  <path d="M16 33.55 c-0.80 -1.50 -0.60 -1.80 0.50 -0.80 1.05 0.95 1.30 1.75 0.50 1.75 -0.25 0 -0.70 -0.45 -1 -0.95z"/>
  <path d="M17.30 32.50 c-1.25 -1.90 -1.25 -2 -0.30 -2 0.55 0 1 -0.20 1 -0.50 0 -0.25 0.75 -0.50 1.70 -0.50 1.80 0 2.30 0.75 2.30 3.65 0 1.20 -0.20 1.35 -1.70 1.35 -1.40 0 -1.90 -0.30 -3 -2z m2.75 -0.80 c-0.55 -0.75 -1.05 -1.20 -1.05 -1 0 0.50 1.70 2.75 1.95 2.55 0.10 -0.10 -0.30 -0.80 -0.90 -1.55z"/>
  <path d="M24.50 19.20 c0 -0.15 0.55 -0.75 1.25 -1.30 0.70 -0.55 1.15 -1.20 1 -1.45 -0.20 -0.25 0.05 -0.45 0.45 -0.45 0.60 0 0.80 0.50 0.80 1.75 0 1.65 -0.10 1.75 -1.75 1.75 -0.95 0 -1.75 -0.15 -1.75 -0.30z"/>
  <path d="M20 18.65 c0.05 -0.80 1.40 -2.15 2.20 -2.15 0.50 0 0.80 0.40 0.80 1.25 0 1.05 -0.25 1.25 -1.50 1.25 -0.80 0 -1.50 -0.15 -1.50 -0.35z"/>
  <path d="M24.50 17.30 c0 -0.45 0.25 -0.80 0.50 -0.80 0.30 0 0.50 0.20 0.50 0.45 0 0.30 -0.20 0.65 -0.50 0.80 -0.25 0.15 -0.50 -0.05 -0.50 -0.45z"/>
  <path d="M19.50 9.85 c0 -1 0.30 -1.25 1.90 -1.55 1 -0.15 2.40 -0.30 3.10 -0.25 1.15 0 1.15 0.05 0.25 0.45 -0.60 0.25 -0.70 0.45 -0.30 0.45 1.10 0.05 0.30 0.60 -1.55 1.05 -0.90 0.20 -2.05 0.55 -2.50 0.75 -0.70 0.30 -0.90 0.10 -0.90 -0.90z"/>
  <path d="M31 5.50 c0 -1.35 0.10 -1.45 0.95 -0.95 0.50 0.35 1.15 1 1.50 1.50 0.50 0.85 0.40 0.95 -0.95 0.95 -1.35 0 -1.50 -0.15 -1.50 -1.50z"/>
  <path d="M13.15 4.25 c1.80 -1.60 2.35 -1.55 2.35 0 0 1.10 -0.20 1.25 -1.85 1.25 l-1.90 -0.05 1.40 -1.20z"/>
  <path d="M24 2.95 c0 -1.40 0.10 -1.50 0.85 -0.90 0.55 0.50 0.70 0.50 0.45 0.10 -0.60 -1.05 1.40 -0.80 3.40 0.40 1 0.60 1.80 1.25 1.80 1.50 0 0.25 -1.45 0.45 -3.25 0.45 l-3.25 0 0 -1.55z"/>
  <path d="M17.50 2.50 c0 -0.70 1.85 -1.55 2.70 -1.20 1.50 0.60 0.90 1.70 -0.95 1.70 -0.95 0 -1.75 -0.20 -1.75 -0.50z"/>
 </g>
 <g fill="#597157">
  <path d="M9 19.70 c0 -0.70 0.15 -0.70 0.75 -0.20 0.40 0.35 0.75 0.70 0.75 0.80 0 0.10 -0.35 0.20 -0.75 0.20 -0.40 0 -0.75 -0.35 -0.75 -0.80z"/>
  <path d="M23.50 19.25 c1.50 -0.70 2.90 -1.60 3.10 -1.90 0.25 -0.40 0.40 -0.20 0.40 0.45 0 1.55 -1.15 2.30 -3.90 2.55 l-2.35 0.25 2.75 -1.35z"/>
  <path d="M10 18.50 c0 -0.25 0.25 -0.50 0.50 -0.50 0.30 0 0.50 0.25 0.50 0.50 0 0.30 -0.20 0.50 -0.50 0.50 -0.25 0 -0.50 -0.20 -0.50 -0.50z"/>
  <path d="M20.85 17.80 c1 -1.35 2.60 -1.95 3.90 -1.50 1.75 0.70 -0.75 2.70 -3.40 2.70 -1.40 0 -1.40 0 -0.50 -1.20z"/>
  <path d="M11.40 17.45 c-0.85 -0.90 -0.85 -0.95 0.10 -0.95 0.65 0 1 0.35 1 1 0 1.20 0 1.20 -1.10 -0.05z"/>
  <path d="M20 16.15 c0 -1.10 1.20 -1.65 3.85 -1.65 2.10 0 3.15 0.45 3.15 1.40 0 0.65 -0.15 0.60 -1 -0.15 -1.20 -1.10 -4.40 -0.75 -5.35 0.60 -0.60 0.75 -0.65 0.75 -0.65 -0.20z"/>
 </g>
 <g fill="#7f675d">
  <path d="M22.80 38.40 c-0.20 -0.90 0.25 -1.65 1.95 -3.40 1.80 -1.80 2.05 -2.30 1.30 -2.30 -0.55 0 -0.95 0.15 -0.90 0.30 0.20 0.70 -1.35 2.60 -2.75 3.30 -1.55 0.80 -1.55 0.80 -1.25 -0.40 0.20 -0.60 0.35 -2.10 0.35 -3.25 0 -1.40 0.20 -2.15 0.65 -2.15 0.35 0 0.85 -0.50 1.10 -1.10 0.65 -1.50 3.60 -1.90 4.05 -0.55 0.15 0.50 0.50 1.30 0.75 1.80 0.70 1.30 0 3.35 -1.10 3.35 -0.65 0 -0.95 0.35 -0.95 1.05 0 0.55 -0.35 1.35 -0.75 1.75 -0.40 0.45 -0.75 1.20 -0.75 1.75 0 1.30 -1.30 1.20 -1.70 -0.15z m2.75 -8.75 c0.65 -0.80 0.60 -0.85 -0.15 -0.20 -0.85 0.65 -1.10 1.05 -0.70 1.05 0.10 0 0.50 -0.40 0.85 -0.85z"/>
  <path d="M14.70 35.15 c-2.45 -5.45 -2.40 -5.15 -0.30 -5.10 1.65 0 1.75 0.05 0.70 0.50 l-1.20 0.45 1.25 2.15 c0.75 1.30 1.70 2.15 2.35 2.25 1.15 0.20 1.20 -0.20 0.25 -2.50 -0.25 -0.65 -0.10 -0.90 0.45 -0.90 0.45 0 0.80 0.25 0.80 0.50 0 0.30 0.35 0.50 0.75 0.50 0.50 0 0.75 0.55 0.75 1.75 0 1.55 -0.15 1.75 -1.25 1.75 -0.80 0 -1.25 0.30 -1.25 0.75 0 0.40 -0.45 0.75 -1 0.75 -0.75 0 -1.35 -0.75 -2.30 -2.85z"/>
  <path d="M16.15 33.65 c-0.15 -0.50 -0.40 -1.10 -0.55 -1.40 -0.15 -0.25 0.20 -0.05 0.80 0.45 1.20 1 1.40 1.80 0.60 1.80 -0.30 0 -0.65 -0.40 -0.85 -0.85z"/>
  <path d="M30.60 25.15 c1.05 -1.05 2.20 -2.75 2.65 -3.75 1.20 -2.95 0.85 -2.90 -0.65 0.05 -0.75 1.45 -2.10 3.25 -3 3.95 l-1.60 1.25 0 -1.50 c0 -1.70 1.35 -3.15 2.90 -3.15 0.90 0 1.10 -0.30 1.10 -1.75 0 -1.60 0.10 -1.75 1.50 -1.75 1.10 0 1.50 0.25 1.50 0.90 0 1.65 -0.60 3.10 -1.30 3.10 -0.45 0 -0.70 0.55 -0.70 1.40 0 1.70 -1.35 3.10 -3 3.10 -1.15 0 -1.10 -0.10 0.60 -1.85z"/>
  <path d="M12.50 22.25 c0 -0.85 -0.30 -1.25 -0.85 -1.30 -0.70 0 -0.60 -0.15 0.25 -0.45 1.10 -0.45 1.10 -0.55 0.35 -1.95 -0.40 -0.80 -1.20 -1.60 -1.75 -1.80 -1.35 -0.45 -1.30 -1.75 0.15 -1.75 1.35 0 2.40 1.50 3.20 4.50 0.30 1.25 0.60 1.85 0.60 1.40 0.05 -0.50 0.30 -0.90 0.55 -0.90 0.30 0 0.50 -0.25 0.50 -0.55 0 -0.25 -0.20 -0.35 -0.50 -0.20 -0.25 0.15 -0.50 -0.10 -0.50 -0.55 0 -0.45 -0.50 -1.55 -1.15 -2.40 -1.95 -2.55 -2 -2.80 -0.90 -2.80 0.70 0 1.05 0.30 1.05 1 0 0.70 0.35 1 1.05 1 1.60 0 2.60 1.40 2.85 4.05 0.10 1.35 0.45 2.60 0.65 2.75 0.80 0.50 0.45 1.20 -0.55 1.20 -0.75 0 -1 -0.35 -1.05 -1.35 0 -0.85 -0.15 -1.10 -0.30 -0.65 -0.50 1.20 -1.50 2 -2.60 2 -0.80 0 -1.05 -0.30 -1.05 -1.25z"/>
  <path d="M18.75 22.50 c-0.70 -0.75 -0.85 -1.55 -0.65 -3.55 0.25 -2.15 0.55 -2.85 2.10 -4.25 2.05 -1.90 3.80 -2.25 3.80 -0.75 0 0.60 -0.45 1 -1.45 1.20 -1.95 0.40 -3.40 2.80 -3.15 5.20 0.25 1.85 0.25 1.85 1 0.75 1.35 -2.10 2.75 -0.85 1.80 1.60 -0.45 1.10 -2.35 1 -3.45 -0.20z"/>
  <path d="M23 20 c0 -0.30 0.80 -0.90 1.75 -1.35 2.20 -1.05 2.50 -1.90 1 -3.10 -1.70 -1.30 -1.55 -1.65 0.65 -1.45 1.80 0.15 1.85 0.20 2 2.30 0.15 1.75 -0.05 2.35 -0.95 3.15 -1.15 1 -4.45 1.35 -4.45 0.45z"/>
  <path d="M20.75 18 c1 -1.10 1.55 -1 1.10 0.25 -0.20 0.40 -0.70 0.75 -1.15 0.75 -0.80 0 -0.80 -0.10 0.05 -1z"/>
  <path d="M23 17.75 c0 -0.40 0.10 -0.75 0.20 -0.75 0.10 0 0.55 -0.15 1 -0.30 1.15 -0.45 1 0.65 -0.20 1.30 -0.80 0.45 -1 0.40 -1 -0.25z"/>
  <path d="M8.50 12.60 c0 -0.25 0.35 -1.55 0.75 -2.95 0.85 -2.90 3.55 -5.65 6.95 -7.20 2.05 -0.90 2.05 -0.90 2.20 0.15 0.20 1.20 -0.65 1.90 -2.25 1.90 -0.70 0 -1.15 0.30 -1.15 0.75 0 0.50 -0.50 0.75 -1.45 0.75 -1.25 0 -1.50 0.20 -1.75 1.90 -0.20 1 -0.35 2.50 -0.35 3.25 0 0.75 -0.20 1.25 -0.45 1.10 -0.25 -0.15 -0.55 -0.05 -0.75 0.25 -0.35 0.60 -1.75 0.70 -1.75 0.10z"/>
  <path d="M18.50 10.50 c0 -1.40 0.15 -1.50 1.75 -1.50 2.20 0 2.20 0.45 0 1.90 l-1.75 1.10 0 -1.50z"/>
  <path d="M23 8.70 c0 -1.05 0.25 -1.20 1.75 -1.20 1.15 0 1.75 0.25 1.75 0.70 0 0.45 -0.45 0.60 -1.35 0.45 -1 -0.15 -1.20 -0.10 -0.75 0.25 0.55 0.35 0.45 0.50 -0.35 0.75 -0.85 0.20 -1.05 0.05 -1.05 -0.95z"/>
  <path d="M26.25 4.05 c-0.15 -0.25 -1.50 -0.65 -3.05 -0.85 -2.15 -0.25 -2.70 -0.50 -2.60 -1.15 0.25 -1.05 3.25 -0.85 4.50 0.30 0.50 0.45 0.90 0.55 0.90 0.25 0 -0.30 -0.30 -0.65 -0.60 -0.75 -0.50 -0.20 -0.50 -0.30 -0.05 -0.30 1.15 -0.10 4.65 1.70 4.65 2.30 0 0.75 -3.30 0.90 -3.75 0.20z"/>
 </g>
 <g fill="#937467">
  <path d="M23 38.40 c0 -1.25 0.55 -2.20 2.40 -4.10 1.90 -2 2.05 -2.25 0.75 -1.35 -0.90 0.60 -1.80 1.35 -2 1.70 -0.65 1.05 -4.05 3.35 -4.85 3.35 -0.45 0 -0.80 -0.45 -0.80 -1 0 -0.80 0.35 -1 1.50 -1 1.60 0 1.65 -0.15 1.50 -3.10 -0.05 -1.10 0.15 -1.90 0.45 -1.90 0.30 0 0.55 -0.45 0.55 -1 0 -1.55 2.35 -3.50 4.15 -3.50 1.20 0 1.40 0.15 0.95 0.60 -0.35 0.35 -0.60 0.85 -0.60 1.10 0 0.85 5.40 -4.75 6.05 -6.30 0.60 -1.50 1.45 -1.90 1.45 -0.65 0 1.80 -3 6.25 -4.20 6.25 -0.85 0.05 -2.30 3.35 -2.30 5.25 0 1.40 -0.20 1.75 -1 1.75 -0.75 0 -1 0.35 -1 1.45 0 0.85 -0.20 1.65 -0.50 1.80 -0.25 0.15 -0.50 0.75 -0.50 1.30 0 0.60 -0.35 0.95 -1 0.95 -0.80 0 -1 -0.35 -1 -1.60z m0.50 -6.15 c0 -0.15 -0.10 -0.25 -0.25 -0.25 -0.15 0 -0.25 0.10 -0.25 0.25 0 0.15 0.10 0.25 0.25 0.25 0.15 0 0.25 -0.10 0.25 -0.25z m2.50 -2.85 c0 -0.30 -0.35 -0.25 -0.75 0.10 -0.40 0.35 -0.75 0.85 -0.75 1.10 0 0.30 0.35 0.25 0.75 -0.10 0.40 -0.35 0.75 -0.85 0.75 -1.10z"/>
  <path d="M28.50 39.25 c0 -0.40 0.20 -0.75 0.45 -0.75 0.25 0 0.55 0.35 0.75 0.75 0.15 0.45 0 0.75 -0.45 0.75 -0.40 0 -0.75 -0.35 -0.75 -0.75z"/>
  <path d="M13.60 32.60 c-1.90 -4.45 -1.95 -5.10 -0.60 -5.10 0.55 0 1 0.35 1 0.75 0 0.40 0.45 0.75 1 0.75 0.55 0 1 0.35 1 0.75 0 0.40 0.35 0.75 0.75 0.75 0.40 0 0.75 0.35 0.75 0.75 0 0.45 0.45 0.75 1.25 0.75 1.10 0 1.25 0.20 1.25 1.75 0 1.20 -0.25 1.75 -0.75 1.75 -0.40 0 -0.70 -0.15 -0.65 -0.35 0.25 -0.65 -2.05 -4.15 -2.85 -4.50 -1.65 -0.60 -1.90 0.65 -0.55 2.80 1.45 2.25 1.60 3.05 0.70 3.05 -0.35 0 -1.40 -1.75 -2.30 -3.90z"/>
  <path d="M16 32.90 c-0.60 -1.10 -0.60 -1.10 0.30 -0.30 0.50 0.50 0.75 1 0.60 1.20 -0.20 0.15 -0.60 -0.25 -0.90 -0.90z"/>
  <path d="M14.50 25.50 c0 -0.25 -0.30 -0.50 -0.70 -0.50 -0.85 0 -1.30 -1.10 -1.30 -3.05 0 -1.60 1.25 -2.05 1.65 -0.55 0.20 0.80 0.25 0.80 0.30 0 0 -0.50 0.30 -0.90 0.55 -0.90 0.30 0 0.50 -0.25 0.50 -0.55 0 -0.25 -0.20 -0.35 -0.50 -0.20 -0.30 0.20 -0.50 -0.25 -0.50 -1 0 -0.70 -0.50 -1.80 -1.05 -2.40 -0.60 -0.60 -1.40 -1.85 -1.75 -2.75 -0.40 -0.90 -0.95 -1.50 -1.15 -1.35 -0.25 0.15 -0.80 0.15 -1.20 -0.05 -0.60 -0.20 -0.65 -0.60 -0.20 -2 0.55 -1.85 1.85 -2.35 1.85 -0.70 0 0.65 0.35 1 0.95 1 0.70 0 1.10 0.60 1.60 2.25 0.35 1.25 0.85 2.25 1.10 2.25 1.10 0 2.25 2 2.60 4.35 0.20 1.70 0.75 3.05 1.50 3.85 1.15 1.20 1.15 1.30 0.25 1.30 -0.55 0 -1 0.35 -1 0.75 0 0.50 -0.55 0.75 -1.75 0.75 -0.95 0 -1.75 -0.20 -1.75 -0.50z m1.90 -2.15 c0.10 -0.50 -0.15 -0.85 -0.60 -0.85 -0.50 0 -0.80 0.45 -0.80 1.05 0 1.20 1.15 1.05 1.40 -0.20z"/>
  <path d="M28.50 25.20 c0 -0.60 0.45 -1.45 1 -1.95 0.55 -0.50 1 -1.30 1 -1.85 0 -0.60 0.35 -0.90 1.20 -0.90 1.70 0 1.25 1.40 -1.25 3.80 -1.70 1.65 -1.95 1.75 -1.95 0.90z"/>
  <path d="M9.85 24.05 c-1.10 -1.90 -1.10 -2.05 0.40 -2.05 1.10 0 1.25 0.20 1.25 1.75 0 2.15 -0.50 2.20 -1.65 0.30z"/>
  <path d="M18.80 22.40 c-1.45 -2.05 -0.85 -5.85 1.20 -7.90 0.80 -0.80 1.65 -1 4.25 -1 l3.25 0 0 1.75 0 1.75 -1 -1 c-1.75 -1.75 -5.40 -1.05 -6.65 1.30 -0.50 0.95 -0.60 1.95 -0.25 3.60 0.50 2.70 0.30 3.05 -0.80 1.50z"/>
  <path d="M12.25 18.30 c-0.55 -0.95 -1.40 -1.85 -1.95 -2 -0.85 -0.20 -0.90 -0.40 -0.40 -0.90 0.85 -0.85 2.10 0 3.20 2.15 0.95 1.95 1.05 2.45 0.50 2.45 -0.25 0 -0.85 -0.75 -1.35 -1.70z"/>
  <path d="M20.50 18.50 c0 -0.35 0.15 -0.50 0.35 -0.35 0.15 0.20 0.15 0.50 0 0.70 -0.20 0.15 -0.35 0 -0.35 -0.35z"/>
  <path d="M22.50 16.80 c0 -0.50 1.40 -0.65 2.05 -0.25 0.50 0.30 0.35 0.45 -0.65 0.45 -0.80 0 -1.40 -0.10 -1.40 -0.20z"/>
  <path d="M28 14.75 c0 -1.70 0.05 -1.75 2 -1.75 1.90 0 2 0.10 2 1.50 0 1.60 -0.45 1.85 -1.40 0.90 -0.45 -0.45 -0.60 -0.40 -0.60 0.25 0 0.50 -0.40 0.85 -1 0.85 -0.80 0 -1 -0.35 -1 -1.75z"/>
  <path d="M33 8.75 c0 -1.95 0.70 -2.30 1.50 -0.80 0.80 1.55 0.60 2.55 -0.50 2.55 -0.80 0 -1 -0.35 -1 -1.75z"/>
  <path d="M21.50 9.15 c0 -1.60 0.80 -2.25 2.50 -2.05 1.85 0.15 2.75 1.40 1 1.40 -0.60 0 -0.95 0.20 -0.80 0.45 0.15 0.25 -0.05 0.60 -0.50 0.75 -1.40 0.55 -2.20 0.30 -2.20 -0.55z"/>
  <path d="M12.50 4.95 c3.80 -3.30 10.50 -5 10.50 -2.70 0 0.45 -1.10 0.80 -3.25 1 -2.25 0.25 -3.25 0.60 -3.25 1.05 0 0.40 -0.45 0.70 -1 0.70 -0.55 0 -1 0.35 -1 0.75 0 0.55 -0.55 0.75 -1.85 0.75 l-1.90 -0.05 1.75 -1.50z"/>
  <path d="M24 2.40 c0 -1.05 0 -1.05 1.10 -0.10 0.90 0.80 1 0.80 0.75 0.15 -0.20 -0.65 -0.05 -0.80 0.70 -0.60 1.70 0.45 1.10 1.65 -0.80 1.65 -1.45 0 -1.75 -0.20 -1.75 -1.10z"/>
 </g>
 <g fill="#7e8c74">
  <path d="M19 20 c0 -0.35 0.15 -0.50 0.35 -0.35 0.15 0.20 0.15 0.50 0 0.70 -0.20 0.15 -0.35 0 -0.35 -0.35z"/>
  <path d="M21 20.30 c0 -0.10 0.45 -0.30 1 -0.45 0.55 -0.15 1 -0.05 1 0.20 0 0.25 -0.45 0.45 -1 0.45 -0.55 0 -1 -0.10 -1 -0.20z"/>
  <path d="M9 19.45 c0 -0.25 0.25 -0.35 0.50 -0.20 0.30 0.15 0.50 0.40 0.50 0.55 0 0.10 -0.20 0.20 -0.50 0.20 -0.25 0 -0.50 -0.25 -0.50 -0.55z"/>
  <path d="M20.50 18.50 c0 -0.75 3 -2.45 3.80 -2.15 1.55 0.55 0.40 1.65 -2.40 2.35 -0.85 0.20 -1.40 0.10 -1.40 -0.20z"/>
  <path d="M10 18.25 c0 -0.15 0.10 -0.25 0.25 -0.25 0.15 0 0.25 0.10 0.25 0.25 0 0.15 -0.10 0.25 -0.25 0.25 -0.15 0 -0.25 -0.10 -0.25 -0.25z"/>
  <path d="M26 18.25 c0 -0.15 0.10 -0.25 0.25 -0.25 0.15 0 0.25 0.10 0.25 0.25 0 0.15 -0.10 0.25 -0.25 0.25 -0.15 0 -0.25 -0.10 -0.25 -0.25z"/>
  <path d="M19 17.45 c0 -0.80 1.35 -2.30 1.75 -1.90 0.10 0.10 -0.25 0.75 -0.75 1.45 -0.75 0.95 -1 1.05 -1 0.45z"/>
  <path d="M26 15.25 c0 -0.15 0.10 -0.25 0.25 -0.25 0.15 0 0.25 0.10 0.25 0.25 0 0.15 -0.10 0.25 -0.25 0.25 -0.15 0 -0.25 -0.10 -0.25 -0.25z"/>
  <path d="M22.90 14.65 c0.60 -0.10 1.50 -0.10 2 0 0.45 0.15 -0.05 0.25 -1.15 0.20 -1.10 0 -1.50 -0.10 -0.85 -0.20z"/>
 </g>
 <g fill="#a7806f">
  <path d="M23.35 38.40 c-0.30 -1.15 0 -1.65 2.85 -4.75 2 -2.20 1.30 -2.10 -1.20 0.15 -1.10 1 -2 1.55 -2 1.25 0 -0.30 -0.45 -0.55 -1 -0.55 -0.80 0 -1 -0.35 -1 -1.50 0 -0.80 0.40 -1.95 0.85 -2.50 1.05 -1.20 2.90 -1.40 2.45 -0.25 -0.30 0.85 0.45 1.05 0.95 0.25 0.15 -0.25 0.85 -0.50 1.55 -0.50 0.90 0 1.20 -0.25 1.20 -1.10 0 -0.65 0.85 -1.90 2.15 -3.15 1.20 -1.10 2.45 -2.45 2.75 -3 0.30 -0.55 0.70 -0.85 0.90 -0.65 0.50 0.55 -0.80 3.40 -1.60 3.40 -0.40 0 -0.70 0.25 -0.70 0.60 0 0.35 -0.70 1.35 -1.55 2.20 -0.90 0.90 -1.65 2.15 -1.70 2.80 -0.05 0.65 -0.15 1.45 -0.20 1.80 0 0.30 -0.40 0.60 -0.80 0.60 -0.50 0 -0.75 0.55 -0.75 1.75 0 1.20 -0.25 1.75 -0.75 1.75 -0.45 0 -0.75 0.45 -0.75 1.25 0 1.55 -1.25 1.65 -1.65 0.15z m0 -6.25 c-0.20 -0.15 -0.35 0 -0.35 0.35 0 0.35 0.15 0.50 0.35 0.35 0.15 -0.20 0.15 -0.50 0 -0.70z"/>
  <path d="M15.80 37.20 c-0.45 -0.40 -0.80 -1.05 -0.80 -1.45 0 -0.35 -0.55 -1.80 -1.25 -3.15 -0.70 -1.40 -1.40 -3.20 -1.55 -4.05 -0.30 -1.30 -0.20 -1.55 0.70 -1.55 1.10 0 1.85 1.95 1.35 3.50 -0.20 0.55 0.20 1.75 1 3 1 1.55 1.55 2 2.40 1.90 0.75 -0.10 1.05 -0.45 0.95 -1 -0.10 -0.60 0.20 -0.90 0.90 -0.90 0.80 0 1 0.30 1 1.75 0 1.40 -0.20 1.75 -1 1.75 -0.55 0 -1 0.25 -1 0.50 0 0.80 -1.85 0.60 -2.70 -0.30z"/>
  <path d="M21.65 36.15 c0.20 -0.15 0.50 -0.15 0.70 0 0.15 0.20 0 0.35 -0.35 0.35 -0.35 0 -0.50 -0.15 -0.35 -0.35z"/>
  <path d="M17.35 32.20 c-0.20 -0.20 -0.35 -1.25 -0.35 -2.30 0 -1.85 0.05 -1.90 1.80 -1.90 l1.75 0 -0.15 2.15 c-0.15 1.85 -0.30 2.10 -1.40 2.25 -0.70 0.10 -1.45 0 -1.65 -0.20z m2.25 -1.30 c-0.35 -0.35 -0.60 -0.40 -0.60 -0.10 0 0.70 0.60 1.30 0.95 0.95 0.10 -0.15 -0.05 -0.55 -0.35 -0.85z"/>
  <path d="M28 25.50 c0 -0.70 0.35 -1 1.10 -1 1 0 1.05 0.05 0.15 1 -0.50 0.55 -1 1 -1.10 1 -0.05 0 -0.15 -0.45 -0.15 -1z"/>
  <path d="M12.60 25.05 c-0.95 -0.60 -0.55 -3.75 0.50 -3.95 0.45 -0.10 0.90 0.25 1.05 0.75 0.20 0.85 0.25 0.85 0.30 0.05 0.05 -0.55 0.45 -0.90 1.05 -0.90 0.85 0 1 -0.35 1.05 -2.35 l0.10 -2.40 0.30 2.55 c0.30 2.50 1.65 5.20 2.60 5.20 0.25 0 0 -0.65 -0.60 -1.45 -0.90 -1.25 -1.05 -1.90 -0.80 -3.80 0.60 -4.25 2.65 -5.75 7.90 -5.75 2.25 0 2.95 -0.15 2.95 -0.75 0 -0.40 -0.45 -0.95 -1 -1.25 -0.50 -0.30 -0.85 -0.85 -0.70 -1.20 0.20 -0.50 -0.25 -0.80 -1.25 -1.05 -2.20 -0.45 -2.05 -1.75 0.20 -1.75 1.15 0 1.75 0.25 1.75 0.70 0 0.40 0.30 0.80 0.70 0.95 0.35 0.15 0.80 1.20 1 2.35 0.40 2.50 1.25 3.50 3 3.50 1.15 0 1.30 0.20 1.30 1.70 0 1.30 -0.25 1.75 -1.10 2 -2.10 0.55 -3.90 0.35 -3.90 -0.45 0 -0.40 -0.35 -0.75 -0.75 -0.75 -0.40 0 -0.75 -0.45 -0.75 -1 0 -0.90 -0.35 -1 -2.80 -1 -2.50 0 -2.95 0.15 -4.30 1.60 -1 1.10 -1.40 1.90 -1.20 2.60 0.15 0.60 0.30 1.45 0.30 1.95 0 1.15 0.85 1.10 1.25 -0.10 0.15 -0.50 0.75 -1.05 1.25 -1.20 0.80 -0.20 1 0 1 0.95 0 0.65 -0.20 1.20 -0.50 1.20 -0.25 0 -0.50 0.80 -0.50 1.75 0 1.65 -0.10 1.75 -1.75 1.75 -1.20 0 -1.75 -0.25 -1.75 -0.75 0 -0.40 -0.35 -0.75 -0.75 -0.75 -0.50 0 -0.75 -0.55 -0.80 -1.60 0 -1.40 -0.10 -1.50 -0.45 -0.65 -0.25 0.55 -0.45 0.80 -0.45 0.55 -0.05 -0.25 -0.35 -0.15 -0.75 0.20 -0.85 0.65 -0.50 2 0.50 2 0.40 0 0.70 0.25 0.70 0.50 0 0.60 -3 0.65 -3.90 0.05z m18.40 -9.55 c-0.55 -0.55 -1.10 -1 -1.20 -1 -0.10 0 -0.10 0.45 0.05 1 0.15 0.55 0.70 1 1.20 1 0.90 0 0.90 -0.05 -0.05 -1z"/>
  <path d="M9.55 23.35 c-0.35 -0.65 -0.55 -1.85 -0.45 -2.75 0.15 -1.50 0.20 -1.50 1.20 -0.70 0.80 0.70 1 1.30 0.80 2.75 -0.25 2.15 -0.65 2.35 -1.55 0.70z"/>
  <path d="M30.50 23.05 c0 -0.60 0.30 -1.05 0.75 -1.05 0.40 0 0.75 0.20 0.75 0.45 0 0.25 -0.35 0.70 -0.75 1.05 -0.65 0.50 -0.75 0.45 -0.75 -0.45z"/>
  <path d="M12.35 18.65 c-0.20 -0.15 -0.35 -0.75 -0.35 -1.25 0 -0.55 -0.35 -0.90 -1 -0.90 -0.55 0 -1 -0.35 -1 -0.75 0 -1.45 1.50 -0.70 2.50 1.25 0.90 1.75 0.80 2.65 -0.15 1.65z"/>
  <path d="M13.05 15.70 c-1.35 -1.75 -1.30 -2.20 0.20 -2.20 1.10 0 1.25 0.20 1.25 1.75 0 0.95 -0.10 1.75 -0.20 1.75 -0.15 0 -0.70 -0.60 -1.25 -1.30z"/>
  <path d="M8.50 12.45 c0 -0.85 1 -2.45 1.50 -2.45 0.85 0 0.55 2.35 -0.30 2.70 -1.05 0.40 -1.20 0.40 -1.20 -0.25z"/>
  <path d="M31.50 10.45 c0 -1.95 0.05 -2 1.65 -1.85 1.45 0.15 1.60 0.30 1.75 2.05 0.15 1.80 0.15 1.85 -1.60 1.85 -1.75 0 -1.80 -0.05 -1.80 -2.05z"/>
  <path d="M19 9.95 c0 -1.30 0.15 -1.45 1.75 -1.45 2.25 0 2.25 1 0 2.05 l-1.75 0.80 0 -1.40z"/>
  <path d="M23.15 3.75 c-0.95 -1.05 -0.80 -2.25 0.30 -2.25 0.50 0 1.20 0.35 1.55 0.75 0.50 0.60 0.75 0.65 1.05 0.20 0.45 -0.75 3.45 0.50 3.45 1.40 0 0.95 -5.55 0.85 -6.35 -0.10z"/>
 </g>
 <g fill="#85ac82">
  <path d="M24.25 19.05 c1.10 -0.50 2.10 -0.80 2.25 -0.70 0.50 0.45 -1.70 1.65 -2.95 1.60 -1.15 0 -1.05 -0.15 0.70 -0.90z"/>
  <path d="M21.75 17.50 c0.95 -1.05 2.50 -1.30 3 -0.55 0.35 0.60 -1.35 1.55 -2.80 1.55 -1.05 0 -1.10 -0.05 -0.20 -1z"/>
  <path d="M19.50 17.05 c0 -0.50 1.95 -2.30 2.15 -2 0.10 0.10 -0.35 0.70 -1 1.30 -0.65 0.60 -1.15 0.95 -1.15 0.70z"/>
 </g>
 <g fill="#b58c7a">
  <path d="M26 38.25 c0 -0.95 -0.20 -1.75 -0.50 -1.75 -0.25 0 -0.50 0.55 -0.50 1.25 0 1.45 -1.25 1.70 -1.65 0.30 -0.15 -0.60 0.65 -1.90 2.35 -3.85 2.45 -2.80 2.10 -2.90 -0.80 -0.25 -0.80 0.70 -1.40 0.95 -1.40 0.65 0 -0.35 -0.25 -0.60 -0.55 -0.60 -0.25 0 -0.45 0.50 -0.35 1.10 0.10 0.55 -0.15 1.15 -0.45 1.25 -0.35 0.15 -0.65 0 -0.65 -0.30 0 -0.30 -0.45 -0.55 -1 -0.55 -0.65 0 -1 0.35 -1 0.95 0 0.95 -1.45 1.50 -3 1.15 -0.75 -0.15 -3.20 -5.60 -2.50 -5.60 0.25 0 0.85 0.80 1.45 1.75 0.75 1.25 1.35 1.75 2.30 1.75 0.70 0 1.25 -0.20 1.25 -0.40 0 -0.90 -3.05 -4.60 -3.75 -4.60 -0.40 0 -0.75 -0.30 -0.75 -0.70 0 -0.40 0.85 -0.80 2.30 -1 3.70 -0.50 4.20 -0.40 4.20 0.70 0 0.55 0.35 1 0.75 1 0.40 0 0.75 -0.45 0.75 -1 0 -0.65 0.35 -1 0.95 -1 0.55 0 1.15 -0.20 1.30 -0.50 0.15 -0.25 0.80 -0.50 1.40 -0.50 l1.10 0.05 -1.15 0.95 c-1.05 0.85 -3.80 4.50 -3.45 4.50 0.10 0 1.90 -1.70 4 -3.75 2.75 -2.65 4.10 -3.65 4.70 -3.40 0.70 0.25 0.65 0.45 -0.45 1.40 -2.10 1.80 -2.70 3.30 -2.85 6.80 -0.10 2.45 0.05 3.40 0.65 3.90 1.40 1.15 0.95 2.05 -0.95 2.05 -1.65 0 -1.75 -0.10 -1.75 -1.75z m-6.20 -7.10 c-0.70 -1 -1.30 -1.60 -1.30 -1.25 0 0.75 2.10 3.70 2.40 3.40 0.10 -0.15 -0.40 -1.10 -1.10 -2.15z"/>
  <path d="M16.35 33.65 c-0.20 -0.15 -0.35 -0.55 -0.35 -0.85 0 -0.30 0.25 -0.25 0.60 0.10 0.30 0.30 0.45 0.70 0.35 0.85 -0.15 0.15 -0.45 0.10 -0.60 -0.10z"/>
  <path d="M12.50 29.35 c0 -0.30 -0.55 -1.65 -1.25 -2.95 -1.50 -2.85 -1.50 -2.90 -0.25 -2.90 0.75 0 1 -0.35 1 -1.40 0 -0.75 0.25 -1.65 0.60 -2 0.40 -0.40 0.40 -0.75 -0.10 -1.35 -0.35 -0.40 -0.50 -0.90 -0.30 -1.10 0.70 -0.75 1.80 1.65 1.70 3.70 -0.10 1.50 0.10 2.20 0.70 2.60 1.35 0.85 2 0.65 1.80 -0.55 -0.10 -0.80 -0.45 -1.10 -1 -1 -0.75 0.10 -0.90 -0.25 -0.90 -2.10 0 -1.85 0.15 -2.15 0.90 -2 0.45 0.15 1.40 1.40 2.10 2.85 0.70 1.45 1.65 2.65 2.15 2.75 0.70 0.15 0.65 -0.10 -0.40 -1.20 -1.40 -1.50 -1.65 -3.20 -0.50 -3.20 0.45 0 0.75 0.45 0.75 1.25 0 1.50 0.30 1.55 1.40 0.25 0.50 -0.55 1.70 -1.30 2.75 -1.75 l1.85 -0.75 0 1.25 c0 1 -0.30 1.35 -1.50 1.60 -1.55 0.30 -2.10 1.15 -0.75 1.15 0.50 0 0.75 0.55 0.75 1.75 l0 1.75 -2.95 0 c-2.70 0 -3 -0.10 -3.20 -1.10 -0.20 -1 -0.20 -0.95 -0.30 0.25 -0.05 1.20 -0.25 1.35 -1.80 1.35 -1.65 0 -1.75 0.10 -1.75 1.75 0 1.20 -0.25 1.75 -0.75 1.75 -0.40 0 -0.75 -0.30 -0.75 -0.65z m1.35 -3.70 c-0.20 -0.15 -0.50 -0.15 -0.70 0 -0.15 0.20 0 0.35 0.35 0.35 0.35 0 0.50 -0.15 0.35 -0.35z"/>
  <path d="M27.50 26 c0 -0.70 0.35 -1 1.10 -1 1 0 1.05 0.05 0.15 1 -0.50 0.55 -1 1 -1.10 1 -0.05 0 -0.15 -0.45 -0.15 -1z"/>
  <path d="M32 24.85 c0 -0.15 0.45 -1.30 1 -2.60 1.35 -3.20 1.20 -4 -0.25 -1.25 l-1.20 2.25 -0.05 -1.60 c0 -1.15 0.25 -1.65 0.75 -1.65 0.40 0 0.75 -0.35 0.75 -0.75 0 -0.50 -0.55 -0.75 -1.75 -0.75 -0.95 0 -1.75 -0.20 -1.75 -0.50 0 -0.25 -0.55 -0.50 -1.20 -0.50 -0.85 0 -1.30 -0.35 -1.50 -1.25 -0.25 -1.05 -0.60 -1.25 -2.25 -1.25 -2.70 0 -3.40 0.35 -4.80 2.45 -1.25 1.80 -1.25 1.80 -1.25 0.40 0 -0.75 0.60 -2 1.40 -2.90 1.30 -1.45 1.65 -1.60 5 -1.65 1.95 -0.05 3.75 -0.25 3.90 -0.45 0.20 -0.20 1 -0.35 1.80 -0.35 1.15 0 1.40 0.20 1.40 1.25 0 1 0.25 1.25 1.20 1.25 1.05 0 1.20 0.30 1.45 2.55 0.35 2.70 -0.85 6.95 -2.05 7.35 -0.30 0.10 -0.60 0.05 -0.60 -0.05z m0 -8.75 c-0.40 -0.10 -1.05 -0.55 -1.40 -1 -0.50 -0.65 -0.70 -0.70 -1.25 -0.10 -0.35 0.35 -0.35 0.50 -0.05 0.35 0.35 -0.20 0.70 0.10 0.85 0.60 0.20 0.75 0.50 0.90 1.40 0.70 0.80 -0.25 0.95 -0.40 0.45 -0.55z"/>
  <path d="M9 20 c0 -0.95 0.05 -0.95 1 -0.15 0.55 0.50 1 0.95 1 1 0 0.10 -0.45 0.15 -1 0.15 -0.65 0 -1 -0.35 -1 -1z"/>
  <path d="M13 15.40 c-0.80 -1.10 -1.50 -2.35 -1.50 -2.75 0 -0.80 -0.25 -0.80 -1.60 -0.10 -1.40 0.75 -1.45 0.50 -0.65 -2.15 0.95 -3.25 1.50 -4.15 3.25 -5.40 l1.50 -1.05 0 1.50 c0 1.05 -0.25 1.55 -0.75 1.55 -0.40 0 -0.75 0.35 -0.75 0.75 0 0.40 -0.20 0.75 -0.50 0.75 -0.25 0 -0.50 0.35 -0.50 0.75 0 0.40 0.25 0.75 0.50 0.75 0.30 0 0.50 0.75 0.50 1.70 0 0.95 0.25 1.90 0.50 2.05 0.30 0.15 0.50 0.75 0.50 1.30 0 0.50 0.20 0.95 0.45 0.95 0.25 0 0.55 0.35 0.75 0.75 0.50 1.30 -0.15 0.80 -1.70 -1.35z"/>
  <path d="M10.10 15.90 c0.25 -0.75 1.40 -0.90 1.45 -0.15 0 0.30 -0.35 0.60 -0.85 0.65 -0.50 0.15 -0.75 -0.05 -0.60 -0.50z"/>
  <path d="M16.50 12.35 c0 -2.05 0.60 -2.55 2.75 -2.25 l1.30 0.15 -2 2 -2.05 1.95 0 -1.85z"/>
  <path d="M31 10.25 c0 -1.40 0.20 -1.75 1 -1.75 0.55 0 1 -0.20 1 -0.50 0 -1.10 1.40 -0.45 1.70 0.80 0.55 2.20 -0.05 3.20 -2 3.20 -1.60 0 -1.70 -0.10 -1.70 -1.75z m2.35 -0.10 c-0.20 -0.15 -0.35 0 -0.35 0.35 0 0.35 0.15 0.50 0.35 0.35 0.15 -0.20 0.15 -0.50 0 -0.70z"/>
  <path d="M21 9 c0 -0.55 0.25 -1 0.50 -1 0.30 0 0.50 -0.35 0.50 -0.75 0 -0.55 0.60 -0.75 2.50 -0.75 2.30 0 2.50 0.10 2.50 1.15 0 1.05 -0.20 1.15 -1.80 0.95 -1.15 -0.15 -1.70 -0.05 -1.50 0.30 0.15 0.25 -0.05 0.65 -0.50 0.80 -1.45 0.55 -2.20 0.30 -2.20 -0.70z"/>
  <path d="M15 4.75 c0 -1.65 0.10 -1.75 1.75 -1.75 1.65 0 1.75 0.10 1.75 1.75 0 1.65 -0.10 1.75 -1.75 1.75 -1.65 0 -1.75 -0.10 -1.75 -1.75z"/>
  <path d="M28.50 5 c-0.40 -0.25 -1.50 -0.50 -2.35 -0.50 -1.45 0 -1.65 -0.15 -1.65 -1.35 0 -1.05 0.15 -1.20 0.45 -0.70 0.40 0.65 0.60 0.65 1.35 0 0.65 -0.55 0.90 -0.55 1.05 -0.05 0.15 0.30 0.75 0.60 1.40 0.60 0.65 0 1.85 0.55 2.60 1.25 l1.40 1.20 -1.75 0.05 c-0.95 0 -2.10 -0.25 -2.50 -0.50z"/>
 </g>
 <g fill="#c49d8a">
  <path d="M23.50 38.45 c0 -1.15 0.60 -2.30 2.30 -4.25 2.70 -3.15 2.30 -3.60 -0.55 -0.65 -1.10 1.10 -2.60 2.50 -3.35 3.05 l-1.40 0.95 0 -1.50 c0 -1.45 0.15 -1.55 1.75 -1.55 0.95 0 1.75 -0.20 1.75 -0.50 0 -0.25 -0.65 -0.50 -1.40 -0.50 -1.15 0 -1.65 -0.40 -2.60 -2.10 l-1.15 -2.05 1.15 0.30 c0.65 0.15 1.80 0.15 2.55 0 1.10 -0.20 1.45 -0.55 1.45 -1.45 0 -0.65 0.30 -1.20 0.65 -1.20 0.35 0 0.85 -0.50 1.10 -1.10 0.40 -0.90 1 -1.20 2.50 -1.30 l2 -0.10 -3.10 2.95 c-1.75 1.60 -3.15 3.15 -3.15 3.45 0 0.30 -0.40 0.75 -0.85 1.05 -0.50 0.25 -0.75 0.60 -0.55 0.80 0.15 0.20 0.80 -0.15 1.40 -0.75 0.90 -0.90 1.20 -1 1.60 -0.45 0.40 0.55 0.45 0.50 0.25 -0.15 -0.20 -0.55 0.80 -1.90 3.15 -4.25 1.95 -1.85 3.85 -4.25 4.25 -5.30 1.15 -2.90 0.85 -3.35 -0.55 -0.70 -0.65 1.30 -1.35 2.35 -1.50 2.35 -0.10 0 -0.10 -1.10 0.10 -2.50 0.30 -2.10 0.20 -2.50 -0.50 -2.50 -0.45 0 -0.80 -0.40 -0.80 -1 0 -0.75 -0.35 -1 -1.25 -1 -1.05 0 -1.25 -0.25 -1.25 -1.45 0 -0.80 0.30 -1.55 0.75 -1.75 0.95 -0.35 0.95 -1.50 0 -2.30 -1.15 -0.95 -0.90 -1.50 0.75 -1.50 1.25 0 1.50 0.20 1.50 1.25 0 0.80 0.30 1.25 0.75 1.25 0.75 0 0.95 -1.20 0.75 -5.25 -0.10 -2 -0.10 -2 0.95 -1.05 1.10 1 2.05 3.70 2.05 5.95 0 1.15 -0.20 1.35 -1.50 1.35 -1.15 0 -1.50 0.20 -1.50 1 0 0.55 0.35 1 0.75 1 0.50 0 0.75 0.50 0.75 1.50 0 1.05 0.25 1.50 0.80 1.50 0.65 0 0.75 0.35 0.50 1.75 -0.55 2.75 -1.75 5.25 -2.55 5.25 -0.40 0 -0.75 0.35 -0.75 0.75 0 0.45 -0.80 1.60 -1.80 2.55 -0.95 1 -1.65 2.05 -1.55 2.40 0.15 0.35 0.05 1.80 -0.25 3.25 -0.35 2.10 -0.30 2.80 0.25 3.50 1.50 1.75 1.45 2.05 -0.35 2.05 -1.75 0 -1.80 -0.05 -1.85 -1.85 l-0.05 -1.90 -0.50 2.15 c-0.55 2.55 -1.90 2.95 -1.90 0.55z m4.50 -0.20 c0 -0.15 -0.10 -0.25 -0.25 -0.25 -0.15 0 -0.25 0.10 -0.25 0.25 0 0.15 0.10 0.25 0.25 0.25 0.15 0 0.25 -0.10 0.25 -0.25z m5 -21.55 c0 -0.15 -0.55 -0.45 -1.25 -0.70 -0.70 -0.25 -1.25 -0.80 -1.25 -1.25 0 -1 -0.35 -0.95 -1.65 0.30 -1.10 1.05 -1.10 1.05 -0.05 0.75 0.70 -0.20 1.20 -0.10 1.35 0.35 0.25 0.60 2.85 1.10 2.85 0.55z m0.50 -6.20 c0 -0.25 -0.25 -0.50 -0.55 -0.50 -0.25 0 -0.35 0.25 -0.20 0.50 0.15 0.30 0.40 0.50 0.55 0.50 0.10 0 0.20 -0.20 0.20 -0.50z"/>
  <path d="M16.60 37.65 c-0.55 -0.20 -2.15 -3.35 -3.65 -7 -0.40 -1.10 -0.35 -1.15 2.45 -1.15 2.75 0 2.90 0.05 3.60 1.65 0.35 0.85 0.75 1.75 0.90 2 0.10 0.20 -0.25 0.35 -0.75 0.35 -0.50 0 -1.35 -0.70 -1.90 -1.50 -0.95 -1.40 -3.25 -2.15 -3.25 -1.05 0 0.85 2.15 4.50 2.85 4.75 1 0.40 2.25 -0.25 1.95 -1 -0.15 -0.40 0.05 -0.70 0.45 -0.70 1.05 0 1 3.30 -0.05 3.70 -0.90 0.35 -1.65 0.35 -2.60 -0.05z"/>
  <path d="M16.25 33.50 c-0.15 -0.25 -0.05 -0.50 0.20 -0.50 0.30 0 0.55 0.25 0.55 0.50 0 0.30 -0.10 0.50 -0.20 0.50 -0.15 0 -0.40 -0.20 -0.55 -0.50z"/>
  <path d="M10.85 25.35 c-1 -1.75 -1.85 -3.75 -1.85 -4.50 0 -1.20 0.10 -1.25 1.50 -0.70 2 0.75 2.85 0 2 -1.70 l-0.60 -1.20 1.05 1.10 c0.85 0.90 1 1.45 0.70 3.45 -0.20 1.55 -0.15 2.25 0.20 2.05 0.30 -0.20 0.90 0.10 1.40 0.65 0.90 0.95 0.85 1 -0.40 1 -1.15 0 -1.35 0.20 -1.35 1.50 0 0.85 -0.20 1.50 -0.40 1.50 -0.20 0 -1.25 -1.45 -2.25 -3.15z m1.45 -2.65 c-0.15 -0.40 -0.55 -0.70 -0.90 -0.65 -0.50 0 -0.50 0.10 0 0.30 0.30 0.10 0.65 0.85 0.65 1.55 0.05 0.90 0.15 1.05 0.30 0.45 0.15 -0.50 0.10 -1.25 -0.05 -1.65z"/>
  <path d="M18.50 25.30 c0 -0.40 -0.45 -0.85 -0.95 -1.05 -0.55 -0.15 -1.05 -0.80 -1.15 -1.40 -0.10 -0.60 -0.45 -1.05 -0.80 -0.95 -0.55 0.10 -0.70 -0.40 -0.85 -3.25 0 -0.55 -0.30 -1.35 -0.65 -1.75 -0.50 -0.60 -0.35 -0.70 0.85 -0.50 1.50 0.20 2.05 1.15 2.05 3.55 0 1.45 2.35 4.70 3.05 4.25 0.30 -0.15 -0.10 -0.85 -0.80 -1.60 -1.15 -1.10 -1.25 -1.55 -0.95 -3.55 0.15 -1.25 0.85 -3.05 1.55 -3.90 1.10 -1.55 1.40 -1.65 4.20 -1.65 2.85 0 2.95 0.05 2.95 1.35 0 1.05 -0.15 1.20 -0.60 0.75 -0.90 -0.90 -4.70 -0.75 -5.60 0.20 -1.40 1.35 -1.75 2.50 -1.45 4.40 0.20 1.30 0.50 1.75 0.95 1.60 0.40 -0.15 0.70 -0.05 0.70 0.20 0 0.30 0.55 0.50 1.25 0.50 1.10 0 1.25 0.20 1.25 1.75 l0 1.75 -2.50 0 c-1.85 0 -2.50 -0.20 -2.50 -0.70z m4 -1.05 c0 -0.15 -0.10 -0.25 -0.25 -0.25 -0.15 0 -0.25 0.10 -0.25 0.25 0 0.15 0.10 0.25 0.25 0.25 0.15 0 0.25 -0.10 0.25 -0.25z"/>
  <path d="M10.40 15.65 c0.35 -0.15 0.80 -0.10 0.95 0.05 0.20 0.15 -0.10 0.30 -0.65 0.25 -0.55 0 -0.70 -0.15 -0.30 -0.30z"/>
  <path d="M12.30 14.55 c-0.15 -0.20 -0.50 -1 -0.75 -1.75 -0.50 -1.20 -0.40 -1.30 0.70 -1.30 1.10 0 1.25 0.20 1.25 1.75 0 1.65 -0.60 2.30 -1.20 1.30z"/>
  <path d="M8.50 12.85 c0 -1.35 2.50 -6.85 3.10 -6.85 0.60 0 0.45 3.10 -0.25 4.45 -0.55 1.05 -2.85 3.05 -2.85 2.40z"/>
  <path d="M17.50 12.20 c0 -0.45 -0.55 -0.70 -1.50 -0.70 -1.40 0 -1.50 -0.15 -1.50 -1.75 0 -1.70 0.05 -1.75 2 -1.75 1.45 0 2 0.20 2 0.75 0 0.40 0.45 0.75 1 0.75 0.55 0 1 -0.25 1 -0.55 0 -1 1.45 -1.95 2.95 -1.95 0.85 0 1.55 0.25 1.55 0.50 0 0.30 -0.35 0.50 -0.75 0.50 -0.40 0 -0.75 0.35 -0.75 0.75 0 0.45 -0.60 0.90 -1.45 1.05 -0.80 0.15 -2.15 0.95 -3 1.70 -1.05 0.95 -1.55 1.20 -1.55 0.70z"/>
  <path d="M25.75 4.50 c-0.15 -0.25 -0.85 -0.50 -1.55 -0.50 -0.65 0 -1.20 -0.20 -1.20 -0.50 0 -0.25 -0.65 -0.50 -1.50 -0.50 -1.65 0 -2.10 -1.25 -0.60 -1.60 1.20 -0.30 4.10 0.50 4.10 1.15 0 0.30 0.45 0.45 1 0.30 1.50 -0.40 4.50 0.55 4.50 1.40 0 0.90 -4.25 1.10 -4.75 0.25z"/>
 </g>
 <g fill="#db9c80">
  <path d="M26 38.50 c0 -1 0.25 -1.50 0.75 -1.50 0.40 0 0.75 0.35 0.75 0.80 0 0.40 0.25 0.60 0.55 0.40 0.50 -0.30 1.45 0.60 1.45 1.45 0 0.20 -0.80 0.35 -1.75 0.35 -1.60 0 -1.75 -0.10 -1.75 -1.50z"/>
  <path d="M15.30 35.80 c-0.15 -0.65 -0.45 -1.60 -0.60 -2.15 -0.20 -0.55 0 -0.45 0.60 0.35 0.50 0.70 1.20 1.45 1.55 1.65 0.80 0.50 0.40 1.35 -0.60 1.35 -0.35 0 -0.80 -0.55 -0.95 -1.20z"/>
  <path d="M23.50 32.60 c0 -0.20 0.95 -1.10 2.15 -2 1.70 -1.35 2.15 -1.50 2.25 -0.85 0.25 1.15 -1.85 3.25 -3.25 3.25 -0.65 0 -1.15 -0.20 -1.15 -0.40z"/>
  <path d="M23.50 30.35 c0 -0.75 1.35 -2.15 1.70 -1.80 0.15 0.10 -0.20 0.75 -0.75 1.40 -0.65 0.80 -0.95 0.90 -0.95 0.40z"/>
  <path d="M15 26.50 c0 -1.10 0.15 -1.95 0.40 -1.95 1.35 0.25 2.10 -0.15 2.10 -1.15 l0 -1.05 1.25 1.15 c1.30 1.20 2.35 1.05 1.30 -0.20 -0.75 -0.85 0.25 -1.30 3 -1.30 1.85 0 1.95 0.05 1.95 1.65 0 2.60 -0.55 3.05 -3.45 2.70 -2.45 -0.30 -2.55 -0.25 -2.55 0.90 0 1.10 -0.20 1.25 -2 1.25 l-2 0 0 -2z m7.35 -2.35 c-0.20 -0.15 -0.50 -0.15 -0.70 0 -0.15 0.20 0 0.35 0.35 0.35 0.35 0 0.50 -0.15 0.35 -0.35z"/>
  <path d="M27 14.25 c0 -0.40 0.35 -0.75 0.80 -0.75 0.45 0 0.90 -0.45 1.05 -1 0.35 -1.25 1.65 -1.30 1.65 -0.10 0 1.15 -1.50 2.60 -2.65 2.60 -0.45 0 -0.85 -0.35 -0.85 -0.75z"/>
  <path d="M14 11.35 c0 -1.10 -0.30 -1.85 -0.75 -2.05 -1.15 -0.40 -1 -3.95 0.20 -5 1.40 -1.25 4.45 -2.25 6.95 -2.30 1.90 0 2.10 0.10 2.10 1.20 0 0.75 0.35 1.30 1 1.45 0.55 0.15 1 0.60 1 1.05 0 0.55 0.45 0.80 1.50 0.80 1.30 0 1.50 0.20 1.50 1.30 0 1.05 -0.15 1.25 -0.85 0.95 -1.45 -0.65 -3.40 -0.55 -3.25 0.15 0.05 0.40 -0.50 0.60 -1.65 0.60 -0.95 0 -1.75 -0.20 -1.75 -0.50 0 -0.25 -0.45 -0.50 -0.95 -0.50 -0.80 0 -1 0.40 -1.15 2.15 -0.15 2.05 -0.20 2.10 -2 2.25 -1.85 0.15 -1.90 0.10 -1.90 -1.55z m2.85 -1.70 c-0.20 -0.15 -0.50 -0.15 -0.70 0 -0.15 0.20 0 0.35 0.35 0.35 0.35 0 0.50 -0.15 0.35 -0.35z m0.15 -4.90 c0 -0.15 -0.10 -0.25 -0.25 -0.25 -0.15 0 -0.25 0.10 -0.25 0.25 0 0.15 0.10 0.25 0.25 0.25 0.15 0 0.25 -0.10 0.25 -0.25z"/>
  <path d="M31 9.75 c0 -1.65 0.10 -1.75 1.75 -1.75 1.70 0 1.75 0.05 1.75 1.90 -0.05 1.50 -0.15 1.70 -0.55 1 -0.25 -0.50 -0.75 -0.90 -1.05 -0.90 -0.35 0 -0.30 0.25 0.10 0.75 0.55 0.65 0.40 0.75 -0.70 0.75 -1.15 0 -1.30 -0.20 -1.30 -1.75z"/>
 </g>
 <g fill="#d2aa96">
  <path d="M23.85 39.65 c-0.85 -0.80 -0.20 -2.70 1.75 -5.10 1.15 -1.40 2.15 -2.45 2.30 -2.35 0.45 0.50 -0.50 3.30 -1.15 3.30 -0.35 0 -0.75 0.90 -0.95 2.25 -0.35 2.05 -1.10 2.80 -1.95 1.90z"/>
  <path d="M27.05 38.15 l0.10 -1.90 0.35 1.75 c0.20 0.95 0.40 1.35 0.45 0.90 0.05 -1.10 0.85 -1.15 1.25 -0.10 0.45 1.15 0.40 1.20 -0.95 1.20 -1.10 0 -1.25 -0.20 -1.20 -1.85z"/>
  <path d="M16.65 37.50 c-0.65 -0.25 -1.15 -0.90 -1.15 -1.45 0 -0.90 0.15 -0.95 1.25 -0.45 2.20 1 2.60 -0.15 1 -2.85 -1.30 -2.20 -1.45 -2.35 -3.05 -2.10 -1.55 0.25 -1.70 0.15 -2 -1.05 -0.15 -0.75 -0.45 -1.80 -0.65 -2.35 -0.25 -0.55 -0.40 -1.10 -0.35 -1.25 0 -0.15 -0.45 -0.80 -1.05 -1.45 -1.05 -1.15 -2.05 -4.30 -1.55 -4.80 0.10 -0.15 0.70 0.20 1.30 0.75 0.60 0.60 1.10 0.80 1.10 0.50 0 -0.25 0.35 -0.50 0.75 -0.50 0.40 0 0.75 -0.40 0.75 -0.85 0 -0.45 0.15 -0.65 0.35 -0.45 0.20 0.20 0.30 1.30 0.25 2.45 -0.15 1.80 0.05 2.20 1.10 2.65 0.70 0.35 1.35 0.45 1.55 0.30 0.45 -0.45 0.30 -2.60 -0.20 -2.60 -0.60 0 -1.65 -2.95 -1.25 -3.55 0.15 -0.25 -0.30 -1.15 -1.05 -2 -0.70 -0.85 -1.60 -2.35 -2 -3.30 -0.65 -1.50 -0.85 -1.70 -1.50 -1.15 -1 0.80 -1.45 0.35 -1 -0.95 0.25 -0.80 0.75 -1.05 2.05 -1.05 0.95 0 1.70 0.25 1.70 0.55 0 1 1.45 -0.55 1.60 -1.70 0.10 -0.85 0.55 -1.15 2.05 -1.25 1.40 -0.10 1.85 0 1.85 0.60 0 0.45 0.25 0.80 0.50 0.80 0.30 0 0.50 -0.20 0.50 -0.50 0 -0.25 0.65 -0.50 1.50 -0.50 0.80 0 1.65 -0.35 1.85 -0.75 0.35 -0.55 1 -0.65 3.05 -0.40 2.10 0.25 2.60 0.45 2.60 1.20 0 0.55 0.35 0.95 0.75 0.95 0.40 0 0.75 0.35 0.75 0.75 0 0.40 0.25 0.75 0.50 0.75 0.30 0 0.50 0.65 0.50 1.40 0 1.15 0.35 1.55 1.70 2.10 1.50 0.55 1.70 0.90 2 3.05 0.50 3.55 -1.10 7.60 -4.10 10.55 -1.30 1.25 -3.10 3.25 -4.05 4.35 -1 1.20 -2.10 2.05 -2.75 2.05 -0.75 0 -0.85 0.15 -0.40 0.45 0.50 0.30 0.10 0.80 -1.45 2 -2.20 1.60 -3.35 1.80 -5.30 1.05z m5.50 -2.35 c-0.35 -0.10 -0.95 -0.10 -1.25 0 -0.35 0.15 -0.10 0.25 0.60 0.25 0.70 0 0.95 -0.10 0.65 -0.25z m-2.25 -4 c-0.80 -1.40 -1.20 -1.65 -1.30 -1.05 -0.20 0.95 2.05 4.25 2.30 3.45 0.10 -0.30 -0.35 -1.40 -1 -2.40z m3.80 1.10 c0.15 -0.40 0.55 -0.75 0.90 -0.75 0.95 0 7.95 -7.75 8.75 -9.60 0.40 -0.90 0.60 -1.95 0.50 -2.35 -0.10 -0.50 -0.55 0.10 -1.05 1.30 -1.05 2.45 -1.80 2.40 -1.80 -0.15 0 -1.20 0.25 -1.70 0.75 -1.70 0.40 0 0.75 -0.15 0.75 -0.40 0 -0.20 -0.90 -0.30 -2 -0.20 -1.85 0.20 -2 0.10 -2 -1.05 0 -1.65 0.90 -2.20 1.70 -1.10 0.35 0.55 1.05 0.75 1.85 0.65 l1.20 -0.20 -1.35 -0.60 c-0.90 -0.35 -1.40 -0.95 -1.40 -1.65 0 -0.80 -0.15 -0.95 -0.60 -0.55 -0.40 0.25 -1.10 0.30 -1.65 0.05 -0.85 -0.30 -0.85 -0.40 -0.10 -0.40 1.10 -0.05 1.20 -2.30 0.10 -2.75 -0.40 -0.15 -0.75 -0.60 -0.75 -0.95 0 -0.90 -2.10 -2 -3.30 -1.75 -0.55 0.10 -0.90 0.50 -0.80 0.80 0.05 0.35 -0.15 0.60 -0.45 0.60 -2.45 0 -7.40 4.75 -6.65 6.40 0.20 0.45 0.40 1.80 0.45 2.90 0.05 2.20 1.95 5.70 3.15 5.70 0.30 0 0.60 0.25 0.60 0.50 0 0.30 -0.75 0.50 -1.70 0.50 -0.95 0 -1.90 0.25 -2.05 0.50 -0.15 0.30 -0.85 0.50 -1.55 0.50 -1.80 0 -1.40 1.70 0.45 1.90 0.75 0.10 1.35 0.45 1.35 0.90 0 0.40 0.25 0.70 0.50 0.70 0.30 0 0.50 -0.20 0.50 -0.50 0 -0.25 0.80 -0.50 1.75 -0.50 1.20 0 1.75 0.25 1.75 0.75 0 0.50 0.50 0.75 1.35 0.75 1.25 0 1.25 0.05 0.50 0.90 -0.95 1.05 -1.10 1.60 -0.40 1.60 0.25 0 0.55 -0.35 0.75 -0.75z m-7 -22.70 c-0.30 -0.30 -1.20 0.95 -1.20 1.70 0.05 0.30 0.35 0.05 0.75 -0.45 0.40 -0.55 0.60 -1.10 0.45 -1.25z"/>
  <path d="M25 28 c0 -0.80 -0.35 -1 -1.70 -1 -1.70 0 -1.75 -0.05 -2.15 -2.60 -0.25 -1.45 -0.35 -2.90 -0.20 -3.25 0.20 -0.35 1.60 -1.25 3.20 -2.05 l2.85 -1.45 0 1.45 c0 1.25 -0.15 1.40 -1.75 1.40 -1.95 0 -2.35 0.70 -0.70 1.15 0.90 0.25 1.05 0.60 0.85 2.30 -0.15 1.95 -0.10 2.05 1.25 2.05 0.75 0 1.50 -0.35 1.65 -0.75 0.20 -0.40 0.65 -0.75 1.10 -0.75 0.45 0 -0.20 0.90 -1.60 2.25 -1.35 1.25 -2.50 2.25 -2.60 2.25 -0.10 0 -0.20 -0.45 -0.20 -1z m-1.80 -3.75 c0.15 -0.45 0 -0.75 -0.45 -0.75 -0.80 0 -1.35 0.70 -0.90 1.20 0.50 0.50 1.05 0.35 1.35 -0.45z"/>
  <path d="M19 22.15 c-1.10 -1.40 -1.10 -2.20 0 -2.55 0.45 -0.15 0.55 0.10 0.30 1.10 -0.25 0.95 -0.15 1.30 0.45 1.30 0.40 0 0.75 0.35 0.75 0.75 0 1.05 -0.25 0.95 -1.50 -0.60z"/>
  <path d="M18.50 17.70 c0 -0.60 0.65 -1.80 1.45 -2.65 1.20 -1.30 1.80 -1.55 3.75 -1.55 2.70 0 3.25 1.20 0.65 1.35 -2.85 0.20 -3.75 0.60 -4.80 2.25 -0.90 1.40 -1.05 1.50 -1.05 0.60z"/>
  <path d="M14.50 33.45 c-0.35 -0.55 -0.50 -1.15 -0.35 -1.25 0.10 -0.10 0.45 0.35 0.75 1.05 0.70 1.50 0.35 1.65 -0.40 0.20z"/>
  <path d="M16.50 33.75 c0 -0.15 0.10 -0.25 0.25 -0.25 0.15 0 0.25 0.10 0.25 0.25 0 0.15 -0.10 0.25 -0.25 0.25 -0.15 0 -0.25 -0.10 -0.25 -0.25z"/>
  <path d="M12.50 18.25 c0 -0.15 0.10 -0.25 0.25 -0.25 0.15 0 0.25 0.10 0.25 0.25 0 0.15 -0.10 0.25 -0.25 0.25 -0.15 0 -0.25 -0.10 -0.25 -0.25z"/>
  <path d="M10.50 7.50 c0 -0.95 3.10 -3.55 5.75 -4.80 3 -1.40 7.25 -1.65 8.30 -0.40 0.35 0.40 1.05 0.65 1.55 0.55 0.50 -0.15 1.05 -0.05 1.20 0.25 0.15 0.25 0.75 0.40 1.25 0.25 1.15 -0.30 2.70 0.80 2.25 1.55 -0.65 1.10 -6.80 0.45 -6.80 -0.70 0 -0.85 -2.70 -0.90 -6.45 -0.20 -2.80 0.50 -3.85 1.25 -4.15 2.80 -0.15 1.05 -2.90 1.70 -2.90 0.70z"/>
  <path d="M21.50 7 c0 -0.35 0.15 -0.50 0.35 -0.35 0.15 0.20 0.15 0.50 0 0.70 -0.20 0.15 -0.35 0 -0.35 -0.35z"/>
 </g>
 <g fill="#e3b49c">
  <path d="M26.50 39.25 c0 -0.90 0.80 -1 1.15 -0.10 0.20 0.50 0.30 0.50 0.30 0 0.05 -0.90 1.05 -0.80 1.05 0.10 0 0.45 -0.45 0.75 -1.25 0.75 -0.80 0 -1.25 -0.30 -1.25 -0.75z"/>
  <path d="M17.25 37.65 c-1.10 -0.30 -1.75 -1.05 -1.75 -2.10 0 -0.60 0.15 -0.60 0.60 -0.15 0.35 0.35 1.35 0.60 2.30 0.60 1.30 0 1.65 0.20 1.50 0.85 -0.15 0.95 -1.05 1.20 -2.65 0.80z"/>
  <path d="M24 37 c0 -0.35 0.15 -0.50 0.35 -0.35 0.15 0.20 0.15 0.50 0 0.70 -0.20 0.15 -0.35 0 -0.35 -0.35z"/>
  <path d="M21 36.30 c0 -0.45 -0.40 -0.80 -0.95 -0.80 -0.70 0 -1.05 -0.45 -1.30 -1.55 -0.45 -2 0.10 -2.45 1.20 -1 0.60 0.80 1.05 1 1.25 0.60 0.20 -0.30 0.20 -0.75 0.05 -1.05 -0.15 -0.25 -0.05 -0.50 0.20 -0.50 0.30 0 0.55 0.45 0.55 1 0 1.35 0.70 1.25 1.50 -0.25 0.35 -0.70 0.90 -1.25 1.20 -1.25 0.65 0 4.95 -4.15 6.95 -6.65 0.75 -0.95 1.70 -2.70 2.10 -3.85 0.65 -1.85 0.65 -2.05 0 -1.80 -0.40 0.15 -0.75 0.05 -0.75 -0.20 0 -0.30 -0.35 -0.50 -0.75 -0.50 -0.40 0 -0.75 -0.20 -0.75 -0.50 0 -0.75 -1.95 -0.60 -2.80 0.20 -0.40 0.40 -0.70 1.25 -0.70 1.95 0 0.65 -0.45 1.60 -1 2.10 -0.55 0.50 -1 1.30 -1 1.80 0 0.85 -0.70 2 -2.40 3.75 -0.35 0.40 -1.20 0.70 -1.90 0.70 -0.95 0 -1.20 0.25 -1.20 1.35 0 1.25 0 1.30 -1 0.40 -0.95 -0.90 -1 -0.85 -1 0.15 0 1.25 -0.85 1.40 -2.20 0.35 -0.65 -0.50 -1.20 -0.55 -1.85 -0.25 -1.30 0.75 -1.35 0.65 -1.75 -1.35 -0.20 -1.05 -0.60 -2.25 -1 -2.65 -0.75 -0.90 -2.65 -5 -2.70 -5.85 0 -0.35 0.65 -0.45 2 -0.30 1.30 0.20 2 0.10 2 -0.30 0 -0.30 0.20 -0.55 0.45 -0.55 0.25 0 0.25 0.85 0 2.05 -0.30 1.15 -0.40 2.10 -0.35 2.15 0.10 0 0.70 0.35 1.35 0.70 1.60 0.90 2.30 0.10 2.10 -2.60 -0.05 -0.60 -0.30 -0.80 -0.80 -0.60 -0.70 0.25 -1.05 -1.05 -0.80 -3.05 0.05 -0.30 -0.50 -1.15 -1.15 -1.90 -0.70 -0.75 -1.50 -2.10 -1.80 -3.05 -0.55 -1.70 -1.70 -2.25 -2.15 -1.05 -0.10 0.30 -0.40 0.45 -0.60 0.25 -0.20 -0.20 0 -1.45 0.50 -2.85 0.95 -2.85 3.65 -5.60 6.95 -7.05 2.75 -1.15 7 -1.15 8.05 0.05 0.45 0.45 1.20 0.75 1.70 0.60 0.55 -0.15 1.10 0 1.25 0.30 0.20 0.30 0.90 0.40 1.50 0.25 0.80 -0.20 1.60 0.10 2.60 1 l1.45 1.25 -3.10 0.05 c-1.80 0 -3.15 -0.20 -3.15 -0.50 0 -0.25 -0.35 -0.50 -0.75 -0.50 -0.40 0 -0.75 -0.35 -0.75 -0.75 0 -0.50 -0.50 -0.75 -1.50 -0.75 -0.80 0 -1.50 0.25 -1.50 0.50 0 0.30 0.45 0.50 1 0.50 0.80 0 1 0.35 1 1.75 0 1.20 -0.25 1.75 -0.75 1.75 -0.40 0 -0.75 0.35 -0.75 0.75 0 0.40 -0.45 0.75 -1 0.75 -0.60 0 -2.25 1.20 -3.80 2.75 -2.60 2.65 -2.70 2.85 -1.95 3.90 0.40 0.60 0.75 2.05 0.75 3.25 0 2.25 1.60 5.10 2.85 5.10 0.95 0 0.80 -0.40 -0.60 -2.10 -1.25 -1.50 -1.45 -2.50 -0.50 -2.45 0.30 0.05 0.50 0.40 0.50 0.75 0 1.20 0.80 1.60 1.45 0.70 0.30 -0.45 1.70 -1.35 3.05 -2 3.15 -1.50 3.80 -2.55 2.45 -3.90 -0.85 -0.85 -1.40 -1 -3.15 -0.70 -1.15 0.20 -2.45 0.65 -2.85 1.10 -1.30 1.25 -1.25 0.30 0 -1.05 1.15 -1.25 1.60 -1.35 5.05 -1.35 3.75 0 4 -0.15 3.80 -1.85 -0.05 -0.35 0.35 -0.65 0.95 -0.65 0.80 0 1 -0.30 1 -1.75 0 -1.60 0.10 -1.75 1.45 -1.75 1.85 0 2.05 0.35 2.40 3.75 0.30 2.70 0.25 2.75 -1.05 2.75 -0.80 0 -1.30 -0.25 -1.30 -0.75 0 -0.40 -0.35 -0.75 -0.75 -0.75 -0.80 0 -0.95 0.45 -0.45 1.70 0.20 0.50 0.90 0.80 2.10 0.80 l1.75 0 -0.30 3.25 c-0.35 3.80 -1.75 6.75 -4.55 9.60 -1.15 1.15 -3.05 3.25 -4.30 4.65 -2.85 3.30 -5 4.90 -5 3.80z m-3.50 -9.80 c0 -0.25 -0.20 -0.50 -0.50 -0.50 -0.25 0 -0.50 0.25 -0.50 0.50 0 0.30 0.25 0.50 0.50 0.50 0.30 0 0.50 -0.20 0.50 -0.50z m5.70 -1.75 c-0.20 -0.45 -0.05 -0.75 0.35 -0.75 0.50 0 0.50 -0.15 0.05 -0.60 -0.40 -0.40 -0.75 -0.40 -1.35 0.10 -0.80 0.65 -0.75 0.75 0.05 1.35 1.15 0.85 1.25 0.80 0.90 -0.10z m9.80 -8.20 c0 -0.25 -0.45 -0.55 -1 -0.70 -0.55 -0.15 -1.20 -0.75 -1.40 -1.30 -0.40 -1.10 -0.40 -1.10 -1.60 0.25 -1.25 1.30 -1.25 1.30 -0.10 1 0.80 -0.30 1.10 -0.15 1.10 0.40 0 0.55 0.45 0.80 1.50 0.80 0.85 0 1.50 -0.20 1.50 -0.45z m-16 -6.90 c0 -1.10 -0.90 -0.70 -1.20 0.55 -0.15 0.65 -0.45 1.60 -0.60 2.15 -0.15 0.50 0.15 0.25 0.75 -0.60 0.55 -0.80 1.05 -1.80 1.05 -2.10z m16.50 0.60 c-0.35 -0.45 -0.75 -0.65 -0.90 -0.50 -0.15 0.10 0.05 0.55 0.40 1 0.35 0.45 0.75 0.65 0.90 0.50 0.15 -0.10 -0.05 -0.55 -0.40 -1z m-14.85 -5.10 c1.70 -0.25 2.35 -0.55 2.35 -1.15 0 -0.50 -0.90 -0.45 -5.05 0.30 -0.95 0.20 -1.40 0.65 -1.60 1.60 -0.40 2.05 0.10 2.30 1.70 0.80 0.80 -0.75 1.95 -1.45 2.60 -1.55z m4.15 2.30 c0.15 -0.30 0.10 -0.75 -0.20 -1.05 -0.30 -0.30 -0.55 -0.10 -0.75 0.55 -0.25 1.10 0.35 1.45 0.95 0.50z m-4.45 -1.30 c-0.20 -0.15 -0.35 0 -0.35 0.35 0 0.35 0.15 0.50 0.35 0.35 0.15 -0.20 0.15 -0.50 0 -0.70z"/>
  <path d="M25.75 34.50 c1 -1.10 1.55 -1 1.10 0.25 -0.20 0.40 -0.70 0.75 -1.15 0.75 -0.80 0 -0.80 -0.10 0.05 -1z"/>
  <path d="M14.75 33.95 c-0.20 -0.30 -0.25 -0.60 -0.10 -0.75 0.10 -0.15 0.35 0.10 0.50 0.55 0.35 0.85 0.05 1 -0.40 0.20z"/>
  <path d="M24 29.75 c0 -0.15 0.10 -0.25 0.25 -0.25 0.15 0 0.25 0.10 0.25 0.25 0 0.15 -0.10 0.25 -0.25 0.25 -0.15 0 -0.25 -0.10 -0.25 -0.25z"/>
  <path d="M26 28 c0 -0.25 0.25 -0.60 0.50 -0.75 0.30 -0.15 0.50 -0.95 0.50 -1.80 0 -1.20 0.20 -1.45 1.20 -1.45 0.75 0 1.70 -0.60 2.45 -1.50 1.40 -1.60 1.85 -1.85 1.85 -0.90 0 0.30 -1.45 2 -3.25 3.70 -1.80 1.70 -3.25 2.95 -3.25 2.70z"/>
  <path d="M32.50 20.25 c0 -0.15 0.10 -0.25 0.25 -0.25 0.15 0 0.25 0.10 0.25 0.25 0 0.15 -0.10 0.25 -0.25 0.25 -0.15 0 -0.25 -0.10 -0.25 -0.25z"/>
  <path d="M19 17.25 c0 -0.15 0.10 -0.25 0.25 -0.25 0.15 0 0.25 0.10 0.25 0.25 0 0.15 -0.10 0.25 -0.25 0.25 -0.15 0 -0.25 -0.10 -0.25 -0.25z"/>
 </g>
 <g fill="#f0c5af">
  <path d="M24 38.25 c0 -1.35 0.45 -2.25 1.90 -3.80 l1.85 -2 -0.15 3.75 -0.20 3.80 -1.70 0 c-1.60 0 -1.70 -0.10 -1.70 -1.75z"/>
  <path d="M28 38.95 c0 -0.90 0.10 -0.95 0.75 -0.45 0.40 0.35 0.75 0.80 0.75 1.05 0 0.25 -0.35 0.45 -0.75 0.45 -0.45 0 -0.75 -0.45 -0.75 -1.05z"/>
  <path d="M17.90 37.65 c-1.10 -0.30 -1.20 -1.65 -0.15 -1.65 1.35 0 1.35 -1.35 0.05 -3.40 -1.25 -2 -2.80 -2.95 -3.75 -2.35 -0.55 0.30 -1.55 -1.25 -1.55 -2.45 0 -1.15 1.05 -1 1.35 0.20 0.15 0.55 0.60 1 0.95 1 1 0 0.85 -0.70 -0.30 -1.75 -0.55 -0.50 -1 -1.35 -1 -1.85 0 -0.85 0.25 -0.95 1.50 -0.65 1.40 0.30 1.50 0.25 1.50 -1.20 0 -1.10 -0.25 -1.55 -0.80 -1.55 -0.60 0 -0.75 -0.50 -0.65 -2.30 0.10 -1.40 -0.10 -2.40 -0.45 -2.65 -0.35 -0.20 -0.50 -0.80 -0.30 -1.35 0.20 -0.65 0.15 -0.75 -0.15 -0.30 -0.40 0.55 -0.60 0.55 -1 0 -0.75 -0.95 -1.25 -3.40 -0.70 -3.40 0.25 0 0.80 -0.15 1.25 -0.30 0.55 -0.20 0.80 -0.05 0.80 0.55 0 1.20 1.10 0.65 2.25 -1.10 1.15 -1.75 4.35 -3.60 4.65 -2.65 0.15 0.40 0.40 0.40 0.90 -0.05 0.80 -0.65 0.95 -2.45 0.20 -2.45 -0.25 0 -0.50 0.25 -0.50 0.50 0 0.30 -0.20 0.50 -0.50 0.50 -0.25 0 -0.50 -0.90 -0.50 -2.05 0 -1.70 -0.15 -2 -0.85 -1.75 -1.70 0.50 -4.25 0.55 -4.35 0.10 -0.10 -0.75 3.55 -1.75 5.95 -1.55 1.25 0.05 2.70 0.50 3.20 0.95 0.50 0.45 1 0.65 1.20 0.50 0.20 -0.20 0.85 0 1.50 0.45 0.70 0.45 1.70 0.65 2.25 0.50 1.45 -0.35 3.85 2.10 4.55 4.65 0.30 1.05 0.55 3.80 0.55 6.10 0 3.35 -0.15 4.10 -0.80 4.10 -0.40 0 -1.10 0.85 -1.55 1.85 -0.40 1.05 -2.80 3.90 -5.45 6.45 -2.60 2.55 -4.70 4.85 -4.70 5.15 0 0.80 1 0.65 1.30 -0.20 0.20 -0.40 0.70 -0.75 1.20 -0.75 0.50 0 1 -0.30 1.15 -0.70 0.40 -1 2.35 -2.05 2.35 -1.30 0 1.25 -8.30 8.65 -9.45 8.45 -0.15 -0.05 -0.70 -0.15 -1.15 -0.30z m3.35 -4.10 c0.30 -0.55 -2.25 -4.50 -2.90 -4.55 -0.55 0 0.10 2.05 0.95 3.05 0.40 0.40 0.70 1.05 0.70 1.35 0 0.70 0.80 0.80 1.25 0.15z m0.25 -4.30 c0 -0.15 -0.10 -0.25 -0.25 -0.25 -0.15 0 -0.25 0.10 -0.25 0.25 0 0.15 0.10 0.25 0.25 0.25 0.15 0 0.25 -0.10 0.25 -0.25z m-3.50 -2.55 c0 -0.80 0.60 -0.80 2.55 0 0.80 0.35 2.95 -1.15 2.95 -2.10 0 -0.30 0.30 -0.65 0.65 -0.75 0.45 -0.20 0.40 -0.40 -0.15 -0.80 -0.65 -0.45 -0.45 -0.75 1 -2 0.95 -0.85 1.55 -1.50 1.35 -1.55 -0.65 0 -3.50 2.10 -4.30 3.15 -0.80 1.15 -1.60 0.50 -1.25 -1 0.20 -0.65 1.15 -1.45 2.65 -2.10 1.30 -0.55 2.70 -1.40 3.15 -1.90 0.75 -0.85 0.75 -1 -0.15 -2.10 -0.95 -1.15 -1.15 -1.20 -3.50 -0.70 -1.35 0.25 -2.60 0.30 -2.75 0.10 -0.45 -0.75 1.10 -1.20 5 -1.45 4.30 -0.25 5 -0.80 3.35 -2.45 -0.60 -0.60 -1.05 -1.25 -1.05 -1.55 0 -0.70 -1.75 -1.50 -3.20 -1.50 -0.85 0 -1.30 0.30 -1.30 0.80 0 0.50 -0.35 0.70 -0.95 0.60 -0.70 -0.10 -1.90 0.80 -3.80 2.80 -2.60 2.70 -2.75 3 -2.10 4 0.35 0.55 0.70 2.05 0.75 3.25 0 1.20 0.40 2.55 0.85 3.05 1 1.15 0.60 2.80 -0.80 3.25 -1.10 0.35 -1.25 1.05 -0.30 1.40 1.10 0.45 1.35 0.35 1.35 -0.45z m15.50 -9.95 c0 -0.15 -0.55 -0.50 -1.25 -0.75 -0.70 -0.25 -1.45 -0.90 -1.65 -1.45 -0.35 -0.90 -0.40 -0.90 -1.85 0.25 l-1.50 1.20 1.40 0 c0.75 0 1.35 0.25 1.35 0.50 0 0.30 0.80 0.50 1.75 0.50 0.95 0 1.75 -0.10 1.75 -0.25z m0.20 -6.35 c-0.65 -1.20 -0.95 -1.40 -1.10 -0.80 -0.10 0.45 0.25 1.25 0.75 1.80 1.25 1.30 1.40 1 0.35 -1z"/>
  <path d="M19.20 22.40 c-0.20 -0.35 -0.15 -0.40 0.20 -0.20 0.60 0.35 0.80 0.80 0.40 0.80 -0.15 0 -0.40 -0.25 -0.60 -0.60z"/>
  <path d="M18.50 21 c0 -0.35 0.15 -0.50 0.35 -0.35 0.15 0.20 0.15 0.50 0 0.70 -0.20 0.15 -0.35 0 -0.35 -0.35z"/>
  <path d="M30 27.30 c0 -0.10 0.80 -1.15 1.75 -2.30 1.90 -2.25 2.15 -2.25 1 0 -0.65 1.25 -2.75 3 -2.75 2.30z"/>
  <path d="M10.65 24.60 l-1.05 -1.90 1.35 0.20 c1.20 0.15 1.35 0.40 1.35 1.90 -0.05 0.95 -0.15 1.70 -0.30 1.70 -0.15 0 -0.75 -0.85 -1.35 -1.90z"/>
  <path d="M33.55 22 c0 -0.40 0.20 -1.20 0.45 -1.75 l0.45 -1 0 1 c0 0.55 -0.20 1.35 -0.45 1.75 -0.45 0.65 -0.50 0.65 -0.45 0z"/>
  <path d="M9.85 21.70 c-0.40 -0.40 0.05 -1.20 0.60 -1.20 0.20 0 0.40 0.35 0.40 0.75 0 0.80 -0.45 1 -1 0.45z"/>
  <path d="M12 21.45 c0 -0.25 0.25 -0.35 0.50 -0.20 0.30 0.15 0.50 0.40 0.50 0.55 0 0.10 -0.20 0.20 -0.50 0.20 -0.25 0 -0.50 -0.25 -0.50 -0.55z"/>
  <path d="M9.85 9.80 c0.90 -3.10 2.50 -5.05 3.50 -4.25 0.35 0.30 0.65 1.15 0.65 1.80 0 1.10 -0.10 1.20 -0.80 0.60 -0.95 -0.80 -1.70 0.10 -1.70 2.05 0 0.80 -0.40 1.45 -1.20 1.80 l-1.20 0.55 0.75 -2.55z"/>
  <path d="M15.10 8.40 c0.35 -0.95 1.90 -1.10 1.90 -0.20 0 0.50 -0.45 0.80 -1.05 0.80 -0.60 0 -0.95 -0.25 -0.85 -0.60z"/>
  <path d="M14.50 3.75 c0 -0.15 0.10 -0.25 0.25 -0.25 0.15 0 0.25 0.10 0.25 0.25 0 0.15 -0.10 0.25 -0.25 0.25 -0.15 0 -0.25 -0.10 -0.25 -0.25z"/>
 </g>
 <g fill="#fad7c4">
  <path d="M28 39.20 c0 -0.45 0.25 -0.70 0.60 -0.60 0.90 0.30 1.05 1.40 0.20 1.40 -0.45 0 -0.80 -0.35 -0.80 -0.80z"/>
  <path d="M24.25 38 c-0.40 -0.60 0.85 -3 2.20 -4.20 1.05 -0.95 1.05 -0.95 1.05 0.15 0 2.70 -2.30 5.55 -3.25 4.05z"/>
  <path d="M18 36.75 c0 -0.40 0.25 -0.75 0.50 -0.75 0.70 0 0.60 -1.50 -0.20 -2.95 -0.40 -0.70 -0.60 -1.55 -0.45 -1.90 0.30 -0.75 1.65 1.45 1.65 2.65 0 0.95 1.30 0.90 1.70 -0.10 0.15 -0.45 -0.35 -1.70 -1.25 -3 -1.55 -2.25 -1.75 -4.15 -0.40 -3.75 0.40 0.15 1.30 0.25 2.10 0.20 0.80 0 1.35 0.25 1.35 0.65 0 0.40 0.25 0.70 0.50 0.70 0.90 0 0.55 1.65 -0.60 2.85 -0.85 0.90 -0.95 1.30 -0.50 1.75 0.50 0.50 0.80 0.35 1.40 -0.55 0.55 -0.75 1 -0.95 1.30 -0.65 0.65 0.65 -0.95 2.95 -2.35 3.40 -0.55 0.20 -1.30 0.75 -1.65 1.25 -0.80 1.15 -3.10 1.30 -3.10 0.20z"/>
  <path d="M26.60 31 c0.65 -1 1.40 -1.35 1.40 -0.60 0 0.50 -1.10 1.60 -1.60 1.60 -0.25 0 -0.15 -0.45 0.20 -1z"/>
  <path d="M17.50 29.25 c0 -0.15 0.10 -0.25 0.25 -0.25 0.15 0 0.25 0.10 0.25 0.25 0 0.15 -0.10 0.25 -0.25 0.25 -0.15 0 -0.25 -0.10 -0.25 -0.25z"/>
  <path d="M16.40 28.15 c-0.50 -0.10 -0.90 -0.45 -0.90 -0.70 0 -0.30 0.40 -0.25 1 0.05 0.55 0.30 1 0.65 1 0.75 0 0.15 -0.05 0.20 -0.10 0.20 -0.10 -0.05 -0.55 -0.15 -1 -0.30z"/>
  <path d="M24.20 27.30 c-0.65 -1.40 -0.40 -2.45 0.85 -3.20 0.90 -0.55 1.15 -0.55 1.70 0.20 0.60 0.80 0.65 0.80 1.20 -0.20 0.70 -1.35 -0.05 -3.10 -1.30 -3.10 -0.65 0 -0.60 -0.25 0.35 -1.30 0.85 -0.85 1.05 -1.35 0.65 -1.60 -0.35 -0.20 -0.45 -0.60 -0.25 -0.90 0.50 -0.80 2.60 -1.40 2.60 -0.75 0 0.30 0.50 0.55 1.15 0.55 1 0.05 1 0.10 0.20 0.55 -0.70 0.40 -0.75 0.70 -0.30 1.55 0.50 0.95 0.60 0.95 1.50 -0.55 1.05 -1.75 1.35 -4.15 0.35 -3.15 -0.80 0.80 -2.40 -0.20 -2.40 -1.55 -0.05 -1 -0.10 -1.05 -0.70 -0.20 -0.35 0.45 -0.85 0.85 -1.10 0.85 -0.20 0 -0.15 -0.25 0.20 -0.60 0.90 -0.90 0.75 -2.30 -0.35 -3 -0.50 -0.30 -0.85 -0.85 -0.70 -1.15 0.20 -0.55 -0.70 -1.05 -3.60 -2 -0.85 -0.25 -0.75 -0.40 0.75 -1.10 2.35 -1.10 2.30 -1 1.30 -2.10 -1.15 -1.25 -0.05 -1.70 1.60 -0.65 0.60 0.40 1.55 0.60 2.05 0.45 1.95 -0.50 4.10 2.05 4.70 5.65 0.25 1.50 0.20 1.60 -0.30 0.80 -1.70 -2.60 -3.40 -4.80 -3.75 -4.80 -0.65 0 -1.50 2.40 -1.25 3.70 0.20 1 0.60 1.25 2.10 1.40 1.70 0.15 1.80 0.25 1.65 1.65 -0.15 1.20 -0.05 1.40 0.45 0.90 1.15 -1.15 1.45 -0.70 1.45 2.10 0 2 -0.20 2.75 -0.70 2.75 -0.35 0 -1.15 1.10 -1.70 2.45 -0.60 1.30 -1.60 2.75 -2.20 3.15 -0.65 0.45 -1.90 1.50 -2.80 2.45 -1.95 2 -2.70 2.15 -3.40 0.75z m5.65 -6.65 c-0.20 -0.15 -0.50 -0.15 -0.70 0 -0.15 0.20 0 0.35 0.35 0.35 0.35 0 0.50 -0.15 0.35 -0.35z"/>
  <path d="M17 23.50 c0 -0.25 0.25 -0.50 0.55 -0.50 0.25 0 0.35 0.25 0.20 0.50 -0.15 0.30 -0.40 0.50 -0.55 0.50 -0.10 0 -0.20 -0.20 -0.20 -0.50z"/>
  <path d="M15.65 17.15 c-0.35 -0.15 -0.65 -0.70 -0.65 -1.30 0 -1.05 0 -1.05 0.80 0.05 0.85 1.25 0.80 1.60 -0.15 1.25z"/>
  <path d="M21.50 14.45 c0 -0.25 0.25 -0.35 0.50 -0.20 0.30 0.15 0.50 0.40 0.50 0.55 0 0.10 -0.20 0.20 -0.50 0.20 -0.25 0 -0.50 -0.25 -0.50 -0.55z"/>
  <path d="M15.50 13.90 c0 -0.85 3.80 -4.90 4.60 -4.90 0.85 0 0.30 0.90 -2.10 3.25 -1.65 1.60 -2.50 2.20 -2.50 1.65z"/>
  <path d="M23.40 14.15 c0.30 -0.10 0.90 -0.10 1.25 0 0.30 0.15 0.05 0.25 -0.65 0.25 -0.70 0 -0.95 -0.10 -0.60 -0.25z"/>
  <path d="M15.65 8.15 c0.20 -0.15 0.50 -0.15 0.70 0 0.15 0.20 0 0.35 -0.35 0.35 -0.35 0 -0.50 -0.15 -0.35 -0.35z"/>
  <path d="M23.50 3 c0 -0.35 0.15 -0.50 0.35 -0.35 0.15 0.20 0.15 0.50 0 0.70 -0.20 0.15 -0.35 0 -0.35 -0.35z"/>
  <path d="M18.25 2 c1.35 -0.60 2.15 -0.60 1.25 0 -0.40 0.25 -1.10 0.45 -1.50 0.45 -0.50 0 -0.40 -0.15 0.25 -0.45z"/>
 </g>
 <g fill="#fee5d3">
  <path d="M28.10 39.45 c0.10 -0.30 0.40 -0.50 0.65 -0.50 0.25 0 0.55 0.20 0.65 0.50 0.10 0.30 -0.20 0.55 -0.65 0.55 -0.45 0 -0.75 -0.25 -0.65 -0.55z"/>
  <path d="M26.05 35.20 c0 -0.55 0.15 -0.70 0.30 -0.30 0.15 0.35 0.10 0.80 -0.05 0.95 -0.15 0.20 -0.30 -0.10 -0.25 -0.65z"/>
  <path d="M21 34.30 c0 -0.85 0.70 -1.45 1.15 -1 0.40 0.40 -0.15 1.70 -0.70 1.70 -0.25 0 -0.45 -0.30 -0.45 -0.70z"/>
  <path d="M23.60 32.90 c0.25 -0.75 1.40 -1.15 1.40 -0.50 0 0.25 -0.35 0.65 -0.80 0.80 -0.50 0.20 -0.70 0.05 -0.60 -0.30z"/>
  <path d="M30 22.75 c0 -0.65 2.55 -3.40 2.85 -3.05 0.10 0.10 -0.20 0.95 -0.60 1.95 -0.75 1.80 -2.25 2.55 -2.25 1.10z"/>
  <path d="M28.20 18.55 c0.25 -2.25 0.85 -2.45 1.95 -0.50 1.15 2.05 1.10 2.30 -0.60 2.30 -1.40 0 -1.50 -0.15 -1.35 -1.80z"/>
  <path d="M33.90 17.45 c-0.30 -0.90 0.20 -3.95 0.60 -3.95 0.55 0 0.50 3.95 0 4.25 -0.25 0.15 -0.50 0 -0.60 -0.30z"/>
  <path d="M16 13.40 c0 -0.45 0.35 -0.95 0.80 -1.10 1.25 -0.50 1.35 -0.05 0.20 0.95 -0.85 0.75 -1 0.80 -1 0.15z"/>
  <path d="M31.25 13 c-0.15 -0.25 -0.65 -0.30 -1.10 -0.15 -0.55 0.20 -0.70 0.10 -0.55 -0.40 0.10 -0.40 0.70 -0.75 1.30 -0.85 0.85 -0.15 1.10 0.10 1.10 0.85 0 1.15 -0.25 1.35 -0.75 0.55z"/>
  <path d="M28.15 10 c-0.15 -0.60 -0.95 -1.40 -1.80 -1.85 l-1.55 -0.80 1.15 -0.90 c0.80 -0.65 1.05 -1.25 0.80 -1.95 -0.35 -1.15 0.10 -1.25 1.45 -0.25 0.55 0.40 1.45 0.60 2 0.50 0.60 -0.15 1.30 -0.10 1.55 0.10 1.35 1 2.75 3.40 2.70 4.60 -0.05 0.95 -0.15 1.05 -0.30 0.35 -0.35 -1.40 -2.70 -3.80 -3.70 -3.80 -1 0 -1.60 1.95 -1.15 3.75 0.20 0.80 0.10 1.25 -0.30 1.25 -0.30 0 -0.70 -0.45 -0.85 -1z"/>
 </g>
 <g fill="#fff6e7">
  <path d="M28.50 39.20 c0 -0.40 0.25 -0.60 0.50 -0.45 0.30 0.15 0.50 0.50 0.50 0.80 0 0.25 -0.20 0.45 -0.50 0.45 -0.25 0 -0.50 -0.35 -0.50 -0.80z"/>
  <path d="M21.50 34.25 c0 -0.15 0.10 -0.25 0.25 -0.25 0.15 0 0.25 0.10 0.25 0.25 0 0.15 -0.10 0.25 -0.25 0.25 -0.15 0 -0.25 -0.10 -0.25 -0.25z"/>
  <path d="M31.25 22 c0.15 -0.25 0.40 -0.50 0.55 -0.50 0.10 0 0.20 0.25 0.20 0.50 0 0.30 -0.25 0.50 -0.55 0.50 -0.25 0 -0.35 -0.20 -0.20 -0.50z"/>
  <path d="M29.65 19.15 c0.20 -0.15 0.50 -0.15 0.70 0 0.15 0.20 0 0.35 -0.35 0.35 -0.35 0 -0.50 -0.15 -0.35 -0.35z"/>
  <path d="M28 9.80 c0 -0.35 -0.55 -1.05 -1.25 -1.50 -1.50 -1 -1.60 -1.60 -0.20 -1.95 0.80 -0.20 0.95 -0.55 0.70 -1.30 -0.30 -1 -0.25 -1 1 -0.45 1.10 0.50 1.25 0.80 1 1.85 -0.20 0.75 -0.35 1.90 -0.30 2.70 0 0.75 -0.20 1.35 -0.45 1.35 -0.30 0 -0.50 -0.30 -0.50 -0.70z"/>
  <path d="M31.50 6.20 c-1.40 -1 -1.55 -1.20 -0.70 -1.20 1 0 3.10 1.75 2.65 2.20 -0.10 0.10 -1 -0.35 -1.95 -1z"/>
 </g>
</svg>