<?xml version="1.0" encoding="utf-8"?>
<!DOCTYPE svg PUBLIC "-//W3C//DTD SVG 1.0//EN" "http://www.w3.org/TR/2001/REC-SVG-20010904/DTD/svg10.dtd">
<svg version="1.0" xmlns="http://www.w3.org/2000/svg" width="40px" height="40px" viewBox="0 0 40 40" preserveAspectRatio="xMidYMid meet">
 <g fill="#211514">
  <path d="M21.50 34.50 c0 -3.30 1.70 -5 5.15 -5 1.10 0 1.35 0.20 1.35 1.25 0 1.85 -1.50 4.65 -2.70 4.95 -0.60 0.15 -1.65 0.30 -2.40 0.30 -1.25 0 -1.40 -0.20 -1.40 -1.50z"/>
  <path d="M18.80 21.70 c-0.15 -0.45 -0.30 -1.45 -0.30 -2.25 0 -1.25 0.20 -1.45 1.45 -1.45 1.20 0 1.40 -0.20 1.20 -0.95 -0.25 -0.95 -1.05 -1.40 -3.65 -2 -1 -0.25 -1.30 -0.65 -1.40 -2.20 -0.15 -1.85 -0.15 -1.85 1.75 -1.85 3.10 0 5.65 0.90 5.65 2 0 0.50 0.25 1 0.55 1.10 0.30 0.10 0.65 1.25 0.80 2.55 0.25 2.25 0.25 2.35 -1.05 2.35 -1.15 0 -1.30 0.20 -1.30 1.75 0 1.65 -0.10 1.75 -1.70 1.75 -1.10 0 -1.80 -0.30 -2 -0.80z"/>
  <path d="M27 19.75 c0 -0.95 0.25 -1.75 0.50 -1.75 0.30 0 0.50 -1.10 0.50 -2.45 0 -3.50 0.30 -4.05 2.25 -4.05 0.95 0 1.80 0.20 1.95 0.40 0.35 0.60 -0.80 7.60 -1.30 7.60 -0.20 0 -0.40 0.45 -0.40 1 0 0.80 -0.35 1 -1.75 1 -1.65 0 -1.75 -0.10 -1.75 -1.75z"/>
  <path d="M13 16.75 c0 -1.65 0.10 -1.75 1.75 -1.75 1.65 0 1.75 0.10 1.75 1.75 0 1.65 -0.10 1.75 -1.75 1.75 -1.65 0 -1.75 -0.10 -1.75 -1.75z"/>
  <path d="M4 10.75 c0 -0.70 1.60 -3.25 2 -3.25 0.30 0 0.50 0.80 0.50 1.75 0 1.55 -0.15 1.75 -1.25 1.75 -0.70 0 -1.25 -0.10 -1.25 -0.25z"/>
 </g>
 <g fill="#2e2a25">
  <path d="M27.50 39.50 c0 -0.25 -0.80 -0.50 -1.75 -0.50 -1.55 0 -1.75 -0.15 -1.75 -1.25 0 -1 -0.25 -1.25 -1.25 -1.25 -1 0 -1.25 0.25 -1.25 1.25 0 1.15 -0.20 1.25 -2 1.25 l-2 0 0 -2 c0 -1.95 0.05 -2 1.75 -2 1.45 0 1.75 -0.20 1.75 -1.05 0 -0.90 0.25 -1.05 1.40 -0.85 1.30 0.20 1.35 0.10 1.35 -1.85 0 -1.95 0.05 -2 1.90 -2.15 1.60 -0.15 1.85 -0.35 1.85 -1.40 0 -0.75 0.30 -1.20 0.75 -1.20 0.50 0 0.75 -0.50 0.75 -1.50 0 -1.25 0.20 -1.50 1.25 -1.50 1.45 0 1.55 0.35 0.50 1.85 -0.40 0.60 -1.25 2.50 -1.90 4.25 -0.90 2.60 -1.30 3.15 -2.20 3.10 -0.60 0 -1 0.15 -0.85 0.40 0.15 0.20 0.25 1.30 0.30 2.35 0 1.70 0.20 2 1.35 2.30 2 0.50 2.85 2.25 1.05 2.25 -0.55 0 -1 -0.20 -1 -0.50z"/>
  <path d="M0 38.25 c0 -0.40 0.60 -0.85 1.40 -1.05 0.75 -0.15 2 -0.50 2.80 -0.75 2.15 -0.65 2.80 -0.55 2.80 0.50 0 0.75 -0.55 1.10 -2.50 1.50 -3.45 0.75 -4.50 0.70 -4.50 -0.20z"/>
  <path d="M7.50 36.50 c0 -0.65 0.35 -1 0.90 -1 0.55 0 1.35 0.45 1.85 1 0.90 1 0.85 1 -0.90 1 -1.50 0 -1.85 -0.20 -1.85 -1z"/>
  <path d="M12.75 34.90 c-0.15 -0.90 -0.35 -2.60 -0.45 -3.75 -0.15 -1.85 0 -2.15 0.75 -2.15 0.65 0 0.95 0.35 0.95 1.15 0 0.60 0.15 2.30 0.30 3.75 0.30 2.20 0.20 2.60 -0.45 2.60 -0.50 0 -0.90 -0.60 -1.10 -1.60z"/>
  <path d="M9.35 26.70 c-0.75 -0.75 -1.90 -2.30 -2.55 -3.50 l-1.25 -2.20 1.50 0 c1.10 0 1.45 0.25 1.45 1 0 0.55 0.25 1 0.50 1 0.30 0 0.50 0.45 0.50 1 0 0.55 0.35 1 0.75 1 0.50 0 0.75 0.50 0.75 1.50 0 0.85 -0.10 1.50 -0.20 1.50 -0.10 0 -0.75 -0.60 -1.45 -1.30z"/>
  <path d="M23.50 23.50 l0 -2.50 1.75 0 1.75 0 0 2.50 0 2.50 -1.75 0 -1.75 0 0 -2.50z"/>
  <path d="M19 22.30 c0 -0.35 -0.45 -0.80 -1 -0.95 -0.60 -0.15 -1 -0.70 -1 -1.30 0 -0.90 -0.30 -1.05 -2.05 -1.05 l-2 0 0.15 -2.35 0.15 -2.40 3.65 -0.25 c2 -0.15 3.85 -0.05 4.10 0.20 0.25 0.25 0.65 0.30 0.85 0.10 0.20 -0.20 0.05 -0.55 -0.35 -0.80 -0.55 -0.35 -0.30 -0.50 0.90 -0.50 1.25 0 1.60 0.20 1.60 1 0 0.55 0.25 1 0.50 1 0.30 0 0.50 1.15 0.50 2.50 0 2.15 -0.15 2.50 -1 2.50 -0.80 0 -1 0.35 -1 1.50 0 1.40 -0.10 1.50 -2 1.50 -1.35 0 -2 -0.20 -2 -0.70z"/>
  <path d="M7 18.75 c0 -1.65 0.10 -1.75 1.75 -1.75 1.65 0 1.75 0.10 1.75 1.75 0 1.65 -0.10 1.75 -1.75 1.75 -1.65 0 -1.75 -0.10 -1.75 -1.75z"/>
  <path d="M25.50 18.25 c0 -0.95 0.25 -1.75 0.50 -1.75 0.30 0 0.50 -0.45 0.50 -1 0 -0.55 0.20 -1 0.40 -1 0.55 0 1.60 -3.05 1.60 -4.65 0 -1.20 0.20 -1.35 1.70 -1.35 1.60 0 1.70 0.10 1.95 2.10 0.15 1.15 0.10 3.20 -0.15 4.50 -0.25 1.30 -0.35 2.75 -0.20 3.15 0.25 0.55 -0.05 0.75 -1.20 0.75 -0.85 0 -1.70 0.25 -1.85 0.50 -0.15 0.30 -0.95 0.50 -1.80 0.50 -1.35 0 -1.45 -0.15 -1.45 -1.75z m5.80 -3.80 c0.15 -0.30 0 -0.75 -0.35 -1 -0.65 -0.35 -1.40 0.25 -1.45 1.20 0 0.55 1.40 0.40 1.80 -0.20z"/>
  <path d="M18.50 10.75 c0 -1.65 0.10 -1.75 1.75 -1.75 1.65 0 1.75 0.10 1.75 1.75 0 1.65 -0.10 1.75 -1.75 1.75 -1.65 0 -1.75 -0.10 -1.75 -1.75z"/>
  <path d="M3.85 11.15 c1.35 -3.50 2.85 -5.75 4.15 -6.30 0.80 -0.35 2.45 -1.60 3.70 -2.75 2.30 -2.15 3.80 -2.70 3.80 -1.30 0 1.15 -1.25 2.20 -2.70 2.20 -0.80 0 -1.30 0.30 -1.30 0.75 0 0.40 0.45 0.75 0.95 0.75 1.20 0 1.55 0.95 1.55 4.05 l0 2.45 -1.70 0 c-1.65 0 -1.70 -0.05 -2 -2.50 -0.25 -1.95 -0.55 -2.50 -1.25 -2.50 -0.65 0 -1 0.50 -1.20 1.50 -0.20 0.90 -0.65 1.50 -1.10 1.50 -0.50 0 -0.75 0.50 -0.75 1.50 0 1.25 -0.20 1.50 -1.25 1.50 -0.95 0 -1.15 -0.20 -0.90 -0.85z"/>
  <path d="M24 10.25 c0 -1.65 0.10 -1.75 1.75 -1.75 1.65 0 1.75 0.10 1.75 1.75 0 1.65 -0.10 1.75 -1.75 1.75 -1.65 0 -1.75 -0.10 -1.75 -1.75z"/>
  <path d="M28 4.65 l0 -1.85 1.50 1.45 c0.85 0.80 1.50 1.60 1.50 1.85 0 0.20 -0.65 0.40 -1.50 0.40 -1.40 0 -1.50 -0.15 -1.50 -1.85z"/>
  <path d="M23.15 2.65 c-0.60 -0.20 -0.95 -2.65 -0.40 -2.65 0.75 0 4.25 2.10 4.25 2.50 0 0.50 -2.75 0.60 -3.85 0.15z"/>
 </g>
 <g fill="#431526">
  <path d="M29.60 18.80 c0.05 -1.35 0.25 -1.60 1.05 -1.40 0.75 0.20 1.85 1.90 1.85 2.90 0 0.10 -0.70 0.20 -1.50 0.20 -1.40 0 -1.50 -0.10 -1.40 -1.70z"/>
  <path d="M14.80 17.70 c0.95 -0.40 -0.35 -3.20 -1.40 -3.20 -1.15 0 -1.30 -3.40 -0.15 -3.80 0.40 -0.20 0.75 -0.75 0.75 -1.25 0 -0.85 0.40 -0.95 3 -0.95 3.40 0 5.40 0.80 7.90 3.15 1.20 1.20 1.60 1.95 1.60 3.35 0 1 -0.25 2.05 -0.60 2.40 -0.90 0.90 -2.30 0.75 -2.55 -0.25 -0.20 -0.85 -0.25 -0.85 -0.30 0 -0.10 1.35 -1.35 1 -2.05 -0.65 -0.65 -1.50 -2.40 -2.50 -2.95 -1.60 -0.15 0.30 -1 0.60 -1.80 0.75 l-1.50 0.20 1.65 0.10 c1.25 0.05 1.60 0.25 1.60 1.05 0 0.85 -0.30 1 -1.85 0.95 -1.05 0 -1.65 -0.15 -1.35 -0.25z m7.60 -2.95 c-0.35 -0.80 -1.20 -1.45 -2.35 -1.75 -2.25 -0.60 -2.70 -0.65 -2.30 0 0.15 0.30 0.80 0.50 1.45 0.50 0.60 0 1.65 0.55 2.30 1.25 1.45 1.55 1.60 1.55 0.90 0z"/>
 </g>
 <g fill="#2c3e41">
  <path d="M5.50 36.80 c0 -0.95 2.70 -1.50 3.95 -0.80 1.75 0.90 1.20 1.50 -1.45 1.50 -1.85 0 -2.50 -0.20 -2.50 -0.70z"/>
  <path d="M15.15 20.15 c-1.50 -0.75 -1.65 -1 -1.65 -3.25 l0 -2.40 2 0 c2.25 0 2.75 0.85 0.65 1.10 -1.30 0.15 -2.40 1.90 -1.20 1.90 0.30 0 0.40 -0.35 0.25 -0.70 -0.35 -0.90 1.40 -0.80 3.45 0.20 1.50 0.75 1.95 2.65 0.50 2.20 -0.85 -0.25 -0.85 -0.25 0 0.45 0.45 0.40 0.85 0.85 0.85 1.05 0 0.60 -3.25 0.25 -4.85 -0.55z"/>
  <path d="M4 18.80 c0 -1.20 0.25 -1.80 0.90 -1.95 0.65 -0.20 0.55 -0.25 -0.25 -0.30 -0.95 -0.05 -1.15 -0.35 -1.15 -1.80 0 -1.40 0.20 -1.75 1 -1.75 0.55 0 1 0.35 1 0.75 0 0.70 0.15 0.65 1.25 -0.10 0.75 -0.55 1.20 -1.40 1.25 -2.25 0 -1.15 -0.20 -1.40 -1.25 -1.40 -1.50 0 -1.65 -1.25 -0.50 -3.45 1.25 -2.50 4.45 -2.90 5.30 -0.65 0.65 1.60 0.20 7.75 -0.55 8 -0.25 0.10 -0.50 0.70 -0.50 1.30 0 1.20 -1.40 2.80 -2.40 2.80 -0.35 0 -0.60 0.55 -0.60 1.25 0 1.10 -0.20 1.25 -1.75 1.25 -1.65 0 -1.75 -0.10 -1.75 -1.70z"/>
  <path d="M30 18.70 c0 -1.60 1.45 -1.50 2.05 0.20 0.35 0.95 0.25 1.10 -0.80 1.10 -1 0 -1.25 -0.25 -1.25 -1.30z"/>
  <path d="M20.40 8.35 c-0.10 -0.80 -0.65 -1.15 -2.10 -1.45 -3.25 -0.70 -5.20 -1.85 -5.75 -3.50 -0.45 -1.30 -0.40 -1.60 0.60 -2.45 1.45 -1.20 1.80 -1.20 3.30 0.25 0.75 0.65 2.75 1.65 4.55 2.20 1.80 0.55 4.10 1.35 5.10 1.80 1.05 0.45 2.45 0.80 3.15 0.80 1.10 0 1.25 0.20 1.25 1.75 l0 1.70 -4.95 0 c-4.70 -0.05 -5 -0.10 -5.15 -1.10z"/>
  <path d="M25.40 3.80 c-0.50 -0.35 -0.90 -1.15 -0.90 -1.70 0 -0.95 0.15 -1 1.45 -0.55 0.80 0.30 1.95 1.05 2.60 1.75 l1.10 1.20 -1.70 0 c-0.95 0 -2.10 -0.35 -2.55 -0.70z"/>
 </g>
 <g fill="#433931">
  <path d="M25.50 38.75 c0 -1.30 0.45 -1.45 2.40 -0.95 0.65 0.20 1.10 0.70 1.10 1.25 0 0.75 -0.35 0.95 -1.75 0.95 -1.55 0 -1.75 -0.15 -1.75 -1.25z"/>
  <path d="M17.40 38.55 c-0.50 -0.50 -0.90 -1.25 -0.90 -1.70 0 -0.50 -0.40 -0.85 -1 -0.85 -0.80 0 -1 0.35 -1 1.50 0 1.40 -0.15 1.50 -1.75 1.50 -1.95 0 -2.20 -0.45 -0.75 -1.40 0.55 -0.35 1 -0.95 1 -1.35 0 -0.40 0.25 -0.75 0.50 -0.75 0.30 0 0.50 -0.80 0.50 -1.80 0 -1.75 0.05 -1.75 1.90 -1.60 1.50 0.10 1.90 0.35 2 1.30 0.25 1.75 1.10 1.30 1.10 -0.65 0 -0.95 0.25 -1.75 0.50 -1.75 0.30 0 0.50 -0.35 0.50 -0.75 0 -0.50 0.55 -0.75 1.75 -0.75 1.05 0 1.75 0.25 1.75 0.65 0 0.45 0.10 0.45 0.45 -0.05 0.25 -0.45 1.20 -0.60 2.70 -0.50 l2.30 0.15 -1.65 3.75 -1.70 3.75 -1.80 -0.15 c-1.65 -0.15 -1.80 -0.05 -1.80 1.10 0 1.15 -0.20 1.30 -1.85 1.25 -1.15 0 -2.25 -0.40 -2.75 -0.90z m8.60 -7.10 c0 0.35 0.25 0.45 0.55 0.25 0.40 -0.20 0.40 -0.45 0 -0.85 -0.40 -0.40 -0.85 -0.25 -1.70 0.65 l-1.10 1.20 1.15 -0.90 c0.70 -0.60 1.10 -0.75 1.10 -0.35z"/>
  <path d="M11.35 28.70 l-1.45 -1.70 1.80 0 c1.70 0 1.80 0.05 1.80 1.75 0 2.15 -0.35 2.15 -2.15 -0.05z"/>
  <path d="M24 23.25 c0 -1.65 0.10 -1.75 1.75 -1.75 1.40 0 1.75 -0.20 1.75 -1 0 -0.65 -0.35 -1 -1 -1 -0.80 0 -1 -0.35 -1 -1.75 0 -1.10 0.30 -1.90 0.75 -2.05 0.40 -0.20 0.75 -0.60 0.75 -1 0 -0.40 0.45 -0.70 1 -0.70 1.75 0 1.15 -1.50 -0.60 -1.55 -0.90 -0.05 -2.20 -0.20 -2.90 -0.40 -0.85 -0.25 -1.40 -0.15 -1.75 0.35 -0.70 0.85 -3.25 0.30 -3.25 -0.75 0 -0.50 0.30 -0.65 0.90 -0.45 0.80 0.30 0.80 0.25 0 -0.40 -1.30 -1 -1.10 -1.30 0.85 -1.30 1.20 0 1.75 -0.25 1.75 -0.75 0 -0.90 2.25 -1 4.35 -0.20 0.95 0.35 1.45 0.35 1.55 0 0.10 -0.30 0.80 -0.55 1.60 -0.55 1.30 0 1.40 0.15 1.70 2.55 0.40 2.95 0.25 3.25 -1.10 2.50 -0.80 -0.40 -1.05 -0.30 -1.50 0.70 -0.50 1.10 -0.45 1.25 0.30 1.25 0.50 0 1.15 -0.25 1.50 -0.60 0.45 -0.45 0.60 -0.40 0.60 0.20 0 1.35 -0.55 2.40 -1.25 2.40 -0.40 0 -0.80 0.20 -0.95 0.45 -0.20 0.25 0.20 0.35 0.80 0.15 0.85 -0.20 1 -0.10 0.75 0.60 -0.20 0.50 -0.15 0.75 0.15 0.55 0.25 -0.15 0.60 0.30 0.80 1.05 0.40 1.60 -0.35 2.20 -2.90 2.20 -1.75 0 -1.90 0.10 -1.90 1.50 0 1.40 -0.15 1.50 -1.75 1.50 -1.65 0 -1.75 -0.10 -1.75 -1.75z"/>
  <path d="M5.65 21.55 c-0.90 -0.75 -1.65 -1.50 -1.65 -1.60 0 -0.15 0.80 -0.55 1.75 -0.95 1.25 -0.50 1.75 -1 1.75 -1.80 0 -0.60 0.35 -1.35 0.75 -1.70 0.40 -0.35 0.75 -1.15 0.75 -1.80 0 -0.65 0.20 -1.20 0.45 -1.20 0.60 0 1.25 -4.55 0.70 -4.95 -0.25 -0.15 -0.45 -0.95 -0.45 -1.80 0.05 -1.40 0.20 -1.50 2.25 -1.65 1.20 -0.10 3.20 0.10 4.40 0.50 2 0.55 2.15 0.75 2.15 2.30 l0 1.75 -2.25 -0.25 -2.25 -0.30 0 1.70 c0 0.90 -0.35 1.95 -0.75 2.40 -0.40 0.40 -0.75 1.40 -0.75 2.25 0 2.25 -1.55 5.55 -2.60 5.55 -0.55 0 -0.90 0.40 -0.90 1 0 0.55 -0.30 1 -0.70 1 -0.40 0 -0.80 0.20 -0.90 0.45 -0.05 0.25 -0.90 -0.15 -1.75 -0.90z"/>
  <path d="M18.25 20.95 c-0.20 -0.55 -0.25 -1.10 -0.15 -1.20 0.45 -0.45 2.40 0.40 2.40 1.05 0 0.40 0.25 0.70 0.50 0.70 1.40 0 0.05 -1.85 -1.65 -2.25 -1.25 -0.35 -1.95 -1.75 -0.85 -1.75 0.30 0 0.50 -0.35 0.50 -0.75 0 -0.40 0.45 -0.75 1 -0.75 0.60 0 1 -0.35 1 -0.85 0 -1.40 2 0.80 2.05 2.30 l0.05 1.30 0.35 -1.25 c0.20 -0.80 0.10 -1.50 -0.30 -1.90 -0.80 -0.85 -0.80 -1.10 0 -1.10 0.75 0 1.85 2.75 1.85 4.65 0 1.15 -0.20 1.35 -1.50 1.35 -1 0 -1.50 0.25 -1.50 0.75 0 0.50 -0.50 0.75 -1.70 0.75 -1.30 0 -1.80 -0.25 -2.05 -1.05z"/>
  <path d="M4.85 9.15 c0.80 -2.25 2.75 -4.65 3.75 -4.65 0.85 0 0.35 1.95 -0.60 2.25 -0.70 0.20 -1 0.75 -1 1.80 0 1.20 -0.20 1.45 -1.25 1.45 -0.95 0 -1.15 -0.20 -0.90 -0.85z"/>
 </g>
 <g fill="#611a36">
  <path d="M28.50 20.75 c0 -0.45 0.30 -0.60 0.90 -0.45 0.65 0.25 0.70 0.20 0.15 -0.20 -0.40 -0.30 -1 -0.40 -1.40 -0.25 -0.50 0.20 -0.65 -0.15 -0.55 -1.55 0.10 -1.70 0.20 -1.80 1.90 -1.75 0.95 0.05 1.35 0.15 0.90 0.30 -0.50 0.10 -0.90 0.40 -0.90 0.65 0 0.25 0.30 0.35 0.70 0.20 0.90 -0.35 2.50 2 2.10 3.05 -0.35 1 -3.80 1.05 -3.80 0z"/>
  <path d="M20.75 15.70 l-0.95 -1.80 -4.20 0.35 -4.15 0.35 0.10 -2.30 c0.10 -1.30 0.40 -2.35 0.80 -2.50 0.35 -0.15 0.65 -0.60 0.65 -1.05 0 -0.90 1.65 -0.95 5 -0.25 3.15 0.75 5 1.50 5 2.20 0 0.30 0.50 0.80 1.15 1.05 0.90 0.40 1.15 0.95 1.25 3.15 0.15 2.35 0.05 2.60 -0.85 2.60 -1.30 0 -1.30 -0.40 -0.20 -1.65 0.85 -0.90 0.80 -1 -1.45 -3.15 -1.30 -1.20 -2.65 -2.20 -3 -2.20 -0.35 0 -0.20 0.30 0.35 0.60 1.80 0.95 3.75 3.05 3.75 4 0 1.35 -0.60 1.05 -1.75 -0.75 -0.60 -0.95 -1.50 -1.65 -2.25 -1.75 -0.70 -0.10 -1.65 -0.55 -2.15 -1 -0.85 -0.75 -0.95 -0.75 -1.40 0 -0.25 0.50 -0.80 0.75 -1.15 0.60 -0.40 -0.15 -0.85 -0.05 -1 0.20 -0.15 0.25 1.10 0.60 2.80 0.80 3.20 0.30 5.05 1.45 5.55 3.35 0.45 1.65 -0.85 1.05 -1.90 -0.85z"/>
 </g>
 <g fill="#4f463d">
  <path d="M1.15 39.65 c-0.70 -0.15 -1.15 -0.60 -1.15 -1.15 0 -0.95 1.30 -1.50 3.80 -1.50 1.50 0 2.15 0.80 2.20 2.65 0 0.35 -2.90 0.40 -4.85 0z"/>
  <path d="M10 39 c0 -0.65 -0.35 -1 -1 -1 -0.65 0 -1 -0.35 -1 -1 0 -1.30 1.80 -1.35 2.60 0 0.45 0.65 0.95 0.90 1.75 0.70 1 -0.25 1.15 -0.10 1.15 1 0 1.15 -0.20 1.30 -1.75 1.30 -1.40 0 -1.75 -0.20 -1.75 -1z"/>
  <path d="M16 38.25 c0 -0.95 -0.20 -1.75 -0.50 -1.75 -0.25 0 -0.50 -0.40 -0.55 -0.85 0 -0.55 -0.15 -0.65 -0.30 -0.25 -0.45 1.15 -1.55 0.60 -1.90 -0.90 -0.40 -1.90 0.60 -3 2.70 -3 1.05 0 1.55 0.25 1.55 0.75 0 0.40 0.35 0.75 0.75 0.75 0.45 0 0.75 0.45 0.75 1.20 0 0.90 0.30 1.25 1.15 1.40 0.85 0.10 1.15 0.50 1.25 1.95 0.15 1.95 -0.50 2.45 -3.50 2.45 -1.25 0 -1.40 -0.15 -1.40 -1.75z m4.25 -0.75 c-0.15 -0.25 -0.80 -0.75 -1.40 -1.05 -1.10 -0.60 -1.10 -0.60 -0.15 0.50 0.95 1.05 2.15 1.50 1.55 0.55z"/>
  <path d="M25 38.75 c0 -1.30 0.45 -1.45 2.40 -0.95 1.25 0.35 1.55 2.20 0.30 2.20 -0.45 0 -0.60 -0.25 -0.40 -0.60 0.30 -0.50 0.20 -0.50 -0.35 0 -1.05 1 -1.95 0.70 -1.95 -0.65z"/>
  <path d="M22 35.50 c0 -1.25 -0.20 -1.50 -1.25 -1.50 -1.10 0 -1.25 -0.20 -1.25 -1.75 0 -1.65 0.10 -1.75 1.70 -1.75 1.45 0 1.70 0.20 1.95 1.40 0.15 0.75 0.05 1.60 -0.25 1.95 -0.70 0.85 -0.10 1.60 1.05 1.30 1 -0.25 3.25 -3.80 2.70 -4.35 -0.15 -0.15 -0.10 -0.30 0.20 -0.30 1.15 0 1.10 1.70 -0.20 4.05 -1.15 2.20 -1.50 2.45 -3 2.45 -1.50 0 -1.65 -0.15 -1.65 -1.50z"/>
  <path d="M23.50 34.15 c0.05 -0.65 2 -2.80 2.30 -2.50 0.35 0.35 -1.25 2.85 -1.85 2.85 -0.25 0 -0.45 -0.15 -0.45 -0.35z"/>
  <path d="M24 31.25 c0 -0.40 0.35 -0.75 0.80 -0.75 0.70 0 0.70 0.15 0.20 0.75 -0.35 0.40 -0.70 0.75 -0.80 0.75 -0.10 0 -0.20 -0.35 -0.20 -0.75z"/>
  <path d="M11 28.25 l-1.70 -1.75 1.85 0 c1.80 0 1.85 0.05 1.85 1.75 0 0.95 -0.05 1.75 -0.10 1.75 -0.10 0 -0.95 -0.80 -1.90 -1.75z"/>
  <path d="M27.50 27.75 c0 -1.40 0.20 -1.75 1 -1.75 0.80 0 1 -0.35 1 -1.75 0 -1.55 0.15 -1.75 1.30 -1.75 0.70 0 1.20 0.15 1.10 0.40 -1.55 3.55 -3.30 6.55 -3.75 6.55 -0.40 0.05 -0.65 -0.60 -0.65 -1.70z"/>
  <path d="M20 23.75 c0 -0.90 -0.35 -2.05 -0.80 -2.45 -0.40 -0.45 -0.70 -1.05 -0.60 -1.40 0.15 -0.35 0.65 -0.15 1.35 0.55 1.25 1.25 1.75 1.20 1.25 -0.15 -0.15 -0.45 -0.85 -0.95 -1.50 -1.10 -1.30 -0.35 -1.70 -1.70 -0.50 -1.70 0.55 0 0.65 -0.50 0.45 -2 -0.30 -2.25 0.20 -2.50 1.70 -0.85 1.20 1.25 2.40 5.10 1.85 5.90 -0.45 0.75 0.75 1.45 2.45 1.45 1 0 1.35 -0.25 1.35 -1 0 -0.65 -0.35 -1 -1 -1 -0.80 0 -1 -0.35 -1 -1.75 0 -0.95 0.25 -1.75 0.50 -1.75 0.30 0 0.50 -0.35 0.50 -0.75 0 -0.40 0.25 -0.75 0.50 -0.75 0.30 0 0.50 -0.35 0.50 -0.75 0 -0.40 0.25 -0.75 0.50 -0.75 0.30 0 0.50 -0.20 0.50 -0.45 0 -0.25 -1.10 -0.55 -2.50 -0.75 -2.05 -0.25 -2.50 -0.50 -2.50 -1.30 0 -0.65 -0.35 -1 -1 -1 -0.55 0 -1 0.20 -1 0.45 0 0.25 -0.75 0.20 -1.75 -0.10 -0.95 -0.30 -1.75 -0.80 -1.75 -1.20 0 -0.40 -0.60 -0.65 -1.45 -0.65 -0.80 0 -1.80 -0.35 -2.25 -0.75 -0.40 -0.40 -0.90 -0.75 -1.10 -0.75 -0.20 0 -0.65 -0.40 -1.05 -0.85 -0.45 -0.55 -0.60 -0.60 -0.35 -0.15 0.25 0.55 0.20 0.60 -0.25 0.20 -0.35 -0.30 -0.55 -1.20 -0.45 -2 0.10 -1.20 0.40 -1.45 1.75 -1.60 1.10 -0.10 1.75 0.15 2.25 0.85 0.35 0.50 1.50 1.10 2.55 1.30 1.70 0.35 1.85 0.50 1.85 2.05 0 0.95 0.25 1.70 0.50 1.70 0.30 0 0.50 -0.55 0.50 -1.25 0 -1.05 0.25 -1.25 1.50 -1.25 0.85 0 1.95 0.45 2.50 1 0.55 0.55 1.45 1 1.95 1 0.55 0 1.05 0.25 1.15 0.50 0.10 0.35 0.65 0.30 1.50 -0.10 1.50 -0.70 1.85 -1.40 0.65 -1.40 -0.55 0 -0.75 -0.55 -0.75 -1.85 l0 -1.90 1.70 1.90 c1.40 1.55 1.70 2.40 1.95 5 0.30 3.35 0.15 3.85 -0.75 2.95 -0.85 -0.85 -1.15 -0.75 -1.85 0.70 -0.60 1.30 -0.55 1.35 0.95 1.05 0.80 -0.20 1.50 -0.20 1.50 -0.05 0 0.75 -1.10 2.20 -1.70 2.20 -0.40 0 -0.85 0.35 -1 0.80 -0.30 0.75 -0.20 0.75 0.50 0.15 0.70 -0.60 0.95 -0.50 1.80 0.55 0.50 0.65 0.90 1.65 0.80 2.20 -0.10 0.85 -0.55 1.10 -2.50 1.20 -2.35 0.15 -2.40 0.20 -2.40 1.85 l0 1.70 -3.75 0 -3.75 0 0 -1.70z m10.70 -4.05 c1.15 -1.10 1 -1.50 -0.15 -0.50 -0.55 0.50 -1.25 0.75 -1.60 0.50 -0.40 -0.20 -0.50 -0.15 -0.25 0.20 0.50 0.80 1.10 0.75 2 -0.20z"/>
  <path d="M6.50 22.25 c-0.35 -0.70 -0.95 -1.25 -1.30 -1.25 -0.60 0 -1.70 -1.45 -1.70 -2.25 0 -0.20 0.50 -0.30 1.15 -0.25 1.95 0.20 2.35 0 2.35 -0.85 0 -0.45 0.50 -1.40 1.15 -2.05 0.60 -0.70 0.75 -1.10 0.35 -0.85 -0.60 0.30 -0.65 0.25 -0.10 -0.30 0.30 -0.35 0.60 -1.05 0.60 -1.60 0 -0.55 0.20 -0.75 0.55 -0.55 0.40 0.25 0.50 -0.05 0.35 -1 -0.15 -0.70 -0.05 -1.30 0.15 -1.30 0.25 0 0.45 -0.35 0.45 -0.75 0 -1.05 1.40 -0.95 1.65 0.15 0.20 0.80 0.25 0.80 0.30 0 0 -0.50 0.30 -0.90 0.60 -0.90 0.35 0 0.40 1.05 0.20 3.25 l-0.35 3.25 2.15 0.05 c1.75 0.05 1.95 0.10 0.95 0.40 -1.40 0.40 -1.75 2.05 -0.50 2.45 0.60 0.20 0.65 0.15 0.10 -0.50 -0.50 -0.65 -0.45 -0.80 0.40 -1.05 0.80 -0.20 1 0 1 0.85 0 0.95 -0.30 1.15 -2.25 1.25 -1.85 0.10 -2.25 -0.05 -2.30 -0.80 0 -0.70 -0.10 -0.65 -0.45 0.25 -0.25 0.60 -0.70 1.10 -1 1.10 -0.25 0 -0.50 0.45 -0.50 1 0 0.65 -0.35 1 -0.95 1 -0.60 0 -1.05 0.45 -1.25 1.25 -0.20 0.70 -0.50 1.25 -0.75 1.25 -0.20 0 -0.70 -0.55 -1.05 -1.25z"/>
  <path d="M23.50 17.80 c0 -0.70 0.25 -1.40 0.50 -1.55 0.30 -0.20 0.50 0.35 0.50 1.20 0 0.85 -0.20 1.55 -0.50 1.55 -0.25 0 -0.50 -0.55 -0.50 -1.20z"/>
  <path d="M3.60 13.95 c-0.10 -2.10 0.55 -3.95 1.40 -3.95 0.30 0 0.50 1.35 0.50 3 0 2.60 -0.15 3 -0.90 3 -0.75 0 -0.95 -0.40 -1 -2.05z"/>
  <path d="M22.55 14.15 c-0.65 -1.40 -0.65 -1.40 0.40 -0.45 1.10 1 1.35 1.80 0.65 1.80 -0.25 0 -0.70 -0.60 -1.05 -1.35z"/>
  <path d="M18.50 11.50 c0 -0.65 1 -0.65 2 0 0.60 0.40 0.45 0.50 -0.60 0.50 -0.80 0 -1.40 -0.20 -1.40 -0.50z"/>
  <path d="M6 7.10 c0 -0.50 0.60 -1.25 1.65 -2.05 0.80 -0.65 0.85 -0.55 0.75 0.80 -0.05 1.10 -0.35 1.45 -1.25 1.55 -0.65 0.05 -1.15 -0.10 -1.15 -0.30z"/>
  <path d="M22 1.25 c0 -1.45 0.55 -1.55 2.25 -0.45 1.75 1.15 1.55 1.70 -0.50 1.70 -1.55 0 -1.75 -0.15 -1.75 -1.25z"/>
 </g>
 <g fill="#801741">
  <path d="M27.50 19.60 c0 -2.30 0.70 -3.10 2.75 -3.05 1.40 0.05 1.40 0.05 0.30 0.40 -0.70 0.20 -1.35 0.65 -1.45 1.05 -0.25 0.65 -0.15 0.65 0.55 0.10 0.45 -0.40 1.05 -0.55 1.35 -0.35 0.75 0.45 -0.95 2.35 -1.85 2.05 -0.35 -0.15 -0.65 -0.05 -0.65 0.20 0 0.70 1.70 0.60 2.40 -0.10 0.45 -0.45 0.60 -0.35 0.60 0.50 0 0.95 -0.25 1.10 -2 1.10 -2 0 -2 0 -2 -1.90z"/>
  <path d="M15.70 17.45 c-0.40 -0.65 0.65 -1.45 1.95 -1.45 0.50 0 0.85 0.40 0.85 1 0 0.75 -0.35 1 -1.20 1 -0.70 0 -1.40 -0.25 -1.60 -0.55z"/>
  <path d="M21.50 16.50 c0 -0.30 -0.60 -1.10 -1.30 -1.75 -0.90 -0.85 -1.10 -1.25 -0.60 -1.25 0.40 0 1.20 0.65 1.80 1.50 1.20 1.65 1.35 2 0.60 2 -0.25 0 -0.50 -0.25 -0.50 -0.50z"/>
  <path d="M24.25 16 c0.90 -1 0.90 -1.05 -0.80 -2.80 -2.25 -2.35 -3.20 -2.85 -6.30 -3.20 -2.70 -0.30 -3.35 0.05 -1.80 0.95 1.20 0.65 0.50 1.25 -0.75 0.60 -1.05 -0.55 -1.60 -0.30 -1.60 0.80 0 0.45 0.80 0.70 2.65 0.75 2.15 0.05 2.25 0.10 0.75 0.25 -1.05 0.10 -1.90 0.40 -1.90 0.70 0 0.65 -2.70 0.55 -3.40 -0.15 -0.85 -0.85 -0.75 -3.15 0.15 -3.90 0.65 -0.55 0.70 -0.50 0.45 0.30 -0.25 0.75 -0.10 0.70 0.55 -0.20 0.80 -1.10 1.05 -1.15 4.90 -0.80 2.25 0.15 4.55 0.55 5.10 0.85 1.85 0.90 3.20 3 3.25 5 0 1.55 -0.15 1.85 -1.10 1.85 -1.05 0 -1.05 -0.05 -0.15 -1z"/>
  <path d="M15 15 c0 -0.25 0.80 -0.50 1.75 -0.50 0.95 0 1.75 0.25 1.75 0.50 0 0.30 -0.80 0.50 -1.75 0.50 -0.95 0 -1.75 -0.20 -1.75 -0.50z"/>
  <path d="M23 15 c0 -0.85 -2.55 -3 -3.55 -3 -0.55 0 -0.95 -0.20 -0.95 -0.50 0 -1.25 2.70 -0.05 4.35 1.95 1.20 1.45 1.40 2.05 0.65 2.05 -0.25 0 -0.50 -0.25 -0.50 -0.50z"/>
 </g>
 <g fill="#5c5647">
  <path d="M0.15 39.20 c-0.15 -0.40 -0.05 -1 0.20 -1.25 0.80 -0.80 4.35 -1.50 4.55 -0.95 0.10 0.30 0.50 0.50 0.90 0.50 0.40 0 0.70 0.50 0.70 1.20 0 1.10 -0.20 1.15 -3 1.25 -2.35 0.05 -3.10 -0.10 -3.35 -0.75z"/>
  <path d="M9.20 38.80 c-0.15 -0.70 -0.20 -1.65 -0.10 -2.15 0.15 -0.80 0.25 -0.80 1.25 0.20 1.80 1.80 2.85 1 2.50 -1.95 -0.35 -2.75 -0.05 -3.90 0.95 -3.90 0.40 0 0.70 -0.35 0.70 -0.75 0 -0.40 -0.45 -0.75 -1 -0.75 -1.35 0 -5.30 -3.80 -6.45 -6.25 -0.85 -1.80 -0.90 -2 -0.10 -2.60 1.05 -0.80 0.35 -0.85 -0.95 -0.05 -0.80 0.55 -1.10 0.45 -1.70 -0.35 -0.70 -0.95 -0.60 -1 1.25 -1.40 1.10 -0.25 1.95 -0.70 1.95 -1.10 0 -0.35 0.20 -0.75 0.50 -0.85 0.25 -0.05 0.55 -0.80 0.60 -1.65 0.05 -0.80 0.30 -1.65 0.55 -1.80 0.25 -0.20 0.60 -1.10 0.80 -2 0.20 -1 0.70 -1.75 1.20 -1.85 0.60 -0.15 0.75 0.05 0.55 0.75 -0.25 0.85 -0.25 0.85 0.30 0.05 0.30 -0.50 0.75 -0.90 1 -0.90 0.75 0 0.60 1.10 -0.30 2.10 -0.70 0.75 -0.75 0.90 -0.10 1.15 0.60 0.25 0.65 0.75 0.20 2.75 -0.25 1.40 -0.75 2.50 -1.10 2.50 -0.30 0 -0.70 0.75 -0.85 1.65 -0.20 1.40 0.05 1.90 2.20 4.10 1.35 1.40 2.45 2.90 2.45 3.40 0 0.55 0.40 0.85 1.25 0.85 1.10 0 1.25 0.20 1.25 1.75 0 1.20 -0.25 1.75 -0.75 1.75 -0.40 0 -0.75 0.45 -0.75 1 0 0.65 0.35 1 1 1 0.65 0 1 -0.35 1 -1 0 -0.55 0.25 -1 0.50 -1 0.30 0 0.50 -0.35 0.50 -0.75 0 -0.45 0.50 -0.75 1.30 -0.75 1.90 0 5.85 -1.10 6.60 -1.80 0.30 -0.35 0.60 -1.20 0.60 -1.90 0 -1.05 0.25 -1.30 1.25 -1.30 1.45 0 1.50 0.15 0.55 1.90 -0.40 0.75 -0.95 2.25 -1.30 3.35 -0.65 2.30 -1.85 4.10 -2.35 3.60 -0.15 -0.20 -0.05 -0.90 0.25 -1.60 0.95 -2 -0.35 -2.10 -2.20 -0.10 -0.95 1 -1.70 2 -1.70 2.30 0 0.30 -0.75 0.60 -1.60 0.60 -1.55 0.10 -1.55 0.10 -0.25 0.30 1.25 0.20 1.35 0.40 1.35 2.45 l0 2.20 -2.75 0 c-1.80 0 -2.85 -0.20 -2.95 -0.60 -0.10 -0.35 -0.40 -1.10 -0.60 -1.65 -0.35 -0.95 -0.40 -0.95 -0.55 0.15 -0.15 0.60 -0.55 1.10 -0.95 1.10 -0.40 0 -0.70 0.25 -0.70 0.50 0 0.70 -1.35 0.60 -1.65 -0.10 -0.20 -0.50 -0.30 -0.50 -0.30 0 -0.10 1.15 -2 0.65 -2.35 -0.60z m11.05 -1.30 c-0.15 -0.25 -0.70 -0.70 -1.25 -1 -0.75 -0.40 -0.85 -0.35 -0.65 0.50 0.15 0.55 0.70 1 1.25 1 0.50 0 0.80 -0.20 0.65 -0.50z m-10.15 -20.50 c0.65 -1.25 1.25 -3.05 1.25 -4 l0.05 -1.75 -0.55 2 c-0.35 1.10 -1 2.70 -1.50 3.60 -0.45 0.90 -0.85 1.85 -0.85 2.20 0 0.80 0.15 0.65 1.60 -2.05z"/>
  <path d="M24 37.75 c0 -1.45 0.20 -1.75 1.05 -1.75 0.70 0 0.95 0.25 0.80 0.70 -0.20 0.50 0.20 0.85 1.20 1.05 2.25 0.50 1.75 1.50 -0.80 1.65 l-2.25 0.10 0 -1.75z"/>
  <path d="M24.60 32.50 c0.35 -0.55 0.80 -1 1.05 -1 0.20 0 0.15 0.45 -0.15 1 -0.30 0.55 -0.75 1 -1 1 -0.30 0 -0.25 -0.45 0.10 -1z"/>
  <path d="M20.50 23.20 c0 -1.80 -1.10 -2.70 -3.45 -2.70 -1.85 0 -2.05 -0.10 -2.05 -1.30 0 -1 0.20 -1.25 0.80 -1 0.70 0.25 0.75 0.20 0.20 -0.45 -0.50 -0.60 -0.50 -0.75 0.20 -0.75 0.45 0 0.80 -0.20 0.80 -0.45 0 -0.25 0.40 -0.60 0.90 -0.70 0.80 -0.20 0.80 -0.25 0 -0.30 -1.55 -0.10 -1 -1.40 0.70 -1.75 1.40 -0.30 1.80 -0.10 2.65 1.05 0.55 0.70 1.25 2 1.60 2.85 l0.55 1.55 0.05 -1.35 c0.05 -1.55 0.90 -2.35 1.15 -1.05 0.15 0.75 0.20 0.80 1 0 0.45 -0.45 1.05 -0.85 1.35 -0.85 0.30 0 0.55 -0.80 0.55 -1.75 0 -1.60 -0.10 -1.75 -1.50 -1.75 -0.80 0 -1.50 -0.20 -1.50 -0.50 0 -0.25 -0.45 -0.50 -1 -0.50 -0.60 0 -1.10 -0.45 -1.25 -1.15 -0.30 -1.05 -0.75 -1.20 -4.90 -1.70 -2.50 -0.25 -4.65 -0.75 -4.70 -1 -0.10 -0.30 -0.50 -0.95 -0.90 -1.45 -0.65 -0.80 -0.70 -0.85 -0.45 -0.05 0.30 0.90 -1 1.25 -1.50 0.45 -0.15 -0.25 -1 -0.35 -1.90 -0.20 l-1.65 0.25 0.95 -1.10 c0.55 -0.55 1.25 -1.05 1.60 -1.05 0.30 0 1.40 -0.80 2.35 -1.75 0.95 -0.95 2.05 -1.75 2.35 -1.75 0.45 0 0.55 0.55 0.35 1.75 l-0.30 1.75 2 0 c1.05 0 1.95 0.25 1.95 0.50 0 0.30 0.90 0.50 2 0.50 1.25 0 2.15 0.25 2.30 0.70 0.15 0.35 1.15 0.80 2.25 1 1.05 0.15 1.95 0.50 1.95 0.75 0 0.25 0.70 0.55 1.50 0.65 1.50 0.25 1.50 0.20 1.50 -2.20 l0 -2.45 1.50 1.60 c0.85 1 1.45 2.15 1.45 2.90 -0.10 2.60 -0.55 4.05 -1.25 4.05 -0.40 0 -0.85 0.40 -1.05 0.90 -0.20 0.45 -0.95 1.80 -1.75 3 -0.80 1.15 -1.25 2.10 -1.05 2.10 0.20 0 0.90 -0.75 1.50 -1.70 1.10 -1.70 4 -2.95 3.45 -1.45 -0.15 0.40 -0.30 0.90 -0.30 1.15 0 0.25 -0.50 0.50 -1.10 0.60 -0.75 0.10 -1.15 0.50 -1.15 1.15 0 1.45 -0.95 2.25 -2.85 2.30 -1.50 0.10 -1.55 0.10 -0.25 0.30 1.15 0.20 1.35 0.45 1.35 1.95 0 1.35 -0.20 1.70 -1 1.70 -0.60 0 -0.85 -0.25 -0.70 -0.70 0.15 -0.40 0.05 -0.85 -0.25 -1.05 -0.35 -0.15 -0.55 0.10 -0.55 0.70 0 0.90 -0.30 1.05 -2.25 1.05 -2.10 0 -2.25 -0.10 -2.25 -1.30z m1 -2.35 c0 -1.05 -1.10 -1.85 -2.45 -1.85 l-1.30 0.05 1.40 0.75 c0.75 0.40 1.35 0.95 1.35 1.20 0 0.30 0.25 0.50 0.50 0.50 0.30 0 0.50 -0.30 0.50 -0.65z m8.80 -10.60 c0.50 -0.40 0.70 -0.75 0.35 -0.75 -0.30 0 -0.75 0.25 -0.95 0.55 -0.35 0.55 -2.75 0.40 -4.30 -0.30 -0.55 -0.20 -0.90 -0.15 -0.90 0.15 0 1.10 4.45 1.35 5.80 0.35z"/>
  <path d="M30.50 22.05 c0 -1.10 0.25 -2.15 0.50 -2.30 0.30 -0.15 0.50 -0.55 0.50 -0.80 0 -0.30 -0.20 -0.40 -0.45 -0.20 -0.55 0.30 -1.30 -0.65 -0.85 -1.10 0.55 -0.55 1.80 0.95 2.10 2.60 0.30 1.65 -0.45 3.75 -1.30 3.75 -0.30 0 -0.50 -0.90 -0.50 -1.95z"/>
  <path d="M3.50 16.55 c0 -1.50 0.55 -2.55 1.30 -2.55 0.45 0 0.70 0.60 0.70 1.75 0 1.40 -0.20 1.75 -1 1.75 -0.65 0 -1 -0.35 -1 -0.95z"/>
  <path d="M21.50 1 c0 -0.65 0.35 -1 1 -1 0.55 0 1 0.25 1 0.50 0 0.30 0.35 0.50 0.75 0.50 0.40 0 0.75 0.25 0.75 0.50 0 0.30 -0.80 0.50 -1.75 0.50 -1.40 0 -1.75 -0.20 -1.75 -1z"/>
 </g>
 <g fill="#435a5e">
  <path d="M3.15 38.15 c-1.15 -0.45 -0.70 -1 1.30 -1.55 2.60 -0.80 3.05 -0.75 3.05 0.35 0 1.25 -2.55 1.95 -4.35 1.20z"/>
  <path d="M4.10 19.85 c-0.75 -0.90 -0.50 -7.95 0.30 -8.25 0.35 -0.10 0.60 -0.75 0.60 -1.45 0 -1.55 1.70 -4.45 3 -5.15 1.10 -0.60 3.50 -0.65 3.55 -0.10 0 0.20 0.10 1.15 0.25 2.10 0.45 3.25 -2.25 11 -3.85 11 -0.55 0 -0.95 0.45 -1.05 1.15 -0.20 1.30 -1.95 1.75 -2.80 0.70z m3.50 -7.10 c0.15 -0.70 0.05 -1.25 -0.15 -1.25 -0.25 0 -0.45 0.55 -0.45 1.25 0 0.70 0.10 1.25 0.20 1.25 0.10 0 0.30 -0.55 0.40 -1.25z m2 -5.95 c0.35 0.25 0.40 0.10 0.20 -0.25 -0.45 -0.70 -2.35 0.35 -2.70 1.50 -0.15 0.40 0.25 0.20 0.85 -0.45 0.60 -0.60 1.35 -0.95 1.65 -0.80z"/>
  <path d="M14 18.50 l0 -1.50 1.75 1.10 c2.20 1.45 2.20 1.90 0 1.90 -1.60 0 -1.75 -0.10 -1.75 -1.50z"/>
  <path d="M16.10 17.90 c-0.90 -0.90 -0.75 -1.40 0.40 -1.40 0.65 0 1 0.35 1 1 0 1.15 -0.50 1.30 -1.40 0.40z"/>
  <path d="M21.25 9.25 c-0.15 -0.40 -0.35 -1.10 -0.50 -1.50 -0.10 -0.45 -0.80 -0.75 -1.60 -0.75 -0.75 0 -2.05 -0.35 -2.85 -0.75 -0.75 -0.40 -1.65 -0.75 -1.90 -0.75 -1.85 0 -2.50 -3.25 -0.90 -4.65 1.35 -1.15 2.50 -1.10 2.50 0.15 0 0.65 0.35 1 1 1 0.55 0 1 0.25 1 0.50 0 0.30 0.55 0.50 1.15 0.50 1.05 0 3.65 0.75 7.60 2.25 0.70 0.25 0.80 0.20 0.35 -0.15 -0.40 -0.25 -0.60 -1.10 -0.50 -1.90 l0.15 -1.45 1.85 1.90 c4.40 4.40 4.35 5.65 -0.40 5.80 -1.95 0.05 -3.55 -0.15 -4 -0.50 -0.60 -0.50 -0.65 -0.45 -0.40 0.25 0.25 0.60 0 0.80 -1 0.80 -0.75 0 -1.45 -0.35 -1.55 -0.75z m-2.85 -4.65 c-1.25 -0.45 -2.80 -1.30 -3.40 -1.80 -0.80 -0.80 -1 -0.80 -0.75 -0.20 0.40 1 4.05 2.80 5.75 2.80 0.40 0 -0.30 -0.35 -1.60 -0.80z"/>
 </g>
 <g fill="#7f4b52">
  <path d="M22 33.75 c0 -1.20 0.25 -1.75 0.75 -1.75 0.40 0 0.75 -0.45 0.75 -1 0 -0.85 0.35 -1 2 -1 1.90 0 2 0.10 2 1.45 0 0.85 -0.25 1.65 -0.55 1.80 -0.85 0.55 -1.05 -0.10 -0.40 -1.20 0.80 -1.20 0.40 -1.75 -1 -1.30 -1.10 0.35 -3.20 3.60 -2.80 4.30 0.20 0.25 0.05 0.45 -0.20 0.45 -0.30 0 -0.55 -0.80 -0.55 -1.75z"/>
  <path d="M23.85 34.10 c-0.25 -0.35 1.35 -2.60 1.85 -2.60 0.20 0 0 0.70 -0.45 1.50 -0.80 1.55 -1.05 1.75 -1.40 1.10z"/>
  <path d="M27 20.25 c0 -0.40 0.40 -1.50 0.90 -2.45 0.65 -1.40 1.15 -1.80 2.25 -1.80 1.70 0 1.75 0.40 0.10 1 -0.70 0.25 -1.25 0.85 -1.25 1.35 0.05 0.85 0.10 0.85 0.75 -0.05 0.60 -0.80 0.85 -0.85 1.50 -0.30 0.85 0.70 1 2 0.25 2 -0.25 0 -0.35 -0.40 -0.15 -0.85 0.25 -0.75 0.15 -0.80 -0.40 -0.25 -0.35 0.30 -1.05 0.60 -1.55 0.60 -1.30 0 -1.10 0.90 0.25 1.15 0.65 0.15 0.40 0.25 -0.75 0.30 -1.35 0.05 -1.90 -0.15 -1.90 -0.70z"/>
  <path d="M16 20.15 c-1.15 -0.50 -2 -1.50 -2 -2.45 0 -0.75 0.10 -0.80 0.90 -0.10 0.45 0.45 1.85 1.25 3.10 1.80 l2.25 1 -1.75 0 c-0.95 0 -2.10 -0.10 -2.50 -0.25z"/>
  <path d="M18.65 18.90 c-1.85 -0.40 -3.60 -1.60 -3.10 -2.10 0.10 -0.15 0.80 -0.35 1.50 -0.55 1 -0.25 1.65 0 2.70 0.85 1.90 1.65 1.50 2.30 -1.10 1.80z"/>
  <path d="M20.25 16.95 c-1.60 -1.55 -4.50 -2 -5.65 -0.85 -0.45 0.45 -0.60 0.40 -0.60 -0.20 0 -1.50 4.10 -1.90 6.50 -0.65 1.05 0.55 1.50 1.15 1.50 2 0 0.70 -0.05 1.25 -0.10 1.20 -0.10 -0.05 -0.80 -0.70 -1.65 -1.50z"/>
  <path d="M23.50 17.35 c0 -0.40 0.35 -1 0.75 -1.35 0.45 -0.35 0.70 -0.95 0.55 -1.35 -0.15 -0.40 0.10 -0.65 0.75 -0.65 0.85 0 1 0.25 0.85 1.90 -0.15 1.60 -0.35 1.85 -1.50 2 -0.95 0.10 -1.40 -0.05 -1.40 -0.55z"/>
  <path d="M11.50 13.90 c0 -0.30 0.25 -1.90 0.60 -3.45 0.65 -3.15 1 -3.45 4.80 -3.45 2 0 2.10 0.05 2.10 1.55 0 1.55 -0.05 1.55 -2.25 1.35 -1.55 -0.10 -2.25 0.05 -2.25 0.45 0 0.35 -0.30 0.65 -0.70 0.65 -0.35 0 -0.95 0.35 -1.30 0.80 -0.55 0.65 -0.50 0.80 0.40 1.05 1.55 0.40 1.40 1.65 -0.15 1.65 -0.70 0 -1.25 -0.25 -1.25 -0.60z"/>
  <path d="M10.10 12.30 c0.10 -1.10 0.45 -2.05 0.85 -2.20 0.50 -0.15 0.60 0.15 0.30 1.45 -0.55 2.55 -1.35 3.05 -1.15 0.75z"/>
 </g>
 <g fill="#6f6858">
  <path d="M0 39.10 c0 -0.55 0.55 -1.20 1.25 -1.50 1.45 -0.65 4.75 -0.80 4.75 -0.20 0 0.20 0.15 0.85 0.30 1.50 0.40 1.40 -0.45 1.45 -1.90 0.10 -0.60 -0.55 -1.45 -1 -1.85 -1 -0.70 0.05 -0.65 0.15 0.10 0.70 1.25 1 1.05 1.30 -0.90 1.30 -1.35 0 -1.75 -0.20 -1.75 -0.90z"/>
  <path d="M9.50 39.25 c0 -0.40 -0.20 -0.75 -0.50 -0.75 -0.25 0 -0.50 -0.55 -0.50 -1.25 0 -1.25 0.35 -1.50 1.25 -0.85 1.10 0.80 1.75 2 1.45 2.80 -0.40 1 -1.70 1.05 -1.70 0.05z"/>
  <path d="M12 38.75 c0 -0.70 0.30 -1.25 0.65 -1.25 0.55 0 0.55 -0.80 0.10 -4.30 -0.55 -3.95 -0.75 -4.40 -2.20 -5.55 -0.85 -0.65 -1.45 -1.45 -1.30 -1.70 0.20 -0.25 0 -0.45 -0.35 -0.45 -0.40 0 -1.20 -1 -1.75 -2.20 -0.90 -1.80 -0.95 -2.25 -0.40 -2.50 0.45 -0.15 1.10 0.45 1.80 1.65 0.60 1.10 2.10 2.80 3.40 3.85 2.30 1.90 2.30 1.90 -0.50 -1.10 -1.55 -1.65 -2.95 -3.50 -3.15 -4.10 -0.40 -1.20 -1.30 -1.40 -2.15 -0.55 -0.75 0.75 -1.65 0.15 -1.65 -1.05 0 -0.65 0.25 -0.85 0.75 -0.70 0.40 0.20 0.85 -0.05 1.05 -0.50 0.15 -0.45 0.55 -0.80 0.90 -0.80 0.80 -0.05 2.70 -4.35 3.10 -7.10 0.30 -2.45 -0.05 -4.40 -0.85 -4.40 -1.10 0 -2.95 2.50 -2.95 3.95 0 0.80 -0.25 1.55 -0.60 1.65 -0.35 0.15 -0.55 1.40 -0.55 3.45 0 3 0 3.05 -0.35 0.95 l-0.35 -2.25 -0.05 2.15 c-0.05 1.15 -0.30 2.10 -0.55 2.10 -0.25 0 -0.40 -1.55 -0.30 -3.45 0.15 -4.15 2.10 -8.30 4.50 -9.55 0.80 -0.40 1.75 -1.05 2.15 -1.35 0.35 -0.35 1.35 -0.65 2.15 -0.65 1.25 0 1.45 0.20 1.45 1.35 0 1.25 -0.05 1.25 -0.90 0.50 -0.50 -0.50 -1.10 -0.85 -1.35 -0.85 -0.20 0 0.20 0.45 0.95 1.05 0.70 0.55 1.30 1.45 1.30 2 0 0.60 0.35 0.95 1 0.95 0.55 0 1 -0.20 1 -0.45 0 -0.25 0.40 -0.60 0.90 -0.70 0.80 -0.20 0.80 -0.25 0 -0.30 -1.05 -0.05 -1.20 -1.55 -0.20 -1.55 1.45 0 5.80 1.20 5.80 1.60 0 0.20 0.45 0.40 0.95 0.40 0.55 0 1.10 0.20 1.25 0.45 0.15 0.20 1.20 0.55 2.30 0.75 1.55 0.25 2 0.55 2 1.30 0 0.55 -0.35 1 -0.75 1 -1.20 0 -3.95 -1.25 -4.70 -2.15 -0.35 -0.50 -1.05 -0.85 -1.50 -0.85 -0.65 0.05 -0.60 0.15 0.20 0.60 0.55 0.30 1.35 0.95 1.80 1.50 0.45 0.55 1.65 1.10 2.85 1.25 2.30 0.30 2.70 0.85 1 1.35 -2.40 0.60 -3.90 0.35 -3.90 -0.70 0 -0.55 -0.35 -1 -0.75 -1 -0.40 0 -0.75 0.30 -0.75 0.70 0 0.55 -0.45 0.50 -2.10 -0.35 -1.20 -0.60 -2.35 -1.40 -2.65 -1.75 -0.30 -0.35 -1.25 -0.55 -2.25 -0.50 -1.40 0.10 -1.80 0.40 -2 1.35 -0.15 0.65 -0.55 1.30 -0.85 1.40 -0.50 0.20 -0.55 -0.35 -0.35 -1.95 0.25 -1.75 0.10 -2.40 -0.75 -3.40 l-1.05 -1.25 0.85 1.60 c0.75 1.40 0.80 1.85 0.20 4.25 -0.35 1.45 -1.25 3.95 -1.95 5.55 -0.70 1.55 -1.10 3 -0.95 3.20 0.20 0.15 0.55 -0.25 0.85 -0.90 0.30 -0.65 0.85 -1.75 1.25 -2.45 0.40 -0.70 0.75 -1.80 0.75 -2.45 0 -1 0.10 -1.05 0.75 -0.55 1 0.85 1 4 0 4 -0.45 0 -0.75 0.45 -0.75 1.25 0 0.70 -0.30 1.25 -0.70 1.25 -0.55 0 -0.55 0.45 -0.15 2.25 0.40 1.65 0.75 2.25 1.45 2.25 0.50 0 0.90 0.25 0.90 0.50 0 0.30 0.45 0.50 1.05 0.50 0.70 0 1.20 0.50 1.60 1.45 0.30 0.85 1.05 1.60 1.70 1.80 0.65 0.15 1.25 0.80 1.45 1.50 0.15 0.70 0.55 1.25 0.80 1.25 0.35 0 0.45 0.95 0.25 2.50 l-0.30 2.50 1.45 0 c1.35 0 1.50 0.15 1.50 1.70 0 2.10 -1.15 2.65 -2.60 1.30 -0.95 -0.85 -0.95 -1 -0.25 -1 0.45 0 0.85 -0.20 0.85 -0.50 0 -0.25 -0.25 -0.50 -0.50 -0.50 -0.30 0 -1.70 -1.05 -3.15 -2.35 -2.10 -1.95 -2.30 -2.10 -1.15 -0.65 0.80 0.95 1.75 1.95 2.10 2.15 0.40 0.20 0.70 0.75 0.70 1.15 0 0.40 -0.25 0.60 -0.50 0.45 -0.35 -0.20 -0.45 0.10 -0.20 0.95 0.25 1.10 0.15 1.30 -0.75 1.30 -0.85 0 -1.05 -0.30 -1.05 -1.75 0 -0.95 -0.20 -1.75 -0.50 -1.75 -0.25 0 -0.50 0.45 -0.50 1 0 0.65 -0.35 1 -1 1 -0.55 0 -1 0.35 -1 0.75 0 0.40 -0.20 0.75 -0.50 0.75 -0.25 0 -0.50 -0.55 -0.50 -1.25z"/>
  <path d="M24.65 39.65 c-0.95 -0.20 -1.15 -0.55 -1.15 -1.95 0 -1.50 0.15 -1.70 1.30 -1.70 1 0 1.20 0.20 1 0.90 -0.25 0.65 0 0.90 1 1 1.65 0.15 2.20 0.50 2.20 1.40 0 0.85 -1.30 0.95 -1.70 0.10 -0.25 -0.50 -0.35 -0.50 -0.60 0 -0.15 0.30 -0.45 0.55 -0.60 0.55 -0.20 -0.05 -0.85 -0.20 -1.45 -0.30z"/>
  <path d="M20.50 30.55 l0 -2.20 2.65 0.35 c1.40 0.15 3.35 0.30 4.25 0.30 l1.60 0 -0.65 1.60 c-0.75 1.80 -1.90 2.55 -1.50 0.95 0.35 -1.40 -1 -1.40 -2.35 -0.05 -1.30 1.30 -3.10 1.35 -2.70 0.15 0.25 -0.75 0.15 -0.75 -0.50 0.05 -0.75 0.95 -0.80 0.90 -0.80 -1.15z"/>
  <path d="M23 25.50 c0 -0.25 -0.65 -0.50 -1.50 -0.50 -1.40 0 -1.50 -0.15 -1.50 -1.75 0 -1.60 -0.10 -1.75 -1.50 -1.75 -1.25 0 -1.50 -0.20 -1.50 -1.25 0 -0.70 0.10 -1.25 0.25 -1.25 0.70 0 3.20 1.55 3.40 2.10 0.30 0.85 0.65 0.45 1.05 -1.25 0.65 -2.80 -5 -5.85 -7.10 -3.75 -0.45 0.45 -0.60 0.25 -0.60 -1 l0 -1.60 3.15 0 c3.45 0.05 4.20 0.65 5.60 4.40 0.65 1.70 0.70 1.75 0.70 0.50 0.05 -0.90 0.30 -1.40 0.80 -1.40 0.40 0 0.75 -0.20 0.75 -0.50 0 -0.25 0.70 -0.50 1.55 -0.50 l1.55 0 -0.85 1.30 c-0.45 0.70 -0.65 1.45 -0.45 1.60 0.20 0.20 0.40 0.15 0.50 -0.15 0.70 -1.80 2.30 -3.75 3.20 -3.75 1.35 0 1.30 1.50 -0.05 1.85 -1.55 0.45 -2.65 3.65 -1.20 3.65 0.40 0 0.75 0.25 0.75 0.50 0 0.30 -0.35 0.50 -0.75 0.50 -0.40 0 -0.75 0.35 -0.75 0.75 0 0.40 -0.20 0.75 -0.50 0.75 -0.25 0 -0.50 0.70 -0.50 1.50 0 1.45 -0.10 1.50 -2.25 1.50 -1.25 0 -2.25 -0.20 -2.25 -0.50z m3 -2.30 c0 -0.40 -0.20 -0.70 -0.50 -0.70 -0.25 0 -0.50 0.45 -0.50 1.05 0 0.55 0.25 0.85 0.50 0.70 0.30 -0.15 0.50 -0.65 0.50 -1.05z"/>
  <path d="M30.50 21.40 c0 -0.65 0.35 -1.55 0.70 -2.05 0.60 -0.80 0.70 -0.75 1 0.70 0.35 1.75 0.05 2.45 -1 2.45 -0.40 0 -0.70 -0.45 -0.70 -1.10z"/>
  <path d="M18.85 18.85 c-2.40 -0.60 -3.40 -2.15 -1.60 -2.45 0.70 -0.15 1.25 -0.05 1.25 0.25 0 0.30 0.15 0.40 0.30 0.25 0.35 -0.40 2.30 1.55 2.10 2.05 -0.10 0.20 -1 0.15 -2.05 -0.10z"/>
  <path d="M8.55 14 c0 -0.40 0.20 -1.20 0.45 -1.75 l0.45 -1 0 1 c0 0.55 -0.20 1.35 -0.45 1.75 -0.45 0.65 -0.50 0.65 -0.45 0z"/>
  <path d="M30.90 12.80 c-0.80 -0.60 -0.95 -1.90 -0.25 -2.60 0.70 -0.70 0.35 -1.30 -0.40 -0.70 -0.65 0.50 -0.75 0.45 -0.75 -0.40 0 -0.60 0.25 -1.20 0.50 -1.35 0.30 -0.20 0.35 -0.55 0.20 -0.85 -0.20 -0.30 0.15 -0.25 0.80 0.10 0.60 0.30 0.95 0.90 0.80 1.25 -0.10 0.35 0 1.45 0.30 2.45 0.65 2.10 0.10 3.05 -1.20 2.10z"/>
  <path d="M15.50 9.50 c0 -0.25 0.45 -0.50 1 -0.50 0.55 0 1 0.25 1 0.50 0 0.30 -0.45 0.50 -1 0.50 -0.55 0 -1 -0.20 -1 -0.50z"/>
 </g>
 <g fill="#57767a">
  <path d="M4.10 19.65 c-0.85 -1.55 -0.25 -8.15 0.90 -10.50 0.55 -1.20 1.25 -2.15 1.50 -2.15 0.30 0 0.50 -0.35 0.50 -0.75 0 -1.30 1.90 -1.90 3.25 -1.05 0.90 0.60 1.25 0.60 1.40 0.15 0.15 -0.30 0.15 0.65 0.10 2.15 -0.20 3.60 -2.05 9.50 -3 9.50 -0.50 0 -0.75 0.50 -0.75 1.50 0 0.85 -0.25 1.50 -0.60 1.50 -0.35 0 -1.15 0.15 -1.75 0.30 -0.75 0.20 -1.20 0 -1.55 -0.65z m1.50 -1.30 c-0.30 -0.35 -0.60 -1.50 -0.75 -2.60 l-0.20 -2 -0.05 2.30 c-0.10 2.30 0.15 2.95 1.05 2.95 0.25 0 0.25 -0.25 -0.05 -0.65z m3.30 -3.45 c1.60 -2.65 2.05 -8.90 0.60 -8.90 -0.80 0 -2.40 1.75 -2.75 3 -0.25 1.05 -0.15 1 0.75 -0.40 1.50 -2.45 2.30 -1.85 2.10 1.70 -0.20 3.30 -1.15 5.20 -2.60 5.20 -0.55 0 -1 0.25 -1 0.50 0 1.15 2 0.40 2.90 -1.10z"/>
  <path d="M23.80 8.40 c-0.55 -0.60 -1.25 -0.90 -1.85 -0.75 -0.50 0.15 -0.95 0.05 -0.95 -0.20 0 -0.25 -0.35 -0.45 -0.75 -0.45 -0.40 0 -0.75 -0.20 -0.75 -0.50 0 -0.25 -0.80 -0.50 -1.75 -0.50 -1.25 0 -1.75 -0.20 -1.75 -0.80 0 -0.55 0.25 -0.70 0.80 -0.50 0.45 0.20 1.85 0.55 3.15 0.85 1.25 0.30 3.20 1 4.35 1.50 2.30 1.10 5.20 1.25 6.10 0.35 0.40 -0.40 0.75 -0.45 1.15 -0.05 1.05 1.05 -0.80 2 -3.95 2.05 -2.35 0.05 -3.10 -0.15 -3.80 -1z"/>
  <path d="M24.50 6.50 c-1.25 -0.50 -3.50 -1.30 -5.05 -1.75 -1.60 -0.45 -3.45 -1.35 -4.15 -2 -0.90 -0.85 -1.30 -1 -1.30 -0.50 0 0.40 -0.35 0.75 -0.75 0.75 -1.05 0 -0.95 -1.10 0.25 -2.15 1.45 -1.25 2.50 -1.10 2.50 0.40 0 1.10 0.20 1.25 1.75 1.25 0.95 0 1.75 0.25 1.75 0.50 0 0.30 0.80 0.50 1.75 0.50 0.95 0 1.75 0.25 1.75 0.50 0 0.30 0.35 0.50 0.75 0.50 0.40 0 0.75 0.30 0.75 0.70 0 0.45 0.40 0.60 1.25 0.40 1.90 -0.35 1.70 -2.10 -0.25 -2.10 -1.25 0 -1.50 -0.20 -1.50 -1.25 0 -0.70 0.20 -1.25 0.45 -1.25 0.70 0 4.05 2.40 5.30 3.90 1.10 1.25 1.15 1.40 0.40 2 -1.15 0.85 -3 0.75 -5.65 -0.40z"/>
 </g>
 <g fill="#89785d">
  <path d="M12 38.50 c0 -0.55 0.35 -1 0.75 -1 0.65 0 0.70 -0.35 0.40 -1.85 -0.20 -1.05 -0.35 -3.15 -0.30 -4.70 0.05 -2.75 0.05 -2.85 -1.40 -3.15 -1.15 -0.20 -1.45 -0.55 -1.45 -1.50 0 -0.90 -0.30 -1.25 -1.10 -1.40 -0.70 -0.10 -1.30 -0.70 -1.60 -1.50 -0.60 -1.65 0.10 -2.55 0.90 -1.15 1 1.70 6.40 6.90 6.05 5.80 -0.25 -0.90 -0.10 -1.05 1 -1.05 1 0 1.45 0.35 1.90 1.45 0.50 1.40 2.85 2.55 2.85 1.45 0 -0.95 1.50 -1.90 2.95 -1.90 1.40 0 1.55 0.15 1.55 1.65 0 0.85 -0.45 2.35 -1.05 3.30 -1.20 1.95 -0.70 3 1 2.10 0.60 -0.35 1.05 -0.80 1.05 -1.05 0 -0.30 0.35 -0.50 0.70 -0.50 0.60 0 0.65 0.30 0.20 1.65 -0.30 0.85 -0.75 1.85 -1 2.20 -0.30 0.40 -0.10 0.65 0.70 0.80 0.85 0.15 0.75 0.25 -0.45 0.30 -1.15 0.05 -1.65 -0.15 -1.65 -0.70 0 -0.40 -0.35 -0.75 -0.75 -0.75 -0.40 0 -0.75 -0.35 -0.75 -0.80 0 -1.35 -1.35 -2.20 -3.35 -2.10 -1.85 0.05 -1.85 0.05 -0.25 0.25 1.30 0.20 1.60 0.45 1.60 1.45 0 1.75 -0.75 1.50 -3.90 -1.40 l-2.80 -2.65 1.90 2.35 c1 1.30 2.15 2.45 2.45 2.60 0.45 0.25 0.45 0.35 0 0.60 -0.35 0.15 -0.65 0.60 -0.65 1 0 0.40 -0.35 0.70 -0.75 0.70 -0.50 0 -0.75 -0.50 -0.75 -1.50 0 -0.80 -0.20 -1.50 -0.50 -1.50 -0.25 0 -0.50 0.80 -0.50 1.75 0 1.60 -0.10 1.75 -1.50 1.75 -1.15 0 -1.50 -0.20 -1.50 -1z m9.70 -6.55 c1.25 -2.10 0.80 -2.25 -0.60 -0.15 -0.60 0.95 -0.95 1.70 -0.70 1.70 0.20 0 0.80 -0.70 1.30 -1.55z"/>
  <path d="M24 33.80 c0 -0.40 0.25 -0.90 0.50 -1.05 0.30 -0.15 0.50 0.05 0.50 0.45 0 0.40 -0.20 0.90 -0.50 1.05 -0.25 0.15 -0.50 -0.05 -0.50 -0.45z"/>
  <path d="M27.50 27.25 c0 -1.60 0.15 -1.75 1.45 -1.75 l1.40 0 -0.80 1.75 c-1.05 2.25 -2.05 2.25 -2.05 0z"/>
  <path d="M11.75 25.50 c-0.90 -1 -0.85 -1 0.40 -1 1 0 1.35 0.25 1.35 1 0 0.55 -0.20 1 -0.40 1 -0.25 0 -0.85 -0.45 -1.35 -1z"/>
  <path d="M19.50 22.65 c0.05 -2.50 0.10 -2.80 0.70 -2 0.90 1.15 1.15 1.10 1.45 -0.50 0.35 -1.80 -0.25 -2.85 -2.25 -4.05 -1.85 -1.10 -3.40 -1.15 -4.60 -0.10 -0.75 0.60 -0.75 0.75 0.25 1.85 l1.10 1.15 -1.80 0 c-1.30 0 -1.85 -0.20 -1.85 -0.75 0 -0.45 -0.45 -0.75 -1.20 -0.75 -1.15 0 -1.15 0 -0.35 -1.75 0.90 -1.90 2.80 -2.45 3.20 -0.85 0.20 0.65 0.25 0.60 0.30 -0.20 0.10 -2.20 4.60 -2.05 6.70 0.25 0.65 0.70 1.45 2.30 1.75 3.55 0.50 2 0.45 2.40 -0.45 3.65 -0.55 0.80 -0.90 1.55 -0.75 1.70 0.15 0.15 0.70 -0.50 1.25 -1.40 0.80 -1.30 0.95 -2.20 0.75 -3.75 -0.25 -1.90 -0.15 -2.10 1.25 -2.70 0.85 -0.35 1.55 -0.95 1.55 -1.30 0 -0.40 0.35 -0.70 0.75 -0.70 0.50 0 0.75 -0.50 0.75 -1.55 0 -1.45 0.05 -1.50 2.10 -1.35 1.65 0.10 2.20 0.40 2.30 1.10 0.15 0.75 0 0.90 -1.05 0.60 -1.15 -0.25 -1.45 0 -2.65 2.20 -0.75 1.35 -1.55 2.50 -1.80 2.50 -0.20 0 -0.40 0.35 -0.40 0.75 0 1.25 0.85 0.85 1.50 -0.75 0.70 -1.65 1.85 -2.80 2.35 -2.30 0.20 0.20 0.10 0.75 -0.25 1.20 -1.20 1.70 -1.75 3.40 -1.65 5.25 0.10 1.55 -0.05 1.85 -0.90 1.85 -0.60 0 -1.05 0.30 -1.05 0.70 0 0.45 -0.90 0.75 -2.60 1 -4.60 0.55 -4.40 0.65 -4.40 -2.55z m6.50 0.85 c0 -0.55 -0.20 -1 -0.50 -1 -0.25 0 -0.50 0.10 -0.50 0.20 0 0.10 -0.15 0.55 -0.30 1 -0.20 0.55 -0.05 0.80 0.50 0.80 0.45 0 0.80 -0.40 0.80 -1z"/>
  <path d="M30 23.55 c0 -1.80 0.80 -4.05 1.45 -4.05 0.85 0 1 2.20 0.20 3.85 -0.95 2.05 -1.65 2.10 -1.65 0.20z"/>
  <path d="M9.60 23.40 c-0.85 -0.85 -0.75 -1.90 0.15 -1.90 0.45 0 0.75 0.45 0.75 1.25 0 1.45 -0.05 1.50 -0.90 0.65z"/>
  <path d="M20.20 18.80 c-0.15 -0.45 -0.60 -0.80 -0.95 -0.80 -0.35 0 -1.30 -0.35 -2.05 -0.75 l-1.45 -0.75 1.35 0 c1.45 0 4.40 2.15 3.80 2.80 -0.20 0.20 -0.50 -0.05 -0.70 -0.50z"/>
  <path d="M29 19.30 c0 -0.10 0.35 -0.45 0.75 -0.80 0.60 -0.50 0.75 -0.50 0.75 0.20 0 0.45 -0.35 0.80 -0.75 0.80 -0.40 0 -0.75 -0.10 -0.75 -0.20z"/>
  <path d="M22.25 12.05 c-1.65 -1.70 -1.80 -2.05 -1 -2.10 1.45 -0.05 -4.20 -1.40 -6 -1.45 -1.05 0 -1.80 -0.40 -2.50 -1.35 -0.55 -0.70 -1.40 -1.70 -1.90 -2.20 -0.90 -0.85 -0.90 -0.90 0.10 -1.90 1.25 -1.25 2.05 -1.35 2.05 -0.30 0 0.40 0.35 0.75 0.75 0.75 0.40 0 0.75 0.30 0.75 0.65 0 0.50 1.35 0.95 4.10 1.40 2.25 0.40 4.15 1 4.30 1.35 0.10 0.30 -0.20 0.60 -0.70 0.60 -0.75 0 -0.70 0.15 0.30 0.85 0.65 0.45 1.60 1.25 2.10 1.75 0.50 0.50 1.25 0.90 1.65 0.90 0.40 0 0.75 0.35 0.75 0.75 0 0.45 -0.45 0.75 -1.20 0.75 -0.70 0 -1.30 0.35 -1.40 0.80 -0.10 0.55 -0.70 0.20 -2.15 -1.25z m-6.10 -5.70 c-1.15 -0.35 -2.55 -1.05 -3.10 -1.55 -0.60 -0.55 -1.15 -0.85 -1.30 -0.70 -0.30 0.25 1.80 1.80 3.25 2.50 0.40 0.20 1.30 0.30 2 0.30 0.90 0 0.65 -0.15 -0.85 -0.55z"/>
  <path d="M25.25 9.50 c-0.60 -0.20 -1.35 -0.75 -1.70 -1.20 -0.60 -0.70 -0.55 -0.80 0.40 -0.80 0.55 0 1.50 0.45 2.05 1 1.50 1.50 1.30 1.85 -0.75 1z"/>
  <path d="M10.25 6.45 c-0.30 -0.95 -0.40 -0.95 -1.55 -0.25 -0.65 0.45 -1.40 0.80 -1.70 0.80 -0.90 0 -0.55 -0.95 0.70 -1.75 1.40 -0.95 2.90 -0.45 3.80 1.25 0.40 0.80 0.40 1 -0.20 1 -0.40 0 -0.90 -0.45 -1.05 -1.05z"/>
 </g>
 <g fill="#847f75">
  <path d="M4.15 38.85 c-0.90 -0.60 -1.60 -1.20 -1.65 -1.35 0 -0.30 4.05 -1.50 5 -1.50 0.30 0 0.50 0.45 0.50 1 0 0.55 -0.20 1 -0.50 1 -0.25 0 -0.50 0.45 -0.50 1 0 1.25 -0.80 1.20 -2.85 -0.15z"/>
  <path d="M9 38.75 c0 -0.90 0.25 -1.25 1 -1.25 0.75 0 1 0.35 1 1.25 0 0.90 -0.25 1.25 -1 1.25 -0.75 0 -1 -0.35 -1 -1.25z"/>
  <path d="M12 38.65 c0 -0.90 0.20 -1.20 0.70 -1 0.50 0.20 0.80 -0.10 0.95 -0.80 0.15 -0.65 0.25 -0.40 0.30 0.70 0.05 1.45 -0.15 1.90 -0.95 2.10 -0.80 0.20 -1 0 -1 -1z"/>
  <path d="M20.30 39.15 c-0.20 -0.45 -0.10 -1 0.25 -1.15 0.30 -0.20 0.50 -0.50 0.50 -0.70 -0.30 -2 0.05 -3.80 0.70 -3.80 0.40 0 0.75 -0.45 0.75 -1 0 -0.55 0.10 -1 0.20 -1 0.10 0 0.60 -0.15 1.10 -0.35 0.80 -0.30 0.75 -0.10 -0.25 1.50 -0.60 1 -1 2.05 -0.80 2.35 0.60 1 1.80 0.45 2.85 -1.35 0.60 -1 1.20 -1.55 1.30 -1.20 0.30 0.95 -0.95 3.55 -1.70 3.55 -0.40 0 -0.70 0.25 -0.70 0.50 0 0.30 -0.60 0.55 -1.35 0.55 -0.80 0.05 0.10 0.35 2 0.65 3.80 0.70 3.95 0.80 3.35 1.80 -0.40 0.65 -0.50 0.60 -0.50 -0.10 0 -1.10 -0.90 -1.20 -1.30 -0.15 -0.45 1.15 -5.95 1.05 -6.40 -0.10z"/>
  <path d="M12.90 33.40 c-0.05 -0.65 -0.15 -1.60 -0.20 -2.15 -0.05 -0.55 -0.10 -1.50 -0.15 -2.10 -0.05 -0.65 -0.35 -1.15 -0.80 -1.15 -0.40 0 -0.75 -0.45 -0.75 -1 0 -1.40 0.30 -1.30 2.70 1.25 1.20 1.25 2.45 2.25 2.80 2.25 0.30 0 -1.15 -1.65 -3.25 -3.60 -2.10 -2 -4.10 -4.30 -4.45 -5.10 -0.55 -1.35 -0.45 -1.70 0.90 -3.85 0.85 -1.25 1.75 -2.30 2.05 -2.20 0.25 0.05 0.35 0 0.15 -0.10 -0.70 -0.40 -0.40 -1.65 0.35 -1.65 0.55 0 0.75 0.55 0.75 2 0 1.65 -0.15 2 -1 2 -0.60 0 -1.30 0.60 -1.75 1.50 -0.70 1.35 -0.70 1.50 0 1.50 0.55 0 0.75 0.50 0.75 1.75 0 1.65 0.10 1.75 1.75 1.75 1.20 0 1.75 0.25 1.75 0.75 0 0.40 0.35 0.75 0.75 0.75 0.40 0 0.75 0.35 0.75 0.75 0 0.40 0.35 0.75 0.75 0.75 0.40 0 0.75 0.35 0.75 0.75 0 0.40 0.25 0.75 0.55 0.75 0.30 0 0.45 0.70 0.35 1.65 -0.10 1.20 -0.40 1.65 -1.25 1.75 -0.65 0.10 -1.15 0.40 -1.15 0.75 0 0.30 -0.75 -0.10 -1.60 -0.95 -1.30 -1.15 -1.45 -1.20 -0.60 -0.20 1.80 2.15 1.85 2.50 0.50 2.50 -1 0 -1.30 -0.30 -1.40 -1.10z"/>
  <path d="M24 33.95 c0 -0.45 0.35 -1.10 0.75 -1.45 0.95 -0.80 0.95 0 0 1.30 -0.60 0.80 -0.70 0.80 -0.75 0.15z"/>
  <path d="M7.50 23.50 c0 -0.55 -0.20 -1 -0.50 -1 -0.25 0 -0.50 -0.35 -0.50 -0.75 0 -1.40 1.30 -0.75 2.10 1 0.75 1.65 0.75 1.75 -0.15 1.75 -0.60 0 -0.95 -0.35 -0.95 -1z"/>
  <path d="M4.35 20.10 c-0.95 -1 -1.05 -2.80 -0.30 -4.35 0.40 -0.90 0.45 -0.85 0.25 0.20 -0.30 1.50 0.45 3.05 1.50 3.05 0.40 0 0.65 -0.20 0.50 -0.45 -0.30 -0.45 3.55 -4.85 3.95 -4.45 0.10 0.10 -0.40 1.45 -1.10 3.05 -0.90 2 -1.60 2.85 -2.20 2.85 -0.55 0 -0.95 0.25 -0.95 0.50 0 0.80 -0.75 0.60 -1.65 -0.40z"/>
  <path d="M16 19.70 c0 -0.70 0.15 -1.15 0.40 -1.05 0.20 0.10 1.20 0.55 2.25 1.05 1 0.45 1.85 0.95 1.85 1.05 0 0.15 -1 0.25 -2.25 0.25 -2.10 0 -2.25 -0.10 -2.25 -1.30z"/>
  <path d="M21.75 19.15 c0.10 -1.05 0.20 -2.10 0.25 -2.40 0.05 -0.25 0.25 -0.10 0.45 0.45 0.45 1.10 0.10 3.80 -0.50 3.80 -0.20 0 -0.30 -0.85 -0.20 -1.85z"/>
  <path d="M18.25 18.60 l-2.50 -0.80 1.95 -0.20 c1.30 -0.10 2.20 0.10 2.70 0.60 1.20 1.15 0.60 1.25 -2.15 0.40z"/>
  <path d="M23.80 17.75 c-0.15 -0.45 0.15 -1.20 0.70 -1.75 1 -1 1 -1 1 0.75 0 1.80 -1.10 2.50 -1.70 1z"/>
  <path d="M5.10 16.50 c0 -0.95 0.10 -1.35 0.25 -0.85 0.10 0.45 0.10 1.25 0 1.75 -0.15 0.45 -0.25 0.05 -0.25 -0.90z"/>
  <path d="M3.80 13.30 c-0.35 -1.40 2.40 -7 4 -8.05 1.15 -0.75 1.35 -0.75 2.50 -0.05 1.55 1.05 1.95 2.80 1.10 5.15 l-0.65 1.90 -0.15 -2.75 c-0.20 -3.10 -0.55 -3.75 -2 -3.30 -1.15 0.40 -2.35 2.95 -1.80 3.85 0.20 0.35 0.15 0.50 -0.15 0.30 -0.50 -0.35 -1.85 2.90 -1.45 3.55 0.15 0.25 -0.05 0.45 -0.45 0.45 -0.35 0 -0.80 -0.50 -0.95 -1.05z"/>
  <path d="M26 11.50 c0 -0.25 0.85 -0.50 1.85 -0.50 1 0 2.25 -0.35 2.75 -0.85 0.50 -0.45 1.05 -0.65 1.30 -0.40 0.20 0.20 0.05 0.50 -0.25 0.60 -0.35 0.15 -0.65 0.55 -0.65 0.95 0 0.50 -0.70 0.70 -2.50 0.70 -1.35 0 -2.50 -0.20 -2.50 -0.50z"/>
  <path d="M12.35 9.05 c0.25 -2.25 0.15 -2.60 -1.10 -3.75 -2.20 -2.05 -1.10 -2.05 1.50 -0.10 1.25 1 2.90 1.80 3.55 1.80 1.45 0 2.70 1.05 2.70 2.20 0 0.55 -0.45 0.80 -1.45 0.80 -1.70 0 -2.50 -0.80 -1.20 -1.15 0.50 -0.10 0.30 -0.15 -0.45 -0.05 -1 0.10 -1.40 -0.05 -1.40 -0.55 0 -0.40 -0.25 -0.75 -0.50 -0.75 -0.30 0 -0.40 0.55 -0.20 1.25 0.30 1.20 -0.45 2.75 -1.35 2.75 -0.20 0 -0.25 -1.10 -0.10 -2.45z"/>
  <path d="M23 10 c0 -0.80 -0.35 -1 -1.75 -1 -1.25 0 -1.75 -0.20 -1.75 -0.80 0 -1.55 3.50 -0.10 4.55 1.90 0.35 0.70 0.30 0.90 -0.30 0.90 -0.40 0 -0.75 -0.45 -0.75 -1z"/>
  <path d="M26.25 9.90 c-0.80 -0.30 -1.95 -0.90 -2.50 -1.40 -0.55 -0.50 -1.75 -1.05 -2.60 -1.25 -0.95 -0.20 -1.65 -0.65 -1.65 -1.05 0 -0.85 2.45 -0.45 3.25 0.55 0.45 0.55 1.65 0.95 4.90 1.60 0.80 0.15 1.85 -0.05 2.55 -0.55 1.80 -1.15 2.10 -0.10 0.45 1.40 -1.50 1.40 -2.10 1.50 -4.40 0.70z"/>
  <path d="M15.20 6.10 c-0.55 -0.20 -1.75 -0.95 -2.65 -1.65 l-1.65 -1.30 1.15 -1.10 c1.55 -1.45 2.10 -1.30 1.70 0.45 -0.30 1.30 -0.20 1.50 0.70 1.50 1.50 0 3.55 1.05 3.55 1.85 0 0.70 -1.05 0.75 -2.80 0.25z"/>
  <path d="M24.50 4.80 c0 -1.50 -0.20 -1.75 -1.50 -2.05 -1.15 -0.25 -1.50 -0.60 -1.50 -1.55 0 -0.65 0.20 -1.20 0.45 -1.20 0.75 0 4.55 2.15 4.55 2.60 0 0.20 0.35 0.40 0.75 0.40 0.50 0 0.75 0.55 0.75 1.75 0 1.65 -0.10 1.75 -1.75 1.75 -1.65 0 -1.75 -0.10 -1.75 -1.70z"/>
  <path d="M14.50 2.05 c0 -0.25 -0.15 -0.80 -0.30 -1.25 -0.20 -0.60 0 -0.80 0.75 -0.80 0.80 0 1.05 0.30 1.05 1.25 0 0.80 -0.30 1.25 -0.75 1.25 -0.40 0 -0.75 -0.20 -0.75 -0.45z"/>
 </g>
 <g fill="#d1416e">
  <path d="M27.50 20.05 c0 -1.65 0.95 -3.55 1.75 -3.55 0.60 0 0.55 0.25 -0.25 1.60 -0.50 0.85 -0.85 1.75 -0.70 2 0.40 0.65 1.80 0.45 2.80 -0.45 0.85 -0.75 0.90 -0.75 0.90 0.25 0 0.95 -0.30 1.10 -2.25 1.10 -1.90 0 -2.25 -0.15 -2.25 -0.95z"/>
  <path d="M15.90 19.90 c-0.90 -0.30 -1.40 -0.85 -1.40 -1.50 0 -0.80 0.15 -0.90 0.65 -0.50 0.35 0.30 1.65 1 2.90 1.55 2.05 0.95 2.10 1.05 0.70 1 -0.80 0 -2.10 -0.25 -2.85 -0.55z"/>
  <path d="M29.65 18.65 c0.45 -0.45 0.95 -0.70 1.15 -0.55 0.50 0.50 -0.30 1.40 -1.20 1.40 -0.75 0 -0.75 -0.05 0.05 -0.85z"/>
  <path d="M17.40 18.40 c-0.80 -0.25 -1.40 -0.80 -1.40 -1.20 0 -1.15 2.30 -0.80 3.85 0.55 l1.40 1.20 -1.25 0 c-0.70 0 -1.85 -0.25 -2.60 -0.55z"/>
  <path d="M20.75 17 c-0.55 -0.60 -1.45 -1.30 -2 -1.55 -0.95 -0.35 -0.95 -0.40 0.05 -0.40 1.35 -0.05 3.40 1.55 3.15 2.40 -0.15 0.40 -0.55 0.25 -1.20 -0.45z"/>
  <path d="M12.20 10.70 c0.15 -0.45 0.30 -0.90 0.30 -1 0 -0.10 0.35 -0.20 0.75 -0.20 0.90 0 0.95 0.60 0.15 1.40 -0.85 0.85 -1.55 0.75 -1.20 -0.20z"/>
 </g>
 <g fill="#6e8b8e">
  <path d="M5 37.30 c0 -1.50 3.95 -1.70 5.25 -0.30 0.90 1 0.85 1 -2.15 1 -2.30 0 -3.10 -0.20 -3.10 -0.70z"/>
  <path d="M4.05 19.55 c-0.30 -0.55 -0.55 -1.40 -0.50 -1.90 0 -0.80 0.10 -0.75 0.80 0.25 0.40 0.60 1.10 1.10 1.50 1.10 0.95 0 0.55 1.20 -0.50 1.40 -0.40 0.10 -1 -0.30 -1.30 -0.85z"/>
  <path d="M5.55 18.05 c-0.70 -0.45 -0.60 -3.35 0.15 -5.80 0.15 -0.55 -0.10 -0.20 -0.55 0.75 l-0.85 1.75 -0.20 -1.60 c-0.20 -2.05 2.45 -7.45 3.95 -7.90 1.50 -0.50 1.80 0.15 0.50 1.10 -0.65 0.40 -1.45 1.55 -1.85 2.45 -1.05 2.50 -0.85 2.70 0.45 0.45 1.35 -2.40 2.65 -2.70 2.45 -0.50 -0.05 0.85 -0.10 2 -0.10 2.65 0 1.40 -1.35 4.10 -2 4.10 -0.30 0 -0.50 0.25 -0.50 0.50 0 0.30 0.25 0.50 0.50 0.50 0.75 0 2.50 -3.05 2.50 -4.35 0 -0.65 0.25 -1.15 0.50 -1.15 0.85 0 0.55 1.45 -0.80 4.55 -1.35 3 -2.40 3.60 -4.15 2.50z"/>
  <path d="M10.40 8.25 c-0.10 -1.25 0 -2.25 0.20 -2.25 0.70 0 1.50 2.10 1.20 3.30 -0.50 1.90 -1.20 1.40 -1.40 -1.05z"/>
  <path d="M26 8.50 c0 -0.25 0.90 -0.50 2 -0.50 1.10 0 2 0.25 2 0.50 0 0.30 -0.90 0.50 -2 0.50 -1.10 0 -2 -0.20 -2 -0.50z"/>
  <path d="M20.75 7.20 c-5.20 -1.05 -6.40 -1.45 -6.65 -2.30 -0.10 -0.50 -0.40 -0.90 -0.65 -0.90 -0.25 0 -0.45 -0.65 -0.45 -1.50 0 -0.80 0.25 -1.50 0.50 -1.50 0.30 0 0.50 0.45 0.50 1 0 1.30 2.40 2.75 5.70 3.55 1.40 0.30 3.10 0.90 3.80 1.25 l1.25 0.65 -1.50 -0.05 c-0.80 0 -1.95 -0.10 -2.50 -0.20z"/>
  <path d="M26.90 7.15 c-1.80 -0.45 -1 -1.65 1.10 -1.65 1.45 0 2 0.20 2 0.75 0 0.40 -0.20 0.75 -0.45 0.75 -0.25 0 -0.75 0.10 -1.15 0.20 -0.35 0.10 -1.05 0.10 -1.50 -0.05z"/>
  <path d="M20.10 4.95 c-2.30 -0.75 -4.50 -1.65 -4.90 -2 -0.95 -0.80 -0.90 -2.45 0.10 -2.45 0.90 0 2.20 1.15 2.20 1.95 0 0.30 0.70 0.55 1.55 0.55 0.80 0 2.50 0.25 3.75 0.55 1.85 0.50 2.20 0.75 2.20 1.75 0 1.40 0.35 1.45 -4.90 -0.35z"/>
  <path d="M25 2.80 c0 -0.95 0.20 -1.15 0.95 -0.95 0.55 0.15 1.35 0.70 1.85 1.20 0.85 0.90 0.80 0.95 -0.95 0.95 -1.60 0 -1.85 -0.15 -1.85 -1.20z"/>
 </g>
 <g fill="#a08b6d">
  <path d="M12.10 38.90 c0.10 -0.65 0.45 -1.10 0.85 -1 0.55 0.10 0.60 -0.35 0.30 -2.25 -0.20 -1.30 -0.45 -3.25 -0.50 -4.30 -0.05 -1.15 -0.55 -2.35 -1.25 -3.05 -0.60 -0.70 -1 -1.60 -0.90 -2.10 0.10 -0.65 1.05 0 4.05 2.90 4.80 4.70 5.10 4.25 0.40 -0.55 -2.65 -2.70 -3.25 -3.55 -2.50 -3.55 1.10 0 4.95 3.75 4.95 4.85 0 0.35 0.30 0.65 0.70 0.65 0.40 0 1.05 0.15 1.45 0.30 0.60 0.20 0.80 -0.15 0.95 -1.40 0.15 -1.50 0.30 -1.65 2 -1.80 1.75 -0.15 1.85 -0.10 2 1.50 0.10 1.05 -0.20 2.20 -0.80 3.15 -1.30 1.90 -1.75 2.20 -3.55 2.30 l-1.50 0.10 1.40 0.20 c1.15 0.20 1.35 0.45 1.35 1.95 0 1.30 -0.20 1.70 -0.85 1.70 -0.65 0 -0.75 -0.10 -0.25 -0.45 0.45 -0.25 0.05 -0.80 -1.50 -1.80 -1.90 -1.25 -2 -1.45 -1.15 -1.80 0.90 -0.35 0.90 -0.40 -0.25 -0.40 -0.65 -0.05 -1.95 -0.80 -2.90 -1.65 -1.25 -1.20 -1.60 -1.35 -1.15 -0.55 0.30 0.60 0.70 1.15 0.90 1.25 0.25 0.10 1.30 1.15 2.40 2.35 1.10 1.20 1.70 2 1.30 1.80 -0.55 -0.35 -0.65 -0.10 -0.40 1.15 0.30 1.35 0.20 1.60 -0.65 1.60 -1 0 -1.30 -0.65 -1.65 -3.75 -0.10 -0.85 -0.25 -0.35 -0.30 1.15 -0.05 2.55 -0.10 2.60 -1.60 2.60 -1.30 0 -1.50 -0.15 -1.35 -1.10z m9.90 -7.50 c0.65 -1.20 0.85 -1.90 0.45 -1.55 -1 0.80 -2.60 3.65 -2.05 3.65 0.20 0 0.95 -0.95 1.60 -2.10z"/>
  <path d="M23 37.65 c0 -1.10 0.30 -1.80 0.95 -2.15 0.55 -0.25 1.50 -1.40 2.10 -2.50 0.65 -1.10 1.35 -2 1.60 -2 0.50 0 0.50 0 -1.35 4.15 -1.25 2.80 -1.25 2.85 -0.25 2.85 0.60 0 0.95 0.25 0.80 0.65 -0.10 0.30 -1 0.60 -2 0.60 -1.75 0.05 -1.85 -0.05 -1.85 -1.60z"/>
  <path d="M28.50 26.55 c0 -0.85 -0.30 -1.05 -1.50 -1.05 -1.35 0 -1.45 -0.10 -1.15 -1.50 0.30 -1.70 -0.75 -2.15 -1.20 -0.50 -0.15 0.55 -0.60 1 -0.95 1 -0.40 0 -0.70 0.35 -0.70 0.75 0 0.65 -0.55 0.75 -3.10 0.65 l-3.15 -0.15 -0.15 -1.85 c-0.15 -1.65 0 -1.90 0.85 -1.90 0.70 0 1.05 -0.30 1.05 -1 0 -1.35 1.30 -1.25 2.10 0.15 0.55 1.05 0.60 1 1 -0.85 0.35 -1.75 0.25 -2.15 -0.95 -3.40 -1.75 -1.80 -4.35 -2.35 -5.65 -1.15 -1.30 1.15 -1.25 1.45 0.25 2.25 1.75 0.95 1.55 1.50 -0.45 1.50 -1.25 0 -1.75 -0.25 -1.95 -1 -0.35 -1.40 -1.35 -1.25 -1.35 0.25 0 0.80 -0.30 1.25 -0.75 1.25 -0.55 0 -0.75 0.55 -0.75 1.90 l-0.05 1.85 -0.90 -1.70 c-0.90 -1.70 -0.90 -1.75 0.30 -3.50 0.70 -1 1.70 -2.05 2.30 -2.40 0.60 -0.35 0.80 -0.60 0.50 -0.65 -0.40 0 -0.65 -0.65 -0.65 -1.50 0 -1.35 0.10 -1.45 1.25 -1 0.70 0.25 2.35 0.45 3.65 0.45 3.90 -0.10 5.60 1.30 6.50 5.45 0.45 1.95 0.40 2.30 -0.75 3.60 -0.70 0.85 -1 1.50 -0.70 1.50 1.05 0 2.60 -3.20 2.45 -5.10 -0.10 -2.05 0.95 -3.85 1.70 -2.80 0.40 0.50 0.55 0.50 0.75 0.05 0.10 -0.35 0.55 -0.65 0.90 -0.65 0.35 0 0.75 -0.55 0.85 -1.25 0.20 -0.95 0.05 -1.25 -0.65 -1.25 -0.60 0 -0.95 -0.35 -0.95 -1 0 -0.80 0.35 -1 1.70 -1 0.90 0 1.95 -0.35 2.30 -0.75 0.85 -1.05 1.35 -0.95 1.60 0.40 0.35 1.75 0 2.25 -1.35 1.95 -0.85 -0.15 -1.25 0 -1.25 0.50 0 0.40 -0.65 1.70 -1.50 2.80 -1.15 1.60 -1.50 2.55 -1.45 4.20 0.10 1.60 0.15 1.80 0.30 0.70 0.35 -2.25 2.40 -5.55 3.60 -5.70 1.35 -0.20 1.45 1.20 0.10 1.55 -0.55 0.10 -1.35 0.95 -1.80 1.85 -0.80 1.50 -0.80 1.60 0.20 1.85 1.05 0.25 1.50 1.65 0.55 1.65 -0.25 0 -0.50 0.25 -0.50 0.50 0 0.30 0.55 0.50 1.25 0.50 0.70 0 1.25 0.10 1.25 0.25 0 0.65 -1.50 3.10 -2.20 3.70 -0.70 0.60 -0.80 0.50 -0.80 -0.40z"/>
  <path d="M8.95 26.20 c-1 -1.15 -2.45 -3.95 -2.45 -4.70 0 -1 1.45 -0.50 1.80 0.65 0.15 0.60 0.65 1.50 1.05 1.95 0.40 0.45 0.65 1.30 0.55 1.90 -0.15 1.10 -0.15 1.10 -0.95 0.20z"/>
  <path d="M6.50 19.25 c0 -0.40 0.35 -0.75 0.75 -0.75 0.40 0 0.75 -0.45 0.75 -1 0 -0.55 0.25 -1 0.50 -1 0.65 0 0.65 0.30 -0.25 2 -0.85 1.60 -1.75 2 -1.75 0.75z"/>
  <path d="M10.05 12.90 c-0.05 -1.05 0.20 -1.90 0.45 -1.90 0.60 0 0.60 1.35 0 2.75 -0.35 0.80 -0.45 0.65 -0.45 -0.85z"/>
  <path d="M23.15 12.75 l-1.55 -1.75 1.70 0 c1.60 0 1.70 0.10 1.70 1.75 0 0.95 -0.05 1.75 -0.15 1.75 -0.10 0 -0.85 -0.80 -1.70 -1.75z"/>
  <path d="M12.15 10.65 c0.15 -0.50 0.40 -1.50 0.55 -2.25 0.30 -1.25 0.55 -1.40 2.25 -1.40 3.30 0 7.25 0.95 8.30 2.05 l1 1 -4.15 -0.20 c-2.30 -0.15 -4.30 -0.40 -4.45 -0.55 -0.20 -0.15 0.20 -0.30 0.85 -0.30 0.65 0 1.05 -0.15 0.85 -0.30 -0.50 -0.55 -3.35 0.35 -3.35 1.05 0 0.40 -0.45 0.95 -1.05 1.30 -0.90 0.45 -1 0.40 -0.80 -0.40z"/>
  <path d="M27.25 9.65 c0.55 -0.15 1.45 -0.60 2 -0.95 0.55 -0.40 1.30 -0.70 1.70 -0.70 0.55 0 0.50 0.20 -0.20 1 -0.60 0.70 -1.50 1 -2.70 0.95 -1.10 -0.05 -1.40 -0.15 -0.80 -0.30z"/>
  <path d="M23.20 8 c-0.30 -0.30 -1.85 -0.75 -3.45 -1 -4.30 -0.70 -4.90 -1.70 -0.75 -1.25 3.60 0.35 5 0.95 5 2 0 0.90 -0.15 0.90 -0.80 0.25z"/>
  <path d="M6 7.50 c0 -0.25 0.45 -0.95 1 -1.50 0.95 -0.95 2 -1.30 2 -0.70 0 0.35 -2.40 2.70 -2.80 2.70 -0.10 0 -0.20 -0.20 -0.20 -0.50z"/>
 </g>
 <g fill="#8e999a">
  <path d="M8.50 38.75 c0 -1 0.25 -1.25 1.25 -1.25 1.35 0 1.65 0.90 0.65 1.90 -1 1 -1.90 0.70 -1.90 -0.65z"/>
  <path d="M20.35 39 c-0.15 -0.55 0 -1 0.25 -1 0.30 0 0.20 -0.35 -0.15 -0.85 -0.65 -0.75 -0.55 -0.80 1 -0.50 0.90 0.20 2.10 0.35 2.65 0.35 0.50 0 0.80 0.25 0.65 0.50 -0.20 0.30 0.35 0.50 1.20 0.50 1.45 0 1.50 0.10 0.95 1 -0.70 1.10 -2.15 1.35 -2.60 0.40 -0.25 -0.50 -0.35 -0.50 -0.60 0 -0.50 1.05 -3.05 0.75 -3.35 -0.40z"/>
  <path d="M3.50 38 c-0.95 -0.55 -0.55 -0.90 1.40 -1.30 1.40 -0.30 1.60 -0.20 1.60 0.75 0 1.15 -1.60 1.45 -3 0.55z"/>
  <path d="M4.25 19.85 c-0.40 -0.60 -0.75 -1.55 -0.70 -2.10 0 -0.95 0.05 -0.95 0.55 0.15 0.30 0.60 1 1.10 1.60 1.10 1 -0.05 1 -0.10 0.20 -0.70 -0.55 -0.40 -0.90 -1.30 -0.90 -2.25 0 -1.40 0.15 -1.55 1.50 -1.55 0.85 0 1.50 -0.25 1.50 -0.60 0 -0.35 0.15 -1.15 0.30 -1.80 0.25 -0.90 0.15 -1.05 -0.50 -0.80 -0.45 0.15 -0.80 0.85 -0.80 1.50 0 0.75 -0.30 1.20 -0.80 1.20 -0.55 0 -0.70 -0.30 -0.40 -1.10 0.60 -2 2.70 -5.90 3.15 -5.90 1.45 0 0.70 6 -0.95 7.75 -1.50 1.60 -1.25 2.75 0.30 1.20 2.40 -2.40 3.15 -9.95 0.95 -9.95 -0.40 0 -0.75 -0.20 -0.75 -0.50 0 -0.25 0.45 -0.50 1 -0.50 0.65 0 1.30 0.60 1.80 1.65 0.75 1.55 0.75 1.90 -0.30 5.30 -0.55 2 -1.35 3.70 -1.75 3.85 -0.35 0.15 -0.80 1.05 -0.95 1.95 -0.25 1.20 -0.75 1.90 -1.80 2.45 -1.40 0.65 -1.55 0.65 -2.25 -0.35z"/>
  <path d="M11.50 14.05 c0 -0.60 0.25 -1.05 0.50 -1.05 0.30 0 0.50 0.30 0.50 0.70 0 0.40 -0.20 0.90 -0.50 1.05 -0.25 0.15 -0.50 -0.15 -0.50 -0.70z"/>
  <path d="M4 12.85 c0 -1.55 2.25 -6.35 3 -6.35 0.50 0 -1.70 6.40 -2.50 7.20 -0.35 0.35 -0.50 0 -0.50 -0.85z"/>
  <path d="M12.20 10.70 c0.15 -0.40 0.30 -1.35 0.30 -2 0 -0.65 0.25 -1.20 0.50 -1.20 0.85 0 0.60 3.35 -0.30 3.70 -0.60 0.25 -0.75 0.10 -0.50 -0.50z"/>
  <path d="M25.40 11.15 c0.60 -0.10 1.50 -0.10 2 0 0.45 0.15 -0.05 0.25 -1.15 0.20 -1.10 0 -1.50 -0.10 -0.85 -0.20z"/>
  <path d="M22.50 9.80 c0 -0.45 -1.15 -0.85 -3.60 -1.20 -2 -0.30 -3.70 -0.80 -3.80 -1.10 -0.10 -0.25 -0.65 -0.50 -1.20 -0.50 -1.05 0 -4.25 -2.85 -3.75 -3.35 0.20 -0.15 1.10 0.40 2.05 1.25 1.90 1.70 2.25 1.80 6.50 2.55 3 0.55 5.30 1.65 5.30 2.55 0 0.30 -0.35 0.50 -0.75 0.50 -0.40 0 -0.75 -0.30 -0.75 -0.70z"/>
  <path d="M24.25 8.70 c-1.05 -0.70 -3.05 -1.50 -4.45 -1.70 -4.05 -0.70 -6.10 -1.45 -7.05 -2.50 -0.50 -0.55 -0.65 -1 -0.35 -1 0.35 0 0.60 -0.55 0.60 -1.25 0 -0.70 0.25 -1.25 0.50 -1.25 0.30 0 0.50 0.45 0.50 0.95 0 1.45 2.20 2.90 5.40 3.60 1.55 0.35 3.70 1.05 4.70 1.55 1.05 0.50 2.30 0.90 2.90 0.90 0.65 0 1 0.35 1 1 0 1.40 -1.45 1.30 -3.75 -0.30z"/>
  <path d="M29 8.90 c0 -0.35 0.55 -0.90 1.25 -1.25 1.40 -0.60 1.75 0.15 0.65 1.25 -0.80 0.80 -1.90 0.75 -1.90 0z"/>
  <path d="M24.10 6.20 c-0.50 -0.35 -2.45 -1 -4.25 -1.50 -3.50 -0.85 -5.35 -2.15 -5.35 -3.70 0 -1.30 1.85 -1.35 2.25 -0.05 0.15 0.55 0.95 1.10 1.75 1.30 0.85 0.20 1.50 0.65 1.50 1.05 0 0.40 0.75 0.80 2 1 1.10 0.20 2 0.50 2 0.75 0 0.25 0.25 0.45 0.50 0.45 0.30 0 0.50 -0.55 0.50 -1.25 0 -1.05 0.25 -1.25 1.40 -1.25 1.50 0 4.45 2.55 3.90 3.40 -0.45 0.70 -5.10 0.60 -6.20 -0.20z"/>
 </g>
 <g fill="#b3a081">
  <path d="M12.20 39.30 c-0.40 -1.10 0.30 -2.10 0.90 -1.25 0.30 0.45 0.35 -0.45 0.10 -2.55 -0.15 -1.80 -0.40 -3.90 -0.45 -4.70 -0.05 -1 -0.75 -2.05 -2.15 -3.25 -1.80 -1.60 -4.10 -5.05 -4.10 -6.15 0 -0.25 0.35 -0.40 0.75 -0.40 0.40 0 0.75 0.35 0.75 0.80 0 0.45 1.10 1.95 2.45 3.40 1.35 1.40 3.15 3.30 4 4.20 0.85 0.90 1.55 1.45 1.55 1.25 0.05 -0.20 0.60 0.30 1.25 1.10 0.70 0.85 1.25 1.20 1.25 0.90 0 -0.35 -2.15 -2.75 -4.75 -5.35 -4.95 -4.95 -5.95 -6.70 -4.55 -8.25 0.45 -0.50 0.80 -1.15 0.80 -1.45 0 -0.50 1.50 -1.60 2.20 -1.60 0.15 0 0.30 0.60 0.30 1.30 0 0.85 -0.30 1.40 -1 1.55 -1.05 0.25 -1.50 2.65 -0.50 2.65 0.30 0 0.50 0.40 0.50 0.90 0.05 1 1.65 3.10 2.40 3.10 0.30 0 0.70 0.45 0.85 1 0.20 0.70 0.75 1 1.75 1 1.60 0 2.50 1.15 2.50 3.20 0 0.80 0.30 1.30 0.75 1.30 0.45 0 0.75 -0.45 0.75 -1.25 0 -0.80 0.30 -1.25 0.75 -1.25 1 0 0.95 0.60 -0.25 2.15 -1.10 1.35 -1.25 1.85 -0.60 1.85 0.25 0 0.90 -0.90 1.55 -2 1.90 -3.45 3.05 -1.90 1.30 1.80 -0.90 1.90 -1.20 2.10 -3.15 2.25 -1.55 0.15 -2.35 0 -2.90 -0.65 -0.70 -0.75 -0.65 -0.85 0.40 -1.05 0.90 -0.15 0.75 -0.25 -0.45 -0.30 -0.90 0 -1.65 -0.20 -1.65 -0.40 -0.05 -0.45 -2.50 -2.35 -2.50 -1.90 0 0.15 0.85 1.20 1.90 2.40 1.15 1.20 2.15 3 2.45 4.25 0.55 2.05 0.50 2.10 -0.65 2.10 -0.85 0 -1.20 -0.30 -1.20 -0.95 0 -0.55 -0.15 -1.40 -0.35 -1.90 -0.30 -0.70 -0.45 -0.50 -0.65 0.85 -0.25 1.85 -1.75 2.70 -2.30 1.30z"/>
  <path d="M20.75 38.95 c-0.20 -0.30 -0.20 -0.65 -0.05 -0.80 0.15 -0.20 -0.05 -0.75 -0.55 -1.25 -0.75 -0.85 -0.70 -0.90 1 -0.90 1.50 0 1.85 0.20 1.85 0.95 0 2.15 -1.40 3.40 -2.25 2z"/>
  <path d="M16.60 24.20 c0.15 -1.95 0.15 -1.95 2.45 -2.10 2.25 -0.15 2.35 -0.20 2.70 -1.95 0.30 -1.55 0.10 -2 -1.30 -3.45 -1.50 -1.55 -1.90 -1.70 -4.55 -1.70 -2.55 0 -2.90 -0.10 -2.90 -1 0 -0.80 0.35 -1 1.75 -1 4.65 0 7.55 2.35 8.10 6.50 0.25 1.65 0.10 2.25 -0.85 3.25 -0.65 0.70 -1.05 1.35 -0.90 1.55 0.65 0.65 2.90 -3.20 2.90 -4.95 0 -1 0.25 -2.35 0.55 -3 0.45 -1.05 0.35 -1.50 -0.60 -2.85 -1.45 -1.90 -3.90 -3.50 -5.45 -3.50 -0.80 0 -1 -0.20 -0.80 -0.75 0.20 -0.55 -0.10 -0.75 -1.40 -0.75 -1.60 0 -3.15 1 -2.50 1.65 0.15 0.15 -0.15 0.50 -0.70 0.80 -0.90 0.45 -0.95 0.35 -0.70 -1.95 0.20 -2.15 0.05 -2.55 -1.15 -3.70 -2.05 -1.90 -1.10 -2.20 1 -0.35 0.95 0.85 2.40 1.65 3.15 1.85 0.75 0.15 2.20 0.60 3.25 1 1 0.40 2.35 0.70 2.95 0.70 0.65 0 1.80 0.75 2.75 1.85 0.90 1 1.65 1.60 1.65 1.25 0 -0.30 0.80 -0.50 2.05 -0.45 1.50 0.05 2.25 -0.20 2.75 -0.85 0.65 -0.90 0.70 -0.90 1.20 0.40 0.90 2.35 0.70 2.70 -1.05 1.80 -0.80 -0.45 -1.05 -0.35 -1.50 0.85 -0.30 0.75 -1.10 2.15 -1.80 3.10 -1.55 2 -1.80 4.10 -0.85 6.25 l0.75 1.55 -0.35 -2.15 c-0.40 -2.70 1.35 -6.40 3.15 -6.75 0.75 -0.15 1.15 0.05 1.15 0.45 0 0.40 -0.45 0.70 -1 0.70 -0.65 0 -1.25 0.60 -1.75 1.80 -0.40 1 -0.75 1.90 -0.75 2 0 0.55 2.30 0.10 3.10 -0.65 0.85 -0.75 0.90 -0.75 0.90 0.55 0 1.20 -0.15 1.35 -1.35 1.20 -1.25 -0.15 -1.45 0.05 -1.90 1.85 -0.45 1.85 -0.65 2 -2.35 2.15 -1.10 0.10 -1.90 -0.05 -1.90 -0.35 0 -0.30 0.35 -0.55 0.80 -0.55 0.50 0 0.70 -0.35 0.60 -1 -0.25 -1.55 -1.10 -1.30 -1.60 0.45 -0.30 1.10 -0.75 1.55 -1.50 1.55 -0.60 0 -2.25 0.15 -3.70 0.35 l-2.65 0.30 0.15 -1.95z m10.90 -10.45 c0 -0.40 -0.20 -0.75 -0.50 -0.75 -0.25 0 -0.50 0.35 -0.50 0.75 0 0.40 0.25 0.75 0.50 0.75 0.30 0 0.50 -0.35 0.50 -0.75z"/>
  <path d="M14.50 19.25 c0 -1.45 0.10 -1.50 2 -0.50 2 1.05 1.90 1.75 -0.25 1.75 -1.55 0 -1.75 -0.15 -1.75 -1.25z"/>
  <path d="M6.40 19.65 c0.30 -0.10 0.60 -0.55 0.60 -0.95 0 -0.40 0.35 -0.70 0.75 -0.70 0.65 0 0.70 0.20 0.25 1 -0.30 0.55 -0.90 1 -1.40 0.95 -0.50 0 -0.60 -0.15 -0.20 -0.30z"/>
  <path d="M8.50 16.65 c0 -0.60 0.25 -1.25 0.55 -1.40 0.85 -0.55 0.90 -0.10 0.20 1.25 -0.70 1.20 -0.70 1.20 -0.75 0.15z"/>
  <path d="M11.05 8.60 c-0.05 -1.85 -0.25 -2.20 -1.40 -2.65 -0.85 -0.35 -1.15 -0.65 -0.75 -0.80 0.75 -0.30 2.45 1.10 2.85 2.35 0.15 0.45 0.05 1.40 -0.20 2.05 -0.45 1.05 -0.50 0.95 -0.50 -0.95z"/>
  <path d="M28.15 9.65 c1 -0.10 1.85 -0.40 1.85 -0.70 0 -0.25 0.25 -0.45 0.55 -0.45 0.40 0 0.40 0.25 -0.05 0.75 -0.35 0.45 -1.35 0.70 -2.45 0.65 l-1.80 -0.05 1.90 -0.20z"/>
  <path d="M24.30 8.75 c-0.95 -0.75 -0.95 -0.75 0.10 -0.75 0.65 0 1.10 0.30 1.10 0.75 0 0.90 0 0.90 -1.20 0z"/>
  <path d="M13.80 5.25 c-0.95 -0.75 -0.95 -0.75 0.05 -0.75 1.40 0 2.65 0.50 2.65 1.05 0 0.70 -1.65 0.50 -2.70 -0.30z"/>
 </g>
 <g fill="#c4ae86">
  <path d="M12.30 39.20 c-0.45 -1.15 -0.40 -1.35 0.45 -1 0.45 0.15 0.75 0 0.75 -0.45 0 -0.40 0.35 -0.75 0.75 -0.75 0.50 0 0.75 0.50 0.75 1.50 0 1.25 -0.20 1.50 -1.20 1.50 -0.65 0 -1.35 -0.35 -1.50 -0.80z"/>
  <path d="M24.25 39 c-0.55 -0.20 -1.60 -0.25 -2.35 -0.15 -0.85 0.15 -1.40 0.05 -1.40 -0.30 0 -0.30 0.30 -0.55 0.65 -0.55 0.30 0 0 -0.40 -0.75 -0.90 -0.80 -0.45 -1.40 -1.10 -1.40 -1.45 0 -0.35 -0.45 -0.65 -0.95 -0.65 -0.55 0 -1.90 -1.10 -3.15 -2.60 -1.20 -1.40 -3.05 -3.50 -4.20 -4.60 -1.75 -1.70 -4.20 -5.55 -4.20 -6.55 0 -0.90 1.15 0.05 2 1.70 0.55 1.10 1.80 2.60 2.75 3.35 0.95 0.70 1.75 1.55 1.75 1.80 0 0.55 2.55 2.85 3.15 2.90 0.25 0 0.90 0.50 1.45 1.15 0.75 0.85 0.90 0.90 0.70 0.25 -0.15 -0.60 0 -0.90 0.45 -0.90 0.40 0 0.75 -0.45 0.75 -1 0 -0.75 0.35 -1 1.25 -1 1.50 0 1.55 0.45 0.25 2.15 -0.55 0.70 -1 1.55 -1 1.95 0 0.70 1.75 -1.20 2.55 -2.85 0.35 -0.70 0.40 -0.15 0.20 1.90 -0.25 2.80 -0.20 2.90 0.85 2.75 1.15 -0.15 3.40 -3 3.40 -4.30 0 -0.50 -0.40 -0.65 -1.25 -0.50 -1.05 0.20 -1.25 0.05 -1.25 -0.90 0 -0.95 0.25 -1.20 1.25 -1.20 0.70 0 1.25 -0.20 1.25 -0.50 0 -0.25 0.45 -0.50 1 -0.50 0.55 0 1 0.35 1 0.75 0 1 -3 7.80 -3.90 8.90 -0.65 0.75 -0.65 0.85 0.05 0.85 0.50 0 0.85 0.35 0.85 0.75 0 0.85 -0.30 0.85 -1.75 0.25z"/>
  <path d="M13.25 34.45 c-0.45 -2.05 0 -2.35 1.50 -0.95 1 0.95 1.10 1.25 0.50 1.80 -1.05 1.10 -1.65 0.85 -2 -0.85z"/>
  <path d="M17 30 c0 -0.30 -0.40 -0.70 -0.85 -0.85 -1.35 -0.50 -6.60 -5.95 -7.15 -7.40 -0.40 -1.05 -0.30 -1.65 0.35 -2.80 1.15 -1.90 1.65 -1.85 1.65 0.30 0 0.95 -0.20 1.75 -0.50 1.75 -0.25 0 -0.50 0.25 -0.50 0.50 0 0.30 0.45 0.50 1 0.50 0.55 0 1 0.30 1 0.70 0 0.35 0.45 0.80 0.95 0.95 0.55 0.10 1.05 0.75 1.15 1.40 0.25 1.80 1.40 1.80 1.40 0 0 -1.10 0.25 -1.55 0.80 -1.55 0.40 0 1.10 -0.35 1.55 -0.80 0.70 -0.70 0.70 -0.80 -0.30 -1.05 -0.70 -0.20 -1.05 -0.65 -1.05 -1.50 0 -1 0.20 -1.20 0.90 -0.90 0.45 0.20 1.25 0.45 1.70 0.60 0.50 0.15 1 0.70 1.15 1.20 0.40 1.30 1.15 1.20 1.35 -0.15 0.10 -0.60 0.45 -1.15 0.80 -1.30 0.95 -0.30 0.70 1.65 -0.45 3.10 -1.05 1.35 -1.15 2.05 -0.15 1.40 1.15 -0.80 2.20 -2.90 2.20 -4.50 0 -1 0.30 -1.75 0.75 -1.95 1.10 -0.40 1.20 -0.15 1.50 2.90 0.10 1.55 0 2.40 -0.20 2 -0.55 -0.90 -1.55 -0.25 -1.55 1 0 1 1.20 1.30 1.75 0.45 0.20 -0.30 0.55 -0.35 0.85 -0.20 0.40 0.25 0.45 -0.35 0.25 -2 -0.30 -1.95 -0.15 -2.65 0.90 -4.30 0.80 -1.25 1.65 -2 2.30 -2 0.55 0 0.85 0.20 0.70 0.50 -0.15 0.30 -0.60 0.50 -1 0.50 -0.60 0 -2.25 2.60 -2.25 3.60 0 0.70 2.40 0.45 3.20 -0.40 0.75 -0.70 0.80 -0.65 0.80 0.75 0 1.40 -0.15 1.55 -1.50 1.55 -1.40 0 -1.50 0.10 -1.50 1.95 0 1.75 -0.15 1.95 -1.60 2.25 -0.85 0.15 -3 0.15 -4.75 0 -2.20 -0.25 -3.15 -0.15 -3.15 0.25 0 0.30 -0.60 0.55 -1.30 0.55 -1.25 0 -1.30 0.10 -1.05 1.75 0.15 0.95 0.20 1.75 0.05 1.75 -0.10 0 -0.20 -0.25 -0.20 -0.50z"/>
  <path d="M7.50 18.65 c0 -0.65 0.25 -1.15 0.50 -1.15 0.65 0 0.65 0.55 0 1.50 -0.40 0.60 -0.50 0.55 -0.50 -0.35z"/>
  <path d="M21.75 18 c-0.45 -1.45 -3.35 -3 -5.70 -3 -1.70 0 -2.05 0.15 -2.05 1 0 0.80 -0.35 1 -1.55 1 -1.55 0 -1.60 -1 -0.05 -1 0.80 -0.05 0.80 -0.05 0 -0.55 -0.50 -0.25 -0.90 -0.95 -0.90 -1.50 0 -0.90 0.25 -0.95 2.90 -0.75 4.25 0.35 6.10 0.85 6.10 1.60 0 0.35 0.30 0.85 0.70 1.05 0.40 0.20 0.90 1 1.05 1.80 0.40 1.55 0 1.85 -0.50 0.35z"/>
  <path d="M25 17.05 c-0.85 -0.25 -1.05 -0.45 -0.60 -0.75 1.20 -0.70 0.55 -2.25 -1.75 -4.20 -1.25 -1.10 -2.95 -2.15 -3.75 -2.30 -0.80 -0.15 -1.35 -0.50 -1.20 -0.75 0.35 -0.55 -1.10 -1.15 -1.75 -0.75 -0.25 0.15 -0.45 -0.10 -0.45 -0.55 0 -0.70 0.40 -0.75 2.40 -0.45 3.25 0.45 4.70 1.05 5.85 2.45 1.45 1.70 5.35 2.15 6.70 0.80 0.95 -0.95 0.95 -0.95 1.55 0.50 0.75 1.75 0.35 2.40 -0.80 1.40 -0.70 -0.55 -0.90 -0.55 -1.50 0.30 -0.40 0.50 -0.70 1.15 -0.70 1.35 0 0.55 -2.10 3.40 -2.45 3.35 -0.15 -0.05 -0.85 -0.20 -1.55 -0.40z"/>
  <path d="M27.90 9.65 c0.95 -0.15 1.60 -0.50 1.60 -0.95 0 -0.40 0.45 -0.70 1.10 -0.70 1 0 1.05 0.05 0.15 1 -0.60 0.70 -1.45 1 -2.70 0.90 l-1.80 -0.05 1.65 -0.20z"/>
  <path d="M17 6.25 c-1.30 -0.50 -1.45 -0.70 -0.70 -0.70 2 -0.10 5.70 0.60 5.70 1 0 0.65 -3 0.45 -5 -0.30z"/>
 </g>
 <g fill="#a6afae">
  <path d="M5.50 39.50 c0 -0.25 -0.60 -0.80 -1.35 -1.20 l-1.40 -0.70 1.40 -0.55 c1.75 -0.70 2.85 -0.70 2.85 -0.05 0 0.30 0.25 0.50 0.50 0.50 0.30 0 0.50 -0.35 0.50 -0.75 0 -0.95 0.50 -0.95 1.90 0.05 1.30 0.90 1.40 1.50 0.40 2.50 -0.80 0.80 -4.80 0.95 -4.80 0.20z"/>
  <path d="M20.80 39.15 c-0.20 -0.45 -0.05 -1 0.25 -1.20 0.40 -0.20 0.30 -0.50 -0.35 -0.90 -0.80 -0.40 -0.55 -0.50 1.40 -0.55 2.25 0 3.55 0.65 2.30 1.15 -0.35 0.15 0.25 0.30 1.35 0.35 1.10 0.05 1.70 0.20 1.40 0.35 -0.35 0.10 -0.65 0.55 -0.65 0.95 0 0.75 -1.30 1 -1.60 0.25 -0.05 -0.20 -0.65 -0.60 -1.25 -0.75 -0.85 -0.30 -1.15 -0.15 -1.15 0.40 0 1.05 -1.30 1 -1.70 -0.05z"/>
  <path d="M4.25 19.85 c-0.40 -0.60 -0.75 -1.55 -0.75 -2.10 0.05 -1 0.05 -1 0.60 0 0.80 1.40 1.55 1.80 2.15 1.20 0.35 -0.35 0.20 -0.65 -0.35 -1 -0.95 -0.55 -0.95 -3.10 0 -5.45 0.50 -1.20 0.55 -1.20 0.55 -0.15 0.10 2.55 1.75 1.60 2.15 -1.20 0.15 -1.15 0 -1.65 -0.45 -1.65 -0.80 0 -0.80 -0.25 -0.15 -1.55 1.05 -1.95 1.60 -1 1.40 2.30 -0.15 2.70 -0.45 3.50 -1.55 4.65 -1.75 1.85 -1.10 2.55 0.75 0.75 0.75 -0.75 1.40 -1.15 1.40 -0.85 -0.10 1.25 -2.45 4.80 -3.65 5.45 -1.25 0.65 -1.40 0.60 -2.10 -0.40z"/>
  <path d="M8.50 20.75 c0 -0.40 2.50 -4.25 2.75 -4.25 0.15 0 -0.25 1 -0.85 2.25 -0.95 1.90 -1.90 2.90 -1.90 2z"/>
  <path d="M4 12.80 c0 -1.60 2 -5.70 3.40 -6.95 1.30 -1.20 2.50 -0.95 3.70 0.70 0.95 1.30 0.95 1.35 -0.05 4.50 -0.95 2.85 -1 2.95 -0.70 0.95 0.45 -2.90 0.40 -5.40 0 -5.85 -0.20 -0.20 -0.95 -0.10 -1.70 0.15 -1.05 0.35 -1.65 1.20 -2.65 3.80 -1.45 3.85 -2 4.60 -2 2.70z"/>
  <path d="M12 11.30 c0 -0.15 0.25 -0.80 0.55 -1.50 0.70 -1.50 -0.10 -3.95 -1.75 -5.05 -0.60 -0.45 -0.75 -0.75 -0.35 -0.75 0.35 0 1.40 0.65 2.30 1.40 1.20 1.10 2.50 1.60 5.35 2.05 3.75 0.60 6 1.60 5.25 2.35 -0.20 0.25 -0.90 0.10 -1.50 -0.30 -0.60 -0.35 -2 -0.85 -3.10 -1.05 -1.10 -0.20 -2.75 -0.50 -3.60 -0.70 -1.55 -0.35 -1.65 -0.30 -1.65 0.95 0 0.75 -0.35 1.70 -0.75 2.10 -0.40 0.45 -0.75 0.65 -0.75 0.50z"/>
  <path d="M30.50 10.75 c0.35 -0.40 0.80 -0.60 1.05 -0.45 0.65 0.40 0.05 1.20 -0.90 1.20 -0.65 0 -0.65 -0.15 -0.15 -0.75z"/>
  <path d="M25.40 9.30 c-0.75 -0.40 -1.90 -1.10 -2.50 -1.50 -0.60 -0.45 -1.55 -0.80 -2.10 -0.80 -2.35 0 -6.50 -1.35 -7.95 -2.55 -1.60 -1.35 -1.60 -1.35 -0.65 -2.40 1.20 -1.35 1.70 -1.35 1.90 0 0.20 1.55 2.20 2.80 5.90 3.75 1.80 0.45 3.70 1.15 4.25 1.50 1.25 0.90 6.55 0.95 6.90 0.10 0.20 -0.45 0.30 -0.35 0.30 0.15 0.10 2.15 -3.40 3.15 -6.05 1.75z"/>
  <path d="M24.25 6.35 c-0.55 -0.40 -2.60 -1.20 -4.60 -1.80 -2.30 -0.65 -3.90 -1.45 -4.40 -2.15 -1.45 -2.10 -1.05 -2.40 3.45 -2.40 2.30 0 4.30 0.15 4.40 0.40 0.10 0.20 1.05 0.80 2.15 1.35 1.70 0.85 2 1.25 2.15 2.85 0.15 1.55 0.35 1.85 1.50 2.05 0.75 0.10 0.20 0.25 -1.15 0.30 -1.45 0 -2.95 -0.25 -3.50 -0.60z m-4.75 -3.65 c0 -0.10 -0.75 -0.20 -1.60 -0.15 -1.35 0 -1.45 0.10 -0.65 0.40 0.90 0.40 2.25 0.20 2.25 -0.25z"/>
 </g>
 <g fill="#daba88">
  <path d="M15.50 38.50 c0 -1 0.25 -1.50 0.75 -1.50 0.40 0 0.75 0.15 0.75 0.40 0 0.20 0.15 0.85 0.30 1.50 0.25 0.90 0.10 1.10 -0.75 1.10 -0.85 0 -1.05 -0.30 -1.05 -1.50z"/>
  <path d="M23.40 38.40 c-1.05 -0.30 -1.90 -0.80 -1.90 -1.15 0 -1.50 0.55 -2.05 1.90 -1.85 1.10 0.15 1.55 -0.10 2.10 -1.10 0.35 -0.70 0.85 -1.30 1.05 -1.30 0.60 0 -0.90 3.65 -1.85 4.35 -0.80 0.60 -0.80 0.65 0.45 0.65 0.75 0 1.35 0.25 1.35 0.50 0 0.60 -0.60 0.55 -3.10 -0.10z"/>
  <path d="M22.35 32.40 c-0.10 -0.35 0 -1.20 0.25 -1.85 0.65 -1.80 0.10 -1.85 -0.90 -0.10 -1.20 2 -1.70 1.95 -1.70 -0.20 0 -1.50 -0.20 -1.75 -1.10 -1.75 -1.45 -0.05 -2.90 -1.10 -2.90 -2.15 0 -0.45 -0.20 -0.95 -0.50 -1.10 -0.25 -0.15 -0.50 -0.80 -0.50 -1.40 0 -0.60 -0.65 -1.65 -1.45 -2.35 -1.75 -1.55 -2.65 -5.50 -1.25 -5.50 0.80 0 0.80 -0.05 0.05 -0.90 -0.75 -0.80 -1.15 -2.10 -0.65 -2.10 0.05 0 0.85 0.25 1.75 0.55 1.60 0.55 1.95 1.35 1 2.30 -0.95 0.95 -0.25 1.85 2.35 3.15 1.35 0.65 2.80 1.65 3.25 2.15 0.85 1.05 1.95 0.80 1.95 -0.45 0 -0.40 0.25 -0.70 0.50 -0.70 0.80 0 0.60 1 -0.55 2.60 -1.25 1.70 -0.80 2.65 0.50 1.05 l0.90 -1.05 0.85 1.10 c0.60 0.85 1.20 1.10 2.05 0.90 0.75 -0.10 1.25 0 1.25 0.35 0 0.30 0.35 0.55 0.75 0.55 0.50 0 0.75 0.50 0.75 1.70 0 0.90 -0.35 1.95 -0.75 2.30 -0.40 0.35 -0.75 1.10 -0.80 1.70 0 1 -0.05 1 -0.45 -0.10 -0.40 -0.95 -0.65 -1.05 -1.50 -0.60 -0.55 0.30 -1.30 1 -1.65 1.50 -0.70 1.15 -1.15 1.25 -1.50 0.40z"/>
  <path d="M13.50 30.95 c-0.90 -1.60 -0.35 -2.10 1 -0.85 0.70 0.65 1.40 1.10 1.60 1.05 0.25 -0.10 0.40 0.10 0.40 0.35 0 0.95 -2.45 0.50 -3 -0.55z"/>
  <path d="M24 18.65 c0 -1 0.35 -2.20 0.75 -2.65 0.70 -0.75 0.60 -1 -0.60 -2.60 -0.80 -1 -2 -2.20 -2.75 -2.65 -1.45 -0.85 -1.90 -2.75 -0.70 -2.75 1.35 0 2.40 0.65 2.80 1.80 0.35 0.90 0.95 1.20 3.25 1.45 2 0.25 3 0.20 3.55 -0.30 0.70 -0.55 0.90 -0.50 1.50 0.25 0.75 1.10 0.40 2.20 -0.45 1.35 -0.90 -0.90 -1.20 -0.65 -2.80 2.20 -0.85 1.50 -1.80 2.75 -2.05 2.75 -0.30 0 -0.50 0.70 -0.50 1.50 0 1.15 -0.20 1.50 -1 1.50 -0.80 0 -1 -0.35 -1 -1.85z m1.75 -6.05 c-0.75 -0.80 -0.80 -0.75 -0.20 0.60 0.35 0.75 0.75 1.15 0.85 0.80 0.15 -0.35 -0.15 -0.95 -0.65 -1.40z"/>
  <path d="M28 18.50 c0 -1.20 1.45 -3 2.40 -2.95 0.60 0 0.65 0.10 0.20 0.30 -0.40 0.15 -1.10 0.95 -1.65 1.85 -0.50 0.85 -0.95 1.20 -0.95 0.80z"/>
  <path d="M18.65 15.35 c-2.25 -0.65 -2.25 -2.05 0 -1.60 1.90 0.45 2 0.50 1.75 1.35 -0.10 0.55 -0.50 0.60 -1.75 0.25z"/>
  <path d="M13.50 7.90 c0 -1.05 0.20 -1.45 0.70 -1.25 0.35 0.15 1.70 0.45 3 0.60 1.80 0.30 2.30 0.55 2.30 1.30 0 0.65 -0.35 0.95 -1.05 0.95 -0.55 0 -0.90 -0.20 -0.75 -0.45 0.55 -0.85 -1.30 -1.05 -2.75 -0.35 -1.45 0.70 -1.45 0.70 -1.45 -0.80z"/>
  <path d="M23.90 8.20 c-0.45 -0.45 -1.55 -1 -2.45 -1.20 l-1.70 -0.40 1.55 -0.05 c1.50 -0.05 4.25 1.55 3.65 2.15 -0.15 0.15 -0.60 -0.10 -1.05 -0.50z"/>
 </g>
 <g fill="#97c2c5">
  <path d="M6.50 39.60 c0 -0.25 -0.55 -0.70 -1.25 -1 -1.70 -0.80 -1.55 -1.45 0.40 -1.85 0.85 -0.20 1.95 -0.40 2.40 -0.55 0.80 -0.20 2.95 1.45 2.95 2.30 0 0.30 -0.35 0.50 -0.75 0.50 -0.40 0 -0.75 0.25 -0.75 0.50 0 0.30 -0.65 0.50 -1.50 0.50 -0.80 0 -1.50 -0.20 -1.50 -0.40z"/>
  <path d="M5.40 15.75 c-0.30 -1.50 1.70 -6.55 3.15 -7.95 l1.05 -1.05 -0.20 3.45 c-0.20 3 -0.40 3.60 -1.55 4.60 -0.75 0.65 -1.35 1.40 -1.35 1.70 0 1.05 -0.90 0.45 -1.10 -0.75z"/>
  <path d="M4 12.80 c0 -0.90 1.90 -5.20 2.50 -5.55 0.55 -0.35 -0.35 3 -1.30 4.90 -0.80 1.50 -1.20 1.70 -1.20 0.65z"/>
  <path d="M10.05 13 c0.05 -0.40 0.25 -1.30 0.45 -2 l0.40 -1.25 0.05 1.25 c0 0.70 -0.20 1.60 -0.45 2 -0.45 0.65 -0.50 0.65 -0.45 0z"/>
  <path d="M23.70 8 c-0.30 -0.30 -1.50 -0.80 -2.75 -1.20 -1.45 -0.45 -1.80 -0.70 -1.05 -0.75 0.60 -0.05 1.95 0.35 3 0.80 1 0.45 2.30 1 2.85 1.20 0.90 0.30 0.85 0.35 -0.25 0.40 -0.75 0.05 -1.55 -0.20 -1.80 -0.45z"/>
  <path d="M30 8.15 c0.40 -0.15 0.90 -0.55 1.10 -0.85 0.25 -0.35 0.40 -0.20 0.40 0.35 0 0.55 -0.35 0.85 -1.10 0.80 -0.80 0 -0.90 -0.10 -0.40 -0.30z"/>
  <path d="M24.20 6.25 c-0.60 -0.40 -2.40 -1.10 -4.10 -1.55 -2.45 -0.70 -3.10 -1.05 -3.35 -2.10 -0.15 -0.65 -0.25 -1.25 -0.15 -1.30 0.10 0 0.65 -0.35 1.25 -0.65 1.35 -0.80 3.45 -0.85 3.90 -0.15 0.15 0.25 0.70 0.50 1.20 0.50 2.40 0 8.05 4.30 7.30 5.50 -0.45 0.70 -2.60 0.60 -2.90 -0.10 -0.20 -0.50 -0.30 -0.50 -0.30 0 -0.05 0.80 -1.60 0.75 -2.85 -0.15z"/>
 </g>
 <g fill="#d4c39e">
  <path d="M12.30 39.20 c-0.45 -1.10 0.15 -1.60 0.70 -0.70 0.35 0.55 0.50 0.40 0.50 -0.65 0 -0.80 0.20 -1.30 0.50 -1.10 0.30 0.15 0.50 0.95 0.50 1.80 0 1.10 -0.25 1.45 -0.95 1.45 -0.50 0 -1.10 -0.35 -1.25 -0.80z"/>
  <path d="M20.75 37.20 c-2.80 -1.45 -6.40 -4.75 -7.55 -6.80 -0.90 -1.75 -0.25 -1.80 1.25 -0.20 0.65 0.70 1.40 1.15 1.75 1 0.30 -0.10 0.95 0.40 1.40 1.15 0.50 0.80 0.85 1.05 0.85 0.65 0 -0.40 -0.30 -1.20 -0.70 -1.70 -1.05 -1.40 -0.95 -1.80 0.50 -1.80 0.80 0 1.25 0.30 1.25 0.75 0 0.40 0.20 0.75 0.50 0.75 0.25 0 0.35 1.05 0.20 2.50 l-0.25 2.50 1.95 0 c1 0 2.40 -0.35 3 -0.80 1.05 -0.70 1.10 -0.70 1.10 0.25 0 1.15 -0.80 1.80 -1.25 1.05 -0.25 -0.35 -0.60 -0.25 -1 0.35 -0.60 0.75 -0.55 0.95 0.15 1.25 0.70 0.25 0.70 0.35 0.10 0.35 -0.40 0.05 -1.90 -0.55 -3.25 -1.25z"/>
  <path d="M14.70 36.75 c-0.15 -0.70 -0.50 -1.25 -0.70 -1.25 -0.20 0 -0.55 -0.60 -0.70 -1.35 -0.20 -0.80 -0.50 -1.85 -0.65 -2.35 -0.15 -0.55 0.75 0.20 2.05 1.65 2.45 2.75 3 4.55 1.30 4.55 -0.65 0 -1.10 -0.45 -1.30 -1.25z"/>
  <path d="M21.50 33.35 c0 -0.65 0.20 -1.35 0.45 -1.60 0.25 -0.30 0.60 -1.05 0.75 -1.75 l0.35 -1.25 -1 1.20 -1.05 1.15 0 -1.30 c0 -1.15 0.20 -1.30 1.75 -1.30 1.60 0 1.70 0.10 1.50 1.50 -0.20 1.60 -1.70 4.50 -2.35 4.50 -0.20 0 -0.40 -0.50 -0.40 -1.15z"/>
  <path d="M26.25 33.15 c0.20 -0.50 0.50 -1.30 0.60 -1.75 0.15 -0.50 0.45 -0.90 0.70 -0.90 0.60 0 0.55 0.30 -0.30 2 -0.85 1.60 -1.60 2.05 -1 0.65z"/>
  <path d="M12.60 25.95 c-4.20 -4.05 -4.50 -4.95 -2.70 -7.60 1.55 -2.35 3.25 -2.95 4.05 -1.50 0.25 0.55 1.50 1.50 2.75 2.15 1.25 0.65 2.30 1.35 2.30 1.60 0 0.70 -1.85 0.45 -2.55 -0.40 -0.70 -0.85 -3.10 -2.20 -3.95 -2.20 -0.25 0 -0.50 0.35 -0.50 0.75 0 0.40 -0.35 0.75 -0.80 0.75 -0.55 0 -0.70 0.25 -0.50 0.80 0.15 0.45 0.30 1.05 0.30 1.45 0 0.35 0.45 0.75 1 0.90 0.55 0.15 1 0.60 1 1.05 0 0.45 0.40 0.80 0.95 0.80 1.35 0 2.15 1.20 1.95 2.95 l-0.15 1.55 -3.15 -3.05z"/>
  <path d="M28 26.25 c0 -1.20 0.25 -1.75 0.75 -1.75 0.40 0 0.75 -0.45 0.75 -0.95 0 -1.65 0.55 -2.55 1.55 -2.55 0.55 0 0.95 0.35 0.95 0.80 0 0.95 -3.05 6.20 -3.60 6.20 -0.25 0 -0.40 -0.80 -0.40 -1.75z"/>
  <path d="M9.70 26.60 c-0.95 -0.75 -3.20 -4.50 -3.20 -5.35 0 -0.85 1.10 -0.05 1.55 1.15 0.30 0.75 1.10 1.95 1.80 2.70 1.50 1.60 1.40 2.75 -0.15 1.50z"/>
  <path d="M25.25 26.15 c-1.40 -0.35 -2.25 -1.15 -2.25 -2.10 0 -2.65 2.55 -4.75 3.15 -2.60 0.15 0.70 0.05 0.90 -0.45 0.70 -0.80 -0.30 -1.45 1 -1 2.15 0.25 0.65 0.45 0.70 1.05 0.20 0.90 -0.75 1.75 -0.25 1.75 1.05 0 0.95 -0.35 1.05 -2.25 0.60z"/>
  <path d="M19.35 25.10 c0.40 -0.25 0.45 -0.65 0.15 -1.10 -0.75 -1.15 -0.60 -1.50 0.65 -1.50 1 0 1.15 0.20 0.95 1.50 -0.15 1.15 -0.45 1.50 -1.30 1.50 -0.65 0 -0.85 -0.15 -0.45 -0.40z"/>
  <path d="M27.65 22.25 c0 -1.10 0.10 -1.50 0.20 -0.85 0.10 0.60 0.10 1.50 0 2 -0.15 0.45 -0.25 -0.05 -0.20 -1.15z"/>
  <path d="M25.50 16.50 c-0.90 -0.20 -1.05 -0.40 -0.60 -0.70 0.55 -0.30 0.50 -0.65 -0.15 -1.60 -0.70 -1.10 -0.70 -1.20 0 -1.20 0.45 0 0.90 0.60 1.05 1.50 0.20 0.80 0.50 1.35 0.75 1.25 0.20 -0.15 0.50 -0.05 0.65 0.20 0.45 0.70 -0.25 0.95 -1.70 0.55z"/>
  <path d="M19.50 15.50 c-0.40 -0.25 -1.25 -0.50 -1.85 -0.50 -0.70 0 -1.15 -0.30 -1.15 -0.80 0 -0.65 0.35 -0.75 1.90 -0.45 2.20 0.40 2.25 0.45 2 1.45 -0.10 0.55 -0.35 0.65 -0.90 0.30z"/>
  <path d="M28 12.50 c0 -0.65 0.35 -1 0.95 -1 0.50 0 1.20 -0.35 1.55 -0.75 0.75 -0.90 1.30 -0.65 1.65 0.75 0.25 0.95 0.10 1.05 -1.20 0.75 -1.10 -0.25 -1.45 -0.15 -1.45 0.45 0 0.45 -0.35 0.80 -0.75 0.80 -0.40 0 -0.75 -0.45 -0.75 -1z"/>
  <path d="M10.80 10.15 c0.30 -2.85 -0.45 -4.90 -1.60 -4.45 -0.40 0.15 -0.70 0.05 -0.70 -0.20 0 -0.80 1.30 -0.55 2.15 0.40 0.90 1 1.05 3.50 0.30 5.60 -0.30 0.85 -0.35 0.45 -0.15 -1.35z"/>
  <path d="M21 10.75 c-0.95 -0.70 -2.10 -1.25 -2.60 -1.25 -0.55 0 -0.75 -0.25 -0.60 -0.75 0.25 -0.55 -0.05 -0.75 -1.20 -0.75 -1.20 0 -1.85 0.40 -2.90 1.75 -1.50 2 -2.05 2.05 -1.15 0.10 0.70 -1.55 -0.10 -3.95 -1.65 -5.05 -0.55 -0.40 -0.75 -0.85 -0.50 -1 0.25 -0.15 1.30 0.60 2.30 1.70 1 1.15 2.05 1.90 2.30 1.75 0.65 -0.40 6.50 0.80 6.50 1.30 0 0.25 0.35 0.45 0.75 0.45 0.50 0 0.75 0.50 0.75 1.50 0 0.85 -0.05 1.50 -0.10 1.50 -0.10 -0.05 -0.95 -0.60 -1.90 -1.25z"/>
  <path d="M16.25 6 c-1.50 -0.40 -1.50 -0.40 0.40 -0.45 1 0 1.85 0.20 1.85 0.45 0 0.55 -0.10 0.55 -2.25 0z"/>
  <path d="M12.55 4.05 c-0.70 -0.55 -1.05 -1.15 -0.85 -1.50 0.50 -0.75 1.60 0.05 1.95 1.45 0.15 0.55 0.20 1 0.20 1 -0.05 0 -0.65 -0.45 -1.30 -0.95z"/>
 </g>
 <g fill="#bcc5c4">
  <path d="M6.75 39.45 c0.15 -0.15 -0.15 -0.65 -0.60 -1 -0.60 -0.50 -0.75 -0.50 -0.45 -0.05 0.30 0.50 0.10 0.50 -0.90 0 -1.40 -0.60 -1.75 -1.40 -0.60 -1.40 0.40 0 1.10 -0.15 1.60 -0.35 0.60 -0.25 0.75 -0.15 0.45 0.30 -0.30 0.50 -0.15 0.55 0.70 0.10 0.95 -0.55 1.05 -0.45 1.05 1.10 0 1.15 -0.25 1.70 -0.75 1.70 -0.40 0 -0.60 -0.20 -0.50 -0.40z"/>
  <path d="M25.35 39.30 c-0.15 -0.40 -0.80 -0.80 -1.45 -0.95 -0.65 -0.10 -0.15 -0.25 1.05 -0.30 2 -0.05 2.10 0 1.50 0.85 -0.35 0.45 -0.70 0.90 -0.75 1 -0.05 0.10 -0.20 -0.20 -0.35 -0.60z"/>
  <path d="M21.25 37 c0.15 -0.25 0.85 -0.50 1.55 -0.50 0.70 0 1.10 0.20 0.95 0.50 -0.15 0.30 -0.85 0.50 -1.55 0.50 -0.70 0 -1.10 -0.20 -0.95 -0.50z"/>
  <path d="M4.20 19.25 c-1.10 -1.65 -0.75 -1.85 0.65 -0.40 0.60 0.60 0.90 1.25 0.65 1.40 -0.25 0.15 -0.85 -0.30 -1.30 -1z"/>
  <path d="M9.30 19.25 c0.45 -0.70 0.90 -1.25 1 -1.25 0.10 0 -0.10 0.55 -0.40 1.25 -0.30 0.70 -0.75 1.25 -1 1.25 -0.25 0 -0.05 -0.55 0.40 -1.25z"/>
  <path d="M6.80 18.75 c0.20 -0.45 0 -0.75 -0.50 -0.75 -0.50 0 -0.80 -0.45 -0.80 -1.25 0 -0.70 0.25 -1.25 0.50 -1.25 0.30 0 0.50 0.35 0.50 0.75 0 1 0.95 0.95 2.15 -0.10 0.90 -0.85 0.90 -0.75 -0.10 1.25 -1 1.95 -2.40 3.05 -1.75 1.35z"/>
  <path d="M5.55 14.50 c-0.05 -1.25 1.90 -5.10 2.40 -4.80 0.25 0.15 0.35 -0.10 0.20 -0.60 -0.10 -0.50 0.15 -1.20 0.55 -1.55 0.70 -0.60 0.80 -0.40 0.75 1.50 -0.05 1.20 -0.25 2.75 -0.45 3.45 l-0.40 1.25 -0.05 -1.35 c-0.05 -1.75 -1.55 -1.95 -1.55 -0.25 0 0.65 -0.35 1.60 -0.75 2.15 -0.55 0.70 -0.70 0.75 -0.70 0.20z"/>
  <path d="M4 12.90 c0 -1.10 1.80 -5 3 -6.55 1.25 -1.60 2.50 -1.70 3.75 -0.35 0.70 0.80 0.85 1.50 0.60 3.50 -0.15 1.40 -0.55 2.90 -0.85 3.40 -0.50 0.70 -0.50 0.65 -0.30 -0.40 0.80 -3.45 0.85 -5.30 0.15 -6.25 l-0.75 -1 -1.35 1 c-0.80 0.60 -1.75 2.15 -2.30 3.70 -1 2.90 -1.95 4.35 -1.95 2.95z"/>
  <path d="M22.40 9.70 c-0.80 -0.80 -9.15 -2.80 -9.65 -2.30 -0.15 0.15 -0.25 -0.05 -0.25 -0.40 0 -0.40 -0.50 -1.25 -1.10 -1.95 -1 -1.05 -0.85 -1 1.10 0.35 1.50 1.05 3.25 1.70 5.30 2.05 3.20 0.50 5 1.30 5.40 2.40 0.35 0.85 0.20 0.80 -0.80 -0.15z"/>
  <path d="M26.50 9.65 c-0.40 -0.15 -1.55 -0.75 -2.50 -1.40 -0.95 -0.65 -3.30 -1.40 -5.25 -1.75 -3.20 -0.55 -7.25 -2.50 -7.25 -3.50 0 -0.20 0.35 -0.65 0.80 -1.05 0.65 -0.50 0.85 -0.50 1.25 0.10 0.25 0.40 0.45 0.85 0.45 1 0 0.70 2.65 2 5.60 2.75 1.75 0.45 3.70 1.15 4.40 1.60 1.65 1.05 6.35 1.15 7 0.10 0.35 -0.55 0.50 -0.60 0.50 -0.10 0 1.65 -2.95 3 -5 2.25z"/>
  <path d="M24.50 6.30 c-1.20 -0.75 -1.20 -0.75 -0.15 -0.80 0.60 0 1.25 0.25 1.40 0.50 0.15 0.30 0.85 0.50 1.55 0.50 0.95 0 1.20 -0.25 1.20 -1.25 l0 -1.25 1.05 1.05 c0.55 0.55 0.90 1.15 0.75 1.30 -0.65 0.65 -4.65 0.60 -5.80 -0.05z"/>
  <path d="M19.65 4.50 c-3.35 -0.90 -4.65 -1.70 -4.65 -2.80 0 -0.45 0.60 -0.70 1.75 -0.70 0.95 0 1.75 -0.20 1.75 -0.50 0 -1.55 1.80 0.45 2.80 3.15 0.15 0.45 0.65 0.85 1 0.85 0.40 0 0.70 0.25 0.70 0.50 0 0.30 -0.05 0.50 -0.10 0.45 -0.10 -0.05 -1.55 -0.45 -3.25 -0.95z"/>
 </g>
 <g fill="#e7cb97">
  <path d="M13.20 39.20 c0.15 -0.45 0.30 -1.45 0.30 -2.25 0 -1.10 0.25 -1.45 1 -1.45 0.55 0 1 0.35 1 0.75 0 0.40 0.30 0.75 0.70 0.75 0.40 0 0.80 0.65 0.90 1.50 0.20 1.45 0.20 1.50 -2 1.50 -1.80 0 -2.15 -0.15 -1.90 -0.80z"/>
  <path d="M21.40 35.40 c-0.20 -1.50 0 -2.60 0.65 -3.70 1.20 -2 1.30 -3.10 0.20 -2.20 -0.50 0.45 -0.75 0.45 -0.75 0.05 0 -0.30 -0.70 -0.55 -1.55 -0.55 -2.65 0 -4.35 -1.40 -4.75 -3.85 -0.20 -1.45 -0.75 -2.50 -1.55 -3.15 -0.75 -0.55 -1.30 -1.65 -1.50 -2.85 -0.15 -1.05 -0.55 -2.05 -0.85 -2.25 -0.25 -0.20 0.10 -0.50 0.90 -0.70 1.35 -0.30 1.35 -0.35 0.30 -1.05 -1.50 -1.05 -1.25 -1.65 0.75 -1.65 1.35 0 1.75 0.20 1.75 0.90 0 0.50 -0.25 1.15 -0.55 1.45 -1 1 -0.05 2.15 2.75 3.45 1.50 0.65 2.85 1.55 3 1.95 0.40 1.10 1.80 0.90 1.80 -0.25 0 -0.55 0.25 -1 0.50 -1 0.85 0 0.55 1.05 -0.75 2.55 -0.65 0.80 -1.10 1.80 -0.95 2.15 0.15 0.45 -0.20 0.75 -1 0.90 -0.70 0.15 -1.30 0.10 -1.30 -0.15 0 -0.20 0.40 -0.45 0.85 -0.55 0.75 -0.15 0.75 -0.20 -0.05 -1 -0.50 -0.50 -1.35 -0.90 -1.95 -0.90 -1.05 0.05 -1.05 0.05 -0.20 0.70 0.65 0.50 0.75 0.80 0.30 1.05 -0.40 0.30 -0.25 0.65 0.60 1.30 1.50 1.15 1.90 1.15 3.45 -0.05 0.70 -0.55 0.95 -1 0.60 -1 -0.40 0 -0.20 -0.60 0.60 -1.65 1 -1.30 1.30 -2.30 1.30 -4.10 0 -1.60 0.30 -2.75 0.85 -3.40 0.85 -0.90 0.80 -1.05 -2 -3.65 -1.60 -1.50 -3.35 -2.70 -3.85 -2.70 -0.55 0 -1 -0.35 -1 -0.75 0 -1.10 -2.60 -0.95 -3.85 0.20 -1.05 1 -1.05 1 -1.25 -0.55 l-0.25 -1.50 3.55 0.35 c1.95 0.15 4.25 0.65 5.05 1.05 1.70 0.80 3.55 3.30 4.50 6.05 l0.65 1.90 0.55 -1.40 c0.75 -1.95 0.70 -2.85 -0.15 -2.85 -0.40 0 -0.85 -0.15 -1 -0.40 -0.10 -0.20 0.65 -0.30 1.75 -0.20 1.30 0.15 1.95 0.45 1.95 0.95 0 1.10 -1.25 3.25 -2.65 4.55 -1.05 1 -1.20 1.50 -1 3.15 0.25 1.60 0.15 1.95 -0.55 1.95 -0.55 0 -0.80 0.45 -0.80 1.50 0 1 0.25 1.50 0.75 1.50 0.40 0 0.75 -0.25 0.75 -0.55 0 -0.30 0.35 -0.40 0.80 -0.25 0.65 0.25 0.75 -0.10 0.65 -2.10 -0.05 -1.30 0.15 -2.80 0.45 -3.35 0.55 -0.90 0.60 -0.85 0.30 0.40 -0.30 1.25 -0.20 1.35 1.15 1.35 0.80 0 1.70 -0.25 2.05 -0.60 1.20 -1.20 0.65 2.15 -0.85 5.05 -0.80 1.55 -2.30 4.85 -3.35 7.40 -1.40 3.40 -2.05 4.50 -2.50 4.10 -0.40 -0.30 -0.65 -0.25 -0.90 0.30 -0.15 0.40 -0.70 0.75 -1.25 0.75 -0.75 0 -1 -0.45 -1.15 -2.10z m4.80 -2.10 c1.15 -2.15 0.80 -3.50 -0.80 -3.05 -1 0.25 -0.90 0.10 0.50 -1.25 0.95 -0.85 1.55 -1.70 1.40 -1.85 -0.45 -0.45 -3.35 2.45 -3.15 3.10 0.15 0.25 -0.35 1.45 -1 2.60 -1.15 1.95 -1.15 2.10 -0.30 2.55 1.20 0.70 2.20 0.05 3.35 -2.10z m-2.20 -5.75 c0 -0.25 0.50 -0.60 1.15 -0.80 1.05 -0.35 1.05 -0.35 0.10 -0.60 -0.55 -0.15 -1.30 -0.50 -1.60 -0.75 -0.50 -0.40 -0.65 -0.15 -0.65 1.05 0 0.85 0.25 1.55 0.50 1.55 0.30 0 0.50 -0.20 0.50 -0.45z m-5.55 -5.75 c-1.10 -1.10 -4.20 -3.30 -4.65 -3.30 -0.80 0 3.30 3.45 4.15 3.50 0.40 0 0.60 -0.10 0.50 -0.20z"/>
  <path d="M20 31.50 c0 -0.55 0.35 -1 0.75 -1 0.65 0 0.70 0.20 0.25 1 -0.30 0.55 -0.65 1 -0.75 1 -0.15 0 -0.25 -0.45 -0.25 -1z"/>
  <path d="M8.55 25.20 c-0.60 -0.75 -1.05 -1.55 -1.05 -1.85 0 -0.65 1.90 1.05 2.55 2.25 0.75 1.40 -0.35 1.10 -1.50 -0.40z"/>
  <path d="M18.40 15.15 c-1.45 -0.35 -1.10 -1.55 0.35 -1.25 0.70 0.10 1.25 0.55 1.25 0.90 0 0.70 -0.15 0.75 -1.60 0.35z"/>
  <path d="M30.55 11.80 c-0.40 -0.50 -0.40 -0.80 0.10 -1.25 0.55 -0.40 0.80 -0.25 1.25 0.70 0.45 1 0.45 1.25 -0.10 1.25 -0.35 0 -0.95 -0.30 -1.25 -0.70z"/>
 </g>
 <g fill="#ebd6a8">
  <path d="M13 39.55 c0 -0.30 0.25 -0.65 0.50 -0.80 0.45 -0.30 0.35 -2.55 -0.30 -5.75 l-0.30 -1.25 1.55 1.45 c3.20 3.05 3.25 6.80 0.05 6.80 -0.80 0 -1.50 -0.20 -1.50 -0.45z"/>
  <path d="M20.15 36.85 c-1.60 -0.90 -7.15 -6.20 -7.15 -6.80 0 -0.40 0.30 -0.35 1 0.05 0.55 0.35 1 0.80 1 1 0 0.25 0.45 0.40 1 0.40 0.50 0 1.20 0.45 1.50 1 0.30 0.55 0.75 0.90 1.05 0.75 0.55 -0.35 -1.05 -2.75 -3.40 -5.15 -0.90 -0.90 -1.65 -2.10 -1.65 -2.65 0 -0.80 -0.25 -1 -0.95 -0.80 -1.10 0.25 -2.75 -1.20 -3.45 -3.15 -0.35 -1 -0.20 -1.65 0.80 -3.15 0.70 -1 1.75 -2 2.40 -2.15 1.45 -0.35 1.55 -1 0.20 -1.35 -2.15 -0.55 -0.95 -1.35 2 -1.35 2.35 0 3 0.15 3 0.75 0 0.45 -0.45 0.75 -1.20 0.75 -1.40 0 -2.55 1.20 -2.15 2.20 0.15 0.40 1.15 1.20 2.20 1.75 1.05 0.55 1.60 1 1.20 1.05 -0.35 0 -1.45 -0.45 -2.35 -1.05 -2.85 -1.75 -2.05 0 1.15 2.55 1.10 0.85 1.25 1.15 0.65 1.55 -0.60 0.35 -0.60 0.55 -0.10 0.85 0.35 0.25 0.50 0.75 0.35 1.15 -0.15 0.45 0.30 1.05 1.25 1.65 1.45 0.80 1.65 0.85 2.45 0.10 2.40 -2.20 2.80 0.55 0.55 3.85 -1.55 2.30 -1.85 3.35 -1.05 3.35 0.30 0 1.20 -1.50 2.10 -3.30 0.90 -1.80 2 -3.45 2.40 -3.60 0.45 -0.15 1.25 -0.60 1.75 -1.05 1.70 -1.40 0.30 0.50 -1.55 2.10 -1.10 0.95 -1.65 1.90 -1.60 2.55 0.10 0.60 -0.25 1.75 -0.70 2.60 -0.70 1.40 -0.70 1.60 0 2.30 1.55 1.55 -0.45 2.50 -2.70 1.25z"/>
  <path d="M25.85 34.15 c0.20 -0.50 0.65 -1.40 1.05 -2 0.35 -0.60 0.50 -1.40 0.30 -1.75 -0.25 -0.50 -0.20 -0.50 0.25 -0.10 0.50 0.45 0.40 1.05 -0.40 2.65 -1.10 2.05 -1.80 2.80 -1.20 1.20z"/>
  <path d="M9.40 26.15 c-1.55 -1.70 -2.40 -3.30 -2.40 -4.50 0.05 -0.55 0.45 -0.10 1 1.05 0.55 1.10 1.20 2.10 1.45 2.25 0.45 0.30 1.70 2.55 1.40 2.55 -0.10 0 -0.75 -0.60 -1.45 -1.35z"/>
  <path d="M29 26.10 c0 -0.25 0.35 -0.75 0.75 -1.10 0.40 -0.35 0.75 -0.40 0.75 -0.10 0 0.25 -0.35 0.75 -0.75 1.10 -0.40 0.35 -0.75 0.40 -0.75 0.10z"/>
  <path d="M24 25.25 c0 -0.40 -0.35 -0.75 -0.75 -0.75 -1.05 0 -0.95 -0.55 0.45 -2.10 1.15 -1.40 2.30 -1.85 2.30 -0.90 0 0.30 -0.35 0.50 -0.75 0.50 -0.50 0 -0.75 0.50 -0.75 1.50 0 1.05 0.25 1.50 0.80 1.50 0.40 0 0.60 0.25 0.45 0.50 -0.50 0.75 -1.75 0.60 -1.75 -0.25z"/>
  <path d="M24.30 20.15 c-0.65 -0.65 -0.30 -3.35 0.55 -4.30 0.85 -0.90 0.80 -1.05 -2.05 -3.70 -1.75 -1.65 -2.75 -2.90 -2.45 -3.20 0.65 -0.65 3.85 2.20 4.90 4.30 1.15 2.50 0.40 8.25 -0.95 6.90z"/>
  <path d="M18.90 15.15 c-1.20 -0.30 -1.15 -1.15 0.10 -1.15 0.55 0 1 0.35 1 0.75 0 0.40 -0.05 0.70 -0.10 0.70 -0.10 -0.05 -0.55 -0.15 -1 -0.30z"/>
  <path d="M31.20 11.75 c-0.55 -1.35 0.10 -1.85 0.70 -0.55 0.35 0.80 0.40 1.30 0.05 1.30 -0.25 0 -0.60 -0.35 -0.75 -0.75z"/>
  <path d="M13 9.10 c0 -0.60 0.30 -1.10 0.70 -1.10 0.40 0 0.80 -0.25 0.90 -0.60 0.15 -0.35 0.70 -0.45 1.70 -0.15 l1.45 0.40 -1.75 0.40 c-0.90 0.20 -2 0.75 -2.35 1.25 -0.60 0.85 -0.65 0.80 -0.65 -0.20z"/>
  <path d="M11.50 5.35 l-1.25 -1.60 1.60 1.15 c1.90 1.35 2.45 2.10 1.55 2.05 -0.35 0 -1.20 -0.70 -1.90 -1.60z"/>
 </g>
 <g fill="#abdfe1">
  <path d="M6.70 38.95 c-0.90 -1 -0.90 -1.05 0.05 -1.75 1.25 -0.90 2.20 -0.90 3.30 0.10 0.85 0.75 0.80 0.85 -0.10 1.75 -1.20 1.20 -2.05 1.20 -3.25 -0.10z"/>
  <path d="M5.50 15.15 c0.05 -1.85 1.85 -5.80 2.50 -5.40 0.30 0.15 0.70 -0.20 0.95 -0.85 0.45 -1.10 0.50 -1.10 0.50 0.35 0.05 2.50 -0.95 5.35 -2 5.60 -0.50 0.15 -0.95 0.60 -0.95 0.95 0 0.40 -0.20 0.70 -0.50 0.70 -0.25 0 -0.50 -0.60 -0.50 -1.35z"/>
  <path d="M23.25 5.70 c-1.35 -0.65 -2.80 -1.20 -3.15 -1.20 -0.35 0 -0.55 -0.20 -0.40 -0.45 0.15 -0.20 -0.25 -0.90 -0.95 -1.55 -1 -0.95 -1.10 -1.25 -0.50 -1.80 0.80 -0.80 1.90 -0.90 3.15 -0.25 0.45 0.25 1.75 0.70 2.85 1.05 2.20 0.70 4.05 2 5.15 3.55 0.60 0.90 0.65 1.15 0.05 1.50 -1.20 0.75 -3.60 0.40 -6.20 -0.85z m3.50 -1.20 c-0.15 -0.25 -0.75 -0.50 -1.35 -0.50 -0.55 0 -2 -0.70 -3.25 -1.50 -1.25 -0.85 -2.15 -1.25 -2.05 -0.90 0.15 0.35 1.35 1.25 2.70 2 2.45 1.40 4.55 1.85 3.95 0.90z"/>
 </g>
 <g fill="#cfd7d7">
  <path d="M5.50 16.25 c0 -1.10 0.20 -1.70 0.50 -1.50 0.30 0.15 0.50 0.85 0.50 1.50 0 0.65 -0.20 1.35 -0.50 1.50 -0.30 0.20 -0.50 -0.40 -0.50 -1.50z"/>
  <path d="M4.55 11.95 c-0.05 -0.95 1.45 -4.10 1.80 -3.80 0.10 0.15 -0.20 1.25 -0.75 2.45 -0.55 1.15 -1.05 1.80 -1.05 1.35z"/>
  <path d="M10.70 9.10 c0.05 -2.25 0.15 -2.85 0.50 -2.10 0.25 0.60 0.25 1.85 -0.05 3.10 -0.45 2.15 -0.45 2.15 -0.45 -1z"/>
  <path d="M17.75 6 c-0.35 -0.60 0.10 -0.60 1.50 0 0.95 0.40 0.95 0.45 -0.10 0.45 -0.60 0.05 -1.25 -0.15 -1.40 -0.45z"/>
 </g>
 <g fill="#f9e6b6">
  <path d="M13.65 36.20 c-0.10 -3.75 -0.10 -3.80 0.85 -2.95 0.50 0.45 1.30 1.55 1.70 2.45 0.65 1.35 0.65 1.90 0.15 2.95 -0.35 0.80 -1 1.35 -1.60 1.35 -0.90 0 -1 -0.35 -1.10 -3.80z"/>
  <path d="M19.90 36.60 c-2 -1.30 -6.50 -5.65 -6.20 -6 0.15 -0.15 0.70 0.10 1.15 0.50 0.50 0.45 1.20 0.65 1.55 0.55 0.40 -0.15 0.80 0.20 0.95 0.80 0.15 0.60 0.60 1.05 0.95 1.05 1.60 0 0.45 -1.80 -4.05 -6.20 -4.95 -4.95 -5.95 -6.70 -4.55 -8.25 0.45 -0.50 0.80 -1.15 0.80 -1.50 0 -0.35 0.70 -0.85 1.50 -1.10 1.55 -0.55 2.05 -1.45 0.75 -1.45 -0.40 0 -0.75 -0.35 -0.75 -0.80 0 -0.70 0.55 -0.80 3.50 -0.60 1.90 0.10 3.75 0.45 4.10 0.80 0.55 0.55 0.15 0.65 -1.95 0.55 -2.65 -0.15 -4.40 0.65 -3.95 1.80 0.10 0.35 0 0.85 -0.30 1.15 -0.40 0.40 0 1.10 1.45 2.45 1.80 1.65 2.05 2.15 1.90 3.75 -0.10 1.35 0.05 1.90 0.65 2.10 0.50 0.15 1.25 0.55 1.70 0.90 0.70 0.50 1.10 0.50 1.90 0 2.50 -1.55 2.65 -0.05 0.30 3.35 -1.55 2.20 -1.65 2.55 -1.05 3.35 0.55 0.75 0.75 0.80 0.75 0.20 0.05 -1 1.95 -3.25 2.35 -2.80 0.20 0.20 -0.05 1.10 -0.55 2.05 -0.75 1.40 -0.80 1.85 -0.35 2.45 0.70 0.80 0.35 1.80 -0.60 1.80 -0.35 0 -1.20 -0.40 -1.95 -0.90z m1 -6.75 c0.10 -0.50 -0.15 -0.85 -0.60 -0.85 -0.90 0 -1.45 0.80 -1.05 1.55 0.45 0.70 1.45 0.30 1.65 -0.70z m-8.15 -7.85 c1.10 -1.25 0.80 -1.60 -1.15 -1.40 -1.30 0.15 -1.40 0.30 -1.05 1.30 0.50 1.35 1.05 1.40 2.20 0.10z"/>
  <path d="M24.30 18.05 c-0.20 -0.30 0.10 -1.15 0.65 -1.85 0.90 -1.15 1.05 -1.20 1.05 -0.35 0 1.35 -1.25 2.95 -1.70 2.20z"/>
  <path d="M22.75 12 c-1.55 -1.60 -2.15 -2.50 -1.65 -2.50 0.85 0 4.40 3.65 4.40 4.50 0 0.75 -0.10 0.70 -2.75 -2z"/>
  <path d="M13 8 c0 -1.60 0.10 -1.65 1.90 -1.20 1.45 0.40 1.40 0.80 -0.40 1.80 l-1.50 0.85 0 -1.45z"/>
 </g>
 <g fill="#fef6cd">
  <path d="M18.80 34.25 c-0.15 -0.45 0 -0.75 0.45 -0.75 0.40 0 0.75 0.35 0.75 0.75 0 0.40 -0.20 0.75 -0.45 0.75 -0.25 0 -0.55 -0.35 -0.75 -0.75z"/>
  <path d="M15.20 32.40 c-0.80 -0.90 -1.05 -1.30 -0.50 -0.90 0.50 0.40 1.30 0.75 1.75 0.75 0.40 0 0.85 0.40 0.95 0.90 0.25 1.30 -0.55 1.05 -2.20 -0.75z"/>
  <path d="M10.20 19.05 c0.55 -0.60 0.80 -1.05 0.60 -1.05 -0.20 0 -0.05 -0.30 0.25 -0.65 0.35 -0.35 1 -0.65 1.45 -0.65 0.80 0 0.80 0.10 0 1.55 -0.50 0.90 -1.30 1.55 -2.05 1.70 -1.20 0.15 -1.20 0.15 -0.25 -0.90z"/>
  <path d="M12.65 7.50 c-0.25 -1.10 -0.45 -2 -0.35 -2 0.10 0 0.85 0.40 1.70 0.90 l1.50 0.95 -1.15 1.05 -1.15 1.10 -0.55 -2z"/>
 </g>
</svg>