<?xml version="1.0" encoding="utf-8"?>
<!DOCTYPE svg PUBLIC "-//W3C//DTD SVG 1.0//EN" "http://www.w3.org/TR/2001/REC-SVG-20010904/DTD/svg10.dtd">
<svg version="1.0" xmlns="http://www.w3.org/2000/svg" width="40px" height="40px" viewBox="0 0 40 40" preserveAspectRatio="xMidYMid meet">
 <g fill="#180c0f">
  <path d="M16 35.50 c0 -0.65 -0.35 -1 -1 -1 -1.10 0 -2 -1.40 -2 -3.15 0 -1.40 0.80 -1.85 3.20 -1.85 2 0 3.30 1.95 3.30 4.95 0 2 -0.05 2.05 -1.75 2.05 -1.40 0 -1.75 -0.20 -1.75 -1z"/>
  <path d="M18.50 20.50 c0 -0.75 -0.35 -1 -1.30 -1 l-1.35 0 0.35 -4.10 c0.20 -2.25 0.60 -4.40 0.90 -4.75 0.60 -0.75 3.90 -0.90 3.90 -0.20 0 0.25 0.45 0.35 1 0.20 0.55 -0.15 2 -0.10 3.25 0.05 2.15 0.35 2.25 0.45 2.25 2.10 0 1.65 -0.05 1.70 -2 1.70 -2.45 0 -4.25 0.80 -5.25 2.35 -0.75 1.10 -0.70 1.15 0.50 1.15 1.10 0 1.25 0.20 1.25 1.75 0 1.65 -0.10 1.75 -1.75 1.75 -1.40 0 -1.75 -0.20 -1.75 -1z"/>
  <path d="M8.40 13.80 c-0.05 -1.45 -0.10 -3.05 0 -3.50 0.25 -1.15 1.60 -1 1.60 0.20 0 0.70 0.35 1 1.20 1 1.30 0 1.80 0.80 1.80 3 0 1.50 -0.75 2 -3 2 -1.35 0 -1.40 -0.10 -1.60 -2.70z"/>
 </g>
 <g fill="#1d1d1c">
  <path d="M22.25 38.50 c-0.30 -1.45 -0.35 -1.45 -1.50 -0.70 -0.90 0.55 -1.80 0.70 -3.25 0.45 -1.95 -0.35 -2.05 -0.45 -4 -4.60 -1.10 -2.35 -2 -4.60 -2 -4.95 0 -0.65 -1.65 -3.85 -2.50 -4.95 -0.75 -0.90 -0.50 -13.55 0.25 -15.40 0.85 -2.05 4.30 -4.95 7.60 -6.45 4.65 -2.10 10.95 -1.10 15.05 2.35 1.95 1.65 2.85 3.30 3.35 6.15 0.30 1.90 0.25 2.10 -0.70 2.10 -0.85 0 -1.05 -0.30 -1.05 -1.55 0 -0.85 -0.35 -1.85 -0.75 -2.25 -0.40 -0.45 -0.75 -1.30 -0.75 -2 0 -0.95 -0.25 -1.20 -1.25 -1.20 -0.70 0 -1.25 -0.20 -1.25 -0.50 0 -0.25 -0.30 -0.50 -0.60 -0.50 -0.35 0 -1.20 -0.30 -1.90 -0.65 -2.65 -1.40 -5.80 -1.45 -8.80 -0.10 -1.55 0.70 -3.25 1.25 -3.75 1.25 -0.55 0 -0.95 0.35 -0.95 0.85 0 0.45 -0.55 1.40 -1.20 2.10 -0.70 0.75 -1.40 1.90 -1.55 2.70 -0.35 1.20 -0.25 1.35 1 1.35 1.25 0 1.30 0.15 1.20 1.90 -0.05 1 0.15 2.35 0.45 2.95 0.35 0.60 0.60 1.75 0.60 2.60 0 1.45 0.15 1.55 1.75 1.55 1.75 0 1.75 0 1.75 2.25 0 2.25 0 2.25 -1.75 2.25 -1.70 0 -1.75 -0.05 -1.75 -2 0 -1.95 -0.05 -2 -1.80 -2 l-1.75 0 0.90 1.65 c0.50 0.85 1.15 1.95 1.45 2.35 0.35 0.40 0.70 1.30 0.80 2 0.10 1 0.50 1.30 1.70 1.40 1.40 0.15 1.60 0.35 1.80 1.95 0.15 1.45 0.10 1.60 -0.35 0.95 -0.35 -0.45 -0.80 -0.80 -1 -0.80 -0.25 0 -0.05 0.40 0.40 0.90 0.60 0.65 1.30 0.85 2.35 0.70 1.45 -0.20 1.50 -0.15 1.55 1.95 0.05 1.20 0.15 1.80 0.30 1.35 0.15 -0.65 0.70 -0.90 1.85 -0.90 1.45 0 1.70 0.20 2 1.55 0.50 2.65 0.35 3.45 -0.65 3.45 -0.65 0 -1.05 -0.45 -1.30 -1.50z m-11.55 -23.80 c0.85 -0.35 0.50 -1.70 -0.45 -1.70 -0.85 0 -1.40 0.85 -1 1.50 0.35 0.60 0.40 0.60 1.45 0.20z"/>
  <path d="M27 38.70 c-0.30 -0.70 -0.50 -2.05 -0.50 -3 0 -1.35 0.20 -1.70 1 -1.70 0.80 0 1 0.35 1 1.65 0 0.85 0.35 2.05 0.75 2.55 1.05 1.40 0.95 1.80 -0.50 1.80 -0.90 0 -1.40 -0.35 -1.75 -1.30z"/>
  <path d="M27.15 30.70 c0.30 -3.10 1.40 -4.70 3.20 -4.70 0.90 0 1.15 -0.25 1.15 -1.25 0 -0.70 0.15 -1.25 0.40 -1.25 0.55 0 1.60 -4.95 1.60 -7.65 0 -2.05 0.15 -2.35 1.05 -2.35 1.05 0 1.10 0.15 0.80 3.70 -0.45 4.90 -1.50 7.55 -4.30 10.45 -1.25 1.30 -2.30 2.80 -2.35 3.25 -0.15 2.30 -0.25 2.60 -1 2.60 -0.70 0 -0.80 -0.40 -0.55 -2.80z"/>
  <path d="M18 21.50 c0 -1.15 -0.20 -1.50 -1 -1.50 -0.85 0 -1 -0.35 -1 -2.50 0 -1.80 0.20 -2.60 0.75 -2.80 0.40 -0.20 0.75 -0.60 0.75 -1 0 -0.40 0.45 -0.70 1 -0.70 0.95 0 0.95 0.05 -0.05 1.90 l-1.05 1.85 1.25 -1.45 c1.20 -1.40 1.45 -1.45 4.90 -1.35 2 0.05 3.95 0.35 4.30 0.65 0.95 0.75 0.80 3.60 -0.20 4.50 -0.50 0.40 -1.95 1.20 -3.25 1.70 -1.35 0.50 -2.40 1.25 -2.40 1.60 0 0.35 -0.75 0.60 -2 0.60 -1.90 0 -2 -0.10 -2 -1.50z"/>
 </g>
 <g fill="#2a292a">
  <path d="M22.55 39.40 c0.05 -0.35 0.05 -1.20 0 -1.85 -0.05 -1.15 -0.10 -1.15 -0.95 -0.40 -1.05 0.95 -2.60 1.10 -2.60 0.30 0 -0.40 -0.60 -0.50 -1.75 -0.30 -1.60 0.25 -1.85 0.15 -2.35 -1.05 -0.30 -0.75 -0.95 -2.25 -1.50 -3.40 -0.50 -1.10 -0.90 -2.25 -0.90 -2.55 0 -0.75 1.75 -1.15 5.30 -1.15 3.35 0 3.70 0.30 3.70 3.05 0 1.20 -0.20 1.45 -1.25 1.45 -0.95 0 -1.25 0.25 -1.25 1.15 0 1 0.20 1.10 2 0.95 1.25 -0.15 2 0 2 0.35 0 0.30 0.35 0.55 0.75 0.55 0.50 0 0.75 0.55 0.75 1.75 0 1.45 -0.20 1.75 -1 1.75 -0.60 0 -1 -0.30 -0.95 -0.60z m-4.05 -4.60 c0 -0.40 -0.20 -0.90 -0.50 -1.05 -0.25 -0.15 -0.50 0.15 -0.50 0.70 0 0.60 0.25 1.05 0.50 1.05 0.30 0 0.50 -0.30 0.50 -0.70z m-1.55 -2.65 c-1.40 -1.80 -2.45 -2.15 -2.45 -0.75 0 0.60 0.10 0.70 0.40 0.20 0.35 -0.45 0.65 -0.40 1.35 0.40 1.10 1.25 1.65 1.35 0.70 0.15z"/>
  <path d="M26.50 36 c0 -2.20 0.10 -2.50 1.05 -2.50 0.90 0 1 0.25 0.80 1.35 -0.15 0.75 -0.05 1.85 0.20 2.50 0.35 1 0.25 1.15 -0.80 1.15 -1.15 0 -1.25 -0.15 -1.25 -2.50z"/>
  <path d="M26 27.35 c0 -2.15 0.75 -2.85 3.05 -2.85 1.85 0 1.85 0 2.05 -2.35 0.15 -1.35 0.40 -2.80 0.60 -3.25 0.35 -0.75 0.15 -0.90 -1.15 -0.90 -1.45 0 -1.55 -0.15 -1.55 -1.75 0 -1.65 0.10 -1.75 1.75 -1.75 1.65 0 1.75 0.10 1.75 1.75 0 1.55 0.15 1.75 1.25 1.75 1.60 0 1.65 1.40 0.20 5.20 -1.20 3.30 -4 5.80 -6.40 5.80 -1.40 0 -1.55 -0.15 -1.55 -1.65z"/>
  <path d="M11.45 27.20 c-1.65 -1.95 -3.05 -5.65 -2.70 -7.15 0.45 -2.15 1.55 -2.90 2.25 -1.60 0.60 1.15 0.05 1.40 -0.95 0.45 -0.50 -0.55 -0.55 -0.50 -0.30 0.25 0.40 0.90 2.75 1.20 2.75 0.35 0 -0.70 -2.30 -3 -3 -3 -0.25 0 -0.50 -0.45 -0.50 -1 0 -0.55 0.25 -0.85 0.65 -0.75 0.90 0.35 2.05 -0.55 1.60 -1.25 -0.20 -0.35 -0.85 -0.45 -1.55 -0.30 -1.25 0.35 -1.45 0 -0.90 -1.40 0.20 -0.50 0.90 -0.80 1.95 -0.80 1.40 0 1.80 0.30 2.45 1.60 0.45 0.85 0.80 1.95 0.80 2.50 0 0.50 0.25 0.90 0.50 0.90 0.30 0 0.50 -0.70 0.50 -1.55 0 -1.65 0.95 -2.95 2.20 -2.95 0.45 0 0.80 -0.40 0.80 -1 0 -0.70 0.35 -1 1.20 -1 0.65 0 1.30 -0.20 1.40 -0.45 0.10 -0.25 1.55 -0.65 3.30 -0.85 l3.10 -0.35 0 1.85 c0 1.65 -0.15 1.80 -1.35 1.80 -0.80 0.05 -1.95 0.35 -2.65 0.75 -1.25 0.70 -1.25 0.70 0.90 1.05 1.60 0.25 2.10 0.55 2.10 1.25 0 0.75 -0.35 0.95 -1.70 0.95 -0.95 0 -1.85 0.20 -2 0.40 -0.10 0.20 0.55 0.30 1.50 0.20 1.80 -0.20 2.30 0.55 1.10 1.85 -0.55 0.55 -0.50 0.65 0.25 0.40 0.65 -0.25 0.85 -0.05 0.85 0.85 0 1.30 -0.85 1.80 -3.05 1.80 -0.95 0 -1.45 0.25 -1.45 0.75 0 0.50 -0.55 0.75 -1.75 0.75 -1.20 0 -1.75 -0.25 -1.75 -0.75 0 -0.40 -0.45 -0.75 -1 -0.75 -0.55 0 -1 -0.35 -1 -0.75 0 -0.45 -0.30 -0.60 -0.75 -0.45 -0.40 0.20 -0.75 0.60 -0.75 1 0 0.35 -0.75 0.80 -1.70 0.95 -1.40 0.30 -1.65 0.50 -1.40 1.40 0.15 0.60 0.45 1.25 0.70 1.40 0.25 0.15 0.40 1.05 0.30 1.95 -0.15 1.55 -0.20 1.55 -0.95 0.70z m9.05 -6.35 c0 -0.35 0.80 -0.95 1.80 -1.30 2.30 -0.85 1.95 -1.20 -0.40 -0.45 -1.05 0.30 -1.95 0.95 -2.05 1.45 -0.15 0.55 -0.05 0.95 0.20 0.95 0.25 0 0.45 -0.30 0.45 -0.65z m-1 -6.25 c0.55 -0.60 1.25 -1.10 1.55 -1.10 0.30 0 0.35 -0.25 0.20 -0.50 -0.85 -1.40 -3.80 2.25 -3.70 4.60 0.05 0.95 0.10 0.90 0.50 -0.35 0.20 -0.85 0.90 -2.05 1.45 -2.65z"/>
  <path d="M14 24.25 c0 -1.85 1.25 -2.50 1.65 -0.85 0.20 0.80 0.25 0.80 0.30 0 0 -0.50 0.40 -0.90 0.80 -0.90 0.50 0 0.75 0.55 0.75 1.75 0 1.65 -0.10 1.75 -1.75 1.75 -1.65 0 -1.75 -0.10 -1.75 -1.75z"/>
  <path d="M33.50 14.15 c0 -1.35 -0.15 -3.60 -0.30 -5 -0.30 -2.35 -0.45 -2.65 -1.55 -2.65 -0.65 0 -1.30 -0.35 -1.45 -0.75 -0.20 -0.40 -0.60 -0.75 -1 -0.75 -0.40 0 -0.70 -0.50 -0.70 -1.25 0 -1.50 0.15 -1.55 2.35 -0.20 3.25 2 5.30 7.35 4.40 11.45 -0.55 2.50 -1.75 1.90 -1.75 -0.85z"/>
  <path d="M9.35 8.55 c0.15 -0.55 0.70 -1.35 1.20 -1.85 0.90 -0.85 0.95 -0.80 0.95 0.95 0 1.60 -0.15 1.85 -1.20 1.85 -0.95 0 -1.15 -0.20 -0.95 -0.95z"/>
  <path d="M19 2 c0 -0.85 0.35 -1 2.15 -1 2.80 0 4.35 0.45 4.35 1.30 0 0.55 -0.80 0.70 -3.25 0.70 -2.90 0 -3.25 -0.10 -3.25 -1z"/>
 </g>
 <g fill="#4a172d">
  <path d="M13.80 33.20 c-0.45 -1.25 -0.35 -2.70 0.25 -2.70 0.25 0 0.40 0.20 0.20 0.45 -0.15 0.25 -0.05 0.60 0.25 0.80 0.25 0.15 0.50 0.05 0.50 -0.30 0 -0.35 0.40 -0.25 1 0.30 0.95 0.85 1.35 2.25 0.70 2.25 -0.20 0 -0.65 -0.40 -1 -0.85 -0.65 -0.85 -0.70 -0.85 -0.40 0 0.40 1.10 -1.05 1.20 -1.50 0.05z"/>
  <path d="M15.10 17.40 c-0.35 -0.35 -0.60 -1.30 -0.60 -2.20 0 -1.25 0.50 -2.05 2.45 -3.85 2.55 -2.40 4.25 -3 8.55 -3.05 1.95 -0.05 2.25 0.10 2.40 1.10 0.15 0.80 0.50 1.10 1.40 1.10 1.05 0 1.20 0.20 1.20 2 l0 2 -4.75 0 -4.80 0 -1 1.75 c-1.05 1.75 -1.95 2.30 -1.95 1.15 0 -1.20 2.55 -3.85 4 -4.15 0.80 -0.20 1.65 -0.55 1.85 -0.85 0.20 -0.40 0 -0.45 -0.65 -0.15 -0.80 0.35 -1.85 0.55 -3.35 0.70 -0.60 0.05 -2.60 3.70 -2.45 4.40 0.20 0.80 -1.50 0.85 -2.30 0.05z"/>
 </g>
 <g fill="#393838">
  <path d="M28 38.65 c0 -1.25 0 -1.30 1 -0.40 0.55 0.50 1 1.10 1 1.35 0 0.20 -0.45 0.40 -1 0.40 -0.75 0 -1 -0.35 -1 -1.35z"/>
  <path d="M22.65 37.50 c-0.25 -0.95 -0.35 -1 -1.45 -0.25 -1.15 0.75 -1.20 0.75 -1.20 -0.75 0 -0.80 -0.20 -1.50 -0.50 -1.50 -0.25 0 -0.50 0.35 -0.50 0.75 0 0.40 -0.45 0.75 -1 0.75 -0.60 0 -1 0.35 -1 0.80 0 0.90 -1 0.70 -1.55 -0.35 -1.25 -2.40 -3.45 -7.55 -3.45 -8.20 0 -0.40 -0.45 -1.45 -1 -2.35 -1.30 -2.10 -1.25 -2.40 0.20 -2.40 1.20 0 1.80 0.80 1.80 2.55 0 1.35 1.55 2.95 2.80 2.95 0.60 0 1.25 0.30 1.40 0.65 0.25 0.50 0.35 0.50 0.60 0 0.15 -0.35 1 -0.65 1.90 -0.65 1.25 0 1.75 0.30 2.20 1.25 0.35 0.70 0.60 1.65 0.60 2.10 0 0.65 0.15 0.65 0.75 0.15 0.55 -0.45 0.65 -0.75 0.25 -1 -0.30 -0.20 -0.50 -1.10 -0.40 -2.05 0.10 -1.30 0.40 -1.75 1.30 -1.85 0.70 -0.10 1.10 -0.50 1.10 -1.15 0 -0.50 0.35 -0.95 0.75 -0.95 0.40 0 0.75 -0.20 0.75 -0.40 0 -1 4.15 -4.60 5.25 -4.60 0.90 0 1.10 -0.20 0.90 -1 -0.20 -0.75 0 -1 0.80 -1 0.65 0 1.05 0.30 1.05 0.90 -0.05 1.65 -2.05 5.30 -4.25 7.65 -1.95 2.05 -2.25 2.70 -2.25 4.55 0 3 -0.50 4.40 -1.50 4.40 -0.45 0 -1.25 0.45 -1.75 1 -1.15 1.30 -2.25 1.30 -2.60 0z m-4.15 -2.70 c0 -1.10 -0.90 -1.45 -1.10 -0.45 -0.15 0.70 -0.45 0.50 -1.30 -0.85 -1.45 -2.35 -1.40 -2.95 0.20 -1.45 1.25 1.15 1.30 1.15 0.75 0.10 -0.70 -1.35 -1.40 -1.80 -2.30 -1.45 -1.05 0.40 1.50 4.80 2.80 4.80 0.50 0 0.95 -0.30 0.95 -0.70z"/>
  <path d="M13.50 23.75 c0 -1.60 -0.10 -1.75 -1.50 -1.75 -0.80 0 -1.50 0.25 -1.50 0.50 0 0.90 -1.50 0.55 -1.55 -0.35 -0.15 -1.95 0.15 -3.45 0.80 -4.10 0.55 -0.55 0.75 -0.50 1.20 0.40 0.65 1.15 0.10 1.40 -0.85 0.45 -0.35 -0.35 -0.60 -0.45 -0.60 -0.30 0 0.80 1.55 1.80 2.45 1.55 0.85 -0.20 0.85 -0.35 0.30 -1.50 -0.35 -0.70 -1.15 -1.50 -1.80 -1.85 -1.90 -0.95 -1.85 -1.95 0.15 -1.70 1.70 0.20 1.70 0.15 1.05 -1.15 -0.50 -1 -0.95 -1.25 -1.80 -1.10 -1.05 0.20 -1.20 0.05 -1.10 -1.45 0.05 -1.80 1 -3.90 1.75 -3.90 0.30 0 0.50 0.80 0.50 1.75 0 1.40 0.20 1.75 1 1.75 0.80 0 1 0.35 1 1.50 0 1.75 0.75 1.95 2.05 0.45 0.55 -0.65 1.35 -0.95 2.15 -0.85 l1.30 0.15 -1.25 1.45 c-0.95 1.10 -1.10 1.60 -0.70 2.15 0.30 0.35 0.75 1.40 0.95 2.30 l0.40 1.60 0.05 -1.45 c0.05 -0.80 0.60 -2.20 1.35 -3.15 1.20 -1.55 1.40 -1.65 4.50 -1.65 l3.20 0 0 1.45 c0 1.45 0 1.45 -1.45 0.75 -0.90 -0.45 -2 -0.60 -2.80 -0.40 -1.75 0.45 -1.10 0.95 1.05 0.75 1.20 -0.10 1.70 0.10 1.70 0.60 0 0.95 -0.80 1.55 -3 2.30 -1.50 0.50 -1.85 0.45 -2.35 -0.25 -0.55 -0.75 -0.60 -0.60 -0.55 0.95 0.05 1.70 0.90 2.75 0.90 1.15 0 -0.40 0.65 -0.85 1.50 -1.05 0.80 -0.20 2.25 -0.85 3.25 -1.50 0.95 -0.70 1.75 -1 1.75 -0.75 0 0.30 -0.20 0.50 -0.50 0.50 -0.25 0 -0.50 0.45 -0.50 1 0 0.65 -0.35 1 -1 1 -0.55 0 -1 0.30 -1 0.70 0 0.40 -0.65 0.85 -1.50 1.05 -1.25 0.30 -1.50 0.55 -1.50 1.85 0 1.45 -0.05 1.50 -2 1.30 -1.10 -0.10 -2 0 -2 0.20 0 0.25 -0.80 0.40 -1.75 0.40 -1.65 0 -1.75 -0.10 -1.75 -1.75z"/>
  <path d="M28.50 15.75 c0 -1.65 0.10 -1.75 1.75 -1.75 1.65 0 1.75 0.10 1.75 1.75 0 1.65 -0.10 1.75 -1.75 1.75 -1.65 0 -1.75 -0.10 -1.75 -1.75z"/>
  <path d="M17 15.35 c0 -0.40 0.45 -1.10 1 -1.60 1 -0.90 1 -0.90 0.20 0.65 -0.85 1.70 -1.20 2 -1.20 0.95z"/>
  <path d="M33.50 13 c0 -2.25 0.20 -3 0.70 -3 0.40 0 0.85 0.70 1.05 1.50 0.45 2 -0.15 4.50 -1.05 4.50 -0.50 0 -0.70 -0.75 -0.70 -3z"/>
  <path d="M20.10 11.60 c0.55 -0.65 0.50 -0.75 -0.20 -0.45 -0.70 0.25 -0.90 0.05 -0.90 -0.85 0 -1.40 0.50 -1.65 4.45 -2.10 2.75 -0.30 3.05 -0.25 3.05 0.60 0 0.75 -0.45 1 -2.10 1.10 -1.10 0.05 -2.40 0.30 -2.75 0.55 -0.40 0.20 0.50 0.30 2.05 0.15 1.90 -0.15 2.80 -0.05 2.80 0.35 0 0.30 -0.70 0.55 -1.60 0.50 -0.90 -0.05 -2.50 0.15 -3.55 0.45 -1.70 0.45 -1.85 0.40 -1.25 -0.30z"/>
  <path d="M31.35 7.15 c-0.20 -0.15 -0.35 -0.85 -0.35 -1.50 0 -0.95 -0.25 -1.15 -1.45 -1.15 -0.80 0 -2.10 -0.20 -2.80 -0.50 -0.70 -0.25 -2.90 -0.65 -4.80 -0.80 -2.85 -0.30 -3.45 -0.50 -3.35 -1.15 0.25 -1.25 7.50 -0.90 10.20 0.50 2.35 1.20 5.20 3.60 5.20 4.40 0 0.60 -2.15 0.75 -2.65 0.20z"/>
  <path d="M13.15 4.25 c1.80 -1.60 2.35 -1.55 2.35 0 0 1.10 -0.20 1.25 -1.85 1.25 l-1.90 -0.05 1.40 -1.20z"/>
 </g>
 <g fill="#6b1b41">
  <path d="M15.50 15.35 c0 -1.85 0.30 -2.40 1.95 -4.05 1.65 -1.60 2.40 -2 4.50 -2.20 1.40 -0.10 2.55 -0.40 2.55 -0.65 0 -0.25 0.90 -0.45 2 -0.45 1.40 0 2 0.20 2 0.70 0 0.40 0.45 0.90 1 1.05 0.75 0.25 1 0.75 1 1.90 0 2.50 -0.60 3 -3.05 2.70 -1.20 -0.15 -3 -0.50 -3.95 -0.75 -1.70 -0.50 -1.70 -0.50 1 -0.60 2.50 -0.05 2.65 -0.10 1.50 -0.65 -0.70 -0.30 -1.40 -0.75 -1.55 -1 -0.20 -0.25 -0.80 -0.20 -1.35 0.10 -0.55 0.30 -1.45 0.55 -2 0.55 -1 0 -2.75 1.65 -3.35 3.25 -0.25 0.70 -0.45 0.80 -0.60 0.30 -0.15 -0.35 0.65 -1.55 1.75 -2.70 1.80 -1.75 2.35 -2.05 4.80 -2.25 1.55 -0.10 2.65 -0.40 2.50 -0.65 -0.35 -0.55 -4.05 0 -5.70 0.85 -0.70 0.35 -2.05 1.40 -2.95 2.40 -1.35 1.40 -1.60 1.95 -1.15 2.40 0.85 0.85 0.75 1.90 -0.15 1.90 -0.55 0 -0.75 -0.55 -0.75 -2.15z"/>
  <path d="M18.30 16.90 c1.10 -1.90 2.35 -3.40 2.80 -3.40 0.35 0 0.10 0.50 -0.45 1.15 -0.55 0.60 -1.15 1.50 -1.30 2 -0.20 0.45 -0.55 0.85 -0.85 0.85 -0.30 0 -0.40 -0.30 -0.20 -0.60z"/>
 </g>
 <g fill="#4c4c4d">
  <path d="M22.85 38.65 c-0.20 -1.10 0.10 -1.80 1.55 -3.40 1.40 -1.50 1.50 -1.65 0.35 -0.70 -0.80 0.75 -2.05 1.60 -2.70 1.95 -1.10 0.55 -1.15 0.55 -0.90 -0.45 0.20 -0.90 0.05 -1.05 -1.20 -1.05 -1.30 0 -1.45 -0.20 -1.45 -1.50 0 -1 -0.25 -1.50 -0.75 -1.50 -0.55 0 -0.75 -0.55 -0.75 -2 0 -1.95 0.05 -2 1.75 -2 1.60 0 1.75 0.10 1.75 1.50 0 0.85 0.15 1.50 0.40 1.50 0.75 0 1.45 -0.80 1.80 -1.85 0.20 -0.65 0.55 -1.15 0.75 -1.15 0.20 0 1.05 -0.55 1.85 -1.25 0.80 -0.70 1.75 -1.25 2.10 -1.25 0.30 0 0.60 -0.45 0.60 -0.95 0 -0.55 0.65 -1.50 1.40 -2.15 0.80 -0.65 1.60 -1.80 1.75 -2.50 0.30 -1.20 0.20 -1.35 -1 -1.50 -0.90 -0.10 -1.75 0.25 -2.50 1 -0.75 0.70 -1.70 1.10 -2.90 1.10 -2.10 0 -2.25 -0.70 -0.35 -1.70 2.35 -1.20 2.75 -2 1.60 -3.05 -0.75 -0.65 -1.45 -0.80 -2.85 -0.60 -2.35 0.40 -3.60 2 -3.65 4.50 0 1.85 0.65 2.50 1.20 1.10 0.15 -0.40 0.50 -0.75 0.80 -0.75 0.55 0 0.65 1.60 0.20 3.90 -0.30 1.45 -0.35 1.50 -4.25 1.80 l-3.95 0.35 0 1.50 c0 2.30 -1.10 1.65 -2.75 -1.65 -2 -4 -1.95 -3.90 -1.05 -3.90 0.45 0 0.80 -0.30 0.80 -0.70 0 -0.40 0.55 -0.85 1.25 -1 1.20 -0.30 1.80 -1.30 0.75 -1.30 -0.25 0 -0.50 -0.35 -0.50 -0.75 0 -0.45 -0.55 -1.05 -1.25 -1.35 -1.55 -0.70 -1.65 -1.90 -0.10 -1.90 0.85 0 1.50 0.60 2.35 2.10 0.65 1.15 1.25 1.85 1.40 1.50 0.10 -0.35 -0.50 -1.50 -1.35 -2.55 -0.85 -1.05 -1.55 -2.30 -1.55 -2.80 0 -0.65 -0.30 -0.75 -1.40 -0.50 -1.35 0.25 -1.40 0.20 -1.40 -1.50 0 -0.95 0.20 -1.75 0.40 -1.75 0.20 0 0.40 -0.35 0.40 -0.75 0 -1.40 3.60 -4.75 6.75 -6.25 3.05 -1.45 4.75 -1.55 4.75 -0.25 0 0.65 -3.65 2.25 -5.10 2.25 -0.40 0 -0.90 0.45 -1.05 1 -0.20 0.70 -0.70 1 -1.75 1 -1.40 0 -1.50 0.15 -1.70 2 -0.10 1.40 0 2 0.45 2 0.35 0 0.65 0.45 0.65 1 0 0.55 0.25 1 0.50 1 0.30 0 0.50 0.45 0.50 1 0 0.55 0.35 1 0.75 1 0.40 0 0.75 0.35 0.75 0.75 0 0.40 0.45 0.75 1 0.75 0.70 0 1.05 0.45 1.25 1.90 0.50 2.75 0.65 3.05 0.70 1.15 0.10 -3.10 2.70 -6.05 5.35 -6.05 0.40 0 0.70 0.35 0.70 0.75 0 0.55 0.55 0.75 2 0.75 1.45 0 2 -0.20 2 -0.75 0 -0.55 0.55 -0.75 1.90 -0.75 2.25 0 3.35 1.45 3 3.95 -0.20 1.35 -0.10 1.55 1 1.55 1.15 0 1.20 0.15 0.85 1.90 -0.45 2.55 -2.30 5.75 -3.65 6.35 -0.60 0.25 -1.10 0.75 -1.10 1.05 0 0.30 -0.30 0.85 -0.70 1.15 -0.40 0.30 -0.85 1.80 -1.05 3.30 -0.20 1.60 -0.55 2.75 -0.90 2.75 -0.40 0 -0.40 0.15 -0.10 0.40 0.30 0.20 1 1.30 1.65 2.50 l1.15 2.10 -1.05 0 c-1.45 0 -2.50 -1.15 -2.50 -2.75 0 -1.80 -0.90 -1.10 -1.30 1 -0.40 2.20 -1.95 2.45 -2.35 0.40z m-2.60 -6.70 c-0.45 -0.85 -0.95 -1.45 -1.10 -1.30 -0.25 0.25 1.25 2.85 1.65 2.85 0.15 0 -0.15 -0.70 -0.55 -1.55z m11.20 -7.70 c0.85 -1 1.55 -2.05 1.55 -2.40 0 -0.35 -0.25 -0.15 -0.55 0.40 -0.30 0.55 -1.70 2.10 -3.10 3.40 -1.60 1.50 -2 2.05 -1.05 1.40 0.90 -0.55 2.30 -1.85 3.15 -2.80z m-17.95 0.25 c0 -0.55 -0.20 -1 -0.50 -1 -0.25 0 -0.50 -0.35 -0.50 -0.75 0 -0.40 -0.25 -0.75 -0.55 -0.75 -0.30 0 -0.40 0.35 -0.25 0.80 0.15 0.45 0.30 1.20 0.30 1.75 0 0.50 0.35 0.95 0.75 0.95 0.40 0 0.75 -0.45 0.75 -1z m2.30 -1.85 c-0.55 -0.55 -0.95 0.30 -0.55 1.20 0.40 0.85 0.40 0.85 0.60 0 0.15 -0.50 0.10 -1.05 -0.05 -1.20z"/>
  <path d="M14.70 35.15 c-2.45 -5.45 -2.40 -5.15 -0.30 -5.10 1.65 0 1.70 0.05 0.70 0.50 l-1.15 0.45 1.15 2.05 c0.60 1.10 1.55 2.25 2 2.50 1.25 0.70 1.15 2.45 -0.10 2.45 -0.75 0 -1.35 -0.75 -2.30 -2.85z"/>
  <path d="M15.75 33 c-0.45 -0.80 -0.65 -1.50 -0.50 -1.50 0.55 0 2.25 1.75 2.25 2.35 0 1.15 -0.95 0.70 -1.75 -0.85z"/>
  <path d="M20.75 18 c0.55 -0.60 1 -1.25 1 -1.40 0 -0.60 3.40 -0.35 3.60 0.25 0.25 0.75 -1.10 1.45 -3.60 1.95 l-2 0.35 1 -1.15z"/>
  <path d="M18.50 10.45 c0 -1.35 0.15 -1.45 1.75 -1.45 0.95 0 1.75 -0.20 1.75 -0.50 0 -0.25 0.90 -0.50 2 -0.50 2.70 0 2.80 1.35 0.15 1.75 -1.05 0.15 -2.75 0.70 -3.75 1.20 l-1.90 0.95 0 -1.45z"/>
  <path d="M33 8.75 c0 -1.95 0.70 -2.30 1.50 -0.80 0.80 1.55 0.60 2.55 -0.50 2.55 -0.80 0 -1 -0.35 -1 -1.75z"/>
  <path d="M29 5.05 c0 -0.30 -1.20 -0.55 -2.60 -0.65 -2.45 -0.15 -2.65 -0.25 -2.80 -1.55 -0.15 -1.30 -0.10 -1.35 1.60 -1.10 2.25 0.25 5.85 1.85 6.75 2.90 0.60 0.75 0.50 0.85 -1.15 0.85 -1 0 -1.80 -0.20 -1.80 -0.45z"/>
 </g>
 <g fill="#683f51">
  <path d="M14.50 33.90 c-0.55 -0.60 -1 -1.70 -1 -2.50 0 -1.30 0.15 -1.40 1.90 -1.40 2.40 0 3.60 1.20 3.60 3.55 l0 1.70 -1.15 -1.95 c-1.30 -2.35 -2.60 -3.25 -3.35 -2.50 -0.40 0.40 -0.25 1.05 0.50 2.40 1.25 2.05 1.05 2.35 -0.50 0.70z"/>
  <path d="M15.75 33 c-0.45 -0.80 -0.60 -1.50 -0.35 -1.50 0.60 0 2.10 1.70 2.10 2.40 0 1.10 -0.95 0.60 -1.75 -0.90z"/>
  <path d="M14.85 17.65 c-0.20 -0.15 -0.35 -1.05 -0.35 -2 0 -1.30 0.20 -1.65 1 -1.65 0.60 0 0.85 0.25 0.70 0.70 -0.15 0.40 -0.05 0.85 0.25 1.05 0.95 0.55 0.65 2.25 -0.35 2.25 -0.50 0 -1.10 -0.15 -1.25 -0.35z"/>
  <path d="M29 12.35 c0 -0.40 -0.60 -0.95 -1.30 -1.25 -0.75 -0.35 -1.10 -0.85 -0.90 -1.20 0.25 -0.40 -0.35 -0.50 -2.20 -0.25 l-2.60 0.30 0 -1.70 c0 -1.65 0.10 -1.75 1.65 -1.75 2.90 0 5.05 0.90 5.75 2.35 0.70 1.60 0.80 4.15 0.10 4.15 -0.25 0 -0.50 -0.30 -0.50 -0.65z"/>
 </g>
 <g fill="#606362">
  <path d="M23.15 38.50 c0 -1.10 0.60 -2.25 2 -3.75 1.05 -1.25 1.80 -2.25 1.65 -2.25 -0.10 0 -1.65 1.25 -3.40 2.75 -2.60 2.25 -3.45 2.75 -5 2.75 -1.85 0 -3.40 -1 -3.40 -2.20 0 -0.35 -0.65 -2 -1.50 -3.60 -0.80 -1.60 -1.50 -3.40 -1.50 -3.95 0 -0.60 -0.25 -1.30 -0.60 -1.65 -0.45 -0.45 -0.25 -0.60 1 -0.60 0.90 0 1.60 -0.20 1.60 -0.50 0 -0.25 -0.45 -0.50 -1 -0.50 -0.85 0 -1 -0.35 -1 -2.15 0 -1.20 0.25 -2.40 0.50 -2.65 0.75 -0.75 -0.75 -3.50 -2.15 -3.90 -1 -0.30 -1.05 -0.35 -0.20 -0.85 0.45 -0.25 1.10 -0.35 1.35 -0.20 0.80 0.50 2.50 4.30 2.60 5.70 0 0.70 0.20 0.30 0.35 -0.95 0.25 -1.90 0.10 -2.40 -0.90 -3.50 -0.65 -0.70 -1.50 -2 -1.90 -2.90 -0.60 -1.45 -0.80 -1.55 -1.70 -1.05 -0.55 0.30 -1.10 0.45 -1.25 0.35 -0.10 -0.10 0.20 -1.50 0.65 -3.05 0.65 -2.35 1.25 -3.25 3.10 -4.80 3.15 -2.55 4.05 -2.85 4.05 -1.30 0 1 -0.25 1.25 -1.25 1.25 -0.90 0 -1.25 0.25 -1.25 1 0 0.65 -0.35 1 -0.95 1 -1.30 0 -1.70 2.35 -0.60 3.45 1.20 1.20 2.05 0.75 2.05 -1 0 -1.35 0.10 -1.45 2 -1.45 1.95 0 2 0.05 2 1.75 0 1.20 -0.25 1.75 -0.75 1.75 -0.45 0 -0.75 0.45 -0.75 1.20 0 0.70 -0.20 1.40 -0.50 1.55 -0.25 0.15 -0.50 1.15 -0.45 2.15 0 1.45 0.10 1.60 0.40 0.85 0.30 -0.75 0.50 -0.30 0.75 1.85 0.25 1.95 0.75 3.20 1.55 4.10 1.05 1.15 1.10 1.30 0.30 1.30 -0.50 0 -1.05 0.45 -1.20 1 -0.20 0.75 -0.70 1 -2.10 1 -1.60 0 -1.80 0.15 -1.65 1.15 0.15 1.05 0.35 1.10 3.55 0.95 3.05 -0.15 3.35 -0.10 3.35 0.80 0 1.45 1.90 0.85 2.30 -0.75 0.25 -0.90 0.85 -1.35 2.50 -1.75 1.20 -0.35 2.20 -0.90 2.20 -1.25 0 -0.35 0.25 -0.65 0.50 -0.65 0.30 0 0.50 -0.30 0.50 -0.70 0 -0.35 0.35 -0.95 0.75 -1.30 0.40 -0.35 0.75 -1.05 0.75 -1.55 0 -0.55 0.35 -0.95 0.75 -0.95 0.40 0 0.75 -0.45 0.75 -1 0 -0.75 -0.35 -1 -1.25 -1 -0.70 0 -1.25 -0.20 -1.25 -0.50 0 -0.25 -0.55 -0.50 -1.25 -0.50 -0.75 0 -1.25 -0.30 -1.25 -0.70 0 -0.40 -0.65 -1 -1.50 -1.40 -2.10 -0.90 -1.85 -1.75 0.65 -2.05 5.45 -0.70 5.20 -0.50 5.60 -4.65 0.30 -3.35 0.45 -3.65 1.10 -3.10 1.10 0.90 2.15 3.55 2.15 5.40 0 1.35 -0.15 1.50 -1.50 1.50 -1.25 0 -1.50 0.20 -1.50 1.25 0 1 0.25 1.25 1.20 1.25 1.05 0 1.25 0.30 1.55 2.25 0.50 3.40 -0.85 6.80 -4 10.25 l-2.60 2.85 0.05 3.85 0.05 3.90 -1.60 -0.25 c-1.50 -0.25 -1.65 -0.15 -1.65 0.95 0 0.85 -0.30 1.20 -0.90 1.20 -0.70 0 -0.95 -0.40 -0.95 -1.50z m-0.65 -3.20 c0 -0.35 -0.45 -0.80 -1 -0.95 -0.75 -0.20 -1 0 -1 0.70 0 0.60 0.35 0.95 1 0.95 0.55 0 1 -0.30 1 -0.70z m-4.25 -1.15 c-0.60 -2.50 -3.15 -4.50 -4 -3.15 -0.50 0.85 2.15 4.50 3.30 4.50 0.90 0 1 -0.20 0.70 -1.35z m2.75 -0.95 c0 -0.15 -0.60 -1.10 -1.30 -2.10 -1.30 -1.85 -1.35 -1.55 -0.10 1 0.55 1.25 1.40 1.90 1.40 1.10z m5 -3.70 c0 -0.70 -1.40 -0.05 -1.70 0.80 -0.20 0.60 -0.10 0.60 0.70 0.20 0.55 -0.30 1 -0.75 1 -1z m3.85 -3.60 c2.50 -2.60 4.50 -5.75 3.95 -6.25 -0.15 -0.15 -0.55 0.35 -0.85 1.15 -0.35 0.80 -2 2.85 -3.65 4.60 -1.65 1.70 -2.80 3.10 -2.50 3.10 0.25 0 1.65 -1.20 3.05 -2.60z m-13.45 -2.55 c0.10 -0.50 -0.15 -0.85 -0.60 -0.85 -0.50 0 -0.80 0.45 -0.80 1.05 0 1.20 1.15 1.05 1.40 -0.20z m14.45 -7.85 c-0.55 -0.90 -1.65 -1.45 -1.20 -0.60 0.10 0.20 0.35 0.75 0.50 1.25 0.20 0.50 0.55 0.80 0.85 0.60 0.30 -0.20 0.25 -0.65 -0.15 -1.25z"/>
  <path d="M28.50 39.20 c0 -0.70 0.15 -0.70 0.75 -0.20 0.40 0.35 0.75 0.70 0.75 0.80 0 0.10 -0.35 0.20 -0.75 0.20 -0.40 0 -0.75 -0.35 -0.75 -0.80z"/>
  <path d="M20.50 24.85 c0 -0.40 -0.55 -1.20 -1.25 -1.85 -2.75 -2.60 -0.55 -9.50 3 -9.50 1.60 0 1.65 1.30 0.05 1.70 -1.90 0.45 -3.20 2.70 -2.90 4.95 0.20 1.75 1.10 2.65 1.10 1.10 0 -0.40 0.80 -1.10 1.80 -1.50 2.30 -0.95 2.20 -0.95 2.20 0.45 0 0.90 -0.35 1.30 -1.10 1.45 l-1.15 0.20 1.15 0.10 c0.90 0.05 1.10 0.35 1.10 1.80 0 1.70 -0.05 1.75 -2 1.75 -1.35 0 -2 -0.20 -2 -0.65z"/>
  <path d="M9.60 23.50 c-0.90 -1.45 -0.75 -2.50 0.40 -2.50 0.80 0 1 0.35 1 1.75 0 1.95 -0.45 2.20 -1.40 0.75z"/>
  <path d="M20.60 18.40 c0.40 -1.20 2.75 -2.50 3.85 -2.15 1.40 0.45 1.35 0.85 -0.40 1.90 -1.70 1 -3.75 1.15 -3.45 0.25z"/>
  <path d="M19 10.10 c0 -1.35 0.20 -1.55 2 -1.85 1.45 -0.25 2.20 -0.15 2.75 0.45 0.70 0.70 0.55 0.80 -1.35 1.35 -1.20 0.30 -2.45 0.80 -2.75 1.05 -0.50 0.40 -0.65 0.15 -0.65 -1z"/>
  <path d="M25 3.95 c-1.80 -0.50 -3.75 -0.95 -4.35 -0.95 -0.80 0 -1.15 -0.30 -1.15 -0.95 0 -0.80 0.30 -0.90 2.35 -0.70 1.30 0.10 2.75 0.50 3.20 0.95 0.65 0.60 0.90 0.60 1.05 0.10 0.20 -0.55 0.50 -0.55 1.55 0 0.75 0.30 1.90 0.85 2.60 1.20 3.40 1.55 -0.25 1.85 -5.25 0.35z"/>
 </g>
 <g fill="#7a767b">
  <path d="M25.95 37.90 c-0.05 -1.95 -0.10 -2 -0.40 -0.65 -0.35 1.70 -1.85 2.30 -2.15 0.90 -0.10 -0.55 0.70 -1.95 2 -3.50 1.25 -1.45 2.05 -2.65 1.85 -2.65 -0.20 0 -1.70 1.25 -3.30 2.75 -1.95 1.80 -3.25 2.60 -3.75 2.40 -0.45 -0.15 -1 0 -1.20 0.40 -0.90 1.35 -3.05 -0.10 -4.30 -2.90 -1.25 -2.90 -0.70 -3.70 0.65 -0.90 0.90 1.85 2.50 2.75 3.15 1.75 0.65 -1.05 -2.05 -5 -3.35 -5 -0.65 0 -1.15 0.25 -1.15 0.50 0 0.30 -0.20 0.50 -0.45 0.50 -0.45 0 -1.30 -2.40 -1.10 -3.20 0.05 -0.25 -0.25 -0.80 -0.60 -1.25 -1.35 -1.50 -2.85 -5 -2.85 -6.60 0 -1.50 0.05 -1.55 0.90 -0.80 1.55 1.40 4.10 0.65 2.65 -0.80 -0.70 -0.70 -0.70 -1.35 -0.05 -1.35 0.30 0 0.50 0.35 0.50 0.75 0 0.40 0.25 0.75 0.55 0.75 0.40 0 0.50 0.70 0.30 2.25 -0.25 1.70 -0.15 2.25 0.35 2.25 0.40 0 0.85 0.35 1 0.80 0.15 0.40 0.50 0.60 0.80 0.45 0.25 -0.15 0.50 -0.05 0.50 0.20 0 0.30 -0.90 0.55 -2 0.55 -1.45 0 -2 0.20 -2 0.75 0 0.40 0.35 0.75 0.75 0.75 0.40 0 0.75 0.15 0.75 0.40 0 0.20 1.35 0.25 3 0.20 2.50 -0.15 3 -0.05 3 0.60 0 0.45 0.35 0.80 0.75 0.80 0.40 0 0.75 0.30 0.75 0.65 0.05 0.35 0.30 0.25 0.70 -0.25 0.35 -0.50 1.15 -0.90 1.75 -0.90 0.60 0 1.05 -0.30 1.05 -0.75 0 -0.50 -0.50 -0.75 -1.70 -0.75 -0.95 0 -1.90 -0.20 -2.05 -0.50 -0.15 -0.25 -0.95 -0.50 -1.80 -0.50 -1.10 0 -1.45 -0.25 -1.45 -1 0 -0.55 -0.35 -1 -0.75 -1 -0.40 0 -0.75 -0.35 -0.75 -0.75 0 -0.35 -0.35 -0.90 -0.75 -1.10 -0.40 -0.25 -0.80 -1.35 -0.90 -2.50 -0.10 -1.15 -0.70 -2.70 -1.30 -3.50 -0.65 -0.75 -1.45 -2.15 -1.85 -3.05 -0.65 -1.60 -0.70 -1.65 -1.55 -0.80 -0.85 0.80 -0.90 0.80 -1.05 0.05 -0.10 -0.50 0.20 -1.95 0.65 -3.30 0.60 -1.85 1.40 -2.90 3.15 -4.25 1.25 -1 2.90 -1.95 3.60 -2.15 0.70 -0.15 1.65 -0.55 2.10 -0.90 1.30 -0.90 3.90 -0.35 3.90 0.80 0 0.75 -0.35 0.95 -2 0.95 -1.90 0 -2 0.10 -2 1.50 l0 1.50 3.25 0 c2.90 0 3.25 -0.10 3.25 -1 0 -0.55 -0.35 -1 -0.75 -1 -0.50 0 -0.75 -0.50 -0.75 -1.55 0 -1.55 0.05 -1.55 1.20 -0.80 0.90 0.60 1.30 0.65 1.75 0.20 0.40 -0.40 0.70 -0.45 0.95 -0.05 0.20 0.30 0.95 0.70 1.70 0.90 0.75 0.15 2 0.85 2.75 1.55 l1.40 1.20 -2.45 0.05 -2.45 0 0.35 1.90 c0.15 1 0.30 2.25 0.30 2.75 0 0.45 0.35 0.85 0.75 0.85 0.40 0 0.75 0.45 0.75 1 0 0.60 0.35 1 0.80 1 1.25 0 2.20 1.30 2.20 2.95 0 1.45 -0.15 1.55 -1.75 1.55 -0.95 0 -1.75 -0.20 -1.75 -0.50 0 -0.25 -0.60 -0.50 -1.40 -0.50 -0.80 0 -1.60 -0.40 -2 -1 -0.60 -1 -3.50 -1.40 -5.35 -0.70 -1.30 0.50 -2.25 2.90 -1.90 4.90 0.30 2 0.90 2.35 1.40 0.80 0.15 -0.55 0.65 -1 1 -1 0.40 0 1.70 -0.55 2.95 -1.20 l2.30 -1.20 0 1.45 c0 1.30 -0.20 1.45 -2 1.75 -2.05 0.35 -2.80 1.20 -1 1.20 0.70 0 1.05 0.45 1.25 1.70 0.30 1.40 0.50 1.65 1.40 1.40 0.60 -0.15 1.60 -0.60 2.20 -1 2.65 -1.70 1.95 -0.05 -1.35 3.10 -1.95 1.85 -3.45 3.50 -3.35 3.65 0.45 0.40 3.65 -2 4.15 -3.05 0.25 -0.60 0.80 -1 1.15 -0.90 0.35 0.05 0.50 -0.10 0.35 -0.35 -0.15 -0.25 0.30 -0.80 1 -1.30 0.70 -0.45 1.75 -1.85 2.30 -3.15 0.75 -1.65 1.10 -2.10 1.25 -1.45 0.15 0.50 -0.10 1.45 -0.55 2.10 -0.45 0.65 -0.80 1.50 -0.80 1.85 0 0.40 -1.10 1.75 -2.45 3.05 -2.30 2.25 -2.45 2.55 -2.70 5.50 -0.15 2.45 -0.05 3.45 0.70 4.65 1.25 2.10 1.25 2.20 -0.80 2.20 -1.70 0 -1.75 -0.05 -1.80 -2.10z m-2.10 -4.90 c-0.10 -1.75 -0.60 -1.90 -1.35 -0.50 -0.75 1.45 -1.15 1.25 -2.45 -1.05 -1.55 -2.70 -1.90 -2.15 -0.45 0.75 0.95 2.05 1.30 2.30 2.75 2.30 1.50 0 1.60 -0.10 1.50 -1.50z m-4.85 -10.55 c-1.45 -2 -1.05 -5.10 0.95 -7.50 1.35 -1.60 1.60 -1.70 5.25 -1.85 3.95 -0.20 4.90 -0.90 2.85 -2.20 -0.50 -0.30 -0.85 -0.85 -0.70 -1.20 0.15 -0.40 -0.50 -0.85 -1.65 -1.15 -1.95 -0.55 -2.95 -0.30 -1.75 0.40 0.45 0.30 0.05 0.55 -1.30 0.80 -1.50 0.25 -2.60 0.95 -4.40 2.75 -2.25 2.30 -2.40 2.55 -1.85 3.75 0.35 0.70 0.60 2 0.60 2.90 0 1.70 1.65 4.85 2.55 4.85 0.25 0 0.05 -0.70 -0.55 -1.55z m13.10 -6 c-0.65 -0.25 -1.30 -0.90 -1.45 -1.45 -0.35 -1.25 -0.40 -1.25 -1.70 0.05 -1 1 -1 1.05 -0.05 0.75 0.65 -0.20 1.10 -0.05 1.30 0.45 0.15 0.45 0.85 0.75 1.65 0.70 1.40 0 1.40 0 0.25 -0.50z m-18.20 -6.55 c1.40 -1.40 0.05 -2.80 -1.60 -1.65 -0.75 0.60 -0.80 0.80 -0.25 1.45 0.85 0.95 1.10 0.95 1.85 0.20z"/>
  <path d="M16.15 33.65 c-0.15 -0.50 -0.40 -1.10 -0.55 -1.40 -0.15 -0.25 0.20 -0.05 0.80 0.45 1.20 1 1.40 1.80 0.60 1.80 -0.30 0 -0.65 -0.40 -0.85 -0.85z"/>
  <path d="M31.50 21.65 c0 -1.15 0.25 -1.65 0.75 -1.65 0.90 0 0.90 0.40 0 2 l-0.70 1.25 -0.05 -1.60z"/>
  <path d="M21.15 18.65 c0.45 -0.10 0.85 -0.40 0.85 -0.65 0 -0.50 2.95 -1.20 3.35 -0.80 0.40 0.40 -3.05 1.80 -4.20 1.75 -0.85 -0.05 -0.85 -0.10 0 -0.30z"/>
  <path d="M10.30 16.05 c-0.15 -0.25 0.05 -0.55 0.45 -0.75 0.45 -0.15 0.75 0 0.75 0.45 0 0.80 -0.80 1 -1.20 0.30z"/>
  <path d="M31.65 12.25 c-0.35 -0.40 -0.65 -1.50 -0.65 -2.40 0 -1.50 0.20 -1.75 1.40 -2 1.75 -0.35 2.60 0.70 2.60 3.25 0 1.75 -0.10 1.90 -1.35 1.90 -0.80 -0.05 -1.70 -0.35 -2 -0.75z"/>
 </g>
 <g fill="#738f70">
  <path d="M23.30 19.60 c1.15 -0.45 2.45 -1.15 2.90 -1.55 0.70 -0.60 0.80 -0.55 0.80 0.15 0 0.95 -2.80 2.30 -4.60 2.25 -0.85 0 -0.65 -0.20 0.90 -0.85z"/>
  <path d="M21.80 17.45 c1.20 -1.15 1.85 -1.45 2.65 -1.20 1.55 0.45 1.30 1.20 -0.70 2.05 -3 1.25 -3.70 0.90 -1.95 -0.85z"/>
  <path d="M22.40 14.65 c0.60 -0.10 1.50 -0.10 2 0 0.45 0.15 -0.05 0.25 -1.15 0.20 -1.10 0 -1.50 -0.10 -0.85 -0.20z"/>
 </g>
 <g fill="#88878b">
  <path d="M23.50 38.55 c0 -0.90 0.70 -2.30 2 -3.95 2.75 -3.45 2.50 -3.70 -0.60 -0.75 -3.95 3.70 -5.10 4.30 -7.15 3.95 -1.35 -0.25 -1.90 -0.70 -2.30 -1.70 -0.25 -0.75 -0.90 -2.15 -1.40 -3.10 -0.50 -0.95 -1.10 -2.55 -1.30 -3.50 -0.20 -0.95 -0.60 -2.05 -0.90 -2.40 -1.95 -2.40 -4 -8.95 -2.25 -7.20 0.35 0.35 1.25 0.60 2.05 0.60 1.30 0 1.45 -0.10 1.15 -1.30 -0.30 -1.15 -0.25 -1.25 0.35 -0.60 0.50 0.50 0.65 1.40 0.50 2.95 -0.20 2 -0.10 2.25 1.05 2.75 1.45 0.70 1.80 0.45 1.80 -1.15 0 -0.70 -0.30 -1.15 -0.75 -1.15 -0.50 0 -0.75 -0.55 -0.80 -1.60 -0.10 -2.50 -0.10 -2.55 -1.55 -4.45 -0.80 -1 -1.40 -2.05 -1.40 -2.40 0 -0.30 -0.25 -1 -0.60 -1.50 -0.55 -0.90 -0.65 -0.90 -1.20 -0.15 -1 1.35 -1.30 0.35 -0.65 -2 1.20 -4.25 5.95 -7.85 10.80 -8.20 l2.65 -0.20 0 1.75 c0 2.35 1.50 2.50 1.55 0.15 0 -0.90 0.15 -1.35 0.30 -1.05 0.15 0.40 0.70 0.55 1.40 0.35 0.60 -0.15 1.30 -0.05 1.50 0.25 0.15 0.30 0.55 0.45 0.80 0.30 0.50 -0.35 3.45 1.25 3.45 1.80 0 0.20 -0.75 0.50 -1.65 0.65 -1.95 0.35 -3.50 2.30 -1.85 2.30 0.55 0 1 0.30 1 0.70 0 0.40 0.35 0.80 0.75 1 0.55 0.20 0.75 -0.05 0.75 -0.95 0 -1.05 0.25 -1.25 1.50 -1.25 1.20 0 1.65 0.30 2 1.30 0.70 1.80 0.60 5.55 -0.10 5.85 -0.50 0.20 -0.50 0.30 0 0.30 0.95 0.05 0.75 4.20 -0.40 7.40 -0.70 2.05 -1.70 3.55 -3.50 5.25 -1.35 1.30 -2.50 2.55 -2.50 2.75 -0.05 0.25 -0.10 1.75 -0.25 3.35 -0.15 2.40 0 3.25 0.80 4.20 1.35 1.75 1.20 2.10 -0.75 2.10 -1.40 0 -1.75 -0.20 -1.95 -1.10 l-0.20 -1.15 -0.10 1.15 c-0.05 0.75 -0.35 1.10 -1.05 1.10 -0.75 0 -1 -0.35 -1 -1.45z m-4.75 -3.05 c0.20 -0.30 -0.25 -1.55 -1 -2.75 -0.95 -1.70 -1.60 -2.25 -2.50 -2.25 -0.70 0 -1.25 0.20 -1.25 0.50 0 0.40 1.10 2.55 2.35 4.65 0.30 0.55 2.05 0.45 2.40 -0.15z m2.25 -2.25 c0 -0.65 -1.50 -3.10 -2.20 -3.70 -1.10 -0.90 -1 -0.30 0.30 2 0.95 1.70 1.90 2.55 1.90 1.70z m3.40 -1.60 c0.85 -0.80 2.20 -1.90 3.05 -2.55 0.85 -0.65 1.40 -1.40 1.25 -1.70 -0.25 -0.35 -0.10 -0.40 0.25 -0.20 0.95 0.60 4.20 -4.15 4.80 -6.95 0.25 -1.35 0.20 -1.30 -0.80 0.50 -0.60 1.10 -3.15 4.10 -5.75 6.60 -4.05 4 -5.35 5.65 -4.50 5.65 0.15 0 0.90 -0.60 1.70 -1.35z m-1.10 -2 c1.20 -1.60 0.85 -2.05 -1.05 -1.45 -1.15 0.35 -1.75 0.85 -1.75 1.40 0 1.20 1.90 1.20 2.80 0.05z m5 -5.15 c0.95 0 1.70 -0.20 1.70 -0.50 0 -0.25 -0.45 -0.50 -0.95 -0.50 -0.55 0 -1.30 -0.30 -1.70 -0.70 -1.10 -1.10 -1.65 -0.10 -1.40 2.30 0.20 1.70 0.30 1.85 0.45 0.80 0.15 -1.20 0.40 -1.40 1.90 -1.40z m-4.75 0.55 c-0.35 -0.25 -0.50 -0.70 -0.35 -1 0.25 -0.35 -0.05 -0.55 -0.65 -0.55 -0.60 0 -1.05 0.15 -1.05 0.30 0 0.45 1.65 1.65 2.25 1.70 0.30 0 0.20 -0.20 -0.20 -0.45z m-4.30 -2.45 c-1.15 -1.15 -1.25 -1.55 -0.95 -3.55 0.40 -2.50 1.85 -4.85 3.30 -5.35 0.50 -0.15 2.40 -0.30 4.15 -0.30 2.80 0 3.25 -0.15 3.25 -0.95 0 -0.50 -0.25 -1.05 -0.55 -1.20 -0.25 -0.20 -0.70 -0.90 -0.95 -1.50 -0.30 -0.85 -1 -1.30 -2.25 -1.55 -1.95 -0.35 -2.90 0.10 -1.75 0.80 0.50 0.30 0.20 0.50 -1.10 0.75 -1.15 0.20 -2.65 1.15 -4.10 2.55 -2.25 2.15 -2.80 3.35 -1.80 3.95 0.30 0.15 0.50 1.35 0.50 2.60 0 1.70 0.35 2.75 1.30 4 0.70 0.90 1.50 1.55 1.75 1.35 0.30 -0.15 -0.10 -0.85 -0.80 -1.60z m1.70 -1.50 c0.25 -0.45 1.30 -1.15 2.40 -1.55 2.05 -0.75 3.65 -1.90 3.65 -2.70 0 -1.40 -1.50 -2.15 -3.85 -1.85 -1.95 0.20 -2.50 0.50 -3.25 1.75 -0.60 1.10 -0.80 2.10 -0.55 3.40 0.30 2 0.85 2.35 1.60 0.95z m10.55 -2.55 c0 -0.60 -1.05 -0.95 -1.85 -0.65 -1.10 0.40 -0.70 1.10 0.60 1.10 0.70 0 1.25 -0.20 1.25 -0.45z m0.65 -2.15 c-0.65 -0.30 -1.15 -0.70 -1.15 -0.85 0 -0.15 -0.20 -0.60 -0.45 -1 -0.35 -0.55 -0.65 -0.50 -1.60 0.45 -1.15 1.05 -1.15 1.10 -0.15 0.80 0.75 -0.20 1.20 -0.10 1.40 0.45 0.15 0.45 0.85 0.75 1.65 0.70 1.35 0 1.40 -0.05 0.30 -0.55z m-16.65 -3 c0.90 -2.75 2.05 -4.35 3.10 -4.40 1 0 1.75 -1 0.80 -1 -1.30 0 -3.40 1.25 -3.40 2.05 0 1 -1.70 2.60 -2.25 2.10 -0.20 -0.25 -0.25 0.15 -0.10 0.85 0.20 0.70 0.35 1.55 0.35 1.90 0 1.35 0.90 0.50 1.50 -1.50z m18 -3.15 c-0.35 -0.45 -0.75 -0.65 -0.90 -0.50 -0.15 0.10 0.05 0.55 0.40 1 0.35 0.45 0.75 0.65 0.90 0.50 0.15 -0.10 -0.05 -0.55 -0.40 -1z m-16.50 -5.90 c0 -0.30 -0.45 -0.10 -1 0.40 -0.55 0.50 -1 1.15 -1 1.40 0 0.30 0.45 0.10 1 -0.40 0.55 -0.50 1 -1.15 1 -1.40z"/>
 </g>
 <g fill="#95959a">
  <path d="M23.75 38.50 c0.15 -1.35 3.40 -6.50 4.10 -6.50 0.15 0 0.10 0.60 -0.10 1.40 -0.25 0.75 -0.35 2.55 -0.30 4 l0.10 2.60 -2 0 c-1.95 0 -2 -0.05 -1.80 -1.50z"/>
  <path d="M28 38.95 c0 -0.55 0.25 -0.85 0.50 -0.70 0.30 0.15 0.50 0.65 0.50 1.05 0 0.40 -0.20 0.70 -0.50 0.70 -0.25 0 -0.50 -0.45 -0.50 -1.05z"/>
  <path d="M17.40 37.65 c-1 -0.25 -0.65 -1.65 0.40 -1.65 1.40 0 1.25 -1.45 -0.30 -3.70 -2.40 -3.55 -4.70 -2.65 -2.55 1 0.60 1 1 1.90 0.90 2.05 -0.40 0.40 -2.40 -3.50 -2.95 -5.80 -0.35 -1.25 -0.85 -2.65 -1.20 -3.05 -0.30 -0.40 -1.05 -1.70 -1.65 -2.85 -1.20 -2.40 -1 -3.90 0.45 -3.15 1 0.55 2.50 0.20 2.50 -0.55 0 -0.25 0.20 -0.45 0.45 -0.45 0.25 0 0.25 0.75 -0.05 1.70 -0.65 2.05 -0.25 3.40 0.85 3 0.40 -0.15 0.75 -0.05 0.75 0.25 0 0.30 0.35 0.55 0.75 0.55 0.50 0 0.75 -0.50 0.75 -1.50 0 -1.05 -0.25 -1.50 -0.80 -1.50 -0.60 0 -0.75 -0.45 -0.65 -2.15 0.10 -1.80 -0.10 -2.45 -1.20 -3.65 -1.25 -1.35 -2.35 -3.95 -2.35 -5.65 0 -0.55 -0.15 -0.55 -0.75 -0.05 -0.40 0.35 -0.75 0.95 -0.75 1.30 0 0.40 -0.20 0.70 -0.50 0.70 -0.70 0 -0.65 -0.40 0.40 -3.15 1.10 -2.90 2.10 -4.05 2.10 -2.45 0 1.45 0.80 1.40 1.25 0 0.35 -1 0.45 -0.90 0.75 0.85 0.20 1.10 0.40 1.65 0.45 1.20 0.05 -0.90 3.10 -3.95 3.95 -3.95 0.95 0 0.70 1.05 -0.35 1.35 -0.55 0.15 -0.90 0.50 -0.75 0.85 0.30 0.80 -2.30 3.60 -3.10 3.40 -1 -0.20 -1.30 1.75 -0.65 3.65 0.75 2.05 1.25 2.20 1.65 0.60 0.45 -1.85 3.25 -5.70 4.30 -6 1.15 -0.30 1.35 -1.35 0.30 -1.35 -0.55 0 -0.40 -0.55 0.50 -2.35 0.70 -1.25 0.95 -2.10 0.60 -1.80 -0.55 0.50 -7.40 1.30 -7.40 0.90 0 -0.10 0.95 -0.65 2.05 -1.20 2.80 -1.50 8 -1.90 9.15 -0.80 0.45 0.45 1.15 0.70 1.55 0.55 0.40 -0.15 1.05 0.20 1.50 0.85 0.65 0.90 0.85 0.95 1.20 0.40 0.65 -1 3.45 0.75 4.80 2.95 1.40 2.45 1.45 12.05 0.05 15.75 -0.90 2.40 -1.65 3.35 -8.45 10.25 -4.40 4.45 -5.75 5.25 -7.95 4.65z m3.60 -4.65 c0 -0.30 -0.50 -1.30 -1.10 -2.25 -0.80 -1.20 -1.40 -1.65 -2 -1.45 -0.50 0.15 -1.30 -0.20 -1.85 -0.75 -1.50 -1.50 -2.45 -1.30 -1.05 0.20 0.65 0.70 1.70 1.25 2.35 1.25 0.65 0 1.15 0.25 1.15 0.55 0 0.65 1.65 2.90 2.15 2.95 0.20 0 0.35 -0.25 0.35 -0.50z m2.80 -0.75 c0.20 -0.40 0.60 -0.75 0.95 -0.75 1.25 0 7.60 -6.85 8.50 -9.15 1.10 -2.85 0.70 -4.30 -0.45 -1.65 -0.50 1.20 -2.75 3.85 -5.55 6.60 -2.60 2.55 -4.75 4.85 -4.75 5.15 0 0.80 1 0.65 1.30 -0.20z m-5.15 -6.75 c0.40 0 1 0.35 1.35 0.75 0.50 0.60 0.80 0.60 1.70 0.15 0.55 -0.35 1.45 -0.55 1.95 -0.45 0.45 0.05 0.85 -0.15 0.85 -0.40 0 -0.30 -0.25 -0.55 -0.55 -0.55 -0.30 0 -0.40 -0.45 -0.20 -1.05 0.35 -1 0.20 -1.05 -1.65 -0.70 -1.75 0.30 -2.10 0.15 -3.05 -1.05 -1.10 -1.35 -1.20 -2.35 -0.30 -2.20 0.30 0.05 0.45 0.50 0.40 1.05 -0.15 1.10 1.10 1.30 1.70 0.25 0.20 -0.40 1.50 -1.25 2.85 -1.85 3.25 -1.60 3.90 -2.60 2.50 -4 -1 -0.95 -1.30 -1 -3.50 -0.55 -2.80 0.60 -3.05 0.55 -1.95 -0.60 0.60 -0.60 1.80 -0.80 4.55 -0.80 3.55 0 3.70 -0.05 3.70 -1.20 0 -0.65 -0.35 -1.35 -0.80 -1.50 -0.40 -0.15 -0.65 -0.50 -0.45 -0.75 0.40 -0.75 -1.80 -2.05 -3.40 -2.05 -1.10 0 -1.40 0.20 -1.15 0.75 0.20 0.50 -0.05 0.75 -0.75 0.75 -1 0 -1.05 -0.05 -0.25 -1.25 0.90 -1.40 1 -1.75 0.35 -1.75 -0.25 0 -0.70 0.75 -1.05 1.65 -0.40 0.85 -1.75 2.55 -3.10 3.75 -1.60 1.45 -2.40 2.55 -2.40 3.40 0 0.65 0.25 1.20 0.50 1.20 0.30 0 0.50 1.20 0.50 2.65 0.05 2.05 0.30 2.90 1.30 4 0.85 1 1.50 1.35 2.10 1.10 0.55 -0.20 0.70 -0.15 0.35 0.20 -0.25 0.25 -1.15 0.55 -2 0.65 -1.20 0.10 -1.55 0.40 -1.60 1.40 -0.15 1.25 -0.15 1.25 0.35 0.15 0.25 -0.65 0.80 -1.15 1.15 -1.15z m6.10 -4.50 c0.50 -0.55 1.30 -1.10 1.80 -1.25 0.55 -0.20 0.95 -0.70 0.95 -1.15 0 -0.60 -0.35 -0.45 -1.40 0.55 -0.75 0.75 -1.75 1.35 -2.20 1.35 -0.40 0 -1.05 0.35 -1.40 0.75 -1 1.20 1.15 0.95 2.25 -0.25z m6 0.45 c0.50 -0.75 0.10 -0.95 -1.20 -0.60 -0.85 0.20 -0.95 0.40 -0.45 0.70 0.90 0.60 1.30 0.55 1.65 -0.10z m1.40 -5.45 c-0.90 -0.55 -1.65 -1.35 -1.65 -1.85 0 -0.70 -0.20 -0.65 -1.25 0.35 -1.30 1.20 -1.80 2.55 -0.55 1.55 0.50 -0.45 0.80 -0.40 1.30 0.20 0.35 0.40 1.35 0.75 2.20 0.75 l1.55 0 -1.60 -1z m1.45 -5.60 c-0.70 -1.05 -1.10 -1.35 -1.10 -0.80 0 0.45 0.25 1 0.50 1.15 0.30 0.15 0.50 0.80 0.50 1.40 0 0.80 0.15 0.90 0.55 0.50 0.45 -0.45 0.30 -1 -0.45 -2.25z"/>
 </g>
 <g fill="#a4a7ac">
  <path d="M24.75 38.95 c-0.95 -0.95 -0.95 -1 -0.05 -2.70 0.55 -0.95 1.35 -2.10 1.85 -2.55 0.90 -0.80 0.95 -0.80 0.95 0.85 0 2.80 -0.60 5.45 -1.20 5.40 -0.30 0 -1 -0.45 -1.55 -1z"/>
  <path d="M17.50 37 c0 -0.30 0.35 -0.65 0.75 -0.80 1.05 -0.40 0.95 -1.30 -0.35 -3.50 l-1.05 -1.85 1.20 0.65 c0.65 0.35 1.50 1.10 1.90 1.60 0.40 0.65 0.85 0.80 1.15 0.50 0.30 -0.30 -0.15 -1.40 -1.30 -3.05 -2.05 -2.90 -2.35 -4.55 -0.80 -4.55 1 0 1.40 1.20 0.50 1.75 -0.70 0.45 0.50 2.70 1.65 3.05 0.50 0.15 1.15 0.10 1.40 -0.15 0.75 -0.75 0 -2.05 -1.20 -2.25 -1.05 -0.15 -1.05 -0.15 0.15 -1.30 0.70 -0.65 1.70 -1.10 2.25 -1.05 2.05 0.15 3.25 -0.05 3.25 -0.60 0 -0.25 -0.40 -0.45 -0.85 -0.40 -1.85 0.15 -2.20 -0.05 -1.90 -1.05 0.20 -0.65 0.10 -1 -0.35 -1 -0.35 0 0.10 -0.70 0.95 -1.60 l1.60 -1.60 1 1.25 c0.55 0.65 1 1.50 1.05 1.85 0 1.15 1.45 0.60 2.25 -0.90 1 -1.90 1 -1.85 -1 -1.60 -1.65 0.20 -1.75 0.15 -2.25 -1.95 -0.90 -3.55 -1.60 -4.15 -4.25 -3.80 -1.30 0.20 -2.25 0.15 -2.25 -0.15 0 -0.65 1.55 -0.95 5.20 -1.10 3.25 -0.15 3.90 -0.80 2.45 -2.30 -0.55 -0.50 -0.90 -1.15 -0.80 -1.40 0.20 -0.65 -2 -1.70 -3.60 -1.70 -0.80 0 -1.25 0.30 -1.25 0.75 0 0.40 -0.20 0.75 -0.50 0.75 -0.25 0 -0.50 -0.20 -0.50 -0.45 0 -0.30 0.25 -0.65 0.50 -0.80 0.85 -0.55 0.55 -2.15 -0.60 -2.95 -0.90 -0.65 -0.95 -0.90 -0.40 -1.55 0.75 -0.95 0.30 -1.60 -0.60 -0.85 -0.70 0.55 -4.70 1 -5.15 0.50 -0.15 -0.15 0.55 -0.60 1.60 -1 2.45 -1 6.35 -0.80 7.60 0.30 0.70 0.65 1.05 0.70 1.35 0.25 0.25 -0.45 0.70 -0.20 1.55 0.85 0.85 1.10 1.15 1.25 1.15 0.60 0 -1.15 0.35 -1.15 2.30 0.20 2.70 1.85 3.40 3.60 3.60 9 0.20 4.25 0.10 4.95 -0.60 5.20 -0.50 0.20 -1.20 1.15 -1.60 2.20 -0.40 1.05 -1.75 2.75 -3 3.80 -2.10 1.80 -5 4.65 -7 6.80 -0.45 0.45 -0.65 1.05 -0.45 1.35 0.50 0.85 1.15 0.65 1.50 -0.45 0.15 -0.55 0.75 -1 1.25 -1 0.50 0 2.45 -1.70 4.40 -3.70 2.55 -2.80 3.65 -4.35 4.10 -6.10 0.40 -1.35 0.80 -2.10 0.90 -1.80 0.40 1.30 -2 6.05 -3.75 7.40 -0.95 0.70 -2.15 1.95 -2.60 2.75 -0.50 0.80 -2.40 2.80 -4.30 4.45 -2.45 2.15 -3.80 3 -4.80 3 -0.80 0 -1.45 -0.25 -1.45 -0.50z m16 -20 c0 -0.30 -0.55 -0.75 -1.25 -1 -1.30 -0.50 -1.65 -1.90 -0.65 -2.90 0.40 -0.40 0.40 -0.75 -0.10 -1.30 -0.75 -0.95 -1.50 -0.60 -1.50 0.75 0 0.50 -0.45 1.40 -1 1.95 -0.55 0.55 -1 1.20 -1 1.45 0 0.25 0.45 0.35 1 0.20 0.55 -0.15 1 -0.05 1 0.25 0 0.30 0.75 0.65 1.65 0.75 0.85 0.10 1.65 0.25 1.75 0.25 0.05 0.05 0.10 -0.15 0.10 -0.40z m1 -4.85 c0 -0.50 -0.45 -1.55 -1 -2.40 -0.80 -1.25 -1 -1.35 -1.30 -0.60 -0.20 0.50 0 1.25 0.40 1.75 0.45 0.45 0.65 1.15 0.55 1.50 -0.15 0.30 0.10 0.60 0.55 0.60 0.45 0 0.80 -0.40 0.80 -0.85z m-7 -6.65 c0 -0.25 -0.45 -0.50 -1 -0.50 -0.55 0 -1 0.25 -1 0.50 0 0.30 0.45 0.50 1 0.50 0.55 0 1 -0.20 1 -0.50z"/>
  <path d="M16.05 28.30 c-0.45 -0.55 -0.45 -0.80 0 -1.05 0.50 -0.35 1.40 0.50 1.45 1.40 0 0.60 -0.85 0.40 -1.45 -0.35z"/>
  <path d="M11.35 25.80 c-0.20 -0.50 -0.25 -1.05 -0.10 -1.20 0.45 -0.45 0.85 0.30 0.65 1.25 -0.15 0.85 -0.20 0.85 -0.55 -0.05z"/>
  <path d="M15.50 25.55 c0 -0.25 0.35 -0.55 0.75 -0.75 0.40 -0.15 0.75 -0.90 0.75 -1.65 l0 -1.40 1 1.25 c0.95 1.25 0.95 1.25 0 1.40 -0.55 0.10 -1 0.50 -1 0.90 0 0.40 -0.35 0.70 -0.75 0.70 -0.40 0 -0.75 -0.20 -0.75 -0.45z"/>
  <path d="M15.35 19.70 c-0.40 -0.40 0.05 -1.20 0.70 -1.20 0.25 0 0.45 0.35 0.45 0.75 0 0.75 -0.60 1 -1.15 0.45z"/>
  <path d="M15.30 17.25 c-0.65 -0.50 -0.75 -0.90 -0.45 -1.50 0.45 -0.75 0.60 -0.70 1.30 0.45 0.95 1.45 0.50 2 -0.85 1.05z"/>
  <path d="M16.50 13.05 c0 -1.05 2.70 -4.05 3.60 -4.05 0.50 0 0.75 0.25 0.60 0.65 -0.50 1 -4.20 4 -4.20 3.40z"/>
  <path d="M15.25 8.55 c-0.35 -0.60 0.60 -1.20 1.25 -0.80 0.55 0.35 0.20 1.25 -0.50 1.25 -0.25 0 -0.55 -0.20 -0.75 -0.45z"/>
 </g>
 <g fill="#b3b7bc">
  <path d="M28 38.95 c0 -0.90 0.10 -0.95 0.75 -0.45 0.40 0.35 0.75 0.80 0.75 1.05 0 0.25 -0.35 0.45 -0.75 0.45 -0.45 0 -0.75 -0.45 -0.75 -1.05z"/>
  <path d="M25.50 36.30 c0 -0.65 0.45 -1.70 1 -2.35 l0.95 -1.20 0.05 1.60 c0 0.85 -0.35 1.95 -0.80 2.35 -1.05 1.05 -1.20 1 -1.20 -0.40z"/>
  <path d="M20.90 35.15 c-0.80 -0.90 -0.80 -0.95 0.15 -1.60 1.35 -0.80 1.65 -0.45 1.10 1.20 -0.40 1.30 -0.45 1.30 -1.25 0.40z"/>
  <path d="M23.50 34.05 c0 -1.10 1.05 -2.60 1.55 -2.25 0.30 0.15 0.80 -0.10 1.20 -0.60 0.35 -0.55 0.80 -0.80 0.95 -0.65 0.15 0.15 -0.60 1.15 -1.70 2.20 -1.10 1.10 -2 1.65 -2 1.30z"/>
  <path d="M31.30 25.95 c0.80 -1 1.55 -1.70 1.65 -1.60 0.15 0.10 -0.50 0.90 -1.45 1.80 l-1.70 1.60 1.50 -1.80z"/>
  <path d="M31.25 22.15 c0.20 -0.50 0.50 -1.30 0.60 -1.75 0.15 -0.50 0.45 -0.90 0.70 -0.90 0.60 0 0.55 0.30 -0.30 2 -0.85 1.60 -1.60 2.05 -1 0.65z"/>
  <path d="M28.35 20.15 c-0.15 -0.25 -0.40 -1.10 -0.55 -1.95 -0.30 -1.35 -0.20 -1.60 0.80 -1.85 0.65 -0.20 1.25 -0.10 1.30 0.15 0.10 0.30 0.70 0.50 1.35 0.50 0.65 0 1.35 0.25 1.50 0.50 0.20 0.30 -0.35 0.50 -1.20 0.50 -0.85 0 -1.55 0.25 -1.55 0.50 0 0.30 0.35 0.50 0.80 0.50 0.70 0 0.70 0.15 0.20 0.75 -0.65 0.80 -2.30 1 -2.65 0.40z"/>
  <path d="M33.95 18.15 c-0.35 -2.05 -0.20 -4.25 0.35 -4.70 0.60 -0.45 0.70 -0.10 0.70 1.95 0 1.40 -0.20 2.70 -0.50 2.85 -0.25 0.15 -0.55 0.15 -0.55 -0.10z"/>
  <path d="M31.50 15.25 c-0.35 -0.40 -0.40 -0.75 -0.10 -0.75 0.25 0 0.75 0.35 1.10 0.75 0.35 0.40 0.40 0.75 0.10 0.75 -0.25 0 -0.75 -0.35 -1.10 -0.75z"/>
  <path d="M28.65 10.90 c-0.30 -0.35 -0.65 -1.05 -0.80 -1.50 -0.15 -0.50 -0.95 -1 -1.70 -1.20 -2.75 -0.60 -2.90 -0.85 -0.75 -1.35 2.25 -0.50 2.60 -1.10 1.25 -2.10 -0.45 -0.35 -0.65 -0.85 -0.40 -1.25 0.25 -0.45 0.75 -0.25 1.70 0.80 1.10 1.20 1.30 1.30 1.45 0.55 0.10 -0.45 0.35 -0.85 0.60 -0.85 1 0 3.95 3.15 4.25 4.55 0.40 1.75 -0.05 2.60 -0.60 1.15 -0.35 -1.05 -2.70 -3.70 -3.20 -3.70 -0.55 0 -1.10 2.15 -1 3.90 0.15 1.75 -0.05 1.95 -0.80 1z"/>
  <path d="M21.80 4.60 c-0.15 -0.30 -0.05 -0.70 0.25 -0.85 0.75 -0.50 1.25 0.15 0.60 0.80 -0.35 0.35 -0.65 0.35 -0.85 0.05z"/>
  <path d="M24 3.65 c0 -0.60 -0.30 -1.20 -0.60 -1.30 -0.40 -0.15 -0.30 -0.30 0.25 -0.30 1.10 -0.05 1.70 1.30 0.90 2.10 -0.40 0.40 -0.55 0.30 -0.55 -0.50z"/>
  <path d="M18 2.25 c1.65 -0.95 2.30 -0.95 1.50 0 -0.35 0.40 -1.10 0.75 -1.70 0.75 -1 -0.05 -1 -0.10 0.20 -0.75z"/>
 </g>
 <g fill="#c4c8cd">
  <path d="M28 39.25 c0 -0.40 0.20 -0.75 0.45 -0.75 0.25 0 0.55 0.35 0.75 0.75 0.15 0.45 0 0.75 -0.45 0.75 -0.40 0 -0.75 -0.35 -0.75 -0.75z"/>
  <path d="M29.05 19.55 c-0.80 -0.50 -0.35 -3.05 0.50 -3.05 0.35 0 0.45 0.50 0.25 1.25 -0.25 0.90 -0.10 1.25 0.45 1.25 0.40 0 0.75 0.25 0.75 0.50 0 0.60 -1 0.65 -1.95 0.05z"/>
  <path d="M34.05 15.90 c-0.05 -1.35 0.20 -2.40 0.45 -2.40 0.60 0 0.60 1.70 0 3.50 -0.35 1 -0.40 0.80 -0.45 -1.10z"/>
  <path d="M28 9.80 c-0.25 -0.65 -0.70 -1.35 -0.95 -1.55 -0.95 -0.55 -0.60 -1.25 0.70 -1.25 1.15 0 1.25 0.20 1.25 2 0 2.30 -0.30 2.55 -1 0.80z"/>
  <path d="M32.25 7 c-0.50 -0.55 -1.20 -1 -1.60 -1 -0.35 0 -0.65 -0.35 -0.65 -0.75 0 -1.60 2.35 -0.25 3.70 2.15 0.55 0.95 -0.45 0.70 -1.45 -0.40z"/>
 </g>
</svg>