<?xml version="1.0" encoding="utf-8"?>
<!DOCTYPE svg PUBLIC "-//W3C//DTD SVG 1.0//EN" "http://www.w3.org/TR/2001/REC-SVG-20010904/DTD/svg10.dtd">
<svg version="1.0" xmlns="http://www.w3.org/2000/svg" width="40px" height="40px" viewBox="0 0 40 40" preserveAspectRatio="xMidYMid meet">
 <g fill="#1b0b0d">
  <path d="M16.50 35.75 c0 -1.05 -0.25 -1.25 -1.45 -1.25 -1.55 0 -2.05 -0.90 -2.05 -3.70 0 -1.40 0.05 -1.45 2.25 -1.20 2.55 0.30 3.75 1.10 3.75 2.45 0 0.55 0.25 0.95 0.50 0.95 0.30 0 0.50 0.90 0.50 2 0 1.95 -0.05 2 -1.75 2 -1.55 0 -1.75 -0.15 -1.75 -1.25z"/>
  <path d="M14 22.75 c0 -1.65 0.10 -1.75 1.75 -1.75 1.65 0 1.75 0.10 1.75 1.75 0 1.65 -0.10 1.75 -1.75 1.75 -1.65 0 -1.75 -0.10 -1.75 -1.75z"/>
  <path d="M18.50 21.25 c0 -1.55 -0.15 -1.75 -1.25 -1.75 -1.15 0 -1.25 -0.15 -1.25 -2.35 0 -4.40 2.60 -6.65 7.70 -6.65 1.75 0 1.80 0.05 1.80 2 0 1.65 -0.15 2 -1 2 -1.55 0 -3.40 1.05 -4.30 2.40 -0.80 1.20 -0.80 1.25 0.35 0.95 0.65 -0.20 1.70 -0.35 2.30 -0.35 0.75 0 1.15 -0.35 1.25 -1.10 0.10 -0.95 0.50 -1.20 2.05 -1.30 l1.90 -0.15 -0.15 2.15 c-0.15 2 -0.25 2.15 -1.75 2.30 -0.95 0.10 -1.65 0.45 -1.65 0.85 0 0.35 -0.55 0.80 -1.25 0.95 -0.70 0.20 -1.25 0.65 -1.25 1.05 0 0.50 -0.55 0.75 -1.75 0.75 -1.65 0 -1.75 -0.10 -1.75 -1.75z"/>
  <path d="M8.50 15.30 c0 -0.35 -0.15 -1.40 -0.30 -2.25 -0.30 -1.50 -0.25 -1.55 1.45 -1.55 2.85 0 3.35 0.40 3.35 2.55 l0 1.95 -2.25 0 c-1.60 0 -2.25 -0.20 -2.25 -0.70z"/>
 </g>
 <g fill="#2c241e">
  <path d="M27.50 38.25 c0 -2.15 0.50 -2.20 1.65 -0.30 1.10 1.90 1.10 2.05 -0.40 2.05 -1.10 0 -1.25 -0.20 -1.25 -1.75z"/>
  <path d="M22.30 38.30 c-0.30 -1.20 -0.35 -1.20 -1.80 -0.50 -0.95 0.50 -2.05 0.65 -3.20 0.40 -1.60 -0.30 -1.95 -0.65 -3.80 -4.45 -1.10 -2.30 -2 -4.60 -2 -5.10 0 -0.55 -0.20 -1.15 -0.45 -1.40 -1.80 -1.90 -2.55 -4.40 -2.60 -8.85 -0.05 -8.05 0 -8.80 0.75 -10.35 1.05 -1.95 4.50 -4.75 7.50 -6 3 -1.30 3.80 -1.30 3.80 -0.05 0 0.70 -0.35 1 -1.05 1 -0.55 0 -1.35 0.35 -1.80 0.75 -0.40 0.45 -1.40 0.95 -2.20 1.10 -0.80 0.15 -1.45 0.60 -1.45 0.95 0 0.40 -0.45 0.70 -1 0.70 -0.55 0 -1 0.30 -1 0.70 0 0.40 -0.50 1.55 -1.05 2.55 -0.80 1.35 -0.95 1.95 -0.50 2.40 0.75 0.75 0.70 1.35 -0.15 1.05 -0.40 -0.15 -0.85 -0.05 -1.05 0.25 -0.15 0.30 0.10 0.70 0.60 0.90 2.55 1 4.15 2.95 4.15 5.15 0 1.95 0.05 2 1.75 2 1.75 0 1.75 0 1.75 2.25 0 2.25 0 2.25 -1.75 2.25 -1.75 0 -1.75 0 -1.75 -2.25 0 -2.25 0 -2.25 -1.80 -2.25 l-1.75 0 1.25 2.40 c0.65 1.30 1.35 2.95 1.50 3.75 0.25 1.10 0.60 1.35 1.85 1.35 2 0 3.45 0.80 3.45 1.95 0 0.55 0.35 1.10 0.80 1.25 0.60 0.25 0.75 0.80 0.60 2.30 -0.10 1.10 0 2 0.20 2 0.25 0 0.40 -0.35 0.40 -0.75 0 -0.50 0.55 -0.75 1.75 -0.75 1.75 0 1.75 0 1.75 2.25 0 2.50 -1.15 3.20 -1.70 1.05z m-3.95 -3.65 c-0.20 -0.15 -0.35 0 -0.35 0.35 0 0.35 0.15 0.50 0.35 0.35 0.15 -0.20 0.15 -0.50 0 -0.70z m-3.30 -3 c-0.60 -1 -0.70 -0.70 -0.25 0.60 0.20 0.45 0.45 0.70 0.55 0.55 0.15 -0.10 0 -0.65 -0.30 -1.15z m2.45 1.15 c0 -0.10 -0.40 -0.50 -0.85 -0.85 -0.80 -0.65 -0.85 -0.60 -0.20 0.20 0.65 0.80 1.05 1.05 1.05 0.65z m-1.50 -10.05 c0 -0.15 -0.10 -0.25 -0.25 -0.25 -0.15 0 -0.25 0.10 -0.25 0.25 0 0.15 0.10 0.25 0.25 0.25 0.15 0 0.25 -0.10 0.25 -0.25z"/>
  <path d="M27 31.15 c0 -2.15 0.55 -3.65 1.30 -3.65 0.40 0 0.70 -0.35 0.70 -0.75 0 -0.55 0.55 -0.75 1.85 -0.75 l1.85 0 -2 1.95 c-1.30 1.25 -2.05 2.35 -2 3.10 0.05 0.75 -0.25 1.25 -0.80 1.35 -0.70 0.15 -0.90 -0.15 -0.90 -1.25z"/>
  <path d="M32.50 24 c0 -0.25 -0.35 -0.50 -0.75 -0.50 -0.50 0 -0.75 -0.55 -0.75 -1.75 0 -1.55 0.15 -1.75 1.25 -1.75 l1.25 0 0 -5.50 c0 -4.50 0.15 -5.50 0.75 -5.50 0.40 0 0.85 0.70 1.05 1.80 0.50 2.70 -0.15 10.50 -1.05 12.20 -0.75 1.45 -1.75 2 -1.75 1z"/>
  <path d="M18.10 21 c0.15 -1.80 0.05 -2 -0.95 -2 -0.95 0 -1.15 -0.25 -1.15 -1.70 0 -0.95 0.30 -2.05 0.65 -2.40 0.35 -0.35 0.80 -1.05 1 -1.50 0.20 -0.60 0.85 -0.90 1.95 -0.85 1.45 0 1.55 0.05 0.55 0.45 -0.60 0.25 -1.45 1.10 -1.85 1.95 -1.15 2.15 -0.95 2.60 0.25 0.70 0.60 -0.90 1.30 -1.70 1.60 -1.70 2.05 -0.20 7.20 0.25 7.75 0.65 0.90 0.75 0.80 3.90 -0.15 3.90 -0.40 0 -0.75 0.30 -0.75 0.70 0 0.40 -0.50 0.85 -1.10 1.05 -1.85 0.50 -3.60 1.45 -4.05 2.10 -0.20 0.35 -1.20 0.65 -2.20 0.65 -1.75 0 -1.75 0 -1.55 -2z m2.40 0.25 c0 -0.15 -0.10 -0.25 -0.25 -0.25 -0.15 0 -0.25 0.10 -0.25 0.25 0 0.15 0.10 0.25 0.25 0.25 0.15 0 0.25 -0.10 0.25 -0.25z m1 -1.55 c0 -0.10 -0.35 -0.20 -0.75 -0.20 -0.40 0 -0.75 0.20 -0.75 0.50 0 0.25 0.35 0.35 0.75 0.20 0.40 -0.20 0.75 -0.40 0.75 -0.50z m1.50 -0.45 c0 -0.15 -0.10 -0.25 -0.25 -0.25 -0.15 0 -0.25 0.10 -0.25 0.25 0 0.15 0.10 0.25 0.25 0.25 0.15 0 0.25 -0.10 0.25 -0.25z m-5 -1.50 c0 -0.15 -0.10 -0.25 -0.25 -0.25 -0.15 0 -0.25 0.10 -0.25 0.25 0 0.15 0.10 0.25 0.25 0.25 0.15 0 0.25 -0.10 0.25 -0.25z m8.50 -0.80 c0 -0.30 -0.20 -0.35 -0.50 -0.20 -0.25 0.15 -0.50 0.55 -0.50 0.80 0 0.30 0.25 0.35 0.50 0.20 0.30 -0.15 0.50 -0.55 0.50 -0.80z m-6.15 -0.30 c-0.20 -0.15 -0.35 0 -0.35 0.35 0 0.35 0.15 0.50 0.35 0.35 0.15 -0.20 0.15 -0.50 0 -0.70z"/>
  <path d="M29 16.25 c0 -1.65 0.10 -1.75 1.75 -1.75 1.65 0 1.75 0.10 1.75 1.75 0 1.65 -0.10 1.75 -1.75 1.75 -1.65 0 -1.75 -0.10 -1.75 -1.75z"/>
  <path d="M29.50 5 c0 -0.25 -0.35 -0.50 -0.75 -0.50 -0.45 0 -0.75 -0.45 -0.75 -1.20 0 -1.55 1.20 -1.30 3.55 0.70 l1.70 1.45 -1.85 0.05 c-1.05 0 -1.90 -0.20 -1.90 -0.50z"/>
  <path d="M23.50 2.10 c0 -0.65 0.35 -0.85 1.40 -0.80 2.45 0.15 2.60 0.20 2.60 0.95 0 0.55 -0.55 0.75 -2 0.75 -1.60 0 -2 -0.20 -2 -0.90z"/>
 </g>
 <g fill="#561834">
  <path d="M14.80 17.20 c-0.85 -2.20 -0.30 -3.60 2.30 -5.95 1.40 -1.25 3.20 -2.45 4 -2.60 0.75 -0.15 1.40 -0.60 1.40 -0.95 0 -0.50 0.65 -0.70 2 -0.70 2.10 0 4.50 0.85 4.50 1.60 0 0.25 0.35 0.80 0.75 1.20 0.40 0.45 0.75 1.65 0.75 2.75 l0 1.95 -4.75 0 -4.80 0 -1 1.75 c-1.10 1.85 -1.95 2.25 -1.95 0.95 0 -1.30 3.25 -4.20 4.70 -4.20 0.70 0 1.30 -0.25 1.30 -0.55 0 -0.55 -1.30 -0.40 -3.70 0.55 -1.25 0.45 -2.80 2.80 -2.80 4.25 0 1 -2.30 1 -2.70 -0.05z"/>
 </g>
 <g fill="#4b3830">
  <path d="M22.50 38.15 c0 -1.70 -0.05 -1.75 -0.85 -1 -0.90 0.80 -2.35 1.05 -4.70 0.95 -1.10 -0.10 -1.55 -0.75 -3.35 -4.65 -1.15 -2.45 -2.10 -4.80 -2.10 -5.20 0 -0.40 -0.65 -1.85 -1.50 -3.25 -1.50 -2.55 -1.85 -4.65 -1 -6 0.40 -0.60 0.50 -0.60 0.80 0.15 0.15 0.50 0.85 0.85 1.55 0.85 0.95 0 1.20 -0.20 0.95 -0.80 -0.15 -0.45 -0.30 -0.85 -0.30 -1 0 -0.10 -0.65 -0.50 -1.50 -0.95 -1.90 -1 -2.05 -2.75 -0.25 -2.75 0.70 0 1.25 -0.20 1.25 -0.50 0 -0.50 -0.35 -0.60 -2.25 -0.70 -0.85 -0.05 -0.95 -0.35 -0.85 -1.80 0.20 -2.20 2.15 -5.60 3.85 -6.70 l1.30 -0.85 -0.15 1.65 c-0.10 1.10 -0.50 1.80 -1.25 2.15 -0.60 0.25 -1.15 1.05 -1.25 1.85 -0.20 1.20 -0.05 1.40 0.95 1.40 0.70 0 1.15 0.30 1.15 0.80 0 0.45 0.45 1.35 1 2.05 l1 1.30 0 -1.25 c0 -1.95 3.50 -4.90 5.75 -4.90 2.20 0 2.20 0.60 0.15 1.90 -3.30 2.05 -5.90 5.60 -4.10 5.60 0.40 0 0.70 0.40 0.70 0.90 0 0.50 0.35 0.15 0.90 -0.85 1.40 -2.80 2.90 -3.60 6 -3.25 2.50 0.35 2.60 0.40 2.60 1.85 0 1.20 -0.15 1.40 -0.60 0.95 -0.75 -0.75 -4.40 -0.80 -4.40 -0.05 0 0.30 0.45 0.40 1 0.20 0.55 -0.15 1.40 -0.10 1.85 0.20 0.80 0.45 0.75 0.50 -0.30 0.55 -0.80 0 -1.05 0.20 -0.85 0.75 0.20 0.50 -0.15 0.85 -1.10 1.05 -0.75 0.15 -1.60 0.35 -1.90 0.45 -0.70 0.20 -1.30 2.25 -0.65 2.25 0.25 0 0.45 -0.30 0.45 -0.70 0 -0.35 0.40 -0.80 0.90 -0.95 0.45 -0.10 1.25 -0.40 1.75 -0.60 0.65 -0.30 0.85 -0.10 0.85 0.85 0 0.85 -0.40 1.35 -1.50 1.75 -1.15 0.45 -1.50 0.85 -1.50 1.90 0 1.30 -0.10 1.35 -2 1.15 -1.10 -0.10 -2 0 -2 0.20 0 0.25 -0.80 0.40 -1.75 0.40 -1.65 0 -1.75 -0.10 -1.75 -1.75 0 -1.60 -0.10 -1.75 -1.55 -1.75 -1.40 0 -1.45 0.05 -0.75 0.80 0.45 0.40 0.95 1.30 1.10 2 0.15 0.65 0.50 1.20 0.70 1.20 0.25 0 0.50 0.60 0.60 1.40 0.15 1.30 0.25 1.35 3.75 1.50 3.05 0.10 3.65 0.30 3.90 1.10 0.20 0.55 0.55 1 0.80 1 0.25 0 0.45 0.60 0.45 1.30 0 1.15 0.10 1.25 0.75 0.70 0.55 -0.45 0.65 -0.75 0.25 -1 -0.30 -0.20 -0.50 -1.10 -0.40 -2.05 0.10 -1.30 0.40 -1.75 1.30 -1.85 0.70 -0.10 1.10 -0.50 1.10 -1.10 0 -0.50 0.90 -1.65 2 -2.50 2.15 -1.70 3.70 -3.65 4.20 -5.35 0.35 -1.05 0.20 -1.15 -1.40 -1.15 -1.75 0 -1.80 -0.05 -1.80 -2 0 -1.90 0.10 -2 1.45 -2 2.45 0 3.05 0.45 3.05 2.30 0 1.35 0.20 1.70 1 1.70 2.40 0 0.30 6.50 -3.20 9.75 -2.10 1.95 -2.15 2.05 -2.25 5.70 -0.05 2.65 0.15 4 0.70 4.85 0.75 1.20 0.75 1.20 -0.75 1.20 -1.30 0 -1.55 -0.25 -1.85 -1.50 -0.25 -1.45 -0.35 -1.50 -1.20 -0.70 -0.55 0.45 -0.95 1.25 -0.95 1.80 0 0.55 -0.35 0.90 -1 0.90 -0.80 0 -1 -0.35 -1 -1.85z m-2.70 -2.40 c1.40 -0.70 1.40 -0.75 0.25 -0.75 -0.65 0 -1.50 -0.40 -1.85 -0.85 -0.40 -0.55 -0.65 -0.65 -0.70 -0.25 0 1.10 -0.95 0.65 -1.75 -0.90 -1.10 -2.10 -0.95 -2.35 0.55 -0.95 1.25 1.10 1.30 1.10 0.80 0.15 -0.65 -1.25 -1.95 -1.90 -2.35 -1.20 -0.15 0.25 0.10 1.20 0.60 2.10 0.45 0.90 0.80 1.90 0.75 2.25 -0.10 0.50 0.50 0.80 1.95 1.10 0.20 0 1 -0.30 1.75 -0.70z m-3.95 -12.85 c-0.15 -0.35 -0.25 -0.10 -0.25 0.60 0 0.70 0.10 0.95 0.25 0.65 0.10 -0.35 0.10 -0.95 0 -1.25z m17.15 -1.15 c0 -0.15 -0.10 -0.25 -0.25 -0.25 -0.15 0 -0.25 0.10 -0.25 0.25 0 0.15 0.10 0.25 0.25 0.25 0.15 0 0.25 -0.10 0.25 -0.25z m-17.15 -1.05 c-0.15 -0.15 -0.60 -0.20 -0.95 -0.05 -0.40 0.15 -0.25 0.30 0.30 0.30 0.55 0.05 0.85 -0.10 0.65 -0.25z m15.15 -4.45 c0 -0.15 -0.10 -0.25 -0.25 -0.25 -0.15 0 -0.25 0.10 -0.25 0.25 0 0.15 0.10 0.25 0.25 0.25 0.15 0 0.25 -0.10 0.25 -0.25z"/>
  <path d="M33.50 13.25 c0 -1.65 0.20 -2.25 0.75 -2.25 0.70 0 0.90 0.45 0.90 2.25 0 1.80 -0.20 2.25 -0.90 2.25 -0.55 0 -0.75 -0.60 -0.75 -2.25z"/>
  <path d="M32 7 c0 -0.65 -0.35 -1 -1 -1 -0.65 0 -1 -0.35 -1 -1 0 -0.90 -0.35 -1 -2.90 -1 -3.35 0 -5.60 -0.85 -5.60 -2.15 0 -0.80 0.30 -0.85 3.15 -0.55 3.35 0.35 7.50 2.55 9.05 4.75 1.10 1.60 1 1.95 -0.45 1.95 -0.90 0 -1.25 -0.25 -1.25 -1z"/>
  <path d="M16.10 2.90 c0.15 -0.35 0.95 -0.90 1.80 -1.25 1.55 -0.65 1.60 -0.60 1.60 0.60 0 1.10 -0.20 1.25 -1.80 1.25 -1.15 0 -1.70 -0.20 -1.60 -0.60z"/>
 </g>
 <g fill="#694844">
  <path d="M22.65 38.40 c0.05 -1.10 0.40 -1.70 1 -1.80 0.70 -0.15 0.85 0.20 0.85 1.60 0 1.45 -0.20 1.80 -0.95 1.80 -0.75 0 -0.95 -0.35 -0.90 -1.60z"/>
  <path d="M15.30 36.90 c-0.45 -0.60 -0.80 -1.35 -0.80 -1.65 0 -0.30 -0.45 -1.40 -1 -2.50 -0.90 -1.80 -0.90 -2 -0.20 -2.40 0.45 -0.25 1.70 -0.35 2.75 -0.20 1.10 0.15 1.95 0.05 1.95 -0.20 0 -0.25 0.75 -0.45 1.70 -0.45 1.85 0 2.30 0.60 2.30 3.05 0 1.35 -0.15 1.45 -1.85 1.45 -1.60 0 -2.05 -0.30 -3.05 -1.75 -1.05 -1.70 -2.25 -2.25 -2.80 -1.30 -0.40 0.65 2.55 4.55 3.45 4.55 0.40 0 0.75 0.35 0.75 0.75 0 0.40 -0.35 0.75 -0.75 0.75 -0.40 0 -0.75 0.25 -0.75 0.50 0 0.85 -0.90 0.55 -1.70 -0.60z m5.55 -4.25 c-0.20 -0.15 -0.35 0 -0.35 0.35 0 0.35 0.15 0.50 0.35 0.35 0.15 -0.20 0.15 -0.50 0 -0.70z m-1.20 -1.40 c-0.15 -0.45 -0.40 -0.70 -0.50 -0.55 -0.15 0.15 -0.10 0.45 0.10 0.75 0.45 0.80 0.75 0.65 0.40 -0.20z"/>
  <path d="M21.15 36.65 c0.20 -0.15 0.50 -0.15 0.70 0 0.15 0.20 0 0.35 -0.35 0.35 -0.35 0 -0.50 -0.15 -0.35 -0.35z"/>
  <path d="M25.90 34.45 c-0.55 -0.30 -0.90 -1.10 -0.90 -1.95 0 -0.85 -0.20 -1.50 -0.50 -1.50 -0.75 0 -0.60 -3 0.20 -3.80 0.40 -0.40 1.20 -0.70 1.75 -0.70 0.80 0 1.05 -0.30 1.05 -1.25 0 -1.05 0.25 -1.25 1.45 -1.25 1.30 0 1.45 -0.20 1.80 -2.25 0.30 -2.20 0.35 -2.25 2.05 -2.15 1.40 0.10 1.70 0.30 1.70 1.25 0 3 -3.20 7.25 -5 6.80 -0.80 -0.20 -1 0 -1 1 0 0.70 -0.30 1.40 -0.60 1.55 -0.50 0.25 -0.50 0.35 0 0.60 0.30 0.15 0.60 1.15 0.60 2.25 0 2.10 -0.75 2.50 -2.60 1.40z m0.35 -0.95 c0.15 -0.25 0.20 -0.50 0.05 -0.50 -0.15 0 -0.40 0.25 -0.55 0.50 -0.15 0.30 -0.20 0.50 -0.05 0.50 0.15 0 0.40 -0.20 0.55 -0.50z m-1 -3.50 c0.15 -0.25 0.20 -0.50 0.05 -0.50 -0.15 0 -0.40 0.25 -0.55 0.50 -0.15 0.30 -0.20 0.50 -0.05 0.50 0.15 0 0.40 -0.20 0.55 -0.50z m6.30 -5.85 c0.40 -0.50 -0.50 0.10 -1.90 1.30 -1.45 1.20 -2.65 2.30 -2.65 2.40 0 0.35 3.75 -2.70 4.55 -3.70z m1.35 -2.40 c-0.15 -0.15 -0.45 0.10 -0.60 0.60 -0.30 0.70 -0.25 0.75 0.25 0.30 0.35 -0.35 0.50 -0.75 0.35 -0.90z m0.60 -1 c0 -0.15 -0.10 -0.25 -0.25 -0.25 -0.15 0 -0.25 0.10 -0.25 0.25 0 0.15 0.10 0.25 0.25 0.25 0.15 0 0.25 -0.10 0.25 -0.25z"/>
  <path d="M15.75 33 c-0.95 -1.80 -0.20 -2 0.95 -0.25 0.95 1.40 1 1.75 0.30 1.75 -0.25 0 -0.80 -0.65 -1.25 -1.50z"/>
  <path d="M16.40 25.15 c-1.50 -0.15 -1.90 -0.45 -1.90 -1.20 0 -0.60 -0.35 -0.95 -1 -0.95 -0.65 0 -1 -0.35 -1 -1 0 -0.60 -0.35 -1 -0.85 -1.05 -0.75 0 -0.70 -0.10 0.15 -0.55 1 -0.45 1 -0.65 0.45 -1.75 -0.35 -0.70 -1.15 -1.50 -1.80 -1.85 -1.70 -0.85 -1.75 -1.80 -0.10 -1.80 0.80 0 1.75 0.30 2.15 0.65 0.40 0.30 0.35 0.15 -0.15 -0.45 -0.45 -0.55 -0.85 -1.40 -0.85 -1.85 0 -1.30 1.80 -1.05 2.25 0.30 0.30 0.95 0.40 0.95 0.60 0.25 0.15 -0.60 0.70 -0.90 1.70 -0.90 1.45 0 1.45 0.05 0.70 1.20 -0.70 1.05 -0.70 1.25 0 1.95 0.40 0.45 0.75 1.20 0.75 1.70 0.05 0.55 0.30 0.30 0.75 -0.70 1.05 -2.45 2.55 -3.65 4.50 -3.65 2.15 0 2.40 1.30 0.35 1.75 -0.80 0.15 -1.45 0.60 -1.45 1 0 0.50 0.25 0.55 0.95 0.20 1 -0.55 2.90 -0.15 2.90 0.55 0 0.70 -2.75 2 -4.15 2 -0.85 0 -1.30 0.35 -1.50 1.10 -0.35 1.20 0.15 2.05 0.50 1 0.15 -0.35 1.30 -1.10 2.55 -1.65 2.70 -1.25 4.20 -2.40 3.80 -3 -0.15 -0.25 0.10 -0.45 0.50 -0.45 0.60 0 0.80 0.50 0.80 1.75 0 1.60 -0.10 1.75 -1.50 1.75 -1 0 -1.50 0.25 -1.50 0.75 0 0.50 -0.55 0.75 -1.75 0.75 -1.75 0 -1.75 0 -1.75 2.25 0 2.50 0.15 2.45 -5.10 1.90z m-0.50 -2.60 c-0.75 -0.25 -1.05 0.35 -0.65 1.30 0.35 0.85 0.40 0.85 0.75 -0.10 0.20 -0.55 0.15 -1.10 -0.10 -1.20z m3.60 0.75 c0 -0.10 -0.40 -0.50 -0.85 -0.85 -0.80 -0.65 -0.85 -0.60 -0.20 0.20 0.65 0.80 1.05 1.05 1.05 0.65z m-1.50 -2.05 c0 -0.15 -0.10 -0.25 -0.25 -0.25 -0.15 0 -0.25 0.10 -0.25 0.25 0 0.15 0.10 0.25 0.25 0.25 0.15 0 0.25 -0.10 0.25 -0.25z m-4.25 -4.15 c-0.50 -0.50 -0.80 -0.60 -0.65 -0.35 0.15 0.30 0.40 0.95 0.65 1.50 0.25 0.70 0.45 0.80 0.60 0.35 0.15 -0.40 -0.15 -1.05 -0.60 -1.50z m6 1.40 c0.15 -0.25 0.20 -0.50 0.05 -0.50 -0.15 0 -0.40 0.25 -0.55 0.50 -0.15 0.30 -0.20 0.50 -0.05 0.50 0.15 0 0.40 -0.20 0.55 -0.50z m1.25 -1.30 c0 -0.40 -0.25 -0.60 -0.50 -0.45 -0.30 0.20 -0.40 0.55 -0.25 0.80 0.45 0.70 0.75 0.55 0.75 -0.35z m3.35 -0.05 c-0.20 -0.15 -0.50 -0.15 -0.70 0 -0.15 0.20 0 0.35 0.35 0.35 0.35 0 0.50 -0.15 0.35 -0.35z"/>
  <path d="M9.30 23.25 c-0.50 -1.05 -0.70 -2.20 -0.50 -3 0.30 -1.20 0.40 -1.25 1.05 -0.60 0.90 0.90 1.55 5.35 0.75 5.35 -0.25 0 -0.85 -0.80 -1.30 -1.75z"/>
  <path d="M10.15 18.15 c0.20 -0.15 0.50 -0.15 0.70 0 0.15 0.20 0 0.35 -0.35 0.35 -0.35 0 -0.50 -0.15 -0.35 -0.35z"/>
  <path d="M29 15.75 c0 -1.65 0.10 -1.75 1.75 -1.75 1.65 0 1.75 0.10 1.75 1.75 0 1.65 -0.10 1.75 -1.75 1.75 -1.65 0 -1.75 -0.10 -1.75 -1.75z m2.50 0.55 c0 -0.10 -0.35 -0.30 -0.75 -0.50 -0.40 -0.15 -0.75 -0.05 -0.75 0.20 0 0.30 0.35 0.50 0.75 0.50 0.40 0 0.75 -0.10 0.75 -0.20z"/>
  <path d="M27.90 13.15 c1.60 -0.30 1.30 -1.65 -0.65 -2.35 -0.70 -0.25 -0.80 -0.45 -0.35 -0.75 0.50 -0.30 0.20 -0.60 -0.90 -1.05 -0.85 -0.35 -1.65 -0.50 -1.85 -0.30 -0.15 0.15 0.05 0.30 0.50 0.30 0.50 0 0.85 0.25 0.85 0.50 0 0.30 -0.65 0.50 -1.45 0.50 -0.80 0 -2.05 0.20 -2.75 0.50 -1.20 0.45 -1.30 0.35 -1.30 -0.75 0 -0.90 0.25 -1.25 1 -1.25 0.55 0 1 -0.35 1 -0.75 0 -0.55 0.60 -0.75 2.40 -0.75 3.55 0 4.60 0.40 4.60 1.80 0 0.75 0.30 1.20 0.75 1.20 0.50 0 0.75 0.55 0.75 1.75 0 1.70 -0.05 1.75 -1.85 1.70 -1.20 -0.05 -1.45 -0.15 -0.75 -0.30z"/>
  <path d="M10 12.75 c0 -0.15 0.10 -0.25 0.25 -0.25 0.15 0 0.25 0.10 0.25 0.25 0 0.15 -0.10 0.25 -0.25 0.25 -0.15 0 -0.25 -0.10 -0.25 -0.25z"/>
  <path d="M32.70 8.75 c-0.15 -0.70 -0.50 -1.25 -0.75 -1.25 -0.25 0 -0.45 -0.65 -0.45 -1.50 0 -0.80 0.20 -1.50 0.50 -1.50 0.65 0 3 3.55 3 4.60 0 1.45 -1.90 1.15 -2.30 -0.35z"/>
  <path d="M9.35 8.55 c0.15 -0.55 0.70 -1.35 1.20 -1.85 0.90 -0.85 0.95 -0.80 0.95 0.95 0 1.60 -0.15 1.85 -1.20 1.85 -0.95 0 -1.15 -0.20 -0.95 -0.95z"/>
  <path d="M24 3.75 c0 -0.50 -0.50 -0.75 -1.50 -0.75 -1.15 0 -1.50 -0.20 -1.50 -1 0 -1.20 1.15 -1.30 3.15 -0.25 0.75 0.40 1.25 0.50 1.10 0.25 -0.50 -0.85 1.45 -0.55 3.65 0.50 1.15 0.55 2.10 1.25 2.10 1.50 0 0.30 -1.55 0.50 -3.50 0.50 -2.80 0 -3.50 -0.15 -3.50 -0.75z"/>
 </g>
 <g fill="#7c5c4f">
  <path d="M28 39.50 c0 -0.25 -0.35 -0.50 -0.75 -0.50 -0.50 0 -0.75 -0.50 -0.75 -1.60 0 -1.50 0 -1.55 -1 -0.65 -0.55 0.50 -1 1.30 -1 1.85 0 1.30 -1.30 1.15 -1.70 -0.20 -0.20 -0.90 0.25 -1.70 2.10 -3.65 2.05 -2.15 2.10 -2.25 0.35 -0.70 -1.10 1 -2.75 2.30 -3.60 2.90 -1.35 0.90 -1.65 1 -1.65 0.35 0 -0.45 -0.45 -0.80 -1 -0.80 -0.55 0 -1 0.35 -1 0.75 0 0.40 -0.45 0.75 -1 0.75 -0.80 0 -1.45 -1 -3 -4.30 -1.10 -2.40 -2 -4.60 -2 -4.95 0 -0.30 -0.65 -1.80 -1.50 -3.30 -1 -1.80 -1.50 -3.40 -1.50 -4.80 0 -2.15 0 -2.15 1 -1.15 1.15 1.15 1.45 1.20 2.50 0.45 0.55 -0.40 0.60 -0.60 0.15 -0.80 -0.35 -0.10 -0.65 -0.55 -0.65 -0.95 0 -0.40 -0.55 -1 -1.25 -1.30 -1.80 -0.80 -1.55 -1.70 0.60 -2.10 2.85 -0.45 3.65 -0.35 3.65 0.40 0 0.35 0.45 0.80 1 0.95 0.75 0.20 1 0.70 1 1.80 0 0.85 0.25 1.55 0.50 1.55 0.30 0 0.50 -0.50 0.50 -1.05 0 -1.55 1.95 -4.45 3.35 -5 1.85 -0.70 2.65 -0.55 2.65 0.50 0 0.65 -0.45 1.05 -1.45 1.30 -1.50 0.30 -4 3.35 -3.05 3.65 0.30 0.10 0.35 0.75 0.20 1.40 -0.35 1.30 0.50 1.70 1 0.45 0.15 -0.40 0.60 -0.75 1.05 -0.75 1 0 1 2.20 0 3.20 -0.40 0.40 -0.75 1.05 -0.75 1.45 0 0.55 -0.95 0.80 -3.75 1.10 -4 0.35 -4.25 0.60 -3.15 3 0.40 0.90 0.95 1.25 2 1.25 1.10 0 1.40 0.25 1.40 1.10 0 1 -0.05 1 -1 0.15 -0.55 -0.50 -1.30 -0.75 -1.80 -0.55 -0.70 0.30 -0.75 0.45 -0.10 1.45 0.40 0.60 1.05 1.60 1.45 2.25 0.70 1.10 2.45 1.55 2.45 0.55 0 -0.30 -0.25 -0.95 -0.50 -1.50 -0.35 -0.65 -0.35 -0.95 0 -0.95 0.25 0 0.50 -0.40 0.50 -0.85 0.05 -0.70 0.30 -0.60 1.25 0.50 0.70 0.75 1.25 1.20 1.25 0.90 0 -0.25 -0.20 -0.65 -0.50 -0.80 -0.85 -0.50 -0.55 -1.15 0.70 -1.45 0.70 -0.15 1.30 -0.80 1.50 -1.55 0.20 -0.70 0.65 -1.25 1.05 -1.25 0.40 0 0.75 -0.20 0.75 -0.50 0 -0.25 0.55 -0.60 1.25 -0.80 0.70 -0.15 1.25 -0.60 1.25 -1 0 -0.40 0.25 -0.70 0.50 -0.70 0.30 0 0.50 -0.30 0.50 -0.65 0 -0.80 2.10 -2.85 2.90 -2.85 0.95 0 0.70 -2.40 -0.40 -3.50 -0.55 -0.55 -1.20 -1 -1.50 -1 -0.25 0 -0.50 0.45 -0.50 1 0 0.65 -0.35 1 -1 1 -0.55 0 -1 0.35 -1 0.75 0 0.50 -0.55 0.75 -1.75 0.75 -2.20 0 -2.25 -0.70 -0.10 -1.80 2.25 -1.15 2.45 -1.75 1.25 -3.05 l-1.05 -1.15 1.55 0 c1.10 0 1.60 -0.25 1.60 -0.75 0 -1 3.40 -1.05 3.80 -0.05 0.15 0.40 0.70 0.80 1.25 0.95 0.65 0.15 0.95 0.70 0.95 1.55 0 0.70 0.25 1.30 0.50 1.30 0.85 0 0.55 3.30 -0.45 5.60 -0.55 1.20 -2 3.15 -3.25 4.35 -1.50 1.45 -2.30 2.65 -2.35 3.50 0 0.70 -0.10 2.35 -0.20 3.65 -0.15 1.75 0.05 2.65 0.80 3.55 1.20 1.60 1.20 1.85 -0.05 1.85 -0.55 0 -1 -0.20 -1 -0.50z m-6.65 -4.85 c-0.20 -0.15 -0.50 -0.15 -0.70 0 -0.15 0.20 0 0.35 0.35 0.35 0.35 0 0.50 -0.15 0.35 -0.35z m4.20 -5 c0.65 -0.80 0.60 -0.85 -0.15 -0.20 -0.85 0.65 -1.10 1.05 -0.70 1.05 0.10 0 0.50 -0.40 0.85 -0.85z m6.35 -5.80 c0.80 -0.95 1.70 -3.45 1.10 -3.10 -0.30 0.15 -0.50 0.65 -0.50 1.10 0 0.45 -1.40 2.20 -3.10 3.80 -2.85 2.70 -2.90 2.80 -0.60 0.95 1.40 -1.15 2.80 -2.35 3.10 -2.75z m-18.85 -0.25 c-0.30 -0.10 -0.55 -0.50 -0.55 -0.90 0 -0.40 -0.20 -0.70 -0.50 -0.70 -0.70 0 -0.65 0.30 0.35 2.15 0.75 1.35 0.90 1.45 1.05 0.60 0.10 -0.50 -0.05 -1.05 -0.35 -1.15z m3.45 -0.70 c0 -0.25 -0.35 -0.40 -0.75 -0.40 -0.75 0 -1 1.05 -0.40 1.65 0.35 0.35 1.15 -0.55 1.15 -1.25z m2.40 -0.35 c-0.65 -0.75 -1.25 -1.35 -1.35 -1.25 -0.20 0.20 1.95 2.70 2.35 2.70 0.10 0 -0.35 -0.65 -1 -1.45z m-4.40 -1.30 c0 -0.15 -0.10 -0.25 -0.25 -0.25 -0.15 0 -0.25 0.10 -0.25 0.25 0 0.15 0.10 0.25 0.25 0.25 0.15 0 0.25 -0.10 0.25 -0.25z m-1.05 -4.70 c-0.60 -0.85 -1.25 -1.45 -1.35 -1.30 -0.15 0.15 0.10 0.65 0.55 1.10 0.40 0.50 0.95 1.60 1.15 2.40 0.35 1.30 0.45 1.35 0.60 0.40 0.10 -0.60 -0.35 -1.80 -0.95 -2.60z m20.55 3.20 c0 -0.15 -0.10 -0.25 -0.25 -0.25 -0.15 0 -0.25 0.10 -0.25 0.25 0 0.15 0.10 0.25 0.25 0.25 0.15 0 0.25 -0.10 0.25 -0.25z m-2.75 -3.75 c-0.15 -0.25 -0.50 -0.50 -0.80 -0.50 -0.25 0 -0.45 0.25 -0.45 0.50 0 0.30 0.35 0.50 0.80 0.50 0.40 0 0.60 -0.20 0.45 -0.50z"/>
  <path d="M16.10 33.25 c-0.85 -1.85 -0.75 -2.05 0.40 -0.60 1.10 1.35 1.25 1.85 0.60 1.85 -0.25 0 -0.70 -0.55 -1 -1.25z"/>
  <path d="M20 18.50 c0 -0.25 0.25 -0.50 0.50 -0.50 0.30 0 0.50 -0.30 0.50 -0.65 0 -0.45 0.70 -0.65 2.25 -0.65 2.70 0.05 2.85 0.60 0.50 1.60 -2 0.80 -3.75 0.90 -3.75 0.20z"/>
  <path d="M11.50 13.25 c0 -0.55 -0.40 -0.65 -1.55 -0.40 l-1.60 0.30 0.35 -1.95 c0.55 -2.70 1.45 -4.25 3.75 -6.35 2.40 -2.15 3.05 -2.30 3.05 -0.70 0 1.45 -0.90 2.35 -2.35 2.35 -0.85 0 -1.15 0.30 -1.15 1.05 0 0.55 -0.25 1.45 -0.50 2 -0.40 0.75 -0.35 0.95 0.25 0.95 0.55 0 0.75 0.50 0.75 1.75 0 0.95 -0.20 1.75 -0.50 1.75 -0.25 0 -0.50 -0.35 -0.50 -0.75z"/>
  <path d="M18.50 10.55 c0 -1.55 0.70 -2.05 3.05 -2.05 0.80 0 1.45 -0.20 1.45 -0.50 0 -0.25 0.80 -0.50 1.75 -0.50 1.10 0 1.75 0.25 1.75 0.65 0 0.45 -0.55 0.65 -1.60 0.55 -0.90 -0.10 -1.25 -0.05 -0.75 0.10 1.45 0.45 0.95 1.20 -0.75 1.20 -0.90 0 -2.40 0.45 -3.25 1 l-1.65 1 0 -1.45z"/>
  <path d="M30.65 6.05 c-0.15 -0.70 -1.05 -1.10 -3.30 -1.55 -1.70 -0.35 -3.30 -0.85 -3.55 -1.05 -0.30 -0.25 -1.60 -0.45 -2.95 -0.45 -2.05 0 -2.40 -0.15 -2.25 -0.85 0.25 -1.30 5 -1.15 6.55 0.15 0.90 0.80 1 0.80 0.40 0.10 -0.60 -0.80 -0.55 -0.90 0.30 -0.90 1.75 0 6.20 2.65 7.45 4.45 0.70 1 0.70 1.05 -0.80 1.05 -1.15 0 -1.65 -0.25 -1.85 -0.95z"/>
 </g>
 <g fill="#5f7e60">
  <path d="M9 19.70 c0 -0.70 0.15 -0.70 0.75 -0.20 0.40 0.35 0.75 0.70 0.75 0.80 0 0.10 -0.35 0.20 -0.75 0.20 -0.40 0 -0.75 -0.35 -0.75 -0.80z"/>
  <path d="M21.50 20.15 c0.40 -0.15 1.80 -0.80 3.15 -1.45 1.85 -0.90 2.35 -1 2.35 -0.45 0 1 -2.60 2.25 -4.60 2.20 -0.90 0 -1.30 -0.15 -0.90 -0.30z"/>
  <path d="M10 18.50 c0 -0.25 0.25 -0.50 0.50 -0.50 0.30 0 0.50 0.25 0.50 0.50 0 0.30 -0.20 0.50 -0.50 0.50 -0.25 0 -0.50 -0.20 -0.50 -0.50z"/>
  <path d="M21 18.10 c0 -1.10 2.25 -2.25 3.55 -1.85 1.35 0.45 1.15 1.10 -0.55 2 -1.95 1 -3 0.95 -3 -0.15z"/>
  <path d="M12 17.80 c0 -0.40 -0.30 -0.85 -0.60 -0.95 -0.40 -0.15 -0.30 -0.30 0.25 -0.30 0.55 -0.05 0.85 0.30 0.85 0.95 0 0.55 -0.10 1 -0.25 1 -0.15 0 -0.25 -0.30 -0.25 -0.70z"/>
  <path d="M19.50 16.70 c0 -1.30 1.85 -2.20 4.40 -2.20 1.90 0 3.55 0.70 3 1.25 -0.15 0.20 -0.75 0.05 -1.25 -0.30 -1.40 -0.85 -4.45 -0.15 -5.40 1.20 -0.75 1.05 -0.75 1.05 -0.75 0.05z"/>
 </g>
 <g fill="#98715f">
  <path d="M23 38.40 c0 -1.25 0.55 -2.20 2.40 -4.10 2.60 -2.75 1.75 -2.30 -2.35 1.30 -2.55 2.25 -4.55 3.05 -4.55 1.90 0 -0.25 -0.35 -0.50 -0.75 -0.50 -0.40 0 -0.75 -0.30 -0.75 -0.60 0 -0.45 -0.15 -0.40 -0.50 0.10 -0.50 0.80 -1.45 0.25 -1.70 -1.05 -0.10 -0.40 -0.75 -2 -1.50 -3.60 -1.55 -3.45 -1.65 -4.35 -0.30 -4.35 0.55 0 1 0.35 1 0.75 0 0.40 0.45 0.75 1 0.75 0.55 0 1 0.35 1 0.75 0 0.40 -0.30 0.75 -0.70 0.75 -1.35 0 -1.35 0.95 0 3 1.20 1.80 2.55 2.50 3.35 1.70 0.15 -0.15 -0.15 -1 -0.70 -1.85 -0.50 -0.90 -0.95 -2.45 -0.95 -3.45 0 -1.85 0.05 -1.90 1.75 -1.90 l1.70 0 -0.05 3.75 c-0.10 4.10 0.25 4.95 1.30 3.45 0.65 -0.80 0.65 -0.95 0 -1.10 -0.45 -0.10 -0.70 -0.80 -0.70 -1.90 0 -1.35 0.20 -1.70 0.95 -1.70 0.65 0 1.05 -0.45 1.30 -1.50 0.25 -1.05 0.65 -1.50 1.30 -1.50 0.60 0 0.95 -0.35 0.95 -1 0 -0.80 0.35 -1 1.90 -1 l1.85 0 -2.60 2.55 c-1.45 1.40 -2.65 2.70 -2.65 2.85 0 0.15 0.65 -0.35 1.45 -1.10 0.90 -0.85 1.70 -1.25 2.10 -1.05 0.40 0.25 0.50 0.20 0.25 -0.20 -0.25 -0.35 0.60 -1.45 2.10 -2.80 1.45 -1.35 2.90 -3.20 3.45 -4.50 1.55 -3.80 2.35 -2.55 0.80 1.35 -1 2.65 -2.05 3.90 -3.25 3.90 -0.50 0 -0.90 0.35 -0.90 0.85 0 0.45 -0.35 1.25 -0.80 1.75 -0.50 0.50 -0.90 1.50 -0.95 2.25 -0.05 0.80 -0.15 1.80 -0.15 2.30 -0.05 0.50 -0.50 0.85 -1.10 0.85 -0.75 0 -1 0.35 -1 1.45 0 0.85 -0.20 1.65 -0.50 1.80 -0.25 0.15 -0.50 0.75 -0.50 1.30 0 0.60 -0.35 0.95 -1 0.95 -0.80 0 -1 -0.35 -1 -1.60z m0.35 -6.25 c-0.20 -0.15 -0.35 0 -0.35 0.35 0 0.35 0.15 0.50 0.35 0.35 0.15 -0.20 0.15 -0.50 0 -0.70z m-3.75 -1.25 c-0.35 -0.35 -0.60 -0.40 -0.60 -0.10 0 0.70 0.60 1.30 0.95 0.95 0.10 -0.15 -0.05 -0.55 -0.35 -0.85z"/>
  <path d="M16.65 33.90 c-1.15 -1.50 -1.20 -2.05 -0.10 -1.05 0.60 0.60 1 1.25 0.85 1.40 -0.15 0.15 -0.50 0 -0.75 -0.35z"/>
  <path d="M14 25.75 c0 -0.40 -0.45 -0.75 -1 -0.75 -0.75 0 -1 -0.35 -1 -1.45 0 -1.95 0.45 -3.05 1.25 -3.05 0.40 0 0.80 0.40 0.90 0.90 0.20 0.80 0.25 0.80 0.30 0 0 -0.50 0.30 -0.90 0.55 -0.90 0.30 0 0.50 -0.40 0.50 -0.85 0 -0.80 -0.10 -0.80 -0.55 -0.15 -0.40 0.60 -0.45 0.50 -0.35 -0.50 0.10 -0.75 -0.30 -1.70 -1.05 -2.50 -0.65 -0.70 -1.50 -2 -1.90 -2.90 -0.60 -1.45 -0.80 -1.55 -1.70 -1.05 -1.55 0.80 -1.70 0.25 -0.65 -2.60 1.15 -3.20 2.20 -3.80 2.20 -1.25 0 1.20 0.25 1.80 0.70 1.80 0.40 0 1 0.95 1.35 2.20 0.40 1.35 1 2.35 1.55 2.45 0.65 0.20 0.90 0.80 0.95 2.20 0.05 1.85 0.05 1.90 0.45 0.40 l0.40 -1.50 0.05 1.85 c0.05 2.30 0.75 4.10 2.05 5.40 0.95 0.95 0.95 1 0.05 1 -0.50 0 -1.05 0.45 -1.20 1 -0.20 0.75 -0.70 1 -2.05 1 -1.25 0 -1.80 -0.20 -1.80 -0.75z m2.40 -2.40 c0.10 -0.50 -0.15 -0.85 -0.60 -0.85 -0.50 0 -0.80 0.45 -0.80 1.05 0 1.20 1.15 1.05 1.40 -0.20z"/>
  <path d="M29.50 24.10 c0 -0.55 0.25 -1.20 0.50 -1.35 0.30 -0.15 0.50 -0.75 0.50 -1.30 0 -0.65 0.35 -0.95 1.20 -0.95 1.55 0 1.25 1.35 -0.75 3.30 -1.40 1.30 -1.45 1.35 -1.45 0.30z"/>
  <path d="M9.60 23.50 c-0.90 -1.45 -0.75 -2.50 0.40 -2.50 0.80 0 1 0.35 1 1.75 0 1.95 -0.45 2.20 -1.40 0.75z"/>
  <path d="M18.85 22.60 c-1.55 -1.70 -0.95 -5.75 1.15 -8 0.95 -1.05 1.50 -1.15 4.55 -1.05 2.15 0.05 3.70 -0.10 4.05 -0.45 0.35 -0.35 1.10 -0.60 1.75 -0.60 1 0 1.15 -0.25 1.15 -2 0 -1.45 0.20 -2 0.75 -2 0.40 0 0.75 -0.35 0.75 -0.75 0 -0.40 0.20 -0.75 0.50 -0.75 0.75 0 1.50 1.80 1.50 3.70 0 1.65 -0.10 1.80 -1.50 1.80 -1.40 0 -1.50 0.15 -1.50 1.75 0 1.95 -0.25 2.10 -1.55 0.95 -0.80 -0.75 -0.85 -0.70 -0.60 0.25 0.15 0.55 0.60 1.10 1.10 1.20 0.45 0.10 -0.15 0.40 -1.30 0.60 -1.80 0.30 -2.15 0.55 -2.15 1.55 0 1.05 -0.25 1.20 -1.75 1.20 -2.15 0 -2.20 -0.50 -0.25 -1.65 1.70 -1.05 1.85 -1.70 0.65 -2.65 -1.90 -1.45 -5.60 -0.45 -6.55 1.80 -0.50 1.10 -0.55 1.90 -0.10 3.50 0.65 2.45 0.50 2.85 -0.65 1.60z"/>
  <path d="M12.45 18.55 c-0.35 -0.85 -1.20 -1.75 -1.85 -2 -1.30 -0.60 -1.05 -1.55 0.40 -1.55 0.60 0 1.30 0.75 1.95 2.15 1.15 2.40 1.25 2.85 0.60 2.85 -0.25 0 -0.75 -0.65 -1.10 -1.45z"/>
  <path d="M33 19.50 c0 -0.35 0.15 -0.50 0.35 -0.35 0.15 0.20 0.15 0.50 0 0.70 -0.20 0.15 -0.35 0 -0.35 -0.35z"/>
  <path d="M24 17.65 c0 -0.30 -0.40 -0.65 -0.85 -0.75 -0.80 -0.15 -0.80 -0.20 -0.10 -0.50 1.20 -0.45 2.35 0.40 1.55 1.20 -0.40 0.40 -0.60 0.40 -0.60 0.05z"/>
  <path d="M27.30 9.80 c0.15 -0.40 -0.20 -0.80 -0.90 -1 -1.35 -0.35 -3.45 -0.35 -2.50 0.05 1.15 0.45 0.60 1.15 -0.90 1.15 -1.15 0 -1.50 -0.20 -1.50 -1 0 -1 2.45 -2 5.15 -2 1.20 0 1.35 0.15 1.35 1.75 0 0.95 -0.20 1.75 -0.50 1.75 -0.25 0 -0.35 -0.30 -0.20 -0.70z"/>
  <path d="M13.55 4.15 c0.95 -1.15 5.75 -3.20 6.70 -2.85 1.25 0.50 0.90 1.70 -0.50 1.70 -0.70 0 -1.25 0.20 -1.25 0.40 0 0.70 -2.40 1.60 -4.10 1.60 -1.35 0 -1.45 -0.10 -0.85 -0.85z"/>
  <path d="M26 4 c0 -0.25 -0.45 -0.50 -1 -0.50 -0.70 0 -1 -0.35 -1 -1.10 0 -1.05 0 -1.05 1.10 -0.10 0.90 0.80 1.05 0.85 0.75 0.10 -0.25 -0.70 -0.15 -0.75 0.80 -0.35 0.60 0.25 1.50 0.60 2 0.75 1.55 0.55 1 1.70 -0.90 1.70 -0.95 0 -1.75 -0.20 -1.75 -0.50z"/>
 </g>
 <g fill="#a98170">
  <path d="M27.50 38.45 c0 -1.35 0.10 -1.50 0.80 -0.95 0.40 0.40 1 1.10 1.25 1.60 0.40 0.75 0.30 0.90 -0.80 0.90 -1.05 0 -1.25 -0.20 -1.25 -1.55z"/>
  <path d="M23.35 38.40 c-0.30 -1.15 -0.05 -1.55 2.90 -4.85 1.40 -1.60 1.45 -1.65 0.25 -1 -2.20 1.15 -4 0.05 -4 -2.45 0 -1.05 0.30 -1.55 1 -1.75 0.55 -0.15 1.15 -0.65 1.35 -1.20 0.50 -1.35 1.45 -2.15 2.55 -2.15 0.55 0 1.10 -0.35 1.30 -0.75 0.15 -0.40 0.60 -0.75 1 -0.75 0.35 0 0.85 -0.55 1 -1.20 0.15 -0.65 0.75 -1.30 1.30 -1.45 0.90 -0.25 0.95 -0.15 0.30 1.10 -0.40 0.70 -2.45 2.95 -4.55 4.95 -2.10 2 -3.70 3.80 -3.50 4 0.20 0.20 0.75 -0.25 1.30 -1 0.65 -0.90 1.25 -1.25 1.80 -1.05 0.50 0.20 0.70 0.10 0.50 -0.20 -0.20 -0.30 0.65 -1.45 1.85 -2.50 1.25 -1.10 2.60 -2.80 3.10 -3.80 0.90 -1.90 1.70 -2.40 1.70 -1.10 0 1.40 -1.90 4.45 -4 6.50 -2.15 2.05 -3.70 4.25 -2.45 3.50 0.45 -0.30 0.55 -0.15 0.30 0.45 -0.20 0.50 -0.35 1.20 -0.35 1.60 0 0.40 -0.35 0.70 -0.75 0.70 -0.50 0 -0.75 0.50 -0.75 1.50 0 1 -0.25 1.50 -0.75 1.50 -0.45 0 -0.75 0.45 -0.75 1.25 0 1.55 -1.25 1.65 -1.65 0.15z"/>
  <path d="M15.80 37.20 c-0.45 -0.40 -0.80 -1.05 -0.80 -1.45 0 -0.35 -0.55 -1.75 -1.20 -3.10 -0.70 -1.30 -1.40 -3.05 -1.60 -3.90 -0.20 -0.80 -0.55 -1.80 -0.85 -2.10 -0.35 -0.50 -0.10 -0.65 1 -0.65 1.40 0 1.55 0.20 1.85 1.95 0.15 1.10 0.15 2.30 0 2.70 -0.15 0.40 0.30 1.70 1 2.80 0.95 1.50 1.65 2.05 2.55 2.05 1.60 0 1.55 -0.40 -0.25 -2.90 -1.10 -1.55 -1.30 -2.10 -0.75 -2.10 0.40 0 0.75 -0.45 0.75 -1 0 -0.80 0.35 -1 1.70 -1 1.55 0 1.70 0.15 2 1.70 0.20 0.95 0.60 1.80 1 1.95 0.40 0.15 0.55 0.80 0.40 1.80 -0.20 1.30 -0.45 1.55 -1.65 1.55 -1.10 0 -1.45 0.25 -1.45 0.95 0 1.60 -2.40 2.10 -3.70 0.75z m4 -6.05 c-0.70 -1 -1.30 -1.70 -1.30 -1.45 0 0.65 2.10 3.90 2.35 3.60 0.15 -0.10 -0.35 -1.10 -1.05 -2.15z"/>
  <path d="M21.65 36.15 c0.20 -0.15 0.50 -0.15 0.70 0 0.15 0.20 0 0.35 -0.35 0.35 -0.35 0 -0.50 -0.15 -0.35 -0.35z"/>
  <path d="M23 34.50 c0 -0.70 0.35 -1 1.10 -1 1 0 1.05 0.05 0.15 1 -0.50 0.55 -1 1 -1.10 1 -0.05 0 -0.15 -0.45 -0.15 -1z"/>
  <path d="M16 32.90 c-0.60 -1.10 -0.60 -1.10 0.30 -0.30 0.50 0.50 0.75 1 0.60 1.20 -0.20 0.15 -0.60 -0.25 -0.90 -0.90z"/>
  <path d="M20.50 25.50 c0 -0.25 -0.55 -0.50 -1.25 -0.50 -0.70 0 -1.25 -0.20 -1.25 -0.50 0 -0.25 -0.30 -0.50 -0.70 -0.50 -0.35 0 -0.80 -0.50 -1 -1.10 -0.20 -0.85 -0.40 -1 -0.85 -0.55 -0.70 0.70 -0.35 2.45 0.45 2.30 0.35 -0.10 0.60 0.10 0.60 0.35 0 0.30 -1 0.50 -2.25 0.50 l-2.25 0 0 -2.40 c0 -1.30 0.25 -2.65 0.60 -3 0.40 -0.40 0.40 -0.75 -0.10 -1.35 -0.35 -0.40 -0.50 -0.90 -0.30 -1.10 0.70 -0.75 1.80 1.65 1.70 3.75 -0.10 1.15 0 2.10 0.20 2.10 0.25 0 0.40 -1.25 0.40 -2.75 0 -2.40 0.15 -2.75 0.95 -2.75 0.55 0 1.10 -0.40 1.20 -0.85 0.15 -0.50 0.25 0.10 0.30 1.35 0.05 2.25 1.55 5.50 2.55 5.50 0.30 0 0.05 -0.65 -0.55 -1.45 -1.55 -2.10 -1.05 -5.70 1.05 -7.80 1.35 -1.35 1.90 -1.50 5.25 -1.65 3.90 -0.20 4.90 -0.95 2.75 -2.10 -0.55 -0.30 -0.90 -0.80 -0.70 -1.10 0.20 -0.25 0 -0.70 -0.35 -0.95 -0.50 -0.30 -0.30 -0.45 0.70 -0.45 1.40 0 1.55 0.15 2.05 2.65 0.20 0.75 0.65 1.35 1.05 1.35 0.40 0 0.75 0.45 0.75 0.95 0 0.70 0.40 1.05 1.40 1.15 1.15 0.15 1.35 0.40 1.50 2.05 l0.15 1.85 -2.25 0 c-1.25 0 -2.30 -0.20 -2.30 -0.50 0 -0.25 -0.65 -0.50 -1.50 -0.50 -1.25 0 -1.50 -0.20 -1.50 -1.25 0 -1.15 -0.15 -1.25 -2.55 -1.25 -2.20 0 -2.75 0.20 -4.05 1.60 -1 1.10 -1.40 1.90 -1.20 2.60 0.15 0.60 0.30 1.45 0.30 1.95 0 1.15 0.85 1.10 1.25 -0.10 0.15 -0.50 0.75 -1.05 1.25 -1.20 0.80 -0.20 1 0 1 0.90 0 0.70 -0.35 1.25 -0.85 1.40 -0.55 0.15 -0.35 0.25 0.50 0.30 1.20 0.05 1.35 0.25 1.35 1.80 0 1.65 -0.10 1.75 -1.75 1.75 -0.95 0 -1.75 -0.20 -1.75 -0.50z m11.15 -9.35 c-0.65 -0.40 -1.15 -1.15 -1.15 -1.55 0 -0.55 -0.15 -0.65 -0.50 -0.30 -1.10 1.10 -0.05 2.20 2.50 2.60 0.15 0.05 -0.25 -0.30 -0.85 -0.75z m-3.15 -0.40 c0 -0.15 -0.10 -0.25 -0.25 -0.25 -0.15 0 -0.25 0.10 -0.25 0.25 0 0.15 0.10 0.25 0.25 0.25 0.15 0 0.25 -0.10 0.25 -0.25z"/>
  <path d="M9 20.25 c0 -1.30 0 -1.30 1.25 -0.40 1.55 1.15 1.55 1.65 0 1.65 -1 0 -1.25 -0.25 -1.25 -1.25z"/>
  <path d="M21.25 18.55 c-0.30 -0.55 1.05 -2.05 1.90 -2.05 0.30 0 0.05 0.35 -0.55 0.80 -0.60 0.40 -1 1 -0.85 1.25 0.20 0.25 0.20 0.45 0.05 0.45 -0.15 0 -0.35 -0.20 -0.55 -0.45z"/>
  <path d="M13.30 15.95 c-0.70 -0.85 -1.45 -2.10 -1.60 -2.75 -0.25 -0.90 -0.55 -1.15 -1.15 -0.95 -0.45 0.20 -0.90 0.35 -1.05 0.40 -0.50 0.20 -0.55 -0.65 -0.25 -2.15 0.30 -1.35 1.75 -2.20 1.75 -1 0 0.30 0.35 0.50 0.75 0.50 0.50 0 0.75 0.55 0.75 1.75 0 1.40 0.20 1.75 0.95 1.75 0.75 0 1 0.45 1.15 2 0.10 1.10 0.15 2 0.10 2 -0.05 0 -0.70 -0.70 -1.40 -1.55z"/>
  <path d="M10.15 15.90 c0.10 -0.35 0.50 -0.65 0.85 -0.65 0.35 0 0.75 0.30 0.90 0.65 0.10 0.35 -0.25 0.60 -0.90 0.60 -0.65 0 -1 -0.25 -0.85 -0.60z"/>
  <path d="M16.60 12.25 c0.10 -1.65 0.35 -2.05 1.30 -2.15 0.60 -0.10 1.10 -0.45 1.10 -0.75 0 -0.70 3.35 -1.85 5.25 -1.85 0.70 0 1.25 0.25 1.25 0.50 0 0.30 -0.45 0.50 -1.05 0.50 -0.55 0 -0.90 0.20 -0.70 0.45 0.15 0.30 -0.55 0.75 -1.55 1 -1.05 0.30 -2.75 1.35 -3.80 2.40 l-1.95 1.90 0.15 -2z"/>
  <path d="M31 10.25 c0 -1.40 0.20 -1.75 1 -1.75 0.55 0 1 -0.20 1 -0.50 0 -1.10 1.40 -0.45 1.70 0.80 0.55 2.20 -0.05 3.20 -2 3.20 -1.60 0 -1.70 -0.10 -1.70 -1.75z m3 0.55 c0 -0.15 -0.20 -0.40 -0.50 -0.55 -0.25 -0.15 -0.50 -0.05 -0.50 0.20 0 0.30 0.25 0.55 0.50 0.55 0.30 0 0.50 -0.10 0.50 -0.20z"/>
  <path d="M10 8.20 c0 -0.75 1.15 -2.25 2.50 -3.20 l1.50 -1.05 0 1.50 c0 1.05 -0.25 1.55 -0.75 1.55 -0.40 0 -0.75 0.35 -0.75 0.75 0 0.45 -0.45 0.75 -1.25 0.75 -0.70 0 -1.25 -0.15 -1.25 -0.30z"/>
  <path d="M25.30 4.65 c-0.80 -0.15 -1.80 -0.55 -2.20 -0.95 -0.55 -0.55 -1.40 -0.65 -3.65 -0.40 -2.10 0.25 -2.95 0.15 -2.95 -0.25 0 -1.80 6.80 -2.35 8.60 -0.70 0.55 0.50 0.90 0.60 0.90 0.25 0 -0.35 0.35 -0.60 0.75 -0.60 0.40 0 0.75 0.25 0.75 0.50 0 0.30 0.55 0.50 1.25 0.50 0.90 0 1.25 0.25 1.25 1 0 1.05 -1.05 1.20 -4.70 0.65z"/>
 </g>
 <g fill="#81ac80">
  <path d="M21.55 20.30 c0.65 -0.70 4.95 -2.20 4.95 -1.75 0 0.55 -3.05 1.95 -4.30 1.95 -0.50 0 -0.75 -0.10 -0.65 -0.20z"/>
  <path d="M21.30 18.55 c-0.60 -0.95 2.10 -2.75 3.15 -2.05 0.40 0.20 0.55 0.60 0.35 0.90 -0.40 0.70 -3.20 1.65 -3.50 1.15z"/>
  <path d="M19.50 16.75 c0 -0.15 0.10 -0.25 0.25 -0.25 0.15 0 0.25 0.10 0.25 0.25 0 0.15 -0.10 0.25 -0.25 0.25 -0.15 0 -0.25 -0.10 -0.25 -0.25z"/>
  <path d="M20 15.75 c0 -0.15 0.10 -0.25 0.25 -0.25 0.15 0 0.25 0.10 0.25 0.25 0 0.15 -0.10 0.25 -0.25 0.25 -0.15 0 -0.25 -0.10 -0.25 -0.25z"/>
  <path d="M21 15.25 c0 -0.15 0.10 -0.25 0.25 -0.25 0.15 0 0.25 0.10 0.25 0.25 0 0.15 -0.10 0.25 -0.25 0.25 -0.15 0 -0.25 -0.10 -0.25 -0.25z"/>
  <path d="M26 15.25 c0 -0.15 0.10 -0.25 0.25 -0.25 0.15 0 0.25 0.10 0.25 0.25 0 0.15 -0.10 0.25 -0.25 0.25 -0.15 0 -0.25 -0.10 -0.25 -0.25z"/>
  <path d="M22.90 14.65 c0.60 -0.10 1.50 -0.10 2 0 0.45 0.15 -0.05 0.25 -1.15 0.20 -1.10 0 -1.50 -0.10 -0.85 -0.20z"/>
 </g>
 <g fill="#c1907b">
  <path d="M23.40 38.65 c-0.20 -1.55 2.65 -5.65 3.90 -5.65 0.50 0 0.70 0.65 0.70 2.15 0 1.15 0.35 2.55 0.75 3.05 1.10 1.45 0.95 1.80 -0.95 1.80 -1.65 0 -1.75 -0.10 -1.95 -1.85 l-0.20 -1.90 -0.05 1.90 c-0.10 1.45 -0.30 1.85 -1.05 1.85 -0.70 0 -1.05 -0.40 -1.15 -1.35z"/>
  <path d="M16 37 c-0.55 -0.55 -1 -1.30 -1 -1.60 0 -0.35 -0.60 -1.75 -1.30 -3.15 l-1.25 -2.50 2 -0.45 c1.20 -0.25 2.05 -0.75 2.05 -1.10 0 -0.45 0.60 -0.70 1.70 -0.70 1.40 0 1.75 0.20 2 1.25 0.35 1.40 0.65 1.45 2.50 0.75 1.75 -0.65 1.80 -2.50 0.05 -2.50 -0.70 0 -1.25 -0.20 -1.25 -0.50 0 -0.25 -0.35 -0.50 -0.75 -0.50 -0.40 0 -0.75 -0.35 -0.75 -0.75 0 -0.40 -0.45 -0.75 -0.95 -0.75 -1.50 0 -2.55 -0.55 -2.55 -1.30 0 -0.35 -0.35 -0.85 -0.75 -1.05 -0.40 -0.25 -0.80 -1.35 -0.90 -2.55 -0.15 -1.15 -0.50 -2.45 -0.85 -2.85 -0.60 -0.70 -0.50 -0.75 0.80 -0.45 1.75 0.45 2.20 1 2.20 2.95 0 1.60 1.65 4.75 2.50 4.75 0.75 0 0.60 -0.40 -0.50 -1.60 -1.20 -1.30 -1.40 -3.50 -0.25 -3.10 0.40 0.20 0.75 0.85 0.75 1.50 0 1.45 0.35 1.50 1.40 0.20 0.50 -0.55 1.70 -1.30 2.75 -1.75 1.85 -0.75 1.85 -0.75 1.85 0.50 0 0.95 -0.35 1.30 -1.60 1.70 -1.60 0.45 -1.60 0.45 -0.25 0.50 1.30 0.05 1.35 0.15 1.35 2.55 0 1.90 0.20 2.50 0.75 2.50 0.45 0 0.75 -0.45 0.75 -1.25 0 -1.10 0.20 -1.25 1.85 -1.25 l1.90 0 -3.15 2.90 c-1.70 1.60 -3.10 3.15 -3.10 3.50 0 0.85 0.85 0.75 1.20 -0.15 0.15 -0.40 0.60 -0.75 0.95 -0.75 0.40 0 1.10 -0.45 1.60 -1 0.50 -0.55 0.75 -1 0.50 -1 -0.20 0 -0.10 -0.35 0.25 -0.75 0.35 -0.40 0.85 -0.60 1.20 -0.40 0.30 0.15 0.40 0.15 0.20 -0.10 -0.20 -0.20 0.20 -0.85 0.90 -1.40 0.70 -0.55 1.70 -2 2.25 -3.20 0.50 -1.15 1.15 -2.15 1.40 -2.15 0.70 0 -0.95 4.55 -1.75 4.85 -0.40 0.15 -0.70 0.50 -0.70 0.80 0 0.60 -1.15 1.85 -7.30 8.10 l-3.90 4 -0.35 -1.50 c-0.30 -1.45 -0.35 -1.45 -0.40 -0.20 -0.10 2.10 -2.35 2.65 -4.05 0.95z m2.50 -1.50 c0.60 -0.35 0.50 -0.80 -0.80 -2.60 -1.40 -2 -3.70 -3.20 -3.70 -1.90 0 0.95 2.80 5 3.45 5 0.15 0 0.65 -0.25 1.05 -0.50z m1.45 -4.20 c-1.45 -2.50 -1.85 -1.85 -0.40 0.70 0.65 1.15 1.25 1.85 1.35 1.60 0.05 -0.25 -0.35 -1.30 -0.95 -2.30z m3.55 1.20 c0 -0.25 -0.25 -0.50 -0.55 -0.50 -0.25 0 -0.35 0.25 -0.20 0.50 0.15 0.30 0.40 0.50 0.55 0.50 0.10 0 0.20 -0.20 0.20 -0.50z m-1 -8.25 c0 -0.15 -0.10 -0.25 -0.25 -0.25 -0.15 0 -0.25 0.10 -0.25 0.25 0 0.15 0.10 0.25 0.25 0.25 0.15 0 0.25 -0.10 0.25 -0.25z"/>
  <path d="M16.30 33.15 c-0.30 -0.70 -0.25 -0.75 0.25 -0.30 0.35 0.35 0.50 0.75 0.35 0.90 -0.15 0.15 -0.45 -0.10 -0.60 -0.60z"/>
  <path d="M26.50 29.25 c0 -0.15 0.10 -0.25 0.25 -0.25 0.15 0 0.25 0.10 0.25 0.25 0 0.15 -0.10 0.25 -0.25 0.25 -0.15 0 -0.25 -0.10 -0.25 -0.25z"/>
  <path d="M11.90 27.15 c-1.30 -1.45 -2.90 -5 -2.90 -6.35 0 -1.15 0.10 -1.25 1.20 -0.70 1.70 0.75 2.85 0.20 2.65 -1.20 -0.10 -0.65 -0.10 -0.85 0 -0.50 0.15 0.30 0.45 0.60 0.75 0.60 0.35 0 0.40 0.85 0.20 2.45 -0.30 2.10 -0.20 2.50 0.55 2.70 0.70 0.20 0.70 0.25 -0.20 0.30 -0.60 0 -1.15 -0.25 -1.30 -0.55 -0.10 -0.35 -0.10 0.40 0.05 1.75 0.25 2.60 0.15 2.75 -1 1.50z m0.10 -4.90 c0 -0.15 -0.10 -0.25 -0.25 -0.25 -0.15 0 -0.25 0.10 -0.25 0.25 0 0.15 0.10 0.25 0.25 0.25 0.15 0 0.25 -0.10 0.25 -0.25z"/>
  <path d="M14.50 22.75 c0 -0.15 0.10 -0.25 0.25 -0.25 0.15 0 0.25 0.10 0.25 0.25 0 0.15 -0.10 0.25 -0.25 0.25 -0.15 0 -0.25 -0.10 -0.25 -0.25z"/>
  <path d="M31.50 21.65 c0 -1.15 0.25 -1.65 0.75 -1.65 0.90 0 0.90 0.40 0 2 l-0.70 1.25 -0.05 -1.60z"/>
  <path d="M18.55 17.75 c-0.05 -0.60 0.55 -1.75 1.35 -2.65 1.25 -1.55 1.60 -1.65 5.10 -1.80 3.90 -0.20 4.90 -0.90 3.25 -2.30 -1.15 -0.95 -0.90 -1.50 0.75 -1.50 1.25 0 1.50 0.20 1.50 1.25 0 0.85 0.25 1.25 0.90 1.20 0.50 0 0.60 -0.15 0.25 -0.30 -0.95 -0.35 -0.85 -3.65 0.10 -3.65 0.45 0 0.75 -0.45 0.75 -1.05 0 -1.55 1.15 -0.90 1.85 1.10 0.35 0.95 0.60 2.65 0.60 3.85 0.05 1.90 -0.05 2.10 -1.15 2.10 -0.65 0 -1.35 -0.30 -1.45 -0.60 -0.15 -0.35 -0.30 -0.15 -0.30 0.50 -0.05 0.60 0.20 1.10 0.45 1.10 0.30 0 0.50 0.30 0.50 0.70 0 1.05 -2.10 0.35 -2.35 -0.80 -0.30 -1 -1.15 -1.25 -1.15 -0.25 0 1.05 0.70 1.75 2.15 2.10 2.15 0.55 1.70 1.75 -0.65 1.75 -1.45 0 -2 -0.20 -2 -0.75 0 -0.40 -0.40 -0.75 -0.90 -0.75 -0.45 0 -1.15 -0.45 -1.50 -1 -0.45 -0.75 -1.15 -1 -2.85 -1 -2.25 0 -3.20 0.60 -4.60 2.80 -0.55 0.90 -0.60 0.90 -0.60 -0.05z m10.30 -2.10 c-0.20 -0.15 -0.50 -0.15 -0.70 0 -0.15 0.20 0 0.35 0.35 0.35 0.35 0 0.50 -0.15 0.35 -0.35z m4.90 -5.15 c-0.15 -0.25 -0.55 -0.50 -0.80 -0.50 -0.30 0 -0.35 0.25 -0.20 0.50 0.15 0.30 0.55 0.50 0.80 0.50 0.30 0 0.35 -0.20 0.20 -0.50z"/>
  <path d="M10.50 16 c0 -0.25 0.25 -0.50 0.55 -0.50 0.25 0 0.35 0.25 0.20 0.50 -0.15 0.30 -0.40 0.50 -0.55 0.50 -0.10 0 -0.20 -0.20 -0.20 -0.50z"/>
  <path d="M11.65 13.15 c-0.45 -1.05 -0.90 -1.60 -1 -1.25 -0.15 0.30 -0.55 0.60 -1 0.60 -0.75 0 -0.60 -1.70 0.40 -4.40 0.85 -2.20 5.25 -5.60 7.35 -5.60 0.95 0 1.10 0.25 1.10 1.90 0 1.05 -0.25 2.15 -0.60 2.50 -0.45 0.45 -0.45 0.60 0 0.60 0.35 0 0.60 0.45 0.60 1 0 0.65 0.35 1 1 1 0.55 0 1 -0.20 1 -0.50 0 -1.25 1.80 -2.50 3.60 -2.50 1.55 0 1.90 0.20 1.90 1 0 0.70 -0.35 1 -1.05 1 -0.55 0 -1.35 0.35 -1.75 0.75 -0.45 0.40 -1.15 0.75 -1.60 0.75 -0.50 0 -1.60 0.65 -2.50 1.45 -0.85 0.85 -1.60 1.30 -1.60 1 0 -0.25 -0.65 -0.45 -1.50 -0.45 -1.35 0 -1.50 -0.15 -1.50 -1.50 0 -1 -0.25 -1.50 -0.75 -1.50 -0.40 0 -0.75 -0.20 -0.75 -0.50 0 -0.95 -0.90 -0.50 -1.15 0.55 -0.35 1.35 0.05 2.45 0.95 2.45 0.45 0 0.70 0.60 0.70 1.75 0 2.30 -0.85 2.25 -1.85 -0.10z"/>
  <path d="M26.20 4.75 c-0.50 -0.40 -1.45 -0.75 -2.05 -0.75 -0.90 0 -1.15 -0.30 -1.15 -1.25 0 -1.45 0.60 -1.60 1.70 -0.45 0.45 0.45 1.20 0.65 1.75 0.45 0.55 -0.15 1.10 -0.10 1.25 0.20 0.15 0.25 0.70 0.35 1.25 0.20 0.50 -0.15 1.50 0.30 2.35 1.05 l1.45 1.25 -2.80 0.05 c-1.65 0 -3.15 -0.30 -3.75 -0.75z"/>
  <path d="M19 2.50 c0 -0.80 0.35 -1 1.75 -1 1.40 0 1.75 0.20 1.75 1 0 0.80 -0.35 1 -1.75 1 -1.40 0 -1.75 -0.20 -1.75 -1z"/>
 </g>
 <g fill="#d4a087">
  <path d="M23.85 38.20 c0.10 -1.30 0.75 -2.60 2.15 -4.25 2.85 -3.40 2.50 -3.65 -0.75 -0.45 -1.50 1.50 -2.75 2.45 -2.75 2.10 0 -0.35 -0.45 -0.60 -1 -0.60 -0.55 0 -1 0.25 -1 0.50 0 0.30 0.25 0.50 0.50 0.50 0.90 0 0.55 0.95 -0.55 1.55 -1.70 0.90 -4.40 0.15 -5.05 -1.45 -0.30 -0.75 -1.10 -2.50 -1.75 -3.95 -0.60 -1.40 -1.15 -2.95 -1.15 -3.40 0 -0.45 -0.40 -1.40 -0.85 -2.10 -0.65 -0.95 -0.70 -1.40 -0.25 -1.55 0.30 -0.10 0.60 -0.75 0.60 -1.40 0 -0.75 0.30 -1.20 0.75 -1.20 0.40 0 0.75 0.30 0.75 0.65 0 0.65 2.30 1.90 2.75 1.45 0.15 -0.15 0.25 -1.15 0.25 -2.20 0 -1.95 -0.75 -2.60 -1.15 -1 -0.20 0.75 -0.55 -2.05 -0.40 -3.05 0.05 -0.25 -0.50 -1.10 -1.20 -1.95 -0.70 -0.85 -1.60 -2.30 -2 -3.25 -0.65 -1.50 -0.85 -1.70 -1.50 -1.15 -1 0.85 -1.35 0.40 -0.95 -1.20 0.25 -1 0.60 -1.30 1.75 -1.30 0.75 0 1.60 0.35 1.85 0.80 0.40 0.70 0.55 0.55 1 -0.75 0.45 -1.20 0.40 -1.55 -0.10 -1.55 -0.35 0 -1 -0.40 -1.45 -0.90 -0.80 -0.85 -0.75 -1 0.55 -2.20 2.05 -1.90 3.25 -2.40 6.05 -2.40 2.40 0 2.55 0.10 2.55 1.25 0 1 0.25 1.25 1.25 1.25 0.70 0 1.25 0.30 1.25 0.70 0 0.40 0.75 0.75 2 0.95 2.45 0.30 3.50 1.30 3.50 3.35 0 1.40 -0.10 1.50 -1 1 -0.55 -0.30 -1 -0.85 -1 -1.25 0 -0.40 -0.80 -0.95 -1.85 -1.20 -1.85 -0.50 -2.90 -0.35 -2.40 0.45 0.15 0.25 -0.45 0.55 -1.30 0.75 -0.90 0.20 -2.50 1.30 -3.75 2.65 -2.20 2.30 -2.65 3.25 -1.70 3.85 0.30 0.15 0.50 1.40 0.50 2.75 0 1.85 0.30 2.80 1.20 3.85 0.65 0.75 1.40 1.25 1.60 1 0.20 -0.20 -0.10 -0.85 -0.70 -1.50 -1.20 -1.25 -1.50 -3.05 -0.45 -2.75 0.30 0.15 0.65 0.70 0.75 1.30 0.20 1.25 0.85 1.45 1.45 0.35 0.25 -0.35 1.70 -1.35 3.30 -2.15 l2.85 -1.45 0 1.95 c0 1.10 -0.35 2.30 -0.75 2.70 -0.40 0.45 -0.75 1.55 -0.75 2.50 0 1.65 0.60 2.25 1.25 1.20 0.15 -0.25 0.75 -0.50 1.30 -0.50 0.50 0 0.95 -0.30 0.95 -0.70 0 -0.40 0.45 -1.05 1.05 -1.45 0.65 -0.50 1.15 -1.50 1.30 -2.80 0.25 -1.95 0.20 -2.05 -1.05 -2.05 -0.95 0 -1.90 -0.60 -3.10 -1.95 -1.75 -1.95 -1.95 -2 -5.50 -1.25 -0.60 0.10 -1.55 0.95 -2.15 1.80 -0.85 1.35 -1.05 1.45 -1.05 0.65 0 -0.55 0.65 -1.75 1.45 -2.65 1.45 -1.55 1.60 -1.60 5.75 -1.60 2.35 0 4.30 0.10 4.30 0.25 0 0.10 -0.50 0.70 -1.10 1.30 -1.15 1.05 -1.15 1.05 -0.10 0.75 0.75 -0.20 1.20 -0.10 1.40 0.45 0.15 0.40 0.90 0.75 1.65 0.75 1.10 0 1.25 0.10 0.65 0.50 -0.55 0.35 -0.35 0.50 0.90 0.50 1.95 0 2.05 0.80 0.55 4.60 -0.65 1.65 -1.90 3.50 -3.45 4.95 -1.55 1.55 -2.40 2.75 -2.40 3.50 0 0.65 -0.15 2.65 -0.35 4.45 -0.20 2.15 -0.15 3 0.15 2.55 0.40 -0.55 0.60 -0.50 1.05 0.35 0.80 1.50 0.75 1.60 -1.20 1.60 -1.45 0 -1.75 -0.20 -1.80 -1.10 l0 -1.15 -0.45 1.15 c-0.75 1.85 -1.85 1.35 -1.65 -0.70z m2.50 -2.05 c-0.20 -0.15 -0.35 0 -0.35 0.35 0 0.35 0.15 0.50 0.35 0.35 0.15 -0.20 0.15 -0.50 0 -0.70z m-7.60 -0.65 c0.20 -0.30 -0.25 -1.50 -0.95 -2.75 -0.70 -1.20 -1.30 -2.65 -1.30 -3.20 0 -0.60 -0.20 -1.05 -0.50 -1.05 -0.25 0 -0.50 -0.45 -0.50 -1 0 -0.55 -0.30 -1 -0.65 -1 -1.20 0 -0.75 5.50 0.60 7.70 1.10 1.75 2.65 2.35 3.30 1.30z m1.05 -4.50 c-1.50 -2.30 -2 -2.55 -1.30 -0.75 0.75 2 2.20 3.95 2.40 3.30 0.10 -0.35 -0.40 -1.50 -1.10 -2.55z m3.70 1.20 c0 -0.60 0.35 -0.75 1.25 -0.60 0.80 0.20 1.25 0.05 1.25 -0.40 0 -0.35 1 -1.45 2.25 -2.50 1.25 -1 2.25 -2.10 2.25 -2.45 0 -0.35 0.35 -0.95 0.85 -1.30 0.90 -0.80 2.65 -4.30 2.60 -5.45 0 -0.40 -0.45 0.15 -1 1.25 -0.55 1.10 -2.65 3.50 -4.60 5.40 -3.30 3.10 -3.60 3.25 -3.75 2.15 -0.10 -0.90 -0.55 -1.25 -1.75 -1.45 -0.90 -0.20 -2.10 -0.45 -2.70 -0.65 -0.90 -0.25 -1.15 -0.10 -1.15 0.55 0 0.90 1.15 2.25 1.95 2.25 0.30 0 0.55 0.30 0.55 0.70 0 0.45 0.40 0.60 1.25 0.40 1.40 -0.25 1.65 0.45 0.50 1.40 -0.85 0.70 -1 1.50 -0.25 1.50 0.30 0 0.50 -0.35 0.50 -0.80z m0 -6.95 c0 -0.15 -0.10 -0.25 -0.25 -0.25 -0.15 0 -0.25 0.10 -0.25 0.25 0 0.15 0.10 0.25 0.25 0.25 0.15 0 0.25 -0.10 0.25 -0.25z m-0.25 -1.25 c0.15 -0.25 -0.05 -0.50 -0.45 -0.50 -0.40 0 -0.90 0.25 -1.05 0.50 -0.15 0.30 0.05 0.50 0.45 0.50 0.40 0 0.90 -0.20 1.05 -0.50z m-6.25 -14.55 c0 -0.30 -0.20 -0.35 -0.50 -0.20 -0.25 0.15 -0.50 0.55 -0.50 0.80 0 0.30 0.25 0.35 0.50 0.20 0.30 -0.15 0.50 -0.55 0.50 -0.80z m-0.05 -5.20 c0 -0.25 -0.55 0.15 -1.20 0.90 -0.70 0.75 -1.25 1.65 -1.25 2 0 0.35 0.55 -0.05 1.25 -0.90 0.65 -0.80 1.20 -1.70 1.20 -2z m2.95 1.90 c-0.50 -0.10 -1.30 -0.10 -1.75 0 -0.50 0.15 -0.10 0.25 0.85 0.25 0.95 0 1.35 -0.10 0.90 -0.25z"/>
  <path d="M16.50 33.50 c0 -0.35 0.15 -0.50 0.35 -0.35 0.15 0.20 0.15 0.50 0 0.70 -0.20 0.15 -0.35 0 -0.35 -0.35z"/>
  <path d="M28.25 27.50 c0.15 -0.25 0.40 -0.50 0.55 -0.50 0.15 0 0.10 0.25 -0.05 0.50 -0.15 0.30 -0.40 0.50 -0.55 0.50 -0.15 0 -0.10 -0.20 0.05 -0.50z"/>
  <path d="M9.60 23 c-0.30 -0.55 -0.60 -1.55 -0.60 -2.25 0 -1.15 0.10 -1.20 1 -0.65 0.65 0.45 1 1.20 1 2.25 0 1.90 -0.50 2.10 -1.40 0.65z"/>
  <path d="M12 21.25 c0 -0.40 0.25 -0.75 0.50 -0.75 0.30 0 0.50 -0.35 0.50 -0.75 0 -0.40 0.25 -0.75 0.50 -0.75 0.55 0 0.60 0.30 0.20 1.90 -0.35 1.25 -1.70 1.55 -1.70 0.35z"/>
  <path d="M12.50 18.25 c0 -0.15 0.10 -0.25 0.25 -0.25 0.15 0 0.25 0.10 0.25 0.25 0 0.15 -0.10 0.25 -0.25 0.25 -0.15 0 -0.25 -0.10 -0.25 -0.25z"/>
  <path d="M31.65 15.95 c-1.45 -0.55 -1.55 -2.45 -0.15 -2.45 0.80 0 1 -0.35 1 -1.55 0 -1.40 0.10 -1.50 0.85 -0.90 0.70 0.60 0.75 0.60 0.50 -0.05 -0.20 -0.40 -0.50 -1.15 -0.65 -1.60 -0.20 -0.50 -0.50 -0.90 -0.75 -0.90 -0.25 0 -0.45 -0.80 -0.45 -1.85 0 -1.70 0.05 -1.75 0.90 -0.95 1.20 1.05 2.10 4 2.10 6.75 0 1.70 -0.15 2.05 -0.95 2.05 -0.55 0 -1.05 0.40 -1.15 0.95 -0.10 0.75 -0.40 0.85 -1.25 0.50z m2.85 -3.70 c0 -0.15 -0.10 -0.25 -0.25 -0.25 -0.15 0 -0.25 0.10 -0.25 0.25 0 0.15 0.10 0.25 0.25 0.25 0.15 0 0.25 -0.10 0.25 -0.25z"/>
  <path d="M26.75 5.50 c-0.15 -0.25 -0.85 -0.50 -1.55 -0.50 -1 0 -1.20 -0.25 -1.20 -1.55 0 -1.35 0.10 -1.50 0.75 -0.95 0.40 0.35 1.05 0.50 1.40 0.35 0.35 -0.15 1.05 0.05 1.60 0.45 0.60 0.45 1.05 0.50 1.25 0.20 0.50 -0.80 2.20 0.75 1.85 1.70 -0.35 0.90 -3.55 1.15 -4.10 0.30z"/>
 </g>
 <g fill="#e5a98e">
  <path d="M26 38.75 c0 -0.80 0.30 -1.25 0.75 -1.25 0.40 0 0.75 0.40 0.75 0.90 0 0.70 0.10 0.75 0.50 0.10 0.45 -0.65 0.55 -0.65 1 0 0.80 1.25 0.60 1.50 -1.25 1.50 -1.55 0 -1.75 -0.15 -1.75 -1.25z"/>
  <path d="M17.15 37.65 c-1.55 -0.30 -1.80 -1.40 -0.30 -1.55 1.90 -0.15 2.20 -0.55 1.85 -2.40 -0.35 -1.90 0.45 -2.35 1.30 -0.70 0.60 1.10 1.75 0.85 1.30 -0.30 -0.15 -0.40 -0.05 -0.70 0.20 -0.70 0.30 0 0.50 0.80 0.50 1.75 0 1.60 -0.10 1.75 -1.50 1.75 -1.25 0 -1.50 0.20 -1.50 1.25 0 0.70 -0.15 1.20 -0.35 1.20 -0.25 -0.05 -0.90 -0.20 -1.50 -0.30z"/>
  <path d="M13.05 30 c-0.35 -1.25 -0.85 -2.60 -1.10 -3 -1.45 -2.45 -2.95 -5.55 -2.95 -6.20 0 -0.55 0.45 -0.65 2 -0.45 1.70 0.25 2 0.15 2 -0.60 0 -0.50 0.15 -0.75 0.35 -0.55 0.20 0.15 0.30 1.45 0.20 2.80 -0.10 2.10 0 2.45 0.65 2.20 0.45 -0.15 0.80 -0.05 0.80 0.25 0 1.15 1.40 0.50 1.65 -0.75 0.15 -1 0 -1.40 -0.70 -1.55 -1.40 -0.40 -1.35 -3.65 0.05 -3.65 0.75 0 1 0.35 1 1.45 0 1.85 2.05 4.35 3.85 4.65 0.80 0.15 1.85 0.45 2.40 0.65 0.90 0.40 0.90 0.35 0.30 -0.40 -0.45 -0.60 -0.50 -0.85 -0.10 -0.85 0.35 0 0.50 -0.20 0.30 -0.50 -0.15 -0.30 -0.75 -0.25 -1.60 0.15 -1.15 0.50 -1.40 0.40 -2.70 -1.05 -1.60 -1.80 -1.85 -2.60 -0.70 -2.60 0.40 0 0.60 0.30 0.45 0.70 -0.40 1.05 0.85 1.60 1.55 0.65 0.35 -0.45 1.60 -1.30 2.85 -1.85 2.95 -1.30 3.80 -2.25 3 -3.55 -0.90 -1.45 -0.75 -1.75 1.35 -2.35 2.70 -0.85 3.05 -0.75 3 0.55 0 1.05 -0.05 1.05 -0.45 0.10 -0.35 -0.90 -0.40 -0.95 -0.75 -0.10 -0.20 0.45 -0.65 0.85 -1.05 0.85 -0.40 0 -0.70 0.25 -0.70 0.50 0 0.30 0.40 0.50 0.90 0.40 0.55 -0.10 0.80 0.10 0.65 0.60 -0.10 0.40 -0.30 1.45 -0.45 2.25 -0.10 0.85 -0.85 2.20 -1.60 3 -0.80 0.85 -1.55 2.35 -1.70 3.50 -0.35 2.10 -1.80 3.25 -4.15 3.25 -0.90 0 -1.15 0.30 -1.15 1.35 l0 1.30 -1.30 -1.20 -1.30 -1.20 0.35 1.30 c0.35 1.45 -0.95 2.50 -1.45 1.15 -0.40 -1 -2.70 -0.90 -2.90 0.20 -0.15 0.50 -0.50 -0.05 -0.85 -1.40z m4.30 -3.85 c-0.20 -0.15 -0.35 0 -0.35 0.35 0 0.35 0.15 0.50 0.35 0.35 0.15 -0.20 0.15 -0.50 0 -0.70z m7.15 -4.90 c0 -0.15 -0.10 -0.25 -0.25 -0.25 -0.15 0 -0.25 0.10 -0.25 0.25 0 0.15 0.10 0.25 0.25 0.25 0.15 0 0.25 -0.10 0.25 -0.25z m1 -1 c0 -0.15 -0.10 -0.25 -0.25 -0.25 -0.15 0 -0.25 0.10 -0.25 0.25 0 0.15 0.10 0.25 0.25 0.25 0.15 0 0.25 -0.10 0.25 -0.25z"/>
  <path d="M31.55 25.05 c2.25 -3.25 2.80 -3.60 1.95 -1.25 -0.65 1.65 -1.80 3.05 -3.15 3.80 -0.60 0.30 -0.15 -0.65 1.20 -2.55z"/>
  <path d="M29 25 c0 -0.25 0.25 -0.50 0.55 -0.50 0.25 0 0.35 0.25 0.20 0.50 -0.15 0.30 -0.40 0.50 -0.55 0.50 -0.10 0 -0.20 -0.20 -0.20 -0.50z"/>
  <path d="M30.50 23.40 c0 -0.90 0.90 -1.70 1.40 -1.20 0.15 0.20 -0.10 0.70 -0.55 1.15 -0.80 0.80 -0.85 0.80 -0.85 0.05z"/>
  <path d="M14.30 16.75 c-0.70 -0.65 -1.80 -2.30 -2.35 -3.60 -0.95 -2.25 -1.05 -2.35 -1.75 -1.45 -1.10 1.50 -1.25 0.70 -0.45 -2 0.80 -2.65 2.80 -5.05 3.75 -4.45 0.30 0.20 0.75 0.80 0.95 1.35 0.35 0.90 0.45 0.85 1.75 -0.80 0.85 -1.15 1.10 -1.80 0.70 -1.80 -0.40 0 -0.90 0.20 -1.20 0.45 -0.25 0.25 -0.90 0.25 -1.45 0.05 -0.85 -0.30 -0.65 -0.50 1.40 -1.45 1.30 -0.60 3.60 -1.20 5.10 -1.35 l2.75 -0.30 0 1.55 c0 0.85 0.25 1.55 0.50 1.55 0.30 0 0.50 -0.20 0.50 -0.45 0 -0.80 2.70 -1 3.55 -0.25 0.60 0.55 0.90 0.55 1.40 0.05 0.50 -0.45 0.75 -0.40 1.25 0.30 0.35 0.45 0.90 0.85 1.25 0.85 0.30 0 0.55 0.75 0.55 1.75 0 0.95 -0.20 1.75 -0.50 1.75 -0.25 0 -0.50 0.45 -0.50 1 0 1.40 -3 1.40 -3.85 0.05 -0.85 -1.35 -3.65 -1.90 -4.40 -0.85 -0.35 0.45 -0.95 0.80 -1.30 0.80 -0.40 0 -1.90 1.05 -3.40 2.35 -2.65 2.35 -2.85 2.85 -1.80 5.30 0.55 1.30 -0.85 1.10 -2.45 -0.40z m4.60 -7.80 c1.85 -0.70 1.10 -1 -1 -0.35 -1.45 0.40 -1.95 0.95 -2.75 2.95 -1.40 3.25 -0.80 3.55 1 0.40 0.85 -1.40 2 -2.75 2.75 -3z m3.45 -2.30 c-0.20 -0.15 -0.35 0 -0.35 0.35 0 0.35 0.15 0.50 0.35 0.35 0.15 -0.20 0.15 -0.50 0 -0.70z m6.65 -0.40 c0 -0.15 -0.10 -0.25 -0.25 -0.25 -0.15 0 -0.25 0.10 -0.25 0.25 0 0.15 0.10 0.25 0.25 0.25 0.15 0 0.25 -0.10 0.25 -0.25z m-9.35 -2.10 c-0.35 -0.10 -0.95 -0.10 -1.25 0 -0.35 0.15 -0.10 0.25 0.60 0.25 0.70 0 0.95 -0.10 0.65 -0.25z"/>
  <path d="M32 11.65 c0 -1.75 0 -1.80 1 -0.90 0.55 0.50 1 1.25 1.05 1.70 0 0.50 0.15 0.55 0.25 0.20 0.15 -0.35 0 -1.05 -0.30 -1.60 -0.45 -0.85 -0.40 -1.05 0.25 -1.05 0.55 0 0.75 0.50 0.75 1.75 0 1.60 -0.10 1.75 -1.50 1.75 -1.40 0 -1.50 -0.15 -1.50 -1.85z"/>
 </g>
 <g fill="#e9b69e">
  <path d="M24 38.30 c0 -1.20 0.55 -2.40 2.05 -4.25 2.10 -2.65 2.85 -3.25 1.95 -1.60 -0.25 0.55 -0.50 2.45 -0.50 4.25 l0 3.30 -1.75 0 c-1.65 0 -1.75 -0.10 -1.75 -1.70z"/>
  <path d="M28 39 c0 -1.20 0.75 -1.35 1.20 -0.20 0.45 1.10 0.40 1.20 -0.45 1.20 -0.40 0 -0.75 -0.45 -0.75 -1z"/>
  <path d="M17.50 37.45 c-0.65 -0.40 -0.60 -0.60 0.40 -1.30 1.45 -1 1.40 -1.30 -0.40 -3.95 -1.35 -1.90 -1.40 -2.20 -0.65 -2.20 0.65 0 0.30 -0.55 -1.25 -1.95 -1.50 -1.30 -2.05 -2.15 -1.80 -2.70 0.20 -0.60 0.65 -0.75 1.50 -0.55 1.05 0.30 1.20 0.15 1.20 -1.25 0 -1.05 -0.25 -1.55 -0.75 -1.55 -0.90 0 -1 -0.80 -0.10 -1.15 0.45 -0.20 0.45 -0.40 -0.05 -0.75 -0.40 -0.25 -0.60 -0.90 -0.50 -1.40 0.05 -0.55 -0.45 -1.65 -1.25 -2.45 -0.75 -0.85 -1.35 -1.70 -1.30 -2 0 -0.25 0.35 0 0.80 0.65 1.05 1.50 1.45 1.40 1.85 -0.50 0.20 -1.10 1.25 -2.50 3.05 -4.20 2.20 -2.10 2.75 -2.95 2.75 -4.20 0 -0.85 0.25 -2 0.50 -2.55 0.35 -0.55 0.35 -0.95 0.05 -0.95 -0.25 0 -0.55 0.25 -0.65 0.55 -0.10 0.30 -1.75 0.65 -3.65 0.80 l-3.50 0.20 2.40 -1.20 c3.10 -1.60 7.30 -1.75 8.55 -0.40 0.50 0.55 1.25 0.85 1.80 0.70 0.60 -0.15 1.10 0.05 1.30 0.55 0.35 0.95 1.50 1.05 1.85 0.20 0.30 -0.90 3.05 1.15 3.30 2.40 0.10 0.50 0.55 1.20 0.95 1.50 0.65 0.50 0.85 1.70 0.90 6.30 0.15 7.25 -0.75 10.15 -4.20 13.45 -1.30 1.25 -3.10 3.20 -4 4.30 -3.25 4.20 -7.40 6.75 -9.10 5.60z m3.35 -2.75 c-0.15 -0.15 -0.60 -0.20 -0.95 -0.05 -0.40 0.15 -0.25 0.30 0.30 0.30 0.55 0.05 0.85 -0.10 0.65 -0.25z m0.40 -1.20 c0.15 -0.25 -0.50 -1.55 -1.50 -2.90 -2.40 -3.40 -2.40 -5.85 0.05 -4.30 1 0.70 1.40 0.70 2.70 0.10 0.95 -0.40 1.40 -0.90 1.25 -1.35 -0.15 -0.40 0 -0.90 0.35 -1.15 0.55 -0.40 0.50 -0.55 0 -0.75 -0.50 -0.20 -0.05 -0.95 1.45 -2.45 2.20 -2.25 2.10 -3 -0.20 -1.20 -0.70 0.55 -1.80 1 -2.45 0.95 -1 -0.05 -0.90 -0.15 0.65 -0.90 2.85 -1.30 3.55 -2.05 3.20 -3.40 -0.30 -1.20 0.65 -2.65 1.70 -2.65 0.85 0 0.65 -2.35 -0.25 -2.70 -0.40 -0.15 -0.65 -0.50 -0.50 -0.70 0.15 -0.25 -0.30 -0.95 -1 -1.55 -1.35 -1.15 -3.70 -1 -3.70 0.25 0 0.40 -0.20 0.70 -0.50 0.70 -0.25 0 -0.50 -0.20 -0.50 -0.45 0 -0.30 0.25 -0.65 0.50 -0.80 0.30 -0.15 0.50 -0.75 0.50 -1.30 0 -1.60 -1.20 -0.80 -1.75 1.15 -0.30 1.15 -1.40 2.60 -2.85 3.90 -2.35 2.05 -3.10 4 -1.90 4.75 0.30 0.15 0.50 1.25 0.50 2.35 0 1.20 0.45 2.75 1.05 3.70 0.80 1.35 0.90 1.70 0.30 1.70 -0.40 0 -0.85 0.35 -1.05 0.75 -0.15 0.40 -0.60 0.75 -1.05 0.75 -1.10 0 -0.95 0.85 0.20 1.15 0.60 0.15 1.20 1 1.60 2.30 0.35 1.15 0.90 2.30 1.30 2.60 0.35 0.30 0.65 0.90 0.65 1.25 0 0.80 0.80 0.95 1.25 0.20z m3.50 -2 c0.40 0 2.40 -1.65 4.40 -3.65 2.85 -2.85 3.80 -4.20 4.35 -6.05 0.80 -3 0.30 -3.55 -0.80 -0.85 -0.45 1.15 -1.85 3 -3.15 4.10 l-2.30 2.05 -0.15 -1.35 c-0.10 -0.75 0.05 -1.60 0.35 -1.90 0.75 -0.75 0.70 -1.85 -0.15 -1.85 -0.45 0 -0.80 0.90 -1 2.65 -0.30 2.35 -0.50 2.70 -1.95 3.35 -1.20 0.55 -1.40 0.75 -0.70 0.90 0.50 0.10 1.30 -0.10 1.75 -0.50 0.45 -0.35 -0.05 0.40 -1.10 1.70 -1.10 1.40 -1.75 2.60 -1.50 2.95 0.25 0.45 0.50 0.30 0.75 -0.45 0.25 -0.60 0.75 -1.10 1.20 -1.10z m-2.75 -2.05 c0 -0.25 -0.45 -0.45 -1 -0.45 -0.95 0 -1.30 0.55 -0.70 1.15 0.40 0.40 1.70 -0.15 1.70 -0.70z m9.90 -13.60 c-0.70 -0.60 -1.40 -1.35 -1.50 -1.70 -0.10 -0.35 -0.70 -0.10 -1.65 0.70 -1.35 1.15 -1.40 1.25 -0.35 1 0.75 -0.20 1.25 0 1.45 0.45 0.15 0.40 0.95 0.70 1.85 0.70 l1.55 0 -1.35 -1.15z m0.10 -2.85 c0 -0.80 -0.20 -1.50 -0.40 -1.50 -0.25 0 -0.35 0.70 -0.20 1.50 0.10 0.85 0.30 1.50 0.40 1.50 0.10 0 0.20 -0.65 0.20 -1.50z m1.75 -2.30 c-1.15 -1.80 -1.50 -1.20 -0.40 0.70 0.50 0.90 1 1.35 1.05 1.05 0.10 -0.25 -0.20 -1.05 -0.65 -1.75z m-3.75 -2.20 c0 -0.25 -0.25 -0.50 -0.55 -0.50 -0.25 0 -0.35 0.25 -0.20 0.50 0.15 0.30 0.40 0.50 0.55 0.50 0.10 0 0.20 -0.20 0.20 -0.50z m-1 -2.25 c0 -0.40 -0.20 -0.75 -0.50 -0.75 -0.25 0 -0.50 0.35 -0.50 0.75 0 0.40 0.25 0.75 0.50 0.75 0.30 0 0.50 -0.35 0.50 -0.75z m2 0.50 c0 -0.15 -0.10 -0.25 -0.25 -0.25 -0.15 0 -0.25 0.10 -0.25 0.25 0 0.15 0.10 0.25 0.25 0.25 0.15 0 0.25 -0.10 0.25 -0.25z m-4 -1.25 c0 -0.25 -0.25 -0.50 -0.55 -0.50 -0.25 0 -0.35 0.25 -0.20 0.50 0.15 0.30 0.40 0.50 0.55 0.50 0.10 0 0.20 -0.20 0.20 -0.50z m-2.50 -1.75 c0 -0.15 -0.10 -0.25 -0.25 -0.25 -0.15 0 -0.25 0.10 -0.25 0.25 0 0.15 0.10 0.25 0.25 0.25 0.15 0 0.25 -0.10 0.25 -0.25z"/>
  <path d="M19.05 22.30 c-0.45 -0.50 -0.30 -0.60 0.70 -0.40 1.45 0.25 1.55 0.40 0.55 0.75 -0.40 0.15 -0.95 0 -1.25 -0.35z"/>
  <path d="M18.50 20.50 c0 -0.35 0.15 -0.50 0.35 -0.35 0.15 0.20 0.15 0.50 0 0.70 -0.20 0.15 -0.35 0 -0.35 -0.35z"/>
  <path d="M21 20.75 c0 -0.15 0.10 -0.25 0.25 -0.25 0.15 0 0.25 0.10 0.25 0.25 0 0.15 -0.10 0.25 -0.25 0.25 -0.15 0 -0.25 -0.10 -0.25 -0.25z"/>
  <path d="M20 15.30 c0 -0.75 1.75 -1.80 3.05 -1.80 1.85 0 1.90 0.80 0.10 1.20 -0.80 0.20 -1.80 0.45 -2.25 0.60 -0.50 0.15 -0.90 0.15 -0.90 0z"/>
  <path d="M16.50 33.75 c0 -0.15 0.10 -0.25 0.25 -0.25 0.15 0 0.25 0.10 0.25 0.25 0 0.15 -0.10 0.25 -0.25 0.25 -0.15 0 -0.25 -0.10 -0.25 -0.25z"/>
  <path d="M14 32.75 c0 -0.15 0.10 -0.25 0.25 -0.25 0.15 0 0.25 0.10 0.25 0.25 0 0.15 -0.10 0.25 -0.25 0.25 -0.15 0 -0.25 -0.10 -0.25 -0.25z"/>
  <path d="M13.50 31.75 c0 -0.15 0.10 -0.25 0.25 -0.25 0.15 0 0.25 0.10 0.25 0.25 0 0.15 -0.10 0.25 -0.25 0.25 -0.15 0 -0.25 -0.10 -0.25 -0.25z"/>
  <path d="M13 30.15 c0 -0.30 -0.15 -0.90 -0.30 -1.35 -0.15 -0.45 -0.05 -0.80 0.25 -0.80 0.85 0 1.25 1.50 0.60 2.15 -0.40 0.40 -0.55 0.40 -0.55 0z"/>
  <path d="M15 29.75 c0 -0.15 0.10 -0.25 0.25 -0.25 0.15 0 0.25 0.10 0.25 0.25 0 0.15 -0.10 0.25 -0.25 0.25 -0.15 0 -0.25 -0.10 -0.25 -0.25z"/>
  <path d="M11.65 26.40 c-2.05 -2.55 -2.75 -5.95 -1.25 -5.85 0.50 0 0.60 0.15 0.25 0.30 -0.85 0.30 -0.30 2.45 1 4.25 1 1.35 1 2.55 0 1.30z"/>
  <path d="M13.15 19.65 c0.20 -0.15 0.50 -0.15 0.70 0 0.15 0.20 0 0.35 -0.35 0.35 -0.35 0 -0.50 -0.15 -0.35 -0.35z"/>
  <path d="M12 13.25 c0 -0.15 0.10 -0.25 0.25 -0.25 0.15 0 0.25 0.10 0.25 0.25 0 0.15 -0.10 0.25 -0.25 0.25 -0.15 0 -0.25 -0.10 -0.25 -0.25z"/>
  <path d="M9.55 11.45 c-0.10 -2 1.90 -5.95 3.05 -5.95 0.25 0 -0.05 0.50 -0.60 1.10 -0.55 0.65 -1.15 1.70 -1.30 2.40 -0.40 1.90 -1.10 3.45 -1.15 2.45z"/>
  <path d="M15.10 8.15 c0.10 -0.50 0.50 -0.90 0.90 -0.90 0.40 0 0.80 0.40 0.90 0.90 0.10 0.60 -0.15 0.85 -0.90 0.85 -0.75 0 -1 -0.25 -0.90 -0.85z"/>
 </g>
 <g fill="#f8c5ae">
  <path d="M24.80 39.35 c-0.80 -0.60 -0.85 -0.90 -0.35 -2.45 0.30 -0.95 1.15 -2.30 1.90 -2.95 l1.30 -1.20 -0.30 2 c-0.20 1.10 -0.35 2.75 -0.35 3.65 0 1.75 -0.70 2.05 -2.20 0.95z"/>
  <path d="M28 38.95 c0 -0.90 0.10 -0.95 0.75 -0.45 0.40 0.35 0.75 0.80 0.75 1.05 0 0.25 -0.35 0.45 -0.75 0.45 -0.45 0 -0.75 -0.45 -0.75 -1.05z"/>
  <path d="M18.30 36.05 c0.80 -1.35 0.80 -1.50 0 -2.60 -1.05 -1.55 -1 -1.90 0.20 -1.60 0.50 0.15 1.10 0.70 1.25 1.20 0.20 0.50 0.50 0.95 0.75 0.95 1.15 0 0.90 -1.15 -0.75 -3.40 -0.95 -1.35 -1.75 -2.80 -1.75 -3.25 0 -1.25 0.95 -1.55 1.95 -0.65 0.85 0.80 1.05 0.80 2.70 -0.05 1.25 -0.65 1.75 -1.15 1.55 -1.75 -0.15 -0.45 0 -1 0.35 -1.15 0.40 -0.30 0.35 -0.50 -0.10 -0.85 -0.55 -0.30 -0.25 -0.80 1.20 -2.05 2.10 -1.80 2.20 -2.25 1 -4.70 -0.80 -1.70 -0.90 -1.75 -3.25 -1.55 -1.30 0.15 -2.40 0.05 -2.40 -0.15 0 -0.60 1.65 -0.90 5.20 -1.05 3.25 -0.15 3.90 -0.80 2.45 -2.30 -0.55 -0.50 -0.90 -1.15 -0.80 -1.40 0.20 -0.65 -2 -1.70 -3.60 -1.70 -1 0 -1.25 -0.25 -1.25 -1.20 0 -0.75 -0.35 -1.30 -1 -1.45 -1.30 -0.35 -1.25 -0.75 0.15 -2.50 l1.10 -1.45 1.40 1.10 c0.75 0.60 1.55 0.95 1.80 0.80 0.25 -0.15 0.70 0.05 1.05 0.50 0.45 0.50 1.10 0.65 2.10 0.45 1.80 -0.40 4.05 1.70 4.85 4.55 0.65 2.30 0.65 9.90 0 11.70 -0.40 1.10 -0.40 1.05 -0.20 -0.35 0.30 -2.30 -0.40 -2.05 -1.55 0.45 -0.55 1.30 -2.90 4 -5.80 6.85 -2.90 2.80 -4.70 4.95 -4.55 5.35 0.35 1 1.05 0.85 1.40 -0.30 0.20 -0.55 0.55 -0.85 0.85 -0.70 0.25 0.15 1.40 -0.55 2.50 -1.60 1.90 -1.80 1.95 -1.85 1.15 -0.45 -1.95 3.20 -7.50 7.75 -9.45 7.75 l-1.35 0 0.85 -1.45z m12.20 -14.55 c0 -0.25 -0.20 -0.50 -0.50 -0.50 -0.25 0 -0.50 0.25 -0.50 0.50 0 0.30 0.25 0.50 0.50 0.50 0.30 0 0.50 -0.20 0.50 -0.50z m0.50 -3.25 c0 -0.15 -0.10 -0.25 -0.25 -0.25 -0.15 0 -0.25 0.10 -0.25 0.25 0 0.15 0.10 0.25 0.25 0.25 0.15 0 0.25 -0.10 0.25 -0.25z m2 -1.70 c0 -0.25 -0.45 -0.55 -1.05 -0.70 -0.55 -0.15 -1.15 -0.75 -1.30 -1.30 -0.35 -1.30 -0.30 -1.30 -1.95 0.20 -1.35 1.25 -1.25 1.45 0.45 1.30 0.45 -0.05 0.85 0.15 0.85 0.40 0 0.30 0.70 0.55 1.50 0.55 0.85 0 1.50 -0.20 1.50 -0.45z m1.50 -4.40 c-0.05 -1.20 -1.75 -3.45 -2.15 -2.75 -0.20 0.25 0 0.75 0.40 1.10 0.40 0.35 0.75 1.05 0.75 1.55 0 0.55 0.25 0.95 0.50 0.95 0.30 0 0.50 -0.40 0.50 -0.85z m-4.50 -3.65 c0 -0.25 -0.20 -0.50 -0.50 -0.50 -0.25 0 -0.50 0.25 -0.50 0.50 0 0.30 0.25 0.50 0.50 0.50 0.30 0 0.50 -0.20 0.50 -0.50z m1.50 -1.20 c0 -0.15 -0.20 -0.40 -0.50 -0.55 -0.25 -0.15 -0.50 -0.05 -0.50 0.20 0 0.30 0.25 0.55 0.50 0.55 0.30 0 0.50 -0.10 0.50 -0.20z m-4.50 -1.75 c0 -0.30 -0.20 -0.65 -0.50 -0.80 -0.25 -0.15 -0.50 0.05 -0.50 0.45 0 0.45 0.25 0.80 0.50 0.80 0.30 0 0.50 -0.20 0.50 -0.45z"/>
  <path d="M15.85 27.95 c-0.75 -0.55 -1.35 -1.30 -1.30 -1.60 0 -0.40 0.10 -0.40 0.30 0.05 0.10 0.30 0.50 0.60 0.90 0.60 0.70 0 2 1.40 1.65 1.75 -0.15 0.15 -0.85 -0.20 -1.55 -0.80z"/>
  <path d="M30.80 26.30 c0.55 -0.70 1.25 -1.35 1.60 -1.50 1.05 -0.45 -0.25 1.60 -1.45 2.25 -1.05 0.55 -1.05 0.55 -0.15 -0.75z"/>
  <path d="M16.30 24.75 c0.20 -0.80 0.35 -1.75 0.35 -2.15 0 -0.85 1.05 -0.45 1.20 0.45 0.10 0.40 -0.30 1.25 -0.85 1.95 l-1.05 1.25 0.35 -1.50z"/>
  <path d="M33 23.75 c0 -0.15 0.10 -0.25 0.25 -0.25 0.15 0 0.25 0.10 0.25 0.25 0 0.15 -0.10 0.25 -0.25 0.25 -0.15 0 -0.25 -0.10 -0.25 -0.25z"/>
  <path d="M26.50 18.25 c0 -0.15 0.10 -0.25 0.25 -0.25 0.15 0 0.25 0.10 0.25 0.25 0 0.15 -0.10 0.25 -0.25 0.25 -0.15 0 -0.25 -0.10 -0.25 -0.25z"/>
  <path d="M15.15 17.25 c-0.45 -0.45 -0.45 -0.80 -0.10 -1 0.60 -0.40 2.05 0.70 1.65 1.30 -0.35 0.60 -0.85 0.55 -1.55 -0.30z"/>
  <path d="M15.50 14.20 c0 -0.85 3.65 -5.20 4.40 -5.20 1.10 0 0.65 0.75 -1.90 3.25 -1.35 1.35 -2.50 2.20 -2.50 1.95z"/>
  <path d="M15.50 8.25 c0 -0.45 0.25 -0.75 0.55 -0.65 0.30 0.10 0.55 0.40 0.55 0.65 0 0.25 -0.25 0.55 -0.55 0.65 -0.30 0.10 -0.55 -0.20 -0.55 -0.65z"/>
  <path d="M22.50 8.75 c0 -0.15 0.10 -0.25 0.25 -0.25 0.15 0 0.25 0.10 0.25 0.25 0 0.15 -0.10 0.25 -0.25 0.25 -0.15 0 -0.25 -0.10 -0.25 -0.25z"/>
  <path d="M16.20 3.05 c0.15 -0.20 0.95 -0.70 1.80 -1.05 1.20 -0.50 1.65 -0.50 2.25 0 0.50 0.45 0.75 0.45 0.75 0.05 0 -0.30 0.25 -0.55 0.60 -0.55 0.30 0 0.15 0.45 -0.35 1 -0.65 0.70 -1.55 1 -3.10 1 -1.20 0 -2.10 -0.20 -1.95 -0.45z"/>
 </g>
 <g fill="#fce1c9">
  <path d="M28 39.20 c0 -0.45 0.25 -0.70 0.60 -0.60 0.90 0.30 1.05 1.40 0.20 1.40 -0.45 0 -0.80 -0.35 -0.80 -0.80z"/>
  <path d="M26.35 36.65 c-0.55 -0.50 -0.40 -2.55 0.15 -2.90 0.30 -0.20 0.50 0.40 0.50 1.45 0 1.85 -0.10 2.05 -0.65 1.45z"/>
  <path d="M21 34.30 c0 -0.40 0.25 -0.90 0.50 -1.05 0.30 -0.15 0.50 0.15 0.50 0.70 0 0.60 -0.20 1.05 -0.50 1.05 -0.25 0 -0.50 -0.30 -0.50 -0.70z"/>
  <path d="M23.50 33.50 c0 -1.05 0.80 -2.20 1.15 -1.65 0.20 0.30 0 0.95 -0.40 1.45 -0.55 0.75 -0.70 0.80 -0.75 0.20z"/>
  <path d="M31 22.75 c0 -0.10 0.45 -0.95 1.05 -1.85 0.60 -0.90 0.90 -1.20 0.70 -0.65 -0.20 0.55 -0.50 1.40 -0.60 1.90 -0.25 0.75 -1.15 1.25 -1.15 0.60z"/>
  <path d="M28.35 19.65 c-0.20 -0.15 -0.35 -0.80 -0.35 -1.40 0 -1.30 1.40 -2.70 1.90 -1.90 0.20 0.25 0.70 0.65 1.10 0.80 0.60 0.20 0.55 0.30 -0.10 0.30 -0.95 0.05 -1.30 1.55 -0.40 1.55 0.30 0 0.50 0.25 0.50 0.50 0 0.55 -2.15 0.70 -2.65 0.15z"/>
  <path d="M34.05 14.40 c0.05 -2 0 -4.05 -0.10 -4.50 -0.35 -1.25 -2.85 -3.90 -3.65 -3.90 -0.75 0 -1.60 2.65 -1.10 3.40 0.10 0.20 0.05 0.70 -0.20 1.10 -0.35 0.55 -0.55 0.40 -0.95 -0.65 -0.30 -0.75 -0.75 -1.35 -1 -1.35 -0.30 0 -0.75 -0.45 -1.05 -1.05 -0.50 -0.85 -0.40 -1.05 0.45 -1.30 1.25 -0.30 1.30 -0.55 0.20 -1.75 -0.70 -0.80 -0.70 -0.90 -0.05 -0.90 0.45 0 1.05 0.35 1.40 0.75 0.45 0.55 1.10 0.70 1.95 0.50 1.70 -0.35 3.75 1.65 4.50 4.50 0.70 2.55 0.70 8.75 0.05 8.75 -0.35 0 -0.50 -1.40 -0.45 -3.60z"/>
 </g>
</svg>