<?xml version="1.0" encoding="utf-8"?>
<!DOCTYPE svg PUBLIC "-//W3C//DTD SVG 1.0//EN" "http://www.w3.org/TR/2001/REC-SVG-20010904/DTD/svg10.dtd">
<svg version="1.0" xmlns="http://www.w3.org/2000/svg" width="40px" height="40px" viewBox="0 0 40 40" preserveAspectRatio="xMidYMid meet">
 <g fill="#211411">
  <path d="M15.15 36.15 c-0.20 -0.45 -0.75 -1.25 -1.25 -1.75 -0.50 -0.50 -0.90 -1.60 -0.90 -2.65 0 -1.10 -0.25 -1.75 -0.65 -1.75 -0.40 0 -0.90 -0.80 -1.20 -1.75 -0.55 -1.65 -0.50 -1.75 0.65 -1.75 1 0 1.20 0.25 1.20 1.50 0 1.45 0.10 1.50 2.20 1.50 1.95 0 2.40 0.20 3.50 1.65 0.90 1.20 1.30 2.30 1.30 3.75 0 2.10 0 2.10 -2.25 2.10 -1.65 0 -2.35 -0.20 -2.60 -0.85z"/>
  <path d="M14 22.75 c0 -1.65 0.10 -1.75 1.75 -1.75 1.65 0 1.75 0.10 1.75 1.75 0 1.65 -0.10 1.75 -1.75 1.75 -1.65 0 -1.75 -0.10 -1.75 -1.75z"/>
  <path d="M18.50 21 c0 -1.80 -0.10 -2 -1.25 -2 -1 0 -1.25 -0.25 -1.25 -1.25 0 -0.70 -0.20 -1.25 -0.50 -1.25 -0.25 0 -0.50 -0.80 -0.50 -1.75 0 -1.40 0.20 -1.75 1 -1.75 0.75 0 1 -0.35 1 -1.25 0 -1.20 0.05 -1.20 4.15 -1.10 4.10 0.10 4.10 0.10 4.25 2 0.15 1.60 0.35 1.85 1.40 1.85 1.10 0 1.20 0.20 1.20 2.25 0 2.35 -0.80 3.25 -2.95 3.25 -0.60 0 -1.05 0.20 -1.05 0.45 0 0.25 -0.45 0.65 -1 0.80 -0.55 0.15 -1 0.65 -1 1.05 0 0.45 -0.55 0.70 -1.75 0.70 -1.70 0 -1.75 -0.05 -1.75 -2z m3.05 -3.50 c0.25 0 0.45 -0.45 0.45 -1 0 -1.35 -0.55 -1.25 -1.70 0.35 -0.90 1.20 -0.90 1.30 -0.10 1 0.50 -0.20 1.10 -0.35 1.35 -0.35z"/>
  <path d="M9.50 18.25 c0 -1.65 0.10 -1.75 1.75 -1.75 1.65 0 1.75 0.10 1.75 1.75 0 1.65 -0.10 1.75 -1.75 1.75 -1.65 0 -1.75 -0.10 -1.75 -1.75z"/>
  <path d="M8.50 15.30 c0 -0.35 -0.15 -1.40 -0.30 -2.25 -0.30 -1.55 -0.30 -1.55 1.95 -1.55 2.45 0 2.85 0.45 2.85 3.05 0 1.40 -0.10 1.45 -2.25 1.45 -1.60 0 -2.25 -0.20 -2.25 -0.70z"/>
  <path d="M24 2.30 c0 -0.90 1.10 -1.30 2.45 -0.95 1.75 0.45 1.25 1.65 -0.70 1.65 -1.15 0 -1.75 -0.25 -1.75 -0.70z"/>
 </g>
 <g fill="#373025">
  <path d="M27.50 39 c0 -0.55 -0.20 -1 -0.50 -1 -0.25 0 -0.50 -0.30 -0.50 -0.70 0 -0.45 -0.40 -0.60 -1.25 -0.40 -0.90 0.15 -1.25 0.55 -1.25 1.40 0 1.60 -1.30 1.55 -1.70 -0.05 -0.30 -1.20 -0.35 -1.25 -1.55 -0.45 -0.90 0.60 -1.80 0.75 -3.35 0.50 -2.15 -0.35 -2.15 -0.35 -4.05 -4.60 -1 -2.30 -1.85 -4.45 -1.85 -4.70 0 -0.30 -0.65 -1.70 -1.50 -3.15 -1.40 -2.50 -1.45 -2.90 -1.55 -9.35 -0.15 -6.90 0.10 -8.10 2.15 -10.50 1.60 -1.85 7.40 -5 9.20 -5 0.40 0 0.70 0.45 0.70 1 0 0.70 -0.35 1 -1.05 1 -0.55 0 -1.35 0.35 -1.80 0.75 -0.40 0.45 -1.40 0.95 -2.20 1.10 -0.80 0.15 -1.45 0.55 -1.45 0.95 0 0.35 -0.45 0.80 -1 0.95 -0.55 0.15 -1 0.65 -1 1 0 0.40 -0.30 0.90 -0.65 1.10 -0.40 0.20 -0.80 0.90 -0.95 1.55 -0.25 0.90 -0.05 1.15 1 1.45 1.70 0.40 2.10 0.95 2.10 3.05 0 1.25 0.20 1.60 1 1.60 0.80 0 1 0.35 1 1.75 0 1.20 -0.25 1.75 -0.75 1.75 -0.40 0 -0.75 0.35 -0.75 0.75 0 0.50 -0.55 0.75 -1.75 0.75 -0.95 0 -1.75 0.10 -1.75 0.25 0 0.10 0.55 1.20 1.20 2.35 0.65 1.20 1.30 2.75 1.50 3.55 0.25 1.10 0.60 1.35 1.85 1.35 1.90 0 3.45 0.80 3.45 1.75 0 0.40 0.25 0.75 0.50 0.75 0.30 0 0.50 0.80 0.50 1.75 0 0.95 -0.20 1.75 -0.50 1.75 -0.25 0 -0.50 -0.20 -0.50 -0.40 0 -0.20 -0.70 -1.15 -1.55 -2.10 -1.50 -1.75 -1.50 -1.75 -0.35 -0.10 0.95 1.40 1 1.70 0.40 2.10 -0.60 0.35 -0.60 0.50 0.20 0.80 0.70 0.25 0.75 0.45 0.20 0.75 -0.40 0.30 0 0.45 1.25 0.45 1.30 0 1.85 -0.20 1.85 -0.75 0 -0.40 0.40 -0.75 0.90 -0.75 0.45 0 1.10 -0.50 1.35 -1.10 0.35 -0.85 1 -1.20 2.40 -1.30 1.75 -0.15 1.85 -0.25 1.85 -1.90 0 -0.95 -0.25 -1.70 -0.55 -1.70 -0.30 0 -0.45 -0.80 -0.35 -1.85 0.15 -1.80 0.25 -1.90 2.05 -2.05 1.05 -0.10 1.85 0.05 1.85 0.35 0 0.30 0.35 0.55 0.80 0.55 0.65 0 0.75 -0.40 0.45 -2.45 -0.40 -3.05 0 -4.55 1.30 -4.55 0.90 0 0.95 -0.40 0.95 -5.25 0 -4.15 0.15 -5.25 0.70 -5.25 0.95 0 1.30 1.60 1.30 6.65 0 5.95 -1.20 9.30 -4.45 12.45 -1.85 1.80 -2.40 2.60 -2.20 3.40 0.20 0.80 0 1.15 -0.80 1.35 -1.20 0.30 -1.45 2.15 -0.30 2.15 0.50 0 0.75 0.50 0.75 1.40 0 0.75 0.35 1.80 0.75 2.30 1.05 1.40 0.95 1.80 -0.50 1.80 -0.90 0 -1.25 -0.25 -1.25 -1z m-16.35 -25.25 c-0.30 -0.90 -1.70 -0.80 -2.05 0.15 -0.10 0.35 0.30 0.60 1.10 0.60 0.95 0 1.20 -0.20 0.95 -0.75z"/>
  <path d="M14 23.75 c0 -2.25 0 -2.25 1.75 -2.25 1.75 0 1.75 0 1.75 2.25 0 2.25 0 2.25 -1.75 2.25 -1.75 0 -1.75 0 -1.75 -2.25z"/>
  <path d="M18 21.25 c0 -1.40 -0.20 -1.75 -1 -1.75 -0.80 0 -1 -0.35 -1 -1.75 0 -0.95 -0.20 -1.75 -0.50 -1.75 -0.25 0 -0.50 -0.80 -0.50 -1.75 0 -1.20 0.25 -1.75 0.75 -1.75 0.40 0 0.75 -0.25 0.75 -0.55 0 -1.10 2.15 -2.45 3.85 -2.45 1.55 0 1.65 0.10 1.65 1.75 0 1.55 -0.15 1.75 -1.25 1.75 -1.30 0 -3.30 2.45 -3.20 4 0 0.50 0.15 0.40 0.45 -0.25 0.20 -0.55 0.90 -1.55 1.50 -2.20 1 -1 1.50 -1.15 4.25 -0.95 2 0.10 3.40 0.50 3.95 1 1.05 1.05 1.10 3.90 0.05 3.90 -0.40 0 -0.75 0.30 -0.75 0.65 0 0.30 -1.25 1.15 -2.75 1.80 -1.50 0.65 -2.75 1.35 -2.75 1.60 0 0.25 -0.80 0.45 -1.75 0.45 -1.65 0 -1.75 -0.10 -1.75 -1.75z m3.20 -1.35 c0.35 -0.25 0.20 -0.40 -0.30 -0.40 -0.60 0 -0.90 0.35 -0.85 1.15 0 0.75 0.10 0.85 0.30 0.35 0.15 -0.40 0.55 -0.90 0.85 -1.10z m5.30 -3.15 c0 -1.15 -0.70 -0.90 -1.30 0.50 -0.55 1.15 -0.50 1.20 0.35 0.70 0.50 -0.25 0.95 -0.80 0.95 -1.20z"/>
  <path d="M29 16.25 c0 -1.65 0.10 -1.75 1.75 -1.75 1.65 0 1.75 0.10 1.75 1.75 0 1.65 -0.10 1.75 -1.75 1.75 -1.65 0 -1.75 -0.10 -1.75 -1.75z"/>
  <path d="M28.15 4.40 c-0.65 -0.30 -1.15 -0.75 -1.15 -1 0 -0.20 -1.10 -0.40 -2.50 -0.40 -2.20 0 -2.50 -0.15 -2.50 -1 0 -0.95 0.20 -1 2.85 -0.70 2.95 0.30 6 1.55 7.10 2.90 0.60 0.70 0.45 0.80 -1 0.75 -0.95 0 -2.20 -0.25 -2.80 -0.55z"/>
 </g>
 <g fill="#4f162f">
  <path d="M15.10 17.40 c-1.85 -1.85 1.45 -7.40 4.45 -7.40 0.75 0 1.45 -0.35 1.65 -0.75 0.40 -1.10 5.60 -0.95 7.55 0.20 1.25 0.75 1.50 1.20 1.50 2.85 0 1.95 0 1.95 -4.65 2.10 -4.65 0.15 -4.65 0.15 -5.70 1.85 -1.10 1.95 -1.90 2.25 -1.90 0.80 0 -0.50 0.80 -1.65 1.75 -2.50 1.50 -1.30 1.65 -1.55 0.75 -1.55 -1.10 0 -3 2.60 -3 4.15 0 1 -1.50 1.15 -2.40 0.25z"/>
 </g>
 <g fill="#4c4432">
  <path d="M17.40 38.15 c-1.70 -0.45 -0.95 -1.55 1.35 -1.85 2.25 -0.35 3.15 -1.30 1.25 -1.30 -0.55 0 -1 -0.35 -1 -0.80 0 -0.40 -0.20 -0.65 -0.40 -0.50 -0.25 0.15 -0.75 -0.30 -1.15 -1 -0.75 -1.40 -2.20 -2.40 -2.95 -1.95 -0.25 0.15 -0.05 1 0.50 1.90 1.15 1.85 1.30 3.35 0.35 3.35 -0.60 0 -3.85 -6.35 -3.85 -7.50 0 -0.30 -0.65 -1.75 -1.50 -3.25 -1.70 -3.10 -1.95 -5.70 -0.60 -6.90 0.90 -0.80 1.60 -0.70 1.60 0.30 0 0.25 -0.35 0.35 -0.70 0.20 -0.50 -0.20 -0.65 -0.05 -0.45 0.45 0.25 0.65 2.65 1.05 2.65 0.40 0 -0.85 -1.20 -2.30 -2.50 -2.95 -2 -1.05 -1.90 -1.75 0.25 -1.75 1.65 0 1.75 -0.10 1.20 -1.05 -0.40 -0.75 -0.90 -1 -1.75 -0.80 -1.60 0.30 -1.70 0 -1.15 -2.75 0.40 -1.70 1.10 -2.95 2.60 -4.50 2.10 -2.15 2.10 -2.15 2.25 -0.75 0.15 1.35 -0.80 2.85 -1.85 2.85 -0.30 0 -0.55 0.30 -0.55 0.70 0 0.40 -0.15 1.05 -0.30 1.50 -0.20 0.55 0 0.80 0.75 0.80 0.70 0 1.35 0.65 2 1.90 0.55 1 1 1.55 1.05 1.25 0 -1 1.65 -2.65 2.60 -2.65 0.55 0 0.90 -0.35 0.90 -0.95 0 -1.10 0.95 -1.55 3.05 -1.55 1.35 0 1.50 0.15 1.35 1.35 -0.10 1 -0.50 1.45 -1.55 1.70 -1.25 0.35 -1.35 0.30 -0.75 -0.45 0.60 -0.80 0.55 -0.80 -0.55 -0.05 -1.30 0.80 -2.25 2.45 -1.05 1.70 0.40 -0.25 0.25 0.15 -0.30 0.85 -0.50 0.70 -1.05 1.20 -1.15 1.10 -0.10 -0.10 0.10 -0.50 0.45 -0.95 0.55 -0.65 0.50 -0.70 -0.15 -0.45 -1 0.35 -1.45 1.55 -0.80 2 0.30 0.15 0.70 0.80 0.95 1.40 0.45 1.05 0.45 1.05 0.45 0 0.05 -0.60 0.85 -1.80 1.85 -2.70 1.50 -1.30 2.15 -1.55 3.35 -1.30 0.80 0.15 2 0.30 2.65 0.30 1 0 1.20 0.25 1.20 1.45 0 1.45 0 1.45 -1.45 0.75 -1 -0.50 -1.95 -0.60 -2.90 -0.35 -1.35 0.35 -1.35 0.40 0.55 0.65 1.10 0.15 2.05 0.50 2.15 0.85 0.25 0.70 -2.35 2.15 -3.85 2.15 -0.95 0 -2.25 1.90 -1.60 2.50 0.10 0.15 0.35 -0.05 0.45 -0.40 0.15 -0.35 1.55 -1.30 3.10 -2.05 2.85 -1.35 2.85 -1.35 2.65 0 -0.20 1.25 -0.45 1.40 -2.30 1.55 -1.95 0.15 -2.05 0.25 -2.50 2.25 -0.50 2.10 -0.50 2.10 -4.15 2.10 -3.65 0 -3.65 0 -3.65 -1.50 0 -1.20 -0.20 -1.45 -1.20 -1.45 -1.15 0 -1.20 0.10 -0.65 1.65 0.35 0.85 0.85 1.85 1.20 2.10 0.30 0.30 0.65 1.05 0.75 1.75 0.15 1.20 0.35 1.25 3.75 1.40 3.05 0.10 3.65 0.30 3.90 1.10 0.20 0.55 0.55 1 0.80 1 0.25 0 0.45 0.70 0.45 1.50 0 1 0.25 1.50 0.75 1.50 0.40 0 0.75 -0.45 0.75 -1 0 -0.55 -0.25 -1 -0.55 -1 -0.30 0 -0.45 -0.80 -0.35 -1.85 0.10 -1.55 0.35 -1.95 1.30 -2.05 0.70 -0.10 1.10 -0.50 1.10 -1.15 0 -0.50 0.35 -0.95 0.75 -0.95 0.40 0 0.75 -0.25 0.75 -0.50 0 -0.30 0.80 -1.20 1.75 -2.05 0.95 -0.85 1.90 -2.10 2.05 -2.75 0.15 -0.65 0.50 -1.20 0.75 -1.20 0.25 0 0.45 -0.35 0.45 -0.75 0 -0.50 -0.55 -0.75 -1.75 -0.75 -1.70 0 -1.75 -0.05 -1.75 -2 0 -1.90 0.10 -2 1.45 -2 2.45 0 3.05 0.45 3.05 2.30 0 1.35 0.20 1.70 1 1.70 1.40 0 1.30 2.55 -0.20 5.80 -1.15 2.45 -3.80 5.05 -4.50 4.35 -0.15 -0.15 -0.30 0.05 -0.30 0.50 0 0.55 -0.40 0.85 -1.10 0.90 -0.80 0 -0.90 0.10 -0.40 0.30 1.10 0.45 1.50 1.25 1.15 2.40 -0.40 1.30 -0.35 4.30 0.10 5.40 0.30 0.70 0.10 0.85 -0.95 0.85 -1.10 0 -1.30 -0.20 -1.30 -1.50 0 -0.80 -0.20 -1.50 -0.50 -1.50 -0.25 0 -0.50 0.40 -0.50 0.90 0 1.15 -0.95 2.10 -2.10 2.10 -0.60 0 -0.90 -0.35 -0.90 -1.10 0 -0.95 -0.05 -1 -0.85 -0.25 -1.05 0.90 -3 1.35 -4.25 1z m-0.15 -17.65 c0.80 -0.35 0.65 -0.45 -0.85 -0.45 -1.05 -0.05 -1.90 0.20 -1.90 0.45 0 0.60 1.35 0.60 2.75 0z"/>
  <path d="M15.75 33 c-0.90 -1.75 -0.20 -2.05 0.95 -0.40 0.90 1.30 1 1.90 0.30 1.90 -0.25 0 -0.80 -0.65 -1.25 -1.50z"/>
  <path d="M33.50 13.25 c0 -2.05 0.20 -2.75 0.70 -2.75 0.90 0 1.45 2.40 1 4.20 -0.15 0.70 -0.60 1.30 -1 1.30 -0.50 0 -0.70 -0.75 -0.70 -2.75z"/>
  <path d="M32 6.75 c0 -1 -0.25 -1.25 -1.25 -1.25 -0.75 0 -1.25 -0.30 -1.25 -0.70 0 -0.50 -0.95 -0.80 -3.25 -1.05 -2.90 -0.35 -3.25 -0.50 -3.25 -1.45 0 -1 0.20 -1.05 2.40 -0.80 2.90 0.30 6.05 1.95 7.80 4 1.65 1.95 1.65 2.50 0.05 2.50 -1 0 -1.25 -0.25 -1.25 -1.25z"/>
 </g>
 <g fill="#682c41">
  <path d="M14.20 33.80 c-0.15 -0.40 -0.20 -1.10 -0.10 -1.55 0.10 -0.60 0.40 -0.40 1.05 0.70 0.80 1.35 0.80 1.55 0.10 1.55 -0.40 0 -0.90 -0.30 -1.05 -0.70z"/>
  <path d="M16 33.55 c-0.85 -1.65 -0.55 -2.35 0.50 -1.05 0.55 0.70 1 1.40 1 1.65 0 0.70 -1 0.35 -1.50 -0.60z"/>
  <path d="M16.80 31.75 c-0.80 -1.20 -0.80 -1.25 0.20 -1.25 0.75 0 1 0.35 1 1.25 0 0.70 -0.10 1.25 -0.20 1.25 -0.10 0 -0.55 -0.55 -1 -1.25z"/>
  <path d="M15.10 17.90 c-1.45 -1.45 -0.70 -3.45 2.35 -6.45 1.65 -1.65 3.30 -2.95 3.75 -2.95 0.45 0 0.80 -0.35 0.80 -0.75 0 -0.55 0.60 -0.75 2.55 -0.75 2.75 0 4.45 0.65 4.45 1.70 0 0.40 0.35 0.80 0.75 1 0.50 0.20 0.75 1 0.75 2.55 0 2.25 0 2.25 -1.75 2.25 -0.95 0 -1.75 -0.20 -1.75 -0.50 0 -0.25 -0.75 -0.55 -1.60 -0.60 -1.25 -0.05 -1.10 -0.15 0.75 -0.35 2.75 -0.35 3.05 -0.95 1.05 -2.15 -2 -1.15 -4.05 -1.15 -4.65 0.05 -0.30 0.50 -1.10 1.05 -1.80 1.15 -1.25 0.25 -1.25 0.25 -0.40 -0.75 0.85 -0.95 0.85 -1 -0.10 -0.45 -0.55 0.30 -1.75 1.30 -2.70 2.30 -1.65 1.70 -1.70 1.85 -0.90 2.70 0.45 0.50 0.85 1.30 0.85 1.75 0 1 -1.50 1.15 -2.40 0.25z"/>
  <path d="M18 17.70 c0 -0.90 2.40 -4.20 3.10 -4.20 0.25 0 -0.15 0.60 -0.85 1.35 -0.70 0.75 -1.25 1.90 -1.25 2.50 0 0.65 -0.20 1.15 -0.50 1.15 -0.25 0 -0.50 -0.35 -0.50 -0.80z"/>
 </g>
 <g fill="#625943">
  <path d="M22.50 38.65 c0 -0.90 0.70 -2.10 2.15 -3.65 2.10 -2.25 2.10 -2.25 0.10 -0.45 -2.20 2 -4.25 3.45 -4.85 3.45 -0.80 0 -0.40 -2.45 0.50 -2.95 0.75 -0.45 0.65 -0.50 -0.45 -0.55 -0.95 0 -1.65 -0.55 -2.65 -2 -1.25 -1.90 -1.25 -2 -0.30 -2 0.55 0 1 -0.20 1 -0.50 0 -0.25 0.80 -0.50 1.75 -0.50 0.95 0 1.75 0.25 1.75 0.50 0 0.30 0.55 0.50 1.25 0.50 1 0 1.25 -0.25 1.25 -1.30 0 -1.40 1.05 -2.70 2.15 -2.70 0.40 0 0.90 -0.55 1.05 -1.25 0.25 -0.90 0.65 -1.25 1.55 -1.25 1 0 1.25 -0.25 1.25 -1.25 0 -0.80 0.30 -1.25 0.75 -1.25 0.50 0 0.75 -0.50 0.75 -1.50 0 -1.40 0.15 -1.50 1.75 -1.50 1.60 0 1.75 0.10 1.75 1.50 0 0.90 -0.30 1.65 -0.75 1.80 -0.40 0.20 -0.75 0.90 -0.75 1.70 0 1.05 -0.65 2.10 -2.40 3.85 -2.20 2.20 -2.45 2.65 -2.55 4.90 -0.05 1.40 -0.20 2.90 -0.35 3.40 -0.15 0.45 0.20 1.50 0.80 2.35 1.05 1.50 1.05 1.50 -0.45 1.50 -1.20 0 -1.55 -0.20 -1.55 -0.95 0 -1.65 -0.55 -2.55 -1.55 -2.55 -0.75 0 -0.95 0.35 -0.95 2 0 1.65 -0.15 2 -1 2 -0.75 0 -1 -0.35 -1 -1.35z m9.10 -14.45 c1 -1.15 2.15 -3.90 1.40 -3.45 -0.30 0.15 -0.50 0.70 -0.50 1.15 0 0.45 -1.30 2.05 -2.85 3.55 -1.95 1.85 -2.25 2.25 -0.90 1.20 1.10 -0.85 2.40 -1.95 2.85 -2.45z"/>
  <path d="M15 36.70 c-0.30 -0.70 -0.50 -1.55 -0.50 -1.90 0 -0.40 -0.30 -0.95 -0.70 -1.25 -0.40 -0.30 -0.80 -1.15 -0.95 -1.80 -0.15 -1 0 -1.25 0.75 -1.25 0.55 0 0.85 0.20 0.70 0.45 -0.40 0.65 2.55 4.55 3.45 4.55 0.40 0 0.75 0.35 0.75 0.75 0 0.40 -0.35 0.75 -0.75 0.75 -0.40 0 -0.75 0.25 -0.75 0.50 0 1.05 -1.55 0.45 -2 -0.80z"/>
  <path d="M11.40 27.15 c-1.45 -1.70 -1.50 -2.65 -0.15 -2.65 1.10 0 1.25 0.20 1.25 1.75 0 2 -0.05 2.05 -1.10 0.90z"/>
  <path d="M13.50 23.70 c0 -1.55 -0.15 -1.70 -1.50 -1.70 -1.15 0 -1.50 0.20 -1.50 1 0 1.25 -0.80 1.30 -1.50 0.05 -0.55 -1.10 -0.65 -3.20 -0.20 -3.70 0.20 -0.15 0.80 0.05 1.45 0.45 0.60 0.40 1.45 0.60 1.85 0.45 0.70 -0.30 0.70 -0.50 0.05 -1.80 -0.40 -0.80 -1.25 -1.60 -1.95 -1.75 -0.65 -0.15 -1.20 -0.65 -1.20 -1.05 0 -0.55 0.45 -0.70 1.70 -0.55 1.70 0.20 1.70 0.20 1 -1.20 -0.60 -1.15 -0.90 -1.30 -1.90 -0.90 -0.65 0.25 -1.30 0.30 -1.45 0.20 -0.40 -0.45 1 -5.05 1.95 -6.30 1.05 -1.40 3.30 -3.30 4.40 -3.70 0.60 -0.25 0.80 0 0.80 1 0 1.05 -0.25 1.30 -1.25 1.30 -0.90 0 -1.25 0.25 -1.25 1 0 0.55 -0.30 1 -0.65 1 -0.30 0 -0.85 0.80 -1.15 1.75 -0.50 1.65 -0.50 1.75 0.60 1.75 1 0 1.20 0.25 1.20 1.50 0 1 0.25 1.50 0.75 1.50 0.50 0 0.75 0.50 0.75 1.50 0 0.85 0.25 1.50 0.50 1.50 0.30 0 0.50 -0.35 0.50 -0.80 0 -0.70 0.10 -0.70 0.80 -0.15 0.45 0.35 1 1.10 1.20 1.70 0.45 1 0.45 1 0.50 0 0.05 -1.15 1.65 -3.25 2.45 -3.25 0.30 0 0.55 -0.20 0.55 -0.50 0 -0.25 0.80 -0.50 1.75 -0.50 0.95 0 1.75 0.25 1.75 0.50 0 0.30 0.90 0.50 2 0.50 1.85 0 2 0.10 2 1.40 0 2.70 -0.50 3.60 -2.05 3.60 -0.90 0 -1.45 0.25 -1.45 0.70 0 0.75 -1.05 1.30 -2.55 1.30 -0.75 0 -0.95 0.35 -0.95 1.95 0 1.95 0 1.95 -4 1.95 -4 0 -4 0 -4 -1.70z m2.40 -1.15 c-0.75 -0.25 -0.95 0.20 -0.55 1.20 0.30 0.90 0.35 0.90 0.65 -0.05 0.20 -0.50 0.15 -1.05 -0.10 -1.15z m4.60 -1.60 c0 -0.25 1.20 -1.05 2.65 -1.65 3.50 -1.55 4.15 -2.35 2.90 -3.50 -1.50 -1.35 -4.85 -0.65 -5.80 1.15 -0.75 1.50 -0.85 4.55 -0.15 4.55 0.20 0 0.40 -0.25 0.40 -0.55z m-6 -2.85 c0 -0.25 -0.45 -0.85 -1 -1.35 -0.95 -0.85 -0.95 -0.85 -0.35 0.45 0.60 1.25 1.35 1.75 1.35 0.90z"/>
  <path d="M20 18.50 c0 -0.30 0.30 -0.65 0.70 -0.80 0.40 -0.15 0.65 -0.55 0.50 -0.90 -0.20 -0.50 0.30 -0.65 1.65 -0.55 2.55 0.15 2.65 0.15 2.65 0.80 0 0.60 -3.05 1.95 -4.50 1.95 -0.55 0 -1 -0.25 -1 -0.50z"/>
  <path d="M29 15.75 c0 -1.65 0.10 -1.75 1.75 -1.75 1.65 0 1.75 0.10 1.75 1.75 0 1.65 -0.10 1.75 -1.75 1.75 -1.65 0 -1.75 -0.10 -1.75 -1.75z"/>
  <path d="M19.50 9.80 c0 -1.20 0.20 -1.30 2 -1.30 2.25 0 2.80 1.20 0.80 1.70 -0.65 0.15 -1.55 0.45 -2 0.60 -0.60 0.25 -0.80 0 -0.80 -1z"/>
  <path d="M33 8.25 c0 -1.95 0.70 -2.30 1.50 -0.80 0.80 1.55 0.60 2.55 -0.50 2.55 -0.80 0 -1 -0.35 -1 -1.75z"/>
  <path d="M30 5.25 c0 -0.60 -0.65 -0.75 -3 -0.75 -2.25 0 -3.10 -0.20 -3.30 -0.75 -0.20 -0.40 -0.85 -0.75 -1.50 -0.75 -0.90 0 -1.20 -0.30 -1.20 -1.05 0 -0.95 0.20 -1 1.65 -0.75 0.85 0.20 2.15 0.30 2.85 0.30 1.50 -0.05 6.05 2.20 7.30 3.55 0.85 0.90 0.80 0.95 -0.95 0.95 -1.30 0 -1.85 -0.20 -1.85 -0.75z"/>
  <path d="M16.10 2.90 c0.15 -0.35 0.95 -0.90 1.80 -1.25 1.55 -0.65 1.60 -0.60 1.60 0.60 0 1.10 -0.20 1.25 -1.80 1.25 -1.15 0 -1.70 -0.20 -1.60 -0.60z"/>
 </g>
 <g fill="#7c6850">
  <path d="M22.60 38.65 c0.05 -0.90 0.90 -2.30 2.35 -3.85 1.60 -1.65 1.90 -2.15 0.95 -1.60 -0.70 0.50 -1.45 1.15 -1.60 1.55 -0.15 0.40 -0.95 1.05 -1.80 1.50 -1.55 0.80 -1.55 0.80 -1.20 -0.60 0.40 -1.75 1.10 -2.65 2.05 -2.65 0.40 0 0.55 -0.25 0.40 -0.50 -0.20 -0.30 -0.55 -0.40 -0.80 -0.25 -0.25 0.20 -0.45 -0.50 -0.45 -1.45 0 -1.70 0.10 -1.80 1.55 -1.80 1.45 0 1.50 0.10 0.90 0.90 -0.65 0.75 -0.60 0.80 0.15 0.20 0.65 -0.50 0.85 -0.50 1.05 0 0.10 0.35 0.10 -0.45 -0.05 -1.75 -0.20 -2.15 -0.10 -2.45 0.85 -2.70 0.55 -0.15 1.05 -0.65 1.05 -1.10 0 -1.20 1 -2.05 2.35 -2.05 0.85 0 1.15 -0.30 1.15 -1.10 0 -0.65 0.15 -1.65 0.30 -2.25 0.25 -0.95 0.10 -1.15 -0.75 -1.15 -0.55 0 -1.05 -0.20 -1.05 -0.50 0 -0.25 -0.35 -0.50 -0.75 -0.50 -0.40 0 -0.75 0.45 -0.75 1 0 0.65 -0.35 1 -1 1 -0.55 0 -1 0.35 -1 0.75 0 0.50 -0.55 0.75 -1.75 0.75 -2.25 0 -2.25 -0.80 0 -1.85 1.90 -0.90 2.60 -2.10 1.65 -2.75 -0.45 -0.25 -0.30 -0.40 0.50 -0.40 0.85 0 1.10 -0.30 1.10 -1.25 0 -1.10 0.20 -1.25 1.75 -1.25 1.10 0 1.90 0.30 2.05 0.75 0.20 0.40 0.60 0.75 1 0.75 0.45 0 0.70 0.55 0.70 1.50 0 1 0.25 1.50 0.75 1.50 0.55 0 0.75 0.55 0.75 1.80 0 2.10 -0.75 3.70 -1.75 3.70 -0.65 0 -0.70 -0.20 -0.05 -1.75 1.05 -2.50 0.50 -2.15 -0.75 0.45 -0.55 1.20 -2.15 3.15 -3.50 4.30 -1.40 1.15 -2.40 2.20 -2.30 2.35 0.15 0.10 1.45 -0.90 2.90 -2.25 2.35 -2.20 3.95 -2.85 3.95 -1.55 0 0.65 -2.10 2.45 -2.85 2.45 -0.35 0 -0.65 0.25 -0.65 0.60 0 0.30 -0.30 0.95 -0.70 1.35 -1.10 1.25 -1.45 7.65 -0.50 8.95 0.75 1.05 0.70 1.10 -0.75 1.10 -1.50 0 -1.55 -0.10 -1.60 -2.10 0 -1.75 -0.10 -1.95 -0.45 -1.10 -0.25 0.60 -0.65 1.25 -0.95 1.45 -0.30 0.15 -0.55 0.85 -0.55 1.55 0 0.85 -0.25 1.20 -1 1.20 -0.75 0 -0.95 -0.30 -0.90 -1.35z"/>
  <path d="M15 36.40 c-0.35 -0.90 -1.15 -2.85 -1.80 -4.30 -0.65 -1.45 -1.20 -2.95 -1.20 -3.35 0 -0.40 -0.65 -1.80 -1.40 -3.10 -1.90 -3.20 -2.15 -4 -1.80 -5.40 0.30 -1.10 0.30 -1.15 1.70 -0.35 1.25 0.70 1.55 0.75 2.10 0.15 0.50 -0.55 0.50 -0.70 0.05 -0.90 -0.35 -0.15 -0.65 -0.65 -0.65 -1.15 0 -0.55 -0.60 -1.10 -1.60 -1.45 -1.30 -0.45 -1.50 -0.70 -0.90 -1.05 1.75 -1.10 3.40 0.10 4.25 3.25 0.40 1.30 0.45 1.35 0.60 0.40 0.15 -0.65 -0.40 -1.90 -1.30 -3.20 -0.85 -1.15 -1.55 -2.40 -1.55 -2.75 0 -0.50 -0.45 -0.60 -1.55 -0.35 -1.60 0.30 -1.60 0.30 -1.25 -1.65 0.80 -4.20 3.10 -6.50 2.70 -2.70 -0.10 1.40 0 2 0.45 2 0.35 0 0.65 0.55 0.65 1.25 0 0.80 0.30 1.25 0.75 1.25 0.40 0 0.75 0.35 0.75 0.75 0 0.40 0.25 0.75 0.50 0.75 0.30 0 0.50 0.90 0.50 2 0 1.50 0.15 1.90 0.70 1.70 0.40 -0.15 0.85 -0.65 0.95 -1.10 0.15 -0.50 0.25 -0.10 0.30 0.80 0.05 1.75 1.05 2.25 1.05 0.55 0 -1.55 1.95 -4.45 3.35 -5 1.85 -0.70 2.65 -0.55 2.65 0.50 0 0.65 -0.45 1.05 -1.45 1.30 -1.90 0.40 -3.45 2.75 -3.15 4.75 0.25 1.60 0.80 1.95 1.30 0.75 0.15 -0.40 0.60 -0.75 1.05 -0.75 1 0 1 2.20 0 3.20 -0.40 0.40 -0.75 1.05 -0.75 1.45 0 0.55 -0.95 0.80 -3.75 1.10 -4 0.35 -4.25 0.60 -3.15 3 0.40 0.90 0.95 1.25 2 1.25 1.05 0 1.40 0.25 1.40 1 0 0.55 0.35 1 0.75 1 0.40 0 0.75 0.25 0.75 0.50 0 0.30 0.35 0.50 0.75 0.50 0.50 0 0.75 0.55 0.75 1.75 0 1.60 -0.10 1.75 -1.50 1.75 -1 0 -1.50 0.25 -1.50 0.75 0 1.45 -1.85 0.80 -2.50 -0.85z m3.50 -1.50 c0 -1 -1.90 -3.90 -2.80 -4.25 -1.45 -0.55 -1.65 0.60 -0.35 2.75 1.20 2 3.15 2.95 3.15 1.50z m-5.45 -11.30 c-0.30 -0.10 -0.55 -0.50 -0.55 -0.90 0 -0.40 -0.35 -0.70 -0.75 -0.70 -0.40 0 -0.75 0.25 -0.75 0.50 0 0.30 0.20 0.50 0.40 0.50 0.25 0 0.75 0.60 1.10 1.40 0.60 1.20 0.70 1.25 0.90 0.35 0.10 -0.50 -0.05 -1.05 -0.35 -1.15z m3.45 -0.70 c0 -0.25 -0.35 -0.40 -0.75 -0.40 -0.75 0 -1 1.05 -0.40 1.65 0.35 0.35 1.15 -0.55 1.15 -1.25z m2.60 -0.05 c-0.60 -0.65 -1.10 -1.50 -1.15 -1.90 0 -0.55 -0.10 -0.55 -0.30 -0.05 -0.25 0.60 1.60 3.10 2.25 3.10 0.15 0 -0.20 -0.50 -0.80 -1.15z"/>
  <path d="M16 33.20 c-0.75 -1.85 -0.60 -2 0.50 -0.55 1.10 1.40 1.25 1.85 0.50 1.85 -0.30 0 -0.75 -0.60 -1 -1.30z"/>
  <path d="M21.20 17.90 c0.95 -0.80 1.85 -1.15 2.65 -1 1 0.20 1.10 0.35 0.55 0.90 -0.35 0.35 -1.55 0.80 -2.65 0.95 -2 0.35 -2 0.35 -0.55 -0.85z"/>
  <path d="M31.50 10.30 c0 -0.95 0.30 -1.80 0.65 -1.95 0.40 -0.15 0.25 -0.55 -0.50 -1.20 -0.65 -0.55 -1.15 -1.40 -1.15 -1.85 0 -0.60 -0.45 -0.80 -1.80 -0.80 -1.85 0 -2.85 -0.65 -3.10 -2.10 -0.20 -1.15 0.75 -1.15 2.95 0 4.45 2.25 6.45 4.75 6.45 8.05 0 1.45 -0.15 1.55 -1.75 1.55 -1.65 0 -1.75 -0.10 -1.75 -1.70z"/>
  <path d="M27 10.50 c-0.65 -0.45 -0.65 -0.50 0 -0.50 1.35 -0.05 -1.05 -1.50 -2.45 -1.50 -1.30 0.05 -1.30 0.05 -0.05 0.75 1.25 0.70 1.25 0.70 -0.35 0.75 -1.45 0 -1.65 -0.15 -1.65 -1.25 0 -1.20 0.10 -1.25 3.25 -1.25 3.25 0 3.25 0 3.25 1.75 0 1.80 -0.60 2.15 -2 1.25z"/>
  <path d="M11.75 5.50 c0.15 -0.25 0.95 -0.95 1.75 -1.50 1.50 -1.05 1.50 -1.05 1.50 0.45 0 1.45 -0.15 1.55 -1.80 1.55 -1 0 -1.65 -0.20 -1.45 -0.50z"/>
  <path d="M19 2 c0 -0.75 0.35 -1 1.40 -1 2.10 0 3.60 0.55 3.60 1.30 0 0.50 -0.70 0.70 -2.50 0.70 -2.15 0 -2.50 -0.15 -2.50 -1z"/>
 </g>
 <g fill="#948263">
  <path d="M22.75 38.45 c0.05 -1.05 0.85 -2.30 2.55 -4.10 2.65 -2.75 1.80 -2.35 -1.75 0.85 -1.25 1.10 -2.30 1.75 -2.40 1.45 -0.30 -0.85 1.40 -2.65 2.45 -2.65 1.10 0 1.20 -1.30 0.15 -1.70 -0.50 -0.15 -0.75 -0.95 -0.75 -2.30 0 -1.85 0.15 -2.10 1.75 -2.80 0.95 -0.35 2.10 -0.70 2.55 -0.70 0.80 0 0.80 0.10 -0.05 1 -0.50 0.55 -0.70 1 -0.40 1 0.85 0 5.90 -5.65 6.60 -7.35 0.70 -1.70 1.55 -2.20 1.55 -0.95 0 1 -1.50 4.45 -2.40 5.45 -0.40 0.45 -1.30 0.85 -1.95 0.85 -0.85 0 -1.15 0.30 -1.15 1.15 0 0.65 -0.25 1.40 -0.55 1.70 -0.55 0.55 -0.75 1.40 -0.90 4.05 -0.05 0.75 -0.35 1.10 -1.05 1.10 -0.75 0 -1 0.35 -1 1.45 0 0.85 -0.20 1.65 -0.50 1.80 -0.25 0.15 -0.50 0.75 -0.50 1.30 0 0.65 -0.35 0.95 -1.20 0.95 -1 0 -1.15 -0.20 -1.05 -1.55z"/>
  <path d="M28 38.65 c0 -1.25 0 -1.30 1 -0.40 0.55 0.50 1 1.10 1 1.35 0 0.20 -0.45 0.40 -1 0.40 -0.75 0 -1 -0.35 -1 -1.35z"/>
  <path d="M15.25 36.50 c-0.40 -0.80 -0.75 -1.55 -0.75 -1.60 0.05 -0.10 -0.50 -1.45 -1.20 -3.05 -0.75 -1.60 -1.30 -3.30 -1.30 -3.75 0 -0.50 -0.25 -1.15 -0.60 -1.50 -0.45 -0.45 -0.25 -0.60 1 -0.60 0.90 0 1.60 -0.20 1.60 -0.50 0 -0.25 -0.45 -0.50 -1 -0.50 -0.75 0 -1 -0.35 -1 -1.45 0 -1.95 0.45 -3.05 1.25 -3.05 0.40 0 0.80 0.40 0.90 0.90 0.20 0.80 0.25 0.80 0.30 0 0 -0.50 0.30 -0.90 0.55 -0.90 0.30 0 0.50 -0.25 0.50 -0.55 0 -0.25 -0.20 -0.35 -0.50 -0.20 -0.25 0.15 -0.50 -0.15 -0.50 -0.75 0 -0.60 -0.65 -2 -1.40 -3.15 -0.80 -1.15 -1.60 -2.50 -1.75 -3 -0.30 -0.75 -0.50 -0.80 -1.40 -0.35 -1.55 0.85 -1.65 0.35 -0.70 -2.75 0.65 -2.05 1.45 -3.30 2.95 -4.60 3.85 -3.35 9.80 -5.20 9.80 -3.10 0 0.75 -0.35 0.95 -1.55 0.95 -0.85 0 -1.85 0.35 -2.25 0.75 -0.45 0.40 -1.45 0.75 -2.25 0.75 -1.10 0 -1.45 0.25 -1.45 1 0 0.75 -0.35 1 -1.25 1 -1 0 -1.25 0.25 -1.25 1.25 0 0.70 -0.20 1.25 -0.50 1.25 -0.25 0 -0.50 0.35 -0.50 0.75 0 0.40 0.45 0.75 1 0.75 0.75 0 1.05 0.45 1.30 2 0.25 1.45 0.65 2.15 1.60 2.65 1.60 0.75 1.95 1.50 2.35 4.45 0.20 1.45 0.75 2.80 1.50 3.60 1.05 1.15 1.10 1.30 0.30 1.30 -0.50 0 -1.05 0.45 -1.20 1 -0.20 0.75 -0.70 1 -2.05 1 -1.60 0 -1.80 0.15 -1.80 1.25 0 0.90 0.25 1.25 1 1.25 0.55 0 1 0.35 1 0.75 0 0.40 -0.30 0.75 -0.70 0.75 -0.40 0 -0.90 0.20 -1.05 0.50 -0.35 0.55 2.05 4.30 3.05 4.70 0.40 0.15 0.70 0.75 0.70 1.30 0 1.60 -1.85 1.25 -2.75 -0.50z m1.15 -13.15 c0.10 -0.50 -0.15 -0.85 -0.60 -0.85 -0.50 0 -0.80 0.45 -0.80 1.05 0 1.20 1.15 1.05 1.40 -0.20z"/>
  <path d="M18.65 35.20 c0.15 -0.20 0 -0.80 -0.40 -1.40 -1.05 -1.45 -0.95 -1.80 0.50 -1.80 1.10 0 1.25 0.20 1.25 1.75 0 1.30 -0.20 1.75 -0.85 1.75 -0.45 0 -0.65 -0.15 -0.50 -0.30z"/>
  <path d="M17 29.75 c0 -1.65 0.10 -1.75 1.75 -1.75 1.70 0 1.75 0.05 1.75 1.80 0 1.55 -0.10 1.75 -0.75 1.20 -0.50 -0.45 -0.75 -0.45 -0.75 -0.05 0 0.30 -0.45 0.55 -1 0.55 -0.80 0 -1 -0.35 -1 -1.75z"/>
  <path d="M9.85 24.05 c-1.10 -1.90 -1.10 -3.05 0.10 -3.05 1.05 0 1.55 0.95 1.55 3.05 0 1.85 -0.55 1.85 -1.65 0z"/>
  <path d="M29.50 23.55 c0 -0.85 0.25 -1.55 0.50 -1.55 0.30 0 0.50 -0.35 0.50 -0.75 0 -0.45 0.45 -0.75 1.20 -0.75 0.90 0 1.15 0.20 0.95 0.90 -0.25 1 -1.05 2.10 -2.25 3.05 -0.80 0.60 -0.90 0.55 -0.90 -0.90z"/>
  <path d="M18.85 22.60 c-1.55 -1.70 -0.95 -5.75 1.15 -8 0.95 -1.05 1.50 -1.15 4.55 -1.05 2.15 0.05 3.70 -0.10 4.05 -0.45 0.35 -0.35 1.10 -0.60 1.75 -0.60 1 0 1.15 -0.25 1.15 -1.75 0 -1.65 0.10 -1.75 1.75 -1.75 1.65 0 1.75 0.10 1.75 1.75 0 1.60 -0.10 1.75 -1.50 1.75 -1.25 0 -1.50 0.20 -1.50 1.25 0 0.90 0.25 1.25 1 1.25 0.80 0 1 0.35 1 1.75 0 1.65 -0.10 1.75 -1.75 1.75 -1.10 0 -1.75 -0.25 -1.75 -0.65 0 -0.45 -0.50 -0.60 -1.50 -0.45 -1.20 0.15 -1.50 0.45 -1.50 1.40 0 1.05 -0.25 1.20 -1.75 1.20 -2.15 0 -2.20 -0.50 -0.25 -1.65 1.70 -1.05 1.85 -1.70 0.65 -2.65 -1.10 -0.80 -2.50 -0.85 -4.45 -0.20 -2 0.70 -2.70 2.40 -2.15 5.30 0.50 2.75 0.40 3.05 -0.70 1.80z m13.10 -6.25 c-0.10 -0.05 -0.70 -0.50 -1.30 -1.05 -1.05 -0.85 -1.05 -0.85 -0.80 0.15 0.15 0.65 0.65 1.05 1.30 1.05 0.55 0 0.90 -0.05 0.80 -0.15z"/>
  <path d="M12.30 18.25 c-0.55 -1.15 -1.20 -1.75 -1.85 -1.75 -1.35 0 -0.95 -1.20 0.40 -1.40 0.80 -0.10 1.30 0.35 2.10 2.05 1.15 2.40 1.25 2.85 0.60 2.85 -0.25 0 -0.80 -0.80 -1.25 -1.75z"/>
  <path d="M20.55 18.65 c0.05 -0.85 2.90 -2.65 3.65 -2.35 0.90 0.35 1.05 1 0.30 1.45 -0.25 0.15 -0.50 0.05 -0.50 -0.20 0 -0.95 -1.40 -0.60 -1.65 0.45 -0.25 0.90 -1.90 1.50 -1.80 0.65z"/>
  <path d="M18.50 10.55 c0 -1.45 0.15 -1.55 1.75 -1.55 0.95 0 1.75 -0.20 1.75 -0.50 0 -0.25 0.55 -0.50 1.25 -0.50 0.70 0 1.25 -0.20 1.25 -0.50 0 -0.25 0.80 -0.50 1.75 -0.50 1.65 0 1.75 0.10 1.75 1.75 0 0.95 -0.20 1.75 -0.50 1.75 -0.25 0 -0.35 -0.30 -0.20 -0.70 0.25 -0.65 -1.10 -1.30 -3 -1.30 -0.75 0 -0.80 0.15 -0.30 0.75 0.55 0.65 0.40 0.75 -1 0.75 -0.85 0 -2.25 0.45 -3.05 1.05 -1.45 1 -1.45 1 -1.45 -0.50z"/>
  <path d="M31 5.50 c0 -1.35 0.10 -1.45 0.95 -0.95 0.50 0.35 1.15 1 1.50 1.50 0.50 0.85 0.40 0.95 -0.95 0.95 -1.35 0 -1.50 -0.15 -1.50 -1.50z"/>
  <path d="M25 4.05 c-0.75 -0.20 -1.30 -0.75 -1.40 -1.45 -0.20 -1.35 0.25 -1.40 1.60 -0.20 1 0.80 1 0.80 0.35 0 -0.60 -0.80 -0.55 -0.90 0.35 -0.90 0.55 0 1.35 0.35 1.80 0.75 0.40 0.40 0.95 0.75 1.25 0.75 0.30 0 0.55 0.35 0.55 0.75 0 0.80 -2.15 0.95 -4.50 0.30z"/>
 </g>
 <g fill="#7b9c77">
  <path d="M23.50 19.35 c2.90 -1.25 3.65 -1.30 2.45 -0.10 -0.40 0.40 -1.70 0.85 -2.95 1 -2.25 0.30 -2.25 0.30 0.50 -0.90z"/>
  <path d="M21.70 17.55 c1.65 -1.70 1.70 -1.75 2.80 -1.05 0.65 0.40 0.65 0.55 0 1.20 -0.40 0.40 -1.55 0.85 -2.50 1.05 -1.75 0.35 -1.75 0.35 -0.30 -1.20z"/>
  <path d="M19 17.80 c0 -0.30 0.60 -1.15 1.35 -1.90 1.05 -1.10 1.75 -1.40 3.35 -1.35 2.05 0.10 2.05 0.10 -0.15 0.45 -1.60 0.25 -2.55 0.75 -3.40 1.80 -0.60 0.80 -1.15 1.25 -1.15 1z"/>
 </g>
 <g fill="#ab9672">
  <path d="M23.30 38.15 c-0.20 -0.70 -0.15 -1.45 0.10 -1.60 0.70 -0.50 4.25 -4.55 3.95 -4.55 -0.15 0 -1.80 1.35 -3.70 3 -2.75 2.45 -3.65 3 -5.15 3 -2.25 0 -2.90 -0.45 -3.45 -2.30 -0.25 -0.80 -0.60 -1.85 -0.80 -2.30 -0.60 -1.50 0.45 -1 1.35 0.60 0.80 1.45 2.50 2 3.10 1.05 0.15 -0.25 -0.40 -1.35 -1.20 -2.50 -1.60 -2.15 -3.25 -2.70 -3.65 -1.15 -0.15 0.60 -0.45 0.30 -1.05 -1.10 -0.45 -1.05 -0.75 -2.05 -0.60 -2.15 0.15 -0.15 -0.20 -0.85 -0.70 -1.55 -1.20 -1.50 -1.25 -2.10 -0.25 -2.10 0.50 0 0.75 -0.55 0.75 -1.75 0 -0.95 0.20 -1.75 0.45 -1.75 0.35 0 0.40 -1.80 0.05 -2.50 -0.05 -0.15 -0.15 -0.60 -0.20 -1 0 -0.40 -0.55 -0.80 -1.20 -0.90 -1.20 -0.20 -1.30 -1.35 -0.15 -1.35 0.90 0 2.95 3.75 3.20 5.85 0.15 1.30 0.20 1.20 0.25 -0.70 0.10 -2 0.25 -2.40 1.05 -2.40 0.55 0 1.10 -0.40 1.20 -0.85 0.15 -0.50 0.25 0.10 0.30 1.35 0.05 1.25 0.50 2.95 1.05 3.90 1 1.60 1 1.60 -0.25 1.60 -0.75 0 -1.25 -0.30 -1.25 -0.70 0 -1.05 -1.05 -1.55 -1.50 -0.75 -0.50 0.80 0.35 2.60 1.05 2.20 0.25 -0.20 0.45 -0.05 0.45 0.20 0 0.30 -0.80 0.55 -1.75 0.55 -0.95 0 -1.75 0.25 -1.75 0.50 0 0.30 0.20 0.50 0.45 0.50 0.25 0 0.55 0.50 0.65 1.15 0.15 1.05 0.35 1.10 3.55 0.95 3.10 -0.20 3.35 -0.10 3.35 0.85 0 0.70 0.25 0.95 0.75 0.75 0.40 -0.20 0.75 -0.60 0.75 -1 0 -0.40 0.45 -0.70 0.95 -0.70 0.60 0 1.15 -0.55 1.50 -1.50 0.25 -0.85 0.90 -1.65 1.40 -1.80 0.50 -0.15 1.25 -0.50 1.65 -0.75 0.40 -0.25 1.15 -0.60 1.65 -0.75 0.45 -0.20 0.85 -0.65 0.85 -1 0 -0.40 0.35 -0.70 0.75 -0.70 1.35 0 0.80 0.80 -3.30 4.70 -2.20 2.15 -3.85 4.05 -3.70 4.20 0.20 0.20 0.80 -0.20 1.35 -0.90 0.55 -0.70 1.35 -1.20 1.70 -1.10 0.40 0.10 0.70 -0.15 0.70 -0.50 0 -0.40 1.05 -1.70 2.40 -2.95 1.45 -1.40 2.65 -3.05 3.05 -4.35 0.70 -2.05 1.55 -2.80 1.55 -1.35 0 1.90 -1.90 5.25 -4.40 7.85 -1.50 1.55 -2.55 3.05 -2.40 3.35 0.50 0.80 -0.25 3.05 -1 3.05 -0.45 0 -0.70 0.55 -0.70 1.50 0 1 -0.25 1.50 -0.75 1.50 -0.45 0 -0.75 0.45 -0.75 1.25 0 1.70 -1.30 1.60 -1.70 -0.10z m-3.10 -6.35 c-0.45 -0.75 -0.95 -1.25 -1.05 -1.10 -0.15 0.10 0.15 0.80 0.65 1.50 0.45 0.75 0.95 1.25 1.05 1.10 0.15 -0.10 -0.15 -0.80 -0.65 -1.50z"/>
  <path d="M19.05 22.70 c-0.95 -1.20 -1.10 -1.85 -0.85 -3.95 0.40 -3.30 2.25 -5.25 5.50 -5.60 2.10 -0.25 2.30 -0.20 2.30 0.80 0 0.90 -0.30 1.05 -2.05 1.05 -1.65 0 -2.35 0.30 -3.55 1.60 -1 1.10 -1.40 1.90 -1.20 2.60 0.15 0.60 0.30 1.45 0.30 1.95 0 1.15 0.85 1.10 1.25 -0.10 0.40 -1.30 2.25 -1.75 2.25 -0.55 0 1.55 -0.55 2.50 -1.50 2.50 -0.50 0 -1 0.25 -1.10 0.60 -0.10 0.30 -0.70 -0.10 -1.35 -0.90z"/>
  <path d="M9 20.25 c0 -1.30 0 -1.30 1.25 -0.40 1.55 1.15 1.55 1.65 0 1.65 -1 0 -1.25 -0.25 -1.25 -1.25z"/>
  <path d="M30 18 c0 -0.25 -0.65 -0.50 -1.50 -0.50 -0.95 0 -1.50 -0.25 -1.50 -0.70 0 -0.35 -0.15 -1.40 -0.30 -2.25 -0.30 -1.40 -0.20 -1.55 1 -1.55 1.55 0 1.75 -1.20 0.30 -2 -1.15 -0.60 -0.80 -2 0.55 -2 0.60 0 0.95 0.35 0.95 0.95 0 1.50 0.55 2.55 1.30 2.55 0.40 0 0.70 0.50 0.70 1.25 0 1.05 0.25 1.25 1.50 1.25 1.40 0 1.50 0.15 1.50 1.75 0 1.75 0 1.75 -2.25 1.75 -1.25 0 -2.25 -0.20 -2.25 -0.50z m1.65 -1.85 c-0.65 -0.40 -1.15 -1.15 -1.15 -1.55 0 -0.55 -0.15 -0.65 -0.50 -0.30 -1.10 1.10 -0.05 2.20 2.50 2.60 0.15 0.05 -0.25 -0.30 -0.85 -0.75z"/>
  <path d="M13.30 15.95 c-0.70 -0.85 -1.45 -2.05 -1.60 -2.75 -0.35 -1.40 -0.40 -1.40 -1.80 -0.65 -1 0.55 -1.05 0.50 -0.70 -1.55 0.45 -2.90 1.35 -4.50 3.60 -6.30 2.85 -2.20 3.70 -2.45 3.70 -0.95 0 1 -0.25 1.25 -1.25 1.25 -0.90 0 -1.25 0.25 -1.25 1 0 0.55 -0.35 1 -0.75 1 -0.40 0 -0.75 0.35 -0.75 0.75 0 0.40 -0.20 0.75 -0.50 0.75 -0.25 0 -0.50 0.35 -0.50 0.75 0 0.40 0.25 0.75 0.50 0.75 0.30 0 0.50 0.80 0.50 1.75 0 1.40 0.20 1.75 0.95 1.75 0.75 0 1 0.45 1.15 2 0.10 1.10 0.15 2 0.10 2 -0.05 0 -0.70 -0.70 -1.40 -1.55z"/>
  <path d="M17 11.85 c0 -1.50 0.20 -1.85 1 -1.85 0.55 0 1 -0.30 1 -0.65 0 -0.70 3.30 -1.85 5.25 -1.85 0.70 0 1.25 0.25 1.25 0.50 0 0.30 -0.45 0.50 -1 0.50 -0.55 0 -0.95 0.25 -0.90 0.60 0.10 0.30 -0.60 0.75 -1.50 0.95 -0.95 0.20 -2.45 1.10 -3.40 2 -1.70 1.65 -1.70 1.65 -1.70 -0.20z"/>
  <path d="M31.65 12.15 c-0.40 -0.10 -0.65 -1.10 -0.65 -2.20 0 -1.60 0.20 -1.95 0.95 -1.95 0.55 0 1.10 -0.30 1.25 -0.60 0.45 -1.20 1.80 1.20 1.80 3.20 0 1.75 -0.10 1.90 -1.35 1.85 -0.80 0 -1.70 -0.15 -2 -0.30z"/>
  <path d="M26.30 4.65 c-1.35 -0.10 -2.75 -0.55 -3.15 -0.95 -0.40 -0.40 -1.40 -0.70 -2.20 -0.70 -1.10 0 -1.45 -0.25 -1.45 -0.95 0 -0.80 0.30 -0.90 2.35 -0.70 1.30 0.10 2.80 0.55 3.35 1.05 0.85 0.75 0.95 0.75 0.65 0.05 -0.20 -0.65 -0.05 -0.80 0.70 -0.60 0.50 0.15 0.95 0.45 0.95 0.70 0 0.25 0.65 0.45 1.40 0.45 0.80 0 1.85 0.45 2.35 1 1 1.10 1.10 1.10 -4.95 0.65z"/>
 </g>
 <g fill="#c0a378">
  <path d="M23.40 38.65 c-0.10 -1 0.35 -2 1.50 -3.50 1.45 -1.80 1.80 -2 2.40 -1.40 0.40 0.35 0.70 1.35 0.70 2.20 0 0.80 0.20 1.65 0.50 1.80 0.25 0.15 0.75 0.75 1 1.30 0.50 0.85 0.35 0.95 -1.45 0.95 -1.95 0 -2 -0.05 -2.20 -1.85 -0.20 -1.90 -0.20 -1.90 -0.25 0 -0.10 1.45 -0.30 1.85 -1.05 1.85 -0.70 0 -1.05 -0.40 -1.15 -1.35z"/>
  <path d="M15.45 36.15 c-0.30 -0.80 -0.90 -2 -1.30 -2.75 -1.05 -2.05 0.05 -1.70 1.30 0.35 0.95 1.65 1.50 1.95 2.95 1.80 0.30 -0.05 0.60 0.35 0.60 0.95 0 0.80 -0.30 1 -1.50 1 -1.20 0 -1.65 -0.30 -2.05 -1.35z"/>
  <path d="M20.50 36.30 c0 -0.75 -0.30 -1.30 -0.70 -1.30 -0.35 0 -1.30 -1 -2.10 -2.25 -0.75 -1.25 -1.70 -2.25 -2.05 -2.25 -0.35 0 -0.65 -0.20 -0.65 -0.50 0 -0.25 0.35 -0.50 0.75 -0.50 0.40 0 0.75 -0.45 0.75 -1 0 -0.80 0.35 -1 1.75 -1 1.70 0 1.75 0.05 1.75 1.85 0 1.75 -0.05 1.80 -0.75 0.85 -0.70 -0.95 -0.75 -0.95 -0.60 0.10 0.15 1.25 2.35 4.15 2.35 3.10 0 -0.40 -0.25 -0.95 -0.60 -1.30 -0.45 -0.45 -0.35 -0.60 0.50 -0.60 0.90 0 1.10 0.30 1.10 1.50 0 1 0.25 1.50 0.75 1.50 0.55 0 0.75 -0.60 0.75 -2.20 0 -1.20 0.15 -2.90 0.30 -3.75 0.25 -1.30 0.15 -1.55 -0.60 -1.55 -1.15 0 -5.20 -1.95 -5.20 -2.55 0 -0.25 -0.35 -0.45 -0.75 -0.45 -0.40 0 -0.75 -0.45 -0.75 -1 0 -0.55 -0.30 -1 -0.70 -1 -0.70 0 -1.50 -3.30 -1 -4.10 0.60 -0.95 1.60 -0.30 1.90 1.25 0.35 1.90 2.05 4.85 2.85 4.85 0.25 0 0.05 -0.65 -0.50 -1.45 -1.10 -1.55 -1.40 -3.05 -0.55 -3.05 0.25 0 0.60 0.55 0.80 1.25 0.35 1.40 1.10 1.65 1.55 0.50 0.25 -0.70 2.60 -2.25 3.40 -2.25 0.15 0 0.25 0.55 0.25 1.20 0 1 -0.30 1.25 -1.60 1.45 -1.60 0.20 -1.60 0.20 0.25 0.25 1.85 0.10 1.85 0.10 1.85 2.60 0 2.15 0.15 2.50 0.95 2.50 0.55 0 1.15 -0.45 1.30 -1 0.20 -0.60 0.75 -1 1.35 -1 0.90 0 0.55 0.50 -1.75 2.65 -1.55 1.45 -2.85 2.90 -2.85 3.25 0 0.85 0.85 0.75 1.20 -0.15 0.15 -0.40 0.60 -0.75 0.95 -0.75 0.40 0 1.10 -0.45 1.60 -1 0.50 -0.55 0.75 -1 0.50 -1 -0.20 0 -0.10 -0.35 0.25 -0.75 1.20 -1.45 1.50 0.30 0.40 1.95 -1.35 2 -5.30 6.10 -7 7.35 -1.40 1 -1.40 1 -1.40 -0.25z"/>
  <path d="M30 26.80 c0 -0.40 0.25 -0.90 0.50 -1.05 0.30 -0.15 0.50 0.15 0.50 0.70 0 0.60 -0.20 1.05 -0.50 1.05 -0.25 0 -0.50 -0.30 -0.50 -0.70z"/>
  <path d="M10.60 25.05 c-1.40 -2.45 -1.40 -2.55 0.30 -2.60 0.75 0 1.05 -0.15 0.75 -0.30 -1 -0.40 -0.75 -1.50 0.35 -1.80 0.75 -0.20 1 -0.60 0.85 -1.45 -0.10 -0.65 -0.10 -0.85 0 -0.50 0.15 0.30 0.45 0.60 0.75 0.60 0.35 0 0.45 0.90 0.25 2.50 -0.15 1.40 -0.10 2.40 0.10 2.30 0.25 -0.15 0.80 0.15 1.30 0.70 0.90 1 0.85 1 -0.90 1 -1.30 0 -1.85 0.20 -1.85 0.75 0 1.30 -0.80 0.80 -1.90 -1.20z"/>
  <path d="M33.15 21.90 c0.95 -2.30 1.95 -2.45 1.25 -0.20 -0.30 1 -0.85 1.80 -1.25 1.80 -0.55 0 -0.55 -0.25 0 -1.60z"/>
  <path d="M31.50 21.65 c0 -1.15 0.25 -1.65 0.75 -1.65 0.90 0 0.90 0.40 0 2 -0.70 1.25 -0.70 1.25 -0.75 -0.35z"/>
  <path d="M18.55 17.75 c-0.05 -0.60 0.55 -1.75 1.35 -2.65 1.25 -1.50 1.60 -1.65 5.10 -1.85 4.05 -0.20 5 -1 3.05 -2.35 -0.60 -0.40 -0.90 -0.90 -0.70 -1.10 0.20 -0.20 0.05 -0.55 -0.35 -0.80 -0.55 -0.35 -0.40 -0.50 0.65 -0.50 1.15 0 1.35 0.20 1.35 1.50 0 0.95 0.25 1.50 0.70 1.50 0.35 0 0.80 0.70 1 1.50 0.25 1.25 0.50 1.50 1.80 1.50 1.40 0 1.50 0.15 1.50 1.75 0 1.65 -0.10 1.75 -1.75 1.75 -0.95 0 -1.75 -0.20 -1.75 -0.50 0 -0.25 -0.65 -0.50 -1.50 -0.50 -1.20 0 -1.50 -0.20 -1.50 -1.10 0 -0.85 -0.15 -0.95 -0.45 -0.45 -0.30 0.45 -0.55 0.50 -0.75 0.10 -0.20 -0.30 -1.35 -0.55 -2.60 -0.55 -2.20 0 -3.15 0.60 -4.55 2.80 -0.55 0.90 -0.60 0.90 -0.60 -0.05z m13.35 -1.55 c-0.80 -0.40 -1.40 -1.05 -1.40 -1.45 0 -0.40 -0.20 -0.75 -0.50 -0.75 -1.15 0 -0.30 2.15 1 2.65 1.55 0.60 2.20 0.30 0.90 -0.45z"/>
  <path d="M16.50 13.10 c0 -0.75 -0.30 -1.10 -1 -1.10 -0.80 0 -1 -0.35 -1 -1.50 0 -2.10 -0.80 -2.80 -2.90 -2.60 -1.65 0.20 -1.70 0.20 -1.05 -0.75 1.60 -2.25 5.15 -4.65 6.90 -4.65 0.90 0 1.05 0.30 1.05 1.90 0 1.05 -0.25 2.15 -0.60 2.50 -0.45 0.45 -0.45 0.60 0 0.60 0.35 0 0.60 0.65 0.60 1.45 0 0.85 0.30 1.55 0.70 1.65 0.50 0.10 0.20 0.70 -1 1.90 -1.55 1.55 -1.70 1.60 -1.70 0.60z"/>
  <path d="M32.30 13.20 c-0.15 -0.45 -0.30 -1.50 -0.30 -2.35 0.05 -1.35 0.10 -1.45 0.55 -0.70 0.25 0.45 0.75 0.85 1.05 0.85 0.35 0 0.30 -0.25 -0.10 -0.75 -0.50 -0.65 -0.45 -0.75 0.45 -0.75 0.90 0 1.05 0.30 1.05 2.25 0 2.05 -0.10 2.25 -1.20 2.25 -0.65 0 -1.35 -0.35 -1.50 -0.80z"/>
  <path d="M11.25 12.40 c-0.20 -0.70 -0.40 -0.90 -0.60 -0.50 -0.40 0.95 -1.75 0.75 -1.55 -0.25 0.10 -0.55 0.70 -0.95 1.55 -1.05 1.20 -0.15 1.35 0 1.35 1.35 0 1.85 -0.25 2 -0.75 0.45z"/>
  <path d="M21.50 8.50 c0 -1.40 0.15 -1.50 1.75 -1.50 1.20 0 1.75 0.25 1.75 0.75 0 0.40 -0.25 0.75 -0.55 0.75 -0.30 0 -0.85 0.35 -1.25 0.75 -1.15 1.15 -1.70 0.90 -1.70 -0.75z"/>
  <path d="M26 4.10 c0 -1.35 0.30 -1.50 2.35 -1.15 1.25 0.20 1.95 0.60 2.05 1.20 0.15 0.70 -0.20 0.85 -2.10 0.85 -1.90 0 -2.30 -0.15 -2.30 -0.90z"/>
 </g>
 <g fill="#cbb187">
  <path d="M23.80 38.20 c0.10 -1.20 0.80 -2.55 1.95 -4 1 -1.20 1.95 -2.20 2.10 -2.20 0.15 0 0.15 1.05 0 2.35 -0.20 2 -0.05 2.60 1.10 4.10 1.30 1.75 1.30 1.75 0.05 1.40 -0.70 -0.20 -1.65 -0.35 -2.10 -0.35 -0.50 0 -0.90 -0.40 -0.95 -0.85 0 -0.70 -0.10 -0.65 -0.45 0.25 -0.75 1.80 -1.85 1.35 -1.70 -0.70z"/>
  <path d="M16 37 c-0.55 -0.55 -1 -1.30 -1 -1.60 0 -0.35 -0.55 -1.75 -1.25 -3.10 -0.70 -1.35 -1.25 -2.85 -1.25 -3.35 0 -0.50 -0.80 -2.25 -1.75 -3.90 -2 -3.40 -2.40 -5.95 -0.80 -5.05 1.45 0.75 3.05 0.60 3.05 -0.25 0 -0.40 0.25 -0.75 0.50 -0.75 0.55 0 0.65 1.20 0.20 2.90 -0.35 1.20 -1.45 1.50 -1.85 0.50 -0.15 -0.35 -0.30 0.05 -0.30 0.95 -0.05 1.25 0.15 1.60 1 1.75 0.85 0.10 1.25 0.75 1.75 2.65 0.40 1.75 0.45 2.60 0.10 2.85 -0.95 0.55 1.80 5.40 3 5.40 0.20 0 0.65 -0.20 1.05 -0.45 0.60 -0.40 0.50 -0.75 -0.35 -2.30 -1.15 -1.90 -1.45 -4.25 -0.60 -4.25 0.25 0 0.95 1 1.55 2.25 1.05 2.25 1.95 3.30 1.95 2.25 0 -0.30 -0.55 -1.40 -1.25 -2.50 -1.25 -2 -1.25 -2 0.25 -2 0.80 0 1.50 0.20 1.50 0.40 0 0.25 0.70 0.35 1.50 0.20 1.15 -0.15 1.50 -0.45 1.50 -1.30 0 -0.95 -0.45 -1.20 -3.25 -1.80 -3.15 -0.65 -3.25 -0.75 -3.25 -2.20 0 -1.15 0.15 -1.35 0.60 -0.90 0.35 0.35 0.95 0.60 1.35 0.60 0.65 -0.05 0.60 -0.20 -0.15 -0.75 -0.90 -0.70 -0.80 -0.75 1.65 -0.75 2.95 0 4.05 0.75 4.05 2.70 0 0.70 0.25 1.30 0.50 1.30 0.30 0 0.50 -0.45 0.50 -1 0 -0.60 0.35 -1 0.90 -1 0.45 0 1.40 -0.15 2.10 -0.30 0.95 -0.25 0.50 0.40 -2.15 2.85 -1.85 1.75 -3.35 3.45 -3.35 3.75 0 0.35 0.60 0.75 1.30 0.90 1.35 0.35 1.35 0.35 -0.60 2.35 -1.05 1.10 -2 1.75 -2.10 1.45 -0.20 -0.60 -2.10 -0.65 -2.10 -0.05 0 0.25 0.30 0.60 0.65 0.75 1 0.40 -1.10 1.80 -2.75 1.80 -0.75 0 -1.85 -0.45 -2.40 -1z m7 -12.25 c-0.50 -0.60 -0.50 -0.75 0 -0.75 0.40 0 0.55 -0.15 0.35 -0.30 -0.15 -0.20 -0.70 -0.20 -1.15 0 -0.80 0.30 -0.75 0.40 0.10 1.05 1.25 0.95 1.50 0.95 0.70 0z"/>
  <path d="M27.65 29.10 c0.50 -0.50 0.70 -1.05 0.55 -1.20 -0.15 -0.15 0 -0.45 0.35 -0.70 0.40 -0.20 0.50 -0.15 0.25 0.20 -0.20 0.35 -0.10 0.60 0.20 0.60 0.30 0 0.70 -0.50 0.95 -1.15 0.25 -0.65 0.85 -1.45 1.35 -1.85 0.95 -0.85 2.70 -4.35 2.65 -5.50 0 -0.40 -0.40 0 -0.85 0.90 -1 1.85 -1.60 1.65 -1.60 -0.50 0 -1.15 -0.20 -1.40 -1.25 -1.40 -1.70 0 -3.25 -1.65 -3.25 -3.50 0 -1.15 0.20 -1.50 1 -1.50 1.20 0 1.35 -1.60 0.25 -2.50 -1.15 -0.95 -0.90 -1.50 0.75 -1.50 1.25 0 1.50 0.20 1.50 1.25 0 0.80 0.30 1.25 0.75 1.25 0.40 0 0.75 0.45 0.75 1 0 0.55 0.25 1 0.50 1 0.30 0 0.50 0.55 0.50 1.20 0 1 -0.20 1.15 -1.05 0.95 -0.60 -0.20 -1.20 -0.70 -1.30 -1.25 -0.35 -1.15 -0.40 -1.15 -1.70 0.15 -1.05 1.05 -1.05 1.05 0 0.70 0.60 -0.15 1.05 -0.10 1.05 0.20 0 0.25 0.70 0.60 1.50 0.80 0.85 0.20 1.50 0.55 1.50 0.80 0 0.25 0.45 0.45 1 0.45 1.25 0 1.30 1 0.20 4.20 -0.85 2.40 -5.50 7.80 -6.75 7.80 -0.40 0 -0.35 -0.30 0.20 -0.90z"/>
  <path d="M15 20.50 c-0.10 -0.95 -0.20 -2 -0.20 -2.25 -0.05 -0.30 -0.65 -1.30 -1.40 -2.25 -0.75 -0.95 -1.60 -2.40 -1.85 -3.20 -0.50 -1.20 -0.70 -1.30 -1.30 -0.80 -0.45 0.35 -0.90 0.55 -1.05 0.40 -0.50 -0.55 0.95 -4.85 1.90 -5.75 1 -0.90 1 -0.90 0.80 1.25 -0.10 1.45 0 2.10 0.45 2.10 0.35 0 0.65 0.35 0.65 0.75 0 1.25 0.85 0.85 1.10 -0.50 0.15 -0.80 0.05 -1.25 -0.35 -1.25 -0.90 0 -1.35 -3.50 -0.60 -4.40 0.35 -0.45 1.85 -1.35 3.45 -2.10 3.25 -1.55 5.90 -1.50 5.90 0.05 0 0.80 -0.40 0.95 -2.65 0.95 -2.15 0 -2.90 0.25 -3.75 1.15 -0.60 0.65 -1.10 1.45 -1.10 1.80 0 0.35 0.55 -0.05 1.25 -0.80 1.20 -1.40 1.20 -1.40 1.25 0.25 0 1.10 0.25 1.60 0.75 1.60 0.40 0 0.75 0.45 0.75 1 0 0.55 0.25 1 0.50 1 0.30 0 0.50 -0.35 0.50 -0.75 0 -0.40 0.35 -0.75 0.75 -0.75 0.45 0 0.90 -0.35 1.05 -0.75 0.20 -0.50 1 -0.75 2.50 -0.75 1.85 0 2.20 0.15 2.20 1 0 0.80 -0.35 1 -1.80 1 -1.05 0 -1.65 0.20 -1.45 0.50 0.20 0.30 -0.35 0.65 -1.25 0.80 -0.90 0.20 -2.45 1.30 -3.75 2.60 -2.25 2.25 -2.70 3.25 -1.75 3.85 0.30 0.15 0.45 1.50 0.45 2.90 -0.05 1.45 -0.15 2.20 -0.30 1.75 -0.30 -1.25 -1.05 -1.10 -1.30 0.25 -0.15 0.80 -0.25 0.60 -0.35 -0.65z"/>
  <path d="M18 20.50 c0 -0.55 0.35 -1 0.75 -1 0.40 0 0.75 0.45 0.75 1 0 0.55 -0.35 1 -0.75 1 -0.40 0 -0.75 -0.45 -0.75 -1z"/>
  <path d="M22 20.60 c0 -0.35 0.85 -0.90 3.15 -2 0.20 -0.10 0.35 0.40 0.35 1.10 0 1.15 -0.20 1.30 -1.75 1.30 -0.95 0 -1.75 -0.20 -1.75 -0.40z"/>
  <path d="M18.50 17.75 c0.05 -1.10 1.85 -3.55 2.30 -3.10 0.15 0.15 -0.30 1.15 -1 2.20 -1 1.40 -1.30 1.65 -1.30 0.90z"/>
  <path d="M25.80 15.05 c-0.15 -0.20 -0.85 -0.30 -1.55 -0.15 -0.90 0.15 -1.25 0 -1.25 -0.60 0 -0.60 0.45 -0.80 1.75 -0.80 1.40 0 1.75 0.20 1.75 1 0 1.05 -0.25 1.30 -0.70 0.55z"/>
  <path d="M32.50 11.95 c0 -1.35 0.10 -1.50 0.75 -0.95 0.45 0.40 0.75 0.45 0.75 0.10 0 -0.30 -0.20 -0.70 -0.50 -0.85 -0.75 -0.45 -0.60 -2.75 0.20 -2.75 0.80 0 1.30 1.50 1.30 4.15 0 1.65 -0.15 1.85 -1.25 1.85 -1.05 0 -1.25 -0.25 -1.25 -1.55z"/>
  <path d="M25.55 5.15 c-1.55 -0.30 -2.55 -1.30 -2.55 -2.60 0 -1.25 0.65 -1.35 1.75 -0.25 0.40 0.45 1.10 0.65 1.50 0.50 0.40 -0.15 0.85 0 1.05 0.25 0.15 0.30 0.75 0.40 1.30 0.30 1.40 -0.40 2.40 0.10 2.40 1.20 0 0.80 -0.35 0.95 -2.10 0.90 -1.20 -0.05 -2.70 -0.20 -3.35 -0.30z"/>
 </g>
 <g fill="#ddc08e">
  <path d="M26 38.50 c0 -1 0.25 -1.50 0.75 -1.50 0.40 0 0.75 0.35 0.75 0.80 0 0.40 0.25 0.60 0.55 0.40 0.50 -0.30 1.45 0.60 1.45 1.45 0 0.20 -0.80 0.35 -1.75 0.35 -1.60 0 -1.75 -0.10 -1.75 -1.50z"/>
  <path d="M16.65 37.25 c-0.65 -0.45 -1.15 -1.20 -1.15 -1.65 0 -0.60 0.15 -0.65 0.60 -0.20 0.80 0.80 2 0.75 3.60 -0.10 1.25 -0.65 1.25 -0.70 0.30 -0.95 -0.65 -0.15 -1 -0.65 -1 -1.45 0 -1.15 0 -1.15 0.90 0 1.30 1.65 1.70 0.80 0.55 -1.15 -1.45 -2.40 -2.40 -3.10 -2.05 -1.50 0.15 0.90 0 1.25 -0.55 1.25 -0.45 0 -0.95 -0.20 -1.10 -0.50 -0.15 -0.25 -0.90 -0.50 -1.60 -0.50 -1.30 0 -1.30 0.10 -0.45 2.75 0.20 0.55 -0.10 0.15 -0.70 -0.90 -0.55 -1.05 -1.40 -3.70 -1.85 -5.90 -0.55 -2.65 -0.95 -3.80 -1.25 -3.35 -0.35 0.50 -0.60 0.45 -1.15 -0.30 -0.40 -0.55 -0.75 -1.40 -0.75 -1.85 0 -0.70 0.35 -0.80 2 -0.60 1.65 0.25 2 0.15 2 -0.55 0 -0.45 0.20 -0.80 0.50 -0.80 0.25 0 0.35 1 0.20 2.40 -0.25 2.15 -0.20 2.40 1 2.90 0.70 0.35 1.35 0.45 1.55 0.30 0.55 -0.55 0.20 -2.60 -0.45 -2.60 -0.75 0 -1.40 -3.40 -0.70 -3.80 0.20 -0.15 -0.40 -1 -1.30 -1.95 -0.95 -0.95 -1.85 -2.40 -2.05 -3.20 -0.35 -1.65 -0.70 -1.90 -1.65 -0.95 -1 1 -1.15 0.15 -0.35 -2.40 1.35 -4.55 5.35 -7.30 11.65 -8 2.05 -0.25 2.10 -0.25 2.10 1.25 0 0.85 0.20 1.55 0.45 1.55 0.25 0 0.60 0.50 0.70 1.10 0.15 0.85 0.25 0.75 0.30 -0.45 0.05 -1.25 0.30 -1.60 1.20 -1.75 0.60 -0.10 1.50 0.05 2.05 0.35 0.65 0.35 1 0.35 1.15 -0.10 0.35 -1 1.65 -0.10 1.65 1.15 0 0.95 -0.25 1.20 -1.25 1.20 -1.15 0 -1.25 0.20 -1.25 2.25 0 2.05 0.10 2.25 1.25 2.25 1.05 0 1.25 0.25 1.25 1.50 0 0.85 0.25 1.50 0.50 1.50 0.30 0 0.50 -0.85 0.50 -1.85 0.05 -1.90 0.05 -1.90 1.25 -0.50 1.30 1.50 1.60 1.40 0.75 -0.20 -0.40 -0.75 -0.35 -0.95 0.25 -0.95 0.55 0 0.75 0.55 0.75 2.25 0 2.05 -0.10 2.25 -1.25 2.25 -0.80 0 -1.25 0.30 -1.25 0.75 0 1.35 -1.75 0.60 -2.05 -0.85 -0.15 -0.75 -0.40 -0.65 -1.45 0.45 -0.75 0.85 -0.95 1.20 -0.45 1.05 0.45 -0.20 1.15 0.10 1.60 0.65 0.80 0.90 0.75 0.95 -0.40 0.95 -1.10 0 -1.25 0.20 -1.25 1.75 0 1.35 -0.35 1.95 -1.50 2.85 -0.90 0.65 -1.50 1.55 -1.50 2.20 0 1.50 -2.45 4.20 -3.85 4.20 -1.60 0 -1.60 1.85 0 2.10 0.80 0.10 1.05 0.45 1 1.30 -0.15 1.25 0.60 1.50 1.05 0.35 0.45 -1.20 1.30 -0.90 1.30 0.45 0 0.85 -0.70 1.80 -2.15 3 -2.65 2.15 -4.65 2.65 -6.20 1.55z m6.90 -12.20 c-0.35 -0.25 -0.50 -0.70 -0.35 -1 0.20 -0.30 0.05 -0.55 -0.40 -0.55 -1.15 0 -1.40 0.90 -0.45 1.45 1.10 0.65 2.20 0.70 1.20 0.10z m-4.30 -2.45 c-1.25 -1.25 -1.50 -2.55 -0.50 -2.75 0.30 -0.05 0.55 0.40 0.65 1.05 0.20 1.25 1 1.50 1.40 0.40 0.15 -0.40 1.70 -1.40 3.50 -2.30 2.80 -1.35 3.15 -1.70 2.70 -2.50 -0.95 -1.75 -0.60 -3 0.75 -3 1 0 1.25 -0.25 1.25 -1.20 0 -0.65 -0.35 -1.30 -0.75 -1.50 -0.40 -0.15 -0.75 -0.60 -0.75 -1 0 -0.40 -0.80 -1 -1.85 -1.35 -1.50 -0.50 -1.90 -0.45 -2.35 0.15 -0.30 0.40 -1.05 0.90 -1.70 1.10 -0.65 0.20 -2.15 1.35 -3.35 2.55 -2.15 2.05 -2.85 3.85 -1.75 4.50 0.30 0.15 0.50 1.30 0.50 2.50 0 1.60 0.35 2.55 1.30 3.70 0.70 0.85 1.50 1.40 1.75 1.25 0.30 -0.15 -0.10 -0.85 -0.80 -1.60z m-1.95 -13.45 c-0.45 -0.45 -1.10 0.35 -1.55 1.85 -0.35 1.25 -0.35 1.25 0.75 -0.15 0.60 -0.75 0.95 -1.55 0.80 -1.70z m-0.30 -4.85 c0 -0.25 -0.40 -0.10 -0.85 0.25 -1.25 0.95 -1.65 1.55 -1.60 2.45 0 0.80 2.45 -1.90 2.45 -2.70z"/>
  <path d="M19.35 16.15 c1.30 -2.15 2.15 -2.65 4.50 -2.65 1.50 0 2.15 0.20 2.15 0.70 0 0.40 -0.30 0.70 -0.60 0.65 -2.75 -0.10 -4.05 0.30 -5.10 1.40 -1.55 1.65 -2.05 1.60 -0.95 -0.10z"/>
  <path d="M26 31.60 c0 -0.60 0.80 -1.70 1.95 -2.60 1.75 -1.40 3.95 -4.35 5.50 -7.40 1 -1.95 1.25 -0.80 0.30 1.50 -0.45 1.15 -1.95 3.20 -3.30 4.50 -1.85 1.80 -2.45 2.65 -2.20 3.35 0.15 0.55 0.05 1.10 -0.20 1.30 -0.35 0.20 -0.40 -0.05 -0.20 -0.60 0.30 -0.85 0.25 -0.85 -0.75 0.05 -1.10 0.95 -1.10 0.95 -1.10 -0.10z"/>
  <path d="M26.85 26.55 c0.15 -0.65 0.65 -1.05 1.30 -1.05 0.55 0 0.90 0.05 0.80 0.15 -0.10 0.05 -0.70 0.50 -1.30 1.05 -1.05 0.85 -1.05 0.85 -0.80 -0.15z"/>
  <path d="M29.50 24.35 c0 -0.50 0.30 -0.85 0.70 -0.85 0.35 0 0.80 -0.65 1 -1.50 0.15 -0.90 0.60 -1.50 1.05 -1.50 0.70 0 0.70 0.15 0.05 1.40 -0.40 0.75 -1.15 1.80 -1.75 2.30 -0.95 0.85 -1.05 0.85 -1.05 0.15z"/>
  <path d="M32.50 7.75 c0 -1.95 0.70 -2.30 1.50 -0.80 0.80 1.55 0.60 2.55 -0.50 2.55 -0.80 0 -1 -0.35 -1 -1.75z"/>
 </g>
 <g fill="#e6cd9b">
  <path d="M24 38.35 c0 -1.25 0.60 -2.45 2.35 -4.65 1.25 -1.60 2.15 -2.50 1.90 -1.95 -0.20 0.55 -0.45 2.60 -0.55 4.50 -0.10 1.95 -0.05 3.10 0.10 2.65 0.15 -0.50 0.45 -0.90 0.70 -0.90 0.35 0 1 1.15 1 1.80 0 0.10 -1.25 0.20 -2.75 0.20 -2.75 0 -2.75 0 -2.75 -1.65z"/>
  <path d="M17.65 37.65 c-0.90 -0.35 -0.80 -1.65 0.10 -1.65 1.35 0 1.35 -1.35 0 -3.40 -1.45 -2.20 -2.65 -2.90 -3.40 -2.15 -0.35 0.35 -0.35 0.95 0.05 1.80 0.35 0.75 0.40 1.20 0.10 1 -0.25 -0.15 -0.85 -1.55 -1.30 -3.15 -0.50 -1.55 -1.15 -3.20 -1.50 -3.60 -1.05 -1.35 -2.20 -3.90 -2.20 -4.95 0 -0.85 0.30 -1 1.85 -0.90 1.75 0.10 1.90 0.20 1.95 1.75 0.10 1.95 0.10 1.90 1.85 2.35 1.25 0.35 1.35 0.25 1.35 -1.20 0 -1 -0.25 -1.55 -0.70 -1.55 -0.50 0 -0.65 -0.60 -0.60 -2.10 0.10 -1.75 -0.15 -2.40 -1.30 -3.55 -0.75 -0.75 -1.60 -2.30 -1.90 -3.40 -0.55 -2 -1.30 -2.50 -1.80 -1.20 -0.20 0.40 -0.50 0.75 -0.75 0.75 -0.60 0 1 -5.15 1.95 -6.10 1.15 -1.20 3.25 -0.65 2.85 0.65 -0.40 1.25 0.15 1.20 1.70 -0.15 0.70 -0.65 1.15 -0.95 0.95 -0.70 -0.20 0.25 -0.15 0.75 0.15 1.10 0.40 0.50 0.20 1.05 -1 2.20 -0.85 0.85 -1.75 1.45 -2.05 1.25 -0.70 -0.40 -1.85 2.20 -1.20 2.65 0.30 0.20 0.65 0.75 0.85 1.25 0.45 1.25 1.20 1.05 1.60 -0.50 0.35 -1.55 3 -4.75 4.35 -5.25 0.65 -0.30 0.90 -0.90 0.90 -2.45 0 -1.25 0.35 -2.50 0.85 -3.05 0.45 -0.50 0.55 -0.90 0.25 -0.90 -0.30 0 -0.60 0.30 -0.70 0.60 -0.15 0.40 -1.65 0.75 -3.80 0.90 -2 0.15 -3.60 0.20 -3.60 0.15 0 -0.05 1.20 -0.65 2.65 -1.35 3.30 -1.55 7.35 -1.70 8.55 -0.35 0.50 0.50 1.25 0.85 1.75 0.70 0.45 -0.10 1.15 0.15 1.50 0.55 0.85 1.05 1.45 1 1.65 -0.05 0.15 -0.70 0.55 -0.55 2.20 0.95 2.15 1.95 3.20 4.45 3.20 7.60 0 1.65 -0.10 1.80 -1.50 1.80 -1.25 0 -1.50 -0.20 -1.50 -1.20 0 -0.70 -0.25 -1.40 -0.60 -1.60 -0.40 -0.25 -0.45 -0.10 -0.25 0.50 0.20 0.50 0.35 1.30 0.35 1.85 0 0.70 0.35 0.95 1.45 0.95 1.40 0 1.50 0.15 1.80 2.65 0.45 3.60 -1.05 7.35 -4.15 10.40 -1.30 1.25 -3.20 3.35 -4.30 4.65 -1.85 2.30 -6.50 5.85 -7.55 5.75 -0.25 0 -0.80 -0.15 -1.10 -0.30z m3.50 -5.65 c-0.15 -0.90 0 -1.80 0.35 -2.25 0.50 -0.65 0.45 -0.75 -0.45 -0.75 -0.65 0 -1.05 0.30 -1.05 0.90 0 0.70 -0.20 0.60 -1.05 -0.40 -1.05 -1.25 -1.05 -1.25 -0.70 0.20 0.35 1.65 2.25 4.35 2.80 4 0.25 -0.15 0.30 -0.90 0.10 -1.70z m3.35 -0.50 c1.05 0 5.35 -4 7.15 -6.65 1.65 -2.40 2.95 -5.85 2.15 -5.85 -0.15 0 -0.65 0.85 -1.05 1.85 -0.85 2.05 -2.25 3.70 -4.35 5.25 -1.40 0.95 -1.40 0.95 -1.40 -0.55 0 -1.40 0.15 -1.55 1.65 -1.60 1.15 -0.05 1.30 -0.15 0.50 -0.30 -0.75 -0.15 -1.15 -0.60 -1.15 -1.20 0 -0.50 -0.35 -0.95 -0.70 -0.95 -0.50 0 -0.95 1 -1.35 3 -0.35 1.75 -0.85 3 -1.20 3 -0.35 0 -0.90 0.35 -1.25 0.75 -0.90 1.10 0.85 1 2.20 -0.10 0.55 -0.50 0.05 0.25 -1.15 1.70 -1.35 1.60 -2 2.80 -1.75 3.20 0.25 0.45 0.50 0.30 0.75 -0.45 0.25 -0.60 0.65 -1.10 0.95 -1.10z m-8.50 -3 c-2.30 -1.95 -3.25 -1.95 -1.05 0 0.90 0.85 1.95 1.50 2.25 1.50 0.30 0 -0.25 -0.70 -1.20 -1.50z m2 -1.95 c0 -1.35 -0.05 -1.40 -1.25 -0.90 -1.25 0.60 -1.25 0.60 -0.10 1.45 1.40 1.10 1.35 1.15 1.35 -0.55z m3.85 -0.50 c0.15 -0.60 0.55 -0.85 1.15 -0.70 0.70 0.20 0.85 -0.05 0.75 -1.55 -0.15 -1.50 0.10 -1.95 1.60 -3.05 0.95 -0.75 1.60 -1.45 1.45 -1.60 -0.15 -0.15 -0.85 0.20 -1.60 0.80 -0.75 0.55 -1.65 1.05 -2.05 1.05 -0.50 0 -0.60 0.30 -0.40 1 0.25 0.75 0 1.05 -1.05 1.30 -1.10 0.30 -1.60 0.10 -2.55 -1 -0.65 -0.80 -1 -1.60 -0.80 -1.95 0.25 -0.40 0.45 -0.20 0.55 0.55 0.20 1.25 1.35 1.50 1.95 0.40 0.20 -0.40 1.50 -1.25 2.85 -1.85 3.25 -1.60 3.90 -2.60 2.45 -4.05 -1 -1 -1.30 -1.05 -3.50 -0.55 -2.75 0.65 -3 0.60 -1.90 -0.55 0.60 -0.60 1.80 -0.80 4.50 -0.80 4 0 5.10 -0.80 3.25 -2.35 -0.55 -0.50 -1 -1.15 -1 -1.55 0 -0.35 -0.40 -0.80 -0.85 -0.95 -0.75 -0.30 -0.75 -0.35 0.15 -0.70 0.85 -0.35 0.80 -0.40 -0.30 -0.40 -1.95 -0.05 -3.50 0.50 -3.50 1.25 0 0.40 -0.35 0.70 -0.80 0.70 -0.75 0 -0.75 -0.10 0 -1.25 0.90 -1.35 1.05 -2.25 0.30 -2.25 -0.25 0 -0.65 0.80 -0.95 1.75 -0.25 1.05 -1.60 2.85 -3.30 4.50 -2.75 2.75 -2.80 2.85 -2.05 4 0.45 0.65 0.80 2.10 0.80 3.15 0 1.20 0.40 2.45 1.05 3.25 0.55 0.75 0.95 1.65 0.85 2.05 -0.15 0.70 1.40 2.25 2.25 2.30 0.25 0 0.55 -0.40 0.70 -0.95z m9.65 -7.10 c0.55 -0.40 0.60 -0.60 0.15 -0.80 -1.05 -0.40 -0.75 -1.15 0.50 -1.15 1.05 -0.05 1.05 -0.05 -0.25 -1.05 -0.80 -0.55 -1.40 -1.40 -1.40 -1.85 -0.05 -0.75 -0.10 -0.75 -0.70 0.05 -0.35 0.45 -0.90 0.85 -1.25 0.85 -0.30 0 -0.55 0.25 -0.55 0.50 0 0.30 0.45 0.50 1 0.50 0.85 0 0.95 0.15 0.50 0.95 -1.15 2.20 0.05 3.40 2 2z m2.25 -8.25 c-1.15 -1.80 -1.50 -1.20 -0.40 0.70 0.50 0.90 1 1.35 1.05 1.05 0.10 -0.25 -0.20 -1.05 -0.65 -1.75z"/>
 </g>
 <g fill="#f5dfad">
  <path d="M24.20 38.80 c-0.35 -1.35 0.65 -3.55 2.40 -5.15 1.15 -1.10 1.15 -1.10 0.70 2.65 -0.45 3.40 -0.60 3.70 -1.65 3.70 -0.80 0 -1.20 -0.35 -1.45 -1.20z"/>
  <path d="M17.65 36.90 c0.05 -0.35 0.45 -0.90 0.85 -1.25 0.65 -0.50 0.60 -0.80 -0.40 -2.55 -0.80 -1.50 -0.95 -2 -0.40 -1.90 1 0.15 2.30 1.30 2.30 2.10 0 0.40 0.20 0.70 0.45 0.70 1.20 0 0.95 -1.15 -0.70 -3.40 -0.95 -1.35 -1.75 -2.80 -1.75 -3.25 0 -1.25 1 -1.55 2.05 -0.55 0.90 0.80 1 0.80 1.85 0.05 0.50 -0.50 1.20 -0.85 1.55 -0.85 0.40 0 0.55 -0.40 0.40 -1 -0.15 -0.55 -0.05 -1 0.25 -1 0.25 0 0.35 -0.45 0.15 -0.95 -0.20 -0.70 0.20 -1.35 1.50 -2.40 1.70 -1.35 2.30 -2.65 1.20 -2.65 -0.25 0 -0.35 -0.25 -0.15 -0.55 0.15 -0.30 0 -1.10 -0.35 -1.80 -0.60 -1.15 -0.90 -1.25 -3.05 -1 -1.35 0.20 -2.40 0.10 -2.40 -0.10 0 -0.75 1.45 -1.05 4.80 -1.05 2.55 0 3.30 -0.20 3.55 -0.85 0.20 -0.50 -0.05 -1.10 -0.65 -1.60 -0.55 -0.45 -1 -1 -1.05 -1.30 0 -0.70 -2.15 -1.75 -3.50 -1.75 -0.85 0 -1.15 -0.30 -1.15 -1.05 0 -0.60 -0.40 -1.15 -1 -1.30 -1.35 -0.35 -1.25 -1.30 0.20 -3 1.20 -1.40 1.20 -1.40 2.45 -0.20 0.70 0.60 1.50 1 1.75 0.85 0.25 -0.15 0.75 0.05 1.10 0.45 0.75 0.90 1.85 0.95 2.15 0.15 0.35 -1.05 2.95 1.15 4.25 3.65 1.05 2 1.15 2.70 1 7.95 -0.15 4.85 -0.40 6.10 -1.35 7.95 -1.25 2.40 -2.45 3.80 -2.85 3.40 -0.15 -0.10 0.35 -0.90 1.05 -1.75 1.35 -1.60 2.30 -4.10 2.20 -5.85 0 -0.65 -0.45 -0.15 -1.20 1.40 -0.75 1.60 -2.70 3.90 -5.70 6.70 -2.65 2.50 -4.55 4.65 -4.55 5.20 0 1.25 0.85 1.20 1.25 -0.05 0.20 -0.55 0.50 -0.90 0.75 -0.75 0.25 0.15 1.40 -0.55 2.50 -1.55 2.05 -1.90 2.05 -1.90 1.05 -0.15 -1.90 3.15 -7.20 7.45 -9.25 7.45 -0.75 0 -1.25 -0.25 -1.15 -0.60z m15.35 -20.35 c0 -0.25 -0.45 -0.55 -1.05 -0.70 -0.55 -0.15 -1.15 -0.75 -1.30 -1.30 -0.35 -1.30 -0.30 -1.30 -1.95 0.20 -1.35 1.25 -1.35 1.25 0 1.25 0.70 0 1.30 0.25 1.30 0.50 0 0.30 0.70 0.50 1.50 0.50 0.85 0 1.50 -0.20 1.50 -0.45z m0.75 -6.05 c-1.15 -2.25 -1.60 -1.45 -0.50 0.85 0.50 1.05 1 1.65 1.10 1.30 0.10 -0.30 -0.15 -1.30 -0.60 -2.15z"/>
  <path d="M15.85 27.90 c-1.45 -1.25 -1.75 -1.80 -1.35 -2.40 0.40 -0.65 0.50 -0.65 0.50 0.10 0 0.50 0.45 1.10 1 1.40 0.85 0.45 2.35 2.50 1.85 2.50 -0.10 0 -1 -0.75 -2 -1.60z"/>
  <path d="M15.75 25.50 c-0.15 -0.25 -0.05 -0.50 0.20 -0.50 0.30 0 0.55 -0.85 0.55 -1.85 0.05 -1.90 0.05 -1.90 1.25 -0.40 1.20 1.45 1.20 1.50 0.25 1.65 -0.55 0.10 -1 0.50 -1 0.90 0 0.80 -0.80 0.95 -1.25 0.20z"/>
  <path d="M15.15 17.25 c-0.35 -0.40 -0.50 -1.05 -0.30 -1.55 0.25 -0.70 0.40 -0.65 1.20 0.35 0.50 0.65 0.95 1.35 0.95 1.60 0 0.60 -1.20 0.35 -1.85 -0.40z"/>
  <path d="M15.50 14.20 c0 -0.95 3.50 -5.10 4.55 -5.35 1 -0.25 1.20 0.05 0.55 0.90 -1 1.35 -5.10 4.90 -5.10 4.45z"/>
  <path d="M15.10 8.40 c0.25 -0.75 1.40 -0.90 1.45 -0.15 0 0.30 -0.35 0.60 -0.85 0.65 -0.50 0.15 -0.75 -0.05 -0.60 -0.50z"/>
  <path d="M17.20 2.40 c1.60 -0.80 2.20 -0.90 2.90 -0.45 0.55 0.35 0.90 0.35 0.90 0.05 0 -0.25 0.25 -0.50 0.60 -0.50 0.30 0 0.15 0.45 -0.35 1 -0.70 0.75 -1.50 1 -3.45 1 -2.55 -0.05 -2.55 -0.05 -0.60 -1.10z"/>
 </g>
 <g fill="#fdf1c3">
  <path d="M28 39.20 c0 -0.85 1.10 -0.70 1.40 0.20 0.10 0.35 -0.15 0.60 -0.60 0.60 -0.45 0 -0.80 -0.35 -0.80 -0.80z"/>
  <path d="M25.70 36.60 c-0.70 -0.45 -0.15 -2.10 1.10 -3.10 0.80 -0.70 0.85 -0.65 0.55 0.50 -0.20 0.70 -0.35 1.65 -0.35 2.15 0 0.90 -0.40 1.05 -1.30 0.45z"/>
  <path d="M20.80 35.05 c-0.30 -0.50 1 -2.40 1.40 -2.05 0.35 0.40 -0.25 2.50 -0.75 2.50 -0.20 0 -0.50 -0.20 -0.65 -0.45z"/>
  <path d="M23.50 33.40 c0 -0.35 0.20 -0.95 0.45 -1.35 0.55 -0.85 1.25 0.15 0.85 1.20 -0.35 0.90 -1.30 1 -1.30 0.15z"/>
  <path d="M30.95 22.15 c0.25 -0.50 0.85 -1.35 1.30 -1.90 0.85 -1 0.85 -1 0.50 0 -0.20 0.55 -0.50 1.40 -0.60 1.90 -0.15 0.45 -0.60 0.85 -1 0.85 -0.50 0 -0.55 -0.25 -0.20 -0.85z"/>
  <path d="M28.35 20.15 c-0.65 -0.65 -0.35 -3.55 0.40 -3.80 0.40 -0.20 0.85 -0.10 1 0.15 0.20 0.30 0.90 0.50 1.65 0.55 1.25 0.05 1.15 0.10 -0.85 0.75 -0.50 0.15 -0.55 0.35 -0.05 0.95 0.30 0.40 0.45 0.95 0.25 1.25 -0.35 0.55 -1.90 0.70 -2.40 0.15z"/>
  <path d="M33.80 17.75 c-0.15 -0.45 -0.05 -1.90 0.25 -3.30 0.40 -1.90 0.40 -2.90 -0.10 -4.10 -0.60 -1.60 -2.85 -4.35 -3.50 -4.35 -0.55 0 -1.10 2.15 -0.95 4 0.10 1.50 0 1.65 -0.70 1.05 -0.45 -0.35 -0.80 -0.90 -0.80 -1.20 0 -0.70 -1.60 -1.80 -2.60 -1.85 -0.85 0 -0.85 -0.05 -0.05 -1 0.50 -0.55 1.15 -1 1.50 -1 1 0 0.75 -0.80 -0.45 -1.65 -1.10 -0.75 -1.10 -0.80 -0.15 -0.80 0.55 0 1.45 0.30 1.95 0.70 0.70 0.55 1.15 0.60 1.60 0.20 0.90 -0.75 2.40 0.15 3.75 2.40 0.95 1.55 1.20 2.75 1.35 6.75 0.15 3.10 0.05 4.90 -0.30 4.90 -0.25 0 -0.65 -0.35 -0.80 -0.75z"/>
 </g>
</svg>