<?xml version="1.0" encoding="utf-8"?>
<!DOCTYPE svg PUBLIC "-//W3C//DTD SVG 1.0//EN" "http://www.w3.org/TR/2001/REC-SVG-20010904/DTD/svg10.dtd">
<svg version="1.0" xmlns="http://www.w3.org/2000/svg" width="40px" height="40px" viewBox="0 0 40 40" preserveAspectRatio="xMidYMid meet">
 <g fill="#151425">
  <path d="M2.50 38.75 c0 -0.70 0.30 -1.25 0.70 -1.25 0.45 0 0.75 -1.10 0.95 -4.10 0.25 -3.65 0.65 -5.70 2.10 -10.25 0.30 -1 0.20 -1.15 -1.05 -1.15 -1.15 0 -1.60 0.35 -2.10 1.50 -0.90 2 -3.10 2.15 -3.10 0.20 0 -0.70 0.20 -1.15 0.40 -1 0.20 0.10 1 -0.75 1.70 -1.95 l1.35 -2.20 -1.20 -0.75 c-0.70 -0.45 -1.45 -0.80 -1.75 -0.80 -0.25 0 -0.50 -0.75 -0.50 -1.70 0 -1.35 0.25 -1.75 1.20 -2 0.85 -0.20 1.40 -0.90 1.95 -2.65 0.45 -1.30 0.65 -2.50 0.55 -2.65 -0.15 -0.15 -1.05 0.60 -2 1.60 l-1.70 1.90 0 -1.70 c0 -0.90 0.35 -1.95 0.75 -2.30 0.95 -0.80 0.95 -1.55 0 -1.20 -0.50 0.20 -0.75 0 -0.75 -0.75 0 -0.85 0.30 -1.05 1.75 -1.05 1.20 0 1.75 0.25 1.75 0.75 0 0.45 0.45 0.75 1.25 0.75 0.80 0 1.25 0.30 1.25 0.75 0 0.40 0.45 0.75 1 0.75 0.55 0 1 -0.30 1 -0.65 0 -1.15 1.75 -2.35 3.40 -2.35 1.50 0 1.60 0.10 1.60 1.80 l0 1.75 1.30 -1 c1.90 -1.50 6.20 -1.30 6.20 0.30 0 1.15 4.20 0.65 4.40 -0.50 0.35 -1.70 -0.35 -3.35 -1.40 -3.35 -0.80 0 -1 -0.35 -1 -1.75 l0 -1.75 2.70 0 c3.10 0 3.30 0.30 3.30 5.15 0 2.70 0.05 2.85 1.25 2.85 0.95 0 1.30 0.35 1.70 1.60 0.25 0.90 0.50 1.25 0.50 0.80 0.05 -0.60 0.45 -0.90 1.30 -0.90 0.90 0 1.25 -0.25 1.25 -1 0 -0.80 0.35 -1 1.70 -1 1.65 0 1.70 0.05 2 2.60 0.85 6.45 0.90 6.90 0.35 6.90 -0.30 0 -0.55 0.35 -0.55 0.75 0 0.40 0.30 0.75 0.65 0.75 0.90 0 1.60 14.85 0.75 15.85 -0.30 0.35 -1.25 0.65 -2.20 0.65 -1.45 0 -1.65 -0.15 -1.80 -1.60 l-0.15 -1.55 -2.95 3.50 c-3.05 3.75 -3.90 4.15 -8.45 4.15 -3.10 0 -5.80 -2 -8.85 -6.50 -0.65 -0.95 -2.15 -2.90 -3.30 -4.35 l-2.05 -2.55 -0.60 1.85 c-1.10 3.75 -1.25 6.45 -0.35 7.30 0.45 0.45 0.80 1.15 0.80 1.55 0 0.40 0.25 0.70 0.50 0.70 0.30 0 0.50 0.55 0.50 1.25 0 2 -1.30 1.50 -2.85 -1.10 -1.15 -1.95 -1.40 -2.20 -1.65 -1.40 -0.65 2.20 -1.70 3.75 -2.60 3.75 -0.65 0 -0.90 -0.35 -0.90 -1.25z m23.75 -5.75 c0.15 -0.25 -0.15 -0.50 -0.70 -0.50 -0.60 0 -1.05 0.25 -1.05 0.50 0 0.30 0.30 0.50 0.70 0.50 0.40 0 0.90 -0.20 1.05 -0.50z m-2.25 -3 c0 -1.25 -0.20 -1.50 -1.25 -1.50 -1.10 0 -1.25 -0.20 -1.25 -1.75 0 -1.95 0 -1.95 4.40 -1.45 l2.60 0.35 0 1.90 c0 1.10 -0.20 1.95 -0.50 1.95 -0.25 0 -0.50 0.45 -0.50 1.05 0 1 0 1 1.40 -0.15 0.75 -0.60 2.05 -1.95 2.95 -2.90 l1.55 -1.75 -1.95 0.15 -1.95 0.20 0 -4.30 0 -4.30 1.75 0 c1.55 0 1.75 0.15 1.80 1.40 0 0.75 0.15 1.05 0.30 0.75 0.10 -0.35 0.85 -0.70 1.55 -0.70 0.85 -0.05 1.05 -0.15 0.50 -0.30 -0.50 -0.10 -0.90 -0.55 -0.90 -0.95 0 -0.40 -0.50 -0.70 -1.25 -0.70 -0.90 0 -1.25 -0.25 -1.25 -1 0 -0.75 -0.35 -1 -1.25 -1 -0.95 0 -1.25 0.25 -1.25 1.05 0 2.20 -1.75 2.95 -6.85 2.95 -2.60 0 -5.10 -0.20 -5.55 -0.45 -0.45 -0.20 -1.85 -0.55 -3 -0.75 l-2.20 -0.35 0.35 2.15 c0.40 2.35 1.60 4.70 3.25 6.15 0.90 0.85 1 0.85 1 0.05 0 -0.70 0.40 -0.85 1.90 -0.70 1.80 0.15 1.85 0.20 2 2.30 0.10 1.65 0 2.10 -0.65 2.10 -0.65 0 -0.70 0.20 -0.25 1 0.40 0.75 1.05 1 2.50 1 1.90 0 2 -0.10 2 -1.50z m-1.80 -15.25 c0.90 -0.70 0.90 -0.75 -0.40 -1.30 -1.70 -0.80 -2.85 0.05 -1.80 1.30 0.75 0.90 1 0.90 2.20 0z"/>
  <path d="M19.50 21.85 c0 -1.85 0.75 -2.35 3.65 -2.35 1.30 0 1.40 0.10 1.25 1.90 -0.15 1.85 -0.15 1.85 -2.50 2 l-2.40 0.15 0 -1.70z"/>
  <path d="M36 1 c0 -0.80 0.35 -1 1.75 -1 1.40 0 1.75 0.20 1.75 1 0 0.80 -0.35 1 -1.75 1 -1.40 0 -1.75 -0.20 -1.75 -1z"/>
 </g>
 <g fill="#0a581e">
  <path d="M21.35 35.15 c-0.65 -0.60 -0.35 -1.15 0.70 -1.15 0.60 0 0.85 -0.20 0.70 -0.55 -0.20 -0.30 -0.95 -0.35 -1.80 -0.20 -1.20 0.25 -1.70 0.10 -2.50 -0.80 -0.50 -0.60 -0.95 -1.40 -0.95 -1.75 0 -0.35 -0.35 -1 -0.80 -1.45 -0.65 -0.60 -0.75 -1.35 -0.50 -3.15 0.15 -1.30 0.60 -2.60 0.95 -2.90 0.30 -0.35 2.40 -0.75 4.60 -0.90 3.95 -0.30 4 -0.30 5.65 1.20 1.40 1.35 1.60 1.90 1.60 4.05 0 1.85 -0.20 2.45 -0.75 2.45 -0.50 0 -0.75 0.50 -0.75 1.55 0 1.50 -0.95 2.95 -1.95 2.95 -0.30 0 -0.55 0.25 -0.55 0.50 0 0.55 -3.15 0.70 -3.65 0.15z m2.15 -5.15 c0 -0.25 0.45 -0.50 1 -0.50 1.30 0 1.25 -0.60 -0.10 -1.85 -2.55 -2.30 -4.75 -1.70 -3.35 0.95 0.85 1.65 2.45 2.55 2.45 1.40z"/>
  <path d="M20.50 18.50 c0 -0.25 -0.80 -0.50 -1.75 -0.50 -1.65 0 -1.75 -0.10 -1.75 -1.75 0 -1.65 0.10 -1.75 1.75 -1.75 0.95 0 1.75 0.25 1.75 0.50 0 0.30 0.80 0.50 1.85 0.50 l1.80 0 -0.95 1.10 c-0.75 0.95 -0.80 1 -0.05 0.45 0.75 -0.60 0.85 -0.55 0.85 0.65 0 1.15 -0.20 1.30 -1.75 1.30 -0.95 0 -1.75 -0.20 -1.75 -0.50z"/>
  <path d="M22.40 13.90 c-0.15 -0.35 -1.20 -0.55 -2.85 -0.45 l-2.60 0.05 1.05 -1.10 c0.70 -0.75 1.55 -1.10 2.75 -1.05 1.75 0.05 5.25 1.85 5.25 2.70 0 0.65 -3.40 0.55 -3.60 -0.15z"/>
  <path d="M17 11.30 c0 -0.65 1.40 -1.80 2.20 -1.80 0.75 0 0.20 0.95 -0.95 1.70 -1.05 0.70 -1.25 0.70 -1.25 0.10z"/>
  <path d="M23.75 11.15 c-1.30 -0.75 -1.35 -0.90 -0.50 -1.05 0.50 -0.10 1.05 0.05 1.15 0.35 0.10 0.30 0.50 0.55 0.90 0.55 0.40 0 0.70 0.25 0.70 0.50 0 0.70 -0.50 0.60 -2.25 -0.35z"/>
 </g>
 <g fill="#69140a">
  <path d="M18.45 31.95 c-1.15 -1.65 -1.35 -4.90 -0.25 -4 0.60 0.50 0.75 0.30 0.90 -1.30 0.15 -1.80 0.25 -1.90 2 -2.05 2.30 -0.20 4.80 1.05 5.40 2.65 0.65 1.75 1.20 1.55 0.85 -0.25 -0.35 -1.55 0.30 -2.10 0.85 -0.70 0.80 2.05 -0.60 6.20 -2.05 6.20 -0.35 0 -0.65 0.20 -0.65 0.45 0 0.25 -1.35 0.40 -3.05 0.40 -2.70 -0.10 -3.15 -0.25 -4 -1.40z"/>
  <path d="M15.50 15.15 c0 -1.40 0.15 -1.70 0.50 -1.15 0.30 0.50 0.50 0.55 0.50 0.15 0 -0.35 0.55 -0.65 1.25 -0.65 0.95 0 1.25 0.25 1.25 1.05 0 0.55 -0.30 1.35 -0.70 1.75 -0.40 0.40 -1.20 0.70 -1.75 0.70 -0.90 0 -1.05 -0.30 -1.05 -1.85z"/>
 </g>
 <g fill="#272a55">
  <path d="M3.20 38.25 c0.35 -2 0.60 -3.75 1.40 -9.90 0.30 -2.40 0.75 -4.50 0.95 -4.65 0.85 -0.50 0.45 -1.20 -0.65 -1.20 -1.20 0 -2.70 -2.25 -1.85 -2.80 0.75 -0.45 0.50 -1.70 -0.30 -1.70 -0.40 0 -0.75 -0.20 -0.75 -0.50 0 -0.25 -0.45 -0.50 -1 -0.50 -1.35 0 -1.40 -2.75 -0.05 -3.45 0.50 -0.30 1.05 -0.40 1.20 -0.25 0.15 0.15 0.40 -0.20 0.60 -0.75 0.15 -0.60 0.55 -1.05 0.85 -1.05 0.25 0 0.40 0.35 0.20 0.75 -0.15 0.50 0.05 0.75 0.65 0.75 0.50 0 1.05 -0.35 1.25 -0.75 0.15 -0.40 0.50 -0.75 0.85 -0.75 0.30 0 0.45 0.35 0.25 0.75 -0.15 0.40 0 0.75 0.35 0.75 0.35 0 0.90 -0.75 1.25 -1.65 0.85 -2.35 0.75 -2.65 -0.45 -1.55 -1 0.90 -1 0.90 -0.85 -1.05 0.15 -1.85 0.25 -2 1.85 -2.15 1.55 -0.15 1.65 -0.10 1.10 0.60 -0.90 1.05 -0.15 1.05 1.05 -0.05 0.85 -0.75 0.90 -0.70 0.90 0.85 0 1.35 0.15 1.55 0.60 1.10 0.35 -0.35 1.15 -0.60 1.85 -0.60 1.15 0 0.95 0.35 -2.25 3.65 -1.90 1.95 -3.95 4.15 -4.45 4.85 l-1 1.25 1.50 -1.25 c0.80 -0.70 1.60 -1.45 1.70 -1.70 0.45 -1.10 4.30 -4.85 5.50 -5.45 0.80 -0.35 1.50 -1.25 1.80 -2.30 0.30 -0.95 1.60 -2.95 2.95 -4.40 2.25 -2.50 2.55 -2.65 4.80 -2.65 2.15 0 2.45 0.15 3 1.50 0.35 0.80 0.65 3.55 0.70 6.05 0 2.55 0.10 4.25 0.20 3.80 0.10 -0.50 0.35 -0.85 0.60 -0.85 0.25 0 0.35 -0.35 0.20 -0.75 -0.20 -0.50 0 -0.75 0.75 -0.75 0.80 0 1.05 0.35 1.10 1.40 0.05 0.85 0.15 1.05 0.30 0.45 0.20 -0.70 0.65 -0.85 2.30 -0.75 2.05 0.15 2.10 0.20 2.10 2 0 1 0.30 2.15 0.70 2.50 0.55 0.55 0.60 0.45 0.30 -0.50 -0.30 -1 -0.20 -1.15 0.60 -1 1.35 0.25 1.60 5.20 0.30 5.55 -0.85 0.20 -0.85 0.25 0 0.30 0.95 0.05 1.10 2.20 0.35 4.55 -0.30 1 -0.40 0.65 -0.50 -1.50 l-0.05 -2.75 -1.10 3.20 c-1.05 3 -4 7.25 -5.95 8.50 -0.80 0.50 -0.90 0.35 -0.90 -0.95 0 -1.35 0.15 -1.50 1.50 -1.50 1.35 0 1.50 -0.15 1.50 -1.50 0 -0.80 -0.20 -1.50 -0.50 -1.50 -0.25 0 -0.50 -0.75 -0.50 -1.70 0 -1.95 -0.95 -3 -1.05 -1.20 -0.05 0.85 -0.15 0.90 -0.30 0.30 -0.10 -0.50 -0.40 -0.90 -0.60 -0.90 -0.25 0 -0.55 -0.90 -0.70 -2.05 -0.35 -2.50 -0.60 -2.80 -1.60 -1.75 -0.45 0.45 -1.35 0.80 -2.05 0.80 -1.05 0 -1.20 0.20 -1.20 2 0 2.10 -0.90 3 -3.10 3 -2.10 -0.05 -2.90 -1.15 -2.90 -4 0 -2.15 -0.15 -2.55 -0.80 -2.30 -0.45 0.15 -1.80 0.30 -3 0.30 -2 0 -2.20 0.10 -2.20 1.25 0 1.50 1 3.85 1.85 4.40 0.35 0.20 0.65 1.05 0.65 1.85 0 1.25 0.20 1.50 1.15 1.50 1.60 0 2.85 1.50 2.85 3.35 0 1.55 0 1.55 3 1.75 1.65 0.05 3 0 3 -0.20 0 -0.25 0.75 -0.40 1.70 -0.40 2.05 0 2.60 1.05 1.25 2.30 -0.95 0.85 -1.35 3.20 -0.55 3.20 0.20 0 1.70 -1.60 3.35 -3.55 3 -3.55 5.50 -5.95 6.25 -5.95 0.25 0 0.55 0.60 0.65 1.40 0.20 1.25 0.20 1.25 0.30 -0.25 0.05 -1.30 0.25 -1.65 1.05 -1.65 0.90 0 1 0.35 1 2.70 0 4.15 -0.60 5.30 -2.75 5.30 -0.95 0 -1.75 -0.20 -1.75 -0.45 0 -0.25 -0.95 0.10 -2.10 0.75 -1.20 0.65 -2.55 1.35 -3 1.50 -0.55 0.20 -0.90 0.80 -0.90 1.50 l0 1.20 -6.55 0 -6.55 0 0.25 -1.35 c0.15 -0.80 0.45 -2 0.65 -2.75 0.25 -1.20 0.15 -1.40 -0.75 -1.40 -0.60 0 -1.05 -0.30 -1.05 -0.75 0 -0.40 -0.20 -0.75 -0.50 -0.75 -0.25 0 -0.50 -0.35 -0.50 -0.75 0 -0.40 -0.20 -0.75 -0.50 -0.75 -0.25 0 -0.50 -0.55 -0.50 -1.20 0 -0.90 -0.30 -1.25 -1.10 -1.40 -0.75 -0.10 -1.20 -0.55 -1.30 -1.25 -0.40 -2.75 -2.60 0.45 -2.60 3.80 0 0.55 -0.20 1.05 -0.50 1.05 -0.25 0 -0.50 0.35 -0.50 0.75 0 0.40 0.25 0.75 0.50 0.75 0.30 0 0.50 0.80 0.50 1.75 0 1.95 -0.30 2.15 -1.30 0.90 -1.10 -1.45 -0.85 -5.75 0.50 -10.65 0.25 -1 0.25 -1.05 -0.15 -0.45 -0.85 1.35 -2.05 7.80 -1.75 9.40 0.30 1.40 -0.35 3.15 -1.60 4.40 -1.05 1.05 -1.35 0.75 -1 -1.10z m22.70 -1.95 c0.20 -1.45 0 -1.55 -1.35 -0.75 -1.80 1.15 -3.45 0.05 -8.30 -5.65 -2.65 -3.10 -4.90 -6.20 -5.05 -6.90 -0.50 -2.20 -1.20 -3.45 -0.85 -1.50 0.30 2 0.95 3.15 4.40 7.80 5.20 6.95 7.25 8.75 9.70 8.50 1 -0.10 1.35 -0.45 1.45 -1.50z m-2.65 -2.80 c-0.15 -0.25 -0.75 -0.50 -1.30 -0.50 -0.50 0 -0.95 0.25 -0.95 0.50 0 0.30 0.60 0.50 1.30 0.50 0.70 0 1.15 -0.20 0.95 -0.50z m11.95 -11.75 l0.30 -1.50 -0.75 1.25 c-0.40 0.70 -0.70 1.60 -0.75 2 0 1.15 0.85 -0.10 1.20 -1.75z m-29.25 -1.95 c0.55 -0.70 0.30 -0.75 -1.35 -0.35 -0.20 0.05 0.40 1.05 0.60 1.05 0.10 0 0.45 -0.30 0.75 -0.70z m4.50 -2.15 c-0.05 -0.85 -0.15 -1.05 -0.30 -0.50 -0.10 0.45 -0.60 0.85 -1.05 0.85 -0.75 0 -0.75 0.10 -0.10 0.50 1.20 0.80 1.50 0.60 1.45 -0.85z m8.80 -0.95 c-0.45 -0.45 -0.95 -0.65 -1.15 -0.50 -0.15 0.20 0 0.55 0.40 0.80 1.20 0.75 1.65 0.55 0.75 -0.30z m5.25 -0.45 c2.55 -1.60 3.65 -1.60 1.85 0 -0.75 0.70 -1.20 1.25 -0.95 1.25 0.25 0 0.90 -0.40 1.45 -0.90 0.85 -0.70 0.95 -1.20 0.65 -2.85 -0.20 -1.10 -0.40 -1.55 -0.45 -1 -0.05 0.90 -0.15 0.90 -0.70 0.20 -0.35 -0.45 -1.35 -1.15 -2.20 -1.65 -0.90 -0.45 -1.65 -1.05 -1.65 -1.30 0 -0.30 -0.55 -0.50 -1.20 -0.50 -1.30 0 -5.30 3.25 -5.30 4.30 0 0.35 0.70 -0.05 1.60 -0.85 1.40 -1.40 1.80 -1.55 3.80 -1.30 1.20 0.15 2.35 0.45 2.55 0.70 0.15 0.25 0.70 0.60 1.20 0.80 1.45 0.55 0.95 1.70 -1.25 3.05 -1.20 0.70 -2 1.25 -1.75 1.30 0.20 0 1.25 -0.55 2.35 -1.25z m-18.50 0.35 c0 -0.25 -0.35 -0.85 -0.75 -1.40 -0.70 -0.90 -0.70 -0.90 -0.75 0.45 0 0.85 0.25 1.35 0.75 1.35 0.40 0 0.75 -0.20 0.75 -0.40z m9.20 -0.85 c-0.35 -0.85 -1 -1 -1.45 -0.30 -0.15 0.25 0.15 0.60 0.60 0.70 0.50 0.15 0.95 0.25 1 0.30 0.05 0 0 -0.30 -0.15 -0.70z m7.30 -0.60 c1.35 -1.15 1.25 -1.85 -0.30 -2.60 -1.10 -0.45 -1.55 -0.45 -2.45 0.15 -1.05 0.70 -1.10 0.90 -0.60 2.05 0.70 1.45 1.95 1.60 3.35 0.40z m-3.60 -6.90 c-0.15 -0.15 -0.65 0.35 -1.15 1.10 l-0.85 1.40 1.15 -1.10 c0.60 -0.60 1 -1.25 0.85 -1.40z m8.10 0.85 c0 -0.50 -0.20 -0.55 -0.60 -0.25 -0.35 0.30 -1 0.65 -1.40 0.80 -0.40 0.15 -0.15 0.25 0.65 0.20 0.80 -0.05 1.35 -0.35 1.35 -0.75z m-2.95 -1.85 c-0.05 -0.75 -1.20 -0.60 -1.45 0.15 -0.15 0.45 0.10 0.65 0.60 0.50 0.50 -0.05 0.85 -0.35 0.85 -0.65z m2.20 -5.75 c-0.15 -0.25 -0.60 -0.50 -1 -0.50 -0.40 0 -0.85 0.25 -1 0.50 -0.20 0.30 0.25 0.50 1 0.50 0.75 0 1.20 -0.20 1 -0.50z"/>
  <path d="M22.80 27.75 c0.80 -1.20 0.75 -1.25 -0.35 -1.70 -1.10 -0.45 -1 -0.50 0.70 -0.50 1.80 -0.05 1.85 0 1.85 1.70 0 1.60 -0.10 1.75 -1.50 1.75 -1.50 0 -1.50 0 -0.70 -1.25z"/>
  <path d="M27.25 26.55 c-0.15 -0.55 -0.60 -1.10 -1 -1.25 -0.40 -0.15 -0.75 -0.60 -0.75 -1.05 0 -0.55 0.50 -0.75 1.75 -0.75 1.70 0 1.75 0.05 1.75 2 0 2.15 -1.15 2.85 -1.75 1.05z"/>
  <path d="M0 24.75 c0 -0.45 0.45 -1.25 1 -1.85 l1 -1.10 0 1.85 c0 1.50 -0.20 1.85 -1 1.85 -0.55 0 -1 -0.35 -1 -0.75z"/>
 </g>
 <g fill="#56403a">
  <path d="M36 33 c0 -0.55 0.25 -1 0.50 -1 0.30 0 0.50 0.45 0.50 1 0 0.55 -0.20 1 -0.50 1 -0.25 0 -0.50 -0.45 -0.50 -1z"/>
  <path d="M37.90 33.15 c0.30 -0.50 0.90 -1.35 1.30 -1.90 0.80 -0.95 0.80 -0.95 0.70 0.75 -0.10 1.40 -0.40 1.80 -1.30 1.90 -1 0.15 -1.10 0.05 -0.70 -0.75z"/>
  <path d="M18.30 32.20 c-0.50 -1.25 -0.35 -3.70 0.20 -3.70 0.30 0 0.50 0.40 0.50 0.90 0 0.50 0.45 1.25 1 1.75 1.25 1.05 1.85 1.10 1 0.10 -0.55 -0.65 -0.40 -1.05 1 -2.50 1.55 -1.60 1.65 -2.75 0.20 -2.75 -0.40 0 -0.70 -0.35 -0.70 -0.80 0 -0.65 0.35 -0.75 1.60 -0.50 0.85 0.15 1.95 0.65 2.45 1.10 0.80 0.70 0.80 0.85 0.05 2.25 -0.60 1.05 -1.25 1.45 -2.20 1.45 -1.25 0 -1.40 0.20 -1.40 1.75 0 1.65 -0.10 1.75 -1.70 1.75 -1.10 0 -1.80 -0.30 -2 -0.80z"/>
  <path d="M37.70 31.05 c0.15 -0.90 0.30 -2.30 0.30 -3.10 0 -1.10 0.25 -1.45 1 -1.45 0.75 0 1 0.35 1 1.25 0 0.70 -0.20 1.25 -0.50 1.25 -0.25 0 -0.50 0.40 -0.50 0.90 0 0.50 -0.35 1.35 -0.80 1.90 -0.75 0.90 -0.75 0.85 -0.50 -0.75z"/>
  <path d="M36.20 30.25 c0 -0.70 0.30 -1.35 0.60 -1.45 0.30 -0.10 0.45 0.35 0.30 1.25 -0.25 1.75 -1 1.95 -0.90 0.20z"/>
  <path d="M27.50 27.50 c-0.05 -0.70 -0.10 -1.55 -0.05 -1.85 0.05 -0.35 -0.25 -0.50 -0.65 -0.35 -0.40 0.15 -0.85 0.05 -1.05 -0.25 -0.15 -0.35 0.10 -0.55 0.75 -0.55 1.20 0 1.65 0.90 1.35 2.85 -0.20 1.35 -0.20 1.35 -0.35 0.15z"/>
  <path d="M29.75 23.40 c-0.10 -0.35 -0.25 -2.05 -0.40 -3.80 -0.10 -1.75 -0.45 -3.35 -0.75 -3.55 -0.45 -0.25 -0.35 -0.65 0.20 -1.50 0.65 -0.90 0.90 -1 1.25 -0.50 0.65 1 0.60 -0.30 -0.10 -2.75 -0.40 -1.45 -0.65 -1.80 -1 -1.25 -0.25 0.40 -0.45 1.25 -0.45 1.95 0 0.70 -0.25 1.60 -0.50 2 -0.35 0.50 -0.50 -0.45 -0.50 -3.10 l0 -3.90 1.75 0 c1.15 0 1.75 0.25 1.75 0.70 0 0.45 0.40 0.60 1.30 0.40 0.85 -0.15 1.15 -0.45 1 -0.95 -0.15 -0.40 -0.30 -0.85 -0.30 -0.95 0 -0.10 -0.50 -0.20 -1.15 -0.20 -0.80 0 -1.40 -0.50 -2 -1.60 l-0.80 -1.65 0 1.90 c-0.05 1.50 -0.25 1.85 -1.05 1.85 -0.80 0 -1 -0.35 -1 -1.65 0 -1.90 -0.40 -2.55 -1.20 -1.90 -0.30 0.25 -1.10 0.60 -1.80 0.80 -1.10 0.35 -1.15 0.30 -0.55 -0.45 0.35 -0.45 1.10 -0.80 1.60 -0.80 1.20 0 1.70 -0.95 0.75 -1.30 -0.55 -0.20 -1.55 0.55 -3.10 2.25 -2.70 3.05 -3.70 3.25 -3.70 0.85 0 -1.30 0.35 -2.05 1.55 -3 1.45 -1.25 1.80 -1.30 7.25 -1.30 4.20 0 5.70 0.15 5.70 0.65 0 0.45 0.10 0.45 0.40 0 0.25 -0.40 1.50 -0.60 3.25 -0.60 l2.85 0.05 0 2.45 c0 2.35 -0.05 2.45 -1.45 2.45 -1.55 0 -1.55 -0.55 0.05 6.50 0.25 1.25 0.60 4 0.75 6.15 0.25 3.35 0.20 3.85 -0.55 3.85 -0.45 0 -0.80 -0.40 -0.85 -0.85 0 -0.60 -0.30 -0.30 -0.80 0.75 -1 2 -2.40 2.25 -1.65 0.30 0.95 -2.50 0.05 -2.10 -1.20 0.55 -0.90 1.85 -2.60 2.50 -2.20 0.85 0.15 -0.55 0 -0.95 -0.40 -0.95 -0.40 0 -0.70 0.45 -0.70 0.95 0 1 -0.90 1.25 -1.25 0.30z m7.60 -8.05 c-0.40 -3 -1.15 -3.25 -1.25 -0.45 -0.05 1.90 0.15 2.45 0.75 2.45 0.60 0 0.70 -0.45 0.50 -2z m-2.35 -1.45 c0 -0.65 -0.35 -1.65 -0.75 -2.20 -0.70 -0.90 -0.70 -0.85 -0.75 0.70 0 1 -0.20 1.55 -0.50 1.35 -0.70 -0.45 -0.60 1.15 0.10 1.95 0.85 0.85 1.90 -0.15 1.90 -1.80z"/>
  <path d="M4 19 c0 -1.65 -0.15 -2 -1 -2 -0.60 0 -0.85 -0.25 -0.70 -0.70 0.15 -0.40 0 -0.85 -0.30 -1.05 -0.35 -0.20 -0.50 -0.05 -0.40 0.50 0.10 0.50 -0.15 1 -0.45 1.10 -0.45 0.15 -0.65 -0.30 -0.65 -1.35 0 -1.15 0.25 -1.65 0.95 -1.85 0.60 -0.15 1.25 -1.20 1.90 -3.15 l0.95 -2.95 -1.45 0.85 c-0.80 0.45 -1.55 1.15 -1.70 1.50 -0.40 1 -1.15 0.70 -1.15 -0.50 0 -0.60 0.50 -1.60 1.10 -2.25 l1.05 -1.15 -1.05 0 c-1.45 0 -1.50 -1.75 -0.10 -2.60 1.20 -0.75 1.30 -1.40 0.25 -1.40 -0.40 0 -0.75 -0.45 -0.75 -1 0 -0.85 0.35 -1 2.55 -1 2.45 0 3.95 0.75 3.95 1.95 0 0.30 0.90 0.55 2 0.55 1.10 0 2 0.25 2 0.50 0 0.30 0.55 0.50 1.25 0.50 0.80 0 1.25 -0.30 1.25 -0.75 0 -0.40 -0.35 -0.75 -0.75 -0.75 -0.40 0 -0.75 -0.45 -0.75 -1 0 -0.90 0.35 -1 3.50 -1 3.35 0 3.50 0.05 3.50 1.20 0 1.40 -1.85 2.80 -3.75 2.80 -1.25 0 -1.25 0.05 -0.95 2.75 0.30 2.25 0.20 2.80 -0.50 3.05 -0.45 0.15 -0.80 0.60 -0.80 1 0 0.40 -0.35 0.70 -0.75 0.70 -0.40 0 -0.75 0.25 -0.75 0.55 0 0.30 -1 1.70 -2.25 3.10 -2 2.30 -2.10 2.60 -1.35 3.15 0.65 0.50 0.75 0.85 0.30 1.55 -0.65 1 -2.20 1.50 -2.20 0.70 0 -0.30 0.45 -0.55 1 -0.55 0.85 0 0.95 -0.10 0.40 -0.70 -0.45 -0.50 -0.85 -0.55 -1.25 -0.20 -0.45 0.35 -0.65 0.35 -0.65 -0.05 0 -0.35 -0.25 -0.45 -0.50 -0.30 -0.30 0.20 -0.40 0.75 -0.25 1.30 0.20 0.55 0.10 0.95 -0.20 0.95 -0.30 0 -0.55 -0.90 -0.55 -2z m2.55 -2.85 c0.25 -0.70 0.40 -1.60 0.25 -2 -0.15 -0.35 -0.05 -0.65 0.25 -0.65 0.25 0 0.70 -0.60 0.95 -1.30 0.30 -0.70 1.20 -2.25 2 -3.45 1.90 -2.80 1.90 -3.35 0 -1.50 -0.85 0.80 -2.25 2.95 -3.10 4.75 -0.85 1.80 -1.65 2.95 -1.75 2.60 -0.15 -0.30 -0.45 -0.50 -0.65 -0.35 -0.25 0.15 -0.60 0 -0.75 -0.30 -0.20 -0.30 0.10 -0.65 0.70 -0.80 0.65 -0.15 1.20 -0.90 1.55 -2.05 0.70 -2.60 0.25 -2.55 -1.45 0.20 -1.55 2.40 -1.95 3.70 -1.15 3.70 0.25 0 0.70 0.55 1 1.25 0.75 1.60 1.50 1.60 2.15 -0.10z"/>
  <path d="M16 16.85 c0 -0.40 -0.35 -1 -0.75 -1.35 -0.65 -0.50 -0.95 -0.50 -1.75 0.25 -1 0.90 -1 0.85 -1 -1.10 0 -1.90 1.10 -3.70 1.80 -3 0.20 0.15 0.80 -0.40 1.40 -1.30 2.10 -3.10 2.10 -3.15 0.65 -2.20 l-1.35 0.85 0 -1.50 c0 -1.35 0.15 -1.50 1.70 -1.50 1.15 0 1.80 0.25 2 0.90 0.15 0.45 0.45 1.20 0.60 1.60 0.20 0.60 0.20 0.60 -0.20 0.10 -0.35 -0.50 -0.90 0.05 -2.25 2.20 -1.45 2.30 -1.70 3 -1.25 3.60 0.50 0.60 0.65 0.60 0.85 0.05 0.10 -0.40 0.60 -1.10 1.10 -1.60 0.90 -0.85 0.95 -0.85 0.95 0.15 0 0.55 0.25 1 0.55 1 0.30 0 0.45 0.70 0.35 1.65 -0.15 1.40 -0.35 1.60 -1.75 1.75 -1.20 0.10 -1.65 -0.05 -1.65 -0.55z m3 -0.35 c0 -0.25 -0.35 -0.50 -0.75 -0.50 -0.40 0 -0.75 -0.25 -0.75 -0.60 0 -0.30 -0.15 -0.40 -0.30 -0.25 -0.40 0.40 0.70 1.85 1.35 1.85 0.25 0 0.45 -0.20 0.45 -0.50z"/>
  <path d="M22.85 17.15 c-0.55 -0.50 -0.40 -3.15 0.15 -3.15 0.30 0 0.50 -0.50 0.50 -1.10 0 -0.65 0.20 -0.90 0.40 -0.60 0.20 0.30 0.75 0.65 1.25 0.85 1.30 0.50 1.05 1.55 -0.70 2.55 -0.85 0.50 -1.40 1 -1.25 1.15 0.15 0.15 1.05 -0.20 2.05 -0.75 2 -1.20 2.30 -1 0.65 0.45 -1.20 0.95 -2.45 1.20 -3.05 0.60z"/>
  <path d="M10.25 15.95 c-0.20 -0.30 0 -0.90 0.45 -1.35 0.75 -0.75 0.80 -0.75 0.80 0.25 0 1.25 -0.75 1.90 -1.25 1.10z"/>
  <path d="M21.65 5.15 c0.45 -0.45 0.95 -0.70 1.15 -0.55 0.50 0.50 -0.30 1.40 -1.20 1.40 -0.75 0 -0.75 -0.05 0.05 -0.85z"/>
 </g>
 <g fill="#3d427f">
  <path d="M2 38.75 c0 -0.65 0.45 -2.40 1.05 -3.85 0.55 -1.45 0.75 -2.35 0.40 -2 -0.35 0.30 -1.30 0.60 -2.05 0.60 -1.30 0 -1.40 -0.15 -1.40 -2.10 0 -1.70 0.45 -2.80 2 -5.10 2.20 -3.20 2.40 -3.80 1.25 -3.80 -0.50 0 -0.75 0.50 -0.75 1.50 0 1.25 -0.20 1.50 -1.25 1.50 -1.50 0 -1.60 -0.80 -0.25 -2.50 0.55 -0.70 1 -1.50 1 -1.80 0 -0.30 0.45 -0.95 1.05 -1.45 l1 -0.95 -1.10 -0.80 c-0.90 -0.70 -1 -1 -0.50 -1.90 0.75 -1.45 1.25 -1.40 1.95 0.15 0.30 0.70 0.80 1.25 1.10 1.25 0.70 0 2.20 -3.05 1.65 -3.45 -0.25 -0.15 -0.05 -0.70 0.45 -1.15 0.85 -0.85 0.90 -0.85 0.90 0.15 0 0.80 0.20 0.95 1.15 0.70 0.95 -0.30 1 -0.25 0.30 0.30 -0.45 0.40 -1.40 1.55 -2.20 2.55 -0.75 1.05 -1.55 1.80 -1.75 1.65 -0.65 -0.40 -1.55 1.05 -1.20 1.95 0.35 0.90 1.20 1.10 1.20 0.30 0 -0.25 0.45 -0.50 1 -0.50 0.90 0 1 0.25 0.70 2.15 -0.15 1.15 -0.45 2.55 -0.70 3.10 -0.60 1.40 -1.50 7.20 -1.50 9.70 0 1.20 -0.40 2.80 -0.85 3.60 -1.10 1.80 -2.65 1.95 -2.65 0.20z"/>
  <path d="M7.75 37.45 c-1.25 -2.30 -1.35 -2.90 -1.05 -5.65 0.15 -1.65 0.75 -4.45 1.30 -6.10 0.50 -1.70 0.80 -3.55 0.65 -4.15 -0.15 -0.55 -0.05 -1.05 0.20 -1.05 0.80 0 1.65 1.20 1.65 2.35 0 0.60 0.95 2.30 2.15 3.75 1.20 1.45 2.85 3.65 3.70 4.90 1.95 2.80 4.95 5.65 6.85 6.55 2.70 1.25 2.20 1.95 -1.40 1.95 -3.40 0 -4.40 -0.70 -1.85 -1.25 l1.50 -0.30 -1.05 -1.25 -1.10 -1.20 -0.65 1.90 c-0.35 1 -0.65 1.90 -0.65 2 0 0.45 -1.95 0 -2.15 -0.50 -0.20 -0.50 -0.30 -0.50 -0.30 0 -0.05 0.40 -1.05 0.60 -3.20 0.60 l-3.20 0 -1.40 -2.55z m4.65 -1.70 c0.50 -0.45 -0.60 -3.45 -1.75 -4.75 -1.45 -1.75 -2.15 -1.55 -2.15 0.55 0 0.95 -0.25 1.45 -0.75 1.45 -0.45 0 -0.75 0.45 -0.75 1.25 0 1 0.25 1.25 1.25 1.25 0.70 0 1.25 0.25 1.25 0.55 0 0.50 2.40 0.25 2.90 -0.30z m4.70 -0.50 c0.15 -0.70 0.05 -1.25 -0.15 -1.25 -0.25 0 -0.45 0.55 -0.45 1.25 0 0.70 0.10 1.25 0.20 1.25 0.10 0 0.30 -0.55 0.40 -1.25z"/>
  <path d="M25.70 38.40 c0.20 -0.90 0.45 -2.15 0.50 -2.80 0.15 -1.05 0.10 -1.10 -1 -0.35 -0.65 0.40 -1.55 0.75 -2.05 0.75 -1 0 -3.90 -2.70 -7.65 -7.10 -3.75 -4.35 -4.20 -5.25 -4.80 -9.60 l-0.60 -4.05 1.80 -1.90 c1 -1 2.05 -1.80 2.30 -1.70 0.65 0.20 3.10 -3.45 3.55 -5.25 0.20 -0.80 0.60 -1.40 0.95 -1.40 0.30 0 0.85 -0.45 1.20 -1 0.35 -0.55 0.85 -1 1.15 -1 0.40 0 0.35 0.30 -0.10 0.90 -0.65 0.75 -0.60 0.80 0.15 0.15 0.50 -0.35 0.75 -0.85 0.60 -1.15 -0.45 -0.70 0.80 -1.90 2 -1.90 0.95 0.05 0.90 0.10 -0.35 0.80 -0.75 0.40 -1.25 0.95 -1.10 1.25 0.20 0.25 -0.80 1.75 -2.15 3.35 -1.35 1.55 -3.05 3.85 -3.85 5.05 l-1.35 2.20 2.05 1.90 c2.80 2.65 4.05 2.85 7 1.25 2.85 -1.50 3.85 -1.70 2.05 -0.30 -0.70 0.50 -1.05 1.10 -0.85 1.30 0.20 0.20 1.35 -0.70 2.55 -2 1.45 -1.50 2.30 -2.10 2.45 -1.70 0.15 0.35 0.30 0.05 0.30 -0.70 0.05 -1.90 0.90 -1.75 1.50 0.25 0.25 0.85 0.50 1.20 0.50 0.75 0.10 -1.60 1.05 -0.95 1.10 0.75 0.05 0.85 0.15 1.20 0.30 0.70 0.10 -0.45 0.45 -0.75 0.70 -0.60 0.25 0.20 0.45 -0.15 0.45 -0.70 0 -0.60 0.25 -1.05 0.50 -1.05 0.65 0 0.65 3.85 0.05 4.25 -0.25 0.15 -0.60 -0.15 -0.75 -0.60 -0.15 -0.50 -0.20 -0.25 -0.10 0.50 0.15 1.40 -0.15 3.35 -0.90 5.75 -0.20 0.60 -0.15 1.10 0.10 1.10 0.60 0 2 -3.65 2.20 -5.75 0.10 -0.80 0.40 -1.45 0.65 -1.40 0.90 0.20 0.85 2.25 0 5.55 -0.80 2.90 -1.30 3.65 -5.35 7.90 -4.20 4.40 -4.45 4.75 -4.30 6.55 0.15 1.60 0.25 1.75 0.65 0.90 1.15 -2.60 8.85 -10.85 9.50 -10.15 0.05 0.10 0 0.90 -0.10 1.80 -0.15 1 -0.55 1.60 -1 1.60 -0.65 0 -0.65 -0.15 -0.15 -0.75 0.35 -0.45 0.55 -0.90 0.40 -1 -0.10 -0.15 -1.30 0.95 -2.70 2.35 -2.35 2.45 -2.35 2.50 -0.70 1.55 0.95 -0.60 2.25 -1.20 2.90 -1.40 0.90 -0.25 1.10 -0.15 1.10 0.85 0.05 1.15 0.05 1.15 0.80 0.15 0.40 -0.55 1.05 -1.45 1.45 -2 0.60 -0.90 0.70 -0.60 0.70 2.85 l0.05 3.85 -2.90 -0.10 c-2.20 -0.05 -3.35 0.20 -4.80 1.05 -1.25 0.75 -2.70 1.10 -4.40 1.10 l-2.50 0 0.30 -1.60z m-2.20 -4.65 c-0.70 -0.80 -2.50 -1.05 -2.50 -0.30 0 0.45 1 0.85 2.45 1 0.55 0.05 0.55 -0.10 0.05 -0.70z m1.90 -2.30 c0.45 0.70 0.55 0.60 0.55 -0.55 0.05 -0.75 0.35 -1.65 0.75 -2.05 1 -1 0.90 -3.75 -0.15 -3.65 -0.45 0.05 -0.85 -0.40 -0.95 -1.05 -0.15 -1 0.05 -1.15 1.65 -1.15 1.70 0 1.75 -0.05 1.20 -1.10 -1.55 -2.90 -3.45 -3.10 -3.45 -0.45 0 1.65 -0.20 2 -1.35 2.50 -1.70 0.65 -5.75 0.55 -6.25 -0.15 -0.20 -0.30 -0.40 -1.50 -0.40 -2.65 l0 -2.15 -2.30 0 -2.30 0 0.35 1.90 c0.20 1 0.55 1.95 0.80 2 0.25 0.10 0.45 0.55 0.45 1 0 0.50 0.50 1.10 1.15 1.35 0.75 0.35 1.15 1 1.25 2.10 0.10 1.10 0.50 1.70 1.25 1.95 0.60 0.20 1.45 0.85 1.95 1.50 1.15 1.45 3.40 1.80 4.45 0.65 0.70 -0.80 0.80 -0.80 1.35 0z m7.25 -9.85 c0.50 -1.15 0.85 -2.75 0.80 -3.50 0 -1 -0.20 -0.75 -0.65 1.05 -0.35 1.30 -0.75 2.50 -0.90 2.65 -0.15 0.10 -0.45 -1.35 -0.60 -3.35 -0.50 -5.05 -0.80 -4.05 -0.45 1.45 0.15 2.55 0.45 4.45 0.65 4.25 0.20 -0.20 0.70 -1.35 1.15 -2.55z m-9.65 -0.15 c0 -0.80 -0.20 -0.90 -0.85 -0.55 -0.50 0.25 -1.20 0.35 -1.50 0.25 -0.95 -0.35 -0.80 0.40 0.20 1.10 1.10 0.80 2.15 0.40 2.15 -0.80z m-7.90 -4.90 c0.90 0.50 1.25 -0.05 0.55 -0.75 -0.25 -0.20 -0.70 -1.10 -1.05 -1.95 -0.35 -0.90 -0.50 -1.10 -0.40 -0.50 0.10 0.60 -0.10 1.50 -0.50 2 -0.80 1.10 -0.90 2.05 -0.10 1.25 0.35 -0.35 0.85 -0.40 1.50 -0.05z"/>
  <path d="M37.70 31.35 c0.15 -0.50 0.30 -1.70 0.30 -2.65 0 -0.95 0.25 -1.70 0.55 -1.70 0.75 0 0.25 3.90 -0.60 4.70 -0.45 0.40 -0.50 0.35 -0.25 -0.35z"/>
  <path d="M37.90 20.25 c-0.10 -2.45 -0.15 -4.60 -0.10 -4.70 0.10 -0.05 0.35 0 0.65 0.20 0.60 0.35 0.65 5.80 0.10 7.75 -0.25 0.85 -0.45 -0.20 -0.65 -3.25z"/>
  <path d="M7.65 19.65 c-0.35 -0.10 -0.65 -0.55 -0.65 -1 0 -0.40 0.25 -0.60 0.65 -0.45 0.30 0.15 1 0.45 1.50 0.60 0.45 0.20 0.85 0.50 0.85 0.75 0 0.50 -1.35 0.55 -2.35 0.10z"/>
  <path d="M8.50 17.25 c0 -0.45 0.25 -0.75 0.55 -0.65 0.30 0.10 0.55 0.40 0.55 0.65 0 0.25 -0.25 0.55 -0.55 0.65 -0.30 0.10 -0.55 -0.20 -0.55 -0.65z"/>
  <path d="M18.25 15.80 c-2 -2 -2.15 -2.30 -0.75 -2.30 0.65 0 1 0.35 1 0.95 0 1.10 2.25 1.70 3.60 1 0.45 -0.25 1.35 -0.45 1.95 -0.45 1.05 0 1 0.10 -0.55 1.25 -2.25 1.65 -3.15 1.60 -5.25 -0.45z"/>
  <path d="M0 15.55 c0 -0.85 0.10 -1.55 0.20 -1.55 0.10 0 0.55 -0.15 1 -0.30 0.65 -0.25 0.75 0 0.60 1.35 -0.25 2.30 -1.80 2.70 -1.80 0.50z"/>
  <path d="M3.30 13.70 c-0.55 -0.35 -0.80 -0.85 -0.55 -1.05 0.20 -0.25 0.50 -0.15 0.60 0.20 0.10 0.35 0.55 0.45 0.95 0.30 0.40 -0.15 0.70 0 0.70 0.25 0 0.90 -0.70 1.05 -1.70 0.30z"/>
  <path d="M23.40 14.15 c-1.05 -0.15 -1.40 -0.50 -1.40 -1.40 0 -0.90 0.20 -1.10 1 -0.90 0.55 0.15 1 0.45 1 0.65 0 0.25 0.45 0.60 1 0.75 0.55 0.15 1 0.55 1 0.80 0 0.45 -0.15 0.45 -2.60 0.10z"/>
  <path d="M5.50 13.15 c0 -0.65 0.25 -1.15 0.50 -1.15 0.65 0 0.65 0.55 0 1.50 -0.40 0.60 -0.50 0.55 -0.50 -0.35z"/>
  <path d="M27.50 12.25 c0 -1.10 -0.15 -3.25 -0.30 -4.75 l-0.35 -2.75 1.10 1.10 c1.05 1.10 1.50 4.15 0.60 4.15 -0.20 0 -0.30 0.55 -0.20 1.20 0.15 0.65 0 1.60 -0.30 2.15 -0.45 0.75 -0.50 0.55 -0.55 -1.10z"/>
  <path d="M26 12.30 c0 -0.40 -0.60 -0.85 -1.35 -1.05 l-1.40 -0.35 1.40 -0.50 c1.65 -0.60 1.60 -0.60 2.05 1.25 0.20 0.80 0.10 1.35 -0.20 1.35 -0.25 0 -0.50 -0.30 -0.50 -0.70z"/>
  <path d="M11.90 11.25 c0.15 -0.80 0.55 -1.25 1.15 -1.25 0.55 0 0.95 -0.35 0.95 -0.75 0 -0.40 0.40 -0.75 0.85 -0.75 0.60 0 0.30 0.55 -1.10 2 -1.05 1.10 -2 2 -2.05 2 -0.05 0 0.05 -0.55 0.20 -1.25z"/>
  <path d="M19.25 9 c-0.45 -0.75 2.80 -4.60 3.65 -4.25 0.35 0.15 1.10 0.25 1.65 0.25 1.25 0 2.15 2.20 1.45 3.55 -0.45 0.75 -1.10 0.95 -3.50 0.95 -1.60 0 -3.10 -0.20 -3.25 -0.50z"/>
  <path d="M23.45 3.30 c0.35 -0.45 1.15 -0.80 1.70 -0.80 1.30 0 0.60 0.75 -1.15 1.25 -1.10 0.35 -1.15 0.30 -0.55 -0.45z"/>
  <path d="M26.80 2.60 c-0.20 -0.65 -0.25 -1.30 -0.10 -1.45 0.50 -0.55 0.90 0.20 0.70 1.45 l-0.20 1.15 -0.40 -1.15z"/>
 </g>
 <g fill="#8d6052">
  <path d="M19.50 32.80 c-0.30 -0.30 -0.50 -0.95 -0.50 -1.50 0 -0.90 0.05 -0.90 0.90 -0.15 1.20 1.10 1.95 1.10 1.05 0.05 -0.55 -0.70 -0.45 -1 0.85 -2.20 0.85 -0.75 1.70 -1.95 1.90 -2.70 0.40 -1.55 1.05 -1.70 1.80 -0.35 0.35 0.70 0.30 1.45 -0.25 2.75 -0.70 1.65 -0.70 1.85 0.25 2.80 1 1 1 1 0 1 -0.55 0 -1 0.20 -1 0.40 0 0.60 -4.45 0.45 -5 -0.10z"/>
  <path d="M37.90 25.25 c0.10 -3.80 -0.10 -7.85 -0.40 -9.55 -0.35 -1.65 -0.80 -4.10 -1 -5.55 -0.20 -1.40 -0.65 -3 -1 -3.50 -0.50 -0.80 -0.55 -0.75 -0.30 0.35 0.65 3.25 0.90 10.35 0.35 10.70 -0.40 0.25 -0.55 -0.50 -0.55 -2.45 0 -2.25 -1 -5.75 -1.65 -5.75 -0.10 0 -0.15 2.10 -0.15 4.65 0 2.95 -0.25 5.20 -0.75 6.30 l-0.70 1.65 -0.65 -4.80 c-0.35 -2.60 -0.95 -5.75 -1.30 -6.90 l-0.65 -2.15 -0.35 2 c-0.95 5.35 -1.35 4.20 -1.55 -4.50 -0.05 -2.80 -0.70 -4.75 -1.60 -4.75 -1.10 0 -3.30 1.30 -4.40 2.55 l-1 1.20 1.15 -0.95 c1.65 -1.40 1.35 -0.20 -0.40 1.45 -0.85 0.80 -1.40 1.75 -1.30 2.10 0.15 0.35 0 0.60 -0.30 0.50 -0.35 -0.05 -1.50 1.25 -2.65 2.90 -3.20 4.85 -3.85 5.55 -4.10 4.90 -0.15 -0.45 -0.50 -0.50 -1.20 -0.15 -0.70 0.40 -0.95 0.35 -0.95 -0.15 0 -0.85 2.90 -3.65 3.35 -3.20 0.20 0.20 0.05 0.65 -0.25 0.95 -0.85 0.85 -0.75 1.40 0.15 1.10 0.40 -0.20 0.75 -0.70 0.75 -1.15 0 -0.45 0.65 -1.80 1.50 -3.05 0.80 -1.20 1.35 -2.30 1.20 -2.45 -0.10 -0.15 -1.75 1.25 -3.60 3.10 -1.85 1.85 -3.55 3.35 -3.75 3.35 -0.20 0 -0.25 -0.60 -0.10 -1.35 l0.30 -1.40 -0.75 1.25 c-0.40 0.70 -0.50 1.35 -0.25 1.55 0.25 0.15 -0.25 1.25 -1.15 2.45 -1.70 2.30 -2.45 2.05 -1.20 -0.45 0.45 -0.85 0.75 -1.70 0.70 -1.90 -0.15 -0.40 1.80 -3.95 4.15 -7.65 l1.10 -1.75 -2.10 2 c-1.20 1.10 -2.80 3.25 -3.60 4.75 -1.40 2.55 -1.50 2.65 -1.20 1 0.15 -0.95 1 -3.25 1.90 -5.15 0.95 -1.85 1.45 -3.30 1.15 -3.20 -0.30 0.10 -0.95 1 -1.45 2.05 -0.50 1 -1.55 2.80 -2.35 3.90 -1.65 2.25 -1.95 3.55 -0.75 3.10 0.40 -0.20 0.75 -0.05 0.75 0.25 0 0.65 -0.95 0.70 -1.90 0.10 -0.85 -0.50 0.80 -5.10 2.50 -6.95 1.45 -1.60 0.30 -0.95 -2.65 1.50 -1.25 1.05 -2.40 1.90 -2.60 1.90 -0.50 0 -0.45 -1.90 0.05 -2.10 0.20 -0.05 1.50 -1.40 2.85 -2.90 2.45 -2.70 2.45 -2.70 0.35 -0.85 -1.15 1 -2.45 1.85 -2.85 1.85 -1.25 0 -0.85 -1.55 0.90 -3.10 0.90 -0.85 1.20 -1.40 0.75 -1.20 -0.65 0.20 -0.90 0 -0.90 -0.65 0 -0.85 0.40 -0.95 3.50 -1 3.15 0 3.50 0.05 3.50 0.95 0 0.80 0.35 1 1.50 1 1.15 0 1.50 -0.25 1.50 -0.95 0 -0.80 0.40 -0.95 2.50 -0.95 2.55 -0.05 3.20 0.45 1.65 1.35 -0.50 0.25 -0.75 0.60 -0.60 0.75 0.15 0.20 0.85 -0.20 1.55 -0.85 0.95 -0.90 1.55 -1.05 2.55 -0.80 0.75 0.20 1.45 0.15 1.65 -0.10 0.15 -0.25 2.15 -0.40 4.45 -0.35 3.35 0.05 4.25 0.25 4.40 0.85 0.15 0.55 0.25 0.50 0.30 -0.20 0.05 -0.65 0.50 -0.15 1.25 1.50 0.80 1.65 1.25 2.15 1.25 1.45 0.05 -0.55 -0.30 -1.45 -0.70 -2 -1.10 -1.50 -0.90 -1.70 1.50 -1.70 1.45 0 2.25 0.20 2.25 0.65 0 0.40 0.15 0.35 0.50 -0.15 0.55 -0.90 1.05 -0.45 1.85 1.65 l0.65 1.60 -0.15 -1.85 c-0.10 -1.55 0 -1.90 0.75 -1.90 0.85 0 0.90 0.85 0.90 13.70 0 7.55 -0.20 13.85 -0.45 14 -0.25 0.15 -0.60 1.05 -0.75 2.05 -0.70 3.65 -1.05 1.90 -0.90 -4.50z m-7 -18.35 c-0.35 -0.95 -1.90 -1.10 -1.90 -0.20 0 0.50 0.45 0.80 1.05 0.80 0.60 0 0.95 -0.25 0.85 -0.60z"/>
  <path d="M26 29.95 c0 -0.55 0.35 -1.10 0.75 -1.25 0.40 -0.20 0.75 -0.60 0.75 -1 0 -0.40 0.25 -0.70 0.55 -0.70 0.30 0 0.45 0.70 0.35 1.55 -0.10 1.10 -0.50 1.70 -1.25 2 -0.95 0.35 -1.15 0.25 -1.15 -0.60z"/>
  <path d="M19.35 27.65 c-0.50 -0.45 -0.40 -1.65 0.10 -1.65 0.25 0 0.55 0.45 0.70 1 0.25 1 -0.15 1.30 -0.80 0.65z"/>
  <path d="M30 22.30 c0 -1.55 0.30 -1.70 0.65 -0.30 0.15 0.55 0.05 1.15 -0.20 1.30 -0.25 0.15 -0.45 -0.30 -0.45 -1z"/>
  <path d="M32.25 22.95 c0.20 -0.25 0.80 -1.70 1.30 -3.10 l1 -2.60 -0.30 2.45 c-0.40 3.15 -0.70 3.80 -1.60 3.80 -0.40 0 -0.55 -0.25 -0.40 -0.55z"/>
  <path d="M29.75 18.70 c-0.20 -0.80 -0.50 -1.95 -0.75 -2.55 -0.30 -0.75 -0.25 -1.25 0.20 -1.60 0.55 -0.45 0.75 0 1 2.25 0.35 3.05 0.05 4.25 -0.45 1.90z"/>
  <path d="M36 19.15 c0 -0.25 0.25 -0.75 0.50 -1.15 0.40 -0.60 0.50 -0.55 0.50 0.40 0 0.60 -0.20 1.10 -0.50 1.10 -0.25 0 -0.50 -0.15 -0.50 -0.35z"/>
  <path d="M15.65 15.75 c-0.45 -1.25 0.10 -1.35 1.10 -0.25 0.85 0.90 0.85 1 0.05 1 -0.45 0 -0.95 -0.35 -1.15 -0.75z"/>
  <path d="M17.30 14.90 c-0.70 -1 -0.70 -1.15 0.10 -1.90 1 -1 1.60 -0.45 1.60 1.65 0 1.65 -0.65 1.75 -1.70 0.25z"/>
  <path d="M24 14.25 c0 -1.35 0.05 -1.40 1.20 -0.95 1.40 0.55 0.65 2.20 -1 2.20 -0.10 0 -0.20 -0.55 -0.20 -1.25z"/>
 </g>
 <g fill="#299e80">
  <path d="M26 36.35 c0 -1.20 0.85 -2.35 1.70 -2.35 0.30 0 0.25 0.25 -0.10 0.60 -0.35 0.35 -0.60 1.10 -0.60 1.75 0 0.65 -0.20 1.15 -0.50 1.15 -0.25 0 -0.50 -0.50 -0.50 -1.15z"/>
  <path d="M21 34.65 c-1.75 -1.20 -2.15 -1.65 -3.25 -3.50 -0.55 -0.90 -1.15 -1.65 -1.35 -1.65 -0.70 0 -0.40 -4.55 0.40 -6.30 0.90 -1.90 1.40 -2.10 2.20 -0.80 0.55 0.80 0.55 0.80 0.30 0 -0.15 -0.50 -0.05 -0.90 0.20 -0.90 0.30 0 0.50 0.20 0.50 0.45 0 0.75 2.05 1.20 2.65 0.60 0.85 -0.85 3.60 -0.65 4.50 0.35 0.90 1 1.15 2.35 0.40 1.90 -0.25 -0.20 -0.55 0 -0.70 0.30 -0.15 0.45 -0.55 0.30 -1.40 -0.45 -0.85 -0.75 -1.45 -0.95 -1.95 -0.65 -0.55 0.35 -0.45 0.55 0.65 0.95 0.75 0.30 1.35 0.90 1.35 1.35 0 0.60 -0.25 0.70 -0.85 0.40 -1.50 -0.65 -4.90 -0.55 -4.75 0.20 0.05 0.30 -0.10 0.60 -0.40 0.60 -0.70 0 -0.65 -2.15 0.10 -2.90 0.40 -0.40 0.40 -0.60 0.05 -0.60 -1.35 0 -2.40 3.15 -1.35 4.05 0.40 0.30 0.70 0.95 0.70 1.45 0 1.20 1.50 2.40 3.25 2.60 1.30 0.15 1.50 0 1.40 -0.95 -0.15 -1.40 0.40 -1.50 1.25 -0.15 0.90 1.45 1.60 1.20 1.30 -0.45 -0.20 -1 -0.10 -1.50 0.50 -1.70 0.50 -0.20 0.80 -0.90 0.80 -1.80 0 -1.20 0.15 -1.40 1.05 -1.20 1.45 0.40 1.15 3.20 -0.40 3.90 -0.75 0.30 -1.15 0.90 -1.15 1.65 0 1.30 -0.85 3.15 -1.70 3.70 -0.95 0.65 -3.05 0.45 -4.30 -0.45z m3.40 -0.75 c0.35 -0.35 0.60 -0.85 0.60 -1.10 0 -0.30 -0.25 -0.15 -0.55 0.30 -0.40 0.70 -0.65 0.75 -1.40 0.30 -0.50 -0.30 -1.35 -0.40 -1.85 -0.20 -0.80 0.30 -0.80 0.45 -0.20 0.80 1.05 0.65 2.70 0.60 3.40 -0.10z"/>
  <path d="M17.25 17.75 c-2 -2.05 -1.60 -3.15 0.50 -1.30 2.10 1.80 3.80 1.95 6.20 0.50 0.90 -0.55 1.80 -0.90 1.95 -0.75 0.10 0.15 -0.15 0.40 -0.60 0.60 -0.45 0.15 -0.80 0.60 -0.80 0.95 0 0.85 -1.15 1.25 -3.75 1.25 -1.70 0 -2.50 -0.30 -3.50 -1.25z"/>
  <path d="M18.50 16 c-0.80 -0.80 -1.50 -1.75 -1.50 -2.05 0 -1.05 2.10 -2.45 3.70 -2.45 1.45 0 5.30 2.10 5.30 2.90 -0.05 0.55 -4.30 3.10 -5.15 3.10 -0.45 0 -1.50 -0.65 -2.35 -1.50z"/>
  <path d="M6.60 1.25 c-0.10 -1.10 0.10 -1.25 1.65 -1.25 1.55 0 1.75 0.15 1.75 1.25 0 1.10 -0.20 1.25 -1.65 1.25 -1.40 0 -1.65 -0.20 -1.75 -1.25z"/>
 </g>
 <g fill="#5057a3">
  <path d="M0 34.25 c0 -3.50 0.20 -5.75 0.50 -5.75 0.30 0 0.50 -0.35 0.50 -0.75 0 -0.40 0.15 -0.75 0.40 -0.75 0.20 0 0.60 -0.55 0.95 -1.25 0.50 -1.10 0.45 -1.25 -0.40 -1.25 -0.60 0 -0.95 -0.35 -0.95 -0.85 0.05 -1.25 1.20 -2.65 2.20 -2.65 0.45 0 0.80 -0.20 0.80 -0.50 0 -0.25 -0.25 -0.50 -0.60 -0.50 -0.45 0 -0.45 -0.15 0 -0.60 0.80 -0.80 0.75 -1.40 -0.10 -1.40 -1.10 0 -1.50 -0.95 -0.80 -1.75 0.80 -0.95 1.50 -0.95 1.50 0 0 0.35 0.35 0.90 0.80 1.15 0.55 0.30 0.65 0.55 0.25 0.80 -0.80 0.50 -0.70 2.05 0.20 2.80 0.60 0.50 0.75 0.50 0.75 -0.20 0 -0.45 0.35 -0.80 0.75 -0.80 0.40 0 0.75 0.10 0.75 0.20 0 0.65 -3.35 6.80 -4.85 8.90 -1 1.35 -1.65 2.55 -1.50 2.70 0.25 0.30 1.75 -1.65 3.65 -4.90 l1.30 -2.15 -0.30 4.45 c-0.15 2.75 -0.70 5.65 -1.40 7.60 -1.10 3.05 -1.20 3.20 -2.75 3.20 l-1.65 0 0 -5.75z"/>
  <path d="M7.80 37.30 c-1.30 -2.35 -1.40 -3 -1.10 -5.35 0.40 -3.25 1.35 -6.55 1.80 -6.35 0.15 0.10 1.25 1.20 2.40 2.45 2.40 2.60 3.70 5.80 3.30 7.90 -0.25 1.20 -0.65 1.55 -2.50 2 -2.80 0.70 -2.85 1.15 -0.05 0.70 2.55 -0.40 3.30 -1.25 3.35 -3.80 0 -2.80 -1.25 -5.30 -4 -7.85 -2.30 -2.15 -2.45 -2.40 -2.15 -4.15 0.35 -2.30 0.95 -2.40 1.35 -0.15 0.20 0.90 1.15 2.65 2.20 3.85 1.05 1.20 2.45 3 3.10 3.95 0.65 0.95 1.70 2.35 2.40 3.10 1.25 1.35 1.25 1.80 0 5.05 -0.50 1.30 -0.60 1.35 -4.60 1.35 l-4.05 0 -1.45 -2.70z m4.35 -1.80 c0.50 -0.45 -1.20 -4 -2.30 -4.95 -1.05 -0.85 -1.55 0.85 -1.10 3.75 0.30 2.10 0.40 2.20 1.65 1.90 0.75 -0.20 1.55 -0.50 1.75 -0.70z"/>
  <path d="M26.30 38.95 c-0.40 -1.30 -0.20 -3.10 0.45 -4.60 0.20 -0.50 0.25 -1 0.10 -1.15 -0.15 -0.15 -0.40 0.15 -0.55 0.70 -0.30 0.90 -2.25 2.10 -3.45 2.10 -1.60 0 -11.20 -11.40 -11.55 -13.70 -0.15 -0.85 -0.40 -2.90 -0.55 -4.55 -0.25 -2.90 -0.20 -3.10 1.25 -4.50 0.80 -0.80 1.65 -1.25 1.85 -1.10 0.20 0.20 0.05 0.65 -0.25 0.95 -0.75 0.75 -0.80 1.60 -0.10 1.15 0.75 -0.45 0.60 0.40 -0.25 1.55 -0.95 1.25 -0.95 2 0.05 1.15 0.65 -0.50 0.95 -0.50 1.80 0 1.15 0.70 1.85 0.30 1 -0.55 -0.35 -0.35 -0.60 -0.90 -0.60 -1.30 0 -0.45 0.80 0 2 1.10 2.50 2.25 4 2.30 7.15 0.30 1.30 -0.80 2.35 -1.25 2.35 -1 0 0.30 -0.55 0.80 -1.25 1.10 -0.70 0.30 -1.25 0.75 -1.25 1 0 0.50 0.35 0.50 1.40 -0.05 1.10 -0.60 3.40 1.30 4.30 3.55 0.55 1.35 0.55 2.20 0.05 4.55 -0.30 1.55 -0.40 2.85 -0.15 2.85 0.20 0 0.50 -0.60 0.70 -1.35 0.15 -0.80 0.65 -2.20 1.05 -3.15 0.45 -0.95 1.20 -2.85 1.70 -4.25 1.05 -2.85 1.20 -2.20 0.40 1.95 -0.75 4.15 0.15 4.60 1.25 0.70 1.45 -5.10 1.85 -5.55 1.60 -1.90 -0.20 4.20 -0.95 5.55 -5.65 10.50 -3.65 3.80 -3.90 4.25 -4.15 6.65 -0.25 2.20 -0.35 2.40 -0.70 1.30z m-1.20 -5.90 c0.90 -1 1.20 -1.80 1.05 -2.70 -0.20 -0.95 0 -1.35 0.70 -1.55 0.75 -0.25 0.95 -0.70 0.90 -2.10 -0.10 -1.65 -0.75 -3.10 -0.75 -1.70 0 0.45 -0.45 0.25 -1.20 -0.45 -1.05 -0.95 -1.55 -1.10 -3.05 -0.85 -1.50 0.30 -2 0.15 -2.80 -0.75 -1.15 -1.30 -0.85 -1.95 0.30 -0.75 0.45 0.45 1.10 0.80 1.45 0.80 1 0 1.85 -1.25 1.50 -2.15 -0.25 -0.65 -0.45 -0.70 -1.20 -0.25 -0.70 0.45 -1.25 0.45 -2.25 0 -1.35 -0.65 -1.35 -0.65 -1.05 1.05 0.20 1.10 0.05 2.20 -0.45 3.15 -0.85 1.60 -1 3.20 -0.30 3.20 0.25 0 0.70 0.70 1 1.60 0.45 1.20 0.40 1.70 -0.05 2 -0.50 0.30 -0.45 0.40 0.10 0.45 0.40 0.05 1.05 0.05 1.40 0 0.30 -0.05 1 0.15 1.50 0.40 0.75 0.45 0.75 0.50 -0.25 0.55 -1.25 0 -1.55 0.75 -0.50 1.15 1.45 0.60 2.75 0.25 3.95 -1.10z m4.75 -1.95 c0.30 -0.55 0.40 -1.25 0.15 -1.60 -0.60 -1 -1.95 0.25 -1.65 1.50 0.35 1.25 0.75 1.25 1.50 0.10z m-13.85 -5.85 c0 -0.70 0.25 -1.25 0.50 -1.25 0.30 0 0.50 -0.35 0.50 -0.75 0 -0.50 -0.55 -0.75 -1.75 -0.75 -1.80 0 -2.35 0.65 -1 1.20 0.40 0.15 0.75 0.85 0.75 1.55 0 0.70 0.25 1.25 0.50 1.25 0.30 0 0.50 -0.55 0.50 -1.25z m12.25 -3.10 c-0.20 -0.50 -0.50 -1.30 -0.60 -1.75 -0.15 -0.55 -0.75 -0.90 -1.45 -0.90 -1.05 0 -1.20 0.25 -1.20 1.75 0 1.70 0.10 1.75 1.80 1.75 1.55 0 1.75 -0.15 1.45 -0.85z"/>
  <path d="M23.80 28.70 c0.90 -0.35 -0.30 -2.60 -1.55 -2.90 -1.90 -0.55 -2.70 -0.30 -2.90 0.85 -0.20 1 -0.20 0.95 -0.30 -0.20 -0.05 -1.65 0.50 -1.90 3.70 -1.50 2.10 0.25 2.50 0.45 2.65 1.45 0.20 1.25 -0.65 2.60 -1.60 2.55 -0.40 0 -0.40 -0.10 0 -0.25z"/>
  <path d="M28 39.40 c0 -0.70 3.50 -2.45 6.70 -3.45 1.40 -0.40 1.75 -0.70 1.25 -1 -1 -0.60 -1.55 -0.55 -1.15 0.15 0.20 0.35 0.15 0.40 -0.25 0.20 -0.30 -0.20 -1.75 0.30 -3.25 1.15 -3.15 1.80 -3.50 1.90 -2.80 0.60 0.25 -0.55 2.20 -1.85 4.25 -2.85 3.70 -1.80 5 -2 3.75 -0.45 -1 1.20 0.30 0.90 1.45 -0.30 1.25 -1.40 2.05 -0.85 2.05 1.45 0 1.40 -0.15 1.65 -0.60 1.20 -0.35 -0.35 -0.95 -0.60 -1.40 -0.60 -0.45 0.05 -0.15 0.35 0.65 0.80 1 0.55 1.35 1.10 1.35 2.20 0 1.25 -0.20 1.50 -1.20 1.50 -0.75 0 -1.30 -0.35 -1.45 -1 -0.15 -0.65 -0.70 -1 -1.45 -1 -0.65 0 -2.05 0.45 -3.15 1 -2.20 1.15 -4.75 1.35 -4.75 0.40z"/>
  <path d="M32.75 31.95 c2.30 -2.60 4.20 -4.15 4.55 -3.80 0.15 0.15 -0.40 0.65 -1.15 1.10 -0.80 0.45 -1.90 1.50 -2.45 2.35 -0.50 0.80 -1.40 1.70 -1.95 2 -0.55 0.30 -0.10 -0.45 1 -1.65z"/>
  <path d="M38.35 28.75 c0.35 -2.45 0.65 -2.90 0.65 -0.95 0 0.80 -0.25 1.80 -0.50 2.20 -0.30 0.50 -0.35 0.10 -0.15 -1.25z"/>
  <path d="M38.15 20 c0 -2.35 0.10 -3.30 0.20 -2.10 0.10 1.15 0.10 3.05 0 4.25 -0.10 1.15 -0.20 0.20 -0.20 -2.15z"/>
  <path d="M7.70 19.20 c-0.85 -0.70 -0.85 -0.75 -0.05 -0.50 0.50 0.15 1.15 0.30 1.40 0.30 0.25 0 0.45 0.25 0.45 0.50 0 0.70 -0.65 0.60 -1.80 -0.30z"/>
  <path d="M28.70 18.15 l-1.55 -1.60 1.35 -1.30 1.35 -1.30 0.35 2.85 c0.15 1.55 0.25 2.85 0.20 2.90 -0.10 0.05 -0.85 -0.65 -1.70 -1.55z"/>
  <path d="M31.25 17.20 c-0.15 -1.10 -0.40 -2.55 -0.50 -3.30 -0.15 -0.80 -0.05 -1.40 0.20 -1.40 0.25 0 0.60 1.35 0.75 3.05 0.40 3.40 0.05 4.65 -0.45 1.65z"/>
  <path d="M6.90 16.40 c0.60 -1.05 0.85 -2 0.60 -2.15 -0.50 -0.30 0.45 -2.25 1.10 -2.25 0.15 0 0.25 0.80 0.15 1.80 -0.05 1.20 -0.60 2.25 -1.50 3.10 l-1.40 1.35 1.05 -1.85z"/>
  <path d="M18.75 15.95 c-0.95 -0.85 -1.75 -1.90 -1.70 -2.40 0 -0.55 0.15 -0.45 0.45 0.35 0.25 0.60 0.80 1.10 1.25 1.10 0.40 0 0.75 0.20 0.75 0.40 0 0.85 1.95 0.45 2.80 -0.55 0.50 -0.60 0.60 -0.80 0.20 -0.45 -0.40 0.30 -1.15 0.60 -1.70 0.60 -0.80 0 -0.65 -0.20 0.60 -0.85 1.15 -0.55 1.45 -0.90 1 -1.20 -0.85 -0.55 -0.25 -1.05 0.80 -0.65 0.50 0.20 0.80 0.90 0.80 2 0 1.35 -0.30 1.80 -1.50 2.45 -1.85 0.95 -1.65 1 -3.75 -0.80z"/>
  <path d="M0 16.25 c0 -0.40 0.35 -0.75 0.75 -0.75 0.40 0 0.75 0.35 0.75 0.75 0 0.40 -0.35 0.75 -0.75 0.75 -0.40 0 -0.75 -0.35 -0.75 -0.75z"/>
  <path d="M24.65 14.45 c0.05 -0.50 0.30 -0.90 0.55 -0.80 0.80 0.25 0.90 1.20 0.10 1.50 -0.50 0.20 -0.70 0 -0.65 -0.70z"/>
  <path d="M0 14.50 c0 -0.25 0.45 -0.50 1.05 -0.50 0.55 0 0.85 0.25 0.70 0.50 -0.15 0.30 -0.65 0.50 -1.05 0.50 -0.40 0 -0.70 -0.20 -0.70 -0.50z"/>
  <path d="M10 13.20 c0 -0.65 2.40 -2.95 2.75 -2.60 0.15 0.10 -0.45 0.85 -1.25 1.65 -0.85 0.80 -1.50 1.20 -1.50 0.95z"/>
  <path d="M27.50 11.50 c0 -0.95 0.15 -1.05 0.60 -0.60 0.45 0.45 0.45 0.75 0 1.20 -0.45 0.45 -0.60 0.35 -0.60 -0.60z"/>
  <path d="M19.85 9.10 c-0.75 -0.30 -0.80 -0.50 -0.20 -1.30 0.60 -0.80 0.90 -0.85 2.80 -0.30 1.20 0.30 2.25 0.45 2.40 0.30 0.30 -0.30 -1.30 -1 -3.10 -1.40 -0.90 -0.25 -0.90 -0.30 0.25 -0.75 2 -0.85 3.75 -0.10 3.90 1.70 0.10 1.25 -0.05 1.60 -1 1.85 -1.50 0.35 -3.90 0.35 -5.05 -0.10z"/>
  <path d="M18 7.75 c0 -1.25 0.35 -1.75 2.40 -3.15 2.15 -1.50 2 -0.85 -0.40 1.90 -1.55 1.75 -2 2.05 -2 1.25z"/>
 </g>
 <g fill="#6d70cd">
  <path d="M26.05 37.75 c0.10 -1.20 0.05 -2.35 -0.10 -2.50 -0.15 -0.10 -1 -0.05 -1.85 0.20 -1.40 0.40 -1.80 0.30 -3.50 -1.10 -1.05 -0.85 -2.50 -2.50 -3.25 -3.60 -0.75 -1.10 -2.40 -3.20 -3.60 -4.65 -2.45 -2.85 -2.80 -4.55 -1.55 -7.05 0.85 -1.60 2.30 -2.95 2.30 -2.10 0 0.30 0.45 0.55 1.05 0.55 0.90 0 1 -0.20 0.70 -1.35 l-0.30 -1.40 1.55 1.65 c2.05 2 4.20 2.10 7.05 0.30 1.15 -0.70 2.15 -1.15 2.35 -1 0.15 0.15 0.05 0.30 -0.20 0.30 -0.25 0 -1 0.50 -1.70 1.05 l-1.25 1 1.80 -0.25 c1.40 -0.25 1.95 -0.10 2.80 0.80 2.45 2.70 2.75 4.95 1.05 8.40 l-1.15 2.25 -0.15 -2.35 c-0.15 -2.15 -0.30 -2.40 -1.35 -2.40 -0.65 0 -1.35 -0.25 -1.55 -0.55 -0.20 -0.35 -1.05 -0.45 -2 -0.30 -1.85 0.30 -2.35 -0.40 -0.70 -0.90 0.55 -0.15 1 -0.70 1 -1.20 0 -1.30 -0.50 -1.55 -1.55 -0.90 -0.75 0.45 -1.15 0.45 -1.95 -0.05 -1.50 -0.90 -1.65 -0.75 -1.40 1.30 0.20 1.20 0 2.25 -0.40 2.85 -0.80 1.05 -0.95 3.25 -0.25 3.25 0.25 0 0.75 0.75 1.10 1.65 0.35 0.85 0.75 1.80 0.85 2.05 0.15 0.25 -0.05 0.25 -0.40 0.05 -0.40 -0.25 -0.55 -0.20 -0.35 0.10 0.20 0.30 0.85 0.40 1.55 0.30 0.65 -0.15 1.35 0 1.50 0.30 0.20 0.35 -0.05 0.55 -0.65 0.55 -0.60 0 -1.05 0.20 -1.05 0.45 0 0.60 0.40 0.80 2.10 1.25 1.15 0.25 1.50 0.05 2.25 -1.20 1.10 -1.90 1.80 -1.95 1.40 0 -0.40 1.75 0.10 2 0.70 0.40 0.25 -0.70 0.15 -1.55 -0.30 -2.35 -0.85 -1.65 -0.80 -2.40 0.05 -2.70 0.45 -0.20 0.95 0.45 1.50 1.80 0.80 2 0.75 2.10 -0.45 3.85 -0.95 1.40 -1.15 2.15 -0.90 3.65 0.20 1.25 0.10 1.85 -0.30 1.85 -0.40 0 -0.60 -0.75 -0.50 -2.25z m-9.05 -19.45 c0 -0.25 -0.45 -0.05 -1 0.45 -0.55 0.50 -1 1.25 -1 1.70 0 0.60 0.30 0.45 1 -0.45 0.55 -0.70 1 -1.45 1 -1.70z"/>
  <path d="M28 39.60 c0 -0.70 5.10 -3.05 7.35 -3.40 2.55 -0.40 3.65 0.30 3.65 2.35 l0 1.45 -5.50 0 c-3 0 -5.50 -0.20 -5.50 -0.40z"/>
  <path d="M7.45 36.45 c-0.80 -1.60 -1 -2.60 -0.75 -4.15 0.55 -3.35 1.30 -5.80 1.85 -5.80 0.25 0 1.15 0.75 1.95 1.65 3.60 3.85 4.65 8.65 2 9.35 -4.20 1.10 -3.90 1.15 -5.05 -1.05z"/>
  <path d="M17.20 33.90 c-1.85 -3.15 -1.85 -3.15 -0.55 -1.65 1.25 1.40 1.65 2.25 1.15 2.25 -0.15 0 -0.40 -0.30 -0.60 -0.60z"/>
  <path d="M23 33 c0 -0.25 0.25 -0.50 0.50 -0.50 0.30 0 0.50 -0.50 0.50 -1.10 0 -0.80 0.15 -0.95 0.55 -0.55 0.40 0.40 0.35 0.85 -0.15 1.60 -0.70 1.10 -1.40 1.40 -1.40 0.55z"/>
  <path d="M32 29.15 c3.40 -3.65 3.85 -4.15 3 -2.90 -1.90 2.65 -4.65 5.75 -5.10 5.75 -0.30 0 0.65 -1.30 2.10 -2.85z"/>
  <path d="M0 27.75 c0 -2.15 0.20 -3.75 0.50 -3.75 0.30 0 0.50 -0.25 0.50 -0.50 0 -0.30 0.60 -1.45 1.40 -2.65 0.75 -1.15 1.50 -2.45 1.70 -2.85 0.20 -0.45 0.35 -0.15 0.35 0.85 0.05 0.85 0.30 1.75 0.55 1.90 1.20 0.75 0.45 3.70 -1.85 7.20 -1.30 1.95 -2.55 3.55 -2.75 3.55 -0.20 0 -0.40 -1.70 -0.40 -3.75z"/>
  <path d="M19.05 26.40 c-0.05 -0.80 0.25 -1.45 0.60 -1.45 1.60 -0.20 5.15 0.20 5.55 0.55 0.25 0.25 -0.80 0.30 -2.35 0.15 -2.65 -0.25 -2.85 -0.20 -3.30 0.90 l-0.50 1.20 0 -1.35z"/>
  <path d="M35.40 24.45 c-0.15 -0.40 0 -1.50 0.30 -2.45 l0.50 -1.75 0.20 1.60 c0.20 1.80 -0.55 3.75 -1 2.60z"/>
  <path d="M2 17.30 c0 -0.10 0.35 -0.45 0.75 -0.80 0.60 -0.50 0.75 -0.50 0.75 0.20 0 0.45 -0.35 0.80 -0.75 0.80 -0.40 0 -0.75 -0.10 -0.75 -0.20z"/>
  <path d="M18.75 15.95 c-2 -1.80 -2.15 -2.45 -0.75 -3.35 0.65 -0.40 1 -0.45 1 -0.05 0 0.30 0.45 0.40 1.10 0.15 1 -0.30 1.05 -0.25 0.30 0.50 -0.45 0.45 -1.10 0.80 -1.45 0.80 -0.45 0 -0.50 0.15 -0.15 0.50 0.40 0.40 0.95 0.40 1.90 0 0.85 -0.30 1.25 -0.30 1.05 0 -0.15 0.30 -0.70 0.50 -1.15 0.50 -0.60 0 -0.65 0.15 -0.20 0.60 0.45 0.45 0.80 0.35 1.55 -0.30 1.05 -0.95 1.15 -1.80 0.30 -2.40 -0.70 -0.50 0 -0.95 0.95 -0.60 0.50 0.20 0.80 0.90 0.80 2 0 1.35 -0.30 1.80 -1.50 2.45 -1.85 0.95 -1.65 1 -3.75 -0.80z"/>
  <path d="M24.50 14.75 c0 -0.40 0.35 -0.75 0.75 -0.75 0.40 0 0.75 0.20 0.75 0.45 0 0.25 -0.35 0.55 -0.75 0.75 -0.45 0.15 -0.75 0 -0.75 -0.45z"/>
  <path d="M0 14.60 c0 -0.25 0.45 -0.60 1.05 -0.75 0.65 -0.15 0.95 -0.05 0.80 0.30 -0.25 0.75 -1.85 1.10 -1.85 0.45z"/>
  <path d="M27.35 8.40 c-0.45 -1.55 0.10 -3.40 1 -3.40 0.50 0 0.65 0.55 0.55 2.10 -0.15 2.30 -1.10 3.10 -1.55 1.30z"/>
  <path d="M17.55 8.50 c-0.05 -1.05 1.70 -3.15 2.40 -2.95 0.35 0.15 0 0.90 -0.90 1.95 -0.90 1.05 -1.50 1.45 -1.50 1z"/>
  <path d="M19.70 8.05 c0.85 -0.95 1.20 -0.90 5.30 0.60 0.40 0.15 -0.80 0.30 -2.70 0.30 -3.35 0.05 -3.45 0 -2.60 -0.90z"/>
 </g>
 <g fill="#b38878">
  <path d="M19.85 32.15 c-0.20 -0.15 -0.35 -0.55 -0.35 -0.85 0 -0.35 0.15 -0.35 0.40 0 0.20 0.35 0.80 0.70 1.35 0.85 0.95 0.25 0.95 0.25 -0.05 0.30 -0.55 0 -1.20 -0.10 -1.35 -0.30z"/>
  <path d="M23.80 31.60 c-0.15 -0.45 -0.40 -1.10 -0.55 -1.40 -0.15 -0.35 0 -0.90 0.40 -1.30 0.50 -0.45 0.55 -1.05 0.30 -1.80 -0.35 -0.85 -0.80 -1.10 -2.20 -1.10 -1.20 0 -1.75 0.20 -1.75 0.75 0 0.40 -0.20 0.75 -0.50 0.75 -0.75 0 -0.60 -2.35 0.15 -2.60 0.30 -0.15 1.70 -0.10 3.10 0.05 2.75 0.35 3.35 1.25 2.25 3.35 -0.35 0.60 -0.50 1.70 -0.30 2.40 0.35 1.40 -0.45 2.25 -0.90 0.90z"/>
  <path d="M21 30.65 c0 -0.65 1.45 -1.90 1.75 -1.55 0.15 0.15 -0.20 0.65 -0.75 1.15 -0.55 0.50 -1 0.65 -1 0.40z"/>
  <path d="M26.15 30.20 c-0.15 -0.45 0 -1 0.40 -1.25 0.65 -0.40 1.30 0.40 1.40 1.70 0.10 0.70 -1.50 0.35 -1.80 -0.45z"/>
  <path d="M38.30 29.50 c0.15 -0.95 0 -4.90 -0.30 -8.75 -0.70 -9.55 -0.90 -11.30 -1.45 -11.95 -0.25 -0.30 -0.80 -1.80 -1.25 -3.30 -0.45 -1.50 -1.05 -3.10 -1.30 -3.50 -0.80 -1.20 -0.60 0.20 0.45 3.40 0.50 1.55 1.05 4.65 1.20 6.85 l0.25 4 -0.65 -2.50 c-1.10 -4.25 -1.70 -5.45 -2.45 -4.80 -0.35 0.30 -0.80 0.35 -1.05 0.15 -0.20 -0.20 -0.25 2 -0.10 4.85 0.35 5.60 0.05 6.40 -0.65 1.75 -0.55 -4.25 -1.45 -7.30 -2 -6.95 -0.30 0.20 -0.50 0.95 -0.50 1.75 0 0.80 -0.20 1.60 -0.50 1.75 -0.50 0.30 -0.70 -2.50 -0.50 -7.10 0.15 -4.40 -2.55 -5.50 -6 -2.35 -1.10 1 -1.90 1.95 -1.75 2.10 0.15 0.15 0.70 -0.15 1.25 -0.65 1.75 -1.60 1.05 -0.30 -1.45 2.75 -1.35 1.60 -2.85 3.65 -3.35 4.45 -0.50 0.85 -1.10 1.55 -1.30 1.55 -0.40 0 0.70 -2.20 2.75 -5.50 0.85 -1.40 0.20 -0.95 -3.15 2.10 -2.35 2.10 -4.35 3.70 -4.50 3.55 -0.15 -0.15 1.20 -1.60 3 -3.30 3.30 -3.05 3.25 -3.35 -0.05 -0.80 -1 0.80 -1.95 1.30 -2.05 1.15 -0.50 -0.45 -2.40 3.15 -2.10 3.95 0.15 0.45 -0.35 1.45 -1.30 2.45 l-1.55 1.65 0.85 -1.75 c0.50 -0.95 0.90 -2.20 0.90 -2.80 0.10 -1.80 3.45 -6.75 6.90 -10.30 l3.40 -3.40 5.45 0 5.45 0 0.35 1.60 c0.45 2.10 1.25 3.20 1.80 2.35 0.20 -0.40 0.70 0.10 1.40 1.35 l1 1.95 -0.25 -1.75 c-0.20 -0.95 -0.70 -2.60 -1.20 -3.60 l-0.85 -1.90 2.05 0 c1.90 0 2.15 0.15 2.70 1.65 0.30 0.90 0.95 2.10 1.35 2.60 0.70 0.95 0.70 0.90 0.25 -0.45 -0.80 -2.20 -0.30 -2.05 0.80 0.20 0.50 1.10 1.10 2 1.35 2 0.20 0 0.35 0.25 0.35 0.55 0 0.30 -0.40 0.40 -0.90 0.25 -0.85 -0.30 -0.90 -0.10 -0.55 2.30 0.55 3.75 0.45 19.95 -0.05 21.15 -0.35 0.75 -0.40 0.55 -0.20 -0.75z m-25.25 -21.65 l1.10 -1.60 -1.55 1.45 c-0.90 0.85 -1.60 1.70 -1.60 1.90 0 0.75 0.90 0 2.05 -1.75z"/>
  <path d="M5.50 13.35 c0 -0.90 2.30 -6.50 3.25 -7.95 1.20 -1.85 1 -2.70 -0.25 -1.15 -0.85 1 -1.55 0.95 -1.15 -0.10 0.35 -0.85 -4 1.85 -4.65 2.95 -0.20 0.30 0.50 -0.05 1.60 -0.80 l1.95 -1.45 -2 1.85 c-4 3.60 -4.25 3.80 -4.25 2.65 0 -0.35 1.40 -2.15 3.10 -4.05 1.70 -1.90 2.65 -3.20 2.15 -2.90 -0.55 0.25 -1.45 0.95 -1.95 1.55 -0.50 0.55 -1.15 0.90 -1.45 0.70 -0.30 -0.15 -0.35 -0.05 -0.15 0.25 0.25 0.40 0 0.60 -0.65 0.60 -1.55 0 -1.30 -0.90 0.85 -2.85 1.10 -1 1.40 -1.50 0.75 -1.20 -1.65 0.85 -2.65 0.65 -2.65 -0.45 0 -0.85 0.35 -1 2 -1 1.10 0 2 0.25 2 0.50 0 0.35 0.30 0.35 0.95 0 1.25 -0.65 8.05 -0.65 8.05 0 0 0.30 0.35 0.50 0.75 0.50 0.40 0 0.75 -0.20 0.75 -0.50 0 -0.25 0.45 -0.50 1 -0.50 0.55 0 1 0.10 1 0.20 0 0.10 -1.95 2.25 -4.35 4.80 -2.45 2.50 -4.80 5.45 -5.25 6.55 -0.70 1.60 -1.40 2.50 -1.40 1.80z m6.50 -10.35 c0 -0.25 -0.20 -0.50 -0.45 -0.50 -0.25 0 -0.90 -0.15 -1.40 -0.30 -0.80 -0.25 -0.80 -0.20 0.05 0.50 1.15 0.90 1.80 1 1.80 0.30z"/>
  <path d="M3.50 10.65 c0.85 -2.35 1.50 -3.40 2.50 -4.05 0.85 -0.50 0.90 -0.45 0.60 0.30 -0.70 1.75 -2.80 5.10 -3.20 5.10 -0.20 0 -0.15 -0.60 0.10 -1.35z"/>
  <path d="M39 2.75 c0 -0.40 0.25 -0.75 0.50 -0.75 0.30 0 0.50 0.35 0.50 0.75 0 0.40 -0.20 0.75 -0.50 0.75 -0.25 0 -0.50 -0.35 -0.50 -0.75z"/>
 </g>
 <g fill="#4bf3c2">
  <path d="M19.80 32.30 c-0.25 -0.80 -0.40 -0.90 -0.75 -0.40 -0.55 0.90 -1.05 -0.35 -1.05 -2.55 l0.05 -1.60 1.05 2.15 c0.65 1.35 1.35 2.10 1.95 2.10 1.40 0 1.60 0.85 0.25 1.10 -0.95 0.20 -1.30 0 -1.50 -0.80z"/>
  <path d="M23 33 c0 -0.25 0.25 -0.50 0.50 -0.50 0.30 0 0.50 -0.35 0.50 -0.75 0 -0.40 0.25 -0.75 0.50 -0.75 0.65 0 0.60 0.55 -0.20 1.65 -0.75 0.95 -1.30 1.10 -1.30 0.35z"/>
  <path d="M18.60 15.75 l-1.85 -1.75 1.40 -1.25 c1.45 -1.30 2.85 -1.65 2.85 -0.70 0 0.65 -1.05 1.70 -1.95 2 -0.45 0.15 -0.25 0.55 0.65 1.15 1.30 0.85 1.45 0.85 2.35 0 1.10 -1 1.25 -2 0.35 -2.35 -0.35 -0.10 -0.50 -0.35 -0.35 -0.55 0.75 -0.80 1.95 0.40 1.95 2 0 1.35 -0.30 1.80 -1.50 2.45 -1.90 1 -1.70 1 -3.90 -1z"/>
  <path d="M24.50 14.45 c0 -0.60 0.25 -0.95 0.60 -0.85 0.90 0.30 1 1.25 0.15 1.55 -0.50 0.25 -0.75 0 -0.75 -0.70z"/>
 </g>
 <g fill="#e3af96">
  <path d="M26.45 30.95 c-0.40 -0.85 -0.40 -1.20 0.15 -1.80 0.60 -0.60 0.80 -0.45 1.25 1.10 0.45 1.40 0.40 1.75 -0.15 1.75 -0.35 0 -0.90 -0.50 -1.25 -1.05z"/>
  <path d="M24.20 27.15 c-0.20 -0.70 -0.85 -1.15 -2 -1.40 -2.45 -0.45 -2.10 -1.05 0.55 -0.85 1.70 0.15 2.30 0.45 2.55 1.20 0.15 0.55 0.05 1.25 -0.25 1.55 -0.45 0.45 -0.65 0.30 -0.85 -0.50z"/>
  <path d="M24.60 14.70 c0.15 -0.85 1.05 -1.05 1.30 -0.30 0.05 0.25 -0.20 0.60 -0.65 0.80 -0.55 0.20 -0.75 0.05 -0.65 -0.50z"/>
  <path d="M30.45 11.50 c-0.65 -3.35 -1.95 -5.15 -1.95 -2.70 0 1 -0.15 1.25 -0.55 0.85 -0.90 -0.90 -0.65 -4 0.40 -5.10 l1 -1.05 0.90 1 c0.50 0.55 1.20 1 1.60 1 0.35 0 0.65 0.45 0.65 1 0 0.60 -0.35 1 -0.80 1 -0.75 0 -0.80 0.45 -0.55 3.50 0.15 1.95 0.20 3.50 0.10 3.50 -0.10 0 -0.45 -1.35 -0.80 -3z"/>
  <path d="M8.55 12 c1.75 -3.60 4.95 -7.95 7.15 -9.50 1.85 -1.40 3.15 -1.65 1.90 -0.40 -1.05 1.05 -0.65 1.55 0.65 0.70 1.55 -1 1.60 -1 1.90 0.15 0.15 0.75 -0.55 1.75 -2.65 3.75 -1.60 1.55 -3.10 2.80 -3.35 2.80 -0.20 -0.05 0.15 -0.50 0.80 -1.05 1.55 -1.30 1 -1.80 -0.75 -0.65 l-1.35 0.95 0.85 -1.40 c0.55 -0.80 0.70 -1.35 0.35 -1.35 -0.30 0 -1.55 1.40 -2.80 3.15 -3.50 4.90 -3.85 5.25 -2.70 2.85z"/>
  <path d="M14.50 13.10 c0 -0.85 3.90 -6.35 5.50 -7.85 2 -1.80 1.30 -0.35 -1.05 2.25 -0.85 0.95 -2.10 2.70 -2.80 3.90 -1.25 2.05 -1.65 2.50 -1.65 1.70z"/>
  <path d="M3 12.70 c0 -0.85 1.95 -5.10 2.50 -5.45 0.25 -0.15 0.20 0.45 -0.10 1.35 -0.70 1.95 -2.40 4.90 -2.40 4.10z"/>
  <path d="M6.25 11.50 c0.15 -0.70 1.05 -2.75 2 -4.60 1.75 -3.55 1.75 -3.70 0.25 -2.90 -0.80 0.45 -0.90 0.40 -0.70 -0.25 0.50 -1.25 -4.40 2.05 -5.55 3.75 -0.55 0.80 -1.30 1.50 -1.65 1.50 -0.80 0 3.20 -4.80 5.55 -6.70 1.30 -1.05 0.95 -0.95 -1.65 0.50 -1.80 0.95 -3.30 2 -3.40 2.25 -0.10 0.25 -0.40 0.45 -0.65 0.45 -0.90 0 -0.40 -1.05 1.40 -2.80 1.25 -1.15 1.55 -1.65 0.90 -1.45 -2.35 0.85 -2.75 0.85 -2.75 0.10 0 -1.30 3.65 -1.95 4.15 -0.70 0.20 0.45 0.30 0.45 0.30 0 0.05 -0.95 3.55 -0.85 3.55 0.10 0 0.40 0.45 0.75 1 0.75 0.55 0 1 -0.35 1 -0.75 0 -0.85 1.25 -1 1.75 -0.25 0.40 0.65 2.75 0.65 2.75 0 0 -0.25 0.35 -0.50 0.75 -0.50 0.55 0 0.20 0.80 -1.15 2.65 -1.10 1.40 -2.30 2.60 -2.75 2.60 -0.95 0 -2.70 1.55 -2.70 2.40 0 0.30 -0.65 1.60 -1.35 2.85 -0.90 1.45 -1.25 1.80 -1.05 1z"/>
  <path d="M36.15 7.25 c-1.25 -3 -1.40 -4.05 -0.70 -4.45 0.85 -0.55 2.50 3.05 2.40 5.20 -0.05 1.10 -0.20 2 -0.35 2 -0.15 0 -0.75 -1.25 -1.35 -2.75z"/>
  <path d="M33.85 6.90 c-0.45 -1.05 -0.85 -2.40 -0.85 -3 0.05 -0.95 0.20 -0.85 1.05 0.75 0.55 1.05 0.90 2.40 0.80 3 -0.15 0.95 -0.30 0.85 -1 -0.75z"/>
 </g>
 <g fill="#95b1e9">
  <path d="M26 38.40 c0 -1.80 0.20 -1.75 0.70 0.25 0.20 0.80 0.10 1.35 -0.20 1.35 -0.25 0 -0.50 -0.70 -0.50 -1.60z"/>
  <path d="M26.50 35.65 c0 -0.35 0.25 -1.15 0.55 -1.80 0.45 -1 0.40 -1.50 -0.35 -2.55 -0.75 -1.20 -0.75 -1.45 -0.15 -2.10 0.65 -0.60 0.80 -0.40 1.40 1.55 0.60 2.05 0.55 2.35 -0.40 3.85 -0.55 0.90 -1.05 1.40 -1.05 1.05z"/>
  <path d="M18.35 31.80 c-0.20 -0.50 -0.35 -1.25 -0.30 -1.70 0 -0.55 0.20 -0.45 0.50 0.35 0.25 0.65 0.40 1.45 0.30 1.75 -0.10 0.25 -0.30 0.10 -0.50 -0.40z"/>
  <path d="M20.50 25.10 c0 -0.20 0.80 -0.30 1.75 -0.20 0.95 0.10 1.75 0.30 1.75 0.40 0 0.10 -0.80 0.20 -1.75 0.20 -0.95 0 -1.75 -0.20 -1.75 -0.40z"/>
  <path d="M1.80 22.25 c1.20 -1.95 1.20 -2 1.20 -1.40 0 0.30 -0.45 1.05 -1.05 1.70 l-1 1.20 0.85 -1.50z"/>
  <path d="M27.60 20.40 c-0.70 -0.70 -0.80 -1.90 -0.15 -1.90 0.75 0 2.10 1.55 1.80 2.05 -0.40 0.60 -0.95 0.55 -1.65 -0.15z"/>
  <path d="M13.30 19.70 c-0.55 -1.40 -0.35 -1.70 1.20 -1.70 1.50 0 1.50 0 0.70 1.25 -0.95 1.45 -1.45 1.55 -1.90 0.45z"/>
  <path d="M20 20 c-0.55 -0.35 -0.60 -0.60 -0.15 -1.05 0.75 -0.75 2.40 -0.35 2.40 0.55 0 0.90 -1.20 1.20 -2.25 0.50z"/>
  <path d="M27.35 7.65 c-0.15 -0.15 -0.15 -0.55 0 -0.95 0.35 -0.90 1.65 -0.90 1.65 0 0 0.70 -1.20 1.45 -1.65 0.95z"/>
  <path d="M6.50 2.20 c1.20 -1.30 1.20 -1.30 0.15 -0.75 -1 0.50 -1.15 0.45 -1.15 -0.45 0 -0.75 0.35 -1 1.25 -1 0.70 0 1.25 0.25 1.25 0.55 0 0.40 0.25 0.35 0.80 -0.10 0.70 -0.55 0.75 -0.45 0.60 1.05 -0.15 1.65 -0.30 1.75 -2.15 1.90 l-1.95 0.15 1.20 -1.35z"/>
 </g>
 <g fill="#f5d8b3">
  <path d="M19 26.55 c0 -1.45 1 -1.90 3.65 -1.65 2.15 0.20 2.35 0.30 2.30 1.55 l0 1.30 -0.80 -1.10 c-1 -1.50 -3.65 -1.60 -4 -0.15 -0.35 1.25 -1.15 1.30 -1.15 0.05z"/>
  <path d="M15 12.40 c0 -0.20 0.75 -1.55 1.70 -3 1.75 -2.75 4.30 -5.45 4.30 -4.55 0 0.25 -0.60 1 -1.30 1.70 -0.75 0.65 -2.10 2.30 -3 3.70 -0.95 1.35 -1.70 2.35 -1.70 2.15z"/>
  <path d="M29.55 8.20 c-0.35 -0.40 -0.95 -0.65 -1.35 -0.50 -0.45 0.15 -0.70 -0.10 -0.70 -0.70 0 -0.55 0.30 -1 0.70 -1 0.40 0 0.80 -0.30 0.95 -0.60 0.35 -1.15 1.85 0.60 1.85 2.15 0 1.60 -0.40 1.80 -1.45 0.65z"/>
  <path d="M2.55 6.10 c2.60 -2.85 6.75 -6.10 7.90 -6.10 0.95 0 1.30 0.50 1.10 1.65 -0.10 0.55 0.65 0.45 1.30 -0.20 0.30 -0.30 0.80 -0.50 1.10 -0.40 0.70 0.25 -0.90 3.50 -1.90 3.80 -0.45 0.10 -1.45 0.60 -2.30 1.05 l-1.45 0.80 1.10 -1.85 c1.05 -1.85 0.90 -2.40 -0.35 -1.20 -0.50 0.45 -0.75 0.45 -0.90 0 -0.30 -0.75 -4.50 1.60 -5.50 3.15 -0.40 0.65 -1 1.20 -1.25 1.20 -0.30 0 0.25 -0.85 1.15 -1.90z"/>
  <path d="M12 6.60 c0 -0.65 3.85 -4.60 4.50 -4.60 0.75 0 -0.10 1.50 -1.60 2.75 -2.10 1.85 -2.90 2.40 -2.90 1.85z"/>
  <path d="M14.75 6.60 c-0.45 -0.45 2.35 -3.10 3.30 -3.10 1.40 0 0.55 1.65 -1.30 2.55 -0.95 0.45 -1.85 0.70 -2 0.55z"/>
  <path d="M0 4.90 c0 -0.35 1.05 -1.40 2.25 -2.35 1.25 -0.90 2.25 -1.85 2.25 -2.10 0 -0.25 0.80 -0.45 1.75 -0.45 2.20 0 2.25 0.65 0.15 1.55 -0.85 0.35 -2.65 1.40 -4 2.30 -1.35 0.95 -2.40 1.40 -2.40 1.05z"/>
  <path d="M0.90 1.10 c1.10 -1.10 2.60 -1.50 2.60 -0.65 0 0.25 -0.40 0.55 -0.85 0.70 -0.50 0.10 -1.35 0.40 -1.85 0.65 -0.85 0.35 -0.85 0.25 0.10 -0.70z"/>
 </g>
 <g fill="#f9f7e7">
  <path d="M26.80 31.20 c-0.55 -1.35 -0.35 -1.85 0.45 -1.20 0.80 0.70 1 2 0.30 2 -0.25 0 -0.60 -0.35 -0.75 -0.80z"/>
  <path d="M19 26.55 c0 -0.60 1.55 -2.15 1.85 -1.85 0.15 0.10 -0.25 0.70 -0.80 1.25 -0.60 0.60 -1.05 0.85 -1.05 0.60z"/>
  <path d="M24.60 14.45 c0.10 -0.30 0.40 -0.50 0.65 -0.50 0.25 0 0.55 0.20 0.65 0.50 0.10 0.30 -0.20 0.55 -0.65 0.55 -0.45 0 -0.75 -0.25 -0.65 -0.55z"/>
  <path d="M18.50 12.75 c0 -0.50 0.50 -0.75 1.30 -0.75 1.10 0 1.25 0.10 0.70 0.75 -0.35 0.40 -0.95 0.75 -1.30 0.75 -0.40 0 -0.70 -0.35 -0.70 -0.75z"/>
  <path d="M29.15 7.75 c-0.80 -0.60 -1.10 -0.60 -1.30 -0.10 -0.20 0.45 -0.30 0.45 -0.30 0 -0.05 -0.65 1.90 -2.90 2.15 -2.55 0.45 0.50 1.30 2.40 1.30 2.85 0 0.75 -0.60 0.70 -1.85 -0.20z"/>
  <path d="M18 7.65 c0 -0.25 0.60 -1 1.30 -1.70 1.20 -1.05 1.30 -1.10 0.80 -0.15 -0.65 1.25 -2.10 2.50 -2.10 1.85z"/>
  <path d="M12.50 6.10 c0 -0.60 3.45 -3.85 3.75 -3.50 0.15 0.15 -0.20 0.85 -0.80 1.60 -1.10 1.40 -2.95 2.60 -2.95 1.90z"/>
  <path d="M15.60 5.40 c0.30 -0.80 1.80 -1.70 2.20 -1.25 0.45 0.45 -0.75 1.85 -1.65 1.85 -0.40 0 -0.65 -0.25 -0.55 -0.60z"/>
  <path d="M10 4.30 c0 -0.85 1.45 -2.10 2.90 -2.50 2.10 -0.70 1.15 1.15 -1.25 2.35 -1.25 0.60 -1.65 0.60 -1.65 0.15z"/>
  <path d="M6.50 2.75 c0 -0.50 2.75 -2.70 3.40 -2.75 1.15 0 0.60 1 -1 2 -1.65 1 -2.40 1.25 -2.40 0.75z"/>
  <path d="M3.85 1.25 c0.90 -1.20 3.15 -1.75 3.15 -0.75 0 0.40 -3.05 2 -3.85 2 -0.10 0 0.20 -0.55 0.70 -1.25z"/>
 </g>
</svg>