<?xml version="1.0" encoding="utf-8"?>
<!DOCTYPE svg PUBLIC "-//W3C//DTD SVG 1.0//EN" "http://www.w3.org/TR/2001/REC-SVG-20010904/DTD/svg10.dtd">
<svg version="1.0" xmlns="http://www.w3.org/2000/svg" width="40px" height="40px" viewBox="0 0 40 40" preserveAspectRatio="xMidYMid meet">
 <g fill="#190d0e">
  <path d="M18.90 37.50 c-1 -0.80 -2.80 -3 -4.05 -4.90 -1.20 -1.85 -2.60 -3.65 -3.05 -4.05 -0.45 -0.35 -0.80 -1 -0.80 -1.35 0 -0.40 -0.20 -0.70 -0.50 -0.70 -0.25 0 -0.50 -0.55 -0.50 -1.25 0 -0.70 -0.20 -1.25 -0.50 -1.25 -0.25 0 -0.50 -0.80 -0.50 -1.75 0 -1.65 0.10 -1.75 1.75 -1.75 1.55 0 1.75 0.15 1.75 1.25 0 0.70 0.25 1.25 0.50 1.25 0.30 0 0.50 0.30 0.55 0.65 0 0.30 0.65 1.10 1.50 1.75 1.20 1 1.45 1.05 1.45 0.35 0 -0.65 0.40 -0.80 1.90 -0.65 1.70 0.15 1.85 0.30 2 1.80 0.10 0.85 0.35 1.60 0.65 1.60 0.25 0 0.45 0.70 0.45 1.50 0 1.20 0.20 1.50 1.05 1.50 0.60 0 1.15 0.40 1.30 1 0.30 1.20 1.75 1.30 2.65 0.25 0.55 -0.65 0.40 -0.75 -0.95 -0.75 -1.45 0 -1.55 -0.10 -1.55 -1.75 0 -0.95 0.25 -1.75 0.50 -1.75 0.30 0 0.50 -0.65 0.50 -1.50 0 -1.40 0.15 -1.50 1.75 -1.50 1.70 0 1.75 0.05 1.75 1.95 0 1.10 -0.25 2.05 -0.55 2.15 -0.30 0.10 -0.50 0.65 -0.35 1.15 0.15 0.85 0.65 0.50 3.05 -2 l2.85 -3 -2 -0.15 -2 -0.15 0 -2.75 0 -2.70 1.75 0 c1.20 0 1.75 -0.25 1.75 -0.75 0 -0.60 0.70 -0.75 3.25 -0.75 l3.25 0 0 5.50 c0 5.05 -0.10 5.50 -0.95 5.50 -0.90 0 -1.95 1 -7.30 6.90 l-2.40 2.60 -4.05 0 c-3.80 0 -4.20 -0.10 -5.90 -1.50z"/>
  <path d="M4.50 31.50 c0 -1.95 0.05 -2 1.75 -2 1.70 0 1.75 0.05 1.75 2 0 1.95 -0.05 2 -1.75 2 -1.70 0 -1.75 -0.05 -1.75 -2z"/>
  <path d="M3.40 19.40 c-0.15 -2 -0.25 -2.15 -1.75 -2.30 -1.50 -0.15 -1.65 -0.30 -1.65 -1.90 0 -1.40 0.20 -1.70 1.05 -1.70 0.65 0 1.20 -0.55 1.65 -1.60 1.70 -4.20 1.50 -4.85 -0.90 -2.65 -1.65 1.55 -1.80 1.55 -1.80 0.05 0 -1.75 3.20 -4.30 5.35 -4.30 1.45 0 1.65 0.15 1.65 1.35 l0 1.30 1.15 -1.05 c0.70 -0.65 1.80 -1.10 2.80 -1.10 1.65 0 1.65 0.05 1.45 2 -0.20 2.40 0.55 2.65 1.50 0.50 0.40 -0.85 1.20 -1.65 1.90 -1.80 1.80 -0.45 4.70 0.20 4.70 1.05 0 0.55 0.60 0.75 2.25 0.75 l2.25 0 0 -2.25 c0 -2.05 -0.10 -2.25 -1.25 -2.25 -1.10 0 -1.25 -0.20 -1.25 -1.75 l0 -1.75 2.70 0 c2 0 2.75 0.20 3 0.80 0.60 1.55 0.35 10.20 -0.30 10.20 -0.45 0 -0.45 0.15 0 0.60 0.35 0.35 0.60 1.90 0.60 3.50 l0 2.90 -1.70 0 c-1.20 0 -1.80 -0.25 -1.95 -0.85 -0.15 -0.55 -0.25 -0.35 -0.30 0.50 -0.05 1.20 -0.25 1.35 -1.80 1.35 -1.65 0 -1.75 -0.10 -1.75 -1.75 0 -1.70 0.05 -1.75 1.90 -1.75 l1.85 0 -1.25 -1 c-1.70 -1.35 -3 -1.70 -3.65 -1.05 -0.40 0.40 -0.40 0.70 0.05 1.15 0.35 0.35 0.60 1.35 0.60 2.25 0 1.55 -0.10 1.65 -1.70 1.65 -0.90 0 -1.95 -0.35 -2.30 -0.75 -0.35 -0.40 -1.35 -0.75 -2.25 -0.75 -1.20 0 -1.75 -0.25 -1.90 -0.85 -0.15 -0.50 -0.25 0.15 -0.30 1.50 -0.05 2.35 -0.05 2.35 -1.75 2.35 -1.20 0 -1.80 -0.25 -1.95 -0.85 -0.15 -0.60 -0.25 -0.45 -0.30 0.40 -0.05 1.45 -0.85 1.95 -3.05 1.95 -1.35 0 -1.45 -0.15 -1.60 -2.10z"/>
  <path d="M1.50 2.95 c0.55 -0.40 0.60 -0.60 0.15 -0.80 -0.35 -0.10 -0.65 -0.65 -0.65 -1.20 0 -0.75 0.35 -0.95 1.75 -0.95 1.65 0 1.75 0.10 1.75 1.75 0 1.70 -0.05 1.75 -1.85 1.75 -1.50 0 -1.75 -0.15 -1.15 -0.55z"/>
 </g>
 <g fill="#05301e">
  <path d="M20.85 35.15 c-0.20 -0.15 -0.35 -0.85 -0.35 -1.50 0 -0.90 -0.25 -1.15 -1.25 -1.15 -1.05 0 -1.35 -0.35 -2 -2.75 -0.45 -1.50 -0.75 -3.45 -0.65 -4.35 0.15 -1.50 0.30 -1.65 1.95 -1.80 l1.85 -0.15 0.25 2.40 c0.55 4.80 0.85 5.65 2.15 5.65 0.95 0 1.20 -0.25 1.20 -1.25 0 -0.85 0.30 -1.25 0.90 -1.30 0.50 0 0.60 -0.15 0.25 -0.30 -0.35 -0.10 -0.65 -0.65 -0.65 -1.15 0 -0.50 -0.45 -1 -1 -1.15 -0.75 -0.20 -1 -0.70 -1 -2.05 0 -1.75 0.05 -1.80 2 -1.80 1.65 0 2 0.20 2 0.95 0 0.60 0.45 1.05 1.25 1.25 1.10 0.30 1.25 0.60 1.25 2.55 0 1.25 -0.20 2.25 -0.50 2.25 -0.25 0 -0.50 0.80 -0.50 1.75 0 1.65 -0.10 1.75 -1.75 1.75 -1.55 0 -1.75 0.15 -1.75 1.25 0 1.10 -0.20 1.25 -1.65 1.25 -0.95 0 -1.85 -0.15 -2 -0.35z"/>
  <path d="M18 17.80 c0 -0.95 0.20 -1.25 0.65 -1 0.40 0.25 0.40 0.10 -0.10 -0.45 -0.60 -0.75 -0.50 -0.85 1.10 -0.85 2.20 0 3.35 -1.20 1.90 -1.95 -0.75 -0.40 -1.15 -0.35 -1.75 0.20 -0.40 0.40 -1.40 0.75 -2.25 0.75 -1.45 0 -1.55 -0.15 -1.55 -1.75 0 -1.25 0.20 -1.75 0.80 -1.75 0.40 0 0.65 -0.20 0.45 -0.45 -0.30 -0.55 1.65 -1.30 2.15 -0.85 0.15 0.20 -0.45 1 -1.35 1.85 -0.90 0.80 -1.55 1.60 -1.40 1.75 0.15 0.15 0.80 -0.30 1.50 -1 1.65 -1.65 2.95 -1.65 5.65 -0.05 2.05 1.20 2.10 1.30 1.85 3.35 -0.15 1.20 -0.40 2.30 -0.60 2.50 -0.15 0.15 -1.80 0.45 -3.65 0.65 l-3.40 0.35 0 -1.30z"/>
  <path d="M23.65 11.50 c-2.15 -0.95 -2.85 -2 -1.40 -2 1.30 0 3.75 1.50 3.75 2.25 0 0.90 0.20 0.95 -2.35 -0.25z"/>
 </g>
 <g fill="#551110">
  <path d="M26 37.50 c0 -1.10 0.25 -2 0.50 -2 0.30 0 0.50 0.50 0.50 1.10 l0 1.05 1.25 -1.15 1.25 -1.15 0 2.05 c0 2.05 -0.05 2.10 -1.75 2.10 -1.70 0 -1.75 -0.05 -1.75 -2z"/>
  <path d="M19.50 36.20 c0 -0.70 0.15 -0.75 0.90 -0.15 0.45 0.35 0.95 0.75 1.05 0.80 0.10 0.10 -0.25 0.15 -0.85 0.15 -0.70 0 -1.10 -0.30 -1.10 -0.80z"/>
  <path d="M20.50 34.70 l-1.25 -1.35 1.90 0.35 c2.05 0.40 2.45 0 0.75 -0.70 -0.95 -0.35 -0.70 -0.45 1.25 -0.45 l2.40 -0.05 -0.15 1.65 c-0.15 1.45 -0.35 1.60 -1.90 1.75 -1.40 0.10 -2.05 -0.15 -3 -1.20z"/>
  <path d="M23.50 31.25 c0 -0.60 -0.20 -0.65 -0.95 -0.25 -0.55 0.25 -1.75 0.50 -2.70 0.50 -2 0 -2.40 -0.60 -2.30 -3.65 0.05 -1.15 0.15 -1.65 0.30 -1.10 0.50 2.10 1.25 2 1.05 -0.10 l-0.20 -2.15 2.70 0 c2.20 0 2.85 0.20 3.85 1.30 0.70 0.75 1.25 1.55 1.25 1.75 0 0.25 0.25 0.45 0.50 0.45 0.65 0 0.65 -1.35 0 -1.65 -0.30 -0.15 -0.25 -0.20 0.10 -0.15 0.85 0.15 1.10 3.45 0.40 4.80 -0.65 1.25 -4 1.45 -4 0.25z"/>
  <path d="M20.50 17.75 c0 -0.95 0.20 -1.75 0.50 -1.75 0.25 0 1 -0.55 1.65 -1.20 l1.20 -1.20 -1.60 -0.75 c-1.50 -0.70 -1.70 -0.70 -3 0.35 -1.35 1.10 -1.40 1.15 -0.35 1.40 0.85 0.25 1.05 0.65 1 2.10 -0.05 1.80 -0.10 1.85 -1.85 1.70 -1.45 -0.10 -1.85 -0.40 -1.95 -1.25 -0.10 -0.70 -0.50 -1.15 -1.05 -1.15 -1.30 0 -1.45 -4.10 -0.15 -5.40 0.55 -0.55 1.20 -1.05 1.50 -1.15 0.30 -0.10 0.65 -0.85 0.80 -1.65 0.40 -2.10 1.70 -3.30 3.70 -3.30 1.70 0 1.70 0 1.50 1.95 -0.15 1.85 -0.05 2 1.20 2.15 1.30 0.20 1.40 0.10 1.40 -1.45 0 -1.55 0.10 -1.65 1.75 -1.65 1.70 0 1.75 0.05 1.75 2 0 1.40 -0.20 2 -0.70 2 -0.40 0 -0.80 -0.25 -0.90 -0.60 -0.15 -0.35 -0.35 -0.30 -0.55 0.25 -0.15 0.45 -0.10 0.85 0.15 0.85 0.30 0 0.50 0.80 0.50 1.75 0 0.95 0.25 1.75 0.50 1.75 0.30 0 0.50 0.75 0.50 1.65 0 1.45 -0.25 1.80 -2 2.65 -1.10 0.50 -2 1.10 -2 1.35 0 0.20 -0.80 0.35 -1.75 0.35 -1.65 0 -1.75 -0.10 -1.75 -1.75z m6.50 -3.40 c0 -0.90 -1.25 -1.90 -3.60 -3 -1.05 -0.45 -1.90 -1.05 -1.90 -1.35 0 -0.25 -0.35 -0.50 -0.75 -0.50 -0.85 0 -4.45 3.45 -4.05 3.90 0.20 0.15 0.75 -0.20 1.30 -0.80 0.65 -0.70 1.60 -1.10 2.65 -1.10 1.80 0.05 5.65 2.10 5.50 2.95 -0.10 0.30 0.10 0.55 0.35 0.55 0.30 0 0.50 -0.30 0.50 -0.65z"/>
  <path d="M2 17.50 c0 -0.25 -0.45 -0.50 -1 -0.50 -0.65 0 -1 -0.35 -1 -0.95 0 -0.75 0.35 -0.95 1.75 -0.90 1.55 0.05 1.75 0.20 1.75 1.45 0 0.90 -0.25 1.40 -0.75 1.40 -0.40 0 -0.75 -0.20 -0.75 -0.50z"/>
 </g>
 <g fill="#352323">
  <path d="M3 39.25 c0 -0.40 0.20 -0.75 0.40 -0.75 0.25 0 0.60 -2.10 0.75 -4.60 0.30 -4.10 0.75 -6.40 2.10 -10.75 0.30 -1 0.20 -1.15 -1.05 -1.15 -1.15 0 -1.65 0.40 -2.25 1.65 -0.85 1.75 -2.95 2.55 -2.95 1.10 0 -0.95 2.45 -4.75 3.05 -4.75 0.55 0 0.55 -1.55 0 -2.40 -0.20 -0.35 -0.80 -0.70 -1.25 -0.80 -1.90 -0.25 -2.45 -3.15 -0.70 -3.40 0.85 -0.10 1.35 -0.80 2.05 -2.65 0.50 -1.35 1.30 -2.95 1.75 -3.45 0.50 -0.55 0.05 -0.40 -1 0.40 -1.50 1.15 -1.90 1.25 -1.90 0.60 0 -0.45 -0.25 -0.80 -0.55 -0.80 -0.40 0 -0.40 -0.25 0.05 -0.75 0.50 -0.65 0.45 -0.75 -0.45 -0.75 -1.35 0 -1.40 -1.55 -0.05 -2.50 1.20 -0.85 1.30 -1.50 0.25 -1.50 -0.40 0 -0.75 -0.45 -0.75 -1 0 -0.80 0.35 -1 1.75 -1 1.75 0 1.75 0 1.75 2.25 0 2.05 0.10 2.25 1.20 2.25 0.75 0 1.30 -0.35 1.45 -1 0.20 -0.80 0.70 -1 2.30 -1 1.70 0 2.05 0.15 2.05 1 0 0.65 0.35 1 1 1 0.85 0 1 0.35 1 1.95 0 1.10 -0.25 2.10 -0.60 2.20 -0.40 0.15 -0.30 0.30 0.25 0.30 0.45 0.05 0.85 -0.25 0.85 -0.60 0 -1.05 1.90 -2.35 3.50 -2.35 1.20 0 1.50 0.20 1.50 1.05 0 0.55 -0.25 1.45 -0.50 2 -0.65 1.15 -0.35 1.25 0.70 0.15 0.65 -0.65 0.80 -0.65 0.80 -0.05 0 0.85 -1.40 2.15 -1.85 1.65 -0.40 -0.40 -2.15 2.20 -2.10 3.20 0 0.50 0.10 0.55 0.30 0.15 0.10 -0.35 0.55 -0.65 0.90 -0.65 0.40 0 0.95 -0.40 1.20 -0.85 0.40 -0.75 0.50 -0.55 0.55 1 0 1.65 0.15 1.85 1.25 1.85 1.10 0 1.25 0.20 1.25 1.75 0 1.65 -0.10 1.75 -1.75 1.75 -1.55 0 -1.75 -0.15 -1.75 -1.25 0 -0.95 0.20 -1.15 0.90 -0.90 0.75 0.30 0.75 0.25 0.20 -0.50 -0.65 -0.75 -0.75 -0.75 -1.75 0.15 -0.65 0.65 -1.75 1 -2.95 1 -1.05 0 -1.90 0.20 -1.90 0.50 0 1.40 1.15 5.50 1.55 5.50 0.25 0 0.45 0.70 0.45 1.50 0 0.90 0.25 1.50 0.65 1.50 0.95 0 3.75 1.45 4.20 2.15 0.40 0.60 0.45 0.85 0.60 2 0.05 0.35 0.30 0.25 0.60 -0.25 0.75 -1.35 1.95 -1.10 1.95 0.35 0 0.70 0.25 1.25 0.50 1.25 0.30 0 0.50 0.30 0.50 0.70 0 0.45 -0.40 0.65 -1.10 0.45 -1.10 -0.20 -1.15 -0.20 -0.20 0.55 1.10 0.90 2.55 1.10 2.05 0.30 -0.20 -0.30 0.40 -0.50 1.45 -0.50 1 0 1.80 0.25 1.80 0.55 0 0.25 0.30 0.35 0.65 0.15 0.50 -0.30 0.50 -0.20 0 0.35 -0.75 0.80 -0.85 2.75 -0.15 3.20 0.30 0.15 0.50 0.05 0.50 -0.25 0 -0.60 5.40 -6.95 7.25 -8.60 0.55 -0.45 1.40 -0.85 1.90 -0.90 0.45 0 0.85 -0.35 0.85 -0.75 0 -0.40 0.30 -0.75 0.70 -0.75 0.50 0 0.80 1 1.05 3.50 0.40 4.10 -0.05 5 -2.55 5 -1.60 0 -1.70 -0.10 -1.70 -1.75 0 -1.40 -0.20 -1.75 -1 -1.75 -0.80 0 -1 0.35 -1 1.50 0 1.25 -0.20 1.50 -1.25 1.50 -1.05 0 -1.25 0.25 -1.25 1.40 0 1.85 -0.85 2.60 -2.80 2.60 -1.65 0 -2.20 -0.65 -2.20 -2.65 0 -0.80 -0.15 -0.90 -0.60 -0.45 -0.35 0.35 -1.30 0.60 -2.15 0.60 -1.30 0 -2.05 -0.55 -4.35 -3.10 -3.80 -4.25 -6.40 -7 -5.10 -5.40 0.55 0.70 1.95 2.65 3.10 4.40 l2.10 3.10 -1.50 0 c-1.35 0 -1.50 -0.15 -1.50 -1.50 0 -1.15 -0.20 -1.50 -1 -1.50 -0.55 0 -1 -0.30 -1 -0.70 0 -0.40 -0.35 -0.80 -0.75 -1 -0.40 -0.15 -0.75 -0.85 -0.75 -1.55 0 -0.90 -0.25 -1.25 -1 -1.25 -0.55 0 -1 -0.35 -1 -0.75 0 -0.40 -0.20 -0.75 -0.40 -0.75 -0.65 0 -1.70 3.80 -2 7.15 -0.20 2.40 -0.10 2.85 0.60 2.85 0.60 0 0.80 0.45 0.80 1.80 0 1.65 -0.10 1.75 -0.85 1.15 -0.45 -0.40 -1.20 -1.60 -1.70 -2.70 -0.85 -1.80 -0.95 -1.85 -0.95 -0.65 0 0.70 -0.40 2 -0.85 2.85 -0.95 1.60 -2.15 2.05 -2.15 0.80z m3.50 -20.35 c0 -0.65 -1.15 -0.25 -1.40 0.50 -0.10 0.35 0.10 0.50 0.60 0.30 0.45 -0.15 0.80 -0.55 0.80 -0.80z m3.70 -4.10 c0.20 -0.70 0.40 -0.85 0.90 -0.45 0.45 0.40 0.85 0.35 1.30 -0.15 0.55 -0.60 0.50 -0.70 -0.20 -0.70 -0.75 0 -0.70 -0.20 0.35 -1.35 0.65 -0.80 0.10 -0.40 -1.20 0.85 -2.75 2.55 -4.10 4.50 -2.40 3.40 0.55 -0.30 1.10 -1.05 1.25 -1.60z m-4.85 -2.40 c0.30 -0.35 0.65 -1.30 0.85 -2.10 0.30 -1.20 0.25 -1.35 -0.30 -0.95 -0.35 0.35 -1.05 1.25 -1.55 2.10 -0.75 1.25 -0.75 1.55 -0.20 1.55 0.40 0 0.95 -0.30 1.20 -0.60z m3.20 -1 c0.35 -0.90 1.05 -2.30 1.60 -3.15 l1 -1.50 -1.60 1.50 c-1.45 1.30 -3.05 3.70 -3.05 4.50 0 0.15 0.30 0.25 0.70 0.25 0.35 0 0.95 -0.75 1.35 -1.60z m8.10 -2.65 c0.55 -0.80 0.65 -1.15 0.25 -1 -0.75 0.30 -2.10 2.25 -1.55 2.25 0.25 0 0.80 -0.60 1.30 -1.25z"/>
  <path d="M21.50 39 c0 -0.25 -0.45 -0.50 -1 -0.50 -0.80 0 -1 -0.35 -1 -1.55 l0 -1.50 1.45 1 c0.80 0.60 2.15 1.05 3 1.05 1.20 0 1.55 0.20 1.55 1 0 0.85 -0.35 1 -2 1 -1.10 0 -2 -0.20 -2 -0.50z"/>
  <path d="M29 31.65 c0 -1.65 0.80 -2.65 2.15 -2.65 1.20 0 2.35 -1.15 2.35 -2.35 0 -0.80 -0.30 -0.90 -2 -0.75 l-2 0.20 0 -4.55 0 -4.55 1.70 0 c0.95 0 1.80 0.20 1.90 0.50 0.10 0.25 0.40 -0.10 0.75 -0.75 0.50 -1.10 0.45 -1.25 -0.35 -1.25 -0.50 0 -1.05 -0.40 -1.15 -0.85 -0.20 -0.85 -0.25 -0.85 -0.30 0 -0.05 0.55 -0.45 0.85 -1.30 0.85 -0.70 0 -1.25 0.25 -1.25 0.55 0 0.30 -0.50 1.10 -1.10 1.75 -1.55 1.60 -4.90 1.70 -4.90 0.20 0 -0.65 0.65 -1.40 1.75 -2.05 0.95 -0.60 1.75 -1.30 1.75 -1.60 -0.05 -1.05 -1.95 -2.95 -2.55 -2.55 -0.40 0.25 -0.45 0.15 -0.20 -0.30 0.30 -0.50 0.20 -0.60 -0.40 -0.35 -0.50 0.20 -0.80 0.10 -0.70 -0.25 0.05 -0.30 -0.65 -0.80 -1.50 -1.05 -2.45 -0.75 -2.10 -1.75 0.75 -1.95 2.35 -0.15 2.35 -0.15 2.50 -2 0.15 -1.90 0.15 -1.90 -1.65 -1.90 -1.80 0 -1.80 0 -1.65 -1.85 l0.15 -1.90 3.15 0.05 c1.70 0.05 3.30 0.20 3.50 0.40 0.20 0.20 0.35 2.05 0.35 4.10 -0.05 3.45 0.05 3.70 1.05 3.70 0.60 0 1.30 0.50 1.60 1.10 l0.55 1.15 0 -1.10 c0.05 -0.80 0.35 -1.15 1.05 -1.15 0.55 0 1 -0.35 1 -0.75 0 -0.40 -0.20 -0.75 -0.50 -0.75 -0.25 0 -0.50 -0.35 -0.50 -0.75 0 -0.45 -0.45 -0.75 -1.15 -0.75 -0.85 0 -1.30 -0.45 -1.75 -1.65 -0.35 -0.90 -0.60 -2.15 -0.60 -2.75 0 -0.90 0.30 -1.10 1.75 -1.10 1.20 0 1.85 0.30 2.25 1 0.30 0.55 1 1 1.50 1 0.65 0 1 -0.35 1 -1 0 -0.85 0.35 -1 2 -1 l2 0 0 2 c0 1.95 -0.05 2 -1.75 2 -1.40 0 -1.75 0.20 -1.75 0.95 0 0.55 0.25 1.05 0.50 1.15 0.30 0.10 0.75 1.45 1 3.05 0.30 1.55 0.70 4.15 1 5.75 0.75 4.25 0.65 6.60 -0.25 6.60 -0.40 0 -0.75 -0.40 -0.80 -0.85 0 -0.50 -0.50 0.60 -1.10 2.40 -1.05 3.15 -4.30 7.50 -6.90 9.35 -0.85 0.60 -0.95 0.55 -0.95 -0.75z m6 -9.85 c0.20 -1.05 0.20 -1.80 -0.05 -1.80 -0.25 0 -0.45 0.40 -0.45 0.90 0 0.45 -0.15 1.40 -0.35 2.10 -0.15 0.70 -0.15 1.10 0.05 0.90 0.20 -0.15 0.55 -1.15 0.80 -2.10z"/>
  <path d="M23.50 30.80 c0 -0.95 0.30 -1.85 0.65 -1.95 0.30 -0.15 -0.15 -0.30 -1 -0.30 -1.75 -0.05 -2.35 -1.05 -0.65 -1.05 0.65 0 0.90 -0.25 0.70 -0.75 -0.20 -0.40 -0.60 -0.75 -1 -0.75 -0.40 0 -0.70 -0.25 -0.70 -0.55 0 -0.75 6.10 -0.10 6.60 0.70 0.70 1.10 0.45 3.85 -0.35 3.85 -0.45 0 -0.75 0.45 -0.75 1.25 0 1.10 -0.20 1.25 -1.75 1.25 -1.65 0 -1.75 -0.10 -1.75 -1.70z m2.70 -0.95 c-0.10 -2.50 -0.25 -2.70 -0.75 -1.40 -0.45 1.20 -0.20 3.05 0.45 3.05 0.20 0 0.30 -0.75 0.30 -1.65z m1.30 -2.55 c0 -0.40 -0.35 -0.80 -0.75 -1 -0.85 -0.30 -0.90 -0.20 -0.45 0.90 0.40 1 1.20 1.05 1.20 0.10z"/>
  <path d="M19.35 23.65 c-0.20 -0.15 -0.35 -1.05 -0.35 -1.90 0 -1.40 0.20 -1.65 1.55 -1.95 3.35 -0.65 3.95 -0.45 3.95 1.35 0 0.90 -0.25 1.90 -0.60 2.25 -0.65 0.65 -4 0.85 -4.55 0.25z"/>
  <path d="M24 15.50 c0.50 -0.30 0.55 -0.50 0.15 -0.50 -0.35 0 -0.65 -0.30 -0.65 -0.70 0 -0.35 -0.65 -0.95 -1.50 -1.30 -1.60 -0.65 -2 -1.50 -0.75 -1.50 0.85 0 4.65 1.90 5 2.50 0.30 0.45 -1.65 2 -2.50 2 -0.25 0 -0.15 -0.25 0.25 -0.50z"/>
 </g>
 <g fill="#14583b">
  <path d="M23.85 33.15 c-0.20 -0.15 -0.35 -1.05 -0.35 -1.95 0 -1.85 1.35 -2.80 1.60 -1.10 0.10 0.60 0.40 1.15 0.70 1.25 0.35 0.10 0.50 -0.25 0.35 -1 -0.15 -0.70 0.10 -1.45 0.55 -1.80 1 -0.85 1 -1.85 0.05 -2.25 -0.45 -0.15 -0.75 0 -0.75 0.45 0 1.20 -0.85 1.30 -2.15 0.25 -1.55 -1.25 -3.30 -1.30 -4.15 -0.10 -0.60 0.75 -0.65 0.70 -0.70 -0.55 0 -0.80 -0.20 -1.30 -0.50 -1.10 -0.65 0.40 -0.65 2.60 0 3 1 0.60 0.45 1.25 -1 1.25 -1.45 0 -1.50 -0.05 -1.50 -2.45 0 -3.80 0.90 -4.55 5.90 -4.90 2.75 -0.15 4.10 -0.05 4.10 0.30 0 0.30 0.30 0.55 0.65 0.55 2.05 0 3.95 6.10 2.15 6.80 -0.45 0.15 -0.80 0.70 -0.80 1.20 0 1.85 -0.60 2.50 -2.20 2.50 -0.90 0 -1.80 -0.15 -1.95 -0.35z"/>
  <path d="M18.50 18.50 c0 -0.25 -0.35 -0.50 -0.75 -0.50 -0.50 0 -0.75 -0.55 -0.75 -1.75 0 -1.65 0.10 -1.75 1.75 -1.75 0.95 0 1.75 0.25 1.75 0.50 0 0.30 0.45 0.50 1 0.50 0.70 0 1.05 -0.45 1.25 -1.70 l0.35 -1.70 1.45 0.80 c1.80 1.05 1.85 1.90 0.05 2.80 -0.80 0.40 -1.75 1.15 -2.15 1.60 -0.55 0.75 -0.45 0.75 0.80 -0.10 2.50 -1.70 2.75 -1.80 2.75 -1 0 0.40 -0.45 0.90 -1 1.05 -0.55 0.15 -1 0.65 -1 1.05 0 0.50 -0.70 0.70 -2.75 0.70 -1.50 0 -2.75 -0.20 -2.75 -0.50z m0.45 -1.95 c-0.65 -0.55 -1.30 -0.85 -1.45 -0.70 -0.30 0.30 1.50 1.65 2.15 1.65 0.25 0 -0.05 -0.45 -0.70 -0.95z"/>
 </g>
 <g fill="#522f2f">
  <path d="M2.50 38.75 c0 -0.70 0.35 -1.40 0.75 -1.55 0.55 -0.25 0.75 -1.10 0.80 -3.15 0 -2.45 0.70 -6.90 1.75 -11.15 0.30 -1.25 0.20 -1.40 -0.95 -1.40 -0.70 0 -1.60 -0.15 -2.05 -0.30 -0.70 -0.25 -0.70 -0.40 -0.05 -1.35 0.95 -1.35 0.95 -1.85 0 -1.85 -0.40 0 -0.75 -0.35 -0.75 -0.75 0 -0.40 -0.30 -0.60 -0.70 -0.45 -0.45 0.15 -0.80 -0.20 -1 -1.05 -0.40 -1.50 -0.05 -2.25 1.05 -2.25 0.45 0 1.25 -0.50 1.80 -1.10 0.75 -0.85 0.90 -0.90 0.70 -0.25 -0.40 1.10 1.40 1.20 1.85 0.10 0.15 -0.40 0.50 -0.75 0.75 -0.75 0.30 0 0.40 0.30 0.25 0.70 -0.15 0.40 -0.05 0.85 0.25 1.05 0.30 0.15 0.90 -0.50 1.40 -1.50 0.80 -1.65 1.05 -1.80 2.45 -1.60 1.40 0.25 1.65 0.10 1.85 -0.95 0.20 -1 0 -1.20 -1.05 -1.20 -1 0 -1.15 -0.15 -0.70 -0.60 0.95 -0.95 0.70 -1.65 -0.30 -0.75 -1.30 1.20 -3.30 1.15 -2.90 0 0.25 -0.75 0.20 -0.75 -0.45 0.05 -0.70 0.95 -0.75 0.90 -0.75 -0.85 0 -1.50 0.20 -1.85 1 -1.85 0.70 0 0.90 0.25 0.65 0.90 -0.30 0.80 -0.25 0.80 0.70 -0.05 0.55 -0.45 1.80 -0.85 2.80 -0.85 1.85 0 1.85 0 1.85 2.05 0 2 0.05 2.05 1.50 1.85 1.35 -0.20 1.45 -0.15 0.75 0.60 -0.40 0.45 -0.75 1.15 -0.75 1.55 0 0.40 0.80 -0.15 1.75 -1.20 0.95 -1.05 1.75 -2.35 1.75 -2.95 0 -0.55 0.55 -1.65 1.25 -2.50 0.70 -0.80 1.25 -1.75 1.25 -2.10 0 -0.40 1 -0.80 2.65 -1 4 -0.45 4.35 -0.40 4.35 0.70 0 0.55 0.25 1 0.50 1 0.65 0 0.65 2.80 0 4.05 -0.45 0.85 -0.35 0.95 0.90 0.95 1.25 0 1.50 0.25 1.80 1.55 0.15 0.85 0.30 2.15 0.35 2.90 0.05 1.25 0.10 1.20 0.55 -0.30 0.35 -1.10 0.85 -1.65 1.45 -1.65 0.55 0 0.95 -0.35 0.95 -0.75 0 -0.40 -0.20 -0.75 -0.50 -0.75 -0.25 0 -0.50 -0.65 -0.50 -1.50 0 -1.20 -0.25 -1.55 -1.35 -1.80 -1.90 -0.50 -2.65 -1.35 -2.65 -3.15 0 -1.45 0.10 -1.55 1.95 -1.55 1.25 0 2.05 0.25 2.25 0.75 0.15 0.40 0.70 0.75 1.25 0.75 0.75 0 1.05 0.40 1.20 1.65 0.20 1.55 0.20 1.55 0.25 -0.25 0.10 -2.05 0.70 -2.45 1.60 -1 0.55 0.80 0.55 0.80 0.30 0 -0.20 -0.65 0 -0.90 0.70 -0.90 0.80 0 1 0.35 1 1.75 0 1.60 -0.10 1.75 -1.50 1.75 -1.25 0 -1.50 0.20 -1.50 1.25 0 0.70 0.20 1.25 0.45 1.25 0.25 0 0.55 0.85 0.70 1.90 0.15 1 0.50 3.90 0.85 6.35 0.55 3.85 0.50 4.90 -0.15 7.25 l-0.75 2.75 -0.10 -3 -0.05 -3 -0.90 3.10 c-0.50 1.70 -1.55 3.95 -2.35 5 -1.40 1.85 -1.45 1.85 -1.60 0.65 -0.10 -0.70 -0.40 -1.75 -0.70 -2.35 -0.30 -0.60 -0.45 -1.75 -0.30 -2.60 0.10 -0.80 0.05 -1.40 -0.20 -1.25 -0.20 0.15 -0.40 -0.60 -0.45 -1.65 0 -1.05 -0.15 -1.60 -0.30 -1.25 -0.10 0.30 -0.65 0.60 -1.20 0.60 -0.50 0 -0.95 -0.30 -0.95 -0.60 0 -0.45 -0.75 -0.60 -2.50 -0.50 -2.25 0.20 -2.50 0.10 -2.50 -0.85 0 -0.65 0.55 -1.30 1.55 -1.80 2 -1.05 2.40 -0.65 0.65 0.70 -0.75 0.55 -1.10 1.05 -0.85 1.05 0.25 0 0.95 -0.50 1.55 -1.15 l1.10 -1.20 -1.35 -1.80 c-0.80 -0.95 -1.95 -2.05 -2.65 -2.45 -1.20 -0.60 -1.20 -0.65 0.90 -0.80 l2.10 -0.15 0.10 -2.60 c0.15 -5.90 -0.80 -7.50 -3.35 -5.70 -0.80 0.65 -0.75 0.70 0.65 0.45 1.30 -0.15 1.65 0 2 0.95 0.25 0.65 0.30 2.35 0.15 3.70 -0.30 2.40 -0.40 2.50 -1.90 2.65 -0.95 0.10 -1.65 -0.05 -1.65 -0.35 0 -0.30 0.35 -0.55 0.75 -0.55 0.40 0 0.75 -0.45 0.75 -1 0 -0.55 -0.30 -1 -0.60 -1 -0.85 0.05 -2.90 1.75 -2.90 2.45 0 0.30 -0.25 0.55 -0.60 0.55 -0.30 0 -1 0.35 -1.50 0.85 -1.10 1 -1.75 0.55 -0.65 -0.50 0.40 -0.45 0.75 -0.95 0.75 -1.15 0 -0.20 0.40 -0.85 0.90 -1.45 0.45 -0.60 0 -0.15 -1.05 0.95 -1.05 1.10 -2.35 2.90 -2.85 3.90 -0.90 1.85 -0.90 1.90 0.05 2.40 0.75 0.40 0.95 0.35 0.95 -0.25 0 -0.40 0.45 -0.75 1 -0.75 0.75 0 1 0.35 1 1.30 0 0.95 -0.20 1.25 -0.75 1 -0.45 -0.15 -0.75 -0.05 -0.70 0.35 0.25 2.10 0 2.35 -2.55 2.35 -2.30 0 -2.50 0.10 -2.50 1.25 0 1.45 1 3.85 1.85 4.40 0.35 0.20 0.75 1.15 0.95 2.10 0.25 1.40 0.55 1.75 1.50 1.75 1 0 1.20 0.25 1.20 1.50 0 0.85 0.25 1.50 0.50 1.50 0.30 0 0.50 -0.25 0.50 -0.60 0 -0.30 0.35 -0.15 0.75 0.40 0.65 0.80 0.70 0.80 0.45 0.10 -0.25 -0.70 -0.05 -0.90 1 -0.90 1.10 0 1.30 0.20 1.30 1.50 0 1 -0.25 1.50 -0.75 1.50 -0.40 0 -0.75 0.25 -0.75 0.50 0 0.30 0.35 0.50 0.75 0.50 0.40 0 0.75 0.45 0.75 1 0 1 -0.05 1 -1.25 0.20 -1.10 -0.70 -5.90 -6.15 -8.95 -10.05 -0.50 -0.70 -1.10 -1.95 -1.30 -2.80 -0.40 -1.55 -0.40 -1.55 -0.45 -0.25 -0.05 0.90 0.75 2.40 2.35 4.50 1.35 1.75 3.15 4.20 4.05 5.55 l1.60 2.35 -1.55 0 c-1 0 -1.50 -0.25 -1.50 -0.75 0 -0.40 -0.20 -0.75 -0.50 -0.75 -0.25 0 -0.50 -0.80 -0.50 -1.75 0 -1.55 -0.15 -1.75 -1.25 -1.75 -0.90 0 -1.40 -0.35 -1.70 -1.20 -0.80 -2 -1.85 -1.95 -2.50 0.15 -0.30 1.05 -0.55 2.30 -0.55 2.75 0 0.45 -0.20 0.80 -0.50 0.80 -0.75 0 -0.60 1.45 0.25 2.30 0.75 0.80 1.05 4.20 0.35 4.20 -0.20 0 -0.75 -0.65 -1.25 -1.45 -1.25 -2.10 -1.10 -5.85 0.35 -11.05 0.30 -1.10 0.25 -1.15 -0.25 -0.35 -0.75 1.25 -1.85 7.80 -1.60 9.65 0.10 0.90 -0.20 2.10 -0.80 3.10 -1.25 1.95 -2.55 2.15 -2.55 0.35z m33 -18.20 c0.30 -1.50 0.40 -2.80 0.25 -2.95 -0.35 -0.35 -1.05 1.80 -1.50 4.40 -0.50 3.25 0.60 1.95 1.25 -1.45z m-29.20 -0.75 c0.45 -0.45 0.50 -0.85 0.20 -1.05 -0.70 -0.40 -1.50 0.15 -1.50 1.05 0 0.90 0.40 0.90 1.30 0z m4 -3 c-0.35 -2.10 -0.25 -2.25 1.75 -4 1.15 -1 2 -1.90 1.85 -2.05 -0.10 -0.15 -1.75 1.35 -3.65 3.25 -1.85 1.95 -3.25 3.70 -3.05 3.85 0.15 0.20 0.65 -0.15 1.10 -0.75 0.80 -1.15 1.70 -1.05 1.70 0.20 0 0.40 -0.35 0.70 -0.80 0.70 -0.40 0 -0.60 0.25 -0.45 0.50 0.15 0.30 0.65 0.50 1.10 0.50 0.60 0 0.70 -0.40 0.45 -2.20z m-4.05 -0.30 c0.15 -0.25 0.05 -0.50 -0.20 -0.50 -0.30 0 -0.55 -0.20 -0.55 -0.50 0 -0.25 0.35 -0.50 0.75 -0.50 0.40 0 0.75 -0.20 0.75 -0.45 0 -0.20 -0.80 -0.35 -1.75 -0.20 -1 0.10 -1.75 -0.05 -1.75 -0.35 0 -0.85 -0.70 -0.55 -1.40 0.55 -0.65 1 -0.60 1.05 0.65 0.75 1.10 -0.30 1.40 -0.15 1.60 0.70 0.30 1.05 1.35 1.35 1.90 0.50z m30.80 -1.25 c0.30 0.70 0.35 0.45 0.15 -0.75 -0.60 -3.25 -1.15 -3.40 -1.10 -0.25 0 1.75 0.15 2.35 0.30 1.50 0.20 -1.35 0.25 -1.40 0.65 -0.50z m-2.75 -3.55 c-0.20 -1 -0.50 -1.70 -0.65 -1.50 -0.15 0.15 -0.10 1.05 0.05 2.10 0.20 1 0.50 1.70 0.65 1.50 0.15 -0.15 0.10 -1.05 -0.05 -2.10z m1.80 -1.60 c0.15 -0.45 0.05 -1.30 -0.15 -1.85 -0.30 -0.75 -0.40 -0.55 -0.40 0.90 -0.05 2 0.20 2.40 0.55 0.95z"/>
  <path d="M17 38.25 c0 -1.40 0.20 -1.75 1 -1.75 0.60 0 1 -0.35 1 -0.80 0 -0.70 0.15 -0.70 0.75 -0.20 0.45 0.35 0.75 1.45 0.75 2.55 0 1.90 -0.05 1.95 -1.75 1.95 -1.65 0 -1.75 -0.10 -1.75 -1.75z"/>
  <path d="M22.85 39.65 c-0.60 -0.55 -0.40 -2.05 0.30 -2 1.90 0.05 2.85 -0.25 2.85 -0.90 0 -1.15 0.85 -0.90 1.15 0.30 0.25 0.95 0.70 0.55 3.35 -2.70 3 -3.75 5.65 -6.35 6.50 -6.35 0.25 0 0.55 0.40 0.65 0.90 0.20 0.65 0.25 0.55 0.30 -0.25 0.15 -2.75 2.05 -0.35 2.05 2.55 0 3.15 -0.75 4.30 -2.75 4.30 -0.95 0 -1.75 -0.25 -1.75 -0.50 0 -0.30 -1 0.05 -2.25 0.75 -1.25 0.70 -2.75 1.25 -3.25 1.25 -0.80 0 -1 0.35 -1 1.50 0 1.50 0 1.50 -2.90 1.50 -1.60 0 -3.10 -0.15 -3.25 -0.35z m15.65 -7.70 c0 -0.25 -0.35 -0.30 -0.75 -0.15 -0.40 0.20 -0.75 0.65 -0.75 1.05 0 0.65 0.15 0.65 0.75 0.15 0.40 -0.35 0.75 -0.80 0.75 -1.05z"/>
  <path d="M22.40 27.65 c1.35 -0.25 1.45 -1.15 0.10 -1.50 -0.55 -0.15 -1 -0.60 -1 -1 0 -0.60 0.35 -0.70 1.60 -0.45 3.70 0.75 3.90 3.35 0.30 3.25 -1.20 -0.05 -1.65 -0.20 -1 -0.30z"/>
  <path d="M27.50 26.90 c0 -0.30 -0.50 -1.10 -1.10 -1.75 l-1.05 -1.15 1.80 0 c1.80 0 1.85 0.05 1.85 1.75 0 1.20 -0.25 1.75 -0.75 1.75 -0.40 0 -0.75 -0.25 -0.75 -0.60z"/>
  <path d="M19.65 23.60 c-0.95 -0.15 -1.15 -0.50 -1.15 -2.15 0 -1.40 0.20 -1.95 0.75 -1.95 0.70 0 1 -1.20 0.80 -2.85 -0.05 -0.40 0.55 -0.65 1.70 -0.65 1.50 0 1.75 -0.15 1.75 -1.15 0 -1.50 0.30 -1.80 1.55 -1.50 1.35 0.40 1.15 1.50 -0.40 2.25 -1.05 0.50 -1.35 0.95 -1.25 1.90 0.10 0.70 0.40 1.35 0.65 1.40 0.25 0.10 0.45 1.15 0.45 2.40 0 2.60 -0.70 2.95 -4.85 2.30z m2.90 -1.95 c0.55 -0.75 0.55 -0.80 0 -0.30 -0.35 0.30 -1 0.45 -1.45 0.30 -0.50 -0.20 -0.65 -0.10 -0.40 0.25 0.50 0.85 1.05 0.75 1.85 -0.25z"/>
  <path d="M30.65 22.25 c0 -1.10 0.10 -1.50 0.20 -0.85 0.10 0.60 0.10 1.50 0 2 -0.15 0.45 -0.25 -0.05 -0.20 -1.15z"/>
 </g>
 <g fill="#982e24">
  <path d="M26 37.45 c0 -2.05 -0.15 -2.50 -0.75 -2.25 -0.50 0.20 -0.75 -0.05 -0.75 -0.70 0 -0.60 -0.25 -0.85 -0.70 -0.70 -0.40 0.15 -0.85 0.05 -1.05 -0.25 -0.40 -0.65 -1.75 -0.75 -1.75 -0.10 0 0.25 0.70 0.60 1.50 0.80 1.60 0.35 2.10 1.75 0.65 1.75 -1.60 0 -4.45 -3.55 -4.85 -5.90 -0.20 -1.45 -0.15 -2.05 0.20 -1.85 0.25 0.15 0.50 0.60 0.50 0.95 0 0.40 0.40 1.10 0.90 1.65 0.45 0.50 0.65 0.60 0.35 0.25 -0.35 -0.55 -0.20 -0.95 0.65 -1.50 l1.15 -0.75 -1.50 -0.65 c-1.45 -0.60 -2.20 -2.20 -1.05 -2.20 0.30 0 0.50 0.35 0.50 0.75 0 0.50 0.50 0.75 1.70 0.75 1.40 0 1.75 -0.20 2 -1.25 0.40 -1.50 1.05 -1.60 1.75 -0.30 0.35 0.65 0.35 1.45 0 2.50 -0.30 0.80 -0.45 1.90 -0.35 2.40 0.15 0.90 0.35 0.95 2.40 1.10 1.20 0.05 1.35 1.65 0.25 2.55 -0.45 0.40 -0.75 1.45 -0.75 2.70 l0.05 2.05 0.75 -1.35 c1 -1.90 1.70 -1.75 1.70 0.35 0 1.65 -0.10 1.75 -1.75 1.75 l-1.75 0 0 -2.55z"/>
  <path d="M26.10 29.65 c0.10 -0.45 0.40 -0.90 0.75 -1 0.35 -0.15 0.45 0.15 0.30 0.80 -0.30 1.25 -1.30 1.40 -1.05 0.20z"/>
  <path d="M21.50 18.60 c0 -0.55 5.45 -3.80 5.80 -3.45 0.15 0.15 -0.30 0.65 -1 1.15 -1.55 0.95 -1.40 1.55 0.15 0.70 0.70 -0.35 1.05 -0.35 1.05 -0.05 0 0.30 -0.55 0.65 -1.25 0.85 -0.70 0.15 -1.25 0.50 -1.25 0.75 0 0.25 -0.80 0.45 -1.75 0.45 -0.95 0 -1.75 -0.20 -1.75 -0.40z"/>
  <path d="M21.50 16.55 c0 -0.55 0.25 -1.05 0.55 -1.05 0.30 0 0.85 -0.35 1.25 -0.75 0.80 -0.80 2.70 -1.05 2.70 -0.35 0 0.25 -0.50 0.70 -1.10 1 -0.65 0.35 -1.65 0.95 -2.25 1.40 -1.10 0.80 -1.15 0.75 -1.15 -0.25z"/>
  <path d="M18.50 12 c0.95 -0.65 1.50 -0.65 1.50 0 0 0.30 -0.50 0.50 -1.10 0.50 -0.95 0 -1 -0.10 -0.40 -0.50z"/>
  <path d="M18.25 10 c0.50 -0.55 1.10 -1 1.30 -1 0.25 0 0.05 0.45 -0.40 1 -0.50 0.55 -1.10 1 -1.35 1 -0.25 0 -0.05 -0.45 0.45 -1z"/>
 </g>
 <g fill="#6c4240">
  <path d="M16.70 38.35 c0.15 -0.90 0.40 -2.35 0.60 -3.25 l0.35 -1.70 1.80 1.80 c1.90 1.85 5.25 3.55 6.05 3.05 0.30 -0.20 0.50 -0.65 0.50 -1.05 0 -0.40 0.25 -0.70 0.50 -0.70 0.30 0 0.50 0.60 0.50 1.40 0.05 1.20 0.10 1.25 0.70 0.50 0.90 -1.25 1.30 -1.10 1.30 0.35 l0 1.30 -6.30 -0.10 -6.30 -0.05 0.30 -1.55z"/>
  <path d="M3.50 38.35 c0 -3.70 1.50 -5.85 2.20 -3.10 0.35 1.35 -0.15 2.70 -1.40 3.75 -0.70 0.55 -0.80 0.45 -0.80 -0.65z"/>
  <path d="M26 35.70 c0 -0.15 0.25 -0.75 0.55 -1.35 0.45 -1 0.45 -1 -0.20 -0.20 -0.95 1.20 -1.35 1.05 -1.35 -0.40 0 -1.10 0.20 -1.25 1.75 -1.25 2 0 2.20 0.65 0.80 2.40 -0.95 1.05 -1.55 1.40 -1.55 0.80z"/>
  <path d="M31 34.50 c0 -1 5 -6.50 5.90 -6.50 0.30 0 0.45 0.60 0.35 1.40 -0.10 0.75 -0.20 2.10 -0.20 2.95 -0.05 1.25 -0.35 1.80 -1.55 2.40 -2.15 1.10 -4.50 1 -4.50 -0.25z"/>
  <path d="M20.20 34.25 c-0.85 -0.65 -0.85 -0.70 -0.10 -0.75 0.45 0 1 0.25 1.15 0.55 0.55 0.85 0 1 -1.05 0.20z"/>
  <path d="M38.20 32.75 c1.05 -1.55 1.05 -2.75 0 -1.45 -0.75 0.90 -0.75 0.90 -0.50 -0.30 0.15 -0.70 0.30 -2.75 0.30 -4.60 0 -3.05 0.10 -3.40 1 -3.40 0.95 0 1 0.35 1 5.50 l0 5.50 -1.30 0 c-1.30 0 -1.30 -0.05 -0.50 -1.25z"/>
  <path d="M4 32 c0 -1.25 -0.20 -1.50 -1.25 -1.50 -1.10 0 -1.25 -0.20 -1.25 -1.75 0 -1.65 0.10 -1.75 1.75 -1.75 1.75 0 1.75 0 1.75 -2.25 0 -1.70 -0.20 -2.25 -0.75 -2.25 -1.05 0 -1.75 -2 -1.10 -3.05 0.60 -1 -1 -2.80 -2.30 -2.55 -0.65 0.15 -0.85 -0.15 -0.85 -1.35 0 -1.20 0.25 -1.60 1.25 -1.85 0.65 -0.15 1.35 -0.75 1.50 -1.25 0.20 -0.50 0.55 -0.95 0.85 -0.95 0.25 0 0.40 0.30 0.25 0.70 -0.15 0.40 0.10 0.80 0.70 0.95 0.60 0.15 0.95 0 0.95 -0.45 0 -0.40 0.25 -0.70 0.50 -0.70 0.30 0 0.50 0.35 0.50 0.75 0 1.40 1 0.75 2.05 -1.35 0.60 -1.20 1.60 -2.85 2.25 -3.75 0.65 -0.85 1.20 -1.80 1.20 -2.10 0 -0.30 0.80 -0.55 1.75 -0.55 1.20 0 1.75 0.25 1.75 0.75 0 0.45 0.45 0.75 1.25 0.75 1.10 0 1.25 -0.20 1.25 -1.65 0 -1.70 1.65 -3.85 2.90 -3.85 0.35 0 0.60 -0.25 0.60 -0.55 0 -0.85 5.50 -0.30 6.05 0.60 0.35 0.55 0.45 0.55 0.45 -0.15 0 -0.70 0.45 -0.90 2.05 -0.90 1.95 0 3.45 0.85 3.45 1.95 0 0.30 0.55 0.55 1.25 0.55 1 0 1.25 -0.25 1.25 -1.25 0 -1.80 1.25 -1.55 1.90 0.40 l0.55 1.60 -0.25 -1.60 c-0.25 -1.45 -0.15 -1.65 0.80 -1.65 0.90 0 1.05 0.25 0.90 1.65 -0.15 1.40 -0.35 1.60 -1.75 1.75 -1.50 0.15 -1.55 0.25 -1.15 1.40 0.65 1.65 0.65 4.20 0 4.20 -0.30 0 -0.70 -0.40 -0.85 -0.85 -0.60 -1.50 -1.05 0.90 -0.55 2.80 0.60 2.15 0.30 5.40 -1 9.70 -0.55 1.85 -0.80 3.50 -0.60 3.60 0.45 0.30 1.45 -2.45 1.75 -4.75 0.10 -0.80 0.40 -1.90 0.70 -2.35 0.40 -0.75 0.50 -0.70 0.85 0.60 0.55 2.20 -1 7.45 -2.95 9.90 l-1.60 2.05 -0.15 -1.35 c-0.15 -1.20 -0.40 -1.35 -1.90 -1.35 l-1.70 0 0 -3.75 0 -3.75 -2 0 c-1.95 0 -2 0.05 -2 1.75 0 1.55 -0.15 1.75 -1.25 1.75 -0.70 0 -1.25 0.20 -1.25 0.40 0 0.80 -3.05 0.55 -4.05 -0.30 -1.15 -1 -1.35 -4.10 -0.20 -4.10 0.40 0 0.75 -0.30 0.75 -0.70 0 -0.40 0.40 -0.85 0.90 -0.95 0.80 -0.20 0.80 -0.25 0 -0.30 -0.50 0 -0.90 -0.25 -0.90 -0.55 0 -0.25 1.05 -0.50 2.40 -0.50 l2.35 0 -1.25 1 c-1.90 1.50 -0.65 1.20 2.10 -0.55 2.55 -1.55 4.05 -1.70 1.70 -0.15 -1.55 0.95 -1.40 1.55 0.15 0.75 1 -0.55 2.85 -3.45 2.65 -4.15 -0.25 -0.90 0.45 -0.30 0.90 0.75 0.40 1 0.45 1 0.45 0.10 0 -0.55 -0.25 -2 -0.65 -3.25 l-0.70 -2.25 -0.30 2 c-1 5.95 -1.45 5.50 -1.55 -1.60 -0.10 -6.10 -0.45 -7.65 -1.65 -7.65 -1.30 0.05 -3.30 1.30 -2.70 1.70 0.30 0.15 0.65 0.10 0.85 -0.20 0.15 -0.25 0.75 -0.50 1.25 -0.50 1.05 0 1.50 1.20 1.45 3.75 -0.15 3.40 -0.35 3.75 -2.30 3.75 -1 0 -2.55 -0.25 -3.45 -0.60 l-1.60 -0.55 1.70 -2.10 c0.95 -1.15 1.70 -2.25 1.70 -2.45 0 -1.10 -6.15 7.20 -8.80 11.95 -0.80 1.35 -0.80 1.45 -0.05 0.80 0.70 -0.55 1 -0.55 1.60 -0.05 0.90 0.75 1 -0.05 0.15 -0.90 -0.85 -0.85 0 -1.40 1.05 -0.75 0.80 0.50 0.90 0.45 0.70 -0.30 -0.15 -0.55 0 -1.10 0.25 -1.25 0.35 -0.20 0.50 0.70 0.50 2.40 l-0.05 2.70 -2.50 0.25 c-1.35 0.20 -2.55 0.40 -2.60 0.45 -0.35 0.35 -0.35 2.80 0 4.30 0.30 1.25 0.65 1.60 1.55 1.60 1 0 1.20 0.25 1.20 1.45 0 1.25 0.25 1.55 1.50 1.80 1.35 0.30 1.50 0.55 1.50 2.15 l0 1.85 -2.25 -2.50 c-3.35 -3.70 -5.25 -6.75 -5.25 -8.30 0 -1.15 -0.25 -1.35 -1.70 -1.55 -0.95 -0.10 -1.60 0 -1.50 0.20 0.15 0.20 0.70 0.40 1.25 0.40 1 0 1.15 0.20 1.65 2.60 0.20 0.75 1.30 2.60 2.50 4.05 1.20 1.50 2.45 3.15 2.75 3.75 0.55 1.05 0.50 1.05 -2.05 0.75 -1.95 -0.25 -2.90 -0.65 -3.60 -1.55 -0.75 -0.90 -1.05 -1.05 -1.35 -0.50 -0.25 0.35 -0.45 1.05 -0.45 1.55 0 1.05 -1.40 2.65 -1.85 2.15 -0.35 -0.35 0.40 -4.45 1.55 -8.55 0.35 -1.35 0.55 -2.70 0.40 -2.95 -0.35 -0.60 -1.90 4.15 -2.35 7.15 -0.50 3.70 -0.80 4.55 -1.55 4.55 -0.45 0 -0.70 -0.55 -0.70 -1.50z m28.25 -9.45 c0.25 -0.75 0.20 -1.05 -0.15 -0.85 -0.35 0.20 -0.60 -0.40 -0.75 -1.55 -0.10 -1.25 -0.20 -0.80 -0.25 1.35 -0.10 3.15 0.40 3.60 1.15 1.05z m-9.30 -1.30 c0.15 -0.85 0.05 -0.90 -0.65 -0.30 -0.45 0.35 -1.15 0.55 -1.55 0.35 -0.90 -0.35 -1.05 0.50 -0.10 0.85 1.10 0.50 2.10 0.10 2.30 -0.90z m-16.65 -1.45 c0.95 -1 0.90 -1.30 -0.25 -1.30 -1.10 0 -1.75 0.75 -1.30 1.50 0.40 0.65 0.70 0.65 1.55 -0.20z m4.05 -2.60 c-0.20 -2.15 -0.10 -2.40 1.85 -4.25 1.10 -1.10 2.10 -1.75 2.20 -1.45 0.10 0.30 0.85 -0.45 1.60 -1.60 0.80 -1.15 1.35 -2.25 1.20 -2.35 -0.20 -0.20 -6.70 5.85 -9.25 8.70 l-1.35 1.50 1.80 0.85 c1.05 0.50 1.95 0.85 2.05 0.90 0.10 0 0.05 -1.05 -0.10 -2.30z m-3.85 -0.65 c0.95 -1.85 0.65 -2.70 -0.95 -2.40 -0.75 0.15 -1.65 0.05 -2 -0.30 -0.40 -0.40 -0.70 -0.30 -1.25 0.40 -0.80 1.10 -0.50 2.05 0.40 1.30 0.70 -0.60 1.50 -0.15 1.95 1.10 0.40 1.10 1.20 1.10 1.85 -0.10z m28.25 -3.70 c-0.70 -3.30 -1.20 -3.15 -1.25 0.40 0 3.30 0.05 3.40 0.80 2.35 0.55 -0.80 0.65 -1.60 0.45 -2.75z m-22.25 -2.10 c0 -0.40 -0.20 -0.75 -0.50 -0.75 -0.25 0 -0.50 0.35 -0.50 0.75 0 0.40 0.25 0.75 0.50 0.75 0.30 0 0.50 -0.35 0.50 -0.75z m21 -3.50 c0 -1.05 -0.25 -1.25 -1.45 -1.25 -1.20 0 -1.55 -0.25 -1.80 -1.45 -0.30 -1.40 -1.55 -2.40 -2.20 -1.75 -0.15 0.20 0 0.45 0.35 0.55 0.35 0.15 0.60 1.10 0.60 2.40 0 2.30 0.30 2.55 3.15 2.70 1.10 0.05 1.35 -0.15 1.35 -1.20z m-1.50 -5.25 c-0.80 -1.50 -1.10 -0.95 -0.35 0.65 0.30 0.70 0.65 1.10 0.75 0.85 0.10 -0.25 -0.10 -0.95 -0.40 -1.50z"/>
  <path d="M8.50 17.25 c0.60 -0.75 1.50 -0.60 1.50 0.30 0 0.25 -0.50 0.45 -1.05 0.45 -0.90 0 -0.95 -0.10 -0.45 -0.75z"/>
  <path d="M22.65 28.10 c1.05 -1.15 1.10 -2.10 0.10 -2.10 -0.40 0 -0.75 -0.20 -0.75 -0.50 0 -0.25 0.70 -0.50 1.50 -0.50 1.70 0 2.25 0.85 1.80 2.75 -0.25 1 -0.65 1.25 -1.90 1.25 -1.45 0 -1.50 -0.05 -0.75 -0.90z"/>
  <path d="M27.50 26.35 c0 -0.40 -0.55 -1 -1.25 -1.35 -1.75 -0.95 -1.55 -1.50 0.50 -1.50 1.65 0 1.75 0.10 1.75 1.75 0 0.95 -0.20 1.75 -0.50 1.75 -0.25 0 -0.50 -0.30 -0.50 -0.65z"/>
  <path d="M37.75 17.50 c-0.40 -2.35 -0.25 -2.65 0.95 -2.20 0.65 0.25 0.80 0.80 0.70 2.10 -0.20 2.50 -1.25 2.60 -1.65 0.10z"/>
  <path d="M24.80 14.20 c-1.05 -1 -1 -1.15 0.20 -0.85 0.55 0.15 1 0.60 1 0.95 0 0.90 -0.25 0.90 -1.20 -0.10z"/>
  <path d="M36.55 11.95 c-0.45 -1.05 -0.50 -1.70 -0.15 -2.05 1 -1 2.10 0 2.10 1.85 0 2.20 -1 2.30 -1.95 0.20z"/>
  <path d="M25.45 12.10 c-0.45 -0.45 -1.20 -1.10 -1.75 -1.40 -0.80 -0.50 -0.70 -0.60 0.95 -0.60 1.40 0 1.85 0.20 1.65 0.70 -0.15 0.35 -0.05 0.80 0.20 0.95 0.60 0.35 0.65 1.25 0.15 1.20 -0.25 0 -0.75 -0.40 -1.20 -0.85z"/>
  <path d="M8 8.60 c0 -0.60 0.25 -1.10 0.50 -1.10 0.30 0 0.50 -0.35 0.50 -0.75 0 -0.45 0.45 -0.75 1.10 -0.75 1.05 0 1.05 0.05 -0.40 1.60 -0.80 0.90 -1.50 1.75 -1.55 1.85 -0.10 0.10 -0.15 -0.25 -0.15 -0.85z"/>
  <path d="M3.50 2.75 c0 -1.65 0.10 -1.75 1.75 -1.75 1.65 0 1.75 0.10 1.75 1.75 0 1.65 -0.10 1.75 -1.75 1.75 -1.65 0 -1.75 -0.10 -1.75 -1.75z"/>
  <path d="M13.10 2.40 l0.15 -2.15 2.90 -0.15 c2.50 -0.15 2.85 -0.05 2.85 0.80 0 1.50 -2.60 3.60 -4.45 3.60 -1.60 0 -1.60 -0.05 -1.45 -2.10z"/>
 </g>
 <g fill="#159059">
  <path d="M20.90 34.80 c-0.50 -0.35 -0.90 -0.90 -0.90 -1.25 0 -0.30 -0.35 -0.55 -0.75 -0.55 -0.90 0 -1.75 -1.55 -1.75 -3.20 0 -1.80 1.10 -1.60 2 0.35 0.65 1.35 1.05 1.65 2.70 1.75 1.70 0.15 1.90 0.05 1.35 -0.55 -0.45 -0.60 -0.45 -0.85 0 -1.15 0.35 -0.20 0.95 0.15 1.45 0.80 0.55 0.75 0.95 0.95 1.20 0.55 0.20 -0.30 0.20 -0.75 0.05 -1.05 -0.15 -0.25 -0.05 -0.50 0.20 -0.50 0.95 0 0.60 3.25 -0.45 4.40 -1.20 1.25 -3.75 1.45 -5.10 0.40z m2.30 -1.05 c-1.10 -0.80 -2.20 -0.95 -2.20 -0.30 0 0.55 0.90 0.95 2.20 1 1 0.05 1 0.05 0 -0.70z"/>
  <path d="M23.80 26.75 c-0.30 -0.85 -3.80 -1.05 -3.80 -0.25 0 0.30 -0.20 0.50 -0.50 0.50 -0.70 0 -0.65 -1.65 0.10 -2.40 0.45 -0.45 0.45 -0.60 0 -0.60 -0.30 0 -0.85 0.45 -1.20 1 -0.35 0.55 -0.80 1 -1 1 -0.45 0 -0.55 -2.60 -0.10 -3.70 0.35 -0.90 2.45 -1.10 3 -0.25 0.20 0.30 1 0.40 1.90 0.25 0.90 -0.20 2.35 -0.15 3.20 0 1.25 0.25 1.60 0.60 1.60 1.50 0 1.40 -0.35 1.50 -1.95 0.40 -0.80 -0.60 -1.30 -0.65 -1.65 -0.30 -0.40 0.40 -0.20 0.70 0.75 1.05 0.85 0.35 1.35 0.90 1.35 1.55 0 1.15 -1.25 1.35 -1.70 0.25z"/>
  <path d="M17.15 17.75 c-1.30 -1.45 -0.55 -3.75 1.20 -3.75 1.45 0 2.65 1.05 2.65 2.40 0 0.75 -0.25 0.95 -1 0.75 -0.55 -0.15 -1 -0.40 -1 -0.60 0 -0.15 -0.45 -0.60 -1.05 -0.95 -0.90 -0.60 -0.95 -0.55 -0.50 0.30 0.30 0.55 1.20 1.25 2.05 1.50 0.80 0.30 1.50 0.65 1.50 0.80 0 0.60 -3.30 0.20 -3.85 -0.45z"/>
 </g>
 <g fill="#994c4b">
  <path d="M2.20 38 c0.45 -2.85 1.30 -4.50 2.40 -4.50 0.70 0 0.90 0.40 0.90 1.80 0 2.25 -1.40 4.70 -2.65 4.70 -0.85 0 -0.95 -0.25 -0.65 -2z"/>
  <path d="M8.35 38.55 c-1.15 -1.95 -1.10 -2.05 1.05 -2.05 1 0 2.15 -0.20 2.55 -0.45 1.15 -0.75 -0.20 -4.50 -2.20 -6.15 l-1.65 -1.40 0.30 2.25 c0.20 2.05 0.15 2.25 -0.90 2.25 -1 0 -1.05 -0.15 -0.75 -2.10 0.20 -1.20 0.70 -3.15 1.10 -4.35 0.40 -1.20 0.75 -2.95 0.80 -3.85 0.10 -2.20 1.45 -2.10 1.90 0.15 0.15 0.90 1.35 2.90 2.60 4.50 1.30 1.60 3.20 4.10 4.30 5.60 l1.95 2.65 -0.80 2.20 -0.80 2.20 -4.30 0 c-4.20 0 -4.30 -0.05 -5.15 -1.45z m4.15 -9.70 c0 -0.10 -0.75 -0.80 -1.60 -1.65 l-1.65 -1.45 1.45 1.65 c1.40 1.50 1.80 1.85 1.80 1.45z"/>
  <path d="M25.80 38.65 c0.75 -3.10 1.15 -3.45 1.15 -1 0.05 1.80 -0.15 2.35 -0.70 2.35 -0.60 0 -0.70 -0.35 -0.45 -1.35z"/>
  <path d="M27.70 38.70 c0.65 -2.55 8.80 -11.40 9.65 -10.50 0.30 0.25 -1.80 2.25 -2.40 2.30 -0.15 0 -1 0.90 -1.85 2 l-1.60 1.95 2.60 -1.20 2.65 -1.25 0.30 1.15 c0.30 0.95 0.35 1 0.70 0.25 0.20 -0.50 0.80 -0.90 1.30 -0.90 0.85 0 0.95 0.40 0.95 3 0 2.85 -0.05 3 -1.20 3 -0.70 0 -1.40 -0.25 -1.55 -0.55 -0.45 -0.65 -3 -0.15 -5.15 1.10 -0.90 0.50 -2.35 0.95 -3.20 0.95 -1.40 0 -1.50 -0.10 -1.20 -1.30z"/>
  <path d="M20.75 37.25 c-1.95 -1.60 -1.30 -1.60 1.05 0 1 0.70 1.55 1.25 1.15 1.25 -0.40 0 -1.35 -0.55 -2.20 -1.25z"/>
  <path d="M19.95 33.85 c-2.45 -2.35 -7.50 -8.55 -8.30 -10.10 -0.30 -0.55 -0.70 -2.75 -0.90 -4.85 -0.35 -3.50 -0.30 -3.90 0.50 -3.90 0.55 0 0.75 -0.25 0.60 -0.70 -0.25 -0.65 1.50 -2.80 2.30 -2.80 0.50 0 -0.20 3 -1.05 4.75 l-0.75 1.50 1.10 -0.95 c0.80 -0.75 1.20 -0.85 1.65 -0.40 1 1 1.65 0.70 0.75 -0.30 -1.90 -2.05 -0.50 -2.20 1.60 -0.15 2.30 2.25 4.10 2.40 7.05 0.60 2.70 -1.65 3.35 -1.50 1.15 0.30 -0.85 0.65 -1.10 1.10 -0.70 1.15 0.40 0 1.70 -1.05 2.85 -2.30 l2.15 -2.30 0.35 1.95 c0.25 1.05 0.40 3.75 0.45 5.95 0 3.50 0.10 3.95 0.65 3.15 0.60 -0.85 2.70 -6.50 2.55 -6.85 0 -0.10 0.25 -0.85 0.60 -1.70 0.45 -1.15 0.50 -2 0.10 -3.45 -0.40 -1.50 -0.35 -1.95 0.10 -1.95 1.15 0 1.80 5.70 0.80 6.80 -0.55 0.55 -2.15 6.75 -1.85 7.05 0.75 0.75 1.50 -1 2.55 -6.10 0.30 -1.35 0.40 -1.40 0.85 -0.55 0.65 1.15 0.15 4.35 -1.05 7.10 -0.90 2 -8.20 10.20 -9.10 10.20 -0.25 0 -0.25 -0.40 -0.10 -0.85 0.20 -0.60 -0.15 -0.45 -1.10 0.50 -1.95 1.90 -3.25 1.70 -5.80 -0.80z m5.05 -0.95 c1 -1.20 1.40 -2 1.20 -2.90 -0.10 -0.70 -0.05 -0.95 0.10 -0.60 0.45 1 1.55 -1.35 1.30 -2.80 -0.15 -0.60 -0.65 -1.35 -1.15 -1.65 -1.50 -0.75 -1.10 -1.45 0.80 -1.45 2.20 0 2.25 -0.85 0.15 -2.95 -2.20 -2.15 -2.90 -2 -2.90 0.65 0 1.95 -0.15 2.20 -1.35 2.45 -0.75 0.15 -1.85 0 -2.55 -0.30 -0.90 -0.40 -1.25 -0.40 -1.60 0.15 -0.85 1.40 -2 0.10 -2 -2.30 l0 -2.35 -2.05 0.30 c-1.95 0.25 -3.50 1.40 -2.45 1.75 0.30 0.10 0.50 0.60 0.50 1.15 0 0.50 0.25 0.95 0.50 0.95 0.30 0 0.50 0.55 0.50 1.25 0 0.90 0.25 1.25 0.95 1.25 0.70 0 1.05 0.50 1.25 1.75 0.30 1.40 0.55 1.75 1.50 1.75 0.85 0 1.30 0.35 1.50 1.20 0.15 0.70 0.75 1.40 1.35 1.55 0.65 0.25 0.90 0.60 0.70 1.15 -0.30 0.80 0.50 1.60 1.65 1.60 0.35 0 1.25 -0.75 2.10 -1.60z m-2.05 -11.10 c0.70 -0.85 0.05 -1.40 -0.95 -0.80 -0.35 0.25 -1.25 0.20 -1.95 -0.05 -1.25 -0.50 -1.25 -0.50 -0.30 0.50 1.05 1.20 2.40 1.35 3.20 0.35z"/>
  <path d="M23.50 31.25 c-0.35 -0.45 -1 -0.65 -1.40 -0.50 -1.55 0.60 -1.50 -0.40 0.15 -2.05 1 -0.95 1.65 -1.95 1.50 -2.25 -0.20 -0.25 0.05 -0.45 0.45 -0.45 0.60 0 0.75 0.60 0.65 3 -0.05 3.15 -0.30 3.50 -1.35 2.25z"/>
  <path d="M0 31.60 c0 -1.60 0.30 -2.75 0.90 -3.40 1.20 -1.35 3.60 -5.90 3.60 -6.90 0 -0.50 0.25 -0.70 0.55 -0.55 0.30 0.20 0.80 -0.05 1.15 -0.50 0.50 -0.70 0.70 -0.75 1.20 -0.15 0.40 0.55 0.40 1 -0.10 1.95 -0.35 0.70 -0.80 2.95 -0.95 4.95 -0.45 5.15 -0.80 6.15 -1.90 5.85 -0.50 -0.15 -1 0.05 -1.15 0.45 -0.15 0.40 -0.95 0.70 -1.80 0.70 -1.45 0 -1.50 -0.05 -1.50 -2.40z"/>
  <path d="M37.70 31.20 c0.20 -0.60 0.35 -1.90 0.40 -2.90 0.05 -1 0.30 -1.80 0.55 -1.80 0.65 0 0.10 4.45 -0.65 5.15 -0.50 0.45 -0.55 0.35 -0.30 -0.45z"/>
  <path d="M0 24.90 c0 -0.35 0.45 -1.20 1 -1.90 0.55 -0.70 1 -1.50 1 -1.80 0 -0.30 0.45 -0.95 1 -1.45 1.20 -1.05 1.30 -1.75 0.30 -1.75 -0.95 0 -1.40 -0.70 -1 -1.70 0.45 -1.10 1.55 -1 1.95 0.20 0.45 1.35 1.45 1.25 2.45 -0.25 0.45 -0.70 1.20 -1.25 1.60 -1.25 1 0 -1.60 3.25 -2.90 3.65 -0.50 0.15 -1 1 -1.15 2.05 -0.20 1.05 -0.65 1.80 -1.05 1.80 -0.45 0 -0.70 0.55 -0.70 1.50 0 1.25 -0.20 1.50 -1.25 1.50 -0.70 0 -1.25 -0.30 -1.25 -0.60z"/>
  <path d="M37.90 20.25 c-0.20 -4.75 -0.15 -5.40 0.60 -4.25 0.55 0.85 0.55 5.70 0.05 7.50 -0.25 0.85 -0.45 -0.20 -0.65 -3.25z"/>
  <path d="M31.35 19.05 c-0.20 -1.65 -0.45 -3.90 -0.65 -5 -0.20 -1.35 -0.15 -2.05 0.25 -2.05 0.30 0 0.70 0.90 0.85 2.05 0.25 1.35 0.50 1.80 0.75 1.35 0.35 -0.50 0.45 -0.50 0.50 0.10 0.05 0.40 0 1 -0.05 1.25 -0.05 0.30 -0.20 1.40 -0.35 2.50 -0.35 3.15 -0.95 3.05 -1.30 -0.20z"/>
  <path d="M7.90 19.45 c-1.45 -0.85 -1 -1.40 0.60 -0.80 1.50 0.55 2.05 1.35 0.90 1.35 -0.35 0 -1.05 -0.25 -1.50 -0.55z"/>
  <path d="M18.85 16.15 c-1.90 -1.35 -2.45 -2.65 -1.05 -2.65 0.45 0 0.90 0.45 1.05 0.95 0.30 1.10 2.50 1.80 4.25 1.30 l1.15 -0.30 -1.20 1 c-1.50 1.35 -1.95 1.30 -4.20 -0.30z"/>
  <path d="M0 15.50 c0 -1.15 0.25 -1.55 1.25 -1.80 0.65 -0.15 1.35 -0.75 1.50 -1.25 0.20 -0.50 0.55 -0.95 0.80 -0.95 0.30 0 0.40 0.45 0.20 1 -0.25 0.75 -0.15 0.90 0.45 0.70 0.55 -0.20 0.80 -0.05 0.80 0.50 0 0.95 -0.55 1.05 -1.35 0.25 -0.40 -0.40 -0.85 -0.25 -1.60 0.50 -0.55 0.55 -0.80 1.15 -0.50 1.30 0.65 0.40 0.10 1.25 -0.85 1.25 -0.45 0 -0.70 -0.55 -0.70 -1.50z"/>
  <path d="M5.50 13.05 c0 -0.55 0.25 -1.15 0.50 -1.30 0.30 -0.15 0.50 0.15 0.50 0.70 0 0.55 -0.20 1.15 -0.50 1.30 -0.25 0.15 -0.50 -0.15 -0.50 -0.70z"/>
  <path d="M14.55 13.50 c0 -0.40 0.30 -1.30 0.70 -2 0.65 -1.15 0.70 -1.15 0.75 -0.20 0 0.55 -0.35 1.45 -0.75 2 -0.55 0.70 -0.70 0.75 -0.70 0.20z"/>
  <path d="M22.50 12.50 c-0.40 -0.25 -0.60 -0.55 -0.45 -0.70 0.15 -0.15 0.70 0.05 1.25 0.45 1.05 0.80 0.40 1 -0.80 0.25z"/>
  <path d="M11.50 11.55 c0 -1.10 1 -1.80 2 -1.45 0.30 0.10 0 0.70 -0.70 1.35 l-1.30 1.20 0 -1.10z"/>
  <path d="M27.50 10.65 c0 -0.75 -0.15 -2.25 -0.30 -3.25 -0.25 -1.25 -0.15 -1.90 0.25 -1.90 0.30 0 0.55 0.55 0.55 1.25 0 1.10 0.20 1.25 1.75 1.25 1.65 0 1.75 0.10 1.75 1.75 0 2.25 -1.15 2.35 -1.85 0.15 l-0.55 -1.65 -0.35 1.65 c-0.50 2.10 -1.25 2.55 -1.25 0.75z"/>
  <path d="M24 11 c-0.60 -0.40 -0.45 -0.50 0.65 -0.50 0.75 0 1.35 0.25 1.35 0.50 0 0.65 -1 0.65 -2 0z"/>
  <path d="M16.50 9.90 c0 -0.45 0.25 -1 0.50 -1.15 0.30 -0.15 0.50 -0.75 0.50 -1.30 0 -0.60 0.35 -0.95 1 -0.95 1.35 0 1.25 0.40 -0.50 2.50 -1.05 1.15 -1.50 1.45 -1.50 0.90z"/>
  <path d="M18.85 8.95 c0.40 -0.85 1.05 -1.65 1.45 -1.80 0.40 -0.15 0.70 -0.55 0.70 -0.85 0 -1.30 1.05 -1.70 3 -1.20 1.40 0.40 2 0.80 2.25 1.75 0.50 2 -0.50 2.65 -4.05 2.65 -1.80 0 -3.20 0.20 -3.20 0.50 0 0.30 -0.20 0.50 -0.45 0.50 -0.25 0 -0.15 -0.70 0.30 -1.55z"/>
  <path d="M19.60 5.35 c0.25 -1.60 0.60 -2 1.90 -2.10 1.10 -0.10 0.70 0.95 -1 2.50 l-1.05 0.95 0.15 -1.35z"/>
 </g>
 <g fill="#7b6256">
  <path d="M26 36.75 c0 -0.95 0.25 -1.75 0.50 -1.75 0.30 0 0.50 0.80 0.50 1.75 0 0.95 -0.20 1.75 -0.50 1.75 -0.25 0 -0.50 -0.80 -0.50 -1.75z"/>
  <path d="M24.45 33.65 c0.25 -0.50 0.95 -1.30 1.50 -1.75 1 -0.85 1.05 -0.85 1.05 0.25 0 1.40 -0.85 2.35 -2.10 2.35 -0.75 0 -0.85 -0.20 -0.45 -0.85z"/>
  <path d="M37.70 31.20 c0.90 -2.30 0.10 -16.90 -1.05 -19.70 -0.55 -1.35 -0.40 -3.50 0.25 -3.50 0.30 0 0.60 -0.50 0.60 -1.10 -0.05 -1.35 -1.20 -3.05 -1.70 -2.50 -0.20 0.20 -0.75 -0.10 -1.15 -0.65 -0.75 -0.95 -0.75 -0.95 -0.45 0.25 1.05 3.65 1.30 5.10 1.60 8.80 0.20 2.80 0.15 4.15 -0.25 4.40 -0.40 0.25 -0.55 -0.40 -0.55 -2.15 0 -2.40 -0.80 -5.05 -1.50 -5.05 -0.20 0 -0.35 1.50 -0.35 3.40 -0.05 3.60 -0.55 7.50 -1.05 8.30 -0.15 0.30 -0.70 -2.20 -1.15 -5.45 -1.10 -7.50 -1.10 -7.25 -0.15 -7.25 0.65 0 0.75 -0.35 0.50 -1.55 -0.15 -0.85 -0.30 -1.75 -0.30 -2 0 -0.25 -0.45 -0.45 -1 -0.45 -0.75 0 -1 0.35 -1 1.25 0 0.95 -0.25 1.25 -1.05 1.25 -0.95 0 -1 -0.20 -0.75 -1.70 0.20 -0.90 0.10 -2.25 -0.20 -3 -0.40 -1.05 -0.35 -1.30 0.25 -1.30 0.40 0 0.75 -0.35 0.75 -0.75 0 -0.90 1.30 -1 1.65 -0.10 0.20 0.40 0.30 0.35 0.35 -0.15 0 -0.40 0.60 0.40 1.25 1.75 0.80 1.55 1.25 2.10 1.25 1.45 0 -0.55 -0.35 -1.45 -0.75 -2 -0.40 -0.50 -0.75 -1.10 -0.75 -1.30 0 -0.65 1.90 -0.45 2.20 0.25 0.25 0.45 0.35 0.45 0.60 0 0.15 -0.35 1.05 -0.65 2 -0.65 1.30 0 1.70 0.20 1.70 0.90 0 0.45 0.25 1.20 0.55 1.60 0.40 0.60 0.45 0.35 0.30 -0.90 -0.15 -1.30 0 -1.60 0.75 -1.60 0.85 0 0.90 0.55 0.90 6.70 0 4.45 -0.20 6.80 -0.55 6.90 -0.40 0.15 -0.40 0.70 0 2.15 0.65 2.35 0.75 12.45 0.10 12.05 -0.25 -0.15 -0.55 0.60 -0.75 1.70 -0.15 1.05 -0.55 2.10 -0.90 2.30 -0.40 0.25 -0.45 0.10 -0.20 -0.60z"/>
  <path d="M23.10 29.40 c0.05 -0.65 0.30 -1.40 0.55 -1.75 0.25 -0.35 0.30 -0.85 0.10 -1.15 -0.15 -0.30 0.15 -0.50 0.70 -0.50 1.20 0 1.30 0.55 0.45 2.85 -0.70 1.85 -1.85 2.25 -1.80 0.55z"/>
  <path d="M30 21.90 c0 -1.80 0.20 -1.75 0.70 0.25 0.20 0.80 0.10 1.35 -0.20 1.35 -0.25 0 -0.50 -0.70 -0.50 -1.60z"/>
  <path d="M33.15 20.65 c1.15 -3.05 1.65 -2.75 0.95 0.60 -0.25 1.20 -0.70 2.05 -1.20 2.15 -0.70 0.15 -0.65 -0.20 0.25 -2.75z"/>
  <path d="M4.50 17.95 c0 -0.25 0.20 -0.40 0.45 -0.20 0.60 0.35 2.70 -2.60 2.30 -3.20 -0.25 -0.45 1.80 -4.25 3.85 -7.20 0.55 -0.80 0.90 -1.50 0.80 -1.60 -0.50 -0.50 -3.45 3.05 -4.75 5.65 -0.75 1.50 -1.45 2.50 -1.55 2.20 -0.30 -0.90 1.35 -5.75 2.65 -7.70 0.70 -1.05 1.05 -1.90 0.75 -1.90 -0.30 0 -0.70 0.40 -0.85 0.90 -0.20 0.45 -1.30 2.40 -2.50 4.35 -2.10 3.40 -2.60 4.60 -1.70 4 0.25 -0.15 0.60 -0.05 0.80 0.25 0.35 0.60 -0.75 0.65 -1.65 0.05 -0.55 -0.30 -0.45 -0.90 0.35 -3.05 0.55 -1.45 1.40 -3.10 1.90 -3.65 0.90 -1.05 0.90 -1.05 -0.20 -0.35 -0.60 0.40 -2 1.50 -3.10 2.40 l-2.05 1.70 0 -1.30 c0 -0.70 0.15 -1.30 0.40 -1.30 0.20 0 0.75 -0.60 1.25 -1.30 l0.95 -1.25 -1.30 0.35 c-1.90 0.45 -1.70 -1.05 0.35 -2.85 l1.60 -1.45 -1.60 0.30 c-1.45 0.30 -1.65 0.20 -1.65 -0.75 0 -1 0.25 -1.05 4.25 -1.05 3.90 0 4.25 0.10 4.25 1 0 0.80 0.35 1 1.50 1 1.15 0 1.50 -0.20 1.50 -1 0 -0.85 0.35 -1 2.50 -1 2.60 0 3.20 0.60 1.50 1.50 -0.55 0.30 -1 0.80 -1 1.10 0 0.35 0.75 -0.15 1.70 -1.05 1.80 -1.75 3.50 -1.80 3.95 -0.15 0.20 0.80 0.25 0.80 0.30 0 0.05 -0.70 0.50 -0.90 1.80 -0.90 1.80 0 2.35 0.65 0.95 1.20 -0.40 0.15 -0.65 0.50 -0.50 0.75 0.20 0.25 -0.50 1.30 -1.45 2.35 -0.95 1 -1.75 2 -1.75 2.20 0 0.40 -1.70 2 -2.15 2 -0.15 0 -0.20 -0.35 -0.05 -0.75 0.35 -0.90 -0.35 -1 -1.25 -0.10 -0.50 0.50 -0.60 0.25 -0.45 -1.15 0.15 -1.55 0.35 -1.80 1.90 -2.05 1.70 -0.30 1.70 -0.30 0.25 -0.40 -1.10 -0.05 -2.05 0.45 -3.55 1.85 -1.10 1 -1.60 1.55 -1.10 1.15 0.80 -0.65 0.90 -0.60 0.90 0.35 0 0.60 0.25 1.10 0.60 1.10 0.35 0 -0.50 1.15 -1.85 2.50 -1.35 1.40 -2.65 2.50 -2.85 2.50 -0.25 0 -0.25 -0.60 -0.10 -1.35 0.20 -0.80 0.15 -1.20 -0.10 -1 -0.20 0.20 -0.45 1.05 -0.50 1.85 -0.10 1.75 -2.55 4.90 -3.80 4.95 -0.50 0.05 -0.90 -0.20 -0.90 -0.50z m17.75 -15.40 c-0.15 -0.15 -0.90 0.40 -1.65 1.15 l-1.35 1.45 1.60 -1.15 c0.90 -0.65 1.50 -1.30 1.40 -1.45z"/>
  <path d="M10.50 15.30 c0 -0.80 2.95 -3.50 3.40 -3.10 0.40 0.40 -1.30 2.70 -2.40 3.30 -0.80 0.40 -1 0.40 -1 -0.20z"/>
  <path d="M29 15.30 c0 -0.40 0.25 -0.90 0.50 -1.05 0.30 -0.15 0.50 0.15 0.50 0.70 0 0.60 -0.20 1.05 -0.50 1.05 -0.25 0 -0.50 -0.30 -0.50 -0.70z"/>
  <path d="M0.50 14.55 c0 -0.60 1.40 -1.10 1.75 -0.60 0.15 0.25 -0.10 0.60 -0.55 0.75 -1.05 0.40 -1.20 0.40 -1.20 -0.15z"/>
  <path d="M14.50 13.50 c0 -1 1.70 -4 2.30 -4 0.40 0 0.20 0.80 -0.65 2.25 -1.25 2.25 -1.65 2.70 -1.65 1.75z"/>
  <path d="M27.50 10.50 c0 -0.55 0.25 -1 0.50 -1 0.30 0 0.50 0.45 0.50 1 0 0.55 -0.20 1 -0.50 1 -0.25 0 -0.50 -0.45 -0.50 -1z"/>
  <path d="M22 5.50 c0.95 -0.65 1.50 -0.65 1.50 0 0 0.30 -0.50 0.50 -1.10 0.50 -0.95 0 -1 -0.10 -0.40 -0.50z"/>
 </g>
 <g fill="#309f91">
  <path d="M19.15 33.15 c-0.35 -0.10 -0.65 -0.75 -0.65 -1.40 0 -0.70 -0.35 -1.25 -1 -1.40 -0.75 -0.20 -1 -0.70 -1 -2.05 0 -1 0.25 -1.80 0.50 -1.80 0.30 0 0.50 0.30 0.50 0.70 0 0.40 0.30 0.80 0.70 0.95 0.35 0.15 0.80 0.95 0.95 1.80 0.25 1.10 0.70 1.60 1.60 1.85 1 0.25 1.15 0.45 0.70 1 -0.60 0.70 -1.20 0.80 -2.30 0.35z"/>
  <path d="M20.50 30.50 c0 -0.25 0.35 -0.50 0.75 -0.50 0.40 0 0.75 0.25 0.75 0.50 0 0.30 -0.35 0.50 -0.75 0.50 -0.40 0 -0.75 -0.20 -0.75 -0.50z"/>
  <path d="M19 18.35 c0 -0.40 0.75 -0.60 2.25 -0.60 1.45 0 2.25 0.20 2.25 0.65 0 0.40 -0.80 0.60 -2.25 0.60 -1.50 0 -2.25 -0.20 -2.25 -0.65z"/>
  <path d="M18.85 16.15 c-2.10 -1.50 -2.25 -2.05 -0.85 -3.55 1.30 -1.40 3.95 -1.45 5.65 -0.10 0.70 0.55 1.50 1 1.80 1 0.30 0 0.55 0.30 0.55 0.65 -0.05 0.60 -3.95 3.35 -4.80 3.35 -0.25 0 -1.30 -0.60 -2.35 -1.35z"/>
  <path d="M16.15 16.25 c-0.45 -1.25 0.10 -1.35 1.10 -0.25 0.85 0.90 0.85 1 0.05 1 -0.45 0 -0.95 -0.35 -1.15 -0.75z"/>
 </g>
 <g fill="#ab5c5b">
  <path d="M0 34.25 c0 -4.70 0.15 -5.85 0.75 -6.05 0.40 -0.20 0.75 -0.60 0.75 -1 0 -0.40 0.25 -0.70 0.50 -0.70 0.30 0 0.50 -0.35 0.50 -0.75 0 -0.40 0.35 -0.75 0.75 -0.75 1.20 0 0.90 -6.85 -0.30 -7.15 -0.60 -0.15 -0.80 -0.55 -0.60 -1.30 0.30 -1.15 1.65 -1.45 1.65 -0.40 0 0.35 0.25 0.90 0.60 1.25 0.45 0.45 0.85 0.35 1.75 -0.50 0.65 -0.60 1.15 -0.85 1.15 -0.55 0 0.65 -1.65 2.15 -2.40 2.15 -0.80 0 -0.75 1.85 0 2.30 0.30 0.20 0.70 0.10 0.80 -0.20 0.20 -0.70 1.60 -0.80 1.60 -0.15 0 0.25 -0.30 0.70 -0.70 1 -0.35 0.30 -0.80 1.20 -0.95 2 -0.15 0.75 -1.35 2.95 -2.60 4.85 -1.30 1.90 -2.45 3.60 -2.55 3.85 -0.15 0.20 -0.05 0.35 0.20 0.35 0.30 0 1.50 -1.60 2.75 -3.50 1.25 -1.95 2.40 -3.35 2.50 -3.15 0.40 0.65 -1 9.15 -1.90 11.80 -0.80 2.15 -1 2.35 -2.55 2.35 l-1.70 0 0 -5.75z"/>
  <path d="M7.80 37.45 c-1.25 -2.30 -1.40 -2.85 -1.10 -5.50 0.30 -2.45 1.10 -5.75 1.55 -6.35 0.10 -0.10 1.15 0.90 2.45 2.25 3.85 4.05 4.85 9.30 1.85 9.95 -2.80 0.60 -3.35 1.20 -0.80 0.90 3.20 -0.40 3.25 -0.45 3.25 -2.25 0 -1.05 0.20 -1.40 0.60 -1.15 0.35 0.25 0.45 0.10 0.25 -0.45 -0.15 -0.45 -0.05 -0.85 0.25 -0.95 0.60 -0.20 -0.50 -1.65 -4.95 -6.40 -2.40 -2.60 -2.60 -2.95 -2.30 -4.65 0.35 -2.40 0.85 -2.35 1.60 0.15 0.30 1.10 1.40 2.95 2.45 4.15 3.55 4.20 5.85 7.80 5.70 8.95 -0.10 0.65 -0.40 1.75 -0.70 2.55 -0.50 1.30 -0.60 1.35 -4.60 1.35 l-4.05 0 -1.45 -2.55z m3.75 -1.45 c1.15 -0.65 1.25 -2.30 0.20 -3.30 -0.40 -0.45 -0.75 -1.15 -0.75 -1.65 0 -0.50 -0.45 -1.30 -1 -1.80 -0.95 -0.90 -1 -0.85 -1 0.15 0 0.65 -0.30 1.10 -0.75 1.10 -0.40 0 -0.75 0.30 -0.75 0.70 0 0.40 -0.15 1.05 -0.30 1.50 -0.20 0.50 -0.05 0.80 0.45 0.80 0.40 0 1 0.70 1.35 1.50 0.65 1.65 1.05 1.75 2.55 1z"/>
  <path d="M26.60 38.50 c0 -0.95 0.10 -1.35 0.25 -0.85 0.10 0.45 0.10 1.25 0 1.75 -0.15 0.45 -0.25 0.05 -0.25 -0.90z"/>
  <path d="M28 39.45 c0 -0.80 3.60 -2.60 6.90 -3.50 1.90 -0.55 2.30 -0.50 3.50 0.40 1.35 1 2.15 3.65 1.10 3.65 -0.75 0 -2 -1.25 -2 -2 0 -0.70 -2.55 -0.25 -4.50 0.75 -2.10 1.10 -5 1.50 -5 0.70z"/>
  <path d="M28.50 37.60 c0.05 -0.85 0.95 -1.60 4.05 -3.30 3.60 -2 4.45 -2.20 4.45 -1.05 0 0.40 0.25 0.75 0.50 0.75 0.30 0 0.50 -0.20 0.50 -0.50 0 -0.25 0.45 -0.50 1 -0.50 0.80 0 1 0.35 1 1.55 0 1.30 -0.15 1.50 -0.85 1.20 -2.30 -1 -4.20 -0.85 -7.40 0.65 -1.80 0.85 -3.25 1.40 -3.25 1.20z"/>
  <path d="M20.15 33.90 c-3.05 -3.10 -8.15 -9.35 -8.60 -10.60 -0.25 -0.55 -0.55 -2.75 -0.75 -4.85 -0.30 -3.50 -0.25 -3.80 0.80 -4.80 0.65 -0.55 1.40 -1.15 1.75 -1.30 0.85 -0.50 0.40 2.80 -0.65 4.50 l-0.90 1.40 1.10 -1 c1 -0.80 1.30 -0.85 2.20 -0.30 1.40 0.85 1.65 0.40 0.65 -1.15 -1.25 -1.90 -0.30 -1.60 2 0.70 1.10 1.05 2.30 1.95 2.65 2 0.30 0 0.60 0.40 0.65 0.90 0 0.50 0.15 0.60 0.30 0.25 0.10 -0.35 1 -0.65 1.95 -0.65 1.70 0 1.70 0.05 1.70 2.20 0 2.15 -0.05 2.25 -1.60 2.40 -0.90 0.10 -2.15 -0.05 -2.80 -0.30 -0.85 -0.35 -1.25 -0.25 -1.80 0.45 -1.20 1.65 -1.95 0.40 -1.60 -2.55 0.30 -2.65 0.30 -2.70 -1 -2.70 -1.75 0 -3.15 1.80 -3.20 4.05 0 1.90 1 3.20 2.75 3.55 0.70 0.10 1.05 0.60 1.15 1.80 0.10 1.15 0.40 1.60 1.05 1.60 0.50 0 1.15 0.55 1.45 1.25 0.35 0.75 1 1.25 1.65 1.25 0.90 0 0.95 0.15 0.45 0.75 -0.30 0.40 -0.45 0.95 -0.25 1.25 1.10 1.80 5.25 -1.30 5.25 -3.95 0 -0.80 0.30 -1.55 0.65 -1.70 0.90 -0.35 0.50 -3.35 -0.45 -3.35 -0.40 0 -0.70 -0.45 -0.70 -1 0 -0.75 0.35 -1 1.45 -1 1.20 0 1.40 -0.15 1.20 -1 -0.15 -0.55 -0.45 -1 -0.65 -1 -0.20 0 -0.50 -0.45 -0.65 -0.95 -0.15 -0.70 -0.85 -1.05 -2.55 -1.30 -1.85 -0.30 -2.20 -0.50 -1.75 -1.05 0.85 -1 3.95 -2.75 3.95 -2.15 0 0.25 -0.55 0.75 -1.25 1.05 -0.70 0.30 -1.25 0.75 -1.25 1 0 0.55 0.35 0.50 1.50 -0.10 0.80 -0.45 1.30 -0.20 2.75 1.35 2.30 2.45 2.45 4.35 0.70 9.05 -1.70 4.70 -1.20 5.20 1.80 1.70 1.10 -1.30 1.40 -1.85 0.70 -1.20 l-1.30 1.15 -0.05 -1.40 c0 -0.75 0.50 -2.50 1.15 -3.90 0.60 -1.35 1.40 -3.40 1.80 -4.50 0.95 -2.85 1.15 -0.75 0.25 2.75 -0.40 1.50 -0.65 2.80 -0.55 2.90 0.05 0.10 0.50 -0.20 0.95 -0.65 0.70 -0.75 1.05 -1.65 2.05 -6 0.35 -1.40 0.40 -1.45 0.75 -0.40 0.50 1.25 -0.50 6.10 -1.65 7.80 -1.35 2.10 -7.50 8.30 -7.95 8.05 -0.20 -0.15 -0.30 -0.45 -0.15 -0.70 0.15 -0.25 0.05 -0.55 -0.20 -0.70 -0.25 -0.15 -0.55 0.25 -0.75 0.85 -0.25 1.10 -2.10 2.35 -3.45 2.35 -0.35 0 -1.55 -0.95 -2.70 -2.10z m2.75 -11.75 c0.70 -1.40 0.20 -2.25 -0.90 -1.55 -0.70 0.45 -1.25 0.45 -2.20 0 -1.15 -0.50 -1.30 -0.45 -1.30 0.40 0 0.50 0.25 1.10 0.60 1.30 0.35 0.20 0.40 0.15 0.20 -0.20 -0.55 -0.85 0.45 -0.75 1.20 0.15 0.85 1 1.85 0.95 2.40 -0.10z"/>
  <path d="M32.80 31.90 c1.95 -2.25 3.25 -3.35 3.75 -3.40 0.20 0 -0.95 1.25 -2.45 2.75 -3.30 3.25 -3.95 3.60 -1.30 0.65z"/>
  <path d="M23.40 31.05 c-0.45 -0.75 -0.75 -0.85 -1.45 -0.40 -1.75 1.10 -1.45 -0.05 0.60 -2.10 1.15 -1.10 2.10 -2.05 2.15 -2.05 0 0 0.05 1.25 0.05 2.75 0 2.90 -0.35 3.35 -1.35 1.80z"/>
  <path d="M37.95 20.10 c-0.20 -4.20 0.25 -5.50 0.85 -2.35 0.15 0.95 0.10 2.80 -0.15 4.10 l-0.50 2.40 -0.20 -4.15z"/>
  <path d="M7.70 19.20 c-0.90 -0.70 -0.90 -0.75 0.30 -0.40 1.55 0.40 2.50 1.20 1.45 1.20 -0.40 0 -1.20 -0.35 -1.75 -0.80z"/>
  <path d="M28.75 18 l-1.45 -1.50 1.30 -1.35 1.30 -1.30 0.35 2.30 c0.50 3.25 0.20 3.60 -1.50 1.85z"/>
  <path d="M31.30 17.95 c-0.65 -3.15 -0.80 -5.45 -0.30 -5.45 0.25 0 0.50 0.30 0.50 0.65 0.05 0.30 0.25 1.55 0.45 2.70 0.20 1.15 0.25 2.35 0 2.70 -0.25 0.45 -0.45 0.25 -0.65 -0.60z"/>
  <path d="M0 16.50 c0 -0.25 0.45 -0.50 1.05 -0.50 0.55 0 0.85 0.25 0.70 0.50 -0.15 0.30 -0.65 0.50 -1.05 0.50 -0.40 0 -0.70 -0.20 -0.70 -0.50z"/>
  <path d="M22.50 16 c0 -0.65 0.35 -1 1 -1 0.55 0 1.15 -0.35 1.30 -0.75 0.35 -0.90 1.20 -1 1.20 -0.10 -0.05 0.30 -0.80 1.10 -1.75 1.70 -1.70 1.05 -1.75 1.05 -1.75 0.15z"/>
  <path d="M18.15 15.55 c-1.50 -1.25 -1.45 -1.60 0.10 -0.90 0.70 0.35 1.25 0.90 1.25 1.25 0 0.75 0 0.75 -1.35 -0.35z"/>
  <path d="M0 14.85 c0 -0.40 0.45 -0.85 1 -1 0.55 -0.15 1 -0.05 1 0.20 0 0.20 -0.45 0.65 -1 0.95 -0.80 0.40 -1 0.40 -1 -0.15z"/>
  <path d="M9.85 13.15 c0.40 -1.05 2.10 -2.65 2.80 -2.65 0.30 0 -0.20 0.80 -1.15 1.75 -1.95 2 -2.10 2.10 -1.65 0.90z"/>
  <path d="M14.50 13.40 c0 -0.35 0.25 -1 0.50 -1.40 0.40 -0.60 0.50 -0.55 0.50 0.35 0 0.60 -0.20 1.25 -0.50 1.40 -0.25 0.15 -0.50 0 -0.50 -0.35z"/>
  <path d="M19.65 9.10 c-0.50 -0.30 -0.50 -0.60 0 -1.35 0.65 -0.85 0.80 -0.85 3.10 -0.10 1.35 0.50 2.50 0.75 2.65 0.60 0.20 -0.20 -0.15 -0.35 -3.40 -1.60 -1.20 -0.50 -1.20 -0.50 -0.20 -1.05 0.65 -0.35 1.65 -0.40 2.50 -0.15 1.25 0.30 1.45 0.60 1.45 2.10 l0 1.70 -2.75 0.15 c-1.50 0.05 -3.05 -0.05 -3.35 -0.30z"/>
  <path d="M12.85 7.65 c-0.20 -0.15 -0.35 -0.95 -0.35 -1.75 0 -1.25 0.15 -1.40 1.75 -1.40 1.65 0 1.75 0.10 1.75 1.75 0 1.60 -0.15 1.75 -1.40 1.75 -0.80 0 -1.60 -0.15 -1.75 -0.35z"/>
  <path d="M19.50 5.85 c0 -0.40 0.60 -1.10 1.30 -1.60 1.20 -0.80 1.25 -0.80 0.75 0.15 -0.25 0.50 -0.85 1.20 -1.25 1.60 -0.65 0.50 -0.80 0.50 -0.80 -0.15z"/>
 </g>
 <g fill="#97736b">
  <path d="M26 38.50 c0 -0.80 0.25 -1.50 0.50 -1.50 0.30 0 0.50 0.70 0.50 1.50 0 0.85 -0.20 1.50 -0.50 1.50 -0.25 0 -0.50 -0.65 -0.50 -1.50z"/>
  <path d="M25.50 33.35 c0 -0.75 0.25 -1.35 0.55 -1.35 0.35 0 0.40 -0.55 0.20 -1.45 -0.25 -1.20 -0.10 -1.60 0.75 -2.05 0.55 -0.30 0.90 -0.75 0.75 -1.05 -0.20 -0.25 0.15 -0.45 0.70 -0.45 1.25 0 1.30 0.30 0.35 2.10 -0.90 1.70 -0.50 3.70 0.50 2.85 1.10 -0.90 0.80 -0.10 -0.50 1.25 -1.35 1.50 -2.05 1.70 -1.60 0.45 0.30 -0.75 0.20 -0.75 -0.70 0.10 -1 0.90 -1 0.90 -1 -0.40z"/>
  <path d="M23.70 31.15 c-0.55 -1 -0.35 -2.65 0.35 -2.65 0.25 0 0.45 0.45 0.45 0.95 0 0.55 0.15 1.30 0.30 1.75 0.40 1.10 -0.45 1 -1.10 -0.05z"/>
  <path d="M21.50 30.40 c0 -0.45 0.25 -1 0.55 -1.15 0.85 -0.55 1 0 0.20 1.05 -0.65 0.85 -0.70 0.85 -0.75 0.10z"/>
  <path d="M38.15 24.60 c-0.15 -7.85 -1 -13.80 -2.70 -18.45 -0.75 -2.15 -1.40 -3.50 -1.40 -3 -0.05 0.50 0.20 1.40 0.50 1.95 0.75 1.40 1.40 9.25 0.95 10.85 -0.35 1.10 -0.40 0.90 -0.45 -1 -0.05 -2.55 -0.90 -5.45 -1.60 -5.45 -0.25 0 -0.50 1.65 -0.50 3.65 -0.05 3.75 -0.15 3.70 -0.70 -0.30 -0.50 -3.75 -0.75 -2.50 -0.35 1.55 0.25 2 0.25 3.85 0.05 4.20 -0.40 0.65 -0.55 0.20 -1.45 -5.35 -0.75 -4.60 -1.20 -5.35 -2 -3.15 l-0.65 1.65 -0.40 -2.25 c-0.20 -1.25 -0.25 -3 -0.10 -3.90 0.35 -2.15 -0.70 -4.60 -1.95 -4.60 -1.35 0 -3.45 1.20 -4.90 2.80 l-1.25 1.40 1.45 -0.90 c1.60 -1 1.45 -0.60 -0.85 2.30 -0.85 1.05 -2.10 2.25 -2.75 2.70 l-1.30 0.85 1.10 -1.40 c2.25 -2.85 1 -2.25 -3.15 1.50 -3.70 3.40 -4.15 3.65 -3.70 2.35 0.30 -0.85 0.85 -1.65 1.25 -1.80 0.45 -0.15 0.65 -0.50 0.50 -0.70 -0.15 -0.25 0.45 -1.30 1.30 -2.40 l1.60 -1.95 -1.65 1.50 c-2.20 2.05 -4.65 5.95 -4.25 6.90 0.15 0.50 -0.40 1.50 -1.55 2.70 -1.85 1.90 -1.90 1.55 -0.20 -0.90 0.60 -0.85 0.75 -1.45 0.40 -1.80 -0.35 -0.35 -0.25 -0.70 0.30 -1.15 0.40 -0.35 0.75 -0.90 0.75 -1.25 0 -0.30 0.90 -1.85 2 -3.45 1.10 -1.55 2 -3 2 -3.20 0 -0.90 -5.05 4.80 -5.55 6.25 -0.80 2.55 -1.45 1.95 -0.65 -0.65 1 -3.35 2.75 -6.20 3.80 -6.20 0.50 0 0.90 -0.35 0.90 -0.75 0 -0.40 0.30 -0.75 0.65 -0.75 0.45 0 0.60 -0.50 0.45 -1.50 -0.15 -0.90 0 -1.50 0.35 -1.50 0.30 0 0.55 0.25 0.55 0.60 0 0.45 0.15 0.45 0.60 0 0.35 -0.35 1.15 -0.60 1.80 -0.60 1.15 0 1.10 0.10 -0.75 2.35 l-1.90 2.35 2.40 -1.95 c1.30 -1.10 2.35 -2.15 2.35 -2.35 0 -0.20 2.70 -0.40 6 -0.40 5.90 0 6 0 6 1.15 0 1.15 1 3.10 1 2 0 -1.15 0.80 -0.70 1.65 0.95 l0.85 1.65 -0.35 -1.50 c-0.15 -0.80 -0.60 -2.10 -1 -2.90 l-0.70 -1.35 2.25 0 c1.80 0 2.25 0.20 2.45 1.05 0.20 0.70 0.55 1 1 0.80 0.50 -0.20 1.05 0.40 1.65 1.70 0.55 1.05 1.10 1.95 1.35 1.95 0.20 0 0.35 0.55 0.35 1.25 0 0.70 -0.20 1.25 -0.50 1.25 -0.25 0 -0.50 0.90 -0.50 1.95 0 1.10 0.25 2.15 0.50 2.30 0.30 0.15 0.50 1.95 0.50 3.90 0 2.50 -0.15 3.35 -0.50 2.85 -0.35 -0.50 -0.50 0.90 -0.55 4.50 -0.05 7.35 -0.70 8.20 -0.80 1.10z m-21.45 -19.90 c0.25 -0.60 0.10 -0.75 -0.50 -0.50 -0.40 0.15 -1 0.30 -1.25 0.30 -0.25 0 -0.45 0.25 -0.45 0.50 0 0.80 1.85 0.55 2.20 -0.30z"/>
  <path d="M16 25.75 c0 -1.55 0.15 -1.75 1.30 -1.75 1.05 0 1.25 0.15 0.95 0.90 -0.20 0.45 -0.50 1.25 -0.60 1.75 -0.50 1.60 -1.65 0.95 -1.65 -0.90z"/>
  <path d="M20 25 c0 -0.55 0.70 -0.55 2.50 0 1.10 0.35 1.05 0.40 -0.60 0.45 -1.05 0.05 -1.90 -0.15 -1.90 -0.45z"/>
  <path d="M20.70 23.20 c-0.90 -0.75 -0.90 -0.75 0.20 -0.45 0.65 0.20 1.45 0.05 1.85 -0.25 0.60 -0.50 0.75 -0.45 0.75 0.15 0 0.40 -0.35 0.90 -0.80 1.05 -1 0.40 -0.85 0.40 -2 -0.50z"/>
  <path d="M4 18.40 c0 -1.15 0.15 -1.45 0.45 -0.95 0.40 0.60 0.20 2.55 -0.25 2.55 -0.10 0 -0.20 -0.75 -0.20 -1.60z"/>
  <path d="M14.50 13.55 c0 -0.85 0.60 -2.05 1 -2.05 0.50 0 0.05 1.90 -0.55 2.30 -0.25 0.15 -0.45 0.05 -0.45 -0.25z"/>
  <path d="M4 9.75 c0 -1 1.35 -3.10 2.25 -3.45 0.55 -0.20 0.60 0 0.25 0.95 -1.05 2.70 -2.50 4.20 -2.50 2.50z"/>
  <path d="M0 9.25 c0 -0.50 1.55 -2.40 3.45 -4.30 1.90 -1.90 3.05 -3.25 2.60 -2.95 -0.50 0.25 -1.45 1.05 -2.10 1.70 -1.20 1.30 -2.30 1.75 -1.65 0.70 0.20 -0.35 0.15 -0.40 -0.25 -0.20 -0.30 0.20 -0.45 0.60 -0.30 0.85 0.20 0.25 0.05 0.45 -0.20 0.45 -1.05 0 -0.50 -2.05 0.85 -3.25 1.40 -1.25 5.10 -1.80 5.10 -0.75 0 0.30 0.35 0.50 0.75 0.50 1.40 0 0.80 1.95 -0.85 2.80 -1.60 0.85 -1.65 0.85 -0.95 -0.10 0.40 -0.50 -0.25 0.10 -1.40 1.45 -1.15 1.30 -2.35 2.35 -2.65 2.35 -0.35 0 -1 0.35 -1.50 0.85 -0.85 0.75 -0.90 0.75 -0.90 -0.10z"/>
  <path d="M19.50 8 c0.30 -0.55 0.75 -1 1 -1 0.30 0 0.50 0.45 0.50 1 0 0.65 -0.35 1 -1 1 -0.90 0 -0.95 -0.15 -0.50 -1z"/>
  <path d="M39.30 3.85 c-0.25 -0.75 -0.30 -1.55 -0.10 -1.70 0.55 -0.55 0.90 0.25 0.70 1.70 l-0.20 1.40 -0.40 -1.40z"/>
 </g>
 <g fill="#cb6663">
  <path d="M28 39.50 c0 -1.15 7 -3.85 9.25 -3.55 1.35 0.20 1.70 0.55 2.20 2.45 0.45 1.50 0.40 1.60 -0.75 1.60 -0.90 0 -1.20 -0.25 -1.20 -1.05 0 -1 -0.20 -1.05 -2.30 -0.75 -1.25 0.15 -2.60 0.65 -3 1.05 -0.85 0.85 -4.20 1.05 -4.20 0.25z"/>
  <path d="M8.20 37.75 c-0.45 -1.10 -0.30 -1.15 2.95 -1.55 4.35 -0.50 3.65 1.20 -0.80 2 -1.45 0.25 -1.95 0.20 -2.15 -0.45z"/>
  <path d="M20.75 34.45 c-1.10 -1 -1.75 -2 -1.75 -2.80 0 -0.90 -0.20 -1.20 -0.70 -1 -1 0.40 -6.60 -6.25 -7 -8.20 -0.35 -1.70 0.20 -3.30 1.70 -4.85 0.85 -0.90 1.25 -1 2.05 -0.55 1.35 0.70 1.85 0.15 1 -1.10 -0.95 -1.55 -0.30 -1.70 0.85 -0.25 2 2.55 4.70 2.90 7.60 1 1.10 -0.75 2.15 -1.25 2.25 -1.10 0.15 0.10 -0.30 0.55 -1 0.90 -1.70 0.90 -1.55 1.55 0.25 1.20 1.25 -0.30 1.50 -0.15 1.50 0.70 0 0.55 -0.40 1.10 -1.05 1.25 -0.55 0.15 -1.15 0.75 -1.30 1.30 -0.35 1.35 -1.45 1.35 -1.80 -0.05 -0.25 -0.90 -0.40 -0.95 -1.05 -0.40 -0.65 0.50 -0.80 0.50 -0.80 -0.20 0 -0.45 -0.20 -0.80 -0.50 -0.80 -0.25 0 -0.50 0.40 -0.50 0.85 0 0.65 -0.15 0.70 -0.60 0.25 -0.75 -0.75 -1.40 -0.75 -1.40 -0.05 0 1 -1.65 1.90 -3.35 1.95 -0.90 0 -1.65 0.25 -1.65 0.50 0 0.30 0.25 0.50 0.50 0.50 0.30 0 0.50 0.80 0.50 1.75 0 1.55 0.15 1.75 1.30 1.75 1.45 0 2.30 0.85 3.45 3.40 0.45 1.10 1.05 1.60 1.80 1.60 0.90 0 0.95 0.15 0.45 0.75 -0.75 0.95 -0.25 1.75 1.20 1.75 1.50 0 3.70 -2.50 3.70 -4.20 0 -1.55 0.50 -2.30 1 -1.45 0.20 0.35 0.40 -0.50 0.40 -1.85 0.05 -1.45 -0.15 -2.35 -0.40 -2.20 -0.55 0.35 -2.90 -0.75 -2.90 -1.40 0 -0.20 1.35 -0.40 3 -0.40 2.60 0 3 0.10 3 0.95 0 0.90 -1 3.65 -2.10 5.85 -0.35 0.70 -0.35 1.40 -0.05 1.95 0.45 0.75 0.85 0.45 3.15 -2.20 2.20 -2.45 2.95 -3.80 4.10 -7.40 l1.45 -4.40 -0.25 2.85 c-0.30 3.90 -1.25 5.65 -5.70 10.35 -3.85 4.05 -5.15 5 -4.10 3 0.35 -0.55 0.50 -1.15 0.35 -1.25 -0.10 -0.10 -0.50 0.35 -0.85 1.05 -0.50 0.95 -2.70 2.25 -3.80 2.25 -0.10 0 -0.95 -0.70 -1.95 -1.55z"/>
  <path d="M16.25 32.70 c-0.95 -1.30 -1.75 -2.55 -1.75 -2.80 0 -0.40 2.70 2.85 3.70 4.50 0.90 1.45 -0.30 0.40 -1.95 -1.70z"/>
  <path d="M11.70 33 c-0.20 -0.80 -0.50 -1.50 -0.75 -1.50 -0.25 0 -0.45 -0.80 -0.45 -1.75 0 -0.95 -0.20 -1.75 -0.45 -1.75 -0.55 0 -0.85 0.85 -1.35 3.65 -0.25 1.40 -0.55 1.85 -1.30 1.85 -0.90 0 -0.95 -0.20 -0.70 -1.85 0.60 -3.25 1.30 -5.65 1.70 -5.65 0.65 0 3.95 3.65 4.80 5.35 1.10 2.15 1 3.15 -0.20 3.15 -0.75 0 -1.10 -0.45 -1.30 -1.50z"/>
  <path d="M0 30.50 c0 -0.80 0.25 -1.50 0.50 -1.50 0.30 0 0.50 -0.45 0.50 -1 0 -0.55 0.25 -1 0.50 -1 0.30 0 0.50 -0.20 0.50 -0.50 0 -0.25 -0.45 -0.50 -1 -0.50 -0.65 0 -1 -0.35 -1 -1 0 -0.55 0.25 -1 0.50 -1 0.30 0 0.50 -0.25 0.50 -0.55 0 -0.30 0.70 -1.55 1.50 -2.80 0.85 -1.20 1.50 -2.30 1.50 -2.35 0 -0.10 -0.50 -0.30 -1.10 -0.50 -0.90 -0.20 -1 -0.40 -0.50 -0.75 0.40 -0.20 0.65 -0.60 0.60 -0.85 -0.05 -0.25 0.20 -0.50 0.55 -0.65 0.35 -0.10 0.45 0.05 0.25 0.40 -0.20 0.30 -0.05 0.90 0.35 1.30 0.45 0.40 0.65 1.20 0.50 1.75 -0.15 0.60 0.10 1.45 0.60 2 1.25 1.35 0.65 3.30 -2.30 7.45 -1.35 1.95 -2.60 3.55 -2.70 3.55 -0.15 0 -0.25 -0.65 -0.25 -1.50z"/>
  <path d="M23.80 31.20 c-0.50 -1.25 -0.35 -3.70 0.20 -3.70 0.30 0 0.50 0.65 0.50 1.45 0 0.80 0.15 1.80 0.30 2.25 0.15 0.45 0.10 0.80 -0.20 0.80 -0.25 0 -0.65 -0.35 -0.80 -0.80z"/>
  <path d="M21.25 30 c0.50 -0.55 1.10 -1 1.35 -1 0.25 0 0.20 0.45 -0.10 1 -0.30 0.55 -0.90 1 -1.35 1 -0.70 0 -0.70 -0.10 0.10 -1z"/>
  <path d="M19.40 26.25 c0.30 -1.60 0.75 -1.85 2.35 -1.45 1.75 0.45 1.60 1.20 -0.25 1.20 -1 0 -1.50 0.25 -1.50 0.75 0 0.40 -0.20 0.75 -0.45 0.75 -0.20 0 -0.30 -0.55 -0.15 -1.25z"/>
  <path d="M32.45 23.25 c0.65 -2.20 2.15 -5.35 1.80 -3.75 -0.10 0.70 -0.25 1.60 -0.25 2.05 0 0.45 -0.45 1.35 -1 2 l-0.95 1.20 0.40 -1.50z"/>
  <path d="M21.05 23.45 c-0.65 -0.25 -1.10 -0.55 -1 -0.70 0.40 -0.35 2.45 0.35 2.45 0.80 0 0.25 -0.05 0.45 -0.10 0.40 -0.10 0 -0.70 -0.25 -1.35 -0.50z"/>
  <path d="M28 20.15 l0.05 -1.90 1.20 1.40 c1.60 1.80 1.55 2.35 0 2.35 -1.10 0 -1.25 -0.20 -1.25 -1.85z"/>
  <path d="M38.15 18.75 c0 -1.35 0.10 -1.90 0.20 -1.10 0.10 0.75 0.10 1.85 0 2.50 -0.10 0.60 -0.20 0 -0.20 -1.40z"/>
  <path d="M0 16.50 c0 -0.25 0.50 -0.50 1.15 -0.50 0.90 0 0.95 0.10 0.35 0.50 -0.95 0.65 -1.50 0.65 -1.50 0z"/>
  <path d="M18.40 15.75 c-1.45 -1.25 -1.90 -2.50 -0.75 -2.15 0.30 0.15 0.80 0.70 1.10 1.30 0.30 0.65 0.95 1.10 1.60 1.10 0.65 0 1.15 0.25 1.15 0.50 0 0.90 -1.70 0.50 -3.10 -0.75z"/>
  <path d="M23.50 15.40 c0 -0.40 0.60 -0.75 1.35 -0.80 1.45 -0.10 1.45 0 -0.20 0.85 -0.90 0.45 -1.15 0.45 -1.15 -0.05z"/>
  <path d="M0 14.60 c0 -0.25 0.45 -0.60 1.05 -0.75 0.65 -0.15 0.95 -0.05 0.80 0.30 -0.25 0.75 -1.85 1.10 -1.85 0.45z"/>
  <path d="M10.50 12.25 c0 -0.40 0.35 -0.75 0.80 -0.75 0.70 0 0.70 0.15 0.20 0.75 -0.35 0.40 -0.70 0.75 -0.80 0.75 -0.10 0 -0.20 -0.35 -0.20 -0.75z"/>
  <path d="M19.85 9.10 c-0.75 -0.30 -0.80 -0.50 -0.25 -1.25 0.60 -0.85 0.80 -0.85 3.35 0.05 2 0.70 2.50 1 1.85 1.25 -1.10 0.45 -3.75 0.40 -4.95 -0.05z"/>
  <path d="M18 7.60 c0 -0.60 0.35 -1.25 0.75 -1.45 1.20 -0.45 1.25 0 0.25 1.35 l-1 1.25 0 -1.15z"/>
 </g>
 <g fill="#8d8a85">
  <path d="M26.15 38.50 c0.15 -1.95 0.85 -1.95 0.85 0 0 0.85 -0.20 1.50 -0.50 1.50 -0.25 0 -0.40 -0.65 -0.35 -1.50z"/>
  <path d="M26 35.90 c0.05 -0.80 1.40 -2.65 1.75 -2.35 0.30 0.35 -0.90 2.95 -1.35 2.95 -0.25 0 -0.40 -0.30 -0.40 -0.60z"/>
  <path d="M24.50 34.50 c0 -0.65 0.35 -1 1 -1 0.65 0 0.85 0.25 0.70 0.70 -0.45 1.20 -1.70 1.40 -1.70 0.30z"/>
  <path d="M20.10 33.85 c-1.30 -1.35 -1.45 -2.60 -0.30 -2.15 0.45 0.15 1.15 0.30 1.60 0.30 0.75 0 0.75 0.10 -0.05 0.85 -0.80 0.80 -0.80 0.90 0.25 1.50 0.80 0.40 0.90 0.60 0.35 0.65 -0.40 0 -1.25 -0.50 -1.85 -1.15z"/>
  <path d="M26 30.15 c0 -0.25 0.25 -0.75 0.50 -1.15 0.45 -0.65 0.55 -0.65 1 0 0.35 0.60 0.45 0.50 0.40 -0.50 -0.10 -2.30 0.10 -3 0.85 -3 1 0 0.95 1.05 -0.10 3.25 -0.50 1.05 -1.20 1.75 -1.75 1.75 -0.50 0 -0.90 -0.15 -0.90 -0.35z"/>
  <path d="M16.25 29.50 c-0.15 -0.25 -0.15 -1.85 0.05 -3.50 0.30 -2.75 0.45 -3 1.50 -3 1.40 0 1.50 0.35 0.45 1.85 -0.80 1.15 -0.85 4.15 -0.10 4 0.25 -0.05 0.60 0.20 0.70 0.55 0.30 0.75 -2.15 0.85 -2.60 0.10z"/>
  <path d="M19 26.65 c0 -0.60 0.25 -1.25 0.50 -1.40 0.65 -0.40 0.65 0.75 0 1.75 -0.40 0.60 -0.50 0.55 -0.50 -0.35z"/>
  <path d="M20.50 25.05 c0 -0.40 3.95 -0.15 4.45 0.25 0.10 0.10 -0.85 0.20 -2.10 0.20 -1.30 0 -2.35 -0.20 -2.35 -0.45z"/>
  <path d="M24.85 23.95 c-0.45 -0.30 -1.25 -0.45 -1.75 -0.40 -1.95 0.20 -2.30 -0.10 -0.90 -0.80 0.75 -0.40 2.05 -0.75 2.85 -0.75 1.20 0 1.45 0.20 1.45 1.25 0 1.35 -0.30 1.50 -1.65 0.70z"/>
  <path d="M17.80 15.25 c-1.05 -0.80 -0.75 -2.25 0.45 -2.25 0.50 0 0.75 0.50 0.75 1.50 0 1.70 0.05 1.70 -1.20 0.75z"/>
  <path d="M24.25 14.35 c0 -0.90 0.25 -1.15 0.90 -0.95 1.05 0.25 1.10 1.40 0.05 1.80 -0.45 0.15 -0.80 0.30 -0.85 0.30 -0.05 0 -0.10 -0.55 -0.10 -1.15z"/>
  <path d="M5.85 12 c0.15 -0.55 0.45 -1 0.65 -1 0.25 0 0.30 0.45 0.15 1 -0.15 0.55 -0.45 1 -0.65 1 -0.25 0 -0.30 -0.45 -0.15 -1z"/>
  <path d="M17.50 7.95 c0 -0.75 3.45 -4.15 3.80 -3.80 0.35 0.30 -2.85 4.35 -3.40 4.35 -0.25 0 -0.40 -0.25 -0.40 -0.55z"/>
  <path d="M16.50 6.45 c0 -1.60 2.05 -3.60 3.50 -3.35 0.95 0.15 0.85 0.35 -1.20 2.40 -2.20 2.10 -2.30 2.15 -2.30 0.95z"/>
  <path d="M0 4.70 c0 -0.15 0.85 -1.05 1.90 -2 1.50 -1.35 1.65 -1.60 0.75 -1.35 -0.80 0.20 -1.15 0.05 -1.15 -0.50 0 -0.60 0.80 -0.75 4.25 -0.80 4.10 -0.05 4.25 0 4.25 1.10 0 1.60 -0.90 2.35 -2.95 2.35 l-1.70 0 0.95 -1.10 c0.85 -0.90 0.60 -0.90 -1.65 0.35 -1.40 0.80 -2.50 1.60 -2.40 1.75 0.10 0.15 -0.35 0.35 -1.05 0.40 -0.65 0.05 -1.20 -0.05 -1.20 -0.20z"/>
 </g>
 <g fill="#ae8577">
  <path d="M26.65 34.90 c0.20 -0.50 0.50 -1.25 0.70 -1.75 0.25 -0.60 0.15 -0.70 -0.35 -0.40 -0.45 0.25 -0.55 0.20 -0.30 -0.15 0.55 -0.95 1.80 -0.70 1.80 0.30 0 0.55 -0.50 1.35 -1.10 1.90 -0.95 0.85 -1.05 0.85 -0.75 0.10z"/>
  <path d="M17.35 30.60 c-0.95 -1 -1.15 -2.60 -0.35 -2.60 0.30 0 0.50 0.25 0.50 0.55 0 0.25 0.25 0.35 0.50 0.20 0.40 -0.25 1.50 1.60 1.50 2.55 0 0.55 -1.45 0.10 -2.15 -0.70z"/>
  <path d="M26.30 30.70 c-0.45 -1.10 0.70 -2.50 1.25 -1.60 0.35 0.50 0.45 0.45 0.45 -0.20 0 -0.50 0.20 -0.90 0.45 -0.90 0.20 0 0.15 0.80 -0.15 1.75 -0.60 1.85 -1.50 2.30 -2 0.95z"/>
  <path d="M23.60 28.65 c0.15 -2.15 0.05 -2.40 -1.10 -2.65 -1.55 -0.40 -2.50 -0.10 -2.50 0.80 0 0.40 -0.20 0.70 -0.50 0.70 -0.70 0 -0.65 -1.65 0.10 -2.40 0.65 -0.65 4.95 -0.20 5.50 0.60 0.55 0.80 0.50 2.40 -0.10 2.05 -0.30 -0.20 -0.50 0.40 -0.50 1.45 0 1 -0.25 1.80 -0.55 1.80 -0.35 0 -0.50 -0.90 -0.35 -2.35z"/>
  <path d="M38.30 21.15 c-0.15 -0.80 -0.40 -3.30 -0.60 -5.65 -0.15 -2.35 -0.75 -5.50 -1.30 -7 -1.25 -3.40 -2.45 -8.15 -2.15 -8.45 0.15 -0.10 0.30 -0.10 0.40 0 0.10 0.10 0.75 1.15 1.50 2.30 0.75 1.20 1.65 2.10 2 2 0.35 -0.05 0.55 0.30 0.45 0.90 -0.30 1.55 -0.25 2.45 0.15 10.15 0.40 6.60 0.20 9 -0.45 5.75z"/>
  <path d="M31.30 17.45 c-0.15 -0.65 -0.40 -2.30 -0.55 -3.60 -0.20 -1.35 -0.65 -3.30 -1 -4.40 -0.40 -1.10 -0.50 -2.05 -0.25 -2.20 0.70 -0.45 0.05 -1.60 -1.05 -1.90 -0.55 -0.15 -0.95 -0.70 -0.95 -1.35 0 -3.65 -2.90 -4.05 -6.40 -0.85 -1.90 1.70 -2.65 2.10 -3.95 1.95 -2.15 -0.20 -2.40 -1.80 -0.50 -3.70 1.40 -1.35 1.55 -1.40 6.90 -1.40 4.30 0 5.45 0.15 5.45 0.70 0 1.15 1.65 4.60 1.85 3.95 0.35 -1 0.95 -0.75 1.55 0.60 0.85 1.85 0.80 3.95 -0.10 3.60 -1.05 -0.40 -1.20 0.45 -0.80 5.15 0.35 4.30 0.25 5.60 -0.20 3.45z"/>
  <path d="M7.25 15.85 c0.40 -0.65 0.60 -1.30 0.45 -1.50 -0.50 -0.50 1.50 -4.30 4.10 -7.85 2.35 -3.20 2.35 -3.25 2.80 -1.90 0.35 1 0.85 1.40 2 1.50 1.55 0.15 1.55 0.15 -2.50 3.85 -2.25 2 -4.10 3.40 -4.10 3.15 0 -0.65 0.80 -1.45 3.80 -3.90 1.20 -1 2.10 -1.95 1.95 -2.10 -0.15 -0.15 -0.80 0.25 -1.50 0.90 -1.65 1.55 -2.05 1.05 -0.65 -0.80 l1.10 -1.45 -1.45 1.25 c-1.95 1.75 -5.40 7.10 -4.75 7.50 0.30 0.20 0.20 0.70 -0.30 1.40 -1 1.50 -1.95 1.40 -0.95 -0.05z"/>
  <path d="M14.50 13.25 c0 -0.95 2.30 -4.45 4.45 -6.80 3.20 -3.40 3.30 -2.85 0.20 0.95 -1.25 1.55 -2.75 3.60 -3.30 4.50 -0.90 1.50 -1.35 1.95 -1.35 1.35z"/>
  <path d="M34.65 11.25 c-0.80 -3.50 -2.45 -9.35 -2.90 -10.40 -0.25 -0.65 -0.10 -0.85 0.70 -0.85 0.80 0 1.05 0.30 1.05 1.40 0 0.75 0.45 2.70 1 4.30 0.70 1.85 1 3.85 0.90 5.50 l-0.15 2.55 -0.60 -2.50z"/>
  <path d="M3.50 10.70 c0 -1.10 1.85 -4.05 2.75 -4.40 0.55 -0.20 0.40 0.40 -0.50 2.20 -1.35 2.65 -2.25 3.55 -2.25 2.20z"/>
  <path d="M6.50 9.95 c0.25 -0.85 1.05 -2.50 1.75 -3.70 1 -1.75 1.65 -2.30 3.05 -2.55 0.95 -0.15 1.85 -0.20 1.95 -0.10 0.15 0.15 -0.85 1.30 -2.25 2.60 -1.35 1.30 -2.85 3 -3.35 3.80 -1.15 1.95 -1.70 1.90 -1.15 -0.05z"/>
  <path d="M0 9.25 c0 -0.40 1.45 -2.20 3.20 -4 3.30 -3.40 3.55 -3.90 1.05 -2.25 -1.80 1.20 -2.25 1.25 -2.25 0.25 0 -1.40 4 -2.45 4.75 -1.25 0.15 0.30 0.95 0.50 1.80 0.50 1.85 0 1.85 0.55 0 1.65 -1.80 1.05 -2.35 1.10 -1.50 0.05 0.35 -0.45 -0.35 -0.10 -1.60 0.75 -1.30 0.85 -2.60 1.90 -3 2.40 -0.45 0.65 -0.30 0.60 0.55 -0.15 0.70 -0.60 1.60 -1.25 2 -1.45 1.60 -0.90 -0.65 1.25 -2.80 2.75 -1.60 1.05 -2.20 1.25 -2.20 0.75z"/>
  <path d="M27.35 8.65 c-0.30 -1.70 0.05 -2.65 1 -2.65 0.55 0 0.70 0.30 0.45 1.15 -0.15 0.60 -0.30 1.50 -0.30 2 0 1.35 -0.85 1 -1.15 -0.50z"/>
  <path d="M12.40 2.60 c-1.10 -0.15 -1.40 -0.45 -1.40 -1.40 0 -0.85 0.30 -1.20 0.95 -1.20 0.55 0 1.05 0.25 1.15 0.55 0.15 0.40 0.50 0.40 1.25 -0.10 1.60 -1 2.05 -0.10 0.60 1.20 -0.80 0.75 -1.65 1.10 -2.55 0.95z"/>
 </g>
 <g fill="#4ec1b3">
  <path d="M19.95 33.60 c-0.05 -0.20 -0.05 -0.55 0 -0.75 0.05 -0.25 -0.15 -0.30 -0.40 -0.15 -0.70 0.45 -3.05 -2.95 -3.05 -4.40 0 -0.70 0.25 -1.30 0.50 -1.30 0.30 0 0.50 0.45 0.50 1.05 0 0.55 0.20 0.85 0.50 0.70 0.25 -0.15 0.80 0.50 1.20 1.45 0.45 1.05 1.10 1.80 1.80 1.90 l1.05 0.15 -1.05 0.85 c-0.55 0.50 -1.05 0.70 -1.05 0.50z"/>
  <path d="M21.75 18.05 c0.55 -0.15 1.80 -0.75 2.75 -1.25 l1.75 -0.95 -1.25 1.30 c-0.85 0.90 -1.75 1.30 -2.75 1.30 -1.20 -0.05 -1.30 -0.10 -0.50 -0.40z"/>
  <path d="M18.25 15.50 l-1.45 -1.50 1.20 -1.25 c1.15 -1.20 2.50 -1.60 3.15 -0.90 0.20 0.15 -0.10 0.85 -0.70 1.45 -1.15 1.25 -0.90 2.20 0.50 2.20 1.45 0 2.25 -1.25 1.55 -2.45 -0.40 -0.85 -0.40 -1.05 0.20 -1.05 0.95 0 1.55 0.95 1.45 2.25 -0.05 0.85 -0.05 0.85 0.15 0.10 0.30 -0.90 1.25 -0.95 1.50 -0.05 0.25 0.70 -3.25 2.70 -4.75 2.70 -0.85 0 -1.90 -0.55 -2.80 -1.50z"/>
 </g>
 <g fill="#e67676">
  <path d="M28 39.60 c0 -0.60 5 -3 7.10 -3.35 2.85 -0.55 3.90 0 3.90 2.05 l0 1.70 -5.50 0 c-3 0 -5.50 -0.20 -5.50 -0.40z"/>
  <path d="M7.45 36.35 c-1 -1.95 -1.05 -2.30 -0.45 -5.35 0.80 -4.10 0.95 -4.50 1.75 -4.50 0.90 0 3.60 3.20 4.50 5.35 0.40 0.95 0.75 2.55 0.75 3.45 0 1.85 -0.50 2.20 -3.85 2.85 -1.55 0.30 -1.70 0.20 -2.70 -1.80z"/>
  <path d="M26 36.35 c0 -0.20 0.35 -1.05 0.75 -1.80 0.55 -1.15 0.60 -1.75 0.15 -2.90 -0.30 -0.85 -0.40 -1.95 -0.20 -2.45 0.35 -0.80 0.50 -0.65 1.10 1.05 0.40 1.10 0.60 2.45 0.45 3 -0.25 1.10 -2.20 3.75 -2.25 3.10z"/>
  <path d="M21.60 35.20 c-1.05 -0.70 -7.60 -8.35 -9.25 -10.70 -1.95 -2.80 -0.30 -7.65 2.40 -7.10 0.95 0.15 1.20 0.45 0.95 1.05 -0.15 0.45 -0.45 1.25 -0.60 1.80 -0.25 0.90 -0.20 0.90 0.55 0.30 0.55 -0.40 0.85 -1.40 0.85 -2.60 l0 -1.95 1.65 1 c2.15 1.35 3.95 1.25 6.40 -0.30 1.15 -0.70 2.15 -1.20 2.25 -1.05 0.10 0.10 -0.30 0.45 -0.95 0.80 -0.60 0.35 -1.75 1.50 -2.50 2.60 -1.50 2.05 -2.80 2.45 -3.85 1.20 -1.05 -1.30 -1.40 -0.85 -0.95 1.30 0.35 1.55 0.30 2.25 -0.30 3.10 -1 1.45 -1 4.35 0 4.35 0.40 0 0.80 0.30 0.80 0.65 0.05 0.30 0.15 1.10 0.20 1.75 0.05 0.60 0.30 1.30 0.50 1.50 0.25 0.20 0.25 -0.05 0.10 -0.55 -0.30 -0.75 -0.20 -0.80 0.75 -0.30 0.80 0.45 0.90 0.65 0.35 1 -0.85 0.50 -0.50 0.85 1.45 1.40 1.30 0.40 1.60 0.30 2.55 -1 1.25 -1.70 2.40 -1.50 1.50 0.20 -0.75 1.45 -0.60 1.30 -2.35 1.80 -1.10 0.35 -1.80 0.25 -2.50 -0.25z"/>
  <path d="M23.75 30.95 c-0.20 -0.55 -0.20 -1.15 -0.05 -1.30 0.15 -0.20 0.30 0.05 0.30 0.50 0 0.50 0.25 0.85 0.50 0.85 0.30 0 0.50 0.25 0.50 0.50 0 0.90 -0.95 0.50 -1.25 -0.55z"/>
  <path d="M31.75 29.50 c1.35 -1.35 2.55 -2.50 2.65 -2.50 0.10 0 -0.80 1.15 -1.95 2.50 -1.15 1.40 -2.35 2.50 -2.65 2.50 -0.25 0 0.60 -1.10 1.95 -2.50z"/>
  <path d="M0 28.25 c0 -2.50 0.30 -3.75 1.30 -5.60 1.35 -2.45 3.60 -5.10 3.10 -3.65 -0.15 0.45 0 1.20 0.40 1.75 1.20 1.65 0.80 3.50 -1.65 7.20 -1.30 1.95 -2.55 3.55 -2.75 3.55 -0.20 0 -0.40 -1.45 -0.40 -3.25z"/>
  <path d="M28.05 27.15 c-0.05 -2.45 -0.15 -2.65 -1.25 -2.65 -0.70 0 -1.40 -0.20 -1.55 -0.50 -0.15 -0.25 -1.25 -0.50 -2.40 -0.50 -2 0 -2.05 -0.05 -0.85 -0.65 0.85 -0.45 1.30 -1.10 1.40 -2.20 0.20 -1.80 0.75 -2.40 2.65 -2.90 1.10 -0.25 1.60 0 2.90 1.60 1.35 1.60 1.60 2.20 1.40 3.90 -0.10 1.10 -0.65 3 -1.25 4.25 l-1 2.25 -0.05 -2.60z"/>
  <path d="M19.05 26.45 c-0.05 -1.05 1.20 -2.15 2.05 -1.80 0.40 0.15 0.30 0.30 -0.25 0.30 -0.50 0.05 -1.10 0.55 -1.35 1.20 -0.30 0.75 -0.45 0.85 -0.45 0.30z"/>
  <path d="M18.85 16.10 c-1.30 -1.45 -1 -1.70 0.70 -0.65 1.45 0.90 1.70 0.90 2.80 0.20 1.45 -0.95 2.20 -0.45 0.85 0.60 -1.30 1 -3.40 0.95 -4.35 -0.15z"/>
  <path d="M24.50 14.75 c0 -0.40 0.35 -0.75 0.75 -0.75 0.40 0 0.75 0.20 0.75 0.45 0 0.25 -0.35 0.55 -0.75 0.75 -0.45 0.15 -0.75 0 -0.75 -0.45z"/>
  <path d="M0 14.50 c0 -0.25 0.45 -0.50 1.05 -0.50 0.55 0 0.85 0.25 0.70 0.50 -0.15 0.30 -0.65 0.50 -1.05 0.50 -0.40 0 -0.70 -0.20 -0.70 -0.50z"/>
  <path d="M20.90 9.05 c-1.65 -0.25 -1.75 -0.40 -1.15 -1.20 0.60 -0.85 0.75 -0.85 2.75 -0.05 1.50 0.60 1.90 0.95 1.40 1.25 -0.35 0.25 -0.75 0.40 -0.90 0.35 -0.15 0 -1.10 -0.20 -2.10 -0.35z"/>
  <path d="M17.50 8.40 c0 -0.75 2.35 -3.25 2.70 -2.85 0.15 0.10 -0.40 1 -1.25 1.90 -0.85 1 -1.45 1.40 -1.45 0.95z"/>
  <path d="M14 6.70 c0.55 -0.60 0.50 -0.65 -0.20 -0.40 -0.70 0.25 -0.85 0.10 -0.70 -0.85 0.10 -0.95 0.50 -1.25 1.80 -1.35 1.50 -0.15 1.60 -0.05 1.60 1.50 0 1.50 -0.15 1.65 -1.55 1.75 -1.30 0.10 -1.45 0 -0.95 -0.65z"/>
  <path d="M29 5.15 c0 -1.75 0.05 -1.75 0.95 -0.95 0.50 0.45 1.25 0.80 1.60 0.70 0.40 -0.10 0.75 0.35 0.85 1 0.15 0.95 -0.05 1.10 -1.60 1.10 -1.75 0 -1.80 -0.05 -1.80 -1.85z"/>
 </g>
 <g fill="#0cf1db">
  <path d="M19.80 32.35 c-0.25 -0.90 -0.40 -1 -0.80 -0.35 -0.40 0.60 -0.50 0.55 -0.50 -0.35 0 -1.45 0.15 -1.45 1.75 0.05 0.95 0.90 1.10 1.25 0.55 1.45 -0.45 0.20 -0.80 -0.15 -1 -0.80z"/>
  <path d="M23.80 31.20 c-0.45 -1.10 0.15 -1.60 0.70 -0.70 0.60 0.95 0.60 1.50 0.05 1.50 -0.25 0 -0.60 -0.35 -0.75 -0.80z"/>
  <path d="M17 14.15 c0 -0.65 1.70 -2.15 2.40 -2.15 0.35 0 0.60 0.45 0.60 1 0 0.55 -0.30 1 -0.70 1 -0.40 0 -1.05 0.15 -1.50 0.30 -0.45 0.15 -0.80 0.10 -0.80 -0.15z"/>
  <path d="M23 14.05 c0 -0.25 -0.15 -0.85 -0.30 -1.25 -0.25 -0.60 -0.10 -0.75 0.50 -0.50 0.85 0.35 1.10 2.20 0.30 2.20 -0.25 0 -0.50 -0.20 -0.50 -0.45z"/>
 </g>
 <g fill="#c09784">
  <path d="M23.50 30.15 c0 -0.25 0.25 -0.75 0.50 -1.15 0.40 -0.60 0.50 -0.55 0.50 0.40 0 0.60 -0.20 1.10 -0.50 1.10 -0.25 0 -0.50 -0.15 -0.50 -0.35z"/>
  <path d="M24 26.90 c0 -0.50 0.35 -0.90 0.75 -0.90 0.40 0 0.75 0.40 0.75 0.90 0 0.50 -0.35 0.95 -0.75 0.95 -0.40 0 -0.75 -0.45 -0.75 -0.95z"/>
  <path d="M19 26.55 c0 -0.50 0.35 -1.20 0.75 -1.55 0.80 -0.65 0.90 -0.40 0.45 1.40 -0.40 1.35 -1.20 1.45 -1.20 0.15z"/>
  <path d="M38.45 20.90 c-0.15 -1.10 -0.05 -1.70 0.20 -1.45 0.25 0.25 0.35 1.05 0.25 1.85 -0.15 1.35 -0.20 1.30 -0.45 -0.40z"/>
  <path d="M7.55 14.15 c-0.10 -1.70 5.60 -9.90 8.30 -11.90 1.05 -0.80 2 -1.65 2.05 -1.85 0.10 -0.20 0.55 -0.40 1 -0.40 0.60 0 0.45 0.35 -0.55 1.40 -0.75 0.75 -1.35 1.80 -1.35 2.25 0 0.45 -0.35 0.85 -0.75 0.85 -1.10 0 -0.90 1.55 0.25 1.85 0.55 0.15 0.85 0.50 0.70 0.75 -0.15 0.25 -0.65 0.35 -1.05 0.20 -0.40 -0.15 -1.30 0.10 -2.05 0.60 -1.40 0.90 -1.30 0.35 0.35 -1.60 0.80 -0.95 0.75 -0.95 -0.55 -0.05 -1.20 0.75 -2.75 2.75 -5.75 7.55 -0.30 0.50 -0.60 0.70 -0.60 0.35z"/>
  <path d="M15.25 11.65 c0.80 -1.85 2.25 -3.80 2.60 -3.45 0.20 0.20 -2.85 5.30 -3.20 5.30 -0.10 0 0.20 -0.85 0.60 -1.85z"/>
  <path d="M3.20 11.90 c0.55 -2.35 1.15 -3.60 2.25 -4.60 l1.05 -0.95 -0.75 1.80 c-0.40 1 -1.25 2.60 -1.80 3.45 -1 1.60 -1.05 1.60 -0.75 0.30z"/>
  <path d="M6.45 10.40 c0.50 -1.50 1.55 -3.70 2.30 -4.90 0.95 -1.55 1.15 -2.05 0.55 -1.80 -0.45 0.15 -1.15 0.45 -1.65 0.65 -0.55 0.20 -0.70 0.15 -0.45 -0.25 0.85 -1.40 -3.35 1.65 -4.90 3.55 -0.95 1.15 -1.90 1.95 -2.05 1.75 -0.55 -0.55 3.10 -4.70 5.80 -6.65 1.30 -1 2.45 -2.05 2.60 -2.40 0.10 -0.35 0.35 0.15 0.55 1.05 0.45 2 1.40 2.15 1 0.10 -0.30 -1.35 -0.20 -1.50 1 -1.50 0.70 0 1.30 0.25 1.30 0.50 0 0.30 0.45 0.50 1 0.50 0.55 0 1 -0.20 1 -0.50 0 -0.25 0.35 -0.50 0.75 -0.50 0.95 0 0.95 0.25 0.05 1.35 -0.40 0.50 -1.30 1.60 -2.05 2.50 -0.70 0.85 -1.75 1.65 -2.35 1.75 -0.75 0.10 -1.65 1.20 -2.85 3.50 -2.35 4.35 -2.75 4.70 -1.60 1.30z"/>
  <path d="M37.50 11.45 c0 -0.55 -0.25 -1.45 -0.50 -2 -0.40 -0.75 -0.35 -0.95 0.15 -0.95 0.75 0 1.35 1.45 1.35 3.15 0 0.45 -0.20 0.85 -0.50 0.85 -0.25 0 -0.50 -0.45 -0.50 -1.05z"/>
  <path d="M27.85 9.60 c-0.50 -0.75 -0.60 -3.50 -0.20 -3.95 0.20 -0.15 0.90 -0.05 1.60 0.25 0.70 0.35 1.85 0.60 2.50 0.60 1.50 0 1.60 0.75 0.25 1.50 -0.55 0.30 -1 0.85 -1 1.25 0 1.20 -0.80 0.85 -1.50 -0.60 l-0.65 -1.40 -0.30 1.50 c-0.20 1 -0.45 1.30 -0.70 0.85z"/>
  <path d="M19 6.65 c0 -0.25 0.60 -1 1.30 -1.70 1.20 -1.05 1.30 -1.10 0.80 -0.15 -0.65 1.25 -2.10 2.50 -2.10 1.85z"/>
  <path d="M0 4.90 c0.05 -0.75 4.05 -3.90 4.90 -3.90 0.35 0 0.60 -0.20 0.60 -0.50 0 -0.25 0.55 -0.50 1.25 -0.50 1.95 0 1.50 0.85 -1.10 2.20 -1.35 0.65 -2.85 1.60 -3.40 2.05 -0.55 0.45 -0.70 0.65 -0.30 0.45 0.45 -0.25 0.60 -0.15 0.35 0.20 -0.50 0.80 -2.30 0.75 -2.30 0z"/>
  <path d="M18.70 4.25 c-0.50 -1.25 0.20 -2.25 1.45 -2.15 l1.25 0.10 -1.05 1.40 c-1.20 1.60 -1.30 1.65 -1.65 0.65z"/>
  <path d="M27.50 4.35 c0 -1.05 0.55 -1.35 1.55 -0.80 1.35 0.70 1.15 1.45 -0.30 1.45 -0.70 0 -1.25 -0.30 -1.25 -0.65z"/>
  <path d="M32.65 2.45 c-0.60 -1.50 -0.55 -1.60 0.15 -0.85 0.45 0.40 0.70 1.15 0.60 1.65 -0.10 0.60 -0.35 0.35 -0.75 -0.80z"/>
  <path d="M34.50 1.65 c0 -0.90 0.10 -1.65 0.20 -1.65 0.45 0 0.65 1.95 0.25 2.55 -0.30 0.50 -0.45 0.20 -0.45 -0.90z"/>
  <path d="M0 1 c0 -0.80 0.35 -1 1.50 -1 1.80 0 2.05 1.25 0.40 1.70 -1.75 0.45 -1.90 0.40 -1.90 -0.70z"/>
 </g>
 <g fill="#8fa8b4">
  <path d="M26.30 38.65 c0.50 -2 0.70 -2.05 0.70 -0.25 0 0.90 -0.25 1.60 -0.50 1.60 -0.30 0 -0.40 -0.55 -0.20 -1.35z"/>
  <path d="M26 36.20 c0 -0.70 1.35 -2.50 1.65 -2.20 0.15 0.15 -0.15 0.80 -0.65 1.50 -0.55 0.70 -1 1 -1 0.70z"/>
  <path d="M23.80 31.20 c-0.40 -1.10 -0.35 -1.70 0.15 -1.70 0.60 0 1.05 1.95 0.55 2.25 -0.20 0.15 -0.55 -0.10 -0.70 -0.55z"/>
  <path d="M26.50 30.95 c-0.45 -0.75 -0.40 -1.20 0.05 -1.80 0.60 -0.65 0.70 -0.65 1 0.20 0.95 2.30 0.05 3.70 -1.05 1.60z"/>
  <path d="M18.15 30 c0.05 -0.55 0.20 -1 0.40 -1 0.20 0 0.45 0.45 0.60 1 0.15 0.65 0 1 -0.40 1 -0.40 0 -0.65 -0.45 -0.60 -1z"/>
  <path d="M23 14.75 c0 -0.70 0.25 -1.25 0.50 -1.25 0.30 0 0.50 0.55 0.50 1.25 0 0.70 -0.20 1.25 -0.50 1.25 -0.25 0 -0.50 -0.55 -0.50 -1.25z"/>
  <path d="M24.50 14.45 c0 -0.60 0.25 -0.95 0.60 -0.85 0.90 0.30 1 1.25 0.15 1.55 -0.50 0.25 -0.75 0 -0.75 -0.70z"/>
  <path d="M18.25 12.50 c0.90 -1 2.75 -1.40 2.75 -0.60 0 0.80 -1.20 1.60 -2.45 1.60 -1.15 0 -1.20 -0.05 -0.30 -1z"/>
  <path d="M8.10 1 c0.35 -0.55 1.05 -1 1.50 -1 0.55 0 0.90 0.40 0.90 1 0 0.80 -0.35 1 -1.50 1 -1.40 0 -1.45 -0.10 -0.90 -1z"/>
 </g>
 <g fill="#d6a492">
  <path d="M23.65 30.70 c-0.15 -0.40 -0.05 -1 0.30 -1.35 0.40 -0.40 0.55 -0.20 0.55 0.80 0 1.50 -0.35 1.75 -0.85 0.55z"/>
  <path d="M24 26.75 c0 -0.65 -1.10 -0.95 -3.35 -0.90 -0.35 0.05 -0.65 -0.25 -0.65 -0.65 0 -0.50 0.55 -0.60 2.40 -0.35 1.30 0.15 2.50 0.55 2.70 0.85 0.65 0.90 0.45 1.80 -0.35 1.80 -0.40 0 -0.75 -0.35 -0.75 -0.75z"/>
  <path d="M38.65 24 c0 -1.80 0.10 -2.50 0.20 -1.60 0.10 0.85 0.10 2.35 0 3.25 -0.10 0.85 -0.20 0.15 -0.20 -1.65z"/>
  <path d="M37.75 14.15 c-0.20 -1.90 -0.85 -4.80 -1.55 -6.50 -0.65 -1.70 -1.30 -4.10 -1.50 -5.25 l-0.30 -2.15 1.55 2.50 c0.85 1.40 1.70 2.45 1.90 2.40 0.25 0 0.45 2.75 0.55 6.15 0.05 3.40 0.05 6.20 -0.10 6.20 -0.10 0 -0.35 -1.50 -0.55 -3.35z"/>
  <path d="M30.75 13.15 c-0.40 -2.80 -1.50 -5.65 -2.15 -5.65 -0.25 0 -0.35 0.60 -0.25 1.40 0.20 1.05 0.10 1.20 -0.30 0.60 -0.90 -1.25 -0.65 -2.40 0.60 -2.65 l1.10 -0.20 -1.10 -0.10 c-0.95 -0.05 -1.15 -0.35 -1.15 -1.55 0 -1.15 0.20 -1.50 1 -1.50 0.55 0 1.25 0.45 1.60 0.95 0.45 0.75 0.80 0.85 1.25 0.45 0.50 -0.40 0.75 -0.20 1.15 0.85 0.55 1.50 0.30 2.25 -0.85 2.25 -0.65 0 -0.70 0.55 -0.40 3.75 0.35 4.15 0.05 5.05 -0.50 1.40z"/>
  <path d="M15 12.50 c0 -1 2.75 -5.05 4.55 -6.75 1.75 -1.65 1.35 -0.35 -0.50 1.60 -0.55 0.60 -1.70 2.15 -2.55 3.45 -0.80 1.35 -1.50 2.10 -1.50 1.70z"/>
  <path d="M33.90 7.60 c-0.50 -1.15 -0.90 -2.70 -0.90 -3.40 0 -0.70 -0.25 -1.70 -0.50 -2.25 -0.30 -0.50 -0.40 -0.95 -0.25 -0.95 0.65 0 2.80 5.85 2.65 7.25 -0.15 1.50 -0.15 1.50 -1 -0.65z"/>
  <path d="M14.20 6.75 c0.90 -1.40 0.40 -1.35 -1.30 0.15 -0.80 0.65 -0.90 0.65 -0.90 0 0 -0.45 0.35 -1.05 0.75 -1.40 0.90 -0.75 1 -1.70 0.15 -1.20 -0.35 0.20 -0.55 0.25 -0.40 0.05 0.15 -0.15 0.40 -0.25 0.55 -0.20 0.15 0.05 1.10 -0.50 2.10 -1.25 1.80 -1.45 3.65 -2 2.45 -0.80 -1.05 1.05 -0.65 1.55 0.65 0.70 1.50 -1 1.55 -1 1.95 -0.05 0.35 1 -3.10 4.90 -4.05 4.50 -0.40 -0.10 -1.20 0 -1.80 0.35 -1.05 0.55 -1.05 0.55 -0.15 -0.85z"/>
  <path d="M13 2 c0 -0.65 0.35 -1 1 -1 0.90 0 0.95 0.15 0.50 1 -0.30 0.55 -0.75 1 -1 1 -0.30 0 -0.50 -0.45 -0.50 -1z"/>
 </g>
 <g fill="#55f4ce">
  <path d="M18.25 31.85 c-0.20 -0.50 -0.20 -1.35 0.05 -1.90 0.45 -0.90 0.50 -0.90 1.05 0.55 0.30 0.80 0.40 1.40 0.15 1.25 -0.25 -0.15 -0.50 0.05 -0.65 0.35 -0.15 0.45 -0.35 0.35 -0.60 -0.25z"/>
  <path d="M19 26.05 c0 -0.25 0.30 -0.70 0.70 -1 0.75 -0.65 3.30 -0.25 3.30 0.50 0 0.25 -0.55 0.35 -1.20 0.15 -0.65 -0.15 -1.35 -0.05 -1.50 0.25 -0.45 0.65 -1.30 0.75 -1.30 0.10z"/>
  <path d="M18.75 16 c-1.20 -1.35 -0.65 -1.80 0.90 -0.75 1.75 1.10 3.55 0.25 3.20 -1.55 -0.15 -0.80 0 -1.15 0.35 -1.05 0.30 0.10 0.60 0.80 0.70 1.55 0.30 2.55 -3.30 3.80 -5.15 1.80z"/>
  <path d="M24.50 14.25 c0 -0.40 0.25 -0.75 0.50 -0.75 0.30 0 0.50 0.35 0.50 0.75 0 0.40 -0.20 0.75 -0.50 0.75 -0.25 0 -0.50 -0.35 -0.50 -0.75z"/>
  <path d="M17 14.10 c0 -0.70 1.75 -2.10 2.65 -2.10 0.95 0 1.05 0.40 0.40 1.45 -0.25 0.40 -0.80 0.55 -1.25 0.40 -0.45 -0.20 -0.80 -0.10 -0.80 0.15 0 0.30 -0.20 0.50 -0.50 0.50 -0.25 0 -0.50 -0.20 -0.50 -0.40z"/>
 </g>
 <g fill="#fc9595">
  <path d="M8 37.50 c-0.30 -0.60 -0.45 -1.20 -0.35 -1.35 0.15 -0.10 0.55 0.25 0.85 0.85 0.30 0.60 0.45 1.20 0.35 1.35 -0.15 0.10 -0.55 -0.25 -0.85 -0.85z"/>
  <path d="M21.20 34.95 c-0.25 -0.40 0.10 -0.50 1.10 -0.30 0.95 0.15 1.75 0 2.35 -0.50 0.45 -0.45 1 -0.65 1.25 -0.45 0.55 0.60 -1.45 1.80 -2.95 1.80 -0.75 0 -1.55 -0.25 -1.75 -0.55z"/>
  <path d="M18.15 31.70 c-0.15 -0.40 -0.05 -1.25 0.25 -1.85 0.50 -1 0.55 -0.90 0.55 0.80 0.05 1.95 -0.25 2.40 -0.80 1.05z"/>
  <path d="M23.85 31.20 c-0.20 -0.20 -0.35 -0.70 -0.35 -1.15 0 -0.55 0.15 -0.60 0.55 -0.20 0.30 0.30 0.50 0.80 0.35 1.15 -0.10 0.30 -0.35 0.40 -0.55 0.20z"/>
  <path d="M1 23.65 c0 -0.20 0.70 -1.40 1.50 -2.65 1.70 -2.60 1.95 -2.35 0.50 0.50 -0.95 1.85 -2 3 -2 2.15z"/>
  <path d="M19.75 20.35 c-1.20 -0.95 -0.65 -1.70 1.50 -1.95 1.95 -0.20 2.30 0.45 0.85 1.75 -1.10 1 -1.15 1.05 -2.35 0.20z"/>
  <path d="M26.80 19.90 c-1.10 -1.55 -0.20 -2.30 1.40 -1.20 0.75 0.45 1.30 1.15 1.30 1.55 0 1.15 -1.85 0.90 -2.70 -0.35z"/>
  <path d="M13.30 20.05 c-0.45 -0.65 0.15 -1.95 1.05 -2.25 1.25 -0.50 1.70 0.20 0.85 1.50 -0.85 1.25 -1.45 1.50 -1.90 0.75z"/>
  <path d="M29.85 8.50 c-0.15 -0.60 -0.70 -1 -1.30 -1 -1.35 0 -1.45 -2 -0.15 -2.80 0.70 -0.45 1.15 -0.40 2 0.30 0.60 0.50 1.10 1.15 1.10 1.45 0 0.30 0.30 0.55 0.65 0.55 0.35 0.05 0.25 0.30 -0.25 0.70 -0.50 0.35 -0.90 0.90 -0.90 1.25 0 0.95 -0.85 0.60 -1.15 -0.45z"/>
  <path d="M15 5.75 c0.75 -0.90 -0.05 -1 -0.90 -0.15 -0.45 0.45 -0.60 0.40 -0.60 -0.40 0 -1.25 0.90 -2.20 2.15 -2.20 0.80 0 0.85 0.10 0.35 0.75 -0.55 0.65 -0.50 0.70 0.20 0.45 0.60 -0.25 0.80 0 0.80 1 0 1.05 -0.25 1.30 -1.30 1.30 -1.10 0 -1.25 -0.10 -0.70 -0.75z"/>
 </g>
 <g fill="#eec196">
  <path d="M19.25 26.85 c-0.20 -0.50 -0.25 -1.05 -0.05 -1.20 0.55 -0.60 5.80 -0.80 5.80 -0.25 0 0.30 0.15 0.85 0.30 1.30 0.20 0.55 0.05 0.80 -0.50 0.80 -0.45 0 -0.80 -0.35 -0.80 -0.75 0 -0.40 -0.30 -0.75 -0.60 -0.75 -0.35 0 -1.15 -0.15 -1.75 -0.30 -0.90 -0.25 -1.25 -0.05 -1.60 0.85 -0.40 1.05 -0.50 1.10 -0.80 0.30z"/>
  <path d="M8.55 11.90 c1.45 -2.90 5.80 -8.75 6.75 -9.10 1.90 -0.75 1.65 -0.10 -1.10 2.85 -1.65 1.70 -3.75 4.30 -4.65 5.75 -2 3.15 -2.45 3.35 -1 0.50z"/>
  <path d="M3 12.20 c0 -0.35 0.45 -1.10 1.05 -1.75 0.80 -0.95 0.90 -1 0.50 -0.20 -0.85 1.70 -1.55 2.55 -1.55 1.95z"/>
  <path d="M6.25 11.50 c0.20 -0.70 0.70 -1.60 1.10 -2 0.60 -0.60 0.55 -0.35 -0.10 1 -1.10 2.25 -1.45 2.60 -1 1z"/>
  <path d="M0.90 7.90 c1.60 -2.10 5.85 -5.90 7.25 -6.55 0.75 -0.30 1.35 -0.75 1.35 -0.95 0 -0.75 2.05 -0.40 2.30 0.35 0.20 0.50 0.70 0.65 1.50 0.45 0.80 -0.20 1.20 -0.10 1.20 0.30 0 1.10 -2.50 4 -3.15 3.70 -0.35 -0.10 -1.25 0.30 -2 1 -1.60 1.50 -1.70 1.25 -0.30 -1 1.10 -1.80 1 -2 -0.65 -1.15 -0.90 0.45 -1 0.45 -0.75 -0.20 0.45 -1.20 -3 1 -5.10 3.25 -1.95 2.05 -3.10 2.60 -1.65 0.80z"/>
  <path d="M14.70 6.20 c0.50 -0.80 1.25 -1.75 1.70 -2.05 1.05 -0.85 3.10 -0.85 3.10 0 0 0.95 -2.30 3 -2.95 2.65 -0.30 -0.20 -1.05 -0.10 -1.65 0.25 l-1.10 0.60 0.90 -1.45z"/>
  <path d="M0 4.90 c0 -0.35 1.05 -1.40 2.25 -2.35 1.25 -0.90 2.25 -1.85 2.25 -2.10 0 -0.25 0.80 -0.45 1.75 -0.45 2.35 0 2.20 0.70 -0.35 1.95 -3.10 1.50 -4.95 2.80 -4.55 3.20 0.15 0.20 -0.05 0.35 -0.50 0.35 -0.45 0 -0.85 -0.30 -0.85 -0.60z"/>
  <path d="M1.30 0.75 c0.20 -0.40 0.85 -0.75 1.50 -0.75 1.35 0 1.60 0.75 0.40 1.20 -1.40 0.55 -2.20 0.35 -1.90 -0.45z"/>
 </g>
 <g fill="#c7c5d0">
  <path d="M26.80 34.75 c0.40 -1.15 0.40 -1.80 -0.10 -4.10 -0.40 -2.15 0.50 -2.15 1.25 -0.10 0.75 2.20 0.70 2.65 -0.50 4 -0.90 1.05 -1 1.05 -0.65 0.20z"/>
  <path d="M24.50 14.20 c0 -0.85 1.10 -0.70 1.40 0.20 0.10 0.35 -0.15 0.60 -0.60 0.60 -0.45 0 -0.80 -0.35 -0.80 -0.80z"/>
  <path d="M27.85 8.65 c-0.20 -0.15 -0.35 -0.90 -0.35 -1.65 0 -1.05 0.25 -1.30 1.50 -1.40 1.40 -0.10 1.50 0 1.50 1.70 0 1.75 -0.05 1.80 -0.90 1.05 -1.15 -1.05 -1.65 -1.10 -1.30 -0.10 0.30 0.80 0.10 1 -0.45 0.40z"/>
  <path d="M8 1.25 c1.50 -1.60 2.50 -1.60 2.50 0 0 1.10 -0.20 1.25 -1.85 1.25 l-1.80 0 1.15 -1.25z"/>
 </g>
 <g fill="#f2c2b4">
  <path d="M13.50 19.25 c0 -0.80 1.35 -1.60 1.85 -1.05 0.35 0.35 -0.80 1.80 -1.40 1.80 -0.25 0 -0.45 -0.35 -0.45 -0.75z"/>
  <path d="M30.50 11.55 c0 -1.40 -1.45 -4.55 -2.05 -4.55 -0.25 0 -0.35 0.60 -0.15 1.40 0.20 1.05 0.15 1.20 -0.25 0.60 -0.30 -0.40 -0.55 -1.55 -0.55 -2.50 0 -1.15 0.15 -1.50 0.45 -1.10 0.30 0.50 0.50 0.40 0.75 -0.50 l0.30 -1.15 1.20 1.35 c1.10 1.20 1.20 1.70 0.95 4.25 -0.30 3 -0.65 4.20 -0.65 2.20z"/>
  <path d="M16.55 9.65 c1 -1.90 4.45 -5.80 4.45 -5.05 0 0.20 -0.85 1.30 -1.85 2.50 -1.05 1.20 -2.30 2.75 -2.80 3.40 -0.60 0.85 -0.50 0.50 0.20 -0.85z"/>
  <path d="M33.80 6.75 c-0.45 -1.05 -0.75 -2.30 -0.65 -2.75 0.25 -1 1.95 2.85 1.70 3.90 -0.10 0.55 -0.45 0.15 -1.05 -1.15z"/>
  <path d="M35.70 6.25 c-0.80 -2 -0.90 -2.75 -0.25 -2.75 0.65 0 2.05 2.35 2.05 3.50 0 1.55 -1 1.20 -1.80 -0.75z"/>
  <path d="M11.95 6.60 c0.65 -1.20 4.55 -5.10 5.10 -5.10 0.95 0 0.35 0.85 -2.20 3.40 -2.70 2.70 -3.75 3.30 -2.90 1.70z"/>
  <path d="M15.60 6.60 l-1.15 -0.35 1.05 -1.10 c0.55 -0.65 1.70 -1.50 2.55 -1.95 l1.50 -0.75 -0.15 1.40 c-0.10 0.95 -0.40 1.35 -0.90 1.25 -0.40 -0.10 -0.60 0 -0.40 0.20 0.20 0.20 0.15 0.65 -0.15 1.05 -0.60 0.70 -0.65 0.70 -2.35 0.25z"/>
  <path d="M12.50 3.10 c0 -0.60 0.35 -1.25 0.75 -1.45 1.20 -0.45 1.25 0 0.25 1.35 l-1 1.25 0 -1.15z"/>
 </g>
 <g fill="#fde8ac">
  <path d="M23.85 26.50 c-0.35 -1.30 -3.10 -1.40 -3.80 -0.15 -0.25 0.50 -0.65 0.70 -0.85 0.50 -0.45 -0.45 0.45 -2.20 1 -1.95 0.15 0.05 1.30 0.10 2.55 0.10 1.90 0 2.25 0.15 2.25 0.95 0 1.35 -0.85 1.75 -1.15 0.55z"/>
  <path d="M15 6.10 c0 -0.50 1.10 -1.60 1.60 -1.60 0.75 0 0.40 1.40 -0.40 1.70 -1.05 0.40 -1.20 0.40 -1.20 -0.10z"/>
  <path d="M9 5.70 c0 -0.65 1.80 -2.85 3.05 -3.75 1.75 -1.25 2.80 -0.85 1.75 0.65 -0.70 0.95 -4.80 3.65 -4.80 3.10z"/>
  <path d="M13.25 5 c0.50 -0.55 1.10 -0.85 1.35 -0.70 0.60 0.40 -0.55 1.70 -1.50 1.70 -0.65 0 -0.60 -0.15 0.15 -1z"/>
  <path d="M2.95 2 c1.50 -1.35 2.65 -2 3.60 -2 1.90 0 1.85 0.75 -0.15 1.55 -0.90 0.35 -2.25 1.05 -3 1.55 -2.40 1.65 -2.70 0.95 -0.45 -1.10z"/>
  <path d="M6.05 2.85 c2.90 -2.45 3.50 -2.85 4.20 -2.85 0.65 0 0.85 0.55 0.70 1.90 0 0.20 -0.70 0.75 -1.50 1.30 -1.40 0.90 -1.45 0.90 -1.10 0 0.35 -0.90 0.30 -0.90 -1 -0.05 -1.90 1.20 -2.85 1.05 -1.30 -0.30z"/>
 </g>
 <g fill="#b8f3f4">
  <path d="M27.05 31.60 c-0.65 -1.25 -0.70 -2.60 -0.10 -2.60 0.50 0 1.30 2.90 0.90 3.35 -0.15 0.10 -0.50 -0.20 -0.80 -0.75z"/>
  <path d="M24.50 14.25 c0 -0.45 0.25 -0.75 0.55 -0.65 0.30 0.10 0.55 0.40 0.55 0.65 0 0.25 -0.25 0.55 -0.55 0.65 -0.30 0.10 -0.55 -0.20 -0.55 -0.65z"/>
  <path d="M17 14.05 c0 -0.65 2.50 -2.55 3.30 -2.55 0.85 0 0.85 0.50 0 1.65 -0.40 0.50 -1 0.75 -1.50 0.55 -0.45 -0.15 -0.80 -0.05 -0.80 0.25 0 0.30 -0.20 0.55 -0.50 0.55 -0.25 0 -0.50 -0.20 -0.50 -0.45z"/>
 </g>
 <g fill="#fbecd6">
  <path d="M13.50 19.65 c0 -0.25 0.20 -0.75 0.50 -1.15 0.55 -0.90 1.25 -0.35 0.85 0.75 -0.30 0.75 -1.35 1.05 -1.35 0.40z"/>
  <path d="M29.30 7.95 c-0.40 -0.60 -0.95 -0.90 -1.25 -0.70 -0.30 0.15 -0.55 -0.05 -0.55 -0.50 0 -0.45 0.20 -0.70 0.45 -0.50 0.30 0.15 0.75 -0.15 1 -0.60 0.50 -0.85 0.60 -0.85 1.30 0.05 0.85 1.10 1 3.30 0.30 3.30 -0.30 0 -0.85 -0.45 -1.25 -1.05z"/>
  <path d="M17.50 8.20 c0 -0.30 0.80 -1.30 1.80 -2.25 1.10 -1 1.60 -1.30 1.30 -0.70 -0.65 1.25 -3.10 3.60 -3.10 2.95z"/>
  <path d="M12.45 6.15 c0.75 -1.40 3.50 -3.85 3.90 -3.50 0.20 0.20 -0.55 1.25 -1.60 2.35 -2.05 2.10 -3.10 2.60 -2.30 1.15z"/>
  <path d="M15.30 6.15 c-0.40 -0.45 1.70 -2.65 2.55 -2.65 0.90 0 0.80 0.70 -0.20 1.60 -1.35 1.10 -1.95 1.40 -2.35 1.05z"/>
  <path d="M9.50 5 c0 -0.85 2.80 -3.50 3.70 -3.50 1.65 0 0.80 1.35 -1.80 2.95 -1.10 0.65 -1.90 0.90 -1.90 0.55z"/>
  <path d="M6.50 2.60 c0 -0.25 0.55 -0.75 1.25 -1.10 0.70 -0.35 1.25 -0.85 1.25 -1.10 0 -0.20 0.25 -0.40 0.50 -0.40 0.95 0 0.50 1.40 -0.75 2.20 -1.35 0.90 -2.25 1.05 -2.25 0.40z"/>
  <path d="M4.20 1.20 c0.15 -0.45 0.30 -0.90 0.30 -1 0 -0.10 0.55 -0.20 1.25 -0.20 1.60 0 1.60 0.70 0 1.40 -1.70 0.80 -1.90 0.75 -1.55 -0.20z"/>
 </g>
 <g fill="#f8fbf8">
  <path d="M27.40 32.20 c-0.25 -0.20 -0.40 -0.80 -0.40 -1.40 0 -0.70 0.15 -0.85 0.55 -0.45 0.30 0.30 0.45 0.95 0.35 1.40 -0.05 0.45 -0.30 0.65 -0.50 0.45z"/>
  <path d="M19 12.75 c0 -0.40 0.45 -0.75 1 -0.75 0.55 0 1 0.10 1 0.25 0 0.10 -0.45 0.45 -1 0.75 -0.80 0.45 -1 0.40 -1 -0.25z"/>
  <path d="M18 7.65 c0 -0.25 0.60 -1 1.30 -1.70 1.20 -1.05 1.30 -1.10 0.80 -0.15 -0.65 1.25 -2.10 2.50 -2.10 1.85z"/>
  <path d="M29.10 7.35 c-0.35 -0.40 -0.35 -0.90 -0.10 -1.35 0.40 -0.65 0.55 -0.65 1.30 0.10 0.45 0.45 0.65 1.05 0.50 1.35 -0.45 0.75 -1.05 0.70 -1.70 -0.10z"/>
  <path d="M13 5.65 c0 -0.50 1.80 -2.25 3 -2.90 0.40 -0.25 0.15 0.30 -0.55 1.25 -1.30 1.70 -2.45 2.45 -2.45 1.65z"/>
  <path d="M15.50 5.50 c0 -0.45 1.60 -1.50 2.30 -1.50 0.20 0 -0.05 0.45 -0.55 1 -0.95 1.05 -1.75 1.30 -1.75 0.50z"/>
  <path d="M10 4.55 c0 -0.85 1.90 -2.55 2.80 -2.55 0.45 0 0.70 0.25 0.60 0.55 -0.25 0.75 -3.40 2.65 -3.40 2z"/>
  <path d="M8.15 1.20 c0.80 -0.70 1.55 -1.15 1.75 -0.95 0.40 0.40 -1.75 2.25 -2.60 2.25 -0.30 0 0.10 -0.60 0.85 -1.30z"/>
  <path d="M4.75 0.50 c0.15 -0.25 0.75 -0.50 1.30 -0.50 0.55 0 0.85 0.25 0.70 0.50 -0.15 0.30 -0.75 0.50 -1.30 0.50 -0.55 0 -0.85 -0.20 -0.70 -0.50z"/>
 </g>
</svg>