<?xml version="1.0" encoding="utf-8"?>
<!DOCTYPE svg PUBLIC "-//W3C//DTD SVG 1.0//EN" "http://www.w3.org/TR/2001/REC-SVG-20010904/DTD/svg10.dtd">
<svg version="1.0" xmlns="http://www.w3.org/2000/svg" width="40px" height="40px" viewBox="0 0 40 40" preserveAspectRatio="xMidYMid meet">
 <g fill="#040304">
  <path d="M10 38.50 c0 -0.25 -0.55 -0.50 -1.25 -0.50 -1.20 0 -1.25 -0.15 -1.25 -2.80 0 -1.50 0.25 -3.75 0.55 -5 0.45 -1.80 0.80 -2.20 1.70 -2.20 1.10 0 1.10 0 0.45 3.15 -0.80 3.65 -0.85 5.35 -0.25 6.30 0.35 0.55 0.70 0.50 2 -0.40 1.40 -1 1.55 -1.40 1.55 -3.70 0 -1.45 -0.35 -3.20 -0.70 -3.95 -0.70 -1.35 -0.70 -1.40 0.50 -1.40 0.70 0 2.15 0.75 3.20 1.65 1.80 1.45 2 1.85 2 4 0 2.30 -0.05 2.35 -1.50 2.35 -1.05 0 -1.50 0.25 -1.50 0.80 0 0.45 -0.45 0.90 -1 1.05 -0.55 0.15 -1 0.45 -1 0.70 0 0.25 -0.80 0.45 -1.75 0.45 -0.95 0 -1.75 -0.20 -1.75 -0.50z"/>
  <path d="M20.50 33.65 c0 -2.50 2 -4.65 4.35 -4.65 1.50 0 1.65 0.15 1.65 1.55 0 1.40 -0.10 1.50 -0.80 0.90 -1 -0.85 -1.70 0.10 -1.70 2.45 0 1.50 -0.10 1.60 -1.75 1.60 -1.70 0 -1.75 -0.05 -1.75 -1.85z"/>
  <path d="M14.10 22.70 c-0.75 -0.55 -1.10 -1.25 -1.10 -2.50 0 -1.70 0 -1.70 2.25 -1.70 2.50 0 3.25 0.80 3.25 3.45 0 1.40 -0.15 1.55 -1.65 1.55 -0.90 0 -2.15 -0.35 -2.75 -0.80z"/>
  <path d="M20 21.60 c0 -2.50 0.70 -3.10 3.60 -3.10 2.35 0 2.40 0.05 2.40 1.55 0 2 -1.65 3.40 -4.10 3.45 -1.85 0 -1.90 -0.05 -1.90 -1.90z"/>
  <path d="M11.50 11.25 c0 -1.65 0.10 -1.75 1.75 -1.75 1.65 0 1.75 0.10 1.75 1.75 0 1.65 -0.10 1.75 -1.75 1.75 -1.65 0 -1.75 -0.10 -1.75 -1.75z"/>
 </g>
 <g fill="#120f1e">
  <path d="M31.50 39.50 c0 -0.25 0.45 -0.50 1 -0.50 0.55 0 1 0.25 1 0.50 0 0.30 -0.45 0.50 -1 0.50 -0.55 0 -1 -0.20 -1 -0.50z"/>
  <path d="M8.90 39.15 c-0.65 -0.15 -0.90 -0.75 -0.90 -1.95 0 -0.95 0.25 -1.70 0.50 -1.70 0.30 0 0.50 0.15 0.50 0.40 0 0.20 0.35 0.75 0.75 1.30 0.65 0.90 0.75 0.90 2.45 -0.15 0.95 -0.60 1.85 -1.35 2 -1.70 0.10 -0.35 0.25 0.25 0.25 1.30 0.05 1.35 -0.15 1.85 -0.70 1.85 -0.40 0 -0.75 0.25 -0.75 0.50 0 0.50 -2.45 0.60 -4.10 0.15z"/>
  <path d="M38.65 36.75 c-0.50 -1.60 -0.45 -1.75 0.40 -1.75 0.75 0 0.95 0.35 0.95 1.75 0 0.95 -0.20 1.75 -0.40 1.75 -0.25 0 -0.65 -0.80 -0.95 -1.75z"/>
  <path d="M16.15 36.65 c-0.35 -0.10 -0.65 -0.90 -0.65 -1.75 0 -1.30 0.10 -1.45 0.75 -0.90 0.65 0.50 0.75 0.45 0.75 -0.50 0 -1 0.20 -1.10 1.50 -0.80 1.70 0.30 3.20 -0.80 4 -2.95 0.40 -1 0.85 -1.25 2.25 -1.25 0.95 0 1.75 -0.20 1.75 -0.50 0 -0.25 0.70 -0.50 1.50 -0.50 0.85 0 1.50 -0.20 1.50 -0.50 0 -0.85 1.40 -0.55 1.65 0.40 0.15 0.65 0.30 0.55 0.75 -0.50 0.45 -1.05 0.90 -1.40 1.95 -1.40 0.90 0 1.20 0.15 0.75 0.40 -0.45 0.30 -1.55 4.75 -1.60 6.50 0 0.05 -0.35 0.10 -0.75 0.10 -0.45 0 -0.80 -0.50 -0.80 -1.35 -0.10 -1.20 -0.10 -1.25 -0.30 -0.25 -0.15 0.85 -0.55 1.10 -1.85 1.10 -0.85 0 -1.85 -0.25 -2.20 -0.60 -0.45 -0.45 -0.60 -0.45 -0.60 0.10 0 0.50 -0.20 0.45 -0.90 -0.15 -0.85 -0.80 -1 -0.75 -2.25 0.55 -0.75 0.80 -1.35 1.60 -1.35 1.90 0 0.25 0.45 -0.10 1 -0.80 l1 -1.25 -0.10 2 c-0.15 1.85 -0.25 2 -1.75 2.15 -0.90 0.10 -1.65 0.35 -1.65 0.65 0 0.45 -3.25 0.55 -4.35 0.10z"/>
  <path d="M36.10 30 l-1.05 -3 1.10 0 c1.25 0 2.35 2.20 2.35 4.65 0 2.35 -1.25 1.45 -2.40 -1.65z"/>
  <path d="M8.25 29.15 l0.30 -3.40 -1.50 -0.90 c-1.25 -0.75 -1.55 -1.25 -1.55 -2.65 0 -1.65 0.10 -1.70 1.85 -1.70 1.75 0 1.75 0.05 0.95 0.95 -0.80 0.85 -0.75 0.95 0.45 1.75 0.75 0.50 1.25 1.30 1.25 1.95 0 0.65 0.25 1.40 0.55 1.70 0.70 0.70 -1 5.65 -1.95 5.65 -0.55 0 -0.65 -0.70 -0.35 -3.35z"/>
  <path d="M18 26.75 c0 -1.65 0.10 -1.75 1.75 -1.75 1.65 0 1.75 0.10 1.75 1.75 0 1.65 -0.10 1.75 -1.75 1.75 -1.65 0 -1.75 -0.10 -1.75 -1.75z"/>
  <path d="M11.10 25.40 c-0.30 -1.15 -0.45 -2.20 -0.30 -2.35 0.10 -0.10 0.20 0.05 0.20 0.35 0 0.35 0.45 0.60 1 0.60 0.80 0 1 0.35 1 1.75 0 2.50 -1.25 2.25 -1.90 -0.35z"/>
  <path d="M29.30 22.15 c-0.15 -1.05 -0.30 -2.75 -0.30 -3.75 0 -1.80 0.10 -1.90 1.55 -1.90 2 0 3.45 1.60 3.45 3.85 0 2.15 -0.60 2.10 -1.80 -0.10 -0.90 -1.75 -2.10 -2.45 -1.50 -0.95 0.15 0.45 0.45 1.65 0.60 2.75 0.30 1.70 0.20 1.95 -0.65 1.95 -0.80 0 -1.10 -0.45 -1.35 -1.85z"/>
  <path d="M14.50 23.05 c0 -0.25 -0.65 -0.60 -1.50 -0.80 -1.30 -0.30 -1.50 -0.55 -1.50 -2 0 -1.75 0.65 -2.25 2.80 -2.25 0.85 0 1.20 -0.30 1.20 -1 0 -0.80 0.35 -1 1.90 -1 3.25 0 4.10 -0.45 4.10 -2.05 0 -1.25 0.20 -1.45 1.45 -1.45 2.45 0 3.05 0.45 3.05 2.30 0 1.40 -0.25 1.75 -1.25 2 -1.45 0.35 -1.65 1.20 -0.30 1.20 1.90 0 2.55 0.55 2.55 2.25 0 1.75 -0.80 2.25 -3.75 2.25 l-1.50 -0.05 1.40 -1.20 c1.20 -1.10 1.30 -1.25 0.45 -1.25 -0.55 0 -1.25 0.35 -1.60 0.75 -0.35 0.40 -1.25 0.75 -2 0.75 -0.95 0 -1.45 0.30 -1.65 1 -0.20 0.75 -0.70 1 -2.05 1 -1 0 -1.80 -0.20 -1.80 -0.45z m2 -2.05 c-0.30 -0.55 -0.90 -1 -1.40 -1 -0.70 0.05 -0.65 0.20 0.35 1 1.45 1.25 1.70 1.25 1.05 0z"/>
  <path d="M11.80 12.70 c-0.15 -0.45 -0.30 -1.45 -0.30 -2.25 0 -1.45 0.10 -1.50 1.90 -1.35 1.80 0.15 1.85 0.20 2 2.30 0.15 2.10 0.15 2.10 -1.55 2.10 -1.15 0 -1.85 -0.30 -2.05 -0.80z"/>
  <path d="M22.10 5.65 c-1.80 -2.25 -1.35 -5.65 0.70 -5.65 0.90 0 1.20 0.30 1.20 1.05 0 0.80 -0.20 0.95 -1.05 0.70 l-1.10 -0.35 1.10 1.55 c1.60 2.25 2 2.30 1.70 0.15 -0.20 -1.35 -0.05 -2.10 0.55 -2.55 0.45 -0.40 0.95 -0.55 1.10 -0.45 0.45 0.45 -0.40 2.90 -1 2.90 -0.40 0 -0.40 0.10 0 0.40 0.30 0.20 0.75 1.10 0.95 2 0.30 1.55 0.30 1.60 -1.35 1.60 -1.25 0 -2 -0.35 -2.80 -1.35z"/>
 </g>
 <g fill="#2c253e">
  <path d="M29.50 38.50 c0 -0.80 0.20 -1.50 0.45 -1.50 0.25 0 0.60 -0.55 0.75 -1.25 0.20 -0.80 0.65 -1.25 1.30 -1.25 1.20 0 1.35 1.40 0.25 2.80 -0.90 1.20 -0.95 1.70 -0.05 1.70 0.40 0 0.90 0.25 1.05 0.50 0.20 0.30 -0.50 0.50 -1.70 0.50 -1.95 0 -2.05 -0.10 -2.05 -1.50z"/>
  <path d="M7.50 36.75 c0 -1.20 0.25 -1.75 0.75 -1.75 0.40 0 0.75 0.35 0.75 0.75 0 0.40 0.45 1.20 1 1.75 l1 1 -1.75 0 c-1.65 0 -1.75 -0.10 -1.75 -1.75z"/>
  <path d="M16.50 36.90 c-0.40 -0.40 -1.15 -0.65 -1.75 -0.50 -1.10 0.20 -1.40 -0.90 -0.95 -3.30 0.25 -1.15 0.25 -1.15 2.20 0.60 2 1.80 3 2.25 3 1.30 0 -0.25 -0.35 -0.50 -0.75 -0.50 -0.45 0 -0.90 -0.40 -1.10 -0.85 -0.15 -0.50 -1 -1.50 -1.85 -2.25 l-1.55 -1.35 1.90 -0.05 c1 0 1.85 0.20 1.85 0.45 0 1 2.30 1 3.60 0.05 0.75 -0.55 2.05 -1.15 2.90 -1.30 1.25 -0.25 1.50 -0.55 1.50 -1.75 0 -1.30 0.15 -1.45 1.65 -1.45 1.65 0 3.35 1.20 3.35 2.40 0 1.15 1 0.55 1.30 -0.75 0.20 -0.80 0.80 -1.90 1.35 -2.50 0.90 -1.05 0.95 -1.30 0.35 -2.50 -0.40 -0.80 -0.80 -1.55 -0.90 -1.75 -0.10 -0.25 0.40 -0.40 1.10 -0.40 1.15 0 1.30 0.20 1.30 1.75 0 1.20 0.25 1.75 0.75 1.75 0.50 0 0.75 0.55 0.75 1.75 0 1.20 -0.25 1.75 -0.75 1.75 -0.40 0 -0.75 -0.35 -0.75 -0.75 0 -0.40 -0.20 -0.75 -0.45 -0.75 -0.60 0 -1.15 1.70 -1.35 4 -0.05 0.95 -0.35 1.80 -0.65 1.90 -0.30 0.10 -0.55 0.50 -0.55 0.90 0 0.55 -0.50 0.70 -1.85 0.60 -1.55 -0.10 -1.95 -0.35 -2.05 -1.25 -0.20 -1.25 -1.10 -1.60 -1.10 -0.40 0 1.15 -0.75 0.90 -1.50 -0.50 l-0.70 -1.30 -1.15 1.40 c-2.25 2.70 -2.80 4.30 -0.65 2.05 l1 -1.10 0 1.85 c0 2.15 -0.85 2.75 -4.45 3.20 -1.75 0.20 -2.60 0.05 -3.05 -0.45z"/>
  <path d="M2.20 35.45 c0.15 -0.85 0.30 -2.35 0.30 -3.25 0 -1.95 1.35 -2.40 1.60 -0.60 0.15 1 0.35 0.80 1.75 -1.30 1.55 -2.30 1.85 -3.70 0.55 -2.40 -0.85 0.85 -1.55 0.75 -2.30 -0.45 -0.50 -0.80 -0.50 -1.20 -0.05 -1.75 0.80 -0.95 1.45 -0.90 1.50 0.20 0 0.50 0.15 0.60 0.30 0.25 0.10 -0.35 0.65 -0.65 1.20 -0.65 0.60 0 0.95 -0.35 0.95 -1 0 -0.65 -0.35 -1 -1 -1 -0.80 0 -1 -0.35 -1 -1.75 0 -1.40 0.20 -1.75 0.95 -1.75 0.55 0 1.05 -0.25 1.15 -0.55 0.10 -0.25 1.10 -0.65 2.30 -0.80 1.15 -0.15 2.10 -0.50 2.10 -0.70 0 -0.25 0.80 -0.45 1.75 -0.45 1.35 0 1.75 -0.20 1.75 -0.90 0 -0.55 0.65 -1.15 1.75 -1.50 1.15 -0.45 1.60 -0.90 1.40 -1.35 -0.40 -1.10 -1.65 -0.90 -1.65 0.25 0 0.80 -0.35 1 -1.70 1 -0.90 0 -1.95 -0.35 -2.30 -0.75 -0.35 -0.40 -0.95 -0.75 -1.30 -0.75 -0.45 0 -0.70 -0.60 -0.70 -1.75 0 -1.70 0.05 -1.75 1.95 -1.75 1.10 0 2.15 -0.20 2.30 -0.50 0.20 -0.30 -0.85 -0.50 -2.70 -0.50 -2.30 0 -3.05 -0.15 -3.05 -0.70 0 -0.40 0.65 -0.85 1.40 -1.05 0.80 -0.15 1.75 -0.90 2.30 -1.75 0.45 -0.85 1.10 -1.50 1.35 -1.50 0.30 0 0.40 -0.20 0.25 -0.45 -0.40 -0.65 1.30 -3.55 2.10 -3.55 0.40 0 0.65 0.65 0.60 1.90 0 1 0.15 2.80 0.30 3.95 0.25 1.90 0.20 2.10 -0.90 2.30 -0.65 0.10 -0.25 0.25 1 0.30 1.95 0.05 2.10 -0.05 2.10 -1.20 0 -0.80 0.30 -1.25 0.75 -1.25 0.55 0 0.75 -0.55 0.75 -1.85 l0 -1.90 1.55 1.75 1.50 1.75 -0.30 -1.80 c-0.40 -2.05 0.35 -3.95 1.50 -3.95 0.80 0 1 0.80 0.30 1.20 -0.65 0.40 -1.10 3.95 -0.50 4.30 0.25 0.20 0.55 1 0.65 1.80 0.10 0.85 0.50 1.50 1 1.60 0.45 0.10 0.80 0.50 0.80 0.90 0 0.80 -1.60 0.90 -4.85 0.25 -1.20 -0.25 -2.15 -0.20 -2.15 0 0 0.25 0.25 0.45 0.50 0.45 0.30 0 0.50 0.45 0.50 1 0 0.70 0.35 1 1.20 1 0.65 0 1.55 0.15 2 0.30 1.20 0.45 1 3.10 -0.25 4.15 -1 0.80 -1 0.85 1 1.35 l2.05 0.55 0 -1.70 c0 -1.65 0.05 -1.70 1.90 -1.55 1.75 0.15 1.85 0.25 2 2.15 0.15 1.95 0.15 1.95 -0.85 1.05 -1.20 -1.10 -1.30 -0.70 -0.50 2.65 0.60 2.60 0.20 5.05 -0.85 5.05 -0.50 0 -0.70 -0.65 -0.75 -2.10 -0.05 -1.20 -0.25 -2.70 -0.45 -3.40 -0.40 -1.20 -0.40 -1.15 -0.45 0.40 -0.05 1.45 -0.20 1.60 -1.60 1.60 -0.85 0 -1.90 -0.40 -2.35 -0.85 -0.80 -0.80 -0.85 -0.75 -1 0.50 -0.10 0.75 -0.50 1.35 -0.90 1.35 -0.50 0 -0.70 0.65 -0.70 2.30 l0 2.25 -1.85 -0.15 c-1.85 -0.15 -1.90 -0.20 -1.90 -2.30 0 -2.05 -0.05 -2.10 -1.60 -2.10 -1.15 0 -1.65 -0.25 -1.65 -0.75 0 -0.45 -0.45 -0.75 -1.25 -0.75 -1.05 0 -1.25 0.25 -1.25 1.50 0 0.85 0.25 1.50 0.50 1.50 0.30 0 0.50 0.80 0.50 1.80 0 2.90 -1.10 1.80 -2.45 -2.45 -1.25 -3.95 -1.65 -4.30 -3.20 -3.15 -0.85 0.65 -0.80 0.75 0.60 1.60 1.10 0.65 1.55 1.30 1.55 2.20 0 0.70 0.25 1.55 0.55 1.85 0.40 0.40 0.35 0.85 -0.15 1.60 -0.70 1.10 -1.40 1.40 -1.40 0.55 0 -0.25 -0.35 -0.50 -0.75 -0.50 -0.40 0 -0.75 0.45 -0.75 1 0 0.65 0.35 1 1 1 1.05 0 1.20 0.50 0.70 2.40 -0.40 1.35 -1.70 1.45 -1.70 0.10 0 -0.65 -0.35 -1 -1 -1 -0.65 0 -1 0.35 -1 1 0 0.55 -0.35 1 -0.75 1 -0.45 0 -0.75 0.45 -0.75 1.25 0 0.95 -0.25 1.25 -1.05 1.25 -0.95 0 -1.05 -0.20 -0.75 -1.55z m17.15 -14.30 c-0.15 -0.50 -0.25 -0.10 -0.25 0.85 0 0.95 0.10 1.35 0.25 0.90 0.10 -0.50 0.10 -1.30 0 -1.75z m-2.35 0.40 c0 -0.30 -0.20 -0.60 -0.50 -0.80 -0.25 -0.15 -0.35 -0.65 -0.20 -1.15 0.25 -0.65 0.20 -0.70 -0.20 -0.15 -0.25 0.35 -0.70 0.55 -1 0.35 -0.30 -0.15 -0.85 -0.15 -1.30 0 -0.65 0.25 -0.45 0.50 0.80 1.20 2 1.05 2.40 1.15 2.40 0.55z m6.65 -0.50 c1.40 -0.70 1.65 -1 1.05 -1.25 -0.45 -0.15 -1 -0.20 -1.25 0 -0.25 0.15 -0.45 0.05 -0.45 -0.20 0 -0.25 -0.55 -0.35 -1.25 -0.20 -1.45 0.25 -1.60 -0.20 -0.40 -1.60 0.70 -0.80 0.60 -0.80 -0.45 0.15 -0.75 0.60 -1.55 1 -1.85 0.85 -0.35 -0.20 -0.40 -0.05 -0.25 0.40 0.20 0.55 0.95 0.80 2.10 0.80 1.40 0 1.65 0.15 1.20 0.60 -0.55 0.55 -0.80 1.40 -0.45 1.40 0.05 0 0.95 -0.45 2 -0.95z"/>
  <path d="M37.50 33.55 c-0.80 -1.55 -0.60 -2.55 0.50 -2.55 0.80 0 1 0.35 1 1.75 0 1.95 -0.70 2.30 -1.50 0.80z"/>
  <path d="M0.10 18.70 c0.10 -0.45 0.65 -1 1.30 -1.25 0.95 -0.35 1.10 -0.25 1.10 0.80 0 1 -0.25 1.25 -1.30 1.25 -0.90 0 -1.25 -0.25 -1.10 -0.80z"/>
  <path d="M8.85 14.40 c0.40 -0.70 0.50 -0.95 0.60 -2.15 0 -0.40 0.40 -0.75 0.80 -0.75 0.50 0 0.75 0.55 0.75 1.75 0 1.55 -0.15 1.75 -1.30 1.75 -0.90 0 -1.15 -0.20 -0.85 -0.60z"/>
  <path d="M6.80 8.25 c-0.55 -0.40 -0.85 -0.90 -0.65 -1.05 0.50 -0.55 3.35 0.35 3.35 1.10 0 0.90 -1.45 0.90 -2.70 -0.05z"/>
 </g>
 <g fill="#423656">
  <path d="M9 38.50 c0 -1.35 0.10 -1.45 0.95 -0.90 0.75 0.45 1.15 0.45 1.75 -0.05 0.70 -0.60 0.80 -0.50 0.80 0.90 0 1.45 -0.10 1.55 -1.75 1.55 -1.60 0 -1.75 -0.10 -1.75 -1.50z"/>
  <path d="M21.50 38.75 c0 -1.10 -0.20 -1.25 -2 -1.25 -1.10 0 -2 -0.20 -2 -0.50 0 -0.25 -0.50 -0.50 -1.10 -0.50 -1.75 0 -2.40 -0.65 -2.75 -2.65 -0.35 -2.15 0.35 -2.40 1.70 -0.70 0.50 0.60 1.45 1.50 2.05 1.95 1.55 1.05 3.95 0.40 5.45 -1.45 l1.15 -1.40 0 1.40 c0 0.75 -0.30 1.35 -0.60 1.35 -0.45 0 -0.45 0.15 -0.10 0.40 0.30 0.20 0.70 0.80 0.90 1.35 0.35 1 0.40 1 1.30 -0.10 1.25 -1.55 1.50 -1.45 1.50 0.60 0 1.20 -0.25 1.75 -0.75 1.75 -0.40 0 -0.75 0.25 -0.75 0.50 0 0.30 -0.90 0.50 -2 0.50 -1.80 0 -2 -0.10 -2 -1.25z"/>
  <path d="M29.50 37.60 c0 -2.35 -0.90 -5.10 -1.60 -5.10 -0.25 0 -0.40 -0.85 -0.40 -1.85 l0.05 -1.90 1.55 1.75 c1.10 1.25 1.35 1.35 0.75 0.45 -0.45 -0.75 -0.70 -1.75 -0.65 -2.25 0.10 -0.55 0.05 -0.65 -0.05 -0.30 -0.20 0.50 -0.45 0.45 -1.20 -0.20 -0.90 -0.80 -0.95 -0.80 -0.65 -0.05 0.20 0.65 0.05 0.85 -0.75 0.85 -0.90 0 -1.05 -0.30 -1.05 -2.25 0 -1.45 -0.20 -2.25 -0.60 -2.25 -0.35 0 -1.15 -0.15 -1.75 -0.30 -1.10 -0.30 -1.15 -0.15 -1.15 2.25 l0 2.55 -2.25 0 -2.25 0 0 -2 c0 -1.10 0.25 -2 0.50 -2 0.30 0 0.50 -0.45 0.50 -1 0 -0.65 0.35 -1 1 -1 0.65 0 1 -0.35 1 -1 0 -0.80 -0.35 -1 -1.75 -1 -1.25 0 -1.75 -0.20 -1.75 -0.80 0 -0.45 -0.35 -0.70 -0.85 -0.60 -0.50 0.05 -1.20 -0.05 -1.50 -0.25 -0.40 -0.25 -0.65 -0.20 -0.65 0.10 0 0.30 -0.50 0.55 -1.10 0.60 -0.80 0.05 -0.55 0.20 0.75 0.55 2.25 0.60 2.40 1.65 0.30 2.10 -2.75 0.55 -3.40 0.35 -3.75 -0.95 -0.30 -1.20 -0.35 -1.20 -1.85 -0.45 l-1.50 0.80 1.50 1.20 c1.80 1.40 2.40 4 1.55 6.80 -0.65 2.15 -1.90 2.55 -1.90 0.65 0 -0.70 -0.20 -1.25 -0.50 -1.25 -0.85 0 -0.55 -1.40 0.40 -2 0.80 -0.55 0.80 -0.55 0 -0.30 -0.75 0.20 -0.90 -0.05 -0.90 -1.65 0 -1.65 -0.20 -2 -1.25 -2.25 -1 -0.25 -1.25 -0.65 -1.25 -1.80 0 -1.40 0.10 -1.50 1.95 -1.50 1.25 0 2.05 -0.25 2.25 -0.75 0.15 -0.45 0.90 -0.75 1.80 -0.75 1 0 1.50 -0.25 1.50 -0.75 0 -0.50 0.50 -0.75 1.50 -0.75 0.85 0 1.50 -0.20 1.50 -0.45 0 -0.25 0.50 -0.60 1.15 -0.70 1 -0.20 0.95 -0.20 -0.20 -0.30 -0.75 0 -1.45 -0.40 -1.65 -0.80 -0.15 -0.40 -0.85 -0.75 -1.55 -0.75 -1.05 0 -1.25 -0.25 -1.25 -1.50 0 -1.05 -0.25 -1.50 -0.85 -1.50 -0.70 0 -0.70 -0.10 0.10 -1 0.80 -0.90 0.80 -1 0.10 -1 -0.50 0 -0.85 -0.35 -0.85 -0.75 0 -0.40 0.45 -0.75 0.95 -0.75 0.55 0 1.30 -0.35 1.75 -0.75 1 -1 1.85 -0.95 1.45 0.15 -0.30 0.80 -0.25 0.80 0.65 0.05 0.50 -0.45 1.25 -0.70 1.60 -0.60 0.55 0.20 0.60 0.05 0.15 -0.75 -0.65 -1.25 -0.70 -3.60 -0.10 -4.55 0.25 -0.40 1.75 -0.75 4 -0.95 3.05 -0.20 3.55 -0.10 3.55 0.60 0 0.45 -0.40 0.80 -1 0.80 -0.95 0 -1 0.10 -0.30 1.40 0.40 0.80 1.10 1.75 1.60 2.15 0.80 0.65 0.85 0.60 0.55 -0.60 -0.40 -1.65 0.50 -4.45 1.45 -4.45 0.85 0 0.95 0.80 0.15 1.30 -0.40 0.20 -0.45 1.25 -0.25 3.15 0.20 1.55 0.35 3.20 0.35 3.65 0 0.50 0.20 0.90 0.45 0.90 0.25 0 0.35 0.35 0.15 0.80 -0.25 0.65 -0.80 0.75 -2.75 0.60 -2.65 -0.30 -3.10 0.10 -1.15 1 0.70 0.30 1.25 0.80 1.25 1.10 0 0.25 1.20 0.50 2.65 0.50 1.45 0 2.95 0.30 3.30 0.65 0.55 0.50 0.70 0.50 0.90 0 0.15 -0.35 0.60 -0.65 1.05 -0.65 1.15 0 3.60 2.50 3.60 3.65 0 0.80 -0.30 0.95 -2 0.75 -1.75 -0.15 -2 -0.05 -2 0.85 0 0.95 -0.10 0.90 -1.05 -0.25 l-1 -1.25 0.35 1.90 c0.25 1.50 0.15 1.85 -0.50 1.85 -0.45 0 -0.80 0.25 -0.80 0.50 0 0.30 0.35 0.50 0.80 0.50 0.65 0 0.75 0.40 0.60 1.85 -0.15 1.05 -0.45 2.35 -0.65 2.85 -0.35 0.80 -0.25 0.90 0.40 0.65 0.55 -0.20 0.85 0.05 1 0.80 l0.20 1.10 0.40 -1.10 c0.20 -0.65 0.65 -1.15 1 -1.15 1 0 0.40 8.85 -0.80 10.90 -0.70 1.25 -0.75 1.60 -0.20 1.60 0.35 0 0.85 0.25 1 0.50 0.20 0.30 -0.40 0.50 -1.45 0.50 l-1.80 0 0 -2.40z m-9 -11.70 c0 -0.95 -0.10 -1 -0.50 -0.40 -0.65 0.95 -0.65 1.50 0 1.50 0.30 0 0.50 -0.50 0.50 -1.10z m4.80 -5.40 c0.60 0 1.25 0.25 1.35 0.50 0.15 0.30 0.20 0.25 0.15 -0.10 -0.05 -0.35 -0.85 -0.85 -1.70 -1.10 -0.90 -0.25 -1.60 -0.80 -1.60 -1.20 0 -0.60 0.50 -0.70 2.50 -0.45 1.90 0.25 2.50 0.15 2.50 -0.35 0 -1 -1.90 -1.30 -3.95 -0.65 -1.35 0.45 -1.85 0.90 -1.95 1.85 -0.10 0.70 -0.50 1.60 -0.90 2.05 -1.10 1.20 -0.20 1.55 1.20 0.45 0.65 -0.55 1.75 -1 2.40 -1z m-3.15 -3.25 c1.90 -2 2.45 -2.80 1.90 -3 -0.40 -0.15 -0.85 -0.05 -1.05 0.20 -0.15 0.30 -1.55 1.10 -3.15 1.80 l-2.80 1.30 1.10 1.20 c0.60 0.65 1.15 1.20 1.20 1.20 0.10 0.05 1.30 -1.20 2.80 -2.70z m-2.65 -3 c0 -0.40 -0.35 -0.75 -0.75 -0.75 -0.40 0 -0.75 0.35 -0.75 0.75 0 0.40 0.35 0.75 0.75 0.75 0.40 0 0.75 -0.35 0.75 -0.75z m-3.50 -0.90 c0 -0.10 -0.65 -0.80 -1.50 -1.60 -1.15 -1.10 -1.50 -1.25 -1.50 -0.60 0 0.45 0.30 0.85 0.70 0.85 0.35 0 0.95 0.35 1.30 0.75 0.60 0.70 1 0.95 1 0.60z m1 -4.85 c0 -0.25 -0.35 -0.50 -0.75 -0.50 -0.40 0 -0.75 0.25 -0.75 0.50 0 0.30 0.35 0.50 0.75 0.50 0.40 0 0.75 -0.20 0.75 -0.50z m6 -3.75 c0 -0.40 -0.20 -0.75 -0.50 -0.75 -0.25 0 -0.50 0.35 -0.50 0.75 0 0.40 0.25 0.75 0.50 0.75 0.30 0 0.50 -0.35 0.50 -0.75z"/>
  <path d="M18.85 18.65 c-0.70 -0.65 -0.30 -1.15 1.70 -2.20 l2.05 -1 -1.45 1.75 c-1.45 1.85 -1.75 2.05 -2.30 1.45z"/>
  <path d="M19.25 34.50 c-0.15 -0.25 0.10 -0.50 0.60 -0.50 0.50 -0.05 0.05 -0.35 -1 -0.70 -1.70 -0.65 -5.35 -3.05 -5.35 -3.60 0 -0.10 0.80 -0.20 1.75 -0.20 1.40 0 1.75 0.20 1.75 1 0 1.20 1.80 1.35 3.30 0.25 0.50 -0.40 1.75 -0.70 2.70 -0.70 l1.75 0 -1.55 1.40 c-0.90 0.80 -1.75 1.90 -1.95 2.50 -0.35 1.10 -1.45 1.40 -2 0.55z"/>
  <path d="M2.50 32.75 c0 -1.25 0.20 -1.75 0.80 -1.75 0.55 0 0.70 0.30 0.45 1.05 -0.25 0.75 -0.20 0.95 0.20 0.75 0.35 -0.20 0.55 0.05 0.55 0.65 0 0.70 -0.30 1.05 -1 1.05 -0.80 0 -1 -0.35 -1 -1.75z"/>
  <path d="M1.75 28 c-1 -1.10 -0.80 -1.70 0.45 -1.20 0.45 0.15 0.80 0.75 0.80 1.25 0 1.20 -0.15 1.20 -1.25 -0.05z"/>
  <path d="M4.05 27.05 c-0.40 -0.70 -0.30 -1.15 0.45 -1.80 1 -0.90 1 -0.85 1 0.90 0 2 -0.65 2.40 -1.45 0.90z"/>
  <path d="M11.30 25.90 c-0.50 -1.90 -0.35 -2.40 0.70 -2.40 0.80 0 1 0.35 1 1.75 0 2 -1.20 2.45 -1.70 0.65z"/>
  <path d="M33.50 24.75 c0.30 -0.40 0.45 -1.15 0.25 -1.75 -0.25 -0.85 -0.10 -1 0.95 -1 1.15 0 1.30 0.20 1.30 1.75 0 1.65 -0.10 1.75 -1.55 1.75 -1.30 0 -1.45 -0.10 -0.95 -0.75z"/>
 </g>
 <g fill="#4f4469">
  <path d="M21.70 37.40 c0.55 -4.05 2.30 -5.50 2.30 -1.90 0 1.10 0.25 2 0.50 2 0.30 0 0.50 0.55 0.50 1.25 0 1.10 -0.20 1.25 -1.80 1.25 l-1.85 0 0.35 -2.60z"/>
  <path d="M27 38.25 c0 -1.40 0.20 -1.75 1 -1.75 0.85 0 1 -0.35 1 -2.50 0 -1.90 -0.20 -2.50 -0.75 -2.50 -0.40 0 -0.75 -0.45 -0.75 -1 0 -1.35 -0.95 -1.30 -1.45 0.10 -0.35 0.95 -0.40 0.95 -0.70 0.20 -0.30 -0.75 -0.55 -0.70 -2.20 0.55 -1.05 0.75 -2.05 1.60 -2.20 1.80 -0.15 0.25 -1.20 0.20 -2.25 -0.10 -1.95 -0.50 -1.95 -0.55 -1.80 -2.55 0.15 -1.20 0.45 -2 0.85 -2 0.45 0 0.55 -0.65 0.35 -2.25 l-0.25 -2.25 1.80 0 c1.75 0 1.80 0.05 2.10 2.20 0.20 1.20 0.20 2.65 0 3.25 -0.15 0.60 -0.10 1.05 0.15 1.05 0.30 0 0.65 -0.90 0.85 -2 0.30 -1.75 0.50 -2 1.65 -2.05 0.85 -0.05 1.05 -0.15 0.50 -0.30 -0.50 -0.10 -0.90 -0.55 -0.90 -0.95 0 -0.40 -0.20 -0.70 -0.50 -0.70 -0.25 0 -0.50 -0.75 -0.50 -1.70 0 -1.75 0.65 -2.30 2.55 -2.30 1.15 0 1.20 0.40 0.10 1.60 -0.45 0.50 -0.60 0.90 -0.30 0.90 0.25 0 0.90 -0.45 1.40 -1 1.20 -1.30 0.45 -2.15 -2 -2.20 -1.15 -0.05 -1.75 -0.30 -1.75 -0.75 0 -1.10 -1.40 0.30 -1.60 1.60 -0.10 0.85 -0.55 1.15 -2 1.25 -1.65 0.15 -1.90 0 -1.90 -0.85 0 -0.75 -0.30 -1.05 -1.10 -1.05 -0.60 0 -1.50 -0.40 -2 -0.85 -0.90 -0.80 -0.90 -0.80 -0.60 0 0.25 0.70 0 0.85 -1.25 0.85 -0.90 0 -2.40 0.40 -3.45 0.95 -1 0.50 -2.20 0.80 -2.60 0.65 -0.40 -0.10 0.20 0.50 1.40 1.35 1.45 1.10 2.10 1.90 2.10 2.75 0 0.70 0.25 1.40 0.50 1.55 1.10 0.70 -0.50 2.25 -2.30 2.25 -1.60 0 -1.70 -0.10 -1.20 -1.05 0.40 -0.65 0.85 -0.90 1.40 -0.70 0.65 0.25 0.70 0.15 0.30 -0.25 -0.45 -0.45 -0.85 -0.45 -1.55 -0.05 -1.25 0.65 -3.15 0.15 -3.15 -0.80 0 -0.35 0.40 -1.25 0.85 -1.95 0.70 -1.10 0.70 -1.35 0.10 -1.75 -0.40 -0.25 -1.10 -0.45 -1.55 -0.45 -0.70 0 -0.90 -0.40 -0.90 -1.75 0 -1.65 0.10 -1.75 1.75 -1.75 0.95 0 1.75 0.25 1.75 0.50 0 0.30 0.55 0.25 1.40 -0.15 0.75 -0.40 1.95 -0.85 2.75 -1.05 0.75 -0.15 1.35 -0.55 1.35 -0.80 0 -0.25 0.90 -0.65 2.05 -0.80 1.45 -0.25 1.95 -0.55 1.75 -1.05 -0.20 -0.40 -0.30 -0.95 -0.30 -1.20 0 -0.75 -3 -0.50 -3.30 0.30 -0.20 0.45 -0.95 0.75 -2 0.75 -1.75 0 -2.30 -0.65 -0.95 -1.20 0.40 -0.15 0.75 -0.85 0.75 -1.60 0 -0.80 0.60 -1.85 1.55 -2.75 l1.55 -1.45 -1.55 0.30 c-1.20 0.25 -1.55 0.15 -1.55 -0.50 0 -0.50 0.45 -0.80 1.20 -0.80 1.30 0 2.45 -0.90 3.30 -2.55 0.55 -1 1.50 -1.30 1.50 -0.40 0 0.30 -0.60 1.35 -1.35 2.35 l-1.35 1.85 1.40 -1.25 c0.75 -0.70 1.80 -1.20 2.35 -1.10 0.90 0.15 0.85 0 -0.35 -1.75 -1.05 -1.60 -1.15 -1.95 -0.50 -2.05 0.45 -0.10 0.80 -0.35 0.80 -0.60 0 -1.05 1.65 -1.95 3.55 -1.90 1.55 0 1.95 0.20 1.90 0.85 -0.15 1.55 0.05 2 1.75 3.80 l1.70 1.80 -0.40 -1.80 c-0.50 -2.15 -0.15 -3.75 0.85 -3.75 0.40 0 0.55 0.25 0.40 0.55 -0.20 0.25 -0.20 2.05 0 4 0.35 3.35 0.40 3.45 1.70 3.45 1.05 0 2.30 0.95 5.40 4.15 2.20 2.25 4.40 4.85 4.90 5.75 0.55 0.85 1.15 1.60 1.35 1.60 0.20 0 0.40 0.35 0.40 0.75 0 0.55 -0.55 0.75 -2.15 0.75 -1.85 0 -2.30 -0.20 -2.90 -1.35 -0.40 -0.80 -1 -1.70 -1.30 -2.05 -0.35 -0.35 -0.65 -1.10 -0.65 -1.65 0 -0.50 -0.20 -0.95 -0.50 -0.95 -0.25 0 -0.50 0.25 -0.50 0.50 0 0.85 -1.40 0.55 -1.65 -0.35 -0.15 -0.55 -0.25 -0.40 -0.30 0.45 0 0.75 0.30 2.65 0.70 4.20 0.80 3.05 0.55 5.20 -0.55 5.20 -0.40 0 -0.70 0.35 -0.70 0.75 0 0.40 0.35 0.75 0.75 0.75 0.40 0 0.75 0.35 0.75 0.80 0 0.40 0.25 0.60 0.50 0.45 0.30 -0.15 0.50 -0.75 0.50 -1.25 0 -0.50 0.55 -1.60 1.25 -2.35 1.35 -1.55 1.70 -0.75 0.50 1.35 -0.45 0.80 -0.70 2.70 -0.75 5.10 0 4 -0.70 6.40 -1.80 6.40 -1.05 0 -0.20 1.40 0.95 1.65 0.60 0.10 -0.30 0.25 -2 0.30 l-3.15 0.05 0 -1.75z m4.30 -4.95 c-0.15 -0.60 -1.10 -2.20 -2.15 -3.55 l-1.85 -2.40 0.80 -2.20 c0.40 -1.15 0.60 -2 0.35 -1.85 -0.25 0.15 -0.70 1.15 -1 2.20 -0.60 1.90 -0.55 2.10 1.45 4.95 1.15 1.65 2.15 3.60 2.15 4.40 0.05 0.90 0.15 1.10 0.30 0.50 0.15 -0.50 0.10 -1.45 -0.05 -2.05z m-10.80 -7.40 l0 -1.65 -0.75 1.45 c-0.90 1.75 -0.90 1.80 0 1.80 0.50 0 0.75 -0.50 0.75 -1.60z m1.50 -8.45 c2.30 -2.45 2.50 -2.55 4.65 -2.40 1.25 0.10 2.15 0.05 2 -0.15 -0.10 -0.25 -1.15 -0.40 -2.25 -0.40 -2.35 0 -4.70 -1.30 -6.30 -3.45 l-1.15 -1.55 1.25 0 c1.35 0 3.80 2.10 3.80 3.25 0 0.80 1 0.95 3.45 0.45 1.05 -0.25 1.55 -0.60 1.55 -1.25 0 -0.80 -0.40 -0.95 -2.50 -0.95 -1.35 0 -2.50 -0.20 -2.50 -0.50 0 -0.25 -0.80 -0.85 -1.80 -1.25 -2 -0.80 -4.20 -1 -4.20 -0.35 0 0.25 1.10 1.60 2.50 3.05 2.45 2.55 2.45 2.55 1.35 3.25 -0.60 0.40 -2.10 1.10 -3.30 1.60 -1.30 0.50 -1.95 1 -1.50 1.10 0.40 0.15 1 0.65 1.35 1.20 0.35 0.50 0.80 0.90 0.95 0.90 0.15 0 1.35 -1.15 2.65 -2.55z m-5.50 -3.90 c0 -0.25 -0.80 -1.05 -1.75 -1.75 -1.70 -1.30 -1.75 -1.30 -1.75 -0.30 0 0.60 0.20 0.95 0.45 0.80 0.25 -0.15 1 0.15 1.60 0.70 1.40 1.10 1.45 1.15 1.45 0.55z m1.50 -2.85 c0 -0.40 -0.20 -0.60 -0.50 -0.45 -0.25 0.15 -0.50 0.65 -0.50 1.05 0 0.40 0.25 0.60 0.50 0.45 0.30 -0.15 0.50 -0.65 0.50 -1.05z m7.50 -1.95 c0 -0.35 -2.35 -1.25 -4 -1.60 -1.70 -0.30 -1.10 0.20 1.30 1.05 2.20 0.80 2.70 0.90 2.70 0.55z m-6.10 -5.20 c-0.65 -0.75 -1.30 -1.30 -1.50 -1.20 -0.25 0.10 0.20 0.75 1 1.40 1.80 1.60 1.90 1.55 0.50 -0.20z"/>
  <path d="M18.85 18.30 c-0.15 -0.40 0.40 -0.95 1.50 -1.50 l1.75 -0.85 -1.15 1.50 c-1.35 1.70 -1.75 1.85 -2.10 0.85z"/>
  <path d="M38.70 39.20 c0.15 -0.45 0.30 -1 0.30 -1.25 0 -0.25 0.25 -0.45 0.50 -0.45 0.30 0 0.50 0.55 0.50 1.25 0 0.80 -0.30 1.25 -0.80 1.25 -0.55 0 -0.70 -0.25 -0.50 -0.80z"/>
  <path d="M2.30 35.40 c0.20 -1.20 0.30 -2.75 0.25 -3.50 -0.05 -1 0.15 -1.40 0.75 -1.40 0.60 0 0.75 0.30 0.50 1.30 -0.25 0.95 -0.15 1.20 0.25 0.90 0.45 -0.25 0.50 0 0.30 0.85 -0.20 0.65 -0.35 1.80 -0.35 2.60 0 1.05 -0.25 1.35 -1.05 1.35 -0.95 0 -1 -0.20 -0.65 -2.10z"/>
  <path d="M16.50 36.50 c0 -0.70 -0.35 -1 -1.20 -1 -0.90 0 -1.25 -0.35 -1.50 -1.60 -0.45 -2.25 0.05 -2.35 1.95 -0.30 0.90 1.05 2.25 2 2.95 2.20 1.95 0.50 1.65 1.70 -0.45 1.70 -1.40 0 -1.75 -0.20 -1.75 -1z"/>
  <path d="M38.75 36.55 c-0.15 -0.30 -0.60 -1.40 -1 -2.50 -0.70 -2 -0.70 -2.05 0.45 -2.05 1.25 0 1.80 1.05 1.80 3.65 0 1.30 -0.65 1.80 -1.25 0.90z"/>
  <path d="M7.50 32.25 c0 -1.40 0.20 -1.75 1 -1.75 1.05 0 1.20 0.50 0.70 2.40 -0.50 1.80 -1.70 1.35 -1.70 -0.65z"/>
  <path d="M1.85 28 c-0.95 -1.60 -0.45 -2 0.85 -0.70 0.85 0.80 1.10 2.20 0.40 2.20 -0.20 0 -0.80 -0.65 -1.25 -1.50z"/>
  <path d="M11.80 27.40 c-0.50 -1.90 -0.35 -2.40 0.70 -2.40 0.80 0 1 0.35 1 1.75 0 2 -1.20 2.45 -1.70 0.65z"/>
  <path d="M10.35 22.40 c-0.40 -1.50 0.10 -2.10 1.05 -1.30 0.60 0.50 0.70 0.50 0.40 0.05 -0.25 -0.45 -0.05 -0.65 0.55 -0.65 1.05 0 2.80 1 1.80 1 -0.35 0 -0.65 0.45 -0.65 1 0 1.50 -2.75 1.40 -3.15 -0.10z"/>
 </g>
 <g fill="#604e78">
  <path d="M5 38.85 c0 -0.70 0.15 -1.95 0.30 -2.80 0.30 -1.35 0.50 -1.55 2.05 -1.55 l1.70 0 -0.15 2.65 -0.15 2.60 -1.85 0.15 c-1.70 0.15 -1.90 0.05 -1.90 -1.05z"/>
  <path d="M12 38.75 c0 -1.10 0.20 -1.25 2 -1.25 1.80 0 2 0.15 2 1.25 0 1.15 -0.20 1.25 -2 1.25 -1.80 0 -2 -0.10 -2 -1.25z"/>
  <path d="M18 38.70 c-0.90 -2.25 -0.65 -3.10 0.80 -2.80 0.80 0.15 1.80 -0.15 2.70 -0.85 1.65 -1.20 2.60 -1.35 2.45 -0.40 -0.35 2.75 1.20 4.10 1.85 1.60 0.30 -1.25 1.45 -1.70 1.80 -0.75 0.10 0.25 0.40 0.30 0.70 0.10 0.80 -0.50 0.25 -3.60 -0.60 -3.60 -0.40 0 -0.75 -0.50 -0.75 -1.10 -0.05 -0.85 -0.10 -0.95 -0.30 -0.25 -0.10 0.45 -0.35 0.85 -0.50 0.85 -0.15 0 -0.60 -0.40 -0.95 -0.85 -0.50 -0.65 -0.80 -0.75 -1.10 -0.30 -0.20 0.30 -1.15 1.10 -2.10 1.75 -2.05 1.40 -4.45 1.20 -6.15 -0.55 l-1.05 -1.05 1.05 0 c0.95 0 1.10 -0.35 1.25 -2.10 0.10 -1.80 0.35 -2.20 1.25 -2.30 0.85 -0.10 1.05 0.05 0.85 0.55 -0.15 0.40 0.10 0.85 0.50 1 0.55 0.25 0.80 0 0.80 -0.65 0 -1.20 0.65 -1.30 1.70 -0.25 0.40 0.40 1.30 0.75 2 0.75 0.95 0 1.35 -0.30 1.55 -1.25 0.15 -0.70 0.40 -1.85 0.55 -2.60 0.15 -0.80 0.75 -1.90 1.30 -2.50 l1.05 -1.15 -1.60 0 c-1.25 0 -1.60 -0.20 -1.35 -0.75 0.20 -0.60 -0.10 -0.55 -1.60 0.20 -2.25 1.15 -3.35 2.30 -2.65 2.75 0.30 0.20 0.95 -0.10 1.55 -0.70 1 -1 3.50 -1.40 3.50 -0.55 0 0.30 -0.50 0.85 -1.10 1.25 -0.60 0.45 -0.85 0.80 -0.50 0.80 0.30 0 0.60 0.25 0.60 0.50 0 0.85 -1.90 0.55 -2.15 -0.35 -0.20 -0.85 -0.25 -0.85 -0.30 0 -0.05 0.65 -0.50 0.85 -1.80 0.85 -1.65 0 -1.75 -0.10 -1.75 -1.65 0 -1.65 1.80 -4.75 3.60 -6.25 1.10 -0.90 4.40 -1.25 5.20 -0.55 0.55 0.45 0.70 0.40 0.70 -0.25 0 -0.65 -0.50 -0.80 -2.45 -0.80 -2.55 0 -3.85 -0.75 -6.70 -3.75 l-1.40 -1.50 1 1.70 c0.50 0.90 1.55 2.05 2.30 2.55 1.35 0.90 1.35 0.90 0.30 1.45 -0.70 0.40 -1.05 0.40 -1.05 0.05 0 -0.25 -0.60 -0.45 -1.35 -0.45 -0.85 0.05 -1.05 0.15 -0.50 0.30 1.35 0.35 1 1.15 -0.90 1.95 l-1.80 0.70 1.25 1.15 c1.10 0.95 1.20 1.40 0.95 3.50 l-0.30 2.40 -1.80 -0.15 c-1.55 -0.15 -1.80 -0.35 -1.95 -1.50 -0.10 -0.80 -0.45 -1.40 -0.90 -1.40 -0.50 0 -0.70 0.65 -0.70 2.50 0 3.35 -1.05 3.30 -2.15 -0.10 -0.90 -2.80 -0.65 -4.10 0.55 -2.60 0.70 0.90 0.70 0.90 0.40 0 -0.30 -0.80 -0.10 -0.90 1.55 -0.55 1.05 0.20 2.30 0.70 2.80 1.10 0.45 0.45 1 0.65 1.25 0.45 0.20 -0.25 -0.40 -1 -1.25 -1.75 -1.85 -1.55 -2.05 -2.05 -0.75 -2.10 0.45 0 0.60 -0.15 0.30 -0.25 -0.30 -0.15 -1.10 0 -1.75 0.25 -0.65 0.25 -0.90 0.50 -0.55 0.50 1.40 0.10 0.45 0.85 -1.10 0.90 -0.90 0.05 -2.35 0.40 -3.20 0.85 -0.85 0.45 -1.95 0.80 -2.40 0.80 -0.65 0 -0.70 0.15 -0.20 0.75 0.35 0.40 0.90 0.75 1.25 0.75 0.90 0 2.40 1.85 2 2.50 -0.20 0.30 -0.05 0.85 0.25 1.25 0.50 0.60 0.45 0.75 -0.20 0.75 -1.65 0 -2.80 -1 -2.80 -2.45 0 -1.15 -0.30 -1.50 -1.30 -1.75 -0.85 -0.25 -1.60 -0.10 -2.15 0.45 -0.50 0.40 -1.50 0.75 -2.20 0.75 -1.25 0 -1.35 -0.15 -1.35 -2 0 -1.65 0.15 -2 1 -2 0.55 0 1 -0.30 1 -0.60 0 -0.35 1.85 -1.55 4.05 -2.65 3.15 -1.50 3.85 -2.05 3.15 -2.30 -0.85 -0.30 -0.85 -0.40 -0.15 -0.70 0.55 -0.20 0.75 -0.70 0.60 -1.40 -0.15 -0.80 -0.10 -0.90 0.25 -0.45 0.35 0.55 0.50 0.45 0.75 -0.35 0.15 -0.60 0.05 -0.95 -0.20 -0.75 -0.25 0.15 -0.30 -0.10 -0.15 -0.50 0.15 -0.45 0.45 -0.80 0.65 -0.80 0.20 0 1.30 -0.80 2.40 -1.75 1.70 -1.45 2.30 -1.70 3.60 -1.45 1.30 0.25 1.55 0.15 1.55 -0.60 0 -0.70 -0.15 -0.75 -0.40 -0.30 -0.35 0.50 -0.60 0.40 -1.20 -0.25 -1.70 -1.95 -1.95 -2.95 -0.90 -3.90 0.95 -0.85 1 -0.85 1 0.15 0 0.60 0.20 1.10 0.50 1.10 0.65 0 4.50 3.45 4.50 4.05 0 0.25 -0.40 0.30 -0.85 0.15 -0.85 -0.25 -0.85 -0.25 0 0.30 0.60 0.40 0.75 0.90 0.55 1.80 -0.20 0.70 -0.10 1.20 0.25 1.20 0.30 0 0.55 -0.55 0.55 -1.25 0 -1.15 0.10 -1.20 1.40 -0.70 0.75 0.30 2.25 0.55 3.35 0.55 1.75 0 2.35 0.35 5.15 3.10 1.75 1.65 4.15 4.45 5.40 6.20 1.95 2.80 2.20 3.45 2.20 5.85 0 2.60 -0.10 2.75 -1.20 2.75 -0.75 0 -1.30 -0.35 -1.45 -0.85 -0.15 -0.50 -0.25 -0.05 -0.30 1 -0.05 2.35 -1.05 2.30 -1.80 -0.05 -0.25 -0.90 -0.75 -1.60 -1.10 -1.60 -0.80 0 -0.85 -0.80 -0.10 -1.30 0.40 -0.20 0.40 -0.45 0 -0.85 -0.85 -0.85 -0.65 -1.35 0.45 -1.35 1.15 0 0.90 -1.10 -0.60 -2.60 -0.50 -0.50 -0.90 -1.35 -0.90 -1.90 0 -0.75 -0.35 -1 -1.25 -1 -0.75 0 -1.25 -0.30 -1.25 -0.70 0 -0.40 -0.20 -0.85 -0.40 -1 -0.40 -0.25 -0.05 3.20 0.75 6.95 0.65 3.15 0.25 6.25 -0.75 6.25 -0.60 0 -0.65 0.15 -0.25 0.40 0.35 0.20 0.80 0.95 1.10 1.60 0.50 1.20 0.50 1.20 0.50 0.15 0.05 -0.70 0.35 -1.15 0.80 -1.15 1.25 0 1 5.55 -0.35 8.55 -1.15 2.45 -1.15 2.45 -3.50 2.45 -1.80 0 -2.40 -0.20 -2.40 -0.75 0 -0.40 -0.35 -0.75 -0.75 -0.75 -0.40 0 -0.75 0.35 -0.75 0.75 0 0.60 -0.65 0.75 -3 0.75 -2.80 0 -3.05 -0.10 -3.50 -1.30z m13.50 -4.10 c0 -1.45 -0.50 -2.55 -2 -4.60 -2.15 -2.90 -2.25 -4.30 -0.45 -6.30 1 -1.05 1.25 -2.20 0.55 -2.20 -0.50 0 -2.60 4.25 -2.60 5.35 0 0.40 0.90 2.10 2 3.75 1.05 1.60 1.85 3.25 1.65 3.65 -0.25 0.75 0.10 2.25 0.60 2.25 0.15 0 0.25 -0.85 0.25 -1.90z m3.50 -18.25 c0 -0.10 -0.75 -0.80 -1.60 -1.65 l-1.65 -1.45 1.45 1.65 c1.40 1.50 1.80 1.85 1.80 1.45z m-19.05 -3.65 c-0.65 -0.70 -1.60 -1.50 -2.05 -1.75 -0.75 -0.40 -0.90 -0.30 -0.90 0.55 0 0.65 0.35 1 0.95 1 0.50 0 1.20 0.35 1.55 0.75 0.35 0.40 0.85 0.75 1.15 0.75 0.30 0 0 -0.60 -0.70 -1.30z m11.70 0.50 c1.25 -0.45 0.40 -2.20 -1.10 -2.20 -0.70 0 -1.80 -0.15 -2.40 -0.30 -0.95 -0.25 -1.15 -0.10 -1.15 0.75 0 0.60 0.30 1.05 0.75 1.05 0.40 0 0.75 0.25 0.75 0.50 0 0.55 1.95 0.70 3.15 0.20z m-9.65 -2.25 c0 -0.55 -0.20 -0.85 -0.50 -0.70 -0.25 0.15 -0.50 0.65 -0.50 1.05 0 0.40 0.25 0.70 0.50 0.70 0.30 0 0.50 -0.45 0.50 -1.05z"/>
  <path d="M2.30 37.75 c-0.40 -1.50 -0.05 -2.25 1 -2.25 0.45 0 0.70 0.55 0.70 1.75 0 2.10 -1.20 2.45 -1.70 0.50z"/>
  <path d="M13.80 33.90 c-0.15 -0.65 -0.30 -1.30 -0.30 -1.50 0 -0.70 1.45 0.20 2.25 1.40 0.75 1.15 0.75 1.20 -0.45 1.20 -0.80 0 -1.30 -0.35 -1.50 -1.10z"/>
  <path d="M2.65 31.75 c-0.10 -1.35 0.05 -1.75 0.65 -1.75 0.65 0 0.75 0.35 0.50 1.50 -0.15 0.95 -0.10 1.45 0.20 1.25 0.30 -0.15 0.50 -0.05 0.50 0.20 0 0.30 -0.40 0.55 -0.85 0.55 -0.65 0 -0.95 -0.45 -1 -1.75z"/>
  <path d="M7.50 31.75 c0 -1.40 0.20 -1.75 1 -1.75 1.05 0 1.20 0.50 0.70 2.40 -0.50 1.80 -1.70 1.35 -1.70 -0.65z"/>
  <path d="M10.60 8.35 c0.45 -0.45 1.05 -0.85 1.30 -0.85 0.25 0 1.05 -0.70 1.75 -1.60 0.75 -0.85 1.50 -1.45 1.65 -1.25 0.45 0.40 -2.30 3.85 -3.05 3.85 -0.40 0 -1.10 0.15 -1.60 0.35 -0.85 0.30 -0.85 0.30 -0.05 -0.50z"/>
  <path d="M24.50 7.95 c-1.45 -0.55 -5.50 -4.65 -5.50 -5.50 0 -0.30 -0.35 -0.45 -0.75 -0.25 -0.50 0.20 -0.75 -0.05 -0.75 -0.75 0 -1.25 1.25 -1.75 2.25 -0.95 0.50 0.45 0.75 0.45 0.75 0.05 0 -0.30 0.80 -0.55 1.75 -0.55 1.30 0 1.75 0.20 1.75 0.80 0 0.55 -0.30 0.75 -1 0.55 -1.10 -0.30 -1.85 0.40 -1 0.90 0.30 0.20 0.40 0.50 0.25 0.75 -0.15 0.20 0.10 0.50 0.50 0.70 0.40 0.15 1.20 1 1.75 1.90 l1 1.65 -0.30 -1.60 c-0.20 -1 -0.10 -1.65 0.20 -1.65 0.45 0 1.10 2.25 1.10 3.80 0 0.80 -0.30 0.80 -2 0.15z"/>
 </g>
 <g fill="#6f5b85">
  <path d="M2.80 39.20 c-0.65 -1.65 -0.35 -2.30 0.90 -2.10 0.85 0.20 1.30 0 1.45 -0.65 0.15 -0.60 -0.15 -0.90 -1.15 -1.10 -1.25 -0.30 -1.35 -0.45 -1.35 -3.30 -0.05 -2.40 0.10 -3.05 0.70 -3.05 0.65 0 0.70 0.45 0.50 2.10 l-0.30 2.15 1.45 -1.70 c0.80 -0.90 1.60 -2.05 1.75 -2.60 0.30 -0.90 0.90 -1.20 2 -0.95 0.30 0.05 0.20 -0.20 -0.10 -0.55 -0.50 -0.50 -0.85 -0.50 -1.85 0.05 -2.60 1.40 -3.75 -0.60 -1.55 -2.80 1.55 -1.55 1.55 -1.70 0.15 -1.70 -0.65 0.05 -1.95 0.70 -2.90 1.50 -0.95 0.85 -1.90 1.50 -2.10 1.50 -0.20 0 -0.40 -1.55 -0.40 -3.50 0 -3.50 0 -3.50 1.40 -3.55 0.75 0 1.05 -0.15 0.70 -0.30 -1.55 -0.60 -0.10 -1.55 6.05 -4.10 1.80 -0.70 1.85 -0.70 1.85 0.45 0 0.70 0.25 0.90 0.85 0.65 0.55 -0.20 0.60 -0.40 0.25 -0.55 -0.75 -0.25 -0.80 -2.90 -0.05 -3.40 0.40 -0.25 0.40 -0.45 -0.05 -0.70 -0.35 -0.25 0.15 -0.95 1.60 -2.05 1.20 -0.95 2.25 -1.85 2.30 -2.05 0.10 -0.25 0.75 -0.40 1.45 -0.40 l1.20 0 -1 -1.45 c-1.25 -1.75 -1.30 -2.20 -0.25 -3.80 0.85 -1.35 2.90 -1.70 3.40 -0.60 0.20 0.45 0.40 0.45 0.55 0.05 0.15 -0.35 0.75 -0.45 1.30 -0.35 0.75 0.20 0.85 0.40 0.40 0.65 -0.45 0.30 -0.20 0.95 0.95 2.40 0.90 1.10 1.80 2.50 2.10 3.15 0.40 0.95 0.45 0.75 0.20 -1 -0.20 -1.40 -0.15 -2.05 0.20 -1.85 0.55 0.30 1.35 4.20 1 4.60 -0.60 0.55 -3.50 -1.30 -5.35 -3.40 -1.75 -1.95 -1.95 -2.35 -1.20 -2.55 0.60 -0.15 0.45 -0.25 -0.40 -0.30 -2.10 -0.10 -2.05 0.50 0.30 2.55 2.55 2.25 2.90 3.10 0.95 2.35 -0.75 -0.25 -1.40 -0.40 -1.55 -0.30 -0.45 0.50 6.85 2.70 8.45 2.60 1.70 -0.15 2.10 0.15 5.75 3.95 2.15 2.25 4.35 4.90 4.90 5.95 0.55 1 1.15 1.85 1.35 1.85 0.25 0 0.40 1.45 0.40 3.25 0 3.05 -0.05 3.25 -1.10 3.25 -0.95 -0.05 -1.45 -0.70 -2.75 -3.65 -0.85 -2 -1.75 -4.10 -1.90 -4.70 -0.35 -1.25 -1.50 -1.55 -1.95 -0.50 -0.40 1 -1.80 -1.10 -1.80 -2.75 0 -1.40 0 -1.40 -3.35 -1.40 l-3.35 0 -2.40 -2.55 c-1.85 -1.85 -2.70 -2.40 -3.45 -2.20 -0.95 0.30 -1.35 2.25 -0.45 2.25 0.30 0 0.50 -0.35 0.50 -0.75 0 -0.40 0.20 -0.75 0.45 -0.75 0.85 0 1.15 1 0.55 1.75 -0.50 0.65 -0.40 0.75 0.90 0.75 0.80 0 1.75 0.35 2.15 0.80 0.80 1 0.50 1.20 -4.95 3.30 -2.80 1.05 -3.90 1.70 -3.50 2 0.45 0.30 0.35 0.40 -0.35 0.25 -0.55 -0.10 -2.10 0.35 -3.45 1.05 -1.65 0.80 -2.85 1.05 -3.70 0.85 -1.15 -0.30 -0.60 -0.65 4.30 -3.15 3.10 -1.55 5.40 -2.90 5.15 -3 -0.25 -0.10 -3.05 1.15 -6.25 2.80 l-5.75 2.90 2.65 1.35 c2.90 1.45 4.20 2.65 3.55 3.25 -0.20 0.20 -0.50 0.05 -0.60 -0.25 -0.15 -0.35 -0.50 -0.65 -0.80 -0.65 -0.30 0 0.10 0.70 0.90 1.50 l1.45 1.50 -0.85 2.40 c-1.10 3 -1.10 6.50 -0.05 7.65 0.80 0.85 0.90 0.85 2.55 -0.40 1.60 -1.20 1.75 -1.55 1.50 -3.20 -0.20 -1.40 -0.10 -1.80 0.40 -1.65 0.90 0.35 1.45 1.65 1.30 3.10 -0.10 0.80 0.15 1.10 0.90 1.10 0.60 0 1.05 -0.25 1.05 -0.50 0 -0.35 0.30 -0.35 0.90 -0.10 1.15 0.60 2.05 0.25 4 -1.60 l1.70 -1.55 -0.15 1.50 c-0.25 3.10 -0.10 3.30 1.95 3.15 1.35 -0.10 2 -0.45 2.35 -1.25 0.25 -0.65 0.75 -1.15 1.10 -1.15 0.35 0 0.65 -0.35 0.65 -0.75 0 -0.40 -0.45 -0.75 -1 -0.75 -0.80 0 -1 -0.35 -1 -1.75 0 -1.95 -1.05 -2.40 -1.95 -0.85 -0.30 0.45 -0.55 0.60 -0.55 0.30 0 -0.25 -0.35 -0.95 -0.80 -1.50 -0.40 -0.50 -0.65 -0.70 -0.50 -0.45 0.30 0.70 -0.15 1.35 -1.80 2.40 -1.30 0.80 -1.35 0.80 -1.50 -0.30 -0.15 -1.10 -2.40 -1.95 -2.40 -0.90 0 0.30 0.35 0.55 0.75 0.55 0.40 0 0.75 0.25 0.75 0.50 0 0.30 -0.85 0.50 -1.95 0.50 -2.60 0 -5.85 -2.90 -6.35 -5.60 -0.30 -1.70 -0.20 -1.90 0.75 -1.90 0.70 0 1.05 0.30 1.05 1 0 0.50 0.60 1.55 1.40 2.25 l1.35 1.25 0.25 -1.35 c0.20 -0.95 0.60 -1.45 1.40 -1.55 0.60 -0.10 1.10 -0.50 1.10 -0.90 0 -0.40 0.25 -0.70 0.50 -0.70 0.65 0 0.65 0.05 -0.20 2.05 -0.70 1.65 -0.65 1.70 0.35 1.70 0.95 0 1.10 -0.25 0.90 -1.85 -0.15 -1.65 0 -1.90 0.90 -1.90 0.80 0 1.05 0.30 1.05 1.40 0 1.05 0.10 1.20 0.50 0.60 0.70 -1.10 0.60 -4.40 -0.10 -4.65 -0.70 -0.25 1.70 -1.35 2.90 -1.35 1.05 0 0.85 0.90 -0.40 1.55 -0.70 0.40 -0.90 0.70 -0.50 0.85 0.30 0.10 0.60 0.55 0.65 1 0 0.60 0.20 0.45 0.60 -0.40 0.30 -0.70 1 -1.70 1.45 -2.20 1.25 -1.40 1.15 -1.65 -0.60 -1.40 -1.55 0.20 -1.90 -0.30 -0.95 -1.25 0.40 -0.40 0.40 -0.80 -0.05 -1.50 -0.50 -0.75 -0.55 -0.75 -0.30 -0.05 0.30 0.95 -0.90 2.40 -1.95 2.40 -0.35 0 -1.15 0.55 -1.75 1.15 -1.10 1.15 -3.50 1.35 -3.50 0.30 0 -0.25 -0.35 -0.45 -0.75 -0.45 -0.95 0 -3.25 -1.05 -3.25 -1.50 0 -0.20 0.60 -0.50 1.40 -0.65 1.05 -0.25 1.60 0 2.50 0.95 l1.15 1.30 0.95 -1.25 c0.70 -0.85 1.30 -1.15 2 -1 0.75 0.20 1 0 1 -0.80 0 -0.75 -0.20 -1 -0.60 -0.80 -0.35 0.20 -0.20 -0.05 0.30 -0.45 1.40 -1.10 4.65 -1.05 4.95 0.10 0.20 0.70 0.30 0.70 0.60 -0.25 1 -3.05 1.60 -0.05 2.05 9.85 l0.25 5.75 -1.50 -1.75 c-1.55 -1.80 -2 -4.05 -1.05 -5.50 0.40 -0.60 0.50 -0.45 0.50 0.65 0 2.25 0.90 1.55 1.10 -0.90 0.30 -3.90 -0.30 -4.35 -1.80 -1.25 -1.65 3.55 -1.65 4.70 0.25 7.10 1.05 1.25 1.65 2.70 1.80 4.10 0.25 2 0.10 2.30 -1.65 3.90 l-1.90 1.75 -5.95 0.10 c-4.45 0.05 -6.10 -0.05 -6.40 -0.55 -0.35 -0.50 -0.55 -0.50 -1.05 0 -0.40 0.40 -2.25 0.60 -5.45 0.60 -3.95 0 -4.90 -0.15 -5.15 -0.80z m4.70 -2.40 c0 -1.30 -0.30 -0.90 -0.70 0.95 -0.25 1.10 -0.20 1.30 0.20 0.75 0.25 -0.40 0.50 -1.20 0.50 -1.70z m31.20 -14.15 c-0.50 -2.05 -3.55 -6.45 -6.60 -9.65 l-2.70 -2.75 2.15 2.70 c3.05 3.70 5.25 6.95 6.25 9.15 1 2.25 1.35 2.45 0.90 0.55z m-21.70 -8.90 c0 -0.30 -1 -1.35 -3.05 -3.15 l-1.30 -1.10 0.05 1.65 c0.05 1.40 0.20 1.65 1.10 1.45 0.55 -0.10 1.30 0.20 1.65 0.60 0.65 0.80 1.55 1.10 1.55 0.55z m11 -0.45 c0 -0.40 0.40 -0.85 0.90 -0.95 0.65 -0.20 0.55 -0.25 -0.25 -0.30 -0.65 0 -1.15 -0.25 -1.15 -0.55 0 -0.25 -0.55 -0.50 -1.25 -0.50 -0.70 0 -1.25 -0.20 -1.25 -0.50 0 -0.25 -0.90 -0.50 -2 -0.50 -1.45 0 -2 0.20 -2 0.75 0 0.40 0.45 0.75 1 0.75 0.55 0 1 0.25 1 0.50 0 1.15 1.35 1.95 3.15 2 1.25 0 1.85 -0.20 1.85 -0.70z m-11.95 -3.60 c1.10 -1.25 1.10 -1.30 0.15 -0.80 -0.60 0.30 -1.20 0.90 -1.40 1.35 -0.40 1.05 -0.15 0.95 1.25 -0.55z"/>
  <path d="M29.45 38.15 c1.65 -1.50 2.10 -2.25 2.15 -3.65 0 -0.95 -0.05 -1.95 -0.10 -2.25 -0.35 -1.55 0.05 -3.75 0.75 -3.75 0.65 0 0.70 0.65 0.50 4.05 -0.25 4.95 -1.60 7.45 -3.95 7.45 l-1.45 0 2.10 -1.85z"/>
  <path d="M38.65 36.25 c-0.50 -1.60 -0.45 -1.75 0.40 -1.75 0.75 0 0.95 0.35 0.95 1.75 0 0.95 -0.20 1.75 -0.40 1.75 -0.25 0 -0.65 -0.80 -0.95 -1.75z"/>
  <path d="M36.80 31.05 c-0.15 -0.20 -0.50 -1 -0.75 -1.75 -0.50 -1.20 -0.40 -1.30 0.70 -1.30 1.10 0 1.25 0.20 1.25 1.75 0 1.65 -0.60 2.30 -1.20 1.30z"/>
  <path d="M1.55 27.45 c-0.55 -0.95 -0.55 -1.05 0.20 -0.75 0.45 0.15 0.95 0.30 1.05 0.30 0.10 0 0.20 0.35 0.20 0.75 0 1.05 -0.65 0.95 -1.45 -0.30z"/>
  <path d="M10.60 22.55 c-0.60 -1.75 -0.20 -2.35 0.75 -1.15 0.70 0.80 0.70 0.80 0.45 -0.10 -0.30 -0.80 -0.10 -0.90 1.30 -0.60 2 0.40 2 0.40 1.60 2 -0.25 1.05 -0.60 1.30 -1.95 1.30 -1.35 0 -1.75 -0.25 -2.15 -1.45z"/>
  <path d="M6.80 8.25 c-0.55 -0.40 -0.85 -0.85 -0.70 -1 0.50 -0.50 3.40 0.40 3.40 1.05 0 0.90 -1.50 0.85 -2.70 -0.05z"/>
  <path d="M10.50 8.20 c0 -0.35 0.40 -0.70 0.90 -0.70 0.45 0 1.45 -0.70 2.20 -1.60 0.70 -0.90 1.50 -1.50 1.65 -1.30 0.55 0.55 -1.85 3.30 -3.35 3.85 -1.15 0.40 -1.40 0.35 -1.40 -0.25z"/>
  <path d="M25 2.30 c0 -1.25 0.60 -2.30 1.25 -2.30 0.55 0 0.55 0.30 0.10 1.50 -0.60 1.55 -1.35 2 -1.35 0.80z"/>
 </g>
 <g fill="#7f6997">
  <path d="M3.50 39.30 c0 -0.40 -0.25 -0.80 -0.60 -0.90 -0.40 -0.15 -0.60 -1.05 -0.55 -2.30 0.10 -1.70 0.40 -2.35 1.80 -3.60 0.95 -0.80 2 -2.15 2.35 -2.95 0.45 -1.20 0.90 -1.45 2.25 -1.45 l1.70 0 -0.70 1.85 c-1.15 3.15 -1.30 5.05 -0.45 6.85 0.95 1.95 1.05 2 2.25 0.90 0.50 -0.45 2 -0.90 3.30 -1.05 1.30 -0.10 2.50 -0.40 2.70 -0.70 0.40 -0.65 1.95 0.80 1.95 1.80 0 0.40 0.40 0.90 0.85 1.20 0.50 0.25 0.75 0.65 0.55 0.80 -0.20 0.20 -1 -0.15 -1.85 -0.70 -1.20 -0.85 -1.75 -1 -2.50 -0.55 -0.55 0.25 -2 0.50 -3.25 0.50 -1.25 0 -2.30 0.25 -2.30 0.50 0 0.30 -0.35 0.50 -0.75 0.50 -0.40 0 -0.75 -0.30 -0.75 -0.70 0 -0.35 -0.30 -0.95 -0.70 -1.30 -0.40 -0.30 -0.80 -1.30 -0.90 -2.15 -0.20 -1.55 -0.20 -1.55 -0.85 0.65 -0.60 2.25 -1.65 3.50 -2.90 3.50 -0.35 0 -0.65 -0.30 -0.65 -0.70z"/>
  <path d="M7 39.50 c0 -0.25 0.30 -0.50 0.70 -0.50 0.40 0 0.90 0.25 1.05 0.50 0.15 0.30 -0.15 0.50 -0.70 0.50 -0.60 0 -1.05 -0.20 -1.05 -0.50z"/>
  <path d="M22.50 39.70 c0 -0.20 0.35 -0.60 0.80 -0.95 0.75 -0.55 0.75 -0.65 -0.05 -1.65 -0.85 -0.95 -0.95 -1 -1.55 -0.20 -0.55 0.70 -0.75 0.75 -1.30 0.15 -0.55 -0.55 -0.55 -0.70 0.05 -0.95 0.40 -0.15 1.25 -0.80 1.90 -1.40 0.65 -0.65 1.25 -1.20 1.30 -1.20 0.05 0 0.10 0.80 0.15 1.80 0 1 0.30 1.95 0.65 2.20 0.95 0.55 0.20 2.50 -1 2.50 -0.50 0 -0.95 -0.15 -0.95 -0.30z"/>
  <path d="M25.75 38.65 c0.15 -0.80 0.85 -1.95 1.55 -2.70 1.20 -1.25 1.70 -4.45 0.70 -4.45 -0.25 0 -0.50 0.35 -0.50 0.75 0 0.40 -0.30 0.75 -0.65 0.75 -0.75 0 -2.10 -3.30 -1.95 -4.75 0.10 -0.85 0 -0.80 -0.60 0.20 -0.35 0.70 -0.60 1.55 -0.45 1.90 0.15 0.35 -0.10 0.65 -0.50 0.65 -0.40 0 -1 0.30 -1.30 0.70 -1.40 1.70 -6.50 1.20 -5.80 -0.55 0.10 -0.35 0 -0.65 -0.30 -0.65 -0.30 0 -0.45 -0.80 -0.35 -1.85 0.10 -1.55 0.35 -1.95 1.30 -2.05 0.85 -0.15 1.10 -0.50 1.10 -1.60 0 -0.80 0.35 -1.75 0.75 -2.20 0.40 -0.40 0.75 -1 0.75 -1.30 0 -0.95 2.95 -4.95 4.10 -5.55 0.80 -0.45 1.10 -0.40 1.45 0.10 0.60 0.95 0.55 2.30 -0.05 2.70 -0.25 0.15 -0.50 0.05 -0.50 -0.20 0 -0.30 -0.20 -0.55 -0.50 -0.55 -0.25 0 -0.50 0.25 -0.50 0.55 0 0.35 -0.55 1.10 -1.25 1.75 -0.70 0.65 -1.25 1.40 -1.25 1.70 0 0.75 1.05 0.60 1.70 -0.20 0.30 -0.40 1.15 -0.90 1.95 -1.10 1.05 -0.25 1.35 -0.15 1.35 0.55 0 0.55 -0.25 0.75 -0.75 0.55 -0.95 -0.35 -0.95 0.65 0 1.90 0.70 0.95 0.75 0.95 1.05 0 0.20 -0.50 0.80 -1.45 1.35 -2.05 0.60 -0.65 0.85 -1.50 0.70 -2.15 -0.30 -1.15 0.60 -4.50 1.25 -4.50 0.20 0 0.40 0.90 0.40 2 0 1.10 0.25 3 0.60 4.25 0.50 1.75 0.45 2.40 0 2.85 -0.50 0.50 -0.55 0.30 -0.35 -0.85 0.25 -1.30 -0.40 -3.40 -0.85 -2.75 -0.85 1.20 -2.40 5.25 -2.40 6.20 0 0.65 0.80 2.35 1.75 3.80 2.40 3.55 2.35 5.30 -0.25 7.65 -2.40 2.25 -3.25 2.40 -2.75 0.50z m-5.50 -8.15 c0.20 -0.30 -0.25 -0.50 -1 -0.50 -0.75 0 -1.20 0.20 -1 0.50 0.15 0.30 0.60 0.50 1 0.50 0.40 0 0.85 -0.20 1 -0.50z m0.65 -3.60 c-0.25 -1.15 -0.50 -2.15 -0.55 -2.25 -0.05 -0.05 -0.60 0.85 -1.20 1.95 -1.05 1.85 -1.05 2 -0.20 1.75 0.50 -0.10 1.25 -0.05 1.60 0.20 0.40 0.25 0.75 0.45 0.75 0.45 0.05 0 -0.10 -0.95 -0.40 -2.10z m2.40 -2.30 c-0.60 -0.60 -0.90 0.40 -0.50 1.75 l0.40 1.40 0.20 -1.40 c0.10 -0.80 0.05 -1.55 -0.10 -1.75z"/>
  <path d="M29.70 38.30 c1 -0.90 1.85 -2.10 1.85 -2.60 0.05 -0.55 0.10 -2.65 0.15 -4.75 0.05 -3.25 0.25 -4.05 1.35 -5.45 l1.30 -1.70 -1.70 -3 c-0.95 -1.65 -1.85 -3.80 -2.05 -4.75 l-0.40 -1.75 -3.15 0.15 -3.15 0.15 -2.50 -2.60 c-1.90 -2 -2.70 -2.50 -3.50 -2.25 -0.80 0.30 -0.95 0.65 -0.70 1.80 0.35 1.70 -0.35 1.90 -1.40 0.35 -0.75 -1 -0.70 -1.20 0.30 -2.25 1.35 -1.45 0.60 -1.50 -0.95 -0.05 -1.05 1 -1.25 1 -1.95 0.35 -0.70 -0.70 -0.60 -0.90 1 -2.10 0.95 -0.75 2.25 -1.35 2.85 -1.35 1.10 0 1.10 0 0.15 -0.75 -0.80 -0.65 -0.85 -0.80 -0.20 -1.30 0.55 -0.40 0.60 -0.60 0.15 -0.80 -0.35 -0.10 -0.65 -1 -0.65 -1.95 0 -1.55 0.15 -1.70 1.45 -1.70 0.80 0 1.60 0.30 1.75 0.65 0.25 0.45 0.35 0.45 0.60 0 0.15 -0.35 1.05 -0.65 2.05 -0.65 1.15 0 1.65 0.20 1.50 0.65 -0.10 0.30 -0.70 0.55 -1.25 0.45 -1.45 -0.20 -1.40 0 0.65 2.85 1.90 2.60 2.15 3.55 1.05 3.55 -0.95 0 -1.85 -1.20 -1.55 -2.05 0.30 -0.85 -1.65 -3.25 -3 -3.65 -0.55 -0.15 -1.35 -0.05 -1.75 0.20 -0.60 0.40 -0.30 0.90 1.75 2.75 l2.50 2.30 -1.85 -0.30 c-1 -0.15 -1.95 -0.05 -2.15 0.25 -0.15 0.25 0 0.35 0.35 0.25 0.40 -0.15 2.25 0.30 4.20 1.05 2.20 0.80 4 1.20 5 1.05 1.35 -0.25 1.85 0.05 3.50 1.70 2.30 2.35 1.70 2.60 -0.75 0.35 l-1.75 -1.65 1.55 1.95 c1.30 1.60 1.50 2.15 1.10 3.15 -0.60 1.65 -0.60 1.65 0.55 1.65 0.60 0 1 -0.35 1 -0.85 0 -1.15 0.55 -0.50 2.75 3.10 0.95 1.65 1.65 3.25 1.50 3.65 -0.10 0.35 -0.05 0.55 0.20 0.40 0.40 -0.25 2.55 4.05 2.55 5.15 0 0.45 -0.40 0.55 -1.25 0.35 -1.05 -0.25 -1.25 -0.15 -1.25 0.75 0 1.70 -1.20 0.80 -2 -1.45 -0.40 -1.15 -0.90 -2.10 -1.10 -2.10 -0.70 0 -1.90 5.15 -1.90 8.10 0 3.50 -1.55 6.40 -3.40 6.40 -1.10 0 -1.05 -0.10 0.60 -1.70z m6.80 -16.30 c0 -0.25 -0.45 -0.50 -1 -0.50 -0.55 0 -1 0.25 -1 0.50 0 0.30 0.45 0.50 1 0.50 0.55 0 1 -0.20 1 -0.50z m-8.60 -9.05 c0.15 -0.85 -1.80 -1.95 -3.40 -1.95 -0.65 0 -1 -0.35 -1 -1 0 -0.65 -0.25 -0.90 -0.75 -0.70 -0.90 0.35 -1 2.15 -0.10 2.40 0.30 0.15 1.20 0.35 2 0.50 0.75 0.20 1.35 0.65 1.35 1.10 0 1 1.70 0.70 1.90 -0.35z"/>
  <path d="M38.80 39.25 c0.20 -0.40 0.50 -0.75 0.75 -0.75 0.25 0 0.45 0.35 0.45 0.75 0 0.40 -0.35 0.75 -0.75 0.75 -0.45 0 -0.60 -0.30 -0.45 -0.75z"/>
  <path d="M37.80 33.55 c-0.15 -0.20 -0.50 -1 -0.75 -1.75 -0.50 -1.20 -0.40 -1.30 0.70 -1.30 1.10 0 1.25 0.20 1.25 1.75 0 1.65 -0.60 2.30 -1.20 1.30z"/>
  <path d="M3 32 c0 -0.70 -0.35 -2.15 -0.75 -3.25 -0.85 -2.40 -0.70 -2.65 0.70 -1.20 1.10 1.20 1.30 2.95 0.55 4.70 -0.40 0.90 -0.45 0.90 -0.50 -0.25z"/>
  <path d="M29.40 29.70 c-0.80 -1.10 -1.40 -2.45 -1.40 -3 0.05 -0.90 0.05 -0.90 0.55 -0.05 0.75 1.25 1.45 1.05 1.50 -0.50 0.05 -1.35 0.05 -1.35 0.50 0.25 0.30 0.95 0.45 2.50 0.35 3.50 l-0.15 1.80 -1.35 -2z"/>
  <path d="M13.65 29.55 c-0.65 -0.55 -1.65 -2.55 -2.35 -4.75 -1.15 -3.65 -1.10 -4.60 0.20 -3.05 0.35 0.40 0.85 0.75 1.10 0.75 0.30 0 0.25 -0.35 -0.10 -0.75 -0.70 -0.85 -0.40 -1.55 0.45 -1 0.30 0.15 0.55 1.20 0.55 2.30 0 1.15 0.35 2.35 0.75 2.75 0.60 0.60 1.15 4.75 0.65 4.70 -0.10 -0.05 -0.65 -0.45 -1.25 -0.95z"/>
  <path d="M4.45 27.70 c-0.55 -0.70 -0.55 -1.05 0.20 -2.30 1.65 -2.85 0.75 -3.20 -2.15 -0.90 -2.10 1.65 -2.50 1.80 -2.50 0.90 0 -0.35 0.70 -1.10 1.50 -1.65 2.25 -1.50 1.75 -2.45 -0.55 -1.20 -0.95 0.50 -1 0.40 -0.85 -1.40 0.15 -1.70 0.30 -1.90 1.60 -2.05 1.60 -0.20 2.80 -1.15 2.80 -2.25 0 -0.40 0.75 -1 1.65 -1.35 0.85 -0.35 2.10 -0.85 2.65 -1.10 1.15 -0.55 2.40 -2.70 1.95 -3.40 -0.15 -0.20 0.10 -0.70 0.55 -1.05 0.65 -0.50 0.85 -0.50 1.20 0 0.55 0.90 0.05 2.55 -0.80 2.55 -0.40 0 -0.70 0.50 -0.70 1.05 0 1 0.05 1.05 1.15 0.25 1.90 -1.40 2.40 -1.45 3.50 -0.40 l1.05 1.05 -1.25 0.50 c-0.65 0.25 -3.80 1.70 -6.90 3.25 -4.35 2.05 -5.50 2.85 -4.75 3.05 3.50 1.15 6.75 3.35 6 4.10 -0.15 0.20 -0.65 -0.10 -1.05 -0.65 -0.45 -0.55 -0.70 -0.70 -0.75 -0.30 0 0.35 0.60 1.20 1.40 1.90 l1.35 1.25 -1.60 -0.30 c-1.05 -0.20 -2 -0.05 -2.80 0.50 -1.10 0.70 -1.25 0.70 -1.90 -0.05z"/>
  <path d="M39.15 23.15 c0.20 -0.30 -1 -2.45 -2.65 -4.85 -3.40 -4.90 -3.20 -5.95 0.25 -1.15 1.25 1.70 2.45 3.35 2.75 3.70 0.65 0.80 0.65 2 -0.10 2.45 -0.30 0.20 -0.40 0.15 -0.25 -0.15z"/>
  <path d="M14.80 21.70 c-0.20 -0.50 -0.05 -0.70 0.30 -0.60 0.75 0.25 1.15 1.40 0.50 1.40 -0.25 0 -0.65 -0.35 -0.80 -0.80z"/>
  <path d="M17.50 22.05 c0 -0.20 -0.55 -1 -1.30 -1.70 -1.20 -1.20 -1.20 -1.30 -0.25 -1.60 1.35 -0.40 3.20 0.60 2.85 1.60 -0.15 0.40 -0.30 1.05 -0.30 1.45 0 0.40 -0.20 0.70 -0.50 0.70 -0.25 0 -0.50 -0.20 -0.50 -0.45z"/>
  <path d="M6.35 21.20 c-0.15 -0.20 2 -1.40 4.80 -2.75 2.80 -1.35 5.60 -2.85 6.25 -3.40 0.65 -0.60 1.50 -0.85 1.95 -0.70 0.50 0.20 0.70 0.10 0.45 -0.25 -0.50 -0.85 0.55 -1.20 1.80 -0.55 1.05 0.55 1.05 0.60 0.15 1.25 -0.50 0.40 -2.75 1.40 -4.95 2.25 -2.25 0.85 -5.20 2.20 -6.60 3 -2.65 1.50 -3.30 1.70 -3.85 1.15z"/>
  <path d="M26.50 16.25 c0 -0.40 0.35 -0.75 0.75 -0.75 0.40 0 0.75 0.35 0.75 0.75 0 0.40 -0.35 0.75 -0.75 0.75 -0.40 0 -0.75 -0.35 -0.75 -0.75z"/>
  <path d="M7.15 8.40 c-1.95 -0.95 -1.30 -1.30 2.05 -1.05 2.90 0.25 3.25 0.20 3.95 -0.90 0.45 -0.60 1 -1 1.20 -0.80 0.20 0.20 -0.25 0.95 -0.95 1.65 -1.45 1.45 -4.50 2 -6.25 1.10z"/>
  <path d="M25.15 5.95 c-0.05 -2.35 0.65 -2.05 1.15 0.45 0.25 1.20 0.15 1.60 -0.35 1.60 -0.45 0 -0.75 -0.70 -0.80 -2.05z"/>
  <path d="M20.25 3.75 c-0.80 -0.65 -1.25 -1.20 -0.95 -1.25 0.30 0 1.05 0.55 1.70 1.25 1.50 1.60 1.20 1.60 -0.75 0z"/>
 </g>
 <g fill="#6a8ebc">
  <path d="M12.75 22 c-0.50 -0.55 -0.80 -1.10 -0.70 -1.20 0.55 -0.50 3.55 0.45 4 1.25 0.40 0.85 0.30 0.95 -0.95 0.95 -0.80 0 -1.85 -0.45 -2.35 -1z"/>
  <path d="M8.50 15.20 c0 -0.20 0.35 -0.60 0.75 -0.90 0.45 -0.30 1.10 -1.45 1.45 -2.55 0.40 -1.10 0.95 -2.05 1.25 -2.15 0.85 -0.30 1.25 2.30 0.50 3.25 -0.65 0.75 -0.60 0.75 0.40 0.25 1.35 -0.75 1.65 -0.75 1.65 -0.05 0 1.15 -2.15 2.45 -4.10 2.45 -1.05 0 -1.90 -0.15 -1.90 -0.30z"/>
  <path d="M13.20 9.75 c-0.30 -0.70 2.05 -3.20 2.95 -3.25 0.75 0 0.05 1.25 -0.95 1.75 -0.55 0.30 -0.90 0.90 -0.80 1.40 0.20 1.05 -0.80 1.15 -1.20 0.10z"/>
  <path d="M10.70 8.25 c0.55 -0.40 1.25 -0.75 1.50 -0.75 0.30 0 0.95 -0.70 1.40 -1.50 0.80 -1.40 1.90 -2.05 1.90 -1.10 0 0.75 -3.25 3.45 -4.50 3.75 -1.20 0.30 -1.20 0.25 -0.30 -0.40z"/>
  <path d="M16.10 4.25 c-0.50 -1.05 -0.45 -1.25 0.15 -1.25 0.45 0 0.75 0.50 0.75 1.25 0 0.70 -0.10 1.25 -0.15 1.25 -0.10 0 -0.45 -0.55 -0.75 -1.25z"/>
 </g>
 <g fill="#937aab">
  <path d="M2.80 38.90 c-0.55 -2.05 -0.35 -5.40 0.35 -5.40 0.30 0 1.50 -1.25 2.60 -2.75 1.10 -1.55 2.25 -2.65 2.60 -2.50 0.35 0.10 0.65 -0.10 0.65 -0.50 0 -0.95 -1.25 -0.95 -2.75 0.05 -1.10 0.70 -1.20 0.70 -1.75 -0.30 -0.45 -0.85 -0.35 -1.35 0.50 -2.75 0.95 -1.55 1 -1.75 0.25 -1.75 -0.45 0 -1.80 0.70 -3.05 1.50 -2.50 1.75 -2.95 1.55 -0.70 -0.35 1.95 -1.60 1.95 -2.35 0 -1.95 -1.50 0.25 -1.50 0.25 -1.50 -1.90 l0 -2.15 3.10 -1.35 c1.75 -0.80 4.20 -1.75 5.50 -2.15 1.25 -0.45 2.25 -1.05 2.10 -1.35 -0.30 -0.90 0.60 -1.90 1.55 -1.70 0.90 0.15 0.90 0.20 0.05 1.05 -1 0.95 -0.70 1.10 0.75 0.30 0.80 -0.40 1.30 -0.30 2.35 0.35 l1.35 0.90 -1.50 0.60 c-0.85 0.35 -2.10 0.65 -2.85 0.70 -0.80 0 -1.40 0.30 -1.40 0.65 0 0.75 -7.05 4.35 -8.50 4.35 -1.70 0 -1.50 0.80 0.25 0.85 2.15 0.05 6.15 2.05 6.85 3.40 0.50 0.95 0.50 0.95 -0.40 0.20 -0.50 -0.45 -1.25 -1 -1.65 -1.20 -1.10 -0.65 0.60 1.65 1.90 2.55 0.60 0.45 1.05 1 1.05 1.25 0 0.65 -3.65 8.65 -4.05 8.85 -0.15 0.05 -0.20 0.70 -0.05 1.35 0.15 0.90 0 1.25 -0.60 1.25 -0.45 0 -0.80 0.25 -0.80 0.50 0 1 -1.90 0.50 -2.20 -0.60z m3.65 -12.85 c0.35 -0.25 0.60 -0.70 0.45 -1.05 -0.10 -0.35 -0.50 -0.20 -1.10 0.45 -0.95 1.05 -0.60 1.40 0.65 0.60z"/>
  <path d="M23 39.60 c0 -0.20 0.25 -0.65 0.55 -0.95 0.50 -0.50 -0.20 -2.45 -1.15 -3.15 -0.15 -0.15 0 -0.70 0.40 -1.20 0.65 -0.95 0.70 -0.90 0.70 0.50 0 2.10 0.50 2.55 2.90 2.60 1.50 0.05 2.20 -0.15 2.40 -0.65 0.20 -0.40 0.55 -0.75 0.85 -0.75 0.30 0 -0.35 0.90 -1.40 2 -1.50 1.55 -2.35 2 -3.60 2 -0.90 0 -1.65 -0.20 -1.65 -0.40z"/>
  <path d="M9.05 37.70 c-0.60 -0.75 -1.05 -1.80 -1.05 -2.40 0.05 -0.80 0.20 -0.65 0.80 0.65 0.40 0.95 0.95 2.05 1.30 2.40 0.30 0.35 0.40 0.65 0.25 0.65 -0.15 0 -0.75 -0.60 -1.30 -1.30z"/>
  <path d="M11.25 38.50 c-0.15 -0.25 0.40 -0.85 1.25 -1.30 0.80 -0.50 1.50 -1.20 1.50 -1.55 0 -1.10 0.90 -0.70 1.15 0.50 0.15 0.80 0.25 0.65 0.30 -0.50 0.05 -1.10 -0.20 -1.65 -0.65 -1.65 -0.60 0 -1.30 -1 -1.30 -1.85 0 -0.15 0.85 0.50 1.95 1.50 1.05 0.95 2.25 1.90 2.70 2.15 0.40 0.25 0.95 1.10 1.15 1.90 0.30 1.35 0.30 1.40 -0.80 0.80 -0.75 -0.40 -1.50 -0.45 -2.40 -0.10 -1.65 0.65 -4.50 0.70 -4.85 0.10z"/>
  <path d="M30.75 37.65 c0.55 -0.90 1.15 -1.65 1.40 -1.65 0.55 0 -0.40 1.70 -1.45 2.55 -0.80 0.60 -0.80 0.50 0.05 -0.90z"/>
  <path d="M27.80 33.20 c-0.15 -0.45 -0.30 -1.50 -0.30 -2.35 l0.05 -1.60 1.20 1.40 c1.50 1.70 1.65 3.35 0.30 3.35 -0.50 0 -1.10 -0.35 -1.25 -0.80z"/>
  <path d="M31.80 32.40 c-0.55 -2.45 0 -5.20 1.20 -6.40 1.40 -1.40 1.35 -1.95 -0.60 -6 -1 -2.05 -2 -4.40 -2.20 -5.25 -0.15 -0.80 -0.45 -1.20 -0.55 -0.85 -0.15 0.35 -1.20 0.60 -2.70 0.60 -1.55 0 -2.40 -0.20 -2.20 -0.50 0.15 -0.25 0 -0.35 -0.40 -0.20 -0.40 0.15 -1.35 -0.30 -2.15 -1 l-1.45 -1.25 1.65 -0.05 c0.85 0 1.60 -0.20 1.60 -0.50 0 -0.25 -0.45 -0.50 -1 -0.50 -0.75 0 -1 -0.35 -1 -1.25 0 -1.25 0 -1.25 1.90 -0.55 1 0.40 2.50 0.85 3.30 1.05 2.95 0.65 8.95 8.60 11.60 15.40 0.65 1.70 1.20 3.10 1.20 3.20 0 0.10 -0.55 0.15 -1.25 0.15 -0.90 0 -1.25 -0.25 -1.25 -1 0 -0.75 -0.35 -1 -1.25 -1 -0.80 0 -1.25 -0.30 -1.25 -0.80 0 -0.65 -0.15 -0.70 -0.70 -0.20 -0.70 0.55 -1.65 4 -1.95 7.25 -0.15 1.50 -0.15 1.45 -0.55 -0.35z"/>
  <path d="M2.85 31.25 c-0.15 -1.10 -0.45 -2.55 -0.65 -3.25 -0.35 -1.25 -0.35 -1.25 0.70 -0.30 1.10 0.95 1.35 2.70 0.65 4.55 -0.30 0.75 -0.45 0.60 -0.70 -1z"/>
  <path d="M19 32.05 c0 -0.75 0.30 -1.05 1.10 -1.05 0.85 0 0.95 -0.15 0.55 -0.55 -0.45 -0.45 -1.30 -0.45 -3.10 -0.10 -2.10 0.40 -2.55 0.40 -2.55 -0.20 0 -0.40 -0.25 -0.55 -0.55 -0.40 -0.30 0.20 -0.65 -0.10 -0.80 -0.70 -0.15 -0.55 -0.45 -0.90 -0.70 -0.75 -0.25 0.15 -0.30 -0.10 -0.15 -0.50 0.15 -0.45 0.10 -0.80 -0.15 -0.80 -0.55 0 -2.35 -5.45 -1.95 -5.90 0.15 -0.15 0.30 0.10 0.30 0.55 0 0.55 0.40 0.85 1.05 0.85 0.90 0 0.95 -0.10 0.45 -0.75 -1.05 -1.25 2.25 -0.95 3.45 0.30 1.10 1.20 1.90 0.50 1.10 -1 -0.40 -0.70 -0.35 -1.10 0.25 -1.60 0.70 -0.55 0.90 -0.50 1.45 0.25 0.40 0.50 0.90 0.75 1.15 0.60 0.30 -0.15 0.75 0.40 1.05 1.20 0.60 1.75 1.35 1.95 1.80 0.50 0.15 -0.55 0.45 -1 0.65 -1 0.20 0 0.85 -0.15 1.50 -0.30 0.80 -0.25 1.10 -0.10 1.10 0.45 0 0.40 -0.30 0.85 -0.70 1 -0.60 0.25 -0.60 0.55 -0.15 1.55 l0.60 1.25 0.85 -1.65 c0.95 -1.85 2.40 -3.25 2.40 -2.35 0 0.35 -0.45 1.45 -0.95 2.50 -0.70 1.30 -1 2.90 -1 5 0.05 3.55 -0.25 4.15 -1.30 2.75 -0.55 -0.70 -0.70 -1.65 -0.50 -3.45 l0.25 -2.50 -0.70 1.95 c-1.50 4 -5.80 7.65 -5.80 4.85z m2.20 -4.15 c-0.20 -0.65 0 -0.90 0.70 -0.90 0.55 0 1.10 -0.45 1.25 -1 0.20 -0.75 0 -1 -0.70 -1 -0.50 0 -0.95 0.30 -1 0.65 0 0.30 -0.25 0.05 -0.55 -0.65 l-0.50 -1.25 -0.75 1.75 c-0.40 0.95 -1.20 2.15 -1.80 2.60 -1.05 0.80 -1.05 0.85 1.30 0.75 2 -0.10 2.30 -0.25 2.05 -0.95z m-3.70 -2.45 c0 -0.75 -0.35 -0.95 -1.75 -0.95 -1.65 0 -1.70 0.05 -1.20 1.15 0.65 1.50 2.95 1.30 2.95 -0.20z"/>
  <path d="M7 21.25 c0 -0.10 0.75 -0.60 1.65 -1 l1.60 -0.80 -1.20 1.05 c-1.10 0.95 -2.05 1.30 -2.05 0.75z"/>
  <path d="M37.25 19.10 c-0.80 -1.30 -3 -4 -4.95 -5.95 -1.90 -2 -3.30 -3.65 -3.05 -3.65 0.20 0 1.90 1.55 3.75 3.40 3.40 3.45 6.20 7.30 5.90 8.15 -0.10 0.25 -0.80 -0.60 -1.65 -1.95z"/>
  <path d="M22.50 19.50 c0 -0.25 -0.40 -0.50 -0.85 -0.60 -0.65 -0.10 -0.50 -0.45 0.80 -1.75 0.90 -0.90 1.85 -1.65 2.10 -1.65 0.70 0 1.10 2.45 0.50 3.20 -0.70 0.80 -2.55 1.40 -2.55 0.80z"/>
  <path d="M28.75 19.45 c-0.45 -0.65 0.15 -3.85 0.75 -4.20 0.30 -0.20 0.50 0.75 0.50 2.20 0 2.40 -0.50 3.20 -1.25 2z"/>
  <path d="M15.70 11.25 c-0.30 -0.70 2.55 -4.25 3.40 -4.25 1 0 0.30 2.05 -0.85 2.50 -0.75 0.30 -1.25 0.85 -1.25 1.50 0 1.15 -0.90 1.35 -1.30 0.25z"/>
  <path d="M14 9.60 c0 -0.55 0.40 -1.50 0.90 -2.05 0.65 -0.85 1.10 -1 2 -0.70 1.10 0.45 1.10 0.50 -0.85 2.05 -1.80 1.45 -2.05 1.55 -2.05 0.70z"/>
  <path d="M7.40 8.45 c-1.40 -0.80 -1.05 -1.25 0.85 -1.05 1.05 0.15 1.75 0.50 1.75 0.90 0 0.80 -1.35 0.90 -2.60 0.15z"/>
  <path d="M25.55 6.45 c-0.65 -1.90 -0.70 -2.95 -0.10 -2.95 0.45 0 1.25 3.95 0.85 4.35 -0.10 0.10 -0.45 -0.50 -0.75 -1.40z"/>
  <path d="M18.10 6.15 c-0.60 -0.10 -1.45 -0.90 -1.90 -1.70 -1.10 -2.15 -0.10 -4.45 1.95 -4.45 0.80 0 1.30 0.20 1.10 0.50 -0.15 0.30 0.05 0.50 0.45 0.50 0.40 0 0.90 0.20 1.05 0.50 0.20 0.30 -0.25 0.35 -1.15 0.20 -2.50 -0.50 -2.50 0.75 -0.05 2.85 2 1.75 2.10 1.90 0.95 1.85 -0.70 0 -1.75 -0.15 -2.40 -0.25z"/>
  <path d="M23.10 4.85 c-0.60 -0.65 -1.10 -1.45 -1.10 -1.85 0 -0.40 0.55 0.05 1.25 1 0.70 0.95 1.25 1.75 1.25 1.85 0 0.35 -0.40 0.10 -1.40 -1z"/>
 </g>
 <g fill="#a68cbb">
  <path d="M2.80 38.90 c-0.65 -2.55 -0.30 -4.65 1.05 -5.90 0.70 -0.70 1.85 -2.10 2.55 -3.10 1.25 -1.90 2.10 -2.45 2.10 -1.30 0 0.45 0.15 0.45 0.55 0.05 0.30 -0.30 0.40 -0.80 0.25 -1.10 -0.45 -0.70 -2.15 -0.70 -2.55 -0.05 -0.45 0.75 -2.10 0.60 -2.45 -0.25 -0.15 -0.40 0.20 -1.55 0.75 -2.50 l1.05 -1.75 -1.15 0 c-0.60 0 -1.70 0.50 -2.40 1.15 l-1.30 1.10 1.15 -1.30 c1.50 -1.75 1.40 -2.15 -0.65 -1.80 -1.90 0.30 -2 0.15 -1.45 -2.55 0.25 -1.30 0.80 -1.80 3.40 -3 1.65 -0.80 4.05 -1.70 5.30 -2.05 1.25 -0.35 2.95 -0.95 3.85 -1.30 1.35 -0.60 1.65 -0.60 2.35 0.20 0.75 0.80 0.40 1.05 -5.65 4 -3.50 1.70 -6.80 3.05 -7.30 2.95 -0.50 -0.10 -1 0.10 -1.10 0.40 -0.10 0.40 0.80 0.75 2.40 0.95 2.50 0.35 5.95 2 5.95 2.90 0 0.20 -0.50 0.05 -1.10 -0.35 -1.05 -0.65 -1.25 -0.60 -2.30 0.75 -1.15 1.45 -0.70 1.95 0.90 0.95 0.75 -0.45 3.50 0.80 3.50 1.60 0 0.25 -0.75 1.95 -1.70 3.80 -0.95 1.90 -1.90 4.25 -2.10 5.30 -0.20 1.25 -0.65 2 -1.25 2.15 -0.50 0.15 -0.80 0.45 -0.65 0.70 0.15 0.25 -0.20 0.45 -0.70 0.45 -0.60 0 -1.10 -0.45 -1.30 -1.10z m4.80 -8.15 c0.80 -1.55 -0.25 -0.30 -2.30 2.70 -1 1.45 -1.80 2.90 -1.80 3.15 0 0.50 3.15 -4 4.10 -5.85z m0.90 -14.50 c0 -0.15 -1.10 0.30 -2.50 1 -1.35 0.70 -2.50 1.40 -2.50 1.50 0 0.15 1.15 -0.30 2.50 -1 1.40 -0.70 2.50 -1.40 2.50 -1.50z"/>
  <path d="M23 39.60 c0 -0.20 0.70 -0.90 1.50 -1.60 1.30 -1.10 1.50 -1.55 1.50 -3.90 0 -1.45 -0.25 -3.10 -0.50 -3.65 -0.80 -1.40 0.05 -5.30 1.70 -7.85 1.70 -2.70 2.20 -2.45 0.90 0.45 -1.70 3.80 -1.70 3.90 0.15 6.90 2.45 3.90 2.40 5.80 -0.25 8.20 -1.35 1.30 -2.40 1.85 -3.50 1.85 -0.80 0 -1.50 -0.15 -1.50 -0.40z"/>
  <path d="M11.50 38.30 c0 -0.40 0.45 -0.90 1.05 -1.05 1.30 -0.40 1.95 -2.15 1.40 -3.60 -0.55 -1.50 -0.10 -1.45 1.50 0.10 0.70 0.65 1.80 1.65 2.40 2.10 0.60 0.50 1.25 1.45 1.45 2.15 0.30 1.10 0.25 1.15 -0.50 0.55 -0.65 -0.55 -1.20 -0.60 -2.75 -0.10 -2.65 0.75 -4.55 0.70 -4.55 -0.15z"/>
  <path d="M31.30 37.25 c0.25 -0.55 0.50 -2.95 0.60 -5.35 0.10 -2.65 0.40 -4.40 0.70 -4.40 0.30 0 0.40 0.60 0.20 1.55 -0.15 0.85 -0.30 2.85 -0.30 4.40 0 1.85 -0.30 3.20 -0.80 3.85 -0.75 0.95 -0.80 0.95 -0.40 -0.05z"/>
  <path d="M38.80 36.10 c-0.10 -0.20 -0.80 -1.90 -1.50 -3.75 -1.15 -3 -1.15 -3.35 -0.40 -3.40 0.60 0 0.55 -0.15 -0.30 -0.45 -0.70 -0.30 -1.25 -1.05 -1.40 -2 -0.25 -1.25 -0.45 -1.40 -1.05 -0.95 -1 0.85 -1.50 0.05 -0.55 -0.85 0.75 -0.75 0.70 -1.05 -0.70 -3.65 -0.80 -1.55 -1.80 -3.85 -2.20 -5.15 -0.65 -2.10 -2.35 -3.90 -3.05 -3.25 -0.10 0.15 0.25 0.40 0.80 0.60 1.85 0.55 1.15 1.25 -1.25 1.25 -2.65 0 -5.15 -1.30 -6.75 -3.55 -0.55 -0.80 -1.45 -1.45 -2 -1.45 -1.15 0 -1.25 -1.10 -0.20 -2 0.60 -0.50 1.15 -0.45 2.85 0.25 4.55 1.85 8.90 3.15 8.35 2.45 -0.30 -0.40 -0.40 -0.70 -0.15 -0.65 0.25 0 1 0.70 1.70 1.60 1.10 1.45 1.10 1.50 0.10 0.65 -1.80 -1.60 -1.25 -0.40 1.10 2.30 1.25 1.40 3.30 4.70 4.60 7.35 1.30 2.65 2.55 5.20 2.75 5.65 0.65 1.30 0.55 1.90 -0.30 1.90 -0.40 0 -0.75 0.35 -0.75 0.75 0 0.40 0.35 0.75 0.75 0.75 0.60 0 0.75 0.65 0.75 3 0 2.65 -0.50 3.75 -1.20 2.60z"/>
  <path d="M18.20 32.50 c-2.30 -0.50 -4.20 -2.55 -5.25 -5.55 -1.20 -3.40 -1.25 -4.50 -0.05 -4.10 0.75 0.30 0.75 0.20 -0.10 -0.75 -0.95 -1.10 -0.95 -1.10 0.35 -1.10 1.80 0 2.85 0.50 2.85 1.30 0 0.40 0.25 0.70 0.50 0.70 0.80 0 1.15 -1.45 0.55 -2.20 -0.45 -0.50 -0.35 -0.80 0.20 -1.30 0.65 -0.55 0.90 -0.50 1.45 0.30 0.65 0.85 0.85 0.70 3.15 -1.80 2.45 -2.70 2.50 -2.70 3.10 -1.55 0.35 0.60 0.50 1.45 0.35 1.85 -0.35 0.95 -1.80 0.90 -1.80 -0.05 0 -0.40 -0.20 -0.75 -0.50 -0.75 -0.25 0 -0.50 0.55 -0.50 1.20 0 0.65 -0.35 1.45 -0.75 1.80 -0.40 0.35 -0.75 1 -0.75 1.50 0 0.50 0.35 1 0.75 1.20 0.40 0.15 0.75 0 0.75 -0.35 0 -1.05 0.70 -1.75 2.15 -2.10 1.05 -0.30 1.35 -0.20 1.35 0.40 0 0.45 -0.45 0.95 -1.05 1.10 -0.90 0.30 -0.90 0.40 -0.25 0.90 1.05 0.85 0.25 4.30 -1.70 7.10 -1.20 1.70 -2.70 3 -3.15 2.70 -0.05 -0.05 -0.80 -0.20 -1.65 -0.45z m2.30 -2 c0 -0.25 -0.55 -0.50 -1.25 -0.50 -0.70 0 -1.25 0.25 -1.25 0.50 0 0.30 0.55 0.50 1.25 0.50 0.70 0 1.25 -0.20 1.25 -0.50z m1 -2.20 c-0.25 -0.25 -0.50 -1.20 -0.50 -2.10 0 -0.85 -0.30 -1.85 -0.70 -2.20 -0.60 -0.45 -0.75 -0.40 -0.70 0.35 0.05 1.45 -1 3.65 -1.80 3.65 -0.40 0 -0.90 0.20 -1.05 0.50 -0.15 0.30 0.80 0.45 2.50 0.40 1.90 -0.05 2.60 -0.25 2.25 -0.60z"/>
  <path d="M3 31.35 c0 -0.75 -0.35 -2.10 -0.80 -2.90 -1 -2 -0.60 -2.35 0.75 -0.65 1.15 1.45 1.35 3 0.55 4.20 -0.40 0.60 -0.50 0.45 -0.50 -0.65z"/>
  <path d="M37.30 18.85 c-0.50 -0.90 -1.85 -2.60 -3 -3.80 -1.10 -1.25 -1.60 -1.90 -1.05 -1.50 2 1.45 5.65 6.20 5.15 6.70 -0.10 0.15 -0.60 -0.50 -1.10 -1.40z"/>
  <path d="M28.75 19.50 c-0.40 -0.70 0.15 -4 0.70 -4 0.45 0 0.45 3.80 0 4.25 -0.20 0.15 -0.50 0.05 -0.70 -0.25z"/>
  <path d="M11.75 11.50 c-0.15 -0.25 -0.15 -0.75 0.05 -1.05 0.30 -0.55 1.15 0.30 1.20 1.20 0 0.50 -0.90 0.45 -1.25 -0.15z"/>
  <path d="M15.70 11.45 c-0.15 -0.30 0.05 -0.90 0.50 -1.35 0.75 -0.75 0.80 -0.70 0.80 0.55 0 1.35 -0.65 1.80 -1.30 0.80z"/>
  <path d="M13.20 9.75 c-0.55 -1.40 3.15 -3.55 4.20 -2.50 0.25 0.25 -3.05 3.20 -3.55 3.25 -0.20 0 -0.50 -0.35 -0.65 -0.75z"/>
  <path d="M8.50 8.35 c0 -0.55 0.65 -0.80 2.50 -0.95 1.90 -0.10 2.35 0 1.85 0.45 -0.35 0.30 -1.45 0.75 -2.45 0.90 -1.50 0.30 -1.90 0.20 -1.90 -0.40z"/>
  <path d="M6.50 8 c-0.40 -0.25 -0.60 -0.60 -0.45 -0.75 0.40 -0.40 1.95 0.25 1.95 0.80 0 0.55 -0.55 0.55 -1.50 -0.05z"/>
  <path d="M25.85 7.30 c-0.20 -0.50 -0.35 -1.25 -0.30 -1.70 0 -0.55 0.20 -0.45 0.50 0.35 0.25 0.65 0.40 1.45 0.30 1.75 -0.10 0.25 -0.30 0.10 -0.50 -0.40z"/>
  <path d="M19.25 6.40 c-3 -1.05 -4.45 -3.30 -3.05 -4.70 0.45 -0.45 0.70 -1 0.55 -1.25 -0.20 -0.25 0.25 -0.45 0.95 -0.45 1.45 0 1.65 0.60 0.55 1.50 -1.15 0.95 -0.90 1.65 1.25 3.15 2.85 2.05 2.75 2.80 -0.25 1.75z"/>
  <path d="M25 1.65 c0 -0.70 0.95 -1.90 1.25 -1.60 0.40 0.40 -0.25 1.95 -0.80 1.95 -0.25 0 -0.45 -0.15 -0.45 -0.35z"/>
 </g>
 <g fill="#b99cce">
  <path d="M2.80 38.90 c-0.55 -2.05 -0.35 -5.40 0.35 -5.40 0.30 0 1.50 -1.25 2.60 -2.75 1.85 -2.60 2.75 -3.35 2.75 -2.30 0 0.30 -1.25 2.20 -2.75 4.30 -1.50 2.15 -2.75 4.05 -2.75 4.25 0 0.20 0.35 0.50 0.75 0.70 0.55 0.20 0.75 -0.05 0.75 -0.85 0 -0.60 1.15 -2.75 2.55 -4.80 3.25 -4.85 2.95 -5.65 -1.35 -4.30 -1.55 0.50 -1.95 -1 -0.65 -2.80 1.05 -1.50 0.85 -2.70 -0.35 -2.25 -0.40 0.15 -0.70 0.05 -0.70 -0.20 0 -0.60 1.50 -0.65 2.45 -0.05 0.60 0.40 0.50 0.75 -0.40 2.30 -1.20 2.05 -1 2.80 0.45 1.85 1.35 -0.80 1.85 -0.75 3.05 0.30 0.95 0.95 0.95 0.95 -0.80 4.40 -0.95 1.90 -2 4.45 -2.30 5.60 -0.35 1.60 -0.70 2.10 -1.25 1.90 -0.40 -0.15 -0.70 0.05 -0.70 0.45 0 1.20 -1.35 0.85 -1.70 -0.35z"/>
  <path d="M23 39.75 c0 -0.15 0.70 -0.90 1.55 -1.65 1.35 -1.20 1.55 -1.75 1.55 -3.90 0 -1.40 -0.25 -3 -0.55 -3.60 -0.75 -1.40 0.20 -5.80 1.75 -8.10 1.45 -2.10 1.55 -1.20 0.20 1.50 -1.30 2.55 -1.25 3.30 0.30 5.40 2.65 3.40 2.35 7.85 -0.50 9.20 -0.75 0.30 -1.30 0.75 -1.30 1 0 0.20 -0.65 0.40 -1.50 0.40 -0.80 0 -1.50 -0.10 -1.50 -0.25z"/>
  <path d="M39 38 c0 -0.80 -0.90 -3.80 -2 -6.60 -1.10 -2.85 -2 -5.50 -2 -5.90 0 -1.25 -1.15 0.35 -2.15 2.90 l-0.85 2.35 0.20 -2.15 c0.15 -1.50 0.60 -2.50 1.50 -3.35 l1.25 -1.15 0.70 1.05 c0.70 1.05 0.70 1 0.45 -0.55 -0.15 -1.20 -0.40 -1.55 -1.05 -1.35 -0.60 0.15 -1.25 -0.60 -2.45 -2.90 -0.90 -1.70 -1.60 -3.50 -1.60 -4 0 -2.10 -2.30 -3.95 -7.40 -5.90 l-1.35 -0.50 1.15 1.20 c0.65 0.70 1.90 1.40 2.80 1.55 0.90 0.20 2.05 0.65 2.60 1.05 0.85 0.65 0.75 0.70 -1.60 0.75 -2.75 0 -4.45 -0.95 -6.90 -3.85 -0.75 -0.90 -1.70 -1.65 -2.10 -1.65 -0.95 0 -0.90 -0.65 0.15 -1.30 0.70 -0.40 2.05 -0.10 6.05 1.35 2.85 1 5.45 2.20 5.75 2.60 4.50 5.55 8.85 12.85 8.85 14.85 0 0.50 0.25 1.10 0.50 1.25 0.30 0.20 0.50 2.75 0.50 6.05 0 3.45 -0.20 5.70 -0.50 5.70 -0.25 0 -0.50 -0.65 -0.50 -1.50z m-4.95 -18.35 c-0.55 -1.05 -1 -1.75 -1.05 -1.55 0 0.60 1.65 3.90 1.90 3.70 0.10 -0.10 -0.30 -1.05 -0.85 -2.15z"/>
  <path d="M11.50 38.15 c0 -0.30 0.55 -0.75 1.25 -1.05 0.70 -0.35 1.25 -1 1.25 -1.55 0 -2.45 0.50 -2.60 2.75 -0.70 2.25 1.85 3.45 4.05 1.85 3.40 -0.45 -0.20 -1.05 -0.35 -1.35 -0.30 -3 0.50 -5.75 0.55 -5.75 0.20z m5.50 -1.75 c0 -0.70 -0.85 -0.40 -1.75 0.60 -0.85 0.95 -0.85 0.95 0.45 0.35 0.70 -0.35 1.30 -0.75 1.30 -0.95z"/>
  <path d="M31.30 37.50 c0.25 -0.40 0.55 -1.65 0.75 -2.75 l0.30 -2 0.10 1.80 c0 0.95 -0.30 2.20 -0.75 2.75 -0.40 0.50 -0.60 0.60 -0.40 0.20z"/>
  <path d="M16.75 32.10 c-0.80 -0.55 -1.75 -1.25 -2.10 -1.65 -0.70 -0.90 -2.80 -7 -2.45 -7.30 0.40 -0.40 1.30 0.35 1.30 1.15 0 1.10 1.10 0.80 2.95 -0.80 1.65 -1.40 1.70 -1.50 0.85 -2.45 -0.85 -0.90 -0.85 -1 0 -1.45 0.70 -0.40 1.05 -0.30 1.55 0.30 0.55 0.75 0.85 0.60 2.65 -1.50 1.90 -2.20 3.50 -3.10 3.50 -1.95 0 0.25 0.15 0.80 0.30 1.25 0.20 0.50 -0.35 1.05 -1.75 1.75 -2.60 1.35 -3.35 2.65 -2.20 3.85 0.80 0.80 0.90 0.75 1.25 -0.65 0.35 -1.35 1.45 -2.10 3.05 -2.15 0.85 0 0.25 1.40 -0.75 1.70 -0.90 0.20 -1 0.40 -0.50 0.90 2 2 -2.05 9.90 -5.10 9.90 -0.55 0 -1.70 -0.40 -2.55 -0.90z m4.50 -2.45 c0.60 -0.90 0.70 -1.40 0.35 -1.55 -0.35 -0.10 -0.60 -0.95 -0.60 -1.95 0 -1.90 -1.05 -3.30 -2.15 -2.85 -0.85 0.30 -1.85 2.35 -1.80 3.60 0 0.45 0.45 -0.15 1 -1.35 1.10 -2.50 1.75 -2.45 1.25 0.20 -0.25 1.25 -0.70 1.95 -1.60 2.25 -0.65 0.25 -1.20 0.70 -1.20 0.95 0 0.30 0.35 0.40 0.80 0.20 0.65 -0.25 0.75 -0.10 0.45 0.75 -0.25 0.95 -0.10 1.10 1.15 1.10 1.05 0 1.75 -0.40 2.35 -1.35z"/>
  <path d="M18.50 29.50 c0 -0.25 0.45 -0.50 1 -0.50 0.55 0 1 0.25 1 0.50 0 0.30 -0.45 0.50 -1 0.50 -0.55 0 -1 -0.20 -1 -0.50z"/>
  <path d="M13.05 22.45 l-1.15 -1.50 1.65 0.15 c1.90 0.20 3.10 1.65 1.95 2.40 -1.10 0.70 -1.20 0.65 -2.45 -1.05z"/>
  <path d="M0 20.25 c0 -1.70 0.20 -2.25 0.75 -2.25 0.40 0 1.95 -0.65 3.40 -1.40 1.40 -0.80 3.60 -1.70 4.85 -2.05 1.25 -0.35 2.90 -0.95 3.70 -1.35 1.30 -0.65 1.55 -0.65 2.35 0.10 0.85 0.75 0.55 0.95 -4.70 3.55 -3.10 1.50 -6.15 2.95 -6.85 3.20 l-1.25 0.45 1.25 -1.05 c0.70 -0.60 2.75 -1.85 4.65 -2.75 3.55 -1.80 4.65 -2.80 1.50 -1.30 -5.90 2.65 -8.65 4.65 -8.65 6.20 0 0.50 -0.20 0.90 -0.50 0.90 -0.25 0 -0.50 -1 -0.50 -2.25z"/>
  <path d="M33 13.65 l-2.75 -2.90 2.90 2.75 c1.55 1.50 2.85 2.80 2.85 2.85 0 0.40 -0.50 -0.05 -3 -2.70z"/>
  <path d="M10.50 13.05 c0 -0.25 0.35 -0.70 0.75 -1.05 0.40 -0.35 0.65 -0.80 0.50 -1 -0.15 -0.25 -0.05 -0.55 0.20 -0.70 0.25 -0.15 0.60 0.05 0.75 0.50 0.40 1.05 0.40 1 -0.50 1.90 -0.85 0.90 -1.70 1.05 -1.70 0.35z"/>
  <path d="M15.85 11.30 c-0.30 -0.75 0.05 -1.30 0.75 -1.30 0.55 0 0.50 1.35 -0.05 1.70 -0.25 0.15 -0.55 0 -0.70 -0.40z"/>
  <path d="M13.30 9.60 c-0.35 -0.60 2.45 -2.60 3.55 -2.60 0.70 0 0.45 0.40 -0.85 1.50 -1.85 1.55 -2.30 1.75 -2.70 1.10z"/>
  <path d="M7.70 8.50 c-1.35 -0.55 -2.30 -1.85 -1 -1.35 0.50 0.20 1.55 0.35 2.40 0.35 0.95 0 1.40 0.20 1.30 0.65 -0.30 0.75 -1.35 0.90 -2.70 0.35z"/>
  <path d="M25.55 5.95 c-0.75 -2.15 -0.70 -4.70 0.10 -5.35 0.45 -0.40 0.60 0.30 0.60 3.20 0 2.05 -0.05 3.70 -0.10 3.70 0 0 -0.30 -0.70 -0.60 -1.55z"/>
  <path d="M19.05 6.25 c-1.55 -0.55 -3.50 -2.45 -3.55 -3.40 0 -0.60 2.35 -2.85 3 -2.85 0.35 0 0.20 0.60 -0.30 1.45 l-0.90 1.50 2.25 2 c2.30 2.10 2.25 2.30 -0.50 1.30z"/>
 </g>
 <g fill="#8ad2f8">
  <path d="M9.25 14.50 c0.15 -0.25 0.65 -0.50 1.05 -0.50 0.40 0 0.60 0.25 0.45 0.50 -0.15 0.30 -0.65 0.50 -1.05 0.50 -0.40 0 -0.60 -0.20 -0.45 -0.50z"/>
  <path d="M10.50 13.25 c0 -0.20 0.35 -1 0.80 -1.85 0.60 -1.20 0.90 -1.40 1.25 -0.85 0.60 0.95 0.55 1.25 -0.35 2.15 -0.75 0.80 -1.70 1.05 -1.70 0.55z"/>
 </g>
 <g fill="#cdb1e0">
  <path d="M3.10 39 c-0.90 -1.45 -0.80 -4.80 0.20 -5.20 1.50 -0.60 1.60 -0.30 0.55 1.65 -1 1.80 -1 1.95 -0.20 2.75 0.90 0.90 1.10 1.80 0.45 1.80 -0.20 0 -0.65 -0.45 -1 -1z"/>
  <path d="M39.15 38.75 c0.15 -0.80 -0.70 -3.65 -2.15 -7.55 -2.35 -6.15 -2.40 -6.25 -3.20 -5.15 -0.45 0.65 -0.80 1.55 -0.80 2.05 0 0.45 -0.20 1 -0.50 1.15 -0.65 0.40 -0.60 -0.05 0 -2.35 0.30 -1.05 1 -2.15 1.55 -2.40 0.85 -0.50 1.10 -0.30 2 1.85 0.55 1.30 1.55 3.90 2.15 5.75 0.65 1.85 1.30 3.25 1.50 3.05 0.15 -0.15 0.30 0.85 0.30 2.25 0 1.60 -0.20 2.60 -0.55 2.60 -0.35 0 -0.45 -0.50 -0.30 -1.25z"/>
  <path d="M5 38.55 c0 -0.25 0.30 -0.70 0.70 -1 0.60 -0.50 0.65 -0.40 0.45 0.40 -0.25 1.05 -1.15 1.50 -1.15 0.60z"/>
  <path d="M12.65 37.40 c0.85 -0.75 1.35 -1.70 1.35 -2.55 0 -1.55 0.90 -1.75 2.05 -0.45 0.45 0.45 1.30 1.25 1.90 1.70 1.40 1.20 1.35 1.75 -0.30 1.80 -0.80 0.05 -2.50 0.20 -3.90 0.35 l-2.50 0.30 1.40 -1.15z m3.60 -0.05 c0.50 -0.40 0.75 -0.95 0.55 -1.25 -0.45 -0.75 -1.30 -0.75 -1.30 -0.05 0 0.35 -0.40 0.90 -0.85 1.25 -0.75 0.55 -0.80 0.65 -0.10 0.70 0.40 0 1.15 -0.30 1.70 -0.65z"/>
  <path d="M25.10 38 c1.25 -0.75 1.60 -4.30 0.70 -6.85 -0.40 -1.20 -0.55 -2.15 -0.30 -2.15 0.30 0 0.50 0.25 0.50 0.55 0 0.35 0.80 1.35 1.80 2.25 1.20 1.15 1.70 2.05 1.60 2.80 -0.25 1.60 -1.10 1.60 -1.75 0.05 l-0.55 -1.40 -0.05 1.80 c-0.05 1.70 -1.25 3.45 -2.35 3.45 -0.25 0 -0.05 -0.25 0.40 -0.50z"/>
  <path d="M6.55 33.50 c0 -0.40 0.30 -1.20 0.70 -1.70 0.95 -1.25 0.95 -0.45 0 1.20 -0.40 0.70 -0.70 0.95 -0.70 0.50z"/>
  <path d="M4.90 32.75 c-0.35 -0.40 2.55 -4.75 3.20 -4.75 0.85 0 0.35 1.30 -1.25 3.15 -0.90 1.05 -1.75 1.80 -1.95 1.60z"/>
  <path d="M3.05 31.40 c-0.05 -0.75 -0.25 -1.90 -0.55 -2.60 -0.60 -1.70 0.30 -1.75 1.05 -0.10 0.40 0.85 0.40 1.65 0.05 2.65 l-0.50 1.40 -0.05 -1.35z"/>
  <path d="M16.15 31.50 c-2.35 -1.40 -2.05 -2.20 0.35 -0.95 1.95 1.05 3.85 0.95 4.60 -0.20 0.15 -0.30 0.70 -0.60 1.10 -0.65 0.65 -0.10 0.60 0.15 -0.25 1.35 -1.25 1.75 -3.40 1.95 -5.80 0.45z"/>
  <path d="M26.90 29.50 c-1.10 -1.55 -1.25 -2.20 -0.95 -3.60 0.45 -1.80 2 -4.60 2.40 -4.20 0.15 0.15 -0.20 1 -0.80 1.95 -1.35 2.15 -1.35 3.85 0 5.55 0.55 0.70 0.95 1.50 0.85 1.75 -0.10 0.25 -0.75 -0.40 -1.50 -1.45z"/>
  <path d="M4.50 27.25 c-0.45 -0.55 -0.40 -1 0.45 -2.20 1.30 -1.80 1.30 -1.95 -0.05 -2.55 -1.15 -0.50 -1.15 -0.50 0.10 -0.35 1.50 0.10 1.95 1.85 0.75 2.85 -1 0.80 -0.95 2 0.05 2 0.40 0 0.60 0.25 0.45 0.50 -0.45 0.70 -1.05 0.60 -1.75 -0.25z"/>
  <path d="M17.70 27.25 c0.55 -2.45 0.90 -3.25 1.35 -3.25 0.80 0 0.50 1.85 -0.60 3.05 -0.90 1.10 -1 1.10 -0.75 0.20z"/>
  <path d="M38 25.65 c-0.35 -1.05 -1.05 -2.70 -1.60 -3.65 -2.50 -4.25 -2.95 -5.15 -2.75 -5.30 0.30 -0.30 4.75 7.90 5.10 9.45 0.50 2 -0.10 1.65 -0.75 -0.50z"/>
  <path d="M12.65 24.75 c-0.30 -0.95 -0.40 -1.75 -0.15 -1.75 0.40 0 1.15 3 0.85 3.35 -0.10 0.05 -0.40 -0.65 -0.70 -1.60z"/>
  <path d="M24 24.10 c-2.15 -0.75 -1.70 -3.55 0.45 -2.85 1.05 0.30 1.10 0.35 0.20 1.05 -0.75 0.60 -0.80 0.75 -0.15 1.15 0.85 0.60 0.55 1 -0.50 0.65z"/>
  <path d="M13.65 22.75 l-1.05 -1.25 1.40 0 c1.70 0 2.40 0.85 1.45 1.75 -0.60 0.60 -0.85 0.50 -1.80 -0.50z"/>
  <path d="M32.60 20.20 c-1.85 -3.75 -1.90 -4.55 -0.15 -1.80 0.65 1 1.60 2.45 2.10 3.15 0.80 1.20 0.80 1.95 -0.05 1.95 -0.15 0 -1 -1.50 -1.90 -3.30z"/>
  <path d="M19.40 21.75 c-0.15 -0.15 0.20 -0.85 0.80 -1.60 3.60 -4.30 3.70 -4.40 4.35 -3.80 0.50 0.50 0.45 0.80 -0.35 1.45 -0.80 0.65 -0.80 0.75 -0.05 0.50 1.45 -0.45 0.95 0.55 -0.60 1.20 -0.80 0.30 -1.85 1 -2.35 1.55 -0.90 1 -1.35 1.15 -1.80 0.70z"/>
  <path d="M17.25 21 c-0.35 -0.60 0.10 -1.50 0.80 -1.50 0.25 0 0.45 0.45 0.45 1 0 1.05 -0.75 1.35 -1.25 0.50z"/>
  <path d="M0 19.75 c0 -1 0.55 -1.50 3 -2.75 3.45 -1.75 7.50 -3.20 7.85 -2.80 0.15 0.10 -1.20 0.95 -2.90 1.85 -1.75 0.85 -4.25 2.35 -5.55 3.25 l-2.40 1.70 0 -1.25z"/>
  <path d="M4.40 19 c2.75 -1.70 7.55 -4 8.20 -3.95 0.35 0 -1.50 1.10 -4.10 2.45 -4.80 2.50 -7.10 3.30 -4.10 1.50z"/>
  <path d="M30.85 14.45 c-0.85 -0.85 -2.70 -2.10 -4.10 -2.80 -1.35 -0.70 -2.85 -1.55 -3.25 -1.85 -0.40 -0.35 -1.50 -0.95 -2.40 -1.30 -1.40 -0.55 -1.75 -0.55 -2.10 0 -0.20 0.35 -0.70 0.50 -1.05 0.40 -0.50 -0.20 -0.30 -0.45 0.55 -0.85 1.10 -0.50 1.95 -0.35 6 1.10 4.15 1.50 4.95 2 6.90 4.25 2.45 2.85 2.05 3.55 -0.55 1.05z"/>
  <path d="M13.65 13.90 c-0.10 -1.30 0.60 -1.50 1.55 -0.45 0.80 0.85 0.80 0.95 -0.35 1.15 -0.85 0.15 -1.15 0 -1.20 -0.70z"/>
  <path d="M22.10 12.25 c-1 -0.95 -1.45 -1.60 -0.95 -1.45 0.45 0.15 0.85 0.50 0.85 0.75 0 0.70 2.05 1.55 4.70 1.95 l2.55 0.40 -2.65 0.05 c-2.35 0.05 -2.80 -0.15 -4.50 -1.70z"/>
  <path d="M8.05 8.55 c-2.50 -0.70 -1.50 -1.30 1.80 -1.15 1.95 0.10 3.05 0.35 2.65 0.60 -1.25 0.65 -3.20 0.90 -4.45 0.55z"/>
  <path d="M19.90 6.40 c-0.80 -0.25 -1.40 -0.80 -1.40 -1.20 0 -1.05 0.70 -0.85 2 0.55 0.65 0.70 1.10 1.25 0.95 1.20 -0.10 0 -0.80 -0.25 -1.55 -0.55z"/>
  <path d="M25.30 4.90 c-0.45 -1.70 -0.35 -3.40 0.15 -3.40 0.25 0 0.45 1 0.45 2.25 0 2.50 -0.15 2.80 -0.60 1.15z"/>
  <path d="M16.30 4.25 c-0.65 -1 -0.70 -1.40 -0.20 -2.25 0.65 -1.05 1.85 -1.70 2.30 -1.25 0.15 0.15 -0.15 0.65 -0.60 1.20 -0.55 0.60 -0.70 1.05 -0.35 1.30 0.65 0.40 0.75 2.25 0.10 2.25 -0.25 0 -0.80 -0.55 -1.25 -1.25z"/>
 </g>
 <g fill="#e4c7f8">
  <path d="M12.65 37.35 c0.75 -0.65 1.35 -1.65 1.35 -2.25 0 -0.80 0.30 -1.10 1.05 -1.10 0.80 0 0.95 0.20 0.70 1.15 -0.40 1.40 -2.55 3.35 -3.65 3.35 -0.65 -0.05 -0.55 -0.30 0.55 -1.15z"/>
  <path d="M2.55 35.90 c-0.05 -1.05 0.15 -1.90 0.45 -1.90 0.25 0 1.40 -1.35 2.60 -3 1.95 -2.80 2.90 -3.60 2.90 -2.55 0 0.20 -1.15 1.90 -2.50 3.70 -1.40 1.85 -2.75 3.85 -3 4.45 -0.40 1 -0.45 0.90 -0.45 -0.70z"/>
  <path d="M26.35 35.40 c0.40 -2.20 0.65 -2.40 0.65 -0.50 0 0.85 -0.20 1.70 -0.50 1.85 -0.30 0.20 -0.35 -0.30 -0.15 -1.35z"/>
  <path d="M27.40 33.50 c-0.80 -1.90 -0.80 -1.95 0.05 -1.50 1.40 0.70 2.20 1.90 1.85 2.75 -0.45 1.20 -1 0.85 -1.90 -1.25z"/>
  <path d="M36.75 30.50 c-1.05 -2.80 -1.75 -5.15 -1.65 -5.30 0.25 -0.20 2.95 6.65 3.65 9.20 0.75 2.60 -0.20 0.75 -2 -3.90z"/>
  <path d="M3.05 31 c-0.05 -1 -0.40 -2.30 -0.85 -2.90 -0.40 -0.60 -0.50 -1.10 -0.25 -1.10 0.30 0 0.90 0.55 1.30 1.20 0.65 0.95 0.70 1.60 0.30 2.90 l-0.45 1.65 -0.05 -1.75z"/>
  <path d="M32.55 27.40 c-0.05 -0.75 0.30 -1.70 0.75 -2.10 1.15 -1.15 1.30 -1 0.55 0.60 -0.40 0.75 -0.85 1.70 -1 2.10 -0.15 0.45 -0.30 0.20 -0.30 -0.60z"/>
  <path d="M18 26.90 c0 -1.15 0.55 -2.40 1.05 -2.40 0.70 0 0.55 1.20 -0.30 2.30 -0.60 0.80 -0.70 0.85 -0.75 0.10z"/>
  <path d="M4 26.85 c0 -0.25 0.45 -1 1 -1.70 0.55 -0.70 1 -1.10 1 -0.85 -0.05 0.60 -1.95 3.05 -2 2.55z"/>
  <path d="M13.65 22.55 c-1.45 -1.20 -1.45 -1.55 0.05 -1.55 1.30 0 2.55 1.20 2.05 2 -0.45 0.70 -0.80 0.60 -2.10 -0.45z"/>
  <path d="M23 22.35 c0 -1.10 0.25 -1.35 1.20 -1.35 0.70 0 1.40 0.25 1.55 0.50 0.15 0.30 0.05 0.50 -0.30 0.50 -0.35 0 -1.05 0.35 -1.55 0.85 -0.85 0.75 -0.90 0.75 -0.90 -0.50z"/>
  <path d="M34.15 22.90 c-0.90 -1.10 -2.75 -5 -2.25 -4.70 0.65 0.40 3.20 4.90 2.95 5.15 -0.10 0.10 -0.45 -0.10 -0.70 -0.45z"/>
  <path d="M20.80 20.05 c0.25 -0.25 1 -0.60 1.70 -0.80 1.20 -0.35 1.20 -0.35 0.25 0.45 -1.05 0.80 -2.80 1.15 -1.95 0.35z"/>
  <path d="M0 19.10 c0 -0.55 0.60 -1.10 1.65 -1.50 3.25 -1.15 3.85 -0.50 1.10 1.30 -2.10 1.35 -2.75 1.40 -2.75 0.20z"/>
  <path d="M5 16.60 c0 -0.55 1.60 -1.45 3.40 -1.85 2.15 -0.45 2 0 -0.40 1.25 -2.05 1.05 -3 1.25 -3 0.60z"/>
  <path d="M27.30 11.85 c-3.75 -2 -4.25 -3 -0.95 -1.90 2.95 1 3.50 1.35 4.15 2.60 0.70 1.30 0.25 1.20 -3.20 -0.70z"/>
  <path d="M7.15 8.10 c-0.30 -0.20 0.85 -0.40 2.50 -0.45 2.15 -0.10 2.85 0 2.35 0.35 -0.90 0.55 -4 0.65 -4.85 0.10z"/>
  <path d="M16.30 4.20 c-0.90 -1.30 -0.90 -1.30 0.15 -2.35 1.05 -1.10 2.10 -0.85 1.15 0.30 -0.35 0.40 -0.35 0.90 -0.10 1.35 0.60 0.90 0.65 2 0.15 2 -0.25 0 -0.80 -0.60 -1.35 -1.30z"/>
  <path d="M25.05 3.10 c-0.05 -0.90 0.30 -2 0.70 -2.45 0.70 -0.70 0.75 -0.65 0.45 0.65 -0.20 0.80 -0.55 1.90 -0.75 2.45 -0.30 0.80 -0.40 0.70 -0.40 -0.65z"/>
 </g>
 <g fill="#f8e9fd">
  <path d="M13.40 36.90 c0.35 -0.35 0.60 -1.50 0.60 -2.60 l0 -2 1 1 c0.95 0.95 1 1.10 0.20 2.60 -0.40 0.90 -1.15 1.60 -1.60 1.60 -0.60 0 -0.65 -0.15 -0.20 -0.60z"/>
  <path d="M3.30 34.45 c2.55 -4.10 4.45 -6.50 4.60 -5.80 0.15 0.80 -3.55 5.90 -4.50 6.30 -0.35 0.10 -0.35 -0.10 -0.10 -0.50z"/>
  <path d="M27.90 33.75 c-0.20 -1 -0.15 -1.15 0.40 -0.70 0.80 0.65 0.95 1.95 0.25 1.95 -0.25 0 -0.55 -0.55 -0.65 -1.25z"/>
  <path d="M3.05 29.80 c0 -0.55 -0.40 -1.40 -0.90 -1.90 -0.45 -0.50 -0.55 -0.90 -0.25 -0.90 0.80 0 1.70 1.85 1.45 2.90 -0.20 0.70 -0.25 0.70 -0.30 -0.10z"/>
  <path d="M13.50 22.15 l-1.75 -0.85 1.40 -0.20 c1.40 -0.15 2.85 0.60 2.85 1.45 0 0.60 -0.50 0.55 -2.50 -0.40z"/>
  <path d="M23 21.95 c0 -0.50 0.30 -0.95 0.70 -0.95 0.40 0 1.05 -0.15 1.50 -0.30 0.50 -0.20 0.80 -0.05 0.80 0.40 0 0.35 -0.65 0.95 -1.50 1.25 -1.35 0.50 -1.50 0.45 -1.50 -0.40z"/>
  <path d="M0 18.90 c0 -0.60 7.10 -3.95 8.25 -3.90 0.70 0.05 -1.15 1.40 -3.75 2.75 -3.25 1.60 -4.50 1.95 -4.50 1.15z"/>
  <path d="M27.05 11.60 c-1.25 -0.70 -2 -1.35 -1.65 -1.50 0.80 -0.25 4.25 1.50 4.50 2.30 0.25 0.85 -0.30 0.70 -2.85 -0.80z"/>
  <path d="M16.30 3.90 c-0.70 -1 -0.70 -1.20 0.05 -2 1 -1.10 2.05 -1.20 1.15 -0.15 -0.50 0.60 -0.50 1.05 -0.10 2 0.70 1.55 -0.05 1.65 -1.10 0.15z"/>
 </g>
</svg>