<?xml version="1.0" encoding="utf-8"?>
<!DOCTYPE svg PUBLIC "-//W3C//DTD SVG 1.0//EN" "http://www.w3.org/TR/2001/REC-SVG-20010904/DTD/svg10.dtd">
<svg version="1.0" xmlns="http://www.w3.org/2000/svg" width="40px" height="40px" viewBox="0 0 40 40" preserveAspectRatio="xMidYMid meet">
 <g fill="#090607">
  <path d="M3.50 38.80 c0 -1.55 2.35 -3.30 4.45 -3.30 1.40 0 1.55 0.15 1.55 1.65 0 2.25 -0.75 2.85 -3.60 2.85 -2.20 0 -2.40 -0.10 -2.40 -1.20z"/>
  <path d="M16 38.25 c0 -1.65 0.10 -1.75 1.75 -1.75 1.65 0 1.75 0.10 1.75 1.75 0 1.65 -0.10 1.75 -1.75 1.75 -1.65 0 -1.75 -0.10 -1.75 -1.75z"/>
  <path d="M12 24.70 c0 -1 0.20 -1.25 0.80 -1 0.60 0.20 0.75 0.10 0.50 -0.45 -0.20 -0.55 0.05 -0.75 0.95 -0.75 1.10 0 1.25 0.20 1.25 1.75 0 1.65 -0.10 1.75 -1.75 1.75 -1.55 0 -1.75 -0.15 -1.75 -1.30z"/>
  <path d="M30 10.25 c0 -1.50 0.15 -1.75 1.20 -1.75 1.15 0 1.20 0.10 0.65 1.75 -0.30 0.95 -0.80 1.75 -1.20 1.75 -0.40 0 -0.65 -0.65 -0.65 -1.75z"/>
  <path d="M33.50 8 c0 -0.30 -0.20 -0.40 -0.50 -0.25 -0.30 0.20 -0.50 -0.35 -0.50 -1.20 0 -1.40 0.15 -1.55 1.55 -1.55 1.35 0 1.50 0.10 0.95 0.75 -0.50 0.60 -0.45 0.75 0.25 0.75 1.25 0 0.70 1.70 -0.65 1.90 -0.60 0.10 -1.10 -0.10 -1.10 -0.40z"/>
 </g>
 <g fill="#432223">
  <path d="M3 38.70 c0 -0.85 0.30 -1.40 1 -1.55 0.55 -0.15 1 -0.45 1 -0.70 0 -0.25 0.80 -0.45 1.75 -0.45 1.65 0 1.75 0.10 1.75 1.70 0 1.30 -0.25 1.75 -1.10 1.95 -1.60 0.45 -1.70 0 -0.35 -1.50 l1.20 -1.35 -1.60 1.15 c-0.90 0.60 -1.65 1.35 -1.65 1.60 0 0.25 -0.45 0.45 -1 0.45 -0.75 0 -1 -0.35 -1 -1.30z"/>
  <path d="M23.50 20.75 c0 -1.20 0.25 -1.75 0.75 -1.75 0.40 0 0.75 -0.20 0.75 -0.50 0 -0.25 0.80 -0.50 1.75 -0.50 1.65 0 1.75 0.10 1.75 1.75 0 1.20 -0.25 1.75 -0.75 1.75 -0.40 0 -0.75 0.25 -0.75 0.50 0 0.30 -0.80 0.50 -1.75 0.50 -1.65 0 -1.75 -0.10 -1.75 -1.75z"/>
  <path d="M11.50 12.60 c0 -0.55 0.45 -1.35 1 -1.85 1 -0.90 1 -0.85 1 0.90 0 1.50 -0.20 1.85 -1 1.85 -0.65 0 -1 -0.35 -1 -0.90z"/>
  <path d="M25.15 9.40 c-0.70 -0.35 -1.15 -1 -1.15 -1.75 0 -1.15 0.05 -1.15 1.80 -0.40 2.95 1.20 3.80 0.95 6.70 -2 2.70 -2.75 4.50 -3.50 4.50 -1.90 0 0.45 -0.75 1.45 -1.60 2.20 l-1.65 1.40 1.65 -0.45 c1.40 -0.40 1.60 -0.30 1.60 0.55 0 0.50 -0.35 0.95 -0.75 0.95 -0.40 0 -0.95 0.45 -1.25 1 -0.75 1.40 -1.50 1.25 -1.50 -0.25 0 -0.70 -0.20 -1.25 -0.50 -1.25 -0.25 0 -0.50 0.35 -0.50 0.75 0 0.45 -0.45 0.75 -1.25 0.75 -0.70 0 -1.25 0.25 -1.25 0.50 0 0.65 -3.45 0.60 -4.85 -0.10z"/>
  <path d="M14.30 8.90 c0.25 -0.35 0.35 -1.45 0.25 -2.50 -0.20 -2.65 0.40 -4.90 1.25 -4.90 0.40 0 0.70 -0.35 0.70 -0.75 0 -0.40 0.35 -0.75 0.75 -0.75 0.40 0 0.75 0.25 0.75 0.50 0 0.70 2.30 0.65 3.50 -0.10 1.45 -0.95 1.90 0.05 0.50 1.20 -0.80 0.65 -1.70 0.90 -2.65 0.75 -1.05 -0.15 -1.35 0 -1.10 0.50 0.15 0.55 -0.05 0.65 -0.75 0.40 -0.95 -0.30 -1 -0.10 -1 2.95 0 3.20 -0.05 3.30 -1.30 3.30 -0.85 0 -1.15 -0.20 -0.90 -0.60z"/>
 </g>
 <g fill="#213236">
  <path d="M9 38.25 c0 -1.70 0.05 -1.75 2 -1.75 1.95 0 2 0.05 2 1.75 0 1.70 -0.05 1.75 -2 1.75 -1.95 0 -2 -0.05 -2 -1.75z"/>
  <path d="M16.10 38.40 c0.15 -1.50 0.30 -1.65 2.05 -1.80 1.80 -0.15 1.85 -0.15 1.85 1.60 0 1.75 -0.05 1.80 -2.05 1.80 -1.95 0 -2 -0.05 -1.85 -1.60z"/>
  <path d="M2.40 36.15 c0.55 -0.80 2.05 -2.75 3.30 -4.35 1.25 -1.65 2.30 -3.25 2.30 -3.55 0 -0.35 0.70 -1.55 1.50 -2.65 1.55 -2.15 2.75 -2.60 4 -1.45 0.35 0.30 0.05 -0.45 -0.65 -1.75 -1.65 -2.85 -1.65 -2.90 -0.10 -2.90 1 0 1.25 0.25 1.25 1.25 0 0.75 0.30 1.25 0.70 1.25 0.85 0 1.30 1.10 1.30 3.05 0 1.35 -0.15 1.45 -1.75 1.45 -0.95 0 -1.75 -0.20 -1.75 -0.50 0 -0.25 -0.20 -0.50 -0.50 -0.50 -0.25 0 -0.50 0.35 -0.50 0.75 0 0.40 -0.20 0.75 -0.40 0.75 -0.25 0 -0.75 0.90 -1.10 2 -0.45 1.35 -0.95 2 -1.60 2 -0.65 0 -0.90 0.35 -0.90 1.25 0 0.70 -0.20 1.25 -0.50 1.25 -0.25 0 -0.50 0.35 -0.50 0.75 0 0.35 -0.30 0.90 -0.65 1.10 -0.40 0.20 -0.80 0.80 -1 1.30 -0.20 0.55 -0.85 0.85 -1.85 0.85 l-1.55 0 0.95 -1.35z"/>
  <path d="M18.50 30 c0 -0.55 -0.20 -1 -0.50 -1 -0.25 0 -0.50 -0.75 -0.50 -1.65 0 -1.50 0.20 -1.70 2.65 -2.55 1.40 -0.50 2.30 -1.05 2 -1.15 -0.35 -0.15 -0.65 -1 -0.65 -1.95 0 -1.50 0.15 -1.70 1.25 -1.70 0.80 0 1.25 -0.30 1.25 -0.75 0 -0.50 0.55 -0.75 1.75 -0.75 1.60 0 1.75 0.10 1.75 1.50 0 1.10 0.25 1.50 0.90 1.50 0.60 0.05 0.15 0.65 -1.40 2 -1.25 1.10 -2.40 2 -2.60 2 -0.15 0 -1.40 0.45 -2.70 1 -1.80 0.80 -2.25 1.15 -1.80 1.60 1 1 0.75 2.90 -0.40 2.90 -0.65 0 -1 -0.35 -1 -1z"/>
  <path d="M29.50 18.60 c0 -2.25 0.15 -2.60 1 -2.60 0.80 0 1 0.35 1 1.65 0 1.05 -0.40 2.05 -1 2.60 -1 0.90 -1 0.85 -1 -1.65z"/>
  <path d="M33.50 8.20 c0 -0.70 -0.15 -0.70 -0.75 -0.20 -0.65 0.50 -0.75 0.45 -0.75 -0.60 0 -1.25 3.25 -4.90 4.40 -4.90 0.35 0 0.60 -0.25 0.60 -0.60 0 -0.30 0.45 -0.15 1 0.35 1.15 1 1.40 4.15 0.40 5.15 -0.35 0.35 -1.25 0.60 -2 0.60 -0.75 0 -1.40 0.25 -1.40 0.50 0 0.30 -0.35 0.50 -0.75 0.50 -0.40 0 -0.75 -0.35 -0.75 -0.80z m2.55 -1.70 c0.50 -0.30 0.95 -0.75 0.95 -1 0 -0.85 -1.30 -0.55 -2.25 0.50 -1 1.10 -0.35 1.35 1.30 0.50z"/>
  <path d="M20.65 7.65 c-1.45 -0.20 -1.65 -0.40 -1.65 -1.70 0 -1.45 0.05 -1.50 1.10 -0.75 0.60 0.45 1.70 0.80 2.40 0.80 1.20 0.05 3 1 3 1.70 0 0.30 -2 0.30 -4.85 -0.05z"/>
  <path d="M15 2.30 c0 -1.25 0.60 -2.30 1.30 -2.30 0.45 0 0.70 0.55 0.70 1.50 0 1.15 -0.20 1.50 -1 1.50 -0.55 0 -1 -0.30 -1 -0.70z"/>
 </g>
 <g fill="#483e54">
  <path d="M8 38.50 c0 -1.40 0.10 -1.50 2 -1.50 1.90 0 2 0.10 2 1.50 0 1.40 -0.10 1.50 -2 1.50 -1.90 0 -2 -0.10 -2 -1.50z"/>
  <path d="M18.50 34.75 c0 -1.40 0.20 -1.75 1 -1.75 0.80 0 1 0.35 1 1.75 0 1.40 -0.20 1.75 -1 1.75 -0.80 0 -1 -0.35 -1 -1.75z"/>
  <path d="M18.50 29.75 c0 -2 1.20 -2.45 1.70 -0.60 0.50 1.85 0.35 2.35 -0.70 2.35 -0.80 0 -1 -0.35 -1 -1.75z"/>
  <path d="M21.35 20.20 c-0.20 -0.20 -0.35 -1.20 -0.35 -2.25 0 -1.90 1.65 -4.45 2.90 -4.45 0.30 0 0.60 -0.25 0.70 -0.55 0.10 -0.30 1.70 -0.65 3.55 -0.80 l3.35 -0.30 0 2.25 c0 1.20 -0.25 2.45 -0.60 2.80 -0.95 0.95 -3.80 0.75 -4.05 -0.25 -0.15 -0.50 -0.25 0.15 -0.30 1.40 l-0.05 2.25 -2.40 0.15 c-1.30 0.05 -2.55 -0.05 -2.75 -0.25z"/>
  <path d="M11.50 13.20 c0 -1.05 0.90 -2.70 1.50 -2.70 0.30 0 0.50 0.80 0.50 1.75 0 1.40 -0.20 1.75 -1 1.75 -0.55 0 -1 -0.35 -1 -0.80z"/>
 </g>
 <g fill="#345357">
  <path d="M0 39.25 c0 -0.45 0.55 -1.30 1.30 -1.90 0.70 -0.60 2.45 -2.65 3.85 -4.60 2.35 -3.10 2.80 -3.50 4.50 -3.65 1.75 -0.15 1.85 -0.10 1.85 1.35 0 1.30 0.20 1.50 1.65 1.65 1.55 0.15 1.60 0.25 1.60 2.30 l0 2.10 2 -0.05 c1.50 -0.10 1.65 -0.15 0.65 -0.30 -1.25 -0.20 -1.40 -0.40 -1.40 -2.20 0 -1.90 0.05 -1.95 1.75 -1.95 1.20 0 1.75 0.25 1.75 0.75 0 0.40 0.20 0.75 0.40 0.75 0.25 0 0.45 0.80 0.50 1.75 0.05 1.25 -0.15 1.75 -0.65 1.75 -0.50 0 -0.75 0.50 -0.75 1.50 l0 1.50 -6.50 0 c-3.55 0 -6.50 -0.15 -6.50 -0.35 0 -0.20 0.50 -0.90 1.10 -1.60 l1.15 -1.25 -1.35 0.85 c-1.15 0.70 -1.40 0.75 -1.40 0.15 0 -0.60 -1 -1.30 -1.80 -1.30 -0.10 0 -0.20 0.50 -0.20 1.15 0 0.65 -0.25 1.40 -0.60 1.75 -0.90 0.90 -2.90 0.75 -2.90 -0.15z"/>
  <path d="M13.50 27.50 c-2.05 -2.35 -2.50 -2.45 -2.50 -0.75 0 1 -0.25 1.25 -1.25 1.25 -0.70 0 -1.25 -0.15 -1.25 -0.30 0 -0.80 1.80 -3.20 2.85 -3.75 0.95 -0.50 1.30 -0.45 2.25 0.35 l1.10 0.95 -0.85 -1.35 -0.85 -1.40 1.50 0 c1.05 0 1.70 0.40 2.30 1.25 0.45 0.70 1 1.25 1.25 1.25 0.25 0 0.45 -0.55 0.45 -1.25 0 -1.10 0.20 -1.25 1.75 -1.25 1.60 0 1.75 -0.15 1.75 -1.45 0 -1.55 0.70 -2.05 3 -2.05 0.90 0 1.50 0.30 1.60 0.80 0.15 0.70 0.30 0.65 1.10 -0.25 0.95 -1.05 0.95 -1.05 -0.10 -1.05 -0.90 0 -1.10 -0.30 -1.10 -1.65 0 -1.85 0.75 -2.85 2.10 -2.85 1.05 0 1.15 0.50 0.30 1.50 -0.55 0.60 -0.50 0.60 0.25 0 0.65 -0.50 0.80 -1.05 0.60 -2.10 -0.30 -1.20 -0.15 -1.40 0.75 -1.40 0.95 0 1.05 0.25 0.95 3.55 -0.10 2.95 -0.30 3.80 -1.30 5 -1.60 1.90 -6 4.80 -8.95 5.95 -1.35 0.50 -2.10 1 -1.75 1.20 0.30 0.20 0.55 0.70 0.55 1.10 0 0.50 -0.65 0.70 -2.35 0.70 -2.15 -0.05 -2.60 -0.25 -4.15 -2z"/>
  <path d="M12.10 21 c-0.90 -1.45 -0.75 -2.50 0.40 -2.50 0.80 0 1 0.35 1 1.75 0 1.95 -0.45 2.20 -1.40 0.75z"/>
  <path d="M11.50 15.15 c0 -2.65 0.50 -4.15 1.30 -4.15 0.50 0 0.70 0.80 0.70 3 0 2.65 -0.10 3 -1 3 -0.80 0 -1 -0.35 -1 -1.85z"/>
  <path d="M30 9.80 c0 -1.65 0.45 -2.25 3.80 -5.35 1.60 -1.45 3.60 -2.10 4.60 -1.50 0.40 0.25 0.60 1.15 0.50 2.35 -0.15 1.80 -0.25 1.95 -1.80 2.10 -0.90 0.10 -1.80 0.50 -1.95 0.90 -0.35 1 -1.75 0.90 -1.55 -0.15 0.10 -0.45 0.85 -1.05 1.65 -1.30 0.85 -0.30 1.65 -0.75 1.85 -1.05 0.55 -0.85 -0.40 -1.45 -1.50 -0.85 -1.10 0.60 -4.10 4.85 -4.10 5.90 0 0.35 -0.35 0.65 -0.75 0.65 -0.50 0 -0.75 -0.50 -0.75 -1.70z"/>
  <path d="M16.50 3.25 c0 -1.60 0.15 -1.75 1.40 -1.75 1 0 1.15 0.15 0.65 0.45 -0.60 0.40 -0.60 0.65 0.15 1.75 0.80 1.30 0.80 1.30 -0.70 1.30 -1.40 0 -1.50 -0.15 -1.50 -1.75z"/>
 </g>
 <g fill="#6c4243">
  <path d="M4 38.35 c0 -1.30 0.20 -1.85 0.75 -1.85 0.40 0 0.75 -0.20 0.75 -0.50 0 -0.25 0.80 -0.50 1.75 -0.50 1.40 0 1.75 0.20 1.75 1 0 0.75 0.35 1 1.40 1 l1.35 0.05 -1.25 0.75 c-1.20 0.70 -1.20 0.75 -0.10 0.55 0.70 -0.15 1.10 0 1.10 0.40 0 0.50 -0.80 0.70 -2.75 0.70 -2.85 0 -3.45 -0.55 -1.75 -1.45 0.55 -0.30 1 -0.80 1 -1.10 0 -0.60 -2.45 0.85 -3.35 2 -0.55 0.65 -0.65 0.50 -0.65 -1.05z"/>
  <path d="M18.50 32.25 c0 -2.90 0.15 -3.75 0.70 -3.75 0.90 0 1.40 2.15 1.20 5.20 -0.10 1.80 -0.35 2.30 -1 2.30 -0.80 0 -0.90 -0.50 -0.90 -3.75z"/>
  <path d="M22 21.75 c0 -1.25 0.25 -1.85 0.90 -2.05 0.45 -0.15 1.25 -0.50 1.70 -0.75 0.50 -0.25 1.45 -0.45 2.15 -0.45 1.10 0 1.25 0.20 1.25 1.75 0 1.40 -0.20 1.75 -0.95 1.75 -0.50 0 -1.05 0.35 -1.25 0.75 -0.15 0.45 -0.95 0.75 -2.05 0.75 -1.65 0 -1.75 -0.10 -1.75 -1.75z"/>
  <path d="M22 13.25 c0 -1.65 0.10 -1.75 1.75 -1.75 1.65 0 1.75 0.10 1.75 1.75 0 1.65 -0.10 1.75 -1.75 1.75 -1.65 0 -1.75 -0.10 -1.75 -1.75z"/>
  <path d="M12 12.10 c0 -0.50 0.70 -1.55 1.50 -2.35 0.85 -0.80 1.50 -1.75 1.50 -2.10 0 -0.35 0.35 -0.65 0.75 -0.65 1.30 0 0.95 3 -0.60 4.60 -1.55 1.60 -3.15 1.85 -3.15 0.50z"/>
  <path d="M27 9.05 c0 -0.60 0.20 -1 0.45 -0.85 0.70 0.45 2.75 -0.45 4.35 -1.95 0.80 -0.75 1.50 -1.10 1.60 -0.80 0.10 0.30 0.45 0.40 0.75 0.20 0.35 -0.20 0 0.35 -0.75 1.25 -0.70 0.85 -1.40 1.80 -1.50 2.15 -0.10 0.30 -1.25 0.65 -2.55 0.80 -2.15 0.25 -2.35 0.20 -2.35 -0.80z"/>
  <path d="M33.70 9.30 c-0.50 -1.30 0.15 -2.20 1.80 -2.55 0.85 -0.20 1.70 -0.65 1.85 -1.05 0.40 -1 1.65 -0.85 1.65 0.20 0 1.30 -1 2.10 -2.60 2.10 -0.90 0 -1.40 0.25 -1.40 0.70 0 1.10 -0.95 1.50 -1.30 0.60z"/>
  <path d="M34.75 3.50 c0.50 -0.55 1.30 -1 1.85 -1 0.55 0 0.90 0.35 0.90 1 0 0.80 -0.35 1 -1.85 1 -1.75 0 -1.80 0 -0.90 -1z"/>
  <path d="M16.50 1.75 c0 -1.20 0.25 -1.75 0.75 -1.75 0.40 0 0.75 0.35 0.75 0.75 0 0.45 0.45 0.75 1.20 0.75 0.70 0 1.55 -0.35 2 -0.75 0.80 -0.80 1.80 -1 1.80 -0.35 0 0.90 -1.30 1.60 -3.10 1.60 -1.35 0 -1.90 0.20 -1.90 0.75 0 0.40 -0.35 0.75 -0.75 0.75 -0.50 0 -0.75 -0.55 -0.75 -1.75z"/>
 </g>
 <g fill="#476266">
  <path d="M0 39.25 c0 -0.40 0.20 -0.75 0.45 -0.75 0.25 0 2.10 -2.15 4.10 -4.85 2 -2.65 3.75 -4.55 3.85 -4.25 0.10 0.35 0.75 0.60 1.40 0.60 0.75 0 1.20 0.30 1.20 0.75 0 0.40 0.40 0.75 0.90 0.75 0.50 0 1.15 0.25 1.45 0.55 0.25 0.25 1.75 0.65 3.30 0.80 2.55 0.25 2.85 0.40 3.30 1.80 0.30 0.80 0.55 2.35 0.55 3.40 l0 1.95 -3.70 0 c-2.50 0 -3.80 -0.20 -4 -0.60 -0.25 -0.50 -0.35 -0.50 -0.60 0 -0.15 0.30 -1 0.60 -1.85 0.55 l-1.60 -0.05 1.85 -0.85 c2.25 -1.05 2.85 -1.55 1.80 -1.55 -0.40 0 -1.60 0.55 -2.60 1.25 -1.85 1.25 -3.80 1.65 -3.80 0.80 0 -0.25 0.50 -0.75 1.15 -1.20 0.60 -0.40 0.95 -0.90 0.75 -1.10 -0.20 -0.20 -1.05 0.15 -1.95 0.80 l-1.60 1.15 0.25 -1.10 c0.20 -0.60 0.10 -1.10 -0.15 -1.10 -0.25 0 -0.45 0.35 -0.45 0.75 0 0.40 -0.35 0.75 -0.75 0.75 -0.40 0 -0.75 0.35 -0.75 0.75 0 0.45 -0.45 0.75 -1.25 0.75 -0.80 0 -1.25 -0.30 -1.25 -0.75z m18.50 -0.75 c0 -0.25 -0.35 -0.50 -0.75 -0.50 -0.40 0 -0.75 0.25 -0.75 0.50 0 0.30 0.35 0.50 0.75 0.50 0.40 0 0.75 -0.20 0.75 -0.50z m-9 -4.45 c0 -0.25 0.15 -1.20 0.30 -2.10 l0.30 -1.70 -1 1.75 c-0.55 0.95 -0.90 1.90 -0.75 2.15 0.30 0.50 1.15 0.45 1.15 -0.10z"/>
  <path d="M16 29.30 c0 -0.40 -0.50 -0.80 -1.10 -0.90 -0.75 -0.10 -1.20 -0.55 -1.30 -1.30 -0.15 -1 -0.35 -1.05 -2.15 -0.80 -1.30 0.20 -1.95 0.15 -1.95 -0.25 0 -0.70 1.85 -2.55 2.55 -2.55 0.25 0 1.50 1 2.75 2.25 3.05 3.10 3.30 2.80 0.45 -0.50 -1.95 -2.30 -2.15 -2.75 -1.35 -2.75 0.60 0 1.15 0.40 1.25 0.90 0.15 0.50 0.25 0.30 0.30 -0.50 0.05 -1.15 0.30 -1.40 1.30 -1.40 0.90 0 1.25 -0.25 1.25 -1 0 -0.85 0.35 -1 1.95 -1 1.90 0 1.90 0.05 2.20 2.15 0.15 1.20 0.45 2.50 0.60 2.95 0.40 1.05 -2.40 2.60 -3.95 2.20 -1.05 -0.25 -1.05 -0.25 0.10 0.70 1.80 1.50 1.45 2.50 -0.90 2.50 -1.40 0 -2 -0.20 -2 -0.70z"/>
  <path d="M25.50 21.70 c0 -0.45 0.40 -1.15 0.90 -1.55 0.75 -0.65 0.75 -0.65 -0.25 -0.20 -1.60 0.80 -2.65 0.65 -2.65 -0.30 0 -0.50 -0.25 -1.25 -0.55 -1.65 -0.45 -0.65 -0.50 -0.60 -0.25 0.15 0.20 0.60 0 0.85 -0.70 0.85 -0.80 0 -1 -0.35 -1 -1.75 0 -1.50 0.15 -1.75 1.20 -1.75 1.10 0 1.15 -0.15 0.90 -2.25 l-0.25 -2.25 1.85 0 c1 0 1.80 0.25 1.80 0.50 0 0.30 0.70 0.50 1.50 0.50 0.85 0 1.50 -0.20 1.50 -0.50 0 -0.25 0.45 -0.50 1 -0.50 0.95 0 1 0.25 0.80 4.25 -0.25 4 -0.35 4.30 -1.90 5.70 -1.80 1.70 -3.90 2.05 -3.90 0.75z m4.50 -7.50 c0 -0.40 -0.45 -0.70 -1.10 -0.65 -0.85 0.05 -0.95 0.10 -0.25 0.30 1.05 0.25 1.05 0.35 0.05 2.05 l-0.80 1.35 1.05 -1.20 c0.60 -0.65 1.05 -1.45 1.05 -1.85z"/>
  <path d="M11.95 20.45 c-0.45 -0.85 -0.45 -4.10 0.05 -7.80 0 -0.10 0.35 -0.15 0.75 -0.15 0.60 0 0.75 0.85 0.75 4.50 0 4.50 -0.45 5.50 -1.55 3.45z"/>
  <path d="M17.40 11.15 c-1.80 -0.20 -1.90 -0.30 -1.90 -2 l0 -1.80 2.65 0.35 c1.40 0.15 3 0.30 3.50 0.30 0.65 0 0.85 0.40 0.85 1.75 0 1.90 0 1.90 -5.10 1.40z"/>
  <path d="M34.50 4 c0 -0.90 2.50 -1.75 3.40 -1.20 1.65 1.05 1.25 1.70 -1.10 1.70 -1.25 0 -2.30 -0.25 -2.30 -0.50z"/>
  <path d="M15 2.90 c0 -1.50 0.65 -2.90 1.30 -2.90 0.45 0 0.70 0.60 0.70 1.75 0 1.40 -0.20 1.75 -1 1.75 -0.55 0 -1 -0.30 -1 -0.60z"/>
 </g>
 <g fill="#5c4974">
  <path d="M21.70 19.75 c-0.20 -0.50 -0.95 -0.75 -2.15 -0.75 -3.15 0 -4.05 -1.45 -4.05 -6.65 l0 -4.35 1.95 0 c1.65 0 2.15 0.25 3.05 1.50 0.55 0.80 1.25 2.45 1.45 3.60 0.25 1.20 0.45 1.85 0.50 1.55 0.05 -0.35 0.30 -0.65 0.60 -0.65 0.30 0 0.85 -0.35 1.25 -0.75 0.50 -0.50 1.75 -0.75 3.75 -0.75 l2.95 0 0 1.75 c0 2.65 -1.25 4.25 -3.30 4.25 -1 0 -1.70 -0.25 -1.70 -0.60 0 -0.45 -0.15 -0.50 -0.40 -0.10 -0.20 0.30 -0.70 0.70 -1.10 0.85 -0.60 0.20 -0.55 0.30 0.15 0.30 0.45 0.05 0.85 0.40 0.85 0.80 0 1.05 -3.40 1.05 -3.80 0z m1.50 -1.50 c-0.20 -0.40 0 -1.15 0.35 -1.65 0.60 -0.80 0.60 -0.80 -0.25 0 -0.80 0.70 -0.85 2.40 -0.10 2.40 0.15 0 0.15 -0.35 0 -0.75z m6.80 -3.85 c0 -0.65 -0.35 -0.90 -1.35 -0.85 -1.20 0.10 -1.25 0.10 -0.25 0.30 1.35 0.25 1.35 0.35 0 2.30 l-1.10 1.60 1.35 -1.20 c0.75 -0.70 1.35 -1.65 1.35 -2.15z"/>
 </g>
 <g fill="#377275">
  <path d="M13.40 39.05 c-0.60 -0.70 -0.65 -1.10 -0.25 -1.55 0.35 -0.30 -0.65 -0.10 -2.15 0.45 -3.20 1.20 -4.55 1.40 -3.60 0.45 1.05 -1.05 0.65 -1.30 -1.40 -1.05 -1.95 0.30 -2 0.25 -2 -1.25 0 -1.65 2.10 -4.60 3.30 -4.60 0.45 0 0.70 -0.55 0.70 -1.50 0 -1.40 0.15 -1.50 1.75 -1.50 1.60 0 1.75 0.15 1.75 1.45 0 1.45 0.70 2.05 2.55 2.05 0.50 0 0.95 0.35 0.95 0.75 0 0.40 0.25 0.75 0.50 0.75 0.30 0 0.50 -0.45 0.50 -1 0 -0.80 0.35 -1 1.75 -1 1.65 0 1.75 0.10 1.75 1.75 0 1.20 -0.25 1.75 -0.75 1.75 -0.40 0 -0.75 -0.40 -0.75 -0.85 0 -0.75 -0.10 -0.70 -0.75 0.15 -0.60 0.85 -0.60 1 0.10 1.55 0.70 0.55 0.75 0.80 0.15 1.90 -0.35 0.70 -0.55 1.40 -0.35 1.55 0.45 0.45 1.35 -0.25 1.35 -1.10 0 -0.40 0.35 -0.70 0.75 -0.70 0.45 0 0.75 0.45 0.75 1.25 0 1.20 -0.15 1.25 -2.90 1.25 -2.20 0 -3.05 -0.20 -3.70 -0.95z m-2.65 -2.55 c0.95 -0.40 0.95 -0.45 -0.10 -0.45 -0.60 -0.05 -1.25 0.20 -1.40 0.45 -0.35 0.60 0.10 0.60 1.50 0z m3.25 -1.95 c0 -0.25 -0.70 -0.70 -1.60 -1 -1.70 -0.60 -1.60 -0.30 0.20 0.75 0.65 0.30 1.20 0.60 1.30 0.65 0.05 0.05 0.10 -0.15 0.10 -0.40z m-4.50 -1.60 c0.30 -0.55 0.50 -1.35 0.40 -1.80 -0.10 -0.50 -0.45 -0.10 -1 1.05 -0.90 1.85 -0.35 2.60 0.60 0.75z"/>
  <path d="M17 28.75 c0 -0.45 0.30 -0.60 0.90 -0.45 0.45 0.15 0.25 -0.20 -0.50 -0.80 -0.80 -0.60 -1.40 -1.50 -1.40 -2.05 0 -0.80 0.35 -0.95 2.50 -0.95 2.35 0 2.50 -0.10 2.50 -1.25 0 -1.15 0.65 -1.55 2.15 -1.30 0.45 0.05 4.35 -2.35 4.35 -2.75 0 -0.15 -0.50 0.10 -1.10 0.50 -1.40 1 -1.90 1 -1.90 0.05 0 -0.40 0.30 -0.75 0.65 -0.75 0.40 0 0.35 -0.20 -0.15 -0.50 -0.60 -0.40 -0.45 -0.50 0.65 -0.50 0.75 0 1.35 -0.25 1.35 -0.55 0 -0.25 0.20 -0.40 0.45 -0.20 0.25 0.15 0.60 0.05 0.80 -0.25 0.15 -0.25 0.85 -0.50 1.55 -0.50 1 0 1.20 0.25 1.20 1.40 0 1.45 -1.30 3.10 -2.40 3.10 -0.35 0 -0.60 0.30 -0.60 0.70 0 1.45 -7.65 5.55 -9.40 5 -0.65 -0.20 -0.55 -0.05 0.30 0.70 1.50 1.40 1.40 2.10 -0.40 2.10 -1 0 -1.50 -0.25 -1.50 -0.75z"/>
  <path d="M12 26.75 c0 -1.55 0.15 -1.75 1.25 -1.75 1.20 0 2.25 1.25 2.25 2.70 0 0.60 -0.50 0.80 -1.75 0.80 -1.65 0 -1.75 -0.10 -1.75 -1.75z"/>
  <path d="M13.55 23.20 c-1.35 -1.75 -1.30 -2.20 0.20 -2.20 1.10 0 1.25 0.20 1.25 1.75 0 0.95 -0.10 1.75 -0.20 1.75 -0.15 0 -0.70 -0.60 -1.25 -1.30z"/>
  <path d="M23.65 15.30 c-0.85 -0.40 -1.15 -1 -1.15 -2.15 0 -1.55 0.10 -1.65 1.75 -1.65 0.95 0 1.75 0.25 1.75 0.50 0 0.30 0.35 0.50 0.75 0.50 0.40 0 0.75 -0.20 0.75 -0.50 0 -0.25 0.90 -0.50 2.05 -0.50 1.65 0 2 0.15 1.75 0.80 -0.15 0.45 -0.30 1.20 -0.30 1.75 0 0.50 -0.20 0.95 -0.50 0.95 -0.25 0 -0.50 -0.35 -0.50 -0.75 0 -0.50 -0.50 -0.75 -1.35 -0.75 -1.05 0 -1.20 0.15 -0.70 0.45 0.60 0.40 0.60 0.60 -0.10 1.25 -0.90 0.90 -2.55 0.95 -4.20 0.10z"/>
  <path d="M15 12.25 c0 -1.40 0.20 -1.75 1 -1.75 0.80 0 1 0.35 1 1.75 0 1.40 -0.20 1.75 -1 1.75 -0.80 0 -1 -0.35 -1 -1.75z"/>
  <path d="M17.50 12.20 c0 -1.05 0.20 -1.65 0.50 -1.45 0.30 0.15 0.50 0.95 0.50 1.80 0 0.80 -0.20 1.45 -0.50 1.45 -0.25 0 -0.50 -0.80 -0.50 -1.80z"/>
  <path d="M18.10 9.85 c-0.60 -0.65 -1.10 -1.75 -1.10 -2.50 0 -1.20 0.20 -1.35 1.65 -1.35 2.10 0 3.35 1.30 3.35 3.40 0 1.40 -0.15 1.60 -1.40 1.60 -0.85 0 -1.85 -0.50 -2.50 -1.15z"/>
  <path d="M35.50 7.50 c0 -0.25 0.45 -0.70 1 -1 1.45 -0.75 1.25 -2 -0.25 -2 -1.55 0 -1.70 -1.25 -0.15 -1.65 2.50 -0.65 4 2.45 2.10 4.35 -0.85 0.90 -2.70 1.10 -2.70 0.30z"/>
 </g>
 <g fill="#914f50">
  <path d="M3 38.50 c0 -1.30 0.20 -1.50 1.40 -1.50 0.80 0 1.60 -0.40 2 -1 0.35 -0.55 1.10 -1 1.75 -1 0.95 0 1.15 0.25 1.20 1.75 0.05 1.45 -0.15 1.75 -0.95 1.75 -0.85 0 -0.90 -0.15 -0.40 -0.75 1.20 -1.45 -0.80 -0.85 -2.50 0.75 -0.90 0.85 -1.80 1.50 -2.05 1.50 -0.25 0 -0.45 -0.65 -0.45 -1.50z"/>
  <path d="M16.15 37.80 c0.20 -0.50 0.05 -0.65 -0.40 -0.50 -0.45 0.20 -0.75 -0.35 -1 -1.75 -0.50 -2.90 0 -3.95 2.05 -4.35 1.20 -0.20 1.70 -0.60 1.70 -1.25 0 -1.15 1.35 -1.25 1.60 -0.15 0.35 1.95 -0.20 5.70 -0.90 5.70 -0.40 0 -0.70 0.35 -0.70 0.80 0 0.85 -1.35 2.15 -2.20 2.20 -0.20 0 -0.30 -0.35 -0.15 -0.70z m1.80 -3.40 c0 -1.40 -0.10 -1.50 -0.45 -0.65 -0.60 1.40 -0.60 2.25 0 2.25 0.30 0 0.50 -0.75 0.45 -1.60z"/>
  <path d="M22.50 21.70 c0 -1.55 0.20 -1.85 1.50 -2.35 0.85 -0.30 1.50 -0.75 1.50 -0.95 0 -0.20 0.95 -0.40 2.15 -0.35 1.15 0 1.80 0.15 1.50 0.30 -0.35 0.10 -0.65 0.45 -0.65 0.70 0 0.30 0.25 0.35 0.50 0.20 0.30 -0.15 0.50 0.10 0.50 0.65 0 1.60 -2.90 3.45 -5.60 3.55 -1.30 0.05 -1.40 -0.10 -1.40 -1.75z m3 -0.95 c1.10 -0.70 2 -1.40 2 -1.55 0 -0.30 -3.35 1.60 -4.20 2.40 -1 0.85 0.30 0.35 2.20 -0.85z"/>
  <path d="M12.80 20.65 c-1.05 -6 -1.10 -5.65 0.85 -5.65 1.50 0 1.85 0.20 2.30 1.55 0.30 0.90 0.55 2.60 0.55 3.75 0 2.15 -0.05 2.20 -1.70 2.20 -1.55 0 -1.70 -0.15 -2 -1.85z"/>
  <path d="M21.50 14.50 c0 -0.55 -0.30 -1 -0.70 -1 -0.70 0 -1.30 -1.45 -1.30 -3.45 0 -1.05 0.10 -1.10 0.85 -0.50 0.55 0.50 0.70 0.50 0.45 0.10 -0.25 -0.45 0 -0.65 0.90 -0.65 0.80 0 1.35 0.35 1.55 1 0.20 0.65 0.75 1 1.55 1 1 0 1.20 0.25 1.20 1.40 0 1.75 -1.35 3.10 -3.15 3.10 -1 0 -1.35 -0.25 -1.35 -1z"/>
  <path d="M25.50 8.75 c0 -1.40 0.15 -1.45 1.55 -0.70 0.70 0.35 1.45 0.35 2.50 0 1.35 -0.45 1.45 -0.40 1.45 0.75 0 1.15 -0.15 1.20 -2.75 1.20 -2.60 0 -2.75 -0.05 -2.75 -1.25z"/>
  <path d="M33.50 9.05 c0 -1.25 0.70 -2.05 1.80 -2.05 0.65 0 1.20 0.25 1.20 0.50 0 0.30 -0.30 0.50 -0.70 0.50 -0.40 0 -0.80 0.35 -1 0.75 -0.30 0.80 -1.30 1.05 -1.30 0.30z"/>
  <path d="M32.50 6.50 c0 -0.70 0.35 -1 1.10 -1 1 0 1.05 0.05 0.15 1 -0.50 0.55 -1 1 -1.10 1 -0.05 0 -0.15 -0.45 -0.15 -1z"/>
  <path d="M21 1 c0.55 -0.55 1.25 -1 1.50 -1 0.30 0 0.25 0.40 -0.10 1 -0.35 0.55 -1.05 1 -1.50 1 -0.80 0 -0.80 -0.10 0.10 -1z"/>
 </g>
 <g fill="#4b797d">
  <path d="M7.15 38.60 c1.45 -1.50 1.30 -2.65 -0.20 -1.30 -0.55 0.50 -1.60 0.70 -3.10 0.60 l-2.25 -0.15 3.20 -4.25 c1.75 -2.35 3.20 -4.50 3.20 -4.75 0 -0.85 2.45 -4.20 3.45 -4.70 0.75 -0.45 1.40 -0.05 3.50 2 2.10 2.05 2.75 2.40 3.80 2.15 1.05 -0.25 1.25 -0.15 1.25 0.75 0 0.90 -0.30 1.05 -2.25 1.05 -1.60 0 -2.25 -0.20 -2.25 -0.70 0 -0.40 -0.70 -0.80 -1.60 -0.90 -0.90 -0.15 -2.10 -0.40 -2.65 -0.60 -0.70 -0.30 -0.80 -0.25 -0.30 0.10 0.45 0.30 0.60 1.10 0.45 2.30 -0.20 1.85 0.20 2.30 2.15 2.30 0.60 0 0.95 0.35 0.95 1 0 0.55 0.25 1 0.50 1 0.30 0 0.50 -0.65 0.50 -1.50 0 -1.35 0.15 -1.50 1.70 -1.50 1.85 0 1.80 -0.15 2.60 6.15 0.30 2.10 0.25 2.35 -0.65 2.35 -0.80 0 -0.95 -0.25 -0.75 -1.30 0.20 -1 0.05 -1.25 -0.45 -1.10 -0.40 0.15 -0.70 0.75 -0.65 1.35 0.05 1 -0.20 1.05 -4.25 1 l-4.30 -0.05 1.75 -0.80 c1 -0.45 2.45 -1.30 3.20 -1.90 1.40 -1 1.40 -1.05 0.55 -2.35 -0.45 -0.75 -1.15 -1.35 -1.50 -1.35 -0.35 0 -1 -0.15 -1.45 -0.30 -0.45 -0.15 -0.80 -0.05 -0.80 0.25 0 0.30 0.55 0.55 1.20 0.55 0.65 0 1.45 0.35 1.85 0.80 0.90 1.10 0.10 2.20 -2.30 3.05 -1.05 0.35 -2.30 1 -2.75 1.40 -0.45 0.40 -1.25 0.75 -1.75 0.75 -0.80 0 -0.75 -0.20 0.40 -1.40z m9.25 -1.10 c0.60 -1 0.60 -1.05 -0.65 -0.20 -1.40 0.90 -1.55 1.20 -0.60 1.20 0.35 0 0.90 -0.45 1.25 -1z m-4.40 -1.10 c0 -0.20 -0.65 -0.40 -1.50 -0.40 -0.80 0 -1.50 0.20 -1.50 0.40 0 0.25 0.70 0.45 1.50 0.45 0.85 0 1.50 -0.20 1.50 -0.45z m-5.10 -1.20 c0.25 -0.40 1 -1.05 1.65 -1.35 0.85 -0.45 1.25 -1.10 1.35 -2.35 l0.15 -1.75 -0.90 1.75 c-0.50 0.95 -1.50 2.05 -2.25 2.40 -0.80 0.35 -1.40 1 -1.40 1.40 0 0.95 0.85 0.90 1.40 -0.10z m11.10 0.20 c0 -0.35 0.15 -1.20 0.30 -1.90 0.25 -0.85 0.20 -1.10 -0.20 -0.75 -0.80 0.75 -1.30 3.25 -0.65 3.25 0.30 0 0.55 -0.30 0.55 -0.60z"/>
  <path d="M16.20 26.20 c-3 -3.20 -4.25 -5.45 -4.30 -7.50 -0.10 -4.10 -0.05 -4.20 1.85 -4.20 1.65 0 1.75 0.10 1.75 1.75 0 1.45 -0.20 1.75 -0.85 1.65 -0.60 -0.10 -0.95 0.20 -1.05 1 -0.10 0.60 0.05 1.10 0.35 1.10 0.30 0 0.55 0.75 0.55 1.65 0 1.20 0.30 1.75 1.25 2.20 0.90 0.40 1.25 0.40 1.25 0 0 -0.35 0.20 -0.35 0.60 0.05 0.35 0.35 1.30 0.55 2.15 0.55 1.50 -0.10 1.50 -0.10 -0.25 -0.40 -1.65 -0.30 -1.75 -0.45 -1.90 -2.40 l-0.15 -2.15 1.75 0 c1.60 0 1.80 -0.15 1.80 -1.25 0 -1.50 1.25 -1.70 1.65 -0.25 0.15 0.55 0.60 1 1.05 1 0.50 0 0.80 0.40 0.80 1.05 0 0.80 -0.20 0.95 -1 0.70 -0.80 -0.25 -1 -0.10 -1 0.70 0 1.05 0.95 1 2.40 -0.10 0.35 -0.25 1.10 -0.50 1.75 -0.55 0.60 -0.05 1.10 -0.35 1.10 -0.80 0 -0.50 -0.40 -0.70 -1.10 -0.60 -1 0.15 -1.15 -0.05 -1.15 -1.60 0 -1.60 0.15 -1.80 1.25 -1.80 0.95 0 1.15 0.20 0.90 0.90 -0.25 0.65 0 0.55 1 -0.35 1.45 -1.35 1.90 -3.85 0.60 -3.35 -0.50 0.20 -0.75 -0.05 -0.75 -0.70 0 -0.65 -0.35 -1 -1 -1 -0.80 0 -1 -0.35 -1 -1.60 l0 -1.65 2.65 0 c2.30 0 2.60 0.10 2.45 1 -0.05 0.55 -0.25 3.05 -0.40 5.50 -0.25 4.20 -0.40 4.60 -1.85 6.15 -1.75 1.80 -2.10 2 -6.85 4.50 -2.15 1.05 -3.35 1.45 -3.70 1.10 -0.80 -0.80 -1.50 -0.60 -0.80 0.25 0.35 0.45 0.50 0.90 0.35 1.10 -0.20 0.15 -1.15 -0.60 -2.15 -1.65z m7.50 -2 c1.15 -0.45 1 -1.15 -0.20 -0.85 -0.55 0.15 -1 0.45 -1 0.70 0 0.55 0.15 0.55 1.20 0.15z m6.65 -6 c-0.35 -0.35 -1.85 0.35 -1.85 0.85 0 0.30 0.45 0.25 1.05 -0.05 0.55 -0.35 0.95 -0.70 0.80 -0.80z"/>
  <path d="M23.50 17.75 c0 -0.40 0.25 -0.75 0.50 -0.75 0.30 0 0.50 0.35 0.50 0.75 0 0.40 -0.20 0.75 -0.50 0.75 -0.25 0 -0.50 -0.35 -0.50 -0.75z"/>
  <path d="M16.55 9.90 c-0.05 -1.65 0.10 -1.90 1.10 -1.90 1.50 0 2.35 0.90 2.35 2.45 l0 1.25 -1.45 -1.40 -1.45 -1.40 -0.25 1.40 c-0.15 1.25 -0.20 1.15 -0.30 -0.40z"/>
  <path d="M19.85 7.90 c0.10 -0.25 -0.15 -0.40 -0.55 -0.40 -0.60 0 -0.80 -0.50 -0.80 -1.75 0 -1.55 -0.15 -1.75 -1.25 -1.75 -0.80 0 -1.25 -0.30 -1.25 -0.75 0 -0.40 -0.20 -0.75 -0.45 -0.75 -0.20 0 -0.30 -0.55 -0.15 -1.30 0.35 -1.90 2.30 -1.50 2.50 0.55 0.20 1.90 2.40 4.25 3.95 4.25 1.45 0 4.15 1.35 4.15 2.05 0 0.25 -1.30 0.40 -3.20 0.35 -1.75 -0.10 -3.10 -0.30 -2.95 -0.50z"/>
 </g>
 <g fill="#766666">
  <path d="M16 38 c0 -0.25 0.40 -0.70 0.95 -0.95 0.55 -0.30 1.05 -1.30 1.25 -2.55 0.40 -2.65 1.80 -2.80 1.80 -0.20 0 1.80 -0.45 2.45 -2.40 3.60 -1.30 0.75 -1.60 0.75 -1.60 0.10z"/>
  <path d="M14 37.60 c0 -0.20 0.25 -0.65 0.55 -0.95 0.30 -0.30 0.40 -0.85 0.20 -1.15 -0.30 -0.45 -0.50 -0.45 -0.85 0.05 -0.35 0.50 -0.40 0.40 -0.15 -0.30 0.25 -0.55 0.50 -1.60 0.65 -2.35 0.20 -1.20 0.45 -1.40 1.90 -1.40 1.20 0 1.70 0.25 1.70 0.75 0 0.40 -0.30 0.75 -0.70 0.75 -0.40 0 -0.85 0.35 -1 0.80 -0.25 0.70 -0.20 0.75 0.40 0.25 0.65 -0.55 0.75 -0.40 0.65 0.80 -0.10 1.65 -3.35 4.30 -3.35 2.75z"/>
  <path d="M9.70 30.40 l-0.10 -2.90 1.70 0 1.70 0 0 2.95 0 2.95 -1.60 -0.05 -1.65 -0.05 -0.05 -2.90z"/>
  <path d="M16 23.55 c0 -1.30 -0.20 -1.50 -1.60 -1.65 -1.45 -0.15 -1.65 -0.35 -1.80 -1.75 -0.15 -1.60 -0.10 -1.65 1.60 -1.65 1.65 0 1.80 0.10 1.80 1.50 0 1.40 0.15 1.50 1.75 1.50 1.55 0 1.75 0.15 1.75 1.25 0 1.35 -0.85 1.60 -2 0.65 -0.40 -0.35 -0.30 -0.15 0.20 0.50 0.95 1.10 0.95 1.10 -0.35 1.10 -1.15 0 -1.35 -0.20 -1.35 -1.45z"/>
  <path d="M21.50 22.30 c0 -1.45 0.20 -1.80 1 -1.80 1.55 0 3.50 -1.10 3.50 -2 0 -0.60 0.45 -0.85 1.75 -0.90 0.95 -0.05 1.75 0.05 1.75 0.20 0 0.55 -1.30 1.55 -2 1.55 -1.05 0 -4.80 2.30 -4.10 2.55 0.30 0.10 1.10 -0.20 1.75 -0.60 0.65 -0.45 1.35 -0.65 1.50 -0.45 0.20 0.15 0.90 -0.20 1.60 -0.85 1.05 -1 1.25 -1.05 1.25 -0.30 0 1.60 -2.90 3.80 -4.80 3.70 -0.50 -0.05 -1.45 0.10 -2.05 0.30 -1.05 0.35 -1.15 0.20 -1.15 -1.40z"/>
  <path d="M24.30 13.25 c0.85 -0.65 0.85 -0.70 0.10 -0.75 -0.55 0 -0.90 -0.40 -0.90 -1 0 -0.80 0.35 -1 1.75 -1 1.65 0 1.75 0.10 1.75 1.75 0 1.70 -0.05 1.75 -1.85 1.75 -1.75 0 -1.80 -0.05 -0.85 -0.75z"/>
  <path d="M23.50 7.75 c0 -1.20 0.05 -1.25 1.60 -0.60 2.30 0.95 2.40 1.85 0.20 1.85 -1.60 0 -1.80 -0.15 -1.80 -1.25z"/>
  <path d="M34.50 7.75 c0 -0.35 0.70 -0.80 1.50 -1 1.05 -0.25 1.50 -0.65 1.50 -1.30 0 -0.50 0.35 -0.95 0.75 -0.95 0.80 0 1 1.35 0.30 2.40 -0.60 1 -4.05 1.70 -4.05 0.85z"/>
 </g>
 <g fill="#378785">
  <path d="M14.30 38.90 c-0.70 -1 -0.70 -1.20 0.05 -2 0.60 -0.65 1 -0.75 1.35 -0.40 0.40 0.40 0.30 0.70 -0.30 1.05 -1.10 0.60 -1.15 1.45 -0.15 1.45 0.40 0 0.75 -0.25 0.75 -0.55 0 -0.75 2.35 -2.95 2.70 -2.55 0.55 0.55 0.30 1.60 -0.40 1.60 -0.35 0 -1.10 0.55 -1.60 1.25 -1.15 1.55 -1.45 1.55 -2.40 0.15z"/>
  <path d="M3.10 36.90 c0.10 -1.15 0.50 -1.80 1.25 -2.15 0.60 -0.25 1.15 -0.90 1.25 -1.45 0.10 -0.60 0.65 -1.15 1.40 -1.30 1 -0.25 1.30 -0.65 1.40 -2.15 0.15 -1.80 0.20 -1.85 2.15 -1.85 l1.95 0 0 2.50 0 2.50 1.75 0 c1.20 0 1.75 0.25 1.75 0.75 0 0.40 0.25 0.75 0.50 0.75 0.30 0 0.50 0.45 0.50 1 0 1.40 -0.65 1.25 -2.45 -0.55 -1.10 -1.05 -2.10 -1.55 -3.20 -1.60 -1.55 -0.05 -1.60 -0.10 -1.50 -2.05 0.15 -2.05 0.15 -2.05 -0.40 -0.55 -0.75 2 -1.40 2.75 -2.75 3.30 -0.65 0.20 -1.35 0.85 -1.65 1.40 -0.45 0.80 -0.40 0.90 0.45 0.70 0.50 -0.15 1.30 -0.70 1.80 -1.20 1.70 -1.90 7.20 -0.85 6.40 1.20 -0.45 1.20 -1.70 1.05 -1.70 -0.15 0 -1.10 -0.75 -1.25 -3.45 -0.70 -1.05 0.25 -1.55 0.60 -1.55 1.25 0 1.05 -1.40 1.95 -3 1.95 -0.90 0 -1.05 -0.25 -0.90 -1.60z m8.25 -7.25 c-0.15 -0.50 -0.25 -0.10 -0.25 0.85 0 0.95 0.10 1.35 0.25 0.90 0.10 -0.50 0.10 -1.30 0 -1.75z"/>
  <path d="M12 25.50 c0 -0.80 0.20 -1.50 0.40 -1.50 0.25 0 1.05 0.70 1.85 1.50 0.80 0.85 1.20 1.50 0.90 1.50 -0.30 0 -0.70 -0.35 -0.85 -0.80 -0.15 -0.40 -0.50 -0.60 -0.80 -0.45 -0.30 0.20 -0.40 0.55 -0.25 0.80 0.20 0.25 -0.05 0.45 -0.45 0.45 -0.55 0 -0.80 -0.45 -0.80 -1.50z"/>
  <path d="M15.50 25.20 c-1.25 -1.25 -1.50 -1.70 -0.85 -1.70 0.45 0 0.85 -0.35 0.85 -0.75 0 -0.60 0.65 -0.75 2.75 -0.75 1.50 0 2.75 -0.20 2.75 -0.50 0 -0.25 -0.45 -0.50 -1 -0.50 -0.80 0 -1 -0.35 -1 -1.75 0 -1.65 0.10 -1.75 1.75 -1.75 1.60 0 1.75 0.10 1.75 1.50 0 0.85 0.25 1.50 0.50 1.50 0.30 0 0.50 -0.35 0.50 -0.75 0 -0.45 0.50 -0.75 1.15 -0.80 0.80 -0.05 0.90 -0.10 0.25 -0.30 -1.05 -0.25 -1.20 -2.15 -0.30 -3.05 0.90 -0.90 1.40 -0.75 1.45 0.55 0 1.05 0.05 1.05 0.45 0.10 1.15 -2.65 0.05 -3 -2.30 -0.70 l-1.55 1.50 -0.35 -1.25 c-0.15 -0.70 -0.65 -1.30 -1 -1.30 -0.40 0 -0.85 -0.30 -0.95 -0.60 -0.20 -0.50 -0.30 -0.50 -0.30 0 -0.05 0.30 -0.60 0.60 -1.30 0.60 -1.15 0 -1.25 -0.20 -1.25 -2.30 l0 -2.25 1.25 1.40 c0.75 0.85 1.15 1.05 0.95 0.55 -0.25 -0.70 -0.05 -0.90 1.05 -0.90 0.75 0 1.20 0.20 1 0.50 -0.15 0.30 0.15 0.50 0.70 0.50 0.60 0 1.05 -0.20 1.05 -0.50 0 -0.25 0.55 -0.50 1.25 -0.50 1.05 0 1.25 -0.25 1.25 -1.50 0 -1.40 0.10 -1.45 1.55 -1.15 1.10 0.20 1.90 0 2.95 -0.80 2.60 -1.90 3.20 -1.35 1.55 1.30 -1.10 1.70 -1.30 2.50 -0.90 2.75 0.35 0.25 0.40 0.40 0.05 0.40 -0.30 0 -0.45 1.10 -0.35 2.75 0.10 2.55 0 2.85 -1.10 3.35 -0.70 0.30 -1.25 0.75 -1.25 1 0 0.25 -0.20 0.30 -0.50 0.15 -0.60 -0.35 -5 2.15 -5 2.85 0 0.25 0.80 0 1.75 -0.60 1.20 -0.75 1.75 -0.85 1.75 -0.45 0 0.35 0.60 0.10 1.40 -0.65 1.45 -1.35 3.10 -2.15 3.10 -1.50 0 1.15 -5.75 5.40 -6.20 4.65 -0.50 -0.80 -2.15 0 -3.30 1.55 -0.90 1.25 -1.35 1.45 -2.50 1.20 -0.80 -0.15 -1.50 -0.05 -1.60 0.20 -0.10 0.20 -0.95 -0.35 -1.90 -1.30z m5.10 -0.95 c-0.10 -0.25 -0.70 -0.45 -1.35 -0.35 -0.70 0.10 -1.25 -0.05 -1.25 -0.35 0 -0.30 -0.25 -0.55 -0.60 -0.55 -0.30 0 -0.15 0.45 0.35 1 0.95 1.05 3.15 1.20 2.85 0.25z m9.45 -9.70 c0.60 -1.50 0.40 -1.70 -1.30 -1.25 -0.95 0.25 -1.15 0.45 -0.70 0.75 0.55 0.30 0.50 0.75 -0.25 2.30 l-0.90 1.90 1.35 -1.25 c0.75 -0.70 1.55 -1.80 1.80 -2.45z m-4.80 -2.05 c0.20 -0.30 -0.10 -0.35 -0.80 -0.05 -0.65 0.20 -1.25 0.70 -1.35 1 -0.15 0.50 0 0.50 0.80 0.10 0.60 -0.30 1.20 -0.80 1.35 -1.05z"/>
  <path d="M15 12.25 c0 -1.90 0.15 -2.25 0.95 -2.25 0.80 0 0.95 0.35 0.95 2.25 0 1.90 -0.15 2.25 -0.95 2.25 -0.80 0 -0.95 -0.35 -0.95 -2.25z"/>
  <path d="M16.50 7.25 c0 -1.20 0.25 -1.75 0.75 -1.75 0.45 0 0.75 -0.45 0.75 -1.10 0.05 -1.10 0.05 -1.10 1.25 0.25 0.65 0.75 1.45 1.35 1.75 1.35 0.25 0 0.50 0.25 0.50 0.50 0 0.30 -0.30 0.50 -0.70 0.50 -0.35 0 -0.80 0.45 -0.95 1 -0.20 0.75 -0.70 1 -1.80 1 -1.45 0 -1.55 -0.15 -1.55 -1.75z"/>
 </g>
 <g fill="#71538f">
  <path d="M22 19.50 c0 -0.25 -0.80 -0.50 -1.75 -0.50 -1.15 0 -1.75 -0.25 -1.75 -0.70 0 -0.40 -0.55 -0.85 -1.25 -1 -1.20 -0.30 -1.25 -0.45 -1.25 -4.55 l0 -4.25 1.50 0 c2.25 0 3.95 2.15 4 4.90 0 1.15 0.25 2.10 0.50 2.10 0.30 0 0.50 -0.20 0.50 -0.45 0 -1 3.40 -2.55 5.55 -2.50 2.15 0.05 2.15 0.05 0.75 0.55 -1 0.40 -1.25 0.65 -0.75 0.95 0.55 0.30 0.50 0.75 -0.20 2.20 -0.90 1.85 -0.55 1.95 1.30 0.35 1.20 -1.05 1.10 0.15 -0.10 1.35 -0.55 0.55 -0.85 1.10 -0.70 1.20 0.15 0.15 -0.20 0.15 -0.75 0 -0.55 -0.10 -1.15 0 -1.30 0.30 -0.45 0.70 -4.30 0.75 -4.30 0.05z m2.90 -0.85 c-0.80 -0.10 -1.40 -0.45 -1.40 -0.70 0 -1.05 1.05 -2.45 2.40 -3.15 0.85 -0.50 1.05 -0.75 0.55 -0.80 -1.10 0 -3.95 2.95 -3.95 4.10 0 0.70 0.35 0.90 1.90 0.85 1.50 -0.10 1.60 -0.15 0.50 -0.30z m-4.60 -3.45 c0.05 -1.20 0 -1.45 -0.15 -0.55 -0.20 1.40 -0.50 1.55 -1.85 1.05 -0.60 -0.25 -0.80 -1 -0.80 -3 l0 -2.70 1.55 1.60 1.55 1.65 -1.15 -1.75 c-1.65 -2.55 -2.15 -2.70 -2.55 -0.85 -0.45 2.20 0.05 4.35 1.25 5.75 1.40 1.50 2.10 1.15 2.15 -1.20z"/>
 </g>
 <g fill="#b75458">
  <path d="M14.30 37.60 c-0.15 -0.30 -0.05 -0.70 0.25 -0.85 0.75 -0.50 1.25 0.15 0.60 0.80 -0.35 0.35 -0.65 0.35 -0.85 0.05z"/>
  <path d="M17.15 37.10 c0.40 -0.45 0.85 -1.20 1 -1.60 0.15 -0.45 0.30 -0.20 0.30 0.55 0.05 0.95 -0.25 1.40 -1 1.60 -0.95 0.25 -0.95 0.20 -0.30 -0.55z"/>
  <path d="M15 35.25 c-0.95 -1 -1.05 -1.35 -0.50 -2 0.35 -0.40 1.30 -0.70 2.20 -0.70 1.15 0.05 1.25 0.15 0.45 0.30 -0.65 0.10 -1.15 0.55 -1.15 1 0 0.60 0.15 0.65 0.65 0.20 0.55 -0.40 0.65 -0.25 0.45 0.95 -0.25 1.80 -0.60 1.85 -2.10 0.25z"/>
  <path d="M11.50 30 c0 -0.65 -0.25 -0.90 -0.75 -0.70 -0.55 0.25 -0.75 -0.05 -0.75 -1 0 -1.15 0.20 -1.30 1.75 -1.30 1.70 0 1.75 0.05 1.75 2 0 1.65 -0.15 2 -1 2 -0.65 0 -1 -0.35 -1 -1z"/>
  <path d="M23.50 22.60 c0 -0.20 0.70 -0.80 1.50 -1.25 1.40 -0.85 1.50 -0.85 1.50 -0.05 0 0.65 0.15 0.70 0.75 0.20 0.90 -0.75 1 0.05 0.15 0.90 -0.65 0.65 -1.45 0.80 -1.35 0.25 0.20 -1.10 -0.15 -1.20 -1.30 -0.45 -0.70 0.45 -1.25 0.65 -1.25 0.40z"/>
  <path d="M23.50 20.30 c0 -0.75 1.05 -1.30 2.40 -1.30 0.65 0 0.55 0.25 -0.40 1 -1.50 1.15 -2 1.25 -2 0.30z"/>
  <path d="M12.65 19.25 c-0.35 -0.40 -0.65 -1.40 -0.65 -2.25 0 -1.35 0.15 -1.50 1.55 -1.50 1.95 0 2.95 1 2.95 2.95 0 1.55 -1.15 2.20 -1.65 0.95 -0.20 -0.50 -0.30 -0.50 -0.30 0 -0.05 0.80 -1.15 0.75 -1.90 -0.15z"/>
  <path d="M21 14.95 c0 -0.30 -0.35 -1.30 -0.80 -2.20 -1.20 -2.55 -0.80 -3.95 1.15 -4.15 1.20 -0.10 1.70 0.10 2.15 0.85 0.30 0.60 0.85 1.05 1.25 1.05 1.25 0 0.85 1.50 -0.50 2 -0.70 0.25 -1.25 0.70 -1.25 1 0 0.65 0.65 0.65 1.40 -0.10 1 -1 1.30 0.05 0.35 1.10 -0.95 1.05 -3.75 1.40 -3.75 0.45z"/>
 </g>
 <g fill="#6a7b80">
  <path d="M2 38.50 c0 -1.30 0.20 -1.50 1.40 -1.50 0.80 0 2.10 -0.60 3.10 -1.50 1.85 -1.55 4.95 -2 6.50 -1 0.55 0.35 0.25 0.50 -1.10 0.50 -1.05 0 -1.90 0.20 -1.90 0.40 0 0.25 -0.95 0.85 -2.10 1.35 -2.35 1 -3.40 1.85 -3.40 2.70 0 0.30 -0.55 0.55 -1.25 0.55 -1.05 0 -1.25 -0.25 -1.25 -1.50z"/>
  <path d="M10.30 39.55 c-0.15 -0.25 0.15 -0.55 0.70 -0.70 0.65 -0.15 1 0 1 0.45 0 0.75 -1.30 0.95 -1.70 0.25z"/>
  <path d="M8.50 38.30 c0 -0.55 0.40 -0.80 1.40 -0.75 0.75 0 1.05 0.15 0.60 0.30 -0.40 0.15 -1.05 0.50 -1.35 0.80 -0.45 0.35 -0.65 0.25 -0.65 -0.35z"/>
  <path d="M14.60 34.90 c-0.75 -0.75 -0.80 -1.90 -0.10 -1.90 0.30 0 0.50 -0.55 0.50 -1.20 0 -0.90 0.35 -1.25 1.55 -1.50 3.15 -0.60 3.45 -0.45 3.45 1.70 0 1.10 -0.20 2 -0.50 2 -0.25 0 -0.50 0.35 -0.50 0.75 0 0.40 -0.20 0.75 -0.40 0.75 -0.25 0 -0.35 -0.65 -0.20 -1.45 0.20 -1.30 0.10 -1.40 -1.10 -1.20 -0.85 0.20 -1.30 0.60 -1.30 1.20 0 1.15 -0.70 1.55 -1.40 0.85z"/>
  <path d="M5.10 33.25 c1.10 -1.70 1.90 -2.25 1.90 -1.30 0 0.25 0.40 0.55 0.85 0.65 0.65 0.10 0.40 0.45 -1 1.30 -2.65 1.55 -3.05 1.40 -1.75 -0.65z"/>
  <path d="M10.90 33.15 c-1.25 -0.30 -1.10 -1 0.25 -1.35 1.85 -0.50 2.35 -0.35 2.35 0.70 0 1 -0.70 1.15 -2.60 0.65z"/>
  <path d="M16.50 23.75 c0 -1.65 0.10 -1.75 1.75 -1.75 1.40 0 1.75 0.20 1.75 1 0 1.10 -1.75 1.45 -2.15 0.40 -0.10 -0.35 -0.40 -0.50 -0.60 -0.30 -0.20 0.20 0 0.70 0.45 1.15 1.05 1.05 1 1.25 -0.20 1.25 -0.80 0 -1 -0.35 -1 -1.75z"/>
  <path d="M22 22.05 c0 -1.20 0.25 -1.45 1.55 -1.65 l1.50 -0.25 -1.40 1.20 c-1.35 1.15 -1.20 1.20 1.10 0.40 0.55 -0.20 0.35 0.10 -0.50 0.70 -1.95 1.35 -2.25 1.35 -2.25 -0.40z"/>
  <path d="M26.15 21.90 c-0.05 -0.75 0.05 -0.90 0.30 -0.50 0.25 0.45 0.70 0.30 1.55 -0.65 1.25 -1.30 2 -1.60 2 -0.75 0 0.30 -0.40 0.70 -0.85 0.85 -0.50 0.20 -1.20 0.75 -1.55 1.25 -0.90 1.20 -1.35 1.15 -1.45 -0.20z"/>
  <path d="M12.65 21.55 c-0.40 -0.60 -0.50 -1.90 -0.30 -3.50 0.30 -2.50 0.30 -2.55 1.95 -2.55 l1.70 0 0 3.50 c0 3.50 0 3.50 -1.40 3.50 -0.80 0 -1.60 -0.40 -1.95 -0.95z"/>
  <path d="M17.40 18.95 c-0.60 -0.35 -0.90 -1.10 -0.90 -2.30 l0 -1.85 1.40 1.35 c1.55 1.50 2.60 1.75 2.60 0.60 0 -0.40 0.25 -0.75 0.50 -0.75 0.30 0 0.50 0.75 0.50 1.65 0 1.50 -0.15 1.65 -1.60 1.75 -0.90 0.05 -2.05 -0.15 -2.50 -0.45z"/>
  <path d="M27.40 19.15 c-1.85 -0.45 -0.50 -1.65 1.75 -1.65 1.10 0.05 1.10 0.05 -0.05 0.65 -0.60 0.35 -0.95 0.80 -0.80 1 0.20 0.20 0.25 0.30 0.15 0.30 -0.10 -0.05 -0.60 -0.15 -1.05 -0.30z"/>
  <path d="M20.50 14.25 c0 -0.40 0 -0.85 0 -1 0 -0.15 -0.40 -0.85 -0.95 -1.60 -0.55 -0.85 -0.80 -1.75 -0.60 -2.30 0.30 -0.90 0.35 -0.90 1.10 0 1.65 2 2.50 3.75 2.20 4.65 -0.35 1.15 -1.75 1.35 -1.75 0.25z"/>
  <path d="M25.50 13 c0 -0.80 0.35 -1 1.75 -1 1.95 0 2.30 0.70 0.80 1.50 -1.55 0.80 -2.55 0.60 -2.55 -0.50z"/>
  <path d="M21.35 10.25 l-1.40 -1.75 1.20 0 c0.80 0 1.40 0.45 1.75 1.25 1.25 2.75 0.45 3 -1.55 0.50z"/>
  <path d="M27.50 10.75 c0 -0.40 0.30 -0.75 0.70 -0.75 0.40 0 0.80 0.35 1 0.75 0.20 0.50 -0.05 0.75 -0.70 0.75 -0.55 0 -1 -0.35 -1 -0.75z"/>
  <path d="M28.40 9.60 c-1 -0.20 -1.20 -1.10 -0.25 -1.10 0.30 0 1.10 -0.15 1.75 -0.30 0.85 -0.25 1.10 -0.10 1.10 0.65 0 0.90 -0.70 1.15 -2.60 0.75z"/>
  <path d="M20.50 7 c0 -0.75 0.25 -0.95 1.15 -0.80 0.60 0.15 1.40 0.25 1.75 0.25 0.30 0.05 0.60 0.40 0.60 0.80 0 0.50 -0.55 0.75 -1.75 0.75 -1.40 0 -1.75 -0.20 -1.75 -1z"/>
  <path d="M15 3.25 c0 -1.40 1.20 -3.25 2.10 -3.25 0.70 0 0.90 0.35 0.80 1.65 -0.05 0.85 -0.35 1.75 -0.65 1.95 -0.85 0.65 -2.25 0.45 -2.25 -0.35z"/>
 </g>
 <g fill="#509092">
  <path d="M1.50 38.90 c0 -0.60 0.85 -2.10 1.90 -3.35 1.05 -1.25 2.65 -3.50 3.60 -4.90 1.55 -2.45 2.50 -3.30 2.50 -2.20 0 0.25 0.40 0.60 0.90 0.70 0.75 0.20 0.75 0.25 0 0.30 -0.50 0.05 -0.95 0.65 -1.15 1.60 -0.25 1.05 -0.90 1.90 -2.05 2.55 -1.50 0.90 -2.70 2.25 -2.70 3.10 0 0.40 2.85 -1.20 3.50 -1.95 1.40 -1.70 6.40 -0.40 5.70 1.50 -0.40 0.95 -1.70 1.35 -1.70 0.50 0 -0.35 -0.20 -0.80 -0.45 -0.95 -1 -0.65 -7.05 2.45 -7.05 3.60 0 0.35 -0.65 0.60 -1.50 0.60 -1.20 0 -1.50 -0.20 -1.50 -1.10z"/>
  <path d="M6.50 39.60 c0 -1.05 2.45 -2.65 3.80 -2.50 l1.45 0.15 -1.85 0.95 c-1.05 0.50 -1.90 1.10 -1.90 1.35 0 0.25 -0.35 0.45 -0.75 0.45 -0.40 0 -0.75 -0.20 -0.75 -0.40z"/>
  <path d="M10.50 39.55 c0 -0.25 0.50 -0.65 1.15 -0.80 0.60 -0.20 1.60 -0.85 2.20 -1.40 1.15 -1.05 2.30 -0.80 1.25 0.25 -0.80 0.80 -0.75 1.40 0.05 1.35 1.10 -0.05 2.85 -2.80 3.30 -5.30 0.40 -2 0.35 -2.25 -0.15 -1.50 -0.90 1.15 -2.30 1.10 -2.30 -0.15 0 -0.80 0.35 -1 1.70 -1 1.65 0 1.65 0.05 2 2.65 0.50 4.45 0.40 6.35 -0.45 6.35 -0.55 0 -0.70 -0.35 -0.45 -1.25 0.25 -1 0.10 -1.25 -0.65 -1.25 -0.55 0 -1.30 0.55 -1.65 1.25 -0.60 1.10 -1 1.25 -3.35 1.25 -1.45 0 -2.65 -0.20 -2.65 -0.45z"/>
  <path d="M14.25 34.50 c-0.50 -0.55 -1.65 -1.10 -2.55 -1.30 -1.70 -0.30 -2.40 -1.20 -0.95 -1.20 0.40 0 0.75 -0.40 0.80 -0.85 0 -0.55 0.15 -0.65 0.30 -0.25 0.10 0.30 0.65 0.60 1.20 0.60 0.50 0 0.95 0.35 0.95 0.75 0 0.40 0.20 0.75 0.45 0.75 0.50 0 1.30 1.95 0.95 2.30 -0.15 0.10 -0.65 -0.25 -1.15 -0.80z"/>
  <path d="M16 30.05 c0 -0.25 -0.95 -0.70 -2.10 -0.90 -2.15 -0.45 -2.15 -0.45 -2.30 -2.85 -0.15 -2.05 -0.05 -2.35 0.75 -2.20 0.55 0.10 0.90 0.60 0.90 1.35 0 0.70 0.35 1.35 0.70 1.45 0.50 0.15 0.60 0 0.35 -0.70 -0.25 -0.60 0.25 -0.35 1.35 0.70 1.20 1.15 2.10 1.65 2.90 1.50 0.90 -0.10 1.20 0.10 1.20 0.85 0 0.80 -0.40 1.05 -1.85 1.15 -1.05 0.10 -1.90 -0.05 -1.90 -0.35z"/>
  <path d="M15.20 24.95 c-1.80 -1.90 -1.85 -2.05 -0.70 -1.75 0.70 0.15 1.50 0.30 1.80 0.30 0.30 0 1.30 0.70 2.15 1.55 1.40 1.30 1.45 1.50 0.55 1.20 -0.65 -0.20 -1.25 -0.15 -1.45 0.20 -0.20 0.35 -1.10 -0.25 -2.35 -1.50z"/>
  <path d="M21.50 23.65 c0 -0.20 -0.85 -0.40 -1.85 -0.40 -1.75 0 -1.90 -0.10 -2.05 -1.60 -0.10 -0.95 0.05 -1.65 0.35 -1.65 0.30 0 0.55 -0.60 0.55 -1.30 0 -1 0.20 -1.25 0.80 -1 0.55 0.20 0.90 -0.05 1.05 -0.70 0.40 -1.55 1.65 -1.20 1.65 0.45 0 2.15 0.50 3.05 1.60 3.05 0.95 0 0.95 0.05 -0.15 1 -0.90 0.70 -1 0.95 -0.40 1 0.40 0 1 -0.25 1.35 -0.60 0.30 -0.30 0.70 -0.45 0.85 -0.35 0.15 0.15 -0.65 0.80 -1.75 1.40 -1.10 0.60 -2 0.95 -2 0.70z m-0.75 -2.15 c-0.15 -0.25 -0.65 -0.50 -1.05 -0.50 -0.40 0 -0.60 0.25 -0.45 0.50 0.15 0.30 0.65 0.50 1.05 0.50 0.40 0 0.60 -0.20 0.45 -0.50z"/>
  <path d="M28.20 20.70 c1.35 -1.20 2.55 -2.10 2.75 -1.95 0.35 0.40 -3.95 4.20 -4.70 4.20 -0.25 0 0.60 -1 1.95 -2.25z"/>
  <path d="M25 19.60 c0 -0.25 0.85 -0.90 1.90 -1.50 2.35 -1.30 3.45 -2.50 3.75 -4.10 0.10 -0.70 0.20 -0.15 0.20 1.15 0 2.15 -0.15 2.50 -1.30 2.90 -0.70 0.30 -1.95 0.85 -2.75 1.25 -1.70 0.80 -1.80 0.85 -1.80 0.30z"/>
  <path d="M24.65 13.30 c1.05 -0.80 1.10 -1.35 0.10 -1 -0.50 0.20 -0.75 0 -0.75 -0.75 0 -0.60 0.30 -1.05 0.75 -1.05 0.45 0 0.75 -0.45 0.75 -1.20 0 -1.05 0.20 -1.15 2.15 -1.15 1.15 0 2.70 -0.20 3.50 -0.40 1.25 -0.35 1.35 -0.30 0.90 0.80 -0.35 1.05 -0.70 1.20 -2.60 1.10 -1.20 -0.10 -1.85 0 -1.45 0.20 0.40 0.15 0.95 0.60 1.15 0.95 0.20 0.40 0.90 0.70 1.45 0.70 1.05 0 1.05 0 0.10 0.75 -0.50 0.40 -1.45 0.75 -2.05 0.75 -0.60 0 -1.25 0.25 -1.40 0.50 -0.15 0.30 -1.05 0.50 -1.90 0.50 -1.45 -0.05 -1.50 -0.10 -0.70 -0.70z"/>
  <path d="M15 11.25 c0 -0.95 0.25 -1.75 0.50 -1.75 0.30 0 0.50 -0.35 0.50 -0.80 0 -0.40 0.35 -1.10 0.75 -1.50 0.40 -0.45 0.75 -1.55 0.75 -2.50 0 -1.20 -0.25 -1.70 -0.75 -1.70 -0.50 0 -0.75 -0.50 -0.75 -1.50 0 -1.20 0.20 -1.50 1.05 -1.50 0.85 0 1 0.20 0.75 1.10 -0.40 1.60 1.90 4.75 3.75 5.15 1.35 0.30 2.10 1.75 0.95 1.75 -0.25 0 -0.50 0.60 -0.50 1.35 l0 1.35 -2.10 -1.95 -2.10 -2 1.60 1.90 c0.90 1.05 1.60 2.10 1.60 2.35 0 1.10 -1 0.85 -2.30 -0.65 l-1.40 -1.60 -0.45 2.15 c-0.50 2.65 -1.85 2.90 -1.85 0.35z"/>
  <path d="M37.15 5 c-0.05 -1.45 0.15 -2 0.65 -2 0.95 0 1.40 1.20 1 2.75 -0.50 2 -1.55 1.50 -1.65 -0.75z"/>
 </g>
 <g fill="#aa6769">
  <path d="M2.50 38.95 c0 -0.55 0.35 -1.35 0.75 -1.75 0.40 -0.45 0.75 -0.55 0.75 -0.25 0 0.25 -0.20 0.65 -0.50 0.80 -0.25 0.15 -0.50 0.60 -0.50 1 0 0.40 1.30 -0.55 2.85 -2.05 2.85 -2.70 4.90 -3.55 4.55 -1.80 -0.10 0.45 -0.50 0.85 -0.90 0.85 -0.40 0 -1.30 0.50 -2 1.15 -0.70 0.60 -1.65 1.25 -2.10 1.40 -0.50 0.15 -0.90 0.60 -0.90 1 0 0.40 -0.45 0.70 -1 0.70 -0.70 0 -1 -0.35 -1 -1.05z"/>
  <path d="M18 36.80 c0.25 -0.35 0.40 -0.75 0.30 -0.85 -0.10 -0.10 -0.05 -1.15 0.20 -2.35 0.35 -2 0.30 -2.10 -0.50 -1.35 -0.45 0.40 -1.10 0.75 -1.40 0.75 -0.35 0 -0.60 0.35 -0.60 0.75 0 0.40 -0.20 0.75 -0.50 0.75 -0.25 0 -0.50 -0.65 -0.50 -1.50 0 -1 -0.25 -1.50 -0.75 -1.50 -0.40 0 -0.75 0.35 -0.75 0.75 0 0.55 -0.55 0.75 -1.85 0.75 -1.60 -0.05 -1.75 -0.15 -1.10 -0.65 0.45 -0.35 0.95 -1.40 1.15 -2.35 0.25 -1.35 0.20 -1.60 -0.30 -1.10 -1.10 1.10 -2 0.70 -1.80 -0.75 0.20 -1.65 1.65 -2.05 3.90 -1.05 1.25 0.50 1.50 0.95 1.50 2.30 l0 1.65 2.50 -0.35 2.50 -0.35 0 3.45 c0 3.35 -0.05 3.45 -1.25 3.50 -0.95 0.10 -1.15 -0.05 -0.75 -0.50z"/>
  <path d="M12.50 20.65 c0 -0.50 -0.15 -2.10 -0.30 -3.50 l-0.35 -2.65 1.60 0 c1.20 0 1.55 0.20 1.55 0.95 0 0.50 0.35 1.05 0.75 1.25 0.75 0.25 1 2.55 0.45 4 -0.45 1.15 -3.70 1.10 -3.70 -0.05z m2.50 -0.75 c0 -0.95 -0.10 -1 -0.50 -0.40 -0.65 0.95 -0.65 1.50 0 1.50 0.30 0 0.50 -0.50 0.50 -1.10z m-0.60 -2.70 c-0.35 -0.75 -0.70 -1.05 -0.80 -0.75 -0.10 0.35 0.10 0.90 0.40 1.30 0.90 1.10 1.05 0.90 0.40 -0.55z"/>
  <path d="M23 20.85 c0 -0.40 0.60 -0.90 1.30 -1.05 1.85 -0.50 1.90 -0.15 0.20 0.90 -1.25 0.70 -1.50 0.75 -1.50 0.15z"/>
  <path d="M20.85 15.65 c-0.20 -0.15 -0.35 -1.45 -0.30 -2.85 0 -2.20 0.10 -2.40 0.55 -1.40 0.30 0.60 0.75 1.10 1 1.10 0.20 0 0.40 0.35 0.40 0.75 0 1.05 1 0.90 2.50 -0.25 1.10 -0.90 1.15 -1 0.25 -0.90 -2 0.15 -2.65 -0.10 -3.50 -1.40 l-0.85 -1.30 1.75 0.20 c1.65 0.20 1.80 0.10 1.95 -1.20 0.15 -1.35 0.20 -1.40 1.60 -0.65 2.30 1.20 3.20 0.90 6.25 -2 2.85 -2.70 4.55 -3.45 4.55 -2 0 0.40 -0.30 0.75 -0.70 0.75 -0.35 0 -1.65 1.05 -2.85 2.40 -1.20 1.30 -2.40 2.40 -2.70 2.40 -0.25 0.05 -1.30 0.15 -2.25 0.20 -1.25 0.10 -1.45 0.20 -0.60 0.35 0.90 0.20 1.05 0.45 0.75 1.55 -0.35 1.55 -0.90 2 -2.75 2.40 -0.75 0.20 -1.50 0.75 -1.65 1.25 -0.30 0.95 -2.65 1.35 -3.40 0.60z"/>
  <path d="M33.50 8.80 c0 -0.90 0.90 -1.60 2.65 -2 0.75 -0.15 1.35 -0.55 1.35 -0.80 0 -0.30 0.35 -0.50 0.75 -0.50 0.45 0 0.60 0.30 0.40 0.90 -0.45 1.15 -1.15 1.60 -2.55 1.60 -0.60 0 -1.25 0.35 -1.40 0.75 -0.40 0.95 -1.20 1 -1.20 0.05z"/>
  <path d="M15 3.90 c0 -1.50 0.65 -2.90 1.30 -2.90 0.40 0 0.70 -0.20 0.70 -0.50 0 -0.25 0.20 -0.50 0.40 -0.50 0.20 0 0.40 0.75 0.40 1.70 0 0.95 -0.20 1.60 -0.40 1.50 -0.20 -0.15 -0.40 0.10 -0.40 0.50 0 0.45 -0.45 0.80 -1 0.80 -0.55 0 -1 -0.30 -1 -0.60z"/>
  <path d="M21 1.70 c0 -0.85 0.90 -1.80 1.50 -1.60 0.35 0.10 0.20 0.50 -0.45 1.10 -0.60 0.55 -1.05 0.75 -1.05 0.50z"/>
 </g>
 <g fill="#3ea79f">
  <path d="M13 38.65 c0 -0.65 1.45 -1.90 1.75 -1.55 0.15 0.15 -0.20 0.65 -0.75 1.15 -0.55 0.50 -1 0.65 -1 0.40z"/>
  <path d="M12.50 35.50 c-0.40 -0.55 -0.85 -0.75 -1 -0.50 -0.55 0.90 -2.60 0.80 -2.75 -0.10 -0.15 -0.75 0.20 -0.90 1.75 -0.90 1.85 0 3.25 0.95 2.90 2 -0.10 0.30 -0.50 0.10 -0.90 -0.50z"/>
  <path d="M13.85 34.20 c-0.75 -0.65 -2 -1.20 -2.75 -1.20 l-1.35 0 1.10 -0.90 c0.55 -0.45 1.15 -1.30 1.30 -1.85 0.20 -0.75 0.25 -0.65 0.30 0.40 0.05 1.15 0.25 1.35 1.45 1.35 2.15 0 2.60 0.50 1.95 2.10 l-0.60 1.35 -1.40 -1.25z"/>
  <path d="M18.90 32.40 c0.25 -1.10 0.25 -1.15 -0.75 -0.25 -0.95 0.80 -1.05 0.80 -1.35 0.10 -0.65 -1.75 -0.35 -2.25 1.45 -2.25 1.65 0 1.75 0.10 1.75 1.75 0 1.15 -0.25 1.75 -0.70 1.75 -0.50 0 -0.60 -0.35 -0.40 -1.10z"/>
  <path d="M8.55 29.90 l-0.05 -2.40 2 0 c1.10 0 2 0.25 2 0.55 0 0.25 -0.25 0.35 -0.50 0.20 -0.30 -0.15 -0.65 0.05 -0.80 0.45 -0.15 0.45 -0.60 0.80 -0.95 0.80 -0.35 0 -0.90 0.60 -1.15 1.40 -0.50 1.25 -0.50 1.15 -0.55 -1z"/>
  <path d="M16.10 25.40 c-0.35 -0.35 -0.60 -0.90 -0.60 -1.20 0 -1.20 1.05 -1.30 2.05 -0.15 0.75 0.85 0.85 1.20 0.35 1.55 -0.85 0.50 -1.10 0.50 -1.80 -0.20z"/>
  <path d="M18.20 23.40 c-0.25 -0.35 0 -0.45 0.70 -0.30 0.75 0.20 1.10 0.10 1.10 -0.40 0 -0.40 0.25 -0.70 0.50 -0.70 1 0 0.45 -0.90 -0.75 -1.20 -1 -0.25 -1.25 -0.65 -1.25 -1.85 0 -1.30 0.15 -1.45 1 -1.20 0.90 0.30 1 0.10 1 -2.35 0 -2.05 -0.30 -3.10 -1.30 -4.55 -0.85 -1.25 -1.55 -1.80 -2 -1.65 -0.60 0.25 -0.75 -0.10 -0.60 -1.60 0.15 -1.60 0.35 -1.85 1.50 -2 2.05 -0.25 3.40 0.70 3.40 2.35 0 0.80 0.35 1.55 0.75 1.75 0.55 0.20 0.75 -0.10 0.75 -1 0 -1.50 1.05 -2 2.60 -1.15 0.65 0.35 2.05 0.80 3.15 1 l2 0.30 -1.85 0.10 c-1.90 0.05 -2.75 1.05 -0.90 1.05 0.55 0 1 0.35 1 0.75 0 0.40 0.25 0.75 0.50 0.75 0.30 0 0.50 0.30 0.50 0.70 0 0.35 -1 0.95 -2.25 1.30 -2.45 0.70 -5.25 3.15 -5.25 4.60 0 1.50 3 1.15 5.40 -0.60 1.90 -1.35 2.10 -1.40 2.10 -0.55 0 0.60 -0.55 1.15 -1.50 1.45 -2.55 0.90 -6 3.55 -5.70 4.35 0.20 0.40 0.10 0.75 -0.10 0.80 -0.25 0 -1.30 0.10 -2.30 0.20 -1.05 0.10 -2 -0.05 -2.20 -0.35z m7.95 -11.45 c1.10 -1.15 0.70 -1.20 -0.90 -0.15 -1.20 0.80 -1.30 0.75 -4.25 -2.10 -3.10 -2.95 -4.05 -3.45 -1.65 -0.90 0.70 0.75 1.75 2.40 2.25 3.60 l1 2.15 1.30 -0.85 c0.75 -0.45 1.75 -1.25 2.25 -1.75z"/>
 </g>
 <g fill="#5e9e9f">
  <path d="M1 39.20 c0 -0.70 2 -3.40 6 -8.15 0.55 -0.65 1 -1.45 1 -1.80 0 -0.30 0.65 -1.60 1.50 -2.90 1.80 -2.90 3.35 -3.20 3.60 -0.70 0.10 1.20 0.40 1.60 1.15 1.60 0.55 0 1.55 0.35 2.25 0.75 0.70 0.40 1.75 0.65 2.40 0.55 0.80 -0.10 1.10 0.15 1.10 0.90 0 0.75 -0.35 1.05 -1.10 1.10 -0.65 0 -0.90 0.15 -0.55 0.25 0.40 0.20 0.35 0.55 -0.25 1.20 -0.55 0.65 -0.90 0.80 -1.15 0.40 -0.20 -0.30 -0.45 -0.10 -0.70 0.55 -0.15 0.55 -0.65 1.05 -1.05 1.05 -0.90 0 -0.95 -3.30 -0.05 -3.65 0.30 -0.15 -0.15 -0.50 -1 -0.85 -1.35 -0.50 -1.65 -0.85 -1.65 -2.05 0 -0.95 -0.25 -1.45 -0.75 -1.45 -0.50 0 -0.75 0.50 -0.75 1.45 0 0.80 -0.30 1.55 -0.70 1.70 -0.40 0.15 -0.95 1.05 -1.30 2.05 -0.35 1.10 -1.05 1.95 -1.90 2.35 -1.30 0.55 -4.10 4.40 -4.10 5.60 0 0.30 0.60 -0.10 1.40 -0.95 1.60 -1.80 3.90 -3.70 3.40 -2.80 -0.20 0.35 -0.10 0.60 0.30 0.60 0.35 0 -0.40 0.70 -1.70 1.50 -1.35 0.85 -2.40 1.75 -2.40 2 0 0.30 -0.65 0.50 -1.50 0.50 -1.05 0 -1.50 -0.25 -1.50 -0.80z"/>
  <path d="M6.50 39.70 c0 -0.85 1.60 -2.10 3.15 -2.45 1.95 -0.50 1.70 0.05 -0.50 1.10 -1.05 0.45 -2.05 1.10 -2.25 1.35 -0.25 0.40 -0.40 0.40 -0.40 0z"/>
  <path d="M10.50 39.50 c0 -0.25 0.40 -0.50 0.85 -0.50 0.45 0 1.35 -0.50 2 -1.10 1.40 -1.30 1.50 -0.60 0.20 1 -0.95 1.10 -3.05 1.55 -3.05 0.60z"/>
  <path d="M19.20 38.45 c0.25 -1.40 0.20 -1.50 -0.85 -1.15 -1 0.30 -1.05 0.25 -0.35 -0.55 0.40 -0.45 0.70 -1.55 0.65 -2.40 -0.05 -0.90 0.05 -1.20 0.20 -0.70 0.10 0.45 0.45 0.85 0.70 0.85 0.25 0 0.45 1.25 0.45 2.75 0 1.70 -0.20 2.75 -0.55 2.75 -0.35 0 -0.45 -0.55 -0.25 -1.55z"/>
  <path d="M12 36.25 c0 -0.45 -0.45 -0.75 -1.05 -0.75 -0.55 0 -1.35 -0.35 -1.75 -0.75 -0.70 -0.65 -0.55 -0.75 1.20 -0.75 2.10 0 3.40 1 2.90 2.25 -0.35 0.95 -1.30 1 -1.30 0z"/>
  <path d="M11.50 33 c-1.10 -0.35 -1.05 -0.40 0.65 -0.45 1 -0.05 1.85 0.20 1.85 0.45 0 0.55 -0.70 0.55 -2.50 0z"/>
  <path d="M14.80 24.30 c-1 -0.90 -1.80 -1.90 -1.80 -2.25 0 -0.90 2.40 -0.65 2.65 0.35 0.20 0.65 0.25 0.55 0.30 -0.25 0.05 -0.95 0.35 -1.15 1.55 -1.15 0.85 0 1.50 0.25 1.50 0.50 0 0.30 0.55 0.50 1.25 0.50 0.75 0 1.25 0.30 1.25 0.70 0 0.95 -2.40 1.50 -3.30 0.75 -0.40 -0.35 -0.90 -0.45 -1.05 -0.25 -0.20 0.20 -0.05 0.55 0.30 0.75 0.45 0.30 0.50 0.55 0.10 0.75 -0.30 0.20 -0.45 0.60 -0.30 0.85 0.70 1.05 -0.80 0.35 -2.45 -1.25z"/>
  <path d="M17.50 17.75 l0 -1.70 1.25 1.15 c0.70 0.65 1.25 1.40 1.25 1.75 0 0.30 -0.55 0.55 -1.25 0.55 -1.10 0 -1.25 -0.20 -1.25 -1.75z"/>
  <path d="M22 16.15 c0 -0.85 -0.25 -1.65 -0.55 -1.75 -0.30 -0.10 -0.45 -0.75 -0.35 -1.40 l0.20 -1.25 0.60 1.40 c0.50 1.15 0.80 1.35 1.75 1.05 0.60 -0.15 1.50 -0.65 1.95 -1.05 0.60 -0.55 1.05 -0.60 1.75 -0.25 0.80 0.45 0.70 0.55 -0.60 0.85 -0.85 0.20 -2.25 1.20 -3.10 2.15 l-1.65 1.85 0 -1.60z"/>
  <path d="M15 12 c0 -2.60 0.15 -3 0.90 -3 0.80 0 0.95 0.40 0.95 3 0 2.60 -0.15 3 -0.95 3 -0.75 0 -0.90 -0.40 -0.90 -3z"/>
  <path d="M26.60 12.10 c-0.45 -0.30 -0.30 -0.60 0.60 -1 0.95 -0.40 1.25 -0.40 1.50 0.15 0.10 0.35 -0.10 0.80 -0.50 0.95 -0.95 0.35 -0.80 0.35 -1.60 -0.10z"/>
  <path d="M19.15 10.60 c-1.45 -1.70 -1.55 -2.85 -0.20 -2.05 1.25 0.80 2.05 2.15 1.60 2.85 -0.20 0.30 -0.75 0 -1.40 -0.80z"/>
  <path d="M21.05 9.70 c-1.10 -1.30 -2.05 -2.85 -2.05 -3.45 0 -1.10 0.05 -1.10 1.75 -0.30 1.55 0.70 1.70 1 1.75 2.90 0 1.20 0.25 2.15 0.65 2.30 0.30 0.10 0.45 0.35 0.30 0.55 -0.20 0.20 -1.25 -0.70 -2.40 -2z"/>
  <path d="M24.50 10.25 c0 -0.40 0.30 -0.75 0.70 -0.75 1.10 0 1.40 0.85 0.50 1.20 -1.10 0.45 -1.20 0.40 -1.20 -0.45z"/>
  <path d="M25.75 9 c-0.20 -0.30 -0.55 -0.40 -0.80 -0.25 -0.25 0.20 -0.45 -0.05 -0.45 -0.45 0 -0.95 0.50 -1 2.25 -0.20 0.90 0.40 1.10 0.70 0.65 1 -0.85 0.50 -1.30 0.50 -1.65 -0.10z"/>
  <path d="M29.75 9 c-0.55 -0.25 -0.75 -0.45 -0.45 -0.45 0.30 -0.05 1.85 -1.30 3.50 -2.80 3.80 -3.55 6.60 -3.75 5.95 -0.45 -0.10 0.55 -0.20 1.10 -0.20 1.35 -0.05 0.20 -0.55 0.35 -1.15 0.30 -0.65 0 -0.85 -0.15 -0.50 -0.30 0.30 -0.10 0.60 -0.65 0.60 -1.20 0 -1.70 -1.85 -1.05 -4.15 1.55 -1.25 1.40 -2.35 2.50 -2.45 2.45 -0.05 0 -0.60 -0.20 -1.15 -0.45z"/>
  <path d="M34.10 7.95 c0.10 -0.35 0.50 -0.75 0.85 -0.85 0.40 -0.15 0.60 0.05 0.45 0.45 -0.10 0.35 -0.50 0.75 -0.85 0.85 -0.40 0.15 -0.60 -0.05 -0.45 -0.45z"/>
  <path d="M16 2.25 c0 -1.95 0.15 -2.25 1.05 -2.25 0.80 0 0.95 0.20 0.70 1 -0.20 0.65 0 1.55 0.45 2.25 0.80 1.25 0.80 1.25 -0.70 1.25 -1.45 0 -1.50 -0.10 -1.50 -2.25z"/>
 </g>
 <g fill="#8f8a8b">
  <path d="M6.50 36.80 c0 -1.05 1.30 -2 1.65 -1.15 0.15 0.35 -0.20 0.95 -0.70 1.25 -0.75 0.50 -0.95 0.45 -0.95 -0.10z"/>
  <path d="M18.95 36.40 c-0.45 -1.55 -0.35 -2.40 0.30 -2.40 0.45 0 0.75 0.45 0.75 1.25 0 0.70 -0.20 1.25 -0.50 1.25 -0.25 0 -0.50 -0.05 -0.55 -0.10z"/>
  <path d="M8.65 34.75 c0 -0.55 0.50 -0.75 1.80 -0.70 1 0.05 1.40 0.15 0.95 0.30 -0.50 0.10 -0.90 0.45 -0.90 0.70 0 0.25 -0.40 0.45 -0.90 0.45 -0.50 0 -0.95 -0.35 -0.95 -0.75z"/>
  <path d="M14.65 34.90 c-0.30 -0.35 -0.40 -1.40 -0.30 -2.25 0.25 -1.50 0.45 -1.65 1.95 -1.65 1.20 0 1.70 0.25 1.70 0.80 0 0.55 -0.30 0.70 -1.05 0.45 -0.60 -0.20 -0.95 -0.15 -0.85 0.05 0.15 0.25 0 1.10 -0.35 1.85 -0.45 1.10 -0.70 1.25 -1.10 0.75z"/>
  <path d="M11.55 33.05 c-1.05 -0.30 -1.10 -0.40 -0.35 -1 0.45 -0.35 0.80 -1 0.80 -1.35 0 -0.40 0.35 -0.70 0.75 -0.70 0.50 0 0.75 0.55 0.75 1.75 0 0.95 -0.15 1.75 -0.35 1.70 -0.25 -0.05 -0.95 -0.20 -1.60 -0.40z"/>
  <path d="M14.55 23.95 c-2.05 -2.05 -2 -2.95 0.15 -2.95 1.85 0 2.30 0.60 2.30 3.05 0 1.85 -0.55 1.85 -2.45 -0.10z"/>
  <path d="M13 18.50 c0 -0.55 -0.20 -1 -0.50 -1 -0.25 0 -0.50 -0.80 -0.50 -1.75 0 -1.60 0.10 -1.75 1.50 -1.75 1.15 0 1.50 0.20 1.50 1 0 0.55 0.25 1 0.50 1 0.30 0 0.50 -0.35 0.50 -0.75 0 -1.20 0.65 -0.85 1.90 1 l1.10 1.75 -1.25 0 c-0.80 0 -1.25 0.30 -1.25 0.75 0 1.40 -1.30 0.75 -1.95 -1 -0.35 -0.95 -0.85 -1.75 -1.10 -1.75 -0.30 0 -0.30 0.35 0.05 0.95 0.65 1.25 0.65 2.55 0 2.55 -0.25 0 -0.50 -0.45 -0.50 -1z"/>
  <path d="M20.90 15 c0.20 -2.05 0.75 -2.60 1.30 -1.20 0.20 0.50 0.65 0.65 1.30 0.45 0.55 -0.15 1 -0.15 1 0.10 -0.05 0.85 -1.95 2.65 -2.85 2.65 -0.80 0 -0.90 -0.30 -0.75 -2z"/>
  <path d="M25.85 12.95 c0.40 -0.40 0.80 -0.40 1.50 0 0.80 0.45 0.70 0.50 -0.55 0.55 -1.10 0 -1.35 -0.15 -0.95 -0.55z"/>
  <path d="M21.85 10.40 l-2.05 -2.15 1.45 -0.15 c0.80 -0.10 1.55 0.05 1.65 0.35 0.10 0.30 0.50 0.55 0.90 0.55 0.40 0 0.70 0.20 0.70 0.50 0 0.25 0.30 0.35 0.70 0.20 0.40 -0.15 0.85 -0.05 1.05 0.25 0.15 0.30 0.05 0.55 -0.30 0.55 -0.50 0 -0.50 0.15 -0.10 0.55 0.40 0.40 0.85 0.40 1.65 -0.05 1 -0.55 1.05 -0.50 0.50 0.45 -0.40 0.80 -0.75 0.95 -1.40 0.60 -0.50 -0.30 -1.15 -0.30 -1.75 0.05 -0.75 0.40 -1.30 0.10 -3 -1.70z"/>
  <path d="M19.85 11.20 c-0.20 -0.20 -0.35 -0.70 -0.35 -1.15 0 -0.55 0.15 -0.60 0.55 -0.20 0.30 0.30 0.50 0.80 0.35 1.15 -0.10 0.30 -0.35 0.40 -0.55 0.20z"/>
  <path d="M15 8.75 c0 -1.60 0.15 -1.75 1.45 -1.75 0.85 0 1.55 0.30 1.75 0.80 0.50 1.25 0.35 1.70 -0.45 1.40 -0.45 -0.20 -0.75 0 -0.75 0.50 0 0.45 -0.40 0.80 -1 0.80 -0.80 0 -1 -0.35 -1 -1.75z"/>
  <path d="M25.65 8.75 c-1.35 -1 -0.50 -1.35 1.35 -0.60 1.40 0.60 1.50 0.75 0.60 0.95 -0.60 0.15 -1.45 0 -1.95 -0.35z"/>
  <path d="M30.85 7.75 c0.60 -1.05 5 -4.75 5.65 -4.75 0.30 0 0.85 0.30 1.20 0.65 1.70 1.70 1.10 3.55 -1.30 3.95 -1.70 0.30 -1.85 -0.40 -0.20 -0.80 1.30 -0.30 2.10 -1.70 1.40 -2.40 -0.70 -0.70 -2.80 0.35 -4.30 2.15 -1.40 1.65 -3.20 2.50 -2.45 1.20z"/>
 </g>
 <g fill="#5eaeac">
  <path d="M1 39.10 c0 -1 2.30 -3.45 2.75 -3 0.15 0.15 -0.10 1.10 -0.60 2.10 -0.95 1.90 -2.15 2.40 -2.15 0.90z"/>
  <path d="M6 37 c0 -0.25 0.35 -0.50 0.75 -0.50 0.40 0 0.75 -0.40 0.80 -0.85 0 -0.60 0.10 -0.65 0.30 -0.25 0.25 0.70 -0.70 2.10 -1.40 2.10 -0.25 0 -0.45 -0.20 -0.45 -0.50z"/>
  <path d="M12.15 36.05 c-0.40 -0.65 -0.95 -0.85 -1.85 -0.70 -0.95 0.20 -1.30 0.05 -1.30 -0.55 0 -0.55 0.45 -0.80 1.40 -0.80 1.95 0 3.35 1.10 2.80 2.15 -0.45 0.75 -0.55 0.75 -1.05 -0.10z"/>
  <path d="M18.80 35.25 c-0.20 -0.70 -0.20 -1.80 0 -2.50 0.20 -0.75 0.10 -1.25 -0.25 -1.25 -0.30 0 -0.55 0.25 -0.55 0.55 0 0.30 -0.45 0.40 -1 0.20 -0.75 -0.25 -1 -0.10 -1 0.60 0 0.50 -0.25 1.25 -0.50 1.65 -0.45 0.65 -0.60 0.65 -1.15 -0.05 -0.35 -0.45 -1.15 -0.95 -1.75 -1.15 -0.75 -0.25 -1.05 -0.65 -0.90 -1.15 0.15 -0.40 0.30 -1.20 0.30 -1.75 0 -0.70 0.25 -0.90 0.75 -0.70 1 0.35 0.95 -0.20 -0.10 -0.95 -0.75 -0.55 -1.10 -0.50 -2.25 0.35 -0.80 0.50 -1.40 1.35 -1.40 1.85 0 0.50 -0.45 1.30 -1 1.80 -0.95 0.90 -1 0.85 -1 -0.25 0 -0.65 0.40 -2.05 0.90 -3.05 0.70 -1.55 1.10 -1.95 2.25 -1.95 1.20 0 1.35 -0.15 1.25 -1.60 -0.10 -1.20 0.10 -1.65 0.75 -1.80 0.65 -0.15 0.85 0.15 0.85 1.30 0 1.65 1.15 3.05 1.75 2.10 0.25 -0.40 0.70 -0.25 1.50 0.50 0.80 0.75 1.45 0.95 2.40 0.70 l1.30 -0.30 0 4.05 c-0.05 4 -0.55 5.25 -1.15 2.80z"/>
  <path d="M15.20 24.60 c-1.35 -1.05 -2.95 -3.55 -2.55 -3.90 0.15 -0.15 0.75 -0.15 1.35 0.05 0.75 0.25 1 0.65 0.85 1.30 -0.20 0.75 0 0.95 0.95 0.95 0.65 0 1.20 -0.20 1.20 -0.50 0 -0.25 0.30 -0.50 0.70 -0.50 0.50 0 0.60 -0.55 0.40 -2.25 -0.10 -1.25 -0.10 -2.25 0.05 -2.25 0.85 0 1.85 0.70 1.85 1.30 0 0.40 0.35 0.70 0.75 0.70 0.90 0 0.95 -0.60 0.20 -1.35 -0.85 -0.85 -0.15 -2.15 1.10 -2.15 0.80 0 1 0.20 0.70 0.90 -0.65 1.65 -0.50 1.85 1.65 1.85 1.15 0 2.10 0.15 2.10 0.30 0 0.15 -0.80 0.70 -1.80 1.25 -1 0.50 -2 1.45 -2.20 2 -0.55 1.40 -3.50 1.95 -4.35 0.80 -0.65 -0.80 -0.75 -0.65 -0.85 1.10 -0.05 1.30 -0.85 1.45 -2.10 0.40z m5.80 -3.10 c0 -0.25 -0.45 -0.50 -1 -0.50 -0.55 0 -1 0.25 -1 0.50 0 0.30 0.45 0.50 1 0.50 0.55 0 1 -0.20 1 -0.50z"/>
  <path d="M12 16.55 c0 -0.50 0.15 -1.95 0.30 -3.25 0.30 -2 0.50 -2.30 1.50 -2.30 1.05 0 1.20 -0.25 1.20 -1.75 0 -1.10 0.30 -1.90 0.75 -2.05 0.90 -0.35 1.05 -4 0.15 -4.30 -0.95 -0.35 -0.05 -2.90 1.05 -2.90 0.70 0 0.85 0.30 0.70 1.25 -0.40 1.85 2.45 5.25 4.40 5.25 0.85 0 2.55 0.60 3.85 1.30 2.20 1.20 2.25 1.25 0.85 1.20 -2.30 -0.15 -2.65 0 -1.25 0.55 1 0.40 1.10 0.60 0.50 0.95 -0.40 0.25 -0.50 0.50 -0.25 0.50 0.30 0 0.10 0.35 -0.45 0.75 -1 0.75 -3.10 0.15 -2.55 -0.80 0.20 -0.25 0.15 -0.40 -0.10 -0.35 -0.20 0.10 -1.25 -0.75 -2.25 -1.85 -1 -1.10 -2 -1.80 -2.20 -1.60 -0.20 0.20 -0.10 0.65 0.20 0.95 0.35 0.35 0.60 0.90 0.60 1.25 0 0.55 -0.25 0.50 -1.15 -0.10 l-1.20 -0.75 0.10 3.10 c0.05 1.75 0.30 3.55 0.50 4.05 0.25 0.65 0.10 0.85 -0.65 0.85 -0.55 0 -1.15 0.30 -1.25 0.65 -0.20 0.40 -0.60 0.20 -1.35 -0.65 -1.05 -1.20 -1.05 -1.20 -0.75 -0.10 0.25 0.80 0.10 1.10 -0.45 1.10 -0.45 0 -0.80 -0.40 -0.80 -0.95z"/>
  <path d="M21 13.40 l0.05 -1.65 0.70 1.25 c0.90 1.60 0.90 2 0 2 -0.50 0 -0.75 -0.50 -0.75 -1.60z"/>
  <path d="M25.50 13.60 c0 -0.90 0.95 -1.20 1.85 -0.65 0.50 0.30 0.65 0.55 0.30 0.55 -0.30 0 -0.90 0.15 -1.35 0.30 -0.45 0.15 -0.80 0.05 -0.80 -0.20z"/>
  <path d="M26.75 12 c-0.15 -0.25 0.15 -0.70 0.70 -0.95 0.70 -0.40 1 -0.35 1.20 0.15 0.30 0.75 -1.50 1.50 -1.90 0.80z"/>
  <path d="M29.80 8.40 c0.15 -0.25 0.60 -0.35 1 -0.20 0.40 0.15 0.55 0 0.40 -0.40 -0.25 -0.70 0.50 -1.45 1.60 -1.60 0.40 -0.05 0.30 0.40 -0.20 1.30 -0.50 0.85 -1.20 1.40 -1.95 1.40 -0.60 0 -1 -0.25 -0.85 -0.50z"/>
  <path d="M36.95 6.55 c1.90 -1.90 0.95 -3.05 -1.50 -1.85 -1.85 0.95 -1.75 -0.10 0.15 -1.15 1.95 -1.10 3 -0.40 2.80 1.80 -0.10 1.55 -0.35 1.95 -1.30 2.05 l-1.20 0.20 1.05 -1.05z"/>
 </g>
 <g fill="#49bdb5">
  <path d="M14.30 34.25 c-0.15 -0.40 -0.85 -0.85 -1.55 -1.05 -0.90 -0.20 -1.20 -0.55 -1.05 -1.05 0.15 -0.40 0.30 -1.20 0.30 -1.70 0 -0.80 0.25 -0.95 1.15 -0.70 1.05 0.30 1.05 0.30 -0.15 -0.70 -0.65 -0.55 -1.45 -0.80 -1.75 -0.60 -0.25 0.20 -0.90 0.55 -1.35 0.70 -0.70 0.25 -0.90 0.05 -0.90 -0.90 0 -1.10 0.20 -1.25 1.80 -1.25 1.05 0 2.45 0.45 3.35 1.10 0.90 0.65 1.90 1.10 2.20 1 0.75 -0.15 0.90 2.20 0.20 2.60 -0.20 0.15 -0.55 0.95 -0.70 1.80 -0.35 1.60 -1.05 1.95 -1.55 0.75z"/>
  <path d="M19.10 31.75 c0.20 -0.95 0.10 -1.15 -0.35 -0.75 -0.45 0.40 -0.70 0.30 -0.90 -0.20 -0.20 -0.45 0.20 -1.05 0.95 -1.50 l1.20 -0.80 0 2.25 c0 1.30 -0.25 2.25 -0.55 2.25 -0.35 0 -0.45 -0.50 -0.35 -1.25z"/>
  <path d="M15.45 24.75 c0 0 -0.10 -0.40 -0.20 -0.95 -0.10 -0.55 0.15 -1 0.70 -1.15 0.75 -0.20 0.85 -0.65 0.65 -2.95 -0.20 -2.40 -0.10 -2.70 0.70 -2.70 1.30 0.05 2.90 1.30 2.45 1.95 -0.15 0.35 0.10 0.55 0.70 0.55 1.10 0 1.35 -0.50 0.60 -1.30 -0.25 -0.25 -0.30 -1.75 -0.20 -3.35 0.25 -2.80 0.30 -2.85 0.95 -1.55 0.40 0.70 0.55 1.50 0.40 1.75 -0.15 0.25 0.75 -0.25 2 -1.05 1.70 -1.15 2.50 -1.45 3.15 -1.10 0.70 0.40 0.55 0.55 -0.75 0.85 -1.45 0.30 -4.60 3.30 -4.60 4.35 0 0.90 2.35 1.50 3.50 0.90 2.10 -1.15 1.55 -0.10 -0.65 1.20 -1.25 0.75 -2.35 1.75 -2.50 2.30 -0.20 0.80 -0.70 1 -2.30 1 -1.15 0 -2.05 -0.25 -2.05 -0.55 0 -0.25 -0.25 -0.35 -0.50 -0.20 -0.30 0.20 -0.40 0.75 -0.25 1.25 0.25 0.70 0.05 0.90 -0.75 0.85 -0.55 -0.05 -1 -0.05 -1.05 -0.10z m5.95 -3.15 c0.10 -0.35 -0.35 -0.60 -1.10 -0.60 -1.35 0 -1.75 0.75 -0.65 1.15 0.85 0.35 1.50 0.15 1.75 -0.55z"/>
  <path d="M12.30 17.40 c-0.15 -0.65 -0.30 -1.75 -0.30 -2.50 0 -1.15 0.20 -1.40 1.25 -1.40 1.05 0 1.25 -0.25 1.25 -1.50 0 -1.15 0.20 -1.50 1 -1.50 0.80 0 1 0.35 1 1.75 0 0.95 -0.20 1.75 -0.45 1.75 -0.25 0 -0.30 1 -0.15 2.25 0.25 2.60 -0.50 3 -1.50 0.75 -0.65 -1.50 -1.80 -2.20 -1.20 -0.75 0.15 0.40 0.45 1.10 0.60 1.50 0.20 0.45 0.05 0.75 -0.45 0.75 -0.40 0 -0.85 -0.50 -1.05 -1.10z"/>
  <path d="M21.45 9.90 c-2.20 -2.40 -3.15 -4.40 -2 -4.40 0.25 0 1.05 0.80 1.80 1.80 0.90 1.15 1.50 1.60 1.75 1.25 0.25 -0.45 0.50 -0.40 1 0.20 0.35 0.40 0.90 0.75 1.25 0.75 0.90 0 0.55 2.05 -0.45 2.60 -0.70 0.40 -1.35 0 -3.35 -2.20z"/>
  <path d="M19.80 11.25 c-0.85 -1.90 -0.80 -2.50 0.05 -1.65 0.40 0.45 0.65 1.20 0.55 1.70 -0.15 0.90 -0.20 0.90 -0.60 -0.05z"/>
  <path d="M26.75 11.50 c0.20 -0.30 0.50 -0.40 0.75 -0.25 0.20 0.15 0.50 0 0.60 -0.35 0.15 -0.40 0.35 -0.30 0.55 0.25 0.25 0.65 0.05 0.85 -0.95 0.85 -0.70 0 -1.15 -0.20 -0.95 -0.50z"/>
  <path d="M25 8.25 c-0.85 -1 0.45 -1.05 1.80 0 0.95 0.70 0.95 0.70 -0.10 0.75 -0.60 0 -1.35 -0.35 -1.70 -0.75z"/>
  <path d="M15.50 2.20 c0 -0.65 1.05 -2.20 1.50 -2.20 0.30 0 0.50 0.55 0.50 1.25 0 0.90 -0.25 1.25 -1 1.25 -0.55 0 -1 -0.15 -1 -0.30z"/>
 </g>
 <g fill="#c57e81">
  <path d="M3.50 39.50 c0 -0.75 4.25 -4.50 4.45 -3.90 0.10 0.35 -0.30 0.95 -0.95 1.35 -0.60 0.45 -1.65 1.30 -2.30 1.90 -0.65 0.60 -1.20 0.90 -1.20 0.65z"/>
  <path d="M2 38.20 c0 -0.25 0.45 -0.85 1 -1.35 0.55 -0.45 1 -0.65 1 -0.40 0 0.20 -0.45 0.80 -1 1.30 -0.55 0.50 -1 0.70 -1 0.45z"/>
  <path d="M18.70 34.80 c-0.15 -0.40 0.05 -1.80 0.45 -3.15 l0.75 -2.40 0.05 2.85 c0.05 2.75 -0.65 4.25 -1.25 2.70z"/>
  <path d="M11.90 31 c0.10 -0.80 0.45 -1.50 0.70 -1.50 0.30 0 0.35 0.35 0.20 0.80 -0.25 0.70 -0.20 0.75 0.40 0.25 0.75 -0.65 0.55 -2.25 -0.20 -1.80 -0.25 0.15 -0.55 0.05 -0.75 -0.25 -0.20 -0.35 -0.60 -0.35 -1.25 0 -1.35 0.75 -1.50 0.65 -1.50 -1 0 -1.40 0.15 -1.50 1.75 -1.50 1.40 0 1.75 0.20 1.75 1 0 0.55 0.35 1 0.75 1 0.80 0 0.95 1.40 0.45 3.40 -0.20 0.70 -0.70 1.10 -1.40 1.10 -0.95 0 -1.10 -0.20 -0.90 -1.50z"/>
  <path d="M13.75 23 c-0.40 -0.80 -0.75 -1.90 -0.75 -2.50 0 -0.55 -0.20 -1 -0.50 -1 -0.25 0 -0.50 -1 -0.50 -2.25 0 -1.50 0.20 -2.25 0.65 -2.25 0.35 0 0.70 0.40 0.75 0.90 0.40 3.55 0.75 5.10 1.20 5.10 0.50 0 0.30 -2.85 -0.35 -4.85 -0.20 -0.70 -0.15 -1.15 0.15 -1.15 0.30 0 0.70 0.45 0.85 1 0.15 0.55 0.65 1 1.05 1 0.55 0 0.70 0.85 0.70 3.75 0 3.65 -0.05 3.75 -1.25 3.75 -0.85 0 -1.45 -0.45 -2 -1.50z"/>
  <path d="M12 12.60 c0 -0.50 0.55 -1.45 1.25 -2.10 l1.25 -1.15 0 1.25 c0 1.95 -0.50 2.90 -1.55 2.90 -0.60 0 -0.95 -0.35 -0.95 -0.90z"/>
  <path d="M23.40 11.95 c-0.45 -0.25 -1.30 -1.15 -1.90 -1.95 l-1.05 -1.45 1.55 0.10 c1.30 0.10 2.25 1.35 1 1.35 -0.25 0 -0.50 0.25 -0.50 0.55 0 0.25 0.20 0.40 0.40 0.25 0.25 -0.15 1.10 -0.10 1.90 0.15 1.35 0.35 1.40 0.40 0.45 0.90 -0.65 0.35 -1.30 0.40 -1.85 0.10z"/>
  <path d="M34.10 8.50 c0.10 -1 0.45 -1.25 1.65 -1.35 1.35 -0.10 1.35 -0.10 0.40 0.35 -0.60 0.25 -1.30 0.85 -1.60 1.35 -0.50 0.80 -0.55 0.75 -0.45 -0.35z"/>
  <path d="M24.75 8 c-1.05 -1.15 -0.55 -1.25 1.25 -0.25 2 1.15 3.80 0.90 5.25 -0.60 0.70 -0.75 1.25 -1.20 1.25 -0.90 0 0.25 0.35 0 0.75 -0.55 0.40 -0.50 0.75 -0.70 0.75 -0.35 0 0.30 -0.85 1.25 -1.85 2.10 -2.35 1.95 -5.90 2.20 -7.40 0.55z"/>
  <path d="M15 4.40 c0 -1.50 0.65 -2.90 1.30 -2.90 0.45 0 0.70 0.60 0.70 1.75 0 1.40 -0.20 1.75 -1 1.75 -0.55 0 -1 -0.30 -1 -0.60z"/>
  <path d="M19.75 1.65 c0.55 -0.15 1.30 -0.60 1.60 -1.05 0.35 -0.40 0.80 -0.65 0.95 -0.45 0.65 0.60 -0.90 1.85 -2.25 1.80 -1 -0.05 -1.10 -0.10 -0.30 -0.30z"/>
 </g>
 <g fill="#77a9a9">
  <path d="M1 39.15 c0 -0.45 1.15 -2.10 2.50 -3.70 1.40 -1.60 2.50 -3.10 2.50 -3.35 0 -0.25 0.35 -0.75 0.75 -1.10 0.45 -0.35 1.40 -1.90 2.10 -3.35 1.90 -3.85 4.15 -4.80 4.15 -1.75 0 0.80 0.55 1.85 1.25 2.55 1.45 1.35 1.55 1.85 0.50 2.25 -0.40 0.15 -0.75 0.75 -0.75 1.30 0 0.75 -0.35 1 -1.25 1 -1.60 0 -1.60 -0.70 -0.05 -2.05 1.10 -0.95 1.35 -2.85 0.30 -2.20 -0.20 0.15 -0.65 -0.10 -1 -0.45 -0.50 -0.65 -0.75 -0.55 -1.65 0.35 -0.60 0.60 -1.30 1.75 -1.60 2.55 -0.25 0.80 -1.10 1.85 -1.85 2.25 -1.35 0.80 -4.90 5.15 -4.90 6.05 0 0.30 -0.20 0.50 -0.50 0.50 -0.25 0 -0.50 -0.40 -0.50 -0.85z"/>
  <path d="M14.90 24.35 c-1.05 -0.85 -2.90 -4.05 -2.90 -5.05 0 -0.45 0.40 -0.80 0.95 -0.80 0.85 0 1.30 1 1.65 3.90 0.10 1 0.90 0.65 0.90 -0.45 0 -0.85 0.25 -1 1.65 -0.85 1.20 0.10 1.65 0.40 1.75 1.30 0.20 1.15 -0.65 1.55 -1.05 0.50 -0.20 -0.40 -0.40 -0.25 -0.60 0.45 -0.45 1.35 -1.45 1.75 -2.35 1z"/>
  <path d="M15.50 15.75 c0 -2.20 0.45 -2.20 1.90 0 l1.10 1.75 -1.50 0 c-1.40 0 -1.50 -0.15 -1.50 -1.75z"/>
  <path d="M21 15.45 c0 -1.40 0.20 -1.95 0.65 -1.80 0.30 0.10 0.55 0.60 0.55 1.05 -0.10 0.80 -0.05 0.80 0.85 0 0.55 -0.45 1.10 -0.70 1.30 -0.55 0.40 0.45 -1.35 2.40 -1.90 2.05 -0.25 -0.15 -0.30 0.10 -0.15 0.50 0.20 0.55 0 0.80 -0.50 0.80 -0.60 0 -0.80 -0.50 -0.80 -2.05z"/>
  <path d="M12 14.70 c0 -1.50 0.35 -2.80 1.05 -3.75 1.45 -2.05 2.45 -1.90 2.45 0.35 0 1.45 -0.15 1.75 -0.80 1.50 -0.70 -0.25 -0.75 -0.20 -0.25 0.40 0.35 0.40 0.55 1.50 0.45 2.40 l-0.20 1.65 -0.60 -1.25 -0.55 -1.25 -0.35 1.15 c-0.55 1.85 -1.20 1.25 -1.20 -1.20z"/>
  <path d="M23.25 11.45 c-0.50 -0.75 -0.10 -0.95 1.15 -0.60 0.60 0.15 0.95 0.45 0.80 0.70 -0.35 0.60 -1.55 0.55 -1.95 -0.10z"/>
  <path d="M21.15 9.40 c-0.90 -1.05 -0.90 -1.05 0.50 -0.70 0.85 0.20 1.35 0.10 1.35 -0.20 0 -0.30 0.20 -0.45 0.50 -0.25 0.60 0.35 0.15 1.60 -0.75 1.95 -0.35 0.10 -1.05 -0.25 -1.60 -0.80z"/>
  <path d="M24.35 7.75 c-1.60 -1.45 -1.40 -1.55 0.70 -0.50 0.80 0.45 1.35 1 1.20 1.25 -0.40 0.65 -0.25 0.70 -1.90 -0.75z"/>
  <path d="M32.40 6.50 c0.85 -0.80 1.70 -1.50 1.90 -1.50 0.20 0 -0.25 0.70 -1.05 1.50 -0.80 0.85 -1.65 1.50 -1.90 1.50 -0.25 0 0.25 -0.65 1.05 -1.50z"/>
  <path d="M17 4.15 c0 -1.80 0 -1.80 0.90 -0.85 2.30 2.60 2.35 2.70 0.65 2.70 -1.45 0 -1.55 -0.10 -1.55 -1.85z"/>
 </g>
 <g fill="#59c7bf">
  <path d="M14.10 33.70 c-0.35 -0.40 -1.10 -0.70 -1.60 -0.70 -1.35 0 -1.25 -0.60 0.25 -2 1.55 -1.50 1.55 -1.80 -0.10 -2.65 -1.25 -0.65 -1.40 -0.60 -2.75 0.75 -1.25 1.25 -1.40 1.30 -1.40 0.45 0 -1.50 0.55 -2.55 1.30 -2.55 0.40 0 0.70 -0.35 0.70 -0.75 0 -1.05 1.95 -0.95 2.35 0.15 0.15 0.45 1.20 1.70 2.25 2.70 l1.95 1.85 -1.15 1.70 c-0.95 1.45 -1.25 1.60 -1.80 1.05z m1.10 -2 c0.20 -0.45 0.20 -0.95 0.10 -1.05 -0.40 -0.40 -1.30 0.40 -1.30 1.15 0 0.95 0.80 0.90 1.20 -0.10z"/>
  <path d="M14.70 23.90 c-0.20 -0.30 -0.10 -0.70 0.20 -0.80 0.35 -0.10 0.60 -0.50 0.60 -0.90 0 -0.40 0.20 -0.70 0.45 -0.70 0.55 0 0.15 -1.30 -1.25 -4.35 -1.05 -2.40 -2 -2.90 -1.45 -0.75 0.20 0.75 0.40 1.90 0.45 2.60 0.10 0.70 0.40 1.75 0.75 2.40 0.50 0.90 0.45 1.10 -0.15 1.10 -1.20 0 -2.40 -2.75 -2.05 -4.65 0.15 -0.90 0.35 -2.75 0.45 -4.15 0.05 -1.95 0.45 -2.95 1.45 -4.15 1.05 -1.30 1.35 -2.20 1.40 -4.20 0.05 -3 0.10 -3.30 0.65 -4.45 0.65 -1.40 1.30 -1.05 1.30 0.60 0 1 0.55 2.15 1.70 3.35 0.90 1.05 1.55 2.15 1.45 2.50 -0.30 0.75 1.55 1.75 2.55 1.35 0.60 -0.25 0.75 -0.10 0.50 0.50 -0.50 1.30 -1.75 0.95 -3.80 -1.05 -1.25 -1.20 -1.90 -1.60 -1.90 -1.10 0 0.45 0.55 1.30 1.25 1.95 0.70 0.65 1.25 1.50 1.25 1.95 0 0.50 -0.60 0.20 -1.75 -0.95 -0.95 -0.90 -1.85 -1.60 -1.95 -1.45 -0.25 0.25 -0.50 5.95 -0.35 7.35 0 0.35 0.25 0.55 0.45 0.40 0.25 -0.15 1.10 0.45 1.90 1.30 1.35 1.40 1.35 1.50 0.35 1.20 -0.65 -0.20 -1.15 -0.15 -1.15 0.15 0 1.30 1.10 3.10 2.10 3.50 1.10 0.45 1.10 0.45 -0.30 0.85 -1 0.25 -1.55 0.15 -1.70 -0.20 -0.30 -1 -1.10 -0.65 -1.10 0.40 0 1.15 -0.50 1.25 -1.45 0.40 -0.55 -0.50 -0.65 -0.50 -0.35 0 0.45 0.75 0 0.80 -0.50 0z"/>
  <path d="M21.50 21.50 c0 -0.25 -0.45 -0.50 -0.95 -0.50 -1.70 0 -1.60 -0.85 0.10 -1.25 1.50 -0.40 5.35 -0.65 5.35 -0.40 0 0.20 -3.95 2.65 -4.25 2.65 -0.15 0 -0.25 -0.20 -0.25 -0.50z"/>
  <path d="M21.35 18.15 c-0.20 -0.15 -0.35 -1.45 -0.35 -2.80 0 -2.05 0.10 -2.35 0.70 -1.90 0.40 0.35 0.60 1.35 0.55 2.55 -0.10 2.15 -0.35 2.70 -0.90 2.15z"/>
  <path d="M22.50 16.20 c0 -0.90 1.30 -2.35 1.95 -2.15 0.40 0.15 0.15 0.65 -0.65 1.40 -0.70 0.70 -1.30 1 -1.30 0.75z"/>
 </g>
 <g fill="#af9c9c">
  <path d="M19.30 32.70 c0.15 -3.65 0.55 -3.95 0.65 -0.50 0 1.50 -0.15 2.85 -0.35 3 -0.25 0.15 -0.35 -1 -0.30 -2.50z"/>
  <path d="M9 28.55 c0 -1.80 0.95 -3.05 2.25 -3.05 1.55 0 1.85 0.50 0.95 1.75 -0.40 0.50 -0.70 0.75 -0.70 0.45 0 -0.25 -0.15 -0.25 -0.40 0.05 -0.20 0.30 -0.75 0.80 -1.20 1.20 -0.80 0.60 -0.90 0.55 -0.90 -0.40z"/>
  <path d="M14.40 23.65 c-0.45 -0.50 -1 -1.40 -1.35 -2 -0.45 -0.90 -0.40 -1 0.45 -0.80 0.90 0.25 1.20 0.75 1.05 1.80 0 0.20 0.20 0.35 0.45 0.35 0.65 0 0.65 -3.55 0 -5.20 -0.45 -1.15 -0.35 -1.30 0.70 -1.30 0.90 0 1.25 0.35 1.50 1.55 0.55 2.75 0.35 4.25 -0.70 5.35 -1.25 1.30 -1.15 1.30 -2.10 0.25z"/>
  <path d="M12 18.15 c0 -1.85 0.70 -2.15 1.50 -0.70 0.80 1.55 0.60 2.50 -0.50 2.40 -0.80 -0.05 -1 -0.40 -1 -1.70z"/>
  <path d="M12.25 13 c-0.20 -0.30 0.30 -1.40 1.10 -2.40 1 -1.35 1.45 -2.60 1.65 -4.60 0.20 -2.30 0.40 -2.75 1.30 -2.90 0.55 -0.10 1.35 0.20 1.70 0.65 0.55 0.70 0.55 0.80 -0.05 0.65 -0.50 -0.10 -0.70 0.40 -0.80 1.75 0 1 -0.45 2.45 -0.90 3.15 -0.50 0.75 -0.55 1.15 -0.20 0.95 0.40 -0.25 0.50 -0.20 0.25 0.15 -0.20 0.35 -0.95 0.60 -1.70 0.60 -1.45 0 -1 0.75 0.65 1.15 0.90 0.20 0.85 0.25 -0.15 0.30 -0.65 0 -1 0.30 -0.85 0.55 0.15 0.30 -0.15 0.50 -0.70 0.50 -0.55 0 -1.15 -0.25 -1.30 -0.50z"/>
  <path d="M23.25 11.50 c-0.20 -0.30 0.25 -0.50 1 -0.50 0.75 0 1.20 0.20 1 0.50 -0.15 0.30 -0.60 0.50 -1 0.50 -0.40 0 -0.85 -0.20 -1 -0.50z"/>
  <path d="M37.15 6.40 c1.10 -1.15 1.70 -1 1.15 0.35 -0.15 0.40 -0.70 0.75 -1.25 0.75 -1 0 -1 -0.05 0.10 -1.10z"/>
  <path d="M33 6.15 c0 -0.85 3 -3.20 3.65 -2.80 0.35 0.20 0.30 0.40 -0.15 0.55 -0.40 0.15 -1.35 0.80 -2.10 1.50 -0.80 0.70 -1.40 1.05 -1.40 0.75z"/>
 </g>
 <g fill="#78bcbb">
  <path d="M1.55 39.10 c-0.05 -0.65 0.70 -1.90 1.75 -3 1.85 -1.95 1.85 -1.45 -0.05 1.15 -0.60 0.85 -1.20 1.85 -1.40 2.25 -0.20 0.50 -0.30 0.35 -0.30 -0.40z"/>
  <path d="M6 32.80 c0 -0.35 0.30 -0.95 0.70 -1.25 0.40 -0.35 1.25 -1.80 1.95 -3.25 1.50 -3.15 1.70 -3.35 3.25 -2.75 1 0.35 1.05 0.55 0.50 1.45 -0.35 0.55 -0.70 0.80 -0.80 0.50 -0.10 -0.25 -0.40 -0.50 -0.70 -0.50 -0.30 0 -0.40 0.30 -0.25 0.65 0.15 0.35 -0.20 0.95 -0.70 1.25 -0.50 0.35 -0.95 1.05 -0.95 1.60 0 1.05 -1.65 3 -2.50 3 -0.25 0 -0.50 -0.30 -0.50 -0.70z"/>
  <path d="M14.40 23.65 c-0.45 -0.50 -1 -1.40 -1.35 -2 -0.45 -0.90 -0.40 -1 0.40 -0.80 0.55 0.15 1.10 0.90 1.30 1.80 0.30 1.30 0.45 1.40 0.60 0.60 0.30 -1.20 1.05 -1.75 2.35 -1.75 0.80 0 0.70 0.25 -0.70 1.50 -0.90 0.85 -1.70 1.50 -1.75 1.50 -0.05 0 -0.45 -0.40 -0.85 -0.85z"/>
  <path d="M12.10 16 c0.05 -2.15 0.30 -3.80 0.50 -3.70 0.25 0.15 0.40 -0.15 0.40 -0.70 0 -1 1.45 -2.60 2.40 -2.60 0.35 0 0.60 0.25 0.60 0.50 0 0.30 0 0.65 0 0.90 0 0.20 -0.45 0.35 -1 0.35 -1.30 0.05 -1.30 0.95 0 1.15 0.60 0.10 1.10 0.70 1.30 1.50 0.20 0.75 0.65 1.85 1.05 2.50 0.70 1.15 0.70 1.15 -0.90 1 -1.15 -0.10 -1.75 -0.45 -1.95 -1.15 -0.15 -0.55 -0.60 -1.05 -1.05 -1.05 -0.70 -0.05 -0.75 0.15 -0.35 1.50 0.80 2.50 0.75 3.45 -0.25 3.60 -0.80 0.10 -0.90 -0.25 -0.75 -3.80z"/>
  <path d="M36.90 6.75 c0.60 -0.45 1.10 -1.25 1.10 -1.80 0 -1.40 -1.90 -1.20 -3.70 0.40 -1.50 1.35 -1.45 1.30 0.10 -0.40 1.25 -1.40 1.95 -1.75 2.90 -1.55 1.10 0.20 1.25 0.45 1.10 2.05 -0.10 1.50 -0.35 1.85 -1.40 1.95 l-1.25 0.15 1.15 -0.80z"/>
  <path d="M15.25 3.40 c0.20 -0.90 0.65 -1.90 1.05 -2.20 0.35 -0.30 0.55 -0.70 0.35 -0.85 -0.15 -0.20 -0.10 -0.35 0.20 -0.35 0.30 0 0.65 0.90 0.75 2.05 0.15 1.55 0 2.15 -0.70 2.50 -1.55 0.85 -2 0.55 -1.65 -1.15z"/>
 </g>
 <g fill="#9bb4b4">
  <path d="M11.30 27.20 c-0.40 -1 0 -1.60 0.70 -0.90 0.25 0.25 0.25 0.75 0.05 1.10 -0.30 0.55 -0.50 0.50 -0.75 -0.20z"/>
  <path d="M15.55 22.75 c0.30 -1 0.35 -2.30 0.20 -2.90 -0.20 -0.60 -0.45 -1.50 -0.55 -1.95 -0.20 -0.70 0.05 -0.90 1 -0.90 1.25 0 1.30 0.15 1.30 2.65 0 2 -0.25 2.95 -1 3.75 -1.40 1.50 -1.50 1.40 -0.95 -0.65z"/>
  <path d="M13.25 19 c0.20 -0.30 0.10 -0.80 -0.15 -1.15 -0.55 -0.75 -1.35 -3.75 -0.80 -3.20 0.40 0.40 1.70 3.80 1.70 4.50 0 0.20 -0.25 0.35 -0.55 0.35 -0.25 0 -0.35 -0.25 -0.20 -0.50z"/>
  <path d="M13.45 10.70 c1.05 -1.90 1.95 -2.70 2.80 -2.70 0.70 0 0.75 0.15 0.30 0.70 -0.30 0.40 -0.50 1 -0.45 1.35 0.10 0.40 -0.25 0.70 -0.85 0.70 -0.55 0 -1.30 0.20 -1.65 0.45 -0.55 0.35 -0.60 0.25 -0.15 -0.50z"/>
  <path d="M35.50 7.35 c0.15 -0.15 0.70 -0.35 1.25 -0.45 0.55 -0.05 1.20 -0.35 1.40 -0.65 0.25 -0.30 0.35 -0.20 0.20 0.25 -0.10 0.40 -0.85 0.85 -1.65 0.90 -0.80 0.10 -1.35 0.10 -1.20 -0.05z"/>
  <path d="M15 4.85 c0 -2.20 1.80 -3.05 2.90 -1.35 0.35 0.55 0.45 1 0.25 0.95 -1.05 -0.15 -1.65 0.10 -1.65 0.80 0 0.40 -0.35 0.75 -0.75 0.75 -0.45 0 -0.75 -0.45 -0.75 -1.15z"/>
 </g>
 <g fill="#d6989a">
  <path d="M19.30 34.05 c-0.20 -0.25 -0.10 -1 0.15 -1.65 0.45 -1.05 0.50 -1.05 0.50 0.50 0.05 1.60 -0.15 1.95 -0.65 1.15z"/>
  <path d="M15.90 20.65 c-0.10 -1.60 -0.20 -1.90 -0.80 -3 -0.35 -0.60 -0.60 -1.40 -0.55 -1.75 0 -0.35 0.25 -0.15 0.55 0.50 0.30 0.60 0.95 1.10 1.50 1.10 0.70 0 0.90 0.40 0.90 2 0 1.45 -0.20 2 -0.75 2 -0.40 0 -0.80 -0.40 -0.85 -0.85z"/>
  <path d="M13 11.15 c0 -0.30 0.45 -0.90 1 -1.40 0.55 -0.50 1 -1.45 1 -2.10 0 -0.65 0.30 -1.15 0.70 -1.15 1.15 0 1.20 1.65 0.10 2.95 -0.95 1.05 -0.95 1.15 -0.15 0.90 0.55 -0.20 0.80 -0.15 0.60 0.20 -0.20 0.30 -0.70 0.40 -1.10 0.25 -0.45 -0.20 -1.10 -0.05 -1.45 0.25 -0.40 0.30 -0.70 0.35 -0.70 0.10z"/>
  <path d="M34.15 8.50 c0.10 -1.05 0.40 -1.30 2.20 -1.55 1.15 -0.15 2 -0.10 1.85 0.15 -0.15 0.20 -0.95 0.40 -1.75 0.40 -1.05 0 -1.60 0.30 -1.95 1.15 -0.50 1.10 -0.50 1.10 -0.35 -0.15z"/>
  <path d="M15.10 4.40 c0.10 -0.70 0.45 -1.10 0.90 -1 0.60 0.15 0.65 0.05 0.15 -0.45 -0.95 -0.95 -0.80 -1.45 0.35 -1.45 0.65 0 1 0.35 1 1 0 1.35 -0.15 1.80 -0.60 1.65 -0.25 -0.10 -0.40 0.20 -0.40 0.60 0 0.40 -0.35 0.75 -0.80 0.75 -0.50 0 -0.70 -0.35 -0.60 -1.10z"/>
  <path d="M20.40 1.65 c0.60 -0.10 1.10 -0.55 1.10 -0.95 0 -0.40 0.25 -0.70 0.50 -0.70 0.30 0 0.50 0.20 0.50 0.40 0 0.75 -1.20 1.60 -2.20 1.55 -0.95 -0.10 -0.95 -0.10 0.10 -0.30z"/>
 </g>
 <g fill="#72d6d0">
  <path d="M11.25 26.95 c-0.50 -0.75 0.15 -1.25 0.80 -0.60 0.35 0.35 0.35 0.65 0.05 0.85 -0.30 0.15 -0.70 0.05 -0.85 -0.25z"/>
  <path d="M16 21.35 c0 -1.45 -0.25 -2.90 -0.55 -3.20 -0.30 -0.30 -0.70 -1.35 -0.95 -2.30 -0.30 -1.40 -0.20 -1.95 0.45 -2.60 1 -0.85 1.55 -0.55 1.55 0.95 0 0.55 0.45 1.50 1.05 2.10 0.80 0.85 0.95 1.35 0.55 2 -0.30 0.55 -0.35 1.35 -0.05 2.10 0.40 1 0.25 1.45 -0.80 2.40 l-1.25 1.15 0 -2.60z"/>
  <path d="M13.50 10.60 c0 -0.25 0.45 -0.85 1.05 -1.40 0.75 -0.70 0.95 -1.40 0.85 -2.95 -0.10 -1.10 0.10 -2.05 0.35 -2.15 0.30 -0.05 0.55 0.95 0.65 2.30 0.15 2.15 0 2.50 -1.40 3.50 -0.80 0.60 -1.50 0.95 -1.50 0.70z"/>
  <path d="M18.50 5.05 c-0.30 -0.60 -0.75 -0.95 -0.95 -0.80 -0.25 0.10 -0.85 -0.35 -1.30 -1.10 -0.85 -1.25 -0.85 -1.35 0.05 -2 0.85 -0.65 0.95 -0.60 1.10 0.70 0.10 0.75 0.65 1.90 1.25 2.50 0.55 0.65 0.90 1.30 0.75 1.45 -0.20 0.15 -0.55 -0.20 -0.90 -0.75z"/>
 </g>
 <g fill="#eca9ac">
  <path d="M13.50 10.60 c0 -0.25 0.35 -0.75 0.75 -1.10 0.40 -0.35 0.75 -1.70 0.85 -3.15 0.20 -3.25 1.10 -3.20 1.30 0.05 0.15 2.15 0 2.50 -1.40 3.50 -0.80 0.60 -1.50 0.95 -1.50 0.70z"/>
 </g>
</svg>