<?xml version="1.0" encoding="utf-8"?>
<!DOCTYPE svg PUBLIC "-//W3C//DTD SVG 1.0//EN" "http://www.w3.org/TR/2001/REC-SVG-20010904/DTD/svg10.dtd">
<svg version="1.0" xmlns="http://www.w3.org/2000/svg" width="40px" height="40px" viewBox="0 0 40 40" preserveAspectRatio="xMidYMid meet">
 <g fill="#2b2420">
  <path d="M4.50 39.35 c0 -0.35 0.40 -1.10 0.90 -1.65 0.45 -0.50 1.25 -1.55 1.75 -2.30 1.15 -1.80 1.85 -1.75 1.85 0.10 0 1 -0.25 1.50 -0.75 1.50 -0.40 0 -0.75 0.35 -0.75 0.80 0 0.40 -0.30 1.10 -0.70 1.50 -0.90 0.90 -2.30 0.90 -2.30 0.05z"/>
  <path d="M11 35.65 c0 -1.70 0.05 -1.75 0.90 -1 1.20 1.10 1.90 1.10 1.05 0 -0.60 -0.75 -0.60 -0.80 0.20 -0.50 0.50 0.20 1.05 0.35 1.15 0.35 0.10 0 0.20 0.70 0.20 1.50 0 1.40 -0.15 1.50 -1.75 1.50 -1.70 0 -1.75 -0.05 -1.75 -1.85z"/>
  <path d="M19 30.25 c0 -1.65 0.10 -1.75 1.75 -1.75 1.65 0 1.75 0.10 1.75 1.75 0 1.65 -0.10 1.75 -1.75 1.75 -1.65 0 -1.75 -0.10 -1.75 -1.75z"/>
  <path d="M36.50 20.75 c0 -1.50 -0.20 -2.75 -0.50 -2.75 -0.25 0 -0.50 -1 -0.50 -2.25 0 -2.20 0.05 -2.25 1.60 -2.25 1.25 0 1.45 0.15 1 0.60 -0.75 0.75 -0.75 2.15 -0.05 4.15 0.75 1.95 0.20 5.25 -0.80 5.25 -0.55 0 -0.75 -0.70 -0.75 -2.75z"/>
  <path d="M10.35 15.55 c0.15 -0.55 0.70 -1.35 1.20 -1.85 0.90 -0.85 0.95 -0.80 0.95 0.95 0 1.60 -0.15 1.85 -1.20 1.85 -0.95 0 -1.15 -0.20 -0.95 -0.95z"/>
  <path d="M14 2.55 c-0.80 -1.55 -0.60 -2.55 0.50 -2.55 0.80 0 1 0.35 1 1.75 0 1.95 -0.70 2.30 -1.50 0.80z"/>
 </g>
 <g fill="#2c3425">
  <path d="M19 38.30 c0 -1.50 0.15 -1.70 1.65 -1.95 3.40 -0.60 4.60 -1.05 5.50 -2.20 0.50 -0.60 1.25 -1.15 1.65 -1.15 0.40 0 0.70 -0.20 0.70 -0.50 0 -0.25 0.80 -0.50 1.75 -0.50 1.60 0 1.75 -0.10 1.75 -1.50 0 -0.80 0.25 -1.50 0.50 -1.50 0.30 0 0.50 -0.35 0.50 -0.75 0 -0.40 0.25 -0.75 0.50 -0.75 0.30 0 0.50 -0.35 0.50 -0.75 0 -0.40 0.20 -0.75 0.45 -0.75 0.25 0 0.60 -0.55 0.75 -1.25 0.25 -0.90 0.65 -1.25 1.55 -1.25 0.70 0 1.25 0.20 1.25 0.40 0 0.25 -1 2 -2.20 3.90 -2.30 3.60 -6.65 7.60 -9.90 9.10 -1.90 0.85 -2.45 1.60 -1.20 1.60 0.40 0 0.80 0.35 1 0.75 0.20 0.60 -0.30 0.75 -3.20 0.75 l-3.50 0 0 -1.70z"/>
  <path d="M11.50 35.90 c0.05 -1.50 0.10 -1.55 0.70 -0.80 0.35 0.50 0.80 0.75 0.95 0.55 0.20 -0.15 0.10 -0.60 -0.20 -1 -0.45 -0.50 -0.30 -0.65 0.75 -0.65 1.15 0 1.30 0.20 1.30 1.75 0 1.65 -0.10 1.75 -1.75 1.75 -1.65 0 -1.75 -0.10 -1.75 -1.60z"/>
  <path d="M17.50 33.25 c0 -1.20 0.25 -1.75 0.75 -1.75 0.50 0 0.75 -0.55 0.75 -1.75 0 -1.65 0.10 -1.75 1.70 -1.75 1.85 0 2.30 0.60 2.30 3.05 0 0.95 -0.25 1.45 -0.75 1.45 -0.45 0 -0.75 0.45 -0.75 1.25 0 1.15 -0.20 1.25 -2 1.25 -1.95 0 -2 -0.05 -2 -1.75z"/>
  <path d="M11.05 31.90 c-1.10 -1.75 -2.50 -6.80 -2.20 -7.90 0.50 -1.85 1.40 -1 2.30 2.15 1.70 5.80 1.65 8.55 -0.10 5.75z"/>
  <path d="M9 19.75 c0 -2 4.20 -9.25 5.90 -10.20 0.80 -0.45 0.80 -0.75 -0.20 -4.50 l-1 -4.05 1.10 0 c0.75 0 1.20 0.35 1.35 1.10 0.15 0.85 0.25 0.70 0.30 -0.45 0 -0.90 0.30 -1.65 0.55 -1.65 0.30 0 0.50 0.15 0.50 0.40 0 0.20 0.65 1.10 1.50 2 0.80 0.90 1.50 1.85 1.50 2.15 0 0.75 -2.50 0.50 -2.80 -0.30 -0.65 -1.60 -0.95 -0.60 -1 3 -0.05 3.85 -0.90 5.75 -2.55 5.75 -0.35 0 -0.65 0.50 -0.65 1.15 0 0.65 -0.40 1.60 -0.95 2.15 -0.50 0.60 -1.10 1.75 -1.30 2.60 -0.20 1.10 -0.60 1.60 -1.30 1.60 -0.50 0 -0.95 -0.35 -0.95 -0.75z"/>
  <path d="M27.10 11.50 c-2 -0.85 -4.10 -1.50 -4.65 -1.50 -0.75 0 -0.95 -0.35 -0.90 -1.60 0 -0.90 0.15 -1.35 0.30 -1 0.10 0.30 0.65 0.60 1.15 0.60 0.50 0 2.75 0.70 5 1.50 4.60 1.70 5.80 1.80 7.40 0.70 1.05 -0.75 1.10 -0.70 1.10 0.70 0 0.90 -0.30 1.60 -0.80 1.80 -1.75 0.65 -5.15 0.20 -8.60 -1.20z"/>
  <path d="M38.60 7 c0.35 -0.55 0.80 -1 1 -1 0.25 0 0.40 0.45 0.40 1 0 0.65 -0.35 1 -1 1 -0.90 0 -0.95 -0.10 -0.40 -1z"/>
  <path d="M38.65 2.65 c-1.05 -0.40 -0.75 -2.15 0.35 -2.15 0.75 0 1 0.35 1 1.25 0 1.25 -0.20 1.40 -1.35 0.90z"/>
 </g>
 <g fill="#2b304e">
  <path d="M18.55 24.70 c-1.95 -1.65 -2.65 -4.05 -2.45 -8.45 l0.15 -3.50 2.40 -0.15 c2.25 -0.15 2.35 -0.10 2.35 1.10 0 0.80 0.30 1.30 0.75 1.30 1.50 0 2.55 4.75 1.95 8.75 -0.30 2.15 -0.40 2.25 -1.95 2.25 -1.05 0 -2.25 -0.45 -3.20 -1.30z"/>
  <path d="M26 22.50 c0 -3 0 -3 1.45 -3 1.95 0 3.05 0.45 3.05 1.30 0 0.40 0.30 0.70 0.70 0.70 0.50 0 0.60 -0.55 0.40 -2.25 l-0.25 -2.25 2.60 0 2.55 0 0 1.90 c0 2.80 -0.50 4.10 -1.50 4.10 -0.60 0 -1 0.45 -1.10 1.15 -0.10 0.85 -0.55 1.15 -1.85 1.25 -1 0.10 -1.85 -0.10 -2.10 -0.50 -0.35 -0.50 -0.45 -0.50 -0.45 0 0 0.35 -0.70 0.60 -1.75 0.60 l-1.75 0 0 -3z"/>
 </g>
 <g fill="#394530">
  <path d="M16.35 39.40 c-1.05 -0.30 -2.05 -0.85 -2.20 -1.20 -0.15 -0.40 -0.70 -0.70 -1.20 -0.70 -0.60 0 -0.95 -0.35 -0.95 -0.95 0 -0.55 -0.20 -1.15 -0.50 -1.30 -0.25 -0.15 -0.50 -0.60 -0.50 -0.90 0.05 -0.35 0.50 -0.05 1.05 0.60 0.55 0.65 1.10 1.05 1.30 0.85 0.15 -0.15 -0.05 -0.70 -0.50 -1.15 -1.05 -1.20 -3.35 -6.15 -3.35 -7.25 0 -0.55 0.40 -0.90 1 -0.90 0.80 0 1 0.35 1 1.75 0 1.15 0.25 1.75 0.65 1.75 0.70 0 1.85 2 1.85 3.25 0 0.40 0.30 0.75 0.70 0.75 0.40 0 0.85 0.30 0.95 0.65 0.15 0.30 0.30 -0.25 0.30 -1.25 0.05 -1.90 0.05 -1.90 2.20 -1.95 1.15 0 1.80 -0.15 1.50 -0.30 -0.35 -0.10 -0.65 -1 -0.65 -1.95 0 -1.60 0.10 -1.70 1.75 -1.70 0.95 0 1.75 0.25 1.75 0.50 0 0.30 0.45 0.50 1.05 0.50 0.85 0 1 0.25 0.85 1.90 -0.10 1.50 -0.35 1.90 -1.25 2 -0.90 0.15 -1.15 0.50 -1.15 1.70 0 1.50 0 1.55 -2.30 1.25 -1.25 -0.10 -2.10 -0.05 -1.85 0.15 0.50 0.55 1.35 0.65 4.30 0.55 2.25 -0.05 2.35 -0.10 2.35 -1.50 0 -1.35 0.15 -1.45 2.90 -1.80 1.55 -0.20 2.55 -0.50 2.25 -0.60 -0.35 -0.15 -0.65 -1 -0.65 -1.95 0 -1.55 0.15 -1.70 1.45 -1.70 1.95 0 3.05 -0.45 3.05 -1.30 0 -0.45 0.55 -0.70 1.50 -0.70 l1.55 0 -2 2.95 c-1.25 1.80 -2.85 3.45 -4.20 4.20 -1.20 0.70 -2.45 1.65 -2.85 2.05 -0.35 0.45 -1 0.80 -1.45 0.80 -0.45 0 -1.25 0.40 -1.80 0.80 -0.95 0.70 -0.95 0.80 -0.10 1.25 0.45 0.30 0.85 0.70 0.85 0.95 0 0.65 -6.20 0.55 -8.65 -0.10z"/>
  <path d="M28 25.25 c0 -1.65 0.10 -1.75 1.75 -1.75 1.65 0 1.75 0.10 1.75 1.75 0 1.65 -0.10 1.75 -1.75 1.75 -1.65 0 -1.75 -0.10 -1.75 -1.75z"/>
  <path d="M24 24.75 c0 -1.65 0.10 -1.75 1.75 -1.75 1.65 0 1.75 0.10 1.75 1.75 0 1.65 -0.10 1.75 -1.75 1.75 -1.65 0 -1.75 -0.10 -1.75 -1.75z"/>
  <path d="M9 20.45 c0 -1.45 1.25 -4.45 1.85 -4.45 0.70 0 0.85 1.90 0.35 3.90 -0.30 1.10 -2.20 1.60 -2.20 0.55z"/>
  <path d="M24.50 19.80 c0 -0.95 -0.25 -1.30 -1 -1.30 -0.80 0 -1 -0.35 -1 -1.75 0 -1.40 -0.20 -1.75 -1 -1.75 -0.80 0 -1 -0.35 -1 -1.75 0 -1.65 0.10 -1.75 1.75 -1.75 1.65 0 1.75 0.10 1.75 1.75 0 1.40 0.20 1.75 1 1.75 0.65 0 1 0.35 1 1 0 0.75 0.35 1 1.30 1 1.15 0 1.25 0.15 1.10 1.90 -0.15 1.75 -0.25 1.85 -2 2 -1.75 0.15 -1.90 0.05 -1.90 -1.10z"/>
  <path d="M31 16.80 c0 -1.90 0.60 -2.30 3.55 -2.30 1.90 0 1.95 0.05 1.95 1.70 0 1.85 -0.75 2.30 -3.85 2.30 -1.55 0 -1.65 -0.10 -1.65 -1.70z"/>
  <path d="M12 13.55 c0 -0.30 0.55 -1.15 1.25 -1.90 l1.20 -1.40 0.05 1.90 c0 1.65 -0.15 1.85 -1.25 1.85 -0.70 0 -1.25 -0.20 -1.25 -0.45z"/>
  <path d="M29.40 12.65 c-0.55 -0.15 -0.90 -0.70 -0.90 -1.40 l0 -1.15 2.50 0.80 c2.85 0.90 3.40 2.15 0.90 2.05 -0.90 -0.05 -2.05 -0.15 -2.50 -0.30z"/>
  <path d="M22.55 10.15 c-0.65 -0.15 -1.50 -0.50 -1.80 -0.85 -1.05 -1.05 -2.25 -3.70 -2.25 -5.05 0 -0.90 -0.25 -1.25 -1 -1.25 -0.85 0 -0.90 0.25 -0.65 2.50 0.25 2.05 0.15 2.50 -0.45 2.50 -0.50 0 -1.05 -1 -1.55 -2.85 -0.45 -1.60 -0.95 -3.40 -1.10 -4 -0.35 -1.05 -0.20 -1.15 1.70 -1.15 1.10 0 2.05 0.20 2.05 0.45 0 0.25 0.75 1.35 1.65 2.45 0.95 1.10 2 2.70 2.35 3.55 0.35 0.85 0.80 1.60 1.05 1.60 0.25 0.05 0.60 0.10 0.85 0.15 0.20 0.05 1.10 0.30 2 0.50 0.85 0.20 1.60 0.70 1.60 1.10 0 0.70 -1.80 0.85 -4.45 0.35z"/>
 </g>
 <g fill="#523330">
  <path d="M6.80 36 c1.10 -1.65 1.60 -2 3 -2 1.15 0 1.90 0.30 2.30 1 0.35 0.55 0.90 1 1.25 1 0.35 0 0.65 0.25 0.65 0.50 0 0.65 -3.35 0.65 -3.75 0 -0.40 -0.65 -1.75 -0.05 -1.75 0.80 0 0.45 -0.55 0.70 -1.50 0.70 l-1.50 0 1.30 -2z"/>
  <path d="M13.15 34.90 c-1.15 -1.50 -1.20 -2.05 -0.10 -1.05 0.60 0.60 1 1.25 0.85 1.40 -0.15 0.15 -0.50 0 -0.75 -0.35z"/>
  <path d="M35.70 18.75 c-0.20 -0.40 -0.75 -0.75 -1.25 -0.75 -1.20 0 -1.25 -1.35 -0.05 -1.65 0.80 -0.20 0.80 -0.25 0 -0.30 -0.65 -0.05 -0.90 -0.50 -0.90 -1.55 0 -1.20 0.20 -1.50 1.10 -1.50 0.60 0 1.45 -0.30 1.85 -0.70 1.10 -1 3.55 -1.55 3.55 -0.85 0 0.35 -0.70 1.30 -1.50 2.20 -1.05 1.10 -1.45 1.90 -1.20 2.60 0.85 2.95 0.85 3.25 -0.25 3.25 -0.60 0 -1.20 -0.35 -1.35 -0.75z"/>
 </g>
 <g fill="#354046">
  <path d="M25 25.75 c0 -1.30 0.20 -1.75 0.90 -1.80 0.50 0 0.60 -0.15 0.25 -0.30 -0.90 -0.35 -0.80 -3.05 0.05 -3.95 0.40 -0.40 1.40 -0.70 2.25 -0.70 1.45 0 1.55 0.15 1.55 1.75 0 0.95 -0.20 1.75 -0.50 1.75 -0.25 0 -0.50 -0.25 -0.50 -0.55 0 -0.25 -0.20 -0.35 -0.50 -0.20 -0.25 0.15 -0.50 0.45 -0.50 0.65 0 0.55 1.95 0.60 2.25 0.05 0.20 -0.25 0.85 -0.45 1.55 -0.45 0.75 0 1.20 -0.30 1.20 -0.75 0 -0.45 -0.45 -0.75 -1.25 -0.75 -1.10 0 -1.25 -0.20 -1.25 -1.75 0 -0.95 0.15 -1.75 0.40 -1.75 0.20 -0.05 1.55 -0.15 3 -0.30 l2.60 -0.30 0 2.80 c0 2.65 -0.05 2.80 -1.25 2.80 -1.10 0 -1.25 0.20 -1.25 1.70 0 0.95 -0.20 1.90 -0.50 2.05 -0.85 0.50 -5.95 1.75 -7.25 1.75 -1.10 0 -1.25 -0.25 -1.25 -1.75z m9.70 -5.35 c0.45 -1.70 0.40 -1.90 -0.60 -1.90 -0.75 0 -0.90 0.30 -0.70 1.50 0.25 1.80 0.85 1.95 1.30 0.40z"/>
  <path d="M19.60 24.40 c0.10 -1.35 0.35 -1.65 1.25 -1.55 0.55 0.05 1.15 -0.15 1.30 -0.50 0.35 -0.90 -0.40 -4.80 -1.05 -5.45 -0.55 -0.55 -0.50 0.75 0.15 3.15 0.15 0.75 0.10 1.45 -0.15 1.65 -0.25 0.15 -0.60 -0.60 -0.80 -1.70 -0.25 -1.55 -0.55 -2 -1.30 -2 -1.50 0 -1.40 -2.75 0.15 -3.20 1.90 -0.50 3.35 -0.35 3.35 0.40 0 0.40 0.20 0.80 0.50 0.90 0.75 0.25 1.30 7.90 0.55 7.90 -0.30 0 -0.55 0.45 -0.55 1 0 0.80 -0.35 1 -1.80 1 -1.70 0 -1.75 -0.05 -1.60 -1.60z"/>
  <path d="M15.60 15.40 l0.15 -2.65 1.90 -0.15 c1.35 -0.10 1.85 0.05 1.85 0.55 0 0.40 -0.45 0.85 -1 1 -0.75 0.20 -1 0.70 -1 2.05 0 1.50 -0.20 1.80 -1.05 1.80 -0.90 0 -1 -0.25 -0.85 -2.60z"/>
 </g>
 <g fill="#353c5f">
  <path d="M24.50 24.55 c0 -4.25 3.30 -7.10 8.10 -7 l2.65 0.05 -1.75 0.65 c-0.95 0.35 -1.35 0.70 -0.85 0.70 0.55 0.05 0.85 0.45 0.85 1.30 0 1.45 0.40 1.60 1.30 0.40 0.60 -0.80 0.65 -0.75 0.70 0.75 0 2 -0.75 3.60 -1.75 3.60 -0.40 0 -0.75 0.20 -0.75 0.45 0 0.60 -4 1.55 -6.45 1.55 l-2.05 0 0 -2.45z"/>
  <path d="M19.10 24.90 c-0.35 -0.35 -0.60 -0.90 -0.60 -1.30 0 -0.40 -0.35 -1 -0.85 -1.35 -0.60 -0.45 -0.85 -1.65 -1.05 -4.70 l-0.25 -4.05 2.55 0 c1.40 0 2.70 0.20 2.85 0.50 0.40 0.65 1.75 8.40 1.75 10.15 0 1.25 -0.15 1.35 -1.90 1.35 -1.05 0 -2.15 -0.25 -2.50 -0.60z m1.85 -1.40 l-1.20 -1 1.25 0.15 c1.20 0.10 1.25 0 1.10 -2.35 -0.10 -1.35 -0.50 -2.95 -0.90 -3.50 -0.70 -1 -0.70 -0.95 -0.50 0.45 0.10 0.85 0.35 2.10 0.55 2.80 0.45 1.75 -0.45 2.25 -1.75 1.05 -1.40 -1.30 -2.05 -6.10 -0.80 -6.10 0.45 0 0.80 -0.25 0.80 -0.55 0 -0.30 -0.50 -0.45 -1.10 -0.35 -1.25 0.15 -1.40 1.40 -0.65 5.20 0.30 1.70 2.90 5.20 3.85 5.20 0.30 0 0 -0.45 -0.65 -1z"/>
 </g>
 <g fill="#45573a">
  <path d="M17 39.65 c-2.65 -0.90 -4 -1.80 -4 -2.65 0 -0.55 0.25 -1 0.55 -1 0.40 0 0.40 -0.25 -0.05 -0.75 -0.55 -0.65 -0.40 -0.75 0.70 -0.75 1.05 0 1.30 -0.25 1.30 -1.25 0 -0.80 0.30 -1.25 0.75 -1.25 0.40 0 0.75 -0.20 0.75 -0.50 0 -0.25 1.20 -0.50 2.70 -0.50 1.50 0 2.85 -0.20 3 -0.45 0.20 -0.25 -0.15 -0.35 -0.65 -0.20 -0.65 0.15 -1.05 -0.05 -1.20 -0.70 -0.20 -0.80 -0.25 -0.80 -0.30 0 0 0.45 -0.40 0.85 -0.80 0.85 -0.50 0 -0.75 -0.55 -0.75 -1.75 0 -1.65 0.10 -1.75 1.75 -1.75 1.20 0 1.75 0.25 1.75 0.75 0 0.80 0.55 0.90 3.65 0.75 1.75 -0.05 1.85 0 1.85 1.45 0 1.05 0.25 1.55 0.75 1.55 0.50 0 0.75 -0.55 0.75 -1.75 0 -1.55 0.15 -1.75 1.25 -1.75 0.70 0 1.25 -0.25 1.25 -0.55 0 -0.35 -0.60 -0.45 -1.75 -0.25 -1 0.20 -2.80 0.20 -4 0 -2.15 -0.30 -2.25 -0.40 -2.25 -2 0 -1.40 0.20 -1.70 1.05 -1.70 0.70 0 0.95 0.25 0.80 0.70 -0.45 1.10 0.60 1.80 2 1.25 0.70 -0.25 1.45 -0.35 1.70 -0.15 0.25 0.15 0.45 0 0.45 -0.25 0 -0.30 0.15 -0.50 0.40 -0.50 0.20 0.05 0.95 0.05 1.75 0 1.05 -0.05 1.35 -0.30 1.35 -1.15 0 -0.65 0.35 -1.60 0.75 -2.10 0.80 -1.05 1.05 -3.30 0.40 -3.30 -1.50 0 -5.65 2 -6.95 3.35 -1.90 2 -2.20 2.05 -2.20 0.40 0 -0.70 -0.20 -1.25 -0.50 -1.25 -0.25 0 -0.50 -0.35 -0.50 -0.75 0 -0.40 -0.45 -0.75 -1 -0.75 -0.60 0 -1 -0.35 -1 -0.80 0 -1.50 -1.70 -3.65 -3.10 -3.95 -1.20 -0.30 -1.40 -0.55 -1.40 -2.10 l0 -1.80 2.55 0.30 c2.75 0.35 4.70 1.85 5.25 4.10 0.35 1.45 0.30 1.40 1.95 0.65 2 -0.90 1.65 -2.55 -0.75 -3.65 -1.35 -0.60 -2 -1.20 -2 -1.90 0 -1.15 0.75 -1.05 5.10 0.75 2.30 0.90 2.90 1.40 2.90 2.30 0 0.95 0.25 1.10 1.80 1.10 l1.85 0 -0.25 2.25 c-0.25 1.95 -0.15 2.25 0.65 2.25 0.80 0 0.95 0.40 0.95 2.90 -0.05 3.50 -2.05 6.95 -3.90 6.70 -1.15 -0.15 -1.60 1.15 -0.55 1.50 1 0.35 -0.15 1.90 -2.70 3.60 -1.45 0.90 -3 2.15 -3.50 2.70 -0.65 0.70 -2.10 1.20 -4.40 1.60 -3.40 0.60 -5 1.35 -1.80 0.85 1.65 -0.20 3.85 0.45 3.85 1.25 0 0.45 -6.75 0.50 -8 0.05z m5.50 -5.10 c0 -0.50 0.50 -1.10 1.15 -1.30 2.65 -0.95 3.10 -1.25 1.40 -1 -0.90 0.15 -2.10 0.25 -2.60 0.25 -0.70 0 -0.95 0.35 -0.95 1.50 0 0.85 0.25 1.50 0.50 1.50 0.30 0 0.50 -0.40 0.50 -0.95z m-2 -1.05 c0 -0.25 -0.75 -0.45 -1.60 -0.45 l-1.65 0.05 1.50 0.40 c0.85 0.20 1.55 0.40 1.65 0.45 0.05 0 0.10 -0.15 0.10 -0.45z m14.30 -17 c0.40 0 0.70 -0.45 0.65 -1.10 -0.05 -0.70 -0.15 -0.85 -0.30 -0.35 -0.10 0.40 -0.70 1 -1.30 1.25 -0.60 0.30 -0.80 0.45 -0.45 0.35 0.40 -0.10 1 -0.15 1.40 -0.15z"/>
  <path d="M11.10 31.45 c-0.40 -0.60 -1 -2.05 -1.35 -3.25 -0.65 -2.15 -0.65 -2.20 0.55 -2.20 1 0 1.20 0.25 1.20 1.50 0 0.85 0.25 1.50 0.50 1.50 0.30 0 0.50 0.80 0.50 1.75 0 2 -0.45 2.20 -1.40 0.70z"/>
  <path d="M10 17.15 c0.05 -0.95 1.10 -2.65 1.70 -2.65 0.15 0 0.30 0.80 0.30 1.75 0 1.40 -0.20 1.75 -1 1.75 -0.65 0 -1 -0.35 -1 -0.85z"/>
  <path d="M37 8.75 l2.75 -2.80 0.15 1.60 c0.25 2.20 -1.50 3.95 -3.85 3.95 l-1.75 0 2.70 -2.75z"/>
  <path d="M14.65 3.75 c-0.55 -1.65 -0.50 -1.75 0.65 -1.75 1.05 0 1.20 0.25 1.20 1.75 0 2.30 -1.15 2.30 -1.85 0z"/>
 </g>
 <g fill="#5f413c">
  <path d="M4.50 39.55 c0 -0.30 0.55 -1.15 1.25 -1.90 l1.20 -1.40 0.05 1.90 c0 1.65 -0.15 1.85 -1.25 1.85 -0.70 0 -1.25 -0.20 -1.25 -0.45z"/>
  <path d="M7.60 35 c0.35 -0.55 1.05 -1 1.50 -1 0.55 0 0.90 0.40 0.90 1 0 0.80 -0.35 1 -1.50 1 -1.40 0 -1.45 -0.10 -0.90 -1z"/>
  <path d="M13.80 31 c-0.45 -4.95 -0.10 -6 1.95 -6 l1.60 0 0.35 3.80 c0.15 2.30 0.10 4.10 -0.20 4.45 -0.25 0.30 -0.35 0.75 -0.15 0.90 0.15 0.20 -0.50 0.35 -1.45 0.35 l-1.75 0 -0.35 -3.50z"/>
  <path d="M28 31.25 c0 -1.10 0.30 -1.90 0.75 -2.05 0.40 -0.20 0.75 -0.60 0.75 -1 0 -0.45 0.60 -0.70 1.75 -0.70 1.65 0 1.75 0.10 1.75 1.75 0 0.95 -0.20 1.75 -0.45 1.75 -0.25 0 -0.55 0.45 -0.70 1 -0.20 0.75 -0.70 1 -2.05 1 -1.75 0 -1.80 -0.05 -1.80 -1.75z"/>
  <path d="M34.95 21.90 c-0.05 -0.35 0 -1.40 0.05 -2.25 0.05 -1.20 -0.15 -1.65 -0.70 -1.65 -1.15 0 -1 -0.85 0.20 -1.25 0.55 -0.15 1 -0.65 1 -1.05 0 -0.40 0.35 -0.70 0.75 -0.70 0.45 0 0.75 0.45 0.75 1.20 0 0.70 0.25 1.40 0.50 1.55 0.30 0.15 0.50 1.30 0.50 2.55 0 2.10 -0.05 2.20 -1.50 2.20 -0.85 0 -1.50 -0.30 -1.55 -0.60z"/>
 </g>
 <g fill="#444f54">
  <path d="M24.50 24.50 c0 -2.85 0.05 -3 1.25 -3 1.45 0 1.50 0.10 0.45 2.05 -0.40 0.85 -0.65 1.65 -0.55 1.80 0.50 0.45 2.85 0.50 2.85 0.05 0 -0.25 0.45 -0.35 1 -0.15 0.75 0.25 1.60 -0.30 3.55 -2.35 l2.55 -2.65 -0.20 1.75 c-0.10 1.35 -0.40 1.80 -1.25 1.90 -0.80 0.10 -1.15 0.50 -1.15 1.30 0 0.90 -0.45 1.20 -2.25 1.70 -1.25 0.35 -3.15 0.60 -4.25 0.60 l-2 0 0 -3z"/>
  <path d="M20.50 25.50 c0 -0.25 -0.55 -0.50 -1.25 -0.50 -0.75 0 -1.40 -0.35 -1.60 -0.85 -0.20 -0.50 -0.50 -1 -0.75 -1.20 -0.55 -0.35 -1.40 -5.15 -1.40 -8 0 -2.70 0.15 -2.80 4.15 -2.15 1.35 0.25 1.85 0.55 1.85 1.25 0 0.55 0.35 0.95 0.75 0.95 0.50 0 0.75 0.55 0.75 1.75 0 0.95 0.25 1.75 0.50 1.75 0.30 0 0.50 1.60 0.50 3.75 l0 3.75 -1.75 0 c-0.95 0 -1.75 -0.20 -1.75 -0.50z m1.65 -2.45 c0.75 -3.55 -1.75 -9.20 -3.90 -8.95 -0.80 0.10 -1 0.50 -0.90 1.85 0.15 3.30 0.75 5.10 2.25 6.80 1.85 2.15 2.20 2.15 2.55 0.30z"/>
  <path d="M27 19.75 c0 -0.90 0.25 -1.25 1 -1.25 0.55 0 1 -0.20 1 -0.50 0 -0.25 0.80 -0.50 1.75 -0.50 0.95 0 1.75 0.20 1.75 0.40 0 0.40 -4.55 3.10 -5.20 3.10 -0.15 0 -0.30 -0.55 -0.30 -1.25z"/>
 </g>
 <g fill="#4f6641">
  <path d="M18 39.05 c0 -0.55 0.45 -1.10 0.95 -1.30 0.65 -0.20 1.10 -0.95 1.30 -2.25 0.30 -1.75 0.50 -2 1.70 -2 1.90 0 2.10 -0.35 1.30 -2.35 -0.90 -2.15 -0.95 -4.25 -0.10 -5.10 0.50 -0.55 0.50 -0.70 0 -0.90 -0.40 -0.15 -0.65 -1.15 -0.65 -2.45 0 -1.85 0.15 -2.20 1 -2.20 0.55 0 1 -0.20 1 -0.50 0 -0.25 -0.45 -0.50 -1 -0.50 -0.80 0 -1.05 -0.45 -1.30 -2.50 -0.25 -1.95 -0.55 -2.50 -1.20 -2.50 -1.85 0 -2.50 -0.60 -2.50 -2.30 0 -1.60 0.10 -1.70 1.75 -1.70 1.40 0 1.75 0.20 1.75 1 0 0.60 -0.35 1 -0.85 1.05 -0.70 0 -0.75 0.10 -0.15 0.30 0.40 0.15 1.20 0.65 1.75 1.10 0.90 0.75 0.95 0.75 0.30 -0.10 -0.60 -0.75 -0.50 -0.85 0.90 -0.85 1.40 0 1.55 0.15 1.55 1.45 0 0.85 0.25 1.65 0.50 1.80 0.30 0.15 0.50 0.10 0.50 -0.15 0 -0.25 0.50 -0.65 1.10 -0.95 1.05 -0.45 1.05 -0.55 -0.85 -1.80 -1.10 -0.75 -2.25 -1.35 -2.60 -1.35 -0.40 0 -0.65 -0.65 -0.65 -1.75 0 -2.15 0.35 -2.15 4.40 -0.25 1.75 0.85 3.60 1.50 4.15 1.50 0.60 0 0.95 0.35 0.95 1 0 0.80 0.35 1 1.75 1 1.60 0 1.75 0.15 1.75 1.45 0 0.80 0.35 2.10 0.75 2.85 1.45 2.85 1 5.55 -1.70 9.75 -2.25 3.50 -3.50 4.75 -9.05 8.85 -0.50 0.35 -1.65 0.70 -2.55 0.80 -3.10 0.35 -4.95 0.90 -4.65 1.40 0.20 0.25 1.05 0.35 1.95 0.20 1.70 -0.35 3.25 0 3.25 0.75 0 0.25 -1.45 0.45 -3.25 0.45 -2.90 0 -3.25 -0.10 -3.25 -0.95z m9.05 -4.35 c0.30 -0.40 0.35 -0.70 0.10 -0.70 -0.70 0 -3.15 1.20 -3.15 1.55 0 0.55 2.45 -0.15 3.05 -0.85z m3.75 -6.55 c0.60 -0.80 1.20 -2.05 1.40 -2.85 0.20 -0.80 0.90 -2.15 1.60 -3.05 1.45 -1.95 1.65 -4.25 0.30 -4.25 -0.55 0 -2.25 0.65 -3.90 1.50 -2.45 1.20 -3.10 1.85 -3.85 3.55 -0.95 2.20 -0.80 2.75 0.90 3.05 0.70 0.10 1.05 0.60 1.15 1.80 0.20 1.95 1.10 2.05 2.40 0.25z m1.20 -11.15 c1.85 -0.20 3.05 -0.10 3.20 0.25 0.10 0.25 0.25 -0.25 0.25 -1.20 0.05 -1.55 0 -1.65 -0.60 -0.85 -0.35 0.50 -1.60 1 -2.85 1.15 -2.50 0.30 -6 1.90 -6 2.70 0 0.25 0.70 -0.05 1.50 -0.65 1 -0.75 2.55 -1.20 4.50 -1.40z"/>
  <path d="M13.10 37.55 c-0.35 -0.20 -1 -1.05 -1.40 -1.80 -0.70 -1.40 -0.70 -1.40 0.20 -0.60 1.50 1.35 2.30 1.05 1.15 -0.45 -1.35 -1.75 -1.30 -2.20 0.20 -2.20 0.70 0 1.25 0.25 1.25 0.50 0 0.95 1.05 0.50 1.60 -0.75 0.45 -0.95 0.95 -1.25 2.25 -1.25 1.35 0 1.65 0.20 1.65 1.05 0 0.70 -0.25 0.95 -0.70 0.80 -0.40 -0.15 -1.10 0.05 -1.65 0.45 -0.85 0.65 -0.80 0.70 0.40 0.40 0.75 -0.15 1.50 -0.05 1.70 0.25 0.20 0.35 -0.30 0.70 -1.20 0.85 -1.05 0.25 -1.55 0.60 -1.55 1.25 0 1.10 -0.20 1.15 -1.55 0.45 -0.50 -0.30 -0.95 -0.40 -0.95 -0.30 0 0.15 0.60 0.60 1.40 1 l1.35 0.75 -1.75 0 c-0.95 0.05 -2.05 -0.15 -2.40 -0.40z"/>
  <path d="M10.60 30.50 c-0.90 -1.45 -0.75 -2.50 0.40 -2.50 0.80 0 1 0.35 1 1.75 0 1.95 -0.45 2.20 -1.40 0.75z"/>
  <path d="M13.50 26.45 c0 -1.90 0.05 -1.95 1.75 -1.95 1.70 0 1.75 0.05 1.75 1.95 0 1.90 -0.05 1.95 -1.75 1.95 -1.70 0 -1.75 -0.05 -1.75 -1.95z"/>
  <path d="M34 11.65 c0 -0.25 0.80 -0.90 1.75 -1.55 l1.75 -1.10 0 1.50 c0 1.40 -0.15 1.50 -1.75 1.50 -0.95 0 -1.75 -0.15 -1.75 -0.35z"/>
 </g>
 <g fill="#744042">
  <path d="M7 36 c1.55 -2.20 2 -2.25 2 -0.30 0 1.65 -0.10 1.80 -1.55 1.80 l-1.50 0 1.05 -1.50z"/>
  <path d="M27.50 31.75 c0 -2.05 1.25 -3.75 2.80 -3.75 1.05 0 1.20 -0.25 1.20 -1.75 0 -1.55 0.15 -1.75 1.25 -1.75 1.10 0 1.20 0.20 1.05 1.55 -0.05 0.85 -0.35 1.70 -0.60 1.85 -0.40 0.30 -1.20 1.75 -2.15 3.85 -0.10 0.30 0.20 0.15 0.75 -0.25 0.60 -0.45 0.55 -0.25 -0.25 0.60 -0.80 0.95 -1.60 1.30 -2.60 1.25 -1.25 -0.10 -1.45 -0.30 -1.45 -1.60z m3.40 -1.30 c0.95 -1.50 0.55 -1.60 -0.55 -0.15 -0.50 0.65 -0.70 1.20 -0.50 1.20 0.25 0 0.70 -0.45 1.05 -1.05z"/>
  <path d="M14.05 31.45 c-0.60 -1.40 -0.50 -4.65 0.20 -5.35 0.15 -0.15 0.60 0.15 1.05 0.70 0.65 0.80 0.75 0.85 0.50 0.10 -0.20 -0.65 0 -0.90 0.65 -0.90 0.75 0 0.95 0.55 1.25 2.65 0.45 4.05 0.40 4.35 -0.75 4.35 -0.65 0 -0.95 -0.25 -0.80 -0.60 0.10 -0.35 0.05 -1.10 -0.20 -1.65 -0.30 -0.80 -0.40 -0.70 -0.40 0.65 -0.05 2 -0.60 2.05 -1.50 0.05z"/>
  <path d="M35 20 c0 -1.10 -0.20 -2 -0.50 -2 -0.25 0 -0.50 -0.25 -0.50 -0.55 0 -0.30 0.35 -0.45 0.75 -0.25 0.55 0.20 0.75 -0.10 0.75 -1.35 -0.05 -1.50 -0.05 -1.55 -0.75 -0.65 -0.70 0.95 -0.75 0.90 -0.75 -0.85 0 -1.80 0.05 -1.85 1.75 -1.85 1.40 0 1.75 -0.20 1.75 -1 0 -0.75 0.35 -1 1.25 -1 1.65 0 1.60 1 -0.25 2.75 -1.50 1.45 -2.05 3.85 -1 4.50 0.30 0.15 0.50 1.20 0.50 2.30 0 1.05 -0.20 1.95 -0.50 1.95 -0.25 0 -0.50 -0.30 -0.50 -0.60 -0.05 -0.35 -0.35 -1.30 -0.70 -2.15 -0.70 -1.50 -0.70 -1.50 -0.45 0.65 0.20 1.40 0.10 2.10 -0.30 2.10 -0.30 0 -0.55 -0.85 -0.55 -2z"/>
 </g>
 <g fill="#567148">
  <path d="M17.50 38.95 c0 -0.70 0.25 -0.95 0.85 -0.85 1.30 0.25 1.45 1.90 0.20 1.90 -0.75 0 -1.05 -0.30 -1.05 -1.05z"/>
  <path d="M12.15 38.15 c-0.95 -0.20 -1.15 -0.55 -1.15 -2 0 -1.70 0.05 -1.75 0.90 -1 0.50 0.50 1.20 0.85 1.55 0.85 0.80 0 3.05 1.50 3.05 2.05 0 0.45 -2.30 0.50 -4.35 0.10z"/>
  <path d="M18.40 37.65 c-1.40 -0.35 -1.10 -1.65 0.35 -1.65 0.90 0 1.25 -0.25 1.25 -1 0 -0.80 0.35 -1 1.50 -1 0.85 0 1.50 -0.20 1.50 -0.50 0 -0.25 -0.55 -0.50 -1.25 -0.50 -0.70 0 -1.25 -0.20 -1.25 -0.50 0 -0.25 -0.45 -0.50 -1 -0.50 -0.80 0 -1 -0.35 -1 -1.75 0 -1.40 0.20 -1.75 1 -1.75 0.75 0 1 0.35 1 1.25 0 1 0.25 1.25 1.25 1.25 0.70 0 1.25 -0.25 1.25 -0.55 0 -0.30 -0.45 -0.40 -1.05 -0.20 -0.95 0.30 -1 0.20 -0.65 -2.10 0.15 -1.30 0.50 -2.75 0.70 -3.15 0.20 -0.40 0.50 -1.60 0.70 -2.60 0.25 -1.45 0.60 -1.90 1.30 -1.90 0.55 0 1 -0.20 1 -0.50 0 -0.25 -0.45 -0.50 -1 -0.50 -0.80 0 -1 -0.35 -1 -1.50 0 -1 -0.25 -1.50 -0.75 -1.50 -0.40 0 -0.75 -0.40 -0.75 -0.95 0 -0.70 -0.50 -1.05 -1.75 -1.25 -1.50 -0.30 -1.75 -0.55 -1.75 -1.75 0 -1.55 0.70 -2.05 3.05 -2.05 1.20 0 1.45 0.20 1.45 1.25 0 1.10 -0.10 1.20 -1.30 0.75 -1.60 -0.65 -1.85 -0.60 -1.45 0 0.15 0.30 0.70 0.50 1.20 0.50 1.20 0 2.35 1.35 3 3.50 l0.55 1.75 -0.25 -1.70 c-0.15 -0.95 -0.65 -2.15 -1.10 -2.65 -0.75 -0.85 -0.75 -0.90 0.50 -0.90 1.15 0 1.35 0.20 1.35 1.50 0 1.25 0.20 1.50 1.75 1.80 1 0.15 1.90 0.20 2.10 0.05 0.60 -0.60 -2.20 -3.25 -3.95 -3.80 -1.70 -0.55 -1.90 -0.75 -1.90 -2.30 0 -1.35 0.20 -1.75 0.90 -1.75 1.20 0 7.45 3.10 6.75 3.35 -0.30 0.10 -1.50 -0.25 -2.65 -0.85 -1.15 -0.60 -2.35 -0.95 -2.65 -0.80 -0.35 0.10 -0.25 0.25 0.20 0.25 0.45 0.05 1.75 0.70 2.85 1.55 2.45 1.75 3.10 1.85 3.10 0.50 0 -0.65 0.35 -1 1 -1 0.55 0 1 0.35 1 0.75 0 0.40 0.45 0.75 1 0.75 0.75 0 1 -0.35 1 -1.25 0 -1.10 0.20 -1.25 1.80 -1.25 1.65 0 1.75 0.10 1.60 1.35 -0.10 0.85 -0.60 1.60 -1.25 1.90 -1.30 0.55 -1.35 0.75 -0.70 4.10 1.15 5.80 1.15 5.75 -1.50 9.80 -1.35 2.10 -3 4.20 -3.75 4.70 -0.70 0.50 -2.30 1.75 -3.50 2.80 -1.25 1 -2.55 1.85 -2.95 1.85 -0.35 0 -1.10 0.15 -1.60 0.35 -0.80 0.30 -0.80 0.25 -0.20 -0.50 0.35 -0.45 1.05 -0.85 1.50 -0.85 1.40 0 4.15 -2.65 3.60 -3.45 -0.40 -0.60 -0.60 -0.60 -1.30 0.10 -0.45 0.50 -0.65 0.85 -0.40 0.85 0.20 0 -0.25 0.35 -1.05 0.75 -0.75 0.40 -1.95 0.75 -2.60 0.75 -0.80 0 -1.20 0.30 -1.20 0.90 0 1.75 -1.30 2.35 -3.60 1.75z m12.10 -6.75 c1.15 -1.30 1.35 -2.30 0.20 -1.40 -0.80 0.70 -1.90 2.50 -1.50 2.50 0.15 0 0.70 -0.50 1.30 -1.10z m3.40 -2.35 c3.45 -5.30 3.85 -7.10 2.30 -10.15 -0.45 -0.85 -0.70 -2.20 -0.55 -3.05 0.20 -1.50 0.20 -1.50 -0.65 -0.50 -0.55 0.70 -1.70 1.20 -3.30 1.40 -2.75 0.40 -5.70 1.95 -5.70 3.05 0 0.50 0.25 0.45 0.95 -0.25 1.25 -1.25 4.30 -2.20 6.55 -1.95 1.55 0.15 1.80 0.35 2.20 2 0.40 1.55 0.25 2.25 -0.75 4.25 -0.65 1.35 -1.40 2.50 -1.60 2.55 -0.20 0.10 -0.15 0.50 0.10 0.80 0.40 0.45 0.10 1.20 -0.95 2.60 -0.80 1.05 -1.50 2.15 -1.50 2.35 0 0.85 1.15 -0.40 2.90 -3.10z m-7.20 1.15 c0.25 -0.90 0.10 -1.60 -0.50 -2.25 -0.80 -0.85 -0.90 -0.90 -1.45 -0.10 -0.45 0.60 -0.45 1.20 -0.05 2.25 0.65 1.75 1.60 1.80 2 0.10z m3.30 -1.80 c0 -0.25 -0.35 -0.40 -0.75 -0.40 -0.50 0 -0.75 0.50 -0.75 1.35 0 1.30 0.05 1.30 0.75 0.35 0.40 -0.50 0.75 -1.10 0.75 -1.30z m3 -3.75 c0 -0.50 0.45 -1.45 1 -2.15 1.25 -1.60 1.35 -4 0.15 -4 -1.15 0 -4.15 1.10 -4.15 1.55 0 0.20 -0.55 0.50 -1.20 0.65 -0.80 0.20 -1.60 1.10 -2.35 2.55 -1.50 2.95 -0.95 3.65 2.30 2.90 2.10 -0.50 2.25 -0.45 2.25 0.50 0 1.05 0 1.05 1 -0.05 0.55 -0.60 1 -1.45 1 -1.95z"/>
  <path d="M14.50 35.70 l-1.70 -1.20 1.60 0 c0.95 0 1.75 0.30 1.90 0.75 0.60 1.45 -0.10 1.60 -1.80 0.45z"/>
  <path d="M13.25 26.90 c-0.20 -1.20 -0.25 -3.50 -0.15 -5.15 l0.15 -3 1.70 -0.15 c1 -0.10 1.85 0.10 2.10 0.50 0.60 0.90 0.55 4.90 -0.05 4.90 -0.25 0 -0.35 1.05 -0.15 2.50 0.20 1.70 0.10 2.50 -0.30 2.50 -0.30 0 -0.55 -0.55 -0.55 -1.20 0 -0.70 -0.20 -1.35 -0.50 -1.55 -0.25 -0.15 -0.40 0.35 -0.25 1.25 0.15 1.20 0 1.50 -0.75 1.50 -0.70 0 -1 -0.50 -1.25 -2.10z"/>
  <path d="M16 4.20 c0 -1.70 0.05 -1.75 1.65 -1.60 1.40 0.15 1.60 0.35 1.75 1.80 0.15 1.55 0.10 1.60 -1.60 1.60 -1.75 0 -1.80 -0.05 -1.80 -1.80z"/>
 </g>
 <g fill="#87434a">
  <path d="M8 38.50 c0 -1.05 -0.25 -1.50 -0.80 -1.50 -0.65 0 -0.60 -0.25 0.30 -1.50 1.25 -1.75 2 -1.95 2 -0.50 0 0.55 0.25 1 0.50 1 0.30 0 0.50 -0.35 0.50 -0.75 0 -1.05 0.90 -0.95 1.60 0.20 0.30 0.50 0.90 0.85 1.25 0.70 0.40 -0.15 0.65 0.15 0.65 0.80 0 0.70 -0.30 1.05 -0.95 1.05 -0.50 0 -1.05 0.45 -1.20 1 -0.20 0.75 -0.70 1 -2.05 1 -1.65 0 -1.80 -0.10 -1.80 -1.50z"/>
  <path d="M28.50 33.75 c0.70 -0.80 0.65 -0.85 -0.40 -0.55 -0.95 0.35 -1.10 0.20 -1.10 -1.15 0 -1.30 0.20 -1.55 1.25 -1.55 1.10 0 1.25 -0.20 1.25 -1.75 0 -1.65 0.10 -1.75 1.75 -1.75 2.15 0 2.35 1.15 0.45 2.10 -0.75 0.35 -1.70 1.20 -2.15 1.90 -0.50 0.70 -0.55 1.05 -0.15 0.80 0.40 -0.20 0.60 -0.05 0.60 0.50 0 0.65 0.15 0.70 0.75 0.20 0.40 -0.35 0.75 -0.40 0.75 -0.15 0 0.40 -1.15 1.15 -3.25 2.10 -0.25 0.10 -0.15 -0.20 0.25 -0.70z"/>
  <path d="M14.50 30.50 c0 -1.10 0.20 -2 0.40 -2 0.20 0 0.45 0.90 0.50 2 0.10 1.15 -0.10 2 -0.40 2 -0.25 0 -0.50 -0.90 -0.50 -2z"/>
  <path d="M16.10 30.50 c-0.10 -1.70 0 -2 0.90 -2 0.85 0 1 0.35 1 2 0 1.55 -0.20 2 -0.85 2 -0.70 0 -0.95 -0.50 -1.05 -2z"/>
  <path d="M37 21.25 c0 -1.40 -1 -3.80 -1.45 -3.50 -0.20 0.10 -0.65 -0.05 -1.05 -0.35 -0.65 -0.40 -0.60 -0.45 0.05 -0.25 0.65 0.20 0.90 -0.10 1.05 -1.45 0.25 -1.95 0.25 -1.95 -0.80 -0.90 -0.75 0.70 -0.80 0.65 -0.80 -0.50 0 -1.15 0.20 -1.30 1.75 -1.30 l1.75 0 -0.30 2.20 c-0.20 1.35 -0.10 2.30 0.25 2.50 0.70 0.45 0.75 4.80 0.05 4.80 -0.25 0 -0.50 -0.55 -0.50 -1.25z"/>
 </g>
 <g fill="#79534f">
  <path d="M4.50 39.65 c0.05 -0.80 1.40 -2.15 2.10 -2.15 0.45 0 1.35 -0.45 2.05 -1 1.30 -1 4.15 -1.40 3.60 -0.50 -0.15 0.30 -0.05 0.50 0.20 0.50 0.75 0 0.70 2.15 -0.05 2.90 -0.65 0.65 -7.90 0.85 -7.90 0.25z"/>
  <path d="M14 33.75 c0 -0.90 -0.25 -1.25 -1 -1.25 -0.80 0 -1 -0.35 -1 -1.75 0 -1.20 0.25 -1.75 0.75 -1.75 0.45 0 0.75 -0.45 0.75 -1.05 0 -1.45 1.75 -1.05 1.80 0.45 0.05 0.60 0.10 1.95 0.15 3 0.05 1.35 0.20 1.65 0.55 1.10 0.25 -0.40 0.35 -1.95 0.15 -3.35 l-0.30 -2.65 1.65 0 1.65 0 -0.30 2.30 c-0.10 1.30 -0.55 2.50 -0.90 2.70 -0.35 0.25 -0.60 1.10 -0.60 1.95 0 1.40 -0.15 1.55 -1.70 1.55 -1.45 0 -1.65 -0.15 -1.65 -1.25z"/>
  <path d="M28.45 33.85 c0.75 -0.95 0.40 -1.10 -0.95 -0.35 -0.75 0.40 -0.95 0.25 -1.15 -0.90 -0.15 -0.75 -0.05 -1.65 0.25 -2 0.30 -0.35 0.40 -1.45 0.20 -2.55 l-0.30 -1.90 2.30 -0.35 c4.10 -0.55 4.30 -0.50 4.10 1.35 -0.10 1 -0.40 1.60 -0.90 1.60 -1 0 -2.60 1.80 -2.30 2.60 0.15 0.35 0.10 0.60 -0.10 0.50 -0.20 -0.05 -0.40 0.15 -0.45 0.40 -0.20 0.65 0.90 0.70 1.75 0.10 0.35 -0.30 0.60 -0.30 0.60 0 0 0.40 -1.15 1.15 -3.25 2.10 -0.25 0.10 -0.20 -0.15 0.20 -0.60z"/>
  <path d="M36.50 24.50 c0.80 -1.55 0.70 -5.55 -0.20 -7.25 -0.45 -0.80 -0.65 -1.90 -0.50 -2.35 0.20 -0.65 0.05 -0.80 -0.50 -0.60 -0.60 0.25 -0.80 0 -0.80 -0.90 0 -1.25 1.35 -2.90 2.40 -2.90 0.35 0 0.60 -0.35 0.60 -0.75 0 -0.45 0.45 -0.75 1.25 -0.75 1.80 0 1.70 2.10 -0.25 4.15 -1.50 1.60 -2 4 -1 4.60 0.30 0.15 0.50 1.55 0.50 3.05 0 2.80 -0.60 4.70 -1.55 4.70 -0.30 0 -0.30 -0.35 0.05 -1z"/>
  <path d="M14.85 23.65 c-0.20 -0.15 -0.35 -0.85 -0.35 -1.45 0 -0.85 0.20 -1.10 0.75 -0.90 0.55 0.25 0.65 0.10 0.45 -0.55 -0.25 -0.55 -0.50 -0.65 -0.85 -0.30 -0.95 0.95 -1.35 0.60 -1.35 -1.20 0 -1.65 0.10 -1.75 1.75 -1.75 1.50 0 1.75 0.15 1.75 1.20 0 0.65 0.25 1.30 0.50 1.40 0.30 0.10 0.65 1 0.85 2.05 0.30 1.85 0.25 1.85 -1.45 1.85 -0.95 0 -1.90 -0.15 -2.05 -0.35z"/>
 </g>
 <g fill="#5e6b53">
  <path d="M7.85 39.65 c-0.20 -0.15 -0.35 -0.75 -0.35 -1.25 0 -0.65 0.35 -0.90 1.30 -0.90 1.20 0 1.25 0.10 0.65 0.85 -0.65 0.75 -0.60 0.75 0.45 0.20 0.95 -0.50 1.10 -0.45 1.10 0.45 0 0.75 -0.35 1 -1.40 1 -0.80 0 -1.60 -0.15 -1.75 -0.35z"/>
  <path d="M15.40 39.40 c-1 -0.35 -1.40 -0.85 -1.40 -1.65 l0 -1.15 2.50 0.80 c1.70 0.60 2.50 1.10 2.50 1.75 0 0.95 -1.40 1.10 -3.60 0.25z"/>
  <path d="M18.25 37.55 c-1.70 -0.45 -3.75 -1.60 -3.75 -2.15 0 -0.25 0.45 -0.40 1 -0.40 0.55 0 1 -0.20 1 -0.50 0 -0.25 -0.45 -0.50 -1 -0.50 -0.80 0 -1 -0.35 -1 -1.75 0 -2.20 1 -2.30 1.05 -0.10 l0.05 1.60 0.55 -1.65 c0.40 -1.25 0.75 -1.60 1.45 -1.45 0.75 0.20 0.90 -0.05 0.90 -1.45 0 -1.55 0.15 -1.70 1.45 -1.70 2.40 0 4 0.85 4.35 2.35 0.25 0.85 0.15 1.40 -0.20 1.55 -0.35 0.10 -0.60 0.50 -0.60 0.90 0 0.40 -0.20 0.70 -0.45 0.70 -0.25 0 -0.55 0.50 -0.65 1.15 -0.10 0.80 -0.60 1.20 -1.90 1.40 -1.60 0.30 -1.60 0.30 -0.35 0.40 1.05 0.05 1.40 0.25 1.25 0.90 -0.20 1.05 -1.05 1.20 -3.15 0.70z m2.25 -4.10 c0 -0.50 -2 -0.95 -2.80 -0.60 -1.25 0.45 -0.75 0.95 1.05 0.95 0.95 0 1.75 -0.15 1.75 -0.35z m2.50 -3.05 c0 -0.25 -0.35 -0.35 -0.75 -0.20 -0.50 0.20 -0.95 -0.10 -1.20 -0.80 l-0.40 -1.10 -0.30 1.15 c-0.20 0.85 0 1.20 0.80 1.50 1.20 0.45 1.85 0.30 1.85 -0.55z"/>
  <path d="M25.50 36.15 c0.70 -0.45 1.85 -1.35 2.65 -2.05 0.75 -0.70 1.35 -1.05 1.35 -0.75 0 0.80 -3.40 3.65 -4.40 3.65 -0.60 0 -0.50 -0.20 0.40 -0.85z"/>
  <path d="M25 33.30 c0 -1.25 0.85 -1.80 2.80 -1.80 1.10 0 1.15 0.10 0.60 1 -0.35 0.55 -1.25 1.20 -2 1.45 -1.25 0.45 -1.40 0.40 -1.40 -0.65z"/>
  <path d="M26.90 28.50 c0.20 -2.35 0.35 -2.55 1.85 -2.50 1.35 0.05 6.25 -4.25 6.25 -5.50 0 -0.25 0.20 -0.50 0.45 -0.50 0.45 0 -1.30 5.50 -1.90 6 -0.15 0.15 -0.30 0.70 -0.30 1.25 0 0.55 -0.40 1.05 -0.85 1.15 -0.60 0.10 -0.90 -0.15 -0.90 -0.65 0 -0.60 -0.25 -0.75 -0.80 -0.55 -0.45 0.15 -0.90 0.30 -1 0.30 -0.10 0 -0.20 0.80 -0.20 1.75 0 1.60 -0.15 1.75 -1.35 1.75 -1.35 0 -1.40 -0.05 -1.25 -2.50z"/>
  <path d="M13.50 28 c0 -0.80 -0.20 -1.50 -0.50 -1.50 -0.25 0 -0.50 -0.90 -0.50 -2 0 -1.35 0.20 -2 0.70 -2 0.50 0 0.60 -0.55 0.40 -2.25 -0.20 -2.05 -0.15 -2.25 0.85 -2.25 0.80 0 1.05 -0.30 1.05 -1.25 0 -1.80 1.35 -1.60 1.70 0.25 0.15 0.85 0.45 2.20 0.60 3 0.50 2.60 4.70 5.95 4.70 3.75 0 -0.40 0.25 -0.75 0.50 -0.75 0.30 0 0.50 0.80 0.50 1.75 0 1.65 -0.10 1.75 -1.75 1.75 -0.95 0 -1.75 -0.20 -1.75 -0.50 0 -0.25 -0.35 -0.50 -0.75 -0.50 -0.40 0 -0.75 -0.20 -0.75 -0.50 0 -0.25 -0.20 -0.50 -0.45 -0.50 -0.25 0 -0.55 1.15 -0.75 2.50 -0.35 2.70 -1.30 3.45 -1.30 1.05 0 -0.85 -0.25 -1.65 -0.55 -1.85 -0.30 -0.15 -0.50 0.05 -0.45 0.60 0.20 1.90 0 2.70 -0.75 2.70 -0.50 0 -0.75 -0.50 -0.75 -1.50z m2.60 -6.80 c-0.45 -0.60 -1.05 -0.95 -1.30 -0.80 -0.25 0.15 -0.10 0.50 0.35 0.85 0.45 0.35 0.75 0.70 0.60 0.85 -0.15 0.10 0.05 0.25 0.45 0.25 0.60 0 0.55 -0.25 -0.10 -1.15z"/>
  <path d="M9.50 27.05 c-0.85 -1.65 -0.60 -3.05 0.50 -3.05 0.85 0 1 0.35 1 2 0 2.15 -0.65 2.60 -1.50 1.05z"/>
  <path d="M36.35 24.75 c0.45 -0.95 1.05 -1.75 1.25 -1.75 0.25 0 0.40 0.15 0.30 0.40 -1.10 2.25 -1.65 3.10 -2 3.10 -0.20 0 0 -0.80 0.45 -1.75z"/>
  <path d="M25 22.25 c0 -1.50 0.15 -1.75 1.20 -1.75 0.95 0 1.15 0.20 0.95 1 -0.15 0.55 -0.45 1 -0.70 1 -0.25 0 -0.45 0.35 -0.45 0.75 0 0.40 -0.20 0.75 -0.50 0.75 -0.25 0 -0.50 -0.80 -0.50 -1.75z"/>
  <path d="M9 20.90 c0 -1.50 0.65 -2.90 1.30 -2.90 0.45 0 0.70 0.60 0.70 1.75 0 1.40 -0.20 1.75 -1 1.75 -0.55 0 -1 -0.30 -1 -0.60z"/>
  <path d="M22.20 19.65 c-0.40 -2.45 -2.55 -5.65 -3.75 -5.65 -0.75 0 -0.95 -0.40 -0.95 -1.75 0 -1.65 -0.10 -1.75 -1.55 -1.75 -1.35 0 -1.50 -0.10 -0.95 -0.75 0.75 -0.90 0.35 -4.80 -0.75 -7.45 -1 -2.35 -1 -2.30 0.95 -2.30 1.25 0 1.90 0.30 2.50 1.25 0.80 1.20 0.80 1.25 -0.25 1.25 -0.85 0 -1 0.20 -0.75 1.15 0.15 0.60 0.45 2.35 0.60 3.90 l0.35 2.80 3.30 0.45 c3.10 0.40 3.30 0.55 3.45 1.85 0.10 0.75 0.45 1.35 0.90 1.35 0.45 0 0.70 0.55 0.70 1.75 0 2.20 -1.30 2.40 -1.75 0.25 -0.50 -2.20 -4.75 -5.35 -4.75 -3.50 0 0.30 0.55 0.50 1.25 0.50 1.80 0 3.10 2.35 3.20 5.80 0.05 2.05 -0.15 2.70 -0.70 2.70 -0.45 0 -0.85 -0.70 -1.05 -1.85z"/>
  <path d="M28 19.35 c0 -1.05 1.10 -1.85 2.60 -1.85 1.75 0 1.80 0.65 0.15 1.70 -1.45 0.95 -2.75 1.05 -2.75 0.15z"/>
  <path d="M10 17.15 c0 -0.65 3.20 -5.65 3.60 -5.65 0.20 0 0.40 0.80 0.40 1.75 0 0.95 -0.20 1.75 -0.45 1.75 -0.25 0 -0.60 0.55 -0.75 1.25 -0.25 0.90 -0.65 1.25 -1.55 1.25 -0.70 0 -1.25 -0.15 -1.25 -0.35z"/>
  <path d="M29.50 14.45 c0 -0.55 0.20 -0.85 0.50 -0.70 0.70 0.45 2.10 -0.75 1.80 -1.55 -0.15 -0.35 0.30 -0.70 1.10 -0.85 0.75 -0.10 1.75 -0.40 2.25 -0.60 0.60 -0.25 0.85 -0.15 0.85 0.45 0 0.45 0.20 0.80 0.45 0.80 0.65 0 1.15 1.70 0.75 2.70 -0.15 0.45 -0.65 0.80 -1.05 0.80 -0.65 0 -0.65 -0.20 0.10 -1.35 l0.90 -1.40 -1.20 1 c-0.65 0.55 -1.35 1.25 -1.55 1.50 -0.20 0.30 -0.40 0 -0.40 -0.60 0 -0.65 -0.20 -1.15 -0.50 -1.15 -0.25 0 -0.50 0.45 -0.50 1 0 0.80 -0.35 1 -1.75 1 -1.45 0 -1.75 -0.20 -1.75 -1.05z"/>
  <path d="M20.50 8.25 c0 -1.95 0.45 -2.20 1.40 -0.75 0.35 0.55 0.95 1 1.35 1 0.40 0 0.75 0.35 0.75 0.75 0 0.50 -0.55 0.75 -1.75 0.75 -1.65 0 -1.75 -0.10 -1.75 -1.75z"/>
  <path d="M38.60 2.40 c-0.90 -0.90 -0.75 -1.40 0.40 -1.40 0.65 0 1 0.35 1 1 0 1.15 -0.50 1.30 -1.40 0.40z"/>
 </g>
 <g fill="#5f7e4b">
  <path d="M10.50 38.85 c0 -0.35 0.30 -0.95 0.65 -1.30 0.50 -0.55 0.50 -0.65 0 -0.35 -0.40 0.20 -0.65 0.05 -0.65 -0.35 0 -0.55 0.55 -0.75 1.75 -0.70 1.65 0.05 1.75 0.15 1.75 1.70 0 1.55 -0.10 1.65 -1.75 1.65 -1.10 0 -1.75 -0.25 -1.75 -0.65z"/>
  <path d="M28 34.25 c0.65 -0.70 1.45 -1.25 1.80 -1.25 0.40 0 1.50 -0.80 2.50 -1.80 1.05 -1.10 1.60 -1.40 1.25 -0.80 -0.30 0.60 -1.15 1.45 -1.85 1.95 -0.70 0.50 -1.90 1.40 -2.70 2.05 -1.85 1.50 -2.45 1.40 -1 -0.15z"/>
  <path d="M27 32.90 c0 -0.35 0.60 -0.95 1.35 -1.25 l1.30 -0.65 -1.15 1.25 c-1.35 1.45 -1.50 1.50 -1.50 0.65z"/>
  <path d="M23 30 c0 -0.25 -0.35 -0.35 -0.75 -0.20 -0.60 0.25 -0.75 -0.15 -0.75 -1.75 0 -1.85 -0.10 -2.05 -1.25 -2.05 -1.05 0 -1.25 -0.25 -1.25 -1.55 l0 -1.50 1.45 1 c1.70 1.25 2.05 0.95 2.05 -1.55 0 -1.55 0.15 -1.90 1 -1.90 0.65 0 1 -0.35 1 -0.95 0 -1.80 3 -3.50 6.55 -3.80 l3.20 -0.25 -2.75 0.65 c-3.10 0.70 -5.50 2.10 -5.50 3.20 0 0.50 0.45 0.35 1.65 -0.55 1.20 -0.90 2.50 -1.35 4.65 -1.50 3.20 -0.30 3.30 -0.40 -2.10 2.05 -2.60 1.15 -3.90 2.55 -4.50 4.85 -0.20 0.95 -0.10 1.40 0.50 1.60 0.45 0.15 0.80 0.65 0.80 1 0 0.60 -0.25 0.55 -1.30 -0.10 -1.10 -0.75 -1.20 -1.10 -0.95 -2.80 0.20 -1.20 0.15 -1.90 -0.20 -1.90 -0.25 0 -0.65 0.85 -0.80 1.90 -0.15 1 -0.40 2.30 -0.50 2.80 -0.10 0.55 0.25 1.60 0.80 2.40 l1 1.40 -1 0 c-0.60 0 -1.05 -0.20 -1.05 -0.50z"/>
  <path d="M31.50 28.10 c0 -0.75 -0.30 -0.85 -1.75 -0.70 -2.30 0.25 -2.40 -1.05 -0.10 -1.70 2.85 -0.90 4.60 0.55 3.20 2.70 -0.60 0.90 -1.35 0.75 -1.35 -0.30z"/>
  <path d="M13.55 25.50 c0.10 -1.05 0 -2.10 -0.20 -2.30 -0.20 -0.20 -0.35 -1.10 -0.35 -2.05 0 -1.35 0.20 -1.65 1.05 -1.65 0.65 0 0.95 0.25 0.80 0.65 -0.30 0.75 0.60 2.05 1.55 2.25 0.85 0.15 0.75 -0.75 -0.15 -1.10 -0.80 -0.30 -1.05 -1.80 -0.25 -1.80 0.95 0 1.50 1.95 1.30 4.75 -0.10 1.55 -0.35 2.95 -0.55 3.15 -0.35 0.40 -1.20 -0.85 -1.05 -1.60 0.05 -0.30 -0.10 -0.05 -0.40 0.60 -0.85 1.90 -1.90 1.35 -1.75 -0.90z"/>
  <path d="M34.10 22.15 c0.45 -0.50 0.95 -1.40 1.15 -2.05 0.20 -0.65 0.45 -1.05 0.60 -0.95 0.50 0.50 -1.05 3.85 -1.80 3.85 -0.60 0 -0.60 -0.15 0.05 -0.85z"/>
  <path d="M37.05 19.40 c0 -0.75 -0.25 -1.45 -0.50 -1.60 -0.60 -0.40 -1.05 -2.30 -0.50 -2.30 0.25 0 0.45 0.40 0.45 0.90 0 0.50 0.25 1.15 0.55 1.45 0.30 0.30 0.45 1.05 0.30 1.70 -0.20 1.10 -0.20 1.10 -0.30 -0.15z"/>
  <path d="M36 11.65 c0 -1.55 0.10 -1.65 1.70 -1.65 1.50 0 1.70 0.15 1.60 1.15 -0.20 1.80 -0.70 2.35 -2.05 2.25 -1.05 -0.10 -1.25 -0.40 -1.25 -1.75z"/>
  <path d="M25.50 11.50 c0 -0.25 -0.55 -0.50 -1.25 -0.50 -1 0 -1.25 -0.25 -1.25 -1.30 0 -1.20 0.10 -1.25 1.65 -0.95 1.90 0.45 4.55 1.70 4.20 2.05 -0.15 0.15 -0.95 -0.10 -1.80 -0.50 -1.70 -0.90 -2.55 -1 -2.55 -0.35 0 0.20 0.85 0.75 1.90 1.20 1.75 0.70 1.80 0.75 0.50 0.80 -0.80 0.05 -1.40 -0.15 -1.40 -0.45z"/>
 </g>
 <g fill="#924f58">
  <path d="M6.05 38.90 c0 -0.75 0.85 -1.85 2.30 -3.05 2.15 -1.80 2.30 -1.85 3.20 -1.05 0.50 0.45 0.80 1.05 0.65 1.30 -0.20 0.30 0.10 0.35 0.75 0.15 1.05 -0.35 1.45 0.45 0.65 1.50 -1.20 1.70 -6.20 3.25 -5.30 1.65 0.30 -0.50 0.20 -0.50 -0.35 0 -1.05 0.95 -1.95 0.70 -1.90 -0.50z m5.45 -1.80 c0 -0.45 -2.20 1.25 -2.40 1.85 -0.10 0.35 0.35 0.15 1.10 -0.50 0.70 -0.60 1.30 -1.25 1.30 -1.35z"/>
  <path d="M13.15 34.35 c0.15 -0.35 -0.05 -1.05 -0.45 -1.60 -0.40 -0.50 -0.70 -1.70 -0.70 -2.60 0 -1.45 0.15 -1.65 1.25 -1.65 1.35 0 1.60 -0.90 1.30 -5.25 -0.15 -2.05 0.60 -2.05 1.10 0 0.20 0.85 0.25 0.85 0.30 -0.20 0.05 -1 0.15 -1.05 0.80 -0.55 1 0.80 0.95 0.30 -0.05 -0.70 -0.70 -0.75 -0.70 -0.80 0.25 -0.80 1.60 0 2.15 1.75 1.95 5.85 -0.15 2.80 -0.40 3.90 -1.05 4.40 -0.45 0.35 -0.85 1.10 -0.85 1.70 0 0.85 -0.30 1.05 -1.80 1.05 -1.05 0 -1.65 0.20 -1.45 0.50 0.15 0.30 0.05 0.50 -0.25 0.50 -0.35 0 -0.50 -0.30 -0.35 -0.65z m3.35 -3.05 c0.20 -1.05 0.20 -1.70 -0.05 -1.50 -0.40 0.25 -0.70 -2.50 -0.45 -4.30 0.05 -0.60 -0.05 -0.60 -0.50 -0.15 -0.45 0.40 -0.50 1.65 -0.25 4.40 0.35 4.10 0.60 4.35 1.25 1.55z"/>
  <path d="M25.50 32.80 c0 -0.65 0.35 -1.45 0.75 -1.80 0.40 -0.35 0.75 -1.10 0.75 -1.70 0 -2.20 0.60 -3.30 1.70 -3.30 0.60 0 1.55 -0.35 2.10 -0.75 1.70 -1.25 4.05 -0.85 2.75 0.55 -0.25 0.25 -0.55 1 -0.65 1.70 -0.10 0.70 -0.50 1.25 -0.90 1.25 -0.40 0 -1.50 0.95 -2.40 2.10 -1.45 1.90 -3 3.15 -3.80 3.15 -0.15 0 -0.30 -0.55 -0.30 -1.20z"/>
  <path d="M36.95 23.65 c0.60 -1.20 0.25 -4.45 -0.70 -6.50 -0.85 -1.70 -0.55 -2.85 0.95 -4.10 0.50 -0.45 0.65 -1.10 0.45 -2.10 -0.25 -1.30 -0.15 -1.45 1.05 -1.45 1.80 0 1.70 1.60 -0.20 3.65 -1.95 2.10 -2.25 3.15 -1.30 4.60 1.20 1.80 1 6.75 -0.25 6.75 -0.30 0 -0.30 -0.35 0 -0.85z"/>
  <path d="M34 14.60 c0 -1.40 0.80 -2.20 1.90 -2 1 0.15 0.95 0.25 -0.40 1.50 -1.25 1.15 -1.50 1.20 -1.50 0.50z"/>
 </g>
 <g fill="#786c5a">
  <path d="M7 38.75 c0 -0.90 0.35 -1.30 1.25 -1.55 1.90 -0.45 1.95 -0.05 0.25 1.45 l-1.50 1.35 0 -1.25z"/>
  <path d="M8.25 39.50 c0.20 -0.30 0.55 -0.40 0.80 -0.25 0.25 0.20 0.45 0.10 0.45 -0.10 0 -0.25 0.45 -0.70 1 -1.05 0.90 -0.55 1 -0.50 1 0.65 0 1.10 -0.20 1.25 -1.80 1.25 -1.05 0 -1.65 -0.20 -1.45 -0.50z"/>
  <path d="M28.10 34.25 c0.75 -0.70 1.50 -1.25 1.70 -1.25 0.20 0 -0.15 0.55 -0.80 1.25 -0.65 0.70 -1.40 1.25 -1.70 1.25 -0.30 0 0.05 -0.55 0.80 -1.25z"/>
  <path d="M24.50 32.75 c0 -1.25 0.20 -1.65 0.65 -1.45 1.20 0.45 2 -1.15 1.65 -3.25 l-0.30 -1.90 2.35 -0.30 c1.40 -0.15 2.50 -0.55 2.75 -1.05 0.25 -0.45 1 -0.80 1.70 -0.80 1.05 0 1.15 0.15 0.75 0.90 -0.25 0.50 -1.05 1.20 -1.75 1.55 -0.70 0.40 -1.40 1.30 -1.60 2.20 -0.20 1.10 -0.40 1.30 -0.75 0.80 -0.35 -0.55 -0.45 -0.45 -0.45 0.35 0 1.25 -1.50 2.80 -1.50 1.65 -0.05 -0.50 -0.20 -0.40 -0.55 0.20 -0.25 0.45 -0.40 1.05 -0.25 1.30 0.20 0.35 -1.70 1.55 -2.45 1.55 -0.15 0 -0.25 -0.80 -0.25 -1.75z m4 -3.45 c0 -0.65 0.30 -1.35 0.65 -1.45 0.35 -0.15 0.25 -0.30 -0.25 -0.30 -0.50 -0.05 -0.90 0.25 -0.95 0.60 0 0.30 -0.10 1 -0.20 1.50 -0.10 0.45 0.05 0.85 0.30 0.85 0.25 0 0.45 -0.55 0.45 -1.20z"/>
  <path d="M16.50 31.40 c0 -1.50 0.65 -2.90 1.30 -2.90 0.45 0 0.70 0.60 0.70 1.75 0 1.40 -0.20 1.75 -1 1.75 -0.55 0 -1 -0.30 -1 -0.60z"/>
  <path d="M32 27.95 c0.35 -0.55 0.70 -0.90 0.85 -0.75 0.40 0.40 -0.25 1.80 -0.85 1.80 -0.35 0 -0.35 -0.30 0 -1.05z"/>
  <path d="M14 26.45 c0 -0.85 0.20 -1.40 0.50 -1.20 0.30 0.15 0.50 0.85 0.50 1.55 0 0.65 -0.20 1.20 -0.50 1.20 -0.25 0 -0.50 -0.70 -0.50 -1.55z"/>
  <path d="M36.60 24.25 c0.30 -0.70 0.75 -1.25 0.95 -1.25 0.25 0 0.15 0.55 -0.15 1.25 -0.30 0.70 -0.75 1.25 -0.95 1.25 -0.25 0 -0.15 -0.55 0.15 -1.25z"/>
  <path d="M17.45 24.40 c0 -0.35 -0.10 -1.15 -0.25 -1.75 -0.10 -0.75 0.05 -1.15 0.50 -1.15 0.75 0 1.30 1.05 1.30 2.55 0 1.05 -1.50 1.35 -1.55 0.35z"/>
  <path d="M13 20.75 c0 -0.80 -0.30 -1.25 -0.75 -1.25 -0.50 0 -0.75 -0.55 -0.75 -1.75 0 -1.65 0.10 -1.75 1.75 -1.75 1.55 0 1.75 0.15 1.75 1.25 0 0.80 0.30 1.25 0.75 1.25 0.50 0 0.75 0.50 0.75 1.55 0 1.70 -1 1.55 -1.05 -0.20 0 -1.10 0 -1.10 -0.50 0.05 -0.25 0.65 -0.35 1.40 -0.15 1.65 0.15 0.25 -0.20 0.45 -0.75 0.45 -0.80 0 -1.05 -0.30 -1.05 -1.25z"/>
  <path d="M33.50 14.40 c0 -1.75 0.10 -1.90 1.45 -1.90 1.25 0 1.50 -0.20 1.65 -1.35 0.10 -1.15 0.40 -1.45 1.80 -1.55 0.90 -0.10 1.60 0.05 1.60 0.35 0 0.30 -0.20 0.55 -0.50 0.55 -0.25 0 -0.50 0.60 -0.50 1.30 0 0.85 -0.30 1.40 -1 1.55 -0.55 0.15 -1 0.70 -1 1.20 0 0.50 -0.25 1.05 -0.55 1.25 -0.45 0.25 -0.50 -0.05 -0.25 -1 0.40 -1.65 -0.05 -1.65 -1.50 0.10 l-1.20 1.35 0 -1.85z"/>
 </g>
 <g fill="#687e59">
  <path d="M10.80 38 c1.25 -1.15 2.45 -1.95 2.65 -1.85 0.15 0.10 1.50 0.70 2.95 1.35 4.15 1.90 3.50 2.50 -2.70 2.50 l-5.25 0 2.35 -2z"/>
  <path d="M8 38 c0.30 -0.55 0.85 -1 1.20 -1 0.40 0 0.80 -0.45 0.95 -1 0.15 -0.55 0.60 -1 1.05 -1 1.15 0 1 0.30 -1.05 2.25 -2.15 1.95 -2.95 2.25 -2.15 0.75z"/>
  <path d="M18.40 37.50 c-2.10 -0.65 -5.15 -2.50 -5.80 -3.55 -0.55 -0.85 -0.45 -0.95 0.65 -0.95 0.70 0 1.25 -0.30 1.25 -0.60 0.05 -0.40 0.30 -0.30 0.70 0.25 0.65 0.80 0.75 0.80 1.20 -0.65 0.30 -0.80 0.90 -1.50 1.30 -1.50 0.45 0 0.80 -0.35 0.80 -0.75 0 -0.40 0.25 -0.75 0.50 -0.75 0.30 0 0.50 -0.45 0.50 -1.05 0 -0.55 0.40 -1.15 0.90 -1.25 1.25 -0.35 2.10 -2.55 2.10 -5.60 0 -3.60 -2.05 -7.10 -4.10 -7.10 -1.15 0 -1.40 0.20 -1.40 1.25 0 0.90 -0.25 1.25 -1 1.25 -0.80 0 -1 -0.35 -1 -1.75 0 -1.55 0.15 -1.75 1.25 -1.75 1.05 0 1.25 -0.25 1.25 -1.50 0 -1 -0.30 -1.65 -0.90 -1.90 -0.55 -0.25 -0.90 -0.95 -0.90 -2.10 -0.10 -1.70 -0.25 -2.50 -1.25 -4.90 -0.75 -1.90 -0.55 -2.60 0.80 -2.60 1.55 0 4.25 2.85 5.80 6.15 0.85 1.80 1.40 2.35 2.30 2.35 0.80 0 1.15 0.30 1.15 0.95 0 0.65 0.55 1.15 1.70 1.55 0.90 0.30 2.20 1.10 2.80 1.75 1.50 1.60 2.20 1.55 2.90 0 0.35 -0.75 1 -1.25 1.65 -1.25 0.65 0 2.15 -1.05 3.60 -2.50 1.35 -1.40 2.55 -2.50 2.65 -2.50 0.10 0 0.20 0.90 0.20 2 0 1.10 -0.20 2 -0.50 2 -0.25 0 -1.65 1.20 -3.15 2.65 -2.15 2.15 -3.15 2.75 -4.90 3.05 -1.15 0.20 -2.90 0.80 -3.85 1.40 -1.70 1.05 -1.75 1.20 -1.05 3.90 0.15 0.55 -0.20 0.70 -1.35 0.60 l-1.55 -0.15 -0.35 3.10 c-0.25 2.70 -0.15 3.25 0.70 4.20 0.55 0.60 1 1.35 1 1.65 0 0.75 0.65 0.75 1.40 0 0.85 -0.85 0.75 -3.15 -0.15 -3.90 -1.20 -1 -0.90 -1.30 1.25 -1.10 1.85 0.20 2.90 1.10 1.30 1.10 -0.40 0 -0.85 0.70 -1 1.65 -0.15 0.85 -0.65 2.25 -1.05 3 -0.40 0.75 -0.50 1.25 -0.25 1.10 0.30 -0.20 0.50 -0.10 0.50 0.10 0 0.60 -2.05 1.80 -3.75 2.15 -0.95 0.20 -1.55 0.65 -1.70 1.25 -0.15 0.90 -0.95 1.80 -1.55 1.70 -0.15 0 -0.85 -0.20 -1.60 -0.45z m2.60 -4 c0 -0.55 -2.25 -1.05 -3.20 -0.70 -1.45 0.55 -0.85 1.10 1.20 1.10 1.10 0 2 -0.15 2 -0.40z m1.95 -3.25 c0.15 -0.85 0.05 -0.90 -0.65 -0.30 -0.70 0.55 -0.85 0.50 -1.25 -0.50 -0.40 -1.05 -0.50 -1.10 -0.80 -0.30 -0.45 1.05 0.60 2.45 1.70 2.25 0.45 -0.10 0.85 -0.60 1 -1.15z m1.55 -13.70 c-0.85 -3 -2.50 -4.50 -4.90 -4.55 -1.20 0 -0.15 0.85 1.35 1.15 1.50 0.30 3.05 2.40 3.05 4.10 0 0.40 0.20 0.75 0.45 0.75 0.30 0 0.30 -0.60 0.05 -1.45z"/>
  <path d="M25.50 36.35 c0 -0.10 1.05 -0.95 2.40 -1.85 l2.35 -1.65 -1.70 1.80 c-1.45 1.50 -3.05 2.40 -3.05 1.70z"/>
  <path d="M32.05 31.70 c0.65 -0.85 1.30 -1.50 1.40 -1.35 0.15 0.10 -0.40 0.80 -1.20 1.55 l-1.40 1.35 1.20 -1.55z"/>
  <path d="M28.50 29.25 c0 -0.70 0.25 -1.25 0.50 -1.25 0.30 0 0.50 0.55 0.50 1.25 0 0.70 -0.20 1.25 -0.50 1.25 -0.25 0 -0.50 -0.55 -0.50 -1.25z"/>
  <path d="M9.55 26.80 c-0.75 -3.10 -0.70 -3.80 0.40 -3.80 0.90 0 1.55 1.95 1.55 4.90 0 2 -1.35 1.20 -1.95 -1.10z"/>
  <path d="M35.30 26.60 c0.80 -1.40 1.65 -2.60 1.85 -2.60 0.50 0 -1.65 3.85 -2.55 4.65 -0.40 0.30 -0.10 -0.60 0.70 -2.05z"/>
  <path d="M13 24.75 c0 -1.50 0.25 -2.75 0.50 -2.75 0.30 0 0.50 -0.65 0.50 -1.50 0 -0.80 0.25 -1.50 0.55 -1.50 0.30 0 0.40 0.45 0.20 1 -0.20 0.60 -0.10 1.30 0.15 1.65 0.75 0.95 1.15 3.25 0.60 3.60 -0.25 0.15 -0.50 -0.05 -0.50 -0.45 0 -0.45 -0.20 -0.80 -0.50 -0.80 -0.25 0 -0.50 0.20 -0.50 0.45 0 0.30 0.25 0.65 0.50 0.80 0.95 0.60 0.55 2.25 -0.50 2.25 -0.90 0 -1 -0.35 -1 -2.75z"/>
  <path d="M30 26.15 c0 -0.25 0.80 -0.95 1.75 -1.60 0.95 -0.65 1.75 -1.35 1.75 -1.60 0 -0.25 0.35 -0.45 0.75 -0.45 0.40 0 0.75 0.15 0.75 0.30 0 0.60 -1.20 2.50 -1.95 3.05 -0.90 0.70 -3.05 0.85 -3.05 0.30z"/>
  <path d="M16.65 21.80 c-1.40 -1.45 -1.50 -2.80 -0.25 -2.80 0.55 0 1.10 0.60 1.50 1.65 1 2.75 0.60 3.10 -1.25 1.15z"/>
  <path d="M9.50 19.40 c0 -1.50 0.65 -2.90 1.30 -2.90 0.45 0 0.70 0.60 0.70 1.75 0 1.40 -0.20 1.75 -1 1.75 -0.55 0 -1 -0.30 -1 -0.60z"/>
  <path d="M36 15.35 c0 -0.95 2.95 -4.40 3 -3.55 0 0.30 -0.65 1.40 -1.50 2.45 -0.95 1.20 -1.50 1.60 -1.50 1.10z"/>
  <path d="M26.85 10.15 c-0.80 -0.40 -1.30 -0.85 -1.20 -1 0.30 -0.25 3.35 1.20 3.35 1.60 0 0.40 -0.65 0.20 -2.15 -0.60z"/>
  <path d="M38.35 2.15 c-0.75 -0.75 -0.35 -2.15 0.65 -2.15 0.75 0 1 0.35 1 1.25 0 1.20 -0.90 1.70 -1.65 0.90z"/>
 </g>
 <g fill="#698e5d">
  <path d="M10 39.70 c0 -0.70 1.05 -2.10 1.75 -2.40 0.70 -0.25 0.70 -0.10 -0.10 1.20 -0.75 1.35 -1.65 2 -1.65 1.20z"/>
  <path d="M8.50 38.10 c0 -0.90 1.85 -2.60 2.85 -2.60 0.45 0 0.70 0.05 0.60 0.15 -0.10 0.05 -0.95 0.75 -1.85 1.55 -0.85 0.85 -1.60 1.20 -1.60 0.90z"/>
  <path d="M15.60 36.25 c-2 -1.10 -2.20 -1.50 -1.40 -2.95 0.65 -1.30 0.75 -1.30 1.20 -0.45 0.45 0.75 0.55 0.75 0.75 0.15 0.60 -1.80 1.45 -5.40 1.70 -6.90 0.25 -1.60 0.35 -1.65 2.35 -1.50 l2.05 0.15 0.15 -2.40 c0.15 -1.90 0.35 -2.35 1.05 -2.35 1.45 0 1.75 -2.20 0.60 -4.75 l-1 -2.25 2.85 0.30 c1.55 0.20 3.10 0.50 3.35 0.70 0.30 0.20 1.10 0.50 1.90 0.70 1.95 0.45 1.70 1.15 -0.60 1.55 -2.50 0.40 -5.55 2.90 -4.65 3.80 0.60 0.65 0.85 2.45 0.30 2.45 -0.15 0 -0.70 -0.25 -1.25 -0.50 -1.10 -0.60 -1.05 -0.70 -2 3.90 -0.70 3.40 -1.20 4.50 -1.75 3.95 -0.20 -0.15 -0.05 -0.70 0.35 -1.15 0.65 -0.80 0.60 -0.80 -0.40 -0.25 -1.30 0.65 -1.55 2.45 -0.40 2.85 0.85 0.35 1.05 1.70 0.20 1.70 -0.30 0 -0.90 -0.20 -1.35 -0.45 -0.60 -0.30 -1.20 -0.25 -1.80 0.25 -0.80 0.55 -0.85 0.80 -0.30 1.45 0.50 0.60 0.50 0.75 -0.15 0.75 -1.30 0 -1.50 1 -0.25 1.45 0.65 0.30 0.80 0.50 0.40 0.45 -0.40 0 -1.30 -0.30 -1.90 -0.65z"/>
  <path d="M26 36.30 c0 -0.15 0.75 -0.75 1.65 -1.35 1.15 -0.85 1.40 -0.90 0.90 -0.30 -0.70 0.90 -2.55 2.10 -2.55 1.65z"/>
  <path d="M24 33.65 c0 -0.25 0.70 -1.05 1.50 -1.85 1.05 -1.05 1.50 -1.95 1.50 -3.15 0 -0.90 -0.20 -1.65 -0.50 -1.65 -0.25 0 -0.50 -0.25 -0.50 -0.55 0 -0.25 0.20 -0.35 0.50 -0.20 1.10 0.70 4.80 -0.90 6.65 -2.90 1.60 -1.75 1.85 -1.90 1.85 -0.95 0 0.65 -0.30 1.10 -0.80 1.10 -0.40 0 -0.60 0.25 -0.45 0.55 0.65 1.05 -1.80 2.95 -3.80 2.95 -1.50 0 -1.90 0.20 -2.15 1.15 -0.40 1.60 -0.35 2.35 0.20 2.35 0.30 0 0.50 -0.55 0.50 -1.25 0 -0.70 0.15 -1.25 0.40 -1.30 0.20 0 0.75 -0.10 1.25 -0.20 0.45 -0.10 0.85 0.05 0.85 0.30 0 0.25 -0.45 0.45 -1 0.45 -0.75 0 -1 0.35 -1 1.45 0 1.45 -0.75 2.50 -1.10 1.65 -0.05 -0.25 -0.60 0 -1.15 0.55 -0.55 0.55 -0.70 0.85 -0.35 0.65 0.30 -0.20 0.60 -0.15 0.60 0.10 0 0.55 -1.20 1.10 -2.30 1.10 -0.40 0 -0.70 -0.15 -0.70 -0.35z"/>
  <path d="M32 28.30 c0 -0.40 0.25 -0.90 0.50 -1.05 0.30 -0.15 0.50 0.05 0.50 0.45 0 0.40 -0.20 0.90 -0.50 1.05 -0.25 0.15 -0.50 -0.05 -0.50 -0.45z"/>
  <path d="M13 22.50 c0 -1.35 0.25 -2.50 0.50 -2.50 0.30 0 0.50 -0.35 0.50 -0.75 0 -0.50 0.50 -0.75 1.50 -0.75 1.25 0 1.60 0.30 2.50 2.30 1.20 2.75 1.20 2.70 0.25 2.70 -0.40 0 -0.85 -0.55 -1.05 -1.25 -0.15 -0.70 -0.50 -1.15 -0.70 -1 -0.25 0.15 -0.60 -0.35 -0.90 -1.10 l-0.45 -1.40 -0.35 1.20 c-0.25 0.65 -0.20 1.35 0.15 1.70 0.30 0.30 0.55 1.25 0.50 2.10 0 1.25 -0.10 1.35 -0.45 0.50 -0.35 -0.90 -0.40 -0.95 -0.75 -0.10 -0.65 1.60 -1.25 0.85 -1.25 -1.65z"/>
  <path d="M21.80 17.40 c-0.15 -0.65 -0.85 -1.75 -1.55 -2.50 -1.55 -1.65 -1.55 -1.90 -0.10 -1.90 1.55 0 3.35 2.15 3.35 4 0 1.80 -1.25 2.05 -1.70 0.40z"/>
  <path d="M15 14.75 c0 -2.25 0 -2.25 1.75 -2.25 1.90 0 2.50 1.20 0.80 1.65 -0.70 0.15 -0.85 0.55 -0.70 1.55 0.20 1.05 0.10 1.30 -0.80 1.30 -0.90 0 -1.05 -0.30 -1.05 -2.25z"/>
  <path d="M33.90 13.30 c-1.25 -0.90 -1.10 -1.30 0.35 -1.30 0.70 0 1.25 -0.30 1.25 -0.65 0 -0.90 3.10 -3.85 4 -3.85 0.45 0 0.55 0.15 0.25 0.40 -0.25 0.20 -1.05 1.05 -1.75 1.85 l-1.25 1.50 1.30 -1.10 c0.70 -0.65 1.40 -1.15 1.60 -1.15 0.60 0 0.35 1.40 -0.25 1.60 -0.35 0.15 -0.65 0.75 -0.65 1.45 0 0.80 -0.35 1.25 -1 1.35 -1 0.20 -1 0.20 -0.05 -0.85 1.35 -1.50 0.20 -1.30 -1.20 0.20 -1.35 1.45 -1.45 1.45 -2.60 0.55z"/>
 </g>
 <g fill="#985f65">
  <path d="M5.20 38.65 c0.80 -1.60 2.50 -3.25 4.25 -4.15 0.95 -0.50 1.30 -0.45 1.90 0.15 0.70 0.70 0.60 0.95 -1.10 2.45 -1.05 0.90 -2.20 1.95 -2.55 2.30 -0.35 0.30 -1.20 0.60 -1.95 0.60 -1.25 0 -1.25 -0.05 -0.55 -1.35z"/>
  <path d="M13.25 34 c0.15 -0.25 0.05 -0.50 -0.20 -0.50 -0.30 0 -0.55 -0.45 -0.55 -1 0 -0.55 -0.20 -1 -0.50 -1 -0.25 0 -0.50 -0.75 -0.50 -1.70 0 -1.30 0.25 -1.75 1.15 -2 1.95 -0.50 2.25 -0.35 2.45 1.65 0.15 1.90 0.10 1.95 -0.70 1.20 -1.30 -1.20 -1.10 -0.25 0.35 1.45 1.65 1.95 1.60 2.40 -0.30 2.40 -0.85 0 -1.40 -0.20 -1.20 -0.50z"/>
  <path d="M25 33.30 c0 -0.45 0.45 -0.70 1 -0.65 1.20 0.10 1.30 0.65 0.20 1.05 -1.10 0.40 -1.20 0.40 -1.20 -0.40z"/>
  <path d="M26.50 31.45 c0 -0.30 0.45 -0.65 1 -0.80 0.65 -0.15 1 -0.70 1 -1.45 0 -0.65 0.15 -1.20 0.40 -1.25 0.20 0 0.75 -0.10 1.25 -0.20 0.70 -0.15 0.80 0.05 0.55 0.90 -0.50 1.75 -2.30 3.50 -2.80 2.75 -0.30 -0.50 -0.40 -0.50 -0.40 0 0 0.30 -0.20 0.60 -0.50 0.60 -0.25 0 -0.50 -0.25 -0.50 -0.55z"/>
  <path d="M27.40 27.60 c-0.25 -0.90 -0.10 -1.10 0.75 -1.10 0.65 0 0.85 0.15 0.55 0.40 -0.30 0.20 -0.65 0.70 -0.80 1.10 -0.15 0.50 -0.30 0.40 -0.50 -0.40z"/>
  <path d="M17.45 23.15 c-0.05 -0.50 0 -1.20 0.05 -1.60 0.05 -0.45 -0.20 -0.60 -0.70 -0.40 -0.45 0.20 -0.80 0.10 -0.80 -0.15 0 -0.30 0.45 -0.50 1 -0.50 0.80 0 1 0.35 1 1.75 0 1.80 -0.45 2.50 -0.55 0.90z"/>
  <path d="M37.60 21.95 c-0.05 -0.45 -0.25 -1.60 -0.40 -2.50 -0.25 -1.30 -0.20 -1.55 0.25 -1.15 0.35 0.35 0.55 1.40 0.40 2.50 -0.10 1.10 -0.20 1.60 -0.25 1.15z"/>
  <path d="M36.35 17.15 c-0.80 -0.75 -0.25 -2.75 1.15 -4.25 1.80 -2 2 -0.90 0.20 1.25 -0.75 0.85 -1.15 1.90 -1.05 2.45 0.25 0.95 0.20 1.10 -0.30 0.55z"/>
  <path d="M34.85 13.65 c-0.45 -0.75 0.45 -1.75 1.40 -1.55 0.80 0.15 0.75 0.25 -0.15 1.05 -0.55 0.50 -1.10 0.70 -1.25 0.50z"/>
 </g>
 <g fill="#748664">
  <path d="M19.50 37.30 c0 -0.10 0.35 -0.45 0.75 -0.80 0.60 -0.50 0.75 -0.50 0.75 0.20 0 0.45 -0.35 0.80 -0.75 0.80 -0.40 0 -0.75 -0.10 -0.75 -0.20z"/>
  <path d="M26.25 36.20 c0.30 -0.25 1.15 -1 2 -1.70 1.45 -1.20 1.45 -1.20 0.50 -0.10 -0.55 0.65 -1.45 1.40 -2 1.70 -0.55 0.30 -0.75 0.30 -0.50 0.10z"/>
  <path d="M13.40 34.60 c-3.05 -3.25 -4.25 -8.10 -2 -8.10 0.65 0 0.85 -0.45 0.85 -2.10 0 -1.95 0.10 -2.15 1.40 -2.30 1.50 -0.20 1.60 0 0.85 1.45 -0.40 0.65 -0.35 1.25 0.05 2.05 0.45 0.80 0.45 1.15 0 1.30 -0.30 0.10 -0.55 0.70 -0.55 1.35 0 0.65 -0.25 1.25 -0.50 1.35 -0.80 0.25 0.55 3.30 1.60 3.55 1.05 0.30 1.20 1.50 0.25 2.30 -0.50 0.40 -1 0.20 -1.95 -0.85z"/>
  <path d="M19.50 34.55 c0 -0.30 0.35 -0.55 0.75 -0.55 1.15 0 0.90 -0.90 -0.35 -1.30 -0.65 -0.25 -1.30 -0.35 -1.50 -0.30 -0.25 0.05 -0.40 -0.55 -0.40 -1.30 0 -0.80 -0.15 -1.55 -0.30 -1.75 -0.20 -0.15 -0.30 -2.15 -0.30 -4.35 0 -3.20 -0.10 -4 -0.65 -3.80 -0.40 0.15 -0.80 -0.30 -1 -1.10 l-0.40 -1.35 -0.65 1.50 c-0.65 1.50 -0.65 1.45 -0.70 -1.20 0 -2.20 -0.15 -2.60 -0.80 -2.35 -0.45 0.15 -0.90 0.30 -1 0.30 -0.10 0 -0.20 0.35 -0.20 0.75 0 0.40 -0.20 0.75 -0.50 0.75 -0.30 0 -0.50 1.60 -0.50 3.75 0 2.85 -0.15 3.75 -0.70 3.75 -1.30 0 -1.70 -3.80 -0.70 -7.20 0.75 -2.50 3.05 -6.50 5 -8.60 l1.45 -1.55 -0.85 -3.20 c-0.40 -1.75 -0.90 -3.70 -1.05 -4.35 -0.15 -0.65 -0.05 -1.10 0.30 -1.10 0.30 0 0.55 0.30 0.55 0.70 0 0.40 0.55 1.40 1.25 2.25 0.70 0.80 1.60 2.70 2.05 4.15 0.40 1.45 0.95 3.05 1.25 3.60 0.40 0.70 0.40 1.05 -0.10 1.35 -0.85 0.50 -0.50 0.85 1 1.10 1.80 0.25 3 1.70 3.35 3.85 0.20 1.10 0.60 2 0.95 2 0.70 0 1.90 2.40 1.50 3.05 -0.20 0.25 -0.70 0.25 -1.30 -0.10 -0.60 -0.30 -1.15 -0.40 -1.30 -0.30 -0.10 0.15 -0.35 1.70 -0.50 3.40 -0.30 3.35 -1.30 5.90 -1.90 4.95 -0.20 -0.30 -0.10 -0.85 0.20 -1.20 0.40 -0.45 0.35 -0.65 -0.25 -0.65 -0.45 0 -0.90 0.60 -1.05 1.45 -0.15 0.85 -0.50 1.25 -0.85 1.05 -0.30 -0.15 -0.40 -0.10 -0.15 0.10 0.20 0.25 0.85 0.50 1.50 0.60 0.60 0.10 1.25 0.55 1.50 0.95 0.35 0.60 0.90 0.70 2.10 0.50 1.85 -0.35 2.75 0.40 1.40 1.10 -1.50 0.80 -6.15 1.25 -6.15 0.65z m2.80 -14.15 c-0.40 -4.65 -1.60 -6.40 -4.35 -6.40 -1.40 0 -1.55 -0.15 -1.35 -1.25 0.20 -0.95 0.05 -1.25 -0.65 -1.25 -0.70 0 -0.95 0.35 -0.95 1.25 0 0.75 0.30 1.25 0.70 1.25 0.75 0 1.30 1.50 1.30 3.55 0 3 3.65 7.95 5.20 7.05 0.25 -0.10 0.30 -2.05 0.10 -4.20z"/>
  <path d="M28.55 31 c0 -0.40 0.20 -1.20 0.45 -1.75 0.25 -0.65 0.45 -0.70 0.45 -0.25 0 0.40 -0.20 1.20 -0.45 1.75 -0.25 0.65 -0.45 0.70 -0.45 0.25z"/>
  <path d="M27.55 27.90 c-0.05 -0.50 -0.40 -0.90 -0.80 -0.90 -0.40 0 -0.75 -0.20 -0.75 -0.40 0 -0.25 0.70 -0.30 1.55 -0.20 0.85 0.15 1.35 0.35 1.10 0.55 -0.30 0.15 -0.65 0.65 -0.80 1.05 -0.20 0.60 -0.30 0.55 -0.30 -0.10z"/>
  <path d="M31.85 26.50 c0.20 -0.40 0.40 -0.95 0.40 -1.25 0 -0.75 1.80 -3.25 2.30 -3.25 0.95 0 0.35 1.40 -1.35 3.30 -0.95 1.05 -1.60 1.60 -1.35 1.20z"/>
  <path d="M24.60 16.55 c-0.70 -2.25 -2.40 -4.55 -3.40 -4.55 -0.40 0 -0.70 -0.20 -0.70 -0.50 0 -0.25 0.80 -0.50 1.75 -0.50 1.45 0 1.85 0.25 2.25 1.30 0.45 1.05 0.75 1.25 2.20 1.15 0.95 -0.10 2 0.10 2.40 0.40 0.40 0.35 1.65 0.75 2.85 0.95 2.45 0.40 2.15 1 -0.70 1.35 -1.10 0.10 -2.80 0.70 -3.75 1.25 -0.95 0.60 -1.90 1.10 -2.05 1.10 -0.15 0 -0.55 -0.85 -0.85 -1.95z"/>
  <path d="M34.45 13.45 c-0.40 -0.25 -1.10 -0.30 -1.55 -0.15 -0.60 0.15 -0.90 0 -0.90 -0.45 0 -0.40 0.55 -0.90 1.20 -1.05 0.65 -0.15 2.45 -1.45 4 -2.85 2.95 -2.70 3.85 -2.55 1.30 0.20 -0.80 0.90 -1.50 1.95 -1.50 2.35 0 1.15 -1.75 2.45 -2.55 1.95z"/>
  <path d="M21.90 8.85 c-0.70 -0.60 -1.90 -2.15 -2.60 -3.40 -0.70 -1.25 -1.75 -2.70 -2.30 -3.20 -1 -0.90 -1.35 -2.25 -0.60 -2.25 0.20 0 0.80 0.70 1.25 1.50 0.50 0.85 1.10 1.50 1.35 1.50 0.25 0 1.05 1.25 1.80 2.75 1.05 2.05 1.70 2.75 2.65 2.85 1 0.15 1.10 0.25 0.50 0.75 -0.60 0.50 -1 0.40 -2.05 -0.50z"/>
  <path d="M38.65 2.15 c-0.75 -0.30 -0.85 -2.15 -0.15 -2.15 0.30 0 0.50 0.35 0.50 0.75 0 0.40 0.25 0.75 0.50 0.75 0.30 0 0.50 0.25 0.50 0.50 0 0.55 -0.35 0.60 -1.35 0.15z"/>
 </g>
 <g fill="#779766">
  <path d="M19.30 30.40 c-0.25 -0.50 -0.75 -0.90 -1.15 -0.90 -0.60 0 -0.70 -0.35 -0.45 -1.55 0.45 -2.35 -0.20 -6.95 -1 -6.95 -0.40 0 -0.70 -0.20 -0.70 -0.50 0 -1 1.55 -0.45 1.95 0.65 0.50 1.25 3.30 3.85 4.15 3.85 0.35 0 0.45 -1.35 0.30 -3.95 -0.20 -3.20 -0.45 -4.20 -1.45 -5.45 -1.45 -1.85 -2 -2.10 -3.45 -1.75 -0.85 0.25 -1 0.55 -0.75 1.70 0.30 1.30 0.20 1.45 -1 1.45 -0.90 0 -1.45 0.30 -1.60 1 -0.20 0.75 -0.70 1 -1.95 1 -1.45 0 -1.70 -0.15 -1.70 -1.15 0 -1.85 1.45 -4.35 2.55 -4.35 0.60 0 0.95 -0.35 0.95 -1 0 -0.90 0.30 -1 2.80 -0.95 1.65 0.05 2.55 0.25 2.15 0.50 -0.50 0.30 -0.30 0.55 0.70 0.90 0.80 0.30 1.60 0.55 1.80 0.55 0.75 0 1.95 1.75 2.30 3.40 0.15 0.85 0.55 1.60 0.80 1.60 0.60 0 0.60 -1.10 -0.05 -2.70 -0.40 -1.05 -0.35 -1.20 0.40 -0.95 0.45 0.15 1.10 0.50 1.40 0.75 0.35 0.25 1.15 0.20 2 -0.10 2.70 -1.05 2.95 -0.05 0.30 1.30 -2.75 1.40 -3.35 2.25 -2.55 3.80 0.80 1.50 -0.25 2.30 -1.20 0.90 -0.75 -1.10 -0.80 -1.10 -1.30 0.80 -0.30 1.10 -0.55 2.80 -0.55 3.80 0 1.65 -0.15 1.85 -1.35 2 -1.10 0.10 -1.45 0.50 -1.70 1.65 -0.25 1.20 -0.35 1.35 -0.65 0.65z"/>
  <path d="M13.30 25.15 c-0.50 -3.10 -0.35 -4.65 0.40 -4.65 1 0 1.40 2.05 0.55 3 -0.65 0.70 -0.65 0.95 0 1.80 0.90 1.20 0.95 1.70 0.05 1.70 -0.40 0 -0.80 -0.75 -1 -1.85z"/>
  <path d="M26.65 26.65 c0.45 -0.10 1.25 -0.10 1.75 0 0.45 0.15 0.05 0.25 -0.90 0.25 -0.95 0 -1.35 -0.10 -0.85 -0.25z"/>
  <path d="M32.20 25.60 c0.05 -1.10 2.20 -3.85 2.65 -3.45 0.25 0.25 -2.20 4.35 -2.60 4.35 -0.05 0 -0.10 -0.40 -0.05 -0.90z"/>
  <path d="M36.95 13.55 c0.70 -1.30 1.55 -1.80 1.55 -0.95 0 0.35 -0.45 0.95 -1.05 1.30 -0.95 0.60 -0.95 0.55 -0.50 -0.35z"/>
  <path d="M34.15 13.35 c-1.55 -0.70 -1.45 -1 0.75 -2.20 l1.85 -1.05 0.05 1.15 c0.10 1.70 -1.25 2.75 -2.65 2.10z"/>
 </g>
 <g fill="#a07273">
  <path d="M5.25 39.50 c-0.35 -0.55 0.55 -2.50 1.15 -2.50 0.20 0 0.80 -0.65 1.25 -1.50 0.95 -1.55 2.65 -2 3.70 -0.95 0.45 0.45 -0.10 1.20 -2 3 -2.60 2.40 -3.55 2.85 -4.10 1.95z"/>
  <path d="M13.35 34.60 c-0.50 -0.50 -0.85 -1.65 -0.85 -2.50 0 -1.10 -0.25 -1.60 -0.75 -1.60 -0.50 0 -0.75 -0.55 -0.75 -1.75 0 -1.70 0.05 -1.75 2 -1.75 1.70 0 2 0.15 2 1.05 0 0.60 -0.40 1.15 -1 1.30 -0.85 0.20 -0.90 0.40 -0.40 1.35 0.30 0.55 0.70 1.15 0.85 1.30 1 0.80 1.55 2 1.25 2.70 -0.40 1.05 -1.35 1 -2.35 -0.10z"/>
  <path d="M28.75 30.15 c0.35 -1.55 1.10 -2.50 1.55 -2.05 0.30 0.35 -1.15 3.40 -1.60 3.40 -0.20 0 -0.15 -0.60 0.05 -1.35z"/>
  <path d="M9.50 24.65 c0 -0.50 -0.15 -1.40 -0.30 -2 -0.25 -0.85 -0.10 -1.15 0.50 -1.15 0.50 0 0.80 -0.45 0.80 -1.20 0 -0.65 0.35 -1.85 0.75 -2.60 0.40 -0.80 0.75 -2 0.75 -2.60 0 -0.65 0.40 -1.85 0.85 -2.65 0.70 -1.15 1.25 -1.45 2.50 -1.45 1.50 0 1.65 0.15 1.65 1.55 0 1.25 -0.15 1.45 -0.65 1.05 -0.50 -0.45 -0.65 -0.15 -0.70 1.30 0 1 0.10 1.55 0.20 1.25 0.15 -0.35 0.45 -0.65 0.70 -0.65 0.60 0 0.60 4.85 -0.05 5.25 -0.30 0.20 -0.50 -0.45 -0.50 -1.60 l-0.05 -1.90 -0.70 1.70 c-0.40 0.90 -0.75 2.30 -0.75 3.10 0 1.10 -0.25 1.45 -1 1.45 -0.65 0 -1 0.35 -1 1 0 0.80 -0.35 1 -1.50 1 -1.10 0 -1.50 -0.25 -1.50 -0.85z"/>
  <path d="M36.90 13.70 c0.65 -1.20 2.10 -2.55 2.10 -1.90 0 0.60 -0.55 1.30 -1.70 2.20 -0.90 0.70 -0.95 0.70 -0.40 -0.30z"/>
 </g>
 <g fill="#7f9771">
  <path d="M13.35 34.50 c-2.95 -3.50 -4.90 -11.10 -3.80 -15.15 0.75 -2.90 2.95 -6.75 4.90 -8.75 1.70 -1.70 1.70 -1.75 1.10 -4.20 -0.70 -3.20 -0.70 -3.40 0.20 -3.40 0.85 0 1.20 0.75 2.70 5.50 0.65 2.15 0.80 3.35 0.45 3.55 -0.35 0.20 -0.35 0.45 0.05 0.65 0.95 0.60 0.60 1.05 -0.85 1.15 -0.75 0.05 -1.80 -0.30 -2.35 -0.75 -0.80 -0.70 -0.90 -0.70 -0.35 -0.05 0.30 0.45 0.45 0.95 0.25 1.10 -0.15 0.20 -0.50 1.65 -0.70 3.20 -0.30 2.05 -0.70 3.15 -1.50 3.75 -0.55 0.50 -0.85 0.90 -0.60 0.90 0.25 0 0.70 -0.25 1.05 -0.60 0.45 -0.45 0.60 -0.30 0.60 0.70 0 0.75 -0.25 1.50 -0.55 1.65 -0.35 0.25 -0.25 0.75 0.25 1.55 0.90 1.35 1.05 3.20 0.25 3.20 -0.25 0 -0.35 0.25 -0.20 0.50 0.15 0.30 0 0.50 -0.40 0.50 -0.55 0 -0.60 0.30 -0.15 1.70 0.30 0.95 0.65 1.50 0.85 1.25 0.35 -0.60 0.95 0.65 0.95 2.10 0 1.25 -1.05 1.20 -2.15 -0.05z m0.65 -17.50 c0 -0.65 -0.05 -0.65 -0.50 0 -0.25 0.40 -0.50 1.10 -0.50 1.50 0 0.65 0.05 0.65 0.50 0 0.25 -0.40 0.50 -1.10 0.50 -1.50z m-0.50 -1.50 c0.25 0.35 0.45 0 0.60 -1 l0.25 -1.60 -0.90 1.15 c-0.50 0.65 -0.90 1.45 -0.90 1.70 0 0.30 0.15 0.20 0.30 -0.20 0.20 -0.50 0.35 -0.50 0.65 -0.05z"/>
  <path d="M16.90 21.10 c-0.60 -0.10 -0.90 -0.70 -0.95 -1.75 -0.05 -0.90 -0.10 -2.20 -0.15 -2.90 -0.05 -0.90 0.10 -1.25 0.55 -1.10 0.35 0.15 0.65 0.90 0.65 1.65 0 0.80 0.25 2.05 0.50 2.80 0.60 1.55 0.55 1.60 -0.60 1.30z"/>
  <path d="M22.65 20 c-0.30 -1.10 -0.25 -2.10 0.05 -2.85 0.55 -1.15 0.55 -1.15 1.20 0.35 0.50 1.25 0.50 1.75 -0.10 2.90 l-0.70 1.35 -0.45 -1.75z"/>
  <path d="M34.15 12.65 c-0.20 -0.55 0 -1.05 0.60 -1.35 0.55 -0.30 1.75 -1.40 2.70 -2.40 0.95 -1.05 1.90 -1.90 2.15 -1.90 0.25 0 -0.30 0.80 -1.20 1.80 -0.90 0.95 -1.90 2.40 -2.25 3.25 -0.65 1.60 -1.50 1.90 -2 0.60z"/>
  <path d="M21 7.65 c0 -0.30 -1 -1.90 -2.25 -3.60 -1.25 -1.70 -2.25 -3.35 -2.25 -3.70 0 -0.30 0.45 0.10 0.95 0.95 0.55 0.90 1.20 1.75 1.50 1.95 0.75 0.45 2.70 4.30 2.35 4.65 -0.15 0.15 -0.30 0.05 -0.30 -0.25z"/>
  <path d="M14.30 1.70 c-0.40 -1.05 -0.40 -1.95 0.05 -1.50 0.40 0.35 0.75 2.30 0.45 2.30 -0.10 0 -0.35 -0.35 -0.50 -0.80z"/>
  <path d="M38.60 1.90 c-0.35 -0.35 -0.60 -0.95 -0.55 -1.35 0 -0.50 0.20 -0.35 0.50 0.35 0.25 0.65 0.65 1 0.95 0.85 0.25 -0.15 0.50 -0.05 0.50 0.20 0 0.70 -0.65 0.70 -1.40 -0.05z"/>
 </g>
 <g fill="#8e8a74">
  <path d="M13.40 34.65 c-1.30 -1.45 -2.90 -5.05 -2.90 -6.40 l0 -1.25 1 1 c0.55 0.55 1.30 1 1.65 0.95 0.50 0 0.50 -0.10 0 -0.30 -0.35 -0.10 -0.65 -0.60 -0.65 -1.05 0 -0.75 0.10 -0.75 0.50 -0.10 0.40 0.60 0.50 0.60 0.80 -0.15 0.45 -1.15 1.20 -1.10 1.20 0.15 0 0.55 -0.25 1 -0.55 1 -0.25 0 -0.35 0.25 -0.20 0.50 0.15 0.30 -0.20 0.50 -0.85 0.55 -0.65 0 -0.85 0.15 -0.50 0.30 0.30 0.10 0.50 0.45 0.30 0.70 -0.15 0.25 0 0.45 0.30 0.45 0.30 0 0.40 0.25 0.25 0.50 -0.15 0.30 -0.15 0.75 0.05 1.05 0.20 0.40 0.45 0.35 0.75 -0.10 0.25 -0.45 0.50 -0.25 0.70 0.65 0.55 2.25 -0.50 3.10 -1.85 1.55z"/>
  <path d="M9.60 22.65 c0.15 -2.95 0.25 -3.40 1.10 -3.40 0.65 0 1.15 -0.55 1.55 -1.70 0.35 -1.10 0.70 -1.50 0.95 -1.15 0.20 0.30 0.10 1.05 -0.20 1.60 -0.30 0.60 -0.35 1 -0.05 1 0.55 0 1.30 -1.95 0.90 -2.30 -0.15 -0.15 -0.05 -1.05 0.15 -2 0.35 -1.45 0.30 -1.65 -0.30 -1.15 -1.10 0.90 -0.90 -1.20 0.20 -2.20 1.15 -1.05 2.30 -1.10 1.90 -0.10 -0.15 0.40 -0.05 0.75 0.25 0.75 0.30 0 0.35 0.25 0.20 0.50 -0.20 0.30 -0.60 0.35 -0.90 0.15 -0.40 -0.25 -0.40 -0.10 0 0.45 0.35 0.40 0.50 0.90 0.30 1.05 -0.35 0.40 -1.25 5.50 -1.25 7.50 0 1 -0.25 1.35 -1.05 1.35 -0.95 0 -1 -0.05 -0.10 -1 1.15 -1.25 0.75 -1.30 -0.65 -0.05 -0.60 0.50 -0.90 1.10 -0.70 1.30 0.20 0.20 -0.15 0.25 -0.75 0.10 -0.65 -0.15 -1.15 -0.05 -1.15 0.20 0 0.25 0.20 0.45 0.40 0.45 0.20 0 0.40 0.45 0.40 1 0 0.55 -0.30 1 -0.70 1 -0.50 0 -0.60 -0.80 -0.50 -3.35z"/>
  <path d="M16 19.25 c0 -1.95 0.70 -2.35 1.20 -0.60 0.45 1.75 0.35 2.35 -0.45 2.35 -0.50 0 -0.75 -0.55 -0.75 -1.75z"/>
  <path d="M11.50 16.15 c0 -0.65 0.25 -1.15 0.50 -1.15 0.65 0 0.65 0.55 0 1.50 -0.40 0.60 -0.50 0.55 -0.50 -0.35z"/>
  <path d="M16.20 13.45 c-0.45 -0.75 1.25 -1.10 2.45 -0.55 0.75 0.35 0.85 0.55 0.35 0.60 -0.40 0.05 -1.15 0.15 -1.60 0.25 -0.50 0.10 -1 -0.05 -1.20 -0.30z"/>
 </g>
 <g fill="#b26676">
  <path d="M6.50 38.50 c0 -1.65 0.75 -2.20 2.50 -1.90 1.05 0.15 1 0.25 -0.70 1.80 l-1.80 1.60 0 -1.50z"/>
  <path d="M13.60 34.90 c-0.35 -0.35 -0.60 -1.35 -0.60 -2.25 0 -1.15 -0.25 -1.65 -0.75 -1.65 -0.50 0 -0.75 -0.50 -0.75 -1.35 0.05 -1.35 0.05 -1.35 0.80 -0.40 0.40 0.55 1 1.85 1.30 2.85 0.60 2.05 1.45 2.65 1.10 0.80 l-0.25 -1.15 0.60 1.10 c1 1.85 -0.10 3.40 -1.45 2.05z"/>
  <path d="M29 29.45 c0.35 -0.55 0.70 -0.90 0.85 -0.75 0.40 0.40 -0.25 1.80 -0.85 1.80 -0.35 0 -0.35 -0.30 0 -1.05z"/>
  <path d="M13.35 28.90 c0.20 -0.35 0.40 -0.85 0.40 -1.10 0 -0.25 0.30 -0.55 0.65 -0.65 0.70 -0.25 0.80 0.65 0.10 1.10 -0.30 0.20 -0.40 0.55 -0.25 0.80 0.20 0.25 -0.05 0.45 -0.50 0.45 -0.55 0 -0.65 -0.20 -0.40 -0.60z"/>
  <path d="M9.50 22.55 c0 -2.25 0.90 -4 1.65 -3.25 0.50 0.50 1.40 -2.30 1.10 -3.35 -0.50 -1.50 1.05 -4.45 2.30 -4.45 1.10 0 1.10 0.05 -0.25 1.45 -1.15 1.20 -1.45 2 -1.50 4 -0.10 1.90 -0.40 2.85 -1.30 3.90 -1.20 1.35 -1.20 1.35 -0.05 0.40 1.60 -1.35 2.40 -3.15 2.45 -5.45 0.05 -1.10 0.30 -2.20 0.60 -2.50 0.35 -0.35 0.50 0.60 0.50 2.90 0 3.20 -0.10 3.50 -1.60 4.95 -0.90 0.80 -1.60 1.70 -1.55 1.90 0.10 0.20 -0.35 0.30 -0.90 0.20 -0.85 -0.15 -1 0 -0.80 0.75 0.15 0.55 0.05 1 -0.20 1 -0.25 0 -0.45 -1.10 -0.45 -2.45z"/>
  <path d="M16.15 17.25 c0 -1.10 0.10 -1.50 0.20 -0.85 0.10 0.60 0.10 1.50 0 2 -0.15 0.45 -0.25 -0.05 -0.20 -1.15z"/>
 </g>
 <g fill="#87a179">
  <path d="M13.35 34.60 c-1.35 -1.50 -3.35 -6.30 -3.65 -8.90 -0.25 -2.35 -0.25 -2.40 0.50 -1.20 0.40 0.70 0.75 1.75 0.80 2.30 0 0.60 0.35 1.35 0.70 1.70 0.40 0.30 1.15 1.65 1.60 2.90 0.50 1.30 1.20 2.55 1.55 2.75 0.65 0.40 0.45 1.35 -0.30 1.35 -0.20 0 -0.75 -0.40 -1.20 -0.90z"/>
  <path d="M13.95 28.40 c0 -0.10 -0.10 -0.90 -0.20 -1.80 -0.10 -1.45 -0.05 -1.55 0.55 -0.75 0.80 1.10 0.90 2 0.20 2.40 -0.25 0.15 -0.50 0.25 -0.55 0.15z"/>
  <path d="M9.50 21.40 c0 -3.15 2.85 -8.90 5.25 -10.80 1.35 -1.05 1.55 -2.35 0.80 -4.95 -0.55 -1.95 0.25 -2.80 1.30 -1.40 1.40 1.95 0.20 5.80 -2.65 8.80 -1.05 1.10 -1.35 1.95 -1.40 3.90 -0.05 1.85 -0.40 2.85 -1.20 3.70 -0.60 0.65 -1.10 1.45 -1.10 1.75 0 0.35 -0.20 0.60 -0.50 0.60 -0.25 0 -0.50 -0.75 -0.50 -1.60z m2.80 -4.15 c0.35 -1.40 0.30 -1.45 -0.45 -0.65 -0.45 0.45 -0.85 1.35 -0.85 1.95 0 1.50 0.80 0.70 1.30 -1.30z"/>
  <path d="M12.75 22.50 c0.15 -0.25 0.65 -0.50 1.05 -0.50 0.40 0 0.70 0.25 0.70 0.50 0 0.30 -0.45 0.50 -1.05 0.50 -0.55 0 -0.85 -0.20 -0.70 -0.50z"/>
  <path d="M22.75 20.90 c-0.45 -1.10 -0.10 -3.45 0.50 -3.45 0.85 -0.05 1.15 1.85 0.50 3.05 -0.60 1.05 -0.75 1.10 -1 0.40z"/>
  <path d="M13.75 19.75 c0.40 -1.85 1.25 -2.85 1.25 -1.45 0 0.50 -0.40 1.40 -0.85 1.95 -0.75 0.95 -0.75 0.95 -0.40 -0.50z"/>
  <path d="M16 18.15 c0 -3.30 0.70 -3.05 1.20 0.50 0.20 1.90 0.15 2.35 -0.45 2.35 -0.60 0 -0.75 -0.65 -0.75 -2.85z"/>
  <path d="M16.15 13.15 c0.50 -0.55 1.20 -0.65 2.10 -0.45 1.70 0.45 1.50 0.65 -0.95 0.95 -1.75 0.25 -1.85 0.20 -1.15 -0.50z"/>
  <path d="M34.30 12.70 c-0.20 -0.50 0.05 -1.10 0.55 -1.50 0.75 -0.55 0.95 -0.50 1.05 0.10 0.40 1.80 -1 3 -1.60 1.40z"/>
 </g>
 <g fill="#b28183">
  <path d="M5 39.40 c0.05 -1.15 3.85 -4.90 4.90 -4.90 1.85 0 1.60 0.80 -0.90 3.20 -2.45 2.25 -4 2.90 -4 1.70z"/>
  <path d="M13.70 34.75 c-0.90 -0.70 -0.90 -0.75 0.15 -0.60 1.35 0.20 1.90 0.65 1.25 1.05 -0.25 0.15 -0.90 -0.05 -1.40 -0.45z"/>
  <path d="M29 29.80 c0 -0.40 0.25 -0.90 0.50 -1.05 0.30 -0.15 0.50 0.05 0.50 0.45 0 0.40 -0.20 0.90 -0.50 1.05 -0.25 0.15 -0.50 -0.05 -0.50 -0.45z"/>
  <path d="M9.55 22.75 c-0.05 -1.40 0.10 -1.80 0.50 -1.40 0.40 0.40 0.40 0.95 0.05 2 -0.50 1.40 -0.50 1.40 -0.55 -0.60z"/>
  <path d="M13.75 19.75 c0.40 -1.85 1.25 -2.85 1.25 -1.45 0 0.55 -0.35 1.45 -0.80 2 -0.75 0.90 -0.75 0.90 -0.45 -0.55z"/>
 </g>
 <g fill="#91a883">
  <path d="M12.05 32.60 c-0.70 -1.30 -0.35 -2.10 0.50 -1.25 0.30 0.30 0.45 0.95 0.35 1.45 -0.15 0.85 -0.25 0.85 -0.85 -0.20z"/>
  <path d="M10.15 27.85 c-0.75 -2.70 -0.85 -8.65 -0.20 -9.05 0.25 -0.15 0.35 1.35 0.30 3.30 -0.10 2 0.05 4.05 0.30 4.55 0.30 0.50 0.45 1.50 0.35 2.25 -0.10 1.10 -0.25 0.95 -0.75 -1.05z"/>
  <path d="M22.85 20.65 c-0.65 -0.65 -0.35 -2.65 0.40 -2.65 0.40 0 0.75 0.40 0.75 0.90 0 1.10 -0.70 2.20 -1.15 1.75z"/>
  <path d="M16.40 18.40 c-0.25 -2.05 -0.15 -2.85 0.30 -2.35 0.40 0.45 0.70 4.45 0.30 4.45 -0.20 0 -0.50 -0.95 -0.60 -2.10z"/>
  <path d="M10.50 16.50 c0 -0.25 0.25 -0.50 0.50 -0.50 0.30 0 0.50 -0.30 0.50 -0.65 0 -1.05 3.15 -5.15 3.40 -4.45 0.10 0.35 -0.75 1.85 -1.90 3.35 -2.20 2.85 -2.50 3.10 -2.50 2.25z"/>
  <path d="M34 12.05 c0 -0.25 0.35 -0.55 0.75 -0.75 0.45 -0.15 0.75 0 0.75 0.45 0 0.40 -0.35 0.75 -0.75 0.75 -0.40 0 -0.75 -0.20 -0.75 -0.45z"/>
  <path d="M15.70 4.70 c0.05 -1.30 0.55 -1.60 0.95 -0.55 0.10 0.30 -0.05 0.85 -0.40 1.20 -0.50 0.45 -0.65 0.35 -0.55 -0.65z"/>
 </g>
 <g fill="#c09394">
  <path d="M8.25 37 c-0.50 -0.80 0.70 -2.50 1.75 -2.50 1.55 0 1.55 0.75 0 1.90 -0.85 0.65 -1.55 0.90 -1.75 0.60z"/>
 </g>
</svg>