<?xml version="1.0" encoding="utf-8"?>
<!DOCTYPE svg PUBLIC "-//W3C//DTD SVG 1.0//EN" "http://www.w3.org/TR/2001/REC-SVG-20010904/DTD/svg10.dtd">
<svg version="1.0" xmlns="http://www.w3.org/2000/svg" width="40px" height="40px" viewBox="0 0 40 40" preserveAspectRatio="xMidYMid meet">
 <g fill="#100f0f">
  <path d="M0 37.75 c0 -1.85 0.15 -2.25 0.95 -2.25 1.15 0 1.55 -0.95 1.50 -3.40 0 -1 -0.15 -1.55 -0.30 -1.20 -0.40 1.05 -2.15 0.70 -2.15 -0.45 0 -0.60 0.20 -0.85 0.55 -0.65 0.30 0.15 1.20 -0.45 1.95 -1.35 l1.45 -1.70 0.05 1.70 c0 1.30 0.15 1.60 0.80 1.35 0.45 -0.15 1.20 -0.30 1.75 -0.30 1.25 0 1.25 -1 -0.05 -1.35 -0.55 -0.15 -1 -0.60 -1 -0.95 0 -0.40 -0.20 -0.70 -0.50 -0.70 -0.95 0 -0.50 -1.90 0.75 -3.40 0.75 -0.95 1.05 -1.65 0.75 -1.85 -0.75 -0.50 -0.60 -1.75 0.25 -1.75 0.95 0 0.95 -0.70 -0.05 -1.50 -1.10 -0.95 -0.75 -4.30 0.45 -4.10 1 0.15 1.05 -0.05 0.15 -2.60 -0.50 -1.45 -0.55 -2.35 -0.15 -3.65 0.50 -1.65 0.60 -1.75 2.70 -1.55 1.80 0.15 2.15 0 2.15 -0.70 0 -0.70 0.40 -0.90 1.75 -0.90 1.20 0 1.75 0.25 1.75 0.70 0 0.95 1.95 1.25 3.50 0.50 0.70 -0.30 2.95 -0.75 5.05 -0.90 3.60 -0.35 3.90 -0.30 5.15 0.85 0.70 0.65 1.30 1.45 1.30 1.70 0 0.30 0.75 1.10 1.70 1.80 l1.65 1.30 -0.25 -2.20 c-0.25 -2.25 -0.20 -2.25 1.30 -2.25 0.85 0 1.65 -0.30 1.80 -0.60 0.40 -1.05 1.80 1.05 2.15 3.20 0.15 1.05 0.45 1.90 0.70 1.90 0.25 0 0.45 1 0.45 2.25 0 2.10 -0.10 2.25 -1.35 2.25 -0.85 0 -1.95 -0.60 -3 -1.60 -1.55 -1.50 -1.65 -1.55 -1.65 -0.50 0 0.65 0.30 1.10 0.75 1.10 1.40 0 0.90 2.85 -0.75 4.40 -1.15 1.05 -1.40 1.65 -1.15 2.75 0.30 1.55 1.65 1.85 1.65 0.35 0 -0.55 0.60 -2.10 1.40 -3.50 1.10 -2.05 1.60 -2.50 2.75 -2.50 1.35 0 1.35 0.05 1.35 3.25 0 2.40 -0.20 3.30 -0.80 3.65 -0.75 0.40 -0.75 0.50 0 0.75 0.55 0.25 0.80 0.95 0.80 2.60 0 2.25 -0.05 2.30 -1.35 2.20 -1.85 -0.15 -3.50 0.40 -3.85 1.30 -0.15 0.40 -0.85 0.75 -1.55 0.75 -1.95 0 -1.70 1.80 0.35 2.25 1.30 0.30 1.75 0.15 2.45 -0.70 0.55 -0.65 1.45 -1.05 2.40 -1.05 l1.55 0 0 4.25 c0 4.15 0 4.25 -1.20 4.25 -0.70 0 -1.40 0.25 -1.55 0.50 -0.15 0.30 -1.30 0.50 -2.55 0.50 -2.20 0 -2.20 0 -2.20 -1.75 0 -1.60 -0.15 -1.75 -1.35 -1.75 -1 0 -1.75 0.50 -2.65 1.75 -1.25 1.70 -1.30 1.70 -5.15 1.75 l-3.90 0 0.15 -1.85 c0.15 -1.65 0.35 -1.90 1.55 -2.05 0.75 -0.10 1.35 -0.45 1.35 -0.90 0 -0.80 -1.80 -0.95 -2.25 -0.20 -0.15 0.30 -1.10 0.50 -2.05 0.50 -1.35 0 -1.70 -0.20 -1.70 -1 0 -0.85 -0.35 -1 -2.15 -1 -1.55 0 -2.25 0.25 -2.60 0.95 -2.50 4.70 -2.70 4.90 -4.60 5.20 -1.05 0.20 -3.10 0.35 -4.50 0.35 l-2.65 0 0 -2.25z m19.50 -9.60 c0 -1 0.25 -1.15 1.75 -1.15 0.95 0 1.75 0.20 1.75 0.45 0 0.85 1.90 -0.05 2.15 -1.05 0.15 -0.55 0.70 -1.10 1.25 -1.25 0.75 -0.20 1.05 -0.95 1.45 -3.80 0.25 -2 0.60 -3.90 0.70 -4.30 0.10 -0.40 -0.20 -0.85 -0.65 -0.95 -0.65 -0.10 -0.90 0.15 -0.90 1.05 0 1.10 -0.25 1.25 -2.85 1.50 -1.60 0.15 -4.20 0.15 -5.75 0 l-2.90 -0.30 0 -2.05 0 -2.05 3.15 -1.20 c1.70 -0.65 4.40 -1.30 6 -1.40 l2.95 -0.25 -1.10 -1.15 c-1 -1.10 -1.15 -1.10 -3.35 -0.45 -1.30 0.40 -4.45 0.70 -7.10 0.70 -5.75 0 -7.05 0.30 -7.05 1.55 0 0.70 0.35 0.95 1.45 0.95 0.85 0 1.65 0.25 1.80 0.55 0.20 0.25 0.90 0.70 1.55 0.95 1 0.40 1.20 0.80 1.20 2.50 0 1.10 -0.20 2 -0.50 2 -0.25 0 -0.50 0.45 -0.50 1 0 0.80 -0.35 1 -1.75 1 -0.95 0 -1.75 -0.20 -1.75 -0.50 0 -0.25 -0.35 -0.50 -0.75 -0.50 -0.45 0 -0.75 0.45 -0.75 1.15 0.05 1.45 1.60 4.90 2.65 5.80 0.50 0.35 0.85 1.10 0.85 1.60 0 0.80 0.40 0.90 3.50 0.80 3.25 -0.10 3.50 -0.20 3.50 -1.20z"/>
  <path d="M15.50 25.75 c0 -1.65 0.10 -1.75 1.75 -1.75 1.65 0 1.75 0.10 1.75 1.75 0 1.65 -0.10 1.75 -1.75 1.75 -1.65 0 -1.75 -0.10 -1.75 -1.75z"/>
  <path d="M20.50 2.85 c0 -2.15 0.75 -2.85 3.10 -2.85 1.80 0 1.90 0.05 1.90 1.65 0 2.15 -0.75 2.85 -3.10 2.85 -1.80 0 -1.90 -0.05 -1.90 -1.65z"/>
  <path d="M13.50 1.80 c0 -1.75 0.05 -1.80 2.05 -1.80 1.95 0 2 0.05 1.85 1.65 -0.15 1.45 -0.30 1.60 -2 1.75 -1.85 0.15 -1.90 0.15 -1.90 -1.60z"/>
  <path d="M26.50 1.75 l0 -1.75 2.35 0 c1.70 0 2.65 0.30 3.50 1.10 l1.15 1.05 -1.30 0.70 c-0.75 0.35 -2.30 0.65 -3.50 0.65 -2.20 0 -2.20 0 -2.20 -1.75z"/>
 </g>
 <g fill="#271d18">
  <path d="M4.60 39.65 c-0.50 -0.20 -0.50 -0.40 -0.05 -0.95 0.45 -0.55 0.45 -0.70 0 -0.70 -0.30 0 -0.70 0.35 -0.85 0.75 -0.55 1.35 -1.20 0.80 -1.20 -1 0 -1.65 0.70 -2.40 1.10 -1.15 0.10 0.30 0.70 -0.30 1.30 -1.40 l1.15 -1.95 -1.15 1.25 c-1.65 1.85 -3 1.40 -2.80 -0.90 0.10 -1.30 0.40 -1.90 1.05 -2 0.50 -0.10 0.85 0.15 0.85 0.60 0 0.45 0.25 0.80 0.50 0.80 0.30 0 0.50 -0.45 0.50 -0.95 0 -1.75 0.60 -2.55 1.85 -2.55 0.65 0 1.10 -0.20 0.90 -0.45 -0.15 -0.30 -1.40 -0.35 -2.75 -0.20 -2.65 0.30 -3.25 -0.25 -1.60 -1.45 0.50 -0.35 1.10 -1.30 1.30 -2.15 0.20 -0.80 0.95 -2.15 1.70 -2.90 0.75 -0.80 1.05 -1.35 0.65 -1.25 -1 0.20 -1.60 -2.40 -1.25 -5.25 0.30 -2.05 0.45 -2.35 1.25 -2.10 0.55 0.20 0.95 0.10 0.95 -0.20 0 -0.30 0.50 -0.55 1.05 -0.55 0.80 0 1 0.25 0.80 1 -0.15 0.55 0 1 0.30 1 0.40 0 0.40 0.15 0 0.55 -0.70 0.70 -1.80 0.10 -1.30 -0.70 0.20 -0.35 -0.05 -0.30 -0.55 0.10 -1.05 0.85 -0.40 1.65 1.55 1.85 0.75 0.10 1.90 0.30 2.55 0.45 1.50 0.35 1.40 -0.65 -0.15 -1.25 -1.25 -0.50 -1.80 -1.15 -0.60 -0.80 0.30 0.15 1.25 0.35 2.05 0.55 1.35 0.30 1.40 0.40 1.15 2.60 -0.15 1.25 -0.55 2.45 -0.90 2.70 -1.05 0.65 -3.95 0.55 -4 -0.15 0 -0.35 -0.25 0 -0.45 0.80 -0.25 0.85 -0.25 1.65 0.05 2 0.25 0.30 0.80 1 1.20 1.55 0.70 1 0.70 1 0.75 -0.05 0 -0.90 0.40 -1.10 3.05 -1.40 5 -0.50 4.95 -0.50 4.95 1.40 0 1.65 0.05 1.70 2.15 1.85 3.05 0.25 3.85 0.05 3.85 -1.15 0 -0.55 0.40 -1.10 1 -1.25 0.80 -0.20 1 -0.70 1 -2.20 0 -1.65 0.15 -1.95 1.05 -1.95 1 0 1.05 0.20 0.80 2.15 -0.20 1.40 -0.15 1.80 0.15 1.10 0.25 -0.55 0.45 -1.60 0.45 -2.35 0.05 -0.80 0.30 -1.40 0.55 -1.40 0.30 0 0.50 -0.40 0.50 -0.90 0 -1.20 1.85 -2.95 3.90 -3.65 1.30 -0.45 1.60 -0.80 1.60 -2 0 -1.10 -0.25 -1.45 -1 -1.45 -0.80 0 -1 -0.35 -1 -1.70 0 -1.65 1.15 -2.80 1.75 -1.80 0.20 0.30 0.60 0.50 0.90 0.50 0.35 -0.05 0.10 -0.45 -0.50 -0.95 -1.50 -1.25 -1.45 -1.65 0.20 -1.45 1.10 0.10 1.50 0.50 1.90 2 0.25 1 0.65 2 0.90 2.20 0.60 0.60 0.40 4.60 -0.25 4.85 -0.50 0.20 -0.50 0.30 0 0.30 0.85 0.05 0.80 3.55 -0.10 3.55 -0.45 0 -0.60 -0.45 -0.40 -1.35 0.30 -1.70 0.15 -1.55 -1.65 1.60 -0.90 1.55 -1.10 2.25 -0.60 1.80 0.75 -0.60 0.85 -0.55 0.85 0.65 0 1.05 0.25 1.30 1.25 1.30 1 0 1.25 0.25 1.25 1.25 0 1.40 -0.60 1.60 -1.50 0.50 -1.50 -1.80 -3.85 -0.90 -5.45 2.15 -0.65 1.25 -1.55 1.45 -1.55 0.35 0 -1.70 -0.95 -0.60 -1.30 1.50 -0.35 2.35 -1.05 3.30 -1.70 2.25 -0.20 -0.35 -0.50 0.15 -0.75 1.30 -0.15 1.05 -0.70 2.60 -1.10 3.45 l-0.80 1.50 1.10 -0.95 c0.55 -0.55 1.05 -1.35 1.05 -1.80 0 -1 1.65 -2.65 2.15 -2.15 0.20 0.15 0.35 0.05 0.35 -0.30 0 -0.40 0.70 -0.60 2.15 -0.55 3.40 0.15 4.35 0.05 4.35 -0.50 0 -0.25 -0.45 -0.50 -1 -0.50 -0.75 0 -1 -0.35 -1 -1.25 0 -0.90 -0.25 -1.25 -1 -1.25 -1.35 0 -0.85 -1.05 1 -2.10 1.45 -0.80 1.50 -0.80 1.50 0.10 0 0.65 0.35 1 1 1 0.80 0 1 0.35 1 1.50 0 1 0.25 1.50 0.75 1.50 1.15 0 1 3.35 -0.10 3.65 -0.85 0.20 -0.85 0.25 0 0.30 0.65 0.05 0.85 0.50 0.85 1.80 0 1.70 -0.05 1.75 -2 1.75 -1.95 0 -2 -0.05 -1.70 -1.35 l0.35 -1.40 -1.30 1.55 c-1.50 1.80 -1.70 2.45 -0.60 2 0.45 -0.15 0.75 0 0.75 0.45 0 0.50 -0.55 0.75 -1.75 0.75 -1.60 0 -1.75 -0.10 -1.75 -1.45 0 -1 0.30 -1.55 0.90 -1.70 0.45 -0.10 -0.05 -0.15 -1.15 0 -1.10 0.10 -2.05 0.40 -2.15 0.65 -0.20 0.55 -2.60 0.65 -3.80 0.20 -1 -0.40 -1.05 -2.65 -0.10 -4.95 0.95 -2.20 0.70 -2.25 -0.65 -0.05 -1.10 1.75 -1.40 4.05 -0.55 4.55 0.65 0.40 0.05 1.75 -0.80 1.75 -0.40 0 -0.70 0.25 -0.70 0.50 0 0.30 -0.90 0.50 -2.05 0.50 l-2.05 0 0.20 -1.85 c0.15 -1.05 0.40 -2.30 0.60 -2.75 0.35 -0.75 0.15 -0.90 -0.80 -0.90 -0.80 0 -1.45 -0.40 -1.80 -1.10 l-0.55 -1.15 0 1.15 c-0.05 0.90 -0.35 1.10 -1.75 1.10 -1.40 0 -1.75 -0.20 -1.95 -1.10 l-0.20 -1.15 -0.10 1.15 c-0.05 0.80 -0.35 1.10 -1.30 1.10 -0.90 0 -1.25 0.25 -1.25 1 0 0.55 -0.20 1 -0.50 1 -0.25 0 -0.50 0.80 -0.50 1.75 0 1.70 -0.05 1.75 -1.85 1.70 -1.05 0 -2.20 -0.15 -2.55 -0.30z m17.90 -1.05 c0 -0.65 -0.60 -1.10 -1.10 -0.80 -0.50 0.30 -0.05 1.20 0.65 1.20 0.25 0 0.45 -0.20 0.45 -0.40z m-13.10 -3.95 c0.60 -0.90 1.10 -1.80 1.10 -2 0 -0.70 -1.65 1.20 -2.55 2.90 -1.05 2.10 -1.25 3.25 -0.30 1.75 0.35 -0.50 1.10 -1.70 1.75 -2.65z m23.60 -0.25 c0 -0.75 -2.45 -0.60 -3.25 0.15 -0.30 0.35 0.15 0.45 1.40 0.35 1 -0.05 1.85 -0.30 1.85 -0.50z m4.65 -0.60 c0.45 -0.35 0.85 -0.95 0.85 -1.35 0 -0.40 -0.30 -0.25 -0.75 0.40 -0.40 0.60 -1.25 1.20 -1.90 1.30 -0.95 0.20 -0.95 0.20 -0.10 0.25 0.55 0.05 1.40 -0.25 1.90 -0.60z m-18.65 -1 c0 -0.35 -0.50 -1.05 -1.10 -1.60 -0.65 -0.50 -0.85 -0.60 -0.50 -0.20 0.30 0.40 0.60 1.25 0.60 1.90 0 0.65 0.20 1 0.50 0.85 0.30 -0.15 0.50 -0.60 0.50 -0.95z m-2.75 -1.30 c0.15 -0.25 -0.15 -0.50 -0.75 -0.50 -0.60 0 -0.90 0.25 -0.75 0.50 0.15 0.30 0.50 0.50 0.75 0.50 0.25 0 0.60 -0.20 0.75 -0.50z m-6.30 -3.20 c-1.10 -1 -1.15 -1 -0.30 0 0.45 0.55 0.90 1.45 0.90 2 0.05 0.90 0.10 0.90 0.30 0 0.15 -0.55 -0.20 -1.35 -0.90 -2z m19.30 -0.55 c1.10 -1.50 2.20 -2.75 2.40 -2.75 0.20 0 0.10 -0.30 -0.25 -0.70 -0.65 -0.65 -1.05 -0.25 -2.20 2.20 -0.20 0.40 -0.80 1.30 -1.30 1.95 -0.80 1.05 -1.15 2.05 -0.75 2.05 0.05 0 1 -1.25 2.10 -2.75z m-10.75 0.75 c0 -0.25 -1.25 -0.50 -2.75 -0.50 -1.50 0 -2.75 0.25 -2.75 0.50 0 0.30 1.25 0.50 2.75 0.50 1.50 0 2.75 -0.20 2.75 -0.50z m9.50 -1.30 c0 -0.70 -0.15 -0.70 -0.75 -0.20 -0.40 0.35 -0.75 0.70 -0.75 0.80 0 0.10 0.35 0.20 0.75 0.20 0.40 0 0.75 -0.35 0.75 -0.80z m-19.85 -2.25 c-0.45 -1.60 -1.15 -1.60 -1.15 0 0 1.10 0.20 1.45 0.70 1.25 0.40 -0.15 0.60 -0.65 0.45 -1.25z m30.05 -13 c-0.50 -0.55 -1.40 -1.30 -1.95 -1.55 -0.60 -0.35 -0.35 0.15 0.70 1.30 1.80 1.85 2.95 2.10 1.25 0.25z"/>
  <path d="M37 26.25 c0 -0.90 0.40 -0.90 2 0 l1.25 0.70 -1.60 0.05 c-1.15 0 -1.65 -0.25 -1.65 -0.75z"/>
  <path d="M16 17.35 c0 -1.05 0.25 -1.85 0.50 -1.85 0.30 0 0.50 0.35 0.50 0.75 0 0.80 2.75 1.10 3.10 0.40 0.10 -0.25 0.95 -1.05 1.90 -1.85 0.95 -0.80 1.30 -1.30 0.75 -1.10 -0.55 0.25 -1.40 0.55 -1.85 0.65 -0.50 0.15 -0.80 0.45 -0.65 0.65 0.10 0.20 -0.35 0.60 -1 0.90 -0.75 0.35 -1.30 0.40 -1.50 0.10 -0.20 -0.30 0.05 -0.50 0.50 -0.50 0.45 0 0.65 -0.25 0.50 -0.50 -0.20 -0.30 0.35 -0.65 1.20 -0.80 0.85 -0.20 1.55 -0.50 1.55 -0.75 0 -0.20 0.95 -0.35 2.10 -0.35 l2.05 0 -1.20 0.95 -1.20 0.90 2.25 -0.30 c2.75 -0.35 3.60 -1 1.80 -1.45 -1.20 -0.30 -1.90 -1.70 -0.80 -1.70 0.30 0 0.50 -0.60 0.50 -1.30 0 -1 -0.20 -1.20 -0.85 -1 -2.90 0.90 -7.70 1.80 -9.50 1.80 -1.80 0 -2.15 -0.15 -2.15 -1 0 -0.55 0.20 -1 0.45 -1 0.25 0 0.60 -0.35 0.75 -0.80 0.30 -0.70 0.20 -0.75 -0.50 -0.20 -0.70 0.60 -0.75 0.50 -0.60 -1.05 0.15 -1.60 0.25 -1.70 2.30 -1.85 1.90 -0.15 2.10 -0.05 2.15 1 0.05 1 0.10 1.05 0.30 0.15 0.15 -0.55 0.50 -1.15 0.85 -1.35 0.85 -0.55 3.80 -0.50 3.80 0.10 0 0.75 1.35 0.60 1.65 -0.20 0.30 -0.80 -0.60 -1.30 -2.25 -1.30 -1.05 0 -1.05 0 -0.10 -1.10 0.85 -0.95 0.85 -1.05 0.10 -0.75 -0.65 0.25 -0.90 0.05 -0.90 -0.65 0 -0.90 0.35 -1 4.50 -1 2.50 0 4.50 0.20 4.50 0.40 0 0.25 0.90 0.90 2 1.55 2.45 1.35 2.55 2.05 0.25 2.05 -0.95 0 -1.75 -0.20 -1.75 -0.50 0 -0.25 -0.55 -0.50 -1.25 -0.50 -1.15 0 -1.25 0.15 -0.95 1.35 0.20 0.80 0.55 1.55 0.85 1.70 0.25 0.20 0.40 1.15 0.25 2.15 -0.20 1.75 -0.15 1.80 1.45 1.80 1.60 0 1.65 0.05 1.65 2.25 0 2.15 -0.05 2.25 -1.40 2.25 -1 0 -1.65 -0.35 -2.10 -1.25 -1 -1.85 -1.55 -1.50 -0.70 0.50 0.95 2.25 0.95 2.25 -0.80 2.25 -1.15 0 -1.50 0.25 -1.50 0.95 0 1.30 -0.75 1.50 -6.55 1.90 l-4.95 0.30 0 -1.80z m6.80 -1.20 c-0.40 -0.40 -1.80 0.25 -1.80 0.85 0 0.35 0.30 0.35 1.05 0 0.55 -0.35 0.90 -0.70 0.75 -0.85z m8.05 -5.30 c-1 -0.90 -1.85 -1.80 -1.85 -2.05 0 -0.25 -0.55 -0.95 -1.30 -1.60 -1.20 -1.15 -1.35 -1.15 -2.60 -0.40 -1.35 0.75 -1.35 0.75 -0.10 0.50 0.90 -0.20 1.60 0.10 2.60 1.05 0.80 0.75 1.40 1.60 1.40 1.85 0 0.55 2.35 2.20 3.25 2.25 0.30 0 -0.35 -0.70 -1.40 -1.60z m-9.85 -3.20 l1.25 -1.30 -2 1 c-1.10 0.55 -2.35 1.15 -2.75 1.30 -0.40 0.15 -0.05 0.30 0.75 0.30 1 0 1.90 -0.40 2.75 -1.30z m9.25 -6.15 c0.40 -0.65 -0.75 -0.65 -1.75 0 -0.60 0.40 -0.55 0.50 0.35 0.50 0.60 0 1.25 -0.20 1.40 -0.50z"/>
  <path d="M7.20 10.60 c-0.60 -1.50 0.05 -3.10 1.25 -3.10 0.30 0 0.55 -0.20 0.55 -0.50 0 -0.25 0.90 -0.50 2 -0.50 1.95 0 2 0.05 2 1.75 0 1.35 -0.20 1.75 -0.90 1.75 -0.50 0 -1.20 0.45 -1.60 1 -1.05 1.50 -2.70 1.25 -3.30 -0.40z m2.85 -2.75 c-0.35 -0.35 -0.75 -0.30 -1.25 0.15 -1.10 0.85 -0.45 1.60 0.80 0.95 0.70 -0.40 0.85 -0.70 0.45 -1.10z"/>
  <path d="M11.65 4.15 c-0.70 -0.15 -1.15 -0.60 -1.15 -1.10 0 -1.50 1.65 -2.55 3.95 -2.55 l2.10 0 -0.15 1.90 c-0.15 1.75 -0.25 1.85 -1.90 1.90 -0.95 0.05 -2.25 0 -2.85 -0.15z"/>
 </g>
 <g fill="#302e2d">
  <path d="M0 35 c0 -4.10 0.15 -5 0.75 -5 0.40 0 1.10 -0.55 1.55 -1.25 0.45 -0.70 1.10 -1.25 1.45 -1.25 0.75 0 1.25 -1.10 1.25 -2.70 0 -0.60 0.80 -1.80 1.75 -2.75 l1.75 -1.65 0 2.05 c0 1.30 0.25 2.05 0.65 2.05 0.60 0.05 2.85 3.15 2.85 4 0 0.55 1.90 1 4.65 1 2 0 2.35 0.15 2.35 1 0 0.55 -0.20 1 -0.50 1 -0.25 0 -0.50 -0.20 -0.50 -0.45 0 -0.20 -0.90 -0.40 -2.05 -0.40 -1.80 0 -1.95 0.05 -1.25 0.75 0.60 0.60 0.90 0.65 1.50 0.15 1 -0.85 1.80 -0.30 1.80 1.30 0 1.05 0.10 1.15 0.75 0.65 0.40 -0.35 0.65 -0.80 0.50 -1 -0.25 -0.45 3.20 -3.75 4.40 -4.15 0.45 -0.20 0.85 -0.65 0.85 -1.10 0 -0.40 0.45 -0.75 1 -0.75 0.75 0 1 -0.35 1 -1.20 0 -0.70 0.35 -1.60 0.80 -2 0.55 -0.60 0.80 -1.90 0.85 -4.80 0.05 -2.20 0.30 -4 0.55 -4 0.25 0 0.20 -0.30 -0.10 -0.60 -0.25 -0.35 -0.65 -1.60 -0.85 -2.75 -0.40 -2.45 -1.10 -2.75 -4 -1.75 -1.20 0.40 -4.30 0.75 -7.85 0.75 -3.25 0.05 -5.90 0.25 -5.90 0.45 0 0.15 -0.15 0.65 -0.30 1.10 -0.20 0.55 -0.05 0.80 0.50 0.80 0.45 0 1.60 0.45 2.60 0.95 l1.80 1 3.35 -1.30 c6.15 -2.40 12.20 -1.90 7.05 0.55 -2.50 1.20 -2.60 1.90 -0.20 1.20 2.35 -0.60 2.80 -0.10 0.70 0.75 -1.20 0.55 -1.90 0.55 -2.80 0.15 l-1.20 -0.55 1.35 -1.15 1.40 -1.10 -2.10 0.85 c-1.10 0.50 -1.95 1.05 -1.85 1.20 0.10 0.15 -0.35 0.55 -1 0.85 -0.85 0.40 -1.35 0.35 -1.80 -0.05 -0.45 -0.45 -0.55 -0.40 -0.40 0.40 0.15 0.90 0.55 1 3.30 0.90 2.75 -0.05 3.10 0.05 3.10 0.90 0 0.75 -0.35 0.95 -1.70 0.95 -0.95 0 -1.80 -0.20 -1.90 -0.40 -0.05 -0.25 -1.20 -0.60 -2.50 -0.75 -2.30 -0.30 -2.40 -0.30 -2.40 0.90 0 1.05 -0.25 1.25 -1.45 1.25 -0.85 0 -1.65 -0.20 -1.80 -0.50 -0.15 -0.25 0 -0.35 0.40 -0.20 0.50 0.15 0.85 -0.20 1.05 -1.05 0.35 -1.45 0.05 -2.25 -0.90 -2.25 -0.40 0 -0.95 -0.35 -1.30 -0.75 -0.35 -0.40 -0.90 -0.75 -1.20 -0.75 -0.30 0 -0.25 0.20 0.15 0.45 0.45 0.30 0.50 0.55 0.10 0.75 -0.70 0.45 -1.65 -0.10 -1.30 -0.75 0.20 -0.25 0.10 -0.45 -0.20 -0.45 -0.80 0 -1.20 1 -0.60 1.65 0.25 0.35 1.20 0.70 2.10 0.75 1.95 0.15 2.55 0.50 2.15 1.20 -0.20 0.35 -0.45 0.30 -0.70 -0.15 -0.35 -0.50 -0.70 -0.50 -1.90 0 -0.85 0.35 -1.75 0.55 -1.95 0.40 -0.25 -0.15 -0.45 0.30 -0.40 1 0 1.85 -1.05 2 -1.40 0.20 -0.50 -2.30 0.15 -5 1.25 -5.35 0.80 -0.25 0.90 -0.55 0.60 -1.85 -0.15 -0.90 -0.50 -1.90 -0.70 -2.30 -0.60 -1.10 1.25 -5.45 3.35 -7.80 1.80 -2.05 2 -2.15 4.85 -2.20 l2.95 -0.05 -0.30 1.75 c-0.20 1.30 -0.10 1.75 0.45 1.75 0.45 0 0.70 -0.55 0.70 -1.75 l0 -1.75 6 0 c5.75 0 6.10 0.05 7.40 1.25 0.75 0.70 1.60 1.25 1.90 1.25 0.30 0 1.05 0.55 1.70 1.25 l1.15 1.25 -3.05 0 c-3 0 -4.15 0.60 -2.10 1.15 0.55 0.15 1 0.05 1 -0.20 0 -0.25 1 -0.45 2.30 -0.45 2.10 0 2.30 0.10 3 1.75 0.35 0.95 0.70 2.20 0.70 2.75 0 0.55 0.25 1 0.50 1 0.75 0 0.65 11.85 -0.05 12.10 -0.40 0.15 -0.40 0.50 0.10 1.25 0.80 1.35 0.30 2.05 -0.80 1 -1.45 -1.45 -2.55 -1.45 -4.10 0 -0.85 0.75 -1.65 1.85 -1.85 2.40 -0.25 0.85 -0.20 0.90 0.35 0.25 0.60 -0.75 2 -1.70 3.25 -2.30 0.35 -0.20 1.30 -0.05 2.10 0.30 l1.50 0.60 0 6.25 0 6.25 -1.50 -0.20 c-1 -0.15 -1.50 0 -1.50 0.45 0 0.45 -0.75 0.65 -2.60 0.65 -3.70 0 -4.90 -0.40 -4.90 -1.65 0 -0.90 -0.10 -0.85 -1.05 0.35 -0.60 0.75 -1.50 1.30 -2.25 1.30 -1.60 0 -1.50 -0.55 0.30 -2.50 0.80 -0.90 1.50 -1.90 1.50 -2.25 0 -0.40 0.60 -1.40 1.35 -2.30 1.25 -1.50 1.30 -1.55 0.25 -1.25 -0.85 0.30 -1.10 0.15 -1.15 -0.55 -0.05 -0.50 -0.25 0 -0.50 1.10 -0.70 3.05 -1.50 4.75 -2.50 5.30 -0.55 0.25 -0.95 0.95 -0.95 1.45 0 0.95 -0.40 1 -8.70 1 -6.50 0 -8.80 -0.15 -8.95 -0.60 -0.20 -0.50 -0.30 -0.50 -0.30 0 -0.05 0.30 -0.60 0.60 -1.30 0.60 -1.25 0 -1.65 -0.70 -0.75 -1.25 0.65 -0.40 0.65 -1.25 0 -1.25 -0.25 0 -0.60 0.55 -0.80 1.25 -0.25 1.05 -0.60 1.25 -2 1.25 l-1.70 0 0 -5z m22.30 2.25 c-0.05 -0.95 -0.10 -1.75 -0.15 -1.75 -0.35 0 -1.55 2.95 -1.30 3.20 0.80 0.80 1.45 0.15 1.45 -1.45z m13.45 0.60 c0.40 -0.60 0.80 -1.65 0.90 -2.25 0.10 -0.60 0.65 -1.55 1.30 -2.15 0.60 -0.60 1 -1.20 0.85 -1.35 -0.20 -0.15 -0.60 0.10 -0.95 0.60 -0.75 1.05 -4.70 1.95 -5 1.15 -0.10 -0.30 -0.80 -0.30 -2 0.10 -2.45 0.80 -3.05 1.80 -0.80 1.30 1.50 -0.35 3.45 -0.45 5.35 -0.30 0.95 0.10 0.75 0.80 -0.70 2.50 -1 1.20 -1.10 1.55 -0.50 1.55 0.40 0 1.10 -0.50 1.55 -1.15z m-25.75 -4.10 c1.60 -1.75 1.70 -3.90 0.35 -5.55 -0.65 -0.80 -1.60 -2.20 -2.05 -3.05 -0.45 -0.90 -0.95 -1.65 -1.05 -1.65 -0.15 0 -0.25 0.85 -0.25 1.90 0 1.35 0.15 1.65 0.50 1.10 0.25 -0.40 0.50 -0.60 0.60 -0.50 0.10 0.15 0.65 0.95 1.30 1.85 1.40 2.05 1.40 3.40 -0.05 5.35 -1.25 1.75 -2.35 4.05 -2.35 4.95 0.05 0.35 0.50 -0.30 1.10 -1.40 0.55 -1.10 1.40 -2.45 1.90 -3z m15.30 1.30 c0.25 -1.80 0.90 -3.25 2.30 -5.15 2.80 -3.75 3.95 -4.90 4.90 -4.90 0.45 0 1.25 -0.35 1.80 -0.80 0.95 -0.75 0.95 -0.80 -0.05 -0.45 -0.55 0.20 -1.55 0.50 -2.20 0.65 -1.25 0.25 -1.25 0.35 -0.15 -2.35 0.15 -0.45 0.05 -0.60 -0.25 -0.40 -0.30 0.20 -0.70 0.95 -0.85 1.65 -0.20 0.70 -0.85 1.95 -1.45 2.75 -0.95 1.30 -1.10 1.40 -1.40 0.60 -0.25 -0.80 -0.35 -0.75 -0.90 0.25 -0.35 0.70 -0.40 1.10 -0.05 1.10 1 0 0.50 1.45 -1.25 3.50 -0.95 1.15 -1.75 2.60 -1.75 3.25 0 0.65 -0.15 1.50 -0.30 1.95 -0.20 0.50 -0.05 0.80 0.50 0.80 0.55 0 0.85 -0.70 1.10 -2.45z m13.70 1.70 c0 -0.40 -0.35 -0.75 -0.80 -0.75 -0.70 0 -0.70 0.15 -0.20 0.75 0.35 0.40 0.70 0.75 0.80 0.75 0.10 0 0.20 -0.35 0.20 -0.75z m-33.45 -2.50 c0.35 -0.65 0.05 -0.50 -0.75 0.40 -0.70 0.75 -1.30 1.65 -1.30 2 0.05 0.65 1.30 -0.80 2.05 -2.40z m-0.55 -2.05 c0 -1.20 -0.85 -0.75 -1.10 0.55 -0.20 1 -0.15 1.15 0.40 0.70 0.40 -0.30 0.70 -0.90 0.70 -1.25z m2.20 -1.15 c-0.30 -0.30 -1.20 0.95 -1.20 1.70 0.05 0.30 0.35 0.05 0.75 -0.45 0.40 -0.55 0.60 -1.10 0.45 -1.25z m17.95 -1.20 c0.45 -0.20 0.85 -0.55 0.85 -0.85 0 -0.65 -0.65 -0.30 -3.10 1.70 -1.05 0.85 -1.90 1.75 -1.90 2 0 0.30 0.75 -0.20 1.65 -1.05 0.85 -0.80 2 -1.65 2.50 -1.80z m5.10 -9.55 c0.15 -0.80 1.05 -2.20 2 -3.15 1.75 -1.75 1.80 -2 0.20 -1.15 -0.75 0.45 -0.95 0.35 -0.95 -0.30 0 -1 -2 -4.35 -2.35 -4 -0.15 0.15 -0.15 0.60 0 1.05 0.20 0.40 0.35 0.85 0.35 1 0.05 0.10 0.35 0.85 0.75 1.55 0.60 1.15 0.60 1.60 0 3 -0.35 0.90 -0.80 2.75 -0.95 4.05 -0.20 1.95 -0.20 2.10 0.20 0.90 0.25 -0.80 0.60 -2.15 0.75 -2.95z m6.65 1.30 c0.90 -0.80 1.75 -2.15 1.90 -3 0.45 -2.25 0 -2 -1.30 0.65 -1.30 2.70 -2.05 2.90 -1.90 0.55 0.05 -1.20 0.40 -1.80 1 -1.95 0.50 -0.15 0.90 -0.50 0.90 -0.75 0 -0.55 -3.75 0.40 -4.45 1.15 -0.20 0.30 -0.30 1.35 -0.20 2.35 0.20 1.40 0.50 1.90 1.35 2.05 0.55 0.10 1.05 0.25 1.10 0.30 0 0 0.75 -0.60 1.60 -1.35z m0.80 -10.15 c-2.05 -2.15 -2.50 -1.75 -0.60 0.55 0.90 1.05 1.75 1.70 1.85 1.45 0.10 -0.30 -0.45 -1.20 -1.25 -2z m-5.20 0.95 c0 -0.35 -0.80 -1.15 -1.80 -1.80 -1.30 -0.85 -1.75 -1.45 -1.55 -2.15 0.20 -0.70 0 -0.95 -0.65 -0.95 -1.35 0 -1.70 -0.85 -0.65 -1.45 1.65 -0.95 0.25 -0.55 -3.45 1 -2 0.85 -3.10 1.40 -2.40 1.25 4.35 -1 4.80 -0.95 5.90 0.50 1.40 1.85 3.75 4.20 4.25 4.20 0.20 0 0.35 -0.30 0.35 -0.60z m-22.30 -3.60 c1.30 -0.65 1.30 -0.70 0.20 -0.95 -1.15 -0.35 -2.55 0.45 -2.10 1.20 0.35 0.60 0.35 0.60 1.90 -0.25z m9.60 0.20 c0.40 0 0.70 -0.25 0.70 -0.55 0 -0.30 0.50 -1 1.15 -1.55 1.10 -1 1.10 -1 -0.65 0 -0.95 0.55 -2.55 1.35 -3.50 1.80 l-1.75 0.80 1.70 -0.25 c0.90 -0.15 2 -0.25 2.35 -0.25z m18.20 0.30 c0 -0.55 -1.65 -1.80 -2.40 -1.80 -0.60 0 -0.35 0.35 0.65 1 1.60 1.05 1.75 1.10 1.75 0.80z m-21.70 -1.55 c0.75 -0.70 1.10 -1.25 0.85 -1.25 -0.25 0 -0.90 0.45 -1.40 1 -0.55 0.65 -1.25 0.90 -1.85 0.70 -0.50 -0.15 -0.90 -0.05 -0.90 0.25 0 1 1.95 0.55 3.30 -0.70z m7.70 -5.75 c0.70 -0.55 1 -1 0.70 -1 -0.35 0 -1.10 0.45 -1.75 1 -1.55 1.25 -0.60 1.30 1.05 0z m6.50 -0.55 c1.35 -0.75 -1.10 -0.50 -2.75 0.30 l-1.50 0.75 1.75 -0.30 c0.95 -0.20 2.10 -0.50 2.50 -0.75z"/>
 </g>
 <g fill="#4d2f1d">
  <path d="M19.15 33.30 c0.50 -1.25 -1.25 -2.60 -3.30 -2.65 -1.45 -0.05 -1.85 0.10 -1.65 0.65 0.15 0.40 0.05 0.70 -0.20 0.70 -0.30 0 -0.50 -0.20 -0.50 -0.50 0 -0.25 -0.30 -0.50 -0.70 -0.50 -0.65 0 -1.60 -1.20 -4.25 -5.65 -0.70 -1.15 -1.30 -1.80 -1.45 -1.45 -0.30 0.95 -1.70 0.70 -1.50 -0.25 0.10 -0.50 0.35 -0.80 0.55 -0.65 0.25 0.15 0.75 -0.30 1.10 -1 0.95 -1.65 0.95 -2.25 0 -1.50 -0.45 0.35 -0.85 0.55 -0.95 0.45 -0.35 -0.35 -1.30 -8.10 -1.05 -8.35 0.15 -0.15 0.65 0.10 1.15 0.55 1.35 1.25 1.75 1.05 1.45 -0.60 -0.25 -1.15 0 -1.75 1 -2.75 0.70 -0.70 1.70 -1.30 2.20 -1.30 0.60 0 0.80 -0.25 0.65 -0.75 -0.20 -0.50 0 -0.75 0.55 -0.75 0.55 0 0.75 0.30 0.50 0.95 -0.25 0.80 0.10 0.95 2.20 1.20 1.40 0.15 3.65 0 5.35 -0.40 3.90 -0.95 4.20 -0.90 4.20 0.20 0 0.75 -0.55 1.10 -2.50 1.50 -1.40 0.30 -3.25 0.55 -4.15 0.55 -1.25 0 -1.75 0.30 -2.20 1.35 -0.90 1.85 -0.80 2.15 0.40 2.15 0.70 0 0.95 0.25 0.80 0.70 -0.15 0.40 0 1.10 0.35 1.55 0.55 0.75 1.15 0.85 4.45 0.50 2.10 -0.15 4 -0.55 4.15 -0.85 0.20 -0.30 -0.20 -0.40 -0.95 -0.30 -0.75 0.05 -1.35 -0.05 -1.35 -0.35 -0.05 -0.60 1.65 -1.15 3.95 -1.20 1.45 -0.05 1.60 -0.15 1.05 -0.80 -0.35 -0.45 -1.45 -0.75 -2.55 -0.75 -1.60 0 -1.95 -0.15 -1.95 -1 0 -0.75 0.35 -1 1.35 -1 1.25 0 1.25 -0.05 0.50 -0.90 -1.15 -1.25 -1.10 -2.60 0.10 -2.60 1.15 0 3.20 2.40 2.85 3.30 -0.15 0.35 0.20 1.80 0.75 3.20 l1 2.60 -1.55 -0.20 c-1.25 -0.20 -1.50 -0.05 -1.50 0.80 -0.05 2.35 -1 2.75 -5.80 2.60 -2.45 -0.05 -4.85 -0.30 -5.30 -0.50 -0.70 -0.30 -0.90 -0.15 -0.90 0.65 0 0.90 0.30 1.05 2.25 1.05 l2.25 0 0 2.75 c0 2.70 0.05 2.75 1.45 2.75 2.35 0 2.95 3.40 0.80 4.80 -0.70 0.45 -1.25 1.25 -1.25 1.75 0 0.65 -0.35 0.95 -1.05 0.95 -0.70 0 -0.95 -0.25 -0.80 -0.70z m-1.15 -7.55 c0 -0.90 -0.40 -0.90 -2 0 l-1.25 0.70 1.65 0.05 c1.10 0 1.60 -0.25 1.60 -0.75z m-5.30 -6.55 c1.25 -1.20 1 -3.15 -0.45 -3.70 -1.10 -0.40 -1.25 -0.80 -1.25 -2.85 0 -1.65 -0.15 -2.15 -0.45 -1.65 -0.30 0.40 -0.35 1.35 -0.20 2.10 0.20 1.10 0.10 1.35 -0.45 1.15 -0.95 -0.40 -2.60 0.95 -2.30 1.85 0.20 0.45 1.05 0.75 2.15 0.80 2.15 0.10 2.90 0.45 2.40 1.25 -0.40 0.65 -0.65 1.85 -0.40 1.85 0.10 0 0.55 -0.35 0.95 -0.80z"/>
  <path d="M16.75 32.80 c-0.95 -0.70 -0.95 -0.75 -0.10 -1.10 1.10 -0.40 1.50 -0.05 1.25 1.05 -0.15 0.70 -0.25 0.70 -1.15 0.05z"/>
  <path d="M21.50 33.30 c0 -0.10 0.35 -0.45 0.75 -0.80 0.60 -0.50 0.75 -0.50 0.75 0.20 0 0.45 -0.35 0.80 -0.75 0.80 -0.40 0 -0.75 -0.10 -0.75 -0.20z"/>
  <path d="M9.50 29.90 c0 -0.95 0.10 -1 0.50 -0.40 0.65 0.95 0.65 1.50 0 1.50 -0.25 0 -0.50 -0.50 -0.50 -1.10z"/>
  <path d="M25 27.30 c0 -1.65 0.10 -1.80 1.55 -1.80 l1.50 0 -1.05 1.50 c-1.55 2.20 -2 2.25 -2 0.30z"/>
  <path d="M31.25 25.50 c0.15 -0.25 0.65 -0.50 1.05 -0.50 0.40 0 0.70 0.25 0.70 0.50 0 0.30 -0.45 0.50 -1.05 0.50 -0.55 0 -0.85 -0.20 -0.70 -0.50z"/>
  <path d="M31.20 23.75 c0.15 -0.40 0.45 -1.10 0.60 -1.50 0.35 -0.90 -0.60 -1 -1 -0.10 -0.15 0.30 -0.15 -0.30 0 -1.40 0.45 -2.90 1.80 -4.55 4.40 -5.20 1.25 -0.30 2.50 -0.55 2.85 -0.55 1 0 0.15 3.35 -1.60 5.90 -1.30 1.95 -1.35 2.15 -0.35 1.25 2.15 -2 3.80 -1.10 2.30 1.30 -0.45 0.75 -0.85 0.85 -2.30 0.50 -1 -0.20 -2.15 -0.20 -2.65 0.10 -1.40 0.70 -2.60 0.55 -2.25 -0.30z m2.80 -5.25 c1.10 -1.10 0.95 -1.25 -0.55 -0.50 -0.50 0.30 -0.95 0.75 -0.95 1 0 0.75 0.40 0.60 1.50 -0.50z m3.35 -1.35 c0.15 -0.35 -0.20 -0.45 -0.80 -0.30 -0.60 0.15 -0.90 0.45 -0.75 0.75 0.35 0.55 1.30 0.30 1.55 -0.45z"/>
  <path d="M27.50 21 c0 -2.30 0.10 -2.50 1.20 -2.50 1.10 0 1.15 0.10 0.75 2.15 -0.20 1.15 -0.40 2.25 -0.45 2.50 0 0.20 -0.35 0.35 -0.75 0.35 -0.55 0 -0.75 -0.60 -0.75 -2.50z"/>
  <path d="M7 9.05 c0 -0.60 0.25 -1.05 0.50 -1.05 0.30 0 0.50 0.30 0.50 0.70 0 0.40 -0.20 0.90 -0.50 1.05 -0.25 0.15 -0.50 -0.15 -0.50 -0.70z"/>
  <path d="M16.30 8.05 c0.25 -0.25 1.35 -0.55 2.45 -0.70 l2 -0.30 -1.50 0.70 c-1.70 0.80 -3.75 1 -2.95 0.30z"/>
  <path d="M27.55 7.05 c-0.50 -0.30 -0.50 -0.50 -0.05 -0.80 0.35 -0.20 0.95 0 1.40 0.45 0.70 0.65 0.70 0.80 0.10 0.80 -0.40 0 -1.05 -0.20 -1.45 -0.45z"/>
 </g>
 <g fill="#47403c">
  <path d="M0 38.30 c0 -0.95 0.20 -1.80 0.50 -1.90 0.25 -0.05 0.50 -1 0.60 -2.05 0.05 -1.05 0.30 -2.05 0.50 -2.15 0.20 -0.15 0.40 -0.50 0.40 -0.85 0 -0.40 -0.15 -0.40 -0.60 0.05 -0.80 0.80 -1.40 0.75 -1.40 -0.15 0 -0.40 0.20 -0.75 0.45 -0.75 0.30 0 1.20 -0.75 2.10 -1.60 0.85 -0.90 1.40 -1.35 1.25 -1 -0.20 0.30 -0.15 0.60 0.15 0.60 0.30 0 0.65 -0.60 0.80 -1.35 0.80 -3.75 1.05 -4.40 1.90 -4.25 0.50 0.10 0.85 -0.20 0.85 -0.65 0 -0.40 0.30 -0.75 0.70 -0.75 0.45 0 0.75 0.80 0.95 2.35 0.15 1.30 0.50 2.45 0.80 2.55 0.30 0.10 0.55 0.55 0.55 0.95 0 0.65 -0.15 0.65 -0.75 0.15 -0.40 -0.35 -0.75 -0.85 -0.75 -1.10 0 -0.25 -0.40 -1 -0.85 -1.75 l-0.85 -1.25 -0.60 2.90 c-0.85 3.90 -0.80 4.70 0.05 3.20 0.40 -0.70 0.75 -1.70 0.75 -2.25 0.05 -1 0.05 -1 0.75 -0.05 0.65 0.85 0.55 1.15 -0.65 2.75 -0.75 1 -2.25 3.10 -3.35 4.70 -1.30 1.90 -2.05 2.65 -2.30 2.25 -0.55 -0.85 -1.15 0.80 -0.75 1.95 0.30 0.70 0.40 0.70 1.10 -0.25 1.05 -1.50 1.80 -1.40 1.10 0.15 -0.40 0.90 -0.95 1.25 -2 1.25 -1.25 0 -1.40 -0.15 -1.40 -1.70z m5.50 -6.35 c0 -0.20 -0.15 -0.70 -0.30 -1.15 -0.40 -1.05 -1.20 -0.50 -1.20 0.80 0 0.55 -0.50 1.85 -1.10 2.85 l-1.10 1.80 1.85 -1.95 c1 -1.10 1.85 -2.15 1.85 -2.35z"/>
  <path d="M4.50 39.65 c0 -0.25 0.60 -1.05 1.30 -1.90 0.80 -0.95 1.15 -1.15 1 -0.60 -0.15 0.50 -0.30 1.35 -0.30 1.90 0 0.60 -0.35 0.95 -1 0.95 -0.55 0 -1 -0.15 -1 -0.35z"/>
  <path d="M7 39.75 c0 -0.90 1.65 -3.25 2.25 -3.25 0.40 0 0.75 -0.20 0.75 -0.45 0 -0.25 0.30 -0.55 0.65 -0.70 0.30 -0.10 0.05 -0.10 -0.65 0 l-1.25 0.25 1.45 -1.55 c0.85 -0.85 1.90 -1.55 2.40 -1.55 0.50 0 0.90 -0.35 0.90 -0.75 0 -0.40 -0.35 -0.75 -0.75 -0.75 -0.90 0 -1.75 -1.90 -1.35 -3 0.60 -1.55 1.25 -1.85 2.95 -1.35 1.75 0.55 2.15 1.15 0.85 1.45 -0.65 0.10 -0.65 0.30 -0.10 1.05 0.50 0.70 1.50 0.90 4.50 1 2.95 0.05 3.70 0.25 3.30 0.75 -0.30 0.30 -0.85 0.60 -1.20 0.60 -0.40 0 -0.70 0.50 -0.70 1.25 0 1.15 0.10 1.10 1.95 -0.90 l2 -2.10 -1 3.70 c-0.95 3.75 -1.85 5.70 -1.20 2.70 0.45 -2.20 -0.35 -2.10 -1.55 0.20 -0.50 1 -1.15 2.25 -1.45 2.75 -0.60 1.10 -3.75 1.30 -3.75 0.20 0 -0.95 1 -1.60 1 -0.70 0.05 0.75 1.50 -1 1.50 -1.80 0 -0.25 -0.35 -0.05 -0.75 0.50 -1.10 1.50 -0.90 0.35 0.50 -2.40 1.20 -2.35 1.20 -2.60 0.50 -3.40 -0.45 -0.50 -1.70 -1 -2.75 -1.10 -1.85 -0.15 -1.90 -0.10 -1.90 1.45 0 0.85 -0.15 1.85 -0.40 2.20 -0.60 1 0.95 -0.10 1.95 -1.40 1.40 -1.75 2.55 -1.50 2.15 0.50 -0.50 2.50 -2.50 6.85 -3.15 6.85 -0.80 0 -0.80 -0.05 -0.15 -1.85 0.45 -1.30 0.45 -1.35 -0.25 -0.45 -0.40 0.55 -0.75 1.30 -0.75 1.65 0 0.45 -0.90 0.65 -3.25 0.65 -1.80 0 -3.25 -0.10 -3.25 -0.25z m4.55 -2.40 c0.60 -1.10 0.60 -1.10 -0.50 -0.15 -0.55 0.55 -1.05 1.15 -1.05 1.40 0 0.70 0.95 -0.05 1.55 -1.25z"/>
  <path d="M22.50 39.30 c0 -0.35 0.45 -0.80 1 -0.95 0.75 -0.20 1 0 1 0.70 0 0.60 -0.35 0.95 -1 0.95 -0.55 0 -1 -0.30 -1 -0.70z"/>
  <path d="M25 39.75 c0 -0.45 2.75 -3.35 3.60 -3.80 0.50 -0.25 2.35 -0.60 4.15 -0.75 3.80 -0.30 4.10 0.15 1.50 2.60 -1.10 1.05 -1.50 1.70 -1.10 1.85 0.30 0.15 -0.90 0.30 -2.75 0.30 -2.20 0.05 -3.40 -0.15 -3.60 -0.55 -0.25 -0.50 -0.35 -0.50 -0.60 0 -0.25 0.60 -1.20 0.85 -1.20 0.35z m8.40 -2.75 c0.85 -0.55 1.60 -1.10 1.60 -1.30 0 -0.20 -3 1.40 -3.95 2.15 -0.80 0.60 1 -0.05 2.35 -0.85z"/>
  <path d="M34.50 39.50 c0 -0.25 0.20 -0.50 0.40 -0.50 0.25 0 0.85 -0.90 1.35 -2 0.50 -1.15 1.35 -2.50 1.85 -3.10 0.50 -0.60 0.90 -1.70 0.90 -2.50 0 -0.75 0.25 -1.40 0.50 -1.40 0.30 0 0.50 1.50 0.50 3.50 0 3.30 -0.50 4.50 -1.20 2.70 -0.15 -0.40 -0.50 -0.60 -0.80 -0.45 -0.80 0.50 -0.60 1.05 0.75 1.65 0.70 0.30 1.25 0.90 1.25 1.35 0 0.45 -0.45 0.75 -1.25 0.75 -0.85 0 -1.25 -0.30 -1.25 -0.85 0 -0.70 -0.15 -0.65 -1.15 0.25 -1.25 1.20 -1.85 1.40 -1.85 0.60z"/>
  <path d="M4.50 36.95 c0 -0.40 0.80 -1.90 1.75 -3.40 0.95 -1.45 1.75 -2.80 1.75 -3.05 0 -0.20 0.35 -0.65 0.80 -1.05 0.65 -0.50 0.85 -0.50 1.25 0.10 0.80 1.30 0.50 1.90 -2.55 5.05 -1.65 1.65 -3 2.75 -3 2.35z"/>
  <path d="M25.50 35.40 c0 -2.25 1.50 -5.10 2.25 -4.35 0.40 0.45 -0.65 4.40 -1.55 5.65 -0.65 0.95 -0.70 0.85 -0.70 -1.30z"/>
  <path d="M28.55 34.35 c0.35 -0.75 0.80 -1.35 1 -1.35 0.20 0 0.95 -1 1.65 -2.20 1.05 -1.80 5.05 -5.30 6.10 -5.30 0.60 0 0.05 1.60 -1.30 3.45 -1.50 2.05 -1.50 2.10 -0.25 1.25 0.70 -0.45 1.70 -1.40 2.25 -2.15 l0.95 -1.30 0.05 1.20 c0 1.80 -3.05 4.40 -6.40 5.35 -1.55 0.45 -3.25 1.20 -3.75 1.60 -0.90 0.80 -0.90 0.75 -0.30 -0.55z"/>
  <path d="M34 33.80 c0 -0.10 1 -0.80 2.25 -1.45 2 -1.15 2.20 -1.15 1.75 -0.35 -0.30 0.55 -0.95 1.20 -1.50 1.50 -0.95 0.50 -2.50 0.70 -2.50 0.30z"/>
  <path d="M28.85 30.40 c-0.60 -2.15 1.75 -5.05 4.50 -5.55 l1.55 -0.30 -1.25 1.35 c-2.35 2.60 -2.55 2.85 -3.20 4.25 -0.75 1.65 -1.25 1.70 -1.60 0.25z"/>
  <path d="M25.50 30.65 c0 -0.25 0.35 -0.90 0.75 -1.45 0.60 -0.80 0.70 -0.80 0.75 -0.15 0 0.45 -0.35 1.10 -0.75 1.45 -0.40 0.35 -0.75 0.40 -0.75 0.15z"/>
  <path d="M24.15 28.75 c0.20 -0.45 0.35 -0.95 0.35 -1.05 0 -0.10 0.45 -0.20 1.05 -0.20 1.15 0 0.85 0.75 -0.65 1.55 -0.90 0.50 -1 0.45 -0.75 -0.30z"/>
  <path d="M28.50 26.20 c0 -0.70 1.35 -2.50 1.65 -2.20 0.15 0.15 -0.15 0.80 -0.65 1.50 -0.55 0.70 -1 1 -1 0.70z"/>
  <path d="M13.50 25.50 c-0.55 -0.35 -0.35 -0.50 0.90 -0.50 1 0 1.55 0.20 1.35 0.50 -0.40 0.65 -1.30 0.65 -2.25 0z"/>
  <path d="M27 24.25 c0 -1.40 0.20 -1.75 1 -1.75 1.10 0 1.30 1 0.50 2.55 -0.80 1.50 -1.50 1.15 -1.50 -0.80z"/>
  <path d="M38.30 24.95 c-0.95 -0.95 -0.95 -0.95 0.35 -0.95 1 0 1.35 0.25 1.35 1 0 1.25 -0.45 1.25 -1.70 -0.05z"/>
  <path d="M31.50 23.75 c0 -0.40 0.65 -1.05 1.45 -1.50 1.35 -0.65 4.85 -5.10 4.40 -5.55 -0.15 -0.15 -4.75 1.20 -5.20 1.50 -0.35 0.25 0.55 2.25 0.85 2.05 0.25 -0.15 0.55 -0.05 0.75 0.25 0.15 0.25 -0.15 0.50 -0.70 0.50 -0.55 0 -1.35 0.40 -1.85 0.85 -0.80 0.85 -0.85 0.75 -0.50 -1.10 0.20 -1.10 0.75 -2.55 1.25 -3.25 1.60 -2.20 8.05 -3.20 8.05 -1.20 0 0.40 -0.25 0.65 -0.55 0.55 -0.30 -0.05 -1.20 1 -1.95 2.40 -2.20 3.85 -6 6.75 -6 4.50z"/>
  <path d="M36.55 22.25 c1 -1 1.60 -1.25 2.40 -1 0.55 0.15 1.05 0.65 1.05 1.05 0 1 -1.40 0.85 -1.65 -0.15 -0.20 -0.85 -0.25 -0.85 -0.30 0 0 0.45 -0.25 0.85 -0.50 0.85 -0.25 0 -0.90 0.15 -1.40 0.30 -0.70 0.25 -0.60 0 0.40 -1.05z"/>
  <path d="M18 19.50 c0 -1.25 -0.20 -1.50 -1.25 -1.50 -0.80 0 -1.25 0.30 -1.25 0.75 0 0.45 -0.50 0.75 -1.30 0.75 -1.05 0 -1.20 -0.15 -0.95 -1.05 0.40 -1.25 -0.10 -3.60 -0.70 -3.20 -0.25 0.15 -1.10 -0.10 -1.90 -0.55 -1.35 -0.80 -1.55 -0.80 -2.75 0 -1.15 0.75 -1.25 1.10 -1 3.05 0.25 2.30 -0.55 3.20 -1.05 1.20 -0.45 -1.75 0.20 -6.10 0.80 -5.50 0.95 0.95 1.45 0.60 1.20 -0.80 -0.20 -1.10 0.10 -1.70 1.25 -2.80 0.85 -0.85 1.80 -1.30 2.25 -1.15 0.55 0.25 0.70 0.10 0.45 -0.50 -0.15 -0.40 -0.30 -0.85 -0.30 -1 0 -0.10 -0.30 -0.05 -0.70 0.10 -0.40 0.15 -0.85 0.05 -1.05 -0.25 -0.35 -0.60 -1.30 -0.75 -1.15 -0.15 0.15 0.70 -1.20 3.35 -1.45 2.75 -0.70 -1.95 3.85 -9.35 5.25 -8.45 0.25 0.15 0.60 -0.05 0.80 -0.45 0.30 -0.85 2.80 -1.05 2.80 -0.25 0 0.30 -0.15 0.50 -0.40 0.50 -0.20 0 -0.65 0.45 -1 1 -0.60 0.95 -0.55 1 0.40 0.40 0.55 -0.35 1.15 -1.05 1.30 -1.50 0.20 -0.70 0.85 -0.90 3 -0.90 2.75 0 3.40 0.55 1.85 1.45 -0.50 0.30 -0.60 0.55 -0.30 0.55 0.35 0 0.90 -0.45 1.25 -1 0.35 -0.55 1.15 -1 1.75 -1 1.50 0 1.45 0.80 -0.05 1.20 -0.70 0.15 -1.75 1 -2.35 1.90 -1.25 1.75 -0.85 1.60 2.85 -1.20 2 -1.50 3 -1.90 4.60 -1.90 1.15 0 2.10 0.25 2.10 0.50 0 0.30 -0.45 0.50 -1 0.50 -1.15 0 -5.15 1.50 -4.85 1.85 0.15 0.10 1.75 -0.15 3.65 -0.60 2.25 -0.50 3.50 -0.60 3.60 -0.25 0.10 0.25 0.60 0.50 1.05 0.50 1.50 0 4.55 3.10 4.90 4.95 l0.30 1.70 -1.50 -1.15 c-0.85 -0.60 -1.80 -1.05 -2.15 -0.90 -0.35 0.10 0.60 1.10 2.05 2.20 1.95 1.40 2.75 2.35 2.85 3.35 0.20 1.65 -0.70 1.80 -1.10 0.15 -0.25 -1.10 -3.55 -3.70 -4.05 -3.20 -0.15 0.10 0.55 1 1.50 1.90 0.95 0.95 1.75 1.95 1.75 2.30 0 0.30 -1 0.75 -2.25 0.90 -1.20 0.20 -2.35 0.55 -2.50 0.85 -0.55 0.85 -1.25 0.45 -1.80 -0.90 -0.30 -0.80 -0.90 -1.80 -1.30 -2.25 -1.25 -1.40 0.05 -1.05 1.35 0.35 0.85 0.90 1.35 1.10 1.70 0.70 0.40 -0.35 -0.10 -1.10 -1.70 -2.50 l-2.25 -1.95 1.85 0.75 c1.60 0.65 1.85 0.65 2.10 0 0.30 -0.85 -2 -2.25 -3.80 -2.25 -0.65 0 -1.50 -0.20 -1.90 -0.50 -0.55 -0.35 -0.45 -0.55 0.70 -1 2 -0.75 1.25 -1.20 -0.85 -0.55 -0.95 0.35 -2.35 0.45 -3.05 0.25 -1 -0.25 -1.80 0 -3.20 1 -1.05 0.70 -2.65 1.40 -3.60 1.60 l-1.75 0.30 1.85 -1.80 c1.05 -1 1.80 -1.80 1.70 -1.80 -0.85 0 -3.75 1.60 -3.95 2.25 -0.60 1.40 -1.45 0.85 -1.10 -0.75 0.30 -1.45 -0.55 -2.25 -0.95 -0.90 -0.90 2.80 -0.80 3.40 0.30 3.40 1.95 0 3.40 0.60 3.40 1.30 0 0.40 -0.50 0.70 -1.25 0.70 -0.70 0 -1.25 -0.25 -1.25 -0.55 0 -0.30 -0.25 -0.35 -0.60 -0.10 -0.85 0.50 -3.05 0.20 -3.45 -0.45 -0.20 -0.30 -0.40 0.40 -0.55 1.55 l-0.20 2.05 2.15 0 c1.80 0 2.15 0.15 2.15 1 0 1.30 0.40 1.25 1.55 -0.05 1.15 -1.35 5.45 -2 5.45 -0.85 0 0.50 -0.85 1 -2.20 1.40 -1.70 0.45 -2.15 0.80 -1.95 1.50 0.30 1.15 2.25 2.05 3.20 1.45 1.20 -0.75 1.45 -0.50 1.45 1.30 0 1.65 -0.10 1.75 -1.75 1.75 -1.60 0 -1.75 -0.10 -1.75 -1.50z m-2.50 -2.80 c0 -0.70 -0.15 -0.70 -0.75 -0.20 -0.40 0.35 -0.75 0.70 -0.75 0.80 0 0.10 0.35 0.20 0.75 0.20 0.40 0 0.75 -0.35 0.75 -0.80z"/>
  <path d="M39.20 20.45 c-0.45 -0.50 -0.45 -1.05 -0.05 -1.95 0.50 -1.25 0.50 -1.25 0.70 -0.10 0.15 0.60 0.15 1.50 0.05 1.95 -0.15 0.70 -0.25 0.70 -0.70 0.10z"/>
  <path d="M8.35 19.65 c-0.20 -0.15 -0.35 -0.80 -0.35 -1.35 0.05 -0.95 0.10 -0.95 0.55 -0.15 0.25 0.45 1.05 0.85 1.70 0.85 0.70 0 1.25 0.25 1.25 0.50 0 0.55 -2.65 0.70 -3.15 0.15z"/>
  <path d="M28.50 17.20 c0 -2 0.15 -2.75 0.65 -2.60 1.10 0.40 1.60 2.75 0.85 4.15 -1.05 1.95 -1.50 1.50 -1.50 -1.55z"/>
  <path d="M9.65 18.15 c-1.20 -0.45 -0.65 -1.20 0.75 -1.05 0.75 0.10 1.30 0.40 1.25 0.65 -0.10 0.60 -1.15 0.80 -2 0.40z"/>
  <path d="M27.50 11.25 c0 -1.85 0.65 -2.30 1.40 -0.95 0.60 1.10 0.20 2.70 -0.70 2.70 -0.45 0 -0.70 -0.60 -0.70 -1.75z"/>
  <path d="M25.50 8.25 c-1.20 -0.65 -1.20 -0.70 -0.20 -0.75 0.60 0 1.35 0.35 1.70 0.75 0.80 0.95 0.15 0.95 -1.50 0z"/>
 </g>
 <g fill="#694129">
  <path d="M19.50 32.85 c0 -1.15 -1.65 -2.20 -3.60 -2.45 -1.05 -0.10 -1.90 0 -1.90 0.20 0 0.95 -2.05 0.30 -2.45 -0.75 -0.25 -0.65 -0.80 -1.45 -1.20 -1.80 -0.45 -0.35 -1.25 -1.50 -1.80 -2.60 -0.85 -1.60 -1 -2.50 -0.70 -5 0.20 -2.20 0.45 -2.80 0.75 -2.25 0.25 0.45 1.05 0.80 1.75 0.80 0.90 0 1.20 0.20 1 0.70 -0.45 1.15 0.95 0.40 1.90 -1 0.40 -0.65 1.10 -1.20 1.50 -1.20 0.40 0 0.75 -0.40 0.75 -0.85 0 -0.65 -0.15 -0.70 -0.60 -0.25 -0.85 0.85 -1.30 0.75 -1.60 -0.30 -0.15 -0.45 -1.20 -1.15 -2.30 -1.50 -1.70 -0.50 -2.20 -0.50 -3.20 0.20 -1.05 0.65 -1.20 1.05 -0.95 2.50 0.30 1.90 -0.65 2.45 -1.05 0.60 -0.70 -3.25 -0.60 -4.40 0.20 -4.40 0.45 0 1.05 0.25 1.40 0.60 0.45 0.45 0.60 0.35 0.60 -0.50 0 -0.65 0.30 -1.10 0.75 -1.10 0.40 0 1.20 -0.45 1.75 -1 l1 -1 -1.25 0 c-0.70 0 -1.25 -0.20 -1.25 -0.50 0 -0.70 1.70 -1.50 2.80 -1.25 4 0.80 3.75 0.60 3.40 2.75 -0.25 1.40 -0.15 2 0.25 2 1.05 0 2.30 1.55 1.60 1.95 -0.80 0.50 -0.20 1.80 1.10 2.40 0.75 0.35 1.60 0.30 2.75 -0.20 1.55 -0.65 1.80 -0.60 2.65 0.15 0.90 0.85 1 0.80 1.70 -0.10 0.95 -1.25 0.95 -1.70 0 -1.70 -0.40 0 -0.75 -0.20 -0.75 -0.45 0 -0.50 1.75 -1.05 3.55 -1.05 1.20 0 1.35 0.20 1.55 2.10 0.25 2.45 -0.50 4.90 -1.45 4.90 -0.35 0 -0.65 -0.45 -0.65 -0.95 0 -0.85 -0.20 -0.90 -1.60 -0.45 -0.90 0.30 -2.05 0.75 -2.50 0.95 -0.50 0.25 -1.30 0.45 -1.75 0.45 -0.75 0 -0.85 0.40 -0.75 2.50 0.15 1.75 0.40 2.50 0.90 2.50 0.45 0 0.70 0.60 0.70 1.75 0 1.20 -0.25 1.75 -0.75 1.75 -0.70 0 -1 1.20 -0.80 2.90 0.05 0.30 -0.25 0.60 -0.70 0.60 -0.40 0 -0.75 -0.30 -0.75 -0.65z m2.40 -3.90 c-0.10 -0.30 -0.35 -0.50 -0.55 -0.50 -0.20 0.05 -0.75 0.05 -1.20 0.10 -0.75 0 -0.75 0.10 0.10 0.45 1.40 0.60 1.85 0.60 1.65 -0.05z m-5 -0.80 c-0.50 -0.10 -1.30 -0.10 -1.75 0 -0.50 0.15 -0.10 0.25 0.85 0.25 0.95 0 1.35 -0.10 0.90 -0.25z m1.40 -1.70 c0.60 -1.05 -0.65 -1.65 -2.10 -1 -0.70 0.30 -1.75 0.45 -2.30 0.25 -1 -0.30 -1 -1.30 -0.10 -4.60 0.10 -0.45 -0.10 -0.15 -0.50 0.65 -1.05 2.05 -1 4.10 0.10 4.70 1.15 0.70 4.45 0.70 4.90 0z m-0.05 -3.45 c0.20 -0.30 -0.25 -0.50 -1 -0.50 -0.75 0 -1.20 0.20 -1 0.50 0.15 0.30 0.60 0.50 1 0.50 0.40 0 0.85 -0.20 1 -0.50z m-3.75 -12.65 c0 -0.30 -0.45 -0.10 -1 0.40 -0.55 0.50 -1 1.15 -1 1.40 0 0.30 0.45 0.10 1 -0.40 0.55 -0.50 1 -1.15 1 -1.40z"/>
  <path d="M16.75 32.45 c-0.20 -0.30 -0.25 -0.65 -0.10 -0.80 0.35 -0.35 1.35 0.30 1.35 0.90 0 0.60 -0.85 0.60 -1.25 -0.10z"/>
  <path d="M23.50 28.75 c0 -0.75 0.35 -1.65 0.75 -2.05 0.40 -0.45 0.75 -1.30 0.75 -2 0 -0.85 0.25 -1.20 1 -1.20 0.55 0 1 -0.35 1 -0.75 0 -0.45 0.45 -0.75 1.05 -0.75 0.95 0 1.05 0.20 0.70 1.85 -0.30 1.70 -0.25 1.80 0.55 1.10 0.80 -0.65 0.80 -0.60 0.15 0.40 -0.40 0.70 -0.80 0.90 -1 0.55 -0.20 -0.30 -0.80 0.10 -1.50 1.05 -0.65 0.85 -1.65 1.90 -2.30 2.30 -1.10 0.75 -1.15 0.70 -1.15 -0.50z"/>
  <path d="M34.30 21.40 c1.60 -1.90 3.30 -4.45 3.10 -4.70 -0.30 -0.25 -3.45 0.80 -4.25 1.45 -0.35 0.25 -0.65 0.95 -0.65 1.55 0 0.95 0.10 0.90 1.20 -0.45 0.65 -0.80 1.35 -1.35 1.55 -1.15 0.60 0.60 -1.20 2.90 -2.20 2.90 -0.55 0 -1.30 0.15 -1.70 0.30 -1.15 0.40 -0.50 -1.95 1.10 -3.80 0.90 -1.10 1.95 -1.70 3.45 -2 l2.10 -0.35 0 1.65 c0 1.05 -0.25 1.70 -0.60 1.70 -0.65 0 -1.90 2.20 -1.90 3.35 0 0.35 -0.50 0.65 -1.10 0.65 -1.05 0 -1.05 0 -0.10 -1.10z"/>
  <path d="M9.75 17.75 c-0.95 -0.75 -0.95 -0.75 0.50 -0.65 0.85 0.10 1.45 0.35 1.40 0.65 -0.15 0.80 -0.90 0.80 -1.90 0z"/>
  <path d="M28 13.25 c-0.80 -0.45 -1.95 -0.60 -3.10 -0.40 -1.70 0.25 -1.90 0.15 -1.90 -0.80 0 -0.90 0.30 -1.05 2 -1.05 1.85 0 2 -0.10 2 -1.35 0 -1.35 0 -1.35 0.95 -0.40 0.70 0.75 1.90 4.85 1.40 4.75 -0.05 -0.05 -0.65 -0.35 -1.35 -0.75z"/>
  <path d="M20 9.85 c0 -0.35 1.20 -1.05 2.65 -1.50 3.40 -1.05 3.85 -1.05 3.85 0.05 0 0.65 -0.60 1.10 -1.95 1.50 -2.55 0.80 -4.55 0.75 -4.55 -0.05z"/>
 </g>
 <g fill="#524d4b">
  <path d="M2 39.60 c0 -0.25 0.35 -0.85 0.75 -1.40 0.75 -0.95 1 -0.40 0.45 1 -0.30 0.85 -1.20 1.10 -1.20 0.40z"/>
  <path d="M4.50 39.60 c0 -0.25 0.45 -0.85 1 -1.35 1 -0.90 1.25 -0.55 0.70 0.95 -0.30 0.85 -1.70 1.15 -1.70 0.40z"/>
  <path d="M7 39.50 c0 -0.30 0.30 -0.65 0.70 -0.80 0.40 -0.15 0.65 -0.55 0.50 -0.85 -0.40 -1.05 1.75 -3.80 3.55 -4.55 0.95 -0.40 1.75 -1 1.75 -1.35 0 -0.35 0.15 -0.50 0.30 -0.30 0.20 0.15 0.10 1 -0.20 1.80 -0.55 1.60 -0.25 2 0.80 0.95 0.45 -0.45 0.60 -0.25 0.60 0.90 l0.05 1.45 0.70 -1.25 c0.40 -0.70 0.70 -1.90 0.75 -2.65 0 -0.95 0.20 -1.35 0.65 -1.20 0.85 0.30 0.45 3.25 -0.70 5.15 -0.50 0.85 -0.95 1.95 -0.95 2.40 0 0.45 -0.35 0.80 -0.80 0.80 -0.50 0 -0.70 -0.25 -0.50 -0.75 1.05 -2.60 1.05 -2.55 0.15 -1.80 -0.45 0.35 -0.85 1.10 -0.85 1.60 0 0.70 -0.35 0.95 -1.25 0.95 -1.40 0 -1.65 -0.75 -0.50 -1.40 0.50 -0.25 0.65 -0.75 0.45 -1.30 -0.30 -0.80 -0.45 -0.75 -1.50 0.25 -0.65 0.60 -1.20 1.40 -1.20 1.80 0 0.35 -0.55 0.65 -1.25 0.65 -0.70 0 -1.25 -0.25 -1.25 -0.50z"/>
  <path d="M17 39.55 c0 -0.25 0.30 -0.70 0.70 -1 0.75 -0.65 2 -6.30 1.55 -7.05 -0.15 -0.30 0.10 -0.50 0.65 -0.50 0.50 0 1.45 -0.55 2.10 -1.25 0.65 -0.70 1.45 -1.25 1.80 -1.25 0.35 0 0.85 -0.35 1.10 -0.80 0.25 -0.45 0.75 -0.75 1.10 -0.60 0.70 0.20 -2.95 3.90 -4.35 4.45 -0.45 0.15 -0.85 1.05 -0.95 2.25 -0.25 3.10 -1.65 6.20 -2.75 6.20 -0.50 0 -0.95 -0.20 -0.95 -0.45z"/>
  <path d="M22.50 39.50 c0 -0.25 0.50 -0.70 1.10 -1.05 0.90 -0.50 1 -0.45 0.75 0.30 -0.20 0.45 -0.35 0.95 -0.35 1.05 0 0.10 -0.35 0.20 -0.75 0.20 -0.40 0 -0.75 -0.20 -0.75 -0.50z"/>
  <path d="M25 39.70 c0 -0.60 3 -3.20 4.15 -3.65 0.60 -0.25 2.15 -0.55 3.45 -0.75 3.30 -0.50 3.60 0.40 0.90 2.80 -2 1.80 -2.35 1.90 -5.30 1.90 -1.75 0 -3.20 -0.15 -3.20 -0.30z m7.25 -1.90 c1.50 -0.70 2.75 -1.50 2.75 -1.80 0 -0.30 -1.20 0.10 -2.60 0.90 -1.45 0.80 -3 1.60 -3.40 1.75 -0.40 0.15 -0.50 0.30 -0.15 0.30 0.35 0.05 1.85 -0.50 3.40 -1.15z"/>
  <path d="M34.50 39.50 c0 -0.25 0.20 -0.50 0.45 -0.50 0.25 0 0.70 -0.65 1.05 -1.45 l0.60 -1.50 1.70 1.10 c2 1.30 2.15 1.85 0.45 1.85 -0.70 0 -1.25 0.25 -1.25 0.50 0 0.30 -0.65 0.50 -1.50 0.50 -0.80 0 -1.50 -0.20 -1.50 -0.50z"/>
  <path d="M2 37.25 c0 -0.20 0.35 -1 0.75 -1.90 l0.80 -1.60 -1.30 1.50 -1.35 1.50 0.35 -2 c0.15 -1.10 0.40 -2.40 0.55 -2.85 0.15 -0.50 0.05 -0.90 -0.25 -0.90 -0.30 0 -0.55 0.25 -0.55 0.50 0 0.30 -0.20 0.50 -0.50 0.50 -0.25 0 -0.50 -0.35 -0.50 -0.75 0 -0.40 0.20 -0.75 0.50 -0.75 0.25 0 0.90 -0.50 1.50 -1.10 0.55 -0.60 1 -0.80 1 -0.50 0 0.50 0.25 0.50 1 0.10 0.70 -0.35 1 -1.05 1 -2.25 0 -2.15 0.85 -4.40 1.50 -4 0.70 0.45 0.60 2.15 -0.30 5.25 -0.55 1.90 -0.90 2.45 -1.20 1.95 -0.65 -1 -0.90 -0.45 -1.15 2.55 -0.10 1.50 -0.45 3.25 -0.80 3.90 -0.55 1.05 -1.05 1.45 -1.05 0.85z"/>
  <path d="M5.45 35.15 c0.55 -1.10 1.30 -2.25 1.70 -2.60 0.40 -0.30 1 -1.25 1.35 -2.05 0.75 -1.85 1.50 -1.95 1.50 -0.20 0 0.90 -0.80 2.20 -2.35 3.90 -3 3.20 -3.50 3.40 -2.20 0.95z"/>
  <path d="M25.50 36.30 c0 -0.40 0.35 -0.80 0.75 -1 0.65 -0.20 0.70 -0.10 0.25 0.70 -0.65 1.15 -1 1.30 -1 0.30z"/>
  <path d="M38.30 35.75 c-0.90 -0.70 -0.90 -0.80 -0.15 -1.65 0.45 -0.50 0.85 -1.20 0.85 -1.50 0 -0.35 0.25 -0.60 0.50 -0.60 0.30 0 0.50 1 0.50 2.25 0 2.40 -0.20 2.60 -1.70 1.50z"/>
  <path d="M28.50 34.50 c0 -0.25 0.75 -1.05 1.65 -1.80 0.85 -0.75 1.55 -1.65 1.45 -1.95 -0.15 -0.80 5.25 -5.55 5.75 -5.05 0.30 0.30 -1.85 3.95 -2.45 4.20 -0.20 0.10 -0.40 0.40 -0.40 0.65 0 0.70 1.50 -0.20 3.15 -1.85 1.50 -1.50 1.70 -1.30 0.65 0.70 -0.70 1.35 -4.05 3.60 -5.40 3.60 -0.35 0 -1.50 0.45 -2.55 0.95 -1 0.50 -1.85 0.75 -1.85 0.55z"/>
  <path d="M22.80 33.20 c-0.25 -0.60 0.10 -1.30 0.95 -2.15 l1.30 -1.30 -0.85 2 c-1 2.50 -1 2.50 -1.40 1.45z"/>
  <path d="M25.85 33 c0.15 -0.50 0.55 -1.25 0.95 -1.55 0.55 -0.45 0.70 -0.30 0.70 1 0 1.20 -0.20 1.55 -0.95 1.55 -0.70 0 -0.90 -0.25 -0.70 -1z"/>
  <path d="M35.20 33.25 c1.10 -0.85 2 -1 1.60 -0.30 -0.15 0.25 -0.80 0.55 -1.40 0.70 -1.10 0.30 -1.10 0.25 -0.20 -0.40z"/>
  <path d="M7.10 29.25 c1.40 -2.55 1.40 -2.55 1.40 -1.60 0 0.45 -0.55 1.45 -1.25 2.20 l-1.30 1.40 1.15 -2z"/>
  <path d="M12 30.50 c0 -0.25 0.45 -0.50 1 -0.50 0.55 0 1 0.25 1 0.50 0 0.30 -0.45 0.50 -1 0.50 -0.55 0 -1 -0.20 -1 -0.50z"/>
  <path d="M15.90 30.15 c0.60 -0.10 1.50 -0.10 2 0 0.45 0.15 -0.05 0.25 -1.15 0.20 -1.10 0 -1.50 -0.10 -0.85 -0.20z"/>
  <path d="M29 29.15 c0 -1.55 2.45 -4.15 3.90 -4.10 1.25 0 1.25 0.05 0.35 0.50 -0.55 0.30 -1.45 1.40 -1.95 2.45 -0.95 2.05 -2.30 2.70 -2.30 1.15z"/>
  <path d="M10.05 27.70 c-0.55 -0.75 -0.85 -1.55 -0.65 -1.90 0.20 -0.35 0.40 -0.10 0.50 0.60 0.10 0.60 0.50 1.10 0.90 1.10 0.40 0 0.70 0.35 0.70 0.75 0 1.05 -0.25 0.95 -1.45 -0.55z"/>
  <path d="M7.80 24.20 c-0.45 -1.20 -0.35 -2.70 0.20 -2.70 0.30 0 0.50 0.80 0.50 1.75 0 1.90 -0.20 2.20 -0.70 0.95z"/>
  <path d="M31.50 23.80 c0 -0.40 0.25 -0.90 0.50 -1.05 0.30 -0.15 0.50 -0.05 0.50 0.20 0 0.30 0.40 0.55 0.90 0.55 0.70 0 0.75 0.10 0.10 0.50 -1.10 0.70 -2 0.60 -2 -0.20z"/>
  <path d="M30.65 21.45 c0.20 -0.65 0.35 -1.35 0.35 -1.55 0 -0.60 1.50 -0.45 1.50 0.10 0 0.30 -0.50 1 -1.10 1.60 l-1.05 1.05 0.30 -1.20z"/>
  <path d="M37.50 21.50 c0 -0.25 0.30 -0.50 0.70 -0.50 0.40 0 0.90 0.25 1.05 0.50 0.15 0.30 -0.15 0.50 -0.70 0.50 -0.60 0 -1.05 -0.20 -1.05 -0.50z"/>
  <path d="M39.35 20.65 c-0.55 -0.50 -0.40 -2.65 0.15 -2.65 0.30 0 0.50 0.70 0.50 1.50 0 1.55 -0.10 1.75 -0.65 1.15z"/>
  <path d="M37.50 17.35 c0 -1.30 0 -1.30 -1.80 -0.55 -1 0.40 -2.30 0.70 -2.90 0.60 -0.95 -0.15 -0.90 -0.25 0.50 -1 1.80 -1 5 -1.35 5.65 -0.65 0.30 0.30 0.10 0.95 -0.50 1.70 l-0.95 1.15 0 -1.25z"/>
  <path d="M32 15.35 c0 -0.25 -0.55 -1.25 -1.30 -2.20 -0.70 -0.90 -1.05 -1.65 -0.85 -1.65 0.55 0 2.15 1.85 2.15 2.50 0 0.70 0.80 0.60 1.45 -0.15 0.60 -0.80 0.05 -1.70 -1.95 -3.05 -0.80 -0.50 -0.95 -0.80 -0.45 -0.80 0.40 0 1.05 0.30 1.40 0.65 0.55 0.50 0.70 0.50 0.90 0 0.40 -1.10 1.30 -0.70 3 1.20 1.65 1.85 1.85 2.85 0.30 1.60 -0.70 -0.60 -0.80 -0.60 -0.55 0.05 0.20 0.60 -0.30 1 -1.90 1.60 -1.35 0.45 -2.20 0.55 -2.20 0.25z"/>
  <path d="M28.35 13.25 c-0.65 -0.45 -0.80 -1 -0.55 -1.95 0.15 -0.70 0.50 -1.15 0.75 -1 0.25 0.15 0.35 0.45 0.20 0.70 -0.15 0.25 -0.05 0.95 0.25 1.55 0.75 1.30 0.50 1.55 -0.65 0.70z"/>
  <path d="M8 13.05 c0 -0.25 -0.15 -0.85 -0.35 -1.35 -0.20 -0.60 -0.15 -0.75 0.25 -0.50 0.35 0.20 0.60 0.05 0.60 -0.40 0 -0.40 0.25 -0.90 0.50 -1.05 0.30 -0.20 0.50 0.50 0.50 1.70 0 1.50 -0.20 2.05 -0.75 2.05 -0.40 0 -0.75 -0.20 -0.75 -0.45z"/>
  <path d="M39 12.80 c0 -0.90 -2.75 -3.05 -4.50 -3.55 -0.70 -0.20 -1.80 -0.70 -2.50 -1.15 -0.70 -0.45 -2.05 -0.95 -3 -1.10 l-1.75 -0.30 1.45 -0.80 c0.90 -0.45 1.25 -0.90 0.90 -1.10 -0.35 -0.20 -1.05 -0.10 -1.60 0.20 -0.55 0.30 -1.75 0.40 -2.65 0.25 -0.90 -0.15 -2.05 0 -2.65 0.35 -3.05 1.85 -5.25 2.90 -6 2.90 -0.80 0 -0.80 -0.10 0.05 -1 0.50 -0.55 1.15 -0.95 1.45 -0.85 0.30 0.10 1.80 -0.90 3.30 -2.30 1.50 -1.35 3.20 -2.70 3.85 -3 0.65 -0.30 1.15 -0.70 1.15 -0.95 0 -0.20 1 -0.40 2.25 -0.40 1.25 0 2.25 0.25 2.25 0.50 0 0.30 -0.55 0.50 -1.25 0.50 -1.55 0 -4.50 1.20 -5 2 -0.25 0.40 -0.10 0.50 0.55 0.30 0.55 -0.15 1.70 -0.40 2.65 -0.55 0.95 -0.15 1.90 -0.40 2.15 -0.55 0.60 -0.40 0.50 0.50 -0.20 1.20 -0.45 0.45 -0.35 0.60 0.65 0.65 6.55 0.20 6.15 0.05 7.10 2.10 1.30 2.60 0.90 3.10 -1 1.35 -1.25 -1.15 -2 -1.50 -3.50 -1.45 -1.50 0.10 -1.60 0.15 -0.50 0.30 0.75 0.10 1.35 0.40 1.35 0.65 0 0.20 0.95 0.95 2.15 1.65 1.15 0.70 2.50 1.75 3 2.30 0.95 1.15 1.15 2.55 0.35 2.55 -0.25 0 -0.50 -0.35 -0.50 -0.70z"/>
  <path d="M14.35 9.65 c-0.15 -0.25 0.95 -0.40 2.45 -0.40 1.50 0 2.70 0.15 2.70 0.40 0 0.20 -1.10 0.35 -2.45 0.35 -1.40 0 -2.60 -0.15 -2.70 -0.35z"/>
  <path d="M11.80 7.25 c-0.95 -2.50 1.20 -7.20 3.35 -7.25 0.70 0 0.60 0.35 -0.65 2.10 -0.80 1.10 -1.50 2.65 -1.50 3.35 0 1.80 -0.75 2.90 -1.20 1.80z"/>
  <path d="M14.35 7.70 c-0.15 -0.15 -0.10 -0.85 0.15 -1.50 0.45 -1.10 0.30 -1.40 -0.60 -1.25 -0.65 0.10 -0.45 -0.65 0.40 -1.90 0.55 -0.80 1.15 -1.05 1.85 -0.85 1 0.25 3.85 -1.05 3.85 -1.80 0 -0.20 0.35 -0.40 0.75 -0.40 1.05 0 0.95 0.40 -0.35 1.60 l-1.15 1 1.15 -0.25 c1.65 -0.35 1.40 0.95 -0.40 1.90 -0.80 0.40 -1.90 0.75 -2.50 0.75 -0.60 0 -1.40 0.60 -1.95 1.50 -0.50 0.80 -1 1.35 -1.20 1.20z"/>
  <path d="M7.50 7.30 c0 -1.40 3.55 -6.30 4.55 -6.30 0.80 0 -1.50 4.25 -2.65 4.85 -0.65 0.35 -1.10 0.85 -1 1.15 0.05 0.25 -0.10 0.50 -0.40 0.50 -0.25 0 -0.50 -0.10 -0.50 -0.20z"/>
 </g>
 <g fill="#74523b">
  <path d="M19.50 32.55 c0 -0.50 -0.30 -1.15 -0.60 -1.40 -0.85 -0.70 -4.90 -1.15 -4.90 -0.60 0 1 -1.80 0.35 -2.60 -0.95 -0.50 -0.75 -1.20 -1.80 -1.60 -2.35 -0.65 -0.90 -0.65 -1.30 0.15 -3.60 0.90 -2.60 3.90 -6.15 5.25 -6.15 0.85 0 0.80 -1.15 -0.05 -1.90 -0.50 -0.50 -0.65 -0.45 -0.65 0.40 0 1.20 -0.75 1.35 -1.20 0.20 -0.40 -1 0.20 -4.65 0.75 -5 0.25 -0.15 0.45 -0.55 0.45 -0.85 -0.05 -0.75 -3 2.65 -3 3.40 0 0.25 0.20 0.15 0.50 -0.25 0.25 -0.40 0.55 -0.60 0.70 -0.45 0.15 0.15 0 0.70 -0.40 1.20 -0.60 0.85 -0.70 0.85 -2.35 -0.05 -0.95 -0.50 -1.80 -1 -1.85 -1.05 -0.10 -0.05 -0.05 -0.75 0.15 -1.60 0.35 -1.55 1.45 -2.10 1.90 -0.90 0.15 0.30 0.30 0.10 0.30 -0.55 0.05 -1.05 0.25 -1.15 2.20 -0.90 1.15 0.10 2.50 0.25 3 0.25 1 0.05 1.25 2.55 0.25 2.55 -0.95 0 1.25 1.45 2.25 1.50 1.30 0 1.05 1.35 -0.35 1.70 -0.85 0.20 -1.20 0.65 -1.15 1.30 0.05 0.55 0.20 1 0.40 1 0.15 0 0.20 0.55 0.10 1.20 -0.15 0.70 0.05 1.25 0.50 1.45 0.50 0.20 0.65 -0.05 0.45 -1.05 -0.25 -1.35 -0.25 -1.35 0.85 -0.40 0.95 0.85 1.05 0.85 1.05 0.10 0 -0.45 0.60 -1.05 1.30 -1.30 1.75 -0.70 1.80 -0.65 1.45 0.65 -0.20 0.75 -0.15 0.90 0.15 0.40 0.30 -0.45 0.60 -0.50 0.80 -0.15 0.35 0.55 1.80 0.25 1.70 -0.30 -0.10 -1 0.15 -1.25 0.60 -0.60 0.40 0.65 0.55 0.65 1.30 -0.10 1.30 -1.25 0.45 -1.90 -2.20 -1.60 -1.55 0.15 -2.10 0.10 -1.60 -0.20 0.40 -0.25 1.95 -0.60 3.40 -0.80 2.50 -0.30 2.65 -0.30 3.15 1.05 0.40 1.10 0.35 1.75 -0.35 3.05 -0.85 1.55 -0.95 1.60 -4.05 1.60 -3.95 0 -4.50 0.50 -4.25 3.65 0.15 1.85 0.40 2.35 1.10 2.35 0.65 0 0.95 0.50 1.10 1.75 0.20 1.85 -0.40 2.75 -2.30 3.45 -0.55 0.20 -0.80 0.60 -0.60 1.05 0.15 0.45 0 0.75 -0.45 0.75 -0.40 0 -0.75 -0.40 -0.75 -0.95z m2.40 -3.65 c-0.25 -0.65 -0.40 -0.65 -2.50 -0.40 -1 0.10 -0.95 0.15 0.35 0.50 2.20 0.55 2.35 0.55 2.15 -0.10z m-4.40 -0.90 c-0.60 -0.40 -0.60 -0.50 0.15 -0.80 0.45 -0.15 0.85 -0.75 0.85 -1.30 0 -0.85 -0.20 -0.95 -1.60 -0.70 -2.05 0.40 -3.45 0.45 -3.80 0.10 -0.10 -0.15 0.05 -1.30 0.40 -2.55 0.85 -3.10 0.30 -3.40 -0.70 -0.35 -1.05 3.05 -0.70 3.90 1.60 4.50 1.85 0.45 1.85 0.45 0.60 1 -1.15 0.50 -1.05 0.55 1 0.55 1.60 0.05 2.05 -0.10 1.50 -0.45z m2 -4.20 c0 -0.15 -0.35 -0.60 -0.80 -1 -1 -1.05 -2.70 -1.05 -2.70 0 0 0.60 0.35 0.75 1.25 0.60 0.70 -0.15 1.40 -0.05 1.55 0.15 0.25 0.45 0.70 0.60 0.70 0.25z"/>
  <path d="M25.50 24.25 c0 -1.65 0.10 -1.75 1.75 -1.75 0.95 0 1.75 0.10 1.75 0.20 0 0.05 -0.25 0.85 -0.55 1.75 -0.40 1.15 -0.85 1.55 -1.75 1.55 -1.05 0 -1.20 -0.25 -1.20 -1.75z"/>
  <path d="M31.25 25.50 c0.15 -0.25 0.65 -0.50 1.05 -0.50 0.40 0 0.60 0.25 0.45 0.50 -0.15 0.30 -0.65 0.50 -1.05 0.50 -0.40 0 -0.60 -0.20 -0.45 -0.50z"/>
  <path d="M6 24.20 c0 -0.70 0.20 -1.15 0.50 -0.95 0.30 0.15 0.50 0.75 0.50 1.30 0 0.50 -0.20 0.95 -0.50 0.95 -0.25 0 -0.50 -0.60 -0.50 -1.30z"/>
  <path d="M8.10 24.65 c-0.40 -0.70 -0.50 -2.10 -0.25 -4.25 0.20 -1.75 0.45 -2.75 0.55 -2.25 0.10 0.50 0.65 0.85 1.40 0.85 1.40 0 1.55 0.80 0.35 2.45 -0.45 0.65 -0.95 1.90 -1.15 2.75 -0.30 1.50 -0.35 1.50 -0.90 0.45z"/>
  <path d="M38 24.50 c-0.55 -0.55 -1.40 -1 -1.85 -1 -0.70 0 -0.60 -0.25 0.50 -1.35 1.75 -1.75 3.05 -1.15 3.25 1.55 0.20 2.05 -0.40 2.30 -1.90 0.80z"/>
  <path d="M31.50 23.80 c0 -0.40 0.60 -1.05 1.35 -1.40 1.25 -0.60 4.55 -4.60 4.60 -5.60 0.05 -0.55 -2.40 0.10 -3.80 1 -0.65 0.40 -1.15 1.25 -1.15 1.85 0 0.60 -0.45 1.40 -0.95 1.70 -1 0.65 -1 0.75 -0.30 -2.45 0.15 -0.95 0.60 -1.40 1.20 -1.40 0.50 0 1.05 -0.30 1.20 -0.70 0.35 -0.85 4.05 -1.80 4.90 -1.25 1.40 0.85 -4.25 8.95 -6.20 8.95 -0.50 0 -0.85 -0.35 -0.85 -0.70z"/>
  <path d="M5.80 18.65 c-0.30 -2.25 -0.10 -3.15 0.50 -2.50 0.20 0.15 0.45 1.30 0.55 2.60 0.35 3 -0.60 2.95 -1.05 -0.10z"/>
  <path d="M33.50 20.10 c0 -0.25 0.45 -0.85 1 -1.35 1.10 -1 1.30 -0.70 0.50 0.80 -0.55 0.95 -1.50 1.30 -1.50 0.55z"/>
  <path d="M9.70 17.70 c-0.85 -0.70 -0.85 -0.75 -0.05 -0.50 0.50 0.15 1.15 0.30 1.40 0.30 0.25 0 0.45 0.25 0.45 0.50 0 0.70 -0.65 0.60 -1.80 -0.30z"/>
  <path d="M28 13.20 c-0.70 -0.40 -1.95 -0.65 -2.85 -0.50 -1.60 0.25 -1.65 0.15 -1.65 -1.45 0 -1.55 0.10 -1.65 2.15 -1.90 2.05 -0.20 3.70 0.70 3.10 1.70 -0.15 0.20 -0.05 0.95 0.25 1.65 0.25 0.70 0.40 1.30 0.35 1.25 -0.05 -0.05 -0.65 -0.35 -1.35 -0.75z"/>
  <path d="M17.50 10.30 c0 -0.65 1.40 -1.30 2.90 -1.30 0.30 0 0.60 0.45 0.60 1 0 0.80 -0.35 1 -1.75 1 -1.15 0 -1.75 -0.25 -1.75 -0.70z"/>
 </g>
 <g fill="#885631">
  <path d="M19.30 31.75 c-0.20 -0.70 -0.65 -1.25 -1.05 -1.25 -0.40 0 -0.75 -0.35 -0.75 -0.75 0 -0.85 2.75 -1.05 3.25 -0.25 0.40 0.65 -0.20 3.50 -0.75 3.50 -0.20 0 -0.55 -0.55 -0.70 -1.25z"/>
  <path d="M11.65 29.65 c-0.20 -0.50 -0.65 -1.10 -1 -1.40 -0.90 -0.70 -0.55 -5.30 0.50 -6.80 1.95 -2.80 2.70 -3.50 4.10 -3.60 1.65 -0.10 1.70 0.10 1 3.95 l-0.35 2.05 1.55 -0.25 c1.35 -0.20 1.55 -0.05 1.55 0.85 0 0.65 0.20 0.95 0.55 0.80 0.30 -0.20 0.40 -0.65 0.25 -1.05 -0.15 -0.40 -0.05 -0.70 0.20 -0.70 0.30 0 0.50 0.85 0.50 1.90 0 2.10 -1.15 3.20 -2.75 2.60 -0.90 -0.35 -0.95 -0.40 -0.10 -0.75 1.15 -0.45 1.10 -2.05 -0.05 -2.35 -0.50 -0.15 -1.35 0.05 -1.85 0.40 -1.30 0.95 -2.95 0 -2.50 -1.45 0.85 -2.75 1.10 -4.30 0.70 -4.10 -0.20 0.15 -0.80 1.55 -1.30 3.05 -0.85 2.70 -0.85 2.85 0.10 3.50 0.50 0.40 1.40 0.70 1.95 0.75 0.85 0 0.75 0.15 -0.40 0.55 -1.10 0.40 -1.50 0.35 -1.85 -0.15 -0.35 -0.55 -0.45 -0.50 -0.45 0.20 0 0.55 0.45 1.05 1 1.20 1.20 0.30 1.05 1.30 -0.15 1.55 -0.50 0.10 -1 -0.25 -1.20 -0.75z"/>
  <path d="M23 29.20 c0 -0.85 0.55 -2.70 1.30 -4.15 1.55 -3.25 1.40 -4.25 -0.55 -4.45 -1.85 -0.20 -2.70 -0.95 -1.60 -1.40 0.45 -0.15 0.85 -0.55 0.85 -0.85 0 -0.35 -0.20 -0.35 -0.60 0.05 -0.80 0.80 -1.40 0.75 -1.40 -0.10 0 -1.15 1.55 -1.40 2.30 -0.40 0.80 1.15 4.15 1.10 4.90 0 0.85 -1.35 -0.05 -2.55 -1.70 -2.30 -0.85 0.15 -1.50 0.05 -1.50 -0.20 0 -0.20 0.50 -0.40 1.15 -0.45 0.60 0 1.60 -0.10 2.20 -0.15 1.55 -0.20 2.35 2.10 1.35 3.95 -0.40 0.75 -0.70 2 -0.70 2.80 0 2.65 -1.40 4.95 -4.65 7.90 l-1.35 1.20 0 -1.45z"/>
  <path d="M38.15 24.80 c-2.15 -1.35 -2.05 -1.80 0.25 -1.80 1.20 0 1.60 0.15 1.15 0.45 -0.50 0.30 -0.50 0.50 -0.05 0.65 0.35 0.10 0.55 0.55 0.45 1 -0.20 0.65 -0.40 0.60 -1.80 -0.30z"/>
  <path d="M7.80 23.75 c-0.15 -0.40 -0.10 -1.25 0.15 -1.90 0.25 -0.60 0.35 -1.75 0.25 -2.60 -0.10 -1.25 -0.05 -1.35 0.35 -0.60 0.35 0.60 0.85 0.80 1.50 0.60 1.25 -0.40 1.20 0 -0.15 2.85 -1.25 2.55 -1.60 2.85 -2.10 1.65z"/>
  <path d="M17.90 22.15 c-1.05 -0.25 -1.20 -1.65 -0.20 -1.65 0.45 0 0.60 -0.35 0.45 -1 -0.15 -0.55 -0.05 -1 0.20 -1 0.85 0 2.15 1.80 2.15 2.90 0 1.10 -0.65 1.30 -2.60 0.75z"/>
  <path d="M35 21.35 c0 -0.10 0.35 -0.90 0.80 -1.75 0.80 -1.70 1.70 -2.50 1.70 -1.65 0 0.30 -0.20 0.55 -0.45 0.55 -0.25 0 -0.55 0.70 -0.70 1.50 -0.20 0.85 -0.55 1.50 -0.85 1.50 -0.25 0 -0.50 -0.10 -0.50 -0.15z"/>
  <path d="M6.35 20.15 c-0.60 -1 -0.90 -3.65 -0.40 -3.65 0.25 0 0.65 0.80 0.85 1.75 0.30 1.70 0.05 2.75 -0.45 1.90z"/>
  <path d="M31.05 19.75 c0 -0.55 0.20 -1.35 0.45 -1.75 0.45 -0.65 0.50 -0.65 0.45 0 0 0.40 -0.20 1.20 -0.45 1.75 l-0.45 1 0 -1z"/>
  <path d="M9.70 17.70 c-0.85 -0.70 -0.85 -0.75 -0.05 -0.50 0.50 0.15 1.25 0.30 1.65 0.30 0.45 0 0.60 0.25 0.45 0.50 -0.45 0.70 -0.90 0.65 -2.05 -0.30z"/>
  <path d="M32.50 18.05 c0 -0.65 1.95 -1.95 3.45 -2.30 2.25 -0.50 1.90 0.05 -0.95 1.40 -1.35 0.65 -2.50 1.05 -2.50 0.90z"/>
  <path d="M13.25 15.30 c-0.25 -0.55 -0.15 -1.05 0.20 -1.25 0.30 -0.20 0.45 -0.70 0.30 -1.10 -0.15 -0.40 0.20 -1.35 0.75 -2.20 l1 -1.50 0 1.40 c0 0.75 -0.20 1.35 -0.45 1.35 -0.20 0 -0.65 0.95 -0.90 2.15 -0.40 1.70 -0.55 1.90 -0.90 1.15z"/>
  <path d="M10.85 14.60 c-0.70 -0.15 -0.90 -0.50 -0.70 -1.40 0.15 -0.90 0 -1.20 -0.70 -1.20 -1.10 0 -1.30 -1.45 -0.35 -2.40 0.95 -0.95 2.40 -0.75 2.40 0.35 0 0.55 -0.30 1.10 -0.60 1.20 -0.40 0.15 -0.30 0.30 0.25 0.30 0.55 0.05 0.85 -0.30 0.85 -0.95 0 -0.75 0.35 -1 1.35 -1 l1.35 0 -1.90 1.95 c-1.05 1.05 -1.65 2.05 -1.40 2.25 0.30 0.15 0.60 0 0.75 -0.30 0.10 -0.35 0.35 -0.50 0.55 -0.35 0.55 0.50 -0.95 1.80 -1.85 1.55z"/>
  <path d="M23 11.75 c0 -1 -0.25 -1.25 -1.25 -1.25 -2.25 0 -1.30 -1.30 1.55 -2.20 2.80 -0.90 2.85 -0.90 3.90 0.15 0.90 0.90 0.90 1.05 0.15 1.05 -0.65 0 -0.75 0.30 -0.50 1.65 l0.30 1.60 -1.15 -1 c-0.95 -0.80 -1.10 -0.85 -0.85 -0.15 0.15 0.50 0 0.95 -0.45 1.10 -1.35 0.50 -1.70 0.35 -1.70 -0.95z"/>
 </g>
 <g fill="#5f5a58">
  <path d="M4.50 39.55 c0 -0.25 0.35 -0.55 0.75 -0.75 0.45 -0.15 0.75 0 0.75 0.45 0 0.40 -0.35 0.75 -0.75 0.75 -0.40 0 -0.75 -0.20 -0.75 -0.45z"/>
  <path d="M7.50 39.50 c0 -0.25 0.40 -0.70 0.95 -0.95 0.50 -0.30 1.10 -0.90 1.25 -1.35 0.25 -0.70 0.20 -0.75 -0.45 -0.20 -0.90 0.75 -0.90 0.50 -0.25 -1.20 0.45 -1.20 3.80 -3.15 4.40 -2.55 0.30 0.30 -0.85 1.95 -2.85 4.20 -0.85 0.90 -1.55 1.90 -1.55 2.10 0 0.25 -0.35 0.45 -0.75 0.45 -0.40 0 -0.75 -0.20 -0.75 -0.50z"/>
  <path d="M11.90 39.40 c0.35 -0.35 0.60 -1.20 0.60 -1.90 0 -1.20 1.30 -3 2.15 -3 0.65 0 0.35 1.45 -0.70 3.50 -0.60 1.10 -1.40 2 -1.85 2 -0.60 0 -0.65 -0.15 -0.20 -0.60z"/>
  <path d="M14 39.85 c0 -0.80 2.40 -4.90 2.65 -4.50 0.35 0.60 -1.55 4.65 -2.20 4.65 -0.25 0 -0.45 -0.05 -0.45 -0.15z"/>
  <path d="M17 39.50 c0 -0.25 0.20 -0.50 0.45 -0.50 0.55 0 1.40 -2.45 1.85 -5.35 0.35 -2.15 1.15 -2.95 1.25 -1.25 0.10 1.35 -0.05 2.20 -0.90 5 -0.60 1.90 -1.05 2.60 -1.70 2.60 -0.55 0 -0.95 -0.20 -0.95 -0.50z"/>
  <path d="M25 39.75 c0 -0.15 0.60 -0.85 1.35 -1.55 1.20 -1.10 7.50 -3.50 8 -3 0.35 0.35 -2.70 2.30 -4.70 3.05 -1.50 0.55 -1.65 0.70 -0.70 0.70 0.60 0.05 2.25 -0.50 3.65 -1.20 2.80 -1.40 2.75 -0.80 -0.15 1 -1.45 0.95 -2.60 1.25 -4.70 1.25 -1.50 0 -2.75 -0.10 -2.75 -0.25z"/>
  <path d="M35.10 39.15 c0.40 -0.50 0.90 -1.30 1.05 -1.80 0.45 -1.20 1.55 -0.85 1.75 0.55 0.15 0.85 -0.10 1.10 -0.85 1.10 -0.60 0 -1.05 0.25 -1.05 0.50 0 0.30 -0.35 0.50 -0.85 0.50 -0.70 0 -0.75 -0.10 -0.05 -0.85z"/>
  <path d="M2.50 36.40 c0 -0.45 0.35 -1.10 0.85 -1.45 0.75 -0.65 0.75 -0.60 0.15 0.55 -0.85 1.70 -1 1.80 -1 0.90z"/>
  <path d="M5.50 35.15 c0.60 -1.05 1.50 -2.15 2 -2.50 0.50 -0.35 1.05 -1.20 1.20 -1.90 0.40 -1.60 1.30 -1.65 1.30 -0.05 0 0.80 -0.60 1.70 -1.65 2.50 -0.90 0.70 -1.95 1.85 -2.35 2.55 -0.35 0.70 -0.90 1.25 -1.15 1.25 -0.25 0 0.05 -0.85 0.65 -1.85z"/>
  <path d="M25.60 35.30 c-0.05 -1.75 1.05 -3.80 1.70 -3.20 0.40 0.45 -0.60 4.20 -1.25 4.60 -0.20 0.15 -0.40 -0.50 -0.45 -1.40z"/>
  <path d="M39.20 36 c-0.60 -0.60 -0.30 -3.50 0.35 -3.50 0.25 0 0.45 0.90 0.45 2 0 2.15 -0.05 2.25 -0.80 1.50z"/>
  <path d="M1.50 33.95 c0 -1.60 0.15 -2 0.50 -1.45 0.40 0.60 0.50 0.55 0.50 -0.30 0 -0.55 0.35 -1.45 0.80 -2 0.70 -0.90 0.75 -0.80 0.55 1.15 -0.15 1.15 -0.70 2.70 -1.30 3.45 l-1.05 1.35 0 -2.20z"/>
  <path d="M16.50 33.65 c0 -1.20 0.80 -2.40 1.15 -1.80 0.40 0.65 -0.15 2.65 -0.70 2.65 -0.25 0 -0.45 -0.40 -0.45 -0.85z"/>
  <path d="M30.50 32.45 c1.25 -1.15 1.95 -1.90 1.65 -1.75 -1.15 0.65 -0.70 -0.50 0.75 -1.75 2 -1.80 4.60 -3.55 4.60 -3.10 0 0.60 -1.40 2.65 -2.90 4.30 -1.45 1.55 -1.15 1.75 0.70 0.55 0.65 -0.45 1.40 -0.70 1.60 -0.50 0.45 0.50 -1.85 2.25 -3.40 2.60 -0.70 0.15 -2.15 0.60 -3.25 1 l-2 0.70 2.25 -2.05z"/>
  <path d="M0 31.25 c0 -0.40 0.30 -0.75 0.70 -0.75 0.40 0 1.10 -0.50 1.50 -1.10 0.60 -0.80 0.80 -0.90 0.80 -0.35 0 0.70 -2.10 2.95 -2.75 2.95 -0.15 0 -0.25 -0.35 -0.25 -0.75z"/>
  <path d="M29 30.05 c0 -1.65 1.90 -4.70 3.10 -4.95 0.65 -0.10 0.40 0.60 -0.95 3.10 -0.95 1.80 -1.80 3.30 -1.95 3.30 -0.10 0 -0.20 -0.65 -0.20 -1.45z"/>
  <path d="M16.40 30.15 c0.60 -0.10 1.50 -0.10 2 0 0.45 0.15 -0.05 0.25 -1.15 0.20 -1.10 0 -1.50 -0.10 -0.85 -0.20z"/>
  <path d="M5 28.55 c0 -0.50 0.30 -1.05 0.65 -1.20 0.50 -0.20 0.65 0.10 0.45 0.95 -0.25 1.40 -1.10 1.60 -1.10 0.25z"/>
  <path d="M5.50 23.95 c0 -1.20 1.15 -1.05 1.40 0.20 0.10 0.50 -0.15 0.85 -0.60 0.85 -0.50 0 -0.80 -0.45 -0.80 -1.05z"/>
  <path d="M31.50 23.80 c0 -0.40 0.25 -0.90 0.50 -1.05 0.30 -0.15 0.50 -0.05 0.50 0.20 0 0.30 0.40 0.55 0.90 0.60 0.70 0 0.70 0.10 -0.15 0.45 -1.45 0.60 -1.75 0.60 -1.75 -0.20z"/>
  <path d="M31 19.90 c0.35 -1.95 1.90 -3.90 3.05 -3.90 0.70 0 0.55 0.45 -0.75 1.85 -0.65 0.70 -1.10 1.55 -1 1.90 0.15 0.30 -0.20 0.95 -0.70 1.45 -0.95 0.80 -0.95 0.80 -0.60 -1.30z"/>
  <path d="M9.40 14.15 c-1.45 -0.35 -1.05 -1.65 0.50 -1.65 1.05 0 1.40 0.25 1.45 1 0.10 1 -0.25 1.10 -1.95 0.65z"/>
  <path d="M33.90 12.80 c-1.35 -1.70 -1.35 -1.70 -0.30 -1.95 1.40 -0.40 1.70 -0.15 2.10 1.45 0.55 2.10 -0.35 2.35 -1.80 0.50z"/>
  <path d="M38.65 12.10 c-0.60 -0.80 -2.10 -1.95 -3.35 -2.55 -1.25 -0.55 -2.30 -1.25 -2.30 -1.45 0 -0.20 -0.40 -0.40 -0.85 -0.45 -0.50 -0.05 -1.80 -0.30 -2.90 -0.55 l-2 -0.45 1.30 -0.55 c0.75 -0.30 1.40 -0.75 1.50 -1 0.10 -0.30 1.60 -0.65 3.35 -0.80 l3.10 -0.25 1.05 2.05 c1.15 2.25 0.95 3 -0.50 1.70 -0.55 -0.50 -1.50 -0.80 -2.15 -0.70 -1.05 0.15 -1 0.25 0.80 1.35 2.80 1.75 4.40 3.40 4.20 4.30 -0.10 0.65 -0.40 0.50 -1.25 -0.65z"/>
  <path d="M15.90 9.65 c0.60 -0.10 1.50 -0.10 2 0 0.45 0.15 -0.05 0.25 -1.15 0.20 -1.10 0 -1.50 -0.10 -0.85 -0.20z"/>
  <path d="M16.75 7.95 c0.20 -0.25 0.60 -0.45 0.95 -0.45 0.40 0 2 -1.25 3.55 -2.75 1.60 -1.50 3.50 -3 4.30 -3.35 0.75 -0.35 1.25 -0.80 1.15 -1 -0.15 -0.20 0.45 -0.40 1.25 -0.40 1.95 0 2 0.80 0.10 1.15 -0.80 0.15 -2.10 0.90 -2.85 1.60 -0.90 0.85 -1.10 1.20 -0.55 1.05 0.45 -0.15 1.25 -0.45 1.75 -0.60 0.60 -0.20 0.50 0 -0.35 0.75 -0.65 0.60 -1.55 1.05 -2 1.05 -0.45 0 -1.70 0.60 -2.75 1.30 -2 1.35 -5.05 2.50 -4.55 1.65z"/>
  <path d="M11.85 6.30 c-0.35 -2.15 0.15 -3.45 2 -5.15 1.75 -1.70 2.45 -1.40 0.95 0.40 -0.70 0.85 -1.45 2.15 -1.60 2.85 -0.15 0.75 -0.45 1.90 -0.65 2.60 -0.35 1.15 -0.40 1.10 -0.70 -0.70z"/>
  <path d="M8.75 4.50 c0.45 -0.80 1.10 -1.50 1.50 -1.50 1.10 0 0.90 1.90 -0.20 2.50 -1.75 0.90 -2.10 0.60 -1.30 -1z"/>
  <path d="M14.90 4.60 c-2 -0.40 -0.25 -2.20 2.35 -2.35 0.95 -0.05 1.75 0.10 1.75 0.35 0 0.20 0.60 0.25 1.40 0.10 l1.35 -0.30 -1 1 c-0.95 0.95 -4.10 1.60 -5.85 1.20z"/>
 </g>
 <g fill="#926340">
  <path d="M19.50 32.35 c0 -1.45 -0.25 -1.75 -1.85 -2.30 -1.30 -0.50 -1.90 -0.50 -2.05 -0.15 -0.10 0.30 -0.50 0.40 -0.95 0.25 -0.40 -0.15 -0.95 0 -1.15 0.35 -0.35 0.55 -0.55 0.55 -1.20 0.05 -0.45 -0.40 -0.80 -0.90 -0.80 -1.15 0 -0.25 -0.50 -0.90 -1.05 -1.35 -0.95 -0.75 -1.05 -1.15 -0.70 -2.85 0.25 -1.15 0.50 -1.60 0.60 -1.05 0.40 1.65 1.05 0.85 0.85 -1 -0.20 -1.55 0.05 -2.20 1.15 -3.45 1.55 -1.75 3.05 -2.40 4.05 -1.75 0.55 0.35 0.55 0.80 -0.05 2.60 -0.80 2.40 -0.65 3.55 0.45 3.10 0.40 -0.15 0.70 0.05 0.70 0.50 0 0.95 -3.30 1.75 -4.10 0.95 -0.30 -0.30 -0.20 -1.25 0.30 -2.80 0.90 -2.70 1 -3.50 0.30 -3.05 -0.90 0.55 -2.65 7.85 -2.15 9.10 0.20 0.45 1.50 0.65 4.15 0.65 2.15 0 4.25 0.15 4.70 0.30 0.85 0.35 1.10 2.20 0.30 2.20 -0.25 0 -0.50 0.55 -0.50 1.25 0 0.70 -0.20 1.25 -0.50 1.25 -0.25 0 -0.50 -0.75 -0.50 -1.65z"/>
  <path d="M23.50 28.15 c0 -0.80 0.35 -2.45 0.80 -3.70 1.05 -2.90 0.70 -3.95 -1.30 -3.95 -1.50 0 -2 -0.65 -1 -1.25 1.10 -0.70 3.95 -0.65 4.55 0.10 0.80 0.95 0.65 4.35 -0.30 6.15 -1.10 2.10 -0.95 2.25 0.55 0.65 0.75 -0.75 1 -0.95 0.65 -0.40 -0.70 1.10 -3.35 3.75 -3.75 3.75 -0.10 0 -0.20 -0.60 -0.20 -1.35z"/>
  <path d="M17.90 28.10 c-0.80 -0.15 -0.80 -0.20 0 -1.05 0.95 -0.95 2.60 -0.80 2.60 0.20 0 0.70 -1.30 1.15 -2.60 0.85z"/>
  <path d="M12.50 27.20 c0 -0.55 0.25 -0.70 0.80 -0.50 0.45 0.15 1.10 0.30 1.50 0.30 0.45 0 0.60 0.25 0.45 0.50 -0.50 0.85 -2.75 0.60 -2.75 -0.30z"/>
  <path d="M8.35 24.80 c-0.20 -0.50 -0.25 -1.05 -0.10 -1.20 0.45 -0.45 0.85 0.30 0.65 1.25 -0.15 0.85 -0.20 0.85 -0.55 -0.05z"/>
  <path d="M31.60 23.65 c0.20 -1.10 1.90 -1.50 1.90 -0.50 0 0.40 -0.35 0.90 -0.80 1.05 -1.15 0.45 -1.30 0.40 -1.10 -0.55z"/>
  <path d="M38.50 23.25 c0 -0.80 0.30 -1.25 0.75 -1.25 0.40 0 0.75 0.35 0.75 0.75 0 0.40 -0.30 0.75 -0.60 0.75 -0.45 0 -0.40 0.20 0.10 0.50 0.65 0.40 0.60 0.50 -0.10 0.50 -0.65 0 -0.90 -0.40 -0.90 -1.25z"/>
  <path d="M18.05 22.05 c-1.15 -0.85 -0.95 -1.70 0.25 -1.20 0.40 0.15 0.70 0 0.70 -0.30 0 -0.30 -0.20 -0.55 -0.50 -0.55 -0.25 0 -0.50 -0.35 -0.50 -0.75 0 -1 0.50 -0.90 1.90 0.20 2.30 1.95 0.55 4.40 -1.85 2.60z"/>
  <path d="M8 21.30 c0 -1.55 0.55 -2.15 1.80 -1.90 1.35 0.25 1.45 0.50 0.50 1.75 -0.80 1.05 -2.30 1.15 -2.30 0.15z"/>
  <path d="M31 20.55 c0 -1.75 1.40 -4.05 2.50 -4.05 1.30 0 1.25 0.40 -0.25 1.55 -0.65 0.55 -1.10 1.30 -0.95 1.65 0.15 0.35 -0.10 0.95 -0.55 1.30 -0.65 0.55 -0.75 0.45 -0.75 -0.45z"/>
  <path d="M6.30 20.45 c-0.65 -2 -0.75 -3.45 -0.35 -3.45 0.55 0 1.35 3.40 0.85 3.85 -0.15 0.15 -0.40 0 -0.50 -0.40z"/>
  <path d="M35.80 19.65 c0.20 -0.50 0.80 -1.40 1.35 -2 1.05 -1.15 0.90 -1.35 -0.90 -1.20 -0.85 0.10 -0.85 0 -0.25 -0.40 0.85 -0.60 3 -0.75 3 -0.15 0 0.20 -0.50 1.25 -1.15 2.30 -1.15 2.10 -2.60 3.10 -2.05 1.45z"/>
  <path d="M28.55 19.75 c0 -0.90 1.40 -3.05 1.45 -2.20 0 0.40 -0.35 1.20 -0.75 1.75 -0.40 0.50 -0.70 0.75 -0.70 0.45z"/>
  <path d="M20.50 18.55 c0 -0.60 0.30 -1.05 0.75 -1.05 0.40 0 0.85 0 1 0 0.70 0 0.35 0.70 -0.60 1.40 -1.05 0.65 -1.15 0.65 -1.15 -0.35z"/>
  <path d="M9.70 17.75 c-0.80 -0.60 -0.85 -0.70 -0.10 -0.75 1.25 0 2.45 0.55 2.10 1.05 -0.35 0.65 -0.85 0.55 -2 -0.30z"/>
  <path d="M13.35 15.80 c-0.20 -0.50 -0.25 -1.05 -0.10 -1.20 0.45 -0.45 0.85 0.30 0.65 1.25 -0.15 0.85 -0.20 0.85 -0.55 -0.05z"/>
  <path d="M23.75 15.50 c0.15 -0.25 0.90 -0.50 1.65 -0.50 1.05 0 1.20 0.10 0.60 0.50 -1 0.65 -2.65 0.65 -2.25 0z"/>
  <path d="M27.75 15.50 c-0.90 -0.40 -0.85 -0.45 0.40 -0.45 0.75 -0.05 1.35 0.20 1.35 0.45 0 0.60 -0.40 0.60 -1.75 0z"/>
  <path d="M14.90 14 c-0.35 -0.80 -0.85 -1.50 -1.05 -1.50 -0.20 0 0 -0.65 0.50 -1.50 0.95 -1.60 1.65 -1.95 1.65 -0.75 0 0.40 0.45 0.75 1 0.75 0.55 0 1 -0.35 1 -0.75 0 -0.45 0.70 -0.85 1.90 -1.05 1 -0.15 2.75 -0.60 3.85 -0.95 2.90 -0.95 4.40 0.05 4.90 3.30 0.25 1.65 0.15 1.80 -0.70 1.60 -0.55 -0.15 -1.50 -0.95 -2.20 -1.75 l-1.25 -1.50 0 1.50 c0 1.05 -0.30 1.55 -1 1.75 -0.80 0.20 -1 0 -1 -0.95 0 -1.10 -0.20 -1.20 -2.25 -1.20 l-2.25 0 0 1.95 c0 1.30 -0.25 2.05 -0.80 2.25 -1.30 0.50 -1.60 0.35 -2.30 -1.20z"/>
  <path d="M9.40 14.15 c-1.55 -0.25 -1.65 -0.75 -0.85 -3.05 0.65 -1.85 1.40 -2.20 3.95 -1.80 l1.90 0.30 -1.55 1.75 c-0.90 0.95 -1.55 2.05 -1.45 2.45 0.10 0.40 -0.05 0.65 -0.25 0.65 -0.20 -0.05 -1 -0.20 -1.75 -0.30z"/>
 </g>
 <g fill="#6c6764">
  <path d="M12 39.55 c0 -0.30 0.25 -0.65 0.50 -0.80 0.30 -0.15 0.50 -0.85 0.50 -1.45 0 -1.20 1.30 -2.70 1.85 -2.15 0.35 0.40 -1.90 4.85 -2.45 4.85 -0.25 0 -0.40 -0.20 -0.40 -0.45z"/>
  <path d="M15.35 36.90 c0.70 -1.75 1.45 -3.60 1.65 -4.15 0.35 -0.85 0.45 -0.80 0.45 0.45 0.05 1.45 -2.35 6.80 -3 6.80 -0.20 0 0.20 -1.40 0.90 -3.10z"/>
  <path d="M17.95 38.40 c1.05 -1.80 2.20 -6.70 1.75 -7.45 -0.15 -0.25 0.30 -0.45 1 -0.45 0.70 0 1.30 0.25 1.30 0.50 0 0.30 -0.35 0.50 -0.75 0.50 -0.50 0 -0.75 0.55 -0.80 1.65 -0.05 2.55 -1.60 6.55 -2.60 6.75 -0.80 0.15 -0.80 0.05 0.10 -1.50z"/>
  <path d="M22.60 39.40 c0.30 -0.90 1.40 -1.05 1.40 -0.20 0 0.45 -0.35 0.80 -0.80 0.80 -0.45 0 -0.70 -0.25 -0.60 -0.60z"/>
  <path d="M25.80 38.95 c1 -1.15 3.90 -2.55 6.95 -3.40 2.75 -0.75 1.45 0.50 -2.25 2.15 -1.65 0.75 -3 1.55 -3 1.85 0 0.25 -0.60 0.45 -1.35 0.45 -1.30 0 -1.30 0 -0.35 -1.05z"/>
  <path d="M38.50 38.50 c0 -0.65 0.25 -0.90 0.75 -0.70 0.40 0.20 0.75 0.60 0.75 1 0 0.40 -0.35 0.70 -0.75 0.70 -0.40 0 -0.75 -0.45 -0.75 -1z"/>
  <path d="M10.20 36.65 c1.15 -2.30 1 -2.65 -0.50 -0.90 l-1.25 1.50 0.80 -1.65 c0.50 -1.05 1.05 -1.60 1.50 -1.40 0.40 0.15 0.85 0.05 1 -0.20 0.20 -0.30 0.50 -0.50 0.75 -0.50 0.80 0 -0.10 1.90 -1.60 3.30 l-1.50 1.45 0.80 -1.60z"/>
  <path d="M25.50 35.60 c0 -1.65 1.35 -4.90 1.85 -4.45 0.45 0.45 -0.40 4.20 -1.10 5.20 -0.65 0.85 -0.70 0.75 -0.75 -0.75z"/>
  <path d="M5.05 36.25 c0 -0.25 0.30 -0.95 0.70 -1.45 0.40 -0.55 0.75 -0.75 0.75 -0.50 0 0.30 -0.35 0.95 -0.75 1.50 -0.40 0.50 -0.70 0.75 -0.70 0.45z"/>
  <path d="M1.50 35.40 c0.10 -0.65 1.95 -5.50 2.20 -5.75 0.75 -0.80 0.20 2.75 -0.70 4.25 -0.80 1.30 -1.55 2.05 -1.50 1.50z"/>
  <path d="M29.20 33.60 c0.50 -0.60 1.35 -1.20 1.85 -1.35 0.55 -0.20 1.20 -0.80 1.50 -1.35 0.40 -0.75 0.40 -0.95 0 -0.70 -0.30 0.20 -0.55 0.15 -0.55 -0.15 0 -0.65 2.45 -2.55 3.30 -2.55 0.35 0 0.90 -0.40 1.15 -0.85 0.30 -0.50 0.55 -0.70 0.55 -0.50 0 0.80 -1.15 2.60 -2.65 4.25 -2 2.10 -1.35 2.05 1.70 -0.15 1.35 -0.95 2.45 -1.55 2.45 -1.25 0 0.85 -3.40 3.20 -5.85 4.05 -1.30 0.45 -2.85 1 -3.40 1.20 -1 0.40 -1 0.40 -0.05 -0.65z"/>
  <path d="M8.60 31.75 c0.55 -1.25 1.40 -1.70 1.40 -0.80 0 0.45 -1.40 2.05 -1.75 2.05 -0.15 0 0.05 -0.55 0.35 -1.25z"/>
  <path d="M0 31.25 c0 -0.40 0.35 -0.75 0.75 -0.75 0.45 0 0.60 0.30 0.45 0.75 -0.20 0.40 -0.50 0.75 -0.75 0.75 -0.25 0 -0.45 -0.35 -0.45 -0.75z"/>
  <path d="M29 30.90 c0 -1.55 1.10 -4.35 2 -5.15 1.60 -1.45 1.60 -0.60 -0.05 2.65 -1.55 3.10 -1.95 3.65 -1.95 2.50z"/>
  <path d="M5 27.65 c0 -2.65 0.50 -4.15 1.30 -4.15 0.85 0 0.85 0.40 0.15 3.30 -0.75 2.85 -1.45 3.30 -1.45 0.85z"/>
  <path d="M31 20.55 c0 -0.55 0.20 -1.05 0.45 -1.05 0.90 0 1.05 0.90 0.30 1.50 -0.65 0.50 -0.75 0.45 -0.75 -0.45z"/>
  <path d="M12.85 19.20 c0.45 -0.75 0.95 -1.05 1.05 -0.75 0.20 0.65 -0.80 2.05 -1.45 2.05 -0.25 0 -0.10 -0.60 0.40 -1.30z"/>
  <path d="M19 13.50 c0 -0.65 0.35 -1 1 -1 0.55 0 1 -0.20 1 -0.50 0 -0.65 2.85 -0.65 3.25 0 0.30 0.50 -3.25 2.50 -4.50 2.50 -0.40 0 -0.75 -0.45 -0.75 -1z"/>
  <path d="M34 12.75 c-1.15 -1.25 -1.15 -1.25 -0.10 -1.25 0.60 0 1.15 0.40 1.35 1.05 0.50 1.55 0.05 1.60 -1.25 0.20z"/>
  <path d="M38.05 11.40 c-0.90 -1.05 -1.95 -1.90 -2.25 -1.90 -0.35 0 -1.75 -0.55 -3.10 -1.25 -1.35 -0.70 -3.10 -1.25 -3.95 -1.25 l-1.50 -0.05 1.90 -0.95 c2.60 -1.30 3.50 -1.40 4.20 -0.50 0.50 0.65 0.65 0.65 1.30 -0.20 0.90 -1.20 2.15 -0.80 2.95 0.95 0.70 1.55 0.25 2.15 -0.85 1.05 -0.95 -0.90 -1.25 -0.95 -2.15 -0.35 -0.50 0.30 0.05 0.85 1.85 2.05 1.40 0.85 2.55 1.90 2.55 2.25 0 0.35 0.25 0.75 0.60 0.85 0.30 0.10 0.45 0.40 0.35 0.70 -0.10 0.25 -0.95 -0.35 -1.90 -1.40z"/>
  <path d="M20.25 5.95 c1.80 -2.10 5.35 -4.95 6.20 -4.95 0.30 0 -0.15 0.70 -1.05 1.55 -1.60 1.50 -1.60 1.50 -0.40 1.25 1.20 -0.25 1.20 -0.20 0.30 0.45 -0.55 0.40 -1.30 0.75 -1.70 0.75 -0.40 0 -1.30 0.40 -2 0.90 -2.55 1.80 -2.85 1.80 -1.35 0.05z"/>
  <path d="M8.70 4.70 c0.15 -0.45 0.30 -0.90 0.30 -1 0 -0.10 0.45 -0.20 1 -0.20 1.15 0 1.30 0.50 0.40 1.40 -0.90 0.90 -2.05 0.75 -1.70 -0.20z"/>
  <path d="M11.50 4.95 c0 -1.25 2.05 -3.90 3.10 -3.95 0.20 0 -0.25 1 -0.95 2.25 -1.15 2.10 -2.15 2.90 -2.15 1.70z"/>
  <path d="M14 3.95 c0 -0.70 1.35 -1.30 2.70 -1.20 1.50 0.10 2.50 1.20 1.20 1.35 -1.85 0.20 -3.90 0.10 -3.90 -0.15z"/>
  <path d="M10.50 2.60 c0 -0.50 1.10 -1.60 1.60 -1.60 0.25 0 0.15 0.45 -0.20 1 -0.65 1 -1.40 1.35 -1.40 0.60z"/>
 </g>
 <g fill="#956e51">
  <path d="M19.80 31.25 c-0.15 -0.50 -1 -0.75 -2.30 -0.75 -1.15 0 -2.50 -0.25 -3.05 -0.50 -0.75 -0.45 -0.95 -0.35 -0.95 0.25 0 1.10 -1.10 0.70 -1.80 -0.70 -0.30 -0.60 -0.95 -1.40 -1.45 -1.75 -0.70 -0.50 -0.80 -1.05 -0.55 -2.60 0.20 -1.05 0.65 -2.50 1.05 -3.20 0.60 -1.15 0.70 -1.15 1.05 -0.35 0.15 0.50 0.20 2.10 0.05 3.55 -0.15 1.45 -0.10 2.90 0.10 3.25 0.55 0.85 10.05 1.05 10.05 0.20 0 -0.35 0.30 -0.80 0.65 -1 0.85 -0.55 2.55 -5.65 2 -6.20 -0.25 -0.25 -0.90 -0.30 -1.50 -0.15 -0.80 0.20 -1.15 0.80 -1.40 2.25 -0.20 1.05 -0.55 1.95 -0.80 1.95 -0.25 0 -0.45 0.55 -0.45 1.25 0 1.05 -0.25 1.25 -1.55 1.25 l-1.55 0 1.30 -1.75 c1.40 -1.80 1.35 -2.20 -0.35 -4.10 l-1 -1.15 1.15 0 c1.10 0 1.15 -0.05 0.25 -1 -0.50 -0.55 -0.75 -1.15 -0.60 -1.35 0.20 -0.15 0.35 0 0.35 0.35 0 0.35 0.15 0.50 0.35 0.35 0.15 -0.20 0.60 -0.10 1 0.25 0.50 0.40 0.95 0.40 1.85 -0.05 0.60 -0.35 1.90 -0.55 2.85 -0.45 2.40 0.20 2.90 1.85 1.70 5.65 -1.20 3.70 -2.60 5.80 -4.60 6.55 -1.30 0.55 -1.60 0.55 -1.85 -0.05z"/>
  <path d="M12.75 27.45 c-0.20 -0.30 -0.25 -0.60 -0.15 -0.70 0.35 -0.35 2.40 0.35 2.40 0.80 0 0.65 -1.85 0.55 -2.25 -0.10z"/>
  <path d="M38.65 25 c-1.25 -1 -1.55 -3.30 -0.55 -3.60 1.05 -0.35 2.10 1 1.45 1.80 -0.45 0.55 -0.45 0.75 0 0.90 0.30 0.10 0.50 0.55 0.40 1 -0.20 0.75 -0.30 0.75 -1.30 -0.10z"/>
  <path d="M6.40 25.20 c-0.25 -0.20 -0.40 -0.80 -0.40 -1.40 0 -0.70 0.15 -0.85 0.55 -0.45 0.30 0.30 0.45 0.95 0.35 1.40 -0.05 0.45 -0.30 0.65 -0.50 0.45z"/>
  <path d="M13.75 25.10 c0.30 -0.20 0.55 -1.80 0.60 -3.55 0.10 -3.50 0.65 -4.60 1.90 -3.55 0.50 0.45 0.60 0.80 0.25 1.20 -0.25 0.35 -0.60 1.90 -0.80 3.45 -0.30 2.45 -0.50 2.85 -1.40 2.85 -0.55 0 -0.80 -0.20 -0.55 -0.40z"/>
  <path d="M8.15 24.20 c-1.20 -2.05 0.90 -6.15 2.10 -4.20 0.20 0.30 0 1.05 -0.40 1.70 -0.40 0.60 -0.85 1.65 -0.95 2.35 -0.15 1.20 -0.20 1.20 -0.75 0.15z"/>
  <path d="M16.10 24.40 c0.35 -1 2.90 -1.15 2.90 -0.20 0 0.55 -0.50 0.80 -1.55 0.80 -1 0 -1.45 -0.20 -1.35 -0.60z"/>
  <path d="M31.80 24.10 c-0.65 -0.60 -0.25 -1.20 1.20 -1.65 0.80 -0.30 1.95 -1.35 2.60 -2.35 0.60 -1.05 1.40 -2.15 1.75 -2.50 0.95 -1 0.30 -1.65 -1.10 -1.10 -3.15 1.20 -4.30 2.05 -4.15 3.10 0.10 0.60 -0.15 1.15 -0.45 1.25 -1.50 0.50 0.10 -3.95 1.60 -4.50 1.15 -0.50 5.75 -1 5.75 -0.70 0 0.55 -2.50 5.05 -3.75 6.60 -1.15 1.55 -2.85 2.45 -3.45 1.85z"/>
  <path d="M36.10 23.55 c-0.50 -0.30 -0.50 -0.50 0.15 -1.05 0.65 -0.55 0.75 -0.45 0.75 0.45 0 1.20 0 1.20 -0.90 0.60z"/>
  <path d="M6.10 18.90 c-0.80 -3.25 -1.15 -6.40 -0.70 -6.40 0.25 0 0.95 0.55 1.60 1.25 1.05 1.10 1.05 1.25 0.25 1.25 -0.80 0 -0.85 0.30 -0.60 3 0.20 1.65 0.25 3 0.15 3 -0.10 0 -0.40 -0.95 -0.70 -2.10z"/>
  <path d="M20.25 19 c-0.50 -0.80 0.20 -1.50 1.60 -1.50 1.25 0 1.30 0 0.40 1 -1 1.10 -1.55 1.25 -2 0.50z"/>
  <path d="M10 18 c-1 -0.60 -0.25 -1.20 0.80 -0.60 0.45 0.25 0.60 0.60 0.35 0.75 -0.25 0.15 -0.75 0.10 -1.15 -0.15z"/>
  <path d="M13.25 15.30 c-0.25 -0.55 -0.15 -1.05 0.25 -1.30 0.35 -0.20 0.45 -0.65 0.30 -0.95 -0.20 -0.30 0.05 -1.20 0.50 -2 0.75 -1.30 1.15 -1.45 4.15 -1.70 1.80 -0.15 3.80 -0.40 4.35 -0.60 0.95 -0.30 1.10 -0.10 1.30 1.65 0.10 1.10 0 1.90 -0.20 1.80 -0.25 -0.15 -0.40 -0.55 -0.40 -0.90 0 -0.50 -0.55 -0.55 -2.50 -0.15 -2.50 0.50 -3.60 1.85 -1.50 1.85 1.95 0 1 1.40 -1.35 1.95 -2 0.55 -2.40 0.50 -2.75 -0.15 -0.65 -1.15 -1.30 -1 -1.55 0.35 -0.15 1 -0.20 1 -0.60 0.15z"/>
  <path d="M23.75 15.50 c0.15 -0.25 0.80 -0.50 1.40 -0.50 0.90 0 0.95 0.10 0.35 0.50 -1 0.65 -2.15 0.65 -1.75 0z"/>
  <path d="M9.35 14.10 c-1.30 -0.15 -1.40 -0.30 -1.10 -1.75 0.55 -2.50 1.65 -3.40 3.85 -3 l1.90 0.30 -1.15 1.45 c-0.60 0.80 -1.30 1.85 -1.60 2.30 -0.30 0.55 -1 0.80 -1.90 0.70z"/>
  <path d="M27.15 12.50 c-1.45 -0.90 -2.55 -2.75 -1.95 -3.35 0.45 -0.45 1.80 0.30 2.15 1.20 0.15 0.50 0.65 1.30 1.05 1.80 1.10 1.25 0.55 1.45 -1.25 0.35z"/>
 </g>
 <g fill="#7d7877">
  <path d="M17.50 39.90 c0 -0.10 0.45 -1.05 1 -2.15 0.55 -1.10 1 -2.40 1 -3 0 -1 1 -2.95 1 -1.95 0 1.20 -1.65 5.90 -2.30 6.55 -0.40 0.40 -0.70 0.65 -0.70 0.55z"/>
  <path d="M22.50 39.55 c0 -0.25 0.35 -0.55 0.75 -0.75 0.45 -0.15 0.75 0 0.75 0.45 0 0.40 -0.35 0.75 -0.75 0.75 -0.40 0 -0.75 -0.20 -0.75 -0.45z"/>
  <path d="M25.60 39.40 c0.30 -0.90 4.75 -3.20 6.90 -3.60 l1.75 -0.35 -2 1.25 c-1.05 0.70 -2.60 1.40 -3.40 1.60 -0.80 0.15 -1.55 0.60 -1.70 1 -0.30 0.85 -1.80 0.95 -1.55 0.10z"/>
  <path d="M35 39.65 c0 -0.25 0.45 -0.95 1 -1.65 0.90 -1.20 1.05 -1.20 2.35 -0.50 0.75 0.45 1.45 1.15 1.55 1.65 0.15 0.70 -0.25 0.85 -2.35 0.85 -1.40 0 -2.55 -0.15 -2.55 -0.35z"/>
  <path d="M13 37.70 c0 -0.60 0.35 -1.35 0.75 -1.70 1 -0.85 1.05 0.45 0 1.80 -0.70 0.95 -0.70 0.95 -0.75 -0.10z"/>
  <path d="M15.20 37.75 c0.15 -0.55 0.75 -2.10 1.30 -3.50 1.05 -2.50 1.05 -2.50 0.80 -0.60 -0.15 1.05 -0.75 2.65 -1.30 3.50 -0.65 0.95 -0.95 1.20 -0.80 0.60z"/>
  <path d="M10.85 35.90 c0.45 -1.05 1 -1.90 1.25 -1.90 0.75 0 0.40 0.95 -0.85 2.35 l-1.25 1.40 0.85 -1.85z"/>
  <path d="M25.65 34.80 c0.20 -1.10 0.70 -2.35 1.15 -2.75 0.75 -0.75 0.80 -0.65 0.45 1.20 -0.15 1.10 -0.65 2.35 -1.10 2.75 -0.70 0.65 -0.75 0.55 -0.50 -1.20z"/>
  <path d="M2 34.70 c0 -0.15 0.40 -1.45 0.90 -2.85 0.70 -2.20 0.85 -2.40 1 -1.25 0.10 0.75 -0.20 2 -0.65 2.85 -0.70 1.45 -1.25 1.95 -1.25 1.25z"/>
  <path d="M29 33.75 c0 -0.15 0.90 -0.80 1.95 -1.45 1.10 -0.70 2.10 -1.70 2.25 -2.20 0.20 -0.50 1 -1.45 1.85 -2.05 l1.50 -1.15 -0.70 1.45 c-1.35 2.55 -6.85 6.90 -6.85 5.40z"/>
  <path d="M33.80 32.10 c1.85 -1.60 4.20 -3.05 4.20 -2.65 0 0.55 -3.45 3.05 -4.20 3.05 -0.30 0 -0.30 -0.15 0 -0.40z"/>
  <path d="M0 31.25 c0 -0.40 0.25 -0.75 0.50 -0.75 0.30 0 0.50 0.35 0.50 0.75 0 0.40 -0.20 0.75 -0.50 0.75 -0.25 0 -0.50 -0.35 -0.50 -0.75z"/>
  <path d="M29.20 30.20 c0.15 -0.45 0.30 -1.20 0.30 -1.65 0 -0.90 2.35 -3.85 2.80 -3.45 0.25 0.25 -2.75 5.90 -3.15 5.90 -0.15 0 -0.10 -0.35 0.05 -0.80z"/>
  <path d="M5.15 26.50 c0.35 -3 0.75 -3.80 1.45 -3.10 0.60 0.60 -0.55 5.60 -1.25 5.60 -0.30 0 -0.35 -1.05 -0.20 -2.50z"/>
  <path d="M13.10 19 c0.70 -1.10 1.20 -0.95 0.75 0.25 -0.20 0.40 -0.55 0.75 -0.85 0.75 -0.30 0 -0.30 -0.35 0.10 -1z"/>
  <path d="M14.50 19 c0 -0.55 0.25 -1 0.50 -1 0.30 0 0.50 0.45 0.50 1 0 0.55 -0.20 1 -0.50 1 -0.25 0 -0.50 -0.45 -0.50 -1z"/>
  <path d="M38 11.25 c-0.95 -1.10 -7.45 -4.25 -8.85 -4.25 -0.75 0 -1.10 -0.20 -0.85 -0.55 0.15 -0.30 0.85 -0.40 1.55 -0.20 0.75 0.15 1.10 0.10 0.95 -0.20 -0.20 -0.25 -0.05 -0.65 0.25 -0.80 0.80 -0.50 3.05 0.80 2.75 1.60 -0.15 0.35 0.45 0.95 1.40 1.40 1.80 0.85 4.15 3.10 3.70 3.50 -0.15 0.15 -0.55 -0.10 -0.90 -0.50z"/>
  <path d="M21.40 4.85 c1.15 -1.15 2.80 -2.55 3.70 -3.05 l1.65 -0.95 -1.30 1.20 c-0.70 0.70 -1.50 1.60 -1.75 2 -0.50 0.80 -3.45 2.95 -4.05 2.95 -0.20 0 0.60 -0.95 1.75 -2.15z"/>
  <path d="M8.50 4.95 c0 -0.25 0.80 -1.30 1.75 -2.35 1.90 -2.05 2.15 -1.75 0.85 0.85 -0.75 1.55 -2.60 2.60 -2.60 1.50z"/>
  <path d="M11.50 4.80 c0 -0.90 3.95 -5.40 4 -4.55 0 0.30 -0.55 1.10 -1.25 1.85 -0.70 0.75 -1.25 1.55 -1.25 1.80 0 0.25 -0.35 0.75 -0.75 1.10 -0.60 0.50 -0.75 0.45 -0.75 -0.20z"/>
 </g>
 <g fill="#aa7f5c">
  <path d="M19.90 30.95 c-0.10 -0.30 -1.35 -0.60 -2.80 -0.65 -1.45 -0.05 -2.90 -0.40 -3.20 -0.70 -0.45 -0.45 0.25 -0.60 2.95 -0.60 2 0 3.75 0.25 3.90 0.50 0.40 0.65 1.25 0.15 1.25 -0.80 0 -0.50 -0.65 -0.70 -2.30 -0.70 l-2.25 0 1.40 -1.80 c1.30 -1.75 1.35 -1.85 0.50 -3.30 -0.85 -1.45 -0.85 -1.45 0.30 -1.10 1 0.30 1 0.20 -0.35 -1.25 -1.55 -1.65 -1.45 -2.80 0.10 -1.40 1.05 0.95 2.40 1.10 2.85 0.35 0.45 -0.70 2.90 -0.65 3.65 0.10 1.50 1.50 -0.10 8 -2.55 10.45 -1.45 1.45 -3.10 1.90 -3.45 0.90z m4.60 -9.05 c0 -0.50 -0.20 -0.90 -0.50 -0.90 -0.25 0 -0.50 0.75 -0.50 1.65 0 1.20 0.15 1.40 0.50 0.85 0.25 -0.40 0.50 -1.15 0.50 -1.60z"/>
  <path d="M12.30 30.20 c-0.45 -0.45 -0.70 -0.95 -0.55 -1.10 0.15 -0.15 0.65 0.10 1.10 0.55 0.45 0.45 0.70 0.95 0.55 1.10 -0.15 0.15 -0.65 -0.10 -1.10 -0.55z"/>
  <path d="M10.35 27.80 c-0.85 -0.90 -0.85 -1.65 0.20 -5.10 0.50 -1.55 3.45 -4.85 3.45 -3.80 0 0.30 -0.20 0.65 -0.40 0.80 -0.25 0.15 -0.70 1.55 -1.10 3.15 -1.40 6.45 -1.20 5.90 -2.15 4.95z"/>
  <path d="M12.75 27.50 c-0.20 -0.30 0.25 -0.50 1 -0.50 0.75 0 1.20 0.20 1 0.50 -0.15 0.30 -0.60 0.50 -1 0.50 -0.40 0 -0.85 -0.20 -1 -0.50z"/>
  <path d="M13.30 25.10 c-0.15 -0.25 0.05 -1.30 0.45 -2.40 0.40 -1.05 0.70 -2.55 0.75 -3.30 0 -1.05 0.25 -1.40 1 -1.40 0.55 0 1 0.35 1 0.75 0 0.40 -0.20 0.75 -0.40 0.75 -0.25 0 -0.45 0.40 -0.45 0.90 0.05 4.15 -0.15 5.10 -1.10 5.10 -0.55 0 -1.10 -0.20 -1.25 -0.40z"/>
  <path d="M37.35 24.30 l-1.85 -1.10 1.15 -1.10 c0.65 -0.60 1.40 -1.10 1.70 -1.10 0.75 0 1.15 1.20 0.80 2.45 -0.15 0.60 -0.05 1.05 0.30 1.05 0.30 0 0.55 0.25 0.55 0.50 0 0.70 -0.45 0.55 -2.65 -0.70z"/>
  <path d="M8.30 23.85 c-0.35 -1.15 -0.20 -1.65 0.70 -2.65 1.30 -1.35 2.10 -1.20 0.85 0.15 -0.40 0.50 -0.85 1.60 -0.95 2.40 l-0.20 1.50 -0.40 -1.40z"/>
  <path d="M16.50 24.25 c0.35 -0.40 1.05 -0.75 1.55 -0.75 0.55 0 0.95 0.35 0.95 0.75 0 0.50 -0.50 0.75 -1.55 0.75 -1.35 0 -1.50 -0.10 -0.95 -0.75z"/>
  <path d="M32.50 23.30 c0 -0.35 0.45 -0.80 1 -0.95 0.55 -0.15 1.40 -0.95 1.85 -1.85 0.50 -0.85 1.30 -2.05 1.80 -2.60 0.45 -0.60 0.85 -1.35 0.85 -1.75 0 -0.35 0.25 -0.65 0.55 -0.65 0.60 0 0.65 -0.10 -1.15 3.25 -2.05 3.90 -4.90 6.55 -4.90 4.55z"/>
  <path d="M6.30 20.60 c-0.45 -0.75 -0.90 -7.60 -0.50 -7.60 0.25 0 0.75 0.45 1.10 1.05 0.50 0.80 0.50 0.95 0.05 0.65 -0.45 -0.25 -0.55 0.40 -0.30 2.95 0.30 3.15 0.20 3.85 -0.35 2.95z"/>
  <path d="M31.50 19.20 c0.50 -2.05 1.35 -2.80 4 -3.25 2.20 -0.45 2.60 -0.15 0.70 0.55 -2.45 0.85 -3.95 1.90 -4.10 2.85 -0.10 0.50 -0.40 1.10 -0.60 1.35 -0.25 0.25 -0.25 -0.45 0 -1.50z"/>
  <path d="M20.70 18.25 c0.40 -0.40 1.10 -0.75 1.60 -0.75 0.65 0 0.70 0.15 0.20 0.75 -0.35 0.40 -1.05 0.75 -1.60 0.75 -0.85 0 -0.90 -0.10 -0.20 -0.75z"/>
  <path d="M16 15.25 c0 -0.15 0.25 -0.75 0.55 -1.35 0.70 -1.30 0.15 -1.85 -0.75 -0.65 -0.80 1.10 -1.80 0.60 -1.80 -0.85 0 -1.65 1.40 -2.90 2.95 -2.60 0.70 0.15 2.55 -0.10 4.05 -0.50 1.50 -0.40 2.80 -0.70 2.85 -0.65 0 0.05 0.15 1 0.20 2.05 0.15 1.65 0 2 -0.95 2.35 -0.90 0.35 -1.10 0.25 -1.10 -0.55 0 -1.15 -0.40 -1.20 -2.20 -0.50 -0.95 0.35 -1.30 0.85 -1.30 1.75 0 0.70 -0.20 1.25 -0.45 1.25 -0.25 0 -0.80 0.15 -1.25 0.30 -0.45 0.15 -0.80 0.15 -0.80 -0.05z"/>
  <path d="M9.75 14.10 c-1.65 -0.30 -1.85 -0.85 -1.10 -2.70 0.95 -2.25 1.20 -2.35 3.50 -1.95 l1.90 0.30 -1.50 1.60 c-0.80 0.90 -1.55 1.90 -1.65 2.30 -0.10 0.35 -0.60 0.55 -1.15 0.45z"/>
  <path d="M26.55 11.70 c-0.60 -0.75 -1.05 -1.55 -1.05 -1.75 0 -0.85 0.95 -0.45 1.55 0.70 0.35 0.60 0.95 1.35 1.40 1.70 0.75 0.55 0.70 0.60 -0.05 0.65 -0.45 0 -1.30 -0.60 -1.85 -1.30z"/>
 </g>
 <g fill="#918b88">
  <path d="M22.50 39.50 c0 -0.25 0.35 -0.50 0.75 -0.50 0.40 0 0.75 0.25 0.75 0.50 0 0.30 -0.35 0.50 -0.75 0.50 -0.40 0 -0.75 -0.20 -0.75 -0.50z"/>
  <path d="M25.50 39.70 c0 -0.90 7.25 -4.60 7.85 -4 0.40 0.40 -2.95 2.25 -4.75 2.60 -0.95 0.20 -1.80 0.65 -1.95 1 -0.25 0.70 -1.15 1 -1.15 0.40z"/>
  <path d="M35 39.70 c0 -0.15 0.45 -0.95 1.05 -1.75 l1.05 -1.45 1.45 1.05 c0.80 0.55 1.45 1.35 1.45 1.75 0 0.90 -0.40 0.90 -1.30 -0.05 -0.45 -0.40 -0.95 -0.75 -1.20 -0.75 -0.25 0 -0.75 0.35 -1.20 0.75 -0.75 0.80 -1.30 0.95 -1.30 0.45z"/>
  <path d="M13 37.65 c0 -0.25 0.35 -0.90 0.75 -1.45 0.60 -0.80 0.70 -0.80 0.75 -0.15 0 0.45 -0.35 1.10 -0.75 1.45 -0.40 0.35 -0.75 0.40 -0.75 0.15z"/>
  <path d="M15.75 36.50 c0.20 -0.70 0.55 -1.60 0.80 -2 0.35 -0.60 0.40 -0.55 0.40 0.25 0 0.55 -0.35 1.45 -0.75 2 -0.80 0.95 -0.80 0.95 -0.45 -0.25z"/>
  <path d="M25.75 34.95 c0.45 -1.95 1.20 -3.65 1.55 -3.30 0.40 0.40 -0.75 4.25 -1.35 4.65 -0.40 0.20 -0.45 -0.20 -0.20 -1.35z"/>
  <path d="M2.65 32.60 c0.35 -1.10 0.80 -2.20 1.05 -2.45 0.75 -0.70 -0.15 3.05 -0.95 3.80 -0.60 0.60 -0.60 0.40 -0.10 -1.35z"/>
  <path d="M29.75 33.35 c0.55 -0.35 2.05 -1.70 3.35 -3.10 1.30 -1.35 2.50 -2.35 2.65 -2.15 0.40 0.40 -3.60 4.55 -5.10 5.35 -1.45 0.75 -2.20 0.65 -0.90 -0.10z"/>
  <path d="M35.50 31.05 c0.70 -0.55 1.50 -1.05 1.75 -1.05 0.55 0 -0.35 0.70 -2 1.55 -0.65 0.35 -0.60 0.15 0.25 -0.50z"/>
  <path d="M29.50 29.15 c0 -1.05 1.10 -3.10 1.80 -3.35 0.55 -0.20 0.55 0 0.10 1.10 -0.70 1.65 -1.90 3.05 -1.90 2.25z"/>
  <path d="M5.30 27.60 c-0.45 -1.35 0.60 -4.40 1.25 -3.75 0.25 0.25 0.15 1.45 -0.20 2.65 -0.60 2.05 -0.70 2.15 -1.05 1.10z"/>
  <path d="M19.35 20.20 c-0.80 -0.70 -1.30 -1.40 -1.15 -1.55 0.30 -0.30 3.30 1.90 3.30 2.45 0 0.75 -0.75 0.40 -2.15 -0.90z"/>
  <path d="M20.10 18.40 c0.15 -0.35 0.75 -0.75 1.35 -0.80 0.80 -0.15 1.10 0.05 0.95 0.50 -0.15 0.35 -0.75 0.75 -1.35 0.80 -0.80 0.15 -1.10 -0.05 -0.95 -0.50z"/>
  <path d="M5.35 14.15 c-0.50 -0.50 -0.40 -1.65 0.15 -1.65 0.25 0 0.70 0.45 1 1 0.40 0.75 0.40 1 -0.15 1 -0.40 0 -0.85 -0.15 -1 -0.35z"/>
  <path d="M18.50 13.50 c0 -0.80 0.35 -1 1.75 -1 2 0 2.45 1.20 0.65 1.70 -1.90 0.50 -2.40 0.35 -2.40 -0.70z"/>
  <path d="M37.45 10.55 c-0.65 -0.50 -2.25 -1.35 -3.50 -1.90 -2.10 -0.95 -3.50 -2.75 -2.50 -3.35 0.50 -0.30 2.30 1.15 1.90 1.55 -0.20 0.15 0.75 0.95 2.05 1.70 1.30 0.75 2.70 1.70 3.05 2.15 0.90 1.05 0.45 1 -1 -0.15z"/>
  <path d="M21.05 5.50 c0.40 -0.65 1.55 -1.75 2.45 -2.45 l1.70 -1.30 -0.95 1.40 c-0.45 0.75 -1.60 1.85 -2.45 2.50 l-1.55 1.10 0.80 -1.25z"/>
  <path d="M9 4.45 c0.30 -0.70 1 -1.50 1.50 -1.85 0.85 -0.55 0.90 -0.45 0.40 0.95 -0.30 0.80 -0.65 1.40 -0.80 1.25 -0.15 -0.15 -0.55 -0.05 -0.95 0.30 -0.60 0.50 -0.60 0.35 -0.15 -0.65z"/>
  <path d="M11.50 4.55 c0 -0.65 2.55 -3.65 2.85 -3.35 0.35 0.35 -1.85 3.80 -2.40 3.80 -0.25 0 -0.45 -0.20 -0.45 -0.45z"/>
 </g>
 <g fill="#bd8e65">
  <path d="M20.30 30.75 c-0.15 -0.40 -0.60 -0.75 -1.05 -0.75 -0.40 0 -0.75 -0.20 -0.75 -0.50 0 -0.25 0.45 -0.50 0.95 -0.50 0.55 0 1.15 0.25 1.30 0.50 0.50 0.85 1.25 0.55 1.25 -0.50 0 -0.75 -0.35 -1 -1.45 -1 -1.85 0 -2.40 -0.80 -1.35 -1.95 0.45 -0.50 0.80 -1.25 0.80 -1.75 0 -0.65 0.25 -0.80 1 -0.55 1.50 0.50 1.25 -0.70 -0.60 -2.65 -1.65 -1.65 -1.65 -1.65 -0.30 -1.15 1 0.35 1.45 0.35 1.90 -0.20 0.30 -0.35 1.25 -0.60 2.10 -0.60 1.35 0.10 1.65 0.35 2.05 1.85 0.30 1.25 0.25 2.15 -0.30 3.25 -0.40 0.80 -0.90 2.25 -1.05 3.10 -0.35 1.45 -2.80 4.15 -3.80 4.15 -0.20 0 -0.50 -0.35 -0.70 -0.75z"/>
  <path d="M14.20 29.75 c-0.90 -0.65 -0.85 -0.70 0.95 -0.75 1.90 0 2.50 0.65 1.05 1.20 -1 0.40 -0.85 0.40 -2 -0.45z"/>
  <path d="M9.95 27.40 c-0.10 -1 -0.05 -1.50 0.30 -3.50 0.25 -1.50 0.50 -1.90 1.35 -1.90 0.75 0 0.90 0.20 0.65 0.90 -0.40 0.80 -0.60 2.25 -0.70 4.25 -0.05 0.95 -1.50 1.20 -1.60 0.25z"/>
  <path d="M37.40 24.10 c-1.65 -1 -1.70 -1.20 -0.40 -2.35 1.30 -1.20 2.15 -0.45 1.90 1.65 l-0.15 1.55 -1.35 -0.85z"/>
  <path d="M8 23.30 c0 -0.35 0.30 -0.95 0.70 -1.25 0.55 -0.45 0.60 -0.30 0.40 0.70 -0.25 1.30 -1.10 1.75 -1.10 0.55z"/>
  <path d="M14.15 21.65 c0.65 -2.35 0.80 -2.55 1.30 -1.75 0.70 1.10 0 3.60 -0.95 3.60 -0.80 0 -0.85 -0.20 -0.35 -1.85z"/>
  <path d="M34.50 22.30 c0 -0.50 2.95 -4.80 3.30 -4.80 0.35 0 -1.70 3.50 -2.65 4.50 -0.35 0.40 -0.65 0.55 -0.65 0.30z"/>
  <path d="M12.50 20.95 c0 -0.40 0.35 -1.20 0.75 -1.75 0.95 -1.25 0.95 -0.70 0 1.10 -0.40 0.80 -0.75 1.10 -0.75 0.65z"/>
  <path d="M20.50 18.65 c0.40 -0.15 0.90 -0.55 1.10 -0.85 0.45 -0.70 1.10 -0.05 0.65 0.65 -0.15 0.30 -0.80 0.55 -1.40 0.50 -0.75 0 -0.85 -0.10 -0.35 -0.30z"/>
  <path d="M34.50 16.55 c0 -0.40 2.60 -1.10 2.90 -0.80 0.10 0.05 -0.55 0.35 -1.35 0.65 -0.85 0.30 -1.55 0.35 -1.55 0.15z"/>
  <path d="M5.50 15.55 c0 -0.55 -0.15 -1.30 -0.30 -1.75 -0.20 -0.50 -0.05 -0.80 0.45 -0.80 0.90 0 1.25 0.80 0.95 2.35 -0.25 1.40 -1.10 1.55 -1.10 0.20z"/>
  <path d="M16.85 13.25 c0.25 -1.50 0.15 -1.70 -0.55 -1.45 -0.45 0.15 -0.80 0.65 -0.80 1.05 0 0.90 -1.20 0.55 -1.35 -0.40 -0.10 -0.40 0.20 -1.15 0.65 -1.70 0.60 -0.80 0.80 -0.85 1.15 -0.30 0.35 0.55 1 0.50 3.75 -0.45 1.85 -0.60 3.45 -1 3.55 -0.90 0.15 0.10 0.30 0.95 0.35 1.90 0.10 1.25 -0.05 1.75 -0.70 1.90 -0.45 0.10 -0.90 -0.20 -1.05 -0.75 -0.15 -0.60 -0.25 -0.50 -0.30 0.40 -0.05 1.05 -0.40 1.40 -2 1.85 -2.85 0.90 -3 0.80 -2.70 -1.15z"/>
  <path d="M8.50 12.95 c0 -1.70 0.95 -3.45 1.85 -3.40 0.80 0 0.80 0.10 -0.10 0.50 -0.70 0.30 -0.35 0.35 1.15 0.15 2.10 -0.30 2.15 -0.25 1.50 0.75 -0.35 0.60 -0.90 1.05 -1.20 1.05 -0.35 0 -0.70 0.45 -0.85 0.95 -0.30 1.25 -2.35 1.20 -2.35 0z"/>
 </g>
 <g fill="#c09876">
  <path d="M20.75 30.50 c0.20 -0.30 -0.45 -0.50 -1.60 -0.50 -1.05 0 -2.25 -0.25 -2.65 -0.50 -0.55 -0.35 -0.10 -0.50 1.60 -0.50 1.30 0 2.50 0.25 2.65 0.50 0.50 0.85 1.25 0.55 1.25 -0.50 0 -0.85 -0.35 -1 -2.25 -1 l-2.25 0 1.10 -1.30 c1 -1.10 1.20 -1.15 1.70 -0.50 0.60 0.85 2.20 1.10 2.20 0.35 0 -0.25 -0.30 -0.55 -0.60 -0.70 -0.50 -0.15 -0.50 -0.45 -0.10 -1.15 0.80 -1.30 -0.15 -3.40 -1.90 -4.15 -0.75 -0.35 -1.40 -0.85 -1.40 -1.10 0 -0.25 0.60 -0.10 1.30 0.35 1.10 0.75 1.35 0.75 2 0.10 1.20 -1.15 3.50 -0.55 4.20 1.15 0.50 1.20 0.45 1.65 -0.50 3.20 -0.60 0.95 -1.40 1.75 -1.80 1.75 -0.80 0 -0.90 1.40 -0.20 2.50 0.30 0.50 0.20 1 -0.35 1.60 -0.85 0.95 -2.95 1.30 -2.40 0.40z"/>
  <path d="M13.75 29.50 c-0.15 -0.25 0.15 -0.50 0.70 -0.50 0.60 0 1.05 0.25 1.05 0.50 0 0.30 -0.30 0.50 -0.70 0.50 -0.40 0 -0.90 -0.20 -1.05 -0.50z"/>
  <path d="M10.25 27.50 c-0.20 -0.30 -0.20 -1.70 0 -3.10 0.25 -1.90 0.80 -2.95 2.05 -4.30 0.95 -1 1.70 -1.70 1.70 -1.55 0 0.30 -1.25 3.15 -2.05 4.55 -0.25 0.50 -0.45 1.35 -0.45 1.90 0 0.55 -0.20 1 -0.45 1 -0.25 0 -0.35 0.45 -0.20 1 0.30 1.05 -0.10 1.35 -0.60 0.50z"/>
  <path d="M13.60 25.05 c-0.60 -0.35 -0.55 -0.70 0.10 -1.95 0.45 -0.85 0.80 -1.90 0.80 -2.35 0 -0.40 0.25 -0.75 0.55 -0.75 0.65 0 0.40 5.10 -0.30 5.35 -0.25 0.05 -0.80 -0.05 -1.15 -0.30z"/>
  <path d="M17.10 24.40 c0.15 -0.35 0.65 -0.75 1.10 -0.80 0.60 -0.15 0.85 0.05 0.70 0.50 -0.15 0.35 -0.65 0.75 -1.10 0.80 -0.60 0.15 -0.85 -0.05 -0.70 -0.50z"/>
  <path d="M31.95 23.30 c0.65 -0.75 2.55 -1.40 2.55 -0.85 0 0.70 -1.20 1.55 -2.15 1.55 -0.80 0 -0.85 -0.15 -0.40 -0.70z"/>
  <path d="M6.25 19.90 c-0.15 -0.35 -0.30 -1.70 -0.40 -2.95 -0.10 -1.25 -0.35 -2.55 -0.55 -2.85 -0.50 -0.80 0.20 -1.80 0.80 -1.20 0.40 0.40 0.90 7.60 0.50 7.60 -0.05 0 -0.25 -0.30 -0.35 -0.60z"/>
  <path d="M14.50 18.50 c0 -0.25 0.45 -0.50 1 -0.50 0.55 0 1 0.25 1 0.50 0 0.30 -0.45 0.50 -1 0.50 -0.55 0 -1 -0.20 -1 -0.50z"/>
  <path d="M20 18.55 c0 -0.55 1.95 -1.25 2.35 -0.90 0.15 0.15 0.10 0.50 -0.10 0.80 -0.40 0.65 -2.25 0.75 -2.25 0.10z"/>
  <path d="M33 17.05 c0 -0.50 1.25 -1.05 2.40 -1.05 0.60 0.05 0.50 0.25 -0.40 0.75 -1.45 0.85 -2 0.90 -2 0.30z"/>
  <path d="M16.65 14.40 c0.10 -0.35 0.55 -0.65 1 -0.65 0.45 0 1.20 -0.40 1.70 -0.90 0.55 -0.50 0.65 -0.85 0.25 -0.85 -0.35 0 -0.60 0.25 -0.60 0.50 0 0.90 -1.40 0.50 -1.65 -0.45 -0.20 -0.80 0.25 -1.10 2.75 -1.80 1.65 -0.45 3.05 -0.75 3.10 -0.65 0.10 0.10 0.30 0.75 0.50 1.50 0.35 1.55 -0.40 2.15 -3.95 3.25 -2.55 0.80 -3.40 0.80 -3.10 0.05z"/>
  <path d="M9.15 13.60 c-0.30 -0.20 -0.45 -0.95 -0.30 -1.75 0.25 -1.15 0.50 -1.40 1.30 -1.15 0.55 0.15 1.45 0.05 1.95 -0.25 1.25 -0.70 1.20 0.35 -0.10 1.15 -0.55 0.35 -1 1.05 -1 1.50 0 0.95 -0.80 1.15 -1.85 0.50z"/>
  <path d="M14 12.35 c0 -0.95 1 -1.80 1.75 -1.50 0.55 0.15 0.50 0.45 -0.15 1.20 -0.95 1.10 -1.60 1.25 -1.60 0.30z"/>
 </g>
 <g fill="#a7a4a4">
  <path d="M35 39.80 c0 -0.25 1.15 -2.25 1.85 -3.25 0.20 -0.30 2.15 1.55 2.15 2.05 0 0.25 -0.45 0.30 -1.05 0.15 -0.65 -0.20 -1.35 0 -2 0.55 -0.50 0.45 -0.95 0.70 -0.95 0.50z"/>
  <path d="M28.60 37.45 c1.45 -0.80 4.95 -1.95 4.70 -1.50 -0.40 0.65 -3.60 2.05 -4.65 2.05 -0.85 -0.05 -0.85 -0.05 -0.05 -0.55z"/>
  <path d="M2.80 32.75 c0.20 -0.80 0.55 -1.70 0.80 -2 0.35 -0.35 0.40 -0.05 0.15 0.75 -0.60 2 -1.30 2.95 -0.95 1.25z"/>
  <path d="M33.50 30.15 c0 -0.65 1.45 -1.90 1.75 -1.55 0.15 0.15 -0.20 0.65 -0.75 1.15 -0.55 0.50 -1 0.65 -1 0.40z"/>
  <path d="M5.35 27.30 c-0.20 -0.50 0 -1.45 0.40 -2.20 l0.70 -1.35 0 1.25 c0 0.70 -0.20 1.70 -0.40 2.20 -0.35 0.90 -0.40 0.90 -0.70 0.10z"/>
  <path d="M34.65 9 c-1.20 -0.55 -2.15 -1.05 -2.15 -1.15 0 -0.50 2.40 0.30 3.50 1.20 1.55 1.15 1.35 1.15 -1.35 -0.05z"/>
  <path d="M21.50 5.05 c0 -0.25 0.60 -0.80 1.30 -1.30 1.25 -0.80 1.25 -0.80 0.75 0.15 -0.55 1.05 -2.05 1.85 -2.05 1.15z"/>
  <path d="M11.85 4.15 c0.40 -1.10 1.65 -2.65 2.20 -2.65 0.25 0 -0.05 0.80 -0.60 1.75 -1.10 1.80 -2.15 2.40 -1.60 0.90z"/>
  <path d="M9 4.35 c0 -0.10 0.70 -0.80 1.60 -1.65 l1.55 -1.45 -1.10 1.65 c-0.90 1.30 -2.05 2.10 -2.05 1.45z"/>
 </g>
 <g fill="#d5ad8a">
  <path d="M21 30.55 c0 -0.25 0.35 -0.60 0.80 -0.75 1.40 -0.55 0.45 -1.55 -1.70 -1.80 -1.90 -0.25 -2 -0.30 -1.30 -1.20 0.65 -0.90 0.75 -0.90 1.60 -0.15 0.50 0.45 1.15 0.85 1.45 0.85 0.25 0 0.85 0.40 1.35 0.90 0.75 0.90 0.75 1 -0.10 1.75 -1 0.90 -2.10 1.10 -2.10 0.40z"/>
  <path d="M14.90 30.10 c-1.80 -0.35 -0.85 -1.10 1.35 -1.10 1.25 0 2.25 0.20 2.25 0.45 0 0.50 -2.30 0.90 -3.60 0.65z"/>
  <path d="M13 27.50 c0 -0.25 0.35 -0.50 0.75 -0.50 0.40 0 0.75 0.25 0.75 0.50 0 0.30 -0.35 0.50 -0.75 0.50 -0.40 0 -0.75 -0.20 -0.75 -0.50z"/>
  <path d="M13.65 25.15 c-0.50 -0.15 -0.45 -0.55 0.10 -1.65 0.40 -0.80 0.75 -1.90 0.75 -2.50 0 -0.55 0.25 -1 0.50 -1 0.30 0 0.50 1.25 0.50 2.75 0 2.70 -0.25 3.05 -1.85 2.40z"/>
  <path d="M16.50 24.55 c0 -0.60 1.45 -1.15 2.05 -0.75 0.25 0.15 0.35 0.50 0.20 0.75 -0.40 0.60 -2.25 0.60 -2.25 0z"/>
  <path d="M23.70 24.10 c-0.70 -0.50 -1.90 -3.55 -1.50 -3.95 0.65 -0.65 2.55 -0.50 3.15 0.30 0.80 1.05 0.80 2.70 0.05 3.45 -0.70 0.70 -0.95 0.70 -1.70 0.20z"/>
  <path d="M37 23.75 c-0.50 -0.65 -0.45 -0.95 0.25 -1.75 1.15 -1.25 1.90 -0.60 1.45 1.20 -0.35 1.50 -0.80 1.65 -1.70 0.55z"/>
  <path d="M10.75 22.75 c0.35 -1.65 1.10 -2.75 1.85 -2.75 0.70 0 -0.05 2.10 -1.20 3.25 l-1 1 0.35 -1.50z"/>
  <path d="M32 23.50 c0 -0.25 0.20 -0.50 0.50 -0.50 0.25 0 1.25 -0.70 2.25 -1.55 2.15 -1.90 2.25 -1.55 0.20 0.80 -1.50 1.70 -2.95 2.30 -2.95 1.25z"/>
  <path d="M15 18.50 c0 -0.25 0.35 -0.50 0.75 -0.50 0.40 0 0.75 0.25 0.75 0.50 0 0.30 -0.35 0.50 -0.75 0.50 -0.40 0 -0.75 -0.20 -0.75 -0.50z"/>
  <path d="M20 18.55 c0 -0.45 1.15 -1.05 2.05 -1.05 0.20 0 0.30 0.35 0.15 0.75 -0.35 0.80 -2.20 1.05 -2.20 0.30z"/>
  <path d="M31.50 18.60 c0 -0.80 2.50 -2.60 3.70 -2.60 0.90 0 0.80 0.15 -0.45 0.80 -0.80 0.40 -1.90 1.15 -2.35 1.55 -0.50 0.45 -0.90 0.55 -0.90 0.25z"/>
  <path d="M16.75 14.50 c0.15 -0.25 0.70 -0.50 1.20 -0.50 0.45 0 1.85 -0.80 3 -1.85 1.70 -1.45 2.25 -1.65 2.60 -1.10 0.25 0.40 0.45 0.85 0.45 1.05 0 0.50 -1.70 1.35 -4.40 2.20 -2.80 0.85 -3.25 0.85 -2.85 0.20z"/>
  <path d="M5.35 14.15 c-0.60 -0.55 -0.40 -1.15 0.35 -1.15 0.40 0 0.80 0.35 1 0.75 0.25 0.75 -0.70 1.05 -1.35 0.40z"/>
  <path d="M9.20 13.70 c-0.75 -0.35 -0.25 -2.70 0.60 -2.70 0.40 0 0.70 0.15 0.70 0.40 0 0.20 0.15 0.85 0.30 1.50 0.30 1.10 -0.25 1.35 -1.60 0.80z"/>
 </g>
 <g fill="#fcca61">
  <path d="M37.10 23.90 c-0.70 -0.70 0.10 -2.40 1.15 -2.40 0.50 0 0.75 0.50 0.75 1.50 0 1.55 -0.85 1.95 -1.90 0.90z"/>
 </g>
 <g fill="#cac7c7">
  <path d="M36.35 37.65 c0.30 -0.85 0.75 -0.80 1.90 0.05 0.85 0.60 0.80 0.65 -0.60 0.60 -1 -0.05 -1.45 -0.25 -1.30 -0.65z"/>
  <path d="M29 37.75 c0 -0.25 2.80 -1.75 3.25 -1.75 0.15 0 0.20 0.20 0.05 0.45 -0.30 0.50 -3.30 1.65 -3.30 1.30z"/>
  <path d="M5.55 26.50 c0 -0.70 0.20 -1.60 0.45 -2 0.45 -0.65 0.50 -0.65 0.45 0 -0.05 0.40 -0.25 1.30 -0.45 2 l-0.40 1.25 -0.05 -1.25z"/>
  <path d="M20.50 18.25 c0.35 -0.40 0.80 -0.75 1.05 -0.75 0.25 0 0.45 0.35 0.45 0.75 0 0.45 -0.45 0.75 -1.05 0.75 -0.90 0 -0.95 -0.10 -0.45 -0.75z"/>
  <path d="M12 4.05 c0 -0.50 1.40 -2.05 1.80 -2.05 0.10 0 -0.15 0.55 -0.60 1.25 -0.85 1.30 -1.20 1.55 -1.20 0.80z"/>
 </g>
 <g fill="#eac9a9">
  <path d="M14.25 29.50 c-0.20 -0.30 0.40 -0.50 1.45 -0.50 1 0 1.80 0.25 1.80 0.50 0 0.30 -0.65 0.50 -1.45 0.50 -0.85 0 -1.65 -0.20 -1.80 -0.50z"/>
  <path d="M18.60 27.40 c0.30 -0.90 1.40 -1.05 1.40 -0.20 0 0.45 -0.35 0.80 -0.80 0.80 -0.45 0 -0.70 -0.25 -0.60 -0.60z"/>
  <path d="M14.15 25.15 c-0.35 -0.15 -0.65 -0.50 -0.65 -0.90 0 -0.90 1.35 -1.90 1.70 -1.30 0.45 0.70 -0.35 2.40 -1.05 2.20z"/>
  <path d="M32.50 23.50 c0 -0.25 0.75 -0.85 1.65 -1.30 l1.60 -0.85 -1.20 1.35 c-1.25 1.35 -2.05 1.65 -2.05 0.80z"/>
  <path d="M23.25 22 c-0.80 -0.90 -0.80 -1 -0.05 -1.30 1.20 -0.45 2.30 0.15 2.30 1.30 0 1.30 -1.10 1.30 -2.25 0z"/>
  <path d="M11 22.20 c0 -0.75 1.35 -2.50 1.70 -2.15 0.20 0.15 -0.10 0.85 -0.65 1.50 -0.55 0.65 -1 0.95 -1.05 0.65z"/>
  <path d="M20 18.75 c0 -0.10 0.45 -0.45 1 -0.75 0.80 -0.45 1 -0.40 1 0.25 0 0.40 -0.45 0.75 -1 0.75 -0.55 0 -1 -0.10 -1 -0.25z"/>
  <path d="M5.50 14 c-0.40 -0.25 -0.55 -0.60 -0.35 -0.80 0.20 -0.20 0.65 -0.10 0.95 0.20 0.75 0.75 0.35 1.20 -0.60 0.60z"/>
  <path d="M9.65 13.25 c-0.40 -1.10 0.30 -1.65 0.85 -0.75 0.65 1 0.60 1.50 0 1.50 -0.30 0 -0.65 -0.35 -0.85 -0.75z"/>
  <path d="M20.50 12.75 c1.15 -1.25 3 -1.70 3 -0.80 0 0.75 -2.10 2.05 -3.20 2.05 -0.90 0 -0.90 -0.10 0.20 -1.25z"/>
 </g>
 <g fill="#faedda">
  <path d="M14.50 29.50 c0 -0.25 0.45 -0.50 1 -0.50 0.55 0 1 0.25 1 0.50 0 0.30 -0.45 0.50 -1 0.50 -0.55 0 -1 -0.20 -1 -0.50z"/>
  <path d="M13.80 24.55 c-0.15 -0.25 0.05 -0.70 0.45 -1.05 0.65 -0.50 0.75 -0.45 0.75 0.45 0 1.05 -0.70 1.40 -1.20 0.60z"/>
  <path d="M20.50 18.60 c0 -0.25 0.35 -0.65 0.80 -0.80 0.50 -0.20 0.70 -0.05 0.60 0.30 -0.25 0.75 -1.40 1.15 -1.40 0.50z"/>
  <path d="M21 13 c0 -0.65 1.40 -1.25 1.90 -0.80 0.15 0.20 0 0.55 -0.40 0.80 -1 0.65 -1.50 0.60 -1.50 0z"/>
 </g>
</svg>