<?xml version="1.0" encoding="utf-8"?>
<!DOCTYPE svg PUBLIC "-//W3C//DTD SVG 1.0//EN" "http://www.w3.org/TR/2001/REC-SVG-20010904/DTD/svg10.dtd">
<svg version="1.0" xmlns="http://www.w3.org/2000/svg" width="40px" height="40px" viewBox="0 0 40 40" preserveAspectRatio="xMidYMid meet">
 <g fill="#10090a">
  <path d="M10.45 39.65 l-3.30 -0.20 -0.35 -2.30 c-0.15 -1.25 -0.30 -5.50 -0.30 -9.45 l0 -7.20 1.50 0 c1.45 0 1.50 -0.05 1.50 -2.50 0 -1.90 0.20 -2.50 0.75 -2.50 0.40 0 0.75 -0.45 0.75 -1 0 -0.80 0.35 -1 1.75 -1 1.65 0 1.75 0.10 1.75 1.70 0 0.95 -0.30 1.80 -0.60 1.95 -0.40 0.10 -0.05 0.75 1 1.70 1.85 1.80 2.30 4.65 0.75 4.65 -0.85 0.05 -0.85 0.05 0 0.70 0.45 0.35 0.85 1.20 0.90 1.85 0.05 1.50 0.85 3.65 0.90 2.40 0.10 -1.55 2.95 -1.95 5.40 -0.70 2.05 1 2.90 0.60 3.60 -1.80 0.55 -1.75 0.75 -1.95 2.20 -1.90 0.90 0 1.30 0.15 1 0.30 -1.10 0.40 -0.70 1 0.50 0.80 0.75 -0.15 1.30 0.15 1.75 0.80 0.55 0.90 0.50 1.05 -0.35 1.05 -1 0 -1.55 0.90 -1.55 2.75 0 0.60 -0.35 1.40 -0.75 1.75 -0.40 0.35 -0.75 0.95 -0.75 1.30 0 0.40 -0.50 0.70 -1.25 0.70 -2 0 -6.50 -1.10 -6.85 -1.70 -0.25 -0.35 -0.40 -0.25 -0.40 0.35 0 0.60 -0.40 0.85 -1.50 0.85 -1.15 0 -1.50 0.20 -1.50 1 0 0.80 0.35 1 1.50 1 1.45 0 1.50 0.05 1.50 2.50 l0 2.50 -3.10 -0.10 c-1.75 -0.05 -4.65 -0.15 -6.45 -0.25z m3.05 -7.30 c0 -3 -0.05 -3.15 -1.50 -3.70 l-1.50 -0.55 0 3.70 0 3.70 1.50 0 1.50 0 0 -3.15z m-2.85 -9.90 c-0.40 -1.45 -0.65 -1.15 -0.65 0.70 0 1.10 0.15 1.40 0.45 0.90 0.25 -0.35 0.30 -1.10 0.20 -1.60z"/>
  <path d="M1.85 37.15 c-0.20 -0.15 -0.35 -1.10 -0.35 -2 0 -1.65 0.05 -1.70 1.90 -1.55 1.75 0.15 1.85 0.25 2 2.05 0.15 1.80 0.10 1.85 -1.55 1.85 -0.90 0 -1.85 -0.15 -2 -0.35z"/>
  <path d="M34 31.45 l0 -1.50 1.50 1.05 c2.20 1.55 2.25 2 0.30 2 -1.65 0 -1.80 -0.10 -1.80 -1.55z"/>
  <path d="M27.10 14.65 c0.15 -1.80 0.25 -1.90 2.05 -2.05 l1.90 -0.15 -0.15 1.90 c-0.15 1.80 -0.25 1.90 -2.05 2.05 l-1.90 0.15 0.15 -1.90z"/>
  <path d="M22.95 14.65 c-0.10 -1.20 -0.10 -1.25 -0.30 -0.25 -0.20 0.90 -0.55 1.10 -1.95 1.10 -1.60 0 -1.70 -0.10 -1.70 -1.75 0 -0.95 0.25 -1.75 0.50 -1.75 0.30 0 0.50 -0.40 0.50 -0.90 0 -0.50 1.25 -2.30 2.80 -4 2.75 -3.05 2.80 -3.10 5.50 -3.10 2.25 0 2.80 0.20 3.45 1.20 0.45 0.65 0.95 2 1.10 3 0.25 1.75 0.25 1.80 -1.35 1.80 -0.95 0 -2.10 -0.40 -2.65 -0.85 -0.90 -0.85 -1 -0.80 -2.75 1.10 -1.75 1.90 -1.80 2 -0.70 2.15 0.90 0.15 1.10 0.50 1.10 1.90 0 1.60 -0.10 1.70 -1.75 1.70 -1.55 0 -1.75 -0.15 -1.80 -1.35z"/>
  <path d="M13 5.75 c0 -1.65 0.10 -1.75 1.75 -1.75 1.65 0 1.75 0.10 1.75 1.75 0 1.65 -0.10 1.75 -1.75 1.75 -1.65 0 -1.75 -0.10 -1.75 -1.75z"/>
 </g>
 <g fill="#001e07">
  <path d="M24.75 31 c0.15 -0.25 0.65 -0.50 1.05 -0.50 0.40 0 0.70 0.25 0.70 0.50 0 0.30 -0.45 0.50 -1.05 0.50 -0.55 0 -0.85 -0.20 -0.70 -0.50z"/>
  <path d="M18 28.75 c0 -1.65 0.10 -1.75 1.75 -1.75 1.65 0 1.75 0.10 1.75 1.75 0 1.65 -0.10 1.75 -1.75 1.75 -1.65 0 -1.75 -0.10 -1.75 -1.75z m3 0.85 c0 -0.75 -0.55 -1.05 -1.35 -0.75 -0.60 0.25 -0.60 0.35 -0.05 0.70 0.85 0.55 1.40 0.55 1.40 0.05z"/>
  <path d="M24.50 29 c0 -0.80 0.35 -1 1.50 -1 1.60 0 2.10 1.15 0.70 1.70 -1.45 0.55 -2.20 0.30 -2.20 -0.70z"/>
  <path d="M27 15.35 c0 -2.10 0.75 -2.85 2.85 -2.85 1.60 0 1.65 0.10 1.65 1.95 0 2.10 -0.55 2.55 -3.05 2.55 -1.30 0 -1.45 -0.15 -1.45 -1.65z"/>
  <path d="M10.50 14.75 c0 -1.65 0.10 -1.75 1.75 -1.75 1.65 0 1.75 0.10 1.75 1.75 0 1.65 -0.10 1.75 -1.75 1.75 -1.65 0 -1.75 -0.10 -1.75 -1.75z"/>
  <path d="M20.40 15.80 c-0.55 -0.40 -0.90 -1.30 -0.90 -2.25 0 -1.40 0.15 -1.55 1.55 -1.55 2.45 0 3.45 0.80 3.45 2.75 0 1.65 -0.10 1.75 -1.60 1.75 -0.90 0 -2.05 -0.35 -2.50 -0.70z"/>
  <path d="M8.50 9.95 c0 -1.70 0.95 -2.95 2.25 -2.95 1.10 0 1.25 0.20 1.25 2 0 1.95 -0.05 2 -1.75 2 -1.45 0 -1.75 -0.20 -1.75 -1.05z"/>
 </g>
 <g fill="#151b27">
  <path d="M3.75 39 c-0.15 -0.50 -1.10 -1.25 -2.05 -1.60 l-1.70 -0.60 0 -5.55 0.05 -5.50 1.95 -2 c1.10 -1.10 2 -2.30 2 -2.60 0 -0.35 0.40 -0.65 0.90 -0.65 0.45 0 1.10 -0.50 1.35 -1.10 0.30 -0.70 1.05 -1.20 1.90 -1.30 l1.35 -0.15 0 7.25 c0 4.65 -0.20 7.30 -0.50 7.30 -0.30 0 -0.40 -0.50 -0.25 -1.15 0.15 -0.60 0.10 -1.70 -0.20 -2.35 -0.45 -1.10 -0.50 -0.95 -0.50 1.15 -0.05 2 -0.20 2.35 -1.05 2.35 -0.65 0 -1 -0.35 -1 -1 0 -0.65 -0.35 -1 -1 -1 -0.55 0 -1 0.25 -1 0.55 0 1.15 1.10 2.45 2 2.45 0.65 0 1 0.35 1 1 0 0.55 0.30 1 0.70 1 0.40 0 0.85 0.60 0.95 1.40 l0.20 1.35 0.10 -1.35 c0.05 -1.45 0.75 -1.90 1.20 -0.75 0.15 0.30 0.30 -1.80 0.30 -4.75 0.05 -3 0.20 -5.40 0.40 -5.40 0.15 0 1.20 0.40 2.20 0.90 1.75 0.75 1.95 1.05 2 2.85 0.05 1.10 0.15 1.60 0.30 1.15 0.35 -1.45 1.15 -1 1.15 0.60 0 1.40 0.15 1.50 1.75 1.50 l1.75 0 0 3.50 0 3.50 -7.95 0 c-7.50 0 -8 -0.05 -8.30 -1z m4.75 -14.50 l-0.40 -2.75 -0.05 2.55 c-0.05 2.15 0.30 3.55 0.75 3.05 0.05 -0.05 -0.05 -1.35 -0.30 -2.85z"/>
  <path d="M32.95 38.15 c-0.30 -0.80 -0.45 -2.25 -0.35 -3.25 0.15 -1.55 0 -1.90 -0.70 -1.90 -1.25 0 -3.40 2.20 -3.40 3.45 0 0.90 -0.30 1.05 -2 1.05 -1.35 0 -2.15 -0.25 -2.30 -0.75 -0.20 -0.40 -0.60 -0.75 -1 -0.75 -0.45 0 -0.70 -0.60 -0.70 -1.75 0 -1.20 0.25 -1.75 0.75 -1.75 0.40 0 1 -0.45 1.35 -1 0.80 -1.25 1.90 -1.30 1.95 -0.10 0 0.65 0.10 0.70 0.30 0.10 0.15 -0.40 0.60 -1.10 0.95 -1.50 0.45 -0.50 0.50 -1 0.20 -1.50 -0.40 -0.65 -0.50 -0.65 -0.50 0.05 0 0.45 -0.45 0.95 -1 1.10 -1.05 0.25 -1.40 -0.35 -0.50 -0.90 0.30 -0.15 0.50 -0.75 0.50 -1.25 0 -1.95 1.10 -3.50 2.45 -3.50 0.70 0 1.05 0.20 0.75 0.40 -0.60 0.40 -1.70 2.30 -1.70 2.95 0.05 0.20 0.40 -0.20 0.80 -0.95 0.40 -0.80 1.05 -1.40 1.40 -1.40 0.75 0 3.30 2.75 3.30 3.60 0 0.25 1.45 1.90 3.25 3.60 3.70 3.55 4.30 5.30 1.75 5.30 -1.15 0 -1.50 0.20 -1.50 1 0 0.80 -0.35 1 -1.75 1 -1.45 0 -1.85 -0.25 -2.30 -1.35z"/>
  <path d="M17 29.75 c0 -1.75 0 -1.75 2.25 -1.75 2.25 0 2.25 0 2.25 1.75 0 1.60 -0.10 1.75 -1.45 1.75 -0.80 0 -1.60 -0.30 -1.70 -0.60 -0.20 -0.50 -0.30 -0.50 -0.30 0 -0.10 1.45 -1.05 0.45 -1.05 -1.15z m4 -0.20 c0 -0.70 -0.90 -1.15 -1.55 -0.75 -0.40 0.20 -0.35 0.45 0.10 0.75 0.90 0.55 1.45 0.55 1.45 0z"/>
  <path d="M18.50 14.75 c0 -1.65 0.10 -1.75 1.75 -1.75 1.65 0 1.75 0.10 1.75 1.75 0 1.65 -0.10 1.75 -1.75 1.75 -1.65 0 -1.75 -0.10 -1.75 -1.75z"/>
  <path d="M23 14.75 c0 -1.65 0.10 -1.75 1.75 -1.75 1.65 0 1.75 0.10 1.75 1.75 0 1.65 -0.10 1.75 -1.75 1.75 -1.65 0 -1.75 -0.10 -1.75 -1.75z"/>
 </g>
 <g fill="#401507">
  <path d="M7.45 38.90 c-0.20 -9.60 -0.95 -18.60 -1.50 -18.95 -0.55 -0.35 -0.50 -0.55 0.35 -1.15 0.90 -0.65 1 -1.15 0.80 -3.45 -0.20 -2.30 0.05 -3.25 1.35 -6 0.85 -1.80 2.30 -3.90 3.20 -4.65 l1.60 -1.35 0.15 1.40 c0.10 0.75 -0.05 1.60 -0.35 1.90 -0.30 0.30 -0.55 0.90 -0.55 1.35 0 0.45 -0.45 1.30 -1 1.90 -0.55 0.60 -1 1.75 -1 2.60 0 1.35 0.15 1.50 1.45 1.50 2.40 0 4.05 0.85 4.10 2.10 0.05 0.90 0.15 0.80 0.50 -0.45 0.25 -0.90 0.70 -1.75 0.95 -1.90 0.30 -0.15 0.50 -0.95 0.50 -1.80 0 -1.10 -0.25 -1.45 -1 -1.45 -0.75 0 -1 -0.35 -1 -1.25 0 -0.70 -0.20 -1.25 -0.50 -1.25 -0.25 0 -0.50 -0.80 -0.50 -1.75 0 -1.20 0.25 -1.75 0.75 -1.75 0.40 0 0.75 -0.40 0.75 -0.90 0 -1.60 1.10 -2.10 4.40 -2.10 2.60 0 3.40 0.20 4.05 0.95 0.60 0.65 1.65 1.05 3.30 1.15 3.30 0.20 4.50 1.80 4.45 5.85 -0.05 1.60 -0.20 3.50 -0.40 4.25 -0.35 1.45 -1.80 1.80 -1.80 0.40 0 -0.50 -0.40 -2 -0.90 -3.40 -0.65 -1.85 -1.05 -2.40 -1.75 -2.30 -0.45 0.10 -0.85 0.50 -0.85 0.85 0 0.35 -0.65 0.80 -1.50 1 -1.80 0.40 -2.05 1.75 -0.30 1.75 1.40 0 2.80 1.65 2.80 3.35 0 0.90 0.30 1.15 1.25 1.15 1.10 0 1.25 0.20 1.25 1.75 0 1.65 -0.10 1.75 -1.75 1.75 -1.40 0 -1.75 -0.20 -1.75 -1 0 -0.70 -0.35 -1 -1.05 -1 -1.10 0 -2.45 -1.10 -2.45 -1.95 0 -0.30 -0.25 -0.55 -0.55 -0.55 -0.25 0 -0.40 -0.20 -0.20 -0.45 0.15 -0.25 0.05 -0.60 -0.20 -0.80 -0.30 -0.15 -0.65 0.50 -0.85 1.50 -0.15 0.95 -0.50 1.75 -0.75 1.75 -0.25 0 -0.45 0.55 -0.45 1.20 0 1 -0.30 1.25 -1.60 1.45 l-1.65 0.20 1.65 0.05 c0.90 0.05 1.60 0.35 1.60 0.75 0 0.30 0.85 1.05 1.90 1.60 1.55 0.85 1.85 1.30 2 2.90 0.15 1.80 0.15 1.85 -1.60 1.85 -1.80 0 -3.95 1.30 -3.50 2.10 0.15 0.25 0 0.35 -0.35 0.30 -0.35 -0.10 -0.75 0.25 -0.85 0.70 -0.10 0.65 0.05 0.80 0.60 0.60 0.70 -0.25 0.80 0.25 0.80 3.50 0 2.20 -0.20 3.80 -0.50 3.80 -0.25 0 -0.50 -0.50 -0.55 -1.10 -0.05 -0.80 -0.20 -0.55 -0.55 0.75 -0.45 1.65 -0.65 1.85 -2.15 1.85 l-1.65 0 -0.20 -5.75 c-0.10 -4.45 -0.30 -5.90 -0.90 -6.25 -0.55 -0.35 -0.80 -0.20 -0.90 0.60 -0.10 0.60 0.15 1.25 0.60 1.50 0.65 0.35 0.80 1.40 0.80 5.15 0 4.25 -0.45 5.90 -1.15 4.15 -0.20 -0.50 -0.30 -0.50 -0.30 0 -0.05 0.40 -0.85 0.60 -2.30 0.60 -2 0 -2.25 -0.15 -2.30 -1.10z m7.80 -4.80 c0.05 -2.95 -0.10 -4.70 -0.30 -3.85 -0.65 2.95 -0.50 9.25 0.25 9.25 0.05 0 0.05 -2.40 0.05 -5.40z m-6.45 -0.70 c-0.15 -2.85 -0.25 -5.25 -0.25 -5.35 -0.05 -0.15 -0.30 0 -0.60 0.30 -0.35 0.35 -0.35 1.65 0 4.40 0.30 2.10 0.45 4.05 0.25 4.30 -0.25 0.45 0.15 1.45 0.60 1.45 0.15 0 0.15 -2.30 0 -5.10z m3.75 0.25 c-0.15 -3.40 -0.55 -3.35 -0.55 0.10 0 1.60 0.15 2.75 0.35 2.55 0.20 -0.15 0.30 -1.40 0.20 -2.65z m-4.10 -10.15 c-0.30 -2.05 -0.65 -3.85 -0.75 -4 -0.40 -0.35 0.15 6.85 0.55 7.50 0.65 1.05 0.70 0.20 0.20 -3.50z m6.55 3.45 c0 -0.35 -0.35 -0.85 -0.85 -1.20 -0.45 -0.35 -0.85 -1.30 -0.85 -2.20 -0.05 -1.25 0.15 -1.55 0.95 -1.55 0.90 0 0.85 -0.10 -0.35 -1.15 -0.70 -0.60 -1.65 -1.75 -2.10 -2.60 -1 -1.95 -1.05 -0.45 -0.05 1.90 0.95 2.25 0.95 2.25 -0.10 2.45 -0.75 0.15 -0.75 0.20 0 1 0.50 0.50 0.70 1.15 0.50 1.70 -0.20 0.55 0 1.10 0.60 1.50 1.15 0.85 2.25 0.90 2.25 0.15z m12.95 -20.95 c0.50 0 1.40 0.55 2.05 1.25 0.65 0.70 1.30 1.15 1.40 1 0.50 -0.50 -2.10 -2.75 -3.15 -2.75 -0.95 0 -3.90 2.65 -5.75 5.25 -0.40 0.55 0.45 -0.30 1.90 -1.85 1.50 -1.60 3.05 -2.90 3.55 -2.90z"/>
  <path d="M25 26.30 c0 -1.80 0.60 -2.30 2.80 -2.30 0.95 0 1.20 -0.25 1.20 -1.25 0 -0.90 0.25 -1.25 1 -1.25 0.75 0 1 -0.35 1 -1.25 0 -0.90 0.25 -1.25 1 -1.25 1.70 0 1.15 1.75 -1.25 4.35 -1.25 1.30 -2.40 2.90 -2.55 3.55 -0.25 0.80 -0.65 1.10 -1.75 1.10 -1.30 0 -1.45 -0.15 -1.45 -1.70z"/>
  <path d="M29 27.05 c0 -0.55 0.25 -1.15 0.50 -1.30 0.30 -0.15 0.50 0.15 0.50 0.70 0 0.55 -0.20 1.15 -0.50 1.30 -0.25 0.15 -0.50 -0.15 -0.50 -0.70z"/>
 </g>
 <g fill="#371c14">
  <path d="M7.50 38.40 c0.05 -1.35 0.10 -1.50 0.55 -0.75 0.60 1.05 1.45 1.10 1.45 0.10 0 -0.40 0.35 -0.75 0.75 -0.75 0.40 0 0.75 0.35 0.75 0.75 0 0.40 0.45 0.75 1 0.75 0.65 0 1 0.30 0.95 0.90 0 0.50 -0.15 0.60 -0.30 0.25 -0.10 -0.35 -0.45 -0.65 -0.70 -0.65 -0.30 0 -0.35 0.25 -0.20 0.50 0.15 0.30 -0.15 0.50 -0.70 0.50 -0.50 0 -1.10 -0.30 -1.20 -0.60 -0.20 -0.50 -0.30 -0.50 -0.30 0 -0.05 0.30 -0.50 0.60 -1.05 0.60 -0.80 0 -1 -0.35 -1 -1.60z"/>
  <path d="M13.85 39.65 c-0.20 -0.15 -0.35 -2.85 -0.35 -5.95 0 -4.50 -0.15 -5.65 -0.75 -5.90 -0.55 -0.20 -0.75 0.10 -0.75 1 0 0.65 -0.35 1.35 -0.75 1.50 -0.45 0.20 -0.75 0.95 -0.75 1.75 0 0.95 -0.25 1.45 -0.75 1.45 -0.40 0 -0.75 -0.20 -0.75 -0.50 0 -0.25 0.25 -0.50 0.50 -0.50 0.30 0 0.25 -0.65 -0.15 -1.60 -0.75 -1.75 -0.60 -3.10 0.25 -2.60 0.25 0.15 0.15 -0.35 -0.30 -1.20 -0.90 -1.70 -0.50 -2.45 0.70 -1.35 0.50 0.45 1.30 0.85 1.80 0.95 2.55 0.55 3.80 1.30 3.45 2.20 -0.70 1.75 -0.90 9.55 -0.25 10.35 0.50 0.60 0.50 0.75 -0.10 0.75 -0.40 0 -0.90 -0.15 -1.05 -0.35z"/>
  <path d="M15.95 39.40 c-0.05 -0.35 -0.05 -0.80 0 -1 0 -0.25 -0.15 -0.40 -0.45 -0.40 -0.70 0 -0.65 -1.30 0.15 -2.55 0.50 -0.85 0.50 -1.15 0 -1.30 -0.90 -0.30 -0.80 -2.60 0.10 -2.95 0.40 -0.20 0.75 -0.70 0.75 -1.15 0 -0.70 -0.10 -0.70 -0.55 -0.05 -0.40 0.60 -0.45 0.50 -0.20 -0.35 0.35 -1.25 -0.45 -3.10 -1.85 -4.05 -0.55 -0.40 -0.90 -1.25 -0.90 -2.20 0 -1.50 0.05 -1.55 2.15 -1.25 l2.10 0.25 -2.10 -0.90 c-1.50 -0.70 -2.40 -1.50 -3.15 -3 l-1.05 -2.05 1.70 0.75 c1.50 0.60 1.70 0.60 1.70 -0.10 0 -0.40 -0.45 -0.85 -0.95 -1 -0.50 -0.10 -0.80 -0.40 -0.65 -0.60 0.15 -0.25 0.05 -0.60 -0.25 -0.75 -0.30 -0.20 -0.45 -0.05 -0.40 0.35 0.10 0.40 -0.20 0.60 -0.80 0.50 -0.80 -0.15 -0.90 0.05 -0.55 1.75 0.20 1.05 0.55 2.20 0.85 2.55 0.30 0.30 0.35 0.60 0.10 0.60 -0.20 0 -0.15 0.25 0.20 0.60 0.70 0.70 0.80 3.35 0.20 4.30 -0.55 0.85 -2 0.25 -2.40 -1 -0.25 -0.85 -0.40 -0.90 -0.80 -0.35 -0.35 0.50 -0.40 0.30 -0.20 -0.65 0.15 -0.70 0.05 -1.40 -0.20 -1.50 -0.30 -0.10 -0.10 -0.65 0.45 -1.25 1 -1.05 1 -1.05 0 -1.30 -0.50 -0.15 -1.05 -0.05 -1.20 0.15 -0.45 0.75 0.15 7 0.70 7.70 0.45 0.50 0.40 0.75 -0.25 1 -0.65 0.25 -0.75 0.75 -0.45 2.80 0.20 1.50 0.15 2.50 -0.15 2.50 -0.25 0 -0.55 -2.60 -0.70 -6 -0.10 -3.70 -0.45 -6.25 -0.80 -6.60 -0.90 -0.90 -0.75 -1.80 0.40 -2.15 0.55 -0.15 1 -0.65 1 -1.10 0 -0.50 0.30 -0.70 1 -0.50 0.55 0.15 1 0.05 1 -0.20 0 -0.25 -0.45 -0.45 -0.95 -0.45 -2.80 0 -0.90 -7.35 2.95 -11.40 3 -3.10 8.50 -5.05 8.50 -3 0 0.70 -0.40 0.90 -1.60 0.90 -1.60 0 -1.65 0.10 -1.60 1.85 0.10 2.75 -0.55 3.65 -2.55 3.65 -1.45 0 -1.80 0.20 -2.05 1.30 -0.35 1.45 0.45 2.20 2.80 2.70 1.10 0.20 1.30 0.60 1.55 2.80 0.20 1.40 0.55 3 0.90 3.60 0.65 1.25 0.75 4.80 0.10 4.35 -0.25 -0.15 -0.65 0 -0.85 0.30 -0.25 0.45 -0.55 0.30 -1.05 -0.35 -0.65 -0.85 -0.70 -0.75 -0.55 1.05 0.10 1.10 0.35 1.90 0.65 1.75 0.30 -0.15 0.45 -0.55 0.45 -0.85 -0.05 -0.35 0.10 -0.65 0.35 -0.65 0.25 0 0.45 0.55 0.45 1.25 0 1.20 0.15 1.25 2.75 1.25 1.50 0 2.75 0.25 2.75 0.50 0 0.30 0.45 0.50 1 0.50 0.55 0 1 0.25 1 0.50 0 0.30 0.35 0.50 0.75 0.50 0.45 0 0.75 -0.45 0.75 -1.20 0 -1.95 0.85 -3.70 2.65 -5.55 1.60 -1.65 3.85 -2.35 3.85 -1.25 0 0.70 -3.50 4.15 -5 4.90 -1.05 0.50 -1.05 0.60 -0.20 0.45 1 -0.20 1.05 -0.10 0.55 1.45 -0.40 1.35 -0.85 1.75 -2.20 2 -0.90 0.15 -2.10 0.20 -2.65 0.05 -0.65 -0.15 -1 0 -1 0.40 0 0.40 0.50 0.80 1.15 0.90 0.60 0.10 0.15 0.25 -1 0.30 l-2.15 0.05 0 3.25 c0 2.55 -0.15 3.25 -0.75 3.25 -0.75 0 -1 -0.80 -0.85 -2.60 0.05 -0.50 -0.15 -0.90 -0.45 -0.90 -0.30 0 -0.50 0.75 -0.40 1.65 0.20 2.85 -0.05 3.85 -0.80 3.85 -0.40 0 -0.80 -0.30 -0.80 -0.60z m5.05 -9.90 c0 -0.85 -1.10 -1.10 -1.80 -0.40 -0.60 0.60 -0.50 0.70 0.55 0.80 0.70 0.05 1.25 -0.10 1.25 -0.40z"/>
  <path d="M24.60 31.65 c0.25 -1.30 1.90 -1.45 1.90 -0.20 0 0.75 -0.30 1.05 -1.05 1.05 -0.70 0 -0.95 -0.25 -0.85 -0.85z"/>
  <path d="M28.55 29.05 c-0.45 -0.30 -0.50 -0.55 -0.10 -0.75 0.30 -0.20 0.55 -0.75 0.55 -1.25 0 -0.90 1.30 -2.40 1.70 -2 0.10 0.10 -0.20 1.15 -0.65 2.30 -0.60 1.55 -1 2 -1.50 1.70z"/>
  <path d="M23 20.25 c0 -1.65 0.10 -1.75 1.75 -1.75 1.65 0 1.75 0.10 1.75 1.75 0 1.65 -0.10 1.75 -1.75 1.75 -1.65 0 -1.75 -0.10 -1.75 -1.75z"/>
  <path d="M30 16.55 c0 -0.55 -0.30 -1.10 -0.60 -1.20 -0.50 -0.20 -0.50 -0.30 0 -0.30 0.30 -0.05 0.60 -0.30 0.60 -0.60 0 -0.30 -0.35 -0.45 -0.75 -0.25 -0.55 0.20 -0.75 -0.05 -0.75 -0.95 0 -1.10 0.20 -1.25 1.90 -1.25 l1.90 0 0 2.75 c-0.05 2.50 -0.15 2.75 -1.15 2.75 -0.80 0 -1.15 -0.30 -1.15 -0.95z"/>
  <path d="M19 16.70 c0 -0.15 0.35 -0.60 0.75 -1.05 1 -0.95 0.55 -1.50 -0.50 -0.65 -0.65 0.55 -0.75 0.40 -0.75 -0.85 0 -0.80 0.35 -1.90 0.80 -2.45 0.40 -0.50 0.65 -0.65 0.45 -0.30 -0.60 1.15 0.20 0.60 1.30 -1 0.65 -0.85 0.90 -1.40 0.55 -1.20 -0.35 0.20 -0.60 0.10 -0.60 -0.15 0 -0.30 0.35 -0.55 0.75 -0.55 0.40 0 0.75 -0.40 0.75 -0.90 0 -1.35 2.30 -3.10 4 -3.10 l1.45 0 -2.45 2.60 c-4.65 4.90 -5.25 5.75 -4.25 5.75 0.40 0 0.60 -0.20 0.50 -0.40 -0.15 -0.15 1.15 -1.75 2.85 -3.50 2.40 -2.45 3.15 -3 3.30 -2.35 0.10 0.50 -0.20 1.25 -0.60 1.70 -0.45 0.40 -0.80 1.10 -0.80 1.45 0 0.40 -0.55 1.10 -1.25 1.55 -1.65 1.10 -1.60 1.70 0.25 1.70 1.40 0 1.50 0.10 1.50 1.90 l0 1.85 -1 -1.60 c-1.10 -1.80 -2.40 -2.35 -1.50 -0.65 0.30 0.55 0.75 1 1 1 0.30 0 0.50 0.25 0.50 0.50 0 0.30 -0.55 0.50 -1.25 0.50 -1 0 -1.25 -0.25 -1.25 -1.15 0 -0.70 -0.30 -1.20 -0.70 -1.20 -0.40 0 -0.75 0.15 -0.70 0.30 0.20 1.95 -0.20 2.55 -1.60 2.55 -0.80 0 -1.50 -0.15 -1.50 -0.30z"/>
  <path d="M29.50 9.25 c0 -0.70 -0.20 -1.25 -0.50 -1.25 -0.25 0 -0.50 -0.35 -0.50 -0.75 0 -1.05 0.65 -0.95 1.80 0.40 1.35 1.60 1.45 2.85 0.20 2.85 -0.75 0 -1 -0.30 -1 -1.25z"/>
  <path d="M32.05 9.10 c-0.05 -0.60 -0.85 -1.90 -1.80 -2.85 -1.05 -1.10 -1.45 -1.75 -1 -1.75 0.40 0 0.75 -0.25 0.75 -0.60 0 -0.90 1.90 1.05 2.40 2.50 0.25 0.75 0.25 1.90 0.05 2.60 -0.35 1.20 -0.35 1.20 -0.40 0.10z"/>
  <path d="M21 1.80 c0 -0.80 1.25 -1.20 2.65 -0.90 1.60 0.40 0.95 1.60 -0.90 1.60 -1.20 0 -1.75 -0.25 -1.75 -0.70z"/>
 </g>
 <g fill="#0b4d1a">
  <path d="M17.50 28.75 c0 -1.65 0.10 -1.75 1.75 -1.75 1.15 0 1.75 0.25 1.75 0.70 0 0.85 -1.85 1.40 -2.20 0.60 -0.10 -0.30 -0.15 -0.05 -0.15 0.55 0.05 0.60 0.20 1 0.35 0.95 0.15 -0.10 0.70 0 1.25 0.25 0.80 0.30 0.60 0.40 -0.85 0.40 -1.85 0.05 -1.90 0 -1.90 -1.70z"/>
  <path d="M19.80 17.05 c-0.30 -0.45 0.50 -2.45 1.25 -3.05 0.15 -0.15 0.55 -0.75 0.90 -1.40 0.80 -1.50 2.25 -1.25 2.45 0.40 0.45 4.45 0.55 4.25 -2 4.40 -1.25 0.10 -2.45 -0.10 -2.60 -0.35z"/>
  <path d="M27.50 15.70 c0 -2.15 0.95 -3.20 2.95 -3.20 1.50 0 1.55 0.05 1.50 2.50 l-0.10 2.50 -2.15 0 c-2.20 0 -2.20 0 -2.20 -1.80z m2.70 -1.50 c0.20 -0.60 0.10 -0.60 -0.70 -0.20 -0.55 0.30 -1 0.75 -1 1 0 0.70 1.40 0.05 1.70 -0.80z"/>
  <path d="M19.50 13.70 c0 -0.60 0.35 -1.35 0.75 -1.70 1.15 -0.95 1.25 -0.45 0.20 1.25 -0.85 1.30 -0.95 1.35 -0.95 0.45z"/>
 </g>
 <g fill="#4b2a1f">
  <path d="M7.50 39.25 c0 -0.40 0.35 -0.75 0.75 -0.75 0.40 0 0.75 0.35 0.75 0.75 0 0.40 -0.35 0.75 -0.75 0.75 -0.40 0 -0.75 -0.35 -0.75 -0.75z"/>
  <path d="M9.85 39.40 c-0.30 -1 0.20 -2.40 0.90 -2.40 0.40 0 0.80 0.40 0.90 0.90 0.20 0.80 0.25 0.80 0.30 0 0.10 -1.60 1.55 -1.05 1.55 0.60 0 1.50 -0.70 2 -1.20 0.90 -0.25 -0.50 -0.35 -0.50 -0.60 0 -0.15 0.30 -0.60 0.60 -0.95 0.60 -0.35 0 -0.75 -0.30 -0.90 -0.60z"/>
  <path d="M16.50 32.15 c0 -4.60 0.25 -4.85 3.80 -4.50 1.65 0.15 2.55 0.15 2.10 0.05 -0.50 -0.15 -0.90 -0.60 -0.90 -1 0 -0.40 -0.50 -0.70 -1.25 -0.70 -0.70 0 -1.25 -0.30 -1.25 -0.60 0 -0.45 -0.20 -0.40 -0.50 0.10 -0.35 0.55 -0.50 0.35 -0.50 -0.90 0 -1 0.20 -1.55 0.50 -1.35 0.30 0.15 0.50 0.05 0.50 -0.20 0 -0.30 0.55 -0.55 1.25 -0.55 0.80 0 1.25 0.30 1.25 0.75 0 0.75 1.40 0.95 5.65 0.75 2.20 -0.10 2.40 0.65 0.50 1.70 -1 0.55 -1.15 0.75 -0.50 0.80 0.70 0 0.80 0.25 0.55 1.40 -0.40 1.70 -0.25 1.55 -2.05 1.90 -1.35 0.25 -1.60 0.15 -1.80 -0.85 -0.20 -1.15 -0.20 -1.15 -0.30 -0.10 -0.05 0.80 -0.30 1.05 -0.80 0.85 -0.45 -0.20 -0.75 0 -0.75 0.45 0 0.45 0.40 0.90 0.90 1 0.45 0.15 0 0.25 -1 0.30 -1.85 0.05 -1.90 0.10 -1.90 2.05 0 1.45 -0.20 2 -0.75 2 -0.40 0 -0.75 -0.40 -0.75 -0.85 -0.05 -0.85 -0.05 -0.85 -0.70 0 -1.10 1.40 -1.30 1 -1.30 -2.50z m2 -0.85 c0 -1.30 -0.30 -0.90 -0.70 0.95 -0.25 1.10 -0.20 1.30 0.20 0.75 0.25 -0.40 0.50 -1.20 0.50 -1.70z m2.70 -2 c-0.40 -1.05 -2.65 -1.35 -2.55 -0.30 0.05 0.50 0.55 0.85 1.45 0.90 1 0.10 1.30 -0.10 1.10 -0.60z m1.55 -3.80 c-0.15 -0.30 -1.05 -0.85 -1.90 -1.30 l-1.60 -0.85 1.20 1.35 c1.15 1.25 2.95 1.85 2.30 0.80z"/>
  <path d="M24.50 34.50 c0.50 -0.30 0.55 -0.50 0.15 -0.50 -0.90 0 -0.80 -2.25 0.10 -3 1.40 -1.15 2.50 1.05 1.15 2.40 -0.75 0.75 -0.15 0.80 1.20 0.05 0.85 -0.45 0.95 -0.40 0.80 0.40 -0.10 0.65 -0.70 0.95 -2.15 1.05 -1.50 0.10 -1.80 0 -1.25 -0.40z"/>
  <path d="M10 30.75 c0 -0.40 -0.20 -0.75 -0.50 -0.75 -0.25 0 -0.50 -0.50 -0.50 -1.05 0 -0.95 0.10 -1 0.85 -0.40 0.70 0.60 0.70 0.50 -0.10 -0.70 l-0.90 -1.45 1.45 0.20 c1.35 0.15 1.45 0.30 1.45 2.55 0.05 1.95 -0.10 2.35 -0.85 2.35 -0.50 0 -0.90 -0.35 -0.90 -0.75z"/>
  <path d="M12.25 30.95 c-0.20 -0.30 -0.25 -0.65 -0.10 -0.80 0.35 -0.35 1.35 0.30 1.35 0.90 0 0.60 -0.85 0.60 -1.25 -0.10z"/>
  <path d="M11.65 24.25 c0 -1.10 0.10 -1.50 0.20 -0.85 0.10 0.60 0.10 1.50 0 2 -0.15 0.45 -0.25 -0.05 -0.20 -1.15z"/>
  <path d="M13.55 25.30 c-0.40 -0.50 -0.40 -1.05 -0.05 -2 0.65 -1.75 1.50 -1.20 1.50 1 0 1.80 -0.50 2.15 -1.45 1z"/>
  <path d="M15.65 23.55 c-0.30 -0.90 -0.35 -1.55 -0.10 -1.55 0.60 0 1.10 1.20 0.85 2.25 -0.10 0.60 -0.35 0.35 -0.75 -0.70z"/>
  <path d="M22.50 20.50 l0 -2 2.50 0 c2.15 0 2.50 -0.15 2.50 -0.95 0 -0.70 0.40 -1.05 1.40 -1.15 1.05 -0.10 1.40 -0.45 1.50 -1.50 0.15 -1.10 0 -1.35 -0.60 -1.10 -0.55 0.20 -0.80 0 -0.80 -0.75 0 -0.85 0.30 -1.05 1.75 -1.05 1.60 0 1.75 0.10 1.50 1.15 -0.15 0.60 -0.35 1.60 -0.40 2.25 0 0.60 -0.20 1.10 -0.40 1.10 -0.15 0 -0.45 1.35 -0.65 3 l-0.35 3 -3.95 0 -4 0 0 -2z"/>
  <path d="M11.35 21.65 c-0.20 -0.15 -0.35 -0.80 -0.30 -1.35 0 -0.95 0.05 -0.95 0.50 0.15 0.50 1.20 0.40 1.80 -0.20 1.20z"/>
  <path d="M13.30 20.25 c-1.25 -1.20 -1.80 -3.25 -0.80 -3.25 0.65 0 2.50 1.85 2.50 2.45 0 0.25 0.15 0.80 0.30 1.25 0.45 1.15 -0.45 0.95 -2 -0.45z"/>
  <path d="M23.10 15.55 c0.05 -1.70 -0.45 -2.70 -1.20 -2.25 -0.90 0.55 0.65 -1.95 2.50 -4.05 2.55 -2.90 3.10 -3.10 3.10 -1.25 0 1.35 -0.15 1.50 -1.50 1.50 -1.25 0 -1.50 0.20 -1.50 1.25 0 0.70 0.25 1.25 0.50 1.25 0.30 0 0.50 0.35 0.50 0.75 0 0.40 0.20 0.75 0.50 0.75 0.25 0 0.45 0.80 0.35 1.75 -0.10 1.60 -0.25 1.75 -1.70 1.75 -1.40 0 -1.60 -0.15 -1.55 -1.45z m2.90 -0.45 c0 -0.55 -1.10 -1.60 -1.60 -1.60 -0.25 0 -0.20 0.45 0.10 1 0.55 1 1.50 1.40 1.50 0.60z"/>
  <path d="M7.80 13.25 c-0.25 -1.20 -0.10 -2.30 0.50 -3.50 0.80 -1.75 2.15 -3.15 1.60 -1.65 -0.20 0.40 -0.10 1.05 0.15 1.45 0.35 0.55 0.45 0.45 0.45 -0.40 0 -0.60 0.20 -1.25 0.50 -1.40 0.30 -0.20 0.45 1.05 0.40 3.45 -0.15 4.10 -1.10 5.25 -1.70 2.05 -0.45 -2.60 -1.35 -2.85 -1.10 -0.30 0.20 2.50 -0.35 2.75 -0.80 0.30z"/>
  <path d="M20 12.55 c0 -0.60 0.15 -1.05 0.40 -1.05 0.20 0 0.60 -0.60 0.95 -1.30 0.60 -1.30 0.60 -1.30 -0.35 -0.45 -0.95 0.85 -0.95 0.85 -0.90 -0.95 0.05 -1 0.20 -1.60 0.40 -1.25 0.30 0.40 0.45 0.40 0.70 0 0.20 -0.30 0.80 -0.55 1.35 -0.55 1.50 0 1.15 1.70 -0.80 4.30 -1.35 1.80 -1.75 2.05 -1.75 1.25z"/>
  <path d="M24 7 c0 -0.70 0.35 -1 1.10 -1 1 0 1.05 0.05 0.15 1 -0.50 0.55 -1 1 -1.10 1 -0.05 0 -0.15 -0.45 -0.15 -1z"/>
  <path d="M30.10 5.90 c-0.35 -0.35 -0.60 -1.15 -0.60 -1.85 l0.05 -1.30 1.20 1.40 c0.70 0.75 1.25 1.60 1.25 1.90 0 0.65 -1.20 0.55 -1.90 -0.15z"/>
 </g>
 <g fill="#283440">
  <path d="M0.50 39.25 c0 -0.45 0.45 -0.75 1.25 -0.75 0.80 0 1.25 0.30 1.25 0.75 0 0.45 -0.45 0.75 -1.25 0.75 -0.80 0 -1.25 -0.30 -1.25 -0.75z"/>
  <path d="M3.50 39 c-0.30 -0.60 -1.20 -1.15 -2 -1.30 l-1.45 -0.30 0 -4.95 c0 -2.70 0.25 -5.05 0.50 -5.20 0.25 -0.20 0.45 -0.55 0.45 -0.80 0 -0.30 -0.20 -0.35 -0.50 -0.20 -0.85 0.50 -0.55 -0.15 0.65 -1.55 1.15 -1.35 3.25 -2.75 2.65 -1.75 -0.20 0.30 -0.15 0.55 0.10 0.55 0.30 0 0.60 -0.35 0.80 -0.75 0.15 -0.40 0.05 -0.75 -0.20 -0.75 -0.30 0 -0.50 -0.30 -0.50 -0.70 0 -0.95 2.55 -2.95 3.05 -2.45 0.20 0.20 0.50 2 0.60 4 0.15 1.95 0.40 3.85 0.60 4.15 0.20 0.30 0.05 0.85 -0.25 1.25 -0.40 0.45 -0.45 1.45 -0.25 2.80 l0.35 2.10 -1.60 -0.30 c-1.40 -0.30 -1.55 -0.20 -1.40 0.75 0.20 1.25 1.40 1.85 1.40 0.70 0 -0.45 0.30 -0.80 0.70 -0.80 0.80 0 1.55 2.65 1.05 3.50 -0.20 0.30 -0.05 0.85 0.25 1.25 0.70 0.85 0.25 1.75 -0.95 1.75 -0.60 0 -1.05 -0.70 -1.55 -2.50 -0.50 -1.85 -0.90 -2.50 -1.60 -2.50 -0.95 0 -1.60 -1.10 -2.10 -3.60 -0.20 -0.80 -0.50 -1.40 -0.75 -1.40 -0.30 0 -0.30 0.60 -0.05 1.45 0.20 0.80 0.30 1.60 0.15 1.75 -0.45 0.45 1.25 2.70 2.25 3 0.90 0.30 2.10 2.20 2.10 3.30 0 0.90 -1.95 0.50 -2.50 -0.50z m2.30 -12.75 c-0.55 -0.40 -1.35 -0.75 -1.75 -0.75 -0.45 0.05 -0.10 0.35 0.70 0.75 1.95 0.90 2.20 0.90 1.05 0z"/>
  <path d="M9.80 38.90 c-0.65 -3.20 -0.75 -5.40 -0.30 -5.40 0.25 0 0.50 0.85 0.55 1.90 l0.05 1.85 0.45 -1.50 c0.25 -0.80 0.35 -2.35 0.15 -3.35 -0.35 -2.20 0.20 -6 0.80 -5.65 0.25 0.15 0.35 1.65 0.30 3.40 -0.10 1.70 -0.20 4.60 -0.25 6.50 -0.05 2.60 -0.20 3.35 -0.80 3.35 -0.40 0 -0.85 -0.50 -0.95 -1.10z"/>
  <path d="M12.20 38.80 c-0.15 -0.70 -0.10 -1.75 0.10 -2.40 0.40 -1.20 0.35 -4 -0.15 -5.60 -0.20 -0.70 -0.05 -0.90 0.55 -0.65 0.60 0.25 0.80 0 0.80 -0.85 0 -0.70 -0.30 -1.30 -0.60 -1.45 -0.35 -0.10 -0.50 -0.40 -0.25 -0.65 0.20 -0.20 0.75 0 1.25 0.45 0.70 0.75 0.85 1.85 0.85 6.60 0 5.60 -0.05 5.75 -1.10 5.75 -0.80 0 -1.25 -0.40 -1.45 -1.20z"/>
  <path d="M15.90 38.75 c-0.15 -0.70 -0.05 -1.25 0.15 -1.25 0.25 0 0.45 0.55 0.45 1.25 0 0.70 -0.10 1.25 -0.20 1.25 -0.10 0 -0.30 -0.55 -0.40 -1.25z"/>
  <path d="M17.05 37.65 c0 -1.80 0.15 -2.15 0.45 -1.40 0.60 1.40 0.60 3.75 0 3.75 -0.25 0 -0.50 -1.05 -0.45 -2.35z"/>
  <path d="M18.50 35.10 c0 -2.70 0.15 -5.05 0.30 -5.25 0.45 -0.45 1.70 0.20 1.70 0.90 0 0.35 0.85 0.75 1.90 0.95 2.75 0.45 3.10 0.40 3.10 -0.55 0 -0.65 0.15 -0.70 0.60 -0.25 0.50 0.50 0.50 0.85 0 1.65 -0.90 1.45 -0.45 1.65 1.35 0.70 1.55 -0.75 2.20 -2.10 0.80 -1.60 -0.40 0.20 -0.85 0.10 -1 -0.20 -0.50 -0.80 1.15 -1.10 2.85 -0.50 1.70 0.60 1.60 0.45 -0.75 -1.30 -0.80 -0.65 -1.15 -1.20 -0.85 -1.40 0.25 -0.15 0.50 -0.70 0.50 -1.20 0 -0.50 0.35 -1.20 0.75 -1.55 1 -0.80 2.40 0.35 3.55 3 0.45 1.05 1.45 2.25 2.20 2.70 1.75 1 4 3.60 4 4.60 0 0.45 -0.55 0.70 -1.50 0.70 -1.30 0 -1.50 0.15 -1.50 1.45 0 1.80 -0.65 2.05 -5.05 2.05 -2.75 0 -3.45 -0.15 -3.45 -0.75 0 -0.45 -0.50 -0.75 -1.30 -0.75 -0.85 0 -1.40 -0.30 -1.55 -1 -0.15 -0.55 -0.70 -1 -1.20 -1 -0.55 0 -0.95 -0.20 -0.95 -0.50 0 -0.25 -0.45 -0.50 -1 -0.50 -0.55 0 -1 0.25 -1 0.50 0 0.30 0.45 0.50 1 0.50 0.80 0 1 0.35 1 1.75 0 1.75 0 1.75 -2.25 1.75 l-2.25 0 0 -4.90z m16.30 1.05 c-0.90 -1.65 -1.05 -1.30 -0.30 0.65 0.30 0.75 0.65 1.20 0.80 1.05 0.15 -0.15 -0.05 -0.90 -0.50 -1.70z"/>
  <path d="M37 38.75 c0 -1.05 0.25 -1.25 1.50 -1.25 1.25 0 1.50 0.20 1.50 1.25 0 1.05 -0.25 1.25 -1.50 1.25 -1.25 0 -1.50 -0.20 -1.50 -1.25z"/>
  <path d="M15.50 32.65 c0 -0.90 0.25 -1.65 0.50 -1.65 0.65 0 0.65 1.50 0 2.50 -0.35 0.55 -0.50 0.35 -0.50 -0.85z"/>
  <path d="M17 30.85 c0 -1.80 0.20 -2.35 0.75 -2.35 0.65 0 0.75 0.35 0.45 1.90 -0.50 2.85 -1.20 3.10 -1.20 0.45z"/>
  <path d="M9.10 27.85 c0 -1.55 0.20 -2.70 0.45 -2.55 0.50 0.30 0.45 3.90 -0.10 4.75 -0.20 0.35 -0.35 -0.65 -0.35 -2.20z"/>
  <path d="M15.90 28.50 c-0.35 -1.20 -0.15 -1.90 0.40 -1.40 0.15 0.20 0.20 0.85 0.10 1.50 l-0.15 1.15 -0.35 -1.25z"/>
  <path d="M26.45 28.15 c0.20 -0.75 0.65 -1.45 1.05 -1.55 0.45 -0.15 0.55 0 0.25 0.70 -0.20 0.55 -0.40 1.25 -0.40 1.60 0 0.30 -0.30 0.60 -0.65 0.60 -0.40 0 -0.50 -0.40 -0.25 -1.35z"/>
  <path d="M27.50 25.05 c0 -0.25 0.35 -0.60 0.80 -0.75 1.20 -0.45 1.40 -0.35 0.70 0.45 -0.70 0.85 -1.50 1 -1.50 0.30z"/>
  <path d="M8.90 22.50 c-0.35 -1.20 -0.15 -1.90 0.40 -1.40 0.15 0.20 0.20 0.85 0.10 1.50 l-0.15 1.15 -0.35 -1.25z"/>
  <path d="M8.15 19.15 c-0.75 -0.30 -0.85 -2.15 -0.15 -2.15 0.60 0 1.20 1.25 0.90 1.90 -0.05 0.25 -0.45 0.35 -0.75 0.25z"/>
  <path d="M20.35 15 c0.15 -0.55 0.35 -1 0.40 -1 0.05 0 0.25 0.45 0.40 1 0.15 0.60 0 1 -0.40 1 -0.40 0 -0.55 -0.40 -0.40 -1z"/>
  <path d="M23.20 15.60 c0.15 -0.25 -0.05 -1 -0.45 -1.75 l-0.70 -1.35 2 0 c1.70 0 1.95 0.15 1.95 1.10 0 0.85 -0.15 0.95 -0.60 0.50 -0.35 -0.35 -0.95 -0.60 -1.35 -0.55 -0.55 0 -0.60 0.10 -0.15 0.30 0.30 0.10 0.60 0.55 0.60 0.90 0 0.35 0.40 0.80 0.90 0.90 0.45 0.15 0.10 0.25 -0.80 0.30 -0.90 0 -1.55 -0.15 -1.40 -0.35z"/>
  <path d="M19 13.90 c0 -0.90 0.25 -1.40 0.75 -1.40 0.95 0 0.95 0.55 0 1.80 -0.70 0.90 -0.70 0.90 -0.75 -0.40z"/>
 </g>
 <g fill="#7e1a08">
  <path d="M9.80 39.15 c-0.60 -2.25 -0.85 -6.65 -0.35 -6.65 0.35 0 0.35 -0.40 0.10 -1.15 -0.25 -0.60 -0.45 -2.30 -0.45 -3.70 l0 -2.60 1.40 1.05 c1.35 0.95 1.40 1.25 1.30 4.10 -0.10 1.65 -0.20 4.55 -0.25 6.45 -0.05 2.55 -0.20 3.35 -0.75 3.35 -0.40 0 -0.85 -0.40 -1 -0.85z"/>
  <path d="M15.95 39.15 c-0.35 -4.05 -0.30 -7.95 0.15 -8.20 0.35 -0.25 0.30 -0.90 -0.10 -2.15 -0.45 -1.40 -0.45 -2 0 -2.55 0.40 -0.50 0.35 -1.10 -0.20 -2.50 -0.75 -1.75 -0.75 -1.80 0.20 -1.50 0.95 0.30 0.95 0.25 0.15 -1.60 -0.55 -1.25 -0.80 -3 -0.70 -5 0.10 -2.90 0.05 -3.15 -0.90 -3.15 -0.90 0 -1.05 -0.30 -1.05 -2.45 0 -1.40 0.20 -2.65 0.50 -2.80 0.25 -0.15 0.75 -0.75 1.05 -1.35 0.40 -0.70 0.40 -0.90 0 -0.70 -1.20 0.75 0.15 -1.05 1.85 -2.45 1.65 -1.40 2.10 -1.50 5.55 -1.50 4 0.05 7.35 1.15 7.95 2.65 0.15 0.45 0.70 1.20 1.20 1.70 0.55 0.55 0.90 1.60 0.85 2.80 -0.05 1.80 -0.05 1.85 -0.45 0.40 -0.60 -1.95 -2.45 -3.80 -3.80 -3.80 -1.35 0 -4.85 3.75 -8.05 8.60 -1.80 2.70 -2.10 3.55 -1.70 4.25 0.45 0.80 0.50 0.80 0.55 -0.20 0 -1.45 1.80 -3.40 2.15 -2.40 0.15 0.35 0.05 0.85 -0.20 1.10 -0.25 0.25 -0.30 1.60 -0.10 3.05 0.20 1.90 0.55 2.65 1.20 2.85 0.65 0.20 0.95 0.80 0.95 1.75 l0 1.45 -1.75 -1 c-1.95 -1.20 -2.35 -0.85 -0.60 0.60 0.60 0.50 0.80 0.90 0.50 0.95 -0.35 0 -0.65 0.60 -0.65 1.30 0 1.05 -0.20 1.25 -0.95 1.05 -0.80 -0.20 -1 0.20 -1.45 2.30 -0.25 1.40 -0.40 4.05 -0.30 5.95 0.15 3.10 0.10 3.40 -0.80 3.40 -0.60 0 -1.05 -0.35 -1.05 -0.85z m5.70 -29.75 l0.95 -1.65 -1.05 1.25 c-0.60 0.70 -1.35 1.70 -1.65 2.25 -0.45 0.85 -0.45 0.90 0.15 0.40 0.40 -0.30 1.10 -1.30 1.60 -2.25z m-0.90 -4.40 l1.45 -1.75 -1.65 1.50 c-0.90 0.85 -1.95 2.20 -2.35 3 l-0.70 1.50 0.85 -1.25 c0.50 -0.65 1.55 -2 2.40 -3z m1.55 1.15 c1.80 -2.30 1.80 -2.35 0.25 -0.90 -1.50 1.40 -2.85 3.25 -2.40 3.25 0.15 0 1.10 -1.05 2.15 -2.35z"/>
  <path d="M18.95 39.65 c-0.10 -0.40 -0.15 -0.90 -0.45 -4.65 -0.20 -2.25 0.50 -5.55 1.05 -5.20 0.25 0.15 0.35 0.45 0.20 0.70 -0.15 0.25 -0.30 2.45 -0.30 4.95 0 2.50 -0.15 4.55 -0.25 4.55 -0.10 0 -0.25 -0.15 -0.25 -0.35z"/>
  <path d="M14.15 37.25 c0 -1.35 0.10 -1.90 0.20 -1.10 0.10 0.75 0.10 1.85 0 2.50 -0.10 0.60 -0.20 0 -0.20 -1.40z"/>
  <path d="M7.50 33.90 c0 -1.40 0.10 -2.45 0.20 -2.35 0.40 0.45 0.65 4.95 0.25 4.95 -0.25 0 -0.45 -1.15 -0.45 -2.60z"/>
  <path d="M12.60 34 c0 -0.40 0.20 -1.30 0.40 -2 0.30 -1 0.40 -1.05 0.40 -0.25 0 0.55 -0.15 1.45 -0.40 2 -0.25 0.60 -0.40 0.70 -0.40 0.25z"/>
  <path d="M14.05 30 c0.05 -2.10 0.05 -2.15 0.50 -0.90 0.35 0.90 0.35 1.65 0 2.25 -0.40 0.70 -0.50 0.45 -0.50 -1.35z"/>
  <path d="M26 27.50 c0 -0.70 0.35 -1 1.05 -1 0.75 0 0.95 0.20 0.75 0.80 -0.15 0.45 -0.30 0.90 -0.30 1 0 0.10 -0.35 0.20 -0.75 0.20 -0.40 0 -0.75 -0.45 -0.75 -1z"/>
  <path d="M10.65 25.60 c-0.50 -0.35 -2.15 -3.60 -2.15 -4.30 0 -0.10 0.35 -0.55 0.75 -0.95 0.65 -0.65 0.60 -0.80 -0.45 -1.05 -1.10 -0.25 -1.80 -2.05 -1.80 -4.90 0 -1.45 1.45 -1.05 1.80 0.50 0.20 0.75 0.65 1.60 1 1.90 1.05 0.85 2.20 4.55 2.20 7 0 2.20 -0.25 2.50 -1.35 1.80z"/>
  <path d="M26 25.55 c0 -0.30 0.25 -0.55 0.50 -0.55 0.30 0 0.50 -0.45 0.50 -1 0 -0.80 0.35 -1 1.75 -1 1.65 0 1.75 -0.10 1.75 -1.75 0 -1.55 0.15 -1.75 1.25 -1.75 1.80 0 1.55 0.75 -1.10 3.50 -2.35 2.35 -4.65 3.65 -4.65 2.55z"/>
  <path d="M13.40 20.05 c-1.40 -1.30 -1.55 -1.60 -0.90 -2.05 0.40 -0.25 0.95 -0.50 1.15 -0.50 0.50 0 2 3.50 1.70 3.85 -0.15 0.10 -1 -0.45 -1.95 -1.30z"/>
  <path d="M25.65 20.15 c-0.90 -0.15 -1.15 -0.70 -1.45 -2.55 -0.20 -1.30 -0.50 -2.45 -0.65 -2.60 -0.15 -0.15 -0.60 -0.75 -0.95 -1.40 -0.60 -1.05 -0.50 -1.35 0.65 -2.90 1.55 -2 1.95 -2.15 1.65 -0.45 -0.20 0.95 -0.05 1.25 0.65 1.25 0.70 0 0.95 0.35 0.95 1.25 0 0.70 0.25 1.25 0.50 1.25 0.30 0 0.50 0.55 0.50 1.25 0 1 0.25 1.25 1.30 1.25 1.15 0 1.25 0.15 1.10 1.90 -0.15 1.65 -0.30 1.85 -1.65 1.90 -0.80 0.05 -2 0 -2.60 -0.15z m0.15 -5.40 c-1.05 -1.55 -2.65 -1.80 -1.70 -0.25 0.35 0.55 0.90 1 1.25 1 0.35 0 0.65 0.25 0.65 0.60 0 0.30 0.15 0.40 0.30 0.25 0.20 -0.20 -0.05 -0.90 -0.50 -1.60z"/>
  <path d="M30.65 14.50 c0.15 -0.55 0.05 -1 -0.15 -1 -0.25 0 -0.30 -1.10 -0.15 -2.50 l0.30 -2.50 -1.70 -0.05 c-0.95 -0.05 -2.10 -0.05 -2.55 0 -1.15 0.15 -0.75 -1 0.60 -1.85 1.55 -0.95 2.90 0.05 4.30 3.20 0.95 2.15 1.10 2.95 0.70 3.75 -0.30 0.55 -0.40 1.20 -0.25 1.45 0.15 0.30 -0.05 0.50 -0.55 0.50 -0.55 0 -0.75 -0.30 -0.55 -1z"/>
  <path d="M7.50 12.20 c0 -1.40 2.05 -5.05 3.85 -6.75 l1.65 -1.65 0 1.75 c0 1 -0.50 2.45 -1.25 3.55 -0.70 1 -1.25 2.10 -1.25 2.35 0 0.30 -0.20 0.55 -0.50 0.55 -0.25 0 -0.50 -0.20 -0.50 -0.50 0 -0.25 -0.20 -0.50 -0.50 -0.50 -0.25 0 -0.50 0.45 -0.50 1 0 0.55 -0.20 1 -0.50 1 -0.25 0 -0.50 -0.35 -0.50 -0.80z m3.25 -5.10 c-0.40 -0.40 -1.30 1.95 -0.95 2.50 0.25 0.40 0.55 0.05 0.80 -0.85 0.20 -0.80 0.30 -1.55 0.15 -1.65z"/>
 </g>
 <g fill="#602f16">
  <path d="M23 31.95 c0 -0.70 0.25 -0.95 0.70 -0.80 0.35 0.15 0.95 0 1.25 -0.30 0.40 -0.40 0.70 -0.40 1.10 0 0.95 0.95 0.10 2.15 -1.55 2.15 -1.20 0 -1.50 -0.20 -1.50 -1.05z"/>
  <path d="M24.15 29.65 c2.10 -0.35 1.60 -0.95 -1.15 -1.50 -1.65 -0.35 -2.50 -0.35 -2.65 0 -0.10 0.30 -0.55 0.40 -1.05 0.20 -0.45 -0.20 -0.75 -0.55 -0.60 -0.80 0.15 -0.20 0.30 -1.55 0.35 -3 0.10 -2.05 0.25 -2.55 1 -2.55 0.45 0 0.95 0.25 1.05 0.55 0.25 0.80 3.80 1.40 6.60 1.10 l2.55 -0.30 -1.15 1.10 c-0.60 0.60 -1.95 1.25 -3 1.45 l-1.85 0.30 1.75 0.30 c1 0.15 1.70 0.55 1.65 0.90 -0.10 0.35 -0.20 0.90 -0.25 1.25 -0.15 0.70 -1.65 1.25 -3.40 1.25 -1.15 -0.05 -1.15 -0.05 0.15 -0.25z m-2.15 -4.90 c-1.65 -1.20 -2.50 -1.55 -2.50 -0.95 0 0.60 2.30 2.15 3.20 2.20 0.80 0 0.65 -0.25 -0.70 -1.25z"/>
  <path d="M17 28.70 c0 -0.70 0.15 -0.70 0.75 -0.20 0.40 0.35 0.75 0.70 0.75 0.80 0 0.10 -0.35 0.20 -0.75 0.20 -0.40 0 -0.75 -0.35 -0.75 -0.80z"/>
  <path d="M17.05 26.65 c-1.10 -2.15 -1.95 -4.65 -1.55 -4.65 0.65 0 2.40 2.60 2.75 4.15 0.40 1.55 -0.45 1.85 -1.20 0.50z"/>
  <path d="M13.85 25.70 c-0.55 -0.55 -0.40 -3.20 0.15 -3.20 0.30 0 0.65 0.35 0.85 0.80 0.35 0.90 -0.45 2.90 -1 2.40z"/>
  <path d="M17.20 22.45 c-0.30 -0.40 -1.10 -1.95 -1.80 -3.45 -0.70 -1.50 -2 -3.55 -2.90 -4.50 -1.55 -1.65 -1.65 -1.55 -0.65 0.90 0.20 0.40 0 0.50 -0.60 0.25 -0.80 -0.30 -0.85 -0.10 -0.55 1.40 1.05 5.30 1.05 5.45 -0.40 5.45 -0.95 0 -1.30 -0.25 -1.30 -0.95 0 -0.55 0.25 -1.15 0.55 -1.30 0.30 -0.20 0.05 -0.75 -0.70 -1.40 -0.70 -0.65 -1.35 -1.90 -1.50 -2.95 -0.30 -2 0.40 -5.40 1.15 -5.40 0.25 0 0.35 -0.35 0.20 -0.75 -0.35 -0.85 0.35 -1 1.15 -0.20 0.40 0.40 0.65 0 0.90 -1.50 0.40 -2.50 1.65 -4.15 4.10 -5.40 2.30 -1.20 6.65 -1.95 6.65 -1.20 0 0.30 -0.25 0.55 -0.55 0.55 -0.30 0 -1.40 0.90 -2.50 2 -2 2.05 -3.45 4.70 -3.45 6.35 0.05 0.85 0.05 0.85 0.55 0.05 0.95 -1.70 1.45 -0.85 1.45 2.50 0 1.90 0.25 4.70 0.55 6.30 0.55 3.20 0.45 4.30 -0.35 3.25z m-7.20 -7.90 c0 -1.25 -0.70 -3.55 -1.05 -3.55 -0.50 0 -0.60 3.15 -0.10 3.65 0.45 0.50 1.15 0.45 1.15 -0.10z m3.30 -4.90 c-0.55 -0.55 -0.95 0.30 -0.55 1.20 0.40 0.85 0.40 0.85 0.60 0 0.15 -0.50 0.10 -1.05 -0.05 -1.20z"/>
  <path d="M26 21.75 c0 -0.40 0.40 -0.75 0.90 -0.75 0.70 0 0.75 -0.10 0.10 -0.50 -0.40 -0.25 -1.50 -0.50 -2.35 -0.50 -1.55 0 -1.65 -0.10 -1.65 -1.75 0 -1.30 0.20 -1.75 0.85 -1.75 0.75 0 0.75 -0.10 -0.05 -0.95 -0.45 -0.50 -0.90 -1.70 -0.95 -2.60 -0.10 -1.45 0.10 -1.75 1.10 -1.85 0.65 -0.10 1.35 0.05 1.50 0.35 0.50 0.80 3.55 1.30 3.55 0.60 0 -0.85 2.85 -0.65 3.15 0.20 0.20 0.40 0.10 0.85 -0.20 1.05 -0.60 0.35 -0.25 3.10 0.50 3.85 0.95 0.95 0.65 2.35 -0.45 2.35 -0.55 0 -1 -0.30 -1 -0.70 0 -1.30 -3.20 -1.85 -3.65 -0.60 -0.25 0.60 0.05 0.65 1.45 0.45 1.65 -0.30 1.70 -0.25 1.70 1.50 0 1.90 -0.60 2.35 -3.05 2.35 -0.95 0 -1.45 -0.25 -1.45 -0.75z m0.50 -5.55 c0 -0.75 -1.80 -3.20 -2.35 -3.20 -0.90 0 -0.80 0.55 0.50 2.10 1.05 1.30 1.85 1.75 1.85 1.10z m4.10 -1.45 c0.30 -1.40 0 -1.55 -1.35 -0.60 -0.50 0.40 -0.75 0.95 -0.55 1.25 0.60 1 1.65 0.65 1.90 -0.65z"/>
  <path d="M13.45 20.10 c-1.65 -1.50 -1.80 -3.40 -0.20 -2.80 0.75 0.30 2.45 3.65 2.05 4.05 -0.10 0.15 -0.95 -0.45 -1.85 -1.25z"/>
  <path d="M19 17.25 c0 -0.40 0.45 -1.20 1 -1.75 l1 -1 0 1.75 c0 1.40 -0.20 1.75 -1 1.75 -0.55 0 -1 -0.35 -1 -0.75z"/>
  <path d="M25.55 8.05 c0.35 -0.50 1 -1.15 1.50 -1.50 0.85 -0.50 0.95 -0.40 0.95 0.95 0 1.35 -0.15 1.50 -1.50 1.50 -1.35 0 -1.45 -0.10 -0.95 -0.95z"/>
  <path d="M24.50 6.60 c0 -0.70 0.30 -1.10 0.80 -1.10 0.70 0 0.75 0.15 0.15 0.90 -0.35 0.45 -0.75 0.95 -0.80 1.05 -0.10 0.10 -0.15 -0.25 -0.15 -0.85z"/>
  <path d="M18.10 5.40 c0.90 -1.35 1.15 -1.45 1.30 -0.75 0.20 1.05 -0.75 2.35 -1.75 2.35 -0.55 0 -0.45 -0.40 0.45 -1.60z"/>
  <path d="M28.75 4.50 c-1.05 -1.15 -2.20 -1.40 -1.25 -0.25 0.55 0.65 0.40 0.75 -0.95 0.75 -1.20 0 -1.55 -0.20 -1.55 -1 0 -0.55 -0.25 -1 -0.55 -1 -0.25 0 -0.35 -0.25 -0.15 -0.60 0.25 -0.40 0.10 -0.45 -0.45 -0.25 -0.55 0.20 -0.85 0.05 -0.85 -0.40 0 -0.40 0.45 -0.75 1 -0.75 0.55 0 1 0.25 1 0.50 0 0.30 0.70 0.50 1.50 0.50 1.70 0 3.80 1.20 4.55 2.55 0.70 1.35 -1.10 1.30 -2.30 -0.05z"/>
 </g>
 <g fill="#7a4e03">
  <path d="M9 21.70 c0 -0.95 0.20 -1.25 0.75 -1 1.25 0.45 0.85 -0.45 -0.80 -1.90 -1.50 -1.35 -1.50 -1.45 -1.15 -4.70 0.45 -4.35 0.70 -4.55 0.70 -0.60 0 2.70 0.10 3.05 0.75 2.50 0.60 -0.50 0.80 -0.50 0.95 0.05 1.70 5.90 1.70 6.95 0.05 6.95 -1 0 -1.25 -0.25 -1.25 -1.30z"/>
  <path d="M14.50 16.75 c-0.60 -0.95 -1.30 -1.75 -1.55 -1.75 -0.25 0 -0.75 -0.60 -1.05 -1.35 l-0.60 -1.40 -0.20 1.40 c-0.10 0.75 -0.40 1.35 -0.65 1.35 -0.70 0 -0.75 -4.45 0 -5 0.20 -0.15 0.40 -0.70 0.40 -1.30 0.15 -2.55 1.55 -4.55 3.95 -5.80 2.70 -1.40 7.20 -2.30 7.20 -1.45 0 0.30 -0.35 0.55 -0.75 0.55 -1.20 0 -4.35 3.10 -5.30 5.25 -0.50 1.10 -0.90 2.70 -0.90 3.50 0.05 1.30 0.10 1.35 0.35 0.40 0.65 -2.05 1.45 -0.45 1.75 3.50 0.30 3.55 0.25 3.85 -0.60 3.85 -0.55 0 -1.45 -0.75 -2.05 -1.75z m0.45 -10.55 c0.60 -1 1 -1.95 0.85 -2.05 -0.25 -0.25 -2.30 2.85 -2.30 3.50 0 0.75 0.40 0.30 1.45 -1.45z"/>
  <path d="M23.35 15.15 c-0.20 -0.15 -0.35 -0.65 -0.35 -1.05 0 -0.60 0.15 -0.60 0.75 -0.10 0.40 0.35 0.75 0.80 0.75 1.05 0 0.55 -0.70 0.60 -1.15 0.10z"/>
  <path d="M23.25 12.50 c-0.90 -0.40 -0.85 -0.45 0.40 -0.45 0.75 -0.05 1.35 0.20 1.35 0.45 0 0.60 -0.40 0.60 -1.75 0z"/>
  <path d="M18 5.50 c1.40 -1.95 2 -2.30 2 -1.10 0 1.05 -0.65 1.75 -2.15 2.25 -0.80 0.30 -0.80 0.20 0.15 -1.15z"/>
  <path d="M24.85 5.15 c-0.20 -0.15 -0.35 -1 -0.35 -1.85 0 -1.55 0.05 -1.55 2 -1.40 1.60 0.15 2 0.40 2 1.15 0 0.85 -0.15 0.90 -1.10 0.40 -1.10 -0.60 -1.15 -0.55 -0.25 0.40 0.80 0.95 0.80 1.05 0.10 1.35 -1.05 0.40 -2 0.40 -2.40 -0.05z"/>
 </g>
 <g fill="#73432a">
  <path d="M23.50 31.70 c0 -0.40 0.25 -0.60 0.55 -0.40 0.30 0.15 0.75 0.05 0.95 -0.30 0.45 -0.75 1.50 -0.20 1.50 0.80 0 0.45 -0.55 0.70 -1.50 0.70 -1.05 0 -1.50 -0.25 -1.50 -0.80z"/>
  <path d="M20.50 30.50 c0 -0.25 0.35 -0.50 0.75 -0.50 0.40 0 0.75 0.25 0.75 0.50 0 0.30 -0.35 0.50 -0.75 0.50 -0.40 0 -0.75 -0.20 -0.75 -0.50z"/>
  <path d="M22.15 29.65 c-0.65 -0.10 -1.15 -0.45 -1.15 -0.70 0 -0.25 -0.45 -0.45 -1 -0.45 -0.80 0 -1 -0.35 -1 -1.70 0 -2 0.60 -2.60 1.50 -1.55 0.65 0.80 5.70 2 6.50 1.50 0.60 -0.35 0.65 1.25 0.10 2.15 -0.50 0.70 -3.25 1.15 -4.95 0.75z"/>
  <path d="M17.55 25.90 c0 -1.40 0.10 -1.50 0.45 -0.65 0.60 1.40 0.60 2.25 0 2.25 -0.25 0 -0.50 -0.75 -0.45 -1.60z"/>
  <path d="M13.50 24.65 c0 -0.50 0.25 -1.25 0.50 -1.65 0.35 -0.55 0.50 -0.35 0.50 0.90 0 0.85 -0.20 1.60 -0.50 1.60 -0.25 0 -0.50 -0.40 -0.50 -0.85z"/>
  <path d="M21.25 24.25 c-1.40 -0.85 -1.70 -1.25 -1.05 -1.25 0.55 0 1.35 0.35 1.80 0.75 0.45 0.40 1.70 0.95 2.80 1.20 l1.95 0.45 -1.75 0.05 c-1.05 0 -2.55 -0.50 -3.75 -1.20z"/>
  <path d="M22 20.75 c0 -1.60 0.10 -1.75 1.65 -1.85 4.55 -0.25 4.90 -0.20 4.70 0.60 -0.10 0.55 -0.65 0.70 -2.25 0.60 -1.25 -0.10 -2.10 0.05 -2.10 0.35 0 0.30 1 0.55 2.25 0.55 2.95 0 2.90 0.80 -0.05 1.20 -4.05 0.55 -4.20 0.50 -4.20 -1.45z"/>
  <path d="M19.20 19.80 c-0.50 -1.35 0.05 -3.55 0.95 -3.70 0.70 -0.15 0.85 0.20 0.85 2.10 0 1.75 -0.20 2.30 -0.75 2.30 -0.45 0 -0.90 -0.30 -1.05 -0.70z"/>
  <path d="M12.60 19.40 c-0.85 -0.85 -0.75 -2 0.20 -1.80 0.45 0.10 1.15 0.65 1.60 1.30 0.65 1 0.65 1.10 -0.25 1.10 -0.50 0 -1.20 -0.25 -1.55 -0.60z"/>
  <path d="M7.80 17.70 c-0.45 -1.20 -0.35 -2.70 0.20 -2.70 0.30 0 0.55 0.35 0.55 0.75 0.15 1.40 0.20 1.65 0.60 2.05 0.20 0.20 0.35 0.10 0.35 -0.20 0 -0.35 0.25 -0.60 0.50 -0.60 0.30 0 0.50 0.35 0.50 0.75 0 1 -2.30 1 -2.70 -0.05z"/>
  <path d="M14.60 17 c-0.95 -1.55 -0.65 -2.35 0.40 -1.05 0.55 0.65 1 1.35 1 1.60 0 0.80 -0.75 0.50 -1.40 -0.55z"/>
  <path d="M15.35 15.05 c-1.10 -1.90 -1.10 -2.05 0.40 -2.05 1.10 0 1.25 0.20 1.25 1.75 0 2.15 -0.50 2.20 -1.65 0.30z"/>
  <path d="M28.05 13.15 l-0.05 -2.65 1.80 0 c1.35 0 1.85 0.25 2.05 1 0.35 1.35 0.25 1.75 -0.50 1.80 -1.55 0.20 -2.80 0.85 -3 1.65 -0.15 0.45 -0.25 -0.40 -0.30 -1.80z"/>
  <path d="M30.50 14.75 c0 -0.40 0.25 -0.75 0.50 -0.75 0.30 0 0.50 0.35 0.50 0.75 0 0.40 -0.20 0.75 -0.50 0.75 -0.25 0 -0.50 -0.35 -0.50 -0.75z"/>
  <path d="M24.15 13 c-0.90 -0.40 -1.65 -0.90 -1.65 -1.10 0 -0.20 0.55 -1 1.25 -1.75 1.15 -1.35 1.20 -1.35 1.25 -0.30 0 0.60 0.25 1.15 0.55 1.25 0.30 0.10 0.45 0.75 0.35 1.40 -0.15 1.20 -0.20 1.25 -1.75 0.50z"/>
  <path d="M21.50 10.40 c0 -0.45 0.25 -1 0.55 -1.15 0.85 -0.55 0.90 -0.10 0.15 0.95 -0.60 0.85 -0.70 0.85 -0.70 0.20z"/>
  <path d="M28.50 8 c0 -1.10 0.20 -1.40 0.75 -1.20 0.70 0.30 1.75 1.75 1.75 2.40 0 0.15 -0.55 0.30 -1.25 0.30 -1.05 0 -1.25 -0.25 -1.25 -1.50z"/>
  <path d="M31.10 7 c-0.50 -0.85 -0.50 -1 0.15 -1 0.40 0 0.75 0.45 0.75 1 0 0.55 -0.05 1 -0.15 1 -0.05 0 -0.40 -0.45 -0.75 -1z"/>
 </g>
 <g fill="#9b3518">
  <path d="M15.90 35.90 c-0.10 -2.30 -0.15 -4.25 -0.05 -4.35 0.50 -0.70 1.40 1.35 1.70 4 0.40 3.35 0.20 4.45 -0.80 4.45 -0.45 0 -0.70 -1.20 -0.85 -4.10z"/>
  <path d="M18.95 39.65 c-0.10 -0.40 -0.15 -0.90 -0.45 -4.65 -0.20 -2.40 0.50 -5.70 1.10 -5.10 0.30 0.30 0.25 1.20 -0.05 2.45 -0.30 1.10 -0.40 3.25 -0.25 4.85 0.20 1.55 0.20 2.80 0 2.80 -0.15 0 -0.35 -0.15 -0.35 -0.35z"/>
  <path d="M9.95 38.75 c-0.25 -2.70 -0.40 -3.65 -0.70 -4.60 -0.30 -0.90 -0.15 -1.15 0.45 -1.15 0.50 0 0.70 -0.25 0.55 -0.50 -0.20 -0.30 -0.50 -1.20 -0.75 -2.05 -0.40 -1.35 -0.35 -1.45 0.55 -1.20 1 0.35 1 0.30 0 -1.55 -1.20 -2.25 -0.95 -2.85 0.55 -1.30 0.80 0.80 1.10 1.75 1.15 3.85 0.05 1.50 -0.05 2.75 -0.20 2.75 -0.20 0 -0.30 1.45 -0.20 3.25 0.15 2.65 0 3.25 -0.60 3.25 -0.40 0 -0.80 -0.35 -0.80 -0.75z"/>
  <path d="M12.35 37.85 c-0.15 -0.40 -0.05 -1 0.20 -1.40 0.30 -0.50 0.45 -0.35 0.45 0.70 0 1.45 -0.25 1.75 -0.65 0.70z"/>
  <path d="M7.85 36.15 c-0.20 -0.15 -0.30 -1.35 -0.30 -2.60 l0.10 -2.30 0.35 2.50 c0.40 2.65 0.35 2.95 -0.15 2.40z"/>
  <path d="M12.55 33.90 c0.05 -0.35 0.25 -1.20 0.45 -1.90 0.35 -1.10 0.40 -1.05 0.45 0.65 0.05 1 -0.15 1.85 -0.45 1.85 -0.25 0 -0.50 -0.30 -0.45 -0.60z"/>
  <path d="M14 31.15 c0 -0.60 0.25 -1.25 0.50 -1.40 0.65 -0.40 0.65 0.75 0 1.75 -0.40 0.60 -0.50 0.55 -0.50 -0.35z"/>
  <path d="M16.55 30.15 c-0.65 -2.35 -0.70 -3.65 -0.05 -3.65 0.25 0 0.15 -0.95 -0.30 -2.10 -0.40 -1.10 -0.60 -2.15 -0.50 -2.25 0.35 -0.35 2.20 2.60 2.60 4.10 0.30 1.20 0.20 1.35 -0.50 1.10 -1 -0.40 -1.05 0.05 -0.10 1.10 0.75 0.80 0.55 3.55 -0.25 3.55 -0.20 0 -0.65 -0.85 -0.90 -1.85z"/>
  <path d="M19 27.40 c0 -0.65 0.25 -1.50 0.50 -1.90 0.35 -0.55 0.50 -0.25 0.50 1.15 0 1 -0.20 1.85 -0.50 1.85 -0.25 0 -0.50 -0.50 -0.50 -1.10z"/>
  <path d="M10 24.40 c-1.05 -1.75 -1.35 -3.90 -0.50 -3.90 0.30 0 0.50 0.25 0.50 0.50 0 0.30 0.25 0.50 0.55 0.50 0.25 0 0.10 -0.65 -0.40 -1.50 -0.45 -0.80 -1.15 -1.50 -1.45 -1.50 -0.35 0 -0.75 -0.35 -0.90 -0.80 -0.45 -1.25 -0.35 -5.85 0.20 -6.70 0.35 -0.50 0.50 0.35 0.50 2.85 0 1.95 0.25 3.75 0.50 3.90 0.30 0.15 0.50 0.05 0.50 -0.20 0 -0.30 0.20 -0.55 0.40 -0.55 0.55 0 1.40 3 1.85 6.40 0.40 3.05 -0.25 3.45 -1.75 1z"/>
  <path d="M28.50 23 c0 -1.40 0.15 -1.50 1.85 -1.50 l1.85 0 -1.45 1.50 c-0.80 0.85 -1.60 1.50 -1.85 1.50 -0.20 0 -0.40 -0.65 -0.40 -1.50z"/>
  <path d="M17.15 22.40 c-1.05 -1.45 -2.15 -5.10 -1.60 -5.45 0.30 -0.20 0.40 -0.80 0.20 -1.40 -0.20 -0.60 -0.10 -1.05 0.20 -1.05 0.30 0 0.55 -0.20 0.55 -0.50 0 -0.25 -0.30 -0.50 -0.70 -0.50 -0.55 0 -0.55 -0.50 -0.20 -2.55 0.55 -3.10 2.45 -6.10 4.85 -7.75 2.20 -1.50 1.05 -1.60 -1.30 -0.10 -2 1.20 -4.15 5.20 -4.15 7.80 0 0.85 -0.25 1.60 -0.55 1.60 -1.05 0 -0.15 -4.45 1.40 -6.90 1.80 -2.95 4.20 -4.60 6.70 -4.60 1.05 0 2.05 0.25 2.20 0.50 0.15 0.30 1.05 0.50 1.90 0.50 1.65 0 4.35 1.85 4.35 2.95 0 0.35 0.35 0.95 0.75 1.35 0.40 0.45 0.75 1.35 0.70 2.10 l0 1.35 -0.50 -1.25 c-0.95 -2.35 -5.95 -6.85 -5.95 -5.35 0 0.40 0.50 0.90 1.15 1.05 l1.10 0.30 -1.10 0.65 c-1.20 0.65 -3.90 3.70 -6.90 7.75 -1.85 2.50 -2 2.60 -2.15 1.40 -0.20 -1.55 0.75 -3.40 3.95 -7.55 1.40 -1.85 2.15 -3.10 1.60 -2.85 -1.90 1.05 -4.95 5.30 -6.05 8.50 -0.55 1.65 -0.25 8.25 0.40 7.85 0.15 -0.10 0.20 0.45 0.10 1.30 -0.25 1.65 -0.30 1.70 -0.95 0.85z m2.35 -9.35 c0 -0.25 1 -1.85 2.25 -3.60 2.20 -3.10 2.20 -3.10 0.35 -1.05 -2.30 2.55 -3.85 5.10 -3.15 5.10 0.30 0 0.55 -0.20 0.55 -0.45z m2.75 -8.95 c1.30 -1.15 2.15 -2.10 1.85 -2.10 -0.80 0 -5.60 4.50 -6.35 6.05 -1.30 2.45 -0.80 2.75 0.65 0.40 0.80 -1.20 2.50 -3.15 3.85 -4.35z"/>
  <path d="M19.20 21.10 c0.05 -1.15 0.25 -2.20 0.45 -2.40 0.50 -0.55 0.40 2.95 -0.10 3.75 -0.30 0.50 -0.45 0.05 -0.35 -1.35z"/>
  <path d="M12.85 19.60 c-1 -1.05 -1.10 -2.10 -0.30 -2.10 0.65 0 2.45 1.90 2.45 2.60 0 0.75 -1.30 0.45 -2.15 -0.50z"/>
  <path d="M19.85 15.80 c0.50 -0.65 0.95 -1.15 1.05 -1.05 0.35 0.30 -0.95 2.25 -1.45 2.25 -0.25 0 -0.10 -0.55 0.40 -1.20z"/>
  <path d="M29.80 11.90 c-0.50 -2 -0.35 -4 0.30 -3.80 0.75 0.25 2.60 4.90 1.95 4.90 -0.25 0 -0.60 -0.30 -0.70 -0.60 -0.20 -0.50 -0.30 -0.50 -0.30 0 -0.10 1 -0.90 0.65 -1.25 -0.50z"/>
  <path d="M25.05 8.70 c1.15 -1.25 1.75 -1.25 1.30 -0.05 -0.15 0.40 -0.75 0.85 -1.35 1 l-1.10 0.30 1.15 -1.25z"/>
 </g>
 <g fill="#434e5c">
  <path d="M0 37.65 c0 -1.70 0.15 -2.20 0.65 -2 0.50 0.20 0.65 -0.10 0.45 -0.95 -0.10 -0.65 -0.40 -1.05 -0.65 -0.90 -0.25 0.15 -0.45 0 -0.45 -0.25 0 -0.95 1.40 -0.60 1.75 0.45 0.15 0.55 0.90 1.45 1.65 2.05 1.30 1 2.55 2.75 2.60 3.60 0 0.20 -1.35 0.30 -3 0.30 l-3 -0.10 0 -2.20z"/>
  <path d="M6 37.50 c-0.50 -1.80 -0.95 -2.50 -1.55 -2.50 -0.65 0 -1.05 -0.60 -1.45 -2.10 -0.85 -3.30 -0.90 -3.40 -2 -3.40 -1.20 0 -1.35 -1.25 -0.25 -2.30 0.40 -0.45 0.75 -1.30 0.75 -1.95 0 -1.40 0.80 -2.05 2.40 -1.80 0.60 0.05 1.10 -0.15 1.10 -0.45 0 -0.30 0.55 -0.25 1.50 0.25 1.45 0.75 2 1.75 0.95 1.75 -0.25 0 -0.35 0.25 -0.15 0.55 0.20 0.30 0.40 2.30 0.50 4.40 0.05 2.10 0.25 5.20 0.40 6.95 0.25 2.75 0.20 3.10 -0.60 3.10 -0.70 0 -1.10 -0.65 -1.60 -2.50z m0.25 -11 c-0.50 -0.55 -1.40 -1 -1.95 -1 -0.85 0.05 -0.70 0.25 0.70 0.95 2.30 1.20 2.30 1.20 1.25 0.05z"/>
  <path d="M10.80 39.20 c-0.40 -1.05 -0.30 -3.25 0.20 -4.45 0.25 -0.70 0.40 0 0.40 2.15 -0.05 3.30 -0.10 3.55 -0.60 2.30z"/>
  <path d="M12.70 38.55 c-0.35 -0.90 -0.40 -1.70 -0.10 -2.25 0.25 -0.50 0.35 -1.20 0.20 -1.65 -0.20 -0.40 0.05 -2.15 0.55 -3.80 0.70 -2.65 0.90 -2.85 1.25 -1.85 0.25 0.75 0.25 1.70 -0.10 2.50 -0.35 0.85 -0.40 2.50 -0.10 4.90 0.35 3.15 0.30 3.60 -0.40 3.60 -0.40 0 -1 -0.65 -1.30 -1.45z"/>
  <path d="M17.15 38.25 c0 -1.10 0.10 -1.50 0.20 -0.85 0.10 0.60 0.10 1.50 0 2 -0.15 0.45 -0.25 -0.05 -0.20 -1.15z"/>
  <path d="M18.80 39.25 c-0.15 -0.45 -0.05 -1.30 0.25 -1.85 0.30 -0.60 0.35 -0.90 0.05 -0.70 -0.70 0.45 -0.95 -3.20 -0.35 -5.25 0.45 -1.45 0.70 -1.70 1.90 -1.55 0.75 0.10 1.35 0.40 1.35 0.65 0 0.25 0.30 0.45 0.70 0.45 0.75 0 1.30 1.05 1.30 2.40 0 1.05 3.30 3.80 3.75 3.10 0.15 -0.30 0.05 -0.50 -0.25 -0.50 -0.35 0 -0.50 -0.35 -0.30 -0.75 0.15 -0.50 -0.05 -0.75 -0.60 -0.80 -0.50 0 -0.25 -0.30 0.80 -0.80 0.90 -0.50 1.60 -1.20 1.60 -1.75 0 -1.25 0.65 -1.15 2.40 0.35 0.85 0.70 1.75 1.25 2.05 1.25 0.30 0 0.55 0.65 0.55 1.45 0 1.70 0.45 3.05 1 3.05 0.20 0 0.25 -1.15 0.10 -2.55 -0.15 -1.85 -0.10 -2.50 0.35 -2.25 0.30 0.20 0.55 0.10 0.55 -0.15 0 -0.30 -0.15 -0.55 -0.40 -0.55 -0.20 0 -0.65 -0.45 -1 -1 -0.60 -1 -0.60 -1.05 0.85 -0.30 2.30 1.20 4.55 4.25 4.55 6.15 0 1.15 -0.25 1.65 -0.75 1.65 -0.40 0 -0.75 0.25 -0.75 0.50 0 0.70 -5.65 0.50 -6.10 -0.20 -0.30 -0.40 -0.50 -0.40 -0.75 0 -0.25 0.40 -2.50 0.60 -6.45 0.65 -5.15 0.05 -6.15 -0.05 -6.40 -0.70z m4.70 -3.25 c0 -0.25 -0.50 -0.50 -1.10 -0.50 -0.95 0 -1 0.10 -0.40 0.50 0.95 0.65 1.50 0.65 1.50 0z m-1.75 -2.50 c-0.15 -0.25 -0.65 -0.50 -1.05 -0.50 -0.40 0 -0.60 0.25 -0.45 0.50 0.15 0.30 0.65 0.50 1.05 0.50 0.40 0 0.60 -0.20 0.45 -0.50z"/>
  <path d="M24.50 33.05 c0 -0.25 0.35 -0.60 0.80 -0.75 1.20 -0.45 1.40 -0.35 0.70 0.45 -0.70 0.85 -1.50 1 -1.50 0.30z"/>
  <path d="M30.75 30.65 c-1.35 -1.25 -2.25 -2.15 -1.90 -1.95 0.70 0.40 1.35 -0.50 0.65 -0.95 -0.70 -0.40 0.30 -2.25 1.25 -2.25 0.80 0 2.85 3.15 3.05 4.70 0.05 0.55 0.25 1.45 0.45 1.95 0.65 1.55 -0.90 0.90 -3.50 -1.50z"/>
  <path d="M17 30.90 c0 -0.35 0.25 -1 0.50 -1.40 0.40 -0.60 0.50 -0.45 0.50 0.65 0 0.75 -0.20 1.35 -0.50 1.35 -0.25 0 -0.50 -0.30 -0.50 -0.60z"/>
  <path d="M22.75 29.50 c-0.15 -0.25 -0.60 -0.35 -0.95 -0.20 -0.35 0.15 -0.80 -0.05 -0.95 -0.45 -0.20 -0.50 0.15 -0.60 1.20 -0.45 0.80 0.10 1.45 0.50 1.45 0.90 0 0.80 -0.30 0.90 -0.75 0.20z"/>
  <path d="M5.65 22.25 c-1.90 -0.80 -2 -1.25 -0.75 -2.40 1.25 -1.15 2.65 -1.15 1.50 -0.05 -0.75 0.80 -0.75 0.90 0.25 1.75 1.50 1.15 0.95 1.50 -1 0.70z"/>
  <path d="M19.80 15.90 c0.80 -1.10 1 -1.15 1.50 -0.50 0.70 0.95 2.30 0.45 1.90 -0.65 -0.15 -0.40 -0.10 -0.75 0.15 -0.75 0.50 0 2.30 2 2.05 2.25 -0.10 0.10 -1.60 0.35 -3.35 0.55 l-3.20 0.35 0.95 -1.25z"/>
  <path d="M30.30 15.65 c0.55 -2.30 1.15 -2.25 1.40 0.05 0.15 1 -0.05 1.30 -0.80 1.30 -0.75 0 -0.85 -0.25 -0.60 -1.35z"/>
 </g>
 <g fill="#844533">
  <path d="M16.50 33.65 c0 -1.10 0.10 -1.25 0.50 -0.65 0.65 1 0.65 2 0 2 -0.25 0 -0.50 -0.60 -0.50 -1.35z"/>
  <path d="M18.35 34.05 c-0.25 -1.05 0.45 -2.55 1.25 -2.55 0.30 0 0.30 0.30 -0.10 0.75 -0.50 0.60 -0.50 0.95 -0.10 1.35 0.80 0.80 0.75 1.40 -0.10 1.40 -0.35 0 -0.80 -0.40 -0.95 -0.95z"/>
  <path d="M10 30.25 c0 -0.40 0.25 -0.75 0.50 -0.75 0.35 0 0.35 -0.30 0 -1 -0.40 -0.80 -0.40 -1 0.15 -1 0.80 0 1.25 1.25 0.95 2.65 -0.20 1.05 -1.60 1.15 -1.60 0.10z"/>
  <path d="M22.65 28.65 c-0.65 -0.10 -1.15 -0.55 -1.15 -1 0 -0.40 -0.50 -1.20 -1.10 -1.70 l-1.15 -1 1.40 0.85 c0.85 0.55 2.50 0.90 4.15 0.90 2.75 0.05 2.90 0.15 2.40 1.50 -0.30 0.80 -2 0.95 -4.55 0.45z"/>
  <path d="M21.25 24.25 l-2 -1.25 0 -3.30 c0 -3.40 0.55 -4.55 2 -4 0.50 0.15 0.75 0.95 0.75 2.25 0 2.90 0.80 4.55 2.50 5.20 0.85 0.30 1.50 0.85 1.50 1.20 0 0.35 0.30 0.65 0.70 0.65 0.40 0 0.80 -0.80 1 -2 0.15 -1.10 0.55 -2 0.80 -2 0.30 0 0.50 -0.20 0.50 -0.45 0 -0.25 -1.35 -0.40 -3 -0.35 -3.35 0.10 -3.25 0.25 -2.70 -3.85 l0.30 -2.25 1.15 1.20 c1.45 1.55 1.95 1.50 1.65 -0.05 -0.25 -1.05 -0.10 -1.25 0.65 -1 0.80 0.25 0.95 0.05 0.95 -1.45 0 -1.70 0.10 -1.80 1.75 -1.80 1.65 0 3.20 1.40 2.40 2.20 -0.60 0.60 -1.10 0.30 -0.80 -0.55 0.25 -0.60 0.05 -0.55 -0.75 0.25 -0.60 0.60 -1.30 1.10 -1.60 1.10 -0.25 0 -0.50 0.45 -0.50 1 0 0.75 0.35 1 1.25 1 1 0 1.25 0.25 1.25 1.25 0 0.90 0.25 1.25 1 1.25 1.75 0 1.15 1.90 -1.50 4.50 -2.30 2.30 -2.70 2.50 -4.90 2.50 -1.60 -0.05 -3 -0.40 -4.35 -1.25z"/>
  <path d="M9.50 21.75 c0 -0.50 0.30 -0.60 0.85 -0.40 0.85 0.35 0.85 0.30 0 -1 -0.70 -1.10 -0.75 -1.35 -0.15 -1.35 1 0 1.50 1.90 0.80 2.75 -0.80 0.95 -1.50 0.95 -1.50 0z"/>
  <path d="M15.50 13.65 c0.05 -3.05 2 -8.15 3.05 -8.15 0.30 0 0.10 0.75 -0.45 1.65 -0.55 0.85 -1.15 2.40 -1.30 3.35 -0.30 1.65 -0.25 1.60 0.95 -0.70 1.25 -2.50 2.75 -4.45 3.10 -4.10 0.10 0.10 -0.45 1.30 -1.25 2.60 -0.85 1.35 -1.80 3.40 -2.15 4.60 -0.70 2.40 -1.95 2.85 -1.95 0.75z"/>
  <path d="M19.05 11.50 c1 -2.05 2.50 -4 3.10 -4 0.40 0 0.40 0.15 -0.05 0.60 -0.85 0.85 -0.75 1.65 0.15 0.90 1.10 -0.90 0.90 -0.10 -0.30 1.40 -1 1.25 -1.05 1.25 -0.75 0.25 0.25 -0.70 0.15 -1.15 -0.15 -1.15 -0.30 0 -0.55 0.15 -0.55 0.40 0 0.20 -0.50 0.90 -1.05 1.60 l-1 1.25 0.60 -1.25z"/>
  <path d="M22.50 12.10 c0 -0.50 1.10 -1.60 1.60 -1.60 0.20 0 0.40 0.45 0.40 1 0 0.65 -0.35 1 -1 1 -0.55 0 -1 -0.20 -1 -0.40z"/>
  <path d="M23 5.50 c0.55 -0.80 1.25 -1.60 1.50 -1.75 0.85 -0.50 0.50 0.95 -0.45 2.15 -1.40 1.65 -2.30 1.35 -1.05 -0.40z"/>
  <path d="M21.50 5.15 c0 -0.65 1.45 -1.90 1.75 -1.55 0.15 0.15 -0.20 0.65 -0.75 1.15 -0.55 0.50 -1 0.65 -1 0.40z"/>
  <path d="M27.25 3 c-0.85 -0.95 -0.85 -1 0.05 -1 0.95 0.05 2.70 1.10 2.70 1.70 0 0.70 -1.90 0.25 -2.75 -0.70z"/>
 </g>
 <g fill="#885234">
  <path d="M22.50 32.20 c0 -1.10 0.15 -1.25 1.10 -1.05 0.60 0.20 1.40 0.05 1.75 -0.25 0.45 -0.35 0.70 -0.30 0.95 0.30 0.45 1.20 -0.70 2.30 -2.35 2.30 -1.25 0 -1.45 -0.20 -1.45 -1.30z"/>
  <path d="M19.50 30.50 c0 -0.25 0.45 -0.50 0.95 -0.50 0.55 0 1.15 0.25 1.30 0.50 0.20 0.30 -0.25 0.50 -0.95 0.50 -0.70 0 -1.30 -0.20 -1.30 -0.50z"/>
  <path d="M23.05 29.55 c-0.40 -0.25 -1 -0.35 -1.30 -0.25 -0.35 0.15 -0.75 -0.10 -0.90 -0.50 -0.20 -0.45 -0.65 -0.65 -1.10 -0.50 -0.50 0.20 -0.75 0 -0.75 -0.70 0 -2.30 0.40 -2.50 2.55 -1.45 1.10 0.55 2.90 1 4 1 1.80 0 1.95 0.10 1.65 1.05 -0.40 1.35 -0.30 1.25 -2 1.55 -0.80 0.15 -1.75 0.05 -2.15 -0.20z"/>
  <path d="M17.50 26.75 c0 -0.40 -0.20 -0.75 -0.40 -0.75 -0.45 0 -1.70 -3.55 -1.35 -3.90 0.40 -0.40 2.25 3.15 2.25 4.30 0 0.60 -0.10 1.10 -0.25 1.10 -0.15 0 -0.25 -0.35 -0.25 -0.75z"/>
  <path d="M26 24.50 c0 -0.80 0.35 -1 1.85 -1 1.75 0 1.80 0 0.90 1 -0.50 0.55 -1.30 1 -1.85 1 -0.55 0 -0.90 -0.35 -0.90 -1z"/>
  <path d="M9.50 22.25 c0 -0.90 0.20 -1.15 0.75 -0.95 1.20 0.50 0.85 -0.50 -0.75 -2.15 -1.50 -1.50 -1.50 -1.50 -0.35 -1.50 0.90 0 1.35 0.40 1.80 1.70 0.45 1.25 0.50 1.90 0.10 2.30 -0.35 0.35 -0.35 0.70 0 1.20 0.45 0.50 0.35 0.65 -0.50 0.65 -0.80 0 -1.05 -0.30 -1.05 -1.25z"/>
  <path d="M15.70 19.15 c-1.90 -4.40 -1.95 -4.60 -0.75 -3.20 1.35 1.50 1.40 0.30 0.05 -1.70 -1.05 -1.55 -1.40 -5.25 -0.50 -5.25 0.30 0 0.50 0.30 0.45 0.65 -0.05 0.30 0 1.30 0.05 2.10 0.10 1.40 0.15 1.35 0.70 -0.65 0.60 -2.30 1.45 -2.40 1.05 -0.15 -0.15 0.70 -0.10 1 0.05 0.70 0.55 -1.20 1.20 -0.65 0.70 0.60 -0.55 1.45 -0.55 6.55 0 8 0.25 0.60 0.25 1.35 0.05 1.70 -0.25 0.35 -0.95 -0.70 -1.85 -2.80z"/>
  <path d="M25.65 22.15 c-2.80 -0.15 -3.65 -0.35 -3.65 -0.90 0 -0.40 -0.35 -0.75 -0.75 -0.75 -0.40 0 -0.75 -0.30 -0.75 -0.70 0 -0.40 -0.20 -0.80 -0.45 -0.90 -0.20 -0.05 -0.55 -0.65 -0.75 -1.25 -0.25 -0.80 -0.10 -1.25 0.70 -1.65 1.30 -0.70 2 -0.25 2 1.30 0 1.95 0.85 1.35 1.20 -0.85 0.30 -2.05 0.35 -2.05 1.30 -1.20 1.05 0.95 1.35 2.75 0.50 2.75 -0.25 0 -0.50 0.20 -0.50 0.45 0 0.25 1.30 0.40 2.90 0.30 3.55 -0.25 5.10 0.10 5.10 1.20 -0.05 1.25 -1.25 2.55 -2.30 2.45 -0.50 -0.05 -2.60 -0.20 -4.55 -0.25z m3.35 -1.55 c0 -0.60 -4.90 -0.70 -5.25 -0.10 -0.20 0.30 0.75 0.50 2.45 0.50 1.55 0 2.80 -0.20 2.80 -0.40z"/>
  <path d="M13.10 19.85 c-1.20 -1.25 -1.45 -2.35 -0.55 -2.35 0.70 0 2.40 2.05 2.45 2.90 0 0.95 -0.70 0.75 -1.90 -0.55z"/>
  <path d="M26.40 16.45 c0.15 -1.10 -0.10 -1.85 -0.95 -2.75 l-1.10 -1.20 1.55 0 c1.25 0 1.60 -0.20 1.60 -1 0 -0.85 0.35 -1 1.95 -1 1.55 0 2.05 0.20 2.30 1.05 0.20 0.55 0.20 1.15 0.05 1.30 -0.15 0.20 -0.30 0 -0.30 -0.40 0 -0.60 -0.10 -0.55 -0.50 0.05 -0.45 0.65 -0.55 0.65 -1.05 0 -0.45 -0.65 -0.50 -0.60 -0.25 0.10 0.15 0.55 -0.10 1.10 -0.70 1.40 -0.55 0.30 -1 0.85 -1 1.25 0 0.40 -0.20 0.75 -0.50 0.75 -0.25 0 -0.50 0.45 -0.50 1 0 0.55 -0.20 1 -0.40 1 -0.25 0 -0.35 -0.70 -0.20 -1.55z"/>
  <path d="M30.50 15 c0 -0.55 0.25 -1 0.50 -1 0.30 0 0.50 0.45 0.50 1 0 0.55 -0.20 1 -0.50 1 -0.25 0 -0.50 -0.45 -0.50 -1z"/>
  <path d="M23.40 10.60 c0.60 -0.80 1.40 -1.75 1.85 -2.10 0.75 -0.60 0.80 -0.50 0.65 1.30 -0.15 1.80 -0.25 1.95 -1.85 2.10 l-1.65 0.15 1 -1.45z"/>
  <path d="M22 9.65 c0 -0.65 1.45 -1.90 1.75 -1.55 0.15 0.15 -0.20 0.65 -0.75 1.15 -0.55 0.50 -1 0.65 -1 0.40z"/>
  <path d="M15.25 6.45 c1.10 -2.10 2.75 -3.90 4.40 -4.75 1.95 -1.05 1.65 -0.15 -0.40 1.25 -0.95 0.65 -2.25 2.05 -2.85 3.10 -1.30 2.30 -2.30 2.65 -1.15 0.40z"/>
  <path d="M17.10 7 c0.70 -1.10 1.20 -0.95 0.75 0.25 -0.20 0.40 -0.55 0.75 -0.85 0.75 -0.30 0 -0.30 -0.35 0.10 -1z"/>
  <path d="M23.50 5 c1.30 -1.80 2.15 -2.35 2.40 -1.60 0.10 0.35 0.55 0.60 1 0.60 0.60 0 0.50 0.25 -0.40 1.25 -1.45 1.55 -2.25 1.60 -1.45 0.15 l0.60 -1.15 -1.25 1.15 c-1.70 1.55 -2.15 1.35 -0.90 -0.40z"/>
  <path d="M22 4.50 c0 -0.25 0.50 -0.75 1.15 -1.05 1.10 -0.60 1.10 -0.60 0.15 0.50 -1.05 1.15 -1.30 1.30 -1.30 0.55z"/>
  <path d="M28.90 4.30 c-0.95 -0.70 -1.20 -1.80 -0.50 -1.80 0.55 0 2.60 1.75 2.60 2.20 0 0.50 -1.20 0.30 -2.10 -0.40z"/>
 </g>
 <g fill="#ac6714">
  <path d="M16.30 24.20 c-0.50 -1.90 0 -2.05 0.95 -0.25 0.65 1.30 0.65 1.55 0.05 1.55 -0.35 0 -0.85 -0.60 -1 -1.30z"/>
  <path d="M13.35 20.10 c-0.50 -0.50 -0.85 -1.35 -0.85 -1.90 0.05 -0.80 0.20 -0.75 1.25 0.45 1.25 1.45 1.60 2.35 0.85 2.35 -0.25 0 -0.80 -0.40 -1.25 -0.90z"/>
  <path d="M9.15 18.70 c-1.65 -1.80 -2.05 -2.70 -1.20 -2.70 0.25 0 0.55 0.50 0.75 1.15 0.25 0.90 0.40 0.95 0.75 0.35 0.55 -0.85 0.65 -0.80 1.40 1.40 0.70 2.05 0.30 2 -1.70 -0.20z"/>
  <path d="M15.25 18.15 c-1.45 -3.45 -1.45 -3.55 0 -1.90 1.30 1.45 1.30 1.45 1 0.25 -0.20 -0.70 -0.80 -1.85 -1.30 -2.60 -1.25 -1.75 -1.20 -4.10 0.25 -7.15 1.20 -2.65 3.80 -5.25 5.20 -5.25 0.50 0 0.10 0.50 -1 1.25 -3.05 2.10 -5.20 6.45 -4.45 9.10 0.40 1.35 0.40 1.35 0.75 -0.60 0.20 -1.10 0.70 -2.75 1.15 -3.65 0.95 -1.85 4.55 -5.35 5.05 -4.85 0.20 0.15 -0.50 1.05 -1.50 1.90 -2.25 2 -3.40 3.85 -3.70 5.95 -0.15 0.90 -0.05 1.40 0.15 1.05 0.20 -0.30 0.40 1.55 0.40 4.15 0 2.80 -0.20 4.70 -0.50 4.70 -0.25 0 -0.95 -1.05 -1.50 -2.35z"/>
  <path d="M25.10 5.40 c0.45 -0.65 1.20 -1.25 1.70 -1.35 0.85 -0.15 0.80 0 -0.25 1.15 -1.50 1.60 -2.45 1.70 -1.45 0.20z"/>
  <path d="M23.50 5.65 c0 -0.90 1.90 -2.95 2.30 -2.50 0.20 0.20 -0.20 1 -0.95 1.75 -0.75 0.70 -1.35 1.10 -1.35 0.75z"/>
  <path d="M29.50 5.05 c-0.25 -0.55 -0.50 -1.25 -0.50 -1.50 0 -0.75 1.65 0.30 2.45 1.50 0.45 0.80 0.40 0.95 -0.45 0.95 -0.50 0 -1.20 -0.45 -1.50 -0.95z"/>
  <path d="M15 3.50 c0.30 -0.55 0.80 -1 1.10 -1 0.30 0 0.15 0.45 -0.35 1 -0.50 0.55 -1 1 -1.10 1 -0.10 0 0.05 -0.45 0.35 -1z"/>
  <path d="M27.30 3.05 c-0.95 -1.05 -0.60 -1.40 0.65 -0.60 0.35 0.25 0.60 0.70 0.45 1.05 -0.10 0.35 -0.50 0.20 -1.10 -0.45z"/>
 </g>
 <g fill="#c54c26">
  <path d="M10 37.90 c0.05 -1.20 -0.10 -2.75 -0.25 -3.50 -0.40 -1.50 0.25 -1.85 1.15 -0.75 0.80 0.95 0.60 6.35 -0.25 6.35 -0.50 0 -0.65 -0.60 -0.65 -2.10z"/>
  <path d="M16.35 39.65 c-0.20 -0.15 -0.35 -2.15 -0.35 -4.35 0.05 -3.65 0.10 -3.95 0.70 -2.85 0.35 0.65 0.70 2.60 0.70 4.35 0.05 2.95 -0.20 3.70 -1.05 2.85z"/>
  <path d="M18.55 34.20 c0.05 -1.05 0.25 -2.50 0.50 -3.20 0.25 -0.80 0.30 -0.20 0.10 1.75 -0.30 3.50 -0.65 4.30 -0.60 1.45z"/>
  <path d="M10.10 31.75 c-0.85 -1.85 -0.75 -2.80 0.20 -2.40 0.70 0.25 0.70 0.15 -0.05 -1.30 -0.90 -1.80 -0.70 -2.55 0.50 -1.55 0.50 0.45 0.75 1.55 0.75 3.55 0 3.15 -0.50 3.75 -1.40 1.70z"/>
  <path d="M16.50 29.45 c-0.30 -1.10 -0.45 -2.30 -0.35 -2.60 0.25 -0.80 1.85 2.30 1.85 3.65 0 1.75 -0.95 1.10 -1.50 -1.05z"/>
  <path d="M17.10 26.50 c-0.70 -1.20 -0.80 -2.50 -0.10 -2.50 0.55 0 1.20 2.15 0.90 3 -0.05 0.25 -0.45 0.05 -0.80 -0.50z"/>
  <path d="M10 24.55 c-0.25 -0.55 -0.50 -1.60 -0.50 -2.35 l0 -1.35 0.90 1.20 c1.30 1.65 1.70 3.45 0.80 3.45 -0.35 0 -0.90 -0.45 -1.20 -0.95z"/>
  <path d="M29.10 22.45 c0.10 -0.90 0.50 -1.75 0.90 -1.85 0.65 -0.25 0.65 -0.15 0 0.70 -0.70 0.90 -0.70 0.90 0.30 0.10 0.55 -0.50 1.30 -0.90 1.65 -0.90 0.80 0 -0.40 1.80 -1.95 2.85 -1.05 0.75 -1.05 0.70 -0.90 -0.90z"/>
  <path d="M10.55 20.30 c-0.40 -0.70 -0.60 -1.45 -0.40 -1.60 0.35 -0.35 1.45 1.70 1.25 2.35 -0.10 0.30 -0.50 -0.05 -0.85 -0.75z"/>
  <path d="M28.85 18.65 c0.40 -0.15 0.55 -0.70 0.35 -1.35 -0.20 -0.90 -0.05 -1.25 0.75 -1.45 0.90 -0.20 1.05 -0.05 1.05 1.45 0 1.55 -0.15 1.70 -1.35 1.65 -0.80 0 -1.10 -0.15 -0.80 -0.30z"/>
  <path d="M15.50 17.95 c0 -0.25 0.25 -0.35 0.60 -0.15 0.40 0.25 0.45 -0.10 0.25 -1.20 -0.20 -0.90 -0.15 -1.60 0.10 -1.60 0.55 0 0.90 1.45 0.65 2.65 -0.20 0.90 -1.60 1.20 -1.60 0.30z"/>
  <path d="M7.80 17.25 c-0.15 -0.45 -0.25 -1.90 -0.25 -3.15 l0.05 -2.35 0.45 2.95 c0.45 3 0.35 4.05 -0.25 2.55z"/>
  <path d="M27.50 16.75 c0 -0.70 0.25 -1.25 0.50 -1.25 0.30 0 0.50 0.55 0.50 1.25 0 0.70 -0.20 1.25 -0.50 1.25 -0.25 0 -0.50 -0.55 -0.50 -1.25z"/>
  <path d="M15.80 11.50 c0.30 -2.80 1 -4.35 2.90 -6.45 1.45 -1.60 4.60 -3.55 5.65 -3.50 0.70 0 0.65 0.10 -0.25 0.45 -1.75 0.75 -5.05 3.55 -6.05 5.25 -0.55 0.80 -1.10 2.30 -1.25 3.25 -0.35 1.60 -0.25 1.55 1.20 -1 1.65 -2.95 3.65 -5.30 5.25 -6.10 0.55 -0.30 0.05 0.45 -1.10 1.65 -1.15 1.20 -2.90 3.75 -3.90 5.60 -0.95 1.90 -1.75 3.15 -1.75 2.75 0 -0.50 -0.15 -0.45 -0.50 0.10 -0.35 0.50 -0.45 -0.10 -0.20 -2z"/>
  <path d="M19.60 10.60 c1.40 -2.50 5.45 -7.70 5.80 -7.35 0.30 0.30 -0.90 2.10 -3.25 4.80 -1.05 1.25 -2.30 2.80 -2.80 3.45 -0.50 0.70 -0.40 0.30 0.25 -0.90z"/>
  <path d="M20.80 11.25 c1.65 -2.75 3.75 -5.20 5.35 -6.35 1.10 -0.80 0.55 0.10 -1.85 2.85 -4.35 5.05 -4.65 5.35 -3.50 3.50z"/>
  <path d="M23.85 10.25 c0.75 -0.95 1.50 -1.50 1.60 -1.20 0.15 0.55 -1.85 2.95 -2.55 2.95 -0.25 0 0.20 -0.80 0.95 -1.75z"/>
  <path d="M30.50 9.75 c0 -0.45 -0.60 -1.35 -1.35 -2 -0.80 -0.65 -1.25 -1.30 -1.10 -1.45 0.40 -0.45 2.80 2.05 3.10 3.20 0.15 0.55 0.05 1 -0.20 1 -0.25 0 -0.45 -0.35 -0.45 -0.75z"/>
  <path d="M32 8.45 c0 -0.40 -1.15 -1.90 -2.55 -3.35 -1.65 -1.70 -2.25 -2.60 -1.75 -2.60 2 0 5.75 5.20 4.60 6.35 -0.15 0.20 -0.30 0 -0.30 -0.40z"/>
 </g>
 <g fill="#616974">
  <path d="M0 39.55 c0 -0.25 0.30 -0.60 0.65 -0.75 0.50 -0.25 0.50 -0.35 0 -0.60 -0.35 -0.15 -0.65 -0.75 -0.65 -1.30 0 -0.75 0.20 -0.90 1.15 -0.65 0.90 0.30 1 0.25 0.50 -0.30 -0.35 -0.35 -0.65 -1.05 -0.65 -1.55 0 -1.25 3.85 2.65 4.30 4.35 0.25 1.05 0.15 1.25 -0.70 1.25 -0.60 0 -1.15 -0.45 -1.35 -1 -0.15 -0.55 -0.50 -1 -0.65 -1 -0.20 0 -0.70 0.45 -1.10 1 -0.75 1.05 -1.50 1.30 -1.50 0.55z"/>
  <path d="M6.45 38.05 c-0.55 -1.30 -0.65 -2.15 -0.35 -2.45 0.35 -0.35 -0.05 -0.60 -1.05 -0.85 -1.20 -0.25 -1.65 -0.70 -1.95 -1.90 -0.25 -0.90 -0.40 -1.70 -0.30 -1.80 0.35 -0.40 1.20 0.60 1.20 1.50 0 0.70 0.35 0.95 1.20 0.95 0.70 0 1.35 -0.20 1.50 -0.45 0.55 -0.85 -1.70 -2.95 -3.50 -3.25 -1.25 -0.25 -1.70 -0.55 -1.50 -1.10 0.15 -0.40 0.05 -0.70 -0.20 -0.70 -0.30 0 -0.50 0.25 -0.50 0.50 0 0.30 -0.20 0.50 -0.50 0.50 -0.90 0 -0.50 -1.05 0.85 -2.20 1.25 -1.10 1.45 -1.15 3.10 -0.45 2.85 1.20 3.05 1.55 3.25 6.80 0.05 2.70 0.30 5 0.50 5.20 0.55 0.55 0.35 1.65 -0.30 1.65 -0.35 0 -1 -0.90 -1.45 -1.95z m-0.45 -9.55 c0 -0.25 -0.50 -0.50 -1.10 -0.50 -0.95 0 -1 0.10 -0.40 0.50 0.95 0.65 1.50 0.65 1.50 0z"/>
  <path d="M19.50 39.50 c0 -0.25 0.55 -0.50 1.25 -0.50 0.70 0 1.25 -0.20 1.25 -0.45 0 -0.75 -1.60 -1.10 -2.30 -0.50 -0.55 0.45 -0.70 0.40 -0.70 -0.25 0 -0.45 0.25 -0.80 0.50 -0.80 0.30 0 0.50 -0.35 0.50 -0.80 0 -0.50 -0.30 -0.70 -0.75 -0.50 -0.55 0.20 -0.75 -0.10 -0.75 -1.35 0 -2.65 0.50 -3.75 1.80 -4 0.70 -0.10 1.35 0 1.50 0.20 0.15 0.25 0.70 0.45 1.20 0.45 0.50 0 1.05 0.30 1.15 0.65 0.20 0.45 0.40 0.40 0.80 -0.15 0.45 -0.60 0.55 -0.50 0.55 0.65 0 0.85 -0.25 1.35 -0.75 1.35 -1.25 0 -0.85 0.85 1 2.30 1 0.75 1.70 1.65 1.55 2 -0.15 0.35 0.10 0.75 0.50 0.90 1.40 0.55 0.65 1.30 -1.35 1.30 -1.35 0 -2.30 -0.30 -2.70 -0.80 -0.50 -0.75 -0.65 -0.75 -1.35 0 -0.90 0.90 -2.90 1.10 -2.90 0.30z m3 -5.80 c0 -0.25 -2.60 -1.30 -3 -1.25 -0.15 0 -0.25 0.45 -0.30 0.95 -0.05 0.70 0.25 0.85 1.60 0.70 0.95 -0.10 1.70 -0.30 1.70 -0.40z"/>
  <path d="M28.85 38.75 c-0.50 -0.70 -0.75 -1.50 -0.55 -1.80 0.15 -0.30 0 -0.75 -0.35 -1 -0.55 -0.40 -0.50 -0.60 0.25 -1.20 0.70 -0.55 0.80 -0.75 0.25 -0.75 -0.50 -0.05 -0.40 -0.25 0.30 -0.80 0.55 -0.40 0.95 -1 0.90 -1.25 -0.25 -0.85 0.80 -0.45 2.15 0.80 0.75 0.70 1.50 1.25 1.70 1.25 0.20 0 0.35 0.70 0.35 1.50 0 1.55 1.35 3.50 1.95 2.85 0.20 -0.20 0.10 -0.90 -0.25 -1.55 -0.40 -0.70 -0.50 -1.65 -0.30 -2.30 0.35 -1.10 0.45 -1.05 2.55 1.25 1.20 1.30 2.20 2.45 2.20 2.55 0 0.10 -0.45 0.20 -1 0.20 -0.55 0 -1.15 0.35 -1.30 0.75 -0.35 0.90 -2.25 1 -3.10 0.15 -0.45 -0.45 -0.60 -0.45 -0.60 0 0 0.90 -1.40 0.70 -1.60 -0.25 -0.15 -0.80 -0.20 -0.80 -1 0 -1.10 1.10 -1.50 1.05 -2.55 -0.40z m2.15 -2 c-0.70 -0.80 -2 -1 -2 -0.30 0 0.50 0.85 0.95 1.95 1 0.55 0.05 0.55 -0.10 0.05 -0.70z"/>
  <path d="M13.35 37.10 c-0.30 -2.50 0.05 -6.50 0.60 -6.80 0.15 -0.10 0.30 1.90 0.30 4.50 0.05 5.05 -0.45 6.20 -0.90 2.30z"/>
  <path d="M38.45 35.90 c-0.30 -0.65 -1.35 -2 -2.35 -3 -1 -1.05 -1.55 -1.90 -1.20 -1.90 0.85 0 4.10 3 4.10 3.80 0 0.40 0.25 0.70 0.50 0.70 0.30 0 0.50 0.35 0.50 0.75 0 1.10 -0.90 0.90 -1.55 -0.35z"/>
  <path d="M31.40 31.10 c-1.85 -1.40 -2.20 -1.90 -1.65 -2.25 0.90 -0.45 1 -1.85 0.20 -1.85 -0.40 0 -0.40 -0.25 0.05 -0.75 0.85 -1.05 1.10 -0.95 2.35 0.90 0.85 1.30 2.15 5.95 1.55 5.80 -0.05 0 -1.20 -0.85 -2.50 -1.85z"/>
  <path d="M6 26.25 c-0.80 -0.85 -1.70 -1.25 -2.90 -1.25 -1.35 0 -1.60 -0.15 -1.20 -0.65 0.90 -1.10 3.70 -0.60 4.95 0.90 2 2.30 1.20 3.20 -0.85 1z"/>
  <path d="M6.25 24 c-0.50 -0.55 -0.65 -1 -0.40 -1 0.65 0 1.90 1.45 1.55 1.75 -0.15 0.15 -0.65 -0.20 -1.15 -0.75z"/>
  <path d="M4.70 21.45 c-0.15 -0.30 0.10 -0.90 0.60 -1.35 0.70 -0.70 0.80 -0.70 0.30 -0.05 -0.45 0.60 -0.45 0.90 0 1.35 0.45 0.45 0.45 0.60 0.05 0.60 -0.35 0 -0.75 -0.25 -0.95 -0.55z"/>
  <path d="M21.50 17 c0 -0.25 -0.35 -0.50 -0.85 -0.50 -0.45 0 -0.65 -0.15 -0.45 -0.35 0.20 -0.25 1 -0.40 1.70 -0.40 1 0 1.30 -0.20 1.20 -0.85 -0.20 -1.15 0.35 -1.15 1.20 0 1.25 1.65 0.85 2.60 -1.05 2.60 -0.95 0 -1.75 -0.20 -1.75 -0.50z"/>
 </g>
 <g fill="#af6243">
  <path d="M9.70 34.45 c-0.15 -0.30 -0.10 -0.75 0.20 -1.05 0.35 -0.35 0.70 -0.15 1.05 0.55 0.50 0.85 0.45 1.05 -0.15 1.05 -0.40 0 -0.90 -0.25 -1.10 -0.55z"/>
  <path d="M24.40 32.90 c-0.15 -0.35 0.15 -1.10 0.65 -1.60 0.85 -0.85 0.95 -0.85 1.25 -0.10 0.30 0.80 -0.55 2.30 -1.30 2.30 -0.20 0 -0.50 -0.30 -0.60 -0.60z"/>
  <path d="M10.50 32.25 c-0.50 -0.60 -0.50 -0.75 0.20 -0.75 0.45 0 0.80 0.35 0.80 0.75 0 0.40 -0.10 0.75 -0.20 0.75 -0.10 0 -0.45 -0.35 -0.80 -0.75z"/>
  <path d="M22.75 29.55 c-0.15 -0.30 -0.55 -0.45 -0.80 -0.30 -0.25 0.20 -0.60 -0.05 -0.75 -0.50 -0.20 -0.50 -0.65 -0.65 -1.25 -0.50 -0.60 0.20 -0.95 0.10 -0.95 -0.40 0 -1.20 0.60 -1.40 1.85 -0.60 1.10 0.75 2.90 0.70 5.80 -0.10 0.80 -0.20 0.90 -0.05 0.60 0.95 -0.20 0.60 -0.40 1.20 -0.45 1.25 -0.35 0.45 -3.75 0.60 -4.05 0.20z"/>
  <path d="M10.55 28.60 c-0.70 -1.30 -0.35 -2.10 0.50 -1.25 0.30 0.30 0.45 0.95 0.35 1.45 -0.15 0.85 -0.25 0.85 -0.85 -0.20z"/>
  <path d="M23.10 24.75 c-1.80 -0.80 -2.60 -2.40 -2.60 -5.25 0 -1.10 -0.25 -2 -0.60 -2.15 -0.50 -0.15 -0.50 -0.35 0.05 -1 1 -1.25 1.50 -1.05 2.30 0.80 l0.70 1.60 0.10 -1.50 c0.10 -0.80 0.15 -1.90 0.10 -2.35 0 -1.20 0.45 -1.15 1.25 0.15 0.40 0.60 0.55 1.60 0.35 2.45 -0.30 1.25 -0.20 1.40 1.10 1.40 3.10 -0.05 3.75 -0.35 3.45 -1.65 -0.25 -0.90 -0.10 -1.25 0.45 -1.25 0.45 0 0.75 -0.45 0.75 -1.05 0 -0.80 0.40 -0.35 1.30 1.30 0.75 1.45 1.15 2.85 1 3.50 -0.15 0.60 -1.40 2.15 -2.75 3.40 -2.75 2.55 -4.05 2.85 -6.95 1.60z m4.90 -3.75 c0.50 0 1.10 -0.20 1.25 -0.50 0.20 -0.30 -0.85 -0.50 -2.70 -0.50 -1.70 0 -3.05 0.20 -3.05 0.50 0 0.30 0.70 0.50 1.50 0.50 1.30 0 1.50 0.20 1.55 1.40 l0.10 1.35 0.20 -1.35 c0.15 -0.95 0.50 -1.40 1.15 -1.40z"/>
  <path d="M16.60 21.15 c-0.80 -1.55 -1.20 -3.75 -0.60 -3.40 0.65 0.40 0.65 -0.90 -0.05 -2.45 -0.80 -1.75 0.20 -7.20 1.55 -8.55 l1.05 -1 -1 2.25 c-0.55 1.25 -1.05 2.80 -1.05 3.50 0 0.95 0.25 0.70 1.20 -1.25 0.60 -1.35 1.55 -2.85 2.05 -3.25 0.60 -0.45 0.20 0.50 -0.95 2.60 -1.80 3.20 -1.85 3.60 -1.70 7 0.10 2 0.40 4.05 0.60 4.55 0.25 0.50 0.20 0.85 -0.15 0.85 -0.25 0 -0.70 -0.40 -0.95 -0.85z"/>
  <path d="M26.40 16.20 c0.25 -1.85 -0.45 -2.75 -2.80 -3.70 l-1.15 -0.50 1.40 -1.75 c1.70 -2.10 2.65 -2.25 2.65 -0.35 0 1.30 0.15 1.40 1.45 1.20 1.15 -0.15 1.40 -0.40 1.15 -1.05 -0.40 -1.05 -1.40 -2.05 -2.05 -2.05 -0.75 0 -0.70 -0.75 0.15 -1.45 1.35 -1.15 3.35 1 4.50 4.75 0.30 0.90 0.15 1 -1.20 0.80 -0.90 -0.15 -1.50 0 -1.50 0.35 0 0.30 0.30 0.55 0.65 0.55 0.35 0.05 0.25 0.30 -0.25 0.70 -0.60 0.40 -0.90 1.35 -0.90 2.50 0 1.55 -0.15 1.80 -1.15 1.80 -1 0 -1.15 -0.20 -0.95 -1.80z"/>
  <path d="M24 7.15 c0.05 -0.70 1.25 -1.95 2.25 -2.35 0.80 -0.30 0.70 -0.05 -0.45 1.15 -1.55 1.65 -1.80 1.80 -1.80 1.20z"/>
  <path d="M23 6.25 c0 -0.25 0.55 -1.15 1.25 -2 0.65 -0.80 1.20 -1.25 1.25 -0.90 0 0.35 -0.55 1.25 -1.25 2 -0.65 0.75 -1.20 1.20 -1.25 0.90z"/>
 </g>
 <g fill="#ea6535">
  <path d="M10.25 38.95 c-0.40 -1.15 -0.05 -1.70 0.70 -1.20 0.65 0.40 0.75 2.25 0.10 2.25 -0.25 0 -0.65 -0.45 -0.80 -1.05z"/>
  <path d="M16.30 39.15 c-0.40 -1.50 -0.25 -7.30 0.15 -6.85 0.65 0.70 1.20 7.70 0.60 7.70 -0.25 0 -0.60 -0.40 -0.75 -0.85z"/>
  <path d="M10 35.20 c-0.65 -1.65 -0.65 -1.70 0.20 -1.70 0.70 0 1.30 1.05 1.30 2.30 0 1.15 -1 0.80 -1.50 -0.60z"/>
  <path d="M24.50 32.90 c0 -1.10 0.85 -2.05 1.45 -1.70 0.40 0.25 0.40 0.65 0.05 1.35 -0.60 1.05 -1.50 1.30 -1.50 0.35z"/>
  <path d="M10.70 32.45 c-0.85 -1 -1.35 -2.95 -0.80 -2.95 0.85 0 1.70 1.40 1.50 2.55 -0.10 0.90 -0.25 1 -0.70 0.40z"/>
  <path d="M16.80 30.10 c-0.20 -0.75 -0.45 -1.80 -0.60 -2.35 -0.20 -0.85 -0.10 -0.80 0.75 0.25 1.10 1.30 1.35 2.75 0.60 3.20 -0.25 0.15 -0.60 -0.30 -0.75 -1.10z"/>
  <path d="M10.50 28.20 c-1.20 -2.40 -1.20 -2.50 0 -1.40 0.60 0.60 1 1.50 0.90 1.95 -0.10 0.70 -0.30 0.60 -0.90 -0.55z"/>
  <path d="M17.15 26.25 c-0.25 -0.55 -0.65 -1.65 -0.85 -2.50 l-0.35 -1.50 1.10 1.60 c0.55 0.90 0.95 2 0.85 2.50 -0.20 0.80 -0.25 0.80 -0.75 -0.10z"/>
  <path d="M10.60 24.90 c-0.30 -0.30 -0.60 -1.05 -0.60 -1.60 0 -1 0.05 -0.95 0.80 0.10 0.90 1.30 0.75 2.45 -0.20 1.50z"/>
  <path d="M30.80 21.85 c1.15 -1.90 0.65 -2.15 -0.95 -0.55 -1.50 1.45 -1.85 0.80 -0.50 -0.80 0.90 -1 3.15 -1.40 3.15 -0.55 0 0.30 -0.60 1.15 -1.30 1.90 l-1.25 1.40 0.85 -1.40z"/>
  <path d="M16.55 20.95 c-0.65 -1.90 -0.70 -2.45 -0.15 -2.45 0.35 0 1.60 2.85 1.60 3.65 0 1 -0.95 0.15 -1.45 -1.20z"/>
  <path d="M10.50 20.05 c-0.60 -1.20 -0.65 -1.70 -0.05 -1.35 0.45 0.30 1.10 2.30 0.75 2.30 -0.10 0 -0.40 -0.45 -0.70 -0.95z"/>
  <path d="M16.10 15.65 c-0.35 -0.60 -0.60 -1.50 -0.60 -2 0 -0.75 0.10 -0.70 0.80 0.25 0.40 0.60 0.70 1.50 0.60 2 -0.15 0.75 -0.25 0.70 -0.80 -0.25z"/>
  <path d="M16 10.60 c0 -1.70 1.15 -3.60 3.60 -5.85 l2.15 -2 -1.90 2.05 c-1.05 1.10 -2.30 3.15 -2.85 4.50 -0.65 1.65 -0.95 2.10 -1 1.30z"/>
  <path d="M18 9.75 c0 -0.25 0.60 -1.15 1.30 -2 0.70 -0.80 1.05 -1.05 0.75 -0.50 -0.70 1.50 -2 3.05 -2.05 2.50z"/>
  <path d="M21.35 8 c0.85 -1.25 2.15 -2.80 2.95 -3.50 1.30 -1.20 1.30 -1.15 -0.30 1.10 -0.90 1.30 -2.20 2.85 -2.90 3.50 -1.15 1.05 -1.15 0.95 0.25 -1.10z"/>
  <path d="M24 7 c0.85 -1.10 1.80 -2 2.05 -2 0.30 0 -0.35 0.90 -1.35 2 -1.05 1.10 -1.95 2 -2.05 2 -0.15 0 0.50 -0.90 1.35 -2z"/>
  <path d="M31.40 6.95 c-0.65 -1.15 -0.70 -1.45 -0.20 -1.45 0.40 0 0.85 0.60 1 1.30 0.50 1.85 0.20 1.90 -0.80 0.15z"/>
  <path d="M28 3.55 c-1.20 -1.05 -1.50 -1.50 -0.95 -1.55 1.15 0 3.15 1.70 2.90 2.40 -0.15 0.40 -0.85 0.05 -1.95 -0.85z"/>
 </g>
 <g fill="#7d8790">
  <path d="M3.45 38.65 c-0.35 -0.80 -1.05 -1.95 -1.55 -2.60 -0.50 -0.65 -0.90 -1.50 -0.90 -1.95 0 -0.45 0.45 -0.15 1.10 0.70 0.60 0.80 1.40 1.65 1.75 1.85 0.40 0.25 0.55 0.60 0.40 0.85 -0.15 0.25 -0.05 0.95 0.25 1.50 0.30 0.55 0.35 1 0.10 1 -0.25 0 -0.75 -0.60 -1.15 -1.35z"/>
  <path d="M29 38.75 c-1.50 -1.60 -1.15 -1.95 1.30 -1.05 1.05 0.40 1.65 0.75 1.35 0.75 -0.35 0.05 -0.65 0.40 -0.65 0.80 0 1.10 -0.65 0.90 -2 -0.50z"/>
  <path d="M32.50 39.10 c0 -1.45 -2.40 -3.70 -3.60 -3.30 -0.75 0.20 -0.95 0.10 -0.80 -0.35 0.15 -0.45 0.90 -0.65 1.95 -0.60 l1.70 0.05 -1.35 -0.55 c-1.65 -0.65 -1.75 -1.15 -0.40 -1.60 1.15 -0.35 3.60 1.20 3.25 2.10 -0.10 0.35 0 0.75 0.25 0.90 0.30 0.20 0.50 0.65 0.50 1.05 0 0.40 0.60 1.30 1.40 1.95 1 0.90 1.15 1.20 0.55 1.25 -0.45 0 -1 -0.40 -1.20 -0.85 -0.30 -0.85 -0.35 -0.85 -0.95 0 -0.85 1.10 -1.30 1.10 -1.30 -0.05z"/>
  <path d="M13.50 36.65 c0 -1.55 0.15 -2.70 0.30 -2.50 0.45 0.45 0.55 5.35 0.10 5.35 -0.20 0 -0.40 -1.25 -0.40 -2.85z"/>
  <path d="M24 38.75 c-0.35 -0.40 -0.80 -0.60 -1.10 -0.45 -0.25 0.15 -0.75 0 -1.15 -0.30 -0.40 -0.30 -1.20 -0.45 -1.75 -0.25 -0.95 0.30 -1 0.25 -0.40 -0.70 0.35 -0.60 0.90 -1.05 1.25 -1.05 0.30 0 0.75 -0.25 0.95 -0.60 0.25 -0.40 0 -0.45 -0.75 -0.25 -0.70 0.15 -1.05 0.05 -0.90 -0.30 0.10 -0.30 0.70 -0.70 1.35 -0.85 l1.20 -0.30 -1.20 -0.85 c-0.65 -0.45 -1.50 -0.85 -1.85 -0.85 -0.35 0 -0.65 -0.45 -0.65 -1 0 -1.20 2.05 -1.40 3 -0.25 0.35 0.40 0.80 0.65 1 0.50 0.25 -0.15 0.60 -0.05 0.75 0.25 0.20 0.30 0.75 0.40 1.30 0.25 0.65 -0.25 0.95 -0.10 0.95 0.50 0 0.45 -0.45 0.95 -1 1.10 -1.40 0.40 -1.25 1.25 0.50 2.40 1.70 1.15 1.95 2.50 0.55 3.25 -1.25 0.65 -1.30 0.65 -2.05 -0.25z"/>
  <path d="M1 37.75 c0 -0.40 0.25 -0.75 0.50 -0.75 0.30 0 0.50 0.35 0.50 0.75 0 0.40 -0.20 0.75 -0.50 0.75 -0.25 0 -0.50 -0.35 -0.50 -0.75z"/>
  <path d="M37 37.60 c-1.65 -1.10 -1.90 -1.55 -1.65 -2.65 0.35 -1.30 0.90 -1.20 2.10 0.45 0.55 0.75 1.40 1.75 1.90 2.25 0.80 0.80 0.75 0.85 -0.15 0.80 -0.50 0 -1.50 -0.40 -2.20 -0.85z"/>
  <path d="M6.05 37.05 c-0.55 -1 -0.25 -1.55 0.75 -1.55 0.30 0 0.55 0.55 0.50 1.25 -0.05 1.50 -0.55 1.60 -1.25 0.30z"/>
  <path d="M38.05 35.05 c-0.90 -1.10 -1.45 -2.05 -1.15 -2.05 0.70 0 3.20 3 3 3.60 -0.10 0.30 -0.95 -0.40 -1.85 -1.55z"/>
  <path d="M7 33.30 c0 -1.40 -2.55 -3.80 -4.05 -3.80 -0.95 0 -1.30 -0.70 -0.55 -1.15 0.20 -0.15 1.20 0.05 2.25 0.40 1.10 0.40 1.85 0.45 1.75 0.15 -0.30 -0.85 -3.75 -1.85 -4.35 -1.25 -0.30 0.30 -0.70 0.35 -0.90 0.15 -0.65 -0.60 1.45 -1.85 2.55 -1.50 3.35 1 3.55 1.25 3.65 4.85 0.10 1.85 0.05 3.35 -0.10 3.35 -0.15 0 -0.25 -0.55 -0.25 -1.20z"/>
  <path d="M3.35 33.20 c-0.20 -0.20 -0.35 -0.70 -0.35 -1.15 0 -0.55 0.15 -0.60 0.55 -0.20 0.30 0.30 0.50 0.80 0.35 1.15 -0.10 0.30 -0.35 0.40 -0.55 0.20z"/>
  <path d="M13.50 32.45 c0 -0.65 0.25 -1.55 0.50 -1.95 0.35 -0.55 0.40 -0.25 0.20 1 -0.40 2.15 -0.70 2.55 -0.70 0.95z"/>
  <path d="M31 30.45 l-1.70 -1.45 1.70 0 c1.55 -0.05 1.65 -0.10 0.90 -0.70 -0.50 -0.35 -0.90 -1.10 -0.90 -1.60 0.05 -0.80 0.20 -0.75 1.25 0.45 1.25 1.40 1.60 3.05 0.85 4.15 -0.25 0.40 -0.90 0.15 -2.10 -0.85z"/>
  <path d="M6.35 26.20 c-0.75 -0.65 -1.90 -1.20 -2.55 -1.20 -0.60 0 -1.15 -0.30 -1.15 -0.60 0 -0.70 4.05 -0.90 4.70 -0.25 0.20 0.25 -0.05 0.25 -0.60 0.05 -0.85 -0.35 -0.85 -0.25 0.20 1.25 1.45 2 1.20 2.30 -0.60 0.75z"/>
  <path d="M22.50 16.50 c0 -0.25 0.25 -0.50 0.55 -0.50 0.30 0 0.40 -0.45 0.20 -1 -0.15 -0.55 -0.15 -1 0.10 -1 0.65 0 1.70 2 1.40 2.50 -0.40 0.65 -2.25 0.65 -2.25 0z"/>
  <path d="M29 16.50 c0 -0.25 0.35 -0.50 0.75 -0.50 0.40 0 0.75 -0.45 0.75 -1.05 0 -1.35 0.80 -0.80 1.10 0.80 0.25 1.10 0.10 1.25 -1.15 1.25 -0.80 0 -1.45 -0.20 -1.45 -0.50z"/>
 </g>
 <g fill="#d08460">
  <path d="M10 34.50 c0 -0.55 0.20 -1 0.45 -1 0.25 0 0.55 0.45 0.70 1 0.15 0.65 0 1 -0.45 1 -0.40 0 -0.70 -0.45 -0.70 -1z"/>
  <path d="M24 32.90 c0 -0.50 1.25 -1.90 1.70 -1.90 0.80 0 0.15 1.90 -0.70 2.15 -0.55 0.15 -1 0.05 -1 -0.25z"/>
  <path d="M20.90 31.10 c-0.50 -0.10 -0.90 -0.40 -0.90 -0.65 0 -0.65 1.35 -0.55 1.75 0.10 0.45 0.65 0.20 0.80 -0.85 0.55z"/>
  <path d="M23.10 29.20 c0.10 -0.70 0.60 -0.95 2.05 -1 1.25 -0.05 1.85 0.15 1.85 0.60 0 0.40 -0.40 0.70 -0.85 0.70 -0.50 0 -1.45 0.15 -2.10 0.35 -0.95 0.25 -1.10 0.10 -0.95 -0.65z"/>
  <path d="M19 27.75 c0 -0.45 0.25 -0.75 0.55 -0.65 0.30 0.10 0.55 0.40 0.55 0.65 0 0.25 -0.25 0.55 -0.55 0.65 -0.30 0.10 -0.55 -0.20 -0.55 -0.65z"/>
  <path d="M17.15 26 c-0.30 -0.70 -0.65 -1.80 -0.85 -2.50 -0.30 -1.10 -0.20 -1.05 0.70 0.35 0.60 0.90 1 2 0.85 2.50 -0.15 0.75 -0.30 0.70 -0.70 -0.35z"/>
  <path d="M24.75 24.55 c-1.90 -1.15 -3.40 -2.85 -3.55 -3.95 -0.10 -0.45 -0.30 -1.85 -0.50 -3.05 -0.35 -2.05 -0.30 -2.20 0.60 -1.85 1.70 0.65 1.95 0.55 1.85 -0.55 -0.10 -0.65 0.10 -1.15 0.35 -1.15 0.30 0 0.50 0.35 0.50 0.75 0 0.40 0.20 0.75 0.45 0.75 0.30 0 0.35 0.75 0.20 1.70 l-0.25 1.70 2.70 0.20 c2.35 0.15 2.70 0.05 2.65 -0.70 -0.05 -0.50 -0.20 -1.05 -0.40 -1.20 -0.60 -0.60 -0.40 -1.10 0.65 -1.35 0.75 -0.20 0.90 -0.50 0.65 -1.20 -0.15 -0.50 -0.10 -0.75 0.10 -0.50 0.65 0.55 1.85 3.95 1.80 5.05 0 0.55 -0.35 1.30 -0.80 1.75 -0.75 0.75 -0.75 0.70 -0.45 -0.20 0.35 -0.90 0.30 -0.95 -0.55 -0.25 -0.70 0.55 -0.95 0.60 -1.10 0.15 -0.15 -0.45 -1.25 -0.65 -3.20 -0.65 -2 0 -2.95 0.20 -2.95 0.65 0 0.40 0.85 0.55 3 0.45 2.80 -0.20 3.85 0.30 2.50 1.15 -0.30 0.20 -0.40 0.75 -0.25 1.30 0.25 0.70 0 1.05 -1 1.45 -1.60 0.60 -1.25 0.65 -3 -0.45z"/>
  <path d="M16.55 20.90 c-0.25 -0.65 -0.60 -1.70 -0.80 -2.40 -0.30 -1.10 -0.25 -1.15 0.40 -0.50 0.75 0.75 1.70 4 1.15 4 -0.20 0 -0.50 -0.50 -0.75 -1.10z"/>
  <path d="M13.05 19.70 c-1.20 -1.50 -1.35 -2.40 -0.45 -2.10 0.85 0.30 2.65 3.40 2 3.40 -0.30 0 -1 -0.60 -1.55 -1.30z"/>
  <path d="M26.50 15.55 c0 -3.35 0.35 -4.05 2.05 -4.05 0.95 0 1.45 -0.25 1.45 -0.75 0 -1.05 0.85 -0.95 1.50 0.25 0.50 0.90 0.40 1 -0.95 1 -0.80 0 -1.65 0.25 -1.80 0.50 -0.15 0.30 0.10 0.50 0.60 0.50 0.75 0 0.70 0.15 -0.30 0.80 -0.95 0.70 -1.10 1.10 -0.80 2.50 0.25 1.50 0.15 1.70 -0.75 1.70 -0.85 0 -1 -0.30 -1 -2.45z"/>
  <path d="M16.10 15.85 c-0.75 -2.10 -0.35 -6.40 0.75 -7.70 0.40 -0.50 0.60 -0.65 0.45 -0.30 -0.80 1.55 -1.25 5.80 -0.75 6.70 0.30 0.55 0.45 1.50 0.35 2.05 -0.10 0.85 -0.30 0.70 -0.80 -0.75z"/>
  <path d="M24.10 12.45 c-1.25 -0.45 -1.25 -1.70 -0.05 -1.70 0.40 -0.05 0.65 -0.35 0.55 -0.70 -0.10 -0.40 0.55 -1.45 1.45 -2.35 1.30 -1.35 1.80 -1.55 2.55 -1.15 1.10 0.60 1.20 1.45 0.15 1.45 -0.45 0 -0.75 0.45 -0.75 1.15 0 0.85 -2.15 3.95 -2.65 3.80 -0.05 0 -0.65 -0.20 -1.25 -0.50z"/>
  <path d="M18 9.75 c0 -0.25 0.45 -1.05 1 -1.75 0.55 -0.70 1 -1 1 -0.75 0 0.30 -0.45 1.05 -1 1.75 -0.55 0.70 -1 1.05 -1 0.75z"/>
  <path d="M21.30 8.10 c0.50 -0.90 1.60 -2.25 2.40 -3 l1.45 -1.35 -1.55 2.30 c-0.80 1.25 -1.90 2.60 -2.40 3 -0.80 0.60 -0.80 0.55 0.10 -0.95z"/>
  <path d="M24.45 6.65 c0.60 -0.90 1.20 -1.65 1.35 -1.65 0.45 0 -0.75 1.85 -1.65 2.55 -0.60 0.50 -0.55 0.25 0.30 -0.90z"/>
  <path d="M30.85 6.10 c-1.30 -1.40 -1.10 -2.60 0.20 -1.25 0.60 0.55 1 1.30 0.85 1.65 -0.10 0.35 -0.45 0.25 -1.05 -0.40z"/>
 </g>
 <g fill="#f48752">
  <path d="M16.30 39.20 c-0.45 -1.25 -0.35 -3.20 0.20 -3.20 0.30 0 0.50 0.90 0.50 2 0 2.15 -0.20 2.50 -0.70 1.20z"/>
  <path d="M10.20 38.80 c-0.40 -1.10 0.15 -1.65 0.90 -0.90 0.45 0.45 0.45 0.75 0 1.20 -0.45 0.45 -0.65 0.35 -0.90 -0.30z"/>
  <path d="M10.20 35.30 c-0.40 -1.75 0.05 -2.20 0.80 -0.80 0.40 0.75 0.45 1.25 0.05 1.65 -0.35 0.35 -0.60 0.10 -0.85 -0.85z"/>
  <path d="M16.35 34.85 c-0.20 -0.50 -0.35 -1.40 -0.35 -2 0.05 -1 0.10 -1 0.55 -0.20 0.30 0.50 0.45 1.40 0.35 2 -0.15 1 -0.20 1 -0.55 0.20z"/>
  <path d="M10.35 32.15 c-0.50 -0.45 -0.40 -2.15 0.10 -2.15 0.25 0 0.55 0.55 0.65 1.25 0.25 1.20 -0.10 1.60 -0.75 0.90z"/>
  <path d="M10.60 28.25 c-0.35 -0.75 -0.55 -1.50 -0.40 -1.60 0.35 -0.35 1.40 1.80 1.20 2.45 -0.10 0.30 -0.45 -0.10 -0.80 -0.85z"/>
  <path d="M16.60 24.65 l-0.55 -1.90 0.95 1.25 c1 1.30 1.30 2.50 0.60 2.50 -0.25 0 -0.70 -0.85 -1 -1.85z"/>
  <path d="M25.65 24.25 c-0.85 -0.95 -0.80 -1.25 0.10 -1.25 0.40 0 0.75 -0.20 0.75 -0.50 0 -0.25 -0.30 -0.50 -0.70 -0.50 -0.40 0 -0.90 -0.20 -1.05 -0.50 -0.20 -0.30 0.60 -0.45 2 -0.40 1.25 0.05 2.25 0.30 2.25 0.50 0 0.20 -0.20 0.40 -0.45 0.40 -0.30 0 -0.45 0.60 -0.40 1.35 0.10 1.05 -0.15 1.45 -0.90 1.50 -0.55 0.10 -1.30 -0.20 -1.60 -0.60z"/>
  <path d="M16.60 20.75 c-0.70 -1.55 -0.75 -1.75 -0.15 -1.75 0.45 0 1.25 2.45 0.90 2.80 -0.10 0.10 -0.45 -0.35 -0.75 -1.05z"/>
  <path d="M29.80 19.60 c0.20 -1 0.10 -1.90 -0.30 -2.35 -0.75 -0.90 -0.65 -1 0.90 -1.45 0.95 -0.30 1.10 -0.20 1.10 0.90 0 0.70 0.25 1.30 0.50 1.30 0.30 0 0.50 0.45 0.50 1.05 0 0.60 -0.20 0.85 -0.55 0.70 -0.25 -0.20 -0.95 0.05 -1.50 0.55 -0.95 0.85 -0.95 0.80 -0.65 -0.70z"/>
  <path d="M22.40 18.80 c-1.55 -1.20 -1.75 -1.80 -0.65 -1.80 0.40 0 0.75 -0.20 0.75 -0.50 0 -0.25 0.45 -0.50 1 -0.50 0.85 0 1 0.25 0.85 1.75 -0.25 2.30 -0.35 2.35 -1.95 1.05z"/>
  <path d="M25.25 19.50 c-0.15 -0.25 0.15 -0.50 0.70 -0.50 0.60 0 1.05 0.25 1.05 0.50 0 0.30 -0.30 0.50 -0.70 0.50 -0.40 0 -0.90 -0.20 -1.05 -0.50z"/>
  <path d="M27.50 16.90 c0 -0.65 -0.15 -2.35 -0.30 -3.75 l-0.35 -2.65 1.80 0 c1.10 0 1.85 0.30 2.05 0.75 0.20 0.50 -0.05 0.75 -0.75 0.75 -1.15 0 -2.10 2.10 -1.80 4.15 0.10 0.75 0 1.50 -0.25 1.65 -0.20 0.15 -0.40 -0.25 -0.40 -0.90z"/>
  <path d="M16.05 15.35 c-0.80 -2.05 -0.65 -2.85 0.20 -1.15 0.45 0.80 0.70 1.70 0.55 2 -0.10 0.30 -0.45 -0.10 -0.75 -0.85z"/>
  <path d="M21.90 7.25 c0.25 -0.55 1 -1.45 1.65 -2 1.10 -1 1.10 -1 0.55 0 -0.25 0.55 -1 1.45 -1.65 2 -1.10 1 -1.10 1 -0.55 0z"/>
  <path d="M28.75 4.20 c-1.65 -1.45 -2.20 -2.20 -1.60 -2.20 1.10 0 4.55 3.15 4.30 3.85 -0.10 0.30 -1.30 -0.45 -2.70 -1.65z"/>
 </g>
 <g fill="#959ba2">
  <path d="M13.50 38.90 c0 -0.95 0.10 -1 0.50 -0.40 0.65 0.95 0.65 1.50 0 1.50 -0.25 0 -0.50 -0.50 -0.50 -1.10z"/>
  <path d="M29.40 39.05 c-1.10 -1.10 -1.15 -1.55 -0.15 -1.55 0.60 0 1.75 1.40 1.75 2.20 0 0.55 -0.75 0.25 -1.60 -0.65z"/>
  <path d="M3.25 38.05 c-0.20 -0.70 -0.80 -1.70 -1.30 -2.25 -0.90 -0.95 -1.25 -1.80 -0.70 -1.80 0.55 0 2.85 4 2.65 4.60 -0.15 0.40 -0.40 0.15 -0.65 -0.55z"/>
  <path d="M23.65 38.20 c-0.15 -0.45 0 -1 0.40 -1.30 0.75 -0.55 0.10 -0.40 -2.95 0.55 -1.45 0.45 -1.65 0.40 -1.40 -0.25 0.15 -0.45 0.30 -0.90 0.30 -1 0 -0.10 0.45 -0.20 1 -0.20 0.50 0 1.20 -0.50 1.55 -1.05 0.50 -0.95 0.35 -1.25 -0.85 -2.25 -0.80 -0.65 -1.60 -1.15 -1.80 -1.20 -0.25 0 -0.40 -0.35 -0.40 -0.75 0 -1 1.95 -0.95 2.35 0.05 0.15 0.40 0.60 0.65 0.95 0.50 0.35 -0.15 0.80 -0.05 1 0.25 0.15 0.25 0.70 0.35 1.25 0.20 1.35 -0.45 1.20 0.60 -0.15 1.30 -0.65 0.30 -1.25 0.65 -1.35 0.75 -0.10 0.10 0.65 0.95 1.75 1.90 1.70 1.45 1.85 1.75 1.25 2.50 -0.85 1.05 -2.50 1.05 -2.90 0z"/>
  <path d="M32.60 38 c-0.35 -0.55 -1.35 -1.45 -2.25 -2 l-1.60 -1 1.60 0 c1.20 0 1.65 0.25 1.90 1.05 0.30 0.85 0.45 0.90 0.80 0.40 0.30 -0.50 0.45 -0.45 0.75 0.30 0.20 0.55 0.45 1.20 0.60 1.45 0.15 0.25 0 0.30 -0.30 0.10 -0.25 -0.15 -0.60 -0.10 -0.70 0.20 -0.10 0.30 -0.45 0.05 -0.80 -0.50z"/>
  <path d="M36.90 37.15 c-0.80 -0.40 -1.40 -0.95 -1.40 -1.20 0 -0.30 0.25 -0.35 0.50 -0.20 0.70 0.45 0.65 -0.40 -0.10 -1.15 -0.40 -0.40 -0.45 -0.60 -0.05 -0.60 0.55 0 2.95 3.40 2.60 3.70 -0.10 0.05 -0.80 -0.20 -1.55 -0.55z"/>
  <path d="M36.85 33.70 c-2.55 -2.80 -2.55 -3.80 -0.05 -1.25 1.95 2.05 3.20 3.50 3.20 3.80 0 0.70 -1 -0.10 -3.15 -2.55z"/>
  <path d="M30.65 34.35 c-2 -0.70 -2.15 -1.35 -0.25 -1.35 1.35 0 2.60 0.75 2.60 1.60 0 0.45 -0.20 0.45 -2.35 -0.25z"/>
  <path d="M31.60 31 l-1.60 -1.50 1.25 0 c1.25 0 1.65 -0.70 0.75 -1.25 -0.60 -0.40 -0.65 -1.25 -0.05 -1.25 0.45 0 1.30 1.90 1.75 4.15 0.40 1.70 -0.05 1.70 -2.10 -0.15z"/>
  <path d="M5.85 31 c-0.45 -0.55 -1.55 -1.15 -2.35 -1.35 -0.85 -0.15 -1.50 -0.45 -1.50 -0.70 0 -0.60 1.60 -0.55 3.20 0.05 0.85 0.30 1.30 0.30 1.30 0 0 -0.30 -0.95 -0.90 -2.10 -1.35 -2.45 -0.95 -1.75 -1.50 0.85 -0.65 1.80 0.60 1.85 0.70 1.95 3.35 0.05 1.90 -0.15 2 -1.35 0.65z"/>
  <path d="M6.50 26.25 c-0.65 -0.70 -1.70 -1.25 -2.35 -1.25 -0.65 0 -1.15 -0.20 -1.15 -0.50 0 -1.05 2.60 -0.45 3.75 0.80 1.10 1.20 1.60 2.20 1.10 2.20 -0.10 0 -0.70 -0.55 -1.35 -1.25z"/>
  <path d="M20.75 17 c-0.55 -0.85 0.15 -1.40 1.55 -1.10 1.15 0.20 1.25 0.10 0.95 -0.85 -0.15 -0.55 -0.10 -1.05 0.15 -1.05 0.45 0 1.10 1.60 1.10 2.90 0 0.75 -3.30 0.85 -3.75 0.10z"/>
  <path d="M29.70 16.95 c-0.20 -0.35 0 -0.80 0.45 -1.05 0.50 -0.25 0.70 -0.75 0.50 -1.25 -0.20 -0.50 -0.10 -0.70 0.20 -0.50 0.30 0.20 0.65 1 0.75 1.85 0.20 1.20 0.05 1.50 -0.65 1.50 -0.50 0 -1.05 -0.25 -1.25 -0.55z"/>
 </g>
 <g fill="#f3a871">
  <path d="M23.50 32.50 c0 -0.65 0.25 -0.90 0.75 -0.70 0.40 0.20 0.75 0.05 0.75 -0.25 0 -0.30 0.25 -0.55 0.55 -0.55 0.95 0 0.25 1.65 -0.90 2.05 -0.95 0.35 -1.15 0.25 -1.15 -0.55z"/>
  <path d="M25.15 24.25 c-0.35 -0.95 -0.25 -1.10 1.45 -1.50 1.05 -0.25 1.45 -0.15 1.70 0.50 0.20 0.50 0.05 1.05 -0.35 1.30 -1.10 0.70 -2.45 0.55 -2.80 -0.30z"/>
  <path d="M24.50 21.50 c0 -0.25 1 -0.45 2.25 -0.40 1.25 0.05 2.25 0.30 2.25 0.50 0 0.20 -1 0.40 -2.25 0.40 -1.25 0 -2.25 -0.20 -2.25 -0.50z"/>
  <path d="M13.60 20.20 c-0.60 -0.40 -1.10 -1.10 -1.10 -1.55 0 -0.65 0.15 -0.65 0.80 -0.15 0.70 0.65 1.90 2.50 1.60 2.50 -0.10 0 -0.70 -0.35 -1.30 -0.80z"/>
  <path d="M16.10 19.55 c-0.35 -0.95 -0.50 -1.80 -0.40 -1.90 0.40 -0.40 1.35 1.90 1.20 2.75 -0.15 0.55 -0.40 0.25 -0.80 -0.85z"/>
  <path d="M29.50 20.60 c0 -0.35 0.20 -0.60 0.45 -0.60 0.50 0 0.10 -2.50 -0.55 -3.30 -0.25 -0.40 -0.05 -0.65 0.65 -0.85 0.60 -0.15 0.90 -0.50 0.70 -0.80 -0.15 -0.30 -0.05 -0.55 0.25 -0.55 0.35 0 0.50 0.30 0.35 0.70 -0.15 0.40 0.05 1.10 0.40 1.65 0.90 1.10 0.95 2.65 0.15 2.65 -0.30 0 -1 0.35 -1.50 0.85 -0.55 0.45 -0.90 0.55 -0.90 0.25z"/>
  <path d="M25.50 19.55 c0 -0.25 0.80 -0.45 1.75 -0.40 0.95 0.05 1.75 0.25 1.75 0.45 0 0.20 -0.80 0.40 -1.75 0.40 -0.95 0 -1.75 -0.20 -1.75 -0.45z"/>
  <path d="M23 19 c0 -0.25 -0.35 -0.50 -0.75 -0.50 -0.60 0 -1.75 -1.40 -1.75 -2.20 0 -0.15 0.80 -0.30 1.80 -0.30 1.50 0 1.70 -0.10 1.25 -0.70 -0.40 -0.50 -0.45 -0.80 -0.05 -1.05 0.50 -0.30 0.65 0.25 0.70 3.35 0.05 1.20 -0.20 1.90 -0.55 1.90 -0.35 0 -0.65 -0.20 -0.65 -0.50z"/>
  <path d="M26.70 16.20 c0 -1.45 -0.35 -2.15 -1.55 -3.15 l-1.55 -1.30 1.40 -1.45 c0.80 -0.75 1.50 -1.90 1.60 -2.50 0.10 -0.75 0.50 -1.05 1.35 -1.05 1.35 0 2.80 1.75 3.35 3.90 0.30 1.25 0.20 1.35 -1.20 1.35 -1.45 0 -1.55 0.15 -1.85 2.15 -0.20 1.15 -0.25 2.45 -0.15 2.85 0.10 0.35 -0.20 0.75 -0.60 0.85 -0.60 0.15 -0.80 -0.25 -0.80 -1.65z"/>
  <path d="M22.90 6.10 c0.95 -1.15 1.95 -2.25 2.25 -2.45 0.35 -0.20 -0.15 0.60 -1.05 1.75 -0.95 1.15 -1.95 2.25 -2.25 2.45 -0.35 0.20 0.15 -0.60 1.05 -1.75z"/>
  <path d="M29.60 4.75 c-1.30 -1.35 -1.90 -2.25 -1.45 -2.25 0.80 0 3.85 3.20 3.85 4 0 0.75 -0.05 0.70 -2.40 -1.75z"/>
 </g>
 <g fill="#b4bba9">
  <path d="M29.55 16.80 c-0.45 -0.55 -0.35 -0.75 0.45 -0.95 0.70 -0.20 0.90 -0.50 0.65 -1.15 -0.20 -0.60 -0.15 -0.75 0.30 -0.50 0.35 0.25 0.50 0.75 0.35 1.15 -0.20 0.45 -0.05 1.10 0.25 1.45 0.45 0.55 0.35 0.70 -0.45 0.70 -0.55 0 -1.25 -0.30 -1.55 -0.70z"/>
  <path d="M23.60 15.40 c-0.70 -0.70 -0.80 -1.40 -0.15 -1.40 0.25 0 0.55 0.45 0.70 1 0.30 1.15 0.25 1.20 -0.55 0.40z"/>
 </g>
 <g fill="#b1b8bd">
  <path d="M24 38.30 c0 -0.65 2.50 -1.45 3 -0.95 0.35 0.30 -1.55 1.65 -2.35 1.65 -0.35 0 -0.65 -0.30 -0.65 -0.70z"/>
  <path d="M20.20 36.55 c0.20 -0.30 0.70 -0.55 1.15 -0.55 0.45 0 1.10 -0.40 1.45 -0.85 0.60 -0.85 0.70 -0.85 1.65 0.10 l1 1 -1.10 0.10 c-0.60 0.05 -1.85 0.25 -2.80 0.45 -1.20 0.25 -1.60 0.15 -1.35 -0.25z"/>
  <path d="M30.50 36 l-1.25 -1 1.15 0 c0.60 0 1.25 0.35 1.45 0.75 0.45 1.20 0 1.25 -1.35 0.25z"/>
  <path d="M1.75 35.50 c-0.50 -0.55 -0.80 -1.10 -0.65 -1.25 0.15 -0.15 0.65 0.30 1.10 1 1 1.50 0.80 1.60 -0.45 0.25z"/>
  <path d="M37.10 34 c-1.20 -1.40 -1.95 -2.50 -1.65 -2.50 0.65 0 4.55 4.05 4.55 4.75 0 0.70 -0.95 -0.05 -2.90 -2.25z"/>
  <path d="M32.25 34.55 c-0.15 -0.30 -0.85 -0.55 -1.55 -0.55 -0.65 0 -1.20 -0.20 -1.20 -0.50 0 -0.25 0.40 -0.50 0.90 -0.50 1 0.05 2.90 1.35 2.50 1.80 -0.15 0.15 -0.45 0.05 -0.65 -0.25z"/>
  <path d="M22.15 33.05 c-1.35 -1.05 -1.85 -2.55 -0.90 -2.55 0.40 0 0.75 0.25 0.75 0.50 0 0.30 0.40 0.50 0.90 0.50 0.50 0 1.30 0.30 1.75 0.65 0.75 0.55 0.75 0.65 -0.35 1.15 -0.95 0.45 -1.40 0.40 -2.15 -0.25z"/>
  <path d="M31.95 31 l-1.70 -1.45 1.30 -0.05 c0.90 0 1.45 0.40 1.90 1.30 0.85 1.85 0.50 1.90 -1.50 0.20z"/>
  <path d="M5 30.10 l-1.75 -1.25 1.65 0.30 c0.95 0.20 1.60 0.10 1.60 -0.20 0 -0.25 -0.75 -0.80 -1.60 -1.20 -1.60 -0.70 -1.60 -0.70 -0.35 -0.75 1.80 0 3 1.45 2.55 3.05 l-0.35 1.25 -1.75 -1.20z"/>
  <path d="M32 28.25 c-0.35 -0.45 -0.55 -0.90 -0.40 -1 0.15 -0.15 0.55 0.05 0.90 0.50 0.35 0.45 0.55 0.90 0.40 1 -0.15 0.15 -0.55 -0.05 -0.90 -0.50z"/>
  <path d="M6.55 26.30 c-0.65 -0.70 -1.75 -1.35 -2.50 -1.45 -1.10 -0.15 -1.15 -0.20 -0.40 -0.55 1 -0.50 3.05 0.70 3.85 2.20 0.70 1.35 0.40 1.25 -0.95 -0.20z"/>
  <path d="M22 16.50 c0 -0.25 0.30 -0.50 0.70 -0.50 0.40 0 0.90 0.25 1.05 0.50 0.15 0.30 -0.15 0.50 -0.70 0.50 -0.60 0 -1.05 -0.20 -1.05 -0.50z"/>
  <path d="M29.50 16.50 c0 -0.25 0.30 -0.50 0.70 -0.50 0.40 0 0.90 0.25 1.05 0.50 0.15 0.30 -0.15 0.50 -0.70 0.50 -0.60 0 -1.05 -0.20 -1.05 -0.50z"/>
 </g>
 <g fill="#eeb687">
  <path d="M23.50 32.25 c0 -0.65 0.20 -0.70 1 -0.25 0.55 0.30 1 0.65 1 0.75 0 0.15 -0.45 0.25 -1 0.25 -0.55 0 -1 -0.35 -1 -0.75z"/>
  <path d="M25.50 23.50 c0 -0.25 0.35 -0.50 0.75 -0.50 0.40 0 0.90 0 1.10 -0.05 0.20 0 0.45 0.20 0.55 0.50 0.10 0.30 -0.40 0.55 -1.10 0.55 -0.70 0 -1.30 -0.20 -1.30 -0.50z"/>
  <path d="M25.50 21.50 c-0.60 -0.40 -0.55 -0.50 0.40 -0.50 0.60 0 1.10 0.25 1.10 0.50 0 0.65 -0.55 0.65 -1.50 0z"/>
  <path d="M13 19.75 c-0.35 -0.40 -0.40 -0.75 -0.10 -0.75 0.25 0 0.75 0.35 1.10 0.75 0.35 0.40 0.40 0.75 0.10 0.75 -0.25 0 -0.75 -0.35 -1.10 -0.75z"/>
  <path d="M22.10 17.60 c-1 -1.15 -1.05 -1.35 -0.35 -1.50 1.40 -0.30 2.25 0.30 2.25 1.65 0 1.60 -0.45 1.55 -1.90 -0.15z"/>
  <path d="M30 17.25 c-1.15 -1.20 -1.15 -1.25 -0.15 -1.25 0.90 0 2.65 1.40 2.65 2.15 0 0.80 -1.40 0.25 -2.50 -0.90z"/>
  <path d="M27 16 c0 -1.10 0.20 -2 0.45 -2 0.30 0 0.45 0.90 0.45 2 0 1.10 -0.20 2 -0.45 2 -0.25 0 -0.45 -0.90 -0.45 -2z"/>
  <path d="M27.85 9.60 c-1.70 -1.90 -0.65 -3.75 1.35 -2.45 1.30 0.85 2.20 3.10 1.05 2.70 -0.35 -0.15 -0.85 -0.05 -1.10 0.20 -0.30 0.30 -0.80 0.15 -1.30 -0.45z"/>
  <path d="M29.45 4.15 c-1.30 -1.40 -1.40 -1.65 -0.50 -1.10 1.10 0.70 3 2.95 2.45 2.95 -0.10 0 -1 -0.85 -1.95 -1.85z"/>
 </g>
 <g fill="#c1d0aa">
 </g>
 <g fill="#fece95">
  <path d="M26 23.50 c0 -0.25 0.45 -0.50 1 -0.50 0.55 0 1 0.25 1 0.50 0 0.30 -0.45 0.50 -1 0.50 -0.55 0 -1 -0.20 -1 -0.50z"/>
  <path d="M22.60 17.85 c-1.30 -1.35 -1.40 -1.85 -0.35 -1.85 0.80 0 1.90 1.75 1.65 2.55 -0.10 0.30 -0.65 0 -1.30 -0.70z"/>
  <path d="M30 17.25 c-0.35 -0.45 -0.50 -0.95 -0.30 -1.10 0.40 -0.45 1.90 0.45 2.20 1.25 0.25 0.85 -1.15 0.75 -1.90 -0.15z"/>
  <path d="M27.65 9 c-0.65 -1 -0.40 -2.50 0.40 -2.50 0.25 0 0.90 0.45 1.50 1.05 1 1 1 1.05 0.10 1.70 -1.20 0.95 -1.30 0.90 -2 -0.25z"/>
  <path d="M29.85 4.50 c-0.80 -0.80 -1.25 -1.50 -0.95 -1.50 0.45 0 1.65 1.25 2.30 2.40 0.55 1 0.15 0.70 -1.35 -0.90z"/>
 </g>
 <g fill="#d8dce1">
  <path d="M37.30 34.20 c-1.05 -1.20 -1.85 -2.35 -1.70 -2.45 0.25 -0.25 4.40 3.95 4.40 4.45 0 0.70 -0.90 0.05 -2.70 -2z"/>
  <path d="M21.80 32.55 c-0.15 -0.25 0.05 -0.60 0.50 -0.75 1 -0.40 2.70 0.10 2.70 0.75 0 0.60 -2.85 0.60 -3.20 0z"/>
  <path d="M5.05 30 c-0.65 -0.60 -0.90 -1 -0.50 -1 0.80 0.05 2.45 1.20 2.45 1.70 0 0.55 -0.70 0.30 -1.95 -0.70z"/>
  <path d="M5.55 27.95 c-0.65 -0.50 -0.95 -0.95 -0.70 -0.95 0.65 0 2.45 1.35 2.15 1.65 -0.15 0.15 -0.80 -0.15 -1.45 -0.70z"/>
  <path d="M6.10 25.75 c-0.60 -0.70 -0.90 -1.25 -0.65 -1.25 0.55 0 2.25 1.95 1.95 2.25 -0.10 0.15 -0.70 -0.30 -1.30 -1z"/>
 </g>
</svg>