<?xml version="1.0" encoding="utf-8"?>
<!DOCTYPE svg PUBLIC "-//W3C//DTD SVG 1.0//EN" "http://www.w3.org/TR/2001/REC-SVG-20010904/DTD/svg10.dtd">
<svg version="1.0" xmlns="http://www.w3.org/2000/svg" width="40px" height="40px" viewBox="0 0 40 40" preserveAspectRatio="xMidYMid meet">
 <g fill="#17130d">
  <path d="M6.50 39.50 c0 -0.30 0.35 -0.65 0.75 -0.80 0.85 -0.35 1.05 -3.20 0.25 -3.20 -0.85 0 -0.55 -1 0.95 -3.15 2.10 -3.15 2.20 -3.95 1.10 -8.35 -1.30 -4.85 -1.30 -5 -0.10 -5 0.75 0 1.10 0.70 1.75 3.25 0.45 1.75 0.80 3.75 0.80 4.40 0 1.55 1.10 2.05 4.15 1.90 l2.35 -0.15 0 3.95 0 3.90 -4.50 1.90 c-4.40 1.80 -7.50 2.35 -7.50 1.35z"/>
  <path d="M21 37.90 c0 -3.50 1.40 -17.45 2.05 -20.30 0.30 -1.50 0.35 -2.85 0.15 -3.10 -0.25 -0.20 -2.80 -0.60 -5.70 -0.90 -2.90 -0.30 -5.75 -0.70 -6.35 -0.85 -1 -0.30 -1.15 -0.20 -1.15 0.95 0 1.05 0.25 1.30 1.25 1.30 1.10 0 1.25 0.20 1.25 1.75 0 1.70 -0.05 1.75 -2.05 1.75 -2.05 0 -2.05 -0.05 -1.80 -1.50 0.20 -0.80 0.10 -1.60 -0.15 -1.75 -0.25 -0.15 -0.30 -1.05 -0.15 -2.05 0.15 -1 0 -2.25 -0.35 -2.95 -0.55 -1.05 -0.45 -1.40 1.30 -3.65 1.10 -1.35 2.95 -3.15 4.20 -3.90 1.95 -1.25 2.85 -1.45 6.65 -1.65 3.60 -0.10 4.85 0.05 7.05 0.95 3.45 1.40 6.05 4.10 7.05 7.25 0.85 2.90 1 7.40 0.20 8.80 -0.30 0.60 -0.55 3.20 -0.55 5.85 0 3.95 0.30 5.85 1.55 10.25 0.85 2.95 1.55 5.45 1.55 5.60 0 0.15 -3.60 0.25 -8 0.25 l-8 0 0 -2.10z"/>
  <path d="M16 17.25 c0 -1.75 0 -1.75 2.25 -1.75 2.25 0 2.25 0 2.25 1.75 0 1.75 0 1.75 -2.25 1.75 -2.25 0 -2.25 0 -2.25 -1.75z"/>
 </g>
 <g fill="#32291e">
  <path d="M7 39.55 c0 -0.45 4.95 -2.95 8.15 -4.10 1 -0.35 1.85 -0.95 1.85 -1.30 0 -0.35 0.25 -0.65 0.50 -0.65 0.30 0 0.50 0.75 0.50 1.65 0 1.50 -0.20 1.70 -2.45 2.50 -1.35 0.45 -3 0.85 -3.75 0.85 -0.80 0 -1.30 0.25 -1.30 0.75 0 0.50 -0.55 0.75 -1.75 0.75 -0.95 0 -1.75 -0.20 -1.75 -0.45z"/>
  <path d="M27.60 37.75 c-0.35 -1.25 -0.60 -3.20 -0.55 -4.40 0.05 -1.80 0.15 -1.55 0.75 1.60 0.35 2.05 0.80 4.05 0.90 4.40 0.15 0.35 0.10 0.65 -0.10 0.65 -0.20 0 -0.65 -1 -1 -2.25z"/>
  <path d="M35.70 39.25 c-0.20 -0.40 -0.45 -0.65 -0.70 -0.50 -0.20 0.10 -0.80 -0.70 -1.30 -1.85 -0.80 -1.75 -0.95 -3.30 -0.95 -8.90 0 -3.70 0.20 -8.60 0.45 -10.80 0.55 -5.10 0.10 -8 -1.50 -10.50 -1.15 -1.75 -4.40 -4.20 -5.60 -4.20 -0.25 0 0.10 1.05 0.70 2.40 0.65 1.30 1.30 3.50 1.45 4.85 l0.25 2.50 -0.65 -2.25 c-0.35 -1.25 -1.20 -3.55 -1.85 -5.10 -1.15 -2.80 -1.25 -2.90 -3 -2.90 -2.10 0 -3.30 1.30 -4.75 5.25 -1.20 3.30 -1.90 4.05 -1.45 1.50 0.35 -2.20 1.40 -4.50 2.60 -5.85 0.70 -0.80 0.70 -0.90 -0.05 -0.90 -0.90 0 -3.70 4.65 -4.15 6.95 -0.35 1.70 -1.20 2.15 -1.20 0.60 0 -1.25 1.40 -4.55 2.40 -5.70 0.40 -0.45 0.60 -1 0.45 -1.20 -0.60 -0.60 -2.30 1.45 -3.15 3.80 -0.50 1.25 -1.20 2.65 -1.60 3.05 -0.65 0.65 -0.70 0.60 -0.40 -0.60 0.35 -1.60 0 -1.80 -1.05 -0.55 -0.70 0.85 -0.70 0.85 -0.45 -0.05 0.30 -0.80 0.20 -0.85 -0.45 -0.30 -0.40 0.35 -0.75 0.95 -0.75 1.30 0 0.40 -0.35 0.70 -0.75 0.70 -1.15 0 -0.95 -0.50 1.45 -3.50 3.15 -3.95 5.90 -5.25 11.05 -5.25 5.05 0.05 7.35 0.85 10.30 3.60 3.65 3.45 3.85 4.55 2.65 17.80 -0.35 3.75 0.20 7.35 2.10 13.25 1.40 4.45 1.35 4.10 0.70 4.10 -0.30 0 -0.65 -0.35 -0.80 -0.75z"/>
  <path d="M8.05 37.20 c2.10 -4.50 4 -7.25 3.95 -5.80 -0.05 0.85 -2.90 5.80 -3.50 6 -0.35 0.15 -0.55 0.05 -0.45 -0.20z"/>
  <path d="M21 34 c0 -2.15 0.15 -2.50 1 -2.50 0.75 0 1 0.35 1 1.40 0 2.10 -0.55 3.60 -1.30 3.60 -0.50 0 -0.70 -0.70 -0.70 -2.50z"/>
  <path d="M11.65 35.50 c0.70 -1.85 1.65 -3.50 2 -3.50 0.70 0 -0.20 2.20 -1.25 3.25 -0.70 0.65 -0.95 0.75 -0.75 0.25z"/>
  <path d="M7.30 35.05 c-0.25 -0.35 0 -1.10 0.60 -1.70 1.40 -1.55 2.60 -4.10 2.60 -5.45 0 -0.65 -0.40 -2.75 -0.95 -4.65 -0.95 -3.50 -1.40 -12 -0.65 -12.45 0.20 -0.10 1.50 0 2.85 0.30 2.55 0.50 5.60 0.85 9.85 1.05 1.25 0.05 2.45 0.25 2.65 0.45 0.20 0.20 0.70 0.20 1.10 0.05 0.65 -0.25 0.75 -0.05 0.40 1.15 -1.10 4.25 -2.25 10.70 -2.25 12.70 0 3.05 -0.45 4.50 -1.40 4.50 -0.65 0 -0.70 -0.65 -0.40 -4.60 0.15 -2.55 0.45 -5.30 0.65 -6.05 l0.30 -1.45 -2.80 0.35 c-3.90 0.50 -4.85 0.10 -4.85 -2.05 0 -1.70 0 -1.70 2.25 -1.70 1.60 0 2.25 -0.20 2.25 -0.70 0 -0.85 -1.55 -1.30 -4.35 -1.30 l-2.15 0 0 2.50 c0 2.35 -0.10 2.50 -1.25 2.50 -0.70 0 -1.25 0.15 -1.25 0.30 0 0.95 2.20 8.55 2.60 9.10 0.30 0.30 1.40 0.60 2.45 0.60 1.95 0 1.95 0 1.90 1.90 -0.05 1 -0.20 1.35 -0.30 0.80 -0.20 -0.95 -0.45 -1.05 -2.40 -0.80 -1.35 0.15 -2.55 0 -2.95 -0.35 -0.60 -0.50 -0.80 -0.30 -1.25 1.05 -0.80 2.30 -2.80 4.75 -3.25 3.95z m5.20 -22.80 c0 -0.40 -0.15 -0.75 -0.30 -0.75 -0.15 0 -0.60 0.35 -1 0.75 -0.70 0.65 -0.65 0.75 0.25 0.75 0.60 0 1.05 -0.30 1.05 -0.75z"/>
  <path d="M29.65 28.75 c0 -1.10 0.10 -1.50 0.20 -0.85 0.10 0.60 0.10 1.50 0 2 -0.15 0.45 -0.25 -0.05 -0.20 -1.15z"/>
  <path d="M24.55 23 c0.05 -1.20 0.75 -2.70 1.05 -2.20 0.20 0.25 0 1 -0.40 1.70 -0.35 0.70 -0.65 0.90 -0.65 0.50z"/>
  <path d="M23.85 11 c-0.50 -1.30 -0.85 -8.55 -0.40 -8.30 0.80 0.50 1.45 4.55 1.10 6.80 -0.20 1.25 -0.50 1.90 -0.70 1.50z"/>
  <path d="M21.35 7.15 c-0.50 -0.50 -0.40 -2.80 0.15 -3.65 0.35 -0.55 0.50 -0.10 0.50 1.65 0 2.40 -0.05 2.60 -0.65 2z"/>
 </g>
 <g fill="#633e29">
  <path d="M12.50 38.75 c0 -1 0.25 -1.25 1.25 -1.25 0.90 0 1.25 -0.25 1.25 -1 0 -0.60 0.35 -1 0.80 -1 0.45 0 0.90 -0.45 1.05 -1 0.25 -1 1.65 -1.45 1.65 -0.50 0 0.25 0.90 0.65 2 0.80 1.90 0.30 2 0.40 2 2.05 l0 1.75 -3.25 -0.35 c-3.05 -0.30 -3.25 -0.25 -3.25 0.70 0 0.85 -0.30 1.05 -1.75 1.05 -1.55 0 -1.75 -0.15 -1.75 -1.25z"/>
  <path d="M35.05 36.80 c-0.30 -0.80 -0.50 -1.70 -0.40 -2 0.30 -0.85 1.45 1.65 1.20 2.60 -0.15 0.65 -0.35 0.50 -0.80 -0.60z"/>
  <path d="M17 31.25 c0 -1.15 -0.10 -1.20 -2.15 -0.95 -2.85 0.40 -3.45 -0.35 -5 -6.30 -1.10 -4.30 -1.35 -7.70 -0.90 -12.80 0.05 -0.60 3.80 -0.20 4.95 0.50 1.05 0.65 0.65 1.30 -0.75 1.35 -0.80 0.05 -1.05 0.15 -0.60 0.30 0.50 0.10 1 0.70 1.20 1.30 0.30 0.95 0.40 0.95 0.60 0.25 0.10 -0.50 0.60 -0.90 1.05 -0.95 0.55 0 0.60 -0.10 0.25 -0.30 -1.65 -0.65 -0.25 -2.10 1.60 -1.65 0.30 0.05 1.85 0.20 3.50 0.30 1.65 0.05 3.50 0.30 4.05 0.45 l1.05 0.35 -1 3.95 c-0.60 2.55 -1.20 3.95 -1.65 3.95 -0.40 0 -0.70 -0.30 -0.70 -0.70 0 -0.55 -1.35 -0.80 -5.75 -1.05 -6.05 -0.40 -8.15 -0.15 -3.75 0.45 2.20 0.30 2.50 0.50 2.50 1.50 0 1.20 0.85 1.80 2.55 1.80 0.70 0 0.95 0.35 0.95 1.50 0 1.25 0.20 1.50 1.25 1.50 0.90 0 1.25 -0.25 1.25 -1 0 -0.65 0.35 -1 1 -1 1.15 0 1.20 0.45 0.35 3.50 -0.50 1.70 -1.05 2.45 -2.25 3 -0.85 0.40 -1.60 1.05 -1.60 1.40 0 0.30 -0.45 0.60 -1 0.60 -0.75 0 -1 -0.35 -1 -1.25z m-2 -3.25 c0.55 -0.35 0.35 -0.50 -0.85 -0.50 -0.90 0 -1.65 0.25 -1.65 0.50 0 0.65 1.50 0.65 2.50 0z m3.75 -10.50 c0.20 -0.30 -0.30 -0.50 -1.10 -0.50 -1.10 0 -1.25 0.10 -0.65 0.50 0.95 0.60 1.35 0.60 1.75 0z"/>
  <path d="M33.15 21.50 c0 -1.25 0.10 -1.75 0.20 -1.10 0.10 0.60 0.10 1.60 0 2.25 -0.10 0.60 -0.20 0.10 -0.20 -1.15z"/>
  <path d="M32.65 7.95 c-0.35 -0.90 -0.55 -1.70 -0.45 -1.85 0.35 -0.35 1.35 1.95 1.20 2.75 -0.10 0.45 -0.40 0.10 -0.75 -0.90z"/>
 </g>
 <g fill="#826d51">
  <path d="M7 39.55 c0 -0.60 7 -3.65 8.60 -3.75 1.30 -0.05 1.40 -0.20 1.40 -2.05 0 -2.70 0.50 -4.25 1.25 -4.25 0.35 0 1.15 -0.45 1.80 -1.05 l1.20 -1 -1.25 0.35 c-0.70 0.15 -1.95 0.75 -2.80 1.25 -1.80 1.10 -4.95 1.25 -5.55 0.35 -0.40 -0.70 -2.60 -8.70 -2.60 -9.80 -0.05 -0.50 0.50 -0.60 2.20 -0.30 1.40 0.20 2.25 0.10 2.25 -0.20 0 -0.25 -1.05 -0.65 -2.30 -0.85 -1.95 -0.25 -2.25 -0.45 -2.10 -1.40 0.05 -0.60 -0.10 -1.40 -0.30 -1.80 -0.45 -0.70 -0.10 -0.70 2.45 0.20 0.90 0.30 0.90 0.25 0.15 -0.35 -0.45 -0.35 -1.25 -0.90 -1.75 -1.25 -0.80 -0.50 -0.80 -0.65 -0.15 -1.10 0.65 -0.50 0.65 -0.60 0 -1.05 -0.60 -0.40 -0.55 -0.50 0.40 -0.50 2.15 0 5.60 1.10 5.60 1.80 0 0.40 0.35 0.70 0.75 0.70 0.40 0 0.75 -0.35 0.75 -0.75 0 -0.85 0.50 -0.90 3.25 -0.25 1.40 0.30 2.20 0.25 2.70 -0.15 0.55 -0.45 0.75 -0.45 0.90 0.05 0.15 0.30 0.55 0.60 0.95 0.60 0.80 0 0.85 0.15 0.20 2.75 -1 3.95 -1.90 11.15 -2.25 17.65 -0.35 6 -0.45 6.60 -1.30 6.60 -0.55 0 -0.95 -0.35 -0.95 -0.75 0 -0.55 -0.55 -0.75 -1.95 -0.75 -1.25 0 -2.05 0.25 -2.25 0.75 -0.35 0.90 -1.60 1 -1.95 0.15 -0.20 -0.50 -0.30 -0.50 -0.30 0 -0.05 0.70 -1.55 0.85 -1.55 0.15 0 -0.30 -0.60 -0.30 -1.60 0 -2.05 0.55 -3.90 0.60 -3.90 0z m13.90 -6.75 c0.15 -1.65 0.05 -1.90 -0.65 -1.60 -0.45 0.15 -0.95 0.30 -1.05 0.30 -0.10 0 -0.20 0.80 -0.20 1.80 0 1.40 0.15 1.75 0.90 1.60 0.60 -0.10 0.90 -0.75 1 -2.10z m-5.50 -5.10 c0.65 -0.20 1.05 -0.60 0.90 -1 -0.15 -0.35 0.10 -0.90 0.55 -1.30 0.70 -0.55 0.60 -0.65 -0.65 -0.95 -0.80 -0.20 -2.15 -0.65 -3.05 -1 -0.90 -0.35 -1.75 -0.50 -1.90 -0.35 -0.50 0.50 1.30 2.90 2.10 2.90 0.50 0 0.70 0.35 0.50 1 -0.30 1.10 -0.15 1.15 1.55 0.70z m6.35 -5.25 c0.40 -2.85 0.35 -2.95 -1.30 -3.05 -2.15 -0.15 -6.20 0.20 -5.30 0.45 0.50 0.15 0.85 0.70 0.85 1.40 0 1.15 0.85 1.75 2.55 1.75 0.60 0 0.95 0.35 0.95 1 0 0.65 0.35 1 0.95 1 0.75 0 1 -0.50 1.30 -2.55z m-2.60 -5.05 c0.15 -0.50 -0.40 -0.60 -2.10 -0.45 -2.15 0.20 -2.20 0.25 -0.80 0.60 2.30 0.50 2.60 0.50 2.90 -0.15z m3.10 0.10 c0.15 -0.25 -0.15 -0.50 -0.70 -0.50 -0.60 0 -1.05 0.25 -1.05 0.50 0 0.30 0.30 0.50 0.70 0.50 0.40 0 0.90 -0.20 1.05 -0.50z m-9.95 -0.75 c-1.10 -0.85 -2.30 -1 -2.30 -0.30 0 0.40 1.05 0.80 2.75 0.95 0.30 0.05 0.05 -0.25 -0.45 -0.65z m9.70 -1 c-1.40 -0.80 -3.75 -0.90 -5.25 -0.20 -0.70 0.35 -0.40 0.40 1.25 0.20 1.25 -0.15 2.60 -0.05 3 0.25 0.40 0.25 1.10 0.50 1.50 0.45 0.45 0 0.25 -0.30 -0.50 -0.70z m-7 -1.80 c0 -0.25 -0.35 -0.45 -0.75 -0.45 -0.75 0 -1 0.60 -0.45 1.15 0.40 0.40 1.20 -0.05 1.20 -0.70z"/>
  <path d="M34.80 36 c-0.80 -2.35 -1.45 -5.60 -1.60 -7.25 l-0.15 -3 0.65 3 c0.35 1.65 1.10 4.65 1.75 6.65 0.60 2.05 1 3.95 0.90 4.25 -0.10 0.35 -0.80 -1.30 -1.55 -3.65z"/>
  <path d="M8.60 32.65 c2 -3.10 2.60 -3.70 2 -2.15 -0.90 2.25 -2.35 4.50 -2.95 4.50 -0.35 0 0.05 -1.05 0.95 -2.35z"/>
  <path d="M33.85 15.70 c0.30 -4.10 -0.65 -7.75 -2.75 -10.35 l-1.30 -1.60 1.50 1.40 c2.55 2.30 4.10 9.80 2.70 13.10 -0.25 0.60 -0.30 -0.45 -0.15 -2.55z"/>
  <path d="M8 9.55 c0 -0.35 0.80 -1.65 1.80 -2.95 1.90 -2.55 6.15 -5.15 8.20 -5.05 1.05 0.05 1 0.10 -0.40 0.45 -0.90 0.20 -2.05 0.75 -2.60 1.25 -0.50 0.45 -1.25 0.85 -1.65 0.95 -1.15 0.15 -2.40 1.35 -3.95 3.75 -0.75 1.25 -1.40 1.95 -1.40 1.60z"/>
 </g>
 <g fill="#ae824c">
  <path d="M12.50 37.80 c0 -1.75 2.95 -2.75 4.60 -1.60 0.60 0.45 1.90 0.80 2.90 0.75 1.75 -0.05 1.70 -0.05 -0.45 -0.50 -1.20 -0.25 -2.30 -0.50 -2.40 -0.60 -0.10 -0.10 -0.05 -1.45 0.15 -3 0.30 -2.60 0.45 -2.80 2.25 -3.65 1.25 -0.55 1.95 -1.20 1.95 -1.80 0 -0.80 -0.35 -0.70 -3.20 0.85 -3.65 2 -4.80 2.20 -4.80 0.75 0 -0.65 -0.35 -1 -1 -1 -1.15 0 -1.60 -0.90 -2.85 -6.05 -0.65 -2.85 -0.70 -3.60 -0.20 -3.95 0.55 -0.30 0.55 -0.45 0 -0.60 -1.45 -0.55 -0.05 -0.85 1.55 -0.40 0.95 0.25 1.75 0.40 1.85 0.35 0.50 -0.50 -1.30 -2.90 -2.45 -3.30 -1.05 -0.40 -1.40 -0.85 -1.40 -1.85 0 -1.25 0.10 -1.30 1.90 -1 1 0.20 3.45 0.55 5.35 0.80 4.85 0.60 6.25 1 6.25 1.80 0 0.40 0.50 0.70 1.30 0.70 1.20 0 1.30 0.15 1 1.35 -1.10 5.15 -1.40 7.20 -2 13.90 -0.35 4.15 -0.55 7.80 -0.40 8.20 0.20 0.55 -0.20 0.60 -2.20 0.35 -1.35 -0.20 -2.85 -0.45 -3.30 -0.60 -0.60 -0.20 -0.90 0 -0.90 0.50 0 0.45 -0.35 0.80 -0.75 0.80 -0.55 0 -0.70 -0.35 -0.50 -1.35 l0.25 -1.40 -0.60 1.40 c-0.75 1.65 -1.90 1.80 -1.90 0.15z m4.70 -12.55 c1 -0.75 1 -0.75 0 -0.75 -0.50 0 -2 -0.40 -3.30 -0.85 -1.30 -0.45 -2.50 -0.70 -2.65 -0.55 -0.15 0.15 0 0.85 0.30 1.60 0.50 1.10 0.95 1.30 2.65 1.30 1.15 0 2.50 -0.35 3 -0.75z m2 -4.40 c1.60 -2.10 1.60 -2.35 0.05 -2.35 -0.70 0 -1.25 0.25 -1.25 0.50 0 0.30 -0.65 0.50 -1.50 0.50 -1.25 0 -1.50 0.20 -1.50 1.20 0 2.30 2.50 2.40 4.20 0.15z m-5.45 0.65 c-1.40 -0.60 -2.85 -0.60 -2.50 0 0.15 0.30 1.05 0.50 1.90 0.45 1.35 0 1.45 -0.10 0.60 -0.45z m5.50 -4 c0.45 -0.40 0.75 -0.40 1 0 0.50 0.80 2.25 0.60 2.60 -0.30 0.50 -1.35 -1.30 -2.25 -4.05 -2.10 -1.35 0.10 -2.55 0.40 -2.65 0.70 -0.15 0.40 0.40 0.45 1.75 0.20 1.80 -0.30 4.10 0.10 4.10 0.75 0 0.15 -0.75 0.25 -1.60 0.20 -2.70 -0.20 -5.40 0 -5.40 0.45 0 0.55 3.55 0.65 4.25 0.10z"/>
  <path d="M9.30 15.25 c-0.55 -0.40 -0.75 -0.75 -0.50 -0.75 0.30 0 0.95 0.35 1.50 0.75 0.50 0.40 0.75 0.70 0.45 0.70 -0.25 0 -0.95 -0.30 -1.45 -0.70z"/>
 </g>
 <g fill="#bfa271">
  <path d="M7.50 39.55 c0 -0.40 5.20 -3.05 7.35 -3.75 0.75 -0.25 1.55 -0.10 2.25 0.40 0.60 0.45 1.95 0.80 3 0.80 2.10 0 2.45 0.35 2.05 1.90 -0.20 0.90 -0.65 1.10 -2.45 1.10 -2 0 -2.20 -0.10 -2.20 -1.25 0 -0.70 -0.20 -1.25 -0.50 -1.25 -0.25 0 -0.50 0.55 -0.50 1.25 0 0.95 -0.25 1.25 -1.05 1.25 -0.95 0 -1 -0.20 -0.70 -1.80 0.20 -1.20 0.15 -1.70 -0.20 -1.45 -0.30 0.15 -0.55 0.95 -0.55 1.80 0 1.10 -0.25 1.45 -1 1.45 -0.55 0 -1 -0.35 -1 -0.75 0 -0.40 -0.20 -0.75 -0.50 -0.75 -0.25 0 -0.50 0.35 -0.50 0.75 0 0.50 -0.55 0.75 -1.75 0.75 -0.95 0 -1.75 -0.20 -1.75 -0.45z"/>
  <path d="M35.30 37.20 c-0.50 -1.55 -0.80 -2.90 -0.70 -3 0.15 -0.10 0.60 1.05 1.10 2.60 0.50 1.55 0.80 2.90 0.70 3 -0.15 0.10 -0.60 -1.05 -1.10 -2.60z"/>
  <path d="M18.65 36 c-1 -0.40 -1.15 -0.80 -1.10 -2.85 l0.05 -2.40 0.55 2.25 0.50 2.25 0.45 -2.25 c0.30 -1.25 0.80 -2.60 1.20 -3 0.65 -0.65 0.75 -0.35 0.60 2.70 -0.15 3.65 -0.45 4 -2.25 3.30z"/>
  <path d="M21.60 35 c0 -0.95 0.15 -2.75 0.35 -4 l0.40 -2.25 0.05 2.75 c0 1.50 -0.20 3.30 -0.40 4 -0.35 1.15 -0.40 1.10 -0.40 -0.50z"/>
  <path d="M7.50 34.75 c0 -0.10 0.55 -1.05 1.25 -2.05 1.50 -2.20 1.65 -1.75 0.20 0.60 -0.95 1.55 -1.45 2.05 -1.45 1.45z"/>
  <path d="M33.75 32 c-0.20 -0.85 -0.25 -1.70 -0.10 -1.80 0.10 -0.15 0.35 0.50 0.55 1.35 0.40 2.10 0 2.50 -0.45 0.45z"/>
  <path d="M11.85 29.10 c-0.50 -0.50 -0.85 -1.40 -0.85 -1.95 0 -0.95 0.30 -1 2.85 -0.95 1.85 0.05 2.90 -0.15 3 -0.55 0.40 -1.15 1.60 -0.75 1.25 0.45 -0.15 0.70 -0.10 0.95 0.30 0.70 0.35 -0.20 0.60 -0.15 0.60 0.15 0 0.70 -4.10 3.05 -5.35 3.05 -0.55 0 -1.35 -0.40 -1.80 -0.90z"/>
  <path d="M22.25 24.90 c0.15 -1.20 0.40 -2.75 0.50 -3.50 0.30 -1.90 -0.25 -1.70 -1.80 0.55 -1.70 2.40 -3.20 2.70 -7.55 1.35 -3.05 -0.90 -3.35 -1.10 -3.85 -2.80 -0.30 -1.05 -0.55 -2.35 -0.55 -2.95 0 -0.95 0.20 -1.05 1.15 -0.80 0.60 0.20 1.30 0.55 1.60 0.80 1.45 1.40 1.75 -0.85 0.25 -2.40 -0.50 -0.60 -1.40 -1.20 -2 -1.40 -1.40 -0.45 -1.45 -2.95 0 -2.55 0.55 0.15 1.45 0.45 2 0.60 1.05 0.30 3.90 0.55 9.90 0.95 1.75 0.10 3.25 0.25 3.35 0.35 0.40 0.35 -0.85 4.90 -1.35 4.90 -0.30 0 -0.40 -0.35 -0.20 -0.75 0.70 -1.85 -5.85 -3.05 -8.10 -1.45 -1.35 0.95 -1.45 2.20 -0.10 2.20 0.85 0 1 0.35 1 2.35 l0 2.35 1.55 -1.50 c1.45 -1.35 1.45 -1.45 0.50 -1.60 -0.60 -0.10 -1.05 -0.45 -1.05 -0.75 0 -0.80 2.40 -1.90 2.80 -1.30 0.15 0.25 0.80 0.45 1.40 0.45 1.95 0 2.50 1.15 1.85 3.70 -0.30 1.25 -0.55 2.80 -0.55 3.50 0 0.70 -0.25 1.40 -0.50 1.55 -0.35 0.20 -0.40 -0.45 -0.25 -1.85z m-8.25 -3.40 c-0.40 -0.25 -1.40 -0.50 -2.25 -0.50 -1.15 0 -1.35 0.15 -0.75 0.50 0.40 0.25 1.45 0.50 2.25 0.50 1.15 0 1.35 -0.15 0.75 -0.50z"/>
  <path d="M19 16.50 l-1.75 -0.35 1.75 -0.10 c0.95 0 2.10 0.20 2.50 0.45 0.65 0.45 0.65 0.50 0 0.45 -0.40 -0.05 -1.55 -0.25 -2.50 -0.45z"/>
 </g>
 <g fill="#d7c39b">
  <path d="M7.50 39.55 c0 -0.35 6.60 -3.60 6.85 -3.35 0.05 0.05 -0.10 0.95 -0.40 1.95 l-0.50 1.85 -2.95 0 c-1.65 0 -3 -0.20 -3 -0.45z"/>
  <path d="M14.80 38.40 c0.50 -3 0.55 -3 2.15 -2.15 0.85 0.40 2.15 0.75 3 0.75 1.70 0 2.25 0.60 1.80 2 -0.35 1.10 -2 1.35 -2.40 0.40 -0.20 -0.50 -0.30 -0.50 -0.30 0 -0.05 0.85 -1.05 0.75 -1.05 -0.15 0 -0.40 -0.35 -0.75 -0.75 -0.75 -0.40 0 -0.75 0.35 -0.75 0.75 0 0.40 -0.45 0.75 -1 0.75 -0.85 0 -0.95 -0.25 -0.70 -1.60z"/>
  <path d="M19.50 34.30 c0 -0.95 0.25 -1.90 0.50 -2.05 0.30 -0.20 0.50 0.50 0.50 1.70 0 1.15 -0.20 2.05 -0.50 2.05 -0.25 0 -0.50 -0.75 -0.50 -1.70z"/>
  <path d="M11.90 29.20 c-0.25 -0.20 -0.40 -0.90 -0.40 -1.55 0 -1.05 0.20 -1.15 2.70 -1.15 2.95 0 3.85 0.65 2.70 1.85 -0.85 0.80 -4.45 1.45 -5 0.85z"/>
  <path d="M14.30 23.65 c-0.20 -0.25 -1.20 -0.65 -2.20 -1 l-1.85 -0.60 2.30 0.25 2.30 0.25 -0.05 -2.15 -0.05 -2.15 2.25 -0.15 c1.20 -0.10 2.40 -0.45 2.60 -0.75 0.30 -0.45 0.40 -0.45 0.40 0 0 0.30 0.50 0.65 1.10 0.75 1.70 0.25 1.55 1.05 -0.65 3.55 -1.75 2 -2.30 2.35 -3.90 2.35 -1.05 0 -2.05 -0.15 -2.25 -0.35z"/>
  <path d="M12.25 19.90 c1.15 -3.70 0.85 -4.75 -1.90 -6.15 -0.55 -0.25 -1.10 -0.80 -1.25 -1.10 -0.25 -0.85 1.50 -0.80 5.05 0.10 1.60 0.40 4.05 0.75 5.50 0.75 3.55 0 4.85 0.45 4.85 1.55 0 1.05 -1.05 1.20 -2.60 0.40 -1.35 -0.75 -5.05 -0.65 -6.30 0.10 -0.55 0.35 -1.25 1.70 -1.60 3.05 -0.40 1.45 -0.95 2.40 -1.40 2.40 -0.50 0 -0.60 -0.30 -0.35 -1.10z"/>
  <path d="M9.60 19.65 c-0.80 -1.45 -0.80 -3.30 0.05 -2.95 0.30 0.15 1 0.45 1.50 0.60 0.85 0.30 1.20 1.20 0.45 1.20 -0.25 0 -0.65 0.50 -0.95 1.10 l-0.50 1.15 -0.55 -1.10z"/>
 </g>
 <g fill="#e5d8c0">
  <path d="M15.10 38.15 c0.15 -2.05 -0.10 -2 4.30 -1.20 2.55 0.45 2.80 0.65 2.35 2 -0.35 1.15 -1.50 1.40 -1.95 0.45 -0.25 -0.50 -0.35 -0.50 -0.60 0 -0.15 0.30 -1.15 0.60 -2.25 0.60 l-2 0 0.15 -1.85z"/>
  <path d="M12.10 28.40 c0.30 -0.90 1.10 -1 2.15 -0.15 0.95 0.70 0.90 0.70 -0.65 0.75 -1.10 0 -1.60 -0.20 -1.50 -0.60z"/>
  <path d="M16 23.20 c0 -0.50 -0.35 -1.25 -0.80 -1.75 -0.55 -0.60 -0.70 -1.35 -0.50 -2.20 0.35 -1.30 0.40 -1.30 3.20 -1 3.60 0.45 4.10 0.90 2.65 2.45 -0.95 1 -1.50 1.20 -2.70 0.95 -1.35 -0.30 -1.50 -0.20 -1.25 0.75 0.20 0.60 0.10 1.25 -0.15 1.40 -0.25 0.15 -0.45 -0.15 -0.45 -0.60z"/>
  <path d="M12 14.70 c-2.50 -1.80 -2.55 -2.40 -0.20 -1.95 1.10 0.20 4.20 0.65 6.90 0.95 3.10 0.35 5.05 0.80 5.20 1.20 0.25 0.75 -0.75 0.75 -2.70 0.10 -1.35 -0.45 -4.40 -0.15 -6.70 0.65 -0.40 0.15 -1.55 -0.30 -2.50 -0.95z"/>
 </g>
</svg>