<?xml version="1.0" encoding="utf-8"?>
<!DOCTYPE svg PUBLIC "-//W3C//DTD SVG 1.0//EN" "http://www.w3.org/TR/2001/REC-SVG-20010904/DTD/svg10.dtd">
<svg version="1.0" xmlns="http://www.w3.org/2000/svg" width="40px" height="40px" viewBox="0 0 40 40" preserveAspectRatio="xMidYMid meet">
 <g fill="#0d030d">
  <path d="M20.75 39.50 c-0.30 -0.45 0.35 -10.30 0.95 -15.25 0.40 -3.15 1.30 -8.15 1.60 -8.95 0.25 -0.65 -0.05 -0.80 -1.45 -0.80 -1 0 -2.90 -0.20 -4.20 -0.45 -4.90 -0.95 -7.65 -1.05 -7.65 -0.30 0 0.45 0.50 0.75 1.25 0.75 1.15 0 1.25 0.20 1.25 2 0 1.80 -0.10 2 -1.25 2 -1.05 0 -1.25 0.25 -1.25 1.50 0 1.85 -0.80 1.95 -1.60 0.20 -0.45 -0.95 -0.45 -1.65 -0.05 -2.75 0.35 -0.90 0.40 -1.55 0.10 -1.75 -0.25 -0.15 -0.35 -1.05 -0.15 -2 0.20 -1.15 0.05 -2.10 -0.45 -2.85 -0.70 -1.10 -0.65 -1.30 1.05 -3.65 l1.85 -2.45 0.30 1.75 c0.25 1.45 0.35 1.55 0.45 0.50 0.10 -0.70 0.15 -1.65 0.20 -2.20 0.05 -0.55 1 -1.40 2.55 -2.25 2.15 -1.10 3.10 -1.30 6.50 -1.25 6.65 0.05 10.90 2.60 12.75 7.60 1.15 3 1.15 4.50 0.10 13.35 -0.45 4 0.80 12.85 1.95 13.55 0.25 0.15 0.45 0.90 0.45 1.75 0 0.80 0.25 1.45 0.50 1.45 0.30 0 0.50 0.25 0.50 0.50 0 0.70 -15.85 0.65 -16.25 0z m9.75 -23.25 c0 -0.90 -0.25 -1.25 -1 -1.25 -0.55 0 -1 0.20 -1 0.45 0 0.25 -0.15 0.80 -0.30 1.25 -0.25 0.60 0 0.80 1 0.80 1.05 0 1.30 -0.25 1.30 -1.25z m-10 -8.80 c0 -1.75 -0.10 -2 -0.70 -1.50 -0.40 0.35 -0.95 1.25 -1.25 2.10 -0.45 1.35 -0.40 1.45 0.75 1.45 1.10 0 1.20 -0.20 1.20 -2.05z"/>
  <path d="M8.30 39.05 c-0.30 -0.45 6.15 -3.55 7.40 -3.55 0.45 0 0.80 0.40 0.80 0.95 0 0.95 -1.25 1.55 -3.35 1.55 -0.70 0 -1.15 0.30 -1.15 0.75 0 0.80 -3.20 1.10 -3.70 0.30z"/>
  <path d="M8 36.90 c0 -0.75 -0.30 -1.40 -0.60 -1.55 -0.50 -0.15 -0.50 -0.50 0.05 -1.40 3 -4.95 3.10 -5.25 2.55 -7.50 -1.20 -4.70 -1.20 -4.45 -0.05 -4.45 0.85 0 1.05 0.30 1.05 1.75 0 0.95 0.25 1.75 0.50 1.75 0.30 0 0.50 0.65 0.50 1.45 0 1.65 0.85 2.05 4.40 2.05 l2.10 0 0 2.45 c0 1.35 -0.15 2.80 -0.30 3.25 -0.40 1 -1.70 1.05 -1.70 0.10 0 -0.60 -0.35 -0.60 -1.85 -0.15 -1.05 0.30 -2.30 0.85 -2.80 1.25 -0.45 0.45 -1 0.60 -1.20 0.45 -0.20 -0.20 -0.85 0.15 -1.50 0.75 l-1.15 1.05 0 -1.25z"/>
  <path d="M15.50 17.50 l0 -2 2.25 0 2.25 0 0 2 0 2 -2.25 0 -2.25 0 0 -2z"/>
 </g>
 <g fill="#200d11">
  <path d="M20.50 38.50 c0 -1.60 1.15 -2.10 1.70 -0.70 0.55 1.45 0.30 2.20 -0.70 2.20 -0.80 0 -1 -0.35 -1 -1.50z"/>
  <path d="M24 34.90 c0 -8.20 0.80 -13.75 2.95 -20.90 0.30 -0.95 0.55 -2.20 0.50 -2.75 -0.05 -1 -0.05 -1 -0.40 0 -0.15 0.55 -0.70 1.70 -1.15 2.50 -0.45 0.85 -1.10 3 -1.40 4.75 -0.35 1.80 -0.75 3.95 -1 4.75 -0.75 2.85 -0.55 -0.70 0.25 -4 0.40 -1.65 0.70 -3.65 0.75 -4.40 0 -1.25 -0.10 -1.35 -0.75 -0.65 -0.40 0.40 -0.75 1.25 -0.75 1.90 0 2.60 -0.55 3.40 -2.25 3.40 -1.40 0 -1.65 -0.20 -1.95 -1.55 -0.15 -0.85 -0.30 -2.45 -0.30 -3.55 0 -2 0 -2 1.65 -1.70 2.70 0.50 3.15 -0.30 2.95 -5.05 -0.10 -2.50 -0.40 -4.15 -0.70 -4.15 -0.35 0 -0.45 1.20 -0.30 3.45 0.15 1.90 0.10 3.70 -0.05 3.95 -0.15 0.25 -1.60 0.35 -3.20 0.20 l-2.95 -0.25 0.30 -1.55 c0.15 -0.85 0.85 -2.65 1.55 -3.95 1.40 -2.70 1.50 -3.05 0.75 -2.60 -1.10 0.65 -2.90 4.10 -3.25 6.15 -0.35 2.25 -1 2.70 -1.50 1.10 -0.30 -1 1 -4.25 2.60 -6.45 l0.90 -1.25 -1.30 0.85 c-1.45 0.95 -2.20 2.25 -2.85 4.85 -0.40 1.70 -0.50 1.75 -2.50 1.60 -2.20 -0.15 -3 0.75 -1.10 1.25 1.25 0.35 1.30 1.65 0.05 1.65 -0.60 0 -1.05 -0.45 -1.25 -1.25 -0.20 -0.70 -0.55 -1.25 -0.85 -1.25 -0.25 0 0.10 -0.80 0.85 -1.75 0.70 -0.95 1.75 -1.75 2.25 -1.75 0.55 0 0.95 -0.35 0.95 -0.75 0 -0.40 0.25 -0.75 0.50 -0.75 0.30 0 0.50 -0.30 0.50 -0.70 0 -0.40 1.05 -1.25 2.40 -1.90 4.75 -2.35 12.80 -0.80 16.40 3.15 3.25 3.55 3.90 8 2.20 15.05 -0.95 3.95 -0.95 4.30 -0.20 7.65 0.45 1.95 1.20 4.75 1.70 6.25 1.65 5.15 1.70 5.50 0.30 5.50 -1.05 0 -1.40 -0.45 -2.35 -2.85 -1 -2.50 -1.15 -3.70 -1.05 -8.75 0.05 -3.20 0.30 -6.80 0.60 -8 0.90 -4.05 0.60 -9.40 -0.70 -12.20 -0.65 -1.40 -1.45 -2.75 -1.75 -2.90 -0.75 -0.50 -0.70 -0.30 0.75 2.90 1.40 3.10 1.45 5.90 0.25 16.10 -0.50 4.25 -0.50 5.80 0.15 9.85 1 6.10 1 5.85 -0.45 5.85 -1 0 -1.30 -0.35 -1.75 -2 -0.30 -1.10 -0.65 -2 -0.80 -2 -0.30 0 0 1.70 0.60 3.20 0.20 0.55 0 0.80 -0.70 0.80 -0.85 0 -1.10 -0.50 -1.55 -3.15 -0.30 -1.75 -0.55 -4.20 -0.60 -5.40 0 -1.70 -0.10 -1.95 -0.45 -1.15 -0.40 1.05 0.20 8.25 0.75 9.20 0.15 0.30 -0.25 0.50 -0.95 0.50 l-1.30 0 0 -5.10z m3.85 -4.50 c-0.10 -0.90 -0.20 -0.30 -0.20 1.35 0 1.65 0.10 2.40 0.20 1.65 0.10 -0.75 0.10 -2.10 0 -3z m-0.90 -3.90 c0 -1.15 -0.05 -1.15 -0.45 -0.25 -0.25 0.55 -0.45 1.45 -0.45 2 -0.05 0.85 0.05 0.85 0.45 0.25 0.25 -0.40 0.45 -1.30 0.45 -2z m2.50 -5.70 l-0.10 -2.05 -0.35 2.25 c-0.20 1.25 -0.50 2.95 -0.70 3.75 -0.35 1.45 -0.35 1.45 0.45 -0.20 0.40 -0.90 0.70 -2.60 0.70 -3.75z m-0.10 -10.15 c-0.35 -3.40 -1.75 -7.15 -2.65 -7.15 -0.45 0 -0.30 0.75 0.55 2.65 0.70 1.40 1.40 3.65 1.55 5 0.45 3.35 0.90 2.95 0.55 -0.50z m-3.35 2 c0 -0.25 -0.20 -0.70 -0.45 -1.10 -0.40 -0.60 -0.60 -0.60 -1.25 -0.10 -0.45 0.35 -0.65 0.85 -0.50 1.10 0.30 0.55 2.20 0.60 2.20 0.10z m-0.05 -5.95 c-1.20 -3.35 -2.30 -4.85 -1.75 -2.45 0.50 2.10 2.25 5.95 2.55 5.65 0.15 -0.15 -0.20 -1.60 -0.80 -3.20z"/>
  <path d="M9.35 38.65 c-0.30 -0.30 0.90 -1.05 2.80 -1.80 0.65 -0.25 0.85 -0.05 0.85 0.90 0 1.10 -0.25 1.25 -1.65 1.25 -0.95 0 -1.85 -0.15 -2 -0.35z"/>
  <path d="M8 36.90 c0 -0.35 0.45 -1.30 1 -2.15 0.55 -0.80 1 -1.70 1 -2 0 -0.25 -0.45 0.25 -1 1.15 -0.95 1.55 -2 2.15 -2 1.05 0 -0.30 0.55 -1.25 1.25 -2.15 0.70 -0.90 1.25 -1.90 1.25 -2.20 0 -0.95 1.75 -1.55 5.45 -1.90 l3.55 -0.35 0 4.10 0 4.05 -1.45 0 c-0.85 0 -1.65 -0.20 -1.80 -0.50 -0.15 -0.25 0 -0.50 0.40 -0.50 0.45 0 0.85 -0.75 1.05 -1.85 0.50 -3.30 0.50 -3.30 -1.70 -2.95 -1.25 0.20 -2.35 0.10 -3 -0.30 -1.25 -0.80 -1.75 -0.25 -0.90 1.05 0.55 0.95 0.50 1.35 -0.70 3.40 -1.35 2.40 -2.40 3.30 -2.40 2.05z"/>
  <path d="M11.60 34.65 c0.90 -2.10 1.70 -2.80 2.55 -2.35 0.55 0.35 0.60 0.75 0.30 1.60 -0.25 0.65 -0.65 1.05 -0.90 0.90 -0.25 -0.15 -0.70 0.05 -1.05 0.45 -1 1.20 -1.50 0.85 -0.90 -0.60z"/>
  <path d="M22.65 29 c0 -1.50 0.10 -2.15 0.20 -1.35 0.10 0.75 0.10 1.95 0 2.75 -0.10 0.75 -0.20 0.10 -0.20 -1.40z"/>
  <path d="M9.85 25.50 c-1.05 -3.80 -1.05 -4 0.15 -4 0.55 0 1 0.25 1 0.50 0 0.30 0.80 0.50 1.75 0.50 1.70 0 1.75 0.05 1.75 2 0 1.80 -0.10 2 -1.25 2 -0.90 0 -1.25 0.25 -1.25 1 0 2.15 -1.35 0.90 -2.15 -2z"/>
  <path d="M8.30 19.90 c-0.45 -1.80 -0.35 -2.40 0.45 -2.40 0.90 0 0.95 -0.45 0.05 -1.65 -1.10 -1.40 -0.45 -2.85 1.30 -2.85 1.90 0 2.90 1.05 2.90 2.95 0 1.40 -0.15 1.55 -1.50 1.55 -1.40 0 -1.50 0.15 -1.50 1.75 0 2 -1.20 2.45 -1.70 0.65z"/>
  <path d="M14.15 12.15 c0.75 -0.10 1.95 -0.10 2.75 0 0.75 0.10 0.10 0.20 -1.40 0.20 -1.50 0 -2.15 -0.10 -1.35 -0.20z"/>
 </g>
 <g fill="#2c1627">
  <path d="M6.50 39.75 c0 -0.45 3.10 -1.80 3.40 -1.50 0.15 0.15 -0.20 0.40 -0.80 0.60 -0.60 0.15 -1.10 0.45 -1.10 0.70 0 0.25 -0.35 0.45 -0.75 0.45 -0.40 0 -0.75 -0.10 -0.75 -0.25z"/>
  <path d="M20.50 37.25 c0 -2.45 0.10 -2.75 1.05 -2.75 0.90 0 0.95 0.25 0.75 2.15 -0.10 1.15 -0.25 2.40 -0.25 2.75 -0.05 0.30 -0.40 0.60 -0.80 0.60 -0.60 0 -0.75 -0.65 -0.75 -2.75z"/>
  <path d="M27.55 39.15 c-0.60 -1.20 -1.40 -7 -1.10 -8.65 0.10 -0.70 0.60 1.10 1.10 4 0.95 5.30 0.95 6.35 0 4.65z"/>
  <path d="M34.70 38.20 c-0.15 -0.95 -0.75 -2.05 -1.25 -2.35 -0.55 -0.35 -0.95 -0.90 -0.95 -1.25 0 -0.40 0.25 -0.50 0.60 -0.30 0.40 0.25 0.45 0.10 0.20 -0.60 -0.20 -0.50 -0.60 -2.85 -0.90 -5.20 -0.40 -3.40 -0.35 -5.15 0.25 -8.65 0.45 -2.45 0.90 -4.60 1.05 -4.75 0.85 -0.80 0.85 0.75 0.15 3.85 -0.50 1.90 -0.85 4.30 -0.85 5.35 0 3.25 2.10 11.90 3.55 14.85 0.35 0.65 0.25 0.85 -0.50 0.85 -0.75 0 -1.10 -0.45 -1.35 -1.80z"/>
  <path d="M11 38 c0 -0.40 2.55 -2 3.25 -2 0.15 0 0.25 0.55 0.25 1.25 0 1.10 -0.20 1.25 -1.75 1.25 -0.95 0 -1.75 -0.20 -1.75 -0.50z"/>
  <path d="M8 37.05 c0 -0.25 0.60 -1.50 1.30 -2.85 1.15 -2.25 0.65 -1.95 -1 0.55 -0.40 0.55 -0.85 0.85 -1.05 0.65 -0.20 -0.20 0 -0.90 0.40 -1.60 1.65 -2.50 2.85 -4.85 2.85 -5.55 0 -0.40 0.45 -0.75 1 -0.75 0.75 0 1 0.35 1 1.45 0 1.20 -0.15 1.40 -1 1.20 -1.10 -0.30 -1.50 1.10 -0.40 1.45 0.40 0.15 0.20 1.10 -0.80 3.05 -1.20 2.55 -2.30 3.65 -2.30 2.40z"/>
  <path d="M12.15 34 c0.60 -1.10 1.25 -2 1.50 -2 0.60 0 0.40 0.65 -0.65 2.40 -1.40 2.30 -2.15 2 -0.85 -0.40z"/>
  <path d="M22.65 29.75 c0 -1.10 0.10 -1.50 0.20 -0.85 0.10 0.60 0.10 1.50 0 2 -0.15 0.45 -0.25 -0.05 -0.20 -1.15z"/>
  <path d="M24 30.55 c0 -0.55 0.25 -1.15 0.50 -1.30 0.30 -0.20 0.50 0.25 0.50 0.95 0 0.70 -0.20 1.30 -0.50 1.30 -0.25 0 -0.50 -0.45 -0.50 -0.95z"/>
  <path d="M21.50 25.40 c0 -1.55 1.20 -8.65 1.80 -10.50 0.20 -0.65 0 -0.90 -0.75 -0.90 -1.25 0 -1.35 -0.45 -0.25 -1.25 0.65 -0.45 0.85 -1.55 0.90 -5.40 l0.05 -4.85 -1.25 0 c-1.50 0 -3.10 2.25 -4.05 5.55 -0.85 2.95 -1.45 3.55 -1.45 1.40 0 -1.10 0.65 -2.80 1.70 -4.60 1.20 -2 1.50 -2.85 1 -2.85 -1 0 -3.65 4.35 -4 6.65 -0.40 2.15 -0.95 2.75 -1.45 1.50 -0.20 -0.55 0.35 -2.15 1.45 -4.25 1 -1.90 1.60 -3.40 1.35 -3.40 -0.80 0 -2.95 2.95 -3.55 4.85 -0.85 2.70 -1.30 3 -2.45 1.70 l-1 -1.10 -0.65 1.25 c-0.40 0.75 -0.90 1.10 -1.25 0.90 -0.35 -0.25 0.15 -1.25 1.55 -3.10 1.50 -2 2.95 -3.15 5.05 -4.25 2.65 -1.30 3.45 -1.50 6.65 -1.35 6.35 0.25 10.95 3.15 12.75 8.10 0.95 2.50 1.10 5 0.35 5 -0.25 0 -0.60 -0.85 -0.75 -1.85 -0.80 -4.60 -1.90 -6.60 -4.75 -8.40 -2.85 -1.80 -3.20 -1.55 -1.75 1.25 0.70 1.35 1.25 2.95 1.25 3.60 l0 1.10 -0.80 -1.10 c-0.45 -0.65 -1.20 -2.25 -1.65 -3.65 -1.35 -3.75 -1.60 -3.50 -1.25 1.20 0.25 2.95 0.15 4.55 -0.20 5 -0.70 0.85 -0.30 1.35 1.05 1.35 0.70 0 0.85 0.20 0.60 0.90 -0.75 1.80 -1.30 3.95 -1.75 6.85 -0.25 1.65 -0.55 3.45 -0.70 4 -0.10 0.55 -0.25 1.30 -0.25 1.65 -0.05 0.30 -0.40 0.60 -0.80 0.60 -0.50 0 -0.75 -0.50 -0.75 -1.60z"/>
  <path d="M17 18.75 c0 -0.40 0.35 -0.75 0.75 -0.75 0.40 0 0.75 -0.20 0.75 -0.50 0 -0.25 -0.35 -0.50 -0.75 -0.50 -0.40 0 -0.75 -0.25 -0.75 -0.50 0 -0.35 1 -0.50 2.50 -0.45 2.50 0.15 2.50 0.15 2.50 1.80 0 1.65 0 1.65 -2.50 1.65 -1.90 0 -2.50 -0.20 -2.50 -0.75z"/>
  <path d="M8.65 15.75 c-0.10 -1.40 0.05 -1.75 0.75 -1.75 0.70 0 0.90 0.40 0.90 1.75 -0.05 2.45 -1.50 2.45 -1.65 0z"/>
  <path d="M12.50 12.10 c0 -0.20 0.95 -0.30 2.15 -0.20 3.50 0.25 3.80 0.50 0.75 0.55 -1.60 0 -2.90 -0.10 -2.90 -0.35z"/>
  <path d="M8.50 11.50 c0 -0.25 0.45 -0.50 1.05 -0.50 0.55 0 0.85 0.25 0.70 0.50 -0.15 0.30 -0.65 0.50 -1.05 0.50 -0.40 0 -0.70 -0.20 -0.70 -0.50z"/>
  <path d="M21.35 10.15 c-0.55 -0.50 -0.40 -7.15 0.15 -7.15 0.30 0 0.50 1.60 0.50 3.75 0 3.75 -0.05 4.05 -0.65 3.40z"/>
  <path d="M29.30 7.20 c-0.50 -0.70 -0.75 -1.40 -0.65 -1.55 0.15 -0.10 0.65 0.35 1.15 1.05 0.45 0.75 0.70 1.45 0.60 1.60 -0.15 0.10 -0.65 -0.35 -1.10 -1.10z"/>
 </g>
 <g fill="#471c0b">
  <path d="M7 39.60 c0 -0.40 2.15 -1.60 2.75 -1.60 0.15 0 0.25 0.45 0.25 1 0 0.80 -0.35 1 -1.50 1 -0.80 0 -1.50 -0.20 -1.50 -0.40z"/>
  <path d="M21 31.85 c0 -1.05 -0.20 -1.15 -1.80 -0.95 -1.15 0.15 -1.95 0 -2.20 -0.40 -0.30 -0.50 -0.75 -0.50 -1.95 -0.10 -2.05 0.75 -3.95 -0.10 -4.35 -1.85 -0.15 -0.70 -0.85 -3.40 -1.55 -6 -0.85 -3.20 -1.05 -4.85 -0.70 -5.20 0.30 -0.30 0.40 -1.45 0.20 -2.70 -0.25 -2.05 -0.25 -2.15 1.05 -2.15 0.70 0 1.30 -0.25 1.30 -0.50 0 -0.30 1.10 -0.40 2.90 -0.20 4.55 0.45 7.60 1.25 7.60 1.95 0 0.40 0.50 0.75 1.15 0.85 0.90 0.10 1.15 0.50 1.25 2 l0.15 1.90 -2.15 0 c-1.55 0 -1.95 -0.15 -1.40 -0.50 0.60 -0.40 0.60 -0.50 -0.25 -0.50 -0.55 0 -1.50 -0.15 -2.10 -0.30 -0.70 -0.20 -1.15 -0.10 -1.15 0.25 0 0.30 0.35 0.55 0.75 0.55 0.40 0 0.75 0.20 0.75 0.45 0 0.75 -2.50 1.10 -5.30 0.75 l-2.70 -0.30 0 1.80 0 1.80 2.45 0 c1.40 0 2.65 0.25 2.80 0.50 0.15 0.30 0.75 0.50 1.30 0.50 0.75 0 0.95 0.35 0.95 1.75 0 1.60 0.10 1.75 1.50 1.75 1 0 1.50 0.25 1.50 0.75 0 0.40 0.45 0.75 1 0.75 1.05 0 1.30 1.15 0.70 3.40 -0.40 1.45 -1.70 1.45 -1.70 -0.05z m-4.50 -3.90 c0 -0.25 -0.65 -0.45 -1.50 -0.45 -0.80 0 -1.50 -0.20 -1.50 -0.50 0 -0.25 -0.35 -0.50 -0.75 -0.50 -0.60 0 -0.60 0.25 -0.20 1.15 0.40 0.95 0.80 1.10 2.25 0.95 0.95 -0.10 1.70 -0.40 1.70 -0.65z m-1.50 -13.25 c0 -0.40 -0.45 -0.70 -1 -0.70 -0.95 0 -1.35 0.95 -0.70 1.65 0.50 0.45 1.70 -0.20 1.70 -0.95z"/>
 </g>
 <g fill="#432840">
  <path d="M7.50 39.60 c0 -0.35 0.85 -0.90 3.15 -2 0.20 -0.10 0.35 0.40 0.35 1.10 0 1.15 -0.20 1.30 -1.75 1.30 -0.95 0 -1.75 -0.20 -1.75 -0.40z"/>
  <path d="M35.05 38.85 c-1.40 -3.65 -2 -6.35 -1.35 -6.35 0.35 0 1.05 1.40 1.55 3.15 0.50 1.70 1 3.40 1.15 3.75 0.10 0.30 -0.05 0.60 -0.35 0.60 -0.30 0 -0.75 -0.50 -1 -1.15z"/>
  <path d="M20.50 35.75 c0 -1.40 0.20 -1.75 1 -1.75 1.05 0 1.20 0.50 0.70 2.40 -0.50 1.80 -1.70 1.35 -1.70 -0.65z"/>
  <path d="M8.50 36.55 c0 -0.65 2.60 -5.15 2.85 -4.90 0.10 0.15 -0.35 1.40 -1.05 2.80 -1.25 2.45 -1.80 3.10 -1.80 2.10z"/>
  <path d="M7 35.05 c0 -0.25 0.80 -1.65 1.80 -3.10 1.40 -2 1.75 -2.35 1.50 -1.35 -0.60 2.65 -3.30 6.25 -3.30 4.45z"/>
  <path d="M12.30 34.15 c0.75 -1.65 1.20 -2.05 1.20 -1.20 0 0.25 -0.45 0.95 -1 1.60 l-1 1.20 0.80 -1.60z"/>
  <path d="M32.75 30.45 c-0.30 -1.40 -0.05 -2.40 0.50 -1.85 0.15 0.10 0.40 0.95 0.55 1.80 0.40 2.10 -0.60 2.15 -1.05 0.05z"/>
  <path d="M21 29.25 c0 -1.40 0.20 -1.75 1 -1.75 1 0 1.30 1.10 0.70 2.70 -0.60 1.50 -1.70 0.90 -1.70 -0.95z"/>
  <path d="M11.65 29.90 c-1.10 -1.40 -1.20 -1.90 -0.45 -1.90 0.45 0 0.80 0.40 0.80 0.95 0 0.55 0.30 1.10 0.65 1.20 0.35 0.20 0.40 0.30 0.05 0.30 -0.30 0.05 -0.80 -0.25 -1.05 -0.55z"/>
  <path d="M32.40 26.60 c-0.15 -0.45 -0.05 -1.30 0.15 -1.85 0.30 -0.75 0.40 -0.55 0.40 0.90 0.05 2 -0.20 2.40 -0.55 0.95z"/>
  <path d="M21.50 23.75 c0 -1.40 0.20 -1.75 1 -1.75 1.05 0 1.20 0.50 0.70 2.40 -0.50 1.80 -1.70 1.35 -1.70 -0.65z"/>
  <path d="M32.90 20 c1.50 -11.50 -1.60 -16.80 -10.35 -17.60 -2 -0.20 -2.90 0.80 -4.85 5.35 -1.20 2.80 -1.25 2.90 -1 1.05 0.15 -1.10 0.95 -3.05 1.75 -4.40 1.05 -1.65 1.30 -2.40 0.80 -2.40 -0.95 0 -2.65 2.55 -4.05 5.95 -0.85 2.05 -1.20 2.45 -1.20 1.55 0 -1.30 1 -3.55 2.75 -6.20 l0.95 -1.45 -1.55 0.85 c-1 0.50 -2 1.70 -2.85 3.40 -0.90 1.80 -1.20 2.20 -1 1.15 l0.35 -1.50 -1.10 1.25 c-0.65 0.70 -0.95 0.95 -0.80 0.60 0.30 -0.55 0.15 -0.55 -0.70 0 -0.60 0.35 -1.20 1.05 -1.35 1.50 -0.15 0.50 -0.60 0.90 -1 0.90 -0.50 0 0 -1 1.50 -2.90 3.10 -3.95 6.75 -5.80 11.20 -5.70 11.10 0.30 16.50 8.30 12.90 19.10 l-0.75 2.25 0.35 -2.75z"/>
  <path d="M22.50 18.80 c0 -0.70 0.25 -2.35 0.55 -3.70 0.50 -2.05 0.75 -2.45 1.50 -2.25 1.15 0.30 1.15 0 0.15 3.90 -0.50 2.05 -1.10 3.25 -1.50 3.25 -0.40 0 -0.70 -0.50 -0.70 -1.20z"/>
  <path d="M9.25 18.35 c-0.25 -0.35 -0.50 -1.35 -0.55 -2.25 -0.05 -1.45 0.05 -1.60 1 -1.30 1.45 0.45 1.65 0.70 0.80 1.20 -0.80 0.50 -0.40 1.15 0.80 1.30 0.55 0.10 0.60 -0.05 0.25 -0.50 -0.60 -0.70 -0.25 -1.30 0.80 -1.30 0.40 0 0.65 0.65 0.65 1.75 0 1.65 -0.10 1.75 -1.60 1.75 -0.90 -0.05 -1.85 -0.30 -2.15 -0.65z"/>
  <path d="M23.65 6.50 c0 -1.50 0.10 -2.15 0.20 -1.35 0.10 0.75 0.10 1.95 0 2.75 -0.10 0.75 -0.20 0.10 -0.20 -1.40z"/>
 </g>
 <g fill="#683711">
  <path d="M15.60 37.90 c-0.90 -0.90 -0.70 -2.25 0.40 -2.55 0.55 -0.15 1 -0.60 1 -1.05 0 -0.45 0.25 -0.80 0.55 -0.80 1 0 1.90 1.65 1.95 3.40 0 1.50 -0.10 1.60 -1.65 1.60 -0.90 0 -1.90 -0.25 -2.25 -0.60z"/>
  <path d="M17 30.70 c0 -0.60 -0.35 -0.75 -1.25 -0.60 -1.05 0.20 -1.25 0.05 -1.25 -0.90 0 -0.65 0.25 -1.20 0.55 -1.20 0.30 0 0.20 -0.35 -0.25 -0.75 -0.40 -0.40 -0.95 -0.75 -1.25 -0.75 -0.95 0 -0.60 -1.50 0.35 -1.50 0.80 -0.05 0.80 -0.05 0 -0.70 -1.30 -0.95 -1.10 -1.30 0.75 -1.30 3.10 0 3.85 0.45 3.85 2.30 0 1.35 0.20 1.70 1 1.70 0.80 0 1 0.35 1 1.55 0 0.85 -0.30 1.85 -0.70 2.25 -1 0.95 -2.80 0.90 -2.80 -0.10z"/>
  <path d="M11.05 28.90 c-0.70 -1.80 -2.05 -6.65 -2.05 -7.30 0 -0.35 0.45 -0.60 1 -0.60 0.55 0 1 0.25 1 0.50 0 0.30 0.35 0.50 0.75 0.50 1.10 0 0.95 2 -0.10 2 -0.80 0.05 -0.80 0.10 -0.15 0.65 0.90 0.70 1.35 5.35 0.55 5.35 -0.30 0 -0.75 -0.50 -1 -1.10z"/>
  <path d="M8.35 19.05 c-0.15 -0.55 0.10 -1.45 0.45 -2 0.40 -0.55 0.50 -1.10 0.30 -1.25 -0.70 -0.40 -0.70 -4.80 0 -4.80 1.65 0 6.40 1.70 6.40 2.30 0 0.40 -0.45 0.70 -1 0.70 -0.60 0 -1 0.35 -1 0.85 0 0.65 0.15 0.70 0.60 0.25 0.35 -0.35 0.90 -0.60 1.30 -0.60 0.40 0 1.15 -0.45 1.65 -1.05 0.70 -0.80 1.25 -0.95 2.40 -0.70 0.85 0.20 1.55 0.65 1.55 1 0 0.40 0.65 0.75 1.65 0.85 1.40 0.15 1.60 0.35 1.75 1.70 0.10 0.90 -0.15 1.90 -0.60 2.35 -0.95 0.90 -7.45 1.70 -7.70 0.90 -0.10 -0.30 -1.35 -0.55 -2.85 -0.55 -1.65 0 -2.75 -0.25 -2.90 -0.60 -0.15 -0.35 -0.30 -0.15 -0.30 0.50 -0.05 1.35 -1.35 1.45 -1.70 0.15z m10.40 -1.55 c-0.15 -0.25 -0.75 -0.50 -1.30 -0.50 -0.55 0 -0.85 0.25 -0.70 0.50 0.15 0.30 0.75 0.50 1.30 0.50 0.55 0 0.85 -0.20 0.70 -0.50z m-7.10 -0.55 c-0.30 -0.30 -0.45 -0.85 -0.30 -1.20 0.10 -0.40 -0.25 -0.90 -0.80 -1.25 -0.70 -0.35 -1.05 -0.35 -1.05 0 0 0.25 0.35 0.50 0.75 0.50 0.90 0 1 0.85 0.15 1.10 -0.80 0.30 -0.05 1.40 1 1.40 0.60 0 0.65 -0.15 0.25 -0.55z m10.15 -0.70 c-0.60 -0.45 -1.90 -0.70 -3.25 -0.65 l-2.30 0.05 2.25 0.20 c1.25 0.15 2.45 0.40 2.75 0.70 0.25 0.25 0.70 0.45 1 0.45 0.25 0 0.05 -0.35 -0.45 -0.75z"/>
 </g>
 <g fill="#921714">
  <path d="M19.50 37.25 c0 -1.55 0.15 -1.75 1.25 -1.75 1.10 0 1.25 0.20 1.25 1.75 0 1.55 -0.15 1.75 -1.25 1.75 -1.10 0 -1.25 -0.20 -1.25 -1.75z"/>
  <path d="M15 36.75 c0 -1.45 0.75 -1.60 2.20 -0.40 0.60 0.50 0.75 0.55 0.45 0.15 -0.90 -0.95 -0.80 -2 0.10 -2 0.50 0 0.75 0.55 0.75 1.75 0 1.65 -0.10 1.75 -1.75 1.75 -1.55 0 -1.75 -0.15 -1.75 -1.25z"/>
  <path d="M11.25 27.65 c-0.55 -0.40 -1.75 -3.95 -1.75 -5.10 0 -0.30 0.85 -0.55 2 -0.55 1.45 0 2 0.20 2 0.75 0 0.50 0.50 0.75 1.50 0.75 1.05 0 1.50 0.25 1.50 0.80 0 0.55 -0.25 0.70 -0.85 0.45 -0.50 -0.15 -1.85 -0.50 -3.05 -0.70 -1.75 -0.35 -2 -0.30 -1.55 0.25 0.30 0.40 1.35 0.70 2.25 0.70 0.95 0 1.70 0.25 1.70 0.50 0 0.30 0.35 0.50 0.80 0.50 0.45 0 0.70 0.35 0.60 0.90 -0.10 0.65 -0.75 0.90 -2.40 1 -1.25 0.05 -2.50 -0.05 -2.75 -0.25z"/>
 </g>
 <g fill="#54395e">
  <path d="M34.65 37.25 c-0.30 -0.95 -0.35 -1.75 -0.10 -1.75 0.55 0 1.45 1.70 1.45 2.70 0 1.40 -0.80 0.85 -1.35 -0.95z"/>
  <path d="M13.50 36.80 c0 -0.95 2.55 -1.55 3.05 -0.70 0.75 1.15 0.50 1.40 -1.30 1.40 -1.15 0 -1.75 -0.25 -1.75 -0.70z"/>
  <path d="M8.50 36.75 c0 -0.25 0.45 -1.15 1 -2 1.30 -1.95 1.30 -1.25 0 0.85 -0.55 0.90 -1 1.45 -1 1.15z"/>
  <path d="M7 35 c0 -0.65 3.10 -5.05 3.40 -4.80 0.30 0.35 -2.50 5.30 -3 5.30 -0.20 0 -0.40 -0.20 -0.40 -0.50z"/>
  <path d="M33.30 33.35 c-0.45 -1.85 -0.95 -7.10 -0.65 -6.85 0.25 0.25 1.85 6.65 1.85 7.55 0 0.95 -0.90 0.40 -1.20 -0.70z"/>
  <path d="M22 21 c0 -1.65 0.15 -2 1 -2 1.05 0 1.25 0.80 0.70 2.90 -0.55 1.95 -1.70 1.35 -1.70 -0.90z"/>
  <path d="M33.30 16.45 c0.50 -6.30 -1.10 -10.30 -5.05 -12.85 -0.55 -0.35 -0.30 -0.30 0.55 0.10 2.30 1.10 4 3.40 4.95 6.60 0.70 2.35 0.70 3.40 0.25 6.35 -0.75 4.95 -1.10 4.85 -0.70 -0.20z"/>
  <path d="M17.65 19.15 c-0.35 -0.10 -0.65 -0.45 -0.65 -0.70 0 -0.30 0.20 -0.40 0.40 -0.25 0.20 0.10 0.70 0 1.10 -0.25 0.60 -0.35 0.55 -0.50 -0.35 -0.75 -1.65 -0.45 -1.40 -1.20 0.30 -1.20 2.65 0 4.15 1.15 2.20 1.65 -0.85 0.20 -0.85 0.25 0 0.30 0.45 0 0.85 0.40 0.85 0.80 0 0.75 -2.40 1 -3.85 0.40z"/>
  <path d="M7.50 9.80 c0 -1.05 4.30 -5.65 6.15 -6.65 2.90 -1.55 3.25 -1.40 1.30 0.45 -0.95 0.90 -1.95 1.55 -2.30 1.50 -0.30 -0.05 -1.60 1.05 -2.85 2.50 -1.25 1.45 -2.30 2.45 -2.30 2.20z"/>
  <path d="M14.05 9.40 c-0.05 -0.45 0.70 -2.25 1.65 -4.05 0.95 -1.80 1.60 -3.40 1.45 -3.55 -0.20 -0.15 1.10 -0.30 2.85 -0.30 3.55 0 3.85 0.45 0.50 0.65 -1.95 0.10 -2.35 0.30 -3.55 2.10 -0.70 1.10 -1.65 2.90 -2.10 4 -0.45 1.10 -0.80 1.60 -0.80 1.15z"/>
  <path d="M17 8.10 c0 -0.90 1.85 -4.45 2.60 -4.90 0.50 -0.30 0.50 -0.25 0.05 0.35 -0.35 0.40 -1.05 1.75 -1.60 3 -0.55 1.20 -1.05 1.90 -1.05 1.55z"/>
 </g>
 <g fill="#744930">
  <path d="M20 38.05 c0 -0.50 0.15 -1.95 0.30 -3.25 0.30 -1.85 0.55 -2.30 1.35 -2.30 0.90 0 0.95 0.25 0.65 2.30 -0.15 1.30 -0.30 2.75 -0.30 3.25 0 0.60 -0.35 0.95 -1 0.95 -0.65 0 -1 -0.35 -1 -0.95z"/>
  <path d="M12 37.60 c0 -0.45 1.65 -1.35 3.40 -1.85 0.65 -0.20 1.10 -0.10 1.10 0.20 0 0.30 0.20 0.55 0.45 0.55 0.20 0 0.30 -0.55 0.15 -1.25 -0.10 -0.75 0 -1.25 0.35 -1.25 0.35 0 0.55 0.70 0.45 1.70 -0.10 1.55 -0.30 1.75 -1.85 2 -2.55 0.40 -4.05 0.35 -4.05 -0.10z"/>
  <path d="M17 31.15 c0 -0.60 0.55 -1.25 1.30 -1.60 2 -0.90 1.10 -1.20 -1 -0.35 -1.50 0.60 -1.80 0.65 -1.80 0.05 0 -0.35 0.30 -0.80 0.65 -0.90 0.30 -0.15 -0.25 -0.30 -1.25 -0.30 -2.50 -0.05 -2.60 -1.40 -0.15 -1.85 1.80 -0.30 2.90 -1.20 1.55 -1.20 -0.40 0 -0.90 -0.20 -1.05 -0.50 -0.20 -0.30 0.40 -0.50 1.45 -0.50 1.60 0 1.80 0.15 1.80 1.25 0 1 0.25 1.25 1.25 1.25 0.80 0 1.25 -0.30 1.25 -0.75 0 -0.45 0.45 -0.75 1.05 -0.75 1 0 1.05 0.20 0.80 3.15 -0.15 1.70 -0.30 3.15 -0.35 3.20 0 0.05 -0.60 0.10 -1.35 0.10 -0.80 -0.05 -2 0.10 -2.75 0.30 -1.20 0.30 -1.40 0.20 -1.40 -0.60z"/>
  <path d="M11 21.75 c0 -1.65 0.10 -1.75 1.75 -1.75 1.65 0 1.75 0.10 1.75 1.75 0 1.65 -0.10 1.75 -1.75 1.75 -1.65 0 -1.75 -0.10 -1.75 -1.75z"/>
  <path d="M22 20.25 c0 -1.05 -0.25 -1.25 -1.45 -1.25 -0.80 0 -1.55 0.25 -1.65 0.50 -0.25 0.85 -8.40 0.05 -8.40 -0.80 0 -0.40 -0.45 -0.70 -1 -0.70 -1.10 0 -1.30 -0.50 -0.45 -1.35 0.40 -0.40 0.40 -0.65 0 -0.85 -0.90 -0.60 -0.60 -1.20 0.45 -0.95 0.65 0.15 0.95 0.65 0.85 1.35 -0.05 0.80 0.20 1.05 1.15 1.15 0.70 0.05 0.95 0 0.65 -0.15 -1.20 -0.50 -0.65 -1.20 0.90 -1.20 1.50 0 1.55 -0.05 1.25 -1.70 -0.30 -1.45 -0.15 -1.70 0.80 -2 1.80 -0.45 2.40 -0.35 2.40 0.45 0 0.55 0.55 0.75 1.95 0.75 1.65 0 1.95 0.15 2.15 1.25 0.25 1.10 0.15 1.25 -0.80 0.90 -1.75 -0.60 -3.75 -0.35 -4.80 0.60 -1.25 1.15 -1.30 1.75 -0.05 1.40 0.50 -0.15 1.10 0 1.25 0.30 0.35 0.55 1.80 0.20 1.80 -0.50 0 -0.25 -0.60 -0.45 -1.30 -0.45 -0.70 0 -1.15 -0.20 -0.95 -0.50 0.55 -0.90 3.70 -0.55 4.75 0.50 0.55 0.55 1.35 1 1.75 1 0.75 0 1 1.30 0.45 2.70 -0.50 1.25 -1.70 0.95 -1.70 -0.45z"/>
  <path d="M23 16.05 c0 -0.80 -0.25 -1.55 -0.60 -1.65 -0.35 -0.15 -0.45 -0.60 -0.25 -1.10 0.30 -0.70 0.65 -0.85 1.75 -0.55 0.75 0.20 1.40 0.40 1.45 0.45 0.05 0.05 -0.15 1.05 -0.45 2.20 -0.60 2.45 -1.90 2.90 -1.90 0.65z"/>
  <path d="M10.15 14.40 c-2.10 -1.30 -2.10 -1.90 0.10 -1.90 1.60 0 1.75 0.10 1.75 1.50 0 0.85 -0.05 1.50 -0.10 1.45 -0.10 0 -0.90 -0.50 -1.75 -1.05z"/>
 </g>
 <g fill="#72436e">
  <path d="M7 39.50 c0 -0.15 1.95 -1.05 4.35 -2.10 4.15 -1.75 4.40 -1.80 5.60 -1 1.25 0.80 1.25 0.80 0.60 -0.05 -0.95 -1.20 -0.55 -1.40 2.10 -1.05 2.25 0.30 3.15 1.30 1.75 1.85 -0.50 0.20 -0.50 0.30 0 0.30 0.30 0.05 0.60 0.40 0.60 0.85 0 0.70 -0.40 0.80 -3 0.50 -2.45 -0.30 -3 -0.20 -3 0.40 0 0.60 -0.80 0.70 -4.50 0.65 -2.45 -0.05 -4.50 -0.20 -4.50 -0.35z"/>
  <path d="M7 35.20 c0 -0.55 2.10 -3.25 2.35 -3 0.30 0.30 -1.45 3.30 -1.95 3.30 -0.20 0 -0.40 -0.15 -0.40 -0.30z"/>
  <path d="M32.80 29.60 c-0.25 -0.90 -0.25 -1.80 -0.10 -1.95 0.35 -0.35 0.95 2.15 0.65 2.95 -0.10 0.35 -0.35 -0.10 -0.55 -1z"/>
  <path d="M21 27.50 c0 -1.65 0.15 -2 0.95 -2 0.80 0 0.95 0.30 0.85 1.40 -0.10 0.75 -0.20 1.65 -0.25 2 0 0.30 -0.40 0.60 -0.80 0.60 -0.55 0 -0.75 -0.55 -0.75 -2z"/>
  <path d="M32.65 24 c0 -1.80 0.10 -2.50 0.20 -1.60 0.10 0.85 0.10 2.35 0 3.25 -0.10 0.85 -0.20 0.15 -0.20 -1.65z"/>
  <path d="M21.50 23.80 c0 -0.65 0.25 -2.40 0.55 -3.85 0.30 -1.50 0.55 -3 0.60 -3.30 0 -0.35 0.45 -0.65 1 -0.65 0.85 0 0.95 0.25 0.65 1.65 -0.35 1.55 -0.55 2.50 -1.05 5.75 -0.35 1.90 -1.75 2.25 -1.75 0.40z"/>
  <path d="M33.10 19.25 c0 -0.55 0.15 -1.45 0.40 -2 0.55 -1.25 0.55 0.05 0 1.75 -0.30 1 -0.40 1.05 -0.40 0.25z"/>
  <path d="M33.25 10.80 c-0.20 -0.95 -1 -2.85 -1.80 -4.15 l-1.50 -2.40 1.50 1.70 c1.35 1.50 2.90 5.85 2.35 6.40 -0.15 0.15 -0.40 -0.55 -0.55 -1.55z"/>
  <path d="M14.50 7.75 c0 -0.55 2.45 -4.75 2.80 -4.75 0.15 0 -0.35 1.05 -1.10 2.40 -1.65 2.80 -1.70 2.90 -1.70 2.35z"/>
  <path d="M14 3.55 c0 -0.60 1.95 -1.75 2.30 -1.40 0.15 0.10 -0.35 0.60 -1.05 1.05 -0.70 0.45 -1.25 0.60 -1.25 0.35z"/>
  <path d="M17.95 1.85 c0.25 -0.25 1.20 -0.35 2.10 -0.25 1.65 0.15 1.65 0.20 -0.40 0.40 -1.15 0.15 -1.95 0.10 -1.70 -0.15z"/>
 </g>
 <g fill="#8f6035">
  <path d="M16.50 37.50 c0 -0.70 0.25 -0.90 0.90 -0.65 0.70 0.25 0.75 0.15 0.25 -0.40 -1 -1.05 -0.75 -1.45 0.85 -1.45 1.40 0 1.50 0.15 1.50 1.75 0 1.65 -0.10 1.75 -1.75 1.75 -1.40 0 -1.75 -0.20 -1.75 -1z"/>
  <path d="M20.50 33.50 c0 -1.65 0.15 -2 1 -2 1.05 0 1.25 0.80 0.70 2.90 -0.55 1.95 -1.70 1.35 -1.70 -0.90z"/>
  <path d="M17 31.80 c0 -0.85 0.55 -1.50 1.90 -2.30 2.65 -1.60 1.20 -1.80 -1.85 -0.30 -2.75 1.40 -4.50 1.65 -5.45 0.70 -0.95 -0.95 -0.70 -1.30 1.05 -1.55 1.55 -0.20 1.55 -0.20 -0.25 -0.25 -1.45 -0.10 -1.90 -0.30 -1.90 -0.95 0 -0.50 -0.45 -2.35 -1 -4.05 -1.20 -3.80 -1.25 -4.60 -0.25 -4.60 0.40 0 0.75 -0.35 0.75 -0.75 0 -0.55 0.25 -0.60 1.25 -0.25 0.80 0.30 1.25 0.30 1.25 0 0 -0.30 -0.25 -0.50 -0.55 -0.50 -0.30 0 -0.45 -0.30 -0.30 -0.70 0.15 -0.40 -0.15 -1.10 -0.65 -1.55 -0.55 -0.50 -0.85 -1.10 -0.70 -1.30 0.15 -0.25 -0.20 -0.45 -0.75 -0.45 -0.70 0 -1.05 -0.30 -1.05 -1 0 -0.95 0.20 -1 1.90 -0.70 2.90 0.50 3.65 1.05 3.30 2.45 -0.25 1 -0.15 1.15 0.75 0.90 0.55 -0.15 1.05 -0.75 1.15 -1.35 0.10 -0.80 0.45 -1.05 1.60 -0.95 0.80 0.05 1.65 0.40 1.85 0.75 0.30 0.45 0.80 0.45 2.20 0.05 1 -0.35 2.15 -0.45 2.55 -0.30 0.95 0.35 0.90 1.65 -0.10 1.65 -0.60 0 -0.70 0.25 -0.40 0.85 0.20 0.50 0.40 1.70 0.40 2.65 0.05 1.50 -0.15 1.80 -1.15 1.90 -1.60 0.25 -3.55 -0.85 -3.55 -2 0 -0.65 -0.35 -0.90 -1.30 -0.90 -0.70 0 -1.15 -0.20 -0.95 -0.50 0.45 -0.75 3.40 -0.60 4.60 0.25 0.65 0.45 1.20 0.55 1.40 0.25 0.45 -0.75 -3.30 -2.10 -4.95 -1.80 -1.35 0.30 -2.75 1.50 -2.80 2.45 0 0.20 0.30 0.35 0.65 0.25 0.60 -0.15 0.85 0.15 0.85 1.10 0 0.30 -1.40 0.55 -3.10 0.60 l-3.15 0.10 2.65 0.15 c2.50 0.20 2.60 0.25 2.60 1.70 0 1.35 0.10 1.45 2 1.45 1.80 0 2 0.15 2 1.20 0 0.95 0.30 1.25 1.40 1.40 1 0.10 1.40 0.45 1.50 1.35 0.25 1.75 -0.35 3.55 -1.15 3.55 -0.40 0 -0.75 0.25 -0.75 0.50 0 0.30 -0.35 0.50 -0.75 0.50 -0.40 0 -0.75 0.35 -0.75 0.75 0 0.40 -0.45 0.75 -1 0.75 -0.70 0 -1 -0.35 -1 -1.20z m-1.55 -5.60 c0.85 -0.20 1.55 -0.50 1.55 -0.70 0 -0.45 -6 -2.20 -6.35 -1.80 -0.30 0.30 2.15 2.80 2.75 2.80 0.25 0 1.20 -0.15 2.05 -0.30z"/>
 </g>
 <g fill="#a87a39">
  <path d="M17 37.75 c0 -0.40 0.40 -0.75 0.90 -0.75 0.80 -0.05 0.80 -0.05 0 -0.55 -1.60 -0.90 -0.95 -1.45 1.60 -1.45 2.15 0 2.50 0.15 2.50 0.95 0 0.60 -0.40 1.05 -1.10 1.20 l-1.15 0.20 1.15 0.10 c2.25 0.10 1.05 1.05 -1.40 1.05 -1.90 0 -2.50 -0.20 -2.50 -0.75z"/>
  <path d="M17 33.40 c0 -2.15 0.55 -3.20 2 -3.80 1.45 -0.65 2.25 -1.85 1.55 -2.30 -0.20 -0.15 -1.15 0.25 -2.10 0.90 -2.75 1.85 -3.45 1.95 -3.45 0.55 0 -0.65 0.30 -1.40 0.65 -1.60 0.30 -0.20 1.05 -0.95 1.60 -1.60 0.90 -1.05 0.90 -1.20 0.15 -0.90 -1.25 0.45 -1.15 0.10 0.65 -2.15 0.95 -1.15 2.10 -2.05 2.90 -2.15 0.70 -0.10 -0.20 -0.25 -2.05 -0.30 l-3.40 -0.05 0 1.95 c0 2.10 -0.65 2.65 -2.25 2 -0.55 -0.20 -1.40 -0.40 -1.90 -0.40 -0.80 -0.05 -0.80 0.05 -0.10 1.45 0.45 0.85 1 1.50 1.25 1.50 0.25 0 0.35 0.35 0.20 0.75 -0.20 0.40 -0.05 0.75 0.25 0.75 0.30 0 0.55 0.55 0.55 1.25 0 0.70 -0.20 1.25 -0.40 1.25 -1.15 0 -2.10 -1.65 -3.05 -5.40 -1.40 -5.40 -0.80 -8.05 1.65 -7.30 0.80 0.25 0.90 0.15 0.65 -0.85 -0.20 -0.65 -0.35 -1.35 -0.35 -1.50 0 -0.20 -0.80 -0.70 -1.75 -1.15 -1.05 -0.50 -1.75 -1.20 -1.75 -1.75 0 -1.35 0.35 -1.50 2.40 -0.95 2.05 0.55 6.65 1.05 10.25 1.10 1.30 0.05 2.35 0.20 2.35 0.45 0 0.20 0.35 0.35 0.75 0.35 0.95 0 0.95 0.55 -0.20 4.75 -0.55 1.95 -1.10 5.75 -1.30 8.50 -0.50 8 -0.40 7.75 -3.30 7.75 -2.20 0 -2.45 -0.10 -2.45 -1.10z m-3.25 -11.40 c0.15 -0.25 -0.15 -0.50 -0.70 -0.50 -0.60 0 -1.05 0.25 -1.05 0.50 0 0.30 0.30 0.50 0.70 0.50 0.40 0 0.90 -0.20 1.05 -0.50z m4.45 -3.80 c1.15 -0.45 1 -1.20 -0.20 -1.20 -0.55 0 -1 -0.20 -1 -0.50 0 -0.65 3 -0.65 4 0 0.65 0.40 0.65 0.50 -0.10 0.50 -1.50 0 -1.45 0.90 0.10 1.10 0.80 0.15 1.40 0.10 1.25 0 -0.15 -0.15 0 -0.55 0.30 -0.90 0.40 -0.50 0.15 -0.85 -1 -1.40 -2.15 -1.15 -4.30 -1 -5.75 0.40 -1.55 1.40 -1.65 2 -0.30 1.65 0.55 -0.15 1.15 -0.05 1.30 0.20 0.30 0.55 0.40 0.55 1.40 0.15z"/>
  <path d="M8.85 15.65 c-0.65 -0.65 -0.35 -1.05 0.65 -0.80 0.55 0.15 1 0.45 1 0.70 0 0.50 -1.20 0.60 -1.65 0.10z"/>
 </g>
 <g fill="#805786">
  <path d="M20.50 39.50 c0 -0.25 -0.55 -0.50 -1.25 -0.50 -0.90 0 -1.25 -0.25 -1.25 -0.95 0 -0.55 0.30 -1.10 0.65 -1.20 0.50 -0.20 0.50 -0.30 0 -0.30 -1.50 -0.10 -0.50 -1.05 1.10 -1.05 0.95 0 1.75 0.25 1.75 0.50 0 0.30 -0.35 0.50 -0.75 0.50 -0.40 0 -0.75 0.25 -0.75 0.50 0 0.30 0.30 0.50 0.70 0.50 0.65 0 1.30 1 1.30 2.05 0 0.25 -0.35 0.45 -0.75 0.45 -0.40 0 -0.75 -0.20 -0.75 -0.50z"/>
  <path d="M34.30 36.15 c-0.65 -2.15 -1.35 -5.45 -1.50 -7.40 l-0.30 -3.50 0.95 4.25 c0.55 2.35 1.45 5.60 2 7.20 1.20 3.40 1.20 3.30 0.55 3.30 -0.25 0 -1 -1.75 -1.70 -3.85z"/>
  <path d="M10 38.60 c0 -0.45 1.20 -1.15 4.10 -2.30 1.70 -0.65 1.90 -0.65 2.70 0.25 0.50 0.55 0.60 0.95 0.30 0.95 -0.35 0 -0.60 0.35 -0.60 0.75 0 1.05 -1.90 0.95 -2.15 -0.10 -0.20 -0.85 -0.25 -0.85 -0.30 0 -0.05 0.65 -0.50 0.85 -2.05 0.85 -1.10 0 -2 -0.20 -2 -0.40z"/>
  <path d="M7 35.05 c0 -0.25 0.35 -0.70 0.75 -1.05 0.80 -0.70 0.90 -0.50 0.45 0.70 -0.30 0.85 -1.20 1.10 -1.20 0.35z"/>
  <path d="M21.50 22.75 c0 -1.40 0.20 -1.75 1 -1.75 1.05 0 1.20 0.50 0.70 2.40 -0.50 1.80 -1.70 1.35 -1.70 -0.65z"/>
  <path d="M17.50 19.05 c0 -0.25 0.35 -0.55 0.75 -0.75 0.40 -0.15 0.75 -0.50 0.75 -0.80 0 -0.25 -0.35 -0.50 -0.75 -0.50 -0.40 0 -0.75 -0.25 -0.75 -0.55 0 -0.30 0.35 -0.40 0.80 -0.25 0.45 0.15 1.25 0.30 1.85 0.30 1 0 1 0 0.10 0.70 -0.90 0.65 -0.90 0.70 0.15 1 0.60 0.20 1 0.60 0.85 0.85 -0.40 0.60 -3.75 0.60 -3.75 0z"/>
  <path d="M33.65 14.50 c0 -2.05 0.10 -2.90 0.20 -1.85 0.10 1 0.10 2.70 0 3.75 -0.10 1 -0.20 0.15 -0.20 -1.90z"/>
  <path d="M7.95 9.10 c0.25 -0.50 0.90 -1.25 1.35 -1.65 0.55 -0.45 0.45 -0.10 -0.30 0.95 -1.30 1.75 -1.80 2.10 -1.05 0.70z"/>
  <path d="M31.65 6.85 l-1.15 -2.10 1.25 1.50 c1.05 1.25 1.65 2.75 1.15 2.75 -0.10 0 -0.65 -0.95 -1.25 -2.15z"/>
  <path d="M13.50 4.05 c0 -0.55 2.40 -2.35 2.70 -2 0.10 0.10 -0.50 0.70 -1.25 1.35 -0.80 0.65 -1.45 0.95 -1.45 0.65z"/>
 </g>
 <g fill="#b68b4e">
  <path d="M16.90 38.15 c-0.50 -0.10 -0.90 -0.70 -0.90 -1.30 0 -0.80 0.15 -0.90 0.60 -0.45 0.35 0.35 1.05 0.60 1.65 0.55 0.95 0 0.95 -0.05 -0.10 -0.45 -0.75 -0.30 -1.15 -0.90 -1.15 -1.65 0 -2.20 0.60 -4.35 1.25 -4.35 0.35 0 0.90 -0.30 1.25 -0.70 0.30 -0.40 0.90 -0.60 1.30 -0.45 0.50 0.20 0.70 -0.15 0.70 -1.30 0 -1.80 -0.40 -1.90 -2.10 -0.60 -0.65 0.55 -1.60 1.05 -2.15 1.15 -0.55 0.05 -1.35 0.55 -1.85 1.05 -1.10 1.05 -2.35 1.05 -3.65 0.05 -0.75 -0.60 -0.80 -0.90 -0.35 -1.05 0.50 -0.20 0.50 -0.35 -0.05 -0.85 -0.65 -0.55 -2.85 -8.15 -2.85 -9.90 0 -1.25 0.85 -1.55 2.10 -0.70 0.60 0.45 1.40 0.80 1.70 0.80 0.55 0 0.65 -0.55 0.65 -4.15 0.05 -1.20 0.20 -1.40 1.15 -1.30 0.65 0.10 1.40 0 1.70 -0.15 0.90 -0.60 2.70 0.15 2.70 1.10 0 0.50 0.40 1.05 0.90 1.15 0.45 0.15 0.15 0.25 -0.70 0.30 -1.85 0.05 -4.35 1.90 -4 2.85 0.15 0.40 -0.05 0.70 -0.45 0.70 -0.40 0 -0.75 0.35 -0.75 0.75 0 0.45 0.45 0.75 1.25 0.75 1 0 1.25 0.25 1.25 1.25 0 1.85 1.20 1.55 3.05 -0.75 0.95 -1.20 2.05 -2 2.70 -2 1.35 0 1.55 -1.80 0.20 -2.50 -1.25 -0.70 -1.20 -1.50 0.05 -1.50 0.65 0 1 -0.35 1 -0.95 0 -0.70 0.25 -0.90 1.05 -0.70 0.90 0.25 1 0.55 0.70 2.10 -0.15 1 -0.50 2.35 -0.75 3.05 -0.45 1.40 -1.30 7.95 -1.80 14.40 -0.25 3.55 -0.45 4.10 -1.20 4.10 -0.55 0 -1.10 0.25 -1.25 0.50 -0.20 0.30 0.25 0.50 1 0.50 0.75 0 1.20 0.20 1 0.50 -0.30 0.50 -3.20 0.60 -4.85 0.15z m0.55 -12.90 c0.75 -0.85 0.75 -0.85 -0.05 -0.60 -0.45 0.15 -1.55 0.10 -2.35 -0.20 -0.85 -0.25 -2.25 -0.65 -3.05 -0.90 -1.45 -0.45 -1.55 -0.40 -1.20 0.60 0.60 2.05 1.30 2.45 3.60 2.20 1.20 -0.15 2.55 -0.65 3.05 -1.10z m4.05 -2.85 c0 -0.75 -3.45 3.10 -3.45 3.85 0 0.30 0.75 -0.35 1.70 -1.35 0.95 -1.05 1.75 -2.15 1.75 -2.50z m-7.50 -0.65 c0 -0.80 -0.45 -0.95 -1.70 -0.45 -1.25 0.45 -0.95 1.20 0.45 1.20 0.80 0 1.25 -0.30 1.25 -0.75z"/>
  <path d="M17.30 16.50 c0.35 -0.35 0.95 -0.35 1.75 -0.05 1.15 0.45 1.10 0.50 -0.50 0.50 -1.20 0.05 -1.60 -0.10 -1.25 -0.45z"/>
  <path d="M9.90 14.15 c-0.55 -0.15 -0.90 -0.70 -0.90 -1.45 0 -1.25 0.45 -1.40 2.40 -0.90 1.40 0.40 1.45 1.70 0.05 1.70 -0.55 0 -0.85 0.25 -0.70 0.50 0.15 0.30 0.25 0.45 0.15 0.45 -0.10 -0.05 -0.55 -0.15 -1 -0.30z"/>
 </g>
 <g fill="#9b70af">
  <path d="M7 39.75 c0 -0.25 2.75 -1.75 3.25 -1.75 0.15 0 0.25 0.45 0.25 1 0 0.80 -0.35 1 -1.75 1 -0.95 0 -1.75 -0.10 -1.75 -0.25z"/>
  <path d="M12 38.50 c0 -1.30 0.25 -1.55 2.05 -2 1.30 -0.35 2.25 -0.40 2.60 -0.10 0.35 0.30 1.65 0.65 3 0.85 1.85 0.30 2.35 0.55 2.35 1.30 0 1.10 -1.60 1.95 -1.90 1.05 -0.25 -0.75 -3.40 -0.80 -3.85 -0.10 -0.30 0.50 -2.25 0.75 -2.25 0.30 0 -0.15 0.20 -0.80 0.50 -1.50 0.25 -0.70 0.35 -1.30 0.20 -1.30 -0.15 0 -0.50 0.70 -0.75 1.50 -0.70 1.95 -1.95 2 -1.95 0z"/>
  <path d="M35.55 39.15 c-0.85 -1.65 -2.55 -7.75 -2.50 -9.10 0 -0.75 0.40 0 0.95 1.95 0.50 1.80 1.25 4.30 1.65 5.65 0.75 2.40 0.75 3 -0.10 1.50z"/>
  <path d="M17.50 36 c-0.55 -0.35 -0.25 -0.50 1.15 -0.50 1 0 1.85 0.25 1.85 0.50 0 0.65 -2 0.65 -3 0z"/>
  <path d="M7 35.25 c0 -0.55 2.65 -4.25 2.90 -4 0.15 0.10 -0.35 1.15 -1.10 2.25 -1.20 1.85 -1.80 2.40 -1.80 1.75z"/>
 </g>
 <g fill="#d7a65a">
  <path d="M16.15 37.65 c-0.70 -0.25 -0.90 -1.65 -0.25 -1.65 0.20 0 0.65 0.25 1 0.60 0.35 0.35 1.65 0.75 3 0.95 l2.35 0.30 -2.75 0.05 c-1.50 0 -3.05 -0.10 -3.35 -0.25z"/>
  <path d="M17.55 36.05 c-0.50 -0.35 -0.55 -1.05 -0.25 -3.10 0.35 -2.70 0.35 -2.70 0.75 -0.95 0.20 0.95 0.25 1.90 0.15 2.10 -0.15 0.25 0 0.40 0.25 0.40 0.30 0 0.55 -0.60 0.55 -1.35 0 -1.05 0.15 -1.20 0.45 -0.70 0.35 0.55 0.50 0.35 0.70 -0.75 0.10 -0.80 0.25 -0.05 0.30 1.70 0.05 2.90 0 3.10 -1.05 3.10 -0.65 0 -1.45 -0.20 -1.85 -0.45z"/>
  <path d="M21.35 33.15 c0.15 -1.90 0.50 -3.60 0.80 -3.90 0.30 -0.35 0.35 0.30 0.15 1.95 -0.15 1.35 -0.30 3.10 -0.30 3.85 0 0.80 -0.20 1.45 -0.50 1.45 -0.25 0 -0.35 -1.35 -0.15 -3.35z"/>
  <path d="M11.70 29.60 c-0.85 -0.55 -3.40 -11.80 -2.75 -12 0.30 -0.10 0.40 -0.45 0.20 -0.75 -0.15 -0.30 0.20 -0.15 0.90 0.30 1.50 1.10 3.15 1.15 2.75 0.10 -0.15 -0.40 -0.45 -1.10 -0.60 -1.50 -0.20 -0.55 0 -0.75 0.85 -0.75 2.70 0 -0.10 -0.80 -3.40 -0.95 -0.35 -0.05 -0.65 -0.60 -0.65 -1.30 0 -1.20 0.10 -1.30 1.90 -0.95 1 0.20 2.30 0.50 2.90 0.70 0.55 0.25 1.55 0.30 2.25 0.15 0.65 -0.10 2.20 0 3.40 0.30 1.35 0.30 2.55 0.30 3.05 0.05 0.55 -0.30 1.15 -0.25 1.75 0.15 0.75 0.55 0.75 0.95 0.30 2.75 -0.60 2.20 -1.55 2.85 -1.55 1.10 0 -0.55 -0.35 -1 -0.75 -1 -0.40 0 -0.75 -0.20 -0.75 -0.50 0 -0.30 -1.50 -0.45 -3.60 -0.45 -2 0.05 -3.35 0.20 -3 0.30 0.50 0.20 0.50 0.40 0.05 0.95 -0.80 0.95 -0.15 2.50 0.75 1.75 0.35 -0.30 0.75 -0.40 0.90 -0.25 0.40 0.40 -0.15 2.20 -0.65 2.20 -0.25 0 -0.45 0.30 -0.45 0.65 0 0.45 -0.70 0.70 -2.25 0.70 -1.25 0 -2.10 -0.15 -1.90 -0.30 0.70 -0.55 0.75 -2.15 0.05 -1.95 -0.35 0.15 -0.65 0.90 -0.65 1.70 0 1.35 0.15 1.45 1.90 1.45 1.45 0 1.85 0.20 1.85 0.90 0 0.85 -0.80 0.85 -3.35 0.05 -0.80 -0.20 -0.80 -0.25 -0.10 1.75 0.30 0.85 0.85 1.55 1.25 1.55 0.45 0 0.70 0.60 0.70 1.75 0 1.75 -0.30 2.05 -1.30 1.35z"/>
  <path d="M13.50 29 c0 -0.80 0.35 -1 1.50 -1 1.15 0 1.50 -0.20 1.50 -1 0 -1.20 0.30 -1.25 1.30 -0.30 0.95 1 0.95 1.10 -1 2.25 -2.10 1.35 -3.30 1.35 -3.30 0.05z"/>
  <path d="M22 26.75 c-0.05 -0.25 -0.10 -1.85 -0.05 -3.50 0.10 -2.80 0.05 -2.95 -0.70 -2.05 -0.75 0.95 -0.75 0.95 -0.75 -0.10 0 -0.75 -0.30 -1.10 -1 -1.10 -0.65 0 -1 -0.35 -1 -1 0 -1.15 0.40 -1.20 3.05 -0.40 1.75 0.50 1.95 0.75 1.90 2.10 -0.05 1.75 -1.25 6.80 -1.45 6.05z"/>
  <path d="M18.65 16.65 c0.45 -0.10 1.25 -0.10 1.75 0 0.45 0.15 0.05 0.25 -0.90 0.25 -0.95 0 -1.35 -0.10 -0.85 -0.25z"/>
 </g>
 <g fill="#cbae79">
  <path d="M16.80 37.20 c-0.20 -0.50 -0.10 -0.65 0.35 -0.35 0.30 0.20 1.60 0.50 2.85 0.70 l2.25 0.30 -2.55 0.10 c-1.95 0.05 -2.65 -0.15 -2.90 -0.75z"/>
  <path d="M18.50 35.95 c0 -0.25 -0.20 -0.40 -0.45 -0.20 -0.85 0.50 -1 -0.50 -0.20 -1.75 0.40 -0.70 0.60 -0.85 0.45 -0.35 -0.15 0.45 -0.05 0.85 0.20 0.85 0.30 0 0.50 -0.50 0.50 -1.15 0 -0.65 0.35 -1.60 0.75 -2.15 0.65 -0.85 0.70 -0.70 0.75 2.20 0 2.75 -0.10 3.10 -1 3.10 -0.55 0 -1 -0.25 -1 -0.55z"/>
  <path d="M14.50 29.50 c0 -0.25 -0.75 -0.60 -1.70 -0.75 -1.40 -0.30 -1.75 -0.60 -2 -1.90 -0.15 -0.80 -0.20 -1.60 -0.05 -1.75 0.15 -0.15 0.25 0.10 0.25 0.55 0 0.55 0.45 0.90 1.40 0.95 1.90 0.10 2.15 0.05 3.70 -0.35 1.05 -0.25 1.35 -0.15 1.65 0.75 0.25 0.75 0.05 1.30 -0.60 1.75 -1.15 0.90 -2.65 1.30 -2.65 0.75z"/>
  <path d="M15.35 24.45 c-0.80 -0.20 -1.70 -0.65 -2.10 -0.95 -0.35 -0.30 -1.35 -0.60 -2.10 -0.60 -1.30 -0.05 -1.50 -0.30 -2.05 -2.55 -0.70 -2.90 -0.30 -4.10 1 -3.15 0.60 0.45 0.85 1.25 0.75 2.85 -0.10 2.15 -0.10 2.20 1.55 2.20 0.85 0 1.60 -0.20 1.55 -0.50 0 -0.25 -0.65 -0.45 -1.50 -0.35 -1.40 0.10 -1.95 -0.55 -0.95 -1.15 0.30 -0.15 0.50 -0.75 0.50 -1.30 0 -0.50 0.25 -0.95 0.50 -0.95 0.30 0 0.45 -0.75 0.40 -1.60 -0.15 -1.40 0.05 -1.70 1 -1.80 0.60 -0.10 1.10 -0.40 1.10 -0.65 0 -0.25 0.80 -0.45 1.75 -0.45 2.20 0 2.40 1.30 0.30 1.75 -1.85 0.40 -3.15 1.80 -2.55 2.75 0.30 0.50 0.60 0.55 1.10 0.15 0.50 -0.40 0.90 -0.40 1.55 0.05 1.10 0.85 1.10 1.30 -0.15 1.30 -0.80 0 -1 0.35 -1 1.75 l0 1.80 2.10 -2.10 c2 -1.95 2.05 -2.15 1.15 -2.55 -0.65 -0.25 -0.40 -0.30 0.75 -0.10 0.95 0.15 1.95 0.45 2.15 0.65 0.50 0.45 -3.25 5.55 -3.80 5.20 -0.20 -0.10 -0.65 0 -1 0.25 -0.35 0.25 -1.20 0.30 -2 0.05z"/>
  <path d="M21.20 15.70 c-0.95 -0.40 -0.20 -2.10 1.05 -2.40 1.55 -0.40 2.85 0.15 2.55 1.05 -0.15 0.40 -0.30 0.95 -0.30 1.20 0 0.45 -2.30 0.55 -3.30 0.15z"/>
 </g>
 <g fill="#cb85cb">
  <path d="M7 39.75 c0 -0.25 6.40 -3.25 7 -3.25 0.20 0 0.15 0.80 -0.15 1.75 l-0.50 1.75 -3.20 0 c-1.75 0 -3.15 -0.10 -3.15 -0.25z"/>
  <path d="M14.75 38.15 c0.45 -2.45 0.50 -2.50 2.20 -1.50 0.80 0.45 2.05 0.85 2.75 0.85 1.05 0 1.30 0.25 1.30 1.25 0 1.15 -0.20 1.25 -2 1.25 -1.65 0 -2 -0.15 -2 -1 0 -0.55 -0.25 -1 -0.55 -1 -0.30 0 -0.65 0.45 -0.80 1 -0.50 1.85 -1.30 1.10 -0.90 -0.85z"/>
  <path d="M34.35 35.45 c-0.50 -1.40 -0.85 -2.80 -0.80 -3.15 0 -0.30 0.45 0.75 1 2.40 0.55 1.60 0.90 3 0.80 3.10 -0.10 0.10 -0.55 -0.95 -1 -2.35z"/>
  <path d="M22.55 23.50 c0 -0.40 0.20 -1.20 0.45 -1.75 0.25 -0.65 0.45 -0.70 0.45 -0.25 0 0.40 -0.20 1.20 -0.45 1.75 -0.25 0.65 -0.45 0.70 -0.45 0.25z"/>
 </g>
 <g fill="#f1c172">
  <path d="M15.75 36.95 c-0.55 -0.85 -0.10 -0.90 1.25 -0.20 1.20 0.70 1.20 0.70 0.15 0.75 -0.60 0 -1.25 -0.25 -1.40 -0.55z"/>
  <path d="M11.65 29.40 c-0.30 -0.35 -0.65 -1.30 -0.80 -2.15 -0.15 -0.80 -0.45 -1.95 -0.65 -2.45 -0.25 -0.70 -0.20 -0.85 0.20 -0.60 0.35 0.20 0.60 0.80 0.60 1.40 0 0.55 0.40 1.10 1 1.25 0.55 0.15 1 0.45 1 0.70 0 0.25 0.80 0.45 1.75 0.45 1.95 0 2.30 0.70 0.80 1.50 -1.35 0.70 -3.30 0.65 -3.90 -0.10z"/>
  <path d="M13.75 23.80 c-0.90 -0.65 -0.90 -0.70 0.15 -1.25 1.45 -0.80 1.60 -0.70 1.60 0.70 0 1.40 -0.40 1.55 -1.75 0.55z"/>
  <path d="M9.10 20.40 c-0.65 -2.75 -0.30 -3.65 1.10 -3.10 0.65 0.25 0.80 0.65 0.50 1.65 -0.20 0.70 -0.35 1.90 -0.30 2.70 0.10 2.25 -0.60 1.55 -1.30 -1.25z"/>
  <path d="M12.30 19.60 c-0.20 -0.35 -0.10 -0.95 0.25 -1.40 0.85 -1 -0.25 -3 -2.15 -3.80 -0.95 -0.45 -1.40 -1 -1.40 -1.85 0 -0.90 0.20 -1.10 0.90 -0.80 0.45 0.20 1.20 0.35 1.60 0.35 0.40 0 1.65 0.30 2.75 0.70 1.35 0.50 3.30 0.65 5.80 0.55 2.15 -0.15 4.10 -0.05 4.40 0.10 0.40 0.25 0.35 1 -0.15 2.60 -0.40 1.20 -0.70 1.80 -0.75 1.35 -0.10 -1.50 -3.60 -2.60 -7.90 -2.45 -1.65 0.05 -1.65 0 -1.20 3.25 0 0.20 0.40 0.30 0.80 0.10 0.50 -0.20 0.75 0.05 0.75 0.70 0 0.65 -0.35 1 -1 1 -0.55 0 -1 -0.35 -1 -0.75 0 -1.05 -0.90 -0.95 -1.10 0.15 -0.15 0.65 -0.25 0.70 -0.60 0.20z"/>
 </g>
 <g fill="#dbc89c">
  <path d="M18.90 37.65 c0.60 -0.10 1.50 -0.10 2 0 0.45 0.15 -0.05 0.25 -1.15 0.20 -1.10 0 -1.50 -0.10 -0.85 -0.20z"/>
  <path d="M12.50 28.50 l0 -1.60 2.15 0.35 c1.50 0.20 1.90 0.15 1.35 -0.20 -0.65 -0.45 -0.65 -0.55 0.05 -0.55 1.25 0 1.50 1.30 0.50 2.20 -0.45 0.45 -1.60 0.95 -2.45 1.10 -1.55 0.30 -1.60 0.25 -1.60 -1.30z"/>
  <path d="M13.80 23.75 c-0.85 -0.65 -0.85 -0.75 -0.15 -1.05 0.65 -0.25 0.80 -0.70 0.55 -2.25 -0.35 -2.15 -0.55 -2 3.30 -2.20 2.50 -0.10 4.50 0.45 4.50 1.25 0 0.30 -1.05 1.55 -2.30 2.75 -2.45 2.40 -4.15 2.85 -5.90 1.50z"/>
  <path d="M11.85 19.90 c0.15 -0.65 0.50 -1.40 0.75 -1.75 0.75 -0.95 0 -2.55 -1.65 -3.50 -1.90 -1.15 -1.85 -1.65 0.30 -1.65 1.25 0 1.75 0.20 1.75 0.75 0 0.65 0.20 0.70 1.10 0.20 0.70 -0.35 2.20 -0.45 4.25 -0.25 5.35 0.55 6.05 0.80 5.80 1.85 -0.30 1.15 -0.25 1.15 -2.50 0.20 -0.95 -0.40 -2.45 -0.75 -3.25 -0.75 -2.05 0 -4.40 1.35 -4.40 2.50 0 0.55 -0.20 1 -0.50 1 -0.25 0 -0.50 0.55 -0.50 1.25 0 0.75 -0.30 1.25 -0.70 1.25 -0.50 0 -0.60 -0.35 -0.45 -1.10z"/>
  <path d="M9.60 19.90 c-0.70 -0.70 -0.80 -2.90 -0.15 -2.90 0.90 0 1.55 1.40 1.15 2.45 -0.30 0.85 -0.50 0.95 -1 0.45z"/>
 </g>
 <g fill="#eedeb5">
  <path d="M11.90 29.45 c-0.50 -0.25 -0.90 -0.95 -0.90 -1.45 0 -0.75 0.35 -1 1.45 -1 0.85 0 1.65 0.25 1.80 0.50 0.15 0.30 0.75 0.50 1.30 0.50 1.50 0 1.15 0.85 -0.60 1.45 -1.90 0.65 -1.95 0.65 -3.05 0z"/>
  <path d="M14.90 24.15 c-0.35 -1.85 -0.50 -5.20 -0.25 -5.50 0.45 -0.45 5.15 -0.45 6.20 0 l1.10 0.50 -1.10 1.45 c-0.95 1.30 -1.35 1.45 -2.95 1.25 -2 -0.25 -2.40 0.10 -1.15 1.15 0.40 0.35 0.60 0.80 0.45 1.05 -0.30 0.55 -2.15 0.60 -2.30 0.10z"/>
  <path d="M9.35 19.65 c-0.50 -0.45 -0.45 -2.65 0.05 -2.65 0.80 0 1.50 1.10 1.25 2.05 -0.25 1 -0.75 1.20 -1.30 0.60z"/>
  <path d="M13.35 18.20 c-0.20 -0.20 -0.35 -0.70 -0.35 -1.15 0 -0.55 0.15 -0.60 0.55 -0.20 0.30 0.30 0.50 0.80 0.35 1.15 -0.10 0.30 -0.35 0.40 -0.55 0.20z"/>
  <path d="M22.75 16.10 c-0.55 -0.10 -1.20 -0.40 -1.45 -0.65 -0.70 -0.65 -4.20 -0.55 -6.15 0.15 -1.35 0.50 -1.85 0.50 -2.55 0 -0.45 -0.35 -1.45 -0.90 -2.20 -1.25 -0.80 -0.30 -1.40 -0.95 -1.40 -1.45 0 -1 0.60 -1.15 1.90 -0.40 0.45 0.25 3.65 0.80 7.10 1.25 3.40 0.45 6.25 0.85 6.30 0.90 0.05 0.05 -0.05 0.45 -0.25 0.85 -0.15 0.45 -0.75 0.70 -1.30 0.60z"/>
 </g>
 <g fill="#eaa4f3">
  <path d="M7.50 39.60 c0 -0.20 0.60 -0.65 1.40 -0.95 0.75 -0.30 2.20 -0.90 3.25 -1.35 2.75 -1.20 2.50 0.30 -0.30 1.65 -2.20 1.05 -4.35 1.40 -4.35 0.65z"/>
  <path d="M14.75 38.15 c0.20 -1.05 0.40 -1.95 0.50 -2.05 0.10 -0.10 0.85 0.20 1.70 0.60 0.80 0.45 2.30 0.80 3.30 0.80 1.80 0 2.15 0.55 1.25 2 -0.40 0.65 -0.60 0.65 -1.60 0.05 -0.80 -0.50 -1.15 -0.50 -1.30 -0.10 -0.10 0.30 -1.10 0.55 -2.20 0.55 l-2 0 0.35 -1.85z"/>
  <path d="M8.10 33.50 c0.60 -0.80 1.15 -1.50 1.25 -1.50 0.10 0 -0.20 0.70 -0.70 1.50 -0.45 0.85 -1.05 1.50 -1.25 1.50 -0.25 0 0.05 -0.65 0.70 -1.50z"/>
 </g>
 <g fill="#e4d0f8">
  <path d="M14.80 38.15 c0.40 -2.40 0.40 -2.40 1.80 -1.45 0.60 0.45 1.60 0.80 2.20 0.80 0.60 0 1.25 0.30 1.35 0.65 0.20 0.50 0.30 0.50 0.30 0 0.05 -0.80 1.55 -0.85 1.55 -0.10 0 0.90 -1.65 2.30 -1.90 1.55 -0.10 -0.30 -0.60 -0.60 -1.15 -0.60 -0.50 0 -0.95 -0.20 -0.95 -0.50 0 -0.95 -1.60 -0.50 -1.85 0.50 -0.15 0.55 -0.60 1 -1 1 -0.55 0 -0.60 -0.45 -0.35 -1.85z"/>
 </g>
 <g fill="#fbf5d9">
  <path d="M12.15 29.15 c-0.80 -0.30 -0.85 -1.65 -0.10 -1.65 0.55 0 1.95 1.20 1.95 1.70 0 0.35 -1 0.35 -1.85 -0.05z"/>
  <path d="M14.80 21.20 c-0.50 -1.35 -0.35 -2.20 0.45 -2.20 0.40 0 0.75 0.25 0.75 0.50 0 0.30 -0.20 0.50 -0.45 0.50 -0.25 0 -0.35 0.45 -0.20 1 0.30 1.20 -0.10 1.35 -0.55 0.20z"/>
  <path d="M19.50 19.50 c0 -0.25 0.35 -0.50 0.75 -0.50 0.40 0 0.75 0.25 0.75 0.50 0 0.30 -0.35 0.50 -0.75 0.50 -0.40 0 -0.75 -0.20 -0.75 -0.50z"/>
  <path d="M9.35 18.80 c-0.30 -0.80 0.10 -1.40 0.70 -1 0.60 0.35 0.55 1.70 0 1.70 -0.25 0 -0.55 -0.30 -0.70 -0.70z"/>
  <path d="M21.30 15.40 c-0.60 -0.35 -2.35 -0.45 -4.70 -0.25 -3.10 0.25 -4 0.10 -5.65 -0.75 -2.10 -1.10 -2.70 -2.25 -0.80 -1.65 1.85 0.55 5.90 1.20 10 1.50 2.65 0.25 3.85 0.55 3.70 0.90 -0.25 0.80 -1.40 0.95 -2.55 0.25z"/>
 </g>
</svg>