<?xml version="1.0" encoding="utf-8"?>
<!DOCTYPE svg PUBLIC "-//W3C//DTD SVG 1.0//EN" "http://www.w3.org/TR/2001/REC-SVG-20010904/DTD/svg10.dtd">
<svg version="1.0" xmlns="http://www.w3.org/2000/svg" width="40px" height="40px" viewBox="0 0 40 40" preserveAspectRatio="xMidYMid meet">
 <g fill="#081308">
  <path d="M2.90 38.05 c1.40 -1.25 1.90 -2.05 1.50 -2.20 -0.45 -0.15 -0.35 -0.55 0.50 -1.45 0.60 -0.70 1.10 -1.85 1.10 -2.70 0 -0.85 0.10 -1.65 0.25 -1.80 0.20 -0.15 0.35 -1.95 0.45 -3.95 0.10 -2.80 0.05 -3.35 -0.30 -2.30 -0.50 1.40 -1.35 1.85 -1.45 0.75 -0.05 -0.35 -0.05 -2.05 -0.05 -3.75 0 -2.40 -0.20 -3.15 -0.75 -3.15 -0.45 0 -0.55 -0.25 -0.30 -0.60 0.20 -0.35 0.40 -1.45 0.45 -2.40 0.35 -5.15 1.55 -7.65 4.85 -9.95 5.70 -3.90 14.20 -3.80 18.85 0.35 l2.10 1.85 0.15 4.50 c0.10 2.50 0.40 5.15 0.70 5.90 0.70 1.80 0.70 4.10 0.05 5.25 -0.40 0.65 -0.05 1.75 1.70 5.10 2.15 4.05 2.35 4.30 4.75 5.15 1.60 0.55 2.55 1.20 2.55 1.70 0 0.60 -0.40 0.75 -1.95 0.50 -1.85 -0.25 -2 -0.15 -2.30 1.20 -0.30 1.30 -0.55 1.45 -2.20 1.45 -1.05 0 -3.30 0.15 -5 0.30 -2.50 0.30 -3.05 0.50 -3.05 1.25 0 1.30 -3.30 1.35 -3.65 0.10 -0.20 -0.85 -0.25 -0.85 -0.30 0 -0.05 0.75 -0.75 0.85 -7.30 0.85 l-7.25 0 -0.30 -1.25 c-0.35 -1.35 -1.20 -1.70 -1.20 -0.50 0 0.95 -1.55 1.75 -3.35 1.75 l-1.40 0 2.15 -1.95z m18.20 -3.95 c-0.80 -0.55 -1.10 -1.20 -1.10 -2.65 0 -1.95 0 -1.95 1.95 -1.95 1.55 0 2.20 0.30 3.20 1.50 0.70 0.85 1.75 1.50 2.25 1.50 0.90 0 1.05 -0.45 1.30 -4.60 0.15 -2.55 0.40 -5.60 0.60 -6.80 0.20 -1.55 0.10 -2.45 -0.50 -3.35 -0.45 -0.65 -0.80 -1.55 -0.80 -2 0 -0.45 -0.45 -0.75 -1.25 -0.75 -1.10 0 -1.25 -0.20 -1.25 -1.75 0 -1.55 0.15 -1.80 1.50 -2.05 1.65 -0.35 1.85 -0.80 0.75 -1.70 -0.40 -0.35 -0.75 -1.25 -0.75 -2.05 0 -0.95 -0.25 -1.45 -0.75 -1.45 -0.40 0 -0.75 -0.20 -0.75 -0.45 0 -0.25 -0.90 -0.65 -2.05 -0.95 -2.70 -0.70 -4.95 0.05 -4.95 1.60 0 0.70 -0.50 1.40 -1.25 1.80 -0.85 0.45 -1.25 1.10 -1.25 1.95 0 2.50 -0.55 3.55 -1.80 3.55 -1.30 0 -1.35 0.05 -0.90 1.20 0.15 0.45 0.70 0.80 1.20 0.80 0.65 0 0.95 0.55 1.20 2.50 0.20 1.60 0.60 2.50 1 2.50 0.85 0 1.30 1.10 1.30 3 0 1.05 -0.30 1.45 -1.25 1.70 -1.50 0.40 -1.65 1.60 -0.25 1.95 0.85 0.20 1 0.70 1 3.05 0 1.65 -0.20 2.80 -0.55 2.80 -0.30 0 -0.45 0.40 -0.35 0.90 0.15 0.90 2.80 1.60 4.60 1.15 0.95 -0.20 0.95 -0.25 -0.10 -0.95z m-11.65 -15.85 c-1.60 -2.30 -1.75 -1.85 -0.35 1.05 0.75 1.70 1.20 2.15 1.30 1.55 0.10 -0.50 -0.35 -1.65 -0.95 -2.60z"/>
  <path d="M19.85 18.15 c-0.20 -0.15 -0.35 -0.85 -0.35 -1.50 0 -0.70 -0.30 -1.15 -0.75 -1.15 -0.50 0 -0.75 -0.55 -0.75 -1.75 l0 -1.75 2.75 0 2.75 0 0 3.25 0 3.25 -1.65 0 c-0.95 0 -1.85 -0.15 -2 -0.35z"/>
 </g>
 <g fill="#171e10">
  <path d="M5.50 38.50 c0 -0.85 -0.25 -1.50 -0.60 -1.50 -0.40 0 -0.25 -0.35 0.30 -0.75 0.85 -0.65 0.90 -0.75 0.15 -0.75 -1.10 0 -1.05 -0.30 0.15 -1.85 0.75 -0.95 1 -2.10 1.05 -4.60 0.10 -3.70 0.55 -6.55 1 -5.80 0.65 1.05 0.90 6.60 0.50 9.50 -0.30 2.20 -0.25 3.50 0.25 4.95 0.40 1.05 0.70 2 0.70 2.10 0 0.10 -0.80 0.20 -1.75 0.20 -1.60 0 -1.75 -0.10 -1.75 -1.50z"/>
  <path d="M10.35 39.65 c-0.55 -0.50 -0.40 -4.65 0.15 -4.65 0.30 0 0.50 0.50 0.50 1.15 0 1.20 0.85 2.35 1.75 2.35 0.25 0 0.20 -0.20 -0.20 -0.45 -0.55 -0.35 -0.60 -0.65 -0.15 -1.20 0.30 -0.35 0.55 -1.85 0.55 -3.25 -0.05 -1.45 0.15 -2.90 0.45 -3.25 0.30 -0.35 0.50 -1.65 0.40 -2.90 -0.20 -2.70 -1 -4.85 -1.50 -4.05 -0.20 0.35 -0.70 0.60 -1.10 0.60 -0.85 0 -0.95 -2.55 -0.10 -3.40 0.45 -0.45 0.40 -0.60 -0.25 -0.60 -0.55 0 -1 -0.50 -1.15 -1.45 -0.30 -1.50 -2.20 -2.60 -2.20 -1.25 0 0.95 -0.50 0.90 -1.35 -0.15 -0.60 -0.75 -0.70 -0.80 -0.50 -0.10 0.15 0.45 0.45 1.85 0.60 3.15 0.30 1.95 0.25 2.30 -0.45 2.30 -0.80 0 -1 -0.95 -0.80 -3.45 0.05 -0.65 -0.20 -1.35 -0.60 -1.60 -0.50 -0.35 -0.50 -0.60 -0.05 -1.35 0.35 -0.60 0.40 -1.15 0.10 -1.45 -0.25 -0.25 -0.25 -1 0.05 -1.90 0.25 -0.85 0.60 -2.10 0.75 -2.85 0.30 -1.65 2.70 -4.50 4.95 -5.85 0.90 -0.55 2.95 -1.35 4.60 -1.80 2.65 -0.70 3 -0.70 3.50 0 0.70 0.95 1.20 0.95 1.20 0.05 0 -0.55 0.40 -0.60 1.80 -0.30 1 0.25 2.05 0.65 2.35 0.95 0.30 0.30 1 0.55 1.55 0.55 1.25 0 4.30 2.35 4.30 3.30 0 0.45 -0.25 0.60 -0.60 0.40 -0.35 -0.20 -0.25 0.10 0.25 0.65 0.45 0.55 0.85 1.35 0.85 1.80 0 1.45 -1.80 0.95 -3.45 -0.90 -1.35 -1.55 -1.80 -1.75 -4.05 -1.75 -1.90 0 -2.50 -0.20 -2.50 -0.75 0 -0.40 -0.45 -0.75 -1 -0.75 -0.55 0 -1 0.25 -1 0.50 0 0.30 0.35 0.50 0.75 0.50 0.50 0 0.75 0.50 0.75 1.65 0 1.85 -0.75 2.85 -2.10 2.85 -2.65 0 -2.45 7.55 0.35 10.30 0.50 0.50 0.75 1.70 0.75 3.45 l0 2.70 2.30 0.15 c2 0.15 2.45 0.35 3.15 1.65 0.55 1 1.10 1.45 1.70 1.35 0.55 -0.10 1.70 -0.05 2.65 0.15 1.60 0.30 1.70 0.40 1.70 2.25 0 1.85 -0.10 2 -1.45 2 -0.80 0 -1.55 -0.30 -1.70 -0.60 -0.10 -0.35 -0.40 -0.45 -0.65 -0.25 -0.25 0.20 -0.10 0.60 0.30 0.85 0.40 0.25 0.55 0.65 0.30 0.85 -0.20 0.20 -0.75 -0.10 -1.25 -0.75 -1.75 -2.50 -3.50 -4.35 -3.80 -4 -0.15 0.15 0.75 1.45 2.10 2.85 2.40 2.50 2.45 2.55 4.90 2.25 l2.50 -0.30 -0.20 -4.60 c-0.05 -2.50 -0.35 -4.90 -0.60 -5.30 -0.30 -0.55 -0.40 -0.40 -0.45 0.65 0 0.75 -0.20 1.35 -0.50 1.35 -0.85 0 -1.10 -2.45 -0.55 -5.65 0.80 -4.60 0.75 -5.35 -0.45 -5.35 -0.65 0 -1 -0.35 -1 -1 0 -0.75 -0.35 -1 -1.25 -1 -1.10 0 -1.25 -0.20 -1.25 -1.70 0 -1.50 0.20 -1.70 1.55 -2 2.65 -0.50 3.30 -0.35 3.55 0.85 0.15 0.65 0.10 1.60 -0.10 2.10 -0.15 0.50 0.15 1.75 0.70 2.85 0.85 1.80 0.90 2.30 0.35 4.35 -0.55 2.25 -0.55 2.40 1.55 6.30 2 3.75 2.30 4.05 4.80 5 1.75 0.65 2.60 1.25 2.60 1.85 0 0.65 -0.40 0.90 -1.25 0.90 -0.70 0 -1.25 -0.20 -1.25 -0.50 0 -1.10 -1.50 -0.40 -1.80 0.80 -0.35 1.30 -0.40 1.30 -3.75 1.10 -1.90 -0.15 -3.45 -0.05 -3.45 0.15 0 0.25 -0.80 0.45 -1.75 0.45 -1.55 0 -1.75 0.15 -1.75 1.25 0 1.45 -0.80 1.70 -1.15 0.40 -0.20 -0.85 -0.25 -0.85 -0.30 0 -0.05 0.50 -0.45 0.85 -1.05 0.85 -0.80 0 -1 -0.35 -1 -1.80 0 -0.95 0.20 -1.65 0.40 -1.50 0.85 0.50 1.45 -0.50 1.25 -2.05 -0.20 -1.20 -0.55 -1.65 -1.20 -1.65 -0.50 0 -1.05 -0.20 -1.20 -0.50 -0.15 -0.25 -0.60 -0.50 -1 -0.50 -0.55 0 -0.60 0.35 -0.20 1.60 0.50 1.90 0.60 4.40 0.15 4.40 -0.20 0 -0.65 -0.40 -1.05 -0.85 -0.55 -0.65 -0.50 -0.50 0.05 0.45 1.05 1.75 1 2.40 -0.05 2.40 -1.25 0 -3.65 -4 -3.65 -5.95 0 -0.95 -0.20 -1.50 -0.50 -1.30 -1.20 0.75 -0.35 3.90 1.65 6.15 l1 1.10 -3.25 0 c-1.75 0 -3.40 -0.15 -3.55 -0.35z m23.25 -4.25 c-0.35 -0.35 -0.60 -1.30 -0.65 -2.10 -0.05 -1.50 -0.05 -1.50 -0.40 -0.30 -0.35 1.15 0.50 3 1.40 3 0.15 0 0 -0.25 -0.35 -0.60z m-19.20 -15.10 c-0.35 -1.80 -0.85 -3.30 -1.05 -3.30 -0.50 0 0 4 0.70 5.90 0.85 2.15 1 0.85 0.35 -2.60z m-2.85 -4.75 c-0.45 -0.95 -0.45 -1.75 -0.05 -2.75 0.75 -2 0.60 -2.25 -0.35 -0.55 -0.75 1.25 -0.90 1.35 -1.05 0.55 -0.10 -0.50 0.70 -2.70 1.80 -4.85 2.15 -4.30 1.85 -4.95 -1 -2.30 -1.80 1.60 -2.90 3.95 -2.90 6.15 0 0.65 -0.20 1.20 -0.50 1.20 -0.65 0 -0.65 -1.30 0 -2.55 0.30 -0.55 0.40 -1.20 0.20 -1.55 -0.65 -1 -1.65 1.75 -1.60 4.25 0.05 2.10 0.15 2.30 0.80 1.65 0.95 -0.95 2.55 -0.25 3.85 1.75 1.15 1.65 1.60 1.05 0.80 -1z m2.65 -4.65 c0.50 -1.90 0.30 -2.25 -0.45 -0.90 -0.85 1.45 -0.90 2 -0.30 2 0.25 0 0.55 -0.50 0.75 -1.10z m2 -4.65 c0.55 -0.40 0.75 -0.75 0.50 -0.75 -0.30 0 -0.95 0.35 -1.50 0.75 -0.50 0.40 -0.70 0.70 -0.45 0.70 0.30 0 0.95 -0.30 1.45 -0.70z"/>
  <path d="M5 24 c0 -0.55 0.25 -1 0.50 -1 0.30 0 0.50 0.45 0.50 1 0 0.55 -0.20 1 -0.50 1 -0.25 0 -0.50 -0.45 -0.50 -1z"/>
  <path d="M8.40 22.40 c-2 -4 -2 -3.90 -1.15 -3.90 0.50 0 0.75 0.45 0.75 1.30 0 0.75 0.35 1.60 0.80 1.95 0.45 0.30 0.75 0.95 0.65 1.45 -0.15 0.65 -0.40 0.45 -1.05 -0.80z"/>
  <path d="M18.40 18.15 c-1 -0.15 -1.40 -0.50 -1.40 -1.20 0 -0.50 -0.20 -0.95 -0.50 -0.95 -0.85 0 -0.60 -3.35 0.30 -3.70 0.45 -0.15 2.35 -0.30 4.25 -0.30 l3.45 0 0 1.75 c0 1.20 -0.25 1.75 -0.75 1.75 -0.50 0 -0.75 0.50 -0.75 1.50 0 1.35 -0.15 1.50 -1.60 1.45 -0.90 -0.05 -2.25 -0.20 -3 -0.30z"/>
 </g>
 <g fill="#1d341c">
  <path d="M1.55 39.65 c0 -0.25 1 -1.20 2.20 -2.15 2.20 -1.80 2.85 -2.70 1.50 -2.20 -1 0.40 -0.95 -0.25 0.05 -1.35 0.45 -0.50 0.90 -2 1 -3.30 0.25 -4.35 0.80 -7.15 1.25 -6.85 0.25 0.15 0.45 3.25 0.40 6.85 0 3.65 0.20 7.25 0.50 8 0.50 1.25 0.45 1.35 -0.70 1.35 -0.90 0 -1.25 -0.25 -1.25 -1 0 -0.65 -0.35 -1 -1 -1 -0.65 0 -1 0.35 -1 1 0 0.80 -0.35 1 -1.50 1 -0.80 0 -1.50 -0.15 -1.45 -0.35z"/>
  <path d="M11 38.75 c-0.65 -0.70 -1 -1.40 -0.85 -1.60 0.20 -0.15 0.75 0.20 1.30 0.75 1.20 1.40 1.70 1.40 1.35 0 -0.15 -0.65 -0.15 -0.85 0 -0.50 0.60 1.25 1.10 0.05 0.60 -1.40 -0.55 -1.60 -0.35 -3.85 0.55 -7.35 0.45 -1.65 0.40 -2.45 -0.15 -3.75 -0.40 -0.90 -0.95 -2.20 -1.20 -2.90 -0.50 -1.20 -0.55 -1.20 -0.55 0.50 -0.10 3 -1.25 0.85 -1.60 -2.90 -0.15 -1.85 -0.25 -3.45 -0.15 -3.50 0.05 -0.10 0.45 0.45 0.85 1.25 0.75 1.35 0.75 1.30 0.70 -2.10 -0.10 -4.35 0.65 -6.30 3.20 -8.05 2.30 -1.60 2.25 -2.15 -0.15 -0.90 -1.80 0.90 -2.25 1.45 -3.50 4.45 -0.45 1.10 -0.85 1.60 -0.85 1.10 -0.15 -3.60 6.85 -9.75 9.45 -8.35 1.55 0.85 1.85 0.55 0.50 -0.50 -1.15 -0.90 -1.15 -1 -0.25 -1 2.15 0 6.05 1.60 7.60 3.10 2 1.95 2.15 2.85 0.30 1.65 l-1.40 -0.90 1.45 1.60 c1.20 1.25 1.30 1.55 0.60 1.55 -0.50 0 -1.85 -0.60 -3.05 -1.30 -2.65 -1.50 -3.30 -1.30 -6.85 2.35 -1.95 2.05 -2.40 2.85 -2.70 4.95 -0.25 1.70 -0.15 2.50 0.25 2.50 0.30 0 0.55 0.30 0.55 0.70 0 0.35 0.35 1.35 0.75 2.10 0.90 1.75 1 4.55 0.15 4.80 -1.15 0.40 0.20 1.40 1.80 1.40 1.95 0 4.65 1.25 6.15 2.80 0.90 1 1.20 1.10 2.40 0.55 1.05 -0.50 1.25 -0.85 1 -1.85 -0.20 -0.70 -0.45 -2.20 -0.60 -3.35 -0.20 -1.95 -0.15 -2.15 0.80 -2.15 1 0 1 0.20 0.75 3.90 -0.45 6.50 -0.70 8 -1.50 8.30 -1.10 0.45 -1.70 -0.10 -1.70 -1.45 0 -0.85 -0.20 -1.15 -0.70 -0.95 -0.40 0.15 -0.60 0.60 -0.45 1 0.45 1.20 -0.45 0.75 -2.15 -1.05 -0.90 -1 -1.75 -1.55 -1.95 -1.30 -0.15 0.30 0.55 1.35 1.55 2.40 1.10 1.10 1.60 1.95 1.25 2.05 -0.30 0.10 -1.25 -0.50 -2.10 -1.35 -0.80 -0.85 -1.80 -1.55 -2.20 -1.55 -0.45 0 -0.75 -0.50 -0.80 -1.10 -0.05 -0.65 -0.25 -0.25 -0.45 0.85 -0.55 2.80 0.90 4.75 3.60 4.75 1.80 0 1.90 0.05 1.85 1.65 0 1.60 0 1.60 -0.55 0.35 -0.55 -1.25 -0.55 -1.25 -0.75 -0.10 -0.20 0.95 -0.50 1.10 -2.70 1.10 -1.40 0 -2.45 -0.25 -2.45 -0.55 0 -0.30 -0.65 -1.20 -1.50 -2.05 -1.55 -1.50 -2.10 -4.45 -1 -5.15 0.60 -0.40 0.65 -4.25 0.05 -4.25 -0.40 0 -0.70 1.20 -1.40 5.70 -0.25 1.90 0.30 3.65 1.80 5.45 0.65 0.75 0.60 0.85 -0.35 0.85 -0.60 0 -1.10 -0.20 -1.10 -0.50 0 -0.25 -0.35 -0.50 -0.75 -0.50 -0.40 0 -0.75 0.25 -0.75 0.50 0 0.85 -0.75 0.55 -2 -0.75z m8.20 -1 c-0.45 -0.65 -1.10 -2.30 -1.45 -3.60 -0.35 -1.30 -0.70 -2.10 -0.70 -1.75 -0.05 0.35 -0.30 0.50 -0.65 0.30 -1.20 -0.75 0.05 2.60 1.70 4.45 1.95 2.15 2.25 2.35 1.10 0.60z m2.50 -8.30 c-0.45 -0.75 -1.70 -0.50 -1.40 0.25 0.15 0.40 0.60 0.60 1 0.45 0.40 -0.15 0.55 -0.45 0.40 -0.70z m-4.85 -3.55 c0.10 -1.60 -0.20 -2.55 -1.15 -3.95 -1.95 -2.85 -2.35 -7.90 -0.95 -12.30 0.20 -0.65 0.15 -1.15 -0.10 -1.15 -0.60 0 -1.65 2.25 -1.65 3.55 0 0.55 -0.25 1.50 -0.55 2.05 -0.40 0.70 -0.40 1.15 0 1.55 0.30 0.30 0.55 1.35 0.55 2.35 0 2.05 1.05 5.75 1.85 6.55 0.35 0.35 0.45 0.15 0.30 -0.75 -0.35 -1.70 0.25 -1.65 0.90 0.05 0.30 0.80 0.30 1.45 0.05 1.60 -0.40 0.25 0.05 2.55 0.50 2.55 0.10 0 0.20 -0.95 0.25 -2.10z"/>
  <path d="M29.65 36.05 c1.90 -0.30 2 -0.45 1.60 -2.30 -0.35 -1.70 -0.55 -8.75 -0.25 -8.75 0.20 0 1.05 1.60 2 3.50 0.95 1.95 2 3.50 2.35 3.50 0.70 0 0.85 1.85 0.35 3.20 -0.15 0.45 -0.65 0.80 -1.05 0.80 -0.55 0 -0.70 -0.35 -0.45 -1.35 0.15 -0.80 0.15 -1.10 0 -0.75 -0.55 1.25 -1.20 0.55 -1.20 -1.25 0 -3.10 -0.80 -3.45 -0.90 -0.45 -0.05 1.95 0.15 2.80 0.65 3 1.70 0.65 0.60 1.30 -2.10 1.25 -2.55 -0.10 -2.70 -0.15 -1 -0.40z"/>
  <path d="M5 21.10 c0 -1.90 -0.25 -3.65 -0.60 -4 -0.40 -0.40 -0.40 -0.75 0 -1.20 0.35 -0.40 0.35 -0.95 0.10 -1.40 -0.25 -0.40 -0.25 -1.05 -0.05 -1.45 0.25 -0.45 0.55 -1.65 0.75 -2.65 0.40 -2.20 2.25 -4.55 4.75 -6.10 1.95 -1.20 7.30 -2.90 7.75 -2.40 0.70 0.65 0.15 1 -2.55 1.55 -7.35 1.50 -10.55 6.75 -9.25 15.15 0.50 3.30 0.30 5.90 -0.45 5.90 -0.25 0 -0.45 -1.55 -0.45 -3.40z"/>
  <path d="M6.75 18.70 c-0.60 -1.90 -0.70 -2.95 -0.35 -3.30 0.35 -0.35 0.60 -0.20 0.75 0.40 0.40 1.50 0.95 5.70 0.70 5.70 -0.10 0 -0.60 -1.25 -1.10 -2.80z"/>
  <path d="M20.50 17.25 c0 -0.45 0.30 -0.60 0.75 -0.45 0.40 0.20 0.75 0.05 0.75 -0.25 0 -0.30 -0.35 -0.55 -0.75 -0.55 -1.30 0 -0.85 -1.40 0.65 -1.90 0.85 -0.35 1.05 -0.55 0.50 -0.55 -0.50 -0.05 -0.90 -0.40 -0.90 -0.80 0 -0.50 0.55 -0.75 1.75 -0.75 1.70 0 1.75 0.05 1.75 2 0 1.10 -0.20 2 -0.50 2 -0.25 0 -0.50 0.45 -0.50 1 0 0.80 -0.35 1 -1.75 1 -1.20 0 -1.75 -0.25 -1.75 -0.75z"/>
  <path d="M27 15.25 c0 -1.60 0.10 -1.75 1.50 -1.75 1 0 1.50 0.25 1.50 0.75 0 0.40 -0.30 0.75 -0.60 0.75 -0.35 0 -0.25 0.25 0.25 0.55 1.40 0.80 1 1.45 -0.90 1.45 -1.65 0 -1.75 -0.10 -1.75 -1.75z"/>
 </g>
 <g fill="#471b0c">
  <path d="M3.50 39.25 c0 -0.40 0.30 -0.75 0.70 -0.75 0.40 0 0.80 -0.50 0.90 -1.10 0.20 -1.50 2.90 -2 2.90 -0.55 0 0.50 0.15 1.40 0.30 2.05 0.30 1.05 0.15 1.10 -2.25 1.10 -1.95 0 -2.55 -0.20 -2.55 -0.75z"/>
  <path d="M19.15 37.75 c-0.65 -1.25 -1.15 -2.35 -1.15 -2.45 0 -0.15 0.60 -0.30 1.35 -0.40 1.95 -0.25 2 -1.30 0.05 -1.50 -1.40 -0.15 -1.65 -0.35 -1.80 -1.65 -0.10 -0.80 -0.55 -1.75 -1 -2.10 -0.65 -0.45 -0.65 -0.60 -0.15 -0.65 0.40 0 0.55 -0.35 0.40 -1 -0.20 -0.75 0 -1 0.75 -1 1.15 0 2.15 0.90 2.60 2.30 0.15 0.60 1.60 2.45 3.20 4.10 l2.85 3.10 2.50 -0.30 c1.40 -0.20 2.80 -0.55 3.15 -0.85 0.40 -0.30 0.85 -0.30 1.30 0.10 0.55 0.45 0.75 0.35 1 -0.55 0.45 -1.70 0.35 -2.25 -0.25 -1.40 -0.40 0.60 -0.45 0.50 -0.35 -0.50 0.20 -1.45 0.95 -1.45 4.25 0.10 2.55 1.20 2.75 1.90 0.55 1.90 l-1.65 0.05 1.65 1.40 c0.90 0.75 1.60 1.85 1.60 2.45 0 1.05 -0.20 1.10 -4.25 1.10 -3.70 0 -4.30 -0.15 -4.85 -1 -0.35 -0.55 -0.90 -1 -1.25 -1 -0.35 0 -0.65 0.45 -0.65 1 0 0.85 -0.35 1 -2.45 1 -2.10 0 -2.50 -0.15 -2.75 -1.10 l-0.30 -1.15 -0.95 1.15 c-1.40 1.60 -2.15 1.35 -3.40 -1.15z"/>
  <path d="M28 27.50 c0 -2.15 0.15 -2.50 1 -2.50 0.85 0 1 0.35 1 2.50 0 2.15 -0.15 2.50 -1 2.50 -0.85 0 -1 -0.35 -1 -2.50z"/>
  <path d="M13.75 24.45 c-0.50 -1.50 -0.10 -1.60 0.60 -0.15 0.30 0.65 0.35 1.20 0.15 1.20 -0.25 0 -0.60 -0.45 -0.75 -1.05z"/>
  <path d="M15.30 24.70 c-0.15 -0.45 -0.30 -1.15 -0.30 -1.60 0 -1.05 0.75 -0.25 1.25 1.30 0.35 1.25 -0.45 1.55 -0.95 0.30z"/>
  <path d="M7.90 21.40 c-1.85 -3.85 -2.10 -5.35 -1.10 -6.45 0.80 -0.90 0.85 -0.90 2.25 0.10 2.45 1.70 4 5.95 2.20 5.95 -0.55 0 -0.65 0.40 -0.40 1.50 0.25 1.25 0.10 1.50 -0.70 1.50 -0.70 0 -1.35 -0.80 -2.25 -2.60z"/>
  <path d="M5.30 20.70 c-0.45 -1.20 -0.35 -2.70 0.20 -2.70 0.30 0 0.50 0.80 0.50 1.75 0 1.90 -0.20 2.20 -0.70 0.95z"/>
 </g>
 <g fill="#671f0e">
  <path d="M3.40 38 c2.25 -2.15 4.60 -2.75 4.60 -1.10 0 0.45 0.15 1.35 0.30 2 0.20 0.60 0.10 1.10 -0.20 1.10 -0.30 0 -0.65 -0.40 -0.75 -0.85 -0.20 -0.80 -0.25 -0.80 -0.30 -0.10 -0.05 0.70 -0.60 0.85 -2.90 0.90 l-2.80 0 2.05 -1.95z"/>
  <path d="M20.50 39.40 c0 -0.35 0.55 -0.90 1.25 -1.25 1.40 -0.60 1.55 -0.35 0.55 1 -0.75 1 -1.80 1.15 -1.80 0.25z"/>
  <path d="M24.20 38.35 c-0.80 -1.20 -0.90 -1.80 -0.55 -2.45 0.50 -0.75 0.65 -0.70 1.85 0.20 1.10 0.80 1.55 0.85 2.70 0.40 0.80 -0.30 1.90 -0.40 2.45 -0.20 1 0.30 3.30 2.60 3.35 3.35 0 0.20 -1.40 0.35 -3.10 0.35 -2.80 0 -3.20 -0.15 -4.50 -1.60 -0.75 -0.85 -1.55 -1.40 -1.75 -1.25 -0.15 0.20 0.05 0.75 0.50 1.25 0.90 1 1.10 1.60 0.50 1.60 -0.25 0 -0.85 -0.75 -1.45 -1.65z"/>
  <path d="M33.65 37.80 c-0.90 -1.20 -1.65 -2.30 -1.65 -2.50 0 -0.55 4.35 3.15 4.70 3.95 0.60 1.65 -1.55 0.60 -3.05 -1.45z"/>
  <path d="M38 39.10 c-0.40 -0.45 -1.55 -1.45 -2.45 -2.20 -1.50 -1.15 -1.65 -1.45 -1.10 -2.10 0.40 -0.45 1.10 -0.80 1.55 -0.80 0.50 0 1 -0.25 1.10 -0.55 0.30 -0.90 2.90 0.60 2.90 1.65 0 0.50 -0.25 0.90 -0.60 0.90 -0.45 0 -0.45 0.15 0 0.60 0.80 0.80 0.80 3.40 0 3.35 -0.35 0 -1 -0.40 -1.40 -0.85z"/>
  <path d="M19 37 c-0.50 -0.90 -0.40 -1 0.95 -1 2.65 0 2 -1.65 -1.05 -2.80 -0.45 -0.15 -1 -0.95 -1.15 -1.75 -0.20 -0.80 -0.55 -1.45 -0.80 -1.45 -0.25 0 -0.45 -0.25 -0.45 -0.55 0 -0.25 0.25 -0.35 0.60 -0.15 0.40 0.25 0.45 0.10 0.25 -0.45 -0.25 -0.70 0 -0.85 1.15 -0.85 1.15 0 1.50 0.20 1.50 1 0 0.55 0.80 1.90 1.80 3 2.10 2.30 2 3.25 -0.55 4.85 -1.70 1.15 -1.75 1.15 -2.25 0.15z"/>
  <path d="M7.50 17.65 l0 -1.85 1.55 1.50 1.60 1.45 -0.90 -1.45 c-0.90 -1.40 -0.90 -1.40 0.05 -1.25 0.65 0.15 1 0.70 1.10 1.85 0.15 1.55 0.10 1.60 -1.60 1.60 -1.75 0 -1.80 -0.05 -1.80 -1.85z"/>
 </g>
 <g fill="#294d2c">
  <path d="M3.40 38 c1.10 -1.10 2.30 -2 2.60 -2 0.25 0 0.50 -0.25 0.50 -0.55 0 -0.30 -0.45 -0.45 -1 -0.30 -0.85 0.20 -0.90 0.10 -0.50 -0.65 0.30 -0.55 0.75 -1.10 1 -1.25 0.30 -0.20 0.50 -0.90 0.50 -1.65 0 -0.75 0.10 -2 0.20 -2.85 0.15 -0.80 0.25 -2.05 0.25 -2.70 0.05 -0.65 0.20 -1.05 0.45 -0.85 0.20 0.20 0.35 3 0.40 6.20 0 3.25 0.20 6.45 0.40 7.25 0.25 0.80 0.20 1.35 -0.10 1.35 -0.25 0 -0.65 -0.55 -0.80 -1.25 -0.20 -0.70 -0.55 -1.25 -0.85 -1.25 -0.75 0 -3.45 1.65 -3.45 2.10 0 0.20 -0.40 0.40 -0.85 0.40 -0.60 0 -0.25 -0.60 1.25 -2z"/>
  <path d="M21.50 38.75 c0.65 -0.70 1.25 -1.15 1.35 -1.05 0.40 0.40 -1.10 2.30 -1.80 2.30 -0.50 0 -0.35 -0.40 0.45 -1.25z"/>
  <path d="M34.50 34.75 c0.30 -0.40 0.45 -0.95 0.25 -1.30 -0.30 -0.40 -0.45 -0.40 -0.75 0.05 -0.25 0.40 -0.55 -0.15 -0.75 -1.45 -0.50 -2.90 -1.25 -3.05 -1.30 -0.20 -0.05 2.25 -0.05 2.30 -0.55 1 -0.35 -1 -0.35 -1.80 0 -2.55 0.30 -0.70 0.30 -1.40 0 -1.95 -0.25 -0.50 -0.40 -1.40 -0.30 -2 0.10 -0.85 0.55 -0.30 1.75 2.25 0.95 2.05 1.95 3.45 2.60 3.65 1.20 0.35 1.35 1.50 0.35 2.55 -1 1 -2.15 0.95 -1.30 -0.05z"/>
  <path d="M28 32.75 c0 -0.60 -0.30 -0.80 -1 -0.60 -0.85 0.20 -1 0 -1 -1.70 0 -1.95 0 -1.95 2 -1.95 1.75 0 2 0.15 2 1.15 0 0.65 -0.15 1.35 -0.35 1.55 -0.20 0.20 -0.40 0.75 -0.40 1.15 0 0.45 -0.30 0.90 -0.60 1 -0.35 0.15 -0.65 -0.15 -0.65 -0.60z"/>
  <path d="M24.85 31.25 c-0.30 -0.75 -0.50 -0.80 -0.80 -0.30 -0.30 0.45 -0.55 0.50 -0.75 0.10 -0.20 -0.30 -0.20 -0.75 -0.05 -1.05 0.15 -0.25 -0.30 -0.60 -1 -0.80 -1.80 -0.45 -1.60 -1.70 0.30 -1.70 2.05 0 3.05 1.10 2.85 3.10 -0.10 1.40 -0.20 1.50 -0.55 0.65z"/>
  <path d="M17.50 30.95 c0 -0.35 -0.40 -0.90 -0.85 -1.30 -0.85 -0.70 -0.85 -0.70 0.05 -0.45 0.70 0.25 0.85 0.15 0.55 -0.55 -0.20 -0.50 -0.40 -1.25 -0.50 -1.65 -0.05 -0.40 0 -0.45 0.10 -0.10 0.15 0.30 0.55 0.60 0.90 0.60 0.50 0 0.65 0.60 0.60 2 -0.05 1.10 -0.25 2 -0.45 2 -0.20 0 -0.40 -0.25 -0.40 -0.55z"/>
  <path d="M13.80 24.60 c-0.40 -0.80 -0.90 -2.45 -1.05 -3.65 -0.25 -2.15 -0.25 -2.10 0.50 0.50 0.45 1.50 1.05 3.05 1.35 3.40 0.30 0.35 0.40 0.80 0.25 0.95 -0.15 0.15 -0.60 -0.40 -1.05 -1.20z"/>
  <path d="M16.75 22.95 c-0.20 -0.85 -0.65 -1.65 -1.05 -1.80 -0.45 -0.15 -0.60 -0.65 -0.40 -1.25 0.20 -0.65 0.10 -0.90 -0.20 -0.70 -0.75 0.45 -1 -2.40 -0.50 -5.40 0.40 -2.20 0.90 -3.15 2.90 -5.25 2.25 -2.40 5.60 -4.15 6.40 -3.35 0.15 0.15 -0.10 0.30 -0.55 0.30 -0.50 0 -0.85 0.35 -0.85 0.80 0 1.05 -1.90 2.55 -3.60 2.95 -1.05 0.25 -1.40 0.65 -1.40 1.50 0 0.60 -0.35 1.95 -0.80 3 -0.75 1.85 -0.55 4.75 0.35 4.75 0.25 0 0.45 0.55 0.45 1.25 0 0.70 0.25 1.25 0.50 1.25 0.30 0 0.50 0.80 0.50 1.75 0 2.25 -1.30 2.40 -1.75 0.20z"/>
  <path d="M11.40 23.35 c-0.25 -0.50 -0.40 -2.10 -0.35 -3.50 0.05 -2.50 0.05 -2.55 0.50 -0.95 0.60 2 0.40 5.90 -0.15 4.45z"/>
  <path d="M5.30 20.85 c-0.25 -1.30 -0.30 -2.55 -0.10 -2.70 0.60 -0.65 0.85 0.30 0.70 2.65 l-0.15 2.45 -0.45 -2.40z"/>
  <path d="M6.80 17.80 c-0.20 -1.05 -0.25 -2 -0.10 -2.15 0.35 -0.40 0.90 2.10 0.70 3.20 -0.15 0.55 -0.35 0.15 -0.60 -1.05z"/>
  <path d="M26.50 15.75 c0 -1.65 0.10 -1.75 1.75 -1.75 1.80 0 2.40 0.75 0.90 1.15 -0.85 0.20 -0.85 0.25 0 0.30 0.50 0.05 0.85 0.45 0.85 1.05 0 0.80 -0.35 1 -1.75 1 -1.65 0 -1.75 -0.10 -1.75 -1.75z"/>
  <path d="M4 16.80 c0 -0.10 0.35 -0.45 0.75 -0.80 0.60 -0.50 0.75 -0.50 0.75 0.20 0 0.45 -0.35 0.80 -0.75 0.80 -0.40 0 -0.75 -0.10 -0.75 -0.20z"/>
  <path d="M22 14.95 c0 -0.75 0.25 -0.95 0.75 -0.75 0.40 0.15 0.75 0.05 0.75 -0.20 0 -0.30 -0.35 -0.50 -0.75 -0.50 -0.40 0 -0.75 -0.20 -0.75 -0.50 0 -0.25 0.80 -0.50 1.75 -0.50 1.65 0 1.75 0.10 1.75 1.75 0 1.65 -0.10 1.75 -1.75 1.75 -1.45 0 -1.75 -0.20 -1.75 -1.05z"/>
  <path d="M4.55 14 c0 -0.40 0.20 -1.20 0.45 -1.75 0.25 -0.65 0.45 -0.70 0.45 -0.25 0 0.40 -0.20 1.20 -0.45 1.75 -0.25 0.65 -0.45 0.70 -0.45 0.25z"/>
  <path d="M5.50 10.20 c-0.05 -2.75 4.75 -6.80 8.75 -7.45 1.95 -0.30 1.95 -0.30 -0.50 0.65 -4.55 1.70 -6.10 2.95 -7.45 6.10 -0.55 1.30 -0.75 1.50 -0.80 0.70z"/>
  <path d="M15.50 7.75 c0 -0.15 0.60 -0.85 1.40 -1.50 1.40 -1.30 0.80 -1.65 -1.05 -0.65 -1 0.50 -1.05 0.50 -0.35 -0.30 0.95 -1.20 2.95 -1.90 4.35 -1.55 1.35 0.35 1.55 1.25 0.25 1.25 -1.05 0 -2.60 1.45 -2.60 2.40 0 0.35 -0.45 0.60 -1 0.60 -0.55 0 -1 -0.10 -1 -0.25z"/>
  <path d="M25.90 7.30 c-1.25 -0.95 -1.10 -1.65 0.35 -2 1.40 -0.35 2.25 -0.05 2.25 0.85 0 0.40 -0.15 0.40 -0.60 -0.05 -1.20 -1.20 -1.55 -0.60 -0.40 0.65 1.10 1.15 1.10 1.25 0.20 1.25 -0.50 0 -1.35 -0.35 -1.80 -0.70z"/>
  <path d="M21.20 3.20 c-0.90 -0.70 -0.80 -0.75 1.25 -0.45 3.20 0.45 4.35 1.20 1.75 1.25 -1.10 0 -2.45 -0.35 -3 -0.80z"/>
 </g>
 <g fill="#494327">
  <path d="M21.50 38.75 c1.45 -1.55 1.55 -1.55 0.85 0 -0.35 0.70 -0.90 1.25 -1.30 1.25 -0.50 0 -0.35 -0.40 0.45 -1.25z"/>
  <path d="M5.10 37.05 c0.10 -0.45 0.65 -0.85 1.30 -0.95 1.55 -0.25 1.45 1.20 -0.15 1.55 -1 0.15 -1.25 0.05 -1.15 -0.60z"/>
  <path d="M18.65 36.50 c-0.35 -0.50 -0.75 -1.80 -0.90 -2.85 -0.15 -1.05 -0.40 -2.80 -0.55 -3.90 -0.15 -1.10 -0.25 -3.05 -0.25 -4.30 0.05 -1.25 -0.30 -3.10 -0.70 -4.10 -0.75 -1.85 -0.75 -1.85 0.50 -1.85 1.15 0 1.25 0.20 1.25 2 0 1.10 0.25 2 0.50 2 0.30 0 0.50 0.55 0.50 1.25 0 0.90 0.25 1.25 1 1.25 0.65 0 1 -0.35 1 -0.95 0 -0.75 0.65 -1 3.75 -1.50 2.65 -0.45 3.75 -0.85 3.75 -1.35 0 -0.40 0.25 -0.70 0.50 -0.70 0.30 0 0.50 -0.75 0.50 -1.70 0 -1.45 -0.25 -1.80 -1.50 -2.25 -0.85 -0.25 -1.50 -0.85 -1.50 -1.30 0 -0.55 -0.35 -0.75 -1.10 -0.65 -0.85 0.10 -1.20 0.55 -1.30 1.60 -0.20 1.40 -0.20 1.45 -2.75 1.10 -1.45 -0.15 -3.10 -0.30 -3.70 -0.30 -0.70 0 -1.15 -0.30 -1.15 -0.75 0 -0.40 -0.35 -0.75 -0.75 -0.75 -0.50 0 -0.75 -0.55 -0.75 -1.75 0 -1.20 0.25 -1.75 0.75 -1.75 0.40 0 0.75 -0.20 0.75 -0.50 0 -0.25 -0.20 -0.50 -0.50 -0.50 -0.90 0 -0.55 -0.95 1.05 -2.60 l1.50 -1.65 -0.15 2.10 c-0.15 1.75 0 2.15 0.80 2.25 1.25 0.20 1.65 1.40 0.45 1.40 -0.50 0 -1.15 0.20 -1.50 0.40 -0.30 0.20 0.85 0.35 2.60 0.35 1.75 0 3.05 -0.15 2.90 -0.35 -0.10 -0.25 -0.75 -0.40 -1.45 -0.40 -2.15 0 -1.30 -0.85 1.15 -1.15 1.30 -0.15 2.45 -0.50 2.55 -0.80 0.10 -0.30 0.60 -0.55 1.15 -0.55 0.75 0 0.95 -0.35 0.95 -1.70 l0 -1.65 -3.50 -0.35 c-2.40 -0.25 -3.50 -0.55 -3.50 -1 0 -0.40 0.50 -0.80 1.05 -0.95 1.95 -0.50 4.15 0.25 6.10 2.05 1.70 1.70 1.85 2 1.85 4.70 0 2.20 -0.20 2.90 -0.70 2.90 -0.40 0 -0.85 0.20 -1 0.40 -0.15 0.25 0.25 0.40 0.85 0.40 1.85 -0.10 2.45 2.75 1.45 7 -0.45 1.90 -1 3.50 -1.20 3.60 -0.20 0.10 -0.15 0.75 0.15 1.40 0.70 1.90 0.55 2.70 -0.55 2.70 -0.80 0 -1 -0.35 -1 -1.75 0 -1.60 -0.15 -1.75 -1.35 -1.75 -1.90 0 -3.65 0.50 -3.65 1.05 0 0.25 0.70 0.45 1.50 0.45 1 0 1.65 0.30 1.85 0.90 0.20 0.45 0.60 1.05 1 1.25 0.95 0.60 0.80 1.20 -0.45 1.50 -0.85 0.25 -1.45 -0.10 -2.55 -1.40 -0.80 -0.95 -1.80 -1.75 -2.30 -1.75 -0.45 0 -1.15 -0.30 -1.50 -0.60 -0.55 -0.55 -0.65 -0.40 -0.45 0.75 0.30 1.50 0.25 1.55 -1.15 0.85 -1.15 -0.65 -1.25 -0.15 -0.20 1 0.80 0.90 1.65 6.50 0.95 6.50 -0.25 0 -0.75 -0.45 -1.05 -1z m3.60 -20 c0.15 -0.25 -0.15 -0.50 -0.75 -0.50 -0.60 0 -0.90 0.25 -0.75 0.50 0.15 0.30 0.50 0.50 0.75 0.50 0.25 0 0.60 -0.20 0.75 -0.50z"/>
  <path d="M34.80 33.70 c0.15 -1.70 0.20 -1.70 2.10 -0.95 2 0.90 2.05 1.55 0.05 1.95 -2.30 0.45 -2.35 0.40 -2.15 -1z"/>
  <path d="M15.35 24.85 c-0.15 -0.40 -0.05 -1 0.20 -1.40 0.25 -0.45 0.45 -0.45 0.45 -0.10 0 0.30 0.15 0.90 0.30 1.35 0.15 0.45 0.10 0.80 -0.20 0.80 -0.25 0 -0.60 -0.30 -0.75 -0.65z"/>
  <path d="M10 21.65 c0 -0.80 -0.15 -1.95 -0.35 -2.60 -0.20 -0.90 -0.15 -1.10 0.30 -0.85 0.45 0.30 0.45 0.15 0 -0.60 -0.70 -1.10 -0.40 -1.95 0.50 -1.40 0.65 0.40 1.55 3.60 1.55 5.45 0 1 -0.25 1.35 -1 1.35 -0.75 0 -1 -0.35 -1 -1.35z"/>
 </g>
 <g fill="#6f3519">
  <path d="M3.55 38 c2.20 -2.10 3.95 -2.60 3.95 -1.10 0 0.70 -0.10 0.75 -0.50 0.10 -0.25 -0.40 -0.50 -0.50 -0.50 -0.25 0 0.30 -0.80 0.95 -1.75 1.45 -0.95 0.55 -1.75 1.15 -1.75 1.40 0 0.20 -0.35 0.40 -0.75 0.40 -0.45 0 0.10 -0.80 1.30 -2z"/>
  <path d="M24.60 39 c-0.35 -0.55 -0.45 -1 -0.20 -1 0.20 0 0.65 0.45 1 1 0.35 0.55 0.45 1 0.20 1 -0.20 0 -0.65 -0.45 -1 -1z"/>
  <path d="M28.25 39.05 c0.25 -0.75 0.10 -0.90 -0.65 -0.70 -0.55 0.10 -1.15 0 -1.35 -0.30 -0.40 -0.70 3.05 -2.25 3.90 -1.75 1.25 0.75 2.85 2.40 2.85 3.05 0 0.80 -1.60 0.85 -2.40 0.05 -0.45 -0.45 -0.60 -0.45 -0.60 0 0 0.35 -0.45 0.60 -1.05 0.60 -0.75 0 -0.95 -0.20 -0.70 -0.95z"/>
  <path d="M35 39.35 c0 -0.40 -0.45 -1.10 -1.05 -1.65 -0.55 -0.50 -1.25 -1.40 -1.55 -1.95 -0.30 -0.55 0.50 0 1.80 1.25 2.45 2.35 2.75 3 1.55 3 -0.40 0 -0.75 -0.30 -0.75 -0.65z"/>
  <path d="M37.20 37.35 c-0.70 -1.10 -1.35 -1.55 -2.10 -1.50 -1.15 0.15 -1.50 -0.55 -0.60 -1.10 0.30 -0.15 0.50 -0.85 0.50 -1.50 0 -1.15 0 -1.15 2 -0.40 1.10 0.45 1.85 1 1.65 1.30 -0.20 0.30 0 0.40 0.50 0.20 0.70 -0.25 0.85 0 0.85 1.55 0 1.70 -0.70 3.15 -1.45 3.10 -0.20 -0.05 -0.75 -0.75 -1.35 -1.65z"/>
  <path d="M18.75 36.45 c-0.20 -0.60 -0.10 -1.30 0.20 -1.60 0.80 -0.80 0.70 -1.20 -0.40 -1.50 -0.70 -0.15 -0.95 -0.85 -1.15 -2.90 -0.15 -1.50 -0.45 -3.10 -0.65 -3.65 -0.35 -0.80 -0.25 -0.85 0.80 -0.55 1.65 0.50 2.25 1.25 2.60 3.15 0.25 1.15 0.15 1.60 -0.35 1.60 -0.40 0 -0.85 -0.35 -1 -0.80 -0.20 -0.45 -0.45 -0.70 -0.65 -0.50 -0.45 0.45 1.35 2.25 2 2.05 0.35 -0.15 1.25 0.30 2.05 0.95 1.70 1.40 1.50 2.70 -0.65 3.95 -1.90 1.10 -2.40 1.05 -2.80 -0.20z"/>
  <path d="M28 26.50 c0 -0.90 0.30 -1.65 0.75 -1.85 1.15 -0.40 1.40 0.05 1 1.80 -0.45 2.05 -1.75 2.05 -1.75 0.05z"/>
  <path d="M16.90 23.50 c-0.15 -0.80 -0.05 -1.50 0.20 -1.50 0.20 0 0.40 0.70 0.40 1.50 0 0.85 -0.10 1.50 -0.20 1.50 -0.10 0 -0.30 -0.65 -0.40 -1.50z"/>
  <path d="M8.85 22.85 c-1.20 -1.90 -2.45 -5.95 -2.10 -7.20 0.30 -1.35 1.10 -1.45 2.65 -0.35 1.45 1 2.05 2.60 2.40 6.05 0.25 2.55 0.20 2.65 -0.95 2.65 -0.75 0 -1.55 -0.45 -2 -1.15z m0.85 -5.60 c-0.45 -0.70 -1.05 -1.25 -1.30 -1.25 -0.50 0 0.40 1.40 1.35 2.10 0.80 0.60 0.80 0.45 -0.05 -0.85z"/>
  <path d="M23.50 21.25 c0 -1.65 0.10 -1.75 1.75 -1.75 1.65 0 1.75 0.10 1.75 1.75 0 1.65 -0.10 1.75 -1.75 1.75 -1.65 0 -1.75 -0.10 -1.75 -1.75z"/>
  <path d="M25 6.80 c0 -0.95 0.20 -1.15 0.95 -0.95 0.55 0.15 1.35 0.70 1.85 1.20 0.85 0.90 0.80 0.95 -0.95 0.95 -1.60 0 -1.85 -0.15 -1.85 -1.20z"/>
 </g>
 <g fill="#3d6440">
  <path d="M3.55 38 c2.20 -2.10 4 -2.65 3.90 -1.10 0 0.45 -0.15 0.60 -0.25 0.25 -0.20 -0.40 -1.10 -0.05 -2.75 1.10 -3.20 2.25 -3.40 2.20 -0.90 -0.25z"/>
  <path d="M5.80 33.95 c0.40 -0.40 0.70 -1.50 0.70 -2.35 0 -0.90 0.25 -1.60 0.50 -1.60 0.30 0 0.50 1.10 0.50 2.45 0 2.25 -0.10 2.45 -1.20 2.35 -1.10 -0.05 -1.15 -0.15 -0.50 -0.85z"/>
  <path d="M35 33.25 c0 -0.40 0.25 -0.75 0.50 -0.75 0.30 0 0.50 0.35 0.50 0.75 0 0.40 -0.20 0.75 -0.50 0.75 -0.25 0 -0.50 -0.35 -0.50 -0.75z"/>
  <path d="M32.35 29.50 c-1.70 -3.80 -1.75 -5.10 -0.05 -1.75 1.70 3.25 2.25 4.75 1.80 4.75 -0.20 0 -1 -1.35 -1.75 -3z"/>
  <path d="M25.70 30.45 c0.15 -0.85 0.30 -1.75 0.30 -2 0 -0.80 3.35 -0.50 3.70 0.35 0.55 1.45 0.30 2.20 -0.70 2.20 -0.55 0 -1 -0.25 -1 -0.60 0 -0.30 -0.15 -0.40 -0.30 -0.25 -0.20 0.20 -0.05 0.65 0.30 1.10 0.55 0.65 0.40 0.75 -1 0.75 -1.55 0 -1.60 -0.05 -1.30 -1.55z"/>
  <path d="M11.35 22.80 c-0.20 -0.50 -0.35 -1.70 -0.30 -2.70 l0.05 -1.85 0.45 2.25 c0.50 2.40 0.35 3.75 -0.20 2.30z"/>
  <path d="M5.35 21.20 c-0.20 -0.20 -0.35 -0.70 -0.35 -1.15 0 -0.55 0.15 -0.60 0.55 -0.20 0.30 0.30 0.50 0.80 0.35 1.15 -0.10 0.30 -0.35 0.40 -0.55 0.20z"/>
  <path d="M15.10 19 c-0.95 -1.55 -0.75 -3 0.40 -3 0.85 0 1 0.35 1 2 0 2.20 -0.45 2.50 -1.40 1z"/>
  <path d="M19.40 7 c2 -1.85 2.70 -1.90 2.50 -0.10 -0.15 1.20 -0.40 1.35 -2.15 1.50 l-2 0.10 1.65 -1.50z"/>
  <path d="M18.10 4.55 c-0.55 -0.30 -0.45 -0.45 0.30 -0.65 1.30 -0.35 2.50 0.35 1.35 0.80 -1 0.35 -0.85 0.40 -1.65 -0.15z"/>
  <path d="M21.75 3.25 c-1.45 -0.65 -1.45 -0.65 -0.25 -0.70 0.70 0 1.95 0.30 2.75 0.70 1.45 0.65 1.45 0.65 0.25 0.70 -0.70 0 -1.90 -0.30 -2.75 -0.70z"/>
 </g>
 <g fill="#834921">
  <path d="M28 39.50 c0 -0.25 0.25 -0.50 0.50 -0.50 0.30 0 0.50 -0.25 0.50 -0.55 0 -0.35 -0.50 -0.45 -1.25 -0.25 -1.50 0.40 -1.65 -0.45 -0.30 -1.20 1.55 -0.80 2.75 -0.60 4.70 0.90 2.15 1.60 2.30 2.10 0.60 2.10 -0.70 0 -1.25 -0.20 -1.25 -0.50 0 -0.25 -0.45 -0.50 -0.95 -0.50 -0.55 0 -1.15 0.25 -1.30 0.50 -0.15 0.30 -0.50 0.50 -0.80 0.50 -0.25 0 -0.45 -0.20 -0.45 -0.50z"/>
  <path d="M34.40 38.25 c-1.95 -2.30 -1.75 -2.75 0.35 -0.75 1.65 1.60 2.20 2.55 1.40 2.45 -0.25 0 -1 -0.75 -1.75 -1.70z"/>
  <path d="M37.10 36.70 c-0.65 -1 -1.45 -1.65 -1.80 -1.55 -0.40 0.15 -0.55 -0.20 -0.40 -1.20 0.25 -1.80 1.25 -1.85 2.80 -0.20 0.65 0.70 1.40 1.25 1.75 1.25 0.85 0 0.65 2.85 -0.25 3.20 -0.45 0.15 -0.80 0.30 -0.85 0.30 -0.05 0 -0.60 -0.80 -1.25 -1.80z"/>
  <path d="M18.85 36.40 c-0.75 -1.10 -1.60 -5.40 -1.10 -5.40 0.15 0 0.65 0.20 1.15 0.45 0.45 0.25 1.50 0.70 2.25 1 0.95 0.35 1.35 0.85 1.15 1.30 -0.15 0.40 -0.05 0.85 0.25 1 0.70 0.45 -0.05 1.35 -0.85 1.05 -0.35 -0.15 -1 0.20 -1.40 0.75 l-0.70 1.05 -0.75 -1.20z"/>
  <path d="M18.15 29 c-1.50 -1.85 -1.90 -3 -1.15 -3 0.35 0 0.50 -0.35 0.30 -0.75 -0.15 -0.45 0 -0.75 0.45 -0.75 0.40 0 0.75 0.30 0.75 0.70 0 0.35 0.35 0.95 0.75 1.30 0.75 0.65 1.10 4 0.40 3.95 -0.25 0 -0.90 -0.65 -1.50 -1.45z"/>
  <path d="M28.10 25.75 c0.05 -1.30 0.35 -1.75 1 -1.75 0.95 0 1.10 0.55 0.60 2.40 -0.50 1.85 -1.75 1.35 -1.60 -0.65z"/>
  <path d="M8.70 22.05 c-1.55 -2.40 -2.30 -5.40 -1.65 -6.65 0.60 -1.15 1 -1.15 2.60 0.10 0.95 0.75 1.40 1.75 1.80 4.25 0.35 1.80 0.45 3.50 0.30 3.75 -0.60 1 -1.80 0.45 -3.05 -1.45z m1.25 -4.65 c-0.55 -0.75 -1.35 -1.40 -1.80 -1.40 -0.60 0 -0.65 0.15 -0.20 0.70 0.30 0.35 0.45 1 0.30 1.40 -0.20 0.55 0.10 0.75 1.20 0.75 l1.50 0 -1 -1.45z"/>
  <path d="M23 21.35 c0 -1.55 0.20 -1.75 1.55 -2.05 0.85 -0.15 2.10 -0.30 2.80 -0.30 1.10 0 1.20 0.20 1.05 1.90 l-0.15 1.85 -2.60 0.15 -2.65 0.15 0 -1.70z"/>
  <path d="M14.50 15.25 c0 -1.70 0.05 -1.75 1.90 -1.75 1.80 0.05 1.80 0.05 0.85 0.85 -0.80 0.65 -0.85 0.75 -0.10 0.50 0.65 -0.25 0.85 -0.05 0.85 0.90 0 1.10 -0.20 1.25 -1.75 1.25 -1.65 0 -1.75 -0.10 -1.75 -1.75z"/>
  <path d="M20.50 15 c0 -1.05 0.50 -1.20 2.40 -0.70 1.80 0.50 1.35 1.70 -0.65 1.70 -1.40 0 -1.75 -0.20 -1.75 -1z"/>
  <path d="M22.15 13.65 c-2.20 -0.30 -2.10 -1.15 0.10 -1.15 1.20 0 1.75 0.25 1.75 0.75 0 0.40 -0.05 0.70 -0.10 0.65 -0.10 0 -0.90 -0.15 -1.75 -0.25z"/>
 </g>
 <g fill="#635637">
  <path d="M3.70 38.05 c0.85 -0.85 1.80 -1.55 2.15 -1.55 1.05 0 0.40 0.75 -1.70 2 l-1.90 1.10 1.45 -1.55z"/>
  <path d="M18.70 36.10 c-0.80 -1.25 -1.40 -5.10 -0.80 -5.10 1 0 1.70 1.50 1.35 3 -0.20 0.95 -0.10 1.80 0.25 2.25 0.35 0.40 0.40 0.75 0.20 0.75 -0.25 0 -0.70 -0.40 -1 -0.90z"/>
  <path d="M25 31.05 c0 -0.30 -0.65 -0.90 -1.50 -1.40 -1.95 -1.15 -1.90 -1.65 0.25 -1.65 1.65 0 1.75 0.10 1.75 1.75 0 0.95 -0.10 1.75 -0.25 1.75 -0.15 0 -0.25 -0.20 -0.25 -0.45z"/>
  <path d="M18.60 29 c-0.30 -0.55 -0.60 -1.35 -0.60 -1.75 0 -0.40 -0.15 -0.75 -0.35 -0.75 -0.25 0 -0.45 -0.80 -0.50 -1.75 -0.15 -1.45 0 -1.75 0.85 -1.75 0.80 0 1 0.35 1 1.50 0 0.85 0.25 1.50 0.50 1.50 0.30 0 0.50 -0.45 0.50 -0.95 0 -0.75 0.40 -1.05 1.65 -1.15 1.45 -0.15 1.60 -0.30 1.75 -2 0.15 -1.80 0.25 -1.90 2 -1.90 1.85 0 1.75 0.65 -0.15 1.20 -0.60 0.15 -0.45 0.20 0.40 0.10 1.05 -0.10 1.35 0.05 1.35 0.75 0 0.55 0.35 0.95 0.75 0.95 0.40 0 0.75 -0.45 0.75 -1 0 -0.75 0.35 -1 1.30 -1 1.05 0 1.25 0.15 0.95 0.90 -0.20 0.45 -0.60 1.80 -0.85 2.90 -0.45 2 -0.55 2.10 -2.75 2.40 -1.25 0.15 -3.05 0.30 -3.95 0.30 -0.95 0 -1.70 0.25 -1.70 0.55 0 0.40 -0.25 0.40 -0.75 -0.05 -0.65 -0.55 -0.75 -0.40 -0.75 0.70 0 1.55 -0.55 1.65 -1.40 0.30z"/>
  <path d="M10.60 22.50 c0.35 -0.55 0.80 -1 1 -1 0.25 0 0.40 0.45 0.40 1 0 0.65 -0.35 1 -1 1 -0.90 0 -0.95 -0.10 -0.40 -1z"/>
  <path d="M15.70 19.90 c-0.50 -0.95 -0.80 -2.75 -0.80 -4.50 0 -3.35 1.35 -5.85 4.65 -8.45 2.15 -1.70 3.45 -1.90 3.45 -0.45 0 0.80 -0.35 1 -1.70 1 -1.60 0 -1.75 0.15 -1.90 1.65 -0.10 1.20 -0.40 1.65 -1.25 1.75 -2.05 0.30 -1.35 1.60 0.85 1.60 1.10 0 2 0.25 2 0.50 0 0.30 -0.60 0.50 -1.35 0.50 -0.80 0 -1.95 0.45 -2.65 1 l-1.25 1 1.95 -0.80 c1.35 -0.55 2.65 -0.70 4.20 -0.45 1.50 0.20 2.10 0.15 1.85 -0.20 -0.15 -0.30 -0.65 -0.55 -1.05 -0.55 -0.40 0 -0.70 -0.35 -0.70 -0.75 0 -0.60 0.65 -0.75 2.75 -0.75 l2.75 0 0 -2.60 0.05 -2.65 1.20 1.40 c1.65 1.90 1.85 6.30 0.25 6.70 -0.55 0.15 -1 0.50 -1 0.75 0 0.30 0.35 0.35 0.80 0.20 0.95 -0.35 2.15 0.95 2.20 2.35 0 0.50 -0.35 0.85 -1 0.85 -0.55 0 -1 -0.35 -1 -0.75 0 -0.40 -0.35 -0.75 -0.75 -0.75 -0.40 0 -0.75 -0.45 -0.75 -1 0 -0.80 -0.35 -1 -1.50 -1 -1.30 0 -1.50 0.20 -1.50 1.30 0 1.25 -0.10 1.30 -2.35 1.15 -4.45 -0.20 -4.65 -0.15 -4.65 1.80 0 2.20 -0.70 2.25 -1.80 0.15z m6.80 -3.40 c0 -0.25 -0.45 -0.50 -1.05 -0.50 -0.55 0 -0.85 0.25 -0.70 0.50 0.15 0.30 0.65 0.50 1.05 0.50 0.40 0 0.70 -0.20 0.70 -0.50z m5.55 -3.25 c1.25 -0.50 1.45 -0.70 0.65 -0.75 -0.55 0 -1.45 0.35 -2 0.75 -1.25 0.95 -0.75 0.95 1.35 0z"/>
  <path d="M9.60 16.75 c-0.65 -0.75 -1.50 -1.20 -1.90 -1.05 -0.40 0.15 -0.70 0.05 -0.70 -0.15 0 -0.25 0.35 -0.55 0.75 -0.75 0.90 -0.35 3.45 1.80 3.20 2.65 -0.15 0.40 -0.65 0.15 -1.35 -0.70z"/>
  <path d="M23.50 6.50 c0 -1.10 1 -1.30 2.55 -0.50 1.50 0.80 1.15 1.50 -0.80 1.50 -1.40 0 -1.75 -0.20 -1.75 -1z"/>
 </g>
 <g fill="#4e8254">
  <path d="M4.30 37.50 c0.60 -0.60 1.40 -1 1.75 -0.90 0.45 0.15 0 0.60 -1.05 1.10 l-1.75 0.90 1.05 -1.10z"/>
  <path d="M25.50 31.35 c0 -0.40 0.15 -1.45 0.30 -2.30 0.30 -1.35 0.55 -1.55 1.95 -1.55 1.45 0 1.70 0.20 2 1.55 0.40 1.85 -0.10 2.55 -0.95 1.30 -0.85 -1.15 -1.20 -1.10 -1.40 0.25 -0.15 1.25 -1.90 1.90 -1.90 0.75z"/>
  <path d="M15 18.05 c-0.80 -1.55 -0.60 -2.55 0.50 -2.55 0.80 0 1 0.35 1 1.75 0 1.95 -0.70 2.30 -1.50 0.80z"/>
 </g>
 <g fill="#926530">
  <path d="M29.50 38.50 c0 -0.70 1.30 -1.15 2.05 -0.75 0.40 0.30 0.35 0.50 -0.10 0.80 -0.95 0.60 -1.95 0.55 -1.95 -0.05z"/>
  <path d="M38 38 c0 -0.25 0.25 -0.50 0.50 -0.50 0.30 0 0.50 -0.35 0.50 -0.75 0 -0.40 -0.20 -0.75 -0.50 -0.75 -0.25 0 -0.50 0.25 -0.50 0.50 0 0.75 -0.85 0.60 -1.20 -0.25 -0.15 -0.40 -0.15 -1.05 0 -1.45 0.25 -0.60 0.50 -0.60 1.75 0.10 1.60 0.95 1.80 1.80 0.75 2.90 -0.85 0.80 -1.30 0.90 -1.30 0.20z"/>
  <path d="M18.60 35.75 c-0.35 -0.70 -0.60 -2.10 -0.60 -3.15 l0 -1.80 1.05 1 c0.90 0.95 0.95 1.20 0.40 2.15 -0.55 0.85 -0.55 1.25 -0.05 2.05 0.35 0.55 0.40 1 0.20 1 -0.25 0 -0.70 -0.55 -1 -1.25z"/>
  <path d="M20 34.90 c0 -1.10 0.85 -2.05 1.45 -1.70 0.80 0.50 0.65 1.65 -0.25 2 -1.10 0.40 -1.20 0.40 -1.20 -0.30z"/>
  <path d="M23.05 29.45 c-0.95 -0.50 -1.95 -1.15 -2.20 -1.40 -0.90 -0.90 -1.40 -0.60 -1.05 0.70 0.40 1.65 -0.30 1.55 -1.70 -0.25 -2.20 -2.80 -0.30 -5.15 2.65 -3.20 0.95 0.60 1.90 0.70 4.15 0.45 2.60 -0.30 5.40 -1.20 3.75 -1.25 -0.35 0 -0.65 -0.20 -0.65 -0.50 0 -0.25 0.40 -0.50 0.90 -0.50 0.85 0 0.95 0.40 0.90 3.25 -0.05 3.10 -0.35 3.90 -1.05 2.75 -0.45 -0.75 -1.25 -0.60 -1.25 0.25 0 1 -2.30 0.90 -4.45 -0.30z"/>
  <path d="M10.10 23.20 c-0.60 -0.40 -1.10 -1 -1.10 -1.25 0 -0.30 -0.45 -1.10 -1 -1.80 -1.05 -1.35 -1.35 -3.15 -0.50 -3.15 0.30 0 0.50 0.45 0.50 1 0 0.95 0.70 1.20 2.90 1.15 0.30 -0.05 0.60 0.25 0.60 0.65 0 0.40 -0.30 0.55 -0.75 0.40 -0.60 -0.25 -0.75 0.10 -0.75 1.35 0.05 1.60 0.10 1.65 0.75 0.75 0.65 -0.90 0.75 -0.90 1.05 -0.10 0.50 1.35 -0.45 1.90 -1.70 1z"/>
  <path d="M22.90 23.20 c-0.25 -0.20 -0.40 -1.10 -0.40 -2 0 -0.90 -0.20 -1.80 -0.50 -1.95 -0.80 -0.50 -0.55 -2.10 0.40 -2.50 1.50 -0.60 -0.90 -1.20 -3.15 -0.75 -1.10 0.20 -1.50 0.40 -0.85 0.45 0.95 0.05 1.10 0.35 1.10 2.05 0 1.25 -0.25 2 -0.60 2 -0.35 0 -1.10 0.15 -1.65 0.30 -0.85 0.20 -1.15 -0.15 -1.90 -2.15 -1.25 -3.50 -1.15 -4.65 0.45 -4.65 1.10 0 1.25 0.10 0.70 0.75 -0.80 0.95 -0.55 0.95 1.75 -0.05 1.25 -0.50 2.50 -0.65 3.80 -0.45 1.30 0.20 1.95 0.15 1.95 -0.20 0 -0.35 -1.15 -0.55 -3 -0.55 -1.65 0 -3 -0.20 -3 -0.50 0 -0.25 -0.55 -0.50 -1.25 -0.50 -1.70 0 -1.55 -0.70 0.50 -3.15 3.30 -3.80 5.50 -4.60 9 -3.15 2.85 1.20 5 5.80 2.75 5.80 -0.80 0 -1 -0.35 -1 -1.70 0 -1.80 0.05 -1.80 -4.85 -2.65 -1.55 -0.25 -1.65 -0.20 -1.65 1.30 0 0.95 -0.30 1.70 -0.75 1.85 -0.40 0.20 -0.75 0.60 -0.75 1 0 0.70 1.80 0.95 5.75 0.75 1.95 -0.15 1.95 -0.10 1 0.70 -1 0.80 -1 0.80 0.15 0.60 0.90 -0.20 1.10 -0.05 1.10 0.95 0 0.85 -0.30 1.20 -0.95 1.20 -0.65 0 -1 0.45 -1.15 1.40 -0.20 1.35 -0.15 1.35 2.20 1.20 l2.40 -0.20 0 1.75 c0 0.95 -0.35 2 -0.75 2.35 -0.85 0.70 -6.35 1.30 -6.85 0.70z m4.10 -2.40 c0 -0.10 -0.55 -0.05 -1.25 0.10 -0.70 0.10 -1.10 0.40 -0.95 0.65 0.20 0.40 2.20 -0.30 2.20 -0.75z"/>
  <path d="M9.55 16.70 c-0.60 -0.70 -1.45 -1.15 -1.85 -1 -0.40 0.15 -0.70 0.05 -0.70 -0.20 0 -0.85 1.95 -0.55 3 0.50 0.85 0.85 1.35 2 0.85 2 -0.10 0 -0.65 -0.60 -1.30 -1.30z"/>
 </g>
 <g fill="#78714e">
  <path d="M24.85 31 c-0.20 -0.80 0 -1 0.95 -1 0.85 0 1.20 0.30 1.20 1 0 0.65 -0.35 1 -0.95 1 -0.50 0 -1.05 -0.45 -1.20 -1z"/>
  <path d="M28.65 29.65 c-0.85 -1.75 -0.80 -2.15 0.15 -2.15 0.40 0 0.65 0.20 0.45 0.45 -0.15 0.25 -0.05 0.60 0.25 0.80 0.60 0.35 0.70 2.25 0.15 2.25 -0.25 0 -0.70 -0.60 -1 -1.35z"/>
  <path d="M19.50 25.75 c0 -1.80 0.65 -2.25 3.20 -2.25 0.90 0 2.70 -0.15 4 -0.30 2.15 -0.30 2.30 -0.45 2.30 -1.75 0 -1.10 0.25 -1.45 1 -1.45 1 0 1.45 1.65 0.55 2.20 -0.20 0.15 -0.55 1.15 -0.75 2.25 -0.15 1.10 -0.55 2.15 -0.90 2.35 -0.30 0.20 -2.55 0.40 -5 0.45 l-4.40 0.10 0 -1.60z m9 -0.75 c0.80 -0.50 -1.55 -0.25 -5.25 0.55 -1.55 0.30 -1.25 0.35 1.25 0.15 1.75 -0.15 3.55 -0.45 4 -0.70z"/>
  <path d="M16.90 23.25 c-0.75 -2.75 -0.75 -2.75 0.35 -2.75 0.85 0 1.20 0.35 1.45 1.55 0.90 4.55 -0.60 5.55 -1.80 1.20z"/>
  <path d="M14.95 17.40 c-1.35 -2.50 0.10 -6 4.30 -10.10 l1.50 -1.45 0.15 1.35 c0.20 1.70 -0.65 2.80 -2.30 2.80 -1.15 0 -1.20 0.15 -0.95 1.90 0.20 1.55 0.05 2.05 -0.70 2.50 -0.55 0.35 -0.95 1 -0.95 1.50 0.05 0.80 0.05 0.80 0.55 0 0.70 -1.20 4 -2.05 5.65 -1.40 1.85 0.70 1.70 1.70 -0.25 1.30 -1.10 -0.20 -1.45 -0.10 -1.30 0.35 0.10 0.30 0.60 0.60 1.15 0.60 0.50 0 1.15 0.30 1.40 0.70 0.35 0.55 0.50 0.55 0.85 0 0.35 -0.55 0.45 -0.50 0.45 0.15 0 0.75 -0.55 0.85 -4.55 0.75 -3.65 -0.10 -4.60 -0.25 -5 -0.95z"/>
  <path d="M9.45 16.50 c-0.75 -0.85 -1.15 -1.50 -0.90 -1.50 0.60 0 2.45 1.90 2.45 2.50 0 0.70 -0.10 0.65 -1.55 -1z"/>
  <path d="M25.50 17.50 c0 -0.30 -0.45 -1 -0.95 -1.60 -0.55 -0.55 -0.85 -1.30 -0.70 -1.70 0.20 -0.55 -0.35 -0.70 -2.55 -0.70 -2.45 0 -2.80 -0.10 -2.80 -1 0 -0.85 0.35 -1 2.25 -1 1.65 0 2.25 0.20 2.25 0.75 0 0.40 0.35 0.75 0.75 0.75 0.40 0 0.75 -0.35 0.75 -0.75 0 -0.45 0.45 -0.75 1.25 -0.75 0.70 0 1.25 -0.20 1.25 -0.50 0 -0.25 0.70 -0.50 1.50 -0.50 2.15 0 1.90 1.20 -0.50 2.15 -1.10 0.40 -2 1.05 -2 1.35 0 0.40 0.40 0.35 1.25 -0.20 0.65 -0.45 1.55 -0.80 2 -0.80 1.10 0 0.90 1.55 -0.25 1.85 -1.15 0.30 -1.35 1.15 -0.25 1.15 0.40 0 0.75 0.45 0.75 1 0 0.85 -0.35 1 -2 1 -1.10 0 -2 -0.25 -2 -0.50z"/>
  <path d="M27 8.50 c0 -1.80 0.65 -1.90 1.70 -0.40 1.10 1.55 1 1.90 -0.45 1.90 -1.05 0 -1.25 -0.25 -1.25 -1.50z"/>
 </g>
 <g fill="#a37730">
  <path d="M18 32.45 c0 -0.90 0.10 -0.95 0.75 -0.45 0.75 0.60 0.60 1.50 -0.30 1.50 -0.25 0 -0.45 -0.50 -0.45 -1.05z"/>
  <path d="M24.50 30.20 c-0.40 -0.40 -1.40 -1.05 -2.35 -1.45 -0.90 -0.40 -1.65 -0.95 -1.65 -1.30 0 -0.40 -0.20 -0.40 -0.75 0.05 -0.60 0.50 -0.75 0.45 -0.75 -0.20 0 -0.45 -0.35 -0.95 -0.75 -1.10 -0.40 -0.20 -0.75 -0.70 -0.75 -1.20 0 -0.65 0.55 -0.95 1.95 -1.20 1.45 -0.20 2 -0.60 2.25 -1.40 0.50 -2.05 0.35 -2.40 -1.20 -2.40 -0.80 0 -1.50 0.25 -1.50 0.55 0 0.75 -1.40 2.05 -1.90 1.75 -0.25 -0.15 -0.95 -1.70 -1.50 -3.40 -1.25 -3.70 -0.95 -5.95 1.15 -8.65 1.55 -2.05 2.25 -1.90 2.25 0.55 0 1.65 0.05 1.70 2.15 1.80 1.15 0.05 3.10 0.05 4.35 0.05 1.25 -0.05 1.85 0.05 1.40 0.20 -0.50 0.10 -0.90 0.55 -0.90 0.95 0 0.65 0.20 0.60 1.50 -0.05 1.85 -0.95 2.50 -0.95 2.50 0 0 0.45 -0.55 1 -1.20 1.25 -1.85 0.70 -2.10 1.55 -0.40 1.20 1.35 -0.30 1.45 -0.20 1.20 1.25 -0.10 0.95 0 1.55 0.35 1.55 0.30 0 0.55 0.80 0.55 1.75 0 1.65 -0.10 1.75 -1.75 1.75 -2.05 0 -2.15 -0.25 -0.60 -1.60 l1.10 -1 -1.25 0.30 c-0.70 0.15 -1.90 0.30 -2.65 0.30 -0.95 0 -1.35 0.20 -1.20 0.65 0.10 0.30 0.70 0.60 1.30 0.55 0.70 0 1.05 0.25 1.05 0.85 0 1.85 -0.60 2.45 -2.45 2.45 -2.95 0 -3.50 0.80 -0.85 1.20 1.25 0.20 2.30 0.60 2.30 0.90 0 0.30 -0.65 0.40 -1.75 0.20 -1.10 -0.20 -1.75 -0.15 -1.75 0.20 0 0.25 0.45 0.50 1 0.50 0.55 0 1 0.25 1 0.50 0 0.30 0.45 0.50 1 0.50 0.65 0 1 0.35 1 1 0 1.20 -0.65 1.30 -1.50 0.20z m-6.50 -11.70 c0 -0.25 -0.45 -0.50 -1.05 -0.50 -0.55 0 -0.85 0.25 -0.70 0.50 0.15 0.30 0.65 0.50 1.05 0.50 0.40 0 0.70 -0.20 0.70 -0.50z m6.20 -3.45 c-0.35 -1.60 -0.55 -1.70 -4.45 -1.70 -1.95 -0.05 -3.75 1.15 -3.75 2.40 0 0.90 0.35 1 3.25 1 1.85 0.05 3.50 0.30 3.85 0.65 0.90 0.90 1.45 -0.40 1.10 -2.35z"/>
  <path d="M18.50 15.20 c0 -0.85 2.25 -1.30 3.70 -0.70 2.05 0.75 1.50 1.35 -1.20 1.30 -1.50 -0.05 -2.50 -0.25 -2.50 -0.60z"/>
  <path d="M27.60 28.15 l1.05 -1.15 -1.05 0 c-1.55 0 -1.35 -0.90 0.30 -1.55 0.75 -0.35 1.10 -0.65 0.75 -0.80 -1.05 -0.40 -0.75 -1.65 0.40 -1.65 0.95 0 1.05 0.20 0.70 1.65 -0.20 0.85 -0.35 2.30 -0.35 3.15 0 1.35 -0.20 1.55 -1.45 1.55 l-1.45 0 1.10 -1.20z"/>
  <path d="M8.90 20.75 c-0.20 -0.85 -0.05 -1.25 0.40 -1.25 0.40 0 0.70 0.55 0.70 1.25 0 1.60 -0.80 1.60 -1.10 0z"/>
  <path d="M10 17 c-0.30 -0.55 -1.05 -1.25 -1.65 -1.50 -0.70 -0.30 -0.85 -0.45 -0.30 -0.45 0.90 -0.05 3.30 2.30 2.85 2.75 -0.20 0.15 -0.60 -0.20 -0.90 -0.80z"/>
  <path d="M28 10.70 c0 -1.35 -0.20 -1.70 -1 -1.70 -0.55 0 -1 -0.35 -1 -0.75 0 -0.50 -0.55 -0.75 -1.75 -0.75 -1.40 0 -1.75 -0.20 -1.75 -1 0 -2.25 5.35 -0.10 6.65 2.65 1.10 2.25 1.05 2.70 -0.15 3 -0.85 0.20 -1 0 -1 -1.45z"/>
 </g>
 <g fill="#a88049">
  <path d="M37.35 36.70 c-0.15 -0.20 0 -0.65 0.40 -1.05 0.65 -0.65 0.85 -0.60 1.55 0.10 0.45 0.45 0.65 0.95 0.50 1.15 -0.20 0.15 -0.55 0 -0.85 -0.40 -0.35 -0.60 -0.55 -0.60 -0.85 -0.10 -0.25 0.35 -0.55 0.45 -0.75 0.30z"/>
  <path d="M24.85 30.80 c-0.90 -1.35 -0.65 -1.80 0.85 -1.80 0.60 0 1.50 -0.35 2 -0.75 0.95 -0.75 2.30 -1.05 1.65 -0.45 -0.15 0.20 -0.10 0.75 0.15 1.25 0.30 0.50 0.30 1 0.05 1.15 -0.25 0.15 -0.55 -0.05 -0.75 -0.45 -0.40 -1.15 -1 -0.90 -1.70 0.75 -0.80 1.80 -1.25 1.85 -2.25 0.30z"/>
  <path d="M21.90 28.65 c-0.50 -0.10 -0.90 -0.55 -0.90 -0.95 0 -0.40 -0.20 -0.70 -0.50 -0.70 -0.25 0 -0.50 -0.20 -0.50 -0.45 0 -0.20 1.80 -0.55 4.05 -0.70 4.55 -0.35 5.70 -0.80 3.90 -1.45 -0.75 -0.30 -1.25 -0.25 -1.35 0.05 -0.10 0.30 -1.05 0.55 -2.15 0.55 l-1.95 0 0 -3.25 c0 -2.45 0.15 -3.25 0.70 -3.25 0.80 0 1.55 -2.65 1.05 -3.50 -0.35 -0.60 0.60 -2 1.30 -2 0.25 0 0.45 0.45 0.45 1.05 l0 1 1.30 -1 c1.40 -1.10 2.70 -1.40 2.70 -0.60 0 0.25 -0.65 0.95 -1.50 1.55 -1.45 1.05 -2.05 2.50 -1 2.50 0.25 0 0.45 -0.25 0.35 -0.60 -0.20 -1 1.80 -1.10 2.50 -0.10 0.90 1.25 0.80 1.70 -0.35 1.70 -0.95 0 -1 0.20 -0.65 1.90 1.10 5.25 0.10 6.75 -4.45 6.90 -3.95 0.10 -3.95 0.15 -2.15 0.95 1.45 0.70 0.95 0.90 -0.85 0.40z m2.60 -5.65 c0.30 -0.50 1.40 -1.20 2.50 -1.50 1.10 -0.30 2 -0.80 2 -1.10 0 -0.30 -0.45 -0.40 -1.10 -0.20 -0.65 0.15 -1.85 0.30 -2.70 0.30 -1.45 0 -1.60 0.15 -1.80 1.75 -0.20 1.95 0.30 2.30 1.10 0.75z"/>
  <path d="M18.25 25.50 c0.15 -0.25 1.05 -0.50 1.90 -0.45 1.55 0.05 1.55 0.05 0.35 0.45 -1.80 0.55 -2.60 0.55 -2.25 0z"/>
  <path d="M9.25 21.35 c-0.20 -0.50 -0.25 -1.05 -0.05 -1.20 0.50 -0.50 0.90 0.20 0.65 1.20 -0.20 0.85 -0.20 0.85 -0.60 0z"/>
  <path d="M16.50 20.20 c0 -0.40 0.20 -0.65 0.45 -0.50 0.25 0.15 0.55 -0.05 0.75 -0.45 0.15 -0.45 0.90 -0.75 1.80 -0.75 1.15 0 1.50 0.25 1.50 0.95 0 0.95 -1.25 1.55 -3.35 1.55 -0.70 0 -1.15 -0.30 -1.15 -0.80z"/>
  <path d="M15.30 17.20 c-1.10 -1.10 -0.65 -3.60 1 -5.05 0.65 -0.60 1.10 -1.40 0.95 -1.75 -0.15 -0.40 0.65 -1.55 1.75 -2.65 1.75 -1.75 2.35 -2 4.20 -1.95 3.45 0.05 5.60 1.75 6.55 5 0.20 0.80 0 1.15 -0.75 1.35 -0.65 0.15 -1 0 -1 -0.40 0 -0.40 -0.60 -1 -1.35 -1.35 -0.80 -0.35 -1.45 -1.15 -1.55 -1.80 -0.25 -1.55 -1.85 -1.40 -2.75 0.30 -1.65 3.15 -2.65 4.60 -3.20 4.60 -1.35 0 -4.20 1.75 -4.05 2.50 0.15 0.75 0.45 0.75 6.80 0.95 0.60 0.05 1.10 0.20 1.10 0.45 0 0.20 -1.55 0.40 -3.45 0.50 -2.70 0.15 -3.60 0 -4.25 -0.70z"/>
  <path d="M9.15 16.20 c-0.60 -0.65 -0.95 -1.20 -0.70 -1.20 0.20 0 0.90 0.55 1.55 1.25 0.65 0.70 0.95 1.25 0.70 1.20 -0.25 -0.05 -0.95 -0.60 -1.55 -1.25z"/>
  <path d="M17.20 15.25 c1.20 -0.90 2.95 -1 2.70 -0.10 -0.15 0.30 -1 0.65 -1.95 0.75 -1.60 0.10 -1.65 0.05 -0.75 -0.65z"/>
  <path d="M21.40 15.65 c-0.50 -0.10 -0.90 -0.45 -0.90 -0.70 0 -0.75 2.15 -0.35 2.40 0.45 0.20 0.60 0 0.65 -1.50 0.25z"/>
 </g>
 <g fill="#b38f39">
  <path d="M20.65 27.25 c-0.55 -1.25 -0.55 -1.25 1.75 -1.25 1.70 0 2.15 0.15 1.60 0.50 -0.40 0.25 -1.15 0.50 -1.70 0.50 -0.60 0 -0.80 0.25 -0.60 0.75 0.45 1.25 -0.40 0.80 -1.05 -0.50z"/>
  <path d="M27.50 26.25 c0 -0.40 0.10 -0.75 0.20 -0.75 0.10 0 0.55 -0.15 1 -0.30 1.15 -0.45 1 0.65 -0.20 1.30 -0.80 0.45 -1 0.40 -1 -0.25z"/>
  <path d="M17.50 24.70 c-0.70 -1.75 -1.20 -5.55 -0.75 -5.05 0.25 0.20 0.75 0.05 1.20 -0.35 0.90 -0.85 0.80 -0.80 3.80 -0.80 2.60 0 3.05 -0.55 2.55 -3.25 -0.30 -1.45 -0.55 -1.75 -1.60 -1.75 -1.05 0 -1.15 -0.10 -0.60 -0.65 0.35 -0.40 2.25 -0.80 4.15 -1 l3.50 -0.30 -1.85 0.85 c-2 0.90 -2.45 2.20 -1.40 4.15 0.65 1.15 1.50 1.25 1.50 0.20 0 -1.05 1.80 -0.95 2.25 0.15 1.15 2.70 0 7.60 -1.75 7.60 -0.65 0 -0.90 -0.25 -0.70 -0.75 0.20 -0.40 0.05 -0.75 -0.25 -0.75 -0.30 0 -0.55 0.30 -0.55 0.70 0 0.50 -0.80 0.85 -2.35 1.05 -1.35 0.20 -3.20 0.55 -4.15 0.80 -2.40 0.60 -2.45 0.60 -3 -0.85z m7.25 -1.70 c0 -0.50 0.50 -0.75 1.65 -0.70 1.05 0.05 1.60 -0.15 1.60 -0.60 0 -0.40 0.25 -0.70 0.50 -0.70 0.30 0 0.50 -0.25 0.50 -0.50 0 -0.30 -1.05 -0.40 -2.60 -0.30 -2.60 0.20 -2.65 0.25 -2.95 2 -0.25 1.50 -0.15 1.80 0.50 1.70 0.45 -0.10 0.80 -0.50 0.80 -0.90z m-2.85 -1.85 c0.10 -0.40 -0.30 -0.65 -1.10 -0.65 -0.95 0 -1.20 0.20 -0.95 0.75 0.30 0.90 1.70 0.80 2.05 -0.10z"/>
  <path d="M15.30 17.20 c-0.45 -0.40 -0.80 -0.90 -0.80 -1.10 0 -0.15 0.25 -0.05 0.55 0.25 0.35 0.35 1.25 0.45 2 0.30 1.80 -0.35 5.95 0.25 5.95 0.90 0 0.80 -6.85 0.55 -7.70 -0.35z"/>
  <path d="M16.85 15.50 c0.80 -0.85 5.40 -1.30 5.85 -0.55 0.20 0.35 0 0.55 -0.60 0.55 -0.55 0 -2.05 0.15 -3.40 0.30 -1.95 0.25 -2.35 0.20 -1.85 -0.30z"/>
  <path d="M26.75 15.50 c-0.30 -0.50 1.45 -2.50 2.25 -2.50 0.30 0 0.50 0.30 0.50 0.70 0 0.90 -2.35 2.45 -2.75 1.80z"/>
  <path d="M15.20 14.40 c-0.20 -0.30 -0.15 -0.40 0.20 -0.20 0.30 0.15 0.65 -0.10 0.80 -0.55 0.15 -0.50 0.75 -1.20 1.30 -1.55 0.85 -0.55 1 -0.50 1 0.40 0 1.20 -2.75 2.80 -3.30 1.90z"/>
  <path d="M25.10 8.85 c-1.30 -1.35 -1.45 -2.85 -0.30 -2.85 1.05 0 3.55 1.80 4.20 3.05 0.50 0.85 0.35 0.95 -1.15 0.95 -1.10 0 -2.05 -0.40 -2.75 -1.15z"/>
 </g>
 <g fill="#908e6e">
  <path d="M25.25 31.50 c-0.55 -0.90 0.30 -2.50 1.30 -2.50 0.95 0 1.20 0.80 0.65 2.20 -0.35 0.90 -1.50 1.05 -1.95 0.30z"/>
  <path d="M28.65 29.70 c-0.45 -0.95 -0.40 -1.20 0.10 -1.20 0.80 0 1.45 1.50 0.90 2.05 -0.20 0.20 -0.65 -0.15 -1 -0.85z"/>
  <path d="M24 26.50 c0 -0.25 0.85 -0.60 1.90 -0.75 1 -0.20 2.25 -0.45 2.75 -0.60 1.05 -0.25 1.10 0.05 0.05 1.05 -0.85 0.85 -4.70 1.10 -4.70 0.30z"/>
  <path d="M24 24.55 c0 -0.30 0.35 -0.55 0.75 -0.55 0.40 0 0.75 -0.20 0.75 -0.50 0 -0.60 3 -0.65 3.95 -0.05 0.95 0.60 0.05 1.05 -2.95 1.40 -1.70 0.20 -2.50 0.10 -2.50 -0.30z"/>
  <path d="M20.65 18.65 c0.45 -0.10 1.25 -0.10 1.75 0 0.45 0.15 0.05 0.25 -0.90 0.25 -0.95 0 -1.35 -0.10 -0.85 -0.25z"/>
  <path d="M16.35 17.70 c-1.25 -1.30 3.80 -1.70 5.45 -0.45 0.85 0.65 0.70 0.70 -2.10 0.75 -1.65 0 -3.20 -0.15 -3.35 -0.30z"/>
  <path d="M26.15 17.65 c-0.40 -0.10 -0.65 -1.05 -0.60 -2.05 0.05 -1.80 0.05 -1.80 0.45 -0.45 0.25 0.80 0.70 1.75 1.05 2.15 0.55 0.70 0.25 0.85 -0.90 0.35z"/>
  <path d="M28.15 17.25 c-0.15 -0.45 -0.15 -0.90 0 -1.10 0.50 -0.50 1.85 0.30 1.85 1.10 0 1 -1.45 1 -1.85 0z"/>
  <path d="M26.80 15.55 c-0.40 -0.60 1.05 -2.05 2 -2.05 1.05 0 0.85 0.65 -0.55 1.65 -0.65 0.45 -1.30 0.65 -1.45 0.40z"/>
  <path d="M16.25 13.95 c1.15 -2.05 1.95 -2.45 4.60 -2.45 2.35 0 2.65 0.10 2.65 1.05 0 0.90 -0.20 1.05 -1.45 0.80 -1.35 -0.30 -2.95 0 -5.25 0.95 -0.75 0.30 -0.85 0.20 -0.55 -0.35z"/>
  <path d="M25.50 12.25 c0 -1.10 0.20 -1.25 1.80 -1.25 2.20 0 2.10 0.90 -0.20 1.85 -1.55 0.65 -1.60 0.60 -1.60 -0.60z"/>
 </g>
 <g fill="#be9a4e">
  <path d="M29 29.75 c0 -0.40 -0.25 -0.75 -0.60 -0.75 -0.30 0 -0.40 -0.15 -0.25 -0.30 0.40 -0.40 1.85 0.70 1.85 1.35 0 0.25 -0.20 0.45 -0.50 0.45 -0.25 0 -0.50 -0.35 -0.50 -0.75z"/>
  <path d="M20.50 26.50 c0 -0.25 0.60 -0.50 1.40 -0.50 1.05 0 1.20 0.10 0.60 0.50 -1 0.65 -2 0.65 -2 0z"/>
  <path d="M26 26.30 c0 -0.40 0.70 -0.75 1.75 -0.90 2 -0.25 2 -0.25 0.95 0.80 -0.95 1 -2.70 1.05 -2.70 0.10z"/>
  <path d="M17.70 24.40 c-0.20 -0.65 -0.10 -1.20 0.20 -1.30 0.35 -0.10 0.35 -0.60 0 -1.65 -0.80 -2.35 0 -2.85 4.35 -2.75 2.05 0.05 3.75 -0.10 3.75 -0.30 0 -0.20 -0.30 -0.40 -0.65 -0.40 -0.40 0 -0.70 -0.55 -0.70 -1.40 0 -0.75 -0.15 -2 -0.35 -2.75 -0.30 -1.20 -0.20 -1.35 0.90 -1.35 1.50 0 1.85 -0.45 1.45 -1.90 -0.20 -0.90 -3.05 -2.95 -3.40 -2.50 -0.05 0.10 -0.40 0.65 -0.70 1.30 -0.40 0.75 -1.05 1.10 -2.10 1.10 l-1.50 0 1 -1.45 c0.60 -0.80 1.05 -1.70 1.05 -2 0 -0.85 1.75 -1.50 3.05 -1.20 0.65 0.15 1.85 0.95 2.60 1.85 0.95 1 1.35 1.25 1.15 0.60 -0.55 -1.65 1.05 0.05 1.65 1.75 0.50 1.45 0.45 1.55 -1.70 2.45 -2.15 0.90 -2.20 1 -1.75 2.50 0.50 1.70 1.35 3 2.05 3 0.25 0 0.30 -0.30 0.15 -0.70 -0.45 -1.15 0.80 -1.45 1.85 -0.50 1.05 0.95 1.30 4.15 0.40 5.05 -0.30 0.30 -0.60 0.95 -0.65 1.45 -0.20 1.30 -2.30 1.60 -2.30 0.35 0 -0.55 0.35 -1.40 0.75 -1.95 1.30 -1.70 0.95 -2.15 -1.25 -1.60 -1.50 0.40 -2.20 0.35 -2.75 -0.10 -0.65 -0.55 -0.75 -0.40 -0.75 0.90 0 2.15 -0.45 3.10 -1.55 3.10 -0.50 0 -0.90 0.25 -0.80 0.55 0.05 0.30 -0.20 0.70 -0.50 0.80 -0.40 0.15 -0.65 -0.20 -0.65 -0.80 0 -0.60 -0.20 -1.05 -0.50 -1.05 -0.25 0 -0.50 0.45 -0.50 1 0 1.35 -0.85 1.25 -1.30 -0.10z"/>
  <path d="M24.50 23.50 c0.90 -0.80 1.80 -1.50 2.05 -1.50 0.25 0 0.45 0.70 0.45 1.50 0 1.40 -0.10 1.50 -2.05 1.50 l-2.05 0 1.60 -1.50z"/>
  <path d="M16.55 17.55 c-1.15 -0.75 3.55 -0.95 4.95 -0.25 1.15 0.60 1.05 0.65 -1.50 0.65 -1.50 0.05 -3.05 -0.15 -3.45 -0.40z"/>
  <path d="M16.85 15.50 c0.75 -0.85 4.90 -1.25 5.35 -0.55 0.25 0.35 -0.05 0.55 -0.80 0.55 -0.65 0 -2.05 0.15 -3.15 0.30 -1.60 0.25 -1.90 0.20 -1.40 -0.30z"/>
  <path d="M26.50 15.30 c0 -0.50 1.65 -1.80 2.30 -1.80 1.10 0 0.80 0.80 -0.55 1.40 -1.40 0.65 -1.75 0.70 -1.75 0.40z"/>
  <path d="M16.30 13.90 c0.20 -0.35 0.70 -1.05 1.15 -1.55 0.75 -0.90 0.80 -0.90 1.10 0 0.20 0.60 -0.05 1.05 -0.95 1.50 -1.50 0.80 -1.75 0.80 -1.30 0.05z"/>
 </g>
 <g fill="#c5ab6b">
  <path d="M25.05 30.90 c-0.45 -1.25 0.10 -1.90 1.60 -1.90 1 0 1 0.05 0.35 1.70 -0.60 1.60 -1.40 1.65 -1.95 0.20z"/>
  <path d="M20.50 26.50 c0 -0.25 1.05 -0.50 2.40 -0.45 1.90 0.05 2.10 0.10 1.10 0.45 -1.80 0.60 -3.50 0.60 -3.50 0z"/>
  <path d="M25.60 26.40 c0.15 -0.35 1 -0.70 1.95 -0.80 1.60 -0.10 1.65 -0.05 0.75 0.65 -1.20 0.90 -2.95 1 -2.70 0.15z"/>
  <path d="M24.15 24.25 c0.75 -0.40 1.35 -1.15 1.35 -1.55 0 -0.60 0.30 -0.75 1.20 -0.50 0.85 0.20 1.30 0.05 1.50 -0.55 0.30 -0.75 0.40 -0.75 0.80 -0.15 0.30 0.40 0.50 1.25 0.50 1.90 0 0.90 -0.25 1.10 -1.70 1.10 -0.90 0 -2.45 0.10 -3.35 0.30 l-1.70 0.25 1.40 -0.80z"/>
  <path d="M19.15 22.80 c-0.65 -0.65 -1.20 -1.70 -1.25 -2.35 -0.15 -1.05 0.10 -1.20 2.15 -1.45 3.10 -0.35 3.45 -0.20 3.45 1.55 0 3.35 -2.15 4.45 -4.35 2.25z"/>
  <path d="M29.50 20.80 c0 -1.35 -0.50 -1.40 -3.35 -0.50 -0.85 0.25 -2.15 -0.30 -2.15 -0.90 0 -0.30 0.35 -0.40 0.75 -0.25 0.90 0.40 1.50 -0.50 0.85 -1.30 -0.30 -0.35 -0.65 -1.45 -0.85 -2.45 -0.25 -1.40 -0.60 -1.90 -1.30 -1.90 -0.60 0 -0.95 -0.35 -0.95 -1 0 -0.85 0.35 -1 2.10 -1 l2.10 0 -1.45 -1.50 -1.40 -1.50 -1.70 1.90 c-0.90 1 -1.65 2 -1.65 2.25 0 0.20 -0.30 0.35 -0.60 0.35 -0.35 0 -1.30 0.35 -2.10 0.75 -0.80 0.45 -1.50 0.70 -1.60 0.60 -0.10 -0.10 0.90 -1.50 2.25 -3.15 1.30 -1.60 2.65 -3.45 3 -4.10 1.05 -1.95 3.05 -1.45 5.70 1.35 1.30 1.35 2.35 2.70 2.35 2.95 0 0.25 -0.90 0.80 -2 1.25 -1.85 0.70 -2 0.90 -1.70 2.20 0.35 1.50 1.55 3.15 2.35 3.15 0.25 0 0.35 -0.35 0.20 -0.75 -0.45 -1.10 0.35 -1.30 1.60 -0.45 0.90 0.65 1.05 1.20 0.95 2.85 -0.15 2.25 -1.40 3.25 -1.40 1.15z"/>
  <path d="M16.25 17.50 c-0.20 -0.30 0.30 -0.50 1.20 -0.50 0.80 0 1.75 -0.10 2.15 -0.25 0.35 -0.15 1.10 0.05 1.60 0.40 0.85 0.60 0.65 0.70 -1.85 0.80 -1.50 0.05 -2.90 -0.15 -3.10 -0.45z"/>
  <path d="M17.25 15.50 c0.15 -0.25 0.80 -0.50 1.40 -0.50 0.90 0 0.95 0.10 0.35 0.50 -1 0.65 -2.15 0.65 -1.75 0z"/>
 </g>
 <g fill="#ada98a">
  <path d="M25.50 30.55 c0 -0.50 0.45 -1.05 1.05 -1.20 0.75 -0.20 0.95 -0.10 0.75 0.50 -0.15 0.40 -0.30 0.95 -0.30 1.20 0 0.25 -0.35 0.45 -0.75 0.45 -0.40 0 -0.75 -0.40 -0.75 -0.95z"/>
  <path d="M28.85 29.45 c-0.20 -0.80 -0.15 -0.90 0.45 -0.40 0.80 0.65 0.95 1.45 0.25 1.45 -0.25 0 -0.55 -0.45 -0.70 -1.05z"/>
  <path d="M24.50 26.50 c0 -0.55 3.15 -1.20 4.10 -0.85 0.40 0.15 0.10 0.45 -0.75 0.80 -1.75 0.70 -3.35 0.70 -3.35 0.05z"/>
  <path d="M24.50 24.65 c0 -0.80 1.10 -1.50 2.85 -1.80 1.60 -0.30 2.65 0.35 1.85 1.15 -0.70 0.70 -4.70 1.20 -4.70 0.65z"/>
  <path d="M29.15 18.70 c-0.35 -0.90 0.55 -1.95 1.30 -1.50 0.85 0.55 0.65 2.30 -0.20 2.30 -0.45 0 -0.90 -0.35 -1.10 -0.80z"/>
  <path d="M18.90 16.95 c0.75 -0.30 1.50 -0.25 2 0.05 0.65 0.35 0.40 0.45 -1.15 0.45 -1.75 0 -1.85 -0.05 -0.85 -0.50z"/>
  <path d="M16.50 14.05 c0 -0.20 0.50 -0.85 1.15 -1.45 0.90 -0.85 1.80 -1.10 3.75 -1.10 2.30 0 2.60 0.10 2.60 1.05 0 0.90 -0.20 1 -2.20 0.70 -1.55 -0.25 -2.70 -0.15 -3.75 0.40 -0.85 0.45 -1.55 0.60 -1.55 0.40z"/>
  <path d="M26.50 11.70 c0 -1.10 0.20 -1.25 1.35 -1.10 1.85 0.20 1.95 1.20 0.15 1.80 -1.40 0.50 -1.50 0.45 -1.50 -0.70z"/>
 </g>
 <g fill="#d3c391">
  <path d="M25.50 31.55 c0 -0.25 -0.15 -0.80 -0.30 -1.25 -0.20 -0.60 0 -0.80 0.75 -0.80 1.25 0 1.50 1.75 0.30 2.20 -0.40 0.15 -0.75 0.05 -0.75 -0.15z"/>
  <path d="M21.25 26.50 c0.15 -0.25 0.95 -0.50 1.80 -0.50 0.80 0 1.45 0.25 1.45 0.50 0 0.30 -0.80 0.50 -1.80 0.50 -1.05 0 -1.65 -0.20 -1.45 -0.50z"/>
  <path d="M25 26.50 c0 -0.50 3.40 -1.25 3.85 -0.80 0.30 0.30 -2 1.30 -3.15 1.30 -0.40 0 -0.70 -0.20 -0.70 -0.50z"/>
  <path d="M25.05 23.45 c1.20 -1.15 1.70 -1.35 2.05 -0.85 0.30 0.50 0.50 0.50 0.90 -0.10 0.45 -0.65 0.55 -0.65 1 0 0.25 0.40 0.50 0.90 0.50 1.05 0 0.60 -1.60 1 -2.55 0.70 -0.55 -0.20 -0.95 -0.10 -0.95 0.20 0 0.30 -0.60 0.55 -1.30 0.55 l-1.30 0 1.65 -1.55z"/>
  <path d="M19.35 22.45 c-0.75 -0.75 -1.35 -1.85 -1.35 -2.40 0 -0.85 0.30 -1.05 1.75 -1.05 1.45 0 1.75 0.20 1.75 1 0 0.55 0.35 1.15 0.75 1.30 1.15 0.45 0.90 2.05 -0.40 2.30 -0.75 0.15 -1.55 -0.20 -2.50 -1.15z"/>
  <path d="M29.85 21.15 c-0.65 -1.10 -0.85 -3.60 -0.30 -3.90 0.75 -0.50 1.45 0.65 1.45 2.35 0 1.30 -0.70 2.30 -1.15 1.55z"/>
  <path d="M26 19.25 c0.50 -0.55 0.45 -0.90 -0.20 -1.50 -0.45 -0.45 -0.80 -1.40 -0.75 -2.15 l0 -1.35 0.50 1.20 c0.25 0.65 1.05 1.75 1.75 2.40 1.45 1.35 1.20 2.15 -0.65 2.15 -1.05 0 -1.15 -0.10 -0.65 -0.75z"/>
  <path d="M17.65 17.15 c0.75 -0.10 1.85 -0.10 2.50 0 0.60 0.10 0 0.20 -1.40 0.20 -1.35 0 -1.90 -0.10 -1.10 -0.20z"/>
  <path d="M18 12.15 c0.85 -1.05 1.95 -2.35 2.45 -2.90 0.50 -0.55 1.15 -1.50 1.50 -2.10 0.30 -0.65 0.95 -1.15 1.35 -1.15 0.90 0 6.60 5.30 6.15 5.70 -0.15 0.15 -0.80 0.35 -1.50 0.40 -0.90 0.10 -1.25 -0.10 -1.35 -0.90 -0.20 -1.55 -2.45 -1.90 -4.05 -0.65 l-1.20 0.95 2.10 0 c2.30 0 2.90 1.20 0.85 1.70 -1.35 0.35 -2.80 -0.05 -2.80 -0.75 0 -0.20 -1.05 0.05 -2.30 0.55 -1.25 0.55 -2.40 1 -2.55 1 -0.15 0 0.45 -0.85 1.35 -1.85z"/>
 </g>
 <g fill="#ded4a9">
  <path d="M25.35 30.50 c-0.20 -0.75 0 -1 0.70 -1 0.60 0 0.95 0.35 0.95 1 0 0.55 -0.30 1 -0.70 1 -0.35 0 -0.80 -0.45 -0.95 -1z"/>
  <path d="M22.80 26.55 c-0.25 -0.40 5.20 -1.20 5.65 -0.80 0.35 0.35 -2.45 1.25 -3.95 1.25 -0.80 0 -1.55 -0.20 -1.70 -0.45z"/>
  <path d="M24.85 23.65 c0.85 -0.85 1.60 -1.30 1.95 -1.05 0.30 0.25 0.95 0.30 1.40 0.10 0.50 -0.20 0.80 -0.05 0.80 0.45 0 1.05 -0.30 1.20 -3.15 1.60 l-2.40 0.35 1.40 -1.45z"/>
  <path d="M19.70 21.75 c-0.50 -0.95 -1.10 -1.75 -1.30 -1.75 -0.25 0 -0.40 -0.20 -0.40 -0.40 0 -0.20 1.15 -0.45 2.50 -0.50 l2.50 -0.10 0 1.95 c0 1.30 -0.25 2.05 -0.80 2.25 -1.30 0.50 -1.50 0.40 -2.50 -1.45z"/>
  <path d="M29.85 20.65 c-0.70 -1.30 -0.80 -3.05 -0.15 -3.30 0.75 -0.30 1.30 0.60 1.30 2.15 0 1 -0.80 1.75 -1.15 1.15z"/>
  <path d="M26.15 18.50 c0 -1.50 0 -1.50 0.95 -0.50 1 1.05 0.85 2 -0.30 2 -0.35 0 -0.65 -0.60 -0.65 -1.50z"/>
  <path d="M18.90 11.50 c0.70 -0.95 1.85 -2.15 2.45 -2.65 0.65 -0.50 1.15 -1.25 1.15 -1.65 0 -0.40 0.25 -0.70 0.50 -0.70 1.05 0 4.60 2.70 5.25 4.05 0.70 1.25 0.65 1.35 -0.65 1.90 -0.75 0.30 -3.30 0.60 -5.70 0.65 l-4.35 0.15 1.35 -1.75z"/>
 </g>
 <g fill="#e9e2ba">
  <path d="M25.50 30.50 c-0.45 -0.85 -0.40 -1 0.50 -1 0.55 0 1 0.30 1 0.70 0 1.20 -0.90 1.40 -1.50 0.30z"/>
  <path d="M24 26.55 c0 -0.30 0.30 -0.55 0.70 -0.55 0.35 0 1.45 -0.15 2.35 -0.30 1.20 -0.25 1.55 -0.15 1.20 0.20 -0.75 0.80 -4.25 1.35 -4.25 0.65z"/>
  <path d="M25.35 23.70 c0.95 -0.95 1.40 -1.15 1.70 -0.65 0.30 0.50 0.55 0.50 1.15 0 0.65 -0.55 0.80 -0.55 0.80 0.15 0 0.45 -0.55 0.90 -1.25 1.05 -0.70 0.15 -1.80 0.35 -2.50 0.50 l-1.20 0.25 1.30 -1.30z"/>
  <path d="M30 19.90 c0 -0.45 -0.15 -1.15 -0.30 -1.60 -0.15 -0.45 -0.10 -0.80 0.20 -0.80 0.70 0 1.05 1.75 0.55 2.55 -0.35 0.55 -0.45 0.55 -0.45 -0.15z"/>
  <path d="M18.50 12.45 c0 -0.70 4.50 -4.95 5.25 -4.95 0.95 0 3.70 1.95 4.25 3.05 0.90 1.70 -0.05 2.15 -5 2.35 -3.40 0.15 -4.50 0.05 -4.50 -0.45z m4 -0.95 c0 -0.25 -0.30 -0.50 -0.70 -0.50 -0.40 0 -0.90 0.25 -1.05 0.50 -0.15 0.30 0.15 0.50 0.70 0.50 0.60 0 1.05 -0.20 1.05 -0.50z"/>
 </g>
</svg>