<?xml version="1.0" encoding="utf-8"?>
<!DOCTYPE svg PUBLIC "-//W3C//DTD SVG 1.0//EN" "http://www.w3.org/TR/2001/REC-SVG-20010904/DTD/svg10.dtd">
<svg version="1.0" xmlns="http://www.w3.org/2000/svg" width="40px" height="40px" viewBox="0 0 40 40" preserveAspectRatio="xMidYMid meet">
 <g fill="#0a030c">
  <path d="M1 39.45 c0 -0.25 0.25 -0.45 0.55 -0.45 0.80 0 3.40 -2.95 2.80 -3.15 -0.30 -0.10 -0.05 -0.70 0.55 -1.35 0.85 -0.95 1.10 -1.80 1.10 -4 0 -1.60 0.10 -3.85 0.20 -5.05 0.10 -1.20 0.10 -1.80 -0.05 -1.30 -0.10 0.45 -0.55 0.85 -0.90 0.85 -0.50 0 -0.70 -0.60 -0.70 -2.10 0.05 -4.20 -0.05 -4.90 -0.60 -4.90 -0.35 0 -0.40 -0.35 -0.20 -0.85 0.20 -0.50 0.45 -1.70 0.50 -2.65 0.40 -5.25 1.65 -7.50 5.75 -10.20 2.20 -1.45 7.60 -2.75 7.85 -1.95 0.15 0.45 0.55 0.45 1.40 0.05 0.85 -0.40 1.60 -0.40 2.60 0 0.75 0.30 1.95 0.65 2.65 0.80 0.70 0.15 2.15 1.15 3.20 2.25 2 2.05 2 2.05 2.20 6.65 0.10 2.55 0.40 4.85 0.65 5.15 0.85 0.85 0.50 2.25 -0.55 2.25 -0.75 0 -1 -0.35 -1 -1.25 0 -0.90 -0.25 -1.25 -1 -1.25 -0.55 0 -1 -0.35 -1 -0.75 0 -0.40 -0.45 -0.75 -1 -0.75 -0.55 0 -1 0.25 -1 0.50 0 0.30 -0.35 0.50 -0.75 0.50 -0.40 0 -0.75 0.45 -0.75 1 0 0.85 -0.35 1 -2 1 -1.70 0 -2 -0.15 -2 -1.05 0 -0.75 -0.20 -0.95 -0.80 -0.75 -0.45 0.15 -1.35 0.30 -2 0.30 -1.50 0 -1.55 0.90 -0.15 3.60 0.85 1.65 1 2.65 0.80 4.60 -0.15 1.40 -0.05 3.55 0.20 4.80 0.30 1.25 0.65 3 0.80 3.90 0.20 1.10 0.55 1.60 1.20 1.60 1.35 0 1.55 -0.75 0.45 -1.75 -0.60 -0.55 -1 -1.55 -1 -2.60 l0 -1.65 2.50 0 c1.80 0 2.60 0.20 2.80 0.75 0.20 0.45 0.95 0.75 2 0.75 1.65 0 1.70 -0.10 1.70 -1.85 l0 -1.90 -3.75 0.15 -3.75 0.20 0 -1.80 c0 -1.70 0.10 -1.80 1.70 -1.80 3.30 0 6.30 -0.60 6.30 -1.30 0 -0.40 0.45 -0.70 1 -0.70 0.65 0 1 0.30 0.90 0.75 -0.10 0.40 0.75 2.65 1.85 5 2 4.20 2.05 4.25 4.90 5.35 3.40 1.35 3.85 2.60 0.85 2.30 -1.75 -0.15 -2.10 0 -2.30 0.90 -0.25 0.85 -0.85 1.15 -4.10 1.60 -2.10 0.35 -4.35 0.60 -4.95 0.60 -0.70 0 -1.15 0.30 -1.15 0.80 0 0.65 -1.45 0.75 -12.25 0.65 -6.75 -0.05 -12.25 -0.30 -12.25 -0.50z m8.90 -19 c-0.50 -1.50 -1.90 -3.50 -1.90 -2.75 0 0.50 2.20 4.80 2.35 4.60 0.10 -0.05 -0.10 -0.90 -0.45 -1.85z m6.65 -7.75 c0.55 -0.65 1.35 -0.75 4.10 -0.55 2.45 0.15 4.05 0 5.45 -0.55 1.80 -0.70 1.95 -0.90 1.70 -2.25 -0.15 -0.80 -0.30 -1.90 -0.30 -2.40 0 -0.70 -0.35 -0.95 -1.40 -0.95 -0.80 0 -1.90 -0.45 -2.50 -1 -1.35 -1.25 -2.15 -1.25 -4.60 0 -1.50 0.75 -2 1.30 -2 2.25 0 0.65 -0.20 1.35 -0.50 1.50 -0.25 0.15 -0.50 0.85 -0.50 1.55 0 0.70 -0.25 1.70 -0.50 2.25 -0.65 1.15 0.10 1.25 1.05 0.15z"/>
 </g>
 <g fill="#0c052f">
  <path d="M1.50 39.75 c0 -0.40 3.65 -3.75 4.10 -3.75 0.20 0 0.40 -0.25 0.40 -0.60 0 -0.45 -0.15 -0.45 -0.60 0 -1.15 1.15 -1.45 0.60 -0.50 -0.80 0.75 -1 1.05 -2.50 1.25 -5.75 0.30 -4.60 0.60 -5.60 1.35 -4.35 0.60 0.95 0.60 3.25 0.05 7.70 -0.35 2.60 -0.30 3.90 0.25 5.45 0.40 1.10 0.60 2.10 0.45 2.25 -0.15 0.15 -1.05 0.05 -2 -0.25 -1 -0.30 -1.75 -0.35 -1.75 -0.10 0 0.25 -0.65 0.45 -1.50 0.45 -0.80 0 -1.50 -0.10 -1.50 -0.25z"/>
  <path d="M16.90 39.10 c-0.95 -1 -2.40 -4.85 -2.40 -6.50 0 -0.65 -0.35 -1.85 -0.80 -2.65 -0.45 -0.95 -0.65 -2.05 -0.45 -2.95 0.20 -0.90 0.05 -1.95 -0.45 -2.85 -0.55 -1 -0.75 -1.15 -0.80 -0.50 0 0.85 -0.75 1.15 -1.15 0.50 -0.15 -0.25 -0.40 -1.90 -0.60 -3.75 -0.25 -2.40 -0.20 -3.40 0.20 -3.40 0.30 0 0.55 0.40 0.55 0.85 0 0.65 0.15 0.70 0.60 0.25 0.50 -0.50 0.50 -0.85 0 -1.60 -0.30 -0.55 -0.60 -1.35 -0.60 -1.75 0 -0.40 -0.20 -0.75 -0.50 -0.75 -0.25 0 -0.50 -0.20 -0.50 -0.50 0 -0.25 0.35 -0.50 0.75 -0.50 0.40 0 0.85 -0.55 1.05 -1.25 0.15 -0.70 0.50 -1.25 0.75 -1.25 0.25 0 0.45 -0.80 0.45 -1.80 0 -1.50 0.15 -1.75 0.95 -1.45 0.75 0.20 1.25 -0.10 1.90 -1.10 0.50 -0.75 1.10 -1.55 1.40 -1.75 0.30 -0.25 0.30 -0.40 0 -0.40 -1.05 -0.05 2.05 -1.45 3.25 -1.50 4.10 -0.05 9 3.45 9 6.40 0 1.25 -0.20 1.60 -1 1.60 -0.50 0 -1.20 -0.45 -1.50 -0.95 -0.75 -1.45 -3.35 -2.55 -5.05 -2.20 -1.50 0.30 -2.30 1 -3.20 2.85 -0.30 0.55 -1 1.25 -1.65 1.55 -1.55 0.70 -1.35 1.25 0.50 1.25 1.45 0 1.50 0.05 0.75 0.90 -0.75 0.80 -0.65 0.85 1.70 0.70 l2.45 -0.20 0 2.05 c0 2 -0.05 2.05 -1.75 2.05 -1.40 0 -1.75 -0.20 -1.75 -1 0 -0.80 -0.35 -1 -1.75 -1 -1.60 0 -1.75 0.10 -1.75 1.50 0 0.85 -0.25 1.50 -0.55 1.50 -0.25 0 -0.35 0.25 -0.20 0.50 0.15 0.30 0.75 0.50 1.25 0.50 1.40 0 2.50 1.95 2.50 4.35 0 2.10 0.05 2.15 1.65 2.15 1.95 0 3.85 1.55 3.85 3.10 0 0.95 0.20 1 3.05 0.70 l3.10 -0.35 -0.35 1.60 c-0.15 0.85 -0.30 1.75 -0.30 2 0 0.35 -2.80 1.95 -3.50 1.95 -0.25 0 -1.10 -1.10 -2 -2.45 -1 -1.65 -1.90 -2.45 -2.50 -2.40 -0.75 0.05 -0.55 0.45 1.15 2.35 2.70 2.95 3.70 3.65 4.90 3.35 0.50 -0.15 0.95 -0.05 0.95 0.20 0 0.25 -1 0.45 -2.20 0.45 -2.30 0 -3 -0.65 -4.10 -3.60 -0.20 -0.50 -0.85 -0.90 -1.50 -0.90 -0.80 0 -1.40 -0.50 -1.95 -1.50 -0.45 -0.80 -0.85 -1.50 -0.95 -1.50 -0.35 0 2.20 6.70 2.70 7.20 0.30 0.30 0.50 1 0.50 1.65 0 0.95 -0.25 1.15 -1.60 1.10 -0.90 0 -2.05 -0.40 -2.50 -0.85z m-0.35 -5.45 c-0.45 -0.80 -0.50 -0.80 -0.55 0.20 0 0.60 0.15 1.50 0.35 2 0.35 0.80 0.40 0.80 0.55 -0.20 0.10 -0.60 -0.05 -1.50 -0.35 -2z m10.25 -1.05 c-0.20 -0.15 -0.55 -0.05 -0.90 0.30 -0.40 0.40 -0.40 0.75 0.15 1.40 0.65 0.80 0.70 0.80 0.85 -0.25 0.10 -0.65 0.05 -1.25 -0.10 -1.45z m-11.05 -2.45 c-0.45 -1.85 -0.90 -1 -0.45 0.95 0.20 0.90 0.45 1.35 0.55 1 0.15 -0.35 0.10 -1.20 -0.10 -1.95z m-0.80 -5.75 c-0.60 -2.20 -0.55 -2.40 0.30 -0.90 1.10 1.90 0.90 0.75 -0.25 -1.50 -0.55 -1.10 -1 -2.40 -1 -2.95 0 -0.95 -0.85 -1.90 -1.30 -1.40 -0.60 0.55 1.75 8.35 2.55 8.35 0.10 0 -0.05 -0.75 -0.30 -1.60z m-1.65 -11 c0.30 -1.20 0.75 -2.60 0.95 -3.15 0.40 -0.90 0.35 -0.90 -0.35 -0.35 -0.45 0.35 -1 1.40 -1.15 2.25 -0.20 0.90 -0.45 2 -0.55 2.50 -0.15 0.45 -0.10 0.85 0.15 0.85 0.25 0 0.65 -0.95 0.95 -2.10z"/>
  <path d="M29 37 c0 -0.25 0.40 -0.50 0.95 -0.50 0.50 0 1.20 -0.35 1.55 -0.75 0.45 -0.50 0.45 -0.75 0.05 -0.75 -0.30 0 -0.55 0.30 -0.55 0.65 0 0.40 -0.20 0.35 -0.50 -0.15 -0.65 -1 -0.65 -2.15 0 -1.75 0.30 0.20 0.50 -0.40 0.50 -1.45 0 -1.45 0.20 -1.80 1 -1.80 0.55 0 1 0.20 1 0.40 0 0.25 0.55 0.75 1.25 1.10 1 0.55 1.25 1.05 1.25 2.60 0 1.80 -0.10 1.90 -1.50 1.90 -0.80 0 -1.50 0.25 -1.50 0.50 0 0.30 -0.80 0.50 -1.75 0.50 -0.95 0 -1.75 -0.20 -1.75 -0.50z"/>
  <path d="M28.50 25.25 c0 -2.45 0.10 -2.75 1.05 -2.75 0.55 0 0.85 0.20 0.70 0.50 -0.15 0.25 0.15 1.35 0.75 2.45 1.20 2.35 1.20 2.55 0.35 2.55 -0.40 0 -0.95 -0.50 -1.25 -1.10 l-0.55 -1.15 0 1.15 c-0.05 0.60 -0.25 1.10 -0.55 1.10 -0.25 0 -0.50 -1.25 -0.50 -2.75z"/>
  <path d="M4.80 21.55 c0.10 -2.70 -0.05 -3.55 -0.60 -3.75 -0.55 -0.20 -0.60 -0.50 -0.20 -1.25 0.25 -0.55 0.45 -1.40 0.40 -1.90 -0.10 -1.60 0.10 -2.65 0.55 -2.65 0.30 0 0.55 0.75 0.65 1.65 0.10 1.20 0.35 1.55 1.05 1.45 0.75 -0.10 0.85 0.25 0.80 3 -0.05 3.10 -0.05 3.10 -0.75 1.65 l-0.70 -1.50 0.10 2.25 c0.05 1.25 -0.10 2.75 -0.30 3.40 -0.70 2.15 -1.15 1.10 -1 -2.35z"/>
  <path d="M26.50 15.75 c0 -1.65 0.10 -1.75 1.70 -1.75 1.55 0 1.70 0.15 1.90 1.75 0.20 1.75 0.20 1.75 -1.70 1.75 -1.85 0 -1.90 -0.05 -1.90 -1.75z"/>
  <path d="M5 10.05 c0 -0.55 0.55 -1.65 1.25 -2.40 l1.20 -1.40 0.05 1.90 c0 1.30 -0.20 1.85 -0.75 1.85 -0.40 0 -0.75 0.25 -0.75 0.50 0 0.30 -0.20 0.50 -0.50 0.50 -0.25 0 -0.50 -0.45 -0.50 -0.95z"/>
  <path d="M9.50 5 c0 -0.65 1.75 -1.55 4.75 -2.30 2.90 -0.80 3.75 -0.85 3.75 -0.30 0 0.60 -3.40 2.25 -4.10 1.95 -0.40 -0.15 -1.25 0.05 -1.95 0.45 -1.45 0.80 -2.45 0.90 -2.45 0.20z"/>
 </g>
 <g fill="#1d0e20">
  <path d="M10.10 39.40 c-0.70 -0.70 -0.80 -4.90 -0.15 -4.90 0.25 0 0.55 0.35 0.75 0.75 0.55 1.50 1.35 0.80 1.05 -0.95 -0.20 -1.05 -0.05 -2.20 0.40 -3.10 0.90 -1.85 1.40 -4.90 1 -6.75 -0.30 -1.50 -1.15 -2 -1.15 -0.70 0 0.80 -1.80 1 -2.80 0.35 -0.85 -0.55 -2.30 -3.60 -1.70 -3.60 0.25 0 0.50 0.35 0.50 0.75 0 0.45 0.45 0.75 1.25 0.75 1.10 0 1.20 -0.15 0.95 -1.60 -0.65 -3.95 -0.60 -3.90 -2.45 -3.90 -1.90 0 -2.30 -0.70 -0.80 -1.50 0.75 -0.40 1.25 -0.20 2.40 0.90 0.80 0.75 1.65 1.80 1.90 2.35 0.40 0.95 0.45 0.95 0.65 -0.15 0.10 -0.65 -0.10 -1.45 -0.40 -1.85 -0.30 -0.40 -0.45 -0.95 -0.25 -1.25 0.15 -0.25 -0.05 -0.65 -0.45 -0.80 -1.30 -0.50 -0.95 -2.80 0.95 -6.50 0.95 -1.85 1.75 -3.50 1.75 -3.55 0 -0.40 -2.85 1.35 -3.60 2.20 -0.50 0.50 -1.20 2.35 -1.60 4.10 -0.85 3.55 -1.10 3.95 -1.90 3.15 -0.45 -0.45 -0.45 -0.75 0 -1.20 0.70 -0.70 0.80 -2.40 0.15 -2.40 -0.45 0 -1 2.60 -1.50 7.15 -0.05 0.20 -0.40 0.35 -0.80 0.35 -0.60 0 -0.65 -0.25 -0.35 -0.85 0.25 -0.50 0.60 -2.20 0.80 -3.80 0.15 -1.60 0.65 -3.55 1 -4.25 1.75 -3.35 6.25 -5.85 11.45 -6.35 1.15 -0.10 1.10 0.60 -0.10 1 -0.55 0.15 -1.20 0.60 -1.50 0.95 -0.30 0.35 0.60 0.10 1.95 -0.60 3.25 -1.60 6 -1.25 9.20 1.20 1.25 0.95 2.30 2 2.30 2.30 0 0.30 -0.35 0.25 -0.85 -0.15 -0.55 -0.45 -0.50 -0.15 0.30 0.90 l1.10 1.65 -1.50 0 c-1 0 -1.75 -0.35 -2.15 -1 -0.35 -0.55 -1.05 -1 -1.50 -1 -0.55 0 -0.90 -0.40 -0.90 -1 0 -1.05 1.65 -1.45 2.25 -0.50 0.60 0.95 1.30 0.55 0.80 -0.45 -0.65 -1.20 -4.65 -1.80 -6.20 -0.90 -1.10 0.60 -2.85 2.30 -2.85 2.75 0 0.10 0.35 -0.05 0.75 -0.40 0.40 -0.35 0.75 -0.40 0.75 -0.15 0 0.25 -0.55 0.75 -1.20 1.05 -0.70 0.30 -1.50 1.05 -1.85 1.70 -0.55 1.05 -0.55 1.10 0.20 0.45 1.15 -0.95 1.05 -0.20 -0.40 2.65 -1.40 2.75 -1.70 5.80 -0.55 5.80 0.85 0 1.30 1.10 1.30 3.15 l0 1.55 -1.05 -1.05 c-1.35 -1.35 -2.15 -5.70 -1.35 -7.45 0.45 -0.95 0.45 -1.50 0 -2.20 -0.45 -0.75 -0.40 -1.10 0.15 -1.70 0.40 -0.40 0.55 -0.85 0.30 -1 -0.25 -0.15 -0.70 0 -0.95 0.35 -0.75 0.90 -1.65 5.05 -1.15 5.25 0.25 0.05 0.30 0.95 0.20 1.95 -0.20 1.95 1.05 6.80 2.15 8.40 0.70 0.95 0.75 0.95 0.40 -0.45 -0.25 -1.05 -0.20 -1.35 0.25 -1.10 0.30 0.20 0.55 0.70 0.55 1.10 0 0.40 0.25 0.70 0.50 0.70 0.30 0 0.50 -0.35 0.50 -0.75 0 -1.35 0.95 -0.80 1.10 0.65 0.15 1.25 0.35 1.35 2.80 1.50 1.40 0.10 2.60 0.35 2.60 0.65 0 0.25 0.45 0.45 1 0.45 0.65 0 1 0.35 1 0.95 0 1 1.60 1.95 1.90 1.10 0.10 -0.30 0.50 -0.55 0.85 -0.55 0.55 0 0.65 -0.55 0.40 -2.50 -0.20 -1.95 -0.15 -2.50 0.40 -2.50 0.55 0 0.70 0.95 0.80 3.75 0.05 2.20 -0.10 3.65 -0.40 3.50 -0.25 -0.15 -0.30 0.05 -0.15 0.45 0.50 1.25 -0.15 2.25 -1.20 1.95 -0.70 -0.15 -0.90 -0.55 -0.75 -1.20 0.25 -0.80 0.05 -1 -0.90 -0.90 -2.60 0.25 -3.35 -0.05 -3.95 -1.60 -0.40 -0.90 -0.90 -1.40 -1.30 -1.25 -0.40 0.15 -0.65 0 -0.55 -0.30 0.05 -0.30 -0.20 -0.65 -0.50 -0.75 -1.30 -0.45 0.65 2.85 3.30 5.65 l2.65 2.75 -1.95 -0.15 c-1.45 -0.10 -1.95 -0.40 -2.05 -1.15 -0.35 -2.25 -1.25 -3.75 -2.25 -3.75 -0.55 0 -1.30 -0.40 -1.65 -0.85 -0.60 -0.80 -0.65 -0.75 -0.70 0.75 0 0.90 0.20 2.05 0.45 2.50 0.20 0.45 0.55 1.55 0.75 2.35 l0.30 1.50 -0.75 -1.30 c-0.90 -1.65 -2.30 -5.70 -2.40 -7 -0.05 -0.50 -0.25 -0.95 -0.50 -0.95 -0.25 0 -0.30 0.70 -0.10 1.65 0.20 0.85 0.55 2.45 0.75 3.55 0.20 1.05 0.65 2.10 1 2.30 0.50 0.30 2 2.80 2 3.30 0 0.10 -0.30 0.20 -0.65 0.20 -0.55 0 -1.65 -1.15 -3.60 -3.75 -0.60 -0.80 -0.70 -0.85 -0.75 -0.20 0 0.45 0.45 1.40 1 2.10 0.55 0.70 1 1.40 1 1.55 0 0.60 -3.40 0.30 -3.65 -0.30 -0.20 -0.50 -0.30 -0.50 -0.30 0 -0.05 0.75 -1.15 0.80 -1.95 0z"/>
  <path d="M19.65 39.25 c0 -0.40 0.30 -0.75 0.70 -0.75 0.35 0 0.65 0.35 0.65 0.75 0 0.40 -0.30 0.75 -0.65 0.75 -0.40 0 -0.70 -0.35 -0.70 -0.75z"/>
  <path d="M31.25 36 c0.90 -0.95 0.85 -1 -0.15 -1 -0.65 0 -1.10 -0.30 -1.10 -0.80 0 -0.40 0.20 -0.65 0.45 -0.45 0.95 0.55 1.05 -0.70 0.35 -3.90 -0.75 -3.80 -0.30 -5.30 0.90 -2.95 0.45 0.85 0.80 1.90 0.80 2.35 0 0.40 0.45 1.20 1 1.75 1.05 1.05 1.35 3 0.50 3 -0.25 0 -0.50 -0.20 -0.50 -0.50 0 -0.25 -0.20 -0.50 -0.50 -0.50 -0.80 0 -0.60 2.50 0.25 2.80 1.35 0.55 0.75 1.20 -1.10 1.20 -1.75 0 -1.80 0 -0.90 -1z"/>
  <path d="M24.95 34.50 c-1.05 -0.85 -1.05 -0.95 -0.20 -0.65 0.55 0.15 1.45 0.60 2 1 0.80 0.50 0.80 0.65 0.15 0.65 -0.45 0 -1.30 -0.45 -1.95 -1z"/>
  <path d="M6.35 28.65 c0.15 -1.60 0.20 -3.30 0.20 -3.80 0 -0.75 0.15 -0.80 0.75 -0.35 1.20 1.05 0.80 7 -0.55 7 -0.45 0 -0.55 -0.80 -0.40 -2.85z"/>
  <path d="M5.15 22.15 c-0.15 -0.50 -0.40 -1.05 -0.50 -1.25 -0.10 -0.25 0.10 -0.40 0.50 -0.40 0.85 0 1.50 1.85 0.80 2.30 -0.25 0.15 -0.60 -0.15 -0.80 -0.65z"/>
  <path d="M16 14.25 c0 -1.65 0.10 -1.75 1.75 -1.75 0.95 0 1.75 0.25 1.75 0.50 0 0.30 -0.15 0.50 -0.35 0.50 -0.25 0 -0.95 0.50 -1.65 1.05 l-1.25 1 1.65 -0.80 c1.55 -0.75 1.60 -0.75 1.60 0.25 0 0.80 -0.35 1 -1.75 1 -1.65 0 -1.75 -0.10 -1.75 -1.75z"/>
  <path d="M25 13.25 c0 -1.65 0.10 -1.75 1.75 -1.75 1.65 0 1.75 0.10 1.75 1.75 0 1.65 -0.10 1.75 -1.75 1.75 -1.65 0 -1.75 -0.10 -1.75 -1.75z"/>
  <path d="M19.50 6.60 c0 -0.70 0.40 -0.95 1.75 -1 1.45 -0.05 1.75 0.10 1.75 0.90 0 0.80 -0.35 1 -1.75 1 -1.35 0 -1.75 -0.20 -1.75 -0.90z"/>
 </g>
 <g fill="#341a09">
  <path d="M17.50 39.30 c0 -0.40 -0.25 -0.80 -0.60 -0.90 -0.40 -0.15 -0.40 -0.45 -0.05 -1.10 0.45 -0.85 0.60 -0.75 1.35 0.70 1 2 1 2 0.05 2 -0.40 0 -0.75 -0.30 -0.75 -0.70z"/>
  <path d="M19.15 38.35 c-1.95 -2.85 -1.95 -3.35 -0.20 -3.35 0.85 0 2 -0.45 2.50 -0.95 0.90 -0.90 1 -0.95 1.75 -0.10 0.45 0.50 0.65 1 0.50 1.15 -0.15 0.20 0.15 0.45 0.65 0.60 0.75 0.25 0.90 0.70 0.75 2.30 -0.10 1.10 -0.30 2 -0.45 2 -0.15 0 -0.65 -0.50 -1.20 -1.10 l-0.95 -1.15 -0.30 1.15 c-0.45 1.60 -1.75 1.35 -3.05 -0.55z"/>
  <path d="M32 38.75 c0 -0.90 -0.25 -1.25 -1 -1.25 -0.55 0 -1 0.25 -1 0.50 0 0.30 -0.80 0.50 -1.75 0.50 -2.45 0 -2.35 -1.35 0.15 -1.75 1 -0.15 2.25 -0.55 2.75 -0.80 0.50 -0.25 1.30 -0.35 1.80 -0.20 0.65 0.20 1 -0.05 1.20 -0.75 0.15 -0.55 0.05 -1 -0.15 -1 -0.25 0 -0.60 -0.45 -0.75 -1 -0.40 -1.25 -1.25 -1.30 -1.30 -0.10 -0.05 1.70 -0.90 -1.25 -1.25 -4.45 -0.25 -2.35 -0.20 -3 0.25 -2.75 0.40 0.25 0.50 0.95 0.30 1.85 -0.30 1.20 -0.15 1.45 0.65 1.45 0.90 0 2.10 1.80 2.10 3.20 0 0.40 0.50 0.70 1.15 0.70 1.75 0 4.85 1.55 4.85 2.35 0 0.45 -0.50 0.75 -1.25 0.75 -0.70 0 -1.25 -0.20 -1.25 -0.50 0 -0.25 -0.35 -0.50 -0.75 -0.50 -0.40 0 -0.75 0.35 -0.75 0.75 0 0.40 -0.40 0.75 -0.85 0.80 -0.55 0 -0.65 0.15 -0.25 0.30 0.30 0.10 0.60 0.90 0.60 1.70 0 1.35 -0.15 1.45 -1.75 1.45 -1.55 0 -1.75 -0.15 -1.75 -1.25z"/>
  <path d="M18.50 31.25 c0 -0.90 -0.35 -1.30 -1.25 -1.55 -1.25 -0.30 -3.25 -3.25 -4.50 -6.60 -0.45 -1.30 -0.70 -1.55 -0.70 -0.80 -0.05 1.35 -1.30 2.40 -2.30 2 -1.70 -0.65 -4.60 -7.25 -3.35 -7.70 0.35 -0.10 0.60 -0.50 0.60 -0.90 0 -2 3.40 0.35 4.40 3.10 l0.50 1.45 0.10 -1.50 c0.05 -1.05 0.35 -0.40 1 2.15 0.55 2 1.35 4.15 1.80 4.75 l0.80 1.10 -0.30 -1.10 c-0.90 -3.40 -0.90 -3.50 -0.10 -2.15 0.45 0.70 0.75 1.65 0.80 2.15 0 0.50 0.25 0.75 0.50 0.60 0.85 -0.55 0.55 -1.95 -1 -4.20 -2 -2.90 -1.95 -4.05 0.05 -4.05 1.45 0 1.50 0.10 1.40 1.90 -0.10 2.15 0.45 4.60 1.10 4.60 0.25 0 0.45 0.45 0.45 1 0 0.55 0.25 1 0.50 1 0.30 0 0.50 -0.55 0.50 -1.25 0 -1.10 0.20 -1.25 2 -1.25 2.10 0 2.90 1.20 1.15 1.65 -0.85 0.20 -0.85 0.25 0 0.30 1.40 0.10 1.05 1.55 -0.40 1.55 -0.75 0 -1.25 0.30 -1.25 0.75 0 0.45 -0.30 0.60 -0.75 0.45 -1 -0.40 -0.95 0.25 0.25 2.20 l1 1.60 -1.50 0 c-1.25 0 -1.50 -0.20 -1.50 -1.25z"/>
  <path d="M27.50 28.75 c0 -0.95 -0.20 -1.75 -0.50 -1.75 -0.25 0 -0.50 -0.80 -0.50 -1.75 0 -1.40 0.20 -1.75 1 -1.75 0.75 0 1 -0.35 1 -1.25 0 -1 0.25 -1.25 1.30 -1.25 1.05 0 1.25 0.15 0.95 0.90 -0.75 1.70 -1.35 5.85 -1.05 7.20 0.25 1.25 0.15 1.40 -0.95 1.40 -1.10 0 -1.25 -0.20 -1.25 -1.75z"/>
  <path d="M23.50 21.25 c0 -1.70 0.05 -1.75 2 -1.75 1.95 0 2 0.05 2 1.75 0 1.70 -0.05 1.75 -2 1.75 -1.95 0 -2 -0.05 -2 -1.75z"/>
  <path d="M5.15 21.25 c-0.25 -0.85 -0.35 -1.95 -0.15 -2.50 0.30 -0.85 0.45 -0.70 0.75 0.85 0.45 2.40 0.05 3.55 -0.60 1.65z"/>
  <path d="M14.50 15.75 c0 -1.65 0.10 -1.75 1.55 -1.75 1.40 0 1.50 0.10 0.90 0.85 -0.65 0.75 -0.60 0.75 0.50 0.15 0.70 -0.35 1.80 -0.85 2.50 -1.05 1.05 -0.35 0.95 -0.40 -0.55 -0.25 -1.40 0.20 -1.90 0.05 -1.90 -0.50 0 -0.55 0.85 -0.70 3.95 -0.70 2.85 0 4.20 -0.20 4.75 -0.75 0.40 -0.40 0.95 -0.75 1.25 -0.75 0.30 0 0.55 -0.45 0.55 -1 0 -1.55 1.40 -1.15 1.75 0.50 0.20 0.80 0.20 1.65 0.10 1.85 -0.15 0.25 -0.10 1.45 0.15 2.80 0.35 2.25 0.30 2.35 -0.85 2.35 -0.65 0 -1.30 -0.30 -1.40 -0.60 -0.40 -1 -9.75 -1.05 -9.75 -0.10 0 0.45 -0.55 0.70 -1.75 0.70 -1.65 0 -1.75 -0.10 -1.75 -1.75z"/>
  <path d="M20 6.65 c0 -0.65 0.45 -0.95 1.75 -1 1.45 -0.15 1.75 0 1.75 0.85 0 0.80 -0.35 1 -1.75 1 -1.35 0 -1.75 -0.20 -1.75 -0.85z"/>
 </g>
 <g fill="#541103">
  <path d="M2.50 39.45 c0 -0.90 2.85 -3.45 3.85 -3.45 0.70 0 1.10 0.55 1.50 2 l0.50 2 -2.90 0 c-1.80 0 -2.95 -0.20 -2.95 -0.55z"/>
  <path d="M20 39.60 c0 -0.60 1.10 -1.60 1.80 -1.60 0.35 0 0.50 0.40 0.35 1 -0.25 0.95 -2.15 1.45 -2.15 0.60z"/>
  <path d="M23.60 38.75 c-1.25 -2.70 -0.40 -3.80 1.85 -2.45 1.30 0.75 1.80 0.80 3.90 0.25 1.30 -0.35 2.90 -0.60 3.50 -0.60 0.65 0 1.20 -0.35 1.40 -0.90 0.55 -1.80 5.75 -1.50 5.75 0.30 0 0.35 -0.20 0.65 -0.50 0.65 -0.25 0 -0.50 0.35 -0.50 0.75 0 0.40 0.25 0.75 0.50 0.75 0.30 0 0.50 0.55 0.50 1.25 l0 1.25 -7.90 0 -7.95 0 -0.55 -1.25z"/>
  <path d="M19.05 37.80 c-0.75 -0.90 -0.15 -2.30 1 -2.30 1.40 0 1.15 -0.75 -0.40 -1.45 -0.80 -0.40 -1.75 -0.85 -2.15 -1.05 -0.40 -0.20 -0.80 -1.15 -0.90 -2.20 -0.15 -1.70 -0.10 -1.80 1.40 -1.80 1.10 0 1.65 0.30 1.95 1.15 0.25 0.60 1.15 1.75 2 2.55 0.85 0.85 1.55 1.70 1.55 1.90 0 0.45 -3.30 3.90 -3.65 3.90 -0.15 0 -0.50 -0.30 -0.80 -0.70z"/>
  <path d="M14.50 26.80 c-0.30 -0.30 -0.50 -0.85 -0.50 -1.25 0.05 -0.65 0.20 -0.60 0.85 0.20 0.75 0.95 0.75 0.95 0.50 -0.50 l-0.30 -1.50 0.60 1.40 c0.75 1.80 1.50 1.75 1.25 -0.15 -0.15 -0.80 -0.05 -1.50 0.20 -1.50 0.20 0 0.40 0.90 0.40 2 0 1.80 -0.10 2 -1.25 1.90 -0.70 -0.05 -1.50 -0.35 -1.75 -0.60z"/>
  <path d="M28.10 25.25 c0 -1.40 0.20 -1.75 0.95 -1.75 1 0 1.15 0.50 0.65 2.40 -0.50 1.75 -1.60 1.35 -1.60 -0.65z"/>
  <path d="M8.50 21.50 c0 -0.55 -0.20 -1 -0.50 -1 -0.25 0 -0.50 -0.30 -0.50 -0.70 0 -0.35 -0.35 -0.95 -0.80 -1.30 -0.40 -0.40 -0.70 -1.25 -0.60 -1.95 0.40 -3.40 4.80 -0.40 5.40 3.70 l0.35 2.25 -1.70 0 c-1.30 0 -1.65 -0.20 -1.65 -1z"/>
 </g>
 <g fill="#1b124f">
  <path d="M5.50 39.50 c0 -0.25 -0.55 -0.50 -1.25 -0.50 -1.65 0 -1.60 -0.75 0.25 -2.10 1.60 -1.15 2.05 -2.20 0.75 -1.70 -0.65 0.20 -0.65 0.10 -0.25 -0.70 0.25 -0.50 0.75 -1.10 1 -1.25 0.30 -0.20 0.40 -0.55 0.20 -0.80 -0.40 -0.70 0.25 -3.95 0.80 -3.95 0.30 0 0.50 1.95 0.50 4.45 0 2.45 0.20 5.05 0.50 5.75 0.45 1.20 0.40 1.30 -1 1.30 -0.85 0 -1.50 -0.20 -1.50 -0.50z"/>
  <path d="M34.30 34.75 c0.20 -0.40 0.05 -0.75 -0.20 -0.75 -0.30 0 -0.80 -0.80 -1.20 -1.80 -0.50 -1.40 -0.70 -1.55 -0.95 -0.85 -0.45 1.20 -1.60 -2.85 -1.35 -4.75 0.15 -1.15 0.40 -0.85 2.05 2.30 1 1.95 2.10 3.60 2.35 3.60 0.30 0 0.50 0.70 0.50 1.50 0 1 -0.25 1.50 -0.75 1.50 -0.45 0 -0.60 -0.30 -0.45 -0.75z"/>
  <path d="M14.75 32.65 c-0.15 -1.05 -0.40 -2.35 -0.50 -2.85 -0.10 -0.50 0 -0.75 0.20 -0.50 0.50 0.50 1.25 5.20 0.85 5.20 -0.15 0 -0.40 -0.85 -0.55 -1.85z"/>
  <path d="M16.60 32.85 c-0.35 -0.90 -0.60 -2.10 -0.60 -2.55 0 -0.50 -0.70 -2.15 -1.55 -3.60 -0.85 -1.50 -1.30 -2.70 -1.05 -2.70 0.25 0 0.70 0.55 1.05 1.20 0.45 0.85 1.05 1.15 1.85 1.05 1 -0.10 1.20 0.10 1.20 1.30 0 0.75 0.20 1.50 0.40 1.65 0.25 0.15 0.50 1.40 0.55 2.80 0.10 2.95 -0.90 3.45 -1.85 0.85z"/>
  <path d="M27.50 33.25 c0 -0.45 -0.50 -0.75 -1.35 -0.80 -0.80 -0.05 -1.70 -0.10 -2.10 -0.15 -0.40 0 -1.05 -0.75 -1.50 -1.65 -0.45 -0.85 -1.25 -1.70 -1.80 -1.85 -1.30 -0.35 -1.35 -0.20 -0.75 1.40 0.40 1.05 0.35 1.35 -0.10 1.20 -0.35 -0.15 -0.65 -0.90 -0.65 -1.70 0 -1.45 0 -1.45 2.75 -1.35 1.50 0.05 3.60 0.10 4.70 0.10 2.80 0 3.25 0.55 2.60 3.30 -0.50 2.10 -1.80 3.20 -1.80 1.50z"/>
  <path d="M6.50 26.90 c0 -0.65 0.25 -1.50 0.50 -1.90 0.35 -0.55 0.50 -0.25 0.50 1.15 0 1 -0.20 1.85 -0.50 1.85 -0.25 0 -0.50 -0.50 -0.50 -1.10z"/>
  <path d="M29 25.85 c0 -1 0.20 -1.85 0.50 -1.85 0.25 0 0.35 0.70 0.15 1.65 -0.40 2.25 -0.65 2.35 -0.65 0.20z"/>
  <path d="M15.55 22.25 c-1.45 -2.15 -2.25 -5.95 -1.50 -7.35 0.30 -0.55 0.40 -1.55 0.25 -2.20 -0.25 -0.85 0 -1.70 0.70 -2.70 0.55 -0.75 1 -1.90 1 -2.45 0 -0.60 0.35 -1.20 0.75 -1.35 0.40 -0.20 0.65 -0.50 0.50 -0.70 -0.45 -0.70 1.15 -1.60 2.60 -1.40 l1.40 0.15 -1.60 0.95 c-0.90 0.55 -1.75 1.35 -1.90 1.75 -0.20 0.50 0.15 0.35 0.85 -0.30 1.20 -1.15 3.40 -1.10 3.40 0 0 1 -2.65 3.35 -3.80 3.35 -0.85 0 -1.15 0.35 -1.40 2 -0.15 1.10 -0.55 2 -0.80 2 -0.30 0 -0.50 0.80 -0.50 1.75 0 1.85 0.90 4.25 1.60 4.25 0.20 0 0.40 0.90 0.40 2 0 1.10 -0.15 2 -0.35 2 -0.25 0 -0.95 -0.80 -1.60 -1.75z m1.95 -13.85 c0 -0.70 -0.95 0.05 -1.55 1.25 -0.60 1.10 -0.60 1.10 0.50 0.15 0.55 -0.55 1.05 -1.15 1.05 -1.40z"/>
  <path d="M10.60 20.15 c-0.10 -3.25 0.60 -2.75 1.05 0.75 0.15 1.45 0.05 2.10 -0.35 2.10 -0.35 0 -0.60 -1.05 -0.70 -2.85z"/>
  <path d="M12.30 21.90 c-0.15 -0.65 -0.25 -1.95 -0.25 -2.90 0.05 -1.55 0.10 -1.45 0.70 1 0.40 1.50 0.70 2.80 0.75 2.90 0 0.05 -0.20 0.10 -0.45 0.10 -0.25 0 -0.55 -0.50 -0.75 -1.10z"/>
  <path d="M4.85 21.40 c-0.20 -0.60 -0.15 -1.70 0 -2.35 0.30 -1.15 0.35 -1.20 0.70 -0.30 0.55 1.40 0.55 3.75 0 3.75 -0.25 0 -0.55 -0.50 -0.70 -1.10z"/>
  <path d="M6.50 18.65 c-0.35 -1.15 -0.45 -2.45 -0.25 -3 0.30 -0.70 0.50 -0.40 0.85 1.35 0.55 3.10 0.20 4.20 -0.60 1.65z"/>
  <path d="M4.20 16.70 c0.15 -0.45 0.30 -1.15 0.35 -1.60 0 -0.65 0.10 -0.65 0.40 0.15 0.45 1.15 0.20 2.25 -0.55 2.25 -0.30 0 -0.35 -0.35 -0.20 -0.80z"/>
  <path d="M12.55 10.65 c-0.05 -0.60 0.20 -1.25 0.45 -1.40 0.60 -0.35 0.60 0.10 0 1.50 -0.40 0.95 -0.45 0.95 -0.45 -0.10z"/>
  <path d="M26.15 8.15 c-1.15 -0.80 -1.55 -2.15 -0.65 -2.15 0.25 0 1.20 0.65 2.10 1.50 1.40 1.25 1.50 1.45 0.65 1.45 -0.55 0 -1.50 -0.35 -2.10 -0.80z"/>
  <path d="M26.80 5.75 c-1.05 -0.95 -1.70 -1.75 -1.45 -1.75 0.70 0 3.95 2.85 3.60 3.20 -0.15 0.20 -1.15 -0.50 -2.15 -1.45z"/>
 </g>
 <g fill="#302137">
  <path d="M6 39.35 c0 -0.35 0.45 -0.65 1 -0.65 0.55 0 1 0.30 1 0.65 0 0.35 -0.45 0.65 -1 0.65 -0.55 0 -1 -0.30 -1 -0.65z"/>
  <path d="M10.60 39 c-0.40 -0.65 -0.40 -1 -0.10 -1 0.30 0 0.65 0.35 0.85 0.75 0.45 1.20 -0.05 1.35 -0.75 0.25z"/>
  <path d="M14.40 38.90 c-0.85 -1.05 -1.15 -1.90 -0.70 -1.90 0.15 0 0.70 0.70 1.30 1.50 1.20 1.70 0.70 2.05 -0.60 0.40z"/>
  <path d="M17.50 39.55 c0 -0.30 -0.55 -1.05 -1.20 -1.75 -0.75 -0.85 -1.25 -2.20 -1.50 -3.90 -0.15 -1.45 -0.45 -3.20 -0.65 -3.85 -0.20 -0.85 -0.15 -1.10 0.25 -0.85 0.35 0.20 0.60 0.85 0.60 1.40 0 1.85 1.65 7 2 6.40 0.25 -0.40 0.65 0 1.20 1 1 2 1 2 0.05 2 -0.40 0 -0.75 -0.20 -0.75 -0.45z"/>
  <path d="M18.05 36.30 c-1.35 -2.20 -1.40 -4.30 -0.10 -4.30 0.80 0 1.05 0.50 1.35 2.40 0.15 1.30 0.55 2.65 0.80 3 0.40 0.40 0.30 0.60 -0.25 0.60 -0.40 0 -1.25 -0.75 -1.80 -1.70z"/>
  <path d="M34.25 34.95 c0.20 -0.25 0 -0.90 -0.40 -1.35 -0.45 -0.50 -1.05 -1.45 -1.30 -2.10 -0.50 -1.10 -0.55 -0.95 -0.40 1.10 0.15 3.20 -0.40 2.35 -1.10 -1.55 -0.75 -4.40 -0.10 -5.30 1.45 -2 0.70 1.40 1.75 2.90 2.35 3.30 1.50 1 1.55 3.15 0.10 3.15 -0.60 0 -0.85 -0.20 -0.70 -0.55z"/>
  <path d="M27.35 33.30 c0.20 -1.05 0.10 -1.15 -1 -0.95 -0.70 0.15 -1.40 0 -1.55 -0.30 -0.20 -0.25 -0.65 -0.40 -1 -0.25 -0.40 0.15 -0.85 -0.30 -1.15 -1.15 -0.35 -0.90 -1.10 -1.60 -2.10 -2 -1.40 -0.50 -1.50 -0.50 -1.05 0.35 0.65 1.25 0.65 1.55 -0.10 1.45 -0.35 -0.05 -1.05 0.05 -1.55 0.30 -1.05 0.45 -1.60 0 -2.10 -1.75 -0.35 -1.15 -0.35 -1.20 0.55 -0.50 0.90 0.75 0.90 0.70 0.05 -0.60 -1.05 -1.65 -1.05 -1.95 -0.10 -1.60 0.50 0.20 0.75 0 0.75 -0.70 0 -1.05 -0.95 -3.65 -1.55 -4.10 -0.35 -0.30 -1.45 -2.30 -1.45 -2.70 0 -0.15 0.65 -0.30 1.45 -0.30 1.20 0 1.55 0.30 2.25 2.15 0.90 2.40 1.05 4.85 0.30 4.85 -0.25 0 -0.50 0.50 -0.45 1.15 0 0.60 0.15 0.80 0.30 0.50 0.25 -0.70 2.50 -0.85 3.85 -0.35 0.45 0.15 0.80 0.85 0.80 1.50 0 1 0.25 1.20 1.50 1.20 0.85 0 2.05 0.45 2.65 1.05 l1.10 1 0.15 -1.75 c0.20 -2 0.45 -2.20 1.40 -0.90 0.80 1 0.90 2.60 0.20 2.60 -0.25 0 -0.50 0.70 -0.50 1.50 0 1.15 -0.25 1.50 -0.95 1.50 -0.70 0 -0.85 -0.30 -0.70 -1.20z"/>
  <path d="M13.85 25.65 c-1.05 -2 -1.50 -3.65 -1 -3.65 0.45 0 2.25 4.60 1.90 4.90 -0.10 0.10 -0.50 -0.45 -0.90 -1.25z"/>
  <path d="M10.35 18.15 c-0.25 -1.30 -0.20 -1.30 0.45 -0.40 0.80 1.10 0.90 1.75 0.25 1.75 -0.25 0 -0.55 -0.60 -0.70 -1.35z"/>
  <path d="M20 18.55 c0 -0.30 -0.35 -0.55 -0.75 -0.55 -0.50 0 -0.75 -0.55 -0.75 -1.75 0 -1.65 0.10 -1.75 1.65 -1.75 3.25 0 3.90 0.45 3.75 2.45 -0.15 1.70 -0.25 1.80 -2 1.95 -1.10 0.10 -1.90 -0.05 -1.90 -0.35z m2 -2.05 c0 -0.25 -0.35 -0.50 -0.75 -0.50 -0.40 0 -0.75 0.25 -0.75 0.50 0 0.30 0.35 0.50 0.75 0.50 0.40 0 0.75 -0.20 0.75 -0.50z"/>
  <path d="M27.15 17.15 c-0.35 -0.10 -0.65 -0.90 -0.65 -1.70 0 -1.10 0.30 -1.50 1.20 -1.75 1.30 -0.30 2.30 0.05 2.30 0.85 0 0.25 -0.30 0.45 -0.70 0.45 -0.40 0 -0.90 0.25 -1.10 0.60 -0.25 0.40 -0.10 0.45 0.45 0.25 0.55 -0.20 1 0.05 1.35 0.65 0.45 0.90 0.40 1 -0.85 0.95 -0.75 0 -1.70 -0.15 -2 -0.30z"/>
  <path d="M4.60 13.90 c0.20 -1.75 0.50 -3.65 0.65 -4.25 0.70 -3 5.75 -6.45 10.15 -6.90 2.60 -0.30 1.85 0.25 -1.65 1.20 -3 0.80 -6.40 3.25 -7.40 5.30 -0.50 1 -1 3.15 -1.20 4.80 -0.15 1.60 -0.45 2.95 -0.65 2.95 -0.20 0 -0.15 -1.40 0.10 -3.10z"/>
  <path d="M14 15.95 c0 -2.45 1.30 -5.05 3.80 -7.50 1.55 -1.50 2.70 -2.35 2.70 -1.90 0 0.40 -0.45 1.05 -1 1.45 -0.60 0.40 -1 1.30 -1 2.10 0 0.75 -0.40 1.65 -0.95 2 -0.55 0.40 -1.10 1.50 -1.30 2.55 -0.25 1.35 -0.60 1.85 -1.30 1.85 -0.55 0 -0.95 -0.25 -0.95 -0.55z"/>
  <path d="M11.55 14.50 c-0.05 -2.70 0.85 -5.45 2.10 -6.05 1.65 -0.90 4 -2.95 3.35 -2.95 -0.30 0 -1 0.25 -1.60 0.55 -1.80 0.95 -1.50 0.05 0.45 -1.25 1 -0.70 2.55 -1.30 3.40 -1.30 1.15 0 1.35 -0.15 0.75 -0.50 -0.65 -0.40 -0.60 -0.50 0.15 -0.50 1.60 0 5.30 1.10 5.85 1.75 0.40 0.50 0 0.50 -1.95 0.15 -2.20 -0.40 -2.70 -0.30 -4.30 0.70 -0.95 0.65 -1.85 1.50 -2 1.90 -0.15 0.40 -0.85 1.45 -1.55 2.25 -1.10 1.30 -1.25 1.35 -0.95 0.40 0.25 -0.85 0.10 -1.15 -0.45 -1.15 -1 0 -1.65 1.25 -2.50 4.85 -0.60 2.50 -0.70 2.65 -0.75 1.15z"/>
  <path d="M20.40 13.65 c-1.65 -0.40 -1 -1.65 0.85 -1.65 1.40 0 1.75 0.20 1.75 1 0 1 -0.70 1.15 -2.60 0.65z"/>
  <path d="M27.50 9.15 c0 -1.75 0 -1.80 1 -0.90 0.55 0.50 1 1.30 1 1.85 0 0.55 -0.35 0.90 -1 0.90 -0.80 0 -1 -0.35 -1 -1.85z"/>
  <path d="M11 9.70 c0 -0.35 0.45 -1.10 1 -1.75 1.25 -1.55 1.30 -0.60 0 1.05 -0.55 0.70 -1 1 -1 0.70z"/>
  <path d="M22.35 6.50 c-0.20 -0.80 0 -1 1 -1 1.45 0 3.15 0.85 3.15 1.50 0 0.30 -0.85 0.50 -1.95 0.50 -1.50 0 -2 -0.20 -2.20 -1z"/>
 </g>
 <g fill="#73240c">
  <path d="M1.50 39.50 c0 -0.25 0.20 -0.50 0.45 -0.50 0.30 0 1.10 -0.55 1.85 -1.25 1.40 -1.30 3.70 -1.70 3.70 -0.60 0 0.30 0.15 1.05 0.30 1.60 0.20 0.80 0 1.05 -0.85 1.10 -0.65 0.05 -1.50 -0.15 -1.90 -0.50 -0.55 -0.45 -0.75 -0.45 -0.90 0.05 -0.25 0.70 -2.65 0.85 -2.65 0.10z m5.70 -1.15 c-0.15 -0.40 -0.55 -0.70 -0.95 -0.70 -0.55 0 -0.60 0.20 -0.20 0.70 0.30 0.35 0.75 0.65 1 0.65 0.25 0 0.30 -0.30 0.15 -0.65z"/>
  <path d="M20.25 39.50 c0.15 -0.25 0.70 -0.70 1.25 -1 0.75 -0.40 0.85 -0.35 0.65 0.50 -0.15 0.55 -0.70 1 -1.25 1 -0.50 0 -0.80 -0.20 -0.65 -0.50z"/>
  <path d="M24 38.95 c0 -0.90 0.10 -0.95 0.75 -0.45 0.40 0.35 0.75 0.80 0.75 1.05 0 0.25 -0.35 0.45 -0.75 0.45 -0.45 0 -0.75 -0.45 -0.75 -1.05z"/>
  <path d="M28.20 39.20 c0.20 -0.45 -0.10 -0.70 -0.90 -0.70 -0.65 0 -1.45 -0.35 -1.80 -0.75 -0.35 -0.40 -1.10 -0.75 -1.65 -0.75 -0.75 0 -0.90 -0.15 -0.50 -0.55 0.40 -0.40 0.85 -0.40 1.65 0.05 0.65 0.35 1.95 0.50 3.20 0.30 1.80 -0.25 2.25 -0.10 3.70 1.20 0.85 0.80 1.60 1.60 1.60 1.75 0 0.15 -1.25 0.20 -2.80 0.20 -2.10 -0.05 -2.70 -0.25 -2.50 -0.75z"/>
  <path d="M33.80 38.20 c-0.80 -0.95 -1.30 -1.85 -1.15 -2 0.25 -0.30 3.35 2.85 3.35 3.45 0 0.75 -0.80 0.25 -2.20 -1.45z"/>
  <path d="M39 39.55 c0 -0.25 -0.45 -0.55 -1.05 -0.70 -0.65 -0.20 -0.90 -0.50 -0.65 -0.90 0.20 -0.35 0.15 -0.50 -0.20 -0.25 -0.30 0.15 -1.10 -0.25 -1.80 -0.90 -2.45 -2.50 -0.15 -4.30 3.35 -2.65 1.20 0.55 1.35 0.85 1.35 3.25 0 1.40 -0.20 2.60 -0.50 2.60 -0.25 0 -0.50 -0.20 -0.50 -0.45z"/>
  <path d="M18.85 37.65 c-0.70 -0.65 -0.30 -2.10 0.65 -2.40 1.30 -0.40 1.30 -1.75 -0.05 -1.75 -1.50 0 -3.45 -2.50 -3.45 -4.35 0 -0.75 0.10 -0.80 0.50 -0.15 0.30 0.50 0.50 0.55 0.50 0.15 0 -0.35 0.55 -0.65 1.20 -0.65 0.90 0 1.35 0.40 1.75 1.65 0.30 0.85 1.30 2.20 2.20 2.95 l1.60 1.35 -1.85 1.80 c-1.85 1.75 -2.45 2.05 -3.05 1.40z"/>
  <path d="M9.60 24.15 c-0.35 -0.10 -0.85 -0.65 -1.10 -1.20 -0.50 -0.85 -0.35 -0.95 1 -0.95 1.25 0 1.50 0.20 1.50 1.25 0 1.25 -0.20 1.40 -1.40 0.90z"/>
  <path d="M7.35 20.65 c-0.20 -0.15 -0.35 -1.20 -0.35 -2.25 0 -2.20 0.90 -2.40 1.75 -0.50 0.25 0.60 0.65 1.10 0.85 1.10 0.25 0 0.40 0.45 0.40 1 0 0.70 -0.35 1 -1.15 1 -0.65 0 -1.35 -0.15 -1.50 -0.35z"/>
  <path d="M10.50 20.25 c0 -0.45 -0.35 -1.45 -0.75 -2.25 -0.90 -1.75 -0.15 -2 0.95 -0.40 0.90 1.25 1.05 3.40 0.30 3.40 -0.25 0 -0.50 -0.35 -0.50 -0.75z"/>
 </g>
 <g fill="#5d3214">
  <path d="M20 39.80 c0 -0.10 0.55 -0.55 1.20 -0.95 1.15 -0.75 1.20 -0.75 0.95 0.15 -0.20 0.80 -2.15 1.50 -2.15 0.80z"/>
  <path d="M7.05 39.15 c0.25 -1.50 -0.50 -1.85 -1.90 -1 -0.45 0.25 -0.65 0.15 -0.65 -0.40 0 -0.70 2.30 -2.20 2.70 -1.70 0.45 0.55 0.70 3.45 0.30 3.45 -0.30 0 -0.45 -0.15 -0.45 -0.35z"/>
  <path d="M18.85 37.65 c-0.20 -0.15 -0.35 -0.85 -0.35 -1.50 0 -1 0.25 -1.15 2 -1.15 2.25 0 2.60 0.75 0.75 1.60 -0.70 0.30 -1.25 0.75 -1.25 1 0 0.50 -0.70 0.55 -1.15 0.05z"/>
  <path d="M36 35 c0 -0.25 -0.25 -0.50 -0.55 -0.50 -0.75 0 -1.95 -1.30 -1.95 -2.15 0 -0.55 0.45 -0.50 2.25 0.35 1.20 0.60 2.20 1.30 2.25 1.65 0 0.30 0.40 0.70 0.90 0.80 0.45 0.15 0 0.25 -1 0.30 -1.05 0 -1.90 -0.15 -1.90 -0.45z"/>
  <path d="M17.65 33.65 c-0.35 -0.10 -0.65 -0.75 -0.65 -1.35 0 -0.60 -0.20 -1.30 -0.45 -1.55 -0.25 -0.30 -0.60 -1.05 -0.75 -1.75 -0.35 -1.25 -0.35 -1.25 0.50 -0.25 0.80 0.95 0.80 0.75 -0.05 -1.35 -0.20 -0.55 -0.15 -0.90 0.20 -0.90 0.30 0 0.55 -0.35 0.55 -0.75 0 -0.40 0.25 -0.75 0.50 -0.75 0.30 0 0.50 0.25 0.50 0.50 0 0.30 0.70 0.50 1.50 0.50 0.95 0 1.50 0.25 1.50 0.70 0 0.40 0.15 1.10 0.35 1.55 0.25 0.75 0.15 0.80 -0.75 0.30 -1.45 -0.80 -1.70 -0.70 -1.10 0.40 0.80 1.55 0.65 2.15 -0.50 1.45 -0.50 -0.35 -1.15 -0.45 -1.35 -0.20 -0.40 0.40 0.95 1.35 2.60 1.80 0.55 0.15 1.05 0.70 1.15 1.15 0.15 0.65 -0.20 0.85 -1.50 0.80 -0.90 0 -1.95 -0.15 -2.25 -0.30z"/>
  <path d="M27.50 28.40 c0 -0.35 -0.15 -1.15 -0.30 -1.75 -0.20 -0.75 -0.05 -1.10 0.65 -1.30 0.80 -0.20 0.80 -0.25 0.05 -0.30 -0.50 0 -0.90 -0.40 -0.90 -0.80 0 -0.55 -0.60 -0.75 -2.25 -0.75 l-2.25 0 0 -2 0 -2 2.70 0 c5.25 0 6.55 0.70 5.30 2.90 -0.25 0.45 -0.70 2.15 -1 3.75 -0.40 1.90 -0.80 2.85 -1.30 2.85 -0.40 0 -0.70 -0.30 -0.70 -0.60z"/>
  <path d="M9.40 23.80 c-1.20 -0.90 -3.50 -6.05 -3.30 -7.40 0.25 -1.85 2 -1.70 3.75 0.25 2.25 2.55 2.70 7.90 0.65 7.85 -0.15 -0.05 -0.65 -0.35 -1.10 -0.70z m1.30 -3.15 c-0.55 -2.20 -1.60 -4 -2.55 -4.35 -0.75 -0.30 -0.80 -0.25 -0.05 0.55 0.40 0.50 0.65 1.20 0.55 1.50 -0.15 0.35 0.10 0.80 0.55 0.95 0.45 0.15 0.80 0.85 0.80 1.50 0 0.65 0.25 1.20 0.50 1.20 0.30 0 0.40 -0.55 0.20 -1.35z"/>
  <path d="M12.90 23.50 c-0.35 -1.20 -0.15 -1.90 0.40 -1.40 0.15 0.20 0.20 0.85 0.10 1.50 l-0.15 1.15 -0.35 -1.25z"/>
  <path d="M28.30 18.20 c-0.55 -1.40 -0.30 -2.20 0.60 -2.20 0.75 0 2.10 1.80 2.10 2.75 0 0.65 -2.45 0.15 -2.70 -0.55z"/>
  <path d="M14 16.40 c0 -1.50 0.65 -2.90 1.30 -2.90 0.45 0 0.70 0.60 0.70 1.75 0 1.40 -0.20 1.75 -1 1.75 -0.55 0 -1 -0.30 -1 -0.60z"/>
  <path d="M16.50 16 c0 -0.60 1.65 -1.50 2.70 -1.50 0.45 0 0.80 0.45 0.80 1 0 0.80 -0.35 1 -1.75 1 -0.95 0 -1.75 -0.20 -1.75 -0.50z"/>
  <path d="M21.40 16.15 c-0.50 -0.10 -0.90 -0.55 -0.90 -1 0 -0.60 0.35 -0.70 1.80 -0.40 2.25 0.40 1.90 -0.45 -0.40 -1.05 l-1.65 -0.40 1.90 -0.15 c1 -0.15 1.85 -0.40 1.85 -0.70 0 -0.25 1.30 -0.45 2.90 -0.40 l2.85 0.05 -1.70 0.60 c-0.95 0.35 -1.85 0.90 -1.95 1.25 -0.15 0.45 0.30 0.40 1.40 -0.20 1.35 -0.70 1.70 -0.75 2.05 -0.15 0.65 1 0.55 1.40 -0.50 1.40 -0.55 0 -1.05 0.20 -1.15 0.40 -0.20 0.50 -5.25 1.10 -6.50 0.75z"/>
  <path d="M16.50 14.05 c0 -0.90 0.30 -1.05 1.90 -1 1.70 0 1.75 0.05 0.65 0.50 -0.70 0.25 -1.55 0.75 -1.90 1.05 -0.50 0.40 -0.65 0.30 -0.65 -0.55z"/>
  <path d="M24.65 8.15 c-0.35 -0.10 -0.65 -0.65 -0.65 -1.20 0 -1.35 1.65 -1.20 3.35 0.30 l1.40 1.20 -1.75 0 c-0.95 0 -2.05 -0.15 -2.35 -0.30z"/>
  <path d="M26.70 5.45 c-0.95 -1.10 -0.95 -1.10 0.15 -0.50 1.20 0.60 1.95 1.55 1.25 1.55 -0.25 0 -0.85 -0.50 -1.40 -1.05z"/>
 </g>
 <g fill="#312158">
  <path d="M1.50 39.50 c0 -0.25 0.35 -0.50 0.75 -0.50 0.40 0 0.75 -0.25 0.75 -0.60 0 -0.30 0.10 -0.45 0.25 -0.30 0.15 0.15 0.15 0.65 -0.05 1.10 -0.35 0.85 -1.70 1.10 -1.70 0.30z"/>
  <path d="M7.45 39.95 c-0.45 -2.60 -0.70 -2.85 -1.95 -2.05 -0.85 0.50 -1 0.50 -1 -0.15 0 -0.45 0.30 -0.90 0.70 -1.05 0.40 -0.15 0.85 -0.60 1 -1.05 0.25 -0.60 0.05 -0.70 -0.80 -0.50 l-1.15 0.30 1.05 -0.90 c0.85 -0.65 1.10 -1.45 1.15 -3.80 0.15 -7.10 0.80 -6.30 1.05 1.25 0.15 4.25 0.20 7.85 0.15 7.95 -0.10 0.10 -0.15 0.10 -0.20 0z"/>
  <path d="M17.35 38.35 c-0.55 -1.45 -0.45 -2.15 0.20 -1.50 0.30 0.30 0.45 0.95 0.35 1.45 -0.15 0.90 -0.20 0.90 -0.55 0.05z"/>
  <path d="M18.35 36.65 c-0.75 -1.45 -0.80 -1.65 -0.10 -1.65 0.90 0 1.40 1.05 1.15 2.35 -0.15 0.70 -0.40 0.55 -1.05 -0.70z"/>
  <path d="M34.50 34.30 c0 -0.40 -0.35 -0.80 -0.75 -1 -0.40 -0.15 -0.75 -0.55 -0.75 -0.90 -0.05 -0.35 -0.45 -1.55 -1 -2.65 -1.55 -3.20 -1.10 -3.80 0.50 -0.65 0.80 1.55 1.95 3.15 2.50 3.55 0.65 0.45 0.90 1 0.70 1.55 -0.40 1 -1.20 1.05 -1.20 0.10z"/>
  <path d="M27.50 33.20 c0 -1.05 -0.20 -1.20 -1 -0.95 -0.85 0.25 -1 0.10 -1 -1.20 0 -1.45 0.15 -1.55 1.75 -1.55 1.90 0 2.05 0.35 1.45 3.45 -0.40 1.85 -1.20 2.05 -1.20 0.25z"/>
  <path d="M17.30 31.75 c0.20 -0.40 0.50 -0.60 0.75 -0.45 0.70 0.40 0.50 1.20 -0.30 1.20 -0.45 0 -0.60 -0.30 -0.45 -0.75z"/>
  <path d="M22.55 30.45 c-0.50 -1.45 -0.45 -1.50 0.85 -1.35 1.10 0.10 1.35 0.40 1.45 1.65 0.15 1.45 0.10 1.45 -0.45 0.40 -0.30 -0.65 -0.75 -1.15 -1 -1.15 -0.60 0 -0.50 0.70 0.20 1.40 0.40 0.40 0.40 0.60 0.05 0.60 -0.30 0 -0.80 -0.70 -1.10 -1.55z"/>
  <path d="M16.05 29.80 c-0.30 -0.80 -0.50 -1.55 -0.35 -1.65 0.35 -0.40 1.40 1.85 1.15 2.50 -0.15 0.35 -0.50 -0.05 -0.80 -0.85z"/>
  <path d="M17 28.50 c-0.65 -1.55 -0.35 -2.60 0.45 -1.70 0.65 0.70 1.15 3.20 0.60 3.20 -0.25 0 -0.70 -0.70 -1.05 -1.50z"/>
  <path d="M13.55 24.85 c-0.60 -1.20 -1.05 -2.70 -1 -3.40 0 -0.85 0.30 -0.45 0.90 1.30 0.50 1.40 1.05 2.90 1.30 3.40 0.75 1.80 -0.20 0.75 -1.20 -1.30z"/>
  <path d="M11.05 21.50 l0.05 -2.75 0.45 2.25 c0.25 1.40 0.25 2.40 -0.05 2.70 -0.35 0.35 -0.50 -0.45 -0.45 -2.20z"/>
  <path d="M5.30 22.40 c-0.70 -2 -0.75 -2.40 -0.30 -2.65 0.55 -0.35 1.20 1.90 0.85 2.85 -0.15 0.45 -0.35 0.40 -0.55 -0.20z"/>
  <path d="M14.50 20.05 c-0.80 -1.55 -0.60 -2.55 0.50 -2.55 0.80 0 1 0.35 1 1.75 0 1.95 -0.70 2.30 -1.50 0.80z"/>
  <path d="M4.80 12.50 c0.20 -1.50 0.60 -3.30 0.95 -4 1.45 -2.80 5.70 -5.35 9.60 -5.75 l2.40 -0.25 -2.40 0.70 c-6.45 1.90 -8.65 3.80 -9.95 8.70 l-0.90 3.35 0.30 -2.75z"/>
  <path d="M15 12.30 c0 -0.40 1.20 -1.95 2.65 -3.50 2 -2.10 3 -2.80 4.35 -2.95 0.95 -0.10 1.35 -0.10 0.90 0 -0.45 0.10 -0.90 0.70 -1 1.30 -0.10 0.80 -0.55 1.15 -1.50 1.25 -0.80 0.10 -1.40 0.40 -1.40 0.65 0 0.25 -0.30 0.45 -0.70 0.45 -0.40 0 -0.85 0.75 -1 1.75 -0.25 1.30 -0.60 1.75 -1.30 1.75 -0.55 0 -1 -0.30 -1 -0.70z"/>
  <path d="M12.05 12 c0 -0.40 0.20 -1.20 0.45 -1.75 0.25 -0.65 0.45 -0.70 0.45 -0.25 0 0.40 -0.20 1.20 -0.45 1.75 -0.25 0.65 -0.45 0.70 -0.45 0.25z"/>
  <path d="M16.05 7.05 c1.80 -1.60 1.75 -2.50 -0.05 -1.55 -0.75 0.40 -1 0.40 -0.80 0.05 0.65 -1 3.10 -2 4.20 -1.70 1.45 0.35 1.40 0.75 -0.40 1.75 -0.85 0.45 -1.50 1.20 -1.50 1.65 0 0.45 -0.20 0.70 -0.45 0.50 -0.25 -0.15 -0.60 -0.05 -0.80 0.25 -0.15 0.25 -0.65 0.50 -1.10 0.50 -0.50 0 -0.20 -0.50 0.90 -1.45z"/>
  <path d="M25.75 7.25 c-0.80 -0.70 -1.25 -1.25 -1 -1.25 0.60 0 3.75 1.90 3.75 2.25 0 0.60 -1.35 0.10 -2.75 -1z"/>
  <path d="M27.15 5.80 c-0.80 -0.65 -2.45 -1.30 -3.75 -1.50 -1.35 -0.20 -2.40 -0.55 -2.40 -0.85 0 -0.25 -0.35 -0.45 -0.85 -0.45 -0.45 0 -0.65 -0.15 -0.50 -0.35 0.75 -0.70 5.75 1 7.65 2.65 1.05 0.90 1.80 1.65 1.60 1.70 -0.15 0 -0.95 -0.55 -1.75 -1.20z"/>
 </g>
 <g fill="#483858">
  <path d="M2.55 38.75 c1.40 -1.40 1.95 -1.55 1.95 -0.50 0 0.40 -0.35 0.75 -0.75 0.75 -0.40 0 -0.75 0.25 -0.75 0.50 0 0.30 -0.35 0.50 -0.80 0.50 -0.65 0 -0.55 -0.25 0.35 -1.25z"/>
  <path d="M17.55 38.70 c-0.30 -0.75 -0.45 -1.45 -0.35 -1.60 0.15 -0.10 0.50 0.40 0.80 1.15 0.70 1.80 0.35 2.15 -0.45 0.45z"/>
  <path d="M18.35 36.65 c-1.50 -3 -1.55 -5.90 -0.05 -5.30 0.85 0.30 0.95 3.65 0.10 3.65 -0.35 0 -0.30 0.25 0.20 0.65 0.95 0.75 1.55 2.35 0.90 2.35 -0.25 0 -0.80 -0.60 -1.15 -1.35z"/>
  <path d="M34.20 33.85 c-0.30 -0.60 -0.95 -1.85 -1.45 -2.75 -0.45 -0.90 -0.75 -1.80 -0.55 -1.95 0.15 -0.15 0.65 0.55 1.10 1.55 0.50 1 1.30 1.90 1.80 2.10 1 0.30 1.25 2.20 0.30 2.20 -0.35 0 -0.90 -0.50 -1.20 -1.15z"/>
  <path d="M27.70 31.90 c0.15 -0.65 0.30 -1.30 0.30 -1.50 0 -0.45 2 -0.55 2 -0.15 0 0.60 -1.65 2.75 -2.10 2.75 -0.30 0 -0.40 -0.50 -0.20 -1.10z"/>
  <path d="M24 30.45 c0 -0.30 -0.25 -0.45 -0.60 -0.35 -0.55 0.20 -2.40 -1.25 -2.40 -1.85 0 -0.15 0.80 -0.25 1.75 -0.25 1.60 0 1.75 0.10 1.75 1.50 0 0.85 -0.10 1.50 -0.25 1.50 -0.15 0 -0.25 -0.25 -0.25 -0.55z"/>
  <path d="M17.30 29.20 c-0.45 -1.10 -0.40 -1.20 0.45 -1.20 0.40 0 0.75 0.45 0.75 1 0 1.20 -0.75 1.35 -1.20 0.20z"/>
  <path d="M13.50 24.95 c-0.30 -0.55 -0.50 -1.40 -0.40 -1.85 0.10 -0.50 0.40 -0.05 0.75 1.05 0.60 2.05 0.50 2.40 -0.35 0.80z"/>
  <path d="M14.35 19.40 c-0.50 -1.75 -0.40 -3.80 0.15 -4.15 0.30 -0.15 0.50 -0.75 0.50 -1.30 0 -0.75 0.35 -0.95 1.75 -0.95 0.95 0 1.75 0.10 1.75 0.25 0 0.15 -0.60 0.90 -1.35 1.60 -0.80 0.70 -1.05 1.05 -0.65 0.80 1.10 -0.75 5.10 -1.15 6.25 -0.70 0.85 0.35 0.70 0.50 -1 0.80 -1.95 0.40 -1.95 0.40 -0.85 1.15 1.60 1.05 1.35 1.60 -0.65 1.60 -1.40 0 -1.75 -0.20 -1.75 -1 0 -0.70 -0.35 -1 -1.15 -1 -1 0 -1.10 0.20 -0.95 2 0.15 1.25 0 2 -0.35 2 -0.30 0 -0.55 -0.30 -0.55 -0.60 0 -0.50 -0.10 -0.50 -0.45 0 -0.30 0.50 -0.50 0.40 -0.70 -0.50z"/>
  <path d="M26 16.25 c0 -1.70 0.05 -1.75 1.90 -1.70 1 0.05 1.45 0.15 1 0.30 -1.20 0.30 -1.15 0.95 0.10 1.30 0.55 0.15 1 0.60 1 1.05 0 0.60 -0.50 0.80 -2 0.80 -1.95 0 -2 -0.05 -2 -1.75z"/>
  <path d="M20.90 13.65 c-1.65 -0.40 -1 -1.65 0.85 -1.65 1.40 0 1.75 0.20 1.75 1 0 1 -0.70 1.15 -2.60 0.65z"/>
  <path d="M19 7.50 c2.15 -1.85 2.40 -1.85 2.10 0 -0.20 1.35 -0.40 1.50 -2.05 1.50 l-1.80 -0.05 1.75 -1.45z"/>
  <path d="M17.50 5.45 c0 -0.30 -0.35 -0.45 -0.75 -0.25 -1.15 0.40 -0.90 -0.10 0.45 -0.95 0.80 -0.55 1.50 -0.65 2.30 -0.35 l1.15 0.45 -1.20 0.80 c-1.35 1 -1.95 1.05 -1.95 0.30z"/>
  <path d="M22.65 4.15 c-0.85 -0.10 -1.70 -0.55 -1.85 -1 -0.25 -0.60 -0.05 -0.70 1 -0.45 0.75 0.20 2.05 0.65 2.90 1.05 1.60 0.70 1.15 0.80 -2.05 0.40z"/>
 </g>
 <g fill="#824a18">
  <path d="M20.50 39.50 c0 -0.25 0.35 -0.50 0.75 -0.50 0.40 0 0.75 0.25 0.75 0.50 0 0.30 -0.35 0.50 -0.75 0.50 -0.40 0 -0.75 -0.20 -0.75 -0.50z"/>
  <path d="M28 39.50 c0 -0.25 0.25 -0.50 0.55 -0.50 0.25 0 0.35 -0.25 0.20 -0.50 -0.15 -0.30 -0.85 -0.35 -1.55 -0.20 -1.95 0.50 -1.40 -0.55 0.65 -1.20 1.65 -0.50 1.95 -0.45 3.25 0.65 0.80 0.70 1.70 1.25 1.95 1.25 0.25 0 0.45 0.25 0.45 0.50 0 0.70 -2.15 0.60 -2.95 -0.10 -0.55 -0.50 -0.70 -0.50 -0.90 0 -0.30 0.70 -1.65 0.80 -1.65 0.10z"/>
  <path d="M34.15 38.50 c-1.35 -1.65 -1.55 -2.65 -0.25 -1.20 1.65 1.85 2.20 2.70 1.80 2.65 -0.25 0 -0.95 -0.65 -1.55 -1.45z"/>
  <path d="M3 38.55 c0 -0.55 2.25 -2.05 3.05 -2.05 0.35 0 0.10 0.55 -0.55 1.25 -1.15 1.25 -2.50 1.65 -2.50 0.80z"/>
  <path d="M38 38 c0 -0.75 -2.50 -3.15 -2.85 -2.80 -0.20 0.15 0.20 0.90 0.90 1.70 l1.20 1.35 -1.55 -1.40 c-1.10 -1 -1.50 -1.75 -1.30 -2.45 0.15 -0.55 -0.05 -1.20 -0.45 -1.45 -1.15 -0.70 0.35 -0.55 2.30 0.25 0.95 0.40 1.75 1 1.75 1.25 0 0.30 0.45 0.55 1 0.55 0.75 0 1 0.35 1 1.45 0 0.85 -0.30 1.55 -0.80 1.75 -1.05 0.40 -1.20 0.40 -1.20 -0.20z"/>
  <path d="M18.30 36.60 c-0.65 -1.25 -1 -3.30 -0.85 -5 0.05 -0.50 0.25 -0.50 1.20 0 0.60 0.35 1.45 0.60 1.85 0.65 0.90 0 2.20 2.55 1.80 3.55 -0.15 0.40 -0.75 0.70 -1.30 0.70 -0.55 0 -1 0.35 -1 0.75 0 1.20 -0.90 0.85 -1.70 -0.65z"/>
  <path d="M18.65 30.35 c-1.40 -0.70 -2.25 -2.55 -1.85 -4.15 0.35 -1.45 1.70 -1.60 1.70 -0.20 0 0.65 0.35 1 1 1 0.55 0 1 -0.20 1 -0.50 0 -0.30 1.50 -0.50 3.40 -0.55 1.85 0 3.80 -0.20 4.35 -0.45 0.85 -0.35 0.85 -0.45 0.15 -0.45 -0.55 -0.05 -0.75 -0.30 -0.60 -0.75 0.20 -0.55 -0.45 -0.80 -2.75 -1.05 l-3.05 -0.35 0 -1.65 0 -1.70 3.75 0 c2.05 0 3.75 0.20 3.75 0.50 0 0.25 0.35 0.45 0.80 0.45 0.55 0 0.70 0.25 0.45 0.90 -0.70 1.65 -1.75 5.85 -1.75 7 0 1 -0.25 1.10 -2.30 1.10 -1.25 0 -2.75 0.25 -3.30 0.55 -0.55 0.30 -0.90 0.35 -0.75 0.10 0.15 -0.25 -0.65 -0.90 -1.70 -1.50 l-2 -1.10 0.35 1.10 c0.20 0.60 0.45 1.40 0.55 1.75 0.30 0.70 0.30 0.70 -1.20 -0.05z m8.35 -8.85 c0.55 -0.35 0.25 -0.50 -1.10 -0.50 -1.05 0 -1.90 0.25 -1.90 0.50 0 0.65 2 0.65 3 0z"/>
  <path d="M8.30 22.15 c-1.80 -2.80 -2.55 -5.50 -1.80 -6.40 0.90 -1.10 1.65 -0.90 3.15 0.65 1.30 1.35 2.70 6.15 2.05 7.15 -0.60 1.05 -2.25 0.35 -3.40 -1.40z m2.25 -2.40 c-0.55 -2.15 -1.85 -3.75 -2.95 -3.75 -0.65 0 -0.65 0.10 0 0.90 0.45 0.45 0.65 1.10 0.55 1.45 -0.10 0.30 0.25 0.70 0.80 0.90 0.75 0.25 1.05 0.75 1.05 1.90 0 1.10 0.15 1.40 0.55 1 0.35 -0.35 0.40 -1.10 0 -2.40z"/>
  <path d="M16 21.70 c0 -0.40 -0.20 -0.65 -0.45 -0.50 -0.90 0.60 -1.45 -2.45 -1.10 -6.45 0 -0.40 0.40 -0.75 0.80 -0.75 0.50 0 0.75 0.50 0.75 1.70 0 0.95 0.25 1.80 0.55 1.90 0.30 0.10 0.65 1.25 0.80 2.55 0.25 1.95 0.15 2.35 -0.55 2.35 -0.45 0 -0.80 -0.35 -0.80 -0.80z"/>
  <path d="M21.50 18.05 c0 -0.30 0.25 -0.65 0.50 -0.80 0.75 -0.45 0.10 -1.25 -1.05 -1.25 -0.55 0 -0.95 -0.35 -0.95 -0.80 0 -0.65 0.35 -0.75 2.15 -0.45 2.50 0.40 2.05 -0.40 -0.65 -1.15 -1.55 -0.45 -1.60 -0.50 -0.45 -0.55 0.75 -0.05 2.05 0.10 2.90 0.25 1.50 0.30 1.55 0.45 1.55 2.75 l0 2.45 -2 0 c-1.10 0 -2 -0.20 -2 -0.45z"/>
  <path d="M27 14.70 c0 -0.40 1.60 -1.65 2.15 -1.70 0.20 0 0.35 0.45 0.35 1 0 0.75 -0.35 1 -1.25 1 -0.70 0 -1.25 -0.15 -1.25 -0.30z"/>
  <path d="M27 12.30 c0 -0.50 0.45 -0.80 1.25 -0.80 0.70 0 1.25 0.25 1.25 0.50 0 0.30 -0.20 0.50 -0.45 0.50 -0.25 0 -0.80 0.15 -1.25 0.30 -0.55 0.20 -0.80 0.05 -0.80 -0.50z"/>
 </g>
 <g fill="#3b2d80">
  <path d="M7.15 38.45 l-0.60 -1.55 -1.55 1.10 c-0.85 0.60 -1.70 0.95 -1.90 0.75 -0.40 -0.40 1.85 -2.20 2.80 -2.25 0.30 0 0.60 -0.45 0.60 -1 0 -0.70 -0.25 -0.90 -0.85 -0.70 -0.85 0.25 -0.85 0.25 -0.05 -0.40 0.60 -0.55 0.90 -1.70 1.05 -4.20 0.10 -2.80 0.15 -2.45 0.25 1.70 0.05 2.85 0.35 5.60 0.65 6.15 0.30 0.55 0.45 1.25 0.35 1.50 -0.10 0.25 -0.45 -0.20 -0.75 -1.10z"/>
  <path d="M34.40 33.55 c-0.95 -1.10 -3.40 -6.15 -3.40 -6.85 0.05 -0.25 0.75 0.90 1.60 2.55 0.85 1.65 1.90 3.25 2.30 3.55 0.40 0.30 0.65 0.80 0.55 1.15 -0.15 0.35 -0.50 0.20 -1.05 -0.40z"/>
  <path d="M27.85 31.40 c0.30 -1.70 -0.20 -1.85 -0.80 -0.25 -0.60 1.50 -2 1.50 -2.70 0 -0.30 -0.70 -0.80 -1.10 -1.20 -0.95 -0.40 0.15 -0.55 0.05 -0.40 -0.20 0.20 -0.30 -0.20 -0.70 -0.85 -0.95 -1 -0.45 -0.95 -0.50 0.75 -0.50 1.30 -0.05 1.85 0.15 1.85 0.70 0 1.10 0.85 0.90 1.15 -0.25 0.40 -1.55 3 -1.35 3.80 0.30 0.60 1.40 0.35 2.20 -0.70 2.20 -0.35 0 -0.75 0.30 -0.90 0.65 -0.10 0.30 -0.10 0 0 -0.75z"/>
  <path d="M17.10 28.50 c-0.50 -0.85 -0.50 -1 0.15 -1 0.40 0 0.75 0.45 0.75 1 0 0.55 -0.05 1 -0.15 1 -0.05 0 -0.40 -0.45 -0.75 -1z"/>
  <path d="M11 21.65 c0 -2.15 0.25 -2.05 0.65 0.25 0.20 0.90 0.10 1.60 -0.15 1.60 -0.30 0 -0.50 -0.80 -0.50 -1.85z"/>
  <path d="M16.45 22.75 c-0.20 -0.25 -0.50 -1.25 -0.70 -2.10 -0.15 -0.90 -0.55 -1.75 -0.80 -1.90 -0.25 -0.20 -0.20 0.30 0.05 1.05 0.30 0.75 0.45 1.45 0.30 1.55 -0.40 0.40 -1.20 -2.80 -0.95 -3.80 0.45 -1.65 1.55 -1.20 2.15 0.85 0.60 1.90 0.50 5.30 -0.05 4.35z"/>
  <path d="M19.50 17.25 c0 -1.65 0.10 -1.75 1.75 -1.75 1.65 0 1.75 0.10 1.75 1.75 0 1.65 -0.10 1.75 -1.75 1.75 -1.65 0 -1.75 -0.10 -1.75 -1.75z m2.75 -0.80 c-0.40 -0.60 -2.25 -0.60 -2.25 0 0 0.50 1.50 1 2.15 0.70 0.20 -0.15 0.25 -0.45 0.10 -0.70z"/>
  <path d="M25.85 7.65 c-0.50 -0.45 -0.45 -1.15 0.05 -1.15 0.25 0 0.85 0.35 1.40 0.75 0.95 0.70 0.95 0.70 -0.10 0.75 -0.55 0 -1.20 -0.15 -1.35 -0.35z"/>
 </g>
 <g fill="#664b40">
  <path d="M3.50 38.55 c0 -0.25 0.55 -0.80 1.25 -1.25 0.70 -0.45 1.25 -0.60 1.25 -0.35 0 0.25 -0.55 0.80 -1.25 1.25 -0.70 0.45 -1.25 0.60 -1.25 0.35z"/>
  <path d="M18.10 36 c-0.35 -0.60 -0.50 -1.25 -0.35 -1.50 0.15 -0.25 0.05 -0.90 -0.25 -1.45 -0.60 -1.15 0.25 -2 1.10 -1.15 0.55 0.55 0.95 5.10 0.45 5.10 -0.20 0 -0.60 -0.45 -0.95 -1z"/>
  <path d="M24.45 31.30 c-0.30 -0.65 -1.70 -1.75 -3.05 -2.45 l-2.50 -1.30 0.30 1.25 c0.20 0.70 0.10 1.20 -0.20 1.20 -0.25 0 -0.50 -0.80 -0.50 -1.75 0 -1.65 0.10 -1.75 1.75 -1.75 1.20 0 1.75 0.25 1.75 0.75 0 0.50 0.50 0.75 1.30 0.75 1.60 0 3.20 1.70 3.20 3.35 0 1.50 -1.35 1.50 -2.05 -0.05z"/>
  <path d="M28.30 30.70 c-0.40 -1.05 -0.05 -1.40 0.95 -1 0.45 0.15 0.75 0.55 0.65 0.90 -0.35 0.95 -1.25 1 -1.60 0.10z"/>
  <path d="M23.50 26.55 c0 -0.25 0.60 -0.60 1.40 -0.70 l1.35 -0.20 -1.35 -0.10 c-1.05 -0.05 -1.40 -0.30 -1.40 -1.05 0 -0.85 0.35 -1 2.50 -1 1.85 0 2.50 0.20 2.50 0.70 0 0.40 -0.40 0.85 -0.85 0.95 -0.85 0.20 -0.85 0.25 0 0.30 0.45 0 0.85 0.40 0.85 0.80 0 0.55 -0.60 0.75 -2.50 0.75 -1.35 0 -2.50 -0.20 -2.50 -0.45z"/>
  <path d="M16.50 23.05 c-0.80 -1.55 -0.60 -2.55 0.50 -2.55 0.80 0 1 0.35 1 1.75 0 1.95 -0.70 2.30 -1.50 0.80z"/>
  <path d="M14.45 17.15 c-0.25 -3.50 0.50 -5.40 3.05 -8.10 2.75 -2.85 4.50 -3.75 6.60 -3.30 2.50 0.55 1.65 1.60 -1.55 2 -2.75 0.30 -3 0.45 -3.15 1.65 -0.10 0.95 -0.50 1.40 -1.25 1.50 -0.85 0.15 -1.15 0.50 -1.15 1.40 0 0.65 0.25 1.20 0.60 1.20 0.30 0 0.10 0.45 -0.50 1 -1.50 1.40 -1.40 1.55 0.50 0.65 1.25 -0.65 2.05 -0.70 4 -0.30 1.45 0.30 2.40 0.30 2.40 0 0 -0.25 -0.45 -0.55 -1 -0.70 -1.75 -0.45 -1.20 -1.65 0.75 -1.65 1.65 0 1.75 0.10 1.75 1.75 0 1.55 -0.15 1.75 -1.25 1.75 -0.70 0 -1.25 0.25 -1.25 0.50 0 0.30 0.25 0.50 0.50 0.50 0.30 0 0.50 0.25 0.50 0.50 0 0.75 -6.85 0.65 -7.20 -0.10 -0.25 -0.50 -0.35 -0.50 -0.60 0 -0.45 0.90 -1.70 0.75 -1.75 -0.25z m7.60 -0.40 c0 -0.65 -2.05 -0.95 -2.05 -0.35 0 0.55 1 1.10 1.65 0.90 0.25 -0.05 0.40 -0.30 0.40 -0.55z"/>
  <path d="M27.30 10.70 c-0.15 -0.45 -0.30 -1.50 -0.30 -2.35 l0.05 -1.60 1.20 1.40 c1.50 1.70 1.65 3.35 0.30 3.35 -0.50 0 -1.10 -0.35 -1.25 -0.80z"/>
 </g>
 <g fill="#975f24">
  <path d="M31.60 39.25 c-0.85 -0.95 -0.05 -0.95 1.20 0 0.70 0.55 0.75 0.70 0.20 0.70 -0.40 0 -1.05 -0.30 -1.40 -0.70z"/>
  <path d="M29.20 38.45 c-0.15 -0.30 -0.85 -0.40 -1.50 -0.25 -0.70 0.20 -1.20 0.10 -1.20 -0.20 0 -0.25 0.80 -0.50 1.75 -0.50 1.20 0 1.75 0.25 1.75 0.75 0 0.90 -0.30 0.95 -0.80 0.20z"/>
  <path d="M18.60 36.65 c-0.70 -1.25 -1.25 -5.15 -0.80 -5.15 0.20 0 0.90 0.50 1.55 1.10 0.85 0.75 1.15 0.85 1.15 0.35 0.05 -0.50 0.20 -0.45 0.55 0.20 0.55 0.95 0.15 2.85 -0.60 2.85 -0.25 0 -0.45 -0.45 -0.45 -1 0 -0.55 -0.20 -1 -0.50 -1 -0.25 0 -0.50 0.45 -0.50 0.95 0 0.55 0.25 1.15 0.50 1.30 0.30 0.15 0.50 0.50 0.50 0.80 0 0.75 -0.95 0.50 -1.40 -0.40z"/>
  <path d="M36.55 35.85 c-0.45 -0.55 -0.25 -0.70 0.95 -0.75 1.60 -0.05 2 0.60 0.70 1.10 -1.05 0.40 -1 0.40 -1.65 -0.35z"/>
  <path d="M34.65 35.20 c0.15 -0.60 0 -1.45 -0.30 -1.95 -0.40 -0.75 -0.35 -0.85 0.45 -0.50 0.50 0.20 1.35 0.50 1.85 0.60 1.25 0.40 1.05 1.50 -0.25 1.40 -0.65 -0.05 -1.30 0.25 -1.55 0.70 -0.25 0.60 -0.30 0.55 -0.20 -0.25z"/>
  <path d="M24.35 30.80 c-0.15 -0.40 -1.45 -1.30 -2.85 -2 l-2.60 -1.30 0.40 1.60 c0.30 1.55 0.30 1.60 -0.60 0.90 -1.70 -1.35 -2.10 -2.20 -1.85 -3.80 0.25 -1.55 -1 -6.45 -1.90 -7.45 -1.25 -1.30 -0.05 -7.20 1.70 -8.70 0.75 -0.60 0.85 -0.50 0.85 1.15 0 1.70 0.10 1.80 1.65 1.85 1.55 0.05 1.55 0.05 0.30 0.40 -1.85 0.60 -3.45 1.50 -3.45 2.05 0 0.25 0.60 0.10 1.40 -0.30 1.45 -0.75 3.60 -0.95 3.60 -0.30 0 0.20 0.70 0.35 1.50 0.35 1.75 0 2.10 -1.25 0.40 -1.30 -0.70 0 -0.30 -0.30 1.10 -0.75 2.65 -0.80 5.10 -0.95 2.90 -0.10 -0.80 0.25 -1.40 0.70 -1.40 1 0 0.50 0.85 0.40 2.55 -0.30 0.50 -0.25 0.95 -0.05 1.10 0.40 0.20 0.50 0.05 0.80 -0.35 0.80 -0.40 0 -0.85 0.35 -1 0.80 -0.20 0.60 -0.05 0.70 0.65 0.45 0.70 -0.20 1.15 0 1.55 0.75 0.45 0.85 0.40 1 -0.35 1 -0.60 0 -0.70 0.15 -0.35 0.40 0.75 0.45 1 2.85 0.50 5 -0.35 1.45 -0.55 1.60 -2.35 1.60 -1.05 0 -1.95 -0.20 -1.95 -0.50 0 -0.25 -0.35 -0.50 -0.75 -0.50 -0.40 0 -0.75 0.30 -0.75 0.70 0 0.40 -0.60 0.85 -1.35 0.95 -0.80 0.15 0.40 0.15 2.60 0 l4 -0.20 0 1.90 c0.05 1.05 0.25 2.30 0.45 2.80 0.30 0.60 0.20 0.85 -0.40 0.85 -0.45 0 -0.95 -0.35 -1.15 -0.80 -0.25 -0.75 -0.40 -0.75 -0.85 -0.10 -0.85 1.15 -2.65 1.55 -2.95 0.70z m-2.95 -7.30 c0.35 0 0.60 -0.70 0.60 -1.75 0 -1.60 0.10 -1.75 1.50 -1.75 0.85 0 1.50 -0.20 1.50 -0.50 0 -0.25 -1 -0.50 -2.25 -0.50 -1.25 0 -2.25 -0.20 -2.25 -0.50 0 -0.25 -0.70 -0.50 -1.55 -0.50 -1.45 0 -1.55 0.10 -1.25 1.40 0.15 0.75 0.45 2.10 0.65 3 0.25 1.40 0.45 1.65 1.35 1.40 0.60 -0.15 1.35 -0.30 1.70 -0.30z m6.35 -2 c0.20 -0.30 -0.60 -0.50 -2 -0.50 -1.40 0 -2.20 0.20 -2 0.50 0.15 0.30 1.05 0.50 2 0.50 0.95 0 1.85 -0.20 2 -0.50z m-5.35 -4.90 c0.10 -0.35 -0.35 -0.60 -1.10 -0.60 -1.35 0 -1.75 0.75 -0.65 1.15 0.85 0.35 1.50 0.15 1.75 -0.55z"/>
  <path d="M10.25 23 c0.80 -0.85 0.85 -1.35 0.40 -3.30 -0.30 -1.25 -0.35 -2.10 -0.10 -1.85 0.55 0.55 1.45 5.25 1.15 5.75 -0.15 0.25 -0.75 0.40 -1.30 0.40 -1.05 0 -1.05 -0.05 -0.15 -1z"/>
  <path d="M7.95 21.20 c-1.50 -2.45 -1.65 -5.95 -0.25 -5.95 0.55 0 1.05 0.25 1.15 0.60 0.15 0.35 -0.15 0.45 -0.90 0.30 -0.95 -0.25 -1 -0.15 -0.70 0.90 0.45 1.45 1.20 2.85 1.25 2.25 0 -1 1.50 0.90 1.50 2 0 1.85 -0.85 1.85 -2.05 -0.10z"/>
  <path d="M23.50 7 c0 -1.10 1 -1.30 2.55 -0.50 1.50 0.80 1.15 1.50 -0.80 1.50 -1.40 0 -1.75 -0.20 -1.75 -1z"/>
 </g>
 <g fill="#72615e">
  <path d="M34.60 33.50 c-0.35 -0.55 -0.50 -1 -0.30 -1 0.65 0 2.20 1.05 2.20 1.50 0 0.85 -1.25 0.55 -1.90 -0.50z"/>
  <path d="M28.30 30.65 c-0.20 -0.45 -0.20 -0.90 -0.10 -1.05 0.40 -0.35 1.80 0.30 1.80 0.85 0 0.80 -1.40 1 -1.70 0.20z"/>
  <path d="M23.90 27.15 c-0.50 -0.10 -0.90 -0.45 -0.90 -0.70 0 -0.25 0.40 -0.45 0.90 -0.45 0.45 0 1.70 -0.15 2.75 -0.30 1.60 -0.30 1.85 -0.20 1.85 0.65 0 0.75 -0.35 0.95 -1.85 1 -1.05 0.05 -2.30 -0.05 -2.75 -0.20z"/>
  <path d="M23 24.45 c0 -1 0.15 -1.05 2.55 -0.80 4.10 0.50 4.10 1.05 0.10 1.55 -2.50 0.30 -2.65 0.25 -2.65 -0.75z"/>
  <path d="M29 19 c0 -0.80 -0.35 -1 -1.75 -1 -1.60 0 -1.75 -0.10 -1.75 -1.50 0 -0.80 -0.20 -1.50 -0.50 -1.50 -0.25 0 -0.50 -0.75 -0.50 -1.70 0 -1.30 0.25 -1.75 1.15 -2 3.65 -0.95 5.45 0.55 1.85 1.65 -1.15 0.35 -2 0.90 -2 1.30 0 1 0.30 0.95 2.30 -0.30 l1.70 -1.05 0 1.05 c0 0.60 -0.30 1.05 -0.70 1.05 -0.40 0 -0.85 0.35 -1 0.80 -0.15 0.40 -0.55 0.60 -0.85 0.40 -0.40 -0.20 -0.45 -0.15 -0.25 0.20 0.25 0.45 0.65 0.45 1.30 0.10 0.75 -0.40 1.15 -0.25 2 0.60 1.30 1.40 1.30 2.90 0 2.90 -0.65 0 -1 -0.35 -1 -1z"/>
  <path d="M17.65 18.65 c-1.35 -0.20 -1.65 -0.45 -1.65 -1.45 0 -1.60 2.85 -2.95 5.35 -2.45 1.85 0.35 1.80 1.25 -0.15 1.25 -1.55 0 -1.55 0.90 0.05 1.30 0.70 0.15 1.25 0.60 1.25 1 0 0.70 -1.25 0.80 -4.85 0.35z"/>
  <path d="M15.50 14 c0 -1.50 0.75 -2 3.05 -2 2.15 0 1.75 1.10 -0.80 2.30 l-2.25 1.05 0 -1.35z"/>
  <path d="M21.40 13.65 c-1.65 -0.40 -1 -1.65 0.85 -1.65 1.40 0 1.75 0.20 1.75 1 0 1 -0.70 1.15 -2.60 0.65z"/>
  <path d="M17.65 9 c0.40 -0.60 1.25 -1.45 1.85 -1.85 1.05 -0.75 1.05 -0.70 0.90 0.90 -0.15 1.50 -0.35 1.70 -1.85 1.85 -1.60 0.15 -1.65 0.15 -0.90 -0.90z"/>
 </g>
 <g fill="#aa6e41">
  <path d="M32.25 39.50 c-0.15 -0.25 -0.85 -0.50 -1.50 -0.50 -0.65 0 -1.35 -0.25 -1.55 -0.55 -0.15 -0.30 -0.85 -0.40 -1.50 -0.25 -0.65 0.20 -1.20 0.10 -1.20 -0.15 0 -0.45 1.70 -1.05 3 -1 0.90 0 4.50 2.95 3.65 2.95 -0.35 0 -0.75 -0.20 -0.90 -0.50z"/>
  <path d="M34.15 38.50 c-1.55 -1.95 -1.45 -2.60 0.10 -0.80 0.70 0.80 1.25 1.65 1.25 1.90 0 0.60 -0.15 0.50 -1.35 -1.10z"/>
  <path d="M38 37.80 c0 -0.40 0.30 -0.80 0.65 -0.95 0.30 -0.10 0.40 -0.40 0.20 -0.65 -0.20 -0.25 -0.60 -0.10 -0.85 0.30 -0.50 0.80 -0.50 0.80 -3 -2.60 l-1 -1.30 1.75 0.55 c1.80 0.55 2.35 1.35 0.90 1.35 -0.45 0 -0.65 0.15 -0.45 0.35 0.20 0.20 1.10 0.30 2.05 0.25 1.65 -0.10 1.75 -0.05 1.75 1.35 0 0.85 -0.30 1.55 -0.80 1.75 -1.10 0.40 -1.20 0.40 -1.20 -0.40z"/>
  <path d="M24.50 31 c-0.35 -0.80 -0.95 -1.50 -1.30 -1.50 -0.40 0 -0.70 -0.30 -0.70 -0.70 0 -0.45 0.35 -0.60 1 -0.45 0.55 0.15 1 0.50 1 0.75 0 0.30 0.35 0.40 0.75 0.20 0.45 -0.15 0.75 0 0.75 0.40 0 0.40 0.25 0.80 0.60 0.90 0.80 0.30 0.10 1.90 -0.75 1.90 -0.40 0 -1 -0.65 -1.35 -1.50z"/>
  <path d="M28.35 30.65 c-0.45 -0.40 -0.45 -2.15 -0.05 -2.15 0.40 0 1.65 1.60 1.70 2.15 0 0.45 -1.20 0.45 -1.65 0z"/>
  <path d="M18.25 28.85 c-1.85 -3.05 -0.75 -5.30 1.40 -2.95 1.15 1.25 1.05 2.05 -0.15 1.75 -0.95 -0.25 -0.95 -0.15 -0.50 1.10 0.75 1.95 0.35 2 -0.75 0.10z"/>
  <path d="M21.90 27.15 c-1.55 -0.40 -0.95 -1.15 0.85 -1.15 0.95 0 1.75 0.20 1.75 0.45 0 0.25 0.40 0.60 0.90 0.70 0.45 0.15 0.05 0.25 -0.90 0.25 -0.95 0 -2.15 -0.10 -2.60 -0.25z"/>
  <path d="M21 24.40 c0 -0.70 0.40 -0.90 1.75 -0.90 1.40 0 1.75 0.20 1.75 1 0 0.85 -0.30 1 -1.75 0.85 -1.30 -0.05 -1.75 -0.35 -1.75 -0.95z"/>
  <path d="M25.50 23.30 c0 -0.90 0.35 -1.25 1.50 -1.45 0.90 -0.20 1.50 -0.65 1.50 -1.10 0 -0.40 0.25 -0.75 0.50 -0.75 0.55 0 0.70 2.45 0.20 3.70 -0.20 0.50 -0.90 0.80 -2 0.80 -1.45 0 -1.70 -0.15 -1.70 -1.20z"/>
  <path d="M8.50 20.70 c0 -1.55 1.15 -1.40 1.40 0.20 0.10 0.75 -0.10 1.10 -0.60 1.10 -0.55 0 -0.80 -0.45 -0.80 -1.30z"/>
  <path d="M11.05 21.15 c0 -0.60 -0.20 -1.50 -0.35 -2 -0.25 -0.85 -0.25 -0.85 0.30 0 0.30 0.50 0.45 1.40 0.35 2 -0.20 1.10 -0.20 1.10 -0.30 0z"/>
  <path d="M16 20.55 c0 -0.55 -0.35 -1.30 -0.75 -1.75 -1.05 -1.05 -0.95 -2.30 0.25 -2.30 0.55 0 1 0.35 1 0.75 0 0.45 0.45 0.75 1.25 0.75 1.10 0 1.25 0.20 1.25 1.75 0 1.60 -0.10 1.75 -1.50 1.75 -1.15 0 -1.50 -0.25 -1.50 -0.95z"/>
  <path d="M21 18 c0 -0.25 0.35 -0.50 0.75 -0.50 0.40 0 0.75 -0.35 0.75 -0.75 0 -0.40 -0.35 -0.75 -0.75 -0.75 -0.40 0 -0.75 -0.35 -0.75 -0.75 0 -0.55 0.30 -0.60 1.15 -0.30 0.75 0.30 1.05 0.75 0.95 1.50 -0.10 0.55 0.10 1.05 0.35 1.05 0.30 0 0.55 -0.80 0.55 -1.75 0 -0.95 0.20 -1.75 0.40 -1.75 0.90 0 1.60 1.30 1.60 2.85 0 1.65 0 1.65 -2.50 1.65 -1.35 0 -2.50 -0.20 -2.50 -0.50z"/>
  <path d="M16.50 11.30 c0 -1.15 3.90 -5.30 5 -5.30 0.80 0 0.60 3.80 -0.25 4.50 -0.40 0.35 -0.75 0.95 -0.75 1.30 0 0.50 -0.65 0.70 -2 0.70 -1.75 0 -2 -0.15 -2 -1.20z"/>
  <path d="M27.50 11 c0 -0.55 -0.20 -1 -0.50 -1 -0.25 0 -0.50 -0.65 -0.50 -1.50 0 -1.95 0.75 -1.90 2 0.15 1.30 2.10 1.30 3.35 0 3.35 -0.65 0 -1 -0.35 -1 -1z"/>
 </g>
 <g fill="#b08129">
  <path d="M17.80 33.20 c-0.15 -0.45 -0.15 -1 0 -1.25 0.45 -0.75 1.70 0.50 1.35 1.35 -0.35 0.95 -0.95 0.90 -1.35 -0.10z"/>
  <path d="M24.25 30.55 c-0.15 -0.55 -0.95 -1.10 -1.75 -1.30 -0.80 -0.15 -1.70 -0.65 -2.05 -1.05 -0.30 -0.40 -1 -0.70 -1.50 -0.70 -0.95 0 -1.95 -1.70 -1.95 -3.35 0 -0.55 0.35 -0.70 1.30 -0.50 0.90 0.15 1.65 -0.10 2.25 -0.70 1.35 -1.35 1.20 -2.45 -0.30 -2.45 -0.70 0 -1.25 0.25 -1.25 0.55 0 0.65 -1.25 1.95 -1.90 1.95 -0.25 0 -0.75 -1 -1.05 -2.20 -0.30 -1.25 -0.75 -2.40 -1.05 -2.55 -0.85 -0.50 -0.55 -4.20 0.50 -6.20 0.95 -1.90 5.15 -6.05 6.15 -6.05 0.80 0 0.05 4.60 -0.85 5.25 -0.45 0.35 -0.80 0.85 -0.80 1.10 0 0.60 4.15 1.25 5.20 0.85 0.55 -0.20 0.65 0 0.45 0.75 -0.35 1.30 0.05 1.30 2.15 0 1.60 -0.95 1.70 -1 1.70 -0.10 0 0.55 -0.60 1.20 -1.50 1.55 -1.75 0.80 -1.60 1.60 0.25 1.20 0.90 -0.15 1.25 0 1.25 0.55 0 0.40 0.20 0.85 0.45 0.95 0.75 0.25 0.80 3.05 0.10 4.30 -0.35 0.65 -0.65 2.60 -0.70 4.35 -0.05 2.05 -0.35 3.30 -0.70 3.45 -0.35 0.15 -0.65 0 -0.65 -0.30 0 -0.35 -0.45 -0.10 -1 0.50 -1.30 1.35 -2.35 1.40 -2.75 0.15z m3.35 -2.25 c0.65 -1 0.45 -1.05 -2.70 -0.85 -2.65 0.15 -2.95 0.25 -2 0.70 0.60 0.25 1.10 0.70 1.10 0.95 0 0.65 3.15 -0.05 3.60 -0.80z m-2.10 -1.80 c0 -0.25 0.85 -0.60 1.85 -0.80 1.65 -0.30 1.75 -0.40 0.80 -0.75 -0.60 -0.20 -1.80 -0.20 -2.70 0.05 -0.90 0.25 -2.10 0.35 -2.65 0.20 -0.60 -0.15 -1.45 0.05 -1.95 0.40 -0.80 0.60 -0.70 0.65 1.05 0.50 1.10 -0.10 2.15 0.05 2.30 0.35 0.45 0.70 1.30 0.70 1.30 0.05z m2.90 -5.65 c0.15 -0.75 0 -0.80 -1.15 -0.35 -0.70 0.25 -1.85 0.50 -2.55 0.50 -0.65 0 -1.20 0.20 -1.20 0.45 0 1.30 4.65 0.75 4.90 -0.60z m-4.30 -5.10 c-0.10 -0.85 -0.25 -1.60 -0.40 -1.70 -0.10 -0.10 -1.40 -0.30 -2.85 -0.45 -2.10 -0.15 -2.85 0 -3.95 0.90 -2.05 1.55 -1.70 2.05 0.60 0.90 1.45 -0.75 2.50 -0.90 3.75 -0.70 2.60 0.50 2.15 1.30 -0.70 1.30 -1.40 0 -2.65 0.25 -2.85 0.55 -0.25 0.40 0.05 0.50 0.95 0.25 0.70 -0.15 1.45 -0.10 1.60 0.20 0.20 0.30 1.15 0.45 2.15 0.35 1.70 -0.15 1.85 -0.25 1.70 -1.60z"/>
  <path d="M10.35 23.70 c-0.15 -0.15 -0.05 -0.70 0.25 -1.15 0.95 -1.55 0.05 -4.35 -2 -6.05 -1.10 -0.90 -1.50 -1.50 -1.05 -1.50 0.40 0 1.40 0.65 2.15 1.45 1.10 1.15 1.45 2.05 1.65 4.50 0.25 2.80 -0.05 3.65 -1 2.75z"/>
  <path d="M8.80 22.25 c-0.45 -1.25 -0.35 -2.75 0.20 -2.75 0.70 0 1.20 2.50 0.65 3.05 -0.35 0.35 -0.60 0.25 -0.85 -0.30z"/>
  <path d="M25.40 8.80 c-0.50 -0.35 -0.90 -1.15 -0.90 -1.70 0 -0.95 0.15 -1 1.45 -0.55 0.80 0.30 1.85 1.05 2.30 1.75 0.75 1.15 0.75 1.20 -0.60 1.20 -0.80 0 -1.80 -0.35 -2.25 -0.70z"/>
 </g>
 <g fill="#6559a2">
  <path d="M3.50 38.60 c0 -0.30 0.55 -0.85 1.25 -1.30 0.70 -0.45 1.25 -0.65 1.25 -0.45 -0.05 0.60 -2.50 2.30 -2.50 1.75z"/>
  <path d="M26.15 31.65 c-0.90 -0.30 -0.80 -2.15 0.05 -2.15 0.35 0 0.95 -0.35 1.30 -0.75 0.90 -1.10 1.35 -0.95 1.70 0.55 0.45 1.70 -0.10 2.20 -1 1 -0.70 -0.95 -0.70 -0.95 -1.30 1 -0.10 0.30 -0.45 0.45 -0.75 0.35z"/>
 </g>
 <g fill="#c79a39">
  <path d="M24.35 30.70 c-0.40 -0.40 0.05 -1.20 0.70 -1.20 0.25 0 0.45 0.35 0.45 0.75 0 0.75 -0.60 1 -1.15 0.45z"/>
  <path d="M26 30.20 c0 -0.15 0.55 -0.75 1.25 -1.30 1.60 -1.25 1.60 -2.10 0 -1.70 -1.20 0.30 -1.25 0.25 -0.65 -0.70 1.15 -1.85 2.30 -1.25 2.50 1.40 0.20 2.30 0 3.45 -0.45 2.25 -0.25 -0.75 -1.65 -0.85 -1.65 -0.15 0 0.30 -0.20 0.50 -0.50 0.50 -0.25 0 -0.50 -0.15 -0.50 -0.30z"/>
  <path d="M22.15 29 c-0.65 -0.25 -1.15 -0.65 -1.15 -0.95 0 -0.25 -0.50 -0.60 -1.10 -0.80 l-1.15 -0.35 1.25 -0.40 c1.75 -0.55 3.60 -0.60 3.25 -0.05 -0.15 0.25 0.15 0.60 0.60 0.70 0.50 0.10 0.25 0.15 -0.50 0.10 -1.85 -0.10 -2.25 0.65 -0.65 1.25 0.70 0.25 1.30 0.60 1.30 0.75 0 0.35 -0.55 0.25 -1.85 -0.25z"/>
  <path d="M17.60 25.60 c-0.25 -0.45 -0.60 -1.50 -0.80 -2.35 -0.20 -0.80 -0.50 -1.95 -0.65 -2.45 -0.20 -0.75 -0.05 -0.90 0.55 -0.65 0.50 0.20 0.80 0.05 0.80 -0.40 0 -1.20 -0.20 -1.45 -1.25 -1.65 -1.40 -0.20 -2.20 -1.10 -0.95 -1.10 0.50 0 1.25 -0.45 1.60 -1 0.45 -0.75 1.10 -1 2.50 -0.95 l1.85 0.05 -1.60 0.55 c-1.90 0.75 -2.85 1.60 -1.30 1.20 1.35 -0.30 3.65 0.65 3.65 1.55 0 0.85 1.25 0.75 2.20 -0.20 0.85 -0.85 1.05 -2 0.35 -2.30 -0.25 -0.05 -0.60 -0.90 -0.80 -1.75 -0.30 -1.55 -0.25 -1.65 1.10 -1.65 1.35 0 3.60 -1 2.30 -1 -0.35 0 -0.65 -0.30 -0.65 -0.65 0 -0.30 -0.70 -0.90 -1.50 -1.25 -0.85 -0.40 -1.65 -1.20 -1.80 -1.90 -0.40 -1.60 -0.05 -1.90 1.55 -1.50 1.85 0.45 4.20 2.85 4.55 4.60 0.25 1.40 0.15 1.55 -1.65 2 -1.40 0.35 -1.95 0.75 -2.05 1.60 -0.20 1.45 0.15 1.40 2.05 -0.20 1.05 -0.90 1.65 -1.10 1.75 -0.70 0.25 0.70 -1.75 2.45 -2.75 2.50 -0.75 0 -0.90 1 -0.15 1 0.30 0 0.50 0.35 0.50 0.75 0 0.40 0.20 0.75 0.45 0.75 0.25 0 0.35 -0.45 0.20 -1 -0.20 -0.80 0 -1 0.95 -1 1 0 1.25 0.35 1.75 2.40 0.45 1.90 0.40 2.50 -0.15 3.15 -0.40 0.40 -0.70 1.25 -0.70 1.85 0 0.75 -0.30 1.10 -1 1.10 -0.55 0 -1 -0.20 -1 -0.50 0 -0.25 -0.90 -0.15 -2.05 0.30 -1.40 0.60 -2.15 0.70 -2.55 0.30 -0.35 -0.35 -1.15 -0.25 -2.70 0.40 -2.05 0.90 -2.20 0.90 -2.60 0.10z m6.45 -1.65 c0.55 -0.25 0.85 -0.70 0.70 -0.95 -0.15 -0.25 0.35 -0.60 1.10 -0.80 2.70 -0.60 2.95 -0.70 3 -1.70 0.10 -0.85 -0.05 -0.90 -0.90 -0.50 -0.70 0.40 -0.95 0.35 -0.95 -0.10 0 -0.30 -0.30 -0.20 -0.65 0.35 -0.50 0.65 -1.05 0.80 -2.05 0.55 -1.20 -0.30 -1.30 -0.20 -1 0.90 0.15 0.65 0.05 1.35 -0.25 1.50 -0.55 0.35 -0.75 1.30 -0.25 1.30 0.15 0 0.70 -0.25 1.25 -0.55z m-2.70 -3.30 c-0.15 -0.10 -0.65 -0.15 -1.15 -0.05 -0.80 0.15 -0.80 0.20 0.10 1.10 0.90 0.90 0.95 0.90 1.10 0.10 0.10 -0.50 0.05 -1 -0.05 -1.15z m-0.35 -2.15 c0 -0.25 -0.45 -0.50 -1 -0.50 -0.55 0 -1 0.25 -1 0.50 0 0.30 0.45 0.50 1 0.50 0.55 0 1 -0.20 1 -0.50z"/>
  <path d="M8.80 21.70 c-0.15 -0.45 -0.30 -1.15 -0.30 -1.55 0 -0.65 0.15 -0.65 0.75 -0.15 0.80 0.65 1.05 2.50 0.30 2.50 -0.25 0 -0.60 -0.35 -0.75 -0.80z"/>
  <path d="M14.55 15.15 c-0.05 -0.65 0.45 -1.65 1 -2.20 1 -1 1.15 -1 1.55 -0.25 0.55 0.95 -0.30 2.30 -1.35 2.30 -0.40 0 -0.80 0.30 -0.90 0.65 -0.15 0.30 -0.30 0.10 -0.30 -0.50z"/>
  <path d="M19.70 9.40 c1.30 -1.85 0.90 -2.05 -1.05 -0.60 -1.70 1.20 -1.70 1.10 0.35 -0.75 1.25 -1.10 2.55 -2.05 2.90 -2.05 1.05 0 0.65 2.55 -0.50 3.55 -1.65 1.35 -2.65 1.25 -1.70 -0.15z"/>
 </g>
 <g fill="#bb9653">
  <path d="M37.35 36.60 c-0.15 -0.20 0.05 -0.65 0.45 -0.95 0.35 -0.35 0.75 -0.45 0.85 -0.25 0.15 0.20 -0.05 0.65 -0.45 0.95 -0.35 0.35 -0.75 0.45 -0.85 0.25z"/>
  <path d="M24.80 31.40 c-0.95 -1.30 -0.70 -1.70 1.05 -2 0.80 -0.15 1.80 -0.45 2.30 -0.65 0.70 -0.30 0.85 -0.10 0.80 1.05 -0.05 0.85 -0.15 1.10 -0.30 0.60 -0.35 -1.35 -1.65 -1.10 -1.65 0.30 0 1.60 -1.30 2 -2.20 0.70z"/>
  <path d="M20 27 c0 -0.55 1.35 -1 3.05 -1 0.90 0 1.45 0.25 1.45 0.70 0 0.50 -0.65 0.70 -2.25 0.70 -1.25 0 -2.25 -0.15 -2.25 -0.40z"/>
  <path d="M22.75 25 c-0.15 -0.25 0 -0.50 0.40 -0.50 0.35 0 1.20 -0.55 1.80 -1.20 1.50 -1.60 3.45 -1.95 4.05 -0.75 0.70 1.30 0.65 1.45 -0.70 1.45 -0.65 0 -1.30 0.20 -1.40 0.45 -0.25 0.65 -3.80 1.15 -4.15 0.55z"/>
  <path d="M19.70 24.25 c-0.15 -0.40 -0.50 -0.60 -0.75 -0.45 -0.25 0.15 -0.45 0 -0.45 -0.35 0 -0.35 -0.35 -1 -0.75 -1.45 -0.55 -0.65 -0.65 -1.20 -0.30 -2.05 0.40 -1.10 0.65 -1.20 3 -1.05 l2.55 0.20 -0.05 1.80 c-0.05 1.05 -0.15 1.45 -0.30 1 -0.15 -0.65 -0.70 -0.90 -2.05 -0.85 -1 0.05 -1.45 0.15 -0.95 0.30 0.45 0.10 0.85 0.40 0.85 0.65 0 0.25 0.60 0.60 1.40 0.90 l1.35 0.45 -1.65 0.85 c-1.45 0.75 -1.65 0.75 -1.90 0.05z"/>
  <path d="M8.95 22.15 c0 -0.25 -0.10 -0.90 -0.15 -1.50 -0.10 -0.90 0 -1 0.55 -0.60 0.75 0.65 0.90 2.45 0.15 2.45 -0.25 0 -0.50 -0.15 -0.55 -0.35z"/>
  <path d="M29.35 22.15 c-0.20 -0.15 -0.35 -0.80 -0.35 -1.45 0 -1.10 -0.05 -1.10 -1.95 -0.35 -1.15 0.45 -2.40 0.60 -2.90 0.40 -0.80 -0.30 -0.80 -0.40 0.25 -0.80 0.60 -0.20 1.10 -0.70 1.05 -1.05 0 -0.50 -0.10 -0.50 -0.30 0 -0.25 0.70 -1.65 0.85 -1.65 0.15 0 -0.25 0.25 -0.55 0.55 -0.65 0.85 -0.30 0.05 -4.40 -0.85 -4.40 -0.40 0 -0.70 -0.20 -0.70 -0.50 0 -0.25 0.80 -0.50 1.80 -0.50 1.45 0 1.70 0.15 1.30 0.65 -0.30 0.35 -0.35 0.90 -0.15 1.30 0.35 0.55 0.85 0.40 2.30 -0.75 1.50 -1.15 1.85 -1.25 1.70 -0.50 -0.10 0.45 -0.85 1.25 -1.70 1.70 -0.80 0.45 -1.60 0.90 -1.75 1 -0.10 0.10 0.05 0.35 0.45 0.55 0.35 0.25 0.60 0.60 0.55 0.85 -0.05 0.25 0.15 0.50 0.40 0.60 0.30 0.10 0.40 -0.30 0.25 -0.85 -0.20 -0.85 -0.05 -1.05 1 -1.05 1.30 0 2 1 1.55 2.25 -0.20 0.40 -0.05 0.75 0.25 0.75 0.30 0 0.55 0.40 0.55 0.95 0 1.05 -1.15 2.25 -1.65 1.70z"/>
  <path d="M16 18 c-0.45 -0.25 -0.30 -0.70 0.55 -1.70 0.90 -1.05 1.55 -1.30 3.50 -1.30 1.30 0 2.55 0.25 2.75 0.55 0.20 0.40 -0.25 0.45 -1.60 0.25 -1.45 -0.25 -2.20 -0.15 -2.95 0.45 -1 0.80 -1 0.80 0.15 0.60 0.65 -0.15 1.75 0.05 2.50 0.45 l1.35 0.70 -2 0.05 c-1.10 0 -2.35 0.10 -2.80 0.20 -0.45 0.05 -1.10 -0.05 -1.45 -0.25z"/>
  <path d="M14.70 14.45 c-0.15 -0.25 0 -0.45 0.25 -0.45 0.30 0 0.55 -0.30 0.55 -0.65 0 -0.60 2 -2.15 2.60 -1.95 0.45 0.10 2.45 -3.15 2.60 -4.30 0.10 -0.45 0.65 -0.90 1.20 -1 0.95 -0.15 1.10 0.10 1.10 1.35 0 0.90 -0.45 2 -1 2.55 -0.55 0.55 -1 1.25 -1 1.50 0 0.30 -0.35 0.50 -0.75 0.50 -0.40 0 -0.75 0.30 -0.75 0.65 0 0.35 -0.75 0.95 -1.60 1.30 -2.30 0.95 -2.85 1.05 -3.20 0.50z"/>
  <path d="M27.50 12 c0 -0.25 -0.30 -0.50 -0.65 -0.50 -1.25 0 -2.85 -2.25 -2.85 -4 l0 -1.65 1.30 1.35 c0.75 0.70 1.65 1.30 2 1.30 0.40 0 0.70 0.25 0.70 0.55 0 0.30 0.35 0.85 0.75 1.25 1.05 1.10 0.95 2.20 -0.25 2.20 -0.55 0 -1 -0.20 -1 -0.50z"/>
 </g>
 <g fill="#a09981">
  <path d="M26 30.25 c0 -0.40 0.25 -0.75 0.50 -0.75 0.30 0 0.50 0.35 0.50 0.75 0 0.40 -0.20 0.75 -0.50 0.75 -0.25 0 -0.50 -0.35 -0.50 -0.75z"/>
  <path d="M28.50 30.25 c0 -0.40 -0.25 -0.75 -0.60 -0.75 -0.45 0 -0.45 -0.15 0 -0.60 0.50 -0.50 0.75 -0.50 1.10 0.10 0.65 1 0.65 2 0 2 -0.25 0 -0.50 -0.35 -0.50 -0.75z"/>
  <path d="M23.65 27.15 c-3.30 -0.30 -2.55 -1 1.50 -1.30 3.75 -0.25 4.35 -0.15 3.55 0.60 -0.65 0.65 -2.60 0.95 -5.05 0.70z"/>
  <path d="M23 25 c0 -0.20 0.70 -0.70 1.50 -1.10 0.85 -0.35 1.50 -0.95 1.50 -1.25 0 -0.35 0.25 -0.65 0.50 -0.65 0.30 0 0.50 0.40 0.50 0.85 0 0.70 0.15 0.65 1 -0.25 0.60 -0.60 1.10 -1.10 1.15 -1.10 0.45 0 0.20 3.10 -0.30 3.25 -1.50 0.45 -5.85 0.65 -5.85 0.25z"/>
  <path d="M29 19.50 c0 -0.55 -0.25 -1 -0.55 -1 -0.25 0 -0.35 -0.25 -0.15 -0.55 0.15 -0.30 0 -0.75 -0.35 -1 -0.55 -0.30 -0.40 -0.45 0.40 -0.45 1.20 0 2.65 1.70 2.65 3.10 0 0.55 -0.40 0.90 -1 0.90 -0.65 0 -1 -0.35 -1 -1z"/>
  <path d="M16 17.60 c0 -0.20 0.35 -0.90 0.80 -1.50 0.60 -0.90 1.25 -1.10 3.25 -1.10 1.55 0 2.40 0.20 2.20 0.50 -0.20 0.30 -0.55 0.40 -0.80 0.20 -0.75 -0.45 -3.95 0.25 -3.95 0.85 0 0.25 0.60 0.40 1.30 0.35 0.75 -0.10 1.45 0.15 1.55 0.50 0.15 0.40 -0.45 0.60 -2.05 0.60 -1.25 0 -2.30 -0.15 -2.30 -0.40z"/>
  <path d="M22.65 13.90 c-2.25 -0.75 -2.15 -1.90 0.10 -1.90 1.55 0 1.75 0.15 1.75 1.25 0 0.70 -0.05 1.25 -0.10 1.20 -0.10 -0.05 -0.90 -0.30 -1.75 -0.55z"/>
 </g>
 <g fill="#ddac49">
  <path d="M28.30 29.70 c-0.45 -1.10 0.15 -1.60 0.70 -0.70 0.60 0.95 0.60 1.50 0.05 1.50 -0.25 0 -0.60 -0.35 -0.75 -0.80z"/>
  <path d="M20 27 c0 -0.50 1.90 -1 3.75 -0.95 0.85 0.05 1.10 0.15 0.65 0.30 -0.50 0.10 -0.90 0.40 -0.90 0.55 0 0.20 -0.80 0.40 -1.75 0.45 -0.95 0.05 -1.75 -0.10 -1.75 -0.35z"/>
  <path d="M26.50 26.75 c0 -0.40 0.20 -0.75 0.45 -0.75 0.25 0 0.85 -0.15 1.35 -0.35 0.55 -0.20 0.75 -0.10 0.60 0.35 -0.30 1 -2.40 1.65 -2.40 0.75z"/>
  <path d="M23.05 24.85 c0.10 -0.05 0.60 -0.45 1.10 -0.80 0.70 -0.60 0.85 -0.55 0.85 0.15 0 0.50 -0.40 0.80 -1.10 0.80 -0.60 0 -0.95 -0.05 -0.85 -0.15z"/>
  <path d="M27.70 23.70 c0.50 -1.85 0.75 -2.10 1.35 -1.20 0.65 1.10 0.35 2.20 -0.75 2.40 -0.80 0.15 -0.90 0 -0.60 -1.20z"/>
  <path d="M9 21.25 c0.05 -1.30 0.10 -1.40 0.55 -0.60 0.40 0.70 0.40 1.10 0 1.50 -0.40 0.40 -0.55 0.15 -0.55 -0.90z"/>
  <path d="M29.20 21.85 c-0.40 -1.10 -0.05 -1.50 1.05 -1.25 0.70 0.15 0.70 0.25 0.05 1.15 -0.70 0.95 -0.75 0.95 -1.10 0.10z"/>
  <path d="M8.80 16.40 c-0.80 -0.80 -1.20 -1.40 -0.95 -1.40 0.55 0 2.95 2.40 2.60 2.65 -0.10 0.05 -0.85 -0.50 -1.65 -1.25z"/>
  <path d="M24.70 16.15 c-0.20 -0.50 -0.40 -1.05 -0.40 -1.25 -0.05 -0.20 -0.50 -0.70 -1.05 -1.10 -0.85 -0.70 -0.90 -0.85 -0.25 -1.30 0.40 -0.25 1.35 -0.50 2.15 -0.50 1.15 0 1.35 -0.20 1.35 -1.50 0 -1.40 0.05 -1.45 1.15 -0.90 2.35 1.35 2.45 2.65 0.25 3.10 -2.30 0.45 -2.95 1.15 -2.35 2.60 0.55 1.55 0.55 1.70 0 1.70 -0.25 0 -0.60 -0.40 -0.85 -0.85z"/>
  <path d="M16.95 15.80 c0.75 -0.85 5.25 -1.15 5.75 -0.35 0.15 0.25 -0.65 0.40 -1.85 0.35 -1.15 0 -2.65 0.15 -3.35 0.40 -1.10 0.40 -1.15 0.35 -0.55 -0.40z"/>
  <path d="M26.50 15.50 c0 -0.70 2.45 -2.20 2.90 -1.80 0.20 0.20 -0.20 0.80 -0.90 1.30 -1.40 1.10 -2 1.25 -2 0.50z"/>
  <path d="M16 14.50 c0 -0.30 0.35 -0.65 0.75 -0.85 1.20 -0.45 1.35 0.05 0.25 0.75 -0.65 0.40 -1 0.40 -1 0.10z"/>
  <path d="M21.20 7.75 c0.15 -0.40 0 -0.75 -0.35 -0.75 -1.25 0 0.90 -1 2.20 -1 0.90 0 1.60 0.45 2.15 1.25 l0.80 1.25 -2.55 0 c-2.05 0 -2.50 -0.15 -2.25 -0.75z"/>
 </g>
 <g fill="#c9b271">
  <path d="M24.85 31.65 c-0.75 -0.75 -0.35 -2.15 0.65 -2.15 0.75 0 1 0.35 1 1.25 0 1.20 -0.90 1.70 -1.65 0.90z"/>
  <path d="M20 27.05 c0 -0.60 2.40 -1.35 2.85 -0.85 0.45 0.40 0.10 0.65 -1.50 1.05 -0.85 0.25 -1.35 0.15 -1.35 -0.20z"/>
  <path d="M25 26.75 c0 -0.45 0.45 -0.75 1.20 -0.75 0.65 0 1.55 -0.15 2 -0.30 1.35 -0.50 0.90 0.60 -0.45 1.20 -1.75 0.80 -2.75 0.75 -2.75 -0.15z"/>
  <path d="M24.80 23.50 c1.65 -1.65 2.20 -1.85 2.20 -0.70 0 0.50 0.30 0.65 0.95 0.45 0.60 -0.15 1.05 0 1.20 0.45 0.40 1.05 0.05 1.15 -3.10 1.25 l-2.70 0.05 1.45 -1.50z"/>
  <path d="M18.80 23.05 c-0.90 -0.95 -1.35 -1.85 -1.20 -2.60 0.15 -1.10 0.40 -1.20 2.65 -1.20 l2.50 0 0.15 2 c0.15 1.45 -0.05 2.15 -0.70 2.60 -1.30 0.95 -1.85 0.80 -3.40 -0.80z"/>
  <path d="M23.90 20.40 c-0.45 -0.25 -0.30 -0.40 0.45 -0.40 1.60 0 1.75 -0.65 0.70 -2.80 -0.50 -1.05 -0.85 -2.20 -0.70 -2.50 0.10 -0.35 -0.40 -0.75 -1.30 -0.95 -0.85 -0.20 -1.55 -0.65 -1.55 -1.05 0 -1 3.80 -0.95 4.15 0 0.15 0.40 0.05 0.80 -0.25 0.90 -0.35 0.15 -0.15 1.05 0.50 2.60 1.05 2.30 2.45 3 2.30 1.10 -0.10 -0.95 0.85 -1.05 1.70 -0.20 0.90 0.90 0.80 3.90 -0.15 3.90 -0.40 0 -0.75 -0.35 -0.75 -0.75 0 -0.80 -0.80 -1 -1.20 -0.30 -0.40 0.60 -3.15 0.95 -3.90 0.45z"/>
  <path d="M17.75 17.50 c1.10 -0.25 2.20 -0.20 2.50 0.05 0.25 0.25 -0.55 0.45 -2 0.40 l-2.50 -0.05 2 -0.40z"/>
  <path d="M17.20 15.75 c0.55 -0.40 1.10 -0.60 1.25 -0.45 0.30 0.30 -0.95 1.20 -1.70 1.20 -0.25 -0.05 -0.05 -0.35 0.45 -0.75z"/>
  <path d="M27.50 14.75 c0.65 -0.70 1.30 -1.15 1.40 -1 0.35 0.35 -1.45 2.25 -2.05 2.25 -0.30 0 0 -0.55 0.65 -1.25z"/>
  <path d="M16 14.65 c0 -0.20 1.35 -2.10 3 -4.15 1.65 -2.05 3 -3.90 3 -4.10 0 -0.90 1.65 -0.30 3.15 1.10 l1.60 1.50 -1.80 0 c-1.40 0 -2.05 0.30 -2.65 1.25 -0.45 0.70 -1.15 1.25 -1.55 1.25 -0.40 0 -0.75 0.45 -0.75 1 0 0.60 -0.35 1 -0.90 1 -0.50 0 -1.40 0.35 -2 0.80 -0.60 0.40 -1.10 0.60 -1.10 0.35z"/>
  <path d="M27.50 11.50 c0 -1.15 0.50 -1.30 1.40 -0.40 0.90 0.90 0.75 1.40 -0.40 1.40 -0.65 0 -1 -0.35 -1 -1z"/>
 </g>
 <g fill="#ecc769">
  <path d="M27 26.55 c0 -0.55 1.55 -1.20 1.95 -0.80 0.15 0.15 -0.05 0.50 -0.45 0.75 -0.95 0.60 -1.50 0.60 -1.50 0.05z"/>
  <path d="M27.65 23.50 c0.30 -0.80 0.75 -1.50 0.95 -1.50 0.20 0 0.40 -0.45 0.40 -1 0 -0.70 0.35 -1 1.05 -1 0.75 0 0.95 0.20 0.75 0.80 -0.15 0.45 -0.30 0.90 -0.30 1 0 0.10 -0.35 0.20 -0.80 0.20 -0.60 0 -0.75 0.35 -0.60 1.20 0.15 0.80 0 1.35 -0.45 1.50 -1.35 0.55 -1.55 0.30 -1 -1.20z"/>
  <path d="M27 18.95 c0 -0.25 0.30 -0.40 0.60 -0.30 0.35 0.05 0.70 -0.40 0.80 -1 0.20 -1.30 0.60 -1.45 1.50 -0.55 1.25 1.25 0.70 2.30 -1.15 2.30 -0.95 0 -1.75 -0.20 -1.75 -0.45z"/>
  <path d="M8.85 16.25 c-0.75 -0.70 -1.20 -1.25 -0.95 -1.25 0.25 0 0.95 0.55 1.60 1.25 1.50 1.60 1.15 1.60 -0.65 0z"/>
  <path d="M24.75 15.70 c-0.20 -1.20 -0.65 -1.90 -1.30 -2.05 -1.80 -0.50 -1.10 -1.65 1.05 -1.65 1.90 0 2 -0.05 2 -1.60 l0 -1.60 1.50 1.45 c1.70 1.60 1.55 1.85 -1.15 2.75 -2 0.65 -2.15 1.15 -1.10 3.65 0.20 0.45 0.15 0.85 -0.15 0.85 -0.25 0 -0.65 -0.80 -0.85 -1.80z"/>
  <path d="M17 16 c0 -0.35 1.20 -1 1.80 -1 0.65 0 0.05 0.95 -0.80 1.15 -0.55 0.15 -1 0.10 -1 -0.15z"/>
  <path d="M27.50 14.75 c0.65 -0.70 1.30 -1.15 1.40 -1 0.30 0.30 -1.65 2.25 -2.20 2.25 -0.20 0 0.15 -0.55 0.80 -1.25z"/>
  <path d="M21.80 8.05 c-0.45 -0.70 0.20 -2.05 1 -2.05 0.65 0 2.70 1.70 2.70 2.25 0 0.45 -3.45 0.25 -3.70 -0.20z"/>
 </g>
 <g fill="#d5c394">
  <path d="M24.85 31.15 c-0.80 -0.75 -0.30 -1.65 0.90 -1.65 0.90 0 1.25 0.25 1.25 1 0 1 -1.40 1.40 -2.15 0.65z"/>
  <path d="M28.50 30.05 c-0.35 -0.75 -0.35 -1.05 0 -1.05 0.60 0 1.25 1.40 0.85 1.80 -0.15 0.15 -0.50 -0.20 -0.85 -0.75z"/>
  <path d="M21.75 27.05 c-1.50 -0.40 -1.50 -0.40 -0.25 -0.70 0.70 -0.15 2.65 -0.40 4.40 -0.50 2.70 -0.15 3.05 -0.05 2.40 0.55 -0.80 0.85 -4.40 1.20 -6.55 0.65z"/>
  <path d="M23.50 24.80 c0 -0.10 0.55 -0.55 1.25 -1 1.20 -0.80 1.25 -0.80 1.25 0.20 0 0.75 -0.35 1 -1.25 1 -0.70 0 -1.25 -0.10 -1.25 -0.20z"/>
  <path d="M26.50 24.50 c0 -0.25 0.60 -0.50 1.30 -0.50 0.70 0 1.15 0.20 0.95 0.50 -0.15 0.30 -0.75 0.50 -1.30 0.50 -0.50 0 -0.95 -0.20 -0.95 -0.50z"/>
  <path d="M18.85 22.40 c-2 -2.25 -1.65 -3.10 1.40 -3.15 2.45 0 2.50 0 2.65 1.65 0.30 3.25 -1.85 4.05 -4.05 1.50z"/>
  <path d="M29.35 21.70 c-0.20 -0.20 -0.35 -0.90 -0.35 -1.55 0 -1.15 -0.05 -1.15 -1.10 -0.45 -1.65 1.15 -2.30 1 -2 -0.45 0.10 -0.75 0 -1.25 -0.35 -1.25 -0.30 0 -0.55 -0.60 -0.55 -1.35 l0.05 -1.40 0.80 1.50 c1.15 2.10 1.75 2.40 2.75 1.20 1.05 -1.25 1.70 -0.95 2.15 1.10 0.35 1.55 -0.65 3.40 -1.40 2.65z"/>
  <path d="M16.50 14.20 c0 -0.15 1.05 -1.60 2.40 -3.20 1.30 -1.55 2.60 -3.30 2.90 -3.80 0.45 -0.80 0.70 -0.80 2.05 -0.25 1.55 0.65 5.15 4.10 5.15 4.95 0 0.40 -3.25 1.60 -4.45 1.60 -0.30 0 -0.55 -0.45 -0.55 -1 0 -0.60 0.35 -1 0.85 -1 0.75 0 0.70 -0.15 -0.25 -1.10 -1 -1 -1.15 -1.05 -1.70 -0.30 -0.35 0.45 -1 0.90 -1.40 1.05 -0.50 0.20 -0.35 0.30 0.40 0.30 0.75 0.05 1.10 0.35 1.10 1.05 0 0.85 -0.35 1 -2.30 1 -1.25 0 -2.70 0.25 -3.25 0.50 -0.50 0.30 -0.95 0.40 -0.95 0.20z"/>
 </g>
 <g fill="#e8dfaa">
  <path d="M24.80 31.15 c-0.20 -0.45 -0.05 -1 0.30 -1.25 1.20 -0.70 1.90 -0.40 1.90 0.85 0 1.45 -1.70 1.80 -2.20 0.40z"/>
  <path d="M22 27 c-1.85 -0.40 -1.45 -0.55 1.65 -0.75 1.20 -0.05 1.80 0.10 1.70 0.45 -0.25 0.70 -1.15 0.80 -3.35 0.30z"/>
  <path d="M26 26.55 c0 -0.25 0.65 -0.55 1.50 -0.65 1.20 -0.20 1.35 -0.10 0.95 0.45 -0.65 0.75 -2.45 0.90 -2.45 0.20z"/>
  <path d="M25.05 23.55 c1.75 -1.75 1.95 -1.85 1.95 -0.80 0 0.40 0.25 0.75 0.50 0.75 0.30 0 0.50 -0.35 0.50 -0.75 0 -0.40 0.25 -0.75 0.55 -0.75 0.30 0 0.45 0.60 0.35 1.40 -0.15 1.25 -0.35 1.35 -2.75 1.50 l-2.60 0.15 1.50 -1.50z"/>
  <path d="M20.05 23.35 c-0.30 -0.30 -0.55 -0.85 -0.55 -1.20 0 -0.35 -0.30 -0.60 -0.60 -0.50 -0.35 0.05 -0.70 -0.40 -0.80 -1 -0.15 -0.95 0.05 -1.15 1.05 -1.15 0.70 0 1.55 -0.10 1.95 -0.25 1.30 -0.50 2.05 0.55 1.70 2.40 -0.35 1.85 -1.75 2.70 -2.75 1.70z"/>
  <path d="M29.35 21.65 c-0.20 -0.15 -0.35 -0.85 -0.35 -1.50 0 -1.15 -0.05 -1.15 -1.10 -0.45 -0.60 0.45 -1.80 0.75 -2.65 0.75 -1.15 -0.05 -1.25 -0.15 -0.35 -0.30 1.20 -0.25 1.50 -1.55 0.55 -2.50 -0.30 -0.30 -0.45 -0.85 -0.35 -1.25 0.15 -0.40 0.55 0 1.10 1 0.95 1.85 1.55 2 2.40 0.60 0.85 -1.35 1.15 -1.25 1.90 0.45 0.45 1.10 0.45 1.70 0 2.50 -0.60 1.15 -0.70 1.20 -1.15 0.70z"/>
  <path d="M16.50 14.20 c0 -0.25 1.20 -1.70 2.65 -3.25 1.40 -1.55 2.85 -3.25 3.15 -3.75 0.45 -0.80 0.65 -0.80 1.55 -0.15 1.75 1.20 5.15 4.45 5.15 4.85 0 0.70 -4.60 1.55 -7.85 1.50 -1.90 -0.05 -3.40 0.20 -3.90 0.60 -0.40 0.35 -0.75 0.45 -0.75 0.20z"/>
 </g>
 <g fill="#f6f4cd">
  <path d="M25.05 30.80 c-0.45 -0.55 -0.40 -0.75 0.25 -1 1.30 -0.50 1.70 -0.35 1.70 0.70 0 1.15 -1.10 1.35 -1.95 0.30z"/>
  <path d="M23 27 c-1.50 -0.50 -1.50 -0.50 2.25 -0.80 1.90 -0.20 2.80 -0.10 2.50 0.20 -0.75 0.70 -3.30 1 -4.75 0.60z"/>
  <path d="M25.25 23.70 c1.10 -1 1.50 -1.15 1.85 -0.60 0.35 0.50 0.55 0.50 0.75 0.05 0.35 -1 1.15 -0.75 1.15 0.30 0 1.10 -0.95 1.55 -3.35 1.55 l-1.80 0 1.40 -1.30z"/>
  <path d="M29.50 20.65 c0 -0.55 -0.20 -1.15 -0.50 -1.45 -0.60 -0.60 0.20 -1.95 0.95 -1.50 0.70 0.45 0.75 3.15 0.05 3.55 -0.25 0.15 -0.50 -0.10 -0.50 -0.60z"/>
  <path d="M21 20.25 c0 -0.40 0.35 -0.75 0.75 -0.75 0.40 0 0.75 0.35 0.75 0.75 0 0.40 -0.35 0.75 -0.75 0.75 -0.40 0 -0.75 -0.35 -0.75 -0.75z"/>
  <path d="M25.85 19.50 c0.30 -1.10 0.55 -1.20 1.60 -0.55 0.55 0.35 0.50 0.55 -0.35 1 -1.40 0.75 -1.55 0.70 -1.25 -0.45z"/>
  <path d="M18 12.45 c1.30 -1.75 2.95 -2.95 4.10 -2.95 0.55 0 0.90 -0.40 0.90 -1 0 -0.55 0.30 -1 0.65 -1 0.75 0 4.85 3.70 4.85 4.40 0 0.50 -1.60 1.10 -3.10 1.10 -1.25 0 -1.10 -0.85 0.15 -1.25 0.95 -0.30 1 -0.45 0.30 -1.15 -0.65 -0.60 -0.95 -0.65 -1.50 -0.15 -0.40 0.30 -0.95 0.55 -1.15 0.50 -1.25 -0.20 -2.70 0.10 -2.70 0.60 0 0.35 0.60 0.45 1.80 0.25 1.55 -0.30 1.75 -0.25 1.60 0.55 -0.15 0.70 -0.60 0.90 -1.90 0.80 -0.95 -0.05 -2.50 0.10 -3.40 0.35 l-1.60 0.40 1 -1.45z"/>
 </g>
</svg>