<?xml version="1.0" encoding="utf-8"?>
<!DOCTYPE svg PUBLIC "-//W3C//DTD SVG 1.0//EN" "http://www.w3.org/TR/2001/REC-SVG-20010904/DTD/svg10.dtd">
<svg version="1.0" xmlns="http://www.w3.org/2000/svg" width="40px" height="40px" viewBox="0 0 40 40" preserveAspectRatio="xMidYMid meet">
 <g fill="#090a0a">
  <path d="M16.50 28.50 l0 -2 3.25 0 3.25 0 0 2 0 2 -3.25 0 -3.25 0 0 -2z"/>
  <path d="M21 16.75 c0 -2.05 0.10 -2.25 1.20 -2.25 0.90 0 1.35 0.40 1.75 1.55 0.90 2.55 0.70 2.95 -1.20 2.95 -1.75 0 -1.75 0 -1.75 -2.25z"/>
  <path d="M17.60 10.15 c0.15 -1.75 0.30 -1.90 1.80 -2.05 1.55 -0.15 1.60 -0.10 1.60 1.85 0 2 -0.05 2.05 -1.80 2.05 -1.75 0 -1.75 -0.05 -1.60 -1.85z"/>
 </g>
 <g fill="#272627">
  <path d="M12.15 33.85 c1.75 -2.15 1.85 -2.40 1.15 -3.15 -1.20 -1.20 -0.95 -1.85 0.60 -1.60 1.20 0.15 1.55 -0.05 2.10 -1.30 1 -2.20 1.70 -2.80 3.45 -2.80 1.40 0 1.55 -0.15 1.55 -1.50 0 -1.40 0.15 -1.50 1.75 -1.50 1.30 0 1.65 -0.15 1.45 -0.75 -0.20 -0.45 -0.95 -0.75 -2 -0.75 -1.65 0 -1.70 -0.05 -1.70 -2 0 -1.45 0.20 -2 0.75 -2 0.45 0 0.75 -0.45 0.75 -1.25 0 -0.70 0.20 -1.25 0.45 -1.25 0.60 0 4.55 7.65 4.55 8.75 0 0.75 -1.75 1.05 -2.15 0.40 -0.10 -0.25 -0.10 -0.10 0 0.25 0.05 0.40 0.15 1.25 0.15 1.90 0 0.85 0.30 1.20 1 1.20 1.35 0 1.35 2.30 -0.05 3.80 l-1.05 1.10 1.95 1.80 c1.05 0.95 2.05 1.80 2.30 1.80 0.20 0 0.35 0.20 0.35 0.40 0 0.25 -1.35 0.20 -2.95 -0.10 -3.20 -0.60 -13.60 -0.25 -15.30 0.45 -0.70 0.30 -0.45 -0.25 0.90 -1.90z m10.85 -2.10 c0 -1.45 -1 -1.65 -3.20 -0.50 -0.75 0.40 -1.95 0.75 -2.60 0.75 -0.65 0 -1.20 0.25 -1.20 0.50 0 0.30 1.50 0.50 3.50 0.50 3.40 0 3.50 -0.05 3.50 -1.25z m2 -2.75 c0 -0.25 -0.35 -0.50 -0.75 -0.50 -0.40 0 -0.75 0.25 -0.75 0.50 0 0.30 0.35 0.50 0.75 0.50 0.40 0 0.75 -0.20 0.75 -0.50z m-3.50 -0.50 c0 -0.25 -0.80 -0.50 -1.75 -0.50 -0.95 0 -1.75 0.25 -1.75 0.50 0 0.30 0.80 0.50 1.75 0.50 0.95 0 1.75 -0.20 1.75 -0.50z"/>
  <path d="M11.80 26.75 c-0.35 -1.30 0.15 -5.35 0.70 -5.75 0.15 -0.15 1.05 -1.75 1.90 -3.60 1.55 -3.25 2.05 -5.65 1.15 -6 -0.20 -0.05 -0.60 -0.70 -0.80 -1.40 l-0.35 -1.25 1.25 1.15 1.25 1.15 0.55 -1.60 c0.80 -2.30 0.70 -2.95 -0.50 -2.95 -1.70 0 -2.95 -0.95 -2.95 -2.30 0 -1.05 0.20 -1.20 1 -0.95 0.70 0.25 1 0.10 1 -0.45 0 -1.10 0.85 -1 1.25 0.15 0.25 0.80 0.70 1 2.25 0.90 1.05 0 1.80 -0.25 1.70 -0.45 -0.40 -0.65 1.15 -1.05 2.55 -0.70 1.90 0.50 1.65 2.15 -0.50 3 -1 0.45 -2.10 0.65 -2.50 0.50 -0.45 -0.20 -0.75 0 -0.75 0.50 0 0.45 0.25 0.80 0.50 0.80 0.30 0 0.50 0.40 0.50 0.90 0 0.45 0.25 1.20 0.50 1.60 0.40 0.60 0.65 0.65 1.50 0.10 0.90 -0.55 1 -0.50 1 0.50 -0.05 1.45 -1.50 3.45 -1.85 2.55 -0.35 -1 -2 -0.75 -2.30 0.35 -0.15 0.60 -0.70 1 -1.30 1 -0.70 0 -1.05 0.30 -1.05 0.95 0 0.55 -0.35 1.30 -0.75 1.75 -0.40 0.40 -0.75 1.10 -0.75 1.50 0 0.45 -0.20 0.80 -0.50 0.80 -0.25 0 -0.50 0.45 -0.50 0.95 0 0.55 -0.25 1.05 -0.60 1.15 -0.30 0.10 -0.65 1.55 -0.80 3.30 -0.25 3.25 -1.20 4.25 -1.80 1.85z"/>
 </g>
 <g fill="#3c3a3a">
  <path d="M12.20 34.35 c0.05 -0.55 0.65 -1.40 1.25 -1.90 l1.05 -0.90 -1.25 -1.25 c-1.55 -1.55 -1.70 -3.30 -0.25 -3.30 0.65 0 1.10 0.45 1.30 1.25 0.25 1.05 0.40 1.10 1 0.50 0.40 -0.35 0.70 -1.05 0.70 -1.45 0 -0.45 0.20 -0.80 0.45 -0.80 0.25 0 0.65 -0.45 0.80 -1 0.25 -0.75 0.75 -1 2.05 -1 1.20 0 1.70 -0.25 1.70 -0.75 0 -0.40 -0.35 -0.75 -0.75 -0.75 -0.45 0 -0.75 -0.45 -0.75 -1.25 0 -0.90 -0.25 -1.25 -1 -1.25 -0.80 0 -1 -0.35 -1.05 -1.85 0 -1.05 -0.15 -1.60 -0.30 -1.25 -0.20 0.55 -2.65 0.90 -2.65 0.35 0 -0.10 0.40 -1 0.85 -2 0.70 -1.50 0.75 -2.05 0.25 -3.40 -0.90 -2.50 -0.80 -3.15 0.40 -2.10 0.95 0.85 1 0.85 1.40 -0.30 0.25 -0.65 0.60 -1.80 0.75 -2.50 0.30 -1.20 0.20 -1.30 -1.45 -1.30 -1.75 0 -2.70 -0.70 -2.70 -2 0 -0.35 0.45 -0.65 0.95 -0.65 0.50 0 1.10 -0.40 1.30 -0.85 0.30 -0.80 0.40 -0.80 0.75 0.15 0.60 1.50 4.50 1.95 4.50 0.60 0 -0.60 0.40 -0.90 1.05 -0.90 0.55 0 0.90 0.20 0.75 0.45 -0.15 0.25 0.10 0.40 0.55 0.35 1.80 -0.10 1.20 1.50 -0.85 2.40 -2 0.85 -2.05 0.95 -1.90 2.95 0.10 1.65 0.35 2.10 1.05 2.05 0.50 -0.05 0.85 0.25 0.85 0.85 0 0.55 -0.30 0.95 -0.60 0.95 -0.45 0 -0.45 0.15 -0.10 0.40 0.85 0.60 2.30 5.05 2.05 6.20 -0.15 0.60 -0.15 1.70 0 2.45 0.20 1.10 0.55 1.45 1.50 1.45 1.20 0 1.20 0.10 1.05 3.30 -0.10 2.85 -0.30 3.45 -1.40 4.30 -0.95 0.80 -1.05 1.10 -0.55 1.30 0.40 0.15 1.50 1 2.50 1.95 l1.80 1.70 -2 -0.30 c-1.10 -0.20 -2.05 -0.55 -2.15 -0.80 -0.10 -0.25 -0.50 -0.45 -0.90 -0.45 -0.40 0 -0.70 -0.20 -0.70 -0.50 0 -0.25 -0.20 -0.50 -0.50 -0.50 -0.25 0 -0.50 0.35 -0.50 0.75 0 0.60 -0.65 0.75 -2.85 0.80 -1.60 0 -3.95 0.20 -5.25 0.40 -2.20 0.35 -2.35 0.30 -2.20 -0.60z m10.25 -2.95 c-0.15 -2.85 -0.65 -3.65 -2.55 -3.70 -1.25 -0.05 -1.90 0.20 -2.10 0.75 -0.15 0.45 -0.45 1.10 -0.60 1.40 -0.20 0.45 0.15 0.40 1.15 -0.10 0.75 -0.40 1.85 -0.75 2.40 -0.70 0.55 0 0.70 0.15 0.40 0.30 -0.35 0.10 -0.65 0.90 -0.65 1.70 0 1.10 0.25 1.45 1 1.45 0.70 0 1 -0.30 0.95 -1.10z m0.80 -6.40 c-0.20 -0.85 -0.45 -1.45 -0.60 -1.30 -0.15 0.10 -0.10 0.95 0.10 1.80 0.20 0.85 0.45 1.45 0.60 1.30 0.15 -0.10 0.10 -0.95 -0.10 -1.80z"/>
  <path d="M12 23.10 c0 -1.35 0.75 -2.60 1.60 -2.60 0.20 0 0.40 0.90 0.40 2 0 1.65 -0.15 2 -1 2 -0.75 0 -1 -0.35 -1 -1.40z"/>
 </g>
 <g fill="#4b494a">
  <path d="M11.50 35 c0.40 -0.25 0.75 -0.70 0.75 -1 0 -0.30 0.70 -1.05 1.50 -1.75 1.15 -0.90 1.30 -1.20 0.65 -1.25 -1.50 0 -2.50 -2.75 -2.30 -6.20 0.10 -2.30 0.55 -3.75 1.70 -5.80 2.45 -4.45 2.80 -5.85 1.85 -7.30 -0.90 -1.45 -0.45 -2.30 0.50 -1 0.65 0.85 0.70 0.80 1.25 -0.50 0.30 -0.80 0.70 -2.10 0.90 -2.90 0.30 -1.30 0.25 -1.40 -0.75 -1.05 -0.70 0.20 -1.55 0.05 -2.30 -0.45 -1.55 -1 -1.70 -2.55 -0.25 -2.15 0.65 0.15 1 0 1 -0.45 0 -1 0.30 -0.90 2.10 0.95 1 1 1.45 1.25 1.25 0.65 -0.30 -0.75 -0.20 -0.85 0.90 -0.60 1 0.25 1.25 0.15 1.25 -0.70 0 -0.65 0.35 -1 1 -1 0.70 0 0.90 0.25 0.65 0.90 -0.30 0.70 -0.20 0.75 0.45 0.25 0.40 -0.35 0.90 -0.50 1.05 -0.30 0.80 0.75 0.20 1.55 -1.65 2.30 -1.95 0.75 -2 0.85 -2 3.05 0 2.60 0.55 2.90 2.40 1.20 l1.20 -1.15 -0.35 1.25 c-0.20 0.70 -0.70 1.85 -1.05 2.60 -0.60 1.20 -0.55 1.55 0.50 3.40 0.85 1.55 1.15 2.65 1 4.40 -0.05 1.30 -0.05 1.85 0.10 1.25 0.35 -1.45 1 -1.45 1.75 -0.05 0.80 1.45 0.25 7.65 -0.75 8.65 -0.40 0.40 -1 0.75 -1.35 0.75 -0.45 0 -0.40 0.20 0.05 0.75 0.35 0.40 0.80 0.75 1.05 0.75 0.20 0 1.15 0.70 2.05 1.55 l1.65 1.50 -1.75 -0.25 c-0.95 -0.15 -3.10 -0.50 -4.70 -0.80 -1.65 -0.25 -3.05 -0.50 -3.15 -0.50 -0.10 0 -0.15 -0.35 -0.15 -0.75 0 -0.50 0.50 -0.75 1.35 -0.75 l1.30 0 -1.05 -0.95 c-1.40 -1.15 -1.45 -2.55 -0.10 -2.55 1.30 0 1.30 -1 0.05 -1.35 -0.60 -0.15 -0.85 -0.55 -0.70 -0.95 0.45 -1.15 -1.05 -0.80 -1.85 0.45 -1.65 2.50 -1.95 3.35 -1.30 3.35 0.30 0 0.85 -0.25 1.20 -0.60 0.45 -0.45 0.60 -0.40 0.60 0.25 0 0.45 -0.20 0.85 -0.50 0.85 -0.25 0 -0.50 0.35 -0.50 0.75 0 0.40 0.25 0.75 0.50 0.75 0.30 0 0.50 0.35 0.50 0.75 0 0.45 -0.70 0.80 -1.85 1 -1.05 0.15 -2.70 0.50 -3.70 0.75 -2.30 0.60 -2.90 0.60 -1.95 0z m4.25 -2.10 c0.35 -0.35 0.10 -0.40 -0.75 -0.15 -0.70 0.20 -1.45 0.60 -1.75 0.85 -0.35 0.35 -0.10 0.40 0.75 0.15 0.70 -0.20 1.50 -0.60 1.75 -0.85z m7.55 -8.25 l-0.75 -2.40 0 2.15 c-0.05 1.15 0.25 2.55 0.60 3.10 0.95 1.60 1.05 0.05 0.15 -2.85z m-5.30 -0.90 c0 -1.30 1.45 -3.75 2.25 -3.75 0.40 0 0.75 -0.20 0.75 -0.50 0 -0.25 -0.35 -0.50 -0.80 -0.50 -0.55 0 -0.70 -0.25 -0.50 -0.80 0.15 -0.45 -0.50 -0.05 -1.45 0.85 -1.60 1.50 -1.75 1.95 -1.75 4.35 0 2.35 0.10 2.60 0.75 1.90 0.40 -0.40 0.75 -1.10 0.75 -1.55z m4.95 -7.25 c0 -0.75 -0.30 -0.25 -0.70 1.25 -0.85 3.10 -0.85 3.45 0 1.50 0.40 -0.80 0.70 -2.05 0.70 -2.75z m-4.50 -3.90 c1.15 -1.95 1.45 -2.90 1.10 -3.50 -0.40 -0.70 -0.55 -0.60 -0.85 0.65 -0.20 0.85 -0.65 1.95 -1 2.50 -0.65 1.05 -1.50 3.70 -1.05 3.25 0.15 -0.15 0.95 -1.45 1.80 -2.90z"/>
 </g>
 <g fill="#972423">
  <path d="M14.50 34 c0 -0.25 0.35 -0.50 0.75 -0.50 0.45 0 0.75 -0.45 0.75 -1.20 0 -1.50 3.50 -3.55 5.35 -3.05 0.80 0.20 1.10 0.10 0.90 -0.25 -0.15 -0.25 0.05 -0.50 0.45 -0.50 0.50 0 0.80 0.45 0.80 1.25 0 0.70 0.45 1.65 1 2.10 0.55 0.50 1 1.25 1 1.75 0 0.70 -0.40 0.90 -2 0.90 -1.45 0 -2 -0.20 -2 -0.75 0 -0.40 -0.15 -0.75 -0.35 -0.75 -0.25 0 -0.90 -0.15 -1.50 -0.30 -0.80 -0.25 -1.15 -0.10 -1.15 0.45 0 0.40 -0.65 0.85 -1.55 1.05 -2.10 0.40 -2.45 0.40 -2.45 -0.20z"/>
 </g>
 <g fill="#5a5556">
  <path d="M12.25 34.75 c0.55 -0.40 1.80 -1 2.85 -1.30 1.90 -0.50 2.45 -1.15 1.30 -1.60 -0.50 -0.20 -0.50 -0.35 0 -0.90 0.50 -0.55 0.80 -0.55 1.70 0 0.95 0.60 1 0.55 0.75 -0.40 -0.30 -1.15 1 -1.80 2.55 -1.35 0.80 0.25 0.90 0.10 0.75 -1.30 -0.20 -1.55 -0.15 -1.60 0.55 -0.65 1.45 1.85 1.90 2.30 2.15 2.05 0.15 -0.15 0.05 -0.55 -0.20 -0.90 -0.25 -0.35 -0.80 -1.95 -1.15 -3.50 -0.75 -3.40 -1.50 -3.80 -1.50 -0.85 0 1.85 -0.10 2 -0.80 1.40 -0.75 -0.60 -0.75 -1.50 0 -3.70 0.20 -0.55 -0.10 -0.20 -0.65 0.75 -0.55 0.95 -1 2.10 -1.05 2.55 0 0.40 -0.45 1.25 -1 1.85 -0.55 0.60 -1 1.30 -1 1.55 0 0.90 -1.55 2.05 -2.80 2.05 -1.10 0 -1.15 -0.15 -0.70 -1 0.60 -1.10 0.05 -1.35 -0.90 -0.40 -1.20 1.20 -0.65 -1.15 0.65 -2.70 0.80 -0.95 1.25 -2.10 1.25 -3.15 0 -2.05 -0.90 -2.75 -1.85 -1.50 -1.30 1.85 -0.60 -0.30 1.40 -4.25 l2.10 -4.05 -0.95 -1.70 c-0.50 -0.95 -0.75 -1.85 -0.60 -2 0.20 -0.20 0.65 0.30 1.05 1.05 l0.75 1.40 0.80 -2.70 c1.05 -3.50 1.05 -4.20 -0.05 -3.60 -0.55 0.30 -1.25 0.30 -1.95 0 -1.55 -0.70 -1.95 -1.90 -0.65 -1.90 0.55 0 1.10 -0.35 1.30 -0.80 0.20 -0.60 0.50 -0.40 1.20 0.75 0.90 1.50 2.45 2.10 2.45 1 0 -0.30 0.35 -0.45 0.75 -0.25 0.55 0.20 0.75 -0.05 0.75 -0.95 0 -0.75 0.30 -1.25 0.75 -1.25 0.45 0 0.60 0.30 0.45 0.75 -0.20 0.40 -0.05 0.75 0.25 0.75 1 0 0.55 1.45 -0.55 1.80 -0.65 0.25 -1.30 0.35 -1.45 0.30 -0.15 0 -0.20 1.05 -0.05 2.40 0.20 2.20 0.05 2.65 -1.40 4.50 -1.75 2.25 -1.80 2.60 -0.15 2 0.65 -0.25 1.20 -1.05 1.40 -2 0.25 -1.05 0.55 -1.50 1.05 -1.30 0.40 0.15 0.70 0.05 0.70 -0.25 0 -0.55 1.25 -1.95 1.70 -1.95 0.15 0 -0.10 0.80 -0.50 1.75 -0.95 2.35 -0.90 3.25 0.55 5.95 1.35 2.50 1.60 3.80 0.70 3.80 -0.30 0 -0.40 0.45 -0.15 1.15 0.20 0.60 0.30 2.05 0.25 3.20 -0.05 1.15 0.10 2.20 0.40 2.35 0.25 0.20 0.35 -0.50 0.20 -1.70 -0.30 -2.20 0.55 -2.80 1.05 -0.75 0.65 2.45 -0.60 5.25 -2.30 5.25 -0.55 0 -0.80 0.20 -0.60 0.55 0.15 0.30 0 0.75 -0.35 1 -0.35 0.20 -0.50 0.55 -0.30 0.80 0.25 0.20 0.60 0.05 0.85 -0.30 0.45 -0.75 1.20 -0.40 4 1.95 1.10 0.90 1.10 1.05 0.25 0.80 -0.55 -0.10 -2.05 -0.35 -3.35 -0.55 -1.95 -0.25 -2.40 -0.55 -2.85 -1.65 -0.45 -1.25 -0.45 -1.25 -0.50 -0.20 -0.05 0.95 -0.30 1.10 -2.15 1.10 -2 0 -3.90 0.35 -6.90 1.20 -1.20 0.35 -1.20 0.35 -0.25 -0.45z m6.05 -10.75 c0.40 0 0.70 -0.45 0.70 -1.05 0 -0.55 0.25 -1.45 0.50 -2 0.60 -1.05 0.50 -1.10 -0.70 -0.65 -0.45 0.20 -0.80 0.90 -0.80 1.70 0 0.80 -0.20 1.60 -0.50 1.75 -0.25 0.15 -0.45 0.70 -0.45 1.15 0.05 0.75 0.10 0.75 0.30 0 0.10 -0.50 0.55 -0.90 0.95 -0.90z m4.65 -7 c0 -1.65 -0.05 -1.60 -0.70 0.75 -0.90 3.15 -0.90 3.15 0 1.95 0.40 -0.50 0.70 -1.75 0.70 -2.70z m-6.45 0.40 c0 -0.90 -0.85 -0.35 -1.45 0.95 -0.65 1.40 -0.65 1.40 0.40 0.45 0.60 -0.55 1.05 -1.15 1.05 -1.40z m2.20 -5.10 c0.85 -1.60 1.20 -2.85 1 -3.65 -0.30 -1.10 -0.40 -1 -1.20 1.20 -0.45 1.30 -1.25 3.30 -1.70 4.40 -1.20 2.75 0.15 1.40 1.90 -1.95z"/>
 </g>
 <g fill="#666767">
  <path d="M12.25 34.70 c0.55 -0.40 1.95 -1 3.10 -1.30 1.85 -0.45 2.05 -0.65 1.65 -1.45 -0.35 -0.60 -0.30 -1 0.10 -1.25 0.30 -0.20 0.70 -0.10 0.80 0.20 0.35 1.05 1.50 0.65 1.70 -0.50 0.10 -0.65 0.55 -1.20 1.10 -1.30 0.70 -0.15 0.85 0 0.60 0.65 -0.40 1.10 0.20 2.10 0.70 1.25 0.25 -0.40 0.75 -0.50 1.30 -0.30 0.65 0.25 0.75 0.45 0.30 0.90 -0.35 0.35 -0.60 0.80 -0.60 1 0 0.60 1.40 0.50 1.60 -0.15 0.10 -0.30 1.20 0.30 2.40 1.35 1.25 1 1.80 1.70 1.25 1.50 -0.55 -0.20 -3.25 -0.60 -6 -0.90 -4.20 -0.45 -5.50 -0.40 -8 0.25 -2.50 0.65 -2.85 0.65 -2 0.05z"/>
  <path d="M14.10 29.50 c0.55 -0.85 0.55 -1.10 0 -1.45 -0.50 -0.30 -0.50 -0.65 0.10 -1.85 0.40 -0.80 1.10 -2.15 1.50 -3.05 0.70 -1.55 0.70 -1.60 -0.75 -1.90 -0.80 -0.20 -1.45 -0.55 -1.45 -0.80 0 -0.30 0.70 -2 1.55 -3.75 1.45 -2.95 1.50 -3.40 0.90 -4.60 -0.35 -0.75 -0.75 -1.50 -0.85 -1.70 -0.10 -0.25 0.05 -0.40 0.35 -0.40 0.25 0 0.65 0.45 0.80 1 0.50 1.50 1 0.85 1.70 -2.10 0.55 -2.60 2 -4.30 3.05 -3.65 0.45 0.30 0.70 -0.75 0.55 -2.10 -0.05 -0.35 0.25 -0.65 0.65 -0.65 0.50 0 0.65 0.30 0.50 0.75 -0.35 0.85 0.55 1.05 1.05 0.25 0.20 -0.30 0.55 -0.40 0.80 -0.25 0.95 0.65 0.35 1.55 -1.55 2.35 -1.10 0.45 -2 0.60 -2 0.35 0 -0.30 -0.25 -0.35 -0.50 -0.20 -0.35 0.20 -0.35 0.60 0 1.25 0.85 1.60 0.55 3.70 -0.80 5.25 -1.20 1.45 -1.25 1.45 -0.90 0.25 0.20 -0.70 0.55 -1.40 0.80 -1.55 0.50 -0.35 0.35 -4 -0.15 -3.65 -0.20 0.10 -0.55 0.95 -0.70 1.85 -0.20 0.85 -0.65 2.15 -1 2.85 -1.20 2.20 -3.25 7.10 -3.25 7.65 0 0.35 0.20 0.35 0.60 -0.05 0.35 -0.35 1 -0.60 1.50 -0.60 0.55 0 1.20 -0.60 1.50 -1.35 0.35 -0.80 1 -1.80 1.50 -2.30 0.55 -0.50 1.05 -1.60 1.25 -2.40 0.25 -1.45 1.10 -2.05 1.20 -0.80 0 0.30 0.25 0.05 0.50 -0.60 0.90 -2.25 1 -0.65 0.25 3.45 -0.80 4 -3.25 10.50 -4.60 12.05 -0.40 0.40 -0.70 1 -0.70 1.30 0 0.75 -1 1.45 -2.65 1.85 -1.30 0.30 -1.35 0.25 -0.75 -0.70z m6.40 -12.70 c0 -0.30 -0.35 -0.10 -0.75 0.40 -0.40 0.55 -0.75 1.25 -0.75 1.50 0 0.30 0.35 0.10 0.75 -0.40 0.40 -0.55 0.75 -1.25 0.75 -1.50z"/>
  <path d="M23.25 30.05 c-1.25 -0.25 -1.35 -0.40 -0.60 -0.70 0.85 -0.30 2.85 0.35 2.85 0.90 0 0.30 -0.15 0.25 -2.25 -0.20z"/>
  <path d="M24.80 28.40 c-0.35 -0.65 -0.95 -2.55 -1.35 -4.25 -0.65 -3.15 -1.45 -3.75 -1.45 -1.15 0 0.80 -0.20 1.60 -0.50 1.75 -0.75 0.45 -0.60 -1.20 0.35 -3.65 0.50 -1.40 1.05 -2.05 1.50 -1.90 0.75 0.30 0.90 -1 0.15 -1.45 -0.25 -0.15 -0.50 -0.90 -0.50 -1.65 0 -1.05 0.45 -0.40 2 2.60 2 3.95 2.25 5.40 1.70 8.95 -0.40 2.10 -0.90 2.35 -1.90 0.75z m1 -1.20 c-0.15 -0.45 -0.30 -1.40 -0.35 -2.10 0 -1.25 -0.05 -1.30 -0.45 -0.25 -0.50 1.20 -0.10 3.15 0.60 3.15 0.30 0 0.35 -0.35 0.20 -0.80z"/>
  <path d="M15.50 5.65 c-1.60 -0.60 -2.05 -2.40 -0.50 -1.90 0.70 0.20 1.10 0.05 1.30 -0.50 0.25 -0.65 0.45 -0.55 1 0.55 1 1.90 0.30 2.65 -1.80 1.85z"/>
 </g>
 <g fill="#946e63">
  <path d="M21.35 34.15 c-1.20 -0.15 -1.75 -0.40 -1.55 -0.75 0.25 -0.40 -0.05 -0.45 -0.85 -0.20 -2.75 0.85 -3.60 0.95 -3.25 0.35 0.20 -0.30 0.75 -0.55 1.20 -0.55 0.80 -0.05 0.80 -0.10 -0.05 -0.70 -0.75 -0.60 -0.75 -0.75 -0.10 -1.30 0.60 -0.50 0.90 -0.50 1.50 0 0.60 0.50 0.75 0.45 0.75 -0.40 0 -1 1.25 -1.85 2 -1.35 0.20 0.15 0.30 0.70 0.15 1.25 -0.30 1.05 0.60 1.45 0.95 0.40 0.10 -0.30 0.50 -0.40 0.80 -0.20 0.40 0.25 0.50 0.80 0.30 1.40 -0.25 0.90 -0.15 1 1 0.70 1.10 -0.25 1.30 -0.15 1.30 0.70 0 1.05 -0.10 1.05 -4.15 0.65z"/>
 </g>
 <g fill="#7b7c7d">
  <path d="M12.70 34.55 c0.15 -0.20 1.30 -0.70 2.55 -1.05 2 -0.55 3.10 -1.50 1.75 -1.50 -0.25 0 -0.50 -0.25 -0.50 -0.55 0 -0.35 0.50 -0.45 1.25 -0.25 1 0.25 1.25 0.15 1.25 -0.65 0 -0.50 0.35 -1.10 0.80 -1.25 1.15 -0.45 1.35 -0.40 1.05 0.35 -0.15 0.40 -0.05 1 0.15 1.35 0.35 0.55 0.55 0.55 1.20 0.05 0.85 -0.70 0.95 -0.50 0.80 1.35 -0.05 1.10 0.70 1.50 1.25 0.60 0.45 -0.75 0.95 -0.60 2.55 0.80 l1.45 1.30 -1.70 -0.30 c-0.95 -0.15 -2.95 -0.45 -4.40 -0.60 -1.45 -0.20 -2.50 -0.55 -2.35 -0.75 0.35 -0.65 -0.45 -0.55 -2.35 0.25 -2.20 0.85 -5.05 1.40 -4.75 0.85z"/>
  <path d="M14.50 29.05 c0 -0.25 0.35 -0.70 0.75 -1.05 0.45 -0.35 0.65 -1.05 0.45 -1.75 -0.20 -0.85 0 -1.20 0.80 -1.40 0.90 -0.25 1 -0.45 0.55 -1.25 -0.35 -0.65 -0.35 -1.10 0.05 -1.50 0.60 -0.60 0.35 -0.75 -2.20 -1.30 -0.80 -0.20 -1.40 -0.55 -1.40 -0.80 0 -0.25 0.35 -0.35 0.75 -0.20 1.35 0.55 3.20 -0.25 3.95 -1.70 l0.75 -1.35 0.05 1.25 c0.05 1.15 0.10 1.20 0.70 0.35 0.60 -0.80 0.70 -0.70 0.90 1.20 0.20 2.35 -1.20 5.80 -3.45 8.40 -1.30 1.50 -2.65 2.05 -2.65 1.10z"/>
  <path d="M25.85 26.25 c-0.65 -3 -0.70 -3.10 -1.20 -1.80 -0.50 1.25 -0.50 1.25 -1.05 -0.45 -0.75 -2.10 -0.75 -3.65 -0.05 -4.35 0.45 -0.45 0.45 -1 0 -2.20 -0.90 -2.65 -0.35 -2.15 1.40 1.25 1.40 2.75 1.60 3.55 1.45 6.35 -0.15 3.10 -0.15 3.15 -0.55 1.20z"/>
  <path d="M21.25 17.30 c-1.10 -1.15 -1.20 -1.65 -0.50 -3.60 0.45 -1.25 0.75 -1.60 0.75 -0.95 0.05 0.75 0.25 0.65 0.80 -0.60 0.80 -1.90 1.90 -2.80 1.25 -1.05 -0.25 0.65 -0.60 2.35 -0.80 3.75 -0.35 2.85 -0.70 3.35 -1.50 2.45z"/>
  <path d="M15.35 10.95 c-0.20 -0.80 -0.15 -0.90 0.45 -0.40 0.80 0.65 0.95 1.45 0.25 1.45 -0.25 0 -0.55 -0.45 -0.70 -1.05z"/>
  <path d="M17.75 10.25 c0.40 -2.25 1.30 -4.25 1.90 -4.25 0.35 0 0.35 0.20 -0.05 0.60 -0.35 0.35 -0.60 0.95 -0.60 1.40 -0.05 0.40 -0.35 1.45 -0.80 2.25 l-0.70 1.50 0.25 -1.50z"/>
  <path d="M20 8.70 c0 -1.05 0.20 -1.65 0.50 -1.45 0.30 0.15 0.50 0.95 0.50 1.80 0 0.80 -0.20 1.45 -0.50 1.45 -0.25 0 -0.50 -0.80 -0.50 -1.80z"/>
  <path d="M15.65 5.40 c-1.80 -0.85 -1.80 -1.80 0 -1.65 1.20 0.10 1.65 0.40 1.75 1.20 0.20 1.15 -0.10 1.25 -1.75 0.45z"/>
  <path d="M21.35 5 c0.15 -0.55 0.70 -1 1.20 -1 0.50 0 1.05 -0.25 1.20 -0.50 0.35 -0.60 1.25 -0.20 1.25 0.55 0 0.40 -2.90 1.95 -3.70 1.95 -0.10 0 -0.10 -0.45 0.05 -1z"/>
 </g>
 <g fill="#8b8b8a">
  <path d="M24.15 34.40 c-1.95 -0.35 -2.65 -0.70 -2.65 -1.30 0 -0.65 -0.10 -0.70 -0.45 -0.15 -0.30 0.45 -0.55 0.50 -0.75 0.10 -0.25 -0.35 -1.15 -0.20 -2.90 0.50 -1.40 0.55 -2.90 0.90 -3.35 0.80 -0.45 -0.10 0.30 -0.50 1.65 -0.85 2.20 -0.60 2.35 -0.70 1.55 -1.30 -1.20 -0.90 -0.50 -1.60 0.75 -0.80 0.90 0.55 1 0.45 1 -0.65 0 -0.95 0.25 -1.25 1.10 -1.25 0.60 0 0.90 0.15 0.75 0.30 -0.15 0.20 -0.05 0.80 0.25 1.35 0.45 0.90 0.55 0.95 1 0.15 0.65 -1.20 1.30 -0.55 1 1 -0.20 1.25 -0.15 1.30 1.25 1 1.10 -0.25 1.70 -0.10 2.40 0.70 0.50 0.55 0.70 0.95 0.45 0.95 -0.25 -0.05 -1.65 -0.30 -3.05 -0.55z"/>
  <path d="M15 28.85 c0 -0.45 0.25 -0.85 0.50 -0.85 0.30 0 0.50 -0.65 0.50 -1.50 0 -1.15 0.25 -1.50 0.95 -1.50 0.50 0 1.05 -0.45 1.20 -1 0.15 -0.60 0.05 -0.90 -0.25 -0.70 -0.30 0.20 -0.40 -0.10 -0.30 -0.60 0.10 -0.55 -0.15 -1.20 -0.55 -1.50 -0.65 -0.50 -0.55 -0.80 0.60 -2.20 1.40 -1.65 1.70 -1.45 0.85 0.70 -0.70 1.95 -0.25 1.55 1 -0.75 0.55 -1.15 0.95 -2.40 0.80 -2.75 -0.15 -0.35 0.20 -1.20 0.75 -1.80 0.50 -0.65 1.30 -1.60 1.70 -2.15 0.70 -0.95 0.75 -0.95 0.30 0.25 -0.55 1.55 -0.55 1.65 -0.55 3.50 0 1.15 -0.20 1.50 -1 1.50 -1.05 0 -1.45 1.65 -0.50 2.25 0.70 0.45 -2.60 6.70 -4.45 8.45 -1.20 1.15 -1.55 1.30 -1.55 0.65z"/>
  <path d="M23.55 23.05 c-0.50 -1.75 -0.50 -2.45 0 -3.35 0.30 -0.60 0.45 -1.50 0.25 -1.95 -0.60 -1.65 0.50 -0.25 1.65 2 0.85 1.65 1.05 2.65 0.75 3.65 -0.30 1.15 -0.40 1.20 -0.55 0.35 -0.45 -2.25 -0.85 -2.45 -1.15 -0.50 l-0.30 2 -0.65 -2.20z"/>
  <path d="M17.80 9.75 c0.20 -0.80 0.50 -1.85 0.75 -2.25 0.35 -0.60 0.40 -0.55 0.40 0.25 0 0.55 -0.30 1.55 -0.70 2.25 l-0.75 1.25 0.30 -1.50z"/>
  <path d="M20.05 8.40 c0 -1.40 0.10 -1.50 0.45 -0.65 0.60 1.40 0.60 2.25 0 2.25 -0.25 0 -0.50 -0.75 -0.45 -1.60z"/>
  <path d="M16.10 5.40 c-0.90 -0.90 -0.70 -1.40 0.40 -1.40 0.55 0 1 0.30 1 0.70 0 1.05 -0.75 1.35 -1.40 0.70z"/>
  <path d="M21.50 5.20 c0 -0.65 1.85 -1.70 3.05 -1.70 1.05 0 0.10 1.10 -1.45 1.80 -1.40 0.55 -1.60 0.55 -1.60 -0.10z"/>
 </g>
 <g fill="#969b9a">
  <path d="M14.25 34 c0.55 -0.25 1.45 -0.45 2 -0.45 l1 0 -1 0.45 c-0.55 0.25 -1.45 0.45 -2 0.45 l-1 0 1 -0.45z"/>
  <path d="M23.30 34.05 c-0.50 -0.75 2.35 -1 3.05 -0.25 0.60 0.60 0.45 0.70 -1.05 0.70 -0.95 0 -1.85 -0.20 -2 -0.45z"/>
  <path d="M21.80 33.05 c-0.45 -0.70 0.20 -2.05 0.95 -2.05 0.40 0 0.55 0.40 0.40 1 -0.30 1.20 -0.95 1.70 -1.35 1.05z"/>
  <path d="M18 32.50 c0 -0.25 -0.35 -0.50 -0.75 -0.50 -0.40 0 -0.75 -0.20 -0.75 -0.50 0 -0.70 1.15 -0.65 1.90 0.10 0.45 0.45 0.60 0.35 0.60 -0.50 0 -1.35 1.30 -1.45 2 -0.15 0.55 1.10 0.40 1.25 -1.60 1.75 -0.85 0.20 -1.40 0.10 -1.40 -0.20z"/>
  <path d="M15.80 27.75 c0.40 -0.65 0.60 -1.50 0.40 -1.80 -0.25 -0.45 -0.10 -0.50 0.50 -0.30 0.50 0.20 1 0.35 1.10 0.35 0.15 0 -0.20 0.70 -0.80 1.50 -1.30 1.80 -2.35 2.05 -1.20 0.25z"/>
  <path d="M25.80 24.25 c-0.60 -3 -0.95 -3.70 -1.15 -2.35 -0.15 0.60 -0.40 1.10 -0.65 1.10 -0.75 0 -0.95 -2.15 -0.20 -3.25 0.40 -0.60 0.55 -1.25 0.35 -1.40 -0.15 -0.20 -0.15 -0.35 0 -0.35 0.85 0 2.40 4.20 2.25 6.15 l-0.20 2.10 -0.40 -2z"/>
  <path d="M18.50 24.60 c0.40 -0.85 0.40 -1.35 0 -1.85 -0.40 -0.50 0.05 -1.90 1.90 -5.85 1.35 -2.80 2.60 -5.50 2.80 -5.90 0.15 -0.40 0.15 -0.20 0 0.50 -0.15 0.70 -0.50 2.60 -0.70 4.25 -0.25 1.65 -0.65 3.05 -0.95 3.15 -0.30 0.10 -0.45 0.40 -0.30 0.65 0.30 0.45 -1.20 3.60 -2.50 5.20 -0.80 0.95 -0.80 0.95 -0.25 -0.15z"/>
  <path d="M16.50 20.60 c0 -0.25 0.55 -0.95 1.25 -1.60 1.40 -1.30 1.55 -1.15 0.65 0.75 -0.50 1.15 -1.90 1.80 -1.90 0.85z"/>
  <path d="M20 8.25 c0 -0.70 0.10 -1.25 0.20 -1.25 0.10 0 0.30 0.55 0.40 1.25 0.15 0.70 0.05 1.25 -0.15 1.25 -0.25 0 -0.45 -0.55 -0.45 -1.25z"/>
  <path d="M16.05 5.05 c-0.45 -0.30 -0.50 -0.55 -0.10 -0.75 0.65 -0.40 1.55 0.05 1.55 0.75 0 0.55 -0.55 0.55 -1.45 0z"/>
  <path d="M21.60 4.90 c0.25 -0.75 2.80 -1.45 3.20 -0.85 0.15 0.25 -0.35 0.70 -1.05 0.95 -1.75 0.65 -2.40 0.65 -2.15 -0.10z"/>
 </g>
 <g fill="#adabac">
  <path d="M21.80 33.05 c-0.40 -0.60 0.15 -2.05 0.75 -2.05 0.60 0 0.60 1.85 0 2.25 -0.25 0.15 -0.60 0.05 -0.75 -0.20z"/>
  <path d="M18.40 32.20 c0.30 -0.50 0.65 -1.35 0.80 -1.80 0.45 -1.45 1.60 -1.05 1.70 0.60 0.10 1 -0.10 1.50 -0.60 1.50 -0.40 0 -1.10 0.15 -1.55 0.30 -0.70 0.30 -0.75 0.20 -0.35 -0.60z"/>
  <path d="M25.75 24.50 c-0.45 -2.95 -0.60 -3.25 -1.60 -3.10 -1.40 0.20 -1.45 -0.15 -0.20 -1.70 l0.95 -1.20 0.85 2.15 c0.45 1.25 0.75 3.15 0.65 4.65 l-0.15 2.45 -0.50 -3.25z"/>
  <path d="M18.65 22.70 c-0.55 -1.15 -0.50 -1.20 0.40 -0.95 0.90 0.30 0.95 0.20 0.45 -0.60 -0.45 -0.75 -0.25 -1.60 1.25 -4.65 l1.80 -3.75 -0.25 2.80 c-0.10 1.60 -0.80 4.10 -1.55 5.65 -0.70 1.55 -1.35 2.80 -1.40 2.80 -0.05 0 -0.35 -0.60 -0.70 -1.30z"/>
  <path d="M16.80 20.55 c-0.15 -0.20 0.15 -0.80 0.70 -1.30 1 -0.90 1.25 -0.55 0.70 0.95 -0.35 0.90 -1 1.05 -1.40 0.35z"/>
  <path d="M21.75 4.95 c-0.15 -0.20 -0.05 -0.50 0.25 -0.70 0.25 -0.15 0.50 -0.20 0.50 0 0 0.15 0.45 0.05 1 -0.25 0.80 -0.40 1 -0.40 1 0.15 0 0.80 -2.35 1.45 -2.75 0.80z"/>
 </g>
 <g fill="#ebc57d">
  <path d="M22 32.05 c0 -0.60 0.25 -1.05 0.50 -1.05 0.30 0 0.50 0.30 0.50 0.70 0 0.40 -0.20 0.90 -0.50 1.05 -0.25 0.15 -0.50 -0.15 -0.50 -0.70z"/>
  <path d="M16.50 31.50 c0 -0.25 0.35 -0.50 0.75 -0.50 0.40 0 0.75 0.25 0.75 0.50 0 0.30 -0.35 0.50 -0.75 0.50 -0.40 0 -0.75 -0.20 -0.75 -0.50z"/>
 </g>
 <g fill="#c5c5c5">
  <path d="M18.90 32.15 c0.30 -0.10 0.60 -0.80 0.60 -1.45 0 -1.50 0.80 -1.55 1.20 -0.05 0.45 1.75 0.40 1.85 -1.05 1.80 -0.80 0 -1.10 -0.15 -0.75 -0.30z"/>
  <path d="M26.10 25.50 c0 -0.95 0.10 -1.35 0.25 -0.85 0.10 0.45 0.10 1.25 0 1.75 -0.15 0.45 -0.25 0.05 -0.25 -0.90z"/>
  <path d="M25.35 21.35 c-0.20 -0.50 -0.60 -0.70 -1.10 -0.55 -0.95 0.40 -0.95 -0.15 0 -1.10 0.60 -0.65 0.75 -0.60 1.25 0.30 0.30 0.60 0.50 1.30 0.35 1.65 -0.10 0.30 -0.30 0.20 -0.50 -0.30z"/>
  <path d="M19.55 21.05 c-0.60 -0.40 -0.45 -1.10 1.10 -4.15 l1.85 -3.65 -0.30 2.75 c-0.20 1.50 -0.65 3.35 -1 4.15 -0.80 1.55 -0.70 1.50 -1.65 0.90z"/>
  <path d="M17 20.65 c0 -0.25 0.35 -0.85 0.75 -1.35 0.75 -1 1 -0.50 0.45 0.90 -0.30 0.80 -1.20 1.10 -1.20 0.45z"/>
  <path d="M22.50 4.65 c0.40 -0.15 1.05 -0.50 1.40 -0.80 0.40 -0.35 0.60 -0.25 0.60 0.35 0 0.55 -0.40 0.80 -1.35 0.75 -0.80 0 -1.10 -0.15 -0.65 -0.30z"/>
 </g>
 <g fill="#dae0e0">
  <path d="M19.50 31.30 c0 -0.70 0.25 -1.40 0.50 -1.55 0.30 -0.15 0.50 -0.15 0.50 0.10 0 0.20 0.15 0.90 0.30 1.55 0.25 0.80 0.10 1.10 -0.50 1.10 -0.50 0 -0.80 -0.45 -0.80 -1.20z"/>
  <path d="M19.10 20.15 c0.25 -1.30 1.90 -1.45 1.90 -0.20 0 0.75 -0.30 1.05 -1.05 1.05 -0.70 0 -0.95 -0.25 -0.85 -0.85z"/>
 </g>
 <g fill="#f5f8f7">
  <path d="M19.70 31.80 c-0.40 -1.10 0.15 -1.65 0.90 -0.90 0.45 0.45 0.45 0.75 0 1.20 -0.45 0.45 -0.65 0.35 -0.90 -0.30z"/>
  <path d="M19.30 20.55 c-0.15 -0.20 0.50 -1.85 1.50 -3.60 1.70 -3.15 1.70 -3.15 1.40 -1.20 -0.50 3.25 -1.25 5.25 -1.95 5.25 -0.40 0 -0.80 -0.20 -0.95 -0.45z"/>
 </g>
</svg>