<?xml version="1.0" encoding="utf-8"?>
<!DOCTYPE svg PUBLIC "-//W3C//DTD SVG 1.0//EN" "http://www.w3.org/TR/2001/REC-SVG-20010904/DTD/svg10.dtd">
<svg version="1.0" xmlns="http://www.w3.org/2000/svg" width="40px" height="40px" viewBox="0 0 40 40" preserveAspectRatio="xMidYMid meet">
 <g fill="#100907">
  <path d="M22.65 39 c-0.30 -1.20 -2.45 -1.90 -3.30 -1.05 -0.30 0.30 -1.30 0.55 -2.20 0.55 -1.55 0 -1.65 -0.10 -1.65 -1.70 0 -2.20 1.40 -3.15 5.30 -3.55 2.85 -0.35 3 -0.30 3.65 0.90 1.05 1.95 1.90 2 3 0.15 1.35 -2.15 1.35 -2.30 -0.45 -2.30 -1.40 0 -1.50 -0.15 -1.50 -1.75 0 -0.95 0.25 -1.75 0.50 -1.75 0.30 0 0.50 -0.90 0.50 -2 0 -1.80 0.15 -2 1.25 -2 1.10 0 1.25 -0.20 1.25 -1.75 0 -1.40 0.20 -1.75 0.95 -1.75 0.65 0 1 -0.50 1.20 -1.85 0.20 -1 0.25 -1.90 0.20 -2 -0.10 -0.05 -1.80 -0.30 -3.75 -0.45 l-3.60 -0.35 0 -1.55 c0 -2.40 0.60 -2.95 2.95 -2.70 l2.05 0.20 0 -2.20 c0 -2.35 -0.95 -4.55 -2.75 -6.50 l-1.20 -1.25 -3.40 1.05 c-1.90 0.60 -3.80 1.10 -4.30 1.10 -0.45 0 -0.85 0.20 -0.85 0.50 0 0.25 -0.95 1 -2.10 1.60 l-2.15 1.15 1.90 0.15 c1.75 0.15 1.85 0.25 1.85 1.85 0 1.70 -0.55 2.15 -2.65 2.35 -0.60 0.05 0.60 0.20 2.65 0.35 l3.75 0.30 0.15 1.90 c0.15 1.80 0.15 1.85 -1.60 1.85 -1 0 -1.80 0.25 -1.80 0.50 0 0.30 -1.50 0.50 -3.45 0.50 -3.05 0 -3.60 -0.15 -4.25 -1.10 l-0.80 -1.10 0 1.35 c0 2.35 -1.35 1.60 -2 -1.15 -0.50 -2.15 -0.50 -2.70 0.20 -3.75 0.55 -0.80 1.10 -1.10 1.70 -0.95 0.80 0.25 0.80 0.25 0 -0.45 -1.25 -1 -1.10 -2.70 0.40 -5.75 1.60 -3.25 5.20 -6 5.20 -4 0 0.45 0.15 0.45 0.60 0 0.40 -0.40 2.95 -0.60 8.05 -0.60 l7.50 0 1.15 1.40 c0.65 0.75 1.20 1.75 1.20 2.25 0 0.50 0.35 1.45 0.85 2.15 1.90 2.90 1.20 13.40 -1.10 15.85 -0.85 0.90 -1 1.75 -1 4.95 0.05 2.10 0.15 4 0.30 4.15 0.15 0.15 1.60 0.50 3.25 0.85 3.15 0.60 5.70 2 5.70 3.20 0 0.95 -1.75 0.90 -3.25 -0.10 -1.25 -0.80 -1.25 -0.80 -1.25 1 0 1 -0.20 1.80 -0.50 1.80 -0.25 0 -0.50 0.55 -0.50 1.25 0 1.15 -0.20 1.25 -2 1.25 -1.50 0 -2 -0.20 -2 -0.80 0 -0.70 -0.10 -0.70 -1.10 0 -0.70 0.50 -2.20 0.80 -3.80 0.80 -2.30 0 -2.75 -0.15 -2.95 -1z"/>
  <path d="M9.25 38 c-0.15 -0.25 -1.10 -0.50 -2.05 -0.50 -1.50 0 -1.70 -0.15 -1.70 -1.25 0 -1.45 -0.30 -1.55 -1.30 -0.50 -0.85 0.85 -4.20 1.05 -4.20 0.25 0 -0.70 7.20 -4 8.75 -4 1.40 0 1.40 0 0.80 -1.65 -0.70 -1.75 -0.10 -2.05 1.35 -0.75 1.15 1.05 1.25 1.05 0.85 0.15 -0.20 -0.55 -0.50 -2.20 -0.65 -3.65 -0.20 -2.20 -0.45 -2.75 -1.40 -3.10 -0.95 -0.40 -2.70 -2.75 -2.70 -3.75 0 -0.15 0.55 -0.25 1.25 -0.25 0.90 0 1.30 0.35 1.55 1.25 0.20 0.90 0.65 1.25 1.45 1.25 1.30 0 1.45 0.45 2 5.60 0.35 3.20 0 4.90 -0.95 4.90 -0.75 0 -0.50 2.30 0.25 2.80 0.25 0.15 0.45 1.05 0.45 2 0 1.60 -0.10 1.70 -1.70 1.70 -0.95 0 -1.90 -0.20 -2.05 -0.50z"/>
  <path d="M24.15 11.15 c-0.35 -0.10 -0.65 -1 -0.65 -1.95 0 -1.50 0.15 -1.70 1.40 -1.70 2.85 0 3.60 0.50 3.60 2.30 0 1.65 -0.05 1.70 -1.85 1.65 -1.05 0 -2.20 -0.15 -2.50 -0.30z"/>
 </g>
 <g fill="#12090f">
  <path d="M25.20 38.45 c0.10 -0.85 0.50 -1.75 0.85 -2 0.40 -0.25 0.95 -0.65 1.20 -0.85 0.70 -0.50 1.80 -3.70 1.40 -4.05 -0.15 -0.15 -0.40 0 -0.50 0.35 -0.15 0.30 -1 0.60 -1.90 0.60 -1.50 0 -1.65 0.15 -1.95 1.75 -0.35 1.80 -1.10 2.30 -1.60 1.05 -0.15 -0.40 -0.60 -0.60 -1 -0.45 -0.40 0.15 -0.55 0.45 -0.40 0.70 0.15 0.25 0 0.45 -0.25 0.45 -0.30 0 -0.55 -1.05 -0.55 -2.50 0 -1.35 0.25 -2.50 0.50 -2.50 0.30 0 0.50 -0.65 0.50 -1.50 0 -1.15 0.25 -1.55 1.25 -1.80 0.70 -0.15 1.85 -0.20 2.50 -0.10 1.10 0.25 1.25 0.10 1.25 -1.15 0 -1.30 0.15 -1.45 1.75 -1.45 1.75 0 1.75 0 1.75 2.30 0 2.40 1.25 4.20 2.85 4.20 0.35 0 0.65 0.25 0.65 0.50 0 0.30 0.80 0.50 1.75 0.50 1.95 0 2 0.15 1.45 4.20 -0.20 1.45 -0.60 2.30 -1 2.30 -0.40 0 -0.70 0.20 -0.70 0.50 0 0.30 -1.80 0.45 -4.30 0.45 -3.75 -0.05 -4.25 -0.15 -4 -0.85 0.25 -0.75 0.20 -0.75 -0.40 0.05 -0.95 1.25 -1.30 1.05 -1.10 -0.70z m4.20 -2.70 c-0.15 -0.15 -0.65 0.35 -1.15 1.10 l-0.85 1.40 1.15 -1.10 c0.60 -0.60 1 -1.25 0.85 -1.40z"/>
  <path d="M0.10 36.20 c0.10 -0.45 0.65 -1 1.30 -1.25 0.95 -0.35 1.10 -0.25 1.10 0.80 0 1 -0.25 1.25 -1.30 1.25 -0.90 0 -1.25 -0.25 -1.10 -0.80z"/>
  <path d="M8 35 c0 -0.55 -0.35 -1 -0.75 -1 -0.40 0 -0.75 -0.30 -0.75 -0.70 0 -0.75 2.25 -1.50 3 -1.05 0.30 0.20 0.50 -0.50 0.50 -1.60 0.05 -1.70 0.10 -1.80 0.70 -1 0.80 1.05 1.30 1.10 1.30 0.10 0 -0.40 0.35 -0.75 0.75 -0.75 0.50 0 0.75 0.55 0.75 1.75 0 1.40 -0.20 1.75 -1 1.75 -0.80 0 -1 0.35 -1 1.75 0 1.65 -0.10 1.75 -1.75 1.75 -1.40 0 -1.75 -0.20 -1.75 -1z"/>
  <path d="M16.50 31.75 c0 -1.65 0.10 -1.75 1.75 -1.75 1.65 0 1.75 0.10 1.75 1.75 0 1.65 -0.10 1.75 -1.75 1.75 -1.65 0 -1.75 -0.10 -1.75 -1.75z"/>
  <path d="M18.50 21.55 l0 -2.05 2.05 0 2 0 -0.15 1.90 c-0.15 1.75 -0.25 1.85 -2 2 l-1.90 0.15 0 -2z"/>
  <path d="M10 16.20 c0 -1.05 0.15 -1.20 0.70 -0.75 0.55 0.45 0.60 0.30 0.40 -0.70 -0.20 -1.10 -0.05 -1.25 1.10 -1.25 0.80 0 1.30 -0.25 1.30 -0.75 0 -0.55 0.60 -0.75 2.25 -0.75 1.65 0 2.25 0.20 2.25 0.75 0 0.45 0.50 0.75 1.30 0.75 1.15 0 1.25 0.15 1.10 1.90 -0.15 1.70 -0.30 1.85 -1.85 2 -1.75 0.20 -3.55 -1.15 -3.55 -2.65 0 -1.45 -0.90 -0.75 -1.20 1 -0.30 1.60 -0.50 1.75 -2.05 1.75 -1.55 0 -1.75 -0.15 -1.75 -1.30z"/>
  <path d="M21 14.40 l0 -2 2.25 0.20 c1.25 0.10 2.25 0 2.25 -0.20 0 -0.25 1.15 -0.40 2.50 -0.40 1.65 0 2.50 0.20 2.50 0.65 0 1.45 -0.65 2.85 -1.30 2.85 -0.40 0 -0.70 0.20 -0.70 0.45 0 0.30 -1.70 0.50 -3.75 0.50 l-3.75 0 0 -2.05z m5.90 -0.30 c0.30 -0.90 -0.75 -0.70 -1.10 0.20 -0.20 0.50 -0.05 0.70 0.30 0.60 0.30 -0.10 0.70 -0.50 0.80 -0.80z"/>
  <path d="M31 14.80 c0 -0.40 0.25 -0.90 0.50 -1.05 0.30 -0.15 0.50 0.15 0.50 0.70 0 0.60 -0.20 1.05 -0.50 1.05 -0.25 0 -0.50 -0.30 -0.50 -0.70z"/>
  <path d="M13.05 10.90 c0.25 -1.90 -0.05 -2.20 -2.05 -2 l-2 0.20 0 -2.25 c0 -2.45 0.45 -2.85 3.05 -2.85 1.35 0 1.45 -0.15 1.45 -1.75 0 -1.65 0.10 -1.75 1.75 -1.75 2.10 0 2.20 0.50 0.40 1.60 -0.80 0.50 -1.15 0.90 -0.80 0.90 0.30 0 0.75 -0.20 0.90 -0.50 0.55 -0.85 1.25 -0.55 1.25 0.55 0 0.90 -0.20 1.05 -1.40 0.80 -0.90 -0.20 -1.75 0.05 -2.60 0.70 -0.75 0.55 -0.90 0.85 -0.35 0.65 0.65 -0.25 0.85 -0.05 0.85 1 0 1.15 0.20 1.30 1.80 1.30 1.75 0 1.75 0.05 1.60 1.90 -0.15 1.75 -0.25 1.85 -2.05 2 -1.35 0.10 -1.90 -0.05 -1.80 -0.50z"/>
  <path d="M32.65 8.30 c-0.30 -1 -0.35 -1.80 -0.10 -1.80 0.50 0 1.15 2.20 0.85 3.05 -0.10 0.30 -0.45 -0.25 -0.75 -1.25z"/>
  <path d="M27 3.15 l0 -1.90 1.25 1.45 c1.55 1.85 1.55 2.30 0 2.30 -1.10 0 -1.25 -0.20 -1.25 -1.85z"/>
  <path d="M18 3.20 c0 -0.20 0.40 -0.65 0.90 -1 0.80 -0.65 0.80 -0.70 -0.10 -0.35 -0.80 0.25 -0.90 0.15 -0.65 -0.55 0.20 -0.50 0.35 -1 0.35 -1.10 0 -0.10 0.90 -0.20 2 -0.20 1.10 0 2 0.25 2 0.50 0 0.30 0.35 0.50 0.75 0.50 0.40 0 0.75 0.40 0.75 0.95 0 0.70 -0.50 1 -1.85 1.25 -2.45 0.40 -4.15 0.40 -4.15 0z m3.50 -1.70 c0.60 -0.40 0.55 -0.50 -0.35 -0.50 -0.65 0 -1.15 0.25 -1.15 0.50 0 0.65 0.55 0.65 1.50 0z"/>
 </g>
 <g fill="#2f160a">
  <path d="M22.50 39.25 c0 -0.40 -0.45 -0.95 -1.05 -1.25 -0.80 -0.45 -1.20 -0.40 -1.90 0.20 -0.50 0.45 -1.60 0.80 -2.50 0.80 -1.55 0 -1.60 -0.05 -1.45 -1.85 0.10 -1.40 0.45 -2.05 1.35 -2.50 l1.25 -0.60 -1.25 -0.25 c-0.65 -0.15 -2 -0.35 -3 -0.55 l-1.85 -0.25 0.30 2.25 0.25 2.25 -1.75 0 c-1.60 0 -1.80 -0.15 -2.10 -1.55 -0.60 -3.10 -0.40 -3.80 1 -3.80 2.20 0 2.40 -1 1.40 -7.50 -0.15 -1.15 -0.55 -1.65 -1.35 -1.75 -0.70 -0.10 -1.25 -0.70 -1.60 -1.65 -0.25 -0.80 -0.65 -1.60 -0.80 -1.75 -0.60 -0.45 -1.85 -5.95 -1.60 -6.95 0.15 -0.55 0.60 -1.10 1.05 -1.30 0.90 -0.35 1.75 0.50 3.20 3.20 0.85 1.50 1.90 2.10 1.90 1 0 -0.25 -0.20 -0.35 -0.50 -0.20 -0.25 0.15 -0.50 -0.15 -0.50 -0.75 0 -1.40 -0.90 -3.05 -2.10 -3.90 -0.60 -0.45 -0.85 -1 -0.65 -1.65 0.20 -0.65 0.10 -0.95 -0.45 -0.95 -1.05 0 -1 -0.10 0.40 -2.90 1.90 -3.75 3.75 -5.10 7.05 -5.10 1.50 0 2.75 0.20 2.75 0.40 0 0.25 -0.80 0.80 -1.80 1.30 -1 0.45 -1.70 0.95 -1.60 1.05 0.40 0.40 3.45 -1.30 3.75 -2.05 0.25 -0.75 2.65 -1 2.65 -0.30 0 0.25 -0.75 0.80 -1.60 1.25 l-1.65 0.80 1.65 -0.30 c1.40 -0.25 1.60 -0.15 1.60 0.80 0 0.80 -0.30 1.05 -1.25 1.05 -2.50 0 -5.15 1.15 -5.40 2.35 -0.20 1 0 1.15 1.45 1.15 1.60 0 1.70 0.10 1.70 1.75 0 1.75 0 1.75 -2.25 1.75 -1.25 0 -2.20 -0.15 -2.20 -0.40 0.20 -1.25 -0.15 -3.10 -0.55 -3.10 -0.65 0 -0.65 3.15 0.05 3.85 0.30 0.30 1.50 0.40 2.80 0.25 1.85 -0.20 2.45 -0.05 3 0.70 0.55 0.75 0.85 0.85 1.65 0.30 0.55 -0.30 1.85 -0.60 2.85 -0.60 1.70 -0.05 1.80 -0.10 1.05 -0.70 -0.55 -0.40 -0.90 -1.30 -0.90 -2.25 0 -1.55 0.05 -1.55 2.55 -1.55 1.40 0 2.45 -0.15 2.35 -0.40 -1.65 -3.85 -2.20 -4.55 -3.50 -4.60 -0.90 0 -1.40 -0.25 -1.40 -0.75 0 -0.40 0.35 -0.75 0.75 -0.75 0.40 0 0.75 -0.20 0.75 -0.50 0 -0.25 0.40 -0.50 0.90 -0.50 0.80 0.05 3.20 2.85 4.50 5.35 0.70 1.25 0.85 5.55 0.35 8.30 -0.20 1 -0.15 1.85 0.05 1.85 0.60 0 2.70 -4.80 2.70 -6.10 0 -0.55 -0.90 -2.95 -2 -5.35 -1.60 -3.35 -1.80 -4.05 -0.95 -3.20 1.35 1.35 2.90 5.50 3.55 9.50 0.45 2.85 0.40 3.30 -0.75 5.65 -0.70 1.35 -1.05 2.50 -0.80 2.50 0.90 0 0.45 2.45 -0.60 3.45 -1 0.90 -1.05 1.40 -0.85 4.85 0.20 2.80 0.50 4.05 1.10 4.45 1 0.75 1.05 3.20 0.05 3.55 -0.40 0.20 -0.75 0.75 -0.75 1.25 0 0.50 -0.20 0.95 -0.50 0.95 -0.25 0 -0.50 0.35 -0.50 0.75 0 0.40 -0.45 0.75 -0.95 0.75 -0.85 0 -0.85 -0.25 0.55 -2.75 1.75 -3.25 1.55 -3.65 -0.30 -0.60 -2.15 3.50 -3.60 4.85 -5.30 4.85 -1 0 -1.50 -0.25 -1.50 -0.75z m3.80 -3.60 c-0.55 -0.55 -0.85 0.20 -0.45 1.15 0.35 0.90 0.40 0.90 0.55 0.05 0.10 -0.50 0.05 -1.05 -0.10 -1.20z m-3.30 0.10 c-0.35 -0.40 -0.50 -1.30 -0.40 -2 0.15 -0.70 0.05 -1.25 -0.15 -1.25 -0.25 0 -0.45 0.55 -0.45 1.20 0 0.65 -0.30 1.30 -0.60 1.45 -0.40 0.15 -0.15 0.45 0.60 0.75 1.70 0.70 1.70 0.70 1 -0.15z m5.50 -5.75 c0.40 -0.25 0.55 -0.60 0.35 -0.80 -0.20 -0.20 -0.75 0 -1.20 0.45 -0.90 0.90 -0.40 1.15 0.85 0.35z m-10 -3.75 c0 -1.55 0.15 -1.75 1.25 -1.75 0.70 0 1.25 -0.20 1.25 -0.50 0 -0.25 -0.70 -0.50 -1.55 -0.50 -2.45 0 -4.45 -1.70 -4.45 -3.80 0 -1.65 0.05 -1.70 1.90 -1.70 1.05 0 2.15 0.25 2.45 0.55 0.35 0.35 0.60 0.30 0.80 -0.25 0.25 -0.70 -0.20 -0.80 -3.15 -0.80 -3 0 -3.50 -0.15 -3.55 -0.85 0 -0.50 -0.25 -0.20 -0.50 0.60 -0.25 0.85 -0.35 2.90 -0.20 4.65 0.25 2.50 0.50 3.10 1.20 3.10 0.45 0 1.50 0.70 2.30 1.50 1.85 1.95 2.25 1.90 2.25 -0.25z m7.85 -1.60 c0.20 -0.50 0.75 -1.30 1.25 -1.75 0.70 -0.55 0.90 -1.35 0.80 -2.50 -0.10 -1.40 -0.35 -1.70 -1.50 -1.80 -1.10 -0.15 -1.40 -0.45 -1.40 -1.40 0 -0.75 -0.30 -1.20 -0.75 -1.20 -0.40 0 -0.75 0.25 -0.75 0.50 0 0.30 0.25 0.50 0.55 0.50 0.35 0 0.50 0.85 0.35 2.25 -0.10 1.25 0.05 2.25 0.25 2.25 0.25 0 0.35 0.90 0.25 2 -0.20 2.05 0.35 2.70 0.95 1.15z m-11.35 -9.40 c0 -0.35 0.40 -0.95 0.90 -1.20 0.95 -0.55 0.15 -0.75 -1.10 -0.25 -0.85 0.35 -1.10 2.20 -0.30 2.20 0.30 0 0.50 -0.35 0.50 -0.75z m3.30 -0.65 c-0.40 -0.45 -0.95 -0.65 -1.10 -0.45 -0.50 0.45 0.80 1.90 1.40 1.55 0.30 -0.20 0.20 -0.65 -0.30 -1.10z m8.90 -0.35 c0.15 -0.45 0 -0.75 -0.40 -0.75 -0.40 0 -0.80 0.35 -1 0.75 -0.15 0.45 0 0.75 0.40 0.75 0.40 0 0.80 -0.35 1 -0.75z m-15.45 -7.90 c0.40 -0.65 1.35 -1.45 2.05 -1.80 0.75 -0.30 1.20 -0.70 1.05 -0.85 -0.35 -0.40 -4.20 2.25 -4.55 3.10 -0.45 1.15 0.60 0.80 1.45 -0.45z"/>
  <path d="M1.50 35.50 c0 -0.40 2.55 -2 3.25 -2 0.15 0 0.25 0.55 0.25 1.25 0 1.10 -0.20 1.25 -1.75 1.25 -0.95 0 -1.75 -0.20 -1.75 -0.50z"/>
  <path d="M34.50 33 c0 -1.10 1 -1.30 2.55 -0.50 1.50 0.80 1.15 1.50 -0.80 1.50 -1.40 0 -1.75 -0.20 -1.75 -1z"/>
 </g>
 <g fill="#1b162d">
  <path d="M9.55 38.65 c-1.90 -2.35 -2.15 -6.45 -0.40 -6.35 0.45 0.05 0.85 -0.20 0.85 -0.60 0 -0.40 0.35 -0.70 0.75 -0.70 0.50 0 0.75 0.50 0.75 1.45 0 0.85 0.55 2.10 1.25 2.95 0.75 0.90 1.25 2.10 1.25 3.05 0 1.45 -0.15 1.55 -1.70 1.55 -1.25 0 -2 -0.35 -2.75 -1.35z m1.25 -3.35 c-0.30 -0.95 -0.70 -1.60 -0.90 -1.50 -0.35 0.25 0.85 3.20 1.30 3.20 0.10 0 -0.10 -0.75 -0.40 -1.70z"/>
  <path d="M27.60 38.65 c1.45 -1.60 3.60 -5.60 3.20 -6 -0.15 -0.15 -0.50 0.25 -0.75 0.90 -0.25 0.65 -0.95 1.90 -1.50 2.70 -1 1.40 -1.05 1.45 -1.05 0.35 0 -0.60 0.45 -2 1 -3.10 0.55 -1.10 1 -2.40 1 -3 0 -1.25 1.30 -1.35 1.65 -0.05 0.15 0.60 0.85 1 2.30 1.25 1.15 0.15 2.50 0.50 2.95 0.75 0.45 0.25 1.45 0.70 2.25 1.10 1.20 0.55 1.35 0.90 1.35 3.05 0 2.25 -0.10 2.40 -1.25 2.40 -0.75 0 -1.25 -0.30 -1.25 -0.70 0 -0.35 -0.35 -0.95 -0.75 -1.30 -0.65 -0.55 -0.75 -0.40 -0.75 0.90 0 1.60 -0.85 2.10 -3.85 2.10 -1.15 0 -1.65 -0.25 -1.65 -0.75 0 -0.45 -0.45 -0.75 -1.25 -0.75 -0.80 0 -1.25 0.30 -1.25 0.75 0 0.40 -0.40 0.75 -0.85 0.75 -0.70 0 -0.60 -0.25 0.45 -1.35z m5.65 -0.15 c0.15 -0.25 -0.15 -0.50 -0.75 -0.50 -0.60 0 -0.90 0.25 -0.75 0.50 0.15 0.30 0.50 0.50 0.75 0.50 0.25 0 0.60 -0.20 0.75 -0.50z m0.95 -2.75 c-0.20 -0.40 -0.70 -0.75 -1.15 -0.75 -0.70 0.05 -0.65 0.15 0.15 0.75 1.25 0.95 1.35 0.95 1 0z"/>
  <path d="M12.05 15.65 c0.15 -1.60 0.45 -2 1.70 -2.50 0.80 -0.30 2.25 -0.60 3.15 -0.60 1.30 -0.05 1.60 0.15 1.60 1 0 1 -0.05 1.05 -1.25 0.25 -0.95 -0.65 -1.50 -0.70 -2.25 -0.30 -1.15 0.60 -1.35 2.50 -0.30 2.50 0.40 0 0.65 -0.40 0.60 -0.85 0 -0.50 0.35 -0.95 0.85 -1.05 0.65 -0.15 0.85 0.15 0.85 1.30 0 1.60 -0.85 2.10 -3.65 2.10 -1.35 0 -1.40 -0.10 -1.30 -1.85z"/>
  <path d="M21.50 15.70 c0 -0.40 0.20 -0.65 0.45 -0.50 0.20 0.15 0.85 -0.20 1.35 -0.80 0.95 -1.05 0.95 -1.05 -0.40 -0.80 -0.80 0.15 -1.40 0.05 -1.40 -0.15 0 -0.25 0.80 -0.45 1.75 -0.45 1.65 0 1.75 0.10 1.75 1.75 0 1.65 -0.10 1.75 -1.75 1.75 -1.25 0 -1.75 -0.20 -1.75 -0.80z"/>
  <path d="M26.35 15.70 c-0.40 -0.40 1.25 -2.20 1.75 -1.90 0.25 0.15 0.30 0.45 0.15 0.70 -0.15 0.20 0.20 0.30 0.75 0.15 0.70 -0.20 1 0 1 0.55 0 0.55 -0.45 0.80 -1.65 0.80 -0.95 0 -1.80 -0.15 -2 -0.30z"/>
  <path d="M29 12.95 c0 -0.55 0.25 -0.85 0.50 -0.70 0.30 0.15 0.50 0.65 0.50 1.05 0 0.40 -0.20 0.70 -0.50 0.70 -0.25 0 -0.50 -0.45 -0.50 -1.05z"/>
  <path d="M26 12.50 c0 -0.25 0.45 -0.50 1 -0.50 0.55 0 1 0.25 1 0.50 0 0.30 -0.45 0.50 -1 0.50 -0.55 0 -1 -0.20 -1 -0.50z"/>
 </g>
 <g fill="#4b2c15">
  <path d="M13.50 39.25 c0 -0.45 0.45 -0.75 1.25 -0.75 0.80 0 1.25 0.30 1.25 0.75 0 0.45 -0.45 0.75 -1.25 0.75 -0.80 0 -1.25 -0.30 -1.25 -0.75z"/>
  <path d="M25.10 38.55 c-0.55 -0.95 -0.50 -1.05 0.65 -1.05 1.05 0 1.25 -0.20 1.20 -1.35 -0.10 -1.20 -0.10 -1.25 -0.30 -0.25 -0.20 0.95 -0.50 1.10 -1.90 1 -0.95 -0.05 -1.60 -0.20 -1.50 -0.35 0.15 -0.10 0 -0.50 -0.25 -0.80 -0.30 -0.35 -0.35 -1.30 -0.20 -2.15 0.25 -1.35 0.65 -1.65 2.90 -2.40 1.40 -0.45 2.80 -1.05 3.05 -1.30 0.30 -0.25 0.50 -1.65 0.50 -3.10 0 -2.65 -0.35 -2.75 -1.55 -0.55 -0.65 1.25 -6.50 4.25 -8.20 4.25 -0.75 0 -1.60 -0.30 -1.95 -0.60 -0.55 -0.55 -0.65 -0.50 -0.40 0.20 0.25 0.80 0.05 0.85 -2 0.55 -2.85 -0.40 -2.60 0.65 0.25 1.10 3.90 0.65 4.10 0.75 4.10 1.90 0 0.65 -0.25 1.40 -0.60 1.75 -0.45 0.45 -0.15 0.60 1.50 0.60 1.15 0 2.10 0.25 2.10 0.50 0 0.75 -3.10 0.60 -4.10 -0.20 -0.55 -0.40 -0.90 -1.30 -0.90 -2.25 0 -0.85 -0.20 -1.55 -0.50 -1.55 -0.25 0 -0.50 0.25 -0.50 0.50 0 0.30 -0.80 0.50 -1.75 0.50 -0.95 0 -1.75 -0.20 -1.75 -0.50 0 -0.25 -0.65 -0.50 -1.45 -0.50 -1.20 0 -1.45 -0.25 -1.75 -1.60 -0.40 -2.10 0.05 -2.40 1.25 -0.90 l0.95 1.25 -0.25 -2.75 c-0.15 -1.50 -0.55 -4.35 -0.85 -6.30 -0.45 -3.10 -0.40 -3.85 0.30 -5.25 0.55 -1.10 0.65 -1.75 0.30 -1.95 -0.30 -0.20 -0.40 -0.70 -0.25 -1.10 0.20 -0.45 0.10 -0.95 -0.20 -1.15 -0.30 -0.15 -0.55 -1.40 -0.55 -2.70 0 -2.30 0.15 -2.55 2.90 -5.05 1.55 -1.45 3.60 -2.95 4.50 -3.40 0.85 -0.45 1.60 -0.95 1.60 -1.20 0 -0.20 0.70 -0.40 1.50 -0.40 0.85 0 1.50 0.25 1.50 0.50 0 0.30 -0.50 0.50 -1.10 0.50 -1.15 0.05 -4.10 1.45 -3.10 1.50 0.30 0 1.45 -0.30 2.50 -0.70 1.10 -0.35 2.75 -0.80 3.75 -1 1.80 -0.30 1.90 -0.25 3.90 2.75 2.05 3.05 2.55 4.30 1.45 3.65 -0.40 -0.25 -0.45 -0.10 -0.15 0.60 0.65 1.55 0.90 3.60 0.55 4.95 -0.40 1.50 -1.30 1.65 -1.30 0.25 0 -0.55 -0.20 -1 -0.50 -1 -0.25 0 -0.50 0.20 -0.50 0.45 0 0.25 -0.50 0.55 -1.10 0.65 -1.30 0.15 -1.90 1.90 -0.75 1.90 0.45 0 0.90 -0.30 1.05 -0.60 0.20 -0.50 0.40 -0.50 0.55 -0.10 0.15 0.35 0.75 0.45 1.35 0.30 0.95 -0.25 1.05 -0.10 0.75 1.30 -0.20 0.90 -0.25 1.60 -0.15 1.60 0.10 0 0.80 -1.25 1.55 -2.80 1.90 -3.90 2.10 -6.05 0.80 -8.60 -0.60 -1.15 -0.95 -2.10 -0.80 -2.10 0.60 0 2 3.55 2.30 6 0.55 4.75 -0.85 12 -2.40 12 -0.60 0 -0.70 0.90 -0.55 5.15 0.15 5.65 -0.35 7.20 -3.25 10.60 -1.55 1.75 -1.60 1.80 -2.25 0.80z m0.15 -5.05 c0.15 -0.25 0.70 -0.50 1.20 -0.50 0.50 0 1.25 -0.35 1.60 -0.80 0.60 -0.70 0.45 -0.70 -1.30 0.05 -2.15 0.85 -3.35 1.75 -2.40 1.75 0.35 0 0.75 -0.20 0.90 -0.50z m-9.25 -3.90 c0 -0.25 -0.65 -1.05 -1.50 -1.85 -1.70 -1.65 -2 -1.05 -0.45 0.95 1 1.25 1.95 1.70 1.95 0.90z m-1.05 -8 c-0.25 -0.10 -0.45 -0.95 -0.45 -1.95 0 -1.30 0.25 -1.80 1 -2 1 -0.25 1.45 -2.15 0.50 -2.15 -0.25 0 -0.50 -0.35 -0.50 -0.75 0 -1.10 1.05 -0.90 1.35 0.25 0.30 1.10 2.15 1.40 2.15 0.40 0 -0.90 -2.85 -2.45 -3.80 -2.05 -0.40 0.15 -1.05 0.90 -1.50 1.70 -0.40 0.80 -1.05 1.45 -1.45 1.45 -0.45 0 -0.75 0.50 -0.75 1.25 0 0.70 0.20 1.25 0.45 1.25 0.25 0 0.55 0.90 0.75 2 0.15 1.10 0.70 2.40 1.20 2.90 0.80 0.85 0.85 0.80 1.20 -0.65 0.20 -0.80 0.10 -1.55 -0.15 -1.65z m7.30 -1.10 c1.25 -1.30 1.35 -1.60 0.75 -2 -0.50 -0.30 -0.80 -0.25 -0.95 0.15 -0.30 0.95 -1.95 2.35 -2.70 2.35 -0.40 0 -1 -0.35 -1.35 -0.75 -0.35 -0.40 -0.90 -0.75 -1.20 -0.75 -0.85 0.05 2.35 2.50 3.25 2.50 0.40 0 1.40 -0.70 2.20 -1.50z m6.25 0.35 c0 -0.40 -0.50 -1.15 -1.15 -1.75 l-1.15 -1.10 0.20 1.75 c0.15 1.30 0.45 1.75 1.15 1.75 0.50 0 0.95 -0.30 0.95 -0.65z m-4.80 -6.65 c0.15 -0.45 -0.05 -0.70 -0.70 -0.70 -1.05 0 -1.70 0.75 -1.25 1.50 0.35 0.60 1.60 0.10 1.95 -0.80z m-3.70 -1.45 c0 -0.40 0.40 -0.75 0.90 -0.75 1.40 -0.05 2.60 -1.25 2.60 -2.65 0 -0.90 0.35 -1.30 1.25 -1.55 1 -0.25 1.25 -0.65 1.25 -1.80 0 -0.85 0.25 -1.50 0.50 -1.50 0.30 0 0.50 -0.20 0.50 -0.50 0 -0.25 -0.30 -0.50 -0.70 -0.50 -0.40 0 -0.80 -0.25 -0.90 -0.55 -0.10 -0.35 -0.60 -0.35 -1.55 0 -0.80 0.30 -2.10 0.55 -2.90 0.55 -0.80 0 -1.45 0.20 -1.45 0.40 0 0.25 -0.90 0.75 -2 1.10 -1.10 0.35 -2 0.85 -2 1.10 0 0.20 -0.65 0.40 -1.50 0.40 -1 0 -1.50 0.25 -1.50 0.75 0 0.55 0.60 0.75 2.25 0.75 l2.25 0 0 2 c0 1.65 0.15 2 1 2 0.55 0 1 0.35 1 0.75 0 0.40 0.25 0.75 0.50 0.75 0.30 0 0.50 -0.35 0.50 -0.75z m9.40 -2.35 c-0.15 -0.35 -1.10 -0.80 -2.15 -1 -2.30 -0.50 -3.70 -0.20 -1.50 0.30 0.85 0.20 1.85 0.55 2.25 0.80 1.10 0.65 1.60 0.60 1.40 -0.10z"/>
  <path d="M30.15 35.05 c1.10 -2.40 1.10 -2.40 1.25 -0.90 0.10 0.85 -0.05 1.65 -0.35 1.75 -0.30 0.10 -0.55 0.50 -0.55 0.90 0 0.40 -0.30 0.70 -0.70 0.70 -0.60 0 -0.50 -0.50 0.35 -2.45z"/>
  <path d="M9 35.15 l0.05 -1.90 0.70 1.70 c0.90 2.05 0.90 2.05 0 2.05 -0.55 0 -0.75 -0.55 -0.75 -1.85z"/>
  <path d="M11 36.05 c-0.80 -1.55 -0.60 -2.55 0.50 -2.55 0.80 0 1 0.35 1 1.75 0 1.95 -0.70 2.30 -1.50 0.80z"/>
  <path d="M2.50 35.05 c0 -0.55 4 -2.55 5.15 -2.55 1.55 0 0.95 1.75 -0.80 2.40 -1.95 0.70 -4.35 0.80 -4.35 0.15z"/>
  <path d="M20.25 34.35 c-0.35 -1.30 0 -2.35 0.70 -2.35 0.50 0 0.35 2.85 -0.10 3.30 -0.15 0.20 -0.45 -0.25 -0.60 -0.95z"/>
  <path d="M35.10 33.65 c-1.40 -1.20 -2.40 -1.55 -1.85 -0.65 0.15 0.30 -0.05 0.50 -0.45 0.50 -0.50 0 -0.80 -0.45 -0.80 -1.05 0 -0.95 0.20 -1.05 1.90 -0.70 2.20 0.40 6.10 2.15 6.10 2.80 0 0.90 -3.55 0.25 -4.90 -0.90z"/>
  <path d="M26.30 28.75 c1.25 -0.95 2 -0.95 1.20 0 -0.35 0.40 -1 0.75 -1.40 0.75 -0.65 0 -0.60 -0.15 0.20 -0.75z"/>
  <path d="M9.25 22.60 c-1.35 -0.95 -2.25 -3.10 -1.90 -4.65 0.20 -1.15 0.10 -1.75 -0.45 -2.15 -1.30 -0.95 -1.35 -3.80 -0.10 -3.80 0.45 0 0.60 -0.25 0.40 -0.55 -0.20 -0.35 -0.05 -0.50 0.35 -0.35 0.35 0.10 1.20 1.25 1.85 2.55 1.05 1.95 1.15 2.55 0.65 3.90 -0.30 0.85 -0.40 2.45 -0.25 3.50 0.35 2.05 0.30 2.20 -0.55 1.55z m-0.55 -8.35 c-0.85 -1.25 -1.30 -1.50 -1.85 -0.95 -0.30 0.35 1.60 2.15 2.30 2.20 0.20 0 0 -0.55 -0.45 -1.25z"/>
  <path d="M8.05 9.70 c-0.60 -0.75 -1.05 -1.50 -1.05 -1.70 0 -0.85 3.10 -5.90 4.25 -6.90 0.95 -0.80 1.90 -1.10 3.75 -1.10 1.40 0 2.50 0.25 2.50 0.50 0 0.30 -0.20 0.50 -0.45 0.50 -0.25 0 -1.50 1 -2.80 2.25 -1.30 1.20 -2.55 2.15 -2.75 2 -0.55 -0.35 -1.50 2.10 -1.50 3.75 0 2 -0.75 2.25 -1.95 0.70z"/>
  <path d="M30.50 2.50 c-0.30 -0.60 -0.45 -1.20 -0.35 -1.35 0.15 -0.10 0.55 0.25 0.85 0.85 0.30 0.60 0.45 1.20 0.35 1.35 -0.15 0.10 -0.55 -0.25 -0.85 -0.85z"/>
 </g>
 <g fill="#302e41">
  <path d="M5.40 39.45 c-0.60 -0.30 -0.90 -1.10 -0.90 -2.20 0 -2.65 0.40 -3.25 2.30 -3.25 1.40 0 1.70 0.20 1.70 1 0 0.55 0.35 1.15 0.75 1.30 0.45 0.20 0.75 0.95 0.75 2 0 1.65 -0.05 1.70 -1.85 1.70 -1.05 0 -2.30 -0.25 -2.75 -0.55z"/>
  <path d="M36.95 37.90 c-0.05 -0.85 -0.10 -0.95 -0.30 -0.25 -0.15 0.60 -0.70 0.85 -1.80 0.85 -1.30 -0.05 -1.45 -0.10 -0.75 -0.55 0.70 -0.40 0.75 -0.70 0.30 -1.70 -0.30 -0.65 -0.85 -1.30 -1.20 -1.45 -0.95 -0.35 -0.90 0.40 0.05 1.20 1.15 0.95 0.90 1.50 -0.75 1.50 -1.45 0 -1.50 -0.05 -1.50 -2.50 0 -3 0.65 -3.20 3.40 -1.15 l1.85 1.35 -1.20 -1.35 -1.20 -1.35 1.30 0 c0.70 0 1.45 0.25 1.60 0.50 0.15 0.30 0.75 0.50 1.30 0.50 0.55 0 1.10 0.35 1.30 0.75 0.40 1.15 -0.20 1.50 -1.20 0.70 -0.85 -0.65 -0.85 -0.65 0 0.35 0.45 0.55 0.85 1.30 0.85 1.60 0 0.35 0.25 0.60 0.50 0.60 0.30 0 0.50 0.35 0.50 0.75 0 0.50 -0.50 0.75 -1.50 0.75 -1.20 0 -1.50 -0.20 -1.55 -1.10z"/>
  <path d="M11.80 15.80 c0.15 -0.40 0.05 -0.85 -0.25 -1 -0.85 -0.55 0 -1.80 1.25 -1.80 1.05 0 1.20 0.20 1.05 1.75 -0.10 1.45 -0.30 1.75 -1.20 1.75 -0.75 0 -1.05 -0.25 -0.85 -0.70z"/>
  <path d="M22 16.25 c0 -0.15 0.55 -0.80 1.25 -1.45 0.65 -0.65 1.10 -1.30 0.90 -1.45 -0.15 -0.20 -0.05 -0.35 0.30 -0.35 0.90 0 1.30 1.55 0.50 2.05 -0.50 0.30 -0.50 0.45 -0.05 0.45 0.30 0 0.60 0.25 0.60 0.50 0 0.30 -0.80 0.50 -1.75 0.50 -0.95 0 -1.75 -0.10 -1.75 -0.25z"/>
  <path d="M8.60 6.90 c0.15 -1.45 0.35 -1.65 1.80 -1.80 l1.65 -0.15 -1 1 c-0.60 0.60 -1.05 1.40 -1.05 1.80 0 0.40 -0.35 0.75 -0.80 0.75 -0.55 0 -0.70 -0.40 -0.60 -1.60z"/>
  <path d="M11 7.50 c0.30 -0.55 0.65 -1 0.75 -1 0.15 0 0.25 0.45 0.25 1 0 0.55 -0.35 1 -0.75 1 -0.65 0 -0.70 -0.20 -0.25 -1z"/>
 </g>
 <g fill="#920d11">
  <path d="M13.50 38.75 c0 -1.25 3.30 -4.25 4.70 -4.25 1.10 0 1 0.85 -0.20 1.50 -0.55 0.30 -1 0.80 -1 1.10 0 0.30 0.40 0.20 0.90 -0.25 1 -0.90 3.90 -1.10 5 -0.40 0.60 0.35 2.10 2.80 2.10 3.40 0 0.10 -2.60 0.15 -5.75 0.10 -5.65 -0.05 -5.75 -0.10 -5.75 -1.20z"/>
  <path d="M24.05 36.95 c-0.90 -1.10 -1.50 -2.15 -1.35 -2.30 0.55 -0.55 2.55 0.85 3.20 2.20 1.30 2.85 0.40 2.90 -1.85 0.10z"/>
  <path d="M6 14.50 c0 -0.25 0.30 -0.50 0.70 -0.50 0.40 0 0.90 0.25 1.05 0.50 0.15 0.30 -0.15 0.50 -0.70 0.50 -0.60 0 -1.05 -0.20 -1.05 -0.50z"/>
  <path d="M5.85 12.50 c0.35 -1.30 2.65 -1.40 2.65 -0.10 0 0.60 -0.45 0.90 -1.45 0.95 -1.20 0.10 -1.40 -0.05 -1.20 -0.85z"/>
 </g>
 <g fill="#693812">
  <path d="M27 39.60 c0 -0.25 0.55 -0.95 1.25 -1.60 1.20 -1.10 1.25 -1.10 1.25 -0.20 0 0.55 -0.25 1.25 -0.60 1.60 -0.70 0.70 -1.90 0.80 -1.90 0.20z"/>
  <path d="M25.15 38.15 c-0.20 -0.45 -0.85 -1.30 -1.45 -1.90 -0.85 -0.75 -1.05 -1.35 -0.85 -2.60 0.20 -1.35 0.60 -1.70 2.55 -2.35 2.70 -0.95 2.60 -0.95 2.60 -0.25 0 0.30 -0.90 0.90 -2 1.30 -1.95 0.80 -2.65 2.20 -1.50 2.90 0.30 0.15 0.50 -0.15 0.50 -0.70 0 -0.70 0.45 -1.15 1.40 -1.35 0.75 -0.20 1.70 -0.80 2.15 -1.35 1.15 -1.40 3.45 -0.85 3.45 0.85 0 1.75 -0.50 2.80 -1.30 2.80 -0.60 0 -0.60 -0.20 -0.20 -1.05 1.25 -2.25 0.10 -1.95 -1.20 0.35 -2.40 4.15 -3.50 5.05 -4.15 3.35z m2.85 -3.40 c0 -0.40 -0.45 -0.75 -1 -0.75 -0.55 0 -1 0.35 -1 0.75 0 0.40 0.45 0.75 1 0.75 0.55 0 1 -0.35 1 -0.75z"/>
  <path d="M17.50 34.25 l0 -1.80 -3 0.35 c-2.90 0.30 -3 0.30 -3 -0.80 0 -0.95 0.20 -1.05 1.40 -0.75 0.75 0.20 2.30 0.45 3.45 0.60 2.65 0.30 3.50 1.20 2.75 2.90 -0.85 1.80 -1.60 1.55 -1.60 -0.50z"/>
  <path d="M12.25 30 c-0.35 -0.60 -1.45 -8.65 -1.45 -11.05 0 -1.05 0.45 -2.40 1.15 -3.35 0.60 -0.90 0.90 -1.60 0.60 -1.60 -0.30 0 -0.55 0.25 -0.55 0.55 0 0.25 -0.20 0.40 -0.50 0.20 -0.25 -0.15 -0.35 -0.60 -0.20 -0.95 0.15 -0.40 0.05 -0.85 -0.25 -1.05 -0.30 -0.15 -0.55 -1.30 -0.55 -2.50 0 -1.65 0.30 -2.55 1.25 -3.60 l1.30 -1.40 -0.15 2.10 c-0.10 1.20 0.05 2.15 0.30 2.15 0.25 0 0.05 0.35 -0.50 0.75 -0.85 0.65 -0.80 0.70 0.80 0.15 2.05 -0.65 3.35 -1.70 1.65 -1.25 -0.95 0.20 -1.15 0.05 -1.15 -0.95 0 -1.05 0.25 -1.20 1.75 -1.20 1.65 0 1.75 0.10 1.75 1.70 0 1.40 -0.20 1.75 -1.10 1.95 -1 0.20 -1 0.20 0.20 0.30 0.75 0 1.55 0.40 1.80 0.85 0.35 0.65 0.75 0.60 3.35 -0.50 4.30 -1.95 7.25 -1.60 6.50 0.65 -0.30 1 -0.60 1.10 -2.25 0.80 -1.15 -0.20 -2.05 -0.10 -2.25 0.20 -0.15 0.30 -0.75 0.55 -1.30 0.55 -0.60 0 -0.95 0.35 -0.95 1 0 1.05 0.40 1.20 1.70 0.70 0.45 -0.15 0.65 -0.50 0.50 -0.75 -0.15 -0.25 0 -0.45 0.30 -0.45 0.30 0 0.40 -0.20 0.25 -0.50 -0.15 -0.25 -0.05 -0.50 0.25 -0.50 0.85 0 1.20 1.55 0.45 2.05 -0.50 0.30 -0.30 0.45 0.70 0.45 0.85 0 1.35 -0.25 1.35 -0.75 0 -0.40 0.25 -0.75 0.50 -0.75 0.30 0 0.50 0.25 0.50 0.55 0 0.30 0.45 0.40 1 0.20 1.10 -0.35 1.35 0.45 0.55 1.70 -0.40 0.60 -0.60 0.60 -1.25 0.10 -0.40 -0.35 -1.05 -0.55 -1.40 -0.40 -0.45 0.15 -0.30 0.35 0.35 0.60 1.80 0.70 2.75 1.90 2.75 3.45 0.05 1.40 0.10 1.45 0.70 0.70 0.85 -1.15 1.30 -1.15 1.30 0.10 0 0.65 -0.35 1 -0.90 1 -0.80 0 -0.90 0.35 -0.70 2.70 0.15 1.65 0 2.80 -0.35 3 -0.55 0.35 -0.70 -0.30 -0.60 -2.95 0.10 -1.15 0 -1.35 -0.40 -0.75 -0.45 0.65 -0.55 0.65 -0.55 -0.10 0 -0.50 -0.35 -0.90 -0.75 -0.90 -0.40 0 -0.75 0.45 -0.75 1 0 0.55 0.25 1 0.50 1 1 0 0.45 0.90 -1.30 2.25 -0.95 0.75 -1.85 1.25 -2 1.15 -0.35 -0.35 0.85 -3.40 1.35 -3.40 0.25 0 0.45 -0.25 0.45 -0.60 0 -0.30 -0.50 -0.10 -1.15 0.50 -0.65 0.60 -1.60 1.10 -2.15 1.15 -0.80 0 -0.80 0.10 -0.15 0.35 0.70 0.30 0.70 0.55 0.15 1.95 -0.75 1.70 -3.30 2.75 -4.35 1.70 -0.30 -0.30 -0.95 -0.55 -1.40 -0.55 -0.50 0 -1.80 -1.05 -2.95 -2.35 l-2.10 -2.40 0.80 2 c0.50 1.10 1.05 2.20 1.35 2.50 0.25 0.25 0.45 0.65 0.45 0.85 0 0.55 -1.90 0.50 -2.25 -0.10z m7.50 -3.50 c1.15 0 1.70 -0.20 1.50 -0.55 -0.50 -0.75 -5.25 0.25 -5.25 1.10 0 0.30 0.35 0.30 0.95 -0.05 0.55 -0.25 1.80 -0.50 2.80 -0.50z m4.75 -3 c0.60 -0.40 0.45 -0.50 -0.60 -0.50 -0.75 0 -1.50 0.25 -1.65 0.50 -0.40 0.65 1.25 0.65 2.25 0z m-9.60 -5.20 c0.45 -0.10 0.20 -0.20 -0.65 -0.15 -1.75 0.10 -2.15 1.35 -1.15 3.65 l0.65 1.45 0.15 -2.35 c0.10 -1.65 0.40 -2.40 1 -2.60z m8.40 1.70 c0.25 0 0.75 0.25 1.10 0.60 0.35 0.35 0.60 0.40 0.60 0.10 0 -0.25 -1 -1.45 -2.25 -2.60 -2.25 -2.10 -2.90 -2.25 -1.50 -0.25 1.60 2.30 -0.90 4 -3.30 2.20 -0.75 -0.55 -1.50 -0.85 -1.65 -0.65 -0.15 0.25 0.25 0.75 0.80 1.15 0.60 0.40 1.40 1.05 1.85 1.45 0.70 0.70 0.95 0.65 2.30 -0.60 0.85 -0.75 1.75 -1.40 2.05 -1.40z m-4.90 -5.60 c-1.45 -1.15 -3.35 -1.65 -3.90 -1.10 -0.20 0.25 -0.55 0.95 -0.75 1.60 -0.25 0.90 -0.10 1.10 0.70 1.10 0.70 0 1.05 -0.30 1.05 -1 0 -1.25 0.90 -1.30 1.35 -0.10 0.45 1.25 1.25 1.65 2.05 1 0.55 -0.50 0.45 -0.75 -0.50 -1.50z"/>
  <path d="M8.25 21 c-0.90 -1.75 -0.95 -2.85 -0.10 -3.15 0.30 -0.15 0.10 -0.30 -0.45 -0.30 -0.70 -0.05 -1.20 -0.45 -1.40 -1.15 -0.70 -2.65 0.10 -3.15 2.05 -1.30 1.35 1.25 1.55 0.65 0.35 -1.05 -0.60 -0.85 -1.10 -1.05 -2 -0.85 -1.05 0.30 -1.15 0.20 -0.75 -0.80 0.70 -1.90 2.10 -1.40 3.50 1.25 1.15 2.25 1.15 2.50 0.45 4 -0.45 1 -0.60 2 -0.35 2.60 1 2.50 -0.05 3.15 -1.30 0.75z"/>
  <path d="M31.35 16.95 c-0.20 -1.45 -0.05 -2.45 0.50 -3.25 1.05 -1.65 1.65 -1.50 1.65 0.50 0 4.55 -1.60 6.65 -2.15 2.75z"/>
  <path d="M29 13.30 c0 -0.10 0.20 -0.80 0.50 -1.50 0.55 -1.45 0.25 -1.75 -2.75 -2.65 -1.35 -0.35 -1.60 -0.55 -0.85 -0.60 1.05 -0.05 1.65 -1.05 0.60 -1.05 -0.25 0 -0.50 -1 -0.50 -2.20 0 -1.80 -0.20 -2.30 -1 -2.55 -1.25 -0.40 -1.30 -1.55 -0.05 -1.90 1.25 -0.30 1.70 0.05 3 2.15 1.25 2.10 1.35 3 0.25 3 -0.65 0 -0.55 0.30 0.45 1.20 1.95 1.80 2.55 5.65 1 6.20 -0.35 0.10 -0.65 0.05 -0.65 -0.10z"/>
  <path d="M9 8.90 c0 -2.35 0.40 -3.40 1.40 -3.40 0.60 0 0.65 0.15 0.20 0.60 -0.35 0.35 -0.60 1.15 -0.60 1.90 0 0.70 -0.25 1.60 -0.50 2 -0.35 0.55 -0.50 0.30 -0.50 -1.10z"/>
  <path d="M15.15 4 c0.05 -0.65 0.30 -0.95 0.75 -0.75 0.35 0.10 0.50 0.05 0.35 -0.25 -0.20 -0.35 1.15 -1.50 1.85 -1.50 0.10 0 0.25 0.80 0.30 1.75 0.15 1.70 0.05 1.75 -1.60 1.75 -1.45 0 -1.70 -0.20 -1.65 -1z"/>
 </g>
 <g fill="#383465">
  <path d="M5.50 38.75 c0 -1.05 0.20 -1.25 0.90 -1.05 0.45 0.15 1.20 0.05 1.60 -0.20 0.60 -0.40 0.50 -0.50 -0.50 -0.55 -0.70 -0.05 -1.60 -0.10 -2 -0.15 -0.45 0 -0.80 -0.65 -0.90 -1.60 -0.15 -1.50 0 -1.65 2.20 -2.40 1.30 -0.45 2.45 -0.80 2.55 -0.80 0.10 0 0.15 0.55 0.15 1.25 0 1.45 1.05 3.75 2.15 4.70 0.50 0.40 0.45 0 -0.25 -1.35 -0.50 -1.10 -1.05 -2.85 -1.25 -3.90 l-0.25 -1.95 1.40 2.75 c0.80 1.50 1.95 3 2.60 3.25 0.80 0.35 1.10 0.85 1 1.75 -0.15 1.20 -0.25 1.25 -4.75 1.40 l-4.65 0.15 0 -1.30z"/>
  <path d="M27 39.60 c0 -0.25 0.45 -0.85 1.05 -1.40 1.10 -1 2.95 -4.25 2.95 -5.20 0 -0.95 -0.95 -0.50 -1.30 0.65 -0.35 1.30 -3.25 5.30 -3.80 5.35 -0.80 0 -0.35 -1.35 0.65 -2.30 1.30 -1.20 2.95 -4.35 2.95 -5.70 0 -0.55 0.35 -1 0.75 -1 0.40 0 0.75 0.30 0.75 0.70 0 0.45 0.85 0.80 2.30 1.05 2.85 0.40 6.70 2.20 6.70 3.10 0 0.80 -1.10 0.85 -1.90 0.05 -0.40 -0.40 -0.60 -0.40 -0.60 -0.05 0 0.30 0.35 0.70 0.80 0.85 0.45 0.20 0.70 0.65 0.50 1.05 -0.15 0.45 0 0.75 0.45 0.75 0.45 0 0.75 0.50 0.75 1.25 0 1.20 -0.10 1.25 -3.50 1.25 -3.75 0 -4.55 -0.70 -2.40 -2.10 l1.10 -0.75 -1.25 -1.70 c-1 -1.40 -1.20 -1.55 -1.35 -0.75 -0.10 0.55 0.15 1.15 0.60 1.40 1.15 0.65 1 1.25 -0.40 1.60 -0.90 0.20 -1.15 0.55 -0.95 1.30 0.25 0.90 0 1 -2.30 1 -1.40 0 -2.55 -0.20 -2.55 -0.40z m8 -5.85 c-0.65 -0.70 -1.40 -1.25 -1.65 -1.25 -0.30 0 0 0.55 0.65 1.25 0.65 0.70 1.40 1.25 1.65 1.25 0.30 0 0 -0.55 -0.65 -1.25z"/>
  <path d="M11.90 15.90 c1.05 -1.90 2.40 -2.55 1.85 -0.95 -0.25 0.75 -0.10 1.05 0.45 1.05 0.45 0 0.80 0.35 0.80 0.75 0 0.55 -0.55 0.75 -2 0.75 l-2 0 0.90 -1.60z"/>
  <path d="M24.10 16.10 c-0.90 -0.10 -1.50 -0.35 -1.35 -0.60 0.15 -0.20 1.15 -0.30 2.25 -0.15 1.65 0.25 2 0.15 2 -0.55 0 -0.45 0.25 -0.80 0.50 -0.80 0.30 0 0.50 0.40 0.50 0.95 0 1.05 -1.25 1.40 -3.90 1.15z"/>
  <path d="M28.50 15.75 c0 -0.40 0.25 -0.75 0.50 -0.75 0.30 0 0.50 0.35 0.50 0.75 0 0.40 -0.20 0.75 -0.50 0.75 -0.25 0 -0.50 -0.35 -0.50 -0.75z"/>
  <path d="M15.50 15 c0 -0.65 0.25 -1 0.65 -0.85 0.30 0.10 0.60 0.50 0.60 0.85 0 0.35 -0.30 0.75 -0.60 0.90 -0.40 0.10 -0.65 -0.25 -0.65 -0.90z"/>
  <path d="M23.75 14.50 c-0.15 -0.25 -0.20 -0.50 -0.05 -0.50 0.10 0 0.55 -0.15 1 -0.30 0.55 -0.20 0.80 -0.05 0.80 0.50 0 0.90 -1.25 1.10 -1.75 0.30z"/>
  <path d="M17 13.25 c-0.50 -0.60 -0.50 -0.75 0.20 -0.75 0.45 0 0.80 0.35 0.80 0.75 0 0.40 -0.10 0.75 -0.20 0.75 -0.10 0 -0.45 -0.35 -0.80 -0.75z"/>
 </g>
 <g fill="#5f492f">
  <path d="M12.65 38.25 c-1.95 -2.10 -2.05 -2.75 -0.45 -2.75 1.60 0 2.40 1.10 2.20 3 l-0.15 1.50 -1.60 -1.75z"/>
  <path d="M15 37.45 c0 -0.95 0.35 -2.20 0.75 -2.75 0.40 -0.50 0.75 -1.35 0.75 -1.85 0 -1.60 2.20 -0.90 2.40 0.75 0.15 1.05 -0.35 1.90 -1.85 3.50 l-2.05 2.10 0 -1.75z"/>
  <path d="M16.40 38.40 c0.85 -1.05 3.60 -2.50 3.60 -1.95 0 0.95 -1.95 2.55 -3.05 2.55 -0.80 0 -0.95 -0.15 -0.55 -0.60z"/>
  <path d="M24.10 37.05 c-1.40 -1.75 -1.50 -2.15 -1.05 -3.45 0.40 -1.20 1.10 -1.70 3.45 -2.60 l2.90 -1.10 0.20 -3.20 c0.10 -2.55 0 -3.15 -0.50 -2.95 -0.55 0.20 -0.60 -0.20 -0.35 -1.85 0.50 -3.05 1.25 -4.15 1.25 -1.90 0.05 2.10 0.45 7.40 0.85 10.40 0.15 1.30 0.05 2.10 -0.25 2.10 -0.30 0 -0.70 0.50 -0.90 1.15 -0.35 1.15 -3.25 5.30 -3.75 5.35 -0.15 0 -1 -0.90 -1.85 -1.95z m0.90 -2.55 c0 -0.75 0.45 -1.10 1.50 -1.35 0.85 -0.15 1.75 -0.70 2 -1.20 0.45 -0.85 0.35 -0.80 -2 0.15 -2 0.85 -2.50 1.25 -2.50 2.20 0 0.65 0.25 1.20 0.50 1.20 0.30 0 0.50 -0.45 0.50 -1z"/>
  <path d="M30.20 35.80 c0.70 -1.25 1.30 -2.70 1.30 -3.30 0 -1 0.15 -1.05 2.15 -0.75 2.15 0.35 4.10 1.15 3.75 1.55 -0.15 0.10 -1 -0.05 -1.95 -0.30 -2.60 -0.75 -2.90 -0.65 -3.85 1.40 -0.45 1 -1 1.95 -1.20 2 -0.25 0.10 -0.40 0.50 -0.40 0.90 0 0.40 -0.25 0.70 -0.55 0.70 -0.30 0 0.05 -1 0.75 -2.20z"/>
  <path d="M5.50 33.80 c0 -0.65 1.40 -1.30 2.90 -1.30 0.30 0 0.60 0.45 0.60 1 0 0.80 -0.35 1 -1.75 1 -1.15 0 -1.75 -0.25 -1.75 -0.70z"/>
  <path d="M9.80 30.90 c-0.60 -2.30 0.15 -2.70 1.10 -0.65 0.75 1.65 0.75 1.75 -0.10 1.75 -0.35 0 -0.80 -0.50 -1 -1.10z"/>
  <path d="M21.50 27.50 c0 -0.65 0.35 -1 1 -1 0.90 0 0.95 0.15 0.50 1 -0.30 0.55 -0.75 1 -1 1 -0.30 0 -0.50 -0.45 -0.50 -1z"/>
  <path d="M13.50 24.85 c0 -1.65 0.10 -1.80 2 -2.10 1.25 -0.20 2 -0.60 2 -1.05 0 -0.60 0.20 -0.60 1 -0.10 1.05 0.70 1.40 3.60 0.50 4.15 -0.25 0.15 -1.60 0.45 -3 0.60 l-2.50 0.30 0 -1.80z"/>
  <path d="M21.80 25.55 c-0.35 -0.55 3.05 -2.35 3.55 -1.85 0.45 0.45 -1.65 2.30 -2.65 2.30 -0.35 0 -0.75 -0.20 -0.90 -0.45z"/>
  <path d="M22.50 22.35 c0 -1 1.25 -1.40 1.95 -0.70 0.40 0.40 0.55 0.20 0.55 -0.80 0 -1 0.25 -1.35 1 -1.35 0.70 0 1 0.35 1 1.15 0 1.65 -0.55 2.10 -2.60 2.25 -1.40 0.15 -1.90 0 -1.90 -0.55z"/>
  <path d="M30.75 21.15 c0.20 -0.50 0.55 -1.60 0.75 -2.45 0.20 -0.90 0.75 -2.15 1.20 -2.75 0.85 -1.15 0.85 -1.15 0.55 1.30 -0.20 1.40 -0.70 3 -1.05 3.65 -0.85 1.30 -1.95 1.50 -1.45 0.25z"/>
  <path d="M7.85 20.50 c-1.15 -1.35 -1.10 -2.50 0.15 -2.50 0.80 0 1 0.35 1 1.75 0 0.95 -0.05 1.75 -0.15 1.75 -0.05 0 -0.50 -0.45 -1 -1z"/>
  <path d="M13.60 16.70 c-0.35 -0.40 -0.85 -0.60 -1.10 -0.45 -0.60 0.40 -0.30 -1.15 0.40 -1.85 0.85 -0.85 1.35 -0.10 0.60 0.85 -0.55 0.65 -0.45 0.75 0.70 0.75 0.80 0 1.30 -0.25 1.30 -0.75 0 -0.40 0.35 -0.75 0.75 -0.75 0.90 0 0.95 0.60 0.15 1.40 -0.45 0.45 -0.40 0.60 0.25 0.60 0.45 0 0.85 0.25 0.85 0.50 0 0.80 -3.15 0.55 -3.90 -0.30z"/>
  <path d="M23.50 15.95 c0 -0.85 1 -2.45 1.50 -2.45 0.85 0 0.55 1.40 -0.35 1.65 -0.50 0.15 -0.10 0.25 0.85 0.30 1.35 0.05 1.55 0.20 1 0.55 -1 0.65 -3 0.65 -3 -0.05z"/>
  <path d="M8.65 13.85 c-1.10 -1.20 -1.85 -2.85 -1.25 -2.85 0.50 0 2.80 3.45 2.50 3.75 -0.10 0.15 -0.70 -0.25 -1.25 -0.90z"/>
  <path d="M22.50 10 l0 -3 1.75 0 c1.40 0 1.75 0.20 1.75 0.95 0 0.55 -0.40 1.05 -0.85 1.20 -0.70 0.15 -0.60 0.30 0.50 0.75 1.55 0.65 1.75 1.40 0.50 1.75 -0.85 0.20 -0.85 0.25 0 0.30 0.45 0 0.85 0.25 0.85 0.55 0 0.30 -0.45 0.30 -1.15 0.05 -0.70 -0.30 -1.50 -0.30 -1.90 0 -1.25 0.80 -1.45 0.50 -1.45 -2.55z"/>
  <path d="M32.55 12.15 c0 -0.50 0.20 -1.35 0.45 -1.90 0.35 -0.80 0.45 -0.65 0.45 0.90 0.05 1 -0.15 1.85 -0.45 1.85 -0.25 0 -0.50 -0.40 -0.45 -0.85z"/>
  <path d="M10.50 10.90 c0 -2.20 1.20 -4.55 3 -5.85 1.10 -0.80 1.80 -1.60 1.60 -1.80 -0.20 -0.25 0 -0.30 0.40 -0.15 0.45 0.15 2.45 -0.25 4.50 -0.90 2 -0.65 3.75 -1.10 3.90 -1 0.35 0.40 -0.45 1.30 -1.20 1.30 -0.95 0 -5.90 2.50 -6.10 3.05 -0.10 0.25 -0.65 0.45 -1.20 0.45 -1.75 0 -3.90 1.90 -3.90 3.50 0 0.80 -0.20 1.60 -0.50 1.75 -0.25 0.15 -0.50 0 -0.50 -0.35z"/>
  <path d="M8.35 9.80 c-1.15 -0.85 -1.10 -2.90 0.15 -4.30 0.55 -0.65 1 -1.55 1 -2 0 -1.25 2.80 -3.50 4.35 -3.50 1.30 0 1.30 0 -0.65 1.80 l-1.95 1.75 2 -1.40 c1.10 -0.75 2.10 -1.55 2.15 -1.75 0.25 -0.60 2.60 -0.50 2.60 0.10 0 0.30 -0.30 0.50 -0.65 0.50 -0.85 0 -4.50 2.50 -4.15 2.90 0.15 0.15 -0.50 0.80 -1.45 1.45 -1.25 0.85 -1.75 1.55 -1.75 2.55 0 2 -0.55 2.65 -1.65 1.90z"/>
  <path d="M26.50 5.75 c0 -1.40 0.20 -1.75 1 -1.75 0.70 0 1 0.35 1 1.05 0 0.55 -0.20 0.85 -0.50 0.70 -0.70 -0.45 -0.65 0.40 0.10 1.15 0.45 0.45 0.35 0.60 -0.50 0.60 -0.90 0 -1.10 -0.30 -1.10 -1.75z"/>
  <path d="M31.45 4.70 c-0.60 -1.25 -0.90 -2.40 -0.75 -2.55 0.15 -0.15 0.45 0.15 0.60 0.65 0.20 0.50 0.65 1.70 1 2.60 1 2.45 0.30 1.90 -0.85 -0.70z"/>
  <path d="M16.20 2.55 c0.15 -0.20 1 -0.70 1.90 -1.10 0.90 -0.35 1.80 -0.85 1.95 -1.10 0.20 -0.25 0.85 -0.35 1.50 -0.25 1.15 0.20 1.15 0.25 0.20 0.60 -0.55 0.20 -1.95 0.80 -3.15 1.35 -2.35 1.05 -2.80 1.15 -2.40 0.50z"/>
 </g>
 <g fill="#894f1f">
  <path d="M15.80 38.70 c-0.55 -1.40 -0.30 -2.70 0.45 -2.70 0.90 0 0.95 0.25 0.20 1.60 -0.55 1.05 -0.55 1.05 1 -0.05 l1.55 -1.10 0 1.50 c0 1.35 -0.15 1.55 -1.45 1.55 -0.85 0 -1.55 -0.30 -1.75 -0.80z"/>
  <path d="M9 35.40 c0 -0.95 0.10 -1 0.50 -0.40 0.65 0.95 0.65 1.50 0 1.50 -0.25 0 -0.50 -0.50 -0.50 -1.10z"/>
  <path d="M10.65 34.75 c-0.55 -1.65 -0.50 -1.75 0.65 -1.75 1.05 0 1.20 0.25 1.20 1.75 0 1.10 -0.25 1.75 -0.65 1.75 -0.40 0 -0.90 -0.80 -1.20 -1.75z"/>
  <path d="M11 31.50 c0 -0.60 1.35 -0.60 2.75 0 0.80 0.35 0.65 0.45 -0.85 0.45 -1.05 0.05 -1.90 -0.15 -1.90 -0.45z"/>
  <path d="M28.70 30.25 c0.45 -0.35 0.80 -1.15 0.80 -1.80 0 -1.10 0 -1.10 0.75 -0.15 1.25 1.65 0.95 2.65 -0.80 2.60 -1.40 -0.05 -1.50 -0.15 -0.75 -0.65z"/>
  <path d="M11.95 29.15 c-0.25 -0.75 -0.40 -1.90 -0.30 -2.60 0.15 -1.20 0.25 -1.10 1.20 0.95 0.60 1.20 0.95 2.40 0.85 2.60 -0.50 0.80 -1.25 0.40 -1.75 -0.95z"/>
  <path d="M16.85 29.30 c-1.90 -1 -4.30 -3.85 -5.35 -6.25 -0.75 -1.70 -0.75 -5.40 0 -6.30 0.45 -0.50 1.40 -0.65 3.75 -0.50 2.30 0.15 3.30 0 3.75 -0.50 0.45 -0.55 0.35 -0.85 -0.45 -1.35 -1.30 -0.80 -1.35 -1.40 -0.05 -1.40 0.55 0 1 -0.30 1 -0.70 0 -0.35 0.65 -0.80 1.45 -0.95 1.30 -0.25 1.50 -0.55 1.65 -2.20 0.15 -1.65 0.35 -1.95 1.55 -2.15 l1.45 -0.25 -1.05 -1.35 c-0.60 -0.70 -1.05 -1.55 -1.05 -1.85 0 -0.30 -0.45 -0.55 -1 -0.55 -0.55 0 -1 0.25 -1 0.50 0 0.30 -0.80 0.50 -1.75 0.50 -2.95 0 -2.10 -1.25 1.45 -2.20 4.30 -1.20 5.35 -0.95 6.55 1.35 0.85 1.60 0.90 1.95 0.25 2.35 -0.60 0.40 -0.55 0.60 0.35 1.60 1.05 1.20 2.15 3.05 2.15 3.70 0 0.20 -0.30 0.05 -0.65 -0.40 -0.30 -0.40 -1.80 -1 -3.25 -1.25 -2.10 -0.40 -2.50 -0.40 -2.05 0.15 0.30 0.35 1.20 0.80 2 0.95 1.80 0.40 2.05 0.75 1.20 1.95 -0.55 0.70 -0.90 0.80 -1.60 0.35 -0.85 -0.50 -0.85 -0.50 0.10 -0.55 0.60 -0.05 0.75 -0.20 0.35 -0.35 -1.05 -0.40 -5.50 1.95 -5.80 3.10 -0.55 1.95 -0.35 3.75 0.45 3.75 1.05 0 0.90 0.80 -0.30 1.70 -1.15 0.80 -2.35 0.60 -3.30 -0.60 -0.50 -0.60 -0.75 -0.65 -1.40 -0.10 -0.40 0.35 -0.75 0.90 -0.75 1.20 0 0.35 0.15 0.35 0.40 -0.05 0.45 -0.75 3.60 1.55 3.60 2.65 0 0.40 0.40 0.70 0.90 0.70 0.70 0 0.75 -0.10 0.10 -0.50 -0.50 -0.30 -0.60 -0.60 -0.20 -1 0.80 -0.80 3.65 -1.50 3.95 -0.95 0.45 0.70 -0.20 1.45 -1.30 1.45 -0.60 0 -0.95 0.25 -0.80 0.65 0.25 0.65 0.45 0.65 2.25 0.10 1.50 -0.45 1.45 0.50 -0.10 1.50 -0.75 0.50 -1.65 0.70 -2.50 0.45 -1.35 -0.30 -6.30 0.65 -6.30 1.25 0 0.85 0.70 0.95 1.70 0.30 1.30 -0.95 5.80 -1 5.80 -0.10 0 0.90 -1.95 2.65 -3.25 2.95 -0.55 0.10 -1.85 -0.25 -2.90 -0.80z m1.15 -5.10 c0 -0.10 -0.80 -0.20 -1.80 -0.20 -0.95 0 -1.65 0.20 -1.50 0.40 0.25 0.40 3.30 0.20 3.30 -0.20z m-3.80 -4.05 c0.30 -1.95 0.20 -2.15 -0.70 -2.15 -1.15 0 -1.30 1.25 -0.40 3.25 0.70 1.50 0.70 1.55 1.10 -1.10z"/>
  <path d="M24.80 26.55 c-0.15 -0.25 0.05 -0.70 0.45 -1.05 0.60 -0.50 0.75 -0.50 0.75 0.15 0 0.95 -0.80 1.55 -1.20 0.90z"/>
  <path d="M29.50 25.15 c0 -1.05 0.15 -1.20 0.45 -0.70 0.25 0.40 0.35 1 0.20 1.40 -0.40 1.05 -0.65 0.75 -0.65 -0.70z"/>
  <path d="M28.75 21.85 c0.20 -1.15 0.60 -2.30 0.85 -2.60 0.35 -0.35 0.45 0 0.25 1 -0.15 0.80 -0.05 1.85 0.20 2.30 0.30 0.65 0.15 0.90 -0.60 1.10 -0.95 0.25 -1 0.10 -0.70 -1.80z"/>
  <path d="M25.55 21.85 c-0.30 -0.80 -0.55 -1.55 -0.55 -1.70 0 -0.15 -0.85 -1.05 -1.85 -1.95 -1.80 -1.60 -1.85 -1.70 -0.90 -2.30 1.10 -0.65 5.75 -0.90 5.75 -0.30 0 0.25 -0.50 0.40 -1.10 0.40 -1.15 0 -1.15 0 0.10 1 1.10 0.85 1.15 1.10 0.65 1.95 -0.35 0.60 -0.65 1.45 -0.65 1.90 0 0.50 -0.20 1.25 -0.50 1.65 -0.35 0.55 -0.55 0.45 -0.95 -0.65z"/>
  <path d="M8.50 21.55 c-0.65 -1.30 -0.65 -1.55 0.25 -1.55 0.40 0 0.75 0.20 0.75 0.45 0 0.25 0.15 0.80 0.30 1.25 0.45 1.15 -0.65 1 -1.30 -0.15z"/>
  <path d="M30.75 21.15 c0.20 -0.50 0.55 -1.65 0.75 -2.60 0.25 -0.90 0.65 -1.90 0.95 -2.20 0.30 -0.30 0.55 -1 0.55 -1.55 -0.05 -1.05 -0.05 -1.05 -0.75 -0.10 -1.20 1.60 -1.15 0.75 0.10 -2.20 l1.20 -2.75 -0.25 4.25 c-0.30 5.15 -1.05 8 -2.15 8 -0.50 0 -0.65 -0.25 -0.40 -0.85z"/>
  <path d="M6.60 17.15 c-0.65 -2.85 0 -3.95 1.20 -2.20 0.55 0.75 1.15 1.05 1.75 0.90 1.15 -0.30 1.15 -0.30 0.25 1.90 -1.10 2.65 -2.50 2.35 -3.20 -0.60z"/>
  <path d="M28.50 15.75 c0 -0.40 0.35 -0.75 0.75 -0.75 0.45 0 0.60 0.30 0.45 0.75 -0.20 0.40 -0.50 0.75 -0.75 0.75 -0.25 0 -0.45 -0.35 -0.45 -0.75z"/>
  <path d="M8.70 13.95 c-0.50 -0.55 -1.30 -0.90 -1.80 -0.80 -0.50 0.15 -0.90 0.05 -0.90 -0.20 0 -0.25 0.65 -0.45 1.40 -0.45 1.05 0 1.60 0.35 2 1.25 0.70 1.50 0.55 1.55 -0.70 0.20z"/>
  <path d="M11.25 13 c-1 -1.10 -0.70 -1.30 0.85 -0.45 0.70 0.40 1.15 0.40 1.55 0 0.40 -0.40 0.15 -0.55 -0.90 -0.55 -1.15 0 -1.30 -0.15 -0.85 -0.60 0.35 -0.35 1.35 -0.90 2.20 -1.20 0.90 -0.30 1.70 -0.80 1.80 -1.10 0.10 -0.35 -0.10 -0.50 -0.60 -0.30 -0.60 0.20 -0.80 0 -0.80 -0.75 0 -1.60 -0.85 -1.25 -1.25 0.45 -0.35 1.50 -2.35 3.45 -2.65 2.55 -0.35 -1.10 1.05 -4.60 2.25 -5.50 1.70 -1.35 2.15 -1.30 2.15 0.20 0 1.05 0.25 1.25 1.50 1.25 1.40 0 1.50 0.15 1.50 1.75 0 1.40 -0.20 1.75 -0.95 1.75 -0.70 0 -0.90 0.25 -0.70 0.95 0.20 0.75 -0.10 1.05 -1.30 1.30 -0.85 0.15 -1.65 0.55 -1.80 0.80 -0.45 0.70 -1 0.55 -2 -0.55z"/>
 </g>
 <g fill="#816644">
  <path d="M12.25 37.50 c-0.95 -1.05 -2.25 -4.15 -2.25 -5.35 0 -0.35 0.45 -0.65 1 -0.65 0.80 0 1 0.35 1 1.50 0 1.35 0.15 1.50 1.50 1.50 1.40 0 1.50 0.10 1.50 2 0 1.60 -0.20 2 -0.90 2 -0.55 0 -1.35 -0.45 -1.85 -1z"/>
  <path d="M5 36.25 c0 -1.15 0.25 -1.75 0.65 -1.70 1.90 0.25 2.85 -0.10 2.85 -1 0 -0.55 0.25 -1.15 0.50 -1.30 0.30 -0.20 0.50 0.25 0.40 1.20 -0.05 0.85 -0.30 1.55 -0.50 1.55 -0.20 0 -0.40 0.70 -0.40 1.50 0 1.75 -0.30 1.85 -1.65 0.65 -0.95 -0.85 -1 -0.85 -0.70 0 0.20 0.55 0.05 0.85 -0.40 0.85 -0.50 0 -0.75 -0.55 -0.75 -1.75z m3 -0.75 c0 -0.25 -0.35 -0.50 -0.75 -0.50 -0.40 0 -0.75 0.25 -0.75 0.50 0 0.30 0.35 0.50 0.75 0.50 0.40 0 0.75 -0.20 0.75 -0.50z"/>
  <path d="M9.55 36.65 c0 -1.25 0.05 -1.30 0.45 -0.40 0.60 1.35 0.60 1.75 0 1.75 -0.25 0 -0.50 -0.60 -0.45 -1.35z"/>
  <path d="M26.50 36.85 c0 -0.85 0.35 -1.40 1.05 -1.60 0.80 -0.25 0.90 -0.45 0.40 -1.05 -0.50 -0.60 -0.40 -0.95 0.50 -1.85 1.15 -1.25 1.45 -2.30 0.40 -1.45 -1 0.85 -3.35 1.65 -3.35 1.10 0 -0.25 1 -0.90 2.20 -1.45 1.90 -0.80 2.20 -1.15 1.95 -2.15 -0.25 -1.15 -0.25 -1.15 0.50 -0.15 0.90 1.10 1.10 3.50 0.40 3.95 -0.25 0.20 -0.95 1.30 -1.55 2.50 -0.55 1.25 -1.40 2.50 -1.80 2.80 -0.60 0.50 -0.70 0.40 -0.70 -0.65z"/>
  <path d="M29.50 37.20 c0 -0.25 0.35 -0.95 0.75 -1.50 0.40 -0.50 0.75 -0.70 0.75 -0.40 0 0.25 -0.35 0.95 -0.75 1.50 -0.40 0.50 -0.75 0.70 -0.75 0.40z"/>
  <path d="M23.60 36.40 c-0.70 -0.70 -0.80 -2.40 -0.15 -2.40 0.45 0 1.25 2.45 0.90 2.80 -0.10 0.10 -0.45 -0.10 -0.75 -0.40z"/>
  <path d="M0.60 35.90 c0.15 -0.35 0.95 -0.90 1.80 -1.25 1.55 -0.65 1.60 -0.60 1.60 0.60 0 1.10 -0.20 1.25 -1.80 1.25 -1.15 0 -1.70 -0.20 -1.60 -0.60z"/>
  <path d="M37.75 34 c-1.10 -0.50 -2.55 -1.15 -3.25 -1.45 -1.20 -0.50 -1.20 -0.50 0.25 -0.25 2.05 0.35 5.25 1.75 5.25 2.30 0 0.50 0.20 0.55 -2.25 -0.60z"/>
  <path d="M31.40 33.05 c0.10 -0.85 0.40 -1.55 0.65 -1.55 0.85 0 0.85 0.80 0 1.95 l-0.90 1.15 0.25 -1.55z"/>
  <path d="M14.40 33.65 c-1.60 -0.20 -1.90 -0.40 -1.90 -1.35 0 -1.10 0.15 -1.15 1.90 -0.75 1 0.25 2.45 0.55 3.25 0.70 0.75 0.15 1.35 0.60 1.35 1 0 0.75 -0.60 0.80 -4.60 0.40z"/>
  <path d="M18 29 c0 -0.80 0.35 -1 1.75 -1 1.95 0 2.30 0.70 0.80 1.50 -1.55 0.80 -2.55 0.60 -2.55 -0.50z"/>
  <path d="M13.85 26.15 c-0.20 -0.15 -0.35 -1.05 -0.35 -2 0 -1.55 0.10 -1.65 1.65 -1.65 0.85 0 2.10 -0.15 2.75 -0.30 0.90 -0.25 1.20 -0.10 1.45 0.75 0.15 0.55 0.60 1.05 0.95 1.05 0.40 0 0.70 0.30 0.70 0.65 0 0.40 -1.15 0.90 -2.90 1.25 -3.35 0.70 -3.80 0.70 -4.25 0.25z m3.90 -2.15 c-0.30 -0.45 -2.15 -0.10 -2.50 0.45 -0.10 0.20 0.45 0.25 1.25 0.15 0.85 -0.10 1.40 -0.40 1.25 -0.60z"/>
  <path d="M21.50 24.75 c0 -0.45 0.20 -0.70 0.45 -0.55 0.25 0.20 1.05 0.10 1.80 -0.20 1.15 -0.45 1.30 -0.40 1.15 0.35 -0.20 1.25 -3.40 1.60 -3.40 0.40z"/>
  <path d="M25.50 21 c0 -0.55 0.25 -1 0.50 -1 0.30 0 0.50 0.45 0.50 1 0 0.55 -0.20 1 -0.50 1 -0.25 0 -0.50 -0.45 -0.50 -1z"/>
  <path d="M30.50 21.75 c0 -0.15 0.40 -0.85 0.85 -1.60 0.45 -0.70 1.15 -2.65 1.50 -4.35 l0.65 -3.05 -0.25 2.75 c-0.35 3.85 -1.15 6.50 -2 6.50 -0.40 0 -0.75 -0.10 -0.75 -0.25z"/>
  <path d="M17.80 19.75 c-0.40 -0.40 -0.95 -0.75 -1.25 -0.75 -0.30 0 -0.55 -0.20 -0.55 -0.50 0 -0.25 0.45 -0.50 1 -0.50 0.55 0 1 0.25 1 0.55 0 0.25 0.25 0.35 0.55 0.15 0.30 -0.15 0.45 -0.70 0.30 -1.20 -0.10 -0.45 0 -1.25 0.25 -1.75 0.40 -0.60 0.30 -1 -0.15 -1.30 -0.50 -0.30 -0.30 -0.45 0.65 -0.45 1.30 0 1.35 0.10 0.85 1.30 -0.55 1.55 -0.20 3.05 0.80 3.30 1.05 0.20 0.20 1.20 -1.35 1.55 -0.90 0.25 -1.60 0.10 -2.10 -0.40z"/>
  <path d="M8 17.85 c0 -1.30 0.20 -1.65 1 -1.70 1.10 -0.10 1.30 0.85 0.50 2.40 -0.80 1.45 -1.50 1.15 -1.50 -0.70z"/>
  <path d="M23.65 18.15 c-0.95 -0.35 -0.80 -1.55 0.25 -1.80 0.90 -0.20 3.60 1.10 3.60 1.75 0 0.45 -2.85 0.50 -3.85 0.05z"/>
  <path d="M12 17.30 c0 -0.65 1.40 -1.30 2.90 -1.30 0.30 0 0.60 0.45 0.60 1 0 0.80 -0.35 1 -1.75 1 -1.15 0 -1.75 -0.25 -1.75 -0.70z"/>
  <path d="M12.30 15.60 c-0.15 -0.30 -0.05 -0.70 0.25 -0.85 0.75 -0.50 1.25 0.15 0.60 0.80 -0.35 0.35 -0.65 0.35 -0.85 0.05z"/>
  <path d="M6.10 12.35 c0.10 -0.60 0.55 -1.15 1.05 -1.25 1.25 -0.25 1.10 1.70 -0.20 2.05 -0.80 0.20 -1 0.05 -0.85 -0.80z"/>
  <path d="M23 11.25 c0 -1.10 0.20 -1.25 1.75 -1.25 2.15 0 2.25 0.70 0.25 1.75 -1.90 1 -2 0.95 -2 -0.50z"/>
  <path d="M12.10 11.40 c0.30 -0.85 3.90 -2 3.90 -1.25 0 0.65 -2.25 1.85 -3.40 1.85 -0.35 0 -0.60 -0.25 -0.50 -0.60z"/>
  <path d="M11 10 c0 -0.55 0.35 -1 0.75 -1 0.40 0 0.75 -0.35 0.75 -0.75 0 -0.50 0.55 -0.75 1.75 -0.75 2.35 0 2.20 0.65 -0.55 2.20 -2.80 1.55 -2.70 1.55 -2.70 0.30z"/>
  <path d="M24.70 8.60 c-0.35 -0.20 -0.75 -1.85 -0.95 -3.70 l-0.35 -3.40 1.70 0 c1.45 0 1.85 0.25 2.55 1.75 1.20 2.50 1.05 2.75 -0.45 0.90 -0.70 -0.90 -1.50 -1.65 -1.75 -1.65 -0.50 0 0.95 2.30 2.80 4.40 0.85 1 0.85 1.20 0.25 1.60 -0.90 0.60 -3 0.65 -3.80 0.10z"/>
  <path d="M9.25 6 c-0.15 -0.25 -0.15 -0.80 0.05 -1.10 0.25 -0.35 0.45 -1 0.45 -1.45 0.10 -1.15 2.75 -3.40 4 -3.40 0.85 0 0.75 0.20 -0.60 1.35 -0.90 0.75 -1.95 2.20 -2.40 3.25 -0.80 1.95 -1 2.15 -1.50 1.35z"/>
  <path d="M13.30 5.25 c1.25 -0.95 2 -0.95 1.20 0 -0.35 0.40 -1 0.75 -1.40 0.75 -0.65 0 -0.60 -0.15 0.20 -0.75z"/>
  <path d="M12 4.05 c0 -0.25 0.75 -1.05 1.65 -1.75 0.85 -0.75 1.85 -1.55 2.20 -1.80 0.35 -0.30 1 -0.50 1.50 -0.45 0.85 0 0.85 0.05 -0.05 0.60 -0.50 0.35 -1.90 1.35 -3.10 2.20 -1.20 0.90 -2.20 1.45 -2.20 1.20z"/>
  <path d="M16.05 4.15 c-0.45 -0.20 -0.10 -0.50 0.95 -0.95 2.20 -0.95 3 -0.85 3 0.30 0 0.80 -0.30 1 -1.60 0.95 -0.90 0 -1.95 -0.15 -2.35 -0.30z"/>
 </g>
 <g fill="#d73223">
  <path d="M16 39.30 c0 -0.90 3.55 -3.30 4.90 -3.30 0.60 0 1.10 0.10 1.10 0.20 0 0.10 -0.80 1 -1.80 2 -1.80 1.80 -4.20 2.45 -4.20 1.10z"/>
  <path d="M14.50 38.35 c0 -1.35 0.90 -2.15 2.05 -1.75 0.35 0.10 0.10 0.75 -0.70 1.65 l-1.30 1.50 -0.05 -1.40z"/>
  <path d="M17 35.50 c0 -0.35 1.20 -1 1.80 -1 0.65 0 0.05 0.95 -0.80 1.15 -0.55 0.15 -1 0.10 -1 -0.15z"/>
 </g>
 <g fill="#59568b">
  <path d="M5.50 39 c0 -0.55 -0.20 -1 -0.50 -1 -0.25 0 -0.50 -0.75 -0.50 -1.70 0 -1.65 0 -1.65 2.45 -1.70 2.30 -0.10 2.50 0 3 1.50 0.30 0.85 0.55 2.10 0.55 2.70 0 1 -0.25 1.20 -1.50 1.20 -1.50 0 -2 -0.65 -1 -1.25 0.30 -0.20 0.05 -0.70 -0.60 -1.25 -1.05 -0.85 -1.05 -0.95 -0.25 -1.25 1 -0.40 1.15 -1.25 0.15 -1.25 -1 0 -1.45 2.15 -0.55 2.80 0.90 0.65 0.50 2.20 -0.55 2.20 -0.40 0 -0.70 -0.45 -0.70 -1z"/>
  <path d="M12.60 37.90 c-0.90 -1.15 -1.60 -2.45 -1.55 -2.85 0 -0.50 0.25 -0.30 0.60 0.45 0.70 1.55 1.30 2 2.75 2 1.20 0 1.45 1.05 0.45 1.90 -0.50 0.45 -1.05 0.10 -2.25 -1.50z"/>
  <path d="M28.10 38.65 c1.80 -2 3.40 -4.85 3.40 -6.10 0 -0.55 0.20 -1.05 0.40 -1.05 0.80 0 1.05 0.60 0.55 1.45 -0.60 0.95 0.20 3.55 1.05 3.55 0.30 0 0.40 0.25 0.25 0.50 -0.15 0.30 -0.75 0.50 -1.35 0.50 -0.85 0 -0.95 0.20 -0.70 1.25 0.30 1.20 0.25 1.25 -2.30 1.25 l-2.60 0 1.30 -1.35z"/>
  <path d="M33.50 39.15 c0 -0.40 0.35 -0.80 0.75 -0.95 1.05 -0.40 0.95 -1.30 -0.30 -2.90 -1.55 -1.95 -0.10 -1.60 1.75 0.45 0.90 0.95 2 1.75 2.45 1.75 0.55 0 0.85 0.40 0.85 1.15 0 1.05 -0.20 1.15 -2.75 1.15 -1.95 0 -2.75 -0.20 -2.75 -0.65z"/>
  <path d="M0 36.30 c0 -0.40 0.70 -0.95 1.50 -1.25 1.40 -0.45 1.50 -0.40 1.50 0.75 0 1 -0.25 1.20 -1.50 1.20 -0.95 0 -1.50 -0.25 -1.50 -0.70z"/>
  <path d="M37.90 33.95 c-1.05 -0.55 -1.90 -1.10 -1.90 -1.20 0 -0.15 0.90 0.20 2 0.75 1.10 0.55 2 1.15 2 1.25 0 0.35 0 0.35 -2.10 -0.80z"/>
  <path d="M7.50 33.30 c0 -0.35 0.45 -0.80 1 -0.95 0.75 -0.20 1 0 1 0.70 0 0.60 -0.35 0.95 -1 0.95 -0.55 0 -1 -0.30 -1 -0.70z"/>
  <path d="M30 30.95 c0 -0.55 0.25 -0.85 0.50 -0.70 0.30 0.15 0.50 0.65 0.50 1.05 0 0.40 -0.20 0.70 -0.50 0.70 -0.25 0 -0.50 -0.45 -0.50 -1.05z"/>
  <path d="M11.25 17.10 c0.85 -0.80 3.85 -1.20 3.65 -0.45 -0.15 0.30 -1.10 0.65 -2.20 0.75 -1.20 0.10 -1.75 0 -1.45 -0.30z"/>
  <path d="M12.35 15.65 c-0.20 -0.30 0 -0.80 0.40 -1.15 1.05 -0.85 1.40 -0.40 0.55 0.75 -0.40 0.55 -0.75 0.70 -0.95 0.40z"/>
 </g>
 <g fill="#bc6e2e">
  <path d="M16.50 39.35 c0 -0.85 1.60 -2.35 2.45 -2.35 0.35 0 0.50 0.30 0.35 0.65 -0.15 0.30 -0.45 1 -0.60 1.50 -0.35 1 -2.20 1.15 -2.20 0.20z"/>
  <path d="M15 38.05 c0 -0.60 0.30 -1.05 0.75 -1.05 0.40 0 0.75 0.20 0.75 0.45 0 0.25 -0.35 0.70 -0.75 1.05 -0.65 0.50 -0.75 0.45 -0.75 -0.45z"/>
  <path d="M14.50 32.95 c0 -0.85 0.25 -1 1.60 -0.85 1.10 0.10 1.70 0.45 1.80 1.05 0.15 0.70 -0.20 0.85 -1.60 0.85 -1.50 0 -1.80 -0.20 -1.80 -1.05z"/>
  <path d="M11.95 28.65 c-0.80 -2.15 -0.30 -3.15 0.70 -1.30 0.95 1.85 1.10 2.65 0.35 2.65 -0.30 0 -0.75 -0.60 -1.05 -1.35z"/>
  <path d="M17.30 29.25 c-1.05 -0.80 -0.75 -2.25 0.45 -2.25 0.50 0 0.75 0.50 0.75 1.50 0 1.70 0.05 1.70 -1.20 0.75z"/>
  <path d="M13.05 25.05 c-1.85 -3 -2.10 -3.80 -1.95 -5.85 0.10 -1.85 0.35 -2.50 1.05 -2.60 0.70 -0.15 0.85 0.20 0.85 1.75 0 1.05 0.50 2.95 1.10 4.20 1.05 2.10 1.30 2.30 2.55 2.10 2 -0.40 1.85 1.15 -0.20 1.60 -1.15 0.25 -1.40 0.50 -1 0.90 0.65 0.65 0.70 1.35 0.10 1.35 -0.25 0 -1.35 -1.55 -2.50 -3.45z"/>
  <path d="M8.50 21.50 c-0.40 -0.80 -0.40 -1 0.15 -1 0.40 0 0.85 0.45 1 1 0.15 0.55 0.05 1 -0.20 1 -0.20 0 -0.65 -0.45 -0.95 -1z"/>
  <path d="M18 19.75 c-0.35 -0.45 -1.45 -0.75 -2.60 -0.75 -1.85 0 -1.95 -0.10 -1.80 -1.35 0.10 -1 0.45 -1.45 1.30 -1.55 0.60 -0.10 1.10 0.10 1.10 0.40 0 0.35 0.40 0.45 1 0.25 0.85 -0.25 1 -0.10 1 1 0 0.80 0.20 1.20 0.55 0.95 0.30 -0.15 0.45 -0.75 0.30 -1.25 -0.15 -0.55 -0.05 -0.85 0.20 -0.65 0.60 0.35 0.60 3.70 0 3.70 -0.25 0 -0.70 -0.35 -1.05 -0.75z"/>
  <path d="M25.10 19.90 c-0.65 -0.65 -0.80 -2.50 -0.30 -3.05 0.45 -0.40 2.70 0.70 2.70 1.35 -0.05 0.60 -1.20 2.30 -1.60 2.30 -0.10 0 -0.45 -0.25 -0.80 -0.60z"/>
  <path d="M7 18.60 c0 -0.20 0.30 -0.70 0.65 -1.05 0.50 -0.50 0.45 -0.60 -0.15 -0.45 -0.50 0.10 -0.80 -0.30 -0.90 -1.20 -0.20 -1.60 0.60 -1.85 1.40 -0.40 0.30 0.55 0.80 0.85 1.25 0.70 0.85 -0.35 0.95 0.45 0.25 1.85 -0.50 0.90 -2.50 1.35 -2.50 0.55z"/>
  <path d="M19.25 15.40 c0.25 -0.70 -2.80 -2.90 -4.05 -2.90 -0.40 0 -0.70 -0.20 -0.70 -0.45 0 -0.20 -0.55 -0.30 -1.25 -0.15 -1.65 0.30 -1.60 -0.55 0 -1.30 2 -0.90 3.25 -0.75 3.25 0.40 0 0.75 0.35 1 1.40 1 0.75 0 1.65 0.20 2 0.45 0.80 0.50 0.60 3.15 -0.30 3.45 -0.35 0.10 -0.50 -0.10 -0.35 -0.50z"/>
  <path d="M8.50 13.75 c-0.40 -0.45 -1.10 -0.70 -1.60 -0.55 -0.70 0.15 -0.90 0 -0.80 -0.60 0.25 -1.35 1.75 -1.25 2.70 0.15 0.95 1.45 0.70 2.20 -0.30 1z"/>
  <path d="M10.50 10.30 c0 -0.40 0.20 -0.85 0.50 -1.05 0.25 -0.15 0.35 -0.60 0.20 -0.95 -0.15 -0.35 0.50 -1.40 1.40 -2.35 l1.65 -1.65 0.15 1.45 c0.10 0.90 -0.10 1.65 -0.60 2.05 -0.45 0.30 -0.80 0.90 -0.80 1.30 0 0.90 -1 1.90 -1.85 1.90 -0.35 0 -0.65 -0.30 -0.65 -0.70z"/>
  <path d="M26.60 9.10 c-0.35 -0.25 -0.50 -0.95 -0.40 -1.65 0.15 -0.65 0.25 -1.35 0.25 -1.55 0.05 -0.20 0.65 0.20 1.35 0.85 1.10 1.05 1.25 1.35 0.70 2 -0.70 0.85 -1 0.90 -1.90 0.35z"/>
 </g>
 <g fill="#a17547">
  <path d="M15 33.05 c0 -0.95 0.35 -1.05 3.15 -0.60 0.20 0 0.35 0.40 0.35 0.80 0 0.50 -0.55 0.75 -1.75 0.75 -1.40 0 -1.75 -0.20 -1.75 -0.95z"/>
  <path d="M29.50 31 c0 -0.25 -0.40 -0.35 -0.85 -0.15 -0.75 0.25 -0.75 0.15 0.10 -0.50 0.75 -0.55 0.95 -1.30 0.90 -3.15 l-0.05 -2.45 0.40 2 c0.20 1.10 0.55 2.60 0.70 3.40 0.25 1 0.15 1.35 -0.45 1.35 -0.40 0 -0.75 -0.20 -0.75 -0.50z"/>
  <path d="M18 29.25 c0 -0.45 -0.20 -0.70 -0.45 -0.50 -0.95 0.55 -1.20 -0.90 -0.30 -1.60 1 -0.70 5.75 -0.90 5.75 -0.25 0 0.75 -2.25 2.50 -3.60 2.85 -1.10 0.30 -1.40 0.20 -1.40 -0.50z"/>
  <path d="M12 28.50 c-0.05 -0.15 -0.20 -0.80 -0.30 -1.50 -0.15 -0.90 -0.10 -1.10 0.35 -0.65 0.30 0.30 0.45 0.95 0.30 1.45 -0.15 0.55 -0.30 0.85 -0.35 0.70z"/>
  <path d="M14.75 27.95 c-0.20 -0.30 -0.25 -0.65 -0.10 -0.80 0.35 -0.35 1.35 0.30 1.35 0.90 0 0.60 -0.85 0.60 -1.25 -0.10z"/>
  <path d="M14.15 25.95 c-0.40 -0.40 -0.65 -1.90 -0.65 -3.55 0 -2.70 0.10 -2.90 1.15 -2.90 1 0 1.15 0.20 0.95 1.50 -0.20 1.50 -0.20 1.50 1.20 1 1.05 -0.40 1.55 -0.40 2.10 0.20 1.05 1 0.35 1.70 -1.70 1.70 -1.65 0 -2.60 0.35 -2.15 0.80 0.10 0.10 1.35 0 2.70 -0.25 1.40 -0.30 3.15 -0.35 3.90 -0.25 0.80 0.15 1.85 0.05 2.40 -0.20 0.55 -0.30 0.95 -0.35 0.95 -0.10 0 0.95 -1.35 1.45 -4.75 1.75 -1.90 0.20 -3.95 0.45 -4.50 0.60 -0.55 0.15 -1.30 0 -1.60 -0.30z"/>
  <path d="M20.25 23 c-0.15 -0.25 -0.20 -0.50 -0.05 -0.50 0.10 0 0.55 -0.15 1 -0.30 0.55 -0.20 0.80 -0.05 0.80 0.50 0 0.90 -1.25 1.10 -1.75 0.30z"/>
  <path d="M25.60 20.90 c-0.30 -0.75 -1.25 -1.85 -2.05 -2.45 -2.20 -1.60 -2 -2.40 0.35 -1.95 2.60 0.45 3.30 0.90 2.60 1.75 -0.30 0.35 -0.35 0.75 -0.15 0.85 0.25 0.05 0.30 0.85 0.10 1.65 l-0.30 1.50 -0.55 -1.35z"/>
  <path d="M30.50 21.90 c0 -0.10 0.60 -1.25 1.30 -2.65 l1.25 -2.50 -0.35 2 c-0.35 2.05 -1 3.25 -1.75 3.25 -0.25 0 -0.45 -0.05 -0.45 -0.10z"/>
  <path d="M7.50 19.75 c-0.60 -1.15 -0.55 -1.40 0.50 -2.50 1.55 -1.65 2.20 -1.60 1.70 0.15 -0.20 0.75 -0.35 1.85 -0.35 2.50 0.05 1.50 -1 1.40 -1.85 -0.15z"/>
  <path d="M18 19.75 c-0.35 -0.40 -0.95 -0.75 -1.30 -0.75 -1.05 0 -0.85 -1.20 0.35 -1.95 1 -0.60 1.05 -0.55 0.85 0.65 -0.20 0.85 -0.05 1.25 0.30 1.15 0.30 -0.10 0.60 -0.75 0.60 -1.40 0.05 -0.65 0.25 -1.55 0.45 -2 0.15 -0.50 0.10 -1 -0.15 -1.15 -0.95 -0.55 0.15 -3.05 1.45 -3.30 0.65 -0.15 1.65 -0.55 2.20 -0.85 0.80 -0.50 0.85 -0.70 0.30 -1.10 -0.50 -0.35 -0.60 -1.10 -0.40 -3 l0.30 -2.55 -1.45 0 c-2.60 0 -1.80 -1.35 1.20 -2.05 3.30 -0.70 3.90 -0.50 4.95 1.60 1.05 2.20 0.70 2.40 -0.85 0.65 -0.65 -0.80 -1.40 -1.25 -1.65 -1.05 -0.20 0.25 0 0.70 0.50 1.05 0.45 0.35 0.85 0.90 0.85 1.15 0 0.30 0.45 1.10 1.05 1.85 0.60 0.75 0.75 1.30 0.45 1.30 -0.35 0 -0.45 0.35 -0.30 0.80 0.20 0.60 0.05 0.70 -0.70 0.50 -0.55 -0.15 -1.50 -0.45 -2.05 -0.60 -0.75 -0.20 -1 -0.10 -0.85 0.35 0.15 0.40 1.05 0.90 2.05 1.10 1 0.25 1.85 0.65 1.85 0.95 0 0.25 -0.40 0.35 -0.90 0.20 -0.45 -0.15 -1.70 0.15 -2.75 0.70 -1 0.55 -2.15 1 -2.50 1 -0.70 0 -1.85 2.70 -1.85 4.40 0 0.75 0.30 1.10 1 1.10 0.90 0 0.95 0.15 0.50 1 -0.65 1.20 -2.60 1.30 -3.50 0.25z"/>
  <path d="M12.50 11.40 c0 -0.25 0.75 -0.75 1.70 -1.15 2.10 -0.90 3.05 -2.05 1.25 -1.50 -0.65 0.20 -1.40 0.55 -1.65 0.80 -0.75 0.65 -1.30 0.55 -1.30 -0.30 0 -0.40 0.45 -0.75 1 -0.75 0.55 0 1 -0.20 1 -0.50 0 -0.25 0.80 -0.50 1.75 -0.50 1.65 0 1.75 0.10 1.75 1.75 0 1.40 -0.20 1.75 -1 1.75 -0.55 0 -1 0.20 -1 0.40 0 0.20 -0.80 0.40 -1.75 0.45 -0.95 0.05 -1.75 -0.15 -1.75 -0.45z"/>
  <path d="M14 5.10 c0 -0.35 0.85 -0.90 3.15 -2 0.20 -0.10 0.35 0.40 0.35 1.10 0 1.15 -0.20 1.30 -1.75 1.30 -0.95 0 -1.75 -0.20 -1.75 -0.40z"/>
 </g>
 <g fill="#a5814a">
  <path d="M12.30 37.45 c-0.85 -1 -1.30 -2.15 -1.30 -3.25 0 -1.65 0.05 -1.70 1.95 -1.70 1.10 0 2.10 0.25 2.20 0.65 0.20 0.40 0.30 0.30 0.30 -0.20 0.05 -0.50 0.45 -0.75 1.20 -0.65 0.60 0.05 1.40 0.15 1.75 0.15 1.05 0.10 0.65 1.55 -0.40 1.55 -0.80 0 -1 0.35 -1 1.55 0 1.10 -0.25 1.60 -1 1.80 -0.55 0.15 -1 0.60 -1 0.95 0 1.20 -1.35 0.75 -2.70 -0.85z"/>
  <path d="M26.85 36.80 c-0.30 -0.75 0.05 -1.30 0.75 -1.30 0.55 0 0.50 1.35 -0.05 1.70 -0.25 0.15 -0.55 0 -0.70 -0.40z"/>
  <path d="M23.30 35.70 c-0.40 -1.05 -0.40 -1.20 0.15 -1.20 0.25 0 0.55 0.45 0.70 1 0.30 1.20 -0.40 1.35 -0.85 0.20z"/>
  <path d="M28.30 32.75 c0.15 -0.40 0.50 -0.75 0.75 -0.75 0.25 0 0.45 -0.35 0.45 -0.75 0 -0.70 -0.20 -0.65 -1.60 0.05 -1.40 0.75 -1.55 0.75 -1 0.10 0.35 -0.45 1.20 -0.95 1.90 -1.10 1.10 -0.30 1.20 -0.50 0.95 -2.20 -0.25 -1.80 -0.25 -1.80 0.30 -0.35 1.15 3.30 1.05 3.95 -0.55 4.90 -1.25 0.75 -1.45 0.80 -1.20 0.10z"/>
  <path d="M18.50 27.55 c0 -0.85 0.30 -1.05 1.80 -1.05 1.40 0 1.75 0.15 1.60 0.90 -0.10 0.55 -0.70 0.90 -1.80 1 -1.35 0.15 -1.60 0 -1.60 -0.85z"/>
  <path d="M14.60 23.65 c0.05 -2.55 0.10 -2.65 0.25 -0.75 0.15 1.75 0.40 2.10 1.05 1.90 0.45 -0.10 1.90 -0.35 3.15 -0.55 1.85 -0.25 2.40 -0.15 2.65 0.50 0.15 0.45 0.10 0.70 -0.10 0.55 -0.20 -0.10 -1.70 0.10 -3.35 0.50 -1.65 0.35 -3.15 0.70 -3.35 0.70 -0.25 0 -0.35 -1.30 -0.30 -2.85z"/>
  <path d="M15.60 23.40 c0.30 -0.90 1.40 -1.05 1.40 -0.20 0 0.45 -0.35 0.80 -0.80 0.80 -0.45 0 -0.70 -0.25 -0.60 -0.60z"/>
  <path d="M17.50 22.95 c0 -1.20 1.15 -1.05 1.40 0.20 0.10 0.50 -0.15 0.85 -0.60 0.85 -0.50 0 -0.80 -0.45 -0.80 -1.05z"/>
  <path d="M8 18 c0 -0.50 0.45 -1.20 1 -1.50 1.15 -0.60 1.35 -0.05 0.50 1.55 -0.70 1.25 -1.50 1.20 -1.50 -0.05z"/>
  <path d="M32.50 17.70 c0 -0.50 0.25 -1.30 0.50 -1.70 0.40 -0.55 0.45 -0.35 0.20 0.75 -0.40 1.85 -0.70 2.25 -0.70 0.95z"/>
  <path d="M24.90 8.65 c-0.50 -0.10 -0.90 -0.45 -0.90 -0.70 0 -0.70 1.70 -0.55 2.80 0.30 0.95 0.70 0.95 0.70 -0.05 0.70 -0.55 -0.05 -1.40 -0.15 -1.85 -0.30z"/>
  <path d="M26.80 7.25 c-0.15 -0.40 -0.10 -0.75 0.15 -0.75 0.25 0 0.70 0.35 1.05 0.75 0.50 0.60 0.50 0.75 -0.15 0.75 -0.40 0 -0.85 -0.35 -1.05 -0.75z"/>
  <path d="M12.50 3.30 c0.70 -0.90 4.20 -3.30 4.75 -3.30 0.15 0 0.25 0.25 0.25 0.50 0 0.30 -0.25 0.50 -0.55 0.50 -0.30 0 -1.55 0.70 -2.85 1.60 -1.30 0.90 -2 1.20 -1.60 0.70z"/>
  <path d="M10.10 2.90 c0.15 -0.35 0.70 -0.85 1.30 -1.15 0.60 -0.25 1.10 -0.75 1.10 -1.10 0 -0.35 0.35 -0.65 0.75 -0.65 1.10 0 0.95 0.35 -0.85 2 -1.75 1.55 -2.60 1.90 -2.30 0.90z"/>
 </g>
 <g fill="#6c6bb8">
  <path d="M0 37.75 c0 -2.20 0 -2.25 1.70 -2.25 1.50 0 1.70 0.20 2 1.55 0.55 2.80 0.45 2.95 -1.70 2.95 l-2 0 0 -2.25z"/>
  <path d="M5 38.70 c0 -1.65 1.65 -1.50 1.90 0.20 0.15 0.85 -0.10 1.10 -0.85 1.10 -0.80 0 -1.05 -0.30 -1.05 -1.30z"/>
  <path d="M7.50 39.50 c0 -0.25 0.40 -0.70 0.90 -0.95 0.75 -0.45 0.75 -0.50 0.05 -0.55 -0.45 0 -1.10 -0.35 -1.45 -0.75 -0.50 -0.60 -0.45 -0.80 0.15 -1.05 0.55 -0.20 0.70 -0.75 0.50 -2 -0.25 -1.50 -0.15 -1.70 0.80 -1.70 0.75 0 1.05 0.30 1 1.15 0 1.05 0.10 1.90 0.75 5 0.30 1.25 0.20 1.35 -1.20 1.35 -0.80 0 -1.50 -0.20 -1.50 -0.50z"/>
  <path d="M29 39.60 c0 -0.25 0.45 -0.90 1.05 -1.50 0.60 -0.65 0.90 -1.50 0.75 -2 -0.20 -0.50 0.05 -1.35 0.45 -1.90 0.70 -0.90 0.70 -0.90 0.75 0.45 0 0.75 0.35 1.50 0.75 1.65 1 0.40 0.45 1.20 -0.80 1.20 -1 0 -1.30 0.75 -0.45 1.25 1 0.60 0.45 1.25 -1 1.25 -0.80 0 -1.50 -0.20 -1.50 -0.40z"/>
  <path d="M10.80 34.80 c-0.15 -0.65 -0.45 -1.55 -0.60 -2 -0.15 -0.45 -0.10 -0.80 0.20 -0.80 0.25 0 0.65 0.80 0.85 1.80 0.35 2.05 0.05 2.90 -0.45 1z"/>
  <path d="M15.80 15.65 c-0.55 -0.55 -0.30 -1.15 0.45 -1.15 0.40 0 0.75 0.20 0.75 0.45 0 0.65 -0.80 1.10 -1.20 0.70z"/>
 </g>
 <g fill="#b69255">
  <path d="M12.85 38.25 c-0.75 -0.90 -1.70 -2.55 -2.10 -3.70 -0.70 -2 -0.70 -2.05 0.45 -2.05 1 0 1.20 0.35 1.60 2.65 l0.40 2.60 0.20 -2.35 c0.15 -2.15 0.30 -2.40 1.30 -2.40 2.60 0 4.30 0.60 4.30 1.55 0 0.55 -0.35 0.95 -0.75 0.95 -0.40 0 -1.05 0.60 -1.45 1.40 -0.40 0.75 -1.10 1.70 -1.60 2.15 -0.90 0.75 -1.05 0.70 -2.35 -0.80z"/>
  <path d="M17.10 38.40 c0.40 -0.60 1 -1.15 1.35 -1.20 0.30 -0.05 0.35 0 0.05 0.15 -0.25 0.10 -0.50 0.65 -0.50 1.20 0 0.55 -0.35 0.95 -0.80 0.95 -0.75 0 -0.75 -0.10 -0.10 -1.10z"/>
  <path d="M23 33.45 c0 -1.05 1.85 -2.10 4.80 -2.70 1.05 -0.20 0.75 0.10 -1.15 1.10 -1.45 0.75 -2.65 1.65 -2.65 2 0 0.35 -0.20 0.65 -0.50 0.65 -0.25 0 -0.50 -0.45 -0.50 -1.05z"/>
  <path d="M29.85 31.65 c-0.15 -0.25 -0.05 -0.85 0.20 -1.40 0.20 -0.55 0.40 -0.75 0.40 -0.40 0.05 0.30 0.20 0.90 0.35 1.35 0.30 0.80 -0.55 1.15 -0.95 0.45z"/>
  <path d="M17 27.75 c0 -0.40 0.15 -0.75 0.40 -0.80 5.05 -0.55 5.85 -0.40 4.50 0.95 -0.90 0.90 -4.90 0.80 -4.90 -0.15z"/>
  <path d="M15 25.75 c0 -0.40 0.05 -0.75 0.15 -0.75 0.05 0 1.45 -0.20 3.05 -0.50 3.10 -0.50 5.30 -0.25 5.30 0.60 0 0.30 -0.60 0.40 -1.30 0.25 -0.75 -0.10 -2.05 -0.05 -2.90 0.15 -4 1 -4.30 1.05 -4.30 0.25z"/>
  <path d="M17.50 23.55 c0 -0.25 0.35 -0.55 0.75 -0.75 0.45 -0.15 0.75 0 0.75 0.45 0 0.40 -0.35 0.75 -0.75 0.75 -0.40 0 -0.75 -0.20 -0.75 -0.45z"/>
  <path d="M18 19.50 c0 -0.25 0.25 -0.50 0.50 -0.50 0.30 0 0.50 -0.55 0.50 -1.25 0 -0.70 0.25 -1.25 0.50 -1.25 0.30 0 0.50 0.45 0.50 1 0 0.55 0.25 1 0.50 1 0.30 0 0.50 0.35 0.50 0.75 0 0.50 -0.50 0.75 -1.50 0.75 -0.80 0 -1.50 -0.20 -1.50 -0.50z"/>
  <path d="M12.50 17.30 c0 -0.35 0.50 -0.80 1.15 -1 1.65 -0.45 2 -0.35 1.70 0.40 -0.15 0.40 -0.05 0.85 0.30 1 0.35 0.10 -0.25 0.25 -1.25 0.25 -1.30 0.05 -1.90 -0.15 -1.90 -0.65z"/>
  <path d="M23.50 7.90 c0 -1.05 0.20 -1.90 0.50 -1.90 0.25 0 0.35 0.30 0.20 0.70 -0.20 0.50 0.25 0.80 1.25 1.05 0.85 0.20 1.55 0.55 1.55 0.85 0 0.30 -0.55 0.35 -1.35 0.20 -0.85 -0.25 -1.45 -0.15 -1.70 0.30 -0.30 0.40 -0.45 -0.05 -0.45 -1.20z"/>
  <path d="M17 3.85 c0 -0.40 0.80 -0.90 1.75 -1.20 1.65 -0.55 1.75 -0.50 1.75 0.65 0 1.05 -0.25 1.20 -1.75 1.20 -1.10 0 -1.75 -0.25 -1.75 -0.65z"/>
 </g>
 <g fill="#c58e50">
  <path d="M17.25 29 c-1.25 -1.40 -0.55 -2 2.70 -2.20 2.85 -0.20 3.25 0.45 0.90 1.60 -0.75 0.35 -1.35 0.85 -1.35 1.15 0 0.80 -1.30 0.50 -2.25 -0.55z"/>
  <path d="M12.05 28.15 c0 -0.30 -0.20 -1 -0.35 -1.50 -0.25 -0.70 -0.20 -0.75 0.25 -0.35 0.35 0.35 0.55 1 0.40 1.50 -0.15 0.55 -0.25 0.70 -0.30 0.35z"/>
  <path d="M13 24.40 c-1.65 -2.25 -1.85 -2.90 -0.85 -2.90 0.35 0 0.95 -0.80 1.30 -1.75 0.40 -1.20 0.95 -1.75 1.60 -1.75 0.50 0 0.95 -0.20 0.95 -0.45 0 -0.25 0.45 -0.55 1 -0.70 0.75 -0.20 1 0 1 0.75 0 0.55 -0.40 1.10 -0.95 1.25 -1.20 0.30 -2.05 2.20 -2.05 4.45 l0 1.75 2.15 -0.30 c1.20 -0.20 3.45 -0.40 5.05 -0.45 2.35 -0.10 2.75 0 2.10 0.50 -0.45 0.30 -2 0.60 -3.45 0.60 -1.40 0 -3.25 0.25 -4 0.55 -2.05 0.80 -2.20 0.75 -3.85 -1.55z"/>
  <path d="M15.50 23.60 c0 -0.25 0.35 -0.65 0.80 -0.80 0.50 -0.20 0.70 -0.05 0.60 0.30 -0.25 0.75 -1.40 1.15 -1.40 0.50z"/>
  <path d="M17.50 23 c0 -0.55 0.35 -1 0.75 -1 0.40 0 0.75 0.45 0.75 1 0 0.55 -0.35 1 -0.75 1 -0.40 0 -0.75 -0.45 -0.75 -1z"/>
  <path d="M31.35 20.50 c0.50 -0.85 0.95 -1.30 1.05 -1.05 0.25 0.70 -0.85 2.55 -1.45 2.55 -0.30 0 -0.10 -0.70 0.40 -1.50z"/>
  <path d="M7.60 19.90 c-0.95 -0.95 -0.70 -1.75 0.75 -2.85 1.65 -1.35 1.95 -1.05 1 0.90 -0.50 1.05 -0.60 1.60 -0.20 2 0.40 0.40 0.35 0.55 -0.20 0.55 -0.40 0 -1 -0.25 -1.35 -0.60z"/>
  <path d="M19.20 17.55 c0.20 -3 0.20 -3 -1.50 -4.05 -1 -0.55 -2.10 -1 -2.50 -1 -0.40 0 -0.60 -0.20 -0.45 -0.50 0.20 -0.30 -0.30 -0.35 -1.25 -0.20 -2.30 0.50 -1.80 -0.55 0.75 -1.50 1.25 -0.50 2.25 -1.10 2.25 -1.35 0 -0.65 -0.55 -0.55 -2.55 0.50 -1 0.55 -2 0.80 -2.30 0.65 -1.45 -0.95 0.55 -4.40 3.50 -5.95 2 -1 8.85 -3.15 10.15 -3.15 0.60 0 1.20 0.30 1.35 0.70 0.20 0.45 0 0.60 -0.65 0.45 -1.30 -0.35 -1.75 0.75 -0.70 1.90 0.90 1 0.90 1.05 -0.30 2 -1.05 0.80 -1.15 1 -0.50 1.45 0.40 0.25 1.10 0.50 1.55 0.50 0.45 0 1.10 0.35 1.45 0.75 0.50 0.60 0.35 0.65 -1.10 0.25 -2.15 -0.65 -2.55 -0.65 -2.30 0.10 0.15 0.35 1.10 0.90 2.20 1.25 1.90 0.55 1.90 0.55 0.40 0.60 -0.80 0.05 -1.95 0.40 -2.50 0.80 -0.50 0.40 -1.45 0.75 -2.05 0.75 -1.40 0 -1.65 0.40 -2 3.50 -0.25 2.15 -0.15 2.50 0.55 2.50 1.30 0 0.75 1.70 -0.60 1.90 -1.10 0.15 -1.15 0.05 -0.90 -2.85z m1.80 -8.05 c0 -0.25 -0.45 -0.50 -0.95 -0.50 -0.55 0 -1.15 0.25 -1.30 0.50 -0.20 0.30 0.25 0.50 0.95 0.50 0.70 0 1.30 -0.20 1.30 -0.50z"/>
  <path d="M23.80 18.35 l-1.95 -1.65 1.85 0.20 c1.90 0.20 2.55 0.90 2.20 2.30 -0.10 0.60 -0.60 0.40 -2.10 -0.85z"/>
  <path d="M11 18.80 c0 -1.25 0.60 -2.30 1.30 -2.30 0.45 0 0.70 0.55 0.70 1.50 0 1.15 -0.20 1.50 -1 1.50 -0.55 0 -1 -0.30 -1 -0.70z"/>
  <path d="M9 14.10 c0 -0.30 -0.55 -0.70 -1.30 -0.90 -1.25 -0.30 -1.55 -1.65 -0.45 -2.05 0.60 -0.20 2.50 2.75 2.05 3.20 -0.15 0.20 -0.30 0.05 -0.30 -0.25z"/>
  <path d="M26.80 7.25 c-0.20 -0.65 -0.10 -0.70 0.70 -0.25 1.15 0.65 1.30 1 0.30 1 -0.40 0 -0.80 -0.35 -1 -0.75z"/>
 </g>
 <g fill="#7d81ad">
  <path d="M6 38.80 c0 -1.10 0.15 -1.35 0.55 -0.95 0.40 0.40 0.40 0.80 0 1.50 -0.45 0.80 -0.50 0.70 -0.55 -0.55z"/>
  <path d="M7.50 39.55 c0 -0.25 0.50 -0.80 1.15 -1.25 l1.10 -0.85 -1.10 0.20 c-1.15 0.25 -2.40 -0.70 -1.80 -1.30 0.15 -0.20 0.80 -0.35 1.40 -0.35 0.90 0 1.25 0.40 1.65 2 0.50 2 0.50 2 -0.95 2 -0.80 0 -1.45 -0.20 -1.45 -0.45z"/>
  <path d="M0 36.60 c0 -0.55 0.45 -1.10 1.05 -1.25 0.80 -0.20 1 -0.05 0.85 0.80 -0.20 1.40 -1.90 1.80 -1.90 0.45z"/>
  <path d="M4 35.30 c0 -1.35 0.35 -1.70 2.50 -2.30 1.40 -0.40 1.50 -0.35 1.50 0.85 0 1 -0.20 1.20 -0.95 1 -0.60 -0.15 -0.90 0.05 -0.85 0.60 0.05 0.45 -0.40 0.85 -1.05 0.95 -0.95 0.15 -1.15 -0.05 -1.15 -1.10z"/>
 </g>
 <g fill="#9d9291">
  <path d="M13.85 39.25 c-0.25 -0.55 0 -0.75 0.80 -0.75 0.60 0 0.90 0.20 0.60 0.40 -0.25 0.20 -0.65 0.55 -0.80 0.75 -0.20 0.20 -0.45 0.05 -0.60 -0.40z"/>
  <path d="M5 37.35 c0 -1 -0.20 -1.10 -2 -0.95 -1.20 0.15 -2 0 -2 -0.35 0 -0.75 4.35 -2.90 6.75 -3.35 1.75 -0.30 1.90 -0.25 1.50 0.60 -0.20 0.50 -0.50 1.70 -0.65 2.60 -0.10 0.90 -0.50 1.60 -0.90 1.60 -1 0 -1.35 -0.95 -0.50 -1.30 1 -0.40 1.05 -1.20 0.05 -1.20 -0.40 0 -0.75 -0.25 -0.75 -0.55 0 -0.25 -0.25 -0.35 -0.55 -0.15 -0.40 0.25 -0.40 0.40 0 0.70 0.35 0.15 0.45 0.70 0.25 1.15 -0.15 0.50 -0.05 1.20 0.30 1.60 0.50 0.60 0.45 0.75 -0.45 0.75 -0.75 0 -1.05 -0.30 -1.05 -1.15z"/>
  <path d="M15.75 15.45 c-0.50 -0.75 0.15 -1.25 0.80 -0.60 0.35 0.35 0.35 0.65 0.05 0.85 -0.30 0.15 -0.70 0.05 -0.85 -0.25z"/>
  <path d="M12 3.80 c0 -0.45 3.50 -2.95 3.75 -2.70 0.15 0.15 -0.65 0.85 -1.75 1.60 -1.10 0.70 -2 1.20 -2 1.10z"/>
  <path d="M11.35 1.50 c1.45 -1.35 2.65 -1.90 2.65 -1.25 0 0.55 -2.75 2.70 -3.50 2.75 -0.45 0 -0.15 -0.55 0.85 -1.50z"/>
 </g>
 <g fill="#767ecf">
  <path d="M0 38 c0 -2.15 0.90 -3 3.20 -3 0.95 0 1.30 0.25 1.30 1 0 0.55 0.25 1 0.50 1 0.30 0 0.50 0.70 0.50 1.50 0 1.40 -0.15 1.50 -1.80 1.50 -1.05 0 -1.65 -0.20 -1.45 -0.50 0.15 -0.25 0.05 -0.50 -0.20 -0.50 -0.30 0 -0.55 0.25 -0.55 0.50 0 0.30 -0.35 0.50 -0.75 0.50 -0.55 0 -0.75 -0.55 -0.75 -2z"/>
  <path d="M8 39.65 c0 -0.15 0.35 -0.75 0.85 -1.25 0.75 -0.85 0.75 -0.90 -0.25 -0.90 -1.30 0 -1.95 -0.95 -1.05 -1.55 0.55 -0.35 0.50 -0.55 -0.30 -1.15 -1 -0.75 -1 -0.75 0 -1.50 1.40 -1.10 2.15 -1 2.10 0.35 0 0.60 0.15 2.30 0.35 3.75 0.35 2.45 0.35 2.60 -0.65 2.60 -0.60 0 -1.05 -0.15 -1.05 -0.35z"/>
  <path d="M31 35.25 c0 -0.70 0.25 -1.25 0.50 -1.25 0.30 0 0.50 0.55 0.50 1.25 0 0.70 -0.20 1.25 -0.50 1.25 -0.25 0 -0.50 -0.55 -0.50 -1.25z"/>
  <path d="M10.30 33.10 c-0.20 -0.65 -0.25 -1.30 -0.10 -1.45 0.50 -0.55 0.90 0.20 0.70 1.45 l-0.20 1.15 -0.40 -1.15z"/>
  <path d="M11.55 16.80 c0.10 -0.10 1.10 -0.30 2.20 -0.45 1.35 -0.20 1.75 -0.15 1.25 0.15 -0.70 0.45 -3.95 0.75 -3.45 0.30z"/>
 </g>
 <g fill="#f1a043">
  <path d="M16.50 39.55 c0 -0.70 1.90 -2.85 2.25 -2.50 0.65 0.65 -0.35 2.95 -1.30 2.95 -0.50 0 -0.95 -0.20 -0.95 -0.45z"/>
  <path d="M17.55 29.10 c-1.20 -1 -0.85 -1.80 0.95 -2.25 1.50 -0.35 3.05 0.35 1.80 0.80 -0.45 0.20 -0.80 0.65 -0.80 1.05 0 1.20 -0.80 1.35 -1.95 0.40z"/>
  <path d="M12.80 24.05 c-1 -1.55 -1.45 -2.90 -1.50 -4.60 0 -1.30 0.05 -2.45 0.20 -2.60 0.15 -0.10 1.10 -0.35 2.15 -0.50 1.55 -0.25 1.90 -0.15 1.65 0.40 -0.20 0.55 0.10 0.65 1.20 0.40 1.20 -0.20 1.50 -0.10 1.50 0.55 0 0.45 -0.55 1.05 -1.20 1.25 -1.40 0.55 -1.85 1.50 -2.25 4.80 l-0.30 2.50 -1.45 -2.20z"/>
  <path d="M15.50 25.55 c0 -0.20 0.55 -0.30 1.25 -0.15 0.70 0.10 1.25 0.30 1.25 0.40 0 0.10 -0.55 0.20 -1.25 0.20 -0.70 0 -1.25 -0.20 -1.25 -0.45z"/>
  <path d="M8.10 20.80 c-0.70 -1.15 -0.95 -2.15 -0.70 -2.40 0.65 -0.65 2.20 1.90 2 3.25 -0.15 0.95 -0.30 0.85 -1.30 -0.85z"/>
  <path d="M18.20 19.95 c-0.20 -0.35 0 -0.80 0.45 -1 0.45 -0.30 0.65 -0.90 0.50 -1.55 -0.20 -1.10 -0.15 -1.10 0.55 0.10 1.05 1.75 1 3 -0.15 3 -0.55 0 -1.15 -0.25 -1.35 -0.55z"/>
  <path d="M8.35 18.15 c-0.55 -0.50 -0.40 -1 0.40 -1.35 0.50 -0.20 0.75 0.05 0.75 0.70 0 1 -0.55 1.30 -1.15 0.65z"/>
  <path d="M17.55 13.20 c-0.85 -0.70 -1.75 -1.15 -2 -1 -0.25 0.15 -0.60 -0.05 -0.75 -0.50 -0.45 -1.25 -0.35 -1.60 0.60 -1.90 0.45 -0.15 1.15 -0.75 1.45 -1.30 0.55 -0.80 0.50 -0.90 -0.10 -0.70 -0.50 0.20 -0.75 0 -0.75 -0.75 0 -0.60 0.30 -1.05 0.75 -1.05 0.50 0 0.75 -0.50 0.75 -1.50 0 -1.25 0.20 -1.50 1.75 -1.80 2.35 -0.45 2.80 0.15 1.10 1.40 -0.75 0.55 -1.35 1.40 -1.35 1.90 0 0.50 -0.30 1.05 -0.60 1.15 -0.40 0.20 -0.35 0.30 0.20 0.30 0.45 0.05 1.50 -0.50 2.30 -1.20 0.85 -0.70 1.60 -1.25 1.75 -1.25 0.45 0 0.70 1.90 0.35 2.55 -0.50 0.75 1.30 2.30 3.40 3 1.10 0.35 0.85 0.40 -1.10 0.25 -1.45 -0.10 -2.15 0 -1.75 0.25 1 0.60 -0.70 1.15 -2.55 0.75 -1.45 -0.25 -2.05 0.30 -1 0.95 0.75 0.45 0.60 1.75 -0.20 1.75 -0.40 0 -1.40 -0.60 -2.25 -1.30z"/>
  <path d="M8.75 13.50 c-0.15 -0.25 -0.90 -0.50 -1.60 -0.50 -0.95 0 -1.20 -0.20 -0.95 -0.80 0.15 -0.45 0.30 -0.90 0.30 -1 0 -0.10 0.30 -0.20 0.65 -0.20 0.30 0 1 0.70 1.45 1.50 0.75 1.35 0.90 2.20 0.15 1z"/>
  <path d="M12 11.55 c0 -0.25 0.35 -0.55 0.75 -0.75 0.45 -0.15 0.75 0 0.75 0.45 0 0.40 -0.35 0.75 -0.75 0.75 -0.40 0 -0.75 -0.20 -0.75 -0.45z"/>
  <path d="M10.50 10.60 c0 -0.20 0.35 -0.90 0.80 -1.50 0.50 -0.75 0.55 -1.10 0.15 -1.10 -0.40 0 -0.30 -0.35 0.25 -0.95 1.15 -1.30 2.30 -0.80 2.30 0.95 0 0.90 -0.40 1.65 -1.25 2.20 -1.30 0.85 -2.25 1.05 -2.25 0.40z"/>
 </g>
 <g fill="#caaa60">
  <path d="M13.80 39.15 c-0.15 -0.15 -0.30 -1.40 -0.30 -2.75 0 -1.40 -0.25 -2.40 -0.55 -2.40 -0.35 0 -0.40 0.70 -0.20 2.10 0.35 1.90 0.30 2.05 -0.45 1.45 -0.75 -0.65 -1.80 -3.50 -1.80 -5.10 0 -0.45 0.45 -0.95 0.95 -1.10 1.05 -0.25 5.70 1.10 5.95 1.75 0.10 0.20 0.50 0.40 0.95 0.40 0.45 0 0.65 0.35 0.55 0.90 -0.10 0.45 -0.45 0.80 -0.80 0.75 -0.30 -0.10 -0.95 0.65 -1.40 1.60 -0.85 1.80 -2.30 3 -2.90 2.40z"/>
  <path d="M23.10 32.90 c0.20 -0.60 4.60 -2.45 5.65 -2.35 0.45 0 -5.15 2.95 -5.65 2.95 -0.10 0 -0.10 -0.30 0 -0.60z"/>
  <path d="M30 30.40 c0 -1.80 0.20 -1.75 0.70 0.25 0.20 0.80 0.10 1.35 -0.20 1.35 -0.25 0 -0.50 -0.70 -0.50 -1.60z"/>
  <path d="M17.50 27.80 c0 -0.75 1.85 -1.45 2.60 -1 0.65 0.45 -0.60 1.70 -1.65 1.70 -0.55 0 -0.95 -0.30 -0.95 -0.70z"/>
  <path d="M15.50 25.50 c0 -0.25 0.85 -0.60 1.90 -0.75 1 -0.15 2.35 -0.40 2.95 -0.55 2.30 -0.45 1.45 0.65 -0.90 1.20 -3.05 0.70 -3.95 0.75 -3.95 0.10z"/>
  <path d="M18 23.25 c0 -0.40 0.25 -0.75 0.50 -0.75 0.30 0 0.50 0.35 0.50 0.75 0 0.40 -0.20 0.75 -0.50 0.75 -0.25 0 -0.50 -0.35 -0.50 -0.75z"/>
  <path d="M7.60 19.95 c-0.50 -0.80 -0.50 -1.20 -0.05 -1.75 0.70 -0.85 1.45 -0.90 1.45 -0.15 0 0.25 -0.20 0.35 -0.50 0.20 -0.25 -0.15 -0.50 -0.10 -0.50 0.20 0 0.25 0.25 0.65 0.50 0.80 0.60 0.35 0.70 1.75 0.10 1.75 -0.20 0 -0.65 -0.45 -1 -1.05z"/>
  <path d="M18.60 20.05 c-0.50 -0.30 -0.50 -0.50 0.05 -0.95 0.40 -0.35 0.60 -1.15 0.50 -1.80 -0.15 -0.65 0 -1.35 0.30 -1.50 0.35 -0.25 0.55 0.20 0.55 1.20 0 0.90 0.30 1.65 0.75 1.80 0.60 0.25 0.65 0.50 0.20 1 -0.65 0.80 -1.40 0.90 -2.35 0.25z"/>
  <path d="M18.80 13.70 c-0.65 -1.70 -0.35 -2.25 0.70 -1.35 0.55 0.50 1 1.15 1 1.50 0 0.90 -1.35 0.80 -1.70 -0.15z"/>
  <path d="M6.65 12.70 c-0.75 -0.35 -0.25 -1.70 0.60 -1.70 0.55 0 1.25 1 1.25 1.80 0 0.25 -1.05 0.20 -1.85 -0.10z"/>
  <path d="M13.85 10.50 c1.15 -0.50 2.55 -1.40 3.10 -1.95 0.60 -0.60 1.45 -1.05 1.95 -1.05 0.50 0 1.60 -0.65 2.50 -1.50 1.75 -1.55 3.10 -1.95 3.10 -0.85 0 1.05 -1.10 1.85 -2.60 1.85 -0.90 0 -1.40 0.25 -1.40 0.75 0 0.50 -0.50 0.75 -1.50 0.75 -1.30 0 -1.50 0.20 -1.50 1.40 0 1.40 -0.05 1.45 -2.85 1.50 l-2.90 0.05 2.10 -0.95z"/>
  <path d="M11.50 9.55 c0 -1.10 0.95 -1.55 3.15 -1.55 l1.60 0 -2 1.25 c-2.45 1.50 -2.75 1.50 -2.75 0.30z"/>
  <path d="M17 6.25 c0 -0.90 0.25 -1.25 1 -1.25 1.20 0 1.40 1.75 0.20 2.20 -1.15 0.45 -1.20 0.40 -1.20 -0.95z"/>
 </g>
 <g fill="#f2bc6a">
  <path d="M17.25 39.35 c-0.20 -0.50 -0.15 -1.15 0.20 -1.50 0.80 -0.80 1.30 0 0.70 1.25 -0.50 1.05 -0.55 1.10 -0.90 0.25z"/>
  <path d="M15.50 37.65 c0 -0.60 0.25 -1.25 0.55 -1.40 0.95 -0.60 1.10 0.15 0.25 1.35 l-0.80 1.10 0 -1.05z"/>
  <path d="M14.25 33.50 c-0.15 -0.25 -0.95 -0.50 -1.80 -0.50 -1.10 0 -1.45 -0.25 -1.45 -1 0 -1 1.65 -1.45 2.20 -0.55 0.15 0.20 1.20 0.55 2.30 0.75 1.30 0.20 2 0.55 2 1.05 0 0.85 -2.75 1.05 -3.25 0.25z"/>
  <path d="M17.80 29.25 c-1.35 -1 -0.65 -2.25 1.25 -2.25 1.50 0 1.55 0.05 0.85 0.90 -0.45 0.45 -0.85 1.10 -0.95 1.45 -0.15 0.40 -0.45 0.40 -1.15 -0.10z"/>
  <path d="M15.50 25.55 c0 -0.45 2.50 -1.05 4.20 -1 0.90 0 0.80 0.15 -0.45 0.70 -1.70 0.80 -3.75 0.95 -3.75 0.30z"/>
  <path d="M13 23.70 c-0.30 -0.70 -0.50 -1.55 -0.50 -1.90 0 -0.35 -0.30 -1 -0.65 -1.50 -0.35 -0.50 -0.55 -1.55 -0.45 -2.35 0.20 -1.30 0.40 -1.45 2.05 -1.40 1.50 0 1.65 0.10 0.80 0.50 -0.70 0.35 -0.35 0.40 1.40 0.20 1.30 -0.10 2.35 -0.05 2.35 0.15 0 0.65 -0.75 1.40 -1.65 1.75 -1 0.40 -1.85 2.30 -1.85 4.40 0 1.80 -0.85 1.90 -1.50 0.15z"/>
  <path d="M8.15 20.65 c-1.10 -1.95 -1.10 -2.05 -0.25 -2.85 1.15 -1 1.60 -1 1.60 0 0 0.50 -0.30 0.70 -0.75 0.50 -0.95 -0.35 -0.95 0.15 0.05 1.25 0.40 0.45 0.70 1.35 0.60 2 -0.15 0.95 -0.30 0.85 -1.25 -0.90z"/>
  <path d="M31 21.70 c0 -0.25 0.35 -0.95 0.75 -1.50 0.40 -0.50 0.75 -0.70 0.75 -0.40 0 0.25 -0.35 0.95 -0.75 1.50 -0.40 0.50 -0.75 0.70 -0.75 0.40z"/>
  <path d="M18.60 20.05 c-1 -0.60 0.45 -1.60 1.80 -1.20 0.90 0.20 1 0.40 0.55 0.95 -0.65 0.80 -1.40 0.85 -2.35 0.25z"/>
  <path d="M19.15 17.20 c-0.15 -0.40 -0.05 -1 0.30 -1.35 0.40 -0.40 0.55 -0.20 0.55 0.80 0 1.50 -0.35 1.75 -0.85 0.55z"/>
  <path d="M19 14 c0 -0.30 -0.55 -0.75 -1.25 -1 -0.70 -0.25 -1.25 -0.85 -1.25 -1.35 0 -0.75 -0.10 -0.75 -0.75 0.15 -0.45 0.60 -0.70 0.70 -0.75 0.30 0 -0.50 -0.40 -0.60 -1.50 -0.35 -2.15 0.50 -1.85 -0.55 0.40 -1.30 1 -0.30 2.35 -1.15 2.95 -1.75 0.60 -0.65 1.50 -1.20 2.05 -1.20 0.50 0 1.35 -0.40 1.90 -0.95 1 -0.90 2.90 -2.05 3.40 -2.05 0.70 0 0.20 1.40 -0.95 2.65 -0.95 0.95 -1.10 1.35 -0.55 1.35 0.40 0 0.95 0.30 1.15 0.65 0.20 0.35 0.95 0.90 1.65 1.20 l1.25 0.60 -1.35 0 c-0.75 0.05 -1.50 0.30 -1.65 0.55 -0.15 0.30 -1 0.50 -1.80 0.50 -1.35 0 -1.50 -0.15 -1.20 -1.10 l0.35 -1.15 -1.05 1.15 c-1 1 -1.05 1.20 -0.30 1.90 0.40 0.45 0.65 1 0.50 1.25 -0.40 0.60 -1.25 0.55 -1.25 -0.05z"/>
  <path d="M7.35 12.90 c-1.10 -0.40 -1.30 -0.65 -0.80 -1.20 0.30 -0.40 0.75 -0.55 1 -0.40 0.40 0.25 1.65 2.25 1.35 2.15 -0.10 0 -0.80 -0.25 -1.55 -0.55z"/>
  <path d="M11 10.25 c0 -0.35 0.35 -1 0.75 -1.40 0.55 -0.60 0.60 -0.85 0.10 -1.05 -0.35 -0.15 0.10 -0.90 1.35 -2.05 1.95 -1.70 8.35 -4.25 10.90 -4.25 1.70 0 0.20 1.30 -2.40 2 -1.25 0.35 -2.40 1 -2.55 1.45 -0.50 1.70 -1 2.15 -4.50 4.05 -2.50 1.35 -3.65 1.75 -3.65 1.25z"/>
 </g>
 <g fill="#9f9ee4">
  <path d="M0 39 c0 -0.65 0.35 -1 0.95 -1 0.50 0 1.25 -0.40 1.60 -0.85 0.75 -0.90 0.80 -0.90 -1.80 0.15 -0.50 0.20 -0.75 0 -0.75 -0.50 0 -0.50 0.90 -1.25 2.40 -1.85 2.40 -1.05 6.15 -2.45 6.60 -2.45 0.15 0 0.25 1.05 0.25 2.40 0 2.05 -0.15 2.35 -1.10 2.50 -1.30 0.20 -1.55 -0.75 -0.40 -1.60 0.65 -0.45 0.55 -0.65 -0.50 -1.15 -0.70 -0.30 -1.35 -0.35 -1.55 -0.10 -0.15 0.25 0 0.45 0.30 0.45 0.35 0 0.45 0.40 0.25 1 -0.20 0.60 -0.10 1.35 0.20 1.70 0.90 1.10 0.10 2.30 -1.55 2.30 -1.15 0 -1.45 -0.20 -1.20 -0.75 0.20 -0.60 0 -0.70 -1.10 -0.45 -0.75 0.20 -1.40 0.55 -1.50 0.80 -0.35 0.80 -1.10 0.40 -1.10 -0.60z"/>
  <path d="M8.10 39.40 c0.30 -0.90 1.40 -1.05 1.40 -0.20 0 0.45 -0.35 0.80 -0.80 0.80 -0.45 0 -0.70 -0.25 -0.60 -0.60z"/>
  <path d="M10.30 32.85 c-0.25 -0.75 -0.30 -1.55 -0.10 -1.70 0.55 -0.55 0.90 0.25 0.70 1.70 l-0.20 1.40 -0.40 -1.40z"/>
 </g>
 <g fill="#edcb7f">
  <path d="M13.85 38.85 c-0.45 -1.35 0.25 -2.35 1.45 -2.05 0.80 0.20 1.20 0.10 1.20 -0.35 0 -0.35 0.15 -0.50 0.30 -0.35 0.40 0.40 -1.20 2.75 -2.05 3.10 -0.40 0.15 -0.80 0 -0.90 -0.35z"/>
  <path d="M14 33.50 c-0.40 -0.25 -1.35 -0.50 -2.05 -0.50 -0.95 0 -1.40 -0.30 -1.60 -1.10 -0.10 -0.65 -0.40 -1.60 -0.60 -2.15 -0.30 -0.90 -0.25 -0.90 0.65 0.10 0.55 0.65 2.25 1.50 3.80 2 1.55 0.45 2.80 1.15 2.80 1.50 0 0.75 -1.90 0.85 -3 0.15z"/>
  <path d="M17.50 27.50 c0 -0.25 0.45 -0.50 1 -0.50 0.55 0 1 0.25 1 0.50 0 0.30 -0.45 0.50 -1 0.50 -0.55 0 -1 -0.20 -1 -0.50z"/>
  <path d="M17.50 25 c0 -0.25 0.95 -0.50 2.15 -0.45 1.80 0.05 1.90 0.10 0.85 0.45 -1.80 0.60 -3 0.60 -3 0z"/>
  <path d="M12.55 20.65 c-0.75 -2.30 -0.90 -3.50 -0.55 -3.85 0.35 -0.35 0.60 -0.20 0.80 0.60 0.35 1.15 1.40 1.50 1.95 0.60 0.45 -0.75 2.35 -0.60 2.15 0.15 -0.10 0.30 -0.95 0.95 -1.80 1.35 -1.50 0.70 -1.60 0.90 -1.30 2.65 0.45 2.85 -0.10 2.20 -1.25 -1.50z"/>
  <path d="M8.25 20.85 c-0.50 -0.75 -0.80 -1.50 -0.65 -1.60 0.40 -0.45 2 1.65 1.80 2.35 -0.15 0.40 -0.55 0.10 -1.15 -0.75z"/>
  <path d="M19 20 c-0.60 -0.35 -0.60 -0.60 -0.10 -1.10 0.45 -0.45 0.75 -0.45 1.20 0 0.80 0.80 -0.10 1.70 -1.10 1.10z"/>
  <path d="M18.35 13.20 c-1.30 -1.20 -1.75 -2.20 -0.95 -2.20 0.95 0.05 3.35 2.80 2.70 3.15 -0.20 0.15 -1 -0.25 -1.75 -0.95z"/>
  <path d="M7.40 12.65 c-1 -0.25 -1.20 -0.90 -0.45 -1.40 0.30 -0.15 0.75 0.20 1.05 0.75 0.30 0.55 0.45 0.95 0.40 0.95 -0.10 -0.05 -0.55 -0.15 -1 -0.30z"/>
  <path d="M12.25 11.50 c-0.15 -0.25 0.65 -0.70 1.75 -1.05 1.10 -0.35 2.25 -0.90 2.55 -1.30 0.65 -0.75 1.95 -0.90 1.95 -0.20 0 0.75 -1.50 2.05 -2.30 2.05 -1 0 -1.30 0.05 -2.55 0.55 -0.65 0.25 -1.25 0.20 -1.40 -0.05z"/>
  <path d="M11.50 9.85 c0 -0.80 3.10 -2.85 4.25 -2.85 0.40 0 0.60 0.30 0.45 0.65 -0.20 0.55 -1.55 1.45 -4.30 2.75 -0.25 0.10 -0.40 -0.15 -0.40 -0.55z"/>
  <path d="M12 7.30 c0 -1.40 6.50 -4.95 7.40 -4.05 0.45 0.45 -0.95 1.45 -4.50 3.25 -2.10 1.10 -2.90 1.30 -2.90 0.80z"/>
  <path d="M21.05 2.70 c0.60 -0.75 2.70 -1 2.25 -0.25 -0.15 0.25 -0.85 0.55 -1.55 0.65 -1 0.20 -1.15 0.15 -0.70 -0.40z"/>
 </g>
 <g fill="#eedb87">
  <path d="M14 37.10 c0.05 -2.20 0.05 -2.30 0.70 -1.15 l0.65 1.20 0.25 -1.55 c0.20 -1.25 0 -1.60 -0.90 -1.80 -0.60 -0.15 -1.45 -0.40 -1.85 -0.60 -0.60 -0.20 -0.65 0.10 -0.30 1.90 0.55 2.95 0.55 3.10 -0.25 2.45 -0.85 -0.75 -2.60 -5.95 -2.10 -6.40 0.15 -0.20 1.50 0.05 3 0.50 1.45 0.45 3.35 0.85 4.25 0.85 1.45 0 1.60 0.15 1.45 1.40 -0.10 0.95 -0.40 1.30 -1 1.20 -0.55 -0.10 -0.90 0.15 -0.90 0.65 0 1.05 -1.35 3.10 -2.30 3.45 -0.55 0.20 -0.70 -0.25 -0.70 -2.10z"/>
  <path d="M23.30 35.40 c-0.90 -1.90 -0.15 -3.05 2.60 -3.95 3.20 -1.10 3.40 -0.85 0.40 0.50 -1.90 0.80 -2.25 1.20 -2.40 2.65 -0.15 1.25 -0.30 1.45 -0.60 0.80z"/>
  <path d="M18 27.50 c0 -0.25 0.45 -0.50 1.05 -0.50 0.55 0 0.85 0.25 0.70 0.50 -0.15 0.30 -0.65 0.50 -1.05 0.50 -0.40 0 -0.70 -0.20 -0.70 -0.50z"/>
  <path d="M18.85 19.70 c-0.40 -0.40 0.05 -1.20 0.70 -1.20 0.25 0 0.45 0.35 0.45 0.75 0 0.75 -0.60 1 -1.15 0.45z"/>
  <path d="M18.35 13 c-0.50 -0.50 -0.70 -1 -0.45 -1.15 0.35 -0.25 2.10 1.30 2.10 1.90 0 0.50 -0.80 0.15 -1.65 -0.75z"/>
  <path d="M6.60 11.95 c0.10 -0.30 0.40 -0.50 0.65 -0.50 0.25 0 0.55 0.20 0.65 0.50 0.10 0.30 -0.20 0.55 -0.65 0.55 -0.45 0 -0.75 -0.25 -0.65 -0.55z"/>
  <path d="M14.95 10.25 c1.50 -0.70 2.80 -1.15 2.95 -1 0.40 0.35 -1.50 1.70 -2.40 1.75 -0.40 0 -1.30 0.15 -2 0.30 -0.70 0.10 -0.05 -0.35 1.45 -1.05z"/>
  <path d="M12.75 8.50 c0.15 -0.25 0.65 -0.50 1.05 -0.50 0.40 0 0.70 0.25 0.70 0.50 0 0.30 -0.45 0.50 -1.05 0.50 -0.55 0 -0.85 -0.20 -0.70 -0.50z"/>
  <path d="M13.55 5.85 c2.20 -1.95 4.95 -3.10 4.95 -2.10 0 0.35 -0.75 0.90 -1.60 1.30 -0.90 0.35 -2.20 1.05 -2.85 1.55 -2 1.55 -2.40 0.95 -0.50 -0.75z"/>
 </g>
 <g fill="#faf1a9">
  <path d="M14 38.80 c0 -0.40 0.20 -0.80 0.50 -0.90 0.25 -0.05 0.80 -0.95 1.20 -1.95 l0.75 -1.80 -2.05 -0.60 c-1.10 -0.35 -2.30 -0.75 -2.70 -0.90 -0.55 -0.20 -0.50 0.05 0.10 1.30 0.40 0.85 0.70 2.05 0.60 2.65 -0.15 0.90 -0.40 0.60 -1.10 -1.35 -1.30 -3.65 -1.75 -5.75 -1.25 -5.75 0.25 0 0.60 0.35 0.75 0.70 0.30 0.80 4 2.15 6.45 2.40 1.15 0.10 1.55 0.45 1.65 1.35 0.15 1 0 1.15 -0.85 0.90 -0.80 -0.20 -1.05 0 -1.05 0.70 0 1.20 -1.30 3.25 -2.30 3.65 -0.40 0.15 -0.70 -0.05 -0.70 -0.40z"/>
  <path d="M23 34.45 c0 -1.50 0.65 -2.20 2.50 -2.60 1.15 -0.30 1.10 -0.25 -0.10 0.25 -0.80 0.35 -1.40 0.95 -1.40 1.35 0 0.45 -0.25 1.15 -0.50 1.55 -0.40 0.60 -0.50 0.45 -0.50 -0.55z"/>
  <path d="M18.75 13 c-0.50 -0.55 -0.75 -1 -0.55 -1 0.55 0 1.95 1.50 1.70 1.80 -0.15 0.10 -0.65 -0.25 -1.15 -0.80z"/>
  <path d="M14.95 10.25 c3 -1.40 3.05 -1.40 3.05 -0.80 0 0.50 -2.05 1.35 -4.25 1.75 -1.05 0.20 -0.65 -0.10 1.20 -0.95z"/>
  <path d="M12 9.55 c0 -0.80 1.45 -1.65 2.60 -1.45 1.10 0.15 1.05 0.25 -0.45 1.05 -1.80 0.95 -2.15 1.05 -2.15 0.40z"/>
  <path d="M12.50 6.80 c0 -0.55 4.20 -2.85 4.90 -2.65 0.60 0.15 0.30 0.45 -1 1 -1 0.45 -1.95 1.05 -2.15 1.35 -0.30 0.45 -1.75 0.75 -1.75 0.30z"/>
 </g>
 <g fill="#e7e3f7">
  <path d="M1 38.75 c0 -0.10 1.15 -0.80 2.50 -1.50 2.35 -1.20 2.50 -1.20 2.50 -0.30 0 0.55 0.30 1.05 0.65 1.20 0.30 0.10 0.45 0.40 0.25 0.60 -0.20 0.20 -1.05 0.10 -1.90 -0.25 -1.15 -0.50 -1.70 -0.50 -2.15 -0.05 -0.55 0.55 -1.85 0.75 -1.85 0.30z"/>
  <path d="M7 36.80 c0 -0.85 1.90 -1.40 2.30 -0.70 0.35 0.55 -0.65 1.40 -1.65 1.40 -0.35 0 -0.65 -0.30 -0.65 -0.70z"/>
  <path d="M0 36.50 c0 -0.50 5.50 -3.20 5.80 -2.85 0.40 0.35 -0.75 1.25 -2.85 2.25 -2.55 1.25 -2.95 1.30 -2.95 0.60z"/>
  <path d="M6.85 34.65 c-0.45 -0.45 0.60 -1.65 1.45 -1.65 0.85 0 0.90 0.60 0.10 1.40 -0.70 0.70 -1.10 0.75 -1.55 0.25z"/>
  <path d="M12.20 32.50 c-1.40 -0.55 -2 -1.50 -1 -1.50 0.45 0 0.80 0.25 0.80 0.50 0 0.30 0.70 0.50 1.50 0.50 0.85 0 1.50 0.25 1.50 0.50 0 0.60 -1.35 0.60 -2.80 0z"/>
 </g>
</svg>