<?xml version="1.0" encoding="utf-8"?>
<!DOCTYPE svg PUBLIC "-//W3C//DTD SVG 1.0//EN" "http://www.w3.org/TR/2001/REC-SVG-20010904/DTD/svg10.dtd">
<svg version="1.0" xmlns="http://www.w3.org/2000/svg" width="40px" height="40px" viewBox="0 0 40 40" preserveAspectRatio="xMidYMid meet">
 <g fill="#110d13">
  <path d="M5 39.25 c0 -0.45 -0.45 -0.75 -1.05 -0.75 -0.90 0 -1 -0.20 -0.70 -1.35 0.20 -0.80 0.30 -2.15 0.30 -3 -0.05 -0.90 0.15 -1.65 0.45 -1.65 0.30 0 0.45 -2.35 0.40 -6.10 -0.10 -6.90 0.95 -11.60 2.65 -12.15 0.70 -0.25 0.95 -0.80 0.95 -2.30 0 -2.20 1.15 -5.45 1.95 -5.45 0.30 0 0.55 -0.35 0.55 -0.75 0 -0.95 1.95 -0.95 3.20 0 0.85 0.65 1.15 0.65 2 0.05 0.60 -0.35 2.40 -0.80 4.05 -1 2.50 -0.30 3.30 -0.70 4.85 -2.15 2.50 -2.45 3.65 -2 3.20 1.15 -0.30 2.25 -0.20 2.40 1.75 4.20 2.20 2 3.95 4.40 3.95 5.40 0 0.35 -0.65 0.60 -1.55 0.60 -1.20 0 -2 -0.50 -3.50 -2.10 -1.05 -1.20 -1.90 -2.55 -1.95 -3 0 -0.55 -0.40 -0.90 -1 -0.90 -0.55 0 -1 -0.20 -1 -0.45 0 -0.55 -3.45 -1.10 -4.85 -0.75 -0.70 0.20 -1.15 0.70 -1.15 1.25 0 0.55 -0.20 0.95 -0.50 0.95 -0.25 0 -0.50 0.60 -0.50 1.40 0 0.75 -0.15 2.20 -0.30 3.25 -0.30 1.70 -0.45 1.85 -2 1.85 -1.20 0 -1.70 0.25 -1.70 0.75 0 0.40 -0.40 0.75 -0.95 0.75 -0.75 0 -0.95 0.50 -1.25 2.65 -0.45 3.85 -0.40 4.20 0.70 4.50 0.55 0.15 1 0.05 1 -0.20 0 -0.70 3.90 -0.55 4.15 0.20 0.15 0.30 0.30 0.10 0.30 -0.50 0.05 -0.95 0.35 -1.15 1.80 -1.15 1.60 0 1.75 0.15 1.75 1.45 0 1.60 0.05 1.60 7.55 2.35 3.85 0.35 4.20 0.10 4 -3.15 -0.10 -1.90 0 -2.15 0.90 -2.15 0.70 0 0.95 -0.25 0.75 -0.75 -0.20 -0.40 -0.75 -0.75 -1.25 -0.75 -0.70 0 -0.95 0.35 -0.95 1.25 0 1.10 -0.20 1.25 -1.70 1.25 -0.95 0 -1.90 -0.25 -2.05 -0.50 -0.20 -0.30 -1.40 -0.40 -3 -0.20 -3.45 0.40 -5.20 -0.70 -5.25 -3.25 0 -2.35 1.10 -3 5.15 -3.05 3.05 0 3.55 0.15 4.60 1.30 l1.25 1.35 0 -1.60 c0 -1.35 0.15 -1.55 1.40 -1.55 1.75 0 3.60 1.85 3.60 3.65 0 0.70 0.45 2.05 1 3 1.60 2.65 1.15 4.85 -1.40 7.55 -1.40 1.50 -2.75 2.40 -3.90 2.60 -1.75 0.30 -2.15 1.05 -1.10 2.10 0.45 0.45 0.50 0.85 0.05 1.50 -0.40 0.70 -0.35 1.40 0.15 2.90 0.40 1.05 0.70 2 0.70 2.10 0 0.05 -0.45 0.10 -1 0.10 -0.65 0 -1 -0.35 -1 -1 0 -0.55 -0.20 -1 -0.50 -1 -0.25 0 -0.50 -0.30 -0.50 -0.70 0 -1.30 -1.95 -0.30 -2.10 1.15 l-0.15 1.30 -10.60 0.15 c-9.25 0.10 -10.65 0 -10.65 -0.65z m19.50 -4.50 c0 -0.15 -0.10 -0.25 -0.25 -0.25 -0.15 0 -0.25 0.10 -0.25 0.25 0 0.15 0.10 0.25 0.25 0.25 0.15 0 0.25 -0.10 0.25 -0.25z m-5 -8.30 c0 -0.25 -0.35 -0.45 -0.75 -0.45 -0.75 0 -1 0.60 -0.45 1.15 0.40 0.40 1.20 -0.05 1.20 -0.70z"/>
 </g>
 <g fill="#241e28">
  <path d="M2.80 38.65 c0.20 -0.80 0.55 -1.90 0.75 -2.50 0.25 -0.65 0.30 -1.80 0.15 -2.60 -0.15 -0.80 -0.05 -3.90 0.30 -6.85 0.30 -3 0.65 -6.20 0.75 -7.15 0.10 -0.90 0.40 -1.90 0.70 -2.20 0.30 -0.30 0.55 -1.05 0.55 -1.65 0 -0.60 0.40 -1.60 0.90 -2.25 0.50 -0.65 1.15 -2.30 1.50 -3.70 1.20 -4.60 2.70 -5.70 5.35 -3.95 1 0.65 1.40 0.70 2 0.20 0.40 -0.30 1.20 -0.65 1.85 -0.75 3.90 -0.45 5.30 -1 7 -2.65 2.50 -2.35 3.65 -1.95 3.20 1.15 -0.35 2.20 -0.30 2.30 2.15 4.65 1.40 1.35 2.90 3.30 3.35 4.35 0.40 1.05 1.25 2.50 1.80 3.25 0.55 0.80 0.90 1.65 0.70 1.90 -0.15 0.30 0.25 1.60 0.90 2.95 1.60 3.25 1.30 5.30 -1.30 8 -1.30 1.30 -2.65 2.20 -3.70 2.40 -1.70 0.30 -2.15 1.10 -1.15 2.10 0.40 0.40 0.40 0.85 0 1.55 -0.40 0.70 -0.40 1.45 -0.05 2.35 0.65 1.70 0.65 1.75 -0.20 1.75 -0.40 0 -0.80 0.25 -0.90 0.50 -0.10 0.35 -1.60 0.50 -3.90 0.40 -3.70 -0.15 -3.75 -0.15 -2.25 -0.90 1.55 -0.80 2.35 -2.50 1.15 -2.50 -0.40 0 -1.45 0.55 -2.40 1.25 -1.95 1.45 -4.75 1.70 -5.20 0.45 -0.15 -0.40 -0.10 -0.65 0.10 -0.50 0.20 0.10 0.70 0.05 1.10 -0.25 0.65 -0.35 0.60 -0.45 -0.10 -0.45 -1.20 0 -1.15 -0.75 0.15 -2.05 0.75 -0.75 1.20 -0.90 1.60 -0.50 0.40 0.40 0.40 0.55 -0.10 0.55 -0.35 0 -0.45 0.25 -0.30 0.50 0.50 0.80 1.75 0.60 1.75 -0.30 0 -0.45 0.55 -1.25 1.25 -1.80 0.70 -0.55 1.25 -1.30 1.25 -1.70 0 -0.90 1.55 -0.90 2.75 0 0.85 0.60 0.90 0.85 0.35 2.05 -0.90 1.95 -0.50 2 1.10 0.20 1.75 -1.95 1.25 -2.55 -2.55 -3.45 -1.60 -0.35 -3.30 -1 -3.75 -1.40 -1 -0.85 -1.15 -0.50 -0.40 0.90 0.35 0.65 0.25 1.05 -0.30 1.55 -0.65 0.55 -1.05 0.35 -2.45 -1.35 -0.95 -1.05 -1.75 -2.30 -1.75 -2.70 -0.05 -0.85 -1.15 -2.50 -1.70 -2.50 -0.20 0 -0.10 0.45 0.20 1 0.30 0.55 0.40 1.25 0.25 1.50 -0.30 0.50 -2.55 -0.35 -3.65 -1.35 -1.65 -1.55 -1.20 -0.25 0.60 1.80 1 1.15 1 1.20 0.10 0.85 -0.55 -0.20 -1.10 -0.10 -1.35 0.25 -0.50 0.80 0 1.95 0.85 1.95 0.40 0 0.55 -0.30 0.40 -0.75 -0.25 -0.55 -0.10 -0.65 0.55 -0.45 0.45 0.20 1 0.10 1.20 -0.25 0.30 -0.45 0.70 -0.45 1.70 0 0.75 0.35 1.35 0.80 1.35 1.05 0 0.45 -1.80 0.25 -2.30 -0.25 -0.20 -0.20 -1.30 0.40 -2.40 1.35 -1.15 0.90 -2.95 2.05 -4.05 2.55 -2.60 1.20 -2.50 1.10 -1.75 2 0.35 0.40 1.35 0.80 2.20 0.80 l1.55 0.05 -1.50 0.35 c-0.90 0.15 -1.70 0.75 -2 1.45 -0.40 0.85 -0.90 1.10 -2.40 1.10 -1.80 0 -1.85 -0.05 -1.55 -1.35z m6.35 -6.75 c0.60 -1.20 0.70 -2.55 0.50 -5.60 -0.35 -4.80 -0.35 -4.80 0.10 -8.15 0.30 -2.15 0.25 -2.65 -0.35 -2.65 -0.90 0 -1.80 1.85 -2.20 4.65 -0.15 1.15 -0.40 2.65 -0.55 3.35 -0.10 0.70 -0.35 2.75 -0.50 4.55 -0.40 5 1.35 7.30 3 3.85z m20.85 -1.65 c0 -0.15 -0.10 -0.25 -0.25 -0.25 -0.15 0 -0.25 0.10 -0.25 0.25 0 0.15 0.10 0.25 0.25 0.25 0.15 0 0.25 -0.10 0.25 -0.25z m-2.50 -0.75 c0 -0.25 0.85 -0.50 1.95 -0.50 2.20 0 5 -0.85 6.05 -1.80 1 -0.95 -0.05 -0.85 -1.45 0.10 -0.95 0.65 -1.95 0.80 -5.10 0.55 -2.30 -0.15 -3.85 -0.05 -3.65 0.20 0.45 0.75 -1.50 0.50 -2.60 -0.30 -1.25 -0.95 -2.15 -0.95 -1.20 0 0.75 0.70 4.10 2.05 5.40 2.20 0.30 0 0.60 -0.15 0.60 -0.45z m5.15 -4.25 c-0.75 -1.30 -5.15 -3.75 -6.75 -3.75 -1.55 0 -1.50 0.05 1 1.35 1.40 0.70 2.70 1.75 2.90 2.25 0.15 0.60 0.75 0.90 1.75 0.90 1.20 0 1.40 -0.15 1.10 -0.75z m4.35 -2.60 c0 -0.35 -0.20 -0.65 -0.50 -0.65 -0.25 0 -0.50 0.25 -0.50 0.55 0 0.30 -0.45 0.40 -1 0.20 -1.15 -0.35 -1.25 -0.10 -0.45 1.30 0.50 1 0.55 1 1.50 0.15 0.50 -0.45 0.95 -1.15 0.95 -1.55z m-17.50 1.60 c0 -0.15 -0.10 -0.25 -0.25 -0.25 -0.15 0 -0.25 0.10 -0.25 0.25 0 0.15 0.10 0.25 0.25 0.25 0.15 0 0.25 -0.10 0.25 -0.25z m9.95 -5.10 c-0.65 -0.80 -1.50 -1.70 -1.90 -2 -1 -0.85 -4.05 -0.80 -5.25 0.10 -0.90 0.70 -0.90 0.75 0.25 1.70 0.65 0.55 1.45 1 1.70 1 0.30 0 0.10 -0.30 -0.35 -0.65 -0.80 -0.60 -1.25 -1.80 -0.70 -1.80 0.10 0 0.55 -0.15 1 -0.30 0.60 -0.25 0.80 0 0.80 1 0 0.80 0.30 1.30 0.70 1.30 0.45 0 0.60 -0.35 0.45 -1.05 -0.20 -0.80 -0.10 -1 0.40 -0.85 0.40 0.15 0.65 0.65 0.60 1.10 0 0.55 0.20 0.75 0.60 0.60 0.35 -0.10 1.05 0.10 1.60 0.45 1.40 1.10 1.45 0.90 0.10 -0.60z m5.05 -1.65 c0 -0.25 -0.35 -0.50 -0.75 -0.50 -0.40 0 -0.75 -0.25 -0.75 -0.60 0 -0.30 -0.15 -0.40 -0.30 -0.25 -0.40 0.40 0.70 1.85 1.35 1.85 0.25 0 0.45 -0.20 0.45 -0.50z m-23.70 -4.35 c-0.95 -1.35 -1.30 -1.60 -1.30 -0.90 0 0.90 1.95 3.45 2.40 3.05 0.10 -0.15 -0.40 -1.10 -1.10 -2.15z m13.10 0.80 c-0.90 -0.60 -1.25 -0.55 -1.55 0.20 -0.20 0.50 0.10 0.65 1 0.45 0.90 -0.15 1.05 -0.35 0.55 -0.65z m-9.40 -1.75 c-1.25 -2 -1 -2.80 0.50 -1.45 1.70 1.55 1.05 0.10 -1 -2.25 -1.65 -1.85 -2 -2.05 -2 -1.20 0 1.65 1.05 4.35 2.15 5.60 1.45 1.60 1.60 1.35 0.35 -0.70z m16 1.55 c0 -0.15 -0.10 -0.25 -0.25 -0.25 -0.15 0 -0.25 0.10 -0.25 0.25 0 0.15 0.10 0.25 0.25 0.25 0.15 0 0.25 -0.10 0.25 -0.25z m1.05 -2.10 c-0.25 -0.50 -1.20 -1.55 -2.10 -2.40 -1.45 -1.35 -1.45 -1.25 0.35 0.85 2.10 2.55 2.50 2.90 1.75 1.55z m-14.70 -4.50 c-0.20 -0.15 -0.50 -0.15 -0.70 0 -0.15 0.20 0 0.35 0.35 0.35 0.35 0 0.50 -0.15 0.35 -0.35z m9.65 -0.90 c0 -0.15 -0.10 -0.25 -0.25 -0.25 -0.15 0 -0.25 0.10 -0.25 0.25 0 0.15 0.10 0.25 0.25 0.25 0.15 0 0.25 -0.10 0.25 -0.25z m-1.10 -1.65 c0.50 -0.50 1.10 -1.35 1.25 -1.85 0.35 -0.80 0.25 -0.80 -0.50 -0.20 -1 0.80 -2.65 2.50 -2.65 2.80 0 0.45 1.10 0.05 1.90 -0.75z"/>
  <path d="M26.15 28.65 c0.20 -0.15 0.50 -0.15 0.70 0 0.15 0.20 0 0.35 -0.35 0.35 -0.35 0 -0.50 -0.15 -0.35 -0.35z"/>
  <path d="M7 39.75 c0 -0.15 0.10 -0.25 0.25 -0.25 0.15 0 0.25 0.10 0.25 0.25 0 0.15 -0.10 0.25 -0.25 0.25 -0.15 0 -0.25 -0.10 -0.25 -0.25z"/>
  <path d="M13.05 33.20 c-0.10 -1.20 1.25 -1.70 2.25 -0.90 0.90 0.75 0.90 0.75 -0.40 0.50 -0.80 -0.20 -1.40 -0.05 -1.55 0.35 -0.20 0.35 -0.30 0.40 -0.30 0.05z"/>
  <path d="M16.70 32.90 c-0.20 -0.35 -0.15 -0.40 0.20 -0.20 0.60 0.35 0.80 0.80 0.40 0.80 -0.15 0 -0.40 -0.25 -0.60 -0.60z"/>
 </g>
 <g fill="#362c3a">
  <path d="M3.10 38.15 c0.30 -1.05 0.60 -3.90 0.70 -6.40 0.25 -7.70 1.20 -13.75 2.70 -16.85 0.75 -1.55 1.65 -3.95 2 -5.30 0.60 -2.50 2 -4.60 3.15 -4.60 0.35 0 1.15 0.35 1.80 0.80 0.85 0.60 1.40 0.70 2.20 0.35 1.65 -0.75 5.85 -1.70 6.35 -1.40 0.20 0.10 0.95 -0.35 1.70 -1.10 0.70 -0.70 1.30 -1 1.30 -0.65 0 0.35 -0.50 1.05 -1.10 1.55 -0.90 0.85 -0.95 0.95 -0.15 0.95 1 0 5.40 3.80 7.40 6.40 0.75 0.95 1.35 1.55 1.35 1.25 0 -0.75 -1.80 -2.90 -4.60 -5.50 -1.30 -1.25 -2.40 -2.50 -2.40 -2.75 0 -0.25 0.20 -0.35 0.45 -0.20 0.25 0.15 0.55 -0.35 0.70 -1.10 0.15 -0.75 0 -1.50 -0.30 -1.70 -0.35 -0.25 -0.15 -0.40 0.55 -0.40 1.10 0 1.15 0.15 0.80 2.30 -0.30 2.25 -0.30 2.30 2.40 4.90 1.95 1.95 2.90 3.30 3.35 4.95 0.40 1.25 0.95 2.40 1.35 2.55 0.40 0.15 0.70 0.80 0.70 1.40 0 0.65 0.35 1.70 0.80 2.30 0.45 0.65 0.65 1.30 0.45 1.50 -0.50 0.50 -1.70 -1.35 -2.05 -3.25 -0.15 -0.90 -0.50 -1.50 -0.75 -1.35 -0.25 0.10 -0.75 -0.50 -1.15 -1.40 l-0.70 -1.65 -0.05 1.55 c-0.05 1 0.35 1.90 1.15 2.65 1.30 1.20 2.60 3.90 2.15 4.35 -0.60 0.60 -4.20 -1.50 -6.15 -3.65 -2.40 -2.55 -4 -3.05 -6.55 -1.80 -2 0.90 -2.05 1.30 -0.40 2.35 0.85 0.55 2 0.75 3.80 0.60 2.25 -0.15 2.85 0.05 5.10 1.55 1.45 0.95 2.90 2.30 3.25 3 0.75 1.35 1.15 1.20 2.30 -1.10 l0.80 -1.50 0 2.50 c0 2.35 -0.20 2.70 -2.10 4.60 -1.20 1.15 -2.90 2.20 -3.75 2.40 -1.70 0.35 -2.10 1.10 -1.05 2.15 0.45 0.45 0.45 0.75 0 1.20 -0.80 0.80 -0.75 2 0.15 3.70 0.75 1.45 0.75 1.45 -0.85 1.60 -0.90 0.10 -1.70 -0.10 -1.95 -0.50 -0.35 -0.50 -0.45 -0.50 -0.45 0 0 0.40 -0.80 0.60 -2.25 0.60 -2.30 0 -3.05 -0.65 -1.30 -1.15 0.55 -0.10 1.80 -1.50 2.85 -3.10 1.60 -2.35 1.95 -2.70 2.25 -1.90 0.25 0.60 0.40 0.65 0.40 0.15 0 -1.65 -0.85 -2.65 -2.75 -3.30 -1.05 -0.40 -2.30 -0.70 -2.70 -0.70 -0.45 0 -1.60 -0.55 -2.60 -1.25 -2.30 -1.55 -2.75 -1.60 -1.70 -0.05 0.80 1.25 0.50 2.05 -0.50 1.40 -0.90 -0.60 -3.20 -5 -3.20 -6.05 0 -0.60 0.30 -1.05 0.65 -1.05 0.75 0 2.80 2.05 4.10 4.10 0.50 0.85 1.70 1.65 3.15 2.10 2.85 0.95 7.65 1.60 6.70 0.90 -0.55 -0.35 -0.40 -0.55 0.65 -0.80 0.70 -0.20 1.55 -0.20 1.85 0 0.35 0.20 0.40 0.15 0.20 -0.20 -0.20 -0.40 0 -0.60 0.60 -0.60 0.95 0 2.95 -1.80 2.55 -2.25 -0.15 -0.10 -1.20 0.25 -2.30 0.80 -2.40 1.15 -5.45 0.90 -5.90 -0.50 -0.15 -0.45 -1.75 -1.65 -3.65 -2.60 -1.85 -1 -3.60 -2.25 -3.85 -2.85 -0.30 -0.55 -0.80 -1.35 -1.15 -1.75 -0.50 -0.60 -0.50 -1.15 0.10 -2.80 0.65 -1.90 0.65 -2.05 -0.25 -2.05 -0.55 0 -0.95 -0.30 -0.95 -0.65 0 -0.35 -1.05 -1.75 -2.30 -3.10 -1.25 -1.40 -2.65 -3 -3.05 -3.65 -0.45 -0.65 -1 -0.95 -1.25 -0.70 -0.70 0.70 1.05 5.50 2.70 7.35 2.05 2.35 1.45 2.80 -0.85 0.65 -1.15 -1.05 -2.15 -2.65 -2.75 -4.40 l-0.90 -2.70 -0.35 1.85 c-0.45 2.45 -0.50 3.95 -0.05 4.90 0.25 0.60 0.05 0.90 -0.65 1.10 -1.15 0.30 -1.70 1.95 -2.85 8.80 -0.90 5.30 -0.75 8.10 0.60 9.40 0.80 0.85 0.80 0.90 0.05 1.05 -0.80 0.15 -1.15 2.05 -0.90 4.75 0.10 0.65 -0.25 0.85 -1.60 0.85 l-1.75 0 0.50 -1.85z m27.40 -21.40 c-0.65 -0.70 -1.40 -1.25 -1.70 -1.25 -0.55 0.05 2 2.50 2.55 2.50 0.20 0 -0.20 -0.55 -0.85 -1.25z m-10.50 -4.75 c-0.70 -0.50 -1.35 -0.85 -1.45 -0.70 -0.30 0.25 1.55 1.65 2.20 1.65 0.30 0.05 -0.05 -0.40 -0.75 -0.95z m7.95 -0.35 c-0.45 -1.30 -2.70 -3.20 -6.20 -5.30 -1.25 -0.75 -1.20 -0.60 0.45 0.90 1.60 1.45 1.80 1.80 1.10 2.05 -0.90 0.35 -4.30 -1.20 -4.30 -1.95 0 -0.20 -0.20 -0.30 -0.45 -0.10 -0.65 0.40 3.75 4.40 5.05 4.60 0.55 0.10 1.40 0.40 1.85 0.65 0.45 0.25 1.30 0.50 1.90 0.50 1 0 1.05 -0.15 0.60 -1.35z m-10.95 -4.40 c0 -0.45 -0.30 -0.60 -0.75 -0.45 -0.40 0.20 -0.60 0.50 -0.45 0.75 0.40 0.70 1.20 0.50 1.20 -0.30z"/>
  <path d="M23.20 18.45 c-0.35 -0.60 0.75 -1.55 1.40 -1.15 0.20 0.15 0.40 0.60 0.40 1 0 0.85 -1.30 0.95 -1.80 0.15z"/>
  <path d="M26 18.20 c0 -0.85 1.10 -0.70 1.40 0.20 0.10 0.35 -0.15 0.60 -0.60 0.60 -0.45 0 -0.80 -0.35 -0.80 -0.80z"/>
  <path d="M11.55 13.90 c-0.85 -1.15 -1.55 -2.30 -1.55 -2.55 0 -0.55 3.95 3.70 4 4.30 0.05 0.95 -1.05 0.15 -2.45 -1.75z"/>
  <path d="M15.50 12.75 c0 -0.15 0.10 -0.25 0.25 -0.25 0.15 0 0.25 0.10 0.25 0.25 0 0.15 -0.10 0.25 -0.25 0.25 -0.15 0 -0.25 -0.10 -0.25 -0.25z"/>
  <path d="M14.50 11.75 c0 -0.15 0.10 -0.25 0.25 -0.25 0.15 0 0.25 0.10 0.25 0.25 0 0.15 -0.10 0.25 -0.25 0.25 -0.15 0 -0.25 -0.10 -0.25 -0.25z"/>
 </g>
 <g fill="#443849">
  <path d="M3.20 38.40 c0.20 -0.90 0.55 -4.70 0.80 -8.40 0.65 -10.05 1.80 -15.70 3.45 -16.70 0.25 -0.20 0.60 -1.25 0.80 -2.45 0.75 -4.45 2.85 -6.55 5.05 -5.10 1 0.65 1.60 0.70 2.95 0.25 0.95 -0.25 2.55 -0.75 3.50 -1.05 0.95 -0.25 1.95 -0.40 2.20 -0.20 0.30 0.15 1.40 -0.65 2.50 -1.80 2.60 -2.55 3.35 -2.35 3.15 0.75 -0.15 2.05 0 2.60 1.20 3.85 0.75 0.80 1.15 1.45 0.90 1.45 -0.30 0 -1.10 -0.60 -1.85 -1.35 -1.05 -1.15 -1.25 -1.80 -1.15 -3.50 0.10 -1.20 0.05 -2.15 -0.10 -2.15 -0.40 0 -3.60 3.20 -3.60 3.65 0 0.20 0.40 0.35 0.95 0.35 0.50 0 1.05 0.45 1.20 1 0.30 1.20 -0.75 1.35 -1.65 0.20 -0.95 -1.10 -2.45 -1.80 -3.05 -1.40 -0.30 0.15 0.10 0.70 1 1.25 1.50 0.90 2.05 1.95 1.05 1.95 -1.10 0 -3.50 -1.55 -3.20 -2.05 0.20 -0.35 -0.05 -0.35 -0.75 0 -0.85 0.50 -1 0.45 -0.75 -0.20 0.25 -0.60 0.10 -0.70 -0.85 -0.35 -1.20 0.45 -1.90 1.60 -1 1.60 1.45 0 4.95 2.20 6.25 3.95 0.95 1.30 1.70 1.85 2.30 1.70 0.50 -0.15 1.45 0.05 2.05 0.40 0.65 0.35 1.55 0.60 1.95 0.55 0.65 -0.15 0.65 -0.10 0 0.35 -0.45 0.30 -0.55 0.65 -0.25 0.90 0.30 0.20 1.35 1.20 2.40 2.15 1.55 1.40 2 1.60 2.35 1 0.25 -0.40 0.65 -0.55 0.85 -0.30 0.20 0.25 0.10 0.55 -0.20 0.65 -1 0.35 -0.75 1.15 0.30 1.15 0.50 0 1.10 0.35 1.25 0.80 0.40 1.10 0.45 1.10 -1 0.80 -0.70 -0.15 -2.70 -1.55 -4.45 -3.15 -3.25 -3.05 -4.70 -3.55 -6.85 -2.40 -1.30 0.70 -2.35 -0.15 -1.45 -1.20 0.45 -0.55 0.45 -1.05 0.05 -1.90 -0.75 -1.55 -3.90 -3.95 -5.20 -3.95 -0.60 0 -1.75 -0.80 -2.65 -1.85 -0.85 -1.05 -1.70 -1.75 -1.90 -1.55 -0.70 0.70 0.90 5.50 2.40 7.20 1.70 2 1.60 2.65 -0.25 1.20 -1.45 -1.10 -2.95 -4.45 -3 -6.60 -0.05 -2.20 -0.85 -0.95 -1.45 2.30 -0.40 2.15 -0.35 3.05 0.05 3.60 0.50 0.55 0.45 0.75 -0.15 1 -0.45 0.15 -1.05 0.15 -1.30 -0.05 -0.35 -0.20 -0.40 0 -0.20 0.55 0.20 0.55 0.15 0.75 -0.25 0.50 -0.35 -0.20 -0.65 0.25 -0.80 1.30 -0.15 0.90 -0.50 3 -0.80 4.65 -0.60 3.70 -0.80 10.10 -0.30 11.65 0.25 0.75 0 2.10 -0.75 3.85 -1.25 3.05 -2.25 3.70 -1.75 1.15z"/>
  <path d="M23.50 39.80 c0 -0.10 0.35 -0.30 0.75 -0.50 0.40 -0.15 0.75 -0.05 0.75 0.20 0 0.30 -0.35 0.50 -0.75 0.50 -0.40 0 -0.75 -0.10 -0.75 -0.20z"/>
  <path d="M26 39.55 c0 -0.20 0.70 -1.25 1.50 -2.30 2.70 -3.40 2.45 -5.85 -0.60 -6.55 -0.90 -0.20 -1.35 -0.45 -1.05 -0.55 0.35 -0.15 1.40 0 2.35 0.35 1.35 0.45 2.10 0.40 3.75 -0.30 1.15 -0.45 1.95 -0.95 1.80 -1.10 -0.10 -0.15 0.25 -0.50 0.80 -0.80 0.60 -0.30 1.45 -1.10 1.90 -1.80 0.45 -0.70 0.55 -1.05 0.20 -0.80 -0.90 0.50 -0.80 -0.70 0.10 -1.90 0.70 -0.95 0.75 -0.85 0.75 0.90 0 1.60 -0.40 2.30 -2.10 4.10 -1.20 1.20 -2.60 2.20 -3.15 2.20 -0.55 0 -1.35 0.25 -1.75 0.50 -0.65 0.40 -0.65 0.65 -0.10 1.55 0.50 0.75 0.55 1.20 0.15 1.60 -0.70 0.70 -0.70 2.70 -0.05 3.10 0.65 0.40 0.65 2.25 0.05 2.25 -0.25 0 -0.60 -0.30 -0.70 -0.60 -0.20 -0.50 -0.30 -0.50 -0.30 0 -0.05 0.30 -0.40 0.60 -0.85 0.60 -0.55 0 -0.70 -0.30 -0.50 -1.10 l0.30 -1.15 -0.55 1.15 c-0.60 1.05 -1.95 1.55 -1.95 0.65z"/>
  <path d="M28.50 33.75 c0 -0.15 0.10 -0.25 0.25 -0.25 0.15 0 0.25 0.10 0.25 0.25 0 0.15 -0.10 0.25 -0.25 0.25 -0.15 0 -0.25 -0.10 -0.25 -0.25z"/>
  <path d="M24.15 29.65 c0.20 -0.15 0.50 -0.15 0.70 0 0.15 0.20 0 0.35 -0.35 0.35 -0.35 0 -0.50 -0.15 -0.35 -0.35z"/>
  <path d="M22.15 29.15 c0.20 -0.15 0.50 -0.15 0.70 0 0.15 0.20 0 0.35 -0.35 0.35 -0.35 0 -0.50 -0.15 -0.35 -0.35z"/>
  <path d="M19.60 27.25 c-0.85 -0.70 -1.75 -1.25 -2.05 -1.25 -0.65 0 -0.75 -1.30 -0.15 -1.70 0.55 -0.35 1.20 0.20 2.80 2.35 1.65 2.15 1.45 2.35 -0.60 0.60z"/>
  <path d="M32.50 26.75 c0.50 -0.60 0.50 -0.75 -0.20 -0.75 -0.40 0 -2 -0.75 -3.45 -1.70 -1.45 -0.95 -3.45 -2.05 -4.40 -2.40 -1.85 -0.80 -3.30 -2.20 -2.75 -2.75 0.15 -0.15 0.70 0.05 1.25 0.55 0.70 0.60 1.50 0.80 3 0.60 1.75 -0.20 2.55 0 4.50 1.20 1.35 0.85 2.65 1.50 2.95 1.50 0.25 0 0.75 0.75 1.05 1.60 0.50 1.40 0.45 1.75 -0.30 2.25 -0.45 0.35 -1.15 0.65 -1.55 0.65 -0.60 0 -0.60 -0.15 -0.10 -0.75z"/>
  <path d="M35.50 20.40 c-0.25 -0.65 -0.55 -1.80 -0.75 -2.55 -0.15 -0.75 -0.50 -1.25 -0.75 -1.10 -0.60 0.35 -0.85 -0.15 -1.45 -2.65 -0.45 -2.20 0.10 -2.95 0.75 -0.95 0.20 0.60 0.75 1.65 1.25 2.30 0.55 0.65 0.95 1.80 0.95 2.55 0 0.75 0.35 1.65 0.75 2 0.85 0.70 1 1.50 0.25 1.50 -0.30 0 -0.75 -0.50 -1 -1.10z"/>
  <path d="M23.30 18.55 c-0.15 -0.25 0.05 -0.70 0.45 -1.05 0.40 -0.35 0.75 -0.55 0.80 -0.45 0.30 1.60 0.25 1.95 -0.30 1.95 -0.40 0 -0.80 -0.20 -0.95 -0.45z"/>
  <path d="M26 18.25 c0 -0.45 0.25 -0.75 0.55 -0.65 0.30 0.10 0.55 0.40 0.55 0.65 0 0.25 -0.25 0.55 -0.55 0.65 -0.30 0.10 -0.55 -0.20 -0.55 -0.65z"/>
  <path d="M32.15 17.65 c0.20 -0.15 0.50 -0.15 0.70 0 0.15 0.20 0 0.35 -0.35 0.35 -0.35 0 -0.50 -0.15 -0.35 -0.35z"/>
  <path d="M30.65 13.65 c0.20 -0.15 0.50 -0.15 0.70 0 0.15 0.20 0 0.35 -0.35 0.35 -0.35 0 -0.50 -0.15 -0.35 -0.35z"/>
  <path d="M28 9.25 c0 -0.15 0.10 -0.25 0.25 -0.25 0.15 0 0.25 0.10 0.25 0.25 0 0.15 -0.10 0.25 -0.25 0.25 -0.15 0 -0.25 -0.10 -0.25 -0.25z"/>
 </g>
 <g fill="#53465a">
  <path d="M3.20 38.65 c0.20 -0.80 0.55 -4.30 0.80 -7.90 0.70 -10.90 1.55 -15.15 3.30 -17.25 0.35 -0.45 0.90 -1.85 1.20 -3.20 1 -4.50 2.50 -5.80 5.10 -4.35 1.15 0.70 1.55 0.70 2.45 0.15 0.55 -0.35 1.15 -0.55 1.30 -0.45 0.15 0.15 -0.30 0.55 -0.95 0.90 -0.60 0.30 -1.30 0.85 -1.55 1.15 -0.25 0.35 -0.70 0.15 -1.35 -0.60 -0.55 -0.65 -1.30 -1.10 -1.70 -1 -1.05 0.25 0.75 5.60 2.50 7.45 0.75 0.80 1.15 1.45 0.90 1.45 -1.50 0 -4 -4.20 -4.30 -7.25 l-0.15 -1.50 -0.70 1.25 c-0.40 0.65 -0.70 2.50 -0.75 4.10 -0.05 2.55 -0.15 2.90 -1 2.80 -1.70 -0.25 -2.85 4.70 -3.05 13.35 -0.15 7.40 -0.90 12.25 -1.85 12.25 -0.30 0 -0.40 -0.55 -0.20 -1.35z"/>
  <path d="M26.50 39.65 c0 -0.20 0.70 -1.40 1.50 -2.60 1.75 -2.60 1.90 -4.15 0.45 -5.60 l-1.05 -1.05 1.20 0.35 c1.60 0.50 1.55 0.40 1.65 3.85 0.10 1.75 0.30 3.65 0.50 4.30 0.50 1.55 -0.40 1.40 -1.30 -0.20 l-0.65 -1.30 -1.15 1.35 c-0.65 0.70 -1.15 1.10 -1.15 0.90z"/>
  <path d="M28.50 39.25 c0 -0.40 0.10 -0.75 0.20 -0.75 0.10 0 0.30 0.35 0.50 0.75 0.15 0.40 0.05 0.75 -0.20 0.75 -0.30 0 -0.50 -0.35 -0.50 -0.75z"/>
  <path d="M31.90 30.35 c0.90 -0.35 1.85 -0.95 2.10 -1.35 0.25 -0.40 0.65 -0.55 0.85 -0.30 0.60 0.60 -1.80 2.30 -3.30 2.25 -1.25 0 -1.25 -0.05 0.35 -0.60z"/>
  <path d="M26.50 30.25 c0 -0.15 0.10 -0.25 0.25 -0.25 0.15 0 0.25 0.10 0.25 0.25 0 0.15 -0.10 0.25 -0.25 0.25 -0.15 0 -0.25 -0.10 -0.25 -0.25z"/>
  <path d="M19.70 26.90 l-0.95 -1.15 1.15 0.95 c1.05 0.90 1.35 1.30 0.95 1.30 -0.10 0 -0.60 -0.50 -1.15 -1.10z"/>
  <path d="M36.30 26.95 c0.60 -0.65 0.70 -1.15 0.40 -1.35 -0.40 -0.25 -0.35 -0.80 0.10 -1.85 l0.65 -1.50 -0.05 2.25 c-0.05 2.25 -0.60 3.50 -1.55 3.50 -0.25 0 -0.10 -0.45 0.45 -1.05z"/>
  <path d="M33.30 24.55 c-0.20 -0.35 -0.25 -0.75 -0.10 -0.90 0.45 -0.45 0.95 0.20 0.70 0.90 -0.20 0.55 -0.30 0.55 -0.60 0z"/>
  <path d="M30.75 23.50 c0.15 -0.25 0.40 -0.50 0.55 -0.50 0.10 0 0.20 0.25 0.20 0.50 0 0.30 -0.25 0.50 -0.55 0.50 -0.25 0 -0.35 -0.20 -0.20 -0.50z"/>
  <path d="M34 21.90 c-1 -0.35 -1.10 -0.55 -0.50 -0.90 0.50 -0.30 1 -0.20 1.45 0.25 1 0.95 0.60 1.25 -0.95 0.65z"/>
  <path d="M35.60 20.25 c-0.35 -0.70 -0.60 -1.85 -0.60 -2.55 0 -0.90 -0.25 -1.20 -0.85 -1.10 -0.65 0.10 -0.95 -0.30 -1.15 -1.70 -0.40 -2.30 -1.60 -4.20 -4.10 -6.40 -1.75 -1.55 -2 -2.05 -2.05 -4.10 -0.05 -1.35 -0.20 -2.40 -0.35 -2.40 -0.15 0 -1 0.80 -1.95 1.75 -0.95 0.95 -1.90 1.75 -2.10 1.75 -0.65 0 3.20 -3.75 4.20 -4.15 0.95 -0.35 0.95 -0.20 0.90 3.15 -0.05 2.05 0.10 2.35 1.70 3.50 1.85 1.30 4.25 4.75 4.25 6.10 0 0.40 0.45 1.15 1 1.65 0.55 0.50 1 1.45 1 2.10 0 0.65 0.35 1.75 0.80 2.40 0.45 0.70 0.60 1.25 0.35 1.25 -0.25 0 -0.75 -0.55 -1.05 -1.25z"/>
  <path d="M29.30 18.45 c-2.70 -2.45 -2.95 -2.55 -5.10 -2.30 -1.80 0.20 -2.10 0.10 -1.65 -0.45 0.40 -0.50 0.10 -1.20 -1.30 -2.95 -1.35 -1.60 -1.65 -2.25 -1.10 -2.25 0.45 0 1.50 1 2.30 2.20 1.20 1.75 1.90 2.25 3.40 2.45 1.40 0.25 2.55 1 4.40 2.85 3.30 3.35 2.60 3.70 -0.95 0.45z"/>
  <path d="M26.30 18.55 c-0.20 -0.35 -0.25 -0.75 -0.10 -0.90 0.45 -0.45 0.95 0.20 0.70 0.90 -0.20 0.55 -0.30 0.55 -0.60 0z"/>
  <path d="M23.75 17.50 c0.15 -0.25 0.40 -0.50 0.55 -0.50 0.10 0 0.20 0.25 0.20 0.50 0 0.30 -0.25 0.50 -0.55 0.50 -0.25 0 -0.35 -0.20 -0.20 -0.50z"/>
  <path d="M15.50 8.50 c0 -0.25 0.20 -0.50 0.45 -0.50 0.30 0 0.65 0.25 0.80 0.50 0.15 0.30 -0.05 0.50 -0.45 0.50 -0.45 0 -0.80 -0.20 -0.80 -0.50z"/>
  <path d="M21.50 8.25 c0 -0.15 0.10 -0.25 0.25 -0.25 0.15 0 0.25 0.10 0.25 0.25 0 0.15 -0.10 0.25 -0.25 0.25 -0.15 0 -0.25 -0.10 -0.25 -0.25z"/>
  <path d="M23 6.25 c0 -0.15 0.10 -0.25 0.25 -0.25 0.15 0 0.25 0.10 0.25 0.25 0 0.15 -0.10 0.25 -0.25 0.25 -0.15 0 -0.25 -0.10 -0.25 -0.25z"/>
  <path d="M18.50 5.80 c0 -0.10 0.45 -0.30 1 -0.45 0.55 -0.15 0.90 -0.05 0.70 0.20 -0.25 0.45 -1.70 0.65 -1.70 0.25z"/>
  <path d="M25.50 5 c0 -0.35 0.15 -0.50 0.35 -0.35 0.15 0.20 0.15 0.50 0 0.70 -0.20 0.15 -0.35 0 -0.35 -0.35z"/>
  <path d="M21 4.75 c0 -0.15 0.10 -0.25 0.25 -0.25 0.15 0 0.25 0.10 0.25 0.25 0 0.15 -0.10 0.25 -0.25 0.25 -0.15 0 -0.25 -0.10 -0.25 -0.25z"/>
 </g>
 <g fill="#695a6d">
  <path d="M3.20 38.95 c0.20 -0.65 0.60 -4.55 0.85 -8.65 0.25 -4.15 0.60 -7.60 0.80 -7.75 0.15 -0.15 0.15 2.05 0 4.95 -0.15 2.90 -0.15 5.70 0.10 6.25 0.25 0.55 0.10 1.45 -0.30 2.25 -0.35 0.70 -0.65 1.75 -0.65 2.35 0 0.60 -0.25 1.25 -0.60 1.45 -0.40 0.25 -0.45 0 -0.20 -0.85z"/>
  <path d="M30.25 39.50 c-0.25 -0.40 -0.70 -1.20 -1.05 -1.75 -0.55 -0.85 -0.55 -1.25 0.05 -2.45 0.40 -0.75 0.60 -1.65 0.40 -1.95 -0.15 -0.30 -0.05 -0.35 0.25 -0.15 0.40 0.25 0.50 1.05 0.30 2.35 -0.20 1.25 -0.10 2.20 0.30 2.70 0.30 0.40 0.50 1 0.40 1.35 -0.15 0.45 -0.35 0.40 -0.65 -0.10z"/>
  <path d="M29.30 32.05 c-0.20 -0.35 -0.25 -0.75 -0.10 -0.90 0.45 -0.45 0.95 0.20 0.70 0.90 -0.20 0.55 -0.30 0.55 -0.60 0z"/>
  <path d="M31.70 30.50 c0.75 -0.25 1.85 -0.85 2.35 -1.30 0.50 -0.45 0.95 -0.60 0.95 -0.35 0 0.80 -2.30 2.15 -3.60 2.10 -1 -0.05 -0.95 -0.10 0.30 -0.45z"/>
  <path d="M36.25 27 c0.50 -0.55 1 -1 1.10 -1 0.10 0 -0.05 0.45 -0.35 1 -0.30 0.55 -0.80 1 -1.10 1 -0.30 0 -0.15 -0.45 0.35 -1z"/>
  <path d="M37.05 23.70 c0 -0.55 0.15 -0.70 0.30 -0.30 0.15 0.35 0.10 0.80 -0.05 0.95 -0.15 0.20 -0.30 -0.10 -0.25 -0.65z"/>
  <path d="M5.05 20.75 c-0.05 -1.70 1.40 -6.25 2.40 -7.45 0.40 -0.45 0.90 -1.85 1.10 -3.15 0.80 -4.25 2.75 -5.70 5.15 -3.90 0.55 0.40 0.75 0.75 0.45 0.75 -0.35 0 -0.75 -0.20 -0.90 -0.50 -0.15 -0.25 -0.85 -0.50 -1.55 -0.50 -1.40 0 -2.15 1.45 -2.55 4.90 -0.15 1.15 -0.65 2.40 -1.10 2.75 -0.80 0.55 -2.25 4.50 -2.70 7.35 -0.20 1.10 -0.20 1.05 -0.30 -0.25z"/>
  <path d="M34.50 21.75 c0 -0.15 0.10 -0.25 0.25 -0.25 0.15 0 0.25 0.10 0.25 0.25 0 0.15 -0.10 0.25 -0.25 0.25 -0.15 0 -0.25 -0.10 -0.25 -0.25z"/>
  <path d="M35.70 20.40 c-0.20 -0.35 -0.15 -0.40 0.20 -0.20 0.35 0.20 0.60 0.45 0.60 0.60 0 0.40 -0.45 0.20 -0.80 -0.40z"/>
  <path d="M35.10 18.25 c0 -0.80 0.10 -1.10 0.25 -0.60 0.10 0.45 0.10 1.15 0 1.50 -0.15 0.30 -0.25 -0.05 -0.25 -0.90z"/>
  <path d="M23.30 18.55 c-0.35 -0.55 0.90 -1.65 1.35 -1.20 0.20 0.15 0.35 0.60 0.35 1 0 0.75 -1.30 0.90 -1.70 0.20z"/>
  <path d="M26 18.30 c0 -0.45 0.25 -0.80 0.50 -0.80 0.30 0 0.50 0.20 0.50 0.45 0 0.30 -0.20 0.65 -0.50 0.80 -0.25 0.15 -0.50 -0.05 -0.50 -0.45z"/>
  <path d="M28.20 16.90 c-0.20 -0.35 -0.15 -0.40 0.20 -0.20 0.60 0.35 0.80 0.80 0.40 0.80 -0.15 0 -0.40 -0.25 -0.60 -0.60z"/>
  <path d="M33.25 16.40 c-0.20 -0.45 -0.25 -1.30 -0.15 -1.85 0.15 -1 0.20 -1 0.70 0.15 0.30 0.65 0.40 1.50 0.15 1.85 -0.30 0.55 -0.45 0.50 -0.70 -0.15z"/>
  <path d="M13 13 c-0.60 -0.85 -0.95 -1.80 -0.85 -2.15 0.20 -0.45 0.30 -0.40 0.30 0.05 0.05 0.40 0.50 1.35 1.10 2.15 0.55 0.80 0.90 1.45 0.75 1.45 -0.10 0 -0.70 -0.70 -1.30 -1.50z"/>
  <path d="M21.80 13.20 c-0.25 -0.70 -0.20 -0.75 0.45 -0.20 0.85 0.70 0.95 1 0.30 1 -0.25 0 -0.60 -0.35 -0.75 -0.80z"/>
  <path d="M32.50 12.55 c0 -0.35 -1.25 -1.85 -2.75 -3.30 -2.55 -2.45 -2.80 -2.85 -2.85 -4.95 0 -1.25 -0.15 -2.30 -0.30 -2.30 -0.15 0 -0.85 0.50 -1.50 1.15 l-1.25 1.10 0.90 -1.40 c0.45 -0.75 1.30 -1.35 1.80 -1.35 0.80 0 0.95 0.40 0.95 2.45 0 2.20 0.20 2.60 1.90 4.10 2 1.75 3.85 4.40 3.40 4.85 -0.20 0.15 -0.30 0 -0.30 -0.35z"/>
  <path d="M11.50 9.75 c0 -0.15 0.10 -0.25 0.25 -0.25 0.15 0 0.25 0.10 0.25 0.25 0 0.15 -0.10 0.25 -0.25 0.25 -0.15 0 -0.25 -0.10 -0.25 -0.25z"/>
  <path d="M11 8 c0 -0.35 0.15 -0.50 0.35 -0.35 0.15 0.20 0.15 0.50 0 0.70 -0.20 0.15 -0.35 0 -0.35 -0.35z"/>
  <path d="M16.65 5.65 c0.20 -0.15 0.50 -0.15 0.70 0 0.15 0.20 0 0.35 -0.35 0.35 -0.35 0 -0.50 -0.15 -0.35 -0.35z"/>
  <path d="M19.15 5.65 c0.20 -0.15 0.50 -0.15 0.70 0 0.15 0.20 0 0.35 -0.35 0.35 -0.35 0 -0.50 -0.15 -0.35 -0.35z"/>
  <path d="M25.50 4.75 c0 -0.15 0.10 -0.25 0.25 -0.25 0.15 0 0.25 0.10 0.25 0.25 0 0.15 -0.10 0.25 -0.25 0.25 -0.15 0 -0.25 -0.10 -0.25 -0.25z"/>
 </g>
 <g fill="#8b7d8f">
  <path d="M3.60 38 c0 -0.70 0.10 -0.95 0.25 -0.60 0.10 0.30 0.10 0.90 0 1.25 -0.15 0.30 -0.25 0.05 -0.25 -0.65z"/>
  <path d="M30 38.50 c0 -0.35 0.15 -0.50 0.35 -0.35 0.15 0.20 0.15 0.50 0 0.70 -0.20 0.15 -0.35 0 -0.35 -0.35z"/>
  <path d="M29 36.25 c0.05 -0.30 0.35 -1.05 0.80 -1.75 l0.75 -1.25 -0.35 1.25 c-0.35 1.30 -1.20 2.60 -1.20 1.75z"/>
  <path d="M4 33.25 c0 -0.15 0.10 -0.25 0.25 -0.25 0.15 0 0.25 0.10 0.25 0.25 0 0.15 -0.10 0.25 -0.25 0.25 -0.15 0 -0.25 -0.10 -0.25 -0.25z"/>
  <path d="M29 31.45 c0 -0.25 0.25 -0.35 0.50 -0.20 0.30 0.15 0.50 0.40 0.50 0.55 0 0.10 -0.20 0.20 -0.50 0.20 -0.25 0 -0.50 -0.25 -0.50 -0.55z"/>
  <path d="M31.50 30.75 c0 -0.15 0.10 -0.25 0.25 -0.25 0.15 0 0.25 0.10 0.25 0.25 0 0.15 -0.10 0.25 -0.25 0.25 -0.15 0 -0.25 -0.10 -0.25 -0.25z"/>
  <path d="M33 30.25 c0 -0.15 0.10 -0.25 0.25 -0.25 0.15 0 0.25 0.10 0.25 0.25 0 0.15 -0.10 0.25 -0.25 0.25 -0.15 0 -0.25 -0.10 -0.25 -0.25z"/>
  <path d="M34.25 29 c0.15 -0.25 0.40 -0.50 0.55 -0.50 0.10 0 0.20 0.25 0.20 0.50 0 0.30 -0.25 0.50 -0.55 0.50 -0.25 0 -0.35 -0.20 -0.20 -0.50z"/>
  <path d="M36 27.30 c0 -0.10 0.40 -0.50 0.90 -0.85 0.75 -0.65 0.80 -0.60 0.15 0.20 -0.65 0.80 -1.05 1.05 -1.05 0.65z"/>
  <path d="M36 20.75 c0 -0.15 0.10 -0.25 0.25 -0.25 0.15 0 0.25 0.10 0.25 0.25 0 0.15 -0.10 0.25 -0.25 0.25 -0.15 0 -0.25 -0.10 -0.25 -0.25z"/>
  <path d="M23.35 18.70 c-0.45 -0.50 0.10 -1.20 0.90 -1.20 0.45 0 0.60 0.30 0.45 0.75 -0.30 0.80 -0.85 0.95 -1.35 0.45z"/>
  <path d="M26 18.25 c0 -0.40 0.25 -0.75 0.50 -0.75 0.30 0 0.50 0.35 0.50 0.75 0 0.40 -0.20 0.75 -0.50 0.75 -0.25 0 -0.50 -0.35 -0.50 -0.75z"/>
  <path d="M5.50 17.75 c0 -0.15 0.10 -0.25 0.25 -0.25 0.15 0 0.25 0.10 0.25 0.25 0 0.15 -0.10 0.25 -0.25 0.25 -0.15 0 -0.25 -0.10 -0.25 -0.25z"/>
  <path d="M33.35 16.20 c-0.20 -0.20 -0.35 -0.70 -0.35 -1.15 0 -0.55 0.15 -0.60 0.55 -0.20 0.30 0.30 0.50 0.80 0.35 1.15 -0.10 0.30 -0.35 0.40 -0.55 0.20z"/>
  <path d="M6.50 14.75 c0 -0.15 0.10 -0.25 0.25 -0.25 0.15 0 0.25 0.10 0.25 0.25 0 0.15 -0.10 0.25 -0.25 0.25 -0.15 0 -0.25 -0.10 -0.25 -0.25z"/>
  <path d="M8.35 11.40 c0.40 -2.20 0.65 -2.40 0.65 -0.50 0 0.85 -0.20 1.70 -0.50 1.85 -0.30 0.20 -0.35 -0.30 -0.15 -1.35z"/>
  <path d="M31.70 11.40 c-0.20 -0.35 -0.15 -0.40 0.20 -0.20 0.35 0.20 0.60 0.45 0.60 0.60 0 0.40 -0.45 0.20 -0.80 -0.40z"/>
  <path d="M29.95 9.15 l-1.20 -1.40 1.40 1.20 c0.75 0.70 1.35 1.30 1.35 1.40 0 0.40 -0.40 0.05 -1.55 -1.20z"/>
  <path d="M9 8.50 c0 -0.35 0.15 -0.50 0.35 -0.35 0.15 0.20 0.15 0.50 0 0.70 -0.20 0.15 -0.35 0 -0.35 -0.35z"/>
  <path d="M27.50 7 c-0.30 -0.55 -0.40 -1 -0.30 -1 0.15 0 0.50 0.45 0.80 1 0.30 0.55 0.40 1 0.30 1 -0.15 0 -0.50 -0.45 -0.80 -1z"/>
  <path d="M11.40 5.65 c0.30 -0.10 0.90 -0.10 1.25 0 0.30 0.15 0.05 0.25 -0.65 0.25 -0.70 0 -0.95 -0.10 -0.60 -0.25z"/>
  <path d="M23 4.75 c0 -0.15 0.10 -0.25 0.25 -0.25 0.15 0 0.25 0.10 0.25 0.25 0 0.15 -0.10 0.25 -0.25 0.25 -0.15 0 -0.25 -0.10 -0.25 -0.25z"/>
  <path d="M27.15 3.25 c0 -1.10 0.10 -1.50 0.20 -0.85 0.10 0.60 0.10 1.50 0 2 -0.15 0.45 -0.25 -0.05 -0.20 -1.15z"/>
  <path d="M25 2.75 c0.65 -0.70 1.30 -1.25 1.40 -1.25 0.15 0 -0.25 0.55 -0.90 1.25 -0.65 0.70 -1.30 1.25 -1.40 1.25 -0.15 0 0.25 -0.55 0.90 -1.25z"/>
 </g>
 <g fill="#c9d5a2">
  <path d="M23.35 18.70 c-0.40 -0.40 0.05 -1.20 0.70 -1.20 0.25 0 0.45 0.35 0.45 0.75 0 0.75 -0.60 1 -1.15 0.45z"/>
  <path d="M26.25 18.55 c-0.15 -0.25 -0.05 -0.60 0.25 -0.80 0.25 -0.15 0.50 0.05 0.50 0.45 0 0.90 -0.30 1.05 -0.75 0.35z"/>
  <path d="M33.35 16.15 c-0.20 -0.15 -0.35 -0.55 -0.35 -0.85 0 -0.30 0.25 -0.25 0.60 0.10 0.30 0.30 0.45 0.70 0.35 0.85 -0.15 0.15 -0.45 0.10 -0.60 -0.10z"/>
 </g>
</svg>