<?xml version="1.0" encoding="utf-8"?>
<!DOCTYPE svg PUBLIC "-//W3C//DTD SVG 1.0//EN" "http://www.w3.org/TR/2001/REC-SVG-20010904/DTD/svg10.dtd">
<svg version="1.0" xmlns="http://www.w3.org/2000/svg" width="40px" height="40px" viewBox="0 0 40 40" preserveAspectRatio="xMidYMid meet">
 <g fill="#16090d">
  <path d="M18 39.65 c0 -0.25 0.35 -0.80 0.75 -1.35 0.65 -0.85 0.75 -0.85 1.45 -0.15 1.20 1.20 0.95 1.85 -0.70 1.85 -0.80 0 -1.50 -0.15 -1.50 -0.35z"/>
  <path d="M20.20 35.85 c0.65 -0.90 0.65 -1.50 0.20 -3 -0.60 -2 -0.90 -2.15 -2.45 -1.30 -1.20 0.60 -2.95 0.15 -2.95 -0.85 0 -0.90 -0.20 -0.90 -2 0.05 -1.10 0.55 -1.45 0.60 -1.65 0.10 -0.15 -0.30 -0.40 0.80 -0.60 2.55 -0.20 1.70 -0.60 3.10 -0.80 3.10 -0.25 0 -0.45 -0.35 -0.45 -0.80 0 -0.75 -0.15 -0.75 -1.30 0.05 -1.50 0.95 -1.45 1.15 -0.35 -2.45 0.25 -0.75 0.10 -0.85 -0.90 -0.55 -1.10 0.35 -1.15 0.35 -0.45 -0.55 0.40 -0.50 1.15 -1.40 1.65 -1.90 0.45 -0.55 0.85 -1.30 0.85 -1.65 0 -1.30 -1.90 -0.60 -3.55 1.35 -1.95 2.30 -2.45 2.45 -2.50 0.90 -0.05 -1.05 -0.10 -1.05 -0.60 0.25 -0.30 0.75 -0.70 1.35 -0.95 1.35 -0.65 0 -0.45 -2.65 0.30 -3.60 0.35 -0.50 1.15 -0.90 1.75 -0.90 0.60 0 1.45 -0.35 1.85 -0.75 0.45 -0.40 1.20 -0.75 1.75 -0.75 0.90 0 0.95 -0.10 0.25 -0.75 -0.40 -0.40 -1.20 -0.75 -1.75 -0.75 -0.60 0 -1.05 -0.25 -1.05 -0.50 0 -0.35 -0.65 -0.40 -1.80 -0.20 -1.45 0.25 -1.80 0.20 -1.60 -0.35 0.15 -0.40 0.65 -0.80 1.20 -0.90 1.20 -0.20 2.70 -1.50 2.70 -2.40 0 -0.35 0.25 -0.65 0.50 -0.65 0.30 0 0.50 -0.60 0.50 -1.35 0 -1.50 -2.70 -4.25 -3.80 -3.80 -0.45 0.15 -0.70 -0.10 -0.70 -0.80 0 -0.60 0.30 -1.05 0.70 -1.05 1.30 0 1.30 -2.60 0 -4.60 -0.65 -1.05 -1.20 -2.10 -1.20 -2.40 0 -0.25 -0.20 -0.50 -0.50 -0.50 -0.25 0 -0.50 -0.55 -0.50 -1.25 0 -1.35 0.45 -1.60 1.35 -0.70 0.40 0.40 0.75 0.20 1.30 -0.60 0.70 -1 0.90 -1.05 1.65 -0.40 0.95 0.75 0.95 0.80 -0.10 -1.80 -0.20 -0.45 0 -0.75 0.45 -0.75 0.45 0 0.95 0.50 1.10 1.15 0.60 1.90 2.70 4.35 3.50 4.05 0.60 -0.25 0.75 0.10 0.75 1.60 0 2.70 -0.50 4.20 -1.30 4.20 -0.50 0 -0.70 -0.65 -0.70 -2 0 -1.45 -0.20 -2 -0.75 -2 -0.45 0 -0.95 -0.40 -1.10 -0.85 -0.45 -1.20 -1.10 -1.60 -2.10 -1.30 -0.75 0.20 -0.80 0.45 -0.35 1.95 0.35 1.10 0.85 1.70 1.40 1.70 0.70 0 0.90 0.40 0.90 1.70 0 0.95 -0.20 1.85 -0.45 2 -0.80 0.50 0 2.80 1 2.80 0.65 0 0.95 0.55 1.25 2.25 0.35 2.40 1.20 3.10 1.20 1 0 -0.70 0.25 -1.25 0.50 -1.25 0.30 0 0.50 0.25 0.50 0.50 0 0.30 0.45 0.50 1 0.50 0.55 0 1 -0.30 1 -0.65 0 -0.90 2.30 -3 3 -2.75 0.35 0.10 0.20 0.65 -0.45 1.50 -1.10 1.40 -0.95 2.90 0.30 2.90 0.95 0 2.15 -1.25 2.15 -2.20 0 -0.45 0.35 -0.80 0.75 -0.80 0.60 0 0.75 0.50 0.55 2.50 -0.20 2.35 -0.15 2.50 0.95 2.50 1.45 0 1.75 -0.45 2 -3.05 0.20 -1.90 0 -2.25 -2.30 -4.45 -2.70 -2.60 -2.90 -3.65 -0.95 -4.90 0.80 -0.50 1 -0.50 1 0.05 0 0.35 -0.30 0.95 -0.60 1.30 -0.55 0.50 -0.30 0.95 1.15 2.20 3.45 3.05 3.80 4.15 2.65 8 -0.20 0.60 0 0.85 0.80 0.85 2.20 0 5 -3 5 -5.30 0 -0.50 0.35 -1.25 0.75 -1.70 0.45 -0.50 0.80 -2.05 0.85 -4.10 0.15 -3.20 0.20 -3.30 1.10 -2.50 0.85 0.80 0.95 0.80 1.50 -0.05 0.30 -0.50 0.95 -1.40 1.50 -2 l0.95 -1.10 -0.35 1.45 c-0.30 1.15 -0.20 1.35 0.40 1.15 0.45 -0.20 0.80 -0.10 0.80 0.15 0 0.30 0.25 0.50 0.50 0.50 0.30 0 0.50 -0.30 0.50 -0.60 0 -0.35 0.80 -1.15 1.75 -1.80 1.95 -1.25 2.25 -1.10 0.75 0.50 -0.55 0.60 -1 1.40 -1 1.75 0 0.35 -0.35 0.65 -0.75 0.65 -0.40 0 -0.75 0.25 -0.75 0.50 0 0.30 0.80 0.50 1.75 0.50 2.35 0 2.20 0.60 -0.50 2 -1.40 0.70 -2.25 1.50 -2.25 2.05 0 0.50 -0.35 1.25 -0.80 1.70 -0.60 0.55 -0.70 0.95 -0.30 1.35 0.35 0.35 0.35 0.80 0 1.40 -0.45 0.70 -0.40 1.10 0.25 1.70 0.40 0.45 1.05 0.80 1.35 0.80 0.60 0 1.70 2.50 1.25 2.90 -0.15 0.15 -0.70 -0.15 -1.25 -0.65 -0.60 -0.55 -1.45 -1 -1.90 -1.05 -0.45 -0.10 -0.90 -0.40 -1 -0.65 -0.25 -0.80 -1.10 -0.65 -1.10 0.20 0 0.40 -0.70 1.10 -1.55 1.55 -1.20 0.60 -1.50 1.05 -1.35 1.90 0.20 0.95 0.05 1.10 -0.70 0.90 -1.30 -0.30 -1.15 1.25 0.35 4.10 0.65 1.25 1.05 2.30 0.80 2.30 -0.55 0 -1.50 -1.15 -2.50 -3.10 -0.50 -1 -1.35 -1.75 -2.25 -2 -2 -0.50 -2.10 -0.25 -0.60 1.45 2.45 2.75 4.80 5.75 4.80 6.15 0 0.75 -1.20 1.20 -1.40 0.55 -0.15 -0.40 -0.45 -0.25 -0.95 0.40 -0.95 1.40 -1.75 1.30 -1.35 -0.15 0.45 -1.80 -0.20 -2.55 -1.30 -1.55 -0.85 0.80 -0.90 0.75 -0.80 -0.45 0.10 -0.70 0.45 -1.60 0.75 -2 0.80 -0.95 -1.40 -3.60 -2.60 -3.15 -0.80 0.30 -1.05 2.85 -0.25 2.85 0.50 0 1.25 4 1 5.40 -0.15 0.75 -0.55 1.10 -1.40 1.10 -1.15 0 -1.20 -0.05 -0.50 -1.15z m-10.20 -12.15 c0 -0.40 -0.35 -0.70 -0.75 -0.70 -0.40 0 -0.75 0.45 -0.75 1 0 0.65 0.25 0.90 0.75 0.70 0.40 -0.20 0.75 -0.60 0.75 -1z m3.50 -2.70 c0 -0.80 -0.35 -1 -1.75 -1 -1.40 0 -1.75 0.20 -1.75 1 0 0.80 0.35 1 1.75 1 1.40 0 1.75 -0.20 1.75 -1z m19.30 -10.25 c-0.40 -0.40 -0.85 -0.75 -1 -0.75 -0.15 0 -0.30 0.35 -0.30 0.75 0 0.45 0.45 0.75 1.05 0.75 0.90 0 0.95 -0.10 0.25 -0.75z"/>
  <path d="M8 13.75 c0 -1.95 0.30 -2.15 1.30 -0.85 1 1.30 0.85 2.60 -0.30 2.60 -0.80 0 -1 -0.35 -1 -1.75z"/>
 </g>
 <g fill="#28141d">
  <path d="M19 38.05 c0 -0.20 0.50 -1.05 1.05 -1.75 0.95 -1.25 1 -1.60 0.50 -3.35 -0.60 -2 -1.50 -2.45 -3 -1.50 -0.45 0.30 -1.10 0.30 -1.65 0 -1.25 -0.65 -1.15 -1.65 0.15 -1.30 0.65 0.15 1.50 -0.10 2.25 -0.80 1.55 -1.35 1.55 -1.95 -0.05 -1.35 -0.70 0.25 -1.25 0.35 -1.25 0.15 0 -0.20 -0.50 0.10 -1.10 0.65 -2.15 1.80 -3.50 2.35 -3.95 1.65 -0.65 -1.05 -1 -0.30 -1.30 2.75 -0.30 2.70 -0.90 3.70 -1.25 1.95 -0.15 -0.75 -0.20 -0.75 -1 0.05 -0.85 0.85 -0.90 0.85 -0.90 -0.05 0 -0.50 0.30 -1.50 0.70 -2.25 0.60 -1.15 0.60 -1.30 0 -1.05 -0.95 0.35 -0.90 0.20 0.45 -2.35 1.25 -2.35 2.70 -3.45 2.10 -1.55 -0.35 1.20 0.50 1.45 0.95 0.25 0.15 -0.40 0 -1.10 -0.40 -1.45 -0.60 -0.60 -0.80 -0.55 -1.55 0.25 -0.50 0.55 -1.40 1 -1.95 1 -1.10 0.05 -3.80 3.10 -3.80 4.35 0 0.35 -0.25 0.65 -0.55 0.65 -0.35 0 -0.50 -0.60 -0.35 -1.50 0.15 -1.05 0 -1.50 -0.45 -1.50 -1.20 0 -0.45 -1.75 0.80 -1.90 0.65 -0.10 1.55 -0.50 1.95 -0.90 0.40 -0.45 1.05 -0.65 1.40 -0.50 0.35 0.15 0.80 0.05 0.95 -0.20 0.20 -0.30 0.05 -0.50 -0.20 -0.50 -0.30 0 -0.55 -0.50 -0.55 -1.10 0 -0.85 -0.15 -0.95 -0.60 -0.50 -0.85 0.85 -1.90 0.75 -1.90 -0.15 0 -0.55 -0.25 -0.60 -1.30 -0.25 -1.65 0.65 -2.35 0.65 -2.10 -0.05 0.10 -0.35 0.95 -0.85 1.90 -1.15 1.05 -0.35 1.80 -0.95 1.95 -1.55 0.10 -0.55 0.45 -1.20 0.85 -1.50 0.90 -0.70 0.30 -3.10 -0.85 -3.40 -0.50 -0.15 -0.95 -0.65 -0.95 -1.10 0 -0.65 -0.35 -0.75 -1.75 -0.45 -1.05 0.20 -1.75 0.10 -1.75 -0.20 0 -0.85 1.25 -1.55 3.40 -1.90 1.35 -0.20 2.45 -0.75 3.05 -1.50 1.40 -1.75 2.55 -1.55 2.50 0.45 0 0.85 0.15 2.35 0.35 3.25 0.25 1.40 0.20 1.60 -0.70 1.60 -0.55 0 -1.10 -0.20 -1.20 -0.50 -0.10 -0.30 -0.40 -0.30 -0.90 0 -0.65 0.40 -0.60 0.50 0.15 0.50 0.60 0 0.85 0.40 0.85 1.45 0 1 0.30 1.50 1 1.70 0.55 0.15 1 0.70 1 1.25 0 0.70 0.45 1.05 1.35 1.25 1.70 0.30 2.15 0.05 2.15 -1.20 0 -0.75 -0.35 -0.95 -1.75 -0.95 -1.40 0 -1.75 -0.20 -1.75 -1 0 -0.65 0.25 -0.85 0.70 -0.70 0.40 0.15 0.95 -0.15 1.30 -0.75 0.70 -1.40 1.50 -1.35 1.50 0.15 0 1.40 1.65 2.05 2.55 1 1.05 -1.30 2.05 -0.85 1.85 0.95 -0.15 1.45 -0.05 1.60 1.10 1.45 0.70 -0.05 1.55 -0.50 1.85 -0.95 0.85 -1.15 1.35 -0.50 0.65 0.85 -0.55 1 -0.50 1.05 0.45 0.55 0.55 -0.30 1.35 -0.55 1.85 -0.55 1.40 0 4.45 -3.10 4.30 -4.35 -0.25 -1.70 0.75 -3.15 2.15 -3.15 1 0 1.25 0.25 1.25 1.20 0 1.75 0.50 2.80 1.30 2.80 0.45 0 0.70 0.55 0.70 1.50 0 1.05 -0.20 1.40 -0.70 1.20 -0.35 -0.15 -0.80 0.10 -0.95 0.50 -0.20 0.45 -0.65 0.80 -1.05 0.80 -0.45 0 -0.65 -0.30 -0.50 -0.65 0.15 -0.40 -0.10 -0.70 -0.45 -0.70 -0.40 0 -1 0.75 -1.40 1.70 -0.35 0.90 -0.90 1.65 -1.25 1.65 -0.45 0 -0.50 0.40 -0.15 1.60 0.75 2.60 0.60 3.20 -0.40 2.30 -1 -0.80 -3.40 -1.90 -4.20 -1.90 -0.25 0 1.10 1.85 3.05 4.05 1.90 2.25 3.50 4.25 3.50 4.50 0 0.90 -1.45 0.45 -1.75 -0.55 -0.20 -0.65 -0.75 -1 -1.55 -1 -0.65 0 -1.25 -0.15 -1.25 -0.35 -0.05 -0.25 -0.15 -0.90 -0.20 -1.55 -0.15 -1.35 -1.60 -3.10 -2.60 -3.10 -0.90 0 -1.40 1.35 -0.80 2.15 0.80 1 1.15 3.60 0.80 6.30 -0.25 2.25 -0.40 2.55 -1.45 2.55 -0.65 0 -1.20 -0.20 -1.20 -0.45z m-1.80 -11.50 c1 -1.05 1.30 -1.75 1.05 -2.50 -0.35 -1.20 -1.25 -0.95 -1.25 0.35 0 0.45 -0.60 1.45 -1.35 2.20 -0.95 1 -1.10 1.40 -0.60 1.40 0.45 0 1.40 -0.65 2.15 -1.45z m-0.95 -2.70 c0.90 -1.85 0.90 -1.85 0 -1.85 -0.45 0 -0.90 0.40 -1.10 0.90 -0.65 1.85 -1.15 2.10 -2.45 1.25 -1.15 -0.75 -1.20 -0.70 -0.90 0.15 0.20 0.55 0.70 1.30 1.15 1.75 0.70 0.75 0.90 0.75 1.70 0.05 0.45 -0.40 1.20 -1.45 1.60 -2.25z m5.95 0.35 c0.45 -0.15 0.80 -0.50 0.80 -0.75 0 -0.70 -1.20 -0.55 -2.30 0.30 -0.80 0.60 -0.85 0.70 -0.10 0.75 0.45 0 1.15 -0.15 1.60 -0.30z m5.85 -4.80 c0.75 -1.40 0.25 -1.05 -1.05 0.75 -0.75 1 -0.85 1.35 -0.30 0.90 0.45 -0.40 1.10 -1.15 1.35 -1.65z"/>
  <path d="M35.15 21.55 c-1.40 -1.15 -1.45 -1.55 -0.25 -1.55 1.05 0 2.10 0.90 2.10 1.85 0 0.90 -0.55 0.80 -1.85 -0.30z"/>
  <path d="M21.35 16.95 c0.20 -0.75 -0.35 -1.60 -2.30 -3.45 -1.40 -1.30 -2.55 -2.65 -2.55 -2.90 0 -0.25 0.50 -0.85 1.05 -1.40 1.10 -0.95 1.10 -0.95 0.75 0.40 -0.25 1.10 -0.05 1.60 1.05 2.65 0.75 0.70 1.50 1.25 1.65 1.25 0.60 0 2.05 3.10 1.80 3.80 -0.45 1.15 -1.75 0.85 -1.45 -0.35z"/>
  <path d="M4 10.75 c0.50 -0.60 0.50 -0.75 -0.10 -0.75 -0.95 0 -2.25 -2.65 -1.45 -2.90 0.30 -0.10 0.55 -0.60 0.55 -1.15 0 -0.80 0.35 -0.95 2 -0.95 1.95 0 2 0.05 2 1.75 0 1.40 -0.20 1.75 -1 1.75 -0.80 0 -1 0.35 -1 1.50 0 1.05 -0.25 1.50 -0.80 1.50 -0.70 0 -0.70 -0.15 -0.20 -0.75z"/>
  <path d="M31.50 11 c0 -0.25 -0.35 -0.50 -0.75 -0.50 -0.55 0 -0.75 -0.55 -0.75 -1.85 0 -1.75 0.05 -1.80 0.95 -0.95 0.90 0.85 0.95 0.80 1.25 -0.10 0.20 -0.55 0.70 -1.30 1.15 -1.70 0.75 -0.55 0.80 -0.50 0.55 0.45 -0.25 1 -0.20 1.05 0.65 0.60 0.65 -0.30 0.95 -0.30 0.95 0.05 0 0.25 0.40 0.50 0.90 0.50 1.25 0 3.60 1.15 3.60 1.80 0 0.85 -3.70 2.20 -6.15 2.20 -1.30 0 -2.35 -0.20 -2.35 -0.50z"/>
  <path d="M4.50 1 c-0.30 -0.55 -0.35 -1 -0.10 -1 0.50 0 1.60 1.05 1.60 1.60 0 0.80 -0.95 0.40 -1.50 -0.60z"/>
 </g>
 <g fill="#371f28">
  <path d="M18.95 38.20 c1.45 -2.55 2.50 -3.95 2.75 -3.65 0.10 0.10 0.35 1.25 0.55 2.60 0.35 2.25 0.30 2.35 -0.80 2.35 -0.65 0 -1.75 0.15 -2.40 0.35 l-1.20 0.30 1.10 -1.95z"/>
  <path d="M9.65 35.65 c-0.20 -0.50 -0.55 -1.05 -0.85 -1.25 -0.30 -0.20 -0.05 -0.40 0.60 -0.40 0.85 0 1.10 0.30 1.10 1.25 0 1.45 -0.40 1.65 -0.85 0.40z"/>
  <path d="M25.50 34.15 c0 -1.70 -0.80 -2.25 -1.30 -0.90 -0.20 0.40 -0.50 0.75 -0.75 0.75 -0.70 0 -0.55 -1.40 0.35 -2.75 0.75 -1.15 0.70 -1.30 -0.30 -2.75 -1.25 -1.75 -1.55 -1.80 -2.70 -0.55 -0.75 0.80 -0.75 0.95 -0.05 1.55 0.80 0.65 1.05 4 0.30 4 -0.25 0 -0.60 -0.70 -0.80 -1.55 -0.25 -1.20 -0.55 -1.45 -1.15 -1.15 -1.40 0.60 -3.75 0.50 -3.95 -0.15 -0.15 -0.35 0.10 -0.65 0.55 -0.65 0.45 0 0.80 0.25 0.80 0.60 0 0.35 0.80 -0.15 1.75 -1.10 1.70 -1.65 2.40 -2.95 1.15 -2.15 -0.35 0.20 -1.30 0.40 -2.05 0.45 l-1.45 0.10 1.35 -1.40 c0.85 -0.85 2.25 -1.55 4 -1.95 1.85 -0.40 2.75 -0.85 2.75 -1.35 0 -0.50 -0.30 -0.65 -0.85 -0.50 -1.60 0.45 -3.90 0.80 -3.15 0.50 0.40 -0.20 1.15 -0.75 1.70 -1.30 1.20 -1.10 2.80 -1.20 2.80 -0.15 0 0.85 1.45 0.45 2.40 -0.70 1.60 -2 1.55 -2.65 -0.10 -1.10 -2.20 2.10 -2.40 1.60 -0.30 -0.80 0.85 -0.90 1.50 -2.20 1.50 -2.80 0 -0.60 0.40 -1.65 0.85 -2.35 0.45 -0.65 0.90 -2.30 1 -3.65 0.15 -2.90 0.50 -3.45 1.35 -2.25 0.55 0.75 0.65 0.65 1.15 -0.65 0.30 -0.80 0.80 -1.45 1.10 -1.45 0.30 0 0.40 0.35 0.20 0.80 -0.25 0.75 -0.15 0.70 1.40 0 0.95 -0.50 2.30 -1.15 3.05 -1.55 1.75 -1 2.40 -0.95 1 0.05 -1.35 0.95 -1.40 2.50 -0.10 3.20 1.40 0.75 1.25 1.30 -0.60 2.05 -0.90 0.35 -1.80 0.70 -2 0.85 -0.25 0.10 -0.40 -0.15 -0.40 -0.55 0 -0.40 0.50 -0.90 1.15 -1.10 1.05 -0.35 1.05 -0.35 0.10 -0.60 -0.55 -0.15 -1.15 -0.50 -1.35 -0.85 -0.30 -0.40 -0.50 -0.40 -0.75 0 -0.25 0.30 -0.85 0.70 -1.40 0.95 -0.95 0.40 -0.95 0.45 0.15 0.60 1.35 0.25 1.45 1.15 0.10 1.50 -0.55 0.15 -1 0.65 -1 1.15 0 0.50 -0.35 1.25 -0.75 1.70 -1.10 1.10 -0.90 1.60 0.25 0.55 1 -0.90 1 -0.85 1 0.40 0 0.70 0.30 1.40 0.65 1.50 0.45 0.20 0.40 0.40 -0.15 0.80 -0.65 0.50 -0.45 0.85 1.15 2.20 2.60 2.25 2.35 3.05 -0.50 1.50 -1.35 -0.70 -2.50 -1.40 -2.65 -1.60 -0.15 -0.15 -0.70 -0.65 -1.25 -1.05 -0.75 -0.55 -0.70 -0.40 0.20 0.65 1 1.10 1.10 1.45 0.55 2.10 -0.35 0.40 -1.15 0.75 -1.80 0.75 -0.65 0 -1.20 0.25 -1.20 0.50 0 0.30 -0.60 0.50 -1.35 0.50 -0.80 0 -1.15 0.20 -0.85 0.40 0.30 0.20 0.65 1.05 0.85 1.85 0.15 0.85 0.45 1.90 0.60 2.40 0.65 1.60 -0.50 0.85 -1.90 -1.30 -0.80 -1.15 -1.30 -1.60 -1.10 -1 0.30 1.10 0.30 1.10 -1.45 0.40 -0.95 -0.40 -1.85 -0.75 -1.95 -0.75 -0.10 0 0.85 1.10 2.10 2.40 1.25 1.35 2.90 3.15 3.70 4 1.35 1.65 1.80 3.10 0.85 3.10 -0.25 0 -0.50 -0.25 -0.50 -0.55 0 -0.30 -0.45 -0.05 -1 0.60 l-0.95 1.20 -0.05 -1.60z"/>
  <path d="M8 33.20 c0 -0.20 0.40 -0.80 0.90 -1.35 0.85 -1 0.85 -1 -0.55 -0.10 -1.70 1.10 -2.30 0.70 -0.90 -0.60 0.55 -0.50 1.20 -1.55 1.50 -2.30 0.30 -0.75 0.75 -1.35 1.05 -1.35 0.65 0 0.65 0.80 0 2.05 -0.40 0.75 -0.40 0.95 0.10 0.85 0.40 -0.10 0.60 0.30 0.50 1.05 -0.15 1.45 -0.05 1.35 -1.45 1.75 -0.65 0.20 -1.15 0.20 -1.15 0z"/>
  <path d="M1 31.65 c0 -1.70 0.55 -2.65 1.55 -2.65 1.10 0 1.20 0.30 0.45 1.15 -0.30 0.35 -0.85 1.05 -1.25 1.60 -0.70 1 -0.70 1 -0.75 -0.10z"/>
  <path d="M12 29.85 c0 -0.70 0.80 -1.90 2.05 -3.10 1.15 -1.10 2.25 -2.45 2.45 -3 0.40 -0.90 0.45 -0.90 0.45 0.20 0.05 0.70 -0.55 1.85 -1.30 2.65 -1.05 1.10 -1.20 1.55 -0.75 1.85 0.70 0.45 0.30 0.95 -1.75 2 -1.05 0.55 -1.15 0.45 -1.15 -0.60z"/>
  <path d="M4.50 29.45 c0 -1.55 1.55 -3.10 2.65 -2.70 0.40 0.20 0.90 0.10 1.10 -0.20 0.15 -0.30 -0.05 -0.55 -0.45 -0.55 -0.45 0 -0.75 -0.15 -0.75 -0.35 0.05 -0.25 0.05 -1.40 0 -2.65 l-0.05 -2.25 -1.25 1.40 c-1.30 1.35 -2.25 1.75 -2.25 0.90 0 -0.25 0.35 -0.55 0.75 -0.75 0.40 -0.15 0.75 -0.75 0.75 -1.30 0 -0.55 0.35 -1 0.75 -1 0.40 0 0.75 -0.20 0.75 -0.50 0 -0.25 0.55 -0.50 1.20 -0.50 0.85 0 1.40 0.45 1.90 1.50 0.35 0.85 0.90 1.50 1.20 1.50 0.30 0 0.70 0.70 0.90 1.60 0.25 1.35 0.10 1.75 -1.30 2.95 -0.90 0.80 -2.05 1.40 -2.55 1.45 -0.50 0 -1.45 0.60 -2.10 1.40 l-1.20 1.35 -0.05 -1.30z m6.50 -4.85 c0 -0.65 -0.60 -1.10 -1.10 -0.80 -0.50 0.30 -0.05 1.20 0.65 1.20 0.25 0 0.45 -0.20 0.45 -0.40z"/>
  <path d="M4.50 24.55 c0 -0.30 0.45 -0.75 1.05 -1.05 0.90 -0.50 1 -0.45 0.85 0.35 -0.15 0.95 -1.90 1.60 -1.90 0.70z"/>
  <path d="M12.50 24 c-0.50 -0.30 -0.55 -0.50 -0.10 -0.50 0.30 0 0.60 -0.45 0.60 -1 0 -0.55 0.25 -1 0.50 -1 0.30 0 0.50 -0.60 0.50 -1.30 0 -0.90 0.20 -1.25 0.70 -1.05 0.85 0.35 2.30 -1.15 2.30 -2.35 0 -0.50 0.30 -0.80 0.65 -0.65 0.60 0.20 0.65 0.80 0.30 3.60 -0.15 1.30 -0.05 1.50 0.95 1.45 1.35 -0.05 1.40 0.50 0.10 1.90 -0.65 0.70 -1 0.85 -1 0.40 0 -0.35 -0.40 -0.95 -0.85 -1.30 -0.75 -0.55 -0.80 -0.80 -0.30 -1.65 0.60 -0.95 0.55 -1 -0.65 -0.45 -0.85 0.40 -1.20 0.90 -1.05 1.45 0.25 0.85 -0.90 2.95 -1.55 2.95 -0.20 0 -0.70 -0.25 -1.10 -0.50z"/>
  <path d="M20.90 20.20 c0.25 -0.55 0.50 -1.60 0.50 -2.35 -0.05 -1.65 0.40 -2.25 1.10 -1.55 0.65 0.65 -0.45 4.30 -1.40 4.60 -0.55 0.15 -0.60 0 -0.20 -0.70z"/>
  <path d="M8 16.80 c0 -0.40 -0.50 -0.80 -1.10 -0.90 -0.90 -0.10 -1.15 -0.50 -1.25 -2 -0.15 -1.45 0 -1.90 0.60 -1.90 0.40 0 0.75 -0.35 0.75 -0.75 0 -0.45 0.45 -0.75 1.25 -0.75 1.55 0 1.55 0.45 0.15 2.30 -0.75 0.95 -0.85 1.20 -0.25 0.75 1.10 -0.85 1.25 -0.75 1.65 1.85 0.30 1.90 0.25 2.10 -0.75 2.10 -0.60 0 -1.05 -0.30 -1.05 -0.70z"/>
  <path d="M20.20 14.25 c-0.45 -0.70 -0.75 -1.40 -0.60 -1.50 0.30 -0.30 2.40 1.65 2.40 2.25 0 0.90 -1 0.50 -1.80 -0.75z"/>
  <path d="M0 14.60 c0 -0.25 0.60 -0.75 1.40 -1.15 0.75 -0.40 1.50 -0.90 1.70 -1.20 0.20 -0.25 0.40 0.10 0.40 0.80 0 0.95 -0.30 1.40 -1.10 1.65 -1.60 0.40 -2.40 0.35 -2.40 -0.10z"/>
  <path d="M3.65 8.65 c-0.95 -0.20 -1.15 -0.55 -1.15 -2.20 0 -1.05 0.25 -1.95 0.50 -1.95 0.30 0 0.50 -0.45 0.50 -1 0 -0.65 0.25 -0.90 0.75 -0.70 0.45 0.20 0.75 0 0.75 -0.50 0 -1.35 0.70 -0.90 1.90 1.20 0.60 1.10 1.45 2 1.80 2 0.40 0 0.80 0.45 0.95 1 0.20 0.75 0 1 -0.70 1 -0.50 0 -0.95 0.35 -0.95 0.75 0 0.75 -1.75 0.90 -4.35 0.40z"/>
  <path d="M0 4 c0 -0.90 0.10 -0.95 1 -0.40 0.55 0.35 1 0.80 1 1 0 0.25 -0.45 0.40 -1 0.40 -0.65 0 -1 -0.35 -1 -1z"/>
 </g>
 <g fill="#11454d">
  <path d="M9 25 c0 -0.35 0.40 -0.45 1.05 -0.25 0.75 0.25 1 0.15 0.85 -0.30 -0.15 -0.40 -1.10 -0.85 -2.20 -1 -1.50 -0.20 -1.75 -0.35 -1.05 -0.65 0.45 -0.25 0.85 -0.70 0.85 -1.05 0 -0.90 -1.25 -1.30 -1.95 -0.60 -0.65 0.65 -0.75 -0.05 -0.25 -1.35 0.35 -0.95 3.50 -1.10 3.85 -0.15 0.20 0.45 0.30 0.45 0.30 0 0.05 -0.75 3.55 -0.90 3.55 -0.15 0 0.30 0.30 0.50 0.65 0.50 0.85 0 0.70 2.15 -0.20 3.55 -0.65 0.90 -0.90 1 -1.80 0.55 -0.85 -0.50 -1 -0.45 -0.95 0.30 0.05 0.60 -0.40 0.90 -1.30 1 -0.80 0.10 -1.40 -0.10 -1.40 -0.40z"/>
 </g>
 <g fill="#492f38">
  <path d="M18.50 39.30 c0 -1.05 0.90 -1.95 1.70 -1.65 0.40 0.15 0.90 0.10 1.05 -0.20 0.50 -0.75 1.25 0 1.25 1.35 0 1.10 -0.20 1.20 -2 1.10 -1.10 -0.05 -2 -0.30 -2 -0.60z"/>
  <path d="M7.70 34.50 c0.20 -0.95 0.90 -2.25 1.55 -2.90 l1.25 -1.15 0 2.90 c-0.05 2.70 -0.10 2.85 -0.80 1.90 l-0.75 -1 -0.80 1 c-0.75 0.95 -0.75 0.90 -0.45 -0.75z"/>
  <path d="M20.80 33.90 c-0.30 -1.50 -0.10 -2.35 0.45 -1.80 0.55 0.50 0.85 3.40 0.40 3.40 -0.30 0 -0.65 -0.70 -0.85 -1.60z"/>
  <path d="M25.50 34.75 c0.05 -0.55 0.10 -1.30 0.05 -1.60 -0.05 -0.90 -1.55 -0.80 -1.55 0.10 0 0.40 -0.20 0.75 -0.50 0.75 -0.75 0 -0.60 -1.40 0.35 -2.80 0.75 -1.20 0.75 -1.35 -0.20 -2.60 -1.30 -1.70 -2.25 -1.90 -3.05 -0.60 -0.55 0.85 -0.50 1.15 0.15 1.80 0.40 0.45 0.75 1 0.75 1.25 0 0.80 -1.40 0.50 -1.70 -0.35 -0.30 -0.80 -0.40 -0.80 -1.20 0 -1 0.90 -2.85 1.05 -3.35 0.35 -0.15 -0.25 0 -0.65 0.30 -0.85 0.30 -0.15 0.70 -0.05 0.90 0.25 0.45 0.70 4.05 -2.65 4.05 -3.70 0 -1.30 1.75 -0.80 3.40 0.90 0.90 0.90 1.60 1.80 1.60 2 0 0.20 0.80 1.20 1.80 2.20 1.25 1.25 1.65 1.90 1.25 2.30 -0.40 0.40 -0.75 0.25 -1.30 -0.45 -0.50 -0.65 -0.65 -0.70 -0.50 -0.15 0.15 0.45 -0.05 1.10 -0.55 1.45 -0.70 0.60 -0.80 0.60 -0.70 -0.25z"/>
  <path d="M3.10 31.65 c0.25 -1.95 -0.40 -2.20 -1.10 -0.40 -0.60 1.60 -1 1.60 -1 0.05 0 -1.70 1.55 -3.45 2.70 -3 0.70 0.30 0.85 0.70 0.60 2.10 -0.35 2.35 -1.50 3.50 -1.20 1.25z"/>
  <path d="M7.50 31.55 c0 -0.65 1.45 -1.75 1.85 -1.40 0.35 0.40 -0.75 1.85 -1.40 1.85 -0.25 0 -0.45 -0.20 -0.45 -0.45z"/>
  <path d="M28.15 30 c-0.50 -0.90 -1.65 -2.75 -2.55 -4.15 -1.95 -3 -2.55 -4.85 -1.45 -4.85 1.10 0 3.85 -3.35 3.85 -4.70 0 -0.65 0.45 -1.75 1 -2.45 0.60 -0.75 1 -1.85 0.95 -2.45 -0.35 -4.05 0.50 -5.45 1.55 -2.60 0.45 1.10 0.75 1.20 3.45 1.20 1.70 0 3.15 -0.25 3.35 -0.55 0.25 -0.40 -0.60 -0.50 -3 -0.35 -1.80 0.10 -3.30 0.05 -3.30 -0.15 0 -0.95 1.05 -2.95 1.50 -2.95 0.35 0 0.35 0.35 0 1.05 -0.35 0.55 -0.45 1.15 -0.30 1.35 0.15 0.15 0.30 0 0.30 -0.30 0 -0.35 1.30 -1.20 2.90 -1.95 1.55 -0.75 3.05 -1.45 3.25 -1.55 0.25 -0.10 -0.15 0.35 -0.85 1.05 -1.40 1.40 -1.30 2.60 0.25 3.10 1.30 0.45 0.85 1 -1.85 2.30 -1.20 0.65 -2.15 1.40 -2 1.75 0.10 0.30 -0.10 1.05 -0.50 1.60 -0.40 0.55 -0.55 1.40 -0.40 1.85 0.20 0.50 0.05 1.05 -0.35 1.30 -0.55 0.40 -0.30 0.80 1.20 2.10 1 0.85 1.85 1.90 1.85 2.30 0 0.55 -0.20 0.55 -0.90 -0.10 -0.50 -0.50 -1.30 -0.85 -1.75 -0.85 -0.45 0 -0.90 -0.20 -1.10 -0.50 -0.15 -0.25 -1 -0.95 -1.90 -1.60 -1.40 -0.95 -1.50 -1 -0.85 -0.15 0.40 0.55 0.95 1.15 1.25 1.35 0.60 0.40 -0.10 1.25 -1.85 2.10 -0.75 0.40 -1.10 1 -1 1.75 0.05 0.85 -0.10 1.10 -0.75 0.95 -1.20 -0.25 -0.95 -3.80 0.45 -6.30 1.20 -2.05 0.95 -1.90 -1.90 1.35 -1.65 1.90 -1.80 2.20 -0.80 1.95 1.15 -0.35 1.65 0.85 0.50 1.25 -0.50 0.15 -0.50 0.35 -0.10 0.90 0.30 0.40 0.85 1.60 1.20 2.70 0.35 1.10 0.95 2.55 1.35 3.15 0.40 0.65 0.60 1.30 0.45 1.45 -0.15 0.15 -0.65 -0.45 -1.15 -1.35z m2 -14.80 c0.20 -1.15 0.15 -1.20 -0.50 -0.55 -0.45 0.40 -0.60 1 -0.45 1.30 0.50 0.80 0.65 0.70 0.95 -0.75z m3.35 -1.90 c0 -0.15 -0.45 0.15 -1 0.70 -0.55 0.55 -1 1.25 -1 1.55 0 0.35 0.45 0 1 -0.70 0.55 -0.70 1 -1.40 1 -1.55z"/>
  <path d="M12.25 29.95 c-0.40 -0.60 1.15 -2.80 2.80 -4 1.90 -1.35 1.85 -0.65 -0.10 1.35 -1.35 1.40 -1.45 1.60 -0.50 1.35 1.50 -0.40 1.30 0.15 -0.45 1 -0.80 0.45 -1.60 0.55 -1.75 0.30z"/>
  <path d="M18 27.10 c0 -0.25 0.35 -0.65 0.80 -0.80 0.50 -0.20 0.70 -0.05 0.60 0.30 -0.25 0.75 -1.40 1.15 -1.40 0.50z"/>
  <path d="M7.85 26.15 c-0.70 -0.20 -0.85 -0.65 -0.75 -1.80 0.15 -1.55 0.25 -1.60 2.90 -1.85 2.55 -0.25 2.75 -0.35 2.90 -1.60 0.10 -1.05 -0.05 -1.40 -0.65 -1.40 -0.60 0 -0.75 -0.30 -0.50 -1.10 0.55 -1.85 1.70 -3.40 2.50 -3.40 0.95 0 0.95 0.40 0 1.30 -1 1.05 -0.95 2.05 0.20 2.65 0.70 0.40 1.10 0.35 1.55 -0.20 0.35 -0.40 0.95 -0.75 1.35 -0.75 0.55 0 0.55 0.20 0.15 1 -0.30 0.55 -0.85 1 -1.30 1 -0.40 0 -0.85 0.35 -1 0.75 -0.20 0.40 -0.60 0.75 -0.95 0.75 -0.40 0 -0.75 0.40 -0.85 0.85 -0.10 0.60 -0.70 0.90 -1.75 0.95 -0.90 0.05 -2 0.25 -2.50 0.45 -0.80 0.30 -0.75 0.40 0.30 0.80 0.85 0.35 1.35 0.30 1.60 -0.15 0.20 -0.35 0.60 -0.45 0.80 -0.20 0.45 0.45 -1.65 2.35 -2.55 2.25 -0.30 -0.05 -0.95 -0.15 -1.45 -0.30z"/>
  <path d="M22.25 25.40 c-1.35 -0.50 -1.40 -0.60 -0.50 -0.95 1.60 -0.60 2.20 -0.50 2.75 0.55 0.60 1.15 0.15 1.25 -2.25 0.40z"/>
  <path d="M2 23.85 c0 -0.35 0.75 -0.95 1.70 -1.25 1.35 -0.50 1.65 -0.85 1.45 -1.60 -0.20 -0.70 0 -1 0.55 -1 1.50 0 0.70 -3.25 -0.85 -3.70 -1.10 -0.30 -1.10 -0.30 0.15 -1.40 1.05 -0.85 1.10 -1 0.25 -0.75 -4.25 1.20 -7 0.70 -3.75 -0.65 0.85 -0.35 1.50 -0.90 1.50 -1.25 0 -0.35 0.35 -0.90 0.75 -1.25 0.65 -0.55 0.65 -0.70 -0.10 -1.30 -0.60 -0.45 -0.70 -0.80 -0.40 -1.05 0.30 -0.25 0.40 -1.05 0.20 -1.90 -0.20 -0.80 -0.35 -1.10 -0.40 -0.60 -0.05 1.20 -1.60 1.10 -1.90 -0.15 -0.15 -0.55 -0.45 -1 -0.70 -1 -0.25 0 -0.45 -0.35 -0.45 -0.80 0 -0.55 0.30 -0.65 0.95 -0.45 0.55 0.15 1.30 -0.05 1.75 -0.50 0.60 -0.60 1 -0.70 1.80 -0.25 0.90 0.50 0.95 0.45 0.50 -0.75 -0.35 -0.95 -0.30 -1.25 0.20 -1.25 0.40 0 0.80 0.55 1 1.15 0.15 0.65 0.95 2.05 1.80 3.10 1.95 2.45 2.10 5.50 0.30 7.40 -0.70 0.75 -1 1.45 -0.75 1.60 0.25 0.20 0.60 -0.05 0.75 -0.45 0.55 -1.40 1 -0.85 1.50 1.95 0.45 2.65 0.45 2.75 -0.60 2.75 -0.85 0 -1.05 0.20 -0.85 1 0.20 0.65 0 1 -0.45 1 -0.40 0 -1.25 0.60 -1.95 1.30 -1.65 1.75 -3.95 2.95 -3.95 2.05z"/>
  <path d="M18.25 23 c0.15 -0.30 -0.05 -0.65 -0.45 -0.80 -0.45 -0.15 -0.80 -0.65 -0.80 -1.05 0 -0.65 0.15 -0.65 0.75 -0.15 0.60 0.50 1.05 0.50 2.10 0.05 1.85 -0.85 1.90 -0.45 0.15 1.10 -1.50 1.40 -2.30 1.75 -1.75 0.85z"/>
  <path d="M20.15 22.75 c0.55 -0.35 1.30 -0.55 1.75 -0.40 0.65 0.30 0.65 0.40 -0.20 0.70 -0.50 0.20 -1.30 0.40 -1.70 0.40 -0.60 0 -0.55 -0.15 0.15 -0.70z"/>
  <path d="M21.40 17.25 c-0.15 -1.15 0 -1.75 0.40 -1.75 0.80 0 1.20 1.15 0.85 2.45 -0.40 1.60 -1 1.25 -1.25 -0.70z"/>
  <path d="M17.75 12.20 c-1 -1 -1.15 -1.45 -0.75 -2.20 0.30 -0.50 0.75 -1.10 1.05 -1.25 0.85 -0.55 1.15 0.15 0.45 1 -0.55 0.65 -0.45 0.95 0.45 1.90 1.95 2.15 0.90 2.65 -1.20 0.55z"/>
 </g>
 <g fill="#6c3846">
  <path d="M19.05 39 c-0.05 -1.40 2.15 -4.45 2.75 -3.90 0.20 0.25 0 0.80 -0.45 1.30 -1 1.10 -1.15 1.95 -0.15 1.15 0.55 -0.45 0.75 -0.30 0.95 0.80 0.30 1.60 0 2.20 -0.60 1.20 -0.35 -0.55 -0.50 -0.55 -0.70 0 -0.25 0.60 -0.35 0.60 -0.75 0 -0.40 -0.55 -0.50 -0.55 -0.75 0 -0.15 0.40 -0.30 0.15 -0.30 -0.55z"/>
  <path d="M25.75 33.50 c-0.40 -1.25 -1.20 -1.30 -2.05 -0.10 -0.60 0.80 -0.65 0.80 -0.70 -0.20 0 -0.60 0.35 -1.35 0.80 -1.75 0.50 -0.40 0.65 -1.05 0.45 -1.80 -0.15 -0.65 -0.05 -1.15 0.25 -1.15 0.25 0 0.50 0.20 0.50 0.50 0 0.25 0.80 1.25 1.75 2.20 0.95 1 1.75 2.10 1.75 2.55 0 1 -0.50 0.95 -1.30 -0.10 -0.65 -0.85 -0.70 -0.85 -0.40 0 0.15 0.45 0.05 0.85 -0.20 0.85 -0.30 0 -0.70 -0.45 -0.85 -1z"/>
  <path d="M8.10 32 c0 -0.80 0.20 -1.60 0.45 -1.75 0.25 -0.20 0.45 -0.75 0.45 -1.25 0 -0.50 0.25 -1.10 0.55 -1.25 1 -0.65 1 0.15 0.05 2.20 -1 2 -0.65 2.95 0.35 1.20 0.45 -0.75 0.50 -0.60 0.55 0.75 0 1.35 -0.20 1.60 -1.15 1.60 -1 0 -1.20 -0.25 -1.25 -1.50z"/>
  <path d="M20.20 31.65 c-0.20 -0.80 -0.30 -1.60 -0.25 -1.90 0.10 -0.25 -0.45 0.05 -1.15 0.70 -1 0.95 -1.30 1.05 -1.30 0.45 0 -0.45 0.50 -1.10 1.15 -1.55 1 -0.65 1.20 -0.65 2 0.45 0.90 1.20 1.15 3.20 0.40 3.20 -0.25 0 -0.60 -0.60 -0.85 -1.35z"/>
  <path d="M3.10 30.90 c0.10 -0.85 -0.05 -1.10 -0.70 -1 -0.50 0.10 -0.90 -0.05 -0.90 -0.30 0 -0.80 1.35 -1.65 2.10 -1.35 0.40 0.15 1.05 -0.05 1.40 -0.50 0.35 -0.40 1.15 -0.75 1.80 -0.75 0.60 0 1.30 -0.20 1.45 -0.50 0.15 -0.25 -0.05 -0.50 -0.45 -0.50 -1.25 0 -1.05 -2.85 0.20 -3.50 0.55 -0.30 0.90 -0.75 0.70 -1.05 -0.25 -0.45 2.20 -0.10 2.75 0.35 0.55 0.50 -0.60 1.60 -1.95 1.85 -0.90 0.20 -1.45 0.55 -1.25 0.85 0.20 0.30 0.50 0.40 0.70 0.30 0.20 -0.15 0.60 -0.05 0.95 0.15 0.85 0.50 -1.15 3.05 -2.35 3.05 -0.45 0 -1.50 0.90 -2.35 2 -1.65 2.25 -2.35 2.50 -2.10 0.90z"/>
  <path d="M12.55 29.70 c0 -0.55 0.40 -1.45 0.95 -1.95 0.55 -0.50 1 -0.65 1 -0.40 0 0.30 -0.30 0.65 -0.70 0.80 -0.40 0.15 -0.80 0.80 -0.95 1.45 -0.20 1.05 -0.20 1.05 -0.30 0.10z"/>
  <path d="M20.40 26.90 c0.10 -0.50 0.65 -0.90 1.15 -0.90 1.30 0 1.20 0.65 -0.25 1.30 -1 0.45 -1.15 0.45 -0.90 -0.40z"/>
  <path d="M17.75 27.05 c-0.40 -0.75 0.15 -1.55 1.05 -1.55 0.45 0 0.70 0.35 0.60 0.85 -0.20 1 -1.20 1.40 -1.65 0.70z"/>
  <path d="M25.40 25.45 c-0.80 -1.05 -1.40 -2.20 -1.40 -2.50 0 -0.30 -0.45 -0.45 -1 -0.30 -0.65 0.15 -1 0 -1 -0.45 0 -0.35 0.60 -0.85 1.40 -1 1.85 -0.45 4.60 -3.15 4.60 -4.55 0 -0.65 0.25 -1.15 0.50 -1.15 0.30 0 0.50 0.25 0.50 0.55 0 0.30 0.35 0.45 0.75 0.25 0.60 -0.20 0.75 0.05 0.65 1.25 -0.05 0.85 -0.40 1.70 -0.75 1.80 -0.35 0.15 -0.65 0.55 -0.65 0.95 0 0.40 -0.45 0.70 -1.05 0.70 -0.95 0 -0.95 -0.05 0.25 -1.65 2.10 -2.70 1.50 -2.80 -0.95 -0.15 -1.25 1.35 -2.25 2.55 -2.25 2.70 0 0.10 0.45 0.10 1 -0.05 0.75 -0.20 1 0 1.05 0.80 0 0.60 0.05 1.95 0.15 3 0.10 1 0 1.85 -0.15 1.85 -0.15 -0.05 -0.90 -0.95 -1.65 -2.05z"/>
  <path d="M15 26.65 c0 -0.25 0.45 -0.90 1 -1.40 0.55 -0.50 1 -0.70 1 -0.40 0 0.25 -0.45 0.90 -1 1.40 -0.55 0.50 -1 0.70 -1 0.40z"/>
  <path d="M17.60 22.10 c-0.35 -0.10 -0.60 -0.55 -0.60 -1 0 -0.70 0.10 -0.70 0.45 -0.15 0.30 0.45 0.90 0.55 1.75 0.35 0.70 -0.15 1.30 -0.10 1.30 0.15 0 0.50 -2 0.95 -2.90 0.65z"/>
  <path d="M8.80 19.70 c-0.45 -0.40 -0.80 -1.55 -0.80 -2.55 l0 -1.75 -2.10 0.35 c-2 0.25 -2.10 0.25 -1.20 -0.50 0.55 -0.40 1.45 -0.75 2 -0.75 0.55 0 1.40 -0.35 1.90 -0.85 0.85 -0.75 0.90 -0.75 0.90 0.25 0 0.60 -0.30 1.10 -0.60 1.10 -0.40 0 -0.45 0.15 -0.15 0.40 0.30 0.20 0.80 0.95 1.10 1.75 0.65 1.45 2.15 1.85 2.15 0.60 0 -1.60 1.30 -0.70 1.40 1 0.15 1.75 0.10 1.75 -1.85 1.75 -1.15 0 -2.30 -0.35 -2.75 -0.80z"/>
  <path d="M21.30 19 c0.45 -2.20 -0.10 -3.70 -2.15 -5.70 -1.20 -1.15 -1.60 -1.80 -1.10 -1.80 0.80 0 3.45 2.60 4.30 4.20 0.35 0.60 0.35 1.60 0 2.85 -0.55 2.25 -1.45 2.65 -1.05 0.45z"/>
  <path d="M15.50 19.60 c0 -0.50 1.65 -2.10 2.15 -2.10 0.60 0 0.35 0.90 -0.45 1.70 -0.85 0.85 -1.70 1.05 -1.70 0.40z"/>
  <path d="M0 14.60 c0 -0.30 0.70 -0.75 1.50 -1.05 0.85 -0.25 1.50 -0.85 1.50 -1.25 0 -0.60 0.50 -0.80 1.75 -0.80 1.80 0 1.80 0 1.45 -1.75 -0.35 -2 0.35 -2.35 1.20 -0.60 0.40 0.85 0.55 0.90 0.55 0.25 0.05 -0.50 -0.35 -1.30 -0.80 -1.75 -0.55 -0.55 -0.85 -1.45 -0.75 -2.35 l0.20 -1.40 1.20 1.15 c0.65 0.60 1.20 0.90 1.25 0.65 0 -0.25 0.20 -0.05 0.35 0.40 0.20 0.50 0.30 1.90 0.20 3.10 -0.25 3.20 -1.70 4.60 -5.15 5.05 -1.50 0.15 -3.10 0.45 -3.55 0.55 -0.50 0.15 -0.90 0.05 -0.90 -0.20z"/>
  <path d="M28.50 14.65 c0 -0.15 0.40 -0.75 0.85 -1.25 0.60 -0.65 0.80 -1.70 0.75 -3.80 -0.10 -2.60 -0.05 -2.75 0.65 -1.90 0.40 0.55 0.75 1.30 0.75 1.65 0 0.35 0.35 0.65 0.75 0.65 0.95 0 0.95 1.65 0 3.50 -0.80 1.55 -2.10 2.10 -1.55 0.70 0.15 -0.45 0.40 -1.40 0.55 -2.10 0.20 -0.90 -0.05 -0.65 -0.70 0.80 -0.85 1.80 -2.05 2.85 -2.05 1.75z"/>
  <path d="M32 8.65 c0 -0.25 0.25 -0.75 0.50 -1.15 0.40 -0.60 0.50 -0.55 0.50 0.40 0 0.60 -0.20 1.10 -0.50 1.10 -0.25 0 -0.50 -0.15 -0.50 -0.35z"/>
  <path d="M4.80 1.90 c-0.45 -1.80 -0.35 -2.05 0.45 -1.40 0.80 0.65 1.05 2.50 0.30 2.50 -0.25 0 -0.55 -0.50 -0.75 -1.10z"/>
 </g>
 <g fill="#0b7273">
  <path d="M9 23 c-0.80 -0.20 -1.05 -0.40 -0.65 -0.65 0.80 -0.50 0.25 -1.85 -0.70 -1.85 -0.50 0 -0.65 -0.30 -0.45 -0.80 0.15 -0.45 0.30 -1.20 0.30 -1.75 0 -1.25 1.55 -1.25 2.65 0.05 0.55 0.65 1.45 1 2.60 1 1.55 0 1.75 0.15 1.75 1.25 0 0.70 -0.20 1.25 -0.45 1.25 -0.25 0 -0.55 0.40 -0.65 0.85 -0.15 0.95 -2.15 1.25 -4.40 0.65z"/>
 </g>
 <g fill="#5e4950">
  <path d="M18.50 39.45 c0 -0.80 2.65 -4.95 3.15 -4.95 0.70 0 0.35 1.55 -0.45 1.85 -0.60 0.20 -0.70 0.70 -0.45 1.95 0.30 1.65 -0.40 2.40 -0.90 1.10 -0.20 -0.50 -0.30 -0.50 -0.30 0 -0.05 0.75 -1.05 0.80 -1.05 0.05z"/>
  <path d="M21.50 38.90 c0 -0.95 0.10 -1 0.50 -0.40 0.65 0.95 0.65 1.50 0 1.50 -0.25 0 -0.50 -0.50 -0.50 -1.10z"/>
  <path d="M7.50 35 c0 -1.25 0.80 -2.10 1.80 -1.90 1 0.15 1.65 2.40 0.75 2.40 -0.30 0 -0.55 -0.35 -0.55 -0.75 0 -1 -0.50 -0.95 -1.30 0.15 -0.55 0.70 -0.65 0.70 -0.70 0.10z"/>
  <path d="M25.70 34.85 c0.35 -1.15 -0.55 -3 -1.30 -2.55 -0.30 0.20 -0.45 0.05 -0.30 -0.35 0.15 -0.40 0.90 -0.70 1.65 -0.70 1.05 0 1.65 0.35 2.20 1.35 0.45 0.75 0.60 1.50 0.35 1.75 -0.25 0.20 -0.55 0.15 -0.65 -0.15 -0.10 -0.30 -0.55 -1 -0.95 -1.50 -0.70 -0.90 -0.70 -0.90 -0.20 0.25 0.50 0.95 0.45 1.30 -0.25 2 -0.85 0.75 -0.85 0.75 -0.55 -0.10z"/>
  <path d="M3.10 31.25 c0.30 -1.40 -0.35 -2.15 -0.80 -1 -0.40 1.05 -1.35 0.95 -0.95 -0.10 0.65 -1.80 1.15 -2.15 2.30 -1.50 0.60 0.35 1.15 0.60 1.20 0.65 0.10 0 -0.15 0.75 -0.45 1.60 -0.75 1.90 -1.60 2.15 -1.30 0.35z"/>
  <path d="M9 29.20 c0 -0.60 0.35 -1.20 0.75 -1.40 0.95 -0.35 0.95 0.25 0 1.50 -0.70 0.95 -0.70 0.95 -0.75 -0.10z"/>
  <path d="M26.60 27.10 c-0.60 -1.10 -1.45 -2.25 -1.85 -2.60 -1.10 -0.90 -0.90 -1.85 0.40 -2.20 0.65 -0.15 1.90 -1.25 2.75 -2.50 1.85 -2.55 1.90 -2.80 0.80 -2.80 -1.10 0 -0.50 -2.40 0.90 -3.75 1.05 -1.05 1.05 -0.95 -0.10 1.35 -0.35 0.80 -0.55 1.55 -0.35 1.70 0.65 0.65 1.25 -0.40 1.90 -3.30 l0.65 -3 2.80 0.05 c1.55 0.05 3.35 -0.20 3.95 -0.55 2.25 -1.20 1.45 -0.15 -0.95 1.25 -1.80 1.05 -2.50 1.75 -2.50 2.60 0 0.60 -0.25 1.25 -0.50 1.40 -0.30 0.15 -0.35 0.85 -0.20 1.45 0.20 0.95 0.05 1.25 -1.10 1.50 l-1.35 0.35 1.65 0.85 c0.95 0.45 1.75 1.10 1.85 1.40 0.25 0.75 -1.65 0.55 -2.70 -0.35 -0.50 -0.40 -1.35 -1.05 -1.85 -1.45 -0.90 -0.65 -0.95 -0.65 -0.55 0 0.20 0.40 0.70 1.10 1.10 1.60 0.75 0.85 0.65 1 -1.60 2.15 -0.55 0.30 -1 1 -1 1.50 0 0.65 -0.35 0.95 -0.90 0.95 -0.95 -0.10 -1.10 0.90 -0.30 2.35 1 1.95 0.15 2 -0.95 0.05z m6.80 -13.20 c1.10 -1.30 0.35 -1.10 -1.10 0.25 -1 0.95 -1.15 1.30 -0.65 1.80 0.45 0.50 0.65 0.40 0.80 -0.30 0.05 -0.50 0.50 -1.30 0.95 -1.75z"/>
  <path d="M14.45 26.80 c0.95 -1 1.95 -1.80 2.25 -1.80 0.65 0 -1.70 2.45 -2.95 3.10 -0.60 0.30 -0.30 -0.20 0.70 -1.30z"/>
  <path d="M7.50 27.50 c0 -0.25 0.25 -0.50 0.50 -0.50 0.30 0 0.50 -0.20 0.50 -0.50 0 -0.25 -0.35 -0.50 -0.75 -0.50 -0.40 0 -0.75 -0.30 -0.75 -0.70 0 -1.30 0.60 -2.30 1.35 -2.30 0.65 0 0.65 0.15 0.15 0.75 -0.55 0.70 -0.35 0.95 0.65 0.80 0.85 -0.15 0.90 1.55 0.10 2.45 -1 1.10 -1.75 1.30 -1.75 0.50z"/>
  <path d="M17.70 26.95 c-0.50 -0.85 0.65 -1.80 1.35 -1.10 0.60 0.60 0.20 1.65 -0.55 1.65 -0.25 0 -0.60 -0.25 -0.80 -0.55z"/>
  <path d="M22.25 25.30 l-1.50 -0.65 1.50 -0.25 c1.40 -0.30 2.20 0.20 2.25 1.25 0 0.50 -0.50 0.40 -2.25 -0.35z"/>
  <path d="M4.60 24.40 c0.15 -0.35 0.65 -0.75 1.10 -0.80 0.60 -0.15 0.85 0.05 0.70 0.50 -0.15 0.35 -0.65 0.75 -1.10 0.80 -0.60 0.15 -0.85 -0.05 -0.70 -0.50z"/>
  <path d="M1.35 24.20 c-0.55 -0.55 0.15 -1.20 1.35 -1.20 0.60 0 1.35 -0.25 1.70 -0.60 0.30 -0.30 0.70 -0.45 0.90 -0.25 0.15 0.15 -0.45 0.75 -1.35 1.30 -1.85 1.15 -2.10 1.20 -2.60 0.75z"/>
  <path d="M20 23.10 c0 -0.25 0.35 -0.65 0.80 -0.80 0.50 -0.20 0.70 -0.05 0.60 0.30 -0.25 0.75 -1.40 1.15 -1.40 0.50z"/>
  <path d="M20 21 c0.70 -0.50 1.35 -0.85 1.45 -0.75 0.40 0.40 -1.10 1.75 -1.90 1.75 -0.60 0 -0.50 -0.25 0.45 -1z"/>
  <path d="M5 20.75 c0 -0.40 0.35 -0.75 0.75 -0.75 0.55 0 0.70 -0.50 0.65 -1.95 -0.05 -1.35 -0.25 -1.90 -0.70 -1.70 -0.35 0.15 -0.90 0.05 -1.25 -0.15 -0.80 -0.45 0.85 -1.70 2.25 -1.70 0.55 0 1.40 -0.35 1.90 -0.85 0.85 -0.75 0.90 -0.70 0.90 1.15 0 1.05 0.15 2.50 0.35 3.15 0.20 0.80 0.15 1.10 -0.25 0.85 -0.30 -0.15 -0.65 0.15 -0.85 0.70 -0.15 0.55 -0.75 1 -1.30 1 -0.50 0 -0.95 0.25 -0.95 0.50 0 0.30 -0.35 0.50 -0.75 0.50 -0.40 0 -0.75 -0.35 -0.75 -0.75z"/>
  <path d="M16.90 17.25 c0.20 -1.25 0.80 -1.60 1.30 -0.80 0.45 0.65 -0.20 2.05 -0.95 2.05 -0.40 0 -0.50 -0.45 -0.35 -1.25z"/>
  <path d="M21.35 16.90 c-0.10 -0.90 -0.15 -1.75 -0.05 -1.85 0.45 -0.50 1.55 1.70 1.30 2.55 -0.35 1.40 -0.95 1.05 -1.25 -0.70z"/>
  <path d="M12.80 16.75 c-0.20 -0.60 1.10 -2.25 1.85 -2.25 0.65 0 0.35 1 -0.60 1.95 -0.75 0.75 -1.05 0.80 -1.25 0.30z"/>
  <path d="M1.65 13.80 c0.55 -0.40 1.20 -0.65 1.50 -0.60 0.35 0.10 0.45 0.05 0.25 -0.05 -0.75 -0.45 -0.40 -1.60 0.70 -2.35 0.85 -0.60 0.90 -0.80 0.35 -0.80 -0.95 0 -3.65 -3.80 -3.20 -4.50 0.15 -0.30 -0.05 -0.50 -0.45 -0.50 -0.45 0 -0.80 -0.30 -0.80 -0.70 0 -0.50 0.50 -0.65 1.70 -0.55 1.35 0.15 1.65 0 1.45 -0.55 -0.30 -0.85 0.05 -0.90 1.35 -0.20 0.85 0.45 0.90 0.35 0.45 -1.10 -0.60 -2.10 -0.60 -2.15 0.30 -1.40 0.40 0.35 0.75 1 0.75 1.45 0 0.45 0.35 1.25 0.75 1.75 0.40 0.55 0.75 1.65 0.75 2.45 0 1.45 0 1.45 -1.25 0.65 -1.30 -0.85 -2.25 -1.05 -2.25 -0.40 0 0.20 0.65 0.65 1.50 1 0.80 0.35 1.60 1.10 1.75 1.65 0.20 0.55 0.55 0.85 0.80 0.65 0.25 -0.15 0.30 -0.60 0 -1.05 -0.55 -1 -0.15 -2.50 0.70 -2.85 0.35 -0.10 0.75 0.15 0.85 0.60 0.30 1.30 -0.60 5.15 -1.15 4.85 -0.25 -0.20 -0.45 0.10 -0.45 0.60 0 1.30 -1.50 2.05 -4.60 2.40 -2.40 0.30 -2.55 0.25 -1.75 -0.45z"/>
  <path d="M17.90 12.30 c-1.10 -0.85 -1.20 -2.80 -0.10 -2.80 0.40 0 0.60 0.25 0.45 0.55 -0.20 0.30 0.15 1.05 0.80 1.75 1.25 1.30 0.40 1.70 -1.15 0.50z"/>
  <path d="M30 9.25 c0 -1.35 0.20 -2.20 0.50 -2 0.55 0.35 0.50 3.70 -0.10 4.05 -0.20 0.15 -0.40 -0.80 -0.40 -2.05z"/>
  <path d="M32.25 7.90 c0.20 -0.65 0.70 -1.50 1.10 -1.90 0.70 -0.65 0.75 -0.65 0.40 0.25 -0.85 2.40 -0.90 2.55 -0.15 1.75 0.35 -0.45 1.45 -1.10 2.40 -1.50 0.95 -0.35 2.05 -0.90 2.45 -1.20 0.45 -0.35 0.40 -0.05 -0.15 0.85 -0.75 1.10 -0.80 1.50 -0.30 2.10 0.55 0.65 0.20 0.75 -2.70 0.75 -3.25 0 -3.35 -0.05 -3.05 -1.10z"/>
 </g>
 <g fill="#795862">
  <path d="M19 39.30 c0 -0.50 0.45 -1.70 1.05 -2.65 0.95 -1.50 1 -1.95 0.50 -3.90 -0.65 -2.65 -0.65 -2.75 -0.10 -2.75 0.25 0 0.75 1.30 1.05 2.85 0.55 2.50 0.50 2.90 -0.25 3.45 -0.65 0.45 -0.75 1 -0.50 2.15 0.20 1 0.15 1.55 -0.20 1.55 -0.30 0 -0.55 -0.30 -0.55 -0.60 0 -0.45 -0.20 -0.40 -0.50 0.10 -0.40 0.65 -0.50 0.60 -0.50 -0.20z"/>
  <path d="M7.50 35.15 c0 -1.35 1 -3.05 1.95 -3.30 0.90 -0.20 1.05 -0.05 1.05 1.45 0 1.70 -0.65 2.30 -1.20 1.10 -0.15 -0.45 -0.45 -0.35 -1 0.30 -0.45 0.55 -0.80 0.75 -0.80 0.45z"/>
  <path d="M26 33.85 c0 -0.35 -0.30 -0.95 -0.60 -1.25 -0.50 -0.50 -0.80 -0.40 -1.50 0.50 -0.75 1 -0.90 1.05 -0.90 0.25 0 -0.50 0.45 -1.35 1 -1.95 0.75 -0.80 0.85 -1.25 0.45 -1.75 -0.30 -0.35 -0.40 -0.65 -0.20 -0.65 0.75 0 4.25 4.05 4.25 4.90 -0.05 0.65 -0.30 0.50 -1.30 -0.65 l-1.25 -1.50 0.35 1.40 c0.15 0.75 0.15 1.35 0 1.35 -0.15 0 -0.30 -0.30 -0.30 -0.65z"/>
  <path d="M3.20 31.30 c0.15 -0.70 0.10 -1.35 -0.20 -1.55 -0.25 -0.15 -0.60 0.30 -0.80 1 -0.15 0.70 -0.50 1.25 -0.75 1.25 -0.65 0 -0.55 -0.65 0.30 -2.35 0.55 -1.10 1.05 -1.50 1.65 -1.30 0.50 0.10 1.20 -0.15 1.55 -0.55 0.40 -0.45 0.85 -0.80 1.10 -0.80 0.85 0 0.45 1.45 -0.80 2.80 -0.70 0.75 -1.25 1.65 -1.25 2 0 0.40 -0.25 0.70 -0.55 0.70 -0.35 0 -0.45 -0.50 -0.25 -1.20z"/>
  <path d="M6.50 32.30 c0 -0.35 3.10 -3.35 3.25 -3.20 0.45 0.45 -1.10 2.60 -2.10 2.95 -0.65 0.25 -1.15 0.35 -1.15 0.25z"/>
  <path d="M15.35 31.20 c-0.65 -0.65 0.25 -1.25 0.95 -0.65 0.60 0.50 0.85 0.40 1.40 -0.35 0.40 -0.50 0.90 -0.80 1.10 -0.60 0.55 0.60 -0.80 1.90 -2.05 1.90 -0.60 0 -1.25 -0.15 -1.40 -0.30z"/>
  <path d="M7.65 27.30 c1.05 -0.80 1.10 -1.30 0.10 -1.30 -1.05 0 -0.95 -1.65 0.30 -3.20 1.25 -1.60 2.95 -1.75 2.95 -0.25 0 0.75 -0.20 0.95 -0.80 0.75 -0.80 -0.30 -2.20 0.45 -2.20 1.20 0 0.55 2.65 0.45 3.40 -0.10 0.30 -0.30 0.60 -0.30 0.60 -0.05 0 0.25 -0.50 0.75 -1.10 1.15 -0.55 0.40 -1.40 1.15 -1.85 1.65 -0.40 0.45 -1.10 0.85 -1.55 0.85 -0.60 -0.05 -0.60 -0.15 0.15 -0.70z"/>
  <path d="M14.75 26.50 c0.80 -0.80 1.70 -1.50 1.95 -1.50 0.30 0 -0.15 0.70 -1.05 1.50 -2.05 1.95 -2.75 1.95 -0.90 0z"/>
  <path d="M17.80 27.05 c-0.15 -0.25 0.05 -0.70 0.40 -1 0.80 -0.65 1.60 0.10 1.05 0.95 -0.40 0.60 -1.10 0.65 -1.45 0.05z"/>
  <path d="M20.75 26.50 c0.15 -0.25 0.65 -0.50 1.05 -0.50 0.40 0 0.70 0.25 0.70 0.50 0 0.30 -0.45 0.50 -1.05 0.50 -0.55 0 -0.85 -0.20 -0.70 -0.50z"/>
  <path d="M25.50 25.25 c-0.35 -0.70 -0.85 -1.25 -1.10 -1.25 -1 0 -0.30 -1.40 0.85 -1.70 0.70 -0.20 1.85 -1.20 2.55 -2.30 1.55 -2.30 1.75 -2.35 2.60 -0.95 0.60 0.95 0.55 1 -0.50 0.85 -0.90 -0.10 -1.10 0.05 -1 0.80 0.25 1.50 -0.35 3.30 -1.15 3.30 -0.45 0 -0.75 0.50 -0.75 1.25 0 0.70 -0.20 1.25 -0.40 1.25 -0.25 0 -0.75 -0.55 -1.10 -1.25z"/>
  <path d="M23.35 25.60 c-0.50 -0.10 -0.80 -0.45 -0.70 -0.75 0.30 -0.90 1.20 -0.95 1.55 -0.05 0.40 1 0.30 1.05 -0.85 0.80z"/>
  <path d="M20 23.10 c0 -0.50 3.25 -2.10 4.20 -2.10 0.40 0 0.95 -0.35 1.30 -0.75 0.35 -0.40 0.85 -0.75 1.20 -0.75 1 0 -1.95 2.30 -4.10 3.15 -2.40 0.95 -2.60 1 -2.60 0.45z"/>
  <path d="M20.50 20.50 c0.90 -1 1.30 -1.85 1.15 -2.50 -0.15 -0.60 0 -1 0.35 -1 0.45 0 0.55 0.50 0.30 1.60 -0.35 1.75 -1.60 3.40 -2.60 3.40 -0.30 0 0.05 -0.70 0.80 -1.50z"/>
  <path d="M13.50 21 c0 -0.25 -0.65 -0.50 -1.50 -0.50 -1.15 0 -1.50 -0.20 -1.50 -1 0 -0.65 0.25 -0.90 0.75 -0.70 0.50 0.20 0.75 0 0.75 -0.75 0 -0.60 0.30 -1.05 0.80 -1.05 0.40 0 0.65 0.20 0.50 0.45 -0.15 0.20 0.15 0.80 0.70 1.30 0.95 0.85 1.05 0.85 2 0 0.55 -0.50 1 -1.20 1 -1.55 0 -1 0.85 -1.30 1.20 -0.40 0.20 0.55 -0.35 1.45 -1.75 2.75 -2.15 1.95 -2.95 2.35 -2.95 1.45z"/>
  <path d="M6.85 20.15 c-0.75 -0.75 -0.35 -2.15 0.65 -2.15 0.75 0 1 0.35 1 1.25 0 1.20 -0.90 1.70 -1.65 0.90z"/>
  <path d="M30.60 18.05 c-0.55 -0.30 -0.55 -0.85 -0.10 -2.60 1.15 -4.50 1.60 -5.45 2.40 -5.45 0.55 0 0.65 0.15 0.25 0.40 -0.30 0.20 -0.70 1.20 -0.90 2.25 -0.20 1 -0.55 1.85 -0.80 1.85 -0.25 0 -0.45 0.35 -0.45 0.75 0 0.40 0.20 0.75 0.45 0.75 0.25 0 0.55 0.35 0.70 0.70 0.20 0.50 0.05 0.65 -0.45 0.45 -0.50 -0.20 -0.60 0 -0.40 0.55 0.35 0.90 0.25 0.95 -0.70 0.35z"/>
  <path d="M32.85 16.30 c-0.20 -0.75 -0.30 -1.55 -0.10 -1.70 0.50 -0.50 0.80 0.30 0.65 1.75 l-0.15 1.40 -0.40 -1.45z"/>
  <path d="M28.30 15.90 c0.35 -1.10 1.65 -3.40 1.95 -3.40 0.35 0 -0.40 2.05 -0.80 2.30 -0.25 0.15 -0.45 0.70 -0.45 1.25 0 0.50 -0.25 0.95 -0.55 0.95 -0.30 0 -0.40 -0.45 -0.15 -1.10z"/>
  <path d="M5.40 14.90 c0.85 -0.40 1.30 -0.40 1.70 0 0.45 0.45 0.20 0.60 -1.10 0.55 -1.65 0 -1.70 -0.05 -0.60 -0.55z"/>
  <path d="M2.50 14.05 c0 -0.30 0.40 -0.55 0.90 -0.55 0.70 0 0.70 -0.10 0.15 -0.45 -1.05 -0.65 -0.25 -2.05 1.10 -2.05 1.05 0 1.20 -0.20 0.95 -1.35 -0.20 -1.10 -0.30 -1.20 -0.55 -0.45 -0.50 1.35 -0.95 1.20 -2.30 -0.80 -1.50 -2.20 -1.55 -2.45 -0.35 -2.25 1.95 0.40 4.60 2.05 4.60 2.95 0 0.50 0.35 0.90 0.75 0.90 0.40 0 0.75 -0.25 0.75 -0.50 0 -0.90 -2.85 -3.50 -3.85 -3.50 -0.75 0 -1 -0.35 -1 -1.50 0 -1.80 0.35 -1.90 1.50 -0.30 0.60 0.80 1.25 1.10 1.90 0.95 0.55 -0.15 0.95 0 0.95 0.35 0 0.35 0.35 0.50 0.75 0.30 0.60 -0.20 0.75 0.15 0.70 1.85 0 2.35 -0.50 3.90 -1.20 4 -0.30 0.05 -0.45 0.35 -0.35 0.65 0.10 0.60 -1.55 1.40 -4 2 -0.90 0.20 -1.40 0.10 -1.40 -0.25z"/>
  <path d="M17.90 12.30 c-0.95 -0.70 -1.25 -2.30 -0.40 -2.30 0.30 0 0.50 0.30 0.50 0.70 0 0.40 0.25 0.80 0.60 0.90 0.30 0.10 0.45 0.45 0.35 0.75 -0.15 0.40 -0.45 0.40 -1.05 -0.05z"/>
  <path d="M34 11.25 c0 -0.70 0.20 -1.25 0.45 -1.25 0.25 0 0.45 0.55 0.45 1.25 0 0.70 -0.20 1.25 -0.45 1.25 -0.25 0 -0.45 -0.55 -0.45 -1.25z"/>
  <path d="M35.70 10.75 c0.55 -0.40 1.45 -0.75 2 -0.75 0.95 0.05 0.95 0.10 -0.20 0.75 -1.75 1 -3.10 0.95 -1.80 0z"/>
  <path d="M0.90 4.80 c-1.25 -0.95 -1.10 -1.15 0.60 -1.10 1.05 0.05 1.50 0.30 1.50 0.95 0 1 -0.90 1.10 -2.10 0.15z"/>
  <path d="M5.10 1.85 c-0.80 -1.85 -0.75 -2.05 0.20 -1.15 0.40 0.45 0.70 1.20 0.55 1.70 -0.15 0.65 -0.30 0.55 -0.75 -0.55z"/>
 </g>
 <g fill="#4d7d7e">
  <path d="M8.55 26.65 c0 -0.35 -0.40 -0.65 -0.80 -0.65 -0.75 0 -1.05 -1.05 -0.45 -1.65 0.55 -0.55 1.80 1.10 1.55 2.05 -0.15 0.45 -0.25 0.55 -0.30 0.25z"/>
  <path d="M10 25.60 c0 -0.20 0.45 -0.65 1 -1 1.10 -0.65 1.35 -0.15 0.40 0.80 -0.70 0.70 -1.40 0.80 -1.40 0.20z"/>
  <path d="M9.90 23.10 c-0.50 -0.10 -0.90 -0.60 -0.90 -1.20 0 -0.55 -0.40 -1.10 -1 -1.25 -1.20 -0.30 -1.75 -1.85 -1.05 -3 0.30 -0.50 0.55 -0.60 0.55 -0.25 0 0.30 0.25 0.60 0.55 0.60 0.25 0 0.35 -0.20 0.20 -0.50 -0.60 -0.95 1 -0.50 1.90 0.50 0.45 0.55 1.45 1 2.20 1 0.80 0 1.90 0.15 2.50 0.30 1.10 0.30 1.10 0.30 -0.35 1.80 -0.85 0.80 -1.50 1.70 -1.50 1.95 0 0.95 -1.10 0.40 -1.40 -0.65 -0.30 -1.10 -0.30 -1.10 -0.55 -0.15 -0.20 0.65 -0.65 0.95 -1.15 0.85z"/>
 </g>
 <g fill="#7f6c73">
  <path d="M18.50 39.70 c0 -0.60 1.05 -2.20 1.45 -2.20 0.50 0 1.15 2.10 0.75 2.45 -0.15 0.15 -0.45 -0.05 -0.70 -0.45 -0.35 -0.50 -0.50 -0.55 -0.50 -0.10 0 0.30 -0.20 0.60 -0.50 0.60 -0.25 0 -0.50 -0.15 -0.50 -0.30z"/>
  <path d="M9.50 34.20 c0 -0.70 -0.15 -0.70 -0.75 -0.20 -1 0.85 -1.25 0.55 -0.70 -0.85 0.50 -1.35 1.70 -1.50 2.15 -0.35 0.45 1.20 0.35 2.20 -0.20 2.20 -0.25 0 -0.50 -0.35 -0.50 -0.80z"/>
  <path d="M27.25 33.20 c-1 -1.50 -0.50 -2.40 0.55 -1 0.65 0.90 0.95 2.30 0.50 2.30 -0.10 0 -0.55 -0.60 -1.05 -1.30z"/>
  <path d="M6.80 31.85 c0.10 -0.35 0.65 -0.90 1.20 -1.25 0.80 -0.50 1 -0.50 1 0.05 0 0.40 -0.55 0.95 -1.25 1.25 -0.90 0.45 -1.15 0.40 -0.95 -0.05z"/>
  <path d="M17.60 30.55 c0.65 -1.10 1.40 -1.40 1.40 -0.55 0 0.25 -0.45 0.70 -1 1 -0.95 0.50 -1 0.50 -0.40 -0.45z"/>
  <path d="M26.20 26.25 c-1.30 -2.30 -2.50 -3.05 -2.05 -1.30 0.20 0.85 0.10 0.90 -1.30 0.40 l-1.55 -0.50 1.25 -0.45 c0.65 -0.25 1.35 -0.80 1.60 -1.20 0.20 -0.40 0.70 -0.70 1.10 -0.70 0.40 0 1.30 -0.85 2.05 -1.85 0.80 -1.05 1.55 -2.05 1.70 -2.30 0.20 -0.20 0.75 0.10 1.30 0.70 0.95 1.10 0.95 1.10 -0.05 0.85 -0.75 -0.20 -1.05 0 -1.10 0.65 -0.10 1.10 0.40 1.20 1.25 0.35 0.45 -0.45 0.60 -0.45 0.60 0.15 0 0.40 -0.50 0.95 -1.10 1.20 -0.65 0.30 -1.20 1 -1.30 1.65 -0.15 0.95 -0.30 1.05 -0.90 0.55 -0.55 -0.45 -0.70 -0.40 -0.70 0.45 0 0.55 0.20 1.60 0.50 2.30 0.75 1.95 0.20 1.55 -1.30 -0.95z"/>
  <path d="M9 26.10 c0 -0.65 0.45 -1.05 1.40 -1.25 1.85 -0.35 1.90 -0.15 0.15 1.15 -1.50 1.05 -1.55 1.05 -1.55 0.10z"/>
  <path d="M7.05 25.15 c0 -0.25 0.20 -0.85 0.45 -1.40 0.40 -0.90 0.45 -0.85 0.45 0.40 0.05 0.75 -0.15 1.35 -0.45 1.35 -0.25 0 -0.50 -0.15 -0.45 -0.35z"/>
  <path d="M4.75 24.50 c-0.15 -0.25 -0.20 -0.50 -0.05 -0.50 0.10 0 0.60 -0.15 1 -0.30 0.60 -0.25 0.75 -0.10 0.50 0.50 -0.35 0.90 -1 1.05 -1.45 0.30z"/>
  <path d="M1.25 24 c-0.25 -0.40 0.10 -0.55 2.90 -1.30 1.05 -0.30 1.10 -0.30 0.10 0.40 -1.45 1.05 -2.70 1.40 -3 0.90z"/>
  <path d="M20 23.30 c0 -0.55 3.60 -2.35 4.35 -2.15 0.60 0.15 0.15 0.55 -1.50 1.25 -2.55 1.15 -2.85 1.25 -2.85 0.90z"/>
  <path d="M35.75 21.50 c-0.50 -0.55 -1.15 -0.95 -1.50 -0.90 -0.30 0.10 -1.40 -0.60 -2.45 -1.50 -1.80 -1.60 -1.85 -1.65 -1.30 -3.75 1.30 -5 1.45 -5.30 2.95 -5.25 1.30 0.05 1.40 0.20 1.50 2.25 0.05 1.55 -0.15 2.25 -0.70 2.45 -0.50 0.20 -0.65 0.70 -0.45 1.50 0.15 0.65 0.10 1.20 -0.20 1.20 -1 0 -1.20 -2.55 -0.30 -3.55 0.65 -0.75 0.75 -1.10 0.30 -1.55 -0.40 -0.40 -0.70 -0.25 -1.05 0.75 -0.30 0.75 -0.75 1.35 -1.05 1.35 -0.75 0 -0.60 1.05 0.35 2.10 0.80 0.90 0.80 0.90 -0.15 0.60 -0.90 -0.30 -0.90 -0.30 0.10 0.75 0.55 0.60 1.40 1.15 1.85 1.25 1 0.15 3.35 2.10 3.35 2.80 0 0.70 -0.25 0.65 -1.25 -0.50z"/>
  <path d="M20.40 21 c0.60 -0.55 1.20 -1 1.40 -1 0.20 0 -0.05 0.45 -0.55 1 -0.50 0.55 -1.15 1 -1.40 1 -0.30 0 -0.05 -0.45 0.55 -1z"/>
  <path d="M5.10 20.90 c0.30 -0.90 1.40 -1.05 1.40 -0.20 0 0.45 -0.35 0.80 -0.80 0.80 -0.45 0 -0.70 -0.25 -0.60 -0.60z"/>
  <path d="M8.05 20.20 c-0.40 -0.70 -0.55 -0.75 -0.55 -0.20 -0.05 1.55 -1 -0.70 -1 -2.40 0 -1.25 -0.20 -1.60 -0.80 -1.50 -1.25 0.20 -1.40 -0.95 -0.25 -1.35 1.45 -0.45 2.05 0.05 2.05 1.80 0 0.80 0.15 1.45 0.40 1.45 0.20 0 0.35 -0.95 0.35 -2.10 0 -1.20 0.25 -2.15 0.65 -2.25 0.40 -0.15 0.60 0.35 0.60 1.60 0 1 0.20 2.25 0.50 2.75 0.40 0.75 0.30 0.85 -0.50 0.65 -1 -0.25 -1.45 0.60 -0.50 0.95 0.25 0.10 0.30 0.45 0.05 0.85 -0.35 0.55 -0.55 0.50 -1 -0.25z"/>
  <path d="M21.35 16.65 c-0.10 -0.50 -0.40 -1.30 -0.60 -1.75 -0.55 -1.40 0.55 -1.05 1.15 0.35 0.35 0.70 0.60 1.50 0.60 1.75 0 0.85 -0.85 0.55 -1.15 -0.35z"/>
  <path d="M4.70 13.25 c0.55 -0.40 0.80 -0.90 0.65 -1.10 -0.20 -0.20 -0.65 -0.05 -0.95 0.25 -0.80 0.80 -1.40 0.75 -1.40 -0.15 0 -0.90 1.50 -1.70 2.50 -1.40 0.45 0.15 0.30 -0.05 -0.25 -0.50 -0.55 -0.40 -1.15 -0.65 -1.35 -0.55 -0.25 0.15 -0.40 0 -0.40 -0.30 0 -0.30 -0.45 -1 -1 -1.60 -0.55 -0.60 -1 -1.25 -1 -1.50 0 -1.10 5.50 1.40 5.55 2.55 0 0.45 0.10 1.20 0.20 1.65 0.10 0.50 -0.05 1.05 -0.35 1.20 -0.30 0.20 -0.25 0.50 0.15 0.75 0.50 0.30 0.30 0.55 -0.70 0.90 -2 0.75 -2.80 0.65 -1.65 -0.20z"/>
  <path d="M35.80 10.75 c0.50 -0.40 1.40 -0.70 1.95 -0.70 0.90 0 0.85 0.05 -0.25 0.70 -1.70 1 -3 1 -1.70 0z"/>
  <path d="M8.20 9.50 c-0.05 -0.80 0.15 -1.35 0.35 -1.20 0.55 0.30 0.60 2.70 0.10 2.70 -0.25 0 -0.40 -0.65 -0.45 -1.50z"/>
  <path d="M33.50 8.45 c0 -0.55 1.15 -1.30 3.15 -2.10 1.80 -0.80 1.85 -0.80 1.30 0.20 -0.35 0.75 -0.35 1.20 0.05 1.70 0.45 0.55 0.15 0.65 -1.95 0.60 -1.40 -0.05 -2.55 -0.25 -2.55 -0.40z"/>
  <path d="M32.50 8 c0 -0.85 0.85 -2.35 1.15 -2 0.10 0.15 -0.10 0.80 -0.50 1.50 -0.35 0.70 -0.65 0.90 -0.65 0.50z"/>
  <path d="M6.60 6.70 c-0.50 -0.30 -1.25 -0.65 -1.80 -0.75 -0.65 -0.15 -1 -0.70 -1.10 -1.95 l-0.15 -1.75 1.45 1.75 c0.85 0.95 1.50 1.45 1.50 1.15 0 -0.35 -0.20 -0.70 -0.45 -0.85 -0.55 -0.35 -1.10 -2.30 -0.60 -2.30 0.15 0 0.85 0.90 1.55 2 0.70 1.10 1.50 1.90 1.85 1.75 0.40 -0.10 0.65 0.20 0.65 0.75 0 1.05 -1.55 1.15 -2.90 0.20z"/>
 </g>
 <g fill="#9f707e">
  <path d="M19.55 39.20 c-0.50 -0.55 -0.50 -0.95 -0.10 -1.35 0.65 -0.65 0.80 -0.50 1.25 1.05 0.40 1.25 -0.15 1.40 -1.15 0.30z"/>
  <path d="M20.65 35.65 c0.40 -0.75 0.60 -1.75 0.50 -2.15 -0.20 -0.65 -0.15 -0.65 0.30 0 0.85 1.20 0.65 2.40 -0.50 3 -0.95 0.55 -1 0.50 -0.30 -0.85z"/>
  <path d="M7.50 34.85 c0 -0.15 0.25 -0.90 0.60 -1.60 0.75 -1.65 2.40 -1.70 2.40 -0.05 0 0.70 -0.20 1.40 -0.50 1.55 -0.25 0.15 -0.50 -0.10 -0.50 -0.55 0 -0.80 -0.05 -0.80 -1 0.05 -0.55 0.50 -1 0.75 -1 0.60z"/>
  <path d="M27.50 33.35 c-1.55 -2.30 -1.55 -2.35 -0.75 -2 0.75 0.25 2 2.55 1.60 2.95 -0.05 0.10 -0.45 -0.35 -0.85 -0.95z"/>
  <path d="M25.50 32.75 c-0.35 -0.40 -0.80 -0.60 -1.05 -0.45 -0.60 0.35 -0.55 -1 0.05 -1.60 0.60 -0.60 -1.75 -3.70 -2.80 -3.70 -0.40 0 -0.70 -0.20 -0.70 -0.50 0 -0.90 1 -0.55 2.50 0.90 0.80 0.75 1.80 2.40 2.20 3.75 0.75 2.55 0.75 2.75 -0.20 1.60z"/>
  <path d="M1 31.60 c0 -0.35 0.35 -1.35 0.80 -2.15 0.60 -1.20 0.90 -1.40 1.45 -0.95 0.55 0.45 0.90 0.35 1.60 -0.45 0.45 -0.60 1.05 -1.05 1.25 -1.05 0.85 0 0.35 1.35 -1.05 2.90 -1.60 1.70 -2.20 2 -1.75 0.90 0.15 -0.40 0.05 -0.85 -0.25 -1.05 -0.30 -0.15 -0.55 -0.10 -0.55 0.10 0 0.75 -1.45 2.45 -1.50 1.75z"/>
  <path d="M7.90 30.85 c0.60 -0.65 1.10 -1.40 1.10 -1.70 0 -0.30 0.35 -0.80 0.75 -1.15 0.40 -0.35 0.75 -0.45 0.75 -0.30 0 0.65 -1.65 3.55 -2.20 3.90 -1.20 0.80 -1.40 0.35 -0.40 -0.75z"/>
  <path d="M17.70 30.55 c1.05 -1.15 1.30 -1.30 1.30 -0.55 0 0.25 -0.50 0.75 -1.10 1.05 -1.15 0.60 -1.15 0.60 -0.20 -0.50z"/>
  <path d="M20 30.45 c0 -0.55 0.25 -0.85 0.50 -0.70 0.30 0.15 0.50 0.65 0.50 1.05 0 0.40 -0.20 0.70 -0.50 0.70 -0.25 0 -0.50 -0.45 -0.50 -1.05z"/>
  <path d="M7.50 27.75 c0 -0.65 2.35 -2.60 3.45 -2.90 0.90 -0.20 0.75 0.05 -0.80 1.40 -1.80 1.60 -2.65 2.10 -2.65 1.50z"/>
  <path d="M21.25 22.35 c0.55 -0.45 1.25 -0.85 1.50 -0.85 0.30 0 1.15 -0.35 1.95 -0.75 0.80 -0.45 1.55 -0.70 1.65 -0.55 0.35 0.30 -3 2.20 -4.60 2.55 -1.45 0.35 -1.45 0.35 -0.50 -0.40z"/>
  <path d="M13.10 21.60 c0.30 -1 0.15 -1.10 -1.60 -1.10 -2.85 0 -4.35 -0.85 -4.70 -2.65 -0.15 -0.85 -0.10 -1.75 0.20 -2.05 0.35 -0.35 0.50 -0.05 0.50 0.90 0 1.35 1.55 3.30 2.60 3.30 0.75 0 0.40 -0.95 -0.55 -1.45 -1 -0.55 -1.70 -3.05 -1.25 -4.30 0.55 -1.40 1.20 -0.75 1.20 1.20 0 2 1 3.55 2.25 3.55 0.40 0 0.60 -0.30 0.45 -0.70 -0.35 -1 0.65 -2.80 1.60 -2.80 0.65 0 0.65 0.15 -0.05 1.15 -0.70 1.10 -0.70 1.25 0.25 2.10 0.95 0.85 1.05 0.85 2 0 0.55 -0.50 1 -1.20 1 -1.60 0 -0.35 0.25 -0.65 0.50 -0.65 0.85 0 0.55 1.80 -0.40 2.65 -0.50 0.50 -1.10 0.85 -1.35 0.85 -0.20 0 -0.95 0.60 -1.65 1.35 -1.20 1.30 -1.25 1.30 -1 0.25z"/>
  <path d="M26.85 21.30 c0.70 -0.95 0.95 -1.05 1.05 -0.45 0.10 0.45 -0.10 0.95 -0.50 1.20 -1.20 0.80 -1.45 0.45 -0.55 -0.75z"/>
  <path d="M20.05 21.45 c0.40 -0.40 1.05 -1.15 1.40 -1.70 0.55 -0.95 0.60 -0.95 0.45 -0.05 -0.10 0.50 -0.70 1.25 -1.40 1.65 -0.85 0.50 -1 0.55 -0.45 0.10z"/>
  <path d="M28.55 15.70 c-0.05 -0.60 0.30 -1.40 0.80 -1.75 0.75 -0.65 0.75 -0.60 0.30 0.30 -0.30 0.55 -0.65 1.35 -0.80 1.75 -0.20 0.50 -0.30 0.40 -0.30 -0.30z"/>
  <path d="M4.50 15.55 c0 -0.25 0.45 -0.55 1 -0.70 1.20 -0.30 1.35 0.40 0.20 0.85 -1.05 0.40 -1.20 0.40 -1.20 -0.15z"/>
  <path d="M0.60 14.20 c0.35 -0.35 6.40 -1.60 6.40 -1.35 0 0.10 -0.80 0.55 -1.75 0.95 -1.65 0.65 -5.20 1 -4.65 0.40z"/>
  <path d="M18.35 12.45 c-1.45 -1.10 -1.70 -2.40 -0.75 -3.35 1 -1 1.40 -0.70 0.80 0.65 -0.45 1.05 -0.40 1.35 0.65 2.20 0.65 0.55 1.05 1.10 0.90 1.25 -0.15 0.20 -0.90 -0.15 -1.60 -0.75z"/>
  <path d="M3.10 12.40 c0.15 -0.35 0.65 -0.75 1.20 -0.85 0.80 -0.15 0.85 -0.05 0.25 0.65 -0.80 0.95 -1.70 1.05 -1.45 0.20z"/>
  <path d="M36 10.75 c0.35 -0.40 1.10 -0.75 1.70 -0.75 0.90 0 0.85 0.10 -0.40 0.75 -1.80 0.95 -2.10 0.95 -1.30 0z"/>
  <path d="M8.30 9 c0.05 -1.10 -0.05 -1.90 -0.25 -1.80 -0.75 0.50 -1.70 -0.65 -1.80 -2.15 -0.15 -1.85 0.35 -2 1.25 -0.30 0.35 0.70 0.95 1.25 1.35 1.25 0.70 0 0.90 2.75 0.35 4.20 -0.55 1.45 -1 0.85 -0.90 -1.20z"/>
  <path d="M30.25 8.85 c-0.20 -0.50 -0.25 -1.05 -0.05 -1.20 0.50 -0.50 0.90 0.20 0.65 1.20 -0.20 0.85 -0.20 0.85 -0.60 0z"/>
  <path d="M5.20 8.25 c-0.50 -0.40 -0.70 -0.75 -0.40 -0.75 0.25 0 0.95 0.35 1.50 0.75 0.50 0.40 0.70 0.75 0.40 0.75 -0.25 0 -0.95 -0.35 -1.50 -0.75z"/>
  <path d="M4.50 5.20 c0 -0.45 0.25 -0.70 0.60 -0.60 0.90 0.30 1.05 1.40 0.20 1.40 -0.45 0 -0.80 -0.35 -0.80 -0.80z"/>
  <path d="M1.80 4.30 c1.05 -0.75 1.50 -0.70 0.95 0.15 -0.15 0.30 -0.70 0.55 -1.15 0.55 -0.65 0 -0.65 -0.10 0.20 -0.70z"/>
 </g>
 <g fill="#8a8184">
  <path d="M18.60 39.40 c0.30 -0.80 1.90 -1.15 1.90 -0.45 0 0.30 -0.35 0.35 -0.85 0.20 -0.55 -0.20 -0.70 -0.15 -0.45 0.25 0.20 0.35 0.10 0.60 -0.20 0.60 -0.35 0 -0.50 -0.30 -0.40 -0.60z"/>
  <path d="M7.50 35 c0.05 -2.30 3 -4 3 -1.70 0 0.60 -0.20 1.30 -0.50 1.45 -0.30 0.15 -0.50 -0.20 -0.50 -0.85 0 -1.10 -0.05 -1.05 -1 0.35 -0.55 0.85 -1 1.15 -1 0.75z"/>
  <path d="M26.05 33.95 c-0.05 -0.45 -0.40 -1.10 -0.80 -1.45 -0.60 -0.50 -0.80 -0.45 -1.05 0.20 -0.15 0.45 -0.50 0.80 -0.75 0.80 -0.80 0 -0.50 -1.30 0.50 -2.20 0.95 -0.85 1 -0.85 1.80 0.70 0.45 0.85 0.70 1.85 0.55 2.15 -0.10 0.35 -0.25 0.25 -0.25 -0.20z"/>
  <path d="M3.25 31 c0.60 -1 -0.35 -1.60 -1.05 -0.65 -0.50 0.70 -0.65 0.75 -0.70 0.15 0 -1.25 0.70 -1.90 2.10 -1.90 1.20 0 1.25 0.10 0.80 1.45 -0.25 0.80 -0.70 1.45 -1 1.45 -0.25 0 -0.30 -0.20 -0.15 -0.50z"/>
  <path d="M8 27 c0.65 -0.45 0.65 -0.60 -0.15 -1.05 -1 -0.60 -0.80 -2.10 0.50 -3.55 0.65 -0.75 0.65 -0.95 0.05 -1.85 -0.40 -0.60 -0.85 -0.90 -1.05 -0.75 -0.15 0.15 -0.45 -0.55 -0.65 -1.55 -0.20 -1.15 -0.10 -2.05 0.25 -2.40 0.40 -0.40 0.55 -0.15 0.55 0.90 0 1.05 0.45 1.85 1.50 2.70 1.80 1.40 1.95 3.10 0.40 3.80 -1.75 0.80 -1.70 1.75 0.15 1.75 l1.60 0 -1.15 1.25 c-0.65 0.70 -1.55 1.25 -1.95 1.25 -0.70 0 -0.70 -0.10 -0.05 -0.50z"/>
  <path d="M25.70 25.40 c-0.20 -0.65 -0.70 -1.40 -1.15 -1.75 -0.70 -0.50 -0.65 -0.65 0.50 -1.05 0.70 -0.30 2 -1.45 2.80 -2.55 l1.50 -2.05 1.35 1.45 c1.45 1.50 1.35 1.70 -1.30 3 -0.80 0.40 -1.20 0.95 -1.05 1.35 0.15 0.40 0 0.70 -0.35 0.70 -0.40 0 -0.55 -0.45 -0.40 -1.25 0.15 -0.70 0.05 -1.25 -0.15 -1.25 -0.45 0 -0.65 1.35 -0.45 3.40 0.10 1.45 -0.85 1.45 -1.30 0z m4.50 -4.35 c0.80 -0.85 0.80 -0.95 -0.20 -1.20 -0.80 -0.20 -1 0 -1 0.95 0 1.45 0.10 1.45 1.20 0.25z"/>
  <path d="M12 22.05 c0 -0.55 0.40 -1.10 0.90 -1.20 0.80 -0.20 0.80 -0.25 0 -0.30 -1.55 -0.10 -0.95 -1.05 0.60 -1.05 1.80 0 1.80 0.10 0.40 2 -1.25 1.75 -1.90 1.90 -1.90 0.55z"/>
  <path d="M5.10 20.95 c0.10 -0.35 0.50 -0.75 0.85 -0.85 0.40 -0.15 0.60 0.05 0.45 0.45 -0.10 0.35 -0.50 0.75 -0.85 0.85 -0.40 0.15 -0.60 -0.05 -0.45 -0.45z"/>
  <path d="M31.75 18.95 c-1.10 -1.05 -1.70 -1.95 -1.30 -1.95 0.40 0 0.55 -0.30 0.35 -0.85 -0.40 -0.95 1.05 -5.65 1.75 -5.65 0.60 0 -0.05 3.15 -0.75 3.60 -0.30 0.20 -0.55 1.10 -0.55 2 -0.05 1.80 1.80 3.80 3.25 3.50 0.45 -0.10 0.55 0 0.25 0.25 -0.25 0.25 -0.60 0.55 -0.75 0.70 -0.15 0.20 -1.15 -0.55 -2.25 -1.60z"/>
  <path d="M8.55 16.70 c-0.30 -1.05 -0.35 -2.10 -0.10 -2.35 0.20 -0.20 0.55 0.55 0.70 1.75 0.35 2.75 0.05 3.05 -0.60 0.60z"/>
  <path d="M12 17.55 c0 -0.75 1.90 -2.80 2.25 -2.45 0.20 0.20 -0.05 0.90 -0.60 1.60 -0.90 1.30 -1.65 1.65 -1.65 0.85z"/>
  <path d="M32.85 16.40 c-0.20 -0.65 0 -1.45 0.40 -1.90 0.40 -0.45 0.75 -1.20 0.75 -1.65 0 -0.45 0.25 -0.85 0.50 -0.85 0.85 0 0.55 2.40 -0.35 2.95 -0.70 0.35 -0.75 0.60 -0.25 1.15 0.30 0.40 0.45 0.90 0.25 1.05 -0.60 0.60 -1.05 0.35 -1.30 -0.75z"/>
  <path d="M4.50 15.60 c0 -0.25 0.45 -0.60 1.05 -0.75 0.65 -0.15 0.95 -0.05 0.80 0.30 -0.25 0.75 -1.85 1.10 -1.85 0.45z"/>
  <path d="M3.50 13.70 c2.25 -0.85 3.70 -1.20 3.20 -0.70 -0.25 0.25 -1.25 0.60 -2.20 0.75 -0.95 0.15 -1.40 0.15 -1 -0.05z"/>
  <path d="M3.20 12.20 c0.15 -0.45 0.30 -0.90 0.30 -1 0 -0.10 0.35 -0.20 0.75 -0.20 0.90 0 0.95 0.60 0.15 1.40 -0.85 0.85 -1.55 0.75 -1.20 -0.20z"/>
  <path d="M5.60 11.40 c0.30 -0.90 1.40 -1.05 1.40 -0.20 0 0.45 -0.35 0.80 -0.80 0.80 -0.45 0 -0.70 -0.25 -0.60 -0.60z"/>
  <path d="M5.20 10.10 c-0.30 -0.20 -0.65 -0.75 -0.85 -1.20 -0.15 -0.50 -0.65 -0.90 -1.10 -0.90 -0.40 0 -0.75 -0.35 -0.75 -0.75 0 -1 0.60 -0.95 2.70 0.30 1.50 0.90 1.70 1.20 1.30 2 -0.60 1.10 -0.55 1.05 -1.30 0.55z"/>
  <path d="M34.65 8.65 c-1.15 -0.40 -0.70 -1.20 1.10 -1.95 0.95 -0.35 1.80 -0.70 1.85 -0.70 0.10 0 0.15 0.60 0.15 1.40 0 1.10 -0.25 1.35 -1.25 1.40 -0.70 0 -1.55 -0.05 -1.85 -0.15z"/>
  <path d="M6.10 4.40 c-0.60 -1.40 -1.05 -2.65 -0.95 -2.70 0.15 -0.20 3.35 4.60 3.35 5 0 0.15 -0.30 0.30 -0.65 0.30 -0.35 0 -1.15 -1.15 -1.75 -2.60z"/>
  <path d="M4.10 5.15 c0 -0.50 -0.15 -1.35 -0.35 -1.90 -0.25 -0.75 -0.05 -0.65 0.95 0.40 1.55 1.70 1.65 2.35 0.35 2.35 -0.60 0 -0.95 -0.35 -0.95 -0.85z"/>
 </g>
 <g fill="#26bdbc">
  <path d="M8.25 22.70 c0.80 -0.60 0.90 -0.90 0.35 -1.70 -0.90 -1.50 -0.80 -2.15 0.35 -1.50 1.30 0.70 1.70 0.65 1.40 -0.15 -0.20 -0.50 0.10 -0.65 1.05 -0.45 1 0.20 1.20 0.10 0.95 -0.60 -0.20 -0.45 -0.10 -0.80 0.15 -0.80 0.30 0 0.50 0.45 0.50 1 0 0.70 0.35 1 1.05 1 0.60 0 0.95 0.25 0.80 0.65 -0.10 0.35 -0.85 0.55 -1.75 0.45 -1.30 -0.15 -1.70 0.10 -2.15 1.10 -0.30 0.65 -1.05 1.35 -1.65 1.50 -1.75 0.45 -2.10 0.30 -1.05 -0.50z"/>
  <path d="M11.60 22.20 c0.10 -0.55 0.55 -1 1.10 -1.10 0.65 -0.15 0.85 0.05 0.70 0.70 -0.10 0.55 -0.55 1 -1.10 1.10 -0.65 0.15 -0.85 -0.05 -0.70 -0.70z"/>
 </g>
 <g fill="#9e8b93">
  <path d="M18.50 39.85 c0 -0.70 1 -2.35 1.45 -2.35 0.25 0 0.55 0.55 0.65 1.25 0.20 1.05 0.15 1.15 -0.45 0.65 -0.55 -0.45 -0.80 -0.45 -1.20 0.15 -0.25 0.40 -0.45 0.50 -0.45 0.30z"/>
  <path d="M7.50 35.45 c0 -1.05 1.40 -3.20 2.15 -3.25 0.95 -0.10 1.10 0.65 0.35 1.80 -0.40 0.60 -0.50 0.60 -0.50 -0.25 0 -0.85 -0.15 -0.75 -1 0.50 -0.55 0.85 -1 1.35 -1 1.20z"/>
  <path d="M27.25 33 c-0.90 -1 -0.80 -1.90 0.15 -1.30 0.40 0.25 1.20 2.30 0.90 2.30 -0.10 0 -0.55 -0.45 -1.05 -1z"/>
  <path d="M20.30 31.70 c-0.30 -1.20 -0.10 -2.20 0.40 -1.65 0.45 0.55 0.75 2.95 0.35 2.95 -0.25 0 -0.60 -0.60 -0.75 -1.30z"/>
  <path d="M24 31.75 c0 -0.30 0.25 -0.80 0.50 -1.05 0.35 -0.35 0.20 -0.95 -0.55 -1.90 -0.60 -0.75 -0.95 -1.45 -0.85 -1.60 0.45 -0.40 1.80 1.55 2.30 3.40 0.45 1.65 0.40 1.80 -0.45 1.75 -0.50 -0.05 -0.95 -0.30 -0.95 -0.60z"/>
  <path d="M3.15 29.75 c-0.90 -1 -0.80 -1.10 0.60 -1.10 0.70 0 1.60 -0.45 2 -0.95 0.85 -1.10 1 -0.55 0.20 0.85 -0.25 0.55 -0.70 0.85 -1 0.70 -0.25 -0.20 -0.45 0.05 -0.45 0.45 0 1 -0.55 1 -1.35 0.05z"/>
  <path d="M7.50 27.70 c0 -0.50 1.40 -1.70 2.05 -1.70 0.40 0 0.25 0.35 -0.30 1 -0.85 0.95 -1.75 1.30 -1.75 0.70z"/>
  <path d="M26.20 26.25 c-0.65 -1.25 -0.75 -1.90 -0.40 -2.25 0.40 -0.40 0.70 0.05 1.10 1.60 0.70 2.70 0.50 2.85 -0.70 0.65z"/>
  <path d="M24.35 23.70 c-0.55 -0.55 0.15 -1.20 1.20 -1.20 0.90 0 0.95 0.10 0.25 0.75 -0.80 0.85 -1 0.90 -1.45 0.45z"/>
  <path d="M20 23.25 c0 -0.25 2.50 -1.60 4.35 -2.30 1.20 -0.45 1.30 -0.40 0.65 0.20 -0.80 0.75 -5 2.50 -5 2.10z"/>
  <path d="M27.65 22.20 c-0.90 -0.90 1.40 -4.45 2.30 -3.55 0.80 0.80 0.70 1.35 -0.20 1.05 -0.70 -0.30 -1 0.50 -0.80 2.15 0.10 0.90 -0.65 1.10 -1.30 0.35z"/>
  <path d="M35.75 21.50 c-0.75 -0.85 -0.80 -1 -0.15 -1 0.45 0 0.90 0.45 1.05 1 0.15 0.55 0.20 1 0.15 1 -0.10 0 -0.55 -0.45 -1.05 -1z"/>
  <path d="M5.30 21.10 c-0.15 -0.30 -0.05 -0.70 0.25 -0.85 0.75 -0.50 1.25 0.15 0.60 0.80 -0.35 0.35 -0.65 0.35 -0.85 0.05z"/>
  <path d="M10.60 19.50 c-0.45 -0.90 -0.45 -1.05 0 -0.60 0.35 0.35 0.85 0.40 1.45 0.10 1.15 -0.65 2.45 -0.10 2.45 0.95 0 1.45 -3.20 1.10 -3.90 -0.45z"/>
  <path d="M32.25 19.25 c-0.80 -0.65 -1.30 -1.20 -1.10 -1.25 0.20 0 0.85 0.45 1.45 1 0.60 0.50 1.30 0.85 1.55 0.65 0.30 -0.15 0.35 -0.05 0.15 0.25 -0.45 0.75 -0.30 0.80 -2.05 -0.65z"/>
  <path d="M8.60 16.75 c-0.35 -1.20 -0.40 -2.15 -0.10 -2.45 0.25 -0.25 0.55 0.30 0.75 1.35 0.50 2.60 0 3.45 -0.65 1.10z"/>
  <path d="M5.20 15.25 c1.05 -0.80 1.60 -0.65 1.05 0.20 -0.15 0.30 -0.70 0.55 -1.15 0.55 -0.75 -0.05 -0.75 -0.10 0.10 -0.75z"/>
  <path d="M33.15 14.70 c0.45 -0.55 0.85 -1.30 0.85 -1.60 0 -0.35 0.25 -0.60 0.55 -0.60 0.95 0 0.25 1.60 -1.05 2.40 -1.25 0.80 -1.25 0.80 -0.35 -0.20z"/>
  <path d="M4.25 13.50 c0.55 -0.25 1.35 -0.45 1.75 -0.45 0.45 0 0.40 0.20 -0.25 0.45 -0.55 0.25 -1.35 0.45 -1.75 0.45 -0.45 0 -0.40 -0.20 0.25 -0.45z"/>
  <path d="M31 13.65 c0.05 -0.20 0.35 -0.95 0.75 -1.65 l0.75 -1.25 -0.15 1.45 c-0.10 0.85 -0.45 1.60 -0.75 1.70 -0.35 0.10 -0.60 0 -0.60 -0.25z"/>
  <path d="M36.20 10.75 c0.55 -0.40 1.35 -0.75 1.75 -0.75 0.45 0 0.15 0.35 -0.65 0.75 -1.80 0.95 -2.35 0.95 -1.10 0z"/>
  <path d="M37 7.95 c-0.55 -0.95 -0.65 -0.95 -1.45 -0.25 -1 0.95 -1.55 1 -1.55 0.25 0 -0.40 2.85 -1.95 3.60 -1.95 0.10 0 0.15 0.70 0.15 1.50 0 1.80 -0.05 1.80 -0.75 0.45z"/>
  <path d="M2.80 7.25 c0.25 -0.65 0.45 -0.65 1.15 -0.15 0.45 0.35 0.90 0.70 1 0.75 0.10 0.10 -0.40 0.15 -1.10 0.15 -1 0 -1.25 -0.20 -1.05 -0.75z"/>
  <path d="M7.95 7.10 c-0.50 -0.10 -0.95 -0.60 -1.10 -1.15 -0.30 -1.10 0.05 -1.20 1.35 -0.20 1.05 0.80 0.90 1.60 -0.25 1.35z"/>
  <path d="M4.30 5.55 c-0.20 -0.30 -0.10 -0.55 0.25 -0.55 0.40 0 0.40 -0.20 -0.05 -0.75 -0.35 -0.45 -0.50 -0.90 -0.35 -1.05 0.15 -0.15 0.55 0.20 0.85 0.80 0.65 1.15 -0.05 2.60 -0.70 1.55z"/>
 </g>
 <g fill="#bd8793">
  <path d="M20.95 35.30 c0.45 -0.55 0.50 -1 0.05 -1.75 -0.30 -0.60 -0.35 -1.05 -0.05 -1.05 0.55 0 1.20 2.35 0.80 3 -0.20 0.30 -0.55 0.50 -0.85 0.50 -0.35 0 -0.30 -0.25 0.05 -0.70z"/>
  <path d="M8 34 c0 -1.05 0.60 -1.75 1.65 -1.80 0.95 -0.10 1 0.10 0.35 1.55 -0.40 0.95 -0.45 0.95 -0.45 0.05 -0.05 -1 -0.05 -1 -0.80 0 -0.55 0.70 -0.70 0.75 -0.75 0.20z"/>
  <path d="M27.35 33.10 c-0.95 -1 -1.10 -1.60 -0.45 -1.60 0.25 0 0.70 0.55 1 1.25 0.70 1.50 0.55 1.55 -0.55 0.35z"/>
  <path d="M23.50 32.75 c0 -1.05 0.85 -2.25 1.60 -2.25 0.20 0 0.40 0.45 0.40 1.05 0 0.55 -0.20 0.90 -0.45 0.70 -0.30 -0.15 -0.70 0.15 -1 0.60 -0.50 0.85 -0.50 0.80 -0.55 -0.10z"/>
  <path d="M3.25 31 c0.30 -1.45 -0.40 -2.20 -0.90 -0.85 -0.10 0.30 -0.35 0.45 -0.55 0.30 -0.45 -0.45 0.20 -1.95 0.90 -1.95 1.30 0.05 1.80 0.85 1.50 2.40 -0.20 0.90 -0.55 1.60 -0.80 1.60 -0.25 0 -0.35 -0.65 -0.15 -1.50z"/>
  <path d="M7.50 31.90 c0 -0.20 0.60 -1.20 1.30 -2.25 1 -1.45 1.25 -1.60 0.95 -0.65 -0.35 1.15 -2.25 3.60 -2.25 2.90z"/>
  <path d="M5 29.20 c0 -0.25 0.35 -0.95 0.75 -1.50 0.40 -0.50 0.75 -0.70 0.75 -0.40 0 0.25 -0.35 0.95 -0.75 1.50 -0.40 0.50 -0.75 0.70 -0.75 0.40z"/>
  <path d="M23.50 28.25 c-0.65 -0.70 -1.45 -1.25 -1.85 -1.25 -0.35 0 -0.65 -0.20 -0.65 -0.50 0 -0.25 0.10 -0.50 0.25 -0.50 0.65 0 2.85 1.70 3.30 2.55 0.65 1.30 0.35 1.20 -1.05 -0.30z"/>
  <path d="M7.90 27.20 c0.30 -0.15 0.60 -0.60 0.60 -1 0 -0.40 0.25 -0.70 0.55 -0.70 0.95 0 0.20 1.75 -0.80 1.85 -0.55 0.10 -0.70 0 -0.35 -0.15z"/>
  <path d="M7.35 24 c0.15 -0.55 0.70 -1.25 1.25 -1.55 0.50 -0.25 0.80 -0.70 0.65 -1 -0.20 -0.25 0.20 -0.45 0.75 -0.45 0.80 0 1 0.20 0.80 0.80 -0.15 0.45 -0.30 0.90 -0.30 1 0 0.10 -0.35 0.20 -0.75 0.20 -0.40 0 -1 0.45 -1.35 1 -0.80 1.30 -1.40 1.30 -1.05 0z"/>
  <path d="M13.10 20.40 c-0.35 -0.35 -0.60 -1.10 -0.60 -1.75 l0 -1.10 1.30 1.20 c0.70 0.65 1.15 1.45 0.95 1.70 -0.40 0.70 -0.90 0.70 -1.65 -0.05z"/>
  <path d="M21.50 17 c0 -1.10 -0.60 -2.05 -2.25 -3.70 -2.45 -2.45 -2.70 -3.30 -1.40 -4.35 0.75 -0.65 0.80 -0.55 0.45 0.75 -0.30 1.20 -0.10 1.65 1.35 3 0.95 0.85 2 2.05 2.30 2.65 0.70 1.35 0.70 3.15 0.05 3.15 -0.25 0 -0.50 -0.65 -0.50 -1.50z"/>
  <path d="M8.85 17.65 c-0.15 -0.25 -0.05 -0.85 0.20 -1.40 0.35 -0.85 0.40 -0.85 0.40 0.40 0.05 1.35 -0.20 1.70 -0.60 1z"/>
  <path d="M28.55 15.95 c0 -0.75 0.35 -1.65 0.85 -2 0.75 -0.60 0.80 -0.60 0.25 0.05 -0.30 0.40 -0.65 1.30 -0.80 2 l-0.20 1.25 -0.10 -1.30z"/>
  <path d="M1.25 14 c0.15 -0.25 1.15 -0.50 2.15 -0.45 1.65 0.05 1.70 0.10 0.60 0.45 -1.80 0.60 -3.10 0.60 -2.75 0z"/>
  <path d="M8.60 8.80 c0.20 -0.90 0.05 -1.45 -0.45 -1.65 -0.65 -0.25 -2.20 -2.85 -3.15 -5.45 -0.80 -2.05 0.30 -0.90 1.60 1.65 0.65 1.25 1.55 2.40 2.05 2.55 1 0.25 1.20 3.30 0.30 3.90 -0.40 0.25 -0.50 -0.05 -0.35 -1z"/>
 </g>
 <g fill="#aea0a5">
  <path d="M8.10 33.50 c0.45 -1.30 0.65 -1.50 0.80 -0.80 0.10 0.50 -0.15 1.30 -0.60 1.75 -0.75 0.75 -0.80 0.65 -0.20 -0.95z"/>
  <path d="M27 32.55 c-0.30 -0.60 -0.35 -1.05 -0.05 -1.05 0.50 0 1.20 1.50 0.85 1.85 -0.10 0.15 -0.45 -0.25 -0.80 -0.80z"/>
  <path d="M7.50 31.25 c0.35 -0.40 0.85 -0.75 1.10 -0.75 0.30 0 0.25 0.35 -0.10 0.75 -0.35 0.40 -0.85 0.75 -1.10 0.75 -0.30 0 -0.25 -0.35 0.10 -0.75z"/>
  <path d="M1.50 30.50 c0 -1.30 0.75 -1.95 1.90 -1.65 1.15 0.30 1.50 1.35 0.60 1.90 -0.25 0.15 -0.50 -0.05 -0.50 -0.45 0 -1.05 -0.50 -1 -1.30 0.10 -0.55 0.70 -0.65 0.70 -0.70 0.10z"/>
  <path d="M8.35 26.50 c0.20 -0.70 0 -1 -0.55 -1 -0.45 0 -0.80 -0.10 -0.80 -0.20 0 -0.65 0.65 -1.80 1.05 -1.80 0.20 0 0.30 0.35 0.15 0.75 -0.25 0.55 0.10 0.75 1.35 0.75 l1.60 0 -1.15 1.25 c-1.40 1.50 -2 1.60 -1.65 0.25z"/>
  <path d="M26 25.75 c-0.50 -0.90 -0.55 -1.40 -0.15 -1.80 0.40 -0.40 0.65 -0.10 0.90 1.05 0.45 2 0.10 2.35 -0.75 0.75z"/>
  <path d="M22.50 25 c0 -0.25 0.35 -0.50 0.75 -0.50 0.40 0 0.75 0.25 0.75 0.50 0 0.30 -0.35 0.50 -0.75 0.50 -0.40 0 -0.75 -0.20 -0.75 -0.50z"/>
  <path d="M2 23.50 c0.40 -0.25 1.10 -0.50 1.50 -0.50 0.65 0 0.65 0.05 0 0.50 -0.40 0.25 -1.10 0.50 -1.50 0.50 -0.65 0 -0.65 -0.05 0 -0.50z"/>
  <path d="M24.50 23.30 c0 -0.50 0.40 -0.80 1.10 -0.80 0.60 0 0.95 0.05 0.85 0.15 -0.10 0.05 -0.60 0.45 -1.05 0.80 -0.75 0.60 -0.90 0.55 -0.90 -0.15z"/>
  <path d="M9.10 21.45 c-0.05 -1.20 0.10 -1.40 0.65 -0.95 0.95 0.80 1.50 -0.30 0.65 -1.40 -0.55 -0.75 -0.55 -0.75 0.10 -0.25 0.95 0.70 2.15 0.10 1.80 -0.90 -0.30 -0.75 1 -2.80 1.50 -2.35 0.15 0.15 -0.05 0.80 -0.40 1.40 -0.60 0.95 -0.50 1.20 0.55 2.05 0.90 0.75 1.05 1.15 0.65 1.55 -0.40 0.40 -0.75 0.40 -1.30 -0.10 -0.65 -0.50 -1 -0.35 -2.15 0.95 -1.70 1.95 -2 1.95 -2.05 0z"/>
  <path d="M11.80 22.55 c-0.15 -0.25 0.05 -0.70 0.40 -1 0.90 -0.75 1.40 0 0.50 0.80 -0.35 0.35 -0.75 0.45 -0.90 0.20z"/>
  <path d="M28.15 22.35 c0.20 -0.55 0.05 -0.85 -0.45 -0.85 -0.55 0 -0.50 -0.35 0.40 -1.50 1.10 -1.55 1.90 -1.70 2.30 -0.50 0.15 0.40 0 0.50 -0.40 0.25 -0.75 -0.50 -1.55 0.70 -1.20 1.85 0.10 0.45 -0.05 1 -0.35 1.20 -0.45 0.25 -0.50 0.10 -0.30 -0.45z"/>
  <path d="M22.50 22 c0 -0.20 0.45 -0.50 1 -0.65 0.55 -0.15 1 -0.10 1 0.15 0 0.20 -0.45 0.50 -1 0.65 -0.55 0.15 -1 0.10 -1 -0.15z"/>
  <path d="M30.30 21.05 c0.50 -0.50 1.05 -0.70 1.15 -0.40 0.20 0.50 -0.85 1.35 -1.65 1.35 -0.25 0 -0.05 -0.40 0.50 -0.95z"/>
  <path d="M15.50 19.60 c0 -0.25 0.45 -0.85 1 -1.35 0.80 -0.70 1 -0.75 1 -0.20 0 0.80 -0.95 1.95 -1.60 1.95 -0.20 0 -0.40 -0.20 -0.40 -0.40z"/>
  <path d="M32.85 16 c-0.15 -0.50 0.05 -1.20 0.45 -1.55 0.40 -0.30 0.70 -0.95 0.70 -1.35 0 -0.60 0.15 -0.65 0.60 -0.20 0.45 0.45 0.35 0.80 -0.35 1.60 -0.70 0.80 -0.75 1.10 -0.25 1.75 0.50 0.60 0.50 0.75 -0.15 0.75 -0.40 0 -0.85 -0.45 -1 -1z"/>
  <path d="M4.75 15.50 c0.15 -0.25 0.65 -0.50 1.05 -0.50 0.40 0 0.60 0.25 0.45 0.50 -0.15 0.30 -0.65 0.50 -1.05 0.50 -0.40 0 -0.60 -0.20 -0.45 -0.50z"/>
  <path d="M3 12.60 c0 -0.55 1.10 -1.60 1.60 -1.60 0.25 0 0.20 0.45 -0.10 1 -0.55 1 -1.50 1.40 -1.50 0.60z"/>
  <path d="M5 9.30 c0 -0.45 0.35 -0.80 0.80 -0.80 0.85 0 0.70 1.10 -0.20 1.40 -0.35 0.10 -0.60 -0.15 -0.60 -0.60z"/>
  <path d="M34.10 7.95 c0.10 -0.35 0.50 -0.75 0.85 -0.85 0.40 -0.15 0.60 0.05 0.45 0.45 -0.10 0.35 -0.50 0.75 -0.85 0.85 -0.40 0.15 -0.60 -0.05 -0.45 -0.45z"/>
  <path d="M3 7.20 c0 -0.70 0.15 -0.75 0.90 -0.15 0.45 0.35 0.95 0.75 1.05 0.80 0.10 0.10 -0.25 0.15 -0.85 0.15 -0.70 0 -1.10 -0.30 -1.10 -0.80z"/>
  <path d="M36.50 7 c0 -0.25 0.45 -0.70 1 -1 0.95 -0.50 1 -0.50 0.40 0.45 -0.65 1.10 -1.40 1.40 -1.40 0.55z"/>
  <path d="M6.80 5.55 c-1.20 -2.25 -1.85 -4.15 -1.40 -3.85 0.70 0.40 2.80 4.80 2.45 5.10 -0.15 0.15 -0.65 -0.40 -1.05 -1.25z"/>
 </g>
 <g fill="#3ef2f0">
  <path d="M8.85 22.40 c0.20 -0.35 0.30 -1.10 0.20 -1.65 -0.10 -0.80 -0.05 -0.85 0.60 -0.35 0.80 0.65 1.65 0 1.15 -0.80 -0.25 -0.40 2.20 -0.25 3.65 0.20 0.55 0.15 0.55 0.40 0.15 0.80 -0.40 0.40 -0.75 0.40 -1.40 -0.15 -0.75 -0.60 -1 -0.50 -2.20 0.95 -1.25 1.55 -3 2.30 -2.15 1z"/>
  <path d="M11.80 22.60 c-0.15 -0.30 0.05 -0.75 0.40 -1.05 0.40 -0.35 0.85 -0.40 1 -0.15 0.15 0.30 -0.05 0.75 -0.40 1.05 -0.40 0.35 -0.85 0.40 -1 0.15z"/>
 </g>
 <g fill="#d3a2b0">
  <path d="M18.50 39.60 c0 -0.80 1.40 -2.35 1.80 -1.95 0.20 0.20 -0.10 0.80 -0.70 1.35 -0.60 0.60 -1.10 0.85 -1.10 0.60z"/>
  <path d="M20.50 36.05 c0 -0.25 0.35 -0.70 0.75 -1.05 0.80 -0.70 0.90 -0.50 0.45 0.70 -0.30 0.85 -1.20 1.10 -1.20 0.35z"/>
  <path d="M20.60 32.30 c-0.30 -1.10 -0.50 -2.05 -0.40 -2.15 0.35 -0.35 1.40 2.80 1.15 3.45 -0.10 0.35 -0.45 -0.25 -0.75 -1.30z"/>
  <path d="M27.65 33.40 c-1 -1.30 -1.30 -2.05 -0.75 -1.70 0.60 0.35 1.80 2.30 1.45 2.30 -0.15 0 -0.45 -0.30 -0.70 -0.60z"/>
  <path d="M23 33.05 c0 -0.20 0.45 -1 1 -1.70 1 -1.25 1 -1.25 -0.05 -2.55 -0.65 -0.85 -0.75 -1.20 -0.30 -1 0.70 0.25 1.85 2.25 1.85 3.20 0 0.50 -1.80 2.50 -2.25 2.50 -0.15 0 -0.25 -0.20 -0.25 -0.45z"/>
  <path d="M1.30 30.90 c0.40 -1.30 1.25 -2.50 1.55 -2.20 0.25 0.25 -1.25 3.30 -1.65 3.30 -0.15 0 -0.10 -0.50 0.10 -1.10z"/>
  <path d="M3.20 31.20 c0.15 -0.45 0.30 -1.15 0.30 -1.60 0 -0.50 0.15 -0.65 0.50 -0.30 0.55 0.55 0.10 2.70 -0.60 2.70 -0.30 0 -0.35 -0.35 -0.20 -0.80z"/>
  <path d="M7.50 31.65 c0 -0.25 0.45 -0.90 1 -1.40 0.55 -0.50 1 -0.70 1 -0.40 0 0.25 -0.45 0.90 -1 1.40 -0.55 0.50 -1 0.70 -1 0.40z"/>
  <path d="M7.90 25.65 c-0.50 -0.10 -0.90 -0.45 -0.90 -0.70 0 -0.75 3.40 -4.25 3.75 -3.85 0.20 0.20 -0.35 1 -1.25 1.85 -1.60 1.45 -1.70 2.80 -0.15 2.20 0.55 -0.20 0.70 -0.15 0.45 0.25 -0.35 0.60 -0.45 0.65 -1.90 0.25z"/>
  <path d="M21.50 22.30 c1.40 -0.85 2.50 -1.05 1.75 -0.35 -0.30 0.25 -1.05 0.60 -1.75 0.75 l-1.25 0.35 1.25 -0.75z"/>
  <path d="M30 21.70 c0 -0.15 0.35 -0.60 0.75 -1 0.65 -0.65 0.75 -0.65 0.75 -0.05 0 0.40 -0.35 0.85 -0.75 1.05 -0.40 0.15 -0.75 0.15 -0.75 0z"/>
  <path d="M13.25 20.50 c-0.20 -0.30 -0.75 -0.40 -1.30 -0.25 -1.20 0.40 -1.25 -0.55 -0.10 -1.20 0.50 -0.25 0.75 -0.65 0.55 -0.85 -0.50 -0.45 0.90 -3 1.85 -3.35 1.05 -0.45 0.95 0.35 -0.25 1.40 -1.30 1.15 -1.25 2 0.05 2.95 0.60 0.40 0.90 0.95 0.70 1.25 -0.40 0.70 -1.10 0.70 -1.50 0.05z"/>
  <path d="M16.35 18.50 c0.80 -1.40 1.65 -1.95 1.65 -1.10 0 0.65 -1.55 2.60 -2.05 2.60 -0.30 0 -0.10 -0.65 0.40 -1.50z"/>
  <path d="M21.75 18 c-0.15 -0.25 -0.15 -0.70 0 -1 0.15 -0.25 -0.10 -1.10 -0.55 -1.85 l-0.80 -1.40 1.05 1.20 c0.60 0.65 1.05 1.70 1.05 2.35 0 1.30 -0.25 1.50 -0.75 0.70z"/>
  <path d="M1.25 14 c0.15 -0.25 0.65 -0.50 1.05 -0.50 0.40 0 0.60 0.25 0.45 0.50 -0.15 0.30 -0.65 0.50 -1.05 0.50 -0.40 0 -0.60 -0.20 -0.45 -0.50z"/>
  <path d="M18.10 12.40 c-0.95 -1.25 -1.15 -2.75 -0.35 -3.40 0.65 -0.55 0.70 -0.40 0.45 0.95 -0.25 1.15 -0.10 1.60 0.50 1.85 0.45 0.15 0.80 0.50 0.80 0.75 0 0.65 -0.80 0.55 -1.40 -0.15z"/>
  <path d="M7.35 6.70 c-0.20 -0.20 -0.35 -0.70 -0.35 -1.15 0 -0.55 0.15 -0.60 0.55 -0.20 0.30 0.30 0.50 0.80 0.35 1.15 -0.10 0.30 -0.35 0.40 -0.55 0.20z"/>
  <path d="M5.35 2.65 c-0.10 -0.50 -0.40 -1.35 -0.60 -1.90 l-0.35 -1 0.70 1 c1 1.35 1.45 2.75 0.95 2.75 -0.25 0 -0.55 -0.40 -0.70 -0.85z"/>
 </g>
 <g fill="#cbbcc1">
  <path d="M18.50 39.65 c0 -0.75 1.45 -2.45 1.50 -1.75 0 0.35 -0.35 1 -0.75 1.40 -0.40 0.45 -0.75 0.55 -0.75 0.35z"/>
  <path d="M23 33.20 c0 -0.15 0.20 -0.65 0.50 -1.15 0.65 -1.25 2 -1.75 2 -0.80 0 0.40 -0.35 0.75 -0.75 0.75 -0.40 0 -0.75 0.35 -0.75 0.75 0 0.40 -0.20 0.75 -0.50 0.75 -0.25 0 -0.50 -0.15 -0.50 -0.30z"/>
  <path d="M3.05 31.90 c0.05 -0.35 0.25 -1.20 0.45 -1.90 0.40 -1.20 0.40 -1.20 0.45 0.35 0.05 0.85 -0.15 1.75 -0.45 1.90 -0.25 0.15 -0.50 0 -0.45 -0.35z"/>
  <path d="M8.50 26.70 c0.55 -0.65 0.50 -0.80 -0.40 -1.05 -0.60 -0.15 -1.10 -0.45 -1.10 -0.70 0 -0.60 0.85 -0.55 1.25 0.05 0.20 0.30 0.55 0.40 0.80 0.25 0.25 -0.20 0.65 -0.20 0.95 0 0.50 0.30 -0.90 2.25 -1.65 2.25 -0.25 0 -0.20 -0.35 0.15 -0.80z"/>
  <path d="M26.25 26 c-0.45 -0.80 -0.55 -1.50 -0.30 -1.50 0.25 0 0.70 0.70 1 1.50 0.25 0.85 0.40 1.50 0.30 1.50 -0.15 0 -0.55 -0.65 -1 -1.50z"/>
  <path d="M9.50 22.05 c0 -0.25 0.35 -0.70 0.75 -1.05 0.45 -0.35 0.65 -1 0.50 -1.45 -0.15 -0.40 -0.15 -0.60 0 -0.45 0.20 0.20 0.85 0.15 1.45 -0.05 0.70 -0.30 1.25 -0.20 1.70 0.25 1.20 1.30 0.45 2.35 -0.85 1.10 -0.50 -0.55 -0.85 -0.40 -1.80 0.75 -1.25 1.40 -1.75 1.65 -1.75 0.90z"/>
  <path d="M16.85 17.50 c0.40 -1.45 1.25 -1.85 1.05 -0.45 -0.05 0.60 -0.40 1.20 -0.75 1.30 -0.35 0.15 -0.45 -0.15 -0.30 -0.85z"/>
  <path d="M12.75 16.50 c0.45 -0.80 1.10 -1.50 1.55 -1.50 0.60 0 0.55 0.30 -0.40 1.45 -1.50 1.95 -2.15 1.95 -1.15 0.05z"/>
  <path d="M33 15.15 c0 -0.25 0.45 -0.90 1 -1.40 0.55 -0.50 1 -0.70 1 -0.40 0 0.25 -0.45 0.90 -1 1.40 -0.55 0.50 -1 0.70 -1 0.40z"/>
  <path d="M6.75 5.25 c-1.60 -3.45 -1.70 -3.75 -1.55 -3.75 0.45 0 2.80 4.70 2.65 5.20 -0.10 0.30 -0.60 -0.35 -1.10 -1.45z"/>
 </g>
 <g fill="#99ebec">
  <path d="M9.20 22.10 c1.05 -1.10 1.80 -2.20 1.65 -2.45 -0.15 -0.20 0.30 -0.45 0.95 -0.45 1.45 -0.10 1.60 0.60 0.25 1.05 -0.55 0.15 -1.10 0.70 -1.25 1.15 -0.15 0.45 -1.05 1.25 -1.90 1.75 l-1.65 0.95 1.95 -2z"/>
 </g>
 <g fill="#f0c1cf">
  <path d="M20.80 32.80 c-0.15 -0.65 -0.45 -1.55 -0.60 -2 -0.15 -0.45 -0.10 -0.80 0.20 -0.80 0.25 0 0.65 0.80 0.85 1.80 0.35 2.05 0.05 2.90 -0.45 1z"/>
  <path d="M23 33.10 c0 -0.45 1.90 -2.60 2.25 -2.60 0.15 0 0.25 0.35 0.25 0.75 0 0.40 -0.35 0.75 -0.75 0.75 -0.40 0 -0.75 0.35 -0.75 0.75 0 0.40 -0.20 0.75 -0.50 0.75 -0.25 0 -0.50 -0.20 -0.50 -0.40z"/>
  <path d="M7.75 31 c0.50 -0.55 1 -0.90 1.15 -0.75 0.35 0.30 -0.90 1.75 -1.55 1.75 -0.25 0 -0.10 -0.45 0.40 -1z"/>
  <path d="M1.50 30.40 c0 -0.45 0.35 -1.10 0.85 -1.45 0.75 -0.65 0.75 -0.60 0.15 0.55 -0.85 1.70 -1 1.80 -1 0.90z"/>
  <path d="M7.50 23.75 c0 -0.10 0.70 -0.65 1.50 -1.25 0.85 -0.60 1.50 -0.90 1.50 -0.65 0 0.20 -0.70 0.80 -1.50 1.25 -0.85 0.45 -1.50 0.75 -1.50 0.65z"/>
  <path d="M22.25 22 c0.15 -0.25 0.80 -0.50 1.40 -0.45 1.05 0 1.05 0.05 0.10 0.45 -1.40 0.60 -1.85 0.60 -1.50 0z"/>
  <path d="M13.50 20.45 c0 -0.30 -0.45 -0.45 -1 -0.30 -1.20 0.30 -1.30 -0.40 -0.15 -1.05 0.55 -0.35 1.05 -0.30 1.50 0.15 0.75 0.80 0.85 1.75 0.15 1.75 -0.25 0 -0.50 -0.25 -0.50 -0.55z"/>
  <path d="M12.50 17 c0.30 -0.55 0.75 -1 1 -1 0.30 0 0.25 0.45 -0.10 1 -0.35 0.55 -0.80 1 -1.05 1 -0.20 0 -0.15 -0.45 0.15 -1z"/>
  <path d="M21.70 17.20 c0.15 -0.40 -0.05 -1.35 -0.50 -2.10 l-0.80 -1.35 1.05 1.25 c1.10 1.35 1.40 3 0.50 3 -0.30 0 -0.40 -0.35 -0.25 -0.80z"/>
  <path d="M17.85 12.10 c-0.90 -1 -1.10 -1.60 -0.45 -1.60 0.50 0.05 2.25 2.50 1.70 2.50 -0.25 0 -0.80 -0.40 -1.25 -0.90z"/>
 </g>
 <g fill="#ead8e1">
  <path d="M20.80 32.75 c-0.15 -0.45 -0.30 -1.20 -0.25 -1.65 0 -0.45 0.25 -0.20 0.50 0.60 0.45 1.60 0.30 2.40 -0.25 1.05z"/>
  <path d="M7.80 31.05 c0.50 -0.50 1.05 -0.85 1.15 -0.75 0.30 0.30 -1 1.70 -1.60 1.70 -0.30 0 -0.10 -0.40 0.45 -0.95z"/>
  <path d="M13.50 20.45 c0 -0.35 -0.50 -0.45 -1.35 -0.20 -1.35 0.30 -1.35 0.30 -0.50 -0.60 0.65 -0.65 1.05 -0.75 1.70 -0.35 1 0.65 1.45 1.70 0.70 1.70 -0.30 0 -0.55 -0.25 -0.55 -0.55z"/>
  <path d="M16 19.25 c0 -0.10 0.45 -0.95 1 -1.85 0.80 -1.30 1 -1.45 1 -0.65 -0.05 0.55 -0.35 1.40 -0.70 1.90 -0.60 0.80 -1.30 1.15 -1.30 0.60z"/>
  <path d="M12.50 17.40 c0.05 -0.95 1.35 -2.55 1.95 -2.35 0.25 0.10 -0.05 0.85 -0.75 1.60 -0.65 0.75 -1.20 1.10 -1.20 0.75z"/>
  <path d="M18.05 12.05 c-1.20 -0.90 -1.30 -2.55 -0.20 -2.90 0.35 -0.15 0.45 0.15 0.30 0.85 -0.15 0.60 0.10 1.45 0.60 2 1.10 1.25 0.85 1.25 -0.70 0.05z"/>
 </g>
 <g fill="#faf0f8">
  <path d="M23.05 33.25 c0 -0.75 1.25 -2.25 1.90 -2.25 0.30 0 0.55 0.25 0.55 0.50 0 0.30 -0.25 0.50 -0.55 0.50 -0.35 0 -0.90 0.40 -1.25 0.90 -0.35 0.45 -0.65 0.65 -0.65 0.35z"/>
  <path d="M16 19.20 c0 -0.25 0.45 -1 1 -1.70 0.70 -0.90 1 -1.05 1 -0.45 0 0.45 -0.45 1.20 -1 1.70 -0.55 0.50 -1 0.70 -1 0.45z"/>
  <path d="M12.50 17.15 c0 -0.60 1.90 -2.40 2.20 -2.10 0.15 0.10 -0.30 0.75 -1 1.40 -0.65 0.65 -1.20 0.95 -1.20 0.70z"/>
  <path d="M17.85 11.75 c-0.95 -0.70 -0.80 -2.75 0.20 -2.75 0.35 0 0.35 0.30 0 0.85 -0.35 0.65 -0.25 1.15 0.30 1.75 0.95 1.05 0.75 1.15 -0.50 0.15z"/>
 </g>
</svg>