<?xml version="1.0" encoding="utf-8"?>
<!DOCTYPE svg PUBLIC "-//W3C//DTD SVG 1.0//EN" "http://www.w3.org/TR/2001/REC-SVG-20010904/DTD/svg10.dtd">
<svg version="1.0" xmlns="http://www.w3.org/2000/svg" width="40px" height="40px" viewBox="0 0 40 40" preserveAspectRatio="xMidYMid meet">
 <g fill="#0c0a0f">
  <path d="M3 35.50 c0 -0.25 0.25 -0.50 0.50 -0.50 0.30 0 0.20 -0.50 -0.20 -1.10 -0.35 -0.65 -0.80 -1.90 -1 -2.75 -0.25 -1.50 -0.15 -1.65 0.95 -1.65 1.05 0 1.25 0.25 1.25 1.50 0 0.85 0.25 1.50 0.50 1.50 0.30 0 0.50 0.80 0.50 1.75 0 1.55 -0.15 1.75 -1.25 1.75 -0.70 0 -1.25 -0.20 -1.25 -0.50z"/>
  <path d="M6 34.25 c0 -1.20 0.25 -1.75 0.75 -1.75 0.40 0 0.75 -0.45 0.75 -1 0 -0.85 0.35 -1 2.25 -1 2.05 0 2.25 -0.10 2.55 -1.35 0.15 -0.80 0.35 -1.70 0.50 -2 0.10 -0.45 1.40 -0.65 4.15 -0.65 3.55 0 4 -0.10 4.30 -1 0.30 -0.90 0.75 -1 4.80 -1 3.25 0 4.45 0.15 4.45 0.65 0 0.30 -1.30 1.85 -2.90 3.35 -2.85 2.70 -2.85 2.70 -5.70 2.55 -2.70 -0.10 -2.90 -0.05 -2.90 0.95 0 0.75 -0.25 1 -0.75 0.80 -0.40 -0.15 -0.95 0.10 -1.20 0.60 -0.25 0.45 -1 0.85 -1.65 0.90 -5.70 0.20 -5.90 0.20 -5.90 0.95 0 0.50 -0.55 0.75 -1.75 0.75 -1.65 0 -1.75 -0.10 -1.75 -1.75z m11.75 -3.75 c-0.15 -0.25 -0.65 -0.50 -1.05 -0.50 -0.40 0 -0.60 0.25 -0.45 0.50 0.15 0.30 0.65 0.50 1.05 0.50 0.40 0 0.60 -0.20 0.45 -0.50z m8.35 -2.55 c0.80 -0.60 1.35 -1.15 1.25 -1.30 -0.35 -0.30 -4.35 1.40 -4.35 1.90 0 0.80 1.55 0.50 3.10 -0.60z"/>
  <path d="M2 27.50 c0 -0.60 -0.45 -1.50 -1 -2.10 -1.05 -1.15 -1.35 -2.40 -0.50 -2.40 0.25 0 0.45 -0.90 0.40 -2 -0.05 -1.80 0.70 -3.50 1.60 -3.50 0.25 0 0.35 1.15 0.35 2.50 -0.10 1.75 0.15 2.70 0.65 3 0.65 0.40 0.60 0.50 -0.10 0.50 -0.50 0 -0.90 0.35 -0.90 0.75 0 0.45 0.45 0.75 1.25 0.75 1.10 0 1.25 0.20 1.25 1.75 0 1.60 -0.10 1.75 -1.50 1.75 -1.20 0 -1.50 -0.20 -1.50 -1z"/>
  <path d="M13.50 21.50 c0 -1.65 -0.15 -2 -1 -2 -0.80 0 -1 -0.35 -1 -1.75 0 -1.65 0.10 -1.75 1.75 -1.75 1.40 0 1.75 0.20 1.75 1 0 0.80 0.35 1 1.50 1 1 0 1.50 -0.25 1.50 -0.75 0 -0.50 0.50 -0.75 1.50 -0.75 0.85 0 1.50 -0.20 1.50 -0.50 0 -0.25 1 -0.50 2.25 -0.50 2.25 0 2.25 0 2.25 1.75 0 1.40 -0.20 1.75 -0.95 1.75 -0.75 0 -1.05 0.40 -1.15 1.65 -0.15 1.45 -0.30 1.60 -2 1.75 -1.75 0.15 -1.90 0.05 -1.90 -1.10 0 -1.25 -1 -1.90 -1 -0.65 -0.05 1.30 -1.90 2.85 -3.45 2.85 -1.45 0 -1.55 -0.10 -1.55 -2z"/>
  <path d="M5.65 18.75 c-0.35 -0.40 -0.65 -1.40 -0.65 -2.25 0 -1.35 0.15 -1.50 1.55 -1.50 1.95 0 2.95 1 2.95 2.95 0 1.40 -0.15 1.55 -1.60 1.55 -0.90 -0.05 -1.95 -0.35 -2.25 -0.75z"/>
  <path d="M27.50 13.25 c0 -1.40 0.20 -1.75 1 -1.75 0.75 0 1 -0.35 1 -1.25 0 -1.10 0.20 -1.25 1.75 -1.25 1.65 0 1.75 0.10 1.75 1.75 0 1.40 -0.20 1.75 -1 1.75 -0.75 0 -1 0.35 -1 1.25 0 1.10 -0.20 1.25 -1.75 1.25 -1.65 0 -1.75 -0.10 -1.75 -1.75z"/>
  <path d="M5.50 12.40 c0 -0.65 0.30 -1.70 0.65 -2.40 0.40 -0.75 0.55 -1.70 0.30 -2.25 -0.75 -1.90 -0.50 -3.25 0.50 -3.25 0.75 0 1.05 0.50 1.30 2 0.20 1.10 0.55 2 0.80 2 0.50 0 0.60 3 0.15 4.20 -0.20 0.50 -0.90 0.80 -2 0.80 -1.45 0 -1.70 -0.20 -1.70 -1.10z"/>
  <path d="M25.50 6.75 c0 -0.50 -0.50 -0.75 -1.50 -0.75 -1.40 0 -1.50 -0.15 -1.50 -1.75 0 -1.55 0.15 -1.75 1.25 -1.75 0.80 0 1.25 -0.30 1.25 -0.75 0 -0.40 0.35 -0.75 0.75 -0.75 0.40 0 0.75 -0.20 0.75 -0.50 0 -0.25 0.90 -0.50 2 -0.50 1.95 0 2 0.05 2 1.75 0 1.10 -0.30 1.90 -0.75 2.05 -0.45 0.20 -0.75 0.95 -0.75 2 0 1.60 -0.10 1.70 -1.75 1.70 -1.20 0 -1.75 -0.25 -1.75 -0.75z"/>
  <path d="M33.50 5.75 c0 -1.65 0.10 -1.75 1.75 -1.75 1.65 0 1.75 0.10 1.75 1.75 0 1.65 -0.10 1.75 -1.75 1.75 -1.65 0 -1.75 -0.10 -1.75 -1.75z"/>
  <path d="M9.50 4.90 c0 -0.65 0.15 -2 0.30 -3 l0.35 -1.90 3.90 0 c3.60 0 3.95 0.10 3.95 1 0 0.75 -0.35 1 -1.25 1 -1.10 0 -1.25 0.20 -1.25 1.70 0 1.50 -0.20 1.70 -1.55 2 -3.20 0.60 -4.45 0.40 -4.45 -0.80z"/>
 </g>
 <g fill="#1e112a">
  <path d="M0 39.25 c0 -0.40 0.10 -0.75 0.20 -0.75 0.10 0 0.55 -0.15 1 -0.30 0.60 -0.20 0.80 0 0.80 0.75 0 0.70 -0.30 1.05 -1 1.05 -0.55 0 -1 -0.35 -1 -0.75z"/>
  <path d="M14.10 36.75 c0.15 -1.25 0.10 -2.25 -0.15 -2.25 -0.25 0 -0.45 0.90 -0.45 2 l0 2 -2.60 0 c-2.25 -0.05 -2.85 -0.25 -4.10 -1.50 -0.80 -0.85 -1.90 -1.50 -2.40 -1.50 -0.55 0 -0.80 -0.25 -0.65 -0.50 0.15 -0.30 -0.05 -0.90 -0.50 -1.35 -0.45 -0.45 -0.70 -1.20 -0.60 -1.70 0.15 -0.55 0.05 -1.10 -0.20 -1.25 -0.25 -0.15 -0.45 -1.25 -0.45 -2.50 0 -1.20 -0.25 -2.20 -0.50 -2.20 -0.35 0 -0.35 -0.30 0 -1 0.35 -0.65 1.05 -1 2.10 -1 l1.55 0 -0.35 -2.70 c-0.25 -2.15 -0.15 -2.75 0.45 -3 1.15 -0.40 0.95 -2.30 -0.25 -2.30 -0.55 0 -1 -0.35 -1 -0.75 0 -1.25 3.35 -7.95 4.50 -9 0.55 -0.50 1 -1.40 1 -2 0 -0.65 0.35 -1.25 0.75 -1.45 0.40 -0.15 0.75 -0.90 0.80 -1.65 0 -1.10 0.10 -1.20 0.40 -0.50 0.30 0.85 0.40 0.85 1 0.15 0.35 -0.45 1 -0.80 1.35 -0.80 1 0 0.85 2.35 -0.15 3 -0.65 0.40 -0.70 0.65 -0.25 0.80 0.85 0.40 0.75 2.15 -0.15 2.50 -0.40 0.20 -0.75 0.80 -0.75 1.40 0 1.15 -2.35 3.80 -3.40 3.80 -0.35 0 -0.60 0.65 -0.60 1.50 0 1.25 -0.20 1.50 -1.25 1.50 -0.70 0 -1.25 0.25 -1.25 0.50 0 0.30 1 0.50 2.25 0.50 1.75 0 2.25 0.20 2.25 0.80 0 0.60 0.30 0.50 1.05 -0.50 0.75 -0.95 1.50 -1.30 2.75 -1.30 1.55 0 1.70 0.15 1.70 1.45 l0 1.45 1.90 -0.70 c1 -0.35 2.45 -0.65 3.25 -0.70 0.75 0 1.35 -0.20 1.35 -0.50 0 -0.25 0.80 -0.50 1.75 -0.50 1.60 0 1.75 0.10 1.75 1.45 0 2.25 -0.50 3.05 -1.80 3.05 -1.05 0 -1.20 0.25 -1.20 1.75 0 1.70 -0.05 1.75 -2 1.75 -1.65 0 -2 -0.15 -2 -1 0 -0.75 -0.35 -1 -1.25 -1 -1.05 0 -1.25 0.25 -1.25 1.50 0 1.40 -0.10 1.50 -2 1.50 -1.90 0 -2 -0.10 -2 -1.50 0 -1.15 -0.20 -1.50 -1 -1.50 -0.80 0 -1 0.35 -1 1.50 0 1.40 -0.15 1.50 -1.75 1.50 -0.95 0 -1.75 0.25 -1.75 0.50 0 0.30 -0.35 0.50 -0.75 0.50 -0.50 0 -0.75 0.50 -0.75 1.50 0 1 -0.25 1.50 -0.75 1.50 -0.40 0 -0.75 0.25 -0.75 0.50 0 0.30 0.45 0.50 1 0.50 0.75 0 1 0.35 1 1.25 0 1 0.25 1.25 1.35 1.25 0.75 0 2.05 -0.25 2.95 -0.60 1.60 -0.55 1.65 -0.65 1.35 -2.80 -0.35 -2.55 0.15 -3.10 2.80 -3.10 l1.70 0 -0.35 2.75 c-0.25 2.30 -0.20 2.75 0.45 2.75 1.15 0 1.40 1.20 0.60 3.05 -0.40 0.95 -0.85 2.55 -1.05 3.60 -0.20 1.20 -0.60 1.85 -1.15 1.85 -0.65 0 -0.75 -0.40 -0.55 -2.25z m-3.10 -4.25 c0 -0.25 -0.45 -0.50 -1.05 -0.50 -0.55 0 -0.85 0.25 -0.70 0.50 0.15 0.30 0.65 0.50 1.05 0.50 0.40 0 0.70 -0.20 0.70 -0.50z"/>
  <path d="M30.20 36.65 c0.15 -1.05 0.30 -2.40 0.30 -3 0 -0.80 0.30 -1.15 1 -1.15 0.55 0 1 0.25 1 0.50 0 0.30 0.45 0.50 1 0.50 0.80 0 1 0.35 1 1.65 0 2.05 -1.30 3.35 -3.25 3.35 -1.30 0 -1.35 -0.10 -1.05 -1.85z"/>
  <path d="M18.50 32 c0 -0.80 0.35 -1 1.75 -1 2 0 2.45 1.20 0.65 1.70 -1.90 0.50 -2.40 0.35 -2.40 -0.70z"/>
  <path d="M17.65 30.15 c-0.35 -0.10 -0.65 -1 -0.65 -1.95 0 -1.60 0.10 -1.70 1.80 -1.70 1.35 0 1.85 -0.25 2.05 -1 0.20 -0.75 0.70 -1 1.95 -1 1.50 0 1.70 -0.15 1.70 -1.30 0 -1.65 1.25 -2.65 3.40 -2.70 1.50 0 1.60 0.10 1.60 1.90 0.05 1.50 0.15 1.70 0.55 1 0.25 -0.50 1.10 -0.90 1.80 -0.90 1.10 0 1.20 -0.15 0.95 -1.10 -0.20 -0.65 -0.45 -2.20 -0.65 -3.50 l-0.30 -2.40 1.80 0 c1.90 0 2.35 0.60 2.35 3 0 0.80 0.25 1.60 0.50 1.75 0.30 0.15 0.50 1.40 0.50 2.80 0 1.35 -0.20 2.45 -0.50 2.45 -0.25 0 -0.50 0.35 -0.50 0.75 0 0.40 -0.45 0.75 -1 0.75 -0.75 0 -1 0.35 -1 1.25 0 1 -0.25 1.25 -1.25 1.25 -1.50 0 -1.25 -0.90 0.85 -3.50 0.75 -0.95 1.40 -2.25 1.40 -2.85 0 -0.65 -0.05 -1.15 -0.15 -1.15 -0.10 0 -1.25 1 -2.55 2.20 -2.15 2 -2.55 2.20 -4.40 2.05 -1.15 -0.10 -2.25 -0.50 -2.50 -0.85 -0.40 -0.50 -0.55 -0.50 -0.75 0 -0.10 0.30 -0.55 0.60 -0.90 0.60 -0.40 0 -0.80 0.40 -0.95 0.90 -0.35 1 -2.70 2.20 -3.45 1.75 -0.30 -0.15 -0.35 -0.05 -0.15 0.25 0.20 0.35 0.90 0.60 1.60 0.60 0.65 0 1.20 0.25 1.20 0.50 0 0.50 -3.25 0.65 -4.35 0.15z"/>
  <path d="M27.50 27.25 c0.35 -0.40 0.85 -0.75 1.10 -0.75 0.30 0 0.25 0.35 -0.10 0.75 -0.35 0.40 -0.85 0.75 -1.10 0.75 -0.30 0 -0.25 -0.35 0.10 -0.75z"/>
  <path d="M26.50 14.55 c0 -1.95 0.45 -3.05 1.25 -3.05 0.35 0 0.75 -0.35 0.95 -0.75 0.15 -0.40 0.60 -0.75 1.05 -0.75 0.40 0 0.75 -0.45 0.75 -1 0 -0.55 0.25 -2 0.60 -3.25 0.50 -1.80 0.85 -2.25 1.70 -2.25 0.65 0 1.75 -0.75 2.65 -1.75 1.10 -1.30 1.95 -1.75 3.05 -1.75 1.40 0 1.50 0.10 1.50 1.85 0 1.25 -0.40 2.25 -1.20 3.10 -1.35 1.45 -3.30 4.95 -3.30 5.90 0 0.40 -0.60 0.65 -1.50 0.65 -1.15 0 -1.50 0.20 -1.50 1 0 0.55 -0.35 1.15 -0.75 1.30 -0.40 0.20 -0.75 0.60 -0.75 0.95 0 0.80 -1.10 1.25 -3.05 1.25 -1.25 0 -1.45 -0.20 -1.45 -1.45z"/>
  <path d="M14.50 9.25 c0 -1.40 0.20 -1.75 1 -1.75 0.55 0 1 -0.35 1 -0.75 0 -0.45 0.40 -0.95 0.90 -1.10 0.45 -0.20 1.30 -0.75 1.80 -1.25 0.55 -0.50 1.35 -0.90 1.85 -0.90 0.45 0 1.35 -0.40 2 -0.90 2.10 -1.55 3.75 -2.20 5.25 -2 1.30 0.15 1.45 0.35 1.60 2.30 0.10 1.25 -0.05 2.10 -0.35 2.10 -0.30 0 -0.55 0.35 -0.55 0.75 0 0.45 -0.35 1.45 -0.75 2.25 -0.65 1.30 -1.05 1.50 -2.75 1.50 -1.80 0 -2 -0.15 -2 -1.25 0 -1.15 -0.10 -1.20 -1.35 -0.60 -0.80 0.30 -1.60 0.85 -1.80 1.20 -0.20 0.35 -0.85 0.65 -1.35 0.65 -0.55 0 -1 0.35 -1 0.75 0 0.50 -0.55 0.75 -1.75 0.75 -1.65 0 -1.75 -0.10 -1.75 -1.75z"/>
 </g>
 <g fill="#3f1e21">
  <path d="M20 20.80 c0 -2.15 1.15 -3.35 3.05 -3.20 1.25 0.10 1.45 0.30 1.45 1.65 -0.05 2.10 -1.05 3.25 -2.95 3.25 -1.45 0 -1.55 -0.15 -1.55 -1.70z"/>
  <path d="M6 18.25 c0 -1.40 0.15 -1.55 1.75 -1.65 1.70 -0.15 1.75 -0.05 1.75 1.60 0 1.70 -0.05 1.75 -1.75 1.70 -1.60 -0.05 -1.75 -0.20 -1.75 -1.65z"/>
  <path d="M27 12.40 c0 -1.40 0.20 -1.90 0.80 -1.90 1.85 0 3.20 -3.15 3.20 -7.55 l0 -2.95 1.75 0 1.75 0 0 3.10 c0 3.35 -0.95 8.40 -1.60 8.40 -0.25 0 -0.40 0.35 -0.40 0.75 0 0.40 -0.20 0.75 -0.50 0.75 -0.25 0 -0.50 0.35 -0.50 0.75 0 0.60 -0.55 0.75 -2.25 0.65 l-2.25 -0.05 0 -1.95z"/>
  <path d="M12.75 8.50 c-0.25 -1.50 -0.55 -2 -1.30 -2 -0.50 0 -1 0.25 -1 0.50 -0.05 0.30 -0.10 0.75 -0.15 1.10 0 0.30 -0.75 0.65 -1.65 0.75 -1.50 0.20 -1.65 0.10 -2.15 -1.90 -0.50 -1.90 -0.45 -2.40 0.55 -4.55 1 -2.15 1.30 -2.40 2.75 -2.40 1.15 0 1.70 0.25 1.80 0.85 0.15 0.75 0.25 0.75 1.10 -0.10 0.90 -0.90 0.90 -0.85 0.80 1.05 -0.20 2.95 -0.10 3.20 1.25 3.20 0.70 0 1.25 0.25 1.25 0.50 0 0.30 0.35 0.50 0.75 0.50 0.40 0 0.75 -0.20 0.75 -0.50 0 -0.25 0.30 -0.50 0.65 -0.50 0.80 0 1.75 -1.70 1.95 -3.50 0.15 -1.10 0.40 -1.25 2.40 -1.40 1.25 -0.10 3.20 -0.05 4.40 0.15 2.55 0.40 2.30 0.95 -1.20 3 -1.20 0.70 -2.20 1.40 -2.20 1.55 0 0.15 1 -0.35 2.25 -1.10 1.60 -0.90 2.25 -1.10 2.30 -0.60 0 0.35 0.20 0.20 0.45 -0.35 0.40 -0.95 0.45 -0.95 0.45 0.15 0.05 0.75 -0.25 1.10 -0.90 1.10 -0.60 0 -1 0.45 -1.20 1.35 -0.20 1.20 -0.20 1.30 0.40 0.50 0.90 -1.25 1.25 -1.05 1.25 0.90 0 1.70 -0.05 1.75 -1.85 1.75 -1.75 0 -1.80 -0.05 -0.85 -0.80 0.80 -0.65 0.80 -0.75 0.10 -0.50 -0.50 0.15 -0.90 0.05 -0.90 -0.20 0 -0.30 -0.30 -0.50 -0.65 -0.50 -0.90 0 -3.35 1.20 -3.35 1.65 0 0.20 -0.30 0.35 -0.65 0.35 -0.35 0 -0.90 0.45 -1.25 1 -0.50 0.80 -1.15 1 -3.30 1 l-2.70 0 -0.35 -2z"/>
 </g>
 <g fill="#3b1c4b">
  <path d="M35.60 38.15 c0.15 -1.80 0.25 -1.90 2.05 -2.05 l1.85 -0.15 0 2 0 2.05 -2.05 0 -2 0 0.15 -1.85z"/>
  <path d="M8.50 38.25 c0 -0.40 -0.35 -0.75 -0.75 -0.75 -0.40 0 -0.75 -0.45 -0.75 -1 0 -1.50 -1.80 -1.30 -2.20 0.25 -0.25 0.90 -0.65 1.25 -1.55 1.25 -0.70 0 -1.25 -0.15 -1.25 -0.30 0 -0.50 1.15 -2.45 1.65 -2.80 0.30 -0.20 0.20 -0.60 -0.30 -1.15 -0.95 -0.95 -1.15 -2.25 -0.30 -2.25 0.30 0 0.15 -0.35 -0.25 -0.80 -1.10 -1.10 -1 -1.55 0.60 -2.40 0.75 -0.40 1.80 -1.15 2.30 -1.75 0.60 -0.65 1.55 -1.05 2.65 -1.05 l1.65 0 0 3.25 c0 1.85 -0.20 3.25 -0.50 3.25 -0.30 0 -0.25 0.40 0.10 1 0.40 0.65 0.80 0.80 1.10 0.50 0.30 -0.30 0.90 -0.50 1.40 -0.50 0.50 0 0.90 -0.25 0.90 -0.55 0 -0.30 -0.40 -0.40 -0.95 -0.20 -0.80 0.25 -0.90 0.10 -0.70 -0.75 0.15 -0.55 0 -1 -0.30 -1 -0.30 0 -0.55 -0.85 -0.55 -1.90 0 -2.35 1.40 -3.65 4.35 -4 l2.15 -0.25 0 2.60 c0 2.50 0 2.55 -1.55 2.55 -1.40 0 -1.50 -0.10 -0.90 -0.85 0.60 -0.85 0.60 -0.85 -0.30 -0.05 -1.20 1.10 -0.65 1.75 2 2.30 1.25 0.25 2.05 0.70 2.15 1.25 0.10 0.55 -0.05 0.75 -0.50 0.60 -0.70 -0.30 -1.60 1.45 -2.15 4.15 -0.45 2.20 -1.75 2.15 -1.75 -0.10 0 -0.95 0.30 -1.85 0.65 -1.95 0.35 -0.15 0.25 -0.30 -0.25 -0.30 -0.65 -0.05 -0.90 0.35 -0.90 1.45 0 0.85 -0.20 1.50 -0.50 1.50 -0.25 0 -0.50 0.35 -0.50 0.75 0 0.55 -0.55 0.75 -2 0.75 -1.45 0 -2 -0.20 -2 -0.75z m-0.35 -3.75 c-0.30 -1.20 -1.15 -1.85 -1.15 -0.90 0 0.60 0.90 1.90 1.30 1.90 0.05 0 0 -0.45 -0.15 -1z m7.85 -1.70 c0 -0.10 -0.55 -0.55 -1.25 -1 -0.70 -0.45 -1.25 -0.60 -1.25 -0.30 0 0.30 0.50 0.75 1.15 1 1.35 0.55 1.35 0.55 1.35 0.30z"/>
  <path d="M30.25 36.40 c0.20 -0.90 0.40 -2.20 0.45 -2.90 0.10 -0.70 0.20 -1.55 0.20 -1.85 0.05 -0.35 0.45 -0.65 0.85 -0.65 1.10 0 1 3.85 -0.10 5.20 -0.75 0.90 -0.80 0.95 -0.05 0.40 0.70 -0.55 0.80 -0.55 0.55 0.35 -0.15 0.65 -0.70 1.05 -1.25 1.05 -0.90 0 -1 -0.20 -0.65 -1.60z"/>
  <path d="M17.50 28.25 c0 -1.70 0.05 -1.75 2 -1.75 1.80 0 2 -0.15 2 -1.20 0 -0.65 0.30 -1.35 0.65 -1.45 0.30 -0.15 -0.25 -0.30 -1.25 -0.30 -1.80 -0.05 -1.90 -0.15 -1.90 -1.65 l0 -1.60 -1.40 1.35 c-1.45 1.40 -3 1.65 -6.70 1.05 -1.75 -0.30 -1.90 -0.45 -1.90 -2 0 -0.90 0.35 -1.95 0.75 -2.40 0.40 -0.40 0.75 -0.95 0.75 -1.25 0 -0.30 0.55 -0.55 1.25 -0.55 0.90 0 1.25 -0.25 1.25 -1 0 -0.80 0.35 -1 1.75 -1 1.50 0 1.75 0.15 1.75 1.20 l0 1.20 2.60 -0.95 c3.15 -1.15 5.40 -1.25 5.40 -0.25 0 0.40 -0.20 0.90 -0.50 1.05 -0.25 0.15 -0.50 0.60 -0.50 0.90 0 0.35 0.20 0.30 0.50 -0.15 0.35 -0.55 0.50 -0.10 0.50 1.55 0 2.25 0 2.25 1.50 2.05 1.45 -0.20 1.50 -0.35 1.50 -2.65 0 -1.30 -0.20 -2.55 -0.50 -2.70 -0.25 -0.15 -0.50 -1.20 -0.50 -2.30 0 -1.80 0.10 -1.95 1.45 -1.95 1.15 0 1.50 -0.25 1.70 -1.45 0.15 -0.80 0.65 -1.80 1.10 -2.20 0.55 -0.55 0.75 -1.80 0.75 -4.30 0 -3.85 0.80 -4.90 1.15 -1.45 l0.20 2.15 0.05 -2.10 c0.10 -1.85 0.25 -2.15 1.15 -2.15 1 0 1.05 0.20 0.85 3.55 -0.15 2.75 -0.05 3.35 0.40 2.75 0.30 -0.45 0.70 -0.80 0.90 -0.80 0.55 0 0.30 2.85 -0.50 5.05 -0.75 2.25 -0.60 6.60 0.35 7.75 0.25 0.30 0.60 2.95 0.80 5.90 l0.30 5.30 -1.80 0 c-1.75 0 -1.85 -0.10 -1.85 -1.60 0 -0.90 0.45 -2.20 1 -2.90 0.95 -1.25 1.25 -2.55 0.70 -3.15 -0.15 -0.15 -1.10 0.55 -2.10 1.55 l-1.85 1.85 -0.15 -1.40 c-0.15 -1.05 -0.45 -1.35 -1.40 -1.35 -0.90 0 -1.20 0.25 -1.20 1.15 0 1.25 -2.15 2.35 -4.65 2.35 -0.85 0 -1.35 0.25 -1.35 0.75 0 1.05 -1.90 1.90 -3.40 1.50 -1.30 -0.30 -1.30 -0.30 -0.35 0.45 0.60 0.40 1.70 0.80 2.50 0.95 0.95 0.10 0.55 0.25 -1.10 0.30 l-2.65 0.05 0 -1.75z m-1.35 -7.50 c1.80 -2.25 1.50 -2.25 -0.65 0 -0.95 0.95 -1.50 1.75 -1.20 1.75 0.25 0 1.10 -0.80 1.85 -1.75z m16.15 -0.35 c-0.15 -0.90 -0.45 -2.50 -0.60 -3.50 -0.20 -1.05 -0.55 -1.90 -0.80 -1.90 -0.30 0 -0.35 0.35 -0.20 0.80 0.15 0.45 0.30 2 0.30 3.50 0 2.15 0.15 2.70 0.80 2.70 0.65 0 0.75 -0.35 0.50 -1.60z m-10.10 -0.15 c0.45 -0.70 0.75 -1.25 0.65 -1.25 -0.10 0 -0.70 0.55 -1.35 1.25 -0.65 0.70 -0.95 1.25 -0.65 1.25 0.30 0 0.90 -0.55 1.35 -1.25z m-7.70 -3.85 c0 -0.75 -0.90 0 -2.05 1.75 l-1.10 1.60 1.55 -1.45 c0.90 -0.85 1.60 -1.70 1.60 -1.90z m15 -3 c0.60 -0.65 1.30 -1.60 1.55 -2.15 0.30 -0.55 0 -0.35 -0.60 0.40 -0.75 0.95 -1.20 1.25 -1.45 0.85 -0.25 -0.35 -0.45 -0.10 -0.60 0.70 -0.30 1.60 -0.20 1.60 1.10 0.20z m3.50 -6.60 c0 -1.30 -0.30 -0.90 -0.70 0.95 -0.25 1.10 -0.20 1.30 0.20 0.75 0.25 -0.40 0.50 -1.20 0.50 -1.70z"/>
  <path d="M5.30 22.40 c-1.45 -8.05 -1.45 -7.85 0.60 -11.80 0.60 -1.15 1.15 -1.60 1.85 -1.50 0.90 0.15 1 0.55 1.05 4.05 0 2.85 -0.15 3.85 -0.65 3.85 -0.35 0 -0.65 0.35 -0.65 0.80 0 0.70 0.10 0.75 0.80 0.15 0.75 -0.60 0.80 -0.55 0.50 0.40 -0.20 0.65 -0.35 2.05 -0.40 3.15 0 1.85 -0.10 2 -1.45 2 -1.10 0 -1.50 -0.25 -1.65 -1.10z m2.40 -11.25 c0.45 -0.90 0.70 -1.65 0.60 -1.65 -0.30 0 -1.80 2.75 -1.80 3.30 0 0.55 0.25 0.15 1.20 -1.65z"/>
  <path d="M14 11.10 c0 -0.20 -0.90 -0.30 -2 -0.20 -1.90 0.20 -2 0.15 -2 -1.25 0 -0.80 0.30 -1.75 0.65 -2.15 0.50 -0.60 0.45 -0.60 -0.25 -0.05 -0.80 0.60 -0.90 0.50 -0.90 -0.90 0 -1.30 0.20 -1.55 1.20 -1.55 1.25 0 2 -0.60 1.45 -1.20 -0.15 -0.15 -0.60 -0.05 -1 0.25 -0.50 0.45 -0.65 0.30 -0.65 -0.85 0 -1.10 0.15 -1.30 0.50 -0.70 0.30 0.50 0.50 0.55 0.50 0.15 0 -0.40 0.65 -0.65 1.50 -0.65 1.40 0 1.50 0.15 1.50 1.75 0 1.20 0.25 1.75 0.75 1.75 0.40 0 0.75 0.25 0.75 0.50 0 0.30 0.45 0.50 1 0.50 0.55 0 1 -0.35 1 -0.75 0 -0.50 0.50 -0.75 1.55 -0.75 1.35 0 1.50 0.10 0.95 0.80 -0.60 0.65 -0.50 0.70 0.75 0.10 1.05 -0.50 1.20 -0.70 0.60 -0.80 -1.60 -0.30 -0.85 -1.40 1.05 -1.50 1.70 -0.10 1.80 -0.05 0.90 0.60 -0.90 0.70 -0.90 0.75 0.15 0.65 0.55 -0.05 1.05 -0.25 1.05 -0.45 0 -0.20 0.70 -0.70 1.50 -1.15 1.15 -0.60 1.50 -0.65 1.50 -0.15 0.05 0.35 0.35 0 0.75 -0.85 l0.65 -1.50 0.05 2.35 c0.05 2.20 -1.20 5.40 -2.05 5.40 -0.25 0 -0.40 0.35 -0.40 0.75 0 0.55 -0.55 0.75 -2 0.75 -1.90 0 -2 -0.10 -2 -1.50 0 -1 -0.25 -1.50 -0.75 -1.50 -0.40 0 -0.75 0.35 -0.75 0.75 0 0.40 -0.45 0.75 -1 0.75 -0.55 0 -1 0.35 -1 0.75 0 0.40 -0.45 0.75 -1 0.75 -0.55 0 -1 0.35 -1 0.75 0 0.50 -0.55 0.75 -1.75 0.75 -0.95 0 -1.75 -0.15 -1.75 -0.40z m5.50 -4.45 c0 -0.35 -2.90 1.80 -3.30 2.45 -0.20 0.35 0.45 -0.05 1.45 -0.80 1 -0.80 1.85 -1.50 1.85 -1.65z m7.30 0.10 c0.45 -0.70 0.70 -1.40 0.50 -1.60 -0.15 -0.15 -0.30 -0.05 -0.30 0.25 0 0.30 -0.50 1 -1.10 1.60 -0.60 0.55 -0.85 1 -0.50 1 0.30 0 0.95 -0.55 1.40 -1.25z"/>
  <path d="M36 2.40 c0 -1.85 0.05 -1.90 1.75 -1.90 1.65 0 1.75 0.10 1.75 1.75 0 1.55 -0.15 1.75 -1.35 1.75 l-1.30 0 1.05 -1.15 c0.60 -0.65 1.10 -1.35 1.10 -1.60 0 -0.25 -0.65 0.30 -1.50 1.25 l-1.45 1.75 -0.05 -1.85z"/>
  <path d="M26 2 c0 -0.75 0.35 -1 1.25 -1 0.70 0 1.25 0.10 1.25 0.20 0 0.10 -0.55 0.55 -1.25 1 -1.20 0.80 -1.25 0.80 -1.25 -0.20z"/>
 </g>
 <g fill="#2f4d42">
  <path d="M7.50 32.95 c-0.35 -0.55 -0.45 -1.35 -0.30 -1.75 0.35 -0.95 3.30 -0.95 3.30 0.05 0 0.40 -0.40 0.75 -0.85 0.75 -0.65 0 -0.70 0.15 -0.25 0.60 0.90 0.90 0.75 1.40 -0.40 1.40 -0.50 0 -1.20 -0.45 -1.50 -1.05z"/>
  <path d="M2.85 33.15 c-0.65 -0.60 -0.35 -1.55 0.60 -1.80 0.70 -0.15 0.95 0.05 0.95 0.95 0 1.15 -0.85 1.60 -1.55 0.85z"/>
  <path d="M16.50 31.90 c0 -0.50 0.25 -0.90 0.55 -0.90 0.25 0 0.35 -0.25 0.15 -0.55 -0.20 -0.40 -0.45 -0.40 -0.85 0 -0.30 0.30 -1.30 0.55 -2.20 0.55 -1.50 0 -1.65 -0.15 -1.65 -1.55 0 -2.05 2.45 -3.15 5.90 -2.55 2.45 0.40 3.10 1.50 0.70 1.20 -1.30 -0.15 -1.30 -0.15 -0.35 0.60 0.55 0.40 1.30 0.80 1.65 0.80 0.30 0 0.60 0.25 0.60 0.50 0 0.30 0.35 0.50 0.75 0.50 0.40 0 0.75 -0.20 0.75 -0.50 0 -0.25 0.80 -0.50 1.85 -0.50 1.80 0 1.80 0 0.90 1 -1.05 1.15 -5.30 2.50 -7.35 2.35 -0.95 -0.05 -1.40 -0.40 -1.40 -0.95z"/>
  <path d="M27 28 c0 -0.25 0.45 -0.75 1 -1.10 0.55 -0.35 1 -0.80 1 -0.95 0 -0.20 -0.45 -0.25 -1 -0.10 -0.55 0.15 -1 0 -1 -0.30 0 -0.30 0.80 -0.55 1.75 -0.55 0.95 0 1.75 0.15 1.75 0.30 0 0.30 -2.95 3.20 -3.30 3.20 -0.10 0 -0.20 -0.20 -0.20 -0.50z"/>
  <path d="M1 25.25 c0 -0.40 -0.20 -0.75 -0.50 -0.75 -0.25 0 -0.50 -0.45 -0.50 -1 0 -0.65 0.35 -1 1 -1 0.80 0 1 0.35 1 1.75 0 0.95 -0.20 1.75 -0.50 1.75 -0.25 0 -0.50 -0.35 -0.50 -0.75z"/>
  <path d="M15.85 21 c1.25 -1.40 2.60 -2.25 4.50 -2.85 1.45 -0.45 2.65 -1 2.65 -1.20 0 -0.35 -3.35 0.70 -5.90 1.90 -0.90 0.45 -1.95 1.35 -2.35 2.10 l-0.70 1.30 -0.05 -1.35 c0 -0.85 0.25 -1.40 0.70 -1.40 0.35 0 0.80 -0.40 0.95 -0.95 0.25 -1 5.55 -3.05 7.95 -3.05 1.30 0 1.40 0.15 1.40 2.05 0 1.95 -0.10 2.05 -1.25 1.85 -1 -0.20 -1.60 0.10 -2.60 1.30 -0.70 0.85 -1.40 1.30 -1.50 1 -0.25 -0.80 -2.15 -0.25 -2.15 0.60 0 0.45 -0.60 0.70 -1.70 0.70 l-1.75 0 1.80 -2z"/>
  <path d="M21.70 21.20 c0.15 -0.45 0.30 -0.90 0.30 -1 0 -0.10 0.25 -0.20 0.50 -0.20 0.30 0 0.50 0.45 0.50 1 0 0.60 -0.35 1 -0.80 1 -0.55 0 -0.70 -0.25 -0.50 -0.80z"/>
  <path d="M4.80 19.65 c-0.50 -3.05 -0.35 -4.15 0.45 -4.15 0.40 0 0.75 0.35 0.75 0.75 0 0.40 0.35 0.75 0.75 0.75 0.40 0 0.75 0.35 0.75 0.80 0 0.70 0.15 0.70 0.80 0.15 0.70 -0.55 0.75 -0.40 0.60 1.35 -0.10 1.45 -0.40 2 -1.10 2.10 -0.75 0.15 -0.90 0 -0.65 -0.85 0.15 -0.60 0.05 -0.95 -0.20 -0.75 -0.25 0.15 -0.45 0.60 -0.45 1 0 1.55 -1.40 0.60 -1.70 -1.15z"/>
  <path d="M7.15 16.65 c-1.10 -0.40 -0.70 -1.15 0.60 -1.15 0.80 0 1.25 0.30 1.25 0.75 0 0.75 -0.70 0.90 -1.85 0.40z"/>
  <path d="M13.40 4.15 c1 -0.40 0.65 -1.25 -0.40 -0.90 -0.80 0.25 -1 0.10 -1 -0.95 0 -1.05 0.25 -1.30 1.25 -1.30 0.70 0 1.25 -0.20 1.25 -0.45 0 -0.25 0.80 -0.45 1.75 -0.45 1.50 0 1.75 0.15 1.75 1.20 0 0.95 -0.25 1.20 -1.25 1.20 -0.90 0 -1.25 0.25 -1.25 1 0 0.75 -0.30 1 -1.35 0.95 -0.80 0 -1.10 -0.15 -0.75 -0.30z"/>
  <path d="M27 3.35 c0 -0.25 0.35 -0.35 0.75 -0.15 0.40 0.15 0.75 0.05 0.75 -0.15 0 -0.25 0.15 -0.90 0.35 -1.40 0.30 -0.80 0.25 -0.80 -0.50 -0.20 -1 0.80 -1.60 0.45 -1.20 -0.70 0.20 -0.50 0.95 -0.75 2.15 -0.75 1.80 0 1.80 0.05 1.50 1.55 -0.15 0.85 -0.30 1.80 -0.30 2.05 0 0.25 -0.80 0.40 -1.75 0.30 -0.95 -0.05 -1.75 -0.30 -1.75 -0.55z"/>
 </g>
 <g fill="#702a2b">
  <path d="M27.25 10.15 c0.20 -1.90 0.45 -3.55 0.60 -3.75 0.40 -0.75 3.65 -0.45 3.65 0.30 0 0.40 0.25 0.80 0.50 0.90 0.35 0.10 0.05 1.10 -0.65 2.40 -0.65 1.25 -1.15 2.55 -1.05 2.90 0.05 0.35 0 0.40 -0.15 0.10 -0.10 -0.25 -0.45 -0.40 -0.70 -0.20 -0.25 0.15 -0.45 -0.05 -0.45 -0.40 0 -0.40 -0.25 -0.30 -0.55 0.25 -1.10 1.85 -1.55 0.90 -1.20 -2.50z"/>
  <path d="M13.05 9.15 c-0.75 -2.65 -0.70 -4.65 0.20 -4.95 0.45 -0.20 0.65 -0.90 0.60 -2.10 -0.10 -1.60 0.05 -1.85 1.05 -2 0.65 -0.10 1.10 0.10 1.10 0.50 0 0.50 0.15 0.45 0.50 -0.10 0.45 -0.65 0.55 -0.65 1 0 0.30 0.50 0.50 0.55 0.50 0.15 0 -0.45 1.05 -0.65 3.45 -0.65 3.40 0 3.50 0.05 3.70 1.40 l0.20 1.35 0.10 -1.40 c0.05 -1.30 0.15 -1.35 2.60 -1.30 2.40 0.10 2.50 0.15 2.35 1.40 -0.10 0.75 -0.50 1.35 -1 1.45 -0.65 0.10 -0.75 -0.10 -0.55 -0.95 l0.30 -1.15 -1.50 1.10 c-0.85 0.60 -1.70 1.10 -1.90 1.10 -0.20 0 -0.90 0.45 -1.60 1 -0.70 0.55 -1.60 1 -2 1 -0.75 0 -5.85 3.60 -6.45 4.60 -0.25 0.35 0.55 -0.10 1.65 -1 2.40 -1.90 9.60 -5.70 10.30 -5.45 0.80 0.25 -2.30 2.90 -3.75 3.20 -0.75 0.15 -1.65 0.60 -1.95 0.95 -0.30 0.40 -0.90 0.70 -1.25 0.70 -0.40 0 -0.70 0.25 -0.70 0.50 0 0.30 -0.30 0.50 -0.65 0.50 -0.35 0 -0.90 0.45 -1.25 1 -0.45 0.75 -1.15 1 -2.60 1 -1.85 0 -2 -0.10 -2.45 -1.85z m9.45 -7.05 c0 -0.35 -0.20 -0.50 -0.50 -0.35 -0.25 0.15 -0.50 0.80 -0.50 1.40 0 0.90 0.10 0.95 0.50 0.35 0.25 -0.40 0.50 -1.05 0.50 -1.40z"/>
  <path d="M32.10 9.65 c0.95 -2.30 1.50 -2.55 1.30 -0.65 -0.10 1.20 -0.45 1.80 -1.05 1.90 -0.75 0.15 -0.80 0 -0.25 -1.25z"/>
  <path d="M7 4.70 c0 -2.55 0.75 -3.70 2.50 -3.70 1.65 0 1.85 0.70 1.20 3.95 -0.30 1.35 -0.50 1.55 -2 1.55 -1.60 0 -1.70 -0.10 -1.70 -1.80z"/>
 </g>
 <g fill="#4c3063">
  <path d="M7.50 38.55 c0 -1.85 1.10 -2.85 2 -1.80 0.35 0.40 0.85 0.75 1.15 0.75 0.30 0 0.05 -0.35 -0.55 -0.80 -0.60 -0.40 -1.10 -1.30 -1.10 -1.95 0 -1.95 0.70 -1.80 1.75 0.35 0.50 1.10 1.05 1.75 1.15 1.40 0.10 -0.30 -0.05 -0.85 -0.35 -1.15 -1.65 -1.65 0.45 -3.10 3.60 -2.50 1.15 0.25 1.35 0.50 1.15 1.35 -0.20 0.60 -0.45 2.10 -0.65 3.45 -0.20 1.85 -0.50 2.35 -1.20 2.35 -0.55 0 -0.95 -0.35 -0.95 -0.80 0 -0.70 -0.10 -0.70 -1.10 0 -0.60 0.45 -1.95 0.80 -3 0.80 -1.75 0 -1.90 -0.10 -1.90 -1.45z"/>
  <path d="M29 39.50 c0 -0.25 0.20 -0.50 0.45 -0.50 0.45 0 1.20 -3.20 1.50 -6.60 0 -0.50 0.35 -0.90 0.75 -0.90 0.75 0 1.80 -2.45 1.80 -4.25 0 -0.55 0.45 -1.55 1 -2.15 0.55 -0.60 1 -1.30 1 -1.60 0 -0.25 0.35 -0.50 0.80 -0.50 1.25 0 0.80 10.30 -0.45 11.25 -0.45 0.35 -0.85 1 -0.85 1.50 0 0.80 0.10 0.80 1.25 0.05 0.65 -0.45 1.80 -0.80 2.50 -0.80 1.15 0 1.25 0.15 1.25 2.50 l0 2.50 -2.45 0 c-2.45 0 -2.50 -0.05 -2.65 -1.60 -0.15 -1.50 -0.20 -1.55 -1 -0.75 -0.45 0.45 -0.95 0.85 -1.15 0.85 -0.20 0 -0.65 0.35 -1.05 0.75 -0.85 0.85 -2.70 1 -2.70 0.25z m6.35 -13.85 c-0.15 -0.50 -0.25 -0.10 -0.25 0.85 0 0.95 0.10 1.35 0.25 0.90 0.10 -0.50 0.10 -1.30 0 -1.75z"/>
  <path d="M3.20 35.75 c0.75 -1.15 0.75 -1.35 0.05 -2.05 -0.40 -0.40 -0.75 -0.95 -0.75 -1.15 0 -0.20 1.35 -1.35 3 -2.55 1.65 -1.20 3 -2.40 3 -2.70 0 -0.25 -0.60 0.10 -1.35 0.75 -1.85 1.70 -4.15 3.10 -4.50 2.75 -0.15 -0.15 -0.35 -1.20 -0.45 -2.35 -0.05 -1.15 -0.40 -2.25 -0.70 -2.45 -0.40 -0.25 -0.35 -0.45 0.20 -0.65 0.45 -0.20 0.80 -0.65 0.80 -1.05 0 -0.50 0.55 -0.70 1.75 -0.65 1.65 0.05 1.75 0.15 1.75 1.80 l0.05 1.80 0.70 -2 c0.40 -1.10 0.75 -2.05 0.75 -2.10 0 -0.10 -0.45 -0.15 -0.95 -0.15 -1.20 0 -1.35 -0.20 -1.75 -2.80 -0.35 -1.85 -0.25 -2.10 0.75 -2.35 1.55 -0.40 1.65 -0.20 1.05 2.15 -0.25 1.10 -0.30 2 -0.10 2 0.20 0 0.50 -0.70 0.70 -1.60 0.15 -0.85 0.65 -1.95 1.10 -2.45 0.70 -0.75 0.65 -0.85 -0.55 -1.15 -1.95 -0.50 -1.60 -1.80 0.45 -1.80 1.30 0 1.80 0.25 2.05 1 0.20 0.65 0.75 1 1.55 1 l1.25 0 -1.10 1.65 -1.10 1.60 1.55 -1.45 c1.25 -1.15 1.60 -1.30 1.60 -0.65 0 0.55 0.40 0.85 1.20 0.85 1 0 1.20 -0.30 1.50 -2 0.40 -2.50 1.85 -3.25 5.70 -2.80 l2.60 0.30 0 -1.50 c0 -1.15 -0.20 -1.50 -1 -1.50 -0.70 0 -1.05 -0.45 -1.30 -1.75 -0.35 -2 -1.20 -2.35 -1.20 -0.50 0 0.95 -0.30 1.30 -1.35 1.50 -0.80 0.20 -1.80 0.50 -2.25 0.80 -0.50 0.25 -1.55 0.45 -2.40 0.45 -1.20 0 -1.50 -0.20 -1.50 -1.10 -0.05 -1.05 -0.10 -1.10 -0.70 -0.25 -0.35 0.45 -1.25 0.85 -2 0.85 -0.90 0 -1.50 0.35 -1.90 1.25 -0.35 0.80 -0.95 1.25 -1.75 1.25 -1.15 0 -1.15 0 -0.40 -1.85 0.45 -1.05 1.65 -2.80 2.65 -3.90 1.85 -2 1.85 -2 -0.45 0.15 -2.25 2.10 -3.45 4.60 -3.45 7.05 0 0.80 -0.25 1.05 -0.85 0.95 -1.25 -0.25 -1 -2.40 0.55 -5.35 0.75 -1.50 1.10 -2.80 0.95 -3.70 -0.20 -1 -0.05 -1.35 0.50 -1.35 0.45 0 0.85 -0.50 0.95 -1.15 0.10 -0.85 0.55 -1.15 1.85 -1.25 1.55 -0.15 1.65 -0.10 1.10 0.60 -0.55 0.65 -0.55 0.80 0.15 0.80 0.45 0 1.25 -0.25 1.75 -0.60 1 -0.60 2.80 -0.20 2.35 0.55 -0.50 0.75 0.20 1.95 1.25 2.20 0.65 0.20 1.20 -0.15 1.80 -1.20 0.85 -1.40 2.05 -2.20 2.55 -1.70 0.40 0.35 -3.40 3.80 -3.90 3.50 -0.25 -0.15 -0.55 -0.05 -0.75 0.25 -0.55 0.90 -1.10 0.55 -1.65 -1.10 -0.45 -1.50 -0.50 -1.55 -0.55 -0.40 -0.05 0.70 0.30 1.80 0.75 2.40 l0.75 1.15 1.95 -1.55 c1.90 -1.50 9.20 -5.50 10.05 -5.50 0.25 0 0.15 0.55 -0.15 1.25 -0.30 0.70 -0.75 1.25 -1 1.25 -0.25 0 -0.35 0.20 -0.20 0.40 0.15 0.25 -0.20 0.80 -0.75 1.30 -0.60 0.50 -0.90 1 -0.75 1.15 0.15 0.15 0.60 0 1.05 -0.35 0.65 -0.55 0.75 -0.45 0.75 0.70 0 1.15 0.20 1.30 1.70 1.30 1.95 0 2.75 1.25 1.55 2.45 -0.65 0.70 -0.75 0.65 -0.80 -0.20 0 -0.75 -0.15 -0.65 -0.55 0.40 -0.50 1.45 -0.30 2.15 0.50 1.65 1.15 -0.70 3.20 -4.45 4.50 -8.20 1.60 -4.60 2.85 -6.10 5.05 -6.10 l1.50 0 0 3.45 c0 3.55 -0.35 4.30 -2.15 4.60 -0.55 0.15 -1.30 1.10 -1.85 2.55 -0.80 2.05 -0.85 2.90 -0.45 6 1.10 8.50 -0.15 7.10 -2.15 -2.35 -0.20 -0.90 -0.25 -0.90 -0.30 0.10 0 0.60 0.30 2.40 0.70 4 0.85 3.30 0.70 4.25 -1 5.35 -1.20 0.80 -1.25 0.80 -1.25 -0.45 0 -1.35 -0.75 -1.70 -1.20 -0.50 -0.15 0.40 -0.05 0.75 0.20 0.75 0.30 0 0.50 0.40 0.50 0.95 0 1.05 -1.55 2.60 -1.85 1.80 -0.10 -0.25 -1.55 -0.50 -3.25 -0.45 -2.65 0 -3.10 0.15 -3.45 1.10 -0.40 1.10 -1.10 1.30 -3.45 1.10 -1.05 -0.10 -1.10 0 -0.55 0.65 0.35 0.45 1.25 0.90 1.95 1 0.75 0.10 -0.15 0.10 -2 0 -2.90 -0.20 -3.40 -0.15 -3.40 0.55 0 0.60 0.50 0.80 1.75 0.80 1.15 0 1.75 0.25 1.75 0.70 0 1.10 -1.80 1.25 -3.45 0.25 -1 -0.60 -1.55 -0.70 -1.70 -0.30 -0.10 0.35 -1.10 0.55 -2.50 0.45 -2.25 -0.05 -2.35 0 -2.35 1.25 0 1.85 -2.10 3.65 -4.35 3.65 l-1.75 0 0.80 -1.25z m4.55 -2.25 c-0.25 -0.75 -0.65 -1 -1.25 -0.85 -0.45 0.10 -1.25 0 -1.70 -0.25 -0.80 -0.45 -0.80 -0.35 -0.30 0.55 0.35 0.75 0.85 1 1.45 0.80 0.60 -0.20 1.05 0 1.25 0.55 0.45 1.20 0.95 0.50 0.55 -0.80z m7.90 -5.65 c-0.30 -0.45 -2.15 1.05 -2.15 1.75 0 0.25 0.55 0.05 1.20 -0.45 0.65 -0.50 1.10 -1.10 0.95 -1.30z m-0.90 -0.85 c0.40 0 0.75 -0.20 0.75 -0.50 0 -0.25 -0.40 -0.35 -0.85 -0.15 -1.15 0.40 -2.65 1.70 -2.65 2.25 0 0.20 0.45 -0.05 1 -0.60 0.55 -0.55 1.35 -1 1.75 -1z m-3.25 -0.25 c0 -0.40 0.35 -0.75 0.75 -0.75 0.95 0 0.95 -0.85 0.05 -1.80 -1.05 -1 -1.15 -0.90 -1.40 1.30 -0.10 1.10 0 2 0.20 2 0.25 0 0.40 -0.35 0.40 -0.75z m16 -4.15 c0.65 -0.55 0.55 -0.60 -0.75 -0.05 -0.80 0.35 -1.85 0.95 -2.25 1.35 -0.65 0.55 -0.55 0.60 0.75 0.05 0.85 -0.35 1.85 -0.95 2.25 -1.35z m-11.80 -1.20 c0.45 -0.60 0.80 -0.85 0.80 -0.50 0 0.85 2.40 0.75 3.30 -0.10 0.40 -0.40 0.70 -1.20 0.70 -1.75 0 -1 0.65 -1.30 2.60 -1.15 0.45 0.05 0.90 -0.20 1.05 -0.60 0.25 -0.70 -0.45 -0.70 -2.90 -0.05 -3.05 0.80 -5.80 2.40 -6.55 3.80 -0.85 1.70 -0.10 1.95 1 0.35z m5.80 0.15 c0 -0.25 0.35 -0.85 0.80 -1.30 1.20 -1.20 0.55 -1.40 -0.70 -0.25 -1.15 1.10 -1.45 2 -0.60 2 0.30 0 0.50 -0.20 0.50 -0.45z m10.55 -2.10 c-0.45 -1.15 -0.50 -1.10 -0.50 0.55 -0.05 1.15 0.10 1.55 0.45 1.20 0.35 -0.35 0.35 -0.95 0.05 -1.75z m-0.55 -4.45 c0 -0.25 -0.35 -0.50 -0.75 -0.50 -0.40 0 -0.75 0.25 -0.75 0.50 0 0.30 0.35 0.50 0.75 0.50 0.40 0 0.75 -0.20 0.75 -0.50z m3.95 -9 c0.40 -0.70 1.35 -2 2.20 -2.85 0.85 -0.90 1.40 -1.75 1.30 -1.90 -0.60 -0.55 -4.50 5.05 -5.20 7.40 -1.05 3.55 -0.90 4.70 0.20 1.35 0.45 -1.50 1.15 -3.30 1.50 -4z"/>
  <path d="M18.20 19.25 c1.25 -0.95 1.80 -0.95 1.80 0 0 0.50 -0.50 0.75 -1.35 0.75 -1.35 -0.05 -1.35 -0.05 -0.45 -0.75z"/>
  <path d="M37.50 24.75 c0 -1.55 0.15 -1.75 1.25 -1.75 1.10 0 1.25 0.20 1.25 1.75 0 1.55 -0.15 1.75 -1.25 1.75 -1.10 0 -1.25 -0.20 -1.25 -1.75z"/>
  <path d="M0.50 21.20 c0 -1.15 0.95 -2.70 1.65 -2.70 0.45 0 0.60 0.55 0.45 1.75 -0.15 1.30 -0.45 1.75 -1.15 1.75 -0.55 0 -0.95 -0.35 -0.95 -0.80z"/>
  <path d="M31 8.40 c0 -1.35 0.20 -1.90 0.75 -1.90 0.95 0 0.95 0.85 0 2.50 l-0.70 1.25 -0.05 -1.85z"/>
  <path d="M22.15 4.25 c0.20 -0.45 0.35 -0.95 0.35 -1.05 0 -0.10 0.35 -0.20 0.75 -0.20 0.40 0 0.75 -0.25 0.75 -0.55 0 -0.25 0.25 -0.35 0.50 -0.20 0.65 0.40 -0.15 1.55 -1.65 2.35 -0.85 0.45 -0.95 0.40 -0.70 -0.35z"/>
  <path d="M28.30 3.40 c1.15 -2.30 1.20 -2.30 1.20 -0.25 0 1.50 -0.20 1.85 -1 1.85 -1 0 -1 -0.05 -0.20 -1.60z"/>
  <path d="M10.55 1.65 c-0.05 -0.90 0.20 -1.65 0.45 -1.65 0.60 0 0.60 0.85 0 2.25 -0.35 0.85 -0.45 0.75 -0.45 -0.60z"/>
  <path d="M11.50 2.60 c0 -0.55 1.75 -2.60 2.20 -2.60 0.20 0 0.30 0.60 0.20 1.40 -0.10 0.95 -0.45 1.40 -1.25 1.50 -0.65 0.10 -1.15 -0.05 -1.15 -0.30z"/>
  <path d="M26 2 c0 -0.25 0.50 -0.50 1.15 -0.50 0.90 0 0.95 0.10 0.35 0.50 -0.95 0.65 -1.50 0.65 -1.50 0z"/>
 </g>
 <g fill="#5e3878">
  <path d="M7.05 38.90 c0.05 -0.65 0.20 -1.80 0.40 -2.55 l0.30 -1.45 1.15 1.25 c1.15 1.20 1.15 1.30 0.35 2.55 -1.05 1.60 -2.25 1.70 -2.20 0.20z"/>
  <path d="M9.45 39.10 c0.25 -0.50 1.05 -1.20 1.75 -1.60 1.20 -0.65 1.25 -0.75 0.55 -1.80 -1.05 -1.60 -0.95 -1.90 0.70 -2.55 1.45 -0.50 4.05 -0.35 4.05 0.30 -0.05 1.25 -0.75 2.55 -1.45 2.55 -0.50 0 -0.60 0.15 -0.25 0.40 0.30 0.20 0.55 1.10 0.55 2 l0 1.60 -3.20 0 c-2.90 0 -3.15 -0.10 -2.70 -0.90z"/>
  <path d="M30.35 37.40 c0.35 -2.05 0.35 -2.05 1.60 -1.65 0.75 0.20 1.05 0.75 1.05 1.80 0 1.30 -0.20 1.45 -1.50 1.45 -1.40 0 -1.45 -0.10 -1.15 -1.60z"/>
  <path d="M36 37.25 c0 -1.80 1 -2.75 2.95 -2.75 0.90 0 1.05 0.30 1.05 2.25 0 2.10 -0.10 2.25 -1.35 2.25 -0.80 0 -1.15 -0.20 -0.85 -0.40 0.30 -0.20 0.65 -0.75 0.85 -1.25 0.30 -0.80 0.25 -0.80 -0.90 -0.05 -0.70 0.45 -1.10 1 -0.95 1.25 0.15 0.25 0 0.45 -0.25 0.45 -0.30 0 -0.55 -0.80 -0.55 -1.75z"/>
  <path d="M9.25 36 c-0.50 -0.55 -0.65 -1 -0.35 -1 0.35 0 0.60 -0.50 0.60 -1.10 0 -0.85 0.25 -0.65 1 0.85 1.20 2.35 1.20 2.25 0.35 2.25 -0.40 0 -1.10 -0.45 -1.60 -1z"/>
  <path d="M32.75 33 c-0.20 -0.80 -0.65 -1.50 -1.05 -1.50 -0.95 0 -0.90 -1.60 0.20 -2.80 0.45 -0.55 1.10 -1.45 1.40 -1.95 0.85 -1.55 1.60 -1.40 1.85 0.35 l0.20 1.65 0.05 -1.60 c0.05 -0.90 0.30 -1.65 0.55 -1.65 0.95 0 1.35 4.30 0.75 7.45 -0.30 1.35 -0.55 1.55 -1.95 1.55 -1.45 0 -1.70 -0.20 -2 -1.50z m2.45 -2.25 c0.35 -1.70 -0.35 -0.75 -0.95 1.25 -0.25 0.80 -0.20 1.10 0.15 0.75 0.25 -0.25 0.60 -1.15 0.80 -2z"/>
  <path d="M2.70 32.95 c-0.40 -0.70 0.40 -1.50 1.65 -1.60 0.65 0 0.95 -0.30 0.80 -0.70 -0.15 -0.35 -0.05 -0.65 0.20 -0.65 1.10 0 3.60 -2.85 3.90 -4.50 l0.30 -1.75 -0.95 2.05 c-1.20 2.55 -5.45 5.75 -6.15 4.65 -0.95 -1.50 -0.50 -2.45 1.20 -2.50 1.45 -0.05 1.50 -0.10 0.35 -0.40 -0.90 -0.25 -1.30 -0.75 -1.40 -1.70 -0.15 -1.40 1.15 -3.35 1.50 -2.25 0.10 0.30 0.50 0.40 0.80 0.20 0.35 -0.20 0.50 -0.80 0.35 -1.30 -0.40 -1.30 0.25 -3.50 1.05 -3.50 0.50 0 0.55 0.30 0.20 1.30 -0.60 1.55 -0.60 1.70 -0.05 1.70 0.25 0 0.60 -0.70 0.80 -1.50 0.20 -0.85 0.65 -1.85 1.05 -2.25 0.95 -0.90 0.50 -1.75 -0.85 -1.75 -0.85 0 -1 -0.30 -0.85 -1.60 0.15 -1.50 0.30 -1.65 2.05 -1.80 1.65 -0.15 1.85 -0.05 1.85 1.05 0 1.70 0.45 1.90 1.55 0.80 1.20 -1.20 4.45 -1.35 4.45 -0.20 0 0.95 0.70 0.95 1.70 0 0.40 -0.45 2.05 -0.95 3.65 -1.15 2.45 -0.30 2.90 -0.50 3.05 -1.40 0.15 -0.95 -0.15 -1.15 -2.20 -1.45 -1.70 -0.25 -2.45 -0.15 -2.75 0.35 -0.45 0.75 -8.15 0.80 -10.60 0.05 l-1.45 -0.45 1.85 -1.90 c2.60 -2.75 1.85 -2.75 -0.95 0 -1.30 1.30 -2.45 2.20 -2.65 2.05 -0.15 -0.20 0 -0.65 0.35 -1.10 0.35 -0.40 0.45 -1.10 0.30 -1.55 -0.25 -0.65 -0.10 -0.75 0.65 -0.55 0.60 0.15 1.10 -0.05 1.25 -0.50 0.15 -0.40 0.05 -0.55 -0.20 -0.40 -1 0.60 -0.45 -0.70 0.55 -1.45 1.10 -0.75 2.40 -0.55 3.05 0.40 0.25 0.35 0.40 0.20 0.40 -0.35 0 -0.50 0.35 -1 0.75 -1.15 0.40 -0.20 0.75 -0.60 0.75 -0.95 0 -0.55 -0.25 -0.55 -1.35 0 -1.70 0.90 -2 0.60 -0.95 -1 0.50 -0.75 1.30 -1.25 2.05 -1.25 1.20 0 1.25 0.10 1.20 3.15 -0.05 1.70 -0.15 2.70 -0.30 2.20 -0.10 -0.45 -0.45 -0.85 -0.70 -0.85 -0.80 0 -0.50 1.50 0.70 3.25 l1.20 1.75 1.40 -1.50 c1.60 -1.65 10.25 -6.30 10.25 -5.45 0 0.90 -1.10 2.65 -2.25 3.70 -0.90 0.75 -1.05 1.25 -0.75 2 0.35 0.75 0.45 0.80 0.45 0.20 0.05 -0.45 0.40 -1.15 0.85 -1.50 0.45 -0.35 1.35 -1.80 1.95 -3.20 1.15 -2.50 1.15 -2.50 1.20 -0.85 0.05 2 -1.20 4.60 -2.20 4.60 -0.40 0 -0.75 0.35 -0.75 0.75 0 0.45 0.45 0.75 1.25 0.75 1.50 0 1.55 0.70 0.35 3.05 -0.85 1.70 -0.85 1.75 0 1.70 1.95 -0.15 5 -4.75 5.65 -8.50 0.60 -3.55 0.70 -3.75 2.30 -3.75 l1.50 0 -1 1.45 c-3.05 4.30 -3.80 9.10 -2.30 14.90 l0.75 2.85 -2.35 2.40 c-1.25 1.30 -2.50 2.25 -2.75 2.10 -0.25 -0.15 -0.25 -0.50 -0.10 -0.80 0.20 -0.30 -0.05 -0.30 -0.70 0.05 -1.25 0.65 -3.60 0.70 -4.55 0.10 -0.55 -0.35 -0.10 -0.75 1.75 -1.70 1.35 -0.70 2.80 -1.80 3.20 -2.45 0.75 -1.25 1.10 -4.40 0.40 -4.40 -0.20 0 -0.40 0.90 -0.40 1.95 0 1.60 -0.25 2.15 -1.45 3 -0.80 0.60 -1.80 1.05 -2.15 1.05 -1 0 -2.40 1.60 -2.85 3.30 -0.35 1.40 -0.45 1.45 -3.90 1.45 -3.95 0 -5.65 0.95 -5.65 3.10 0 1.05 -0.20 1.15 -2.20 1.15 -1.25 0 -2.35 0.20 -2.55 0.50 -0.15 0.25 -0.55 0.35 -0.90 0.25 -2.55 -0.75 -3.45 -0.80 -3.20 -0.05 0.35 0.90 -0.90 1.10 -1.45 0.25z m5.80 -2.45 c0.65 -0.45 0.65 -0.50 0 -0.45 -0.40 0 -1.20 0.20 -1.75 0.45 l-1 0.45 1 0 c0.55 0 1.35 -0.20 1.75 -0.45z m4.90 -2.80 c0.45 -0.35 1.25 -0.70 1.70 -0.70 1.25 0 1.65 -1 0.40 -1 -1.35 0 -4 2.60 -3.95 3.85 0 0.70 0.10 0.65 0.50 -0.30 0.25 -0.65 0.85 -1.50 1.35 -1.85z m-6.25 -1.20 c-0.15 -0.55 -0.45 -1 -0.70 -1 -0.25 0 -0.45 0.45 -0.45 1 0 0.55 0.30 1 0.70 1 0.45 0 0.60 -0.35 0.45 -1z m-3 -0.55 c0.20 -0.80 0.15 -0.90 -0.45 -0.40 -0.80 0.65 -0.95 1.45 -0.25 1.45 0.25 0 0.55 -0.45 0.70 -1.05z m15.25 -2.80 c-0.50 -0.10 -1.30 -0.10 -1.75 0 -0.50 0.15 -0.10 0.25 0.85 0.25 0.95 0 1.35 -0.10 0.90 -0.25z m-3.35 -2.10 c2 -2.05 6.35 -4 6.95 -3 0.20 0.30 0.65 0 1.15 -0.75 0.95 -1.40 1.40 -1.40 -4.30 0.35 -1.30 0.45 -3.15 1.35 -4.10 2.05 -0.90 0.70 -2.10 1.30 -2.60 1.30 -0.85 0.05 -0.85 0.05 0 0.55 0.45 0.30 0.75 0.70 0.60 1 -0.75 1.15 0.65 0.25 2.30 -1.50z m6.75 -0.30 c0.50 0 1 -0.40 1.10 -0.85 0.15 -0.70 -0.15 -0.90 -1.15 -0.90 -1.95 0 -4.90 1.35 -4.45 2.10 0.30 0.45 0.45 0.45 0.60 0 0.10 -0.35 0.65 -0.60 1.15 -0.60 0.55 0 0.85 0.25 0.70 0.50 -0.15 0.30 -0.15 0.75 0.05 1.10 0.25 0.40 0.50 0.30 0.70 -0.40 0.20 -0.50 0.75 -0.95 1.30 -0.95z m-10.75 -1.30 c0.80 -0.80 1 -0.85 1.70 -0.15 0.65 0.70 0.75 0.70 0.75 0 0 -0.45 -0.40 -0.80 -0.85 -0.80 -0.70 0 -0.60 -0.20 0.35 -1.25 0.65 -0.70 0.95 -1.25 0.65 -1.25 -0.95 0 -4.15 4.10 -4.10 5.20 0.05 0.90 0.10 0.95 0.30 0.15 0.15 -0.55 0.65 -1.35 1.20 -1.90z m0.70 -11.35 c-0.30 -0.35 -1.75 0.90 -1.75 1.55 0 0.25 0.45 0.10 1 -0.40 0.55 -0.50 0.90 -1 0.75 -1.15z"/>
  <path d="M14.60 31.70 c-0.60 -0.40 -1.10 -1.05 -1.10 -1.35 0 -0.45 0.10 -0.45 0.40 0 0.20 0.30 1.20 0.70 2.25 0.90 1 0.20 1.85 0.55 1.85 0.80 0 0.75 -2.20 0.50 -3.40 -0.35z"/>
  <path d="M37 25.15 c0 -0.50 0.15 -2.10 0.30 -3.50 0.30 -2.35 0.45 -2.65 1.50 -2.65 1.10 0 1.20 0.20 1.20 2.70 0 1.70 -0.25 2.80 -0.60 2.95 -0.50 0.20 -0.50 0.30 0 0.30 1.30 0.10 0.50 1.05 -0.90 1.05 -1.10 0 -1.50 -0.25 -1.50 -0.85z"/>
  <path d="M34.30 18.25 c-1.10 -4.40 -1 -6.25 0.45 -9.85 1.40 -3.45 2.95 -5.40 4.35 -5.40 0.75 0 0.90 0.40 0.90 2.25 0 1.80 -0.15 2.25 -0.90 2.25 -0.45 0 -1.15 0.45 -1.50 1 -0.35 0.55 -1.05 1 -1.55 1 -1 0 -1.55 1.30 -1.55 3.80 0 1.90 0.95 4.70 1.55 4.70 0.25 0 0.45 0.80 0.45 1.75 0 3 -1.30 2.15 -2.20 -1.50z"/>
  <path d="M4.50 16.75 c-0.55 -1.45 0.35 -4.80 1.40 -5.15 0.45 -0.15 0.55 0.45 0.30 2.65 -0.25 2.20 -0.20 2.95 0.35 3.30 0.55 0.30 0.40 0.45 -0.45 0.45 -0.75 0 -1.30 -0.40 -1.60 -1.25z"/>
  <path d="M29 11.90 c0 -0.80 0.20 -1.40 0.45 -1.40 0.25 0 0.55 -0.40 0.70 -0.85 1.55 -4.85 2.25 -6.35 2.60 -5.55 0.50 1.20 -1.05 5.90 -2.55 7.70 l-1.15 1.45 -0.05 -1.35z"/>
  <path d="M17.60 7 c0.35 -0.55 0.90 -1 1.25 -1 0.95 0 0.80 0.30 -0.60 1.20 -1.25 0.85 -1.25 0.80 -0.65 -0.20z"/>
  <path d="M22 4.50 c0 -0.60 1.40 -1.25 1.80 -0.85 0.15 0.15 -0.20 0.50 -0.75 0.85 -0.75 0.35 -1.05 0.35 -1.05 0z"/>
 </g>
 <g fill="#5b5960">
  <path d="M11.50 37.55 c0 -0.25 -0.45 -0.55 -1 -0.70 -0.55 -0.15 -1 -0.60 -1 -1.05 0 -0.45 -0.30 -0.80 -0.70 -0.80 -0.40 0 -0.85 -0.55 -1 -1.25 -0.25 -0.95 -0.65 -1.25 -1.65 -1.25 -1.30 0 -1.35 -0.05 -0.40 -0.65 1.60 -1.10 4.25 -1.45 4.25 -0.60 0 0.40 -0.40 0.75 -0.85 0.75 -0.75 0 -0.75 0.05 0.10 0.65 0.50 0.40 0.75 0.95 0.55 1.25 -0.20 0.35 -0.15 0.60 0.10 0.60 0.25 0 0.75 0.55 1.10 1.25 0.40 0.70 1 1.15 1.35 1.05 0.35 -0.15 0.65 0.05 0.65 0.45 0 0.40 -0.35 0.75 -0.75 0.75 -0.40 0 -0.75 -0.20 -0.75 -0.45z"/>
  <path d="M3.15 35.90 c0.10 -0.35 0.60 -0.60 1.10 -0.50 0.65 0.15 0.55 -0.15 -0.45 -1.15 -1.30 -1.30 -1.50 -2.25 -0.50 -2.60 0.25 -0.10 0.75 0.55 1.15 1.35 0.45 1.15 0.80 1.40 1.25 1.05 1.15 -0.95 1.85 0.40 0.75 1.50 -1.05 1.05 -3.65 1.35 -3.30 0.35z"/>
  <path d="M11.80 35.25 c-0.15 -0.45 0 -0.75 0.45 -0.75 0.40 0 0.75 0.35 0.75 0.75 0 0.40 -0.20 0.75 -0.45 0.75 -0.25 0 -0.55 -0.35 -0.75 -0.75z"/>
  <path d="M14.45 31.50 l-1.20 -1 1.45 -1.30 c1 -0.90 1.30 -1.40 0.85 -1.65 -0.40 -0.25 -0.15 -0.55 0.70 -0.95 1.45 -0.65 2.75 -0.30 2.75 0.75 0 0.50 -0.30 0.65 -0.85 0.45 -0.75 -0.30 -0.75 -0.20 0.10 0.70 0.90 1 0.90 1 -0.60 1 -1.35 0 -1.45 0.10 -1.25 1.50 0.25 1.75 -0.30 1.90 -1.95 0.50z"/>
  <path d="M12 31.05 c0 -1.55 0.55 -2.55 1.40 -2.55 0.60 0 0.65 0.15 0.20 0.60 -0.35 0.35 -0.60 1.10 -0.60 1.75 0 0.65 -0.20 1.15 -0.50 1.15 -0.25 0 -0.50 -0.45 -0.50 -0.95z"/>
  <path d="M19.50 30.50 c0 -0.65 0.35 -1 0.95 -1 0.50 0 1.65 -0.15 2.50 -0.30 1.30 -0.30 1.55 -0.20 1.55 0.70 0 1.05 -1.20 1.60 -3.60 1.60 -1.05 0 -1.40 -0.25 -1.40 -1z"/>
  <path d="M0.65 24.65 c-0.35 -0.75 -0.65 -1.85 -0.65 -2.50 0 -1.20 1.95 -4.65 2.65 -4.65 0.50 0 0.45 1.10 -0.10 1.95 -0.30 0.45 -0.30 1.20 0 1.90 0.85 2.25 2.95 3.60 2.95 1.90 0 -0.40 0.25 -0.75 0.50 -0.75 0.30 0 0.50 0.80 0.50 1.75 0 1.40 -0.20 1.75 -1 1.75 -0.55 0 -1 -0.25 -1 -0.60 0 -0.45 -0.15 -0.45 -0.60 0 -1.05 1.05 -2.60 0.70 -3.25 -0.75z"/>
  <path d="M7 22.55 c0 -1.85 0.60 -2.55 2.05 -2.55 1.20 0 1.45 0.20 1.45 1.25 0 1.40 -0.15 1.45 -1.65 0.70 -1.10 -0.60 -1.10 -0.60 -0.15 0.50 0.95 1.05 0.95 1.05 -0.35 1.05 -1 0 -1.35 -0.25 -1.35 -0.95z"/>
  <path d="M27.10 12.15 c-1.05 -1.95 -0.75 -2.65 1.15 -2.65 1.60 0 1.75 0.10 1.75 1.45 0 0.85 -0.20 1.65 -0.50 1.80 -0.25 0.15 -0.50 -0.05 -0.50 -0.45 0 -1.10 -0.90 -1 -1.10 0.10 -0.15 0.75 -0.25 0.70 -0.80 -0.25z"/>
  <path d="M7.50 6.40 c0 -1.60 0.10 -1.75 1.55 -1.80 1.85 -0.05 2.40 1.05 1.20 2.40 -1.10 1.25 -1.95 1.30 -1.55 0.15 0.25 -0.75 0.20 -0.75 -0.45 0.05 -0.70 0.95 -0.75 0.90 -0.75 -0.80z"/>
  <path d="M27.65 4.90 c0.95 -2.30 1.85 -2.40 1.85 -0.20 0 1.60 -0.15 1.80 -1.25 1.80 -1.20 0 -1.25 -0.05 -0.60 -1.60z"/>
  <path d="M26 4.95 c0 -0.75 0.35 -1.45 0.75 -1.65 0.95 -0.35 0.95 -0.25 0 1.50 l-0.75 1.45 0 -1.30z"/>
  <path d="M14 3.25 c0 -0.40 -0.20 -0.75 -0.50 -0.75 -0.25 0 -0.50 0.25 -0.50 0.50 0 0.30 -0.20 0.50 -0.50 0.50 -0.70 0 -0.65 -1.65 0.10 -2.40 0.35 -0.35 1.15 -0.60 1.80 -0.60 1 0 1.15 0.20 0.90 1.15 -0.15 0.60 -0.30 1.40 -0.30 1.75 0 0.30 -0.20 0.60 -0.50 0.60 -0.25 0 -0.50 -0.35 -0.50 -0.75z"/>
  <path d="M29.10 1.40 c0.25 -1.70 1.90 -1.85 1.90 -0.20 0 1 -0.25 1.30 -1.05 1.30 -0.75 0 -1 -0.25 -0.85 -1.10z"/>
  <path d="M27.50 1.15 c0 -0.65 0.25 -1.15 0.50 -1.15 0.65 0 0.65 0.55 0 1.50 -0.40 0.60 -0.50 0.55 -0.50 -0.35z"/>
 </g>
 <g fill="#9f3d42">
  <path d="M14 9.25 c0 -0.40 -0.25 -0.75 -0.55 -0.75 -0.25 0 -0.35 -0.25 -0.15 -0.60 0.25 -0.35 0.55 -0.25 1.05 0.35 0.80 1.10 0.85 1.75 0.15 1.75 -0.25 0 -0.50 -0.35 -0.50 -0.75z"/>
  <path d="M18 8.50 c2 -1.75 9.50 -5.70 9.50 -4.95 0 0.25 -0.15 0.45 -0.35 0.45 -0.25 0 -1.05 0.55 -1.85 1.25 -0.80 0.70 -1.75 1.25 -2.15 1.25 -0.35 0 -1.50 0.55 -2.55 1.15 -1 0.65 -2.40 1.45 -3.10 1.80 -1 0.45 -0.90 0.25 0.50 -0.95z"/>
  <path d="M28.50 7.05 c0 -1.10 0.25 -2.15 0.50 -2.30 0.75 -0.50 0.60 -1.40 -0.20 -1.10 -0.60 0.25 -0.60 0 0.05 -1.55 1.05 -2.55 1.35 -2.70 1 -0.45 -0.30 1.80 -0.25 1.85 1.20 1.85 1.85 0 2.20 0.80 1.45 3.45 -0.50 1.90 -0.65 2.05 -2.25 2.05 -1.70 0 -1.75 -0.05 -1.75 -1.95z"/>
  <path d="M14.75 7 c-0.40 -1.75 -0.65 -1.85 -1.55 -0.60 -0.60 0.80 -0.65 0.80 -0.70 -0.20 0 -0.60 0.35 -1.35 0.75 -1.70 0.40 -0.35 0.75 -1.10 0.75 -1.70 -0.05 -1 -0.10 -1 -0.70 -0.15 -0.35 0.45 -0.85 0.85 -1.05 0.85 -0.25 0 -0.85 0.35 -1.35 0.85 -0.55 0.45 -0.90 0.55 -0.90 0.25 0 -0.35 -0.55 -0.60 -1.25 -0.60 -0.90 0 -1.25 -0.25 -1.25 -0.95 0 -1.85 0.60 -2.55 2.05 -2.55 1.25 0 1.45 0.20 1.45 1.40 0.05 1.15 0.10 1.20 0.55 0.50 0.25 -0.50 0.85 -0.90 1.20 -0.90 0.40 0 0.75 -0.35 0.75 -0.75 0 -0.45 0.50 -0.75 1.30 -0.75 1.05 0 1.25 0.15 0.95 0.90 -0.20 0.45 -0.45 1.55 -0.60 2.35 -0.15 1.25 -0.10 1.35 0.30 0.50 0.25 -0.55 0.60 -1.60 0.75 -2.35 0.30 -1.30 0.45 -1.40 3.05 -1.40 2.05 0 2.75 0.20 2.75 0.70 0 0.40 -0.20 0.90 -0.50 1.05 -0.25 0.15 -0.50 0.90 -0.50 1.60 0 1.35 -3.20 4.90 -4 4.40 -0.25 -0.15 -0.55 -0.05 -0.75 0.25 -0.55 0.90 -1.15 0.50 -1.50 -1z m3.65 -1.10 c0.55 -0.90 1.15 -2.30 1.35 -3.15 0.20 -1 -0.15 -0.55 -1.20 1.45 -0.85 1.60 -1.55 3 -1.55 3.10 0 0.55 0.55 0 1.40 -1.40z"/>
  <path d="M22.15 4.30 c0.20 -0.50 0.35 -1.10 0.35 -1.35 0 -0.25 0.35 -0.45 0.75 -0.45 0.40 0 0.75 -0.20 0.75 -0.50 0 -0.25 -0.35 -0.50 -0.75 -0.50 -0.40 0 -0.75 -0.35 -0.75 -0.75 0 -0.40 0.40 -0.75 0.95 -0.75 1.25 0 1.70 2.70 0.60 3.65 -1.55 1.35 -2.25 1.60 -1.90 0.65z"/>
  <path d="M26 1.25 c0 -1 0.25 -1.25 1.25 -1.25 1.45 0 1.60 0.60 0.45 1.70 -1.10 1.15 -1.70 1 -1.70 -0.45z"/>
 </g>
 <g fill="#6b4886">
  <path d="M0 39.60 c0 -0.25 0.55 -0.90 1.25 -1.50 l1.25 -1.10 0 1.50 c0 1.25 -0.20 1.50 -1.25 1.50 -0.70 0 -1.25 -0.20 -1.25 -0.40z"/>
  <path d="M8.25 38.25 c0.20 -1.10 0.35 -2.30 0.35 -2.60 0.05 -0.35 0.25 -0.65 0.50 -0.65 0.20 0 0.40 -0.20 0.40 -0.50 0 -0.25 -0.35 -0.50 -0.75 -0.50 -0.40 0 -0.75 -0.35 -0.75 -0.75 0 -1.55 1.50 -0.65 2.45 1.50 0.55 1.25 1.20 2.25 1.45 2.25 0.95 0 1 -0.65 0.05 -1.65 -0.50 -0.55 -0.95 -1.20 -0.95 -1.40 0 -0.45 4.35 -1.10 4.95 -0.75 0.25 0.20 0.15 1.45 -0.25 3.05 -0.40 1.55 -0.60 3 -0.45 3.25 0.20 0.30 -0.90 0.50 -2.70 0.50 -1.70 0 -3.05 -0.20 -3.05 -0.45 0 -0.65 1.30 -1.60 1.65 -1.20 0.20 0.15 0.35 0 0.35 -0.40 0 -0.40 -0.60 -0.95 -1.30 -1.30 -1.10 -0.50 -1.20 -0.45 -1 0.25 0.15 0.45 -0.10 1.40 -0.50 2.10 -0.75 1.20 -0.75 1.20 -0.45 -0.75z"/>
  <path d="M35 38.50 c0 -1.15 0.25 -1.50 0.95 -1.50 0.70 0 1.05 -0.40 1.15 -1.35 0.10 -1.10 0.45 -1.45 1.55 -1.55 1.90 -0.25 1.75 0.85 -0.50 2.70 -1.15 0.95 -1.60 1.65 -1.25 1.90 0.30 0.15 1.10 -0.30 1.80 -1.05 l1.30 -1.40 0 1.90 0 1.85 -2.50 0 c-2.45 0 -2.50 -0.05 -2.50 -1.50z"/>
  <path d="M3.50 36 c0 -0.70 0.20 -0.90 0.90 -0.65 0.60 0.25 0.45 -0.10 -0.55 -1.30 -0.75 -0.90 -1.25 -1.85 -1.05 -2.10 0.50 -0.80 0.95 -0.50 1.55 1.10 0.50 1.30 0.75 1.50 1.30 1.05 0.90 -0.75 1.35 -0.25 1.35 1.50 0 1.25 -0.15 1.40 -1.75 1.40 -1.40 0 -1.75 -0.20 -1.75 -1z"/>
  <path d="M33.35 35.15 c0.30 -0.80 0.25 -0.80 -0.55 -0.20 -0.80 0.65 -0.85 0.45 -0.75 -3.20 0.10 -3.55 0.20 -4.05 1.55 -5.45 l1.45 -1.55 -0.25 2 c-0.70 4.80 -0.75 6.25 -0.35 6.25 0.60 0 1.05 -2.60 1.05 -6.05 0 -2.30 0.15 -2.90 0.90 -3.10 0.70 -0.20 0.70 -0.25 0.05 -0.30 -0.60 -0.05 -1.10 -1.30 -1.95 -4.60 -1.75 -7.10 -1.05 -10.15 3.05 -12.75 1.15 -0.70 1.90 -1.40 1.75 -1.55 -0.15 -0.15 -0.85 0.10 -1.60 0.55 -1.95 1.30 -2 0.60 -0.15 -1.65 0.90 -1.15 1.50 -2.20 1.30 -2.35 -0.50 -0.55 -3.30 2.95 -4.85 6.05 -1.60 3.25 -1.80 3.40 -0.95 0.75 0.30 -0.95 0.50 -3.15 0.45 -4.85 l-0.05 -3.15 2.55 0 c3.35 0 4 0.70 4 4.20 0 2.15 -0.15 2.80 -0.75 2.80 -0.40 0 -0.75 0.35 -0.75 0.75 0 0.40 -0.35 0.75 -0.75 0.75 -0.40 0 -0.75 0.35 -0.75 0.75 0 0.45 -0.35 0.90 -0.75 1.05 -0.95 0.40 -1 3.40 -0.15 7.05 0.65 2.80 1.40 3.55 1.40 1.40 0 -1 0.25 -1.25 1.25 -1.25 1.10 0 1.25 0.20 1.25 1.80 0 1.05 -0.20 1.65 -0.50 1.45 -0.25 -0.15 -0.50 0.05 -0.50 0.45 0 0.45 0.25 0.80 0.50 0.80 0.90 0 0.55 2 -0.35 2 -0.85 0.05 -0.85 0.05 0 0.70 1.25 0.95 1.05 1.80 -0.40 1.80 -1 0 -1.25 0.25 -1.25 1.25 0 0.85 -0.30 1.25 -0.85 1.30 -0.55 0 -0.65 0.15 -0.25 0.30 0.65 0.25 0.85 3.65 0.15 3.65 -0.25 0 -0.55 0.70 -0.70 1.50 -0.25 1.20 -0.60 1.50 -1.55 1.50 -1 0 -1.20 -0.20 -0.95 -0.85z"/>
  <path d="M4.90 32.20 c-0.95 -0.90 -0.70 -1 4.25 -1.25 2.10 -0.10 2.55 -0.30 3 -1.40 0.30 -0.70 0.90 -1.50 1.35 -1.80 1.40 -0.90 4.10 -1.70 4.85 -1.40 0.40 0.15 1.25 -0.25 1.90 -0.85 1.55 -1.45 0.90 -2.50 -1.45 -2.50 -0.90 0 -1.85 -0.25 -2.20 -0.60 -0.35 -0.35 -0.60 -0.40 -0.60 -0.10 0 1 1.25 1.70 3 1.70 1.60 0.05 1.70 0.10 0.80 0.75 -0.50 0.40 -1.95 0.85 -3.25 1.05 -3 0.45 -3.90 0.90 -4.80 2.70 -0.90 1.70 -1.80 2 -1.40 0.50 0.20 -0.65 -0.05 -1.30 -0.60 -1.70 -0.90 -0.65 -0.95 -0.55 0.95 -4.15 0.45 -0.85 0.80 -1.85 0.80 -2.25 0 -0.40 0.80 -1.65 1.75 -2.75 1.85 -2.20 2.20 -2.95 1.05 -2.30 -1.35 0.75 -3.80 4.30 -3.80 5.45 0 1.20 -0.70 1.60 -1.25 0.70 -0.15 -0.25 -0.55 -0.50 -0.85 -0.50 -0.35 0 -0.25 0.35 0.20 0.90 1.25 1.45 -0.30 4.85 -3.10 6.90 -2.70 1.95 -2.80 2 -3.15 0.70 -0.20 -0.80 0 -1 0.95 -1 0.85 0 1.20 -0.30 1.20 -1 0 -0.65 0.35 -1 1 -1 0.70 0 1 -0.35 1 -1.20 0 -0.65 0.30 -1.35 0.65 -1.45 0.30 -0.15 0.10 -0.30 -0.50 -0.30 -0.65 -0.05 -1.15 -0.10 -1.15 -0.20 0 -0.10 -0.25 -1.50 -0.55 -3.10 -0.40 -2.30 -0.40 -3 0.15 -3.35 0.50 -0.40 0.50 -0.55 0.05 -0.75 -1.30 -0.50 -0.35 -5.15 1.05 -5.15 0.65 0 0.65 0.25 0.15 1.90 -0.70 2.05 -0.55 4.10 0.25 4.10 0.50 0 0.40 1.10 -0.40 3.95 -0.25 0.85 -0.20 1.10 0.20 0.85 0.30 -0.20 0.80 -1.25 1.10 -2.30 0.35 -1.25 0.85 -2 1.30 -2 1.20 0 0.55 -1.20 -0.85 -1.50 -1.45 -0.35 -1.80 -1.90 -0.75 -3.85 0.60 -1.20 0.75 -1.30 1.05 -0.50 0.20 0.45 0.90 0.85 1.50 0.85 0.65 0 1.35 0.20 1.50 0.50 0.15 0.30 1.30 0.50 2.55 0.50 2.20 0 2.20 0 2.20 1.75 0 1.25 -0.20 1.75 -0.80 1.75 -0.60 0 -0.75 0.40 -0.60 1.65 0.15 1.45 0.05 1.60 -1.20 1.60 -1.65 -0.05 -1.85 0.55 -0.35 1 0.80 0.25 0.90 0.50 0.40 1.05 -0.40 0.50 -0.40 0.70 0 0.70 0.55 0 1.20 -0.65 2.80 -2.75 0.65 -0.85 0.80 -0.90 1.30 -0.25 0.40 0.55 0.60 0.60 0.80 0.15 0.10 -0.35 0.75 -0.65 1.45 -0.65 1.05 0 1.15 0.15 0.90 1.50 -0.20 0.95 -0.10 1.50 0.25 1.50 0.30 0 0.55 -0.45 0.55 -1 0 -0.60 0.35 -1 0.90 -1 0.80 -0.05 0.80 -0.05 0 -0.55 -0.50 -0.25 -0.90 -0.85 -0.90 -1.30 0 -0.60 -0.15 -0.65 -0.70 -0.15 -0.40 0.30 -1.25 0.50 -1.90 0.40 -0.90 -0.15 -0.60 -0.35 1.35 -1.05 1.65 -0.55 2.55 -0.70 2.65 -0.35 0.10 0.30 1.20 -0.35 2.40 -1.45 1.35 -1.30 2.45 -1.90 2.95 -1.75 0.40 0.15 0.75 0.10 0.75 -0.10 0 -0.60 2.95 -3.70 3.50 -3.70 0.20 0 0.35 0.95 0.30 2.10 -0.10 1.95 0.60 6 1.40 7.90 0.20 0.50 -0.55 1.60 -2.20 3.25 -1.60 1.60 -2.50 2.15 -2.50 1.65 0 -0.45 0.35 -0.95 0.80 -1.10 0.45 -0.20 0.70 -0.45 0.55 -0.60 -0.15 -0.20 -1 0.20 -1.80 0.80 -1.30 0.90 -1.85 1 -3.65 0.60 l-2.15 -0.40 2.60 -1.35 c2.70 -1.40 4.40 -3.30 4 -4.45 -0.10 -0.35 0 -1.05 0.25 -1.50 0.30 -0.65 0.25 -0.90 -0.30 -0.90 -0.90 0 -1.25 1 -0.95 2.60 0.20 1 -0.05 1.50 -1.05 2.15 -1.60 1.05 -2.15 0.70 -1.45 -0.90 1.05 -2.15 1.10 -3.25 0.10 -3.50 -0.85 -0.25 -0.95 -0.05 -0.65 1.40 0.40 2.10 -0.30 3.40 -2.40 4.40 -0.90 0.45 -1.40 0.85 -1.10 0.85 0.35 0 0.45 0.65 0.25 1.90 l-0.35 1.85 -2.95 -0.05 c-2.30 -0.05 -2.70 0.05 -1.80 0.40 1.55 0.55 0.90 1.25 -1.70 1.65 l-2 0.30 1.20 -1.05 c0.65 -0.55 1.05 -1.15 0.85 -1.35 -0.55 -0.55 -2.80 2 -2.80 3.20 0 0.95 -0.25 1.15 -1.70 1.15 -0.90 0 -2.65 0.15 -3.85 0.30 -1.20 0.15 -2.35 0.10 -2.55 -0.10z m28.10 -10.25 c0 -0.25 -0.30 -0.40 -0.60 -0.30 -0.35 0.05 -0.60 -0.20 -0.50 -0.55 0.05 -0.40 -0.10 -0.55 -0.40 -0.35 -0.40 0.25 -0.40 0.55 0 1 0.35 0.40 0.40 1 0.20 1.35 -0.30 0.50 -0.15 0.45 0.45 -0.05 0.45 -0.35 0.85 -0.85 0.85 -1.10z"/>
  <path d="M14.75 31.50 c-0.90 -1 -0.85 -1 0.90 -1 1.50 0 1.85 0.20 1.85 1 0 0.65 -0.35 1 -0.90 1 -0.55 0 -1.35 -0.45 -1.85 -1z"/>
  <path d="M7 29.10 c1.95 -1.75 2.50 -1.95 2.50 -0.90 0 0.95 -0.95 1.65 -2.75 2.05 l-1.50 0.35 1.75 -1.50z"/>
  <path d="M16.50 16.55 c0 -1 0.25 -1.55 0.70 -1.55 0.40 0 0.80 -0.25 0.90 -0.60 0.10 -0.30 1.55 -0.65 3.30 -0.80 3.20 -0.25 3.65 -0.60 2.30 -2 -1.05 -1 -4.40 -0.95 -5.50 0.10 -0.45 0.45 -1.60 0.80 -2.70 0.80 -1.50 0 -1.95 -0.20 -2.15 -1.05 -0.25 -1 -0.50 -1.05 -2.95 -0.75 l-2.65 0.35 1.25 -1.40 c0.70 -0.75 1.45 -1.60 1.75 -1.90 1.40 -1.40 3.25 -4.30 3.25 -5.10 -0.05 -0.85 -0.10 -0.80 -0.80 0.10 -0.60 0.80 -0.80 0.85 -1.20 0.30 -0.55 -0.90 0.90 -3 2.15 -3.05 1.25 0 1.15 3.70 -0.15 5.35 -0.55 0.70 -1 1.60 -1 1.95 0 0.40 -0.30 0.70 -0.70 0.70 -0.40 0 -0.85 0.35 -1 0.80 -0.55 1.50 0.20 1.45 1.45 -0.05 l1.20 -1.50 0.65 1.65 c0.35 0.85 0.75 1.60 0.95 1.60 0.15 0 1.15 -0.75 2.15 -1.70 1.45 -1.40 9.80 -6.15 9.80 -5.60 0 0.10 -0.35 0.80 -0.75 1.65 -1.20 2.45 -2.50 3.30 -4.40 3 -1.20 -0.20 -2.20 0.05 -3.60 0.95 -1.15 0.70 -1.65 1.20 -1.15 1.20 0.45 0 0.95 -0.20 1.10 -0.45 0.60 -0.90 3.85 -1.15 5.10 -0.30 1 0.65 1.20 0.65 1.20 0.05 0 -0.35 0.35 -1 0.85 -1.35 0.45 -0.40 1.35 -1.80 1.95 -3.20 0.95 -2.10 1.15 -2.30 1.15 -1.20 0.05 0.75 -0.30 2 -0.70 2.75 -0.50 1 -0.65 2.30 -0.45 4.20 0.25 2.65 0.25 2.70 -0.60 1.75 -0.80 -1 -0.80 -1 -0.55 0.25 0.25 0.90 -0.05 1.60 -1 2.60 -0.75 0.80 -1.70 1.40 -2.10 1.40 -0.65 0 -0.65 -0.10 -0.10 -0.45 0.45 -0.30 0.50 -0.55 0.10 -0.75 -0.75 -0.50 -3.75 0.40 -5.55 1.70 l-1.50 1.05 0 -1.50z"/>
  <path d="M18 17.75 c0 -0.45 2.95 -1.75 3.85 -1.70 0.65 0 0.60 0.15 -0.35 0.55 -0.70 0.25 -1.65 0.70 -2.10 0.95 -1 0.50 -1.40 0.55 -1.40 0.20z"/>
  <path d="M28.90 12.25 c-0.10 -0.60 0.25 -1.40 0.90 -2 1.20 -1.15 2.15 -4.55 2.25 -8.10 l0.05 -2.40 0.45 2.75 c0.50 3.20 -0.45 6.95 -2.30 9.30 -1.05 1.30 -1.15 1.35 -1.35 0.45z"/>
  <path d="M6.65 9.25 c0.05 -1.30 0.30 -1.75 0.85 -1.60 0.95 0.15 2.80 -2.10 2.60 -3.25 -0.10 -0.55 0.15 -0.90 0.70 -0.90 0.65 0 0.70 0.15 0.20 0.75 -0.50 0.60 -0.50 0.75 0.20 0.75 0.45 0 0.80 0.15 0.80 0.30 0 0.45 -3.70 3.90 -4.10 3.80 -0.25 -0.05 -0.40 0.20 -0.40 0.60 0 0.40 -0.20 0.85 -0.45 1.05 -0.25 0.15 -0.45 -0.50 -0.40 -1.50z"/>
  <path d="M15 7.20 c0 -1.05 0.15 -1.20 0.65 -0.75 0.40 0.30 0.90 0.35 1.15 0.15 0.25 -0.20 0 0.15 -0.50 0.80 -1.20 1.40 -1.30 1.40 -1.30 -0.20z"/>
  <path d="M22.50 4.10 c0 -0.20 0.45 -0.65 1 -0.95 0.80 -0.55 0.90 -0.50 0.70 0.05 -0.30 0.75 -1.70 1.50 -1.70 0.90z"/>
 </g>
 <g fill="#986a47">
  <path d="M28.80 11.95 c-0.35 -1 -0.45 -1.05 -0.65 -0.30 -0.35 1.30 -0.95 1.05 -1.85 -0.90 -0.80 -1.70 -0.80 -1.80 0.35 -3.85 0.70 -1.20 1.65 -3.20 2.10 -4.50 0.90 -2.40 2.25 -3.25 2.25 -1.40 0 0.55 0.30 1 0.70 1 1.95 0 1 6.75 -1.40 9.75 l-1.15 1.40 -0.35 -1.20z"/>
  <path d="M6.30 9.90 c0.25 -0.35 0.40 -2 0.45 -3.65 0 -1.65 0.35 -3.75 0.75 -4.60 0.60 -1.35 1 -1.65 2.30 -1.65 1.55 0 1.60 0.05 1.50 2 -0.05 1.50 -0.50 2.40 -1.70 3.65 -0.90 0.90 -1.60 1.80 -1.60 2.05 0 0.20 0.60 -0.30 1.30 -1.15 1.25 -1.55 2.20 -2 2.20 -1.10 0 0.60 -2.95 3.55 -3.55 3.55 -0.25 0 -0.45 0.35 -0.45 0.75 0 0.40 -0.35 0.75 -0.80 0.75 -0.45 0 -0.60 -0.25 -0.40 -0.60z"/>
  <path d="M33.30 7.50 c0.15 -0.70 0.50 -1.60 0.75 -2 0.35 -0.65 0.40 -0.65 0.40 0 0 0.40 -0.30 1.30 -0.75 2 l-0.75 1.25 0.35 -1.25z"/>
  <path d="M11.70 2.95 c-0.15 -0.30 0.05 -0.90 0.50 -1.35 0.75 -0.75 0.80 -0.70 0.80 0.55 0 1.35 -0.65 1.80 -1.30 0.80z"/>
 </g>
 <g fill="#81569c">
  <path d="M7 38.90 c-0.05 -1.45 -1 -2.70 -2.25 -3.05 -0.75 -0.15 -0.75 -0.25 -0.20 -0.30 0.45 0 0.95 -0.55 1.10 -1.15 l0.30 -1.10 1.35 1.20 c1.95 1.85 2.30 2.75 1.60 4.20 -0.70 1.60 -1.90 1.70 -1.90 0.20z"/>
  <path d="M14 39.55 c0 -0.20 0.20 -1.05 0.45 -1.85 0.25 -0.80 0.60 -2.05 0.75 -2.80 0.20 -0.80 0.50 -1.40 0.70 -1.40 0.20 0 0.05 1.45 -0.40 3.25 -0.40 1.80 -0.90 3.25 -1.10 3.25 -0.25 0 -0.40 -0.20 -0.40 -0.45z"/>
  <path d="M29.70 38.90 c0.45 -0.60 0.80 -1.75 0.80 -2.55 0 -0.75 0.30 -1.50 0.70 -1.65 0.45 -0.15 0.80 -1.45 1.05 -3.50 0.25 -2.25 0.55 -3.20 1.05 -3.20 0.40 0 0.70 -0.50 0.70 -1.20 0 -0.70 0.20 -1.35 0.45 -1.50 0.55 -0.35 0.15 3.40 -0.55 5.30 -0.35 0.90 -0.35 1.60 0 2.25 0.50 0.80 0.60 0.75 1.10 -0.60 0.30 -0.80 0.60 -3.25 0.65 -5.35 0 -2.15 0.20 -3.90 0.45 -3.90 0.20 0 0.40 -0.45 0.40 -1 0 -0.70 0.35 -1 1.15 -1 1 0 1.10 0.20 0.95 1.95 -0.15 1.60 0 2 0.75 2.20 0.60 0.15 0.45 0.25 -0.45 0.30 -1.30 0.05 -1.40 0.20 -1.40 2.05 0 1.55 -0.20 2 -0.85 2.05 -0.55 0 -0.65 0.15 -0.25 0.30 0.90 0.35 0.80 3.65 -0.15 3.65 -0.45 0 -0.75 0.45 -0.75 1.25 0 1.05 0.25 1.25 1.60 1.25 l1.55 0 -1.05 1.15 c-1.45 1.50 -1.40 2.05 0.15 1.65 0.90 -0.25 1.25 -0.10 1.25 0.45 0 0.55 -0.55 0.75 -2.25 0.75 l-2.25 0 -0.05 -1.85 c-0.05 -1.05 -0.15 -1.50 -0.30 -1 -0.10 0.45 -0.65 0.85 -1.20 0.85 -0.60 0 -0.95 0.35 -0.95 1 0 0.80 -0.35 1 -1.55 1 -1.45 0 -1.50 -0.05 -0.75 -1.10z m4.30 -4.75 c0 -0.20 -0.65 0.30 -1.50 1.10 -0.80 0.80 -1.50 1.65 -1.50 1.95 0 0.30 0.70 -0.20 1.50 -1.10 0.85 -0.90 1.50 -1.80 1.50 -1.95z"/>
  <path d="M8.85 35.60 c-1.15 -1.25 -1.15 -3.25 0.05 -3 0.45 0.10 0.85 0.40 0.85 0.75 0 0.30 0.15 0.75 0.40 0.95 0.50 0.50 0.45 2.20 -0.05 2.20 -0.25 0 -0.80 -0.40 -1.25 -0.90z"/>
  <path d="M4.30 34.60 c-0.65 -1.05 -1.25 -3.10 -0.90 -3.10 0.45 0 1.70 3.10 1.40 3.40 -0.10 0.10 -0.35 -0.05 -0.50 -0.30z"/>
  <path d="M5.30 32.10 c-0.35 -0.55 2 -1.10 4.75 -1.10 1.35 0 1.95 -0.20 1.95 -0.70 0 -0.40 0.50 -1.35 1.15 -2.05 0.85 -1 1.65 -1.30 3.35 -1.40 1.25 -0.10 2.85 -0.55 3.50 -1 1.60 -1.10 2.90 -1.15 2 -0.10 -0.50 0.60 -0.50 0.75 0 0.75 0.50 0 0.50 0.15 0 0.75 -0.65 0.80 -4 1.05 -4 0.30 0 -0.25 -0.75 -0.25 -1.80 -0.05 -1.90 0.45 -3.15 1.70 -3.20 3.15 0 0.50 -0.40 0.90 -1 0.95 -2.50 0.20 -3.85 0.40 -5.05 0.70 -0.75 0.15 -1.45 0.10 -1.65 -0.20z"/>
  <path d="M2.30 29.70 c-0.20 -0.65 -0.15 -1.50 0.05 -1.85 0.40 -0.70 0.45 -0.95 0.55 -3.30 0.10 -1.65 0.10 -1.70 1.10 -0.80 1.30 1.20 1.65 0.25 1.05 -2.90 -0.40 -2.30 -0.40 -2.35 0.80 -2.35 1 0 1.20 0.20 0.90 0.90 -0.20 0.45 -0.50 1.40 -0.65 2.05 -0.40 2 0.80 0.75 1.45 -1.45 0.60 -2 1.45 -2.45 2.85 -1.55 0.45 0.25 0.55 0.85 0.30 1.85 -0.50 2.10 -0.70 2.30 -1.50 1.65 -0.40 -0.30 -0.90 -0.45 -1.05 -0.25 -0.20 0.20 -0.05 0.55 0.30 0.80 0.60 0.35 0.60 0.80 0.05 2.75 -0.50 1.80 -1.10 2.60 -2.70 3.70 -3.20 2.15 -3.15 2.15 -3.50 0.75z m1.90 -3.50 c0.45 -1.20 0.35 -1.40 -0.45 -0.70 -0.85 0.70 -1 1.50 -0.30 1.50 0.25 0 0.60 -0.35 0.75 -0.80z"/>
  <path d="M7.10 29.05 c1.70 -1.50 2.60 -1.60 2.05 -0.25 -0.25 0.70 -2.10 1.70 -3.20 1.70 -0.25 0 0.25 -0.65 1.15 -1.45z"/>
  <path d="M15.75 29 c-0.90 -0.35 -0.90 -0.40 0.40 -0.75 1.05 -0.30 1.65 -0.15 2.25 0.45 0.75 0.75 0.70 0.80 -0.40 0.75 -0.70 0 -1.70 -0.20 -2.25 -0.45z"/>
  <path d="M25.25 25.55 l-1.50 -0.35 2.25 -1.15 c2.05 -1 2.15 -1 1 -0.10 l-1.25 1.05 1.15 0 c0.60 0 1.10 0.25 1.10 0.50 0 0.55 -0.50 0.55 -2.75 0.05z"/>
  <path d="M29.50 25.75 c0 -0.40 4.25 -4.20 4.45 -3.95 0.30 0.25 -3.50 4.20 -4.05 4.20 -0.20 0 -0.40 -0.10 -0.40 -0.25z"/>
  <path d="M15.70 21.80 c0.90 -1.80 1.65 -2.30 3.45 -2.30 0.80 0 1.35 -0.25 1.35 -0.70 0 -0.95 1.85 -1.35 2.20 -0.45 0.15 0.40 0.50 0.55 0.80 0.40 0.25 -0.15 0.50 0.15 0.50 0.70 0 0.60 0.35 1.05 0.75 1.05 1.10 0 0.90 0.85 -0.35 1.70 -2.40 1.70 -4.10 0.05 -2.10 -1.95 0.45 -0.45 0.70 -0.95 0.50 -1.10 -0.40 -0.40 -2.80 2.45 -2.50 2.95 0.45 0.70 -1.40 1.10 -2.85 0.55 -1 -0.40 -1.55 -0.35 -1.95 0.05 -0.30 0.30 -0.25 -0.10 0.20 -0.90z"/>
  <path d="M34.55 18.80 c-0.40 -1.40 -0.70 -3.90 -0.75 -5.55 0 -3.55 1.10 -5.45 4.25 -7.20 l1.95 -1.10 0 1.30 c0 0.75 -0.35 1.40 -0.85 1.60 -0.50 0.20 -1.10 0.60 -1.30 1 -0.20 0.35 -0.70 0.65 -1.05 0.65 -0.40 0 -0.80 0.70 -1 1.55 -0.45 2.40 -0.35 5.95 0.20 5.95 0.75 0 0.60 2.95 -0.15 3.70 -0.55 0.55 -0.75 0.20 -1.30 -1.90z"/>
  <path d="M12.40 20.65 c-0.60 -0.15 -0.75 -0.40 -0.40 -0.80 0.30 -0.35 0.95 -1.20 1.50 -1.90 0.70 -1 1.30 -1.25 2.25 -1.10 1.10 0.25 1.25 0.10 1.25 -1.05 0 -1.15 0.20 -1.30 1.70 -1.30 2.25 0 2.60 0.60 0.80 1.40 -0.80 0.35 -2.25 1.65 -3.25 2.85 -1.80 2.20 -2.10 2.35 -3.85 1.90z"/>
  <path d="M37.50 18.75 c0 -1.55 0.15 -1.75 1.25 -1.75 1.40 0 1.50 0.25 0.65 2.15 -0.90 1.90 -1.90 1.70 -1.90 -0.40z"/>
  <path d="M4.50 15.75 c0 -2.35 1.20 -2.35 1.35 0 0.10 1.30 -0.05 1.75 -0.60 1.75 -0.50 0 -0.75 -0.55 -0.75 -1.75z"/>
  <path d="M11.85 15.95 c-0.80 -0.20 -1.75 -0.65 -2.15 -1 -0.55 -0.45 -0.90 -0.40 -1.70 0.30 -1.25 1.10 -1.75 0.70 -1.30 -1.05 0.35 -1.25 0.45 -1.30 2.70 -1 1.30 0.15 2.45 0.55 2.50 0.80 0.10 0.30 0.85 0.50 1.65 0.50 1.65 0 1.85 0.50 0.60 1.30 -0.55 0.30 -1.50 0.40 -2.30 0.15z"/>
  <path d="M23.40 15.15 c-1.10 -0.30 -1.20 -1.65 -0.10 -1.65 0.40 0 1.10 -0.30 1.50 -0.70 0.60 -0.65 0.50 -0.75 -0.65 -0.90 -1.10 -0.10 -1.45 -0.45 -1.55 -1.50 -0.20 -1.60 0.20 -1.75 1.80 -0.60 1 0.70 1.10 0.70 1.10 -0.15 0.05 -1.25 1.95 -3.75 2 -2.55 0 0.45 -0.20 1 -0.50 1.15 -0.80 0.50 -0.60 2.25 0.25 2.25 0.40 0 0.75 0.45 0.75 1 0 1.25 -0.45 1.25 -1.30 0.15 -0.60 -0.80 -0.65 -0.70 -0.40 0.70 0.20 1 0.10 1.95 -0.30 2.40 -0.65 0.75 -1.05 0.80 -2.60 0.40z"/>
  <path d="M29.95 13.60 c0.30 -0.60 0.80 -1.20 1.10 -1.40 0.40 -0.20 0.40 -0.05 0 0.70 -0.30 0.60 -0.80 1.20 -1.10 1.40 -0.40 0.20 -0.40 0.05 0 -0.70z"/>
  <path d="M14.55 10.90 c0.05 -0.90 0.15 -1.25 0.30 -0.75 0.30 1.05 0.10 1.05 2.90 -0.15 1.30 -0.55 2.65 -1 3.05 -1 0.40 0 0.70 0.45 0.70 1 0 0.70 -0.35 1 -1.05 1 -0.55 0 -1.35 0.35 -1.75 0.75 -0.45 0.40 -1.55 0.75 -2.50 0.75 -1.60 0 -1.70 -0.10 -1.65 -1.60z"/>
  <path d="M28.85 11.50 c-0.20 -0.80 0 -1 1 -1 1.25 0 1.30 0 0.40 1 -0.50 0.55 -0.95 1 -1 1 -0.10 0 -0.25 -0.45 -0.40 -1z"/>
  <path d="M5.50 11.55 c0 -0.20 0.45 -0.95 1 -1.65 0.65 -0.85 0.80 -1.40 0.45 -1.75 -0.70 -0.70 -0.10 -2.65 0.75 -2.65 0.45 0 0.60 0.45 0.40 1.40 l-0.25 1.35 1.35 -1.60 c1.35 -1.60 2.30 -2.10 2.30 -1.20 0 0.60 -2.95 3.55 -3.50 3.55 -0.25 0 -0.55 0.70 -0.75 1.50 -0.30 1.30 -1.75 2.20 -1.75 1.05z"/>
  <path d="M7.95 11.15 c0.75 -1.40 4.55 -4.90 4.55 -4.25 0 0.35 -0.20 0.60 -0.45 0.60 -0.25 0 -0.70 0.70 -1 1.50 -0.25 0.85 -0.85 1.50 -1.25 1.50 -0.45 0 -0.80 0.35 -0.80 0.75 0 0.40 -0.35 0.75 -0.75 0.75 -0.60 0 -0.65 -0.20 -0.30 -0.85z"/>
  <path d="M12.75 9 c0.50 -0.55 1 -0.90 1.15 -0.80 0.25 0.30 -1.15 1.80 -1.70 1.80 -0.20 0 0.05 -0.45 0.55 -1z"/>
  <path d="M19.70 7.30 c1.30 -1.05 3.30 -2 3.30 -1.55 0 0.10 -1.05 0.75 -2.35 1.45 l-2.40 1.30 1.45 -1.20z"/>
  <path d="M31.55 7.50 c0 -0.70 0.20 -1.70 0.45 -2.25 0.40 -0.90 0.45 -0.90 0.45 0.25 0 0.70 -0.20 1.70 -0.45 2.25 -0.40 0.90 -0.45 0.90 -0.45 -0.25z"/>
  <path d="M33 8.30 c-0.05 -1.10 2.05 -4.60 3.10 -5.25 l1.15 -0.70 -1.05 1.20 c-0.60 0.65 -1.55 2.10 -2.10 3.20 -0.60 1.10 -1.05 1.80 -1.10 1.55z"/>
  <path d="M12.80 5.25 c0.20 -0.40 0.50 -0.75 0.75 -0.75 0.25 0 0.45 -0.60 0.45 -1.35 -0.05 -1.35 -0.05 -1.35 -0.75 -0.45 -0.60 0.80 -0.90 0.85 -1.35 0.40 -0.50 -0.50 -0.35 -0.90 0.70 -1.85 1.90 -1.75 2.40 -1.55 2.40 0.95 0 1.75 -0.25 2.35 -1.25 3 -1.05 0.70 -1.20 0.70 -0.95 0.05z"/>
  <path d="M36.50 5.15 c0 -0.25 0.60 -1 1.30 -1.70 1.20 -1.05 1.30 -1.10 0.80 -0.15 -0.65 1.25 -2.10 2.50 -2.10 1.85z"/>
  <path d="M25.30 4.25 c1.25 -0.95 2 -0.95 1.20 0 -0.35 0.40 -1 0.75 -1.40 0.75 -0.65 0 -0.60 -0.15 0.20 -0.75z"/>
  <path d="M10 2.25 c0 -0.95 0.20 -1.75 0.45 -1.75 0.25 0 0.45 0.80 0.40 1.75 -0.05 0.95 -0.25 1.75 -0.45 1.75 -0.20 0 -0.40 -0.80 -0.40 -1.75z"/>
 </g>
 <g fill="#d64b56">
  <path d="M13.50 9 c0 -0.55 0.10 -1 0.25 -1 0.10 0 0.45 0.45 0.75 1 0.45 0.80 0.40 1 -0.25 1 -0.40 0 -0.75 -0.45 -0.75 -1z"/>
  <path d="M15 7.75 c0 -0.45 0.20 -1.75 0.45 -2.90 0.30 -1.15 0.65 -2.75 0.85 -3.60 0.30 -1.35 0.35 -1.40 0.70 -0.50 0.35 0.85 0.45 0.85 0.45 0.15 0.05 -1.20 4.05 -1.30 4.05 -0.15 0 0.55 -0.35 0.70 -1.25 0.45 -1.05 -0.25 -1.25 -0.15 -1.25 0.90 0 1.20 -2.40 5.50 -3.45 6.10 -0.30 0.20 -0.55 0 -0.55 -0.45z"/>
  <path d="M14 4.15 c0 -0.55 -0.15 -1.75 -0.30 -2.60 -0.30 -1.35 -0.20 -1.55 0.75 -1.55 0.95 0 1.05 0.20 0.75 2.15 -0.35 2.30 -1.20 3.75 -1.20 2z"/>
  <path d="M22.50 4 c0 -0.25 0.45 -0.70 1 -1 0.80 -0.40 0.90 -0.40 0.70 0.20 -0.30 0.85 -1.70 1.50 -1.70 0.80z"/>
  <path d="M22.50 0.75 c0 -0.40 0.45 -0.75 1 -0.75 0.55 0 1 0.35 1 0.75 0 0.40 -0.45 0.75 -1 0.75 -0.55 0 -1 -0.35 -1 -0.75z"/>
 </g>
 <g fill="#7a8186">
  <path d="M9.30 35.95 c-1.45 -1.15 -1.85 -3.65 -0.50 -3.35 0.80 0.15 2.95 4.40 2.25 4.40 -0.25 0 -1 -0.45 -1.75 -1.05z"/>
  <path d="M6.50 35.25 c0 -0.70 0.10 -1.25 0.20 -1.25 0.10 0 0.55 0.55 1 1.25 0.80 1.20 0.80 1.25 -0.20 1.25 -0.75 0 -1 -0.35 -1 -1.25z"/>
  <path d="M2.85 33 c-0.15 -0.55 -0.05 -1.15 0.25 -1.30 0.55 -0.35 0.70 -0.25 1.10 1.20 0.25 0.80 0.15 1.10 -0.35 1.10 -0.40 0 -0.85 -0.45 -1 -1z"/>
  <path d="M18.20 32.25 c-0.15 -0.40 -0.15 -0.90 0 -1.20 0.15 -0.25 -0.60 -0.60 -1.70 -0.80 -2.30 -0.40 -2.40 -1.25 -0.35 -1.95 1 -0.40 1.55 -0.30 2.30 0.40 1 0.90 3.45 1.20 4.50 0.60 0.30 -0.20 0.55 -0.10 0.55 0.20 0 0.30 0.50 0.10 1.10 -0.50 0.60 -0.55 1.35 -1 1.70 -1 0.30 0 0.85 -0.35 1.20 -0.75 0.85 -1.05 1.20 -0.60 0.55 0.70 -0.75 1.40 -4.35 3.75 -6.85 4.45 -2.60 0.75 -2.65 0.75 -3 -0.15z"/>
  <path d="M2.50 27.75 c0.35 -0.40 0.80 -0.75 1.05 -0.75 0.25 0 0.45 0.35 0.45 0.75 0 0.45 -0.45 0.75 -1.05 0.75 -0.90 0 -0.95 -0.10 -0.45 -0.75z"/>
  <path d="M18.60 27.45 c0.10 -0.30 0.40 -0.50 0.65 -0.50 0.25 0 0.55 0.20 0.65 0.50 0.10 0.30 -0.20 0.55 -0.65 0.55 -0.45 0 -0.75 -0.25 -0.65 -0.55z"/>
  <path d="M1.70 26.30 c-0.30 -0.35 -0.85 -1.40 -1.20 -2.40 -0.55 -1.55 -0.55 -2.05 0.15 -3.55 0.45 -0.95 1.20 -2 1.70 -2.40 0.75 -0.65 0.80 -0.60 0.45 0.55 -0.70 2.10 -0.45 3.50 0.70 4.75 1.10 1.15 1.10 1.20 0.20 2.45 -1.10 1.45 -1.25 1.50 -2 0.60z"/>
  <path d="M4 26.65 c0.05 -0.20 0.50 -1.20 1 -2.15 l1 -1.75 -0.10 2 c-0.10 1.45 -0.40 2.05 -1 2.15 -0.50 0.10 -0.90 0 -0.90 -0.25z"/>
  <path d="M6.50 22.55 c0 -0.30 0.25 -0.65 0.50 -0.80 0.30 -0.15 0.50 -0.75 0.50 -1.30 0 -0.50 0.20 -0.95 0.45 -0.95 1.15 0 2.05 0.70 2.05 1.60 0 0.75 -0.25 0.90 -1 0.65 -1.05 -0.35 -1.40 0.50 -0.35 0.90 0.30 0.15 0 0.30 -0.75 0.30 -0.80 0.05 -1.40 -0.15 -1.40 -0.40z"/>
  <path d="M17.20 22.30 c-0.60 -1.55 0.05 -2.55 1.70 -2.70 1.35 -0.15 1.60 0 1.60 0.95 0 0.95 -0.20 1.05 -1.50 0.80 -0.85 -0.20 -1.50 -0.10 -1.50 0.15 0 0.30 0.15 0.45 0.40 0.45 0.20 -0.05 0.90 -0.05 1.60 0 1 0.05 1.10 0.15 0.50 0.55 -1.10 0.70 -2.50 0.60 -2.80 -0.20z"/>
  <path d="M12.10 2.50 c0.10 -0.70 0.45 -1.20 0.80 -1.10 0.30 0.05 0.60 -0.25 0.60 -0.65 0 -0.45 0.45 -0.75 1.05 -0.75 0.75 0 0.95 0.20 0.75 0.80 -0.15 0.45 -0.30 1.20 -0.30 1.75 0 0.50 -0.20 0.95 -0.50 0.95 -0.25 0 -0.50 -0.35 -0.50 -0.85 0 -0.70 -0.10 -0.70 -1.05 0.15 -1.05 0.95 -1.05 0.95 -0.85 -0.30z"/>
 </g>
 <g fill="#47ab97">
  <path d="M2.35 26.60 c-1.25 -1.40 -1.05 -2.45 0.45 -2.45 0.85 0 1.15 0.20 1 0.65 -0.15 0.40 -0.45 1.05 -0.60 1.45 -0.50 1.20 0.60 0.85 1.20 -0.35 0.50 -1.15 0.55 -1.15 0.55 0.25 0.05 1.60 -1.35 1.85 -2.60 0.45z"/>
  <path d="M16.80 22.25 c-1.30 -1 -0.75 -1.95 1.80 -3.15 4.60 -2.15 5.60 -1.85 2.95 0.95 -1.15 1.20 -1.70 1.45 -2.75 1.15 -0.80 -0.20 -1.30 -0.10 -1.30 0.25 0 0.30 0.15 0.50 0.40 0.50 0.20 -0.05 0.90 -0.05 1.60 0 1 0.05 1.10 0.15 0.50 0.55 -1.05 0.65 -2.10 0.60 -3.20 -0.25z"/>
  <path d="M21.55 22.35 c-0.05 -0.25 0.55 -1.45 1.35 -2.75 1.30 -2.25 1.35 -2.30 1.50 -0.95 0.15 1.30 -0.80 2.85 -1.80 2.85 -0.30 0 -0.65 0.30 -0.75 0.65 -0.15 0.30 -0.30 0.40 -0.30 0.20z"/>
  <path d="M5 20.55 c0 -0.55 -0.15 -1.30 -0.30 -1.75 -0.25 -0.60 0 -0.80 1 -0.80 1.45 0 1.55 0.25 0.70 2.15 -0.75 1.55 -1.40 1.75 -1.40 0.40z"/>
 </g>
 <g fill="#ba7f5f">
  <path d="M28.70 11.25 c-0.50 -1 -0.40 -1.35 0.35 -2.05 0.55 -0.45 0.95 -0.65 1 -0.40 0 0.50 1.10 -2.30 1.65 -4.30 0.30 -1.10 0.25 -1.05 -0.50 0.25 -0.45 0.85 -1.45 2.30 -2.25 3.30 -0.95 1.20 -1.30 2.15 -1.10 2.85 0.25 1.10 -0.50 1.55 -1.10 0.60 -0.20 -0.30 -0.55 -0.40 -0.80 -0.25 -0.70 0.45 -0.50 -2.40 0.25 -3.35 0.35 -0.50 1.05 -0.90 1.50 -0.90 0.45 0 0.80 -0.40 0.80 -0.85 0 -0.50 0.40 -1.85 0.90 -3 0.65 -1.65 1.10 -2.15 2 -2.15 1 0 1.10 0.25 1.10 2.65 0 3.05 -1.15 6.90 -2.40 8 -0.80 0.70 -0.90 0.70 -1.40 -0.40z"/>
  <path d="M6.50 5.75 c0 -0.95 0.40 -2.65 0.85 -3.75 0.70 -1.60 1.15 -2 2.20 -2 1.25 0 1.35 0.15 1.35 2.20 -0.05 1.45 -0.35 2.35 -0.90 2.70 -0.80 0.50 -0.85 0.35 -0.40 -1.50 0.25 -1.10 0.30 -2.15 0.20 -2.30 -0.35 -0.30 -1.30 2.15 -1.30 3.30 0 1.65 -0.65 3.10 -1.30 3.10 -0.45 0 -0.70 -0.60 -0.70 -1.75z"/>
  <path d="M13.35 1.60 c0.05 -0.40 0.15 -0.90 0.15 -1.15 0 -0.25 0.45 -0.45 1.05 -0.45 0.80 0 0.95 0.20 0.65 1.15 -0.45 1.50 -0.70 1.70 -1.15 0.90 -0.25 -0.35 -0.55 -0.45 -0.65 -0.25 -0.15 0.25 -0.15 0.15 -0.05 -0.20z"/>
 </g>
 <g fill="#966aac">
  <path d="M3.50 38.90 c0 -1.90 0.60 -3.40 1.25 -3.40 0.35 0 0.75 -0.35 0.95 -0.75 0.40 -1.10 0.90 -0.95 2.40 0.95 1.20 1.50 1.30 1.85 0.75 3 -0.50 1.10 -0.90 1.30 -2.95 1.30 -2.15 0 -2.40 -0.10 -2.40 -1.10z"/>
  <path d="M29.60 39.15 c0.45 -0.50 0.90 -1.70 1.05 -2.65 0.70 -4.70 1 -6 1.40 -6 0.25 0 0.45 -0.65 0.45 -1.45 0 -0.90 0.50 -2.10 1.25 -2.90 l1.25 -1.40 -0.30 1.75 c-0.15 0.95 -0.50 2.70 -0.80 3.90 -0.65 2.50 0.10 4 1.05 2.15 0.85 -1.50 1.55 -1.30 1.55 0.50 0 1.50 0.05 1.55 1.75 1.25 2.40 -0.45 2.30 0.55 -0.25 2.40 -1.95 1.45 -2.20 2.60 -0.45 2.15 0.60 -0.15 0.95 0 0.95 0.45 0 0.50 -0.60 0.70 -2 0.70 -1.90 0 -2 -0.10 -2 -1.50 0 -0.80 0.25 -1.50 0.50 -1.50 0.30 0 0.50 -0.35 0.50 -0.75 0 -0.40 -0.45 -0.75 -1 -0.75 -0.70 0 -0.90 -0.25 -0.65 -0.85 0.20 -0.60 -0.25 -0.40 -1.25 0.55 -1.60 1.45 -2.30 3 -0.85 1.80 0.65 -0.55 0.75 -0.40 0.75 0.70 0 0.95 -0.25 1.30 -1 1.30 -0.55 0 -1 0.25 -1 0.50 0 0.30 -0.35 0.50 -0.85 0.50 -0.75 0 -0.75 -0.10 -0.05 -0.85z"/>
  <path d="M9.35 35.90 c-1.50 -1.50 -1.80 -3.40 -0.55 -3.40 0.55 0 0.70 0.25 0.50 0.80 -0.20 0.50 0.10 1.15 0.75 1.65 0.60 0.50 1 1.20 0.85 1.55 -0.15 0.55 -0.55 0.40 -1.55 -0.60z"/>
  <path d="M3.85 34 c-0.90 -1.05 -1.15 -2.50 -0.45 -2.50 0.40 0 1.70 3.05 1.45 3.35 -0.10 0.05 -0.55 -0.35 -1 -0.85z"/>
  <path d="M5.50 32 c0 -0.25 0.60 -0.50 1.30 -0.50 0.70 0 1.15 0.20 0.95 0.50 -0.15 0.30 -0.75 0.50 -1.30 0.50 -0.50 0 -0.95 -0.20 -0.95 -0.50z"/>
  <path d="M9.25 31.50 c-0.20 -0.30 0.25 -0.50 1.05 -0.50 0.75 0 1.65 -0.40 2 -0.85 0.60 -0.80 0.65 -0.75 0.70 0.50 0 1.20 -0.15 1.35 -1.70 1.35 -0.95 0 -1.90 -0.20 -2.05 -0.50z"/>
  <path d="M2.30 29.80 c-0.20 -0.80 -0.10 -1.65 0.15 -2 0.30 -0.35 0.40 -0.80 0.20 -1 -0.20 -0.20 0 -0.20 0.50 0 0.50 0.15 0.85 0.05 0.85 -0.25 0 -0.30 0.45 -0.55 0.95 -0.55 0.50 0 1.05 -0.35 1.25 -0.75 0.15 -0.45 0 -0.75 -0.50 -0.75 -0.40 0 -0.60 -0.20 -0.45 -0.50 0.15 -0.25 0.05 -1.85 -0.25 -3.55 -0.40 -2.25 -0.40 -3.20 0 -3.45 0.40 -0.25 0.40 -0.75 0 -1.70 -0.40 -1.10 -0.30 -1.85 0.45 -3.55 1.15 -2.60 2.25 -3.50 1.75 -1.40 -0.20 0.75 -0.65 2.15 -1.05 3.05 -0.65 1.60 -0.45 4.10 0.40 4.10 0.25 0 0.45 0.45 0.45 1 0 0.55 -0.20 1 -0.50 1 -0.25 0 -0.50 0.70 -0.50 1.55 0 1.30 0.15 1.45 0.70 1 0.40 -0.35 0.85 -1.40 1.05 -2.35 0.25 -1.55 0.45 -1.75 1.40 -1.50 0.60 0.15 1.25 0.30 1.50 0.30 0.55 0 0.40 1.50 -0.15 1.50 -0.25 0 -0.50 -0.20 -0.50 -0.50 0 -0.25 -0.40 -0.50 -0.85 -0.45 -0.75 0 -0.70 0.15 0.25 0.80 1.20 0.85 1.50 2.15 0.45 2.15 -0.35 0 -0.90 -0.25 -1.25 -0.60 -0.45 -0.45 -0.60 -0.40 -0.60 0.20 0 0.45 0.25 0.90 0.55 1 0.95 0.30 -0.90 5.20 -2.30 6.10 -0.65 0.45 -1.50 0.80 -1.80 0.80 -0.35 0 -0.85 0.35 -1.20 0.85 -0.55 0.70 -0.65 0.65 -0.95 -0.55z"/>
  <path d="M35.65 27.75 c0.05 -1.90 -0.10 -4.55 -0.30 -5.85 -0.40 -2.35 -0.40 -2.40 0.85 -2.40 0.80 0 1.30 -0.30 1.30 -0.75 0 -0.90 -1.30 -1 -1.65 -0.10 -0.45 1.20 -1.50 -0.55 -1.90 -3.25 -0.70 -4.35 0.75 -7.50 4.40 -9.35 1.50 -0.75 1.65 -0.70 1.65 0.65 0 1.20 -0.80 1.80 -2.55 1.80 -0.70 0 -0.95 0.35 -0.95 1.25 0 0.70 -0.20 1.25 -0.50 1.25 -0.25 0 -0.50 0.80 -0.50 1.75 0 1.40 0.20 1.75 1 1.75 0.55 0 1 0.25 1 0.50 0 0.30 0.55 0.50 1.25 0.50 1 0 1.25 0.25 1.25 1.20 0 0.70 -0.20 1.40 -0.50 1.55 -0.25 0.15 -0.50 0.85 -0.50 1.55 0 0.70 -0.25 1.70 -0.55 2.25 -0.60 1.20 -0.15 2.95 0.85 2.95 0.40 0 0.70 0.50 0.70 1.25 0 1 -0.25 1.25 -1.25 1.25 -1 0 -1.25 0.25 -1.25 1.25 0 0.75 -0.30 1.25 -0.70 1.25 -0.40 0 -0.85 0.30 -0.95 0.65 -0.15 0.30 -0.25 -0.95 -0.20 -2.90z"/>
  <path d="M6.90 29.30 c1.70 -1.50 2.10 -1.60 2.10 -0.60 0 0.85 -0.25 1.05 -2.20 1.50 l-1.45 0.35 1.55 -1.25z"/>
  <path d="M18.50 27.55 c0 -0.65 3 -2.75 3.35 -2.35 0.15 0.15 0 0.60 -0.35 1.05 -0.50 0.60 -0.50 0.75 0.05 0.80 0.90 0.05 -1.05 0.85 -2.15 0.90 -0.50 0.05 -0.90 -0.15 -0.90 -0.40z"/>
  <path d="M31.45 23.95 c1.20 -1.10 2.25 -1.90 2.35 -1.80 0.25 0.25 -3.65 3.85 -4.15 3.85 -0.20 0 0.60 -0.90 1.80 -2.05z"/>
  <path d="M0.70 21.40 c0.50 -2.65 1.10 -2.65 1.60 0 0.30 1.40 0.20 1.60 -0.80 1.60 -1 0 -1.10 -0.20 -0.80 -1.60z"/>
  <path d="M16.75 22.25 c-0.95 -0.75 -0.95 -0.80 0.15 -1.85 1.05 -1.05 1.15 -1.05 2.70 -0.30 l1.65 0.85 -1.85 0 c-1.05 0.05 -1.90 0.30 -1.90 0.55 0 0.30 0.15 0.45 0.40 0.45 0.20 -0.05 0.90 -0.05 1.60 0 1 0.05 1.10 0.15 0.50 0.55 -1.05 0.70 -2.10 0.60 -3.25 -0.25z"/>
  <path d="M23.20 20.40 c0.60 -3.80 2.30 -4.65 2.30 -1.15 0 1.70 -0.25 2.35 -0.95 2.75 -1.55 0.80 -1.70 0.65 -1.35 -1.60z"/>
  <path d="M12.85 20.65 c-0.80 -0.75 -0.30 -1.65 0.90 -1.65 1.35 0 1.60 0.45 0.65 1.40 -0.70 0.70 -1.10 0.75 -1.55 0.25z"/>
  <path d="M14.40 16.90 c1 -1 0.70 -1.40 -0.90 -1.05 -1.05 0.20 -2.10 0 -3.25 -0.65 -1.70 -0.90 -1.75 -0.90 -2.45 0.05 -1.05 1.50 -1.55 0.55 -0.85 -1.70 0.90 -3.10 4.05 -6.40 4.05 -4.30 0 0.90 0.60 0.95 1.40 0.15 0.45 -0.45 0.60 -0.25 0.60 1 0 1.45 -0.15 1.60 -1.60 1.65 -0.90 0 -1.35 0.15 -1 0.30 0.30 0.10 0.60 0.55 0.60 0.95 0 0.50 0.65 0.70 2.25 0.70 2.25 0 2.25 0 2.25 1.75 0 1.30 -0.20 1.75 -0.85 1.75 -0.65 0 -0.70 -0.15 -0.25 -0.60z"/>
  <path d="M18.70 13.95 c-0.30 -1.65 -0.50 -1.95 -1.50 -1.95 -1.85 0 -1.40 -0.95 0.95 -2 2.55 -1.15 5 -1.25 5.85 -0.25 0.85 1 1.50 0.95 1.50 -0.15 0 -0.95 1.75 -1.40 2.25 -0.55 0.20 0.25 0.05 0.45 -0.25 0.45 -0.30 0 -0.40 0.25 -0.25 0.50 0.20 0.30 0.50 0.40 0.75 0.25 0.20 -0.15 0.30 0.20 0.15 0.75 -0.30 1.15 -0.70 1.25 -1.60 0.40 -0.55 -0.55 -0.60 -0.45 -0.30 0.50 0.45 1.60 -0.15 3.10 -1.30 3.10 -0.75 0 -1 -0.30 -0.95 -1.10 0.20 -2.15 0 -2.90 -0.75 -2.90 -0.55 0 -0.75 0.55 -0.75 1.90 0 1.75 -0.15 2 -1.75 2.45 l-1.75 0.55 -0.30 -1.95z"/>
  <path d="M7.40 8.45 c-1.10 -0.60 -1.15 -1.45 -0.15 -1.45 0.40 0 0.75 0.35 0.75 0.80 0 0.55 0.40 0.25 1.15 -0.80 0.60 -0.95 1.40 -1.75 1.75 -1.90 1.10 -0.35 0.65 0.65 -1 2.25 -1.30 1.25 -1.85 1.50 -2.50 1.10z"/>
  <path d="M9.70 3.20 c0.65 -2.65 1.10 -2.85 1.10 -0.50 0 1 -0.30 1.90 -0.80 2.20 -0.70 0.40 -0.75 0.25 -0.30 -1.70z"/>
  <path d="M14 3.15 c0 -0.50 -0.15 -1.40 -0.30 -2 -0.25 -0.95 -0.10 -1.15 0.75 -1.15 0.55 0 1.05 0.25 1.05 0.55 0 0.25 -0.20 0.40 -0.40 0.25 -0.20 -0.10 -0.30 0.55 -0.20 1.50 0.15 1.05 0 1.70 -0.35 1.70 -0.30 0 -0.55 -0.40 -0.55 -0.85z"/>
  <path d="M11.85 3.20 c-0.15 -0.20 -0.10 -0.80 0.20 -1.30 0.40 -0.75 0.70 -0.85 1.10 -0.45 0.40 0.40 0.35 0.75 -0.20 1.30 -0.40 0.45 -0.90 0.65 -1.10 0.45z"/>
 </g>
 <g fill="#f96768">
  <path d="M15.20 6.90 c0.20 -0.65 0.45 -1.95 0.60 -2.90 0.50 -3.65 0.65 -4 1.95 -4 1.75 0 1.65 1.90 -0.30 5.30 -1.55 2.75 -2.85 3.65 -2.25 1.60z"/>
  <path d="M14 3.05 c0 -0.80 -0.15 -1.80 -0.30 -2.25 -0.20 -0.60 0 -0.80 0.75 -0.80 0.60 0 1.05 0.25 1.05 0.55 0 0.25 -0.20 0.40 -0.40 0.25 -0.20 -0.10 -0.30 0.50 -0.20 1.45 0.10 0.90 -0.05 1.80 -0.35 1.95 -0.35 0.25 -0.55 -0.20 -0.55 -1.15z"/>
 </g>
 <g fill="#cc9c68">
  <path d="M29 12 c0 -0.30 0.35 -1.05 0.75 -1.65 0.85 -1.35 2.25 -5.65 2.25 -7.05 0 -0.55 -0.70 0.45 -1.55 2.15 -0.85 1.70 -1.95 3.35 -2.45 3.70 -0.75 0.40 -0.80 0.75 -0.40 1.50 0.60 1.20 0.15 1.70 -0.80 0.90 -1.30 -1.05 -1.40 -2.45 -0.40 -3.95 0.50 -0.75 1.35 -2.35 1.80 -3.60 0.95 -2.45 2.35 -4 3.55 -4 1.30 0 1 5.85 -0.45 9.15 -1.15 2.60 -2.30 4.05 -2.30 2.85z"/>
  <path d="M6.85 8.15 c-0.65 -0.60 -0.35 -3.90 0.55 -6 0.70 -1.75 1.10 -2.15 2.20 -2.15 1.25 0 1.30 0.15 1.25 2.20 -0.05 1.45 -0.40 2.40 -0.95 2.75 -0.75 0.45 -0.75 0.35 -0.35 -1.10 0.25 -0.85 0.45 -2.05 0.45 -2.60 -0.05 -2 -1.55 1.75 -1.85 4.55 -0.30 2.55 -0.55 3.10 -1.30 2.35z"/>
  <path d="M8.50 8.10 c0 -0.85 1.80 -2.75 2.40 -2.55 0.35 0.10 0 0.80 -0.90 1.60 -0.80 0.80 -1.50 1.20 -1.50 0.95z"/>
  <path d="M13.80 1.20 c-0.40 -1.10 -0.40 -1.20 0.35 -1.20 0.35 0 0.65 0.45 0.70 1 0.10 1.20 -0.60 1.35 -1.05 0.20z"/>
 </g>
 <g fill="#ad7bc1">
  <path d="M3 39.50 c0 -0.25 -0.45 -0.50 -1 -0.50 -0.55 0 -1 -0.20 -1 -0.50 0 -0.25 0.20 -0.50 0.40 -0.50 0.20 0 0.75 -0.65 1.25 -1.45 0.65 -1.10 1.10 -1.35 2.10 -1.15 0.90 0.15 1.25 0 1.25 -0.60 0 -1.15 0.35 -1 1.95 0.80 1.35 1.55 1.40 1.70 0.75 3 -0.90 1.70 -2.55 1.85 -2.85 0.30 l-0.20 -1.15 -0.40 1.15 c-0.35 1.10 -2.25 1.60 -2.25 0.60z"/>
  <path d="M31.05 39.55 l-1.65 -0.30 1.35 -1.40 c0.80 -0.75 1.55 -1.15 1.70 -0.90 0.20 0.30 0.60 0.30 1.05 0 0.55 -0.40 0.60 -0.60 0.10 -0.80 -0.45 -0.15 -0.35 -0.60 0.40 -1.70 1.70 -2.30 2.45 -10.10 1.35 -13.45 -1.70 -5.30 -1.95 -9.65 -0.55 -11.70 0.75 -1.20 4.15 -3.80 4.95 -3.80 0.45 0 0.25 3 -0.35 5.40 -0.45 1.75 -0.45 2.35 0 2.50 1.45 0.45 0.05 4.90 -1.65 5.25 -0.85 0.20 -0.80 0.20 0.20 0.30 1 0.05 1.10 0.20 0.80 1.45 -0.20 0.75 -0.40 2.30 -0.50 3.40 -0.15 1.85 -0.10 2.05 0.80 1.85 0.90 -0.25 0.95 0.05 0.95 4.45 l0 4.75 -2 1.60 c-2.30 1.85 -2.50 2.55 -0.75 2.55 0.70 0 1.25 0.25 1.25 0.50 0 0.55 -4.65 0.55 -7.45 0.05z"/>
  <path d="M9.50 36 c-0.70 -0.50 -1.05 -1.10 -0.80 -1.35 0.25 -0.20 0.55 -0.10 0.65 0.25 0.15 0.30 0.55 0.60 0.95 0.60 0.40 0 0.70 0.35 0.70 0.75 0 0.95 0 0.95 -1.50 -0.25z"/>
  <path d="M3.80 34.20 c-0.85 -0.60 -0.85 -0.70 -0.20 -0.70 0.45 0 1 0.25 1.15 0.55 0.55 0.85 0.10 0.90 -0.95 0.15z"/>
  <path d="M31.60 34.40 c-1.10 -1.10 -0.70 -4.05 0.85 -6.50 0.80 -1.25 1.65 -2.40 1.90 -2.55 0.60 -0.35 -0.15 4.85 -0.85 6.20 -0.35 0.60 -0.35 1 0 1.20 0.35 0.20 0.35 0.65 0 1.30 -0.60 1.10 -1.05 1.20 -1.90 0.35z"/>
  <path d="M9.50 31.45 c-0.60 -0.40 -0.45 -0.50 0.70 -0.30 1.20 0.20 1.50 0 2.10 -1.45 0.40 -0.90 1.15 -1.90 1.65 -2.20 1.60 -0.85 1.75 -0.55 0.40 0.80 -0.70 0.70 -1.35 1.75 -1.45 2.35 -0.15 1.25 -2.15 1.70 -3.40 0.80z"/>
  <path d="M14 30.35 c0 -1.65 2.80 -2.45 4.50 -1.35 0.55 0.40 0.35 0.50 -0.90 0.40 -1.15 -0.10 -1.85 0.15 -2.15 0.75 -0.60 1 -1.45 1.15 -1.45 0.20z"/>
  <path d="M2.35 29.40 c-0.15 -0.60 -0.15 -1.30 0.05 -1.60 0.15 -0.30 0.25 -1.10 0.20 -1.80 -0.15 -1.40 0.65 -2.90 1.25 -2.35 0.20 0.20 0.10 0.85 -0.25 1.35 -0.70 1.15 -0.80 2 -0.20 2 0.65 0 2.60 -4.45 2.15 -4.75 -0.25 -0.15 -0.60 -1.95 -0.80 -3.95 -0.40 -3.90 0.50 -7.55 2.05 -8.85 0.90 -0.75 0.90 -0.70 -0.30 2.70 -0.95 2.75 -0.95 5.35 0.05 5.35 0.25 0 0.45 0.45 0.45 1 0 0.55 -0.20 1 -0.50 1 -0.25 0 -0.50 0.70 -0.50 1.50 0 0.85 0.25 1.50 0.50 1.50 0.30 0 0.50 -0.25 0.50 -0.60 0 -0.35 0.45 -0.15 1.05 0.40 l1.05 1.05 -1.20 2.40 c-0.60 1.35 -1.70 2.80 -2.35 3.20 -1.20 0.75 -1.20 0.75 -0.95 -0.35 0.15 -0.60 0.10 -1.10 -0.15 -1.10 -0.55 0 -1.45 2.10 -1.10 2.65 0.10 0.20 0 0.35 -0.25 0.35 -0.25 0 -0.60 -0.50 -0.75 -1.10z"/>
  <path d="M7.35 28.90 c1.20 -1.15 2 -1 1.50 0.35 -0.20 0.40 -0.85 0.75 -1.45 0.75 l-1.10 0 1.05 -1.10z"/>
  <path d="M18.50 27.75 c0 -0.40 2.65 -2.70 3.15 -2.75 0.25 0 -0.05 0.70 -0.65 1.50 -0.90 1.30 -2.50 2.05 -2.50 1.25z"/>
  <path d="M21.75 22.50 c-0.30 -0.50 1.95 -4.75 2.75 -5.25 0.25 -0.15 0.60 0.55 0.80 1.55 0.30 1.65 0.15 2.05 -1 3.05 -1.50 1.25 -2.10 1.40 -2.55 0.65z"/>
  <path d="M8.30 21.25 c-1.10 -0.85 -0.65 -1.75 0.70 -1.40 0.55 0.15 1 0 1 -0.30 0 -0.30 -0.45 -0.55 -1 -0.55 -0.55 0 -1 -0.20 -1 -0.50 0 -0.65 0.80 -0.65 2.05 0.05 0.75 0.40 0.90 0.70 0.45 1.20 -0.30 0.35 -0.45 0.90 -0.40 1.25 0.20 0.95 -0.70 1.05 -1.80 0.25z"/>
  <path d="M16.30 20.95 c0.15 -0.25 1.30 -0.45 2.55 -0.45 1.30 0 2.20 0.10 2.10 0.20 -0.45 0.40 -4.90 0.65 -4.65 0.25z"/>
  <path d="M13.15 20.65 c-0.95 -0.35 -0.80 -1.35 0.45 -2.95 l1.15 -1.40 0.35 1.45 c0.30 1.45 0.30 1.45 0.25 -0.25 -0.10 -1.60 -0.25 -1.75 -1.60 -1.80 -2.70 -0.05 -3.15 -0.20 -4 -1 -0.75 -0.75 -0.90 -0.75 -2.05 0.30 -0.85 0.80 -1.20 0.95 -1.20 0.45 0 -1.25 2.30 -5.65 3.50 -6.70 l1.15 -1 -0.25 1.40 c-0.30 1.70 -0.05 1.70 1.70 0.05 l1.35 -1.35 0.65 1.45 c0.30 0.80 0.65 1.55 0.70 1.65 0.10 0.10 1.65 -0.35 3.45 -1 l3.30 -1.20 1.85 1.05 c1.95 1.15 2.95 3.40 2 4.55 -0.30 0.35 -1.50 0.65 -2.75 0.65 -2.75 0 -3.75 0.50 -6.90 3.50 -1.35 1.30 -2.80 2.30 -3.10 2.15z"/>
  <path d="M21.50 18.85 c0 -0.40 0.35 -0.85 0.75 -1.05 0.40 -0.15 0.75 -0.10 0.75 0.15 0 0.25 -0.35 0.70 -0.75 1.05 -0.60 0.50 -0.75 0.50 -0.75 -0.15z"/>
  <path d="M26.30 10.90 c-0.85 -1.20 -1.10 -2.65 -0.35 -2.20 0.25 0.15 0.60 -0.20 0.75 -0.85 0.35 -1.05 0.35 -1.05 0.75 -0.10 0.25 0.55 0.25 1.25 0 1.50 -0.20 0.30 -0.20 0.85 0.05 1.25 1.10 1.75 0 2.10 -1.20 0.40z"/>
  <path d="M7 7.40 c0 -0.65 0.25 -1.50 0.50 -1.90 0.35 -0.55 0.50 -0.35 0.50 0.85 0 0.85 -0.20 1.75 -0.50 1.90 -0.30 0.15 -0.50 -0.20 -0.50 -0.85z"/>
  <path d="M8.50 8.15 c0 -0.90 1.80 -2.80 2.45 -2.60 0.35 0.15 0 0.75 -0.95 1.70 -0.80 0.80 -1.50 1.20 -1.50 0.90z"/>
  <path d="M13.85 1.40 c-0.20 -0.60 -0.20 -1.20 -0.05 -1.35 0.30 -0.35 1.20 1 1.20 1.85 0 1.05 -0.85 0.65 -1.15 -0.50z"/>
 </g>
 <g fill="#be90d6">
  <path d="M0 39.75 c0 -0.10 0.90 -1.10 1.95 -2.20 1.35 -1.35 2.25 -1.95 2.80 -1.75 0.55 0.25 0.90 0 1.10 -0.75 0.15 -0.55 0.35 -1.05 0.50 -1.05 0.50 0 2.60 2.80 2.60 3.50 0 0.45 -0.25 0.30 -0.55 -0.35 -0.30 -0.65 -0.75 -1.15 -1 -1.15 -0.70 0 -2.90 2.55 -2.90 3.30 0 0.50 -0.70 0.70 -2.25 0.70 -1.25 0 -2.25 -0.10 -2.25 -0.25z"/>
  <path d="M30.85 39.65 l-1.40 -0.20 3.05 -3.25 c1.65 -1.80 3 -3.70 3 -4.20 0 -0.65 0.35 -1 1 -1 0.55 0 1.15 -0.35 1.30 -0.75 0.35 -0.80 1.70 -1.05 1.70 -0.30 0 0.25 -0.35 0.70 -0.75 1.05 -0.40 0.35 -0.75 0.90 -0.75 1.25 0 0.40 -0.25 0.75 -0.50 0.85 -0.30 0.10 -0.10 0.65 0.45 1.25 0.60 0.60 0.85 1.20 0.60 1.40 -0.25 0.15 -0.55 0 -0.65 -0.35 -0.15 -0.35 -0.50 -0.40 -0.85 -0.20 -0.55 0.35 -0.55 0.50 0 0.85 0.60 0.40 0.60 0.55 -0.05 0.90 -0.50 0.35 -0.85 0.30 -1.10 -0.10 -0.25 -0.40 -0.40 -0.30 -0.40 0.30 0 1 -1.90 2.85 -2.75 2.75 -0.25 0 -1.15 -0.15 -1.90 -0.25z"/>
  <path d="M30.50 36.90 c0 -0.20 0.25 -1.50 0.55 -2.90 0.60 -2.75 1.65 -3.30 2.20 -1.15 0.25 1.05 0 1.60 -1.20 2.85 -0.85 0.85 -1.55 1.40 -1.55 1.20z"/>
  <path d="M9.10 35.60 c-1.25 -1.25 -1.45 -3.10 -0.35 -3.10 0.40 0 0.75 0.25 0.75 0.50 0 0.30 -0.25 0.50 -0.60 0.50 -0.30 0 -0.05 0.45 0.55 1 0.65 0.50 1.05 1.25 0.95 1.55 -0.15 0.45 -0.55 0.30 -1.30 -0.45z"/>
  <path d="M2.35 29.55 c-0.20 -0.80 0.15 -1.50 1.20 -2.60 0.80 -0.80 1.60 -2.05 1.75 -2.70 0.40 -1.60 2 -2.55 2.95 -1.75 0.55 0.45 0.50 0.90 -0.15 2.65 -1.25 3.35 -3.10 5.05 -3.10 2.85 0 -1.60 -0.85 -1.15 -1.60 0.80 -0.65 1.65 -0.80 1.75 -1.05 0.75z"/>
  <path d="M32.50 28.85 c0 -0.65 0.45 -1.60 0.95 -2.10 0.95 -0.85 1 -0.80 0.85 0.55 -0.10 0.80 -0.20 1.75 -0.25 2.10 -0.10 1.15 -1.55 0.65 -1.55 -0.55z"/>
  <path d="M19 27.55 c0 -0.45 1.65 -2.05 2.20 -2.05 0.20 0 0.10 0.40 -0.15 0.95 -0.55 1 -2.05 1.80 -2.05 1.10z"/>
  <path d="M36.10 25.15 c0.05 -0.50 -0.05 -1.15 -0.25 -1.45 -0.15 -0.30 -0.40 -1.55 -0.55 -2.75 -0.10 -1.20 -0.45 -2.95 -0.80 -3.85 -0.35 -0.90 -0.45 -1.80 -0.30 -2 0.20 -0.15 0.45 0.20 0.65 0.80 0.35 1.50 1.65 1.40 1.65 -0.10 0 -0.70 0.20 -1.35 0.45 -1.50 0.20 -0.15 0.55 -1.55 0.70 -3.10 0.25 -2.55 0.85 -3.65 1.95 -3.70 0.20 0 0.35 1.70 0.35 3.75 0 2.05 -0.20 3.75 -0.50 3.75 -0.25 0 -0.45 1.20 -0.45 2.65 -0.05 1.40 -0.35 3.15 -0.70 3.80 -0.35 0.65 -0.55 1.60 -0.40 2.15 0.25 0.95 -0.65 2.40 -1.50 2.40 -0.25 0 -0.40 -0.40 -0.30 -0.85z"/>
  <path d="M21.80 22.10 c-0.10 -0.20 0.50 -1.45 1.35 -2.80 l1.60 -2.40 0.35 1.65 c0.35 1.70 -0.25 3.45 -1.15 3.45 -0.30 0 -0.40 -0.45 -0.20 -1 0.20 -0.55 0.10 -1 -0.20 -1 -0.50 0 -0.80 1.05 -0.60 2.15 0.05 0.45 -0.80 0.45 -1.15 -0.05z"/>
  <path d="M4.90 19.90 c-0.30 -4.25 0.95 -10.40 2.15 -10.40 0.25 0 0 1.05 -0.50 2.40 -0.50 1.30 -0.90 3.50 -0.90 4.85 0 1.40 0.10 2.10 0.20 1.65 0.30 -1.25 1.15 -1.15 1.15 0.10 0 0.55 -0.20 1 -0.50 1 -0.25 0 -0.50 0.55 -0.50 1.25 0 2.10 -0.95 1.40 -1.10 -0.85z"/>
  <path d="M8.40 21.30 c-1.25 -0.90 -1.10 -1.30 0.35 -1.30 0.70 0 1.25 -0.20 1.25 -0.50 0 -0.25 0.25 -0.50 0.60 -0.50 0.45 0 0.45 0.15 0 0.60 -0.35 0.35 -0.60 1 -0.60 1.50 0 1.05 -0.45 1.10 -1.60 0.20z"/>
  <path d="M20 20.55 c0 -0.25 0.35 -0.55 0.75 -0.75 0.40 -0.15 0.75 -0.60 0.75 -1 0 -0.35 0.35 -0.80 0.75 -1 1.05 -0.40 0.90 0.25 -0.50 1.85 -1.25 1.40 -1.75 1.65 -1.75 0.90z"/>
  <path d="M12.50 20.05 c0 -0.20 0.55 -1.25 1.25 -2.25 0.70 -1 1.25 -1.95 1.25 -2.05 0 -0.15 -0.85 -0.25 -1.90 -0.25 -1.05 0 -2.40 -0.35 -3 -0.80 -1.10 -0.75 -1.25 -0.75 -2.40 0.35 -0.65 0.60 -1.20 0.85 -1.20 0.55 0 -1.20 2.40 -5.90 3.50 -6.85 l1.15 -1 -0.40 1.25 c-0.20 0.70 -0.70 1.65 -1.15 2.15 -0.70 0.80 -0.70 0.95 0.20 1.60 0.85 0.65 2.95 1 4.65 0.75 0.40 -0.05 0.85 0.20 1.10 0.55 0.30 0.50 0.65 0.50 1.70 0.05 0.70 -0.35 1.70 -0.60 2.25 -0.60 0.50 0 1.25 -0.35 1.65 -0.75 0.65 -0.60 0.75 -0.60 0.95 0.15 0.15 0.50 0.80 0.90 1.65 1 1.30 0.10 1.35 0 1.05 -1.45 -0.20 -1.10 -0.10 -1.45 0.35 -1.30 0.30 0.10 0.60 0.95 0.60 1.90 0 1.60 -0.10 1.70 -1.50 1.60 -2.80 -0.20 -5.05 0.80 -7.55 3.35 -2.15 2.25 -4.20 3.25 -4.20 2.05z"/>
  <path d="M26.55 10.80 c-0.85 -1 -0.15 -3.30 1 -3.30 1.15 0 1.25 0.65 0.20 1.50 -0.45 0.35 -0.65 1.05 -0.50 1.55 0.35 1.15 0.10 1.20 -0.70 0.25z"/>
  <path d="M12.45 9.80 c0.70 -0.70 1.30 -1.30 1.35 -1.30 0.10 0 0.40 0.50 0.75 1.10 0.50 0.90 0.45 1 -0.30 0.75 -0.45 -0.20 -1.30 -0.10 -1.90 0.20 -1.05 0.55 -1.05 0.50 0.10 -0.75z"/>
  <path d="M20.15 10.65 c0.25 -0.40 0.15 -0.65 -0.25 -0.70 -0.35 0 0 -0.25 0.80 -0.45 1.50 -0.45 3.30 0.10 3.30 1 0 0.75 -1 0.60 -1.30 -0.25 -0.25 -0.60 -0.50 -0.60 -1.60 0.15 -0.70 0.45 -1.15 0.55 -0.95 0.25z"/>
  <path d="M34 10.60 c0 -0.20 0.85 -1.20 1.85 -2.15 1.65 -1.45 1.70 -1.50 0.50 -0.15 -0.75 0.80 -1.35 1.75 -1.35 2.10 0 0.35 -0.20 0.60 -0.50 0.60 -0.25 0 -0.50 -0.20 -0.50 -0.40z"/>
  <path d="M7 7.55 c0 -0.55 0.25 -1.15 0.50 -1.30 0.30 -0.15 0.50 0.15 0.50 0.70 0 0.55 -0.20 1.15 -0.50 1.30 -0.25 0.15 -0.50 -0.15 -0.50 -0.70z"/>
  <path d="M9.05 7.40 c0.30 -0.75 0.90 -1.50 1.35 -1.65 1.30 -0.50 1.15 0 -0.45 1.55 l-1.55 1.45 0.65 -1.35z"/>
  <path d="M12 2.55 c0 -0.60 0.25 -1.05 0.50 -1.05 0.30 0 0.50 0.30 0.50 0.70 0 0.40 -0.20 0.90 -0.50 1.05 -0.25 0.15 -0.50 -0.15 -0.50 -0.70z"/>
  <path d="M13.85 1 c-0.15 -0.55 -0.05 -1 0.20 -1 0.25 0 0.45 0.10 0.45 0.20 0 0.10 0.15 0.55 0.30 1 0.15 0.45 0.10 0.80 -0.20 0.80 -0.25 0 -0.60 -0.45 -0.75 -1z"/>
 </g>
 <g fill="#52f5dd">
  <path d="M16.95 20.35 c1 -1.05 6.05 -3.05 6.05 -2.40 0 0.15 -0.55 0.90 -1.20 1.60 -0.80 0.95 -1.80 1.35 -3.50 1.55 l-2.40 0.30 1.05 -1.05z"/>
  <path d="M5 20.05 c0 -0.50 -0.15 -1.65 -0.30 -2.50 -0.25 -1.15 -0.15 -1.55 0.35 -1.55 0.50 0 0.70 0.75 0.75 2.50 0 1.40 -0.15 2.50 -0.40 2.50 -0.20 0 -0.40 -0.40 -0.40 -0.95z"/>
  <path d="M6 18.50 c0 -0.55 0.25 -1 0.50 -1 0.30 0 0.50 0.45 0.50 1 0 0.55 -0.20 1 -0.50 1 -0.25 0 -0.50 -0.45 -0.50 -1z"/>
 </g>
 <g fill="#f1b586">
  <path d="M26.70 8.85 c-0.35 -1 0.15 -1.85 1.15 -1.85 0.55 0 0.70 -0.35 0.50 -1.35 -0.25 -1.35 0.40 -3.40 1.50 -4.50 0.80 -0.90 2.15 -0.80 2.15 0.15 0 1.30 -2.40 5.95 -3.75 7.20 -1.05 1 -1.25 1.05 -1.55 0.35z"/>
  <path d="M6.50 4.70 c0 -1.30 1.55 -4.20 2.25 -4.20 0.50 0 0.50 0.55 -0.15 2.50 -0.75 2.35 -2.10 3.45 -2.10 1.70z"/>
  <path d="M16 3.65 c0 -2.75 0.40 -3.65 1.65 -3.65 0.95 0 0.95 0.05 0.20 0.90 -0.50 0.50 -0.85 1.45 -0.85 2.15 0 0.65 -0.25 1.55 -0.50 1.95 -0.35 0.55 -0.50 0.20 -0.50 -1.35z"/>
  <path d="M14 1.65 c0 -1.40 0.15 -1.70 0.50 -1.15 0.65 1 0.65 2.35 0 2.75 -0.30 0.20 -0.50 -0.45 -0.50 -1.60z"/>
 </g>
 <g fill="#b7bebe">
  <path d="M9.35 35.80 c-1.40 -1.30 -1.80 -3.30 -0.70 -3.30 0.65 0 2.65 3.85 2.25 4.30 -0.15 0.10 -0.85 -0.35 -1.55 -1z"/>
  <path d="M3.25 36.05 c0.15 -0.30 0.85 -0.40 1.50 -0.25 0.90 0.20 1.20 0.05 1.40 -0.75 0.20 -0.95 0.25 -0.95 0.15 0.05 -0.05 0.90 -0.40 1.20 -1.75 1.30 -1.10 0.10 -1.55 0 -1.30 -0.35z"/>
  <path d="M3.85 34.25 c-0.55 -0.40 -0.85 -1.10 -0.75 -1.85 0.15 -1.10 0.25 -1.05 1.10 0.50 1 1.95 0.90 2.30 -0.35 1.35z"/>
  <path d="M18.25 32.75 c-0.25 -0.10 -1.10 -0.30 -1.85 -0.45 -1.70 -0.40 -2.75 -2.05 -1.85 -3.10 0.75 -0.95 2.65 -0.90 4.55 0.10 1.40 0.75 1.75 0.75 4.15 -0.05 1.45 -0.45 3.05 -1.15 3.55 -1.50 1.90 -1.45 1.85 -0.70 -0.05 1.25 -1.05 1.10 -2.35 2 -2.85 2 -0.50 0 -0.90 0.20 -0.90 0.45 0 0.25 -0.60 0.60 -1.35 0.75 -0.80 0.20 -1.75 0.45 -2.15 0.55 -0.40 0.10 -0.95 0.10 -1.25 0z"/>
  <path d="M2.65 28.10 c0.20 -0.75 -0.05 -1.35 -0.80 -1.85 -1.90 -1.35 -1.30 -8.25 0.75 -8.25 0.25 0 0.20 0.40 -0.10 0.95 -0.25 0.55 -0.35 2 -0.15 3.35 0.25 1.80 0.40 2.15 0.70 1.45 0.30 -0.95 0.35 -0.95 0.70 -0.10 0.20 0.50 0.15 1.15 -0.20 1.50 -0.30 0.30 -0.55 0.85 -0.55 1.20 0 1.10 0.95 0.70 1.70 -0.70 0.65 -1.15 0.75 -1.25 0.75 -0.40 0 0.55 -0.70 1.70 -1.55 2.50 -1.45 1.40 -1.55 1.40 -1.25 0.35z"/>
  <path d="M16.20 1.20 c0.15 -0.45 0.30 -0.90 0.30 -1 0 -0.10 0.35 -0.20 0.75 -0.20 0.90 0 0.95 0.60 0.15 1.40 -0.85 0.85 -1.55 0.75 -1.20 -0.20z"/>
 </g>
 <g fill="#d19deb">
  <path d="M2.50 39.30 c0 -0.45 -0.25 -0.80 -0.55 -0.80 -0.30 0 -0.05 -0.70 0.55 -1.50 0.85 -1.20 1.30 -1.45 2.30 -1.20 1 0.25 1.20 0.10 1.20 -0.80 0 -0.95 0.10 -1 0.75 -0.50 0.65 0.55 0.60 0.75 -0.50 1.60 -0.65 0.50 -1.50 1.55 -1.85 2.25 -0.75 1.55 -1.90 2.10 -1.90 0.95z"/>
  <path d="M29.50 39.65 c0 -0.50 5.55 -5.65 6.10 -5.65 0.55 0 0.50 1.85 -0.10 2.25 -0.25 0.15 -0.85 1.05 -1.30 2 -0.70 1.55 -1.05 1.75 -2.75 1.75 -1.10 0 -1.95 -0.15 -1.95 -0.35z"/>
  <path d="M30.65 36 c0.20 -0.70 0.45 -2.60 0.65 -4.20 0.25 -2.05 0.70 -3.30 1.55 -4.25 l1.20 -1.30 -0.30 2.50 c-0.20 1.40 -0.40 3.10 -0.45 3.85 -0.10 0.75 -0.75 2.10 -1.55 3 -1.30 1.60 -1.35 1.60 -1.10 0.40z"/>
  <path d="M8.60 34.95 c-0.35 -0.60 -0.55 -1.15 -0.40 -1.30 0.35 -0.35 1.80 1.15 1.80 1.80 0 0.90 -0.70 0.65 -1.40 -0.50z"/>
  <path d="M12.15 30.95 c0.20 -0.65 0.35 -1.45 0.35 -1.80 0 -0.35 0.50 -0.90 1.15 -1.20 1.05 -0.60 1.05 -0.55 0.25 0.40 -0.50 0.55 -0.90 1.45 -0.90 2.05 0 0.55 -0.25 1.20 -0.60 1.40 -0.40 0.25 -0.45 0 -0.25 -0.85z"/>
  <path d="M2.50 28.95 c0 -0.75 0.35 -1.45 0.75 -1.60 0.40 -0.20 1.20 -1.20 1.75 -2.35 1.15 -2.25 2.25 -2.95 3.15 -2.05 0.45 0.45 0.40 0.95 -0.30 2.10 -0.45 0.85 -0.75 1.70 -0.60 1.95 0.30 0.50 -1.15 1.75 -1.60 1.35 -0.15 -0.20 0 -0.65 0.35 -1.10 0.35 -0.45 0.50 -0.90 0.35 -1.05 -0.50 -0.50 -2.35 1 -3.10 2.55 l-0.75 1.50 0 -1.30z"/>
  <path d="M7.35 28.90 c0.65 -0.60 1.25 -0.95 1.45 -0.75 0.50 0.50 -0.80 1.85 -1.70 1.85 -0.65 0 -0.60 -0.20 0.25 -1.10z"/>
  <path d="M19 27.65 c0 -0.60 1.90 -2.40 2.25 -2.05 0.15 0.10 -0.30 0.75 -1 1.40 -0.70 0.65 -1.25 0.95 -1.25 0.65z"/>
  <path d="M35.80 22.90 c-0.55 -2.15 -0.35 -2.60 0.70 -1.40 0.55 0.65 1 1.45 1 1.85 0 1.10 -1.35 0.75 -1.70 -0.45z"/>
  <path d="M22.05 21.65 c-0.05 -0.60 0.20 -1.25 0.45 -1.40 0.60 -0.35 0.60 0.10 0 1.50 -0.40 0.95 -0.45 0.95 -0.45 -0.10z"/>
  <path d="M4.75 18.10 c-0.30 -3.45 -0.20 -4.20 0.80 -6.35 1.30 -2.80 1.95 -2.20 0.75 0.75 -0.55 1.40 -0.70 3.05 -0.55 5.75 0.30 4.95 -0.55 4.85 -1 -0.15z"/>
  <path d="M13 19.65 c0 -0.50 0.45 -1.45 1 -2.15 1.45 -1.80 1.25 -2.35 -0.75 -2.10 -1.10 0.15 -2.25 -0.10 -3.05 -0.65 -1.15 -0.75 -1.35 -0.75 -2.15 -0.05 -1.30 1.15 -1.60 1 -0.95 -0.55 0.90 -2.20 1.25 -2.35 2.45 -1.20 0.85 0.75 1.80 1.05 3.50 1.05 1.30 0 2.45 0.20 2.55 0.50 0.10 0.30 0.95 0.20 2.15 -0.25 3.70 -1.30 5.25 -0.55 2.20 1.05 -0.85 0.45 -2.55 1.80 -3.70 3 -2.30 2.35 -3.25 2.75 -3.25 1.35z"/>
  <path d="M37.70 19.10 c-1.25 -0.75 0.25 -11.10 1.60 -11.10 0.80 0 1 4 0.25 4.80 -0.30 0.25 -0.70 1.85 -0.90 3.55 -0.30 2.15 -0.60 3 -0.95 2.75z"/>
  <path d="M9.75 6.50 c0.50 -0.55 1 -1 1.10 -1 0.10 0 -0.05 0.45 -0.35 1 -0.30 0.55 -0.80 1 -1.10 1 -0.30 0 -0.15 -0.45 0.35 -1z"/>
  <path d="M12 2.25 c0 -0.40 0.25 -0.75 0.50 -0.75 0.30 0 0.50 0.35 0.50 0.75 0 0.40 -0.20 0.75 -0.50 0.75 -0.25 0 -0.50 -0.35 -0.50 -0.75z"/>
 </g>
 <g fill="#fada9c">
  <path d="M26.75 8.55 c-0.15 -0.30 0.30 -1.65 0.95 -3.05 0.70 -1.40 1.40 -3.20 1.55 -4 0.25 -1.15 0.60 -1.50 1.55 -1.50 1.55 0 1.55 1 -0.10 4.50 -1.80 3.85 -3.15 5.25 -3.95 4.05z"/>
  <path d="M6.80 7.70 c-0.85 -2.15 0.65 -7.70 2.05 -7.70 0.85 0 0.80 0.60 -0.10 1.80 -0.40 0.55 -0.75 2.05 -0.75 3.55 0 2.60 -0.65 3.85 -1.20 2.35z"/>
  <path d="M16.05 3.20 c0 -1.35 0.25 -2.30 0.70 -2.70 1.10 -0.90 1.60 -0.20 0.60 0.85 -0.40 0.50 -0.85 1.60 -1 2.40 -0.15 1.25 -0.20 1.15 -0.30 -0.55z"/>
  <path d="M14 1.30 c0 -1.55 0.30 -1.70 0.65 -0.30 0.15 0.55 0.05 1.15 -0.20 1.30 -0.25 0.15 -0.45 -0.30 -0.45 -1z"/>
 </g>
 <g fill="#d6baf7">
  <path d="M1 39.45 c0 -0.25 0.60 -1.25 1.30 -2.15 1.05 -1.30 1.60 -1.60 2.60 -1.40 1.05 0.20 1.15 0.35 0.55 0.80 -0.40 0.30 -1 1.15 -1.30 1.95 -0.45 0.95 -1 1.35 -1.90 1.35 -0.70 0 -1.25 -0.25 -1.25 -0.55z"/>
  <path d="M30.05 39.15 c1.95 -2.35 2.90 -3.15 3.90 -3.15 0.55 0 1.05 0.25 1.05 0.50 0 0.30 -0.20 0.50 -0.45 0.50 -0.25 0 -0.60 0.70 -0.80 1.50 -0.30 1.35 -0.50 1.50 -2.35 1.50 -1.85 0 -1.95 -0.10 -1.35 -0.85z"/>
  <path d="M31.05 35.35 c0.30 -0.65 0.85 -1.20 1.25 -1.20 0.50 0 0.40 0.35 -0.40 1.20 -0.60 0.65 -1.15 1.15 -1.25 1.15 -0.05 0 0.10 -0.50 0.40 -1.15z"/>
  <path d="M31.50 31.40 c0 -0.90 0.50 -2.45 1.10 -3.40 l1.15 -1.75 0.15 1.75 c0.20 1.70 -1.10 5 -2 5 -0.20 0 -0.40 -0.75 -0.40 -1.60z"/>
  <path d="M7 29.60 c0 -0.50 1.10 -1.60 1.60 -1.60 0.75 0 0.40 1.40 -0.40 1.70 -1.05 0.40 -1.20 0.40 -1.20 -0.10z"/>
  <path d="M2.50 28.65 c0 -0.55 0.35 -1.15 0.75 -1.35 0.95 -0.35 0.95 0.15 0 1.40 -0.75 0.95 -0.75 0.95 -0.75 -0.05z"/>
  <path d="M1.85 26.15 c-0.55 -0.50 -0.40 -3.65 0.15 -3.65 0.30 0 0.50 0.40 0.50 0.90 0 0.45 0.15 1.35 0.30 2 0.30 1.05 -0.25 1.50 -0.95 0.75z"/>
  <path d="M6.75 24.55 c-0.15 -0.30 -0.55 -0.40 -0.85 -0.25 -0.30 0.20 -0.30 -0.10 0.05 -0.75 0.65 -1.15 1.80 -1.40 2.35 -0.50 0.15 0.30 0 0.90 -0.45 1.30 -0.50 0.50 -0.85 0.60 -1.10 0.20z"/>
  <path d="M8.60 21.40 c-0.90 -0.90 -0.75 -1.40 0.40 -1.40 0.65 0 1 0.35 1 1 0 1.15 -0.50 1.30 -1.40 0.40z"/>
  <path d="M14.75 18.50 c-0.20 -0.30 -0.55 -0.40 -0.80 -0.25 -0.25 0.20 0.05 -0.50 0.60 -1.50 l1.10 -1.80 -1.80 0.30 c-1.25 0.25 -2.30 0.10 -3.40 -0.45 -1.45 -0.70 -1.70 -0.70 -2.45 -0.05 -1.35 1.20 -1.65 0.85 -0.65 -0.75 1 -1.70 1.10 -1.75 2.45 -0.75 0.50 0.40 1.85 0.75 3 0.75 1.10 0 2.25 0.25 2.55 0.55 0.45 0.45 1 0.45 2.20 0 2 -0.70 3.45 -0.70 3.45 -0.05 0 0.30 -0.30 0.50 -0.65 0.50 -0.40 0 -1.65 0.90 -2.85 2 -2.45 2.25 -2.35 2.20 -2.75 1.50z"/>
  <path d="M5.05 15.45 c0 -0.95 0.30 -2.20 0.75 -2.75 0.40 -0.50 0.60 -0.60 0.40 -0.20 -0.25 0.40 -0.55 1.65 -0.75 2.75 l-0.30 2 -0.10 -1.80z"/>
  <path d="M37.80 13.15 c0.40 -3.40 0.95 -5.15 1.70 -5.15 0.25 0 0.50 1 0.50 2.25 0 1.25 -0.20 2.25 -0.50 2.25 -0.25 0 -0.60 0.80 -0.80 1.75 -0.50 2.90 -1.25 2 -0.90 -1.10z"/>
 </g>
 <g fill="#f3a7fd">
  <path d="M2.60 37 c0.35 -0.55 0.80 -1 1 -1 0.25 0 0.40 0.45 0.40 1 0 0.65 -0.35 1 -1 1 -0.90 0 -0.95 -0.10 -0.40 -1z"/>
  <path d="M14 30.30 c0 -0.45 0.35 -0.95 0.75 -1.15 1.25 -0.45 1.35 0.10 0.25 1.10 -0.90 0.85 -1 0.85 -1 0.05z"/>
  <path d="M32.50 29.75 c-0.50 -0.60 -0.50 -0.75 0.20 -0.75 0.45 0 0.80 0.35 0.80 0.75 0 0.40 -0.10 0.75 -0.20 0.75 -0.10 0 -0.45 -0.35 -0.80 -0.75z"/>
  <path d="M6.30 23.60 c-0.10 -0.20 0.20 -0.45 0.75 -0.45 0.50 -0.05 0.95 0.10 0.95 0.40 0 0.55 -1.35 0.60 -1.70 0.05z"/>
  <path d="M5.30 21.40 c-0.15 -0.35 -0.35 -2.10 -0.50 -3.90 -0.25 -2.75 -0.10 -3.60 0.90 -5.75 0.70 -1.35 1.25 -2.10 1.25 -1.60 0.05 0.50 -0.30 1.60 -0.75 2.45 -0.65 1.25 -0.75 2.50 -0.55 5.50 0.25 3.60 0.10 4.80 -0.35 3.30z"/>
  <path d="M14.70 17.95 c-0.15 -0.30 -0.05 -0.80 0.25 -1.10 0.40 -0.40 0.55 -0.25 0.55 0.55 0 1.20 -0.25 1.40 -0.80 0.55z"/>
 </g>
 <g fill="#fef6b9">
  <path d="M1.50 25.75 c-0.35 -0.45 -0.50 -0.90 -0.35 -1.05 0.50 -0.55 1.85 0.25 1.85 1.05 0 0.95 -0.70 0.95 -1.50 0z"/>
  <path d="M26.75 8.50 c-0.20 -0.30 0.45 -1.30 1.45 -2.20 1 -0.90 1.80 -2 1.80 -2.45 0 -0.45 0.25 -0.85 0.50 -0.85 0.30 0 0.50 0.10 0.50 0.20 0 0.45 -1.35 3.15 -2.20 4.45 -0.95 1.45 -1.55 1.65 -2.05 0.85z"/>
  <path d="M6.85 7.35 c-0.20 -0.50 -0.35 -1.40 -0.35 -1.95 0 -1.20 2 -5.40 2.55 -5.40 0.45 0 -0.05 1.95 -0.60 2.30 -0.25 0.15 -0.45 1 -0.50 1.85 -0.05 0.90 -0.20 2.15 -0.40 2.85 -0.30 1.10 -0.40 1.15 -0.70 0.35z"/>
  <path d="M16 1.60 c0 -0.50 1.10 -1.60 1.60 -1.60 0.25 0 0.15 0.45 -0.20 1 -0.65 1 -1.40 1.35 -1.40 0.60z"/>
 </g>
 <g fill="#e9dbf7">
  <path d="M31.10 39.40 c0.30 -0.90 1.40 -1.05 1.40 -0.20 0 0.45 -0.35 0.80 -0.80 0.80 -0.45 0 -0.70 -0.25 -0.60 -0.60z"/>
  <path d="M1.30 39.10 c-0.15 -0.25 0.40 -1.10 1.20 -1.85 1.40 -1.30 1.50 -1.35 1.50 -0.40 0 0.55 -0.40 1.35 -0.90 1.80 -1.05 0.95 -1.40 1.05 -1.80 0.45z"/>
  <path d="M3.35 33.65 c-0.50 -0.50 -0.40 -2.25 0.10 -1.95 0.55 0.35 1.05 2.30 0.60 2.30 -0.20 0 -0.55 -0.15 -0.70 -0.35z"/>
  <path d="M16.15 32.15 c-0.35 -0.15 -0.65 -0.55 -0.65 -0.95 0 -0.55 0.80 -0.70 3.25 -0.70 2.50 0 3.25 0.15 3.25 0.75 0 0.90 -4.10 1.55 -5.85 0.90z"/>
  <path d="M32.55 29.80 c-0.50 -0.60 -0.50 -0.95 0 -1.90 l0.60 -1.15 0.50 1.10 c0.30 0.65 0.30 1.35 0 1.90 -0.40 0.70 -0.55 0.75 -1.10 0.05z"/>
  <path d="M7.60 29.05 c0.65 -1.10 1.40 -1.40 1.40 -0.55 0 0.25 -0.45 0.70 -1 1 -0.95 0.50 -1 0.50 -0.40 -0.45z"/>
  <path d="M8.25 20.95 c-0.20 -0.30 -0.20 -0.65 -0.05 -0.80 0.40 -0.40 1.80 0.25 1.80 0.85 0 0.65 -1.35 0.65 -1.75 -0.05z"/>
  <path d="M14.75 18 c-0.50 -0.80 0.65 -2.35 1.85 -2.60 0.65 -0.15 1.60 -0.45 2.15 -0.65 0.65 -0.25 0.30 0.30 -1 1.70 -2.05 2.15 -2.50 2.40 -3 1.55z"/>
  <path d="M38 11.45 c0 -0.85 1 -2.45 1.50 -2.45 0.30 0 0.50 0.70 0.50 1.50 0 1.15 -0.20 1.50 -1 1.50 -0.55 0 -1 -0.25 -1 -0.55z"/>
 </g>
 <g fill="#fbfcf6">
  <path d="M9 35.40 c-1.05 -1.15 -1.30 -2.15 -0.55 -2.60 0.35 -0.25 2.55 2.75 2.55 3.50 0 0.55 -1.05 0.10 -2 -0.90z"/>
  <path d="M3.50 33.75 c-0.30 -0.40 -0.50 -1.05 -0.40 -1.45 0.10 -0.55 0.40 -0.35 1 0.70 0.90 1.55 0.50 2.05 -0.60 0.75z"/>
  <path d="M15.40 31.80 c-0.60 -0.30 -1.15 -1 -1.15 -1.55 0 -0.85 0.30 -1 1.75 -0.90 6.30 0.40 7.30 0.30 9.75 -0.75 l2.50 -1.15 -1.50 1.55 c-0.85 0.90 -2.10 1.90 -2.85 2.30 -1.80 0.95 -7 1.25 -8.50 0.50z"/>
  <path d="M1.85 25.95 c-1.15 -0.65 -1.20 -5.80 -0.10 -7.25 0.75 -0.90 0.75 -0.90 0.45 0.35 -0.15 0.75 -0.05 2.60 0.25 4.20 0.30 1.60 0.50 3 0.40 3.05 -0.05 0.05 -0.50 -0.10 -1 -0.35z"/>
  <path d="M15 17.25 c0 -0.80 1.35 -1.60 1.85 -1.05 0.35 0.35 -0.80 1.80 -1.40 1.80 -0.25 0 -0.45 -0.35 -0.45 -0.75z"/>
  <path d="M27.10 8.20 c0.05 -0.45 0.45 -0.95 0.80 -1.10 0.45 -0.15 0.65 0.10 0.50 0.70 -0.05 0.45 -0.45 0.95 -0.80 1.10 -0.45 0.15 -0.65 -0.10 -0.50 -0.70z"/>
 </g>
</svg>