<?xml version="1.0" encoding="utf-8"?>
<!DOCTYPE svg PUBLIC "-//W3C//DTD SVG 1.0//EN" "http://www.w3.org/TR/2001/REC-SVG-20010904/DTD/svg10.dtd">
<svg version="1.0" xmlns="http://www.w3.org/2000/svg" width="40px" height="40px" viewBox="0 0 40 40" preserveAspectRatio="xMidYMid meet">
 <g fill="#09050b">
  <path d="M6.50 36.70 c-0.65 -0.65 -1.60 -1.20 -2.10 -1.20 -0.55 0 -0.75 -0.25 -0.60 -0.70 0.15 -0.35 -0.10 -1 -0.50 -1.45 -0.45 -0.45 -0.80 -1.45 -0.80 -2.30 0 -1.40 0.15 -1.55 1.50 -1.55 1.15 0 1.50 0.20 1.50 1 0 0.65 0.35 1 1 1 0.55 0 1 -0.20 1 -0.50 0 -0.25 0.90 -0.50 2 -0.50 1.60 0 2 -0.20 2 -0.90 0 -1.75 1.45 -3.10 3.30 -3.10 1.75 0 1.75 0.05 1.60 1.90 -0.10 1.15 0.10 2.05 0.55 2.40 0.60 0.50 0.65 0.80 0.05 2.20 -0.60 1.45 -0.85 1.55 -2.40 1.40 -2 -0.25 -3.60 0.90 -3.60 2.60 0 1.50 -2.90 1.30 -4.50 -0.30z"/>
  <path d="M30.20 36.90 c0.15 -0.65 0.30 -1.55 0.30 -2 0 -0.70 0.40 -0.90 1.80 -0.90 1.75 0 1.75 0.05 1.60 1.90 -0.15 1.75 -0.25 1.85 -2.10 2 -1.80 0.15 -1.90 0.10 -1.60 -1z"/>
  <path d="M18.15 30.65 c-0.35 -0.10 -0.65 -1 -0.65 -1.95 0 -1.40 0.20 -1.70 1 -1.70 0.60 0 1.60 -0.55 2.30 -1.25 0.85 -0.85 1.80 -1.25 2.95 -1.25 1.65 0 1.75 -0.10 1.75 -1.75 0 -1.65 0.10 -1.75 1.75 -1.75 1.65 0 1.75 0.10 1.75 1.75 0 0.95 0.25 1.75 0.50 1.75 0.90 0 0.50 1.55 -0.60 2.55 -1.25 1 -2.45 1.30 -1.50 0.35 1.95 -1.95 -1.10 -1.85 -3.40 0.10 -1.20 1.10 -1.45 1.50 -0.85 1.50 0.50 0 0.85 0.40 0.85 1 0 0.90 -0.30 1 -2.60 0.95 -1.45 0 -2.95 -0.15 -3.25 -0.30z"/>
  <path d="M2.15 27.65 c-0.05 -0.50 -0.15 -1.35 -0.25 -1.90 -0.10 -0.85 0.15 -1.05 1.75 -1.15 l1.85 -0.15 0 2 c0 2 -0.05 2.05 -1.65 2.05 -1.20 0 -1.65 -0.25 -1.70 -0.85z"/>
  <path d="M13.10 21.75 c0.15 -1.90 0 -2.25 -0.70 -2.25 -0.70 0 -0.90 -0.40 -0.90 -1.75 0 -1.65 0.10 -1.75 1.75 -1.75 1.45 0 1.75 0.20 1.75 1.05 0 0.95 0.05 0.95 1.10 0.25 0.60 -0.45 1.85 -0.80 2.75 -0.80 0.90 0 1.65 -0.25 1.65 -0.55 0 -0.30 0.95 -0.45 2.40 -0.35 2.35 0.15 2.35 0.15 2.50 2.05 0.10 1.05 -0.05 1.85 -0.35 1.85 -0.30 0 -0.55 0.25 -0.55 0.55 0 0.30 -0.45 1.20 -1.05 2 -0.80 1.10 -1.40 1.45 -2.75 1.45 -1.50 0 -1.70 -0.15 -1.70 -1.35 l-0.05 -1.40 -1.40 1.65 c-1.05 1.20 -1.80 1.60 -3 1.60 -1.65 0 -1.65 0 -1.45 -2.25z"/>
  <path d="M32.50 18.75 c0 -1.65 0.10 -1.75 1.75 -1.75 1.65 0 1.75 0.10 1.75 1.75 0 1.65 -0.10 1.75 -1.75 1.75 -1.65 0 -1.75 -0.10 -1.75 -1.75z"/>
  <path d="M5.40 18.95 c-0.50 -0.50 -0.90 -1.60 -0.90 -2.45 0 -1.40 0.10 -1.50 1.90 -1.50 2.40 0 3.10 0.70 3.10 3.10 0 1.80 -0.05 1.90 -1.60 1.85 -0.95 0 -2.05 -0.45 -2.50 -1z"/>
  <path d="M27.50 13.25 c0 -1.40 0.25 -1.90 1 -2.10 0.55 -0.15 1 -0.70 1 -1.20 0 -0.55 0.20 -0.95 0.45 -0.95 0.25 0 0.55 -0.90 0.75 -2 0.25 -1.70 0.50 -2 1.55 -2 0.70 0 1.25 -0.20 1.25 -0.50 0 -0.25 0.35 -0.50 0.75 -0.50 0.40 0 0.75 -0.45 0.75 -1 0 -0.55 0.35 -1.15 0.75 -1.30 0.40 -0.20 0.75 -0.60 0.75 -1 0 -0.45 0.60 -0.70 1.75 -0.70 1.65 0 1.75 0.10 1.75 1.75 0 0.95 -0.20 1.75 -0.45 1.75 -0.25 0 -0.55 0.45 -0.70 1 -0.15 0.55 -0.60 1 -1.05 1 -0.45 0 -0.80 0.35 -0.80 0.75 0 1.60 -1.15 3.15 -2.55 3.45 -1.15 0.20 -1.45 0.55 -1.45 1.55 0 0.75 -0.30 1.25 -0.70 1.25 -0.40 0 -0.80 0.50 -0.90 1.15 -0.10 0.90 -0.50 1.15 -2 1.25 -1.90 0.15 -1.90 0.15 -1.90 -1.65z"/>
  <path d="M5 13.50 c0 -0.60 0.40 -1.85 0.95 -2.90 0.70 -1.40 0.80 -2.15 0.45 -3.10 -0.60 -1.65 -0.05 -4.50 0.85 -4.50 0.55 0 0.75 0.70 0.75 2.75 0 2.10 0.15 2.75 0.75 2.75 0.90 0 1.05 2.85 0.15 4.75 -0.45 0.95 -0.95 1.25 -2.25 1.25 -1.35 0 -1.65 -0.20 -1.65 -1z"/>
  <path d="M13 8.75 c0 -1.65 0.10 -1.75 1.65 -1.75 1.05 0 1.80 -0.35 2.25 -1 0.35 -0.55 0.95 -1 1.35 -1 0.40 0 0.75 -0.20 0.75 -0.45 0 -0.20 1 -0.70 2.25 -1.05 1.25 -0.35 2.25 -0.95 2.25 -1.30 0 -0.40 0.40 -0.70 0.95 -0.70 0.50 0 1.20 -0.35 1.55 -0.75 0.35 -0.45 1.45 -0.75 2.55 -0.75 1.85 0 1.95 0.05 1.95 1.65 0 2 -0.40 2.60 -2 3 -1.15 0.30 -1.25 0.50 -1.10 2.60 l0.20 2.25 -2.05 0 c-1.85 0 -2.05 -0.15 -2.05 -1.20 0 -1 -0.20 -1.15 -1.10 -0.90 -0.65 0.15 -1.45 0.70 -1.80 1.20 -0.40 0.55 -1.30 0.90 -2.40 0.90 -0.95 0 -1.70 0.25 -1.70 0.50 0 0.30 -0.80 0.50 -1.75 0.50 -1.65 0 -1.75 -0.10 -1.75 -1.75z"/>
  <path d="M9.50 5.15 c0 -0.80 0.15 -2.25 0.30 -3.25 0.30 -1.85 0.40 -1.90 2.50 -1.90 1.60 0 2.20 0.20 2.20 0.75 0 0.40 0.25 0.75 0.50 0.75 0.30 0 0.50 0.90 0.50 2 0 1.65 -0.15 2 -0.95 2 -0.55 0 -1.15 0.25 -1.30 0.50 -0.15 0.30 -1.10 0.50 -2.05 0.50 -1.50 0 -1.70 -0.15 -1.70 -1.35z"/>
 </g>
 <g fill="#111221">
  <path d="M8.25 38.50 c-0.15 -0.25 -0.25 -1.20 -0.15 -2.10 0.05 -0.90 -0.20 -2.10 -0.55 -2.65 -0.55 -0.90 -0.60 -0.90 -0.30 0.40 0.25 1.25 0.15 1.35 -1.50 1.35 -0.95 0 -1.75 -0.25 -1.75 -0.55 0 -0.30 -0.35 -0.85 -0.75 -1.25 -1.15 -1.15 -1 -3.20 0.25 -3.20 0.75 0 1 -0.35 1 -1.25 0 -0.90 -0.25 -1.25 -0.90 -1.25 -0.85 0 -2.10 -1.80 -2.10 -3 0 -0.30 0.80 -0.50 1.75 -0.50 1.50 0 1.75 0.15 1.75 1.15 0 1 0.20 1.10 2 0.95 l2 -0.20 0 2.05 c0 1.15 -0.20 2.05 -0.45 2.05 -0.25 0 -0.35 0.45 -0.20 1 0.15 0.55 0.60 1 0.95 1 0.40 0 0.70 0.35 0.70 0.80 0 0.40 0.25 0.60 0.50 0.45 0.75 -0.50 0.60 -1.75 -0.25 -1.75 -0.40 0 -0.75 -0.35 -0.75 -0.75 0 -0.40 0.45 -0.75 1 -0.75 0.75 0 1 -0.35 1 -1.25 0 -0.70 0.25 -1.25 0.50 -1.25 0.30 0 0.50 -0.65 0.50 -1.50 0 -1.40 0.15 -1.50 1.75 -1.50 1.70 0 1.75 0.10 1.75 1.80 0 1.35 -0.20 1.75 -0.70 1.55 -0.40 -0.15 -1 0.10 -1.40 0.55 -0.60 0.75 -0.55 0.80 0.20 0.20 0.70 -0.55 0.85 -0.50 1 0.50 0.10 0.85 0.55 1.20 1.55 1.30 1.20 0.15 2.05 1.60 0.90 1.60 -0.25 0 -0.65 0.45 -0.80 1 -0.20 0.70 -0.75 1 -1.80 1 -1.35 0 -1.45 0.15 -1.45 1.95 0 1.60 -0.20 2 -1.10 2.25 -1.75 0.45 -3.80 0.35 -4.15 -0.20z m7 -6.30 c-0.55 -0.40 -1.30 -1.10 -1.60 -1.55 -0.35 -0.45 -0.65 -0.60 -0.65 -0.25 0 0.80 1.85 2.60 2.65 2.60 0.30 0 0.15 -0.35 -0.40 -0.80z"/>
  <path d="M17 28.50 l0 -2 2 0 c1.45 0 2 -0.20 2 -0.75 0 -0.45 0.45 -0.75 1.25 -0.75 1.05 0 1.25 -0.25 1.25 -1.50 0 -1.15 0.25 -1.55 1.25 -1.80 0.70 -0.15 1.25 -0.50 1.25 -0.75 0 -0.25 0.80 -0.45 1.75 -0.45 1.65 0 1.75 0.10 1.75 1.75 0 0.95 0.25 1.75 0.50 1.75 1 0 0.45 1.90 -0.75 2.70 -1.50 1 -2.05 1.05 -1.30 0.10 0.50 -0.60 0.30 -0.75 -0.90 -1.05 -2 -0.45 -3.15 0 -5.05 1.75 -0.95 0.90 -1.90 1.35 -2.40 1.20 -0.70 -0.25 -0.75 -0.20 -0.10 0.25 0.40 0.30 1.25 0.55 1.90 0.55 0.65 0 1 0.20 0.85 0.50 -0.15 0.30 -1.40 0.50 -2.80 0.50 l-2.45 0 0 -2z"/>
  <path d="M12.50 22.30 c0 -0.95 0.30 -1.85 0.65 -1.95 0.30 -0.15 0 -0.30 -0.75 -0.30 -1.25 -0.05 -1.40 -0.25 -1.40 -1.70 0 -2.40 1.20 -3.85 3.30 -3.85 1.45 0 1.70 0.15 1.70 1.20 l0 1.25 2.85 -1 c4.70 -1.60 6.65 -1.25 6.65 1.30 0 1.60 -0.05 1.65 -2.75 2 -2 0.25 -3.25 0.75 -4.70 1.90 -1.10 0.90 -2 1.90 -2 2.25 -0.05 0.35 -0.75 0.60 -1.80 0.60 -1.65 0 -1.75 -0.10 -1.75 -1.70z m6.20 -3.60 c0.95 -0.40 1.20 -0.65 0.70 -0.70 -1 0 -4.90 3.30 -4.90 4.20 0 0.30 0.60 -0.20 1.35 -1.15 0.70 -0.90 2 -1.95 2.85 -2.35z"/>
  <path d="M5.30 22.75 c-0.50 -1.30 -0.35 -3.75 0.20 -3.75 0.30 0 0.50 -0.45 0.50 -1 0 -1.25 0.80 -1.30 1.45 -0.10 0.30 0.45 0.55 0.55 0.55 0.25 0 -0.35 -0.45 -0.90 -1 -1.25 -1.50 -0.95 -1.20 -1.40 1 -1.40 l2 0 0 2 c0 1.40 -0.20 2 -0.70 2 -0.50 0 -0.80 0.65 -0.90 1.90 -0.15 1.60 -0.35 1.85 -1.45 2 -0.85 0.10 -1.45 -0.15 -1.65 -0.65z"/>
  <path d="M32.30 19.45 c-0.65 -3.35 -0.45 -3.95 1.40 -3.95 1.50 0 1.70 0.20 2 1.55 0.65 3.35 0.45 3.95 -1.40 3.95 -1.50 0 -1.70 -0.20 -2 -1.55z"/>
  <path d="M27 13.75 c0 -1.60 0.20 -2.25 0.70 -2.25 0.40 0 0.80 -0.35 1 -0.75 0.15 -0.40 0.60 -0.75 1.05 -0.75 0.50 0 0.75 -0.50 0.75 -1.50 0 -0.80 0.25 -1.50 0.50 -1.50 0.30 0 0.50 -1.15 0.50 -2.55 l0 -2.60 2.15 0.25 c1.85 0.20 2.25 0.10 2.65 -0.80 0.30 -0.70 1 -1.10 2.10 -1.20 1.55 -0.15 1.60 -0.15 1.60 1.90 0 1.65 -0.20 2.15 -1 2.35 -0.55 0.15 -1 0.55 -1 0.90 0 1.20 -1.95 2.90 -3 2.60 -0.85 -0.20 -1 0 -1 1.20 0 0.95 -0.25 1.45 -0.75 1.45 -0.50 0 -0.75 0.50 -0.75 1.55 0 1.10 -0.25 1.60 -1 1.80 -0.55 0.15 -1 0.70 -1 1.20 0 0.75 -0.35 0.95 -1.75 0.95 -1.75 0 -1.75 0 -1.75 -2.25z"/>
  <path d="M14 10.25 c0 -1.55 -1.45 -1.70 -2.75 -0.25 -1 1.10 -3.25 1.35 -3.25 0.40 0 -0.45 -0.20 -0.40 -0.50 0.10 -0.35 0.55 -0.50 0.30 -0.50 -1.10 0 -1.40 0.35 -2.10 1.50 -3.05 0.85 -0.70 1.50 -1.70 1.50 -2.25 0 -1.25 1.30 -2.40 1.65 -1.50 0.20 0.50 0.30 0.50 0.30 0.05 0.05 -0.40 0.70 -0.65 1.55 -0.65 1.40 0 1.50 0.15 1.50 1.75 0 0.95 0.25 1.75 0.50 1.75 0.30 0 0.50 0.35 0.50 0.75 0 1.25 1.90 0.90 2.10 -0.35 0.10 -0.85 0.55 -1.20 1.55 -1.30 0.75 -0.10 1.35 -0.40 1.35 -0.65 0 -0.25 0.30 -0.45 0.70 -0.45 0.40 0 0.80 -0.35 1 -0.75 0.15 -0.45 0.90 -0.75 1.80 -0.75 0.80 0 1.50 -0.20 1.50 -0.50 0 -0.25 0.60 -0.50 1.35 -0.50 1.30 0 1.30 0 0.35 1.05 -0.70 0.75 -0.75 1 -0.20 0.85 0.40 -0.10 1 -0.60 1.35 -1.15 0.55 -0.90 0.60 -0.70 0.65 1.40 0 3.90 -1.90 6.85 -4.45 6.85 -1.40 0 -1.55 -0.15 -1.55 -1.50 0 -1.60 -1.15 -2.10 -1.70 -0.75 -0.15 0.45 -0.90 0.75 -1.80 0.75 -1.10 0 -1.50 0.25 -1.50 0.90 0 1.35 -1 2.10 -2.85 2.10 -1.45 0 -1.65 -0.15 -1.65 -1.25z"/>
 </g>
 <g fill="#1f2337">
  <path d="M7.65 37.75 c0.30 -2.15 0.30 -2.25 -0.95 -2.25 -0.70 0 -1.60 -0.30 -2 -0.70 -0.35 -0.40 -0.95 -0.80 -1.25 -0.90 -0.30 -0.10 -0.75 -1.25 -0.95 -2.55 -0.40 -2.60 0.20 -3.35 2.45 -3.35 0.70 0 1.05 -0.30 1.05 -0.95 0 -0.55 0.35 -1.30 0.75 -1.75 1.10 -1.05 0.90 -2.20 -0.35 -2.40 -0.90 -0.10 -1.20 -0.60 -1.55 -2.40 -0.30 -1.50 -0.30 -2.25 0.10 -2.40 0.30 -0.10 0.55 -0.85 0.55 -1.65 0 -1.35 0.15 -1.45 1.95 -1.45 1.10 0 2.30 0.35 2.75 0.75 0.65 0.70 0.80 0.65 1.30 -0.25 0.75 -1.45 4 -1.45 4 0 0 1.20 0.75 1.25 3.05 0.30 0.95 -0.40 3.05 -0.85 4.70 -1.10 1.65 -0.20 2.70 -0.45 2.40 -0.55 -0.35 -0.15 -0.65 -0.80 -0.65 -1.45 0 -0.85 -0.30 -1.20 -1 -1.20 -0.85 0 -1 -0.35 -1 -2 0 -1.45 -0.20 -2 -0.75 -2 -0.50 0 -0.75 0.50 -0.75 1.45 0 0.85 -0.30 1.55 -0.80 1.75 -2.35 0.90 -5.30 -0.35 -4.05 -1.70 0.45 -0.50 0.45 -0.55 0 -0.30 -0.45 0.25 -0.65 -0.05 -0.65 -0.90 0 -1.10 0.20 -1.30 1.55 -1.30 1.40 0 1.50 0.10 0.90 0.85 -0.45 0.55 -0.10 0.45 1.05 -0.35 2.20 -1.50 2.45 -1.75 1.40 -1.35 -0.65 0.25 -0.90 0.05 -0.90 -0.65 0 -0.75 0.35 -1 1.25 -1 0.70 0 1.25 -0.20 1.25 -0.50 0 -0.25 0.60 -0.50 1.35 -0.50 1.30 0 1.30 0 0.35 1.10 l-0.95 1.05 1.65 -0.95 c1.15 -0.65 1.40 -1 0.90 -1.10 -1.50 -0.30 -0.90 -1.60 0.75 -1.60 1.35 0 1.50 0.10 0.95 0.75 -0.50 0.60 -0.50 0.75 0.20 0.75 0.45 0 0.80 -0.20 0.80 -0.50 0 -0.25 0.25 -0.50 0.50 -0.50 0.80 0 0.60 3.50 -0.25 3.80 -0.40 0.20 -0.75 0.65 -0.75 1.05 0 0.40 -0.35 1.05 -0.75 1.45 -0.95 0.95 -0.95 2.20 -0.05 2.20 0.40 0 1.35 0.25 2.15 0.55 l1.40 0.55 -1.10 0.90 c-0.65 0.50 -1.15 1.15 -1.15 1.45 0 0.35 0.65 -0.20 1.50 -1.10 1.35 -1.55 1.45 -1.95 1.15 -4.20 -0.25 -2.40 -0.20 -2.55 1.05 -2.85 0.95 -0.25 1.30 -0.60 1.25 -1.45 -0.05 -0.85 -0.10 -0.90 -0.30 -0.20 -0.10 0.45 -0.55 0.85 -0.95 0.85 -0.50 0 -0.70 -0.65 -0.70 -2.50 l0 -2.50 1.75 0 c1.75 0 1.75 0 1.80 2.40 0.10 2.85 0.10 2.65 -0.35 3.85 -0.20 0.55 0.30 0.10 1.15 -1 0.80 -1.10 1.85 -2.30 2.30 -2.70 0.45 -0.35 0.85 -0.90 0.85 -1.20 0 -0.30 -0.70 0.20 -1.50 1.15 l-1.50 1.75 0.10 -2 c0.15 -1.90 0.20 -2 2 -2.15 l1.85 -0.15 -0.10 3.65 c-0.10 3.60 -0.15 3.65 -1.50 3.90 -1.10 0.20 -1.65 0.70 -2.25 2.25 -0.90 2.25 -0.95 7.50 -0.10 8.50 0.75 0.90 1.25 12.05 0.65 14.25 -0.40 1.50 -0.70 1.75 -2.20 1.90 -0.95 0.10 -1.90 0.50 -2.10 0.90 -0.20 0.40 -0.75 0.70 -1.20 0.70 -0.65 0 -0.75 -0.45 -0.45 -3.05 0.35 -2.95 1.10 -4.95 1.90 -4.95 0.25 0 0.40 -0.25 0.40 -0.60 0 -0.30 0.55 -1.30 1.25 -2.20 0.70 -0.90 1.25 -1.95 1.25 -2.40 0 -1.10 -0.85 -1.45 -1.40 -0.55 -0.50 1 -5.65 5.25 -6.30 5.25 -0.25 0 -0.10 -0.40 0.35 -0.90 0.75 -0.85 0.65 -0.85 -2.05 -0.70 -2.05 0.10 -3.05 0.40 -3.60 1.10 -0.90 1.10 -1.80 1.35 -3.60 0.85 -1 -0.25 -1.40 -0.70 -1.45 -1.50 -0.05 -0.60 -0.30 0.05 -0.55 1.50 -0.30 1.75 -0.75 2.65 -1.30 2.80 -0.55 0.15 -0.25 0.35 0.80 0.60 1.40 0.35 2.30 1.25 1.20 1.25 -0.70 0 -1.55 2.25 -1.90 5 -0.25 2 -0.50 2.50 -1.25 2.50 -0.70 0 -0.95 -0.35 -0.95 -1.25 0 -0.70 -0.20 -1.25 -0.50 -1.25 -0.25 0 -0.50 0.45 -0.50 0.95 0 1.10 -0.95 1.55 -3.35 1.55 l-1.80 0 0.30 -2.25z m3.90 -2.15 c-0.30 -0.60 -0.55 -1.50 -0.55 -2.10 0 -0.85 0.20 -1 1 -0.75 0.60 0.20 1 0.10 1 -0.25 0 -0.35 -0.80 -0.50 -2.10 -0.40 -1.95 0.15 -2.15 0.30 -2.40 1.60 l-0.25 1.50 -0.60 -1.35 c-0.40 -0.90 -0.90 -1.25 -1.40 -1.05 -0.40 0.20 -1.15 0 -1.60 -0.35 -0.75 -0.65 -0.75 -0.60 -0.20 0.45 0.40 0.75 0.90 1.05 1.40 0.90 0.50 -0.20 1.05 0.10 1.50 0.70 0.40 0.55 1.15 1 1.65 1 0.80 0 0.95 -0.30 0.75 -1.60 -0.15 -1.10 -0.10 -1.35 0.15 -0.65 0.75 1.90 1.75 3.75 1.95 3.55 0.15 -0.10 0 -0.65 -0.30 -1.20z m3.15 -0.70 c0.35 -0.25 0.25 -0.40 -0.30 -0.40 -0.65 0 -0.90 0.35 -0.85 1.40 0.05 1.05 0.10 1.10 0.30 0.35 0.15 -0.55 0.50 -1.15 0.85 -1.35z m0.45 -2.90 c-1.85 -1.10 -2 -1.75 -0.75 -3.20 0.85 -1.05 0.85 -1.05 -0.25 -0.10 -0.65 0.55 -1.15 1.35 -1.15 1.85 0 1.20 1.35 2.45 2.65 2.45 0.95 0 0.90 -0.15 -0.50 -1z m-0.80 -7.50 c2.10 0 1.20 -0.90 -1.10 -1.10 -2.20 -0.15 -2.25 -0.10 -2.25 1.25 0 1.35 0.05 1.40 1.10 0.65 0.60 -0.45 1.65 -0.80 2.25 -0.80z m-3.35 -2.50 c0 -0.25 -0.35 -0.50 -0.75 -0.50 -0.40 0 -0.75 -0.45 -0.75 -1 0 -0.55 -0.35 -1 -0.75 -1 -0.50 0 -0.75 0.50 -0.75 1.50 0 1.35 0.15 1.50 1.50 1.50 0.85 0 1.50 -0.20 1.50 -0.50z m5.10 -1.20 c1.45 -1.80 5.75 -3.65 7.15 -3.10 0.40 0.15 0.75 0.05 0.75 -0.15 0 -0.90 -1.30 -0.90 -3.95 0 -3 1.05 -3.65 1.50 -5.10 3.55 -1.45 2 -0.50 1.75 1.15 -0.30z m6.60 -0.80 c0.15 0 0.30 0.35 0.30 0.80 0 0.65 0.35 0.75 1.90 0.45 1 -0.20 1.95 -0.40 2 -0.50 0.10 -0.10 0.30 -1.10 0.45 -2.20 0.30 -2.10 -0.50 -2.95 -1 -1.05 -0.20 0.70 -0.70 1 -1.70 1 -1.90 0 -5.90 1.40 -6.70 2.30 -0.45 0.55 -0.40 0.70 0.20 0.70 0.40 0 0.85 -0.35 1.05 -0.75 0.15 -0.40 0.75 -0.75 1.30 -0.75 0.90 0 0.95 0.15 0.50 1.15 l-0.55 1.10 1 -1.10 c0.50 -0.65 1.10 -1.15 1.25 -1.15z m-14.25 -2.70 c-0.10 -0.10 -0.75 -0.35 -1.35 -0.55 -1.15 -0.35 -1.20 -0.35 -0.25 0.65 0.50 0.50 1.10 0.75 1.35 0.55 0.25 -0.25 0.40 -0.50 0.25 -0.65z m6.05 -0.90 c0 -0.70 -0.95 0.05 -1.55 1.25 -0.60 1.10 -0.60 1.10 0.50 0.15 0.55 -0.55 1.05 -1.15 1.05 -1.40z m12.55 -10.55 c1.25 -2.40 1.05 -2.35 -0.75 0.30 -1.40 2.05 -1.60 2.60 -0.80 2.10 0.30 -0.20 1 -1.25 1.55 -2.40z"/>
  <path d="M35 38.30 c0 -2 1 -2.80 3.50 -2.80 1.50 0 1.55 0.05 1.40 2.15 l-0.15 2.10 -2.35 0.15 -2.40 0.15 0 -1.75z"/>
  <path d="M18.50 29.50 c0 -0.55 0.70 -0.55 2.50 0 1.10 0.35 1.05 0.40 -0.60 0.45 -1.05 0.05 -1.90 -0.15 -1.90 -0.45z"/>
  <path d="M38.50 24.75 c0 -0.80 0.30 -1.25 0.75 -1.25 0.45 0 0.75 0.45 0.75 1.25 0 0.80 -0.30 1.25 -0.75 1.25 -0.45 0 -0.75 -0.45 -0.75 -1.25z"/>
  <path d="M6.30 11.10 c-0.20 -0.35 -0.20 -0.85 0 -1.15 0.35 -0.60 0.50 -1.60 0.65 -3.80 0.05 -0.95 0.35 -1.15 1.75 -1.15 1.65 0 1.70 -0.05 2.05 -2.60 0.40 -2.65 0.40 -2.65 0.75 -0.90 0.20 0.95 0.40 1.30 0.45 0.75 0.10 -1.65 1.05 -2.25 3.65 -2.25 2.05 0 2.40 0.15 2.40 1 0 0.80 -0.35 1 -1.60 1 -0.90 0 -2.20 0.45 -2.90 1 -0.70 0.55 -1.55 1 -1.85 1 -0.90 0 -0.80 1 0.05 1 0.40 0 0.90 -0.20 1.05 -0.50 0.45 -0.75 1.25 -0.60 1.25 0.25 0 0.40 -0.20 0.75 -0.50 0.75 -0.25 0 -0.50 0.25 -0.50 0.50 0 0.30 0.30 0.50 0.65 0.50 1 0 1 3 0.05 4.05 -0.65 0.70 -1.55 0.95 -3.50 0.95 -2.30 0 -2.65 -0.10 -2.35 -0.85 0.25 -0.80 0.20 -0.75 -0.45 0.05 -0.50 0.65 -0.85 0.75 -1.10 0.40z"/>
 </g>
 <g fill="#472223">
  <path d="M21.50 21.60 c0 -0.20 0.35 -0.95 0.80 -1.60 0.70 -1.10 0.60 -1.10 -0.50 0.15 l-1.30 1.40 0 -1.45 c0 -1.75 1.10 -2.80 2.50 -2.45 0.55 0.15 1 0.05 1 -0.20 0 -0.25 0.25 -0.45 0.50 -0.45 0.65 0 0.65 2.80 0 4.05 -0.50 0.90 -3 1.40 -3 0.55z"/>
  <path d="M27 12.75 c0 -1.40 0.20 -1.75 1 -1.75 0.55 0 1 -0.35 1 -0.75 0 -0.40 0.25 -0.75 0.50 -0.75 0.30 0 0.50 -0.35 0.50 -0.75 0 -0.40 0.25 -0.75 0.50 -0.75 0.30 0 0.50 -0.80 0.50 -1.75 0 -1.40 0.20 -1.75 0.95 -1.75 0.55 0 1.10 0.30 1.20 0.65 0.20 0.50 0.30 0.50 0.30 0 0.05 -0.90 1.05 -0.80 1.05 0.10 0 0.40 -0.50 2.30 -1.10 4.25 -0.85 2.65 -1.30 3.50 -2 3.50 -0.50 0 -0.90 0.35 -0.90 0.75 0 0.40 -0.35 0.75 -0.80 0.75 -0.65 0 -0.55 -0.30 0.35 -1.60 1.05 -1.50 1.05 -1.60 0.10 -0.75 -0.55 0.50 -1.35 0.85 -1.70 0.75 -0.45 -0.10 -0.65 0.20 -0.55 0.75 0.10 0.45 -0.10 0.85 -0.40 0.85 -0.25 0 -0.50 -0.80 -0.50 -1.75z"/>
  <path d="M13.95 10.15 c-0.50 -0.10 -1 -0.95 -1.15 -1.95 -0.45 -2.35 -2.15 -2.35 -3.70 0.05 -1.55 2.40 -2.30 2.25 -2.50 -0.50 -0.15 -2.10 -0.05 -2.25 1.15 -2.25 1 0 1.25 -0.25 1.25 -1.25 0 -0.90 -0.25 -1.25 -1 -1.25 -1.15 0 -1.20 -0.05 -0.40 -1.75 0.80 -1.80 1.90 -1.60 1.95 0.40 0 0.85 0.15 1.30 0.30 1 0.10 -0.35 0.55 -0.65 0.90 -0.65 0.35 0 0.80 0.30 0.90 0.65 0.20 0.50 0.30 0.50 0.30 0 0.05 -0.75 1.55 -0.90 1.55 -0.15 0 0.30 -0.55 0.80 -1.25 1.10 -0.70 0.30 -1.25 0.75 -1.25 1 0 0.60 1.40 0.50 1.80 -0.15 0.15 -0.30 1.05 -0.45 2 -0.35 1.05 0.10 1.75 -0.05 1.90 -0.45 0.15 -0.35 0.80 -0.65 1.40 -0.65 0.85 0 1.35 -0.45 1.75 -1.50 l0.55 -1.50 5.05 0 5.05 0 0 1.25 c0 0.75 -0.30 1.25 -0.70 1.25 -0.35 0 -0.80 0.50 -1 1.15 -0.25 0.85 -0.40 0.95 -0.75 0.40 -0.30 -0.45 -0.55 -0.50 -0.75 -0.10 -0.20 0.30 -0.80 0.55 -1.35 0.55 -1.40 0 -0.75 -0.80 0.90 -1.25 1.35 -0.30 2.15 -1.05 2.15 -1.95 0 -0.25 -0.50 0 -1.15 0.60 -0.65 0.60 -1.50 1.10 -1.95 1.10 -0.40 0 -1.15 0.45 -1.70 1.05 -0.75 0.80 -0.80 1.05 -0.20 0.95 0.40 -0.05 1.25 -0.10 1.90 -0.05 0.95 0.05 1 0.20 0.55 0.95 -0.35 0.60 -1.20 0.90 -2.60 0.90 -1.15 0.05 -2.15 0.35 -2.25 0.65 -0.10 0.30 -0.60 0.55 -1.15 0.55 -0.50 0 -0.95 0.35 -0.95 0.75 0 1.40 -2.90 2.15 -5.55 1.40z m7.95 -4.40 c0.65 -0.20 1.05 -0.45 0.95 -0.60 -0.40 -0.40 -3.70 1.35 -4.70 2.50 -0.70 0.85 -0.55 0.80 0.85 -0.25 0.95 -0.70 2.25 -1.45 2.90 -1.65z"/>
  <path d="M26.55 6.75 c0.60 -0.95 1.25 -1.75 1.50 -1.75 0.25 0 0.45 0.80 0.45 1.75 0 1.60 -0.10 1.75 -1.50 1.75 l-1.45 0 1 -1.75z"/>
  <path d="M31 2 c0 -1.65 0.15 -2 0.95 -2 0.60 0 1.05 0.40 1.20 1.15 l0.20 1.10 0.10 -1.10 c0.10 -2 1.05 -1.25 1.05 0.85 0 1.90 -0.65 2.70 -1.15 1.40 -0.20 -0.50 -0.30 -0.50 -0.30 0 -0.05 0.30 -0.50 0.60 -1.05 0.60 -0.85 0 -1 -0.35 -1 -2z"/>
 </g>
 <g fill="#19314f">
  <path d="M7.50 36.70 c0 -0.95 0.15 -1.65 0.40 -1.65 1.10 0.20 1.60 -0.15 1.60 -1.15 0 -0.90 0.25 -0.65 1.10 1 0.65 1.20 1.20 1.90 1.30 1.60 0.15 -0.35 -0.05 -0.85 -0.35 -1.15 -0.90 -0.90 -0.65 -2.35 0.45 -2.35 1.20 0 2 1.45 2 3.70 l0 1.80 -3.25 -0.05 -3.25 -0.05 0 -1.70z m3.50 0.90 c0 -0.20 -0.45 -0.65 -1.05 -1 -0.95 -0.60 -0.95 -0.55 -0.45 0.40 0.50 0.95 1.50 1.40 1.50 0.60z"/>
  <path d="M14.50 34.05 c0 -0.75 0.30 -1.05 1.05 -1.05 1.25 0 1.10 1.65 -0.20 1.90 -0.60 0.10 -0.85 -0.15 -0.85 -0.85z"/>
  <path d="M32 32.35 c0 -1.70 0.75 -2.85 1.85 -2.85 0.35 0 0.65 0.35 0.65 0.80 0 0.40 0.25 0.60 0.50 0.45 0.30 -0.20 0.40 -0.55 0.25 -0.80 -0.20 -0.25 0.05 -0.45 0.45 -0.45 0.60 0 0.80 0.50 0.80 1.95 0 2.10 -0.55 2.55 -3.05 2.55 -1.30 0 -1.45 -0.15 -1.45 -1.65z"/>
  <path d="M15.45 32.20 c-1.20 -0.65 -1.15 -0.65 0.70 -0.70 1 0 1.85 0.20 1.85 0.45 0 0.80 -1.30 0.95 -2.55 0.25z"/>
  <path d="M4.70 31.75 c-0.20 -0.40 0 -1.15 0.35 -1.60 0.50 -0.60 0.50 -0.75 0.10 -0.45 -0.35 0.20 -0.65 0.15 -0.65 -0.10 0 -0.30 0.80 -0.50 1.75 -0.50 1.95 0 2.15 0.25 0.90 1.20 -0.85 0.65 -0.85 0.65 0 0.70 0.45 0 0.85 0.35 0.85 0.75 0 1 -2.95 1 -3.30 0z"/>
  <path d="M18 29.25 c0 -1.70 0.05 -1.75 1.90 -1.65 1.80 0.05 1.80 0.05 0.25 0.25 -2.05 0.25 -2.10 0.95 -0.15 1.40 2.15 0.45 1.95 1.75 -0.25 1.75 -1.65 0 -1.75 -0.10 -1.75 -1.75z"/>
  <path d="M33 27.70 c0 -0.45 0.45 -1.35 1 -2.05 0.85 -1.10 1 -1.15 1 -0.35 0 1.75 -0.60 3.20 -1.30 3.20 -0.40 0 -0.70 -0.35 -0.70 -0.80z"/>
  <path d="M35.50 26.50 c0 -1.10 0.25 -2 0.50 -2 0.30 0 0.50 0.90 0.50 2 0 1.10 -0.20 2 -0.50 2 -0.25 0 -0.50 -0.90 -0.50 -2z"/>
  <path d="M29.90 13.15 c1.55 -2.30 1.80 -3 0.45 -1.40 -1.10 1.25 -1.30 1.35 -1.60 0.65 -0.20 -0.50 0.20 -1.65 1.10 -2.95 1.10 -1.65 1.40 -2.80 1.55 -5.50 0.20 -3.40 0.80 -4.55 1.25 -2.35 l0.20 1.15 0.40 -1.10 c0.40 -1.35 1.50 -1.50 1.95 -0.35 0.55 1.45 0.30 3.20 -0.70 5.15 -0.55 1.10 -1.10 2.95 -1.30 4.15 -0.50 3.15 -1 3.90 -2.75 3.90 l-1.50 0 0.95 -1.35z m3.10 -6.35 c0 -1.30 -0.30 -0.90 -0.70 0.95 -0.25 1.10 -0.20 1.30 0.20 0.75 0.25 -0.40 0.50 -1.20 0.50 -1.70z"/>
  <path d="M13.50 10.75 c0 -0.80 -0.30 -1.25 -0.80 -1.25 -0.70 0 -0.75 -0.10 -0.15 -0.85 0.60 -0.75 0.60 -0.80 -0.15 -0.50 -0.65 0.25 -0.90 0.05 -0.90 -0.65 0 -0.65 -0.25 -0.90 -0.75 -0.70 -0.60 0.25 -0.75 -0.10 -0.75 -1.40 0 -1.40 0.25 -1.85 1.25 -2.30 0.70 -0.35 1.85 -0.60 2.50 -0.60 1.05 0 1.25 0.30 1.55 2.30 0.25 1.85 0.50 2.25 1.30 2.10 0.50 -0.10 0.90 -0.35 0.90 -0.55 -0.10 -0.65 1.60 -1.80 2.65 -1.85 1.45 0 0.95 0.80 -1.65 2.55 -1.35 0.95 -2.60 2 -2.70 2.35 -0.15 0.35 0.90 -0.25 2.35 -1.30 1.40 -1.05 3.40 -2.25 4.35 -2.60 0.95 -0.35 2.10 -0.95 2.50 -1.25 0.40 -0.35 1.30 -0.80 2 -1 0.70 -0.20 1.50 -0.75 1.85 -1.20 1.20 -1.60 0.70 2.30 -0.60 4.65 -0.70 1.25 -1.25 2.60 -1.25 3 0 0.60 -0.50 0.80 -1.75 0.80 -1.65 0 -1.75 -0.10 -1.75 -1.75 0 -1.95 -0.35 -2.15 -1.25 -0.90 -0.35 0.45 -1.15 0.85 -1.80 0.95 -0.65 0.05 -1.40 0.15 -1.60 0.15 -0.25 0.05 -0.25 0.30 -0.10 0.60 0.65 1 -1.30 2.45 -3.35 2.45 -1.70 0 -1.90 -0.15 -1.90 -1.25z m12.45 -3 c0.70 -0.40 2.15 -3.80 1.80 -4.15 -0.10 -0.15 -0.45 0.30 -0.70 1 -0.25 0.70 -0.80 1.60 -1.25 2 -0.40 0.45 -0.90 1.45 -1.05 2.20 -0.25 1.25 -0.20 1.30 0.20 0.40 0.25 -0.60 0.70 -1.25 1 -1.45z m-12.75 -3.50 c0.55 -0.40 0.85 -0.85 0.70 -1 -0.35 -0.35 -2.70 0.55 -3.15 1.20 -0.45 0.80 1.35 0.65 2.45 -0.20z"/>
  <path d="M33.50 11.40 c0.05 -0.35 0.35 -1.20 0.75 -1.90 l0.75 -1.25 -0.10 1.70 c-0.15 1.60 -1.40 2.95 -1.40 1.45z"/>
  <path d="M21.60 4.40 c0.15 -0.35 0.90 -0.70 1.70 -0.80 1.40 -0.10 1.40 -0.10 0.50 0.65 -1.20 0.90 -2.45 1 -2.20 0.15z"/>
  <path d="M25.50 2.25 c0 -0.50 0.50 -0.75 1.35 -0.75 1.30 0 1.30 0.05 0.35 0.75 -1.25 0.95 -1.70 0.95 -1.70 0z"/>
 </g>
 <g fill="#2f3746">
  <path d="M0 39.55 c0 -0.30 0.40 -0.80 0.90 -1.15 0.50 -0.35 1.40 -1.40 2.05 -2.30 1 -1.45 1.05 -1.65 0.35 -2.40 -0.50 -0.50 -0.75 -1.45 -0.65 -2.75 0.10 -1.05 -0.05 -1.95 -0.25 -1.95 -0.25 0 -0.35 -0.45 -0.15 -0.95 0.15 -0.55 -0.05 -1.30 -0.50 -1.75 -0.45 -0.45 -0.60 -0.80 -0.30 -0.80 0.30 0 0.55 -0.65 0.55 -1.50 0 -1.15 -0.20 -1.50 -1 -1.50 -1.30 0 -1.25 -1.10 0.15 -3.25 1.45 -2.30 1.90 -2.20 1.55 0.40 -0.25 1.65 -0.10 2.35 0.75 3.25 0.55 0.65 1.20 1.05 1.50 0.90 0.50 -0.35 0.30 -3.25 -0.50 -6.75 -0.45 -2 -0.35 -2.50 1 -5.30 1 -2 1.40 -3.45 1.20 -4.20 -0.15 -0.65 -0.10 -1.30 0.15 -1.50 0.25 -0.15 0.70 -0.75 1 -1.30 0.35 -0.60 1.20 -1.05 2.20 -1.15 1.45 -0.15 1.60 -0.05 1.10 0.55 -0.95 1.10 0.80 1.60 1.95 0.55 1.25 -1.10 1.20 -1.85 -0.05 -1.45 -0.80 0.25 -1 0.10 -1 -0.75 0 -0.60 0.35 -1.45 0.80 -1.85 0.65 -0.70 0.85 -0.70 1.25 -0.10 0.25 0.40 0.45 0.45 0.45 0.15 0 -0.35 0.75 -0.60 1.75 -0.60 1.50 0 1.75 0.15 1.75 1.20 0 0.95 -0.25 1.20 -1.30 1.20 -1.30 0 -1.35 0.05 -1.05 2.55 0.20 1.45 0.45 2.70 0.60 2.90 0.35 0.30 1.25 -1 1 -1.45 -0.10 -0.15 0.40 -0.35 1.15 -0.40 l1.35 -0.05 -1.25 1 c-2.30 1.85 -3.55 3.10 -3.30 3.35 0.15 0.15 1.20 -0.60 2.30 -1.60 2.35 -2.15 3 -2.25 3 -0.50 0 0.90 -0.25 1.25 -0.90 1.15 -1.95 -0.20 -2.60 0.10 -2.60 1.05 0 0.80 -0.35 1 -1.75 1 -1.40 0 -1.75 -0.20 -1.75 -1 0 -0.60 -0.35 -1 -0.85 -1 -0.75 -0.05 -0.65 -0.25 0.40 -1.15 1.35 -1.25 1.70 -2.70 0.60 -2.70 -0.35 0 -0.65 0.50 -0.65 1.05 0 0.60 -0.45 1.35 -1.05 1.70 -0.55 0.35 -0.90 0.95 -0.80 1.35 0.15 0.35 -0.15 1.05 -0.65 1.50 -1.55 1.40 -2.25 3.60 -1.55 5.05 0.50 1.10 0.75 1.20 2.40 0.90 l1.85 -0.35 -1.10 1.40 c-1.60 2.05 -0.85 2.25 0.90 0.20 1.60 -1.90 1.90 -2.70 0.75 -2.25 -0.50 0.20 -0.75 -0.05 -0.75 -0.70 0 -0.80 0.35 -1 1.75 -1 1.60 0 1.75 0.15 1.75 1.40 0 1.30 0.10 1.40 1.90 1.25 1.70 -0.15 1.75 -0.10 0.60 0.40 -0.70 0.30 -1.65 0.75 -2.10 1 -0.60 0.30 -0.90 0.25 -0.90 -0.05 0 -0.25 -0.35 -0.50 -0.75 -0.50 -0.65 0 -1.05 1.45 -0.85 3.05 0.05 0.20 -0.40 0.25 -0.90 0.10 -1.30 -0.35 -1.25 0.15 0.05 0.90 0.95 0.45 1.25 0.30 2.50 -1.20 1.55 -1.85 5.80 -3.70 7.25 -3.15 0.55 0.20 0.75 0.10 0.55 -0.35 -0.15 -0.40 0.05 -0.70 0.45 -0.70 0.45 0 0.70 0.55 0.70 1.45 0 1.50 -0.95 2.90 -1.95 2.90 -0.30 0 -0.55 0.40 -0.55 0.90 0 0.75 0.30 0.90 1.50 0.70 1.05 -0.15 1.50 -0.50 1.50 -1.15 0 -0.60 0.50 -1.05 1.30 -1.25 0.85 -0.20 1.15 -0.55 1 -1.05 -0.15 -0.40 -0.30 -1.40 -0.30 -2.20 0 -0.95 -0.25 -1.45 -0.75 -1.45 -0.55 0 -0.75 -0.55 -0.75 -1.80 0 -0.95 0.20 -1.65 0.45 -1.50 0.20 0.15 0.30 -0.30 0.15 -0.95 -0.10 -0.70 -0.55 -1.25 -0.90 -1.25 -0.95 0 -0.90 -0.65 0.20 -2.05 0.55 -0.65 1.50 -2.60 2.15 -4.30 0.65 -1.75 1.50 -3.15 1.80 -3.15 0.90 0 0.80 3.25 -0.10 4.20 -0.40 0.40 -0.75 1.20 -0.75 1.75 0 0.80 -0.30 1.05 -1.25 1.05 -1 0 -1.25 0.25 -1.25 1.25 0 1.10 0.20 1.25 1.70 1.25 1.40 0 1.75 -0.20 2 -1.25 0.40 -1.55 2.10 -1.75 2.10 -0.25 0 0.55 -0.25 1 -0.50 1 -0.25 0 -0.35 0.15 -0.20 0.30 0.45 0.45 -2.10 2.95 -3 2.95 -0.55 0 -0.80 0.35 -0.70 1 0.25 1.45 0.50 1.55 1.35 0.45 0.65 -0.90 0.70 -0.90 0.40 0.20 -0.20 0.90 -0.05 1.10 0.80 1.10 0.95 0 1.05 0.30 1.05 2.50 0 1.85 0.20 2.50 0.70 2.50 0.55 0 0.65 -0.35 0.30 -1.60 -0.95 -3.45 -1.35 -7.35 -0.80 -7.90 0.85 -0.85 1.30 -0.55 1.35 0.90 0.05 1.35 0.05 1.35 0.40 -0.20 1 -4.05 1.90 -3.55 2.25 1.20 0.15 2.10 0.40 4.90 0.55 6.25 0.30 1.95 0.20 2.35 -0.45 2.35 -0.45 0 -0.80 -0.15 -0.85 -0.35 0 -0.25 -0.45 -1.95 -1 -3.90 -1 -3.55 -1 -1.60 0 2.35 0.35 1.60 0.30 2.10 -0.55 3.15 -1.35 1.75 -2.90 1.65 -2.95 -0.10 -0.05 -1.30 -0.05 -1.30 -0.55 0.35 -0.70 2.55 -2.60 3.85 -3.05 2.15 -0.20 -0.85 -0.25 -0.85 -0.30 0 -0.05 0.70 -0.40 0.90 -1.40 0.75 -1.95 -0.25 -1.95 -1.20 0.05 -1.90 0.95 -0.30 1.95 -0.85 2.30 -1.20 0.45 -0.60 0.20 -0.60 -1.35 -0.05 -1.20 0.40 -2.35 1.25 -3.10 2.45 -0.65 1 -1.65 1.80 -2.15 1.80 -0.50 0 -0.90 0.25 -0.90 0.50 0 0.30 -0.35 0.50 -0.75 0.50 -1 0 -0.95 0.50 0.15 1.30 0.75 0.60 0.55 0.65 -1.50 0.70 -1.35 0 -2.40 0.25 -2.40 0.50 0 0.30 1 0.50 2.25 0.50 1.95 0 2.25 0.15 2.25 1 0 0.90 -0.25 1 -2.05 0.80 -3.55 -0.40 -5.65 -2.60 -3.60 -3.75 0.50 -0.25 0.70 -0.65 0.50 -0.85 -0.50 -0.55 -1.80 1.35 -1.85 2.70 0 0.95 -0.25 1.10 -2.10 1.15 -1.20 0 -1.85 0.15 -1.50 0.30 0.30 0.10 0.60 0.55 0.60 1 0 0.95 1.60 3.65 2.15 3.65 0.25 0 0.35 -0.35 0.15 -0.75 -0.15 -0.45 0 -0.75 0.45 -0.75 0.50 0 0.75 0.55 0.75 1.75 0 1.70 -0.05 1.75 -2.05 1.75 -1.20 0 -1.90 -0.20 -1.70 -0.50 0.20 -0.30 -0.35 -0.50 -1.25 -0.50 -0.85 0 -1.65 -0.30 -1.80 -0.70 -0.40 -1 -2.70 -0.40 -2.70 0.75 0 0.55 -0.35 0.95 -0.75 0.95 -0.40 0 -0.75 0.25 -0.75 0.50 0 0.30 -0.55 0.50 -1.25 0.50 -0.70 0 -1.25 -0.20 -1.25 -0.45z m11 -1.95 c0 -0.20 -0.45 -0.65 -1 -1 -1.10 -0.65 -1.35 -0.15 -0.40 0.80 0.70 0.70 1.40 0.80 1.40 0.20z m-3.25 -3.60 c-0.45 -0.85 -1 -1.40 -1.30 -1.20 -0.30 0.15 -0.95 -0.10 -1.50 -0.60 -0.90 -0.80 -0.90 -0.90 -0.10 -1.85 0.90 -0.95 0.85 -1 -0.25 -0.40 -0.85 0.45 -1.05 0.85 -0.80 1.70 0.45 1.60 1.25 2.45 2 2.15 0.35 -0.10 1 0.20 1.50 0.75 1.20 1.35 1.35 1.20 0.45 -0.55z m3.90 -5.60 c-0.20 -1.70 -0.10 -2.40 0.30 -2.40 0.35 0 0.95 -0.35 1.35 -0.75 0.70 -0.65 0.70 -0.75 0 -0.75 -0.45 0 -0.80 -0.40 -0.80 -1 0 -0.65 -0.35 -1 -1 -1 -0.55 0 -1 0.35 -1 0.75 0 0.50 -0.55 0.75 -1.75 0.75 -1.20 0 -1.75 0.25 -1.75 0.75 0 0.40 -0.20 0.75 -0.50 0.75 -0.25 0 -0.50 0.35 -0.50 0.75 0 0.45 0.45 0.75 1.10 0.75 1.05 0 1.05 0 -0.15 1.35 l-1.20 1.35 1.40 -0.85 c1.30 -0.85 1.35 -0.85 1.35 0.05 0 0.55 -0.55 1.10 -1.35 1.45 -1.20 0.40 -0.95 0.50 1.70 0.45 l3.10 -0.05 -0.30 -2.35z m3.40 -1.60 c0.25 0.15 0.45 0 0.45 -0.25 0 -0.30 -0.20 -0.55 -0.45 -0.55 -0.65 0 -3.05 2 -3.05 2.60 0 0.30 0.60 -0.05 1.30 -0.75 0.75 -0.75 1.50 -1.20 1.75 -1.05z m3.25 -2.15 c-0.15 -1.05 -0.25 -2.30 -0.25 -2.75 -0.05 -0.50 -0.40 -0.90 -0.80 -0.90 -0.50 0 -0.75 0.55 -0.75 1.75 0 0.95 0.25 1.75 0.50 1.75 0.30 0 0.50 0.45 0.50 1 0 0.55 0.25 1 0.50 1 0.30 0 0.45 -0.80 0.30 -1.85z m4.75 -5.40 c0.30 -0.55 -0.20 -0.25 -1 0.65 -0.85 0.90 -1.55 1.90 -1.55 2.25 0 0.65 1.70 -1.25 2.55 -2.90z m6.65 -0.25 c0.05 -2.20 -0.55 -1.85 -0.80 0.50 -0.10 1.20 0 1.80 0.30 1.50 0.25 -0.25 0.50 -1.15 0.50 -2z m-20.70 -1.50 c0 -0.45 -1.25 -1 -2.30 -1 -0.55 0 -0.50 0.20 0.20 0.90 0.80 0.90 2.10 0.95 2.10 0.10z m1 -9.15 c1.70 -1.45 2 -2.15 0.55 -1.40 -1.05 0.55 -4.05 4.90 -4.05 5.75 0.05 0.30 0.50 -0.25 1 -1.25 0.55 -1 1.65 -2.40 2.50 -3.10z"/>
  <path d="M29 39.50 c0 -0.25 0.20 -0.50 0.40 -0.50 0.20 0 0.70 -1.35 1 -3 l0.65 -3 1.95 0 c2 0 2 0 2 1.90 0 1.25 -0.35 2.20 -1.15 2.90 -2.05 1.90 -4.85 2.90 -4.85 1.70z"/>
  <path d="M36.50 39.15 c0 -0.45 0.15 -0.65 0.35 -0.50 0.35 0.40 1.65 -0.55 1.65 -1.25 0 -0.25 -0.45 -0.20 -1 0.10 -0.80 0.45 -1 0.40 -1 -0.25 0 -0.55 0.50 -0.75 1.75 -0.75 1.65 0 1.75 0.10 1.75 1.75 0 1.65 -0.10 1.75 -1.75 1.75 -1.30 0 -1.75 -0.20 -1.75 -0.85z"/>
  <path d="M14.50 35.25 c0 -0.50 -0.55 -0.75 -1.75 -0.75 -1.20 0 -1.75 -0.25 -1.75 -0.75 0 -0.75 1.10 -1 3.50 -0.80 1.65 0.15 2.05 0.60 1.70 1.95 -0.35 1.25 -1.70 1.50 -1.70 0.35z"/>
  <path d="M22.50 30.75 c0 -1.10 0.20 -1.25 1.90 -1.25 l1.85 0.05 -1.40 1.20 c-1.80 1.60 -2.35 1.55 -2.35 0z"/>
  <path d="M28.60 26.15 c1.05 -1 2.05 -1.70 2.25 -1.50 0.35 0.40 -2.75 3.30 -3.60 3.35 -0.25 0 0.35 -0.85 1.35 -1.85z"/>
  <path d="M34.10 25.50 c0.70 -1.10 1.20 -0.95 0.75 0.25 -0.20 0.40 -0.55 0.75 -0.85 0.75 -0.30 0 -0.30 -0.35 0.10 -1z"/>
  <path d="M35.50 24.75 c0 -0.95 0.25 -1.75 0.50 -1.75 0.30 0 0.50 0.80 0.50 1.75 0 0.95 -0.20 1.75 -0.50 1.75 -0.25 0 -0.50 -0.80 -0.50 -1.75z"/>
  <path d="M23 8 c0 -1.85 0.10 -2 1.40 -2.05 0.90 -0.05 1.05 -0.15 0.45 -0.30 -0.90 -0.25 -0.90 -0.30 -0.05 -1.20 0.80 -0.90 2.20 -1.30 2.20 -0.70 0 0.15 -0.55 1.35 -1.25 2.65 -0.70 1.30 -1.25 2.65 -1.25 2.95 0 0.35 -0.35 0.65 -0.75 0.65 -0.55 0 -0.75 -0.55 -0.75 -2z"/>
  <path d="M33.25 7.75 c0.35 -2.35 1.25 -5.25 1.90 -6.10 0.25 -0.35 0.90 -0.65 1.40 -0.65 0.55 0 0.95 -0.20 0.95 -0.50 0 -0.25 0.60 -0.50 1.30 -0.50 1.30 0 1.30 0.05 0.95 2.40 -0.15 1.30 -0.70 2.70 -1.10 3.10 -0.70 0.65 -0.75 0.65 -0.40 0 0.25 -0.45 0.20 -0.60 -0.05 -0.35 -0.25 0.25 -0.50 0.65 -0.50 0.90 -0.05 0.25 -0.10 0.70 -0.15 0.95 -0.05 0.50 -2.55 0.75 -2.55 0.20 0 -0.65 1.25 -2.60 2.65 -4.05 0.85 -0.90 1.35 -1.80 1.10 -2 -0.20 -0.25 -0.50 -0.10 -0.65 0.25 -0.10 0.40 -0.85 1.45 -1.65 2.35 -0.80 0.90 -1.90 2.60 -2.50 3.80 l-1 2.20 0.30 -2z"/>
  <path d="M24 3.05 c0 -0.60 0.25 -1.05 0.50 -1.05 0.30 0 0.50 0.30 0.50 0.70 0 0.40 -0.20 0.90 -0.50 1.05 -0.25 0.15 -0.50 -0.15 -0.50 -0.70z"/>
  <path d="M10.50 1.50 c0 -0.80 0.25 -1.50 0.50 -1.50 0.30 0 0.50 0.70 0.50 1.50 0 0.85 -0.20 1.50 -0.50 1.50 -0.25 0 -0.50 -0.65 -0.50 -1.50z"/>
  <path d="M25.50 2.75 c0 -0.45 2 -2.25 2.50 -2.25 0.90 0 0.50 0.85 -0.75 1.70 -1.25 0.85 -1.75 1 -1.75 0.55z"/>
 </g>
 <g fill="#38425c">
  <path d="M7 38.95 c0 -0.55 0.25 -1.45 0.55 -2 0.50 -1 0.60 -1 1.50 -0.15 0.75 0.65 0.80 1 0.35 1.55 -0.30 0.40 0.25 0.25 1.25 -0.35 1 -0.60 1.85 -1.20 1.85 -1.35 0 -0.15 -0.40 -0.90 -0.85 -1.70 -1.05 -1.75 -0.80 -2 1.75 -2.05 2.90 -0.05 3.10 0.20 2.40 3.25 -0.35 1.45 -0.55 2.90 -0.40 3.25 0.15 0.45 -0.95 0.60 -4.10 0.60 -4 0 -4.30 -0.05 -4.30 -1.05z"/>
  <path d="M29.95 38.30 c0.45 -0.90 0.90 -1.45 0.95 -1.25 0.10 0.25 0.40 0.35 0.65 0.15 0.25 -0.15 0.45 0.45 0.45 1.25 0 1.35 -0.15 1.55 -1.45 1.55 l-1.40 0 0.80 -1.70z"/>
  <path d="M35 38.50 c0 -0.80 0.15 -1.50 0.40 -1.50 0.20 0 0.60 -0.50 0.85 -1.10 0.35 -0.80 1 -1.20 2.15 -1.30 l1.60 -0.15 0 2.75 0 2.80 -2.50 0 c-2.45 0 -2.50 -0.05 -2.50 -1.50z m3.50 -0.80 c0 -0.60 -0.20 -0.60 -1 -0.20 -0.55 0.30 -0.90 0.75 -0.75 1 0.40 0.65 1.75 0 1.75 -0.80z"/>
  <path d="M9.85 36.65 c-0.20 -0.15 -0.35 -1.10 -0.35 -2.05 0 -1.45 -0.15 -1.70 -1 -1.45 -0.55 0.15 -1 0.05 -1 -0.20 0 -0.25 0.45 -0.45 0.95 -0.45 0.60 0 1.35 0.75 2 2 0.60 1.10 1.05 2.15 1.05 2.25 0 0.35 -1.30 0.30 -1.65 -0.10z"/>
  <path d="M4.30 34.70 c-0.55 -1.45 -0.30 -1.95 0.50 -0.95 0.55 0.75 0.85 0.85 1.10 0.40 0.30 -0.45 0.60 -0.35 1.25 0.35 0.80 0.95 0.80 1 -0.85 1 -1.10 0 -1.80 -0.30 -2 -0.80z"/>
  <path d="M32.15 34.15 c-0.45 -1.10 0.20 -5.25 0.80 -5.65 0.35 -0.15 0.45 -0.65 0.30 -1.05 -0.15 -0.45 0.15 -1.15 0.65 -1.60 0.90 -0.80 0.90 -0.70 0.70 2.30 -0.10 1.70 -0.45 3.35 -0.70 3.70 -0.30 0.35 -0.25 0.70 0.10 0.90 0.85 0.55 1.25 -1.25 1.45 -6.70 0.05 -1.70 0.20 -2.10 0.80 -1.85 0.40 0.15 0.75 0.05 0.75 -0.20 0 -0.30 -0.35 -0.50 -0.75 -0.50 -0.45 0 -0.80 -0.70 -1 -1.85 -0.20 -1.05 -0.55 -2.45 -0.80 -3.10 -1.75 -4.30 -0.70 -9.85 2.70 -14.45 1.10 -1.45 1.85 -2.75 1.65 -2.95 -0.15 -0.15 -0.35 -0.20 -0.45 -0.10 -0.10 0.10 -0.95 1.20 -1.95 2.45 -0.95 1.25 -2.10 3.15 -2.60 4.25 l-0.80 2 0.35 -2.25 c0.20 -1.25 0.35 -3.45 0.25 -4.85 l-0.10 -2.65 2.55 0 c3.35 0 3.95 0.70 3.95 4.35 0 2.75 -0.10 3 -1.90 4.45 -1 0.85 -2.25 1.65 -2.70 1.85 -0.95 0.35 -1.25 2.35 -0.40 2.35 0.25 0 0.50 1.50 0.60 3.35 0.10 2.75 0.30 3.40 1.05 3.55 0.60 0.15 0.85 -0.15 0.85 -1.10 0 -1.05 0.25 -1.30 1.25 -1.30 1.30 0 1.30 0 1.20 4.50 -0.05 4.35 -0.10 4.50 -1.20 4.50 -1.05 0 -1.20 0.30 -1.50 2.90 -0.55 4.85 -0.80 5.35 -2.95 5.40 -1.20 0.05 -2 -0.20 -2.15 -0.65z"/>
  <path d="M5.45 32.60 c0 -0.20 -0.10 -0.85 -0.25 -1.45 -0.10 -0.75 0.10 -1.20 0.75 -1.40 1.20 -0.35 3.30 -2.65 2.85 -3.10 -0.20 -0.20 -0.60 0 -0.85 0.50 -0.90 1.50 -1.55 0.95 -1.35 -1.15 0.10 -1.30 -0.05 -2 -0.40 -2 -0.30 0 -0.70 -0.50 -0.90 -1.10 -0.40 -1.65 -0.35 -2.40 0.20 -2.40 0.30 0 0.50 0.40 0.50 0.90 0 0.50 0.35 0.95 0.75 0.95 1.10 0 0.95 -2.65 -0.25 -3.85 -0.55 -0.55 -1 -1.50 -0.95 -2.10 0 -0.80 0.10 -0.90 0.30 -0.40 0.15 0.40 0.65 1.20 1.10 1.80 0.75 0.95 0.90 0.95 1.55 0.30 0.45 -0.50 0.50 -0.85 0.15 -0.95 -1.60 -0.55 -2.30 -1.55 -1.95 -2.80 0.30 -1.20 0.55 -1.35 2.30 -1.35 1.05 0 2.10 0.25 2.25 0.50 0.15 0.30 1.40 0.50 2.80 0.50 1.35 0 2.45 0.25 2.45 0.50 0 0.35 0.40 0.30 1.15 -0.05 0.60 -0.35 2.45 -0.75 4.05 -0.90 1.70 -0.20 3.05 -0.55 3.20 -0.90 0.10 -0.35 -0.20 -0.65 -0.70 -0.65 -0.45 0 -1.10 -0.40 -1.45 -0.85 -0.55 -0.75 -0.80 -0.75 -3.15 0.25 -2.85 1.25 -5.60 1.45 -5.60 0.45 0 -0.45 -0.45 -0.60 -1.40 -0.45 -0.75 0.10 -2.10 0 -3 -0.25 l-1.60 -0.40 1.80 -1.90 c1 -1.05 1.70 -2 1.55 -2.20 -0.20 -0.15 -1.30 0.80 -2.55 2.10 l-2.25 2.35 0.10 -1.85 c0.10 -1.40 0.30 -1.75 0.95 -1.60 0.50 0.15 1.25 -0.40 1.95 -1.35 0.70 -0.95 0.80 -1.30 0.30 -0.85 -0.45 0.35 -0.85 0.50 -0.85 0.25 0 -0.25 0.65 -0.90 1.40 -1.45 0.90 -0.65 1.15 -0.70 0.70 -0.15 -1.05 1.30 0.80 1.65 2.15 0.40 1.55 -1.45 1.75 -1.30 1.70 1.40 0 1.70 -0.15 2.05 -0.40 1.35 -0.25 -0.55 -0.35 -1.15 -0.20 -1.35 0.10 -0.25 -0.15 -0.40 -0.55 -0.40 -0.50 0 -0.80 0.45 -0.80 1.15 0 0.60 -0.45 1.40 -1 1.75 -0.55 0.35 -1 0.85 -1 1.20 0 0.30 0.65 -0.05 1.50 -0.85 1.30 -1.25 1.50 -1.30 1.80 -0.55 0.30 0.75 0.40 0.75 1.05 -0.20 0.40 -0.55 1.05 -1 1.45 -1 0.40 0 0.85 -0.35 1 -0.75 0.20 -0.40 0.60 -0.75 1 -0.75 0.40 0 0.70 -0.20 0.70 -0.45 0 -0.25 0.35 -0.55 0.75 -0.75 1.65 -0.60 0.60 1.15 -1.60 2.70 -2.95 2.10 -3.85 2.95 -3.50 3.35 0.15 0.15 1.20 -0.50 2.35 -1.45 2 -1.75 8.95 -5.60 9.35 -5.20 0.30 0.30 -1.20 3.15 -1.85 3.55 -0.25 0.15 -0.50 0.90 -0.50 1.60 0 1.25 0.05 1.20 1.25 -0.60 0.70 -1 1.60 -2.55 2 -3.45 0.65 -1.50 0.65 -1.50 0.70 -0.25 0.05 0.70 -0.30 1.70 -0.70 2.25 -1.80 2.40 0.15 4.60 2.50 2.80 1.20 -0.90 1.70 -3.05 1.80 -7.55 l0.05 -2.30 0.50 2.25 c0.65 2.85 -0.15 6.60 -1.95 9.25 -1.15 1.70 -1.35 1.80 -1.90 1.05 -0.60 -0.75 -0.65 -0.75 -0.90 0.25 -0.30 1.10 0.05 2.45 0.60 2.45 0.15 0 1.05 -1.05 2 -2.25 0.90 -1.25 1.85 -2.25 2.10 -2.25 0.25 0 0.45 1.25 0.45 2.75 0 1.45 0.35 4 0.75 5.60 l0.75 2.85 -2.10 2.15 c-1.15 1.20 -2.45 2.15 -2.80 2.15 -0.60 0 -0.60 -0.15 -0.05 -0.85 0.65 -0.80 0.65 -0.80 -0.55 0 -1.30 0.90 -4.75 1.15 -5.25 0.35 -0.15 -0.25 0.65 -0.95 1.85 -1.55 1.15 -0.60 2.55 -1.65 3.10 -2.35 1 -1.30 1.55 -4.60 0.70 -4.60 -0.20 0 -0.40 0.90 -0.40 1.95 0 1.60 -0.25 2.15 -1.45 3 -0.80 0.60 -1.80 1.05 -2.15 1.05 -1 0 -2.40 1.60 -2.85 3.30 -0.30 1.25 -0.65 1.45 -2.45 1.60 -1.30 0.10 -2 0.35 -1.80 0.65 0.20 0.35 -0.25 0.45 -1.10 0.35 -1.25 -0.15 -1.45 -0.35 -1.30 -1.50 0.10 -0.95 -0.10 -1.40 -0.55 -1.40 -0.90 0 -3.35 1.90 -3.35 2.60 0 0.35 0.50 0.10 1.15 -0.50 0.65 -0.60 1.45 -1.10 1.85 -1.10 0.35 0 0.05 0.55 -0.70 1.25 -0.75 0.70 -1.30 1.75 -1.30 2.50 0 1.15 -0.15 1.25 -2.45 1.25 -1.35 0 -3.05 0.20 -3.75 0.50 -0.70 0.25 -1.30 0.30 -1.35 0.10z m3.55 -2.55 c0.45 -0.95 0.45 -0.95 -1.15 -0.20 -2.15 1.10 -2.20 1.15 -0.70 1.15 0.80 0 1.50 -0.40 1.85 -0.95z m6.60 -8.60 c0.95 -1.65 5.75 -4.15 7.30 -3.80 0.60 0.10 0.40 0.40 -0.90 0.95 -1.20 0.55 -1.45 0.85 -0.80 0.85 0.90 0.05 0.90 0.10 0.15 0.95 -0.50 0.50 -0.85 1.25 -0.85 1.65 0 0.40 0.60 -0.05 1.30 -0.95 0.70 -0.90 1.50 -1.45 1.80 -1.30 0.35 0.25 0.45 0 0.30 -0.70 -0.15 -0.55 0.05 -1.55 0.50 -2.20 0.70 -1 0.70 -1.05 0.05 -0.55 -0.45 0.35 -0.95 0.50 -1.10 0.30 -0.75 -0.70 -6.45 1.60 -7.80 3.15 -1.15 1.30 -1.55 1.45 -2.60 1.10 l-1.20 -0.45 1.25 1.25 c0.70 0.70 1.35 1.25 1.50 1.25 0.15 0.05 0.65 -0.65 1.10 -1.50z m-1.65 -4.05 c0.90 -1.05 1.05 -1.40 0.45 -1.40 -0.65 0 -3.90 3.90 -3.90 4.75 0 0.30 1.55 -1.20 3.45 -3.35z"/>
  <path d="M3.25 32.10 c-0.25 -0.20 -0.55 -0.55 -0.55 -0.85 -0.05 -0.25 -0.25 -1 -0.45 -1.60 -0.30 -1.05 -0.15 -1.15 1.85 -1.15 l2.15 0.05 -1.40 1 c-0.95 0.75 -1.30 1.35 -1.10 2 0.35 1.05 0.25 1.15 -0.50 0.55z"/>
  <path d="M14.70 31.75 c-0.90 -0.75 -0.85 -0.80 0.80 -0.45 2.20 0.40 3.15 1.20 1.45 1.20 -0.70 0 -1.70 -0.35 -2.25 -0.75z"/>
  <path d="M0.50 21.55 c0 -1.15 1.05 -3.05 1.65 -3.05 0.45 0 0.60 0.55 0.45 1.75 -0.15 1.30 -0.45 1.75 -1.15 1.75 -0.50 0 -0.95 -0.20 -0.95 -0.45z"/>
  <path d="M21.50 4.50 c0 -0.30 0.60 -0.80 1.40 -1.15 0.75 -0.30 1.50 -0.80 1.70 -1.10 0.25 -0.30 0.40 -0.15 0.40 0.35 0 0.90 -1.80 2.40 -2.85 2.40 -0.35 0 -0.65 -0.25 -0.65 -0.50z"/>
  <path d="M12 2.15 c0.05 -0.80 1.40 -2.15 2.20 -2.15 0.50 0 0.80 0.40 0.80 1.25 0 1.05 -0.25 1.25 -1.50 1.25 -0.80 0 -1.50 -0.15 -1.50 -0.35z"/>
 </g>
 <g fill="#832a39">
  <path d="M13.35 9.95 c-0.15 -0.55 -0.15 -1.40 0 -1.80 0.25 -0.70 0.40 -0.65 1.05 0.15 0.65 0.90 0.70 0.85 0.30 -0.30 -0.20 -0.70 -0.35 -1.50 -0.35 -1.85 0 -0.35 -0.35 -0.75 -0.70 -0.85 -0.45 -0.20 -0.55 -0.55 -0.30 -0.90 0.20 -0.35 0.40 -1.45 0.40 -2.40 0 -1.30 0.25 -1.75 0.95 -1.90 0.50 -0.10 1.10 0.10 1.35 0.50 0.30 0.50 0.45 0.50 0.45 0.05 0 -0.50 1.20 -0.65 4.25 -0.65 l4.25 0 0 1.70 c0 1.25 -0.35 1.95 -1.10 2.50 -1.55 1.10 -2.60 1.05 -2.15 -0.05 0.20 -0.50 0.45 -1.35 0.60 -1.90 0.20 -1 0.20 -1 -0.55 -0.05 -0.45 0.55 -0.80 1.45 -0.80 2.05 0 0.70 -0.80 1.65 -2.35 2.75 -3.15 2.25 -3.80 2.90 -3.40 3.50 0.15 0.25 -0.15 0.50 -0.65 0.50 -0.60 0 -1.10 -0.45 -1.25 -1.05z"/>
  <path d="M6.70 7.80 c-0.15 -0.40 -0.20 -1.25 -0.10 -1.90 0.10 -0.95 0.50 -1.20 2.15 -1.30 l2 -0.15 -1.35 1.40 c-0.80 0.80 -1.40 1.60 -1.40 1.85 0 0.20 0.55 -0.30 1.25 -1.05 0.85 -1 1.20 -1.20 1.25 -0.60 0 1.80 -3.20 3.30 -3.80 1.75z"/>
  <path d="M25.50 1.50 c0 -1.45 0.05 -1.50 2.50 -1.50 2.55 0 2.90 0.35 2.20 2.20 -0.50 1.35 -1.60 0.95 -1.30 -0.50 l0.25 -1.25 -1.40 1.25 c-1.80 1.70 -2.25 1.65 -2.25 -0.20z"/>
 </g>
 <g fill="#3d5468">
  <path d="M7 38.50 c0 -1.40 -0.10 -1.50 -2.05 -1.50 -1.65 0 -2 -0.15 -1.85 -0.85 0.10 -0.50 0.45 -0.85 0.80 -0.80 0.30 0.10 0.45 -0.20 0.30 -0.60 -0.20 -0.40 -0.50 -0.75 -0.75 -0.75 -0.20 0 -0.30 -0.35 -0.15 -0.75 0.20 -0.40 0.05 -0.75 -0.30 -0.75 -0.30 0 -0.50 -0.30 -0.35 -0.60 0.10 -0.35 0 -1.20 -0.25 -1.85 -0.25 -0.70 -0.30 -1.60 -0.10 -2 0.45 -1.05 0.55 -1.45 0.60 -3.55 0.10 -1.30 0.25 -1.55 0.70 -1.10 0.75 0.75 1.90 0.80 1.90 0.10 0 -0.25 0.45 -0.95 1 -1.50 1.20 -1.20 1.45 -3 0.25 -2 -0.40 0.35 -0.75 0.95 -0.75 1.30 0 1.50 -0.90 0.60 -1.20 -1.15 -0.60 -3.80 -0.30 -6.45 0.95 -8.95 0.70 -1.35 1.10 -2.80 1 -3.25 -0.35 -1.10 0.20 -2.45 1 -2.45 0.35 0 0.75 -0.45 0.90 -1 0.15 -0.60 0.70 -1 1.30 -1 0.75 0 1.05 -0.35 1.10 -1.10 0 -1.10 0.05 -1.10 0.45 -0.15 0.30 0.70 0.45 0.75 0.45 0.25 0.05 -0.85 1.75 -2.50 2.55 -2.50 0.30 0 0.50 1.25 0.50 2.75 0 2.05 -0.20 2.75 -0.70 2.75 -0.95 0 -1.45 -0.85 -0.80 -1.25 0.25 -0.15 0.50 -0.60 0.50 -1 0 -0.55 -0.20 -0.60 -1.15 -0.10 -1.90 1.05 -4.85 3.55 -4.85 4.25 0 0.35 0.65 -0.10 1.40 -0.95 0.85 -0.95 1.70 -1.45 2 -1.25 0.40 0.25 -0.15 1.05 -1.60 2.45 -3.70 3.45 -4.85 7.60 -2.85 10.10 0.55 0.75 1.05 1.10 1.05 0.75 0 -0.40 0.45 -0.50 1.35 -0.25 1.80 0.45 1.70 0.30 1.35 2.20 -0.30 1.45 -0.50 1.60 -1.65 1.30 -1.05 -0.25 -1.20 -0.20 -0.65 0.30 1 1.05 0.70 1.95 -0.65 1.95 -0.70 0 -1.25 0.25 -1.25 0.50 0 0.30 0.45 0.50 1.05 0.50 0.80 0 0.95 0.20 0.65 1.15 -0.45 1.55 -0.95 2.05 -2.95 3.15 -2 1.05 -2.05 1.20 -0.95 3.55 0.55 1.10 1.10 1.60 1.55 1.45 0.70 -0.30 1 -0.10 2.80 2.05 0.75 0.85 0.80 1.25 0.30 2.35 -0.85 1.80 -1.95 1.70 -1.95 -0.20z m-2.80 -12.30 c0.45 -1.20 0.35 -1.40 -0.45 -0.70 -0.85 0.70 -1 1.50 -0.30 1.50 0.25 0 0.60 -0.35 0.75 -0.80z"/>
  <path d="M12.75 39.50 c1.35 -0.60 1.75 -0.60 1.75 0 0 0.30 -0.60 0.50 -1.35 0.45 -1.25 0 -1.30 -0.05 -0.40 -0.45z"/>
  <path d="M34.45 38.15 c-0.05 -1.05 -0.15 -1.50 -0.30 -1 -0.15 0.60 -0.75 0.85 -1.95 0.85 -1.55 0 -1.70 -0.15 -1.70 -1.50 0 -0.80 0.35 -1.65 0.75 -1.85 0.50 -0.30 0.75 -1.40 0.80 -3.60 0.10 -2.70 0.30 -3.45 1.45 -4.70 l1.35 -1.50 -0.40 2.95 c-0.20 1.60 -0.55 3.45 -0.70 4 -0.35 1.15 0.45 2.10 1 1.20 0.20 -0.30 0.55 -1.60 0.75 -2.90 0.30 -1.75 0.35 -1.25 0.15 1.80 -0.25 3.95 -0.25 4.10 0.80 4.10 0.70 0 1.05 -0.30 1.05 -1 0 -0.75 0.35 -1 1.25 -1 1.75 0 1.55 0.90 -0.60 2.75 -1.90 1.65 -1.95 3 -0.15 1.85 0.65 -0.40 1 -0.45 1 -0.05 0 0.25 0.20 0.40 0.40 0.25 0.25 -0.15 0.45 0.05 0.45 0.45 0 0.55 -0.70 0.75 -2.70 0.75 l-2.65 0 -0.05 -1.85z m-0.95 -3.35 c0 -0.25 -0.55 0.05 -1.25 0.70 -0.70 0.65 -1.25 1.40 -1.25 1.65 0 0.60 2.50 -1.75 2.50 -2.35z"/>
  <path d="M8.70 35.45 c-0.30 -0.40 -0.75 -1.20 -0.90 -1.80 -0.30 -0.95 -0.15 -1.15 0.65 -1.15 1.25 0 1.45 0.40 1.10 2.20 -0.25 1.20 -0.40 1.30 -0.85 0.75z"/>
  <path d="M5.30 32.10 c-0.20 -0.30 1.05 -0.65 3.20 -0.85 2.30 -0.25 3.50 -0.55 3.50 -1 0 -1.15 2.10 -3.35 3 -3.10 0.45 0.10 1.25 0 1.70 -0.25 0.55 -0.30 0.80 -0.25 0.80 0.15 0 0.35 0.40 0.30 1.25 -0.25 1.35 -0.90 3 -1.10 2.50 -0.30 -0.15 0.30 -0.05 0.50 0.30 0.50 1.35 0 -0.35 0.95 -2.05 1.15 l-1.75 0.20 1.65 0.65 c2.15 0.95 2.10 2 -0.15 2 -1.20 0 -1.75 0.25 -1.75 0.75 0 1.35 -2.70 0.75 -3.50 -0.80 -0.40 -0.70 -0.25 -1.15 0.60 -1.90 0.60 -0.60 0.95 -1.15 0.80 -1.35 -0.55 -0.55 -2.40 1.80 -2.40 3.05 0 1.15 -0.20 1.25 -2.20 1.25 -1.20 0 -2.85 0.15 -3.70 0.30 -0.80 0.15 -1.60 0.10 -1.80 -0.20z m12.20 -2.10 c0 -0.25 -0.45 -0.50 -1 -0.50 -0.55 0 -1 0.25 -1 0.50 0 0.30 0.45 0.50 1 0.50 0.55 0 1 -0.20 1 -0.50z"/>
  <path d="M7.15 29.05 c1.05 -0.95 2 -1.55 2.15 -1.40 0.45 0.45 -0.80 2.35 -1.55 2.35 -0.35 0 -1.10 0.15 -1.60 0.35 -0.50 0.20 -0.05 -0.40 1 -1.30z"/>
  <path d="M35.80 26.40 c-0.60 -2.40 -0.35 -3.90 0.70 -3.90 0.85 0 1 0.35 1 2.50 0 1.80 -0.20 2.50 -0.70 2.50 -0.35 0 -0.80 -0.50 -1 -1.10z"/>
  <path d="M17.30 22.55 c-0.20 -0.25 0 -0.60 0.30 -0.75 0.35 -0.15 0.05 -0.20 -0.70 -0.05 -2.80 0.55 -1.20 -1.35 2.65 -3.15 2.80 -1.35 3.75 -1.40 3.75 -0.15 0 0.50 -0.25 0.85 -0.55 0.75 -0.25 -0.10 -1.15 0.70 -1.90 1.80 -1.35 1.90 -2.95 2.60 -3.55 1.55z"/>
  <path d="M0.50 21.90 c0 -1.50 0.65 -2.90 1.35 -2.90 0.40 0 0.65 0.30 0.50 0.65 -0.10 0.30 0 1.10 0.20 1.75 0.35 0.95 0.25 1.10 -0.80 1.10 -0.70 0 -1.25 -0.30 -1.25 -0.60z"/>
  <path d="M12.30 20.55 c-0.15 -0.20 0.05 -0.85 0.45 -1.35 0.65 -0.90 0.75 -0.90 1.55 -0.10 0.45 0.45 0.65 1.05 0.50 1.35 -0.40 0.65 -2.15 0.75 -2.50 0.10z"/>
  <path d="M34.60 18.85 c-0.80 -2.30 -0.75 -2.85 0.35 -2.85 1.05 0 1.55 0.95 1.55 3.05 0 2 -1.15 1.85 -1.90 -0.20z"/>
  <path d="M38.50 18.80 c0 -0.80 0.30 -1.30 0.75 -1.30 0.40 0 0.75 0.25 0.75 0.55 0 0.30 -0.35 0.85 -0.75 1.25 -0.65 0.70 -0.75 0.65 -0.75 -0.50z"/>
  <path d="M6.50 15.15 c0.05 -1.95 3.60 -7.65 4.80 -7.65 0.60 0 -0.50 2.30 -1.35 2.90 -1.65 1.15 -1.20 2.50 1.05 3.10 1.45 0.40 2 0.80 2 1.50 0 1.25 -1.35 1.30 -2.90 0.20 -1.05 -0.75 -1.25 -0.75 -2.05 0 -1.15 1.05 -1.55 1 -1.55 -0.05z"/>
  <path d="M33.50 12.65 c0 -1.70 0.60 -3.15 1.30 -3.15 0.50 0 0.70 0.65 0.70 2 0 1.65 -0.15 2 -1 2 -0.60 0 -1 -0.35 -1 -0.85z"/>
  <path d="M13.15 10.95 c-0.50 -1.30 -0.50 -1.80 0.10 -2.60 0.70 -1 0.75 -1 1.50 0.80 0.50 1.25 1 1.75 1.50 1.55 0.50 -0.20 0.75 0 0.75 0.75 0 0.85 -0.30 1.05 -1.65 1.05 -1.35 0 -1.70 -0.25 -2.20 -1.55z"/>
  <path d="M19 9.50 c1 -0.65 2.15 -0.65 1.75 0 -0.15 0.30 -0.80 0.50 -1.40 0.50 -0.90 0 -0.95 -0.10 -0.35 -0.50z"/>
  <path d="M25.50 9.10 c0 -0.55 0.45 -1.35 1 -1.85 1 -0.90 1 -0.85 1 0.90 0 1.50 -0.20 1.85 -1 1.85 -0.65 0 -1 -0.35 -1 -0.90z"/>
  <path d="M14.80 7.70 c-0.20 -0.70 -0.20 -1.45 -0.05 -1.65 0.40 -0.40 1.80 1.50 1.60 2.15 -0.35 1.05 -1.25 0.80 -1.55 -0.50z"/>
  <path d="M17.55 7.15 c0.40 -0.65 1 -1.15 1.40 -1.15 0.40 0 0.60 0.05 0.50 0.15 -0.10 0.05 -0.75 0.55 -1.40 1.10 l-1.20 1 0.70 -1.10z"/>
  <path d="M23.50 3.25 c0 -0.40 0.25 -0.75 0.50 -0.75 0.30 0 0.50 0.35 0.50 0.75 0 0.40 -0.20 0.75 -0.50 0.75 -0.25 0 -0.50 -0.35 -0.50 -0.75z"/>
 </g>
 <g fill="#764c38">
  <path d="M28.70 12.45 c-0.25 -0.40 -0.80 -0.70 -1.20 -0.70 -0.50 0 -0.80 -0.60 -0.90 -1.85 -0.10 -1.05 0.05 -1.90 0.35 -1.90 0.25 0 0.45 -0.65 0.45 -1.40 -0.05 -1.55 0.85 -3.60 1.60 -3.60 0.30 0 0.50 0.25 0.50 0.50 0 0.30 0.35 0.50 0.75 0.50 0.50 0 0.75 -0.50 0.75 -1.50 0 -0.95 0.25 -1.50 0.70 -1.50 0.70 0 1.30 1.45 1.30 3.30 0 3.35 -3.30 9.70 -4.30 8.15z"/>
  <path d="M6.50 5.70 c0 -2.75 0.70 -4.20 2 -4.20 0.55 0 1 -0.35 1 -0.75 0 -0.40 0.45 -0.75 1 -0.75 0.80 0 1 0.35 1.05 1.65 0 1.50 0.05 1.50 0.50 0.45 0.25 -0.65 0.65 -1 0.95 -0.85 0.90 0.55 0.55 1.05 -2.25 3.30 -1.50 1.20 -2.75 2.45 -2.75 2.80 0 0.35 -0.35 0.65 -0.75 0.65 -0.55 0 -0.75 -0.60 -0.75 -2.30z"/>
  <path d="M9 7 c0.55 -1 1.50 -1.40 1.50 -0.60 0 0.55 -1.10 1.60 -1.60 1.60 -0.25 0 -0.20 -0.45 0.10 -1z"/>
 </g>
 <g fill="#525b6f">
  <path d="M13.50 39.50 c0 -0.25 0.20 -0.50 0.45 -0.50 0.25 0 0.75 -1.25 1.10 -2.75 0.35 -1.50 0.70 -2.65 0.80 -2.55 0.50 0.45 -1.10 6.30 -1.70 6.30 -0.35 0 -0.65 -0.20 -0.65 -0.50z"/>
  <path d="M37.50 39.50 c0 -0.25 0.45 -0.50 0.95 -0.50 0.55 0 1.15 0.25 1.30 0.50 0.20 0.30 -0.25 0.50 -0.95 0.50 -0.70 0 -1.30 -0.20 -1.30 -0.50z"/>
  <path d="M9.15 35.80 c-1.55 -1.80 -1.95 -3.30 -0.80 -3.30 0.75 0 3.15 3.20 3.15 4.20 0 0.75 -1.45 0.20 -2.35 -0.90z"/>
  <path d="M5 35.45 c0 -0.30 -0.35 -0.40 -0.80 -0.25 -0.45 0.20 -0.65 0.10 -0.40 -0.25 0.20 -0.30 0.05 -0.75 -0.35 -0.95 -0.35 -0.25 -0.70 -1.15 -0.75 -2 -0.05 -0.85 -0.25 -2.05 -0.40 -2.70 -0.20 -0.80 0.05 -1.45 0.95 -2.20 0.70 -0.60 1.25 -1.35 1.25 -1.70 0 -0.45 -0.15 -0.45 -0.60 0 -1.05 1.05 -2.60 0.70 -3.25 -0.75 -0.80 -1.65 -0.85 -2.65 -0.15 -2.65 0.30 0 0.50 -0.35 0.50 -0.75 0 -1.20 0.90 -0.85 1.70 0.65 0.95 1.85 2.10 2.80 2.55 2.15 0.15 -0.30 0.05 -1.85 -0.30 -3.50 -0.45 -2.40 -0.45 -3.10 0.10 -3.70 0.60 -0.60 0.80 -0.55 1.55 0.45 0.50 0.60 0.75 1.45 0.60 1.90 -0.35 0.95 -1.20 1.10 -1.20 0.20 0 -0.30 -0.10 -0.45 -0.20 -0.35 -0.15 0.10 -0.05 1 0.15 1.95 l0.35 1.75 0.85 -1.60 c0.45 -0.90 0.85 -2 0.85 -2.45 0 -0.60 0.30 -0.75 1.15 -0.50 0.60 0.15 1.25 0.30 1.50 0.30 0.55 0 0.45 1.50 -0.10 1.50 -0.30 0 -0.65 -0.20 -0.80 -0.50 -0.15 -0.30 -0.60 -0.50 -0.90 -0.50 -0.35 0 -0.20 0.25 0.30 0.55 1.25 0.70 1.05 1.45 -0.40 1.45 -1 0 -1.25 0.25 -1.25 1.25 0 0.75 0.30 1.25 0.70 1.25 0.75 0 0.55 1.70 -0.25 2.80 -0.25 0.30 -0.30 0.70 -0.15 0.85 0.20 0.15 -0.80 1 -2.20 1.85 l-2.50 1.60 1.30 2.45 c0.80 1.50 1.40 2.20 1.50 1.70 0.25 -1.05 0.75 -0.95 1.50 0.25 0.55 0.90 0.50 1 -0.90 1 -0.80 0 -1.50 -0.25 -1.50 -0.55z"/>
  <path d="M33.85 34.65 c0.30 -0.80 0.25 -0.80 -0.50 -0.20 -0.75 0.60 -0.85 0.55 -0.85 -0.15 0 -0.45 -0.35 -0.80 -0.75 -0.80 -0.90 0 -1.05 -2.55 -0.25 -4.05 0.80 -1.45 1.50 -1.15 1.50 0.70 0 0.90 0.30 2.10 0.70 2.65 0.70 0.90 0.75 0.90 1.25 -0.45 0.30 -0.80 0.55 -1.65 0.55 -1.90 0 -0.25 0.35 -0.45 0.75 -0.45 0.50 0 0.75 0.55 0.75 1.75 0 0.95 -0.20 1.75 -0.50 1.75 -0.25 0 -0.50 0.45 -0.50 1 0 0.75 -0.35 1 -1.25 1 -0.95 0 -1.15 -0.20 -0.90 -0.85z"/>
  <path d="M5.50 32 c0 -0.25 0.45 -0.50 1.05 -0.50 0.55 0 0.85 0.25 0.70 0.50 -0.15 0.30 -0.65 0.50 -1.05 0.50 -0.40 0 -0.70 -0.20 -0.70 -0.50z"/>
  <path d="M15.15 32 c-1.65 -0.65 -1.50 -2.60 0.30 -3.65 1.40 -0.80 1.50 -0.80 2.85 0.25 0.80 0.60 1.60 1.35 1.85 1.65 0.25 0.35 0.50 0.30 0.75 -0.10 0.20 -0.35 1.10 -0.80 2 -0.95 1.30 -0.25 1.60 -0.15 1.60 0.50 0 1.20 -1.20 2.25 -2.95 2.60 -1.35 0.30 -1.55 0.20 -1.55 -0.75 0 -0.85 -0.30 -1.05 -1.75 -1.05 -1.75 0 -2.50 1.10 -1.10 1.65 0.40 0.20 0.35 0.25 -0.15 0.30 -0.40 0 -1.25 -0.20 -1.85 -0.45z"/>
  <path d="M9.20 31.45 c-0.70 -0.30 -0.50 -0.40 0.80 -0.45 1.45 0 1.90 -0.30 2.50 -1.60 0.40 -0.90 1.10 -1.70 1.50 -1.80 0.60 -0.20 0.55 -0.05 -0.10 0.75 -0.50 0.55 -0.90 1.45 -0.90 2 0 1.15 -2.10 1.75 -3.80 1.10z"/>
  <path d="M6.75 29.25 c1.75 -1.40 2.25 -1.55 2.25 -0.55 0 0.40 -0.70 0.95 -1.55 1.25 -2.30 0.80 -2.40 0.70 -0.70 -0.70z"/>
  <path d="M34.05 28.40 c-0.05 -0.70 -0.30 -1.40 -0.60 -1.50 -0.30 -0.10 -0.15 -0.55 0.40 -1 0.90 -0.85 0.95 -0.80 0.75 1 -0.25 2.45 -0.50 3.20 -0.55 1.50z"/>
  <path d="M35.65 26.65 c0.05 -1.60 0.20 -3 0.35 -3.15 0.45 -0.45 1.50 -4.95 1.50 -6.50 0 -1.25 0.20 -1.50 1.25 -1.50 1.05 0 1.25 0.25 1.25 1.40 0 0.75 -0.20 1.60 -0.50 1.90 -0.25 0.25 -0.60 1.75 -0.80 3.35 -0.30 2.45 -0.20 2.85 0.50 2.85 0.45 0 0.80 0.40 0.80 1 0 0.75 -0.35 1 -1.25 1 -1 0 -1.25 0.25 -1.25 1.25 0 0.90 -0.25 1.25 -0.95 1.25 -0.90 0 -1 -0.35 -0.90 -2.85z"/>
  <path d="M18 27.70 c0 -0.15 0.60 -0.80 1.40 -1.45 1.35 -1.20 2.60 -1.60 2.60 -0.85 0 0.20 -0.30 0.70 -0.60 1.05 -0.55 0.60 -0.50 0.65 0.30 0.35 0.75 -0.25 0.85 -0.20 0.40 0.35 -0.55 0.65 -4.10 1.15 -4.10 0.55z"/>
  <path d="M26.55 25.55 c-0.35 -0.25 -1.15 -0.30 -1.75 -0.15 -1.25 0.30 -1 0 0.65 -0.90 0.65 -0.30 1.05 -0.35 0.85 -0.10 -0.15 0.30 0.20 0.60 0.80 0.70 0.65 0.10 0.90 0.30 0.65 0.50 -0.30 0.20 -0.85 0.15 -1.20 -0.05z"/>
  <path d="M31.50 23.75 c1.20 -1.20 2.30 -2.10 2.45 -2 0.30 0.35 -3.50 4.25 -4.15 4.25 -0.30 0 0.50 -1 1.70 -2.25z"/>
  <path d="M17.35 22.65 c-0.20 -0.15 0.05 -0.60 0.55 -1 0.75 -0.55 0.65 -0.60 -0.55 -0.15 -1.25 0.45 -1.40 0.40 -1.25 -0.35 0.10 -0.70 0.75 -0.95 2.80 -1.05 1.85 -0.10 2.60 -0.35 2.60 -0.90 0 -0.35 -0.30 -0.70 -0.60 -0.75 -0.35 0 -0.10 -0.25 0.55 -0.50 1.85 -0.75 2.25 -0.30 1.05 1.05 -3.55 4.15 -4.20 4.60 -5.15 3.65z"/>
  <path d="M21.50 22.50 c0 -1 2.75 -5.50 3.40 -5.50 0.40 0 0.60 0.75 0.60 2.20 0 1.75 -0.25 2.40 -1.10 3 -1.25 0.90 -2.90 1.05 -2.90 0.30z"/>
  <path d="M12.70 20.25 c-0.45 -1.10 0.20 -1.75 1.85 -1.75 1.45 0 1.45 0 0.65 1.25 -0.90 1.40 -2.10 1.65 -2.50 0.50z"/>
  <path d="M6.50 15 c0 -0.75 0.35 -1 1.25 -1 l1.25 0 -1 1 c-0.55 0.55 -1.10 1 -1.25 1 -0.15 0 -0.25 -0.45 -0.25 -1z"/>
  <path d="M18.65 15.30 c0.20 -0.50 0.35 -1.10 0.35 -1.30 0 -0.25 1.15 -0.50 2.60 -0.60 3 -0.15 3.60 -1 1.45 -1.90 -1.30 -0.50 -1.85 -0.50 -3.55 0.20 -1.10 0.45 -2.70 0.80 -3.50 0.80 -1.35 0 -1.50 -0.15 -1.45 -1.60 0.05 -0.90 0.15 -1.25 0.30 -0.75 0.25 0.95 1.15 0.85 3.75 -0.45 1.90 -0.95 5.25 -0.90 5.80 0.10 0.35 0.60 0.75 0.20 1.85 -2 0.80 -1.55 1.50 -2.75 1.55 -2.65 0.10 0.05 -0.10 1.10 -0.40 2.35 -0.45 1.65 -0.45 2.25 0 2.40 0.35 0.10 0.60 0.65 0.60 1.20 0 0.70 -0.25 0.90 -0.75 0.70 -0.55 -0.20 -0.75 0.10 -0.75 1.20 0 1.85 -0.65 2.20 -3.75 2.30 -1.35 0 -2.95 0.20 -3.45 0.45 -0.80 0.35 -0.90 0.25 -0.65 -0.45z"/>
  <path d="M9.50 11.30 c0 -0.40 -0.25 -0.80 -0.50 -0.90 -0.30 -0.10 0.15 -0.85 1 -1.65 l1.60 -1.50 -0.35 1.40 c-0.45 1.65 0.05 1.70 1.60 0.25 0.65 -0.60 1.15 -0.80 1.15 -0.50 0 0.35 -0.20 0.60 -0.50 0.60 -0.25 0 -0.50 0.70 -0.50 1.50 0 1.40 -0.15 1.50 -1.75 1.50 -1.20 0 -1.75 -0.25 -1.75 -0.70z"/>
  <path d="M34 10.55 c0 -0.90 4.70 -5.55 5.60 -5.55 0.25 0 0.40 0.65 0.40 1.45 0 1.50 -0.70 2.05 -2.80 2.05 -1 0 -1.20 0.25 -1.20 1.50 0 1.15 -0.20 1.50 -1 1.50 -0.65 0 -1 -0.35 -1 -0.95z"/>
  <path d="M7 8.65 c0 -0.90 0.25 -1.65 0.50 -1.65 0.65 0 0.65 1.50 0 2.50 -0.35 0.55 -0.50 0.35 -0.50 -0.85z"/>
  <path d="M8.50 8.45 c0 -1.05 1.85 -2.95 2.90 -2.95 0.70 0 0.60 0.20 -0.35 0.95 -0.70 0.50 -1.55 1.35 -1.90 1.85 -0.50 0.70 -0.65 0.75 -0.65 0.15z"/>
  <path d="M19 5.85 c0 -0.40 0.35 -0.85 0.75 -1.05 0.40 -0.15 0.75 -0.10 0.75 0.15 0 0.25 -0.35 0.70 -0.75 1.05 -0.60 0.50 -0.75 0.50 -0.75 -0.15z"/>
  <path d="M13.85 5.20 c-0.20 -0.20 -0.20 -0.90 -0.05 -1.50 0.35 -1.30 -0.25 -1.55 -1.25 -0.55 -0.50 0.50 -0.60 0.35 -0.45 -0.65 0.10 -0.70 0.45 -1.20 0.80 -1.15 0.30 0.10 0.60 -0.20 0.60 -0.60 0 -1.55 0.90 -0.70 1.20 1.15 0.50 3.25 0.25 4.40 -0.85 3.30z"/>
 </g>
 <g fill="#536d7b">
  <path d="M3.50 38.80 c0 -0.70 -0.25 -1.40 -0.50 -1.55 -0.85 -0.55 0.40 -2.25 1.40 -1.90 0.60 0.20 0.55 0.05 -0.25 -0.70 -1.30 -1.15 -1.45 -1.65 -0.50 -1.65 0.35 0 1 0.60 1.45 1.40 0.70 1.05 0.90 1.15 0.90 0.45 0 -1.60 0.90 -0.40 1.25 1.65 0.20 1.10 0.55 2 0.80 2 0.25 0 0.45 0.35 0.45 0.75 0 0.55 -0.60 0.75 -2.50 0.75 -2.30 0 -2.50 -0.10 -2.50 -1.20z"/>
  <path d="M29.55 39.20 c0.45 -0.50 0.95 -1.95 1.10 -3.20 0.15 -1.20 0.55 -2.30 0.80 -2.40 0.30 -0.10 0.55 -0.50 0.55 -0.85 0 -1.15 1.40 -1.25 1.70 -0.10 0.20 0.75 -0.15 1.55 -1.20 2.60 -1.55 1.60 -2.10 2.85 -0.75 1.75 0.65 -0.55 0.75 -0.40 0.75 0.95 0 0.90 -0.25 1.55 -0.60 1.55 -0.35 0 -1.20 0.15 -1.90 0.35 -1.20 0.30 -1.20 0.25 -0.45 -0.65z"/>
  <path d="M35.90 39.65 c-1.20 -0.20 -1.40 -0.45 -1.40 -1.75 0 -0.90 0.35 -1.80 0.85 -2.15 0.75 -0.60 0.70 -0.60 -0.55 -0.40 l-1.40 0.30 0.90 -1.70 c1 -1.90 2.30 -10.55 1.65 -10.95 -0.25 -0.20 -0.60 -1 -0.75 -1.90 -0.30 -1.40 -0.20 -1.60 0.75 -1.60 0.55 0 1.05 0.25 1.05 0.50 0 0.30 0.45 0.50 1 0.50 0.85 0 0.90 0.15 0.50 1.30 -0.60 1.55 -0.15 3.70 0.80 3.70 0.50 0 0.70 0.70 0.70 2.50 0 1.40 -0.20 2.50 -0.50 2.50 -0.25 0 -0.50 0.30 -0.50 0.70 0 0.35 -0.40 0.80 -0.90 0.95 -0.55 0.10 -1.05 0.70 -1.25 1.30 -0.20 0.90 -0.05 1.05 1.45 1.05 0.95 0 1.70 0.15 1.70 0.40 0 0.20 -0.90 1 -2 1.80 -2.10 1.55 -2.20 2.30 -0.20 2.30 0.65 0 1.20 0.25 1.20 0.50 0 0.50 -0.60 0.55 -3.10 0.15z"/>
  <path d="M9.50 31.50 c-0.60 -0.35 -0.40 -0.50 0.85 -0.50 1.20 0 1.65 -0.25 1.95 -1.10 0.40 -1.35 1.65 -2.90 2.35 -2.90 0.30 0 0.05 0.50 -0.50 1.15 -0.60 0.60 -1.15 1.65 -1.25 2.35 -0.15 1.35 -2.05 1.90 -3.40 1z"/>
  <path d="M24.60 29.95 c0.05 -0.65 0.70 -1.45 1.30 -1.75 0.65 -0.30 1.45 -0.85 1.75 -1.15 0.30 -0.30 0.75 -0.55 0.95 -0.55 0.70 0 -1.15 2.50 -2.70 3.60 l-1.50 1.05 0.20 -1.20z"/>
  <path d="M32.40 29.50 c-0.15 -1 0.10 -1.90 0.90 -2.85 l1.15 -1.40 0.05 1.75 c0 2.40 -0.50 4 -1.25 4 -0.35 0 -0.75 -0.65 -0.85 -1.50z"/>
  <path d="M2.35 29.45 c-0.15 -0.65 -0.05 -1.45 0.25 -1.80 0.35 -0.45 0.35 -0.65 -0.05 -0.65 -0.35 0 -0.45 -0.25 -0.30 -0.55 0.20 -0.30 0.35 -1.30 0.35 -2.30 l0 -1.75 1.05 1 c1 1 1 1.10 0.20 2 -0.95 1 -1.10 1.60 -0.45 1.60 0.25 0 0.70 -0.60 1.05 -1.35 1.20 -2.60 3.70 -6.15 4.35 -6.15 0.85 0 1.85 1.85 1.25 2.20 -0.25 0.20 -0.80 0.15 -1.25 0 -0.45 -0.15 -0.80 -0.10 -0.80 0.20 0 0.30 0.25 0.60 0.60 0.70 0.85 0.30 -1 4.75 -2.50 5.95 -0.70 0.55 -1.55 0.90 -1.95 0.75 -0.35 -0.15 -0.80 0.10 -1.05 0.55 -0.40 0.65 -0.50 0.60 -0.75 -0.40z"/>
  <path d="M15.15 28.75 c0.80 -0.70 1.65 -1.10 1.90 -0.95 0.30 0.15 1.40 -0.40 2.50 -1.30 1.10 -0.90 2.10 -1.50 2.25 -1.40 0.45 0.50 -1.90 2.90 -2.85 2.90 -1.05 0 -1.35 1 -0.30 1.05 1.30 0.05 -1.50 0.90 -3.15 0.90 l-1.75 0 1.40 -1.20z"/>
  <path d="M21.85 22.35 c-0.15 -0.35 0.45 -1.70 1.30 -3 1.15 -1.80 1.65 -2.20 1.95 -1.65 0.70 1.25 0.20 3.40 -1.05 4.35 -1.40 1.10 -1.85 1.20 -2.20 0.30z"/>
  <path d="M5.20 21.95 c-0.20 -0.35 -0.35 -2.40 -0.35 -4.65 0 -3.25 0.20 -4.50 1.10 -6.20 0.65 -1.25 0.95 -2.55 0.80 -3.15 -0.20 -0.55 -0.10 -0.95 0.20 -0.95 0.30 0 0.55 -0.45 0.55 -0.95 0 -1.20 0.80 -1.80 1.15 -0.95 0.20 0.50 0.30 0.50 0.30 0.05 0.05 -0.35 0.40 -0.65 0.85 -0.65 0.70 0 0.70 0.15 0.20 0.75 -0.35 0.40 -0.90 0.75 -1.25 0.75 -0.35 0 -0.75 0.75 -0.90 1.65 -0.10 0.85 -0.75 3 -1.40 4.70 l-1.20 3.10 1.15 1.50 c0.60 0.80 0.95 1.85 0.80 2.25 -0.35 0.95 -1 1.05 -1.35 0.20 -0.15 -0.35 -0.15 0.20 0 1.25 0.30 1.85 0 2.35 -0.65 1.30z"/>
  <path d="M16 20.95 c0 -0.70 2.40 -2.05 3 -1.70 0.25 0.15 0.50 0.05 0.50 -0.20 0 -0.30 0.40 -0.55 0.90 -0.55 0.50 0 1.15 -0.25 1.45 -0.55 0.30 -0.30 0.80 -0.50 1.15 -0.35 0.30 0.10 -0.10 0.90 -1 2 -1.35 1.60 -1.85 1.80 -3.80 1.80 -1.20 0 -2.20 -0.20 -2.20 -0.45z"/>
  <path d="M12.85 20.65 c-0.65 -0.60 -0.35 -1.55 0.90 -3.05 1.60 -1.90 1.55 -2.20 -0.05 -1.80 -0.75 0.20 -2 0 -3.25 -0.55 -1.85 -0.85 -2 -0.85 -2.95 0 -0.85 0.75 -1 0.80 -1 0.15 0 -1.40 1.55 -4.60 2.90 -6.05 l1.35 -1.40 0.25 1.30 0.25 1.35 1.40 -1.35 1.40 -1.40 0.55 1.55 c0.70 1.85 0.95 1.90 3.85 0.60 2.60 -1.20 4 -1.25 5.35 -0.25 1.35 1 1.55 0.95 1.90 -0.75 0.55 -2.85 3.30 -1.40 3.55 1.90 0.05 1 0.05 1.45 -0.10 1 -0.25 -0.95 -1.15 -1.25 -1.15 -0.35 0 0.30 -0.45 0.40 -1 0.20 -0.90 -0.30 -1 -0.15 -0.75 0.85 0.35 1.35 -1.20 3.25 -1.60 2.05 -0.60 -1.75 -4.95 0.35 -8.65 4.10 -2.25 2.30 -2.60 2.50 -3.15 1.90z"/>
  <path d="M9.10 19.25 c-0.65 -0.35 -1 -0.75 -0.75 -0.90 0.60 -0.35 2.65 0.50 2.65 1.15 0 0.65 -0.45 0.60 -1.90 -0.25z"/>
  <path d="M34.50 18 c-0.95 -1.80 -0.85 -7.10 0.15 -8.65 0.75 -1.15 4.30 -3.85 5.10 -3.85 0.15 0 0.25 0.90 0.25 2 0 1.65 -0.15 2 -1 2 -0.80 0 -1 0.35 -1 1.65 0 0.85 -0.15 2.10 -0.30 2.75 -0.25 0.95 -0.10 1.10 1 1.10 1.05 0 1.30 0.25 1.30 1.30 0 0.70 -0.20 1.15 -0.50 0.95 -0.25 -0.15 -0.50 0.05 -0.50 0.45 0 0.50 -0.45 0.80 -1.20 0.80 -0.65 0 -1.55 0.15 -1.95 0.30 -0.50 0.15 -1 -0.15 -1.35 -0.80z"/>
  <path d="M8.50 8 c0 -0.70 1.85 -2.50 2.60 -2.50 0.30 0 -0.05 0.70 -0.85 1.50 -1.55 1.65 -1.75 1.75 -1.75 1z"/>
  <path d="M14 3.25 c0 -0.90 -0.60 -0.95 -1.40 -0.15 -0.45 0.45 -0.60 0.35 -0.60 -0.50 0 -0.65 0.30 -1.10 0.75 -1.10 0.40 0 0.75 -0.35 0.75 -0.75 0 -0.45 0.45 -0.75 1.05 -0.75 0.95 0 1.05 0.20 0.75 1.55 -0.15 0.85 -0.30 1.75 -0.30 2 0 0.25 -0.20 0.45 -0.50 0.45 -0.25 0 -0.50 -0.35 -0.50 -0.75z"/>
 </g>
 <g fill="#b63d49">
  <path d="M13.50 9.75 c0 -0.40 0 -0.85 0 -1 0 -0.70 0.75 -0.20 1.10 0.70 0.25 0.75 0.15 1.05 -0.35 1.05 -0.40 0 -0.75 -0.35 -0.75 -0.75z"/>
  <path d="M14.80 7.65 c-0.20 -0.70 -0.15 -1.45 0.15 -1.60 0.25 -0.15 0.60 -1.20 0.80 -2.30 0.65 -3.80 0.60 -3.75 3.30 -3.75 2.75 0 2.85 0.25 1.85 3.55 -0.35 1.20 -1.25 2.45 -2.30 3.30 l-1.75 1.35 1.50 -2.25 c0.80 -1.20 1.75 -2.70 2.10 -3.30 0.50 -1 0.45 -1.15 -0.45 -1.15 -0.70 0 -1 0.35 -1 1.20 0 0.65 -0.45 1.75 -1 2.40 -0.55 0.70 -1.20 1.85 -1.50 2.60 -0.60 1.65 -1.30 1.65 -1.70 -0.05z"/>
  <path d="M14 5.40 c-0.05 -0.10 -0.10 -1.35 -0.15 -2.75 -0.10 -2.45 -0.05 -2.65 1 -2.65 1 0 1.05 0.15 0.65 1.30 -0.30 0.70 -0.50 1.95 -0.50 2.75 0 0.80 -0.20 1.45 -0.50 1.45 -0.25 0 -0.50 -0.05 -0.50 -0.10z"/>
  <path d="M22 4.55 c0 -1.05 0.65 -2.05 1.30 -2.05 0.40 0 0.70 -0.20 0.70 -0.50 0 -0.25 -0.35 -0.50 -0.75 -0.50 -0.40 0 -0.75 -0.35 -0.75 -0.75 0 -0.40 0.45 -0.75 1 -0.75 0.85 0 1 0.35 1 1.90 0 1.60 -0.25 2.05 -1.25 2.50 -0.70 0.30 -1.25 0.40 -1.25 0.15z"/>
  <path d="M28.50 3.05 c0.25 -0.55 0.50 -1.45 0.50 -2 0 -0.60 0.25 -1.05 0.50 -1.05 0.80 0 0.60 2.35 -0.30 3.20 -1.05 1.10 -1.35 1 -0.70 -0.15z"/>
  <path d="M26.15 2 c0.20 -0.70 0.35 -1.40 0.35 -1.60 0 -0.25 0.45 -0.40 1 -0.40 1.50 0 1.25 1 -0.70 2.50 -0.90 0.70 -0.95 0.65 -0.65 -0.50z"/>
 </g>
 <g fill="#a26b4a">
  <path d="M29 12.10 c0 -0.90 -0.20 -1.10 -0.85 -0.90 -1.30 0.40 -2.10 -0.30 -2 -1.70 0.15 -1.55 1.40 -3.50 2.20 -3.50 0.35 0 0.65 -0.50 0.65 -1.10 0.05 -1.60 1.15 -2.90 2.45 -2.90 0.95 0 1.05 0.30 1.05 2.45 0 2.45 -1.20 5.90 -2.70 7.80 -0.75 1 -0.75 1 -0.80 -0.15z m1.95 -6.05 c-0.15 -0.35 -0.65 0.15 -1.15 1.05 l-0.95 1.65 1.15 -1.05 c0.60 -0.60 1.05 -1.35 0.95 -1.65z"/>
  <path d="M6.95 8.40 c-0.20 -1.90 0.20 -5.80 0.70 -7 0.45 -1.10 0.95 -1.40 2.10 -1.40 1.45 0 1.55 0.15 1.60 1.85 0.05 1.95 -1.35 4.15 -2.70 4.15 -0.35 0 -0.65 0.55 -0.65 1.20 0 1.30 -0.95 2.35 -1.05 1.20z"/>
  <path d="M8.50 8.10 c0 -0.25 0.55 -0.95 1.25 -1.60 0.70 -0.65 1.25 -0.95 1.25 -0.70 0 0.30 -0.55 1 -1.25 1.60 -0.70 0.60 -1.25 0.90 -1.25 0.70z"/>
 </g>
 <g fill="#607b8a">
  <path d="M2.85 38.40 c-0.30 -2.30 0.05 -3.05 1.45 -2.70 0.80 0.20 1.30 0.05 1.65 -0.55 0.45 -0.80 0.65 -0.75 2.10 0.65 1.55 1.55 1.55 1.60 0.70 2.90 -1.25 1.90 -3.15 1.70 -2.80 -0.35 0.05 -0.25 -0.15 -0.30 -0.45 -0.10 -0.25 0.15 -0.50 0.65 -0.50 1.05 0 0.40 -0.40 0.70 -0.95 0.70 -0.65 0 -1 -0.45 -1.20 -1.60z"/>
  <path d="M32.50 39 c0 -0.60 -0.35 -1 -0.85 -1 -0.70 0 -0.70 -0.10 0.10 -1 0.70 -0.80 1.05 -0.90 1.35 -0.40 0.35 0.50 0.40 0.45 0.30 -0.10 -0.10 -0.40 0.40 -1.60 1.05 -2.65 1.60 -2.60 1.85 -7.30 0.75 -12.60 -0.50 -2.20 -0.95 -5.50 -1.05 -7.35 -0.20 -2.90 -0.05 -3.55 0.90 -4.90 0.95 -1.25 3.95 -3.50 4.75 -3.50 0.45 0 0.15 5.05 -0.40 6.30 -0.50 1.10 -0.50 1.40 0 1.60 0.70 0.20 0.85 3.10 0.15 3.10 -0.40 0 -0.70 1.70 -1.25 6.85 -0.10 0.90 -0.45 1.95 -0.80 2.40 -0.50 0.60 -0.50 0.75 0.15 0.75 0.45 0 0.95 -0.20 1.10 -0.50 0.85 -1.40 1.25 -0.05 1.25 4.40 l-0.05 4.85 -1.95 1.25 c-2.15 1.30 -2.35 2.15 -0.60 2.40 2.30 0.35 0.95 1.10 -1.90 1.10 -2.65 0 -3 -0.10 -3 -1z"/>
  <path d="M9 35.75 c-0.95 -1.05 -1.05 -1.25 -0.35 -1.25 0.45 0 0.85 0.25 0.85 0.50 0 0.30 0.35 0.50 0.75 0.50 0.40 0 0.75 0.35 0.75 0.75 0 1.10 -0.65 0.90 -2 -0.50z"/>
  <path d="M30.50 36.40 c0 -0.45 0.35 -1.15 0.75 -1.55 0.50 -0.50 0.55 -0.85 0.20 -0.95 -0.35 -0.10 -0.45 -0.75 -0.20 -1.80 0.25 -1.20 0.60 -1.60 1.40 -1.60 1.80 0 1.40 3.20 -0.60 5.20 -1.15 1.15 -1.55 1.30 -1.55 0.70z"/>
  <path d="M9.70 31.45 c-0.25 -0.45 -0.05 -0.50 0.75 -0.30 0.90 0.20 1.25 0 1.80 -1.30 0.35 -0.90 1.20 -1.90 1.85 -2.30 l1.15 -0.70 -1.10 1.20 c-0.60 0.65 -1.15 1.75 -1.25 2.45 -0.10 0.95 -0.50 1.30 -1.50 1.40 -0.70 0.10 -1.45 -0.10 -1.70 -0.45z"/>
  <path d="M2.50 29.15 c0 -0.85 0.25 -1.75 0.55 -1.90 0.95 -0.65 1.10 0.20 0.30 1.85 l-0.85 1.65 0 -1.60z"/>
  <path d="M14.60 29.40 c0.40 -1.15 2.70 -1.65 3.60 -0.80 0.70 0.75 0.70 0.85 0 1.10 -1.45 0.55 -3.80 0.35 -3.60 -0.30z"/>
  <path d="M24 29.55 c0 -0.70 3.20 -2.10 3.45 -1.45 0.10 0.30 -0.20 0.85 -0.75 1.25 -1 0.75 -2.70 0.90 -2.70 0.20z"/>
  <path d="M4.60 28.50 c0.50 -0.80 0.50 -1.10 0.05 -1.40 -0.50 -0.30 -0.40 -0.85 0.35 -2.35 0.60 -1.20 0.80 -2.15 0.50 -2.45 -0.25 -0.35 -0.60 -2.25 -0.80 -4.30 -0.25 -3.30 -0.15 -4.05 0.80 -6.15 1.45 -3.10 2.25 -3.05 1 0.15 -0.75 1.90 -0.95 3.35 -0.80 6.25 0.20 3.65 0.65 5.25 1.15 3.85 0.20 -0.50 0.45 -0.45 1.20 0.15 0.85 0.80 0.85 0.95 0.10 2.95 -0.80 2 -2.75 4.30 -3.70 4.30 -0.25 0 -0.20 -0.45 0.15 -1z"/>
  <path d="M34 28.55 c0 -0.25 -0.35 -0.55 -0.75 -0.65 -0.55 -0.10 -0.55 -0.40 0.25 -1.40 l1 -1.25 0 1.90 c0 1 -0.10 1.85 -0.25 1.85 -0.15 0 -0.25 -0.20 -0.25 -0.45z"/>
  <path d="M18.50 27.65 c0.05 -0.50 2.50 -2.30 2.75 -2.05 0.40 0.40 -1.30 2.40 -2.05 2.40 -0.40 0 -0.70 -0.15 -0.70 -0.35z"/>
  <path d="M1.65 26.25 c-0.35 -0.40 -0.65 -1.50 -0.65 -2.50 0 -2.15 1 -2.30 2.45 -0.45 1 1.25 1 1.35 0.15 2.50 -1 1.35 -1.15 1.40 -1.95 0.45z"/>
  <path d="M22.05 22.35 c-0.40 -0.50 -0.25 -1.10 0.70 -2.35 0.65 -0.90 1.30 -1.90 1.45 -2.20 0.35 -0.80 1.30 0.70 1.30 2.05 0 1.50 -2.65 3.40 -3.45 2.50z"/>
  <path d="M8.30 21.25 c-1.10 -0.85 -0.60 -1.90 0.75 -1.50 0.50 0.20 0.95 0.10 0.95 -0.20 0 -0.25 -0.50 -0.55 -1.10 -0.65 -0.65 -0.10 -0.90 -0.30 -0.65 -0.45 0.30 -0.20 1 -0.15 1.60 0.10 1.05 0.40 1.05 0.45 0.35 1.90 -0.45 0.85 -0.80 1.55 -0.85 1.55 -0.05 0 -0.50 -0.35 -1.05 -0.75z"/>
  <path d="M16 20.95 c0 -0.25 0.80 -0.45 1.80 -0.45 2.05 0 3.70 -0.75 3.70 -1.70 0 -0.40 0.35 -0.80 0.75 -1 1.20 -0.45 0.90 0.60 -0.60 2.10 -1 1 -1.90 1.35 -3.50 1.40 -1.20 0.05 -2.15 -0.10 -2.15 -0.35z"/>
  <path d="M12.50 19.95 c0 -0.30 0.55 -1.25 1.25 -2.15 0.70 -0.90 1.25 -1.75 1.25 -1.90 0 -0.15 -0.90 -0.25 -2 -0.25 -1.15 0 -2.40 -0.35 -2.90 -0.85 -1.30 -1.10 -2.45 -1 -2.75 0.30 -0.20 0.60 -0.45 0.95 -0.65 0.75 -0.55 -0.50 1.75 -5.65 3.10 -6.90 1.40 -1.30 1.60 -0.50 0.50 1.70 -1 1.85 -0.65 1.70 1.65 -0.75 l2 -2.15 0.55 1.45 c0.40 1.15 0.40 1.55 -0.10 1.90 -1.15 0.70 0 0.40 3.45 -0.85 2.20 -0.85 3.85 -1.20 4.75 -1 1.40 0.35 1.85 1.40 0.90 2 -0.25 0.15 -0.50 0.60 -0.50 0.90 0 0.35 0.40 0.10 0.90 -0.50 1.15 -1.55 2.20 -0.80 2 1.40 -0.15 1.70 -0.15 1.70 -3.30 2 -3.15 0.30 -4.25 0.90 -6.30 3.40 l-1 1.25 -0.35 -1.25 c-0.30 -1.10 -0.35 -1.05 -0.40 0.45 -0.05 1.25 -0.25 1.60 -1.05 1.60 -0.55 0 -1 -0.25 -1 -0.55z m5.90 -7.85 c0.10 -0.35 -0.10 -0.50 -0.60 -0.30 -0.45 0.15 -0.80 0.55 -0.80 0.80 0 0.65 1.15 0.25 1.40 -0.50z"/>
  <path d="M26.55 11.05 c-0.40 -0.25 -0.55 -0.80 -0.40 -1.25 0.20 -0.45 0.10 -0.80 -0.20 -0.80 -0.30 0 -0.30 -0.35 0.05 -1 0.30 -0.55 0.75 -1 1 -1 0.75 0 1.10 2 0.50 2.75 -0.40 0.50 -0.45 0.75 -0.10 0.75 0.30 0 0.70 -0.20 0.85 -0.50 0.15 -0.25 0.55 -0.50 0.85 -0.50 0.30 0 0.15 0.45 -0.35 1 -1 1.10 -1.20 1.15 -2.20 0.55z"/>
  <path d="M7 7.25 c0 -0.70 0.25 -1.25 0.50 -1.25 0.30 0 0.50 0.55 0.50 1.25 0 0.70 -0.20 1.25 -0.50 1.25 -0.25 0 -0.50 -0.55 -0.50 -1.25z"/>
  <path d="M8.50 8.20 c0 -0.65 2.40 -2.95 2.75 -2.60 0.15 0.10 -0.45 0.85 -1.25 1.65 -0.85 0.80 -1.50 1.20 -1.50 0.95z"/>
  <path d="M9 5 c0 -0.30 0.35 -0.65 0.75 -0.80 0.50 -0.20 0.75 -1 0.75 -2.25 0 -1.05 0.15 -1.95 0.40 -1.95 0.60 0 0.30 3.90 -0.35 4.70 -0.75 0.90 -1.55 1.05 -1.55 0.30z"/>
  <path d="M12 2.55 c0 -0.60 0.25 -1.05 0.50 -1.05 0.30 0 0.50 0.30 0.50 0.70 0 0.40 -0.20 0.90 -0.50 1.05 -0.25 0.15 -0.50 -0.15 -0.50 -0.70z"/>
  <path d="M14 2.05 c0 -0.25 -0.15 -0.80 -0.30 -1.25 -0.20 -0.60 0 -0.80 0.80 -0.80 0.80 0 1 0.20 0.80 0.80 -0.15 0.45 -0.30 1 -0.30 1.25 0 0.25 -0.20 0.45 -0.50 0.45 -0.25 0 -0.50 -0.20 -0.50 -0.45z"/>
 </g>
 <g fill="#6c8d99">
  <path d="M0 39.75 c0 -0.10 0.85 -1.10 1.95 -2.25 1.35 -1.40 2.15 -1.90 2.75 -1.70 0.60 0.25 0.95 0 1.15 -0.75 0.30 -1.10 0.30 -1.10 1.70 0.25 0.80 0.75 1.45 1.75 1.40 2.15 0 0.55 -0.20 0.45 -0.55 -0.30 -0.60 -1.30 -1.90 -1.55 -1.90 -0.40 0 0.40 -0.25 0.75 -0.50 0.75 -0.30 0 -0.80 0.55 -1.10 1.25 -0.45 1.05 -0.90 1.25 -2.75 1.25 -1.15 0 -2.15 -0.10 -2.15 -0.25z"/>
  <path d="M7 39.25 c0 -0.40 0.25 -0.75 0.50 -0.75 0.30 0 0.50 0.35 0.50 0.75 0 0.40 -0.20 0.75 -0.50 0.75 -0.25 0 -0.50 -0.35 -0.50 -0.75z"/>
  <path d="M29.60 39.55 c0.10 -0.25 1.45 -1.85 3.05 -3.45 1.55 -1.65 2.85 -3.35 2.85 -3.80 0 -0.45 0.40 -0.95 0.90 -1.15 0.45 -0.15 1.25 -0.65 1.75 -1.05 1.30 -1.15 1.60 -0.40 0.45 1.25 -0.95 1.35 -1.85 4.65 -1.30 4.65 0.15 0 0.60 -0.35 1 -0.75 0.45 -0.40 1 -0.75 1.25 -0.75 0.25 0 -0.30 0.70 -1.25 1.55 -1 0.85 -2 1.40 -2.25 1.25 -0.25 -0.20 -0.60 -0.10 -0.75 0.15 -0.40 0.60 1.50 2.20 2.15 1.80 0.30 -0.15 0.55 -0.05 0.55 0.20 0 0.30 -0.65 0.55 -1.50 0.55 -1.05 0 -1.50 -0.25 -1.50 -0.85 0 -0.75 -0.05 -0.75 -0.90 0 -0.95 0.90 -4.80 1.20 -4.50 0.40z"/>
  <path d="M9.10 35.85 c-1.30 -1.35 -1.40 -1.85 -0.35 -1.85 0.70 0 2.05 2.40 1.60 2.80 -0.10 0.10 -0.65 -0.30 -1.25 -0.95z"/>
  <path d="M30.65 35.90 c0.20 -0.65 0.45 -2.50 0.65 -4.05 0.25 -2.10 0.75 -3.40 1.75 -4.70 l1.45 -1.80 0 1.45 c0 0.80 -0.25 2.35 -0.60 3.45 -0.30 1.10 -0.50 2.45 -0.45 3 0.05 0.65 -0.55 1.60 -1.50 2.45 l-1.60 1.45 0.30 -1.25z"/>
  <path d="M12.15 30.95 c0.20 -0.65 0.35 -1.45 0.35 -1.80 0 -0.35 0.50 -0.90 1.15 -1.20 1.05 -0.60 1.05 -0.55 0.25 0.40 -0.50 0.55 -0.90 1.45 -0.90 2.05 0 0.55 -0.25 1.20 -0.60 1.40 -0.40 0.25 -0.45 0 -0.25 -0.85z"/>
  <path d="M2.60 27.60 c0 -2.75 1 -4.90 1.55 -3.45 0.15 0.40 -0.05 1.05 -0.45 1.35 -0.80 0.70 -0.95 1.50 -0.20 1.50 0.25 0 0.95 -0.95 1.55 -2.10 1.30 -2.55 1.85 -3 3.05 -2.35 0.85 0.45 0.85 0.60 0.15 1.95 -0.40 0.80 -0.75 1.75 -0.75 2.15 0 0.70 -1.55 2.35 -2.15 2.35 -0.20 0 -0.35 -0.45 -0.35 -1 0 -1.05 -1 -1.45 -1 -0.35 0 0.30 -0.35 1 -0.75 1.55 -0.60 0.80 -0.70 0.65 -0.65 -1.60z"/>
  <path d="M7.25 29 c0.50 -0.55 1.15 -1 1.45 -0.95 0.30 0 0.30 0.15 -0.05 0.30 -0.35 0.10 -0.65 0.55 -0.65 0.95 0 0.40 -0.35 0.70 -0.85 0.70 -0.70 0 -0.70 -0.10 0.10 -1z"/>
  <path d="M15 29.30 c0 -1.25 2.40 -1.45 3.60 -0.30 l1.10 1 -2.35 0 c-1.70 0 -2.35 -0.20 -2.35 -0.70z"/>
  <path d="M19 27.65 c0 -0.60 1.90 -2.40 2.25 -2.05 0.15 0.10 -0.30 0.75 -1 1.40 -0.70 0.65 -1.25 0.95 -1.25 0.65z"/>
  <path d="M36 25.50 c0 -0.25 0.25 -0.50 0.60 -0.50 0.30 0 0.15 -0.40 -0.35 -1 -0.65 -0.75 -0.80 -1.50 -0.65 -3.20 0.20 -1.60 0.10 -2.30 -0.40 -2.50 -1.05 -0.40 -0.85 -1.25 0.20 -0.95 0.80 0.20 1.05 -0.25 1.60 -2.95 0.80 -4.05 1.60 -6.40 2.15 -6.40 0.20 0 0.25 -0.45 0.10 -1 -0.20 -0.55 -0.10 -1 0.20 -1 0.35 0 0.55 1.65 0.55 4.50 0 2.50 -0.20 4.50 -0.40 4.50 -0.45 0 -1.65 6.25 -1.65 8.50 0 0.75 -0.45 1.55 -1 1.90 -0.55 0.35 -0.95 0.40 -0.95 0.10z"/>
  <path d="M22 21.55 c0 -0.55 0.20 -1.10 0.45 -1.25 0.25 -0.15 0.40 0.25 0.35 0.95 -0.05 1.45 -0.80 1.70 -0.80 0.30z"/>
  <path d="M8.40 21.30 c-1.25 -0.90 -1.10 -1.30 0.35 -1.30 1.55 0 1.65 -0.85 0.15 -1.10 -0.70 -0.10 -0.95 -0.30 -0.60 -0.50 1 -0.65 2.15 0.75 1.85 2.25 -0.30 1.50 -0.50 1.60 -1.75 0.65z"/>
  <path d="M16 20.95 c0 -0.70 1.85 -1.45 3.50 -1.45 1.25 0 1.55 0.20 1.40 0.85 -0.10 0.70 -0.70 0.90 -2.55 0.95 -1.30 0.05 -2.35 -0.10 -2.35 -0.35z"/>
  <path d="M23.80 20.20 c-0.20 -0.75 -0.10 -1.60 0.30 -2.05 0.50 -0.65 0.65 -0.60 1 0.40 0.45 1.15 0.10 2.95 -0.60 2.95 -0.20 0 -0.55 -0.60 -0.70 -1.30z"/>
  <path d="M12.50 20.10 c0 -0.20 0.55 -1.20 1.25 -2.20 0.70 -1 1.25 -1.95 1.25 -2.10 0 -0.20 -0.85 -0.30 -1.90 -0.30 -1.05 0 -2.40 -0.35 -3 -0.80 -1.10 -0.75 -1.25 -0.75 -2.40 0.35 -0.65 0.60 -1.20 0.90 -1.20 0.60 0 -0.75 1.45 -4.15 1.80 -4.15 0.10 0 0.70 0.45 1.30 1 0.95 0.90 2.55 1.25 4.90 1.10 0.40 0 0.90 0.20 1.05 0.50 0.20 0.30 1.30 0.20 3.15 -0.40 2.45 -0.75 2.95 -0.80 3.30 -0.20 0.35 0.55 -0.15 1 -1.95 1.85 -1.30 0.65 -3.10 2.05 -4 3.15 -1.40 1.75 -3.55 2.75 -3.55 1.60z"/>
  <path d="M6 18.65 c0 -1.10 0.10 -1.25 0.50 -0.65 0.65 1 0.65 2 0 2 -0.25 0 -0.50 -0.60 -0.50 -1.35z"/>
  <path d="M4.80 18.05 c-0.60 -0.95 -0.15 -4.25 0.80 -6.20 1.20 -2.45 1.75 -2.10 0.70 0.40 -0.45 1 -0.75 2.70 -0.70 3.80 0.05 2.05 -0.25 2.90 -0.80 2z"/>
  <path d="M24.50 14.60 c0 -0.30 0.25 -0.70 0.50 -0.85 0.30 -0.20 0.40 -0.50 0.25 -0.75 -0.15 -0.25 -0.05 -0.55 0.25 -0.75 0.80 -0.50 0.60 1.55 -0.25 2.25 -0.45 0.40 -0.75 0.45 -0.75 0.10z"/>
  <path d="M26.50 10.45 c0 -0.40 -0.15 -1.20 -0.30 -1.80 -0.25 -1 -0.10 -1.15 1 -1.15 1.55 0 1.65 0.65 0.30 2.35 -0.60 0.75 -1 1 -1 0.60z"/>
  <path d="M12.70 9.55 c1 -1.10 1.80 -1.35 1.80 -0.65 0 0.25 -0.60 0.70 -1.35 1.05 -1.40 0.65 -1.40 0.65 -0.45 -0.40z"/>
  <path d="M9.50 9.60 c0 -0.25 0.35 -0.75 0.75 -1.10 0.40 -0.35 0.75 -0.40 0.75 -0.10 0 0.25 -0.35 0.75 -0.75 1.10 -0.40 0.35 -0.75 0.40 -0.75 0.10z"/>
  <path d="M15 7.75 c0 -0.40 0.25 -0.75 0.50 -0.75 0.30 0 0.50 0.35 0.50 0.75 0 0.40 -0.20 0.75 -0.50 0.75 -0.25 0 -0.50 -0.35 -0.50 -0.75z"/>
  <path d="M9 7.60 c0 -0.25 0.50 -0.85 1.05 -1.40 1.10 -0.95 1.10 -0.95 0.50 0.15 -0.60 1.20 -1.55 1.95 -1.55 1.25z"/>
 </g>
 <g fill="#86868b">
  <path d="M9.10 35.85 c-1.25 -1.35 -1.45 -3.35 -0.35 -3.35 0.40 0 1.10 0.85 1.60 1.90 0.45 1 0.95 2 1.05 2.25 0.45 0.85 -1.30 0.25 -2.30 -0.80z"/>
  <path d="M2.85 33 c-0.35 -1.35 0.45 -1.75 1.10 -0.55 0.70 1.30 0.70 1.55 -0.15 1.55 -0.35 0 -0.80 -0.45 -0.95 -1z"/>
  <path d="M17.90 32.65 c-0.70 -0.15 -0.90 -0.75 -0.90 -2.45 l0 -2.20 1.25 0.80 c0.80 0.50 1.95 0.75 3.25 0.60 1.10 -0.10 2 0 2 0.20 0 0.65 1.50 0.45 1.50 -0.20 0.05 -0.35 0.80 -1.15 1.75 -1.75 3 -1.90 1.50 0.65 -1.75 2.95 -1.45 1.05 -5.40 2.55 -6.05 2.35 -0.10 -0.05 -0.60 -0.15 -1.05 -0.30z"/>
  <path d="M14.65 31.65 c-1.05 -0.40 -0.75 -2.15 0.35 -2.15 0.75 0 1 0.35 1 1.25 0 1.25 -0.20 1.40 -1.35 0.90z"/>
  <path d="M2.15 26.55 c-0.65 -0.55 -1.15 -1.30 -1.15 -1.75 0 -0.40 -0.20 -0.90 -0.50 -1.05 -1.10 -0.70 0.05 -4.35 1.85 -5.80 0.75 -0.65 0.80 -0.55 0.45 0.55 -0.65 2.05 -0.45 3.35 0.65 4.80 1 1.30 1 1.40 0.20 2.30 -0.75 0.85 -0.75 1 -0.15 1.40 0.40 0.30 0.55 0.50 0.25 0.50 -0.25 -0.05 -1 -0.45 -1.60 -0.95z"/>
  <path d="M16.50 20.90 c0 -0.25 0.80 -0.40 1.75 -0.40 0.95 0 1.75 0.15 1.75 0.40 0 0.20 -0.80 0.35 -1.75 0.35 -0.95 0 -1.75 -0.15 -1.75 -0.35z"/>
  <path d="M4.95 19.65 c-0.05 -0.80 -0.15 -2 -0.25 -2.75 -0.05 -0.80 0.05 -1.40 0.35 -1.40 0.25 0 0.45 0.15 0.50 0.40 0.20 2.55 0.10 5.10 -0.15 5.10 -0.25 0 -0.45 -0.60 -0.45 -1.35z"/>
  <path d="M20.50 20 c0 -0.55 0.35 -1.15 0.75 -1.30 1.35 -0.55 1.60 0.05 0.40 1.20 -1.15 1.10 -1.15 1.10 -1.15 0.10z"/>
  <path d="M28.25 10 c0.50 -0.55 1 -0.90 1.15 -0.75 0.35 0.30 -0.90 1.75 -1.55 1.75 -0.25 0 -0.10 -0.45 0.40 -1z"/>
  <path d="M26.60 9.15 c-0.80 -0.85 -0.45 -2.15 0.65 -2.15 0.45 0 0.75 0.45 0.75 1.20 0 1.55 -0.55 1.90 -1.40 0.95z"/>
  <path d="M28.25 3.70 c0.40 -1 0.75 -2.25 0.75 -2.75 0 -0.60 0.35 -0.95 1 -0.95 0.65 0 1 0.35 1 1 0 0.55 -0.20 1 -0.50 1 -0.25 0 -0.50 0.80 -0.50 1.75 0 1.55 -0.15 1.75 -1.25 1.75 -1.25 0 -1.25 0 -0.50 -1.80z"/>
  <path d="M13.85 4 c0.15 -0.55 0.45 -1 0.70 -1 0.25 0 0.45 0.45 0.45 1 0 0.55 -0.30 1 -0.70 1 -0.45 0 -0.60 -0.35 -0.45 -1z"/>
 </g>
 <g fill="#44b99e">
  <path d="M2.60 28.95 c0.05 -1 -0.20 -2.20 -0.55 -2.65 -0.55 -0.70 -0.55 -0.80 0.15 -0.80 0.45 0 0.80 0.30 0.80 0.70 0 0.40 0.25 0.80 0.50 0.90 0.35 0.10 0.25 0.80 -0.25 1.90 l-0.75 1.75 0.10 -1.80z"/>
  <path d="M7.25 29 c0.50 -0.55 1.10 -1 1.35 -1 0.75 0 0.45 1.40 -0.40 1.70 -1.50 0.55 -1.85 0.30 -0.95 -0.70z"/>
  <path d="M5 20.40 c0 -0.95 0.10 -1 0.50 -0.40 0.65 0.95 0.65 1.50 0 1.50 -0.25 0 -0.50 -0.50 -0.50 -1.10z"/>
  <path d="M16.10 20.95 c0.10 -0.35 1.20 -1.15 2.45 -1.80 4.60 -2.25 5.70 -1.95 2.95 0.95 -0.80 0.85 -1.50 1.25 -1.50 0.90 0 -0.60 -1.15 -0.50 -3.25 0.35 -0.65 0.20 -0.80 0.10 -0.65 -0.40z"/>
  <path d="M6 18.75 c0 -0.70 0.25 -1.25 0.50 -1.25 0.30 0 0.50 0.55 0.50 1.25 0 0.70 -0.20 1.25 -0.50 1.25 -0.25 0 -0.50 -0.55 -0.50 -1.25z"/>
  <path d="M14 1 c0 -0.55 0.35 -1 0.75 -1 0.85 0 0.90 0.10 0.45 1.20 -0.45 1.15 -1.20 1 -1.20 -0.20z"/>
 </g>
 <g fill="#eb575e">
  <path d="M15 7.75 c0 -0.40 0.20 -1.70 0.50 -2.85 0.25 -1.20 0.60 -2.75 0.75 -3.50 0.20 -1.10 0.55 -1.40 1.50 -1.40 1.05 0 1.25 0.25 1.25 1.55 0 0.85 -0.70 2.75 -1.60 4.25 -1.65 2.70 -2.40 3.30 -2.40 1.95z"/>
  <path d="M27.05 6.25 c0.60 -0.95 1.25 -1.75 1.50 -1.75 0.25 0 0.45 0.80 0.45 1.75 0 1.60 -0.10 1.75 -1.50 1.75 l-1.45 0 1 -1.75z"/>
  <path d="M14 2.80 c0 -1.25 0.25 -2.40 0.55 -2.55 0.75 -0.50 0.80 -0.30 0.55 2.40 -0.25 3 -1.10 3.10 -1.10 0.15z"/>
  <path d="M20 0.50 c0 -0.25 0.35 -0.50 0.75 -0.50 0.40 0 0.75 0.25 0.75 0.50 0 0.30 -0.35 0.50 -0.75 0.50 -0.40 0 -0.75 -0.20 -0.75 -0.50z"/>
  <path d="M22.50 0.50 c0 -0.25 0.45 -0.50 1 -0.50 0.55 0 1 0.25 1 0.50 0 0.30 -0.45 0.50 -1 0.50 -0.55 0 -1 -0.20 -1 -0.50z"/>
 </g>
 <g fill="#be8461">
  <path d="M29 12.05 c0 -0.30 0.40 -1.20 0.85 -1.95 l0.85 -1.35 -1.35 1.20 c-1.85 1.70 -1.70 0.60 0.15 -1.20 0.85 -0.80 1.70 -2.25 2 -3.20 0.60 -2.20 0.40 -2.45 -0.55 -0.65 -0.35 0.75 -1.30 2.20 -2.10 3.25 -1.45 1.90 -1.50 1.90 -2.20 0.85 -0.65 -0.95 -0.65 -1.15 0.15 -2.05 0.65 -0.75 0.95 -0.80 1.30 -0.35 0.25 0.45 0.40 0.15 0.40 -0.70 0 -0.80 0.25 -1.40 0.50 -1.40 0.30 0 0.50 -0.35 0.50 -0.75 0 -0.40 -0.20 -0.75 -0.45 -0.75 -0.80 0 0.25 -2.75 1.10 -2.90 0.45 -0.10 0.85 0.05 0.85 0.35 0 0.30 0.35 0.55 0.75 0.55 1.80 0 0.30 8.90 -1.80 10.80 -0.60 0.50 -0.95 0.65 -0.95 0.25z"/>
  <path d="M6.60 4.90 c0.15 -1.45 0.55 -2.70 0.85 -2.80 0.30 -0.10 0.55 -0.60 0.55 -1.15 0 -0.75 0.35 -0.95 1.65 -0.95 1.55 0 1.60 0.05 1.55 2 0 1.20 -0.40 2.40 -0.85 2.85 -1.20 1.20 -1.45 0.55 -0.60 -1.50 0.45 -1.15 0.55 -1.90 0.25 -2.10 -0.55 -0.35 -1.50 1.70 -1.50 3.15 0 1.70 -0.65 3.10 -1.35 3.10 -0.65 0 -0.75 -0.50 -0.55 -2.60z"/>
 </g>
 <g fill="#749baa">
  <path d="M0 39.65 c0 -0.25 0.60 -0.80 1.25 -1.30 1.25 -0.90 1.25 -0.90 1.25 0.40 0 1 -0.25 1.25 -1.25 1.25 -0.70 0 -1.25 -0.15 -1.25 -0.35z"/>
  <path d="M3 38.55 c0 -2.20 0.45 -2.95 1.55 -2.70 0.65 0.20 1.05 -0.05 1.35 -0.85 0.35 -0.95 0.45 -1 1.05 -0.30 0.40 0.45 0.45 0.80 0.15 0.80 -0.30 0 -1.15 1 -1.95 2.25 -1.65 2.60 -2.15 2.80 -2.15 0.80z"/>
  <path d="M29.50 39.70 c0 -0.50 5.45 -5.70 5.95 -5.70 1 0 1.10 1 0.20 2.25 -0.50 0.65 -1.40 1.25 -2 1.25 -0.90 0 -1.15 0.30 -1.15 1.25 0 1.05 -0.25 1.25 -1.50 1.25 -0.80 0 -1.50 -0.15 -1.50 -0.30z"/>
  <path d="M9 35.50 c-1.10 -1.10 -1.30 -2 -0.50 -2 0.30 0 0.50 0.35 0.50 0.75 0 0.40 0.35 0.75 0.75 0.75 0.40 0 0.75 0.35 0.75 0.75 0 1 -0.30 0.95 -1.50 -0.25z"/>
  <path d="M30.75 35.75 c0.20 -0.55 0.40 -1.55 0.50 -2.25 0.05 -0.70 0.15 -1.55 0.15 -1.85 0.05 -0.35 0.50 -0.65 1 -0.65 1.45 0 1.10 2.75 -0.60 4.35 -1.15 1.15 -1.35 1.20 -1.05 0.40z"/>
  <path d="M12 31.30 c0 -0.95 1.25 -3.30 1.90 -3.55 0.70 -0.25 0.70 -0.20 -0.05 0.65 -0.45 0.50 -0.85 1.40 -0.85 2 0 0.60 -0.20 1.10 -0.50 1.10 -0.25 0 -0.50 -0.10 -0.50 -0.20z"/>
  <path d="M18.50 30.80 c0 -1.05 -3.45 -1.30 -4 -0.35 -0.40 0.70 -0.45 0.70 -0.50 0 0 -1.55 3.05 -2.85 4 -1.70 0.30 0.35 1.30 0.80 2.25 0.95 2.40 0.45 2.35 1.80 0 1.80 -1.15 0 -1.75 -0.25 -1.75 -0.70z"/>
  <path d="M2.55 29.45 c0 -0.75 0.30 -1.60 0.70 -1.95 0.80 -0.65 1.05 0 0.30 0.80 -0.25 0.25 -0.55 0.90 -0.70 1.45 -0.20 0.80 -0.25 0.70 -0.30 -0.30z"/>
  <path d="M7.45 28.95 c0.60 -0.60 1.25 -0.90 1.45 -0.70 0.20 0.20 -0.10 0.65 -0.60 1.05 -1.50 1.10 -2.15 0.85 -0.85 -0.35z"/>
  <path d="M32.50 28.35 c0 -0.40 0.45 -1.10 1.05 -1.65 1.05 -0.95 1.05 -0.95 0.85 0.55 -0.15 1.50 -1.90 2.55 -1.90 1.10z"/>
  <path d="M5.50 28.05 c0 -0.25 0.25 -0.65 0.50 -0.80 0.90 -0.55 0.50 -1.30 -0.50 -1 -0.95 0.30 -0.95 0.20 -0.40 -1.10 0.90 -2.10 1.40 -2.65 2.45 -2.65 1.15 0 1.25 1.35 0.15 2.90 -0.40 0.60 -0.65 1.30 -0.45 1.60 0.15 0.25 -0.20 0.70 -0.75 1 -0.60 0.35 -1 0.35 -1 0.05z"/>
  <path d="M20 26.50 c0.65 -0.55 1.25 -1 1.40 -1 0.15 0 -0.15 0.45 -0.65 1 -0.50 0.55 -1.15 1 -1.40 1 -0.30 0 0 -0.45 0.65 -1z"/>
  <path d="M2.95 24.40 c-0.05 -0.85 -0.10 -0.95 -0.30 -0.25 -0.45 1.75 -1.65 0.95 -1.65 -1.15 0 -1.10 0.20 -2 0.40 -2 0.65 0 3.10 3.60 2.80 4.10 -0.50 0.80 -1.20 0.40 -1.25 -0.70z"/>
  <path d="M35.80 22.90 c-0.50 -1.90 -0.35 -2.05 0.65 -0.85 0.55 0.65 0.85 1.35 0.70 1.55 -0.40 0.75 -1.05 0.40 -1.35 -0.70z"/>
  <path d="M5.35 21.70 c-0.20 -0.20 -0.35 -0.85 -0.35 -1.40 0.05 -0.95 0.05 -1 0.55 -0.15 0.55 0.95 0.40 2.15 -0.20 1.55z"/>
  <path d="M8.80 21.20 c-0.65 -0.65 -0.75 -0.95 -0.30 -1.10 0.75 -0.25 1.65 0.65 1.40 1.40 -0.15 0.45 -0.45 0.35 -1.10 -0.30z"/>
  <path d="M37.85 20.45 c0.20 -0.60 0 -1.25 -0.35 -1.45 -0.55 -0.35 -0.55 -0.55 -0.05 -1.20 0.50 -0.60 0.55 -0.80 0.05 -0.80 -0.60 0 -0.55 -0.80 0.30 -5.10 0.30 -1.50 1.55 -1.90 2 -0.65 0.15 0.40 -0.05 1.20 -0.50 1.85 -0.55 0.75 -0.80 2.20 -0.80 4.50 0 1.85 -0.20 3.45 -0.45 3.60 -0.25 0.20 -0.35 -0.15 -0.20 -0.75z"/>
  <path d="M13 19.65 c0.05 -1.55 1.85 -3.25 3.25 -3.05 l1.30 0.15 -1.55 1.90 c-1.65 1.95 -3 2.40 -3 1z"/>
  <path d="M21 19.80 c0 -0.20 0.45 -0.80 1 -1.40 0.55 -0.60 1 -0.85 1 -0.55 0 0.25 -0.45 0.90 -1 1.40 -0.55 0.50 -1 0.75 -1 0.55z"/>
  <path d="M4.85 16.65 c-0.65 -0.65 -0.35 -2.50 0.85 -4.95 1.40 -2.75 1.75 -2.35 0.50 0.60 -0.45 1 -0.70 2.50 -0.60 3.30 0.20 1.35 -0.10 1.75 -0.75 1.05z"/>
  <path d="M15 15.60 c0 -0.20 -0.75 -0.30 -1.70 -0.20 -1 0.10 -2.20 -0.15 -2.90 -0.60 -1.25 -0.80 -2.90 -0.65 -2.90 0.25 0 0.25 -0.20 0.45 -0.50 0.45 -0.25 0 -0.15 -0.75 0.25 -1.60 0.70 -1.65 1.40 -1.85 2.75 -0.70 0.40 0.35 1.75 0.65 2.95 0.70 1.20 0.05 2.40 0.35 2.60 0.70 0.30 0.50 0.65 0.50 1.35 0.10 1.40 -0.90 3.95 -1.30 4.30 -0.75 0.50 0.75 -2.35 2.05 -4.45 2.05 -0.95 0 -1.75 -0.20 -1.75 -0.40z"/>
  <path d="M7.40 7 c0.30 -2.10 0.95 -2.30 0.70 -0.20 -0.10 0.95 -0.35 1.70 -0.55 1.70 -0.20 0 -0.30 -0.70 -0.15 -1.50z"/>
  <path d="M9.50 4.50 c0 -0.25 0.25 -0.50 0.50 -0.50 0.30 0 0.55 -0.85 0.55 -1.85 0.05 -1.30 0.15 -1.50 0.30 -0.70 0.30 1.45 -0.20 3.55 -0.85 3.55 -0.30 0 -0.50 -0.20 -0.50 -0.50z"/>
  <path d="M14.15 2.25 c0 -1.10 0.10 -1.50 0.20 -0.85 0.10 0.60 0.10 1.50 0 2 -0.15 0.45 -0.25 -0.05 -0.20 -1.15z"/>
 </g>
 <g fill="#d19b6b">
  <path d="M29 12.05 c0 -0.25 0.55 -1.15 1.30 -1.90 l1.25 -1.40 -0.75 1.60 c-0.80 1.65 -1.80 2.60 -1.80 1.70z"/>
  <path d="M26.65 9.05 c-0.45 -0.70 -0.45 -1.15 0.05 -1.85 0.35 -0.55 1.05 -1.95 1.50 -3.20 0.95 -2.45 2.35 -4 3.55 -4 0.40 0 0.75 0.45 0.75 0.95 0 1.10 -3.10 6.85 -4.40 8.15 -0.80 0.85 -0.90 0.85 -1.45 -0.05z"/>
  <path d="M6.85 8.15 c-1.30 -1.30 0.65 -8.15 2.30 -8.15 0.50 0 0.80 0.20 0.65 0.45 -0.55 0.85 -1.50 3.30 -1.55 4.05 -0.05 0.40 -0.15 1.50 -0.20 2.40 -0.05 1.55 -0.50 2 -1.20 1.25z"/>
  <path d="M31 8.05 c0 -0.85 0.60 -2.05 1 -2.05 0.50 0 0.05 1.90 -0.55 2.30 -0.25 0.15 -0.45 0.05 -0.45 -0.25z"/>
  <path d="M9.50 4.55 c0 -0.30 0.25 -0.65 0.50 -0.80 0.30 -0.15 0.55 -1.15 0.55 -2.15 0.10 -1.60 0.15 -1.65 0.30 -0.40 0.30 1.75 -0.20 3.80 -0.85 3.80 -0.30 0 -0.50 -0.20 -0.50 -0.45z"/>
 </g>
 <g fill="#80acb1">
  <path d="M2 38.90 c0 -0.65 0.35 -1.60 0.75 -2.10 0.80 -1.10 3.80 -1.45 3.40 -0.40 -0.15 0.30 -0.45 0.60 -0.65 0.60 -0.20 0 -0.65 0.70 -1 1.50 -0.75 1.85 -2.50 2.10 -2.50 0.40z"/>
  <path d="M29.50 39.75 c0 -0.50 4 -4.25 4.55 -4.25 0.30 0 0.90 -0.40 1.25 -0.85 1.30 -1.75 0.80 0.65 -0.65 3.10 -1.25 2.05 -1.60 2.25 -3.25 2.25 -1.05 0 -1.90 -0.10 -1.90 -0.25z"/>
  <path d="M31.15 35.40 c0.60 -0.95 0.75 -1.95 0.55 -3.50 -0.20 -1.65 0 -2.55 0.80 -3.85 0.95 -1.45 1.15 -1.60 1.55 -0.95 0.30 0.55 0.20 1.65 -0.35 3.15 -0.40 1.30 -0.65 2.65 -0.50 3 0.10 0.35 -0.50 1.30 -1.35 2.05 l-1.55 1.45 0.85 -1.35z"/>
  <path d="M7.40 29 c1.25 -1.20 1.60 -1.25 1.60 -0.30 0 0.40 -0.35 0.85 -0.80 1 -1.55 0.60 -1.90 0.30 -0.80 -0.70z"/>
  <path d="M2.50 28.65 c0 -0.55 0.35 -1.15 0.75 -1.35 0.95 -0.35 0.95 0.15 0 1.40 -0.75 0.95 -0.75 0.95 -0.75 -0.05z"/>
  <path d="M5.25 25.55 c-0.15 -0.30 0 -0.65 0.35 -0.90 0.35 -0.20 0.65 -0.75 0.65 -1.15 0 -0.90 1.85 -1 2.10 -0.15 0.20 0.55 -1.70 2.65 -2.40 2.65 -0.20 0 -0.50 -0.20 -0.70 -0.45z"/>
  <path d="M8.50 21.25 c-1.15 -0.60 -1.15 -0.70 -0.35 -1.05 1 -0.35 2.10 0.40 1.80 1.20 -0.15 0.35 -0.65 0.30 -1.45 -0.15z"/>
  <path d="M18.90 21.15 c-1.70 -0.45 -1 -1.65 0.85 -1.65 1.65 0 1.75 0.10 1.25 1 -0.55 1 -0.60 1.05 -2.10 0.65z"/>
  <path d="M14.75 19 c0.15 -0.25 -0.05 -0.50 -0.50 -0.50 -0.75 0 -0.75 -0.10 -0.05 -1.10 1.25 -1.75 1 -2.20 -0.95 -2 -1.10 0.15 -2.25 -0.10 -3.05 -0.65 -1.15 -0.75 -1.35 -0.75 -2.15 -0.05 -1.35 1.25 -1.65 0.95 -0.80 -0.70 0.90 -1.70 1.15 -1.80 2.55 -0.75 0.50 0.40 1.85 0.75 3 0.75 1.10 0 2.25 0.25 2.55 0.55 0.40 0.40 1.20 0.35 2.95 -0.25 3.15 -1.05 4.05 -0.25 1.25 1.15 -1.10 0.60 -2.50 1.75 -3.15 2.55 -1 1.35 -2.40 2.20 -1.65 1z"/>
  <path d="M5.15 15.25 c0 -1.10 0.10 -1.50 0.20 -0.85 0.10 0.60 0.10 1.50 0 2 -0.15 0.45 -0.25 -0.05 -0.20 -1.15z"/>
  <path d="M37.35 16.65 c-0.15 -0.25 -0.05 -1.40 0.15 -2.65 0.25 -1.25 0.45 -2.40 0.50 -2.60 0 -0.60 2 -0.45 2 0.15 0 0.30 -0.35 0.85 -0.75 1.25 -0.40 0.45 -0.75 1.40 -0.75 2.20 0 1.40 -0.70 2.40 -1.15 1.65z"/>
  <path d="M38.40 9.25 c0.10 -0.70 0.55 -1.25 0.90 -1.25 0.40 0 0.70 0.50 0.70 1.25 0 0.90 -0.25 1.25 -0.95 1.25 -0.70 0 -0.85 -0.30 -0.65 -1.25z"/>
  <path d="M16.20 1.20 c0.15 -0.45 0.30 -0.90 0.30 -1 0 -0.10 0.45 -0.20 1 -0.20 1.15 0 1.30 0.50 0.40 1.40 -0.90 0.90 -2.05 0.75 -1.70 -0.20z"/>
 </g>
 <g fill="#fb907e">
  <path d="M26.50 8.25 c0 -0.75 1.55 -3.25 2.05 -3.25 0.30 0 0.45 0.75 0.35 1.65 -0.10 1.20 -0.40 1.65 -1.25 1.75 -0.65 0.10 -1.15 0.05 -1.15 -0.15z"/>
  <path d="M15.25 7.50 c-0.20 -0.30 -0.10 -0.80 0.15 -1.15 0.30 -0.35 0.60 -1.70 0.70 -3.05 0.10 -1.65 0.45 -2.65 1 -3 1.05 -0.65 1.75 -0.10 1.05 0.80 -0.30 0.35 -0.65 1.50 -0.85 2.50 -0.45 2.45 -1.60 4.65 -2.05 3.90z"/>
  <path d="M14 2.30 c0 -0.95 0.25 -1.90 0.50 -2.05 0.30 -0.20 0.50 0.40 0.50 1.45 0 0.95 -0.20 1.90 -0.50 2.05 -0.30 0.20 -0.50 -0.40 -0.50 -1.45z"/>
 </g>
 <g fill="#84cdc1">
  <path d="M1 39.45 c0 -0.30 0.65 -1.30 1.45 -2.25 1.40 -1.60 1.50 -1.60 1.80 -0.65 0.50 1.55 -0.70 3.45 -2.10 3.45 -0.65 0 -1.15 -0.25 -1.15 -0.55z"/>
  <path d="M30.80 38.75 c0.80 -1.20 2.70 -1.75 2.70 -0.80 0 1.35 -0.75 2.05 -2.05 2.05 -1.45 0 -1.45 0 -0.65 -1.25z"/>
  <path d="M32.15 30.45 c-0.45 -0.45 -0.40 -0.95 0.15 -2 1 -2 1.80 -1.80 1.60 0.40 -0.15 1.95 -0.80 2.55 -1.75 1.60z"/>
  <path d="M7.60 29.05 c0.65 -1.10 1.40 -1.40 1.40 -0.55 0 0.25 -0.45 0.70 -1 1 -0.95 0.50 -1 0.50 -0.40 -0.45z"/>
  <path d="M2.50 28.90 c0 -0.40 0.35 -1.05 0.75 -1.40 0.95 -0.80 0.95 -0.05 0 1.20 -0.60 0.80 -0.75 0.85 -0.75 0.20z"/>
  <path d="M6.80 24.15 c-0.60 -0.60 -0.25 -1.15 0.70 -1.15 0.55 0 1 0.20 1 0.45 0 0.55 -1.30 1.10 -1.70 0.70z"/>
  <path d="M8.25 20.95 c-0.20 -0.30 -0.20 -0.65 -0.05 -0.80 0.40 -0.40 1.80 0.25 1.80 0.85 0 0.65 -1.35 0.65 -1.75 -0.05z"/>
  <path d="M16.85 20.40 c0.50 -0.55 1.50 -0.90 2.75 -0.90 1.65 0 1.90 0.15 1.50 0.80 -0.30 0.55 -1.25 0.85 -2.75 0.90 -2.20 0.10 -2.25 0.05 -1.50 -0.80z"/>
  <path d="M14.65 18.15 c-0.50 -0.15 -0.45 -0.50 0.10 -1.35 0.90 -1.35 2.80 -2.30 4.65 -2.30 l1.35 0 -1.50 0.95 c-0.80 0.50 -1.95 1.40 -2.45 2 -1 1.10 -1.15 1.15 -2.15 0.70z"/>
  <path d="M12.25 15.15 c-0.55 -0.10 -1.50 -0.45 -2.15 -0.80 -0.90 -0.40 -1.40 -0.40 -2.25 0.10 l-1.10 0.65 1.05 -1.10 c1 -1.05 1.15 -1.05 2.30 -0.30 0.70 0.45 1.65 0.70 2.10 0.50 0.45 -0.15 0.80 -0.05 0.80 0.25 0 0.30 0.35 0.40 0.75 0.25 0.40 -0.20 0.75 -0.20 0.75 -0.05 0 0.40 -1.20 0.70 -2.25 0.50z"/>
  <path d="M38 12.30 c0 -2 0.75 -3.80 1.50 -3.80 0.90 0 0.50 3.05 -0.50 4.35 l-1 1.30 0 -1.85z"/>
  <path d="M14 1.50 c0 -0.95 0.15 -1.05 0.60 -0.60 0.45 0.45 0.45 0.75 0 1.20 -0.45 0.45 -0.60 0.35 -0.60 -0.60z"/>
  <path d="M16 1.90 c0 -0.90 1.35 -2.20 1.85 -1.70 0.20 0.20 -0.15 0.80 -0.75 1.45 -0.90 0.85 -1.10 0.90 -1.10 0.25z"/>
 </g>
 <g fill="#a8b9c4">
  <path d="M3.85 34.25 c-0.55 -0.40 -0.85 -1.10 -0.75 -1.85 0.15 -1.10 0.25 -1.05 1.10 0.50 1 1.95 0.90 2.30 -0.35 1.35z"/>
  <path d="M19 32.40 c0 -1 -1.50 -1.90 -3.20 -1.90 -1.90 0 -2.20 -0.40 -1.20 -1.40 0.85 -0.85 2.45 -0.75 4.40 0.20 1.35 0.70 1.95 0.75 3.25 0.25 2.20 -0.80 2.75 -0.70 2.75 0.45 0 0.65 -0.35 1 -1 1 -0.55 0 -1 0.20 -1 0.45 0 0.25 -0.90 0.65 -2 0.95 -1.25 0.30 -2 0.30 -2 0z"/>
  <path d="M26.50 28.65 c0 -0.65 1.45 -1.90 1.75 -1.55 0.15 0.15 -0.20 0.65 -0.75 1.15 -0.55 0.50 -1 0.65 -1 0.40z"/>
  <path d="M1.95 26.35 c-1.15 -0.85 -1.75 -3.85 -0.90 -4.40 1.20 -0.75 1.45 -0.50 1.50 1.45 0.05 1.60 0.10 1.70 0.40 0.60 l0.35 -1.25 0.60 1.10 c0.50 0.90 0.45 1.20 -0.05 1.50 -0.40 0.20 -0.80 0.65 -0.90 1 -0.15 0.45 -0.40 0.45 -1 0z"/>
  <path d="M4.80 16 c-0.35 -1.30 1.40 -6.45 2 -5.85 0.15 0.15 0 0.80 -0.35 1.45 -0.35 0.60 -0.80 2.15 -0.95 3.40 -0.30 2 -0.35 2.10 -0.70 1z"/>
 </g>
 <g fill="#63f9e9">
  <path d="M17.15 20.15 c0.90 -0.90 5.85 -2.75 5.85 -2.20 0 0.15 -0.60 0.90 -1.25 1.70 -0.95 1.05 -1.65 1.35 -3.35 1.35 -2 0 -2.05 -0.05 -1.25 -0.85z"/>
  <path d="M6 18.45 c0 -0.55 0.25 -0.85 0.50 -0.70 0.30 0.15 0.50 0.65 0.50 1.05 0 0.40 -0.20 0.70 -0.50 0.70 -0.25 0 -0.50 -0.45 -0.50 -1.05z"/>
 </g>
 <g fill="#f4ca93">
  <path d="M26.70 8.80 c-0.15 -0.45 -0.10 -1.10 0.15 -1.45 0.30 -0.30 1.05 -2.10 1.70 -3.95 1 -2.85 1.40 -3.40 2.30 -3.40 0.90 0 1.15 0.30 1.15 1.25 0 1.60 -2.15 5.75 -3.75 7.25 -1.10 1 -1.25 1.05 -1.55 0.30z"/>
  <path d="M6.80 7.70 c-0.85 -2.20 0.65 -7.70 2.10 -7.70 0.70 0 0.40 1.80 -0.45 2.70 -0.25 0.30 -0.45 1.70 -0.45 3.15 0 2.55 -0.60 3.45 -1.20 1.85z"/>
  <path d="M16.10 3.60 c-0.05 -1.40 0.20 -2.45 0.65 -2.95 1.05 -1.05 1.60 -0.40 0.60 0.70 -0.40 0.50 -0.85 1.70 -1 2.65 -0.20 1.65 -0.20 1.60 -0.25 -0.40z"/>
  <path d="M14 2.15 c0 -0.65 0.25 -1.15 0.50 -1.15 0.65 0 0.65 0.55 0 1.50 -0.40 0.60 -0.50 0.55 -0.50 -0.35z"/>
 </g>
 <g fill="#9bf1e0">
  <path d="M2.05 37.70 c0.65 -0.70 1.25 -1 1.35 -0.70 0.25 0.75 -0.85 2 -1.80 2 -0.60 0 -0.50 -0.30 0.45 -1.30z"/>
  <path d="M8.50 21 c-0.40 -0.25 -0.55 -0.60 -0.35 -0.80 0.20 -0.20 0.75 0 1.20 0.45 0.90 0.90 0.40 1.15 -0.85 0.35z"/>
  <path d="M14.60 17.40 c0.30 -0.80 3.35 -2.60 3.75 -2.20 0.50 0.50 -1.95 2.80 -3 2.80 -0.50 0 -0.85 -0.25 -0.75 -0.60z"/>
 </g>
 <g fill="#ccd5da">
  <path d="M9.35 35.80 c-1.40 -1.30 -1.80 -3.30 -0.70 -3.30 0.65 0 2.65 3.85 2.25 4.30 -0.15 0.10 -0.85 -0.35 -1.55 -1z"/>
  <path d="M3.80 34.05 c-0.50 -0.55 -0.80 -1.40 -0.70 -1.90 0.15 -0.70 0.35 -0.50 1.05 0.80 1 2 0.85 2.45 -0.35 1.10z"/>
  <path d="M17.30 32.50 c-1.75 -0.35 -3.30 -1.55 -3.30 -2.60 0 -0.20 0.45 -0.60 0.95 -0.90 1.40 -0.75 6.05 0.85 6.05 2.05 0 1.30 -1.40 1.85 -3.70 1.45z"/>
  <path d="M22 30.75 c0 -0.70 0.30 -1.25 0.65 -1.25 0.40 0 1.75 -0.55 3 -1.20 1.30 -0.65 2.35 -1 2.35 -0.85 0 0.85 -4.65 4.55 -5.70 4.55 -0.15 0 -0.30 -0.55 -0.30 -1.25z"/>
  <path d="M1.45 25.70 c-1.40 -1.70 -0.55 -7.70 1.15 -7.70 0.25 0 0.20 0.45 -0.10 1 -0.50 0.90 -0.45 2.05 0.30 6.15 0.30 1.50 -0.35 1.75 -1.35 0.55z"/>
 </g>
 <g fill="#fdf5b8">
  <path d="M26.80 8.55 c-0.15 -0.25 0.50 -1.30 1.45 -2.35 0.95 -1.10 1.75 -2.25 1.75 -2.55 0 -0.35 0.35 -0.65 0.75 -0.65 0.65 0 0.60 0.25 -0.15 1.65 -2.15 3.95 -3.15 4.95 -3.80 3.90z"/>
  <path d="M6.85 7.15 c-0.95 -0.90 0.80 -7.15 2 -7.15 0.55 0 0.50 0.35 -0.10 1.80 -0.40 1 -0.75 2.40 -0.75 3.15 0 1.50 -0.65 2.75 -1.15 2.20z"/>
  <path d="M16 1.70 c0 -0.35 1.35 -1.70 1.75 -1.70 0.15 0 0.05 0.45 -0.25 1 -0.50 0.90 -1.50 1.40 -1.50 0.70z"/>
 </g>
 <g fill="#f7f7f2">
  <path d="M9.35 35.60 c-1.30 -1.35 -1.80 -3.10 -0.90 -3.10 0.55 0 2.65 3.45 2.45 4.10 -0.10 0.25 -0.80 -0.20 -1.55 -1z"/>
  <path d="M3.50 33.75 c-0.30 -0.40 -0.50 -1.05 -0.40 -1.45 0.10 -0.55 0.40 -0.35 1 0.70 0.90 1.55 0.50 2.05 -0.60 0.75z"/>
  <path d="M15.50 31.90 c-0.70 -0.40 -1.25 -1.10 -1.25 -1.65 0 -0.80 0.30 -1 1.50 -0.90 5.55 0.50 7.60 0.30 10 -0.75 l2.50 -1.10 -1.75 1.60 c-1 0.90 -2.30 1.95 -2.90 2.30 -1.70 0.95 -6.65 1.25 -8.10 0.50z"/>
  <path d="M1.85 25.95 c-0.65 -0.40 -0.85 -1.15 -0.85 -3.35 0 -1.55 0.35 -3.25 0.70 -3.70 0.55 -0.75 0.60 -0.55 0.40 1.55 -0.10 1.40 0.05 3.20 0.35 4.10 0.65 1.90 0.60 2.05 -0.60 1.40z"/>
  <path d="M27 8.30 c0 -0.75 0.90 -1.55 1.30 -1.15 0.35 0.35 -0.35 1.85 -0.85 1.85 -0.25 0 -0.45 -0.30 -0.45 -0.70z"/>
 </g>
</svg>