<?xml version="1.0" encoding="utf-8"?>
<!DOCTYPE svg PUBLIC "-//W3C//DTD SVG 1.0//EN" "http://www.w3.org/TR/2001/REC-SVG-20010904/DTD/svg10.dtd">
<svg version="1.0" xmlns="http://www.w3.org/2000/svg" width="40px" height="40px" viewBox="0 0 40 40" preserveAspectRatio="xMidYMid meet">
 <g fill="#090609">
  <path d="M19.80 37.90 c-0.15 -1.20 -0.20 -3.60 0 -5.35 0.20 -2.35 0.05 -3.60 -0.55 -4.90 -0.45 -0.95 -0.75 -2.30 -0.60 -3 0.25 -1.45 -0.85 -2.10 -2.20 -1.25 -0.50 0.35 -1.80 0.60 -2.80 0.60 -1.05 0 -2.90 0.25 -4.15 0.55 -2 0.45 -2.35 0.40 -3.10 -0.50 -0.45 -0.60 -1.10 -1.05 -1.40 -1.05 -0.80 0 -2.45 -2.05 -2.50 -3.05 0 -0.45 -0.35 -1.10 -0.75 -1.45 -0.40 -0.35 -0.75 -0.90 -0.75 -1.20 0 -0.80 2.15 -3.10 2.35 -2.50 0.10 0.25 1.05 0.40 2.15 0.30 l1.95 -0.20 0.15 2.95 c0.15 3.25 -0.45 3 5.25 2.35 1.80 -0.20 2.90 -0.10 3.40 0.30 0.65 0.55 0.75 0.40 0.75 -0.90 0 -0.85 0.55 -2.65 1.25 -4 0.70 -1.40 1.25 -2.65 1.25 -2.80 0 -0.15 -1.10 -0.30 -2.50 -0.30 l-2.50 0 0 -2.75 0 -2.75 1.95 0 c1.10 0 2.15 0.25 2.30 0.50 0.55 0.90 1.25 0.50 1.25 -0.75 0 -1.10 0.20 -1.25 1.75 -1.25 1.20 0 1.75 -0.25 1.75 -0.75 0 -1.05 -5.05 -1 -7.30 0.05 -2.15 1.05 -5.20 4.15 -5.20 5.35 0 0.45 -0.30 1 -0.70 1.15 -0.40 0.15 -0.80 0.70 -0.95 1.25 -0.20 0.70 -0.70 0.95 -2.15 0.95 l-1.90 0 1.50 -1.55 c0.95 -1 1.40 -1.90 1.30 -2.70 -0.20 -1.55 1.10 -3.55 2.80 -4.20 0.75 -0.30 2.10 -0.95 3 -1.50 0.90 -0.50 3.05 -1.10 4.80 -1.30 2.65 -0.25 3.55 -0.15 5.15 0.70 1.10 0.55 2.25 1.35 2.60 1.75 0.60 0.70 0.45 0.80 -0.95 0.80 -1.35 0 -1.55 0.15 -1.25 0.90 0.95 2.20 0.85 5.70 -0.20 8.85 -1.05 3.05 -1.05 3.30 -0.25 4.50 2 3.05 3.70 2.45 5.60 -1.90 1.55 -3.45 1.85 -5.35 0.90 -5.35 -0.60 0 -0.80 -0.50 -0.80 -1.80 0 -1.55 0.10 -1.75 0.75 -1.20 0.40 0.35 1.45 2.10 2.30 3.95 2.10 4.40 3.55 6.25 5.65 7.25 1.45 0.70 1.80 1.10 1.80 2.30 l0 1.50 -3.30 0 -3.30 0 0.20 -2 c0.10 -1.10 0 -2 -0.15 -2 -0.20 0 -0.90 0.95 -1.55 2.10 -0.65 1.15 -1.70 2.40 -2.40 2.75 -1.70 0.85 -5.60 0.80 -6.80 -0.10 -1.40 -1.05 -1.70 -0.90 -1.70 0.75 0 0.85 0.25 1.50 0.55 1.50 0.35 0 0.50 1.60 0.45 4.65 -0.05 2.50 0.05 5.35 0.25 6.25 0.35 1.45 0.25 1.60 -0.90 1.60 -1.05 0 -1.30 -0.25 -1.55 -2.10z"/>
  <path d="M35.50 39.05 c0 -0.55 0.40 -1.80 0.85 -2.80 0.65 -1.40 1.10 -1.75 2.25 -1.75 1.45 0 1.45 0.05 1.30 2.65 l-0.15 2.60 -2.10 0.15 c-1.90 0.15 -2.15 0.05 -2.15 -0.85z"/>
  <path d="M30.60 36.65 l0.15 -2.90 2.15 -0.15 2.10 -0.15 0 1.75 c0 2.95 -0.90 4.30 -2.85 4.30 l-1.70 0 0.15 -2.85z"/>
  <path d="M33.50 30.80 l0 -2.30 2.05 0 2 0 -0.15 2.15 c-0.15 2.05 -0.20 2.10 -2 2.25 l-1.90 0.15 0 -2.25z"/>
 </g>
 <g fill="#1a1418">
  <path d="M30.50 38.65 c0 -1.40 0.65 -3.70 1.95 -6.75 0.85 -1.95 2.55 -2.65 2.55 -1 0.05 0.80 0.05 0.80 0.70 0 1 -1.30 1.30 -1.10 1.30 0.85 0 0.95 -0.20 1.75 -0.50 1.75 -0.25 0 -0.50 0.45 -0.50 0.95 0 0.55 -0.35 1.30 -0.75 1.75 -0.40 0.40 -0.75 1.40 -0.75 2.25 0 1.45 -0.10 1.55 -2 1.55 -1.85 0 -2 -0.10 -2 -1.35z m2.80 -3.50 c-0.55 -0.55 -1.30 0.50 -1.30 1.75 l0.05 1.35 0.75 -1.40 c0.45 -0.80 0.65 -1.55 0.50 -1.70z"/>
  <path d="M35.50 38.50 c0 -0.80 0.25 -1.50 0.50 -1.50 0.30 0 0.50 -0.35 0.50 -0.75 0 -1.60 1.15 -3.25 2.35 -3.25 1.05 0 1.15 0.20 1.15 2.75 0 1.50 -0.20 2.75 -0.50 2.75 -0.25 0 -0.50 0.35 -0.50 0.75 0 0.50 -0.55 0.75 -1.75 0.75 -1.60 0 -1.75 -0.10 -1.75 -1.50z m2.75 -0.55 c0.45 -0.85 0.75 -1.65 0.65 -1.75 -0.15 -0.10 -0.60 0.60 -1.05 1.55 -1.05 2.15 -0.65 2.35 0.40 0.20z"/>
  <path d="M19.85 36.50 c-0.15 -0.55 -0.10 -1.70 0.10 -2.60 0.50 -2.35 0.30 -4.35 -0.65 -6.50 -0.90 -2.10 -1.10 -3.65 -0.30 -2.40 0.60 0.95 0.65 0.40 0.05 -1.20 -0.40 -0.95 -0.75 -1.15 -1.65 -0.95 -0.65 0.20 -1.30 0.55 -1.45 0.80 -0.40 0.60 -2.95 0.05 -2.95 -0.60 0 -0.30 0.50 -0.60 1.15 -0.70 l1.10 -0.20 -1.10 -0.40 c-1.80 -0.60 -1.35 -1.65 0.85 -2 1.70 -0.30 2 -0.55 2 -1.55 0 -0.65 0.25 -1.20 0.50 -1.20 0.30 0 0.50 -0.35 0.50 -0.75 0 -0.40 0.35 -0.75 0.75 -0.75 0.50 0 0.75 -0.50 0.75 -1.35 0 -2.15 0.55 -3.65 1.30 -3.65 0.40 0 0.70 -0.20 0.70 -0.50 0 -0.25 -0.35 -0.50 -0.75 -0.50 -0.50 0 -0.75 -0.55 -0.75 -1.75 0 -1.75 0 -1.75 2.25 -1.75 1.95 0 2.25 0.15 2.55 1.25 0.50 1.95 0 7.75 -0.70 8.20 -0.80 0.50 -0.95 4.20 -0.20 4.45 0.35 0.10 0.60 0.60 0.60 1.15 0 0.60 0.35 0.95 1 0.95 1.05 0 3 -1.65 3 -2.50 0 -0.25 0.20 -0.50 0.45 -0.50 0.45 0 0.85 -1.55 1.40 -5.10 0.20 -1.45 0.10 -1.90 -0.45 -1.90 -0.85 0 -2.90 -2.05 -2.90 -2.90 0 -0.35 -0.20 -0.60 -0.50 -0.60 -0.25 0 -0.50 -0.80 -0.50 -1.75 0 -0.95 0.25 -1.75 0.50 -1.75 0.30 0 0.50 0.20 0.50 0.40 0 0.20 1.10 1.70 2.50 3.30 1.35 1.65 2.60 3.60 2.75 4.35 0.20 0.80 0.55 1.55 0.80 1.70 0.25 0.20 0.90 1.25 1.40 2.40 l1 2.10 -1.25 0.15 c-0.70 0.10 -1.20 0.50 -1.20 0.95 0 0.45 -0.40 1.15 -0.90 1.60 -0.50 0.45 -1.05 1.20 -1.25 1.70 -0.15 0.45 -0.65 0.85 -1.10 0.85 -0.40 0 -0.75 0.35 -0.75 0.75 0 0.80 -1.35 0.95 -3.95 0.45 -1.05 -0.25 -1.55 -0.60 -1.55 -1.25 0 -0.65 -0.35 -0.95 -1.20 -0.95 -1.20 0 -1.20 0 -0.45 1.95 0.65 1.70 0.70 2.65 0.15 7 -0.40 3.45 -0.80 5.05 -1.25 5.05 -0.35 0 -0.75 -0.45 -0.90 -1z m9 -13.10 c0.40 -0.30 0.95 -1.05 1.20 -1.60 0.50 -1.05 0.50 -1.05 -0.40 0 -1.05 1.25 -2.75 2.20 -3.85 2.20 -0.45 0 -1.70 -0.95 -2.80 -2.05 -1.10 -1.15 -2 -1.95 -2 -1.80 0 1.90 3.60 4.50 5.70 4.10 0.80 -0.15 1.75 -0.50 2.15 -0.85z m-8.30 -5.40 c0.50 -0.35 2.20 -4.30 2.65 -6.20 0.35 -1.35 -0.45 -4.80 -1.10 -4.80 -0.20 0 -0.35 1.40 -0.35 3.15 0 2.50 -0.35 3.70 -1.65 6.30 -1.70 3.40 -2.15 5.05 -0.75 3.05 0.45 -0.70 1 -1.35 1.20 -1.50z m11.75 -1.10 l0.25 -1.65 -0.70 1.75 c-1.55 3.80 -1.55 3.85 -0.65 2.65 0.45 -0.60 0.95 -1.85 1.10 -2.75z"/>
  <path d="M6.50 24.25 c-0.35 -0.40 -0.55 -0.75 -0.45 -0.75 4.20 -0.35 6.45 -0.35 6.45 -0.05 0 0.25 -0.85 0.60 -1.85 0.75 -1.05 0.20 -2.25 0.45 -2.70 0.60 -0.45 0.10 -1.10 -0.10 -1.45 -0.55z"/>
  <path d="M33.50 22.30 c0 -1.10 0.30 -1.80 0.80 -2 1.25 -0.45 1.70 -0.35 1.70 0.40 0 0.40 0.70 1.15 1.50 1.65 0.85 0.45 1.50 1.05 1.50 1.25 0 0.20 -1.25 0.40 -2.75 0.40 l-2.75 0 0 -1.70z"/>
  <path d="M3.60 21.85 c-0.60 -0.65 -1.10 -1.45 -1.10 -1.85 0 -0.35 -0.35 -1.05 -0.80 -1.55 -0.75 -0.85 -0.75 -0.95 0 -1.75 0.65 -0.60 1 -0.70 1.45 -0.25 0.40 0.40 0.35 0.55 -0.30 0.55 -0.45 0 -0.85 0.20 -0.85 0.40 0 0.90 1.30 1.60 3.10 1.60 1.55 0 1.90 0.15 1.90 1 0 0.95 0.20 1 2.75 0.70 2.30 -0.30 2.75 -0.20 2.75 0.45 0 0.50 -0.85 0.95 -2.60 1.35 l-2.60 0.65 -1.40 -1.65 c-0.80 -0.85 -1.55 -1.50 -1.70 -1.35 -0.10 0.10 0.10 0.50 0.55 0.85 0.80 0.65 1.05 2 0.35 2 -0.25 0 -0.90 -0.50 -1.50 -1.15z"/>
  <path d="M37.50 21.25 c-0.70 -0.80 -0.50 -0.90 0.70 -0.45 0.45 0.15 0.80 0.50 0.80 0.75 0 0.70 -0.80 0.55 -1.50 -0.30z"/>
  <path d="M15 13.25 c0 -1.70 0.05 -1.75 2 -1.75 1.95 0 2 0.05 2 1.75 0 1.70 -0.05 1.75 -2 1.75 -1.95 0 -2 -0.05 -2 -1.75z"/>
  <path d="M18.05 9.65 c-1.50 -1.40 -2.25 -1.45 -1.90 -0.15 0.20 0.80 0 1 -0.95 1 -1.05 0 -1.20 -0.25 -1.20 -1.80 l0 -1.85 2.55 0.30 c1.45 0.20 2.70 0.40 2.80 0.55 0.10 0.10 0.15 0.85 0.05 1.65 l-0.15 1.40 -1.20 -1.10z"/>
  <path d="M8.90 9.90 c0.45 -0.45 0.35 -0.70 -0.25 -1.15 -0.70 -0.50 -0.60 -0.80 0.75 -2.30 0.85 -0.95 1.60 -1.45 1.60 -1.15 0 0.35 -0.35 0.70 -0.75 0.90 -0.40 0.15 -0.75 0.55 -0.75 0.90 0 0.35 0.85 -0.25 1.90 -1.30 l1.85 -1.95 0.15 1.35 c0.25 2 -2.15 5.30 -3.80 5.30 -1 0 -1.15 -0.15 -0.70 -0.60z"/>
  <path d="M19.90 4.15 c-2.40 -0.25 -2.55 -1.50 -0.25 -1.90 1.80 -0.35 5.35 0.80 5.35 1.70 0 0.55 -1.35 0.60 -5.10 0.20z"/>
 </g>
 <g fill="#390d04">
  <path d="M31 38.50 c0 -2.10 1.40 -7.15 2.15 -7.75 0.40 -0.35 0.60 -2 0.60 -5 0 -4.30 0.05 -4.50 1.15 -4.65 0.60 -0.10 1.10 0.05 1.10 0.35 0 0.30 -0.20 0.55 -0.50 0.55 -0.25 0 -0.50 0.25 -0.50 0.55 0 0.40 0.20 0.40 0.75 -0.05 1.10 -0.90 1.75 -0.15 1.65 1.90 -0.05 1 -0.05 3.25 0 5 0.10 2.95 0.15 3.10 1.35 3.10 1.15 0 1.25 0.15 1.25 2.40 0 3.30 -0.45 4.60 -1.55 4.60 -0.90 0 -0.95 -0.10 -0.20 -1.50 0.40 -0.80 0.75 -1.75 0.75 -2.10 -0.05 -0.35 -0.50 0.25 -1 1.30 -1.15 2.30 -1.75 2.80 -3.60 2.80 -1.85 0 -2.20 -1.45 -0.95 -4.30 1.35 -3 1.30 -3.10 -0.25 -1.20 -1.10 1.25 -1.30 1.90 -1.05 3.50 0.20 1.50 0.10 2 -0.45 2 -0.45 0 -0.70 -0.55 -0.70 -1.50z m5.15 -2.10 c0.45 -1.55 0.10 -1.65 -0.55 -0.15 -0.30 0.70 -0.40 1.25 -0.15 1.25 0.25 0 0.55 -0.50 0.70 -1.10z m-0.45 -5.20 c0.40 -1.05 0.40 -1.20 -0.15 -1.20 -0.25 0 -0.55 0.45 -0.70 1 -0.30 1.20 0.40 1.35 0.85 0.20z"/>
  <path d="M25 25 c0 -0.25 -0.65 -0.50 -1.50 -0.50 -0.95 0 -1.65 -0.35 -2 -1 -0.65 -1.20 -2 -1.30 -2 -0.15 0 0.75 -0.05 0.75 -0.65 -0.05 -0.50 -0.70 -0.90 -0.75 -2 -0.35 -1.30 0.50 -1.35 0.45 -1.35 -1.20 0 -0.95 0.25 -1.75 0.50 -1.75 0.30 0 0.50 -0.45 0.50 -1 0 -0.55 0.25 -1 0.50 -1 0.30 0 0.50 -0.45 0.50 -1 0 -0.55 0.20 -1 0.45 -1 0.25 0 0.55 -0.50 0.70 -1.10 0.10 -0.65 0.40 -1.55 0.60 -2 0.25 -0.65 0.15 -0.90 -0.45 -0.90 -0.45 0 -0.80 0.25 -0.80 0.50 0 0.30 -0.80 0.50 -1.75 0.50 -0.95 0 -1.75 -0.20 -1.75 -0.50 0 -0.25 -0.55 -0.50 -1.25 -0.50 -1 0 -1.25 -0.25 -1.30 -1.35 0 -0.80 -0.15 -1.10 -0.30 -0.75 -0.10 0.30 -0.90 0.60 -1.65 0.60 l-1.45 0 1.05 -1.80 c1.30 -2.20 4.10 -5.20 4.85 -5.20 0.30 0 0.55 0.40 0.55 0.90 0 0.45 0.65 1.15 1.50 1.50 0.90 0.40 1.50 1.05 1.50 1.65 0 0.50 0.35 0.95 0.75 0.95 0.50 0 0.75 -0.55 0.75 -1.75 0 -1.70 0.05 -1.75 2 -1.75 1.95 0 2 0.05 2 1.75 0 1.45 0.20 1.75 1.05 1.75 1 0 1.05 0.15 0.75 3.15 -0.20 1.70 -0.55 3.15 -0.75 3.25 -0.50 0.15 -0.05 3.60 0.50 3.60 0.25 0 0.45 0.85 0.45 1.85 l0 1.80 1.20 -1.10 c0.65 -0.60 1.60 -2 2.10 -3.05 0.70 -1.45 1.25 -2 2.10 -2 0.60 0 1.10 0.15 1.10 0.40 -0.05 1.15 -2.95 5.95 -4.10 6.80 -1.20 0.85 -1.50 0.85 -2.90 0.30 -0.90 -0.40 -2.05 -1.50 -2.80 -2.85 -1.40 -2.35 -1.40 -2.40 0.60 -7 0.85 -1.85 0.90 -4.35 0.20 -5.70 -0.90 -1.60 -1.25 -1.05 -1.25 1.95 0 2.25 -0.35 3.60 -1.60 6.15 -1.80 3.65 -2.15 5.40 -0.75 3.55 l0.90 -1.15 0.65 1.80 c0.70 1.95 3.60 4.25 5.35 4.25 1.65 0 3.35 -1.65 4.95 -4.80 1.05 -2 1.55 -2.65 1.65 -2 0.30 1.50 -1.35 5.20 -2.95 6.55 -1.55 1.25 -4.95 1.80 -4.95 0.75z m-6 -14.45 c0 -0.65 -2 -2.05 -2.90 -2.05 -0.45 0 -0.50 0.25 -0.15 0.95 0.30 0.50 0.35 1.05 0.20 1.25 -0.15 0.15 0.40 0.30 1.25 0.30 0.90 0 1.60 -0.20 1.60 -0.45z"/>
  <path d="M26.50 7.75 c0 -2.20 0.45 -2.20 1.90 0 l1.10 1.75 -1.50 0 c-1.40 0 -1.50 -0.15 -1.50 -1.75z"/>
 </g>
 <g fill="#2a2631">
  <path d="M20.50 38.55 c-0.80 -1.55 -0.60 -2.55 0.50 -2.55 0.80 0 1 0.35 1 1.75 0 1.95 -0.70 2.30 -1.50 0.80z"/>
  <path d="M37.50 35.45 c0 -1.25 0.25 -1.95 0.80 -2.15 1.45 -0.55 1.70 -0.30 1.70 1.70 0 1.15 -0.25 2 -0.55 2 -0.35 0 -0.45 -0.60 -0.30 -1.60 l0.30 -1.65 -0.95 1.75 -0.95 1.75 -0.05 -1.80z"/>
  <path d="M20.30 32.15 c0.40 -4.55 0.40 -4.80 -1.05 -7.80 -1.35 -2.95 -2 -3.45 -2.40 -1.95 -0.15 0.45 -0.20 0.20 -0.20 -0.55 0.05 -1.15 0.25 -1.35 1.15 -1.15 0.80 0.20 1.20 -0.05 1.65 -1.05 l0.60 -1.35 0.95 2 c1.05 2.40 3.95 4.45 5.75 4.05 1.05 -0.15 1.25 0 1.25 0.95 0 1.05 -0.25 1.20 -1.75 1.20 -1.20 0 -1.75 -0.25 -1.75 -0.75 0 -0.50 -0.50 -0.75 -1.50 -0.75 -1.45 0 -2.10 0.70 -0.95 1.10 0.75 0.25 1.25 4.90 0.50 4.90 -0.30 0 -0.55 0.85 -0.55 2 0 1.65 -0.15 2 -0.95 2 -0.90 0 -0.95 -0.25 -0.75 -2.85z"/>
  <path d="M19.80 28.05 c-0.65 -1 -1.25 -3.10 -0.85 -2.85 0.25 0.15 0.70 0.95 0.95 1.80 0.50 1.45 0.45 2 -0.10 1.05z"/>
  <path d="M6.85 24.70 c-0.75 -0.80 -0.25 -1.20 1.40 -1.20 0.95 0 1.75 0.25 1.75 0.50 0 0.30 -0.30 0.50 -0.70 0.50 -0.40 0 -1.05 0.10 -1.40 0.25 -0.40 0.15 -0.85 0.10 -1.05 -0.05z"/>
  <path d="M11.50 23.55 c-1.10 -0.30 -0.95 -0.40 1.15 -0.75 1.30 -0.20 2.35 -0.60 2.35 -0.90 0 -0.35 -0.80 -0.40 -2.25 -0.20 -2 0.35 -2.25 0.25 -2.25 -0.60 0 -1.05 1.25 -1.60 3.60 -1.60 1.15 0 1.40 0.25 1.70 1.70 0.15 0.95 0.15 1.95 -0.05 2.25 -0.35 0.60 -2.35 0.65 -4.25 0.10z"/>
  <path d="M24.60 23.20 c-1.25 -0.85 -1.45 -1.70 -0.35 -1.70 0.40 0 0.75 0.35 0.75 0.75 0 0.50 0.50 0.75 1.40 0.75 1.05 0 1.20 0.10 0.60 0.50 -1 0.65 -1.10 0.65 -2.40 -0.30z"/>
  <path d="M36.65 23.60 c-0.70 -0.25 -1 -0.55 -0.75 -0.95 0.30 -0.45 0.80 -0.45 2.25 0 1 0.35 1.85 0.75 1.85 0.95 0 0.45 -1.75 0.45 -3.35 0z"/>
  <path d="M34 21.75 c0 -1.40 0.20 -1.75 1 -1.75 0.65 0 1 0.35 1 1 0 0.55 -0.20 1 -0.50 1 -0.25 0 -0.50 0.35 -0.50 0.75 0 0.40 -0.20 0.75 -0.50 0.75 -0.25 0 -0.50 -0.80 -0.50 -1.75z"/>
  <path d="M3.90 22.15 c-1.10 -1.30 -2.85 -5.15 -2.35 -5.15 0.25 0 0.45 -0.45 0.45 -0.95 0 -0.55 0.45 -1.15 1 -1.30 0.55 -0.15 1 -0.50 1 -0.75 0 -0.25 0.75 -0.80 1.65 -1.25 0.95 -0.45 2.45 -1.80 3.40 -3.05 1.75 -2.35 3.45 -3.70 3.45 -2.70 0 0.25 -0.25 0.50 -0.55 0.50 -1 0 -1.90 1.65 -1.95 3.40 0 1.10 -0.25 1.60 -0.75 1.60 -0.40 0 -0.75 0.35 -0.75 0.75 0 0.40 -0.45 0.75 -1 0.75 -1.20 0 -1.30 0.65 -0.20 1.75 0.65 0.60 0.75 1.35 0.50 3.05 -0.25 2.10 -0.20 2.20 0.95 2.20 1.70 0 1.60 1.30 -0.10 1.75 -1.15 0.25 -1.60 0.05 -2.70 -1.20 -1.45 -1.80 -2.40 -2.10 -1.25 -0.45 1.35 1.90 0.65 2.75 -0.80 1.05z m2.10 -4.30 c0 -1 -0.20 -1.10 -2 -0.95 -1.10 0.10 -2 0.35 -2 0.55 0 0.80 1.30 1.55 2.60 1.55 1.10 0 1.40 -0.20 1.40 -1.15z"/>
  <path d="M30 22.30 c0 -0.60 3.25 -6.30 3.60 -6.30 0.20 0 0.40 0.80 0.40 1.75 0 1.20 -0.25 1.75 -0.75 1.75 -0.50 0 -0.75 0.50 -0.75 1.50 0 1.25 -0.20 1.50 -1.25 1.50 -0.70 0 -1.25 -0.10 -1.25 -0.20z"/>
  <path d="M37.95 21.50 c-0.65 -0.50 -1.05 -0.95 -0.85 -1 0.70 0 2.90 1.15 2.90 1.60 0 0.70 -0.80 0.45 -2.05 -0.60z"/>
  <path d="M29 20.35 c0 -0.85 0.25 -1.35 0.75 -1.35 0.50 0 0.75 -0.50 0.75 -1.50 0 -1 0.25 -1.50 0.75 -1.50 1 0 0.95 0.05 -0.55 2.85 -1.70 3.05 -1.70 3.05 -1.70 1.50z"/>
  <path d="M18 18.65 c0 -0.65 0.25 -1.15 0.50 -1.15 0.65 0 0.65 0.55 0 1.50 -0.40 0.60 -0.50 0.55 -0.50 -0.35z"/>
  <path d="M14.30 11.20 c-0.40 -1 1.25 -2.45 1.80 -1.60 0.15 0.30 0.20 0.85 0.05 1.20 -0.15 0.45 0.10 0.55 0.80 0.35 0.60 -0.15 1.05 -0.05 1.05 0.30 0 0.90 -3.35 0.65 -3.70 -0.25z"/>
  <path d="M16.30 8.25 c-0.95 -0.75 -0.95 -0.75 0.05 -0.75 0.55 0 1.15 0.35 1.35 0.75 0.35 0.95 -0.15 0.95 -1.40 0z"/>
  <path d="M8.40 7.75 c0.50 -1.05 2.60 -3.10 2.60 -2.65 0 0.15 -0.70 1.05 -1.60 1.95 -0.85 0.95 -1.30 1.25 -1 0.70z"/>
 </g>
 <g fill="#53210e">
  <path d="M34.20 39.30 c-1.10 -1.25 -1 -2.55 0.40 -5.40 0.75 -1.60 1.40 -3.10 1.40 -3.40 0 -1 -0.90 -0.50 -1.20 0.65 -0.15 0.65 -0.85 2 -1.50 3 -0.70 0.95 -1.30 2.40 -1.45 3.20 -0.20 1.35 -0.20 1.30 -0.30 -0.25 0 -0.90 0.50 -2.70 1.20 -4.05 0.65 -1.35 1.10 -2.55 0.95 -2.70 -0.45 -0.45 0.35 -6.85 0.85 -6.85 0.25 0 0.45 1.10 0.45 2.45 0 1.40 0.15 2.60 0.40 2.70 0.20 0.15 0.35 -1.15 0.35 -2.90 0 -1.75 0.10 -3.30 0.25 -3.40 0.15 -0.15 1.10 0 2.15 0.30 2.15 0.70 2.65 2.35 0.65 2.35 -1.15 0 -1.25 0.15 -1.40 3.65 -0.10 1.95 0 4.70 0.15 6.05 0.35 3.10 -0.40 5.30 -1.80 5.30 -0.55 -0.05 -1.25 -0.35 -1.55 -0.70z"/>
  <path d="M37.50 39.65 c0.05 -0.25 0.35 -0.95 0.75 -1.65 l0.70 -1.25 0.05 1.65 c0 1.10 -0.25 1.60 -0.75 1.60 -0.40 0 -0.75 -0.15 -0.75 -0.35z"/>
  <path d="M23.10 24.55 c-1.85 -1.60 -1.20 -2.05 1.05 -0.75 l2.20 1.20 1.65 -1.10 c2.25 -1.55 5.25 -7 4.55 -8.25 -0.50 -0.85 -0.50 -0.85 -0.55 -0.05 0 0.95 -2.20 5.15 -3.45 6.55 -1.45 1.70 -2.50 2 -3.85 1.10 -0.95 -0.60 -1.15 -1.05 -0.90 -2 0.20 -0.75 0.10 -1.25 -0.25 -1.25 -0.30 0 -0.55 -0.55 -0.55 -1.25 0 -0.70 -0.25 -1.70 -0.60 -2.20 -0.45 -0.75 -0.40 -1.20 0.25 -2.25 0.50 -0.70 0.90 -2.20 0.95 -3.30 0.05 -1.60 0.25 -2 1 -2 0.50 0 0.90 0.25 0.90 0.50 0 0.30 0.55 0.50 1.25 0.50 1.35 0 2 0.90 2.50 3.65 0.55 2.75 1.25 1.75 0.90 -1.30 l-0.30 -2.60 1.10 0.95 c0.55 0.55 1.05 1.30 1.05 1.75 0 0.45 0.40 1.45 0.95 2.20 0.90 1.35 0.90 3.85 0 3.85 -0.25 0 -0.45 0.45 -0.45 1 0 0.55 -0.20 1 -0.50 1 -0.25 0 -0.50 0.35 -0.50 0.80 0 0.45 -0.75 1.55 -1.70 2.50 -1.35 1.35 -2.10 1.70 -3.65 1.70 -1.25 0 -2.40 -0.35 -3.05 -0.95z"/>
  <path d="M18.70 22.75 c-0.20 -0.45 -0.70 -1 -1.20 -1.25 -0.75 -0.40 -0.85 -0.30 -0.65 0.50 0.20 0.70 0 1 -0.55 1 -0.70 0 -0.80 -0.45 -0.75 -2.20 0.15 -2.20 -0.90 -4.60 -2.40 -5.45 -0.35 -0.20 -0.65 -0.95 -0.65 -1.60 0 -0.65 -0.20 -1.25 -0.45 -1.35 -0.45 -0.15 -1.05 -5.40 -0.60 -5.40 0.15 0 0.75 -0.35 1.30 -0.80 0.75 -0.55 0.85 -0.85 0.35 -1.15 -0.50 -0.30 -0.40 -0.60 0.50 -1.15 2.25 -1.45 2.90 -1.45 2.90 -0.15 0 0.70 -0.30 1.25 -0.60 1.30 -0.35 0 -0.15 0.20 0.50 0.45 0.80 0.35 1.10 0.90 1.10 2 l0 1.55 -1.45 -1 -1.40 -1 -0.60 1.25 c-0.80 1.85 -0.70 2.30 0.40 1.70 1.35 -0.70 1.55 -0.65 1.55 0.45 0 0.95 0.60 1 3 0.20 0.65 -0.20 0.60 -0.30 -0.10 -0.70 -0.70 -0.40 -0.90 -1.15 -0.90 -3.20 l0 -2.75 1.65 0 c1.95 0 2.45 0.35 3.25 2.15 0.90 2.05 0.75 2.65 -0.35 1.30 -1.05 -1.30 -1.95 -1.05 -1.20 0.30 0.75 1.35 -0.15 6 -1.80 9.25 -0.85 1.65 -1.55 3.25 -1.55 3.50 0 0.90 0.75 0.50 1.65 -0.85 0.90 -1.40 0.90 -1.40 0.65 -0.15 -0.15 0.70 -0.30 1.85 -0.30 2.65 0 1.45 -0.85 1.85 -1.30 0.60z"/>
 </g>
 <g fill="#752d0e">
  <path d="M35.75 34.50 c0.10 -2.75 0.05 -5 -0.05 -5 -0.05 0 -0.60 1 -1.15 2.25 -1.20 2.70 -2.05 2.90 -2.05 0.50 0 -1.20 0.25 -1.75 0.75 -1.75 0.50 0 0.75 -0.50 0.75 -1.50 0 -0.80 0.25 -1.50 0.50 -1.50 0.30 0 0.50 0.35 0.50 0.75 0 0.40 0.25 0.75 0.55 0.75 0.40 0 0.50 -0.90 0.30 -2.90 -0.40 -3.80 -0.05 -4.30 2.30 -3.25 1.85 0.85 1.85 0.85 1.85 4 0 2.95 -0.05 3.15 -1.15 3.15 -1.05 0 -1.15 0.20 -0.95 1.90 0.15 1 0.45 2 0.70 2.15 0.55 0.35 -1.65 5.45 -2.45 5.45 -0.40 0 -0.50 -1.45 -0.40 -5z"/>
  <path d="M38.05 38.65 c0 -0.25 0.45 -1.30 0.95 -2.40 0.80 -1.75 0.95 -1.85 0.95 -0.75 0.05 1.95 -0.50 3.50 -1.25 3.50 -0.40 0 -0.70 -0.15 -0.65 -0.35z"/>
  <path d="M34 24 c0 -1.65 0.20 -2.50 0.65 -2.50 0.40 0 0.55 0.75 0.45 2.50 -0.25 3.25 -1.10 3.25 -1.10 0z"/>
  <path d="M22.50 23.75 c0 -0.65 0.20 -0.70 1.15 -0.20 1.65 0.85 1.65 0.95 0.20 0.95 -0.90 0 -1.35 -0.25 -1.35 -0.75z"/>
  <path d="M15.40 21.95 c-0.10 -0.30 -0.80 -0.55 -1.55 -0.55 -1.35 0 -1.35 -0.05 -1.35 -3.35 0 -1.80 -0.05 -4.50 -0.15 -6 -0.05 -1.70 0.10 -2.80 0.50 -2.90 0.35 -0.15 0.45 0.15 0.30 0.80 -0.30 1.20 0.45 1.40 1.35 0.30 0.85 -1 1.60 -0.95 1.40 0.15 -0.10 0.45 0.25 1.20 0.80 1.65 1 0.80 1 0.80 -0.10 1.15 -1.15 0.40 -1.45 1.50 -0.60 2.05 0.30 0.15 0.50 0.75 0.50 1.30 0 0.50 0.20 0.95 0.45 0.95 0.80 0 1.15 2.65 0.40 3.25 -0.35 0.25 -0.60 0.80 -0.50 1.15 0.15 0.30 -0.10 0.60 -0.50 0.60 -0.45 0 -0.85 -0.25 -0.95 -0.55z"/>
  <path d="M18.50 21.90 c0 -0.35 0.25 -1 0.50 -1.40 0.40 -0.60 0.50 -0.55 0.50 0.35 0 0.60 -0.20 1.25 -0.50 1.40 -0.25 0.15 -0.50 0 -0.50 -0.35z"/>
  <path d="M31.50 19.40 c1 -1.80 1.35 -3.05 1.15 -3.85 -0.20 -0.85 -0.10 -1.10 0.30 -0.85 0.30 0.20 0.55 0.95 0.55 1.70 0 1.50 -1.90 5.15 -2.85 5.45 -0.35 0.15 0.05 -1 0.85 -2.45z"/>
  <path d="M29.50 19.30 c0.40 -1.05 0.30 -1.40 -0.55 -2 -0.75 -0.50 -1.10 -1.45 -1.30 -3.50 l-0.30 -2.80 2.05 0 c1.75 0 2.05 0.15 2.50 1.50 0.55 1.60 0.25 3.30 -1.10 5.85 -1 2.05 -2 2.70 -1.30 0.95z"/>
  <path d="M23.95 19.80 c-0.05 -0.05 -0.10 -2.35 -0.15 -5.20 -0.05 -4.30 0.05 -5.10 0.75 -5.10 0.55 0 0.90 0.90 1.30 3.65 0.30 2 0.30 3.80 0.10 4.10 -0.25 0.25 -0.45 0.95 -0.45 1.50 0 0.65 -0.30 1.10 -0.75 1.10 -0.40 0 -0.75 -0.05 -0.80 -0.05z"/>
  <path d="M16.50 14.50 c0 -0.25 0.35 -0.50 0.75 -0.50 0.40 0 0.75 0.25 0.75 0.50 0 0.30 -0.35 0.50 -0.75 0.50 -0.40 0 -0.75 -0.20 -0.75 -0.50z"/>
  <path d="M16.80 8.40 c-1.75 -1.45 -2 -1.50 -2.55 -0.75 -0.55 0.80 -0.65 0.75 -0.85 -0.35 -0.15 -0.70 0 -1.50 0.25 -1.75 0.40 -0.40 0.25 -0.55 -0.40 -0.55 -0.75 -0.05 -0.45 -0.40 1 -1.25 2.35 -1.45 2.75 -1.50 2.75 -0.50 0 0.55 0.60 0.75 2.20 0.75 3.10 0 3.80 0.35 3.80 2.05 0 1.45 0 1.45 -1.25 0.65 l-1.30 -0.85 0.55 1.35 c0.70 1.85 0.65 2 -0.30 1.05 -0.45 -0.45 -0.95 -0.65 -1.10 -0.50 -0.15 0.15 0 0.55 0.30 0.85 2 2 -0.65 1.80 -3.10 -0.20z"/>
 </g>
 <g fill="#3c3848">
  <path d="M20.50 38.30 c-0.60 -1.90 -0.15 -9.45 0.55 -9 0.25 0.15 0 -0.85 -0.55 -2.25 -0.55 -1.40 -0.75 -2.55 -0.50 -2.55 0.30 0 0.50 -0.45 0.50 -1 0 -0.65 -0.35 -1 -1 -1 -1.25 0 -1.25 -0.85 0 -2.75 0.85 -1.30 1 -1.35 1 -0.45 0 1.50 1.75 3.55 3.95 4.70 1.85 0.90 1.90 0.90 3.40 0 0.85 -0.50 1.95 -1.60 2.45 -2.45 1.20 -2 1.70 -1.95 1.70 0.20 0 1.55 -0.15 1.75 -1.25 1.75 -1 0 -1.25 0.25 -1.25 1.20 0 1.35 -0.80 1.80 -3.15 1.80 -1.20 0 -1.40 0.15 -0.95 0.60 0.90 0.90 0.80 3.90 -0.15 3.90 -0.50 0 -0.75 0.50 -0.75 1.50 0 1.30 -0.20 1.50 -1.30 1.50 -1.30 0 -1.30 0 -0.95 3 0.30 2.50 0.20 3 -0.40 3 -0.45 0 -1 -0.75 -1.35 -1.70z m3.15 -12.15 c-0.35 -0.10 -0.65 -0.55 -0.65 -0.95 0 -0.40 -0.20 -0.70 -0.50 -0.70 -0.25 0 -0.50 0.45 -0.50 1 0 0.70 0.30 1 1.15 0.95 0.60 0 0.80 -0.15 0.50 -0.30z"/>
  <path d="M30.50 38.75 c0 -0.80 0.30 -1.25 0.75 -1.25 0.40 0 0.75 0.20 0.75 0.45 0 0.25 0.15 0.80 0.30 1.25 0.20 0.60 0 0.80 -0.75 0.80 -0.80 0 -1.05 -0.30 -1.05 -1.25z"/>
  <path d="M36.55 38.50 c-0.05 -1.80 0.65 -3.45 1.20 -2.90 0.20 0.15 0 1.30 -0.45 2.50 l-0.75 2.15 0 -1.75z"/>
  <path d="M37.50 39.80 c0 -0.10 0.55 -1.40 1.20 -2.85 l1.25 -2.70 0 2.90 c0.05 2.70 0 2.85 -1.20 2.85 -0.70 0 -1.25 -0.10 -1.25 -0.20z"/>
  <path d="M6.50 24 c0 -0.25 0.50 -0.45 1.15 -0.40 0.60 0 1.95 -0.10 3 -0.35 1.15 -0.20 1.85 -0.15 1.85 0.15 0 0.55 -2.35 1.10 -4.55 1.10 -0.80 0 -1.45 -0.20 -1.45 -0.50z"/>
  <path d="M14.85 23.20 c-0.15 -0.15 -0.15 -0.60 0 -1 0.25 -0.65 -0.35 -0.90 -1.70 -0.75 -0.35 0.05 -0.65 -0.35 -0.65 -0.85 0 -0.85 0.35 -0.95 2.70 -0.90 2.35 0.05 2.65 0.15 2.10 0.80 -0.40 0.40 -0.55 1.05 -0.40 1.45 0.30 0.95 -1.30 1.95 -2.05 1.25z"/>
  <path d="M36.25 22.95 c-0.60 -0.95 0.15 -1.10 1.35 -0.25 l1.10 0.80 -1.05 0 c-0.60 0 -1.25 -0.25 -1.40 -0.55z"/>
  <path d="M3.55 21.65 c-1.35 -1.65 -1.15 -2.25 0.70 -2.50 1.60 -0.25 2.30 -0.95 1.90 -1.95 -0.15 -0.40 -0.80 -0.55 -1.90 -0.35 -1 0.15 -1.75 0.05 -2 -0.35 -0.65 -1.10 0.55 -1.55 3.20 -1.20 2.50 0.30 2.55 0.35 2.55 2 0 1.20 -0.25 1.70 -0.75 1.70 -0.40 0 -0.75 0.40 -0.75 0.95 0 0.75 0.55 1 2.90 1.40 l2.85 0.45 -2.50 0.60 -2.50 0.55 -1.60 -1.85 c-1.65 -1.90 -2.25 -1.70 -0.90 0.25 1.15 1.60 0 1.90 -1.20 0.30z"/>
  <path d="M37.45 21.15 c-0.65 -0.75 -0.60 -0.75 0.55 -0.15 1.70 0.85 1.80 1 0.90 1 -0.45 0 -1.10 -0.35 -1.45 -0.85z"/>
  <path d="M31.05 14.85 c-0.05 -1.15 0.15 -1.85 0.50 -1.75 0.80 0.25 2.65 3.40 2 3.40 -0.35 0 -0.80 -0.50 -1 -1.10 l-0.45 -1.15 -0.50 1.25 c-0.50 1.20 -0.55 1.15 -0.55 -0.65z"/>
  <path d="M4.50 14 c0 -0.25 0.65 -0.80 1.45 -1.20 0.80 -0.45 2.25 -1.90 3.30 -3.30 1 -1.35 2.05 -2.50 2.35 -2.50 0.35 0 0.35 0.20 0 0.65 -0.30 0.30 -0.60 1.40 -0.70 2.35 -0.15 1.50 -0.35 1.75 -1.50 1.90 -1.10 0.15 -1.40 0.45 -1.40 1.40 0 1.05 -0.25 1.20 -1.75 1.20 -0.95 0 -1.75 -0.20 -1.75 -0.50z"/>
  <path d="M14.25 12 c-0.40 -0.60 0.60 -2.50 1.35 -2.50 0.25 0 0.40 0.45 0.25 1 -0.25 0.90 -0.05 1 1.55 0.80 1.05 -0.10 1.45 -0.05 1 0.05 -0.50 0.10 -0.90 0.45 -0.90 0.70 0 0.60 -2.85 0.60 -3.25 -0.05z"/>
  <path d="M17.80 9.25 c-0.55 -0.40 -0.80 -0.90 -0.65 -1.10 0.50 -0.45 2.95 0.45 3.25 1.25 0.25 0.85 -1.40 0.75 -2.60 -0.15z"/>
 </g>
 <g fill="#633827">
  <path d="M35.50 39.40 c0 -1.50 0.65 -2.90 1.35 -2.90 0.55 0 0.70 0.30 0.45 1.15 -0.15 0.60 -0.30 1.40 -0.30 1.75 0 0.30 -0.35 0.60 -0.75 0.60 -0.40 0 -0.75 -0.30 -0.75 -0.60z"/>
  <path d="M31.50 34.40 c0 -1.70 0.15 -1.90 1.25 -1.90 1.55 0 1.60 0.55 0 2.35 l-1.20 1.40 -0.05 -1.85z"/>
  <path d="M37.50 33.75 c0 -1.55 0.15 -1.75 1.25 -1.75 1.50 0 1.65 1.05 0.40 2.50 -1.25 1.45 -1.65 1.25 -1.65 -0.75z"/>
  <path d="M18.50 22 c0 -0.55 0.25 -1 0.50 -1 0.30 0 0.50 -0.35 0.50 -0.75 0 -0.40 0.25 -0.75 0.50 -0.75 0.30 0 0.50 0.80 0.50 1.75 0 1.40 -0.20 1.75 -1 1.75 -0.65 0 -1 -0.35 -1 -1z"/>
  <path d="M15 20.15 c0.05 -1.35 0.05 -2.95 0 -3.60 0 -2.55 1.15 -1.85 2.25 1.25 0.55 1.70 0.55 2.05 -0.10 2.80 -0.40 0.45 -0.60 1.10 -0.40 1.35 0.15 0.35 -0.10 0.55 -0.70 0.55 -0.95 0 -1.05 -0.30 -1.05 -2.35z"/>
  <path d="M23.85 19.70 c-0.15 -0.15 -0.10 -0.80 0.15 -1.45 0.35 -0.90 0.35 -3 0 -3 -0.05 0 -0.10 -1.40 -0.15 -3.10 -0.10 -2.25 -0.40 -3.45 -1.15 -4.50 -1.25 -1.65 -3.75 -2.75 -4.05 -1.75 -0.35 0.95 -1.15 0.70 -1.15 -0.40 0 -0.55 -0.35 -1 -0.75 -1 -0.40 0 -0.75 0.25 -0.75 0.50 0 0.30 -0.35 0.50 -0.75 0.50 -0.40 0 -0.75 0.25 -0.75 0.50 0 0.30 -0.35 0.50 -0.80 0.50 -0.65 0 -0.75 0.35 -0.50 1.50 0.15 0.90 0.10 1.45 -0.15 1.25 -0.25 -0.15 -0.60 -0.05 -0.80 0.25 -0.40 0.65 -2.75 0.65 -2.75 0 0 -0.60 1.45 -2.05 4.05 -4 0.90 -0.70 1.35 -1.30 1 -1.40 -1.05 -0.35 1.95 -1.60 3.80 -1.60 1.70 0 3.15 0.90 3.15 1.95 0 1.10 0.95 0.50 1.10 -0.70 l0.15 -1.25 1.75 0.95 c1.85 0.95 5 5.65 4.05 5.95 -0.95 0.30 1 2.60 2.20 2.60 1.35 0 1.95 1.65 1.10 3.05 -0.75 1.20 -1.35 1.20 -1.35 0 0 -1.30 -0.50 -2.55 -1.05 -2.55 -0.25 0 -0.45 1 -0.45 2.25 0 2.75 -0.80 2.95 -1.25 0.30 -0.15 -1.10 -0.65 -2.35 -1 -2.90 -0.65 -0.85 -0.70 -0.75 -0.80 0.85 -0.10 2.20 -0.10 2.05 0.35 3.20 0.25 0.70 0.20 0.85 -0.20 0.60 -0.40 -0.25 -0.70 0.15 -0.90 1.20 -0.35 1.55 -0.85 2.20 -1.35 1.70z"/>
  <path d="M14.50 12.50 c-0.40 -0.70 -0.40 -1.30 0 -2 0.70 -1.30 1.65 -1.30 1.25 0 -0.30 0.95 -0.15 1 1.70 0.70 1.15 -0.20 2.05 -0.20 2.05 -0.05 0 0.40 -3.25 2.35 -3.90 2.35 -0.30 0 -0.80 -0.45 -1.10 -1z"/>
  <path d="M18.20 9.30 c-0.50 -0.40 -0.80 -0.90 -0.60 -1.10 0.50 -0.45 2.90 0.60 2.90 1.30 0 0.70 -1.15 0.60 -2.30 -0.20z"/>
 </g>
 <g fill="#864423">
  <path d="M35.75 39.15 c0.15 -0.50 0.30 -4.35 0.30 -8.60 0 -4.20 0.05 -7.85 0.20 -8.05 0.15 -0.20 1 0 2 0.45 1.45 0.65 1.70 1.05 1.75 2.45 0 1.55 -0.60 2.10 -1.25 1.10 -0.15 -0.25 -0.55 -0.50 -0.80 -0.50 -0.30 0 0.05 0.75 0.75 1.65 1.55 2.05 1.65 2.85 0.30 2.85 -0.90 0 -1 0.35 -1 2.95 0 3.05 -1.10 6.55 -2.05 6.55 -0.35 0 -0.40 -0.35 -0.20 -0.85z"/>
  <path d="M34.60 28.75 c0 -2.80 0.05 -2.90 0.40 -1 0.20 1.10 0.20 2.45 -0.05 3 -0.25 0.65 -0.40 0 -0.35 -2z"/>
  <path d="M14.20 21.10 c-0.80 -0.70 -1.25 -2.05 -1.85 -6.20 -1.15 -7.15 -1.10 -7.40 0.40 -7.40 1 0 1.25 -0.25 1.25 -1.20 0 -0.70 0.25 -1.40 0.50 -1.55 0.30 -0.20 0.40 -0.50 0.25 -0.70 -0.10 -0.25 0.30 -0.65 0.95 -0.95 0.90 -0.40 1.70 -0.35 3.10 0.15 1.10 0.40 2.35 0.70 2.85 0.75 0.55 0 0.85 0.40 0.85 1.25 0 1.45 -0.35 1.55 -1.95 0.45 -1.05 -0.75 -1.20 -0.75 -2.20 0.35 -1 1.05 -1 1.15 -0.15 1.65 0.50 0.30 1.25 0.80 1.70 1.15 0.75 0.55 0.70 0.60 -0.50 0.65 -0.80 0 -1.40 -0.20 -1.40 -0.45 0 -0.25 -0.45 -0.55 -1 -0.70 -0.60 -0.15 -1 -0.70 -1 -1.35 0 -0.95 -0.10 -1.05 -0.80 -0.45 -0.40 0.35 -1.10 1.30 -1.50 2.10 -0.70 1.25 -0.70 1.70 0 3.75 0.45 1.25 0.85 2.85 0.85 3.55 0.10 1.20 0.10 1.20 0.30 0.20 0.35 -1.75 0.90 -1.35 2.05 1.35 0.90 2.15 0.95 2.60 0.35 2.85 -0.40 0.15 -0.75 0.55 -0.75 0.95 0 0.95 -1.05 0.85 -2.30 -0.20z"/>
  <path d="M31.85 18.75 c0.45 -0.95 0.95 -1.65 1.05 -1.50 0.35 0.35 -0.95 3.25 -1.45 3.25 -0.25 0 -0.05 -0.80 0.40 -1.75z"/>
  <path d="M24.05 14 c-0.05 -2.75 0.10 -5 0.35 -5 0.20 0 0.25 -1.25 0.20 -2.75 -0.15 -2.40 -0.10 -2.70 0.60 -2.45 0.45 0.20 1.15 0.95 1.55 1.75 0.90 1.70 0.95 2.15 0.15 1.65 -0.35 -0.20 -0.40 -0.15 -0.20 0.25 0.20 0.30 0.55 0.45 0.75 0.30 0.25 -0.10 1.35 0.85 2.55 2.15 1.95 2.20 2.05 2.50 1.80 4.50 -0.45 3.35 -1.25 4.35 -1.30 1.60 0 -2.75 -0.75 -4.15 -1.50 -3 -0.45 0.65 -0.70 0.55 -1.55 -0.60 -0.55 -0.80 -1.20 -1.40 -1.35 -1.40 -0.20 0 -0.30 1.05 -0.25 2.35 0.10 2.40 -0.75 5.65 -1.40 5.65 -0.20 0 -0.40 -2.25 -0.40 -5z"/>
  <path d="M14.50 12.50 c-0.40 -0.70 -0.35 -1.25 0.10 -2 0.85 -1.30 1.55 -1.30 1.15 0.05 -0.35 1 -0.25 1.05 1.45 0.75 2.30 -0.45 2.30 0.25 0.05 1.35 -2.20 1.05 -2.10 1.05 -2.75 -0.15z"/>
 </g>
 <g fill="#544d62">
  <path d="M20.70 38.25 c-0.50 -1.25 -0.60 -2.70 -0.40 -5.25 0.20 -1.90 0.55 -3.50 0.75 -3.50 0.45 0 -0.55 -3.10 -1.80 -5.50 -0.75 -1.50 -0.75 -1.70 0 -3.35 l0.85 -1.75 0.95 1.95 c0.85 1.70 4 4.15 5.40 4.15 1.90 0 6.90 -7.45 6.25 -9.20 -0.50 -1.30 0.60 -0.90 1.20 0.45 0.35 0.75 0.40 1.25 0.10 1.25 -0.30 0 -0.50 0.80 -0.50 1.75 0 1.40 -0.20 1.75 -1 1.75 -0.80 0 -1 0.35 -1 1.65 0 1.90 -0.75 2.85 -2.30 2.85 -0.65 0 -1.20 0.40 -1.35 1 -0.15 0.65 -0.70 1 -1.45 1 -0.65 0 -0.90 0.15 -0.60 0.40 1 0.65 2.20 3.55 2.20 5.35 0 1.65 -0.10 1.75 -1.70 1.75 -1.05 0 -1.80 -0.30 -2 -0.75 -0.15 -0.40 -0.75 -0.75 -1.30 -0.75 -0.75 0 -1 0.35 -1 1.20 0 1.85 0.50 2.80 1.55 2.80 0.70 0 0.95 0.35 0.95 1.25 0 1.05 -0.25 1.25 -1.55 1.25 -1.25 0 -1.60 -0.30 -2.25 -1.75z"/>
  <path d="M31 39.25 c0 -0.40 0.20 -0.75 0.45 -0.75 0.25 0 0.55 0.35 0.75 0.75 0.15 0.45 0 0.75 -0.45 0.75 -0.40 0 -0.75 -0.35 -0.75 -0.75z"/>
  <path d="M37.50 39.65 c0.05 -0.55 1.30 -2.15 1.70 -2.15 0.15 0 0.30 0.55 0.30 1.25 0 0.90 -0.25 1.25 -1 1.25 -0.55 0 -1 -0.15 -1 -0.35z"/>
  <path d="M36 38.50 c0 -0.55 0.35 -1 0.75 -1 0.65 0 0.70 0.20 0.25 1 -0.30 0.55 -0.65 1 -0.75 1 -0.15 0 -0.25 -0.45 -0.25 -1z"/>
  <path d="M30.50 35.25 c0 -1.60 0.10 -1.75 1.50 -1.75 l1.50 0 -0.90 1.75 c-1.10 2.25 -2.10 2.25 -2.10 0z"/>
  <path d="M33 31.25 c0 -1.55 0.15 -1.75 1.30 -1.75 0.70 0 1.20 0.15 1.10 0.40 -1.75 3.65 -2.40 4 -2.40 1.35z"/>
  <path d="M6.50 24.05 c0 -0.35 0.35 -0.50 0.90 -0.35 0.45 0.15 2.05 -0.05 3.55 -0.45 1.50 -0.40 2.90 -0.60 3.10 -0.45 0.60 0.35 1.10 -0.85 0.60 -1.35 -0.30 -0.30 -1 -0.30 -1.90 0.05 -0.75 0.30 -2.30 0.75 -3.40 0.95 -1.85 0.45 -2.10 0.35 -3.40 -1.10 l-1.45 -1.55 1.05 -0.95 c0.55 -0.50 0.90 -1.25 0.75 -1.65 -0.15 -0.45 0.10 -0.70 0.70 -0.70 0.85 0 1 0.35 1 2 0 1.95 0.05 2 1.75 2 0.95 0 1.75 -0.20 1.75 -0.50 0 -0.75 2.35 -0.60 3.20 0.25 0.40 0.40 0.95 0.75 1.20 0.75 0.30 0 0.65 0.35 0.80 0.80 0.40 1.05 -1 2.15 -2.75 2.20 -0.70 0 -2.70 0.15 -4.40 0.30 -2.20 0.25 -3.05 0.20 -3.05 -0.25z"/>
  <path d="M3.55 21.60 c-0.65 -0.90 -0.85 -1.65 -0.55 -2.10 0.35 -0.55 0.55 -0.40 0.95 0.60 0.25 0.70 0.75 1.45 1 1.65 0.30 0.15 0.55 0.50 0.55 0.80 0 0.90 -0.95 0.45 -1.95 -0.95z"/>
  <path d="M2.90 16.65 c-1.30 -0.30 -1.10 -1 0.50 -1.85 0.75 -0.40 1.15 -0.75 0.85 -0.80 -0.55 0 0.75 -1 1.40 -1 0.50 0 0.45 1.90 -0.15 3.05 -0.55 0.95 -0.95 1.05 -2.60 0.60z"/>
  <path d="M31 14.80 c0 -0.40 0.25 -0.90 0.50 -1.05 0.30 -0.15 0.50 0.05 0.50 0.45 0 0.40 -0.20 0.90 -0.50 1.05 -0.25 0.15 -0.50 -0.05 -0.50 -0.45z"/>
  <path d="M14.50 11.65 c0 -1.15 0.85 -2.45 1.30 -2 0.20 0.15 0.05 0.65 -0.25 1.05 -0.75 0.85 0 1.45 1.25 0.95 0.60 -0.20 0.75 -0.15 0.50 0.25 -0.60 0.95 -2.80 0.75 -2.80 -0.25z"/>
 </g>
 <g fill="#a55125">
  <path d="M36.20 37.65 c0.15 -1.05 0.30 -2.40 0.30 -3 0 -0.90 0.30 -1.15 1.25 -1.15 0.70 0 1.25 0.20 1.25 0.40 0 0.70 -2.50 5.60 -2.80 5.60 -0.20 0 -0.20 -0.85 0 -1.85z"/>
  <path d="M38 39.15 c0 -0.25 0.25 -0.75 0.50 -1.15 0.40 -0.60 0.50 -0.55 0.50 0.40 0 0.60 -0.20 1.10 -0.50 1.10 -0.25 0 -0.50 -0.15 -0.50 -0.35z"/>
  <path d="M39 36.25 c0 -0.40 0.25 -0.75 0.50 -0.75 0.30 0 0.50 0.35 0.50 0.75 0 0.40 -0.20 0.75 -0.50 0.75 -0.25 0 -0.50 -0.35 -0.50 -0.75z"/>
  <path d="M36.40 32.15 c-0.45 -1.75 -0.40 -10.15 0 -10.15 0.25 0 0.75 0.35 1.10 0.75 0.35 0.40 1 0.75 1.45 0.75 0.55 0 0.85 0.50 0.90 1.75 0.15 1.85 -0.60 2.40 -1.10 0.80 -0.15 -0.55 -0.65 -1.25 -1.05 -1.60 -0.65 -0.55 -0.70 -0.45 -0.40 0.85 0.15 0.80 0.65 1.70 1 2 0.40 0.30 0.70 0.80 0.70 1.15 0 0.30 0.25 0.55 0.50 0.55 0.30 0 0.50 0.45 0.50 1 0 0.65 -0.35 1 -1 1 -0.65 0 -1 0.35 -1 1 0 1.25 -1.30 1.35 -1.60 0.15z"/>
  <path d="M34.60 27 l0.05 -4.25 0.35 3.50 c0.15 1.95 0.15 3.85 -0.05 4.25 -0.25 0.40 -0.40 -1.15 -0.35 -3.50z"/>
  <path d="M30.80 14.70 c-0.50 -1.25 -0.35 -1.70 0.45 -1.70 0.40 0 0.75 0.45 0.75 0.95 0 1.30 -0.80 1.75 -1.20 0.75z"/>
  <path d="M13 12.40 c0 -1.80 0.20 -1.75 0.70 0.25 0.20 0.80 0.10 1.35 -0.20 1.35 -0.25 0 -0.50 -0.70 -0.50 -1.60z"/>
  <path d="M14.85 12.65 c-0.50 -0.50 -0.40 -2.05 0.15 -2.40 0.25 -0.15 0.35 0 0.20 0.40 -0.40 1.10 0.50 1.45 2.10 0.85 1.90 -0.75 2.10 -0.25 0.25 0.70 -1.65 0.90 -2.20 0.95 -2.70 0.45z"/>
  <path d="M17.10 8.70 c-0.60 -0.40 -1.10 -1.20 -1.10 -1.75 0 -1.25 0.05 -1.25 2.30 0.80 1.55 1.45 1.70 1.75 0.90 1.75 -0.55 0 -1.50 -0.35 -2.10 -0.80z"/>
  <path d="M13.50 6.95 c0 -0.75 0.35 -1.60 0.75 -1.95 0.40 -0.35 0.60 -0.85 0.40 -1.15 -0.20 -0.30 -0.05 -0.35 0.35 -0.10 0.40 0.25 0.90 0.10 1.25 -0.45 0.80 -1.05 2.25 -0.55 2.25 0.80 0 0.70 -0.30 0.90 -1 0.80 -0.60 -0.10 -1.50 0.50 -2.45 1.60 l-1.50 1.75 -0.05 -1.30z"/>
 </g>
 <g fill="#90593b">
  <path d="M38.25 38.50 c0.40 -0.80 0.75 -1.80 0.75 -2.25 0 -0.40 0.25 -0.75 0.50 -0.75 0.60 0 0.05 2.65 -0.60 2.90 -0.20 0.10 -0.40 0.50 -0.40 0.90 0 0.40 -0.25 0.70 -0.50 0.70 -0.30 0 -0.20 -0.65 0.25 -1.50z"/>
  <path d="M36.20 37.65 c0.15 -1.05 0.30 -3.30 0.30 -5 l0 -3.15 1.75 0 c1.70 0 1.75 0.05 1.75 2 0 1.10 -0.20 2 -0.50 2 -0.25 0 -0.50 0.35 -0.50 0.75 0 0.40 -0.20 0.75 -0.50 0.75 -0.25 0 -0.50 0.30 -0.50 0.65 0 0.85 -1.45 3.85 -1.85 3.85 -0.15 0 -0.15 -0.85 0.05 -1.85z"/>
  <path d="M37.30 27.75 c-0.20 -0.65 -0.10 -0.70 0.70 -0.25 1.15 0.65 1.30 1 0.30 1 -0.40 0 -0.80 -0.35 -1 -0.75z"/>
  <path d="M38.85 26.30 c-0.30 -0.75 0.05 -1.30 0.75 -1.30 0.20 0 0.40 0.45 0.40 1 0 1.15 -0.75 1.35 -1.15 0.30z"/>
  <path d="M13.65 20.90 c-1 -0.50 -1.15 -0.95 -1.15 -3.50 0 -1.60 0.20 -2.90 0.50 -2.90 0.30 0 0.50 -0.35 0.50 -0.75 0 -0.45 -0.45 -0.75 -1.05 -0.75 -1 0 -1.05 -0.15 -0.75 -3.05 0.40 -3.25 1.55 -4.90 3.45 -4.95 0.75 0 0.65 0.35 -0.65 2.25 l-1.55 2.25 0.85 4 c0.45 2.25 0.65 4.55 0.50 5.20 -0.25 0.95 -0.05 1.25 0.95 1.50 0.70 0.20 1.25 0.55 1.25 0.80 0 0.65 -1.45 0.60 -2.85 -0.10z"/>
  <path d="M15.60 19.55 c-0.45 -0.25 -0.60 -1.20 -0.50 -2.60 0.15 -2.10 0.20 -2.15 0.80 -1.05 0.75 1.35 1.25 4.10 0.70 4.10 -0.20 0 -0.65 -0.20 -1 -0.45z"/>
  <path d="M24.15 12.75 c-0.15 -4.75 -2.40 -7.75 -5.85 -7.75 -0.70 0 -1.30 -0.20 -1.30 -0.45 0 -0.25 -0.40 -0.40 -0.85 -0.30 -0.50 0.05 -0.60 0 -0.25 -0.10 0.30 -0.15 0.60 -0.50 0.60 -0.80 0 -0.40 1.10 -0.65 2.90 -0.75 3.55 -0.15 6.10 0.90 7.35 3.05 0.50 0.90 1.90 2.65 3.10 3.95 2.20 2.40 2.90 4.90 1.40 4.90 -0.40 0 -0.75 -0.30 -0.75 -0.65 0 -0.90 -1.80 -2.50 -2.40 -2.15 -0.25 0.15 -0.75 -0.05 -1.10 -0.45 -1.05 -1.30 -1.50 -0.85 -1.50 1.50 0 3.10 -1.20 3.10 -1.35 0z m2.90 -5.40 c-0.65 -0.60 -1 -0.75 -0.80 -0.35 0.70 1.30 1.40 2.05 1.65 1.75 0.15 -0.15 -0.25 -0.80 -0.85 -1.40z"/>
  <path d="M15 12.20 c0 -0.70 0.15 -0.70 0.75 -0.20 0.40 0.35 0.75 0.70 0.75 0.80 0 0.10 -0.35 0.20 -0.75 0.20 -0.40 0 -0.75 -0.35 -0.75 -0.80z"/>
  <path d="M16.60 8.40 c-0.70 -0.70 -0.80 -2.40 -0.15 -2.40 0.25 0 0.55 0.40 0.75 0.90 0.15 0.45 0.45 1.15 0.60 1.50 0.35 0.75 -0.40 0.80 -1.20 0z"/>
 </g>
 <g fill="#72667f">
  <path d="M23 39.50 c0 -0.25 -0.45 -0.50 -0.95 -0.50 -1.30 0 -1.55 -0.95 -1.55 -5.55 0 -4.15 0.55 -5 1.45 -2.35 0.30 0.85 0.65 1.45 0.80 1.30 0.25 -0.25 -0.80 -2.80 -3.35 -8.30 -1.10 -2.35 -0.90 -3.15 0.40 -2.05 0.80 0.65 0.80 0.60 0.25 -0.50 -0.45 -0.85 -0.50 -1.30 -0.10 -1.70 0.40 -0.40 0.55 -0.30 0.55 0.30 0 0.45 1.15 1.95 2.55 3.40 2.25 2.30 2.60 2.50 3.35 1.85 1.85 -1.60 2.10 -1.55 2.10 0.55 0 1.85 -0.10 2.05 -1.25 2.05 -1.40 0 -1.75 1.30 -0.45 1.60 1 0.20 3.25 5.75 3.10 7.65 -0.15 1.30 -0.35 1.50 -1.80 1.65 -0.90 0.10 -2 -0.10 -2.40 -0.45 -0.55 -0.45 -0.70 -0.40 -0.70 0.50 0 0.70 -0.30 1.05 -1 1.05 -0.55 0 -1 -0.20 -1 -0.50z m1.25 -10.85 c-1.30 -2.40 -2.70 -4.75 -3.15 -5.15 -0.70 -0.65 -0.75 -0.65 -0.20 0.05 0.30 0.45 0.95 1.80 1.35 3 0.75 2.15 3.80 7.05 4.15 6.70 0.10 -0.10 -0.90 -2.15 -2.15 -4.60z"/>
  <path d="M37.80 39.25 c0.20 -0.40 0.50 -0.75 0.75 -0.75 0.25 0 0.45 0.35 0.45 0.75 0 0.40 -0.35 0.75 -0.75 0.75 -0.45 0 -0.60 -0.30 -0.45 -0.75z"/>
  <path d="M39 36.50 c0 -0.55 0.25 -1 0.50 -1 0.30 0 0.50 0.45 0.50 1 0 0.55 -0.20 1 -0.50 1 -0.25 0 -0.50 -0.45 -0.50 -1z"/>
  <path d="M6.75 23.95 c-0.30 -0.45 -0.15 -0.55 0.45 -0.30 0.50 0.20 1.80 0.10 2.90 -0.20 1.10 -0.30 2.70 -0.55 3.50 -0.55 1.30 -0.05 1.40 -0.15 1.15 -1.50 -0.20 -0.75 -0.15 -1.40 0.10 -1.40 1.30 0.05 2.65 2.50 1.40 2.50 -0.40 0 -0.75 0.35 -0.75 0.75 0 0.55 -0.55 0.75 -1.95 0.75 -1.05 0 -2.90 0.15 -4.15 0.30 -1.60 0.25 -2.40 0.15 -2.65 -0.35z"/>
  <path d="M3.75 21.70 c-0.45 -0.70 -0.70 -1.65 -0.60 -2.10 0.15 -0.75 0.25 -0.70 0.60 0.15 0.20 0.55 0.70 1.35 1.10 1.85 0.40 0.45 0.50 0.90 0.25 1.10 -0.30 0.15 -0.85 -0.30 -1.35 -1z"/>
  <path d="M6.50 21.75 c-0.30 -0.40 -0.45 -0.95 -0.25 -1.25 0.20 -0.30 0.15 -0.50 -0.10 -0.45 -1.40 0.25 -1.65 -0.15 -0.60 -0.95 1.25 -1.05 1.05 -2.65 -0.40 -2.50 -2.20 0.15 -3.10 -0.10 -2.85 -0.85 0.20 -0.40 0.60 -0.75 1 -0.75 0.35 0 0.90 -0.40 1.15 -0.95 0.30 -0.50 0.95 -1.05 1.50 -1.20 0.75 -0.20 1 0.10 1.25 1.25 0.15 0.85 0.30 1.95 0.30 2.50 0 0.55 0.55 1.45 1.25 2 0.80 0.65 1.25 1.45 1.25 2.45 0 1.25 -0.20 1.45 -1.45 1.45 -0.80 0 -1.70 -0.35 -2.05 -0.75z"/>
  <path d="M32.35 17.90 c0.45 -1.20 0.85 -2.20 0.90 -2.30 0.10 -0.10 0.70 0.85 1.40 2.10 l1.30 2.30 -2.25 0 -2.20 0 0.85 -2.10z"/>
  <path d="M9.60 9.40 c0.65 -0.85 1.95 -2.15 2.85 -2.85 l1.65 -1.25 -0.20 1.50 c-0.10 1.05 -0.45 1.50 -1.25 1.60 -0.85 0.15 -1.15 0.50 -1.15 1.40 0 1 -0.25 1.20 -1.55 1.20 l-1.60 0 1.25 -1.60z"/>
  <path d="M16.95 8.45 c-0.55 -0.55 -0.90 -1.15 -0.80 -1.30 0.35 -0.30 2.85 1.35 2.85 1.90 0 0.75 -0.95 0.50 -2.05 -0.60z"/>
 </g>
 <g fill="#ac704a">
  <path d="M38.05 39.70 c-0.05 -0.85 1.45 -4.35 1.75 -4.05 0.15 0.15 -0.15 1.25 -0.70 2.45 -0.55 1.15 -1.05 1.90 -1.05 1.60z"/>
  <path d="M36.45 31.70 c0 -2.15 -0.15 -5.25 -0.25 -6.80 -0.15 -1.75 0 -2.90 0.30 -2.90 0.25 0 0.50 1.10 0.50 2.50 0 2 0.20 2.55 1.05 3 0.55 0.35 0.90 0.90 0.75 1.25 -0.15 0.45 0 0.60 0.50 0.40 0.55 -0.20 0.70 0.20 0.70 1.55 0 1 -0.20 1.80 -0.50 1.80 -0.25 0 -0.50 0.45 -0.50 0.95 0 0.55 -0.20 1.10 -0.45 1.25 -0.25 0.20 -0.35 -0.65 -0.25 -1.80 l0.25 -2.15 -0.85 2.25 c-0.45 1.25 -0.90 2.35 -1 2.45 -0.10 0.10 -0.20 -1.55 -0.25 -3.75z"/>
  <path d="M33.50 29.50 c0 -1.10 0.25 -2 0.50 -2 0.30 0 0.55 -1.30 0.60 -2.85 0.05 -2.70 0.10 -2.60 0.40 1.10 0.30 3.90 -0.05 5.75 -1 5.75 -0.30 0 -0.50 -0.90 -0.50 -2z"/>
  <path d="M39 25.75 c0 -0.40 0.25 -0.75 0.50 -0.75 0.30 0 0.50 0.35 0.50 0.75 0 0.40 -0.20 0.75 -0.50 0.75 -0.25 0 -0.50 -0.35 -0.50 -0.75z"/>
  <path d="M12.50 17.75 c0 -1.95 1.20 -2.45 1.65 -0.70 0.35 1.35 -0.05 2.45 -0.95 2.45 -0.45 0 -0.70 -0.60 -0.70 -1.75z"/>
  <path d="M30.50 13.25 c-0.35 -0.65 -1.40 -1.75 -2.35 -2.35 -0.90 -0.65 -1.65 -1.30 -1.65 -1.50 0 -0.60 1.25 -0.45 2 0.25 0.40 0.30 0.30 -0.05 -0.25 -0.90 l-0.90 -1.50 1.65 1.50 c1.70 1.60 3 3.75 3 5 0 1.15 -0.75 0.90 -1.50 -0.50z"/>
  <path d="M24 10.15 c0 -1.10 0.10 -1.25 0.50 -0.65 0.65 1 0.65 2 0 2 -0.25 0 -0.50 -0.60 -0.50 -1.35z"/>
  <path d="M17.10 8.50 c-1.15 -1.05 -1.50 -2.50 -0.60 -2.50 0.30 0 0.50 0.35 0.50 0.75 0 0.40 0.70 1.05 1.50 1.50 1.70 0.90 1.90 1.25 0.60 1.25 -0.50 0 -1.40 -0.45 -2 -1z"/>
  <path d="M13.60 5.70 c2.25 -2.25 3.60 -2.10 1.65 0.20 -0.75 0.90 -1.80 1.60 -2.40 1.60 -0.95 0 -0.90 -0.20 0.75 -1.80z"/>
  <path d="M26.75 6.50 c-0.20 -0.30 -0.80 -0.40 -1.30 -0.25 -0.55 0.20 -1.30 0.05 -1.70 -0.25 -0.40 -0.35 -1.10 -0.50 -1.50 -0.30 -0.45 0.15 -1.35 -0.05 -2 -0.50 -0.65 -0.45 -1.65 -0.65 -2.15 -0.50 -0.65 0.25 -1.10 0.05 -1.30 -0.50 -0.45 -1.20 -0.25 -1.30 3.35 -1.35 2.60 -0.10 3.55 0.10 4.65 0.90 1.35 1 3.10 3.25 2.55 3.25 -0.15 0 -0.45 -0.25 -0.60 -0.50z"/>
 </g>
 <g fill="#8b7d92">
  <path d="M23.10 39.25 c-1.45 -1.70 -3.40 -10.30 -2.15 -9.55 0.30 0.20 0.55 0.65 0.55 1 0 0.40 0.35 0.95 0.75 1.30 1.05 0.85 0.95 0 -0.20 -2.35 -1.10 -2.15 -3.55 -7.65 -3.55 -7.95 0 -0.10 0.20 -0.20 0.50 -0.20 0.60 0 2.05 2.80 4.30 8.35 1.80 4.55 3.95 7.85 4.75 7.40 0.25 -0.20 0.25 -0.70 -0.10 -1.30 -0.25 -0.55 -0.85 -1.90 -1.20 -3 -0.70 -1.90 -0.70 -1.95 0.45 -1.95 0.70 0 1.30 0.40 1.50 0.90 0.15 0.45 0.95 1.85 1.75 3.10 0.80 1.25 1.50 2.85 1.50 3.65 0.05 1.35 0 1.35 -2.95 1.35 -2.95 0 -3.05 -0.05 -3.75 -1.60 l-0.70 -1.65 -0.05 1.65 c0 1.75 -0.40 1.95 -1.40 0.85z"/>
  <path d="M32 33.25 c0 -1.55 0.15 -1.75 1.30 -1.75 0.70 0 1.20 0.15 1.10 0.40 -1.75 3.65 -2.40 4 -2.40 1.35z"/>
  <path d="M23.85 27.75 c-0.75 -1.55 -1.35 -2.90 -1.35 -3 0 -0.15 0.90 0.20 2 0.75 2.05 1.05 2.60 2 1.20 2 -0.65 0 -0.75 0.35 -0.50 1.50 0.15 0.85 0.20 1.50 0.15 1.50 -0.10 0 -0.75 -1.25 -1.50 -2.75z"/>
  <path d="M33 25.25 c0 -1.40 0.20 -1.75 1 -1.75 0.80 0 1 0.35 1 1.75 0 1.40 -0.20 1.75 -1 1.75 -0.80 0 -1 -0.35 -1 -1.75z"/>
  <path d="M27 25.50 c0 -0.55 0.10 -1 0.20 -1 0.10 0 0.55 -0.15 1 -0.30 0.60 -0.25 0.80 0 0.80 1 0 0.95 -0.25 1.30 -1 1.30 -0.65 0 -1 -0.35 -1 -1z"/>
  <path d="M6.85 24.20 c-0.15 -0.25 0.45 -0.50 1.30 -0.55 3.25 -0.15 6.85 -0.80 6.85 -1.20 0 -0.25 0.50 -0.45 1.10 -0.45 1 0 1 0.05 0.20 0.95 -0.55 0.60 -1.50 0.95 -2.45 0.90 -0.90 0 -2.75 0.15 -4.15 0.35 -1.40 0.25 -2.70 0.20 -2.85 0z"/>
  <path d="M21.05 22.70 c-1.50 -1.90 -1.30 -2.75 0.20 -0.95 1.15 1.40 1.55 2.25 1.05 2.25 -0.15 0 -0.70 -0.60 -1.25 -1.30z"/>
  <path d="M6.75 21.95 c-0.20 -0.30 -0.20 -0.65 -0.05 -0.80 0.15 -0.20 0.30 -0.05 0.30 0.25 0 0.35 0.35 0.60 0.75 0.60 1 0 0.95 -0.65 -0.20 -1.70 -0.55 -0.50 -1.25 -0.70 -1.85 -0.45 -0.90 0.35 -0.90 0.30 -0.05 -0.55 0.95 -0.95 1 -1.30 0.55 -2.50 -0.25 -0.60 -0.50 -0.70 -0.95 -0.30 -0.35 0.30 -1 0.40 -1.45 0.20 -1 -0.40 -1.05 -1.70 -0.05 -1.70 0.40 0 0.75 -0.35 0.75 -0.75 0 -0.40 0.10 -0.75 0.20 -0.75 0.10 0 0.55 -0.15 1 -0.30 0.60 -0.20 0.80 0 0.80 0.75 0 0.60 0.30 1.05 0.75 1.05 0.45 0 0.75 0.45 0.75 1.20 0 0.70 0.85 2.05 2.10 3.35 2.10 2.15 2.10 2.15 0.90 2.50 -1.95 0.55 -3.90 0.50 -4.25 -0.10z"/>
  <path d="M30.50 21.70 c0 -0.60 1.70 -3.20 2.10 -3.20 0.20 0 0.40 0.80 0.40 1.75 0 1.55 -0.15 1.75 -1.25 1.75 -0.70 0 -1.25 -0.15 -1.25 -0.30z"/>
  <path d="M34 19.65 c0 -1.75 0 -1.80 1 -0.90 0.55 0.50 1 1.30 1 1.85 0 0.55 -0.35 0.90 -1 0.90 -0.80 0 -1 -0.35 -1 -1.85z"/>
  <path d="M32.85 15.95 c-0.20 -0.80 -0.15 -0.90 0.45 -0.40 0.80 0.65 0.95 1.45 0.25 1.45 -0.25 0 -0.55 -0.45 -0.70 -1.05z"/>
 </g>
 <g fill="#c78658">
  <path d="M36.85 32.50 c-0.45 -1.25 -0.65 -10.50 -0.25 -10.50 0.20 0 0.40 1.45 0.40 3.20 0 3.05 0.60 4.60 1.15 3.20 0.40 -1 -0.25 2.70 -0.70 3.85 -0.25 0.80 -0.40 0.85 -0.60 0.25z"/>
  <path d="M38.85 31.20 c-0.40 -0.40 0.15 -1.70 0.70 -1.70 0.25 0 0.45 0.45 0.45 1 0 0.95 -0.55 1.30 -1.15 0.70z"/>
  <path d="M34.55 22.90 c-0.05 -1.85 0.15 -2.40 0.70 -2.40 0.85 0 1 0.55 0.30 1.30 -0.25 0.25 -0.55 1.15 -0.70 1.95 -0.15 1.05 -0.20 0.80 -0.30 -0.85z"/>
  <path d="M13.90 20.80 c-1.60 -1.30 -2 -4.30 -0.65 -4.30 0.70 0 0.95 0.80 0.80 2.50 -0.05 0.40 0.45 1 1.05 1.25 0.60 0.30 1.15 0.80 1.30 1.15 0.30 1 -1.05 0.70 -2.50 -0.60z"/>
  <path d="M30.80 13.10 c-0.50 -0.60 -0.80 -1.45 -0.70 -1.95 0.15 -0.75 0.30 -0.70 1.10 0.45 1.15 1.75 0.85 2.85 -0.40 1.50z"/>
  <path d="M17 8.25 c-1.45 -1.50 -1 -2.25 0.45 -0.80 0.60 0.60 1.30 1.05 1.55 1.05 0.30 0 0.50 0.25 0.50 0.50 0 0.90 -1.30 0.50 -2.50 -0.75z"/>
  <path d="M14.50 5.70 c0 -0.60 0.35 -1.25 0.80 -1.40 1.25 -0.50 1.35 -0.05 0.25 1.25 -1 1.20 -1 1.20 -1.05 0.15z"/>
  <path d="M25.30 5.25 c-0.85 -0.65 -1.65 -1.10 -1.90 -0.95 -0.20 0.15 -0.40 0.05 -0.40 -0.20 0 -0.60 -2.30 -1.10 -2.85 -0.60 -0.20 0.20 -1 0.50 -1.75 0.70 -1.05 0.25 -1.30 0.15 -1.10 -0.40 0.40 -1.05 4.30 -1.50 6.30 -0.65 1.60 0.70 3.75 2.65 3.35 3.05 -0.10 0.10 -0.85 -0.30 -1.65 -0.95z"/>
 </g>
 <g fill="#9a8da5">
  <path d="M22.60 37.65 c-1.15 -2.45 -2.30 -7.60 -1.85 -8.05 0.15 -0.15 0.50 0.45 0.80 1.30 0.30 0.85 0.85 1.65 1.30 1.80 0.50 0.20 0.65 0.10 0.50 -0.30 -3.15 -7.20 -4.05 -9.25 -4.50 -9.75 -0.30 -0.45 -0.30 -0.65 0.10 -0.65 0.65 0 1.60 1.75 4 7.65 1 2.55 2.70 5.80 3.70 7.20 1 1.45 1.85 2.75 1.85 2.90 0 0.55 -2.95 0.20 -3.15 -0.35 -0.20 -0.50 -0.30 -0.50 -0.30 0 -0.10 1.40 -1.45 0.45 -2.45 -1.75z"/>
  <path d="M30.05 38.10 c-0.65 -1 -1.60 -2.40 -2.05 -3.10 -0.45 -0.70 -0.95 -1.65 -1.15 -2.15 -0.30 -0.75 -0.10 -0.90 1 -0.75 1.65 0.20 4.05 3.85 4.10 6.30 0.05 2.10 -0.40 2 -1.90 -0.30z"/>
  <path d="M24.15 28.20 c-1.25 -2.75 -1.25 -3.80 -0.05 -2.85 1.30 1.05 2.90 1.25 2.90 0.45 0 -0.45 0.55 -1.15 1.30 -1.60 0.70 -0.45 1.60 -1.50 2 -2.25 1 -1.95 1.70 -1.80 1.70 0.30 0 1.40 -0.20 1.75 -1 1.75 -0.65 0 -1 0.35 -1 1 0 0.55 -0.20 1 -0.50 1 -0.25 0 -0.50 0.45 -0.50 1 0 0.75 -0.35 1 -1.25 1 -1.05 0 -1.25 0.25 -1.25 1.50 0 2.30 -0.90 1.80 -2.35 -1.30z"/>
  <path d="M33 25.50 c0 -2.10 0.15 -2.50 0.95 -2.50 0.80 0 0.95 0.40 0.95 2.50 0.05 2.15 -0.10 2.50 -0.95 2.50 -0.80 0 -0.95 -0.35 -0.95 -2.50z"/>
  <path d="M9.50 23.75 c1.50 -0.40 3.20 -0.70 3.75 -0.70 l1 0 -1 0.40 c-0.55 0.25 -2.25 0.55 -3.75 0.75 l-2.75 0.30 2.75 -0.75z"/>
  <path d="M3.80 21.55 c-0.50 -0.55 -0.80 -1.25 -0.70 -1.55 0.10 -0.30 0.70 0.15 1.30 0.95 1.25 1.70 0.75 2.10 -0.60 0.60z"/>
  <path d="M9 21.80 c0 -1.20 -1.85 -2.40 -3.05 -2.05 -1.10 0.35 -1.10 0.35 -0.30 -0.45 0.45 -0.50 0.85 -1.20 0.85 -1.60 0 -1.10 1.25 -0.85 2.95 0.60 1.80 1.50 2.05 3.45 0.55 3.85 -0.60 0.15 -1 0 -1 -0.35z"/>
  <path d="M32.50 19.75 c0 -1.40 0.20 -1.75 0.95 -1.75 1 0 2.55 1.75 2.55 2.85 0 0.40 -0.65 0.65 -1.75 0.65 -1.65 0 -1.75 -0.10 -1.75 -1.75z"/>
  <path d="M3.40 16.65 c-1.70 -0.40 -1 -1.65 0.85 -1.65 0.95 0 1.75 0.20 1.75 0.50 0 0.65 -1.60 1.35 -2.60 1.15z"/>
  <path d="M8.85 10.25 c3.25 -3.65 5 -4.30 4.45 -1.70 -0.15 0.85 -0.30 1.75 -0.30 2 0 0.25 -0.80 0.45 -1.75 0.45 -1.55 0 -1.75 0.15 -1.75 1.25 0 1.10 -0.20 1.25 -1.80 1.25 l-1.75 0 2.90 -3.25z"/>
  <path d="M17.50 8.75 c-0.80 -0.95 0 -0.95 1.30 0 0.80 0.60 0.80 0.70 0.15 0.75 -0.45 0 -1.10 -0.35 -1.45 -0.75z"/>
 </g>
 <g fill="#d79d70">
  <path d="M11.50 11.75 c0 -2.30 1.15 -2.30 1.85 0 0.55 1.65 0.50 1.75 -0.65 1.75 -1.05 0 -1.20 -0.25 -1.20 -1.75z"/>
  <path d="M31.10 12.90 c-0.70 -0.70 -0.80 -2.10 -0.15 -1.70 0.35 0.25 1.15 2.30 0.85 2.30 -0.05 0 -0.35 -0.25 -0.70 -0.60z"/>
  <path d="M14 5.45 c1.05 -0.95 1.80 -1.35 1.90 -1 0.30 0.90 -1.40 2.55 -2.60 2.55 -0.90 0 -0.80 -0.20 0.70 -1.55z"/>
  <path d="M25.70 5.45 c-0.15 -0.30 -1 -0.95 -1.90 -1.50 -0.85 -0.50 -1.30 -0.95 -1.05 -0.95 0.80 0 3.75 1.95 3.75 2.50 0 0.65 -0.35 0.65 -0.80 -0.05z"/>
 </g>
 <g fill="#aba3b8">
  <path d="M23.70 39.15 c-0.20 -0.50 -0.85 -2.10 -1.50 -3.55 -0.65 -1.45 -1.15 -3.35 -1.15 -4.25 0.05 -1.15 0.15 -1.30 0.30 -0.45 0.10 0.60 0.85 1.45 1.65 1.85 0.75 0.40 2 1.80 2.75 3.10 0.75 1.30 1.75 2.80 2.15 3.30 0.70 0.75 0.65 0.85 -0.05 0.85 -0.50 0 -0.85 -0.35 -0.85 -0.75 0 -0.40 -0.35 -0.75 -0.75 -0.75 -0.40 0 -0.75 0.35 -0.75 0.75 0 1.05 -1.45 0.95 -1.80 -0.10z"/>
  <path d="M30.45 38.20 c-0.70 -1.05 -2.25 -3.40 -3.40 -5.15 -1.15 -1.75 -2.15 -3.60 -2.20 -4.10 -0.05 -0.55 -0.25 -0.95 -0.45 -0.95 -0.20 0 -0.40 -0.55 -0.40 -1.25 0 -1.10 0.10 -1.20 1.30 -0.75 1.75 0.70 2.35 0.60 2.05 -0.20 -0.15 -0.35 0.35 -1.10 1.10 -1.70 1.40 -1 3.90 -5.20 4.50 -7.55 0.30 -1.10 0.50 -0.95 1.75 1.60 1.25 2.40 1.35 2.95 0.80 3.60 -0.45 0.50 -0.65 2.05 -0.65 4.05 0 2.80 -0.10 3.20 -0.90 3.20 -0.85 0 -0.95 -0.45 -1.05 -3.60 -0.05 -3.15 -0.10 -3.35 -0.35 -1.40 -0.30 2.10 -0.45 2.35 -2.80 3.50 -1.35 0.70 -2.60 1.30 -2.70 1.35 -0.10 0.05 0.20 0.45 0.65 0.90 0.45 0.45 0.80 1 0.80 1.20 0 0.25 0.55 1 1.25 1.75 0.70 0.75 1.25 1.10 1.25 0.85 0 -0.30 0.55 -0.55 1.25 -0.55 1.40 0 1.60 0.60 0.55 1.65 -0.40 0.40 -0.80 1.80 -0.90 3.10 l-0.15 2.45 -1.30 -2z"/>
  <path d="M38 39.30 c0 -0.45 1.55 -3.80 1.75 -3.80 0.15 0 0.25 0.90 0.25 2 0 1.65 -0.15 2 -1 2 -0.55 0 -1 -0.10 -1 -0.20z"/>
  <path d="M10.75 23.50 c0.55 -0.25 1.75 -0.45 2.65 -0.45 1.85 -0.05 2.30 -1.45 0.60 -1.90 -0.85 -0.25 -1.50 -1.65 -0.75 -1.65 0.75 0 3.15 1.55 3.40 2.20 0.45 1.15 -0.85 1.85 -4 2.05 -1.85 0.10 -2.55 0 -1.90 -0.25z"/>
  <path d="M8.15 20.15 c-0.90 -0.95 -1.65 -1.85 -1.65 -1.95 0 -0.10 0.75 -0.20 1.65 -0.20 2.05 0 3.15 0.85 3.45 2.65 0.20 1.15 0.10 1.35 -0.80 1.30 -0.55 -0.05 -1.80 -0.85 -2.65 -1.80z"/>
  <path d="M2.10 15.90 c0.15 -0.35 0.75 -0.75 1.35 -0.90 0.60 -0.15 1.10 -0.45 1.05 -0.70 -0.05 -0.20 0.65 -0.85 1.55 -1.40 0.90 -0.55 2.10 -1.60 2.65 -2.30 1.65 -2.15 3.70 -4.10 4.25 -4.10 0.70 0 0.70 1.40 0 3.45 -0.40 1.15 -0.85 1.55 -1.75 1.55 -0.75 0 -1.20 0.30 -1.20 0.75 0 0.50 -0.55 0.75 -1.75 0.75 -1.65 0 -1.75 0.10 -1.75 1.65 0 1.60 -0.05 1.65 -2.30 1.80 -1.70 0.05 -2.25 -0.05 -2.10 -0.55z"/>
 </g>
 <g fill="#e9b894">
  <path d="M15 21.45 c0 -0.35 -0.55 -0.45 -1.50 -0.25 -1.45 0.25 -1.50 0.20 -1.50 -1.45 0 -1.40 0.20 -1.75 1 -1.75 0.65 0 1 0.35 1 0.95 0 0.55 0.45 1.10 0.95 1.30 1.20 0.35 1.80 1.75 0.80 1.75 -0.40 0 -0.75 -0.25 -0.75 -0.55z"/>
  <path d="M11.80 14.20 c-0.55 -1.40 -0.35 -3.70 0.35 -3.70 0.60 0 1.85 2.60 1.85 3.90 0 0.90 -1.85 0.70 -2.20 -0.20z"/>
  <path d="M17.70 8.75 c-0.50 -0.40 -0.70 -0.75 -0.40 -0.75 0.25 0 0.95 0.35 1.50 0.75 0.50 0.40 0.70 0.75 0.40 0.75 -0.25 0 -0.95 -0.35 -1.50 -0.75z"/>
  <path d="M11.55 7.65 c0.05 -0.70 4.45 -3.65 4.45 -3 -0.05 1.05 -2.40 3.35 -3.50 3.35 -0.55 0 -1 -0.15 -0.95 -0.35z"/>
 </g>
 <g fill="#c0b8ce">
  <path d="M24.10 39.15 c-0.25 -0.50 -0.65 -1.80 -0.85 -2.90 -0.15 -1.10 -0.70 -2.40 -1.10 -2.85 -0.95 -1.05 -0.70 -1.10 1 -0.35 0.90 0.40 3.85 4.45 4.75 6.55 0.10 0.25 -0.60 0.40 -1.60 0.40 -1.15 0 -1.90 -0.30 -2.20 -0.85z"/>
  <path d="M38 39.30 c0 -0.40 0.25 -0.90 0.50 -1.05 0.30 -0.15 0.50 -0.75 0.50 -1.30 0 -0.50 0.25 -0.95 0.50 -0.95 0.30 0 0.50 0.90 0.50 2 0 1.65 -0.15 2 -1 2 -0.55 0 -1 -0.30 -1 -0.70z"/>
  <path d="M30.05 36.65 c-0.95 -1.45 -1.90 -2.65 -2.10 -2.65 -0.20 0 -0.55 -0.45 -0.70 -1 -0.15 -0.55 -0.60 -1.30 -1 -1.65 -0.60 -0.65 -3.25 -5.55 -3.25 -6.10 0 -0.15 0.85 0.15 1.90 0.70 1.80 0.95 1.90 0.95 3.70 0 1 -0.50 2 -1.15 2.15 -1.45 0.45 -0.75 -0.10 -0.60 -1.55 0.30 -2.10 1.40 -1.85 0.45 0.55 -1.95 1.25 -1.25 2.25 -2.75 2.25 -3.30 0 -0.55 0.50 -1.25 1.05 -1.60 1.10 -0.55 1.25 -0.50 2.45 1.60 0.55 0.95 -0.95 5.45 -1.80 5.45 -0.35 0 -0.70 0.35 -0.85 0.75 -0.40 0.95 -4 2.75 -5.70 2.80 -0.80 0 -1.10 0.15 -0.65 0.30 1.05 0.45 2 1.45 2 2.25 0 0.80 2.25 1.90 3.85 1.90 1.30 0 1.50 0.60 0.45 1.50 -0.40 0.30 -0.80 1.50 -0.90 2.65 l-0.15 2.10 -1.70 -2.60z m4.45 -17.20 c-0.35 -0.55 -0.70 -0.95 -0.80 -0.80 -0.35 0.35 0.35 1.85 0.85 1.85 0.30 0 0.25 -0.45 -0.05 -1.05z"/>
  <path d="M3.70 21.25 c-0.45 -0.70 -0.75 -1.35 -0.65 -1.50 0.15 -0.10 0.60 0.50 1.05 1.30 1.05 1.80 0.75 1.95 -0.40 0.20z"/>
  <path d="M10 21.25 c0 -0.45 -0.80 -1.15 -1.70 -1.60 -1.25 -0.55 -1.80 -1.20 -1.90 -2.10 -0.15 -1.20 -0.30 -1.25 -2.25 -1.15 -1.80 0.15 -2.10 0.05 -1.85 -0.60 0.15 -0.45 0.85 -0.80 1.55 -0.80 0.85 0 1.15 -0.20 1 -0.65 -0.15 -0.40 0.45 -1.05 1.40 -1.55 0.90 -0.50 2.35 -1.90 3.25 -3.10 1.80 -2.50 4.50 -4.30 4.50 -2.95 0 0.40 -0.60 1.90 -1.30 3.25 -1 1.95 -1.55 2.50 -2.50 2.50 -0.75 0 -1.20 0.30 -1.20 0.75 0 0.40 -0.45 0.75 -1 0.75 -0.80 0 -1 0.35 -1 1.50 0 1.25 0.20 1.50 1.20 1.50 0.65 0 1.90 0.70 2.80 1.50 0.90 0.85 1.80 1.50 2.05 1.50 0.80 0 0.45 0.95 -0.50 1.50 -1.40 0.75 -2.55 0.60 -2.55 -0.25z m2 -12.85 c0 -0.30 -0.35 -0.25 -0.75 0.10 -0.40 0.35 -0.75 0.85 -0.75 1.10 0 0.30 0.35 0.25 0.75 -0.10 0.40 -0.35 0.75 -0.85 0.75 -1.10z"/>
 </g>
 <g fill="#d7d0de">
  <path d="M24.25 37.65 c-0.45 -1.35 -1.05 -2.90 -1.30 -3.55 -0.40 -1 -0.35 -1.10 0.50 -0.60 0.55 0.25 1.45 1.35 2.10 2.35 0.65 1.05 1.45 2.40 1.85 3.05 0.70 1.05 0.65 1.10 -0.80 1.10 -1.35 0 -1.60 -0.25 -2.35 -2.35z"/>
  <path d="M38 39.75 c0 -0.60 1.20 -2.75 1.60 -2.75 0.20 0 0.40 0.70 0.40 1.50 0 1.15 -0.20 1.50 -1 1.50 -0.55 0 -1 -0.10 -1 -0.25z"/>
  <path d="M29.05 34.60 c-1.10 -1.10 -2.05 -2.15 -2.05 -2.40 0 -0.20 -0.40 -0.85 -0.95 -1.40 -0.50 -0.60 -1.40 -2.10 -1.95 -3.35 l-1 -2.30 2 0.95 c1.95 0.95 1.95 0.95 4.05 -0.20 2.10 -1.15 2.95 -2.70 1.85 -3.40 -0.40 -0.25 -0.25 -1.05 0.70 -2.90 0.70 -1.40 1.30 -2.95 1.30 -3.45 0.05 -0.50 0.70 0.35 1.45 1.85 1.35 2.60 1.40 2.85 0.70 4.20 -0.55 1.10 -0.70 2.30 -0.45 4.40 0.25 2.65 0.20 2.90 -0.70 2.90 -0.55 0 -1 -0.30 -1 -0.60 0 -0.45 -0.20 -0.40 -0.50 0.10 -0.75 1.15 -0.60 1.50 0.50 1.50 0.70 0 1 0.35 1 1.15 0 1.45 -1.40 3.45 -2.10 3.05 -0.30 -0.20 -0.40 -0.15 -0.25 0.10 0.15 0.30 0.10 0.80 -0.10 1.15 -0.35 0.50 -0.95 0.15 -2.50 -1.35z m5.95 -14.60 c0 -0.20 -0.35 -0.65 -0.75 -1 -0.65 -0.55 -0.75 -0.40 -0.75 0.65 0 0.95 0.20 1.25 0.75 1.05 0.40 -0.20 0.75 -0.50 0.75 -0.70z"/>
  <path d="M13.90 23.15 c0.70 -0.15 1.10 -0.60 1.10 -1.25 0 -0.85 -0.25 -1 -1.35 -0.75 -0.80 0.15 -1.75 0.40 -2.15 0.55 -0.50 0.20 -0.95 -0.10 -1.25 -0.80 -0.30 -0.60 -1.20 -1.45 -2.10 -1.85 -0.90 -0.45 -1.65 -1.25 -1.75 -1.80 -0.15 -0.85 -0.45 -0.95 -2.10 -0.85 -1.45 0.15 -1.85 0 -1.70 -0.50 0.15 -0.35 0.85 -0.70 1.60 -0.80 1.10 -0.15 1.25 -0.30 0.80 -0.85 -0.45 -0.50 -0.30 -0.75 0.50 -1 0.55 -0.15 1.70 -0.90 2.50 -1.60 0.85 -0.65 1.50 -1.05 1.50 -0.85 0 0.20 0.70 -0.25 1.50 -1.05 0.85 -0.80 1.40 -1.75 1.30 -2.10 -0.25 -0.65 1.55 -1.95 2.05 -1.50 0.10 0.15 -0.15 0.95 -0.55 1.80 -0.45 0.80 -0.80 2.20 -0.80 3 0 1.50 -1.60 3.60 -3.20 4.20 -1.15 0.45 -1 1 0.70 2.25 0.85 0.65 1.50 0.90 1.50 0.60 0 -0.25 0.50 -0.50 1.05 -0.50 0.85 0 1 0.25 0.85 1.25 -0.20 1 -0.05 1.30 0.90 1.55 1.20 0.30 2 1.80 1.45 2.70 -0.15 0.25 -1.05 0.45 -1.90 0.45 -1.20 -0.05 -1.30 -0.15 -0.45 -0.30z"/>
 </g>
 <g fill="#eae7f2">
  <path d="M25.05 37.25 c-0.90 -1.50 -1.55 -2.95 -1.45 -3.30 0.15 -0.50 3.90 5 3.90 5.75 0 0.95 -1 -0.05 -2.45 -2.45z"/>
  <path d="M38 39.80 c0 -0.10 0.40 -1.05 0.85 -2.10 0.80 -1.80 0.85 -1.85 1.05 -0.70 0.10 0.65 -0.05 1.30 -0.35 1.40 -0.30 0.10 -0.55 0.50 -0.55 0.90 0 0.40 -0.20 0.70 -0.50 0.70 -0.25 0 -0.50 -0.10 -0.50 -0.20z"/>
  <path d="M32.30 33.15 l0.25 -1.40 -0.95 1.15 c-1.40 1.50 -1.80 1.40 -1.40 -0.45 0.15 -0.90 0.10 -1.85 -0.20 -2.20 -0.35 -0.40 -0.05 -1.20 0.95 -2.65 0.80 -1.10 1.75 -2.90 2.05 -4.05 0.30 -1.15 1 -2.25 1.60 -2.60 0.95 -0.50 1 -0.45 0.60 0.35 -0.25 0.55 -0.45 3 -0.45 5.45 0 3.35 -0.25 4.90 -0.90 6.15 -1.05 1.95 -2 2.10 -1.55 0.25z"/>
  <path d="M27.25 32.35 c-0.20 -0.50 -0.25 -1.05 -0.05 -1.20 0.50 -0.50 0.90 0.20 0.65 1.20 -0.20 0.85 -0.20 0.85 -0.60 0z"/>
  <path d="M25 28.75 c-0.65 -1.35 -1.30 -2.70 -1.40 -2.90 -0.10 -0.25 0.50 -0.10 1.30 0.35 0.85 0.45 1.90 0.80 2.35 0.80 0.40 0 0.75 0.25 0.75 0.55 0 0.35 -0.50 0.45 -1.25 0.35 -1.05 -0.20 -1.15 -0.15 -0.70 0.70 0.30 0.50 0.40 1.35 0.30 1.80 -0.10 0.55 -0.60 0 -1.35 -1.65z"/>
  <path d="M14.60 22.95 c0.50 -0.25 0.75 -0.80 0.60 -1.20 -0.35 -0.90 -1.85 -0.95 -3.25 -0.20 -0.80 0.40 -1 0.35 -0.85 -0.25 0.20 -0.95 -2.95 -3.35 -3.90 -2.95 -0.50 0.20 -0.70 -0.15 -0.70 -1.10 0 -1.20 -0.15 -1.30 -1.20 -1.05 -1.40 0.35 -2.90 -0.10 -2.50 -0.75 0.15 -0.25 0.95 -0.45 1.80 -0.45 1.20 0 1.40 -0.15 0.95 -0.65 -0.40 -0.55 -0.25 -0.80 0.70 -1.25 1 -0.45 1.25 -0.45 1.25 0.05 0 0.35 -0.25 0.90 -0.60 1.25 -0.40 0.40 -0.40 0.60 -0.05 0.60 0.30 0 0.65 -0.35 0.85 -0.75 0.15 -0.40 0.50 -0.75 0.75 -0.75 1.30 0 4.45 -4.65 4.20 -6.25 -0.05 -0.25 0.70 -1.15 1.65 -1.90 1.60 -1.35 2.45 -1.15 1.05 0.25 -0.35 0.35 -1.15 1.45 -1.75 2.50 -1.10 1.75 -1.10 1.85 -0.30 4.20 0.50 1.50 0.75 3.35 0.60 5.05 -0.20 2.45 -0.15 2.70 0.90 2.95 1.20 0.30 2 1.80 1.45 2.70 -0.15 0.25 -0.80 0.50 -1.40 0.50 -0.95 -0.05 -1 -0.10 -0.25 -0.55z"/>
  <path d="M31.70 19.80 c0.70 -1.30 1.30 -2.70 1.30 -3.10 0 -1 0.80 -0.45 1.15 0.75 0.15 0.65 0 0.90 -0.35 0.75 -0.40 -0.15 -0.80 0.50 -1.10 1.65 -0.30 1.20 -0.80 1.95 -1.35 2.05 -0.85 0.15 -0.80 -0.05 0.35 -2.10z"/>
 </g>
 <g fill="#f8f9fd">
  <path d="M38.05 39.90 c-0.05 -0.20 0.20 -0.95 0.55 -1.65 0.55 -1.25 1.40 -1.70 1.40 -0.75 0 0.30 -0.20 0.50 -0.40 0.50 -0.25 0 -0.70 0.50 -1 1.15 -0.30 0.60 -0.55 0.95 -0.55 0.75z"/>
  <path d="M32.50 33.80 c0 -0.15 0.35 -1.20 0.85 -2.35 0.65 -1.70 0.70 -2.25 0.20 -3.05 -0.70 -1.15 -0.30 -5.35 0.60 -6.60 0.80 -1.10 0.75 8.40 -0.05 10.30 -0.50 1.20 -1.60 2.35 -1.60 1.70z"/>
  <path d="M15 22.75 c0.85 -1.05 0.10 -1.90 -1.60 -1.65 -1.70 0.25 -2.20 -0.25 -1.15 -1.10 0.40 -0.35 0.75 -1.15 0.75 -1.85 0 -0.75 0.20 -1.10 0.55 -0.85 0.30 0.15 0.40 0.85 0.25 1.50 -0.25 0.95 -0.10 1.25 0.90 1.50 0.70 0.15 1.35 0.65 1.50 1.05 0.35 0.85 -0.50 2.15 -1.30 2.15 -0.30 0 -0.25 -0.30 0.10 -0.75z"/>
  <path d="M31 21.40 c0 -0.20 0.45 -1.10 1 -2 0.60 -1 1 -1.30 1 -0.85 0 0.80 -1.95 3.60 -2 2.85z"/>
  <path d="M6.75 17.50 c-0.15 -0.25 0.15 -0.50 0.75 -0.50 0.60 0 0.90 0.25 0.75 0.50 -0.15 0.30 -0.50 0.50 -0.75 0.50 -0.25 0 -0.60 -0.20 -0.75 -0.50z"/>
  <path d="M3.50 15.50 c0 -0.25 0.45 -0.50 1 -0.50 0.55 0 1 0.25 1 0.50 0 0.30 -0.45 0.50 -1 0.50 -0.55 0 -1 -0.20 -1 -0.50z"/>
  <path d="M13 14.75 c0 -0.40 -0.20 -0.75 -0.50 -0.75 -0.25 0 -0.50 -0.65 -0.50 -1.50 0 -2 0.65 -1.90 1.40 0.15 0.75 2.05 0.75 2.85 0.10 2.85 -0.25 0 -0.50 -0.35 -0.50 -0.75z"/>
  <path d="M12.85 8 c0.30 -1.30 2 -3.50 2.75 -3.50 0.55 0 -0.20 1.30 -1.80 3.25 -1.20 1.45 -1.25 1.45 -0.95 0.25z"/>
 </g>
</svg>