<?xml version="1.0" encoding="utf-8"?>
<!DOCTYPE svg PUBLIC "-//W3C//DTD SVG 1.0//EN" "http://www.w3.org/TR/2001/REC-SVG-20010904/DTD/svg10.dtd">
<svg version="1.0" xmlns="http://www.w3.org/2000/svg" width="40px" height="40px" viewBox="0 0 40 40" preserveAspectRatio="xMidYMid meet">
 <g fill="#091c0b">
  <path d="M26 37.80 c0 -2.15 -0.30 -2.35 -4.05 -2.65 l-2.95 -0.30 0 -1.75 0 -1.70 4.65 0.20 c2.50 0.15 5 0.40 5.50 0.65 0.70 0.30 0.85 0.10 0.85 -1.20 0 -1.35 0.15 -1.55 1.40 -1.55 1.45 0 8.60 3 8.60 3.65 0 0.20 -0.70 1.15 -1.60 2.10 -1.15 1.30 -1.95 1.75 -3.15 1.75 -2.10 0 -4.75 -0.90 -6.05 -2.05 -1.40 -1.30 -1.55 -1.20 -1.30 0.60 0.20 1.50 -0.70 3.95 -1.50 3.95 -0.20 0 -0.40 -0.75 -0.40 -1.70z"/>
  <path d="M11 33.75 c0 -1.65 0.10 -1.75 1.75 -1.75 1.65 0 1.75 0.10 1.75 1.75 0 1.65 -0.10 1.75 -1.75 1.75 -1.65 0 -1.75 -0.10 -1.75 -1.75z"/>
  <path d="M0 33 c0 -2.15 0.15 -2.25 2.95 -1.70 1.35 0.30 1.55 0.50 1.55 2 0 1.70 -0.05 1.70 -2.25 1.70 l-2.25 0 0 -2z"/>
  <path d="M24.50 30.50 c0 -0.25 -0.35 -0.50 -0.75 -0.50 -0.40 0 -2 -0.95 -3.50 -2.10 -2.35 -1.85 -2.75 -2.40 -2.75 -3.75 0 -1.50 0.15 -1.65 1.55 -1.65 1.65 0 5.55 2.40 6.60 4.05 0.30 0.50 1 0.95 1.45 0.95 0.70 0 0.90 0.40 0.90 1.75 0 1.65 -0.10 1.75 -1.75 1.75 -0.95 0 -1.75 -0.20 -1.75 -0.50z"/>
  <path d="M36.70 26.05 c-0.55 -0.50 -1.50 -1.05 -2.05 -1.25 -2.15 -0.70 -7.65 -8.55 -7.65 -11 0 -1.90 -0.45 -2.65 -1.75 -2.85 -0.55 -0.15 -1.05 -0.65 -1.15 -1.20 -0.05 -0.55 -0.80 -1.45 -1.60 -2 -0.85 -0.55 -1.50 -1.40 -1.50 -1.85 0 -0.60 -0.40 -0.90 -1.15 -0.90 -1.60 0 -2.85 -1.50 -2.85 -3.40 0 -1.50 0.10 -1.60 1.75 -1.60 1.20 0 1.75 0.25 1.75 0.75 0 0.40 -0.25 0.75 -0.55 0.75 -0.90 0 0.05 0.95 1.75 1.75 2.75 1.30 5.70 4.65 6.80 7.70 1.75 4.65 4.70 8.60 9.95 13.15 0.85 0.75 1.55 1.75 1.55 2.15 0 1.05 -2.10 0.95 -3.30 -0.20z"/>
  <path d="M8.40 23.15 c-0.50 -0.10 -0.90 -0.45 -0.90 -0.70 0 -0.25 -0.70 -0.45 -1.55 -0.45 -1.10 0 -1.60 -0.25 -1.80 -1 -0.15 -0.55 -0.65 -1 -1.10 -1 -1.30 0 -3.05 -2.30 -3.05 -4 0 -1.25 0.20 -1.50 1.25 -1.50 0.70 0 1.25 0.20 1.25 0.45 0 0.25 0.50 0.55 1.15 0.65 0.60 0.10 1.30 0.65 1.60 1.30 0.25 0.60 0.85 1.10 1.35 1.10 0.45 0 1.15 0.35 1.60 0.75 0.40 0.40 1.20 0.75 1.70 0.75 1.95 0 2.60 0.55 2.60 2.30 0 1.60 -0.10 1.70 -1.60 1.65 -0.90 -0.05 -2.05 -0.15 -2.50 -0.30z"/>
  <path d="M14.50 17.25 c0 -1.70 0.05 -1.75 2 -1.75 1.95 0 2 0.05 2 1.75 0 1.70 -0.05 1.75 -2 1.75 -1.95 0 -2 -0.05 -2 -1.75z"/>
  <path d="M14 9.75 c0 -1.75 0 -1.75 2.25 -1.75 2.25 0 2.25 0 2.25 1.75 0 1.75 0 1.75 -2.25 1.75 -2.25 0 -2.25 0 -2.25 -1.75z"/>
 </g>
 <g fill="#163a1c">
  <path d="M25.60 37.75 c0.25 -2.20 0.25 -2.25 -1.15 -2.25 -1.10 0 -1.45 -0.25 -1.45 -1 0 -1.15 0.50 -1.20 3.15 -0.45 2.05 0.55 2.30 1.40 1.25 4.30 -0.95 2.55 -2.10 2.15 -1.80 -0.60z"/>
  <path d="M11.50 36.55 c0 -1 -0.25 -1.05 -4.60 -1.05 -2.55 0 -5.15 -0.15 -5.75 -0.30 -1.25 -0.35 -1.55 -1.95 -0.50 -2.35 0.50 -0.20 0.50 -0.30 0 -0.30 -0.80 -0.05 -0.85 -2.05 -0.10 -2.05 0.25 0 1.65 0.35 3.05 0.80 2.05 0.70 3.90 0.80 10.45 0.55 6.45 -0.20 7.95 -0.15 7.95 0.40 0 0.40 -0.40 0.80 -0.85 0.90 -0.85 0.20 -0.85 0.25 0 0.30 1.20 0.05 1.10 1.55 -0.15 1.55 -0.55 0 -1 0.15 -1 0.40 0 0.40 -3.75 1.50 -6.60 1.95 -1.70 0.20 -1.90 0.15 -1.90 -0.80z"/>
  <path d="M34.15 36.60 c-1.20 -0.10 -2.15 -0.35 -2.15 -0.65 0 -0.25 -0.45 -0.45 -1.05 -0.45 -0.55 0 -0.90 -0.20 -0.75 -0.45 0.30 -0.40 -4.75 -2.05 -6.35 -2.05 -1.35 0 -1 -0.85 0.55 -1.40 l1.35 -0.50 -1.35 -0.55 c-0.80 -0.30 -1.40 -0.85 -1.40 -1.30 0 -0.45 -0.45 -0.75 -1.25 -0.75 -0.70 0 -1.25 -0.25 -1.25 -0.50 0 -0.30 -0.40 -0.70 -0.85 -0.85 -0.50 -0.20 -1.10 -0.60 -1.40 -1 -0.25 -0.35 -3.20 -1.30 -6.50 -2.15 -3.30 -0.85 -6.05 -1.75 -6.15 -2 -0.10 -0.30 -0.50 -0.50 -0.95 -0.50 -0.80 0 -2.15 -1.20 -2.15 -1.95 0 -0.25 -0.50 -0.55 -1.10 -0.65 -1.30 -0.15 -1.85 -1.80 -0.80 -2.45 0.50 -0.30 0.50 -0.45 0.05 -0.45 -0.35 0 -0.65 -0.35 -0.65 -0.75 0 -1.10 2.80 -0.95 3.60 0.20 0.35 0.50 1.10 1 1.65 1.10 0.55 0.10 1.20 0.70 1.50 1.30 0.25 0.60 1 1.20 1.75 1.30 7.40 1.50 13.50 3.45 13.50 4.35 0 0.30 0.35 0.50 0.75 0.50 0.40 0 0.85 0.55 1.05 1.25 0.20 0.70 0.65 1.25 1.15 1.25 0.50 0 2.05 0.55 3.45 1.25 1.45 0.70 2.80 1.25 3.05 1.25 0.25 0 1.40 0.55 2.60 1.20 1.20 0.70 3.05 1.40 4.10 1.55 1.95 0.40 2.35 1.20 1.10 2.25 -0.60 0.50 -0.90 0.50 -1.50 0 -0.45 -0.35 -0.90 -0.50 -1.10 -0.35 -0.15 0.20 0.10 0.45 0.55 0.65 1.05 0.40 1.05 1.55 -0.05 2.05 -0.50 0.25 -1.85 0.35 -3 0.25z m-10.15 -8.85 c-0.35 -0.45 -1.35 -1.25 -2.20 -1.85 -1.15 -0.75 -1.05 -0.55 0.45 0.80 2.15 1.90 2.75 2.25 1.75 1.05z"/>
  <path d="M38.50 27.75 c0 -0.80 0.30 -1.25 0.75 -1.25 0.45 0 0.75 0.45 0.75 1.25 0 0.80 -0.30 1.25 -0.75 1.25 -0.45 0 -0.75 -0.45 -0.75 -1.25z"/>
  <path d="M34.60 25 c-0.60 -0.60 -1.10 -1.50 -1.10 -2 0 -0.75 -0.35 -1 -1.25 -1 -1.05 0 -1.25 -0.25 -1.25 -1.50 0 -1.15 -0.20 -1.50 -1 -1.50 -0.80 0 -1 -0.35 -1 -1.85 0 -1.70 0.05 -1.75 0.90 -1 0.50 0.50 1.10 0.70 1.35 0.50 0.20 -0.25 0.25 -0.10 0.05 0.20 -0.35 0.65 1.95 4.40 3.50 5.70 0.55 0.40 0.75 0.45 0.50 0.10 -0.25 -0.45 -0.10 -0.55 0.40 -0.35 0.45 0.15 0.70 0.50 0.55 0.70 -0.15 0.20 0.05 0.35 0.40 0.30 0.30 0 0.65 0.20 0.75 0.45 0.10 0.30 0.50 0.70 0.90 0.90 1.20 0.70 0.75 1.35 -0.95 1.35 -1 0 -2.10 -0.40 -2.75 -1z"/>
  <path d="M33.90 20.65 c-0.40 -0.50 -0.95 -1.25 -1.15 -1.65 -0.40 -0.65 -0.35 -0.65 0.45 -0.05 0.80 0.70 2.05 2.55 1.65 2.55 -0.10 0 -0.55 -0.40 -0.95 -0.85z"/>
  <path d="M12.40 18.15 c-1.60 -1 -2.40 -2.60 -2.40 -4.90 0 -1.65 0.10 -1.75 1.75 -1.75 1.25 0 1.75 0.20 1.75 0.75 0 1.15 2.45 3.25 3.80 3.25 1.05 0 1.20 -0.25 1.20 -1.75 0 -1.60 -0.10 -1.75 -1.50 -1.75 -1.15 0 -1.50 -0.25 -1.50 -0.95 0 -0.55 0.40 -1.10 0.90 -1.20 0.80 -0.20 0.80 -0.25 0 -0.30 -1.80 -0.10 -0.80 -1.05 1.10 -1.05 1.90 0 2 0.10 2 1.50 0 1.35 0.15 1.50 1.50 1.50 1.45 0 1.50 0.10 1.50 2.25 0 2.25 0 2.25 -1.75 2.25 -1.60 0 -1.75 0.10 -1.75 1.50 0 1.50 -0.05 1.50 -2.60 1.50 -1.60 0 -3.20 -0.35 -4 -0.85z"/>
  <path d="M25.20 11.40 c-0.45 -0.90 -1.15 -1.85 -1.50 -2.05 -0.40 -0.20 -0.70 -0.75 -0.70 -1.10 0 -0.40 -0.35 -0.75 -0.75 -0.75 -0.40 0 -0.75 -0.20 -0.75 -0.40 0 -0.25 -0.55 -0.75 -1.25 -1.10 -0.80 -0.40 -1.25 -1.10 -1.25 -1.85 0 -0.80 -0.30 -1.15 -1 -1.15 -0.80 0 -1 -0.35 -1 -1.50 0 -1.35 0.15 -1.50 1.50 -1.50 1.60 0 2 0.70 0.70 1.20 -0.75 0.30 -0.75 0.40 0.05 1.30 0.45 0.50 1.45 1 2.15 1.10 0.80 0.10 1.55 0.65 1.90 1.30 0.30 0.65 0.85 1.45 1.20 1.75 0.50 0.45 0.55 0.45 0.30 0 -0.20 -0.35 -0.15 -0.65 0.15 -0.65 0.90 0 3.10 3.35 3.40 5.20 0.25 1.70 0.20 1.80 -1 1.80 -1 0 -1.55 -0.40 -2.15 -1.60z"/>
 </g>
 <g fill="#085813">
  <path d="M24.10 38.40 c0.15 -1.50 0.30 -1.65 2.05 -1.80 1.75 -0.15 2.45 0.45 1.35 1.15 -0.25 0.15 -0.50 0.75 -0.50 1.30 0 0.75 -0.35 0.95 -1.55 0.95 -1.40 0 -1.50 -0.10 -1.35 -1.60z"/>
  <path d="M11 36.30 c0 -1.45 0.20 -1.75 1.65 -2.20 0.85 -0.25 1.20 -0.50 0.75 -0.55 -0.55 -0.05 -0.90 -0.45 -0.90 -1.05 0 -0.85 0.35 -1 2 -1 1.40 0 2 0.20 2 0.70 0 0.40 0.50 0.85 1.15 0.95 0.65 0.15 0.35 0.25 -0.80 0.30 -1.15 0 -1.80 0.25 -1.60 0.55 0.15 0.30 0.10 0.50 -0.10 0.50 -0.25 0 -0.90 0.35 -1.45 0.75 -0.80 0.65 -0.80 0.70 -0.05 0.45 0.65 -0.25 0.85 -0.05 0.85 1 0 1.15 -0.20 1.30 -1.75 1.30 -1.65 0 -1.75 -0.10 -1.75 -1.70z"/>
  <path d="M15 35.80 c0 -0.75 1.05 -1.30 2.55 -1.30 0.60 0 0.95 0.35 0.95 1 0 0.80 -0.35 1 -1.75 1 -1.15 0 -1.75 -0.25 -1.75 -0.70z"/>
  <path d="M37 27.25 c0 -1.55 -0.15 -1.75 -1.25 -1.75 -0.80 0 -1.25 -0.30 -1.25 -0.75 0 -0.40 -0.45 -0.75 -1 -0.75 -0.80 0 -1 -0.35 -1 -1.80 l0 -1.80 1.90 1.65 c3.30 2.90 4.10 3.45 4.85 3.45 0.50 0 0.70 0.50 0.65 1.75 -0.05 1.55 -0.20 1.75 -1.50 1.75 -1.25 0 -1.40 -0.15 -1.40 -1.75z"/>
  <path d="M28.50 17.75 c0 -0.40 -0.20 -0.75 -0.45 -0.75 -0.25 0 -0.85 -1.05 -1.35 -2.35 -0.50 -1.35 -1.15 -2.60 -1.50 -2.90 -0.30 -0.25 -0.70 -1.10 -0.90 -1.85 -0.20 -0.80 -0.65 -1.40 -1 -1.40 -0.40 0 -1.55 -0.80 -2.60 -1.75 -1 -0.95 -1.95 -1.75 -2.05 -1.75 -0.10 0 -1 -0.60 -1.95 -1.30 -1.10 -0.85 -1.70 -1.75 -1.70 -2.50 0 -1.05 0.20 -1.20 2.05 -1.20 1.70 0 2 0.15 1.75 0.90 -0.35 1 1.80 3.40 2.60 2.90 0.25 -0.15 0.90 0.05 1.40 0.50 0.90 0.70 0.85 0.70 -0.30 0.20 -1.15 -0.50 -1.10 -0.45 0.30 0.85 0.85 0.75 2.25 2.45 3.20 3.75 0.90 1.30 1.85 2.25 2.05 2.10 0.25 -0.15 0.45 0.40 0.45 1.15 0 0.80 0.65 2.50 1.50 3.80 l1.50 2.35 -1.50 0 c-1 0 -1.50 -0.25 -1.50 -0.75z"/>
  <path d="M26 8.30 c-0.85 -1.25 -1.35 -2.30 -1.10 -2.30 0.55 0 1.80 1.40 2.60 2.90 1.05 2.15 0.15 1.70 -1.50 -0.60z"/>
 </g>
 <g fill="#22582c">
  <path d="M26.10 38.20 c0 -1.95 -0.65 -2.70 -2.45 -2.70 -0.85 0 -1.15 -0.30 -1.15 -1.05 0 -0.95 0.20 -1 2.15 -0.70 1.15 0.20 2.40 0.60 2.75 0.85 0.70 0.60 0.80 2.70 0.10 3.15 -0.25 0.15 -0.50 0.75 -0.50 1.30 0 0.50 -0.20 0.95 -0.45 0.95 -0.25 0 -0.45 -0.80 -0.45 -1.80z"/>
  <path d="M10.50 36.75 c0 -0.70 -0.20 -1.25 -0.50 -1.25 -0.85 0 -0.55 -1.40 0.40 -1.65 0.80 -0.20 0.80 -0.25 0 -0.30 -1.30 -0.10 -1.10 -1.40 0.25 -1.75 0.60 -0.15 3.20 -0.30 5.75 -0.30 3.65 0 4.60 0.15 4.60 0.70 0 0.40 -0.40 0.85 -0.85 0.95 -0.85 0.20 -0.85 0.25 0 0.30 1.55 0.10 1 1.55 -0.65 1.55 -0.90 0 -1.50 0.25 -1.50 0.65 0 0.75 -4.15 2.35 -6.10 2.35 -1.15 0 -1.40 -0.20 -1.40 -1.25z m5.50 -1.95 c0.70 -0.10 1.55 -0.25 1.90 -0.25 0.30 -0.05 0.60 -0.25 0.60 -0.50 0 -0.60 -3.95 -0.95 -5.75 -0.45 -1.35 0.35 -1.30 0.35 0.35 0.15 2 -0.20 3.05 0.50 1.45 1 -0.55 0.15 -1.25 0.65 -1.65 1.10 -0.60 0.75 -0.55 0.75 0.60 0 0.70 -0.45 1.85 -0.95 2.50 -1.05z"/>
  <path d="M32.50 36 c0 -0.20 -0.55 -0.60 -1.25 -0.90 -1.45 -0.65 -1.65 -1.60 -0.35 -1.60 0.70 0 0.75 -0.10 0.10 -0.50 -1.10 -0.70 -2.50 -0.60 -2.50 0.20 0 0.60 -0.35 0.65 -1.60 0.25 -0.90 -0.25 -2.25 -0.45 -3 -0.45 -0.80 0 -1.40 -0.25 -1.40 -0.55 0 -0.40 0.90 -0.50 2.90 -0.30 1.55 0.15 2.45 0.15 2 0 -0.50 -0.10 -0.90 -0.45 -0.90 -0.70 0 -0.25 -0.45 -0.45 -0.95 -0.45 -1.50 0 -2.55 -0.55 -2.55 -1.30 0 -0.40 -0.45 -0.70 -1 -0.70 -0.55 0 -1 -0.35 -1 -0.75 0 -0.40 -0.45 -0.75 -1 -0.75 -0.55 0 -1 -0.30 -1 -0.65 0 -0.60 -2.65 -1.55 -9.85 -3.40 -4 -1 -6.15 -2.20 -6.15 -3.40 0 -0.30 -0.35 -0.55 -0.80 -0.55 -0.40 0 -1.10 -0.30 -1.50 -0.70 -0.85 -0.85 -0.95 -2.30 -0.10 -2.30 0.50 0 3.80 2.25 4.40 3 0.50 0.65 2.60 1.60 2.90 1.30 0.15 -0.15 0.05 -0.30 -0.20 -0.30 -0.25 0 -1.80 -1 -3.45 -2.25 -1.65 -1.25 -3.30 -2.25 -3.60 -2.25 -0.35 0 -0.65 -0.45 -0.65 -1 0 -0.65 0.35 -1 1 -1 0.55 0 1 0.25 1 0.50 0 0.30 0.45 0.50 1 0.50 0.55 0 1 0.25 1 0.50 0 0.30 0.35 0.50 0.75 0.50 0.40 0 0.75 0.35 0.75 0.75 0 0.40 0.55 0.85 1.25 1.05 0.70 0.15 1.25 0.45 1.25 0.65 0 0.25 1.25 0.65 2.75 1 1.50 0.35 2.75 0.80 2.75 1.05 0 0.25 1.05 0.60 2.40 0.75 3.90 0.50 4.60 0.75 4.60 1.50 0 0.45 0.50 0.75 1.25 0.75 0.90 0 1.25 0.25 1.25 1 0 0.75 0.35 1 1.25 1 0.80 0 1.25 0.30 1.25 0.75 0 0.40 0.45 0.75 1 0.75 0.55 0 1 0.35 1 0.75 0 0.50 0.50 0.75 1.70 0.75 0.95 0 1.90 0.25 2.05 0.50 0.15 0.30 0.75 0.50 1.25 0.50 1.70 0 4.50 1.65 4.50 2.60 0 0.50 0.35 0.90 0.75 0.90 0.40 0 0.75 -0.20 0.75 -0.50 0 -0.25 0.35 -0.50 0.75 -0.50 0.95 0 0.95 0.85 0.05 1.75 -0.55 0.55 -1.30 0.35 -4.80 -1.30 -2.25 -1.10 -4.20 -1.90 -4.30 -1.80 -0.10 0.10 1.40 0.95 3.35 1.85 4.05 2 5 2.85 3.90 3.55 -0.80 0.50 -4.95 0.45 -4.95 -0.05z m-7.55 -7.65 c-0.40 -0.35 -1.80 -1.50 -3.10 -2.55 -1.30 -1.05 -2.50 -1.85 -2.65 -1.70 -0.25 0.25 5.75 4.90 6.25 4.90 0.15 0 -0.05 -0.30 -0.50 -0.65z m-14.20 -6.85 c-0.55 -0.25 -1.35 -0.45 -1.75 -0.45 -0.45 0 -0.40 0.20 0.25 0.45 0.55 0.25 1.35 0.45 1.75 0.45 0.45 0 0.40 -0.20 -0.25 -0.45z"/>
  <path d="M3.05 35.65 c-1.75 -0.25 -3.05 -1.15 -3.05 -2.15 0 -0.40 0.35 -0.45 0.90 -0.25 0.45 0.20 2.35 0.50 4.25 0.60 2.85 0.25 3.35 0.40 3.35 1.20 0 1 -1.15 1.10 -5.45 0.60z"/>
  <path d="M2 32.85 c-1.80 -0.60 -2.75 -2.35 -1.30 -2.35 1.25 0 4.80 1.20 4.80 1.60 0 0.25 0.70 0.40 1.50 0.40 0.85 0 1.50 0.25 1.50 0.50 0 0.70 -4.35 0.60 -6.50 -0.15z"/>
  <path d="M37.15 28.80 c-0.30 -0.40 -0.75 -1.50 -0.90 -2.50 -0.20 -1.05 -0.65 -1.80 -1.05 -1.80 -0.40 0 -0.70 -0.20 -0.70 -0.50 0 -0.25 -0.55 -0.50 -1.20 -0.50 -0.90 0 -1.25 -0.35 -1.45 -1.50 -0.20 -0.90 -0.65 -1.50 -1.10 -1.50 -0.55 0 -0.75 -0.50 -0.75 -1.80 0 -2.10 0.55 -1.90 2.25 0.80 1.80 2.85 3.80 4.55 5 4.20 0.60 -0.15 0.75 -0.10 0.40 0.15 -0.40 0.30 -0.15 0.60 0.85 1.05 1.25 0.55 1.45 0.90 1.40 2.65 0 1.65 -0.20 1.95 -1.10 1.95 -0.55 -0.05 -1.30 -0.35 -1.65 -0.70z"/>
  <path d="M33.75 20.50 c-0.50 -0.55 -0.80 -1.10 -0.65 -1.25 0.15 -0.15 0.65 0.30 1.10 1 1 1.50 0.80 1.60 -0.45 0.25z"/>
  <path d="M14.10 18.45 c-3.10 -0.60 -4.60 -2.45 -4.60 -5.65 0 -1.75 0.05 -1.80 1.90 -1.80 1.65 0 1.95 0.20 2.75 1.95 0.85 1.85 1.90 2.55 4 2.55 0.50 0 0.85 -0.40 0.85 -1 0 -1.10 0.75 -1.35 1.20 -0.35 0.25 0.50 0.35 0.50 0.60 0 0.60 -1.35 1.70 -0.65 1.70 1.10 0 1.60 -0.10 1.75 -1.50 1.75 -1.15 0 -1.50 0.20 -1.50 1 0 1.10 -1.45 1.25 -5.40 0.45z"/>
  <path d="M26.50 11.90 c0.05 -1.55 0.05 -1.60 0.75 -0.70 0.50 0.65 0.75 0.75 0.75 0.30 0 -0.35 0.10 -0.55 0.25 -0.45 0.45 0.50 -0.40 2.45 -1.05 2.45 -0.45 0 -0.70 -0.55 -0.70 -1.60z"/>
  <path d="M16.50 11 c0 -0.70 0.25 -0.90 0.90 -0.70 0.80 0.25 0.80 0.25 0 -0.30 -1.40 -0.90 -1.05 -1.50 0.85 -1.50 1.65 0 1.75 0.10 1.75 1.75 0 1.65 -0.10 1.75 -1.75 1.75 -1.40 0 -1.75 -0.20 -1.75 -1z"/>
  <path d="M23.30 8.35 c-0.25 -1.20 -0.70 -1.80 -1.80 -2.20 -1.05 -0.40 -1.50 -0.90 -1.50 -1.65 0 -0.95 0.30 -0.85 2.55 1.10 2.30 1.90 3.45 3.30 3.45 4.10 0 0.15 -0.55 0.30 -1.20 0.30 -0.95 0 -1.25 -0.35 -1.50 -1.65z"/>
  <path d="M25.65 7.75 c-0.60 -0.95 -0.90 -1.75 -0.65 -1.75 0.50 0 2.50 2.45 2.50 3.05 0 0.90 -0.80 0.35 -1.85 -1.30z"/>
  <path d="M15.65 2.80 c-0.70 -0.30 -1.15 -1 -1.15 -1.65 0 -1.50 1.30 -1.50 2.55 0 l1 1.10 -0.55 -1.10 c-0.30 -0.65 -0.35 -1.15 -0.10 -1.15 0.20 0 0.75 0.80 1.20 1.75 l0.80 1.75 -1.35 -0.05 c-0.70 -0.05 -1.80 -0.30 -2.40 -0.65z"/>
 </g>
 <g fill="#18842a">
  <path d="M23.50 38.75 c0 -0.80 0.30 -1.25 0.75 -1.25 0.50 0 0.75 -0.55 0.75 -1.75 0 -1.85 0.45 -2.10 2.05 -1.25 1 0.55 1.30 2.25 0.45 2.75 -0.25 0.15 -0.50 0.75 -0.50 1.25 0 0.50 -0.25 1.10 -0.60 1.30 -0.40 0.25 -0.45 0 -0.30 -0.70 0.20 -0.60 0.10 -1 -0.15 -0.80 -0.25 0.15 -0.45 0.60 -0.45 1 0 0.40 -0.45 0.70 -1 0.70 -0.75 0 -1 -0.35 -1 -1.25z"/>
  <path d="M11.50 37 c0 -0.75 -0.35 -1 -1.25 -1 -0.70 0 -1.25 -0.20 -1.25 -0.50 0 -0.25 -0.60 -0.50 -1.35 -0.50 -0.85 0 -1.15 -0.20 -0.85 -0.45 0.45 -0.50 8.20 -1 8.20 -0.55 0 0.15 -0.70 0.65 -1.55 1.15 -2.05 1.15 -1.55 1.70 0.55 0.60 1.65 -0.85 1.65 -0.85 1.35 0.35 -0.20 0.60 -0.35 1.30 -0.35 1.55 0 0.20 -0.80 0.35 -1.75 0.35 -1.40 0 -1.75 -0.20 -1.75 -1z"/>
  <path d="M0 35.35 c0 -2.20 0.20 -2.35 2.30 -1.70 1.85 0.55 2.35 1.85 0.70 1.85 -0.55 0 -1 0.35 -1 0.75 0 0.40 -0.45 0.75 -1 0.75 -0.80 0 -1 -0.35 -1 -1.65z"/>
  <path d="M34.65 35.65 c-0.65 -0.20 -0.95 -2.65 -0.35 -2.65 0.90 0 3.70 2.05 3.70 2.70 0 0.35 -2.50 0.30 -3.35 -0.05z"/>
  <path d="M18.50 34 c0 -0.25 1.15 -0.50 2.50 -0.50 1.40 0 2.50 0.25 2.50 0.50 0 0.30 -1.10 0.50 -2.50 0.50 -1.35 0 -2.50 -0.20 -2.50 -0.50z"/>
  <path d="M36.25 33.15 l-2 -1.15 1.50 0 c1.85 0 2.90 0.65 2.65 1.60 -0.10 0.55 -0.55 0.45 -2.15 -0.45z"/>
  <path d="M26.65 33.45 c-1.85 -0.55 -2.40 -2.45 -0.70 -2.45 0.55 0 1.05 -0.25 1.15 -0.50 0.25 -0.80 3.40 0.45 3.40 1.30 0 0.40 -0.35 0.70 -0.75 0.70 -0.40 0 -0.75 0.35 -0.75 0.75 0 0.85 -0.10 0.85 -2.35 0.20z"/>
  <path d="M6.50 32.50 c0 -0.85 0.35 -1 2 -1 1.10 0 2 0.25 2 0.50 0 0.30 0.45 0.50 1 0.50 0.55 0 1 0.25 1 0.50 0 0.30 -1.35 0.50 -3 0.50 -2.65 0 -3 -0.10 -3 -1z"/>
  <path d="M1.50 32.50 c-0.55 -0.35 -0.35 -0.50 0.90 -0.50 0.85 0 1.60 0.25 1.60 0.50 0 0.65 -1.50 0.65 -2.50 0z"/>
  <path d="M18.50 32 c0 -0.85 0.35 -1 2.50 -1 2.15 0 2.50 0.15 2.50 1 0 0.85 -0.35 1 -2.50 1 -2.15 0 -2.50 -0.15 -2.50 -1z"/>
  <path d="M28.25 29.75 l-1.50 -0.65 1.90 -0.05 c1.35 -0.05 1.85 0.15 1.85 0.70 0 0.90 -0.30 0.90 -2.25 0z"/>
  <path d="M37.50 26.25 c0 -1.30 0.35 -1.45 1.70 -0.95 1.20 0.45 1 1.85 -0.20 1.55 -0.55 -0.15 -0.90 -0.05 -0.70 0.20 0.15 0.25 0 0.45 -0.25 0.45 -0.30 0 -0.55 -0.55 -0.55 -1.25z"/>
  <path d="M1 21.75 c0 -1.65 0.10 -1.75 1.75 -1.75 1.65 0 1.75 0.10 1.75 1.75 0 1.65 -0.10 1.75 -1.75 1.75 -1.65 0 -1.75 -0.10 -1.75 -1.75z"/>
  <path d="M13.50 18.05 c0 -1.85 0.20 -1.95 3.70 -2.35 l2.80 -0.35 0 1.75 c0 1.70 -0.05 1.75 -2.30 2.10 -3.95 0.50 -4.20 0.45 -4.20 -1.15z m4.45 -0.75 c-0.10 -0.10 -1.10 -0.30 -2.20 -0.45 -1.35 -0.20 -1.75 -0.15 -1.25 0.15 0.70 0.45 3.95 0.75 3.45 0.30z"/>
  <path d="M0 17.50 c0 -1.10 0.05 -1.15 1.20 -0.70 1.15 0.45 1 1.70 -0.20 1.70 -0.65 0 -1 -0.35 -1 -1z"/>
  <path d="M0.70 15.75 c-0.95 -0.70 -0.90 -0.70 0.20 -0.75 0.65 0 1.10 0.30 1.10 0.75 0 0.95 -0.05 0.95 -1.30 0z"/>
  <path d="M25.50 11.15 l0.05 -1.90 1.20 1.40 c1.60 1.80 1.55 2.35 0 2.35 -1.10 0 -1.25 -0.20 -1.25 -1.85z"/>
  <path d="M20.50 10.30 c0 -1.35 -1.65 -3.60 -2.90 -4 -0.50 -0.15 -1.15 -0.95 -1.45 -1.80 -0.45 -1.20 -0.95 -1.55 -2.60 -1.80 -1.75 -0.30 -2.05 -0.50 -2.05 -1.50 0 -1.05 0.25 -1.20 2 -1.20 1.10 0 2.40 0.30 2.85 0.70 0.50 0.40 2.65 2.10 4.80 3.80 3.45 2.75 4.75 4.50 3.35 4.50 -0.25 0 -0.50 0.55 -0.50 1.25 0 1.10 -0.20 1.25 -1.75 1.25 -1.50 0 -1.75 -0.15 -1.75 -1.20z"/>
  <path d="M0 3.75 c0 -1.40 0.20 -1.75 1 -1.75 0.80 0 1 0.35 1 1.75 0 1.40 -0.20 1.75 -1 1.75 -0.80 0 -1 -0.35 -1 -1.75z"/>
 </g>
 <g fill="#2b6441">
  <path d="M24.50 37.85 c0 -1.80 0.05 -1.85 1.80 -1.85 1.55 0 1.75 0.15 1.45 0.90 -0.20 0.45 -0.50 1.25 -0.60 1.75 -0.15 0.45 -0.50 0.85 -0.75 0.85 -0.30 0 -0.35 -0.40 -0.20 -0.85 0.30 -0.75 0.20 -0.75 -0.70 0.10 -1 0.90 -1 0.90 -1 -0.90z"/>
  <path d="M31.90 35.40 c-0.50 -0.50 -0.90 -1 -0.90 -1.15 0 -0.15 1.20 -0.25 2.65 -0.25 2.95 0.05 5.15 1.20 3.85 2 -1.15 0.75 -4.65 0.35 -5.60 -0.60z"/>
  <path d="M5.50 35.15 c0 -0.65 0.45 -0.95 1.75 -1 1.45 -0.15 1.75 0 1.75 0.85 0 0.80 -0.35 1 -1.75 1 -1.35 0 -1.75 -0.20 -1.75 -0.85z"/>
  <path d="M17 35 c0 -0.25 0.35 -0.50 0.75 -0.50 0.40 0 0.75 -0.20 0.75 -0.50 0 -0.25 0.45 -0.50 1 -0.50 0.65 0 1 0.35 1 1 0 0.80 -0.35 1 -1.75 1 -0.95 0 -1.75 -0.20 -1.75 -0.50z"/>
  <path d="M13 34.50 c0 -0.20 0.45 -0.50 1 -0.65 0.55 -0.15 1 -0.10 1 0.15 0 0.20 -0.45 0.50 -1 0.65 -0.55 0.15 -1 0.10 -1 -0.15z"/>
  <path d="M24.50 34.50 c0 -0.65 1.50 -0.65 2.50 0 0.55 0.35 0.35 0.50 -0.85 0.50 -0.90 0 -1.65 -0.20 -1.65 -0.50z"/>
  <path d="M5.50 33 c0 -0.25 0.85 -0.50 1.90 -0.50 1.35 0 1.65 0.15 1.10 0.50 -1 0.65 -3 0.65 -3 0z"/>
  <path d="M25.40 33.15 c-1.65 -0.40 -1 -1.65 0.85 -1.65 1.45 0 1.75 0.20 1.75 1.05 0 0.95 -0.10 1 -0.85 0.40 -0.55 -0.50 -0.70 -0.50 -0.45 -0.05 0.35 0.60 0.20 0.65 -1.30 0.25z"/>
  <path d="M13 32.50 c0 -0.25 0.80 -0.50 1.75 -0.50 0.95 0 1.75 0.25 1.75 0.50 0 0.30 -0.80 0.50 -1.75 0.50 -0.95 0 -1.75 -0.20 -1.75 -0.50z"/>
  <path d="M17 32.50 c0 -0.25 0.80 -0.50 1.80 -0.50 1.05 0 1.65 0.20 1.45 0.50 -0.15 0.30 -0.95 0.50 -1.80 0.50 -0.80 0 -1.45 -0.20 -1.45 -0.50z"/>
  <path d="M22.70 29.65 c-1 -0.20 -1.70 -1.40 -1.70 -3.05 0 -0.40 0.75 -0.10 1.95 0.85 1.05 0.85 2.45 1.75 3.10 2 1.10 0.45 1.05 0.50 -0.55 0.45 -0.95 0 -2.25 -0.15 -2.80 -0.25z"/>
  <path d="M25.25 28.40 c-0.55 -0.30 -1.80 -1.35 -2.75 -2.25 l-1.75 -1.65 1.90 0 c1.25 0 1.85 0.20 1.85 0.70 0 0.40 0.55 0.85 1.25 1 0.90 0.25 1.25 0.65 1.25 1.55 0 1.40 -0.30 1.50 -1.75 0.65z"/>
  <path d="M38.50 26.25 c0 -0.50 -0.50 -0.75 -1.50 -0.75 -1.10 0 -1.50 -0.25 -1.50 -0.90 0 -0.55 0.35 -0.90 0.95 -0.90 0.55 0 0.85 0.20 0.70 0.45 -0.15 0.25 0.20 0.55 0.80 0.70 0.60 0.15 1.05 0.50 1.05 0.75 0 0.25 0.25 0.30 0.50 0.15 0.30 -0.15 0.50 0.05 0.50 0.45 0 0.45 -0.35 0.80 -0.75 0.80 -0.40 0 -0.75 -0.35 -0.75 -0.75z"/>
  <path d="M12.90 24.65 c-1 -0.15 -1.40 -0.50 -1.40 -1.25 0 -0.90 0.20 -0.95 2.15 -0.65 2.95 0.50 4.45 1.15 4.10 1.75 -0.30 0.50 -2.20 0.55 -4.85 0.15z"/>
  <path d="M14.70 22.50 c-2.85 -0.65 -3.40 -1 -2.80 -1.60 0.35 -0.35 1.50 -0.40 3.30 -0.20 2.30 0.30 2.80 0.55 2.80 1.35 0 1 -0.65 1.10 -3.30 0.45z"/>
  <path d="M32.40 21.90 c-0.50 -0.60 -0.90 -1.55 -0.85 -2.15 0 -0.95 0.05 -0.90 0.85 0.25 0.45 0.65 1.25 1.65 1.75 2.10 0.80 0.85 0.80 0.90 0 0.90 -0.50 0 -1.30 -0.50 -1.75 -1.10z"/>
  <path d="M1.50 18.75 c0 -0.80 -0.30 -1.25 -0.80 -1.25 -0.40 0 -0.60 -0.25 -0.45 -0.50 0.35 -0.60 2.80 0.70 4.10 2.15 0.75 0.80 0.70 0.85 -1 0.85 -1.65 0 -1.85 -0.15 -1.85 -1.25z"/>
  <path d="M12.65 18.70 c-0.35 -0.15 -0.65 -0.95 -0.65 -1.70 l0 -1.45 1.50 0.85 c0.80 0.45 1.50 1 1.50 1.20 0 0.15 0.50 0.20 1.05 0.05 0.80 -0.20 1 -0.10 0.85 0.40 -0.25 0.70 -3.10 1.15 -4.25 0.65z"/>
  <path d="M2.40 16.90 c-2.65 -1.70 -3.10 -2.90 -1.15 -2.90 1 0 1.25 0.25 1.25 1.25 0 1 0.25 1.25 1.25 1.25 0.90 0 1.25 0.25 1.25 1 0 0.55 -0.05 1 -0.10 0.95 -0.10 0 -1.20 -0.70 -2.50 -1.55z"/>
  <path d="M17.50 18.05 c0 -0.25 0.30 -0.60 0.65 -0.70 0.30 -0.15 -0.25 -0.30 -1.30 -0.30 -1.45 -0.05 -2.30 -0.45 -3.40 -1.50 -0.80 -0.80 -1.45 -1.85 -1.45 -2.25 0 -0.45 -0.25 -0.80 -0.55 -0.80 -0.30 0 -0.45 0.30 -0.30 0.65 0.95 2.25 0.95 2.35 0.15 2.35 -0.60 0 -0.80 -0.50 -0.80 -1.75 0 -1.65 0.10 -1.75 1.75 -1.75 1.50 0 1.75 0.15 1.75 1.20 0 1.70 1.95 1.95 3.15 0.45 0.65 -0.80 1.45 -1.15 2.65 -1.15 1.55 0 1.70 0.15 1.70 1.45 0 0.80 -0.15 2.15 -0.30 3 -0.30 1.35 -0.50 1.55 -2 1.55 -0.95 0 -1.70 -0.20 -1.70 -0.45z"/>
  <path d="M13.50 9.25 c0 -1.75 0 -1.75 2.25 -1.75 2.05 0 2.25 0.10 2.25 1.25 0 1.10 -0.15 1.25 -1.35 1 l-1.40 -0.30 1.50 0.75 1.50 0.70 -2.35 0.05 -2.40 0.05 0 -1.75z"/>
 </g>
 <g fill="#44554b">
  <path d="M17 18.05 c0 -0.25 0.40 -0.60 0.90 -0.70 0.80 -0.20 0.80 -0.25 0 -0.30 -1.10 -0.05 -1.20 -1.95 -0.15 -2.35 0.40 -0.20 0.75 -0.75 0.75 -1.25 0 -0.70 -0.35 -0.95 -1.50 -0.95 -0.85 0 -1.50 -0.25 -1.50 -0.60 0 -0.35 -0.25 -0.25 -0.55 0.25 -0.55 0.90 -2.25 1.10 -3.35 0.40 -0.40 -0.25 -0.60 -1.05 -0.50 -1.85 0.10 -1.05 0.45 -1.50 1.30 -1.60 0.60 -0.10 1.10 -0.40 1.10 -0.65 0 -0.25 1.35 -0.45 3 -0.45 1.65 0 3 0.20 3 0.50 0 0.25 0.55 0.60 1.20 0.80 1 0.25 1.20 0.70 1.50 2.85 0.45 3.85 0.40 4.25 -0.70 5.35 -1 1 -4.50 1.45 -4.50 0.55z m4 -4.50 c0 -0.50 -0.55 -0.25 -1.50 0.70 -1.85 1.80 -1.90 1.90 0 0.85 0.80 -0.45 1.50 -1.15 1.50 -1.55z m-3.70 -3.80 c-0.80 -0.45 -1.70 -0.70 -2 -0.55 -0.30 0.10 0 0.40 0.70 0.70 1.95 0.80 2.95 0.70 1.30 -0.15z"/>
 </g>
 <g fill="#2f7f3b">
  <path d="M24.50 37.90 l0 -2.40 -2.50 0 c-1.35 0 -2.50 0.20 -2.50 0.45 0 0.25 -0.75 0.60 -1.60 0.75 -3.95 0.80 -4.40 0.95 -4.40 1.35 0 0.25 -0.80 0.45 -1.75 0.45 -1.55 0 -1.75 -0.15 -1.75 -1.25 0 -1.20 -0.15 -1.25 -3 -1.25 -1.65 0 -3 -0.20 -3 -0.50 0 -0.25 -0.90 -0.50 -2 -0.50 -1.65 0 -2 -0.15 -2 -1 0 -1.15 0.20 -1.20 1.60 -0.45 0.65 0.35 3.60 0.60 7.35 0.55 3.60 0 5.85 0.15 5.30 0.40 -1.40 0.55 -2.65 2 -1.70 2 0.40 0 1.15 -0.35 1.65 -0.75 0.55 -0.40 1.35 -0.75 1.75 -0.75 0.45 0 1.45 -0.35 2.25 -0.75 1.60 -0.85 4.10 -0.95 7 -0.30 2.80 0.65 3.10 1.15 2.30 3.55 -0.80 2.45 -1.80 3.35 -1.30 1.20 l0.35 -1.45 -1.05 1.50 -1 1.50 0 -2.35z"/>
  <path d="M34.65 36.15 c-0.85 -0.30 -0.85 -2.65 0 -2.65 0.50 0 2.25 0.95 3.35 1.85 0.35 0.30 -1.15 1.15 -2 1.10 -0.40 0 -1.05 -0.15 -1.35 -0.30z"/>
  <path d="M36.65 33.40 c-0.90 -0.55 -1.65 -1.20 -1.65 -1.45 0 -0.25 1.15 -0.45 2.50 -0.45 2.65 0 3.05 0.50 1.80 2.15 -0.80 1 -0.65 1 -2.65 -0.25z"/>
  <path d="M27.65 33.45 c-0.40 -0.40 -2.40 -0.60 -5.35 -0.55 -2.65 0 -4.80 -0.20 -4.80 -0.45 0 -0.25 0.35 -0.45 0.75 -0.45 0.40 0 0.75 -0.20 0.75 -0.50 0 -0.25 1.15 -0.50 2.50 -0.50 1.40 0 2.50 0.25 2.50 0.50 0 0.30 0.25 0.50 0.50 0.50 0.30 0 0.50 -0.45 0.50 -1 0 -0.80 -0.35 -1 -1.50 -1 -1 0 -1.50 -0.25 -1.50 -0.75 0 -0.45 -0.45 -0.75 -1.05 -0.75 -0.60 0 -1.15 -0.40 -1.30 -1 -0.15 -0.55 -0.70 -1 -1.20 -1 -0.60 0 -0.95 -0.35 -0.95 -0.90 0 -0.70 -0.35 -0.85 -2 -0.70 -1.45 0.15 -2 0 -2 -0.45 0 -0.50 -0.80 -0.70 -2.85 -0.75 -1.70 0 -2.95 -0.30 -3.05 -0.60 -0.10 -0.35 -0.80 -0.60 -1.60 -0.60 -0.95 0 -1.45 -0.30 -1.65 -1 -0.15 -0.55 -0.70 -1 -1.25 -1 -0.55 0 -1.10 -0.45 -1.25 -1 -0.15 -0.55 -0.60 -1 -1.05 -1 -0.85 0 -1.10 -1.25 -0.35 -1.70 0.25 -0.15 1.70 0.70 3.25 1.90 2.70 2.10 4.55 2.80 12.60 4.80 1.15 0.30 3.40 1.55 5 2.80 2.80 2.20 6.40 4.15 8.35 4.55 0.50 0.10 1.50 0.45 2.25 0.85 1.15 0.65 1.25 0.75 0.45 1.05 -0.45 0.20 -1.55 0.25 -2.40 0.15 -1.10 -0.15 -1.45 -0.05 -1.25 0.45 0.35 0.80 -0.30 0.85 -1.05 0.10z"/>
  <path d="M2.25 32.75 c-1.10 -0.40 -2.05 -0.75 -2.15 -0.75 -0.10 0 -0.05 -0.20 0.15 -0.45 0.35 -0.60 13.45 -0.10 13.65 0.50 0.10 0.25 0.75 0.45 1.50 0.45 0.70 0 1.15 0.10 1 0.25 -0.15 0.15 -2.95 0.40 -6.20 0.50 -4.45 0.20 -6.45 0.05 -7.95 -0.50z"/>
  <path d="M29.70 30.30 c-2.80 -1.05 -5.55 -2.65 -7.10 -4.15 -1.60 -1.55 -5.25 -3.15 -10.05 -4.35 -4.35 -1.10 -5.70 -1.70 -8.25 -3.60 -1.70 -1.30 -3.35 -2.45 -3.65 -2.55 -1.25 -0.50 -0.60 -1.15 1.10 -1.15 0.95 0 1.75 0.25 1.75 0.50 0 0.30 0.30 0.50 0.70 0.50 0.35 0 0.80 0.45 0.95 1 0.15 0.60 0.70 1 1.30 1 0.60 0 1.05 0.20 1.05 0.45 0 0.25 1.45 0.85 3.25 1.30 1.80 0.50 3.25 1.15 3.25 1.50 0 0.45 0.65 0.55 2.25 0.35 2 -0.20 2.25 -0.10 2.25 0.80 0 0.85 0.45 1 3.75 1.35 3.55 0.30 3.75 0.40 3.75 1.55 0 0.65 0.25 1.20 0.50 1.20 0.30 0 0.50 0.45 0.50 0.95 0 0.70 0.45 1.05 1.50 1.25 0.85 0.15 2.20 0.45 3 0.60 1.15 0.20 1.50 0.55 1.50 1.50 0 0.65 -0.05 1.20 -0.10 1.15 -0.10 0 -1.50 -0.50 -3.20 -1.15z"/>
  <path d="M37 26.75 c0 -1.90 0.95 -2.35 2.30 -1.05 1 1.05 0.85 1.45 -0.40 1.15 l-1.15 -0.30 1.20 1 1.15 0.95 -1.55 0 c-1.45 0 -1.55 -0.15 -1.55 -1.75z"/>
  <path d="M33 23 c0 -1.25 -0.20 -1.50 -1.25 -1.50 -0.75 0 -1.25 -0.30 -1.25 -0.70 0 -0.40 -0.25 -0.80 -0.55 -0.90 -0.30 -0.10 -0.45 -0.95 -0.35 -1.90 l0.15 -1.75 1.75 2.50 c0.95 1.35 2.55 3.20 3.50 4.10 l1.75 1.65 -1.85 0 c-1.80 0 -1.90 -0.10 -1.90 -1.50z"/>
  <path d="M14 18.20 c0 -0.85 0.20 -1.15 0.60 -0.90 0.35 0.25 1.35 0.35 2.25 0.25 1.40 -0.10 1.65 0.05 1.65 0.90 0 0.90 -0.30 1.05 -2.25 1.05 -2.10 0 -2.25 -0.10 -2.25 -1.30z"/>
  <path d="M15 16.50 c-0.55 -0.35 -0.20 -0.50 1.40 -0.50 1.15 0 2.10 0.25 2.10 0.50 0 0.65 -2.50 0.65 -3.50 0z"/>
  <path d="M9.80 15.70 c-0.15 -0.45 -0.30 -1.45 -0.30 -2.25 0 -1.30 0.15 -1.45 1.75 -1.45 1.40 0 1.80 0.20 2.05 1.25 0.50 1.95 -0.15 2.65 -0.80 0.90 -0.35 -0.90 -0.80 -1.65 -1.05 -1.65 -0.70 0 -0.55 0.60 0.55 2.40 l1 1.60 -1.45 0 c-0.85 0 -1.55 -0.30 -1.75 -0.80z"/>
  <path d="M19.85 16.15 c-0.50 -0.50 -0.40 -1.15 0.20 -1.15 0.25 0 0.35 0.25 0.15 0.60 -0.20 0.35 -0.15 0.40 0.20 0.20 0.35 -0.20 0.60 -0.90 0.60 -1.60 0 -0.85 0.25 -1.20 1 -1.20 0.80 0 1 0.35 1 1.75 0 1.60 -0.15 1.75 -1.40 1.75 -0.80 0 -1.60 -0.15 -1.75 -0.35z"/>
  <path d="M20.50 9.25 c0 -1.75 0.05 -1.75 2.15 -1.75 1.85 0 2.25 0.20 3.25 1.75 l1.10 1.75 -3.25 0 -3.25 0 0 -1.75z"/>
  <path d="M26.70 9.30 c-0.45 -0.75 -0.70 -1.45 -0.55 -1.60 0.15 -0.15 0.65 0.30 1.15 1 0.45 0.75 0.70 1.45 0.55 1.60 -0.15 0.15 -0.65 -0.30 -1.15 -1z"/>
  <path d="M14 1.25 c0 -0.95 0.25 -1.25 1.05 -1.25 0.75 0 0.95 0.25 0.75 0.75 -0.15 0.45 0 0.75 0.45 0.75 0.35 0 0.85 0.25 1 0.50 0.20 0.30 -0.40 0.50 -1.45 0.50 -1.60 0 -1.80 -0.15 -1.80 -1.25z"/>
 </g>
 <g fill="#14b22e">
  <path d="M37 26 c0 -1.20 0.15 -1.40 0.90 -1.15 1.85 0.75 2.85 2.45 1.05 1.90 -0.75 -0.25 -0.95 -0.20 -0.75 0.20 0.20 0.30 0 0.55 -0.40 0.55 -0.55 0 -0.80 -0.45 -0.80 -1.50z"/>
  <path d="M24.35 16.10 c-0.45 -0.50 -1 -1.65 -1.15 -2.50 -0.25 -1.10 -0.60 -1.60 -1.25 -1.60 -0.55 0 -0.95 -0.35 -0.95 -0.75 0 -0.40 -0.40 -0.75 -0.90 -0.75 -0.50 0 -1.60 -0.75 -2.50 -1.65 -1.20 -1.25 -1.60 -2.10 -1.60 -3.50 0 -2.75 0.95 -2.60 4.65 0.80 1.05 1 1.85 1.35 2.60 1.15 0.90 -0.25 1.40 0.20 2.75 2.25 1.40 2.15 4 6.90 4 7.35 0 0.05 -1.10 0.10 -2.40 0.10 -1.75 0 -2.70 -0.25 -3.25 -0.90z"/>
  <path d="M27 9.55 c-0.30 -0.60 -0.35 -1.05 -0.05 -1.05 0.50 0 1.20 1.50 0.85 1.85 -0.10 0.15 -0.45 -0.25 -0.80 -0.80z"/>
 </g>
 <g fill="#2c9a3e">
  <path d="M2.50 38.75 c0 -1 -0.25 -1.25 -1.20 -1.25 -1.10 0 -1.20 -0.20 -1.20 -2.20 0 -2.25 0 -2.25 1.30 -1.70 0.75 0.30 4 0.55 7.25 0.55 l5.95 0 -1.55 0.95 c-2.15 1.40 -1.95 2.10 0.35 1.10 1 -0.45 2.45 -0.95 3.25 -1.10 0.75 -0.10 1.50 -0.40 1.65 -0.65 0.15 -0.25 0.70 -0.45 1.25 -0.45 1.30 0 1.30 2 -0.05 2.35 -1 0.25 -1.45 2.15 -0.50 2.15 0.30 0 0.50 0.35 0.50 0.75 0 0.60 -0.95 0.75 -5.75 0.75 l-5.80 0 0.10 -2.25 c0.20 -3.15 -0.40 -3.35 -0.80 -0.30 l-0.35 2.55 -2.20 0 c-2 0 -2.20 -0.10 -2.20 -1.25z"/>
  <path d="M24.20 37.30 l0.30 -2.75 -1.85 -0.20 c-1.25 -0.15 -0.90 -0.20 1 -0.20 2.70 0 2.85 0.05 2.85 1.25 0 1.50 -1.45 4.60 -2.15 4.60 -0.30 0 -0.35 -1 -0.15 -2.70z"/>
  <path d="M26.85 36.65 c0.40 -2.50 0.65 -2.75 0.65 -0.50 0 1 -0.20 1.90 -0.45 2.10 -0.30 0.15 -0.35 -0.50 -0.20 -1.60z"/>
  <path d="M32.90 35.65 c-2.10 -0.70 -2.40 -1 -2.70 -2.45 -0.30 -1.75 -1.20 -1.85 -1.20 -0.15 0 1.25 -0.75 1.20 -1.70 -0.15 -0.45 -0.60 -0.80 -0.85 -0.80 -0.50 0 0.60 -2.45 0.80 -4.25 0.30 -1.25 -0.30 -2.25 -2.40 -2.25 -4.70 0 -1.60 -0.20 -1.85 -1.65 -2.40 -0.90 -0.35 -2.50 -0.60 -3.50 -0.60 -1.55 0 -1.85 -0.15 -1.85 -1.05 0 -0.95 0.20 -1.05 1.55 -0.75 0.85 0.15 1.85 0.30 2.25 0.30 0.35 0 2.10 1.10 3.90 2.50 3.15 2.40 6.75 4.30 10.30 5.45 0.95 0.35 2.90 1.30 4.35 2.15 2.05 1.25 2.50 1.75 2.05 2.25 -0.65 0.80 -1.55 0.80 -4.50 -0.20z"/>
  <path d="M35.50 32.65 c-1.80 -0.90 -4.45 -2 -5.95 -2.45 -1.45 -0.45 -3.10 -1.25 -3.60 -1.75 -0.50 -0.50 -0.95 -0.80 -0.95 -0.65 0 0.15 -0.95 -0.50 -2.10 -1.45 -2.65 -2.15 -6 -3.85 -7.50 -3.85 -0.65 0 -1.50 -0.25 -1.90 -0.50 -0.60 -0.40 -0.45 -0.50 0.65 -0.50 1.20 0 1.35 -0.20 1.35 -1.65 0 -1.50 0.20 -1.75 1.90 -2.25 2.35 -0.70 4.10 -2.50 3.65 -3.75 -0.30 -0.85 -0.40 -0.85 -1.25 0.10 -0.95 1.05 -0.95 1.05 0 1.05 0.85 0 0.80 0.15 -0.30 1 -1.30 1 -4 1.35 -4 0.50 0 -0.25 0.70 -0.50 1.55 -0.50 0.80 0 1.40 -0.20 1.25 -0.45 -0.15 -0.25 0.05 -0.70 0.45 -1.05 0.40 -0.35 0.75 -1.15 0.75 -1.80 0 -0.75 0.30 -1.20 0.75 -1.20 0.60 0 0.55 -0.20 -0.25 -1 -0.55 -0.55 -1 -1.35 -1 -1.75 0 -0.40 -0.60 -1.10 -1.30 -1.60 -0.70 -0.45 -1.50 -1.35 -1.70 -1.95 -0.60 -1.55 -5.60 -3.20 -7 -2.30 -0.55 0.35 -1.80 0.60 -2.75 0.60 -1.40 0 -1.75 0.20 -1.75 1 0 0.85 -0.35 1 -2.20 1 -2.20 0 -2.20 0 -2.20 -1.75 0 -1.75 0 -1.75 2.20 -1.75 1.85 0 2.20 -0.15 2.20 -1 0 -0.90 0.35 -1 4.25 -1 2.50 0 4.25 0.20 4.25 0.50 0 0.30 0.25 0.50 0.55 0.50 0.25 0 0.35 -0.20 0.20 -0.50 -0.15 -0.25 0.15 -0.50 0.70 -0.50 0.60 0 1.05 0.35 1.05 0.75 0 0.40 0.35 0.75 0.80 0.75 0.45 0 1.05 0.70 1.35 1.50 0.30 0.85 0.95 1.65 1.45 1.80 0.50 0.15 1.25 0.75 1.75 1.40 0.85 1.05 3.45 2.20 2.85 1.25 -0.15 -0.25 -0.05 -0.45 0.25 -0.45 0.65 0 2.25 2.95 1.85 3.40 -0.15 0.15 -0.30 0 -0.30 -0.30 0 -0.35 -0.20 -0.60 -0.50 -0.60 -0.25 0 -0.50 0.45 -0.50 1 0 0.55 -0.35 1 -0.75 1 -0.40 0 -0.75 0.35 -0.75 0.75 0 0.40 0.35 0.75 0.80 0.75 1 0 2.15 1.40 2.20 2.55 0 0.55 -0.60 0.95 -1.70 1.15 -0.95 0.20 -1.95 0.65 -2.30 1.05 -0.35 0.40 -1.15 0.75 -1.80 0.75 -1.85 0 -1.60 1.80 0.30 2.20 1.30 0.25 1.50 0.50 1.55 1.90 0.10 1.55 0.10 1.55 0.30 0.30 0.20 -1.20 0.45 -1.40 1.95 -1.40 l1.70 0 0 2.75 c0 2.05 0.20 2.75 0.75 2.75 1.35 0 3.25 1.15 3.25 2.05 0 0.90 1.30 1.25 7.15 1.75 3.05 0.30 3.20 0.45 2.20 2.30 l-0.60 1.20 -3.25 -1.65z m-12.45 -22.60 c-0.35 -0.25 -0.50 -0.70 -0.35 -1 0.20 -0.30 0.10 -0.55 -0.15 -0.55 -0.60 0 -0.75 1.15 -0.20 1.65 0.15 0.20 0.55 0.35 0.85 0.35 0.30 0 0.25 -0.20 -0.15 -0.45z m-2.55 -2.05 c-0.30 -0.55 -0.75 -1 -1 -1 -0.30 0 -0.50 -0.30 -0.50 -0.70 0 -0.40 -0.35 -0.80 -0.75 -1 -1.20 -0.45 -0.90 0.25 0.85 2.05 1.85 1.90 2.15 2.05 1.40 0.65z"/>
  <path d="M2.30 32.65 c-2.25 -0.65 -3.25 -2.15 -1.50 -2.15 0.70 0 0.70 -0.15 0.20 -0.75 -0.40 -0.50 -0.75 -3 -0.90 -6.75 -0.30 -7 -0.05 -7.25 3.75 -4.10 1.30 1 3 2.10 3.80 2.35 0.85 0.30 1.65 0.80 1.75 1.20 0.20 0.55 -0.25 0.65 -2.05 0.45 -2 -0.25 -2.30 -0.15 -2.80 0.95 -0.85 1.85 -0.70 2.30 1.25 3.55 l1.80 1.20 0.75 -1.05 c0.50 -0.70 1.25 -1.05 2.45 -1.05 1.55 0 1.70 0.10 1.70 1.55 0 0.85 -0.25 1.95 -0.50 2.50 -0.45 0.80 -0.35 0.95 0.50 0.95 0.55 0 1 0.25 1 0.50 0 0.30 0.35 0.50 0.75 0.50 0.40 0 0.75 -0.35 0.75 -0.75 0 -0.55 0.60 -0.75 2.20 -0.75 1.75 0 2.25 0.20 2.45 1 0.25 0.95 0 1 -3.55 1.05 -2.15 0.05 -5.60 0.10 -7.70 0.15 -2.10 0.05 -4.85 -0.20 -6.10 -0.55z"/>
  <path d="M37.90 28.55 c-0.50 -0.50 -0.90 -1.25 -0.90 -1.70 0 -0.50 -0.40 -0.85 -1 -0.85 -0.80 0 -1 -0.35 -1 -1.55 l0 -1.50 1.45 1 c0.80 0.60 1.70 1.05 2.05 1.05 0.30 0 0.40 0.25 0.25 0.50 -0.15 0.30 0.05 0.50 0.45 0.50 0.45 0 0.80 0.25 0.80 0.55 0 0.30 -0.45 0.40 -1.10 0.20 l-1.15 -0.30 1.15 1 c0.60 0.50 1.10 1.20 1.10 1.50 0 0.80 -1.15 0.60 -2.10 -0.40z"/>
  <path d="M31.50 21.20 c0 -1.95 0.45 -1.90 2 0.30 l1.05 1.50 -1.50 0 c-1.45 0 -1.55 -0.15 -1.55 -1.80z"/>
  <path d="M9.15 20.80 c-1.15 -0.40 -3.50 -1.70 -5.20 -3 -1.65 -1.25 -3.25 -2.30 -3.50 -2.30 -0.25 0 -0.45 -0.90 -0.45 -2 0 -1.95 0.05 -2 1.70 -2 1.50 0 1.75 -0.15 1.90 -1.35 0.15 -1.25 0.40 -1.40 2.10 -1.55 l1.90 -0.15 -0.35 3.30 c-0.30 3.05 -0.25 3.45 0.80 4.55 1.60 1.70 2.45 1.55 2.45 -0.55 0 -0.95 -0.20 -1.75 -0.50 -1.75 -0.25 0 -0.50 -0.80 -0.50 -1.80 0 -1.75 0.05 -1.75 1.90 -1.60 1.55 0.15 1.85 0.35 2 1.40 0.10 0.70 0.40 1.75 0.70 2.35 0.30 0.65 0.40 1.30 0.25 1.45 -0.50 0.50 -1.70 -0.70 -2.05 -2.05 -0.35 -1.40 -1.30 -1.70 -1.30 -0.45 0 0.45 0.80 1.60 1.75 2.55 0.95 0.95 1.75 1.85 1.75 1.95 0 0.10 -0.55 0.20 -1.25 0.20 -1.10 0 -1.25 0.20 -1.25 1.75 0 1.95 0.05 1.95 -2.85 1.05z"/>
  <path d="M28 17.25 c0 -0.40 -0.20 -0.75 -0.50 -0.75 -0.25 0 -0.50 -0.20 -0.50 -0.50 0 -0.25 0.30 -0.50 0.70 -0.50 0.40 0 0.80 -0.20 0.90 -0.50 0.10 -0.25 0.65 0.30 1.30 1.25 l1.10 1.75 -1.50 0 c-1 0 -1.50 -0.25 -1.50 -0.75z"/>
  <path d="M26.30 8.45 c-0.75 -1.10 -1.25 -2.15 -1.10 -2.30 0.10 -0.15 0.85 0.70 1.60 1.80 0.75 1.15 1.25 2.20 1.10 2.30 -0.15 0.15 -0.85 -0.65 -1.60 -1.80z"/>
 </g>
 <g fill="#477e52">
  <path d="M34.50 36.15 c-0.40 -0.10 -1.10 -0.35 -1.50 -0.50 -0.40 -0.20 -1.75 -0.65 -2.95 -1.10 -3.25 -1.15 -3.40 -2.25 -0.25 -1.90 1.35 0.15 2.50 0.50 2.60 0.80 0.10 0.30 1 0.55 2 0.55 2.25 0.05 3.85 1.05 3 1.90 -0.60 0.60 -1.60 0.70 -2.90 0.25z m2.50 -0.65 c0 -0.25 -0.50 -0.50 -1.10 -0.50 -0.95 0 -1 0.10 -0.40 0.50 0.95 0.65 1.50 0.65 1.50 0z"/>
  <path d="M37.90 33.95 c-1.20 -0.65 -1.15 -1.45 0.10 -1.45 0.65 0 1 0.35 1 1 0 1.15 0.05 1.15 -1.10 0.45z"/>
  <path d="M15.50 24.75 c0 -0.50 -0.50 -0.75 -1.50 -0.75 -0.95 0 -1.50 -0.25 -1.50 -0.70 0 -0.55 0.40 -0.55 2.15 -0.15 3 0.70 4.35 1.25 4.35 1.85 0 0.25 -0.80 0.50 -1.75 0.50 -1.20 0 -1.75 -0.25 -1.75 -0.75z"/>
  <path d="M17.50 22.95 c-0.70 -0.20 -2.10 -0.50 -3.10 -0.70 -2.50 -0.40 -2.60 -1.75 -0.15 -1.75 1.20 0 1.75 0.25 1.75 0.75 0 0.45 0.45 0.75 1.20 0.75 0.70 0 1.40 0.25 1.55 0.55 0.50 0.75 0.15 0.85 -1.25 0.40z"/>
  <path d="M32.50 21.40 c0 -0.60 0.05 -0.95 0.15 -0.85 0.05 0.10 0.45 0.60 0.80 1.10 0.60 0.70 0.55 0.85 -0.15 0.85 -0.50 0 -0.80 -0.40 -0.80 -1.10z"/>
  <path d="M12.65 17.50 c-1.80 -1.05 -2.30 -2.80 -2.05 -6.50 0.10 -1.90 0.35 -2.30 1.30 -2.40 0.60 -0.10 1.10 -0.40 1.10 -0.65 0 -0.60 6.35 -0.60 6.75 0.05 0.20 0.30 0.55 0.35 0.85 0.20 0.30 -0.20 0.40 -0.10 0.25 0.15 -0.20 0.30 0 0.65 0.40 0.85 0.40 0.15 0.75 0.85 0.75 1.55 0 0.70 0.25 1.25 0.50 1.25 0.80 0 0.60 2.35 -0.25 2.65 -0.80 0.35 -1.45 -0.40 -1 -1.15 0.45 -0.70 -0.40 -0.65 -1.15 0.10 -0.45 0.45 -0.60 0.45 -0.60 -0.05 0 -0.35 -0.35 -1 -0.80 -1.40 -0.55 -0.55 -0.60 -0.90 -0.20 -1.15 0.75 -0.45 -0.30 -1.30 -2.15 -1.75 -0.85 -0.25 -1.35 -0.15 -1.35 0.20 0 0.30 0.45 0.55 1 0.55 0.55 0 1 0.25 1 0.50 0 0.30 -0.25 0.50 -0.55 0.50 -0.55 0 -1.95 1.20 -1.95 1.70 0 0.55 2.25 2.30 3 2.30 0.45 0 0.80 0.45 0.85 1 0.05 0.75 -0.20 1 -1.25 1 -2.10 0 -4.45 -1.70 -4.85 -3.45 -0.35 -1.60 -1.25 -2.15 -1.25 -0.80 0 2.65 3.75 5.65 6.20 5.05 0.75 -0.20 1.30 -0.10 1.30 0.20 0 0.90 -4.15 0.55 -5.85 -0.50z"/>
  <path d="M25.80 7.70 c-0.50 -0.70 -0.75 -1.40 -0.65 -1.55 0.15 -0.10 0.65 0.35 1.15 1.05 0.45 0.75 0.70 1.45 0.60 1.60 -0.15 0.10 -0.65 -0.35 -1.10 -1.10z"/>
 </g>
 <g fill="#3d6f71">
  <path d="M18.05 17.55 c1 -0.45 2.20 -1.15 2.65 -1.50 1.20 -1 1 0.25 -0.20 1.45 -0.60 0.60 -1.60 1 -2.60 0.95 l-1.65 -0.05 1.80 -0.85z"/>
  <path d="M13.50 17.45 c-1.20 -0.50 -2 -1.30 -2 -2.05 0 -0.25 0.40 0 0.90 0.50 0.50 0.45 1.35 1.10 1.90 1.45 1.15 0.70 0.85 0.75 -0.80 0.10z"/>
  <path d="M16.25 16.60 c-1.60 -0.55 -2.45 -1.25 -3.45 -2.75 -0.85 -1.40 -0.85 -1.45 0.25 -2.65 1 -1.05 1 -1.20 0.25 -1.20 -0.50 0 -1 0.45 -1.15 1 -0.35 1.25 -1.15 1.30 -1.15 0.10 0 -1.85 1.60 -2.60 5.60 -2.60 4.45 0 5.90 0.85 5.90 3.45 0 1.35 -0.15 1.55 -0.90 1.35 -0.60 -0.20 -1.40 0.20 -2.35 1.30 -0.85 0.90 -1.15 1.35 -0.75 1.05 0.40 -0.35 1.05 -0.65 1.50 -0.65 0.50 0 0.40 0.30 -0.50 1 -1.30 1.05 -1.65 1.10 -3.25 0.60z m2.70 -3.40 c0.10 -0.10 0.10 -0.35 -0.10 -0.50 -0.40 -0.45 -2.35 0.30 -2.35 0.85 0 0.45 1.85 0.15 2.45 -0.35z m-0.40 -2.90 c-0.45 -0.55 -0.45 -0.75 0.05 -0.95 0.35 -0.15 -0.45 -0.30 -1.75 -0.30 -1.50 -0.05 -2.30 0.15 -2.10 0.45 0.15 0.30 0.75 0.50 1.30 0.50 0.50 0 0.95 0.25 0.95 0.50 0 0.30 0.50 0.50 1.05 0.50 0.85 0 0.95 -0.15 0.50 -0.70z"/>
 </g>
 <g fill="#3ca64d">
  <path d="M0 38.05 c0 -2.15 0.95 -2.75 3.55 -2.20 1.50 0.30 1.85 1.05 0.90 2 -0.40 0.40 -0.40 0.65 0 0.85 1.20 0.75 0.40 1.30 -1.95 1.30 l-2.50 0 0 -1.95z"/>
  <path d="M5.50 38.40 c0 -3.45 0.40 -3.90 3.05 -3.90 3 0 3.65 0.95 1.90 2.85 l-1.20 1.25 2.05 -1 c2.45 -1.25 3 -0.95 1.85 0.95 -0.80 1.35 -1.05 1.45 -4.25 1.45 l-3.40 0 0 -1.60z"/>
  <path d="M13.65 39.35 c0.10 -0.35 0.90 -0.60 1.75 -0.60 1.65 0 1.90 -0.20 1.15 -1 -0.85 -0.90 0.30 -2.75 1.70 -2.75 0.75 0 1.20 -0.20 1 -0.50 -0.20 -0.30 1.10 -0.50 3.55 -0.50 l3.80 0 -0.35 1.80 c-0.75 4 -0.65 4 -7.05 4.10 -4.35 0.05 -5.70 -0.10 -5.55 -0.55z m10.85 -3.35 c0 -0.80 -0.20 -1.50 -0.50 -1.50 -0.25 0 -0.50 0.70 -0.50 1.50 0 0.85 0.25 1.50 0.50 1.50 0.30 0 0.50 -0.65 0.50 -1.50z"/>
  <path d="M27.10 36.50 c0 -0.95 0.10 -1.35 0.25 -0.85 0.10 0.45 0.10 1.25 0 1.75 -0.15 0.45 -0.25 0.05 -0.25 -0.90z"/>
  <path d="M14.50 36 c0.95 -0.65 1.50 -0.65 1.50 0 0 0.30 -0.50 0.50 -1.10 0.50 -0.95 0 -1 -0.10 -0.40 -0.50z"/>
  <path d="M36.40 36.15 c1.45 -0.60 0.50 -1.20 -1.40 -0.90 -1.90 0.30 -2 0.30 -2 -0.95 0 -0.80 -0.30 -1.30 -0.75 -1.30 -0.40 0 -0.75 0.45 -0.75 0.95 0 0.85 -0.15 0.90 -1.80 0.40 -1.05 -0.30 -2.05 -1.05 -2.35 -1.70 -0.25 -0.60 -0.70 -1 -0.95 -0.85 -0.20 0.15 -0.30 0.40 -0.20 0.60 0.10 0.20 -3.70 0.40 -8.50 0.45 -8.90 0.15 -10 -0.10 -8.55 -1.75 0.40 -0.45 1 -1.40 1.30 -2.10 0.50 -1.05 0.35 -0.95 -0.80 0.40 -0.75 0.90 -1.65 1.60 -1.95 1.60 -0.25 0 -1.30 -0.60 -2.25 -1.30 -0.95 -0.70 -2.15 -1.50 -2.70 -1.80 -2.05 -1.15 0.25 1 2.55 2.35 2.85 1.70 2.90 2.75 0.10 2.75 -1.15 0 -2.85 -0.25 -3.75 -0.60 l-1.65 -0.60 0 -5.45 c0 -4.90 0.10 -5.40 0.90 -5.25 0.65 0.15 0.80 0.60 0.75 2.05 -0.15 2.35 0.15 2.35 1.15 -0.10 0.40 -1.10 1.10 -2.10 1.50 -2.25 1.10 -0.40 10.20 2.30 10.20 3.05 0 0.40 -0.60 0.65 -1.45 0.65 -0.80 0 -1.80 0.15 -2.25 0.30 -1.35 0.50 -0.90 1.20 0.75 1.20 1.55 0 1.60 0 1.35 2.20 -0.20 1.65 -0.10 2.30 0.45 2.50 1.50 0.60 2.15 0.30 2.15 -0.95 0 -1.10 0.20 -1.25 2 -1.25 1.45 0 2 -0.20 2 -0.75 0 -0.40 -0.30 -0.75 -0.70 -0.75 -0.40 0 -0.80 -0.65 -0.90 -1.50 -0.25 -1.80 -0.20 -1.85 1.95 -0.20 1.05 0.80 1.65 1.70 1.65 2.45 0 0.65 0.25 1.35 0.50 1.50 0.30 0.15 0.50 -0.20 0.50 -0.80 0 -1 0.10 -1.05 0.90 -0.40 0.45 0.40 2 1.20 3.35 1.80 9.60 4 11.60 5.10 10.65 6.05 -0.35 0.35 -0.85 0.60 -1.10 0.55 -0.30 0 -0.25 -0.15 0.10 -0.30z"/>
  <path d="M3 34.50 l-1.75 -0.35 1.60 -0.10 c0.85 0 1.75 0.20 1.90 0.45 0.15 0.30 0.25 0.45 0.15 0.45 -0.10 -0.05 -0.95 -0.25 -1.90 -0.45z"/>
  <path d="M35.50 32.70 c-1.25 -0.65 -3.55 -1.65 -5.15 -2.25 -2 -0.75 -2.70 -1.25 -2.25 -1.50 0.90 -0.60 3.90 -0.55 3.90 0.05 0 0.30 0.55 0.50 1.25 0.50 0.70 0 1.25 0.25 1.25 0.50 0 0.30 0.45 0.50 1 0.50 0.55 0 1 0.35 1 0.75 0 0.40 0.25 0.75 0.50 0.75 0.30 0 0.50 -0.35 0.50 -0.75 0 -0.45 0.45 -0.75 1.25 -0.75 1.40 0 1.50 0.25 0.65 2.15 -0.75 1.60 -0.95 1.60 -3.90 0.05z"/>
  <path d="M36.90 29.05 c-0.50 -0.50 -1.05 -1.95 -1.20 -3.25 l-0.35 -2.35 1.60 0.90 c1.05 0.60 1.50 1.20 1.35 1.75 -0.10 0.45 0.25 1.25 0.75 1.70 0.50 0.45 0.95 1.15 0.95 1.55 0 0.95 -2.10 0.75 -3.10 -0.30z"/>
  <path d="M25.80 28.25 c-0.45 -0.45 -0.80 -0.70 -0.80 -0.55 0 0.20 -1.25 -0.70 -2.80 -1.95 -1.55 -1.25 -3.75 -2.55 -5 -2.85 -1.40 -0.40 -2.20 -0.90 -2.20 -1.40 0 -0.60 -0.10 -0.65 -0.45 -0.05 -0.75 1.20 -6.65 -0.75 -9.95 -3.30 -1.50 -1.15 -3.15 -2.25 -3.65 -2.40 -0.55 -0.20 -0.95 -0.75 -0.95 -1.30 0 -1.20 0.10 -1.20 2.50 0.05 1.30 0.65 2.35 1.70 3 3 0.60 1.15 1.40 2 1.90 2 0.45 0 1.40 0.15 2.05 0.35 0.85 0.20 1.10 0.15 0.85 -0.25 -0.20 -0.35 -0.90 -0.60 -1.55 -0.60 -1.40 0 -3.75 -2.60 -3.75 -4.15 0 -0.60 0.20 -1.95 0.45 -2.95 0.25 -1.05 0.25 -1.80 0.05 -1.65 -0.20 0.10 -0.50 1.15 -0.70 2.30 -0.20 1.10 -0.50 1.95 -0.70 1.85 -0.20 -0.10 -1.20 -0.50 -2.20 -0.90 -1.45 -0.50 -1.90 -1 -1.90 -1.85 0 -1.25 1.35 -1.60 2.35 -0.60 0.45 0.45 0.70 0.05 1.15 -1.50 0.50 -1.90 0.65 -2.05 2.30 -2.05 l1.75 0 -0.10 3.80 c-0.10 3.25 0.05 3.90 0.95 4.85 1.25 1.20 1.90 0.90 1.15 -0.55 -0.30 -0.60 -0.55 -1.95 -0.55 -3.05 0 -1.95 0.10 -2.05 1.45 -2.05 1.25 0 1.50 -0.20 1.65 -1.35 0.15 -1.20 0.40 -1.40 2.05 -1.55 1.40 -0.10 1.85 0 1.85 0.60 0 0.45 -0.35 0.80 -0.80 0.80 -0.40 0 -0.60 0.25 -0.45 0.50 0.20 0.30 -0.25 0.50 -1 0.50 -0.85 0 -1.20 0.20 -0.95 0.60 0.20 0.35 0.15 0.40 -0.20 0.20 -0.35 -0.20 -0.60 -0.05 -0.60 0.40 0 0.40 0.25 0.90 0.50 1.05 0.30 0.15 0.50 0.60 0.50 0.90 0 0.35 -0.35 0.20 -0.70 -0.25 -0.80 -1.10 -1.30 -1.15 -1.30 -0.15 0 1.55 1.45 3.50 3.20 4.45 1.60 0.85 2 0.90 3.80 0.30 1.10 -0.35 2.25 -0.95 2.55 -1.35 0.30 -0.35 0.85 -0.65 1.25 -0.65 0.35 0 0.80 -0.25 1 -0.60 0.25 -0.40 0.10 -0.45 -0.45 -0.25 -0.65 0.25 -0.85 0.05 -0.85 -0.70 0 -0.75 -0.25 -0.95 -0.75 -0.75 -0.75 0.25 -2.25 -0.90 -2.25 -1.75 0 -0.65 1.20 -0.55 1.95 0.20 0.50 0.50 0.55 0.45 0.30 -0.25 -0.20 -0.50 -0.55 -0.90 -0.85 -0.90 -0.25 0 -0.35 -0.20 -0.20 -0.45 0.20 -0.25 -0.20 -0.35 -0.80 -0.20 -0.95 0.20 -1 0.15 -0.40 -0.30 0.65 -0.45 0.65 -0.55 -0.10 -0.55 -0.55 0 -0.90 -0.40 -0.90 -0.95 0 -0.50 -0.35 -1.05 -0.75 -1.25 -0.40 -0.15 -0.75 -0.70 -0.75 -1.20 0 -0.65 -0.75 -1.15 -2.70 -1.80 -3.15 -1.10 -5.35 -0.75 -6.75 1 -1.05 1.35 -2.40 1.50 -4.90 0.60 -2.10 -0.75 -2.10 -1.30 0 -1.55 l1.60 -0.20 -1.60 -0.05 c-1.55 -0.10 -1.65 -0.25 -1.65 -1.85 l0 -1.75 3.85 0 c3.75 0 3.80 0 2.90 1 -0.50 0.55 -0.65 1 -0.35 1 0.35 0 0.85 -0.45 1.20 -1 0.70 -1.10 1.90 -1.30 3.30 -0.55 0.45 0.30 2 0.85 3.45 1.30 1.95 0.60 2.80 1.20 3.35 2.30 0.40 0.80 0.50 1.35 0.25 1.20 -0.25 -0.20 -0.45 -0.10 -0.45 0.15 0 0.65 2.75 3.15 3.15 2.85 0.20 -0.15 0.25 -0.10 0.15 0.05 -0.30 0.40 2.15 2.70 2.90 2.70 0.40 0 0.85 0.60 1.05 1.40 0.15 0.75 0.65 1.70 1.05 2.15 0.40 0.45 0.85 1.95 1.05 3.40 l0.30 2.55 -1.85 0 c-1.60 0 -1.80 -0.15 -1.80 -1.30 0 -1.70 -1.20 -1.30 -1.40 0.45 -0.15 1.25 -0.05 1.35 1.85 1.35 2 0 2.05 0.05 2.05 1.75 0 1.85 -1.25 2.55 -1.60 0.90 -0.15 -0.80 -0.25 -0.75 -0.45 0.10 -0.15 0.55 -0.10 1.45 0.10 2 0.30 0.85 0.40 0.85 0.40 0.15 0.10 -1.55 1.45 -0.95 2.05 0.90 0.70 2.05 0.45 2.60 -0.70 1.45z"/>
  <path d="M1.15 20.15 c-0.90 -0.15 -1.15 -0.55 -1.15 -1.70 0 -1.75 0.85 -1.85 2.70 -0.30 1 0.90 1.20 1.25 0.70 1.75 -0.35 0.35 -0.70 0.55 -0.85 0.55 -0.20 -0.05 -0.80 -0.20 -1.40 -0.30z"/>
  <path d="M16.75 16.55 c-0.35 -0.60 0.60 -1.20 1.25 -0.80 0.25 0.15 0.95 0.05 1.50 -0.25 0.55 -0.30 1 -0.40 1 -0.30 0 0.30 -2.75 1.80 -3.20 1.80 -0.15 0 -0.35 -0.20 -0.55 -0.45z"/>
  <path d="M23.15 9.25 c-0.45 -1 -0.40 -1.25 0.15 -1.25 0.40 0 0.70 -0.30 0.70 -0.60 0 -0.35 0.45 0.05 1 0.85 1.25 1.90 1.25 2.25 -0.10 2.25 -0.75 0 -1.35 -0.45 -1.75 -1.25z"/>
  <path d="M26.30 8.50 c-0.70 -1.10 -1.15 -2 -0.95 -2 0.50 0 2.80 3.50 2.50 3.80 -0.10 0.10 -0.80 -0.70 -1.55 -1.80z"/>
  <path d="M19.65 7.15 c-0.35 -0.15 -0.65 -0.60 -0.65 -1.05 0 -0.75 0.10 -0.75 0.85 0.05 0.90 0.90 0.80 1.35 -0.20 1z"/>
 </g>
 <g fill="#33c24a">
  <path d="M33.50 34.30 c0 -1.50 0 -1.50 1.75 -0.70 1.35 0.60 1.65 1.40 0.55 1.40 -0.40 0 -1.05 0.15 -1.50 0.30 -0.60 0.25 -0.80 0 -0.80 -1z"/>
  <path d="M27.80 33.20 c-0.45 -0.40 -0.80 -1.15 -0.80 -1.60 0 -0.70 -0.10 -0.75 -0.45 -0.10 -0.30 0.40 -0.35 0.90 -0.25 1.10 0.15 0.20 0 0.40 -0.25 0.40 -0.30 0 -0.55 -0.55 -0.55 -1.25 0 -1.40 1.25 -2.20 2.15 -1.30 0.30 0.30 1.05 0.55 1.70 0.55 1.15 0 1.45 0.70 0.85 2.20 -0.40 1 -1.40 1 -2.40 0z"/>
  <path d="M36 32.85 c-1.25 -0.60 -2.55 -1.35 -2.85 -1.70 -0.35 -0.30 -1.55 -0.70 -2.65 -0.90 -2.25 -0.40 -3 -1.35 -2.05 -2.85 0.70 -1.10 0.25 -2.05 -1.90 -4.10 -1.30 -1.25 -1.55 -1.85 -1.45 -3.65 0.05 -1.40 -0.25 -2.45 -0.75 -3.05 -1.05 -1.15 -1.10 -1.95 -0.10 -1.10 1.05 0.85 0.95 0.05 -0.25 -1.75 -0.55 -0.80 -1 -1.15 -1 -0.75 0 1.35 -1.35 -0.60 -1.70 -2.45 -0.30 -1.65 -0.25 -1.65 0.60 -0.90 1.30 1.20 1.65 1.05 1.10 -0.35 -0.65 -1.80 1.15 -2.15 2.30 -0.40 0.80 1.20 0.80 1.30 0 1.90 -1.70 1.20 0.55 5.10 2.65 4.55 0.80 -0.20 1.55 0.50 3.60 3.50 1.40 2.05 2.85 3.85 3.25 4 1 0.35 0.85 1.30 -0.25 2.15 -1.05 0.75 -0.95 1.50 0.25 1.50 0.40 0 0.70 -0.35 0.70 -0.75 0 -0.50 0.50 -0.75 1.50 -0.75 1.50 0 2 0.65 0.95 1.30 -0.35 0.20 -0.10 0.75 0.75 1.45 1.30 1.15 1.75 3.40 0.80 4 -0.25 0.15 -0.50 0.75 -0.50 1.30 0 1.15 -0.20 1.15 -3 -0.20z"/>
  <path d="M11.85 29.15 c-0.20 -0.15 -0.35 -1.10 -0.35 -2 0 -1.65 0.05 -1.70 1.90 -1.55 1.75 0.15 1.85 0.25 2 2.05 0.15 1.80 0.10 1.85 -1.55 1.85 -0.90 0 -1.85 -0.15 -2 -0.35z"/>
  <path d="M15.75 22.55 c-1.20 -0.25 -1.55 -0.60 -1.65 -1.70 -0.15 -1.30 -0.05 -1.40 1.60 -1.25 1.45 0.10 1.65 0.25 1.30 0.90 -0.30 0.55 -0.25 1.05 0.10 1.40 0.80 0.80 0.40 0.95 -1.35 0.65z"/>
  <path d="M9.15 10.05 c-2 -0.50 -3.65 -0.75 -3.65 -0.60 0 0.15 -0.35 -0.15 -0.75 -0.65 -0.40 -0.55 -0.75 -1.75 -0.75 -2.65 0 -1.55 0.10 -1.65 1.65 -1.65 0.90 0 2.15 0.35 2.80 0.80 1.05 0.75 2.15 1.10 5.95 2.05 1 0.25 1.10 0.10 1.10 -1.80 0 -1.70 0.15 -2.05 1 -2.05 0.70 0 1 0.35 1 1.10 0 0.60 0.35 1.50 0.85 2 0.75 0.85 0.70 0.90 -1 0.90 -1.15 0 -1.85 0.25 -1.85 0.65 0 0.30 -0.70 0.90 -1.50 1.25 -0.85 0.40 -1.40 0.90 -1.20 1.15 0.15 0.25 0.20 0.45 0.10 0.40 -0.10 0 -1.80 -0.40 -3.75 -0.90z"/>
  <path d="M26.10 8.20 c-0.60 -0.95 -0.95 -1.70 -0.70 -1.70 0.45 0 2.30 2.95 2 3.25 -0.10 0.10 -0.65 -0.60 -1.30 -1.55z"/>
 </g>
 <g fill="#47b359">
  <path d="M6 38.15 c0 -2.30 0.55 -3.25 1.45 -2.65 0.85 0.50 2.15 0.10 1.75 -0.55 -0.15 -0.25 0.05 -0.45 0.45 -0.45 1.40 0 1.50 1.70 0.15 2.80 -1.60 1.45 -1.15 1.80 1.05 0.90 2.05 -0.90 2.45 -0.70 1.55 0.75 -0.55 0.85 -1.15 1.05 -3.50 1.05 l-2.90 0 0 -1.85z"/>
  <path d="M17.95 38.60 c-1.55 -1.65 -1.40 -3.15 0.40 -3.95 1.80 -0.85 2.65 -0.80 2.65 0.10 0 0.40 0.25 0.75 0.50 0.75 0.30 0 0.50 -0.35 0.50 -0.80 0 -0.60 0.45 -0.70 2.15 -0.60 1.90 0.15 2.10 0.25 1.95 1.40 -0.30 2.60 -0.60 3.25 -1.95 3.90 -2.25 1 -4.75 0.70 -6.20 -0.80z m3.55 -1.35 c-0.35 -0.40 -0.85 -0.75 -1.10 -0.75 -0.30 0 -0.25 0.35 0.10 0.75 0.35 0.40 0.85 0.75 1.10 0.75 0.30 0 0.25 -0.35 -0.10 -0.75z"/>
  <path d="M30.65 34.60 c-1.70 -0.60 -2.15 -1.05 -2.15 -1.95 0 -1.75 1.10 -1.85 4 -0.40 1.80 0.90 2.50 1.55 2.40 2.15 -0.20 1.15 -1.70 1.20 -4.25 0.20z"/>
  <path d="M2.95 32.65 c-0.05 -0.25 -0.05 -0.55 -0.05 -0.75 0.10 -0.55 -1.35 -0.90 -1.65 -0.40 -0.85 1.35 -1.25 0.10 -1.25 -3.80 0 -3.15 0.15 -4.25 0.60 -4.10 0.35 0.15 0.75 0.75 0.90 1.45 0.25 1.10 0.35 1.10 0.65 0.25 0.35 -0.90 0.40 -0.90 1.55 0.15 0.85 0.80 1.65 1.10 2.85 0.95 1.45 -0.10 1.75 -0.35 1.85 -1.50 0.10 -0.80 0.40 -1.40 0.70 -1.40 0.25 0 0.40 -0.35 0.20 -0.75 -0.35 -0.90 -0.70 -0.95 4.50 0.30 5.55 1.30 7.20 2.45 7.20 5.05 0 1.90 0 1.90 -2 1.90 -1.75 0 -2 0.15 -2 1.20 0 1.05 -0.30 1.20 -2.35 1.45 -2.05 0.20 -2.50 0.10 -3.50 -0.95 -1.10 -1.20 -1.10 -1.35 -0.40 -2.75 0.80 -1.55 0.15 -2.10 -0.70 -0.55 -1.70 2.90 -1.70 2.90 -5.50 0.40 -4.35 -2.80 -4.70 -2.25 -0.50 0.75 l3 2.20 -1.55 0.15 c-0.85 0.10 -1.40 0.40 -1.25 0.65 0.20 0.25 -0.05 0.45 -0.45 0.45 -0.45 0 -0.85 -0.15 -0.85 -0.35z m15.20 -5.80 c0.15 -0.45 -0.40 -0.85 -1.70 -1.20 -1.55 -0.40 -1.95 -0.40 -1.95 0.15 0 0.40 0.45 0.70 0.95 0.70 0.55 0 1.15 0.25 1.30 0.50 0.45 0.70 1.10 0.60 1.40 -0.15z"/>
  <path d="M18.20 32.55 c-0.10 -0.10 -0.20 -0.55 -0.20 -0.95 0 -0.60 0.60 -0.70 3.40 -0.45 2.35 0.20 3.10 0.15 2.50 -0.20 -0.50 -0.25 -0.90 -0.95 -0.90 -1.45 0 -1.20 -0.10 -1.20 2.70 0 2.25 0.95 2.80 1.65 1.80 2.25 -0.25 0.15 -0.50 0 -0.50 -0.35 0 -0.50 -0.15 -0.45 -0.45 0.10 -0.30 0.40 -0.40 0.85 -0.30 1.05 0.25 0.35 -7.70 0.35 -8.05 0z"/>
  <path d="M31.85 30.90 c-1.45 -0.70 -1.85 -1.15 -1.65 -1.80 0.25 -0.75 0.20 -0.75 -0.40 0.05 -0.65 0.85 -0.75 0.85 -2.50 0.05 -1 -0.50 -1.80 -1.05 -1.80 -1.30 0 -0.20 -0.30 -0.40 -0.65 -0.40 -1 0 -2.75 -2.10 -2.95 -3.50 -0.10 -0.90 -0.60 -1.40 -1.90 -1.80 -0.95 -0.30 -1.80 -0.90 -1.90 -1.30 -0.05 -0.35 -0.65 -1 -1.25 -1.35 -1 -0.65 -1.05 -0.65 -0.45 0.10 0.40 0.45 0.55 1.05 0.35 1.35 -0.20 0.30 0.65 0.95 1.95 1.55 3.05 1.30 2.95 2.10 -0.05 0.95 -1.35 -0.50 -4.30 -1.45 -6.65 -2.05 -4.85 -1.25 -6.20 -2 -2.65 -1.40 1.30 0.20 2.65 0.40 2.90 0.40 0.30 0.05 0.55 -0.65 0.60 -1.50 0.15 -1.90 0.50 -2.30 1.25 -1.55 0.35 0.35 1.25 0.60 2.05 0.60 0.75 0 1.30 0.20 1.15 0.40 -0.30 0.50 1.90 2.60 2.70 2.60 0.30 0 0.50 -0.20 0.50 -0.50 0 -0.25 -0.25 -0.50 -0.55 -0.50 -0.35 0 -0.45 -0.50 -0.35 -1.25 0.15 -0.70 0.05 -1.25 -0.25 -1.25 -0.95 0 0 -0.55 1.45 -0.80 0.80 -0.15 1.80 -0.60 2.25 -0.95 0.60 -0.55 0.90 -0.60 1.35 -0.15 0.95 0.95 0.70 -0.20 -0.40 -1.85 -0.70 -1.05 -1 -1.25 -1 -0.60 0 0.95 -1.30 1.15 -1.65 0.25 -0.15 -0.50 -0.35 -0.50 -0.95 0 -0.65 0.55 -0.85 0.45 -1.10 -0.70 -0.40 -1.60 -0.10 -2.05 0.95 -1.20 1 0.80 0.95 -0.05 -0.05 -1.30 -0.40 -0.50 -0.60 -0.65 -0.40 -0.25 0.20 0.45 0.15 0.60 -0.20 0.40 -0.25 -0.20 -0.40 -0.80 -0.25 -1.35 0.25 -1 0.25 -1 1.65 0 1.70 1.20 4 3.85 4 4.60 0 0.30 0.40 1 0.85 1.50 0.60 0.70 0.80 1.75 0.75 4 -0.05 1.70 -0.20 3.50 -0.40 4 -0.35 1.15 -1.55 1.15 -1.85 0.05 -0.15 -0.50 -0.25 0.25 -0.20 1.60 0 1.40 0.10 2 0.20 1.40 0.25 -1.30 1.15 -1.55 1.15 -0.40 0 0.40 0.45 0.75 1 0.75 0.55 0 1 0.35 1 0.75 0 0.50 0.50 0.75 1.45 0.75 0.85 0 1.65 0.25 1.80 0.50 0.15 0.30 0.85 0.50 1.55 0.50 0.65 0 1.20 0.25 1.20 0.50 0 0.30 0.35 0.50 0.75 0.50 0.40 0 0.75 0.45 0.75 1 0 1.20 -0.65 1.20 -3.15 -0.10z"/>
  <path d="M37 28 c0 -1.10 0.05 -1.15 1.20 -0.70 1.15 0.45 1 1.70 -0.20 1.70 -0.65 0 -1 -0.35 -1 -1z"/>
  <path d="M33.50 24.05 c0 -1.55 0.80 -1.65 2.35 -0.30 l1.40 1.20 -1.85 0.05 c-1.55 0 -1.90 -0.20 -1.90 -0.95z"/>
  <path d="M9.30 18.85 c-1.15 -0.35 -2.40 -1.20 -3.10 -2.10 -1 -1.35 -1.10 -1.80 -0.70 -3.30 0.65 -2.25 0.65 -5 0 -3.95 -0.25 0.40 -0.60 1.60 -0.75 2.60 -0.40 2.15 -0.85 2.30 -3.10 0.90 -1.65 -1 -1.65 -1 -1.65 -5 l0 -4.05 2.15 0.15 c1.70 0.10 2.30 -0.05 3.15 -1.05 1.45 -1.70 5.75 -2.05 9.55 -0.75 2.55 0.85 2.70 1.05 2.45 2.30 -0.15 0.80 0 1.45 0.35 1.60 0.35 0.10 0.10 0.25 -0.55 0.25 -0.65 0.05 -1.50 -0.30 -1.90 -0.70 -1.80 -1.80 -7.80 -2.25 -8.10 -0.60 -0.15 0.70 0.20 0.85 1.60 0.85 1.45 0 1.80 0.20 1.80 0.95 0 0.55 -0.30 1.10 -0.60 1.20 -0.50 0.20 -0.50 0.30 0 0.30 0.30 0.05 0.60 0.40 0.60 0.80 0 0.40 0.45 0.75 0.95 0.75 0.55 0 1.15 0.25 1.35 0.60 0.20 0.35 0.15 0.40 -0.20 0.20 -0.35 -0.20 -0.60 -0.05 -0.60 0.40 0 0.45 0.25 0.80 0.50 0.80 0.30 0 0.50 0.40 0.50 0.90 -0.05 0.80 -0.05 0.80 -0.70 0 -0.70 -0.95 -1.80 -1.20 -1.80 -0.45 0 0.25 0.45 1.45 1.05 2.75 0.90 2.10 0.95 4.40 0.05 4.25 -0.20 -0.05 -1.20 -0.30 -2.30 -0.60z m-1.30 -11.40 c-0.40 -0.25 -1.15 -0.70 -1.65 -1 -0.80 -0.45 -0.85 -0.40 -0.45 0.40 0.30 0.50 1.05 0.95 1.70 1 0.90 0.10 1 0 0.40 -0.40z"/>
  <path d="M17.30 16.25 c0.20 -0.40 0.50 -0.60 0.75 -0.45 0.25 0.10 0.90 0 1.45 -0.30 0.55 -0.30 1 -0.40 1 -0.30 0 0.30 -2.75 1.80 -3.20 1.80 -0.15 0 -0.15 -0.35 0 -0.75z"/>
  <path d="M26.30 8.50 c-0.70 -1.10 -1.15 -2 -0.90 -2 0.25 0 0.90 0.90 1.55 2 0.60 1.10 1 2 0.90 2 -0.10 0 -0.80 -0.90 -1.55 -2z"/>
  <path d="M1.30 3.05 c-0.15 -0.25 0.45 -0.60 1.35 -0.85 l1.60 -0.40 -2.10 -0.15 c-1.45 -0.15 -2.15 -0.45 -2.15 -0.95 0 -0.55 0.80 -0.70 3.50 -0.70 l3.55 0 -1.40 1.75 c-1.35 1.70 -3.70 2.40 -4.35 1.30z"/>
 </g>
 <g fill="#6b7c79">
  <path d="M15.60 15.60 c-2.15 -1.80 -2.05 -4.10 0.20 -4.10 0.65 0 0.05 2.45 -0.65 2.70 -0.50 0.15 0.05 0.20 1.25 0.10 2.25 -0.20 3.30 -0.75 2.25 -1.15 -0.35 -0.15 -0.65 -0.55 -0.65 -0.90 0 -0.35 -0.30 -0.80 -0.60 -0.90 -0.35 -0.15 0.05 -0.30 0.90 -0.30 0.85 -0.05 1.85 0.30 2.20 0.70 0.55 0.65 0.40 1.05 -1 2.50 -1.70 1.80 -1.70 2.15 0.05 1.25 0.50 -0.30 0.95 -0.40 0.95 -0.30 0 0.25 -2.75 1.80 -3.10 1.80 -0.10 0 -0.90 -0.65 -1.80 -1.40z"/>
  <path d="M21.05 11.45 c-0.30 -0.85 -0.70 -1.40 -0.90 -1.30 -0.25 0.10 -0.85 0 -1.40 -0.20 -0.90 -0.45 -0.90 -0.45 0.15 -0.25 0.60 0.10 1 0 0.80 -0.25 -0.15 -0.25 -0.80 -0.45 -1.50 -0.45 -0.65 0 -1.20 -0.20 -1.20 -0.50 0 -0.85 2.80 -0.55 3.60 0.40 0.75 0.80 1.75 4.10 1.25 4.10 -0.15 0 -0.50 -0.70 -0.80 -1.55z"/>
  <path d="M10.80 11.65 c-0.55 -0.55 -0.30 -1.15 0.45 -1.15 0.40 0 0.75 0.20 0.75 0.45 0 0.65 -0.80 1.10 -1.20 0.70z"/>
  <path d="M12.50 9 c0 -0.80 0.35 -1 1.75 -1 0.95 0 1.75 0.25 1.75 0.50 0 0.30 -0.55 0.50 -1.25 0.50 -0.70 0 -1.25 0.25 -1.25 0.50 0 0.30 -0.20 0.50 -0.50 0.50 -0.25 0 -0.50 -0.45 -0.50 -1z"/>
 </g>
 <g fill="#46c95c">
  <path d="M30.40 34.40 c-2.85 -1 -2.85 -1 -2.05 -2.20 0.85 -1.35 1.45 -1.30 4.80 0.40 1.25 0.65 1.85 1.25 1.75 1.80 -0.25 1.15 -1.20 1.15 -4.50 0z"/>
  <path d="M25.55 31.65 c-0.05 -1.30 0.15 -1.65 0.90 -1.65 1.25 0 1.85 0.90 1.10 1.65 -0.40 0.40 -0.55 0.30 -0.55 -0.40 0 -1.15 -0.80 -0.45 -1.15 1 -0.15 0.65 -0.25 0.45 -0.30 -0.60z"/>
  <path d="M32.40 31.05 c-2.45 -1.15 -2.65 -1.40 -1.95 -2.25 0.50 -0.60 0.85 -0.60 2.55 0.05 1.55 0.60 2 1.05 2 2 0 1.35 -0.15 1.35 -2.60 0.20z"/>
  <path d="M28.15 29.65 c-0.80 -0.30 -0.80 -1.40 -0.05 -2.65 0.55 -0.85 0.45 -1.20 -0.80 -2.35 -0.95 -0.95 -1.50 -1.20 -1.65 -0.75 -0.40 1.05 -1.05 0.65 -1.30 -0.75 l-0.20 -1.40 -0.10 1.40 c-0.05 1.05 -0.25 1.40 -0.90 1.25 -0.50 -0.10 -0.90 -0.50 -0.95 -0.90 0 -0.40 -0.20 -1.15 -0.45 -1.65 -0.45 -1.15 0.20 -1.90 1.80 -2 0.65 0 1.35 -0.30 1.55 -0.60 0.50 -0.70 0.50 -1.85 0 -1.55 -0.25 0.15 -0.35 -0.40 -0.20 -1.15 0.10 -0.95 -0.25 -2.10 -1.10 -3.45 -1.65 -2.65 -2.40 -3.10 -2.05 -1.25 0.15 0.75 0.10 1.10 -0.05 0.75 -0.15 -0.30 -0.50 -0.50 -0.75 -0.35 -0.25 0.20 -0.30 -0.05 -0.15 -0.50 0.60 -1.55 -1.25 -2.75 -4.15 -2.75 -2.45 0 -4.60 0.90 -3.85 1.65 0.35 0.35 -2 0.05 -4.30 -0.50 -1.25 -0.30 -1.75 -0.70 -1.75 -1.40 0 -0.75 0.30 -0.95 1.25 -0.85 l1.25 0.15 -1.35 -0.75 c-0.80 -0.40 -1.60 -0.85 -1.85 -1 -0.20 -0.15 -0.30 0.30 -0.15 0.95 0.15 1 0 1.25 -0.85 1.25 -0.85 0 -1.05 -0.30 -1.05 -1.80 0 -1.40 0.15 -1.75 0.75 -1.50 0.55 0.20 0.85 -0.15 1.10 -1.20 0.15 -0.85 0.55 -1.50 0.85 -1.50 0.30 0 1.10 -0.15 1.75 -0.35 1.15 -0.30 1.20 -0.20 0.95 1.70 l-0.30 2.05 2.10 0.25 c1.60 0.25 2.30 0.10 3.10 -0.70 1.15 -1.10 2.70 -1.25 2.75 -0.30 0 0.30 1.70 2.05 3.70 3.80 2.05 1.75 3.85 3.65 4.05 4.25 0.15 0.60 0.65 1.45 1.10 1.95 0.45 0.50 0.75 1.75 0.75 3.05 -0.05 1.80 0.20 2.45 1.45 3.65 2.90 2.75 3.45 5.35 1.55 7.20 -0.50 0.45 -1.20 0.75 -1.50 0.60z"/>
  <path d="M12 28.05 c0 -1.20 0.50 -1.35 1.50 -0.40 0.40 0.30 0.20 0 -0.45 -0.75 l-1.20 -1.40 1.85 0 c1.80 0 1.85 0.05 1.70 1.65 -0.15 1.40 -0.35 1.60 -1.75 1.75 -1.40 0.15 -1.65 0 -1.65 -0.85z"/>
  <path d="M33.50 28.10 c-2.30 -1.15 -2.60 -2.80 -0.70 -4.40 l1.35 -1.20 1.65 1.25 c0.90 0.70 1.85 1.25 2.15 1.25 0.85 0 0.65 1 -0.20 1.35 -0.65 0.25 -0.65 0.40 0.25 1 0.55 0.40 1 0.90 1 1.20 0 0.75 -3.60 0.45 -5.50 -0.45z"/>
  <path d="M14.50 22 c-1.35 -0.85 0 -1.20 1.65 -0.35 1.50 0.75 1.55 0.80 0.35 0.80 -0.70 0 -1.60 -0.15 -2 -0.45z"/>
  <path d="M15 20.50 l-1.25 -0.40 1.40 -0.05 c0.75 -0.05 1.35 0.20 1.35 0.45 0 0.30 -0.05 0.50 -0.10 0.45 -0.10 -0.05 -0.70 -0.25 -1.40 -0.45z"/>
  <path d="M10 3.45 c0 -1.30 0.15 -1.45 1 -1.25 0.55 0.15 1.45 0.45 2 0.60 0.55 0.15 1 0.70 1 1.25 0 0.80 -0.35 0.95 -2 0.95 -1.90 0 -2 -0.10 -2 -1.55z"/>
 </g>
 <g fill="#54c166">
  <path d="M23.50 38.55 c0 -0.25 0.30 -0.60 0.65 -0.70 0.45 -0.20 0.45 -0.35 -0.05 -0.70 -0.30 -0.25 -0.55 -1.05 -0.50 -1.80 0.10 -1.05 0.40 -1.35 1.25 -1.35 1 0 1.15 0.25 1.15 1.90 0 1.05 -0.25 2.15 -0.60 2.50 -0.70 0.70 -1.90 0.80 -1.90 0.15z"/>
  <path d="M28 33.50 c-0.65 -0.45 -0.65 -0.50 0 -0.50 0.40 0 1.10 0.25 1.50 0.50 0.65 0.45 0.65 0.50 0 0.50 -0.40 0 -1.10 -0.25 -1.50 -0.50z"/>
  <path d="M21.65 32.65 c-1.75 -0.10 -3.15 -0.40 -3.15 -0.65 0 -0.20 1.45 -0.30 3.25 -0.15 3.05 0.20 4.35 -0.35 2.50 -1.05 -0.80 -0.30 -1.05 -1.80 -0.30 -1.80 1.25 0 4.05 1.60 3.75 2.10 -0.30 0.45 -0.45 0.45 -0.60 0 -0.30 -0.90 -1.10 -0.20 -1.10 0.95 0 0.50 -0.30 0.90 -0.60 0.85 -0.35 -0.05 -2.05 -0.15 -3.75 -0.25z"/>
  <path d="M12.60 30 c-0.60 -0.60 -1.10 -1.35 -1.10 -1.75 0 -1.05 0.95 -1.40 1.75 -0.75 0.45 0.35 0.75 0.40 0.75 0.10 0 -0.60 -1.45 -1.30 -2.35 -1.15 -1.05 0.15 -0.75 -2.15 0.35 -2.85 1.95 -1.20 8.65 1.20 8.30 3.05 -0.55 2.60 -1.50 3.45 -3.25 2.75 -1.05 -0.35 -1.20 -0.35 -0.65 0.15 1 1.05 0.70 1.45 -1.05 1.45 -1 0 -2.10 -0.40 -2.75 -1z m4.40 -4.45 c0 -1.20 -1 -1.60 -1.85 -0.75 -0.85 0.85 -0.80 1.10 0.25 1.35 1.50 0.40 1.60 0.35 1.60 -0.60z"/>
  <path d="M26.80 28.75 c-1 -0.70 -2 -1.25 -2.20 -1.25 -0.20 0 -0.35 -1.25 -0.35 -2.85 0 -1.80 -0.20 -2.90 -0.60 -3 -0.35 -0.15 -0.65 0.10 -0.65 0.55 0 0.45 0.25 0.80 0.50 0.80 0.30 0 0.50 0.80 0.50 1.75 0 0.95 -0.20 1.75 -0.45 1.75 -0.55 0 -1.65 -2.95 -1.30 -3.55 0.15 -0.20 -0.05 -0.60 -0.50 -0.80 -0.65 -0.40 -0.55 -0.75 0.60 -2.55 1.35 -2.05 2.65 -2.75 2.65 -1.45 0 0.35 -0.25 0.90 -0.60 1.25 -0.40 0.40 -0.40 0.60 -0.05 0.60 1.35 0 1.15 -4.20 -0.25 -6.40 -0.40 -0.60 -0.60 -1.25 -0.45 -1.45 0.20 -0.15 0.55 0.25 0.85 0.90 0.30 0.65 0.85 1.75 1.25 2.45 0.40 0.70 0.75 2.10 0.75 3.15 0 1.50 -0.20 2 -1 2.20 -0.55 0.15 -0.85 0.45 -0.75 0.70 0.15 0.20 0.60 0.30 1 0.10 0.60 -0.20 0.75 0.30 0.75 2.80 0 3.05 0 3.05 1.45 3.05 1.80 0 2.15 0.45 1.35 1.65 -0.60 0.80 -0.80 0.75 -2.50 -0.40z"/>
  <path d="M0 28.50 c0 -0.65 0.25 -1 0.65 -0.85 0.30 0.10 0.60 0.50 0.60 0.85 0 0.35 -0.30 0.75 -0.60 0.90 -0.40 0.10 -0.65 -0.25 -0.65 -0.90z"/>
  <path d="M17.50 22.95 c-0.70 -0.25 -2.70 -0.85 -4.50 -1.40 l-3.25 -1 2.75 0.25 c1.50 0.15 2.85 0.40 3 0.60 0.15 0.20 0.55 0.40 0.95 0.50 0.95 0.20 3.45 1.55 2.80 1.55 -0.25 -0.05 -1.05 -0.25 -1.75 -0.50z"/>
  <path d="M14.60 20.40 c-1.65 -0.45 -1.75 -1.40 -0.15 -1.40 0.85 0 2.45 1.35 2 1.70 -0.10 0.10 -0.95 -0.05 -1.85 -0.30z"/>
  <path d="M19.15 12.25 c-0.60 -1.40 -0.50 -1.50 0.85 -0.75 0.55 0.30 0.85 0.85 0.70 1.25 -0.45 1.05 -0.85 0.90 -1.55 -0.50z"/>
  <path d="M21.20 11.80 c-0.35 -1.55 -1.60 -2.65 -3.20 -2.90 -0.85 -0.10 -1.25 -0.45 -1.25 -1.15 0 -1.70 1.60 -1.45 2.85 0.45 0.65 1 1.40 1.80 1.65 1.80 0.30 0 0.55 0.70 0.60 1.50 0.15 1.80 -0.20 1.95 -0.65 0.30z"/>
  <path d="M8.15 10.55 c-2.25 -1.90 -2.15 -2.75 0.25 -2.35 1 0.20 2.55 0.60 3.40 0.90 l1.55 0.55 -1.05 1.05 c-1.45 1.45 -2.30 1.45 -4.15 -0.15z"/>
  <path d="M0.65 8.85 c-1 -1.05 -0.60 -1.95 1.45 -3.50 1.05 -0.80 1.45 -0.85 2.40 -0.35 1 0.50 1.05 0.50 0.80 -0.40 -0.90 -2.70 4.65 -3.25 10.35 -1 1 0.40 1.35 0.85 1.25 1.60 -0.15 0.90 -0.45 1.05 -2.40 0.90 -1.20 -0.10 -2.35 -0.35 -2.55 -0.65 -0.15 -0.30 -1.05 -0.45 -2 -0.35 l-1.70 0.15 2.40 0.75 c1.30 0.40 2.35 1 2.35 1.30 0 0.35 0.40 0.75 0.90 0.85 0.45 0.15 -0.05 0.20 -1.15 0.10 -1.10 -0.10 -2 -0.20 -2 -0.25 0 -0.05 -0.60 -0.20 -1.40 -0.30 -0.75 -0.05 -1.70 -0.50 -2.15 -0.90 -1.10 -1.15 -1.75 -1 -1.45 0.35 0.35 1.55 -0.25 2.20 -2.40 2.45 -1.40 0.15 -2.10 -0.05 -2.70 -0.75z"/>
 </g>
 <g fill="#63ce75">
  <path d="M25 36.90 c0 -1 0.25 -2 0.50 -2.15 0.65 -0.40 0.65 2.25 0 3.25 -0.35 0.55 -0.50 0.30 -0.50 -1.10z"/>
  <path d="M25.05 31.30 c-0.55 -0.65 -0.55 -1 -0.15 -1.40 0.40 -0.40 0.65 -0.35 0.90 0.25 0.50 1.35 0 2.05 -0.75 1.15z"/>
  <path d="M13.90 29.15 c-0.50 -0.10 -0.90 -0.45 -0.90 -0.70 0 -0.65 0.60 -0.55 1.70 0.30 1 0.75 0.80 0.85 -0.80 0.40z"/>
  <path d="M27.25 29 c-1.60 -0.60 -2.15 -1.60 -2.55 -4.35 -0.30 -2.55 -0.30 -2.60 1.05 -2.95 1.20 -0.30 1.65 -0.10 3.10 1.45 1.80 2 2.05 3.55 0.85 5.25 -0.85 1.20 -0.95 1.25 -2.45 0.60z"/>
  <path d="M14.90 27.90 c-1.60 -0.90 -1.90 -1.35 -1.90 -2.75 0 -1.50 0.15 -1.65 1.45 -1.65 3.45 0 5.35 2.20 3.95 4.50 -0.80 1.25 -1.20 1.25 -3.50 -0.10z"/>
  <path d="M22.75 24 c-0.40 -0.65 -0.05 -1.20 0.70 -0.95 0.30 0.15 0.35 0.50 0.10 0.90 -0.30 0.50 -0.50 0.50 -0.80 0.05z"/>
  <path d="M12.75 21.50 c-0.35 -0.60 0.60 -0.60 2 0 0.90 0.40 0.85 0.45 -0.35 0.45 -0.75 0.05 -1.50 -0.15 -1.65 -0.45z"/>
  <path d="M23.10 21.05 c0.20 -0.65 0.90 -0.80 0.95 -0.20 0 0.20 -0.25 0.45 -0.55 0.60 -0.35 0.10 -0.55 -0.10 -0.40 -0.40z"/>
  <path d="M25 20.40 c0 -0.40 0.25 -0.95 0.50 -1.20 0.35 -0.35 0.25 -1.30 -0.20 -2.95 -0.70 -2.25 -0.70 -2.35 0.10 -1.60 1 1.05 1.20 5.90 0.25 6.20 -0.35 0.15 -0.65 -0.10 -0.65 -0.45z"/>
  <path d="M14.50 14.75 c-0.95 -1.15 -0.40 -2.50 1.15 -2.65 1.25 -0.15 1.35 -0.05 1.35 1.60 0 1.45 -0.20 1.80 -0.95 1.80 -0.50 0 -1.20 -0.35 -1.55 -0.75z"/>
  <path d="M9.15 9.40 c-0.65 -0.30 -1.15 -0.75 -1.15 -0.95 0 -0.45 3.55 0.45 4.25 1.10 0.65 0.65 -1.75 0.50 -3.10 -0.15z"/>
  <path d="M17.60 9.05 l-2.70 -0.30 1.30 -1.25 1.35 -1.20 1.60 1.60 c0.85 0.90 1.45 1.55 1.35 1.50 -0.15 -0.05 -1.45 -0.20 -2.90 -0.35z"/>
  <path d="M11 7.95 c-3.10 -0.85 -4.55 -1.55 -5.05 -2.50 -0.35 -0.75 -0.30 -0.95 0.25 -0.95 0.40 0 0.80 -0.25 0.90 -0.55 0.20 -0.65 6.05 -0.70 6.30 -0.05 0.10 0.30 0.55 0.40 1 0.30 0.45 -0.10 1.30 0.15 1.80 0.55 0.95 0.75 0.95 0.80 -0.45 2.25 -1.55 1.60 -2 1.70 -4.75 0.95z"/>
 </g>
 <g fill="#a66fab">
  <path d="M15.65 15.50 c-0.95 -0.55 -1.65 -1.40 -1.65 -1.95 0 -2.15 4.20 -3.35 6.25 -1.85 0.85 0.60 0.80 0.75 -1.05 2.75 l-1.95 2.05 -1.60 -1z"/>
 </g>
 <g fill="#6ffc8e">
  <path d="M16.20 15.05 c0.20 -0.25 -0.10 -0.35 -0.65 -0.20 -1.45 0.35 -1.85 -1.40 -0.55 -2.45 1.80 -1.45 2.50 -1.15 2.50 1.10 0 1.50 -0.20 2 -0.80 2 -0.40 0 -0.65 -0.20 -0.50 -0.45z"/>
 </g>
 <g fill="#be7bc1">
  <path d="M16.45 15.65 c-0.05 -0.25 -0.05 -0.55 -0.05 -0.70 0.05 -0.20 -0.35 -0.25 -0.85 -0.10 -0.95 0.25 -1.80 -1.05 -1.25 -1.95 0.55 -0.85 3.50 -1.85 4.60 -1.55 1.65 0.40 1.65 1.50 0.05 3.15 -1.50 1.45 -2.40 1.90 -2.50 1.15z"/>
 </g>
 <g fill="#d881d2">
  <path d="M16.50 15.30 c0 -0.40 0.50 -1.10 1.10 -1.50 0.90 -0.65 0.95 -0.90 0.40 -1.55 -0.55 -0.65 -0.45 -0.75 0.65 -0.75 2 0 2.10 0.95 0.30 2.80 -1.80 1.85 -2.45 2.10 -2.45 1z"/>
  <path d="M14.50 13.80 c0 -0.80 1.05 -1.30 2.65 -1.30 1 0 1 0 0.05 0.70 -0.70 0.55 -1.05 0.55 -1.30 0.15 -0.35 -0.55 -0.60 -0.10 -0.45 0.80 0 0.20 -0.15 0.35 -0.45 0.35 -0.25 0 -0.50 -0.30 -0.50 -0.70z"/>
 </g>
 <g fill="#a8c4c6">
  <path d="M16 13.45 c0 -0.25 -0.30 -0.35 -0.60 -0.15 -0.50 0.25 -0.50 0.20 -0.10 -0.25 0.35 -0.35 1.05 -0.55 1.65 -0.45 1.10 0.15 1.10 0.15 0.05 0.80 -0.65 0.40 -1 0.40 -1 0.05z"/>
 </g>
</svg>