<?xml version="1.0" encoding="utf-8"?>
<!DOCTYPE svg PUBLIC "-//W3C//DTD SVG 1.0//EN" "http://www.w3.org/TR/2001/REC-SVG-20010904/DTD/svg10.dtd">
<svg version="1.0" xmlns="http://www.w3.org/2000/svg" width="40px" height="40px" viewBox="0 0 40 40" preserveAspectRatio="xMidYMid meet">
 <g fill="#1c080d">
  <path d="M12.50 38.30 c-0.35 -0.65 -0.50 -1.90 -0.40 -2.75 0.25 -1.85 0.05 -1.90 -2.10 -0.30 -2.10 1.55 -3.35 1.60 -3.65 0.15 -0.20 -1.10 -0.20 -1.10 -0.30 -0.10 -0.05 0.75 -0.50 1.20 -1.40 1.45 -1.20 0.30 -1.60 0.05 -2.75 -1.30 -0.80 -0.90 -1.40 -1.90 -1.40 -2.20 0 -0.80 3.25 -2.25 5 -2.25 1.35 0 1.50 0.15 1.50 1.50 0 0.85 0.25 1.50 0.50 1.50 0.30 0 0.50 -0.20 0.50 -0.45 0 -0.65 3.90 -1.50 8.70 -1.85 l4.30 -0.35 0 1.85 0 1.80 -2.20 0 c-3.65 0 -4.80 0.65 -4.80 2.75 0 2.05 -0.55 2.25 -1.50 0.55z"/>
  <path d="M36 33.25 c0 -1.65 0.10 -1.75 1.65 -1.75 1.60 0 1.70 0.10 1.75 1.75 0.05 1.70 0 1.75 -1.65 1.75 -1.65 0 -1.75 -0.10 -1.75 -1.75z"/>
  <path d="M14.60 27.65 c0.15 -1.65 0.50 -2.10 2.85 -3.75 1.80 -1.30 3.25 -1.90 4.40 -1.90 1.55 0 1.65 0.10 1.60 1.65 0 1.40 -0.40 1.90 -3 3.75 -1.90 1.35 -3.50 2.10 -4.50 2.10 -1.45 0 -1.50 -0.10 -1.35 -1.85z"/>
  <path d="M2.75 24 c0.50 -0.55 1.20 -1 1.60 -1 0.35 0 0.65 -0.20 0.65 -0.45 0 -0.25 0.55 -0.80 1.25 -1.25 1.25 -0.80 1.25 -0.80 1.25 0.75 0 1.10 -0.25 1.60 -1 1.80 -0.55 0.15 -1 0.45 -1 0.70 0 0.25 -0.80 0.45 -1.85 0.45 -1.75 0 -1.80 0 -0.90 -1z"/>
  <path d="M32 20.25 c0 -1.55 0.15 -1.75 1.25 -1.75 0.85 0 1.25 -0.25 1.25 -0.90 0 -1.35 1 -2.10 2.85 -2.10 1.55 0 1.65 0.10 1.65 1.65 0 1.95 -0.75 2.85 -2.35 2.85 -0.80 0 -1.15 0.30 -1.15 1 0 0.80 -0.35 1 -1.75 1 -1.65 0 -1.75 -0.10 -1.75 -1.75z"/>
  <path d="M8.85 17.65 c0.30 -0.95 1.90 -2.65 2.40 -2.65 0.20 0 0.25 0.75 0.15 1.65 -0.10 1.35 -0.40 1.65 -1.50 1.75 -1.15 0.15 -1.35 0 -1.05 -0.75z"/>
  <path d="M17.50 13.75 c0 -1.65 0.10 -1.75 1.75 -1.75 1.65 0 1.75 0.10 1.75 1.75 0 1.65 -0.10 1.75 -1.75 1.75 -1.65 0 -1.75 -0.10 -1.75 -1.75z"/>
  <path d="M13.50 7.30 c0 -0.50 5.15 -4.25 5.50 -4.05 0.20 0.10 0.80 -0.25 1.30 -0.85 0.85 -0.95 0.85 -1.05 0.10 -0.75 -0.65 0.25 -0.90 0.05 -0.90 -0.65 0 -0.80 0.35 -1 1.75 -1 1.65 0 1.75 0.10 1.75 1.70 0 2.10 -0.90 2.85 -3.75 3.20 -1.95 0.20 -2.25 0.40 -2.25 1.40 0 1.05 -0.25 1.20 -1.75 1.20 -0.95 0 -1.75 -0.10 -1.75 -0.20z"/>
 </g>
 <g fill="#2f1119">
  <path d="M1.65 35.15 c-2.25 -2.50 -2.15 -3.15 0.60 -3.15 1.60 0 2.25 -0.20 2.25 -0.70 0 -0.80 3.45 -2.30 5.25 -2.30 0.70 0 1.25 -0.20 1.25 -0.40 0 -0.50 3.25 -2.10 4.25 -2.10 0.40 0 0.75 -0.35 0.75 -0.75 0 -0.40 0.45 -0.75 1 -0.75 0.65 0 1 -0.35 1 -1 0 -0.80 0.35 -1 1.75 -1 1.70 0 1.75 0.05 1.75 2 0 1.65 -0.15 2 -1 2 -0.55 0 -1 0.35 -1 0.75 0 0.40 -0.45 0.75 -1 0.75 -0.55 0 -1 0.30 -1 0.65 0 0.35 -0.75 1.05 -1.60 1.50 l-1.65 0.80 3.65 0 c1.95 0.05 3.60 0.20 3.60 0.45 0 0.20 1.70 0.30 3.75 0.20 l3.75 -0.20 0 1.75 0 1.75 -4.05 0.35 c-3.05 0.30 -4.15 0.20 -4.45 -0.25 -0.45 -0.75 -6.15 -0.30 -6.40 0.50 -0.10 0.30 -0.60 0.50 -1.15 0.50 -1.50 0 -1.25 -1.90 0.30 -2.30 0.70 -0.20 1.20 -0.40 1.10 -0.55 -0.40 -0.40 -4.85 0.95 -4.55 1.40 0.15 0.25 -0.20 0.45 -0.75 0.45 -0.60 0 -1.05 0.25 -1.05 0.50 0 0.30 -0.45 0.50 -0.95 0.50 -0.70 0 -1.05 -0.40 -1.20 -1.35 l-0.20 -1.40 -0.10 1.30 c-0.10 2.20 -1.90 2.25 -3.90 0.10z m9.35 -2.15 c0 -0.65 -0.55 -0.65 -1.50 0 -0.60 0.40 -0.55 0.50 0.40 0.50 0.60 0 1.10 -0.20 1.10 -0.50z m8.50 -7.85 c0 -0.35 -2.90 1.80 -3.30 2.45 -0.20 0.35 0.45 -0.05 1.45 -0.80 1 -0.80 1.85 -1.50 1.85 -1.65z"/>
  <path d="M31 33.80 c0 -1.60 0.05 -1.70 2.40 -1.95 1.30 -0.15 3.30 -0.45 4.50 -0.65 1.70 -0.25 2.10 -0.20 2.10 0.45 0 0.40 -0.30 0.90 -0.60 1 -0.50 0.20 -0.50 0.30 0 0.30 0.30 0.05 0.60 0.45 0.60 1 0 1.10 -1.75 1.55 -6.05 1.55 l-2.95 0 0 -1.70z"/>
  <path d="M0 26.20 c0 -0.45 1.15 -1.40 2.85 -2.30 2 -1.15 2.15 -1.15 2.15 0.35 0 0.90 -0.35 1.40 -1.30 1.75 -1.40 0.55 -3.70 0.65 -3.70 0.20z"/>
  <path d="M27.50 21.80 c0 -1.65 0.65 -2.30 2.30 -2.30 0.40 0 1.60 -0.55 2.60 -1.25 1 -0.70 2.35 -1.25 2.95 -1.25 0.80 0 1.15 -0.30 1.15 -0.95 0 -1 0.90 -1.55 2.55 -1.55 0.80 0 0.95 0.35 0.95 2 0 1.80 -0.10 2 -1.25 2 -0.85 0 -1.25 0.25 -1.25 0.90 0 1.55 -5.20 4.10 -8.35 4.10 -1.55 0 -1.65 -0.10 -1.65 -1.70z"/>
  <path d="M21.50 17.25 c0 -1.70 0.05 -1.75 2 -1.75 1.95 0 2 0.05 2 1.75 0 1.70 -0.05 1.75 -2 1.75 -1.95 0 -2 -0.05 -2 -1.75z"/>
  <path d="M17.50 14.25 c0 -1.65 0.10 -1.75 1.75 -1.75 1.65 0 1.75 0.10 1.75 1.75 0 1.65 -0.10 1.75 -1.75 1.75 -1.65 0 -1.75 -0.10 -1.75 -1.75z"/>
  <path d="M26.50 13.75 c0 -1.65 0.10 -1.75 1.75 -1.75 1.65 0 1.75 0.10 1.75 1.75 0 1.65 -0.10 1.75 -1.75 1.75 -1.65 0 -1.75 -0.10 -1.75 -1.75z"/>
  <path d="M11.50 11.95 c0 -1.90 1.50 -4.30 4 -6.40 1.35 -1.15 2.75 -2.05 3.10 -2.05 0.35 0 1.20 -0.35 1.85 -0.80 1.05 -0.75 1.05 -0.90 0.35 -1.30 -1.25 -0.70 -0.95 -1.40 0.70 -1.40 1.35 0 1.50 0.15 1.50 1.50 0 1 -0.25 1.50 -0.75 1.50 -0.40 0 -0.75 0.40 -0.75 0.90 0 0.45 -0.95 1.55 -2.05 2.35 -1.15 0.85 -2.85 2.70 -3.80 4.15 -1.30 1.95 -2.05 2.60 -2.95 2.60 -0.90 0 -1.20 -0.25 -1.20 -1.05z"/>
 </g>
 <g fill="#451823">
  <path d="M12.50 38.05 c-1.25 -2.35 -0.40 -3.75 2.65 -4.30 1.65 -0.30 1.85 -0.25 1.85 0.65 0 0.70 -0.45 1.05 -1.50 1.30 -1.25 0.25 -1.50 0.50 -1.50 1.80 0 1.70 -0.70 1.95 -1.50 0.55z"/>
  <path d="M24.30 37.05 c-0.20 -0.25 -1.20 -0.60 -2.30 -0.80 -1.10 -0.20 -2 -0.55 -2 -0.80 0 -0.25 -0.35 -0.45 -0.75 -0.45 -1.05 0 -0.95 -1.40 0.15 -1.65 0.80 -0.20 0.80 -0.25 0 -0.30 -0.50 0 -0.90 -0.40 -0.90 -0.85 0 -0.70 1.10 -0.75 9.40 -0.60 5.15 0.10 9.95 -0.05 10.75 -0.30 1.05 -0.30 1.35 -0.25 1.35 0.35 0 0.50 -0.65 0.90 -1.75 1.15 -0.95 0.15 -1.90 0.50 -2 0.70 -0.15 0.25 0.45 0.25 1.35 -0.05 2.25 -0.60 2.40 -0.60 2.40 0.50 0 1.25 -1.30 1.55 -6.60 1.55 -4.05 0 -4.40 0.10 -4.40 1 0 0.85 -0.35 1 -2.20 1 -1.25 0 -2.35 -0.20 -2.50 -0.45z"/>
  <path d="M2.20 35.90 c-0.20 -0.30 0.25 -1.05 1.10 -1.75 l1.45 -1.20 -1.35 0.50 c-1.30 0.50 -1.40 0.45 -1.40 -0.70 0 -0.95 0.35 -1.30 1.40 -1.55 0.75 -0.20 2.35 -0.85 3.60 -1.50 1.25 -0.65 3.20 -1.45 4.40 -1.80 1.15 -0.35 2.10 -0.80 2.10 -1 0 -0.25 0.35 -0.40 0.80 -0.40 0.90 0 2.20 -1.15 2.20 -1.95 0 -0.30 0.70 -0.55 1.50 -0.55 1 0 1.50 -0.25 1.50 -0.75 0 -0.40 0.35 -0.75 0.75 -0.75 0.40 0 0.75 -0.20 0.75 -0.45 0 -0.40 3.65 -1.45 9.35 -2.65 1.90 -0.40 2.70 -0.85 3.10 -1.75 0.30 -0.65 0.95 -1.15 1.55 -1.15 0.55 0 1 -0.30 1 -0.70 0 -0.80 1.05 -1.30 2.80 -1.30 0.75 0 1.20 0.30 1.20 0.75 0 0.40 -0.30 0.75 -0.60 0.75 -0.50 0 -0.45 0.15 0.05 0.45 0.90 0.60 0.25 2.55 -0.90 2.55 -0.50 0 -1.15 0.55 -1.45 1.25 -0.30 0.70 -0.90 1.25 -1.35 1.25 -0.40 0 -0.75 0.20 -0.75 0.45 0 0.20 -1.05 0.65 -2.35 0.95 -7.15 1.60 -9.65 2.30 -9.65 2.70 0 0.20 -0.65 0.40 -1.50 0.40 -1 0 -1.50 0.25 -1.50 0.75 0 0.40 -0.20 0.75 -0.50 0.75 -0.25 0 -0.50 0.35 -0.50 0.75 0 0.40 -0.45 0.75 -1 0.75 -0.55 0 -1 0.25 -1 0.50 0 0.30 -0.35 0.50 -0.80 0.50 -0.40 0 -1.10 0.30 -1.45 0.70 -0.60 0.60 -0.50 0.75 0.75 1 2.10 0.40 1.85 1.10 -0.45 1.50 -1.10 0.15 -2.30 0.45 -2.75 0.60 -0.55 0.20 -0.80 0.05 -0.80 -0.50 0 -1.05 -0.10 -1.05 -3 0.45 -1.35 0.70 -2.80 1.25 -3.25 1.25 -0.40 0 -0.75 0.35 -0.75 0.75 0 0.90 -1.80 1 -2.30 0.15z m18.80 -11.75 c0 -0.40 -1.85 0.85 -3.75 2.60 -1.95 1.75 -1.95 1.75 0.90 -0.30 1.55 -1.15 2.85 -2.15 2.85 -2.30z"/>
  <path d="M0 27.60 c0 -1.60 0.25 -2.05 1.40 -2.65 4.45 -2.25 9.45 -8.65 10.15 -13.05 0.40 -2.40 2.45 -5.90 3.50 -5.90 0.30 0 0.35 0.25 0.15 0.60 -0.20 0.30 0.45 -0.05 1.45 -0.80 2.20 -1.65 2.40 -2.20 0.50 -0.95 -1.30 0.80 -1.35 0.80 -0.60 0 0.40 -0.50 1.30 -0.95 1.95 -1.10 1.55 -0.30 3.50 -2.25 2.60 -2.60 -1.40 -0.55 -0.40 -1.15 1.90 -1.15 2.15 0 2.50 0.15 2.50 1 0 0.55 -0.30 1 -0.70 1 -0.40 0 -0.80 0.35 -1 0.75 -0.15 0.40 -0.85 0.75 -1.55 0.75 -0.90 0 -1.25 0.25 -1.25 1 0 0.65 -0.50 1.20 -1.25 1.50 -0.70 0.25 -1.25 0.70 -1.25 1 0 0.25 -0.35 0.50 -0.75 0.50 -0.40 0 -0.75 0.35 -0.75 0.75 0 0.40 -0.30 0.75 -0.70 0.75 -0.40 0 -0.85 0.65 -1.05 1.50 -0.20 0.80 -0.65 1.50 -1.05 1.50 -0.40 0 -0.70 0.50 -0.70 1.25 0 0.70 -0.20 1.25 -0.50 1.25 -0.25 0 -0.50 0.55 -0.50 1.25 0 0.80 -0.30 1.25 -0.75 1.25 -0.40 0 -0.75 0.45 -0.75 1 0 0.55 -0.20 1 -0.50 1 -0.25 0 -0.50 0.35 -0.50 0.75 0 0.40 -0.20 0.75 -0.50 0.75 -0.25 0 -0.50 0.35 -0.50 0.75 0 0.50 -0.50 0.75 -1.50 0.75 -1.35 0 -1.50 0.15 -1.50 1.50 0 1.15 -0.20 1.50 -1 1.50 -0.55 0 -1 0.35 -1 0.75 0 0.40 -0.30 0.75 -0.70 0.75 -0.45 0 -0.80 0.60 -0.90 1.40 -0.10 0.95 -0.45 1.40 -1.25 1.50 -1.05 0.15 -1.15 -0.05 -1.15 -1.80z"/>
  <path d="M21 17.25 c0 -1.60 0.15 -1.75 1.45 -1.75 1.50 0 4.05 -2.10 4.05 -3.30 0 -0.45 0.60 -0.70 1.75 -0.70 1.70 0 1.75 0.05 1.75 2.05 0 1.10 -0.25 2.45 -0.50 3 -0.80 1.45 -3.20 2.45 -6 2.45 l-2.50 0 0 -1.75z"/>
 </g>
 <g fill="#5b1f2d">
  <path d="M12.50 37.80 c-0.75 -2.65 -0.50 -3.10 1.90 -3.80 2.60 -0.70 3.10 -0.65 3.10 0.50 0 0.80 -0.35 1 -1.85 1.05 -1.05 0 -1.55 0.15 -1.15 0.30 1.05 0.40 1.50 1.20 1.50 2.80 0 1.15 -0.20 1.35 -1.45 1.35 -1.25 0 -1.50 -0.25 -2.05 -2.20z"/>
  <path d="M25.50 37.55 c0 -0.25 -0.90 -0.60 -2 -0.80 -1.55 -0.25 -2 -0.55 -2 -1.35 0 -0.90 0.20 -0.95 1.90 -0.65 1 0.15 2.05 0.55 2.35 0.80 0.25 0.25 0.80 0.45 1.25 0.45 0.45 -0.05 0.20 -0.35 -0.55 -0.75 -0.75 -0.40 -1.45 -1.05 -1.65 -1.50 -0.15 -0.40 -0.60 -0.75 -1.05 -0.75 -0.40 0 -0.75 -0.35 -0.75 -0.80 0 -0.70 0.50 -0.75 3.40 -0.50 1.85 0.15 4.35 0.45 5.55 0.60 1.20 0.15 2.30 0.10 2.50 -0.10 0.40 -0.55 3.60 -1.70 4.70 -1.70 1.25 0 1.05 1.35 -0.25 2.05 -0.65 0.35 -3.15 0.80 -5.65 1 l-4.50 0.35 4.75 -0.10 c2.60 -0.10 5.15 -0.30 5.65 -0.55 0.60 -0.25 0.85 -0.15 0.85 0.40 0 0.55 -0.70 0.90 -2.25 1.15 -1.25 0.15 -2.25 0.55 -2.25 0.80 0 0.30 -1.25 0.40 -3 0.30 -2.85 -0.15 -3 -0.10 -3 1 0 0.95 -0.25 1.10 -2 1.10 -1.10 0 -2 -0.20 -2 -0.45z m2 -4.05 c-0.95 -0.65 -1.50 -0.65 -1.50 0 0 0.30 0.50 0.50 1.15 0.50 0.90 0 0.95 -0.10 0.35 -0.50z"/>
  <path d="M2.55 36.05 c-1.05 -0.70 -0.25 -1.45 3.50 -3.30 3.15 -1.60 3.45 -1.70 3.45 -0.80 0 0.55 -0.30 1.10 -0.60 1.20 -0.40 0.15 -0.30 0.30 0.25 0.30 1.25 0.05 1.05 1 -0.40 1.65 -0.70 0.30 -1.25 0.75 -1.25 1 0 0.20 -0.20 0.40 -0.50 0.40 -0.25 0 -0.50 -0.55 -0.50 -1.25 0 -0.80 -0.30 -1.25 -0.75 -1.25 -0.45 0 -0.75 0.45 -0.75 1.25 0 1.30 -1.10 1.65 -2.45 0.80z"/>
  <path d="M1 33.75 c0 -0.50 0.50 -0.75 1.35 -0.75 1.30 0 1.30 0.05 0.35 0.75 -1.25 0.95 -1.70 0.95 -1.70 0z"/>
  <path d="M10.35 32.85 c-0.20 -1.10 0 -1.80 0.55 -2.30 0.80 -0.65 0.80 -0.65 0 -0.40 -0.65 0.25 -0.90 0.05 -0.90 -0.65 0 -0.80 0.35 -1 1.75 -1 1.20 0 1.75 -0.25 1.75 -0.75 0 -0.40 0.35 -0.75 0.75 -0.75 0.40 0 0.75 -0.45 0.75 -1 0 -0.65 0.35 -1 1 -1 0.55 0 1 -0.35 1 -0.75 0 -0.40 0.35 -0.75 0.75 -0.75 0.40 0 0.75 -0.20 0.75 -0.40 0 -0.25 1.20 -0.70 2.65 -1.05 1.40 -0.40 2.85 -0.90 3.15 -1.15 0.35 -0.25 1.75 -0.55 3.15 -0.75 1.40 -0.15 2.55 -0.50 2.55 -0.70 0 -0.25 0.45 -0.45 1 -0.45 0.55 0 1 -0.20 1 -0.50 0 -0.25 0.55 -0.50 1.20 -0.50 0.90 0 1.25 -0.30 1.40 -1.10 0.10 -0.75 0.55 -1.20 1.30 -1.30 0.65 -0.10 1.30 -0.50 1.45 -0.90 0.35 -0.90 2.65 -0.95 2.65 -0.05 0 0.40 -1.05 1.40 -2.35 2.30 -4.65 3.15 -5.80 4.05 -5.10 4.05 0.40 0 1.95 -1 3.45 -2.25 2.85 -2.35 4 -2.75 4 -1.50 0 1.20 -1.60 2.75 -2.85 2.75 -0.80 0 -1.15 0.30 -1.15 1 0 0.75 -0.35 1 -1.25 1 -0.70 0 -1.25 0.20 -1.25 0.45 0 0.25 -1.65 0.85 -3.60 1.30 -6.95 1.65 -8.90 2.30 -8.90 3.05 0 0.40 -0.50 0.70 -1.25 0.70 -0.90 0 -1.25 0.25 -1.25 1 0 0.55 -0.35 1 -0.75 1 -0.40 0 -0.75 0.25 -0.75 0.50 0 0.30 -0.80 0.50 -1.75 0.50 -1.20 0 -1.75 0.25 -1.75 0.75 0 0.55 0.55 0.75 2 0.75 1.10 0 2 0.25 2 0.50 0 0.30 -0.65 0.50 -1.45 0.50 -0.80 0 -2.35 0.30 -3.45 0.70 l-2 0.70 -0.25 -1.55z m8.15 -6.50 c3.70 -2.75 4.15 -3.20 1.75 -1.90 -1.10 0.65 -2.90 1.95 -4 2.90 -2.40 2.15 -1.50 1.75 2.25 -1z m12.25 -4.85 l1 -0.45 -1 0 c-0.55 0 -1.35 0.20 -1.75 0.45 -0.65 0.45 -0.65 0.50 0 0.45 0.40 0 1.20 -0.20 1.75 -0.45z"/>
  <path d="M4 31.80 c0 -1.30 1.70 -2.30 4 -2.30 2.70 0 1.35 1.45 -2.75 3 -1.10 0.40 -1.25 0.35 -1.25 -0.70z"/>
  <path d="M0 28.85 c0 -0.35 0.30 -0.95 0.65 -1.30 0.50 -0.55 0.50 -0.65 0 -0.35 -0.45 0.25 -0.65 0 -0.65 -0.60 0 -0.85 0.85 -1.60 2 -1.80 0.15 -0.05 0.55 -0.25 0.95 -0.50 0.55 -0.35 0.60 0 0.30 2 -0.20 1.35 -0.45 2.60 -0.60 2.85 -0.35 0.60 -2.65 0.40 -2.65 -0.30z"/>
  <path d="M6.15 21.50 c1.30 -1.45 2.35 -2.80 2.35 -3.05 0 -0.25 0.25 -0.45 0.50 -0.45 0.30 0 0.50 0.80 0.50 1.75 0 1.20 -0.25 1.75 -0.70 1.75 -0.40 0 -0.80 0.50 -0.90 1.15 -0.10 0.90 -0.50 1.15 -2.10 1.25 l-1.95 0.15 2.30 -2.55z"/>
  <path d="M20.50 17.40 c0 -1.70 0.10 -1.80 2 -2.05 2.25 -0.30 3.30 -1.15 3.80 -3.05 0.25 -1.10 0.55 -1.30 2.25 -1.30 1.90 0 1.95 0.05 1.95 1.90 0 1.30 -0.30 2.10 -1 2.60 -0.55 0.40 -1 1 -1 1.35 0 0.35 -0.30 0.65 -0.70 0.65 -0.40 0 -0.80 0.20 -0.90 0.45 -0.05 0.25 -1.55 0.65 -3.25 0.85 l-3.15 0.35 0 -1.75z m7.50 -2.45 c0.30 -0.55 0.45 -1.25 0.30 -1.60 -0.10 -0.35 -0.25 -0.25 -0.25 0.20 -0.05 0.45 -0.65 1.45 -1.40 2.20 -1.20 1.20 -1.25 1.30 -0.30 0.80 0.65 -0.30 1.35 -1.05 1.65 -1.60z"/>
  <path d="M11.20 14.30 c0.40 -0.95 0.60 -1.85 0.45 -2 -0.45 -0.45 1.30 -4.60 2.35 -5.55 1.15 -1.05 1.30 -0.45 0.35 1 -1.75 2.50 -2.45 3.75 -2.15 3.75 0.15 0 1 -1.10 1.90 -2.45 0.90 -1.35 3.20 -3.65 5.05 -5.10 1.85 -1.50 3.15 -2.75 2.85 -2.85 -1.25 -0.45 -0.30 -1.05 1.50 -1 1.75 0 2 0.15 2 1.20 0 0.85 -0.35 1.25 -1.20 1.50 -0.70 0.15 -1.35 0.60 -1.50 1 -0.15 0.40 -0.85 0.70 -1.55 0.70 -0.90 0 -1.25 0.25 -1.25 1 0 0.60 -0.70 1.45 -1.75 2.10 -0.95 0.65 -1.75 1.45 -1.75 1.80 0 0.30 -0.20 0.60 -0.50 0.60 -0.25 0 -0.50 0.35 -0.50 0.75 0 0.40 -0.30 0.75 -0.65 0.75 -0.35 0 -0.90 1 -1.25 2.25 -0.50 1.90 -0.80 2.25 -1.85 2.25 -1.25 0 -1.25 -0.05 -0.55 -1.70z"/>
 </g>
 <g fill="#2a474b">
  <path d="M18 14.25 c0 -1.90 0.15 -2.25 1 -2.25 0.80 0 1 -0.35 1 -1.50 0 -1.15 0.20 -1.50 1 -1.50 0.55 0 1 -0.35 1 -0.75 0 -0.55 0.55 -0.75 1.90 -0.75 2.40 0.05 3.60 1 3.60 2.90 0 1.45 -0.05 1.50 -3 1.85 l-3 0.35 0 1.95 c0 1.90 -0.05 1.95 -1.75 1.95 -1.75 0 -1.75 0 -1.75 -2.25z"/>
 </g>
 <g fill="#791c34">
  <path d="M13.05 38.90 c-1.15 -3.15 -1.10 -3.90 0.20 -4.50 0.70 -0.30 1.35 -0.45 1.45 -0.35 0.10 0.10 0.35 1.50 0.55 3.10 0.40 3.05 -0.15 3.80 -1.10 1.50 l-0.60 -1.40 0.30 1.40 c0.30 1.65 -0.20 1.80 -0.80 0.25z"/>
  <path d="M24.30 37.25 c-0.40 -0.40 -1.40 -0.75 -2.25 -0.75 -1.40 0 -1.55 -0.15 -1.55 -1.50 0 -1.35 0.70 -2.05 1.10 -1.10 0.10 0.25 1.15 0.75 2.40 1.20 1.25 0.40 2.70 0.90 3.25 1.10 0.95 0.35 0.95 0.30 0.10 -0.30 -2.80 -1.95 -2.85 -1.90 2.40 -1.80 2.75 0.05 5.95 -0.10 7.15 -0.30 1.90 -0.35 2.10 -0.30 2.10 0.60 0 0.75 -0.45 1.05 -2.30 1.30 -1.30 0.15 -3.30 0.30 -4.50 0.30 -1.85 0 -2.20 0.15 -2.20 1 0 0.85 -0.35 1 -2.45 1 -1.55 0 -2.75 -0.30 -3.25 -0.75z"/>
  <path d="M2.65 36.15 c-0.35 -0.10 -0.65 -0.45 -0.65 -0.75 0 -0.30 0.35 -0.40 0.70 -0.25 0.45 0.20 0.65 0.05 0.50 -0.30 -0.15 -0.40 0.70 -1.10 2.05 -1.75 2.80 -1.35 2.75 -1.35 2.75 0.15 0 0.90 -0.25 1.25 -0.95 1.25 -0.55 0 -1.15 0.45 -1.30 1 -0.30 0.95 -1.65 1.25 -3.10 0.65z"/>
  <path d="M1.50 33 c0 -1.30 0.15 -1.40 2.80 -1.75 1.55 -0.20 2.85 -0.25 2.95 -0.15 0.10 0.10 -1.15 0.85 -2.80 1.70 l-2.95 1.55 0 -1.35z"/>
  <path d="M11.30 33.30 c0.25 -0.60 0 -0.80 -1 -0.80 -1.85 0 -1.65 -1.25 0.35 -1.80 2.60 -0.75 4.35 -0.35 4.35 1.05 0 0.80 -0.35 1.30 -1.10 1.50 -2.90 0.85 -2.90 0.85 -2.60 0.05z"/>
  <path d="M25.50 33 c-1.50 -0.25 -1.80 -0.35 -0.85 -0.40 0.75 -0.05 1.35 -0.30 1.35 -0.60 0 -0.75 3.35 -0.60 3.70 0.15 0.25 0.50 0.35 0.50 0.60 0 0.30 -0.75 6.30 -0.85 7.95 -0.20 2.85 1.15 -7 1.95 -12.75 1.05z"/>
  <path d="M9 29.80 c0 -0.60 0.50 -0.80 1.85 -0.80 2.05 0 1.80 0.70 -0.45 1.25 -1.10 0.30 -1.40 0.20 -1.40 -0.45z"/>
  <path d="M14.50 29.65 c0 -0.25 0.75 -0.90 1.65 -1.50 0.85 -0.60 2.20 -1.60 3 -2.15 l1.35 -1.10 0 1.55 c0 1.30 -0.20 1.55 -1.25 1.55 -0.90 0 -1.25 0.25 -1.25 1 0 0.80 -0.35 1 -1.75 1 -0.95 0 -1.75 -0.15 -1.75 -0.35z"/>
  <path d="M0.65 27.95 c1.05 -0.60 1.15 -1.55 0.10 -1.15 -0.45 0.20 -0.75 0 -0.75 -0.45 0 -0.45 0.50 -0.95 1.15 -1.15 0.60 -0.20 1.85 -0.90 2.75 -1.60 l1.60 -1.20 0 1.55 c0 1.20 -0.20 1.55 -1 1.55 -0.80 0 -1 0.35 -1 1.50 0 1.40 -0.10 1.50 -1.85 1.50 -1.55 -0.05 -1.75 -0.15 -1 -0.55z"/>
  <path d="M14.50 27.50 c0 -0.65 0.35 -1 1 -1 0.55 0 1 0.20 1 0.50 0 0.25 -0.45 0.70 -1 1 -0.85 0.45 -1 0.40 -1 -0.50z"/>
  <path d="M17 25.60 c0 -0.85 0.30 -1.10 1.35 -1.10 0.70 0 1.20 0.05 1.10 0.15 -0.10 0.05 -0.70 0.55 -1.30 1.05 -1.15 0.95 -1.15 0.95 -1.15 -0.10z"/>
  <path d="M26.30 23.10 c0.25 -0.25 1.95 -0.85 3.80 -1.30 2.35 -0.65 4.20 -1.55 6.20 -3.10 3.15 -2.45 3.70 -2.65 3.70 -1.20 0 0.65 -0.35 1 -1 1 -0.65 0 -1 0.35 -1 0.95 0 0.70 -0.50 1.05 -1.75 1.25 -0.95 0.20 -1.75 0.50 -1.75 0.75 0 0.20 -1.35 0.75 -3 1.20 -3.20 0.90 -6 1.15 -5.20 0.45z"/>
  <path d="M26 21.05 c0 -0.70 0.75 -1.10 3.25 -1.80 1.80 -0.45 3.25 -1.05 3.25 -1.25 0 -0.25 0.90 -0.55 2 -0.75 1.70 -0.30 2 -0.55 2 -1.55 0 -1.05 0.25 -1.20 1.75 -1.20 2.20 0 2.20 0.50 0.15 1.75 -0.90 0.50 -2.50 1.65 -3.50 2.50 -1.10 0.90 -3.15 1.95 -4.90 2.40 -3.75 1.05 -4 1.05 -4 -0.10z"/>
  <path d="M8 19.60 c0 -0.25 0.75 -1.45 1.65 -2.65 l1.60 -2.20 0.15 1.75 c0.10 0.95 -0.05 1.80 -0.35 1.90 -0.30 0.10 -0.55 0.50 -0.55 0.90 0 0.40 -0.50 0.70 -1.25 0.70 -0.70 0 -1.25 -0.20 -1.25 -0.40z"/>
  <path d="M21.50 17.75 c0 -1.75 0 -1.75 2.35 -1.75 2.65 0 2.55 0.45 -0.20 1.05 l-1.90 0.40 2.15 -0.15 c1.95 -0.20 2.10 -0.10 2.10 1 0 1.10 -0.20 1.20 -2.25 1.20 -2.25 0 -2.25 0 -2.25 -1.75z"/>
  <path d="M28.05 14.75 c0.60 -0.95 1.25 -1.75 1.50 -1.75 0.25 0 0.45 0.80 0.45 1.75 0 1.60 -0.10 1.75 -1.50 1.75 l-1.45 0 1 -1.75z"/>
  <path d="M26.50 14.40 c0 -0.90 0.25 -1.40 0.75 -1.40 0.95 0 0.95 0.55 0 1.80 -0.70 0.90 -0.70 0.90 -0.75 -0.40z"/>
  <path d="M11.80 12.25 c-0.35 -0.90 1.10 -4.75 1.75 -4.75 0.70 0 0.55 0.60 -0.55 2.25 -1.75 2.60 -1.10 2.60 0.75 0 1.85 -2.55 7.10 -7.45 9.15 -8.40 0.60 -0.25 1.10 -0.70 1.10 -0.95 0 -0.20 0.45 -0.40 1 -0.40 1.55 0 1.40 2.85 -0.10 3.10 -0.85 0.10 -1.20 0.55 -1.30 1.55 -0.10 0.75 -0.40 1.35 -0.75 1.35 -1.15 0 -3.35 2.70 -3.35 4.10 0 1.30 -0.15 1.40 -2 1.40 -1.85 0 -2 -0.10 -2.05 -1.35 -0.05 -1.15 -0.15 -1 -0.60 0.75 -0.40 1.70 -0.70 2.10 -1.60 2.10 -0.65 0 -1.30 -0.35 -1.45 -0.75z"/>
 </g>
 <g fill="#62353f">
  <path d="M13 38.70 c-0.30 -0.70 -0.50 -1.75 -0.50 -2.35 0 -0.90 0.10 -0.95 0.50 -0.35 0.30 0.50 0.50 0.55 0.50 0.15 0 -0.35 0.45 -0.65 1 -0.65 0.75 0 1 0.35 1 1.45 0 0.80 -0.15 1.85 -0.35 2.30 -0.25 0.70 -0.40 0.60 -1 -0.55 l-0.65 -1.45 0.20 1.40 c0.20 1.70 -0.10 1.75 -0.70 0.05z"/>
  <path d="M3.65 35.55 c0.05 -0.75 0.55 -1.10 2 -1.35 1.55 -0.25 1.90 -0.50 1.70 -1.20 -0.15 -0.60 0.15 -1.10 1 -1.45 2.10 -0.95 2.65 -0.70 2.65 1.15 0 1.50 -0.20 1.75 -1.55 2.05 -0.85 0.20 -1.65 0.65 -1.80 1.05 -0.15 0.45 -1 0.70 -2.15 0.70 -1.60 0 -1.95 -0.15 -1.85 -0.95z"/>
  <path d="M24 35.75 c0 -0.95 0.45 -0.95 1.70 0 0.95 0.70 0.95 0.75 -0.35 0.75 -0.85 0 -1.35 -0.25 -1.35 -0.75z"/>
  <path d="M29.50 35.30 c0 -1.05 0.75 -1.40 2.25 -1 1.95 0.50 1.60 1.70 -0.50 1.70 -1.20 0 -1.75 -0.25 -1.75 -0.70z"/>
  <path d="M19.50 35 c0 -0.25 -0.80 -0.50 -1.75 -0.50 -0.95 0 -1.75 -0.20 -1.75 -0.50 0 -0.25 1.15 -0.50 2.50 -0.50 1.85 0 2.75 0.25 3.50 1 l1 1 -1.75 0 c-0.95 0 -1.75 -0.20 -1.75 -0.50z"/>
  <path d="M26.40 35.15 c-1.20 -0.30 -1.15 -1.15 0.10 -1.15 0.55 0 1 0.35 1 0.75 0 0.40 -0.05 0.70 -0.10 0.70 -0.10 -0.05 -0.55 -0.15 -1 -0.30z"/>
  <path d="M13 34.50 c1 -0.65 2.50 -0.65 2.50 0 0 0.30 -0.75 0.50 -1.60 0.50 -1.25 0 -1.45 -0.15 -0.90 -0.50z"/>
  <path d="M0.65 33.75 c-1.55 -1.75 0.05 -3.15 1.70 -1.50 0.60 0.60 0.65 0.95 0.15 1.50 -0.75 0.90 -1.05 0.90 -1.85 0z"/>
  <path d="M12 32.80 c0 -0.40 -0.15 -1.05 -0.30 -1.45 -0.20 -0.50 0.20 -1.05 1.15 -1.55 0.75 -0.40 1.20 -0.75 1 -0.80 -0.25 0 -0.85 0.25 -1.40 0.50 -0.75 0.45 -0.95 0.35 -0.95 -0.25 0 -0.90 1.15 -2.25 1.90 -2.25 0.30 0 0.60 -0.35 0.80 -0.75 0.15 -0.50 0.95 -0.75 2.15 -0.75 l1.90 0 -1.95 1.75 c-2.10 1.90 -1.80 2.45 0.40 0.70 l1.30 -1 0 1.05 c0 0.65 -0.40 1.20 -1 1.35 -0.55 0.15 -1 0.60 -1 0.95 0 0.40 -0.20 0.70 -0.45 0.70 -0.25 0 -0.35 0.40 -0.20 0.95 0.15 0.60 -0.10 1 -0.80 1.20 -0.65 0.15 -1.05 -0.05 -1.20 -0.60 -0.20 -0.70 -0.25 -0.70 -0.30 0.10 -0.05 1 -1.05 1.15 -1.05 0.15z"/>
  <path d="M29.50 33 c0 -0.25 0.85 -0.50 1.90 -0.50 1.35 0 1.65 0.15 1.10 0.50 -1 0.65 -3 0.65 -3 0z"/>
  <path d="M16 32 c0 -0.85 0.35 -1 2 -1 1.10 0 2 0.25 2 0.50 0 0.30 0.70 0.50 1.50 0.50 0.85 0 1.50 0.25 1.50 0.50 0 0.30 -1.50 0.50 -3.50 0.50 -3.15 0 -3.50 -0.10 -3.50 -1z"/>
  <path d="M7 30.20 c0 -1.15 0.15 -1.25 1.90 -1.10 2.25 0.20 2.20 0.95 -0.15 1.75 -1.70 0.60 -1.75 0.55 -1.75 -0.65z"/>
  <path d="M0 26.15 c0 -0.45 0.15 -0.65 0.35 -0.50 0.15 0.20 0.60 0.10 1 -0.20 0.50 -0.45 0.65 -0.40 0.65 0.20 0 0.40 -0.35 0.90 -0.80 1.05 -1.10 0.45 -1.20 0.40 -1.20 -0.55z"/>
  <path d="M20 25.25 c0 -0.45 4.15 -2.25 5.15 -2.25 0.50 0 0.85 0.35 0.85 0.95 0 0.70 -0.50 1 -2.30 1.25 -2.85 0.35 -3.70 0.40 -3.70 0.05z"/>
  <path d="M19.50 23.20 c0 -0.90 0.40 -1.30 1.90 -1.75 2.10 -0.60 4.20 -0.45 4.40 0.30 0.10 0.30 -1.30 1 -3.05 1.55 l-3.25 1.10 0 -1.20z"/>
  <path d="M23.50 18.60 c0 -0.20 1 -0.95 2.25 -1.70 l2.25 -1.40 0 1.45 c0 0.85 -0.30 1.55 -0.80 1.75 -1.10 0.45 -3.70 0.35 -3.70 -0.10z"/>
  <path d="M18.35 17.50 c-0.55 -0.65 -0.85 -1.85 -0.85 -3.50 l0 -2.50 1.75 0 c1.60 0 1.75 0.10 1.75 1.45 0 1.05 0.30 1.60 1 1.80 1.10 0.35 1.35 2 0.40 2.40 -0.50 0.20 -0.50 0.30 0 0.30 0.30 0.05 0.60 0.30 0.60 0.55 0 0.95 -3.75 0.55 -4.65 -0.50z"/>
  <path d="M23.50 16.55 c0 -1.45 0.70 -2.05 2.45 -2.05 l1.80 0.05 -1.40 1.20 c-1.40 1.25 -2.85 1.65 -2.85 0.80z"/>
  <path d="M11.85 12.40 c-0.35 -1.25 1.10 -4.80 2.30 -5.85 1.20 -1 1.05 -0.40 -0.65 2.30 -1.70 2.60 -2 4.10 -0.50 2.15 0.95 -1.20 1 -1.20 1 -0.15 0 2.55 -1.60 3.70 -2.15 1.55z"/>
  <path d="M24.60 10.75 c0.10 -1.60 0.20 -1.75 1.75 -1.75 1.55 0 1.65 0.10 1.65 1.75 0 1.65 -0.10 1.75 -1.75 1.75 -1.70 0 -1.80 -0.05 -1.65 -1.75z"/>
 </g>
 <g fill="#8f2b44">
  <path d="M14.50 39.55 c0 -0.25 -0.15 -0.80 -0.30 -1.25 -0.25 -0.60 0 -0.80 1 -0.80 1.05 0 1.30 0.25 1.30 1.25 0 0.90 -0.25 1.25 -1 1.25 -0.55 0 -1 -0.20 -1 -0.45z"/>
  <path d="M20.50 39.25 c0 -0.40 0.25 -0.75 0.50 -0.75 1.05 0 0.40 -1.80 -0.85 -2.35 -1.60 -0.75 -5.15 -0.85 -5.15 -0.15 0 0.90 -1.50 0.55 -1.55 -0.35 0 -0.75 -0.10 -0.75 -0.45 0.10 -0.40 0.95 -0.45 0.95 -0.45 -0.05 -0.05 -1.35 0.80 -1.70 4.95 -2.05 2.65 -0.20 3.40 -0.10 3.95 0.55 0.35 0.45 1.25 0.80 2 0.80 0.70 0 1.75 0.35 2.25 0.75 0.55 0.40 1.45 0.75 2 0.70 1 0 1 -0.05 0.15 -0.60 -2.80 -1.80 -2.75 -1.90 1.45 -1.60 3.70 0.25 7.60 -0.15 9.85 -1 0.70 -0.30 0.85 -0.05 0.85 1.65 0 1.80 -0.15 2 -1.50 2.30 -1.20 0.20 -1.50 0.55 -1.50 1.55 0 1.15 -0.20 1.25 -2 1.25 -1.85 0 -2 -0.10 -2 -1.40 0 -1.50 -0.80 -2.60 -1.85 -2.60 -0.40 0 -0.65 0.60 -0.65 1.50 0 1.15 -0.20 1.50 -1 1.50 -0.55 0 -1 0.25 -1 0.50 0 0.30 -1.65 0.50 -4 0.50 -3.20 0 -4 -0.15 -4 -0.75z"/>
  <path d="M2.75 36 c-0.45 -0.75 0.40 -1.55 2.95 -3 1.65 -0.90 8 -3.50 8.60 -3.50 0.10 0 0.20 0.55 0.20 1.25 0 0.70 0.25 1.25 0.50 1.25 0.30 0 0.50 -0.20 0.50 -0.50 0 -0.30 1.85 -0.50 4.50 -0.50 3.65 0 4.50 0.15 4.50 0.75 0 0.40 0.45 0.75 1 0.75 0.55 0 1 -0.20 1 -0.50 0 -0.25 0.45 -0.50 1 -0.50 0.85 0 0.95 -0.15 0.50 -0.95 -0.25 -0.55 -0.50 -1.65 -0.50 -2.50 0 -1.45 0.15 -1.55 1.70 -1.55 1.15 0 1.90 0.35 2.40 1.10 l0.75 1.10 1.95 -1.20 c1.05 -0.65 2 -1.20 2.10 -1.25 0.05 -0.05 -0.25 -0.95 -0.65 -1.95 -0.65 -1.60 -0.95 -1.80 -1.90 -1.50 -5.45 1.75 -8.85 2.15 -8.85 1.05 0 -0.45 1.60 -1.10 4.25 -1.85 3.10 -0.80 4.95 -1.60 6.65 -2.95 4.10 -3.25 4.10 -3.25 4.10 2.45 0 2.75 -0.20 5 -0.45 5 -0.25 0 -0.55 0.90 -0.65 2 -0.10 1.40 0 2 0.45 2 0.35 0 0.65 0.30 0.65 0.70 0 1.20 -3.05 2 -7.75 2 -11.65 0 -18.50 -0.35 -18.85 -0.90 -0.25 -0.35 -0.40 -0.25 -0.40 0.25 0 0.45 -0.35 1 -0.80 1.15 -1.10 0.45 -1.20 0.40 -1.20 -0.45 0 -1.10 -0.90 -0.90 -1.25 0.25 -0.55 1.80 -6.20 3.80 -7 2.50z"/>
  <path d="M0.85 33.60 c-1.20 -1.30 -1.10 -3.10 0.15 -3.10 0.85 0 1 0.35 1 2 0 2.30 -0.05 2.35 -1.15 1.10z"/>
  <path d="M2.50 32.25 c0 -0.90 0.25 -1.25 1 -1.25 1.75 0 5 -1.20 5 -1.85 0 -0.35 0.55 -0.65 1.25 -0.65 0.70 0 1.25 -0.20 1.25 -0.50 0 -0.25 0.70 -0.50 1.50 -0.50 1.40 0 1.50 -0.15 1.50 -1.75 0 -1.65 0.10 -1.75 1.75 -1.75 0.95 0 1.75 -0.20 1.75 -0.50 0 -0.25 0.65 -0.50 1.45 -0.50 1.30 0 1.45 -0.20 1.65 -1.95 0.15 -1.85 0.10 -1.95 -2.20 -3.05 -2.15 -1 -2.40 -1.30 -2.40 -2.75 0 -1.05 0.30 -1.75 0.80 -1.95 1.55 -0.60 2.20 -0.30 2.20 1 0 0.75 0.20 1.15 0.55 0.90 0.30 -0.15 0.45 -0.75 0.30 -1.25 -0.35 -1.30 0.05 -1.20 1.25 0.30 0.75 0.95 1.30 1.20 2.30 0.95 2.25 -0.50 3.60 -1.35 3.60 -2.30 0 -0.70 0.40 -0.90 1.75 -0.90 1.65 0 1.75 0.10 1.75 1.75 0 0.95 -0.20 1.75 -0.45 1.75 -0.25 0 -0.55 0.50 -0.65 1.15 -0.10 0.80 -0.55 1.15 -1.50 1.25 -0.80 0.10 -1.40 0.45 -1.40 0.90 0 0.40 -0.45 0.70 -1 0.70 -0.75 0 -1 0.35 -1 1.45 0 1.25 -0.30 1.55 -1.70 2.05 -0.95 0.30 -2.95 1.45 -4.45 2.50 -1.55 1.10 -3 2 -3.25 2 -0.25 0 -0.60 0.30 -0.75 0.70 -0.15 0.40 -1.35 1.05 -2.70 1.55 -1.30 0.45 -3.20 1.20 -4.15 1.60 -5.30 2.35 -5 2.30 -5 0.90z m22.90 -14.95 c0.75 -0.40 1.70 -1.10 2.15 -1.60 1.10 -1.25 1.70 -3.20 1 -3.20 -0.30 0 -0.55 0.35 -0.55 0.80 0 1.35 -2.95 3.70 -4.70 3.70 -1.20 0 -1.35 0.15 -0.80 0.50 1 0.65 1.30 0.60 2.90 -0.20z"/>
  <path d="M1.05 27.45 l1.20 -1 -1.10 0.30 c-1.35 0.40 -1.50 -0.15 -0.25 -1.05 1.30 -1.05 1.60 -0.85 1.60 1.05 0 1.55 -0.15 1.75 -1.30 1.75 l-1.30 0 1.15 -1.05z"/>
  <path d="M18.50 26.50 c1.80 -1.55 2.30 -1.75 2.45 -1.10 0.10 0.45 -0.10 0.90 -0.40 1 -0.30 0.10 -0.55 0.60 -0.55 1.15 0 0.75 -0.35 0.95 -1.85 0.95 l-1.90 -0.05 2.25 -1.95z"/>
  <path d="M4.65 23.25 c0.75 -0.65 1.95 -1.85 2.60 -2.60 l1.20 -1.40 0.05 1.90 c0 1.30 -0.20 1.85 -0.75 1.85 -0.40 0 -0.75 0.35 -0.75 0.75 0 0.55 -0.55 0.75 -1.85 0.75 l-1.90 -0.05 1.40 -1.20z"/>
  <path d="M25 21.80 c0 -0.45 0.75 -0.85 2 -1.05 1.25 -0.20 2 -0.60 2 -1.05 0 -0.40 0.25 -0.70 0.50 -0.70 0.30 0 0.50 -0.35 0.50 -0.75 0 -0.40 0.20 -0.75 0.50 -0.75 0.25 0 0.95 -0.50 1.50 -1.10 0.95 -1.05 1.05 -1.50 0.75 -4.50 l-0.35 -3.40 1.80 0 c1.65 0 1.85 0.15 2.15 1.50 0.25 1.30 0.50 1.50 1.95 1.50 1.65 0 1.70 0.05 1.70 2 0 1.10 -0.20 2 -0.45 2 -0.25 0 -1.80 1.05 -3.50 2.30 -2 1.50 -4.35 2.65 -6.90 3.50 -2.15 0.65 -3.95 1.20 -4 1.20 -0.10 0 -0.15 -0.30 -0.15 -0.70z"/>
  <path d="M11.85 13.15 c0.20 -0.50 1.10 -2.10 2.05 -3.50 1.40 -2.15 1.95 -2.60 2.80 -2.35 0.75 0.15 1.50 -0.20 2.55 -1.30 0.80 -0.80 1.75 -1.50 2.10 -1.50 0.35 0 0.65 -0.55 0.65 -1.25 0 -1.20 1.55 -2.55 2.20 -1.90 0.15 0.15 0.30 -0.05 0.30 -0.50 0 -0.75 0.70 -0.85 5.50 -0.85 l5.50 0 0 1.75 c0 1.70 -0.05 1.75 -1.85 1.75 -1 0 -2.20 -0.30 -2.60 -0.70 -1.15 -1 -7.05 0.80 -7.05 2.15 0 0.50 -0.75 1.50 -1.70 2.20 -0.90 0.75 -1.85 1.90 -2 2.60 -0.30 1.15 -0.50 1.25 -3.30 1.25 -3 0 -3 0 -3 1.50 0 1.25 -0.20 1.50 -1.25 1.50 -0.95 0 -1.15 -0.20 -0.90 -0.85z"/>
  <path d="M12.50 9.40 c0 -0.40 0.35 -1.05 0.75 -1.40 0.95 -0.80 0.95 -0.05 0 1.20 -0.60 0.80 -0.75 0.85 -0.75 0.20z"/>
  <path d="M37 3.75 c0 -1.60 0.10 -1.75 1.50 -1.75 1.40 0 1.50 0.15 1.50 1.75 0 1.60 -0.10 1.75 -1.50 1.75 -1.40 0 -1.50 -0.15 -1.50 -1.75z"/>
 </g>
 <g fill="#ae1a3e">
  <path d="M10.40 16.70 c-0.30 -0.30 1.35 -3.45 3.75 -7.30 1.35 -2.15 1.55 -2.30 2.65 -1.80 0.85 0.40 1.05 0.75 0.70 1.10 -0.65 0.65 -0.65 1.30 0.05 1.30 0.25 0 0.80 -0.75 1.20 -1.70 0.40 -0.95 1.40 -2.20 2.25 -2.80 0.80 -0.60 1.50 -1.40 1.50 -1.80 0 -0.40 0.35 -0.70 0.75 -0.70 0.55 0 0.75 0.55 0.75 1.90 0 1.55 -0.35 2.25 -1.90 3.75 -1.05 1 -2.30 1.85 -2.75 1.85 -0.45 0 -0.85 0.35 -0.85 0.75 0 0.40 -0.35 0.75 -0.75 0.75 -0.40 0 -0.75 0.45 -0.75 1 0 0.60 -0.35 1.70 -0.75 2.50 -0.70 1.35 -1 1.50 -3.20 1.50 -1.30 0 -2.50 -0.15 -2.65 -0.30z"/>
  <path d="M12 10.05 c0 -0.25 0.35 -0.80 0.75 -1.25 0.40 -0.40 0.75 -0.95 0.75 -1.20 0 -0.25 0.35 -0.75 0.75 -1.10 1.10 -0.90 0.90 -0.25 -0.55 2 -1.35 2.05 -1.70 2.35 -1.70 1.55z"/>
 </g>
 <g fill="#7b4651">
  <path d="M14.30 38.40 c-0.75 -1.55 -0.80 -1.60 -0.80 -0.40 0 1 -0.10 1.10 -0.50 0.50 -0.25 -0.40 -0.45 -1.40 -0.45 -2.25 0 -1.30 0.10 -1.35 0.45 -0.50 0.35 0.85 0.45 0.85 0.45 0.15 0.05 -1.35 1.85 -1.10 2.25 0.25 0.45 1.65 0.35 3.85 -0.15 3.85 -0.25 0 -0.80 -0.75 -1.25 -1.60z"/>
  <path d="M2.65 36.20 c-1.10 -0.45 -0.70 -1.25 0.50 -1.05 0.60 0.10 0.80 0.10 0.45 0 -0.35 -0.15 -0.50 -0.45 -0.35 -0.70 0.35 -0.55 5.25 -0.60 5.25 -0.05 0 1.05 -4.45 2.40 -5.85 1.80z"/>
  <path d="M19 34.80 c0 -1.05 1.65 -1.20 2.65 -0.20 0.80 0.85 0.80 0.90 -0.90 0.90 -1.15 0 -1.75 -0.25 -1.75 -0.70z"/>
  <path d="M1.15 33.85 c-0.30 -0.30 -0.65 -1 -0.80 -1.45 -0.25 -0.70 -0.05 -0.90 0.90 -0.90 1 0 1.25 0.25 1.25 1.20 0 1.45 -0.70 2.05 -1.35 1.15z"/>
  <path d="M9 33.50 c0 -0.80 0.35 -1 1.75 -1 1.95 0 2.30 0.70 0.80 1.50 -1.55 0.80 -2.55 0.60 -2.55 -0.50z"/>
  <path d="M19.50 32.50 c-0.55 -0.35 -0.25 -0.50 1.15 -0.50 1.15 0 1.80 0.20 1.60 0.50 -0.40 0.65 -1.75 0.65 -2.75 0z"/>
  <path d="M12.90 30 c3.70 -1.75 3.60 -1.75 3.60 -0.75 0 0.45 -0.60 0.90 -1.50 1.10 -0.80 0.15 -1.50 0.45 -1.50 0.70 0 0.25 -0.85 0.45 -1.85 0.45 l-1.90 -0.05 3.15 -1.45z"/>
  <path d="M10 29 c0 -0.60 0.35 -1 0.80 -1 0.40 0 1.10 -0.35 1.50 -0.75 0.45 -0.40 1.55 -0.75 2.55 -0.75 1.55 0 1.70 0.10 1.15 0.80 -0.75 0.85 -4.35 2.70 -5.35 2.70 -0.35 0 -0.65 -0.45 -0.65 -1z"/>
  <path d="M19.50 25.70 c0.95 -1.10 2.45 -1.80 5.40 -2.50 1.60 -0.40 2.60 -0.40 2.60 -0.10 0 0.90 -1.35 1.85 -3.20 2.15 -1 0.20 -1.80 0.55 -1.80 0.80 0 0.25 -0.80 0.45 -1.80 0.45 -1.60 0 -1.75 -0.10 -1.20 -0.80z"/>
  <path d="M19 23.75 c0 -0.40 0.40 -0.75 0.90 -0.75 0.55 0 1.20 -0.50 1.50 -1.10 0.35 -0.75 0.55 -0.85 0.55 -0.40 0.05 0.60 0.15 0.65 0.50 0.05 0.25 -0.35 1.45 -0.80 2.75 -0.90 1.85 -0.25 2.30 -0.15 2.30 0.50 0 0.50 -0.80 0.95 -2.50 1.30 -1.40 0.30 -3.20 0.90 -4 1.30 -1.80 0.95 -2 0.95 -2 0z"/>
  <path d="M20 18 c0 -0.25 -0.45 -0.50 -1 -0.50 -0.55 0 -1 -0.35 -1 -0.75 0 -0.40 -0.20 -0.75 -0.50 -0.75 -0.55 0 -0.65 -2.10 -0.20 -4.45 0.30 -1.35 0.50 -1.55 2 -1.55 1.60 0 1.70 0.10 1.70 1.70 0 3.45 1.20 4.20 3.70 2.25 1.55 -1.25 1.65 -1.75 0.30 -2.10 -1.05 -0.25 -1.40 -1.85 -0.40 -1.85 0.45 0 0.45 -0.15 0 -0.60 -0.95 -0.95 -0.70 -1.40 0.85 -1.40 2.10 0 3.05 0.50 3.05 1.55 0 0.50 0.25 0.95 0.50 0.95 0.65 0 0.65 4.30 0 5.55 -0.30 0.50 -1.20 1.30 -2 1.70 -1.60 0.85 -7 1.05 -7 0.25z m6.15 -1 c1.55 -0.90 2.85 -2.75 2.85 -4 0 -1.05 -0.90 -0.45 -1.20 0.75 -0.35 1.45 -2.95 3.25 -4.65 3.25 -0.60 0 -1.65 -0.25 -2.35 -0.60 -1 -0.40 -1.20 -0.80 -1 -1.65 0.15 -0.65 0.05 -1.30 -0.25 -1.45 -0.30 -0.20 -0.55 0 -0.55 0.40 0 0.40 -0.35 0.95 -0.75 1.20 -0.60 0.30 -0.20 0.70 1.85 1.75 3.20 1.60 3.85 1.65 6.05 0.35z"/>
 </g>
 <g fill="#3b6c6e">
  <path d="M21 18.05 c0 -0.25 -0.60 -0.55 -1.35 -0.65 -0.85 -0.10 -1.45 -0.50 -1.55 -1 -0.15 -0.80 0.15 -0.75 2.30 0.35 1.40 0.70 2.85 1.25 3.25 1.25 1.10 0 4.35 -2 4.35 -2.65 0 -0.30 0.15 -0.35 0.35 -0.20 0.40 0.45 -1.35 2.35 -2.20 2.35 -0.35 0 -0.65 0.25 -0.65 0.50 0 0.30 -1 0.50 -2.25 0.50 -1.25 0 -2.25 -0.20 -2.25 -0.45z"/>
  <path d="M21 16.35 c-0.65 -0.35 -1.25 -1.05 -1.30 -1.60 -0.15 -3.40 -0.25 -3.55 -0.90 -1.50 l-0.65 2 0.05 -3 c0.05 -2.65 0.20 -3.05 1.30 -3.60 1.45 -0.75 7.50 -0.90 7.50 -0.20 0 0.25 0.50 0.55 1.15 0.65 0.90 0.10 1.15 0.50 1.25 2.05 0.15 1.85 0.10 1.90 -0.95 1.35 -0.60 -0.35 -0.95 -0.40 -0.80 -0.15 0.50 0.80 -0.65 2.65 -2.25 3.65 -1.90 1.15 -2.70 1.20 -4.40 0.35z m2.50 -3.10 c-0.35 -0.40 -0.85 -0.75 -1.10 -0.75 -0.30 0 -0.25 0.35 0.10 0.75 0.35 0.40 0.85 0.75 1.10 0.75 0.30 0 0.25 -0.35 -0.10 -0.75z"/>
 </g>
 <g fill="#a03a53">
  <path d="M14.30 38 c-1.50 -3.75 -1.30 -4 2.90 -4 2.05 0 3.85 0.20 4 0.45 0.20 0.25 1.20 0.60 2.30 0.80 1.75 0.30 3.35 1.25 2.10 1.25 -0.25 0 -1 0.50 -1.65 1.05 -1.15 1.05 -1.15 1.10 -0.15 0.85 0.60 -0.15 1.45 -0.05 1.95 0.20 0.75 0.45 0.80 0.35 0.50 -0.60 -0.30 -1 -0.20 -1.10 1.10 -0.90 1.25 0.15 1.45 0.05 1.25 -0.70 -0.10 -0.50 -0.35 -0.90 -0.55 -0.90 -0.20 0 -0.80 -0.35 -1.35 -0.75 -0.85 -0.65 -0.60 -0.70 2.80 -0.45 2.05 0.20 4.10 0.65 4.55 1 0.50 0.50 1.50 0.60 3.35 0.35 l2.60 -0.30 0 2.35 0 2.30 -2.55 0 c-2.25 0 -2.55 -0.10 -2.30 -0.95 0.10 -0.50 0.05 -1.25 -0.20 -1.60 -0.30 -0.50 -0.45 -0.20 -0.45 0.90 l0 1.65 -7.50 -0.05 c-7.20 -0.05 -7.50 -0.10 -7.50 -1.05 0 -0.60 0.40 -1.35 0.90 -1.70 0.75 -0.60 0.55 -0.65 -1.50 -0.70 -2.05 0 -2.40 -0.15 -2.40 -1 0 -0.55 -0.20 -1 -0.50 -1 -0.25 0 -0.50 0.70 -0.50 1.50 0 1.25 0.20 1.50 1.25 1.50 1 0 1.25 0.25 1.25 1.25 0 1.05 -0.25 1.25 -1.45 1.25 -1.20 0 -1.55 -0.30 -2.25 -2z"/>
  <path d="M12.85 38.30 c-0.20 -0.50 -0.35 -1.60 -0.30 -2.45 0.05 -1.55 0.05 -1.55 0.50 0.35 0.50 2.15 0.35 3.60 -0.20 2.10z"/>
  <path d="M2.60 35.90 c-0.70 -0.70 1.20 -2.05 5.40 -3.85 6.75 -2.90 8.35 -3.75 10.95 -5.75 3.20 -2.45 4.55 -3.10 4.55 -2.10 0 0.40 -0.65 0.95 -1.50 1.30 -1.05 0.45 -1.50 0.95 -1.50 1.80 0 1.05 0.25 1.20 2 1.20 1.70 0 2 0.15 2 1 0 1.30 1.25 1.80 2.30 1 0.50 -0.45 0.60 -0.80 0.20 -1.20 -0.25 -0.25 -0.50 -1.25 -0.50 -2.15 0 -1.55 0.10 -1.65 1.80 -1.65 1.20 0 1.70 -0.20 1.60 -0.60 -0.15 -0.40 -1 -0.55 -2.30 -0.45 -1.50 0.10 -2.10 -0.05 -2.10 -0.55 0 -0.90 9.30 -3.55 10.35 -3 0.40 0.25 1.15 1.30 1.70 2.40 0.80 1.75 0.90 1.80 0.60 0.45 -0.15 -0.80 -0.30 -1.70 -0.35 -2 0 -0.25 0.45 -0.55 1.10 -0.65 1.10 -0.15 1.10 -0.10 1.05 5.30 l-0.05 5.45 -1.80 0.60 c-2.90 0.90 -6.10 0.95 -6.10 0.05 0 -0.25 1.25 -1.30 2.75 -2.30 1.50 -1 2.75 -1.95 2.75 -2.05 0 -0.30 -3.50 1.80 -4.70 2.80 -0.85 0.75 -0.95 0.70 -1.60 -0.20 -1.60 -2.45 -2.15 -2.80 -0.95 -0.65 0.90 1.60 1.10 2.40 0.70 2.65 -0.30 0.20 -2.15 0.30 -4.15 0.25 -1.95 -0.10 -5.70 -0.15 -8.30 -0.15 -2.70 0.05 -4.90 -0.20 -5.05 -0.45 -0.20 -0.30 -0.60 -0.10 -0.90 0.55 -0.35 0.55 -0.80 1.05 -1.10 1.05 -0.30 0 -0.35 -0.20 -0.20 -0.50 0.20 -0.30 -0.45 -0.50 -1.60 -0.45 -1.05 0 -1.60 0.15 -1.25 0.30 0.30 0.10 0.60 0.55 0.60 0.90 0 0.85 -2.55 1.45 -4.50 1 -1.60 -0.35 -2.20 0.50 -0.60 0.90 0.65 0.20 0.65 0.25 0.10 0.30 -0.45 0 -1.05 -0.20 -1.40 -0.55z"/>
  <path d="M34.50 34.50 c0 -0.25 0.90 -0.50 1.95 -0.50 1.10 0 2.30 -0.15 2.75 -0.30 0.55 -0.20 0.80 -0.05 0.80 0.50 0 0.65 -0.55 0.80 -2.75 0.80 -1.50 0 -2.75 -0.20 -2.75 -0.50z"/>
  <path d="M0.80 33.05 c-1.15 -2.20 -1 -4.45 0.35 -5.60 l1.10 -0.90 -1.25 -0.05 c-1.10 0 -1 -0.15 1 -1.50 l2.25 -1.50 0.15 1.35 c0.10 0.75 -0.05 1.45 -0.35 1.55 -0.30 0.10 -0.55 0.70 -0.55 1.35 0 0.60 -0.30 1.40 -0.70 1.70 -0.40 0.35 -0.60 1.05 -0.45 1.55 0.30 1.15 1.15 1.35 1.15 0.35 0 -0.75 2.05 -1.85 3.30 -1.85 0.45 0 1.15 -0.35 1.55 -0.80 0.55 -0.55 1.45 -0.75 2.75 -0.60 1.70 0.15 1.90 0.05 1.90 -0.95 0 -0.65 0.25 -1.15 0.50 -1.15 0.30 0 0.50 -1 0.50 -2.20 0 -2.15 0.05 -2.25 1.60 -2.40 1.15 -0.10 1.80 -0.55 2.45 -1.70 l0.85 -1.60 -1.50 -0.30 c-0.85 -0.15 -2.05 -0.30 -2.70 -0.30 -1.50 0 -1.50 -0.70 -0.10 -3.35 1.15 -2.15 2.30 -2.65 3.80 -1.75 0.65 0.45 0.35 2.05 -0.50 2.65 -0.50 0.30 4.65 2.95 5.80 2.95 2.70 0 6.70 -4.85 4.65 -5.65 -0.40 -0.15 -0.70 0.15 -0.70 0.80 -0.05 0.55 -0.60 1.50 -1.25 2.05 l-1.10 1.05 0.85 -1.05 c0.45 -0.55 0.85 -1.50 0.85 -2.10 0 -0.55 0.25 -1.20 0.50 -1.35 0.30 -0.20 0.40 -0.55 0.20 -0.80 -0.20 -0.35 0.35 -0.45 1.35 -0.35 1.60 0.15 1.70 0.25 1.70 2.15 0 1.10 -0.20 2.55 -0.45 3.15 -0.35 1.10 -0.30 1.15 0.80 0.85 0.60 -0.20 1.25 -0.45 1.40 -0.60 0.10 -0.10 0.15 -2.10 0.10 -4.45 l-0.15 -4.20 1.75 0 c1.60 0 1.80 0.15 2.30 1.90 0.45 1.75 0.60 1.90 2 1.70 1.50 -0.20 1.50 -0.20 1.50 2.10 0 1.25 -0.20 2.30 -0.45 2.30 -0.25 0 -1.80 1 -3.45 2.25 -1.70 1.30 -4.30 2.65 -6.15 3.25 -4.05 1.25 -4.35 1.25 -4.60 -0.10 -0.20 -1 -0.20 -0.95 -0.30 0.25 -0.05 0.85 -0.35 1.35 -0.80 1.35 -1.20 0 -4.75 1.90 -7.10 3.85 -2 1.60 -3.20 2.20 -10.65 5.40 -1.80 0.75 -3.65 1.70 -4.10 2.10 -0.75 0.65 -0.90 0.60 -1.60 -0.80z m32.50 -13.95 c0.30 -0.20 0.95 -1.10 1.40 -1.95 0.45 -0.90 1.45 -1.95 2.30 -2.40 0.80 -0.40 1.60 -1.05 1.80 -1.35 0.25 -0.35 -0.20 -0.25 -0.95 0.25 -1.85 1.20 -2.20 1.10 -2.75 -1 -0.25 -1.05 -0.50 -1.45 -0.50 -0.90 0 0.55 0.15 1.55 0.35 2.25 0.40 1.45 -1.05 4.15 -2.70 4.95 -0.70 0.35 -0.75 0.50 -0.25 0.50 0.40 0 1 -0.15 1.30 -0.35z"/>
  <path d="M7.10 20.75 c1.45 -2.20 1.90 -2.20 1.90 0 0 1.60 -0.10 1.75 -1.50 1.75 l-1.50 0 1.10 -1.75z"/>
  <path d="M36.10 20.15 c-1.10 -0.20 -1.05 -0.30 0.70 -1.70 2.35 -1.85 3.20 -1.85 3.20 0.05 0 0.95 -0.25 1.50 -0.70 1.50 -0.40 0 -1 0.10 -1.40 0.20 -0.35 0.10 -1.15 0.05 -1.80 -0.05z"/>
  <path d="M10 16.50 c1.25 -1.75 2.25 -1.75 2.25 0.05 0 1 -0.30 1.25 -1.70 1.35 l-1.65 0.15 1.10 -1.55z"/>
  <path d="M21.30 16.50 c-0.90 -0.30 -0.90 -0.35 0.20 -0.65 0.70 -0.15 1.40 -0.15 1.65 0.10 0.60 0.60 -0.70 1 -1.85 0.55z"/>
  <path d="M16.60 11.10 c0.10 -0.20 1.45 -1.55 3.05 -3.05 l2.85 -2.70 0 1.85 c0 1 -0.25 1.80 -0.55 1.80 -0.30 0 -1 0.55 -1.55 1.25 -0.65 0.85 -1.45 1.25 -2.50 1.25 -0.80 0 -1.40 -0.15 -1.30 -0.40z"/>
  <path d="M14 10.15 c0 -0.20 0.40 -1.05 0.95 -1.80 0.75 -1.20 1 -1.30 1.50 -0.65 1 1.20 0.45 2.55 -1.10 2.70 -0.75 0.10 -1.35 0 -1.35 -0.25z"/>
  <path d="M12.30 9.40 c1 -1.75 2.35 -3.45 2.55 -3.25 0.30 0.35 -2 3.85 -2.50 3.85 -0.25 0 -0.25 -0.30 -0.05 -0.60z"/>
  <path d="M33.50 5.75 c0 -1.25 -1.90 -2.75 -3.45 -2.75 -0.80 0 -2.50 0.45 -3.80 1 -3.05 1.30 -3.75 1.25 -3.75 -0.20 0 -1.05 0.40 -1.35 2.65 -2.05 1.40 -0.45 3 -1 3.45 -1.30 1.45 -0.75 3.10 -0.50 3.80 0.55 0.35 0.55 0.90 1 1.25 1 0.35 0 0.15 -0.35 -0.35 -0.75 -1.50 -1.10 -0.75 -1.35 3.15 -0.95 3.45 0.30 3.55 0.35 3.55 1.75 0 0.90 -0.30 1.45 -0.85 1.60 -0.85 0.20 -0.85 0.25 0 0.30 1.55 0.10 0.90 1.30 -1.15 1.95 -2.70 0.85 -4.50 0.80 -4.50 -0.15z"/>
 </g>
 <g fill="#5f6574">
  <path d="M19 17.25 c0 -0.40 0.20 -0.75 0.45 -0.75 0.25 0 0.70 0.35 1.05 0.75 0.50 0.65 0.45 0.75 -0.45 0.75 -0.60 0 -1.05 -0.30 -1.05 -0.75z"/>
  <path d="M21.25 16.50 c-0.95 -0.40 -0.95 -0.45 -0.05 -0.45 0.75 -0.05 0.80 -0.20 0.30 -0.80 -0.50 -0.60 -0.45 -0.75 0.20 -0.75 0.50 0 1.20 -0.30 1.55 -0.70 0.60 -0.60 0.55 -0.75 -0.25 -0.95 -0.55 -0.15 -1.15 -0.05 -1.30 0.20 -0.50 0.85 -2.20 0.50 -2.20 -0.45 0 -1.40 1 -2.05 2.70 -1.80 2.75 0.50 3.80 1.25 3.80 2.80 0 0.85 0.20 1.35 0.50 1.15 0.30 -0.15 0.50 -0.85 0.50 -1.50 0 -0.65 0.25 -1.35 0.50 -1.50 0.75 -0.50 0.10 -1.25 -1.75 -2.05 -1.30 -0.55 -2.05 -0.55 -3.35 -0.10 -2.15 0.70 -3.40 1.80 -3.40 3 0 0.50 -0.20 0.90 -0.50 0.90 -0.25 0 -0.50 -0.80 -0.50 -1.75 0 -1.20 0.30 -1.95 1 -2.35 0.55 -0.35 1 -0.90 1 -1.25 0 -0.45 0.95 -0.65 3.25 -0.65 2.55 0 3.25 0.15 3.25 0.75 0 0.40 0.35 0.75 0.80 0.75 1.05 0 2.20 1.25 2.20 2.40 0 0.70 -0.25 0.95 -0.90 0.75 -0.65 -0.15 -0.90 0.10 -0.95 0.90 -0.10 1.35 -1.55 2.95 -2.40 2.65 -0.35 -0.15 -1.20 0.05 -1.85 0.45 -0.75 0.50 -1.50 0.60 -2.15 0.35z"/>
 </g>
 <g fill="#be3053">
  <path d="M2.55 35.85 c-0.40 -0.55 -0.10 -0.90 1.40 -1.75 2.45 -1.40 2.55 -1.35 2.55 0.10 0 1.15 -0.15 1.20 -1.75 0.95 -1.80 -0.30 -2.55 0.55 -0.85 1 0.70 0.20 0.70 0.25 0.05 0.30 -0.45 0 -1.10 -0.25 -1.40 -0.60z"/>
  <path d="M1 33.05 c0 -0.55 -0.20 -1.15 -0.50 -1.30 -0.90 -0.55 -0.55 -3 0.50 -3.65 1.10 -0.70 1.30 -1.90 0.40 -2.25 -0.45 -0.15 -0.30 -0.40 0.35 -0.65 2.10 -0.85 5.15 -3.85 7.75 -7.60 1.50 -2.20 1.90 -2.50 3.05 -2.25 1.15 0.20 1.50 0 2.15 -1.25 1 -1.95 1 -2.60 0 -3.35 -0.75 -0.55 -0.75 -0.70 0.05 -1.95 1.05 -1.60 2 -1.45 2 0.30 -0.05 0.95 0.20 1.20 0.75 1 1.20 -0.40 5 -4.75 5 -5.70 0 -0.55 0.40 -0.90 1 -0.90 0.80 0 1 0.35 1 1.90 0 1.55 -0.25 2.05 -1.50 2.75 -0.80 0.50 -1.50 1.10 -1.50 1.40 0 0.25 -0.55 0.45 -1.25 0.45 -0.90 0 -1.25 0.25 -1.25 0.90 0 1 -2.15 3.30 -2.60 2.80 -0.60 -0.55 -1.25 1.60 -1.60 5.05 -0.30 3.15 -0.55 3.70 -2.15 5.35 -1.80 1.85 -1.80 1.85 -1 3.50 0.85 1.75 0.80 1.90 -0.25 2.10 -2.20 0.45 -4 1.15 -6.70 2.65 -3.55 1.95 -3.70 1.95 -3.70 0.70z m5.60 -7 c0.20 -0.20 -0.05 -0.60 -0.60 -0.95 -0.85 -0.50 -1 -0.50 -1 0.15 0 0.40 -0.20 0.75 -0.50 0.75 -0.25 0 -0.50 0.25 -0.50 0.55 0 0.50 1.90 0.15 2.60 -0.50z"/>
  <path d="M10.30 33.20 c-0.55 -1.45 -0.30 -2 1.25 -2.55 1.95 -0.75 2.95 -0.35 2.95 1.15 0 1.35 -1 1.65 -1 0.35 -0.05 -0.65 -0.25 -0.50 -0.80 0.50 -0.80 1.50 -1.95 1.75 -2.40 0.55z"/>
  <path d="M24.50 27.75 c0 -1.95 1 -2.75 3.45 -2.75 1.30 0 1.55 0.20 1.55 1.25 0 0.95 -0.20 1.15 -0.85 0.90 -0.75 -0.30 -0.80 -0.20 -0.30 0.40 0.90 1.10 -0.10 1.95 -2.20 1.95 -1.55 0 -1.65 -0.10 -1.65 -1.75z"/>
  <path d="M12.50 9.50 c0 -0.75 2 -3.65 2.35 -3.35 0.10 0.15 -0.35 1.10 -1.10 2.10 -0.70 1.05 -1.25 1.60 -1.25 1.25z"/>
  <path d="M30.65 9.65 c-1.50 -0.20 -1.65 -0.35 -1.65 -1.95 0 -1.45 0.15 -1.70 1.20 -1.70 0.70 0 1.65 -0.55 2.20 -1.25 1.10 -1.35 2.60 -1.65 2.60 -0.50 0 0.45 0.30 0.60 0.75 0.45 0.95 -0.40 1 0.80 0.15 3.25 -0.80 2.35 -0.85 2.40 -1.40 1.55 -0.35 -0.50 -0.50 -0.55 -0.50 -0.10 0 0.60 -0.30 0.60 -3.35 0.25z"/>
 </g>
 <g fill="#b24460">
  <path d="M16.50 39.50 c0 -0.25 -0.45 -0.50 -1 -0.50 -1.05 0 -1.55 -1.30 -1.35 -3.60 0.10 -1.30 0.25 -1.40 2.25 -1.40 1.60 0 2.05 0.15 1.80 0.65 -0.30 0.50 -0.20 0.50 0.35 0 0.80 -0.75 2.45 -0.85 2.45 -0.15 0 0.30 0.40 0.50 0.95 0.50 0.60 0 1 0.45 1.15 1.25 0.35 1.80 -2 3.75 -4.60 3.75 -1.10 0 -2 -0.20 -2 -0.50z"/>
  <path d="M27.60 38.95 c-0.75 -1.20 -0.45 -1.85 0.50 -1.15 0.35 0.30 1.35 0.55 2.15 0.60 l1.50 0.10 -1.35 -0.75 c-1.60 -0.90 -1.65 -1.20 -0.75 -2.50 0.50 -0.60 0.90 -0.75 1.40 -0.45 0.40 0.25 1.15 0.45 1.70 0.45 0.85 0 1 0.40 1.15 2.40 l0.15 2.35 -2.90 0 c-2.40 0 -3 -0.20 -3.55 -1.05z"/>
  <path d="M12.85 38.15 c-0.20 -0.15 -0.35 -0.80 -0.30 -1.35 0 -0.95 0.05 -0.95 0.50 0.15 0.50 1.20 0.40 1.80 -0.20 1.20z"/>
  <path d="M2.55 35.80 c-0.45 -0.50 -0.40 -0.75 0.15 -0.95 0.50 -0.20 0.65 -0.05 0.50 0.40 -0.15 0.35 0.10 0.75 0.65 0.90 0.70 0.20 0.75 0.25 0.10 0.30 -0.45 0 -1.10 -0.25 -1.40 -0.65z"/>
  <path d="M5.35 35.15 c-0.90 -0.85 -0.15 -1.80 2.30 -2.90 2.75 -1.30 4.80 -1.75 3.35 -0.70 -0.55 0.40 -0.60 0.60 -0.10 0.80 1.40 0.55 0.50 1.65 -2 2.40 -2.95 0.85 -3.10 0.90 -3.55 0.40z"/>
  <path d="M13.50 32.15 c0 -0.65 -0.15 -0.65 -0.80 -0.10 -0.70 0.55 -0.75 0.50 -0.60 -0.55 0.05 -0.70 0.25 -1.15 0.40 -1.05 0.15 0.15 1.20 -0.40 2.40 -1.10 1.95 -1.25 2.10 -1.30 2.10 -0.40 0 0.55 -0.35 1.30 -0.75 1.75 -0.70 0.70 -0.45 0.75 2.55 0.45 2.95 -0.25 3.30 -0.20 3.15 0.55 -0.15 0.75 -0.90 0.90 -4.30 1.05 -3.50 0.15 -4.15 0.05 -4.15 -0.60z"/>
  <path d="M23.90 32.45 c-0.50 -0.25 -0.90 -0.95 -0.90 -1.45 0 -0.85 -0.35 -1 -2 -1 -2 0 -2 0 -2 -1.95 0 -1.60 0.25 -2.20 1.40 -3 1.75 -1.25 4.10 -1.85 4.10 -1.10 0 0.30 -0.30 0.55 -0.65 0.55 -1.15 0 -2.40 1.25 -2.10 2.05 0.45 1.25 3.70 0.05 4.10 -1.50 0.15 -0.65 0.05 -1.30 -0.25 -1.50 -0.35 -0.20 0.70 -0.60 2.20 -0.95 2.35 -0.50 2.90 -0.45 3.55 0.20 0.40 0.40 0.65 1.05 0.50 1.40 -0.40 1.05 0.70 1.80 2.70 1.80 1.30 0 1.95 -0.25 2.20 -0.85 0.30 -0.85 0.35 -0.85 1 0 0.65 0.90 0.70 0.85 0.85 -0.20 0.10 -0.60 0.45 -1.20 0.80 -1.35 0.45 -0.15 0.60 0.85 0.60 3.85 0 3.65 -0.10 4.05 -0.95 4.05 -0.50 0 -1.20 0.35 -1.55 0.75 -0.45 0.55 -1.10 0.70 -2.20 0.45 -2.60 -0.50 -2.50 -1 0.40 -2.95 4.85 -3.20 4.40 -3.85 -0.50 -0.75 l-3.15 2 -1.60 -1.95 c-0.85 -1.10 -1.90 -2.10 -2.35 -2.30 -0.70 -0.25 -0.70 -0.20 -0.05 0.60 0.45 0.50 1.25 1.75 1.90 2.85 l1.10 1.90 -1.25 -0.30 c-0.75 -0.20 -1.40 0 -1.80 0.45 -0.70 0.85 -2.85 0.95 -4.10 0.20z"/>
  <path d="M5 31.55 c0 -0.30 0.35 -0.55 0.75 -0.55 0.40 0 0.75 -0.45 0.75 -1 0 -0.80 0.35 -1 1.70 -1 0.95 0 1.85 0.20 2 0.45 0.25 0.40 -0.60 0.85 -4.55 2.40 -0.35 0.15 -0.65 0 -0.65 -0.30z"/>
  <path d="M10.25 29 c-0.90 -1 -0.85 -1 0.90 -1 2 0 2.40 0.65 0.90 1.45 -0.70 0.40 -1.15 0.30 -1.80 -0.45z"/>
  <path d="M13.50 27.05 c0 -0.85 0.25 -1.65 0.50 -1.80 0.35 -0.20 0.30 -0.70 -0.05 -1.40 -0.35 -0.55 -0.60 -2.55 -0.65 -4.35 0 -2.70 0.20 -3.60 1.10 -4.75 0.60 -0.75 1.10 -1.70 1.10 -2.05 0 -0.85 3.50 -3.70 4.60 -3.70 1.10 0 1.20 0.90 0.15 1.30 -0.40 0.15 -0.95 1.15 -1.25 2.25 -0.50 1.75 -0.60 1.90 -1.75 1.45 -1 -0.40 -1.35 -0.30 -1.75 0.50 -0.70 1.35 -0.60 1.70 0.30 0.95 0.50 -0.40 0.90 -0.45 1.10 -0.10 0.20 0.30 0.90 0.70 1.60 0.90 0.70 0.20 1.50 0.60 1.80 0.85 0.65 0.45 0.40 2.25 -0.45 3.30 -0.30 0.40 -0.25 0.60 0.15 0.60 0.70 0 2.50 -1.90 2.50 -2.60 0 -0.30 0.90 -0.35 2.15 -0.15 1.55 0.20 1.90 0.15 1.35 -0.20 -0.65 -0.50 -0.65 -0.60 0 -1.05 0.60 -0.40 0.80 -0.10 0.90 1.50 0.15 2.20 0.60 2.40 4.30 1.55 1.05 -0.25 1.75 -0.30 1.50 -0.10 -0.55 0.45 -7.80 2.55 -8.80 2.55 -0.40 0 -1.75 0.55 -3.05 1.15 -1.85 0.95 -2.20 1.05 -1.85 0.35 0.25 -0.45 1.30 -1.10 2.35 -1.45 1.60 -0.55 1.90 -0.85 1.95 -2.15 l0.05 -1.55 -0.75 1.30 c-0.45 0.75 -1.45 1.45 -2.25 1.65 -1.05 0.20 -1.65 0.80 -2.20 2.10 -0.85 2.15 -2.60 4.20 -3.20 3.80 -0.25 -0.15 -0.45 0 -0.45 0.25 0 0.30 -0.20 0.55 -0.50 0.55 -0.25 0 -0.50 -0.65 -0.50 -1.45z m2.35 -3.15 c-0.10 -0.65 -0.20 -0.25 -0.20 0.85 -0.05 1.10 0.05 1.60 0.20 1.15 0.10 -0.50 0.10 -1.40 0 -2z"/>
  <path d="M2.25 27.05 c0.15 -0.30 -0.15 -0.70 -0.60 -1 -0.85 -0.45 -0.85 -0.50 0.10 -0.85 0.55 -0.20 1.65 -0.90 2.40 -1.55 1.55 -1.25 2.35 -1.15 2.35 0.40 0 0.75 -0.35 0.95 -1.75 0.95 -1.55 0 -1.75 0.15 -1.75 1.25 0 0.70 -0.25 1.25 -0.55 1.25 -0.25 0 -0.40 -0.20 -0.20 -0.45z"/>
  <path d="M8.50 19.20 c0 -0.85 1.15 -2.20 1.60 -1.90 0.30 0.20 0.40 0.15 0.20 -0.20 -0.15 -0.30 -0.10 -0.65 0.20 -0.85 0.30 -0.20 0.50 0.40 0.50 1.45 0 1.60 -0.15 1.80 -1.25 1.80 -0.70 0 -1.25 -0.15 -1.25 -0.30z"/>
  <path d="M27.95 19.20 c-0.15 -1.25 0.20 -3.45 0.80 -4.85 0.60 -1.50 0.55 -1.70 -0.65 -2.90 -0.75 -0.75 -1.85 -1.60 -2.45 -1.90 -1.80 -0.90 -1.45 -2.05 0.60 -2.05 0.95 0 1.75 -0.20 1.75 -0.50 0 -0.25 0.80 -0.50 1.75 -0.50 1.70 0 2.35 0.65 1.15 1.15 -0.50 0.20 -0.45 0.30 0.05 0.30 0.85 0.05 2 -1.40 2.05 -2.50 0 -0.95 -1 -1.45 -2.70 -1.45 -1.55 0 -5.80 1.50 -5.80 2.05 0 0.25 -0.60 0.45 -1.35 0.40 -0.80 0 -1.10 -0.15 -0.80 -0.30 0.40 -0.15 0.55 -0.70 0.35 -1.45 -0.25 -1.05 0 -1.30 2.05 -2.20 4.65 -2 10.85 -0.80 10.10 2 -0.25 0.90 -0.15 0.90 0.90 0.20 0.65 -0.45 1.80 -0.70 2.60 -0.60 1.40 0.15 1.40 0.15 1.55 4.15 l0.10 4 -2 1.10 c-1.45 0.75 -2.10 0.90 -2.25 0.50 -0.10 -0.35 -0.50 -1.60 -0.80 -2.85 -0.80 -2.95 -1.25 -1.25 -0.50 1.80 0.80 3.10 -0.20 4.95 -3 5.70 -1.10 0.30 -2.35 0.70 -2.75 0.85 -0.40 0.15 -0.70 0.05 -0.75 -0.15z m6.15 -11.95 c0.20 -1 0.10 -1.15 -0.40 -0.70 -0.35 0.30 -0.50 0.85 -0.35 1.25 0.35 1 0.50 0.90 0.75 -0.55z"/>
  <path d="M19.50 12.85 c0 -0.40 0.35 -1 0.75 -1.35 0.55 -0.45 0.75 -0.50 0.75 -0.05 0 0.35 -0.35 0.95 -0.75 1.35 -0.65 0.65 -0.75 0.65 -0.75 0.05z"/>
  <path d="M34.35 1.95 c-0.75 -0.85 -1.35 -1.65 -1.35 -1.75 0 -0.10 1.60 -0.20 3.50 -0.20 3.15 0 3.50 0.10 3.50 1 0 0.75 -0.35 1 -1.35 1.05 -0.80 0 -1.10 0.15 -0.75 0.30 0.90 0.35 0.20 1.15 -1.05 1.15 -0.65 0 -1.75 -0.70 -2.50 -1.55z"/>
 </g>
 <g fill="#9e5365">
  <path d="M13.80 36.25 c-0.40 -1.50 -0.05 -2.25 1 -2.25 0.45 0 0.70 0.55 0.70 1.75 0 2.10 -1.20 2.45 -1.70 0.50z"/>
  <path d="M2.50 35.75 c-0.45 -0.50 -0.45 -0.75 -0.05 -0.75 0.30 0 0.55 0.20 0.55 0.45 0 0.25 0.40 0.60 0.90 0.70 0.70 0.20 0.70 0.25 0.05 0.30 -0.45 0 -1.10 -0.30 -1.45 -0.70z"/>
  <path d="M8.50 33.55 c0 -0.65 0.45 -1.05 1.50 -1.30 0.85 -0.20 1.75 -0.75 2 -1.25 0.45 -0.80 3.40 -2.25 3.85 -1.85 0.10 0.10 -0.15 1.05 -0.50 2.05 -0.55 1.70 -0.70 1.80 -1.30 1.10 -0.50 -0.60 -0.85 -0.70 -1.35 -0.25 -0.40 0.30 -0.60 0.75 -0.45 0.95 0.35 0.55 -0.25 0.90 -2.15 1.25 -1.35 0.20 -1.60 0.10 -1.60 -0.70z"/>
  <path d="M12.20 28.20 c0.40 -1.55 1.10 -2.20 2.35 -2.20 1 0 1.65 1.35 0.85 1.80 -0.35 0.25 -0.40 0.10 -0.20 -0.35 0.25 -0.40 0.10 -0.40 -0.30 0.10 -0.35 0.45 -1.20 1.05 -1.85 1.40 -1.15 0.65 -1.15 0.60 -0.85 -0.75z"/>
  <path d="M20 26.05 c0 -1.10 2.35 -2.35 5.40 -2.85 1.85 -0.30 2.10 -0.20 2.10 0.60 0 0.75 -0.60 1.10 -2.60 1.60 -1.45 0.35 -2.70 0.85 -2.80 1.10 -0.35 0.95 -2.10 0.55 -2.10 -0.45z"/>
  <path d="M24.65 21.70 c1.05 -0.45 2.05 -0.70 2.20 -0.50 0.50 0.50 -0.10 0.85 -2.15 1.10 l-1.95 0.25 1.90 -0.85z"/>
  <path d="M13.50 19.60 c0 -1.05 0.20 -1.60 0.40 -1.35 0.20 0.30 0.80 0.85 1.35 1.25 0.95 0.70 0.95 0.70 0.30 -0.15 -0.80 -1 -0.45 -1.60 0.70 -1.20 0.40 0.20 0.75 0.90 0.75 1.75 0 1.25 -0.15 1.40 -1.75 1.45 -1.70 0.05 -1.75 0 -1.75 -1.75z"/>
  <path d="M19.70 13.35 c-0.20 -0.60 -0.05 -1.25 0.45 -1.75 1.20 -1.15 1.55 -0.45 0.70 1.25 -0.70 1.25 -0.80 1.30 -1.15 0.50z"/>
  <path d="M18.50 12.40 c0 -0.75 -0.30 -1.40 -0.60 -1.55 -0.85 -0.25 1.55 -2.30 2.75 -2.35 1.25 0 1.05 1.45 -0.30 1.75 -0.80 0.20 -1.15 0.70 -1.25 1.60 -0.15 1.75 -0.60 2.15 -0.60 0.55z"/>
  <path d="M12 10.20 c0 -0.65 2.55 -4.30 2.80 -4.05 0.15 0.15 -0.35 1.10 -1.05 2.15 -1.55 2.30 -1.75 2.50 -1.75 1.90z"/>
  <path d="M26.50 9.55 c0 -0.25 -0.30 -0.45 -0.60 -0.40 -1.70 0.05 -2.40 -0.20 -2.40 -0.90 0 -0.50 0.55 -0.75 1.75 -0.75 1.55 0 1.75 0.15 1.75 1.25 0 0.70 -0.10 1.25 -0.25 1.25 -0.15 0 -0.25 -0.20 -0.25 -0.45z"/>
 </g>
 <g fill="#7a8170">
  <path d="M21.70 16.15 c0.15 -0.20 0.05 -0.60 -0.25 -1 -0.45 -0.50 -0.30 -0.65 0.80 -0.65 0.95 0 1.30 0.20 1.15 0.85 -0.10 0.45 -0.55 0.85 -1.05 0.95 -0.55 0.05 -0.80 0 -0.65 -0.15z"/>
  <path d="M24 14.75 c0 -0.40 0.45 -0.75 1 -0.75 0.55 0 1 0.10 1 0.25 0 0.10 -0.45 0.45 -1 0.75 -0.80 0.45 -1 0.40 -1 -0.25z"/>
  <path d="M18.55 10.95 c-0.05 -1.65 1.95 -3.60 3.50 -3.35 1.45 0.20 1.90 1.40 0.45 1.40 -0.60 0 -0.90 0.25 -0.75 0.50 0.15 0.30 -0.05 0.55 -0.45 0.55 -0.45 0.05 -1.05 0.10 -1.35 0.15 -0.35 0 -0.75 0.50 -1 1.05 -0.35 0.90 -0.40 0.85 -0.40 -0.30z"/>
  <path d="M20.25 11.50 c0.15 -0.25 1.05 -0.50 1.90 -0.45 1.35 0 1.45 0.10 0.60 0.45 -1.40 0.60 -2.85 0.60 -2.50 0z"/>
  <path d="M27.35 10.55 c-0.70 -0.85 -1.40 -1.35 -1.55 -1.20 -0.15 0.20 -0.30 0.05 -0.30 -0.25 0 -0.35 0.80 -0.60 2 -0.60 1.95 0 2 0.05 2 1.75 0 2.15 -0.55 2.20 -2.15 0.30z"/>
 </g>
 <g fill="#c64363">
  <path d="M14.10 36.50 c-0.55 -2.20 -0.40 -2.50 1.15 -2.50 0.80 0 1.05 0.35 1.15 1.50 0.05 0.85 -0.15 1.50 -0.45 1.50 -0.30 0 -0.45 0.35 -0.25 0.75 0.15 0.45 0 0.75 -0.40 0.75 -0.40 0 -0.90 -0.90 -1.20 -2z"/>
  <path d="M5 34.25 c0 -0.85 5.35 -3.40 6.30 -3.05 0.40 0.15 0.70 0.05 0.70 -0.20 0 -0.60 3.45 -2.10 4.05 -1.70 0.25 0.15 0.05 0.80 -0.40 1.50 -0.80 1.30 -0.80 1.30 0.65 1.20 0.80 -0.05 2.35 -0.05 3.45 0.05 1.50 0.10 1.15 0.20 -1.50 0.45 -3 0.30 -3.60 0.20 -4.30 -0.55 -0.80 -0.90 -0.85 -0.90 -1.25 -0.05 -0.20 0.45 -0.35 1 -0.30 1.15 0.10 0.50 -4.60 1.95 -6.10 1.95 -0.80 0 -1.30 -0.30 -1.30 -0.75z"/>
  <path d="M1.10 32.70 c0.10 -0.90 0.50 -1.50 1.05 -1.60 0.85 -0.15 0.85 -0.05 0.30 1 -0.35 0.60 -0.55 1.25 -0.50 1.40 0.05 0.10 -0.15 0.30 -0.45 0.40 -0.35 0.15 -0.50 -0.30 -0.40 -1.20z"/>
  <path d="M5 30.90 c0 -0.90 0.50 -1.40 2.10 -2.15 1.15 -0.55 2.20 -1.35 2.35 -1.75 0.15 -0.65 0.05 -0.65 -0.75 0.05 -1.25 1.10 -3.95 1.95 -6 1.95 -1.85 0 -2.15 -0.50 -0.95 -1.50 0.55 -0.45 0.65 -0.80 0.25 -1.20 -0.65 -0.65 -0.65 -1.30 0.05 -1.30 0.30 0 1.25 -0.55 2.15 -1.25 l1.60 -1.25 1.70 1.15 1.65 1.15 1.85 -2 c1.40 -1.55 1.95 -2.65 2.25 -4.55 0.20 -1.35 0.75 -3 1.30 -3.65 0.50 -0.70 0.95 -1.50 0.95 -1.85 0 -0.30 1.65 -2.05 3.70 -3.80 2.05 -1.75 3.75 -3.60 3.75 -4.05 0.10 -1.80 8.50 -3.30 11 -1.95 1.30 0.70 1.30 1.45 0.20 3.05 -0.50 0.70 -0.80 1.60 -0.75 2.05 0.15 0.95 -3.05 3.95 -4.20 3.95 -0.45 0 -0.90 -0.45 -1.05 -1 -0.15 -0.55 -0.60 -1 -0.95 -1 -0.40 0 -0.70 -0.20 -0.70 -0.40 0 -0.20 -0.95 -0.45 -2.10 -0.55 -1.15 -0.05 -2.25 -0.20 -2.45 -0.30 -0.70 -0.50 -2.95 1.85 -3 3.15 -0.10 1.20 -0.10 1.20 -0.30 0.25 -0.35 -1.75 -1.30 -1.35 -2.55 1 -1.75 3.30 -2.20 5.35 -1.35 6.15 0.35 0.40 0.85 0.70 1.05 0.70 0.25 0 0.15 -0.25 -0.20 -0.60 -0.60 -0.60 -0.85 -2.40 -0.35 -2.40 0.55 0 2.70 2.60 3.05 3.60 0.15 0.55 0.05 1.20 -0.25 1.40 -0.35 0.15 -0.45 0.65 -0.30 1.10 0.15 0.40 -0.15 1.30 -0.70 1.95 l-1 1.20 -0.05 -2.60 c0 -1.45 -0.20 -2.65 -0.45 -2.65 -0.40 0 -0.35 1.60 0.15 5.30 0.05 0.60 -0.15 1.05 -0.55 1.05 -0.45 0 -0.65 -0.75 -0.65 -2.30 l0 -2.30 -1.60 1.65 c-1.45 1.40 -1.55 1.75 -1 2.60 0.30 0.55 0.60 1.35 0.60 1.75 0 0.90 -1.55 1 -2.50 0.15 -0.60 -0.55 -0.60 -0.50 -0.10 0.15 0.50 0.70 0.30 0.95 -1.75 1.75 -1.35 0.55 -2.55 1.05 -2.75 1.10 -0.25 0.10 -0.40 -0.35 -0.40 -1z m25.75 -25.40 c1.40 -0.55 1.45 -0.60 0.45 -1 -1.10 -0.45 -5.20 0.35 -5.20 1 0 1.20 1.70 1.20 4.75 0z"/>
  <path d="M24.10 30.55 c-0.55 -0.35 -0.45 -0.65 0.50 -1.55 l1.15 -1.10 -1.60 0.80 c-2.20 1.10 -3.30 1 -3.95 -0.40 -0.45 -0.90 -0.45 -1.50 0 -2.35 0.85 -1.70 1.65 -1.65 2 0.05 l0.30 1.55 1.10 -1 c0.60 -0.60 1.25 -1.05 1.45 -1.05 0.20 0 0.45 -0.50 0.55 -1.10 0.20 -1.60 1.60 -1.70 2.40 -0.15 0.60 1.15 0.55 1.35 -0.80 2.55 -1.05 0.95 -1.15 1.15 -0.35 0.75 2.15 -1.10 1.85 1.80 -0.35 2.95 -1.15 0.60 -1.55 0.60 -2.40 0.05z"/>
  <path d="M38.85 29.15 c-0.60 -0.55 -0.40 -1.15 0.40 -1.15 0.40 0 0.75 0.35 0.75 0.75 0 0.80 -0.60 1 -1.15 0.40z"/>
  <path d="M7.60 22.30 c-1 -0.50 -1.05 -0.70 -0.45 -1.20 0.35 -0.35 0.90 -0.40 1.10 -0.20 0.25 0.20 0.25 0.05 0.05 -0.30 -0.25 -0.40 0.15 -1.45 0.90 -2.65 0.95 -1.45 1.65 -1.95 2.60 -1.95 1.10 0 1.25 0.15 1 1.15 -0.15 0.60 -0.30 1.50 -0.30 1.95 0 1 -2.35 3.90 -3.15 3.90 -0.35 -0.05 -1.10 -0.30 -1.75 -0.70z"/>
  <path d="M24.25 21.80 c0.85 -0.35 2.50 -0.75 3.75 -0.95 l2.25 -0.25 -2.75 0.90 c-3.25 1.10 -5.60 1.35 -3.25 0.30z"/>
  <path d="M23.60 20 c0.65 -1.05 3.40 -1.45 3.40 -0.50 0 0.55 -2.10 1.50 -3.30 1.50 -0.60 0 -0.60 -0.15 -0.10 -1z"/>
  <path d="M19.70 13.30 c-0.20 -0.55 0 -1.20 0.50 -1.70 0.80 -0.80 0.85 -0.75 0.50 0.65 -0.45 1.90 -0.60 2.10 -1 1.05z"/>
  <path d="M34.40 8.25 c-0.50 -1.10 -0.40 -1.40 0.55 -2.45 1.30 -1.40 2.45 -1.25 4.10 0.50 1.60 1.70 0.80 2.90 -1.95 3.10 -1.85 0.15 -2.15 0 -2.70 -1.15z"/>
 </g>
 <g fill="#c65974">
  <path d="M14.60 38.40 c-0.25 -0.35 -0.60 -1.45 -0.70 -2.40 -0.15 -1.50 0 -1.75 1 -1.90 1.10 -0.15 1.15 -0.05 1 2.10 -0.25 2.60 -0.55 3.10 -1.30 2.20z"/>
  <path d="M10.25 33.50 c0.15 -0.25 0.65 -0.50 1.05 -0.50 0.40 0 0.60 0.25 0.45 0.50 -0.15 0.30 -0.65 0.50 -1.05 0.50 -0.40 0 -0.60 -0.20 -0.45 -0.50z"/>
  <path d="M13.50 31.45 c0 -0.25 -0.20 -0.40 -0.45 -0.20 -0.25 0.15 -0.60 0.05 -0.80 -0.25 -0.20 -0.35 2.65 -2 3.55 -2 0.55 0 0.10 1.45 -0.70 2.15 -1.05 1 -1.60 1.10 -1.60 0.30z"/>
  <path d="M24.75 30 c-0.90 -0.30 -0.85 -0.45 0.75 -1.45 0.95 -0.55 1.90 -1.05 2.10 -1.05 0.80 0 0.80 0.90 0 1.60 -1.35 1.15 -1.80 1.30 -2.85 0.90z"/>
  <path d="M10.35 28.60 c-0.95 -1.05 -1.10 -2.70 -0.35 -4.15 0.80 -1.40 1.50 -1.15 1.50 0.55 0 1.60 0.45 1.85 1.40 0.90 0.75 -0.75 0.80 -2.40 0.10 -2.40 -0.25 0 -0.50 -0.45 -0.50 -1.05 0 -0.80 0.25 -1 1.40 -0.85 1.25 0.15 1.35 0.35 1.60 3 0.15 1.55 0.15 2.75 0.05 2.65 -0.10 -0.15 -0.85 0.35 -1.65 1 -1.75 1.50 -2.45 1.55 -3.55 0.35z"/>
  <path d="M21 28.75 c0 -0.40 -0.20 -0.75 -0.40 -0.75 -0.20 0 -0.35 -0.60 -0.35 -1.35 0.05 -1.55 2.05 -2.80 5.25 -3.35 1.75 -0.30 1.80 -0.25 1.90 1.40 0.10 1.50 -0.10 1.85 -2.30 3.25 -2.65 1.70 -4.10 1.95 -4.10 0.80z"/>
  <path d="M16 24.05 c0 -1.15 0.20 -1.45 0.80 -1.20 0.85 0.30 0.75 2.20 -0.15 2.55 -0.45 0.10 -0.65 -0.35 -0.65 -1.35z"/>
  <path d="M24.50 21.75 c0.95 -0.35 2.30 -0.65 3 -0.65 0.95 0 0.80 0.15 -0.75 0.65 -2.70 0.90 -4.55 0.90 -2.25 0z"/>
  <path d="M16 21.55 c0 -0.25 -0.50 -0.55 -1.10 -0.65 -0.95 -0.10 -1.20 -0.50 -1.30 -2.25 -0.10 -1.60 0.20 -2.70 1.45 -4.90 0.85 -1.55 1.70 -2.70 1.80 -2.55 0.15 0.15 -0.20 1.05 -0.75 2 -1.70 2.85 -2.20 5.30 -1.30 6.15 0.40 0.45 0.90 0.60 1.10 0.45 0.15 -0.20 0 -0.55 -0.40 -0.80 -0.40 -0.25 -0.55 -0.60 -0.40 -0.75 0.45 -0.50 2.20 1.30 2.60 2.65 0.30 0.90 0.15 1.10 -0.65 1.10 -0.60 0 -1.05 -0.20 -1.05 -0.45z"/>
  <path d="M23.50 20.55 c0 -0.65 1.20 -1.55 2.10 -1.55 1.40 0 1.05 0.70 -0.60 1.35 -0.80 0.30 -1.50 0.40 -1.50 0.20z"/>
  <path d="M28 10.75 c0 -0.40 -0.25 -0.75 -0.55 -0.75 -0.25 0 -0.40 -0.20 -0.20 -0.45 0.35 -0.60 5.65 -1.80 6.05 -1.40 0.15 0.15 -0.45 0.95 -1.40 1.80 -1.75 1.65 -3.90 2.05 -3.90 0.80z"/>
  <path d="M12.50 9.75 c0 -0.25 0.45 -1.15 1 -2 1.30 -1.95 1.30 -1.25 0 0.85 -0.55 0.90 -1 1.45 -1 1.15z"/>
  <path d="M19.80 8.75 c1.45 -2.25 2.65 -2.55 4.15 -1.05 l1.30 1.30 -2.35 0 c-1.30 0 -2.50 0.25 -2.65 0.50 -0.15 0.30 -0.55 0.50 -0.80 0.50 -0.25 0 -0.10 -0.55 0.35 -1.25z"/>
  <path d="M34.30 8.20 c-0.40 -1.10 0.95 -3.20 2.15 -3.20 1.20 0 2.70 1.70 2.45 2.85 -0.25 1.30 -4.15 1.60 -4.60 0.35z"/>
  <path d="M24.35 7.10 c-1.75 -1.85 -1.70 -2.30 0.40 -3.30 2.70 -1.30 6.20 -1.55 8.40 -0.60 1.60 0.65 1.85 0.90 1.40 1.70 -0.75 1.45 -1.55 1.95 -4.50 2.80 -3.65 1.10 -4.15 1.05 -5.70 -0.60z"/>
 </g>
 <g fill="#93749f">
  <path d="M21 14.75 c-1.40 -1.45 -1.60 -1.95 -1.20 -2.65 1.25 -2 6.45 -0.75 6.10 1.45 -0.10 0.55 -0.85 1.45 -1.70 1.95 l-1.50 1 -1.70 -1.75z"/>
 </g>
 <g fill="#d36882">
  <path d="M14.30 37.70 c-0.45 -1.15 -0.35 -3.20 0.10 -3.20 0.20 0 0.45 0.90 0.50 2 0.15 2.10 -0.10 2.55 -0.60 1.20z"/>
  <path d="M10.50 28.55 c-0.25 -0.55 -0.50 -1.75 -0.50 -2.65 0 -2.20 2.35 -4.65 3.95 -4.15 0.90 0.25 1.05 0.70 1.05 2.75 0 2.20 -0.20 2.60 -1.65 3.70 -2.05 1.55 -2.15 1.55 -2.85 0.35z"/>
  <path d="M22.50 28.05 c0 -0.55 -0.20 -1.05 -0.45 -1.15 -0.25 -0.05 -0.35 -0.75 -0.20 -1.50 0.25 -1.30 0.45 -1.40 2.70 -1.40 2.25 0 2.45 0.10 2.45 1.25 0 0.85 -0.55 1.60 -1.85 2.50 -2.25 1.50 -2.65 1.55 -2.65 0.30z"/>
  <path d="M25.75 21.50 c1.40 -0.60 1.85 -0.60 1.50 0 -0.15 0.30 -0.80 0.50 -1.40 0.45 -1.05 0 -1.05 -0.05 -0.10 -0.45z"/>
  <path d="M13.70 19.30 c-0.30 -1.25 0.55 -4.60 1.30 -5.05 0.20 -0.10 0.05 0.70 -0.35 1.90 -0.55 1.55 -0.60 2.35 -0.20 2.95 0.70 1.10 0.70 1.40 0.05 1.40 -0.25 0 -0.60 -0.55 -0.80 -1.20z"/>
  <path d="M20 8.95 c0 -0.15 0.55 -0.80 1.25 -1.45 1.20 -1.15 1.25 -1.15 2.25 -0.25 1.45 1.30 1.25 1.65 -1.25 1.85 -1.25 0.10 -2.25 0.05 -2.25 -0.15z"/>
  <path d="M25.40 7.95 c-1.20 -0.70 -2.20 -2.55 -1.20 -2.15 0.40 0.15 1.25 -0.05 1.90 -0.50 0.60 -0.45 1.30 -0.80 1.50 -0.80 0.65 0 0.45 2.15 -0.30 3.15 -0.75 1 -0.75 1 -1.90 0.30z"/>
 </g>
 <g fill="#b67ab7">
  <path d="M21.25 14.70 c-0.85 -0.90 -1.50 -1.90 -1.50 -2.30 0 -1.15 2.35 -1.55 4.40 -0.70 2.35 1 2.45 2.35 0.20 3.65 l-1.60 1 -1.50 -1.65z"/>
 </g>
 <g fill="#d381cf">
  <path d="M21.40 14.75 c-1.75 -2.05 -1.80 -3.25 -0.20 -3.25 1.80 0 2.80 0.50 2.80 1.45 0 0.70 0.10 0.70 0.50 0.05 0.35 -0.60 0.60 -0.60 1.10 -0.10 0.50 0.50 0.45 0.75 -0.20 1.40 -0.75 0.75 -0.90 0.70 -2.20 -0.45 -0.75 -0.75 -1.50 -1.20 -1.65 -1.05 -0.15 0.15 0.35 0.75 1.15 1.35 1.15 0.90 1.25 1.25 0.75 1.65 -0.55 0.40 -1.05 0.15 -2.05 -1.05z"/>
 </g>
 <g fill="#adb3cc">
  <path d="M22.60 13.40 c-0.90 -0.90 -0.75 -1.40 0.40 -1.40 0.65 0 1 0.35 1 1 0 1.15 -0.50 1.30 -1.40 0.40z"/>
 </g>
</svg>