<?xml version="1.0" encoding="utf-8"?>
<!DOCTYPE svg PUBLIC "-//W3C//DTD SVG 1.0//EN" "http://www.w3.org/TR/2001/REC-SVG-20010904/DTD/svg10.dtd">
<svg version="1.0" xmlns="http://www.w3.org/2000/svg" width="40px" height="40px" viewBox="0 0 40 40" preserveAspectRatio="xMidYMid meet">
 <g fill="#100b0b">
  <path d="M16.50 28.75 l0 -2.25 3.25 0 3.25 0 0 1.95 c0 1.90 0 1.90 -2.30 2.25 -4.20 0.55 -4.20 0.55 -4.20 -1.95z"/>
 </g>
 <g fill="#3a2523">
  <path d="M28.40 35.65 c-0.50 -0.10 -0.90 -0.60 -0.90 -1 0 -0.70 0.15 -0.70 1 0.10 0.85 0.75 1.30 1.40 0.90 1.20 -0.10 -0.05 -0.55 -0.15 -1 -0.30z"/>
  <path d="M11.40 35.20 c0.30 -0.15 0.60 -0.55 0.60 -0.85 0 -0.30 0.60 -1.20 1.35 -1.95 1 -1.05 1.15 -1.40 0.55 -1.40 -0.65 0 -1.40 -0.95 -1.40 -1.80 0 -0.50 2.45 -0.15 2.65 0.45 0.15 0.35 0.30 0.25 0.30 -0.30 0.05 -0.90 0.90 -2.65 1.90 -3.70 0.65 -0.75 4.15 -0.90 4.15 -0.20 0 0.25 0.45 0.55 1 0.70 0.75 0.20 1 0.70 1 1.80 0 1.40 0.15 1.55 1.60 1.55 l1.55 0 -1.15 1.25 c-0.65 0.70 -0.90 1.25 -0.60 1.25 0.35 0 0.60 0.25 0.60 0.50 0 0.30 -0.35 0.50 -0.75 0.50 -0.40 0 -0.75 0.40 -0.75 0.90 0 0.85 -0.50 0.95 -3.60 0.70 -0.50 -0.05 -0.90 -0.45 -0.90 -0.85 0 -0.50 0.55 -0.75 1.75 -0.75 1.55 0 1.75 -0.15 1.75 -1.30 0 -1.20 -0.10 -1.30 -1.60 -1 -0.90 0.20 -2.50 0.50 -3.50 0.65 -2 0.25 -2.70 1.65 -0.90 1.65 0.65 0 1 0.35 1 0.90 0 0.75 -0.40 0.95 -2.10 1 -1.20 0.05 -2.80 0.20 -3.65 0.35 -0.80 0.15 -1.20 0.10 -0.85 -0.05z m10.10 -6.75 c0 -0.25 -0.80 -0.45 -1.75 -0.45 -1.10 0 -1.75 0.25 -1.75 0.65 0 0.45 0.55 0.60 1.75 0.45 0.95 -0.10 1.75 -0.40 1.75 -0.65z"/>
  <path d="M11.85 26 c-0.35 -1.40 0.15 -3 0.95 -3 0.50 0 0.70 0.65 0.70 2 0 2.15 -1.15 2.85 -1.65 1z"/>
  <path d="M25 22.70 c0 -0.40 -0.35 -1.10 -0.75 -1.50 -0.40 -0.45 -0.90 -1.35 -1.10 -2.10 -0.15 -0.75 -0.60 -1.65 -1 -2 -0.95 -0.95 -0.85 -4.10 0.10 -4.10 0.40 0 0.75 0.25 0.75 0.55 0 0.30 0.90 2.35 2 4.55 2.25 4.60 2.40 5.40 1 5.40 -0.60 0 -1 -0.35 -1 -0.80z"/>
  <path d="M12.60 21.15 c1.75 -3.70 2.40 -4.05 2.40 -1.40 0 1.55 -0.15 1.75 -1.30 1.75 -0.70 0 -1.20 -0.15 -1.10 -0.35z"/>
  <path d="M15.50 12.30 c0 -0.05 -0.20 -0.80 -0.50 -1.75 l-0.45 -1.70 1.15 1.10 1.15 1.05 0.55 -1.25 c0.95 -2 0.75 -3.25 -0.45 -3.25 -1.70 0 -2.95 -0.95 -2.95 -2.25 0 -0.90 0.20 -1.15 0.75 -0.90 0.45 0.15 1.10 -0.10 1.45 -0.65 0.65 -0.85 0.70 -0.85 1 0.15 0.30 0.90 0.75 1.10 2.30 1.05 1.35 0 2 -0.25 2 -0.70 0 -0.85 1.20 -0.90 2.55 -0.20 1.20 0.65 1.25 1.95 0.10 2.30 -3.05 1 -3.85 2.35 -2.85 4.95 0.30 0.70 0.45 0.70 1.50 0 1.10 -0.70 1.20 -0.70 1.20 0.10 0 1.70 -0.70 2 -4.60 2 -2.15 0 -3.90 -0.05 -3.90 -0.05z"/>
 </g>
 <g fill="#51312f">
  <path d="M26.95 35.30 c-0.20 -0.20 -4 -0.65 -6.30 -0.75 -0.35 -0.05 -0.65 -0.40 -0.65 -0.80 0 -0.50 0.55 -0.75 1.75 -0.75 1.40 0 1.75 -0.20 1.75 -1 0 -1.55 0.15 -1.45 3.75 1.70 1.70 1.50 1.85 1.80 0.95 1.80 -0.55 0 -1.15 -0.10 -1.25 -0.20z"/>
  <path d="M12.20 34.20 c0.05 -0.45 0.60 -1.25 1.25 -1.75 l1.05 -0.90 -1.25 -1.25 c-1.55 -1.55 -1.70 -3.30 -0.25 -3.30 0.65 0 1.10 0.45 1.30 1.25 0.25 1.05 0.40 1.10 1 0.50 0.40 -0.35 0.70 -0.90 0.70 -1.20 0 -0.30 0.35 -0.55 0.75 -0.55 0.45 0 0.75 -0.45 0.75 -1.25 0 -1.10 0.20 -1.25 1.75 -1.25 1.40 0 1.75 -0.20 1.75 -1 0 -0.80 0.35 -1 1.70 -1 1.40 0 1.75 0.20 2 1.25 0.20 0.80 0.65 1.25 1.35 1.25 0.90 0 1 0.25 0.85 2.25 -0.25 2.45 -1.90 5 -1.90 2.85 0 -0.60 -0.30 -1.10 -0.70 -1.10 -0.40 0 -0.80 -0.25 -0.90 -0.50 -0.10 -0.30 -1.30 -0.65 -2.65 -0.80 -2.35 -0.25 -2.55 -0.20 -3.10 1.05 -0.55 1.20 -0.50 1.30 0.25 1 2.20 -0.95 3.10 -0.90 3.10 0.15 0 0.75 -0.50 1.20 -1.75 1.65 -1.95 0.70 -2.30 1.45 -0.75 1.45 0.55 0 1 0.35 1 0.75 0 0.40 -0.05 0.75 -0.10 0.75 -0.10 0.05 -1.75 0.15 -3.75 0.30 -3.20 0.25 -3.55 0.20 -3.45 -0.60z"/>
  <path d="M12.10 22.90 c0.10 -1.10 0.45 -1.70 1.05 -1.80 0.70 -0.15 0.85 0.20 0.85 1.60 0 1.50 -0.20 1.80 -1.05 1.80 -0.85 0 -1 -0.25 -0.85 -1.60z"/>
  <path d="M13.85 18.65 c0.65 -1.65 2.25 -4.15 2.70 -4.15 0.25 0 0.45 0.80 0.45 1.75 0 0.95 -0.20 1.75 -0.50 1.75 -0.25 0 -0.50 0.35 -0.50 0.75 0 0.45 -0.45 0.75 -1.25 0.75 -0.95 0 -1.15 -0.20 -0.90 -0.85z"/>
  <path d="M15.80 12.40 c-0.45 -0.60 -0.80 -1.60 -0.80 -2.15 0.05 -1 0.05 -1 0.75 -0.05 0.90 1.15 1.15 0.95 2 -1.55 0.75 -2.10 0.60 -2.75 -0.50 -2.30 -0.50 0.15 -0.75 -0.10 -0.75 -0.80 0 -0.85 0.30 -1.05 1.75 -1.05 1.60 0 1.75 0.15 1.75 1.45 0 0.80 0.20 1.55 0.40 1.65 0.25 0.10 0.60 1.10 0.80 2.30 0.25 1.70 0.15 2.10 -0.45 2.10 -0.40 0 -0.75 0.35 -0.75 0.75 0 1.25 -3.30 0.95 -4.20 -0.35z"/>
  <path d="M22.50 4.65 c0 -0.65 0.40 -0.95 1.30 -1.05 0.95 -0.05 1.25 0.10 1.10 0.80 -0.25 1.20 -2.40 1.45 -2.40 0.25z"/>
  <path d="M15.85 3 c0.50 -0.55 0.90 -1 0.95 -1 0.05 0 0.20 0.45 0.35 1 0.20 0.80 0 1 -0.95 1 -1.15 0 -1.15 -0.05 -0.35 -1z"/>
 </g>
 <g fill="#6a3936">
  <path d="M13.60 33.50 c0.05 -1.15 0.35 -1.60 1.25 -1.80 0.85 -0.25 1.15 -0.65 1.15 -1.75 0 -0.95 0.25 -1.45 0.75 -1.45 0.90 0 0.95 0.55 0.15 1.45 -0.55 0.55 -0.50 0.60 0.10 0.40 0.40 -0.15 1.65 -0.55 2.75 -0.90 2.55 -0.80 2.45 -0.65 1.50 -2.10 -0.55 -0.85 -0.75 -2.05 -0.65 -3.70 0.15 -2.40 0.15 -2.40 2.05 -2.55 1.40 -0.10 1.85 0 1.85 0.60 0 0.50 0.45 0.80 1.25 0.80 1.15 0 1.25 0.15 1.25 2.50 0 1.80 -0.20 2.60 -0.75 2.80 -0.50 0.20 -0.65 0.70 -0.45 1.45 0.20 0.80 0 1.30 -0.65 1.70 -0.85 0.50 -0.85 0.60 0 1.25 1.60 1.25 0.90 1.70 -3 2 -2.15 0.20 -4.95 0.45 -6.25 0.55 -2.35 0.30 -2.35 0.25 -2.30 -1.25z m8.40 -1.50 c0 -0.25 -0.35 -0.50 -0.75 -0.50 -0.40 0 -0.75 0.25 -0.75 0.50 0 0.30 0.35 0.50 0.75 0.50 0.40 0 0.75 -0.20 0.75 -0.50z"/>
  <path d="M19.15 20.15 c-1.50 -0.20 -1.65 -0.35 -1.65 -1.95 0 -1.60 0.10 -1.70 1.75 -1.70 0.95 0 1.75 -0.25 1.75 -0.50 0 -0.30 -1 -0.40 -2.65 -0.20 l-2.65 0.30 0.10 -2.40 c0.05 -1.45 0.25 -2.40 0.60 -2.35 0.75 0.20 2.40 -5 1.65 -5.25 -0.30 -0.10 -0.55 -0.65 -0.55 -1.20 0 -0.85 0.25 -1 2 -0.80 1.65 0.15 2 0 2 -0.70 0 -0.50 0.30 -0.90 0.70 -0.90 1.40 0 2.30 0.60 2.30 1.55 0 0.70 -0.35 0.95 -1.50 0.95 -1 0 -1.50 0.25 -1.50 0.75 0 0.40 -0.15 0.75 -0.40 0.75 -0.55 0 -0.10 3.95 0.50 4.30 0.25 0.15 0.90 -0.10 1.45 -0.60 0.90 -0.80 0.95 -0.80 0.95 0.20 0 0.60 -0.45 1.55 -1 2.10 -1.05 1.05 -1.30 2 -0.50 2 0.75 0 2 2.80 2 4.50 0 1.40 -0.10 1.50 -1.85 1.40 -1.05 0 -2.65 -0.15 -3.50 -0.25z"/>
 </g>
 <g fill="#5e413f">
  <path d="M11.65 35 c0.45 -0.30 0.75 -0.75 0.60 -1 -0.15 -0.25 0.45 -1 1.35 -1.70 1.20 -0.90 1.40 -1.30 0.80 -1.30 -0.50 0 -1.10 -0.45 -1.40 -1 -0.50 -0.90 -0.40 -1 1.25 -1 1.55 0 1.75 -0.15 1.75 -1.25 0 -0.70 0.25 -1.25 0.50 -1.25 0.30 0 0.50 -0.35 0.50 -0.75 0 -0.40 0.20 -0.75 0.45 -0.75 0.25 0 0.55 -0.50 0.65 -1.10 0.10 -0.90 0.50 -1.20 1.95 -1.30 1.75 -0.15 1.80 -0.10 2.15 1.80 0.50 3.15 1.35 4.35 2.95 4.20 0.90 -0.10 1.35 0.05 1.35 0.55 0 0.95 -1.20 1.90 -2.05 1.70 -0.40 -0.10 -0.55 -0.10 -0.30 0 0.20 0.15 0.35 0.45 0.35 0.70 0 0.30 -0.30 0.35 -0.60 0.15 -0.35 -0.20 -0.50 -0.15 -0.25 0.05 0.20 0.25 0.80 0.50 1.30 0.60 0.55 0.05 1.70 0.85 2.65 1.70 1.55 1.50 1.60 1.55 0.40 1.25 -0.70 -0.15 -1.40 -0.30 -1.60 -0.30 -0.25 0 -0.40 -0.35 -0.40 -0.75 0 -0.50 -0.55 -0.75 -1.75 -0.75 -1.55 0 -1.75 -0.15 -1.75 -1.25 0 -1 -0.25 -1.25 -1.25 -1.25 -0.90 0 -1.25 -0.25 -1.25 -1 0 -0.70 0.35 -1 1.05 -1 1.75 0 0.75 -1.25 -1.10 -1.40 -1.45 -0.10 -1.85 0.10 -2.55 1.40 -0.70 1.25 -0.75 1.50 -0.15 1.50 0.85 0 0.95 0.90 0.30 2.65 -0.50 1.25 -0.90 1.40 -5.15 2.10 -1.35 0.25 -1.50 0.20 -0.75 -0.25z"/>
  <path d="M12.10 23.40 c0.20 -3.40 1.90 -3.95 1.90 -0.65 0 1.90 -0.15 2.25 -1 2.25 -0.85 0 -1 -0.30 -0.90 -1.60z"/>
  <path d="M25 22.25 c0 -1.95 0.70 -2.30 1.50 -0.80 0.80 1.55 0.60 2.55 -0.50 2.55 -0.80 0 -1 -0.35 -1 -1.75z"/>
  <path d="M15.60 12.35 c-0.90 -2.50 -0.75 -3.30 0.35 -1.90 l0.95 1.25 0.65 -2.10 c0.35 -1.15 0.80 -2.10 1.05 -2.10 0.20 0 0.40 -0.35 0.40 -0.80 0 -0.60 -0.30 -0.75 -1.30 -0.50 -0.85 0.25 -1.75 0.05 -2.50 -0.45 -1.45 -0.95 -1.60 -2.25 -0.25 -2.25 0.55 0 1.05 -0.30 1.20 -0.60 0.15 -0.50 0.40 -0.45 0.90 0.20 0.90 1.05 4.45 1.50 4.45 0.55 0 -1 1.25 -1.30 2.45 -0.65 1.20 0.60 1.40 2 0.30 2 -0.40 0 -1.35 0.40 -2.10 0.90 -1.15 0.70 -1.35 1.15 -1.25 2.60 0.25 2.65 1 3.25 2.20 1.70 1.35 -1.65 1.65 -1.25 0.70 1 -0.60 1.40 -1.05 1.80 -2 1.80 -0.75 0 -1.30 -0.25 -1.30 -0.55 0 -0.25 -0.25 -0.35 -0.55 -0.15 -0.45 0.25 -0.50 -0.15 -0.25 -1.45 0.40 -2.05 -0.50 -3.05 -1 -1.10 -0.15 0.70 -0.50 1.25 -0.70 1.25 -0.20 0 -0.50 0.70 -0.65 1.50 -0.40 1.95 -1 1.90 -1.75 -0.15z"/>
 </g>
 <g fill="#9b2322">
  <path d="M14.50 34.05 c0 -0.25 0.35 -0.55 0.75 -0.75 0.40 -0.15 0.75 -0.50 0.75 -0.85 0 -0.30 -0.30 -0.45 -0.70 -0.30 -0.50 0.20 -0.60 0 -0.45 -0.70 0.15 -0.55 0.55 -0.90 0.90 -0.75 0.35 0.10 1.45 -0.20 2.45 -0.75 2.10 -1.10 3.10 -1.20 3.45 -0.30 0.15 0.35 0.30 0.25 0.30 -0.25 0.05 -1.40 1.55 -1.05 1.60 0.35 0.15 2.30 0.20 2.50 0.95 2.50 0.40 0 0.80 0.50 0.90 1.15 0.15 1 -0.05 1.10 -1.85 1.10 -1.70 0 -2.05 -0.15 -2.05 -1 0 -0.80 -0.35 -1 -1.50 -1 -0.95 0 -1.50 0.25 -1.50 0.70 0 0.70 -1.45 1.30 -3.10 1.30 -0.50 0 -0.90 -0.20 -0.90 -0.45z"/>
 </g>
 <g fill="#6f4744">
  <path d="M12.20 34.60 c0.80 -0.55 2.20 -1.15 3.10 -1.35 0.95 -0.15 1.70 -0.50 1.70 -0.75 0 -0.75 -1.35 -0.60 -3.15 0.25 -1.45 0.70 -1.50 0.70 -0.65 0 0.55 -0.40 1.15 -0.75 1.40 -0.75 0.20 0 0.40 -0.35 0.40 -0.80 0 -0.50 -0.30 -0.70 -0.75 -0.50 -1.30 0.50 -2.35 -2.40 -2.15 -5.85 0.25 -3.80 1.05 -5.45 2.55 -5.25 1 0.15 1.10 0.40 1.05 3.90 0 2.05 0.05 3.45 0.20 3.10 0.10 -0.30 0.60 -0.60 1.15 -0.60 0.75 0 0.95 -0.35 0.95 -1.65 0 -0.90 0.20 -1.85 0.45 -2.10 0.25 -0.30 0.60 -1 0.80 -1.60 0.25 -0.95 0.10 -1.15 -0.70 -1.15 -0.80 0 -1.05 -0.30 -1.05 -1.25 0 -1 -0.25 -1.25 -1.20 -1.25 -1.15 0 -1.20 -0.10 -0.70 -1.50 0.30 -0.85 0.40 -2.20 0.25 -2.95 -0.25 -1.25 -0.15 -1.40 0.95 -1.40 1.35 0 1.40 0.05 0.65 1.40 -0.30 0.55 -0.45 1.25 -0.35 1.55 0.15 0.35 0.80 -0.50 1.55 -1.85 1.50 -2.60 1.50 -4.75 0.05 -2.95 -0.70 0.90 -0.75 0.80 -0.45 -1.25 0.25 -1.80 0.15 -2.10 -0.50 -1.85 -0.85 0.30 -3.25 -0.60 -3.25 -1.30 0 -1 0.10 -1.15 0.80 -1 0.40 0.10 0.70 -0.20 0.70 -0.65 0 -1.05 0.30 -0.95 2 0.80 1.35 1.45 1.75 1.50 1.55 0.35 -0.10 -0.60 0.70 -0.45 1.35 0.20 0.45 0.45 0.60 0.30 0.60 -0.75 0 -1.05 0.25 -1.35 1.15 -1.35 0.80 0 0.90 0.15 0.40 0.45 -0.40 0.25 -0.45 0.55 -0.15 0.75 0.30 0.15 0.65 0.10 0.85 -0.20 0.40 -0.65 1.25 -0.15 1.25 0.70 0 0.35 -1 1.05 -2.20 1.50 -2.20 0.85 -2.20 0.85 -1.95 2.95 0.35 2.75 0.95 3.35 1.95 1.95 1.30 -1.85 1.75 -1.20 0.60 0.95 l-1.05 2.05 1.10 1.90 c1.25 2.25 1.30 2.50 0.30 2.50 -0.45 0 -0.75 -0.50 -0.80 -1.10 -0.05 -1.10 -0.05 -1.10 -0.45 0.10 l-0.40 1.25 -0.10 -1.25 c-0.10 -1 -0.20 -0.90 -0.45 0.50 -0.20 1.30 -0.10 1.80 0.40 1.95 1.45 0.35 2.05 1.50 2 3.90 l-0.05 2.40 -0.60 -1.70 c-0.40 -1.15 -0.75 -1.55 -1 -1.15 -0.45 0.80 0.10 3.55 1 4.85 0.65 0.95 0.70 0.90 0.70 -0.40 0 -1.50 0.80 -1.85 1.15 -0.45 0.20 0.80 0.25 0.80 0.30 0 0 -0.50 0.40 -0.90 0.80 -0.90 0.65 0 0.75 0.35 0.45 1.90 -0.40 1.95 -1.50 3.15 -2.55 2.75 -0.40 -0.15 -0.65 -0.10 -0.55 0.15 0.20 0.55 -0.25 0.70 -1.85 0.70 -1 0 -1.25 -0.25 -1.25 -1.25 0 -0.70 0.25 -1.25 0.55 -1.25 0.30 0 0.40 0.45 0.20 1 -0.20 0.55 -0.10 1 0.20 1 0.60 0 0.70 -2.10 0.25 -3.90 -0.50 -1.75 -2.60 -1.30 -3.70 0.75 -0.50 0.90 -1.15 1.95 -1.45 2.35 -0.50 0.60 -0.40 0.65 0.50 0.45 0.95 -0.25 1.05 -0.15 0.85 0.75 -0.20 0.60 -0.10 1.10 0.15 1.10 0.25 0 0.45 0.30 0.45 0.70 0 0.45 -0.95 0.90 -2.60 1.30 -1.45 0.30 -3.20 0.65 -3.90 0.80 -1.20 0.30 -1.20 0.25 0.20 -0.70z"/>
  <path d="M25.25 34.95 c-5.35 -0.85 -5.75 -1 -5.75 -1.80 0 -0.65 0.40 -0.75 2.50 -0.50 1.40 0.15 2.50 0.10 2.50 -0.15 0 -0.75 1.35 -0.05 3.05 1.55 1.65 1.55 1.60 1.55 -2.30 0.90z"/>
 </g>
 <g fill="#7b4e4b">
  <path d="M12 34.75 c0.30 -0.35 1.55 -0.90 2.75 -1.25 2.20 -0.60 2.85 -1.20 1.65 -1.60 -0.30 -0.10 -0.40 -0.50 -0.20 -0.80 0.45 -0.75 1.80 -0.80 1.80 -0.10 0 0.30 0.25 0.50 0.55 0.50 0.30 0 0.45 -0.45 0.30 -0.95 -0.25 -1 0.50 -1.55 1.95 -1.55 0.55 0 0.65 0.30 0.45 1 -0.20 0.55 -0.10 1 0.20 1 0.60 0 0.70 -0.45 0.55 -3 l-0.05 -1.75 1.30 1.50 c1.40 1.65 1.40 1.65 0.25 -2.90 -0.80 -3.05 -1.50 -3.45 -1.50 -0.90 0 1.65 -0.15 1.95 -0.80 1.70 -0.80 -0.30 -0.75 -1.30 0.05 -3.90 0.15 -0.55 -0.15 -0.10 -0.70 0.95 -0.60 1.10 -1.05 2.25 -1.05 2.55 0 0.30 -0.45 1.05 -1 1.65 -0.55 0.60 -1 1.30 -1 1.55 0 0.90 -1.55 2.05 -2.80 2.05 -1.10 0 -1.15 -0.15 -0.70 -1 0.60 -1.10 0.05 -1.35 -0.90 -0.40 -0.45 0.45 -0.60 0.35 -0.60 -0.45 0 -0.55 0.35 -1.30 0.75 -1.65 0.85 -0.70 1 -2 0.25 -2 -0.25 0 -0.50 -0.35 -0.50 -0.75 0 -0.40 0.30 -0.60 0.65 -0.45 0.45 0.15 0.60 -0.20 0.55 -1.15 -0.15 -2 -0.15 -2 -0.95 -0.95 -1.40 1.85 -0.75 -0.20 1.30 -4.25 2.05 -3.95 2.05 -4.10 1.25 -5.45 -1.10 -1.90 -1 -3.05 0.10 -1.60 l0.90 1.15 0.55 -1.20 c0.35 -0.70 0.75 -2.10 0.95 -3.10 0.30 -1.70 0.25 -1.80 -0.60 -1.35 -0.70 0.35 -1.25 0.30 -1.90 -0.20 -0.55 -0.35 -0.90 -0.75 -0.75 -0.85 0.10 -0.05 0.60 -0.40 1.05 -0.75 0.70 -0.55 1 -0.50 1.85 0.35 1.25 1.25 2.05 1.35 2.05 0.25 0 -0.70 0.15 -0.70 0.75 -0.20 0.65 0.55 0.75 0.40 0.75 -0.70 0 -0.80 0.25 -1.30 0.75 -1.30 0.40 0 0.70 0.15 0.70 0.35 -0.15 1 0.10 1.20 0.80 0.65 0.60 -0.50 0.75 -0.45 0.75 0.40 0 0.65 -0.55 1.20 -1.60 1.65 -0.90 0.40 -1.80 0.65 -2 0.60 -0.20 -0.10 -0.20 1 -0.05 2.35 0.25 2.20 0.10 2.70 -1.10 4.25 -0.75 1 -1.20 1.95 -1.05 2.10 0.15 0.20 0.30 0 0.30 -0.40 0 -0.60 0.10 -0.60 0.50 0.05 0.35 0.55 0.55 0.45 0.95 -0.65 0.30 -0.80 0.55 -1.65 0.55 -1.90 0 -0.25 0.35 -0.45 0.75 -0.45 0.40 0 0.75 -0.20 0.75 -0.50 0 -0.25 0.45 -0.70 0.95 -1 0.95 -0.45 0.95 -0.40 0.20 1.50 -0.45 1.05 -1.15 2.05 -1.60 2.15 -0.65 0.20 -0.65 0.25 -0.05 0.30 1.05 0.05 3.05 4.40 3 6.55 -0.10 4.75 0 6.95 0.40 7.15 0.20 0.15 0.30 -0.60 0.20 -1.70 -0.20 -2.15 0.60 -2.70 1.10 -0.70 0.65 2.50 -0.60 5.25 -2.35 5.25 -0.55 0 -0.85 0.15 -0.70 0.35 0.20 0.15 0.10 0.60 -0.25 1 -0.70 0.85 -0.15 1.45 0.75 0.75 0.80 -0.70 2.85 0.55 2.85 1.70 0 0.75 -0.60 0.85 -2.95 0.40 -1.20 -0.25 -1.55 -0.60 -1.55 -1.50 0 -0.75 -0.30 -1.20 -0.75 -1.20 -0.40 0 -0.75 0.45 -0.75 1 0 0.80 -0.35 1 -1.85 1 -1.05 0 -3.20 0.30 -4.80 0.70 -2.20 0.50 -2.75 0.55 -2.35 0.05z m5.50 -10 c0 -0.40 0.25 -0.75 0.50 -0.75 0.30 0 0.50 -0.55 0.50 -1.25 0 -0.80 0.30 -1.25 0.75 -1.25 0.40 0 0.75 -0.45 0.75 -1 0 -0.90 -0.10 -0.95 -1 -0.40 -0.55 0.35 -1 1.15 -1 1.80 0 0.65 -0.35 1.50 -0.75 1.90 -0.85 0.90 -1 1.70 -0.25 1.70 0.30 0 0.50 -0.35 0.50 -0.75z m5.50 -7.35 c0 -1.80 -0.20 -1.75 -0.70 0.25 -0.20 0.80 -0.10 1.35 0.20 1.35 0.25 0 0.50 -0.70 0.50 -1.60z m-4.45 -4.75 c1.05 -2.10 1.65 -4.65 1.10 -4.65 -0.20 0 -2.40 4.90 -2.90 6.50 -0.60 1.90 0.55 0.70 1.80 -1.85z"/>
 </g>
 <g fill="#825a57">
  <path d="M27.95 35.30 c-0.85 -0.85 -10.30 -1.30 -13.95 -0.65 -2.85 0.50 -1.80 -0.40 1.45 -1.25 1.90 -0.50 2.10 -0.65 1.35 -1.15 -0.70 -0.55 -0.75 -0.70 -0.05 -1.25 0.60 -0.50 0.75 -0.50 0.75 0.20 0 0.50 0.45 0.80 1.20 0.80 0.65 0 1.60 0.15 2.10 0.35 0.60 0.20 0.75 0.10 0.60 -0.40 -0.10 -0.40 -0.75 -0.75 -1.35 -0.85 -1.45 -0.25 -1.20 -1.80 0.40 -2 0.95 -0.15 1.10 0 0.80 0.90 -0.30 0.90 -0.20 1 0.90 0.75 1.25 -0.35 2.30 0.45 1.35 1 -0.75 0.45 -0.60 1.25 0.25 1.25 0.40 0 0.75 -0.25 0.75 -0.50 0 -0.35 0.30 -0.35 0.90 0 1.55 0.90 3.85 3 3.30 3 -0.30 0 -0.65 -0.10 -0.75 -0.20z"/>
  <path d="M14.10 29.50 c0.80 -1.30 0 -2 -0.90 -0.80 -0.40 0.60 -0.70 0.70 -0.70 0.35 0 -0.35 0.55 -1.30 1.25 -2.15 0.70 -0.80 1.25 -1.85 1.25 -2.30 0 -0.45 0.15 -1.35 0.30 -1.95 0.20 -0.80 0 -1.15 -0.80 -1.40 -0.75 -0.25 -1.30 -0.10 -1.60 0.30 -0.70 1.05 -0.35 0.10 1.75 -4.20 1.90 -3.90 1.90 -3.95 1.10 -5.70 -1 -2.10 -0.65 -2.85 0.40 -0.85 l0.75 1.45 0.85 -3 c0.90 -3.10 2.05 -4.75 3.15 -4.35 0.35 0.10 0.60 -0.30 0.60 -1.10 0 -0.80 0.30 -1.30 0.75 -1.30 0.45 0 0.60 0.30 0.45 0.75 -0.35 0.85 0.55 1.05 1.05 0.25 0.40 -0.65 1.25 -0.15 1.25 0.70 0 0.55 -3.30 2.10 -4.10 1.90 -0.15 -0.05 -0.25 0.95 -0.15 2.20 0.15 2 -0.05 2.65 -1.60 4.90 -0.95 1.40 -1.65 2.35 -1.55 2.05 0.10 -0.25 0.50 -1.25 0.85 -2.15 0.35 -0.85 0.85 -1.60 1.10 -1.60 0.25 0 0.45 -1.05 0.40 -2.35 0 -2.20 -0.05 -2.30 -0.55 -1.15 -0.30 0.70 -0.95 2.05 -1.40 3 -0.45 0.95 -1.15 2.65 -1.50 3.75 -0.35 1.10 -1 2.50 -1.40 3.15 -0.85 1.30 -0.45 2.05 0.60 1.15 0.40 -0.35 1 -0.50 1.30 -0.30 0.45 0.25 0.70 -0.20 1.80 -3.25 0.20 -0.55 0.35 -0.60 0.65 -0.10 0.25 0.45 0.60 -0.10 1.05 -1.65 0.45 -1.55 0.85 -2.20 1.30 -2.05 0.40 0.15 0.70 -0.05 0.70 -0.45 0 -0.40 0.50 -1 1.15 -1.30 0.95 -0.50 1 -0.50 0.50 0.10 -0.30 0.40 -0.70 1.55 -0.90 2.55 -0.30 1.50 -0.05 2.40 1.05 4.70 1.05 2.05 1.25 2.90 0.85 3.05 -0.35 0.15 -0.65 0.60 -0.60 1.05 0 0.55 0.10 0.60 0.30 0.25 0.50 -1.30 1.60 -0.60 1.95 1.15 0.30 1.75 -0.05 6.10 -0.55 6.65 -0.60 0.55 -1.80 -1.40 -2.50 -4.15 -0.40 -1.55 -1.05 -3.45 -1.40 -4.15 -0.65 -1.25 -0.70 -1.20 -2.30 2.20 -2.85 6.05 -3.65 7.15 -5.35 7.15 -1.05 0 -1.15 -0.10 -0.60 -1z m11.70 -2.30 c-0.15 -0.45 -0.30 -1.40 -0.35 -2.10 0 -1.25 -0.05 -1.30 -0.45 -0.25 -0.50 1.20 -0.10 3.15 0.60 3.15 0.30 0 0.35 -0.35 0.20 -0.80z m-6.30 -5.10 c0 -0.75 0.25 -1.65 0.55 -1.95 0.65 -0.65 0.10 -3.80 -0.60 -3.35 -0.25 0.15 -0.45 0.60 -0.45 1 0 0.40 0.25 0.60 0.50 0.45 0.30 -0.15 0.50 -0.05 0.50 0.20 0 0.30 -0.35 0.55 -0.75 0.55 -0.55 0 -0.75 0.60 -0.75 2.25 0 1.25 0.25 2.25 0.50 2.25 0.30 0 0.50 -0.65 0.50 -1.40z m3.95 -3.45 c-0.05 -0.50 -0.25 -1.45 -0.45 -2.15 -0.35 -1.05 -0.40 -1.10 -0.45 -0.25 -0.05 0.55 -0.20 1.50 -0.35 2.15 -0.25 0.80 -0.10 1.10 0.50 1.10 0.45 0 0.80 -0.40 0.75 -0.85z"/>
  <path d="M23.40 30.15 c-0.95 -0.25 -1.80 -2.45 -1.20 -3.05 0.20 -0.15 0.45 0.15 0.60 0.75 0.15 0.60 0.85 1.20 1.50 1.35 0.65 0.20 1.20 0.55 1.20 0.80 0 0.50 -0.60 0.55 -2.10 0.15z"/>
  <path d="M21 23.55 c0 -0.85 0.25 -1.65 0.50 -1.80 0.30 -0.20 0.50 0.40 0.50 1.45 0 1 -0.20 1.80 -0.50 1.80 -0.25 0 -0.50 -0.65 -0.50 -1.45z"/>
  <path d="M15.50 5.65 c-1.55 -0.60 -2.05 -2.40 -0.55 -1.90 0.60 0.20 1.15 0 1.40 -0.50 0.40 -0.65 0.55 -0.60 1.05 0.50 0.90 1.95 0.15 2.65 -1.90 1.90z"/>
 </g>
 <g fill="#9b554c">
  <path d="M15.75 33.50 c0.15 -0.25 0.70 -0.50 1.15 -0.50 0.80 -0.05 0.80 -0.10 -0.05 -0.70 -0.80 -0.60 -0.80 -0.70 0 -1.35 0.65 -0.55 0.85 -0.55 1 -0.05 0.35 0.95 1.15 0.70 1.15 -0.35 0 -0.95 1.25 -1.75 2 -1.30 0.25 0.15 0.30 0.65 0.15 1.05 -0.25 0.65 -0.05 0.75 0.75 0.50 1.15 -0.40 1.75 0.25 1.30 1.40 -0.45 1.15 -3.20 1.10 -3.20 -0.05 -0.05 -0.80 -0.10 -0.75 -0.60 0.10 -0.30 0.55 -0.80 1.15 -1.10 1.35 -0.85 0.55 -2.90 0.50 -2.55 -0.10z"/>
  <path d="M20 21 c0 -0.25 -0.55 -0.50 -1.25 -0.50 -1.40 0 -1.55 -0.75 -0.65 -2.75 0.70 -1.55 1.40 -1.65 1 -0.15 -0.15 0.70 -0.10 0.95 0.30 0.70 0.35 -0.20 0.60 -0.70 0.60 -1.10 0 -0.40 0.30 -0.70 0.70 -0.70 0.95 0 1.50 2.70 0.80 3.95 -0.55 1.10 -1.50 1.40 -1.50 0.55z"/>
  <path d="M22.50 20.80 c0 -0.40 0.25 -0.90 0.50 -1.05 0.30 -0.15 0.50 0.15 0.50 0.70 0 0.60 -0.20 1.05 -0.50 1.05 -0.25 0 -0.50 -0.30 -0.50 -0.70z"/>
 </g>
 <g fill="#916461">
  <path d="M12.25 34.65 c0.55 -0.35 1.95 -0.95 3.15 -1.25 2.05 -0.50 2.60 -1.05 1.60 -1.65 -0.30 -0.20 -0.35 -0.55 -0.20 -0.85 0.20 -0.30 0.50 -0.30 0.85 0.05 0.80 0.80 1.35 0.65 1.35 -0.40 0 -0.50 0.35 -1.10 0.80 -1.25 1.15 -0.45 1.20 -0.40 1.20 0.65 0 1.15 0.80 1.85 1.10 0.95 0.10 -0.30 0.50 -0.40 0.80 -0.20 0.40 0.20 0.50 0.80 0.30 1.40 -0.25 0.90 -0.15 0.95 1.15 0.70 1.10 -0.25 1.70 -0.10 2.40 0.70 0.50 0.55 0.80 1.10 0.65 1.25 -0.45 0.50 -8.35 -0.90 -8.05 -1.40 0.20 -0.30 0.05 -0.35 -0.30 -0.10 -0.35 0.20 -2.25 0.75 -4.20 1.25 -2.80 0.70 -3.35 0.75 -2.60 0.15z"/>
  <path d="M14.50 29.10 c0 -0.50 -0.25 -1.15 -0.55 -1.45 -0.40 -0.40 -0.35 -0.65 0.05 -0.90 0.35 -0.20 0.85 -0.05 1.10 0.30 0.30 0.45 0.35 0.15 0.15 -0.95 -0.25 -1.10 -0.10 -2.05 0.45 -2.85 0.95 -1.45 1 -1.95 0.15 -2.05 -0.30 0 -1 -0.10 -1.55 -0.10 -0.75 -0.10 -0.85 -0.35 -0.55 -1.45 0.15 -0.80 0.65 -1.75 1.10 -2.15 0.70 -0.65 0.70 -0.65 0.20 0.35 -0.90 1.75 -0.70 2.25 0.60 1.60 0.60 -0.35 1.20 -0.55 1.35 -0.45 0.15 0.10 0.75 -0.85 1.40 -2.05 l1.15 -2.20 -0.35 2.20 c-0.20 1.55 -0.15 2.10 0.25 1.85 0.30 -0.20 0.55 -0.95 0.55 -1.70 0 -1.85 1.20 -5.70 1.65 -5.30 0.15 0.20 0.80 -0.20 1.35 -0.85 l1 -1.20 -0.45 1.50 c-0.25 0.85 -0.70 2.95 -1.05 4.75 -0.70 3.75 -2.40 8.10 -3.05 7.70 -0.25 -0.15 -0.45 0.30 -0.45 0.95 0 0.65 -0.45 1.80 -1.05 2.55 -0.55 0.70 -0.85 1.30 -0.70 1.30 0.20 0 0.10 0.35 -0.25 0.75 -0.90 1.05 -2.50 0.95 -2.50 -0.15z m6.50 -9.85 c0 -0.40 -0.20 -0.75 -0.45 -0.75 -0.25 0 -0.55 0.35 -0.75 0.75 -0.15 0.45 0 0.75 0.45 0.75 0.40 0 0.75 -0.35 0.75 -0.75z"/>
  <path d="M24.90 28.40 c-0.35 -0.65 -1.10 -2.70 -1.55 -4.60 -0.80 -2.95 -0.80 -3.50 -0.20 -4.25 0.50 -0.50 0.60 -1.15 0.35 -1.80 -1 -2.40 -0.35 -2.30 1.10 0.20 1.75 3 2.55 6.75 2.05 9.65 -0.30 2.20 -0.75 2.35 -1.75 0.80z m0.70 -2.65 c-0.35 -2.20 -0.45 -2.35 -0.75 -1.15 -0.30 1.20 0.40 4.30 0.90 3.85 0.10 -0.15 0.05 -1.35 -0.15 -2.70z"/>
  <path d="M21 23.55 c0 -0.55 0.25 -1.15 0.50 -1.30 0.30 -0.15 0.50 0.15 0.50 0.70 0 0.55 -0.20 1.15 -0.50 1.30 -0.25 0.15 -0.50 -0.15 -0.50 -0.70z"/>
  <path d="M16.50 13.60 c0 -1.25 2.10 -6.85 2.90 -7.75 0.45 -0.50 1.10 -0.75 1.45 -0.65 0.60 0.25 0.90 -0.55 0.70 -2.05 -0.05 -0.35 0.25 -0.65 0.65 -0.65 0.50 0 0.65 0.30 0.50 0.75 -0.35 0.85 0.55 1.05 1.05 0.25 0.35 -0.60 1.25 -0.20 1.25 0.55 0 0.65 -3.40 2.10 -4 1.70 -0.70 -0.40 -1.20 0.75 -0.55 1.40 0.95 0.95 0.60 3.50 -0.75 5.10 -1.20 1.45 -1.25 1.45 -0.90 0.25 0.20 -0.70 0.55 -1.30 0.75 -1.40 0.25 -0.10 0.45 -1.10 0.45 -2.15 0 -2.25 -0.75 -2.20 -1.25 0 -0.35 1.70 -2.25 5.55 -2.25 4.65z"/>
  <path d="M15.35 11 c-0.15 -0.55 -0.05 -1 0.20 -1 0.25 0 0.45 0.10 0.45 0.20 0 0.10 0.15 0.55 0.30 1 0.15 0.45 0.10 0.80 -0.20 0.80 -0.25 0 -0.60 -0.45 -0.75 -1z"/>
  <path d="M15.40 5.30 c-1.10 -0.80 -1.20 -1.90 -0.15 -1.50 0.45 0.20 0.90 -0.05 1.05 -0.50 0.25 -0.70 0.45 -0.60 1 0.50 1.10 2.05 -0.05 2.95 -1.90 1.50z"/>
 </g>
 <g fill="#9d726f">
  <path d="M12.75 34.50 c0.10 -0.20 1.25 -0.65 2.50 -1 2.25 -0.65 2.80 -1.20 1.65 -1.65 -0.50 -0.20 -0.50 -0.30 0 -0.30 0.35 -0.05 0.50 -0.30 0.30 -0.65 -0.20 -0.35 -0.15 -0.40 0.20 -0.20 0.70 0.45 0.80 2.60 0.15 3.05 -0.80 0.45 -5.05 1.15 -4.80 0.75z"/>
  <path d="M23.15 34.35 c-1.75 -0.25 -3.15 -0.70 -3.15 -0.90 0 -0.25 -0.35 -0.45 -0.75 -0.45 -0.40 0 -0.75 -0.20 -0.75 -0.50 0 -0.25 0.75 -0.50 1.70 -0.50 0.95 0 2.10 -0.15 2.60 -0.35 0.60 -0.20 0.75 -0.15 0.50 0.25 -0.55 0.95 0.15 1.75 0.95 1.10 0.75 -0.65 2.10 -0.10 3.25 1.20 0.75 0.95 0.50 0.95 -4.35 0.15z"/>
  <path d="M19 30.50 c0 -0.55 0.10 -1 0.20 -1 0.10 0 0.55 -0.15 0.95 -0.30 0.50 -0.20 0.75 0.10 0.75 1 0 0.95 -0.30 1.30 -0.95 1.30 -0.60 0 -0.95 -0.35 -0.95 -1z"/>
  <path d="M14.50 29.05 c0 -0.25 0.35 -0.70 0.75 -1.05 0.45 -0.40 0.60 -1.10 0.40 -2.10 -0.20 -1.10 -0.15 -1.45 0.25 -1.20 0.95 0.60 1.65 -0.15 1.10 -1.15 -0.30 -0.60 -0.25 -1.10 0.10 -1.45 0.60 -0.60 0.35 -0.75 -2.20 -1.30 -0.80 -0.20 -1.40 -0.50 -1.40 -0.75 0 -0.25 0.45 -0.35 1.05 -0.20 1.40 0.40 3.30 -0.75 3.90 -2.30 0.40 -1.15 0.50 -1 0.55 1.20 l0.05 2.50 0.70 -2.50 c0.35 -1.35 0.60 -2.60 0.50 -2.80 -0.10 -0.15 0.10 -1.15 0.50 -2.25 0.45 -1.20 0.75 -1.55 0.75 -0.95 0.05 0.95 0.10 0.95 0.60 -0.15 0.80 -1.60 1.25 -1.35 1 0.45 -0.15 1.15 0.30 2.60 1.55 5.15 1.70 3.30 2.05 5.05 1.90 8.80 -0.10 1.90 -1.05 0.20 -1.05 -1.85 0 -2 -1 -2.25 -1.05 -0.25 0 1.30 -0.05 1.30 -0.70 -0.40 -0.85 -2.20 -0.90 -3.75 -0.15 -4.95 0.45 -0.75 0.40 -1.30 -0.10 -2.60 l-0.70 -1.65 -0.60 2.40 c-0.85 3.25 -3.25 8.20 -5 10.20 -1.35 1.50 -2.70 2.10 -2.70 1.15z"/>
  <path d="M15.35 11 c-0.15 -0.55 -0.10 -1 0.15 -1 0.20 0 0.50 0.45 0.65 1 0.15 0.55 0.10 1 -0.15 1 -0.20 0 -0.50 -0.45 -0.65 -1z"/>
  <path d="M17.75 10.25 c0.45 -2.40 1.30 -4.15 2.15 -4.50 0.70 -0.25 0.70 -0.20 -0.05 0.65 -0.45 0.50 -0.85 1.25 -0.85 1.65 -0.05 0.40 -0.35 1.40 -0.80 2.20 l-0.70 1.50 0.25 -1.50z"/>
  <path d="M20.40 10.20 c-0.25 -0.20 -0.40 -1.05 -0.40 -1.90 0 -1.05 0.15 -1.35 0.55 -0.95 0.30 0.30 0.45 1.15 0.35 1.90 -0.10 0.75 -0.30 1.15 -0.50 0.95z"/>
  <path d="M15.65 5.40 c-1.80 -0.85 -1.80 -1.80 0 -1.65 1.20 0.10 1.65 0.40 1.75 1.20 0.20 1.15 -0.10 1.25 -1.75 0.45z"/>
  <path d="M21.45 4.90 c0.25 -0.65 0.70 -1.10 1.05 -1 0.35 0.05 0.90 -0.10 1.20 -0.40 0.65 -0.50 1.30 -0.20 1.30 0.60 0 0.30 -3.15 1.90 -3.80 1.90 -0.10 0 0.05 -0.50 0.25 -1.10z"/>
 </g>
 <g fill="#b67265">
  <path d="M21.75 33.80 c-1.25 -0.35 -2.05 -0.95 -2.15 -1.50 -0.25 -1.10 0.95 -2 1.50 -1.15 0.30 0.45 0.50 0.45 0.85 -0.10 0.60 -0.95 1.65 -0.20 1.30 0.95 -0.35 1.15 0.70 1.90 1.30 0.95 0.30 -0.50 0.45 -0.40 0.45 0.45 0 1.25 -0.40 1.30 -3.25 0.40z"/>
  <path d="M17.05 32.05 c-0.35 -0.25 -0.55 -0.70 -0.35 -1 0.35 -0.55 2.30 0.35 2.30 1.05 0 0.55 -1.10 0.50 -1.95 -0.05z"/>
  <path d="M20.15 17.25 c0.30 -0.95 0.80 -1.75 1.20 -1.75 0.40 0 0.65 0.65 0.65 1.75 0 1.50 -0.15 1.75 -1.20 1.75 -1.15 0 -1.20 -0.10 -0.65 -1.75z"/>
 </g>
 <g fill="#ae817c">
  <path d="M22.75 34 c-3.20 -0.85 -3.70 -0.85 -5.85 -0.15 -1.30 0.40 -2.65 0.65 -3 0.50 -0.35 -0.10 0.30 -0.50 1.50 -0.80 1.85 -0.50 2.95 -1.55 1.60 -1.55 -0.25 0 -0.50 -0.25 -0.50 -0.55 0 -0.35 0.50 -0.45 1.25 -0.25 0.90 0.25 1.25 0.10 1.25 -0.40 0 -0.45 0.50 -1 1.10 -1.35 0.85 -0.45 1 -0.45 0.75 0.15 -0.15 0.40 -0.05 1.05 0.15 1.40 0.35 0.55 0.55 0.55 1.20 0.05 0.85 -0.70 0.95 -0.50 0.80 1.35 -0.10 1.15 1.25 1.60 1.60 0.50 0.15 -0.45 0.80 -0.15 1.85 0.75 1.95 1.65 1.35 1.70 -3.70 0.35z"/>
  <path d="M15 28.85 c0 -0.40 0.25 -0.95 0.50 -1.10 0.30 -0.15 0.50 -0.85 0.50 -1.45 0 -0.80 0.35 -1.30 1.10 -1.45 0.90 -0.25 0.95 -0.45 0.45 -1.05 -0.35 -0.40 -0.50 -1 -0.30 -1.30 0.20 -0.30 0.10 -0.85 -0.25 -1.25 -0.45 -0.55 -0.30 -1.05 0.55 -2.25 1 -1.35 1.20 -1.40 1.50 -0.65 0.25 0.80 0.35 0.80 0.85 -0.20 0.35 -0.60 0.60 -1.65 0.60 -2.35 0 -0.65 0.20 -1.30 0.45 -1.40 0.20 -0.05 0.90 -1.05 1.50 -2.15 0.70 -1.30 1 -1.55 0.80 -0.75 -0.20 0.70 -0.40 1.80 -0.50 2.50 -0.50 3.70 -1.10 5.60 -2.80 9 -1.90 3.85 -4.95 7.45 -4.95 5.85z"/>
  <path d="M25.90 27 c-0.20 -0.70 -0.40 -1.85 -0.40 -2.60 0 -0.80 -0.20 -1.40 -0.50 -1.40 -0.25 0 -0.50 0.60 -0.55 1.40 -0.05 1.10 -0.20 0.95 -0.85 -1 -0.65 -2 -0.65 -2.60 -0.10 -3.60 0.35 -0.70 0.50 -1.60 0.30 -2.05 -0.60 -1.60 0.50 -0.25 1.60 1.95 0.90 1.75 1.10 2.95 1 5.40 -0.10 2.30 -0.25 2.80 -0.50 1.90z"/>
  <path d="M17.80 9.75 c0.20 -0.80 0.50 -1.85 0.75 -2.25 0.35 -0.60 0.40 -0.55 0.40 0.25 0 0.55 -0.30 1.55 -0.70 2.25 l-0.75 1.25 0.30 -1.50z"/>
  <path d="M20 8.40 c0 -1.25 0.15 -1.45 0.50 -0.90 0.65 1 0.65 2.50 0 2.50 -0.25 0 -0.50 -0.75 -0.50 -1.60z"/>
  <path d="M15.60 4.85 l-1.10 -1.20 1.50 0.25 c1.05 0.15 1.50 0.50 1.50 1.15 0 1.25 -0.60 1.20 -1.90 -0.20z"/>
  <path d="M21.50 5 c0 -0.65 0.35 -1 1 -1 0.55 0 1 0.20 1 0.50 0 0.25 -0.45 0.70 -1 1 -0.85 0.45 -1 0.40 -1 -0.50z"/>
 </g>
 <g fill="#b68f8b">
  <path d="M22.90 33.85 c-0.80 -0.30 -1.40 -0.90 -1.40 -1.30 0 -0.70 -0.10 -0.70 -0.50 -0.05 -0.25 0.40 -0.60 0.55 -0.80 0.40 -0.15 -0.20 -1.10 -0.05 -2.05 0.35 -1 0.40 -2.05 0.75 -2.35 0.75 -0.30 -0.05 0.10 -0.35 0.95 -0.70 1.40 -0.60 1.45 -0.65 0.50 -1.15 -0.55 -0.35 -0.80 -0.75 -0.60 -0.95 0.20 -0.25 0.80 -0.15 1.30 0.15 0.80 0.50 1 0.40 1.25 -0.65 0.30 -1.05 1.90 -1.85 1.75 -0.80 -0.20 1.25 0.15 1.60 1.25 1.30 1.05 -0.25 1.15 -0.15 0.90 1.10 -0.25 1.30 -0.15 1.35 1.30 1.05 1 -0.20 1.70 -0.05 2.10 0.40 0.50 0.65 0.40 0.75 -0.80 0.70 -0.80 -0.05 -2.05 -0.30 -2.80 -0.60z"/>
  <path d="M15 28.50 c0 -0.25 0.25 -0.50 0.50 -0.50 0.30 0 0.50 -0.65 0.50 -1.45 0 -1.15 0.20 -1.40 0.90 -1.20 0.60 0.15 1.10 -0.20 1.50 -1.05 0.45 -1.05 0.35 -1.40 -0.70 -2.55 -1.20 -1.30 -1.20 -1.40 -0.40 -2.30 1.10 -1.25 1.90 -1.20 1.20 0 -0.65 1.25 -0.65 1.55 0 1.55 0.30 0 0.50 -0.40 0.50 -0.85 0 -0.50 0.35 -1.30 0.70 -1.80 0.60 -0.80 0.70 -0.75 1 0.85 0.25 1.35 0.05 2.30 -0.80 3.90 -2.15 4.05 -4.90 7.05 -4.90 5.40z"/>
  <path d="M25.80 25.90 c-0.15 -0.65 -0.30 -1.85 -0.30 -2.75 0 -2.65 -1 -2.45 -1.05 0.20 l-0.05 2.40 -0.65 -2.50 c-0.65 -2.20 -0.60 -2.65 0.10 -3.70 l0.80 -1.20 0.65 1.30 c0.40 0.70 0.85 2.65 1.05 4.35 0.30 3 0.05 4 -0.55 1.90z"/>
  <path d="M20.50 15.50 c0 -0.55 0.25 -1 0.50 -1 0.30 0 1 -0.95 1.55 -2.10 0.55 -1.20 0.90 -1.60 0.70 -0.90 -0.20 0.70 -0.40 1.85 -0.45 2.55 -0.05 0.70 -0.30 1.55 -0.50 1.85 -0.60 0.95 -1.80 0.70 -1.80 -0.40z"/>
  <path d="M20.40 9.70 c-0.25 -0.20 -0.40 -0.95 -0.40 -1.65 0.05 -1.15 0.10 -1.20 0.55 -0.40 0.55 0.95 0.45 2.65 -0.15 2.05z"/>
  <path d="M15.85 5.15 c-0.65 -0.60 -0.35 -1.15 0.65 -1.15 0.55 0 1 0.35 1 0.75 0 0.75 -1.05 1.05 -1.65 0.40z"/>
  <path d="M21.60 5 c0.25 -0.80 2.80 -1.75 3.25 -1.30 0.50 0.50 -0.45 1.20 -2.05 1.60 -1.10 0.25 -1.40 0.20 -1.20 -0.30z"/>
 </g>
 <g fill="#c99a96">
  <path d="M24 34.05 c0 -0.25 0.35 -0.60 0.80 -0.75 1.05 -0.40 1.05 -0.40 1.35 0.35 0.15 0.40 -0.20 0.70 -0.95 0.75 -0.65 0.05 -1.20 -0.10 -1.20 -0.35z"/>
  <path d="M21.80 33.05 c-0.45 -0.65 0.20 -2.05 0.95 -2.05 0.40 0 0.50 0.45 0.35 1.25 -0.20 1.25 -0.80 1.60 -1.30 0.80z"/>
  <path d="M17.55 32.15 c-0.35 -0.40 -0.50 -0.85 -0.30 -1.05 0.20 -0.20 0.50 -0.05 0.60 0.30 0.35 1 1 0.70 1.35 -0.65 0.20 -0.70 0.50 -1.25 0.75 -1.25 0.40 0 1.05 1.65 1.05 2.80 0 0.80 -2.70 0.65 -3.45 -0.15z"/>
  <path d="M15.95 27.30 c0.45 -0.90 0.95 -1.60 1.20 -1.45 0.40 0.25 -1.15 3.15 -1.70 3.15 -0.20 0 0.05 -0.75 0.50 -1.70z"/>
  <path d="M25.80 24.25 c-0.60 -3.05 -0.65 -3.20 -1.75 -2.90 -1.30 0.35 -1.30 -0.25 -0.15 -1.75 l0.90 -1.20 0.90 1.95 c0.50 1.15 0.80 2.75 0.70 3.95 l-0.20 1.95 -0.40 -2z"/>
  <path d="M18.60 22.75 c-0.45 -1 -0.45 -1.25 0.10 -1.25 0.45 0 0.60 -0.35 0.45 -0.95 -0.15 -0.55 0.10 -1.50 0.55 -2.15 0.45 -0.60 0.80 -1.65 0.80 -2.25 0 -0.65 0.20 -1.15 0.40 -1.15 0.25 0 0.70 -0.50 1.05 -1.10 0.50 -1 0.55 -0.85 0.30 1.10 -0.40 3.65 -0.70 4.90 -1.80 7 -0.60 1.10 -1.10 2 -1.15 2 -0.10 0 -0.40 -0.55 -0.70 -1.25z"/>
  <path d="M16.50 20.60 c0 -0.25 0.45 -0.85 1 -1.35 1 -0.90 1.25 -0.55 0.70 0.95 -0.30 0.85 -1.70 1.15 -1.70 0.40z"/>
  <path d="M16.25 4.95 c-0.50 -0.75 0.15 -1.25 0.80 -0.60 0.35 0.35 0.35 0.65 0.05 0.85 -0.30 0.15 -0.70 0.05 -0.85 -0.25z"/>
  <path d="M21.65 4.90 c0.10 -0.35 0.50 -0.65 0.90 -0.65 0.40 0 1 -0.20 1.35 -0.40 0.35 -0.25 0.60 -0.15 0.60 0.30 0 0.40 -0.50 0.85 -1.10 1.05 -1.70 0.45 -2 0.35 -1.75 -0.30z"/>
 </g>
 <g fill="#e4b773">
  <path d="M18 32.50 c0 -0.30 -0.35 -0.50 -0.75 -0.50 -0.40 0 -0.75 -0.20 -0.75 -0.50 0 -0.70 1.35 -0.60 1.65 0.15 0.20 0.45 0.40 0.40 0.80 -0.15 0.45 -0.65 0.55 -0.65 0.55 0.05 0 0.45 -0.35 0.95 -0.75 1.15 -0.40 0.15 -0.75 0.05 -0.75 -0.20z"/>
  <path d="M22 32 c0 -0.55 0.30 -1 0.70 -1 0.45 0 0.60 0.35 0.45 1 -0.15 0.55 -0.45 1 -0.70 1 -0.25 0 -0.45 -0.45 -0.45 -1z"/>
 </g>
 <g fill="#deafab">
  <path d="M22 32.55 c0 -0.55 0.25 -1.15 0.50 -1.30 0.30 -0.15 0.50 0.15 0.50 0.70 0 0.55 -0.20 1.15 -0.50 1.30 -0.25 0.15 -0.50 -0.15 -0.50 -0.70z"/>
  <path d="M18 32.40 c0 -0.20 0.20 -0.40 0.50 -0.40 0.25 0 0.60 -0.55 0.80 -1.25 0.40 -1.55 1 -1.60 1.40 -0.10 0.45 1.65 0.40 1.70 -1.20 1.95 -0.80 0.15 -1.50 0.05 -1.50 -0.20z"/>
  <path d="M25.75 24.50 c-0.40 -2.60 -0.65 -3.25 -1.35 -3.20 -1.10 0.10 -1.15 -0.95 -0.15 -1.80 0.65 -0.50 0.85 -0.35 1.50 1.25 0.50 1.10 0.75 2.90 0.65 4.40 l-0.15 2.60 -0.50 -3.25z"/>
  <path d="M19.35 21.15 c-0.50 -0.45 -0.45 -2.15 0.05 -2.15 0.20 0 0.65 -0.75 1 -1.65 0.30 -0.90 0.95 -2.10 1.35 -2.60 0.65 -0.90 0.70 -0.80 0.40 1.50 -0.45 3.70 -1.75 6 -2.80 4.90z"/>
  <path d="M17 20.30 c0 -0.35 0.40 -1 0.85 -1.35 0.75 -0.60 0.80 -0.60 0.50 0.20 -0.20 0.50 -0.35 1.15 -0.35 1.40 0 0.25 -0.20 0.45 -0.50 0.45 -0.25 0 -0.50 -0.30 -0.50 -0.70z"/>
  <path d="M22 5 c0 -0.20 0.45 -0.50 1 -0.65 0.55 -0.15 1 -0.10 1 0.15 0 0.20 -0.45 0.50 -1 0.65 -0.55 0.15 -1 0.10 -1 -0.15z"/>
 </g>
 <g fill="#e3bfbb">
  <path d="M22 32.30 c0 -0.40 0.25 -0.90 0.50 -1.05 0.30 -0.15 0.50 0.05 0.50 0.45 0 0.40 -0.20 0.90 -0.50 1.05 -0.25 0.15 -0.50 -0.05 -0.50 -0.45z"/>
  <path d="M19.50 31 c0 -0.80 0.25 -1.50 0.50 -1.50 0.30 0 0.50 0.15 0.50 0.40 0 0.20 0.15 0.85 0.30 1.50 0.25 0.80 0.10 1.10 -0.50 1.10 -0.55 0 -0.80 -0.45 -0.80 -1.50z"/>
  <path d="M19.55 21 c-0.95 -0.55 -0.30 -2.05 0.70 -1.70 0.80 0.30 1 1.45 0.35 1.90 -0.20 0.10 -0.70 0.05 -1.05 -0.20z"/>
  <path d="M17 20.55 c0 -0.25 0.30 -0.70 0.70 -1 0.60 -0.50 0.65 -0.40 0.45 0.40 -0.25 1.05 -1.15 1.50 -1.15 0.60z"/>
  <path d="M21.05 16.65 c0 -0.25 0.35 -1.20 0.70 -2.15 0.70 -1.85 1 -0.80 0.45 1.40 -0.30 1 -1.25 1.60 -1.15 0.75z"/>
  <path d="M22.55 4.85 c0.10 -0.05 0.60 -0.45 1.10 -0.80 0.70 -0.60 0.85 -0.55 0.85 0.15 0 0.50 -0.40 0.80 -1.10 0.80 -0.60 0 -0.95 -0.05 -0.85 -0.15z"/>
 </g>
 <g fill="#f9dd90">
 </g>
 <g fill="#c2dcde">
  <path d="M19.70 31.75 c-0.20 -0.40 -0.15 -1.15 0.05 -1.60 0.35 -0.85 0.40 -0.80 0.75 0.10 0.25 0.55 0.45 1.30 0.45 1.65 0.05 0.85 -0.90 0.75 -1.25 -0.15z"/>
 </g>
 <g fill="#f3d4d1">
  <path d="M19.85 32.15 c-0.60 -0.55 -0.40 -1.15 0.40 -1.15 0.40 0 0.75 0.35 0.75 0.75 0 0.80 -0.60 1 -1.15 0.40z"/>
  <path d="M19 20.65 c0 -0.25 0.80 -1.95 1.80 -3.90 1.65 -3.25 1.75 -3.35 1.45 -1.50 -0.60 3.85 -1.35 5.75 -2.35 5.75 -0.50 0 -0.90 -0.15 -0.90 -0.35z"/>
 </g>
 <g fill="#eee6e4">
  <path d="M19.40 20.75 c-0.15 -0.15 0.30 -1.45 1 -2.85 1.45 -2.90 2 -2.45 1.10 0.90 -0.55 2 -1.35 2.70 -2.10 1.95z"/>
 </g>
 <g fill="#f8f4f3">
  <path d="M19.50 20.70 c0 -0.75 2.20 -4.85 2.35 -4.40 0.25 0.70 -1.45 4.70 -1.95 4.70 -0.25 0 -0.40 -0.10 -0.40 -0.30z"/>
 </g>
</svg>