<?xml version="1.0" encoding="utf-8"?>
<!DOCTYPE svg PUBLIC "-//W3C//DTD SVG 1.0//EN" "http://www.w3.org/TR/2001/REC-SVG-20010904/DTD/svg10.dtd">
<svg version="1.0" xmlns="http://www.w3.org/2000/svg" width="40px" height="40px" viewBox="0 0 40 40" preserveAspectRatio="xMidYMid meet">
 <g fill="#0f1e10">
  <path d="M18.15 30.60 c-0.95 -0.15 -1.10 -0.45 -1.05 -1.90 l0.05 -1.75 3.80 0.30 c6.60 0.50 7.05 0.65 7.05 2 0 1.10 -0.20 1.25 -1.85 1.20 -1.05 0 -2.95 -0.20 -4.25 -0.40 -1.60 -0.25 -2.40 -0.20 -2.50 0.15 -0.10 0.30 -0.65 0.50 -1.25 0.40z"/>
  <path d="M28.50 29.50 c0 -0.75 0.35 -1 1.25 -1 0.70 0 1.25 -0.20 1.25 -0.50 0 -0.25 -0.65 -0.50 -1.45 -0.50 -2.60 0 -3.05 -0.40 -3.05 -2.80 0 -2.10 0.05 -2.20 1.45 -2.20 0.80 0 2.15 0.15 3 0.30 1.45 0.30 1.55 0.45 1.55 2.50 0 1.85 0.15 2.20 1 2.20 1.65 0 1.15 1.45 -0.80 2.25 -2.60 1.10 -4.20 1 -4.20 -0.25z"/>
  <path d="M7.50 27 c0 -0.55 0.25 -1 0.50 -1 0.30 0 0.50 -0.65 0.50 -1.50 0 -1.40 0.15 -1.50 1.75 -1.50 1.60 0 1.75 0.10 1.75 1.55 0 1.85 -1.10 3.05 -3.05 3.25 -1.15 0.15 -1.45 0 -1.45 -0.80z"/>
  <path d="M3.60 25.15 c-0.05 -0.80 -0.35 -1.50 -0.65 -1.60 -1.05 -0.35 -2.95 -2.45 -2.95 -3.25 0 -0.50 0.45 -0.80 1.25 -0.80 0.75 0 1.25 0.30 1.25 0.70 0 0.40 0.45 0.90 1 1.05 0.55 0.15 1 0.50 1 0.75 0 0.20 0.55 0.55 1.25 0.70 1.05 0.25 1.25 0.60 1.25 2.05 0 1.65 -0.10 1.75 -1.65 1.75 -1.40 0 -1.65 -0.20 -1.75 -1.35z"/>
  <path d="M30.50 21.30 c0 -0.95 0.20 -1.15 0.95 -0.95 0.55 0.15 1.35 0.70 1.85 1.20 0.85 0.90 0.80 0.95 -0.95 0.95 -1.60 0 -1.85 -0.15 -1.85 -1.20z"/>
  <path d="M18.55 14.95 c-0.30 -0.90 -0.55 -2.25 -0.55 -3 0 -0.95 -0.25 -1.45 -0.75 -1.45 -0.40 0 -0.75 -0.25 -0.75 -0.55 0 -0.30 -0.35 -0.85 -0.75 -1.25 -0.40 -0.45 -0.75 -1.30 -0.75 -2 0 -0.75 -0.30 -1.20 -0.75 -1.20 -0.85 0 -1 0.80 -0.25 1.25 0.30 0.15 0.50 1.10 0.50 2.05 0 1.65 -0.05 1.70 -2 1.70 -1.80 0 -2 -0.15 -2 -1.20 0 -0.70 -0.20 -1.40 -0.50 -1.55 -0.25 -0.15 -0.50 -1.30 -0.50 -2.50 0 -1.20 -0.20 -2.35 -0.50 -2.50 -0.75 -0.45 -0.60 -1.25 0.25 -1.25 0.40 0 0.75 -0.25 0.75 -0.55 0 -0.25 0.25 -0.35 0.50 -0.20 0.30 0.15 0.50 0.95 0.50 1.70 0 1.15 0.25 1.50 1.25 1.65 1.05 0.25 1.25 0.05 1.25 -1 0 -1.05 0.10 -1.10 0.75 -0.60 1.05 0.85 3.70 5.55 5.60 9.95 0.90 2.05 1.65 3.80 1.65 3.90 0 0.10 -0.55 0.15 -1.20 0.15 -0.90 0 -1.35 -0.40 -1.75 -1.55z"/>
  <path d="M28.60 9.90 c0.10 -2.20 0.30 -2.65 1.15 -2.80 0.90 -0.15 1 0.10 0.85 2.65 -0.15 2.35 -0.35 2.75 -1.15 2.75 -0.90 0 -1 -0.30 -0.85 -2.60z"/>
  <path d="M4.25 6.50 c-0.80 -1.55 -1.05 -4.50 -0.35 -4.50 0.25 0 0.95 0.90 1.55 2 0.65 1.15 1.55 2.30 2.10 2.65 1.40 0.90 1.15 1.35 -0.80 1.35 -1.40 0 -1.85 -0.25 -2.50 -1.50z"/>
 </g>
 <g fill="#3e251b">
  <path d="M3.55 37 c-1.45 -1.10 -2.85 -2 -3.10 -2 -0.25 0 -0.45 -0.55 -0.45 -1.25 0 -0.70 0.15 -1.25 0.30 -1.25 0.15 0 1.50 0.80 3 1.80 2.55 1.70 4.60 2.10 4.35 0.80 -0.10 -0.30 0.30 -0.80 0.90 -1.10 0.80 -0.45 0.90 -0.70 0.40 -1.30 -0.45 -0.55 -0.35 -0.70 0.75 -0.70 1.20 0 1.30 0.20 1.35 2.15 0.10 1.45 0.15 1.70 0.30 0.75 0.15 -0.95 0.70 -1.60 1.90 -2.15 1.15 -0.55 1.75 -1.25 1.95 -2.30 0.15 -0.90 0.75 -1.65 1.40 -1.95 l1.15 -0.45 -1.25 -0.05 c-1.25 -0.05 -1.25 -0.05 -0.15 -0.60 1.10 -0.55 5.65 -0.15 5.65 0.50 0 0.60 8.15 0.35 10.50 -0.30 2.25 -0.65 2.25 -0.65 2.10 -2.70 -0.25 -2.45 0.25 -2.25 2.40 0.95 1.85 2.75 1.55 3.30 -1.85 3.35 -1.30 0.05 -2.65 0.30 -2.95 0.55 -0.70 0.70 -6.75 0.90 -10.05 0.35 -2.60 -0.45 -2.65 -0.40 -2.65 0.75 0 0.80 -0.40 1.35 -1.30 1.65 -0.70 0.30 -1.45 0.40 -1.65 0.30 -0.30 -0.20 -1.95 1.50 -3.95 4.10 -0.55 0.75 -1.50 1.15 -2.85 1.30 -1.10 0.10 -2.35 0.30 -2.75 0.50 -0.45 0.20 -1.80 -0.45 -3.45 -1.70z m20.60 -7.85 c-0.65 -0.10 -1.75 -0.10 -2.50 0 -0.80 0.10 -0.25 0.20 1.10 0.20 1.40 0 2 -0.10 1.40 -0.20z"/>
  <path d="M5.80 29.55 c-2.30 -2.35 -3 -5.10 -1.15 -4.70 0.85 0.15 0.80 0 -0.40 -0.65 -1.25 -0.75 -1.35 -0.95 -0.60 -1.10 1.75 -0.35 2.35 0.30 2.35 2.45 0 1.45 0.30 2.30 1.05 2.90 0.65 0.50 1 1.25 0.85 1.95 -0.15 1.10 -0.25 1.05 -2.10 -0.85z"/>
  <path d="M27.85 26.65 c-0.20 -0.15 -0.35 -1.05 -0.35 -2 0 -1.45 0.15 -1.65 1.40 -1.65 2.85 0 3.60 0.50 3.60 2.30 0 1.65 -0.05 1.70 -2.15 1.70 -1.20 0 -2.35 -0.15 -2.50 -0.35z m2.30 -1.15 c-0.65 -0.25 -1.15 -0.70 -1.15 -1 0 -0.25 -0.20 -0.50 -0.50 -0.50 -0.70 0 -0.60 1.35 0.15 1.65 0.30 0.15 1.05 0.25 1.60 0.30 0.90 0 0.90 -0.05 -0.10 -0.45z"/>
  <path d="M26.90 21.15 c-0.50 -0.10 -0.90 -0.45 -0.90 -0.70 0 -0.25 -0.80 -0.45 -1.80 -0.45 -2.10 0 -3.70 -0.75 -3.70 -1.75 0 -0.40 -0.20 -0.75 -0.50 -0.75 -0.25 0 -0.50 -0.80 -0.50 -1.75 0 -0.95 0.15 -1.75 0.40 -1.75 0.20 0.05 0.95 0.95 1.70 2 2.40 3.45 4.70 2.50 6.20 -2.55 0.95 -3.20 1.10 -9.60 0.25 -10.65 -0.75 -0.90 0.25 -2.80 1.50 -2.80 0.70 0 0.80 0.35 0.60 2.05 l-0.30 2.05 1.70 -0.35 c2.05 -0.45 3.45 -1.60 3.45 -2.85 0 -0.50 0.30 -0.90 0.70 -0.90 0.50 0 0.70 0.60 0.65 2 -0.10 1.65 -0.30 2 -1.10 2 -1.45 0 -3 1.20 -4.25 3.25 -0.85 1.40 -1 2.20 -0.75 3.75 0.30 1.65 0.05 2.55 -1.20 5 l-1.50 3.05 1.25 0.45 c0.70 0.30 1.50 0.50 1.75 0.50 0.25 0 0.45 0.35 0.45 0.75 0 0.75 -2.05 0.95 -4.10 0.40z"/>
 </g>
 <g fill="#1c4825">
  <path d="M16.90 30.15 c-0.50 -0.10 -0.90 -0.55 -0.90 -1 0 -0.50 0.30 -0.65 0.80 -0.45 0.45 0.15 1.10 0.30 1.45 0.30 0.35 0 0.75 0.35 0.95 0.75 0.25 0.75 -0.45 0.90 -2.30 0.40z"/>
  <path d="M25 29.45 c0 -0.25 -1.20 -0.45 -2.70 -0.45 -1.50 0 -3.35 -0.25 -4.10 -0.50 -0.75 -0.30 -3.50 -0.60 -6.05 -0.70 -2.60 -0.10 -4.80 -0.30 -5 -0.50 -0.70 -0.70 -1.20 -0.25 -0.60 0.60 0.65 0.80 0.65 0.80 -0.35 0 -0.55 -0.50 -1.30 -0.90 -1.60 -0.90 -0.85 0 -0.75 -1.35 0.15 -1.85 0.55 -0.35 0.20 -0.70 -1.50 -1.65 -1.25 -0.70 -2.25 -1.50 -2.25 -1.85 0 -0.35 -0.20 -0.65 -0.50 -0.65 -0.25 0 -0.50 -1 -0.50 -2.25 0 -2.25 0 -2.25 1.75 -2.25 1 0 1.90 0.30 2.05 0.65 0.15 0.40 0.90 0.55 2.20 0.45 1.60 -0.15 2.05 0 2.30 0.70 0.95 2.80 1.55 3.65 2.70 3.95 1.70 0.45 2.50 1.20 2.50 2.30 0 1 0.75 1.25 4.75 1.65 1.40 0.15 3.95 0.40 5.75 0.55 2 0.20 3 0.15 2.60 -0.15 -0.40 -0.30 -0.60 -1.20 -0.50 -2.40 0.10 -1.55 0.35 -2 1.25 -2.10 0.70 -0.10 1.15 -0.55 1.25 -1.35 0.15 -1.15 0.20 -1.15 2.15 -0.50 1.10 0.40 2.90 1.65 4 2.85 l2 2.15 -1.45 0.15 c-1.05 0.15 -1.85 -0.25 -3.10 -1.45 l-1.70 -1.65 0 1.35 c0 1.35 -0.65 1.80 -1.25 0.85 -0.45 -0.75 -1.25 -0.60 -1.25 0.25 0 0.40 0.55 0.85 1.25 1.05 0.70 0.15 1.25 0.50 1.25 0.70 0 0.25 0.75 0.50 1.60 0.60 2.15 0.20 2.35 1.45 0.45 2.30 -1.55 0.70 -7.55 0.70 -7.55 0.05z"/>
  <path d="M20.20 18.25 c-0.15 -0.70 -0.50 -1.25 -0.75 -1.25 -0.25 0 -0.45 -0.55 -0.45 -1.25 0 -0.70 -0.20 -1.25 -0.40 -1.25 -0.20 0 -0.70 -0.85 -1.10 -1.85 -0.35 -1.05 -0.75 -1.60 -0.85 -1.25 -0.35 0.90 -2.65 0.75 -4.95 -0.35 -1.05 -0.50 -2.75 -1.10 -3.70 -1.30 -2.05 -0.45 -2.50 -0.95 -2.50 -3.10 0 -1.40 -0.20 -1.65 -1.15 -1.65 -1.30 0 -2.35 -1.70 -2.35 -3.75 0 -2.20 1.25 -1.35 2.75 1.80 1.45 3 2.40 3.95 3.95 3.95 1 0 1.15 -3.95 0.20 -4.90 -0.45 -0.45 -0.40 -0.60 0.25 -0.60 0.45 0 0.85 -0.35 0.85 -0.75 0 -1.10 0.95 -0.90 2.80 0.50 1.95 1.45 5.30 7.05 7.10 11.60 0.65 1.75 1.85 3.85 2.65 4.65 0.80 0.75 1.45 1.55 1.45 1.70 0 0.15 -0.80 0.30 -1.75 0.30 -1.45 0 -1.80 -0.20 -2.05 -1.25z m-4.20 -11 c0 -0.40 -0.35 -0.75 -0.75 -0.75 -0.80 0 -1 0.60 -0.40 1.15 0.55 0.60 1.15 0.40 1.15 -0.40z"/>
  <path d="M0 8.25 c0 -3.15 0.05 -3.25 1.25 -3.25 1.20 0 1.25 0.10 1.25 3.25 0 3.15 -0.05 3.25 -1.25 3.25 -1.20 0 -1.25 -0.10 -1.25 -3.25z"/>
 </g>
 <g fill="#246b35">
  <path d="M16.70 29.20 c-0.85 -0.70 -0.85 -0.75 -0.05 -0.50 0.50 0.15 1.25 0.30 1.65 0.30 0.40 0 0.70 0.25 0.70 0.50 0 0.75 -1.20 0.60 -2.30 -0.30z"/>
  <path d="M27 28.95 c-1.50 -0.25 -3.95 -0.45 -5.35 -0.50 -1.45 -0.05 -2.65 -0.25 -2.65 -0.45 0 -0.20 -1.05 -0.35 -2.35 -0.35 -1.35 0 -3.45 -0.25 -4.75 -0.50 -1.90 -0.40 -2.45 -0.35 -3.10 0.25 -0.55 0.60 -0.90 0.65 -1.45 0.20 -0.35 -0.30 -1.15 -0.45 -1.75 -0.25 -0.95 0.20 -1.10 0.05 -1.10 -1.10 0 -1.15 0.15 -1.25 1.15 -0.95 0.60 0.15 1.45 0.65 1.90 1 0.70 0.60 0.75 0.55 0.70 -0.35 -0.05 -0.80 -0.95 -1.45 -3.65 -2.60 -3.65 -1.65 -4.50 -2.80 -2.80 -3.75 1.10 -0.60 0.45 -1.60 -0.80 -1.25 -0.95 0.25 -1 0 -1 -4.05 0 -2.55 0.20 -4.30 0.50 -4.30 0.30 0 0.25 -0.40 -0.10 -1 -0.55 -0.85 -0.50 -1.10 0.10 -1.55 0.55 -0.40 0.60 -0.60 0.15 -0.80 -1 -0.35 -0.85 -5.65 0.10 -5.65 0.40 0 0.75 -0.20 0.75 -0.50 0 -1.15 1.80 -0.40 2.30 0.90 0.30 0.80 1.30 2.55 2.20 3.95 1.35 2.05 2 2.60 3.70 3 1.15 0.30 2.45 0.70 2.90 0.90 0.85 0.35 0.85 0.25 0.10 -1.55 -0.45 -1.10 -1.35 -2.50 -2 -3.25 -1.30 -1.40 -1.65 -3.25 -0.50 -2.80 0.50 0.20 0.60 0 0.40 -0.80 l-0.25 -1.05 1.55 1.10 c2.55 1.85 4.15 4.10 6.45 9.10 1.25 2.60 2.60 5.45 3.05 6.35 0.80 1.60 2.40 2.40 3.80 1.85 0.65 -0.25 0.80 0.05 0.80 1.25 0 1.50 -0.05 1.55 -2.25 1.55 -1.90 0 -2.25 -0.15 -2.25 -1 0 -0.55 -0.35 -1 -0.75 -1 -0.45 0 -0.90 -0.60 -1.05 -1.50 -0.20 -0.80 -0.50 -1.50 -0.75 -1.50 -0.25 0 -0.45 -0.45 -0.45 -1.05 0 -1.35 -1.15 -2.45 -2.60 -2.45 -1.70 0 -3.90 -1.10 -3.90 -2 0 -0.55 -0.65 -0.75 -2.65 -0.75 l-2.65 0 0.55 3.55 c0.55 3.85 1.20 5.05 2.90 5.30 0.85 0.10 1.15 0.55 1.25 2 0.15 1.55 0.35 1.90 1.60 2.15 0.75 0.15 1.55 0.60 1.70 1 0.15 0.40 1.40 0.75 3.40 0.95 1.75 0.15 4.20 0.40 5.55 0.60 2.15 0.25 2.35 0.20 2.35 -0.75 0 -0.75 0.30 -1.05 1.05 -1.05 0.55 0 0.85 0.20 0.70 0.50 -0.20 0.30 -0.05 0.85 0.25 1.25 0.80 0.95 3 1 3 0.05 0 -0.40 -0.40 -0.65 -0.85 -0.60 -0.65 0.05 -0.90 -0.30 -0.90 -1.30 0.05 -0.80 -0.25 -1.40 -0.60 -1.40 -0.35 0 -0.65 -0.55 -0.65 -1.25 0 -0.70 0.10 -1.25 0.20 -1.25 1.05 0 4.95 2.30 6.55 3.85 l1.95 1.90 -1.95 0.30 c-1.10 0.15 -1.65 0.35 -1.20 0.40 0.85 0.05 1.45 1.05 1.45 2.40 0 0.60 -0.40 0.75 -1.90 0.50 -1.05 -0.10 -2.25 -0.05 -2.65 0.10 -0.40 0.20 -1.95 0.20 -3.45 0z m-15.45 -4.15 c-0.80 -0.95 -2.55 -1.35 -2.55 -0.60 0 0.55 2.50 1.80 2.95 1.45 0.10 -0.05 -0.05 -0.45 -0.40 -0.85z m-4.15 -2.25 c0.55 -0.30 0.55 -0.50 0 -0.90 -1.45 -1.15 -3.90 -2.15 -4.60 -1.85 -1.20 0.45 -0.95 1 0.85 2.10 1.75 1.10 2.75 1.30 3.75 0.65z"/>
  <path d="M28.85 9.60 c-0.15 -0.20 -0.15 -0.95 0 -1.75 0.20 -0.95 0.55 -1.35 1.25 -1.35 0.75 0 0.90 0.20 0.65 0.90 -0.20 0.45 -0.50 1.25 -0.60 1.75 -0.30 0.90 -0.90 1.15 -1.30 0.45z"/>
  <path d="M10.70 7.60 c-0.75 -0.45 -1.40 -2.60 -0.80 -2.60 0.45 0 1.80 2.50 1.50 2.80 -0.10 0.05 -0.40 0 -0.70 -0.20z"/>
 </g>
 <g fill="#65402c">
  <path d="M4.75 37.25 c-0.80 -0.70 -2.25 -1.55 -3.15 -1.85 -1.05 -0.40 -1.55 -0.90 -1.45 -1.40 0.20 -1.05 1.70 -0.70 4.10 1.05 2.05 1.50 3.75 1.55 3.75 0.15 0 -0.35 0.40 -0.85 0.90 -1.15 0.90 -0.50 0.90 -0.55 -3.75 -5.35 -1.15 -1.20 -1.50 -2.90 -0.70 -3.40 0.75 -0.50 4.65 1.80 4.05 2.40 -0.35 0.35 -0.70 0.30 -1.10 -0.10 -0.35 -0.35 -0.85 -0.60 -1.10 -0.60 -0.30 0 0.80 1.35 2.45 3 3.75 3.80 5.40 4.05 6.25 1 0.60 -2.30 0.85 -2.50 2.60 -2.15 1.55 0.30 2.10 1.35 1.40 2.70 -0.75 1.35 -2.70 1.30 -2.25 -0.05 0.50 -1.55 -0.15 -1.20 -1.05 0.65 -0.45 0.85 -1.25 1.90 -1.75 2.25 -0.55 0.35 -0.95 1.10 -0.95 1.60 0 0.55 -0.50 1.25 -1.10 1.55 -0.65 0.35 -1.15 0.65 -1.20 0.65 0 0.05 -0.40 -0.25 -0.80 -0.55 -0.60 -0.50 -0.90 -0.50 -1.70 0.10 -1.30 1 -1.70 0.90 -3.45 -0.50z"/>
  <path d="M21.40 29.65 c0.60 -0.10 1.50 -0.10 2 0 0.45 0.15 -0.05 0.25 -1.15 0.20 -1.10 0 -1.50 -0.10 -0.85 -0.20z"/>
  <path d="M33.30 28.65 c-0.65 -0.70 -0.25 -1.65 0.70 -1.65 0.75 0 1 -0.35 1 -1.25 0 -0.70 0.20 -1.25 0.45 -1.25 0.70 0 3.15 4 2.45 4.05 -0.35 0.05 -1.45 0.15 -2.45 0.20 -1.05 0.10 -2 0.05 -2.15 -0.10z"/>
  <path d="M25.50 21 c-0.70 -0.20 -1.85 -0.55 -2.60 -0.70 -1.05 -0.25 -1.40 -0.60 -1.40 -1.55 0 -1.10 0.10 -1.20 1.30 -0.75 0.70 0.30 1.45 0.50 1.75 0.50 0.90 0 3.20 -3.15 3.60 -4.90 0.75 -3.35 0.90 -8.75 0.30 -10.15 -0.70 -1.75 -0.15 -3.45 1.05 -3.45 0.85 0 0.90 0.20 0.50 1.25 -0.80 2.05 -0.15 2.90 1.95 2.50 1 -0.15 2.05 -0.65 2.35 -1.05 0.70 -0.90 1.75 -0.90 1.40 0 -0.15 0.40 -0.90 0.95 -1.70 1.25 -0.80 0.25 -2 1.35 -2.70 2.50 -1.05 1.65 -1.30 2.65 -1.30 5.25 0 1.80 -0.25 3.40 -0.50 3.55 -0.50 0.30 -2.15 3.85 -1.90 3.95 2.20 1.10 2.90 1.55 2.90 1.90 0 0.50 -3.35 0.45 -5 -0.10z"/>
  <path d="M1.50 1 c0 -0.65 0.35 -1 0.90 -1 0.55 0 0.90 0.40 0.95 1 0.05 0.70 -0.20 1 -0.90 1 -0.60 0 -0.95 -0.35 -0.95 -1z"/>
 </g>
 <g fill="#3c8b51">
  <path d="M33.20 28.25 c-0.25 -0.60 -1.05 -0.75 -3.40 -0.70 -1.65 0 -4.60 -0.20 -6.55 -0.50 -1.90 -0.30 -4.85 -0.65 -6.50 -0.75 -1.75 -0.15 -3.15 -0.50 -3.50 -0.95 -0.25 -0.35 -1.15 -0.90 -2 -1.20 -0.90 -0.30 -1.45 -0.80 -1.35 -1.25 0.05 -0.45 -0.35 -0.90 -1 -1.10 -0.65 -0.15 -2.45 -1.10 -4.05 -2.10 -2.30 -1.40 -2.80 -2 -2.60 -2.75 0.25 -0.70 -0.05 -1.10 -0.95 -1.55 -1.05 -0.45 -1.30 -0.90 -1.30 -2.50 0 -1.40 0.20 -1.90 0.80 -1.90 0.50 0 0.70 -0.30 0.55 -0.75 -0.20 -0.40 -0.10 -0.85 0.15 -1 0.30 -0.20 0.50 0.05 0.50 0.45 0 0.45 0.20 0.80 0.50 0.80 0.60 0 -1.25 -4.15 -1.95 -4.40 -0.65 -0.20 -0.75 -2.60 -0.15 -2.60 0.25 0 0.70 0.85 1 1.90 0.35 1.05 1.10 2.35 1.65 2.90 1.10 0.95 1.10 0.95 0.50 -0.15 -0.30 -0.60 -0.80 -1.25 -1.05 -1.40 -0.30 -0.15 -0.50 -0.80 -0.50 -1.45 0 -0.60 -0.45 -1.60 -1 -2.20 -0.85 -0.90 -0.90 -1.10 -0.25 -1.10 0.40 0 0.75 -0.45 0.75 -1 0 -1.85 1.25 -1 2.75 1.80 0.85 1.55 1.45 3.05 1.35 3.30 -0.30 1 1.05 1.85 3.30 2.20 1.30 0.20 3.45 0.90 4.85 1.60 1.75 0.85 2.30 1 1.80 0.40 -0.35 -0.45 -1 -0.80 -1.35 -0.80 -0.40 0 -1.05 -0.85 -1.45 -1.85 -0.45 -1.05 -1.25 -2.40 -1.80 -2.95 -0.60 -0.60 -0.95 -1.50 -0.85 -2 0.10 -0.65 0.60 -0.25 1.75 1.60 2.05 3.10 2.10 2.70 0.15 -0.85 -2.25 -4.10 -2.10 -4.15 1.55 -0.85 1.95 1.80 3.85 5.05 6.45 11.10 1.15 2.65 2.05 4.10 2.85 4.45 0.85 0.40 1 0.65 0.55 0.95 -0.50 0.30 -0.40 0.40 0.25 0.40 0.45 0 0.85 0.25 0.85 0.50 0 0.30 -0.75 0.50 -1.65 0.50 -1.35 0 -2 -0.40 -3.25 -1.95 -0.90 -1.10 -1.60 -2.20 -1.60 -2.45 0 -0.60 -3.35 -3.60 -4 -3.60 -0.25 0 -0.85 -0.40 -1.35 -0.95 -0.50 -0.50 -1.50 -1.05 -2.25 -1.15 -1.20 -0.20 -1.40 -0.10 -1.40 0.85 0 0.60 0.45 1.50 1 2 0.55 0.50 1 1.20 1 1.60 0 0.35 0.55 0.65 1.30 0.65 1.35 0 1.35 0 1.05 2.90 -0.15 1.55 -0.10 3.20 0.15 3.55 0.25 0.45 1.60 0.80 3.60 0.95 2.10 0.15 3.40 0.50 3.95 1.05 1.25 1.30 4.35 0.80 4.75 -0.75 0.15 -0.65 0.60 -1.20 1 -1.20 0.40 0 0.70 -0.50 0.70 -1.20 l0 -1.25 2.25 0.80 c1.25 0.40 2.95 1.40 3.80 2.20 0.85 0.80 1.75 1.45 1.95 1.45 0.70 0 1.20 2.20 0.55 2.40 -0.30 0.10 -0.55 0.60 -0.55 1.10 0 0.50 -0.35 1.05 -0.80 1.20 -1.10 0.40 -1.20 0.40 -1.50 -0.45z m-2.70 -2.25 c0.60 -0.30 0.85 -0.80 0.65 -1.30 -0.25 -0.65 -0.35 -0.65 -0.75 -0.10 -0.35 0.50 -0.55 0.45 -1.15 -0.30 -0.70 -0.95 -1.75 -0.70 -1.75 0.40 0 0.70 1 1.80 1.65 1.80 0.20 0 0.85 -0.25 1.35 -0.50z m-20.75 -5.50 c-0.15 -0.25 -0.75 -0.50 -1.25 -0.50 -0.50 0 -1.10 -0.25 -1.25 -0.50 -0.35 -0.60 -3.25 -2.15 -3.25 -1.75 0 0.15 1.05 0.95 2.35 1.75 2.30 1.50 4 1.95 3.40 1z m-4.75 -4.20 c0 -0.30 -3.80 -2.80 -4.30 -2.80 -0.25 0 0.55 0.70 1.80 1.50 2.30 1.55 2.50 1.65 2.50 1.30z"/>
  <path d="M6.85 24.15 c-1.25 -0.30 -0.55 -1.15 0.95 -1.15 0.75 0 1.20 0.25 1.10 0.60 -0.25 0.70 -0.85 0.85 -2.05 0.55z"/>
  <path d="M0 17.55 c0 -0.55 0.20 -1.05 0.45 -1.05 0.90 0 1.05 0.90 0.30 1.50 -0.65 0.50 -0.75 0.45 -0.75 -0.45z"/>
  <path d="M10.35 7.20 c-0.20 -0.20 -0.35 -0.70 -0.35 -1.15 0 -0.55 0.15 -0.60 0.55 -0.20 0.30 0.30 0.50 0.80 0.35 1.15 -0.10 0.30 -0.35 0.40 -0.55 0.20z"/>
 </g>
 <g fill="#805a43">
  <path d="M4.15 36.50 c-1.45 -0.85 -2.95 -1.50 -3.40 -1.50 -0.40 0 -0.75 -0.45 -0.75 -1 0 -1.40 0.45 -1.30 3.70 1 2.45 1.75 2.95 1.90 3.80 1.35 0.55 -0.30 0.90 -0.90 0.75 -1.25 -0.10 -0.35 0.25 -0.80 0.85 -1.05 1 -0.35 0.90 -0.60 -2 -3.70 -2.10 -2.25 -3 -3.55 -2.75 -4.10 0.20 -0.60 0.65 -0.75 1.60 -0.50 1.85 0.45 2.50 1.25 1.05 1.25 -1.10 0 -0.85 0.35 2 3.25 1.75 1.80 3.55 3.20 3.95 3.10 0.35 -0.05 0.80 0.20 0.95 0.60 0.15 0.50 0 0.60 -0.60 0.40 -0.65 -0.25 -0.75 -0.10 -0.55 0.80 0.35 1.45 -0.45 2.60 -1.50 2.20 -0.45 -0.20 -0.65 -0.55 -0.50 -0.85 0.15 -0.25 0.20 -0.70 0 -1 -0.40 -0.65 -1.75 -0.05 -1.75 0.80 0 0.55 -1.45 1.70 -2.10 1.70 -0.10 0 -1.30 -0.70 -2.75 -1.50z"/>
  <path d="M15 31.45 c0 -1.75 1.40 -2.95 2.90 -2.40 1.20 0.45 1.45 1.90 0.50 2.85 -1 1 -1.85 0.70 -1.55 -0.50 0.25 -1.10 0.20 -1.10 -0.80 0.10 l-1.05 1.25 0 -1.30z"/>
  <path d="M33.70 28.65 c0.15 -0.20 0.05 -0.60 -0.25 -1 -0.45 -0.45 -0.40 -0.65 0 -0.65 0.30 0 0.55 -0.85 0.55 -1.85 0 -1.30 0.15 -1.70 0.45 -1.20 0.25 0.40 0.70 0.50 1.05 0.30 0.45 -0.25 0.55 -0.20 0.30 0.15 -0.20 0.35 -0.10 0.60 0.15 0.60 0.30 0 0.55 0.25 0.55 0.60 0 0.30 0.35 1 0.85 1.50 0.45 0.50 0.70 1 0.60 1.10 -0.35 0.30 -4.55 0.75 -4.25 0.45z"/>
  <path d="M30.95 25.80 c0.60 -0.70 0.25 -2.30 -0.50 -2.30 -0.20 0 -0.30 0.35 -0.15 0.75 0.30 0.75 -0.35 1.05 -0.95 0.40 -0.55 -0.50 0.65 -1.65 1.70 -1.65 0.75 0 0.95 0.35 0.95 1.75 0 1.30 -0.20 1.75 -0.80 1.75 -0.65 0 -0.70 -0.15 -0.25 -0.70z"/>
  <path d="M23 20.80 c-1.45 -0.55 -1.80 -0.90 -1.90 -2.35 l-0.20 -1.70 1.10 1.40 c0.60 0.75 1.30 1.35 1.65 1.35 1.20 0 3.85 -3.70 4.65 -6.55 0.95 -3.40 1.70 -3.85 1.70 -0.95 0 2 -1.45 5.45 -2.80 6.55 -0.65 0.55 -0.55 0.70 0.75 1.25 0.85 0.35 1.55 0.90 1.55 1.20 0 0.70 -4.35 0.55 -6.50 -0.20z"/>
  <path d="M29.30 7.20 c-0.15 -0.45 -0.30 -1.35 -0.30 -2 0 -0.70 -0.25 -1.70 -0.55 -2.25 -0.65 -1.25 -0.15 -2.95 0.90 -2.95 0.55 0 0.70 0.30 0.45 1.30 -0.20 0.70 -0.20 1.70 -0.05 2.20 0.25 0.80 0.50 0.85 2.40 0.25 1.70 -0.45 2.20 -0.90 2.60 -2.15 0.25 -0.90 0.75 -1.60 1.10 -1.60 0.80 0 0.80 -0.05 0.10 1.90 -0.35 1.10 -0.95 1.65 -2 1.85 -0.95 0.25 -1.75 0.95 -2.55 2.30 -1.20 2.10 -1.65 2.35 -2.10 1.15z"/>
 </g>
 <g fill="#a7744d">
  <path d="M11.30 36.85 c0.30 -0.80 -1.05 -2.10 -1.70 -1.70 -0.20 0.15 -0.70 0.10 -1.05 -0.15 -0.50 -0.30 -0.40 -0.45 0.40 -0.75 0.55 -0.15 1.05 -0.50 1.05 -0.70 0 -0.15 -1.25 -1.55 -2.75 -3.05 -1.50 -1.50 -2.75 -3.10 -2.75 -3.60 0 -0.55 1.25 0.40 3.65 2.75 4 4 5.25 6.05 4.30 7.15 -0.75 0.90 -1.50 0.90 -1.15 0.05z"/>
  <path d="M2.65 35.60 c-1.45 -0.70 -2.65 -1.60 -2.65 -1.95 0 -0.90 0.50 -0.80 2.25 0.30 2.20 1.45 4.05 3.05 3.50 3 -0.25 0 -1.70 -0.60 -3.10 -1.35z"/>
  <path d="M15.05 31.45 c-0.05 -1.55 1 -2.60 2.30 -2.35 1.05 0.20 1.30 2.95 0.30 3.30 -0.40 0.10 -0.65 -0.25 -0.65 -0.85 0 -1.40 -0.70 -1.35 -1.40 0.10 -0.55 1.10 -0.55 1.10 -0.55 -0.20z"/>
  <path d="M33.25 27.55 c-1 -1.15 -0.95 -1.55 0.25 -1.55 0.55 0 1 -0.35 1 -0.75 0 -1.25 0.65 -0.85 2.10 1.25 l1.35 1.95 -1.95 -0.05 c-1.20 0 -2.25 -0.35 -2.75 -0.85z"/>
  <path d="M23.50 20 c0 -0.55 1.55 -0.55 3.75 0 1.30 0.35 1.10 0.40 -1.10 0.45 -1.50 0 -2.65 -0.15 -2.65 -0.45z"/>
  <path d="M26.30 17.65 c0.70 -0.75 1.60 -2.65 2.05 -4.25 0.95 -3.35 1.65 -3.75 1.65 -1 0 1.30 -0.35 2.25 -1 2.85 -0.55 0.50 -1 1.30 -1 1.75 0 1.05 -0.95 2 -2.10 2 -0.70 0 -0.65 -0.20 0.40 -1.35z"/>
  <path d="M29.15 6.10 c0.15 -0.80 0 -2.05 -0.40 -2.80 -0.60 -1.10 -0.60 -1.55 -0.10 -2.35 1 -1.55 1.35 -1.10 1 1.35 l-0.30 2.30 1.60 -0.35 1.55 -0.35 -1.05 1.80 c-1.30 2.25 -2.70 2.45 -2.30 0.40z"/>
  <path d="M35.05 1.50 c0.30 -0.80 0.75 -1.50 0.95 -1.50 0.25 0 0.20 0.70 -0.05 1.50 -0.30 0.85 -0.75 1.50 -0.95 1.50 -0.25 0 -0.20 -0.65 0.05 -1.50z"/>
 </g>
 <g fill="#55a86d">
  <path d="M33.20 27.40 c-0.15 -0.20 -1.05 -0.40 -2.05 -0.40 -1.75 0 -1.75 0 -0.65 -0.90 1.75 -1.40 0.40 -3.35 -1.90 -2.75 -1.10 0.25 -1.80 1.95 -1.05 2.45 1.05 0.65 0.40 1.30 -0.90 0.90 -0.80 -0.20 -2.45 -0.30 -3.75 -0.25 -1.85 0.10 -2.55 -0.15 -3.25 -0.95 -1.05 -1.20 -1.65 -1.30 -1.65 -0.25 0 0.80 -0.45 0.95 -1.70 0.45 -0.45 -0.15 -0.65 -0.55 -0.45 -0.85 0.20 -0.30 0 -0.40 -0.55 -0.20 -1.30 0.50 -4.60 -1.75 -4 -2.70 0.30 -0.50 -0.65 -1.10 -4.65 -3.20 -2 -1.05 -4 -2.30 -4.45 -2.80 -0.50 -0.55 -1.15 -0.95 -1.55 -0.95 -0.35 0 -0.65 -0.20 -0.65 -0.50 0 -0.85 0.75 -0.60 2.90 1 1.15 0.80 2.20 1.30 2.30 1.05 0.15 -0.25 -0.95 -1.20 -2.45 -2.10 -1.50 -0.95 -2.75 -2 -2.75 -2.30 0 -1.05 0.80 -0.75 3.45 1.35 1.40 1.10 2.55 1.80 2.55 1.55 0 -0.30 -0.40 -0.70 -0.85 -1 -0.50 -0.25 -0.75 -0.60 -0.60 -0.75 0.15 -0.15 1.40 0.40 2.75 1.25 2.15 1.40 2.30 1.40 1.35 0.35 -0.65 -0.65 -1.15 -1.65 -1.15 -2.20 0 -1.10 -1.45 -3.35 -1.50 -2.30 0 0.95 -0.70 0.70 -1.30 -0.55 -0.30 -0.60 -1.30 -2.45 -2.15 -4.05 -1.75 -3.40 -2.05 -5.80 -0.65 -5.80 0.90 0 2.10 2.05 2.10 3.60 0 2.75 2.40 4.90 5.45 4.90 1.70 0 6.75 2.55 8.70 4.45 0.90 0.80 1.30 1 1.10 0.45 -0.20 -0.45 -1.20 -1.40 -2.30 -2.10 -1.05 -0.75 -1.95 -1.65 -1.95 -2 0 -0.40 -0.90 -2.35 -2.05 -4.30 -1.10 -2 -1.90 -3.70 -1.75 -3.85 0.30 -0.35 5.30 4.75 5.30 5.40 0 0.30 0.80 2.10 1.75 4.05 0.95 1.90 1.65 3.70 1.45 3.95 -0.50 0.85 3.30 4.95 4.60 4.95 0.85 0 1.20 0.30 1.20 1 0 0.65 -0.35 1 -1 1 -1.05 0 -1.45 1.65 -0.50 2.25 0.30 0.15 0.50 -0.05 0.50 -0.45 0 -0.40 0.45 -0.90 1 -1.05 0.55 -0.15 1 -0.75 1 -1.30 0 -1.20 1.25 -1.25 3.95 -0.15 2.30 0.90 5.70 4.50 5.30 5.60 -0.15 0.35 -0.25 0.85 -0.25 1.10 0 0.55 -2 0.45 -2.30 -0.10z m-14 -5.20 c0.45 -0.15 0.80 -0.60 0.80 -1 0 -0.40 0.25 -0.70 0.50 -0.70 0.95 0 0.50 -1.25 -0.60 -1.75 -0.65 -0.30 -1.25 -0.95 -1.35 -1.50 -0.10 -0.55 -0.45 -1.20 -0.85 -1.40 -0.40 -0.20 -0.70 -0.85 -0.70 -1.35 0 -0.60 -0.35 -1 -0.90 -1 -0.45 0 -1.15 -0.45 -1.50 -1 -0.35 -0.60 -1.15 -1 -1.90 -1 -1.10 0 -1.25 0.20 -1.10 1.60 0.15 1.35 0.40 1.65 2.15 2.10 2.40 0.70 3.35 2.20 3.15 5.20 -0.15 2.20 0.30 2.55 2.30 1.80z"/>
  <path d="M7 23.50 c0 -0.25 0.35 -0.50 0.75 -0.50 0.40 0 0.75 0.25 0.75 0.50 0 0.30 -0.35 0.50 -0.75 0.50 -0.40 0 -0.75 -0.20 -0.75 -0.50z"/>
  <path d="M7.25 21 c-2.40 -1.20 -5.10 -3.30 -4.70 -3.70 0.15 -0.15 1.10 0.40 2.15 1.25 1 0.85 2.90 2 4.20 2.50 1.30 0.50 1.90 0.90 1.35 0.95 -0.55 0 -1.90 -0.45 -3 -1z"/>
  <path d="M3.15 9.90 c-0.90 -1.20 -1.20 -1.90 -0.80 -1.90 0.50 0 1.80 2 1.50 2.30 -0.10 0.15 -0.45 -0.05 -0.70 -0.40z"/>
  <path d="M13.60 8.90 c-0.35 -0.35 -0.60 -0.85 -0.60 -1.15 0 -0.35 -0.70 -1.55 -1.55 -2.70 -0.85 -1.20 -1.40 -2.25 -1.30 -2.40 0.30 -0.30 1.95 2.05 3.30 4.75 1.10 2.20 1.15 2.50 0.15 1.50z"/>
  <path d="M0 4.75 c0 -0.40 0.25 -0.75 0.50 -0.75 0.30 0 0.50 0.35 0.50 0.75 0 0.40 -0.20 0.75 -0.50 0.75 -0.25 0 -0.50 -0.35 -0.50 -0.75z"/>
 </g>
 <g fill="#b99269">
  <path d="M11.35 36.55 c0.15 -0.55 -0.15 -1.20 -0.70 -1.60 -0.50 -0.40 -0.95 -1.30 -1.05 -2.05 -0.20 -2 1.15 -1.30 2.45 1.20 0.80 1.55 0.90 2.15 0.40 2.70 -0.80 1 -1.40 0.85 -1.10 -0.25z"/>
  <path d="M2.40 35.35 c-1.35 -0.55 -2.40 -1.35 -2.40 -1.70 0 -0.80 0 -0.80 1.85 0.10 1.20 0.60 3.85 2.90 3.10 2.70 -0.10 -0.05 -1.25 -0.50 -2.55 -1.10z"/>
  <path d="M17.10 31.70 c0.15 -0.85 1.05 -1.05 1.30 -0.30 0.05 0.25 -0.20 0.60 -0.65 0.80 -0.55 0.20 -0.75 0.05 -0.65 -0.50z"/>
  <path d="M15 31.55 c0 -1.10 1 -2.55 1.75 -2.55 1 0 0.95 0.25 -0.50 1.80 -0.70 0.75 -1.25 1.05 -1.25 0.75z"/>
  <path d="M5.30 28.20 c-0.75 -0.70 -1.10 -2.20 -0.60 -2.20 0.15 0 0.70 0.70 1.30 1.50 1.10 1.55 0.65 2.05 -0.70 0.70z"/>
  <path d="M35.70 28.10 c-1.65 -0.25 -2.65 -1.65 -2.35 -3.20 0.30 -1.65 0.55 -1.50 2.65 1.05 1.60 2.05 1.50 2.50 -0.30 2.15z"/>
  <path d="M30.75 23.50 c-0.20 -0.35 -0.95 -0.45 -1.80 -0.25 -0.90 0.20 -1.45 0.15 -1.45 -0.20 0 -0.70 3.35 -0.70 3.75 0 0.20 0.30 0.25 0.65 0.10 0.75 -0.15 0.15 -0.40 0 -0.60 -0.30z"/>
  <path d="M23 20.80 c0 -0.95 1.55 -1.45 3.20 -1 2.25 0.55 1.60 1.70 -0.95 1.70 -1.60 0 -2.25 -0.20 -2.25 -0.70z"/>
  <path d="M28.80 11.15 c0.35 -5.30 0.55 -6.05 1.75 -6.70 1.50 -0.80 1.65 -0.30 0.50 2 -0.65 1.25 -1.05 2.95 -1.05 4.50 0 2.70 -0.35 4.05 -1.05 4.05 -0.25 0 -0.30 -1.75 -0.15 -3.85z"/>
  <path d="M28.40 2.20 c-0.40 -0.35 0.65 -2.20 1.20 -2.20 0.60 0 0.50 0.70 -0.25 1.70 -0.35 0.45 -0.80 0.70 -0.95 0.50z"/>
 </g>
 <g fill="#e59449">
  <path d="M11.35 36 c-0.20 -0.70 -0.70 -1 -1.70 -1 -1.20 -0.05 -1.25 -0.10 -0.50 -0.55 0.45 -0.25 0.85 -0.70 0.85 -0.95 0 -0.25 -1.25 -1.75 -2.75 -3.30 -3.75 -3.95 -3.45 -4.55 0.45 -0.90 3.10 2.90 4.80 5.30 4.80 6.90 0 1.15 -0.85 1 -1.15 -0.20z"/>
  <path d="M15 31.45 c0 -1 1.05 -2.45 1.75 -2.45 1 0 0.95 0.25 -0.50 1.70 -0.70 0.70 -1.25 1 -1.25 0.75z"/>
  <path d="M35.75 28.10 c-1.30 -0.25 -2.80 -1.60 -2.45 -2.15 0.55 -0.90 2.20 -0.40 3 0.80 0.95 1.45 0.85 1.65 -0.55 1.35z"/>
 </g>
 <g fill="#72c58c">
  <path d="M33.45 26.70 c-0.30 -0.40 -0.90 -0.70 -1.25 -0.70 -0.40 0 -0.70 -0.40 -0.70 -0.95 0 -1.65 -1.20 -2.15 -3.50 -1.55 -1.60 0.45 -2 0.75 -1.75 1.45 0.45 1.40 -3.20 1.20 -4.60 -0.30 -0.65 -0.70 -1.20 -0.95 -1.40 -0.60 -0.20 0.30 -0.95 0.35 -1.75 0.20 -1.30 -0.30 -1.40 -0.20 -1.15 0.80 0.25 0.95 0.10 0.85 -1.25 -0.55 -0.95 -1 -1.85 -1.50 -2.35 -1.35 -0.45 0.20 -1.05 -0.15 -1.50 -0.85 -0.40 -0.60 -2.70 -2.20 -5.10 -3.45 -4.30 -2.30 -8.50 -5.25 -6.40 -4.55 0.55 0.20 1.70 0.90 2.55 1.55 1.65 1.25 2.20 1.40 2.20 0.70 0 -0.30 -1.25 -1.25 -2.75 -2.15 -1.50 -0.90 -2.75 -1.95 -2.75 -2.25 0 -0.35 0.15 -0.65 0.30 -0.65 0.55 0 5.15 3.55 5.85 4.45 0.30 0.45 1.85 1.70 3.35 2.75 2.75 1.95 2.75 1.95 -1 -1.65 l-3.75 -3.60 2.50 1.40 c1.40 0.75 3.30 2.20 4.25 3.20 0.95 1.05 2.30 2.05 2.90 2.20 1.05 0.30 1.15 0.20 0.85 -0.85 -0.50 -1.60 -1.40 -2.45 -2.80 -2.60 -1.65 -0.15 -2.45 -0.70 -2.45 -1.60 0 -0.45 -0.35 -1.10 -0.75 -1.55 -0.70 -0.70 -0.70 -0.85 0.10 -1.45 0.85 -0.70 0.80 -0.70 -0.35 -0.60 -1.10 0.15 -1.25 -0.05 -1.40 -1.45 -0.15 -1.50 -0.05 -1.65 1.25 -1.65 1.40 0.05 4.95 1.40 3.80 1.45 -1 0.05 -0.75 2.30 0.35 3.60 0.50 0.65 0.95 0.95 1 0.60 0 -0.30 0.50 -0.70 1.15 -0.80 1.05 -0.20 1.05 -0.20 0.05 -0.30 -0.80 -0.05 -1.15 -0.45 -1.30 -1.55 l-0.25 -1.50 2.05 1.20 c1.15 0.70 2.75 2.30 3.70 3.75 l1.65 2.55 -1.30 0 c-1.05 0 -1.25 0.25 -1.25 1.50 0 1.25 0.20 1.50 1.25 1.50 1 0 1.25 -0.25 1.25 -1.25 0 -1.50 0.75 -1.65 1.50 -0.25 0.30 0.55 0.80 1 1.15 0.95 1.50 -0.20 2.35 0.10 2.35 0.80 0 0.40 0.45 0.75 1 0.75 0.55 0 1 -0.20 1 -0.50 0 -0.75 1.35 -0.60 3.30 0.30 1.40 0.70 4.70 4.45 4.70 5.35 0 0.60 -2.05 0.65 -2.55 0.05z m-8.25 -4.45 c0.15 -0.45 0 -0.75 -0.45 -0.75 -0.40 0 -0.75 0.35 -0.75 0.75 0 0.40 0.20 0.75 0.45 0.75 0.25 0 0.55 -0.35 0.75 -0.75z"/>
  <path d="M4.60 19.30 c-2.30 -1.65 -2.60 -2.05 -0.80 -1.15 0.85 0.45 1.80 1.15 2.15 1.55 0.90 1.05 0.60 1 -1.35 -0.40z"/>
  <path d="M16.65 10.90 c-0.55 -0.65 -1.85 -2.70 -2.90 -4.65 -1.05 -1.90 -2.10 -3.80 -2.35 -4.10 -0.35 -0.45 -0.35 -0.65 0 -0.65 1 0 5.80 6.75 6.90 9.65 0.45 1.20 -0.45 1.05 -1.65 -0.25z"/>
  <path d="M3.45 6.20 c-1.20 -1.55 -2.50 -3.10 -2.80 -3.45 -1.10 -1.20 -0.80 -2.75 0.55 -2.75 0.85 0 1.35 0.45 1.85 1.65 0.40 0.85 0.65 1.80 0.55 2 -0.15 0.55 1.20 3.05 2.10 3.80 0.45 0.40 0.80 0.85 0.80 1.10 0 1.05 -1 0.25 -3.05 -2.35z"/>
  <path d="M10.75 4 c-0.50 -0.55 -0.80 -1.10 -0.65 -1.25 0.15 -0.15 0.65 0.30 1.10 1 1 1.50 0.80 1.60 -0.45 0.25z"/>
 </g>
 <g fill="#93e1ae">
  <path d="M32.50 25 c-2.35 -2.25 -4.50 -2.65 -6.20 -1.05 -1.50 1.35 -2.90 1.60 -4 0.80 -0.80 -0.60 -0.85 -0.90 -0.40 -1.35 0.35 -0.35 0.60 -0.80 0.60 -1 0 -0.70 -1 -0.40 -2 0.60 -1.20 1.20 -2.40 1.30 -2.80 0.25 -0.25 -0.55 -0.50 -0.60 -1.30 -0.20 -0.70 0.40 -1.15 0.40 -1.35 0.05 -0.20 -0.30 -0.95 -0.80 -1.70 -1.05 -0.80 -0.30 -1.25 -0.80 -1.10 -1.05 0.20 -0.30 0.05 -0.85 -0.25 -1.25 -0.45 -0.55 -0.45 -0.75 -0.05 -0.75 0.30 0 0.55 0.20 0.55 0.40 0 0.20 0.65 0.65 1.45 0.95 1.20 0.45 1.55 0.35 2.15 -0.35 0.65 -0.75 0.60 -1 -0.40 -2.15 -0.65 -0.75 -1.55 -1.35 -2.05 -1.35 -0.50 0 -1.65 -0.75 -2.55 -1.70 -1.55 -1.65 -2.10 -2.65 -1.10 -2.05 0.30 0.15 0.50 0.15 0.50 -0.10 0 -0.70 -0.70 -1.45 -1.65 -1.80 -0.45 -0.15 -0.85 -0.75 -0.85 -1.25 0 -0.85 0.25 -0.90 2.15 -0.60 3.75 0.55 9.85 4.70 8.65 5.85 -0.15 0.15 0.30 0.70 0.95 1.25 0.85 0.65 1.25 1.50 1.25 2.45 0 1.20 0.20 1.45 1.25 1.45 0.70 0 1.25 0.25 1.25 0.50 0 0.30 1.60 0.50 3.85 0.50 l3.85 0 2.40 2.50 c1.30 1.35 2.40 2.70 2.40 3 0 1.05 -1.50 0.40 -3.50 -1.50z"/>
  <path d="M7.75 19.10 c-1.90 -1.20 -2.65 -1.90 -2.15 -2 1.10 -0.20 3.35 1 4.85 2.60 1.65 1.75 0.90 1.60 -2.70 -0.60z"/>
  <path d="M8.10 16.65 c-2.55 -2.35 -2.70 -2.95 -0.40 -1.60 2.05 1.20 2.95 2.20 2.70 3 -0.10 0.30 -1.15 -0.35 -2.30 -1.40z"/>
  <path d="M1.95 15.65 l-1.20 -1.30 1.65 0.95 c0.85 0.50 1.60 1.10 1.60 1.30 0 0.75 -0.85 0.40 -2.05 -0.95z"/>
  <path d="M3.50 14.75 c-1.25 -0.95 -2.55 -1.75 -2.85 -1.75 -0.60 0 -0.95 -1.50 -0.40 -1.50 0.45 0 5.65 3.90 6 4.50 0.60 0.95 -0.50 0.45 -2.75 -1.25z"/>
  <path d="M16.80 10.95 c-0.70 -0.55 -1.30 -1.20 -1.30 -1.45 0 -0.20 -0.90 -2.05 -2.05 -4 -1.10 -2 -1.90 -3.70 -1.80 -3.85 0.35 -0.30 4.45 5.55 5.80 8.25 0.60 1.15 1 2.10 0.90 2.10 -0.15 0 -0.80 -0.45 -1.55 -1.05z"/>
  <path d="M3.95 6.65 c-2.20 -2.45 -2.90 -3.95 -2.55 -5.35 l0.35 -1.35 0.90 1.55 c0.75 1.25 0.80 1.45 0.10 1.20 -0.40 -0.15 -0.75 -0.10 -0.75 0.20 0 0.25 0.30 0.60 0.65 0.75 0.55 0.20 3.15 4.35 2.75 4.35 -0.15 0 -0.80 -0.60 -1.45 -1.35z"/>
 </g>
 <g fill="#dbc188">
  <path d="M11.50 36.45 c0 -0.65 -0.55 -2.05 -1.25 -3.05 -1.65 -2.45 -1.60 -2.90 0.25 -1.15 1.60 1.55 2.40 4.05 1.55 4.90 -0.40 0.40 -0.55 0.20 -0.55 -0.70z"/>
  <path d="M0.50 34 c-1.20 -0.75 -0.35 -0.90 1 -0.15 0.70 0.35 0.90 0.65 0.50 0.65 -0.40 0 -1.10 -0.20 -1.50 -0.50z"/>
  <path d="M35.75 27.35 c-0.50 -0.35 -1.25 -0.85 -1.60 -1.20 -0.70 -0.65 -0.90 -2.15 -0.25 -2.15 0.35 0 1.85 1.75 2.80 3.40 0.45 0.70 0.35 0.70 -0.95 -0.05z"/>
  <path d="M29.35 10.20 c-1.10 -1.15 0.05 -5.45 1.60 -5.85 1 -0.25 1 -0.20 0.30 1.20 -0.45 0.75 -0.95 2.25 -1.15 3.20 -0.20 1 -0.55 1.65 -0.75 1.45z"/>
 </g>
 <g fill="#bbf0cf">
  <path d="M32.60 24.70 c-1.90 -1.95 -2.45 -2.20 -4.40 -2.20 -1.60 0 -2.20 0.20 -2.20 0.75 0 0.95 -1.80 1.90 -3 1.50 -1.45 -0.45 -1.20 -1.30 0.25 -0.95 1.65 0.40 1.60 0.15 -0.30 -1.25 -1.15 -0.85 -1.65 -1 -2.15 -0.55 -0.85 0.65 -1.45 -0.50 -1.50 -3 -0.05 -1.20 -0.30 -1.80 -0.90 -1.90 -0.65 -0.10 -0.90 0.15 -0.90 0.95 0 1.05 -0.05 1.10 -1 0.20 -1.20 -1.10 -1.30 -2.25 -0.20 -2.25 1.10 0 0.60 -1.15 -0.70 -1.75 -0.65 -0.30 -1 -0.80 -0.85 -1.20 0.15 -0.35 -0.15 -0.95 -0.60 -1.30 -0.50 -0.40 -0.75 -0.80 -0.55 -1 0.50 -0.55 3.20 1.10 4.50 2.75 0.60 0.85 1.90 2.40 2.80 3.45 0.85 1.05 1.60 2.15 1.60 2.40 0 0.30 1.50 0.65 3.30 0.85 1.85 0.20 4.05 0.65 4.90 1 2.10 0.90 4.40 3.45 4.20 4.70 -0.15 0.85 -0.45 0.65 -2.30 -1.20z"/>
  <path d="M14.40 21.85 c-1.05 -0.25 -1.90 -0.75 -1.90 -1.10 0 -0.35 -0.85 -1.25 -1.85 -2 -1.95 -1.45 -4.95 -4.25 -4.55 -4.25 0.95 0 3.55 1.85 5.30 3.70 2.35 2.50 4 3.30 4.65 2.25 0.30 -0.50 0.65 -0.55 1.20 -0.20 2 1.25 0.05 2.35 -2.85 1.60z"/>
  <path d="M7.75 18.90 c-1.35 -0.85 -2.20 -1.65 -1.90 -1.75 0.70 -0.25 3.70 1.45 4.65 2.60 1 1.20 -0.05 0.85 -2.75 -0.85z"/>
  <path d="M2.50 16.25 c-1 -1.20 -0.30 -1.40 0.75 -0.25 0.50 0.55 0.65 1 0.40 1 -0.30 0 -0.80 -0.35 -1.15 -0.75z"/>
  <path d="M2.85 14.20 c-2.45 -1.50 -3.55 -2.70 -2.60 -2.70 0.40 0 5.75 4 5.75 4.25 0 0.40 -0.15 0.30 -3.15 -1.55z"/>
  <path d="M11.90 14.70 c-0.50 -0.45 0.20 -2.20 0.90 -2.20 1 0 1.35 0.95 0.70 1.75 -0.65 0.80 -1.15 0.95 -1.60 0.45z"/>
  <path d="M16.60 10.90 c-1.20 -1.50 -5 -8.95 -4.25 -8.35 0.95 0.80 5.65 7.85 5.65 8.50 0 0.65 -0.80 0.55 -1.40 -0.15z"/>
  <path d="M3 5.25 c-0.80 -0.85 -1.25 -1.95 -1.30 -3.30 -0.10 -1.75 0 -1.90 0.55 -1.10 0.40 0.50 0.45 1 0.20 1.05 -0.60 0.25 -0.60 1.60 0.05 1.60 0.25 0 0.80 0.70 1.25 1.50 0.95 1.85 0.80 1.90 -0.75 0.25z"/>
 </g>
 <g fill="#e1faee">
  <path d="M33.20 24.65 c-1.70 -1.75 -3.50 -2.65 -5.30 -2.65 -1 0 -2 0.25 -2.15 0.50 -0.45 0.75 -2.05 0.60 -2.75 -0.25 -0.35 -0.40 -1 -0.75 -1.50 -0.75 -0.65 0 -1.05 -0.65 -1.45 -2.20 -0.60 -2.45 -1.35 -3.20 -2.20 -2.35 -0.30 0.30 -0.90 0.55 -1.35 0.55 -0.55 -0.05 -0.50 -0.25 0.35 -0.95 0.75 -0.65 0.95 -1.05 0.55 -1.45 -0.30 -0.30 -0.35 -0.95 -0.20 -1.45 0.35 -0.85 0.45 -0.80 1.35 0.30 0.50 0.65 0.95 1.40 0.95 1.75 0 0.30 0.70 1.20 1.50 2 0.85 0.80 1.50 1.65 1.50 1.90 0 0.20 1.20 0.40 2.65 0.40 3.25 0 7.30 1.80 8.80 3.95 1.20 1.65 0.70 2.10 -0.75 0.70z"/>
  <path d="M7.90 18.70 c-0.80 -0.40 -1.40 -0.85 -1.40 -0.95 0 -0.55 0.95 -0.20 2.05 0.75 1.45 1.15 1.20 1.25 -0.65 0.20z"/>
  <path d="M9.90 18.10 c-1.05 -0.75 -2 -1.65 -2.10 -1.95 -0.50 -1.25 0.75 -0.65 2.85 1.35 2.40 2.25 2 2.60 -0.75 0.60z"/>
  <path d="M2.25 13.70 c-1.35 -0.90 -2.15 -1.70 -1.70 -1.70 0.45 0 1.65 0.80 2.75 1.75 2.45 2.15 2.15 2.15 -1.05 -0.05z"/>
  <path d="M12 14.05 c0 -0.60 0.30 -1.05 0.75 -1.05 0.40 0 0.75 0.20 0.75 0.45 0 0.25 -0.35 0.70 -0.75 1.05 -0.65 0.50 -0.75 0.45 -0.75 -0.45z"/>
  <path d="M15.45 13.75 c-0.05 -0.15 -0.10 -0.40 -0.15 -0.60 -0.05 -0.25 -0.25 -0.70 -0.50 -1.05 -0.65 -1.05 -0.05 -1.20 1.10 -0.25 0.90 0.80 0.95 1 0.35 1.55 -0.40 0.35 -0.80 0.50 -0.80 0.35z"/>
  <path d="M16.35 9.90 c-1.25 -1.65 -3.85 -6.60 -3 -5.65 1.70 1.90 5 7.25 4.45 7.25 -0.15 0 -0.80 -0.75 -1.45 -1.60z"/>
 </g>
</svg>