<?xml version="1.0" encoding="utf-8"?>
<!DOCTYPE svg PUBLIC "-//W3C//DTD SVG 1.0//EN" "http://www.w3.org/TR/2001/REC-SVG-20010904/DTD/svg10.dtd">
<svg version="1.0" xmlns="http://www.w3.org/2000/svg" width="40px" height="40px" viewBox="0 0 40 40" preserveAspectRatio="xMidYMid meet">
 <g fill="#0d0908">
  <path d="M22.15 30.15 c-1.75 -0.15 -2.15 -0.40 -2.15 -1.20 0 -0.85 0.40 -0.95 4.25 -0.95 4.20 0 4.25 0 4.25 1.25 0 1.35 -0.50 1.40 -6.35 0.90z"/>
  <path d="M30.50 29.30 c0 -1.15 0.20 -1.30 1.75 -1.30 1.85 0 2.50 1.15 0.90 1.65 -0.50 0.10 -1.30 0.40 -1.75 0.60 -0.75 0.30 -0.90 0.10 -0.90 -0.95z"/>
  <path d="M27.10 26.90 c-0.30 -0.30 -0.60 -1.45 -0.60 -2.50 0 -1.90 0 -1.90 2 -1.90 1.10 0 2 0.25 2 0.50 0 0.30 0.45 0.50 1.05 0.50 0.85 0 1 0.25 0.85 1.90 -0.15 1.80 -0.20 1.85 -2.40 2 -1.30 0.10 -2.50 -0.10 -2.90 -0.50z"/>
  <path d="M1.10 22.35 c-1.45 -1.55 -1.40 -2.35 0.15 -2.35 1.10 0 1.25 0.20 1.25 1.75 0 0.95 -0.05 1.75 -0.15 1.75 -0.10 0 -0.65 -0.50 -1.25 -1.15z"/>
  <path d="M21 18.50 c0 -0.55 -0.30 -1 -0.70 -1 -0.85 0 -1.30 -1.10 -1.30 -3.05 0 -2.05 0.75 -1.80 2.10 0.70 0.65 1.15 1.65 2.30 2.30 2.60 1.70 0.75 1.35 1.75 -0.65 1.75 -1.40 0 -1.75 -0.20 -1.75 -1z"/>
  <path d="M10.85 10.15 c-0.20 -0.15 -0.35 -1.10 -0.35 -2 0 -1.65 0.05 -1.70 1.90 -1.55 1.75 0.15 1.85 0.25 2 2.05 0.15 1.80 0.10 1.85 -1.55 1.85 -0.90 0 -1.85 -0.15 -2 -0.35z"/>
  <path d="M16.50 8.75 c0 -2.65 0.65 -2.30 2.40 1.40 0.10 0.20 -0.40 0.35 -1.10 0.35 -1.15 0 -1.30 -0.20 -1.30 -1.75z"/>
 </g>
 <g fill="#2d2010">
  <path d="M3.15 36.70 c-1.90 -1.40 -3.15 -2.70 -3.15 -3.25 0 -1.25 0.15 -1.25 3.20 0.80 2.80 1.85 4.30 2.20 4.30 1 0 -0.40 0.45 -0.95 1 -1.25 0.90 -0.45 1 -0.40 1 0.75 0 0.90 0.25 1.25 1 1.25 0.55 0 1 -0.35 1 -0.75 0 -0.40 -0.20 -0.75 -0.50 -0.75 -0.25 0 -0.50 -0.70 -0.50 -1.50 0 -1.50 0 -1.50 1.25 -0.70 1.50 1 2.75 0.30 2.75 -1.55 0 -0.75 0.50 -1.40 1.65 -1.95 1 -0.50 1.30 -0.80 0.70 -0.80 -0.50 0 -0.75 -0.20 -0.60 -0.50 0.35 -0.55 3.20 -0.70 4.45 -0.20 0.45 0.15 0.80 0.85 0.80 1.55 0 1 -0.20 1.20 -0.95 1 -0.80 -0.20 -1.05 0.05 -1.15 1.05 -0.10 1 -0.55 1.45 -1.90 1.80 -1.65 0.50 -3.30 1.90 -5 4.30 -0.50 0.65 -1.45 1.10 -2.75 1.20 -1.10 0.10 -2.35 0.35 -2.75 0.50 -0.45 0.20 -1.95 -0.60 -3.85 -2z"/>
  <path d="M5.90 29.60 c-1.95 -2.05 -2.40 -2.90 -2.40 -4.35 0 -1.10 -0.25 -1.75 -0.65 -1.75 -0.85 0 -2.85 -2.30 -2.85 -3.25 0 -0.45 0.50 -0.75 1.25 -0.75 0.90 0 1.25 0.25 1.25 1 0 0.65 0.35 1 1 1 0.55 0 1 0.35 1 0.75 0 0.45 0.45 0.75 1.25 0.75 1.10 0 1.25 0.20 1.25 1.75 0 0.95 -0.20 1.75 -0.50 1.75 -0.90 0 -0.50 1.05 0.80 2.15 0.85 0.75 1.25 1.50 1.10 2.30 -0.15 1.10 -0.30 1 -2.50 -1.35z"/>
  <path d="M24.20 30.05 c0.20 -0.25 -0.15 -0.35 -0.70 -0.20 -0.70 0.20 -1 0 -1 -0.55 0 -0.60 0.50 -0.80 2.25 -0.80 1.25 0 2.25 0.25 2.25 0.50 0 0.30 -0.30 0.50 -0.60 0.50 -0.45 0 -0.40 0.20 0.10 0.50 0.55 0.35 0.35 0.50 -0.90 0.50 -0.90 0 -1.55 -0.20 -1.40 -0.45z"/>
  <path d="M28 29.50 c0 -0.85 0.35 -1 2 -1 1.10 0 2 -0.20 2 -0.50 0 -0.25 0.90 -0.50 2 -0.50 1.25 0 2.10 -0.30 2.40 -0.75 0.35 -0.70 0.55 -0.65 1.35 0.25 1.25 1.40 0.50 2 -2.75 2.25 -1.45 0.10 -2.90 0.45 -3.20 0.75 -0.25 0.25 -1.25 0.50 -2.15 0.50 -1.30 0 -1.65 -0.20 -1.65 -1z"/>
  <path d="M9 26.95 c0 -0.80 0.35 -0.95 2.50 -0.95 2.10 0 2.50 0.15 2.50 0.95 0 0.80 -0.40 0.95 -2.50 0.95 -2.15 0.05 -2.50 -0.10 -2.50 -0.95z"/>
  <path d="M30 25.90 c1.25 -0.55 1.25 -0.55 0.15 -0.75 -0.75 -0.15 -1.15 -0.60 -1.15 -1.20 0 -0.75 0.35 -0.95 1.75 -0.95 1.65 0 1.75 0.10 1.75 1.75 0 1.70 -0.05 1.75 -1.85 1.70 -1.80 0 -1.85 -0.05 -0.65 -0.55z"/>
  <path d="M30.50 22 c0 -0.25 -0.65 -0.50 -1.50 -0.50 -1.15 0 -1.50 -0.20 -1.50 -1 0 -0.55 0.25 -1 0.55 -1 1.40 0 4.50 1.25 5.25 2.10 0.80 0.85 0.75 0.90 -0.95 0.90 -1.05 0 -1.85 -0.20 -1.85 -0.50z"/>
  <path d="M22.50 19.50 c0 -0.25 -0.45 -0.50 -1 -0.50 -0.85 0 -1 -0.35 -1 -1.85 l0.05 -1.90 1.20 1.40 c2.40 2.70 5.10 1.15 6.20 -3.55 0.85 -3.65 0.95 -8.50 0.20 -9.90 -0.75 -1.45 0 -3.20 1.40 -3.20 0.70 0 0.80 0.35 0.60 2.05 l-0.30 2.05 1.70 -0.35 c0.95 -0.20 2.05 -0.65 2.50 -1.05 1.10 -0.95 1.80 -0.85 2.10 0.30 0.20 0.80 0 1 -1 1 -0.80 0 -1.90 0.65 -2.95 1.80 -1.60 1.70 -2.15 3.65 -1.75 6.60 0.15 0.90 -1.95 5.10 -2.50 5.10 -0.25 0 -0.45 0.40 -0.45 0.95 0 0.55 -0.45 1.05 -1.10 1.25 -1.80 0.45 -3.90 0.35 -3.90 -0.20z"/>
  <path d="M18 12.20 c0 -2.20 0.90 -2.10 1.85 0.20 0.65 1.55 0.60 1.60 -0.60 1.60 -1.10 0 -1.25 -0.20 -1.25 -1.80z"/>
  <path d="M10.15 9.55 c-0.15 -0.70 -0.65 -1.05 -1.45 -1.05 -1.40 0 -1.65 -1.25 -0.30 -1.60 0.65 -0.20 0.95 -0.75 1 -2.05 0.05 -1 -0.15 -1.95 -0.40 -2.10 -0.80 -0.50 -0.60 -1.75 0.25 -1.75 0.40 0 0.75 -0.20 0.75 -0.50 0 -0.75 1.45 -0.60 2.30 0.20 0.95 1 0.90 1.30 -0.30 1.30 -0.65 0 -1 0.35 -1 1 0 0.65 0.35 1 1 1 1.25 0 2.60 2.55 2.40 4.65 -0.15 1.45 -0.30 1.60 -2.05 1.75 -1.60 0.15 -1.95 0 -2.20 -0.85z"/>
  <path d="M3.80 5.70 c-0.45 -1.10 -0.35 -3.70 0.10 -3.70 0.20 0 0.95 1 1.70 2.25 l1.40 2.25 -1.45 0 c-0.85 0 -1.55 -0.30 -1.75 -0.80z"/>
 </g>
 <g fill="#3e331b">
  <path d="M10.35 37.65 c-0.85 -0.80 -0.25 -1.65 1.15 -1.65 1.60 0 1.85 0.45 0.90 1.40 -0.65 0.65 -1.55 0.80 -2.05 0.25z"/>
  <path d="M16.40 32.65 c-0.50 -0.15 -0.90 -0.60 -0.90 -1.05 0 -0.65 0.10 -0.70 0.45 -0.15 0.30 0.45 0.55 0.50 0.75 0.10 0.45 -0.70 2.30 -0.75 2.30 -0.05 0 0.65 -1.60 1.35 -2.60 1.15z"/>
  <path d="M16.90 30.15 c-0.90 -0.25 -1.25 -1.65 -0.45 -1.65 1 0 3.05 1 3.05 1.50 0 0.50 -1.05 0.55 -2.60 0.15z"/>
  <path d="M25.10 30.10 c-0.35 -0.25 -1.60 -0.35 -2.85 -0.30 -1.25 0.10 -2.25 -0.05 -2.25 -0.30 0 -0.85 -3.60 -1.60 -8 -1.60 -3.40 -0.05 -4.50 -0.20 -4.50 -0.75 0 -0.40 -0.60 -0.65 -1.75 -0.65 -1.85 0 -2.50 -1.25 -0.85 -1.65 0.65 -0.20 0.55 -0.25 -0.25 -0.30 -0.65 0 -1.15 -0.30 -1.15 -0.55 0 -0.30 -0.55 -0.75 -1.25 -1 -0.70 -0.25 -1.25 -0.80 -1.25 -1.25 0 -0.40 -0.20 -0.75 -0.50 -0.75 -0.25 0 -0.50 -0.80 -0.50 -1.75 0 -1.55 0.15 -1.75 1.25 -1.75 0.80 0 1.25 0.30 1.25 0.75 0 0.55 0.55 0.75 1.90 0.75 2.40 0 4.30 1 4.50 2.35 0.10 0.80 0.55 1.15 1.75 1.25 1.30 0.10 1.65 0.40 1.75 1.45 0.15 1.45 1.15 1.95 4 1.95 0.90 0 2.45 0.35 3.45 0.75 0.95 0.40 2.95 0.75 4.40 0.75 2.40 0 2.65 -0.10 2.40 -1 -0.15 -0.55 -0.10 -1.80 0.05 -2.75 0.25 -1.30 0.60 -1.75 1.30 -1.75 0.65 0 1 -0.35 1 -1 0 -1.95 3.05 -0.80 5.95 2.20 l1.75 1.80 -1.85 0 c-1.30 0 -1.85 -0.20 -1.85 -0.75 0 -0.40 -0.35 -0.75 -0.75 -0.75 -0.35 0 -0.95 -0.40 -1.20 -0.85 -0.45 -0.80 -0.50 -0.80 -0.55 0.25 0 0.75 0.30 1.10 1 1.10 0.80 0 1 0.35 1 1.75 0 1.70 -0.05 1.75 -2.05 1.75 -1.10 0 -1.90 0.20 -1.75 0.45 0.15 0.25 1.30 0.30 2.55 0.15 1.80 -0.20 2.25 -0.10 2.25 0.55 0 1.25 -6.80 2.45 -8.40 1.45z m5.80 -5 c0.10 -0.40 -0.10 -0.50 -0.65 -0.30 -0.50 0.20 -1.05 0.05 -1.25 -0.35 -0.25 -0.35 -0.60 -0.50 -0.80 -0.30 -0.50 0.50 0.85 1.90 1.70 1.75 0.45 -0.10 0.85 -0.45 1 -0.80z"/>
  <path d="M20 16.75 c0 -0.95 0.25 -1.75 0.50 -1.75 0.30 0 0.50 0.20 0.50 0.45 0 0.20 0.55 1 1.25 1.75 l1.20 1.30 -1.70 0 c-1.65 0 -1.75 -0.10 -1.75 -1.75z"/>
  <path d="M17.30 12.20 c-0.45 -1.25 -0.35 -3.70 0.20 -3.70 0.50 0 1.20 1.10 2 3.20 0.45 1.15 0.35 1.30 -0.70 1.30 -0.65 0 -1.35 -0.35 -1.50 -0.80z"/>
  <path d="M11.50 10.55 c0 -0.25 -1.10 -0.55 -2.50 -0.75 -1.60 -0.20 -2.50 -0.60 -2.50 -1 0 -0.40 -0.45 -0.80 -1 -0.95 -0.70 -0.15 -1 -0.70 -1 -1.55 0 -0.75 -0.30 -1.30 -0.65 -1.30 -0.85 0 -1.85 -2.10 -1.85 -3.75 0 -1.95 1.25 -1.45 2.30 0.85 1.25 2.75 3.05 4.90 4.15 4.90 0.70 0 0.90 -0.45 0.95 -2.25 0 -1.25 -0.20 -2.35 -0.45 -2.55 -0.25 -0.15 -0.45 -0.50 -0.45 -0.75 0 -0.30 0.25 -0.35 0.50 -0.20 0.30 0.15 0.65 -0.05 0.80 -0.45 0.45 -1.15 1.25 -1 3.30 0.70 1.55 1.25 4.40 5.30 4.40 6.20 0 0.15 -0.55 0.30 -1.25 0.30 -1.05 0 -1.25 0.25 -1.25 1.50 0 1.40 -0.15 1.50 -1.75 1.50 -0.95 0 -1.75 -0.20 -1.75 -0.45z m1.50 -1.80 c0 -0.50 -1.50 -3.25 -1.80 -3.25 -0.10 0 0 0.45 0.30 1 0.30 0.50 0.50 1.15 0.45 1.35 -0.15 0.75 0.05 1.15 0.55 1.15 0.30 0 0.50 -0.10 0.50 -0.25z m2 -2.75 c0 -1.20 -0.20 -1.50 -1.05 -1.50 -0.75 0 -0.95 0.20 -0.75 0.80 0.15 0.45 0.30 1.10 0.30 1.50 0 0.40 0.35 0.70 0.75 0.70 0.50 0 0.75 -0.50 0.75 -1.50z"/>
  <path d="M28.50 9.90 c0 -1.65 0.70 -2.90 1.50 -2.90 0.80 0 0.85 0.20 0.35 1.75 -0.50 1.65 -1.85 2.50 -1.85 1.15z"/>
 </g>
 <g fill="#4f3b29">
  <path d="M4.80 37.55 c-0.55 -0.60 -1.80 -1.45 -2.85 -1.90 -1.45 -0.65 -1.95 -1.15 -1.95 -2 l0 -1.15 1.90 1 c1 0.55 2.45 1.50 3.20 2.10 1.10 0.90 1.50 0.95 2.10 0.40 0.45 -0.35 0.65 -0.80 0.55 -1.05 -0.15 -0.20 0.20 -0.65 0.75 -0.95 0.85 -0.45 0.95 -0.70 0.50 -1.25 -0.30 -0.40 -0.50 -1.15 -0.40 -1.75 0.15 -1 0.25 -0.95 1.90 0.45 0.95 0.85 2.10 1.50 2.55 1.55 1.05 0 1.95 -1 1.95 -2.30 0 -1.60 1.20 -2.40 2.85 -1.85 2.40 0.80 1.90 3.65 -0.60 3.65 -1.30 0 -4 2.45 -4.50 4 -0.20 0.55 -0.60 1.05 -0.90 1.05 -0.35 0.05 -1.25 0.15 -2.10 0.20 -0.80 0.10 -2.05 0.30 -2.75 0.50 -0.95 0.25 -1.50 0.05 -2.20 -0.70z"/>
  <path d="M25 29.95 c-0.55 -0.35 -0.30 -0.40 0.95 -0.20 1.15 0.25 1.55 0.20 1.35 -0.20 -0.20 -0.30 -1.70 -0.55 -3.35 -0.55 -1.90 0 -2.90 0.20 -2.70 0.50 0.15 0.30 -0.05 0.50 -0.45 0.50 -0.45 0 -0.80 -0.25 -0.80 -0.55 0 -0.25 -0.85 -0.85 -1.85 -1.35 -1.80 -0.75 -1.80 -0.80 -0.65 -1 0.65 -0.10 1.30 0.05 1.40 0.35 0.10 0.30 1.40 0.55 3 0.55 4.50 0 8.10 0.55 8.10 1.25 0 1.15 -3.65 1.65 -5 0.70z"/>
  <path d="M31.50 28.55 c0 -0.65 0.45 -1.05 1.65 -1.25 1.55 -0.30 1.65 -0.40 1.45 -2.05 -0.30 -2.45 0.60 -2.20 2.35 0.60 1.70 2.75 1.65 2.85 -2.55 3.35 -2.65 0.30 -2.90 0.20 -2.90 -0.65z"/>
  <path d="M4.50 28.05 c-0.90 -1.70 -0.60 -3.05 0.65 -3.05 1.05 -0.05 1.10 -0.05 0.15 -0.75 -0.95 -0.75 -0.95 -0.75 0.10 -0.75 0.75 0 1.10 0.30 1.10 0.95 0 0.80 0.40 1 2.10 1.15 1.60 0.10 2.20 0.40 2.30 1.05 0.15 0.75 0 0.90 -0.90 0.60 -0.75 -0.25 -1 -0.20 -0.80 0.20 0.50 0.75 -1.35 0.70 -2.10 -0.05 -0.35 -0.35 -0.60 -0.40 -0.60 -0.10 0 0.25 0.25 0.75 0.60 1.10 0.45 0.45 0.30 0.60 -0.75 0.60 -0.80 0 -1.50 -0.40 -1.85 -0.95z"/>
  <path d="M26.40 21.15 c-0.50 -0.10 -0.90 -0.45 -0.90 -0.70 0 -0.25 -0.90 -0.45 -2 -0.45 -1.90 0 -2 -0.10 -2 -1.45 0 -1.45 0.05 -1.45 1.30 -0.80 1.50 0.75 2.60 0.50 3.80 -1 0.80 -0.95 2.05 -5.05 2.10 -6.95 0.05 -0.55 0.35 -1.05 0.70 -1.15 1.20 -0.45 0.75 5.40 -0.65 8.05 -0.70 1.30 -1.25 2.45 -1.25 2.55 0 0.10 0.70 0.30 1.50 0.50 2.10 0.45 2 1.75 -0.10 1.70 -0.90 -0.05 -2.05 -0.15 -2.50 -0.30z"/>
  <path d="M18.50 13.70 c0 -2.20 0.90 -2.10 1.85 0.20 0.65 1.55 0.60 1.60 -0.60 1.60 -1.10 0 -1.25 -0.20 -1.25 -1.80z"/>
  <path d="M30 6.50 c0 -0.55 -0.20 -1 -0.40 -1 -0.65 0 -1.70 -3.45 -1.35 -4.50 0.15 -0.55 0.75 -1 1.25 -1 0.85 0 0.90 0.20 0.50 1.25 -0.75 1.95 -0.15 2.85 1.70 2.45 1.90 -0.40 3.30 -1.55 3.30 -2.80 0 -0.50 0.35 -0.90 0.80 -0.90 0.60 0 0.75 0.30 0.50 1.15 -0.15 0.60 -0.30 1.35 -0.30 1.70 0 0.30 -0.80 0.85 -1.75 1.15 -1 0.35 -2.10 1.20 -2.60 2.05 -1 1.70 -1.65 1.85 -1.65 0.45z"/>
  <path d="M13.50 4 c0 -1.10 0.20 -1.40 0.75 -1.20 0.70 0.30 1.75 1.75 1.75 2.40 0 0.15 -0.55 0.30 -1.25 0.30 -1.05 0 -1.25 -0.25 -1.25 -1.50z"/>
 </g>
 <g fill="#564c17">
  <path d="M11 36.50 c0 -1.15 0.20 -1.50 1 -1.50 0.65 0 1 0.35 1 1 0 0.50 -0.45 1.20 -1 1.50 -0.90 0.50 -1 0.40 -1 -1z"/>
  <path d="M17.40 29.95 c-1.30 -0.75 -1.10 -1.35 0.35 -1.05 0.70 0.10 1.25 0.55 1.25 0.90 0 0.80 -0.40 0.85 -1.60 0.15z"/>
  <path d="M27.20 29.45 c-0.15 -0.30 -1.65 -0.50 -3.65 -0.40 -2.10 0.05 -3.90 -0.20 -5.05 -0.70 -0.95 -0.40 -2.35 -0.65 -3.10 -0.50 -0.75 0.15 -1.80 0.10 -2.25 -0.10 -1.45 -0.60 -7.20 -0.70 -6.85 -0.15 0.15 0.25 -0.15 0.20 -0.75 -0.20 -1.25 -0.80 -1.35 -1.70 -0.20 -2.30 0.70 -0.40 0.40 -0.70 -1.65 -1.75 -2.80 -1.45 -4.20 -3.20 -3.10 -3.90 0.50 -0.35 0.50 -0.45 0.05 -0.45 -0.45 0 -0.65 -0.90 -0.65 -2.75 0 -2.15 0.15 -2.75 0.80 -2.75 1.45 0 2.70 1.05 2.70 2.25 0 1.10 0.25 1.25 1.70 1.25 2.30 0 3.30 0.45 3.30 1.45 0 1.65 1.25 3.50 2.55 3.80 0.75 0.15 1.70 0.70 2.20 1.25 0.55 0.60 1.90 1.05 3.90 1.25 1.70 0.20 3.55 0.70 4.10 1.05 0.55 0.40 1.80 0.70 2.85 0.70 1.80 0 1.85 -0.05 2 -2.10 0.10 -1.80 0.35 -2.20 1.30 -2.30 0.70 -0.10 1.10 -0.50 1.10 -1.15 0 -1.80 2.70 -0.95 5.75 1.75 l2 1.80 -1.85 0 c-1.35 0 -1.90 0.20 -1.90 0.75 0 0.40 -0.35 0.75 -0.75 0.75 -0.40 0 -0.75 -0.30 -0.75 -0.70 0 -0.45 -0.35 -0.60 -0.95 -0.45 -0.65 0.15 -1.05 -0.05 -1.20 -0.70 -0.20 -0.85 -0.20 -0.85 -0.60 0.05 -0.30 0.65 -0.15 1.15 0.50 1.60 0.85 0.65 0.85 0.70 -0.55 0.80 -0.80 0.05 0.10 0.20 2.05 0.35 2.70 0.25 3.55 0.50 3.65 1.10 0.30 1.50 -5.85 2.75 -6.70 1.40z m-20.30 -6.90 c0.95 -0.60 -0.35 -1.55 -2.75 -1.90 -2.05 -0.30 -2 0 0.20 1.40 1.65 1.05 1.70 1.05 2.55 0.50z"/>
  <path d="M20.50 18.25 c0 -0.80 -0.30 -1.25 -0.75 -1.25 -0.50 0 -0.75 -0.55 -0.75 -1.75 0 -2.30 0.75 -2.20 2 0.25 0.55 1.10 1.45 2.30 2 2.60 1.45 0.95 1.20 1.40 -0.75 1.40 -1.55 0 -1.75 -0.15 -1.75 -1.25z"/>
  <path d="M16.95 11.65 c0 -0.55 -0.15 -0.65 -0.30 -0.25 -0.35 0.90 -2.90 0.75 -5.05 -0.35 -1 -0.50 -2.70 -1.05 -3.70 -1.25 -1.45 -0.25 -1.95 -0.65 -2.20 -1.55 -0.15 -0.70 -0.60 -1.25 -1 -1.25 -0.45 0 -0.70 -0.60 -0.70 -1.75 0 -2 0.70 -2.25 1.55 -0.60 0.35 0.60 1.15 1.60 1.80 2.25 0.95 0.90 1.35 1 1.80 0.50 0.85 -0.90 0.70 -4.90 -0.20 -5.45 -0.50 -0.30 -0.40 -0.45 0.50 -0.45 0.80 0 1.05 -0.20 0.85 -0.75 -0.15 -0.40 -0.05 -0.75 0.25 -0.75 0.60 0 1.35 0.60 3.75 3 1.55 1.50 1.65 1.75 0.85 2.05 -0.80 0.35 -0.75 0.40 0.20 0.40 0.85 0.05 1.45 0.80 2.60 3.25 0.85 1.75 1.55 3.35 1.55 3.50 0 0.15 -0.55 0.30 -1.25 0.30 -0.85 0 -1.25 -0.30 -1.30 -0.85z m-4.55 -4.40 c-0.60 -1.25 -1.30 -2.25 -1.50 -2.25 -0.25 0 -0.20 0.45 0.10 0.95 0.75 1.40 0.60 2.05 -0.35 2.10 -0.50 0 -0.10 0.30 0.85 0.65 0.95 0.40 1.80 0.70 1.85 0.75 0.10 0 -0.35 -0.95 -0.95 -2.20z"/>
  <path d="M0 8.50 c0 -3.40 0.05 -3.50 1.25 -3.50 0.80 0 1.25 0.30 1.25 0.75 0 0.40 0.25 0.75 0.50 0.75 0.85 0 0.55 3.40 -0.35 4.50 -0.50 0.55 -1.25 1 -1.75 1 -0.80 0 -0.90 -0.50 -0.90 -3.50z"/>
  <path d="M28.85 10.50 c-0.35 -1.45 0.15 -3 1 -3 0.50 0 0.65 0.30 0.45 0.80 -0.15 0.45 -0.30 1.35 -0.30 2 0 1.45 -0.80 1.60 -1.15 0.20z"/>
 </g>
 <g fill="#5e4e3c">
  <path d="M10.50 37.25 c-0.35 -0.40 -0.45 -0.95 -0.25 -1.25 0.65 -1.05 -0.65 -0.45 -1.40 0.65 -0.95 1.45 -1.60 0.80 -1 -1 0.60 -1.80 3.15 -2.35 3.15 -0.70 0 0.70 0.30 1.05 1 1.05 0.65 0 0.85 0.25 0.70 0.70 -0.40 1.05 -1.55 1.35 -2.20 0.55z"/>
  <path d="M3.60 36.20 c-0.60 -0.40 -1.10 -1.10 -1.10 -1.50 0 -0.55 0.40 -0.45 1.75 0.40 0.95 0.65 1.75 1.30 1.75 1.55 0 0.60 -1.20 0.40 -2.40 -0.45z"/>
  <path d="M12 33.95 c0 -0.60 0.35 -0.95 1 -0.95 0.55 0 1 0.30 1 0.70 0 0.35 -0.45 0.80 -1 0.95 -0.75 0.20 -1 0 -1 -0.70z"/>
  <path d="M15 31.65 c0 -2 0.55 -2.65 2.30 -2.65 0.95 0 1.70 0.20 1.70 0.45 0 1.20 -1.05 3.05 -1.70 3.05 -0.50 0 -0.65 -0.30 -0.50 -0.75 0.40 -1 -0.30 -0.95 -1.10 0.15 -0.60 0.80 -0.65 0.75 -0.70 -0.25z"/>
  <path d="M31.80 28.70 c-1.30 -0.95 -0.50 -1.70 1.75 -1.70 1.65 0 2 0.15 1.85 0.85 -0.20 1.15 -2.50 1.70 -3.60 0.85z"/>
  <path d="M26 28.50 c-0.60 -0.40 -0.55 -0.50 0.40 -0.50 0.60 0 1.10 0.25 1.10 0.50 0 0.65 -0.55 0.65 -1.50 0z"/>
  <path d="M5.85 27.05 c-1.80 -0.30 -1.85 -0.35 -1.20 -1.25 0.70 -0.95 0.75 -0.95 2.10 -0.10 1.25 0.85 1.45 0.85 1.85 0.10 0.55 -1 1.40 -1.05 1.40 -0.05 0 0.40 -0.35 0.75 -0.75 0.75 -0.40 0 -0.75 0.25 -0.75 0.50 0 0.30 -0.15 0.45 -0.35 0.45 -0.25 -0.05 -1.25 -0.25 -2.30 -0.40z"/>
  <path d="M27.50 25.70 c0 -0.60 0.15 -0.70 0.65 -0.30 0.30 0.25 1.15 0.60 1.85 0.75 0.90 0.15 0.75 0.25 -0.60 0.30 -1.45 0.05 -1.90 -0.15 -1.90 -0.75z"/>
  <path d="M33.70 25.30 c-0.15 -0.40 -0.20 -1.20 -0.10 -1.80 0.15 -1.10 0.15 -1.10 1.55 0.15 0.75 0.75 1.35 1.55 1.35 1.85 0 0.75 -2.50 0.60 -2.80 -0.20z"/>
  <path d="M29 24.20 c0 -0.50 -0.30 -0.70 -0.75 -0.50 -0.40 0.15 -0.75 0.05 -0.75 -0.20 0 -0.30 0.80 -0.50 1.80 -0.50 1.45 0 1.75 0.15 1.50 0.80 -0.15 0.45 -0.30 0.90 -0.30 1 0 0.10 -0.35 0.20 -0.75 0.20 -0.40 0 -0.75 -0.35 -0.75 -0.80z"/>
  <path d="M6 24 c-0.60 -0.40 -0.55 -0.50 0.40 -0.50 0.60 0 1.10 0.25 1.10 0.50 0 0.65 -0.55 0.65 -1.50 0z"/>
  <path d="M22.50 20.50 c0 -0.25 -0.35 -0.50 -0.75 -0.50 -0.55 0 -0.75 -0.55 -0.75 -1.85 l0 -1.85 1 1.10 c1.30 1.35 2.70 1.40 4 0.10 l1 -1 0 1.55 c0 0.85 -0.30 1.85 -0.70 2.25 -0.80 0.80 -3.80 0.95 -3.80 0.20z"/>
  <path d="M17.80 13.70 c-0.45 -1.10 -0.35 -3.70 0.10 -3.70 0.45 0 1.45 1.60 2.10 3.30 0.40 1.05 0.35 1.20 -0.70 1.20 -0.65 0 -1.35 -0.35 -1.50 -0.80z"/>
  <path d="M28.90 5.90 c-0.20 -3.50 -0.05 -4.05 0.65 -2.75 0.30 0.45 0.95 0.85 1.45 0.85 0.55 0 1 0.25 1 0.50 0 0.90 -2 4.50 -2.45 4.50 -0.25 0 -0.55 -1.40 -0.65 -3.10z"/>
  <path d="M14 5 c0 -1.25 -0.20 -1.50 -1.25 -1.50 -1 0 -1.25 -0.25 -1.25 -1.25 0 -1.95 0.75 -1.65 3.40 1.40 1.95 2.25 2 2.85 0.35 2.85 -1.05 0 -1.25 -0.25 -1.25 -1.50z"/>
  <path d="M1.50 1 c0 -0.65 0.35 -1 0.95 -1 0.50 0 1.05 0.45 1.20 1 0.20 0.80 0 1 -0.95 1 -0.85 0 -1.20 -0.30 -1.20 -1z"/>
  <path d="M28.50 1 c0 -0.65 0.35 -1 1 -1 0.90 0 0.95 0.15 0.50 1 -0.30 0.55 -0.75 1 -1 1 -0.30 0 -0.50 -0.45 -0.50 -1z"/>
 </g>
 <g fill="#6c621f">
  <path d="M17 31 c0 -1.15 0.20 -1.50 1 -1.50 1.15 0 1.35 1.45 0.40 2.40 -0.95 0.95 -1.40 0.70 -1.40 -0.90z"/>
  <path d="M26.25 28.55 c-0.15 -0.10 -1.40 -0.30 -2.85 -0.40 -1.45 -0.10 -3.20 -0.55 -3.85 -1 -0.65 -0.40 -1.30 -0.55 -1.50 -0.30 -0.15 0.25 -1.30 0.50 -2.55 0.50 -1.85 0.05 -2 0 -0.75 -0.30 1 -0.20 1.30 -0.45 0.85 -0.70 -0.35 -0.25 -1.40 -0.15 -2.35 0.15 -1.95 0.65 -4.90 0.20 -4.60 -0.65 0.20 -0.65 1.60 -0.70 3.10 -0.10 0.95 0.40 1 0.40 0.10 -0.60 -1 -1.15 -2.85 -1.85 -2.85 -1.10 0 0.80 -1.70 0.50 -4.85 -0.90 -2.10 -0.95 -3.15 -1.70 -3.15 -2.25 0 -0.50 0.25 -0.90 0.50 -0.90 0.30 0 0.50 0.25 0.50 0.50 0 0.75 3.05 2.50 4.35 2.50 0.60 0 1.25 -0.20 1.40 -0.50 0.40 -0.70 -5.25 -4.20 -6.60 -4.10 -0.95 0.05 -1.15 -0.15 -1.15 -1.20 0 -1.10 0.20 -1.25 1.15 -1.05 l1.10 0.30 -1.10 -0.80 c-0.90 -0.60 -1.15 -1.25 -1.15 -2.85 0 -1.15 0.30 -2.40 0.60 -2.70 0.50 -0.50 0.50 -0.75 -0.10 -1.15 -0.55 -0.40 -0.60 -0.60 -0.10 -0.80 0.70 -0.30 0.80 -1.65 0.10 -1.65 -0.25 0 -0.50 -1.25 -0.50 -2.75 0 -2.10 0.15 -2.75 0.75 -2.75 0.40 0 0.75 -0.25 0.75 -0.55 0 -1.30 1.70 0.05 2.90 2.30 2.15 4.05 3.25 5.15 5.55 5.70 1.20 0.25 2.25 0.60 2.40 0.70 0.35 0.40 -4.20 1 -5 0.70 -0.45 -0.15 -0.55 0.30 -0.45 1.70 0.20 1.75 0.10 1.95 -0.95 1.95 -1 0.05 -1.05 0.10 -0.40 0.50 0.45 0.25 1 1.25 1.15 2.15 0.25 1.45 0.60 1.70 2.55 2.25 2.10 0.55 2.25 0.70 2.25 2.35 0 1.25 0.25 1.75 0.75 1.75 0.40 0 1.15 0.45 1.60 1 0.70 0.80 1.50 1 3.65 1 1.70 0 3.20 0.30 3.80 0.75 0.50 0.40 1.90 0.75 3.10 0.75 1.75 0 2.10 -0.15 2.10 -1 0 -1.25 0.60 -1.30 1.35 -0.05 0.50 0.75 1.30 1.05 3.50 1.15 2.65 0.15 2.90 0.25 3.05 1.40 0.15 1.25 0.10 1.25 -3.90 1.25 -2.25 0.05 -4.15 -0.05 -4.25 -0.20z"/>
  <path d="M5 26.55 c0 -1.25 1.55 -1.45 2.50 -0.30 0.50 0.60 0.50 0.75 -0.15 0.75 -0.40 0 -1.10 0.15 -1.55 0.30 -0.60 0.20 -0.80 0 -0.80 -0.75z"/>
  <path d="M31 23 c0 -0.25 -0.35 -0.50 -0.75 -0.50 -0.45 0 -0.75 -0.45 -0.75 -1.20 0 -1.55 1.20 -1.30 3.55 0.70 l1.70 1.45 -1.85 0.05 c-1.05 0 -1.90 -0.20 -1.90 -0.50z"/>
  <path d="M22 19.50 c0 -1.25 -0.20 -1.50 -1.25 -1.50 -1.10 0 -1.25 -0.20 -1.25 -1.75 0 -2.30 0.55 -2.20 1.95 0.25 0.90 1.60 1.40 2 2.60 2 1.20 0 1.45 0.20 1.45 1.25 0 1.10 -0.20 1.25 -1.75 1.25 -1.60 0 -1.75 -0.10 -1.75 -1.50z"/>
  <path d="M13.60 11.90 c-0.35 -0.35 -0.60 -1 -0.60 -1.50 0 -0.80 0.15 -0.85 1.15 -0.40 l1.10 0.55 -1.05 -0.90 c-0.60 -0.50 -1.25 -1.40 -1.40 -2 -0.20 -0.60 -1 -1.90 -1.80 -2.90 -1.80 -2.30 -2.10 -3.95 -0.45 -2.45 1.10 0.95 1.10 0.95 0.50 -0.20 -1.10 -2.10 -0.30 -2.20 2 -0.20 3 2.70 4.90 6.25 4.60 8.75 -0.25 1.70 -0.40 1.85 -1.85 1.85 -0.90 0 -1.85 -0.25 -2.20 -0.60z"/>
  <path d="M10.65 7.40 c-0.30 -0.35 -0.65 -1.10 -0.80 -1.65 -0.30 -0.85 -0.20 -0.85 0.65 0.20 0.55 0.65 1 1.35 1 1.60 0 0.60 -0.30 0.55 -0.85 -0.15z"/>
 </g>
 <g fill="#8b4d25">
  <path d="M4.50 36.75 c-0.95 -0.65 -2.35 -1.30 -3.10 -1.50 -0.95 -0.20 -1.40 -0.65 -1.40 -1.30 0 -0.85 0.20 -0.95 1.15 -0.65 0.95 0.30 1.75 0.85 4.65 3.15 0.70 0.55 2.20 -0.25 2.20 -1.20 0 -0.40 0.40 -0.90 0.85 -1.15 0.75 -0.45 0.65 -0.70 -0.85 -2.40 -0.90 -1.10 -1.95 -2.15 -2.30 -2.35 -1.05 -0.60 -1.75 -2.20 -1.40 -3.05 0.35 -0.85 1.70 -1.10 1.70 -0.30 0 0.30 0.40 0.50 0.90 0.55 0.80 0 0.80 0.05 -0.05 0.35 -0.70 0.30 -0.40 0.80 2 3.20 1.60 1.55 3.35 2.90 3.85 3 1.20 0.20 1.70 1.40 0.55 1.40 -0.45 0 -0.65 0.25 -0.50 0.50 0.15 0.30 0.15 0.95 0 1.55 -0.40 1.30 -2.55 1.15 -2.45 -0.20 0.05 -0.45 -0.20 -0.85 -0.60 -0.85 -0.40 0 -0.70 0.35 -0.70 0.75 0 0.70 -1.50 1.80 -2.35 1.70 -0.20 0 -1.20 -0.55 -2.15 -1.20z"/>
  <path d="M17 31.30 c0 -0.45 -0.35 -0.60 -1 -0.45 -1.15 0.30 -1.30 -0.45 -0.30 -1.50 0.85 -0.85 3.30 -0.55 3.30 0.40 0 1.20 -0.60 2.25 -1.30 2.25 -0.40 0 -0.70 -0.30 -0.70 -0.70z"/>
  <path d="M33.40 28.45 c-1.25 -0.70 -1.10 -1.40 0.35 -1.75 0.80 -0.20 1.25 -0.65 1.25 -1.25 0 -1.50 0.70 -1.15 2.15 1.05 l1.30 2 -1.45 0 c-0.75 0 -1.70 0.10 -2.10 0.25 -0.35 0.10 -1.05 0 -1.50 -0.30z"/>
  <path d="M23.15 20.65 c-0.80 -0.15 -1.15 -0.60 -1.15 -1.35 0 -0.95 0.20 -1.05 1.70 -0.90 0.90 0.10 1.85 -0.05 2 -0.35 0.20 -0.30 0.85 -0.55 1.45 -0.55 0.80 0 0.90 0.15 0.45 0.60 -0.80 0.80 -0.75 1.40 0.15 1.40 0.40 0 0.75 0.35 0.75 0.75 0 0.75 -2.55 0.95 -5.35 0.40z"/>
  <path d="M29 5.25 c0 -0.95 0.25 -1.75 0.50 -1.75 0.30 0 0.50 0.20 0.50 0.45 0 0.65 4.15 -0.65 4.40 -1.35 0.25 -0.85 1.10 -0.75 1.10 0.10 0 0.40 -0.65 0.85 -1.40 1.05 -0.80 0.15 -1.75 0.90 -2.30 1.75 -0.45 0.85 -1.30 1.50 -1.85 1.50 -0.75 0 -0.95 -0.35 -0.95 -1.75z"/>
  <path d="M28.20 1.25 c0.15 -0.45 0.30 -0.95 0.30 -1.05 0 -0.10 0.35 -0.20 0.80 -0.20 1.10 0 0.65 1.70 -0.50 1.90 -0.70 0.15 -0.85 0 -0.60 -0.65z"/>
 </g>
 <g fill="#786f31">
  <path d="M11.15 36.50 c0.05 -0.60 0.40 -1 1 -1 0.65 0 0.85 0.25 0.65 0.80 -0.15 0.45 -0.30 0.90 -0.30 1 0 0.10 -0.30 0.20 -0.70 0.20 -0.45 0 -0.70 -0.45 -0.65 -1z"/>
  <path d="M27.25 28 c-0.80 -0.20 -2.65 -0.40 -4 -0.45 -1.40 0 -2.80 -0.30 -3.10 -0.60 -0.30 -0.30 -2 -0.65 -3.75 -0.75 -2 -0.10 -3.35 -0.45 -3.70 -0.95 -0.85 -1.10 -3.30 -1.90 -3.75 -1.20 -0.20 0.35 -0.85 0.45 -1.75 0.25 -1.40 -0.35 -1.40 -0.40 -0.50 -1.10 0.55 -0.40 1.45 -0.70 2 -0.70 0.80 -0.05 0.60 -0.30 -0.80 -0.95 -1 -0.50 -2.85 -1.60 -4.10 -2.45 -1.25 -0.85 -2.40 -1.35 -2.55 -1.05 -0.55 0.80 -1.25 0.50 -1.25 -0.60 0 -0.90 0.20 -1 1.35 -0.75 l1.40 0.30 -1.40 -1.20 c-1.70 -1.55 -1.85 -4.30 -0.35 -5.90 1.25 -1.35 1.25 -1.45 0 -2.80 -1.10 -1.20 -1.35 -3.40 -0.35 -3.75 0.45 -0.20 0.40 -0.40 -0.15 -0.80 -0.60 -0.45 -0.55 -0.55 0.40 -0.55 0.75 0 1.10 -0.30 1.10 -1 0 -0.55 0.20 -1 0.40 -1 0.60 0 3.70 5.95 3.35 6.50 -0.15 0.25 -0.05 0.55 0.20 0.75 0.30 0.15 0.40 0.65 0.25 1.15 -0.20 0.60 -0.15 0.70 0.15 0.20 0.40 -0.50 1.05 -0.55 2.95 -0.20 1.35 0.30 2.05 0.50 1.60 0.55 -0.50 0 -0.90 0.30 -0.90 0.55 0 0.30 -0.50 0.50 -1.15 0.50 -1.05 0 -1.20 0.30 -1.65 3.50 -0.40 2.75 -0.35 3.50 0.15 3.50 0.35 0 0.65 0.35 0.65 0.75 0 0.50 0.50 0.75 1.50 0.75 1.15 0 1.50 0.20 1.50 1 0 0.55 0.35 1.15 0.75 1.30 0.40 0.20 0.75 0.60 0.75 0.95 0 0.40 0.50 0.85 1.15 1.05 0.60 0.20 1.25 0.55 1.45 0.85 0.15 0.30 1.35 0.50 2.65 0.45 1.40 -0.10 2.75 0.20 3.40 0.65 0.60 0.40 1.90 0.75 2.95 0.75 1.55 0 1.90 -0.20 1.90 -1 0 -0.65 0.35 -1 1 -1 0.60 0 0.85 0.25 0.70 0.65 -0.10 0.35 0.05 1 0.40 1.50 0.75 0.95 2.90 0.65 2.90 -0.45 0 -0.40 0.25 -0.70 0.50 -0.70 0.30 0 0.50 0.35 0.50 0.75 0 0.45 0.45 0.75 1.25 0.75 1 0 1.25 0.25 1.25 1.25 0 1.20 -0.90 1.70 -1.65 0.90 -0.55 -0.50 -2.80 -0.60 -3.10 -0.10 -0.35 0.50 -0.35 0.50 -2.50 -0.05z m-19.75 -8.20 c0 -0.10 -0.60 -0.60 -1.35 -1.05 l-1.40 -0.90 0.95 1.05 c0.85 1 1.80 1.45 1.80 0.90z m-4.30 -12.05 c-0.45 -0.70 -0.95 -1.15 -1.10 -1 -0.25 0.20 1.30 2.25 1.75 2.25 0.10 0 -0.20 -0.55 -0.65 -1.25z"/>
  <path d="M9.75 26 c-0.40 -0.65 0.75 -0.65 1.75 0 0.60 0.40 0.55 0.50 -0.35 0.50 -0.60 0 -1.25 -0.20 -1.40 -0.50z"/>
  <path d="M32.85 25.15 c-0.50 -0.45 -0.45 -3.15 0.05 -3.15 0.20 0 1.15 0.80 2.10 1.75 l1.70 1.75 -1.75 0 c-1 0 -1.95 -0.15 -2.10 -0.35z"/>
  <path d="M21.50 20 c0 -0.55 -0.35 -1 -0.75 -1 -0.40 0 -0.75 -0.35 -0.75 -0.75 0 -0.40 -0.20 -0.75 -0.50 -0.75 -0.25 0 -0.50 -0.80 -0.50 -1.75 0 -2 1.20 -2.45 1.70 -0.60 0.15 0.60 0.95 1.90 1.80 2.85 1.25 1.45 1.65 1.60 2 1 0.35 -0.60 0.50 -0.45 0.50 0.65 0 1.20 -0.15 1.35 -1.75 1.35 -1.40 0 -1.75 -0.20 -1.75 -1z"/>
  <path d="M14.65 12.90 c-0.65 -0.30 -1.15 -0.95 -1.15 -1.45 0 -0.45 -0.30 -0.95 -0.60 -1.10 -0.35 -0.10 -0.50 -0.35 -0.30 -0.55 0.15 -0.20 1 -0.05 1.80 0.40 l1.50 0.75 -1 -2 c-0.55 -1.15 -1.10 -1.90 -1.30 -1.75 -0.15 0.20 0 0.60 0.30 0.90 0.70 0.70 0.80 1.40 0.10 1.40 -0.25 0 -0.90 -0.95 -1.45 -2.10 -0.55 -1.20 -1.50 -2.75 -2.15 -3.50 -0.60 -0.75 -0.90 -1.55 -0.70 -1.75 0.25 -0.25 0.70 0.05 1.10 0.60 1.70 2.55 2.15 2.80 0.95 0.50 -1.40 -2.85 -1.60 -3.60 -0.50 -2.65 0.40 0.35 1.40 1.20 2.25 1.90 1.10 0.90 1.50 1.60 1.50 2.85 0 1.30 0.20 1.65 0.95 1.65 1.05 0 3.05 3.55 3.05 5.40 0 0.90 -0.30 1.10 -1.60 1.05 -0.90 0 -2.15 -0.25 -2.75 -0.55z"/>
  <path d="M29 8.25 c0 -1.40 0.20 -1.75 0.95 -1.75 0.85 0 0.90 0.15 0.40 1.75 -0.30 0.95 -0.70 1.75 -0.95 1.75 -0.20 0 -0.40 -0.80 -0.40 -1.75z"/>
  <path d="M10.15 6.75 c-0.45 -1.25 0.20 -1.45 0.85 -0.30 0.35 0.75 0.35 1.05 0 1.05 -0.30 0 -0.65 -0.35 -0.85 -0.75z"/>
  <path d="M29.10 4.40 c-0.05 -1.40 0 -1.55 0.55 -0.85 0.45 0.60 0.90 0.70 1.75 0.40 1.25 -0.45 1.35 -0.30 0.60 1.10 -0.30 0.50 -1.05 0.95 -1.65 0.95 -0.95 0 -1.15 -0.30 -1.25 -1.60z"/>
 </g>
 <g fill="#765e47">
  <path d="M4.85 36.80 c-0.70 -0.65 -2 -1.35 -2.85 -1.55 -1 -0.20 -1.50 -0.65 -1.50 -1.25 0 -1.25 1.10 -0.85 3.85 1.35 1.85 1.50 2.20 1.65 3.10 1.05 0.60 -0.35 0.95 -0.90 0.85 -1.25 -0.15 -0.30 0.60 -0.90 1.60 -1.30 1.80 -0.75 1.85 -0.70 2.50 0.50 0.75 1.35 0.35 2.35 -0.40 1.15 -0.45 -0.65 -0.50 -0.65 -0.50 0 0 0.60 -0.10 0.60 -0.40 0.10 -0.45 -0.70 -2.10 -0.30 -2.10 0.50 0 0.65 -1.50 1.85 -2.30 1.90 -0.30 0 -1.15 -0.55 -1.85 -1.20z"/>
  <path d="M15 31.45 c0 -0.75 0.35 -1.60 0.75 -1.95 0.85 -0.70 2.55 -0.45 2.40 0.40 -0.10 0.35 0.10 0.60 0.35 0.60 0.35 0 0.35 0.30 0 1 -0.70 1.35 -1.50 1.25 -1.50 -0.10 l0 -1.15 -1 1.25 -1 1.25 0 -1.30z"/>
  <path d="M4.50 26.55 c0 -1.10 1.20 -1.40 2.50 -0.55 0.90 0.55 0.65 0.80 -1.15 1.25 -1.15 0.30 -1.35 0.20 -1.35 -0.70z"/>
  <path d="M34.50 25.50 c0 -2.15 1.30 -1.80 2.15 0.65 0.25 0.65 0.05 0.85 -0.90 0.85 -1.05 0 -1.25 -0.25 -1.25 -1.50z"/>
  <path d="M29.15 24.20 c-0.15 -0.40 -0.60 -0.65 -0.95 -0.50 -0.45 0.15 -0.70 -0.10 -0.70 -0.70 0 -0.80 0.35 -1 1.75 -1 1.80 0 2.10 0.50 1.45 2.20 -0.40 1 -1.15 1.05 -1.55 0z"/>
  <path d="M23.40 20.90 c-1.65 -0.45 -1.90 -0.70 -1.90 -1.95 0 -1.30 0.10 -1.40 0.95 -0.85 0.55 0.35 0.85 0.80 0.75 1 -0.15 0.20 0 0.40 0.25 0.40 0.80 0 2.50 -1.55 3.60 -3.35 0.60 -0.90 1.25 -1.65 1.55 -1.65 0.75 0 0 2.60 -1.15 3.80 l-1 1.10 1.75 0.30 c1.10 0.20 1.80 0.65 1.80 1.05 0 0.90 -3.60 0.95 -6.60 0.15z"/>
  <path d="M30.50 5 c0 -0.50 1.60 -1.50 2.45 -1.50 0.30 0 0.10 0.45 -0.45 1 -1.05 1.05 -2 1.30 -2 0.50z"/>
  <path d="M28.40 2.75 c-0.40 -0.95 -0.40 -1.40 0.10 -2 1 -1.25 1.40 -0.85 1.35 1.25 -0.10 2.30 -0.60 2.55 -1.45 0.75z"/>
  <path d="M34.65 2 c0.30 -0.80 0.85 -1.50 1.20 -1.50 0.45 0 0.45 0.35 0.10 1.50 -0.30 0.85 -0.85 1.50 -1.20 1.50 -0.55 0 -0.55 -0.30 -0.10 -1.50z"/>
 </g>
 <g fill="#877d33">
  <path d="M17 31.55 c0 -1.15 -0.75 -1.40 -1.20 -0.40 -0.15 0.30 -0.20 0.05 -0.15 -0.65 0.05 -0.95 0.40 -1.25 1.35 -1.25 1.05 0 1.25 0.25 1.25 1.45 0 0.80 -0.30 1.55 -0.60 1.65 -0.40 0.15 -0.65 -0.20 -0.65 -0.80z"/>
  <path d="M33 28 c0 -0.30 -1.20 -0.50 -2.85 -0.50 -4.20 0.10 -10 -0.65 -10.70 -1.35 -0.40 -0.40 -0.90 -0.45 -1.50 -0.15 -0.55 0.35 -1.35 0.30 -2.20 0 -0.70 -0.25 -1.55 -0.45 -1.90 -0.35 -0.35 0.05 -0.55 -0.15 -0.50 -0.50 0.05 -0.30 -0.55 -0.70 -1.35 -0.90 -1.55 -0.35 -2.55 -1.25 -1.40 -1.30 0.35 0 -0.50 -0.50 -1.85 -1.15 -4.65 -2.10 -6.85 -3.75 -6.50 -4.80 0.25 -0.75 0 -1.15 -0.95 -1.60 -1.30 -0.55 -1.75 -1.40 -0.75 -1.40 0.30 0 1.15 0.40 1.85 0.90 2.30 1.60 2.90 1.75 1.35 0.40 -0.80 -0.70 -2 -1.45 -2.60 -1.60 -1.30 -0.35 -1.65 -2.70 -0.45 -2.70 0.40 0 0.85 -0.55 1 -1.20 0.35 -1.40 -0.40 -3.80 -1.20 -3.80 -0.25 0 -0.50 -0.55 -0.50 -1.25 0 -1.75 0.85 -1.55 1.25 0.25 0.15 0.80 0.80 2.05 1.40 2.80 0.60 0.80 1.45 2.15 1.90 3.10 0.45 0.95 0.95 1.50 1.10 1.25 0.15 -0.20 -0.60 -1.70 -1.70 -3.25 -1.05 -1.60 -1.95 -3.30 -1.95 -3.80 0 -0.50 -0.45 -1.40 -1 -2 l-1.05 -1.10 1.30 -0.05 c0.70 -0.05 1.50 -0.10 1.75 -0.15 0.30 -0.05 1.10 0.90 1.80 2.10 0.75 1.30 1 2.10 0.65 2.10 -0.35 0 -0.25 0.40 0.30 1 0.50 0.55 1.20 1 1.60 1 0.35 0 0.65 0.45 0.65 0.95 0 0.55 0.25 1.15 0.50 1.30 0.30 0.15 0.50 0.85 0.50 1.55 0 0.65 0.25 1.20 0.50 1.20 0.30 0 0.50 0.55 0.50 1.20 0 1.05 0.30 1.25 1.65 1.40 1.40 0.15 1.60 0.35 1.75 1.85 0.10 0.95 -0.10 1.85 -0.40 2.05 -0.85 0.55 -0.05 3 1 3 0.50 0 1 0.35 1.15 0.75 0.25 0.55 0.85 0.65 2.70 0.40 1.90 -0.20 2.60 -0.10 3.10 0.55 0.45 0.50 1.45 0.80 2.85 0.80 2.10 0 2.20 -0.05 2.20 -1.50 0 -1.15 0.20 -1.50 1 -1.50 0.65 0 1 -0.35 1 -1 0 -0.60 0.35 -1 0.90 -1 1.10 0 4 1.80 5.45 3.30 l1.10 1.20 -1.20 0 c-0.70 0 -1.25 0.25 -1.25 0.50 0 0.30 0.35 0.50 0.75 0.50 0.50 0 0.75 0.50 0.75 1.50 0 1 -0.25 1.50 -0.75 1.50 -0.40 0 -0.75 -0.25 -0.75 -0.50z m-2.10 -3 c0.10 -0.90 0 -1.05 -0.30 -0.55 -0.55 0.75 -1.80 0.30 -1.35 -0.50 0.20 -0.25 -0.05 -0.45 -0.50 -0.45 -1.05 0 -1.50 1.35 -0.70 2.30 0.95 1.15 2.65 0.70 2.85 -0.80z m-21.15 -4.50 c-0.15 -0.25 -0.60 -0.50 -1 -0.50 -0.40 0 -1.55 -0.55 -2.55 -1.25 -1 -0.70 -2.10 -1.25 -2.40 -1.25 -0.80 0.05 4.75 3.50 5.60 3.50 0.35 0 0.50 -0.20 0.35 -0.50z"/>
  <path d="M7 24 c-0.60 -0.40 -0.60 -0.50 0.10 -0.75 1 -0.40 2.05 0.10 1.65 0.80 -0.40 0.55 -0.80 0.55 -1.75 -0.05z"/>
  <path d="M18.50 16.70 c0 -0.45 -0.60 -1.25 -1.30 -1.80 -0.95 -0.80 -1.25 -1.40 -1.10 -2.60 0.05 -0.85 0.45 -1.85 0.80 -2.25 0.55 -0.55 0.75 -0.55 1.35 0.25 0.40 0.55 1.05 1.85 1.50 2.95 0.50 1.10 1.05 2.40 1.30 2.85 0.65 1.30 0.60 1.40 -1.05 1.40 -1.05 0 -1.50 -0.25 -1.50 -0.80z"/>
  <path d="M10.90 10.65 c-1 -0.15 -1.40 -0.50 -1.40 -1.20 0 -0.50 0.35 -0.95 0.75 -0.95 0.85 0 4.75 1.85 4.75 2.25 0 0.25 -2 0.20 -4.10 -0.10z"/>
  <path d="M13.25 5.80 c-2.45 -4.80 -2.45 -4.80 -1.90 -4.80 0.90 0 4.05 3.25 5.10 5.25 1.05 1.95 1.05 2 0.10 2.15 -0.55 0.10 -1.05 0.45 -1.15 0.75 -0.10 0.35 -1.05 -1.15 -2.15 -3.35z"/>
  <path d="M12.75 7.65 c-0.45 -1.05 -1.25 -2.40 -1.80 -2.95 -0.60 -0.60 -0.95 -1.50 -0.85 -2.05 0.10 -0.70 0.45 -0.45 1.40 1.10 1.80 2.85 3.05 5.75 2.50 5.75 -0.30 0 -0.85 -0.85 -1.25 -1.85z"/>
 </g>
 <g fill="#91664b">
  <path d="M3.50 36.15 c-1.80 -0.90 -3.30 -2 -3.40 -2.40 -0.30 -1.30 1.35 -0.60 4.55 1.90 1.45 1.10 2.05 1.35 2.50 0.90 0.30 -0.30 0.90 -0.55 1.30 -0.55 0.55 0 0.50 0.20 -0.20 1 -1.10 1.20 -0.80 1.25 -4.75 -0.85z"/>
  <path d="M11.05 36.90 c0.20 -1.65 -0.05 -2 -1.25 -1.70 -0.70 0.15 -1.40 0.10 -1.55 -0.20 -0.15 -0.25 -0.15 -0.50 0.10 -0.50 0.20 0 0.75 -0.25 1.15 -0.50 0.60 -0.40 0.55 -0.65 -0.45 -1.70 -1.75 -1.90 -1.05 -2.50 1 -0.85 2.25 1.90 3.35 4.20 2.45 5.30 -0.75 0.90 -1.55 1 -1.45 0.15z"/>
  <path d="M15.05 31.55 c-0.05 -1.80 1.30 -3.15 2.55 -2.50 1.05 0.60 0.75 1.45 -0.55 1.45 -0.50 0 -1.15 0.50 -1.45 1.15 l-0.55 1.10 0 -1.20z"/>
  <path d="M5.35 28.60 c-0.50 -0.50 -0.85 -1.40 -0.85 -1.95 0 -0.80 0.30 -1 1.30 -0.85 1.80 0.20 2.80 1.20 1.25 1.20 -1.15 0 -1.15 0.05 -0.35 1.25 0.65 1 0.70 1.25 0.15 1.25 -0.40 0 -1.05 -0.40 -1.50 -0.90z"/>
  <path d="M35.40 28.15 c-0.65 -0.15 -0.90 -0.75 -0.90 -2.20 0 -1.05 0.20 -1.95 0.50 -1.95 0.40 0 2.50 3.50 2.50 4.25 0 0.30 -0.80 0.25 -2.10 -0.10z"/>
  <path d="M23.90 20.95 c-1.25 -0.70 -1.10 -1.45 0.20 -1.45 0.60 0 0.95 -0.15 0.75 -0.30 -0.15 -0.15 0.35 -0.85 1.10 -1.50 0.95 -0.80 1.65 -2.15 2.30 -4.45 0.95 -3.65 1.75 -4.25 1.75 -1.25 0 2 -1.45 5.45 -2.80 6.55 -1 0.80 -0.85 1.45 0.30 1.45 0.65 0 0.90 0.25 0.70 0.75 -0.35 0.85 -3 1 -4.30 0.20z"/>
  <path d="M29.45 7.25 c-0.05 -0.40 -0.10 -1.05 -0.15 -1.35 0 -0.35 -0.30 -1.45 -0.60 -2.45 -0.40 -1.15 -0.45 -2.05 -0.10 -2.60 0.75 -1.40 1.45 -0.95 1.15 0.80 -0.40 2.30 0.25 3 2 2.35 0.75 -0.30 1.50 -0.40 1.65 -0.25 0.15 0.15 0 0.25 -0.30 0.25 -0.30 0 -1.05 0.90 -1.65 2 -1.20 2.10 -1.90 2.55 -2 1.25z"/>
  <path d="M34.40 2.90 c0.35 -0.35 0.60 -1.10 0.60 -1.75 0 -0.70 0.30 -1.15 0.80 -1.15 0.55 0 0.70 0.25 0.45 0.90 -0.20 0.45 -0.50 1.25 -0.60 1.75 -0.15 0.45 -0.60 0.85 -1.05 0.85 -0.60 0 -0.65 -0.15 -0.20 -0.60z"/>
 </g>
 <g fill="#bc6f33">
  <path d="M11.20 37.05 c0.65 -1 -0.35 -2.05 -1.90 -2.10 -1.45 0 -1.50 -0.05 -0.40 -0.55 0.60 -0.30 1.10 -0.70 1.10 -0.85 0 -0.20 -1.25 -1.55 -2.75 -3.05 -1.50 -1.50 -2.75 -3.15 -2.75 -3.65 0 -0.65 1.10 0.25 3.65 2.90 4.30 4.65 5.15 6 4.30 7.05 -0.60 0.75 -1.70 1 -1.25 0.25z"/>
  <path d="M15 31.20 c0 -1.30 1.15 -2.35 2.30 -2.10 1.10 0.20 1.45 2.90 0.35 2.90 -0.45 0 -0.65 -0.30 -0.45 -0.75 0.40 -1.05 -0.70 -0.95 -1.50 0.15 -0.60 0.80 -0.65 0.80 -0.70 -0.20z"/>
  <path d="M33 27.45 c0 -0.75 0.35 -0.95 1.65 -0.95 1.50 0 2.85 0.70 2.85 1.50 0 0.20 -1 0.35 -2.25 0.40 -1.90 0 -2.25 -0.15 -2.25 -0.95z"/>
 </g>
 <g fill="#978c3f">
  <path d="M11.20 36 c-0.05 -0.90 0.20 -1.50 0.55 -1.50 0.90 0 1.35 1.50 0.70 2.30 -0.85 1.05 -1.20 0.85 -1.25 -0.80z"/>
  <path d="M17.15 31.50 c0.30 -1.10 -0.90 -1.45 -1.30 -0.35 -0.15 0.30 -0.30 0.10 -0.30 -0.50 -0.05 -1.65 0.95 -1.95 2 -0.60 1.15 1.50 1.15 1.75 0.15 2.15 -0.65 0.25 -0.75 0.10 -0.55 -0.70z"/>
  <path d="M33 27.85 c0 -0.50 -0.75 -0.70 -3.10 -0.70 -5.80 0.05 -9.30 -0.40 -10.30 -1.30 -0.65 -0.60 -1.05 -0.70 -1.45 -0.30 -0.70 0.70 -4.15 0.05 -4.50 -0.85 -0.15 -0.40 -0.65 -0.70 -1.15 -0.70 -0.50 0 -1.30 -0.15 -1.80 -0.35 -0.85 -0.30 -0.85 -0.35 0.05 -0.65 0.65 -0.25 0.30 -0.55 -1.55 -1.20 -1.35 -0.55 -2.80 -1.20 -3.20 -1.55 -0.40 -0.35 -1.45 -1 -2.35 -1.45 -1.20 -0.60 -1.50 -1.05 -1.30 -1.80 0.30 -1.15 1.15 -1.30 2.05 -0.40 0.45 0.45 0.60 0.45 0.60 0 0 -0.65 -3.40 -3.10 -4.35 -3.10 -0.35 0 -0.65 -0.45 -0.65 -1 0 -1.45 0.85 -1.25 3.45 0.85 1.25 1 1.85 1.35 1.35 0.75 -0.80 -0.95 -0.85 -1.10 -0.15 -1.10 0.45 0 0.95 0.25 1.10 0.50 0.15 0.30 0.55 0.50 0.90 0.50 0.40 0 0.40 -0.15 -0.05 -0.60 -0.85 -0.85 -0.75 -1.55 0.15 -1.20 0.60 0.20 0.65 0.10 0.15 -0.65 -0.30 -0.55 -0.90 -0.85 -1.25 -0.70 -0.35 0.15 -0.65 -0.05 -0.65 -0.35 0 -0.35 -0.55 -1.35 -1.15 -2.20 -0.65 -0.85 -1.35 -2.10 -1.50 -2.80 -0.15 -0.70 -0.80 -1.75 -1.35 -2.40 -0.55 -0.60 -0.80 -1.10 -0.50 -1.10 0.25 0 0.50 -0.45 0.50 -1 0 -1.85 1.80 -1.20 2.65 0.95 0.45 1.10 1.05 2.10 1.35 2.30 0.25 0.15 0.50 0.55 0.50 0.80 0 0.30 -0.25 0.35 -0.55 0.15 -0.30 -0.15 -0.20 0.35 0.25 1.20 0.55 1.05 1.25 1.55 2.50 1.80 1.55 0.30 1.70 0.50 1.70 2.10 0 1.10 0.40 2.20 1.05 2.90 0.60 0.60 1.05 1.35 1.05 1.65 0 0.30 0.90 0.70 2 0.90 1.90 0.30 2 0.45 2 2.05 0 1.50 -0.15 1.70 -1.25 1.70 -1.40 0 -1.65 1.15 -0.55 2.65 0.50 0.65 1.40 0.85 3.60 0.85 2.30 0 3.15 0.20 3.80 0.95 0.65 0.80 1.15 0.85 3.45 0.50 1.45 -0.25 2.65 -0.35 2.70 -0.30 0 0.05 0.30 0.70 0.60 1.45 0.45 1 0.85 1.25 1.65 1.05 1.30 -0.35 2.10 -1.70 1.45 -2.70 -0.35 -0.55 -0.45 -0.55 -0.45 0.20 0 0.55 -0.25 0.85 -0.60 0.70 -0.35 -0.10 -0.60 -0.50 -0.50 -0.80 0.05 -0.30 -0.20 -0.55 -0.60 -0.55 -0.75 0 -1.65 -2.80 -1.10 -3.35 0.40 -0.45 4.20 0.75 4.60 1.45 0.20 0.35 0.10 0.70 -0.20 0.80 -0.85 0.25 -0.75 1.60 0.10 1.60 0.35 0 0.80 0.45 0.95 1 0.15 0.55 0.65 1 1.10 1 0.55 0 0.75 0.35 0.65 1.10 -0.15 1.25 -1.90 1.90 -1.90 0.75z m-22.50 -6.85 c-1.10 -0.75 -6.50 -3.50 -6.80 -3.50 -0.80 0 3.10 2.75 4.70 3.30 2.20 0.80 3.15 0.85 2.10 0.20z"/>
  <path d="M6.75 23.50 c0.15 -0.25 0.65 -0.50 1.05 -0.50 0.40 0 0.70 0.25 0.70 0.50 0 0.30 -0.45 0.50 -1.05 0.50 -0.55 0 -0.85 -0.20 -0.70 -0.50z"/>
  <path d="M20 19.10 c0 -0.25 -0.40 -0.85 -0.95 -1.40 -0.50 -0.55 -1.30 -1.85 -1.80 -2.85 -0.45 -1 -1.20 -1.85 -1.55 -1.85 -0.40 0 -0.70 -0.45 -0.70 -1.05 0 -0.75 0.20 -0.95 0.80 -0.75 0.75 0.30 0.75 0.20 0.15 -0.50 -0.35 -0.45 -0.75 -1.40 -0.85 -2.10 -0.10 -0.70 -0.45 -1.50 -0.80 -1.80 -0.60 -0.55 -3.30 -4.95 -3.30 -5.45 0 -0.70 1.85 0.35 2.30 1.30 0.25 0.60 0.75 1.05 1.10 0.95 0.55 -0.10 5.10 8.45 5.10 9.60 0 0.25 -0.60 -0.05 -1.35 -0.75 l-1.40 -1.20 1.20 1.35 c0.65 0.75 1.45 1.30 1.75 1.25 0.30 -0.05 0.55 0.35 0.55 0.90 0 0.50 0.60 1.65 1.40 2.45 1.70 1.95 1.70 2.30 -0.15 2.30 -0.80 0 -1.50 -0.20 -1.50 -0.40z"/>
  <path d="M0 14.50 c0 -0.65 0.55 -0.65 1.50 0 0.60 0.40 0.55 0.50 -0.35 0.50 -0.65 0 -1.15 -0.20 -1.15 -0.50z"/>
  <path d="M3.50 11.05 c0 -0.50 -0.35 -1.20 -0.75 -1.55 -0.85 -0.70 -1 -1.50 -0.20 -1.50 0.25 0 0.85 0.80 1.25 1.75 0.85 2.05 0.85 2.25 0.20 2.25 -0.25 0 -0.50 -0.40 -0.50 -0.95z"/>
  <path d="M12.50 6.90 c-0.35 -0.60 -1.05 -1.65 -1.60 -2.25 -0.55 -0.55 -0.90 -1.45 -0.80 -2 0.10 -0.65 0.65 -0.05 1.85 2 0.90 1.60 1.55 3.05 1.40 3.15 -0.15 0.15 -0.55 -0.25 -0.85 -0.90z"/>
  <path d="M0 4.70 c0 -1.40 0.75 -1.25 1.15 0.30 0.15 0.65 0 1 -0.45 1 -0.40 0 -0.70 -0.50 -0.70 -1.30z"/>
 </g>
 <g fill="#837e6b">
  <path d="M5.40 27.95 c-0.50 -0.25 -0.90 -0.85 -0.90 -1.25 0 -0.95 0.80 -0.50 1.50 0.85 0.60 1.10 0.55 1.10 -0.60 0.40z"/>
  <path d="M33.15 27.90 c0.05 -0.35 -0.65 -0.75 -1.65 -0.90 -1.30 -0.25 -1.55 -0.40 -0.90 -0.70 0.50 -0.25 0.75 -0.80 0.65 -1.40 -0.30 -1.35 -0.75 -1.80 -0.75 -0.75 0 0.85 -0.55 1.10 -1.15 0.50 -0.20 -0.15 -0.10 -0.60 0.15 -0.90 0.40 -0.45 0.20 -0.55 -0.80 -0.35 -1 0.20 -1.25 0.05 -1.10 -0.45 0.35 -1.05 4.40 -1.25 4.40 -0.25 0 0.45 0.25 0.80 0.50 0.80 0.30 0 0.50 0.70 0.50 1.50 0 0.85 0.20 1.50 0.40 1.50 0.20 0 0.30 -0.80 0.20 -1.80 l-0.20 -1.80 1.35 0.90 c1.10 0.75 1.30 1.10 1.05 2.40 -0.20 0.80 -0.60 1.70 -0.95 1.90 -0.90 0.60 -1.85 0.50 -1.70 -0.20z"/>
  <path d="M20.85 20.15 c-0.20 -0.15 -0.35 -1.05 -0.35 -2 0 -1.30 -0.20 -1.65 -1 -1.65 -1.05 0 -1.35 -1.50 -0.70 -3.20 0.30 -0.75 0.40 -0.75 1 0.05 0.35 0.50 0.65 1.15 0.65 1.40 0 0.30 -0.30 0.05 -0.70 -0.45 -0.40 -0.55 -0.75 -0.75 -0.75 -0.45 0 1 4.15 5.65 5 5.65 0.30 0 0.50 0.25 0.50 0.50 0 0.55 -3.15 0.70 -3.65 0.15z"/>
 </g>
 <g fill="#a0984e">
  <path d="M11.15 35.75 c-0.10 -1.90 0.50 -2.30 1.30 -0.85 0.30 0.55 0.30 1.20 0 1.75 -0.75 1.30 -1.20 1 -1.30 -0.90z"/>
  <path d="M15 31.65 c0 -1.20 0.65 -2.15 1.55 -2.15 0.50 0 0.95 0.25 0.95 0.50 0 0.30 -0.25 0.50 -0.55 0.50 -0.35 0 -0.90 0.40 -1.25 0.90 -0.35 0.45 -0.70 0.60 -0.70 0.25z"/>
  <path d="M33.50 27.70 c-0.35 -0.40 -1.35 -0.70 -2.20 -0.70 -1.40 -0.05 -1.45 -0.10 -0.65 -0.70 0.45 -0.35 0.85 -0.90 0.85 -1.20 0 -1.05 -1.45 -1.95 -2.75 -1.70 -1.25 0.20 -1.35 0.40 -1.05 2.15 l0.30 1.90 -1.55 -0.65 c-0.90 -0.40 -2.50 -0.55 -3.70 -0.40 -1.75 0.20 -2.35 0 -3.05 -0.85 -1.10 -1.25 -1.70 -1.35 -1.70 -0.30 0 0.80 -0.85 0.95 -2.25 0.45 -0.65 -0.30 -0.70 -0.45 -0.15 -0.80 0.45 -0.35 0.40 -0.40 -0.30 -0.20 -1 0.35 -4.35 -1.85 -4.15 -2.75 0.10 -0.50 -6.30 -4.45 -7.25 -4.45 -0.85 0 2.40 2.45 4.65 3.50 1.80 0.80 1.90 0.95 0.70 0.75 -2.30 -0.45 -6.65 -3.50 -6.85 -4.85 -0.10 -0.65 -0.65 -1.35 -1.25 -1.65 -1.15 -0.50 -1.55 -1.25 -0.75 -1.25 0.25 0 1.35 0.65 2.50 1.50 1.15 0.80 2.15 1.30 2.30 1.10 0.15 -0.25 -1 -1.15 -2.50 -2.05 -1.45 -0.95 -2.70 -2 -2.70 -2.35 0 -1.15 1 -0.80 3.55 1.35 1.35 1.10 2.45 1.80 2.45 1.55 0 -0.25 -0.35 -0.60 -0.75 -0.80 -0.40 -0.15 -0.75 -0.50 -0.75 -0.80 0 -0.30 1.30 0.15 2.90 1.05 l2.85 1.60 -1.40 -1.50 c-0.75 -0.80 -1.20 -1.60 -1.05 -1.80 0.20 -0.20 0.05 -0.65 -0.30 -1.10 -0.35 -0.40 -0.50 -1.10 -0.30 -1.50 0.35 -1 0.05 -0.95 -1 0.15 -0.85 0.80 -0.85 0.80 -0.55 0 0.15 -0.50 0.05 -1.05 -0.30 -1.25 -0.35 -0.25 -0.80 -0.75 -1.10 -1.20 -0.25 -0.45 -1.10 -1.75 -1.85 -2.85 -1.55 -2.30 -1.90 -5.10 -0.65 -5.10 0.80 0 2.95 3.75 2.55 4.45 -0.55 0.85 1.95 3.80 3.35 3.95 0.75 0.10 1.35 0.50 1.35 0.90 0 0.95 1.40 0.90 1.60 -0.05 0.10 -0.65 0.60 -0.55 2.80 0.55 3.05 1.50 3.30 2.20 0.85 2.20 -0.95 0 -1.75 -0.20 -1.75 -0.50 0 -0.25 -0.35 -0.50 -0.75 -0.50 -0.45 0 -0.75 0.45 -0.75 1.20 0 0.75 -0.35 1.30 -0.90 1.45 -0.80 0.20 -0.80 0.25 0.05 0.30 0.45 0 0.85 0.25 0.85 0.55 0 0.25 0.85 0.60 1.85 0.80 2.85 0.55 3.90 1.80 3.90 4.70 0 2.45 0 2.50 1.60 2.50 0.85 0 1.90 0.35 2.35 0.75 0.80 0.85 3.80 1.05 3.80 0.25 0 -0.25 0.65 -0.50 1.50 -0.50 1.35 0 1.45 -0.10 1.20 -1.50 -0.35 -1.70 -0.05 -1.80 2.85 -0.95 1 0.35 2.80 1.50 3.90 2.65 1.60 1.65 1.95 2.30 1.70 3.40 -0.30 1.60 -1.35 2.10 -2.15 1.10z"/>
  <path d="M21.35 21.15 c-0.20 -0.15 -0.35 -0.85 -0.35 -1.45 0 -0.75 -0.35 -1.20 -1.05 -1.30 -1.05 -0.15 -2.45 -3.05 -2.45 -5.15 0.05 -0.95 0.10 -0.95 1 0.20 0.55 0.65 1 0.95 1 0.75 0 -0.80 -0.80 -1.70 -2.40 -2.85 -1.45 -1 -6.40 -9.70 -5.85 -10.25 0.10 -0.10 0.80 0.45 1.55 1.20 0.70 0.80 1.50 1.40 1.75 1.35 0.20 -0.10 0.30 0.15 0.15 0.55 -0.15 0.40 0 0.85 0.35 1.10 0.40 0.20 0.50 0.15 0.25 -0.20 -0.20 -0.35 -0.20 -0.60 -0.05 -0.60 0.15 0 0.65 0.85 1.05 1.90 0.45 1 1.45 3.15 2.25 4.75 0.80 1.60 1.35 3.15 1.20 3.40 -0.55 0.85 3.25 4.95 4.55 4.95 0.85 0 1.20 0.30 1.20 1 0 0.85 -0.35 1 -1.90 1 -1.05 0 -2.10 -0.15 -2.25 -0.35z"/>
  <path d="M3.15 9.90 c-0.90 -1.20 -1.20 -1.90 -0.80 -1.90 0.50 0 1.80 2 1.50 2.30 -0.10 0.15 -0.45 -0.05 -0.70 -0.40z"/>
  <path d="M13.30 8.40 c-0.45 -0.60 -0.80 -1.35 -0.80 -1.60 0 -0.25 -0.55 -1.20 -1.25 -2.10 -0.70 -0.90 -1.25 -1.95 -1.25 -2.30 0 -0.80 1.60 1.50 3.30 4.75 1.30 2.50 1.30 3.10 0 1.25z"/>
  <path d="M29.10 6.90 c0.10 -1.25 0.40 -1.70 1.30 -1.80 1.30 -0.20 1.35 0 0.35 1.90 -1 2 -1.85 1.90 -1.65 -0.10z"/>
  <path d="M0 4.75 c0 -0.40 0.25 -0.75 0.50 -0.75 0.30 0 0.50 0.35 0.50 0.75 0 0.40 -0.20 0.75 -0.50 0.75 -0.25 0 -0.50 -0.35 -0.50 -0.75z"/>
 </g>
 <g fill="#b2855f">
  <path d="M11.35 36.55 c0.15 -0.60 0.50 -1.05 0.75 -1.05 0.65 0 0.30 1.60 -0.45 1.85 -0.35 0.15 -0.45 -0.15 -0.30 -0.80z"/>
  <path d="M2.65 35.55 c-1.45 -0.70 -2.65 -1.60 -2.65 -1.90 0 -1.10 1.45 -0.50 4.25 1.75 2 1.60 1.45 1.65 -1.60 0.15z"/>
  <path d="M9.75 34 c0.20 -0.30 0.05 -0.85 -0.25 -1.25 -1.15 -1.40 -0.25 -1.80 1.15 -0.55 1.70 1.55 1.70 2.30 0.05 2.30 -0.75 0 -1.15 -0.20 -0.95 -0.50z"/>
  <path d="M15 31.45 c0 -1.15 1.25 -2.65 1.90 -2.25 0.85 0.50 0.75 1.30 -0.15 1.30 -0.35 0 -0.95 0.40 -1.20 0.90 -0.45 0.70 -0.50 0.70 -0.55 0.05z"/>
  <path d="M33.55 27.65 c-0.95 -1.05 -0.60 -1.65 0.85 -1.65 0.80 0 1.85 0.45 2.35 1 0.50 0.55 0.80 1 0.70 1.05 -1.50 0.25 -3.45 0.05 -3.90 -0.40z"/>
  <path d="M4.85 27.65 c-0.20 -0.15 -0.35 -0.65 -0.35 -1.05 0 -0.60 0.15 -0.60 0.75 -0.10 0.40 0.35 0.75 0.80 0.75 1.05 0 0.55 -0.70 0.60 -1.15 0.10z"/>
  <path d="M24 20.45 c0 -0.95 0.20 -1.05 1.55 -0.75 0.85 0.15 1.75 0.30 2 0.30 0.25 0 0.30 0.35 0.15 0.75 -0.20 0.45 -0.95 0.75 -2 0.75 -1.40 0 -1.70 -0.20 -1.70 -1.05z"/>
  <path d="M26.30 17.75 c0.90 -1.40 1.70 -1.65 1.70 -0.50 0 0.40 -0.45 0.95 -0.95 1.25 -1.50 0.75 -1.65 0.60 -0.75 -0.75z"/>
  <path d="M28.25 14.50 c0.20 -0.95 0.45 -2.60 0.60 -3.60 0.40 -2.70 1.15 -2.35 1.15 0.55 0 1.75 -0.30 2.75 -1.05 3.60 l-1 1.20 0.30 -1.75z"/>
  <path d="M29 6.65 c0 -1.35 0.60 -2.05 2.20 -2.45 l1.40 -0.35 -1.20 1.85 c-1.25 1.90 -2.40 2.35 -2.40 0.95z"/>
  <path d="M28.65 2.90 c-0.50 -1.10 -0.45 -1.45 0.15 -1.95 0.95 -0.80 1.05 -0.55 0.70 1.55 l-0.25 1.70 -0.60 -1.30z"/>
 </g>
 <g fill="#b2a752">
  <path d="M11.50 36.65 c0 -0.55 -0.25 -1.20 -0.60 -1.55 -0.45 -0.45 -0.35 -0.60 0.50 -0.60 0.85 0 1.10 0.30 1.10 1.20 0 0.70 -0.20 1.40 -0.50 1.55 -0.25 0.15 -0.50 -0.10 -0.50 -0.60z"/>
  <path d="M33.35 27.30 c-0.45 -0.45 -1.20 -0.65 -1.90 -0.45 -1 0.25 -1.10 0.15 -0.55 -0.40 0.90 -0.95 0.75 -2.35 -0.30 -2.90 -1 -0.55 -3.10 -0.20 -3.10 0.50 0 0.25 -0.35 0.45 -0.80 0.45 -0.70 0 -0.70 0.15 -0.20 0.75 0.50 0.60 0.50 0.75 -0.20 0.75 -0.60 0 -0.80 -0.50 -0.80 -1.95 0 -1.90 0.05 -1.90 2.15 -2.20 1.20 -0.15 2.50 -0.45 3 -0.60 0.55 -0.25 1.55 0.35 3.20 1.95 1.30 1.25 2.10 2.30 1.75 2.30 -0.35 0 -0.60 0.45 -0.60 0.95 0 1.35 -0.75 1.70 -1.65 0.85z"/>
  <path d="M22 26 c0 -0.35 -0.35 -0.45 -0.85 -0.30 -0.50 0.20 -1.15 -0.05 -1.75 -0.70 -1.10 -1.15 -2.15 -1.35 -1.75 -0.25 0.60 1.45 -0.70 1.30 -2 -0.25 -0.95 -1.20 -1.40 -1.40 -1.70 -0.90 -0.30 0.50 -0.90 0.15 -2.30 -1.40 -1.05 -1.10 -2.95 -2.50 -4.25 -3.15 -1.35 -0.65 -2.40 -1.30 -2.40 -1.55 0 -0.65 1.90 -0.90 2.45 -0.35 0.40 0.40 0.55 0.40 0.55 -0.05 0 -0.30 -0.30 -0.75 -0.60 -0.95 -0.35 -0.20 -1.20 -1.05 -1.90 -1.85 l-1.25 -1.40 2 1.10 c1.10 0.60 2.20 1.30 2.50 1.55 1.05 1 1.35 0.35 0.30 -0.70 -0.70 -0.75 -1.20 -2.10 -1.40 -3.75 l-0.30 -2.60 1.80 0 1.75 0 0.65 3.25 c0.50 2.65 0.80 3.25 1.60 3.25 0.50 0 1.60 0.40 2.45 0.90 1.45 0.80 1.50 0.95 1.30 3.75 -0.20 2.80 -0.20 2.85 1.15 2.85 0.90 0 1.40 -0.30 1.60 -1 0.20 -0.75 0.70 -1 2.05 -1 1.75 0 1.80 0.05 1.90 2 0.05 1.10 0.10 2.40 0.10 2.85 0.05 0.50 -0.35 0.95 -0.80 1.05 -0.50 0.10 -0.90 -0.10 -0.90 -0.40z m-7 -6.25 c-0.35 -0.40 -0.45 -0.75 -0.25 -0.75 1 0 -1.50 -1.90 -2.75 -2.10 -1.55 -0.25 -1.60 0.50 0 1.50 0.85 0.50 0.95 0.45 0.70 -0.30 -0.15 -0.45 0.35 -0.10 1.10 0.80 0.70 0.85 1.45 1.60 1.60 1.60 0.10 0 -0.05 -0.35 -0.40 -0.75z"/>
  <path d="M5.95 19.95 l-1.20 -1 1.50 0.85 c1.95 1.20 2 1.20 1.40 1.20 -0.30 0 -1.05 -0.45 -1.70 -1.05z"/>
  <path d="M19.50 17.25 c0 -1.65 0.05 -1.70 0.90 -0.85 2.25 2.35 2.35 2.60 0.65 2.60 -1.45 0 -1.55 -0.10 -1.55 -1.75z"/>
  <path d="M1.15 15.30 c-1.10 -0.50 -1.55 -1.30 -0.75 -1.30 0.60 0 2.40 1.40 2.10 1.60 -0.15 0.10 -0.75 -0.05 -1.35 -0.30z"/>
  <path d="M3.25 14.45 c-0.60 -0.95 0.25 -1.15 1.10 -0.30 0.80 0.80 0.80 0.85 0.05 0.85 -0.45 0 -1 -0.25 -1.15 -0.55z"/>
  <path d="M1 13.25 l-1.25 -0.70 1.40 -0.05 c0.85 0 1.35 0.25 1.35 0.75 0 0.90 0.05 0.90 -1.50 0z"/>
  <path d="M14.15 11.75 c-1.30 -1.40 -0.60 -1.75 1.50 -0.75 1.85 0.95 1.95 0.95 0.95 0.10 -1.30 -1 -3.10 -4.65 -3.10 -6.20 0 -0.80 0.15 -0.90 0.65 -0.45 0.40 0.30 0.85 0.35 1.05 0.15 0.20 -0.20 0.30 -0.10 0.20 0.15 -0.05 0.30 0.50 1.75 1.30 3.30 0.85 1.60 1.35 3.15 1.15 3.60 -0.40 1.05 -2.85 1.10 -3.70 0.10z"/>
  <path d="M5.75 9.10 c-0.95 -0.70 -3.75 -4.15 -3.75 -4.60 0 -1.20 1.60 -0.35 2.70 1.45 0.70 1.10 1.50 2.10 1.80 2.30 0.60 0.35 0.70 1.25 0.15 1.25 -0.25 0 -0.65 -0.20 -0.90 -0.40z"/>
 </g>
 <g fill="#e99444">
  <path d="M11.35 35.60 c-0.55 -0.60 -1.30 -0.90 -2 -0.75 -1 0.20 -1 0.15 -0.20 -0.35 0.45 -0.30 0.85 -0.75 0.85 -1 0 -0.25 -1.25 -1.80 -2.80 -3.50 -1.55 -1.65 -2.70 -3.15 -2.55 -3.30 0.30 -0.30 6.70 6.25 7.50 7.60 0.25 0.40 0.35 1.10 0.25 1.50 -0.15 0.70 -0.30 0.65 -1.05 -0.20z"/>
  <path d="M15 31.35 c0 -1.10 1.40 -2.65 1.85 -2.10 0.30 0.30 0 0.95 -0.70 1.60 -0.70 0.65 -1.15 0.85 -1.15 0.50z"/>
  <path d="M33.75 27.55 c-0.65 -0.65 -0.10 -1.55 0.90 -1.55 1.15 0 2.35 0.85 2.35 1.60 0 0.40 -2.85 0.40 -3.25 -0.05z"/>
 </g>
 <g fill="#b1aa69">
  <path d="M11.65 36.90 c0.15 -0.45 0 -1.05 -0.30 -1.35 -0.40 -0.40 -0.35 -0.55 0.30 -0.55 0.95 0 1.15 1.75 0.25 2.30 -0.35 0.25 -0.45 0.10 -0.25 -0.40z"/>
  <path d="M33.65 27.20 c-0.20 -0.55 -0.65 -0.70 -1.55 -0.45 -1 0.25 -1.15 0.15 -0.90 -0.50 0.15 -0.45 0.30 -1.05 0.30 -1.30 0 -0.30 0.85 -0.45 1.90 -0.35 1.60 0.15 1.85 0.35 2 1.45 0.20 1.50 -1.25 2.45 -1.75 1.15z"/>
  <path d="M27 26.55 c0 -0.65 -2.65 -1.05 -3.35 -0.45 -0.45 0.35 -0.85 0.35 -1.40 -0.10 -0.40 -0.30 -0.95 -0.45 -1.25 -0.25 -0.30 0.20 -1 -0.10 -1.55 -0.70 -1.15 -1.20 -2.95 -1.55 -2 -0.35 0.45 0.55 0.45 0.80 0 1.10 -0.35 0.20 -0.70 0.15 -0.80 -0.15 -0.10 -0.30 -0.65 -1.10 -1.20 -1.70 -0.85 -0.95 -1.10 -1.05 -1.45 -0.45 -0.35 0.60 -0.60 0.55 -1.45 -0.20 -0.55 -0.50 -0.90 -1.15 -0.75 -1.35 0.15 -0.25 -0.10 -0.60 -0.50 -0.75 -0.45 -0.15 -0.80 -0.65 -0.80 -1.05 0 -0.65 0.15 -0.65 0.90 -0.15 0.45 0.35 0.10 -0.05 -0.75 -0.95 -0.90 -0.85 -1.65 -1.75 -1.65 -2.05 0 -0.25 -0.15 -0.45 -0.35 -0.40 -0.80 0.15 -2.10 -0.70 -2.85 -1.90 -0.75 -1.10 -0.75 -1.15 0.05 -0.85 0.50 0.15 1.45 0.70 2.15 1.15 0.80 0.55 1.80 0.80 2.90 0.65 0.95 -0.15 1.60 -0.05 1.60 0.25 0 0.95 -1 1.20 -1.90 0.50 -0.80 -0.60 -0.80 -0.55 -0.10 0.35 0.40 0.55 1.35 1.60 2.10 2.30 0.75 0.75 1.20 1.50 1.05 1.65 -0.20 0.15 0.30 0.30 1 0.30 0.75 0 1.35 0.25 1.35 0.50 0 0.30 1.25 0.50 2.80 0.50 1.70 0 2.65 0.20 2.45 0.50 -0.15 0.30 -0.05 0.50 0.20 0.50 0.30 0 0.55 -0.25 0.55 -0.60 0 -0.30 0.50 -0.05 1.10 0.60 1 1.05 1.15 1.10 1.30 0.35 0.15 -0.65 0.70 -0.85 2.15 -0.85 1.60 0 1.95 -0.15 1.95 -1 0 -1.10 1 -1.30 2.55 -0.50 1.50 0.80 1.15 1.50 -0.80 1.50 -0.95 0 -1.75 0.25 -1.75 0.50 0 0.30 -0.25 0.50 -0.50 0.50 -0.30 0 -0.85 0.30 -1.25 0.65 -0.55 0.50 -0.50 0.80 0.40 1.75 0.55 0.60 0.75 1.10 0.45 1.10 -0.35 0 -0.60 -0.20 -0.60 -0.45z"/>
  <path d="M4.90 19.50 c-1.45 -0.90 -2.40 -1.85 -2.50 -2.60 -0.10 -0.65 -0.65 -1.35 -1.25 -1.65 -0.65 -0.25 -1.15 -0.65 -1.15 -0.85 0 -0.55 1.55 0.10 3.35 1.40 1.75 1.30 2.15 1.45 2.15 0.75 0 -0.30 -1.25 -1.25 -2.75 -2.15 -2.40 -1.45 -3.55 -2.90 -2.30 -2.90 0.55 0 2.85 1.75 5.15 3.90 1.40 1.30 1.70 1.85 1.25 2.35 -0.45 0.50 -0.90 0.45 -2.20 -0.10 -2.50 -1 -1.95 -0.10 1 1.75 1.40 0.85 2.35 1.60 2.10 1.60 -0.30 0 -1.55 -0.70 -2.85 -1.50z"/>
  <path d="M8 19.25 l-1.25 -0.70 1.40 0.05 c0.75 0.10 1.35 0.40 1.35 0.75 0 0.80 0.05 0.80 -1.50 -0.10z"/>
  <path d="M17 14.50 c0 -0.65 -0.35 -1 -1 -1 -0.65 0 -1 -0.35 -1 -1 0 -0.80 -0.35 -1 -1.75 -1 -0.95 0 -1.75 -0.20 -1.75 -0.50 0 -0.25 -0.65 -0.50 -1.50 -0.50 -1.10 0 -1.50 -0.25 -1.50 -0.90 0 -1.40 1.85 -1.20 5.40 0.55 2.95 1.45 5.60 3.75 5.60 4.90 0 0.25 -0.55 0.45 -1.25 0.45 -0.90 0 -1.25 -0.25 -1.25 -1z"/>
  <path d="M17.40 11.60 c-1 -0.75 -1.95 -1.70 -2.10 -2.10 -0.10 -0.40 -1.15 -2.40 -2.25 -4.35 -2.05 -3.75 -1.80 -5.10 0.40 -1.90 0.65 0.95 1.40 1.60 1.70 1.40 0.30 -0.15 0.35 -0.05 0.15 0.30 -0.20 0.30 0.05 1.15 0.60 1.95 1.15 1.65 3.70 6.10 3.50 6.10 -0.10 -0.05 -1 -0.65 -2 -1.40z"/>
  <path d="M29.05 9 c-0.05 -2.40 0.10 -3.15 0.95 -4 0.85 -0.85 2 -1.35 2 -0.85 0 0.05 -0.45 1 -1 2.10 -0.55 1.10 -1 2.70 -1 3.60 0 2.90 -0.85 2.15 -0.95 -0.85z"/>
  <path d="M12.60 6.90 c-0.50 -1.20 -1.30 -2.45 -1.75 -2.85 -0.50 -0.35 -0.85 -0.95 -0.85 -1.25 0 -0.30 0.45 0 1.05 0.70 1.30 1.65 3.10 5.05 2.80 5.35 -0.15 0.10 -0.70 -0.75 -1.25 -1.95z"/>
  <path d="M2.15 4.60 c-1.95 -2.85 -2.05 -3.60 -0.40 -3.60 1.25 0 2.50 1.60 2.10 2.70 -0.15 0.30 0.05 1 0.45 1.55 0.85 1.15 0.90 1.75 0.10 1.75 -0.35 0 -1.40 -1.05 -2.25 -2.40z"/>
 </g>
 <g fill="#999e9d">
  <path d="M34 27.20 c0 -0.35 -0.40 -0.90 -0.85 -1.15 -0.50 -0.30 -0.60 -0.55 -0.25 -0.55 0.30 0 0.60 -0.55 0.60 -1.25 l0 -1.25 1.15 1.10 c0.60 0.65 1.35 1.60 1.65 2.20 0.55 1 0.45 1.10 -0.85 1.30 -0.95 0.15 -1.45 0 -1.45 -0.40z"/>
  <path d="M31.50 25.05 c0 -1.30 -1.25 -2.20 -2.55 -1.80 -0.70 0.25 -0.95 0.20 -0.75 -0.20 0.20 -0.30 1.15 -0.55 2.10 -0.55 1.60 0 1.70 0.10 1.70 1.75 0 0.95 -0.10 1.75 -0.25 1.75 -0.15 0 -0.25 -0.40 -0.25 -0.95z"/>
  <path d="M24.15 21.65 c-1.20 -0.15 -1.65 -0.45 -1.65 -1.10 0 -0.80 0.35 -0.90 2.30 -0.75 3.50 0.20 5.20 0.70 5.20 1.50 0 0.70 -1.95 0.80 -5.85 0.35z"/>
 </g>
 <g fill="#c8bd5e">
  <path d="M11.70 37.15 c0.20 -0.35 -0.05 -1.20 -0.50 -1.95 -0.85 -1.25 -0.85 -1.30 0.10 -1.10 1.10 0.20 1.55 2.25 0.65 3.10 -0.45 0.40 -0.50 0.40 -0.25 -0.05z"/>
  <path d="M21.30 24.20 c-0.25 -0.65 -0.45 -0.70 -1.05 -0.20 -0.65 0.55 -0.75 0.40 -0.75 -0.70 0 -1.80 1.05 -2.80 2.95 -2.80 1.45 0 1.55 0.10 1.55 1.95 0 1.30 -0.25 2.05 -0.80 2.25 -1.20 0.45 -1.55 0.35 -1.90 -0.50z"/>
  <path d="M25.50 23.30 l0 -1.80 2.50 0 c3.05 0 3.55 1.25 0.75 1.80 -1 0.15 -2.15 0.65 -2.50 1.05 -0.65 0.65 -0.75 0.50 -0.75 -1.05z"/>
  <path d="M13.50 20.50 c0 -0.35 0.40 -0.45 0.95 -0.25 0.75 0.20 0.95 0 0.95 -0.90 0 -1.30 -2.50 -3.15 -3.40 -2.60 -0.85 0.50 -2.05 -0.80 -1.75 -1.80 0.20 -0.65 0.05 -0.95 -0.45 -0.95 -0.45 0 -0.80 -0.35 -0.80 -0.75 0 -0.40 0.20 -0.75 0.50 -0.75 0.25 0 0.35 -0.35 0.20 -0.75 -0.20 -0.50 -0.65 -0.65 -1.25 -0.50 -0.80 0.25 -0.95 0.05 -0.95 -1.25 0 -1.40 0.10 -1.50 1.40 -1.30 0.75 0.10 1.60 0.25 1.90 0.25 0.35 0.05 0.75 0.90 0.95 1.95 0.35 2 1.95 4.10 3.15 4.10 1.35 0 2.65 2.10 2.50 4 -0.15 1.65 -0.25 1.75 -2 1.90 -1.20 0.10 -1.90 -0.05 -1.90 -0.40z"/>
  <path d="M4.65 17.60 c-0.90 -0.45 -1.65 -1.10 -1.65 -1.50 0 -0.60 0.20 -0.60 1 0.15 0.55 0.50 1.15 0.75 1.35 0.55 0.20 -0.20 -0.15 -0.80 -0.85 -1.30 -0.70 -0.50 -1.05 -1.10 -0.85 -1.30 0.65 -0.65 3.30 2.45 2.90 3.35 -0.25 0.75 -0.45 0.75 -1.90 0.05z"/>
  <path d="M8.20 16.85 c-1.15 -0.85 -2.35 -2 -2.65 -2.50 -0.80 -1.25 3.75 1.30 5.30 2.95 1.70 1.85 -0.10 1.55 -2.65 -0.45z"/>
  <path d="M4.10 7.15 c-0.90 -1.05 -1.40 -1.95 -1.10 -2.05 0.70 -0.25 1.55 0.50 2.65 2.35 1.25 2.15 0.40 1.95 -1.55 -0.30z"/>
 </g>
 <g fill="#cba17a">
  <path d="M11.40 35.40 c-1 -1.20 -1.20 -2.40 -0.40 -2.40 0.65 0 1.60 1.90 1.40 2.75 -0.10 0.55 -0.40 0.45 -1 -0.35z"/>
  <path d="M1.65 34.90 c-0.90 -0.30 -1.65 -0.85 -1.65 -1.20 0 -0.90 0.10 -0.90 2.20 0.35 2.60 1.55 2.45 1.80 -0.55 0.85z"/>
  <path d="M5.40 27.95 c-0.95 -0.55 -1.20 -1.45 -0.40 -1.45 0.25 0 0.70 0.45 1 1 0.60 1.15 0.60 1.15 -0.60 0.45z"/>
  <path d="M35.50 27.65 c-1.35 -0.50 -2.45 -1.75 -2.15 -2.45 0.40 -1.05 1.05 -0.85 2.40 0.70 1.70 1.90 1.65 2.45 -0.25 1.75z"/>
  <path d="M29 12.60 c0 -0.85 0.20 -1.70 0.50 -1.85 0.30 -0.20 0.35 0.30 0.15 1.35 -0.40 2.20 -0.65 2.40 -0.65 0.50z"/>
  <path d="M29.50 6 c0 -0.60 0.45 -1.20 1.15 -1.45 1.50 -0.60 1.60 -0.35 0.60 1.15 -1.05 1.55 -1.75 1.65 -1.75 0.30z"/>
  <path d="M28.40 2.20 c-0.40 -0.35 0.65 -2.20 1.20 -2.20 0.60 0 0.50 0.70 -0.25 1.70 -0.35 0.45 -0.80 0.70 -0.95 0.50z"/>
 </g>
 <g fill="#bdb97b">
  <path d="M11.85 36.55 c0.15 -0.55 0.05 -1.05 -0.20 -1.05 -0.50 0 -1.65 -2.15 -1.65 -3.10 0 -0.30 0.45 -0.15 0.95 0.30 1.20 1.10 1.85 3.70 1.15 4.40 -0.40 0.40 -0.45 0.20 -0.25 -0.55z"/>
  <path d="M34.20 26.75 c-0.50 -0.40 -1.30 -0.75 -1.75 -0.75 -0.55 0 -0.95 -0.60 -1.15 -1.75 -0.30 -1.55 -0.55 -1.75 -1.80 -1.75 -1.15 0 -1.50 -0.25 -1.50 -1 0 -1.20 1 -1.30 3.30 -0.20 1.90 0.90 3.65 3.05 4 4.95 0.25 1.45 0.20 1.50 -1.10 0.50z"/>
  <path d="M21.85 24.80 c-0.75 -0.90 -0.75 -1.05 0.05 -1.80 0.55 -0.60 0.95 -0.70 1.20 -0.30 0.20 0.30 1.15 0.45 2.15 0.40 1 -0.10 1.75 0.05 1.75 0.35 0 0.30 -0.20 0.55 -0.50 0.55 -0.25 0 -0.50 0.40 -0.50 0.90 0 1.25 -3.10 1.25 -4.15 -0.10z"/>
  <path d="M18.25 24 c-0.55 -0.20 -1.50 -0.30 -2.05 -0.15 -0.65 0.15 -1.20 -0.05 -1.35 -0.55 -0.20 -0.45 -0.85 -0.80 -1.55 -0.80 -0.65 0 -1.30 -0.30 -1.45 -0.65 -0.15 -0.40 -1.75 -1.45 -3.55 -2.40 -2.45 -1.25 -3.20 -1.90 -3.05 -2.55 0.20 -0.55 -0.50 -1.30 -2.60 -2.60 -2.15 -1.35 -2.60 -1.80 -1.75 -1.80 0.65 0 1.25 0.35 1.40 0.75 0.20 0.40 0.70 0.75 1.15 0.75 0.50 0 1.50 0.70 2.35 1.55 0.80 0.85 2.60 2.30 3.95 3.25 l2.50 1.75 -2.75 -2.50 c-1.50 -1.40 -2.90 -2.55 -3.10 -2.55 -0.25 0 -0.40 -0.30 -0.40 -0.70 0 -0.60 0.50 -0.45 2.05 0.45 1.15 0.65 2.45 1.05 2.90 0.90 0.65 -0.20 0.70 -0.15 0.10 0.25 -0.60 0.45 -0.50 0.80 0.75 2 1.90 1.90 3.70 2.50 3.75 1.25 0.05 -0.60 0.15 -0.50 0.40 0.35 0.30 1.10 0.65 1.25 2.70 1.40 l2.35 0.15 0 -1.75 c0 -2 0.70 -2.35 1.50 -0.80 0.30 0.55 0.85 1 1.25 1 0.40 0 0.75 0.35 0.75 0.75 0 0.45 -0.45 0.75 -1.05 0.75 -0.55 0 -1.65 0.70 -2.35 1.50 -1.45 1.65 -1.40 1.60 -2.85 1z"/>
  <path d="M4.35 19.05 c-2.05 -1.30 -2.30 -1.80 -0.50 -0.85 0.85 0.45 1.75 1 1.90 1.30 0.40 0.65 0.30 0.60 -1.40 -0.45z"/>
  <path d="M2.20 15.95 c-2.70 -2.15 -2.75 -2.20 -0.35 -1 2.05 1 3 1.90 2.55 2.35 -0.15 0.10 -1.10 -0.50 -2.20 -1.35z"/>
  <path d="M17.80 16.70 c-0.15 -0.45 -0.30 -1.45 -0.30 -2.25 0 -1.35 -0.15 -1.45 -1.75 -1.45 -1.55 0 -1.75 -0.15 -1.75 -1.25 0 -0.70 0.15 -1.25 0.30 -1.25 1.10 0 3.85 2.40 5.15 4.50 l1.55 2.50 -1.45 0 c-0.85 0 -1.55 -0.30 -1.75 -0.80z"/>
  <path d="M16.85 11.10 c-0.75 -0.45 -1.25 -1.10 -1.10 -1.45 0.10 -0.35 0.05 -0.65 -0.20 -0.65 -0.50 0 -4.25 -7 -3.90 -7.30 0.10 -0.15 0.80 0.45 1.55 1.30 1.55 1.90 5.50 8.45 5.25 8.75 -0.10 0.10 -0.85 -0.20 -1.60 -0.65z"/>
  <path d="M29.05 8.65 c0.10 -2.40 0.70 -3.80 1.75 -4.20 l1.05 -0.35 -0.90 1.90 c-0.55 1.10 -0.95 2.40 -0.95 3 0 0.55 -0.20 1 -0.50 1 -0.25 0 -0.50 -0.60 -0.45 -1.35z"/>
  <path d="M2.15 4.65 c-0.75 -1.05 -1.55 -1.95 -1.75 -2.05 -0.25 -0.10 -0.40 -0.75 -0.40 -1.40 0 -0.95 0.25 -1.20 1.20 -1.20 0.85 0 1.40 0.45 2 1.70 1.10 2.30 1 2.65 -0.30 1.50 l-1.15 -0.95 1 1.25 c2.35 2.85 2.45 3 1.60 3 -0.45 0 -1.45 -0.85 -2.20 -1.85z"/>
  <path d="M10.75 4 c-0.50 -0.55 -0.80 -1.10 -0.65 -1.25 0.15 -0.15 0.65 0.30 1.10 1 1 1.50 0.80 1.60 -0.45 0.25z"/>
 </g>
 <g fill="#e9ad61">
  <path d="M11.75 35.85 c-0.30 -0.35 -1.15 -1.70 -1.95 -3.10 l-1.45 -2.50 1.35 1.25 c1.50 1.35 2.95 3.80 2.70 4.50 -0.10 0.20 -0.40 0.15 -0.65 -0.15z"/>
  <path d="M35.25 27.40 c-1.70 -0.95 -2.40 -2.60 -0.95 -2.30 0.40 0.10 0.75 0.35 0.70 0.55 0 0.20 0.45 0.85 1.10 1.35 1.25 1.05 0.75 1.30 -0.85 0.40z"/>
  <path d="M30 5.50 c0 -0.25 0.45 -0.70 1 -1 0.95 -0.50 1 -0.50 0.40 0.45 -0.65 1.10 -1.40 1.40 -1.40 0.55z"/>
 </g>
 <g fill="#d1ca7e">
  <path d="M11.40 35 c-0.45 -0.85 -0.65 -1.50 -0.40 -1.50 0.55 0 1.60 1.90 1.40 2.50 -0.10 0.25 -0.55 -0.20 -1 -1z"/>
  <path d="M31.55 24.50 c-1 -1.10 -1.75 -1.45 -2.85 -1.40 -1.50 0.15 -3.30 1.30 -2.90 1.95 0.25 0.45 -2.95 0.25 -3.75 -0.25 -0.75 -0.50 -0.70 -1.65 0.10 -1.95 0.30 -0.10 0.45 -0.40 0.20 -0.60 -0.20 -0.25 -0.85 0.05 -1.50 0.65 -1.30 1.20 -2.35 1.40 -3.25 0.50 -0.40 -0.40 -0.75 -0.40 -1.30 0.10 -0.65 0.50 -0.85 0.50 -1.10 -0.15 -0.15 -0.40 -0.80 -0.90 -1.40 -1.05 -0.65 -0.15 -2.45 -1.05 -4.05 -2.05 -1.60 -0.95 -3.35 -1.85 -3.85 -2.05 -0.65 -0.20 -0.85 -0.60 -0.65 -1.20 0.20 -0.70 -0.35 -1.30 -2.45 -2.60 -1.55 -0.90 -2.80 -1.95 -2.80 -2.25 0 -0.35 0.15 -0.65 0.30 -0.65 0.55 0 5.20 3.55 5.85 4.50 0.80 1.15 5.85 4.70 6.15 4.35 0.15 -0.15 -0.50 -0.75 -1.40 -1.35 -2.10 -1.50 -4.90 -4.10 -4.90 -4.60 0 -0.25 0.90 0.15 2 0.85 1.10 0.70 2.35 1.10 2.85 0.95 0.75 -0.25 0.80 -0.20 0.15 0.25 -0.65 0.50 -0.45 0.85 1.10 2.30 2.15 2 3.15 2.20 3.55 0.75 0.25 -1 -0.95 -2.75 -1.95 -2.75 -0.75 0 -4.20 -3.10 -4.20 -3.75 0 -0.30 0.25 -0.40 0.55 -0.20 0.40 0.20 0.40 0 0 -0.75 -0.35 -0.55 -0.90 -1.05 -1.25 -1.05 -0.75 0 -1.45 -1.35 -1.05 -2 0.40 -0.65 1.75 0 1.75 0.80 0 0.40 0.50 0.70 1.30 0.70 1.20 0 1.30 0.15 1.10 2 -0.15 1.65 0 2 0.70 2 0.50 0 0.90 -0.35 0.90 -0.80 0 -0.60 0.45 -0.70 2.15 -0.60 1.90 0.15 2.10 0.30 2.25 1.55 0.10 0.95 0.45 1.35 1.15 1.35 0.80 0 0.95 0.35 0.95 2 0 1.85 0.15 2.05 1.50 2.30 1 0.20 1.60 0.75 1.90 1.60 l0.40 1.30 1.10 -1.10 c0.85 -0.85 1.65 -1.05 3.80 -1.05 2.45 0.05 2.95 0.25 4.55 1.80 1.55 1.50 1.65 1.80 1.05 2.45 -1 0.95 -1.15 0.90 -2.75 -0.80z"/>
  <path d="M1.95 15.70 c-1 -1.10 -1.05 -1.25 -0.20 -0.80 0.55 0.30 1.45 0.85 2 1.30 0.80 0.60 0.85 0.75 0.20 0.80 -0.40 0 -1.30 -0.60 -2 -1.30z"/>
  <path d="M14 11.25 c0 -0.95 0.45 -0.95 1.70 0 0.95 0.70 0.95 0.75 -0.35 0.75 -0.85 0 -1.35 -0.25 -1.35 -0.75z"/>
  <path d="M16.45 10.85 c-1.05 -0.80 -1.45 -2.05 -0.90 -2.90 0.35 -0.55 0.55 -0.50 1.15 0.30 1.50 2.05 1.35 3.75 -0.25 2.60z"/>
  <path d="M3.75 6.40 c-0.70 -0.90 -1.65 -2.05 -2.05 -2.55 -0.40 -0.45 -0.70 -1.05 -0.70 -1.30 0 -0.25 -0.15 -0.55 -0.35 -0.70 -0.25 -0.10 -0.10 -0.10 0.25 -0.05 0.35 0.10 0.60 -0.30 0.60 -0.95 l0 -1.05 0.80 1.15 c0.60 0.80 0.65 1.25 0.30 1.50 -0.40 0.25 -0.10 0.95 0.80 2.05 1.30 1.60 2.30 3.50 1.90 3.50 -0.15 0 -0.80 -0.75 -1.55 -1.60z"/>
  <path d="M29.35 6.75 c0.25 -1.15 1.45 -2.60 1.85 -2.20 0.35 0.35 -1.10 3.45 -1.60 3.45 -0.25 0 -0.35 -0.55 -0.25 -1.25z"/>
  <path d="M12.85 4.55 c-0.80 -1.45 -1.30 -2.75 -1.20 -2.90 0.55 -0.50 2.90 3.35 2.75 4.45 -0.10 0.95 -0.40 0.70 -1.55 -1.55z"/>
 </g>
 <g fill="#cecda7">
  <path d="M33.45 26.10 c-0.50 -0.55 -0.65 -1.30 -0.50 -2.05 l0.35 -1.25 1.05 1.40 c0.60 0.75 0.95 1.70 0.80 2.10 -0.35 0.90 -0.70 0.85 -1.70 -0.20z"/>
  <path d="M28.40 22.65 c-1.10 -0.30 -1.20 -2.15 -0.15 -2.15 1.25 0 4.25 1.40 4.25 1.95 0 0.55 -2.45 0.65 -4.10 0.20z"/>
  <path d="M12.35 21.70 c-0.15 -0.15 -0.15 -0.60 -0.05 -0.90 0.15 -0.35 -0.60 -1.30 -1.65 -2.05 -2.40 -1.80 -4.60 -3.90 -4.65 -4.40 0 -0.65 4.05 2.20 5.60 3.90 0.80 0.95 1.90 1.85 2.45 2 1.35 0.45 1.20 1.75 -0.20 1.75 -0.65 0 -1.30 -0.15 -1.50 -0.30z"/>
  <path d="M7.85 19.15 c-1.85 -1.15 -2.70 -1.95 -2.30 -2.15 0.70 -0.45 3.30 1 4.95 2.75 1.60 1.70 0.80 1.50 -2.65 -0.60z"/>
  <path d="M19.85 19.60 c-0.50 -0.50 -0.85 -1.70 -0.85 -2.60 l0 -1.70 1.75 1.70 c0.95 0.95 1.75 1.95 1.75 2.30 0 0.35 0.40 0.75 0.90 0.85 0.45 0.15 0.05 0.25 -0.95 0.30 -1.15 0.05 -2.10 -0.25 -2.60 -0.85z"/>
  <path d="M3.25 14.50 c-1.10 -0.80 -2.30 -1.45 -2.60 -1.50 -0.65 0 -0.95 -1.50 -0.30 -1.50 0.40 0 5.65 3.95 5.65 4.25 0 0.55 -0.85 0.15 -2.75 -1.25z"/>
  <path d="M16.50 14 c0 -0.55 -0.20 -1 -0.50 -1 -0.25 0 -0.50 -0.35 -0.50 -0.75 0 -1.10 0.90 -0.90 2.25 0.50 1.60 1.55 1.60 2.25 0 2.25 -0.90 0 -1.25 -0.25 -1.25 -1z"/>
  <path d="M16.80 10.90 c-1.60 -1.45 -4 -6.10 -3.25 -6.35 0.25 -0.05 0.85 0.25 1.20 0.75 1 1.35 3.85 6.70 3.55 6.70 -0.15 0 -0.80 -0.50 -1.50 -1.10z"/>
  <path d="M29 9.40 c0 -1.80 0.65 -3.90 1.25 -3.90 0.50 0 0.50 0.40 0.05 1.95 -0.60 2.15 -1.30 3.15 -1.30 1.95z"/>
  <path d="M2.10 4.30 c-0.60 -1 -0.90 -2.20 -0.75 -3 l0.25 -1.30 0.95 1.20 c1.15 1.50 1.20 1.85 0.10 1.45 -0.60 -0.25 -0.40 0.20 0.55 1.50 1.05 1.35 1.20 1.85 0.65 1.85 -0.40 0 -1.20 -0.75 -1.75 -1.70z"/>
 </g>
 <g fill="#dcd893">
  <path d="M10.80 34 c-0.70 -1.10 -1.10 -2 -0.85 -2 0.60 0 1.40 1.05 2 2.65 0.70 1.85 0.40 1.70 -1.15 -0.65z"/>
  <path d="M32.55 25 c-1.10 -1.10 -2.40 -2 -2.80 -2 -0.40 0 -0.75 -0.35 -0.75 -0.75 0 -1.30 2.65 -0.90 4.10 0.65 1.20 1.20 2.40 4.10 1.75 4.10 -0.10 0 -1.15 -0.90 -2.30 -2z"/>
  <path d="M22.30 24.75 c-0.80 -0.60 -0.85 -0.90 -0.40 -1.35 0.35 -0.35 0.60 -0.80 0.60 -1 0 -0.75 -1.30 -0.40 -2.15 0.65 -0.95 1.05 -2.70 1.10 -2.45 0.05 0.15 -0.80 -1.05 -0.75 -1.80 0 -0.45 0.45 -0.60 0.45 -0.60 0 0 -0.35 -0.20 -0.60 -0.45 -0.60 -0.25 0 -1.10 -0.25 -1.90 -0.55 -1.35 -0.50 -1.35 -0.55 -0.45 -1.20 0.60 -0.50 1.20 -0.55 1.80 -0.25 0.60 0.30 1.05 0.20 1.60 -0.45 0.65 -0.80 0.65 -1 -0.50 -2.35 -0.70 -0.80 -1.50 -1.40 -1.75 -1.30 -0.25 0.10 -0.35 -0.20 -0.15 -0.65 0.15 -0.45 0.30 -1.05 0.30 -1.30 0 -0.25 0.35 -0.45 0.75 -0.45 0.40 0 0.75 -0.35 0.75 -0.75 0 -0.45 -0.45 -0.75 -1.25 -0.75 -0.90 0 -1.25 -0.25 -1.25 -0.95 0 -0.55 -0.30 -1.05 -0.60 -1.20 -0.35 -0.10 -0.50 -0.40 -0.30 -0.60 0.45 -0.45 5.90 2.65 5.95 3.40 0.05 0.35 0.05 0.95 0 1.40 -0.05 0.45 0.35 0.95 0.95 1.10 0.80 0.20 1 0.65 1 2.30 0 1.50 0.20 2.05 0.75 2.05 0.40 0 0.75 0.25 0.75 0.50 0 0.30 0.70 0.50 1.50 0.50 0.85 0 1.50 0.15 1.50 0.40 0 0.20 0.90 0.30 2 0.20 1.60 -0.15 2 -0.05 2 0.65 0 0.45 -0.25 0.75 -0.60 0.65 -0.35 -0.15 -1.05 0.25 -1.65 0.85 -1.35 1.50 -2.80 1.85 -3.95 1z"/>
  <path d="M7.85 19.15 c-2 -1.25 -2.70 -1.90 -2.25 -2.20 0.35 -0.25 0.95 -0.10 1.45 0.35 0.40 0.35 1 0.70 1.25 0.70 0.30 0 1.15 0.70 1.95 1.50 1.85 1.95 1.20 1.85 -2.40 -0.35z"/>
  <path d="M8.10 16.60 c-1.15 -1.10 -2.10 -2.10 -2.10 -2.30 0 -0.60 4.35 2.60 4.65 3.45 0.50 1.25 -0.35 0.85 -2.55 -1.15z"/>
  <path d="M1.95 15.65 l-1.20 -1.30 1.65 0.95 c0.85 0.50 1.60 1.10 1.60 1.30 0 0.75 -0.85 0.40 -2.05 -0.95z"/>
  <path d="M3.60 14.80 c-2.10 -1.50 -2.40 -1.80 -1.70 -1.80 0.35 0 1.30 0.65 2.20 1.50 1.95 1.75 1.75 1.90 -0.50 0.30z"/>
  <path d="M16.95 10.85 c-1.30 -1.05 -5.70 -8.80 -5.30 -9.20 0.30 -0.30 3.45 4.10 5.35 7.50 0.85 1.55 1.50 2.85 1.40 2.85 -0.05 0 -0.75 -0.50 -1.45 -1.15z"/>
  <path d="M3.45 6.15 c-0.85 -0.95 -1.95 -2.85 -1.95 -3.40 0 -0.15 0.70 0.50 1.55 1.45 0.85 1 1.45 2.05 1.35 2.35 -0.10 0.30 -0.50 0.15 -0.95 -0.40z"/>
  <path d="M29.50 6.30 c0 -0.35 0.35 -0.95 0.75 -1.30 0.80 -0.65 1 -0.15 0.45 1.20 -0.40 1 -1.20 1.05 -1.20 0.10z"/>
 </g>
 <g fill="#f1e284">
  <path d="M10.80 34 c-0.70 -1.10 -1.10 -2 -0.80 -2 0.25 0 0.95 0.90 1.50 2 0.55 1.10 0.95 2 0.85 2 -0.15 0 -0.80 -0.90 -1.55 -2z"/>
  <path d="M25 22.85 l0 -1.85 2.45 0 c3.05 0 4.05 0.35 4.05 1.45 0 0.75 -0.35 0.80 -2.10 0.55 -1.75 -0.25 -2.35 -0.10 -3.25 0.70 l-1.15 0.95 0 -1.80z"/>
  <path d="M22.45 23.05 c0.95 -0.60 -0.15 -1.20 -1.45 -0.80 -0.70 0.25 -1 0.10 -1 -0.45 0 -0.55 -0.45 -0.80 -1.50 -0.80 -0.80 0 -1.50 -0.25 -1.50 -0.55 0 -0.30 0.35 -0.45 0.75 -0.25 0.60 0.20 0.75 -0.15 0.75 -1.45 0 -2 -0.35 -2.25 -1 -0.60 -0.40 1 -0.45 0.95 -0.45 -0.50 -0.05 -1.50 0.10 -1.65 1.45 -1.65 1.55 0 2.50 1.10 2.50 2.95 0 0.80 0.30 1.05 1.25 1.05 1.10 0 1.25 0.20 1.25 1.75 0 1.35 -0.20 1.75 -0.85 1.75 -0.70 0 -0.75 -0.10 -0.20 -0.45z"/>
  <path d="M15.35 17.10 c-0.55 -0.55 -1.25 -0.90 -1.60 -0.80 -0.95 0.40 -4.50 -2.85 -3.70 -3.35 0.80 -0.45 -0.25 -1.95 -1.35 -1.95 -0.40 0 -0.70 -0.50 -0.70 -1.15 0 -1.10 0.15 -1.15 2.15 -0.85 1.15 0.15 3.05 0.85 4.20 1.55 1.80 1 2.15 1.45 2.15 2.80 0 1.25 -0.20 1.55 -0.75 1.35 -1 -0.40 -0.95 0.65 0.05 1.20 0.45 0.25 0.70 0.85 0.65 1.35 -0.20 0.80 -0.30 0.80 -1.10 -0.15z"/>
  <path d="M3.85 6.60 c-0.95 -1.05 -1.10 -1.60 -0.35 -1.60 0.50 0 1.70 1.95 1.35 2.30 -0.10 0.10 -0.55 -0.20 -1 -0.70z"/>
 </g>
 <g fill="#eeeca8">
  <path d="M33.30 25.35 c-3.20 -3.20 -5.70 -3.75 -7.40 -1.60 -1.10 1.40 -2.25 1.60 -3.70 0.55 -0.90 -0.70 -0.90 -0.75 -0.05 -1.05 0.70 -0.30 0.75 -0.50 0.30 -1.05 -0.45 -0.55 -0.75 -0.60 -1.30 -0.10 -0.55 0.45 -0.80 0.45 -1.10 0 -0.25 -0.40 -0.85 -0.45 -2.20 -0.05 -1.35 0.35 -2.40 0.35 -3.65 -0.05 -2.25 -0.75 -2.25 -1.70 0.05 -1.35 1.05 0.20 1.75 0.10 1.75 -0.25 0 -0.30 0.55 -0.40 1.20 -0.30 1.60 0.30 2.50 -1.10 1.55 -2.40 -0.65 -0.90 -0.70 -0.90 -1.15 0.25 -0.40 1.20 -0.40 1.20 -2 -0.75 -1.45 -1.75 -1.85 -3.15 -0.50 -1.80 0.75 0.75 1.40 0.75 1.40 0.10 0 -0.30 -0.60 -0.80 -1.30 -1.10 -1.15 -0.55 -1.40 -0.50 -2 0.35 -0.55 0.75 -0.85 0.80 -1.30 0.35 -0.45 -0.45 -0.45 -1.10 -0.05 -2.60 0.50 -1.95 0.45 -2.05 -0.80 -2.75 -1.05 -0.55 -1.10 -0.70 -0.35 -0.75 2 0 7.10 3.50 8.50 5.95 3.10 5.25 3.45 5.55 7.55 5.55 3.45 0 6.85 1.95 7.80 4.45 0.70 1.70 0.20 1.85 -1.25 0.40z"/>
  <path d="M10.20 20.30 c-0.50 -0.40 -0.80 -0.85 -0.65 -1 0.15 -0.15 0.70 0.15 1.20 0.70 1.05 1.15 0.85 1.30 -0.55 0.30z"/>
  <path d="M2.60 16.40 c-0.95 -0.95 -0.70 -1.45 0.40 -0.80 1 0.65 1.35 1.40 0.60 1.40 -0.20 0 -0.65 -0.25 -1 -0.60z"/>
  <path d="M3.25 14.50 c-0.95 -0.60 -1.20 -1 -0.70 -1 0.45 0 1.20 0.45 1.70 1 1.15 1.25 0.90 1.25 -1 0z"/>
  <path d="M16.95 10.85 c-0.45 -0.30 -1.15 -1.25 -1.65 -2 -0.85 -1.40 -0.85 -1.45 0 -1.25 0.50 0.10 1.35 0.90 1.85 1.80 1.05 1.80 0.95 2.45 -0.20 1.45z"/>
  <path d="M2.30 4.50 c-0.70 -1.10 -1.20 -2 -1.05 -2 0.40 0 3.20 3.20 3.25 3.65 0 0.90 -1 0.15 -2.20 -1.65z"/>
  <path d="M13 4.40 l-1.05 -2.15 1.50 1.65 c1.55 1.65 1.95 2.60 1.05 2.60 -0.25 0 -0.95 -0.95 -1.50 -2.10z"/>
 </g>
 <g fill="#eff2c6">
  <path d="M33.05 25.05 c-0.80 -1.45 -3.15 -2.75 -5.15 -2.85 -1.35 -0.05 -1.90 0.10 -1.90 0.60 0 1.05 -1.85 0.85 -2.95 -0.35 -0.70 -0.75 -1.25 -0.95 -2.10 -0.70 -0.85 0.30 -1.05 0.20 -0.80 -0.45 0.15 -0.40 0.10 -0.90 -0.20 -1.10 -0.30 -0.15 -0.40 -0.55 -0.30 -0.85 0.30 -0.90 -0.60 -2.35 -1.40 -2.35 -0.45 0 -0.75 0.45 -0.75 1.05 0 0.90 -0.10 0.95 -0.75 0.25 -0.40 -0.40 -0.75 -1 -0.75 -1.30 0 -0.30 0.35 -0.65 0.75 -0.80 1.10 -0.45 0.95 -0.95 -0.50 -1.70 -0.70 -0.35 -1.25 -1.05 -1.25 -1.50 0 -0.45 -0.25 -1.05 -0.60 -1.40 -0.45 -0.45 -0.45 -0.60 0.05 -0.60 1.20 0 3.40 1.65 4.30 3.20 2.30 4 3.95 5.75 5.50 5.80 4.60 0.05 9.75 2.55 10.40 5.05 0.35 1.25 -0.95 1.25 -1.60 0z"/>
  <path d="M13.25 21 c-0.15 -0.25 0.05 -0.50 0.45 -0.50 0.40 0 0.90 0.25 1.05 0.50 0.15 0.30 -0.05 0.50 -0.45 0.50 -0.40 0 -0.90 -0.20 -1.05 -0.50z"/>
  <path d="M16 20.75 c0 -0.40 0.35 -0.75 0.75 -0.75 0.40 0 0.75 0.35 0.75 0.75 0 0.40 -0.35 0.75 -0.75 0.75 -0.40 0 -0.75 -0.35 -0.75 -0.75z"/>
  <path d="M8.40 19.20 c-1.05 -0.65 -1.90 -1.45 -1.90 -1.70 0 -0.55 3.15 1.20 4 2.30 0.90 1.05 0 0.80 -2.10 -0.60z"/>
  <path d="M10.50 18.60 c-2.30 -1.75 -4.75 -4.10 -4.30 -4.10 1.05 0 5.10 3.20 5.85 4.65 0.60 1.10 0.55 1.05 -1.55 -0.55z"/>
  <path d="M2.90 14.25 c-1 -0.70 -2.10 -1.25 -2.35 -1.25 -0.30 0 -0.55 -0.35 -0.55 -0.75 0 -0.95 1 -0.50 3.50 1.70 2.15 1.85 1.85 2 -0.60 0.30z"/>
  <path d="M12 14.05 c0 -1.10 0.80 -1.80 1.20 -1.10 0.40 0.60 -0.15 2.05 -0.75 2.05 -0.25 0 -0.45 -0.45 -0.45 -0.95z"/>
  <path d="M16.15 9.65 c-0.85 -1.05 -2.10 -3.15 -2.85 -4.65 l-1.35 -2.75 1.50 1.75 c1.90 2.25 4.75 6.95 4.45 7.30 -0.15 0.15 -0.95 -0.60 -1.75 -1.65z"/>
  <path d="M2.55 4.70 c-1.50 -1.95 -1.30 -2.55 0.25 -0.70 0.75 0.85 1.20 1.65 1.05 1.80 -0.10 0.15 -0.70 -0.35 -1.30 -1.10z"/>
 </g>
 <g fill="#f7fae5">
  <path d="M31.45 23.25 c-1.80 -1.25 -2.70 -1.50 -4.10 -1.35 -1.05 0.10 -1.85 0.40 -1.85 0.65 0 0.90 -1.65 0.40 -3.55 -1.10 -1.05 -0.85 -1.95 -1.90 -1.95 -2.40 0 -0.45 -0.30 -1.30 -0.70 -1.85 -0.65 -0.85 -0.85 -0.85 -1.90 -0.25 -1.10 0.65 -1.15 0.65 -0.30 -0.30 0.65 -0.70 0.75 -1.10 0.35 -1.50 -0.60 -0.60 -0.20 -1.65 0.60 -1.65 0.30 0 0.75 0.65 1.10 1.40 0.35 0.80 1.30 2.25 2.15 3.20 1.30 1.50 1.95 1.80 4.35 2.05 3.45 0.35 7.05 1.90 7.85 3.35 0.30 0.60 0.50 1.15 0.40 1.20 -0.10 0.05 -1.20 -0.60 -2.45 -1.45z"/>
  <path d="M9.90 18.10 c-1.90 -1.35 -2.80 -2.60 -1.90 -2.60 0.70 0 4.30 3.35 4 3.65 -0.15 0.15 -1.10 -0.35 -2.10 -1.05z"/>
  <path d="M2 13.50 c-1.25 -0.80 -2 -1.50 -1.75 -1.50 0.55 0 4.25 2.40 4.25 2.75 0 0.40 -0.15 0.30 -2.50 -1.25z"/>
  <path d="M12 13.80 c0 -0.45 0.35 -0.80 0.80 -0.80 0.45 0 0.70 0.25 0.60 0.60 -0.30 0.90 -1.40 1.05 -1.40 0.20z"/>
  <path d="M15.80 8.70 c-0.50 -0.70 -0.75 -1.40 -0.65 -1.55 0.15 -0.10 0.65 0.35 1.15 1.05 0.45 0.75 0.70 1.45 0.60 1.60 -0.15 0.10 -0.65 -0.35 -1.10 -1.10z"/>
 </g>
</svg>