<?xml version="1.0" encoding="utf-8"?>
<!DOCTYPE svg PUBLIC "-//W3C//DTD SVG 1.0//EN" "http://www.w3.org/TR/2001/REC-SVG-20010904/DTD/svg10.dtd">
<svg version="1.0" xmlns="http://www.w3.org/2000/svg" width="40px" height="40px" viewBox="0 0 40 40" preserveAspectRatio="xMidYMid meet">
 <g fill="#0f0c0b">
  <path d="M27.15 27.20 c-0.40 -0.15 -0.65 -1.20 -0.65 -2.50 l0 -2.20 2 0 c1.10 0 2 0.25 2 0.50 0 0.30 0.45 0.50 1.05 0.50 0.85 0 1 0.25 0.85 1.90 -0.15 1.80 -0.20 1.85 -2.40 1.95 -1.25 0.05 -2.55 0 -2.85 -0.15z"/>
  <path d="M8.35 26.15 c-0.20 -0.15 -0.35 -1.10 -0.35 -2 0 -1.70 0 -1.70 2.15 -1.55 2.05 0.15 2.10 0.20 2.25 2.05 0.15 1.85 0.15 1.85 -1.80 1.85 -1.05 0 -2.10 -0.15 -2.25 -0.35z"/>
  <path d="M4.65 20.65 c-0.35 -0.10 -0.65 -1 -0.65 -1.95 0 -1.55 0.15 -1.70 1.45 -1.70 2.45 0 3.05 0.45 3.05 2.30 0 1.60 -0.10 1.70 -1.60 1.65 -0.90 0 -1.95 -0.15 -2.25 -0.30z"/>
  <path d="M10.15 10.15 c-0.45 -0.15 -0.65 -1.35 -0.65 -3.45 l0 -3.20 1.65 0 c1.40 0 1.80 0.25 2.50 1.75 0.45 1 0.85 2.55 0.85 3.50 0 1.70 -0.05 1.75 -1.85 1.70 -1.05 0 -2.20 -0.15 -2.50 -0.30z"/>
 </g>
 <g fill="#2e140a">
  <path d="M3.15 36.70 c-1.90 -1.40 -3.15 -2.70 -3.15 -3.25 0 -1.25 0.15 -1.25 3.20 0.80 3 2 4.30 2.20 4.65 0.75 0.15 -0.55 0.45 -1 0.70 -1 1.10 0 0.25 -1.50 -2.25 -3.95 -2.10 -2.05 -2.70 -3.05 -2.65 -4.05 0.10 -1.25 0.15 -1.30 2.10 -0.85 1.10 0.25 2.40 0.65 2.85 0.90 0.50 0.25 1.25 0.45 1.65 0.45 1 0 0.95 0.50 -0.25 1.75 -0.95 1 -0.95 1 0.80 2.90 0.95 1 1.95 1.85 2.15 1.85 0.70 0 1.55 -1.20 1.55 -2.25 0 -0.55 0.45 -1.30 1 -1.65 0.85 -0.50 1 -0.50 1 0.15 0 0.40 0.25 0.75 0.50 0.75 0.30 0 0.50 -0.55 0.50 -1.25 0 -1.10 0.20 -1.25 2 -1.25 1.80 0 2 0.10 2 1.30 0 1.05 -0.20 1.25 -0.95 1.05 -0.80 -0.20 -1.05 0.05 -1.15 1.05 -0.10 1 -0.55 1.45 -1.90 1.80 -2.10 0.60 -3.35 1.60 -4.30 3.45 -0.95 1.75 -1.70 1.75 -1.70 -0.05 0 -1.30 -0.15 -1.40 -1.50 -1.20 -1.85 0.25 -2.05 1.60 -0.25 1.60 0.80 0 1.25 0.30 1.25 0.75 0 0.80 -0.05 0.80 -2 1 -0.70 0.05 -1.60 0.25 -2 0.45 -0.45 0.20 -1.95 -0.55 -3.85 -2z"/>
  <path d="M32 28.80 c0 -1.20 0.15 -1.30 2.25 -1.30 1.80 0 2.25 -0.15 2.25 -0.85 0 -0.75 0.15 -0.70 1.10 0.25 1.45 1.45 0.75 2.15 -2.30 2.35 -1.25 0.10 -2.50 0.30 -2.80 0.50 -0.30 0.20 -0.50 -0.20 -0.50 -0.95z"/>
  <path d="M27.80 13.65 c0.40 -1.25 0.70 -2.85 0.70 -3.50 0 -0.80 0.30 -1.15 1 -1.15 0.85 0 1 0.35 1 2.20 0 1.25 -0.20 2.40 -0.50 2.55 -0.25 0.15 -0.50 0.75 -0.50 1.30 0 0.65 -0.35 0.95 -1.20 0.95 -1.20 0 -1.20 0 -0.50 -2.35z"/>
  <path d="M28.95 7.15 c-0.25 -0.70 -0.40 -1.60 -0.25 -1.90 0.10 -0.35 -0.10 -1.25 -0.50 -1.95 -0.55 -1.10 -0.55 -1.55 -0.05 -2.35 0.85 -1.40 1.20 -1.20 1.55 1.10 0.30 2 0.35 2 1.95 1.70 0.85 -0.20 1.95 -0.65 2.40 -1.05 1.10 -1 1.95 -0.85 1.95 0.25 0 0.65 -0.45 1.05 -1.65 1.25 -1.20 0.20 -1.95 0.85 -2.85 2.30 -1.45 2.35 -1.85 2.45 -2.55 0.65z"/>
 </g>
 <g fill="#292421">
  <path d="M5.35 38.45 c-1.40 -0.80 -1 -1.45 0.90 -1.45 1.90 0 2.30 0.65 0.85 1.45 -0.55 0.30 -1.20 0.30 -1.75 0z"/>
  <path d="M10 37 c0 -0.80 0.35 -1 1.50 -1 1.60 0 1.85 0.45 0.90 1.40 -0.95 0.95 -2.40 0.75 -2.40 -0.40z"/>
  <path d="M12.90 34.60 c-1.10 -0.20 -1.20 -1.60 -0.15 -1.60 0.40 0 1.20 -0.45 1.75 -1 1.05 -1.05 4.50 -1.45 4.50 -0.50 0 0.65 -1.90 1.60 -2.50 1.25 -0.25 -0.15 -0.60 0 -0.85 0.35 -0.70 1.10 -1.85 1.75 -2.75 1.50z"/>
  <path d="M22.90 30.10 c-0.50 -0.10 -0.90 -0.45 -0.90 -0.80 0 -0.45 1.45 -0.75 5.15 -0.95 2.80 -0.20 6.15 -0.50 7.50 -0.65 1.90 -0.25 2.35 -0.20 2.35 0.45 0 0.85 -1.20 1.45 -2.20 1.05 -0.40 -0.15 -1.40 0.10 -2.30 0.55 -1.45 0.75 -6.95 0.95 -9.60 0.35z"/>
  <path d="M8 27.50 c0 -0.85 -0.35 -1 -1.95 -1 -1.55 0 -2 -0.20 -2.20 -1.10 -0.20 -0.60 -0.20 -1.20 -0.10 -1.35 0.15 -0.10 0.25 0.05 0.25 0.35 0 0.35 0.35 0.60 0.75 0.60 1.45 0 0.75 -0.90 -1.10 -1.50 -3 -0.95 -3.65 -2.10 -3.65 -6.85 l0 -4.15 1.75 0 c0.95 0 1.75 0.20 1.75 0.40 0 0.20 0.70 0.65 1.50 0.95 1.20 0.45 1.50 0.85 1.50 2.10 0 1.05 0.25 1.55 0.75 1.55 0.40 0 0.75 0.25 0.75 0.50 0 0.30 0.55 0.50 1.25 0.50 1.10 0 1.25 0.20 1.25 1.75 0 1.40 -0.20 1.75 -1 1.75 -0.55 0 -1 0.25 -1 0.50 0 0.30 1 0.50 2.25 0.50 2.15 0 2.25 0.05 2.25 1.50 0 1 0.25 1.50 0.75 1.50 0.45 0 0.75 0.45 0.75 1.05 0 0.95 -0.20 1 -1.75 0.75 -1 -0.20 -2.05 -0.20 -2.40 0.05 -1.30 0.80 -2.35 0.65 -2.35 -0.35z m-3.50 -8.95 c0 -0.25 -0.45 -0.55 -1 -0.70 -0.85 -0.20 -1 0 -1 1.45 l0 1.70 1 -1 c0.55 -0.55 1 -1.20 1 -1.45z"/>
  <path d="M28 26.25 c0 -0.55 0.35 -0.70 1.20 -0.45 0.70 0.15 1.35 0.05 1.60 -0.35 0.25 -0.40 0.10 -0.55 -0.40 -0.35 -0.40 0.20 -1.10 -0.10 -1.60 -0.65 -0.75 -0.95 -0.75 -1 0.70 -1.25 1.75 -0.40 1.55 -1 -0.50 -1.45 -1.05 -0.25 -1.50 -0.65 -1.50 -1.30 0 -0.75 -0.35 -0.95 -1.75 -0.95 -1.20 0 -1.75 -0.25 -1.75 -0.75 0 -0.40 0.30 -0.75 0.65 -0.75 1.65 0 3.85 -3.80 3.90 -6.60 0.05 -3.60 0.45 -5 1.35 -4.75 0.50 0.10 0.80 0.45 0.70 0.75 -0.05 0.35 -0.15 1.90 -0.15 3.50 -0.05 2.90 -0.75 4.85 -2.25 6.30 -1.20 1.20 -0.55 2.05 1.95 2.80 1.25 0.35 2.80 1.15 3.40 1.80 l1.10 1.20 -1.05 0 c-0.90 0 -1.10 0.30 -1.10 1.70 0 1.85 -0.60 2.30 -3.05 2.30 -0.95 0 -1.45 -0.25 -1.45 -0.75z"/>
  <path d="M19.50 15.75 c0 -1.20 -0.25 -1.75 -0.75 -1.75 -0.50 0 -0.75 -0.55 -0.75 -1.75 0 -1.20 -0.25 -1.75 -0.75 -1.75 -0.40 0 -0.75 -0.35 -0.75 -0.75 0 -0.40 -0.20 -0.75 -0.50 -0.75 -0.25 0 -0.50 -0.80 -0.50 -1.75 0 -1.40 -0.20 -1.75 -1 -1.75 -0.80 0 -1 -0.35 -1 -1.50 0 -1.30 -0.15 -1.50 -1.35 -1.45 -0.80 0.05 -1.05 0.15 -0.55 0.30 0.45 0.10 1.10 1.20 1.45 2.45 0.35 1.20 0.95 2.20 1.30 2.20 0.40 0 0.65 0.65 0.65 1.75 0 1.65 -0.10 1.75 -1.75 1.75 -0.95 0 -1.75 -0.20 -1.75 -0.50 0 -0.25 -0.65 -0.50 -1.50 -0.50 -0.80 0 -1.50 -0.20 -1.50 -0.50 0 -0.25 -0.40 -0.50 -0.90 -0.50 -1.20 0 -3.10 -1.65 -3.10 -2.70 0 -0.45 -0.20 -0.80 -0.50 -0.80 -0.25 0 -0.50 -0.65 -0.50 -1.50 0 -1 -0.25 -1.50 -0.75 -1.50 -0.45 0 -0.75 -0.45 -0.75 -1.25 0 -2.15 1.35 -1.40 2.70 1.45 1.50 3.20 2.50 4.30 3.85 4.30 0.75 0 0.95 -0.35 0.95 -1.80 0 -0.95 -0.25 -2.20 -0.50 -2.75 -0.45 -0.80 -0.35 -0.95 0.45 -0.95 0.70 0 0.95 -0.25 0.75 -0.75 -0.50 -1.25 0.95 -0.85 2.90 0.75 2.05 1.70 4.35 5.40 6.75 10.95 0.90 2 1.90 4 2.20 4.35 0.45 0.55 0.30 0.70 -1 0.70 -1.45 0 -1.55 -0.10 -1.55 -1.75z m-6.50 -7 c0 -0.65 -1.75 -3.75 -2.10 -3.75 -0.25 0 -0.05 0.60 0.45 1.35 0.70 1.05 0.75 1.35 0.20 1.55 -0.55 0.20 -0.55 0.30 0 0.65 0.75 0.50 1.45 0.60 1.45 0.20z"/>
  <path d="M28.40 3.40 c-0.90 -1.40 -0.20 -3.40 1.15 -3.40 0.75 0 0.85 0.30 0.60 1.80 -0.20 1.25 -0.10 1.95 0.40 2.25 0.55 0.35 0.45 0.45 -0.35 0.45 -0.60 0 -1.40 -0.50 -1.80 -1.10z"/>
 </g>
 <g fill="#44271a">
  <path d="M3.80 37.05 c-0.80 -0.80 -1.95 -1.60 -2.60 -1.75 -0.85 -0.25 -1.20 -0.65 -1.20 -1.55 0 -1.25 0 -1.30 1.65 -0.45 0.85 0.45 2.35 1.40 3.25 2.10 1.30 1 1.75 1.10 2.35 0.60 0.40 -0.35 0.60 -0.80 0.50 -1.05 -0.15 -0.20 0.20 -0.65 0.80 -0.95 1 -0.55 0.90 -0.70 -2 -3.70 -2.30 -2.45 -2.95 -3.40 -2.70 -4.25 0.30 -1.25 0.70 -1.30 4.05 -0.30 1.80 0.55 2.50 1 2.30 1.45 -0.45 1.15 -1.80 1.40 -2.75 0.50 -0.55 -0.50 -0.95 -0.65 -0.95 -0.35 0 0.70 5.80 5.65 6.60 5.65 1.05 0 1.90 -1.05 1.90 -2.35 0 -0.90 0.30 -1.15 1.25 -1.15 0.80 0 1.25 -0.30 1.25 -0.75 0 -0.50 0.55 -0.75 1.75 -0.75 1.40 0 1.75 0.20 1.75 1 0 0.55 -0.20 1 -0.50 1 -0.25 0 -0.50 -0.20 -0.50 -0.50 0 -0.25 -0.20 -0.50 -0.45 -0.50 -0.25 0 -0.35 0.45 -0.20 1 0.35 1.30 -0.65 2.50 -2.05 2.50 -1.15 0 -4.30 2.85 -4.30 3.90 0 0.90 -1.75 1.60 -4.90 1.85 -2.70 0.25 -3 0.15 -4.30 -1.20z"/>
  <path d="M24.40 30.10 c-0.50 -0.10 -0.90 -0.50 -0.90 -0.90 0 -0.50 0.70 -0.70 2.75 -0.70 2.35 0 2.75 0.15 2.75 0.90 0 0.75 -0.40 0.95 -1.85 0.95 -1.05 -0.05 -2.30 -0.15 -2.75 -0.25z"/>
  <path d="M31.80 29.65 c-0.90 -0.90 -0.20 -2.05 1.45 -2.35 1.55 -0.30 1.75 -0.55 1.75 -1.80 0 -0.85 0.20 -1.50 0.45 -1.50 0.70 0 3 4.20 2.55 4.70 -0.20 0.20 -1.25 0.40 -2.30 0.40 -1.10 0 -2.30 0.20 -2.75 0.45 -0.45 0.20 -0.95 0.25 -1.15 0.10z"/>
  <path d="M26 20.50 c0 -0.25 -0.90 -0.50 -2 -0.50 -1.90 0 -2 -0.05 -2 -1.60 0 -1.25 0.15 -1.45 0.60 -1 0.35 0.35 1.20 0.60 1.90 0.60 1 0 1.60 -0.50 2.55 -2.10 1.15 -2.10 1.30 -2.55 1.55 -5.60 0.20 -2.30 1.40 -2.25 1.50 0.05 0.15 3.05 -0.05 4.40 -0.60 4.55 -0.25 0.10 -0.50 0.45 -0.50 0.75 0 0.35 -0.35 1.20 -0.70 1.95 -0.70 1.30 -0.65 1.45 0.25 1.90 1.50 0.80 1.15 1.50 -0.80 1.50 -0.95 0 -1.75 -0.20 -1.75 -0.50z"/>
  <path d="M28.95 6.90 c0 -0.35 -0.10 -1.20 -0.25 -1.90 -0.55 -3.45 -0.45 -4.20 0.45 -4.40 0.70 -0.15 0.90 0.10 0.85 1 -0.20 2.35 -0.10 2.50 1.65 2.15 0.85 -0.20 2.05 -0.80 2.65 -1.30 1.35 -1.25 1.80 -1.20 1.60 0.15 -0.10 0.75 -0.65 1.20 -1.75 1.50 -1 0.25 -1.95 1 -2.50 1.90 -0.85 1.50 -2.60 2.05 -2.70 0.90z"/>
 </g>
 <g fill="#343435">
  <path d="M15.60 30.15 c-0.50 -0.20 -0.50 -0.40 -0.05 -0.95 0.75 -0.90 0.75 -0.90 -2.55 -1.55 -2 -0.40 -2.85 -0.40 -3.10 0 -0.25 0.40 -0.80 0.40 -2.05 -0.05 -0.90 -0.35 -2.05 -0.60 -2.50 -0.60 -0.50 0 -0.85 -0.40 -0.85 -1 0 -0.80 0.35 -1 1.65 -1.05 1.25 -0.05 1.40 -0.15 0.60 -0.40 -0.55 -0.20 -1.85 -0.75 -2.85 -1.20 -1.05 -0.45 -2.10 -0.85 -2.40 -0.85 -0.25 0 -0.50 -0.35 -0.50 -0.75 0 -0.40 -0.20 -0.75 -0.50 -0.75 -0.70 0 -0.60 -1.35 0.15 -1.65 0.45 -0.20 0.45 -0.30 0 -0.30 -0.45 -0.05 -0.65 -1.10 -0.65 -3.55 l0 -3.50 1.50 0 c0.85 0 1.50 0.25 1.50 0.50 0 0.30 0.35 0.50 0.80 0.50 0.55 0 0.75 0.40 0.60 1.60 -0.15 1.45 0 1.65 1.55 1.95 0.90 0.20 1.80 0.55 2 0.80 0.15 0.25 1.05 0.80 1.95 1.20 1.25 0.55 1.60 1 1.60 2.15 0 1.75 2.15 3.80 4.05 3.80 0.70 0 1.45 0.15 1.65 0.35 0.60 0.60 4.90 1.60 6.95 1.65 1.85 0 1.85 0 1.85 -2 0 -1.70 0.20 -2.05 1.25 -2.30 0.90 -0.20 1.25 -0.65 1.25 -1.45 0 -1.10 0.10 -1.15 1.80 -0.60 1 0.30 2.85 1.55 4.15 2.75 l2.30 2.15 -2.10 -0.15 c-1.95 -0.15 -2.15 -0.05 -2.15 0.95 0 0.65 0.40 1.20 1 1.40 1.30 0.40 1.30 1.55 0 1.90 -0.55 0.15 -1.10 0.25 -1.20 0.20 -0.05 -0.05 -0.45 0.15 -0.85 0.50 -0.80 0.65 -11.45 0.30 -11.45 -0.40 0 -0.25 -0.25 -0.45 -0.55 -0.45 -0.30 0 -0.45 0.35 -0.25 0.75 0.20 0.60 -0.10 0.75 -1.35 0.70 -0.90 0 -1.90 -0.15 -2.25 -0.30z m15.25 -5 c0.15 -0.35 -0.15 -0.45 -0.80 -0.30 -0.60 0.15 -1.05 0.05 -1.05 -0.30 0 -0.30 -0.20 -0.55 -0.50 -0.55 -0.70 0 -0.60 1.35 0.15 1.65 0.90 0.40 2 0.15 2.20 -0.50z m-19.85 -0.65 c-0.95 -0.65 -1.50 -0.65 -1.50 0 0 0.30 0.50 0.50 1.15 0.50 0.90 0 0.95 -0.10 0.35 -0.50z m-4.70 -2.75 c-0.50 -0.40 -1.15 -0.60 -1.40 -0.45 -0.70 0.45 0.10 1.20 1.25 1.20 1.05 -0.05 1.05 -0.05 0.15 -0.75z"/>
  <path d="M20.85 19.15 c-0.20 -0.15 -0.35 -0.85 -0.35 -1.50 0 -0.65 -0.30 -1.15 -0.70 -1.15 -0.75 0 -1.30 -1.05 -1.30 -2.50 0 -1 -0.95 -1.50 -2.80 -1.50 -1.25 0 -3.20 -0.80 -3.70 -1.50 -0.15 -0.20 -1.60 -0.65 -3.25 -1.05 -2.95 -0.70 -3 -0.70 -3.15 -2.60 l-0.15 -1.95 1.45 1.10 c0.85 0.60 1.75 0.95 2.05 0.80 0.75 -0.50 0.70 -4.45 -0.05 -5.20 -0.45 -0.45 -0.35 -0.60 0.50 -0.60 0.65 0 1.10 -0.30 1.10 -0.75 0 -0.40 0.25 -0.75 0.50 -0.75 0.30 0 0.50 0.25 0.50 0.50 0 0.30 0.30 0.50 0.70 0.50 1.20 0 3.70 3.50 6.30 8.80 1.40 2.80 2.50 5.30 2.50 5.60 0 0.25 0.80 1.20 1.75 2.05 0.95 0.85 1.75 1.65 1.75 1.80 0 0.35 -3.25 0.30 -3.65 -0.10z m-8.65 -12.20 c-0.70 -1.40 -1.40 -2.45 -1.50 -2.30 -0.15 0.15 0.10 0.95 0.55 1.80 0.75 1.50 0.75 1.55 -0.35 1.60 -0.90 0 -0.80 0.15 0.60 0.65 0.95 0.40 1.80 0.70 1.90 0.75 0.05 0 -0.45 -1.10 -1.20 -2.50z m2.80 -1.45 c0 -0.55 -0.20 -1 -0.50 -1 -0.25 0 -0.50 0.45 -0.50 1 0 0.55 0.25 1 0.50 1 0.30 0 0.50 -0.45 0.50 -1z"/>
  <path d="M0 6.25 c0 -4.90 0.05 -5.25 1 -5.25 0.55 0 1 -0.20 1 -0.50 0 -1.30 1.40 -0.25 2.40 1.75 1.35 2.75 1.35 2.75 0.10 2.75 -0.55 0 -1 0.25 -1 0.50 0 0.30 0.25 0.50 0.50 0.50 0.30 0 0.50 0.70 0.50 1.50 0 1.80 -1.95 4 -3.50 4 -0.95 0 -1 -0.30 -1 -5.25z"/>
 </g>
 <g fill="#533828">
  <path d="M4.50 37.15 l-1.25 -1.30 1.80 0.25 c1.95 0.35 2.60 0.10 3.10 -1.20 0.20 -0.60 0.85 -0.90 1.85 -0.90 0.80 0 1.50 -0.20 1.50 -0.50 0 -0.25 0.55 -0.50 1.20 -0.50 1.40 0 2.15 -0.80 2.40 -2.50 0.10 -1.05 0.45 -1.30 1.95 -1.40 2.05 -0.15 2.80 0.80 1.95 2.45 -0.65 1.15 -2.60 1.35 -2.20 0.20 0.20 -0.40 0.10 -0.75 -0.20 -0.75 -0.25 0 -0.65 0.55 -0.80 1.20 -0.15 0.65 -0.85 1.55 -1.55 2 -0.70 0.45 -1.25 1.25 -1.25 1.80 0 1.25 -1.45 2.05 -2.60 1.45 -0.65 -0.35 -1.25 -0.25 -2 0.30 -1.55 1.05 -2.45 0.95 -3.90 -0.60z"/>
  <path d="M0 34 c0 -1.10 0.60 -1.25 2.05 -0.50 1.40 0.80 1.15 1.50 -0.55 1.50 -1.15 0 -1.50 -0.20 -1.50 -1z"/>
  <path d="M20 29.50 c0 -0.25 0.45 -0.50 1.05 -0.50 0.55 0 0.85 0.25 0.70 0.50 -0.15 0.30 -0.65 0.50 -1.05 0.50 -0.40 0 -0.70 -0.20 -0.70 -0.50z"/>
  <path d="M6.15 29.15 c-0.35 -0.10 -0.65 -0.55 -0.65 -0.95 0 -0.40 -0.35 -0.70 -0.80 -0.70 -0.50 0 -0.70 -0.35 -0.60 -1.10 0.10 -0.80 0.45 -1.15 1.15 -1.05 1.95 0.15 4.95 0.65 5.20 0.90 0.40 0.45 -1.65 1.75 -2.30 1.50 -0.35 -0.15 -1.05 -0.40 -1.50 -0.60 -0.70 -0.25 -0.60 0 0.30 1 1.15 1.30 0.85 1.70 -0.80 1z"/>
  <path d="M34 27.95 c0 -0.55 0.35 -0.95 0.90 -1 0.50 0 0.60 -0.15 0.25 -0.30 -0.85 -0.30 -0.85 -3.30 -0.05 -3.05 0.30 0.10 0.80 0.65 1.10 1.20 0.30 0.50 0.95 1.55 1.45 2.30 0.90 1.35 0.90 1.35 -0.25 1.60 -2.50 0.45 -3.40 0.25 -3.40 -0.75z"/>
  <path d="M26.40 21.15 c-1.20 -0.30 -1.15 -2.65 0 -4.20 1 -1.30 2.55 -5.70 2.50 -6.95 -0.10 -1.70 0.15 -2.50 0.75 -2.50 1.15 0 0.50 6.35 -1 9.15 -0.70 1.35 -1.15 2.45 -1.05 2.55 0.05 0.05 0.75 0.35 1.55 0.70 0.75 0.30 1.35 0.80 1.35 1.10 0 0.50 -2.45 0.60 -4.10 0.15z"/>
  <path d="M21.50 18.25 l0 -1.75 1 1 c0.55 0.55 1.35 1 1.75 1 0.40 0 0.75 0.35 0.75 0.75 0 0.50 -0.55 0.75 -1.75 0.75 -1.65 0 -1.75 -0.10 -1.75 -1.75z"/>
  <path d="M29.70 5.10 c-1.90 -1.25 -2.05 -5.10 -0.20 -5.10 0.85 0 0.90 0.20 0.50 1.25 -0.75 1.95 -0.15 2.85 1.70 2.45 1.90 -0.40 3.30 -1.55 3.30 -2.80 0 -0.50 0.35 -0.90 0.80 -0.90 0.65 0 0.75 0.30 0.45 1.35 -0.45 1.80 -1.15 2.65 -2.25 2.65 -0.50 0 -1.15 0.35 -1.50 0.75 -0.65 0.80 -1.90 0.95 -2.80 0.35z"/>
 </g>
 <g fill="#763c1c">
  <path d="M10.15 36.50 c0.30 -1.15 -0.55 -1.35 -0.95 -0.25 -0.20 0.40 -0.90 0.75 -1.65 0.75 -1.20 -0.05 -1.20 -0.10 -0.40 -0.70 0.45 -0.35 0.85 -0.90 0.85 -1.20 0 -0.30 0.40 -0.75 0.85 -1 0.75 -0.45 0.70 -0.65 -0.65 -2.15 -0.80 -0.95 -2.10 -2.30 -2.85 -3.05 -1.50 -1.50 -1.75 -2.80 -0.60 -3.25 0.90 -0.30 1.30 -0.05 1.45 1.05 0.20 1.40 5.40 6.30 6.65 6.30 1.30 0 1.55 1.25 0.40 1.70 -0.40 0.15 -0.75 0.85 -0.75 1.55 0 1 -0.25 1.25 -1.30 1.25 -1.05 0 -1.25 -0.20 -1.05 -1z"/>
  <path d="M17 31.20 c0 -0.70 -0.15 -0.75 -0.60 -0.30 -0.85 0.85 -1.40 0.75 -1.40 -0.35 0 -1.35 1.20 -2.15 2.75 -1.75 1.05 0.25 1.30 0.55 1.15 1.65 -0.15 1.50 -1.90 2.20 -1.90 0.75z"/>
  <path d="M33 28 c0 -0.75 0.35 -1 1.45 -1 0.80 0 1.55 -0.30 1.70 -0.60 0.15 -0.45 0.55 -0.20 1.25 0.60 0.55 0.70 0.95 1.30 0.85 1.40 -0.05 0.10 -1.30 0.25 -2.70 0.40 -2.30 0.20 -2.55 0.10 -2.55 -0.80z"/>
 </g>
 <g fill="#464545">
  <path d="M15.50 30.15 c0 -0.25 0.20 -0.70 0.45 -1.10 0.40 -0.60 0.70 -0.65 1.80 -0.15 0.70 0.35 1.15 0.85 1 1.10 -0.35 0.60 -3.25 0.70 -3.25 0.15z"/>
  <path d="M20.20 29.40 c-0.15 -0.20 0.65 -0.40 1.75 -0.40 1.15 0 2.05 0.20 2.05 0.50 0 0.55 -3.45 0.50 -3.80 -0.10z"/>
  <path d="M26.20 28.45 c-0.15 -0.30 -0.70 -0.45 -1.20 -0.30 -0.45 0.10 -2.10 0 -3.55 -0.25 -1.50 -0.25 -3.20 -0.50 -3.80 -0.60 -0.65 -0.10 -1.45 -0.40 -1.85 -0.75 -0.35 -0.30 -1.10 -0.40 -1.60 -0.20 -0.85 0.30 -0.80 0.40 0.30 0.65 0.70 0.20 -0.95 0.30 -3.60 0.20 -2.70 -0.05 -4.80 0.10 -4.65 0.30 0.15 0.25 -0.30 0.15 -1 -0.15 -1.35 -0.65 -1.45 -0.80 -0.80 -1.80 0.35 -0.55 0.75 -0.55 2.05 -0.15 1.15 0.45 1.80 0.40 2.55 -0.05 0.75 -0.45 1.15 -0.45 1.95 0.05 1.45 0.90 1.80 0.75 0.80 -0.35 -1.15 -1.25 -2.80 -1.70 -2.80 -0.70 0 0.90 -1.10 0.60 -5.10 -1.25 -2.95 -1.40 -3.55 -2.40 -2.15 -3.60 1.15 -0.95 0.90 -1.55 -0.50 -1.20 -1.10 0.25 -1.25 0.15 -1.25 -1.05 0 -1.10 0.15 -1.25 1.05 -1 0.75 0.25 0.95 0.20 0.75 -0.20 -0.20 -0.30 -0.70 -0.55 -1.10 -0.55 -0.40 0 -0.70 -0.35 -0.70 -0.75 0 -0.95 0.70 -0.95 2.40 0.05 l1.35 0.80 -1.25 -1.05 c-0.70 -0.55 -1.55 -1.05 -1.85 -1.05 -0.85 0 -0.85 -3.35 0 -3.65 0.45 -0.20 0.45 -0.30 0 -0.30 -0.75 -0.05 -0.90 -1.55 -0.15 -1.55 0.30 0 0.50 -0.35 0.50 -0.75 0 -0.40 -0.20 -0.75 -0.50 -0.75 -0.25 0 -0.50 -0.65 -0.50 -1.50 0 -0.85 0.25 -1.50 0.60 -1.50 0.45 0 0.45 -0.15 0 -0.60 -0.85 -0.85 -0.75 -1.90 0.15 -1.90 0.40 0 0.75 -0.20 0.75 -0.50 0 -0.25 0.45 -0.50 1 -0.50 0.55 0 1 0.25 1 0.60 0 0.30 0.90 2.10 2 3.95 1.90 3.20 2.10 3.40 4.50 3.90 1.40 0.30 3.15 0.95 3.90 1.40 l1.35 0.85 -1.35 -1.35 c-0.80 -0.70 -1.40 -1.65 -1.40 -2.05 0 -0.40 -0.65 -1.55 -1.50 -2.45 -0.80 -0.95 -1.50 -2.15 -1.50 -2.60 0 -0.85 0.05 -0.85 1.05 0.05 1.10 0.95 1.10 0.95 0.50 -0.15 -0.80 -1.55 -0.70 -1.70 0.70 -1.15 2.30 0.85 5 4.30 4.45 5.70 -0.20 0.50 -0.05 0.80 0.45 0.80 0.65 0 3.35 4.80 3.35 5.90 0 0.25 0.70 1.50 1.50 2.80 1.30 2 1.75 2.35 2.75 2.15 1.10 -0.20 1.25 -0.05 1.25 1.20 0 1.35 -0.15 1.45 -2 1.45 -1.40 0 -2 -0.20 -2 -0.70 0 -0.40 -0.35 -0.80 -0.75 -1 -0.40 -0.15 -0.75 -0.75 -0.75 -1.30 0 -0.55 -0.20 -1 -0.50 -1 -0.25 0 -0.50 -0.55 -0.50 -1.25 0 -0.70 -0.20 -1.25 -0.40 -1.25 -0.25 0 -0.70 -0.55 -1 -1.25 -0.45 -1 -0.95 -1.25 -2.35 -1.25 -0.95 0 -1.75 -0.20 -1.75 -0.50 0 -0.25 -0.55 -0.50 -1.25 -0.50 -0.70 0 -1.25 -0.30 -1.25 -0.60 0 -0.45 -0.80 -0.65 -2.25 -0.65 -1.25 0 -2.25 0.15 -2.25 0.35 0 0.85 0.65 1.90 1.25 1.90 0.40 0 0.80 1.25 1.10 3.40 0.30 2 0.55 2.70 0.60 1.70 0.05 -1.60 0.10 -1.65 1.95 -1.50 1.75 0.15 1.85 0.25 2 2.05 0.15 1.70 0.05 1.85 -1.15 1.85 -1.05 0 -1.30 0.20 -1.05 0.80 0.15 0.45 0.30 1.10 0.30 1.50 0 0.40 0.30 0.70 0.65 0.70 0.40 0 1.10 0.45 1.60 1 0.70 0.75 1.55 1 3.70 1 1.65 0.05 3.20 0.35 3.75 0.75 0.55 0.40 1.80 0.75 2.85 0.75 1.75 0 1.85 -0.10 2.15 -2 0.30 -1.80 0.45 -2 1.80 -2 1.15 0 1.50 -0.20 1.50 -1 0 -0.70 0.25 -0.90 0.90 -0.65 1.20 0.50 5.60 3.80 5.60 4.25 0 0.20 -0.80 0.40 -1.75 0.40 -0.95 0 -1.75 0.25 -1.75 0.50 0 0.30 -0.35 0.50 -0.75 0.50 -0.40 0 -0.75 -0.30 -0.75 -0.70 0 -0.45 -0.35 -0.60 -0.95 -0.45 -0.60 0.15 -1 -0.05 -1.15 -0.55 -0.10 -0.55 -0.35 -0.65 -0.90 -0.30 -1.20 0.75 0.15 1.70 3.40 2.25 2.30 0.45 2.90 0.75 3 1.55 0.15 1 -0.10 1.05 -3.85 1.10 -2.30 0 -4.15 -0.20 -4.35 -0.45z m-18.45 -5.95 c0.35 -0.60 -3.40 -3 -4.75 -3 -1.55 0 -1.20 1.30 0.65 2.40 1.75 1.10 3.60 1.40 4.10 0.60z m2.20 -1.65 c-1.10 -0.85 -5 -2.85 -4.75 -2.40 0.40 0.60 3.75 2.50 4.50 2.55 0.25 0 0.35 -0.05 0.25 -0.15z"/>
  <path d="M10.50 7.60 c-0.40 -0.20 -0.80 -1 -0.90 -1.85 l-0.10 -1.50 1 1.25 c0.80 1 1.35 2.60 0.90 2.45 -0.10 0 -0.50 -0.15 -0.90 -0.35z"/>
 </g>
 <g fill="#6a4732">
  <path d="M3.40 36.35 c-1.75 -0.95 -2.90 -1.95 -2.90 -2.45 0 -1.10 1 -0.75 3.80 1.25 1.75 1.20 2.25 1.35 3.15 0.85 0.60 -0.30 0.95 -0.75 0.80 -1 -0.15 -0.20 0.40 -0.70 1.25 -1.10 0.80 -0.35 1.50 -0.85 1.50 -1.10 0 -0.20 0.30 -0.20 0.65 0.05 1 0.80 3.10 0 3.25 -1.25 0.10 -0.60 0.50 -1.10 0.90 -1.10 0.60 0 0.60 0.20 -0.05 1.50 -0.45 0.85 -1.20 1.80 -1.75 2.15 -0.55 0.30 -1 0.90 -1 1.25 0 0.65 -1.15 2.10 -1.70 2.10 -0.15 0 -0.30 -0.45 -0.30 -1 0 -1.40 -1.20 -1.25 -2.20 0.25 -1.05 1.60 -1.95 1.55 -5.40 -0.40z"/>
  <path d="M16.90 30.70 c0.15 -1.25 0.45 -1.70 1 -1.60 1.50 0.30 1 3.40 -0.60 3.40 -0.40 0 -0.55 -0.65 -0.40 -1.80z"/>
  <path d="M32.80 28.60 c-0.75 -0.70 -0.20 -1.60 0.95 -1.60 1 0 1.25 -0.25 1.25 -1.25 0 -0.70 0.20 -1.25 0.50 -1.25 0.55 0 2.70 4 2.15 4.05 -0.25 0 -1.35 0.10 -2.50 0.20 -1.15 0.10 -2.20 0.05 -2.35 -0.15z"/>
  <path d="M4.50 27.50 c-0.60 -1.15 -0.30 -2 0.80 -2 0.45 0 0.70 0.55 0.70 1.50 0 1.75 -0.70 1.95 -1.50 0.50z"/>
  <path d="M7.15 27.15 c-0.35 -0.10 -0.65 -0.55 -0.65 -0.95 0 -0.60 0.20 -0.60 1 -0.10 1.55 1 1.30 1.75 -0.35 1.05z"/>
  <path d="M25.50 21 c-0.40 -0.25 -1.35 -0.50 -2.10 -0.50 -1.15 0 -1.40 -0.20 -1.40 -1.25 0 -1.10 0.15 -1.20 1.45 -0.95 1.15 0.25 1.70 0 3 -1.40 0.85 -0.90 1.55 -2.15 1.55 -2.75 0 -0.80 0.30 -1.15 1 -1.15 1.30 0 1.30 1.55 0 2.75 -0.50 0.45 -0.90 1 -0.85 1.20 0 0.15 -0.20 0.80 -0.55 1.40 -0.55 1 -0.45 1.10 0.90 1.40 2.20 0.50 1.95 1.75 -0.35 1.75 -1.05 0 -2.25 -0.25 -2.65 -0.50z"/>
  <path d="M29 6.80 c0 -1.25 -0.20 -2.80 -0.50 -3.50 -0.35 -1 -0.30 -1.30 0.20 -1.30 0.40 0 0.80 0.50 0.95 1.05 0.55 2 5.35 0.30 5.35 -1.90 0 -0.35 0.35 -0.65 0.70 -0.65 1.40 0 -0.10 2.75 -1.85 3.55 -0.95 0.45 -2.05 1.55 -2.75 2.85 -0.65 1.15 -1.40 2.10 -1.65 2.10 -0.25 0 -0.45 -1 -0.45 -2.20z"/>
 </g>
 <g fill="#565656">
  <path d="M32.75 28.50 c-0.20 -0.30 -1.25 -0.50 -2.40 -0.45 -3.15 0.10 -9.45 -0.60 -10.60 -1.20 -0.55 -0.30 -2.20 -0.60 -3.70 -0.65 -1.80 -0.10 -3.05 -0.50 -3.75 -1.15 -1.30 -1.20 -3.30 -1.85 -3.30 -1.05 0 0.70 -2.50 0.45 -2.60 -0.25 0 -0.25 0.85 -0.75 1.90 -1.10 1.10 -0.30 1.50 -0.60 0.95 -0.60 -0.55 -0.05 -2.50 -1.05 -4.35 -2.25 -1.85 -1.25 -3.50 -2 -3.65 -1.75 -0.55 0.80 -1.25 0.50 -1.25 -0.60 0 -0.90 0.20 -1 1.25 -0.75 0.95 0.25 1.15 0.15 0.95 -0.40 -0.15 -0.40 -0.60 -0.85 -1 -1 -0.40 -0.15 -0.70 -0.50 -0.70 -0.80 0 -0.65 1.80 0.20 3.40 1.65 0.60 0.55 1.10 0.80 1.10 0.50 0 -0.30 -1.15 -1.25 -2.50 -2.15 -1.85 -1.20 -2.50 -1.90 -2.50 -2.80 0 -1.30 0.70 -1.60 1.35 -0.55 0.20 0.30 0.95 1.05 1.65 1.60 0.80 0.60 0.60 0.30 -0.45 -0.85 -1.40 -1.50 -1.60 -2 -1.10 -2.60 0.50 -0.55 0.45 -0.95 -0.05 -1.75 -0.35 -0.60 -0.80 -1.05 -1 -1.05 -0.25 0 -0.40 -0.65 -0.40 -1.45 0 -1.05 0.30 -1.60 1 -1.80 0.75 -0.25 0.90 -0.60 0.65 -1.80 -0.25 -1.25 -0.15 -1.45 0.85 -1.45 0.65 0 1.05 0.15 0.85 0.30 -0.15 0.15 0.40 1.50 1.20 2.95 1.60 2.95 1.75 3.50 0.80 2.95 -0.30 -0.20 -0.15 0.10 0.35 0.70 0.60 0.70 1.85 1.20 3.50 1.45 1.40 0.20 2.15 0.45 1.70 0.55 -0.50 0.10 -0.90 0.40 -0.90 0.65 0 0.25 -0.45 0.45 -1 0.45 -1.50 0 -1.25 1.60 0.50 2.75 0.80 0.55 1.50 1.40 1.50 1.90 0 0.55 0.40 0.85 1.25 0.85 1.10 0 1.25 0.20 1.25 1.75 0 1.65 -0.10 1.75 -1.60 1.80 -1.15 0.05 -1.30 0.15 -0.55 0.30 0.70 0.15 1.20 0.70 1.40 1.70 0.20 0.80 0.65 1.45 1.05 1.45 0.40 0 0.85 0.30 1 0.70 0.30 0.80 2.20 1.45 2.20 0.75 0 -0.80 3.10 -0.50 3.75 0.40 0.45 0.55 1.60 0.90 3.80 1.05 1.75 0.10 3.45 0.40 3.75 0.65 0.90 0.75 2.70 -0.10 2.65 -1.25 0 -0.55 -0.15 -0.75 -0.30 -0.40 -0.35 0.85 -1.65 0.75 -1.65 -0.15 0 -0.40 -0.20 -0.75 -0.50 -0.75 -0.25 0 -0.50 -0.80 -0.50 -1.75 0 -1.30 0.20 -1.75 0.85 -1.75 1.05 0 5.15 2.40 5.15 3 0 0.30 0.35 0.50 0.75 0.50 0.40 0 0.95 0.45 1.25 0.95 0.70 1.35 0.65 1.55 -0.50 1.55 -0.55 0 -1 0.25 -1 0.50 0 0.30 0.25 0.50 0.50 0.50 0.30 0 0.50 0.35 0.50 0.75 0 0.40 -0.20 0.75 -0.45 0.75 -0.25 0 -0.80 0.15 -1.20 0.30 -0.40 0.15 -0.90 0 -1.10 -0.30z m-22.80 -7.75 c-0.15 -0.10 -1.35 -0.80 -2.70 -1.50 -1.60 -0.90 -2.20 -1.05 -1.75 -0.50 0.40 0.45 1.35 1.10 2.20 1.50 1.60 0.70 2.65 0.95 2.25 0.50z"/>
  <path d="M5 26.45 c0 -1.15 1.35 -1.25 2.70 -0.20 0.55 0.40 0.90 0.75 0.75 0.80 -2.80 0.40 -3.45 0.30 -3.45 -0.60z"/>
  <path d="M9.75 26 c-0.40 -0.65 0.75 -0.65 1.75 0 0.60 0.40 0.55 0.50 -0.35 0.50 -0.60 0 -1.25 -0.20 -1.40 -0.50z"/>
  <path d="M22.50 20.25 c0 -0.45 -0.45 -0.75 -1.25 -0.75 -0.80 0 -1.25 -0.30 -1.25 -0.75 0 -0.45 -0.35 -0.90 -0.75 -1.05 -0.40 -0.20 -0.75 -0.75 -0.75 -1.25 0 -0.50 -0.20 -0.95 -0.45 -0.95 -0.25 0 -0.60 -0.45 -0.80 -0.95 -0.15 -0.50 -0.85 -1.10 -1.50 -1.25 -0.70 -0.20 -1.25 -0.65 -1.25 -1.05 0 -0.40 -0.35 -0.75 -0.75 -0.75 -0.40 0 -0.75 -0.45 -0.75 -1 0 -1 0.05 -1 1.65 -0.25 0.95 0.50 1.30 0.55 0.85 0.15 -0.85 -0.75 -1 -2 -0.25 -2.50 0.45 -0.35 -0.70 -0.60 -2.05 -0.45 -0.30 0.05 -0.80 -0.45 -1.10 -1.05 -0.35 -0.65 -1.10 -1.75 -1.70 -2.50 -1.50 -1.90 -0.65 -2.45 0.90 -0.65 l1.30 1.50 -1.10 -1.90 c-0.60 -1 -0.95 -2.15 -0.85 -2.50 0.20 -0.45 0.30 -0.45 0.30 0.05 0.05 0.30 0.35 0.60 0.75 0.60 0.35 0 1.55 0.95 2.55 2.10 1.70 1.80 2.75 3.85 6.65 12.45 0.60 1.30 1.45 2.45 1.85 2.65 0.45 0.15 0.65 0.50 0.50 0.80 -0.45 0.75 0.10 0.60 1.50 -0.30 1.25 -0.80 1.25 -0.80 1.25 0.75 0 1.45 -0.10 1.55 -1.75 1.55 -1.20 0 -1.75 -0.25 -1.75 -0.75z"/>
  <path d="M13.25 8.95 c-0.20 -0.30 -0.25 -0.65 -0.10 -0.80 0.35 -0.35 1.35 0.30 1.35 0.90 0 0.60 -0.85 0.60 -1.25 -0.10z"/>
  <path d="M10.15 6.75 c-0.45 -1.25 0.20 -1.45 0.85 -0.30 0.35 0.75 0.35 1.05 0 1.05 -0.30 0 -0.65 -0.35 -0.85 -0.75z"/>
  <path d="M28.85 4.40 c-0.30 -1.95 0.05 -2.50 0.70 -1.25 0.30 0.45 0.95 0.85 1.50 0.85 1.55 0 1 1.70 -0.60 1.90 -1.15 0.15 -1.35 -0.05 -1.60 -1.50z"/>
 </g>
 <g fill="#7c5c47">
  <path d="M4.75 36.75 c-1.10 -0.65 -2.60 -1.35 -3.40 -1.50 -0.75 -0.20 -1.35 -0.65 -1.35 -1.05 0 -1.20 1.75 -0.75 4.15 1.05 2.05 1.55 2.45 1.70 3.35 1.15 0.55 -0.35 0.90 -0.90 0.80 -1.20 -0.10 -0.30 0.30 -0.85 1 -1.20 0.65 -0.40 1.20 -1 1.20 -1.40 0 -0.65 0.15 -0.60 0.95 0.10 0.50 0.45 1.25 0.70 1.75 0.50 0.45 -0.15 0.80 -0.05 0.80 0.25 0 0.30 -0.35 0.55 -0.80 0.55 -0.50 0 -0.65 0.30 -0.45 0.95 0.15 0.50 0.15 1.30 -0.05 1.75 -0.45 1.10 -1.70 1 -1.70 -0.15 0 -0.55 -0.20 -1.10 -0.45 -1.30 -0.45 -0.25 -0.85 0.10 -2.45 2 -0.80 0.95 -0.95 0.95 -3.35 -0.50z"/>
  <path d="M15.05 31.50 c0 -2 1.10 -3.10 2.55 -2.55 0.75 0.30 1.20 0.85 1.15 1.40 -0.15 2.10 -1.75 3 -1.75 1.05 l0 -1.15 -1 1.25 -1 1.25 0.05 -1.25z"/>
  <path d="M5.40 28.45 c-1.15 -0.65 -1.20 -2.95 -0.10 -2.95 1 0 2.70 0.90 2.70 1.45 0 0.25 -0.50 0.35 -1.10 0.15 -1.15 -0.25 -1.15 -0.25 -0.20 0.80 1.05 1.20 0.30 1.50 -1.30 0.55z"/>
  <path d="M34.80 27.40 c-0.50 -1.90 -0.35 -3.50 0.30 -3.30 0.35 0.15 1.15 1.15 1.75 2.30 l1.20 2.10 -1.50 0 c-1.05 0 -1.50 -0.30 -1.75 -1.10z"/>
  <path d="M23.40 20.90 c-1.55 -0.40 -1.90 -0.75 -1.90 -1.75 0 -0.90 0.25 -1.15 0.90 -1.05 0.45 0.10 0.80 0.50 0.75 0.80 -0.25 1.15 1.05 0.60 2.65 -1.20 0.95 -1 2 -2.95 2.40 -4.45 1 -3.30 1.15 -8.65 0.35 -10.15 -0.75 -1.35 -0.30 -3.10 0.80 -3.10 0.55 0 0.70 0.30 0.45 1.30 -0.20 0.70 -0.20 1.70 -0.05 2.20 0.25 0.80 0.55 0.85 1.90 0.45 2.10 -0.60 2.20 -0.55 1.25 0.15 -1.60 1.25 -2.90 4.55 -2.90 7.30 0 2.70 -0.80 4.75 -2.70 6.95 -0.90 1.10 -0.90 1.10 0.40 1.45 0.70 0.15 1.30 0.60 1.30 1 0 0.80 -2.70 0.85 -5.60 0.10z"/>
  <path d="M34.40 2.90 c0.35 -0.35 0.60 -1 0.60 -1.50 0 -0.50 0.35 -0.90 0.75 -0.90 0.45 0 0.60 0.30 0.40 0.90 -0.45 1.25 -1.20 2.10 -1.80 2.10 -0.35 0 -0.35 -0.20 0.05 -0.60z"/>
 </g>
 <g fill="#995c30">
  <path d="M10.90 36.40 c-0.10 -0.75 -0.50 -1.15 -1.15 -1.20 -1.80 -0.10 -2 -0.20 -1.10 -0.75 1.35 -0.80 1.05 -1.55 -1.65 -4.20 -1.35 -1.35 -2.50 -2.85 -2.50 -3.35 0 -0.50 0.10 -0.90 0.20 -0.90 0.55 0 6.65 6.75 7.50 8.30 0.70 1.40 0.80 1.85 0.30 2.45 -0.90 1.05 -1.40 0.95 -1.60 -0.35z"/>
  <path d="M1.15 35.10 c-0.75 -0.10 -1.15 -0.50 -1.15 -1.15 0 -1.10 0.45 -1.20 1.70 -0.30 1.20 0.90 0.85 1.65 -0.55 1.45z"/>
  <path d="M15 31.25 c0 -1.35 0.90 -2.25 2.25 -2.25 1.45 0 1.65 0.30 1.35 1.75 -0.25 1.35 -1.60 1.75 -1.60 0.50 0 -1 -0.50 -0.95 -1.30 0.15 -0.65 0.80 -0.65 0.80 -0.70 -0.15z"/>
  <path d="M33.50 27.50 c0 -0.65 0.35 -1 1 -1 0.55 0 1 -0.20 1 -0.50 0 -0.25 0.25 -0.50 0.50 -0.50 0.30 0 0.50 0.35 0.50 0.75 0 0.40 0.20 0.75 0.45 0.75 0.25 0 0.55 0.35 0.75 0.75 0.20 0.60 -0.20 0.75 -1.95 0.75 -1.90 0 -2.25 -0.15 -2.25 -1z"/>
  <path d="M29 5.20 c0 -1.45 0.15 -1.70 0.65 -1.25 0.40 0.30 0.85 0.40 1 0.20 0.20 -0.15 0.35 0.40 0.35 1.25 0 1.25 -0.20 1.60 -1 1.60 -0.80 0 -1 -0.35 -1 -1.80z"/>
 </g>
 <g fill="#646564">
  <path d="M5.15 27.75 c-1.65 -1.85 0.10 -3.05 2.15 -1.50 1.10 0.85 0.60 1 -0.85 0.25 -1.10 -0.60 -1.20 -0.35 -0.45 1.05 0.60 1.10 0.05 1.25 -0.85 0.20z"/>
  <path d="M33 27.95 c0 -0.30 -1.10 -0.50 -2.60 -0.45 -4.80 0.10 -10.50 -0.80 -11.25 -1.80 -0.35 -0.50 -0.65 -0.65 -0.65 -0.35 0 0.30 -0.30 0.65 -0.70 0.80 -0.85 0.35 -4.95 -0.85 -4.50 -1.30 0.35 -0.35 -0.05 -0.50 -2.55 -1.15 l-1.50 -0.35 1.25 -0.35 c1.15 -0.30 1 -0.40 -1.25 -1.15 -1.35 -0.50 -3.60 -1.55 -4.90 -2.40 -1.90 -1.20 -2.35 -1.70 -2.10 -2.45 0.20 -0.65 0.05 -1.10 -0.45 -1.30 -0.85 -0.35 -1.10 -1.20 -0.35 -1.20 0.25 0 1.15 0.60 2 1.30 0.85 0.70 1.55 1.05 1.55 0.75 0 -0.30 -0.90 -1.15 -2 -1.85 -1.15 -0.75 -2 -1.75 -2 -2.25 0 -0.55 -0.25 -0.95 -0.60 -0.95 -0.30 0 -0.45 -0.15 -0.25 -0.30 0.15 -0.20 1.20 0.40 2.35 1.30 1.30 1.05 1.90 1.30 1.65 0.70 -0.25 -0.65 0.15 -0.55 2.15 0.55 l2.45 1.35 -1.65 -1.45 c-1.30 -1.10 -1.50 -1.55 -1 -2.05 0.45 -0.45 0.45 -0.60 -0.25 -0.60 -0.45 0 -0.85 -0.30 -0.85 -0.65 0 -0.80 -2.95 -4.30 -3 -3.50 0 0.30 0.25 0.75 0.50 0.90 0.30 0.15 0.95 1.20 1.45 2.30 0.75 1.55 0.80 1.95 0.25 1.95 -0.40 0 -0.70 -0.35 -0.70 -0.75 0 -0.45 -0.50 -1.45 -1.10 -2.30 -0.95 -1.25 -1 -1.65 -0.50 -2.50 0.65 -1.05 0.30 -2.20 -1.20 -3.65 -0.40 -0.45 -0.55 -0.80 -0.25 -0.80 0.30 0 0.55 -0.45 0.55 -1 0 -0.60 0.35 -1 0.90 -1 1.05 0 4.35 5.80 3.45 6.15 -1.25 0.45 0.95 1.85 3.40 2.15 1.40 0.15 3.95 1.10 5.75 2 1.80 0.95 2.75 1.35 2.10 0.85 -0.65 -0.45 -1.50 -1.60 -1.90 -2.55 -0.40 -0.95 -0.85 -1.60 -1.05 -1.40 -0.20 0.15 -0.05 0.60 0.25 0.90 0.75 0.75 0.80 1.40 0.10 1.40 -0.25 0 -0.85 -0.85 -1.25 -1.85 -0.45 -1.05 -1.25 -2.40 -1.80 -2.95 -0.60 -0.60 -0.95 -1.50 -0.85 -2 0.10 -0.65 0.60 -0.25 1.75 1.60 0.90 1.35 1.65 2.20 1.65 1.95 0 -0.30 -0.55 -1.35 -1.25 -2.35 -1.30 -1.95 -1.55 -2.90 -0.80 -2.90 0.65 0 2.05 1.45 2.05 2.05 0 0.30 0.20 0.35 0.50 0.20 0.40 -0.25 3 3.20 3 4.05 0 0.20 0.80 1.90 1.80 3.85 0.95 1.90 1.65 3.80 1.50 4.20 -0.15 0.40 -0.05 0.55 0.20 0.40 0.25 -0.15 0.60 0.30 0.80 1 0.15 0.70 0.60 1.25 1 1.25 0.40 0 0.70 0.35 0.70 0.75 0 0.40 0.35 0.75 0.75 0.75 0.40 0 0.75 0.35 0.75 0.75 0 0.50 -0.55 0.75 -1.75 0.75 -1.50 0 -1.75 -0.15 -1.75 -1.20 0 -0.70 -0.35 -1.30 -0.85 -1.40 -0.50 -0.15 -1.25 -0.90 -1.65 -1.70 -0.40 -0.80 -1.15 -1.75 -1.60 -2.10 -0.50 -0.35 -0.90 -1 -0.90 -1.40 0 -0.40 -0.50 -0.70 -1.25 -0.70 -0.80 0 -1.25 -0.30 -1.25 -0.75 0 -0.40 -0.15 -0.75 -0.35 -0.75 -0.25 0 -1.20 -0.20 -2.20 -0.45 -1.70 -0.40 -1.75 -0.35 -1.55 0.75 0.10 0.60 0.65 1.60 1.15 2.15 0.50 0.55 0.95 1.35 0.95 1.80 0 0.55 0.55 0.75 2 0.75 1.95 0 2 0.05 2 1.75 0 1.40 -0.20 1.75 -1 1.75 -0.75 0 -1 0.35 -1 1.25 0 1.55 1.30 2.25 4.20 2.25 1.55 0 2.60 0.30 3.20 0.90 0.65 0.65 1.45 0.85 3 0.70 1.80 -0.20 2.10 -0.35 2.10 -1.35 0 -0.90 0.35 -1.25 1.50 -1.50 0.85 -0.20 1.50 -0.65 1.50 -1.05 0 -0.55 0.30 -0.55 1.35 -0.15 2.20 0.85 3 1.80 2.75 3.40 -0.15 1.10 0.05 1.45 0.85 1.70 1.45 0.35 1.50 2.85 0.05 2.85 -0.55 0 -1 -0.25 -1 -0.55z m-2.35 -2.05 c0.60 -0.45 0.70 -0.85 0.35 -1.40 -0.30 -0.50 -0.50 -0.55 -0.50 -0.10 0 0.30 -0.35 0.60 -0.75 0.60 -0.40 0 -0.75 -0.35 -0.75 -0.75 0 -1 -0.95 -0.95 -1.30 0 -0.35 0.85 0.60 2.25 1.50 2.25 0.35 0 1 -0.30 1.45 -0.60z m-20.15 -4.90 c-0.40 -0.30 -2.10 -1.20 -3.75 -2.05 -2.25 -1.10 -2.70 -1.25 -1.75 -0.45 1.30 1.15 4.90 3 5.75 3 0.30 0 0.15 -0.25 -0.25 -0.50z"/>
  <path d="M7 24 c-0.60 -0.40 -0.60 -0.50 0.10 -0.75 1 -0.40 2.05 0.10 1.65 0.80 -0.40 0.55 -0.80 0.55 -1.75 -0.05z"/>
  <path d="M0 4.75 c0 -0.70 0.25 -1.25 0.50 -1.25 0.30 0 0.50 0.20 0.50 0.45 0 0.25 0.15 0.80 0.30 1.25 0.20 0.55 0.05 0.80 -0.50 0.80 -0.50 0 -0.80 -0.45 -0.80 -1.25z"/>
 </g>
 <g fill="#96694d">
  <path d="M7.10 36.95 c0.10 -0.35 0.50 -0.75 0.85 -0.85 0.40 -0.15 0.60 0.05 0.45 0.45 -0.10 0.35 -0.50 0.75 -0.85 0.85 -0.40 0.15 -0.60 -0.05 -0.45 -0.45z"/>
  <path d="M3.15 35.90 c-0.90 -0.55 -1.65 -1.20 -1.65 -1.45 0 -0.85 1.25 -0.40 3 1.05 1.95 1.70 1.10 1.95 -1.35 0.40z"/>
  <path d="M11.20 35.45 c-0.15 -0.30 -0.85 -0.40 -1.50 -0.25 -1.40 0.35 -1.60 -0.40 -0.35 -1.15 0.85 -0.45 0.85 -0.55 -0.05 -1.50 -1.45 -1.60 -0.70 -2.15 1.05 -0.80 1.75 1.40 3.05 4.25 1.90 4.25 -0.40 0 -0.85 -0.25 -1.05 -0.55z"/>
  <path d="M4.50 26.75 c0 -1.30 0.75 -1.60 2 -0.70 0.65 0.45 0.60 0.50 -0.15 0.25 -0.75 -0.25 -0.85 -0.10 -0.60 0.70 0.25 0.70 0.10 1 -0.45 1 -0.50 0 -0.80 -0.45 -0.80 -1.25z"/>
  <path d="M34.50 26.25 c0 -1.10 0.25 -1.75 0.65 -1.75 0.35 0 1 0.80 1.45 1.75 l0.80 1.75 -1.45 0 c-1.30 0 -1.45 -0.15 -1.45 -1.75z"/>
  <path d="M24.15 21.15 c-0.75 -0.30 -0.85 -1.65 -0.15 -1.65 1 0 3.50 -3.30 4.05 -5.35 0.60 -2.25 1.95 -2.95 1.95 -1 0 1.30 -2.75 5.85 -3.55 5.85 -0.25 0 -0.35 0.25 -0.20 0.50 0.15 0.30 0.75 0.50 1.25 0.50 0.65 0 0.85 0.25 0.70 0.75 -0.30 0.75 -2.70 1 -4.05 0.40z"/>
  <path d="M29.15 5.90 c0.10 -0.35 -0.10 -1.40 -0.45 -2.30 -0.70 -1.75 -0.50 -3.10 0.55 -3.10 0.40 0 0.60 0.65 0.55 1.90 -0.05 1.55 0.10 1.80 0.85 1.70 0.70 -0.15 0.90 0.10 0.75 1 -0.10 0.75 -0.55 1.20 -1.35 1.30 -0.80 0.15 -1.10 0 -0.90 -0.50z"/>
  <path d="M34.40 2.90 c0.35 -0.35 0.60 -1.10 0.60 -1.75 0 -0.70 0.30 -1.15 0.75 -1.15 0.95 0 0.95 0.20 0 2 -0.45 0.85 -1.05 1.50 -1.35 1.50 -0.45 0 -0.45 -0.15 0 -0.60z"/>
 </g>
 <g fill="#7a7978">
  <path d="M33.30 27.75 c-0.15 -0.50 -0.95 -0.75 -2.10 -0.75 -1.80 0 -1.80 0 -0.70 -0.90 0.70 -0.55 0.95 -1.15 0.70 -1.75 -0.30 -0.80 -0.35 -0.80 -0.95 -0.05 -0.45 0.65 -0.70 0.70 -1 0.20 -0.20 -0.35 -0.10 -0.80 0.30 -1.10 0.55 -0.40 0.50 -0.40 -0.20 -0.20 -0.50 0.15 -1.15 0.30 -1.45 0.30 -0.35 0 -0.40 0.75 -0.20 2 l0.30 1.95 -1.75 -0.75 c-1.30 -0.55 -2.05 -0.60 -2.75 -0.20 -1.10 0.60 -4.50 -0.55 -4.50 -1.45 0 -0.30 -0.20 -0.55 -0.50 -0.55 -0.25 0 -0.50 0.35 -0.50 0.80 0 0.65 -0.35 0.75 -1.55 0.50 -1.75 -0.35 -5.60 -3.15 -5.20 -3.80 0.25 -0.45 -5.50 -4 -7.50 -4.70 -1.70 -0.55 1.15 1.55 4.15 3 1.45 0.75 2.55 1.40 2.50 1.45 -0.95 0.95 -8.25 -3.50 -8 -4.90 0.10 -0.50 -0.35 -1.10 -1.15 -1.45 -0.70 -0.30 -1.25 -0.75 -1.25 -1 0 -0.75 0.80 -0.45 2.85 1.05 1.15 0.80 2.20 1.35 2.35 1.20 0.35 -0.40 -3.70 -3.15 -4.55 -3.15 -0.35 0 -0.65 -0.55 -0.65 -1.25 0 -0.70 0.15 -1.25 0.30 -1.25 0.15 0 1.40 0.90 2.70 2 2.60 2.20 3.70 2.65 2.20 0.90 -0.80 -0.90 -0.45 -0.80 2.05 0.55 2.70 1.50 2.85 1.50 1.65 0.35 -0.80 -0.70 -1.80 -1.45 -2.25 -1.75 -0.50 -0.25 -0.70 -0.65 -0.50 -0.85 0.25 -0.25 0.60 -0.10 0.85 0.30 0.25 0.40 0.60 0.60 0.75 0.40 0.25 -0.25 -0.20 -1.45 -1.15 -2.90 -0.10 -0.10 -0.35 0.10 -0.60 0.45 -0.30 0.55 -0.60 0.30 -1.20 -0.90 -0.45 -0.85 -0.70 -1.55 -0.50 -1.55 0.15 0 -0.30 -0.70 -1 -1.55 -0.70 -0.85 -1.30 -1.70 -1.30 -1.90 0 -0.20 -0.45 -0.85 -1 -1.45 -0.60 -0.60 -0.80 -1.10 -0.50 -1.10 0.25 0 0.50 -0.45 0.50 -1 0 -0.55 0.30 -1 0.70 -1 0.90 0 2.30 2.20 2.30 3.65 0 0.65 0.50 1.95 1.15 2.90 1 1.50 1.45 1.75 3.90 2 2.65 0.30 6.95 2.15 6.95 3.05 0 0.20 -0.80 0.40 -1.75 0.40 -1.20 0 -1.75 -0.25 -1.75 -0.75 0 -0.40 -0.20 -0.75 -0.50 -0.75 -0.55 0 -0.65 0.75 -0.20 2.90 0.25 1.20 0.60 1.55 1.95 1.80 2.30 0.45 2.90 1.40 2.95 4.60 l0.05 2.70 1.65 0 c1.25 0 1.60 -0.20 1.60 -1 0 -0.55 0.35 -1 0.75 -1 0.50 0 0.15 -0.60 -0.95 -1.70 -0.95 -0.90 -1.90 -2.30 -2.05 -3.10 -0.20 -0.80 -0.55 -1.95 -0.80 -2.60 -0.70 -1.80 -0.55 -1.90 0.95 -0.45 0.80 0.75 1.60 1.20 1.80 1 0.20 -0.20 0.20 0.05 0 0.55 -0.25 0.65 -0.20 0.85 0.20 0.60 0.35 -0.20 0.50 -0.10 0.35 0.30 -0.15 0.35 0.30 1.25 1 2 0.70 0.75 1.25 1.60 1.25 1.90 0 0.25 0.55 0.50 1.25 0.50 0.90 0 1.25 0.25 1.25 1 0 0.55 -0.35 1 -0.75 1 -0.45 0 -0.75 0.45 -0.75 1.25 0 1.35 0.75 1.70 1.20 0.50 0.15 -0.40 0.85 -0.75 1.55 -0.75 1 0 1.25 -0.25 1.25 -1.25 0 -1.55 0.85 -1.60 3.40 -0.30 2.35 1.25 5.75 4.40 5.35 5 -0.15 0.25 0 0.65 0.30 0.80 0.30 0.20 0 0.65 -0.80 1.05 -1.70 0.90 -2.05 0.90 -2.45 -0.05z"/>
  <path d="M4.70 27.25 c-0.35 -0.85 0.15 -1.75 0.95 -1.75 0.40 0 0.40 0.15 -0.10 0.45 -0.45 0.30 -0.50 0.55 -0.10 0.75 0.30 0.20 0.55 0.55 0.55 0.85 0 0.70 -1 0.55 -1.30 -0.30z"/>
  <path d="M6.75 23.50 c0.15 -0.25 0.65 -0.50 1.05 -0.50 0.40 0 0.70 0.25 0.70 0.50 0 0.30 -0.45 0.50 -1.05 0.50 -0.55 0 -0.85 -0.20 -0.70 -0.50z"/>
  <path d="M17.50 11.60 c-1.20 -0.85 -2.60 -2.80 -4.15 -5.75 -1.30 -2.50 -2.25 -4.60 -2.15 -4.75 0.15 -0.10 0.95 0.55 1.85 1.45 0.85 0.95 1.45 1.40 1.25 1.10 -0.20 -0.35 -0.25 -0.65 -0.10 -0.65 0.30 0 2.35 3.40 2.50 4.15 0.05 0.30 0.70 1.70 1.45 3.05 0.75 1.35 1.30 2.50 1.25 2.60 -0.10 0.05 -0.95 -0.45 -1.90 -1.20z"/>
  <path d="M3.15 9.90 c-0.90 -1.20 -1.20 -1.90 -0.80 -1.90 0.50 0 1.80 2 1.50 2.30 -0.10 0.15 -0.45 -0.05 -0.70 -0.40z"/>
  <path d="M13.10 7.95 c-0.45 -0.85 -1.35 -2.35 -1.95 -3.30 -0.65 -0.90 -1.15 -1.95 -1.15 -2.30 0 -0.75 1.65 1.65 3.30 4.80 1.35 2.60 1.15 3.30 -0.20 0.80z"/>
  <path d="M0 4.75 c0 -0.75 0.20 -1.20 0.50 -1 0.30 0.15 0.50 0.60 0.50 1 0 0.40 -0.20 0.85 -0.50 1 -0.30 0.20 -0.50 -0.25 -0.50 -1z"/>
  <path d="M29.20 4.35 c-0.05 -0.85 0.05 -1.20 0.15 -0.75 0.15 0.65 0.55 0.80 1.75 0.55 1.45 -0.30 1.45 -0.25 0.85 0.80 -0.40 0.55 -1.15 1.05 -1.70 1.05 -0.80 0 -1 -0.35 -1.05 -1.65z"/>
 </g>
 <g fill="#c77435">
  <path d="M11.30 35.75 c-0.15 -0.40 -0.90 -0.75 -1.65 -0.75 -1.35 -0.05 -1.35 -0.05 -0.45 -0.75 0.90 -0.70 0.85 -0.80 -0.95 -2.85 -1.10 -1.20 -2.35 -2.45 -2.85 -2.80 -0.50 -0.35 -0.90 -1.10 -0.90 -1.65 0 -0.75 1 0 3.75 2.90 2.80 2.90 3.75 4.25 3.75 5.30 0 1.50 -0.25 1.75 -0.70 0.60z"/>
  <path d="M15.50 30.65 c0 -1.35 0.70 -1.80 2.05 -1.40 0.85 0.30 0.95 0.45 0.40 0.80 -0.50 0.30 -0.55 0.45 -0.05 0.45 0.30 0 0.60 0.25 0.60 0.50 0 0.70 -1.35 0.60 -1.65 -0.10 -0.20 -0.50 -0.40 -0.45 -0.80 0.10 -0.45 0.60 -0.55 0.55 -0.55 -0.35z"/>
  <path d="M33.45 27.40 c-0.40 -0.80 -0.25 -0.90 1.20 -0.90 1.55 0 2.85 0.70 2.85 1.55 0 0.80 -3.60 0.20 -4.05 -0.65z"/>
 </g>
 <g fill="#a67c59">
  <path d="M11.20 36 c-0.05 -0.90 0.20 -1.50 0.55 -1.50 0.90 0 1.35 1.50 0.70 2.30 -0.85 1.05 -1.20 0.85 -1.25 -0.80z"/>
  <path d="M2.65 35.55 c-1.45 -0.70 -2.65 -1.55 -2.65 -1.90 0 -1.10 1.45 -0.50 4.25 1.75 2 1.60 1.40 1.65 -1.60 0.15z"/>
  <path d="M17 31.50 c0 -1.10 -0.75 -1.35 -1.15 -0.35 -0.15 0.30 -0.30 0.10 -0.30 -0.50 -0.05 -0.60 0.15 -1.20 0.45 -1.40 0.70 -0.40 2.65 1.70 2.30 2.55 -0.40 1.05 -1.30 0.85 -1.30 -0.30z"/>
  <path d="M36.40 28.10 c-0.90 -0.15 -1.30 -1.60 -0.45 -1.60 0.50 0 1.80 1.45 1.50 1.65 -0.10 0.10 -0.60 0.10 -1.05 -0.05z"/>
  <path d="M23.50 20 c0 -0.60 1.70 -0.60 3.50 0 1 0.35 0.80 0.40 -1.10 0.45 -1.35 0.05 -2.40 -0.15 -2.40 -0.45z"/>
  <path d="M25.55 18.65 c0.50 -0.10 0.95 -0.65 1.10 -1.20 0.30 -1.10 1.35 -1.30 1.35 -0.20 0 0.80 -1.55 1.80 -2.60 1.70 -0.35 -0.05 -0.30 -0.15 0.15 -0.30z"/>
  <path d="M28 15.50 c0 -1.50 0.65 -3 1.30 -3 1 0 0.85 1.20 -0.30 2.55 -0.65 0.85 -0.95 0.95 -1 0.45z"/>
  <path d="M29.15 6.15 c0.15 -0.80 -0.05 -2.10 -0.40 -2.95 -0.40 -1 -0.45 -1.80 -0.15 -2.35 0.85 -1.60 1.40 -0.85 1.05 1.50 -0.30 2.20 -0.25 2.30 0.75 2.05 1.25 -0.35 1.45 0.50 0.60 2.15 -0.85 1.55 -2.15 1.25 -1.85 -0.40z"/>
  <path d="M35.05 2.15 c0 -0.20 0.20 -0.85 0.45 -1.40 0.40 -0.95 0.45 -0.95 0.45 0.10 0.05 0.60 -0.15 1.25 -0.45 1.40 -0.25 0.15 -0.50 0.15 -0.45 -0.10z"/>
 </g>
 <g fill="#b98961">
  <path d="M2.40 35.35 c-1.35 -0.55 -2.40 -1.35 -2.40 -1.70 0 -0.80 0 -0.80 1.85 0.10 1.20 0.60 3.85 2.90 3.10 2.70 -0.10 -0.05 -1.25 -0.50 -2.55 -1.10z"/>
  <path d="M9.75 34 c0.15 -0.25 0.05 -0.95 -0.25 -1.55 -0.85 -1.55 -0.35 -1.65 1.15 -0.25 1.70 1.55 1.70 2.30 0.05 2.30 -0.70 0 -1.10 -0.20 -0.95 -0.50z"/>
  <path d="M15 31.55 c0 -0.90 0.95 -2.55 1.50 -2.55 0.80 0 0.55 0.95 -0.50 2.10 -0.55 0.60 -1 0.80 -1 0.45z"/>
  <path d="M17.10 31.45 c0.10 -0.30 0.40 -0.50 0.65 -0.50 0.25 0 0.55 0.20 0.65 0.50 0.10 0.30 -0.20 0.55 -0.65 0.55 -0.45 0 -0.75 -0.25 -0.65 -0.55z"/>
  <path d="M33.45 27.45 c-0.75 -1.45 -0.50 -1.95 0.95 -1.95 0.85 0.05 1.65 0.50 2.20 1.20 0.85 1.20 0.85 1.20 -0.90 1.40 -1.30 0.15 -1.90 0 -2.25 -0.65z"/>
  <path d="M4.85 27.65 c-0.20 -0.15 -0.35 -0.65 -0.35 -1.05 0 -0.60 0.15 -0.60 0.75 -0.10 0.40 0.35 0.75 0.80 0.75 1.05 0 0.55 -0.70 0.60 -1.15 0.10z"/>
  <path d="M24 20.50 c0 -1.05 0.50 -1.20 2.40 -0.70 1.80 0.50 1.35 1.70 -0.65 1.70 -1.40 0 -1.75 -0.20 -1.75 -1z"/>
  <path d="M28.40 15.20 c-0.35 -0.70 0.60 -4.70 1.15 -4.70 0.70 0 0.55 3.20 -0.20 4.25 -0.40 0.50 -0.80 0.70 -0.95 0.45z"/>
  <path d="M29.50 6.25 c0 -0.70 0.40 -1.45 0.95 -1.75 1.75 -0.90 2.05 -0.55 1 1.25 -1.25 2.05 -1.95 2.25 -1.95 0.50z"/>
  <path d="M28.30 2.10 c-0.25 -0.45 1.10 -2.40 1.45 -2.05 0.10 0.15 0.10 0.75 -0.10 1.35 -0.25 1.10 -0.90 1.45 -1.35 0.70z"/>
 </g>
 <g fill="#8c8c8c">
  <path d="M33.30 27.20 c-0.20 -0.50 -0.65 -0.65 -1.30 -0.45 -0.95 0.30 -1 0.20 -0.70 -1.10 0.20 -0.75 0.55 -1.45 0.80 -1.55 0.20 -0.10 0.40 -0.65 0.40 -1.20 0 -1.30 0.85 -0.65 2.80 2.15 1.15 1.65 1.25 2.10 0.70 2.45 -0.45 0.30 -0.85 0.20 -1.10 -0.15 -0.30 -0.45 -0.40 -0.45 -0.40 0.05 0 0.85 -0.85 0.75 -1.20 -0.20z"/>
  <path d="M22.05 26.15 c0.15 -1 -0.10 -1.20 -0.80 -0.65 -0.65 0.55 -1 0.45 -1.90 -0.45 -1.35 -1.20 -2.10 -1.35 -1.70 -0.35 0.55 1.45 -0.35 1.25 -2 -0.45 -1.85 -1.90 -2.25 -2.15 -1.85 -1 0.20 0.40 0.10 0.75 -0.15 0.75 -0.65 0 -2.25 -1.75 -1.90 -2.10 0.25 -0.20 -7.85 -4.90 -8.50 -4.90 -0.65 0 0.35 0.95 2.60 2.45 1.25 0.85 2.15 1.55 1.90 1.55 -1 0 -5.30 -3.20 -5.05 -3.75 0.25 -0.70 -1.20 -2.25 -2.10 -2.25 -0.35 0 -0.60 -0.20 -0.60 -0.50 0 -0.85 0.75 -0.55 2.90 1 2.25 1.60 2.60 1.75 2.60 1.05 0 -0.25 -1.25 -1.20 -2.75 -2.05 -1.50 -0.85 -2.75 -1.90 -2.75 -2.30 0 -1.10 0.75 -0.85 3.45 1.30 2.30 1.80 3.50 2.20 1.95 0.55 -0.55 -0.50 -0.45 -0.55 0.35 -0.25 1.45 0.55 4.85 2.90 6 4.20 0.55 0.60 1.60 1.40 2.30 1.80 1.25 0.60 1.30 0.60 1.05 -0.55 -0.25 -1.55 -1.25 -2.35 -2.85 -2.35 -1.35 0 -2.35 -0.95 -2.15 -1.95 0.10 -0.40 -0.20 -0.70 -0.60 -0.65 -1.05 0.05 -1.10 -2.20 -0.05 -2.45 0.45 -0.15 0.20 -0.25 -0.55 -0.30 -1.20 -0.05 -1.40 -0.25 -1.40 -1.60 l0 -1.60 2.25 0.30 c3.50 0.50 10.10 4.65 9.05 5.70 -0.20 0.20 -0.80 0.10 -1.30 -0.25 -0.55 -0.35 -1.35 -0.60 -1.75 -0.60 -0.40 0 -0.75 -0.30 -0.75 -0.70 0 -0.75 -1.05 -1.30 -2.55 -1.30 -1.15 0 -1.25 0.65 -0.20 1.50 0.40 0.35 0.75 0.95 0.75 1.30 0 0.40 0.55 0.70 1.30 0.70 1.80 0 2.65 1.30 2.70 4.05 0 1.95 0.15 2.40 1.05 2.60 0.60 0.15 1.40 0 1.80 -0.45 0.40 -0.40 1.05 -0.70 1.45 -0.70 0.40 0 0.70 -0.50 0.70 -1.10 0.05 -0.95 0.10 -1 0.50 -0.35 0.30 0.55 0.90 0.75 1.75 0.55 1 -0.15 1.25 0 1.25 0.85 0 0.60 -0.30 1.05 -0.75 1.05 -0.50 0 -0.75 0.45 -0.70 1.40 0 0.80 0.15 1.05 0.30 0.60 0.40 -1 1.45 -2 2.10 -2 0.30 0 0.55 -0.35 0.55 -0.75 0 -0.40 0.35 -0.75 0.75 -0.75 1 0 4.25 1.35 4.25 1.75 0 0.70 -1.35 1.50 -2.70 1.60 -0.80 0.05 -1.60 0.35 -1.80 0.65 -0.20 0.35 -0.50 0.55 -0.70 0.55 -0.85 -0.15 -0.90 0.05 -0.05 0.95 0.85 0.95 0.85 0.95 -0.80 0.50 -1.10 -0.30 -1.85 -0.30 -2.15 0 -0.60 0.60 -1.85 0.65 -1.75 0.15z m-12.30 -7.90 c-1.35 -1.25 -2.70 -2.25 -2.95 -2.25 -0.60 0 -0.25 0.35 2.60 2.60 3.20 2.50 3.35 2.35 0.35 -0.35z"/>
  <path d="M17.40 11.60 c-1.05 -0.75 -2.10 -1.90 -2.35 -2.60 -0.25 -0.70 -1.30 -2.65 -2.25 -4.35 -1.90 -3.35 -1.40 -4.40 0.65 -1.40 0.65 0.95 1.35 1.60 1.60 1.45 0.25 -0.15 0.30 0.05 0.15 0.45 -0.15 0.40 0 0.90 0.25 1.10 0.30 0.15 0.45 0.55 0.30 0.80 -0.20 0.25 -0.10 0.45 0.20 0.45 0.25 0 1.15 1.25 1.95 2.75 0.85 1.50 1.45 2.75 1.45 2.75 -0.05 -0.05 -0.95 -0.65 -1.95 -1.40z"/>
  <path d="M3.70 6.65 c-1 -1.35 -2.10 -2.65 -2.35 -3 -0.45 -0.65 0 -3.65 0.60 -3.65 0.60 0 2.15 3 1.90 3.65 -0.15 0.35 0.40 1.60 1.20 2.75 1.55 2.30 1.70 2.60 1 2.60 -0.25 0 -1.30 -1.05 -2.35 -2.35z"/>
  <path d="M12.50 6.60 c0 -0.30 -0.60 -1.25 -1.30 -2.10 -0.75 -0.85 -1.20 -1.65 -1.05 -1.80 0.15 -0.15 0.90 0.65 1.65 1.75 0.75 1.15 1.20 2.20 1 2.40 -0.15 0.15 -0.30 0.05 -0.30 -0.25z"/>
 </g>
 <g fill="#e48f42">
  <path d="M11.10 35.50 c-0.35 -0.65 -0.90 -0.85 -1.45 -0.65 -0.75 0.25 -0.80 0.15 -0.25 -0.40 0.95 -1 0.80 -1.30 -2.25 -4.50 -1.55 -1.60 -2.50 -2.95 -2.10 -2.90 1.10 0.10 7.45 7.25 7.45 8.40 0 1.30 -0.60 1.35 -1.40 0.05z"/>
  <path d="M15.35 30.50 c0.30 -1.05 1.05 -1.75 1.45 -1.35 0.30 0.30 -0.90 2.35 -1.35 2.35 -0.20 0 -0.25 -0.45 -0.10 -1z"/>
  <path d="M33.80 27.25 c-0.45 -1.20 -0.40 -1.25 0.95 -1.25 0.70 0 1.45 0.40 1.75 1 0.45 0.85 0.40 1 -0.50 1 -0.55 0 -1 -0.30 -1 -0.60 0 -0.50 -0.10 -0.50 -0.45 0 -0.35 0.55 -0.50 0.50 -0.75 -0.15z"/>
 </g>
 <g fill="#bb9d71">
  <path d="M11.20 36.40 c-0.05 -0.65 -0.25 -1.65 -0.45 -2.25 -0.55 -1.65 0.55 -1.45 1.45 0.25 0.50 0.95 0.55 1.65 0.25 2.25 -0.70 1.15 -1.20 1.05 -1.25 -0.25z"/>
  <path d="M0.90 34.45 c-0.90 -0.50 -1.25 -1.45 -0.50 -1.45 0.20 0 0.90 0.45 1.60 1 1.35 1.05 0.50 1.40 -1.10 0.45z"/>
  <path d="M17.10 31.70 c0.15 -0.85 1.05 -1.05 1.30 -0.30 0.05 0.25 -0.20 0.60 -0.65 0.80 -0.55 0.20 -0.75 0.05 -0.65 -0.50z"/>
  <path d="M15 31.75 c0 -0.75 0.90 -2 1.20 -1.70 0.15 0.15 -0.05 0.70 -0.45 1.25 -0.40 0.50 -0.70 0.75 -0.75 0.45z"/>
  <path d="M29 9.30 c0 -2.65 0.20 -3.50 1 -4.30 1.65 -1.65 2.05 -1.15 1 1.30 -0.55 1.25 -1 3.05 -1 3.95 0 0.95 -0.20 1.85 -0.50 2 -0.30 0.20 -0.50 -0.90 -0.50 -2.95z"/>
  <path d="M28.60 1 c0.65 -1 1.40 -1.35 1.40 -0.60 0 0.50 -1.10 1.60 -1.60 1.60 -0.25 0 -0.15 -0.45 0.20 -1z"/>
 </g>
 <g fill="#9fa0a0">
  <path d="M33 26.45 c-0.70 -0.75 -1.50 -1.75 -1.80 -2.25 -1 -1.70 -5.20 -1.10 -5.20 0.70 0 0.25 -0.70 0.60 -1.50 0.70 -2 0.30 -3.50 -1.20 -2.60 -2.65 0.90 -1.40 0.05 -1.15 -1.15 0.40 -1.05 1.25 -1.10 1.30 -2.65 0.50 -0.90 -0.40 -1.60 -0.55 -1.60 -0.30 0 0.70 -1.10 0.50 -1.70 -0.35 -0.30 -0.40 -0.95 -0.80 -1.40 -0.85 -0.45 -0.10 -1.10 -0.40 -1.45 -0.70 -0.40 -0.30 -2.50 -1.50 -4.70 -2.65 -2.20 -1.20 -4.45 -2.55 -5 -3 -0.55 -0.50 -1.35 -1 -1.75 -1.15 -0.65 -0.25 -0.60 -0.30 0.05 -0.30 0.45 -0.05 1.65 0.50 2.70 1.20 1.85 1.30 3.35 1.30 1.60 0.05 -0.45 -0.35 -0.85 -0.95 -0.85 -1.35 0 -0.40 0.60 -0.10 1.40 0.80 0.75 0.85 2.60 2.35 4.10 3.40 l2.75 1.95 -3.50 -3.30 c-1.90 -1.80 -3.25 -3.25 -3 -3.25 0.95 -0.05 4 2.05 5.75 3.95 0.95 1.05 2.25 2.05 2.90 2.25 0.90 0.25 1.10 0.15 1.10 -0.85 -0.05 -1.30 -0.95 -2.65 -1.85 -2.70 -0.35 -0.05 -1.20 -0.10 -1.90 -0.10 -0.70 -0.05 -1.25 -0.35 -1.25 -0.65 0 -0.25 0.25 -0.35 0.50 -0.20 1.10 0.70 0.40 -0.75 -0.85 -1.75 -0.95 -0.70 -1.20 -1.15 -0.75 -1.30 0.95 -0.45 0.70 -1.20 -0.55 -1.65 -0.65 -0.25 -1.15 -0.90 -1.20 -1.50 -0.10 -1.20 0.20 -1.25 2.15 -0.55 1.65 0.65 2.65 1.90 2.70 3.35 0 1.20 0.70 1.55 2.35 1.25 0.75 -0.15 1.15 -0.55 1.15 -1.20 0 -0.95 0.10 -0.95 1.15 -0.30 1.65 1.10 3.30 4.35 3.40 6.65 0.10 1.50 0.15 1.65 0.30 0.65 0.25 -1.65 0.90 -1.80 1.65 -0.35 0.35 0.60 0.90 0.90 1.30 0.75 0.95 -0.35 5.40 0.50 7.50 1.50 1.90 0.90 5.20 5.05 4.85 6.05 -0.20 0.50 -0.45 0.55 -0.90 0.15 -0.35 -0.30 -0.75 -0.35 -0.85 -0.15 -0.05 0.20 -0.70 -0.20 -1.40 -0.90z m-8 -4.20 c0 -0.40 -0.20 -0.75 -0.50 -0.75 -0.25 0 -0.50 0.35 -0.50 0.75 0 0.40 0.25 0.75 0.50 0.75 0.30 0 0.50 -0.35 0.50 -0.75z"/>
  <path d="M1.15 13.40 c-1.15 -0.55 -1.60 -1.90 -0.70 -1.90 0.30 0 1.15 0.55 1.90 1.25 1.50 1.30 0.85 1.65 -1.20 0.65z"/>
  <path d="M16.65 10.90 c-0.60 -0.65 -1.90 -2.70 -2.90 -4.65 -1.05 -1.90 -2.10 -3.80 -2.35 -4.10 -0.35 -0.45 -0.35 -0.65 0 -0.65 0.90 0 7.05 8.80 7.10 10.15 0 0.70 -0.85 0.35 -1.85 -0.75z"/>
  <path d="M3.95 6.60 c-3.35 -3.70 -3.95 -4.55 -3.95 -5.60 0 -0.70 0.35 -1 1.20 -1 1.20 0 1.85 1.05 2.50 4.05 0.15 0.70 0.85 2.10 1.50 3.10 0.70 1 1.20 1.85 1.10 1.85 -0.10 0 -1.15 -1.10 -2.35 -2.40z"/>
  <path d="M10.75 4 c-0.50 -0.55 -0.80 -1.10 -0.65 -1.25 0.15 -0.15 0.65 0.30 1.10 1 1 1.50 0.80 1.60 -0.45 0.25z"/>
 </g>
 <g fill="#edab5b">
  <path d="M11.15 35.25 c-0.65 -0.95 -1.15 -1.95 -1.15 -2.25 0 -0.25 -1.25 -1.75 -2.80 -3.30 -1.55 -1.50 -2.70 -2.90 -2.55 -3.05 0.40 -0.35 7 6.75 7.50 8 0.75 1.95 0.10 2.30 -1 0.60z"/>
  <path d="M34.55 26.95 c-1 -0.85 -1.10 -1.10 -0.55 -1.45 0.80 -0.50 1.75 0.10 2.55 1.60 0.65 1.25 -0.45 1.15 -2 -0.15z"/>
 </g>
 <g fill="#d1ad79">
  <path d="M1.65 34.70 c-0.90 -0.45 -1.65 -1 -1.65 -1.20 0 -0.50 2.85 0.85 3.25 1.55 0.40 0.60 0.30 0.55 -1.60 -0.35z"/>
  <path d="M10.75 34 c-0.40 -0.80 -0.75 -1.60 -0.75 -1.80 0 -0.70 1.90 1.40 2.15 2.35 0.40 1.45 -0.55 1.15 -1.40 -0.55z"/>
  <path d="M4.75 27.45 c-0.20 -0.30 -0.25 -0.65 -0.10 -0.80 0.35 -0.35 1.35 0.30 1.35 0.90 0 0.60 -0.85 0.60 -1.25 -0.10z"/>
  <path d="M35.15 27 c-0.65 -0.30 -1.15 -0.90 -1.15 -1.50 0 -1.45 0.65 -1.25 1.65 0.50 0.50 0.85 0.85 1.50 0.75 1.45 -0.10 0 -0.65 -0.20 -1.25 -0.45z"/>
  <path d="M29.60 5.95 c0.10 -0.60 0.65 -1.30 1.30 -1.50 1.10 -0.40 1.10 -0.40 0.35 1.05 -0.90 1.75 -1.90 2 -1.65 0.45z"/>
 </g>
 <g fill="#c2b896">
  <path d="M29 8.55 c0 -2.05 0.85 -4.05 1.65 -4.05 0.60 0 0.60 0.45 -0.10 2.75 -0.90 3 -1.55 3.55 -1.55 1.30z"/>
 </g>
 <g fill="#b4b5b4">
  <path d="M35 26.95 c-0.70 -0.30 -2.05 -1.30 -3.05 -2.35 -1.40 -1.35 -2.25 -1.85 -3.60 -1.90 -1 0 -1.70 0.10 -1.60 0.30 0.25 0.45 -1.15 1.75 -2.40 2.15 -1.15 0.45 -2.85 -0.45 -2.85 -1.40 0 -0.40 0.25 -0.75 0.50 -0.75 0.30 0 0.50 -0.20 0.50 -0.50 0 -0.80 -1.10 -0.60 -1.80 0.40 -0.65 0.80 -0.65 0.80 -0.70 0 0 -0.50 -0.25 -0.90 -0.55 -0.90 -0.30 0 -0.40 0.45 -0.20 1 0.40 1.30 -0.95 1.40 -1.70 0.15 -0.50 -0.85 -0.60 -0.85 -1.20 -0.05 -0.65 0.80 -0.75 0.80 -1.50 -0.15 -0.45 -0.50 -1.15 -0.95 -1.55 -0.95 -0.40 0 -1.95 -0.70 -3.40 -1.60 -1.45 -0.85 -3.20 -1.90 -3.85 -2.30 -0.75 -0.45 -1 -0.85 -0.65 -1.20 0.65 -0.65 2.05 0.10 4.65 2.45 1.10 1 2.10 1.65 2.25 1.50 0.15 -0.15 -0.35 -0.80 -1.10 -1.45 -3.50 -2.95 -5.20 -4.55 -5.20 -4.95 0 -0.70 4 2 5.35 3.60 0.65 0.75 1.85 1.70 2.60 2.10 1.30 0.65 1.50 0.65 2.15 -0.15 0.65 -0.75 0.60 -1 -0.40 -2.15 -0.65 -0.75 -1.50 -1.35 -1.90 -1.35 -0.40 0 -1.55 -0.80 -2.60 -1.75 -1.25 -1.20 -1.60 -1.75 -1 -1.75 0.70 0 0.70 -0.15 0.20 -1 -0.35 -0.55 -1.05 -1.15 -1.50 -1.30 -1.70 -0.50 -1 -1.70 1 -1.70 2.40 0 7.90 3 7.70 4.20 -0.10 0.45 0.15 0.80 0.50 0.80 0.60 0.05 3.05 3 4.15 5.10 0.25 0.50 0.80 0.90 1.20 0.90 0.40 0 0.60 0.15 0.40 0.30 -0.45 0.50 0.80 1.60 1.50 1.35 0.35 -0.15 0.65 -0.60 0.65 -1 0 -1.55 5.40 0.25 7.50 2.45 0.90 0.95 3.20 4.45 2.85 4.35 -0.05 0 -0.65 -0.25 -1.35 -0.50z"/>
  <path d="M1.95 15.70 l-1.20 -1.35 1.60 0.85 c1.80 0.90 2.55 1.80 1.50 1.80 -0.35 0 -1.20 -0.60 -1.90 -1.30z"/>
  <path d="M2.65 14.35 c-1.45 -0.90 -2.65 -1.90 -2.65 -2.20 0 -0.35 0.15 -0.65 0.35 -0.65 0.40 0 5.65 3.95 5.65 4.25 0 0.50 -0.85 0.15 -3.35 -1.40z"/>
  <path d="M16.90 11 c-0.70 -0.50 -1.55 -1.70 -1.95 -2.60 -0.35 -0.90 -1.30 -2.75 -2.10 -4.05 -2.15 -3.55 -1.30 -3.40 1.30 0.25 2.85 3.95 4.55 6.85 4.25 7.20 -0.15 0.10 -0.80 -0.25 -1.50 -0.80z"/>
  <path d="M3.55 6.15 c-0.90 -1.05 -1.80 -2.20 -2.10 -2.55 -0.30 -0.35 -0.35 -1.30 -0.20 -2.20 l0.35 -1.55 0.95 1.20 c1.15 1.50 1.20 2 0.10 1.60 -0.60 -0.25 -0.50 0.10 0.45 1.40 1.40 1.85 2.55 3.95 2.20 3.95 -0.10 0 -0.90 -0.85 -1.75 -1.85z"/>
 </g>
 <g fill="#f6c272">
  <path d="M11 34.70 c-1.75 -3.45 -1.75 -3.55 -0.80 -2.75 1.15 0.95 2.40 3.45 2.20 4.40 -0.10 0.45 -0.70 -0.25 -1.40 -1.65z"/>
  <path d="M34.90 26.60 c-1.50 -0.90 -1.80 -1.60 -0.70 -1.60 0.35 0 1.05 0.55 1.50 1.25 0.95 1.45 0.95 1.50 -0.80 0.35z"/>
 </g>
 <g fill="#d9d19d">
  <path d="M29.25 8.25 c0.55 -3.15 0.75 -3.75 1.50 -3.75 0.55 0 0.50 0.50 -0.20 2.50 -1.15 3.20 -1.75 3.80 -1.30 1.25z"/>
 </g>
 <g fill="#c7c7c7">
  <path d="M32.25 24.50 c-2.80 -2.40 -4.85 -2.65 -6.35 -0.75 -1.15 1.45 -3.25 1.70 -3.75 0.40 -0.20 -0.50 -0.05 -0.95 0.30 -1.05 0.45 -0.15 0.45 -0.35 0 -0.90 -0.45 -0.55 -0.75 -0.60 -1.30 -0.10 -0.55 0.45 -0.80 0.45 -1.10 0 -0.25 -0.40 -0.90 -0.40 -2.45 0 -2.30 0.55 -5.10 -0.15 -5.10 -1.35 0 -0.35 -0.85 -1.25 -1.85 -2 -2.20 -1.65 -4.90 -4.25 -4.45 -4.25 0.95 0 3.30 1.65 4.85 3.35 2.05 2.25 4.40 3.50 5 2.60 0.20 -0.30 0.80 -0.45 1.40 -0.30 1.15 0.30 2.35 -1.20 1.80 -2.15 -0.50 -0.80 -1.75 -0.60 -1.45 0.25 0.45 1.10 -0.70 0.90 -1.70 -0.30 -0.45 -0.60 -1.15 -1.40 -1.55 -1.80 -0.80 -0.85 -0.30 -1.60 0.55 -0.75 0.90 0.90 2.20 0.80 1.45 -0.10 -0.90 -1.05 -2.50 -1.30 -3.30 -0.45 -1.15 1.10 -1.90 0.25 -1.60 -1.85 0.20 -1.60 0.10 -1.95 -0.70 -2.15 -0.50 -0.15 -0.95 -0.65 -0.95 -1.10 0 -0.65 0.30 -0.80 1.30 -0.55 2.55 0.65 6.75 3.40 7.55 5 0.45 0.85 1.45 2.30 2.20 3.20 1.55 1.75 1.80 2.55 0.85 2.65 -0.35 0.05 0.15 0.25 1.10 0.40 0.95 0.20 2.10 0.15 2.55 -0.10 0.50 -0.30 1.75 -0.20 3.55 0.35 2.15 0.60 3.25 1.30 4.60 2.90 3 3.50 2.15 4 -1.45 0.90z"/>
  <path d="M8.50 19.45 c-3.25 -1.90 -3.25 -1.85 -2.85 -2.25 0.55 -0.55 3.15 0.80 4.65 2.35 0.75 0.80 1.30 1.45 1.15 1.45 -0.10 0 -1.45 -0.70 -2.95 -1.55z"/>
  <path d="M2.25 16 c-0.50 -0.55 -0.70 -1 -0.45 -1 0.60 0.05 2.20 1.25 2.20 1.70 0 0.60 -0.85 0.30 -1.75 -0.70z"/>
  <path d="M2.90 14.35 c-1.60 -0.85 -2.90 -1.90 -2.90 -2.25 0 -0.85 2.10 0.25 4.50 2.35 2.25 1.90 1.95 1.90 -1.60 -0.10z"/>
  <path d="M17.10 11.20 c-0.90 -0.65 -5.10 -8.10 -5.10 -9.10 0 -0.10 0.75 0.75 1.70 1.95 1.65 2.15 5.05 7.95 4.70 7.95 -0.10 0 -0.70 -0.35 -1.30 -0.80z"/>
  <path d="M3.70 6.40 c-1.25 -1.40 -2.80 -3.90 -2.45 -3.90 0.50 0 2.20 2 3 3.45 0.95 1.85 0.80 1.95 -0.55 0.45z"/>
 </g>
 <g fill="#f3db8b">
  <path d="M11.10 34.40 c-1.35 -2.50 -1.05 -3.20 0.35 -0.85 0.90 1.45 1.35 2.95 0.95 2.95 -0.10 0 -0.65 -0.95 -1.30 -2.10z"/>
 </g>
 <g fill="#dfe0e0">
  <path d="M32.35 24.30 c-2.05 -1.85 -5.75 -2.70 -6.20 -1.45 -0.35 0.95 -1.85 0.80 -3.10 -0.30 -0.65 -0.55 -1.45 -0.85 -1.85 -0.70 -1.05 0.40 -2 -0.90 -1.95 -2.85 0 -1.25 -0.25 -1.75 -0.85 -1.90 -0.55 -0.10 -0.90 0.15 -0.90 0.60 0 0.95 -0.55 1.05 -1.40 0.20 -0.95 -0.95 -0.70 -1.80 0.55 -2 1.05 -0.20 1 -0.25 -0.50 -1.20 -0.90 -0.50 -1.60 -1.15 -1.55 -1.45 0.05 -0.25 -0.15 -1 -0.50 -1.65 -0.35 -0.60 -0.45 -1.10 -0.20 -1.10 0.95 0 3.90 2.35 4.95 4 0.65 0.95 1.65 2.40 2.30 3.20 0.60 0.80 1.20 1.65 1.25 1.85 0.10 0.25 1 0.45 2.05 0.45 3.25 0 7.15 1.45 8.90 3.35 2.80 2.95 2.05 3.65 -1 0.95z"/>
  <path d="M13.45 21.20 c-0.60 -0.75 -0.55 -0.80 0.95 -0.50 1.05 0.25 1.60 0.20 1.60 -0.15 0 -0.30 0.35 -0.55 0.80 -0.55 0.45 0 0.70 0.35 0.60 0.90 -0.20 1.20 -3 1.40 -3.95 0.30z"/>
  <path d="M9 19.50 c-0.70 -0.50 -1.10 -1.05 -0.95 -1.25 0.20 -0.15 1 0.25 1.75 0.95 1.70 1.50 1.05 1.75 -0.80 0.30z"/>
  <path d="M10 18.20 c-1.85 -1.30 -2.90 -2.70 -2 -2.70 0.65 0 4.35 3.35 4 3.65 -0.15 0.15 -1.05 -0.30 -2 -0.95z"/>
  <path d="M2.65 14.10 c-2 -1.25 -2.70 -2.10 -1.75 -2.10 0.45 0 4.50 3.45 4.10 3.45 -0.15 0.05 -1.20 -0.60 -2.35 -1.35z"/>
  <path d="M11.85 14.65 c-0.15 -0.25 0 -1.05 0.35 -1.90 l0.65 -1.50 0.60 1.15 c0.50 0.90 0.50 1.35 0 1.90 -0.65 0.75 -1.25 0.90 -1.60 0.35z"/>
  <path d="M17.15 11.15 c-0.75 -0.30 -4.85 -7.60 -4.50 -8 0.30 -0.30 5.35 7.20 5.35 7.90 0 0.25 -0.05 0.45 -0.10 0.40 -0.10 0 -0.40 -0.15 -0.75 -0.30z"/>
  <path d="M3.15 5.40 c-1.55 -1.75 -2 -2.80 -0.70 -1.65 1.05 0.90 2.30 2.75 1.90 2.75 -0.10 0 -0.65 -0.50 -1.20 -1.10z"/>
 </g>
 <g fill="#f4f4f4">
  <path d="M31.25 23.20 c-2.05 -1.20 -4.95 -1.60 -5.50 -0.70 -0.45 0.75 -2.05 0.60 -2.75 -0.25 -0.35 -0.40 -1 -0.75 -1.50 -0.75 -0.90 0 -1.50 -0.95 -1.50 -2.45 0 -0.45 -0.30 -1.25 -0.65 -1.75 -0.60 -0.80 -0.85 -0.85 -1.90 -0.30 -1.10 0.60 -1.15 0.60 -0.55 -0.15 0.40 -0.45 0.55 -1.25 0.35 -1.80 -0.55 -1.80 0.70 -1.60 2 0.30 3.30 4.85 3.35 4.90 6 4.95 2.90 0.10 7.55 1.90 8.30 3.25 0.60 1.20 0.15 1.15 -2.30 -0.35z"/>
  <path d="M9.65 17.80 c-0.90 -0.55 -1.65 -1.35 -1.65 -1.70 0 -0.45 0.45 -0.35 1.50 0.40 2.65 1.90 2.80 3.05 0.15 1.30z"/>
  <path d="M12 13.80 c0 -0.45 0.35 -0.80 0.80 -0.80 0.85 0 0.70 1.10 -0.20 1.40 -0.35 0.10 -0.60 -0.15 -0.60 -0.60z"/>
  <path d="M15.75 8.70 c-0.90 -0.95 -3.05 -4.95 -2.40 -4.55 0.50 0.35 3.70 5.35 3.40 5.35 -0.10 0 -0.55 -0.35 -1 -0.80z"/>
 </g>
</svg>