<?xml version="1.0" encoding="utf-8"?>
<!DOCTYPE svg PUBLIC "-//W3C//DTD SVG 1.0//EN" "http://www.w3.org/TR/2001/REC-SVG-20010904/DTD/svg10.dtd">
<svg version="1.0" xmlns="http://www.w3.org/2000/svg" width="40px" height="40px" viewBox="0 0 40 40" preserveAspectRatio="xMidYMid meet">
 <g fill="#0e0907">
  <path d="M14.50 29.80 c0 -0.70 -0.20 -1.40 -0.50 -1.55 -0.25 -0.15 -0.50 -0.65 -0.50 -1.05 0 -0.50 0.60 -0.70 2.05 -0.70 l2 0 -0.15 2.15 c-0.15 1.90 -0.30 2.10 -1.50 2.25 -1.20 0.15 -1.40 0 -1.40 -1.10z"/>
  <path d="M27.40 26.95 c-0.60 -0.35 -0.90 -1.15 -0.90 -2.45 0 -2 0 -2 2 -2 1.10 0 2 0.25 2 0.50 0 0.30 0.45 0.50 1.05 0.50 0.85 0 1 0.25 0.85 1.90 -0.15 1.80 -0.25 1.85 -2.15 1.95 -1.10 0.10 -2.40 -0.10 -2.85 -0.40z"/>
  <path d="M28.50 10.75 c0 -1.40 0.20 -1.75 1 -1.75 0.80 0 1 0.35 1 1.75 0 1.40 -0.20 1.75 -1 1.75 -0.80 0 -1 -0.35 -1 -1.75z"/>
 </g>
 <g fill="#08242d">
  <path d="M15.95 30.15 c-0.85 -0.15 -1.45 -0.60 -1.60 -1.25 -0.25 -0.90 -0.55 -1 -2.65 -0.75 -1.25 0.10 -2.50 0.50 -2.70 0.85 -0.20 0.35 -0.55 -0.65 -0.70 -2.20 -0.35 -2.80 -1.30 -3.90 -1.30 -1.55 0 1.10 -0.20 1.25 -1.60 1.25 -1.45 0 -1.65 -0.20 -1.75 -1.35 0 -0.75 -0.30 -1.45 -0.65 -1.55 -1.05 -0.35 -3 -2.45 -3 -3.30 0 -0.50 0.45 -0.80 1.25 -0.80 0.75 0 1.25 0.30 1.25 0.70 0 0.40 0.35 0.80 0.75 1 0.40 0.15 0.75 0.05 0.75 -0.20 0 -0.30 0.90 -0.50 2 -0.50 1.65 0 2 0.15 2 0.95 0 0.80 0.40 1 2.15 1.15 1.95 0.15 2.10 0.25 2.25 1.75 0.15 1.50 0.30 1.60 2.50 1.90 5.70 0.70 5.60 0.65 5.60 2.30 0 0.90 -0.20 1.40 -0.50 1.20 -0.25 -0.15 -0.50 -0.05 -0.50 0.20 0 0.55 -1 0.60 -3.55 0.20z"/>
  <path d="M23.35 30.15 c-0.20 -0.15 -0.35 -0.85 -0.35 -1.50 0 -1 0.25 -1.15 1.75 -1.15 1.60 0 1.75 0.10 1.75 1.50 0 1.30 -0.20 1.50 -1.40 1.50 -0.80 0 -1.60 -0.15 -1.75 -0.35z"/>
  <path d="M27.15 27.15 c-0.35 -0.10 -0.65 -1 -0.65 -1.95 0 -1.55 0.15 -1.70 1.45 -1.70 1.75 0 3.05 0.45 3.05 1.05 0 0.70 -1.90 0.55 -2.15 -0.15 -0.10 -0.35 -0.40 -0.45 -0.65 -0.25 -0.60 0.55 1.30 1.95 2.15 1.65 0.40 -0.15 0.65 0.10 0.65 0.70 0 0.80 -0.35 1 -1.60 0.95 -0.90 0 -1.95 -0.15 -2.25 -0.30z"/>
  <path d="M31 21.75 c0 -0.70 0.30 -1.25 0.65 -1.25 0.40 0 1.20 0.55 1.85 1.25 l1.15 1.25 -1.80 0 c-1.65 0 -1.85 -0.15 -1.85 -1.25z"/>
  <path d="M9.80 9.75 c-0.40 -0.40 -1.20 -0.75 -1.75 -0.75 -0.60 0 -1.05 -0.20 -1.05 -0.45 0 -0.25 -0.50 -0.55 -1.10 -0.65 -0.95 -0.10 -1.20 -0.50 -1.30 -2 -0.20 -2.30 0.20 -2.35 1.90 -0.30 1.70 2 2.90 1.70 2.90 -0.80 0 -1 -0.20 -1.95 -0.45 -2.10 -0.70 -0.40 -0.50 -1.20 0.30 -1.20 0.40 0 0.75 -0.35 0.75 -0.75 0 -0.95 0.75 -0.95 2.25 0.05 1.60 1.05 1.55 1.40 -0.10 2.05 -1.20 0.45 -1.25 0.55 -0.35 0.60 1.25 0.05 2.70 2.90 2.70 5.30 0 1.70 -0.05 1.75 -1.95 1.75 -1.10 0 -2.30 -0.35 -2.75 -0.75z"/>
 </g>
 <g fill="#301a12">
  <path d="M6 38.60 c-0.40 -0.15 -1.40 -0.80 -2.20 -1.45 -0.85 -0.70 -2 -1.45 -2.65 -1.70 -0.80 -0.30 -1.15 -0.85 -1.15 -1.70 0 -1.45 0.45 -1.55 1.80 -0.35 1.65 1.45 4.55 2.75 5.40 2.45 0.50 -0.20 0.75 -0.55 0.55 -0.80 -0.15 -0.30 0.20 -0.75 0.75 -1.05 0.85 -0.45 1 -0.40 1 0.65 0 0.80 0.35 1.30 0.95 1.50 0.75 0.20 1 -0.10 1.15 -1.20 0.20 -1.20 0.05 -1.45 -0.85 -1.45 -0.60 0 -2.25 -1.20 -3.95 -2.95 -2.35 -2.35 -2.95 -3.35 -3.05 -4.75 -0.15 -1.75 -0.15 -1.80 0.90 -1.05 0.60 0.40 1.70 0.75 2.45 0.75 0.75 0 1.50 0.25 1.65 0.50 0.15 0.30 0.95 0.50 1.80 0.50 0.80 0 1.45 0.25 1.45 0.50 0 0.30 -0.45 0.50 -1.05 0.50 -0.55 0 -0.85 0.25 -0.70 0.50 0.15 0.30 -0.05 0.50 -0.45 0.50 -1.20 0 -0.95 0.70 0.95 2.80 1.45 1.60 1.95 1.85 2.65 1.40 1.15 -0.75 1.45 -4.10 0.40 -4.50 -1.65 -0.60 -0.70 -1.20 1.90 -1.20 4.45 0 5.80 0.45 5.80 1.85 0 1 -0.20 1.20 -1 1 -0.80 -0.20 -1 0 -1 0.95 0 0.85 -0.40 1.35 -1.30 1.70 -0.70 0.30 -1.45 0.40 -1.65 0.30 -0.30 -0.20 -2.05 1.60 -3.95 4.10 -0.65 0.85 -1.45 1.20 -2.90 1.30 -1.05 0.05 -2.20 0.20 -2.45 0.40 -0.30 0.15 -0.85 0.15 -1.25 0z m10 -9.85 c0.50 -0.60 0.50 -0.75 -0.20 -0.75 -0.45 0 -0.80 0.35 -0.80 0.75 0 0.40 0.10 0.75 0.20 0.75 0.10 0 0.45 -0.35 0.80 -0.75z"/>
  <path d="M22.90 30.15 c-0.50 -0.10 -0.90 -0.55 -0.90 -0.95 0 -0.50 0.65 -0.70 2.50 -0.70 2.15 0 2.50 0.15 2.50 1 0 0.80 -0.30 1 -1.60 0.95 -0.90 -0.05 -2.05 -0.15 -2.50 -0.30z"/>
  <path d="M29.50 29.55 c0 -1.10 2.25 -2.05 4.80 -2.05 0.95 0 1.85 -0.30 2.10 -0.75 0.35 -0.70 0.55 -0.65 1.35 0.25 1.25 1.35 0.50 2.05 -2.40 2.25 -1.25 0.10 -2.70 0.40 -3.25 0.70 -1.55 0.85 -2.60 0.65 -2.60 -0.40z"/>
  <path d="M4 23.50 c-0.60 -0.40 -0.55 -0.50 0.40 -0.50 0.60 0 1.10 0.25 1.10 0.50 0 0.65 -0.55 0.65 -1.50 0z"/>
  <path d="M26.90 21.15 c-0.50 -0.10 -0.90 -0.45 -0.90 -0.70 0 -0.25 -0.80 -0.45 -1.75 -0.45 -0.95 0 -1.75 -0.20 -1.75 -0.50 0 -0.25 -0.45 -0.50 -1 -0.50 -0.80 0 -1 -0.35 -1 -1.75 0 -2.10 0.30 -2.15 1.60 -0.50 1.15 1.45 2.90 1.60 4.05 0.35 2.05 -2.25 3.35 -12.50 1.85 -14.30 -0.50 -0.65 -0.50 -0.95 0.05 -1.65 0.35 -0.50 0.70 -0.95 0.75 -1.05 0.05 -0.05 0.40 0 0.80 0.15 0.50 0.20 0.65 0.80 0.50 2.05 l-0.20 1.80 1.65 -0.35 c0.95 -0.20 2.05 -0.65 2.50 -1.05 1.10 -0.95 1.80 -0.85 2.10 0.30 0.20 0.80 0 1 -1 1 -1.70 0 -4.65 3.10 -4.65 4.90 -0.10 3.75 -0.45 6.25 -1.05 7 -0.40 0.45 -1 1.35 -1.35 1.95 -0.55 1.05 -0.45 1.20 1.15 1.85 0.95 0.40 1.75 1 1.75 1.25 0 0.55 -2.45 0.65 -4.10 0.20z"/>
 </g>
 <g fill="#272d2f">
  <path d="M17.10 30.35 c-2.15 -0.40 -2.20 -0.45 -1.25 -1.45 0.90 -1.05 0.90 -1.05 -0.40 -0.75 -1.35 0.35 -3.50 -0.75 -2.85 -1.45 0.40 -0.40 10.30 0.55 14.20 1.40 1.85 0.40 2.85 0.35 3.50 0 0.90 -0.55 0.90 -0.55 -0.15 -0.60 -0.65 0 -1.15 -0.30 -1.15 -0.70 0 -0.35 0.50 -0.85 1.15 -1.05 l1.10 -0.40 -1.10 -0.20 c-0.75 -0.15 -1.15 -0.60 -1.15 -1.20 0 -0.75 0.35 -0.95 1.75 -0.95 1.75 0 1.75 0 1.75 2.25 0 1.90 0.15 2.25 1 2.25 1.80 0 1.05 1.35 -1.25 2.20 -1.85 0.75 -3.10 0.80 -7.25 0.55 -2.75 -0.20 -5 -0.55 -5 -0.75 0 -0.20 -0.35 -0.55 -0.80 -0.70 -0.70 -0.25 -0.75 -0.20 -0.20 0.40 1 1.25 0.35 1.65 -1.90 1.15z"/>
  <path d="M7.50 27 c0 -0.80 0.35 -1 1.75 -1 1.85 0 2.45 1.10 0.95 1.70 -1.60 0.60 -2.70 0.30 -2.70 -0.70z"/>
  <path d="M3.75 25.55 c0 -0.95 0.20 -1.30 0.50 -1 0.55 0.55 1.25 0.60 1.25 0.05 0 -0.25 -0.75 -0.80 -1.60 -1.25 l-1.65 -0.80 1.50 0 c2.10 0 3.25 1 3.25 2.90 0 1.40 -0.15 1.55 -1.60 1.55 -1.50 0 -1.65 -0.15 -1.65 -1.45z"/>
  <path d="M30 21.30 c0 -1 0.20 -1.15 1.10 -0.90 0.65 0.15 1.55 0.70 2.10 1.20 0.95 0.90 0.95 0.90 -1.10 0.90 -1.90 0 -2.10 -0.10 -2.10 -1.20z"/>
  <path d="M19.05 16 c-0.85 -1.95 -1.55 -3.95 -1.55 -4.50 0 -0.55 -0.20 -1 -0.50 -1 -0.25 0 -0.50 -0.25 -0.50 -0.55 0 -0.30 -0.35 -0.85 -0.75 -1.25 -0.40 -0.45 -0.75 -1.30 -0.75 -2 0 -0.75 -0.30 -1.20 -0.75 -1.20 -0.55 0 -0.75 -0.55 -0.75 -1.80 0 -1.50 0.10 -1.70 0.70 -1.25 1.30 1.10 4.05 6.05 6.60 11.90 0.75 1.80 1.70 3.25 2.25 3.40 1.65 0.55 1.10 1.75 -0.75 1.75 -1.60 0 -1.75 -0.15 -3.25 -3.50z"/>
  <path d="M28.75 10.15 c0.20 -3.05 0.20 -3.15 1.20 -3.15 0.80 0 0.85 0.25 0.50 2.15 -0.20 1.15 -0.40 2.25 -0.45 2.50 0 0.20 -0.30 0.35 -0.70 0.35 -0.45 0 -0.60 -0.60 -0.55 -1.85z"/>
  <path d="M3.80 5.70 c-0.15 -0.45 -0.30 -1.45 -0.30 -2.25 0 -1.10 -0.25 -1.45 -1 -1.45 -0.65 0 -1 -0.35 -1 -1 0 -0.60 0.35 -1 0.90 -1 0.70 0 2.50 2.75 4 6.15 0.10 0.20 -0.40 0.35 -1.05 0.35 -0.70 0 -1.40 -0.35 -1.55 -0.80z"/>
 </g>
 <g fill="#123744">
  <path d="M16.35 30.15 c-1.35 -0.20 -1.40 -0.30 -0.65 -1.10 0.80 -0.85 0.70 -0.95 -2.05 -1.25 -1.60 -0.15 -3.50 -0.20 -4.25 -0.05 -0.80 0.15 -1.40 0.05 -1.40 -0.20 0 -0.25 -0.85 -0.55 -1.85 -0.65 -1.40 -0.10 -1.95 -0.40 -2.05 -1.10 -0.15 -0.70 0 -0.85 0.60 -0.65 0.50 0.20 0.80 0.05 0.80 -0.35 0 -0.40 -1 -1.10 -2.25 -1.60 -1.25 -0.45 -2.25 -1.15 -2.25 -1.50 0 -0.40 -0.20 -0.70 -0.50 -0.70 -0.25 0 -0.50 -0.90 -0.50 -2 0 -1.95 0.05 -2 1.70 -2 1.20 0 1.80 0.25 1.95 0.90 0.20 0.80 0.25 0.80 0.30 0 0.05 -0.65 0.50 -0.90 1.75 -0.90 2.05 0 2.65 0.65 3.10 3.35 0.30 1.95 0.45 2.10 2.15 2.25 1.55 0.15 1.80 0.35 1.95 1.50 0.10 0.95 0.50 1.45 1.25 1.60 2.60 0.55 4.85 0.85 8.75 1.20 3.15 0.25 4.10 0.20 4.10 -0.25 0 -0.35 -0.20 -0.65 -0.50 -0.65 -0.25 0 -0.50 -0.80 -0.50 -1.75 0 -1.65 0.10 -1.75 1.75 -1.75 1.20 0 1.75 0.25 1.75 0.75 0 0.40 0.25 0.75 0.50 0.75 0.30 0 0.50 0.25 0.50 0.50 0 0.30 -0.35 0.50 -0.75 0.50 -0.40 0 -0.75 -0.20 -0.75 -0.50 0 -0.25 -0.20 -0.50 -0.50 -0.50 -1.05 0 -0.45 1.50 0.75 1.80 1.55 0.40 1.65 1.55 0.15 1.85 -0.65 0.10 -0.10 0.25 1.25 0.30 1.30 0 2.35 0.25 2.35 0.50 0 1.40 -3.85 2.10 -9 1.65 l-4.25 -0.35 2.75 -0.30 2.75 -0.30 -2.85 -0.05 c-1.55 -0.05 -3.40 -0.30 -4.10 -0.60 -0.70 -0.25 -1.30 -0.35 -1.30 -0.25 0 0.15 0.55 0.50 1.25 0.75 0.70 0.25 1.25 0.70 1.25 1 0 0.50 -0.55 0.55 -3.15 0.15z"/>
  <path d="M28.50 20.75 c0 -1.20 0.05 -1.25 1.60 -0.60 2.30 0.95 2.40 1.85 0.20 1.85 -1.60 0 -1.80 -0.15 -1.80 -1.25z"/>
  <path d="M13 11.55 c0 -0.20 -1.40 -0.80 -3.10 -1.30 -3.65 -1 -4.40 -1.65 -4.40 -3.70 0 -1.30 -0.20 -1.55 -1.15 -1.55 -1.30 0 -2.35 -1.70 -2.35 -3.80 0 -2 1.10 -1.20 2.80 2.05 1.45 2.70 3.40 4.50 4.30 3.95 0.60 -0.35 0.50 -3.60 -0.10 -4.75 -0.45 -0.80 -0.35 -0.95 0.45 -0.95 0.70 0 0.95 -0.25 0.75 -0.75 -0.20 -0.45 0 -0.75 0.50 -0.75 0.45 0 0.80 0.25 0.80 0.50 0 0.30 0.30 0.50 0.65 0.50 0.40 0 1.15 0.50 1.70 1.10 1.20 1.30 4.40 6.65 5.15 8.60 0.45 1.20 0.35 1.30 -0.75 1.30 -0.85 0 -1.25 -0.35 -1.40 -1.10 l-0.20 -1.15 -0.10 1.15 c-0.05 0.90 -0.35 1.10 -1.80 1.10 -0.95 0 -1.75 -0.20 -1.75 -0.45z m0 -2.80 c0 -0.65 -1.75 -3.75 -2.10 -3.75 -0.25 0 -0.10 0.70 0.35 1.50 0.60 1.15 0.60 1.50 0.15 1.50 -0.45 0 -0.40 0.15 0.10 0.50 0.80 0.50 1.50 0.65 1.50 0.25z m3 -1.25 c0 -0.65 -0.35 -1 -0.95 -1 -0.60 0 -1.05 -0.40 -1.20 -1.10 -0.15 -0.85 -0.25 -0.70 -0.30 0.50 -0.05 1.10 0.15 1.60 0.70 1.60 0.40 0 0.75 0.25 0.75 0.50 0 0.30 0.25 0.50 0.50 0.50 0.30 0 0.50 -0.45 0.50 -1z"/>
  <path d="M0 8.25 c0 -2.90 0.10 -3.25 1 -3.25 0.90 0 1 0.35 1 3.25 0 2.90 -0.10 3.25 -1 3.25 -0.90 0 -1 -0.35 -1 -3.25z"/>
 </g>
 <g fill="#4d2c1d">
  <path d="M3.80 37 c-1.05 -0.80 -2.35 -1.60 -2.90 -1.75 -0.55 -0.20 -0.90 -0.80 -0.90 -1.55 l0 -1.20 1.90 1 c1 0.55 2.45 1.50 3.20 2.10 1.15 0.90 1.50 0.95 2.15 0.40 0.40 -0.35 0.75 -0.90 0.75 -1.25 0 -0.35 0.35 -0.80 0.80 -0.95 0.65 -0.25 0.15 -1 -2.20 -3.55 -2.25 -2.35 -2.95 -3.45 -2.75 -4.20 0.20 -0.80 0.55 -1 1.60 -0.80 0.70 0.15 2.15 0.40 3.20 0.55 2.15 0.40 2.35 1 0.60 1.80 -0.95 0.40 -1.40 0.40 -2 -0.10 -1.15 -0.95 -0.90 0.20 0.25 1.25 0.55 0.50 1 1.45 1 2.10 0 0.60 0.25 1.15 0.50 1.15 0.30 0 0.50 -0.25 0.50 -0.55 0 -0.30 0.65 -0.05 1.45 0.50 0.80 0.60 1.75 1.05 2.15 1.05 1 0 1.90 -1.05 1.90 -2.25 0 -1.05 0.85 -2.25 1.60 -2.25 0.20 0 0.45 0.50 0.45 1.15 0.05 0.85 0.10 0.90 0.30 0.20 0.30 -1.15 1.85 -0.90 2.05 0.30 0.25 1.20 -0.75 2.35 -2 2.35 -0.70 0 -0.90 -0.25 -0.70 -0.75 0.15 -0.40 0.05 -0.75 -0.20 -0.75 -0.30 0 -0.50 0.35 -0.50 0.75 0 0.40 -0.60 1.45 -1.35 2.35 -0.80 0.90 -1.65 2.10 -1.95 2.65 -0.60 1.10 -3.05 1.95 -3.30 1.15 -0.15 -0.40 -0.55 -0.35 -1.25 0.05 -1.60 0.80 -2.20 0.70 -4.35 -0.95z"/>
  <path d="M24 30 c-2.50 -0.55 0.05 -0.55 3 -0.05 2.05 0.40 2.10 0.40 0.50 0.40 -0.95 0 -2.55 -0.15 -3.50 -0.35z"/>
  <path d="M24.75 28.70 l-2.50 -0.70 2.75 0.25 c1.50 0.15 3.15 0.25 3.65 0.25 0.45 0 0.85 0.25 0.85 0.50 0 0.65 -1.65 0.55 -4.75 -0.30z"/>
  <path d="M33 28.15 c0 -0.80 0.30 -1.15 1 -1.15 0.80 0 1 -0.35 1 -1.55 0 -2 0.70 -1.70 2.30 0.90 l1.25 2.10 -1.15 0.25 c-0.65 0.15 -1.90 0.35 -2.75 0.45 -1.45 0.15 -1.65 0.05 -1.65 -1z"/>
  <path d="M18.90 28.15 c0.60 -0.10 1.60 -0.10 2.25 0 0.60 0.10 0.10 0.20 -1.15 0.20 -1.25 0 -1.75 -0.10 -1.10 -0.20z"/>
  <path d="M26.40 21.15 c-0.50 -0.10 -0.90 -0.45 -0.90 -0.70 0 -0.25 -0.65 -0.45 -1.45 -0.45 -2.50 0 -3.05 -0.45 -3.05 -2.45 l0.05 -1.80 0.70 1.25 c0.40 0.70 0.70 1.05 0.75 0.85 0 -0.20 0.45 -0.15 0.95 0.15 0.55 0.25 1.30 0.35 1.70 0.25 0.95 -0.40 2.55 -3.45 3.35 -6.35 0.35 -1.35 0.85 -2.40 1.10 -2.40 0.85 0 0.10 5.20 -1.05 7.40 -0.60 1.20 -1.05 2.25 -0.95 2.30 0.10 0.05 0.75 0.35 1.55 0.70 0.75 0.30 1.35 0.80 1.35 1.10 0 0.50 -2.45 0.60 -4.10 0.15z"/>
  <path d="M30 6.50 c0 -0.55 -0.20 -1 -0.40 -1 -0.65 0 -1.50 -2.85 -1.25 -4.20 0.20 -0.85 0.60 -1.30 1.20 -1.30 1.10 0 1.15 0.20 0.45 1.50 -0.85 1.60 -0.10 2.60 1.70 2.20 1.90 -0.40 3.30 -1.55 3.30 -2.80 0 -0.50 0.35 -0.90 0.80 -0.90 0.60 0 0.75 0.30 0.50 1.15 -0.15 0.60 -0.30 1.35 -0.30 1.70 0 0.30 -0.80 0.85 -1.75 1.15 -1 0.35 -2.10 1.20 -2.60 2.05 -1 1.70 -1.65 1.85 -1.65 0.45z"/>
 </g>
 <g fill="#1e4959">
  <path d="M16.05 29.55 c-1 -0.65 0.15 -1.15 1.70 -0.75 0.70 0.15 1.25 0.50 1.25 0.75 0 0.55 -2.05 0.55 -2.95 0z"/>
  <path d="M28.25 29.45 c-1.10 -0.25 -4.15 -0.70 -6.75 -0.95 -2.60 -0.25 -5.65 -0.60 -6.75 -0.75 -1.10 -0.15 -3.85 -0.30 -6.10 -0.40 -4.40 -0.15 -4.85 -0.30 -4.40 -1.45 0.25 -0.55 0.85 -0.70 2.40 -0.55 l2.10 0.15 -3.20 -1.50 c-1.75 -0.80 -3.35 -1.50 -3.55 -1.50 -0.20 0 -0.75 -0.55 -1.20 -1.20 -0.60 -0.95 -0.60 -1.30 -0.15 -1.50 0.45 -0.25 0.45 -0.35 0 -0.60 -0.40 -0.15 -0.65 -1.35 -0.65 -3.05 l0 -2.75 1.35 0.35 c0.80 0.15 2.20 0.45 3.20 0.60 1.50 0.20 1.90 0.50 2.15 1.55 0.15 0.90 0.85 1.65 1.90 2.15 1.25 0.60 1.70 1.15 1.80 2.35 0.10 0.90 0.35 1.60 0.65 1.60 0.25 0 0.45 0.35 0.45 0.75 0 0.40 0.45 0.75 0.95 0.75 0.55 0 1.10 0.20 1.25 0.45 0.15 0.25 1.70 0.60 3.40 0.80 1.75 0.20 3.75 0.70 4.50 1.05 0.75 0.40 2.05 0.70 2.90 0.70 1.35 0 1.50 -0.15 1.50 -1.45 0 -2.35 0.50 -3.05 2.05 -3.05 1.10 0 1.45 -0.25 1.45 -1 0 -1 0.05 -1 1.90 -0.25 1.80 0.80 5.10 3.55 5.10 4.35 0 0.95 -2.90 0.35 -4 -0.85 -1.40 -1.50 -2 -1.60 -2 -0.25 0 1.05 -1.30 1.40 -1.60 0.45 -0.10 -0.35 -0.50 -0.50 -0.90 -0.35 -0.50 0.15 -0.45 0.45 0.40 1.30 l1.10 1.10 -1.10 0.10 c-0.65 0.05 0.30 0.20 2.10 0.35 2.75 0.25 3.25 0.45 3.25 1.25 0 0.55 -0.35 1 -0.80 1.05 -0.45 0.10 -1.25 0.25 -1.75 0.40 -0.55 0.10 -1.85 0 -2.95 -0.20z m-17 -4.90 c-0.40 -0.65 -2.25 -0.75 -2.25 -0.10 0 0.25 0.50 0.55 1.15 0.65 1.35 0.25 1.55 0.15 1.10 -0.55z m-3.90 -2.30 c0.25 -0.75 -2.50 -2.25 -4.05 -2.25 -1.75 0 -1.65 0.70 0.35 1.90 1.65 1.10 3.40 1.20 3.70 0.35z"/>
  <path d="M17.75 13.50 c-0.25 -0.75 -0.75 -1 -2.05 -1 -0.95 0 -1.70 -0.20 -1.70 -0.45 0 -0.25 -0.65 -0.60 -1.50 -0.80 -0.80 -0.20 -1.50 -0.50 -1.50 -0.75 0 -0.20 -1.35 -0.50 -3 -0.70 -1.65 -0.20 -3.10 -0.55 -3.25 -0.80 -0.15 -0.25 -0.45 -1.60 -0.60 -3 -0.35 -2.85 0.35 -3.35 1.55 -1.10 1.05 1.95 2.35 2.90 5.20 3.70 l2.50 0.75 -0.95 -2.05 c-0.50 -1.15 -1.35 -2.40 -1.85 -2.85 -1.35 -1.05 -1.90 -2.95 -0.90 -2.95 0.45 0 0.80 -0.35 0.80 -0.75 0 -0.65 0.20 -0.65 1.40 0.10 1.60 1.05 3.60 3.10 3.60 3.70 0 0.25 -0.40 0.45 -0.85 0.50 -0.70 0 -0.75 0.10 -0.15 0.30 1 0.40 1.45 1.15 1.55 2.65 0.05 0.85 0.15 0.95 0.30 0.40 0.35 -1.45 0.95 -1.05 2.15 1.45 2.10 4.45 2.10 4.65 0.75 4.65 -0.75 0 -1.30 -0.35 -1.50 -1z"/>
  <path d="M0.05 6.50 c-0.05 -4.55 0.10 -5.50 0.70 -5.50 0.40 0 0.75 -0.20 0.75 -0.50 0 -0.25 0.35 -0.50 0.75 -0.50 0.80 0 2.15 2.10 1.45 2.35 -0.25 0.10 -0.40 1.95 -0.30 4.15 0.10 2.60 0 4 -0.35 4 -0.30 0 -0.55 0.35 -0.55 0.75 0 0.45 -0.45 0.75 -1.20 0.75 -1.15 0 -1.15 -0.05 -1.25 -5.50z"/>
  <path d="M9.30 7.50 c-0.05 -0.15 0 -0.90 0.15 -1.75 l0.30 -1.45 0.90 1.35 c0.45 0.70 0.85 1.55 0.85 1.80 0 0.50 -1.95 0.55 -2.20 0.05z"/>
 </g>
 <g fill="#773a1a">
  <path d="M4.55 37.20 c-0.65 -0.65 -1.95 -1.45 -2.85 -1.80 -1.10 -0.40 -1.70 -0.95 -1.70 -1.55 0 -0.70 0.25 -0.85 1.05 -0.60 2.20 0.70 4.90 3 4.95 4.15 0 1.30 0.05 1.30 -1.45 -0.20z"/>
  <path d="M10.55 37.55 c-0.40 -0.25 -0.55 -0.80 -0.35 -1.35 0.25 -0.80 0.20 -0.80 -0.55 0.10 -0.70 0.80 -1.20 0.95 -2.15 0.70 -1.05 -0.30 -1.15 -0.40 -0.35 -0.75 0.45 -0.20 0.85 -0.65 0.85 -1.05 0 -0.35 0.40 -0.85 0.85 -1.10 0.75 -0.45 0.70 -0.65 -0.65 -2.15 -0.80 -0.95 -2.10 -2.30 -2.85 -3.05 -1.70 -1.70 -1.70 -2.40 0 -2.40 0.70 0 1.15 0.15 0.95 0.35 -0.15 0.20 0.95 1.65 2.55 3.25 2.15 2.15 3.25 2.90 4.25 2.90 1.60 0 1.90 0.95 0.40 1.35 -0.55 0.15 -0.90 0.45 -0.75 0.65 0.35 0.55 -0.60 3 -1.10 3 -0.25 0 -0.70 -0.20 -1.10 -0.45z"/>
  <path d="M15 30.60 c0 -0.25 0.30 -0.80 0.65 -1.30 0.85 -1.15 3.35 -0.60 3.35 0.75 0 0.75 -0.35 0.95 -2 0.95 -1.10 0 -2 -0.20 -2 -0.40z"/>
  <path d="M32.80 29.15 c-0.15 -0.15 -0.30 -0.75 -0.30 -1.25 0 -0.70 0.40 -0.90 1.70 -0.90 0.95 0 1.80 -0.30 1.95 -0.60 0.15 -0.45 0.55 -0.20 1.25 0.60 l1 1.25 -2.05 0.25 c-1.15 0.15 -2.35 0.45 -2.65 0.60 -0.30 0.20 -0.70 0.25 -0.90 0.05z"/>
  <path d="M23.90 20.65 c-1.10 -0.15 -1.40 -0.50 -1.40 -1.50 0 -0.95 0.20 -1.20 0.80 -0.95 0.45 0.20 1.60 0.05 2.50 -0.30 1.90 -0.65 2.65 -0.30 1.70 0.85 -0.50 0.60 -0.50 0.75 0.20 0.75 0.45 0 0.80 0.35 0.80 0.75 0 0.75 -1.45 0.90 -4.60 0.40z"/>
  <path d="M30.50 5.30 c0 -0.80 0.35 -1.30 1.15 -1.50 2.10 -0.55 2.25 -0.30 0.75 1.20 -1.80 1.80 -1.90 1.85 -1.90 0.30z"/>
 </g>
 <g fill="#5e4334">
  <path d="M5.20 37.60 c-0.30 -0.50 -1.50 -1.30 -2.65 -1.85 -1.20 -0.60 -2.05 -1.35 -2.05 -1.85 0 -1.10 1 -0.75 3.80 1.25 1.75 1.20 2.25 1.35 3.15 0.90 0.55 -0.35 1 -0.85 0.90 -1.20 -0.05 -0.35 0.50 -0.65 1.25 -0.75 0.75 -0.10 1.40 -0.55 1.55 -1 0.10 -0.60 0.45 -0.30 1.10 1.05 0.70 1.40 0.80 2.10 0.45 2.70 -0.85 1.35 -1.70 1.35 -1.70 -0.05 0 -0.65 -0.20 -1.40 -0.50 -1.55 -0.25 -0.15 -0.50 -0.05 -0.50 0.25 0 0.80 -2.50 3 -3.45 3 -0.45 0 -1.05 -0.40 -1.35 -0.90z"/>
  <path d="M12.85 34.15 c-0.65 -0.60 -0.35 -1.15 0.65 -1.15 0.70 0 1.10 -0.40 1.30 -1.35 0.15 -0.80 0.60 -1.85 1 -2.35 0.60 -0.80 0.90 -0.90 1.95 -0.40 2.10 0.95 1.50 3.60 -0.85 3.60 -0.30 0 -0.40 -0.35 -0.20 -0.75 0.15 -0.40 0.05 -0.75 -0.20 -0.75 -0.25 0 -0.60 0.45 -0.75 1 -0.55 1.80 -2.15 2.95 -2.90 2.15z"/>
  <path d="M21.40 29.65 c0.60 -0.10 1.50 -0.10 2 0 0.45 0.15 -0.05 0.25 -1.15 0.20 -1.10 0 -1.50 -0.10 -0.85 -0.20z"/>
  <path d="M32.20 28.80 c-1.20 -0.90 -0.45 -1.80 1.45 -1.80 1.20 0 1.40 -0.15 0.95 -0.60 -0.35 -0.35 -0.60 -1.25 -0.60 -2 0 -1.30 0.10 -1.35 1.05 -0.80 0.55 0.35 1.35 1.40 1.75 2.35 0.90 2.10 0.90 2.05 -0.15 2.05 -0.50 0 -1.50 0.30 -2.25 0.70 -1.10 0.55 -1.50 0.60 -2.20 0.10z"/>
  <path d="M4.80 28 c-0.70 -0.75 -0.85 -1.25 -0.50 -1.95 0.45 -0.90 0.55 -0.90 2.85 -0.15 2.80 0.90 3.15 1.85 0.55 1.45 -1.80 -0.30 -1.80 -0.30 -0.95 0.65 0.85 0.95 0.85 1 -0.05 0.95 -0.50 0 -1.40 -0.45 -1.90 -0.95z"/>
  <path d="M9.35 26.15 c-0.60 -0.60 -0.35 -1.10 0.40 -0.85 0.40 0.20 0.75 0.50 0.75 0.75 0 0.55 -0.70 0.60 -1.15 0.10z"/>
  <path d="M27.50 25.70 c0 -0.60 0.15 -0.70 0.65 -0.30 0.30 0.25 1.15 0.60 1.85 0.75 0.90 0.15 0.75 0.25 -0.60 0.30 -1.45 0.05 -1.90 -0.15 -1.90 -0.75z"/>
  <path d="M29 24.25 c0 -0.55 -0.25 -0.75 -0.75 -0.55 -0.40 0.15 -0.75 0.05 -0.75 -0.20 0 -0.30 0.80 -0.50 1.80 -0.50 1.40 0 1.75 0.15 1.60 0.85 -0.20 1.20 -1.90 1.50 -1.90 0.40z"/>
  <path d="M26 21.05 c0 -0.30 -1.05 -0.55 -2.35 -0.65 l-2.40 -0.15 -0.15 -2 c-0.10 -1.70 0 -1.90 0.55 -1.25 0.35 0.40 1.10 1.05 1.70 1.35 0.95 0.55 1.30 0.45 2.75 -1.10 1.85 -2 2.35 -3.75 2.70 -9.40 0.15 -2.60 0.05 -4.20 -0.35 -4.65 -0.85 -1 -0.15 -3.20 1.05 -3.20 0.85 0 0.90 0.20 0.50 1.25 -0.80 2.05 -0.15 2.90 1.95 2.50 1.80 -0.30 3.05 -1.35 3.05 -2.60 0 -0.35 0.35 -0.65 0.70 -0.65 0.60 0 0.65 0.30 0.25 1.45 -0.35 1.05 -1.05 1.65 -2.15 2.05 -2.25 0.70 -3.80 4 -3.80 7.95 0 2 -0.25 3.15 -0.75 3.55 -0.40 0.35 -0.75 0.95 -0.75 1.30 0 0.40 -0.45 1.15 -0.95 1.65 -0.95 0.95 -0.95 0.95 0.75 1.30 2.50 0.45 2.25 1.75 -0.30 1.75 -1.10 0 -2 -0.20 -2 -0.45z"/>
 </g>
 <g fill="#29576b">
  <path d="M25.75 28.35 c-1.90 -0.20 -4.15 -0.65 -5 -0.95 -0.80 -0.30 -2.20 -0.55 -3.10 -0.60 -0.85 -0.05 -1.75 -0.20 -1.95 -0.40 -0.20 -0.25 -0.90 -0.40 -1.60 -0.40 -0.65 0 -1.85 -0.55 -2.70 -1.25 -1.55 -1.30 -2.40 -1.60 -2.40 -0.75 0 0.85 -1.65 0.55 -4.85 -0.85 -2.25 -1 -3.15 -1.65 -3.15 -2.35 0 -0.95 0 -0.95 1.15 0 1.90 1.70 3.65 2.35 5.20 1.95 1.30 -0.35 1.30 -0.40 0.50 -0.95 -0.50 -0.30 -2.05 -1.25 -3.35 -2.15 -1.55 -1 -2.85 -1.45 -3.50 -1.30 -0.80 0.20 -1 0.05 -1 -1.05 0 -1.20 0.10 -1.25 1.40 -0.80 l1.35 0.50 -1.35 -1.15 c-1.15 -0.90 -1.40 -1.55 -1.40 -3.25 0 -1.15 0.25 -2.10 0.50 -2.10 0.70 0 0.60 -1.35 -0.10 -1.70 -0.50 -0.25 -0.50 -0.35 0 -0.60 0.70 -0.35 0.80 -1.70 0.10 -1.70 -0.25 0 -0.50 -0.65 -0.50 -1.50 0 -0.85 0.25 -1.50 0.60 -1.50 0.45 0 0.45 -0.15 0 -0.60 -0.90 -0.90 -0.70 -1.90 0.35 -1.90 0.55 0 1.05 -0.30 1.20 -0.60 0.30 -0.75 1.25 0.40 2.65 3.05 0.50 1 1.35 2.30 1.90 2.95 1 1.15 1 1.15 0.05 0.80 -0.70 -0.25 -0.85 -0.20 -0.50 0.15 0.30 0.30 1.65 0.75 3 1 1.40 0.30 2.90 0.70 3.35 0.90 0.85 0.35 0.85 0.25 0.10 -1.55 -0.45 -1.10 -1.35 -2.50 -2 -3.25 -0.65 -0.70 -1.20 -1.65 -1.20 -2.20 0 -0.85 0.05 -0.85 1.05 0.05 1.10 0.95 1.10 0.95 0.50 -0.20 -0.35 -0.65 -0.50 -1.40 -0.35 -1.75 0.15 -0.45 0.25 -0.45 0.25 0.05 0.05 0.30 0.35 0.60 0.75 0.60 1.55 0 5.55 5.65 7.35 10.35 l0.45 1.25 -2.35 -0.30 c-4.55 -0.65 -5.15 -0.85 -5.15 -1.80 0 -0.85 -0.30 -0.90 -2.50 -0.65 -1.70 0.20 -2.50 0.10 -2.50 -0.30 0 -0.30 -0.35 -0.55 -0.75 -0.55 -0.40 0 -0.75 0.35 -0.75 0.75 0 0.40 -0.25 0.75 -0.60 0.75 -0.30 0 -0.20 0.35 0.25 0.90 0.55 0.60 0.85 1.80 0.85 3.25 0 2 0.15 2.35 1 2.35 0.55 0 1 0.35 1 0.75 0 0.40 0.45 0.75 0.95 0.75 2 0 2.55 0.55 2.55 2.55 0 1.55 0.20 1.95 0.95 1.95 0.50 0 1.20 0.35 1.55 0.75 0.40 0.50 1.55 0.75 3.45 0.75 1.55 0.05 3.35 0.35 4.05 0.75 1.80 1.05 5.50 1 5.50 -0.10 0 -0.75 0.05 -0.75 0.90 0 1.15 1.05 3.10 1.10 3.10 0.15 0 -0.40 -0.40 -0.65 -0.85 -0.60 -0.60 0 -0.95 -0.35 -1.05 -1.05 -0.15 -0.90 0.10 -1.15 0.85 -1.15 0.60 0 1.05 -0.30 1.05 -0.75 0 -1.10 0.75 -0.95 2.35 0.50 1.10 0.95 1.20 1.20 0.55 1.25 -1.35 0 -1.25 2.80 0.10 3.15 1.10 0.30 1.40 1.80 0.40 1.90 -2.40 0.25 -5.65 0.15 -8.65 -0.20z m-18.25 -8.55 c0 -0.10 -0.60 -0.60 -1.35 -1.05 l-1.40 -0.90 0.95 1.05 c0.85 1 1.80 1.45 1.80 0.90z"/>
  <path d="M5.90 27.80 c-0.50 -0.35 -0.90 -1.05 -0.90 -1.55 0 -0.90 0.45 -0.90 3.40 0 0.90 0.30 1.05 0.20 0.80 -0.45 -0.35 -0.95 0.25 -1 2.05 -0.20 1.75 0.80 1.60 1.60 -0.25 1.25 -0.90 -0.20 -1.50 -0.10 -1.50 0.20 0 0.30 -0.30 0.35 -0.80 0.05 -0.45 -0.25 -1.25 -0.35 -1.80 -0.20 -0.70 0.15 -0.80 0.35 -0.35 0.90 0.70 0.85 0.45 0.85 -0.65 0z"/>
  <path d="M22 20 c0 -0.65 -0.35 -1 -0.90 -1 -1.10 0 -2.10 -1.95 -2.10 -4 0 -2.20 0.80 -1.80 2.25 1 1.45 2.85 2.20 3.35 3.70 2.50 0.95 -0.50 1.05 -0.40 1.05 1 0 1.40 -0.10 1.50 -2 1.50 -1.65 0 -2 -0.15 -2 -1z"/>
  <path d="M10.55 7.55 c-0.35 -0.25 -0.55 -0.85 -0.45 -1.35 0.20 -0.85 0.25 -0.85 0.85 0.20 0.70 1.35 0.60 1.75 -0.40 1.15z"/>
 </g>
 <g fill="#2d657d">
  <path d="M32.90 28.25 c-0.15 -0.15 -2.80 -0.40 -5.90 -0.55 -3.10 -0.10 -6.10 -0.50 -6.65 -0.80 -0.55 -0.30 -2.35 -0.60 -4 -0.70 -1.65 -0.10 -3.35 -0.50 -3.80 -0.90 -1.65 -1.40 -3.15 -1.95 -3.55 -1.30 -0.25 0.40 -0.90 0.50 -1.80 0.30 -1.40 -0.35 -1.40 -0.40 -0.50 -1.10 0.55 -0.40 1.55 -0.70 2.25 -0.75 1.25 -0.05 1.25 -0.05 -0.20 -0.55 -0.80 -0.30 -2.80 -1.40 -4.35 -2.45 -1.60 -1.05 -3 -1.70 -3.15 -1.40 -0.55 0.80 -1.25 0.50 -1.25 -0.60 0 -0.90 0.20 -1 1.40 -0.75 l1.35 0.30 -1.35 -1.20 c-1.05 -0.90 -1.40 -1.70 -1.40 -3.05 0 -0.95 0.25 -1.75 0.50 -1.75 0.30 0 0.50 -0.45 0.50 -0.95 0 -0.55 0.30 -1.10 0.65 -1.20 0.45 -0.20 0.45 -0.40 -0.10 -0.75 -0.35 -0.25 -0.50 -0.75 -0.35 -1.05 0.20 -0.30 0 -0.55 -0.40 -0.55 -0.50 0 -0.80 -0.45 -0.80 -1.25 0 -1.45 0.40 -1.60 1.30 -0.40 0.65 0.85 0.65 0.85 0.70 0.05 0 -0.50 0.25 -0.90 0.50 -0.90 0.30 0 0.50 -0.45 0.50 -1 0 -1.55 0.70 -1.20 1.90 0.95 1.25 2.20 1.35 2.75 0.45 2.25 -0.30 -0.20 -0.15 0.10 0.35 0.70 0.60 0.70 1.85 1.20 3.50 1.45 1.40 0.20 2.15 0.45 1.70 0.55 -0.50 0.10 -0.90 0.40 -0.90 0.65 0 0.25 -0.45 0.45 -1 0.45 -1.15 0 -1.15 0.05 -0.25 4.75 0.35 1.95 0.70 2.85 0.70 2.10 0.05 -1.30 0.20 -1.40 1.95 -1.25 1.70 0.15 1.85 0.30 2 1.85 0.10 0.95 -0.10 1.85 -0.40 2.05 -0.75 0.45 -0.10 3 0.80 3 0.40 0 0.85 0.35 1 0.75 0.25 0.60 0.80 0.70 2.70 0.45 2 -0.25 2.55 -0.15 3.45 0.75 0.70 0.70 1.70 1.05 3.05 1.05 1.95 0 2 -0.05 2 -1.75 0 -1.40 0.20 -1.75 1 -1.75 0.65 0 1 -0.35 1 -1 0 -0.65 0.35 -1 0.90 -1 1.15 0 4.95 2.45 6.55 4.20 l1.20 1.30 -1.80 0 c-1.20 0 -1.95 -0.30 -2.30 -0.85 -0.50 -0.85 -0.50 -0.80 -0.55 0.10 -0.05 0.95 -0.05 0.95 -0.70 0.10 -0.55 -0.70 -0.75 -0.75 -0.95 -0.25 -0.20 0.50 -0.50 0.40 -1.05 -0.30 -1.10 -1.40 -2.15 -0.35 -1.20 1.15 0.45 0.75 0.95 0.95 1.65 0.70 1.10 -0.35 4.15 -0.25 4.85 0.15 0.80 0.50 0.40 2.20 -0.50 2.20 -0.50 0 -1.05 -0.10 -1.20 -0.25z m-24.20 -8.15 c-0.90 -0.45 -2.10 -1.15 -2.70 -1.50 -0.75 -0.45 -1 -0.50 -0.75 -0.10 0.50 0.85 3.35 2.50 4.25 2.45 0.40 0 0.05 -0.40 -0.80 -0.85z m-3.70 -3.80 c0 -0.25 -3.90 -2.80 -4.30 -2.80 -0.45 0 3.45 2.90 3.95 2.95 0.20 0.05 0.35 -0.05 0.35 -0.15z"/>
  <path d="M9.75 26 c-0.15 -0.25 0.05 -0.50 0.45 -0.50 0.40 0 0.90 0.25 1.05 0.50 0.15 0.30 -0.05 0.50 -0.45 0.50 -0.40 0 -0.90 -0.20 -1.05 -0.50z"/>
  <path d="M21.50 19.25 c0 -1.60 -0.10 -1.75 -1.50 -1.75 -1.35 0 -1.50 -0.15 -1.50 -1.50 0 -1 -0.25 -1.50 -0.75 -1.50 -0.40 0 -0.75 -0.20 -0.75 -0.40 0 -0.20 -0.75 -0.65 -1.65 -1 -1.50 -0.55 -3.25 -2.85 -2.65 -3.45 0.10 -0.10 0.95 0.15 1.90 0.60 0.90 0.45 1.30 0.50 0.85 0.15 -0.45 -0.35 -0.70 -0.90 -0.60 -1.15 0.10 -0.30 -0.15 -1 -0.60 -1.50 -0.40 -0.55 -0.75 -0.75 -0.75 -0.40 0 0.30 0.25 0.75 0.50 0.90 0.60 0.40 0.65 1.25 0.05 1.25 -0.25 0 -1.05 -1.25 -1.80 -2.75 -0.70 -1.50 -1.50 -2.75 -1.75 -2.75 -0.20 0 -0.50 -0.45 -0.65 -1 -0.40 -1.55 0.45 -1.15 1.65 0.75 1.55 2.55 1.75 2.15 0.25 -0.60 -2 -3.75 -1.80 -3.80 1.85 -0.55 2.30 2.05 4.15 5.45 3.30 5.95 -0.45 0.30 -0.35 0.50 0.25 0.75 0.50 0.15 1.75 2.15 2.80 4.40 2.25 4.60 3.80 6.45 4.55 5.30 0.35 -0.55 0.50 -0.40 0.50 0.65 0 1.20 -0.15 1.35 -1.75 1.35 -1.65 0 -1.75 -0.10 -1.75 -1.75z"/>
  <path d="M10.15 6.75 c-0.45 -1.25 0.20 -1.45 0.85 -0.30 0.35 0.75 0.35 1.05 0 1.05 -0.30 0 -0.65 -0.35 -0.85 -0.75z"/>
 </g>
 <g fill="#825c42">
  <path d="M3.40 36.15 c-1.90 -1 -3.40 -2.10 -3.40 -2.45 0 -1.10 0.60 -0.85 3.70 1.30 2.45 1.75 2.95 1.90 3.80 1.35 0.55 -0.30 0.90 -0.90 0.75 -1.25 -0.10 -0.35 0.25 -0.80 0.85 -1.05 1.05 -0.40 0.95 -0.60 -2 -3.65 -2.15 -2.25 -3.05 -3.50 -2.80 -4.10 0.30 -0.85 1.10 -1 2.40 -0.50 1.05 0.40 1 1.20 -0.05 1.20 -0.60 0 0.10 1 2.20 3.15 3.45 3.55 4.35 4.95 3.90 6.35 -0.40 1.25 -1.75 1.30 -1.75 0.10 0 -0.50 -0.15 -1.05 -0.30 -1.25 -0.50 -0.45 -1.70 0.20 -1.70 0.95 0 0.55 -1.60 1.80 -2.10 1.65 -0.10 -0.05 -1.65 -0.85 -3.50 -1.80z"/>
  <path d="M12.75 34.05 c-0.30 -0.55 0.45 -1.15 0.95 -0.70 0.45 0.45 0.35 1.15 -0.15 1.15 -0.30 0 -0.60 -0.20 -0.80 -0.45z"/>
  <path d="M15.05 31.50 c0 -2.05 1.10 -3.10 2.65 -2.50 1.40 0.50 1.70 1.90 0.70 2.90 -1 1 -1.85 0.70 -1.55 -0.50 0.25 -1.10 0.20 -1.10 -0.80 0.10 l-1.05 1.25 0.05 -1.25z"/>
  <path d="M34.85 28.15 c-0.20 -0.15 -0.35 -1.05 -0.35 -2 0 -2.30 1.15 -2.15 2.45 0.35 l1.05 2 -1.40 0 c-0.80 0 -1.60 -0.15 -1.75 -0.35z"/>
  <path d="M23.90 21.15 c-1 -0.25 -1.25 -1.65 -0.30 -1.65 1.25 0 3.90 -3.65 4.70 -6.55 0.95 -3.45 1.70 -3.80 1.70 -0.90 0 2.05 -0.95 4.25 -2.70 6.30 -0.90 1.10 -0.90 1.10 0.40 1.45 2.20 0.55 1.60 1.70 -0.80 1.65 -1.20 -0.05 -2.55 -0.15 -3 -0.30z"/>
  <path d="M29.30 7.20 c-0.15 -0.45 -0.30 -1.35 -0.30 -2 0 -0.70 -0.25 -1.70 -0.55 -2.25 -0.65 -1.25 -0.15 -2.95 0.90 -2.95 0.55 0 0.70 0.30 0.45 1.30 -0.20 0.70 -0.20 1.70 -0.05 2.20 0.25 0.80 0.50 0.85 2.15 0.35 2.50 -0.70 3.10 -1.25 3.10 -2.65 0 -0.75 0.30 -1.20 0.75 -1.20 0.90 0 0.90 -0.05 0.20 1.90 -0.35 1.10 -0.95 1.65 -2 1.85 -0.95 0.25 -1.75 0.95 -2.55 2.30 -1.20 2.10 -1.65 2.35 -2.10 1.15z"/>
 </g>
 <g fill="#a8622d">
  <path d="M11.30 36.85 c0.25 -0.70 -0.85 -1.95 -1.60 -1.80 -1.45 0.25 -1.85 -0.15 -0.75 -0.75 l1.25 -0.70 -2.95 -3.05 c-3.45 -3.60 -2.80 -4.05 1.05 -0.65 3.25 2.80 5.05 5.80 4.15 6.90 -0.75 0.90 -1.50 0.90 -1.15 0.05z"/>
  <path d="M15 31.20 c0 -1.50 1.50 -2.70 2.80 -2.20 0.85 0.35 1 0.75 0.85 1.70 -0.30 1.35 -1.65 1.85 -1.65 0.55 0 -1 -0.50 -0.95 -1.30 0.15 -0.60 0.80 -0.65 0.80 -0.70 -0.20z"/>
  <path d="M33.50 27.50 c0 -0.75 0.35 -1 1.40 -1 0.80 0 1.85 0.45 2.35 1 0.90 1 0.85 1 -1.40 1 -2 0 -2.35 -0.15 -2.35 -1z"/>
  <path d="M23.50 20.25 c0 -0.40 0.25 -0.75 0.50 -0.75 0.30 0 1 -0.45 1.60 -1 0.60 -0.55 1.20 -0.85 1.35 -0.70 0.15 0.15 -0.15 0.60 -0.65 1 -0.85 0.60 -0.85 0.70 -0.15 1 1.45 0.55 0.95 1.20 -0.90 1.20 -1.20 0 -1.75 -0.25 -1.75 -0.75z"/>
  <path d="M27.50 16.70 c0 -1.25 1.30 -4.20 1.85 -4.20 1.05 0 0.75 1.75 -0.60 3.20 -0.70 0.75 -1.25 1.20 -1.25 1z"/>
 </g>
 <g fill="#3b748d">
  <path d="M33.30 28.05 c-0.15 -0.25 -3.15 -0.60 -6.60 -0.80 -5.05 -0.30 -6.50 -0.55 -7.20 -1.25 -0.75 -0.75 -1 -0.80 -1.60 -0.20 -0.55 0.60 -1 0.60 -2.45 0.15 -0.90 -0.35 -1.90 -0.90 -2.10 -1.30 -0.25 -0.35 -0.60 -0.55 -0.85 -0.40 -0.25 0.15 -1.05 0 -1.80 -0.35 l-1.35 -0.65 1.20 -0.30 c1.10 -0.25 1 -0.35 -0.80 -0.85 -1.10 -0.30 -3.30 -1.40 -4.90 -2.40 -2.30 -1.40 -2.80 -2 -2.60 -2.75 0.25 -0.70 -0.05 -1.10 -0.95 -1.55 -0.70 -0.30 -1.30 -0.75 -1.30 -1 0 -0.75 0.80 -0.45 2.85 1.05 1.15 0.80 2.20 1.35 2.35 1.20 0.35 -0.40 -3.70 -3.15 -4.55 -3.15 -0.35 0 -0.65 -0.55 -0.65 -1.25 0 -0.70 0.15 -1.25 0.35 -1.25 0.20 0 1.50 0.95 2.85 2.10 1.40 1.15 2.15 1.65 1.70 1.10 -1.30 -1.45 -1.10 -1.95 0.35 -1 1.60 1.05 2.10 1 1.10 -0.10 -0.65 -0.75 -0.70 -1.05 -0.20 -1.60 0.40 -0.45 0.45 -0.55 0 -0.30 -0.35 0.20 -0.90 -0.35 -1.40 -1.40 -0.95 -1.95 -2.10 -3.10 -2.60 -2.60 -0.20 0.15 0.15 0.65 0.75 1.10 0.60 0.40 1.10 1.10 1.10 1.55 0 1.20 -1.50 -0.20 -2.35 -2.20 -0.35 -0.90 -0.90 -1.65 -1.15 -1.65 -0.30 0 -0.50 -0.55 -0.50 -1.25 0 -1.65 0.65 -1.60 1.35 0.15 0.45 1.15 0.55 1.20 0.60 0.30 0.05 -0.55 -0.40 -1.50 -0.95 -2.10 -0.60 -0.60 -0.80 -1.10 -0.50 -1.10 0.25 0 0.50 -0.45 0.50 -1 0 -1.90 1.75 -1.10 3 1.35 1.70 3.30 1.70 3.35 1.05 2.95 -0.80 -0.50 -0.65 0.30 0.35 1.55 0.60 0.80 1.60 1.25 3.35 1.45 2.40 0.35 6.25 1.90 6.25 2.50 0 0.35 -4.55 -0.15 -5.70 -0.60 -1.05 -0.40 -0.35 2.25 0.75 2.95 0.55 0.35 0.95 1 0.95 1.45 0 0.65 0.40 0.90 1.30 0.90 1.30 0 1.35 0 1 2.90 -0.15 1.55 -0.10 3.15 0.15 3.55 0.30 0.45 1.65 0.80 3.65 0.95 2.15 0.15 3.35 0.50 3.75 1.05 0.40 0.65 1.25 0.80 3.45 0.70 2.40 -0.05 3 0.10 3.60 0.90 0.75 1.10 1.55 1.20 2.75 0.30 0.80 -0.55 0.80 -0.70 0.10 -1.60 -0.60 -0.80 -0.70 -0.85 -0.45 -0.10 0.40 1.15 -0.40 1.10 -1.45 -0.15 -0.95 -1.10 -1.15 -2.50 -0.35 -2.50 0.30 0 0.50 -0.35 0.50 -0.70 0 -1.15 2.40 -0.10 4.65 1.95 1.85 1.70 1.90 1.75 0.65 1.75 -1.55 0 -1.75 0.75 -0.30 1.15 0.70 0.15 1 0.70 1 1.55 0 1.25 -1.10 1.80 -1.70 0.85z m-22.35 -6.75 c-0.45 -0.40 -6.95 -3.80 -7.30 -3.80 -0.65 0 4.55 3.35 5.60 3.65 1.35 0.35 1.95 0.40 1.70 0.15z"/>
  <path d="M7.15 24.15 c-0.35 -0.10 -0.65 -0.45 -0.65 -0.75 0 -0.60 2.05 -0.30 2.05 0.35 0.05 0.60 -0.55 0.75 -1.40 0.40z"/>
  <path d="M20.25 19.15 c-0.55 -0.70 -1.30 -1.60 -1.60 -1.95 -0.35 -0.35 -0.65 -0.80 -0.65 -1.05 0 -0.20 -0.70 -1.10 -1.50 -2 -1.65 -1.80 -2.05 -3.45 -0.65 -2.95 0.75 0.30 0.75 0.25 0.10 -0.55 -0.40 -0.50 -1.05 -1.55 -1.35 -2.35 -0.35 -0.80 -0.75 -1.30 -0.90 -1.15 -0.15 0.15 -0.05 0.75 0.30 1.30 0.35 0.70 0.35 1.05 0 1.05 -0.25 0 -0.85 -0.85 -1.25 -1.85 -0.45 -1.05 -1.25 -2.40 -1.80 -2.95 -0.60 -0.60 -0.95 -1.50 -0.85 -2 0.10 -0.65 0.60 -0.25 1.75 1.60 0.90 1.35 1.65 2.20 1.65 1.95 0 -0.30 -0.55 -1.35 -1.25 -2.35 -0.70 -1 -1.25 -2.05 -1.25 -2.35 0 -0.80 1.95 0 2.25 1 0.20 0.50 0.60 0.90 0.90 0.80 0.70 -0.10 6.45 11.15 6.10 12.05 -0.10 0.30 -0.05 0.60 0.20 0.60 0.25 0 0.95 0.80 1.60 1.75 0.65 0.95 1.50 1.75 1.85 1.75 0.30 0 0.60 0.25 0.60 0.50 0 0.30 -0.75 0.50 -1.65 0.50 -1.15 0 -1.90 -0.35 -2.60 -1.35z"/>
  <path d="M3 11.50 c0 -0.25 0.45 -0.50 1 -0.50 0.55 0 1 0.25 1 0.50 0 0.30 -0.45 0.50 -1 0.50 -0.55 0 -1 -0.20 -1 -0.50z"/>
 </g>
 <g fill="#518098">
  <path d="M33.30 27.70 c-0.15 -0.45 -0.60 -0.70 -1 -0.55 -0.40 0.15 -1.35 0.10 -2.15 -0.15 -0.75 -0.20 -1.05 -0.45 -0.60 -0.45 0.45 -0.05 1.10 -0.40 1.45 -0.85 0.55 -0.65 0.50 -0.95 -0.50 -1.85 -0.70 -0.60 -0.90 -0.70 -0.50 -0.20 0.35 0.45 0.50 1.05 0.30 1.25 -0.20 0.20 -0.65 -0.05 -1 -0.55 -1.40 -1.90 -2.30 -0.65 -1.30 1.85 0.50 1.35 -0.25 1.85 -1.30 0.80 -0.25 -0.25 -1.05 -0.50 -1.70 -0.50 -4.25 0.05 -4.80 -0.05 -5.60 -1 -1 -1.20 -1.40 -1.25 -1.40 -0.20 0 0.65 -0.35 0.75 -1.60 0.50 -0.85 -0.15 -1.95 -0.65 -2.40 -1.05 -0.45 -0.40 -1.25 -0.75 -1.80 -0.75 -0.50 0 -1.30 -0.25 -1.70 -0.55 -0.55 -0.40 -0.45 -0.45 0.50 -0.15 1.05 0.30 1.15 0.25 0.65 -0.40 -0.35 -0.40 -0.50 -0.85 -0.35 -1.05 0.15 -0.15 -0.80 -0.90 -2.15 -1.65 -2.80 -1.60 -4.30 -3 -3.90 -3.65 0.15 -0.25 -1 -1.20 -2.50 -2.05 -1.50 -0.85 -2.75 -1.90 -2.75 -2.30 0 -1.15 1 -0.80 3.30 1.05 2.40 2 3.35 2.30 1.90 0.65 -0.85 -0.95 -0.70 -0.95 1.45 0.30 2.90 1.65 3.45 1.55 1.05 -0.20 -1.70 -1.25 -2.30 -2.35 -1 -1.85 0.50 0.20 0.60 0 0.45 -0.70 -0.20 -0.70 -0.55 -0.90 -1.20 -0.70 -0.70 0.25 -0.95 0.05 -0.95 -0.70 0 -0.55 -0.20 -1.10 -0.45 -1.30 -0.30 -0.15 -1 -1.30 -1.60 -2.50 -0.65 -1.25 -1.55 -2.70 -2.05 -3.25 -0.50 -0.55 -0.70 -1 -0.40 -1 0.25 0 0.50 -0.45 0.50 -1 0 -2.50 2.85 0.05 3.20 2.85 0.10 0.80 0.35 1.80 0.55 2.30 0.20 0.50 0.15 0.85 -0.20 0.85 -0.30 0 -0.55 0.25 -0.55 0.55 0 0.25 0.40 0.45 0.90 0.40 0.45 -0.10 1.55 0.05 2.45 0.25 1.35 0.30 1.60 0.65 1.90 2.30 0.35 2.15 2.75 5 4.20 5 0.50 0 1.45 0.45 2.10 0.95 0.95 0.75 1.20 1.50 1.30 3.60 0.05 1.50 0.10 2.85 0.15 3.10 0 0.20 0.85 0.35 1.90 0.35 1.05 0 2.10 0.20 2.35 0.45 0.60 0.55 3.25 0.15 3.25 -0.50 0 -0.25 0.70 -0.45 1.50 -0.45 1.35 0 1.50 -0.15 1.50 -1.50 0 -0.95 0.25 -1.50 0.70 -1.50 1.30 0 4.05 1.50 6.20 3.40 l2.10 1.90 -0.75 1.60 c-0.90 1.75 -1.95 2.10 -2.45 0.80z"/>
  <path d="M7 23.50 c0 -0.25 0.35 -0.50 0.75 -0.50 0.40 0 0.75 0.25 0.75 0.50 0 0.30 -0.35 0.50 -0.75 0.50 -0.40 0 -0.75 -0.20 -0.75 -0.50z"/>
  <path d="M7.65 21.25 c-0.85 -0.35 -2.05 -1.15 -2.60 -1.70 -0.60 -0.60 -1.10 -1 -1.15 -0.95 -0.50 0.35 -1.80 -1.05 -1.75 -1.85 0.05 -0.60 -0.35 -1.20 -1 -1.50 -1.10 -0.45 -1.55 -1.25 -0.75 -1.25 0.70 0 4.10 2.55 4.10 3.05 0 0.30 -0.35 0.45 -0.75 0.25 -0.40 -0.15 -0.75 -0.20 -0.75 -0.10 0 0.40 4.75 3.45 6.35 4.05 1.15 0.40 1.50 0.70 0.90 0.70 -0.55 0 -1.70 -0.30 -2.60 -0.70z"/>
  <path d="M20.70 19.80 c-0.15 -0.65 -0.70 -1.30 -1.25 -1.45 -0.55 -0.15 -0.95 -0.70 -0.95 -1.30 0 -0.60 -0.20 -1.05 -0.50 -1.05 -0.25 0 -0.50 -0.80 -0.50 -1.75 0 -0.95 -0.20 -1.75 -0.50 -1.75 -0.25 0 -0.50 -0.25 -0.50 -0.60 0 -0.30 0.70 0.05 1.55 0.90 0.90 0.80 1.40 1.05 1.10 0.55 -0.25 -0.45 -1.15 -1.35 -2 -2 -1 -0.65 -2.45 -2.80 -3.85 -5.50 -1.25 -2.45 -2.30 -4.50 -2.30 -4.60 0 -0.65 1.90 0.55 2.30 1.40 0.25 0.60 0.75 1.05 1.05 1 0.30 -0.05 1.50 1.85 2.70 4.25 3 6 3.50 7.20 2.95 6.85 -1.05 -0.65 -0.40 0.60 1.40 2.65 1.05 1.15 2.20 2.10 2.50 2.10 0.35 0 0.60 0.35 0.60 0.75 0 0.50 -0.55 0.75 -1.75 0.75 -1.40 0 -1.80 -0.20 -2.05 -1.20z"/>
  <path d="M12.50 11.25 c0 -0.40 -0.20 -0.75 -0.50 -0.75 -0.25 0 -0.50 -0.35 -0.50 -0.75 0 -1 0.25 -0.95 2.55 0.35 2.40 1.35 2.45 1.90 0.20 1.90 -1.20 0 -1.75 -0.25 -1.75 -0.75z"/>
  <path d="M3.15 9.90 c-0.90 -1.20 -1.20 -1.90 -0.80 -1.90 0.50 0 1.80 2 1.50 2.30 -0.10 0.15 -0.45 -0.05 -0.70 -0.40z"/>
  <path d="M13.65 9.10 c-0.30 -0.20 -0.70 -0.95 -0.90 -1.70 -0.20 -0.70 -0.90 -1.80 -1.55 -2.45 -0.65 -0.60 -1.20 -1.60 -1.20 -2.15 0 -0.90 0.15 -0.85 1.05 0.45 1.05 1.55 3.55 6.25 3.35 6.25 -0.10 0 -0.40 -0.20 -0.75 -0.40z"/>
  <path d="M0 4.70 c0 -0.70 0.20 -1.15 0.50 -0.95 0.30 0.15 0.50 0.75 0.50 1.30 0 0.50 -0.20 0.95 -0.50 0.95 -0.25 0 -0.50 -0.60 -0.50 -1.30z"/>
 </g>
 <g fill="#837d78">
  <path d="M4.85 27.65 c-0.20 -0.15 -0.35 -0.75 -0.35 -1.25 0 -1 1.30 -1.20 2.50 -0.35 0.55 0.40 0.40 0.45 -0.75 0.20 -1.20 -0.25 -1.40 -0.20 -0.85 0.30 0.30 0.35 0.60 0.85 0.60 1.05 0 0.50 -0.70 0.55 -1.15 0.05z"/>
  <path d="M34.35 27.15 c-0.20 -0.15 -0.35 -1.10 -0.35 -2.10 0 -1.35 0.15 -1.60 0.50 -1.05 0.25 0.40 0.75 0.75 1.10 0.75 0.35 0 0.65 0.35 0.65 0.75 0 0.40 0.20 1.05 0.40 1.40 0.30 0.40 0.05 0.60 -0.80 0.60 -0.65 0 -1.35 -0.15 -1.50 -0.35z"/>
  <path d="M30.90 26.15 c1.70 -0.70 -0.30 -3.30 -2.20 -2.85 -0.70 0.20 -1.20 0.10 -1.20 -0.25 0 -0.30 0.95 -0.55 2.25 -0.55 l2.25 0 0 2 c0 1.60 -0.20 2 -0.85 1.95 -0.55 0 -0.65 -0.15 -0.25 -0.30z"/>
  <path d="M29.25 24.55 c-0.30 -0.55 0.45 -1.15 0.95 -0.70 0.45 0.45 0.35 1.15 -0.15 1.15 -0.30 0 -0.60 -0.20 -0.80 -0.45z"/>
  <path d="M29 8.25 c0 -1.40 0.20 -1.75 0.95 -1.75 0.85 0 0.90 0.15 0.40 1.75 -0.30 0.95 -0.70 1.75 -0.95 1.75 -0.20 0 -0.40 -0.80 -0.40 -1.75z"/>
  <path d="M29.20 4.35 c-0.05 -0.85 0.05 -1.20 0.15 -0.75 0.15 0.65 0.55 0.80 1.75 0.55 1.45 -0.30 1.45 -0.25 0.85 0.80 -0.40 0.55 -1.15 1.05 -1.70 1.05 -0.80 0 -1 -0.35 -1.05 -1.65z"/>
 </g>
 <g fill="#ca793c">
  <path d="M11.35 35.80 c-0.25 -0.60 -0.70 -0.85 -1.35 -0.65 -1.30 0.35 -1.75 -0.45 -0.65 -1.05 0.75 -0.45 0.65 -0.75 -1.10 -2.70 -1.05 -1.15 -2.35 -2.45 -2.85 -2.80 -0.50 -0.35 -0.90 -1.10 -0.90 -1.65 0 -0.70 1 0.10 3.75 2.90 3.25 3.30 3.80 4.10 3.65 5.40 -0.10 1.20 -0.20 1.35 -0.55 0.55z"/>
  <path d="M15.60 30.50 c0.10 -0.85 0.45 -1.25 1.15 -1.25 0.55 0 0.95 0.30 0.90 0.65 -0.10 0.30 0.10 0.60 0.35 0.60 0.30 0 0.50 0.25 0.50 0.50 0 0.90 -1.50 0.55 -1.50 -0.35 -0.05 -0.80 -0.10 -0.80 -0.80 0.10 -0.75 1 -0.75 0.95 -0.60 -0.25z"/>
  <path d="M33.50 27.45 c-0.40 -0.70 -0.20 -0.90 1 -1.05 1.35 -0.20 3 0.75 3 1.70 0 0.75 -3.60 0.15 -4 -0.65z"/>
  <path d="M28.90 3.75 c-0.65 -1.45 -0.65 -1.75 -0.10 -1.75 0.40 0 0.70 0.50 0.70 1.25 0 0.80 0.30 1.25 0.75 1.25 0.40 0 0.75 0.25 0.75 0.50 0 1.15 -1.35 0.35 -2.10 -1.25z"/>
 </g>
 <g fill="#a87f5a">
  <path d="M11.30 36.75 c0.45 -1.05 -0.75 -2.40 -1.55 -1.75 -0.30 0.25 -0.75 0.35 -0.90 0.15 -0.20 -0.15 0.05 -0.55 0.50 -0.90 0.75 -0.55 0.75 -0.70 0 -1.80 -1.30 -1.80 -1 -2.15 0.65 -0.95 1.90 1.35 3.25 4.35 2.45 5.30 -0.75 0.95 -1.50 0.90 -1.15 -0.05z"/>
  <path d="M2.65 35.60 c-1.45 -0.70 -2.65 -1.60 -2.65 -1.95 0 -0.90 0.50 -0.80 2.25 0.30 2.20 1.45 4.05 3.05 3.50 3 -0.25 0 -1.70 -0.60 -3.10 -1.35z"/>
  <path d="M15 31.70 c0 -0.55 0.30 -1.40 0.65 -1.95 0.65 -0.85 0.75 -0.85 1.80 0.20 0.65 0.65 1 1.45 0.85 1.85 -0.45 1.15 -1.20 0.80 -1.40 -0.65 l-0.15 -1.40 -0.85 1.50 c-0.70 1.25 -0.85 1.35 -0.90 0.45z"/>
  <path d="M4.85 27.65 c-0.20 -0.15 -0.35 -0.75 -0.35 -1.35 0 -1 0 -1 0.75 0 0.40 0.50 0.75 1.10 0.75 1.35 0 0.45 -0.70 0.45 -1.15 0z"/>
  <path d="M34 25.70 c0 -1.95 0.45 -1.90 2 0.30 l1.05 1.50 -1.50 0 c-1.45 0 -1.55 -0.15 -1.55 -1.80z"/>
  <path d="M23.50 20 c0 -0.60 1.70 -0.60 3.50 0 1 0.35 0.80 0.40 -1.10 0.45 -1.35 0.05 -2.40 -0.15 -2.40 -0.45z"/>
  <path d="M26.30 17.65 c1.25 -1.35 2.70 -5.40 2.70 -7.50 0 -0.65 0.25 -1.15 0.50 -1.15 0.95 0 0.55 4.80 -0.50 6.15 -0.55 0.70 -1 1.60 -1 2.05 0 0.40 -0.45 1 -0.95 1.30 -1.70 0.90 -2.05 0.55 -0.75 -0.85z"/>
  <path d="M29.15 5.90 c0.10 -1.45 0.30 -1.65 1.70 -1.75 l1.55 -0.05 -1 1.70 c-1.30 2.20 -2.45 2.25 -2.25 0.10z"/>
  <path d="M28.60 2.85 c-0.55 -0.65 -0.55 -0.95 0 -1.80 1.20 -1.95 1.70 -1.20 0.95 1.40 -0.30 1.05 -0.40 1.10 -0.95 0.40z"/>
  <path d="M35.15 1.50 c0.30 -0.80 0.75 -1.50 0.95 -1.50 0.20 0 0.10 0.70 -0.15 1.50 -0.30 0.85 -0.75 1.50 -0.95 1.50 -0.25 0 -0.15 -0.65 0.15 -1.50z"/>
 </g>
 <g fill="#528eaa">
  <path d="M33.35 27.35 c-0.15 -0.45 -0.85 -0.60 -1.95 -0.50 -1.55 0.20 -1.60 0.15 -0.75 -0.55 0.60 -0.45 0.85 -1.05 0.65 -1.70 -0.40 -1.20 -1.35 -1.65 -2.80 -1.25 -0.95 0.25 -1.05 0.55 -0.85 1.95 0.30 1.75 -0.05 2.10 -1.05 1.10 -0.35 -0.35 -0.60 -0.40 -0.60 -0.20 0 0.25 -0.35 0.15 -0.75 -0.20 -0.60 -0.50 -0.90 -0.50 -1.50 0 -0.85 0.70 -3.40 0.25 -4.30 -0.80 -0.75 -0.90 -1.45 -0.90 -1.45 0.05 0 1.20 -0.95 0.90 -2.35 -0.80 -0.90 -1.05 -1.40 -1.35 -1.65 -0.90 -0.30 0.45 -0.75 0.35 -1.70 -0.40 -0.70 -0.55 -1.15 -1.15 -1 -1.25 0.35 -0.40 -0.70 -1.10 -4.65 -3.15 -2 -1.05 -4 -2.30 -4.45 -2.80 -0.50 -0.55 -1.15 -0.95 -1.55 -0.95 -0.35 0 -0.65 -0.20 -0.65 -0.50 0 -0.85 0.75 -0.60 2.90 1 1.15 0.80 2.20 1.30 2.30 1.05 0.15 -0.25 -0.95 -1.20 -2.45 -2.10 -1.50 -0.90 -2.75 -1.85 -2.75 -2.05 0 -0.95 1.80 -0.25 3.80 1.40 2.25 1.80 2.90 1.85 1.35 0.05 -0.80 -0.85 -0.70 -0.85 1.10 0.15 1.10 0.60 2.30 1.35 2.65 1.60 0.35 0.30 0.75 0.40 0.90 0.30 0.15 -0.15 -0.35 -0.75 -1.05 -1.30 -0.75 -0.60 -1.20 -1.25 -1.05 -1.50 0.15 -0.25 0 -1.05 -0.35 -1.80 -0.60 -1.30 -1.35 -1.75 -1.35 -0.75 0 0.25 -0.25 0.35 -0.50 0.20 -0.30 -0.20 -0.40 -0.50 -0.25 -0.70 0.10 -0.25 -0.20 -0.80 -0.75 -1.30 -0.55 -0.50 -1 -1.10 -1 -1.35 0 -0.25 -0.55 -1.30 -1.25 -2.40 -1.60 -2.55 -1.60 -3.50 -0.05 -3.50 1.15 0 1.95 1.10 1.75 2.30 -0.15 1.05 0.15 1.70 1.50 3.15 1.15 1.25 1.85 1.55 3.45 1.55 2.05 0 7 2.25 8.85 4.05 0.95 0.95 0.95 0.95 -0.85 0.95 -1.35 0 -1.90 -0.25 -2.15 -0.95 -0.20 -0.60 -0.85 -1 -2 -1.15 -1.50 -0.15 -1.75 -0.05 -1.75 0.85 0 1.60 0.80 2.40 2.85 3 2.35 0.65 3.25 2.25 3 5.15 -0.25 2.10 -0.20 2.10 1.45 2.10 1.35 0 1.70 -0.20 1.70 -1 0 -0.55 0.35 -1 0.75 -1 0.40 0 0.75 -0.35 0.75 -0.75 0 -0.40 -0.45 -0.75 -1 -0.75 -0.80 0 -1 -0.35 -1 -1.80 l0 -1.75 1.50 1.65 c0.85 0.90 1.50 1.80 1.50 2 0 0.25 0.70 0.40 1.50 0.40 1.15 0 1.50 0.20 1.50 1 0 0.65 -0.35 1 -1 1 -0.75 0 -1 0.35 -1 1.25 0 0.70 0.25 1.25 0.50 1.25 0.30 0 0.50 -0.35 0.50 -0.80 0 -0.65 0.40 -0.75 2 -0.60 1.40 0.10 2 0 2 -0.45 0 -0.35 0.30 -0.65 0.70 -0.65 0.40 0 1.10 -0.15 1.55 -0.30 1.20 -0.50 4.50 3.20 4.65 5.20 0.10 1.30 -0.05 1.60 -0.85 1.60 -0.50 0 -1.05 -0.30 -1.20 -0.65z m-18.90 -9.10 c-0.40 -0.40 -1.45 -0.95 -2.30 -1.20 -1.30 -0.35 -1.55 -0.35 -1.30 0.25 0.25 0.70 0.75 0.90 2.30 0.75 0.45 -0.05 0.85 0.15 0.85 0.40 0 0.30 0.25 0.55 0.60 0.55 0.40 0 0.35 -0.25 -0.15 -0.75z m-6.95 -2 c-0.35 -0.45 -0.75 -0.65 -0.90 -0.50 -0.15 0.10 0.05 0.55 0.40 1 0.35 0.45 0.75 0.65 0.90 0.50 0.15 -0.10 -0.05 -0.55 -0.40 -1z"/>
  <path d="M5.15 19.75 c-1.45 -0.95 -2.65 -2 -2.65 -2.30 0 -0.30 0.70 0 1.55 0.65 0.85 0.65 2.35 1.65 3.35 2.25 1 0.65 1.50 1.15 1.10 1.10 -0.40 0 -1.95 -0.75 -3.35 -1.70z"/>
  <path d="M17.15 11.45 c-1.20 -0.85 -2.15 -1.90 -2.15 -2.35 0 -0.45 -0.35 -1.30 -0.75 -1.80 -0.40 -0.55 -0.75 -1.70 -0.75 -2.50 0.05 -1.30 0.10 -1.40 0.55 -0.65 0.30 0.45 0.75 0.70 1.05 0.55 0.30 -0.20 0.40 -0.15 0.25 0.15 -0.20 0.30 0 0.65 0.40 0.85 0.40 0.15 0.75 0.65 0.75 1.10 0 0.50 0.70 2.05 1.50 3.55 0.85 1.45 1.45 2.65 1.40 2.65 -0.10 -0.05 -1.10 -0.70 -2.25 -1.55z"/>
  <path d="M2.65 9.25 c-0.45 -1.20 0.05 -1.35 0.75 -0.25 0.40 0.65 0.40 1 0.10 1 -0.30 0 -0.65 -0.35 -0.85 -0.75z"/>
  <path d="M13.65 8.90 c-0.25 -0.35 -0.75 -1.35 -1.10 -2.25 -0.35 -0.85 -1.05 -1.95 -1.60 -2.45 -0.50 -0.45 -0.95 -1.10 -0.95 -1.40 0.05 -0.85 1.95 1.70 3.30 4.30 1.20 2.35 1.30 3.05 0.35 1.80z"/>
  <path d="M12.10 3.50 c-0.80 -1.30 -0.75 -1.50 0.15 -1.50 0.45 0 0.75 0.45 0.75 1.25 0 1.50 -0.10 1.55 -0.90 0.25z"/>
 </g>
 <g fill="#629db9">
  <path d="M33.50 27 c-0.45 -0.80 -0.75 -0.90 -1.50 -0.50 -0.90 0.45 -0.95 0.40 -0.70 -0.90 0.35 -1.80 -0.70 -2.75 -2.50 -2.30 -0.70 0.15 -1.30 0.55 -1.30 0.80 0 0.30 -0.35 0.35 -0.80 0.20 -0.55 -0.20 -0.70 -0.05 -0.50 0.60 0.25 0.80 0 0.90 -1.65 0.90 -1.15 -0.05 -2.35 -0.40 -2.95 -0.95 -0.65 -0.60 -1.10 -0.75 -1.35 -0.40 -0.15 0.30 -0.05 0.55 0.30 0.55 0.35 0 0.50 0.15 0.30 0.30 -0.15 0.15 -0.80 -0.05 -1.45 -0.50 -1.55 -1.10 -2.35 -1 -2.05 0.20 0.15 0.55 0 1 -0.30 1 -0.30 0 -0.55 -0.30 -0.55 -0.65 0 -1.05 -2 -2.40 -3 -2.10 -0.85 0.25 -1.70 -0.45 -1.75 -1.45 0 -0.20 -1.95 -1.45 -4.35 -2.75 -2.35 -1.25 -4.75 -2.70 -5.25 -3.20 -0.55 -0.45 -1.25 -0.85 -1.55 -0.85 -0.35 0 -0.60 -0.25 -0.60 -0.50 0 -0.60 3.75 1.20 4.25 2 0.40 0.65 1.25 0.65 1.25 0.05 0 -0.30 -1.25 -1.25 -2.75 -2.15 -1.50 -0.90 -2.75 -1.95 -2.75 -2.25 0 -1.05 0.80 -0.75 3.45 1.35 2.30 1.85 3.45 2.15 1.95 0.55 -0.35 -0.35 0.35 -0.15 1.60 0.45 1.25 0.65 3.15 2.10 4.30 3.25 1.10 1.15 2.50 2.30 3.15 2.50 1.05 0.30 1.10 0.20 0.80 -0.85 -0.50 -1.60 -1.25 -2.30 -2.95 -2.60 -2.45 -0.45 -4.90 -4.25 -3.15 -4.95 0.30 -0.15 0.10 -0.30 -0.50 -0.30 -0.95 -0.05 -1.15 -0.35 -1.15 -1.65 0 -1.15 0.15 -1.45 0.45 -0.95 0.35 0.55 0.45 0.55 0.65 0 0.20 -0.55 0.60 -0.55 2.35 0 1.85 0.55 2.05 0.70 1.30 1.20 -0.60 0.50 -0.75 1.10 -0.45 2.75 0.30 2 0.40 2.10 2.10 2.10 1.05 0 2 0.35 2.40 0.90 0.85 1.10 0.90 5.10 0.10 5.15 -0.35 0.05 0.15 0.25 1.10 0.45 1.05 0.25 1.80 0.25 1.90 -0.05 0.10 -0.25 0.95 -0.45 1.90 -0.45 1.45 0 1.70 0.15 1.70 1.20 0 0.65 0.30 1.30 0.65 1.45 0.60 0.20 3.35 -2.40 3.35 -3.20 0 -0.65 1.30 -0.55 3.30 0.30 1.45 0.60 1.70 0.90 1.45 1.90 -0.30 1.10 -0.10 1.25 1.40 1.55 1.75 0.35 2.35 1.05 2.35 2.85 0 1.25 -1.30 1.20 -2 -0.05z m-24 -9 c-1.50 -1.30 -2.85 -2.20 -2.95 -1.90 -0.10 0.30 0.15 0.70 0.50 0.95 0.40 0.20 1.60 1.05 2.70 1.85 2.95 2.25 2.85 1.90 -0.25 -0.90z"/>
  <path d="M5.35 19.70 c-1.60 -1 -2.80 -1.90 -2.65 -2.05 0.15 -0.20 4.90 2.80 5.75 3.65 0.65 0.60 -0.55 0 -3.10 -1.60z"/>
  <path d="M17.35 14.15 c-0.20 -0.15 -0.35 -0.75 -0.35 -1.30 0 -0.95 0.05 -1 1 -0.10 0.55 0.50 1 1.10 1 1.35 0 0.50 -1.20 0.55 -1.65 0.05z"/>
  <path d="M17.15 11.35 c-1.20 -0.85 -2.15 -1.90 -2.15 -2.35 0 -0.45 -0.20 -1 -0.40 -1.30 -0.25 -0.25 -1.15 -1.75 -2 -3.30 -1.10 -2 -1.40 -2.90 -0.95 -2.90 0.75 0 4.65 5.50 4 5.50 -0.25 0 0 0.25 0.50 0.55 0.45 0.25 0.85 0.95 0.85 1.45 0 0.55 0.20 1 0.40 1 0.20 0 0.80 0.70 1.25 1.50 0.50 0.85 0.85 1.50 0.75 1.45 -0.10 0 -1.10 -0.75 -2.25 -1.60z"/>
  <path d="M13.50 10.75 c0 -0.65 0.20 -0.70 1.15 -0.20 1.65 0.85 1.65 0.95 0.20 0.95 -0.90 0 -1.35 -0.25 -1.35 -0.75z"/>
  <path d="M4.20 7.35 c-1.10 -1.25 -2.40 -3.05 -2.95 -4 -0.90 -1.65 -0.90 -1.80 -0.05 -2.65 0.75 -0.70 0.95 -0.75 1.35 -0.15 1.15 1.70 1.45 2.40 1.20 3.05 -0.15 0.40 0.40 1.65 1.25 2.85 2.20 3 1.60 3.65 -0.80 0.90z"/>
  <path d="M12.50 6.60 c0 -0.30 -0.60 -1.25 -1.30 -2.10 -0.75 -0.85 -1.20 -1.65 -1.10 -1.80 0.15 -0.10 0.90 0.70 1.65 1.80 0.75 1.10 1.25 2.15 1.05 2.35 -0.15 0.15 -0.30 0.05 -0.30 -0.25z"/>
 </g>
 <g fill="#c3966d">
  <path d="M2.40 35.35 c-1.30 -0.60 -2.40 -1.40 -2.40 -1.70 0 -0.35 0.10 -0.65 0.25 -0.65 0.50 0 4.15 2.45 4.50 3 0.40 0.60 0.50 0.65 -2.35 -0.65z"/>
  <path d="M9.65 33 c-0.10 -1.10 0.05 -1.40 0.65 -1.15 0.65 0.25 1.70 1.70 1.70 2.35 0 0.15 -0.50 0.30 -1.10 0.30 -0.90 0 -1.15 -0.30 -1.25 -1.50z"/>
  <path d="M17 31.85 c0 -0.95 0.80 -1.55 1.20 -0.90 0.15 0.25 -0.05 0.70 -0.45 1.05 -0.60 0.50 -0.75 0.50 -0.75 -0.15z"/>
  <path d="M15.75 30.50 c0.45 -1.50 0.65 -1.75 1.05 -1.35 0.15 0.15 -0.10 0.80 -0.55 1.45 l-0.85 1.15 0.35 -1.25z"/>
  <path d="M5.35 28.10 c-0.95 -1.05 -1.10 -1.60 -0.40 -1.60 0.25 0 0.80 0.55 1.25 1.25 0.95 1.45 0.35 1.70 -0.85 0.35z"/>
  <path d="M33.80 27.20 c-0.40 -1.05 -0.40 -1.05 0.65 -1.35 0.90 -0.20 2.55 0.95 2.55 1.80 0 0.75 -2.90 0.30 -3.20 -0.45z"/>
  <path d="M23.50 20.80 c0 -1.10 0.85 -1.40 2.50 -1.05 2.30 0.50 1.90 1.75 -0.50 1.75 -1.40 0 -2 -0.20 -2 -0.70z"/>
  <path d="M28.75 13.15 c0.20 -1.05 0.35 -2.30 0.30 -2.75 0 -0.50 0.25 -0.90 0.50 -0.90 0.30 0 0.40 0.90 0.25 2.15 -0.10 1.15 -0.25 2.40 -0.25 2.75 -0.05 0.30 -0.30 0.60 -0.60 0.60 -0.40 0 -0.45 -0.60 -0.20 -1.85z"/>
  <path d="M30 5.55 c0 -0.85 1.35 -1.85 1.85 -1.35 0.30 0.30 -1 2.30 -1.45 2.30 -0.25 0 -0.40 -0.45 -0.40 -0.95z"/>
  <path d="M28.40 2.20 c-0.40 -0.35 0.65 -2.20 1.20 -2.20 0.60 0 0.50 0.70 -0.25 1.70 -0.35 0.45 -0.80 0.70 -0.95 0.50z"/>
 </g>
 <g fill="#e7984c">
  <path d="M11.25 35.90 c-0.35 -0.85 -0.85 -1.10 -1.75 -1 -1.10 0.10 -1.15 0.05 -0.35 -0.40 0.45 -0.30 0.85 -0.75 0.85 -1 0 -0.25 -1.25 -1.80 -2.80 -3.50 -1.55 -1.65 -2.75 -3.15 -2.60 -3.25 0.30 -0.30 6.90 6.35 7.65 7.75 0.60 1.15 0.50 2.50 -0.20 2.50 -0.15 0 -0.55 -0.50 -0.80 -1.10z"/>
  <path d="M15 31.60 c0 -0.95 0.95 -2.60 1.50 -2.60 0.75 0 0.60 0.60 -0.50 2 -0.55 0.70 -1 0.95 -1 0.60z"/>
  <path d="M33.75 26.90 c-0.70 -1.05 -0.70 -1.15 0 -1.30 1.20 -0.25 2.10 0.20 2.75 1.35 0.45 0.95 0.40 1.05 -0.70 1.05 -0.70 0 -1.60 -0.45 -2.05 -1.10z"/>
 </g>
 <g fill="#71a9c6">
  <path d="M33.65 26.65 c-0.15 -0.35 -0.55 -0.65 -0.95 -0.65 -0.35 0 -0.95 -0.60 -1.30 -1.35 -0.50 -1.05 -1.05 -1.40 -2.15 -1.40 -1.85 0 -3.25 0.75 -3.25 1.75 0 0.80 -2 0.95 -3.65 0.25 -0.75 -0.30 -0.90 -0.75 -0.65 -1.95 l0.30 -1.55 -1.20 1.50 c-1.25 1.50 -1.25 1.50 -2.75 0.65 -0.85 -0.45 -1.55 -0.65 -1.55 -0.40 0 0.30 -0.35 0.50 -0.75 0.50 -0.40 0 -0.75 -0.25 -0.75 -0.50 0 -0.30 -0.60 -0.80 -1.35 -1.10 -0.80 -0.35 -2.05 -1.05 -2.90 -1.60 -0.80 -0.55 -2.80 -1.65 -4.40 -2.40 -2.80 -1.35 -6.45 -3.90 -5.50 -3.90 0.25 0 1.25 0.55 2.25 1.25 2 1.35 2.40 1.50 2.40 0.80 0 -0.25 -1 -1.10 -2.25 -1.90 -2.30 -1.40 -2.80 -2.15 -1.55 -2.15 0.35 0 1.75 1.05 3.10 2.30 3.35 3.10 6.80 5.75 7.15 5.45 0.10 -0.15 -0.30 -0.65 -1 -1.10 -1.95 -1.40 -5.20 -4.55 -4.95 -4.85 0.40 -0.40 4.45 2.35 4.75 3.20 0.35 0.90 2.10 2.20 3.65 2.70 0.90 0.30 1.10 0.20 1.10 -0.80 -0.05 -1.65 -1 -2.65 -2.75 -2.80 -2.30 -0.20 -2.90 -0.55 -2.55 -1.40 0.20 -0.50 -0.05 -1.10 -0.55 -1.50 -0.75 -0.55 -0.80 -0.75 -0.20 -1.15 0.90 -0.55 0.25 -1.55 -1 -1.55 -0.70 0 -0.95 -0.35 -0.95 -1.30 0 -1.25 0.10 -1.30 2.10 -1 2.30 0.35 4.30 1.25 2.85 1.30 -0.55 0 -0.70 0.40 -0.55 1.45 0.20 1.40 2.10 3.80 2.10 2.65 0 -0.30 0.75 -0.65 1.65 -0.75 l1.60 -0.20 -1.60 -0.05 c-1.40 -0.10 -1.65 -0.30 -1.65 -1.35 0 -0.70 0.15 -1.25 0.40 -1.25 0.90 0 4.15 2.65 4.85 4 1 1.90 0.95 2 -0.60 2 -1.05 0 -1.20 0.15 -0.75 0.60 0.80 0.80 0.75 3.75 0 4.05 -0.35 0.15 -0.15 0.30 0.50 0.30 0.60 0.05 1.10 -0.15 1.10 -0.45 0 -0.25 0.35 -0.50 0.75 -0.50 0.45 0 0.75 -0.45 0.75 -1.25 0 -1.50 0.75 -1.65 1.50 -0.25 0.40 0.70 0.85 0.95 1.50 0.75 0.50 -0.15 1.25 0.05 1.65 0.50 0.50 0.50 1.60 0.75 2.95 0.70 1.35 -0.05 2.70 0.25 3.50 0.75 1.35 0.85 3.90 4.20 3.90 5.10 0 0.70 -2.05 0.60 -2.35 -0.15z m-8.15 -4.40 c0 -0.40 -0.35 -0.75 -0.75 -0.75 -0.40 0 -0.75 0.35 -0.75 0.75 0 0.40 0.35 0.75 0.75 0.75 0.40 0 0.75 -0.35 0.75 -0.75z"/>
  <path d="M16.50 10.85 c-0.40 -0.35 -1.30 -1.75 -2 -3.10 -0.70 -1.35 -1.75 -3.35 -2.40 -4.35 -1.65 -2.80 -0.40 -2.30 1.80 0.75 3.10 4.20 3.70 5.25 3.50 6.30 -0.10 0.80 -0.30 0.85 -0.90 0.40z"/>
  <path d="M4.25 7.15 c-1 -1.05 -2.15 -2.50 -2.65 -3.25 -0.45 -0.80 -1 -1.40 -1.20 -1.40 -0.20 0 -0.40 -0.55 -0.40 -1.25 0 -1.75 2.10 -1.75 2.90 0 0.85 1.85 0.75 2.50 -0.25 1.70 -0.70 -0.50 -0.65 -0.35 0.10 0.55 1 1.25 2.70 3.65 3.45 4.90 0.70 1.15 -0.15 0.60 -1.95 -1.25z"/>
  <path d="M10.75 4 c-0.50 -0.55 -0.80 -1.10 -0.65 -1.25 0.15 -0.15 0.65 0.30 1.10 1 1 1.50 0.80 1.60 -0.45 0.25z"/>
 </g>
 <g fill="#c3b081">
  <path d="M11.50 36.45 c0 -0.70 -0.35 -1.70 -0.75 -2.25 -0.40 -0.50 -0.75 -1.25 -0.75 -1.65 0 -0.95 1.35 0.20 2.25 1.95 0.60 1.20 0.60 1.50 0 2.30 -0.70 0.90 -0.70 0.90 -0.75 -0.35z"/>
  <path d="M0.50 34 c-1.20 -0.75 -0.35 -0.90 1 -0.15 0.70 0.35 0.90 0.65 0.50 0.65 -0.40 0 -1.10 -0.20 -1.50 -0.50z"/>
  <path d="M23 20.80 c0 -0.80 1.25 -1.20 2.65 -0.90 1.60 0.40 0.95 1.60 -0.90 1.60 -1.20 0 -1.75 -0.25 -1.75 -0.70z"/>
  <path d="M29.40 10.70 c-0.85 -0.80 -0.40 -4.70 0.60 -5.70 1.55 -1.55 2.05 -1.20 1.15 0.90 -0.45 1 -0.95 2.60 -1.10 3.50 -0.15 0.95 -0.45 1.50 -0.65 1.30z"/>
 </g>
 <g fill="#95b9cf">
  <path d="M35.80 27.55 c-0.20 -0.35 -0.75 -0.50 -1.20 -0.30 -0.45 0.15 -0.70 0.15 -0.50 0 0.15 -0.15 -0.75 -1.30 -1.95 -2.50 -1.60 -1.50 -2.85 -2.30 -4.20 -2.50 -1.45 -0.25 -1.95 -0.55 -1.95 -1.30 0 -2.40 6.25 0.25 8.90 3.80 0.95 1.20 1.60 2.50 1.50 2.85 -0.15 0.45 -0.30 0.45 -0.60 -0.05z"/>
  <path d="M22.30 24.90 c-0.90 -0.50 -1.10 -1.90 -0.30 -1.90 0.30 0 0.50 -0.20 0.50 -0.50 0 -0.25 -0.35 -0.50 -0.75 -0.50 -0.40 0 -0.75 0.25 -0.75 0.50 0 0.30 -0.55 0.75 -1.25 1.10 -0.95 0.40 -1.40 0.40 -2 -0.10 -0.55 -0.45 -0.95 -0.45 -1.40 -0.10 -0.50 0.45 -0.85 0.30 -1.50 -0.40 -0.45 -0.55 -1.15 -1 -1.50 -1 -0.40 0 -2.55 -1.10 -4.85 -2.50 -3.65 -2.20 -4 -2.50 -2.65 -2.50 1.05 0 2.20 0.60 3.80 2 2.20 1.95 3.10 2.45 2.75 1.55 -0.05 -0.20 -1.55 -1.55 -3.30 -3 -1.70 -1.40 -3.10 -2.80 -3.10 -3.05 0 -0.75 3.95 1.90 5.35 3.55 0.65 0.75 1.85 1.70 2.60 2.10 1.30 0.65 1.50 0.65 2.20 -0.15 0.65 -0.80 0.60 -1 -0.70 -2.40 -1.55 -1.65 -1.95 -3.60 -0.70 -3.60 0.40 0 0.75 -0.35 0.75 -0.75 0 -0.45 -0.45 -0.75 -1.25 -0.75 -1 0 -1.25 -0.25 -1.25 -1.25 0 -1.55 0.05 -1.55 2.75 0.05 1.25 0.70 2.70 2.15 3.40 3.35 0.70 1.15 1.70 2.55 2.30 3.05 0.60 0.55 1.05 1.25 1.05 1.60 0 0.35 0.40 0.75 0.90 0.85 0.45 0.15 0.10 0.25 -0.75 0.30 -1.90 0.05 -2.25 1.05 -0.40 1.05 0.70 0 1.25 0.30 1.25 0.65 0 0.45 0.55 0.60 1.75 0.45 1.30 -0.15 1.75 0 1.75 0.55 0 0.40 -0.35 0.90 -0.80 1.05 -0.40 0.15 -0.65 0.45 -0.55 0.65 0.35 0.55 -2.40 0.60 -3.35 0.05z m-1.80 -5.90 c0 -1 -0.25 -1.50 -0.75 -1.50 -0.50 0 -0.75 0.50 -0.75 1.50 0 1 0.25 1.50 0.75 1.50 0.50 0 0.75 -0.50 0.75 -1.50z m-2.65 -4.10 c-0.10 -0.65 -0.20 -0.25 -0.20 0.85 -0.05 1.10 0.05 1.60 0.20 1.15 0.10 -0.50 0.10 -1.40 0 -2z"/>
  <path d="M1.95 15.65 l-1.20 -1.30 1.65 0.95 c0.85 0.50 1.60 1.10 1.60 1.30 0 0.75 -0.85 0.40 -2.05 -0.95z"/>
  <path d="M3.15 14.60 c-1.70 -1 -3.10 -2.15 -3.15 -2.45 0 -0.95 0.40 -0.80 3 1.10 2.10 1.55 3.95 3.30 3.45 3.20 -0.10 0 -1.60 -0.85 -3.30 -1.85z"/>
  <path d="M17.05 11.15 c-0.65 -0.40 -1.55 -1.60 -2 -2.60 -0.45 -1 -1.45 -2.90 -2.25 -4.20 -2.10 -3.55 -1.25 -3.40 1.35 0.25 2.75 3.90 4.55 6.85 4.25 7.15 -0.10 0.15 -0.75 -0.15 -1.35 -0.60z"/>
  <path d="M3.30 6 c-0.70 -0.85 -1.30 -1.75 -1.30 -1.95 0 -0.20 -0.45 -0.85 -1 -1.45 -0.80 -0.85 -0.90 -1.10 -0.30 -1.10 0.50 0 0.65 -0.30 0.50 -0.75 -0.50 -1.30 1.10 -0.85 1.70 0.50 0.75 1.65 0.75 1.80 -0.20 1.40 -0.45 -0.15 -0.15 0.60 0.85 2 1.90 2.70 1.70 3.65 -0.25 1.35z"/>
 </g>
 <g fill="#eec679">
  <path d="M10.60 34 c-0.90 -1.40 -1.60 -2.70 -1.60 -2.85 0 -0.60 2.15 1.65 2.85 3 1.30 2.60 0.40 2.50 -1.25 -0.15z"/>
  <path d="M34.75 26.75 c-1.15 -0.95 -1.35 -1.35 -0.85 -1.85 0.45 -0.45 0.75 -0.40 1.35 0.40 2.20 2.80 2 3.45 -0.50 1.45z"/>
  <path d="M29.50 6.10 c0 -0.50 1.05 -1.60 1.55 -1.60 0.20 0 0.25 0.45 0.10 1 -0.25 0.95 -1.65 1.45 -1.65 0.60z"/>
 </g>
 <g fill="#84c5e8">
  <path d="M32.15 24.55 c-1.55 -1.40 -2.55 -1.90 -3.65 -1.85 -0.80 0.05 -1.50 0.30 -1.50 0.55 0 0.60 -2.35 1.75 -3.55 1.75 -1.10 0 -2.20 -1.30 -1.45 -1.75 0.25 -0.15 0.50 -0.50 0.50 -0.80 0 -0.60 -1.35 -0.60 -1.60 0 -0.05 0.25 -0.70 0.55 -1.40 0.70 -0.70 0.10 -0.95 0.10 -0.60 0 0.30 -0.15 0.60 -0.45 0.60 -0.70 0 -0.35 -1 -0.40 -2.75 -0.20 -1.90 0.25 -2.75 0.20 -2.75 -0.20 0 -0.30 -0.50 -0.55 -1.10 -0.55 -1.20 -0.05 -3.25 -1.30 -2.80 -1.75 0.15 -0.15 0.55 0.05 0.90 0.50 0.80 0.95 1.70 1 1.35 0.05 -0.25 -0.60 -0.05 -0.65 1.25 -0.05 1.20 0.50 1.85 0.50 2.60 0.05 0.60 -0.30 1.10 -0.60 1.20 -0.60 0.45 -0.20 -3.10 -3.20 -3.60 -3.10 -0.95 0.20 -4.55 -3.15 -3.85 -3.55 0.85 -0.55 0.10 -2.05 -1 -2.05 -0.65 0 -0.95 -0.35 -0.95 -1.15 0 -1.10 0.15 -1.15 2.20 -0.85 2.20 0.35 6.30 2.50 4.70 2.50 -0.45 0 -0.95 -0.30 -1.05 -0.60 -0.15 -0.35 -0.30 -0.15 -0.30 0.50 -0.05 1 0.15 1.15 1.95 1 2.20 -0.10 2.60 0.15 2.85 1.65 0.10 0.60 0.70 1.50 1.40 2.05 0.85 0.65 1.25 1.45 1.25 2.45 0 1.15 0.20 1.45 1.05 1.45 0.60 0 1.50 0.50 2 1.10 0.55 0.55 0.95 0.80 0.95 0.50 0 -0.75 4.40 -0.80 6.20 -0.10 0.95 0.35 1.30 0.85 1.30 1.75 0 1 0.25 1.25 1.20 1.25 1 0 1.80 0.80 1.80 1.80 0 0.70 -1.55 -0.10 -3.35 -1.75z"/>
  <path d="M6 17.85 c-1.10 -0.45 -1.15 -0.55 -0.30 -0.70 0.50 -0.15 1.15 0 1.45 0.30 0.80 0.80 0.25 1 -1.15 0.40z"/>
  <path d="M9.15 17.25 c-0.45 -1.25 0.10 -1.35 1.10 -0.25 0.85 0.90 0.85 1 0.05 1 -0.45 0 -0.95 -0.35 -1.15 -0.75z"/>
  <path d="M17.10 11.10 c-1.15 -0.90 -2.80 -3.60 -2.40 -3.95 0.40 -0.40 2.10 1.50 3 3.25 0.95 1.85 0.95 1.85 -0.60 0.70z"/>
  <path d="M3.55 6.25 c-1.65 -1.90 -2.15 -3.45 -0.65 -2.10 0.90 0.80 2.80 3.85 2.45 3.85 -0.15 0 -0.95 -0.80 -1.80 -1.75z"/>
 </g>
 <g fill="#d6d3a1">
  <path d="M34.15 26.15 c-0.75 -0.30 -0.90 -2.15 -0.15 -2.15 0.45 0 1.50 1.55 1.50 2.20 0 0.35 -0.50 0.35 -1.35 -0.05z"/>
  <path d="M29.35 9.70 c-0.50 -0.85 0.20 -4.10 1.05 -4.80 0.65 -0.55 0.70 -0.50 0.45 0.60 -0.15 0.70 -0.50 2.05 -0.70 3 -0.25 0.95 -0.60 1.50 -0.80 1.20z"/>
 </g>
 <g fill="#9cd5f8">
  <path d="M31.90 24.20 c-2.35 -2.15 -4.55 -2.30 -6 -0.45 -0.55 0.75 -1.50 1.25 -2.20 1.25 -1.35 0 -2.20 -1.40 -1.25 -1.95 0.45 -0.30 0.40 -0.55 -0.10 -1 -0.55 -0.45 -0.85 -0.40 -1.35 0.20 -0.55 0.70 -0.70 0.70 -1.20 0 -0.45 -0.65 -0.85 -0.70 -2.20 -0.20 -1.85 0.65 -3.10 0.35 -3.10 -0.75 0 -0.50 0.30 -0.65 0.75 -0.50 0.40 0.20 0.75 0.05 0.75 -0.30 0 -0.40 0.45 -0.55 1.20 -0.40 1.50 0.30 2.70 -1.30 1.75 -2.40 -0.70 -0.85 -1.50 -0.45 -1.10 0.55 0.15 0.40 0.05 0.75 -0.20 0.75 -0.70 0 -3.80 -3.50 -3.45 -3.90 0.20 -0.15 0.60 0 0.90 0.30 0.35 0.35 0.95 0.60 1.40 0.60 0.55 -0.05 0.45 -0.30 -0.45 -1 -1.45 -1.25 -2.35 -1.25 -3 -0.10 -0.40 0.70 -0.60 0.75 -1.15 0.20 -0.75 -0.75 -0.85 -2.70 -0.15 -3.20 0.30 -0.25 0.05 -0.70 -0.60 -1.15 -1.30 -0.90 -1.50 -1.75 -0.45 -1.75 1.80 0 8.30 4.50 8.30 5.80 0 0.30 0.45 0.95 1 1.45 0.55 0.50 1 1.55 1 2.35 0 1.05 0.25 1.40 1 1.40 0.55 0 1 0.35 1 0.75 0 0.90 0.05 0.90 2.95 0.20 1.20 -0.25 2.85 -0.35 3.60 -0.20 2.05 0.45 4.60 2.85 4.35 4.15 -0.15 0.95 -0.25 0.95 -2 -0.70z"/>
  <path d="M12.25 21 c0.20 -0.30 0.05 -0.85 -0.25 -1.25 -0.85 -1 -0.25 -0.95 1 0.10 1.30 1.10 1.25 1.65 -0.05 1.65 -0.55 0 -0.85 -0.20 -0.70 -0.50z"/>
  <path d="M10.20 20.30 c-0.50 -0.40 -0.80 -0.85 -0.65 -1 0.15 -0.15 0.70 0.15 1.20 0.70 1.05 1.15 0.85 1.30 -0.55 0.30z"/>
  <path d="M6.20 17.75 c-0.85 -0.65 -0.85 -0.70 -0.10 -0.75 0.45 0 1 0.25 1.15 0.55 0.55 0.85 0 1 -1.05 0.20z"/>
  <path d="M16.55 10.55 c-1.20 -1.20 -1.35 -2.05 -0.40 -2.05 0.70 0 2.10 2.45 1.65 2.85 -0.10 0.15 -0.70 -0.25 -1.25 -0.80z"/>
  <path d="M3 5.55 c-0.60 -0.85 -0.85 -1.55 -0.55 -1.55 0.65 0 2.30 2.40 1.90 2.80 -0.10 0.15 -0.75 -0.45 -1.35 -1.25z"/>
 </g>
 <g fill="#b7d4ea">
  <path d="M32.25 24.35 c-1.80 -1.70 -2.80 -2.30 -3.50 -2.10 -0.55 0.10 -1.40 0.25 -1.85 0.25 -0.50 0 -0.90 0.30 -0.90 0.70 0 0.35 -0.35 0.95 -0.75 1.30 -0.95 0.75 -3.25 0.25 -3.25 -0.75 0 -0.90 0.85 -1 1.10 -0.15 0.10 0.30 0.50 0.45 0.85 0.35 0.35 -0.15 0 -0.65 -0.95 -1.35 -1.20 -0.90 -1.70 -1.05 -2.25 -0.60 -0.75 0.65 -1.10 -0.15 -1.35 -3.25 -0.10 -0.95 -0.45 -1.50 -0.90 -1.50 -0.45 0 -0.70 0.35 -0.60 0.90 0.20 1.10 -0.55 1.10 -1.55 -0.05 -1.10 -1.20 -1.05 -1.55 0.25 -2.05 1.15 -0.40 1.15 -0.45 -0.35 -1.35 -0.95 -0.55 -1.45 -1.30 -1.35 -1.80 0.10 -0.45 -0.10 -0.95 -0.35 -1.15 -0.30 -0.15 -0.55 -0.55 -0.55 -0.80 0 -1 4.10 1.80 4.85 3.30 0.45 0.80 1.40 2.20 2.15 3.10 0.75 0.85 1.50 1.85 1.60 2.15 0.10 0.35 1.75 0.75 3.95 1 2.05 0.20 4.15 0.60 4.70 0.90 1.75 0.90 3.85 3.45 3.65 4.40 -0.15 0.75 -0.60 0.50 -2.65 -1.45z"/>
  <path d="M13.90 21.85 c-0.80 -0.30 -1.40 -0.80 -1.40 -1.15 0 -0.30 -0.85 -1.20 -1.85 -2 -1.95 -1.45 -4.90 -4.20 -4.50 -4.20 0.85 0 3.55 1.90 5.05 3.55 1.95 2.10 4.40 3.40 4.70 2.50 0.10 -0.30 0.45 -0.55 0.85 -0.55 0.65 0 2.05 1.40 1.70 1.75 -0.55 0.50 -3.35 0.60 -4.55 0.10z"/>
  <path d="M8.75 19.45 c-0.80 -0.55 -1.85 -1.20 -2.25 -1.45 -0.40 -0.25 -0.60 -0.60 -0.40 -0.75 0.40 -0.40 3.45 1.35 4.40 2.50 0.85 1 0.05 0.90 -1.75 -0.30z"/>
  <path d="M2.20 15.95 c-0.95 -1.10 -0.95 -1.10 0.15 -0.50 1.20 0.60 1.95 1.55 1.25 1.55 -0.25 0 -0.85 -0.50 -1.40 -1.05z"/>
  <path d="M3.35 14.50 c-1.30 -0.80 -2.60 -1.50 -2.85 -1.50 -0.30 0 -0.50 -0.35 -0.50 -0.75 0 -1.10 0.40 -0.95 2.95 1.10 4.05 3.25 4.20 3.55 0.40 1.15z"/>
  <path d="M12.10 13.95 c0.05 -0.60 0.45 -1.20 0.80 -1.35 0.45 -0.15 0.65 0.15 0.50 0.95 -0.05 0.60 -0.45 1.20 -0.80 1.35 -0.45 0.15 -0.65 -0.15 -0.50 -0.95z"/>
  <path d="M16.60 10.45 c-0.60 -0.60 -1.85 -2.70 -2.85 -4.65 l-1.80 -3.55 1.55 1.75 c1.80 2.05 4.75 6.95 4.35 7.30 -0.15 0.15 -0.70 -0.25 -1.25 -0.85z"/>
  <path d="M2.55 4.65 c-0.85 -1 -1.40 -1.95 -1.30 -2.05 0.25 -0.25 1.95 1.60 2.80 3.05 0.80 1.45 0.10 0.95 -1.50 -1z"/>
 </g>
 <g fill="#cae2f8">
  <path d="M32.25 24.05 c-1.90 -1.60 -2.80 -2 -4.35 -1.95 -1.35 0 -1.90 0.25 -1.90 0.75 0 1 -2.55 0.40 -3.15 -0.70 -0.30 -0.45 -0.85 -0.65 -1.65 -0.45 -1 0.25 -1.20 0.10 -1.45 -1.55 -0.20 -1.05 -0.40 -2.20 -0.50 -2.50 -0.30 -0.95 -1.65 -0.80 -1.85 0.20 -0.15 0.75 -0.25 0.75 -1.10 -0.10 -0.90 -0.95 -0.90 -0.95 0.15 -1.45 1.35 -0.60 1.35 -1 -0.15 -1.75 -1.05 -0.60 -2.05 -2.95 -1.50 -3.50 0.40 -0.40 3.75 2.60 4.50 4.05 0.45 0.85 1.35 2.15 2 2.85 0.65 0.70 1.20 1.45 1.20 1.60 0 0.15 1.35 0.45 3.05 0.65 3.95 0.40 7 1.75 8.45 3.75 1.60 2.35 1 2.35 -1.75 0.10z"/>
  <path d="M16 21.05 c0 -0.60 0.30 -1.05 0.80 -1.05 0.45 0 0.70 0.35 0.60 0.85 -0.25 1.25 -1.40 1.40 -1.40 0.20z"/>
  <path d="M13.25 21 c-0.15 -0.25 0.05 -0.50 0.45 -0.50 0.40 0 0.90 0.25 1.05 0.50 0.15 0.30 -0.05 0.50 -0.45 0.50 -0.40 0 -0.90 -0.20 -1.05 -0.50z"/>
  <path d="M8.50 19 c-1.25 -0.80 -2 -1.50 -1.75 -1.50 0.55 0 4.25 2.40 4.25 2.75 0 0.40 -0.15 0.30 -2.50 -1.25z"/>
  <path d="M11 18.95 c-2.90 -2.35 -4.60 -4 -4.45 -4.20 0.35 -0.35 4.90 3.20 5.45 4.25 0.65 1.25 0.55 1.25 -1 -0.05z"/>
  <path d="M2.40 13.85 c-2.65 -1.80 -3.25 -2.90 -0.85 -1.50 1.35 0.80 3.90 3.15 3.40 3.15 -0.10 0 -1.25 -0.75 -2.55 -1.65z"/>
  <path d="M12 14.05 c0 -1 0.85 -1.85 1.35 -1.40 0.35 0.40 -0.35 2.35 -0.90 2.35 -0.25 0 -0.45 -0.45 -0.45 -0.95z"/>
  <path d="M16.35 9.90 c-1.60 -2.15 -3.35 -5.25 -3.35 -6.05 0 -0.65 3.15 3.55 4.35 5.80 1.05 2.05 0.45 2.20 -1 0.25z"/>
  <path d="M2.90 5.15 c-1.45 -1.70 -1.50 -2.40 -0.10 -1.05 0.75 0.75 1.30 1.50 1.15 1.65 -0.15 0.15 -0.65 -0.15 -1.05 -0.60z"/>
 </g>
 <g fill="#e7f1fb">
  <path d="M31.50 23.25 c-1.85 -1.30 -5.35 -1.70 -6.35 -0.70 -0.35 0.35 -1.05 0.25 -2.30 -0.40 -1.85 -0.95 -2.55 -1.90 -3.05 -4.25 -0.35 -1.50 -1.60 -1.85 -2.80 -0.75 -0.40 0.30 -0.35 0.15 0.15 -0.45 0.60 -0.75 0.70 -1.15 0.30 -1.55 -0.55 -0.55 -0.20 -1.65 0.50 -1.65 0.25 0 0.80 0.80 1.25 1.75 0.45 0.95 1 1.75 1.20 1.75 0.20 0 0.80 0.70 1.25 1.50 0.80 1.30 1.20 1.50 3.25 1.50 2.90 0.05 7.50 1.85 8.50 3.40 0.95 1.40 0.30 1.35 -1.90 -0.15z"/>
  <path d="M9.90 18.05 c-1.85 -1.30 -2.80 -2.55 -1.90 -2.55 0.65 0 4.30 3.35 4 3.65 -0.15 0.10 -1.10 -0.40 -2.10 -1.10z"/>
  <path d="M2.25 13.70 c-1.35 -0.90 -2.25 -1.70 -1.95 -1.70 0.60 0 4.70 2.85 4.70 3.25 0 0.35 -0.05 0.35 -2.75 -1.55z"/>
  <path d="M12 13.80 c0 -0.45 0.35 -0.80 0.80 -0.80 0.45 0 0.70 0.25 0.60 0.60 -0.30 0.90 -1.40 1.05 -1.40 0.20z"/>
  <path d="M16.10 9.15 c-1.60 -2.35 -1.90 -3 -1.05 -2.30 0.75 0.65 2.65 3.65 2.25 3.65 -0.10 0 -0.65 -0.60 -1.20 -1.35z"/>
 </g>
</svg>