<?xml version="1.0" encoding="utf-8"?>
<!DOCTYPE svg PUBLIC "-//W3C//DTD SVG 1.0//EN" "http://www.w3.org/TR/2001/REC-SVG-20010904/DTD/svg10.dtd">
<svg version="1.0" xmlns="http://www.w3.org/2000/svg" width="40px" height="40px" viewBox="0 0 40 40" preserveAspectRatio="xMidYMid meet">
 <g fill="#0b0703">
  <path d="M14 39.50 c0 -0.25 -0.45 -0.50 -1.05 -0.50 -1.30 0 -5.30 -3.30 -6.30 -5.20 -0.60 -1.20 -0.65 -1.50 -0.10 -1.85 0.55 -0.30 0.55 -0.55 0.05 -1.05 -0.90 -0.90 -0.75 -2.40 0.30 -2.40 0.80 -0.05 0.75 -0.10 -0.10 -0.75 -0.90 -0.70 -0.90 -0.75 0.10 -2.40 0.95 -1.65 1 -3.85 0.10 -5.10 -0.20 -0.25 -0.50 -1.10 -0.70 -1.90 -0.15 -0.75 -0.55 -1.35 -0.85 -1.35 -1.15 0 -5.45 -2.15 -5.45 -2.75 0 -0.70 1.55 -1.25 3.60 -1.25 0.75 0 1.50 -0.25 1.65 -0.50 0.20 -0.30 -0.50 -0.50 -1.70 -0.50 -2.65 0 -3.55 -0.40 -3.55 -1.60 0 -0.80 0.25 -0.95 1.15 -0.75 2.10 0.55 8.10 0.45 9.35 -0.10 1.05 -0.50 1.25 -0.95 1.25 -2.75 0 -2.95 2 -6.80 3.60 -6.80 1.30 0 1.60 1.50 0.45 2.45 -1.20 1 0.25 4 1.95 4.05 0.70 0 1.80 -2.90 1.20 -3.30 -0.25 -0.15 -0.45 -0.90 -0.45 -1.75 0 -1.40 0.05 -1.45 2.40 -1.45 2.50 0 3.10 0.35 4.50 2.85 0.30 0.65 0.60 1.55 0.60 2.10 0 1.50 1.15 2.05 4.05 2 5.60 -0.15 5.90 -0.05 6.95 1.65 1.30 2.15 1.25 2.50 -0.25 1.80 -1.85 -0.85 -2.15 -0.10 -0.85 2.15 0.60 1.05 1 1.95 0.85 1.95 -0.15 0 -1.65 -1 -3.35 -2.25 -3.45 -2.50 -3.50 -2.50 -4.90 -1.60 -0.85 0.50 -1.10 0.45 -1.45 -0.10 -0.50 -0.80 -1.55 -0.30 -1.55 0.75 0 0.40 0.45 0.70 1.05 0.70 0.55 0 1.70 0.75 2.55 1.65 3.85 4.10 4.65 4.85 5 4.85 0.25 0 -0.60 -1.25 -1.85 -2.75 -1.25 -1.55 -2.25 -3 -2.25 -3.25 0 -0.90 1.45 0.10 3.35 2.40 2.35 2.80 3.30 4.45 2.90 5.10 -0.40 0.65 1 3.25 2.40 4.35 1.15 0.90 1.20 1.20 1.30 8.30 l0.05 7.35 -2.75 0 c-2.70 0 -2.80 -0.05 -3.05 -1.50 -0.30 -1.40 -0.50 -1.50 -2.50 -1.50 -2 0 -2.20 0.10 -2.20 1.25 0 1.15 -0.20 1.25 -2.20 1.25 -1.25 0 -2.80 -0.20 -3.50 -0.50 -1.05 -0.35 -1.30 -0.30 -1.30 0.25 0 0.60 -0.85 0.75 -4.25 0.75 -2.50 0 -4.25 -0.20 -4.25 -0.50z m15 -6.75 c1.20 -0.70 1.10 -0.70 -1.60 -0.75 l-2.90 0 0 -1.75 c0 -1.40 0.25 -1.90 1.25 -2.35 0.70 -0.30 1.25 -0.70 1.25 -0.90 0 -0.50 -4.70 0.05 -4.90 0.55 -0.10 0.25 -0.95 0.45 -1.90 0.45 -1.15 0 -1.70 0.25 -1.70 0.70 0 1.55 1 3.25 2.35 3.95 1.80 0.95 6.55 1 8.15 0.10z m6 -8.60 c0 -0.55 -0.90 -2.30 -1.85 -3.60 -0.10 -0.15 -0.70 0.30 -1.40 0.95 l-1.25 1.20 1.60 1.65 c1.20 1.25 1.75 1.50 2.25 1.10 0.35 -0.30 0.65 -0.90 0.65 -1.30z"/>
 </g>
 <g fill="#27140c">
  <path d="M14.50 39.55 c0 -0.30 -0.75 -0.55 -1.60 -0.65 -1.30 -0.10 -1.80 -0.50 -2.40 -1.75 -0.40 -0.90 -1.05 -1.65 -1.45 -1.65 -0.65 0 -3.05 -2.40 -3.05 -3.10 0 -0.15 0.25 -0.40 0.55 -0.50 0.45 -0.15 0.45 -0.45 0 -1.25 -0.85 -1.60 -0.65 -3.40 0.50 -5.40 0.60 -0.95 0.90 -2.10 0.75 -2.55 -0.60 -1.50 0.30 -1.70 1.80 -0.45 1.80 1.50 3.75 2.10 4.55 1.30 1 -1 1.20 -0.60 1.20 2.45 0 3.35 0.85 5.05 1.45 2.80 0.20 -0.90 0.05 -1.60 -0.50 -2.25 -1.20 -1.35 -1 -1.50 1.10 -0.75 1 0.35 2.20 0.65 2.60 0.65 0.65 -0.05 0.65 -0.05 0 -0.30 -3.45 -1.25 -4.10 -1.70 -3.60 -2.30 0.35 -0.45 0.20 -0.85 -0.65 -1.50 -1.15 -0.80 -1.20 -0.80 -1.70 0 -0.45 0.85 -0.75 0.75 -3.90 -0.85 -2.45 -1.25 -3.40 -2 -3.40 -2.75 0 -0.70 -0.80 -1.35 -2.75 -2.35 -1.50 -0.75 -3.05 -1.35 -3.35 -1.35 -0.45 -0.05 -0.65 -0.95 -0.65 -2.85 0 -2.65 0.05 -2.75 1.15 -2.35 1.40 0.50 8.65 0.30 9.75 -0.30 0.50 -0.30 0.85 -1.25 0.90 -2.80 0.10 -1.30 0.40 -2.65 0.75 -3.05 0.65 -0.80 2.45 -0.95 2.45 -0.20 0 0.30 0.55 0.50 1.20 0.50 0.65 0 1.30 0.30 1.45 0.65 0.20 0.45 0.35 0.45 0.90 -0.05 0.60 -0.55 0.55 -0.75 -0.15 -1.30 -0.50 -0.35 -0.90 -1.25 -0.90 -2 0 -1.20 0.15 -1.30 2.15 -1.30 2.65 0 3.80 0.90 5.55 4.20 0.85 1.60 1.20 2.85 1 3.60 -0.20 0.75 -0.10 1.20 0.30 1.20 0.35 0 0.50 -0.35 0.30 -0.75 -0.20 -0.55 0.10 -0.75 1.35 -0.75 0.90 0 2.75 -0.15 4.20 -0.30 2.30 -0.30 2.70 -0.20 3.85 0.95 0.70 0.70 1.30 1.55 1.30 1.80 0 0.60 -1.40 0.20 -2.50 -0.75 -0.40 -0.35 -1.40 -0.75 -2.25 -0.95 l-1.50 -0.30 1.65 1.45 c0.85 0.75 1.60 1.70 1.60 2.05 0 0.30 0.60 1.15 1.40 1.80 0.75 0.65 1.10 1.25 0.80 1.25 -0.30 0 -1.05 -0.55 -1.70 -1.25 -0.65 -0.70 -1.45 -1.25 -1.75 -1.25 -0.35 0 -1 -0.45 -1.50 -1 -1 -1.10 -2.25 -1.30 -3.10 -0.45 -0.75 0.75 -3.50 -1.05 -3.25 -2.15 0.10 -0.45 -0.05 -0.90 -0.25 -1.05 -0.25 -0.15 -0.50 0.10 -0.55 0.55 -0.40 3.45 -1 5.60 -2 6.80 -0.60 0.80 -1.25 1.30 -1.45 1.10 -0.20 -0.20 -0.15 -0.50 0.15 -0.70 0.35 -0.20 0.65 -1.20 0.80 -2.20 0.15 -1.40 0.05 -1.75 -0.40 -1.35 -0.40 0.35 -0.70 0.30 -0.85 -0.15 -0.10 -0.35 -0.40 -0.50 -0.60 -0.25 -0.25 0.20 -0.15 0.65 0.15 0.95 0.35 0.35 0.60 1.05 0.60 1.60 -0.05 1 -0.05 1 -0.70 0.20 -1 -1.35 -1.30 -1.10 -1.30 1.15 0 1.85 0.10 2 1.05 1.70 0.95 -0.30 1.05 -0.20 0.80 0.80 l-0.30 1.20 1 -1.25 c2.90 -3.60 4.75 -5.50 5.25 -5.50 0.80 0 4.20 3.80 4.20 4.70 0 1.10 -3 3.85 -5.40 4.90 -1.90 0.85 -4.05 1.25 -7.45 1.40 -0.35 0 -0.65 0.25 -0.65 0.55 0 0.40 0.95 0.50 3.25 0.30 5.15 -0.50 10.25 -3.20 10.25 -5.45 0 -1.10 0.90 -1.15 2.40 -0.10 2 1.40 1.65 0.50 -0.90 -2.55 -1.35 -1.60 -2.40 -3 -2.30 -3.10 0.70 -0.75 5.80 4.90 5.80 6.50 0 0.55 -0.20 0.75 -0.60 0.55 -0.60 -0.40 -0.55 -0.30 1.40 2.90 l1.15 1.85 -2.30 2.25 c-2.40 2.40 -3.15 2.75 -3.15 1.65 0 -0.35 -1.10 -1.70 -2.40 -2.95 l-2.45 -2.35 -2.45 1.20 -2.45 1.20 2 -0.25 c1.10 -0.15 2.40 -0.40 2.90 -0.55 0.55 -0.15 0.85 0.05 0.85 0.55 0 0.45 0.55 1.10 1.15 1.55 0.65 0.40 1.50 1.30 1.85 2 0.35 0.70 1 1.35 1.45 1.50 0.45 0.15 1.05 0.75 1.35 1.40 0.50 1.10 0.40 1.20 -1.50 1.75 -1.15 0.30 -2.50 0.90 -3.05 1.30 -0.95 0.75 -0.90 0.75 0.80 0.80 1.20 0 2.10 -0.35 2.70 -1 1.15 -1.30 2 -1.25 2.95 0.05 0.60 0.90 0.65 1.20 0.05 1.75 -1.05 1.10 -0.35 2.65 1.10 2.55 0.70 -0.05 1.40 0.15 1.50 0.50 0.15 0.40 -0.75 0.60 -3.05 0.60 -1.95 0 -3.30 -0.25 -3.30 -0.55 0 -0.30 -0.90 -0.35 -2.45 -0.15 -1.70 0.25 -3.40 0.05 -5.55 -0.55 -2.65 -0.75 -3.15 -0.75 -3.55 -0.15 -0.40 0.55 -0.65 0.45 -1.50 -0.55 -0.55 -0.70 -1.35 -1.65 -1.70 -2.10 -0.40 -0.50 -1 -0.90 -1.30 -0.90 -0.80 0 0 2.10 1.45 3.65 0.90 0.95 1.05 1.35 0.55 1.35 -0.40 0 -1.05 -0.45 -1.45 -1.05 -1 -1.40 -3.75 -2.50 -5.05 -2.05 -0.90 0.35 -0.80 0.50 1 1.10 1.15 0.35 2.05 0.95 2.05 1.35 0 0.35 -0.10 0.65 -0.25 0.65 -0.15 0 -0.25 -0.20 -0.25 -0.45z m11.25 -2.40 c-1.35 -0.40 -2.85 -1 -3.25 -1.35 -0.40 -0.35 -1.60 -1 -2.65 -1.50 -1.05 -0.50 -2.10 -1.40 -2.35 -2.05 -0.65 -1.70 -1.50 -2.05 -1.50 -0.55 0 1.45 0.90 2.50 3.15 3.55 2.60 1.20 7 2.70 8.10 2.70 0.55 0 -0.10 -0.35 -1.50 -0.80z m-11.45 -1.90 c-0.45 -0.65 -0.80 -1.65 -0.80 -2.15 0 -0.75 -0.45 -0.90 -2.85 -0.95 l-2.90 -0.05 1.25 1 c0.80 0.65 1.65 0.90 2.50 0.70 1.05 -0.20 1.50 0.05 2.20 1.25 0.45 0.80 1 1.45 1.15 1.45 0.15 0 -0.10 -0.55 -0.55 -1.25z m8.95 -2.75 c-1.40 -0.60 -2.75 -0.60 -2.75 0 0 0.30 0.85 0.50 1.90 0.45 1.50 0 1.65 -0.10 0.85 -0.45z m-10.55 -2.35 c-0.45 -1.10 -0.45 -2.95 0 -4.65 l0.40 -1.25 -1.25 1.35 c-1.10 1.20 -1.30 1.25 -2.05 0.50 -1.50 -1.55 -1.45 -0.10 0.10 1.85 0.90 1.10 1.60 2.25 1.60 2.50 0 0.30 0.35 0.55 0.80 0.55 0.60 0 0.70 -0.25 0.40 -0.85z m17.95 -0.65 c0.15 -0.65 0 -1 -0.45 -1 -0.75 0 -4.20 1.35 -4.20 1.60 0 0.10 1 0.25 2.20 0.30 1.80 0.05 2.25 -0.10 2.45 -0.90z m2.85 -5.90 c0 -0.75 -0.45 -1.75 -1 -2.25 -1.80 -1.55 -2.45 -0.95 -2.10 1.95 0.20 1.50 0.40 1.70 1.65 1.70 1.25 0 1.45 -0.20 1.45 -1.40z m-11.25 -3.30 c0.85 -0.15 1.70 -0.25 1.90 -0.25 0.25 -0.05 0.30 -0.25 0.15 -0.50 -0.15 -0.20 0.30 -0.65 0.95 -0.95 0.95 -0.45 1.25 -0.45 1.25 0 0 0.30 0.45 0.05 1 -0.55 0.95 -1.15 0.95 -1.15 0 -2.20 -0.55 -0.55 -1 -1.20 -1 -1.45 0 -0.20 -0.30 -0.40 -0.70 -0.40 -0.45 0 -0.65 0.55 -0.60 1.60 0.05 1.40 -0.15 1.70 -1.55 2.15 -0.85 0.30 -2.05 0.95 -2.65 1.50 -0.85 0.80 -1.20 0.85 -2.05 0.35 -0.55 -0.35 -0.95 -0.40 -0.95 -0.10 0 0.25 -0.65 0.50 -1.50 0.50 -0.80 0 -1.50 0.25 -1.50 0.55 0 0.50 2.40 0.40 7.25 -0.25z m-8.50 -1.25 c-0.15 -0.55 0.05 -1.25 0.50 -1.70 0.85 -0.85 1.05 -3.85 0.25 -3.85 -0.25 0 -0.50 0.25 -0.50 0.50 0 0.30 -0.25 0.50 -0.55 0.50 -0.35 0 -0.45 -0.50 -0.25 -1.20 0.15 -0.70 0.10 -1.40 -0.20 -1.55 -0.25 -0.15 -0.50 0 -0.50 0.45 0 0.40 -0.65 0.85 -1.55 1.05 -1.20 0.25 -1.50 0.55 -1.30 1.30 0.15 0.50 0.05 0.95 -0.20 0.95 -0.25 0 -0.45 0.25 -0.45 0.50 0 0.30 0.25 0.50 0.50 0.50 0.30 0 1.20 0.80 2.05 1.75 1.70 1.90 2.70 2.30 2.20 0.80z m-5.80 -7.05 c0 -0.75 -1.40 2.40 -1.40 3.25 0 0.55 0.30 0.10 0.70 -1 0.40 -1.10 0.75 -2.10 0.70 -2.25z m9.95 3.15 c-0.25 -1.30 -1.90 -1.45 -1.90 -0.20 0 0.75 0.30 1.05 1.05 1.05 0.70 0 0.95 -0.25 0.85 -0.85z m-0.05 -4.95 c0.35 -0.90 -0.85 -1.90 -1.55 -1.20 -0.55 0.55 -0.05 2 0.70 2 0.30 0 0.65 -0.35 0.85 -0.80z m-3.15 -1.30 c0.40 -0.60 0.60 -1.30 0.45 -1.55 -0.15 -0.30 -0.50 -0.05 -0.70 0.55 -0.25 0.60 -0.65 1.10 -0.95 1.10 -0.25 0 -0.50 0.25 -0.50 0.50 0 0.85 0.90 0.55 1.70 -0.60z m6.60 0.25 c0.75 -1 0.95 -4.65 0.30 -4.65 -0.25 0 -0.70 0.55 -1 1.25 -0.35 0.75 -0.40 1.25 -0.10 1.25 0.30 0 0.50 0.45 0.50 1 0 1.05 -0.75 1.35 -1.25 0.50 -0.15 -0.25 -0.50 -0.50 -0.80 -0.50 -0.25 0 -0.20 0.45 0.15 1 0.80 1.25 1.35 1.25 2.20 0.15z m-7.30 -3.25 c0 -1.30 -1.20 -0.90 -1.40 0.50 -0.15 0.80 0.05 1 0.60 0.80 0.45 -0.15 0.80 -0.75 0.80 -1.30z m10.50 0.25 c0 -0.25 -0.50 -0.95 -1.05 -1.65 l-1.05 -1.25 0.90 1.65 c0.90 1.60 1.20 1.90 1.20 1.25z"/>
  <path d="M12.85 16.30 c0.50 -0.65 1 -1 1.05 -0.75 0.25 0.60 -0.85 1.95 -1.50 1.95 -0.25 0 -0.05 -0.55 0.45 -1.20z"/>
  <path d="M39 38.25 c-0.50 -0.60 -0.50 -0.75 0.20 -0.75 0.45 0 0.80 0.35 0.80 0.75 0 0.40 -0.10 0.75 -0.20 0.75 -0.10 0 -0.45 -0.35 -0.80 -0.75z"/>
  <path d="M38.60 35.25 c-0.55 -0.70 -1.25 -1.25 -1.55 -1.25 -0.85 0 -0.65 -0.75 0.35 -1.65 1.80 -1.60 2.60 -1.10 2.60 1.65 0 1.40 -0.10 2.50 -0.20 2.50 -0.15 0 -0.65 -0.55 -1.20 -1.25z"/>
  <path d="M34.60 30.80 c-1.10 -1.10 -1.05 -1.80 0.25 -1.80 0.35 0 0.65 0.45 0.65 1 0 0.55 0.25 1 0.50 1 0.30 0 0.50 0.25 0.50 0.50 0 0.80 -0.65 0.55 -1.90 -0.70z"/>
  <path d="M38.50 28.50 c0 -0.55 0.35 -1 0.75 -1 0.40 0 0.75 0.30 0.75 0.70 0 0.40 -0.35 0.80 -0.75 1 -0.50 0.20 -0.75 -0.05 -0.75 -0.70z"/>
 </g>
 <g fill="#521717">
  <path d="M20.05 38.65 c-0.65 -0.75 -1.40 -1.90 -1.70 -2.50 -0.60 -1.30 -2.35 -1.55 -2.35 -0.35 0 1.75 -1.25 0.20 -1.40 -1.70 -0.15 -1.95 -0.25 -2.10 -1.65 -2.10 -0.80 0 -1.45 -0.20 -1.45 -0.50 0 -0.25 0.45 -0.50 1 -0.50 0.95 0 0.95 -0.10 0.30 -1.15 -1.05 -1.55 -0.50 -3.35 0.95 -3.35 1 0 1.25 0.40 1.65 2.35 0.40 1.75 0.35 2.50 -0.05 2.75 -0.45 0.30 -0.45 0.40 0.05 0.40 0.30 0 0.60 0.35 0.60 0.75 0 1.85 9.45 5.50 12.95 4.95 1.30 -0.20 1.90 -0.55 1.75 -0.95 -0.15 -0.35 0.15 -0.75 0.65 -0.95 0.50 -0.15 1.20 -0.45 1.55 -0.60 0.40 -0.20 0.60 0.10 0.60 0.85 0 0.85 0.15 1 0.55 0.60 0.85 -0.85 2.15 -0.25 1.40 0.65 -0.40 0.50 -0.40 0.70 0 0.70 0.40 0 0.40 0.30 -0.05 1 -0.75 1.15 -2.90 1.35 -2.90 0.30 0 -0.55 -1.10 -0.75 -4.90 -0.90 -3.85 -0.10 -5.10 -0.35 -5.80 -1 -1.10 -1.15 -1.30 -1.15 -1.30 0.10 0 0.65 0.35 1 1 1 0.55 0 1 0.35 1 0.75 0 1.15 -1.15 0.85 -2.45 -0.60z"/>
  <path d="M24.40 36.65 c-0.50 -0.10 -0.90 -0.45 -0.90 -0.75 0 -0.25 0.35 -0.35 0.80 -0.20 0.45 0.15 1.90 0.30 3.25 0.30 1.55 0 2.40 0.20 2.20 0.50 -0.30 0.50 -3.70 0.60 -5.35 0.15z"/>
  <path d="M21.15 34.75 c-1.65 -0.70 -2.20 -1.75 -1 -1.75 0.30 0 0.20 -0.25 -0.30 -0.55 -0.50 -0.30 -1.20 -0.45 -1.50 -0.30 -0.35 0.10 -1 -0.30 -1.50 -0.95 -0.50 -0.65 -0.70 -1.20 -0.45 -1.20 1 0 1 -2 0 -3.25 -1.15 -1.45 -1.15 -1.45 1.60 -0.50 1.30 0.45 2.40 0.55 2.90 0.30 1.40 -0.70 5.10 -1.10 5.10 -0.55 0 0.25 0.70 0.35 1.65 0.20 1.45 -0.25 1.50 -0.20 0.75 0.45 -0.50 0.40 -0.90 0.85 -0.90 1.05 0 0.55 1.40 0.30 1.65 -0.30 0.15 -0.45 0.40 -0.50 0.80 -0.10 0.40 0.35 -0.40 0.85 -2.95 1.65 -2.20 0.75 -3.35 1.35 -3.15 1.70 0.25 0.40 0.40 0.35 0.55 -0.05 0.10 -0.35 0.50 -0.60 0.90 -0.60 0.35 0 0.55 0.30 0.40 0.70 -0.25 0.65 1.05 1.50 1.75 1.10 0.20 -0.15 0.35 0.20 0.40 0.70 0.05 0.75 -0.30 1 -1.75 1.10 l-1.85 0.20 2.25 0.60 2.25 0.60 -3.15 -0.25 c-2 -0.15 -3.05 -0.05 -2.85 0.25 0.40 0.60 0.35 0.60 -1.60 -0.25z m-0.15 -5 c-1.50 -0.85 -2 -0.90 -2 -0.30 0 0.40 1.10 0.80 2.75 0.95 0.30 0.05 -0.05 -0.25 -0.75 -0.65z"/>
  <path d="M29.50 33.75 c0 -0.40 0.55 -0.85 1.25 -1.05 1.90 -0.45 2.05 0.10 0.30 1.05 -1.35 0.70 -1.55 0.70 -1.55 0z"/>
  <path d="M38.35 33.65 c0.30 -0.80 0.25 -0.80 -0.50 -0.20 -0.50 0.40 -1 0.55 -1.20 0.35 -0.35 -0.35 2.30 -3.30 2.95 -3.30 0.80 0 0.45 3.40 -0.40 3.70 -1.15 0.45 -1.20 0.40 -0.85 -0.55z"/>
  <path d="M7 33 c-0.40 -0.25 -0.55 -0.60 -0.40 -0.75 0.20 -0.20 0.85 0 1.50 0.45 1.20 0.85 0.25 1.15 -1.10 0.30z"/>
  <path d="M33.10 31.50 c-0.35 -0.55 -0.40 -1 -0.10 -1 0.25 0 0.70 0.45 1 1 0.30 0.55 0.35 1 0.15 1 -0.25 0 -0.70 -0.45 -1.05 -1z"/>
  <path d="M8.20 31.65 c-1.05 -0.20 -2.20 -2 -2.20 -3.45 0 -0.40 0.35 -1.45 0.80 -2.35 0.85 -1.55 0.85 -1.55 1.25 -0.45 0.25 0.65 1 1.90 1.70 2.80 0.70 0.90 1.25 2.15 1.25 2.70 0 1.10 -0.45 1.20 -2.80 0.75z"/>
  <path d="M34.55 30.80 c-0.85 -0.90 -1 -1.30 -0.50 -1.55 0.65 -0.45 1.95 0.95 1.95 2.10 0 0.85 0 0.80 -1.45 -0.55z"/>
  <path d="M32.50 28.60 c0 -0.30 0.25 -0.70 0.50 -0.85 0.75 -0.45 0.10 -1.25 -1 -1.25 -0.50 0 -1.60 -0.85 -2.45 -1.85 -1.40 -1.65 -1.60 -1.80 -2.80 -1.25 -0.80 0.40 -1.25 0.40 -1.25 0.05 0 -0.25 0.75 -0.80 1.65 -1.20 0.85 -0.35 2.25 -1.35 3.05 -2.20 1.55 -1.60 3.30 -2.05 3.30 -0.90 0 0.40 0.55 0.95 1.25 1.25 0.70 0.35 1.40 1 1.60 1.45 0.15 0.50 0.60 1.25 1 1.70 0.60 0.75 0.50 1 -0.70 2.35 -1.75 1.80 -4.15 3.40 -4.15 2.70z"/>
  <path d="M9.95 25.80 c-0.95 -0.75 -2.60 -3.80 -2.25 -4.15 0.15 -0.20 0.70 0.05 1.15 0.45 0.50 0.45 1.50 1.10 2.25 1.45 1.30 0.70 1.30 0.75 0.45 1.75 -0.65 0.85 -1 0.95 -1.60 0.50z"/>
  <path d="M13.50 25.05 c0 -1.05 1.25 -2.30 1.70 -1.65 0.45 0.75 -0.25 2.60 -1 2.60 -0.40 0 -0.70 -0.40 -0.70 -0.95z"/>
  <path d="M17 25 c-1.10 -0.70 -0.50 -0.90 2.75 -1 4.75 -0.15 5.25 0 3.25 0.75 -2.05 0.80 -4.95 0.90 -6 0.25z"/>
  <path d="M11.15 21.90 c-1.20 -0.55 -2.15 -1.35 -2.15 -1.75 0 -0.35 -0.60 -1.25 -1.30 -1.90 -0.75 -0.70 -1.10 -1.25 -0.75 -1.25 0.30 0 0.55 -0.35 0.55 -0.75 0 -0.40 0.45 -0.75 0.95 -0.75 1 0 2.55 3.10 2.55 5.10 0 0.85 0.15 0.95 0.60 0.50 0.70 -0.70 2.20 -0.80 2.60 -0.15 0.15 0.20 0 0.75 -0.35 1.20 -0.55 0.70 -0.80 0.70 -2.70 -0.25z"/>
  <path d="M15.60 22 c-0.55 -0.90 -0.50 -1 0.40 -1 0.65 0 1 0.35 1 1 0 0.55 -0.15 1 -0.40 1 -0.20 0 -0.65 -0.45 -1 -1z"/>
  <path d="M25.50 20.15 c0 -0.85 0.45 -1.80 1.05 -2.35 0.75 -0.60 0.95 -1.20 0.75 -1.95 -0.20 -0.60 -0.45 -1.75 -0.65 -2.55 -0.25 -1.30 -0.20 -1.35 0.75 -0.85 1.50 0.80 3.10 3 3.10 4.25 0 1.15 -1.90 3.25 -3.85 4.25 -1.05 0.55 -1.15 0.50 -1.15 -0.80z"/>
  <path d="M21 18.65 c0 -0.35 -0.65 -0.45 -1.85 -0.30 -1.05 0.15 -2.65 0.05 -3.55 -0.20 l-1.70 -0.40 1.05 -0.95 c0.95 -0.85 1.05 -0.85 1.05 -0.15 0 1.15 0.40 1.05 1.50 -0.25 1.05 -1.35 1.85 -0.95 1.05 0.55 -0.55 0.95 -0.50 0.95 0.80 0.30 1.25 -0.65 1.40 -0.65 1.70 0.10 0.25 0.75 0.35 0.75 0.85 -0.10 0.30 -0.55 0.60 -0.75 0.60 -0.45 0 0.25 -0.35 0.95 -0.75 1.50 -0.40 0.50 -0.75 0.70 -0.75 0.35z"/>
  <path d="M2.65 15.85 l-2.65 -1.10 0 -2.35 c0 -2.65 0.35 -2.85 2.65 -1.70 0.75 0.40 1.35 0.60 1.35 0.40 0 -0.40 0.80 -0.50 4.20 -0.60 1.55 -0.05 2.35 -0.45 3.70 -1.80 1.85 -1.85 2.60 -2.10 2.60 -0.90 0 0.45 -0.45 0.90 -1 1.05 -0.55 0.15 -0.85 0.45 -0.70 0.70 0.40 0.65 0.80 0.55 2.20 -0.60 1.15 -0.95 1.15 -1.10 0.35 -1.55 -0.50 -0.25 -1.10 -1.05 -1.40 -1.70 -0.55 -1.50 -1.45 -1.15 -1.45 0.60 0 0.70 -0.20 1.15 -0.45 1 -0.85 -0.55 0.40 -4.20 2.15 -6.15 0.80 -0.95 1.50 -1.15 3.90 -1.15 3.55 0 4.90 0.60 4.90 2.25 l0 1.20 -1.30 -1.20 c-0.75 -0.70 -1.70 -1.25 -2.15 -1.25 -0.50 0.05 -0.30 0.30 0.60 0.80 1.60 0.90 1.65 1.15 0.35 3.70 -1.05 2.05 -2.25 2.55 -3.40 1.40 -0.35 -0.35 -0.60 -0.45 -0.60 -0.25 0 0.50 3.15 3.30 3.75 3.35 0.25 0 0.95 -0.60 1.60 -1.35 0.85 -1.05 1.10 -1.20 1.15 -0.55 0 0.45 0.25 0.90 0.60 1 1.10 0.40 -0.15 1.40 -2.15 1.70 -2 0.35 -2.50 0.90 -1.20 1.40 0.40 0.15 0.75 0.60 0.75 1 0 0.60 -0.20 0.60 -1.55 -0.05 -0.80 -0.40 -1.65 -0.60 -1.80 -0.45 -0.20 0.15 -0.05 0.30 0.25 0.30 0.35 0 0.60 0.35 0.60 0.80 0 0.65 -0.15 0.70 -0.75 0.20 -0.80 -0.70 -1.75 -0.30 -1.75 0.80 0 0.40 -0.20 0.70 -0.50 0.70 -0.25 0 -0.35 -0.30 -0.20 -0.70 0.15 -0.35 -0.10 -1.05 -0.55 -1.50 -0.65 -0.60 -0.70 -1 -0.30 -1.50 0.45 -0.50 0.25 -0.65 -0.95 -0.60 -1.15 0.05 -1.45 0.25 -1.20 0.90 0.20 0.65 0.05 0.80 -0.50 0.60 -0.45 -0.15 -0.80 -0.05 -0.80 0.30 0 0.30 -0.25 0.40 -0.55 0.20 -0.40 -0.20 -0.40 -0.45 0 -0.85 0.90 -0.90 0.60 -1.35 -0.80 -1.25 -1.55 0.10 -3.15 1.45 -3.15 2.60 0 1.20 -0.90 1.40 -1.85 0.45 -0.65 -0.65 -1.35 -0.85 -2.40 -0.65 -1.50 0.30 -1.50 0.30 1.10 1.50 1.45 0.70 2.60 1.40 2.65 1.65 0 0.50 -0.35 0.40 -3.35 -0.80z m15.25 -6.20 c-0.25 -1.30 -1.90 -1.45 -1.90 -0.20 0 0.75 0.30 1.05 1.05 1.05 0.70 0 0.95 -0.25 0.85 -0.85z"/>
  <path d="M24.20 16.30 c-0.45 -0.45 -0.40 -0.95 0.15 -1.85 l0.70 -1.20 -0.30 1.40 c-0.15 0.75 -0.05 1.35 0.25 1.35 0.25 0 0.50 0.25 0.50 0.50 0 0.70 -0.65 0.60 -1.30 -0.20z"/>
  <path d="M7.50 14.10 c0 -0.25 0.40 -0.80 0.90 -1.25 0.80 -0.70 0.85 -0.70 0.85 0.45 0 0.80 -0.30 1.20 -0.85 1.20 -0.50 0 -0.90 -0.20 -0.90 -0.40z"/>
  <path d="M22.10 13 c0.10 -0.90 0.40 -1.75 0.65 -1.85 0.85 -0.25 0.80 2.20 -0.05 2.90 -0.70 0.55 -0.75 0.45 -0.60 -1.05z"/>
  <path d="M33.85 12.35 c-1.05 -0.90 -2.35 -2.30 -2.85 -3.10 -0.85 -1.25 -1 -1.35 -1 -0.50 l-0.05 1 -0.75 -1 c-0.55 -0.70 -0.75 -0.75 -0.70 -0.25 0.20 1.30 0 2 -0.45 2 -0.80 0 -1.05 -1.55 -0.35 -2.30 1.75 -1.70 4.70 -0.10 7.65 4.20 1.40 2 0.95 2 -1.50 -0.05z"/>
  <path d="M35.70 9.25 c-0.20 -0.40 -0.60 -0.75 -1 -0.75 -0.40 0 -0.70 -0.20 -0.70 -0.50 0 -0.70 1.65 -0.65 2.40 0.10 0.75 0.75 0.80 1.90 0.10 1.90 -0.30 0 -0.65 -0.35 -0.80 -0.75z"/>
 </g>
 <g fill="#363222">
  <path d="M16.75 38.55 c-1.90 -1.75 -3.40 -4.60 -2.95 -5.70 0.25 -0.70 -0.05 -0.85 -2 -0.85 -2.20 0 -2.30 -0.05 -2.30 -1.50 0 -1.70 0.70 -1.95 1.50 -0.50 0.65 1.20 2.25 1.30 2.70 0.20 0.45 -1.20 0.35 -2.20 -0.20 -2.20 -0.25 0 -0.50 0.50 -0.50 1.15 -0.05 0.90 -0.10 0.95 -0.50 0.30 -0.60 -1 -0.05 -2.95 0.80 -2.95 0.40 0 0.70 -0.50 0.70 -1.25 0 -0.70 0.25 -1.25 0.55 -1.25 0.40 0 0.50 0.75 0.35 2.25 -0.15 1.20 -0.05 2.30 0.15 2.35 0.25 0.10 0.60 1.30 0.75 2.65 0.30 2.30 0.45 2.60 2.25 3.45 1.20 0.60 1.95 1.30 1.95 1.90 0 0.50 -0.20 0.90 -0.50 0.90 -0.25 0 -0.50 -0.20 -0.50 -0.40 0 -0.60 -1.95 -2.60 -2.50 -2.60 -0.95 0 -0.50 1.95 0.80 3.50 1.70 2 1.40 2.30 -0.55 0.55z"/>
  <path d="M25.50 39.65 c-2.95 -0.50 -4.50 -1.25 -4.50 -2.20 0 -1.15 0.70 -1.20 3.55 -0.20 2.40 0.85 6.55 0.55 6.15 -0.45 -0.10 -0.30 0.40 -0.85 1.15 -1.15 1.55 -0.75 2.05 -0.50 1.15 0.60 -0.50 0.60 -0.50 0.75 0.10 0.75 0.40 0 0.90 -0.20 1.20 -0.45 0.25 -0.25 1 -0.60 1.70 -0.80 1.05 -0.35 1.10 -0.30 0.50 0.35 -0.40 0.40 -1.30 1.45 -1.95 2.30 -1.30 1.75 -2.05 2.05 -2.05 0.85 0 -0.40 -0.25 -0.75 -0.55 -0.75 -0.30 0 -0.85 0.35 -1.25 0.75 -0.75 0.70 -2.50 0.85 -5.20 0.40z"/>
  <path d="M10.50 37.65 c-4.80 -4.10 -4.75 -4.85 0.30 -3.60 2.45 0.65 2.80 1.45 1.10 2.60 l-1.15 0.75 1.40 0.35 c0.75 0.20 1.35 0.55 1.35 0.80 0 0.85 -1.40 0.45 -3 -0.90z"/>
  <path d="M34.65 34.65 c0.45 -0.45 1 -0.65 1.20 -0.45 0.20 0.20 0.05 0.55 -0.35 0.80 -1.25 0.80 -1.75 0.55 -0.85 -0.35z"/>
  <path d="M23.90 34.65 c-1.50 -0.40 -1 -1.55 0.75 -1.80 l1.60 -0.20 -1.60 -0.05 c-2.55 -0.15 -1.95 -0.85 0.75 -0.90 1.30 0 2.90 -0.20 3.55 -0.45 0.85 -0.30 1.10 -0.25 0.85 0.15 -0.20 0.35 -0.85 0.60 -1.45 0.60 -1 0.05 -1.05 0.05 -0.20 0.55 0.50 0.30 1.35 0.45 1.90 0.30 0.50 -0.15 1.10 -0.05 1.25 0.20 0.15 0.25 -0.05 0.45 -0.50 0.45 -0.40 0 -0.80 0.20 -0.90 0.45 -0.20 0.50 -4.75 1.05 -6 0.70z"/>
  <path d="M19.45 34 c-0.45 -0.25 -1.40 -1.25 -2.15 -2.25 -1 -1.25 -1.15 -1.75 -0.60 -1.75 0.40 0 1.05 0.30 1.45 0.70 0.40 0.40 1.45 0.80 2.40 0.90 1.45 0.10 1.70 0.35 1.85 1.55 0.15 1.15 0 1.35 -1 1.35 -0.65 0 -1.50 -0.25 -1.95 -0.50z"/>
  <path d="M36.50 33.60 c0 -0.20 0.80 -1.15 1.75 -2.10 1.35 -1.30 1.75 -1.50 1.75 -0.80 0 0.45 -0.60 1.40 -1.35 2.05 -1.45 1.25 -2.15 1.55 -2.15 0.85z"/>
  <path d="M34.65 30.90 l-1.10 -1.05 2.35 -2.10 c1.30 -1.20 2.20 -2.30 2 -2.50 -0.15 -0.20 -1.25 0.60 -2.40 1.70 -1.15 1.15 -2.30 2.05 -2.55 2.05 -0.95 0 -0.35 -0.90 1.55 -2.45 1.10 -0.85 2 -1.80 2 -2.05 0 -0.25 -0.65 -0.80 -1.50 -1.25 -1 -0.50 -1.50 -1.15 -1.45 -1.90 0 -0.75 0.10 -0.85 0.30 -0.35 0.30 0.80 1.15 1.50 1.80 1.50 0.20 0 0.10 -0.50 -0.20 -1.10 -0.55 -1.05 -0.55 -1.10 0.20 -0.45 0.50 0.35 0.85 0.95 0.85 1.35 0 0.35 0.80 1.30 1.75 2.05 2.35 1.90 2.30 3.40 -0.15 5.80 -1.05 1 -2 1.85 -2.10 1.80 -0.15 0 -0.75 -0.50 -1.35 -1.05z"/>
  <path d="M23 29.05 c0 -0.30 0.35 -0.55 0.75 -0.55 0.40 0 0.75 -0.40 0.75 -0.95 0 -0.70 0.50 -1 2.05 -1.25 1.15 -0.20 2.15 -0.25 2.25 -0.15 0.10 0.05 -0.60 0.75 -1.50 1.45 -1.90 1.50 -4.30 2.30 -4.30 1.45z"/>
  <path d="M16.30 26.55 c-0.95 -1.05 -0.60 -1.40 0.65 -0.60 0.35 0.25 0.60 0.70 0.45 1.05 -0.10 0.35 -0.50 0.20 -1.10 -0.45z"/>
  <path d="M30.15 25.40 c-1.55 -1.75 -1.80 -2.40 -0.95 -2.40 0.45 0 0.80 0.45 0.80 1 0 0.55 0.25 1 0.55 1 0.30 0 0.40 -0.45 0.20 -1.05 -0.25 -0.75 -0.15 -1 0.30 -0.85 0.75 0.25 1.30 3.40 0.55 3.40 -0.25 0 -0.90 -0.50 -1.45 -1.10z"/>
  <path d="M33.50 26.10 c0 -0.25 0.35 -0.75 0.75 -1.10 0.40 -0.35 0.75 -0.40 0.75 -0.10 0 0.25 -0.35 0.75 -0.75 1.10 -0.40 0.35 -0.75 0.40 -0.75 0.10z"/>
  <path d="M8.10 23 c-0.90 -1.45 -0.75 -1.80 0.40 -0.75 1 0.90 1.30 1.75 0.60 1.75 -0.20 0 -0.65 -0.45 -1 -1z"/>
  <path d="M20 21.50 c0 -0.30 1.55 -1.20 3.50 -2.05 3.70 -1.65 4.35 -2.50 3.55 -4.65 -0.50 -1.20 -0.40 -1.30 0.75 -1.30 1.15 0 1.25 0.10 1.10 2.65 -0.10 1.40 -0.40 2.90 -0.75 3.25 -1.70 1.80 -8.15 3.45 -8.15 2.10z"/>
  <path d="M8.55 17.90 c-0.75 -2.40 -0.85 -4.55 -0.30 -4.75 0.30 -0.10 1.20 1.30 2.05 3.10 l1.50 3.25 -1.35 0 c-1.10 0 -1.45 -0.30 -1.90 -1.60z"/>
  <path d="M34.95 18.65 c-1.75 -2.10 -2.05 -2.65 -1.55 -2.65 0.60 0 2.85 2.95 2.50 3.30 -0.15 0.10 -0.55 -0.20 -0.95 -0.65z"/>
  <path d="M21 18.60 c0 -0.35 -0.85 -0.45 -2.50 -0.25 -2.10 0.25 -2.50 0.15 -2.50 -0.55 0 -0.45 -0.20 -0.80 -0.45 -0.80 -0.20 0 -0.35 -0.60 -0.25 -1.30 0.05 -0.75 -0.10 -1.90 -0.35 -2.55 -0.25 -0.75 -0.25 -1.10 0 -0.90 0.25 0.15 0.60 0.05 0.80 -0.25 0.50 -0.85 1.25 -0.55 1.25 0.50 0 0.55 -0.20 1 -0.50 1 -0.25 0 -0.50 0.70 -0.50 1.55 0 1.20 0.20 1.50 0.90 1.35 0.55 -0.10 0.85 -0.65 0.85 -1.55 -0.05 -0.75 0.10 -1.35 0.30 -1.35 0.65 0 0.95 2.55 0.45 3.50 -0.65 1.20 -0.35 1.25 1.25 0.20 1.20 -0.75 1.25 -0.75 1.25 0.10 0.05 0.90 0.05 0.90 0.75 0 0.60 -0.80 0.75 -0.85 0.75 -0.20 0 0.40 -0.35 1.05 -0.75 1.40 -0.50 0.40 -0.75 0.45 -0.75 0.10z"/>
  <path d="M24.30 16.15 c-0.20 -0.45 -0.10 -1.05 0.20 -1.35 0.40 -0.40 0.45 -0.30 0.25 0.35 -0.20 0.50 -0.10 0.85 0.20 0.85 0.30 0 0.55 0.25 0.55 0.50 0 0.80 -0.85 0.55 -1.20 -0.35z"/>
  <path d="M22.10 12.95 c0.10 -0.90 0.45 -1.70 0.80 -1.85 0.55 -0.15 0.60 0 0.20 0.70 -0.25 0.55 -0.35 1.20 -0.25 1.55 0.10 0.30 -0.05 0.70 -0.35 0.90 -0.40 0.25 -0.50 -0.15 -0.40 -1.30z"/>
  <path d="M4.85 13.45 c-0.50 -0.30 -1.25 -0.40 -1.65 -0.25 -0.50 0.20 -0.70 -0.15 -0.70 -1.30 0 -1.45 0.10 -1.50 1.50 -1.20 0.85 0.15 2.05 0.05 2.70 -0.20 1.70 -0.60 1.85 -0.15 0.70 1.80 -1.10 1.85 -1.20 1.90 -2.55 1.15z"/>
  <path d="M10.50 13 c0 -0.40 0.25 -1.10 0.50 -1.50 0.45 -0.65 0.55 -0.65 1 0 0.65 1 0.65 1.65 -0.05 1.20 -0.30 -0.15 -0.75 0 -1 0.35 -0.35 0.60 -0.45 0.55 -0.45 -0.05z"/>
  <path d="M32.75 10.80 c-1.55 -1.60 -2.80 -2.45 -2.95 -2.15 -0.15 0.45 -0.40 0.40 -0.80 -0.15 -0.50 -0.65 -0.55 -0.65 -0.30 0.10 0.30 0.95 -0.55 1.75 -1.20 1.10 -0.25 -0.25 -0.50 -0.90 -0.60 -1.45 -0.15 -0.85 0.20 -0.95 3.80 -1.10 4.20 -0.20 6.30 0.55 6.30 2.20 0 0.75 -0.10 0.75 -0.85 0 -0.50 -0.40 -1.80 -0.90 -2.90 -1.10 l-2 -0.30 1.50 1.40 c1.55 1.40 3.50 4.15 3 4.15 -0.15 0 -1.50 -1.20 -3 -2.70z"/>
  <path d="M10.25 10.20 c0.55 -0.40 1.55 -0.65 2.25 -0.55 0.70 0.15 1.65 0.05 2.10 -0.20 0.50 -0.25 0.90 -0.30 0.90 -0.05 0 0.25 -0.55 0.75 -1.25 1.10 -0.95 0.50 -1.35 0.50 -1.95 0.05 -0.50 -0.40 -0.80 -0.45 -1.05 -0.05 -0.15 0.25 -0.70 0.50 -1.15 0.50 -0.75 -0.05 -0.70 -0.15 0.15 -0.80z"/>
  <path d="M20.40 10.65 c-0.10 -0.20 0.45 -1 1.20 -1.75 0.75 -0.75 1.40 -1.05 1.40 -0.70 0 0.80 -2.35 3 -2.60 2.45z"/>
  <path d="M18.35 10.20 c-0.20 -0.20 -0.35 -0.70 -0.35 -1.15 0 -0.55 0.15 -0.60 0.55 -0.20 0.30 0.30 0.50 0.80 0.35 1.15 -0.10 0.30 -0.35 0.40 -0.55 0.20z"/>
  <path d="M25.30 8.80 c0.25 -0.60 -0.75 -2.70 -2.55 -5.50 -0.40 -0.60 -1.30 -1.45 -2 -1.80 -1.75 -0.95 -1.55 -1.50 0.50 -1.50 0.95 0 1.75 0.25 1.75 0.50 0 0.30 0.30 0.50 0.70 0.50 0.90 0 2.75 5.45 2.45 7.20 -0.15 0.70 -0.45 1.30 -0.70 1.30 -0.25 0 -0.30 -0.30 -0.15 -0.70z"/>
  <path d="M13 8.05 c0 -0.60 0.30 -1.05 0.80 -1.05 0.45 0 0.70 0.35 0.60 0.85 -0.25 1.25 -1.40 1.40 -1.40 0.20z"/>
  <path d="M19.75 8.50 c-0.35 -0.60 0.10 -1.50 0.80 -1.50 0.25 0 0.45 0.45 0.45 1 0 1.05 -0.75 1.35 -1.25 0.50z"/>
  <path d="M14.50 6.25 c-0.35 -0.40 -0.40 -0.75 -0.10 -0.75 0.25 0 0.75 0.35 1.10 0.75 0.35 0.40 0.40 0.75 0.10 0.75 -0.25 0 -0.75 -0.35 -1.10 -0.75z"/>
  <path d="M12 4.75 c0 -0.45 1.25 -2.45 2.20 -3.60 0.55 -0.65 1.50 -1.15 2.15 -1.15 1.70 0 1.40 0.70 -0.60 1.50 -2 0.80 -1.95 0.70 -1.20 2.10 0.50 0.90 0.45 1 -0.25 0.75 -0.40 -0.15 -0.90 -0.10 -1.05 0.15 -0.30 0.50 -1.25 0.70 -1.25 0.25z"/>
  <path d="M15.50 2.50 c0 -0.25 0.45 -0.50 1 -0.50 0.55 0 1 0.25 1 0.50 0 0.30 -0.45 0.50 -1 0.50 -0.55 0 -1 -0.20 -1 -0.50z"/>
 </g>
 <g fill="#663829">
  <path d="M20.70 39.10 c-1.10 -0.85 -3.15 -4.35 -2.35 -4.05 0.20 0.10 2.05 0.85 4.05 1.65 2.65 1.05 3.60 1.70 3.60 2.40 0 0.75 -0.40 0.90 -2.10 0.90 -1.30 0 -2.60 -0.40 -3.20 -0.90z"/>
  <path d="M29.90 39.65 c-2.30 -0.25 -2.45 -1.05 -0.40 -1.80 0.85 -0.30 1.50 -0.85 1.50 -1.20 0 -0.35 0.20 -0.65 0.45 -0.65 0.25 0 0.90 -0.15 1.40 -0.35 0.80 -0.30 0.80 -0.25 0.20 0.50 -0.60 0.75 -0.55 0.85 0.40 0.85 1.20 0 1.20 0 0.55 1.70 -0.30 0.80 -0.85 1.25 -1.35 1.20 -0.50 -0.05 -1.75 -0.15 -2.75 -0.25z"/>
  <path d="M11.90 38.60 c-0.50 -0.10 -0.90 -0.40 -0.90 -0.65 0 -0.55 0.55 -0.55 1.50 0.05 0.90 0.55 0.55 0.90 -0.60 0.60z"/>
  <path d="M15.05 35.70 c-0.60 -0.95 -1.05 -2.20 -1.05 -2.70 0 -0.50 -0.20 -1.05 -0.45 -1.20 -0.25 -0.20 -0.25 -0.90 0.10 -1.80 0.60 -1.60 0.10 -2.65 -0.70 -1.50 -0.40 0.55 -0.45 0.15 -0.30 -1.40 0.25 -2.15 1.60 -4.30 2.35 -3.85 0.60 0.35 0 2.25 -0.70 2.25 -0.35 0 -0.35 0.15 0.05 0.40 0.35 0.20 0.90 2.05 1.25 4.10 0.35 2.05 0.85 3.90 1.15 4.10 0.30 0.25 0.15 0.40 -0.35 0.40 -0.70 0 -0.75 0.25 -0.40 1.50 0.55 1.95 0.35 1.90 -0.95 -0.30z"/>
  <path d="M7.95 35.05 c-1.30 -1.30 -1.95 -3.05 -1.15 -3.05 0.65 0 4.60 3.05 4.85 3.75 0.55 1.35 -2.10 0.90 -3.70 -0.70z"/>
  <path d="M24.80 34.55 c-0.15 -0.25 -1.20 -0.35 -2.30 -0.20 -2.35 0.35 -4.10 -0.65 -5.30 -2.90 -0.75 -1.50 -0.75 -1.55 0.35 -1.20 0.70 0.25 0.95 0.20 0.75 -0.20 -0.20 -0.30 0.70 -0.10 2 0.50 1.30 0.55 3.40 1.15 4.65 1.30 1.25 0.15 2.60 0.50 2.90 0.80 0.35 0.25 1.20 0.35 1.90 0.25 2 -0.40 2 0.55 0.05 1.35 -2 0.85 -4.60 1 -5 0.30z"/>
  <path d="M38.50 32.05 c0 -0.25 0.35 -0.70 0.75 -1.05 0.60 -0.50 0.75 -0.50 0.75 0.15 0 0.40 -0.35 0.85 -0.75 1.05 -0.40 0.15 -0.75 0.10 -0.75 -0.15z"/>
  <path d="M9.25 31.45 c-0.20 -0.30 -0.65 -0.40 -1 -0.25 -1.65 0.60 -2.60 -3.05 -1.45 -5.35 l0.85 -1.60 0.40 1.35 c0.20 0.70 0.50 1.60 0.70 2 0.15 0.35 -0.05 0.20 -0.55 -0.35 -0.75 -0.90 -0.80 -0.90 -0.50 -0.10 0.15 0.50 0.30 1.05 0.30 1.15 0 0.10 0.30 0.20 0.65 0.20 1 0 2.20 1.10 2.60 2.40 0.25 0.90 0.10 1.10 -0.70 1.10 -0.55 0 -1.15 -0.25 -1.30 -0.55z"/>
  <path d="M19.25 28.70 c-3.35 -1.85 -4.45 -3.70 -1.50 -2.50 1.20 0.55 2.75 0.70 4.90 0.50 3.65 -0.30 5.05 0.30 3.75 1.60 -1.20 1.20 -5.30 1.40 -7.15 0.40z"/>
  <path d="M34.40 26.70 c2.15 -1.85 2.60 -2.70 1.40 -2.70 -0.40 0 -0.85 -0.30 -1 -0.60 -0.15 -0.35 -0.15 -0.15 0 0.50 0.45 1.70 -1 3.10 -2.70 2.65 -1.25 -0.35 -1.35 -0.55 -1.25 -2.70 0.05 -1.40 -0.10 -2.25 -0.40 -2.10 -0.25 0.20 -0.45 0.85 -0.45 1.55 0 1.45 -0.80 1.60 -1.25 0.20 -0.35 -1.10 0.20 -2.35 1.70 -3.70 1.75 -1.55 2.90 -1.40 3.25 0.50 0.20 0.90 0.70 1.75 1.10 1.90 1.15 0.45 1.30 0.40 0.95 -0.30 -0.20 -0.35 0.15 -0.10 0.70 0.60 0.55 0.70 1.05 1.50 1.05 1.75 0 0.80 -3.70 4.25 -4.50 4.25 -0.40 0 0.20 -0.80 1.40 -1.80z"/>
  <path d="M9.25 24.25 c-1.85 -1.80 -1.50 -2.20 0.95 -1.05 1.70 0.80 2.10 1.15 1.70 1.65 -0.75 0.95 -1.30 0.80 -2.65 -0.60z"/>
  <path d="M17.40 25.15 c-1.85 -0.45 -0.80 -1.15 1.75 -1.15 2.40 0 4.05 -0.30 7.30 -1.30 0.85 -0.25 1.10 -0.20 0.85 0.20 -0.40 0.70 -6.50 2.60 -8 2.55 -0.55 -0.05 -1.45 -0.15 -1.90 -0.30z"/>
  <path d="M15.80 22.20 c-0.15 -0.45 -0.30 -0.90 -0.30 -1 0 -0.10 1.60 -0.20 3.50 -0.20 2.65 0 3.50 0.15 3.50 0.70 0 1.40 -6.15 1.90 -6.70 0.50z"/>
  <path d="M11 21.85 c-2.40 -1.20 -4.55 -8.10 -2.70 -8.70 0.30 -0.10 1.05 1.15 1.65 2.80 0.85 2.30 1.50 3.25 2.85 4.05 1.40 0.90 1.60 1.25 1.15 1.80 -0.70 0.85 -1.35 0.85 -2.95 0.05z"/>
  <path d="M23 21.05 c0 -0.65 0.75 -1.40 2.15 -2.15 1.75 -1 2.10 -1.40 2.05 -2.65 -0.05 -0.85 -0.25 -2.05 -0.45 -2.65 -0.40 -1.20 -0.40 -1.20 1.15 -0.40 1.70 0.85 2.60 2.15 2.60 3.65 0 1.15 -2.10 3.20 -4.35 4.35 -2.10 1.05 -3.15 1 -3.15 -0.15z m6.10 -4.25 c-0.20 -0.35 -0.40 -0.25 -0.50 0.35 -0.10 0.45 -0.35 0.85 -0.60 0.85 -0.20 0 -0.55 0.40 -0.70 0.85 -0.25 0.65 0 0.55 0.90 -0.30 0.70 -0.65 1.10 -1.45 0.90 -1.75z"/>
  <path d="M33.10 16.35 c-2.65 -3.10 -3.45 -4.80 -1.55 -3.05 1.40 1.25 4.65 5.70 4.35 5.95 -0.10 0.15 -1.40 -1.15 -2.80 -2.90z"/>
  <path d="M15.40 18.15 c-1.05 -0.25 -1.10 -0.60 -0.20 -1.80 0.50 -0.65 0.75 -0.75 0.95 -0.25 0.15 0.50 0.40 0.55 1.30 0.05 0.55 -0.35 1.15 -0.65 1.30 -0.65 0.50 0 0.20 0.95 -0.55 1.70 -0.65 0.70 -0.70 0.80 0 0.80 0.40 0 0.90 -0.20 1.05 -0.50 0.15 -0.25 0.70 -0.50 1.15 -0.50 0.75 0.05 0.75 0.10 -0.10 0.75 -0.95 0.70 -3.10 0.90 -4.90 0.40z"/>
  <path d="M2.15 15.60 c-1.20 -0.45 -2.15 -1 -2.15 -1.20 0 -0.60 0.50 -0.45 3.25 0.85 2.85 1.35 2.05 1.60 -1.10 0.35z"/>
  <path d="M4.90 14.05 c-0.45 -0.60 -1.10 -1.05 -1.45 -0.95 -1.10 0.20 -3.45 -1.60 -3.45 -2.70 0 -0.75 0.15 -0.85 0.95 -0.40 0.55 0.25 1.45 0.50 2 0.50 0.60 0 1.05 0.35 1.05 0.80 0 0.70 0.10 0.70 1.10 0 0.60 -0.45 1.65 -0.80 2.35 -0.80 1.15 0 1.15 0.05 0.40 0.90 -0.50 0.50 -0.85 1.15 -0.85 1.40 0 0.30 -0.30 0.90 -0.65 1.45 -0.65 0.85 -0.70 0.85 -1.45 -0.20z"/>
  <path d="M15.55 14.25 c0 -0.60 -0.35 -1.35 -0.65 -1.70 -0.55 -0.50 -0.50 -0.60 0.05 -0.45 0.85 0.20 1.20 -0.65 0.60 -1.50 -0.35 -0.55 -0.60 -0.60 -1.45 -0.05 -0.80 0.50 -1.20 0.50 -1.70 0.05 -0.55 -0.45 -0.85 -0.45 -1.30 0 -0.30 0.30 -0.75 0.40 -0.95 0.20 -0.60 -0.60 1 -1.35 2.35 -1.10 0.70 0.10 1.60 0 2.05 -0.25 0.60 -0.30 0.95 -0.20 1.15 0.30 0.35 0.95 2.30 1 2.30 0 0 -0.35 -0.40 -0.90 -0.85 -1.20 -0.50 -0.25 -0.75 -0.65 -0.50 -0.85 0.45 -0.45 2.35 1.25 2.35 2.15 0 0.35 -0.35 1.25 -0.80 1.90 -0.50 0.75 -0.60 1.25 -0.25 1.25 0.30 0 0.55 0.50 0.55 1.15 -0.05 1 -0.10 1 -0.55 0.25 -0.25 -0.50 -0.80 -0.90 -1.20 -0.90 -0.35 0 -0.80 0.40 -0.90 0.90 -0.20 0.70 -0.25 0.65 -0.30 -0.15z"/>
  <path d="M34.95 12.85 c-1.65 -1.45 -2.70 -2.85 -2.10 -2.85 0.25 0 1.20 0.90 2.10 2 1.85 2.30 1.85 2.45 0 0.85z"/>
  <path d="M10.35 13.15 c-0.35 -0.30 0.75 -2.15 1.25 -2.15 0.25 0 0.40 0.25 0.40 0.55 0 0.70 -1.30 2 -1.65 1.60z"/>
  <path d="M21 9.55 c0.95 -0.80 1.85 -1.35 1.95 -1.25 0.40 0.35 -2.10 2.70 -2.90 2.70 -0.45 0 -0.10 -0.55 0.95 -1.45z"/>
  <path d="M19.80 8.05 c-0.15 -0.25 0.05 -0.55 0.45 -0.75 0.45 -0.15 0.75 0 0.75 0.45 0 0.80 -0.80 1 -1.20 0.30z"/>
  <path d="M14.60 6.40 c-0.35 -0.35 -0.60 -1.05 -0.60 -1.60 0 -0.80 -0.15 -0.85 -0.60 -0.40 -1.15 1.15 -1.40 0.60 -0.50 -1.10 1.60 -3 2.30 -3.40 4.70 -2.90 l2.15 0.50 -2.10 0.05 c-1.20 0.05 -2.15 0.30 -2.15 0.55 0 0.30 -0.35 0.50 -0.80 0.50 -0.55 0 -0.70 0.25 -0.45 0.90 0.20 0.45 0.50 1.30 0.65 1.85 0.10 0.55 0.45 1.30 0.75 1.65 0.60 0.80 -0.25 0.80 -1.05 0z"/>
  <path d="M19 5.55 c1.55 -1.30 1.65 -1.50 1 -2.30 -0.65 -0.80 -0.65 -0.90 0 -0.65 0.40 0.10 0.85 0.65 0.90 1.10 0.20 1.05 -1.75 3.30 -2.85 3.30 -0.45 0 -0.10 -0.55 0.95 -1.45z"/>
  <path d="M16.75 5.10 c0.20 -0.75 0.10 -1.20 -0.45 -1.40 -1.40 -0.55 -0.95 -1.80 0.60 -1.60 1.50 0.15 1.60 1.30 0.25 3.15 -0.75 1 -0.75 1 -0.40 -0.15z"/>
  <path d="M21.30 1.70 c-0.85 -0.60 -0.85 -0.70 -0.20 -0.70 0.45 0 1 0.25 1.15 0.55 0.55 0.85 0.10 0.90 -0.95 0.15z"/>
 </g>
 <g fill="#715534">
  <path d="M20.65 38.85 c-0.65 -0.65 -1.15 -1.50 -1.15 -1.95 0 -0.65 0.30 -0.70 1.65 -0.40 0.85 0.20 2.20 0.65 2.95 0.90 1.90 0.75 4.15 0.80 7.35 0.15 1.50 -0.30 2.85 -0.45 2.95 -0.30 0.15 0.15 -0.25 0.80 -0.90 1.50 -1.10 1.20 -1.45 1.25 -6.45 1.20 -4.80 0 -5.40 -0.10 -6.40 -1.10z"/>
  <path d="M11.70 38.25 c-0.50 -0.40 -0.70 -0.70 -0.45 -0.75 0.75 0 2 0.90 1.70 1.20 -0.15 0.15 -0.70 -0.05 -1.25 -0.45z"/>
  <path d="M14.85 35.35 c-0.60 -1.10 -0.85 -2.55 -0.80 -4.15 0.15 -2.90 -0.50 -4.50 -1.10 -2.90 -0.35 0.85 -0.40 0.80 -0.40 -0.30 -0.05 -2.05 0.50 -3.40 1.45 -3.65 0.75 -0.20 0.90 0.25 1.25 3.10 0.45 4.55 0.80 9.55 0.60 9.55 -0.05 0 -0.50 -0.75 -1 -1.65z"/>
  <path d="M7.95 34.95 c-1.65 -1.75 -2 -3.35 -0.55 -2.45 0.45 0.30 1.55 0.95 2.35 1.45 0.85 0.50 1.55 1.25 1.65 1.70 0.30 1.45 -1.85 1 -3.45 -0.70z"/>
  <path d="M23.25 34.55 c-1.10 -0.25 -2.20 -0.35 -2.50 -0.25 -0.65 0.20 -2.35 -1.20 -3.45 -2.85 l-0.85 -1.30 2.30 0.50 c1.25 0.30 2.25 0.75 2.25 1 0 0.25 0.35 0.35 0.75 0.20 0.40 -0.20 0.85 -0.10 1 0.10 0.10 0.25 1.25 0.30 2.50 0.15 1.40 -0.15 2.25 -0.05 2.25 0.30 0 0.30 -0.40 0.65 -0.85 0.75 -0.50 0.15 0.10 0.25 1.35 0.30 1.55 0.05 2.05 0.20 1.65 0.60 -0.70 0.70 -3.95 0.95 -6.40 0.50z"/>
  <path d="M37 33.10 c0 -0.25 0.70 -0.90 1.50 -1.50 1.75 -1.35 2 -0.75 0.35 0.80 -1.20 1.15 -1.85 1.40 -1.85 0.70z"/>
  <path d="M8.65 31.30 c-1.80 -0.65 -2.65 -1.30 -1.70 -1.30 0.40 0 0.30 -0.40 -0.25 -1.25 -0.75 -1.15 -0.75 -1.35 0 -2.50 1.10 -1.65 1.45 -1.60 1.05 0.15 -0.30 1.55 0.30 2.35 2 2.70 0.55 0.10 1 0.40 1 0.75 0 0.30 0.15 0.75 0.40 0.95 0.55 0.55 0.40 1.20 -0.25 1.15 -0.35 -0.05 -1.35 -0.35 -2.25 -0.65z"/>
  <path d="M35.90 31.65 c-0.15 -0.20 0.50 -1.05 1.40 -1.80 0.95 -0.80 1.70 -1.25 1.70 -1 0 0.70 -2.85 3.30 -3.10 2.80z"/>
  <path d="M34.30 30.05 c-0.30 -0.50 4.20 -5.20 4.60 -4.80 0.30 0.30 -0.90 2.05 -2.55 3.90 -1.40 1.45 -1.65 1.60 -2.05 0.90z"/>
  <path d="M23.50 27.50 c0 -1.05 1.65 -1.40 2.90 -0.55 0.50 0.30 0.25 0.55 -0.95 1 -2.05 0.70 -1.95 0.70 -1.95 -0.45z"/>
  <path d="M34.90 26.25 c1.25 -1.25 2.35 -2.15 2.50 -2 0.40 0.35 -3.45 4.25 -4.20 4.25 -0.30 0 0.45 -1 1.70 -2.25z"/>
  <path d="M16.60 26.90 c-0.95 -0.95 -0.70 -1.50 0.40 -0.90 0.55 0.30 1 0.75 1 1 0 0.70 -0.70 0.60 -1.40 -0.10z"/>
  <path d="M31.65 26.15 c-0.65 -0.10 -1.15 -0.45 -1.15 -0.70 0 -0.30 0.20 -0.40 0.45 -0.25 0.20 0.15 0.30 -0.30 0.15 -0.95 -0.10 -0.70 0 -1.25 0.30 -1.25 0.30 0 0.50 -0.70 0.45 -1.55 l-0.10 -1.50 -1.15 1.35 c-0.70 0.75 -1.10 1.75 -0.95 2.25 0.15 0.55 0.05 0.95 -0.20 0.95 -0.45 0 -0.65 -1.05 -0.45 -2.50 0.10 -1.15 2.65 -3.30 3.55 -3.10 0.90 0.15 1.60 2.45 0.90 2.90 -0.25 0.15 -0.45 0 -0.45 -0.25 0 -0.30 -0.25 -0.55 -0.55 -0.55 -0.40 0 -0.40 0.25 0.05 0.75 0.50 0.60 0.50 0.90 0 1.50 -0.50 0.60 -0.50 0.95 -0.10 1.35 0.45 0.45 0.60 0.40 0.60 -0.30 0 -1.35 1.15 -2.30 2.15 -1.70 0.60 0.30 0.85 0.25 0.85 -0.15 0 -0.35 0.10 -0.50 0.25 -0.35 0.15 0.15 0.15 0.65 -0.05 1.10 -0.25 0.65 -0.45 0.70 -1 0.25 -0.95 -0.80 -1.50 -0.15 -0.70 0.80 0.50 0.60 0.45 0.80 -0.20 1.05 -0.45 0.15 -0.65 0.50 -0.50 0.75 0.25 0.45 -0.20 0.50 -2.15 0.10z"/>
  <path d="M17.50 24.90 c-1.10 -0.50 -0.75 -0.60 2.75 -0.95 2.20 -0.20 4.60 -0.60 5.40 -0.90 2.30 -0.90 1.50 -0.10 -1 1 -1.30 0.55 -2.75 0.90 -3.25 0.80 -0.50 -0.15 -0.90 -0.05 -0.90 0.20 0 0.60 -1.45 0.50 -3 -0.15z"/>
  <path d="M9 23.90 c-0.55 -0.60 -0.90 -1.15 -0.85 -1.20 0.25 -0.30 3.85 1.50 3.85 1.90 0 0.80 -2 0.35 -3 -0.70z"/>
  <path d="M15.80 22.20 c-0.15 -0.45 -0.30 -0.85 -0.30 -0.95 0 -0.05 1.30 -0.25 2.95 -0.35 1.90 -0.15 3.95 -0.70 5.85 -1.70 2.65 -1.30 2.95 -1.60 2.90 -2.95 0 -0.80 -0.20 -1.95 -0.40 -2.50 -0.30 -0.75 -0.10 -0.65 0.90 0.40 1.25 1.35 1.25 1.45 0.50 2.90 -0.40 0.80 -1.45 1.95 -2.35 2.45 -1.35 0.85 -1.45 1 -0.55 1 0.60 0 1.65 -0.55 2.40 -1.25 1.50 -1.35 1.80 -1.50 1.80 -0.75 0 0.65 -3.30 2.70 -5.50 3.40 -0.95 0.35 -3.15 0.70 -4.85 0.80 -2.45 0.20 -3.15 0.10 -3.35 -0.50z"/>
  <path d="M10.40 21.15 c-0.45 -0.50 -1.25 -1.85 -1.85 -3.05 -0.85 -1.65 -1 -2.45 -0.65 -3.75 l0.45 -1.60 0.80 1.55 c0.45 0.85 0.70 1.70 0.55 1.80 -0.10 0.15 0.80 1.40 2.05 2.80 1.25 1.35 2.25 2.65 2.25 2.80 0 0.70 -2.90 0.25 -3.60 -0.55z"/>
  <path d="M33.45 16.85 c-2.55 -2.95 -3.60 -5.25 -1.20 -2.60 2.35 2.55 3.95 4.75 3.40 4.70 -0.20 0 -1.20 -1 -2.20 -2.10z"/>
  <path d="M15.15 17.40 c0.10 -0.35 0.70 -0.65 1.30 -0.65 0.60 0 1.30 -0.35 1.55 -0.75 0.25 -0.40 0.55 -0.60 0.70 -0.45 0.15 0.15 -0.05 0.75 -0.50 1.35 -0.80 1.20 -3.45 1.60 -3.05 0.50z"/>
  <path d="M4.60 13.50 c-0.35 -0.55 -0.90 -1 -1.25 -1 -0.35 0 -1.25 -0.30 -2 -0.60 -1.65 -0.80 -1.85 -2.15 -0.20 -1.70 0.60 0.15 1.50 0.30 2 0.30 0.45 0 0.85 0.30 0.85 0.70 0 0.65 0.20 0.65 1.40 0 1.45 -0.75 2.80 -0.95 2.50 -0.30 -0.15 0.20 -0.50 1.10 -0.85 2 -0.75 1.85 -1.55 2.05 -2.45 0.60z"/>
  <path d="M15.50 13.40 c0.05 -0.75 0.80 -1.75 2.40 -3.10 1.75 -1.50 1.30 -0.20 -0.65 1.85 -0.95 1 -1.75 1.55 -1.75 1.25z"/>
  <path d="M35.75 9 c-0.75 -0.85 -0.80 -1 -0.15 -1 0.45 0 0.95 0.35 1.10 0.80 0.50 1.25 0.05 1.35 -0.95 0.20z"/>
  <path d="M19.85 8.20 c-0.40 -0.40 0.05 -1.20 0.70 -1.20 0.25 0 0.45 0.35 0.45 0.75 0 0.75 -0.60 1 -1.15 0.45z"/>
  <path d="M17.75 6.50 c0.15 -0.25 0.65 -0.50 1.05 -0.50 0.40 0 0.60 0.25 0.45 0.50 -0.15 0.30 -0.65 0.50 -1.05 0.50 -0.40 0 -0.60 -0.20 -0.45 -0.50z"/>
 </g>
 <g fill="#68b501">
  <path d="M18.60 36 c-0.35 -0.55 -0.40 -1 -0.20 -1 0.25 0 0.85 0.45 1.35 1 0.70 0.75 0.75 1 0.20 1 -0.40 0 -1 -0.45 -1.35 -1z"/>
  <path d="M34.45 30.20 c-0.15 -0.25 0.80 -1.55 2.15 -2.90 1.30 -1.35 2.40 -2.20 2.40 -1.95 0 0.85 -4.30 5.40 -4.55 4.85z"/>
  <path d="M34.65 26.85 c1 -0.95 1.85 -1.95 1.85 -2.30 0 -0.30 0.25 -0.55 0.55 -0.55 1 0 -1.60 3.25 -3.30 4.05 -0.55 0.30 -0.15 -0.25 0.90 -1.20z"/>
  <path d="M13.10 8.05 c0.20 -0.65 0.90 -0.80 0.95 -0.20 0 0.20 -0.25 0.45 -0.55 0.60 -0.35 0.10 -0.55 -0.10 -0.40 -0.40z"/>
  <path d="M20 7.75 c0 -0.40 0.25 -0.75 0.50 -0.75 0.30 0 0.50 0.35 0.50 0.75 0 0.40 -0.20 0.75 -0.50 0.75 -0.25 0 -0.50 -0.35 -0.50 -0.75z"/>
  <path d="M13.50 2.15 c0 -0.55 1.85 -2.15 2.50 -2.15 0.95 0 0.50 0.80 -1 1.65 -0.80 0.50 -1.50 0.70 -1.50 0.50z"/>
 </g>
 <g fill="#8c6644">
  <path d="M21.40 39.20 c-0.75 -0.40 -1.75 -1.40 -2.15 -2.20 -0.75 -1.45 -0.50 -1.95 0.55 -1.10 0.25 0.25 1.45 0.75 2.65 1.10 2.05 0.65 2.15 0.75 1 1.10 -1.45 0.40 5.50 0.10 8.30 -0.35 1.90 -0.35 1.95 -0.35 1 0.40 -0.55 0.45 -1.40 0.85 -1.85 0.85 -0.45 0 -1 0.25 -1.15 0.50 -0.50 0.80 -6.80 0.55 -8.35 -0.30z"/>
  <path d="M7.50 34.40 c-1.40 -2.30 -1.25 -2.65 0.50 -1.40 0.85 0.60 1.50 1.20 1.50 1.35 0 0.15 -0.35 0 -0.75 -0.35 -1 -0.85 -0.95 -0.05 0.10 1.10 0.50 0.55 0.60 0.90 0.20 0.90 -0.30 0 -1 -0.75 -1.55 -1.60z"/>
  <path d="M18.60 32.95 c-0.90 -0.85 -1.60 -1.80 -1.60 -2.05 0 -0.75 4.10 0.05 5.60 1.10 0.70 0.55 2.50 1.30 4 1.70 l2.65 0.75 -3.60 -0.10 c-2.80 -0.10 -3.95 -0.40 -5.10 -1.25 -2.05 -1.50 -2.65 -1.40 -0.80 0.15 0.85 0.65 1.25 1.20 0.95 1.25 -0.25 0 -1.25 -0.70 -2.10 -1.55z"/>
  <path d="M14.45 33.40 c-0.05 -0.15 -0.15 -1.35 -0.40 -5.35 -0.05 -0.40 -0.35 -0.55 -0.85 -0.35 -0.65 0.25 -0.70 0.05 -0.45 -1.35 0.20 -0.85 0.80 -2.05 1.30 -2.60 1 -1 1 -1 0.95 1 0 1.10 0.10 3.50 0.30 5.40 0.25 2.35 0.15 3.35 -0.25 3.35 -0.30 0 -0.55 -0.05 -0.60 -0.10z"/>
  <path d="M8.65 31.30 c-0.90 -0.30 -1.80 -0.80 -2 -1 -0.20 -0.25 0 -0.30 0.50 -0.15 0.85 0.30 0.80 0.20 -0.10 -0.95 -0.95 -1.20 -0.95 -1.40 -0.25 -2.80 0.45 -0.80 0.90 -1.40 1.05 -1.25 0.10 0.15 0 0.70 -0.30 1.25 -0.40 0.75 -0.30 1.15 0.40 1.80 0.45 0.45 1.15 0.80 1.45 0.80 0.30 0 0.85 0.70 1.30 1.50 0.80 1.65 0.55 1.75 -2.05 0.80z"/>
  <path d="M18.90 28.15 c-1.05 -0.40 -1.90 -1.05 -1.90 -1.45 0 -0.55 0.30 -0.55 1.40 -0.15 0.75 0.30 2.50 0.40 3.85 0.25 2.85 -0.35 4.50 0.25 2.95 1.10 -1.80 0.90 -4.45 1 -6.30 0.25z"/>
  <path d="M32.05 25.40 c-0.65 -0.65 -1.05 -1.80 -1.05 -2.85 -0.05 -1.70 -0.05 -1.75 -0.80 -0.80 -0.40 0.55 -0.65 1.40 -0.50 1.90 0.10 0.45 0 0.75 -0.25 0.55 -1.45 -0.90 0.80 -5.20 2.75 -5.20 1.20 0 1.55 2.30 0.60 3.75 -0.90 1.40 -1.05 2.25 -0.30 2.25 0.30 0 0.50 -0.45 0.50 -1 0 -1.30 0.85 -1.30 1.25 0 0.20 0.60 0 1.30 -0.45 1.75 -0.65 0.70 -0.85 0.65 -1.75 -0.35z"/>
  <path d="M17.65 25 c-1.70 -0.70 -1.40 -0.90 1.10 -0.90 2.85 0 6.20 -0.55 7.45 -1.20 0.65 -0.35 0.80 -0.35 0.60 0.05 -0.35 0.50 -6.40 2.60 -7.50 2.50 -0.30 0 -1.05 -0.20 -1.65 -0.45z"/>
  <path d="M9.10 23.85 c-1.30 -1.40 -1.45 -2.35 -0.20 -1.25 0.45 0.45 1.35 0.95 2 1.15 0.60 0.15 1 0.55 0.85 0.80 -0.50 0.75 -1.50 0.50 -2.65 -0.70z"/>
  <path d="M15.85 22.30 c-0.20 -0.50 -0.05 -0.80 0.35 -0.80 0.35 0 1.40 -0.15 2.25 -0.30 1.20 -0.25 1.55 -0.15 1.55 0.50 0 0.50 -0.45 0.80 -1.20 0.80 -0.65 0 -1.55 0.15 -1.95 0.30 -0.40 0.15 -0.85 -0.10 -1 -0.50z"/>
  <path d="M11.55 21.95 c-0.95 -0.40 -1.05 -0.60 -0.55 -1.20 0.50 -0.60 0.50 -0.95 -0.05 -1.60 -0.40 -0.50 0.10 -0.25 1.05 0.55 2.50 2.05 2.25 3.30 -0.45 2.25z"/>
  <path d="M20.50 21.75 c0 -0.45 1.35 -1.35 3.20 -2.20 1.75 -0.80 3.45 -1.85 3.75 -2.35 0.40 -0.80 0.50 -0.80 0.55 -0.15 0 1.10 -1.35 2.15 -4.15 3.20 -1.30 0.50 -2.30 0.95 -2.20 1.05 0.45 0.45 5.65 -1.40 6.65 -2.35 0.65 -0.60 1.20 -0.85 1.20 -0.55 0 0.80 -3.40 2.90 -5.80 3.55 -2.60 0.75 -3.20 0.70 -3.20 -0.20z"/>
  <path d="M8.40 17.25 c-0.50 -1.60 -0.40 -4.30 0.15 -3.95 0.25 0.15 0.35 0.45 0.20 0.70 -0.15 0.20 0 0.50 0.30 0.60 0.35 0.10 0.40 0.70 0.10 1.90 -0.40 1.45 -0.55 1.55 -0.75 0.75z"/>
  <path d="M2 15.25 c-0.70 -0.40 -1 -0.70 -0.75 -0.70 0.30 0 1.05 0.30 1.75 0.70 0.70 0.40 1.05 0.70 0.75 0.70 -0.25 0 -1.05 -0.30 -1.75 -0.70z"/>
  <path d="M5.75 13.55 c0.15 -0.55 0.05 -1.10 -0.25 -1.30 -0.25 -0.15 -0.50 -0.05 -0.50 0.20 0 0.30 -0.20 0.55 -0.50 0.55 -1.05 0 -0.40 -0.95 1.20 -1.70 2.30 -1.10 2.35 -1.05 1.25 1.20 -1 2.10 -1.75 2.70 -1.20 1.05z"/>
  <path d="M33.75 11.50 c-0.80 -0.80 -1.20 -1.50 -0.90 -1.50 0.35 0 1.05 0.70 1.65 1.50 0.60 0.85 1 1.50 0.90 1.50 -0.15 0 -0.85 -0.65 -1.65 -1.50z"/>
  <path d="M1.65 11.85 c-2.05 -0.60 -2.30 -2 -0.25 -1.55 1.55 0.40 2.30 0.95 2.05 1.55 -0.10 0.25 -0.90 0.25 -1.80 0z"/>
  <path d="M16.50 11.50 c0 -0.25 0.35 -0.50 0.75 -0.50 0.35 0 0.95 -0.40 1.20 -0.85 0.30 -0.50 0.50 -0.65 0.50 -0.40 0 0.75 -1.25 2.25 -1.90 2.25 -0.30 0 -0.55 -0.20 -0.55 -0.50z"/>
  <path d="M12.25 10.15 c-0.90 -0.70 -0.90 -0.75 -0.10 -0.45 0.50 0.15 1.15 0.30 1.40 0.30 0.25 0 0.45 0.25 0.45 0.50 0 0.70 -0.60 0.60 -1.75 -0.35z"/>
  <path d="M20.20 10.25 c1.30 -0.95 2.10 -0.95 1.30 0 -0.35 0.40 -1 0.75 -1.45 0.75 -0.65 -0.05 -0.65 -0.15 0.15 -0.75z"/>
  <path d="M14.60 6.40 c-0.35 -0.35 -0.60 -1 -0.60 -1.50 0 -1.05 -0.80 -1.20 -1.20 -0.25 -0.15 0.30 -0.25 0.15 -0.15 -0.40 0.20 -1.80 1.55 -1.40 2.20 0.60 0.65 2.10 0.60 2.40 -0.25 1.55z"/>
  <path d="M18.75 5.80 c0.85 -0.65 1.60 -1.10 1.70 -1 0.40 0.35 -1.60 2.20 -2.40 2.20 -0.55 0 -0.30 -0.40 0.70 -1.20z"/>
  <path d="M15.75 3.05 c-0.15 -0.25 -0.05 -0.60 0.25 -0.80 0.60 -0.35 1.50 0.10 1.50 0.80 0 0.60 -1.35 0.60 -1.75 0z"/>
  <path d="M13.60 2 c0.15 -0.40 0.55 -0.70 0.85 -0.60 0.30 0.05 0.55 -0.10 0.55 -0.40 0 -0.25 0.85 -0.45 1.90 -0.45 1.60 0.10 1.65 0.15 0.40 0.30 -0.80 0.15 -2 0.60 -2.70 1.05 -1.05 0.65 -1.20 0.70 -1 0.10z"/>
 </g>
 <g fill="#4f7673">
  <path d="M17.75 32 c-1 -1.10 -0.80 -1.70 0.40 -1.20 0.45 0.15 0.75 0.70 0.70 1.25 -0.10 1.15 0 1.15 -1.10 -0.05z"/>
  <path d="M32.35 10.25 c-0.75 -0.70 -1.20 -1.25 -0.90 -1.25 0.25 0 1.15 0.55 1.90 1.25 0.75 0.65 1.20 1.20 0.90 1.20 -0.25 0 -1.15 -0.55 -1.90 -1.20z"/>
  <path d="M35 8.70 c-0.70 -0.35 -2 -0.70 -2.85 -0.70 -0.90 0 -1.65 -0.20 -1.65 -0.50 0 -1.15 5.35 -0.20 6.05 1.05 0.55 1.10 0.20 1.15 -1.55 0.15z"/>
  <path d="M27.25 8.50 c-0.40 -0.65 -0.05 -1.20 0.70 -0.95 0.30 0.15 0.35 0.50 0.10 0.90 -0.30 0.50 -0.50 0.50 -0.80 0.05z"/>
  <path d="M23.80 4.80 c-0.95 -1.50 -2.20 -3 -2.75 -3.25 -1.50 -0.85 -4.95 -0.65 -6.40 0.30 -1.05 0.70 -1.25 0.70 -1.05 0.15 0.15 -0.40 0.55 -0.70 0.85 -0.65 0.30 0.10 0.55 -0.20 0.55 -0.60 0 -0.60 0.65 -0.75 2.90 -0.75 2.70 0.05 2.95 0.15 5.25 2.40 1.50 1.45 2.45 2.90 2.55 3.75 0.10 0.75 0.10 1.35 0 1.35 -0.10 0 -0.95 -1.20 -1.90 -2.70z"/>
  <path d="M12.90 3.40 c0.45 -0.45 0.75 -0.45 1.20 0 0.45 0.45 0.35 0.60 -0.60 0.60 -0.95 0 -1.05 -0.15 -0.60 -0.60z"/>
 </g>
 <g fill="#a47d4e">
  <path d="M22.70 39.55 c0.30 -0.45 2.70 -1.05 5.05 -1.25 0.85 -0.10 2.50 -0.30 3.75 -0.50 l2.25 -0.35 -1.75 0.85 c-0.95 0.45 -2.15 1 -2.60 1.25 -1.15 0.60 -7.05 0.60 -6.70 0z"/>
  <path d="M20.75 38.60 c-0.80 -0.55 -2.30 -3.10 -1.85 -3.10 0.35 0 3.10 2.90 3.10 3.30 0 0.30 -0.70 0.20 -1.25 -0.20z"/>
  <path d="M22.25 37.50 c-0.35 -0.60 0.10 -0.60 1.50 0 0.95 0.40 0.95 0.45 -0.10 0.45 -0.60 0.05 -1.25 -0.15 -1.40 -0.45z"/>
  <path d="M6.95 33.45 c-0.40 -0.85 -0.40 -1 0.10 -0.85 0.35 0.10 0.65 0.60 0.75 1.05 0.15 1.15 -0.15 1.05 -0.85 -0.20z"/>
  <path d="M21.70 33.80 c-0.90 -0.40 -1.75 -0.95 -1.90 -1.25 -0.20 -0.30 -0.60 -0.55 -0.90 -0.55 -0.30 0 -0.15 0.50 0.40 1.15 l0.95 1.10 -1.15 -1 c-0.65 -0.55 -1.40 -1.40 -1.65 -1.90 -0.45 -0.80 -0.35 -0.85 0.90 -0.55 0.75 0.20 2.05 0.70 2.90 1.10 0.80 0.40 2.85 1.15 4.50 1.65 l3 0.85 -2.75 0.05 c-1.50 0 -3.45 -0.30 -4.30 -0.65z"/>
  <path d="M37.05 33.10 c0 -0.20 0.70 -0.90 1.55 -1.60 l1.55 -1.20 -0.85 1.30 c-0.80 1.25 -2.35 2.25 -2.25 1.50z"/>
  <path d="M14.60 31.85 c-0.05 -0.60 -0.10 -1.55 -0.10 -2.05 -0.05 -0.55 -0.30 -1.40 -0.60 -1.95 -0.40 -0.80 -0.60 -0.85 -1 -0.30 -0.40 0.55 -0.40 0.50 -0.20 -0.20 0.15 -0.50 0.30 -1.25 0.30 -1.60 0 -0.35 0.45 -1.15 1 -1.80 l1 -1.20 -0.05 2.25 c0 1.25 0.10 3.40 0.30 4.85 0.15 1.40 0.10 2.70 -0.10 2.80 -0.25 0.15 -0.50 -0.20 -0.55 -0.80z"/>
  <path d="M9.75 31.40 c-2.70 -1.50 -4.20 -4.25 -2.80 -5.10 0.25 -0.15 0.40 0.10 0.35 0.55 0 0.45 0.65 1.30 1.50 1.85 0.85 0.60 1.80 1.55 2.05 2.20 0.60 1.20 0.40 1.35 -1.10 0.50z"/>
  <path d="M17.90 27.70 c-1.55 -0.80 -2 -2.10 -0.50 -1.40 0.45 0.20 2.50 0.50 4.55 0.60 3.50 0.20 3.60 0.20 2.30 0.90 -1.75 0.90 -4.60 0.85 -6.35 -0.10z"/>
  <path d="M37 27.05 c0.50 -1.05 1.50 -1.85 1.50 -1.30 0 0.70 -1.05 2.25 -1.55 2.25 -0.30 0 -0.30 -0.35 0.05 -0.95z"/>
  <path d="M18.15 25.15 c-1.95 -0.35 -1.25 -0.90 1.20 -1 1.30 -0.05 3.20 -0.20 4.15 -0.35 l1.75 -0.25 -1.50 0.65 c-1.85 0.80 -4.15 1.20 -5.60 0.95z"/>
  <path d="M9.70 24.25 c-0.50 -0.40 -0.70 -0.75 -0.35 -0.75 0.95 0 2.15 0.55 2.15 1.05 0 0.65 -0.70 0.55 -1.80 -0.30z"/>
  <path d="M33.30 24.20 c-0.20 -0.50 -0.05 -0.70 0.30 -0.60 0.75 0.25 1.15 1.40 0.50 1.40 -0.25 0 -0.65 -0.35 -0.80 -0.80z"/>
  <path d="M31 22.15 l-0.05 -1.40 -0.95 1.20 c-0.55 0.65 -1 0.90 -1 0.55 0 -1 1 -2.50 1.70 -2.50 0.80 0 2 2.25 1.60 2.95 -0.65 1 -1.30 0.55 -1.30 -0.80z"/>
  <path d="M16.25 22.55 c-0.65 -0.60 -0.05 -0.95 2.10 -1.30 3 -0.45 8.35 -2.85 9.10 -4.05 0.30 -0.55 0.50 -0.70 0.50 -0.45 0 1.05 -1.40 2.30 -4 3.50 -2.75 1.30 -2.45 1.35 1.80 0.45 0.55 -0.10 0.25 0.15 -0.70 0.60 -1.70 0.75 -8.35 1.75 -8.80 1.25z"/>
  <path d="M12.65 21.40 c-1.25 -1.65 -1.25 -2 0.05 -1.15 1.30 0.85 1.75 1.75 0.85 1.75 -0.25 0 -0.65 -0.30 -0.90 -0.60z"/>
  <path d="M32.60 20.90 c-0.70 -0.70 -0.80 -1.90 -0.15 -1.90 0.50 0 1.30 1.95 0.95 2.30 -0.10 0.10 -0.50 -0.10 -0.80 -0.40z"/>
  <path d="M33.05 16.20 c-1.15 -1.30 -2.05 -2.60 -2.05 -2.90 0.05 -0.55 1.60 1.10 3.55 3.85 1.60 2.10 0.75 1.60 -1.50 -0.95z"/>
  <path d="M8.25 16.85 c-0.20 -0.55 -0.15 -1.15 0.20 -1.50 0.75 -0.75 0.95 -0.35 0.55 1.15 -0.30 1.10 -0.40 1.15 -0.75 0.35z"/>
  <path d="M5.90 12.60 c-0.15 -0.55 0.10 -1.15 0.65 -1.50 1.35 -0.85 1.45 -0.75 0.65 0.90 -0.90 1.75 -1 1.80 -1.30 0.60z"/>
  <path d="M1.15 11.40 c-1.35 -0.65 -1.55 -1.70 -0.25 -1.15 0.45 0.20 1.25 0.50 1.75 0.60 0.95 0.30 1.15 1.15 0.25 1.10 -0.35 0 -1.15 -0.25 -1.75 -0.55z"/>
  <path d="M14.40 5.60 c-0.40 -1.05 -0.90 -1.50 -1.30 -1.35 -0.40 0.15 -0.60 0 -0.50 -0.35 0.45 -1.30 1.40 -0.90 2.15 0.90 0.40 1 0.65 1.95 0.50 2.10 -0.15 0.15 -0.55 -0.45 -0.85 -1.30z"/>
  <path d="M16 2.75 c0 -0.45 0.30 -0.60 0.75 -0.45 0.40 0.20 0.60 0.50 0.45 0.75 -0.40 0.70 -1.20 0.50 -1.20 -0.30z"/>
 </g>
 <g fill="#bfa865">
  <path d="M27 39.20 c0 -0.55 0.30 -0.75 1 -0.55 0.55 0.15 1.15 0.05 1.30 -0.20 0.15 -0.25 0.70 -0.45 1.25 -0.45 0.55 0 0.85 0.25 0.70 0.50 -0.15 0.30 -0.75 0.50 -1.30 0.50 -0.50 0 -0.95 0.25 -0.95 0.50 0 0.30 -0.45 0.50 -1 0.50 -0.60 0 -1 -0.35 -1 -0.80z"/>
  <path d="M22.50 34.10 c-1.05 -0.50 -5.50 -3.15 -5.50 -3.35 0 -0.30 2.80 0.40 3.35 0.85 0.35 0.30 2.25 1.05 4.25 1.70 l3.65 1.15 -2.50 0 c-1.35 0 -2.85 -0.15 -3.25 -0.35z"/>
  <path d="M8.35 30.10 c-0.75 -0.75 -1.35 -1.55 -1.35 -1.75 0 -0.55 2.85 1.30 3.45 2.25 0.90 1.45 -0.55 1.10 -2.10 -0.50z"/>
  <path d="M34.50 29.90 c0 -0.45 0.35 -0.95 0.80 -1.10 1.25 -0.50 1.35 -0.05 0.20 0.95 -0.85 0.75 -1 0.80 -1 0.15z"/>
  <path d="M13.75 27.30 c-0.65 -1.35 -0.70 -1.95 -0.25 -2.75 0.90 -1.75 1.35 -1.20 1.30 1.70 0 1.50 -0.05 2.75 -0.15 2.75 -0.05 0 -0.45 -0.75 -0.90 -1.70z"/>
  <path d="M18.70 27.80 c-0.90 -0.40 -1.75 -1 -1.95 -1.35 -0.30 -0.45 -0.15 -0.50 0.55 -0.20 0.50 0.25 2.25 0.55 3.85 0.65 2.80 0.20 3.60 0.70 2.05 1.30 -1.20 0.45 -2.80 0.30 -4.50 -0.40z"/>
  <path d="M37.30 26.75 c0.45 -0.70 0.95 -1.20 1.05 -1.05 0.30 0.30 -1 2.30 -1.50 2.30 -0.20 0 0 -0.55 0.45 -1.25z"/>
  <path d="M18.75 24.50 c0.85 -0.20 2.30 -0.40 3.25 -0.40 1.40 -0.05 1.55 0.05 0.75 0.40 -0.55 0.25 -2 0.40 -3.25 0.40 -2.05 0 -2.10 -0.05 -0.75 -0.40z"/>
  <path d="M31.20 22.70 c0.15 -0.40 0.30 -1.05 0.30 -1.35 0 -0.35 0.20 -0.30 0.50 0.15 0.70 1.05 0.60 1.35 -0.30 1.70 -0.60 0.25 -0.75 0.10 -0.50 -0.50z"/>
  <path d="M16.25 22 c-0.20 -0.30 0.45 -0.50 1.60 -0.50 1.40 0 1.70 0.15 1.15 0.50 -1 0.65 -2.35 0.65 -2.75 0z"/>
  <path d="M29 22.25 c0.05 -0.85 1.45 -2.45 1.85 -2.05 0.20 0.15 -0.15 0.80 -0.75 1.45 -0.60 0.60 -1.10 0.85 -1.10 0.60z"/>
  <path d="M32.65 20.70 c-0.75 -0.80 -0.80 -1.20 -0.20 -1.20 0.40 0 1.20 1.50 0.95 1.75 -0.10 0.10 -0.45 -0.15 -0.75 -0.55z"/>
  <path d="M22.55 20.25 c0.45 -0.45 3.95 -1.75 3.95 -1.50 0 0.15 -0.80 0.65 -1.75 1.05 -1.70 0.70 -2.60 0.90 -2.20 0.45z"/>
  <path d="M33.70 16.90 c-0.55 -0.65 -1.30 -1.60 -1.70 -2.15 -0.70 -0.95 -0.70 -0.95 0.15 -0.30 0.90 0.70 3.10 3.55 2.70 3.55 -0.10 0 -0.60 -0.50 -1.15 -1.10z"/>
 </g>
 <g fill="#ecd07f">
  <path d="M20.60 32.70 c-1.20 -0.70 -2.05 -1.40 -1.90 -1.55 0.15 -0.15 0.60 -0.05 1 0.30 0.40 0.30 1.55 1 2.60 1.55 1.10 0.55 1.60 0.95 1.20 1 -0.40 0 -1.70 -0.60 -2.90 -1.30z"/>
  <path d="M7.35 29.10 c-0.50 -0.50 -0.85 -1.35 -0.80 -1.90 0 -0.85 0.05 -0.85 0.45 0.10 0.25 0.60 0.95 1.45 1.60 1.90 0.80 0.55 0.90 0.80 0.35 0.80 -0.45 0 -1.15 -0.40 -1.60 -0.90z"/>
  <path d="M17.70 27.20 c-0.85 -0.70 -0.85 -0.75 -0.05 -0.50 0.50 0.15 2.05 0.30 3.40 0.30 1.55 0 2.40 0.20 2.20 0.50 -0.50 0.80 -4.45 0.60 -5.55 -0.30z"/>
  <path d="M13.60 26.35 c-0.55 -0.65 -0.55 -0.95 0 -1.80 1.20 -1.95 1.70 -1.20 0.95 1.40 -0.30 1.05 -0.40 1.10 -0.95 0.40z"/>
  <path d="M19.50 24.50 c0.70 -0.20 1.80 -0.40 2.50 -0.45 1 -0.05 1.10 0.05 0.50 0.45 -0.40 0.25 -1.55 0.45 -2.50 0.45 -1.60 -0.05 -1.65 -0.10 -0.50 -0.45z"/>
 </g>
</svg>