<?xml version="1.0" encoding="utf-8"?>
<!DOCTYPE svg PUBLIC "-//W3C//DTD SVG 1.0//EN" "http://www.w3.org/TR/2001/REC-SVG-20010904/DTD/svg10.dtd">
<svg version="1.0" xmlns="http://www.w3.org/2000/svg" width="40px" height="40px" viewBox="0 0 40 40" preserveAspectRatio="xMidYMid meet">
 <g fill="#130b07">
  <path d="M5.50 39.80 c0 -0.10 0.35 -0.45 0.75 -0.80 0.60 -0.50 0.75 -0.50 0.75 0.20 0 0.45 -0.35 0.80 -0.75 0.80 -0.40 0 -0.75 -0.10 -0.75 -0.20z"/>
  <path d="M17 36.50 l0 -3.50 1.75 0 1.75 0 0 3.50 0 3.50 -1.75 0 -1.75 0 0 -3.50z"/>
  <path d="M37 38.75 c0 -1.45 0.40 -1.60 1.30 -0.35 0.95 1.20 0.85 1.60 -0.30 1.60 -0.75 0 -1 -0.35 -1 -1.25z"/>
  <path d="M21.30 35.65 c-0.60 -3.80 -0.50 -4.15 1.45 -4.15 1.20 0 1.75 0.25 1.75 0.75 0 0.40 0.35 0.75 0.75 0.75 0.50 0 0.75 0.50 0.75 1.65 0 2.05 -0.75 2.85 -2.80 2.85 -1.45 0 -1.60 -0.15 -1.90 -1.85z"/>
  <path d="M30 33.75 c0 -1.20 0.05 -1.25 1.60 -0.60 2.30 0.95 2.40 1.85 0.20 1.85 -1.60 0 -1.80 -0.15 -1.80 -1.25z"/>
  <path d="M17.25 29.55 c-0.20 -1 -0.55 -1.40 -1.05 -1.20 -0.45 0.15 -0.70 -0.10 -0.70 -0.80 0 -0.85 0.30 -1.05 1.75 -1.05 1.75 0 1.75 0 1.75 2.25 0 2.65 -1.20 3.20 -1.75 0.80z"/>
  <path d="M12.65 25.25 c-0.55 -1.65 -0.50 -1.75 0.65 -1.75 1.05 0 1.20 0.25 1.20 1.75 0 1.10 -0.25 1.75 -0.65 1.75 -0.40 0 -0.90 -0.80 -1.20 -1.75z"/>
  <path d="M24.50 24.15 c0 -2.75 0.10 -3.05 1.90 -4.80 1.05 -1 2.15 -1.85 2.50 -1.85 0.35 0 0.60 -0.20 0.60 -0.50 0 -0.75 -0.80 -0.60 -1.50 0.25 -0.35 0.40 -1.40 0.75 -2.30 0.75 l-1.70 0 0 -3 c0 -2.55 -0.20 -3.20 -1.40 -4.55 l-1.35 -1.55 -2.15 0.85 c-1.60 0.65 -2.85 0.80 -4.90 0.55 -2.65 -0.30 -2.70 -0.30 -2.70 0.95 0 1 0.25 1.25 1.25 1.25 1.10 0 1.25 0.20 1.25 1.90 0 2.30 -0.70 3.10 -2.75 3.10 l-1.50 0 -0.05 -3.40 c-0.05 -2.40 -0.35 -3.95 -1.15 -5.45 -1.05 -2.05 -1.40 -6.10 -0.75 -7.85 0.20 -0.50 0.90 -0.80 1.75 -0.80 1.10 0 1.45 0.25 1.45 1 0 2.40 0.85 2.80 4.70 2.40 1.95 -0.20 4.05 -0.35 4.65 -0.35 1 -0.05 1.10 -0.25 0.85 -1.55 l-0.30 -1.50 2.60 0 c2.60 0 2.60 0 2.35 1.35 l-0.25 1.40 1.15 -1.40 c0.95 -1.05 1.65 -1.35 3.20 -1.35 1.75 0 2.15 0.20 2.80 1.50 1.30 2.50 1.15 8.70 -0.25 11.75 -1.05 2.30 -1.30 3.80 -1.45 10.60 -0.05 1.40 -1.70 2.50 -4.40 2.95 l-2.15 0.35 0 -3z"/>
  <path d="M17 16.15 c0 -3.10 0.45 -3.65 2.80 -3.65 2.15 0 2.20 0 2.20 1.70 0 2.85 -0.40 3.30 -2.80 3.30 -2.05 0 -2.20 -0.10 -2.20 -1.35z"/>
 </g>
 <g fill="#22160e">
  <path d="M16.50 37.55 l0 -2.55 -2 0 c-1.10 0 -2 -0.15 -2 -0.35 0.05 -0.65 5.50 -4.15 6.45 -4.15 0.45 0 1.15 0.30 1.50 0.65 0.50 0.50 0.85 0.30 1.85 -0.80 0.95 -1.10 1.55 -1.40 2.85 -1.25 1.45 0.15 1.60 0.30 1.75 2 0.15 1.65 -0.05 2 -1.50 2.90 -1.10 0.70 -2.30 1 -3.50 0.90 -1.10 -0.10 -1.90 0.05 -1.90 0.35 0 0.25 0.90 0.45 2 0.45 1.95 -0.10 2 -0.05 2 1.55 0 0.95 -0.15 1.80 -0.35 1.90 -0.25 0.15 -1.90 0.40 -3.75 0.60 l-3.40 0.35 0 -2.55z m2.50 0.70 c0 -0.15 -0.10 -0.25 -0.25 -0.25 -0.15 0 -0.25 0.10 -0.25 0.25 0 0.15 0.10 0.25 0.25 0.25 0.15 0 0.25 -0.10 0.25 -0.25z m-0.15 -3.60 c-0.20 -0.15 -0.35 0 -0.35 0.35 0 0.35 0.15 0.50 0.35 0.35 0.15 -0.20 0.15 -0.50 0 -0.70z m4.15 -1.40 c0 -0.15 -0.10 -0.25 -0.25 -0.25 -0.15 0 -0.25 0.10 -0.25 0.25 0 0.15 0.10 0.25 0.25 0.25 0.15 0 0.25 -0.10 0.25 -0.25z"/>
  <path d="M35 36.20 c0 -1.95 0.45 -1.90 2 0.30 l1.05 1.50 -1.50 0 c-1.45 0 -1.55 -0.15 -1.55 -1.80z"/>
  <path d="M29 35 c0 -0.55 -0.35 -1 -0.75 -1 -0.45 0 -0.75 -0.45 -0.75 -1.25 l0 -1.25 1.90 0.80 c1 0.45 2.15 0.90 2.50 1.05 0.30 0.15 0.60 0.80 0.60 1.45 0 1.05 -0.25 1.20 -1.75 1.20 -1.40 0 -1.75 -0.20 -1.75 -1z"/>
  <path d="M17.50 28.75 c0 -0.55 -0.40 -0.65 -1.50 -0.40 -1.30 0.25 -1.50 0.15 -1.50 -0.80 0 -0.60 0.30 -1.05 0.75 -1.05 0.40 0 0.75 -0.45 0.75 -1 0 -0.55 -0.20 -1 -0.50 -1 -0.65 0 -0.65 -3.35 0.05 -3.75 0.95 -0.65 5.95 0.25 5.95 1.05 0 0.40 0.45 0.70 1 0.70 0.55 0 1 -0.20 1 -0.50 0 -0.25 0.85 -0.50 1.85 -0.50 1.45 0 1.70 0.15 1.25 0.60 -0.35 0.35 -0.60 1.25 -0.60 2 0 1.05 0.25 1.40 1 1.40 0.55 0 1 0.15 1 0.30 0 0.75 -1.85 1.65 -3.35 1.70 -1.10 0 -1.85 0.35 -2.25 1 -0.80 1.25 -4.90 1.50 -4.90 0.25z"/>
  <path d="M12.80 25.05 c-0.15 -0.20 -0.50 -1 -0.75 -1.75 -0.50 -1.20 -0.40 -1.30 0.70 -1.30 1.10 0 1.25 0.20 1.25 1.75 0 1.65 -0.60 2.30 -1.20 1.30z"/>
  <path d="M25.50 20 c0 -0.65 -0.35 -1 -1 -1 -0.55 0 -1 -0.20 -1 -0.50 0 -0.30 -1.35 -0.50 -3 -0.50 -2.35 0 -3 -0.15 -3 -0.75 0 -0.40 -0.45 -0.75 -1 -0.75 -0.85 0 -1 -0.35 -1 -2.20 0 -1.35 0.30 -2.55 0.80 -3 0.70 -0.75 0.60 -0.80 -1.05 -0.80 -1.60 0 -1.75 0.10 -1.25 0.95 0.25 0.55 0.50 1.80 0.50 2.75 0 1.65 -0.10 1.80 -1.50 1.80 -1.35 0 -1.50 0.15 -1.50 1.50 0 1.75 -0.70 1.95 -1.50 0.45 -0.70 -1.25 -0.25 -2.65 0.70 -2.30 0.35 0.15 0.95 0 1.25 -0.30 0.80 -0.80 0.70 -1.60 -0.10 -0.90 -1 0.80 -1.85 -0.30 -1.85 -2.30 0 -1.45 0.15 -1.65 1.40 -1.65 1.20 -0.05 1.15 -0.10 -0.65 -0.75 -1.10 -0.40 -2 -0.75 -2.05 -0.75 0 0 -0.30 -0.85 -0.65 -1.85 -0.75 -2.25 -0.55 -6.40 0.30 -6.40 0.30 0 0.75 -0.15 0.95 -0.35 0.85 -0.90 2.15 -0.35 2.30 0.90 0.25 2 1.25 2.40 5.45 2 l3.75 -0.35 -0.20 -1.50 c-0.15 -1.15 -0.05 -1.45 0.75 -1.45 0.50 0 1.20 0.25 1.55 0.60 0.45 0.45 0.75 0.45 1.20 0 0.35 -0.35 1.80 -0.60 3.25 -0.60 l2.70 0 -0.80 1.50 c-1 2 -2.75 3.05 -4.80 3 -2.85 -0.10 -7.05 0.45 -7.75 1.05 -0.45 0.35 -0.95 0.35 -1.55 0 -0.55 -0.25 -1.25 -0.30 -1.65 -0.05 -0.95 0.60 -2.50 0.20 -3.30 -0.85 -0.35 -0.50 -1 -1.35 -1.45 -1.90 -0.80 -0.95 -0.80 -0.90 -0.60 1.25 0.15 1.25 0.50 2.90 0.80 3.65 0.50 1.30 0.60 1.35 1.35 0.60 0.50 -0.45 1.15 -0.65 1.65 -0.45 2.65 1.05 3.95 1.20 5.70 0.45 1 -0.40 2.15 -0.75 2.60 -0.75 1.30 0 0.85 1.75 -0.60 2.35 -1.35 0.55 -1.35 0.55 0.75 0.60 2.05 0.05 2.10 0 2.10 -1.55 l0.05 -1.65 1.45 1.65 c1.35 1.40 1.50 2 1.50 4.70 l0 3.10 1.65 -1.60 c1.85 -1.80 2.60 -1.95 3.25 -0.75 0.40 0.65 0.65 0.35 1.40 -1.75 0.50 -1.45 1.10 -2.60 1.30 -2.60 0.55 0 0.55 0 -0.85 3.70 -0.70 1.85 -1.25 4.20 -1.25 5.30 0 1.10 -0.20 2 -0.50 2 -0.25 0 -0.50 -0.50 -0.50 -1.10 l0 -1.05 -1.15 1.05 c-1.50 1.40 -3.35 1.45 -3.35 0.10z m-5.50 -4.20 c0 -0.10 0.15 -0.55 0.30 -1 0.20 -0.50 0.05 -0.80 -0.45 -0.80 -0.40 0 -0.85 0.45 -1 1 -0.15 0.65 0 1 0.45 1 0.40 0 0.70 -0.10 0.70 -0.20z"/>
  <path d="M30.50 11 c0 -0.35 0.15 -0.50 0.35 -0.35 0.15 0.20 0.15 0.50 0 0.70 -0.20 0.15 -0.35 0 -0.35 -0.35z"/>
  <path d="M32.30 3.90 c-0.85 -3.80 -0.80 -4.70 0.25 -2.80 0.75 1.30 1.45 6.40 0.90 6.40 -0.20 0 -0.70 -1.60 -1.15 -3.60z"/>
 </g>
 <g fill="#322112">
  <path d="M12.50 39 c0 -0.75 -0.35 -1 -1.25 -1 -1.05 0 -1.25 -0.25 -1.25 -1.40 0 -1.45 0.85 -2.15 3.35 -2.85 2 -0.55 4.15 -2.85 4.15 -4.40 0 -1.30 -0.10 -1.40 -1.40 -1.10 -1.85 0.40 -2.40 -0.25 -4.15 -5.25 -0.95 -2.75 -1.20 -4 -0.75 -4 0.35 0 1.05 -0.35 1.60 -0.80 0.90 -0.70 0.85 -0.75 -0.90 -0.45 -1.05 0.15 -1.90 0.10 -1.95 -0.10 0 -0.20 -0.10 -2.05 -0.20 -4 -0.10 -3.55 -0.10 -3.65 1.05 -3.65 0.75 0 1.20 -0.30 1.20 -0.75 0 -0.80 0.60 -0.90 2.40 -0.45 1.20 0.35 1.55 1.70 0.40 1.70 -0.50 0 -0.60 0.35 -0.40 1.10 l0.25 1.10 0.75 -1.10 c0.60 -0.90 1.20 -1.10 3.40 -1.10 1.45 0 2.80 -0.20 2.95 -0.50 0.15 -0.25 0.05 -0.50 -0.20 -0.50 -0.30 0 -0.55 -0.45 -0.55 -1 0 -1.60 1.85 -1.25 3 0.60 0.75 1.25 1 2.55 1 5.15 l0 3.50 2 -2.20 c2.05 -2.20 2.65 -2.30 3.15 -0.30 0.25 0.95 0.25 0.95 0.60 -0.10 0.20 -0.65 0.55 -1 0.80 -0.90 0.20 0.15 0.20 0.85 -0.05 1.55 -0.30 0.70 -0.50 1.95 -0.50 2.75 0 0.80 -0.20 1.45 -0.50 1.45 -0.25 0 -0.50 -0.35 -0.50 -0.80 0 -1.30 -3.95 3.35 -4 4.70 0 0.60 -0.20 1.10 -0.50 1.10 -0.25 0 -0.50 0.20 -0.50 0.45 0 0.30 0.40 0.40 0.90 0.30 0.80 -0.15 0.90 0.20 0.90 2.30 -0.05 3.05 0.55 3.65 5 5.20 1.90 0.65 3.50 1.40 3.60 1.70 0.10 0.25 -0.25 0.95 -0.75 1.50 -1.15 1.35 -3.65 1.35 -5.15 0.05 -0.65 -0.55 -1.45 -1 -1.85 -1 -0.40 0 -0.65 -0.55 -0.65 -1.40 0 -1.35 -0.10 -1.40 -2.25 -1.30 -2.05 0.10 -2.25 0.05 -2.25 -1.05 0 -0.90 -0.20 -1.10 -1 -0.90 -0.70 0.20 -1 0.70 -1 1.75 0 1.45 -0.05 1.50 -2 1.30 -1.85 -0.15 -2 -0.10 -2 1.10 0 0.70 -0.15 2.10 -0.30 3.15 -0.30 1.70 -0.45 1.85 -2 1.85 -1.35 0 -1.70 -0.20 -1.70 -1z m18.50 -4.75 c0 -0.15 -0.10 -0.25 -0.25 -0.25 -0.15 0 -0.25 0.10 -0.25 0.25 0 0.15 0.10 0.25 0.25 0.25 0.15 0 0.25 -0.10 0.25 -0.25z m-12 -1.45 c0 -0.15 -0.20 -0.40 -0.50 -0.55 -0.25 -0.15 -0.50 -0.05 -0.50 0.20 0 0.30 0.25 0.55 0.50 0.55 0.30 0 0.50 -0.10 0.50 -0.20z m5.95 -1 c0.35 -0.40 0.40 -0.85 0.15 -0.95 -0.20 -0.15 -0.65 0.15 -1 0.70 -0.70 1.10 0 1.30 0.85 0.25z m-3.25 -5.60 c0.80 -0.95 1.30 -1.90 1.10 -2.05 -0.35 -0.35 -3.80 2.80 -3.80 3.45 0 0.90 1.35 0.20 2.70 -1.40z m-3.70 -1.45 c0 -0.15 -0.10 -0.25 -0.25 -0.25 -0.15 0 -0.25 0.10 -0.25 0.25 0 0.15 0.10 0.25 0.25 0.25 0.15 0 0.25 -0.10 0.25 -0.25z m7.35 -1.35 c-0.15 -0.40 -0.30 -0.25 -0.30 0.30 -0.05 0.55 0.10 0.85 0.25 0.65 0.15 -0.15 0.20 -0.60 0.05 -0.95z m-10.35 -0.15 c0 -0.40 -0.20 -0.75 -0.50 -0.75 -0.25 0 -0.50 0.35 -0.50 0.75 0 0.40 0.25 0.75 0.50 0.75 0.30 0 0.50 -0.35 0.50 -0.75z m2.50 -0.75 c0 -0.25 -0.10 -0.50 -0.20 -0.50 -0.15 0 -0.40 0.25 -0.55 0.50 -0.15 0.30 -0.05 0.50 0.20 0.50 0.30 0 0.55 -0.20 0.55 -0.50z m2.35 0.15 c-0.20 -0.15 -0.50 -0.15 -0.70 0 -0.15 0.20 0 0.35 0.35 0.35 0.35 0 0.50 -0.15 0.35 -0.35z m0.75 -3.40 c0.20 -0.95 0.05 -1.25 -0.65 -1.25 -0.70 0 -0.95 0.35 -0.95 1.25 0 0.75 0.30 1.25 0.70 1.25 0.35 0 0.80 -0.55 0.90 -1.25z m7.65 -1.10 c0.75 -3.60 0.80 -3.50 -0.25 -2.15 -1.05 1.30 -1.35 3.50 -0.50 3.50 0.25 0 0.60 -0.60 0.75 -1.35z m-8.25 -2.40 c0 -0.95 1.80 -1 2.20 0 0.25 0.75 1.80 0.50 1.80 -0.25 0 -0.45 -2.75 -1.50 -4 -1.50 -0.85 0 -1.70 1.65 -1.10 2.20 0.50 0.55 1.10 0.30 1.10 -0.45z m-7 -1.90 c0 -0.30 -0.45 -0.10 -1 0.40 -0.55 0.50 -1 1.15 -1 1.40 0 0.30 0.45 0.10 1 -0.40 0.55 -0.50 1 -1.15 1 -1.40z m4.35 0.05 c-0.15 -0.40 -0.30 -0.25 -0.30 0.30 -0.05 0.55 0.10 0.85 0.25 0.65 0.15 -0.15 0.20 -0.60 0.05 -0.95z m4.70 -0.90 c-0.65 -0.55 -1.75 -1 -2.50 -0.95 -1.15 0.05 -1.10 0.10 0.35 0.45 0.95 0.20 1.95 0.65 2.25 0.95 0.30 0.30 0.65 0.55 0.85 0.55 0.15 -0.05 -0.30 -0.50 -0.95 -1z m-9.55 -0.20 c0 -0.15 -0.25 -0.40 -0.60 -0.60 -0.35 -0.20 -0.40 -0.15 -0.20 0.20 0.35 0.60 0.80 0.80 0.80 0.40z m5.50 -0.05 c0 -0.15 -0.10 -0.25 -0.25 -0.25 -0.15 0 -0.25 0.10 -0.25 0.25 0 0.15 0.10 0.25 0.25 0.25 0.15 0 0.25 -0.10 0.25 -0.25z"/>
  <path d="M21 36.30 c0 -1.80 0.05 -1.85 1.65 -1.70 1.40 0.15 1.60 0.35 1.75 1.80 0.15 1.45 0.05 1.60 -1.15 1.60 -0.90 0 -1.20 -0.20 -0.95 -0.60 0.25 -0.45 0.10 -0.45 -0.45 0.05 -0.75 0.60 -0.85 0.50 -0.85 -1.15z m2.75 -0.80 c0.15 -0.25 0.20 -0.50 0.05 -0.50 -0.15 0 -0.40 0.25 -0.55 0.50 -0.15 0.30 -0.20 0.50 -0.05 0.50 0.15 0 0.40 -0.20 0.55 -0.50z"/>
  <path d="M13.20 5.15 c-1.30 -0.15 -2.45 -0.60 -3.15 -1.35 -0.90 -0.95 -0.95 -1.25 -0.40 -2.45 0.60 -1.35 0.60 -1.35 6.30 -1.35 4.75 0 5.80 0.15 6.30 0.85 0.50 0.70 0.95 0.75 2.65 0.30 2.50 -0.65 3.45 -0.20 2.65 1.25 -0.65 1.25 -2.35 2.30 -3.05 1.85 -0.25 -0.15 -2 -0.05 -3.85 0.25 -1.85 0.30 -3.85 0.60 -4.40 0.70 -0.55 0.10 -1.95 0.05 -3.05 -0.05z"/>
  <path d="M7.50 2.75 c0 -0.95 0.20 -1.75 0.40 -1.75 0.20 0 0.30 0.80 0.20 1.75 -0.10 0.95 -0.30 1.75 -0.40 1.75 -0.10 0 -0.20 -0.80 -0.20 -1.75z"/>
 </g>
 <g fill="#32192b">
  <path d="M16.60 37.75 c0.25 -1.95 0.15 -2.25 -0.65 -2.25 -1.35 0 -1.30 -2.75 0 -3.50 1.35 -0.70 2.05 -0.65 2.05 0.25 0 0.50 0.50 0.75 1.50 0.75 1.05 0 1.50 0.25 1.55 0.90 0.05 0.45 0.20 0.05 0.40 -0.90 0.20 -1.30 0.60 -1.80 1.45 -1.90 1.40 -0.20 1.40 0.60 0 1.60 -0.60 0.45 -0.90 0.80 -0.65 0.80 0.30 0 1.15 -0.50 1.95 -1.15 1.40 -1.10 1.40 -1.20 0.65 -2.65 -1 -1.90 -1.55 -4.95 -1.10 -6.05 0.30 -0.85 0.35 -0.85 1.05 0.10 0.75 0.95 0.75 0.95 0.65 -0.50 -0.20 -2.50 0.35 -3.50 2.15 -3.60 l1.55 -0.10 -1.55 1.60 c-0.90 0.90 -1.60 2.15 -1.60 2.75 0 0.60 -0.20 1.10 -0.50 1.10 -0.25 0 -0.50 0.40 -0.50 0.90 0 0.45 0.20 0.65 0.40 0.35 0.20 -0.25 0.90 -0.60 1.60 -0.65 2.05 -0.30 3 -1.50 3 -3.95 0 -2.15 0.95 -3.10 1.05 -1 0.20 4 -0.35 5.15 -2.75 5.75 -1.40 0.40 -1.55 0.60 -1.50 2.35 0.05 1.45 0.45 2.25 1.45 3.15 1.05 0.90 1.25 1.30 0.75 1.60 -0.50 0.30 -0.50 0.45 0.05 0.65 0.40 0.15 -0.05 0.30 -0.90 0.30 -1.10 0.05 -1.65 0.30 -1.65 0.80 0 0.40 -0.45 0.75 -1 0.75 -0.75 0 -1 0.35 -1 1.30 0 1.20 -0.15 1.30 -1.95 1.10 -1.60 -0.15 -2.05 0 -2.20 0.70 -0.20 0.65 -0.75 0.90 -2.10 0.90 l-1.90 0 0.25 -2.25z m2.15 0.75 c0.15 -0.25 0.20 -0.50 0.05 -0.50 -0.15 0 -0.40 0.25 -0.55 0.50 -0.15 0.30 -0.20 0.50 -0.05 0.50 0.15 0 0.40 -0.20 0.55 -0.50z m3.50 -1 c0.15 -0.25 0.20 -0.50 0.05 -0.50 -0.15 0 -0.40 0.25 -0.55 0.50 -0.15 0.30 -0.20 0.50 -0.05 0.50 0.15 0 0.40 -0.20 0.55 -0.50z m1.50 -2 c0.50 -0.55 0.80 -1 0.65 -1 -0.15 0 -0.65 0.45 -1.15 1 -0.50 0.55 -0.80 1 -0.65 1 0.15 0 0.65 -0.45 1.15 -1z m-4.85 -0.75 c-0.15 -0.15 -0.45 0.10 -0.60 0.60 -0.30 0.70 -0.25 0.75 0.25 0.30 0.35 -0.35 0.50 -0.75 0.35 -0.90z m7.10 -5 c0 -0.15 -0.10 -0.25 -0.25 -0.25 -0.15 0 -0.25 0.10 -0.25 0.25 0 0.15 0.10 0.25 0.25 0.25 0.15 0 0.25 -0.10 0.25 -0.25z"/>
  <path d="M31 37.75 c0 -1.85 0.15 -2.25 0.80 -2.15 1.25 0.20 1.40 -0.95 0.20 -1.25 -0.55 -0.15 -1 -0.50 -1 -0.75 0 -0.55 1.90 -0.20 2.25 0.45 0.15 0.20 0.60 0.30 0.95 0.15 0.65 -0.25 3.05 2.40 4.30 4.75 0.60 1.10 0.55 1.20 -0.55 0.90 -0.65 -0.20 -1.35 -0.35 -1.55 -0.35 -0.25 0 -0.40 -0.35 -0.40 -0.75 0 -0.40 -0.35 -0.75 -0.75 -0.75 -0.40 0 -0.75 0.45 -0.75 1 0 0.80 -0.35 1 -1.75 1 -1.75 0 -1.75 0 -1.75 -2.25z"/>
  <path d="M7.55 37.45 c1.45 -1.85 3.45 -3.15 5.60 -3.55 1.10 -0.20 1.35 -0.10 1.15 0.45 -0.20 0.40 -0.45 1.30 -0.60 1.95 -0.20 0.70 -0.65 1.20 -1.20 1.20 -0.50 0 -1 0.20 -1.10 0.50 -0.05 0.25 -1.25 0.65 -2.65 0.85 l-2.50 0.30 1.30 -1.70z m4.45 -1.20 c0 -0.15 -0.10 -0.25 -0.25 -0.25 -0.15 0 -0.25 0.10 -0.25 0.25 0 0.15 0.10 0.25 0.25 0.25 0.15 0 0.25 -0.10 0.25 -0.25z m0.35 -1.60 c-0.20 -0.15 -0.35 0 -0.35 0.35 0 0.35 0.15 0.50 0.35 0.35 0.15 -0.20 0.15 -0.50 0 -0.70z"/>
  <path d="M30.80 15.40 c0.15 -0.65 0.65 -1.80 1.05 -2.60 0.45 -0.80 0.90 -2.85 1.05 -4.50 0.25 -2.75 0.30 -2.90 0.75 -1.65 0.35 1.15 0.15 2.35 -0.95 5.65 -0.75 2.30 -1.60 4.20 -1.80 4.20 -0.25 0 -0.30 -0.50 -0.10 -1.10z"/>
  <path d="M17.30 14.65 c0.20 -0.80 0.45 -1.55 0.55 -1.75 0.40 -0.75 3.05 -0.40 4.20 0.60 l1.20 1 -2.05 -0.30 c-1.80 -0.25 -2.10 -0.15 -2.35 0.75 -0.15 0.60 -0.60 1.05 -1.05 1.05 -0.65 0 -0.75 -0.30 -0.50 -1.35z"/>
  <path d="M20.25 15.50 c0.15 -0.25 0.65 -0.50 1.05 -0.50 0.40 0 0.70 0.25 0.70 0.50 0 0.30 -0.45 0.50 -1.05 0.50 -0.55 0 -0.85 -0.20 -0.70 -0.50z"/>
  <path d="M9.95 14.90 c-0.05 -0.35 -0.15 -1.60 -0.20 -2.80 -0.10 -1.20 -0.35 -2.40 -0.65 -2.75 -0.25 -0.35 -0.60 -1.05 -0.80 -1.60 -0.25 -0.80 -0.10 -0.75 0.70 0.25 0.55 0.70 1 1 1 0.65 0 -0.35 0.35 -0.50 0.80 -0.30 0.60 0.20 0.75 0.75 0.60 2.10 -0.15 1.25 0 2 0.55 2.40 0.70 0.50 0.70 0.65 -0.15 1.60 -1.10 1.20 -1.75 1.35 -1.85 0.45z"/>
  <path d="M12.85 14.70 c0.70 -0.30 0.30 -1.70 -0.75 -2.55 -0.70 -0.55 -0.60 -0.65 0.55 -0.65 1.20 0 1.35 0.20 1.35 1.75 0 1.35 -0.20 1.75 -0.85 1.70 -0.50 0 -0.65 -0.15 -0.30 -0.25z"/>
  <path d="M16.05 14 c-0.05 -2.20 0.55 -3 2.25 -3 0.95 0 1.70 0.25 1.70 0.50 0 0.30 -0.55 0.50 -1.25 0.50 -0.80 0 -1.45 0.45 -1.95 1.40 -0.40 0.75 -0.75 1 -0.75 0.60z"/>
  <path d="M29.50 14.25 c0 -0.15 0.10 -0.25 0.25 -0.25 0.15 0 0.25 0.10 0.25 0.25 0 0.15 -0.10 0.25 -0.25 0.25 -0.15 0 -0.25 -0.10 -0.25 -0.25z"/>
  <path d="M32.15 2.65 c-0.30 -1.35 -0.45 -2.50 -0.40 -2.55 0.30 -0.35 1.75 2.85 1.75 3.90 0 1.80 -0.75 1.05 -1.35 -1.35z"/>
  <path d="M7.60 2 c0 -0.70 0.10 -0.95 0.25 -0.60 0.10 0.30 0.10 0.90 0 1.25 -0.15 0.30 -0.25 0.05 -0.25 -0.65z"/>
 </g>
 <g fill="#51190e">
  <path d="M19.50 38.20 c0 -1.70 0.05 -1.75 1.65 -1.60 1.40 0.15 1.60 0.35 1.75 1.80 0.15 1.55 0.10 1.60 -1.60 1.60 -1.75 0 -1.80 -0.05 -1.80 -1.80z m2.75 -0.70 c0.15 -0.25 0.20 -0.50 0.05 -0.50 -0.15 0 -0.40 0.25 -0.55 0.50 -0.15 0.30 -0.20 0.50 -0.05 0.50 0.15 0 0.40 -0.20 0.55 -0.50z"/>
  <path d="M30.15 39.25 c-0.35 -0.40 -0.65 -1.35 -0.65 -2.10 0 -2.75 -3.20 -4 -6 -2.40 -1.45 0.85 -4 1 -4 0.25 0 -0.30 -0.50 -0.40 -1.15 -0.25 -0.90 0.25 -1.30 0.05 -1.80 -1.05 -0.50 -1.15 -0.50 -1.50 0.20 -2.15 0.70 -0.70 0.80 -0.70 1.05 0.35 0.20 0.60 0.50 1.10 0.75 1.10 0.60 0 0.55 -0.85 -0.05 -1.25 -0.25 -0.15 -0.50 -0.50 -0.50 -0.80 0 -0.60 1.35 -0.60 1.60 0.05 0.10 0.25 0.95 0.35 2.05 0.15 1.65 -0.25 1.85 -0.45 1.85 -1.70 0 -1.30 0.20 -1.45 1.50 -1.45 1.50 0 1.70 0.40 1.65 2.85 -0.05 0.35 0.15 0.55 0.35 0.40 0.20 -0.15 0.65 0.10 1 0.50 0.35 0.40 0.95 0.75 1.35 0.75 0.35 0 1.60 0.45 2.65 1 1.10 0.55 2 0.85 2 0.65 0 -0.20 0.25 -0.10 0.60 0.25 0.40 0.40 0.40 0.75 -0.10 1.35 -0.55 0.65 -0.50 0.70 0.20 0.45 0.60 -0.25 0.80 0 0.80 1.15 0 0.80 -0.25 1.70 -0.60 2.05 -0.80 0.80 -4 0.70 -4.75 -0.15z m2.85 -1 c0 -0.15 -0.10 -0.25 -0.25 -0.25 -0.15 0 -0.25 0.10 -0.25 0.25 0 0.15 0.10 0.25 0.25 0.25 0.15 0 0.25 -0.10 0.25 -0.25z m0 -2.90 c0 -0.75 -3.80 -2.20 -4.35 -1.70 -0.15 0.20 0 0.35 0.45 0.35 0.40 0 1.25 0.45 1.90 1 1.35 1.15 2 1.25 2 0.35z m-8.55 -3.05 c0.90 -0.95 1.05 -1.40 0.65 -2.15 -0.45 -0.80 -0.55 -0.75 -0.85 0.50 -0.20 0.75 -0.85 1.70 -1.40 2.10 -0.80 0.55 -0.85 0.75 -0.30 0.75 0.45 0 1.30 -0.55 1.90 -1.20z m1.55 0.45 c0 -0.15 -0.10 -0.25 -0.25 -0.25 -0.15 0 -0.25 0.10 -0.25 0.25 0 0.15 0.10 0.25 0.25 0.25 0.15 0 0.25 -0.10 0.25 -0.25z m2 0 c0 -0.15 -0.10 -0.25 -0.25 -0.25 -0.15 0 -0.25 0.10 -0.25 0.25 0 0.15 0.10 0.25 0.25 0.25 0.15 0 0.25 -0.10 0.25 -0.25z m-2 -3 c0 -0.15 -0.10 -0.25 -0.25 -0.25 -0.15 0 -0.25 0.10 -0.25 0.25 0 0.15 0.10 0.25 0.25 0.25 0.15 0 0.25 -0.10 0.25 -0.25z"/>
  <path d="M13.25 26.40 c-2.10 -6.05 -2.10 -6.90 0.10 -6.90 1.30 0 1.30 0.05 0.35 0.75 -0.70 0.55 -0.75 0.70 -0.20 0.70 0.40 0 1.20 -0.30 1.70 -0.70 1.15 -0.85 2 -1 1.55 -0.25 -0.15 0.30 0.05 0.50 0.45 0.50 0.45 0 0.80 0.25 0.80 0.50 0 0.30 0.70 0.50 1.50 0.50 1 0 1.50 0.25 1.50 0.75 0 0.40 -0.20 0.75 -0.50 0.75 -0.25 0 -0.50 -0.20 -0.50 -0.50 0 -0.25 -0.80 -0.50 -1.75 -0.50 -0.95 0 -1.75 0.25 -1.75 0.55 0 0.30 0.40 0.40 0.90 0.25 0.45 -0.15 1.15 -0.10 1.55 0.15 0.55 0.35 0.35 0.70 -1 1.50 -0.95 0.60 -1.45 1.05 -1.15 1.05 0.30 0 1.15 -0.45 1.85 -1 1.60 -1.25 1.85 -1.25 1.85 0.05 0 1.80 -6.65 3.50 -7.25 1.85z m2.40 -0.75 c-0.35 -0.10 -0.95 -0.10 -1.25 0 -0.35 0.15 -0.10 0.25 0.60 0.25 0.70 0 0.95 -0.10 0.65 -0.25z"/>
 </g>
 <g fill="#433006">
  <path d="M9.75 37.65 c0.30 -2.20 0.90 -3.10 1.90 -3.15 0.25 0 0.30 0.50 0.15 1.15 -0.20 0.80 -0.10 0.75 0.30 -0.25 0.80 -1.90 2.30 -2.15 2.55 -0.45 0.20 1.25 0.20 1.25 0.30 -0.20 0.05 -0.80 0.30 -1.85 0.55 -2.25 0.35 -0.50 0.50 0.55 0.50 3.40 l0 4.10 -3.30 0 -3.30 0 0.35 -2.35z m4.75 1.10 c0 -0.15 -0.10 -0.25 -0.25 -0.25 -0.15 0 -0.25 0.10 -0.25 0.25 0 0.15 0.10 0.25 0.25 0.25 0.15 0 0.25 -0.10 0.25 -0.25z"/>
  <path d="M21.50 39.20 c0 -0.50 0.85 -1.85 1.85 -3.15 1.05 -1.25 1.55 -2.05 1.15 -1.85 -0.40 0.25 0 -0.30 0.95 -1.20 1.40 -1.30 1.90 -1.50 2.75 -1.10 0.60 0.25 2.30 0.95 3.80 1.60 4.15 1.70 4.25 1.75 4.40 3.20 0.15 1.15 0 1.30 -1.40 1.30 -1.05 0 -1.45 -0.20 -1.20 -0.60 0.20 -0.35 0.15 -0.40 -0.20 -0.20 -0.35 0.20 -0.85 0.85 -1.20 1.45 -0.50 1 -0.50 1.05 0.25 0.40 0.75 -0.60 0.85 -0.55 0.85 0.15 0 0.70 -0.80 0.80 -6 0.80 -5.25 0 -6 -0.10 -6 -0.80z m10 -1.95 c0 -0.15 -0.10 -0.25 -0.25 -0.25 -0.15 0 -0.25 0.10 -0.25 0.25 0 0.15 0.10 0.25 0.25 0.25 0.15 0 0.25 -0.10 0.25 -0.25z m4 -1.85 c0 -0.30 -0.30 -0.25 -0.75 0.10 -0.40 0.35 -0.75 0.70 -0.75 0.80 0 0.10 0.35 0.05 0.75 -0.10 0.40 -0.20 0.75 -0.55 0.75 -0.80z m-2.30 0.15 c0.45 -0.70 -3.40 -2.55 -4.25 -2 -0.60 0.35 -0.55 0.45 0.10 0.45 0.45 0 1.30 0.45 1.95 1 1.25 1.10 1.80 1.25 2.20 0.55z m-5.20 -2.80 c0 -0.15 -0.10 -0.25 -0.25 -0.25 -0.15 0 -0.25 0.10 -0.25 0.25 0 0.15 0.10 0.25 0.25 0.25 0.15 0 0.25 -0.10 0.25 -0.25z"/>
  <path d="M17 31.90 c0 -0.60 0.15 -0.90 0.35 -0.70 0.55 0.50 0.60 1.80 0.10 1.80 -0.25 0 -0.45 -0.50 -0.45 -1.10z"/>
  <path d="M18.50 31.65 c-0.40 -0.80 -0.80 -1.55 -0.90 -1.75 -0.10 -0.25 0.55 -0.40 1.35 -0.40 1.45 0 1.55 0.15 1.55 1.75 0 2.15 -1.05 2.35 -2 0.40z"/>
  <path d="M23 27.70 c0 -1.80 0.15 -2.20 0.95 -2.20 0.50 0 1.10 0.40 1.25 0.85 0.25 0.60 0.45 0.70 0.70 0.30 0.20 -0.35 0.40 0.20 0.45 1.25 0.10 1.75 0 1.85 -1.65 1.95 -1.70 0.10 -1.70 0.05 -1.70 -2.15z"/>
  <path d="M13.25 26.40 c-0.80 -2 -0.60 -2.40 1.30 -2.40 0.80 0 1.45 -0.20 1.45 -0.45 0 -0.50 2.10 -1.15 2.45 -0.75 0.15 0.15 -0.25 0.70 -0.95 1.20 -0.70 0.50 -1.05 1.10 -0.85 1.30 0.20 0.20 1.05 -0.10 1.85 -0.70 1.85 -1.40 2.10 -1.35 1.90 0 -0.20 1.40 -3.10 3.40 -5 3.40 -1.15 0 -1.60 -0.30 -2.15 -1.60z m2.75 -0.90 c0 -0.25 -0.60 -0.50 -1.30 -0.50 -0.70 0 -1.15 0.20 -0.95 0.50 0.15 0.30 0.75 0.50 1.30 0.50 0.50 0 0.95 -0.20 0.95 -0.50z"/>
  <path d="M20 22.50 c0 -0.25 -0.90 -0.50 -2 -0.50 -1.10 0 -2 -0.20 -2 -0.50 0 -0.25 0.90 -0.50 2 -0.50 1.10 0 2 0.25 2 0.50 0 0.30 0.35 0.50 0.75 0.50 0.40 0 0.75 0.25 0.75 0.50 0 0.30 -0.35 0.50 -0.75 0.50 -0.40 0 -0.75 -0.20 -0.75 -0.50z"/>
  <path d="M12.55 14.85 c0.95 -0.70 0.50 -2.55 -0.75 -3 -1 -0.40 -1 0 -0.05 1 0.40 0.40 0.60 1 0.40 1.30 -0.25 0.40 -0.45 0.30 -0.55 -0.25 -0.10 -0.50 -0.45 -0.90 -0.85 -0.90 -0.35 0 -0.75 -0.75 -0.85 -1.75 -0.20 -1.55 -0.05 -1.75 0.95 -1.75 0.80 0 1.15 0.30 1.15 0.95 0 0.75 0.40 1.05 1.65 1.15 1.45 0.15 1.60 0.30 1.75 2.05 0.15 1.85 0.15 1.85 -1.75 1.85 -1.60 -0.05 -1.80 -0.15 -1.10 -0.65z"/>
  <path d="M15 4.05 c0 -0.90 0.90 -1.05 1.50 -0.30 0.50 0.65 0.45 0.75 -0.45 0.75 -0.55 0 -1.05 -0.20 -1.05 -0.45z"/>
  <path d="M12.20 3.40 c-0.20 -0.35 -0.15 -0.40 0.20 -0.20 0.60 0.35 0.80 0.80 0.40 0.80 -0.15 0 -0.40 -0.25 -0.60 -0.60z"/>
  <path d="M17.65 3.65 c0.20 -0.15 0.50 -0.15 0.70 0 0.15 0.20 0 0.35 -0.35 0.35 -0.35 0 -0.50 -0.15 -0.35 -0.35z"/>
  <path d="M24.50 2.25 c0 -0.15 0.10 -0.25 0.25 -0.25 0.15 0 0.25 0.10 0.25 0.25 0 0.15 -0.10 0.25 -0.25 0.25 -0.15 0 -0.25 -0.10 -0.25 -0.25z"/>
  <path d="M12.50 0.75 c0.35 -0.45 0.75 -0.65 0.85 -0.55 0.35 0.35 -0.35 1.30 -0.95 1.30 -0.30 0 -0.30 -0.30 0.10 -0.75z"/>
 </g>
 <g fill="#462c17">
  <path d="M9.50 38.50 c0 -1.15 0.20 -1.50 1 -1.50 0.55 0 1 0.30 1 0.70 0 0.40 0.15 1.15 0.30 1.65 0.25 0.75 0.20 0.75 -0.25 0.15 -0.35 -0.50 -0.55 -0.55 -0.55 -0.10 0 0.30 -0.35 0.60 -0.75 0.60 -0.50 0 -0.75 -0.50 -0.75 -1.50z"/>
  <path d="M29 39.80 c0 -0.10 0.35 -0.45 0.75 -0.80 0.60 -0.50 0.75 -0.50 0.75 0.20 0 0.45 -0.35 0.80 -0.75 0.80 -0.40 0 -0.75 -0.10 -0.75 -0.20z"/>
  <path d="M28 38.75 c0 -0.15 0.10 -0.25 0.25 -0.25 0.15 0 0.25 0.10 0.25 0.25 0 0.15 -0.10 0.25 -0.25 0.25 -0.15 0 -0.25 -0.10 -0.25 -0.25z"/>
  <path d="M33.55 37.65 c0.55 -0.75 0.55 -0.80 -0.05 -0.25 -0.85 0.75 -3 0.80 -3 0.05 0 -0.25 0.25 -0.35 0.50 -0.20 0.30 0.15 0.50 -0.05 0.50 -0.45 0 -0.45 0.30 -0.80 0.70 -0.80 1.45 0 1.25 -0.95 -0.30 -1.75 -2.10 -1.05 -4.50 -1.80 -4.15 -1.30 0.10 0.25 -0.55 1.25 -1.50 2.25 -0.95 1.05 -1.75 2.10 -1.75 2.35 0 0.25 -0.20 0.45 -0.50 0.45 -0.80 0 -0.60 -2.10 0.35 -3.10 0.45 -0.55 0.55 -0.90 0.25 -0.90 -0.35 0 -0.60 0.25 -0.60 0.55 0 0.25 -0.20 0.35 -0.50 0.20 -0.25 -0.15 -0.50 -0.05 -0.50 0.20 0 0.30 -0.80 0.55 -1.75 0.55 -0.95 0 -1.75 -0.25 -1.75 -0.55 0 -0.30 -0.30 -0.45 -0.65 -0.30 -0.35 0.15 -1.15 -0.30 -1.80 -0.95 -0.95 -1 -1.05 -1.35 -0.55 -1.95 0.35 -0.40 0.85 -0.60 1.10 -0.45 0.25 0.15 0.35 0.45 0.20 0.60 -0.35 0.35 0.65 1.60 1.30 1.60 0.25 0 0.20 -0.40 -0.05 -0.95 -0.30 -0.50 -0.35 -1.10 -0.15 -1.30 0.20 -0.25 0.10 -0.25 -0.20 -0.10 -0.75 0.45 -1.45 -2.10 -0.75 -2.80 0.35 -0.35 0.60 -0.25 0.85 0.30 0.15 0.45 0.60 0.85 0.90 0.85 1.05 0 3 -2.45 3.55 -4.40 0.65 -2.25 1.45 -2.40 1.65 -0.35 0.15 1.50 1.10 3.05 1.10 1.85 0 -0.35 0.25 -0.60 0.55 -0.60 0.40 0 0.40 0.20 0 0.65 -0.35 0.45 -0.40 1.20 -0.05 2.40 0.60 2.05 0.60 1.95 0 1.95 -0.25 0 -0.50 -0.35 -0.50 -0.75 0 -1.25 -1.45 -0.85 -1.80 0.50 -0.35 1.40 -1.55 2.25 -3.15 2.25 -0.60 0 -1.05 0.20 -1.05 0.50 0 0.80 3.15 -0.05 4.40 -1.15 1.30 -1.25 2.90 -1.45 3.65 -0.50 0.30 0.35 0.90 0.65 1.30 0.65 0.35 0 1.60 0.45 2.65 1 1.10 0.55 2 0.85 2 0.65 0 -0.20 0.25 -0.10 0.60 0.25 0.40 0.40 0.40 0.75 -0.10 1.35 -0.40 0.45 -0.40 0.75 -0.10 0.75 0.30 0 0.80 -0.40 1.05 -0.85 0.40 -0.75 0.50 -0.55 0.55 1 0 1.75 -0.10 1.85 -1.55 1.85 -1.40 0 -1.50 -0.10 -0.90 -0.85z m-7.30 -5.15 c0.15 -0.25 0.20 -0.50 0.05 -0.50 -0.15 0 -0.40 0.25 -0.55 0.50 -0.15 0.30 -0.20 0.50 -0.05 0.50 0.15 0 0.40 -0.20 0.55 -0.50z m-1.40 -5.10 c-0.15 -0.40 -0.30 -0.25 -0.30 0.30 -0.05 0.55 0.10 0.85 0.25 0.65 0.15 -0.15 0.20 -0.60 0.05 -0.95z"/>
  <path d="M14.50 37.40 c0 -1.50 0.65 -2.90 1.30 -2.90 0.45 0 0.70 0.60 0.70 1.75 0 1.40 -0.20 1.75 -1 1.75 -0.55 0 -1 -0.30 -1 -0.60z"/>
  <path d="M26.30 37.25 c0.20 -0.40 0.40 -0.75 0.50 -0.75 0.10 0 0.20 0.35 0.20 0.75 0 0.40 -0.20 0.75 -0.50 0.75 -0.25 0 -0.35 -0.35 -0.20 -0.75z"/>
  <path d="M28.25 36.35 c-1.35 -1.55 0.70 -3.20 2.15 -1.75 0.45 0.45 0.40 0.80 -0.25 1.50 -0.95 1.05 -1.20 1.10 -1.90 0.25z"/>
  <path d="M11 35.65 c0 -0.65 0.25 -1.15 0.50 -1.15 0.65 0 0.65 0.55 0 1.50 -0.40 0.60 -0.50 0.55 -0.50 -0.35z"/>
  <path d="M12.80 35.05 c-0.20 -0.35 -0.25 -0.75 -0.10 -0.90 0.45 -0.45 0.95 0.20 0.70 0.90 -0.20 0.55 -0.30 0.55 -0.60 0z"/>
  <path d="M14.75 28.10 c-0.25 -0.20 -0.80 -0.75 -1.20 -1.25 -0.65 -0.85 -0.60 -0.90 0.50 -0.80 2.70 0.25 4.05 -0.10 5.20 -1.35 1.20 -1.25 1.25 -1.30 1.25 -0.30 0 1.70 -4.50 4.60 -5.75 3.70z"/>
  <path d="M12.65 24.90 c-0.10 -0.25 -0.10 -0.40 0.05 -0.40 0.15 0 -0.45 -1.50 -1.25 -3.35 -1.80 -3.95 -1.95 -5.45 -0.65 -6.40 0.90 -0.65 0.90 -0.70 0.05 -1 -0.55 -0.25 -0.85 -0.85 -0.80 -1.70 0.05 -0.70 -0.05 -1.65 -0.25 -2.05 -0.15 -0.40 -0.10 -1.05 0.15 -1.45 0.35 -0.55 0.85 -0.55 2.95 0 2.25 0.55 2.85 0.50 5.25 -0.30 3.40 -1.15 5.05 -0.80 5.80 1.30 0.70 1.95 0.70 2.10 0.05 1.70 -0.30 -0.15 -0.65 0 -0.80 0.45 -0.20 0.55 -0.85 0.65 -2.95 0.45 -2.40 -0.25 -2.70 -0.15 -3.30 0.90 -0.30 0.65 -0.90 1.45 -1.25 1.80 -0.35 0.35 -0.50 1.10 -0.35 1.70 0.25 0.95 0.35 0.95 1.25 -0.50 1.15 -1.75 2.65 -2.15 2.15 -0.55 -0.25 0.80 -0.10 1 0.70 1 0.60 0 1 -0.25 0.90 -0.60 -0.20 -1.15 1.50 -0.95 1.85 0.20 0.65 2.55 -0.25 6.90 -1.45 6.90 -0.40 0 -0.75 -0.20 -0.75 -0.50 0 -0.25 -0.85 -0.50 -1.85 -0.50 -2.25 -0.05 -4.35 -1.25 -3 -1.80 0.45 -0.15 0.70 -0.50 0.55 -0.75 -0.15 -0.25 -0.80 -0.10 -1.45 0.35 -0.70 0.45 -1.15 1 -1 1.20 0.15 0.25 0.05 0.55 -0.25 0.75 -1.25 0.75 -0.25 1.25 2.60 1.25 l3.05 0 -1.20 1.15 c-1.15 1.05 -4.25 1.55 -4.80 0.75z m4.85 -4.90 c0 -0.25 -0.10 -0.50 -0.20 -0.50 -0.15 0 -0.40 0.25 -0.55 0.50 -0.15 0.30 -0.05 0.50 0.20 0.50 0.30 0 0.55 -0.20 0.55 -0.50z m-4.75 -5.20 l1.30 -1.20 -1.35 -1.05 c-1.55 -1.20 -2.25 -1.05 -1 0.25 0.75 0.75 0.75 0.90 0.05 1.65 -0.75 0.85 -1 1.55 -0.55 1.55 0.15 0 0.85 -0.55 1.55 -1.20z m2.25 -3.55 c0 -0.15 -0.10 -0.25 -0.25 -0.25 -0.15 0 -0.25 0.10 -0.25 0.25 0 0.15 0.10 0.25 0.25 0.25 0.15 0 0.25 -0.10 0.25 -0.25z m6.35 -1.55 c-0.15 -0.15 -0.60 -0.20 -0.95 -0.05 -0.40 0.15 -0.25 0.30 0.30 0.30 0.55 0.05 0.85 -0.10 0.65 -0.25z"/>
  <path d="M13 13.75 c0 -0.15 0.10 -0.25 0.25 -0.25 0.15 0 0.25 0.10 0.25 0.25 0 0.15 -0.10 0.25 -0.25 0.25 -0.15 0 -0.25 -0.10 -0.25 -0.25z"/>
  <path d="M25.30 22.10 c-0.10 -0.20 -0.05 -0.70 0.25 -1.10 0.25 -0.40 0.45 -1.45 0.45 -2.35 0 -0.95 0.50 -2.15 1.30 -3.10 1.35 -1.65 2.90 -2.15 2.35 -0.80 -0.15 0.45 -0.40 0.65 -0.55 0.50 -0.60 -0.60 -2.60 2 -2.60 3.35 0 0.75 0.20 1.40 0.40 1.40 0.80 0 1.60 -1.25 1.60 -2.45 0 -0.95 0.15 -1.10 0.55 -0.70 0.90 0.90 0.10 2.90 -1.75 4.35 -0.95 0.70 -1.85 1.10 -2 0.90z"/>
  <path d="M30 19 c0.05 -1.25 0.35 -2.80 0.75 -3.50 0.70 -1.15 0.70 -1.05 0.45 1.75 -0.40 3.65 -1.20 4.85 -1.20 1.75z"/>
  <path d="M17.50 13.45 c0 -1.05 2.95 -1.20 4.30 -0.25 0.85 0.65 0.70 0.75 -1.65 0.70 -1.45 -0.05 -2.65 -0.25 -2.65 -0.45z"/>
 </g>
 <g fill="#3d2d3d">
  <path d="M6 39.60 c0 -0.25 0.55 -0.95 1.25 -1.60 l1.25 -1.15 0 1.55 c0 1.35 -0.20 1.60 -1.25 1.60 -0.70 0 -1.25 -0.20 -1.25 -0.40z"/>
  <path d="M16.80 37.60 c-0.55 -3.95 -0.50 -4.10 1.45 -4.10 1.60 0 1.75 0.15 1.70 1.40 -0.05 0.80 -0.15 1 -0.30 0.50 -0.25 -1.05 -0.95 -1.15 -1.30 -0.20 -0.15 0.40 0.25 0.90 0.95 1.25 1.05 0.45 1.20 0.40 1.20 -0.50 0 -0.85 0.25 -1 1.65 -0.85 1.40 0.15 1.60 0.35 1.75 1.80 0.15 1.45 0.05 1.60 -1.20 1.60 -1.25 0 -1.30 -0.05 -0.60 -0.85 0.40 -0.50 0.90 -1.25 1.15 -1.65 0.20 -0.40 -0.30 0.05 -1.15 1 -0.85 0.95 -1.55 2.05 -1.60 2.40 0 0.40 -0.60 0.60 -1.70 0.50 -1.60 -0.10 -1.70 -0.20 -2 -2.30z m2.20 0.35 c0 -0.30 -0.20 -0.35 -0.50 -0.20 -0.25 0.15 -0.50 0.55 -0.50 0.80 0 0.30 0.25 0.35 0.50 0.20 0.30 -0.15 0.50 -0.55 0.50 -0.80z"/>
  <path d="M34.50 37.05 c0 -0.30 0.25 -0.65 0.50 -0.80 0.30 -0.15 0.50 -0.55 0.50 -0.90 0 -0.40 -0.15 -0.40 -0.60 0.05 -0.35 0.35 -0.90 0.60 -1.25 0.60 -0.55 0 -0.55 -0.25 -0.15 -1 0.65 -1.20 1.90 -0.75 3.20 1.25 0.80 1.25 0.80 1.25 -0.70 1.25 -0.80 0 -1.50 -0.20 -1.50 -0.45z"/>
  <path d="M29.65 34.65 c0.20 -0.15 0.50 -0.15 0.70 0 0.15 0.20 0 0.35 -0.35 0.35 -0.35 0 -0.50 -0.15 -0.35 -0.35z"/>
  <path d="M30 33.25 c-0.70 -0.40 -0.95 -0.70 -0.50 -0.70 0.40 0 1.30 0.30 2 0.70 0.70 0.40 0.95 0.70 0.50 0.70 -0.40 0 -1.30 -0.30 -2 -0.70z"/>
  <path d="M25.50 31.25 c0.35 -0.45 0.50 -1.25 0.30 -2.05 -0.50 -1.95 0.10 -3.10 1.95 -3.70 2 -0.65 2.75 -2.35 2.40 -5.55 -0.20 -2.05 0.30 -3.80 3.05 -10.45 0.75 -1.85 -0.20 2.05 -1.15 4.60 -0.70 1.95 -1.05 4.05 -1.05 6.55 0 4.05 -0.55 5.05 -3.30 5.80 -1.05 0.30 -1.40 0.70 -1.35 1.35 0.10 0.50 0.20 1.55 0.25 2.30 0.10 0.70 0.30 1.20 0.50 1.10 0.20 -0.10 0.45 0 0.65 0.30 0.20 0.30 -0.35 0.50 -1.30 0.50 -1.35 0 -1.50 -0.10 -0.95 -0.75z"/>
  <path d="M24.50 28.75 c0 -0.15 0.10 -0.25 0.25 -0.25 0.15 0 0.25 0.10 0.25 0.25 0 0.15 -0.10 0.25 -0.25 0.25 -0.15 0 -0.25 -0.10 -0.25 -0.25z"/>
  <path d="M24.50 26.50 c0 -0.35 0.15 -0.50 0.35 -0.35 0.15 0.20 0.15 0.50 0 0.70 -0.20 0.15 -0.35 0 -0.35 -0.35z"/>
  <path d="M25.50 23.50 c0 -0.35 0.15 -0.50 0.35 -0.35 0.15 0.20 0.15 0.50 0 0.70 -0.20 0.15 -0.35 0 -0.35 -0.35z"/>
  <path d="M25.50 22.30 c0 -0.20 0.80 -1.10 1.75 -2 1.70 -1.65 2.35 -1.80 1.10 -0.30 -0.95 1.20 -2.85 2.70 -2.85 2.30z"/>
  <path d="M11.10 16.60 c-1.05 -0.15 -1.15 -0.40 -1.05 -3 0.05 -2.25 -0.20 -3.30 -1.25 -5.10 -0.95 -1.70 -1.25 -2.90 -1.25 -4.75 l0.10 -2.50 0.35 2.75 c0.40 3.05 1.40 5.45 1.95 4.60 0.40 -0.70 2.55 -0.20 2.55 0.60 0 0.35 -0.25 0.85 -0.60 1.20 -0.45 0.45 -0.35 0.60 0.50 0.60 0.75 0 1.20 0.40 1.40 1.25 0.15 0.70 0.50 1.25 0.75 1.25 0.25 0 0.45 0.80 0.45 1.75 0 1.45 -0.20 1.75 -1.05 1.75 -0.55 0 -0.85 -0.20 -0.70 -0.50 0.15 -0.25 0.10 -0.50 -0.20 -0.50 -0.25 0 -0.55 0.15 -0.65 0.40 -0.05 0.20 -0.65 0.30 -1.30 0.20z m1.10 -1.40 c0.20 -0.45 0.65 -0.70 1.05 -0.50 0.45 0.15 0.75 0 0.75 -0.35 0 -0.95 -1.90 -2.85 -2.85 -2.85 -0.70 0 -0.65 0.20 0.30 1.05 1 0.95 1.05 1.10 0.35 1.90 -0.90 1 -1 1.55 -0.35 1.55 0.25 0 0.60 -0.35 0.75 -0.80z"/>
  <path d="M17 16 c0 -0.55 0.35 -1.15 0.75 -1.35 1.10 -0.40 1.50 0.20 0.80 1.05 -0.50 0.60 -0.35 0.75 0.80 0.95 1.15 0.15 1.10 0.20 -0.45 0.30 -1.60 0.05 -1.90 -0.10 -1.90 -0.95z"/>
  <path d="M20.75 15.50 c-0.15 -0.25 0.05 -0.50 0.45 -0.50 0.45 0 0.80 0.25 0.80 0.50 0 0.30 -0.20 0.50 -0.45 0.50 -0.30 0 -0.65 -0.20 -0.80 -0.50z"/>
  <path d="M19.90 14.15 c-2.40 -0.20 -3.10 -0.80 -1.60 -1.35 1.40 -0.55 2.55 -0.30 3.75 0.70 0.65 0.50 1 0.95 0.70 0.90 -0.25 -0.05 -1.55 -0.15 -2.85 -0.25z"/>
  <path d="M16 12.35 c0 -0.40 0.35 -0.90 0.80 -1.05 1.15 -0.45 5.70 -0.35 5.70 0.10 0 0.25 -1.10 0.40 -2.45 0.40 -1.35 0 -2.80 0.30 -3.25 0.65 -0.65 0.55 -0.80 0.55 -0.80 -0.10z"/>
  <path d="M32.55 4.10 c-0.25 -1.30 -0.65 -2.80 -0.85 -3.35 -0.30 -0.90 -0.25 -0.90 0.50 0.10 0.80 1.05 1.75 5.65 1.15 5.65 -0.15 0 -0.50 -1.05 -0.80 -2.40z"/>
 </g>
 <g fill="#523821">
  <path d="M10 38.75 c0 -0.80 0.30 -1.25 0.80 -1.25 0.55 0 0.70 0.25 0.50 0.80 -0.15 0.45 -0.30 1 -0.30 1.25 0 0.25 -0.20 0.45 -0.50 0.45 -0.25 0 -0.50 -0.55 -0.50 -1.25z"/>
  <path d="M25 39.50 c0 -1.20 3.30 -4.95 4.35 -5 1.30 0 1.25 0.60 -0.35 3.40 -0.95 1.70 -1.45 2.10 -2.60 2.10 -0.75 0 -1.40 -0.25 -1.40 -0.50z"/>
  <path d="M29.50 39.65 c0.05 -0.60 1.45 -2.95 1.50 -2.45 0 0.30 0.35 0.05 0.75 -0.50 0.70 -0.90 0.70 -0.85 0.75 0.70 0 1.25 -0.20 1.60 -1 1.60 -0.55 0 -1 0.25 -1 0.50 0 0.30 -0.20 0.50 -0.50 0.50 -0.25 0 -0.50 -0.15 -0.50 -0.35z"/>
  <path d="M11.50 39.25 c0 -0.15 0.10 -0.25 0.25 -0.25 0.15 0 0.25 0.10 0.25 0.25 0 0.15 -0.10 0.25 -0.25 0.25 -0.15 0 -0.25 -0.10 -0.25 -0.25z"/>
  <path d="M19.50 38.30 c0 -0.65 0.15 -1.55 0.30 -2 0.40 -1.10 3 -1.05 3.65 0.05 0.60 1.10 1.15 0.60 1.35 -1.10 0.10 -1.10 0 -1.20 -0.60 -0.70 -0.55 0.45 -0.70 0.40 -0.70 -0.40 0 -1.20 2.05 -3.25 2.80 -2.75 1.20 0.80 0.95 2 -1.05 4.85 -1.80 2.65 -2.30 3 -3.90 3.15 -1.70 0.15 -1.85 0.05 -1.85 -1.10z m3.40 -2.05 c-0.15 -0.15 -0.65 0.35 -1.15 1.10 l-0.85 1.40 1.15 -1.10 c0.60 -0.60 1 -1.25 0.85 -1.40z m3.35 -3.75 c0.15 -0.25 0.20 -0.50 0.05 -0.50 -0.15 0 -0.40 0.25 -0.55 0.50 -0.15 0.30 -0.20 0.50 -0.05 0.50 0.15 0 0.40 -0.20 0.55 -0.50z"/>
  <path d="M34.90 36.40 c0.85 -0.85 0.75 -1.65 -0.15 -0.90 -0.60 0.50 -0.75 0.50 -0.75 -0.20 0 -1.20 1.30 -0.95 2.20 0.45 0.80 1.25 0.80 1.25 -0.55 1.25 -1.05 0 -1.20 -0.15 -0.75 -0.60z"/>
  <path d="M11.50 35 c0 -0.35 0.15 -0.50 0.35 -0.35 0.15 0.20 0.15 0.50 0 0.70 -0.20 0.15 -0.35 0 -0.35 -0.35z"/>
  <path d="M13 34.25 c0 -0.15 0.10 -0.25 0.25 -0.25 0.15 0 0.25 0.10 0.25 0.25 0 0.15 -0.10 0.25 -0.25 0.25 -0.15 0 -0.25 -0.10 -0.25 -0.25z"/>
  <path d="M17.35 33 c-0.50 -0.60 -0.70 -1.30 -0.55 -1.60 0.25 -0.35 0.50 -0.15 0.75 0.55 0.25 0.60 0.95 1.30 1.55 1.55 1.05 0.40 1.05 0.45 0.15 0.45 -0.55 0.05 -1.40 -0.40 -1.90 -0.95z"/>
  <path d="M21.90 33.65 c0.35 -0.15 0.80 -0.10 0.95 0.05 0.20 0.15 -0.10 0.30 -0.65 0.25 -0.55 0 -0.70 -0.15 -0.30 -0.30z"/>
  <path d="M30.50 33.50 c-0.40 -0.25 -0.50 -0.50 -0.25 -0.50 0.30 0 0.85 0.25 1.25 0.50 0.40 0.25 0.55 0.50 0.25 0.50 -0.25 0 -0.85 -0.25 -1.25 -0.50z"/>
  <path d="M18.85 31.50 c-0.80 -0.95 -0.80 -1 0.10 -1 0.55 0 2 -1 3.20 -2.25 1.25 -1.25 2.40 -2.25 2.50 -2.25 0.40 0 0 2.90 -0.60 4.40 -0.45 1.05 -1.10 1.60 -2.15 1.80 -2.10 0.40 -2.05 0.40 -3.05 -0.70z"/>
  <path d="M25.75 29 c-0.20 -0.85 -0.25 -1.70 -0.10 -1.80 0.15 -0.15 0.40 0.45 0.60 1.30 0.20 0.85 0.25 1.70 0.10 1.80 -0.15 0.15 -0.40 -0.45 -0.60 -1.30z"/>
  <path d="M14.60 28.15 c-0.35 -0.15 -0.85 -0.70 -1.15 -1.25 -0.50 -0.95 -0.45 -1 0.50 -0.75 0.55 0.15 1.85 0.05 2.90 -0.15 2.15 -0.50 2.55 -0.35 1.70 0.70 -0.75 0.90 -3.05 1.75 -3.95 1.45z"/>
  <path d="M26 26.25 c0 -0.15 0.10 -0.25 0.25 -0.25 0.15 0 0.25 0.10 0.25 0.25 0 0.15 -0.10 0.25 -0.25 0.25 -0.15 0 -0.25 -0.10 -0.25 -0.25z"/>
  <path d="M13 24.80 c0 -0.10 0.90 -0.30 1.95 -0.40 1.10 -0.10 1.85 0 1.75 0.20 -0.25 0.40 -3.70 0.55 -3.70 0.20z"/>
  <path d="M19.50 24.50 c0 -0.35 0.15 -0.50 0.35 -0.35 0.15 0.20 0.15 0.50 0 0.70 -0.20 0.15 -0.35 0 -0.35 -0.35z"/>
  <path d="M12.90 23.15 c0.35 -0.15 0.80 -0.10 0.95 0.05 0.20 0.15 -0.10 0.30 -0.65 0.25 -0.55 0 -0.70 -0.15 -0.30 -0.30z"/>
  <path d="M18 23.25 c0 -0.15 0.10 -0.25 0.25 -0.25 0.15 0 0.25 0.10 0.25 0.25 0 0.15 -0.10 0.25 -0.25 0.25 -0.15 0 -0.25 -0.10 -0.25 -0.25z"/>
  <path d="M10.80 19.40 c-1.20 -3.60 -1 -10.55 0.35 -10.80 0.65 -0.15 0.85 0.15 0.85 1.10 0 0.70 0.25 1.30 0.50 1.30 0.30 0 0.50 -0.45 0.50 -0.95 0 -0.80 0.35 -1 1.90 -1 1 0.05 2.70 -0.30 3.70 -0.75 3.45 -1.45 5 -0.80 4.45 1.85 -0.30 1.50 -0.45 1.60 -2.85 1.65 -3.70 0.05 -5.05 1.20 -5.30 4.65 -0.20 2 -0.55 2.95 -1.30 3.60 -0.60 0.45 -1.10 1.10 -1.10 1.40 0 1.40 -0.90 0.30 -1.70 -2.05z m1.55 -0.75 c-0.20 -0.15 -0.35 0 -0.35 0.35 0 0.35 0.15 0.50 0.35 0.35 0.15 -0.20 0.15 -0.50 0 -0.70z m0.85 -1.90 c0.15 -0.40 0.05 -0.75 -0.20 -0.75 -0.30 0 -0.50 0.35 -0.50 0.75 0 0.40 0.10 0.75 0.20 0.75 0.10 0 0.30 -0.35 0.50 -0.75z m-0.90 -1.60 c0.60 -0.80 0.75 -0.80 1.20 -0.15 0.40 0.60 0.50 0.55 0.50 -0.30 0 -1.25 -1.75 -3.20 -2.85 -3.20 -0.70 0 -0.70 0.10 0.05 0.95 0.55 0.60 0.70 1.05 0.35 1.30 -0.60 0.35 -0.75 2.25 -0.25 2.25 0.20 0 0.65 -0.40 1 -0.85z"/>
  <path d="M18.90 21.65 c-0.60 -0.15 -0.90 -0.70 -0.90 -1.70 0 -1.45 -0.65 -1.90 -1.30 -0.90 -0.20 0.40 -0.45 0.40 -0.90 -0.05 -0.40 -0.40 -0.40 -0.65 0 -0.90 0.30 -0.20 0.75 -1 1.05 -1.85 0.25 -0.80 0.90 -1.60 1.35 -1.65 0.75 -0.15 0.80 -0.05 0.30 0.85 -0.45 0.95 -0.40 1.05 0.75 1.05 0.80 0 1.25 -0.30 1.25 -0.75 0 -0.40 0.30 -0.75 0.70 -0.75 0.80 0 0.95 2.45 0.20 3.35 -0.25 0.30 -0.40 0.85 -0.35 1.25 0.30 2.25 -0.10 2.60 -2.15 2.05z"/>
  <path d="M27.80 19.75 c0.45 -0.70 0.95 -1.20 1.05 -1.05 0.30 0.30 -1 2.30 -1.50 2.30 -0.20 0 0 -0.55 0.45 -1.25z"/>
  <path d="M30.10 19 c0 -0.95 0.10 -1.35 0.25 -0.85 0.10 0.45 0.10 1.25 0 1.75 -0.15 0.45 -0.25 0.05 -0.25 -0.90z"/>
  <path d="M27.25 15.50 c0.50 -0.55 1 -1 1.10 -1 0.10 0 -0.10 0.45 -0.45 1 -0.35 0.55 -0.85 1 -1.10 1 -0.25 0 -0.05 -0.45 0.45 -1z"/>
  <path d="M18.20 13.25 c0.55 -0.40 1.25 -0.75 1.50 -0.75 0.75 0 2.15 0.95 1.55 1.05 -3.70 0.45 -4 0.45 -3.05 -0.30z"/>
 </g>
 <g fill="#842111">
  <path d="M13.50 26.25 c0 -0.15 0.10 -0.25 0.25 -0.25 0.15 0 0.25 0.10 0.25 0.25 0 0.15 -0.10 0.25 -0.25 0.25 -0.15 0 -0.25 -0.10 -0.25 -0.25z"/>
  <path d="M12.80 24.20 c-0.15 -0.45 -0.30 -0.90 -0.30 -1 0 -0.10 1.40 -0.20 3.15 -0.20 l3.10 0 -1.25 1 c-1.55 1.20 -4.25 1.30 -4.70 0.20z"/>
 </g>
 <g fill="#644223">
  <path d="M31.50 38.40 c0 -1.70 0.10 -1.90 1.35 -1.90 1.20 0 1.25 0.05 0.55 0.90 -0.40 0.45 -1 1.30 -1.30 1.85 -0.50 0.90 -0.55 0.75 -0.60 -0.85z"/>
  <path d="M32.50 39.55 c0 -0.30 0.55 -1.15 1.25 -1.90 l1.20 -1.40 0.05 1.90 c0 1.65 -0.15 1.85 -1.25 1.85 -0.70 0 -1.25 -0.20 -1.25 -0.45z"/>
  <path d="M25.50 38.25 c0 -0.15 0.10 -0.25 0.25 -0.25 0.15 0 0.25 0.10 0.25 0.25 0 0.15 -0.10 0.25 -0.25 0.25 -0.15 0 -0.25 -0.10 -0.25 -0.25z"/>
  <path d="M24 37.25 c0 -0.40 0.20 -0.75 0.50 -0.75 0.25 0 0.35 0.35 0.20 0.75 -0.20 0.40 -0.40 0.75 -0.50 0.75 -0.10 0 -0.20 -0.35 -0.20 -0.75z"/>
  <path d="M19.50 34.95 c0 -0.30 -0.35 -0.45 -0.75 -0.25 -0.50 0.20 -0.75 -0.05 -0.75 -0.70 0 -0.85 0.20 -0.90 1.25 -0.50 0.70 0.25 1.90 0.35 2.75 0.20 1.30 -0.30 1.50 -0.20 1.50 0.75 0 0.90 -0.30 1.05 -2 1.05 -1.15 0 -2 -0.25 -2 -0.55z"/>
  <path d="M29.50 33 c-0.40 -0.25 -0.50 -0.50 -0.25 -0.50 0.30 0 0.85 0.25 1.25 0.50 0.40 0.25 0.55 0.50 0.25 0.50 -0.25 0 -0.85 -0.25 -1.25 -0.50z"/>
  <path d="M24.50 32.25 c0 -0.15 0.10 -0.25 0.25 -0.25 0.15 0 0.25 0.10 0.25 0.25 0 0.15 -0.10 0.25 -0.25 0.25 -0.15 0 -0.25 -0.10 -0.25 -0.25z"/>
  <path d="M27.50 32 c0 -0.35 0.15 -0.50 0.35 -0.35 0.15 0.20 0.15 0.50 0 0.70 -0.20 0.15 -0.35 0 -0.35 -0.35z"/>
  <path d="M22.50 30.55 c0 -0.30 0.25 -0.65 0.50 -0.80 0.30 -0.15 0.50 0.05 0.50 0.45 0 0.45 -0.20 0.80 -0.50 0.80 -0.25 0 -0.50 -0.20 -0.50 -0.45z"/>
  <path d="M13.85 27.70 c-0.20 -0.20 -0.35 -0.65 -0.35 -0.95 0 -0.75 3.50 -0.25 3.65 0.50 0.10 0.60 -2.75 0.95 -3.30 0.45z"/>
  <path d="M12.65 23.15 c0.20 -0.15 0.50 -0.15 0.70 0 0.15 0.20 0 0.35 -0.35 0.35 -0.35 0 -0.50 -0.15 -0.35 -0.35z"/>
  <path d="M11.05 20.10 c-0.95 -2.75 -1.25 -5.60 -0.55 -5.60 0.35 0 0.45 0.40 0.20 1.10 -0.30 1.10 -0.30 1.10 0.95 0.25 1.50 -1 1.85 -1.05 1.85 -0.35 0 0.30 -0.30 0.50 -0.70 0.50 -0.90 0 -1.25 2.35 -0.60 3.90 0.30 0.70 0.30 1.30 0 1.60 -0.30 0.30 -0.70 -0.25 -1.15 -1.40z"/>
  <path d="M27.75 20 c0.15 -0.25 0.40 -0.50 0.55 -0.50 0.15 0 0.10 0.25 -0.05 0.50 -0.15 0.30 -0.40 0.50 -0.55 0.50 -0.15 0 -0.10 -0.20 0.05 -0.50z"/>
  <path d="M13 18.90 c0 -0.65 0.35 -2.05 0.70 -3.15 0.70 -1.95 0.70 -2 1.05 -0.65 0.35 1.45 -0.55 4.90 -1.30 4.90 -0.25 0 -0.45 -0.50 -0.45 -1.10z"/>
  <path d="M16 18.70 c0 -0.90 2.35 -2.20 3.85 -2.20 2.50 0 1.85 1.20 -0.75 1.40 -1.15 0.10 -2.10 0.35 -2.10 0.65 0 0.25 -0.20 0.45 -0.50 0.45 -0.25 0 -0.50 -0.15 -0.50 -0.30z"/>
  <path d="M17.20 15.70 c0.15 -0.40 0.30 -0.90 0.30 -1 0 -0.10 0.25 -0.20 0.50 -0.20 0.80 0 0.55 1.35 -0.30 1.70 -0.60 0.25 -0.75 0.10 -0.50 -0.50z"/>
  <path d="M18.20 13.30 c0.55 -0.45 1.35 -0.80 1.75 -0.80 1.05 0 0.10 0.80 -1.45 1.20 -1.20 0.35 -1.20 0.30 -0.30 -0.40z"/>
  <path d="M10.25 12.95 c-0.60 -0.95 0.25 -1.15 1.10 -0.30 0.80 0.80 0.80 0.85 0.05 0.85 -0.45 0 -1 -0.25 -1.15 -0.55z"/>
  <path d="M13.50 12.95 c0 -0.25 -0.80 -0.85 -1.75 -1.25 -1.75 -0.70 -2.10 -1.40 -1.30 -2.65 0.35 -0.55 0.85 -0.60 2.80 -0.10 2.05 0.50 2.70 0.45 5.10 -0.45 3.40 -1.30 4.80 -1 4.35 0.90 -0.50 2 -0.60 2.10 -2.35 2.10 -0.90 0 -2.60 0.45 -3.80 1 -2.45 1.15 -3.05 1.20 -3.05 0.45z"/>
 </g>
 <g fill="#580e65">
  <path d="M7.50 38.80 c0 -1.50 1.80 -3.60 3.40 -4.05 1 -0.30 1.15 -0.20 0.95 0.60 -0.15 0.50 -0.40 1.75 -0.60 2.80 -0.25 1.70 -0.40 1.85 -2 1.85 -1.50 0 -1.75 -0.15 -1.75 -1.20z m2.50 -2.05 c0 -0.15 -0.10 -0.25 -0.25 -0.25 -0.15 0 -0.25 0.10 -0.25 0.25 0 0.15 0.10 0.25 0.25 0.25 0.15 0 0.25 -0.10 0.25 -0.25z"/>
  <path d="M18.70 39.20 c0.15 -0.45 0.30 -1.10 0.30 -1.50 0 -0.35 0.55 -0.80 1.25 -1 0.80 -0.20 1.25 -0.65 1.25 -1.30 0 -0.55 0.40 -1.10 0.90 -1.25 0.45 -0.10 1.55 -1.10 2.35 -2.15 0.85 -1.05 1.65 -1.80 1.90 -1.65 0.20 0.10 0.20 0.45 0.05 0.75 -0.20 0.30 -0.10 0.40 0.20 0.20 2.05 -1.25 -0.45 4.10 -3.25 7.10 -0.35 0.35 -0.65 0.90 -0.65 1.15 0 0.25 -1.05 0.45 -2.30 0.45 -1.90 0 -2.25 -0.15 -2 -0.80z m4.60 -3.05 l1.85 -2.40 -2.05 2 c-1.85 1.70 -2.55 2.75 -1.90 2.75 0.10 0 1.05 -1.05 2.10 -2.35z m2.75 -3.50 c0.65 -0.80 0.60 -0.85 -0.15 -0.20 -0.85 0.65 -1.10 1.05 -0.70 1.05 0.10 0 0.50 -0.40 0.85 -0.85z"/>
  <path d="M30.50 38.95 c0 -1.20 3.15 -4.45 4.30 -4.45 0.50 0 0.25 0.70 -1.05 2.30 -0.95 1.30 -1.75 2.55 -1.75 2.75 0 0.25 -0.35 0.45 -0.75 0.45 -0.45 0 -0.75 -0.45 -0.75 -1.05z"/>
  <path d="M32.50 39.60 c0 -0.20 0.70 -1.25 1.55 -2.25 1.20 -1.45 1.70 -1.80 2.15 -1.30 0.40 0.40 0.40 0.65 -0.05 0.80 -0.35 0.15 -0.65 0.50 -0.65 0.85 0 0.65 -1.75 2.30 -2.50 2.30 -0.30 0 -0.50 -0.15 -0.50 -0.40z"/>
  <path d="M15 34.50 c0 -0.85 0.45 -1.90 1.10 -2.50 1.05 -0.95 1.15 -1 1.50 -0.15 0.15 0.50 0.35 1.65 0.35 2.55 0.05 1.45 -0.10 1.60 -1.45 1.60 -1.35 0 -1.50 -0.15 -1.50 -1.50z m1.35 -1.35 c-0.20 -0.15 -0.35 0 -0.35 0.35 0 0.35 0.15 0.50 0.35 0.35 0.15 -0.20 0.15 -0.50 0 -0.70z"/>
 </g>
 <g fill="#533c50">
  <path d="M9.50 39.25 c0 -0.50 -0.50 -0.75 -1.30 -0.75 l-1.35 0 1.25 -1.60 c1.40 -1.85 4.10 -2.90 3.70 -1.50 -0.10 0.45 -0.35 1.70 -0.55 2.75 -0.30 1.80 -1.75 2.75 -1.75 1.10z m0.70 -2.55 c0.15 -0.40 0.10 -0.60 -0.20 -0.45 -0.30 0.15 -0.50 0.50 -0.50 0.80 0 0.70 0.35 0.55 0.70 -0.35z"/>
  <path d="M16 39.45 c0 -0.25 -0.35 -0.45 -0.75 -0.45 -0.80 0 -0.95 -1 -0.45 -2.85 0.30 -1.10 1.45 -1.55 1.80 -0.75 0.10 0.25 0.85 0.60 1.75 0.75 1.30 0.25 1.55 0.15 1.30 -0.40 -0.15 -0.50 0.10 -0.75 0.80 -0.75 1.45 0 1.40 1.95 -0.05 3.60 -1.15 1.25 -4.40 1.90 -4.40 0.85z m3 -1.25 c0 -0.40 -0.20 -0.60 -0.50 -0.45 -0.25 0.15 -0.50 0.50 -0.50 0.80 0 0.25 0.25 0.45 0.50 0.45 0.30 0 0.50 -0.35 0.50 -0.80z"/>
  <path d="M36.15 39.25 c-0.35 -0.40 -0.65 -1.45 -0.65 -2.35 l0.05 -1.65 1.45 1.75 c0.85 0.95 1.50 2 1.50 2.35 0 0.85 -1.60 0.80 -2.35 -0.10z"/>
  <path d="M22.50 38.30 c0 -0.75 0.40 -1.55 1 -1.90 0.55 -0.35 1 -0.85 1 -1.10 0 -0.25 0.55 -1.20 1.25 -2.10 0.70 -0.90 1.25 -1.80 1.25 -2 0 -0.20 -0.55 0.35 -1.25 1.30 -1.05 1.45 -1.25 1.55 -1.25 0.65 0 -0.55 0.35 -1.30 0.80 -1.65 0.55 -0.50 0.70 -1.25 0.50 -2.70 l-0.25 -2.05 0.60 1.80 c0.35 1 0.90 2.20 1.30 2.65 0.60 0.70 0.40 1.25 -1.65 4.30 -2.75 4.05 -3.30 4.55 -3.30 2.80z"/>
  <path d="M33.50 35 c0 -0.35 0.15 -0.50 0.35 -0.35 0.15 0.20 0.15 0.50 0 0.70 -0.20 0.15 -0.35 0 -0.35 -0.35z"/>
  <path d="M30.20 33.20 c-0.95 -0.75 -0.95 -0.75 0.05 -0.30 0.55 0.25 1.35 0.60 1.75 0.75 0.65 0.25 0.65 0.30 -0.05 0.30 -0.40 0.05 -1.20 -0.30 -1.75 -0.75z"/>
  <path d="M27.80 25.55 c1.15 -0.55 2.20 -1.25 2.35 -1.60 0.20 -0.50 0.30 -0.45 0.30 0.15 0.05 1.10 -1.80 2.40 -3.45 2.40 -1.05 0 -0.95 -0.15 0.80 -0.95z"/>
  <path d="M30.25 20.35 c-0.35 -1.70 0.30 -4.95 1.25 -6.35 0.70 -1.05 0.60 -0.45 -0.25 2.05 -0.50 1.40 -0.70 2.90 -0.50 4.10 0.40 2.30 -0.10 2.50 -0.50 0.20z"/>
  <path d="M10.10 13.75 c-0.05 -1.80 0.30 -2.15 1.25 -1.20 0.35 0.35 0.35 0.85 -0.05 1.75 -0.75 1.65 -1.15 1.50 -1.20 -0.55z"/>
  <path d="M12.50 15.25 c0 -0.15 0.10 -0.25 0.25 -0.25 0.15 0 0.25 0.10 0.25 0.25 0 0.15 -0.10 0.25 -0.25 0.25 -0.15 0 -0.25 -0.10 -0.25 -0.25z"/>
  <path d="M17.50 15 c0 -0.25 0.25 -0.50 0.50 -0.50 0.30 0 0.50 0.25 0.50 0.50 0 0.30 -0.20 0.50 -0.50 0.50 -0.25 0 -0.50 -0.20 -0.50 -0.50z"/>
  <path d="M21.90 14.20 c-0.15 -0.15 -1.25 -0.25 -2.45 -0.30 -1.95 0 -2.05 -0.10 -1.20 -0.70 0.50 -0.40 1.20 -0.70 1.55 -0.70 0.60 0 3.20 1.95 2.65 2 -0.15 0 -0.40 -0.15 -0.55 -0.30z"/>
  <path d="M32 12.75 c0 -0.15 0.10 -0.25 0.25 -0.25 0.15 0 0.25 0.10 0.25 0.25 0 0.15 -0.10 0.25 -0.25 0.25 -0.15 0 -0.25 -0.10 -0.25 -0.25z"/>
  <path d="M11.75 11.45 c-1.30 -0.85 -1.35 -0.95 -0.45 -0.95 0.60 0 1.35 0.35 1.70 0.75 0.95 1.15 0.45 1.25 -1.25 0.20z"/>
  <path d="M32.50 11.50 c0 -0.35 0.15 -0.50 0.35 -0.35 0.15 0.20 0.15 0.50 0 0.70 -0.20 0.15 -0.35 0 -0.35 -0.35z"/>
  <path d="M17.90 11.15 c0.35 -0.15 0.80 -0.10 0.95 0.05 0.20 0.15 -0.10 0.30 -0.65 0.25 -0.55 0 -0.70 -0.15 -0.30 -0.30z"/>
  <path d="M20.50 11.25 c0 -0.15 0.10 -0.25 0.25 -0.25 0.15 0 0.25 0.10 0.25 0.25 0 0.15 -0.10 0.25 -0.25 0.25 -0.15 0 -0.25 -0.10 -0.25 -0.25z"/>
  <path d="M33 10 c0 -0.35 0.15 -0.50 0.35 -0.35 0.15 0.20 0.15 0.50 0 0.70 -0.20 0.15 -0.35 0 -0.35 -0.35z"/>
  <path d="M7.80 6.25 c-0.45 -1.30 -0.35 -1.60 0.25 -0.60 0.30 0.50 0.45 1.05 0.30 1.15 -0.10 0.15 -0.35 -0.10 -0.55 -0.55z"/>
  <path d="M32.60 3.90 c-0.25 -1.20 -0.65 -2.60 -0.80 -3.15 -0.25 -0.60 -0.10 -0.50 0.35 0.25 0.80 1.30 1.65 5 1.20 5 -0.15 0 -0.50 -0.95 -0.75 -2.10z"/>
 </g>
 <g fill="#76532f">
  <path d="M16.50 33.25 c0 -0.95 0.10 -1.75 0.20 -1.75 0.25 0 3.30 2.85 3.30 3.10 0 0.05 -0.80 0.20 -1.75 0.25 -1.70 0.15 -1.75 0.10 -1.75 -1.60z"/>
  <path d="M13.80 27.20 c-0.20 -0.45 -0.20 -0.95 -0.05 -1.10 0.15 -0.15 0.25 0 0.25 0.30 0 0.35 0.70 0.60 1.55 0.60 0.85 0 1.40 0.20 1.20 0.50 -0.50 0.80 -2.60 0.55 -2.95 -0.30z"/>
  <path d="M12.50 23.50 c0 -0.25 0.45 -0.50 1 -0.50 0.55 0 1 0.25 1 0.50 0 0.30 -0.45 0.50 -1 0.50 -0.55 0 -1 -0.20 -1 -0.50z"/>
  <path d="M15 23.50 c0 -0.25 0.75 -0.50 1.65 -0.50 1.20 0 1.40 0.15 0.85 0.50 -1 0.65 -2.50 0.65 -2.50 0z"/>
  <path d="M11.50 20.75 c0 -0.15 0.10 -0.25 0.25 -0.25 0.15 0 0.25 0.10 0.25 0.25 0 0.15 -0.10 0.25 -0.25 0.25 -0.15 0 -0.25 -0.10 -0.25 -0.25z"/>
  <path d="M13 18.95 c0 -0.70 0.35 -1.70 0.80 -2.25 0.75 -0.90 0.75 -0.85 0.50 0.80 -0.40 2.15 -1.30 3.20 -1.30 1.45z"/>
  <path d="M10.35 18.35 c-0.55 -1.40 -0.40 -3.75 0.20 -4.15 0.40 -0.20 0.45 0.15 0.20 1.25 -0.25 1.30 -0.20 1.50 0.45 1.25 0.45 -0.15 0.80 -0.05 0.80 0.25 0 0.30 -0.20 0.55 -0.45 0.55 -0.25 0 -0.55 0.40 -0.65 0.90 -0.15 0.80 -0.20 0.80 -0.55 -0.05z"/>
  <path d="M17.75 17.45 c-0.35 -0.55 2.35 -1.05 2.85 -0.55 0.30 0.30 -0.10 0.55 -1.10 0.70 -0.85 0.15 -1.65 0.05 -1.75 -0.15z"/>
  <path d="M12.25 15.50 c0.15 -0.25 0.50 -0.50 0.80 -0.50 0.25 0 0.45 0.25 0.45 0.50 0 0.30 -0.35 0.50 -0.80 0.50 -0.40 0 -0.60 -0.20 -0.45 -0.50z"/>
  <path d="M17.25 15.50 c0.15 -0.25 0.50 -0.50 0.80 -0.50 0.25 0 0.45 0.25 0.45 0.50 0 0.30 -0.35 0.50 -0.80 0.50 -0.40 0 -0.60 -0.20 -0.45 -0.50z"/>
  <path d="M10.15 12.65 c0.20 -0.15 0.50 -0.15 0.70 0 0.15 0.20 0 0.35 -0.35 0.35 -0.35 0 -0.50 -0.15 -0.35 -0.35z"/>
  <path d="M12.15 11.85 c-0.90 -0.60 -1.60 -1.50 -1.65 -1.95 0 -0.70 0.40 -0.80 2.70 -0.55 1.95 0.20 3.35 0.05 4.80 -0.55 1.10 -0.45 2.60 -0.80 3.25 -0.80 1.20 0 1.25 0.05 0.60 1.55 -0.55 1.35 -0.90 1.60 -2.85 1.75 -1.20 0.15 -2.55 0.55 -3 0.95 -1.10 1 -1.90 0.90 -3.85 -0.40z"/>
  <path d="M19.65 12.65 c0.20 -0.15 0.50 -0.15 0.70 0 0.15 0.20 0 0.35 -0.35 0.35 -0.35 0 -0.50 -0.15 -0.35 -0.35z"/>
 </g>
 <g fill="#6f3077">
  <path d="M7.50 38.95 c0 -1.10 1.95 -4.20 2.35 -3.75 0.15 0.15 0.70 0.05 1.25 -0.25 0.85 -0.45 0.95 -0.40 0.70 0.40 -0.10 0.50 -0.40 1.75 -0.60 2.80 -0.30 1.90 -1.45 2.50 -1.85 1 -0.20 -0.85 -0.25 -0.85 -0.30 0 -0.10 1.25 -1.55 1.05 -1.55 -0.20z m2.70 -2.25 c0.15 -0.40 0.10 -0.60 -0.20 -0.45 -0.30 0.15 -0.50 0.50 -0.50 0.80 0 0.70 0.35 0.55 0.70 -0.35z"/>
  <path d="M14.70 38.15 c0.15 -1.05 0.30 -2.50 0.30 -3.20 0 -0.75 0.50 -1.95 1.10 -2.70 1 -1.30 1.10 -1.30 1.45 -0.45 0.70 1.80 0.50 4.70 -0.30 4.70 -0.50 0 -0.75 0.55 -0.75 1.75 0 1.45 -0.20 1.75 -1.05 1.75 -0.95 0 -1.05 -0.20 -0.75 -1.85z m1.65 -4.75 c-0.15 -0.40 -0.30 -0.25 -0.30 0.30 -0.05 0.55 0.10 0.85 0.25 0.65 0.15 -0.15 0.20 -0.60 0.05 -0.95z"/>
  <path d="M23 37.65 c0 -1.10 2.40 -4.15 3.30 -4.15 0.50 0 0.25 0.70 -0.90 2.50 -1.70 2.60 -2.40 3.05 -2.40 1.65z"/>
  <path d="M31.80 36.65 c2.05 -2 2.85 -1.65 1.40 0.55 -0.50 0.85 -1.25 1.30 -2.10 1.30 -1.25 0 -1.20 -0.05 0.70 -1.85z"/>
  <path d="M33.50 37.75 c0 -0.15 0.10 -0.25 0.25 -0.25 0.15 0 0.25 0.10 0.25 0.25 0 0.15 -0.10 0.25 -0.25 0.25 -0.15 0 -0.25 -0.10 -0.25 -0.25z"/>
  <path d="M23 35.25 c0 -0.15 0.10 -0.25 0.25 -0.25 0.15 0 0.25 0.10 0.25 0.25 0 0.15 -0.10 0.25 -0.25 0.25 -0.15 0 -0.25 -0.10 -0.25 -0.25z"/>
  <path d="M24 34 c0 -0.25 0.25 -0.50 0.55 -0.50 0.25 0 0.35 0.25 0.20 0.50 -0.15 0.30 -0.40 0.50 -0.55 0.50 -0.10 0 -0.20 -0.20 -0.20 -0.50z"/>
  <path d="M26.05 29.90 c0 -0.45 -0.20 -1.25 -0.35 -1.75 -0.25 -0.85 -0.25 -0.85 0.30 0 0.30 0.50 0.45 1.25 0.35 1.75 -0.20 0.75 -0.25 0.75 -0.30 0z"/>
  <path d="M33.15 7.75 c0 -1.65 0.10 -2.25 0.20 -1.35 0.10 0.90 0.10 2.25 0 3 -0.10 0.75 -0.20 0 -0.20 -1.65z"/>
 </g>
 <g fill="#634e67">
  <path d="M29.50 39.70 c0 -0.65 1.05 -2.20 1.50 -2.20 0.30 0 0.50 0.55 0.50 1.25 0 0.90 -0.25 1.25 -1 1.25 -0.55 0 -1 -0.15 -1 -0.30z"/>
  <path d="M34.70 39.30 c-0.50 -1.25 0 -3.05 0.85 -3.20 0.75 -0.15 2.95 2.60 2.95 3.60 0 0.65 -3.55 0.30 -3.80 -0.40z"/>
  <path d="M8 37.60 c0 -0.25 0.45 -1 1.05 -1.65 l1 -1.20 -0.25 1.50 -0.25 1.50 0.60 -1.35 c0.30 -0.80 0.75 -1.40 1 -1.40 0.20 0 0.35 0.60 0.25 1.40 -0.10 1.10 -0.40 1.40 -1.75 1.50 -0.90 0.10 -1.65 -0.05 -1.65 -0.30z"/>
  <path d="M22.50 34.25 c0 -0.15 0.80 -0.95 1.75 -1.80 0.95 -0.85 1.75 -2.05 1.80 -2.65 0 -1 0.05 -1 0.40 -0.05 0.50 1.30 -1.70 4.75 -3 4.75 -0.55 0 -0.95 -0.10 -0.95 -0.25z"/>
  <path d="M25.30 33.90 c1.10 -1.90 2.70 -3.05 2.70 -1.90 0 0.30 -0.30 0.50 -0.70 0.50 -0.35 0 -0.80 0.45 -0.95 1 -0.15 0.55 -0.50 1 -0.85 1 -0.30 0 -0.40 -0.30 -0.20 -0.60z"/>
  <path d="M31.50 33.75 c0 -0.15 0.10 -0.25 0.25 -0.25 0.15 0 0.25 0.10 0.25 0.25 0 0.15 -0.10 0.25 -0.25 0.25 -0.15 0 -0.25 -0.10 -0.25 -0.25z"/>
  <path d="M15.50 33 c0 -0.35 0.15 -0.50 0.35 -0.35 0.15 0.20 0.15 0.50 0 0.70 -0.20 0.15 -0.35 0 -0.35 -0.35z"/>
  <path d="M16.50 32.55 c0 -0.55 0.25 -1.15 0.50 -1.30 0.30 -0.15 0.50 -0.10 0.50 0.20 0 0.25 0.15 0.80 0.30 1.25 0.20 0.55 0.05 0.80 -0.50 0.80 -0.45 0 -0.80 -0.40 -0.80 -0.95z"/>
  <path d="M30.50 33.25 c0 -0.15 0.10 -0.25 0.25 -0.25 0.15 0 0.25 0.10 0.25 0.25 0 0.15 -0.10 0.25 -0.25 0.25 -0.15 0 -0.25 -0.10 -0.25 -0.25z"/>
  <path d="M28 25.60 c1.40 -0.70 1.85 -1.30 2.35 -3.10 l0.55 -2.25 0.05 2.10 c0.05 1.70 -0.20 2.30 -1.25 3.10 -0.75 0.60 -1.80 1.05 -2.40 1.05 -0.80 -0.05 -0.65 -0.25 0.70 -0.90z"/>
  <path d="M30.55 16.70 c0 -0.55 0.15 -0.70 0.30 -0.30 0.15 0.35 0.10 0.80 -0.05 0.95 -0.15 0.20 -0.30 -0.10 -0.25 -0.65z"/>
  <path d="M17.30 15.25 c0.20 -0.40 0.50 -0.75 0.75 -0.75 0.25 0 0.45 0.35 0.45 0.75 0 0.40 -0.35 0.75 -0.75 0.75 -0.45 0 -0.60 -0.30 -0.45 -0.75z"/>
  <path d="M20.90 15.15 c0.35 -0.15 0.80 -0.10 0.95 0.05 0.20 0.15 -0.10 0.30 -0.65 0.25 -0.55 0 -0.70 -0.15 -0.30 -0.30z"/>
  <path d="M31 15.25 c0 -0.15 0.10 -0.25 0.25 -0.25 0.15 0 0.25 0.10 0.25 0.25 0 0.15 -0.10 0.25 -0.25 0.25 -0.15 0 -0.25 -0.10 -0.25 -0.25z"/>
  <path d="M10.25 14.50 c0.15 -0.25 0.40 -0.50 0.55 -0.50 0.10 0 0.20 0.25 0.20 0.50 0 0.30 -0.25 0.50 -0.55 0.50 -0.25 0 -0.35 -0.20 -0.20 -0.50z"/>
  <path d="M17.90 13.45 c0.85 -0.80 2.50 -0.90 3.35 -0.25 0.85 0.60 0.75 0.70 -1.35 0.60 -1.30 0 -2.20 -0.20 -2 -0.35z"/>
  <path d="M10 13 c0 -0.25 0.25 -0.50 0.55 -0.50 0.25 0 0.35 0.25 0.20 0.50 -0.15 0.30 -0.40 0.50 -0.55 0.50 -0.10 0 -0.20 -0.20 -0.20 -0.50z"/>
  <path d="M33 10.25 c0 -0.15 0.10 -0.25 0.25 -0.25 0.15 0 0.25 0.10 0.25 0.25 0 0.15 -0.10 0.25 -0.25 0.25 -0.15 0 -0.25 -0.10 -0.25 -0.25z"/>
  <path d="M33.10 5.50 c0 -0.70 0.10 -0.95 0.25 -0.60 0.10 0.30 0.10 0.90 0 1.25 -0.15 0.30 -0.25 0.05 -0.25 -0.65z"/>
  <path d="M32.55 3.15 c-0.05 -0.30 -0.20 -1 -0.35 -1.50 -0.25 -0.85 -0.25 -0.85 0.30 0 0.30 0.50 0.45 1.15 0.30 1.50 -0.15 0.45 -0.25 0.45 -0.25 0z"/>
 </g>
 <g fill="#796a56">
  <path d="M29.85 39.15 c0.40 -1.20 1.60 -2.15 2.40 -1.85 1.05 0.45 -0.30 2.70 -1.60 2.70 -0.85 0 -1.05 -0.20 -0.80 -0.85z"/>
  <path d="M32.50 39.60 c0 -0.20 0.70 -1.20 1.55 -2.25 1.25 -1.50 1.70 -1.75 2.25 -1.30 0.75 0.60 0.95 2 0.35 1.90 -1.35 -0.20 -2.15 0.15 -2.15 1.05 0 0.65 -0.35 1 -1 1 -0.55 0 -1 -0.15 -1 -0.40z"/>
  <path d="M8.50 36.50 c1.30 -1.85 1.60 -1.90 1.25 -0.10 l-0.25 1.35 0.60 -1.35 c0.65 -1.55 1.40 -1.85 1.40 -0.60 0 1.20 -1.25 2.20 -2.75 2.20 l-1.30 0 1.05 -1.50z"/>
  <path d="M33.50 35.50 c0 -0.55 0.35 -1 0.75 -1 0.65 0 0.70 0.20 0.25 1 -0.30 0.55 -0.65 1 -0.75 1 -0.15 0 -0.25 -0.45 -0.25 -1z"/>
  <path d="M21.65 35.65 c-1.20 -0.25 -1.60 -1.65 -0.50 -1.65 0.35 0 1.50 -0.45 2.55 -1 1.10 -0.50 2.15 -0.85 2.35 -0.70 1.05 0.65 -0.20 3.70 -1.50 3.70 -0.70 0 -0.75 -0.85 -0.05 -1.25 0.25 -0.15 0.75 -0.80 1.05 -1.40 0.35 -0.65 -0.10 -0.40 -1.10 0.70 -1.20 1.25 -2 1.75 -2.80 1.60z"/>
  <path d="M15.50 32.75 c0 -0.15 0.10 -0.25 0.25 -0.25 0.15 0 0.25 0.10 0.25 0.25 0 0.15 -0.10 0.25 -0.25 0.25 -0.15 0 -0.25 -0.10 -0.25 -0.25z"/>
  <path d="M16.50 32.65 c0 -0.25 0.20 -0.70 0.45 -1.05 0.30 -0.50 0.50 -0.45 0.70 0.35 0.15 0.70 0 1.05 -0.45 1.05 -0.40 0 -0.70 -0.15 -0.70 -0.35z"/>
  <path d="M12.75 23.50 c-0.20 -0.30 0.80 -0.50 2.60 -0.45 2.10 0 2.60 0.15 1.90 0.45 -1.40 0.60 -4.15 0.60 -4.50 0z"/>
  <path d="M10 15.30 c0 -0.40 0.25 -0.90 0.50 -1.05 0.30 -0.15 0.50 0.05 0.50 0.45 0 0.40 -0.20 0.90 -0.50 1.05 -0.25 0.15 -0.50 -0.05 -0.50 -0.45z"/>
  <path d="M12.50 15.50 c0 -0.25 0.25 -0.50 0.50 -0.50 0.30 0 0.50 0.25 0.50 0.50 0 0.30 -0.20 0.50 -0.50 0.50 -0.25 0 -0.50 -0.20 -0.50 -0.50z"/>
  <path d="M17 15.80 c0 -0.10 0.35 -0.45 0.75 -0.80 0.60 -0.50 0.75 -0.50 0.75 0.20 0 0.45 -0.35 0.80 -0.75 0.80 -0.40 0 -0.75 -0.10 -0.75 -0.20z"/>
  <path d="M20.50 15.50 c0 -0.25 0.35 -0.50 0.75 -0.50 0.40 0 0.75 0.25 0.75 0.50 0 0.30 -0.35 0.50 -0.75 0.50 -0.40 0 -0.75 -0.20 -0.75 -0.50z"/>
  <path d="M21.15 13.65 c0.20 -0.15 0.50 -0.15 0.70 0 0.15 0.20 0 0.35 -0.35 0.35 -0.35 0 -0.50 -0.15 -0.35 -0.35z"/>
 </g>
 <g fill="#745880">
  <path d="M29.95 39.05 c0.70 -1.20 4.05 -4.55 4.60 -4.55 0.30 0 0.25 0.45 -0.05 1 -0.30 0.55 -0.85 1 -1.20 1 -0.40 0 -0.85 0.75 -1 1.75 -0.30 1.45 -0.55 1.75 -1.60 1.75 -1.05 0 -1.15 -0.15 -0.75 -0.95z"/>
  <path d="M36.85 38.90 c-0.40 -1.50 0.10 -1.85 0.95 -0.70 0.90 1.25 0.90 1.80 0 1.80 -0.35 0 -0.80 -0.50 -0.95 -1.10z"/>
  <path d="M7.50 38.60 c0 -0.55 0.45 -1.35 1 -1.85 0.95 -0.85 1 -0.85 1 0 0 0.90 0.05 0.90 0.75 -0.05 0.65 -0.90 0.70 -0.85 0.75 0.95 0 1.95 -1.20 2.70 -1.65 1 -0.20 -0.85 -0.25 -0.85 -0.30 0 -0.05 1.15 -1.55 1.10 -1.55 -0.05z"/>
  <path d="M15.65 37.75 c-0.75 -0.80 -0.90 -4.25 -0.20 -4.25 0.25 0 0.60 0.40 0.70 0.90 0.20 0.80 0.25 0.80 0.30 0 0 -0.50 0.40 -0.90 0.80 -0.90 0.70 0 0.95 0.55 0.80 1.80 -0.05 0.35 0.25 0.70 0.70 0.90 0.40 0.15 0.75 0.80 0.75 1.40 0 0.95 -0.10 1 -0.55 0.40 -0.40 -0.55 -0.60 -0.60 -0.80 -0.10 -0.30 0.80 -1.75 0.75 -2.50 -0.15z"/>
  <path d="M22 34.50 c0 -0.25 0.65 -0.80 1.45 -1.25 0.80 -0.40 1.55 -1 1.70 -1.35 0.20 -0.45 0.30 -0.40 0.30 0.10 0.05 1.05 -1.70 3 -2.65 3 -0.45 0 -0.80 -0.20 -0.80 -0.50z"/>
  <path d="M24.75 34.50 c0.15 -0.25 0.40 -0.50 0.55 -0.50 0.10 0 0.20 0.25 0.20 0.50 0 0.30 -0.25 0.50 -0.55 0.50 -0.25 0 -0.35 -0.20 -0.20 -0.50z"/>
  <path d="M26.10 30 c0 -0.70 0.10 -0.95 0.25 -0.60 0.10 0.30 0.10 0.90 0 1.25 -0.15 0.30 -0.25 0.05 -0.25 -0.65z"/>
  <path d="M25.50 28 c0 -0.35 0.15 -0.50 0.35 -0.35 0.15 0.20 0.15 0.50 0 0.70 -0.20 0.15 -0.35 0 -0.35 -0.35z"/>
  <path d="M27.80 25.80 c0.90 -0.40 1.80 -1.10 2.10 -1.55 0.30 -0.55 0.60 -0.70 0.80 -0.35 0.40 0.70 -2.05 2.60 -3.40 2.60 -0.85 -0.05 -0.75 -0.20 0.50 -0.70z"/>
  <path d="M30.60 22 c0 -0.70 0.10 -0.95 0.25 -0.60 0.10 0.30 0.10 0.90 0 1.25 -0.15 0.30 -0.25 0.05 -0.25 -0.65z"/>
  <path d="M30.50 16.75 c0 -0.15 0.10 -0.25 0.25 -0.25 0.15 0 0.25 0.10 0.25 0.25 0 0.15 -0.10 0.25 -0.25 0.25 -0.15 0 -0.25 -0.10 -0.25 -0.25z"/>
  <path d="M20.65 15.15 c0.20 -0.15 0.50 -0.15 0.70 0 0.15 0.20 0 0.35 -0.35 0.35 -0.35 0 -0.50 -0.15 -0.35 -0.35z"/>
  <path d="M18 14.75 c0 -0.15 0.10 -0.25 0.25 -0.25 0.15 0 0.25 0.10 0.25 0.25 0 0.15 -0.10 0.25 -0.25 0.25 -0.15 0 -0.25 -0.10 -0.25 -0.25z"/>
  <path d="M20.25 13.50 c-0.95 -0.40 -0.95 -0.45 0.10 -0.45 0.60 -0.05 1.25 0.20 1.40 0.45 0.35 0.60 -0.10 0.60 -1.50 0z"/>
  <path d="M33.05 5.20 c0 -0.55 0.15 -0.70 0.30 -0.30 0.15 0.35 0.10 0.80 -0.05 0.95 -0.15 0.20 -0.30 -0.10 -0.25 -0.65z"/>
  <path d="M32.50 2.75 c0 -0.15 0.10 -0.25 0.25 -0.25 0.15 0 0.25 0.10 0.25 0.25 0 0.15 -0.10 0.25 -0.25 0.25 -0.15 0 -0.25 -0.10 -0.25 -0.25z"/>
 </g>
 <g fill="#7f25a8">
  <path d="M9.50 39.15 c0 -1.30 1.15 -4.10 1.75 -4.35 0.40 -0.15 0.45 0.55 0.05 2.50 -0.30 1.65 -0.70 2.70 -1.15 2.70 -0.35 0 -0.65 -0.40 -0.65 -0.85z"/>
  <path d="M14.80 37.40 c0.15 -1.45 0.40 -3.20 0.60 -3.90 0.25 -1.10 0.30 -1 0.60 0.75 l0.35 2 0.15 -2.25 c0.10 -2.10 0.15 -2.15 0.50 -0.75 0.20 0.85 0.40 2.70 0.45 4.15 0.05 2.55 0.05 2.60 -1.45 2.60 l-1.45 0 0.25 -2.60z"/>
  <path d="M19.50 38.85 c0 -0.75 0.20 -1.35 0.45 -1.35 0.25 0 0.55 -0.45 0.70 -1 0.15 -0.55 0.60 -1 1.05 -1 0.45 0 0.80 -0.40 0.80 -0.95 0 -0.60 0.45 -1.05 1.25 -1.25 0.70 -0.20 1.25 -0.55 1.25 -0.80 0 -0.30 0.25 -0.50 0.55 -0.50 0.30 0 -0.45 1.15 -1.65 2.55 -1.15 1.40 -2.65 3.25 -3.25 4.10 l-1.15 1.55 0 -1.35z"/>
  <path d="M21 39.65 c0.05 -0.70 6.05 -8.15 6.60 -8.15 0.65 0 0.60 0.10 -2.35 4.60 -1.50 2.35 -2.85 3.85 -3.35 3.90 -0.50 0 -0.90 -0.15 -0.90 -0.35z"/>
  <path d="M30.40 38.65 c1.35 -1.90 4.05 -4.40 4.35 -4.05 0.15 0.10 -0.40 1.10 -1.25 2.20 -0.80 1.05 -1.50 2.25 -1.50 2.60 0 0.30 -0.60 0.60 -1.30 0.60 l-1.25 0 0.95 -1.35z"/>
  <path d="M32.50 39.75 c0 -0.15 0.10 -0.25 0.25 -0.25 0.15 0 0.25 0.10 0.25 0.25 0 0.15 -0.10 0.25 -0.25 0.25 -0.15 0 -0.25 -0.10 -0.25 -0.25z"/>
  <path d="M34.80 36.55 c1.05 -1.05 1.80 -0.90 1.35 0.20 -0.15 0.40 -0.70 0.75 -1.30 0.75 -1 0 -1 0 -0.05 -0.95z"/>
  <path d="M26.05 30.70 c0 -0.55 0.15 -0.70 0.30 -0.30 0.15 0.35 0.10 0.80 -0.05 0.95 -0.15 0.20 -0.30 -0.10 -0.25 -0.65z"/>
 </g>
 <g fill="#9235cb">
  <path d="M8 38.65 c0.05 -1.25 1 -3.15 1.60 -3.15 0.10 0 0 1 -0.30 2.25 -0.60 2.50 -1.30 3 -1.30 0.90z"/>
  <path d="M9.50 39.65 c0 -1.10 1.10 -4.10 1.65 -4.55 0.50 -0.45 0.55 0 0.15 2.20 -0.30 1.60 -0.75 2.70 -1.15 2.70 -0.35 0 -0.65 -0.15 -0.65 -0.35z"/>
  <path d="M14.75 38.65 c0.10 -0.80 0.35 -2.50 0.50 -3.80 0.20 -1.35 0.45 -2.35 0.55 -2.20 0.45 0.40 -0.40 7.35 -0.85 7.35 -0.25 0 -0.35 -0.60 -0.20 -1.35z"/>
  <path d="M16.25 36.15 c0.40 -4.50 1.25 -6.10 1.25 -2.35 0 3.35 -0.55 6.20 -1.10 6.20 -0.35 0 -0.40 -1.40 -0.15 -3.85z"/>
  <path d="M21.50 39.40 c0.05 -0.85 1.75 -2.90 2.45 -2.90 0.75 0 0.70 0.35 -0.30 2.05 -0.90 1.45 -2.15 1.95 -2.15 0.85z"/>
  <path d="M30 39.50 c0 -0.25 1 -1.55 2.25 -2.85 2.65 -2.75 2.85 -2.45 0.70 0.95 -1.40 2.15 -2.95 3.20 -2.95 1.90z"/>
  <path d="M33.20 38.65 c0.95 -1.80 2.80 -3.45 2.80 -2.45 0 0.40 -0.30 0.80 -0.70 0.95 -0.40 0.15 -0.80 0.80 -0.90 1.45 -0.10 0.60 -0.55 1.20 -1.05 1.30 -0.85 0.15 -0.85 0.10 -0.15 -1.25z"/>
  <path d="M20 38 c0 -0.55 0.35 -1 0.75 -1 0.65 0 0.70 0.20 0.25 1 -0.30 0.55 -0.65 1 -0.75 1 -0.15 0 -0.25 -0.45 -0.25 -1z"/>
  <path d="M25.05 34.30 c1.15 -2 2.45 -3.25 2.45 -2.35 0 0.90 -2.20 4.05 -2.85 4.05 -0.40 0 -0.25 -0.60 0.40 -1.70z"/>
  <path d="M23.50 34.40 c0.05 -0.85 1.95 -3.15 2.30 -2.75 0.20 0.15 -0.25 1 -1 1.85 -0.70 0.85 -1.30 1.30 -1.30 0.90z"/>
 </g>
 <g fill="#887a90">
  <path d="M6 39.75 c0 -0.15 0.45 -0.75 1 -1.35 l1 -1.10 0 1.35 c0 1 -0.25 1.35 -1 1.35 -0.55 0 -1 -0.10 -1 -0.25z"/>
  <path d="M34.20 38.70 c-0.25 -0.90 -0.05 -1.50 0.70 -2.20 1.05 -1 1.05 -0.95 2 0.40 1.40 2 1.70 3.10 0.85 3.10 -0.35 0 -0.80 -0.40 -0.90 -0.85 -0.20 -0.85 -0.25 -0.85 -0.30 0 -0.10 1.40 -2 1.05 -2.35 -0.45z m2.30 -0.95 c0 -0.15 -0.10 -0.25 -0.25 -0.25 -0.15 0 -0.25 0.10 -0.25 0.25 0 0.15 0.10 0.25 0.25 0.25 0.15 0 0.25 -0.10 0.25 -0.25z"/>
  <path d="M15.05 37.70 c0 -0.55 0.15 -0.70 0.30 -0.30 0.15 0.35 0.10 0.80 -0.05 0.95 -0.15 0.20 -0.30 -0.10 -0.25 -0.65z"/>
  <path d="M16.30 35.40 c0.35 -3.40 0.90 -4.60 1.40 -3 0.40 1.20 2.65 1.85 4.80 1.35 1.35 -0.30 2.95 -1.95 3.65 -3.75 0.20 -0.55 0.30 -0.45 0.30 0.30 0.05 1.30 -2.90 5.20 -3.95 5.20 -0.40 0 -1.25 0.15 -1.85 0.30 -0.85 0.25 -1.15 0.10 -1.15 -0.50 0 -1.10 -0.85 -1 -1.50 0.15 -0.60 1.20 -0.65 2.05 -0.05 1.10 0.40 -0.60 0.60 -0.60 1.25 -0.10 1.10 0.95 1 1.70 -0.20 1.30 -0.55 -0.20 -1 -0.10 -1 0.20 0 0.30 -0.45 0.55 -1 0.55 -1 0 -1.05 -0.20 -0.70 -3.10z"/>
  <path d="M26 33.10 c0 -0.25 0.35 -0.80 0.80 -1.15 0.70 -0.60 0.80 -0.55 0.65 0.25 -0.20 1 -1.45 1.75 -1.45 0.90z"/>
  <path d="M27.05 26.35 c1.40 -1.05 2.95 -1.80 2.95 -1.45 0 0.25 -0.55 0.70 -1.25 1 -1.20 0.55 -2.20 0.80 -1.70 0.45z"/>
 </g>
 <g fill="#9c8973">
  <path d="M16 38.55 c0 -1.65 0.80 -2.45 1.60 -1.65 0.70 0.70 0.05 3.10 -0.85 3.10 -0.50 0 -0.75 -0.50 -0.75 -1.45z"/>
  <path d="M32.80 39.25 c0.20 -0.40 0.50 -0.75 0.75 -0.75 0.25 0 0.45 0.35 0.45 0.75 0 0.40 -0.35 0.75 -0.75 0.75 -0.45 0 -0.60 -0.30 -0.45 -0.75z"/>
  <path d="M31.50 38.75 c0 -0.15 0.10 -0.25 0.25 -0.25 0.15 0 0.25 0.10 0.25 0.25 0 0.15 -0.10 0.25 -0.25 0.25 -0.15 0 -0.25 -0.10 -0.25 -0.25z"/>
  <path d="M17.50 34.40 c0 -1.25 0.05 -1.30 1.75 -0.75 1.75 0.50 2.45 1.85 1 1.85 -0.40 0 -0.75 -0.35 -0.75 -0.75 0 -1 -0.50 -0.95 -1.30 0.15 -0.60 0.75 -0.65 0.75 -0.70 -0.50z"/>
  <path d="M13 23.50 c0 -0.25 0.65 -0.50 1.45 -0.50 0.85 0 1.65 0.25 1.80 0.50 0.20 0.30 -0.40 0.50 -1.45 0.50 -1 0 -1.80 -0.20 -1.80 -0.50z"/>
  <path d="M17.15 23.15 c0.20 -0.15 0.50 -0.15 0.70 0 0.15 0.20 0 0.35 -0.35 0.35 -0.35 0 -0.50 -0.15 -0.35 -0.35z"/>
  <path d="M10 15.65 c0 -0.20 0.25 -0.75 0.50 -1.15 0.40 -0.65 0.50 -0.65 0.50 0.10 0 0.45 -0.20 1 -0.50 1.15 -0.25 0.15 -0.50 0.15 -0.50 -0.10z"/>
  <path d="M12.50 15.50 c0 -0.25 0.25 -0.50 0.55 -0.50 0.25 0 0.35 0.25 0.20 0.50 -0.15 0.30 -0.40 0.50 -0.55 0.50 -0.10 0 -0.20 -0.20 -0.20 -0.50z"/>
  <path d="M17.50 15.55 c0 -0.30 0.25 -0.65 0.50 -0.80 0.30 -0.15 0.50 0.05 0.50 0.45 0 0.45 -0.20 0.80 -0.50 0.80 -0.25 0 -0.50 -0.20 -0.50 -0.45z"/>
  <path d="M20.50 15.50 c0 -0.25 0.25 -0.50 0.50 -0.50 0.30 0 0.50 0.25 0.50 0.50 0 0.30 -0.20 0.50 -0.50 0.50 -0.25 0 -0.50 -0.20 -0.50 -0.50z"/>
 </g>
 <g fill="#a842f2">
  <path d="M8.55 38.50 c0 -0.95 0.15 -2.10 0.45 -2.50 0.75 -1.20 0.85 -0.40 0.20 2 -0.60 2.25 -0.60 2.25 -0.65 0.50z"/>
  <path d="M10.05 38.65 c-0.05 -0.85 0.20 -1.75 0.45 -1.90 0.30 -0.20 0.40 -0.50 0.25 -0.75 -0.15 -0.25 0 -0.60 0.30 -0.80 0.60 -0.35 0.25 2 -0.60 4.05 -0.30 0.80 -0.40 0.70 -0.40 -0.60z"/>
  <path d="M16.20 37.95 c0.35 -2.90 0.80 -3.05 0.80 -0.30 0 1.30 -0.25 2.35 -0.50 2.35 -0.35 0 -0.45 -0.80 -0.30 -2.05z"/>
  <path d="M21.50 39.55 c0 -0.20 0.65 -1.30 1.50 -2.35 0.80 -1.05 2.05 -2.80 2.75 -3.85 0.70 -1.05 1.50 -1.75 1.75 -1.60 0.25 0.15 -0.40 1.45 -1.40 2.90 -3.45 4.90 -4.60 6.15 -4.60 4.90z"/>
  <path d="M33 39.35 c0 -0.45 0.70 -1.60 1.55 -2.50 1.50 -1.50 1.55 -1.55 1.20 -0.35 -0.20 0.70 -0.90 1.80 -1.55 2.50 -1 1 -1.20 1.10 -1.20 0.35z"/>
  <path d="M31 39.10 c0 -0.90 1.45 -2.95 2.30 -3.30 1.05 -0.40 0.80 0.25 -0.80 2.20 -0.85 0.95 -1.50 1.45 -1.50 1.10z"/>
  <path d="M15.10 38 c0 -0.70 0.10 -0.95 0.25 -0.60 0.10 0.30 0.10 0.90 0 1.25 -0.15 0.30 -0.25 0.05 -0.25 -0.65z"/>
  <path d="M20 38.50 c0 -0.40 0.40 -1.35 0.90 -2.10 1 -1.55 5.60 -5.90 5.60 -5.30 0 0.20 -1.25 1.90 -2.85 3.75 -3.80 4.60 -3.65 4.45 -3.65 3.65z"/>
  <path d="M34 34.75 c0 -0.15 0.10 -0.25 0.25 -0.25 0.15 0 0.25 0.10 0.25 0.25 0 0.15 -0.10 0.25 -0.25 0.25 -0.15 0 -0.25 -0.10 -0.25 -0.25z"/>
 </g>
 <g fill="#a6a6ad">
  <path d="M6.95 38.65 c2.90 -3.90 3.05 -3.95 2.35 -0.90 -0.45 2 -0.65 2.25 -1.95 2.25 l-1.40 0 1 -1.35z"/>
  <path d="M16.35 36.15 c0.15 -2.15 0.45 -4.10 0.70 -4.35 0.30 -0.30 0.45 -0.15 0.45 0.35 0 0.50 0.35 1 0.75 1.15 0.65 0.25 0.65 0.45 0 1.70 -0.95 1.80 -0.95 2.30 -0.10 1.55 0.50 -0.40 0.85 -0.35 1.25 0.05 0.50 0.50 0.55 0.25 0.30 -1 -0.30 -1.55 -0.30 -1.60 1.55 -1.60 1.45 0 2.25 -0.40 3.55 -1.70 2.75 -2.75 1.95 -1.15 -1.55 3.05 -1.80 2.15 -3.25 4.05 -3.25 4.25 0 0.25 -0.45 0.40 -1 0.40 -0.55 0 -1 -0.20 -1 -0.50 0 -0.25 0.25 -0.50 0.50 -0.50 0.30 0 0.50 -0.35 0.50 -0.75 0 -1.20 -0.85 -0.85 -1.20 0.50 -0.20 0.70 -0.65 1.25 -1.05 1.25 -0.55 0 -0.65 -0.70 -0.40 -3.85z"/>
  <path d="M33.90 39.65 c-1.25 -0.30 -1.10 -0.95 0.60 -2.70 l1.45 -1.55 1.05 1.65 c0.55 0.95 1 2.05 1 2.45 -0.05 0.40 -0.50 -0.10 -1.05 -1.15 -0.55 -1.10 -1.15 -1.85 -1.30 -1.70 -0.10 0.15 0 0.70 0.30 1.25 1.05 1.95 0.50 2.45 -2.05 1.75z"/>
  <path d="M13.25 23.50 c-0.15 -0.25 0.05 -0.50 0.45 -0.50 0.40 0 0.90 0.25 1.05 0.50 0.15 0.30 -0.05 0.50 -0.45 0.50 -0.40 0 -0.90 -0.20 -1.05 -0.50z"/>
  <path d="M12.65 15.15 c0.20 -0.15 0.50 -0.15 0.70 0 0.15 0.20 0 0.35 -0.35 0.35 -0.35 0 -0.50 -0.15 -0.35 -0.35z"/>
 </g>
 <g fill="#b680c9">
  <path d="M29.25 24.95 c0.55 -0.65 1.05 -1.30 1.10 -1.40 0.10 -0.10 0.15 0.15 0.15 0.60 0 0.45 -0.50 1.10 -1.10 1.40 l-1.15 0.60 1 -1.20z"/>
 </g>
 <g fill="#bec8ce">
  <path d="M7.50 38 c0.90 -1.15 1.70 -1.95 1.80 -1.85 0.10 0.05 -0.10 1 -0.40 2 -0.45 1.45 -0.80 1.85 -1.80 1.85 l-1.20 0 1.60 -2z"/>
  <path d="M16.70 36 c0.10 -2.20 0.25 -4.15 0.45 -4.35 0.20 -0.15 0.35 0.05 0.35 0.55 0 0.45 0.35 0.95 0.75 1.10 0.60 0.25 0.65 0.45 0.20 1.05 -0.35 0.40 -0.65 1.55 -0.75 2.55 -0.05 1 -0.10 2.15 -0.15 2.50 -0.05 0.30 -0.25 0.60 -0.50 0.60 -0.25 0 -0.40 -1.80 -0.35 -4z"/>
  <path d="M18.60 38.95 c0.50 -0.85 0.50 -1.15 0.05 -1.30 -1.25 -0.45 -0.60 -1.15 0.75 -0.85 1.10 0.25 1.25 0.20 0.75 -0.35 -1.10 -1.15 -0.80 -2.55 0.50 -2.35 1.60 0.20 1.65 2.05 0.05 4.15 -1.50 2 -3.15 2.55 -2.10 0.70z m2.90 -3.20 c0 -0.15 -0.10 -0.25 -0.25 -0.25 -0.15 0 -0.25 0.10 -0.25 0.25 0 0.15 0.10 0.25 0.25 0.25 0.15 0 0.25 -0.10 0.25 -0.25z"/>
  <path d="M33 39.40 c0 -0.35 0.45 -1.20 0.95 -1.85 l0.95 -1.20 0.80 1.55 c1.05 2.10 1.05 2.10 -0.95 2.10 -1.05 0 -1.75 -0.25 -1.75 -0.60z"/>
  <path d="M36 36.75 c-0.35 -0.45 -0.40 -0.75 -0.10 -0.75 0.25 0 0.60 0.35 0.80 0.75 0.15 0.40 0.20 0.75 0.10 0.75 -0.10 0 -0.45 -0.35 -0.80 -0.75z"/>
  <path d="M23.50 34.30 c0 -0.20 0.70 -1.20 1.50 -2.15 0.85 -0.90 1.50 -1.50 1.50 -1.25 0 0.55 -2.95 3.95 -3 3.40z"/>
  <path d="M13.25 23.50 c-0.40 -0.65 0.25 -0.65 1.25 0 0.65 0.40 0.65 0.50 -0.10 0.50 -0.45 0 -1 -0.20 -1.15 -0.50z"/>
  <path d="M17.50 15.50 c0 -0.25 0.25 -0.50 0.55 -0.50 0.25 0 0.35 0.25 0.20 0.50 -0.15 0.30 -0.40 0.50 -0.55 0.50 -0.10 0 -0.20 -0.20 -0.20 -0.50z"/>
  <path d="M20.75 15.50 c0.15 -0.25 0.40 -0.50 0.55 -0.50 0.10 0 0.20 0.25 0.20 0.50 0 0.30 -0.25 0.50 -0.55 0.50 -0.25 0 -0.35 -0.20 -0.20 -0.50z"/>
 </g>
 <g fill="#cfe0e8">
  <path d="M16.50 37 c0 -1.80 0.15 -3.75 0.30 -4.40 l0.35 -1.15 0.65 1.30 c0.50 0.95 0.50 1.65 0.15 2.60 -0.25 0.75 -0.35 1.65 -0.20 2.05 0.15 0.35 -0.10 1.15 -0.50 1.75 -0.70 1 -0.75 0.85 -0.75 -2.15z"/>
  <path d="M18.75 39.15 c0.55 -1.50 0.55 -1.90 -0.10 -1.75 -0.35 0.05 -0.65 -0.15 -0.65 -0.40 0 -0.30 0.55 -0.40 1.25 -0.20 1.25 0.30 1.75 -0.40 0.75 -1.05 -1.20 -0.75 -0.45 -1.75 1.20 -1.75 1.15 0 2.30 -0.45 3.40 -1.35 1.90 -1.60 1.70 -1.30 -2.35 3.75 -2.85 3.45 -4.25 4.55 -3.50 2.75z m2.75 -3.40 c0 -0.15 -0.10 -0.25 -0.25 -0.25 -0.15 0 -0.25 0.10 -0.25 0.25 0 0.15 0.10 0.25 0.25 0.25 0.15 0 0.25 -0.10 0.25 -0.25z"/>
  <path d="M33 39.50 c0 -0.85 1.60 -3 2 -2.75 0.60 0.35 -0.60 3.25 -1.35 3.25 -0.35 0 -0.65 -0.25 -0.65 -0.50z"/>
  <path d="M7.95 37.55 c1.55 -2.15 2.15 -2.35 1.35 -0.45 -0.40 0.90 -1.10 1.75 -1.60 1.85 -0.70 0.15 -0.70 -0.05 0.25 -1.40z"/>
 </g>
 <g fill="#dde4ee">
  <path d="M6 39.75 c0 -0.15 0.10 -0.25 0.25 -0.25 0.15 0 0.25 0.10 0.25 0.25 0 0.15 -0.10 0.25 -0.25 0.25 -0.15 0 -0.25 -0.10 -0.25 -0.25z"/>
  <path d="M18.50 39.50 c0 -0.35 0.15 -0.50 0.35 -0.35 0.15 0.20 0.15 0.50 0 0.70 -0.20 0.15 -0.35 0 -0.35 -0.35z"/>
  <path d="M19.50 39.25 c0 -0.15 0.10 -0.25 0.25 -0.25 0.15 0 0.25 0.10 0.25 0.25 0 0.15 -0.10 0.25 -0.25 0.25 -0.15 0 -0.25 -0.10 -0.25 -0.25z"/>
  <path d="M17.50 38.25 c0 -0.25 0.20 -0.80 0.45 -1.20 0.35 -0.50 0.60 -0.55 1.35 -0.05 0.80 0.45 0.80 0.55 0.10 0.30 -0.50 -0.15 -1.10 0.10 -1.35 0.60 -0.30 0.45 -0.50 0.65 -0.55 0.35z"/>
  <path d="M36 36.75 c0 -0.15 0.10 -0.25 0.25 -0.25 0.15 0 0.25 0.10 0.25 0.25 0 0.15 -0.10 0.25 -0.25 0.25 -0.15 0 -0.25 -0.10 -0.25 -0.25z"/>
  <path d="M21.15 35.80 c0.05 -0.30 0.50 -0.95 1.05 -1.40 1.05 -1 2.15 -0.65 1.25 0.40 -0.30 0.35 -0.80 0.55 -1.10 0.35 -0.30 -0.20 -0.40 0 -0.25 0.45 0.20 0.40 0 0.75 -0.35 0.75 -0.40 0 -0.65 -0.25 -0.60 -0.55z m2.35 -1.55 c0 -0.15 -0.10 -0.25 -0.25 -0.25 -0.15 0 -0.25 0.10 -0.25 0.25 0 0.15 0.10 0.25 0.25 0.25 0.15 0 0.25 -0.10 0.25 -0.25z"/>
  <path d="M9.50 35.75 c0 -0.15 0.10 -0.25 0.25 -0.25 0.15 0 0.25 0.10 0.25 0.25 0 0.15 -0.10 0.25 -0.25 0.25 -0.15 0 -0.25 -0.10 -0.25 -0.25z"/>
  <path d="M20 35.75 c0 -0.15 0.10 -0.25 0.25 -0.25 0.15 0 0.25 0.10 0.25 0.25 0 0.15 -0.10 0.25 -0.25 0.25 -0.15 0 -0.25 -0.10 -0.25 -0.25z"/>
  <path d="M19.50 34.25 c0 -0.15 0.10 -0.25 0.25 -0.25 0.15 0 0.25 0.10 0.25 0.25 0 0.15 -0.10 0.25 -0.25 0.25 -0.15 0 -0.25 -0.10 -0.25 -0.25z"/>
  <path d="M17 32 c0 -0.35 0.15 -0.50 0.35 -0.35 0.15 0.20 0.15 0.50 0 0.70 -0.20 0.15 -0.35 0 -0.35 -0.35z"/>
  <path d="M17.65 15.15 c0.20 -0.15 0.50 -0.15 0.70 0 0.15 0.20 0 0.35 -0.35 0.35 -0.35 0 -0.50 -0.15 -0.35 -0.35z"/>
 </g>
</svg>