<?xml version="1.0" encoding="utf-8"?>
<!DOCTYPE svg PUBLIC "-//W3C//DTD SVG 1.0//EN" "http://www.w3.org/TR/2001/REC-SVG-20010904/DTD/svg10.dtd">
<svg version="1.0" xmlns="http://www.w3.org/2000/svg" width="40px" height="40px" viewBox="0 0 40 40" preserveAspectRatio="xMidYMid meet">
 <g fill="#1a130d">
  <path d="M6.95 38.15 c1.90 -2.55 2.30 -2.95 3.20 -3.30 0.65 -0.25 0.85 -0.05 0.85 0.90 0 0.75 -0.30 1.25 -0.70 1.25 -0.40 0 -0.80 0.50 -0.90 1.15 -0.10 0.85 -0.55 1.15 -1.85 1.25 l-1.65 0.15 1.05 -1.40z"/>
  <path d="M36 36.65 l0.05 -1.90 1.20 1.40 c1.60 1.80 1.55 2.35 0 2.35 -1.10 0 -1.25 -0.20 -1.25 -1.85z"/>
  <path d="M17.50 35.25 c0 -1.65 0.10 -1.75 1.75 -1.75 1.65 0 1.75 0.10 1.75 1.75 0 1.65 -0.10 1.75 -1.75 1.75 -1.65 0 -1.75 -0.10 -1.75 -1.75z"/>
  <path d="M24 25.60 c0 -1.05 0.15 -2.10 0.35 -2.30 0.45 -0.40 1.65 -3.85 1.65 -4.65 0 -0.35 -0.50 -0.65 -1.05 -0.65 -1 0 -1.05 -0.20 -0.80 -2.60 0.15 -2 0 -3.10 -0.75 -4.60 -0.95 -1.80 -1.05 -1.90 -2.80 -1.55 -1 0.20 -3.80 0.40 -6.25 0.45 l-4.35 0.10 -1 -1.65 c-1.20 -2.05 -1.70 -4.60 -1.25 -6.60 0.25 -1.30 0.55 -1.55 1.80 -1.55 1.05 0 1.45 0.25 1.45 0.90 0.05 1.85 1.25 2.60 4.15 2.60 1.55 0 2.95 -0.20 3.10 -0.50 0.15 -0.25 1.85 -0.50 3.75 -0.50 3.30 0 5 -0.70 5 -2.05 0 -0.25 1.30 -0.45 2.95 -0.45 l2.95 0 0.55 2.20 c0.30 1.25 0.55 3.40 0.55 4.85 0 3.25 -1.85 8.50 -3.10 8.85 -1 0.25 -1.25 1.60 -0.25 1.60 0.40 0 0.65 1.05 0.75 3.05 0.20 3.75 -0.65 5.25 -3.15 5.75 -0.95 0.15 -1.75 0.50 -1.75 0.75 0 0.25 -0.55 0.45 -1.25 0.45 -1.10 0 -1.25 -0.20 -1.25 -1.90z"/>
  <path d="M17.60 14.90 c0.15 -2.10 0.20 -2.15 2.05 -2.30 l1.85 -0.15 0 2.25 0 2.30 -2.05 0 -2 0 0.15 -2.10z"/>
 </g>
 <g fill="#2d2113">
  <path d="M13 36.30 c0 -0.40 -0.15 -1.05 -0.30 -1.50 -0.20 -0.55 0.15 -1 1.10 -1.40 2 -0.90 4.40 -3.20 4 -3.85 -0.20 -0.35 0.05 -0.55 0.65 -0.55 0.85 0 1.05 0.30 1.05 1.75 0 1.60 -0.10 1.75 -1.50 1.75 -1.45 0 -1.50 0.10 -1.50 2.25 0 2.25 0 2.25 -1.75 2.25 -1.20 0 -1.75 -0.25 -1.75 -0.70z"/>
  <path d="M25.50 34.25 c0 -1.65 0.10 -1.75 1.75 -1.75 1.65 0 1.75 0.10 1.75 1.75 0 1.65 -0.10 1.75 -1.75 1.75 -1.65 0 -1.75 -0.10 -1.75 -1.75z"/>
  <path d="M13.30 25.95 c-0.70 -1.65 -0.70 -1.70 0.60 -1.95 0.75 -0.15 1.40 -0.65 1.50 -1.15 0.15 -0.70 -0.20 -0.85 -1.60 -0.85 -1.70 0 -1.80 -0.10 -1.80 -1.70 0 -1.90 0.60 -2.30 3.30 -2.30 1.50 0 1.70 0.15 1.70 1.25 0 1 0.25 1.25 1.20 1.25 0.95 0 1.20 0.30 1.50 1.90 0.65 4.15 0.60 4.25 -3.40 4.85 -2.25 0.35 -2.30 0.35 -3 -1.30z"/>
  <path d="M27.50 19.55 c0 -0.95 0.20 -1.50 0.50 -1.30 0.30 0.15 0.50 0.05 0.50 -0.20 0 -0.30 0.55 -0.55 1.25 -0.55 1.10 0 1.25 0.20 1.25 1.75 0 0.95 -0.20 1.75 -0.50 1.75 -0.25 0 -0.50 -0.50 -0.50 -1.10 l0 -1.05 -1.25 1.15 -1.25 1.15 0 -1.60z"/>
  <path d="M17.50 16 c0 -1 -0.25 -1.50 -0.75 -1.50 -0.50 0 -0.75 -0.55 -0.75 -1.75 0 -1.65 0.10 -1.75 1.75 -1.75 1.40 0 1.75 0.20 1.75 1 0 0.55 0.25 1 0.50 1 0.30 0 0.50 -0.45 0.50 -1 0 -0.80 0.35 -1 1.75 -1 1.65 0 1.75 0.10 1.75 1.75 0 1.40 -0.20 1.75 -1 1.75 -0.80 0 -1 0.35 -1 1.50 0 1.45 -0.10 1.50 -2.25 1.50 -2.15 0 -2.25 -0.05 -2.25 -1.50z m2.50 -1.30 c0 -0.40 -0.20 -0.60 -0.50 -0.45 -0.25 0.15 -0.50 0.50 -0.50 0.80 0 0.25 0.25 0.45 0.50 0.45 0.30 0 0.50 -0.35 0.50 -0.80z"/>
  <path d="M10 15.75 c0 -0.70 0.30 -2.15 0.60 -3.25 0.60 -1.80 0.80 -2 2.30 -2 l1.65 0 -0.15 3.15 -0.15 3.10 -2.10 0.15 c-2 0.15 -2.15 0.10 -2.15 -1.15z"/>
  <path d="M27.10 15.30 c1.95 -2.25 2.50 -2.25 2.30 -0.15 -0.15 1.45 -0.30 1.60 -2 1.75 l-1.85 0.15 1.55 -1.75z"/>
  <path d="M25.60 14.50 c0 -0.70 0.10 -0.95 0.25 -0.60 0.10 0.30 0.10 0.90 0 1.25 -0.15 0.30 -0.25 0.05 -0.25 -0.65z"/>
  <path d="M12.50 9 c0 -1.05 0.50 -1.20 2.40 -0.70 1.80 0.50 1.35 1.70 -0.65 1.70 -1.40 0 -1.75 -0.20 -1.75 -1z"/>
  <path d="M9.50 8.80 c0 -0.35 -0.35 -0.95 -0.75 -1.30 -1 -0.80 -1.50 -4.65 -0.80 -6.35 0.55 -1.35 0.55 -1.35 0.35 0.45 -0.30 2.35 0.80 6.10 1.90 6.30 1 0.20 1.05 1.60 0.05 1.60 -0.40 0 -0.75 -0.30 -0.75 -0.70z"/>
  <path d="M11.50 5.15 c-1.35 -0.55 -2.30 -2.25 -2.10 -3.70 l0.20 -1.45 9.40 0 c7.55 0 9.50 0.15 9.95 0.70 0.50 0.60 0.40 0.95 -0.40 1.75 -1.60 1.60 -2.65 1.95 -5.55 1.80 -1.50 -0.10 -3 0.05 -3.30 0.30 -0.70 0.55 -7.10 1 -8.20 0.60z"/>
 </g>
 <g fill="#392418">
  <path d="M13 38.50 c0 -1.25 -0.20 -1.50 -1.25 -1.50 -1 0 -1.25 -0.25 -1.25 -1.20 0 -0.90 0.40 -1.35 1.55 -1.75 2.35 -0.80 2.60 -0.70 2.30 0.95 -0.30 1.35 -0.20 1.50 0.90 1.50 1.10 0 1.25 0.20 1.25 1.75 0 1.65 -0.10 1.75 -1.75 1.75 -1.60 0 -1.75 -0.10 -1.75 -1.50z"/>
  <path d="M29 37.10 c0 -1.05 -0.25 -2.15 -0.55 -2.45 -0.30 -0.30 -0.45 -1.20 -0.35 -2.05 l0.15 -1.50 2.95 1.45 c1.65 0.80 3.25 1.45 3.55 1.45 0.85 0 2.25 1.70 2.25 2.65 0 0.65 -0.50 0.85 -2.25 0.85 -1.65 0 -2.25 0.20 -2.25 0.75 0 0.50 -0.55 0.75 -1.75 0.75 -1.70 0 -1.75 -0.05 -1.75 -1.90z"/>
  <path d="M16.50 32.50 c0 -0.50 0.35 -1.15 0.80 -1.40 0.95 -0.55 0.45 -3.10 -0.60 -3.10 -0.40 0 -0.70 -0.30 -0.70 -0.60 0 -0.45 -0.15 -0.40 -0.50 0.10 -0.70 1.15 -1.65 -0.15 -3 -4 -0.65 -1.80 -1.45 -3.85 -1.80 -4.60 -0.90 -1.75 -0.95 -8.70 -0.05 -9.05 0.35 -0.15 0.25 -0.30 -0.25 -0.30 -1.20 -0.05 -1.15 -1.35 0.10 -1.70 0.55 -0.15 1.90 0 3 0.25 1.60 0.45 2.60 0.35 4.60 -0.30 4.30 -1.35 5.50 -1.05 7 1.85 0.75 1.50 0.95 2.65 0.80 4.45 -0.15 1.30 -0.10 2.40 0.10 2.40 0.15 0 1.05 -0.80 1.95 -1.80 1.50 -1.75 1.60 -1.80 2.30 -0.90 0.65 0.95 0.70 0.95 1.50 -0.05 0.90 -1.10 0.95 -1.50 -0.25 3.25 -0.25 0.95 -0.35 2.15 -0.20 2.65 0.20 0.55 0 0.85 -0.50 0.85 -0.45 0 -0.80 -0.35 -0.80 -0.75 0 -0.40 -0.15 -0.75 -0.35 -0.75 -0.70 0.05 -3.15 3.65 -3.15 4.55 0 0.50 -0.20 1.05 -0.50 1.20 -0.25 0.15 -0.50 0.60 -0.50 0.90 0 0.40 0.15 0.40 0.40 0.10 0.55 -0.80 1.60 -0.80 1.60 -0.05 0 0.40 -0.20 0.80 -0.45 0.90 -0.30 0.10 -0.25 1.20 0.05 2.75 0.65 3.30 0.10 4.15 -2.65 4.15 -1.85 0 -1.95 -0.10 -1.95 -1.50 0 -1.25 -0.20 -1.50 -1.25 -1.50 -1.05 0 -1.25 0.25 -1.25 1.50 0 1.40 -0.15 1.50 -1.75 1.50 -1.40 0 -1.75 -0.20 -1.75 -1z m-1.65 -6.85 c-0.20 -0.15 -0.50 -0.15 -0.70 0 -0.15 0.20 0 0.35 0.35 0.35 0.35 0 0.50 -0.15 0.35 -0.35z m3.15 -0.65 c0.65 -0.40 0.65 -0.50 -0.10 -0.50 -0.45 0 -1 0.25 -1.15 0.50 -0.40 0.65 0.25 0.65 1.25 0z m-0.15 -2.85 c-0.20 -0.15 -0.50 -0.15 -0.70 0 -0.15 0.20 0 0.35 0.35 0.35 0.35 0 0.50 -0.15 0.35 -0.35z m-2.60 -2.15 c0.40 -0.65 -0.25 -0.65 -1.25 0 -0.65 0.40 -0.65 0.50 0.10 0.50 0.45 0 1 -0.20 1.15 -0.50z m5.65 -1.95 l0.15 -1.60 -3 0.35 c-2.65 0.30 -3.05 0.20 -3.05 -0.50 0 -0.50 -0.45 -0.80 -1.25 -0.80 -0.90 0 -1.15 -0.20 -0.95 -0.75 0.20 -0.40 0.15 -0.75 -0.05 -0.75 -0.15 0 -0.65 0.35 -1.05 0.75 -0.45 0.40 -0.60 0.75 -0.35 0.75 0.25 0 0.75 0.85 1.15 1.90 0.45 1.25 0.75 1.55 0.90 1 0.15 -0.75 0.70 -0.90 3.15 -0.90 2.85 0 2.95 0.05 2.95 1.30 0 1.85 1.20 1.25 1.40 -0.75z m7.60 -0.05 c0 -0.25 -0.25 -0.50 -0.55 -0.50 -0.25 0 -0.35 0.25 -0.20 0.50 0.15 0.30 0.40 0.50 0.55 0.50 0.10 0 0.20 -0.20 0.20 -0.50z m-8.10 -2.85 c-0.20 -1.10 -1.10 -1 -1.30 0.05 -0.10 0.50 0.15 0.80 0.65 0.80 0.50 0 0.75 -0.35 0.65 -0.85z m-2.40 -2.40 c0 -0.15 -0.10 -0.25 -0.25 -0.25 -0.15 0 -0.25 0.10 -0.25 0.25 0 0.15 0.10 0.25 0.25 0.25 0.15 0 0.25 -0.10 0.25 -0.25z m4.50 0 c0 -0.15 -0.10 -0.25 -0.25 -0.25 -0.15 0 -0.25 0.10 -0.25 0.25 0 0.15 0.10 0.25 0.25 0.25 0.15 0 0.25 -0.10 0.25 -0.25z m-9.50 -0.50 c0 -0.15 -0.10 -0.25 -0.25 -0.25 -0.15 0 -0.25 0.10 -0.25 0.25 0 0.15 0.10 0.25 0.25 0.25 0.15 0 0.25 -0.10 0.25 -0.25z m3.25 -1.35 c0.30 -0.20 -0.15 -0.40 -0.90 -0.40 -1.15 0 -1.30 0.10 -0.75 0.70 0.35 0.40 0.75 0.55 0.90 0.40 0.15 -0.20 0.50 -0.50 0.75 -0.70z m5.55 -1.35 c-0.15 -0.25 -0.75 -0.35 -1.30 -0.20 -1.40 0.35 -1.25 0.65 0.30 0.65 0.70 0 1.15 -0.20 1 -0.45z"/>
  <path d="M7.55 2.75 c0 -0.55 0.20 -1.45 0.45 -2 l0.45 -1 0 1 c0 0.55 -0.20 1.45 -0.45 2 l-0.45 1 0 -1z"/>
  <path d="M32.55 2.10 c-0.65 -1.25 -0.70 -2.10 -0.10 -2.10 0.50 0 1.25 2.50 0.85 2.85 -0.10 0.15 -0.45 -0.20 -0.75 -0.75z"/>
 </g>
 <g fill="#2e1e2a">
  <path d="M20 38.30 c0 -1.10 -0.20 -1.30 -1.50 -1.30 -1.40 0 -1.50 -0.10 -1.50 -2 l0 -2 2 0 c1.80 0 2 0.15 2 1.25 0 0.70 0.25 1.25 0.50 1.25 0.30 0 0.50 -0.40 0.50 -0.90 0 -1.35 1 -2.10 2.90 -2.10 1.60 0 1.65 0.05 1.50 1.90 -0.10 1.35 -0.45 2 -1.25 2.35 -0.60 0.25 -1.15 0.95 -1.25 1.50 -0.10 0.75 -0.60 1.05 -2 1.15 -1.75 0.15 -1.90 0.05 -1.90 -1.10z m-0.50 -3.05 c0 -0.15 -0.10 -0.25 -0.25 -0.25 -0.15 0 -0.25 0.10 -0.25 0.25 0 0.15 0.10 0.25 0.25 0.25 0.15 0 0.25 -0.10 0.25 -0.25z"/>
  <path d="M31 35.65 c0.05 -1.30 0.10 -1.30 0.70 -0.50 0.65 0.80 0.70 0.80 1 0.05 0.20 -0.45 0.25 -0.90 0.20 -0.95 -1.05 -0.80 -2.40 -1.10 -4 -0.90 l-1.90 0.30 0 -1.85 c0 -1.60 0.10 -1.75 0.70 -1.20 0.35 0.40 2.15 1.35 4 2.15 2.95 1.35 3.30 1.65 3.20 2.75 -0.15 1.05 -0.45 1.25 -2 1.40 -1.80 0.15 -1.90 0.10 -1.90 -1.25z m-1 -2.90 c0 -0.15 -0.10 -0.25 -0.25 -0.25 -0.15 0 -0.25 0.10 -0.25 0.25 0 0.15 0.10 0.25 0.25 0.25 0.15 0 0.25 -0.10 0.25 -0.25z"/>
  <path d="M9 36 c0 -0.40 2.50 -2 3.15 -2 0.15 0 0.25 0.55 0.25 1.25 0 1.10 -0.25 1.25 -1.70 1.25 -0.95 0 -1.70 -0.20 -1.70 -0.50z"/>
  <path d="M25.05 28.90 c0 -0.50 -0.25 -0.90 -0.55 -0.90 -0.25 0 -0.50 -1.10 -0.50 -2.45 0 -1.40 0.25 -2.65 0.50 -2.80 0.30 -0.15 0.50 0.20 0.50 0.80 0 1.80 0.50 0.75 0.75 -1.55 0.10 -1.15 0.35 -2.25 0.55 -2.45 0.20 -0.15 0.20 0.15 0 0.65 -0.35 1 -0.35 1 0.75 0 0.60 -0.50 1.50 -1.60 2 -2.45 0.55 -0.80 0.95 -1.20 0.95 -0.85 0 0.90 -0.90 2.55 -2.10 3.80 -0.50 0.55 -1.05 1.60 -1.25 2.30 -0.15 0.70 -0.50 1.55 -0.80 1.90 -0.25 0.35 -0.35 0.75 -0.15 0.95 0.15 0.15 0.30 0.10 0.30 -0.15 0 -0.25 0.60 -0.55 1.40 -0.60 2.10 -0.15 3.20 -1.85 2.80 -4.35 -0.20 -1.60 0.05 -3.10 1.30 -6.70 1.40 -4.05 1.60 -5.10 1.40 -8.45 -0.15 -2.10 -0.40 -4.25 -0.60 -4.70 -0.25 -0.55 -0.20 -0.90 0.10 -0.90 0.70 0 1.60 4 1.60 7.15 0 1.70 -0.45 3.80 -1.30 5.90 -1.05 2.50 -1.30 4 -1.25 6.95 0.05 4.40 -0.65 5.80 -3.15 6.30 -1.60 0.30 -1.75 0.40 -1.45 1.75 0.15 0.90 0.05 1.45 -0.30 1.45 -0.30 0 -0.60 -0.75 -0.60 -1.60 l-0.10 -1.65 -0.35 1.75 c-0.20 0.95 -0.40 1.35 -0.45 0.90z"/>
  <path d="M17.30 15.60 c-0.35 -0.60 1.60 -3.60 2.35 -3.60 1.10 0 3.35 1.25 3.15 1.75 -0.05 0.30 -0.85 0.45 -1.75 0.35 -1.30 -0.15 -1.70 0.05 -1.90 0.85 -0.25 1.05 -1.35 1.40 -1.85 0.65z"/>
  <path d="M20.50 15.50 c0 -0.25 0.45 -0.50 1 -0.50 0.55 0 1 0.25 1 0.50 0 0.30 -0.45 0.50 -1 0.50 -0.55 0 -1 -0.20 -1 -0.50z"/>
  <path d="M10.10 13.75 c-0.05 -1.40 0.10 -1.75 0.85 -1.75 0.50 0 1.20 0.35 1.55 0.75 0.50 0.60 0.45 0.75 -0.20 0.75 -0.50 0 -0.70 0.25 -0.50 0.55 0.30 0.50 -0.55 1.40 -1.35 1.45 -0.15 0 -0.30 -0.80 -0.35 -1.75z"/>
  <path d="M12.80 14.85 c0.15 -0.50 0.45 -0.75 0.60 -0.60 0.15 0.15 0 0.55 -0.35 0.90 -0.50 0.45 -0.55 0.40 -0.25 -0.30z"/>
  <path d="M17 13.25 c0 -0.15 0.10 -0.25 0.25 -0.25 0.15 0 0.25 0.10 0.25 0.25 0 0.15 -0.10 0.25 -0.25 0.25 -0.15 0 -0.25 -0.10 -0.25 -0.25z"/>
  <path d="M12.75 12 c-0.15 -0.25 -0.05 -0.50 0.20 -0.50 0.30 0 0.55 0.25 0.55 0.50 0 0.30 -0.10 0.50 -0.20 0.50 -0.15 0 -0.40 -0.20 -0.55 -0.50z"/>
  <path d="M17.15 12.15 c0.20 -0.15 0.50 -0.15 0.70 0 0.15 0.20 0 0.35 -0.35 0.35 -0.35 0 -0.50 -0.15 -0.35 -0.35z"/>
  <path d="M22 12 c-0.65 -0.40 -0.60 -0.50 0.15 -0.50 0.45 0 0.85 0.25 0.85 0.50 0 0.60 -0.05 0.60 -1 0z"/>
  <path d="M9.80 9.90 c-0.45 -1.80 -0.40 -1.90 1.20 -1.90 1.65 0 2 1.05 0.80 2.30 -1.05 1 -1.65 0.85 -2 -0.40z"/>
  <path d="M8.35 7.15 c-0.70 -1.10 -0.90 -4.90 -0.40 -6.15 0.45 -1.10 0.50 -1 0.25 0.65 -0.20 1.05 -0.05 2.50 0.30 3.35 0.60 1.50 0.50 3.20 -0.15 2.15z"/>
 </g>
 <g fill="#412b17">
  <path d="M10.50 37.55 c0 -2.60 0.45 -3.20 2.60 -3.75 1.10 -0.25 1.35 -0.10 1.55 0.80 0.20 1.10 0.20 1.10 0.30 -0.10 0.05 -0.70 0.25 -1.55 0.50 -1.95 0.55 -0.90 1.20 2.85 0.95 5.40 -0.20 2 -1.20 2.65 -1.55 0.95 l-0.20 -1.15 -0.10 1.15 c-0.05 0.95 -0.35 1.10 -2.05 1.10 l-2 0 0 -2.45z m2 -2.30 c0 -0.15 -0.10 -0.25 -0.25 -0.25 -0.15 0 -0.25 0.10 -0.25 0.25 0 0.15 0.10 0.25 0.25 0.25 0.15 0 0.25 -0.10 0.25 -0.25z"/>
  <path d="M22 38.75 c0 -0.70 0.25 -1.25 0.50 -1.25 0.30 0 0.50 -0.35 0.50 -0.75 0 -0.40 0.30 -0.75 0.70 -0.75 0.35 0 0.80 -0.40 0.95 -0.95 0.20 -0.80 0.05 -0.85 -1.65 -0.45 -1.10 0.30 -2.75 0.30 -4.05 0.05 -1.75 -0.35 -2.25 -0.65 -2.35 -1.60 -0.25 -1.50 0.75 -2.60 1.40 -1.55 0.25 0.45 0.35 -0.10 0.15 -1.40 -0.20 -1.40 -0.10 -2.10 0.30 -2.10 0.30 0 0.55 0.25 0.55 0.50 0 0.30 0.40 0.50 0.90 0.50 1.05 0 3.60 -2.30 3.60 -3.25 0 -0.35 0.25 -1.30 0.55 -2.10 l0.60 -1.40 0.35 1.25 c0.65 2.10 0.55 5.30 -0.25 6.80 -0.80 1.60 -0.60 2.15 0.50 1.20 0.50 -0.40 0.75 -1.50 0.75 -3.05 0 -3.05 0.70 -3.60 0.85 -0.60 0.05 2.10 1.30 4.15 2.50 4.15 0.20 0 1.60 0.50 3 1.10 1.75 0.75 2.65 1.45 2.65 2.05 0 0.45 -0.35 0.85 -0.75 0.85 -0.40 0 -0.75 0.30 -0.75 0.65 -0.05 0.30 -0.45 1.10 -0.95 1.75 -1.25 1.45 -4.05 1.55 -4.05 0.15 0 -0.70 -0.25 -0.90 -1 -0.70 -0.55 0.15 -1 0.70 -1 1.20 0 0.80 -0.40 0.95 -2.25 0.95 -2.05 0 -2.25 -0.10 -2.25 -1.25z m9 -1.50 c0 -0.15 -0.10 -0.25 -0.25 -0.25 -0.15 0 -0.25 0.10 -0.25 0.25 0 0.15 0.10 0.25 0.25 0.25 0.15 0 0.25 -0.10 0.25 -0.25z m2 -1.95 c0.45 -0.60 0.20 -0.95 -1.55 -1.85 l-2.15 -1.10 1.45 1.80 c0.85 1 1.55 1.80 1.55 1.80 0.05 0.05 0.35 -0.25 0.70 -0.65z m-5.50 -1.05 c0 -0.15 -0.10 -0.25 -0.25 -0.25 -0.15 0 -0.25 0.10 -0.25 0.25 0 0.15 0.10 0.25 0.25 0.25 0.15 0 0.25 -0.10 0.25 -0.25z"/>
  <path d="M15 27.65 c-1.05 -0.40 -1.20 -0.75 -2.80 -5.60 -0.80 -2.35 -1.60 -4.35 -1.80 -4.45 -0.75 -0.35 -0.40 -3.10 0.35 -3.45 1.10 -0.40 1.65 0.30 0.75 0.85 -0.65 0.40 -0.65 0.50 0 0.50 0.45 0 1.15 -0.45 1.60 -0.95 0.70 -0.85 0.75 -1.10 0.10 -2 -0.45 -0.60 -1.30 -1.05 -2 -1.05 -0.95 0 -1.20 -0.25 -1.20 -1.30 0 -1.20 0.15 -1.30 1.50 -1 0.95 0.15 1.50 0.05 1.50 -0.25 0 -0.35 0.55 -0.45 1.50 -0.25 0.85 0.15 2.05 0.05 2.75 -0.20 1.05 -0.40 1.25 -0.35 1.25 0.50 0 0.80 0.35 1 1.50 1 0.85 0 1.50 -0.20 1.50 -0.50 0 -0.25 -0.35 -0.50 -0.75 -0.50 -1.15 0 -0.90 -1.35 0.35 -1.65 1.20 -0.35 2.90 0.85 2.90 1.95 0 0.35 -0.25 1.20 -0.55 1.85 -0.50 1.10 -0.70 1.15 -1.95 0.70 -1 -0.40 -1.80 -0.35 -2.90 0.10 -0.85 0.35 -1.55 0.80 -1.50 1 0.05 0.15 -0.10 0.70 -0.35 1.20 -0.70 1.65 0.10 1.40 1.15 -0.40 1.20 -2 2.30 -2.20 4.10 -0.70 l1.25 1 -2.30 -0.30 c-2.25 -0.30 -2.30 -0.25 -2.10 1 0.25 1.15 1.65 1.85 1.65 0.75 0 -0.25 0.45 -0.50 0.95 -0.50 2.70 0 1.30 7.15 -2.05 10.80 -1.95 2.10 -2.75 2.45 -4.40 1.85z m1.55 -2.15 c1.10 0 4.35 -2.75 3.85 -3.25 -0.20 -0.20 -1 -0.40 -1.75 -0.45 -0.75 -0.05 -1.70 -0.25 -2 -0.45 -0.45 -0.30 -0.55 -0.15 -0.35 0.40 0.20 0.45 0.80 0.70 1.60 0.65 0.70 -0.10 1.35 0.10 1.45 0.45 0.25 0.75 -2.40 2.15 -4.10 2.15 -0.70 0 -1.25 0.25 -1.25 0.55 0 0.30 0.35 0.40 0.80 0.25 0.45 -0.15 1.20 -0.30 1.75 -0.30z m-0.55 -1.65 c0 -0.10 -0.45 -0.60 -1 -1.10 -0.85 -0.80 -1 -0.80 -1 -0.10 0 0.40 0.40 0.90 0.90 1 0.45 0.15 0.90 0.25 1 0.30 0.05 0 0.10 -0.05 0.10 -0.10z m0.60 -3.95 c0.45 0.10 0.95 -0.10 1.15 -0.40 0.45 -0.75 -2.35 -0.60 -3.35 0.20 -1.30 0.95 -1.10 1.45 0.25 0.70 0.60 -0.35 1.45 -0.55 1.95 -0.50z m-0.60 -8.90 c0 -0.25 -0.35 -0.50 -0.75 -0.50 -0.40 0 -0.75 0.25 -0.75 0.50 0 0.30 0.35 0.50 0.75 0.50 0.40 0 0.75 -0.20 0.75 -0.50z"/>
  <path d="M25.85 20.15 c0.20 -0.50 0.40 -0.55 0.65 -0.20 0.35 0.60 1.90 -0.85 2.90 -2.70 0.75 -1.35 0.75 0 0.05 1.40 -0.95 1.80 -4.25 3.15 -3.60 1.50z"/>
  <path d="M30.50 18.45 c0 -1.20 0.25 -2.55 0.50 -2.95 0.35 -0.50 0.40 0.10 0.20 2 -0.40 3.45 -0.70 3.85 -0.70 0.95z"/>
  <path d="M26 18.50 c0 -0.35 0.15 -0.50 0.35 -0.35 0.15 0.20 0.15 0.50 0 0.70 -0.20 0.15 -0.35 0 -0.35 -0.35z"/>
  <path d="M27 16.10 c0 -0.25 0.50 -0.85 1.10 -1.40 l1.05 -0.95 -0.90 1.40 c-0.90 1.40 -1.25 1.65 -1.25 0.95z"/>
  <path d="M11.15 13.15 c-0.65 -0.10 -1.15 -0.45 -1.15 -0.70 0 -0.75 1.80 -0.50 2.50 0.30 0.35 0.40 0.45 0.70 0.20 0.70 -0.25 -0.05 -0.95 -0.20 -1.55 -0.30z"/>
 </g>
 <g fill="#541f12">
  <path d="M31 38.50 c0 -1.40 0.15 -1.50 1.75 -1.50 1.60 0 1.75 0.10 1.75 1.50 0 1.40 -0.15 1.50 -1.75 1.50 -1.60 0 -1.75 -0.10 -1.75 -1.50z"/>
  <path d="M11.10 35.15 c0.10 -0.50 0.55 -0.95 1.05 -1.05 0.80 -0.15 0.85 -0.05 0.25 0.85 -0.80 1.25 -1.55 1.35 -1.30 0.20z"/>
  <path d="M13.15 35.65 c0.20 -0.15 0.50 -0.15 0.70 0 0.15 0.20 0 0.35 -0.35 0.35 -0.35 0 -0.50 -0.15 -0.35 -0.35z"/>
  <path d="M19.50 34.10 c0 -0.75 0.45 -0.95 2.25 -1 1.95 -0.10 2.25 0.05 2.25 0.90 0 0.85 -0.35 1 -2.25 1 -1.85 0 -2.25 -0.15 -2.25 -0.90z"/>
  <path d="M19.50 32 c0 -0.25 0.90 -0.50 2.05 -0.50 1.20 0 1.90 0.20 1.70 0.50 -0.15 0.30 -1.10 0.50 -2.05 0.50 -0.95 0 -1.70 -0.20 -1.70 -0.50z"/>
  <path d="M13.50 26.15 c0 -0.50 4.35 -0.50 4.80 0 0.20 0.20 -0.80 0.35 -2.20 0.35 -1.45 0 -2.60 -0.15 -2.60 -0.35z"/>
  <path d="M12.70 23.25 c-0.15 -0.95 -0.50 -1.90 -0.75 -2.05 -1.10 -0.65 -0.40 -1.70 1.15 -1.70 1.50 0 1.55 0.05 0.60 0.75 -0.90 0.70 -0.85 0.70 0.70 0.75 1 0 1.75 0.30 1.90 0.75 0.20 0.45 0.95 0.75 1.75 0.75 0.80 0 1.45 0.20 1.45 0.50 0 0.80 -2.85 2 -4.70 2 -1.60 0 -1.80 -0.15 -2.10 -1.75z m1.80 -1 c0 -0.15 -0.10 -0.25 -0.25 -0.25 -0.15 0 -0.25 0.10 -0.25 0.25 0 0.15 0.10 0.25 0.25 0.25 0.15 0 0.25 -0.10 0.25 -0.25z"/>
  <path d="M19.90 21.15 c0.35 -0.15 0.80 -0.10 0.95 0.05 0.20 0.15 -0.10 0.30 -0.65 0.25 -0.55 0 -0.70 -0.15 -0.30 -0.30z"/>
 </g>
 <g fill="#612519">
  <path d="M29.50 36.75 c0 -0.95 0.25 -1.75 0.55 -1.75 0.40 0 0.45 0.55 0.25 1.60 l-0.30 1.55 1.20 -1.30 c1.60 -1.70 1.80 -1.70 1.80 0.15 0 1.40 -0.15 1.50 -1.75 1.50 -1.65 0 -1.75 -0.10 -1.75 -1.75z"/>
  <path d="M13.50 26.15 c0 -0.25 1 -0.40 2.25 -0.40 1.25 0 2.25 0.15 2.25 0.35 0 0.25 -1 0.40 -2.25 0.40 -1.25 0 -2.25 -0.15 -2.25 -0.35z"/>
  <path d="M13.35 24.10 c-1.10 -1.20 -1.05 -1.70 0.20 -2.50 0.90 -0.55 1.20 -0.55 1.90 0.10 0.50 0.45 1.50 0.80 2.20 0.80 1.75 0 1.70 0.80 -0.15 1.75 -1.90 1 -3.15 0.95 -4.15 -0.15z m2 -1.90 c-0.15 -0.15 -0.60 -0.20 -0.95 -0.05 -0.40 0.15 -0.25 0.30 0.30 0.30 0.55 0.05 0.85 -0.10 0.65 -0.25z"/>
  <path d="M11.85 21.15 c-0.55 -0.50 0.65 -1.65 1.70 -1.65 0.90 0 0.90 0.05 -0.05 1 -1.10 1.10 -1.20 1.15 -1.65 0.65z"/>
  <path d="M19.65 21.15 c0.20 -0.15 0.50 -0.15 0.70 0 0.15 0.20 0 0.35 -0.35 0.35 -0.35 0 -0.50 -0.15 -0.35 -0.35z"/>
 </g>
 <g fill="#533821">
  <path d="M10 38.50 c0 -1.70 1.25 -4.50 2 -4.50 0.25 0 0.35 0.75 0.20 1.65 -0.20 1.30 -0.15 1.45 0.30 0.75 0.75 -1.20 1.50 -1.15 1.50 0.05 0 1.50 -0.55 2.55 -1.30 2.55 -0.40 0 -0.70 0.25 -0.70 0.50 0 0.30 -0.45 0.50 -1 0.50 -0.80 0 -1 -0.35 -1 -1.50z"/>
  <path d="M22.50 38.25 c0 -1.20 0.40 -2.05 1.35 -3 l1.40 -1.25 -1.65 0 c-0.85 0 -1.60 0.25 -1.60 0.50 0 0.30 -0.60 0.50 -1.30 0.50 -1.40 0 -4.40 -2.75 -3.90 -3.55 0.45 -0.75 1.05 -0.50 1.35 0.50 0.25 1 3.10 1.80 4.65 1.25 2.20 -0.80 3.20 -2.30 3.20 -4.75 0 -1.30 0.20 -2.50 0.45 -2.65 0.75 -0.45 0.25 4.40 -0.65 6.10 -0.90 1.70 -0.50 2 1.30 1.05 l1.05 -0.55 -1.05 1.75 c-1.50 2.35 -1.35 2.65 0.45 1.10 2 -1.65 2.70 -1.40 2.65 1.05 l-0.10 1.90 0.95 -1.15 c0.75 -0.90 0.95 -0.95 0.95 -0.35 0 0.50 0.45 0.80 1.25 0.80 1 0 1.25 0.25 1.25 1.25 0 1.25 0 1.25 -4.90 1.25 -3.15 0 -5.10 -0.20 -5.50 -0.60 -0.45 -0.45 -0.60 -0.45 -0.60 0 0 0.35 -0.20 0.60 -0.50 0.60 -0.25 0 -0.50 -0.80 -0.50 -1.75z m10.50 0.50 c0 -0.15 -0.10 -0.25 -0.25 -0.25 -0.15 0 -0.25 0.10 -0.25 0.25 0 0.15 0.10 0.25 0.25 0.25 0.15 0 0.25 -0.10 0.25 -0.25z m-8.15 -1.10 c-0.20 -0.15 -0.35 0 -0.35 0.35 0 0.35 0.15 0.50 0.35 0.35 0.15 -0.20 0.15 -0.50 0 -0.70z"/>
  <path d="M15.15 36.75 c0 -1.65 0.10 -2.25 0.20 -1.35 0.10 0.90 0.10 2.25 0 3 -0.10 0.75 -0.20 0 -0.20 -1.65z"/>
  <path d="M30.50 33 c-0.65 -0.40 -0.65 -0.50 0.10 -0.50 0.45 0 1 0.25 1.15 0.50 0.40 0.65 -0.25 0.65 -1.25 0z"/>
  <path d="M18.80 31.25 c-0.50 -0.70 -0.75 -1.70 -0.65 -2.15 0.20 -0.75 0.25 -0.75 0.30 0.05 0 0.45 0.40 0.85 0.85 0.85 1.30 0 4.55 -2.90 4.95 -4.35 l0.40 -1.40 0.45 1.70 c0.35 1.35 0.25 2.10 -0.70 4 -1 2.05 -1.35 2.30 -2.95 2.45 -1.50 0.10 -1.95 -0.10 -2.65 -1.15z"/>
  <path d="M14 27.05 c-0.70 -1.35 -0.75 -1.30 1.75 -1.30 2.65 0.05 3.35 0.55 2.05 1.55 -1.40 1 -3.15 0.85 -3.80 -0.25z"/>
  <path d="M13.60 24.05 c-1.40 -1.15 -1.40 -2.05 -0.10 -1.70 0.55 0.15 1 0.60 1 0.95 0 0.45 0.55 0.70 1.40 0.70 1.05 0 1.20 0.10 0.60 0.50 -1.10 0.70 -1.70 0.60 -2.90 -0.45z"/>
  <path d="M18 22.75 c0 -0.15 0.10 -0.25 0.25 -0.25 0.15 0 0.25 0.10 0.25 0.25 0 0.15 -0.10 0.25 -0.25 0.25 -0.15 0 -0.25 -0.10 -0.25 -0.25z"/>
  <path d="M11.05 19.25 c-1.30 -2.95 -1.35 -7.25 -0.05 -7.25 0.50 0 1.20 0.35 1.55 0.80 0.60 0.75 0.55 0.80 -0.45 0.50 -1.15 -0.40 -1.60 0.40 -0.45 0.85 0.45 0.20 0.40 0.40 -0.15 0.80 -0.40 0.25 -0.55 0.65 -0.35 0.85 0.20 0.25 0.95 -0.20 1.65 -0.95 1 -1.10 1.10 -1.50 0.65 -2.25 -0.35 -0.50 -1.25 -1.20 -2 -1.45 -0.95 -0.35 -1.45 -0.90 -1.45 -1.55 0 -1.35 1.20 -1.70 3.80 -1.05 1.80 0.45 2.55 0.40 4.20 -0.25 2.55 -1 4.95 -1.05 5.30 -0.05 0.15 0.40 0.10 1.35 -0.15 2.10 -0.40 1.20 -0.70 1.35 -2.30 1.25 -1.15 -0.10 -2.45 0.20 -3.70 0.95 -1.80 1.05 -1.90 1.20 -2 3.80 -0.10 2.25 -0.35 2.95 -1.40 3.95 -0.70 0.65 -1.40 1.20 -1.50 1.20 -0.10 0 -0.65 -1 -1.20 -2.25z m2.40 -2.50 c0 -0.25 -0.20 -0.15 -0.45 0.25 -0.25 0.40 -0.45 1.10 -0.45 1.50 0 0.80 0.85 -0.80 0.90 -1.75z"/>
  <path d="M18.90 21.15 c-1.05 -0.25 -1.15 -1.20 -0.25 -2.10 0.50 -0.50 0.25 -0.55 -1.25 -0.30 l-1.85 0.35 1 -2.15 c2.35 -5.25 2.95 -5.75 5.05 -4.20 l1.15 0.80 -1.25 -0.05 c-2.35 -0.20 -2.75 0 -2.75 1.25 0 1 0.30 1.25 1.90 1.50 1.90 0.35 2.35 0.90 1.20 1.60 -0.40 0.20 -0.65 1.05 -0.65 1.90 0.05 1.50 -0.55 1.90 -2.30 1.40z"/>
  <path d="M27 20.60 c0 -0.20 0.50 -0.65 1.15 -1.05 1.10 -0.70 1.10 -0.70 0.15 0.40 -1 1.10 -1.30 1.25 -1.30 0.65z"/>
  <path d="M30.50 18.10 c0 -1.10 0.25 -2.20 0.50 -2.35 0.35 -0.20 0.40 0.40 0.20 1.85 -0.45 2.85 -0.70 3.05 -0.70 0.50z"/>
  <path d="M29 18.25 c0 -0.15 0.10 -0.25 0.25 -0.25 0.15 0 0.25 0.10 0.25 0.25 0 0.15 -0.10 0.25 -0.25 0.25 -0.15 0 -0.25 -0.10 -0.25 -0.25z"/>
  <path d="M29.50 17.25 c0 -0.15 0.10 -0.25 0.25 -0.25 0.15 0 0.25 0.10 0.25 0.25 0 0.15 -0.10 0.25 -0.25 0.25 -0.15 0 -0.25 -0.10 -0.25 -0.25z"/>
  <path d="M27.75 15 c0.50 -0.55 1 -1 1.15 -1 0.15 0 -0.15 0.45 -0.65 1 -0.50 0.55 -1 1 -1.15 1 -0.15 0 0.15 -0.45 0.65 -1z"/>
 </g>
 <g fill="#472e3c">
  <path d="M22 39.25 c0 -0.40 0.45 -0.75 1 -0.75 0.65 0 0.90 0.25 0.70 0.75 -0.20 0.40 -0.60 0.75 -1 0.75 -0.40 0 -0.70 -0.35 -0.70 -0.75z"/>
  <path d="M29.50 39.55 c0 -0.55 2 -3.10 3.25 -4.15 1.15 -0.95 1.15 -0.85 -1.45 -2.05 -1.05 -0.50 -1.80 -1 -1.65 -1.15 0.20 -0.20 2.80 0.80 5.85 2.30 0.45 0.20 0.75 1.05 0.75 2.05 0 1.65 -0.05 1.70 -2.15 1.70 -1.65 0 -2.10 0.20 -2.10 0.90 0 0.60 -0.40 0.85 -1.25 0.85 -0.70 0 -1.25 -0.20 -1.25 -0.45z m6 -3.80 c0 -0.15 -0.10 -0.25 -0.25 -0.25 -0.15 0 -0.25 0.10 -0.25 0.25 0 0.15 0.10 0.25 0.25 0.25 0.15 0 0.25 -0.10 0.25 -0.25z"/>
  <path d="M10 37.50 c0 -1.65 0.15 -2 1 -2 1.05 0 1.25 0.80 0.70 2.90 -0.55 1.95 -1.70 1.35 -1.70 -0.90z"/>
  <path d="M17 37.75 c0 -1.65 0.10 -1.75 1.75 -1.75 1.65 0 1.75 0.10 1.75 1.75 0 1.65 -0.10 1.75 -1.75 1.75 -1.65 0 -1.75 -0.10 -1.75 -1.75z"/>
  <path d="M21.10 36.20 c0.15 -1.80 0.25 -1.95 1.85 -2.10 1.60 -0.15 1.70 -0.10 1.05 0.75 -0.65 0.80 -0.65 0.80 0.40 -0.05 0.75 -0.65 1 -1.30 0.80 -2.05 -0.15 -0.65 -0.05 -1.30 0.25 -1.45 0.30 -0.20 0.55 -1.30 0.55 -2.45 0 -2.45 0.35 -3.10 1.90 -3.55 0.60 -0.20 1.60 -0.85 2.10 -1.45 0.75 -0.80 1 -0.85 1 -0.25 0 0.90 -1.55 2.40 -2.55 2.40 -1.65 0.05 -2.05 0.75 -1.45 2.95 0.30 1.10 0.75 2.05 1 2.05 0.95 0 0.50 1.15 -1.60 4.05 -1.55 2.10 -2.50 2.95 -3.30 2.95 -0.80 0 -1.05 -0.20 -0.80 -0.60 0.25 -0.40 0.05 -0.40 -0.50 0.05 -0.80 0.70 -0.85 0.60 -0.70 -1.25z"/>
  <path d="M15 34.20 c0 -1.05 0.90 -2.70 1.50 -2.70 0.30 0 0.50 0.80 0.50 1.75 0 1.40 -0.20 1.75 -1 1.75 -0.55 0 -1 -0.35 -1 -0.80z"/>
  <path d="M30.50 19.30 c0 -1.75 0.40 -3.60 1.20 -5.35 1.55 -3.35 1.60 -3.05 0.25 0.85 -0.70 2.10 -0.90 3.55 -0.70 5.10 0.20 1.35 0.10 2.10 -0.20 2.10 -0.35 0 -0.55 -1.15 -0.55 -2.70z"/>
  <path d="M26.50 20.75 c0 -0.10 0.50 -0.50 1.15 -0.80 1 -0.55 1.05 -0.55 0.40 0.20 -0.65 0.80 -1.55 1.15 -1.55 0.60z"/>
  <path d="M17.70 14.70 c0.75 -2.90 2.15 -3.40 4.30 -1.65 l1.25 1 -2.30 -0.30 c-2.10 -0.25 -2.30 -0.20 -2.25 0.80 0.05 0.60 -0.25 1.20 -0.65 1.35 -0.55 0.20 -0.60 -0.10 -0.35 -1.20z"/>
  <path d="M10.30 14.20 c-0.80 -2.15 0.80 -3.15 2.25 -1.40 0.60 0.75 0.55 0.80 -0.45 0.50 -0.65 -0.25 -1.10 -0.15 -1.10 0.15 0 0.30 0.25 0.55 0.50 0.55 0.30 0 0.50 0.25 0.50 0.50 0 0.80 -1.35 0.55 -1.70 -0.30z"/>
  <path d="M13.15 14.65 c0.20 -0.15 0.50 -0.15 0.70 0 0.15 0.20 0 0.35 -0.35 0.35 -0.35 0 -0.50 -0.15 -0.35 -0.35z"/>
  <path d="M13.30 12.05 c-0.55 -0.60 -1.35 -1.05 -1.80 -1.05 -0.85 0 -1.50 -0.95 -1.50 -2.05 0 -0.25 0.55 -0.45 1.25 -0.45 0.80 0 1.25 0.30 1.25 0.80 0 0.45 0.45 1.25 1.05 1.75 0.60 0.50 0.95 1.15 0.85 1.45 -0.10 0.35 -0.55 0.15 -1.10 -0.45z m-2.30 -2.80 c0 -0.15 -0.10 -0.25 -0.25 -0.25 -0.15 0 -0.25 0.10 -0.25 0.25 0 0.15 0.10 0.25 0.25 0.25 0.15 0 0.25 -0.10 0.25 -0.25z"/>
  <path d="M17.50 10.95 c0 -0.25 1.15 -0.45 2.60 -0.45 1.40 0 2.40 0.15 2.20 0.35 -0.50 0.50 -4.80 0.60 -4.80 0.10z"/>
  <path d="M33.15 6.55 c-0.05 -2.70 0.10 -3.95 0.35 -3.30 0.55 1.25 0.60 6.30 0.10 7.05 -0.20 0.35 -0.40 -1.35 -0.45 -3.75z"/>
 </g>
 <g fill="#81271b">
  <path d="M14.15 26.15 c0.20 -0.15 0.50 -0.15 0.70 0 0.15 0.20 0 0.35 -0.35 0.35 -0.35 0 -0.50 -0.15 -0.35 -0.35z"/>
  <path d="M13.80 24.20 c-1.35 -1.30 -0.90 -1.70 1.95 -1.70 3.05 0 3.50 0.60 1.25 1.75 -1.85 0.95 -2.25 0.95 -3.20 -0.05z"/>
 </g>
 <g fill="#502e53">
  <path d="M15 38.25 c0 -1.60 0.10 -1.75 1.50 -1.75 1.40 0 1.50 0.15 1.50 1.75 0 1.60 -0.10 1.75 -1.50 1.75 -1.40 0 -1.50 -0.15 -1.50 -1.75z"/>
  <path d="M19.50 38.25 c0 -1.20 0.25 -1.75 0.75 -1.75 0.40 0 0.75 -0.35 0.75 -0.75 0 -0.50 0.50 -0.75 1.30 -0.75 1.20 0 1.25 0.10 0.65 0.90 -0.35 0.45 -0.05 0.30 0.70 -0.35 1.40 -1.25 1.90 -2.15 0.60 -1.05 -1.35 1.15 -0.90 -1.05 0.55 -2.55 1.05 -1.10 1.35 -1.95 1.40 -3.75 0.05 -2.15 0.20 -2.40 1.45 -2.75 0.75 -0.20 1.35 -0.20 1.35 0.05 0 0.20 -0.60 0.55 -1.30 0.70 -1.20 0.30 -1.30 0.50 -0.95 2.20 0.15 1 0.65 2.10 1.10 2.45 0.70 0.55 0.65 0.85 -0.55 2.65 -0.70 1.10 -1.65 2 -2.05 2 -0.45 0 -0.75 0.45 -0.75 1.15 0 1.95 -1.35 3.35 -3.30 3.35 -1.60 0 -1.70 -0.10 -1.70 -1.75z m2.75 -0.75 c0.15 -0.25 0.20 -0.50 0.05 -0.50 -0.15 0 -0.40 0.25 -0.55 0.50 -0.15 0.30 -0.20 0.50 -0.05 0.50 0.15 0 0.40 -0.20 0.55 -0.50z m4.75 -6.25 c0 -0.15 -0.10 -0.25 -0.25 -0.25 -0.15 0 -0.25 0.10 -0.25 0.25 0 0.15 0.10 0.25 0.25 0.25 0.15 0 0.25 -0.10 0.25 -0.25z"/>
  <path d="M29.80 39.25 c0.20 -0.40 0.50 -0.75 0.75 -0.75 0.25 0 0.45 0.35 0.45 0.75 0 0.40 -0.35 0.75 -0.75 0.75 -0.45 0 -0.60 -0.30 -0.45 -0.75z"/>
  <path d="M31.50 38.75 c0 -0.40 -0.25 -0.75 -0.60 -0.75 -0.35 0 0.30 -0.90 1.35 -2 1.05 -1.10 2.20 -2 2.50 -2 0.30 0 1.10 0.55 1.75 1.25 l1.20 1.30 -1.05 0.25 c-0.60 0.20 -1.15 0.80 -1.25 1.35 -0.15 1.25 -1.85 1.75 -2.45 0.75 -0.30 -0.50 -0.45 -0.50 -0.45 0 0 0.30 -0.20 0.60 -0.50 0.60 -0.25 0 -0.50 -0.35 -0.50 -0.75z m3.50 -2.50 c0.35 -0.45 0.40 -0.75 0.10 -0.75 -0.25 0 -0.60 0.35 -0.80 0.75 -0.15 0.40 -0.20 0.75 -0.10 0.75 0.10 0 0.45 -0.35 0.80 -0.75z"/>
  <path d="M10 38 c0 -0.25 -0.35 -0.50 -0.80 -0.50 -1.30 0 -0.55 -1.60 1.25 -2.60 0.90 -0.50 1.75 -0.85 1.85 -0.80 0.45 0.45 -1 4.40 -1.60 4.40 -0.40 0 -0.70 -0.20 -0.70 -0.50z"/>
  <path d="M15.15 34.15 c0.30 -1.70 1.40 -3.15 2.40 -3.15 0.75 0 0.90 2.25 0.20 2.65 -0.40 0.20 -0.75 0.85 -0.75 1.35 0 0.70 -0.35 1 -1.05 1 -0.95 0 -1.05 -0.20 -0.80 -1.85z"/>
  <path d="M30.50 32.75 c0 -0.15 0.10 -0.25 0.25 -0.25 0.15 0 0.25 0.10 0.25 0.25 0 0.15 -0.10 0.25 -0.25 0.25 -0.15 0 -0.25 -0.10 -0.25 -0.25z"/>
  <path d="M30.35 21.90 c0.35 -4.70 0.70 -6.65 1.40 -7.90 0.95 -1.65 0.95 -1.10 -0.05 1.55 -0.50 1.40 -0.65 3 -0.50 4.35 0.30 2.30 -0.05 4.60 -0.70 4.60 -0.20 0 -0.25 -1.20 -0.15 -2.60z"/>
  <path d="M17.75 14.40 c0.45 -1.55 1.60 -2.35 2.75 -2.05 1.55 0.40 1.15 1.15 -0.55 1.15 -1.30 0 -1.45 0.15 -1.20 1 0.25 0.70 0.10 1 -0.50 1 -0.60 0 -0.75 -0.30 -0.50 -1.10z"/>
  <path d="M32.50 12 c0 -0.35 0.15 -0.50 0.35 -0.35 0.15 0.20 0.15 0.50 0 0.70 -0.20 0.15 -0.35 0 -0.35 -0.35z"/>
  <path d="M17.20 11.30 c1 -0.80 4.30 -1.10 4.30 -0.40 0 0.20 -0.60 0.35 -1.35 0.35 -0.80 0.05 -1.95 0.20 -2.65 0.40 -1.20 0.40 -1.20 0.35 -0.30 -0.35z"/>
  <path d="M10.50 10.55 c0 -0.25 -0.15 -0.90 -0.30 -1.40 -0.25 -0.75 -0.20 -0.75 0.25 -0.15 0.35 0.50 0.55 0.55 0.55 0.15 0 -0.35 0.25 -0.65 0.50 -0.65 0.30 0 0.50 0.55 0.50 1.25 0 0.80 -0.30 1.25 -0.75 1.25 -0.40 0 -0.75 -0.20 -0.75 -0.45z"/>
  <path d="M33 10.50 c0 -0.35 0.15 -0.50 0.35 -0.35 0.15 0.20 0.15 0.50 0 0.70 -0.20 0.15 -0.35 0 -0.35 -0.35z"/>
  <path d="M33.65 7.25 c0 -1.35 0.10 -1.90 0.20 -1.10 0.10 0.75 0.10 1.85 0 2.50 -0.10 0.60 -0.20 0 -0.20 -1.40z"/>
  <path d="M8.05 5.70 c0 -0.55 0.15 -0.70 0.30 -0.30 0.15 0.35 0.10 0.80 -0.05 0.95 -0.15 0.20 -0.30 -0.10 -0.25 -0.65z"/>
  <path d="M33.05 3.75 c-0.05 -0.55 -0.20 -1.55 -0.30 -2.25 l-0.30 -1.25 0.55 1.25 c0.30 0.65 0.45 1.65 0.35 2.25 -0.20 0.95 -0.20 0.95 -0.30 0z"/>
 </g>
 <g fill="#6b4b2c">
  <path d="M31.50 38.25 c0 -1.55 0.15 -1.75 1.30 -1.75 1.20 0 1.25 0.10 0.65 0.90 -0.55 0.70 -0.50 0.65 0.45 -0.10 l1.10 -0.95 0 1.80 c0 1.80 -0.05 1.85 -1.75 1.85 -1.65 0 -1.75 -0.10 -1.75 -1.75z m1.35 0.40 c-0.20 -0.15 -0.35 0 -0.35 0.35 0 0.35 0.15 0.50 0.35 0.35 0.15 -0.20 0.15 -0.50 0 -0.70z"/>
  <path d="M18 33.65 c0 -1 0.10 -1 1.75 -0.50 2.35 0.70 2.35 1.90 0 1.70 -1.40 -0.10 -1.75 -0.30 -1.75 -1.20z"/>
  <path d="M14.65 27.65 c-0.35 -0.10 -0.65 -0.55 -0.65 -0.95 0 -0.55 0.35 -0.65 1.40 -0.40 1.70 0.40 1.80 0.50 1.35 1.15 -0.30 0.55 -1.05 0.65 -2.10 0.20z"/>
  <path d="M13.60 23.25 c-0.55 -0.65 -0.25 -0.75 2.25 -0.70 2.85 0.05 2.90 0.05 1.40 0.70 -1.90 0.90 -2.85 0.90 -3.65 0z"/>
  <path d="M12.05 20.70 c0 -0.55 0.15 -0.70 0.30 -0.30 0.15 0.35 0.10 0.80 -0.05 0.95 -0.15 0.20 -0.30 -0.10 -0.25 -0.65z"/>
  <path d="M28 19.75 c0 -0.15 0.10 -0.25 0.25 -0.25 0.15 0 0.25 0.10 0.25 0.25 0 0.15 -0.10 0.25 -0.25 0.25 -0.15 0 -0.25 -0.10 -0.25 -0.25z"/>
  <path d="M13.25 19 c-0.15 -0.25 -0.05 -0.90 0.25 -1.45 0.65 -1.25 0.65 -2.20 0 -1.80 -0.25 0.15 -0.50 -0.05 -0.50 -0.50 0 -0.60 0.25 -0.75 0.80 -0.55 0.45 0.15 0.90 0.30 1 0.30 0.30 0 0.25 2.10 -0.10 3.40 -0.35 1.15 -0.95 1.45 -1.45 0.60z"/>
  <path d="M10.60 17.75 c-0.85 -1.85 -0.75 -2.15 0.65 -1.85 1.35 0.25 1.40 0.30 0.95 2 -0.40 1.45 -0.90 1.40 -1.60 -0.15z"/>
  <path d="M16 18.50 c0 -0.25 0.30 -0.50 0.70 -0.50 0.90 0 1.30 -1.10 0.95 -2.45 -0.20 -0.75 -0.05 -1.05 0.60 -1.05 0.55 0 0.75 0.25 0.50 0.95 -0.25 0.75 0.05 1 1.50 1.25 2.30 0.45 1.80 1.30 -0.75 1.30 -1.05 0 -2.10 0.25 -2.25 0.50 -0.15 0.30 -0.50 0.50 -0.80 0.50 -0.25 0 -0.45 -0.20 -0.45 -0.50z"/>
  <path d="M10.75 12.50 c-0.40 -0.65 0.25 -0.65 1.25 0 0.65 0.40 0.65 0.50 -0.10 0.50 -0.45 0 -1 -0.20 -1.15 -0.50z"/>
  <path d="M13.25 12 c-0.50 -0.55 -1.30 -1 -1.85 -1 -0.95 0 -1.10 -0.40 -0.60 -1.70 0.25 -0.65 0.80 -0.75 2.95 -0.50 1.95 0.25 3.25 0.10 4.75 -0.50 1.10 -0.45 2.60 -0.80 3.30 -0.80 1.20 0 1.25 0.10 0.95 1.65 -0.50 2.25 -0.65 2.40 -2 2.05 -0.70 -0.15 -2.15 0.15 -3.50 0.75 -2.90 1.30 -2.90 1.30 -4 0.05z"/>
  <path d="M19.65 12.65 c0.45 -0.10 1.15 -0.10 1.50 0 0.30 0.15 -0.05 0.25 -0.90 0.25 -0.80 0 -1.10 -0.10 -0.60 -0.25z"/>
 </g>
 <g fill="#574759">
  <path d="M15 37.50 c0 -2.45 0.05 -2.50 1.50 -2.50 1.45 0 1.50 0.05 1.50 2.50 0 2.45 -0.05 2.50 -1.50 2.50 -1.45 0 -1.50 -0.05 -1.50 -2.50z m1.50 0.75 c0 -0.15 -0.10 -0.25 -0.25 -0.25 -0.15 0 -0.25 0.10 -0.25 0.25 0 0.15 0.10 0.25 0.25 0.25 0.15 0 0.25 -0.10 0.25 -0.25z"/>
  <path d="M36.65 39.15 c-0.20 -0.50 -1.10 -1.60 -1.95 -2.45 -1.60 -1.45 -1.60 -1.50 -0.60 -2.15 1.25 -0.75 1.75 -0.35 0.90 0.70 -0.35 0.45 -0.50 0.90 -0.35 1.10 0.20 0.15 0.45 -0.10 0.65 -0.55 0.15 -0.45 0.50 -0.80 0.75 -0.80 0.55 0 2.95 3.55 2.95 4.35 0 1 -2 0.75 -2.35 -0.20z"/>
  <path d="M8 37.80 c0 -1.35 0.80 -2.10 2.40 -2.20 0.95 -0.05 1.10 0.20 1.10 1.70 0 1.60 -0.10 1.70 -1.75 1.70 -1.50 0 -1.75 -0.15 -1.75 -1.20z"/>
  <path d="M20.50 36.85 c0 -1.85 0.05 -1.90 1.65 -1.75 1.40 0.15 1.60 0.35 1.75 1.80 0.15 1.45 0.05 1.60 -1.20 1.60 -1.25 0 -1.30 -0.05 -0.60 -0.85 0.40 -0.50 0.90 -1.25 1.15 -1.65 0.20 -0.40 -0.30 0.05 -1.15 1 l-1.55 1.75 -0.05 -1.90z"/>
  <path d="M24 33.70 c0 -0.50 0.50 -1.40 1.10 -2.05 0.75 -0.80 1.10 -1.75 1.05 -2.80 -0.10 -1.55 -0.10 -1.55 0.45 -0.45 0.45 0.90 0.45 1.55 0 2.70 -0.55 1.50 -0.55 1.50 0.40 0.65 1.15 -1.05 1.20 -0.95 0.45 1.20 -0.35 1 -0.90 1.55 -1.55 1.55 -0.65 0 -0.85 -0.20 -0.60 -0.60 0.25 -0.45 0.10 -0.45 -0.45 0.05 -0.75 0.60 -0.85 0.55 -0.85 -0.25z"/>
  <path d="M32.50 33.75 c0 -0.15 0.10 -0.25 0.25 -0.25 0.15 0 0.25 0.10 0.25 0.25 0 0.15 -0.10 0.25 -0.25 0.25 -0.15 0 -0.25 -0.10 -0.25 -0.25z"/>
  <path d="M31.50 33.25 c0 -0.15 0.10 -0.25 0.25 -0.25 0.15 0 0.25 0.10 0.25 0.25 0 0.15 -0.10 0.25 -0.25 0.25 -0.15 0 -0.25 -0.10 -0.25 -0.25z"/>
  <path d="M28.30 25.30 c0.95 -0.40 1.80 -1.30 2.10 -2.15 l0.50 -1.40 0.05 1.30 c0.05 1.60 -1.35 2.95 -3 2.95 -1.10 -0.05 -1.10 -0.10 0.35 -0.70z"/>
  <path d="M30.60 20 c0 -0.70 0.10 -0.95 0.25 -0.60 0.10 0.30 0.10 0.90 0 1.25 -0.15 0.30 -0.25 0.05 -0.25 -0.65z"/>
  <path d="M30.50 17.25 c0 -0.15 0.10 -0.25 0.25 -0.25 0.15 0 0.25 0.10 0.25 0.25 0 0.15 -0.10 0.25 -0.25 0.25 -0.15 0 -0.25 -0.10 -0.25 -0.25z"/>
  <path d="M20.90 15.15 c0.35 -0.15 0.80 -0.10 0.95 0.05 0.20 0.15 -0.10 0.30 -0.65 0.25 -0.55 0 -0.70 -0.15 -0.30 -0.30z"/>
  <path d="M18.20 14.40 c-0.20 -0.35 -0.15 -0.40 0.20 -0.20 0.60 0.35 0.80 0.80 0.40 0.80 -0.15 0 -0.40 -0.25 -0.60 -0.60z"/>
  <path d="M10.90 14.15 c0.35 -0.15 0.80 -0.10 0.95 0.05 0.20 0.15 -0.10 0.30 -0.65 0.25 -0.55 0 -0.70 -0.15 -0.30 -0.30z"/>
  <path d="M20.25 13.25 c-1.30 -0.55 -1.35 -0.65 -0.40 -0.70 1.35 -0.05 2.65 0.45 2.65 1 0 0.60 -0.45 0.55 -2.25 -0.30z"/>
  <path d="M10.35 12.45 c0.40 -0.40 0.80 -0.40 1.50 0 0.80 0.45 0.70 0.50 -0.55 0.55 -1.10 0 -1.35 -0.15 -0.95 -0.55z"/>
  <path d="M33.60 8.50 c0 -0.70 0.10 -0.95 0.25 -0.60 0.10 0.30 0.10 0.90 0 1.25 -0.15 0.30 -0.25 0.05 -0.25 -0.65z"/>
  <path d="M33 4.25 c0 -0.15 0.10 -0.25 0.25 -0.25 0.15 0 0.25 0.10 0.25 0.25 0 0.15 -0.10 0.25 -0.25 0.25 -0.15 0 -0.25 -0.10 -0.25 -0.25z"/>
  <path d="M32.50 1.50 c0 -0.35 0.15 -0.50 0.35 -0.35 0.15 0.20 0.15 0.50 0 0.70 -0.20 0.15 -0.35 0 -0.35 -0.35z"/>
 </g>
 <g fill="#6c2d74">
  <path d="M8 38.35 c0 -1.70 0.60 -2.45 2.85 -3.70 1.60 -0.90 1.65 -0.85 1.10 0.95 -0.25 0.90 -0.45 2.25 -0.45 3 0 1.25 -0.15 1.40 -1.75 1.40 -1.65 0 -1.75 -0.10 -1.75 -1.65z m2 -1.10 c0 -0.15 -0.10 -0.25 -0.25 -0.25 -0.15 0 -0.25 0.10 -0.25 0.25 0 0.15 0.10 0.25 0.25 0.25 0.15 0 0.25 -0.10 0.25 -0.25z m0.50 -1.50 c0 -0.15 -0.10 -0.25 -0.25 -0.25 -0.15 0 -0.25 0.10 -0.25 0.25 0 0.15 0.10 0.25 0.25 0.25 0.15 0 0.25 -0.10 0.25 -0.25z"/>
  <path d="M19 38.60 c0 -1 0.35 -1.65 1.25 -2.10 0.70 -0.35 1.25 -0.95 1.25 -1.35 0 -0.35 0.55 -0.65 1.35 -0.65 l1.30 0 -0.95 1.15 c-1.50 1.65 -2.35 2.85 -2.10 2.85 0.15 0 1.25 -1.20 2.45 -2.60 1.20 -1.45 1.80 -2.35 1.30 -1.95 -0.75 0.60 -0.85 0.55 -0.85 -0.30 0 -1.10 0.90 -2.15 1.90 -2.15 0.60 0 0.60 0.15 0.05 0.90 -0.35 0.45 -0.10 0.35 0.65 -0.30 2.30 -2.05 1.90 -0.45 -1 3.80 -2.65 3.95 -2.85 4.10 -4.70 4.10 -1.75 0 -1.90 -0.10 -1.90 -1.40z"/>
  <path d="M30 39.20 c0 -0.85 4.20 -5.20 5.05 -5.20 0.75 0 0.55 0.45 -1.15 2.80 -0.85 1.20 -1.40 2.35 -1.25 2.55 0.20 0.15 0.35 0.05 0.35 -0.25 0 -0.85 2.50 -3.60 3.30 -3.60 0.55 0 0.55 0.25 0.10 1.25 -0.30 0.70 -0.85 1.25 -1.25 1.25 -0.35 0 -0.65 0.45 -0.65 1 0 0.85 -0.35 1 -2.25 1 -1.75 0 -2.25 -0.20 -2.25 -0.80z"/>
  <path d="M15.15 35.45 c0.30 -2.25 1.55 -4.45 2.50 -4.45 0.55 0 0.80 2.60 0.55 4.70 -0.35 2.30 -1.40 3.15 -1.85 1.45 -0.20 -0.85 -0.25 -0.85 -0.30 0 0 0.45 -0.30 0.85 -0.60 0.85 -0.40 0 -0.50 -0.80 -0.30 -2.55z"/>
  <path d="M26.50 30.50 c0 -0.35 0.15 -0.50 0.35 -0.35 0.15 0.20 0.15 0.50 0 0.70 -0.20 0.15 -0.35 0 -0.35 -0.35z"/>
 </g>
 <g fill="#665e57">
  <path d="M17.20 37.30 c0.15 -1.50 0.10 -2.80 -0.15 -2.90 -0.55 -0.20 -0.10 -3.40 0.50 -3.40 0.25 0 0.45 0.30 0.45 0.70 0 0.35 0.55 1.05 1.20 1.50 1.55 1 3.85 0.30 6.20 -1.85 2 -1.95 2.05 -1.15 0.10 1.55 -1.15 1.65 -1.85 2.10 -2.95 2.10 -1.35 0 -1.50 0.15 -1.80 2.50 -0.35 2.45 -0.35 2.50 -2.10 2.50 l-1.80 0 0.35 -2.70z m1.80 0.45 c0 -0.15 -0.10 -0.25 -0.25 -0.25 -0.15 0 -0.25 0.10 -0.25 0.25 0 0.15 0.10 0.25 0.25 0.25 0.15 0 0.25 -0.10 0.25 -0.25z m0.50 -2.75 c0 -0.25 -0.20 -0.50 -0.50 -0.50 -0.25 0 -0.50 0.25 -0.50 0.50 0 0.30 0.25 0.50 0.50 0.50 0.30 0 0.50 -0.20 0.50 -0.50z"/>
  <path d="M8 37 c1.80 -2.55 2.45 -2.40 1.70 0.40 -0.20 0.75 -0.70 1.10 -1.55 1.10 l-1.20 0 1.05 -1.50z"/>
  <path d="M26 33 c1.90 -2.40 2.60 -2.20 1.25 0.25 -0.55 1.05 -1.30 1.75 -1.85 1.75 -0.85 0 -0.80 -0.25 0.60 -2z"/>
  <path d="M16 32.50 c0 -0.35 0.15 -0.50 0.35 -0.35 0.15 0.20 0.15 0.50 0 0.70 -0.20 0.15 -0.35 0 -0.35 -0.35z"/>
  <path d="M14.50 23.30 c0 -0.60 0.50 -0.80 1.90 -0.80 1.90 0.05 1.60 0.50 -0.75 1.20 -0.85 0.30 -1.15 0.15 -1.15 -0.40z"/>
  <path d="M17.60 15.30 c0.05 -0.50 0.40 -0.85 0.65 -0.85 0.75 0.05 0.60 1.20 -0.15 1.45 -0.45 0.15 -0.65 -0.10 -0.50 -0.60z"/>
  <path d="M20.50 15.50 c0 -0.25 0.35 -0.50 0.75 -0.50 0.40 0 0.75 0.25 0.75 0.50 0 0.30 -0.35 0.50 -0.75 0.50 -0.40 0 -0.75 -0.20 -0.75 -0.50z"/>
  <path d="M10.50 14.50 c0 -0.25 0.35 -0.50 0.75 -0.50 0.40 0 0.75 0.25 0.75 0.50 0 0.30 -0.35 0.50 -0.75 0.50 -0.40 0 -0.75 -0.20 -0.75 -0.50z"/>
 </g>
 <g fill="#766555">
  <path d="M14.50 27.25 c0 -0.15 0.10 -0.25 0.25 -0.25 0.15 0 0.25 0.10 0.25 0.25 0 0.15 -0.10 0.25 -0.25 0.25 -0.15 0 -0.25 -0.10 -0.25 -0.25z"/>
  <path d="M13.35 23.65 c-0.70 -0.70 -0.30 -1.15 1.05 -1.15 2 0 3 0.80 1.50 1.15 -1.50 0.45 -2.15 0.45 -2.55 0z"/>
  <path d="M17.50 15.25 c0 -0.40 0.35 -0.75 0.75 -0.75 0.45 0 0.60 0.30 0.45 0.75 -0.20 0.40 -0.50 0.75 -0.75 0.75 -0.25 0 -0.45 -0.35 -0.45 -0.75z"/>
  <path d="M20.75 15.50 c-0.15 -0.25 0.05 -0.50 0.45 -0.50 0.45 0 0.80 0.25 0.80 0.50 0 0.30 -0.20 0.50 -0.45 0.50 -0.30 0 -0.65 -0.20 -0.80 -0.50z"/>
  <path d="M13 15 c0 -0.25 0.25 -0.50 0.55 -0.50 0.25 0 0.35 0.25 0.20 0.50 -0.15 0.30 -0.40 0.50 -0.55 0.50 -0.10 0 -0.20 -0.20 -0.20 -0.50z"/>
 </g>
 <g fill="#676072">
  <path d="M15 39.25 c0 -0.90 0.80 -1 1.15 -0.10 0.20 0.50 0.30 0.50 0.30 0 0.05 -0.90 1.05 -0.80 1.05 0.10 0 0.45 -0.45 0.75 -1.25 0.75 -0.80 0 -1.25 -0.30 -1.25 -0.75z"/>
  <path d="M35.65 37.95 c0.15 -1.10 0.40 -2.15 0.55 -2.35 0.40 -0.35 1.65 1.30 2.25 3.05 0.50 1.30 0.45 1.35 -1.30 1.35 l-1.80 0 0.30 -2.05z"/>
  <path d="M8 37.85 c0 -1.10 1.55 -2.85 2.55 -2.85 0.75 0 0.95 0.35 0.95 1.75 0 1.25 -0.20 1.75 -0.80 1.75 -0.60 0 -0.70 -0.35 -0.50 -1.60 l0.25 -1.65 -0.55 1.65 c-0.55 1.55 -1.90 2.25 -1.90 0.95z"/>
  <path d="M16.65 35.65 c-0.90 -0.15 -1.15 -0.55 -1.15 -1.65 0 -1.65 0.80 -2.45 1.15 -1.15 0.20 0.85 0.25 0.85 0.30 0.05 0.05 -0.90 1.05 -1.30 1.05 -0.45 0 0.25 0.70 0.60 1.50 0.80 1.15 0.25 1.50 0.60 1.50 1.55 0 0.75 -0.30 1.20 -0.75 1.20 -0.40 0 -0.75 -0.35 -0.75 -0.75 0 -0.40 -0.25 -0.75 -0.55 -0.75 -0.30 0 -0.45 0.35 -0.25 0.75 0.25 0.75 0.05 0.80 -2.05 0.40z"/>
  <path d="M25 32.20 c0 -0.15 0.45 -0.85 1 -1.55 0.55 -0.70 1 -1 1 -0.60 -0.05 1.15 -2 3.30 -2 2.15z"/>
  <path d="M26.50 32.30 c0 -0.10 0.35 -0.45 0.75 -0.80 0.60 -0.50 0.75 -0.50 0.75 0.20 0 0.45 -0.35 0.80 -0.75 0.80 -0.40 0 -0.75 -0.10 -0.75 -0.20z"/>
  <path d="M28.30 25.50 c0.60 -0.25 1.45 -0.95 1.90 -1.60 0.60 -0.85 0.80 -0.95 0.80 -0.30 0 0.95 -1.85 2.40 -3 2.35 -0.45 0 -0.35 -0.15 0.30 -0.45z"/>
 </g>
 <g fill="#787054">
  <path d="M31.75 38.50 c0.45 -2.20 0.65 -2.50 1.55 -2.50 0.95 0 0.90 0.15 -0.60 2.35 l-1.30 1.90 0.35 -1.75z"/>
  <path d="M33.20 38.60 c0.40 -0.80 1.10 -1.70 1.50 -2.05 0.70 -0.60 0.80 -0.45 0.80 1.10 0 1.40 -0.25 1.80 -1.10 2.05 -1.85 0.45 -1.95 0.35 -1.20 -1.10z"/>
  <path d="M17.55 33.15 c0.05 -1.05 0.15 -1.50 0.30 -1.05 0.10 0.45 0.85 1 1.70 1.15 1.50 0.35 2.05 1.75 0.70 1.75 -0.40 0 -0.75 -0.25 -0.75 -0.60 0 -0.45 -0.15 -0.45 -0.60 0 -1.05 1.05 -1.40 0.65 -1.35 -1.25z"/>
  <path d="M13 23 c0 -0.65 2 -0.65 3 0 0.55 0.35 0.25 0.50 -1.10 0.50 -1.05 0 -1.90 -0.20 -1.90 -0.50z"/>
  <path d="M17.50 22.75 c0 -0.15 0.10 -0.25 0.25 -0.25 0.15 0 0.25 0.10 0.25 0.25 0 0.15 -0.10 0.25 -0.25 0.25 -0.15 0 -0.25 -0.10 -0.25 -0.25z"/>
  <path d="M20.75 15.50 c-0.15 -0.25 0.05 -0.50 0.50 -0.50 0.45 0 0.65 0.25 0.50 0.50 -0.15 0.30 -0.40 0.50 -0.50 0.50 -0.10 0 -0.35 -0.20 -0.50 -0.50z"/>
 </g>
 <g fill="#7e3893">
  <path d="M7.50 38.75 c0 -0.70 0.25 -1.25 0.50 -1.25 0.30 0 0.50 -0.30 0.50 -0.70 0 -0.80 0.85 -1.55 2.35 -2 1.05 -0.35 1.10 -0.25 0.85 1.30 -0.55 3.35 -0.75 3.90 -1.30 3.90 -0.35 0 -0.45 -0.75 -0.20 -2.35 0.20 -1.65 0.15 -2.15 -0.20 -1.65 -0.25 0.40 -0.50 1.50 -0.50 2.40 0 1.25 -0.20 1.60 -1 1.60 -0.75 0 -1 -0.35 -1 -1.25z"/>
  <path d="M30 39.45 c0 -0.95 4.85 -5.55 5.25 -5 0.15 0.30 0.15 0.55 -0.10 0.55 -0.20 0 -1.05 1.15 -1.90 2.50 -1.35 2.25 -3.25 3.40 -3.25 1.95z"/>
  <path d="M15.25 35.65 c0.40 -3.50 0.85 -4.30 1.30 -2.65 0.30 1.15 0.35 1.10 0.40 -0.40 0.05 -0.95 0.25 -1.55 0.55 -1.35 0.65 0.40 0.65 5.75 0 5.75 -0.25 0 -0.55 0.40 -0.55 0.90 -0.05 0.45 -0.25 0.05 -0.45 -0.90 l-0.35 -1.75 -0.10 1.65 c0 0.85 -0.30 1.60 -0.60 1.60 -0.40 0 -0.45 -0.90 -0.20 -2.85z"/>
  <path d="M33.95 37.60 c0.60 -1.15 2 -2.35 2.30 -2 0.50 0.50 -1.05 2.90 -1.90 2.90 -0.70 0 -0.80 -0.20 -0.40 -0.90z"/>
  <path d="M23.45 36.10 c0.55 -0.80 1.35 -1.75 1.80 -2.10 0.40 -0.35 0.65 -1 0.50 -1.45 -0.15 -0.50 0.10 -1.30 0.55 -1.85 0.75 -0.90 0.75 -0.90 0.25 0.15 -0.80 1.65 -0.65 1.90 0.45 0.90 1.65 -1.50 1.20 0.15 -0.80 3.10 -1.15 1.65 -2.20 2.65 -2.80 2.65 -0.95 0 -0.95 -0.05 0.05 -1.40z"/>
  <path d="M22.10 35.30 c0.10 -1.15 0.50 -1.55 1.55 -1.85 1.75 -0.45 1.70 0 -0.20 1.85 l-1.55 1.45 0.20 -1.45z"/>
 </g>
 <g fill="#857962">
  <path d="M13.90 23.15 c0.60 -0.10 1.50 -0.10 2 0 0.45 0.15 -0.05 0.25 -1.15 0.20 -1.10 0 -1.50 -0.10 -0.85 -0.20z"/>
  <path d="M17.75 15 c0.15 -0.25 0.55 -0.50 0.80 -0.50 0.30 0 0.35 0.25 0.20 0.50 -0.15 0.30 -0.55 0.50 -0.80 0.50 -0.30 0 -0.35 -0.20 -0.20 -0.50z"/>
 </g>
 <g fill="#847a70">
  <path d="M19.35 34.50 c-0.20 -0.85 0 -1 1.45 -1 1.35 0 1.70 0.20 1.70 1 0 0.75 -0.35 1 -1.45 1 -1 0 -1.50 -0.30 -1.70 -1z"/>
  <path d="M13.90 23.15 c0.35 -0.15 0.80 -0.10 0.95 0.05 0.20 0.15 -0.10 0.30 -0.65 0.25 -0.55 0 -0.70 -0.15 -0.30 -0.30z"/>
  <path d="M21 15.50 c0 -0.25 0.25 -0.50 0.55 -0.50 0.25 0 0.35 0.25 0.20 0.50 -0.15 0.30 -0.40 0.50 -0.55 0.50 -0.10 0 -0.20 -0.20 -0.20 -0.50z"/>
  <path d="M13 15 c0 -0.35 0.15 -0.50 0.35 -0.35 0.15 0.20 0.15 0.50 0 0.70 -0.20 0.15 -0.35 0 -0.35 -0.35z"/>
  <path d="M10.50 14.50 c0 -0.25 0.25 -0.50 0.50 -0.50 0.30 0 0.50 0.25 0.50 0.50 0 0.30 -0.20 0.50 -0.50 0.50 -0.25 0 -0.50 -0.20 -0.50 -0.50z"/>
 </g>
 <g fill="#787e81">
  <path d="M6 39.70 c0 -0.45 3.70 -4.70 4.05 -4.70 0.20 0 0.10 0.70 -0.20 1.50 -0.30 0.85 -0.75 1.50 -0.95 1.50 -0.20 0 -0.40 0.45 -0.40 1 0 0.75 -0.35 1 -1.25 1 -0.70 0 -1.25 -0.15 -1.25 -0.30z"/>
  <path d="M16.55 37.40 c0 -1.45 0.20 -3.55 0.45 -4.65 0.35 -1.70 0.45 -1.85 0.75 -0.90 0.85 2.55 5.40 2.20 8 -0.65 l1.30 -1.45 -0.75 1.55 c-0.40 0.85 -1.90 2.90 -3.30 4.50 -1.35 1.65 -2.50 3.25 -2.50 3.60 0 0.35 -0.75 0.60 -2 0.60 l-2 0 0.05 -2.60z m2.30 0.25 c-0.20 -0.15 -0.35 0 -0.35 0.35 0 0.35 0.15 0.50 0.35 0.35 0.15 -0.20 0.15 -0.50 0 -0.70z m0.65 -2.75 c0 -0.80 -0.15 -0.95 -0.55 -0.55 -0.30 0.30 -0.40 0.80 -0.25 1.10 0.55 0.85 0.80 0.65 0.80 -0.55z m3 0.35 c0 -0.15 -0.10 -0.25 -0.25 -0.25 -0.15 0 -0.25 0.10 -0.25 0.25 0 0.15 0.10 0.25 0.25 0.25 0.15 0 0.25 -0.10 0.25 -0.25z"/>
  <path d="M22.30 37.75 c0.45 -0.70 0.90 -1.25 1 -1.25 0.10 0 0.20 0.55 0.20 1.25 0 0.90 -0.25 1.25 -1 1.25 -1 0 -1 -0.05 -0.20 -1.25z"/>
  <path d="M10 37.75 c0 -0.15 0.10 -0.25 0.25 -0.25 0.15 0 0.25 0.10 0.25 0.25 0 0.15 -0.10 0.25 -0.25 0.25 -0.15 0 -0.25 -0.10 -0.25 -0.25z"/>
  <path d="M15.50 34.70 c0 -0.80 0.25 -1.80 0.50 -2.20 0.30 -0.50 0.35 -0.10 0.15 1.25 -0.35 2.45 -0.65 2.90 -0.65 0.95z"/>
  <path d="M24.45 35.15 c0.95 -1.70 2.95 -3.90 3.25 -3.60 0.50 0.45 -2.25 4.45 -3.05 4.45 -0.50 0 -0.55 -0.25 -0.20 -0.85z"/>
  <path d="M11 14.50 c0 -0.35 0.15 -0.50 0.35 -0.35 0.15 0.20 0.15 0.50 0 0.70 -0.20 0.15 -0.35 0 -0.35 -0.35z"/>
 </g>
 <g fill="#8f3fb3">
  <path d="M7.50 39 c0 -1.10 1.90 -4 2.60 -4 0.20 0 0.15 0.50 -0.10 1.15 -0.25 0.60 -0.55 1.70 -0.70 2.50 -0.35 1.55 -1.80 1.85 -1.80 0.35z"/>
  <path d="M10.20 37.90 c0.20 -1.20 0.65 -2.45 1.05 -2.85 0.60 -0.60 0.65 -0.60 0.50 0.25 -0.10 0.50 -0.35 1.80 -0.50 2.85 -0.15 1 -0.55 1.85 -0.85 1.85 -0.35 0 -0.40 -0.75 -0.20 -2.10z"/>
  <path d="M15.25 36.65 c0.20 -1.90 0.60 -3.75 0.85 -4.15 0.40 -0.60 0.40 -0.55 0.20 0.15 -0.15 0.50 -0.30 2.40 -0.30 4.15 0 1.95 -0.20 3.20 -0.55 3.20 -0.35 0 -0.40 -1.10 -0.20 -3.35z"/>
  <path d="M16.55 38.20 c-0.10 -3 0.50 -6.70 1.10 -6.70 0.45 0 0.40 0.45 -0.65 6.50 l-0.35 2.25 -0.10 -2.05z"/>
  <path d="M19 39.25 c0 -0.40 0.25 -0.75 0.50 -0.75 0.30 0 0.50 -0.35 0.50 -0.75 0 -0.40 0.25 -0.75 0.50 -0.75 0.30 0 0.50 -0.35 0.50 -0.75 0 -0.40 0.45 -0.75 1 -0.75 0.60 0 1 -0.35 1 -0.85 0 -0.50 0.80 -1.55 1.75 -2.30 0.95 -0.75 1.75 -1.30 1.75 -1.15 0 0.10 -1.35 1.85 -3 3.90 -1.65 2 -3 3.95 -3 4.30 0 0.30 -0.35 0.60 -0.75 0.60 -0.40 0 -0.75 -0.35 -0.75 -0.75z"/>
  <path d="M21.50 39.45 c0 -0.80 5.50 -7.95 6.10 -7.95 0.65 0 0.50 0.30 -2.35 4.65 -2.25 3.50 -3.75 4.75 -3.75 3.30z"/>
  <path d="M30.50 39.35 c0 -0.90 3 -4.40 3.50 -4.10 0.60 0.35 -2.05 4.70 -2.85 4.75 -0.35 0 -0.65 -0.30 -0.65 -0.65z"/>
  <path d="M33 39.40 c0 -0.90 2.50 -3.90 3.30 -3.90 1 0 0.90 0.65 -0.30 1.50 -0.55 0.40 -1 0.90 -1 1.15 0 0.45 -1.25 1.85 -1.70 1.85 -0.15 0 -0.30 -0.25 -0.30 -0.60z"/>
  <path d="M35 34.75 c0 -0.15 0.10 -0.25 0.25 -0.25 0.15 0 0.25 0.10 0.25 0.25 0 0.15 -0.10 0.25 -0.25 0.25 -0.15 0 -0.25 -0.10 -0.25 -0.25z"/>
 </g>
 <g fill="#847a87">
  <path d="M7.50 39 c0 -1 1.90 -4 2.50 -4 0.20 0 0 1.15 -0.45 2.50 -0.75 2.50 -2.05 3.40 -2.05 1.50z"/>
  <path d="M17 39.30 c0 -0.45 0.25 -0.80 0.50 -0.80 0.30 0 0.50 0.20 0.50 0.45 0 0.30 -0.20 0.65 -0.50 0.80 -0.25 0.15 -0.50 -0.05 -0.50 -0.45z"/>
  <path d="M18 39.85 c0 -0.60 2 -2.35 2.70 -2.35 0.75 0 0.75 0.10 0 1.25 -0.45 0.70 -1.25 1.25 -1.75 1.25 -0.55 0 -0.95 -0.10 -0.95 -0.15z"/>
  <path d="M34.75 39.25 c-0.15 -0.40 -0.35 -1.05 -0.45 -1.45 -0.25 -0.70 1.15 -2.30 2 -2.30 0.55 0 2.20 2.80 2.20 3.80 0 1 -3.45 0.95 -3.75 -0.05z m2.60 -0.60 c-0.20 -0.15 -0.35 0 -0.35 0.35 0 0.35 0.15 0.50 0.35 0.35 0.15 -0.20 0.15 -0.50 0 -0.70z"/>
  <path d="M25.75 31.50 c0.15 -0.25 0.40 -0.50 0.55 -0.50 0.15 0 0.10 0.25 -0.05 0.50 -0.15 0.30 -0.40 0.50 -0.55 0.50 -0.15 0 -0.10 -0.20 0.05 -0.50z"/>
  <path d="M27.15 31.65 c0.20 -0.15 0.50 -0.15 0.70 0 0.15 0.20 0 0.35 -0.35 0.35 -0.35 0 -0.50 -0.15 -0.35 -0.35z"/>
  <path d="M26.50 30.25 c0 -0.15 0.10 -0.25 0.25 -0.25 0.15 0 0.25 0.10 0.25 0.25 0 0.15 -0.10 0.25 -0.25 0.25 -0.15 0 -0.25 -0.10 -0.25 -0.25z"/>
  <path d="M29 25.25 c0 -0.15 0.10 -0.25 0.25 -0.25 0.15 0 0.25 0.10 0.25 0.25 0 0.15 -0.10 0.25 -0.25 0.25 -0.15 0 -0.25 -0.10 -0.25 -0.25z"/>
  <path d="M30.25 24.50 c0.15 -0.25 0.40 -0.50 0.55 -0.50 0.15 0 0.10 0.25 -0.05 0.50 -0.15 0.30 -0.40 0.50 -0.55 0.50 -0.15 0 -0.10 -0.20 0.05 -0.50z"/>
 </g>
 <g fill="#9941ca">
  <path d="M10.55 37.65 c0.50 -2.50 0.95 -3.40 0.95 -1.80 0 1.65 -0.60 4.15 -1 4.15 -0.20 0 -0.15 -1.05 0.05 -2.35z"/>
  <path d="M15.65 37.25 c0 -1.65 0.10 -2.25 0.20 -1.35 0.10 0.90 0.10 2.25 0 3 -0.10 0.75 -0.20 0 -0.20 -1.65z"/>
  <path d="M16.55 37.40 c0.05 -4.35 0.85 -5.25 0.90 -1 0.05 2.10 -0.15 3.60 -0.45 3.60 -0.25 0 -0.50 -1.20 -0.45 -2.60z"/>
  <path d="M22.10 39 c0.10 -0.55 1.30 -2.45 2.65 -4.20 2.60 -3.40 4.10 -4.50 2.30 -1.65 -0.60 0.85 -1.80 2.75 -2.70 4.20 -1.65 2.75 -2.55 3.35 -2.25 1.65z"/>
  <path d="M31.80 38.15 c0.90 -2.15 1.55 -2.95 2 -2.50 0.15 0.15 -0.15 0.95 -0.75 1.75 -0.60 0.85 -1.05 1.75 -1.05 2.05 0 0.30 -0.20 0.55 -0.45 0.55 -0.30 0 -0.15 -0.85 0.25 -1.85z"/>
  <path d="M33 39.40 c0 -0.35 0.55 -1.30 1.25 -2.15 0.95 -1.20 1.20 -1.30 1.25 -0.60 0 1.05 -1.40 3.35 -2.05 3.35 -0.25 0 -0.45 -0.30 -0.45 -0.60z"/>
  <path d="M20.50 37.85 c0 -0.50 0.35 -1.45 0.80 -2.10 0.75 -1.15 5.20 -5.05 5.20 -4.55 0 0.20 -4.05 5.30 -5.60 7.05 -0.25 0.25 -0.40 0.10 -0.40 -0.40z"/>
  <path d="M9 36.85 c0 -0.70 0.25 -1.45 0.50 -1.60 0.35 -0.20 0.40 0.15 0.20 1.10 -0.45 1.90 -0.70 2.10 -0.70 0.50z"/>
 </g>
 <g fill="#8da0a7">
  <path d="M6.95 38.65 c0.55 -0.80 1.50 -1.95 2.10 -2.65 0.85 -1.05 1 -1.05 0.70 -0.25 -0.20 0.55 -0.45 1.75 -0.60 2.65 -0.25 1.40 -0.50 1.60 -1.75 1.60 l-1.45 0 1 -1.35z"/>
  <path d="M16.50 38.10 c0 -2.85 0.55 -6.60 1 -6.60 0.20 0 0.50 0.45 0.65 0.95 0.45 1.85 4.95 1.50 7.25 -0.55 1.25 -1.10 1.30 -1.10 0.60 -0.05 -1.95 2.90 -6.30 8.10 -6.85 8.10 -0.80 0.05 -0.85 -1.30 -0.05 -1.55 0.30 -0.10 0.40 -0.50 0.20 -0.80 -0.60 -1 -1.20 -0.65 -1.40 0.75 -0.25 2.20 -1.40 2 -1.40 -0.25z m3.55 -2.70 c-0.20 -0.60 -0.65 -1.20 -0.95 -1.30 -0.80 -0.25 -0.75 1.75 0.05 2.05 1.15 0.50 1.30 0.35 0.90 -0.75z"/>
  <path d="M35 39.50 c0 -0.25 -0.45 -0.50 -1 -0.50 -1 0 -1 -0.05 -0.20 -1.25 0.45 -0.70 1.25 -1.50 1.70 -1.75 0.70 -0.40 0.80 -0.25 0.65 0.70 -0.15 0.65 0 1.35 0.30 1.50 0.90 0.60 0.60 1.80 -0.45 1.80 -0.55 0 -1 -0.20 -1 -0.50z"/>
 </g>
 <g fill="#ada88f">
  <path d="M19.90 34.65 c-0.20 -0.70 0.10 -0.95 1.45 -1 1.35 -0.15 1.65 0.05 1.65 0.85 0 1.35 -2.75 1.45 -3.10 0.15z"/>
  <path d="M13.50 23.25 c0 -0.15 0.10 -0.25 0.25 -0.25 0.15 0 0.25 0.10 0.25 0.25 0 0.15 -0.10 0.25 -0.25 0.25 -0.15 0 -0.25 -0.10 -0.25 -0.25z"/>
  <path d="M18 15 c0 -0.35 0.15 -0.50 0.35 -0.35 0.15 0.20 0.15 0.50 0 0.70 -0.20 0.15 -0.35 0 -0.35 -0.35z"/>
  <path d="M21.15 15.15 c0.20 -0.15 0.50 -0.15 0.70 0 0.15 0.20 0 0.35 -0.35 0.35 -0.35 0 -0.50 -0.15 -0.35 -0.35z"/>
 </g>
 <g fill="#9bbfbb">
  <path d="M16.70 36.15 c0.20 -2.15 0.55 -4.10 0.85 -4.35 0.30 -0.30 0.45 -0.20 0.45 0.35 0 0.50 0.50 1.10 1.15 1.35 0.75 0.30 0.85 0.45 0.30 0.45 -1.55 0.10 -1.50 1.45 0.05 2.40 0.85 0.45 1.50 1.10 1.50 1.40 -0.05 0.75 -1.30 2.25 -1.95 2.25 -0.70 0 -0.70 -0.65 0.05 -1.40 0.50 -0.45 0.45 -0.80 -0.20 -1.40 -0.70 -0.70 -0.80 -0.65 -1.10 1 -0.20 1 -0.60 1.80 -0.90 1.80 -0.35 0 -0.45 -1.20 -0.20 -3.85z"/>
  <path d="M33 39.50 c0 -0.30 0.50 -1.25 1.15 -2.05 l1.10 -1.55 0.85 1.95 c0.55 1.25 0.65 1.95 0.30 2.10 -0.30 0.10 -0.70 -0.15 -0.95 -0.50 -0.30 -0.50 -0.45 -0.55 -0.45 -0.05 0 0.30 -0.45 0.60 -1 0.60 -0.55 0 -1 -0.25 -1 -0.50z"/>
  <path d="M21.50 35.40 c0 -1.50 0.20 -1.90 0.90 -1.90 0.50 0 1.40 -0.35 2 -0.80 1.65 -1.15 1.30 -0.20 -0.90 2.30 l-1.95 2.25 -0.05 -1.85z"/>
 </g>
 <g fill="#95d6df">
  <path d="M7.35 39.30 c-0.30 -0.70 1.55 -3.55 2 -3.15 0.10 0.15 0.05 1.05 -0.10 2.05 -0.35 1.80 -1.40 2.40 -1.90 1.10z"/>
  <path d="M17.05 38.90 c-0.05 -0.80 0.20 -1.40 0.45 -1.40 0.60 0 0.60 0.40 0 1.75 -0.40 0.90 -0.45 0.85 -0.45 -0.35z"/>
  <path d="M18.50 39.50 c0 -0.35 0.15 -0.50 0.35 -0.35 0.15 0.20 0.15 0.50 0 0.70 -0.20 0.15 -0.35 0 -0.35 -0.35z"/>
  <path d="M33 39.55 c0 -0.20 0.45 -1 1.05 -1.75 1 -1.25 1.10 -1.30 1.75 -0.45 1.25 1.70 0.90 2.65 -1.05 2.65 -0.95 0 -1.75 -0.20 -1.75 -0.45z"/>
  <path d="M19.50 36.95 c0 -0.25 0.20 -0.40 0.45 -0.20 0.25 0.15 0.60 0.05 0.80 -0.25 0.15 -0.25 0.05 -0.50 -0.20 -0.50 -0.30 0 -0.55 -0.45 -0.55 -1 0 -0.80 0.35 -1 1.50 -1 1.75 0 2.05 1.35 0.60 2.65 -1.05 0.95 -2.60 1.15 -2.60 0.30z"/>
 </g>
 <g fill="#b1ccd0">
  <path d="M7.35 39.30 c-0.20 -0.50 -0.05 -0.65 0.45 -0.45 0.35 0.15 0.70 0.45 0.70 0.70 0 0.70 -0.85 0.50 -1.15 -0.25z"/>
  <path d="M18.50 39.55 c0 -0.25 0.30 -0.55 0.65 -0.70 0.45 -0.15 0.45 -0.45 -0.05 -1.35 -0.80 -1.30 -0.45 -1.90 0.55 -1.05 0.55 0.45 0.85 0.40 1.35 -0.20 0.55 -0.65 0.50 -0.70 -0.20 -0.45 -0.60 0.20 -0.80 0 -0.80 -0.75 0 -1.20 -1.25 -1.40 -1.70 -0.25 -0.15 0.45 -0.30 1.45 -0.30 2.20 0 0.80 -0.20 1.60 -0.50 1.75 -0.30 0.20 -0.50 -1.05 -0.50 -3.35 0.05 -3.30 0.10 -3.55 0.75 -2.70 1.10 1.45 5.40 1.30 7.05 -0.25 2 -1.85 1.35 -0.80 -1.80 3.10 -1.65 2 -3 3.85 -3 4.05 0 0.20 -0.35 0.40 -0.75 0.40 -0.40 0 -0.75 -0.20 -0.75 -0.45z"/>
 </g>
 <g fill="#b6e5ec">
  <path d="M19.55 38.50 c0.30 -0.80 0.75 -1.50 0.95 -1.50 0.20 0 0.50 -0.35 0.70 -0.75 0.15 -0.40 0 -0.70 -0.35 -0.60 -0.35 0.05 -0.60 -0.20 -0.60 -0.60 0 -0.40 0.75 -0.95 1.75 -1.20 0.95 -0.25 2.05 -0.65 2.40 -0.95 1.30 -1.10 0.50 0.30 -1.45 2.50 -1.15 1.30 -2.30 2.85 -2.60 3.50 -0.75 1.65 -1.40 1.35 -0.80 -0.40z"/>
  <path d="M34.40 39.15 c-1.15 -0.30 -1.15 -0.80 0.10 -1.90 1 -0.90 1 -0.85 1 0.65 0 0.90 -0.05 1.55 -0.10 1.55 -0.10 -0.05 -0.55 -0.15 -1 -0.30z"/>
  <path d="M17 36.50 c0 -1.50 0.25 -3.10 0.50 -3.50 0.60 -0.90 0.70 -0.40 0.50 3 -0.15 3.35 -1 3.75 -1 0.50z"/>
  <path d="M19 36.75 c0 -0.15 0.10 -0.25 0.25 -0.25 0.15 0 0.25 0.10 0.25 0.25 0 0.15 -0.10 0.25 -0.25 0.25 -0.15 0 -0.25 -0.10 -0.25 -0.25z"/>
 </g>
 <g fill="#c8f6f9">
  <path d="M19.50 39.25 c0 -0.15 0.10 -0.25 0.25 -0.25 0.15 0 0.25 0.10 0.25 0.25 0 0.15 -0.10 0.25 -0.25 0.25 -0.15 0 -0.25 -0.10 -0.25 -0.25z"/>
  <path d="M17 38.15 c0 -0.65 0.25 -1.15 0.50 -1.15 0.65 0 0.65 0.55 0 1.50 -0.40 0.60 -0.50 0.55 -0.50 -0.35z"/>
  <path d="M20 38.10 c0 -0.40 0.50 -1.10 1.10 -1.60 0.95 -0.75 1 -1 0.45 -1.70 -0.60 -0.70 -0.50 -0.80 0.65 -0.80 0.70 0 1.30 0.15 1.30 0.40 0 0.70 -3.45 4.35 -3.50 3.70z"/>
  <path d="M33.50 38.30 c0 -0.10 0.40 -0.50 0.90 -0.85 0.75 -0.65 0.80 -0.60 0.15 0.20 -0.65 0.80 -1.05 1.05 -1.05 0.65z"/>
  <path d="M17 34.80 c0 -1.80 0.75 -2 0.90 -0.25 0.05 0.80 -0.10 1.45 -0.40 1.45 -0.25 0 -0.50 -0.55 -0.50 -1.20z"/>
  <path d="M20 35.25 c0 -0.15 0.10 -0.25 0.25 -0.25 0.15 0 0.25 0.10 0.25 0.25 0 0.15 -0.10 0.25 -0.25 0.25 -0.15 0 -0.25 -0.10 -0.25 -0.25z"/>
 </g>
</svg>