<?xml version="1.0" encoding="utf-8"?>
<!DOCTYPE svg PUBLIC "-//W3C//DTD SVG 1.0//EN" "http://www.w3.org/TR/2001/REC-SVG-20010904/DTD/svg10.dtd">
<svg version="1.0" xmlns="http://www.w3.org/2000/svg" width="40px" height="40px" viewBox="0 0 40 40" preserveAspectRatio="xMidYMid meet">
 <g fill="#16100c">
  <path d="M7.20 37.70 c1.10 -1.35 2.05 -2.50 2.10 -2.60 0.05 -0.10 1.25 -0.60 2.65 -1.10 l2.55 -1 0 1.25 c0 1 -0.25 1.25 -1.25 1.25 -0.70 0 -1.25 0.25 -1.25 0.50 0 0.30 -0.65 0.50 -1.50 0.50 -1.35 0 -1.50 0.15 -1.50 1.50 0 0.85 -0.25 1.50 -0.60 1.50 -0.35 0 -1.20 0.15 -1.90 0.35 -1.20 0.30 -1.15 0.20 0.70 -2.15z"/>
  <path d="M37 38.80 c0 -0.75 -0.35 -1.30 -1 -1.45 -0.75 -0.20 -1 -0.70 -1 -1.80 0 -0.85 0.10 -1.55 0.25 -1.55 0.45 0 2 1.65 2.90 3.10 1.15 1.80 1.10 2.90 -0.15 2.90 -0.70 0 -1 -0.35 -1 -1.20z"/>
  <path d="M30.15 34.40 c-0.70 -0.35 -1.15 -1 -1.15 -1.70 0 -1.05 0.15 -1.10 1.25 -0.70 2.35 0.90 4.25 2 4.25 2.50 0 0.65 -2.95 0.60 -4.35 -0.10z"/>
  <path d="M25.50 29.75 c0 -2.25 1 -2.25 2.05 0 l0.80 1.75 -1.40 0 c-1.30 0 -1.45 -0.15 -1.45 -1.75z"/>
  <path d="M14.90 28.10 c-0.80 -0.15 -1.65 -1.55 -1.20 -2 0.50 -0.50 3.80 0.45 3.80 1.10 0 0.75 -1.30 1.20 -2.60 0.90z"/>
  <path d="M24 25.30 c0 -0.95 0.25 -1.90 0.50 -2.05 0.30 -0.15 0.50 -0.75 0.50 -1.25 0 -1.15 2.80 -4.50 3.80 -4.50 0.40 0 0.70 -0.20 0.70 -0.50 0 -0.25 0.40 -0.50 0.90 -0.50 0.85 0 0.95 0.45 1 3.90 0.10 3.20 -0.05 4.10 -0.80 4.70 -1.05 0.95 -3.85 1.90 -5.40 1.90 -1.05 0 -1.20 -0.25 -1.20 -1.70z"/>
  <path d="M9.90 17.15 c-0.30 -1.40 0.10 -2.65 0.90 -2.65 0.45 0 0.70 0.55 0.70 1.75 0 1.85 -1.20 2.50 -1.60 0.90z"/>
  <path d="M24.50 15 c0 -2.70 -0.95 -5.15 -2.30 -5.90 -0.50 -0.25 -1.60 -0.30 -2.65 -0.05 -1 0.25 -3.20 0.45 -4.90 0.45 l-3.15 0 0 1.50 c0 1 -0.25 1.50 -0.75 1.50 -0.40 0 -0.80 -0.15 -0.80 -0.35 -0.05 -0.25 -0.15 -0.85 -0.20 -1.40 -0.10 -0.55 -0.60 -2 -1.20 -3.25 -1 -2.20 -1.35 -5.15 -0.75 -6.70 0.20 -0.45 0.90 -0.80 1.65 -0.80 1.10 0 1.45 0.30 1.80 1.60 0.50 1.65 0.50 1.65 3.75 1.60 6.30 -0.05 10.40 -0.75 11.80 -2 0.95 -0.95 1.80 -1.20 3.70 -1.20 2.45 0 2.45 0 3 2.05 1.40 5.25 -0.25 13.45 -2.70 13.45 -0.65 0 -1.55 0.45 -2.05 1 -0.55 0.60 -1.55 1 -2.60 1 l-1.65 0 0 -2.50z"/>
  <path d="M18 15.25 c0 -1.65 0.10 -1.75 1.75 -1.75 1.65 0 1.75 0.10 1.75 1.75 0 1.65 -0.10 1.75 -1.75 1.75 -1.65 0 -1.75 -0.10 -1.75 -1.75z"/>
 </g>
 <g fill="#241a14">
  <path d="M7.85 37.05 c1.70 -2.45 3.15 -3 3.15 -1.25 0 0.75 -0.30 1.20 -0.75 1.20 -0.40 0 -0.75 0.45 -0.75 1 0 0.80 -0.35 1 -1.55 1 l-1.50 0 1.40 -1.95z"/>
  <path d="M16.90 31.40 c0.90 -0.90 0.75 -3.40 -0.15 -3.40 -0.55 0 -0.75 -0.60 -0.75 -2.50 l0 -2.50 1.75 0 c1.30 0 1.75 0.20 1.80 0.90 0 0.50 0.15 0.60 0.30 0.25 0.10 -0.35 1 -0.65 1.95 -0.65 1.55 0 1.70 0.10 1.70 1.55 0 1.85 -1 2.95 -2.70 2.95 -1.20 0 -1.30 0.20 -1.30 2 0 1.90 -0.05 2 -1.60 2 -1.25 0 -1.45 -0.15 -1 -0.60z"/>
  <path d="M24 26 c0 -5.15 0.05 -5.50 1 -5.50 0.75 0 1 -0.35 1 -1.25 0 -0.90 -0.25 -1.25 -1 -1.25 -0.80 0 -1 -0.35 -1 -1.75 0 -1.55 -0.15 -1.75 -1.25 -1.75 -1.05 0 -1.25 0.25 -1.25 1.50 0 1.40 -0.10 1.50 -1.95 1.50 l-1.95 0 -0.35 -3.30 c-0.25 -2.55 -0.20 -3.45 0.35 -3.75 0.40 -0.30 -0.20 -0.45 -1.70 -0.45 -2.05 0 -2.40 0.15 -2.40 1 0 0.55 0.25 1 0.50 1 0.55 0 0.65 2.10 0.20 3.90 -0.25 0.90 -0.65 1.10 -2.25 1.10 l-1.95 0 -0.05 -2.85 c-0.05 -1.60 -0.05 -3.10 0 -3.30 0.05 -0.20 -0.50 -1.60 -1.20 -3.05 -1.25 -2.70 -1.55 -5.20 -0.75 -7.05 0.30 -0.75 0.45 -0.30 0.50 1.75 0.20 5.20 0.20 5.25 4.75 5.20 2.20 -0.05 5 -0.25 6.20 -0.40 1.20 -0.20 2.75 -0.25 3.40 -0.05 1.80 0.45 3.15 3.05 3.15 6.20 l0 2.75 1.75 -1.70 c1.35 -1.30 1.90 -1.55 2.35 -1.10 0.95 0.95 1.35 0.75 2.15 -1.25 1.25 -3 1.30 -1.60 0.05 2.35 -0.90 2.80 -1.10 4.45 -0.95 6.60 0.30 3.20 -0.50 4.55 -3.05 5.20 -1.40 0.35 -1.40 0.40 -1.15 2.75 l0.30 2.45 -1.70 0 -1.75 0 0 -5.50z m5.55 -1.85 c0.40 -0.45 0.65 -2.20 0.55 -4.05 -0.10 -1.15 -0.10 -1.15 -1.35 -0.25 -0.65 0.50 -1.45 1.60 -1.75 2.40 -0.35 0.85 -0.75 1.85 -1 2.30 -0.40 0.75 -0.20 0.80 1.35 0.45 0.95 -0.25 1.95 -0.60 2.20 -0.85z m-9.55 -8.90 c0 -0.15 -0.10 -0.25 -0.25 -0.25 -0.15 0 -0.25 0.10 -0.25 0.25 0 0.15 0.10 0.25 0.25 0.25 0.15 0 0.25 -0.10 0.25 -0.25z m2.40 -5.55 c-0.60 -0.60 -1.20 -0.70 -2.25 -0.45 l-1.40 0.45 1.75 0.30 c2.70 0.55 2.75 0.55 1.90 -0.30z m-10.05 -0.05 c-0.20 -0.15 -0.50 -0.15 -0.70 0 -0.15 0.20 0 0.35 0.35 0.35 0.35 0 0.50 -0.15 0.35 -0.35z"/>
  <path d="M13.80 27.05 c-0.15 -0.20 -0.95 -2.25 -1.75 -4.50 l-1.50 -4.05 1.10 0 c1.20 0 2.35 2.15 2.35 4.40 0 0.60 0.25 1.10 0.50 1.10 0.30 0 0.50 0.80 0.50 1.75 0 1.65 -0.60 2.30 -1.20 1.30z"/>
  <path d="M10.20 4.15 c-0.70 -0.75 -1.10 -1.65 -0.95 -2.05 0.15 -0.35 0.25 -1 0.25 -1.40 0 -0.40 0.50 -0.70 1.25 -0.70 1 0 1.25 0.25 1.30 1.40 0.10 1.15 0.10 1.20 0.30 0.25 0.20 -0.95 0.55 -1.15 1.95 -1.15 1.50 0 1.70 0.15 1.70 1.25 0 1.35 0.50 1.45 3.25 0.75 l1.50 -0.40 -1.35 -0.05 c-1.05 -0.05 -1.40 -0.30 -1.40 -1.05 0 -0.95 0.35 -1 5.45 -1 6.35 0 7.15 0.55 4.40 3.05 -1.20 1.15 -1.90 1.45 -2.95 1.25 -0.80 -0.15 -2.60 -0.05 -4 0.25 -1.45 0.30 -4.20 0.60 -6.05 0.70 -3.20 0.20 -3.50 0.10 -4.65 -1.10z"/>
  <path d="M32.40 2.50 c-0.60 -1.90 -0.65 -2.50 -0.20 -2.50 0.60 0 1.80 3.05 1.80 4.45 0 1.40 -0.90 0.35 -1.60 -1.95z"/>
 </g>
 <g fill="#342315">
  <path d="M13 37.75 c0 -1.65 -0.20 -2.25 -0.75 -2.25 -0.40 0 -0.75 -0.35 -0.75 -0.75 0 -0.40 0.30 -0.75 0.70 -0.75 0.40 0 1.80 -0.75 3.10 -1.70 3.20 -2.20 3.40 -3.80 0.50 -4.55 -1.90 -0.50 -2.05 -0.70 -3.35 -4.30 -0.75 -2.10 -1.60 -4.25 -1.90 -4.85 -0.30 -0.55 -0.55 -2.70 -0.55 -4.80 0 -3.15 0.15 -3.75 0.90 -3.95 0.80 -0.20 0.80 -0.25 0 -0.30 -1.05 -0.05 -1.20 -1.35 -0.25 -1.70 0.40 -0.15 1.70 0 3 0.30 1.85 0.40 2.80 0.35 4.90 -0.30 3.25 -1.05 4.10 -1.05 5.05 0.05 1.65 1.85 2.35 3.95 2.15 6.30 -0.15 1.25 -0.10 2.30 0.05 2.30 0.15 0 0.95 -0.65 1.70 -1.50 1.65 -1.80 2.40 -1.90 2.95 -0.40 l0.40 1.15 0.35 -1.15 c0.20 -0.60 0.55 -1 0.80 -0.85 0.20 0.15 0.10 1.30 -0.30 2.60 -0.40 1.25 -0.70 2.55 -0.65 2.85 0.15 1.15 -0.05 1.80 -0.55 1.80 -0.25 0 -0.50 -0.60 -0.50 -1.30 0 -1.25 -0.05 -1.20 -1.75 0.80 -0.95 1.15 -1.75 2.50 -1.75 3 0 0.55 -0.20 1.10 -0.50 1.25 -0.25 0.15 -0.50 0.60 -0.50 0.90 0 0.40 0.15 0.35 0.45 -0.10 0.80 -1.25 1.45 -0.10 1.20 1.95 -0.35 2.60 0.45 3.50 4.65 5.35 3.30 1.40 3.75 2.15 2.50 3.80 -0.90 1.20 -4.80 1.20 -4.80 0 0 -0.75 -0.05 -0.75 -0.90 0 -0.50 0.50 -1.40 0.85 -2 0.85 -0.85 0 -1.10 0.30 -1.10 1.25 0 1.10 -0.20 1.25 -1.75 1.25 -1.55 0 -1.75 -0.15 -1.75 -1.25 0 -1 0.25 -1.25 1.25 -1.25 1.05 0 1.25 -0.25 1.25 -1.45 0 -1.40 -0.10 -1.45 -1.85 -1.20 -1.05 0.10 -2.85 0 -4 -0.25 l-2.15 -0.50 0 2.95 0 2.95 -1.75 0 c-1.75 0 -1.75 0 -1.75 -2.25z m9.50 -7 c0 -0.15 -0.10 -0.25 -0.25 -0.25 -0.15 0 -0.25 0.10 -0.25 0.25 0 0.15 0.10 0.25 0.25 0.25 0.15 0 0.25 -0.10 0.25 -0.25z m3.35 -1.85 c-0.15 -0.40 -0.30 -0.25 -0.30 0.30 -0.05 0.55 0.10 0.85 0.25 0.65 0.15 -0.15 0.20 -0.60 0.05 -0.95z m-4.85 -2.65 c0 -0.15 -0.10 -0.25 -0.25 -0.25 -0.15 0 -0.25 0.10 -0.25 0.25 0 0.15 0.10 0.25 0.25 0.25 0.15 0 0.25 -0.10 0.25 -0.25z m1 -1 c0 -0.15 -0.10 -0.25 -0.25 -0.25 -0.15 0 -0.25 0.10 -0.25 0.25 0 0.15 0.10 0.25 0.25 0.25 0.15 0 0.25 -0.10 0.25 -0.25z m-4 -0.50 c0 -0.15 -0.10 -0.25 -0.25 -0.25 -0.15 0 -0.25 0.10 -0.25 0.25 0 0.15 0.10 0.25 0.25 0.25 0.15 0 0.25 -0.10 0.25 -0.25z m-2.50 -1.75 c0 -0.25 -0.20 -0.50 -0.50 -0.50 -0.25 0 -0.50 0.25 -0.50 0.50 0 0.30 0.25 0.50 0.50 0.50 0.30 0 0.50 -0.20 0.50 -0.50z m10.50 -0.75 c0 -0.15 -0.10 -0.25 -0.25 -0.25 -0.15 0 -0.25 0.10 -0.25 0.25 0 0.15 0.10 0.25 0.25 0.25 0.15 0 0.25 -0.10 0.25 -0.25z m-5.10 -3.65 c0.15 -0.85 -0.10 -1.10 -0.85 -1.10 -0.80 0 -1.05 0.30 -1.05 1.30 0 1.65 1.65 1.50 1.90 -0.20z m8.10 -1.15 c0 -0.25 -0.35 -0.45 -0.75 -0.45 -0.45 0 -0.75 0.45 -0.75 1.05 0 0.90 0.10 0.95 0.75 0.45 0.40 -0.35 0.75 -0.80 0.75 -1.05z m-15.50 -0.25 c0 -0.40 -0.20 -0.60 -0.50 -0.45 -0.25 0.15 -0.50 0.65 -0.50 1.05 0 0.40 0.25 0.60 0.50 0.45 0.30 -0.15 0.50 -0.65 0.50 -1.05z m5 0.05 c0 -0.15 -0.10 -0.25 -0.25 -0.25 -0.15 0 -0.25 0.10 -0.25 0.25 0 0.15 0.10 0.25 0.25 0.25 0.15 0 0.25 -0.10 0.25 -0.25z m1.50 -2.30 c0 -0.55 -0.20 -0.85 -0.50 -0.70 -0.25 0.15 -0.50 0.65 -0.50 1.05 0 0.40 0.25 0.70 0.50 0.70 0.30 0 0.50 -0.45 0.50 -1.05z m-7.65 0.20 c-0.20 -0.15 -0.50 -0.15 -0.70 0 -0.15 0.20 0 0.35 0.35 0.35 0.35 0 0.50 -0.15 0.35 -0.35z m0.50 -1.50 c-0.20 -0.15 -0.50 -0.15 -0.70 0 -0.15 0.20 0 0.35 0.35 0.35 0.35 0 0.50 -0.15 0.35 -0.35z m9.65 -1.15 c-0.40 -0.25 -0.95 -0.50 -1.25 -0.50 -0.25 0 -0.15 0.25 0.25 0.50 0.40 0.25 1 0.50 1.25 0.50 0.30 0 0.15 -0.25 -0.25 -0.50z m-3.50 -0.25 c0 -0.15 -0.10 -0.25 -0.25 -0.25 -0.15 0 -0.25 0.10 -0.25 0.25 0 0.15 0.10 0.25 0.25 0.25 0.15 0 0.25 -0.10 0.25 -0.25z m-7 -0.50 c0 -0.15 -0.10 -0.25 -0.25 -0.25 -0.15 0 -0.25 0.10 -0.25 0.25 0 0.15 0.10 0.25 0.25 0.25 0.15 0 0.25 -0.10 0.25 -0.25z m3.70 -0.50 c0.15 -0.45 0 -0.75 -0.45 -0.75 -0.45 0 -0.60 0.30 -0.45 0.75 0.20 0.40 0.35 0.75 0.45 0.75 0.10 0 0.25 -0.35 0.45 -0.75z m4.65 0.40 c-0.20 -0.15 -0.50 -0.15 -0.70 0 -0.15 0.20 0 0.35 0.35 0.35 0.35 0 0.50 -0.15 0.35 -0.35z m1.65 -2.15 c0 -0.65 -1 -0.65 -2 0 -0.60 0.40 -0.45 0.50 0.65 0.50 0.75 0 1.35 -0.20 1.35 -0.50z"/>
  <path d="M14.25 4.65 c-3.85 -0.45 -4.55 -1.05 -3.95 -3.45 0.30 -1.25 0.35 -1.25 6.25 -1.15 4.50 0.05 5.95 0.25 5.95 0.75 0 1.25 1.15 1.35 2.05 0.25 0.85 -1.05 1 -1.05 1.75 -0.35 0.40 0.45 1 0.80 1.25 0.80 0.25 0 -0.05 0.55 -0.65 1.25 -0.65 0.80 -1.25 1.05 -1.60 0.80 -0.35 -0.25 -2.25 -0.05 -4.80 0.50 -2.35 0.50 -4.35 0.90 -4.50 0.85 -0.15 0 -0.90 -0.15 -1.75 -0.25z m0.25 -2.40 c0 -0.15 -0.10 -0.25 -0.25 -0.25 -0.15 0 -0.25 0.10 -0.25 0.25 0 0.15 0.10 0.25 0.25 0.25 0.15 0 0.25 -0.10 0.25 -0.25z"/>
 </g>
 <g fill="#34212a">
  <path d="M13 38.75 c0 -1.45 1.30 -1.75 1.65 -0.35 0.20 0.80 0.25 0.80 0.30 0 0.10 -1.45 1.55 -1.10 1.55 0.35 0 1.10 -0.20 1.25 -1.75 1.25 -1.55 0 -1.75 -0.15 -1.75 -1.25z"/>
  <path d="M31 38 c0 -1.25 0.25 -2 0.65 -2 0.35 0 0.90 -0.45 1.25 -1 0.55 -0.90 0.50 -1 -0.55 -1 -0.65 0 -1.45 -0.30 -1.80 -0.60 -0.55 -0.50 -0.65 -0.50 -0.35 0 0.20 0.35 0.05 0.60 -0.40 0.60 -0.45 0 -0.80 0.35 -0.80 0.75 0 0.45 -0.45 0.75 -1.10 0.75 -1.10 -0.05 -1.10 -0.10 0.30 -1.30 0.95 -0.85 1.25 -1.45 0.95 -1.75 -0.35 -0.35 -0.90 0 -1.70 1.15 -0.65 0.90 -1.30 1.75 -1.45 1.90 -0.20 0.15 -0.45 0.65 -0.65 1.15 -0.15 0.45 -0.65 0.85 -1.10 0.85 -0.40 0 -0.75 0.45 -0.75 1 0 0.90 -0.35 1 -3.25 1 l-3.25 0 0 -2.25 c0 -1.90 -0.15 -2.25 -1 -2.25 -1.15 0 -1.40 -1.90 -0.40 -2.90 0.80 -0.80 1.40 -0.75 1.40 0.15 0 0.50 0.55 0.75 1.75 0.75 1.60 0 1.75 0.10 1.75 1.50 0 1.75 0.85 2.05 1.10 0.40 0.10 -0.90 0.55 -1.20 2.15 -1.40 1.65 -0.20 1.80 -0.30 0.90 -0.60 -0.90 -0.25 -1.15 -0.70 -1.15 -1.85 0 -1.05 0.25 -1.55 0.75 -1.55 0.55 0 0.60 0.25 0.25 1.30 -0.75 1.90 -0.60 2.10 0.50 0.70 0.60 -0.75 0.95 -1.95 0.90 -3 0 -1.10 -0.10 -1.35 -0.25 -0.65 -0.15 0.70 -0.45 1 -0.95 0.80 -1 -0.40 -1 -5.15 0.05 -5.15 0.75 0 0.85 -0.25 0.95 -2.25 0.05 -0.55 0.65 -1.25 1.40 -1.65 0.80 -0.35 1.65 -1.15 2 -1.75 0.30 -0.60 0.85 -1.30 1.15 -1.60 0.35 -0.25 1.10 -1.70 1.70 -3.15 0.95 -2.25 1.10 -3.40 0.90 -6.75 -0.10 -2.25 -0.35 -4.60 -0.60 -5.20 -0.20 -0.70 -0.15 -1.15 0.10 -1.15 0.75 0 1.65 3.55 1.70 6.55 0.05 1.75 -0.45 4.25 -1.45 7.20 -1.20 3.65 -1.45 5.05 -1.25 7.40 0.30 3.30 -0.40 4.55 -2.90 5.10 -1.25 0.30 -1.45 0.55 -1.45 1.95 0 0.95 0.40 2 0.90 2.45 1.05 0.95 6.05 3.35 7.10 3.35 0.75 0.05 2.75 2.25 3.30 3.70 0.25 0.65 -0.05 0.80 -1.75 0.80 -1.50 0 -2.05 0.20 -2.05 0.75 0 0.50 -0.55 0.75 -1.75 0.75 -1.70 0 -1.75 -0.05 -1.75 -2z m-5 -12.50 c0 -0.25 0.65 -0.50 1.50 -0.50 2.15 0 3.10 -1.65 2.70 -4.70 l-0.35 -2.35 -1.65 2.35 c-0.95 1.30 -1.70 2.80 -1.70 3.30 0 0.50 -0.35 1.05 -0.75 1.20 -0.85 0.35 -1 1.20 -0.25 1.20 0.30 0 0.50 -0.20 0.50 -0.50z"/>
  <path d="M9.50 35.70 c0 -0.60 1.70 -1.65 2.65 -1.70 0.50 0 0.85 0.35 0.85 1 0 0.80 -0.35 1 -1.75 1 -0.95 0 -1.75 -0.15 -1.75 -0.30z"/>
  <path d="M13.50 34.25 c0 -0.40 0.25 -0.75 0.50 -0.75 0.30 0 0.50 0.35 0.50 0.75 0 0.40 -0.20 0.75 -0.50 0.75 -0.25 0 -0.50 -0.35 -0.50 -0.75z"/>
  <path d="M17.50 14.80 c0 -1.35 1.20 -2.80 2.25 -2.80 1 0 3.25 1.10 3.25 1.55 0 0.20 -0.20 0.50 -0.50 0.70 -0.25 0.15 -0.35 0.60 -0.15 1 0.15 0.50 -0.10 0.75 -0.85 0.75 -0.85 0 -1 -0.20 -0.75 -1 0.25 -0.75 0.10 -1 -0.50 -1 -0.45 0 -0.95 0.45 -1.10 1 -0.40 1.40 -1.65 1.25 -1.65 -0.20z"/>
  <path d="M10.10 13.75 c-0.05 -1.35 0.15 -1.75 0.80 -1.75 1.25 0 2.55 1 1.75 1.35 -0.35 0.10 -0.65 0.55 -0.65 0.90 0 0.50 -1 1.25 -1.70 1.25 -0.10 0 -0.15 -0.80 -0.20 -1.75z"/>
  <path d="M13.10 14.25 c0.70 -1.50 -0.15 -2.75 -1.85 -2.75 -0.75 0 -1.25 -0.40 -1.45 -1.10 -0.45 -1.85 -0.35 -2.25 0.65 -2.55 1.45 -0.35 2.20 0.40 1.95 1.85 -0.20 1.10 -0.10 1.30 0.90 1.30 1.05 0 1.20 0.25 1.20 1.95 0 1.30 -0.25 2.05 -0.80 2.25 -1.20 0.45 -1.20 0.40 -0.60 -0.95z"/>
  <path d="M16.50 12.40 c0 -0.70 0.35 -1.45 0.80 -1.60 1 -0.40 4.40 -0.40 5.40 0 1.60 0.60 0.70 1.10 -2 1 -2.20 -0.05 -2.90 0.15 -3.50 0.90 -0.65 0.95 -0.70 0.95 -0.70 -0.30z"/>
  <path d="M8.10 6.55 c-0.70 -2 -0.70 -4.40 -0.05 -5.80 0.35 -0.75 0.40 -0.50 0.20 0.90 -0.20 1.05 -0.05 2.70 0.25 3.65 0.30 0.95 0.50 2 0.40 2.30 -0.15 0.35 -0.50 -0.15 -0.80 -1.05z"/>
 </g>
 <g fill="#472b17">
  <path d="M10 38.80 c0 -2.45 0.65 -4.25 1.55 -4.55 0.55 -0.15 1.40 -0.40 1.95 -0.55 0.95 -0.25 1 -0.05 1 3 l0 3.30 -2.25 0 c-2.05 0 -2.25 -0.10 -2.25 -1.20z"/>
  <path d="M15.05 36.90 c0.05 -5 0.85 -5.90 0.90 -1 0.05 2.40 -0.15 4.10 -0.45 4.10 -0.30 0 -0.50 -1.35 -0.45 -3.10z"/>
  <path d="M22.50 38.20 c0 -1.35 0.25 -1.85 1 -2.05 0.60 -0.15 1 -0.70 1 -1.25 0 -0.75 -0.20 -0.90 -0.85 -0.65 -3.05 1.25 -5.75 0.80 -6.60 -1.05 -0.55 -1.25 -0.40 -2.20 0.40 -2.20 0.25 0 0.55 0.50 0.70 1.10 0.20 0.60 0.45 0.95 0.60 0.80 0.20 -0.15 0.10 -0.75 -0.20 -1.30 -0.60 -1.10 -0.75 -3.60 -0.25 -3.60 0.20 0 0.60 0.35 0.95 0.85 0.55 0.75 0.70 0.75 1.90 -0.15 0.75 -0.50 1.70 -1.90 2.15 -3.05 1.10 -2.90 2.05 -2.75 2.10 0.25 0.05 2.90 -1.25 6.60 -2.35 6.60 -0.45 0 -1.15 0.25 -1.55 0.50 -0.55 0.40 -0.35 0.45 0.75 0.20 2.40 -0.50 3.75 -2.35 3.75 -5.25 0 -1.35 0.15 -2.45 0.40 -2.45 0.65 0 0.55 4.55 -0.20 6.40 l-0.75 1.85 1.30 -1.45 c1.85 -2.05 2.05 -1.30 0.45 1.55 l-1.40 2.40 1.80 -1.50 c1 -0.80 1.75 -1.80 1.65 -2.10 -0.30 -0.85 -0.10 -0.80 2.15 0.20 1.40 0.60 1.65 0.85 0.95 1 -0.50 0.15 -1.30 -0.05 -1.75 -0.40 -0.70 -0.55 -0.75 -0.55 -0.20 0.05 0.30 0.40 0.60 1.10 0.60 1.60 0 1.05 1 1.20 1.95 0.30 0.50 -0.55 0.55 -0.50 0.35 0.10 -0.10 0.40 -0.35 1.35 -0.50 2.15 -0.20 0.90 -0.65 1.35 -1.30 1.35 -0.55 0 -1 0.25 -1 0.50 0 0.30 -0.55 0.50 -1.25 0.50 -0.80 0 -1.25 -0.30 -1.25 -0.75 0 -0.40 0.25 -0.75 0.50 -0.75 0.30 0 0.50 -0.30 0.50 -0.70 0 -1.15 -2.40 -0.35 -2.60 0.85 -0.15 1.25 -1.85 1.75 -2.45 0.75 -0.30 -0.50 -0.45 -0.50 -0.45 0 0 0.30 -0.20 0.60 -0.50 0.60 -0.25 0 -0.50 -0.80 -0.50 -1.80z"/>
  <path d="M14.10 27.40 c-0.95 -0.95 -0.70 -1.85 0.35 -1.55 1.50 0.40 4.40 -0.75 5.25 -2.10 1.20 -1.80 1 -2.25 -0.95 -2.25 -0.95 0 -1.75 0.25 -1.75 0.50 0 0.30 0.55 0.50 1.25 0.50 1.80 0 1.55 0.85 -0.65 1.95 -2.60 1.30 -4.45 0.90 -5.05 -1.15 -0.25 -0.85 -0.80 -2.35 -1.25 -3.35 -0.40 -1 -0.60 -1.95 -0.45 -2.15 0.20 -0.15 0.05 -0.30 -0.25 -0.30 -0.90 0 -0.75 -3 0.15 -3.35 1.10 -0.40 1.65 0.30 0.75 0.85 -0.65 0.40 -0.60 0.50 0.15 0.50 0.45 0 1.10 -0.55 1.45 -1.25 0.70 -1.55 -0.15 -2.75 -1.95 -2.75 -1 0 -1.20 -0.20 -1 -1 0.15 -0.55 0.05 -1.15 -0.20 -1.30 -0.25 -0.15 -0.30 -0.50 -0.15 -0.80 0.20 -0.30 0.50 -0.25 0.75 0.15 0.35 0.55 0.45 0.50 0.45 -0.15 0 -0.75 0.20 -0.80 1.35 -0.35 2 0.75 4.15 0.70 6.85 -0.25 2.90 -1 4.05 -0.70 4.70 1.10 0.70 2 -0.35 3.35 -2.20 2.90 -2.15 -0.55 -4.15 0.15 -4.95 1.70 -0.90 1.70 -0.90 2 -0.25 2 0.30 0 0.75 -0.55 1 -1.20 0.70 -1.90 2.20 -2.50 3.85 -1.60 l1.40 0.75 -1.85 0.05 c-1.70 0 -1.90 0.15 -1.90 1.25 0 1.45 0.85 1.65 1.80 0.40 1.05 -1.45 1.85 -0.10 1.75 2.90 -0.10 3.25 -2 7.50 -3.95 8.90 -1.65 1.15 -3.60 1.35 -4.50 0.45z m2.30 -7.25 c0.60 -0.15 1.10 -0.45 1.10 -0.65 0 -0.25 -0.50 -0.30 -1.05 -0.15 -1 0.30 -1.05 0.15 -0.80 -1.15 0.30 -1.40 0.30 -1.40 -0.40 0.20 -0.40 0.85 -1 1.60 -1.25 1.60 -0.30 0 -0.50 0.25 -0.50 0.55 0 0.35 0.35 0.40 0.90 0.20 0.45 -0.20 1.35 -0.50 2 -0.60z m0.10 -3.90 c0 -0.15 -0.10 -0.25 -0.25 -0.25 -0.15 0 -0.25 0.10 -0.25 0.25 0 0.15 0.10 0.25 0.25 0.25 0.15 0 0.25 -0.10 0.25 -0.25z m0.50 -5.55 c0 -0.10 -0.55 -0.20 -1.25 -0.20 -0.70 0 -1.25 0.20 -1.25 0.45 0 0.20 0.55 0.30 1.25 0.15 0.70 -0.10 1.25 -0.30 1.25 -0.40z m4.50 -1.10 c0 -0.25 -0.65 -0.35 -1.50 -0.20 -0.80 0.10 -1.50 0.30 -1.50 0.40 0 0.10 0.70 0.20 1.50 0.20 0.85 0 1.50 -0.20 1.50 -0.40z"/>
  <path d="M26 22.85 c0 -0.25 0.25 -0.90 0.60 -1.50 0.50 -1.05 0.50 -1.05 -0.35 -0.35 -0.80 0.65 -0.90 0.65 -0.65 0 0.10 -0.40 0.85 -1.05 1.60 -1.40 0.75 -0.40 1.60 -1.25 1.90 -1.90 0.30 -0.65 0.85 -1.20 1.25 -1.20 0.35 0 0.65 -0.35 0.65 -0.75 0 -0.40 0.20 -0.75 0.40 -0.75 0.20 0 0.15 1.30 -0.15 2.90 -0.45 2.70 -0.50 2.75 -0.65 0.95 l-0.15 -1.90 -1.20 1.65 c-0.70 0.90 -1.70 2.35 -2.25 3.15 -0.55 0.85 -1 1.30 -1 1.10z"/>
  <path d="M26 18.50 c0 -0.25 0.25 -0.50 0.55 -0.50 0.25 0 0.35 0.25 0.20 0.50 -0.15 0.30 -0.40 0.50 -0.55 0.50 -0.10 0 -0.20 -0.20 -0.20 -0.50z"/>
  <path d="M26.95 16.10 c0.25 -0.45 0.95 -1.30 1.60 -1.85 0.95 -0.80 0.90 -0.65 -0.25 0.90 -1.50 1.95 -2.15 2.45 -1.35 0.95z"/>
 </g>
 <g fill="#5f2419">
  <path d="M10 37.70 c0 -0.95 0.20 -1.70 0.45 -1.70 0.25 0 0.55 -0.45 0.70 -1 0.15 -0.55 0.65 -1 1.15 -1 0.70 0 0.75 0.15 0.30 0.60 -0.35 0.35 -0.60 0.95 -0.60 1.35 0 0.60 0.15 0.60 0.60 0.15 1 -1 1.20 -0.70 1 1.35 -0.20 1.85 -0.30 1.95 -1.90 1.95 -1.60 0 -1.70 -0.10 -1.70 -1.70z m2 0.55 c0 -0.15 -0.10 -0.25 -0.25 -0.25 -0.15 0 -0.25 0.10 -0.25 0.25 0 0.15 0.10 0.25 0.25 0.25 0.15 0 0.25 -0.10 0.25 -0.25z"/>
  <path d="M30 36.20 c0 -1.05 0.20 -1.65 0.50 -1.45 0.30 0.15 0.50 0.65 0.50 1.10 0 0.70 0.15 0.70 1.25 -0.05 1.25 -0.80 1.25 -0.80 1.25 0.70 0 1.40 -0.15 1.50 -1.75 1.50 -1.65 0 -1.75 -0.10 -1.75 -1.80z m1 1.05 c0 -0.15 -0.10 -0.25 -0.25 -0.25 -0.15 0 -0.25 0.10 -0.25 0.25 0 0.15 0.10 0.25 0.25 0.25 0.15 0 0.25 -0.10 0.25 -0.25z"/>
  <path d="M28.65 34.15 c0.20 -0.15 0.50 -0.15 0.70 0 0.15 0.20 0 0.35 -0.35 0.35 -0.35 0 -0.50 -0.15 -0.35 -0.35z"/>
  <path d="M30.20 32.75 c-0.90 -0.65 -0.90 -0.70 0.20 -0.40 0.60 0.15 1.25 0.45 1.40 0.70 0.40 0.70 -0.50 0.55 -1.60 -0.30z"/>
  <path d="M13.50 26.15 c0 -0.25 1.15 -0.45 2.50 -0.50 1.40 -0.05 2.50 0.15 2.50 0.40 0 0.25 -1.10 0.45 -2.50 0.45 -1.35 0 -2.50 -0.15 -2.50 -0.35z"/>
  <path d="M12.90 23.90 c-0.30 -1.70 0.10 -2.90 0.90 -2.90 0.40 0 1.10 -0.25 1.65 -0.55 0.65 -0.45 1.15 -0.45 1.85 -0.05 0.90 0.55 0.90 0.55 -0.15 0.60 -0.80 0 -1.05 0.20 -0.85 0.75 0.20 0.40 0.85 0.75 1.45 0.75 0.65 0 1.30 0.20 1.50 0.50 0.40 0.70 -2.45 2 -4.40 2 -1.40 0 -1.75 -0.20 -1.95 -1.10z m1.60 -1.65 c0 -0.15 -0.10 -0.25 -0.25 -0.25 -0.15 0 -0.25 0.10 -0.25 0.25 0 0.15 0.10 0.25 0.25 0.25 0.15 0 0.25 -0.10 0.25 -0.25z"/>
  <path d="M11.80 20.85 c-0.35 -1.30 -0.20 -1.45 1.30 -1.25 l1.15 0.15 -1.10 1.05 -1.05 1.10 -0.30 -1.05z"/>
  <path d="M19.40 21.15 c0.35 -0.15 0.80 -0.10 0.95 0.05 0.20 0.15 -0.10 0.30 -0.65 0.25 -0.55 0 -0.70 -0.15 -0.30 -0.30z"/>
 </g>
 <g fill="#402b43">
  <path d="M20.50 37.20 c0 -1.35 0.25 -1.85 1 -2.05 0.55 -0.15 1 -0.70 1 -1.20 0 -0.55 0.30 -0.95 0.70 -0.95 1.40 0 2.80 -2.50 2.80 -5 0 -2.35 0.05 -2.40 1.75 -2.70 2.20 -0.45 2.75 -1.50 2.75 -5.15 0 -2.05 0.45 -4.25 1.55 -7.15 1.55 -4.30 1.65 -6.70 0.45 -11.35 -0.25 -0.90 -0.25 -1.65 0 -1.65 0.60 0 1.50 4.15 1.50 6.95 0 1.55 -0.50 3.85 -1.30 5.90 -1 2.60 -1.35 4.40 -1.40 7.50 -0.05 4.50 -0.50 5.25 -3.45 5.95 -1.15 0.25 -1.40 0.50 -1.15 1.35 0.15 0.60 0.30 1.35 0.30 1.70 0 0.30 0.35 0.95 0.80 1.40 0.75 0.70 0.70 0.95 -0.50 2.75 -0.70 1.10 -1.30 2.20 -1.30 2.50 0 0.25 -0.30 0.50 -0.70 0.50 -0.40 0 -0.85 0.55 -1 1.25 -0.25 1.05 -0.60 1.25 -2.05 1.25 -1.65 0 -1.75 -0.10 -1.75 -1.80z m1.50 0.55 c0 -0.15 -0.10 -0.25 -0.25 -0.25 -0.15 0 -0.25 0.10 -0.25 0.25 0 0.15 0.10 0.25 0.25 0.25 0.15 0 0.25 -0.10 0.25 -0.25z m1.75 -2.25 c0.15 -0.25 0.20 -0.50 0.05 -0.50 -0.15 0 -0.40 0.25 -0.55 0.50 -0.15 0.30 -0.20 0.50 -0.05 0.50 0.15 0 0.40 -0.20 0.55 -0.50z"/>
  <path d="M32 37.50 c0.05 -1.45 1.55 -3.50 2.65 -3.50 0.45 0 1.50 0.85 2.35 1.90 l1.55 1.85 -1.55 0.15 c-0.80 0.10 -1.50 0.40 -1.50 0.65 0 0.25 -0.80 0.45 -1.75 0.35 -1.50 -0.10 -1.75 -0.25 -1.75 -1.40z m2.50 -0.75 c0 -0.15 -0.10 -0.25 -0.25 -0.25 -0.15 0 -0.25 0.10 -0.25 0.25 0 0.15 0.10 0.25 0.25 0.25 0.15 0 0.25 -0.10 0.25 -0.25z"/>
  <path d="M9 36 c0 -0.50 2.95 -2.20 3.30 -1.90 0.10 0.10 0.05 0.70 -0.15 1.30 -0.20 0.80 -0.65 1.10 -1.70 1.10 -0.80 0 -1.45 -0.20 -1.45 -0.50z"/>
  <path d="M31.20 33.25 c-0.50 -0.40 -0.70 -0.75 -0.40 -0.75 0.25 0 0.95 0.35 1.50 0.75 0.50 0.40 0.70 0.75 0.40 0.75 -0.25 0 -0.95 -0.35 -1.50 -0.75z"/>
  <path d="M15.50 32.75 c0 -0.65 1.90 -2.05 2.25 -1.65 0.05 0.10 0.30 0.65 0.45 1.30 0.35 0.95 0.20 1.10 -1.15 1.10 -1.05 0 -1.55 -0.25 -1.55 -0.75z"/>
  <path d="M24.65 26.75 c0 -1.10 0.10 -1.50 0.20 -0.85 0.10 0.60 0.10 1.50 0 2 -0.15 0.45 -0.25 -0.05 -0.20 -1.15z"/>
  <path d="M26 22.90 c0 -0.90 1.15 -2.75 2.15 -3.35 l1.10 -0.70 -1.05 1.20 c-0.60 0.65 -1.30 1.65 -1.60 2.20 -0.30 0.55 -0.60 0.85 -0.60 0.65z"/>
  <path d="M17.50 14.50 c0 -1.45 2.15 -2.70 3.45 -2 1.55 0.80 1.25 1.50 -0.45 1.20 -1.30 -0.30 -1.50 -0.20 -1.50 0.75 0 0.60 -0.30 1.05 -0.75 1.05 -0.40 0 -0.75 -0.45 -0.75 -1z"/>
  <path d="M10.25 14.50 c0.15 -0.25 0.65 -0.50 1.05 -0.50 0.40 0 0.70 0.25 0.70 0.50 0 0.30 -0.45 0.50 -1.05 0.50 -0.55 0 -0.85 -0.20 -0.70 -0.50z"/>
  <path d="M10.15 12.85 c0.25 -0.75 1.85 -1.10 1.85 -0.45 0 0.25 -0.45 0.60 -1.05 0.75 -0.65 0.15 -0.95 0.05 -0.80 -0.30z"/>
  <path d="M16.50 12.05 c0 -0.30 0.35 -0.55 0.75 -0.55 0.40 0 0.75 -0.20 0.75 -0.50 0 -0.25 0.90 -0.50 2 -0.50 2.55 0 2.60 0.80 0.15 1.10 -1.05 0.15 -2.30 0.40 -2.75 0.60 -0.55 0.25 -0.90 0.20 -0.90 -0.15z"/>
  <path d="M10.15 10.25 c0.20 -0.40 0.10 -0.85 -0.20 -1 -0.25 -0.20 -0.30 -0.55 -0.15 -0.85 0.20 -0.30 0.50 -0.25 0.75 0.15 0.30 0.50 0.45 0.55 0.45 0.10 0 -0.35 0.25 -0.65 0.50 -0.65 0.30 0 0.50 0.70 0.50 1.50 0 1.20 -0.20 1.50 -1.05 1.50 -0.70 0 -0.95 -0.25 -0.80 -0.75z"/>
  <path d="M7.95 5.65 c-0.25 -0.75 -0.45 -1.90 -0.35 -2.60 0.10 -0.90 0.30 -0.55 0.70 1.35 0.60 2.85 0.45 3.35 -0.35 1.25z"/>
 </g>
 <g fill="#523825">
  <path d="M10.20 37.70 c0.30 -2.35 1 -3.70 1.85 -3.70 0.25 0 0.30 0.60 0.15 1.40 -0.35 1.25 -0.30 1.30 0.50 0.65 1.40 -1.15 1.95 0 1.05 2.10 -0.80 1.90 -1.45 2.35 -1.90 1.25 -0.20 -0.50 -0.30 -0.50 -0.30 0 -0.05 0.30 -0.40 0.60 -0.85 0.60 -0.70 0 -0.80 -0.40 -0.50 -2.30z m1.65 -0.05 c-0.20 -0.15 -0.35 0 -0.35 0.35 0 0.35 0.15 0.50 0.35 0.35 0.15 -0.20 0.15 -0.50 0 -0.70z"/>
  <path d="M22.50 38.40 c0 -1.20 0.50 -2 2.35 -3.75 2.80 -2.50 3.65 -2.80 2.15 -0.60 -1.35 1.85 -0.90 2.50 0.70 1 1 -0.95 1.40 -1.05 2.25 -0.60 0.60 0.35 1.05 0.90 1.05 1.35 0 0.40 0.30 0.70 0.65 0.65 1.55 -0.20 2.40 0.10 2.05 0.70 -0.25 0.40 -0.10 0.40 0.45 -0.10 0.75 -0.60 0.85 -0.50 0.85 1.10 l0 1.80 -5.35 0 c-3.60 0 -5.50 -0.20 -5.75 -0.60 -0.30 -0.45 -0.40 -0.45 -0.40 0.05 0 0.30 -0.20 0.60 -0.50 0.60 -0.25 0 -0.50 -0.70 -0.50 -1.60z m10.50 0.35 c0 -0.15 -0.10 -0.25 -0.25 -0.25 -0.15 0 -0.25 0.10 -0.25 0.25 0 0.15 0.10 0.25 0.25 0.25 0.15 0 0.25 -0.10 0.25 -0.25z m-8.25 -0.75 c0.15 -0.25 0.20 -0.50 0.05 -0.50 -0.15 0 -0.40 0.25 -0.55 0.50 -0.15 0.30 -0.20 0.50 -0.05 0.50 0.15 0 0.40 -0.20 0.55 -0.50z m6.25 -0.75 c0 -0.15 -0.10 -0.25 -0.25 -0.25 -0.15 0 -0.25 0.10 -0.25 0.25 0 0.15 0.10 0.25 0.25 0.25 0.15 0 0.25 -0.10 0.25 -0.25z"/>
  <path d="M15 36.85 c0 -1.80 0.20 -2.80 0.50 -2.60 0.65 0.40 0.65 3.75 0 4.75 -0.35 0.55 -0.50 -0.10 -0.50 -2.15z"/>
  <path d="M17.30 32.90 c-0.40 -1.60 -0.35 -1.90 0.20 -1.90 0.30 0 0.50 0.35 0.50 0.75 0 1.05 2.30 1.85 4.30 1.45 2.15 -0.40 3.30 -1.75 3.75 -4.35 l0.30 -2.10 0.10 2 c0 1.20 -0.35 2.65 -0.95 3.65 -0.95 1.55 -1.10 1.60 -4.45 1.60 -3.15 0 -3.45 -0.10 -3.75 -1.10z"/>
  <path d="M31.20 33.20 c-0.90 -0.70 -0.90 -0.75 0.20 -0.20 0.60 0.30 1.10 0.65 1.10 0.75 0 0.40 -0.25 0.30 -1.30 -0.55z"/>
  <path d="M18.90 31.60 c-0.20 -0.70 0.30 -1.30 1.95 -2.30 1.20 -0.80 2.55 -2.10 3.05 -3 l0.85 -1.55 0.15 2.15 c0.10 1.45 -0.15 2.70 -0.75 3.75 -0.80 1.35 -1.30 1.65 -3 1.75 -1.65 0.10 -2.05 -0.05 -2.25 -0.80z"/>
  <path d="M18.05 29.20 c0 -0.55 0.15 -0.70 0.30 -0.30 0.15 0.35 0.10 0.80 -0.05 0.95 -0.15 0.20 -0.30 -0.10 -0.25 -0.65z"/>
  <path d="M14 27.05 c-0.25 -0.55 -0.50 -1.05 -0.50 -1.15 0 -0.40 5 -0.30 5 0.10 0 0.85 -1.60 2 -2.75 2 -0.70 0 -1.45 -0.40 -1.75 -0.95z"/>
  <path d="M19 25.05 c0 -0.25 0.25 -0.65 0.50 -0.80 0.30 -0.15 0.50 -0.10 0.50 0.20 0 0.25 -0.20 0.65 -0.50 0.80 -0.25 0.15 -0.50 0.10 -0.50 -0.20z"/>
  <path d="M13.30 23.75 c-0.80 -1.20 -0.80 -1.25 0.20 -1.25 0.65 0 1 0.35 1 0.95 0 0.70 0.30 0.85 1.40 0.70 1.05 -0.20 1.20 -0.10 0.60 0.30 -1.25 0.85 -2.35 0.65 -3.20 -0.70z"/>
  <path d="M17.50 23.30 c0 -0.45 0.25 -0.80 0.50 -0.80 0.30 0 0.50 0.20 0.50 0.45 0 0.30 -0.20 0.65 -0.50 0.80 -0.25 0.15 -0.50 -0.05 -0.50 -0.45z"/>
  <path d="M11.10 19.25 c-1.30 -2.95 -1.40 -4.65 -0.35 -5.10 1.05 -0.40 1.65 0.30 0.75 0.85 -0.40 0.25 -0.60 0.60 -0.40 0.75 0.15 0.15 0.90 -0.25 1.60 -0.95 1.20 -1.10 1.30 -1.35 0.70 -2.30 -0.35 -0.60 -1.25 -1.20 -2 -1.35 -0.80 -0.15 -1.40 -0.35 -1.40 -0.50 0 -0.20 1 -2.25 1.25 -2.55 0.05 -0.10 1.15 0.10 2.45 0.45 1.90 0.45 2.60 0.45 4.30 -0.25 2.40 -0.95 4.95 -1.05 5.25 -0.20 0.15 0.35 0.05 1.30 -0.15 2.15 -0.40 1.35 -0.60 1.50 -2.20 1.35 -1.05 -0.10 -2.55 0.20 -3.65 0.75 -1.75 0.90 -1.85 1.10 -2.05 3.85 -0.15 2.40 -0.45 3.10 -1.60 4.20 l-1.40 1.35 -1.10 -2.50z m2.35 -2.50 c0 -0.25 -0.20 -0.15 -0.45 0.25 -0.25 0.40 -0.45 1.10 -0.45 1.50 0 0.80 0.85 -0.80 0.90 -1.75z m2.05 -6 c0 -0.15 -0.10 -0.25 -0.25 -0.25 -0.15 0 -0.25 0.10 -0.25 0.25 0 0.15 0.10 0.25 0.25 0.25 0.15 0 0.25 -0.10 0.25 -0.25z"/>
  <path d="M17 21.05 c-1.40 -0.20 -2 -0.45 -1.60 -0.70 0.35 -0.25 1 -0.30 1.50 -0.15 0.55 0.20 1.10 -0.10 1.50 -0.75 0.60 -0.95 0.55 -1 -1.15 -0.65 -1.15 0.20 -1.75 0.10 -1.75 -0.25 0 -0.30 0.20 -0.55 0.45 -0.55 0.25 0 0.75 -1 1.10 -2.20 0.40 -1.45 0.85 -2.10 1.30 -1.95 0.35 0.15 0.65 0.65 0.65 1.10 0 0.50 0.70 1.10 1.75 1.50 1.90 0.65 2.20 1.25 0.95 1.75 -0.40 0.15 -0.60 0.50 -0.45 0.80 0.55 0.85 -0.25 2.50 -1.15 2.40 -0.45 0 -1.85 -0.20 -3.10 -0.35z"/>
  <path d="M27.05 20.35 c0.10 -0.05 0.65 -0.45 1.20 -0.85 0.95 -0.70 0.95 -0.70 0.30 0.15 -0.35 0.45 -0.90 0.85 -1.20 0.85 -0.30 0 -0.40 -0.05 -0.30 -0.15z"/>
  <path d="M30.50 18.45 c0 -0.95 0.20 -2.05 0.45 -2.40 0.30 -0.50 0.40 0.05 0.20 1.50 -0.35 2.75 -0.65 3.15 -0.65 0.90z"/>
  <path d="M29 18.25 c0 -0.15 0.10 -0.25 0.25 -0.25 0.15 0 0.25 0.10 0.25 0.25 0 0.15 -0.10 0.25 -0.25 0.25 -0.15 0 -0.25 -0.10 -0.25 -0.25z"/>
  <path d="M29.50 17.25 c0 -0.15 0.10 -0.25 0.25 -0.25 0.15 0 0.25 0.10 0.25 0.25 0 0.15 -0.10 0.25 -0.25 0.25 -0.15 0 -0.25 -0.10 -0.25 -0.25z"/>
  <path d="M20.60 15.40 c0.25 -0.75 1.40 -0.90 1.45 -0.15 0 0.30 -0.35 0.60 -0.85 0.65 -0.50 0.15 -0.75 -0.05 -0.60 -0.50z"/>
  <path d="M27.75 15 c0.50 -0.55 1 -1 1.15 -1 0.15 0 -0.15 0.45 -0.65 1 -0.50 0.55 -1 1 -1.15 1 -0.15 0 0.15 -0.45 0.65 -1z"/>
  <path d="M20.80 13.55 c-0.15 -0.25 -0.75 -0.35 -1.30 -0.20 -0.55 0.15 -1 0 -1 -0.30 0 -0.60 1.90 -0.75 3.20 -0.25 0.45 0.15 0.80 0.50 0.80 0.75 0 0.60 -1.35 0.60 -1.70 0z"/>
  <path d="M10.50 12.50 c0 -0.25 0.30 -0.50 0.70 -0.50 0.40 0 0.90 0.25 1.05 0.50 0.15 0.30 -0.15 0.50 -0.70 0.50 -0.60 0 -1.05 -0.20 -1.05 -0.50z"/>
 </g>
 <g fill="#842619">
  <path d="M13.75 26 c-0.15 -0.30 0.05 -0.35 0.45 -0.20 0.90 0.35 1.05 0.70 0.35 0.70 -0.30 0 -0.65 -0.20 -0.80 -0.50z"/>
  <path d="M13.50 24.05 c-0.75 -1.50 -0.70 -1.55 2.25 -1.55 3.05 0 3.50 0.60 1.25 1.75 -1.95 1 -2.85 0.95 -3.50 -0.20z"/>
 </g>
 <g fill="#4d3d3b">
  <path d="M22 39.25 c0 -0.40 0.45 -0.75 1 -0.75 0.65 0 0.90 0.25 0.70 0.75 -0.20 0.40 -0.60 0.75 -1 0.75 -0.40 0 -0.70 -0.35 -0.70 -0.75z"/>
  <path d="M37 38.85 c0 -1 -0.20 -1.10 -1.95 -0.95 -1.70 0.15 -1.95 0.05 -2.15 -1.05 -0.25 -1.40 0.60 -2.85 1.70 -2.85 0.75 0 2.40 1.50 2.40 2.15 0 0.20 0.45 0.80 1 1.35 0.55 0.55 1 1.35 1 1.75 0 0.40 -0.45 0.75 -1 0.75 -0.70 0 -1 -0.35 -1 -1.15z m-2.75 -1.85 c0.15 -0.25 0.20 -0.50 0.05 -0.50 -0.15 0 -0.40 0.25 -0.55 0.50 -0.15 0.30 -0.20 0.50 -0.05 0.50 0.15 0 0.40 -0.20 0.55 -0.50z m1 -1.50 c0.15 -0.25 0.20 -0.50 0.05 -0.50 -0.15 0 -0.40 0.25 -0.55 0.50 -0.15 0.30 -0.20 0.50 -0.05 0.50 0.15 0 0.40 -0.20 0.55 -0.50z"/>
  <path d="M8 37 c1.55 -2.20 2 -2.25 2 -0.30 0 1.65 -0.10 1.80 -1.55 1.80 l-1.50 0 1.05 -1.50z"/>
  <path d="M17.50 35.05 l0 -1.95 3.05 0.05 c2.75 0.10 3.15 -0.05 4.25 -1.30 0.65 -0.80 1.20 -1.95 1.20 -2.65 0 -0.70 0.20 -1.10 0.50 -0.95 0.30 0.15 0.50 0.70 0.50 1.20 0 0.50 0.30 1.20 0.70 1.55 1.25 1 0.35 2.10 -1.50 1.90 -1.35 -0.15 -1.70 0 -1.80 0.85 -0.10 0.75 -0.60 1.05 -1.75 1.15 -1.25 0.10 -1.65 0.40 -1.65 1.15 0 0.75 -0.35 0.95 -1.75 0.95 -1.70 0 -1.75 -0.05 -1.75 -1.95z m1.35 -0.40 c-0.20 -0.15 -0.35 0 -0.35 0.35 0 0.35 0.15 0.50 0.35 0.35 0.15 -0.20 0.15 -0.50 0 -0.70z m7.65 -2.40 c0 -0.15 -0.10 -0.25 -0.25 -0.25 -0.15 0 -0.25 0.10 -0.25 0.25 0 0.15 0.10 0.25 0.25 0.25 0.15 0 0.25 -0.10 0.25 -0.25z"/>
  <path d="M31.20 33.25 c-0.90 -0.65 -0.90 -0.70 0.20 -0.40 0.60 0.15 1.25 0.45 1.40 0.70 0.40 0.70 -0.50 0.55 -1.60 -0.30z"/>
  <path d="M14.50 23.25 c0 -0.55 0.55 -0.75 2.15 -0.70 l2.10 0.05 -1.50 0.65 c-1.95 0.90 -2.75 0.90 -2.75 0z"/>
  <path d="M27 20.30 c0 -0.10 0.35 -0.35 0.80 -0.50 0.40 -0.15 0.60 -0.10 0.45 0.20 -0.30 0.50 -1.25 0.70 -1.25 0.30z"/>
  <path d="M17.60 15.50 c-0.10 -1.60 0 -1.90 0.65 -1.70 0.40 0.20 0.75 0.85 0.75 1.50 0 0.75 0.30 1.20 0.75 1.20 0.40 0 0.75 0.25 0.75 0.50 0 0.30 -0.60 0.50 -1.35 0.50 -1.25 0 -1.40 -0.20 -1.55 -2z"/>
  <path d="M10 16.10 c0 -0.25 0.70 -0.35 1.50 -0.20 1.25 0.20 1.50 0.05 1.50 -0.85 0 -0.95 0.10 -1 1 -0.45 1.15 0.75 1.35 1.65 0.25 1.25 -0.40 -0.20 -0.85 -0.10 -1 0.15 -0.35 0.60 -3.25 0.65 -3.25 0.10z"/>
  <path d="M20.60 15.40 c0.30 -0.90 1.40 -1.05 1.40 -0.20 0 0.45 -0.35 0.80 -0.80 0.80 -0.45 0 -0.70 -0.25 -0.60 -0.60z"/>
  <path d="M10.50 14.50 c0 -0.25 0.35 -0.50 0.75 -0.50 0.40 0 0.75 0.25 0.75 0.50 0 0.30 -0.35 0.50 -0.75 0.50 -0.40 0 -0.75 -0.20 -0.75 -0.50z"/>
  <path d="M19.90 13.65 c-0.80 -0.10 -1.40 -0.45 -1.40 -0.75 0 -0.30 0.60 -0.40 1.55 -0.20 0.85 0.15 1.75 0.30 2 0.30 0.25 0 0.45 0.25 0.45 0.50 0 0.50 -0.15 0.50 -2.60 0.15z"/>
  <path d="M10.25 12.50 c0.15 -0.25 0.60 -0.50 1 -0.50 0.40 0 0.85 0.25 1 0.50 0.20 0.30 -0.25 0.50 -1 0.50 -0.75 0 -1.20 -0.20 -1 -0.50z"/>
  <path d="M14.15 12.65 c0.20 -0.15 0.50 -0.15 0.70 0 0.15 0.20 0 0.35 -0.35 0.35 -0.35 0 -0.50 -0.15 -0.35 -0.35z"/>
  <path d="M16.15 12.15 c0.20 -0.15 0.50 -0.15 0.70 0 0.15 0.20 0 0.35 -0.35 0.35 -0.35 0 -0.50 -0.15 -0.35 -0.35z"/>
  <path d="M12.75 11.55 c-0.30 -0.25 -0.95 -0.55 -1.50 -0.70 -0.65 -0.15 -0.45 -0.25 0.65 -0.30 1.10 -0.05 1.60 0.20 1.60 0.70 0 0.85 -0.10 0.90 -0.75 0.30z"/>
  <path d="M32.50 11.25 c0 -0.15 0.10 -0.25 0.25 -0.25 0.15 0 0.25 0.10 0.25 0.25 0 0.15 -0.10 0.25 -0.25 0.25 -0.15 0 -0.25 -0.10 -0.25 -0.25z"/>
  <path d="M8.10 5.50 c0 -0.70 0.10 -0.95 0.25 -0.60 0.10 0.30 0.10 0.90 0 1.25 -0.15 0.30 -0.25 0.05 -0.25 -0.65z"/>
  <path d="M32.80 2.70 c-0.20 -0.70 -0.25 -1.40 -0.15 -1.55 0.15 -0.10 0.40 0.40 0.55 1.15 0.20 0.70 0.25 1.40 0.15 1.55 -0.15 0.10 -0.40 -0.40 -0.55 -1.15z"/>
 </g>
 <g fill="#54354e">
  <path d="M19.50 38.25 c0 -1.20 0.25 -1.75 0.75 -1.75 0.40 0 0.75 -0.45 0.75 -1 0 -0.80 0.35 -1 1.55 -1 1.40 0 1.50 0.10 0.90 0.90 -0.35 0.45 -0.05 0.30 0.70 -0.35 1.40 -1.25 1.90 -2.15 0.60 -1.05 -1.25 1.05 -0.95 -1 0.35 -2.35 0.75 -0.80 1.10 -1.75 1.05 -3.05 l-0.05 -1.85 0.55 1.80 c0.35 1 0.85 2.15 1.20 2.55 0.50 0.60 0.10 1.45 -2.15 4.80 -2.55 3.80 -2.90 4.10 -4.50 4.10 -1.60 0 -1.70 -0.10 -1.70 -1.75z m3.05 -1.10 c0.65 -0.80 0.60 -0.85 -0.15 -0.20 -0.50 0.35 -0.90 0.75 -0.90 0.85 0 0.40 0.40 0.15 1.05 -0.65z m3.95 -4.90 c0 -0.15 -0.10 -0.25 -0.25 -0.25 -0.15 0 -0.25 0.10 -0.25 0.25 0 0.15 0.10 0.25 0.25 0.25 0.15 0 0.25 -0.10 0.25 -0.25z m0.50 -1 c0 -0.15 -0.10 -0.25 -0.25 -0.25 -0.15 0 -0.25 0.10 -0.25 0.25 0 0.15 0.10 0.25 0.25 0.25 0.15 0 0.25 -0.10 0.25 -0.25z"/>
  <path d="M29.50 39.70 c0 -0.75 1.80 -3.05 3.30 -4.40 1.80 -1.50 3.20 -1.45 3.20 0.05 0 0.70 -0.10 0.75 -0.45 0.25 -0.30 -0.50 -0.65 -0.30 -1.30 0.75 -0.80 1.20 -0.80 1.30 -0.10 0.70 0.75 -0.60 0.85 -0.50 0.85 0.85 0 1.10 -0.25 1.55 -1.10 1.80 -1.50 0.40 -4.40 0.40 -4.40 0z m3.70 -1 c0.15 -0.40 0.10 -0.60 -0.20 -0.45 -0.30 0.15 -0.50 0.50 -0.50 0.80 0 0.70 0.35 0.55 0.70 -0.35z"/>
  <path d="M10 37.10 c0 -1.35 0.30 -2.05 1.05 -2.50 0.60 -0.35 1.10 -0.60 1.20 -0.50 0.10 0.10 -0.05 1.25 -0.35 2.55 -0.60 2.95 -1.90 3.25 -1.90 0.45z"/>
  <path d="M15 35.15 c0 -1.65 0.60 -3.15 1.25 -3.15 0.35 0 0.80 -0.30 0.90 -0.60 0.40 -0.95 0.40 1.20 0.05 3.05 -0.35 1.70 -2.20 2.30 -2.20 0.70z"/>
  <path d="M30.75 33 c-0.15 -0.30 0.05 -0.35 0.45 -0.20 0.90 0.35 1.05 0.70 0.35 0.70 -0.30 0 -0.65 -0.20 -0.80 -0.50z"/>
  <path d="M29.50 32.25 c0 -0.15 0.10 -0.25 0.25 -0.25 0.15 0 0.25 0.10 0.25 0.25 0 0.15 -0.10 0.25 -0.25 0.25 -0.15 0 -0.25 -0.10 -0.25 -0.25z"/>
  <path d="M26.90 25.65 c0.30 -0.10 0.90 -0.10 1.25 0 0.30 0.15 0.05 0.25 -0.65 0.25 -0.70 0 -0.95 -0.10 -0.60 -0.25z"/>
  <path d="M30.50 20.05 c0.30 -5 0.80 -5.65 0.65 -0.90 -0.10 4.90 -0.10 4.85 -0.50 4.85 -0.25 0 -0.30 -1.80 -0.15 -3.95z"/>
  <path d="M20.90 15.15 c0.35 -0.15 0.80 -0.10 0.95 0.05 0.20 0.15 -0.10 0.30 -0.65 0.25 -0.55 0 -0.70 -0.15 -0.30 -0.30z"/>
  <path d="M17.75 14.50 c0.20 -0.30 0.55 -0.40 0.80 -0.25 0.70 0.45 0.55 0.75 -0.35 0.75 -0.40 0 -0.60 -0.25 -0.45 -0.50z"/>
  <path d="M31.50 14.75 c0 -0.15 0.10 -0.25 0.25 -0.25 0.15 0 0.25 0.10 0.25 0.25 0 0.15 -0.10 0.25 -0.25 0.25 -0.15 0 -0.25 -0.10 -0.25 -0.25z"/>
  <path d="M19.90 13.65 c-1.70 -0.25 -1.85 -1.15 -0.20 -1.15 1.55 0 2.80 0.50 2.80 1.05 0 0.45 -0.20 0.45 -2.60 0.10z"/>
  <path d="M32 13.25 c0 -0.15 0.10 -0.25 0.25 -0.25 0.15 0 0.25 0.10 0.25 0.25 0 0.15 -0.10 0.25 -0.25 0.25 -0.15 0 -0.25 -0.10 -0.25 -0.25z"/>
  <path d="M10.35 12.45 c0.40 -0.40 0.80 -0.40 1.50 0 0.80 0.45 0.70 0.50 -0.55 0.55 -1.10 0 -1.35 -0.15 -0.95 -0.55z"/>
  <path d="M13 11.75 c-0.50 -0.60 -0.50 -0.75 0.20 -0.75 0.45 0 0.80 0.35 0.80 0.75 0 0.40 -0.10 0.75 -0.20 0.75 -0.10 0 -0.45 -0.35 -0.80 -0.75z"/>
  <path d="M17 11.45 c0 -0.25 0.45 -0.45 1 -0.45 0.55 0 1 0.10 1 0.20 0 0.10 -0.45 0.30 -1 0.45 -0.55 0.15 -1 0.05 -1 -0.20z"/>
  <path d="M21.15 11.15 c0.20 -0.15 0.50 -0.15 0.70 0 0.15 0.20 0 0.35 -0.35 0.35 -0.35 0 -0.50 -0.15 -0.35 -0.35z"/>
  <path d="M33 10.25 c0 -0.15 0.10 -0.25 0.25 -0.25 0.15 0 0.25 0.10 0.25 0.25 0 0.15 -0.10 0.25 -0.25 0.25 -0.15 0 -0.25 -0.10 -0.25 -0.25z"/>
  <path d="M33.65 7.25 c0 -1.35 0.10 -1.90 0.20 -1.10 0.10 0.75 0.10 1.85 0 2.50 -0.10 0.60 -0.20 0 -0.20 -1.40z"/>
  <path d="M8.05 5.70 c0 -0.55 0.15 -0.70 0.30 -0.30 0.15 0.35 0.10 0.80 -0.05 0.95 -0.15 0.20 -0.30 -0.10 -0.25 -0.65z"/>
  <path d="M33.10 3.50 c0 -0.70 0.10 -0.95 0.25 -0.60 0.10 0.30 0.10 0.90 0 1.25 -0.15 0.30 -0.25 0.05 -0.25 -0.65z"/>
  <path d="M32.50 1.50 c0 -0.35 0.15 -0.50 0.35 -0.35 0.15 0.20 0.15 0.50 0 0.70 -0.20 0.15 -0.35 0 -0.35 -0.35z"/>
 </g>
 <g fill="#6b4c2c">
  <path d="M31.50 39.30 c0 -0.45 0.25 -0.80 0.50 -0.80 0.30 0 0.50 0.20 0.50 0.45 0 0.30 -0.20 0.65 -0.50 0.80 -0.25 0.15 -0.50 -0.05 -0.50 -0.45z"/>
  <path d="M32.80 39.25 c0.20 -0.40 0.50 -0.75 0.75 -0.75 0.25 0 0.45 0.35 0.45 0.75 0 0.40 -0.35 0.75 -0.75 0.75 -0.45 0 -0.60 -0.30 -0.45 -0.75z"/>
  <path d="M18 33.65 c0 -1 0.10 -1 1.75 -0.50 2.35 0.70 2.35 1.90 0 1.70 -1.40 -0.10 -1.75 -0.30 -1.75 -1.20z"/>
  <path d="M14.70 27.60 c-0.30 -0.20 -0.65 -0.75 -0.85 -1.25 -0.30 -0.75 -0.20 -0.80 0.65 -0.35 0.50 0.25 1.40 0.50 1.95 0.50 1.25 0 1.40 0.75 0.25 1.20 -1 0.40 -1.35 0.35 -2 -0.10z"/>
  <path d="M15.50 23.35 c0 -0.35 0.70 -0.60 1.50 -0.65 1.90 -0.05 1.90 0.05 0 0.75 -1.10 0.35 -1.50 0.35 -1.50 -0.10z"/>
  <path d="M13.15 22.65 c0.20 -0.15 0.50 -0.15 0.70 0 0.15 0.20 0 0.35 -0.35 0.35 -0.35 0 -0.50 -0.15 -0.35 -0.35z"/>
  <path d="M12.05 20.70 c0 -0.55 0.15 -0.70 0.30 -0.30 0.15 0.35 0.10 0.80 -0.05 0.95 -0.15 0.20 -0.30 -0.10 -0.25 -0.65z"/>
  <path d="M28 19.75 c0 -0.15 0.10 -0.25 0.25 -0.25 0.15 0 0.25 0.10 0.25 0.25 0 0.15 -0.10 0.25 -0.25 0.25 -0.15 0 -0.25 -0.10 -0.25 -0.25z"/>
  <path d="M13.20 18.40 c0.95 -3.10 0.95 -3.25 -0.15 -1.95 -0.60 0.65 -1.05 1.45 -1.05 1.85 0 1.15 -0.80 0.80 -1.40 -0.55 -0.85 -1.90 -0.75 -2.10 0.90 -1.85 1.15 0.15 1.50 0 1.50 -0.60 0 -0.90 0.10 -0.95 1.20 -0.50 1.35 0.50 0.80 4.70 -0.55 4.70 -0.55 0 -0.65 -0.30 -0.45 -1.10z"/>
  <path d="M16 18.60 c0 -0.20 0.45 -0.65 1 -1 0.75 -0.45 0.95 -0.95 0.70 -1.85 -0.25 -0.95 -0.10 -1.25 0.50 -1.25 0.50 0 0.80 0.35 0.70 0.80 -0.10 0.55 0.40 1.05 1.50 1.40 2.05 0.70 1.60 1.30 -0.95 1.30 -1.05 0 -2.05 0.25 -2.20 0.50 -0.35 0.60 -1.25 0.65 -1.25 0.10z"/>
  <path d="M20.50 15.50 c0 -0.25 0.35 -0.50 0.75 -0.50 0.40 0 0.75 0.25 0.75 0.50 0 0.30 -0.35 0.50 -0.75 0.50 -0.40 0 -0.75 -0.20 -0.75 -0.50z"/>
  <path d="M10.75 12.50 c-0.15 -0.25 -0.10 -0.50 0.20 -0.50 0.25 0 0.65 0.25 0.80 0.50 0.15 0.30 0.10 0.50 -0.20 0.50 -0.25 0 -0.65 -0.20 -0.80 -0.50z"/>
  <path d="M13.25 12 c-0.50 -0.55 -1.30 -1 -1.85 -1 -0.95 0 -1.10 -0.40 -0.60 -1.75 0.25 -0.65 0.80 -0.75 3.15 -0.50 2 0.25 3.30 0.10 4.65 -0.45 2.35 -1 4.40 -1.05 4.40 -0.10 0 0.40 -0.20 1.30 -0.50 2.05 -0.40 1 -0.70 1.20 -1.70 0.95 -0.70 -0.15 -2.10 0.15 -3.45 0.75 -2.80 1.30 -3 1.30 -4.10 0.05z"/>
  <path d="M19.40 12.65 c0.30 -0.10 0.90 -0.10 1.25 0 0.30 0.15 0.05 0.25 -0.65 0.25 -0.70 0 -0.95 -0.10 -0.60 -0.25z"/>
 </g>
 <g fill="#5e267a">
  <path d="M8 38.70 c0 -1.85 0.75 -3 2.55 -3.90 0.90 -0.45 1.65 -0.80 1.75 -0.80 0.05 0 -0.10 0.75 -0.35 1.60 -0.25 0.90 -0.45 2.25 -0.45 3 0 1.25 -0.15 1.40 -1.75 1.40 -1.55 0 -1.75 -0.15 -1.75 -1.30z"/>
  <path d="M19 38.80 c0 -0.70 0.50 -1.65 1.15 -2.15 0.65 -0.50 1.30 -1.30 1.50 -1.80 0.20 -0.55 0.80 -1.05 1.35 -1.20 0.55 -0.15 1 -0.40 1 -0.60 0.05 -0.15 0.75 -1.10 1.60 -2.05 1.20 -1.35 1.45 -1.50 1.30 -0.70 -0.15 0.60 -0.05 1.05 0.30 1 1.20 -0.10 0.85 0.95 -1.70 4.75 -2.55 3.80 -2.70 3.95 -4.55 3.95 -1.75 0 -1.95 -0.15 -1.95 -1.20z m4.55 -2.90 c1.20 -1.45 1.80 -2.35 1.30 -1.95 -1 0.80 -4.05 4.55 -3.70 4.55 0.10 0 1.20 -1.20 2.40 -2.60z m2.70 -3.40 c0.15 -0.25 0.20 -0.50 0.05 -0.50 -0.15 0 -0.40 0.25 -0.55 0.50 -0.15 0.30 -0.20 0.50 -0.05 0.50 0.15 0 0.40 -0.20 0.55 -0.50z"/>
  <path d="M31 38.55 c0 -1.05 0.50 -1.90 1.75 -3 2.10 -1.80 2.30 -1.85 3.45 -0.60 0.75 0.80 0.75 1.10 0.20 2 -0.35 0.60 -0.90 1.05 -1.25 1.05 -0.35 0 -0.65 0.45 -0.65 1 0 0.55 -0.35 1 -0.75 1 -1.15 0 -0.90 -1.25 0.55 -3 0.75 -0.85 1.20 -1.65 1.05 -1.80 -0.15 -0.15 -1 0.90 -1.90 2.25 -1.85 2.90 -2.45 3.15 -2.45 1.10z"/>
  <path d="M15 35.90 c0 -1.50 0.65 -2.90 1.30 -2.90 0.45 0 0.70 0.60 0.70 1.75 0 1.40 -0.20 1.75 -1 1.75 -0.55 0 -1 -0.30 -1 -0.60z"/>
 </g>
 <g fill="#634d60">
  <path d="M15.05 37.65 c0.10 -3.65 0.60 -5.35 1.65 -5.55 1.55 -0.30 1.85 0.55 1.50 4.30 -0.35 3.55 -0.35 3.60 -1.75 3.60 -1.40 0 -1.45 -0.10 -1.40 -2.35z"/>
  <path d="M19 38.50 c0 -1 0.25 -1.50 0.75 -1.50 0.40 0 0.75 -0.45 0.75 -1 0 -0.80 0.35 -1 1.50 -1 l1.50 0 -1.60 2.45 c-1.90 2.85 -2.90 3.25 -2.90 1.05z"/>
  <path d="M21.50 39.40 c0 -0.35 0.55 -1.30 1.25 -2.15 l1.20 -1.50 0.05 1.40 c0 0.85 -0.25 1.35 -0.75 1.35 -0.40 0 -0.75 0.35 -0.75 0.75 0 0.40 -0.20 0.75 -0.50 0.75 -0.25 0 -0.50 -0.30 -0.50 -0.60z"/>
  <path d="M36.85 39.65 c-0.20 -0.15 -0.35 -0.85 -0.35 -1.50 0 -0.85 -0.30 -1.15 -1.05 -1.15 -0.90 0 -0.95 -0.10 -0.45 -0.75 0.35 -0.45 0.50 -0.95 0.30 -1.10 -0.20 -0.20 -0.50 -0.10 -0.70 0.20 -0.20 0.35 -0.65 0.45 -0.95 0.25 -0.45 -0.30 -0.35 -0.55 0.35 -1 0.80 -0.50 1.20 -0.35 2.50 1 1.65 1.60 2.55 3.35 2.15 4.05 -0.25 0.45 -1.35 0.45 -1.80 0z"/>
  <path d="M8 38.05 c0 -1.25 1.45 -2.90 2.95 -3.30 1.15 -0.35 1.20 -0.25 0.85 1.25 -0.15 0.90 -0.30 1.95 -0.30 2.30 0 0.85 -1.35 0.90 -1.65 0.10 -0.20 -0.50 -0.30 -0.50 -0.30 0 -0.05 1 -1.55 0.70 -1.55 -0.35z m2.35 -1.65 c-0.15 -0.40 -0.30 -0.25 -0.30 0.30 -0.05 0.55 0.10 0.85 0.25 0.65 0.15 -0.15 0.20 -0.60 0.05 -0.95z"/>
  <path d="M32.50 33.75 c0 -0.15 0.10 -0.25 0.25 -0.25 0.15 0 0.25 0.10 0.25 0.25 0 0.15 -0.10 0.25 -0.25 0.25 -0.15 0 -0.25 -0.10 -0.25 -0.25z"/>
  <path d="M31.50 33.25 c0 -0.15 0.10 -0.25 0.25 -0.25 0.15 0 0.25 0.10 0.25 0.25 0 0.15 -0.10 0.25 -0.25 0.25 -0.15 0 -0.25 -0.10 -0.25 -0.25z"/>
  <path d="M25.70 30.90 c0.45 -0.60 0.65 -1.65 0.50 -2.35 l-0.20 -1.30 0.50 1.25 c0.70 1.55 0.25 3.50 -0.80 3.50 -0.70 0 -0.70 -0.10 0 -1.10z"/>
  <path d="M27.25 31.50 c0.15 -0.25 0.40 -0.50 0.55 -0.50 0.10 0 0.20 0.25 0.20 0.50 0 0.30 -0.25 0.50 -0.55 0.50 -0.25 0 -0.35 -0.20 -0.20 -0.50z"/>
  <path d="M28.15 25.35 c0.80 -0.35 1.75 -1.15 2.10 -1.85 0.65 -1.15 0.70 -1.15 0.75 -0.20 0 1.35 -1.50 2.70 -3.05 2.70 -1.15 -0.05 -1.15 -0.05 0.20 -0.65z"/>
  <path d="M30.50 20 c0 -0.35 0.15 -0.50 0.35 -0.35 0.15 0.20 0.15 0.50 0 0.70 -0.20 0.15 -0.35 0 -0.35 -0.35z"/>
  <path d="M18.20 14.40 c-0.20 -0.35 -0.15 -0.40 0.20 -0.20 0.60 0.35 0.80 0.80 0.40 0.80 -0.15 0 -0.40 -0.25 -0.60 -0.60z"/>
  <path d="M10.90 14.15 c0.35 -0.15 0.80 -0.10 0.95 0.05 0.20 0.15 -0.10 0.30 -0.65 0.25 -0.55 0 -0.70 -0.15 -0.30 -0.30z"/>
  <path d="M19.50 13 c-0.60 -0.40 -0.60 -0.50 0.25 -0.45 0.55 0 1.45 0.20 2 0.45 0.90 0.40 0.90 0.45 -0.25 0.45 -0.70 0 -1.60 -0.20 -2 -0.45z"/>
  <path d="M10.50 12.50 c0 -0.25 0.20 -0.50 0.45 -0.50 0.30 0 0.65 0.25 0.80 0.50 0.15 0.30 -0.05 0.50 -0.45 0.50 -0.45 0 -0.80 -0.20 -0.80 -0.50z"/>
  <path d="M32.50 1.75 c0 -0.15 0.10 -0.25 0.25 -0.25 0.15 0 0.25 0.10 0.25 0.25 0 0.15 -0.10 0.25 -0.25 0.25 -0.15 0 -0.25 -0.10 -0.25 -0.25z"/>
 </g>
 <g fill="#74387c">
  <path d="M7.50 38.90 c0 -1.40 1.80 -3.55 3.60 -4.30 1.30 -0.55 1.30 -0.55 0.85 1.05 -0.25 0.90 -0.45 2.20 -0.45 2.95 0 1.70 -1.35 1.90 -1.65 0.30 l-0.20 -1.15 -0.10 1.15 c-0.05 0.75 -0.35 1.10 -1.05 1.10 -0.70 0 -1 -0.35 -1 -1.10z m3 -2.40 c0 -0.55 -0.10 -1 -0.20 -1 -0.10 0 -0.30 0.45 -0.45 1 -0.15 0.55 -0.05 1 0.20 1 0.25 0 0.45 -0.45 0.45 -1z"/>
  <path d="M19 39.25 c0 -0.40 0.35 -0.75 0.75 -0.75 0.40 0 0.75 0.35 0.75 0.75 0 0.40 -0.35 0.75 -0.75 0.75 -0.40 0 -0.75 -0.35 -0.75 -0.75z"/>
  <path d="M21.50 39.45 c0 -0.80 5.50 -7.95 6.10 -7.95 0.75 0 0.05 1.40 -2.45 5.15 -2.10 3.05 -3.65 4.25 -3.65 2.80z"/>
  <path d="M30 39.15 c0 -1.05 4.35 -5.30 5.05 -4.90 0.25 0.20 0.15 0.65 -0.30 1.05 -1.15 1.15 -0.90 2 0.25 0.95 0.55 -0.50 1.10 -0.80 1.25 -0.65 0.15 0.15 -0.30 0.65 -1 1.10 -0.75 0.50 -1.25 1.30 -1.25 2.05 0 0.70 -0.20 1.25 -0.50 1.25 -0.65 0 -0.65 -0.80 0.05 -2.10 0.40 -0.75 0.40 -0.95 -0.05 -0.65 -0.30 0.20 -0.75 0.90 -1 1.55 -0.55 1.40 -2.50 1.70 -2.50 0.35z"/>
  <path d="M15.20 35.40 c0.35 -2.55 1.90 -4.95 2.70 -4.15 0.65 0.65 0.25 5.85 -0.45 6.30 -0.50 0.30 -0.80 0.10 -1.05 -0.70 l-0.30 -1.10 -0.05 1.15 c-0.05 0.60 -0.30 1.10 -0.60 1.10 -0.40 0 -0.45 -0.80 -0.25 -2.60z m1.80 -1.65 c0 -0.15 -0.10 -0.25 -0.25 -0.25 -0.15 0 -0.25 0.10 -0.25 0.25 0 0.15 0.10 0.25 0.25 0.25 0.15 0 0.25 -0.10 0.25 -0.25z"/>
  <path d="M23.50 34.75 c0 -0.15 0.10 -0.25 0.25 -0.25 0.15 0 0.25 0.10 0.25 0.25 0 0.15 -0.10 0.25 -0.25 0.25 -0.15 0 -0.25 -0.10 -0.25 -0.25z"/>
  <path d="M25 33.20 c0 -0.65 0.90 -1.95 1.20 -1.70 0.10 0.15 -0.10 0.70 -0.50 1.20 -0.40 0.55 -0.70 0.80 -0.70 0.50z"/>
 </g>
 <g fill="#726159">
  <path d="M6 39.70 c0 -0.45 3.70 -4.70 4.10 -4.70 0.20 0 0.10 0.70 -0.15 1.50 -0.30 0.85 -0.75 1.50 -1 1.50 -0.25 0 -0.45 0.45 -0.45 1 0 0.75 -0.35 1 -1.25 1 -0.70 0 -1.25 -0.15 -1.25 -0.30z"/>
  <path d="M17.10 37.25 c0.15 -1.50 0.10 -2.75 -0.10 -2.75 -0.15 0 -0.20 -0.80 -0.10 -1.75 0.25 -1.90 0.85 -2.30 1.25 -0.75 0.15 0.55 0.85 1.10 1.65 1.30 0.80 0.20 1.60 0.60 1.80 0.90 0.60 0.90 0.45 3.20 -0.25 3.65 -0.40 0.20 -0.80 0.80 -1 1.30 -0.20 0.55 -0.85 0.85 -1.90 0.85 l-1.55 0 0.20 -2.75z m1.90 0.50 c0 -0.15 -0.10 -0.25 -0.25 -0.25 -0.15 0 -0.25 0.10 -0.25 0.25 0 0.15 0.10 0.25 0.25 0.25 0.15 0 0.25 -0.10 0.25 -0.25z m0.50 -2.75 c0 -0.25 -0.20 -0.50 -0.50 -0.50 -0.25 0 -0.50 0.25 -0.50 0.50 0 0.30 0.25 0.50 0.50 0.50 0.30 0 0.50 -0.20 0.50 -0.50z"/>
  <path d="M36 37.25 c0 -2.15 0.50 -2.20 1.65 -0.30 1.10 1.90 1.10 2.05 -0.40 2.05 -1.10 0 -1.25 -0.20 -1.25 -1.75z"/>
  <path d="M10 37.75 c0 -0.15 0.10 -0.25 0.25 -0.25 0.15 0 0.25 0.10 0.25 0.25 0 0.15 -0.10 0.25 -0.25 0.25 -0.15 0 -0.25 -0.10 -0.25 -0.25z"/>
  <path d="M22.80 34.70 c-0.20 -0.55 0.35 -1.40 1.80 -2.70 1.20 -1.05 2.25 -1.80 2.35 -1.75 0.25 0.30 -1.80 3.45 -2.85 4.45 -0.90 0.80 -1 0.80 -1.30 0z"/>
  <path d="M24.50 35.15 c0 -0.70 3.45 -4.45 3.50 -3.80 0 1.05 -2.05 4.15 -2.80 4.15 -0.40 0 -0.70 -0.15 -0.70 -0.35z"/>
  <path d="M16 32.50 c0 -0.35 0.15 -0.50 0.35 -0.35 0.15 0.20 0.15 0.50 0 0.70 -0.20 0.15 -0.35 0 -0.35 -0.35z"/>
  <path d="M13.35 23.65 c-0.70 -0.70 -0.30 -1.15 1.05 -1.15 1.85 0 3 0.75 1.85 1.20 -1.10 0.40 -2.50 0.40 -2.90 -0.05z"/>
  <path d="M17.50 22.75 c0 -0.15 0.10 -0.25 0.25 -0.25 0.15 0 0.25 0.10 0.25 0.25 0 0.15 -0.10 0.25 -0.25 0.25 -0.15 0 -0.25 -0.10 -0.25 -0.25z"/>
  <path d="M17.60 15.30 c0.05 -0.50 0.40 -0.85 0.65 -0.85 0.75 0.05 0.60 1.20 -0.15 1.45 -0.45 0.15 -0.65 -0.10 -0.50 -0.60z"/>
  <path d="M21 15.50 c0 -0.25 0.25 -0.50 0.50 -0.50 0.30 0 0.50 0.25 0.50 0.50 0 0.30 -0.20 0.50 -0.50 0.50 -0.25 0 -0.50 -0.20 -0.50 -0.50z"/>
  <path d="M13 15 c0 -0.25 0.25 -0.50 0.55 -0.50 0.25 0 0.35 0.25 0.20 0.50 -0.15 0.30 -0.40 0.50 -0.55 0.50 -0.10 0 -0.20 -0.20 -0.20 -0.50z"/>
  <path d="M10.50 14.50 c0 -0.25 0.35 -0.50 0.80 -0.50 0.40 0 0.60 0.25 0.45 0.50 -0.15 0.30 -0.50 0.50 -0.80 0.50 -0.25 0 -0.45 -0.20 -0.45 -0.50z"/>
 </g>
 <g fill="#7e6558">
  <path d="M16.50 39.30 c0 -0.45 0.25 -0.80 0.50 -0.80 0.30 0 0.40 -0.55 0.20 -1.25 -0.15 -0.70 -0.15 -2.05 0 -2.95 l0.35 -1.75 1.85 0.65 c1.55 0.55 2.20 0.55 3.80 -0.05 1.10 -0.35 2.05 -0.60 2.10 -0.50 0.10 0.10 -0.75 1.25 -1.85 2.65 -1.15 1.35 -2.35 2.85 -2.70 3.35 -0.35 0.50 -1.45 1 -2.45 1.20 -1.45 0.20 -1.80 0.10 -1.80 -0.55z m2.35 -1.90 c-0.15 -0.40 -0.30 -0.25 -0.30 0.30 -0.05 0.55 0.10 0.85 0.25 0.65 0.15 -0.15 0.20 -0.60 0.05 -0.95z m1.65 -1.15 c0 -0.15 -0.10 -0.25 -0.25 -0.25 -0.15 0 -0.25 0.10 -0.25 0.25 0 0.15 0.10 0.25 0.25 0.25 0.15 0 0.25 -0.10 0.25 -0.25z m-1.05 -1.70 c-0.75 -0.25 -1.10 0.30 -0.70 0.95 0.30 0.45 0.50 0.45 0.80 -0.05 0.25 -0.40 0.20 -0.75 -0.10 -0.90z m2.90 0.60 c-0.20 -0.15 -0.50 -0.15 -0.70 0 -0.15 0.20 0 0.35 0.35 0.35 0.35 0 0.50 -0.15 0.35 -0.35z"/>
  <path d="M22.30 37.75 c0.45 -0.70 0.90 -1.25 1 -1.25 0.10 0 0.20 0.55 0.20 1.25 0 0.90 -0.25 1.25 -1 1.25 -1 0 -1 -0.05 -0.20 -1.25z"/>
  <path d="M24.45 35.05 c0.85 -1.55 1.65 -1.85 1.45 -0.50 -0.10 0.65 -0.55 1.25 -1.05 1.35 -0.80 0.15 -0.85 0.05 -0.40 -0.85z"/>
  <path d="M13.25 23.45 c-0.55 -0.80 -0.10 -0.95 1.95 -0.60 1.30 0.20 1.65 0.45 1.20 0.70 -0.90 0.60 -2.80 0.55 -3.15 -0.10z"/>
  <path d="M17.50 15.60 c0 -0.60 0.95 -1.30 1.30 -0.95 0.10 0.10 -0.10 0.50 -0.55 0.85 -0.45 0.40 -0.75 0.40 -0.75 0.10z"/>
 </g>
 <g fill="#816b82">
  <path d="M7.50 38.90 c0.05 -1.10 2.25 -4.35 2.65 -3.90 0.10 0.15 -0.15 1.30 -0.50 2.65 -0.75 2.45 -2.15 3.30 -2.15 1.25z"/>
  <path d="M10.20 37.90 c0.45 -2.65 1.30 -3.75 1.30 -1.60 0 2 -0.50 3.70 -1.10 3.70 -0.35 0 -0.40 -0.80 -0.20 -2.10z"/>
  <path d="M17 39.15 c0 -0.35 0.45 -0.65 0.95 -0.65 0.55 0 1.15 -0.20 1.30 -0.50 0.15 -0.25 0.75 -0.50 1.30 -0.50 0.90 0 0.95 0.05 0.15 1.25 -0.60 0.90 -1.20 1.25 -2.25 1.15 -0.80 -0.05 -1.45 -0.40 -1.45 -0.75z"/>
  <path d="M21.55 39.20 c0 -0.55 0.15 -0.70 0.30 -0.30 0.15 0.35 0.10 0.80 -0.05 0.95 -0.15 0.20 -0.30 -0.10 -0.25 -0.65z"/>
  <path d="M35.25 37.50 c-0.75 -2.30 1.10 -2.70 2.35 -0.50 l0.85 1.50 -1.45 0 c-1 0 -1.55 -0.30 -1.75 -1z"/>
  <path d="M15.50 34.35 c0 -1 0.20 -1.85 0.50 -1.85 0.25 0 0.35 0.70 0.15 1.65 -0.40 2.25 -0.65 2.35 -0.65 0.20z"/>
  <path d="M16.70 34.40 c0.35 -1.85 0.55 -2.10 1.25 -1.65 0.30 0.15 0.55 0.95 0.55 1.80 0 1.15 -0.20 1.45 -1.05 1.45 -0.95 0 -1.05 -0.20 -0.75 -1.60z"/>
  <path d="M35 34.75 c0 -0.15 0.10 -0.25 0.25 -0.25 0.15 0 0.25 0.10 0.25 0.25 0 0.15 -0.10 0.25 -0.25 0.25 -0.15 0 -0.25 -0.10 -0.25 -0.25z"/>
  <path d="M25 32.20 c0 -0.15 0.45 -0.85 1 -1.55 0.55 -0.70 1 -1 1 -0.60 -0.05 1.15 -2 3.30 -2 2.15z"/>
  <path d="M26.50 32.30 c0 -0.10 0.35 -0.45 0.75 -0.80 0.60 -0.50 0.75 -0.50 0.75 0.20 0 0.45 -0.35 0.80 -0.75 0.80 -0.40 0 -0.75 -0.10 -0.75 -0.20z"/>
  <path d="M28.30 25.50 c0.60 -0.25 1.45 -0.95 1.90 -1.60 0.60 -0.85 0.80 -0.95 0.80 -0.30 0 0.95 -1.85 2.40 -3 2.35 -0.45 0 -0.35 -0.15 0.30 -0.45z"/>
 </g>
 <g fill="#883dad">
  <path d="M8.55 38.45 c-0.05 -1.80 1.10 -4 1.75 -3.35 0.20 0.20 0.70 0.10 1.10 -0.25 0.60 -0.50 0.70 -0.45 0.45 0.40 -0.15 0.55 -0.40 1.85 -0.60 2.90 -0.45 2.80 -1.45 2.35 -1 -0.45 0.20 -1.60 0.15 -2.20 -0.20 -1.95 -0.30 0.15 -0.55 0.80 -0.60 1.40 0 0.60 -0.20 1.55 -0.45 2.10 -0.35 0.80 -0.45 0.65 -0.45 -0.80z"/>
  <path d="M15.25 36.40 c0.20 -2 0.60 -3.85 0.85 -4.15 0.35 -0.35 0.45 -0.10 0.20 0.75 -0.15 0.70 -0.30 2.55 -0.30 4.15 0 1.75 -0.20 2.85 -0.55 2.85 -0.40 0 -0.45 -1.10 -0.20 -3.60z"/>
  <path d="M16.60 37.75 c-0.05 -3.60 0.65 -7.25 1.10 -6.10 0.25 0.45 0.25 1.60 0.10 2.50 -0.20 0.85 -0.55 2.60 -0.75 3.85 l-0.40 2.25 -0.05 -2.50z"/>
  <path d="M21.50 39.40 c0 -0.95 6.15 -8.65 6.40 -8 0.25 0.80 -5 8.60 -5.75 8.60 -0.35 0 -0.65 -0.30 -0.65 -0.60z"/>
  <path d="M30.35 39 c0.30 -1.10 3.85 -4.50 4.70 -4.50 0.30 0 0.25 0.30 -0.15 0.70 -0.35 0.35 -1.20 1.60 -1.90 2.70 -1.30 2.20 -3.10 2.95 -2.65 1.10z"/>
  <path d="M33 39.25 c0 -1.10 2.75 -3.95 3.40 -3.55 0.60 0.35 0.55 0.45 -1.55 2.95 -1.35 1.50 -1.85 1.70 -1.85 0.60z"/>
  <path d="M20 38.10 c0 -0.60 0.25 -1.10 0.50 -1.10 0.30 0 0.50 -0.35 0.50 -0.75 0 -0.40 0.45 -0.75 1 -0.75 0.55 0 1 -0.35 1 -0.75 0 -0.45 0.80 -1.60 1.75 -2.60 2.65 -2.70 2.10 -1.15 -0.80 2.45 -3.95 4.80 -3.95 4.80 -3.95 3.50z"/>
 </g>
 <g fill="#887b6f">
  <path d="M18.15 39.65 c-0.35 -0.10 -0.65 -0.90 -0.65 -1.70 0 -1.30 0.15 -1.45 1.75 -1.45 1.90 0 2.30 0.95 1.05 2.65 -0.65 0.85 -1.05 0.95 -2.15 0.50z m1.10 -1.60 c0.15 -0.25 0.05 -0.60 -0.25 -0.80 -0.25 -0.15 -0.50 0.05 -0.50 0.45 0 0.90 0.30 1.05 0.75 0.35z"/>
  <path d="M33 39.05 c0 -0.30 0.55 -1.15 1.25 -1.90 l1.20 -1.40 0.05 1.90 c0 1.65 -0.15 1.85 -1.25 1.85 -0.70 0 -1.25 -0.20 -1.25 -0.45z"/>
  <path d="M32 37.60 c0 -0.60 0.35 -1.25 0.75 -1.45 1.20 -0.45 1.25 0 0.25 1.35 l-1 1.25 0 -1.15z"/>
  <path d="M13 23 c0 -0.35 0.70 -0.40 1.90 -0.20 2.55 0.45 2.65 0.70 0.20 0.70 -1.15 0 -2.10 -0.25 -2.10 -0.50z"/>
  <path d="M21 15.50 c0 -0.25 0.25 -0.50 0.55 -0.50 0.25 0 0.35 0.25 0.20 0.50 -0.15 0.30 -0.40 0.50 -0.55 0.50 -0.10 0 -0.20 -0.20 -0.20 -0.50z"/>
  <path d="M13 15.25 c0 -0.15 0.10 -0.25 0.25 -0.25 0.15 0 0.25 0.10 0.25 0.25 0 0.15 -0.10 0.25 -0.25 0.25 -0.15 0 -0.25 -0.10 -0.25 -0.25z"/>
  <path d="M17.75 15 c0.15 -0.25 0.55 -0.50 0.80 -0.50 0.30 0 0.35 0.25 0.20 0.50 -0.15 0.30 -0.55 0.50 -0.80 0.50 -0.30 0 -0.35 -0.20 -0.20 -0.50z"/>
 </g>
 <g fill="#927e70">
  <path d="M6 39.50 c0 -0.25 0.15 -0.50 0.40 -0.50 0.20 0 1 -0.90 1.80 -2 0.85 -1.10 1.70 -2 1.95 -2 0.30 0 0.25 0.25 0 0.65 -0.30 0.30 -0.65 1.45 -0.85 2.50 -0.30 1.65 -0.50 1.85 -1.80 1.85 -0.85 0 -1.50 -0.20 -1.50 -0.50z"/>
  <path d="M10.70 37.85 c0.10 -1.35 0.45 -2.70 0.75 -3 0.35 -0.35 0.40 -0.05 0.05 1.20 -0.25 0.95 -0.55 2.25 -0.70 2.95 -0.15 0.70 -0.15 0.15 -0.10 -1.15z"/>
  <path d="M16.50 38.70 c0 -2.60 0.70 -7.20 1.05 -7.20 0.25 0 0.45 0.35 0.45 0.75 0 0.45 0.70 0.85 1.95 1.05 1.70 0.25 2 0.55 2.15 1.65 0.10 0.80 -0.30 2 -1.10 3.10 -1 1.50 -1.55 1.85 -2.85 1.80 -1.35 -0.05 -1.65 -0.25 -1.65 -1.15z m3 -0.65 c0 -0.30 -0.20 -0.65 -0.50 -0.80 -0.25 -0.15 -0.50 0.05 -0.50 0.45 0 0.45 0.25 0.80 0.50 0.80 0.30 0 0.50 -0.20 0.50 -0.45z m0.65 -2.15 c-0.20 -0.35 -0.40 -0.80 -0.40 -1 0 -0.80 -0.75 -0.95 -1.05 -0.15 -0.20 0.50 -0.05 1.05 0.35 1.30 1 0.65 1.55 0.55 1.10 -0.15z"/>
  <path d="M22 38.80 c0 -0.40 0.25 -0.90 0.50 -1.05 0.30 -0.15 0.50 0.15 0.50 0.70 0 0.60 -0.20 1.05 -0.50 1.05 -0.25 0 -0.50 -0.30 -0.50 -0.70z"/>
  <path d="M17.75 15 c0.15 -0.25 0.40 -0.50 0.55 -0.50 0.10 0 0.20 0.25 0.20 0.50 0 0.30 -0.25 0.50 -0.55 0.50 -0.25 0 -0.35 -0.20 -0.20 -0.50z"/>
  <path d="M10.50 14.50 c0 -0.25 0.25 -0.50 0.50 -0.50 0.30 0 0.50 0.25 0.50 0.50 0 0.30 -0.20 0.50 -0.50 0.50 -0.25 0 -0.50 -0.20 -0.50 -0.50z"/>
 </g>
 <g fill="#8c837d">
  <path d="M17 38.65 c0 -0.90 0.25 -1.65 0.50 -1.65 0.65 0 0.65 1.50 0 2.50 -0.35 0.55 -0.50 0.35 -0.50 -0.85z"/>
  <path d="M18.50 39.25 c0 -0.40 0.25 -0.75 0.55 -0.75 0.30 0 0.45 -0.35 0.25 -0.75 -0.15 -0.45 0 -0.75 0.45 -0.75 0.80 0 0.95 0.90 0.45 2.20 -0.40 1 -1.70 1.05 -1.70 0.05z"/>
  <path d="M34 37.85 c0 -0.40 0.45 -1.10 1.05 -1.65 1 -0.90 1.05 -0.90 1.75 0.05 1.15 1.60 0.85 2.25 -1.05 2.25 -1.15 0 -1.75 -0.25 -1.75 -0.65z"/>
  <path d="M24.90 32 c0.70 -0.80 1.40 -1.35 1.50 -1.25 0.40 0.40 -1.40 2.75 -2.10 2.75 -0.45 0 -0.25 -0.50 0.60 -1.50z"/>
  <path d="M26.60 32.50 c0.35 -0.55 0.80 -1 1.05 -1 0.20 0 0.15 0.45 -0.15 1 -0.30 0.55 -0.75 1 -1 1 -0.30 0 -0.25 -0.45 0.10 -1z"/>
  <path d="M17 31.95 c0 -0.55 0.25 -0.85 0.50 -0.70 0.30 0.15 0.50 0.65 0.50 1.05 0 0.40 -0.20 0.70 -0.50 0.70 -0.25 0 -0.50 -0.45 -0.50 -1.05z"/>
  <path d="M13.90 23.15 c0.35 -0.15 0.80 -0.10 0.95 0.05 0.20 0.15 -0.10 0.30 -0.65 0.25 -0.55 0 -0.70 -0.15 -0.30 -0.30z"/>
  <path d="M11 14.50 c0 -0.35 0.15 -0.50 0.35 -0.35 0.15 0.20 0.15 0.50 0 0.70 -0.20 0.15 -0.35 0 -0.35 -0.35z"/>
 </g>
 <g fill="#9943cc">
  <path d="M10.70 37.85 c0.10 -1.35 0.40 -2.65 0.70 -2.95 0.35 -0.35 0.40 0.10 0.10 1.40 -0.75 3.60 -0.95 3.95 -0.80 1.55z"/>
  <path d="M15.40 37.90 c0.25 -3.55 0.50 -3.85 0.55 -0.75 0 1.55 -0.10 2.85 -0.35 2.85 -0.20 0 -0.30 -0.95 -0.20 -2.10z"/>
  <path d="M16.55 37.40 c0.05 -4.35 0.85 -5.25 0.90 -1 0.05 2.10 -0.15 3.60 -0.45 3.60 -0.25 0 -0.50 -1.20 -0.45 -2.60z"/>
  <path d="M22.10 39 c0.10 -0.55 1.30 -2.45 2.65 -4.20 2.60 -3.40 4.10 -4.50 2.30 -1.65 -0.60 0.85 -1.80 2.75 -2.70 4.20 -1.65 2.75 -2.55 3.35 -2.25 1.65z"/>
  <path d="M31 39.80 c0 -0.95 1.30 -3.45 2.05 -3.85 1.20 -0.65 1.20 -0.05 -0.05 1.55 -0.55 0.70 -1 1.55 -1 1.90 0 0.50 -1 0.95 -1 0.40z"/>
  <path d="M33 39.40 c0 -0.35 0.55 -1.30 1.25 -2.15 0.95 -1.20 1.20 -1.30 1.25 -0.60 0 1.05 -1.40 3.35 -2.05 3.35 -0.25 0 -0.45 -0.30 -0.45 -0.60z"/>
  <path d="M20.50 37.75 c0 -0.45 0.45 -1.45 1 -2.20 1.05 -1.55 4.50 -4.35 4.50 -3.70 -0.05 0.85 -5.50 6.70 -5.50 5.90z"/>
  <path d="M9 37.20 c0 -0.50 0.25 -1.30 0.50 -1.70 0.40 -0.55 0.45 -0.35 0.20 0.75 -0.40 1.85 -0.70 2.25 -0.70 0.95z"/>
 </g>
 <g fill="#8e8899">
  <path d="M34.75 39.25 c-0.15 -0.40 -0.35 -1.05 -0.45 -1.45 -0.15 -0.40 0.20 -1.10 0.75 -1.60 0.95 -0.85 1.05 -0.85 2.20 0.55 1.80 2.20 1.65 3.25 -0.50 3.25 -1.15 0 -1.85 -0.25 -2 -0.75z m1.10 -3.10 c-0.20 -0.15 -0.35 0 -0.35 0.35 0 0.35 0.15 0.50 0.35 0.35 0.15 -0.20 0.15 -0.50 0 -0.70z"/>
  <path d="M16.70 34.95 c0.15 -0.85 0.30 -2 0.30 -2.50 0 -1.30 0.65 -1.20 1.25 0.20 0.80 1.80 0.35 3.85 -0.85 3.85 -0.90 0 -1 -0.20 -0.70 -1.55z"/>
  <path d="M25.25 32 c0.15 -0.25 0.40 -0.50 0.55 -0.50 0.10 0 0.20 0.25 0.20 0.50 0 0.30 -0.25 0.50 -0.55 0.50 -0.25 0 -0.35 -0.20 -0.20 -0.50z"/>
  <path d="M26 30.75 c0 -0.15 0.10 -0.25 0.25 -0.25 0.15 0 0.25 0.10 0.25 0.25 0 0.15 -0.10 0.25 -0.25 0.25 -0.15 0 -0.25 -0.10 -0.25 -0.25z"/>
  <path d="M21.15 15.15 c0.20 -0.15 0.50 -0.15 0.70 0 0.15 0.20 0 0.35 -0.35 0.35 -0.35 0 -0.50 -0.15 -0.35 -0.35z"/>
 </g>
 <g fill="#b49b84">
  <path d="M6.55 39.15 c1.90 -2.45 3.60 -4.30 3.35 -3.55 -0.20 0.45 -0.50 1.65 -0.70 2.60 -0.25 1.60 -0.50 1.80 -1.80 1.80 -1.35 0 -1.45 -0.10 -0.85 -0.85z"/>
  <path d="M16.65 36.50 c0.15 -1.90 0.50 -3.90 0.80 -4.35 0.45 -0.80 0.50 -0.80 0.55 -0.05 0 0.45 0.25 1 0.60 1.20 1.10 0.70 4.65 0.20 6.05 -0.80 2.35 -1.75 1.45 -0.20 -1.90 3.25 -1.80 1.85 -3.25 3.60 -3.25 3.80 0 0.25 -0.20 0.45 -0.50 0.45 -0.65 0 -0.65 -0.65 0.05 -1.35 0.30 -0.30 0.40 -0.80 0.25 -1.10 -0.60 -0.95 -1.15 -0.60 -1.45 0.95 -0.20 0.85 -0.60 1.50 -0.90 1.50 -0.45 0 -0.50 -1 -0.30 -3.50z m3.50 -1.10 c-0.30 -1.50 -1.65 -1.95 -1.65 -0.60 0 0.70 1.50 2.35 1.85 2.05 0 -0.05 -0.05 -0.70 -0.20 -1.45z"/>
  <path d="M34.50 39.50 c0 -0.25 -0.35 -0.50 -0.80 -0.50 -0.65 0 -0.55 -0.30 0.35 -1.55 l1.10 -1.60 0.90 1.70 c1.20 2.25 1.15 2.45 -0.30 2.45 -0.70 0 -1.25 -0.20 -1.25 -0.50z"/>
 </g>
 <g fill="#aeab90">
  <path d="M16.50 37.75 c0 -1.65 0.20 -2.25 0.75 -2.25 0.80 0 0.95 1.40 0.45 3.40 -0.50 1.85 -1.20 1.25 -1.20 -1.15z"/>
  <path d="M33 39.35 c0 -0.40 0.45 -1.10 1 -1.60 1 -0.90 1 -0.85 1 0.65 0 1.25 -0.20 1.60 -1 1.60 -0.55 0 -1 -0.30 -1 -0.65z"/>
  <path d="M24.75 32.50 c0.50 -0.55 1 -1 1.10 -1 0.10 0 -0.05 0.45 -0.35 1 -0.30 0.55 -0.80 1 -1.10 1 -0.30 0 -0.15 -0.45 0.35 -1z"/>
  <path d="M18 15 c0 -0.35 0.15 -0.50 0.35 -0.35 0.15 0.20 0.15 0.50 0 0.70 -0.20 0.15 -0.35 0 -0.35 -0.35z"/>
 </g>
 <g fill="#c3b3a1">
  <path d="M7.55 38.55 c0.30 -0.80 0.90 -1.80 1.40 -2.25 0.90 -0.80 0.90 -0.75 0.40 1.45 -0.40 1.65 -0.75 2.25 -1.40 2.25 -0.75 0 -0.85 -0.20 -0.40 -1.45z"/>
  <path d="M16.95 38.50 c-0.15 -2.15 0 -5 0.35 -5.95 0.15 -0.55 0.40 -0.50 0.90 0.25 0.95 1.25 4.95 1.20 6.35 -0.10 1.75 -1.60 0.95 -0.10 -1.60 2.95 -1.40 1.70 -2.70 3.35 -2.80 3.70 -0.30 0.70 -1.65 0.90 -1.65 0.25 0 -0.20 0.25 -0.65 0.60 -1 0.40 -0.40 0.40 -0.75 -0.10 -1.35 -0.80 -0.95 -0.25 -1.60 0.70 -0.80 0.50 0.40 0.80 0.45 1.05 0.05 0.15 -0.25 0.05 -0.50 -0.20 -0.50 -0.30 0 -0.55 -0.45 -0.55 -1 0 -1.20 -1.25 -1.35 -1.70 -0.20 -0.15 0.45 -0.30 1.40 -0.35 2.10 0 0.75 -0.20 1.80 -0.45 2.35 -0.35 0.85 -0.45 0.70 -0.55 -0.75z"/>
  <path d="M34.50 37 c0.30 -0.55 0.60 -1 0.70 -1 0.10 0 0.30 0.45 0.45 1 0.20 0.75 0 1 -0.70 1 -0.85 0 -0.90 -0.15 -0.45 -1z"/>
  <path d="M18 15.25 c0 -0.15 0.10 -0.25 0.25 -0.25 0.15 0 0.25 0.10 0.25 0.25 0 0.15 -0.10 0.25 -0.25 0.25 -0.15 0 -0.25 -0.10 -0.25 -0.25z"/>
  <path d="M21 15.25 c0 -0.15 0.10 -0.25 0.25 -0.25 0.15 0 0.25 0.10 0.25 0.25 0 0.15 -0.10 0.25 -0.25 0.25 -0.15 0 -0.25 -0.10 -0.25 -0.25z"/>
 </g>
 <g fill="#dcbc91">
  <path d="M16.95 38.50 c-0.25 -2.15 -0.05 -3.50 0.60 -3.50 0.55 0 0.55 2.85 0 4.25 -0.35 0.85 -0.45 0.70 -0.60 -0.75z"/>
  <path d="M33 39.70 c0 -0.50 1.70 -3.20 2.05 -3.20 0.35 0 1.45 2.30 1.45 3 0 0.30 -0.80 0.50 -1.75 0.50 -0.95 0 -1.75 -0.15 -1.75 -0.30z"/>
  <path d="M7.80 38.55 c-0.15 -0.25 0.15 -1 0.70 -1.60 0.75 -0.95 0.95 -1.05 1 -0.35 0 1.85 -1.05 3.05 -1.70 1.95z"/>
  <path d="M20.15 36.95 c0.70 -0.40 0.80 -0.70 0.35 -1.20 -0.35 -0.40 -0.45 -0.95 -0.25 -1.25 0.45 -0.70 2.75 -0.65 2.75 0.15 0 1.20 -1.55 2.85 -2.65 2.85 -1 -0.05 -1.05 -0.05 -0.20 -0.55z"/>
 </g>
 <g fill="#e8cead">
  <path d="M19.30 38.70 c0.20 -0.85 0.10 -1.45 -0.35 -1.75 -0.35 -0.20 -0.50 -0.55 -0.30 -0.80 0.25 -0.20 0.60 -0.05 0.85 0.35 0.40 0.65 0.60 0.60 1.35 -0.15 0.70 -0.70 0.75 -0.90 0.15 -0.75 -1.65 0.35 -0.65 -1.35 1.10 -1.85 1 -0.25 2 -0.65 2.20 -0.85 0.20 -0.25 0.55 -0.40 0.80 -0.40 0.25 0 -0.80 1.45 -2.35 3.25 -1.50 1.80 -2.75 3.50 -2.75 3.75 0 0.30 -0.25 0.50 -0.50 0.50 -0.30 0 -0.40 -0.55 -0.20 -1.30z"/>
  <path d="M33 39.55 c0 -0.30 0.55 -1.10 1.20 -1.85 l1.15 -1.40 0.25 1.85 c0.20 1.80 -0.25 2.45 -0.80 1.25 -0.25 -0.50 -0.35 -0.50 -0.60 0 -0.35 0.70 -1.20 0.80 -1.20 0.15z"/>
  <path d="M17 36.25 c0 -2.90 0.90 -5.80 1.05 -3.50 0.15 2.20 -0.15 5.55 -0.60 6 -0.25 0.25 -0.45 -0.70 -0.45 -2.50z"/>
  <path d="M9 36.25 c0 -0.15 0.10 -0.25 0.25 -0.25 0.15 0 0.25 0.10 0.25 0.25 0 0.15 -0.10 0.25 -0.25 0.25 -0.15 0 -0.25 -0.10 -0.25 -0.25z"/>
  <path d="M19 33.75 c0 -0.15 0.10 -0.25 0.25 -0.25 0.15 0 0.25 0.10 0.25 0.25 0 0.15 -0.10 0.25 -0.25 0.25 -0.15 0 -0.25 -0.10 -0.25 -0.25z"/>
 </g>
 <g fill="#f5dfc3">
  <path d="M19 39.55 c0 -0.30 0.25 -0.65 0.55 -0.80 0.35 -0.25 0.25 -0.75 -0.30 -1.55 -0.75 -1.20 -0.75 -1.20 0.20 -0.60 0.75 0.45 1.15 0.45 1.75 -0.05 1.15 -0.95 1 -1.70 -0.25 -1.30 -0.75 0.25 -1 0.15 -0.85 -0.30 0.25 -0.75 3.25 -1.80 3.75 -1.30 0.15 0.20 -0.65 1.45 -1.75 2.80 -1.15 1.35 -2.10 2.70 -2.10 3 0 0.30 -0.20 0.55 -0.50 0.55 -0.25 0 -0.50 -0.20 -0.50 -0.45z"/>
  <path d="M17 36.35 c0 -1.55 0.25 -2.95 0.55 -3.10 0.35 -0.25 0.45 0.55 0.30 2.45 -0.25 3.75 -0.85 4.20 -0.85 0.65z"/>
  <path d="M34 38 c0 -0.35 0.15 -0.50 0.35 -0.35 0.15 0.20 0.15 0.50 0 0.70 -0.20 0.15 -0.35 0 -0.35 -0.35z"/>
 </g>
</svg>