<?xml version="1.0" encoding="utf-8"?>
<!DOCTYPE svg PUBLIC "-//W3C//DTD SVG 1.0//EN" "http://www.w3.org/TR/2001/REC-SVG-20010904/DTD/svg10.dtd">
<svg version="1.0" xmlns="http://www.w3.org/2000/svg" width="40px" height="40px" viewBox="0 0 40 40" preserveAspectRatio="xMidYMid meet">
 <g fill="#10090e">
  <path d="M2 38.25 c0 -1.40 -0.20 -1.75 -1 -1.75 -1.20 0 -1.35 -1.55 -0.30 -2.45 0.40 -0.30 0.95 -1.25 1.30 -2.05 0.35 -0.85 1 -1.50 1.45 -1.50 0.50 0 1.30 -0.35 1.85 -0.75 0.50 -0.40 1.35 -0.75 1.85 -0.75 1.30 0 1.10 1.95 -0.25 2.45 -0.65 0.25 -1.60 0.65 -2.15 0.85 -0.90 0.35 -0.85 0.40 0.40 0.60 1.55 0.20 1.70 1.20 0.80 4.90 -0.55 2.05 -0.70 2.20 -2.25 2.20 -1.60 0 -1.70 -0.10 -1.70 -1.75z"/>
  <path d="M29.70 37.15 c0.40 -3.50 3 -8.65 4.35 -8.65 0.55 0 0.95 0.25 0.95 0.50 0 0.30 0.40 0.50 0.95 0.50 1.65 0 4.05 1.10 4.05 1.85 0 0.60 -0.45 0.70 -1.80 0.55 -1.75 -0.20 -1.80 -0.20 -3.50 3.40 -0.95 2 -1.70 3.85 -1.70 4.15 0 0.30 -0.80 0.55 -1.80 0.55 l-1.85 0 0.35 -2.85z"/>
  <path d="M23.50 32.45 c0 -1.95 1 -2.95 2.95 -2.95 1.40 0 1.55 0.15 1.55 1.55 0 0.85 -0.30 1.85 -0.70 2.25 -0.40 0.40 -1.40 0.70 -2.25 0.70 -1.40 0 -1.55 -0.15 -1.55 -1.55z"/>
  <path d="M26.50 26.20 c0 -1.45 0.30 -2.55 0.85 -3.10 0.80 -0.80 0.80 -0.85 0 -1 -0.65 -0.15 -0.85 -0.75 -0.85 -2.60 0 -1.35 0.25 -2.60 0.50 -2.75 1 -0.60 0.50 -3.05 -1 -4.65 -2.70 -3 -8.05 -4.60 -9.50 -2.85 -0.35 0.40 -1.25 0.75 -2.05 0.75 -1.45 0 -1.45 -0.05 -1.45 -3 0 -2.60 0.15 -3.10 1.40 -4.25 0.75 -0.70 1.95 -1.45 2.75 -1.60 0.75 -0.15 1.35 -0.50 1.35 -0.75 0 -0.55 4.55 -0.30 8.95 0.55 2.90 0.55 5.70 2.65 6.65 5.05 1.75 4.45 1.15 10.50 -1.40 13.85 -0.65 0.85 -1.20 1.80 -1.20 2.05 0 0.30 -0.65 1.05 -1.40 1.70 -1.95 1.65 -2.30 2.75 -1.10 3.50 1.45 0.95 1.20 1.40 -0.75 1.40 -1.75 0 -1.75 0 -1.75 -2.30z"/>
  <path d="M11.80 25.40 c-0.55 -2.10 -0.35 -2.90 0.70 -2.90 0.85 0 1 0.35 1 2 0 2.25 -1.15 2.85 -1.70 0.90z"/>
  <path d="M10.75 20.15 c-0.20 -0.95 -0.05 -1.60 0.70 -2.35 l1.05 -1 0 2.35 c0 2.65 -1.15 3.35 -1.75 1z"/>
  <path d="M20 17.30 c0 -0.65 0.15 -1.90 0.30 -2.75 0.30 -1.35 0.50 -1.55 2 -1.55 1.85 0 2.05 0.60 1.40 3.95 -0.30 1.35 -0.50 1.55 -2 1.55 -1.45 0 -1.70 -0.15 -1.70 -1.20z"/>
  <path d="M13 13.75 c0 -1.70 0.05 -1.75 2 -1.75 1.95 0 2 0.05 2 1.75 0 1.70 -0.05 1.75 -2 1.75 -1.95 0 -2 -0.05 -2 -1.75z"/>
 </g>
 <g fill="#1e1117">
  <path d="M29 39.10 c0 -1.80 0.65 -3.10 1.50 -3.10 0.50 0 1.05 0.30 1.15 0.65 0.20 0.50 0.30 0.50 0.30 0 0.05 -0.35 0.30 -0.65 0.55 -0.65 0.30 0 0.50 0.85 0.50 1.95 0 1.90 0 1.95 -2 1.95 -1.55 0.05 -2 -0.15 -2 -0.80z m2.35 -0.95 c-0.20 -0.15 -0.35 0 -0.35 0.35 0 0.35 0.15 0.50 0.35 0.35 0.15 -0.20 0.15 -0.50 0 -0.70z"/>
  <path d="M2.70 35.95 c0.50 -4.40 1.10 -5.45 3.15 -5.45 1.60 0 1.65 0.05 1.65 1.95 0 1.10 -0.20 2.10 -0.45 2.25 -0.25 0.20 -0.60 1.20 -0.80 2.30 -0.25 1.50 -0.60 2 -1.25 2 -0.50 0 -1.05 -0.30 -1.15 -0.60 -0.20 -0.50 -0.30 -0.50 -0.30 0 -0.05 0.30 -0.30 0.60 -0.60 0.60 -0.40 0 -0.50 -0.90 -0.25 -3.05z m1.65 -0.05 c-0.15 -0.40 -0.30 -0.25 -0.30 0.30 -0.05 0.55 0.10 0.85 0.25 0.65 0.15 -0.15 0.20 -0.60 0.05 -0.95z m0.65 -1.15 c0 -0.15 -0.10 -0.25 -0.25 -0.25 -0.15 0 -0.25 0.10 -0.25 0.25 0 0.15 0.10 0.25 0.25 0.25 0.15 0 0.25 -0.10 0.25 -0.25z"/>
  <path d="M13.35 38.65 c-0.20 -0.15 -0.35 -1.10 -0.35 -2 0 -1.65 0.05 -1.70 1.90 -1.55 1.75 0.15 1.85 0.25 2 2.05 0.15 1.80 0.10 1.85 -1.55 1.85 -0.90 0 -1.85 -0.15 -2 -0.35z"/>
  <path d="M20.80 33.65 c-0.55 -3.55 -0.45 -3.90 1.75 -4.85 1.45 -0.65 2.60 -0.80 4.25 -0.55 2.10 0.30 2.20 0.40 2.20 1.90 0 1.50 -1.35 3.35 -2.40 3.35 -0.20 0 -0.65 0.45 -1 1 -0.45 0.70 -1.15 1 -2.55 1 -1.85 0 -1.95 -0.10 -2.25 -1.85z m4.70 -1.40 c0 -0.15 -0.10 -0.25 -0.25 -0.25 -0.15 0 -0.25 0.10 -0.25 0.25 0 0.15 0.10 0.25 0.25 0.25 0.15 0 0.25 -0.10 0.25 -0.25z m1 -1 c0 -0.15 -0.10 -0.25 -0.25 -0.25 -0.15 0 -0.25 0.10 -0.25 0.25 0 0.15 0.10 0.25 0.25 0.25 0.15 0 0.25 -0.10 0.25 -0.25z"/>
  <path d="M32.50 30.75 c0 -1.55 0.15 -1.75 1.25 -1.75 0.95 0 1.15 0.20 0.90 0.90 -0.30 0.75 -0.25 0.75 0.50 0.15 0.75 -0.60 0.85 -0.50 0.85 0.90 0 1.20 -0.20 1.55 -1 1.55 -0.70 0 -0.90 -0.25 -0.70 -0.85 0.25 -0.85 0.25 -0.85 -0.45 0 -1.05 1.25 -1.35 1.05 -1.35 -0.90z"/>
  <path d="M37.50 31.25 c0 -1.40 0.15 -1.45 1.55 -0.75 1.40 0.75 1.20 2 -0.30 2 -1 0 -1.25 -0.25 -1.25 -1.25z"/>
  <path d="M11.65 31 c-0.20 -0.75 -0.70 -1 -1.95 -1 -2.30 0 -2.15 -0.90 0.30 -1.85 1.10 -0.45 2 -1 2 -1.25 0 -0.20 0.25 -0.40 0.50 -0.40 0.30 0 0.50 0.30 0.50 0.70 0 0.40 0.50 0.80 1.15 0.90 0.90 0.10 1.15 0.50 1.25 2.05 0.15 1.85 0.15 1.85 -1.65 1.85 -1.40 0 -1.90 -0.25 -2.10 -1z"/>
  <path d="M11.80 24.40 c-0.50 -1.90 -0.35 -2.40 0.70 -2.40 0.80 0 1 0.35 1 1.75 0 2 -1.20 2.45 -1.70 0.65z"/>
  <path d="M29 23.25 c0 -0.50 -0.50 -0.75 -1.50 -0.75 -1.40 0 -1.50 -0.10 -1.50 -2 0 -1.45 0.20 -2 0.75 -2 0.40 0 0.75 -0.15 0.80 -0.35 0 -0.25 0.05 -1.60 0.10 -3 0.10 -2.45 0 -2.70 -1.20 -3.10 -0.80 -0.25 -1.45 -0.95 -1.65 -1.75 -0.20 -0.80 -0.65 -1.30 -1.25 -1.30 -0.50 0 -1.05 -0.15 -1.25 -0.35 -0.20 -0.20 -1.15 -0.30 -2.15 -0.20 -1.10 0.10 -1.95 -0.10 -2.20 -0.55 -0.35 -0.50 -0.45 -0.45 -0.45 0.25 0 0.50 -0.40 0.85 -1 0.85 -0.55 0 -1 0.35 -1 0.75 0 0.45 -0.45 0.75 -1.25 0.75 -1.20 0 -1.25 -0.10 -1.25 -3.20 0 -3 0.10 -3.30 1.55 -4.55 0.90 -0.70 2.25 -1.45 3 -1.60 0.80 -0.15 1.45 -0.45 1.45 -0.70 0 -0.25 0.70 -0.45 1.50 -0.45 2.30 0 1.80 0.75 -1 1.45 -2.75 0.70 -3.90 1.60 -1.35 1.10 3.15 -0.70 7.90 1.35 12.05 5.20 1.25 1.15 1.35 1.50 1.05 3.40 -0.45 2.60 -1.20 4.15 -1.25 2.45 0 -1.65 -3.55 -5.20 -6.80 -6.80 -2.45 -1.20 -3.10 -1.35 -5.40 -1 -1.40 0.25 -2.85 0.40 -3.15 0.35 -0.40 0 -0.65 0.50 -0.65 1.25 0 1.25 0 1.25 1.05 0.30 2.45 -2.25 10.25 -0.20 12.90 3.35 1.30 1.70 1.65 6.05 0.60 7.10 -0.30 0.30 -0.55 1 -0.55 1.55 0 0.85 0.25 0.75 1.45 -0.70 0.80 -1 1.30 -2.05 1.15 -2.50 -0.25 -0.60 -0.15 -0.60 0.50 0.05 0.50 0.50 0.75 1.30 0.60 2 -0.10 0.65 0.30 0.20 0.90 -1.05 0.70 -1.45 1.15 -3.50 1.30 -5.80 0.25 -4.15 -0.80 -6.75 -3.50 -8.90 -1 -0.80 -1.35 -1.30 -0.90 -1.30 1.30 0 4.35 3.60 4.95 5.75 0.75 2.80 0.70 6.75 -0.20 9.25 -1.40 3.95 -5.25 8.90 -5.25 6.75z"/>
  <path d="M10.85 20.05 c-0.25 -1 0.45 -2.55 1.15 -2.55 0.30 0 0.50 0.80 0.50 1.75 0 1.90 -1.20 2.50 -1.65 0.80z"/>
  <path d="M19.80 17.15 c-0.65 -4 -0.55 -4.15 2.20 -4.15 l2.50 0 0 1.75 c0 0.95 -0.20 1.75 -0.50 1.75 -0.25 0 -0.50 0.55 -0.50 1.25 0 1.10 -0.20 1.25 -1.70 1.25 -1.55 0 -1.70 -0.15 -2 -1.85z m2.20 -0.40 c0 -0.15 -0.10 -0.25 -0.25 -0.25 -0.15 0 -0.25 0.10 -0.25 0.25 0 0.15 0.10 0.25 0.25 0.25 0.15 0 0.25 -0.10 0.25 -0.25z m0.50 -2 c0 -0.15 -0.10 -0.25 -0.25 -0.25 -0.15 0 -0.25 0.10 -0.25 0.25 0 0.15 0.10 0.25 0.25 0.25 0.15 0 0.25 -0.10 0.25 -0.25z"/>
  <path d="M13 14.50 c0 -2.95 0 -3 1.45 -3 1.25 0 1.45 0.20 1.75 1.90 0.60 3.75 0.50 4.10 -1.45 4.10 l-1.75 0 0 -3z m2.35 -0.85 c-0.20 -0.15 -0.50 -0.15 -0.70 0 -0.15 0.20 0 0.35 0.35 0.35 0.35 0 0.50 -0.15 0.35 -0.35z"/>
  <path d="M27 1.25 c0 -0.15 0.10 -0.25 0.25 -0.25 0.15 0 0.25 0.10 0.25 0.25 0 0.15 -0.10 0.25 -0.25 0.25 -0.15 0 -0.25 -0.10 -0.25 -0.25z"/>
 </g>
 <g fill="#392013">
  <path d="M12.50 39.25 c0 -0.45 0.45 -0.75 1.25 -0.75 0.80 0 1.25 0.30 1.25 0.75 0 0.45 -0.45 0.75 -1.25 0.75 -0.80 0 -1.25 -0.30 -1.25 -0.75z"/>
  <path d="M15.50 38.50 c0 -0.25 -0.55 -0.50 -1.25 -0.50 -1.10 0 -1.25 -0.20 -1.25 -2 0 -1.65 0.15 -2 1 -2 1.20 0 0.80 -1.35 -0.55 -1.75 -0.65 -0.20 -0.95 -0.80 -0.95 -1.80 0 -1.10 -0.25 -1.45 -1 -1.45 -1.15 0 -1.35 -0.75 -0.25 -1.20 0.85 -0.30 1 -3.05 0.25 -5 -0.45 -1.15 -0.35 -1.30 0.75 -1.30 1 0 1.20 0.25 1.35 1.90 0.15 1.60 0.35 1.85 1.50 2 1.05 0.15 1.35 0.45 1.50 1.65 l0.15 1.45 1.50 -1.30 c1 -0.80 1.30 -1.35 0.90 -1.50 -0.35 -0.15 -0.65 -0.70 -0.65 -1.25 0 -0.70 -0.35 -0.95 -1.25 -0.95 -1.10 0 -1.25 -0.20 -1.25 -2 0 -1.65 0.15 -2 0.95 -2 1.50 0 2.55 -0.55 2.55 -1.30 0 -0.40 -0.45 -0.70 -0.95 -0.70 -0.55 0 -1.10 -0.40 -1.20 -0.85 -0.20 -0.75 -0.25 -0.75 -0.30 -0.10 -0.05 0.75 -2.20 1.45 -4.70 1.45 -0.85 0 -0.85 -0.10 -0.15 -1.10 0.45 -0.60 0.80 -1.65 0.80 -2.25 0 -1 0.20 -1.15 1.40 -0.90 l1.35 0.25 -1.35 -0.60 c-1.20 -0.50 -1.40 -0.85 -1.35 -2.60 0.05 -1.15 0.25 -2.70 0.50 -3.55 l0.40 -1.50 -0.15 1.60 c-0.10 1.50 -0.05 1.55 0.65 0.95 2.05 -1.85 6.55 -2.20 6.55 -0.50 0 0.50 -0.60 0.70 -2 0.70 -1.10 0 -2 0.25 -2 0.50 0 0.30 -0.45 0.50 -1 0.50 -0.65 0 -1 0.35 -1 1 0 0.55 0.25 1 0.55 1 0.70 0 1.95 1.25 1.95 1.95 0 0.80 0.85 0.65 1.20 -0.20 0.30 -0.75 4.35 -1.10 6 -0.45 1.05 0.40 1.15 4.20 0.10 4.20 -0.40 0 -0.85 0.55 -1 1.25 -0.20 0.70 -0.65 1.25 -1.05 1.25 -0.50 0 -0.75 0.55 -0.75 1.75 0 1.20 0.25 1.75 0.75 1.75 0.40 0 0.75 0.40 0.75 0.95 0 0.55 0.45 1.05 1.15 1.25 1.70 0.45 1.85 0.40 1.85 -0.95 0 -0.70 -0.20 -1.25 -0.50 -1.25 -0.75 0 -0.60 -2.95 0.30 -5.35 0.60 -1.45 1.15 -2.15 1.75 -2.15 1 0 1.35 1.90 0.50 2.80 -0.25 0.25 -0.60 1 -0.80 1.70 -0.30 1.10 -0.05 0.95 1.90 -0.95 l2.30 -2.20 -0.45 1.90 c-0.55 2.35 0.30 1.65 1.25 -1.05 0.65 -1.80 0.70 -1.85 0.75 -0.55 0 1.50 -2 4.80 -4.20 6.80 -1.45 1.35 -1.70 2.80 -0.55 3.25 0.95 0.35 1 1.80 0.05 1.80 -0.35 0 -0.80 0.45 -0.95 1 -0.15 0.65 -0.50 0.90 -1.05 0.70 -0.45 -0.15 -0.80 -0.05 -0.80 0.25 0 0.70 -3.65 2.55 -5 2.55 -0.55 0 -1 0.25 -1 0.50 0 0.30 0.35 0.50 0.75 0.50 0.55 0 0.75 0.55 0.75 1.95 0 1.75 -0.15 1.95 -1.55 2.25 -2.35 0.45 -4.45 0.35 -4.45 -0.20z m0 -1.20 c0 -0.15 -0.25 -0.40 -0.60 -0.60 -0.35 -0.20 -0.40 -0.15 -0.20 0.20 0.35 0.60 0.80 0.80 0.80 0.40z m2.35 -2.10 c-0.15 -0.15 -0.60 -0.20 -0.95 -0.05 -0.40 0.15 -0.25 0.30 0.30 0.30 0.55 0.05 0.85 -0.10 0.65 -0.25z m4.65 -3.95 c0 -0.15 -0.10 -0.25 -0.25 -0.25 -0.15 0 -0.25 0.10 -0.25 0.25 0 0.15 0.10 0.25 0.25 0.25 0.15 0 0.25 -0.10 0.25 -0.25z m1.35 -0.60 c-0.20 -0.15 -0.50 -0.15 -0.70 0 -0.15 0.20 0 0.35 0.35 0.35 0.35 0 0.50 -0.15 0.35 -0.35z m-9.85 -0.35 c0 -0.15 -0.25 -0.40 -0.60 -0.60 -0.35 -0.20 -0.40 -0.15 -0.20 0.20 0.35 0.60 0.80 0.80 0.80 0.40z m11.25 -0.30 c0.15 -0.25 0.20 -0.50 0.05 -0.50 -0.15 0 -0.40 0.25 -0.55 0.50 -0.15 0.30 -0.20 0.50 -0.05 0.50 0.15 0 0.40 -0.20 0.55 -0.50z m2.25 0.25 c0 -0.15 -0.10 -0.25 -0.25 -0.25 -0.15 0 -0.25 0.10 -0.25 0.25 0 0.15 0.10 0.25 0.25 0.25 0.15 0 0.25 -0.10 0.25 -0.25z m-5.65 -13.60 c-0.20 -0.15 -0.35 0 -0.35 0.35 0 0.35 0.15 0.50 0.35 0.35 0.15 -0.20 0.15 -0.50 0 -0.70z m-6.85 -0.90 c0 -0.15 -0.10 -0.25 -0.25 -0.25 -0.15 0 -0.25 0.10 -0.25 0.25 0 0.15 0.10 0.25 0.25 0.25 0.15 0 0.25 -0.10 0.25 -0.25z m7.65 -1.10 c-0.35 -0.10 -0.95 -0.10 -1.25 0 -0.35 0.15 -0.10 0.25 0.60 0.25 0.70 0 0.95 -0.10 0.65 -0.25z"/>
  <path d="M26.85 13.65 c-0.20 -0.15 -0.35 -0.95 -0.35 -1.75 0 -1.15 -0.20 -1.40 -1.25 -1.40 -2.05 0 -3.75 -1.05 -3.75 -2.35 0 -1.15 0 -1.15 1.90 -0.40 3.70 1.55 7.25 6.25 4.70 6.25 -0.50 0 -1.10 -0.15 -1.25 -0.35z"/>
  <path d="M29.35 11.50 c-0.55 -0.80 -0.65 -1.30 -0.30 -1.45 0.80 -0.25 1.55 0.70 1.35 1.75 -0.15 0.85 -0.25 0.80 -1.05 -0.30z"/>
  <path d="M25.75 8 c-1.15 -0.45 -2.60 -2 -1.90 -2 1 0 3.15 1.30 3.15 1.90 0 0.30 -0.05 0.60 -0.10 0.55 -0.10 0 -0.60 -0.20 -1.15 -0.45z"/>
  <path d="M16 5.50 c0 -0.25 0.60 -0.50 1.40 -0.45 1.20 0 1.25 0.05 0.35 0.45 -1.35 0.60 -1.75 0.60 -1.75 0z"/>
  <path d="M20.15 5.15 c0.20 -0.15 0.50 -0.15 0.70 0 0.15 0.20 0 0.35 -0.35 0.35 -0.35 0 -0.50 -0.15 -0.35 -0.35z"/>
  <path d="M31.85 4.15 c-0.20 -0.15 -0.35 -0.55 -0.35 -0.85 0 -0.30 0.25 -0.25 0.60 0.10 0.30 0.30 0.45 0.70 0.35 0.85 -0.15 0.15 -0.45 0.10 -0.60 -0.10z"/>
  <path d="M30 2.25 c-0.55 -0.65 -0.50 -0.70 0.20 -0.45 0.45 0.15 0.80 0.50 0.80 0.75 0 0.65 -0.30 0.55 -1 -0.30z"/>
 </g>
 <g fill="#2a182b">
  <path d="M2.50 38.55 c0 -2.05 1.10 -6.55 1.60 -6.55 0.20 0 0.40 -0.30 0.40 -0.70 0 -0.95 1.70 -1.90 5.15 -3 2.10 -0.65 2.85 -1.05 2.65 -1.60 -0.15 -0.40 0.05 -0.70 0.45 -0.70 0.40 0 0.75 0.35 0.75 0.75 0 0.40 0.25 0.75 0.50 0.75 0.30 0 0.50 0.30 0.50 0.70 0 0.35 0.70 0.80 1.55 1 1.65 0.30 1.55 1.30 -0.20 1.30 -0.65 0 -0.85 0.15 -0.55 0.40 0.30 0.20 0.80 0.80 1.15 1.35 0.60 1 0.60 1 0.35 0 -0.25 -0.85 0.15 -1.15 2.60 -1.95 1.60 -0.50 3.35 -0.80 3.90 -0.70 0.80 0.15 0.75 0.30 -0.55 1.05 -1.80 1 -1.30 1.10 0.90 0.20 0.90 -0.40 1.95 -1.10 2.35 -1.65 0.70 -0.90 0.70 -0.90 -0.20 -0.20 -0.90 0.70 -0.95 0.65 -0.60 -0.75 0.45 -1.85 1.20 -2.75 2.15 -2.75 0.50 0 0.70 0.35 0.50 1 -0.15 0.55 -0.05 0.90 0.20 0.75 0.20 -0.15 1.10 0.05 1.90 0.50 0.85 0.40 2.30 0.75 3.30 0.75 0.95 0 1.75 0.10 1.75 0.25 0 0.15 -0.80 1.85 -1.75 3.75 -0.95 1.90 -1.75 3.75 -1.75 4.10 0 0.35 0.80 -0.95 1.75 -2.95 0.95 -1.95 2 -3.75 2.30 -3.90 1.20 -0.80 1.05 0.45 -0.45 3.55 -0.90 1.75 -1.60 3.70 -1.60 4.25 0 0.95 -1.05 2.45 -1.70 2.45 -0.15 0 -0.30 -0.60 -0.35 -1.35 l-0.05 -1.40 -0.50 1.40 c-0.25 0.75 -0.85 1.35 -1.25 1.35 -1.10 0 -0.45 -4.45 1.15 -7.55 1.20 -2.40 1.20 -2.45 0.20 -2.45 -0.55 0 -1.15 0.35 -1.30 0.75 -0.15 0.40 -0.70 0.85 -1.15 1 -0.50 0.15 -1.20 0.85 -1.55 1.50 -0.35 0.70 -1.10 1.25 -1.60 1.25 -0.50 0 -0.90 0.35 -0.90 0.75 0 0.55 -0.55 0.75 -2 0.75 -1.70 0 -2 -0.15 -2.05 -1.10 -0.05 -0.85 -0.10 -0.95 -0.30 -0.25 -0.15 0.55 -0.75 0.90 -1.80 0.90 -1.50 0.10 -1.55 0.10 -0.20 0.30 1.15 0.20 1.35 0.45 1.35 1.95 0 1.60 -0.10 1.70 -1.85 1.75 -1.05 0.05 -2.75 0.15 -3.75 0.25 -1.75 0.15 -1.90 0.05 -1.90 -1.05 0 -0.80 0.30 -1.25 0.80 -1.25 0.65 0 0.75 -0.35 0.55 -1.60 -0.70 -4 -1 -4.90 -1.65 -4.90 -0.40 0 -0.70 -0.40 -0.75 -0.85 0 -0.55 -0.15 -0.65 -0.30 -0.25 -0.10 0.30 -0.50 0.60 -0.85 0.60 -0.35 0 -0.90 0.80 -1.30 1.75 -0.40 0.95 -0.85 1.75 -1.05 1.75 -0.15 0 -0.60 1.35 -1 3 -0.50 2.25 -0.85 3 -1.50 3 -0.50 0 -0.95 -0.50 -1.10 -1.10 l-0.20 -1.15 -0.10 1.15 c-0.10 1.65 -1.05 1.35 -1.05 -0.35z m2.40 -4.05 c0 -0.45 -0.15 -0.35 -0.40 0.25 -0.25 0.55 -0.40 1.45 -0.40 2 0 0.80 0.10 0.75 0.40 -0.25 0.20 -0.70 0.40 -1.60 0.40 -2z m10.25 2 c-0.15 -0.60 -0.40 -0.95 -0.55 -0.80 -0.25 0.30 0.25 1.80 0.60 1.80 0.10 0 0.10 -0.45 -0.05 -1z m2.70 0.65 c-0.20 -0.15 -0.50 -0.15 -0.70 0 -0.15 0.20 0 0.35 0.35 0.35 0.35 0 0.50 -0.15 0.35 -0.35z m6.20 -4 c0.65 -0.75 0.60 -0.75 -0.40 -0.20 -1.20 0.60 -1.45 1.05 -0.70 1.05 0.25 0 0.75 -0.35 1.10 -0.85z m-18.15 -0.90 c-0.15 -0.15 -0.45 0.10 -0.60 0.60 -0.30 0.70 -0.25 0.75 0.25 0.30 0.35 -0.35 0.50 -0.75 0.35 -0.90z m12.45 0.40 c-0.20 -0.15 -0.35 0 -0.35 0.35 0 0.35 0.15 0.50 0.35 0.35 0.15 -0.20 0.15 -0.50 0 -0.70z m8.20 -1.45 c0.65 -0.70 0.85 -1.15 0.45 -0.95 -0.65 0.25 -2.30 2.25 -1.85 2.25 0.10 0 0.70 -0.55 1.40 -1.30z m-5.55 0.55 c0 -0.15 -0.10 -0.25 -0.25 -0.25 -0.15 0 -0.25 0.10 -0.25 0.25 0 0.15 0.10 0.25 0.25 0.25 0.15 0 0.25 -0.10 0.25 -0.25z m-6.50 -1.45 c0 -0.10 -0.35 -0.35 -0.80 -0.50 -0.40 -0.15 -0.60 -0.10 -0.45 0.20 0.30 0.50 1.25 0.70 1.25 0.30z m12 -3.05 c0 -0.15 -0.10 -0.25 -0.25 -0.25 -0.15 0 -0.25 0.10 -0.25 0.25 0 0.15 0.10 0.25 0.25 0.25 0.15 0 0.25 -0.10 0.25 -0.25z"/>
  <path d="M30 20.55 c0 -1.40 0.20 -2.05 0.65 -2.05 0.50 0 0.65 0.60 0.60 1.85 -0.15 2.60 -1.25 2.75 -1.25 0.20z"/>
  <path d="M31.50 20.70 c0 -0.70 1.35 -2.50 1.65 -2.20 0.15 0.15 -0.15 0.80 -0.65 1.50 -0.55 0.70 -1 1 -1 0.70z"/>
  <path d="M33.20 16.65 c1.55 -6.55 1.50 -8.50 -0.50 -11.40 -1.55 -2.30 -1.55 -2.75 0 -1.30 1.30 1.20 2.30 4.70 2.30 7.85 0 2.35 -1 6.20 -1.60 6.20 -0.30 0 -0.40 -0.55 -0.20 -1.35z"/>
  <path d="M26.85 11.75 c-1.05 -1.25 -2.20 -2.25 -2.55 -2.25 -0.35 0 -1.05 -0.45 -1.55 -1 -0.50 -0.55 -1.40 -1.05 -1.95 -1.05 -0.80 -0.05 -0.85 -0.10 -0.20 -0.30 1.30 -0.35 5.70 2.15 7.15 4.10 2.05 2.65 1.25 3.10 -0.90 0.50z"/>
  <path d="M28.35 10.25 c-1.05 -1.25 -2.15 -2.25 -2.45 -2.25 -0.35 0 -1.05 -0.40 -1.60 -0.90 -1.55 -1.40 -4.95 -2.20 -6.55 -1.60 -1.85 0.70 -2.75 0.60 -2.75 -0.30 0 -0.55 0.30 -0.70 1 -0.45 0.60 0.20 1 0.10 1 -0.25 0 -0.30 -0.60 -0.50 -1.35 -0.40 -1.25 0.15 -1.45 0.40 -1.65 2.50 -0.20 1.60 -0.15 2.25 0.20 1.90 0.80 -0.80 1.30 -0.60 1.30 0.50 0 0.75 -0.35 1 -1.25 1 -1.20 0 -1.25 -0.15 -1.25 -2.80 0 -2.40 0.20 -2.95 1.45 -4.20 0.80 -0.80 2.05 -1.60 2.85 -1.80 0.80 -0.20 1.60 -0.55 1.75 -0.85 0.20 -0.25 0.60 -0.30 0.95 -0.10 0.60 0.40 -1.55 1.75 -2.80 1.75 -0.35 0 -0.75 0.20 -0.95 0.45 -0.15 0.30 1.10 0.45 3.10 0.45 3.95 -0.10 5.65 0.60 5.65 2.35 0 0.65 0.25 1.35 0.50 1.50 0.30 0.15 0.50 -0.05 0.50 -0.45 0 -1.35 1.05 -0.90 3.10 1.20 1.85 2 2.25 3.15 1.50 4.35 -0.30 0.45 -0.95 -0.05 -2.25 -1.60z"/>
  <path d="M16.05 7.30 c0.60 -0.50 3 -0.80 2.70 -0.30 -0.15 0.25 -0.90 0.50 -1.60 0.50 -0.75 0 -1.20 -0.10 -1.10 -0.20z"/>
  <path d="M29.50 1.75 c0 -0.15 0.10 -0.25 0.25 -0.25 0.15 0 0.25 0.10 0.25 0.25 0 0.15 -0.10 0.25 -0.25 0.25 -0.15 0 -0.25 -0.10 -0.25 -0.25z"/>
 </g>
 <g fill="#412c18">
  <path d="M14 38.80 c0 -1.05 0.20 -1.20 1.65 -1.15 1.25 0.10 1.65 0.35 1.75 1.25 0.15 0.95 -0.05 1.10 -1.60 1.10 -1.55 0 -1.80 -0.15 -1.80 -1.20z"/>
  <path d="M17.80 37.20 c-0.75 -1.95 -0.35 -2.70 1.45 -2.70 1.65 0 1.75 0.10 1.75 1.75 0 1.60 -0.15 1.75 -1.45 1.75 -0.85 0 -1.55 -0.30 -1.75 -0.80z m2.05 -1.05 c-0.20 -0.15 -0.35 0 -0.35 0.35 0 0.35 0.15 0.50 0.35 0.35 0.15 -0.20 0.15 -0.50 0 -0.70z"/>
  <path d="M15 32.15 l0 -1.40 1.05 1.25 c1 1.20 1 1.20 0.70 0.15 -0.25 -0.95 -0.10 -1.15 0.70 -1.15 1.10 0 1.25 0.40 0.75 1.70 -0.20 0.50 -0.90 0.80 -1.75 0.80 -1.25 0 -1.45 -0.20 -1.45 -1.35z"/>
  <path d="M15 30.10 c0 -0.20 -0.80 -0.70 -1.80 -1.05 -1.30 -0.45 -1.60 -0.80 -1.25 -1.25 0.30 -0.35 0.40 -1.10 0.20 -1.70 -0.25 -1 -0.05 -1.10 1.50 -1.10 1 0 1.95 0.25 2.10 0.50 0.15 0.30 0.70 0.50 1.25 0.50 0.70 0 0.95 0.45 1.10 1.95 0.15 1.65 0 2.05 -0.85 2.25 -1.45 0.40 -2.25 0.35 -2.25 -0.10z m0 -2.85 c0 -0.15 -0.10 -0.25 -0.25 -0.25 -0.15 0 -0.25 0.10 -0.25 0.25 0 0.15 0.10 0.25 0.25 0.25 0.15 0 0.25 -0.10 0.25 -0.25z"/>
  <path d="M25.35 27.65 c0.20 -0.55 0.15 -0.70 -0.25 -0.45 -0.40 0.25 -0.60 -0.05 -0.60 -0.90 0 -1.15 0.20 -1.30 1.75 -1.30 1.85 0 2.20 0.70 1.25 2.55 -0.65 1.20 -2.60 1.35 -2.15 0.10z m1.15 -0.40 c0 -0.15 -0.10 -0.25 -0.25 -0.25 -0.15 0 -0.25 0.10 -0.25 0.25 0 0.15 0.10 0.25 0.25 0.25 0.15 0 0.25 -0.10 0.25 -0.25z"/>
  <path d="M11.50 22.55 c-0.85 -1.65 -0.60 -4.30 0.50 -5.30 1 -0.90 1 -0.85 1 2.65 0 3.60 -0.50 4.45 -1.50 2.65z"/>
  <path d="M15.50 21.75 c0 -1.65 0.10 -1.75 1.75 -1.75 0.95 0 1.75 0.25 1.75 0.50 0 0.30 -0.35 0.50 -0.75 0.50 -0.40 0 -0.75 0.25 -0.75 0.55 0 0.30 0.35 0.45 0.75 0.25 0.50 -0.20 0.75 0.05 0.75 0.70 0 0.80 -0.35 1 -1.75 1 -1.65 0 -1.75 -0.10 -1.75 -1.75z"/>
  <path d="M29.50 21.65 c0 -1.30 0.35 -2.45 1 -3.20 l0.95 -1.20 -0.15 2.45 c-0.10 1.35 -0.55 2.75 -1 3.20 -0.75 0.75 -0.80 0.65 -0.80 -1.25z"/>
  <path d="M32 19.65 c0 -0.20 0.25 -0.75 0.50 -1.15 0.40 -0.65 0.50 -0.65 0.50 0.10 0 0.45 -0.20 1 -0.50 1.15 -0.25 0.15 -0.50 0.15 -0.50 -0.10z"/>
  <path d="M18.25 17.40 c-0.55 -0.35 -1.75 -0.55 -2.70 -0.45 -1.75 0.15 -2.55 -0.50 -2.55 -2.15 0 -0.75 0.25 -0.85 1.55 -0.60 1.35 0.25 1.50 0.20 0.95 -0.40 -0.30 -0.40 -1.05 -0.85 -1.65 -0.95 -0.60 -0.10 0.10 -0.25 1.55 -0.30 1.45 0 2.60 0.15 2.60 0.45 0 0.30 0.85 0.50 1.90 0.50 1.65 0.05 1.75 0.10 0.85 0.65 -0.90 0.55 -0.85 0.60 0.75 0.85 1.45 0.20 1.80 0.50 1.90 1.65 0.15 1 -0.05 1.35 -0.65 1.35 -0.55 0 -0.75 -0.25 -0.60 -0.70 0.15 -0.40 -0.05 -0.85 -0.45 -1 -0.45 -0.20 -0.70 0.05 -0.70 0.70 0 1.15 -1.20 1.30 -2.75 0.40z m-2.75 -1.60 c0 -0.15 -0.20 -0.40 -0.50 -0.55 -0.25 -0.15 -0.50 -0.05 -0.50 0.20 0 0.30 0.25 0.55 0.50 0.55 0.30 0 0.50 -0.10 0.50 -0.20z m4 -0.05 c0 -0.15 -0.10 -0.25 -0.25 -0.25 -0.15 0 -0.25 0.10 -0.25 0.25 0 0.15 0.10 0.25 0.25 0.25 0.15 0 0.25 -0.10 0.25 -0.25z"/>
  <path d="M18.40 8.65 c-1.95 -0.20 -2.75 -1.60 -1 -1.70 2.95 -0.25 6.10 0.55 6.10 1.55 0 0.50 -1.40 0.50 -5.10 0.15z"/>
 </g>
 <g fill="#421345">
  <path d="M3.05 37.80 c-0.05 -3.20 0.80 -6.05 2.35 -7.55 1.70 -1.70 1.90 -1.25 0.55 1.35 -0.65 1.15 -1.55 3.60 -2 5.40 l-0.85 3.25 -0.05 -2.45z"/>
  <path d="M4.60 37.65 c0.15 -1.35 0.90 -3.80 1.70 -5.50 1.25 -2.70 1.70 -3.15 3.45 -3.70 1.10 -0.35 2.25 -0.90 2.55 -1.30 0.45 -0.50 0.90 -0.30 2.40 1.15 1 0.95 1.80 1.85 1.80 1.95 0 0.55 -1.90 0.20 -3 -0.60 -1.20 -0.80 -1.20 -0.80 -0.50 0.05 0.40 0.55 1.05 1.55 1.35 2.25 0.55 1.05 0.60 1.10 0.35 0.20 -0.15 -0.65 -0.05 -1.15 0.20 -1.15 0.25 0 0.85 0.50 1.25 1.15 0.80 1.10 0.80 1.10 0.80 0.05 0.05 -1.15 1.20 -1.70 3.80 -1.70 0.85 0 1.80 -0.25 2.15 -0.60 0.30 -0.30 0.70 -0.45 0.90 -0.30 0.15 0.20 -0.55 0.80 -1.65 1.35 -1.05 0.55 -1.60 1 -1.25 1.05 0.80 0 4.55 -1.85 5.75 -2.90 0.45 -0.40 0.85 -0.50 0.85 -0.20 0 0.30 -1.30 1.65 -2.85 3.05 -1.60 1.40 -2.65 2.55 -2.30 2.55 0.30 0 1.85 -1.20 3.40 -2.70 2.10 -1.95 2.80 -2.95 2.55 -3.55 -0.25 -0.70 -0.10 -0.80 0.80 -0.50 0.65 0.20 2.20 0.50 3.50 0.60 l2.35 0.25 -1.90 3.80 c-1.05 2.15 -2.05 4.70 -2.25 5.75 l-0.35 1.85 -6.85 0 c-4.70 0 -7.10 -0.20 -7.50 -0.60 -0.45 -0.45 -0.60 -0.45 -0.60 0 0 0.80 -1.35 0.75 -1.65 0 -0.20 -0.50 -0.30 -0.50 -0.30 0 -0.05 0.45 -1.30 0.60 -4.60 0.60 l-4.60 0 0.25 -2.35z m10.70 -0.90 c0 -0.70 -0.20 -1.25 -0.40 -1.25 -0.50 0 -0.50 0.65 -0.10 1.70 0.45 1.15 0.60 1 0.50 -0.45z m2.70 0.75 c0 -0.25 -0.20 -0.50 -0.50 -0.50 -0.25 0 -0.50 0.25 -0.50 0.50 0 0.30 0.25 0.50 0.50 0.50 0.30 0 0.50 -0.20 0.50 -0.50z m2 -1 c0 -0.25 -0.25 -0.50 -0.55 -0.50 -0.25 0 -0.35 0.25 -0.20 0.50 0.15 0.30 0.40 0.50 0.55 0.50 0.10 0 0.20 -0.20 0.20 -0.50z m-1.35 -3.50 c0.15 -0.55 0.05 -0.90 -0.20 -0.70 -0.25 0.15 -0.45 0.60 -0.45 1 0 1 0.35 0.85 0.65 -0.30z"/>
  <path d="M31.65 38.20 c0.35 -2 3.05 -7.95 3.85 -8.45 1 -0.60 0.45 1.35 -1.25 4.75 -0.95 1.90 -1.75 3.95 -1.75 4.50 0 0.55 -0.25 1 -0.55 1 -0.40 0 -0.50 -0.60 -0.30 -1.80z"/>
  <path d="M25 29.10 c0 -1.05 0.60 -2.10 1.05 -1.80 0.25 0.15 0.45 -0.10 0.45 -0.50 0 -0.45 0.35 -0.80 0.75 -0.80 0.90 0 0.95 0.55 0.15 1.55 -1.05 1.25 -2.40 2.10 -2.40 1.55z"/>
  <path d="M32.75 5 c-0.50 -0.55 -0.70 -1 -0.45 -1 0.25 0 0.75 0.45 1.10 1 0.35 0.55 0.55 1 0.45 1 -0.10 0 -0.60 -0.45 -1.10 -1z"/>
 </g>
 <g fill="#512f1a">
  <path d="M14.15 38.70 c0 -0.80 0.10 -1.05 0.35 -0.70 0.50 0.85 1.10 -0.20 0.70 -1.25 -0.25 -0.55 0 -0.90 0.75 -1.10 1 -0.25 1.50 -1.15 0.65 -1.15 -0.50 0 -1.70 -3.10 -1.30 -3.45 0.10 -0.15 0.35 0.25 0.55 0.85 0.30 1.30 1.15 1.45 1.15 0.20 0 -0.45 0.60 -1.15 1.40 -1.45 1.60 -0.75 5.25 -3.65 4.90 -4 -0.10 -0.10 -1.35 0.60 -2.70 1.60 -4.90 3.50 -8.30 2.65 -8.50 -2.15 -0.05 -1.40 -0.35 -3.15 -0.60 -3.90 -0.70 -1.85 -0.15 -4.55 1.05 -4.85 0.60 -0.15 1.10 -0.85 1.25 -1.80 0.20 -0.85 0.55 -1.55 0.80 -1.55 0.25 0 0.30 0.45 0.15 1 -0.40 1.25 0.30 1.30 1.10 0.05 0.50 -0.80 0.35 -1.05 -1.10 -1.80 -1.55 -0.90 -1.65 -1.05 -1.70 -3.85 0 -1.60 0.15 -2.90 0.40 -2.90 0.20 0 0.30 0.60 0.15 1.35 l-0.25 1.30 1.55 -1.05 c1.90 -1.40 3.10 -1.40 3.10 -0.10 0 0.55 -0.20 1 -0.50 1 -0.60 0 -2.50 1.85 -2.50 2.45 0 0.55 3.05 1.05 6.90 1.05 2.15 0 3.10 0.20 3.10 0.65 0 1.30 1 -0.95 1 -2.40 l0.05 -1.50 1.45 1.75 c1.80 2.10 1.95 4.35 0.50 7.80 -0.55 1.30 -0.90 2.50 -0.70 2.65 0.15 0.15 1.15 -0.70 2.20 -1.90 l1.90 -2.20 -0.25 2.45 c-0.20 1.90 -0.55 2.75 -1.70 3.75 -0.80 0.70 -1.45 1.70 -1.45 2.25 0 1.10 -0.70 2.05 -2.20 3.20 -0.90 0.70 -0.95 0.65 -0.60 -0.70 0.30 -1.30 0.25 -1.40 -0.40 -0.85 -0.45 0.40 -0.80 1.10 -0.80 1.60 0 0.55 -0.75 1.30 -1.85 1.90 -3.15 1.65 -0.85 1.15 2.50 -0.50 1.95 -1 2.85 -1.30 2.40 -0.75 -0.70 0.80 -5.60 3.30 -6.50 3.30 -0.25 0 -0.55 -0.25 -0.65 -0.60 -0.10 -0.30 -0.60 -0.45 -1.05 -0.25 -1.05 0.40 -1.15 3 -0.10 3.85 1.20 1 0.90 1.65 -0.55 1.30 -1.20 -0.30 -1.25 -0.25 -0.95 1.20 0.35 1.55 -0.10 1.95 -1.15 0.90 -0.45 -0.45 -0.60 -0.45 -0.60 0 0 0.35 -0.30 0.60 -0.70 0.60 -0.40 0 -0.65 -0.55 -0.65 -1.30z m0.90 -11.45 c-0.90 -0.40 -1.80 -0.75 -2 -0.75 -0.65 0.05 2.25 1.45 2.95 1.45 0.40 0 0 -0.30 -0.95 -0.70z m11.30 -0.60 c-0.20 -0.15 -0.35 0 -0.35 0.35 0 0.35 0.15 0.50 0.35 0.35 0.15 -0.20 0.15 -0.50 0 -0.70z m-4.60 -1.65 c0.15 -0.25 0.05 -0.50 -0.20 -0.50 -0.30 0 -0.55 0.25 -0.55 0.50 0 0.30 0.10 0.50 0.20 0.50 0.15 0 0.40 -0.20 0.55 -0.50z m-1.25 -1.25 c0 -0.15 -0.10 -0.25 -0.25 -0.25 -0.15 0 -0.25 0.10 -0.25 0.25 0 0.15 0.10 0.25 0.25 0.25 0.15 0 0.25 -0.10 0.25 -0.25z m-1.75 -2.25 c0.15 -0.25 -0.05 -0.50 -0.45 -0.50 -0.40 0 -0.90 0.25 -1.05 0.50 -0.15 0.30 0.05 0.50 0.45 0.50 0.40 0 0.90 -0.20 1.05 -0.50z m1.60 -0.85 c-0.20 -0.15 -0.35 0 -0.35 0.35 0 0.35 0.15 0.50 0.35 0.35 0.15 -0.20 0.15 -0.50 0 -0.70z m1.85 -3.40 c0.20 -0.55 -0.15 -0.95 -0.95 -1.25 -1.90 -0.70 -1.50 -1.15 0.75 -0.85 2.20 0.30 2.75 -0.45 0.70 -0.95 -1.25 -0.30 -3.70 0.55 -3.70 1.35 0 0.15 0.45 0.45 1 0.60 0.55 0.15 1 0.60 1 1.05 0 1 0.80 1.05 1.20 0.05z"/>
  <path d="M14 36 c0 -0.35 0.15 -0.50 0.35 -0.35 0.15 0.20 0.15 0.50 0 0.70 -0.20 0.15 -0.35 0 -0.35 -0.35z"/>
  <path d="M29 28.25 c0 -0.15 0.10 -0.25 0.25 -0.25 0.15 0 0.25 0.10 0.25 0.25 0 0.15 -0.10 0.25 -0.25 0.25 -0.15 0 -0.25 -0.10 -0.25 -0.25z"/>
  <path d="M32.30 18.75 c0.20 -0.40 0.40 -0.75 0.50 -0.75 0.10 0 0.20 0.35 0.20 0.75 0 0.40 -0.20 0.75 -0.50 0.75 -0.25 0 -0.35 -0.35 -0.20 -0.75z"/>
  <path d="M21 8.25 c0 -1.20 0.05 -1.25 1.60 -0.60 2.30 0.95 2.40 1.85 0.20 1.85 -1.60 0 -1.80 -0.15 -1.80 -1.25z"/>
 </g>
 <g fill="#3f2e3f">
  <path d="M13 39.15 c0 -0.55 0.35 -1.15 0.75 -1.35 0.95 -0.35 0.95 0.15 0 1.40 -0.75 0.95 -0.75 0.95 -0.75 -0.05z"/>
  <path d="M14 39.55 c0 -0.30 0.50 -0.85 1.15 -1.30 0.90 -0.65 0.95 -0.85 0.40 -1.25 -0.60 -0.35 -0.60 -0.55 -0.10 -1.20 0.35 -0.45 0.55 -1.30 0.45 -1.95 -0.20 -1 -0.05 -1.15 0.95 -0.95 0.80 0.15 1.15 0.55 1.15 1.35 0 0.65 0.35 1.50 0.75 1.95 1.10 1.10 0.90 1.45 -0.55 1.10 -1.20 -0.30 -1.25 -0.25 -0.95 1.20 0.20 0.95 0.15 1.50 -0.20 1.50 -0.30 0 -0.55 -0.35 -0.55 -0.85 0 -0.75 -0.05 -0.75 -0.90 0 -1.05 0.95 -1.60 1.10 -1.60 0.40z"/>
  <path d="M31.50 39.15 c0 -1.70 0.60 -3.15 1.30 -3.15 0.50 0 0.70 0.65 0.70 2 0 1.65 -0.15 2 -1 2 -0.60 0 -1 -0.35 -1 -0.85z"/>
  <path d="M13.35 36.70 c-0.40 -0.40 0.15 -1.70 0.70 -1.70 0.55 0 0.60 1.35 0 1.70 -0.20 0.15 -0.55 0.15 -0.70 0z"/>
  <path d="M3 33.85 c0 -0.90 0.30 -2 0.65 -2.40 0.75 -0.95 3.55 -2.70 3.30 -2.10 -2.40 5.95 -3.95 7.75 -3.95 4.50z"/>
  <path d="M22.50 31.75 c0 -0.25 2.75 -1.75 3.25 -1.75 0.75 0 0.10 0.80 -1.10 1.40 -1.40 0.65 -2.15 0.75 -2.15 0.35z"/>
  <path d="M8 29.25 c0 -0.15 0.10 -0.25 0.25 -0.25 0.15 0 0.25 0.10 0.25 0.25 0 0.15 -0.10 0.25 -0.25 0.25 -0.15 0 -0.25 -0.10 -0.25 -0.25z"/>
  <path d="M12.60 28.85 c-0.30 -0.35 -0.45 -1.15 -0.25 -1.75 0.25 -1.05 0.30 -1.05 0.95 -0.25 1.30 1.70 0.60 3.60 -0.70 2z"/>
  <path d="M13.50 26.25 c0 -0.15 0.10 -0.25 0.25 -0.25 0.15 0 0.25 0.10 0.25 0.25 0 0.15 -0.10 0.25 -0.25 0.25 -0.15 0 -0.25 -0.10 -0.25 -0.25z"/>
  <path d="M32 19.95 c0 -0.55 1.50 -3.95 1.75 -3.95 0.65 0 0.15 2 -0.75 3.05 -0.50 0.65 -0.95 1.05 -1 0.90z"/>
  <path d="M31 18.25 c0 -0.15 0.10 -0.25 0.25 -0.25 0.15 0 0.25 0.10 0.25 0.25 0 0.15 -0.10 0.25 -0.25 0.25 -0.15 0 -0.25 -0.10 -0.25 -0.25z"/>
  <path d="M34.10 14.75 c0 -0.55 0.20 -1.55 0.40 -2.25 l0.40 -1.25 0 1.25 c0 0.70 -0.15 1.70 -0.40 2.25 l-0.45 1 0.05 -1z"/>
  <path d="M13.20 7.70 c0.05 -3.35 0.20 -3.85 1.30 -4.75 1.40 -1.10 3.55 -2.10 3.85 -1.75 0.10 0.10 -0.80 0.65 -2 1.25 -2.10 1 -2.25 1.20 -2.50 3.65 -0.35 2.85 -0.20 3.30 0.80 2.50 0.50 -0.45 0.60 -0.20 0.45 1.15 -0.15 1.25 -0.45 1.75 -1.10 1.75 -0.75 0 -0.85 -0.45 -0.80 -3.80z"/>
  <path d="M33.05 5.35 c-0.65 -1.05 -0.60 -1.05 0.25 -0.25 0.50 0.50 0.80 1 0.65 1.10 -0.15 0.15 -0.55 -0.25 -0.90 -0.85z"/>
 </g>
 <g fill="#663d1f">
  <path d="M14 39.70 c0 -0.20 0.50 -0.75 1.10 -1.30 0.90 -0.75 1 -1.05 0.45 -1.40 -0.60 -0.35 -0.55 -0.55 0.10 -1.25 1.05 -1 1.05 -0.95 0.10 -2.75 -0.45 -0.85 -0.55 -1.50 -0.25 -1.50 0.25 0 0.50 0.35 0.50 0.75 0 0.40 0.45 0.75 1 0.75 1.05 0 1.45 1.65 0.50 2.25 -0.25 0.15 -0.50 0.80 -0.50 1.45 0 0.60 -0.50 1.60 -1.15 2.20 -1.15 1.10 -1.85 1.40 -1.85 0.80z"/>
  <path d="M17.75 37 c-0.55 -0.85 0.25 -1.55 0.95 -0.85 0.70 0.60 0.60 1.35 -0.20 1.35 -0.25 0 -0.60 -0.20 -0.75 -0.50z"/>
  <path d="M13.50 36 c0 -0.55 0.20 -1 0.45 -1 0.25 0 0.35 0.45 0.20 1 -0.15 0.55 -0.35 1 -0.45 1 -0.10 0 -0.20 -0.45 -0.20 -1z"/>
  <path d="M14 29.25 c0 -0.40 -0.40 -0.75 -0.90 -0.75 -0.70 0 -0.85 -0.40 -0.80 -2.35 0.05 -1.35 -0.20 -3 -0.60 -3.75 -0.95 -1.85 -0.90 -3.55 0.25 -4.95 0.50 -0.65 1 -1.65 1.10 -2.20 0.15 -0.55 0.60 -1.05 1.15 -1.15 0.70 -0.15 0.85 0 0.55 0.85 -0.40 1.40 0.80 1.40 1.65 0.05 0.35 -0.55 0.55 -1 0.50 -1 -0.10 0 -1 -0.30 -2 -0.65 -1.35 -0.50 -1.70 -0.85 -1.40 -1.35 0.35 -0.55 1.05 -0.60 4.10 -0.10 2 0.30 3.70 0.80 3.80 1.05 0.10 0.30 0.55 0.55 0.95 0.55 0.70 0 0.65 -0.15 -0.15 -1.05 -0.50 -0.60 -1.55 -1.35 -2.30 -1.75 -1.05 -0.55 -1.40 -1.10 -1.40 -2.20 0 -1.25 0.20 -1.50 1.25 -1.50 0.65 0 2.45 0.55 3.90 1.20 2.65 1.15 4.35 2.95 5.10 5.25 0.35 1.20 -0.55 5.40 -1.30 5.85 -0.25 0.15 -0.20 -0.35 0.05 -1.05 0.65 -1.65 0.65 -4.25 0 -4.25 -0.25 0 -0.60 0.85 -0.80 1.90 -0.35 2 -1.45 4.10 -2.55 4.75 -0.35 0.20 -0.65 0.90 -0.65 1.50 0 0.60 -0.20 1.40 -0.45 1.80 -0.65 1 -2.05 -0.15 -2.05 -1.70 0 -0.60 -0.35 -1.40 -0.75 -1.75 -0.50 -0.45 -0.75 -0.45 -0.75 -0.05 0 0.30 -0.45 0.55 -1 0.55 -0.55 0 -1 -0.25 -1 -0.55 0 -0.30 -0.35 -0.15 -0.80 0.25 -1.05 1.10 -1.45 1 -2.60 -0.50 l-0.95 -1.35 -0.35 1.65 c-0.40 2.10 0.40 3.10 1.45 1.70 0.55 -0.75 0.70 -0.80 0.75 -0.15 0 0.40 -0.25 1 -0.60 1.35 -0.45 0.45 -0.40 0.60 0.20 0.60 0.45 0 0.90 -0.45 1.05 -1 0.20 -0.75 0.70 -1 2.10 -1 2.15 0 2.20 1.15 0.10 1.40 -0.75 0.10 -1.35 0.40 -1.35 0.70 0 0.35 0.80 0.40 2.25 0.20 2.50 -0.40 2.80 0 1.10 1.60 -1.25 1.20 -4.20 1.50 -5.90 0.60 -0.65 -0.40 -0.95 -0.35 -0.95 0 0 0.65 3.05 2 4.50 2 0.55 0 1.85 -0.80 2.95 -1.75 1.05 -0.95 2.25 -1.75 2.70 -1.75 0.45 0 1.10 -0.90 1.55 -2.10 0.75 -2.05 0.80 -2.05 0.50 -0.40 -0.45 2.85 -0.75 3.50 -1.50 3.50 -0.40 0 -1.85 0.90 -3.25 2 -2 1.55 -2.95 2 -4.50 2 -1.40 0 -1.95 -0.20 -1.95 -0.75z m2.50 -3.25 c0 -0.25 -0.20 -0.50 -0.50 -0.50 -0.25 0 -0.50 0.25 -0.50 0.50 0 0.30 0.25 0.50 0.50 0.50 0.30 0 0.50 -0.20 0.50 -0.50z m-0.70 -7.75 c0.55 -1.35 -0.10 -1.85 -0.70 -0.55 -0.35 0.80 -0.40 1.30 -0.05 1.30 0.25 0 0.60 -0.35 0.75 -0.75z m3.70 -0.35 c0.05 -2.05 1.25 -3.05 3.20 -2.70 2.05 0.40 2.30 1.30 0.80 2.80 -0.55 0.55 -0.80 1 -0.55 1 0.25 0 1.05 -0.75 1.75 -1.60 1.20 -1.55 1.20 -1.65 0.35 -2 -0.55 -0.15 -1.10 -0.55 -1.30 -0.85 -0.40 -0.75 -3.30 -0.65 -4.30 0.10 -1.95 1.50 -2.55 4.35 -0.95 4.35 0.70 0 1 -0.35 1 -1.10z m2.70 -0.70 c0.45 -1.15 0.40 -1.20 -0.65 -1.20 -0.70 0 -0.90 0.25 -0.70 1 0.30 1.20 0.95 1.30 1.35 0.20z"/>
  <path d="M27.30 26 c0.20 -0.95 0.90 -2.40 1.65 -3.20 1.25 -1.35 1.25 -1.40 0.20 -1.10 -0.70 0.25 -1.15 0.15 -1.15 -0.15 0 -0.30 0.20 -0.55 0.50 -0.55 0.25 0 0.80 -0.65 1.25 -1.50 1.10 -2.10 1.55 -1.85 1.35 0.65 -0.20 2.15 -1.25 3.85 -2.45 3.85 -0.35 0 -0.65 0.50 -0.65 1.15 0 0.60 -0.25 1.45 -0.50 1.85 -0.35 0.55 -0.40 0.25 -0.20 -1z"/>
  <path d="M32 19.55 c0 -0.25 0.25 -0.65 0.50 -0.80 0.30 -0.15 0.50 -0.10 0.50 0.20 0 0.25 -0.20 0.65 -0.50 0.80 -0.25 0.15 -0.50 0.10 -0.50 -0.20z"/>
 </g>
 <g fill="#4d2253">
  <path d="M12.50 39.55 c0 -0.60 1.55 -2.15 1.85 -1.85 0.30 0.30 -1 2.30 -1.45 2.30 -0.25 0 -0.40 -0.20 -0.40 -0.45z"/>
  <path d="M14.50 39.50 c0 -0.25 0.35 -0.75 0.75 -1.20 0.40 -0.40 0.60 -1.15 0.45 -1.65 -0.25 -0.75 -0.20 -0.80 0.25 -0.15 0.80 1.05 0.45 -2.35 -0.40 -3.90 -0.35 -0.65 -0.50 -1.30 -0.35 -1.45 0.15 -0.15 0.50 0.30 0.80 1.05 0.25 0.75 0.70 1.25 0.95 1.10 0.60 -0.40 1.10 1 0.70 2.05 -0.20 0.50 -0.10 0.70 0.20 0.50 0.30 -0.20 0.70 0 0.85 0.45 0.45 1.15 0 1.45 -0.95 0.70 -0.45 -0.40 -0.75 -0.45 -0.75 -0.10 0 0.30 -0.55 1.10 -1.25 1.80 -0.70 0.70 -1.25 1.05 -1.25 0.80z"/>
  <path d="M16.50 39.25 c0 -0.40 0.25 -0.75 0.50 -0.75 0.30 0 0.50 0.35 0.50 0.75 0 0.40 -0.20 0.75 -0.50 0.75 -0.25 0 -0.50 -0.35 -0.50 -0.75z"/>
  <path d="M13.35 36.70 c-0.30 -0.50 0.45 -2.10 0.80 -1.70 0.15 0.15 0.05 0.70 -0.15 1.20 -0.15 0.55 -0.45 0.75 -0.65 0.50z"/>
  <path d="M20 36.25 c0 -0.15 0.10 -0.25 0.25 -0.25 0.15 0 0.25 0.10 0.25 0.25 0 0.15 -0.10 0.25 -0.25 0.25 -0.15 0 -0.25 -0.10 -0.25 -0.25z"/>
  <path d="M20 32.50 c0 -0.25 0.35 -0.50 0.80 -0.50 0.45 0 2.20 -0.70 3.85 -1.55 1.85 -0.95 2.80 -1.20 2.35 -0.70 -0.65 0.80 -5.60 3.25 -6.50 3.25 -0.30 0 -0.50 -0.20 -0.50 -0.50z"/>
  <path d="M34.50 30.80 c0 -0.10 0.35 -0.45 0.75 -0.80 0.60 -0.50 0.75 -0.50 0.75 0.20 0 0.45 -0.35 0.80 -0.75 0.80 -0.40 0 -0.75 -0.10 -0.75 -0.20z"/>
  <path d="M6.50 29.75 c0 -0.15 0.10 -0.25 0.25 -0.25 0.15 0 0.25 0.10 0.25 0.25 0 0.15 -0.10 0.25 -0.25 0.25 -0.15 0 -0.25 -0.10 -0.25 -0.25z"/>
  <path d="M12.85 29.10 c-0.50 -0.55 -0.65 -1.15 -0.40 -1.55 0.55 -0.90 1.55 -0.25 1.55 0.95 0 0.70 0.45 1 1.65 1.15 l1.60 0.20 -1.80 0.05 c-1.15 0.05 -2.10 -0.20 -2.60 -0.80z"/>
  <path d="M8.75 29 c1.35 -0.60 2.15 -0.60 1.25 0 -0.40 0.25 -1.10 0.45 -1.50 0.45 -0.50 0 -0.40 -0.15 0.25 -0.45z"/>
  <path d="M32.15 29.15 c0.45 -0.10 1.25 -0.10 1.75 0 0.45 0.15 0.05 0.25 -0.90 0.25 -0.95 0 -1.35 -0.10 -0.85 -0.25z"/>
  <path d="M29.50 28.50 c-0.40 -0.25 -0.50 -0.50 -0.25 -0.50 0.30 0 0.85 0.25 1.25 0.50 0.40 0.25 0.55 0.50 0.25 0.50 -0.25 0 -0.85 -0.25 -1.25 -0.50z"/>
  <path d="M11 28.25 c0 -0.15 0.10 -0.25 0.25 -0.25 0.15 0 0.25 0.10 0.25 0.25 0 0.15 -0.10 0.25 -0.25 0.25 -0.15 0 -0.25 -0.10 -0.25 -0.25z"/>
  <path d="M30.55 19.20 c0 -0.55 0.15 -0.70 0.30 -0.30 0.15 0.35 0.10 0.80 -0.05 0.95 -0.15 0.20 -0.30 -0.10 -0.25 -0.65z"/>
  <path d="M32 19.65 c0 -0.25 0.20 -0.65 0.40 -0.90 0.25 -0.30 0.75 -1.45 1.10 -2.65 0.90 -2.80 1.30 -2.25 0.50 0.65 -0.55 2 -2 4.10 -2 2.90z"/>
  <path d="M34.55 12.20 c0 -0.55 0.15 -0.70 0.30 -0.30 0.15 0.35 0.10 0.80 -0.05 0.95 -0.15 0.20 -0.30 -0.10 -0.25 -0.65z"/>
  <path d="M13.50 9.55 c0 -0.25 0.35 -0.55 0.75 -0.75 0.45 -0.15 0.75 0 0.75 0.45 0 0.40 -0.35 0.75 -0.75 0.75 -0.40 0 -0.75 -0.20 -0.75 -0.45z"/>
  <path d="M13 8 c0 -0.35 0.15 -0.50 0.35 -0.35 0.15 0.20 0.15 0.50 0 0.70 -0.20 0.15 -0.35 0 -0.35 -0.35z"/>
  <path d="M13 6.50 c0 -0.25 0.25 -0.50 0.55 -0.50 0.25 0 0.35 0.25 0.20 0.50 -0.15 0.30 -0.40 0.50 -0.55 0.50 -0.10 0 -0.20 -0.20 -0.20 -0.50z"/>
  <path d="M33.50 6.25 c0 -0.15 0.10 -0.25 0.25 -0.25 0.15 0 0.25 0.10 0.25 0.25 0 0.15 -0.10 0.25 -0.25 0.25 -0.15 0 -0.25 -0.10 -0.25 -0.25z"/>
  <path d="M32.50 4.75 c0 -0.15 0.10 -0.25 0.25 -0.25 0.15 0 0.25 0.10 0.25 0.25 0 0.15 -0.10 0.25 -0.25 0.25 -0.15 0 -0.25 -0.10 -0.25 -0.25z"/>
  <path d="M14.50 3.25 c0 -0.15 0.10 -0.25 0.25 -0.25 0.15 0 0.25 0.10 0.25 0.25 0 0.15 -0.10 0.25 -0.25 0.25 -0.15 0 -0.25 -0.10 -0.25 -0.25z"/>
 </g>
 <g fill="#64423e">
  <path d="M14.50 39.50 c0 -0.25 0.30 -0.75 0.65 -1.10 0.35 -0.35 0.65 -1.10 0.70 -1.65 0.05 -0.55 0.35 -1.65 0.65 -2.50 0.50 -1.30 0.65 -1.40 1.05 -0.60 0.30 0.45 0.35 1.10 0.20 1.40 -0.20 0.30 0.05 0.80 0.55 1.20 0.55 0.35 0.80 0.85 0.60 1.05 -0.20 0.20 -0.70 0.05 -1.15 -0.30 -0.45 -0.40 -0.75 -0.45 -0.75 -0.10 0 0.30 -0.55 1.10 -1.25 1.80 -0.70 0.70 -1.25 1.05 -1.25 0.80z"/>
  <path d="M16.50 39.20 c0 -0.40 0.25 -0.60 0.50 -0.45 0.30 0.15 0.50 0.50 0.50 0.80 0 0.25 -0.20 0.45 -0.50 0.45 -0.25 0 -0.50 -0.35 -0.50 -0.80z"/>
  <path d="M13.10 29.40 c-0.90 -0.90 -0.75 -2.55 0.20 -2.20 0.45 0.15 0.90 0.30 1 0.30 0.10 0 0.20 0.55 0.20 1.25 0 1.35 -0.45 1.60 -1.40 0.65z"/>
  <path d="M14 25 c0 -0.65 0.35 -1 1 -1 0.55 0 1 -0.35 1 -0.75 0 -0.40 0.25 -0.75 0.55 -0.75 0.30 0 0.40 0.45 0.20 1 -0.25 0.70 -0.10 1 0.45 1 0.45 0 0.80 0.35 0.80 0.75 0 0.55 -0.55 0.75 -2 0.75 -1.65 0 -2 -0.15 -2 -1z"/>
  <path d="M14.15 22.65 c0.20 -0.15 0.50 -0.15 0.70 0 0.15 0.20 0 0.35 -0.35 0.35 -0.35 0 -0.50 -0.15 -0.35 -0.35z"/>
  <path d="M21.90 19.65 c0.35 -0.15 0.80 -0.10 0.95 0.05 0.20 0.15 -0.10 0.30 -0.65 0.25 -0.55 0 -0.70 -0.15 -0.30 -0.30z"/>
  <path d="M21 18.75 c0 -0.15 0.10 -0.25 0.25 -0.25 0.15 0 0.25 0.10 0.25 0.25 0 0.15 -0.10 0.25 -0.25 0.25 -0.15 0 -0.25 -0.10 -0.25 -0.25z"/>
  <path d="M33.05 17.65 c0.55 -1.70 0.95 -2.10 0.95 -1 0 0.35 -0.35 1.10 -0.75 1.65 -0.65 0.85 -0.70 0.80 -0.20 -0.65z"/>
  <path d="M22 17.85 c0 -0.35 0.25 -0.90 0.60 -1.25 0.45 -0.45 0.35 -0.60 -0.50 -0.60 -0.60 0 -1.10 -0.20 -1.10 -0.50 0 -0.70 1.15 -0.65 2.15 0.15 0.55 0.40 0.75 1 0.55 1.75 -0.35 1.15 -1.70 1.55 -1.70 0.45z"/>
  <path d="M12.70 17.15 c0.10 -0.50 0.35 -1.40 0.55 -2.05 0.35 -1.20 1.60 -1.25 1.35 -0.10 -0.10 0.35 0.10 0.80 0.40 1 0.90 0.55 -0.05 2 -1.35 2 -0.90 0 -1.15 -0.20 -0.95 -0.85z m1.80 -0.40 c0 -0.15 -0.10 -0.25 -0.25 -0.25 -0.15 0 -0.25 0.10 -0.25 0.25 0 0.15 0.10 0.25 0.25 0.25 0.15 0 0.25 -0.10 0.25 -0.25z"/>
  <path d="M16 17.50 c0 -0.35 0.15 -0.50 0.35 -0.35 0.15 0.20 0.15 0.50 0 0.70 -0.20 0.15 -0.35 0 -0.35 -0.35z"/>
  <path d="M13.50 10.10 c0 -0.45 0.45 -1.15 1 -1.50 0.90 -0.55 1 -0.50 1 0.90 0 1.15 -0.20 1.50 -1 1.50 -0.60 0 -1 -0.35 -1 -0.90z"/>
  <path d="M13 6.30 c0 -0.45 0.25 -0.80 0.50 -0.80 0.30 0 0.50 0.20 0.50 0.45 0 0.30 -0.20 0.65 -0.50 0.80 -0.25 0.15 -0.50 -0.05 -0.50 -0.45z"/>
 </g>
 <g fill="#844027">
  <path d="M14.50 39.70 c0 -0.15 0.45 -0.85 1 -1.55 0.55 -0.70 1 -1.70 1 -2.20 0 -0.55 0.25 -0.95 0.55 -0.95 0.90 0 0.05 2.35 -1.30 3.70 -0.70 0.70 -1.25 1.15 -1.25 1z"/>
  <path d="M16.50 39.45 c0 -0.25 0.25 -0.35 0.50 -0.20 0.30 0.15 0.50 0.40 0.50 0.55 0 0.10 -0.20 0.20 -0.50 0.20 -0.25 0 -0.50 -0.25 -0.50 -0.55z"/>
  <path d="M18.15 36.65 c0.20 -0.15 0.50 -0.15 0.70 0 0.15 0.20 0 0.35 -0.35 0.35 -0.35 0 -0.50 -0.15 -0.35 -0.35z"/>
  <path d="M12.75 27.95 c-0.60 -0.95 0.10 -1.05 1.60 -0.25 l1.40 0.75 -1.35 0.05 c-0.75 0 -1.50 -0.25 -1.65 -0.55z"/>
  <path d="M13.85 26.10 c-1.15 -1.30 -1.15 -2.85 0.05 -2.35 0.45 0.20 2.05 0.50 3.50 0.65 2.90 0.25 3.20 0.60 1.35 1.80 -1.60 1.05 -3.90 1 -4.90 -0.10z"/>
  <path d="M16 23.30 c0 -0.40 0.25 -0.90 0.50 -1.05 0.30 -0.15 0.50 0.05 0.50 0.45 0 0.40 -0.20 0.90 -0.50 1.05 -0.25 0.15 -0.50 -0.05 -0.50 -0.45z"/>
  <path d="M14.50 22.50 c0 -0.35 0.15 -0.50 0.35 -0.35 0.15 0.20 0.15 0.50 0 0.70 -0.20 0.15 -0.35 0 -0.35 -0.35z"/>
 </g>
 <g fill="#7e4d2a">
  <path d="M14.50 39.50 c0 -0.35 0.15 -0.50 0.35 -0.35 0.15 0.20 0.15 0.50 0 0.70 -0.20 0.15 -0.35 0 -0.35 -0.35z"/>
  <path d="M16.50 39.75 c0 -0.15 0.10 -0.25 0.25 -0.25 0.15 0 0.25 0.10 0.25 0.25 0 0.15 -0.10 0.25 -0.25 0.25 -0.15 0 -0.25 -0.10 -0.25 -0.25z"/>
  <path d="M15.70 37.45 c0 -0.55 0.35 -0.95 0.70 -0.95 0.50 0 0.60 -0.35 0.40 -1.25 -0.40 -1.60 0.20 -2.85 0.70 -1.50 0.40 1.15 -0.40 4.10 -1.20 4.40 -0.35 0.15 -0.60 -0.20 -0.60 -0.70z"/>
  <path d="M18.50 36.75 c0 -0.15 0.10 -0.25 0.25 -0.25 0.15 0 0.25 0.10 0.25 0.25 0 0.15 -0.10 0.25 -0.25 0.25 -0.15 0 -0.25 -0.10 -0.25 -0.25z"/>
  <path d="M12.90 28.75 c-0.80 -1.80 -0.30 -1.95 2.05 -0.80 1.10 0.60 2.40 1.05 2.90 1.05 0.75 0 0.80 0.10 0.15 0.50 -0.40 0.25 -1.60 0.50 -2.65 0.50 -1.50 0 -2 -0.25 -2.45 -1.25z"/>
  <path d="M14.30 25.95 c-0.70 -0.55 -1.30 -1.30 -1.30 -1.60 0.05 -0.95 1.45 -2.55 1.85 -2.15 0.20 0.20 0.05 0.55 -0.35 0.80 -1.25 0.80 0 1.25 3.30 1.25 3.30 0 3.90 0.35 2.25 1.25 -1.25 0.65 -3.05 0.65 -3.05 0 0 -0.25 -0.35 -0.50 -0.75 -0.50 -0.90 0 -0.95 0.60 -0.15 1.40 1 1 -0.35 0.70 -1.80 -0.45z"/>
  <path d="M21.25 22.65 c-0.20 -0.80 -0.55 -1.80 -0.85 -2.35 -0.35 -0.70 -0.30 -1.05 0.20 -1.35 0.35 -0.25 0.70 -0.20 0.80 0.05 0.10 0.30 0.50 0.50 0.85 0.50 1.05 0 1.35 0.80 0.95 2.75 -0.40 2.10 -1.55 2.30 -1.95 0.40z"/>
  <path d="M16 23.05 c0 -0.30 0.25 -0.65 0.50 -0.80 0.30 -0.15 0.50 0.05 0.50 0.45 0 0.45 -0.20 0.80 -0.50 0.80 -0.25 0 -0.50 -0.20 -0.50 -0.45z"/>
  <path d="M29 23.30 c0 -0.10 0.40 -0.50 0.90 -0.85 0.75 -0.65 0.80 -0.60 0.15 0.20 -0.65 0.80 -1.05 1.05 -1.05 0.65z"/>
  <path d="M11.60 21.85 c-0.85 -2 -0.75 -3 0.30 -4.15 0.50 -0.55 1.10 -1.60 1.30 -2.35 0.35 -1.40 1 -1.75 1.55 -0.85 0.15 0.30 0.10 0.50 -0.10 0.50 -0.25 0 -0.45 0.45 -0.50 1.05 -0.10 0.85 0.05 0.90 0.65 0.45 0.90 -0.80 0.90 0 0 1.30 -0.40 0.50 -0.90 0.75 -1.15 0.55 -0.20 -0.25 -0.65 0.75 -0.95 2.25 -0.55 2.60 -0.55 2.65 -1.10 1.25z"/>
  <path d="M18.15 22.65 c0.20 -0.15 0.50 -0.15 0.70 0 0.15 0.20 0 0.35 -0.35 0.35 -0.35 0 -0.50 -0.15 -0.35 -0.35z"/>
  <path d="M14.65 20.25 c-0.80 -0.90 -0.80 -1.30 -0.05 -1.10 0.65 0.10 1.90 -2 1.90 -3.30 0 -0.55 0.30 -0.85 0.65 -0.70 0.75 0.25 0.70 0.45 -0.15 3.50 -0.75 2.45 -1.30 2.80 -2.35 1.60z"/>
  <path d="M18 20.25 c0 -0.45 0.25 -0.75 0.55 -0.65 0.30 0.10 0.55 0.40 0.55 0.65 0 0.25 -0.25 0.55 -0.55 0.65 -0.30 0.10 -0.55 -0.20 -0.55 -0.65z"/>
  <path d="M30 19.55 c0 -0.30 0.25 -0.65 0.50 -0.80 0.30 -0.15 0.50 0.05 0.50 0.45 0 0.45 -0.20 0.80 -0.50 0.80 -0.25 0 -0.50 -0.20 -0.50 -0.45z"/>
  <path d="M32 19.75 c0 -0.15 0.10 -0.25 0.25 -0.25 0.15 0 0.25 0.10 0.25 0.25 0 0.15 -0.10 0.25 -0.25 0.25 -0.15 0 -0.25 -0.10 -0.25 -0.25z"/>
  <path d="M19.80 18.15 c-0.60 -0.60 -0.30 -1.65 0.45 -1.65 0.40 0 0.75 0.30 0.75 0.70 0 0.85 -0.70 1.40 -1.20 0.95z"/>
  <path d="M22 18.05 c0 -0.30 0.25 -0.65 0.50 -0.80 0.85 -0.50 0.55 -1.25 -0.50 -1.25 -0.55 0 -1 -0.20 -1 -0.50 0 -0.70 1.15 -0.60 2.20 0.15 0.75 0.55 0.85 0.85 0.35 1.75 -0.60 1.10 -1.55 1.50 -1.55 0.65z"/>
  <path d="M23.70 14.50 c-0.25 -0.25 -2.15 -0.50 -4.20 -0.60 -3.35 -0.15 -3.75 -0.25 -3.75 -1.15 0 -0.80 0.40 -1.05 1.90 -1.15 1.60 -0.15 1.85 0 1.85 0.85 0 0.80 0.30 1.05 1.30 1.05 1 0 1.25 -0.20 1 -0.80 -0.15 -0.45 -0.30 -0.90 -0.30 -1 0 -0.10 -0.30 -0.20 -0.60 -0.20 -0.35 0 -1.20 -0.45 -1.90 -1 -0.70 -0.55 -1.85 -1 -2.60 -1 -1.25 0 -1.40 0.15 -1.40 1.75 0 1.45 -0.20 1.75 -1.05 1.75 -0.95 0 -1.05 -0.20 -0.75 -1.60 0.40 -2.30 2.85 -4.40 5.05 -4.40 2.75 0 7 1.85 8.70 3.80 1.50 1.65 2.10 3.10 1.05 2.45 -0.25 -0.15 -0.90 0.15 -1.50 0.75 -1.10 1.10 -2.05 1.25 -2.80 0.50z m2.60 -3.90 c-0.45 -0.80 -4.85 -2.65 -5.75 -2.50 -0.60 0.15 -0.40 0.40 0.70 1 0.85 0.45 2.05 1.40 2.70 2.10 1.10 1.15 1.35 1.20 1.95 0.60 0.40 -0.40 0.60 -0.90 0.40 -1.20z"/>
 </g>
 <g fill="#5e326f">
  <path d="M14 38.25 c0 -0.15 0.10 -0.25 0.25 -0.25 0.15 0 0.25 0.10 0.25 0.25 0 0.15 -0.10 0.25 -0.25 0.25 -0.15 0 -0.25 -0.10 -0.25 -0.25z"/>
  <path d="M16.10 35.30 c0.70 -2 0.85 -2.15 1.35 -1.35 0.60 0.95 0.10 2.40 -0.95 2.70 -0.80 0.20 -0.85 0.05 -0.40 -1.35z"/>
  <path d="M13.50 36 c0 -0.35 0.15 -0.50 0.35 -0.35 0.15 0.20 0.15 0.50 0 0.70 -0.20 0.15 -0.35 0 -0.35 -0.35z"/>
  <path d="M20.90 32.15 c0.35 -0.15 0.80 -0.10 0.95 0.05 0.20 0.15 -0.10 0.30 -0.65 0.25 -0.55 0 -0.70 -0.15 -0.30 -0.30z"/>
  <path d="M22.50 31.80 c0 -0.10 0.35 -0.35 0.80 -0.50 0.40 -0.15 0.60 -0.10 0.45 0.20 -0.30 0.50 -1.25 0.70 -1.25 0.30z"/>
  <path d="M24.50 30.80 c0 -0.10 0.35 -0.35 0.80 -0.50 0.40 -0.15 0.60 -0.10 0.45 0.20 -0.30 0.50 -1.25 0.70 -1.25 0.30z"/>
  <path d="M32.85 18 c0.45 -1.10 0.90 -1.90 1 -1.80 0.25 0.25 -1.20 3.80 -1.55 3.80 -0.10 0 0.15 -0.90 0.55 -2z"/>
 </g>
 <g fill="#555866">
  <path d="M0 37.55 c0 -1.35 0.15 -2.55 0.40 -2.65 0.20 -0.05 0.85 -1 1.40 -2.10 0.80 -1.40 1.65 -2.15 3 -2.60 1.10 -0.40 2 -0.70 2.05 -0.70 0.05 0 -0.45 0.95 -1.10 2.10 -0.65 1.20 -1.45 3.55 -1.80 5.30 -0.55 3.05 -0.60 3.10 -2.25 3.10 -1.70 0 -1.70 0 -1.70 -2.45z"/>
  <path d="M31.70 38.90 c0.15 -0.65 0.30 -1.30 0.30 -1.50 0 -0.25 0.40 -0.40 0.90 -0.45 0.80 0 0.80 -0.05 -0.05 -0.35 -0.80 -0.35 -0.75 -0.65 0.75 -3.60 1.45 -2.80 1.85 -3.25 2.90 -3.10 2 0.20 3.55 1.20 3.25 2.05 -0.20 0.45 -0.45 2.45 -0.60 4.45 l-0.30 3.60 -3.75 0 c-3.60 0 -3.70 -0.05 -3.40 -1.10z"/>
 </g>
 <g fill="#995235">
  <path d="M13.50 28 c-0.40 -0.25 -0.50 -0.50 -0.25 -0.50 0.30 0 0.85 0.25 1.25 0.50 0.40 0.25 0.55 0.50 0.25 0.50 -0.25 0 -0.85 -0.25 -1.25 -0.50z"/>
  <path d="M14.95 26.40 c-2.40 -2.05 -2.20 -2.30 1.50 -2.25 3.75 0.10 4.85 1 2.05 1.60 -0.80 0.20 -1.60 0.55 -1.75 0.80 -0.40 0.60 -0.90 0.55 -1.80 -0.15z"/>
  <path d="M19.50 17.25 c0 -0.40 0.35 -0.75 0.75 -0.75 0.40 0 0.75 0.35 0.75 0.75 0 0.40 -0.35 0.75 -0.75 0.75 -0.40 0 -0.75 -0.35 -0.75 -0.75z"/>
  <path d="M21 15.75 c0 -0.15 0.10 -0.25 0.25 -0.25 0.15 0 0.25 0.10 0.25 0.25 0 0.15 -0.10 0.25 -0.25 0.25 -0.15 0 -0.25 -0.10 -0.25 -0.25z"/>
 </g>
 <g fill="#8c6035">
  <path d="M15.80 37.20 c-0.45 -1.15 -0.40 -1.20 0.65 -1.20 0.70 0 0.90 0.25 0.70 1 -0.30 1.20 -0.95 1.30 -1.35 0.20z"/>
  <path d="M16.35 34.50 c0.15 -0.55 0.45 -1 0.70 -1 0.25 0 0.45 0.45 0.45 1 0 0.55 -0.30 1 -0.70 1 -0.45 0 -0.60 -0.35 -0.45 -1z"/>
  <path d="M13.25 29 c-1.35 -1.45 -0.55 -1.80 1.75 -0.75 2.70 1.20 2.95 1.75 0.85 1.75 -1.05 0 -2.05 -0.35 -2.60 -1z"/>
  <path d="M13.50 24.75 c-0.80 -0.95 -0.50 -1.30 0.85 -0.95 0.65 0.20 1 0.55 0.80 1 -0.35 0.90 -0.85 0.90 -1.65 -0.05z"/>
  <path d="M20 24.50 c0 -0.25 0.25 -0.50 0.50 -0.50 0.30 0 0.50 0.25 0.50 0.50 0 0.30 -0.20 0.50 -0.50 0.50 -0.25 0 -0.50 -0.20 -0.50 -0.50z"/>
  <path d="M21.45 22.70 c-0.30 -0.80 -0.75 -1.85 -1.05 -2.35 -0.65 -1.30 -0.20 -1.55 1.45 -0.75 1.15 0.55 1.35 0.95 1.25 2.15 -0.25 2.20 -0.95 2.65 -1.65 0.95z"/>
  <path d="M14 22.75 c0 -0.15 0.10 -0.25 0.25 -0.25 0.15 0 0.25 0.10 0.25 0.25 0 0.15 -0.10 0.25 -0.25 0.25 -0.15 0 -0.25 -0.10 -0.25 -0.25z"/>
  <path d="M16.15 22.65 c0.20 -0.15 0.50 -0.15 0.70 0 0.15 0.20 0 0.35 -0.35 0.35 -0.35 0 -0.50 -0.15 -0.35 -0.35z"/>
  <path d="M11.60 21.65 c-0.85 -1.55 -0.75 -2.85 0.35 -3.85 0.50 -0.45 1.05 -1.50 1.25 -2.35 0.15 -0.80 0.50 -1.45 0.80 -1.45 0.65 0 0.25 2.35 -0.60 3.35 -0.35 0.40 -0.75 1.80 -0.90 3.10 -0.25 2.10 -0.30 2.20 -0.90 1.20z"/>
  <path d="M30 22.25 c0 -0.15 0.10 -0.25 0.25 -0.25 0.15 0 0.25 0.10 0.25 0.25 0 0.15 -0.10 0.25 -0.25 0.25 -0.15 0 -0.25 -0.10 -0.25 -0.25z"/>
  <path d="M15 20.60 c0 -0.25 0.55 -1.50 1.25 -2.90 1.20 -2.30 1.25 -2.35 0.95 -0.70 -0.45 2.50 -1.10 4 -1.70 4 -0.25 0 -0.50 -0.20 -0.50 -0.40z"/>
  <path d="M18 20.55 c0 -0.25 0.25 -0.65 0.50 -0.80 0.30 -0.15 0.50 -0.10 0.50 0.20 0 0.25 -0.20 0.65 -0.50 0.80 -0.25 0.15 -0.50 0.10 -0.50 -0.20z"/>
  <path d="M30.50 18.75 c0 -0.15 0.10 -0.25 0.25 -0.25 0.15 0 0.25 0.10 0.25 0.25 0 0.15 -0.10 0.25 -0.25 0.25 -0.15 0 -0.25 -0.10 -0.25 -0.25z"/>
  <path d="M22.10 17.90 c0.10 -0.30 0.50 -0.65 0.80 -0.70 0.35 -0.05 0.40 0 0.10 0.15 -0.25 0.10 -0.40 0.45 -0.20 0.70 0.15 0.25 0 0.45 -0.30 0.45 -0.35 0 -0.50 -0.25 -0.40 -0.60z"/>
  <path d="M14.50 17.10 c0.30 -0.65 0.70 -1.05 0.90 -0.90 0.15 0.20 -0.10 0.70 -0.60 1.20 -0.90 0.80 -0.90 0.80 -0.30 -0.30z"/>
  <path d="M21.20 15.55 c0.15 -0.25 0.75 -0.35 1.30 -0.20 1.40 0.35 1.25 0.65 -0.30 0.65 -0.70 0 -1.15 -0.20 -1 -0.45z"/>
  <path d="M24 14.50 c0 -0.25 -1.20 -0.50 -2.70 -0.50 -1.50 0 -2.90 -0.25 -3.05 -0.50 -0.25 -0.40 -0.55 -0.40 -1 0 -0.45 0.40 -0.95 0.40 -1.60 0.05 -0.50 -0.25 -1.30 -0.60 -1.80 -0.75 -2.05 -0.65 0.85 -5.30 3.30 -5.30 0.60 0 1.95 0.55 2.95 1.25 1 0.70 2.05 1.25 2.25 1.25 0.65 0 3.15 4.10 2.85 4.55 -0.35 0.60 -1.20 0.55 -1.20 -0.05z m-5.15 -3.85 c-0.20 -0.15 -0.50 -0.15 -0.70 0 -0.15 0.20 0 0.35 0.35 0.35 0.35 0 0.50 -0.15 0.35 -0.35z"/>
  <path d="M26.50 12.50 c0 -0.25 0.25 -0.50 0.55 -0.50 0.25 0 0.35 0.25 0.20 0.50 -0.15 0.30 -0.40 0.50 -0.55 0.50 -0.10 0 -0.20 -0.20 -0.20 -0.50z"/>
 </g>
 <g fill="#785d4f">
  <path d="M14.40 25.45 c-0.50 -0.25 -0.90 -0.80 -0.90 -1.20 0 -0.50 0.35 -0.55 1.75 -0.10 0.95 0.30 1.75 0.80 1.75 1.20 0 0.75 -1.40 0.85 -2.60 0.10z"/>
  <path d="M18 25.05 c0 -0.55 2.50 -1.20 2.90 -0.80 0.40 0.40 -0.95 1.25 -2 1.25 -0.50 0 -0.90 -0.20 -0.90 -0.45z"/>
  <path d="M13 16.05 c0 -0.55 0.20 -1.05 0.45 -1.05 0.90 0 1.05 0.90 0.30 1.50 -0.65 0.50 -0.75 0.45 -0.75 -0.45z"/>
  <path d="M14.75 16.50 c0.15 -0.25 0.40 -0.50 0.55 -0.50 0.10 0 0.20 0.25 0.20 0.50 0 0.30 -0.25 0.50 -0.55 0.50 -0.25 0 -0.35 -0.20 -0.20 -0.50z"/>
  <path d="M13.05 6.20 c0 -0.55 0.15 -0.70 0.30 -0.30 0.15 0.35 0.10 0.80 -0.05 0.95 -0.15 0.20 -0.30 -0.10 -0.25 -0.65z"/>
 </g>
 <g fill="#6a5b68">
  <path d="M15.85 37.30 c-0.30 -0.80 0.85 -3.80 1.40 -3.80 0.55 0 0.20 2.85 -0.40 3.70 -0.65 0.85 -0.70 0.90 -1 0.10z"/>
  <path d="M4.50 31.45 c0 -0.60 1.45 -1.90 2.15 -1.95 0.20 0 0 0.55 -0.50 1.25 -0.95 1.30 -1.65 1.60 -1.65 0.70z"/>
  <path d="M20.50 19.75 c0 -0.15 0.10 -0.25 0.25 -0.25 0.15 0 0.25 0.10 0.25 0.25 0 0.15 -0.10 0.25 -0.25 0.25 -0.15 0 -0.25 -0.10 -0.25 -0.25z"/>
  <path d="M22.10 17.95 c0.10 -0.35 0.50 -0.75 0.85 -0.85 0.40 -0.15 0.60 0.05 0.45 0.45 -0.10 0.35 -0.50 0.75 -0.85 0.85 -0.40 0.15 -0.60 -0.05 -0.45 -0.45z"/>
  <path d="M33 17.80 c0 -0.40 0.20 -0.85 0.45 -1 0.25 -0.20 0.35 0.15 0.20 0.70 -0.30 1.15 -0.65 1.30 -0.65 0.30z"/>
  <path d="M20.55 17.20 c0 -0.55 0.15 -0.70 0.30 -0.30 0.15 0.35 0.10 0.80 -0.05 0.95 -0.15 0.20 -0.30 -0.10 -0.25 -0.65z"/>
  <path d="M12.90 16.25 c0.25 -1.50 0.90 -2 1.25 -1.05 0.15 0.40 -0.10 1.05 -0.60 1.50 -0.85 0.80 -0.90 0.75 -0.65 -0.45z"/>
 </g>
 <g fill="#a0743e">
  <path d="M15.80 37.15 c-0.20 -0.50 -0.10 -0.95 0.15 -1.05 0.30 -0.10 0.55 -0.60 0.55 -1.10 0 -0.50 0.25 -1.10 0.60 -1.30 0.40 -0.25 0.45 0.15 0.25 1.55 -0.40 2.30 -1.10 3.15 -1.55 1.90z"/>
  <path d="M13.60 29.40 c-0.35 -0.35 -0.60 -0.90 -0.60 -1.25 0 -0.50 0.40 -0.45 1.75 0.20 0.95 0.45 1.60 1 1.45 1.25 -0.40 0.60 -1.90 0.50 -2.60 -0.20z"/>
  <path d="M13.85 25.15 c-0.20 -0.15 -0.35 -0.60 -0.35 -1 0 -0.55 0.20 -0.55 1 -0.05 0.55 0.35 1 0.80 1 1 0 0.50 -1.20 0.50 -1.65 0.05z"/>
  <path d="M20.25 24.50 c-0.15 -0.25 -0.05 -0.50 0.20 -0.50 0.30 0 0.55 0.25 0.55 0.50 0 0.30 -0.10 0.50 -0.20 0.50 -0.15 0 -0.40 -0.20 -0.55 -0.50z"/>
  <path d="M21.65 22.65 c-1.20 -3.05 -1.20 -3.15 0 -2.70 1.20 0.45 1.65 2.05 0.95 3.35 -0.35 0.65 -0.55 0.55 -0.95 -0.65z"/>
  <path d="M11.40 20.50 c-0.15 -1.05 0.05 -1.95 0.70 -2.75 0.50 -0.65 0.90 -1.50 0.90 -1.90 0 -0.45 0.25 -0.95 0.50 -1.10 0.75 -0.45 0.55 1.35 -0.25 2.45 -0.40 0.55 -0.75 1.55 -0.75 2.25 0 2.15 -0.85 2.90 -1.10 1.05z"/>
  <path d="M15.30 20.55 c-0.25 -0.40 -0.10 -1 0.40 -1.45 0.85 -0.85 0.95 -0.45 0.35 1.10 -0.30 0.75 -0.50 0.80 -0.75 0.35z"/>
  <path d="M18.15 20.15 c0.20 -0.15 0.50 -0.15 0.70 0 0.15 0.20 0 0.35 -0.35 0.35 -0.35 0 -0.50 -0.15 -0.35 -0.35z"/>
  <path d="M16.50 17.75 c0 -0.15 0.10 -0.25 0.25 -0.25 0.15 0 0.25 0.10 0.25 0.25 0 0.15 -0.10 0.25 -0.25 0.25 -0.15 0 -0.25 -0.10 -0.25 -0.25z"/>
  <path d="M20 17 c0 -0.25 0.25 -0.50 0.50 -0.50 0.30 0 0.50 0.25 0.50 0.50 0 0.30 -0.20 0.50 -0.50 0.50 -0.25 0 -0.50 -0.20 -0.50 -0.50z"/>
  <path d="M22.65 17.15 c0.20 -0.15 0.50 -0.15 0.70 0 0.15 0.20 0 0.35 -0.35 0.35 -0.35 0 -0.50 -0.15 -0.35 -0.35z"/>
  <path d="M21.90 15.65 c0.35 -0.15 0.80 -0.10 0.95 0.05 0.20 0.15 -0.10 0.30 -0.65 0.25 -0.55 0 -0.70 -0.15 -0.30 -0.30z"/>
  <path d="M21.40 13.80 c-1.55 -0.30 -3 -0.70 -3.20 -0.90 -0.20 -0.20 -0.60 -0.20 -0.95 0.10 -0.35 0.30 -1.20 0.30 -2.35 0 -1.50 -0.45 -1.75 -0.70 -1.50 -1.75 0.35 -2 3.60 -4.95 3.60 -3.30 0 0.25 0.70 0.55 1.60 0.75 0.85 0.15 1.95 0.65 2.35 1 0.45 0.40 1.05 0.80 1.30 0.85 0.55 0.10 2.75 2.95 2.75 3.55 0 0.20 -0.15 0.35 -0.35 0.35 -0.25 -0.05 -1.70 -0.35 -3.25 -0.65z m-5.20 -2.60 c0.55 -1.35 0.35 -1.85 -0.45 -1.20 -0.80 0.70 -1 2 -0.30 2 0.25 0 0.60 -0.35 0.75 -0.80z"/>
 </g>
 <g fill="#66707d">
  <path d="M0 38.30 c0 -2.70 2.30 -6.60 4.50 -7.70 l1.85 -0.90 -1 2.25 c-0.55 1.30 -1.25 3.50 -1.60 5 -0.65 3.25 -2.10 4.35 -1.60 1.25 0.15 -1.10 0.45 -2.50 0.60 -3.20 0.25 -0.95 0.20 -1.10 -0.20 -0.50 -0.30 0.40 -0.70 1.80 -0.85 3.15 -0.40 2.80 -1.70 3.35 -1.70 0.65z"/>
  <path d="M33 39.10 c0 -0.55 -0.25 -1.10 -0.60 -1.20 -0.80 -0.30 -0.25 -2.10 1.60 -5.25 1.60 -2.80 2.40 -3.15 4.75 -2.05 1.20 0.55 1.25 0.75 1.25 5 l0 4.40 -1.30 0 -1.30 0 0.15 -3.95 c0.10 -2.20 0.05 -3.70 -0.15 -3.40 -0.20 0.35 -0.40 2.10 -0.40 4 0 2.65 -0.15 3.35 -0.75 3.35 -0.55 0 -0.75 -0.65 -0.85 -2.60 l-0.05 -2.65 -0.30 2.50 c-0.20 1.85 -0.55 2.55 -1.15 2.65 -0.60 0.10 -0.90 -0.15 -0.90 -0.80z"/>
  <path d="M16.30 35.65 c0.40 -1.65 0.60 -1.95 1 -1.50 0.45 0.45 -0.25 2.85 -0.80 2.85 -0.30 0 -0.40 -0.55 -0.20 -1.35z"/>
 </g>
 <g fill="#99735f">
  <path d="M14.40 25.45 c-1.60 -0.90 -0.95 -1.20 2.85 -1.20 2.05 0 3.75 0.15 3.75 0.35 0 0.45 -3.35 1.40 -4.75 1.40 -0.55 0 -1.40 -0.25 -1.85 -0.55z"/>
  <path d="M13 16.05 c0 -0.60 0.25 -1.05 0.50 -1.05 0.30 0 0.50 0.30 0.50 0.70 0 0.40 -0.20 0.90 -0.50 1.05 -0.25 0.15 -0.50 -0.15 -0.50 -0.70z"/>
 </g>
 <g fill="#897a71">
  <path d="M16.20 36.20 c0.15 -0.45 0.30 -0.90 0.30 -1 0 -0.10 0.20 -0.20 0.45 -0.20 0.25 0 0.35 0.45 0.20 1 -0.15 0.55 -0.50 1 -0.75 1 -0.30 0 -0.35 -0.35 -0.20 -0.80z"/>
  <path d="M14 25 c-0.40 -0.25 -0.60 -0.55 -0.45 -0.70 0.35 -0.40 2.45 0.25 2.45 0.75 0 0.60 -1.05 0.55 -2 -0.05z"/>
  <path d="M19.60 17.40 c0.30 -0.90 1.40 -1.05 1.40 -0.20 0 0.45 -0.35 0.80 -0.80 0.80 -0.45 0 -0.70 -0.25 -0.60 -0.60z"/>
  <path d="M22 17.75 c0 -0.15 0.10 -0.25 0.25 -0.25 0.15 0 0.25 0.10 0.25 0.25 0 0.15 -0.10 0.25 -0.25 0.25 -0.15 0 -0.25 -0.10 -0.25 -0.25z"/>
  <path d="M15 16.50 c0 -0.35 0.15 -0.50 0.35 -0.35 0.15 0.20 0.15 0.50 0 0.70 -0.20 0.15 -0.35 0 -0.35 -0.35z"/>
  <path d="M13.55 15.70 c0 -0.55 0.15 -0.70 0.30 -0.30 0.15 0.35 0.10 0.80 -0.05 0.95 -0.15 0.20 -0.30 -0.10 -0.25 -0.65z"/>
 </g>
 <g fill="#77808b">
  <path d="M0 38.50 c0 -0.85 0.20 -1.90 0.40 -2.40 1.70 -3.50 2.60 -4.85 3.40 -5.05 0.55 -0.05 1.35 -0.50 1.90 -1 0.80 -0.65 0.75 -0.40 -0.30 1.70 -0.70 1.40 -1.50 3.80 -1.85 5.40 -0.35 1.55 -0.85 2.85 -1.10 2.85 -0.65 0 -0.55 -1.50 0.30 -4.30 0.90 -2.90 0.85 -2.85 0.25 -2.45 -0.45 0.25 -0.85 1.60 -1.70 5.40 -0.40 1.80 -1.30 1.75 -1.30 -0.15z m4 -6.25 c0 -0.15 -0.10 -0.25 -0.25 -0.25 -0.15 0 -0.25 0.10 -0.25 0.25 0 0.15 0.10 0.25 0.25 0.25 0.15 0 0.25 -0.10 0.25 -0.25z"/>
  <path d="M33 39.30 c0 -0.40 -0.30 -0.80 -0.60 -0.95 -0.80 -0.25 -0.05 -2.60 1.95 -6.15 1.15 -2.10 1.40 -2.25 2.75 -2 1.75 0.35 3.50 1.85 2.50 2.20 -0.70 0.20 -0.85 4.60 -0.10 4.60 0.90 0 0.50 0.90 -0.50 1.15 -0.95 0.25 -1 0 -1 -3.20 0 -1.95 -0.20 -3.45 -0.50 -3.45 -0.30 0 -0.50 1.75 -0.50 4.25 0 3.60 -0.10 4.25 -0.80 4.25 -0.75 0 -0.80 -0.50 -0.50 -4.10 0.40 -5.05 0 -4.90 -0.75 0.25 -0.40 2.65 -0.80 3.85 -1.25 3.85 -0.40 0 -0.70 -0.30 -0.70 -0.70z m3.50 -8.05 c0 -0.15 -0.10 -0.25 -0.25 -0.25 -0.15 0 -0.25 0.10 -0.25 0.25 0 0.15 0.10 0.25 0.25 0.25 0.15 0 0.25 -0.10 0.25 -0.25z"/>
  <path d="M38 39.75 c0 -0.15 0.10 -0.25 0.25 -0.25 0.15 0 0.25 0.10 0.25 0.25 0 0.15 -0.10 0.25 -0.25 0.25 -0.15 0 -0.25 -0.10 -0.25 -0.25z"/>
  <path d="M16.35 35.50 c0.15 -0.55 0.45 -1 0.70 -1 0.55 0 0.55 0.15 0.15 1.20 -0.45 1.15 -1.15 1 -0.85 -0.20z"/>
 </g>
 <g fill="#ad8778">
  <path d="M18 25 c0 -0.25 0.30 -0.50 0.70 -0.50 0.40 0 1.15 -0.15 1.65 -0.35 0.80 -0.30 0.80 -0.25 0.20 0.50 -0.75 0.90 -2.55 1.15 -2.55 0.35z"/>
 </g>
 <g fill="#8a96a0">
  <path d="M2 39.75 c0 -1.15 1.30 -5.90 2.05 -7.35 1.35 -2.65 2.10 -2.85 1 -0.25 -0.50 1.20 -1.20 3.45 -1.55 5 -0.35 1.55 -0.85 2.85 -1.10 2.85 -0.20 0 -0.40 -0.10 -0.40 -0.25z"/>
  <path d="M32 38.60 c0 -1.55 3.25 -8.60 4 -8.60 0.80 0 3.15 1.05 2.90 1.30 -0.15 0.10 -0.85 0 -1.55 -0.25 -1.55 -0.60 -1.75 -0.20 -2.55 5.20 -0.50 3.05 -0.70 3.50 -1.65 3.65 -0.95 0.15 -1.15 -0.05 -1.15 -1.30z"/>
  <path d="M35.80 36.15 c0.45 -5.10 1.20 -5.90 1.20 -1.30 0 3.75 -0.30 5.15 -1.05 5.15 -0.30 0 -0.35 -1.55 -0.15 -3.85z"/>
  <path d="M0 38.30 c0 -0.40 0.25 -0.90 0.50 -1.05 0.30 -0.15 0.50 -0.75 0.50 -1.30 0 -1.30 1.85 -4.95 2.50 -4.95 0.30 0 0.10 0.85 -0.45 1.90 -0.50 1 -1.20 2.80 -1.50 4 -0.55 2 -1.55 2.90 -1.55 1.40z"/>
  <path d="M38.15 35 c0 -1.50 0.10 -2.15 0.20 -1.35 0.10 0.75 0.10 1.95 0 2.75 -0.10 0.75 -0.20 0.10 -0.20 -1.40z"/>
  <path d="M16.50 35.05 c0 -0.60 0.25 -1.05 0.50 -1.05 0.30 0 0.50 0.30 0.50 0.70 0 0.40 -0.20 0.90 -0.50 1.05 -0.25 0.15 -0.50 -0.15 -0.50 -0.70z"/>
 </g>
 <g fill="#aa9188">
  <path d="M14.15 25.15 c-1.45 -0.55 -0.50 -1 1.30 -0.60 1.10 0.25 2.55 0.25 3.50 -0.05 1.55 -0.45 2.20 0.15 0.75 0.70 -0.90 0.35 -4.65 0.35 -5.55 -0.05z"/>
  <path d="M22.30 18.10 c-0.15 -0.30 -0.05 -0.70 0.25 -0.85 0.75 -0.50 1.25 0.15 0.60 0.80 -0.35 0.35 -0.65 0.35 -0.85 0.05z"/>
  <path d="M19.60 17.55 c0.20 -0.65 0.90 -0.80 0.95 -0.20 0 0.20 -0.25 0.45 -0.55 0.60 -0.35 0.10 -0.55 -0.10 -0.40 -0.40z"/>
  <path d="M13 16.05 c0 -0.30 0.25 -0.65 0.50 -0.80 0.30 -0.15 0.50 0.05 0.50 0.45 0 0.45 -0.20 0.80 -0.50 0.80 -0.25 0 -0.50 -0.20 -0.50 -0.45z"/>
 </g>
 <g fill="#a0acb4">
  <path d="M2.55 38.70 c-0.05 -1.75 1.30 -6.05 2.05 -6.50 0.30 -0.20 0.25 0.10 -0.05 0.75 -0.30 0.55 -0.90 2.45 -1.25 4.15 -0.50 2.20 -0.70 2.70 -0.75 1.60z"/>
  <path d="M36.05 36.40 c0 -2.10 0.20 -4 0.45 -4.15 0.60 -0.35 0.60 3.15 0.05 6 -0.40 1.75 -0.45 1.55 -0.50 -1.85z"/>
  <path d="M1 36.30 c0 -1.30 1.95 -5.30 2.60 -5.30 0.30 0 0.30 0.30 -0.10 0.70 -0.30 0.40 -1 1.80 -1.50 3.15 -0.55 1.30 -0.95 1.95 -1 1.45z"/>
  <path d="M16.50 35.05 c0 -0.30 0.25 -0.65 0.50 -0.80 0.30 -0.15 0.50 0.05 0.50 0.45 0 0.45 -0.20 0.80 -0.50 0.80 -0.25 0 -0.50 -0.20 -0.50 -0.45z"/>
  <path d="M33 35.35 c0 -0.45 1.60 -3.35 1.95 -3.55 0.20 -0.15 0.25 0.40 0.15 1.25 -0.10 0.80 -0.65 1.70 -1.15 2 -0.55 0.25 -0.95 0.40 -0.95 0.30z"/>
 </g>
 <g fill="#d6ae9b">
  <path d="M18.25 25 c0.55 -0.25 1.35 -0.45 1.75 -0.45 0.65 -0.05 0.65 0 0 0.45 -0.40 0.25 -1.20 0.45 -1.75 0.45 l-1 0 1 -0.45z"/>
 </g>
 <g fill="#cdb7b6">
  <path d="M14.60 25.05 c-0.40 -0.25 0.50 -0.40 2.30 -0.35 1.65 0 2.75 0.20 2.40 0.40 -0.75 0.50 -3.90 0.50 -4.70 -0.05z"/>
  <path d="M19.80 17.55 c-0.20 -0.25 -0.10 -0.60 0.15 -0.75 0.25 -0.20 0.60 -0.10 0.75 0.15 0.20 0.25 0.10 0.60 -0.15 0.75 -0.25 0.20 -0.60 0.10 -0.75 -0.15z"/>
  <path d="M22.50 17.50 c0 -0.25 0.25 -0.50 0.50 -0.50 0.30 0 0.50 0.25 0.50 0.50 0 0.30 -0.20 0.50 -0.50 0.50 -0.25 0 -0.50 -0.20 -0.50 -0.50z"/>
  <path d="M13.25 16.05 c-0.15 -0.25 -0.05 -0.60 0.25 -0.80 0.25 -0.15 0.50 0.05 0.50 0.45 0 0.90 -0.30 1.05 -0.75 0.35z"/>
 </g>
 <g fill="#e4c6c0">
  <path d="M19.50 24.75 c0 -0.15 0.10 -0.25 0.25 -0.25 0.15 0 0.25 0.10 0.25 0.25 0 0.15 -0.10 0.25 -0.25 0.25 -0.15 0 -0.25 -0.10 -0.25 -0.25z"/>
 </g>
 <g fill="#eee3ee">
  <path d="M20 17.50 c0 -0.35 0.15 -0.50 0.35 -0.35 0.15 0.20 0.15 0.50 0 0.70 -0.20 0.15 -0.35 0 -0.35 -0.35z"/>
  <path d="M22.50 17.75 c0 -0.15 0.10 -0.25 0.25 -0.25 0.15 0 0.25 0.10 0.25 0.25 0 0.15 -0.10 0.25 -0.25 0.25 -0.15 0 -0.25 -0.10 -0.25 -0.25z"/>
  <path d="M13.50 15.75 c0 -0.15 0.10 -0.25 0.25 -0.25 0.15 0 0.25 0.10 0.25 0.25 0 0.15 -0.10 0.25 -0.25 0.25 -0.15 0 -0.25 -0.10 -0.25 -0.25z"/>
 </g>
</svg>