<?xml version="1.0" encoding="utf-8"?>
<!DOCTYPE svg PUBLIC "-//W3C//DTD SVG 1.0//EN" "http://www.w3.org/TR/2001/REC-SVG-20010904/DTD/svg10.dtd">
<svg version="1.0" xmlns="http://www.w3.org/2000/svg" width="40px" height="40px" viewBox="0 0 40 40" preserveAspectRatio="xMidYMid meet">
 <g fill="#0b0e07">
  <path d="M1.65 38.25 c0.25 -1.50 0.15 -1.75 -0.70 -1.75 -0.50 0 -0.95 -0.25 -0.95 -0.50 0 -0.95 1.60 -3 2.30 -3 0.40 0 0.70 -0.20 0.70 -0.50 0 -0.85 2.15 -2.50 3.35 -2.50 1.40 0 1.50 1.35 0.45 4.90 -0.40 1.30 -0.85 2.95 -1 3.75 -0.30 1.20 -0.55 1.35 -2.35 1.35 l-2.10 0 0.30 -1.75z"/>
  <path d="M29.15 37.55 c0.15 -1.35 0.75 -3.40 1.30 -4.50 1.30 -2.50 1.30 -2.55 -0.20 -2.55 -0.70 0 -1.25 -0.20 -1.25 -0.50 0 -0.25 -0.45 -0.50 -1 -0.50 -0.80 0 -1 -0.35 -1 -1.50 0 -0.80 0.25 -1.50 0.50 -1.50 0.30 0 0.50 0.20 0.50 0.40 0 0.75 3.75 2.15 5.30 2 1.10 -0.10 1.40 0.05 1.30 0.65 -0.10 0.60 0.20 0.75 1.10 0.60 1.45 -0.30 4.30 1.10 4.30 2.10 0 0.85 -1.60 1 -2.95 0.25 -0.80 -0.40 -1.15 0 -2.50 2.95 -0.85 1.85 -1.55 3.65 -1.55 3.95 0 0.35 -0.80 0.60 -2.05 0.60 l-2.10 0 0.30 -2.45z"/>
  <path d="M26 20.80 c0 -0.90 0.35 -2.65 0.75 -3.85 0.75 -2.10 0.75 -2.15 -0.65 -3.90 -0.75 -1 -2.70 -2.45 -4.30 -3.25 l-2.95 -1.50 -2.65 1.45 c-1.45 0.80 -2.80 1.30 -3 1.10 -0.65 -0.65 -0.80 -4.90 -0.20 -6.30 0.35 -0.95 1.40 -1.85 2.90 -2.60 1.30 -0.60 2.75 -1.30 3.20 -1.55 1.15 -0.55 5.25 -0.50 5.60 0.05 0.15 0.25 1.35 0.60 2.65 0.80 1.85 0.25 2.80 0.80 4.45 2.40 1.75 1.80 2.15 2.55 2.60 5.35 0.45 2.60 0.45 3.85 -0.15 6.45 -1.10 4.65 -3.40 7.05 -6.80 7.05 -1.30 0 -1.45 -0.15 -1.45 -1.70z"/>
  <path d="M19.50 18.50 c0 -0.65 -0.35 -1 -1 -1 -0.80 0 -1 -0.35 -1 -1.70 0 -2.10 0.25 -2.25 3.50 -2.65 l2.50 -0.30 0 3.35 0 3.30 -2 0 c-1.65 0 -2 -0.15 -2 -1z"/>
  <path d="M12.95 17.15 c0 -0.80 -0.10 -2.25 -0.20 -3.25 -0.20 -1.80 -0.15 -1.90 1.25 -1.90 3 0 3.50 0.90 2.70 4.95 -0.30 1.35 -0.50 1.55 -2 1.55 -1.50 0 -1.70 -0.15 -1.75 -1.35z"/>
 </g>
 <g fill="#221c11">
  <path d="M15 39.55 c0 -0.30 -0.45 -0.55 -1 -0.55 -0.80 0 -1 -0.35 -1 -1.75 0 -1.95 0.35 -2.05 4.15 -1.40 1.85 0.30 1.90 0.35 1.75 2.10 -0.15 1.70 -0.25 1.80 -2 1.95 -1.10 0.10 -1.90 -0.05 -1.90 -0.35z"/>
  <path d="M31.30 39.25 c0.20 -0.40 0.50 -0.75 0.75 -0.75 0.25 0 0.45 0.35 0.45 0.75 0 0.40 -0.35 0.75 -0.75 0.75 -0.45 0 -0.60 -0.30 -0.45 -0.75z"/>
  <path d="M3 33.25 c0 -1.15 0.25 -1.75 0.70 -1.75 0.40 0 0.80 -0.30 0.95 -0.70 0.15 -0.35 0.95 -0.90 1.80 -1.20 1.45 -0.50 1.55 -0.45 1.55 0.70 0 0.75 -0.30 1.20 -0.75 1.20 -0.50 0 -0.75 0.55 -0.75 1.75 0 1.20 -0.25 1.75 -0.75 1.75 -0.40 0 -0.75 -0.40 -0.75 -0.85 -0.05 -0.85 -0.05 -0.85 -0.55 0 -0.80 1.40 -1.45 1 -1.45 -0.90z"/>
  <path d="M14.30 33.70 c-0.15 -0.45 -0.30 -1.45 -0.30 -2.25 0 -1.35 0.15 -1.45 1.75 -1.45 1.40 0 1.75 -0.20 1.75 -1 0 -0.80 0.35 -1 1.75 -1 1.65 0 1.75 0.10 1.75 1.75 0 1.60 -0.10 1.75 -1.50 1.75 -1.35 0 -1.50 0.15 -1.50 1.50 0 1.35 -0.15 1.50 -1.70 1.50 -1.10 0 -1.80 -0.30 -2 -0.80z"/>
  <path d="M22 30.75 c0 -1.65 0.10 -1.75 1.75 -1.75 1.65 0 1.75 0.10 1.75 1.75 0 1.65 -0.10 1.75 -1.75 1.75 -1.65 0 -1.75 -0.10 -1.75 -1.75z"/>
  <path d="M11.80 26.40 c-0.50 -1.90 -0.35 -2.40 0.70 -2.40 0.80 0 1 0.35 1 1.75 0 2 -1.20 2.45 -1.70 0.65z"/>
  <path d="M18 21.25 c0 -1.20 0.25 -1.75 0.75 -1.75 0.40 0 0.75 -0.45 0.75 -1 0 -0.70 -0.35 -1 -1.05 -1 -1.90 0 -2.95 0.95 -2.95 2.70 0 1.60 -0.10 1.70 -2.10 1.95 -1.20 0.15 -2.20 0.25 -2.25 0.15 -0.10 -0.05 -0.30 -0.85 -0.45 -1.70 -0.25 -1.25 -0.15 -1.60 0.45 -1.60 0.80 0 1.35 -1 1.35 -2.65 0 -0.60 0.25 -1.45 0.50 -1.85 0.40 -0.60 0.65 -0.65 1.50 -0.10 0.60 0.35 1 0.40 1 0.10 0 -0.30 -0.65 -0.65 -1.40 -0.80 l-1.40 -0.30 0.05 -4.35 c0 -4.85 0.30 -5.55 3.20 -7.05 2.20 -1.10 5.30 -1.80 4.85 -1.10 -0.15 0.25 -1.05 0.65 -2.05 0.80 -2.40 0.45 -3 1.55 -0.60 1.15 3.20 -0.50 6.35 0.85 10.70 4.65 1.35 1.20 1.80 1.95 1.75 3.10 -0.05 2.25 -0.45 2.25 -2.40 -0.05 -2.80 -3.20 -6.20 -4.75 -10.35 -4.70 -3.25 0.05 -3.40 0.05 -3.05 -1 0.15 -0.60 0.15 -0.90 -0.10 -0.70 -0.55 0.50 -1.75 4.50 -1.45 4.80 0.15 0.10 0.60 -0.10 1.05 -0.50 0.80 -0.65 0.85 -0.50 0.60 1.45 -0.25 1.80 -0.20 2.10 0.65 2.10 0.50 0 1.20 0.30 1.55 0.70 0.45 0.45 1.55 0.60 4 0.40 l3.40 -0.25 0 1.85 c0 1.25 -0.20 1.80 -0.75 1.80 -0.50 0 -0.75 0.55 -0.75 1.75 0 1.20 -0.25 1.75 -0.75 1.75 -0.50 0 -0.75 0.50 -0.75 1.50 0 1.40 -0.15 1.50 -1.75 1.50 -1.65 0 -1.75 -0.10 -1.75 -1.75z"/>
  <path d="M28.15 22.65 c-2.05 -0.25 -2.55 -1.85 -1.75 -5 1.20 -4.40 0.60 -6.65 -1.75 -6.65 -0.70 0 -1.15 -0.30 -1.15 -0.75 0 -0.45 -0.45 -0.75 -1.10 -0.75 -1.90 0 -3.40 -0.60 -3.40 -1.30 0 -0.35 -0.60 -0.75 -1.35 -0.85 -0.90 -0.15 -0.60 -0.20 0.85 -0.25 4.65 -0.15 10.50 4.15 10.50 7.70 0 0.85 -0.35 2.55 -0.75 3.70 -1.05 3 -0.95 3.05 1.30 0.50 l2.05 -2.25 -0.30 1.75 c-0.25 1.65 -0.25 1.70 0.45 0.75 0.45 -0.55 1 -1.90 1.30 -3 1.15 -4.15 1.45 -4.60 1.20 -1.75 -0.15 1.90 -0.70 3.50 -1.95 5.45 -1.85 3 -1.80 2.95 -4.15 2.70z"/>
  <path d="M33.60 8.40 c-0.70 -2.70 -3.60 -5.60 -6.50 -6.45 -2.85 -0.85 -2.35 -1.10 0.80 -0.40 3.25 0.65 5.80 3.25 6.30 6.45 0.45 2.85 0.05 3.10 -0.60 0.40z"/>
 </g>
 <g fill="#1b4406">
  <path d="M2.50 38.65 c0 -2.40 1 -6.80 1.80 -7.70 0.40 -0.45 2.30 -1.35 4.20 -2 1.95 -0.65 3.50 -1.45 3.50 -1.80 0 -1.15 0.85 -0.70 3.10 1.50 2 2 2.35 2.15 4.75 2.15 2.20 -0.05 2.65 -0.20 2.65 -0.90 0 -0.50 0.35 -0.90 0.75 -0.90 0.40 0 0.75 -0.20 0.75 -0.50 0 -0.25 0.30 -0.50 0.70 -0.50 0.40 0 0.90 -0.45 1.05 -1 0.35 -1.15 2.25 -1.40 2.25 -0.30 0 1 2.80 2.30 5 2.30 l1.85 0 -1.85 3.65 c-1.05 1.95 -2.05 4.45 -2.25 5.50 -0.25 1.35 -0.60 1.85 -1.30 1.85 -1.15 0 -1.25 -1.40 -0.20 -4.75 0.90 -3.15 0.50 -3.70 -1.45 -1.85 -2.40 2.25 -3.90 3.10 -5.40 3.10 -1.20 0 -1.40 0.20 -1.40 1.50 0 1.25 -0.25 1.50 -1.65 1.75 -0.85 0.20 -2.75 0.25 -4.10 0.15 l-2.50 -0.15 -0.25 -2.55 c-0.15 -1.35 -0.65 -3.10 -1.15 -3.85 -0.45 -0.70 -0.85 -1.65 -0.85 -2.05 0 -0.45 -0.30 -0.65 -0.70 -0.50 -0.65 0.25 -3.80 7.45 -3.80 8.65 0 0.30 -0.50 0.55 -1.05 0.55 -1 0 -1.05 -0.20 -0.70 -2.35 0.20 -1.35 0.65 -3.30 1 -4.40 0.60 -1.75 0.60 -1.85 0 -1.05 -0.40 0.50 -1 2.20 -1.30 3.75 -0.80 3.65 -1.40 4.85 -1.45 2.70z"/>
  <path d="M31.50 38.65 c0 -1.60 3.20 -8.65 3.95 -8.65 0.65 0 0 2.15 -1.65 5.35 -0.70 1.45 -1.30 2.95 -1.30 3.35 0 0.40 -0.20 0.90 -0.50 1.05 -0.30 0.20 -0.50 -0.30 -0.50 -1.10z"/>
 </g>
 <g fill="#41200f">
  <path d="M12.25 37.65 c0.45 -2.90 0.55 -3.15 1.75 -3.15 0.70 0 0.90 0.25 0.65 0.80 -0.20 0.60 -0.10 0.75 0.40 0.60 0.70 -0.25 1.55 -3.30 1.15 -4 -0.15 -0.25 -0.55 -0.40 -0.85 -0.40 -0.35 0 -0.30 0.20 0.15 0.50 0.55 0.35 0.60 0.60 0.15 1.05 -0.40 0.40 -0.65 0.25 -0.90 -0.60 -0.50 -1.60 -2.25 -3.45 -3.20 -3.45 -0.70 0 -0.70 -0.10 -0.10 -0.45 0.60 -0.40 0.65 -1 0.15 -3.70 -0.80 -4.30 -0.75 -5.80 0.15 -6.15 0.45 -0.20 0.70 -0.55 0.65 -0.90 -0.40 -2.20 1.45 -4.80 2.35 -3.30 0.40 0.65 1.25 0.65 1.25 0 0 -0.30 -0.70 -0.65 -1.50 -0.85 -0.85 -0.15 -1.65 -0.50 -1.80 -0.70 -0.40 -0.65 3 -0.55 3.70 0.15 0.45 0.45 1.05 0.45 2.50 0 2.70 -0.80 4.65 -0.75 6.05 0.20 1 0.75 1.15 1.15 0.90 3.15 l-0.20 2.30 0.70 -1.75 c0.70 -1.55 0.70 -1.90 -0.05 -3.15 -0.45 -0.80 -0.80 -1.85 -0.80 -2.40 0 -0.70 -0.35 -0.95 -1.45 -0.95 -0.80 0 -1.80 -0.35 -2.25 -0.75 -0.95 -0.95 -3.80 -0.95 -5.10 0 -1.20 0.90 -3.85 1 -3.60 0.15 0.40 -1.15 3.50 -2.90 5.15 -2.90 3.85 0 8.70 2.80 10.15 5.80 0.80 1.80 0.80 1.85 -0.75 7.35 -0.40 1.40 0.70 0.95 1.70 -0.65 1.10 -1.85 1.65 -1.90 1.65 -0.10 0.05 1.30 0.05 1.30 0.75 0.40 0.40 -0.55 0.85 -0.85 1 -0.70 0.15 0.10 -0.20 0.65 -0.75 1.15 -0.55 0.50 -1 1.20 -1 1.60 0 0.35 -0.35 0.65 -0.85 0.65 -0.45 0 -0.65 0.15 -0.50 0.35 0.20 0.15 -0.05 0.80 -0.60 1.35 -0.50 0.60 -1.05 1.75 -1.25 2.55 -0.55 2.55 -0.55 2.65 -1.25 3.45 -1.10 1.35 -3.90 2.85 -6.40 3.45 -1.80 0.45 -2.40 0.85 -2.50 1.60 -0.10 0.55 0 0.70 0.15 0.40 0.40 -0.90 1.25 -0.80 0.90 0.10 -0.20 0.40 -0.10 0.75 0.10 0.75 0.25 0 0.50 0.65 0.55 1.45 0.10 1.70 -0.65 2.05 -4.80 2.05 l-2.65 0 0.35 -2.35z m5.55 0.50 c-0.50 -0.55 -0.95 -0.35 -1.10 0.50 -0.10 0.75 0 0.80 0.60 0.30 0.40 -0.30 0.60 -0.70 0.50 -0.80z m6.30 -15.65 c0.20 -1.30 0.05 -1.50 -0.95 -1.50 -0.65 0 -1.15 0.20 -1.15 0.40 0 0.30 1.60 2.55 1.80 2.60 0.05 0 0.20 -0.65 0.30 -1.50z m-2.50 -5.60 c-0.45 -0.45 -0.60 -0.35 -0.60 0.60 0 0.95 0.15 1.05 0.60 0.60 0.45 -0.45 0.45 -0.75 0 -1.20z m-6.55 -0.55 c-0.05 -0.60 -0.75 -0.45 -0.95 0.20 -0.15 0.30 0.05 0.50 0.40 0.40 0.30 -0.15 0.55 -0.40 0.55 -0.60z m6.50 -1.15 l1.70 -0.75 -1.95 0.25 c-1.10 0.15 -2.20 0.50 -2.50 0.80 -0.80 0.80 0.80 0.65 2.75 -0.30z"/>
  <path d="M27.75 29 c-0.15 -0.30 0.05 -0.65 0.50 -0.80 0.95 -0.40 1.50 0 1 0.75 -0.40 0.70 -1.10 0.70 -1.50 0.05z"/>
  <path d="M12.50 7.80 c0 -0.40 0.25 -0.90 0.50 -1.05 0.30 -0.15 0.50 0.05 0.50 0.45 0 0.40 -0.20 0.90 -0.50 1.05 -0.25 0.15 -0.50 -0.05 -0.50 -0.45z"/>
 </g>
 <g fill="#3c3b24">
  <path d="M12 39.25 c0 -0.45 0.45 -0.75 1.25 -0.75 0.85 0 1.25 0.25 1.25 0.90 0 0.70 -0.10 0.75 -0.50 0.10 -0.30 -0.50 -0.50 -0.55 -0.50 -0.10 0 0.30 -0.35 0.60 -0.75 0.60 -0.40 0 -0.75 -0.35 -0.75 -0.75z"/>
  <path d="M16 39.55 c0 -0.35 0.20 -0.50 0.45 -0.35 0.70 0.45 1.70 -1.10 1.35 -2.05 -0.30 -0.75 -0.45 -0.70 -0.95 0.35 -0.90 1.70 -1.75 1.80 -1.60 0.15 0.25 -2.35 0.80 -3.55 2.10 -4.45 0.90 -0.55 1.15 -0.60 0.85 -0.15 -0.30 0.55 -0.15 0.50 0.50 -0.05 0.50 -0.40 1.15 -0.75 1.50 -0.85 1.75 -0.40 4.30 -1.45 4.30 -1.75 0 -0.25 0.25 -0.40 0.55 -0.40 0.35 0 0.85 -0.40 1.20 -0.85 0.80 -1.10 2.75 -1.40 2.75 -0.40 0 0.90 -0.55 0.95 -1.45 0.15 -0.40 -0.35 -0.55 -0.40 -0.40 -0.10 0.65 1.15 -3.45 4 -6.95 4.85 -1.80 0.45 -2.45 0.85 -2.55 1.60 -0.10 0.55 0 0.70 0.15 0.40 0.15 -0.35 0.95 -0.65 1.75 -0.65 1.30 0 1.45 0.15 1.45 1.55 0 0.85 -0.35 1.85 -0.75 2.25 -0.95 1 -4.25 1.55 -4.25 0.75z"/>
  <path d="M13.50 36.35 c0 -1.30 0.20 -1.85 0.70 -1.85 0.60 0 0.65 0.30 0.20 1.65 -0.75 2.25 -0.90 2.30 -0.90 0.20z"/>
  <path d="M14.80 32.75 c-0.55 -1.45 -0.35 -1.85 0.50 -1 0.55 0.55 0.65 1 0.35 1.30 -0.35 0.35 -0.60 0.25 -0.85 -0.30z"/>
  <path d="M4 32.10 c0 -1.05 0.95 -2.10 1.90 -2.10 0.50 0 0.45 0.35 -0.25 1.50 -1 1.70 -1.65 1.95 -1.65 0.60z"/>
  <path d="M6.55 32.65 c0 -0.25 0.20 -0.85 0.45 -1.40 0.40 -0.90 0.45 -0.85 0.45 0.40 0.05 0.75 -0.15 1.35 -0.45 1.35 -0.25 0 -0.50 -0.15 -0.45 -0.35z"/>
  <path d="M13.50 30 c-0.55 -0.35 -0.25 -0.50 1.15 -0.50 1 0 1.85 0.25 1.85 0.50 0 0.65 -2 0.65 -3 0z"/>
  <path d="M30 20.30 c0 -0.95 0.25 -1.90 0.50 -2.05 0.30 -0.20 0.50 0.50 0.50 1.70 0 1.15 -0.20 2.05 -0.50 2.05 -0.25 0 -0.50 -0.75 -0.50 -1.70z"/>
  <path d="M32.55 17.95 c0.60 -1.50 1.25 -4.15 1.45 -5.95 l0.35 -3.25 0.10 2.80 c0.05 3.15 -1.10 7.50 -2.25 8.45 -0.55 0.50 -0.50 0 0.35 -2.05z"/>
  <path d="M14.10 13.60 c-0.65 -0.20 -1.15 -0.50 -1.15 -0.70 0.05 -0.25 0.05 -0.60 0.05 -0.90 0 -0.25 0.55 -0.50 1.25 -0.50 1 0 1.25 0.25 1.25 1.25 0 0.70 -0.05 1.25 -0.10 1.20 -0.10 -0.05 -0.65 -0.20 -1.30 -0.35z"/>
  <path d="M13.70 9.25 c1.05 -0.80 1.60 -0.65 1.05 0.20 -0.15 0.30 -0.70 0.55 -1.15 0.55 -0.75 -0.05 -0.75 -0.10 0.10 -0.75z"/>
  <path d="M12.50 7.50 c0 -2.20 1.40 -4.45 3.45 -5.45 1.10 -0.60 2.40 -1.05 2.90 -1 0.55 0 0.35 0.25 -0.60 0.60 -3 1.20 -4.25 2.40 -4.55 4.40 -0.35 2.15 -1.20 3.15 -1.20 1.45z"/>
  <path d="M32.85 5.90 c-0.50 -0.85 -0.80 -1.65 -0.65 -1.75 0.10 -0.15 0.60 0.45 1.05 1.35 1.05 2.05 0.75 2.40 -0.40 0.40z"/>
 </g>
 <g fill="#316213">
  <path d="M2.50 39.20 c0 -2.20 2.35 -8.95 3.20 -9.10 0.70 -0.15 0.70 0.05 -0.15 1.50 -0.55 0.90 -1.35 3.10 -1.75 4.85 -0.75 3.30 -1.30 4.40 -1.30 2.75z"/>
  <path d="M4.30 38.65 c0.20 -0.80 1 -3.15 1.85 -5.30 1.40 -3.65 1.60 -3.90 3.55 -4.45 1.15 -0.35 2.25 -0.90 2.45 -1.30 0.55 -0.85 1.85 0.15 1.85 1.45 0 0.70 0.40 0.95 1.40 1 1.20 0.10 1.20 0.10 0.20 0.30 -0.65 0.15 -1.70 -0.15 -2.40 -0.55 -1.10 -0.75 -1.20 -0.75 -1.20 0 0 0.45 0.65 1.75 1.40 2.90 1.15 1.65 1.35 2.35 1 3.30 -0.25 0.65 -0.30 1.50 -0.15 1.85 0.30 0.85 1.40 0.30 1.10 -0.50 -0.40 -1.15 1.75 -4.45 2.90 -4.40 0.90 0.05 6.35 -2.35 8.15 -3.60 1.90 -1.25 2.35 -1.40 3.40 -0.90 0.70 0.30 2 0.55 2.95 0.55 1.70 0 2.30 0.60 1.25 1.25 -0.80 0.50 -2.90 4.90 -3.55 7.45 l-0.55 2.30 -6.45 0 c-3.55 0 -6.45 -0.20 -6.45 -0.45 0 -0.25 0.35 -0.70 0.75 -1.05 0.50 -0.40 0.60 -0.85 0.35 -1.10 -0.70 -0.70 -0.10 -2.40 0.85 -2.50 0.45 0 1.30 0 1.95 0.05 1.40 0.10 3.80 -1.30 5.80 -3.40 1.45 -1.50 3.45 -2.05 4.05 -1.05 0.40 0.60 1.75 0.65 1.75 0.05 0 -0.20 -1.10 -0.65 -2.50 -0.90 -2.20 -0.45 -2.60 -0.40 -3.35 0.50 -1.55 1.70 -4.95 3.35 -7.10 3.50 -1.75 0.10 -2.05 0.25 -2.05 1.20 0 0.60 -0.25 1.70 -0.60 2.50 -0.30 0.75 -0.50 1.75 -0.45 2.15 0.10 0.65 0.05 0.65 -0.45 0 -0.45 -0.65 -0.55 -0.65 -1 0 -0.40 0.60 -0.55 0.65 -0.95 0.05 -0.30 -0.45 -0.55 -0.50 -0.75 -0.10 -0.25 0.35 -2.10 0.55 -4.85 0.55 l-4.45 0 0.30 -1.35z m15 -3.05 c-0.60 -0.55 -0.90 0.35 -0.50 1.50 l0.40 1.15 0.20 -1.15 c0.10 -0.65 0.05 -1.30 -0.10 -1.50z"/>
  <path d="M31.55 38.75 c-0.05 -1.70 3.10 -8.75 3.90 -8.75 0.60 0 0.30 0.75 -1.40 4 -0.65 1.25 -1.50 3.15 -1.85 4.25 -0.60 1.90 -0.65 1.95 -0.65 0.50z"/>
  <path d="M14.80 32.70 c-0.40 -1.05 -0.20 -1.25 0.70 -0.70 0.55 0.35 0.60 0.60 0.20 1 -0.40 0.40 -0.65 0.35 -0.90 -0.30z"/>
 </g>
 <g fill="#5e361a">
  <path d="M14 39.55 c0 -0.25 0.25 -0.55 0.60 -0.65 0.30 -0.10 0.60 -0.65 0.65 -1.20 0.25 -1.90 1.30 -4 2.40 -4.65 0.85 -0.55 0.95 -0.55 0.50 0 -0.35 0.35 -0.65 1.15 -0.65 1.75 0 0.65 -0.25 1.75 -0.60 2.55 -0.30 0.75 -0.50 1.75 -0.45 2.15 0.10 0.65 0.05 0.65 -0.45 0 -0.45 -0.55 -0.65 -0.60 -0.85 -0.10 -0.25 0.70 -1.15 0.80 -1.15 0.15z"/>
  <path d="M13.30 29.85 c-0.60 -0.45 -1 -1.50 -1.15 -2.90 -0.10 -1.20 -0.55 -3.40 -1 -4.85 -0.75 -2.65 -0.70 -2.70 0.55 -4.55 0.70 -1 1.30 -2.25 1.30 -2.75 0 -0.50 0.30 -0.80 0.65 -0.65 0.30 0.10 0.55 0.80 0.45 1.55 -0.15 1.65 1.15 1.80 1.60 0.20 0.45 -1.75 0.40 -1.80 -1.35 -2.45 -1.50 -0.50 -1.60 -0.75 -1.45 -2.25 0.15 -1.05 0.60 -1.95 1.15 -2.25 0.80 -0.40 0.95 -0.30 0.95 0.80 0 2.05 1.10 2.75 4.10 2.75 l2.65 -0.05 -1.35 -1 c-0.80 -0.55 -1.40 -1.35 -1.40 -1.75 0 -0.45 -0.55 -0.70 -1.75 -0.70 -1.95 0 -2.30 -0.70 -0.75 -1.50 2.40 -1.30 9.15 1.25 10.95 4.15 1.45 2.40 1.35 5 -0.45 8.75 -0.85 1.75 -1.50 3.60 -1.50 4.05 0 1.35 -2.10 4.15 -3.50 4.65 -1.20 0.45 -1.20 0.45 0.20 -1.05 2 -2.10 1.40 -1.95 -2 0.45 -3.05 2.10 -5.25 2.55 -6.90 1.35z m2.60 -2.65 c-0.20 -0.15 -0.95 -0.20 -1.75 -0.10 l-1.40 0.20 1.25 0.55 c1.15 0.50 2.55 0.05 1.90 -0.65z m4.80 -1.25 c1.95 -1.55 1.25 -1.70 -0.95 -0.20 -1.05 0.70 -1.55 1.25 -1.15 1.25 0.45 0 1.35 -0.50 2.10 -1.05z m-0.25 -1.95 c0.70 0 -0.05 -2.70 -0.95 -3.75 -0.60 -0.65 -0.85 -1.45 -0.65 -2.35 0.30 -1.60 1.60 -1.85 2 -0.40 0.30 1.10 1.15 0.90 1.15 -0.30 0 -0.40 -0.35 -0.70 -0.75 -0.70 -0.40 0 -0.75 -0.25 -0.75 -0.55 0 -0.40 0.65 -0.45 2 -0.25 2.30 0.35 2.50 0.15 0.85 -0.90 -0.90 -0.65 -1.50 -0.65 -3 -0.20 -1.20 0.35 -1.80 0.80 -1.65 1.25 0.15 0.35 -0.05 0.80 -0.40 1 -0.35 0.25 -0.75 0.90 -0.90 1.55 -0.20 0.60 -0.15 1 0.10 0.85 0.50 -0.30 2.25 1.65 1.85 2.10 -0.20 0.15 -0.85 0.10 -1.40 -0.15 -0.90 -0.40 -1.40 -0.25 -2.60 0.90 -0.85 0.75 -1.40 1.50 -1.25 1.70 0.20 0.15 0.80 -0.20 1.35 -0.75 0.65 -0.65 1.70 -1.05 2.80 -1.05 1.80 0 2.35 0.65 1 1.20 -0.40 0.15 -0.75 0.50 -0.75 0.85 0 0.30 0.35 0.40 0.80 0.25 0.45 -0.15 0.95 -0.30 1.15 -0.30z m-5.50 -5.20 c0.35 -0.45 0.45 -0.80 0.20 -0.80 -0.80 0 -2.65 2.90 -2.65 4.10 0.05 0.95 0.20 0.85 0.90 -0.65 0.45 -1 1.15 -2.15 1.55 -2.65z"/>
  <path d="M26.70 26.60 c-1.05 -0.70 0.35 -4.35 2.75 -7.10 l1.50 -1.75 0.05 2.35 c0 1.95 -0.20 2.50 -1.50 3.60 -0.85 0.70 -1.70 1.70 -1.90 2.25 -0.20 0.55 -0.60 0.85 -0.90 0.65z"/>
 </g>
 <g fill="#454c5a">
  <path d="M0 37.50 c0 -1.35 0.15 -2.50 0.40 -2.50 0.20 0 0.75 -0.90 1.25 -2 0.55 -1.25 1.15 -2 1.75 -2 0.50 0 1.15 -0.25 1.50 -0.60 0.95 -0.95 1.25 -0.10 0.45 1.45 -0.70 1.30 -1.25 3.10 -2.05 6.80 -0.25 1.10 -0.60 1.35 -1.80 1.35 -1.45 0 -1.50 -0.05 -1.50 -2.50z"/>
  <path d="M32.15 39.25 c-0.95 -1.05 -0.80 -1.65 1.10 -5.65 1 -2.10 2 -3.60 2.45 -3.60 0.45 0 1.55 0.40 2.55 0.85 1.65 0.80 1.75 0.95 1.75 3.45 0 1.40 -0.15 3.30 -0.30 4.15 l-0.30 1.55 -3.35 0 c-2.20 -0.05 -3.50 -0.25 -3.90 -0.75z m3.35 -2.20 c0 -0.25 0.15 -1.20 0.35 -2.10 0.30 -1.50 0.25 -1.60 -0.45 -0.95 -1.15 1.15 -1.60 3.50 -0.65 3.50 0.40 0 0.75 -0.20 0.75 -0.45z"/>
  <path d="M15.50 37.40 c0 -1.50 0.65 -2.90 1.30 -2.90 0.85 0 0.90 1.20 0.20 2.55 -0.60 1.05 -1.50 1.30 -1.50 0.35z"/>
 </g>
 <g fill="#7f512d">
  <path d="M15.50 37.30 c0 -1.10 1.25 -2.70 1.75 -2.20 0.40 0.35 -0.80 3.40 -1.30 3.40 -0.25 0 -0.45 -0.55 -0.45 -1.20z"/>
  <path d="M13.10 29.50 c-2.25 -2.15 -1.25 -2.35 2.80 -0.65 1.35 0.55 1.60 0.85 1.05 1.20 -1.15 0.75 -2.70 0.50 -3.85 -0.55z"/>
  <path d="M13.65 26.65 c-0.35 -0.10 -0.65 -0.90 -0.65 -1.75 0 -1.15 0.15 -1.40 0.65 -1 1 0.85 4 1.20 5.45 0.65 0.75 -0.30 1.50 -0.30 1.65 -0.10 0.70 1.20 -5.15 3 -7.10 2.20z"/>
  <path d="M21.15 23.65 c-0.30 -0.85 -1.65 -4 -2.05 -4.75 -0.15 -0.35 3.65 1.20 4.15 1.70 0.40 0.35 -0.75 3.90 -1.30 3.90 -0.25 0 -0.60 -0.40 -0.80 -0.85z"/>
  <path d="M11.85 23.65 c-0.15 -0.25 -0.45 -1.25 -0.75 -2.25 -0.40 -1.55 -0.35 -2.05 0.35 -3 0.50 -0.65 1.10 -1.80 1.40 -2.65 0.55 -1.75 1.45 -1.75 1.25 0 -0.10 0.85 0.05 1.25 0.60 1.25 0.45 0 0.80 0.25 0.80 0.55 0 0.35 -0.50 0.45 -1.25 0.25 -1.40 -0.35 -1.70 0.30 -1.90 4.05 -0.10 2.25 -0.15 2.40 -0.50 1.80z"/>
  <path d="M29.30 22.75 c0.45 -0.70 1 -1.25 1.25 -1.25 0.70 0 0 1.25 -1.10 1.90 -0.95 0.60 -1 0.60 -0.15 -0.65z"/>
  <path d="M14.45 20.70 c-0.55 -0.70 -0.50 -0.90 0.50 -1.65 0.85 -0.65 1.05 -1.15 0.80 -2.20 -0.35 -1.20 -0.25 -1.35 1 -1.35 1.10 0 1.30 0.15 1 0.90 -0.15 0.45 -0.55 1.80 -0.90 3 -0.60 2.20 -1.30 2.60 -2.40 1.30z"/>
  <path d="M17.50 20.20 c0 -0.85 1.10 -0.70 1.40 0.20 0.10 0.35 -0.15 0.60 -0.60 0.60 -0.45 0 -0.80 -0.35 -0.80 -0.80z"/>
  <path d="M29.50 20.15 c0 -0.70 0.95 -1.90 1.25 -1.60 0.40 0.40 -0.25 1.95 -0.80 1.95 -0.25 0 -0.45 -0.15 -0.45 -0.35z"/>
  <path d="M32.05 20 c-0.05 -0.15 0.40 -1.35 0.95 -2.75 0.50 -1.35 0.95 -2.15 0.95 -1.75 0 0.70 -1.80 5.05 -1.90 4.50z"/>
  <path d="M19.75 18.30 c-0.75 -0.55 -0.85 -0.85 -0.40 -1.30 0.65 -0.70 1.65 -0.25 1.65 0.80 0 1.15 0.85 0.80 1.20 -0.55 0.45 -1.70 1.40 -1.60 1.20 0.15 -0.20 1.60 -2.05 2.10 -3.65 0.90z"/>
  <path d="M23.40 14.70 c-0.70 -0.70 -1.15 -0.75 -2.85 -0.35 -1.40 0.40 -2.15 0.35 -2.60 -0.05 -0.40 -0.40 -0.65 -0.40 -0.80 0.10 -0.15 0.45 -0.60 0.35 -1.65 -0.40 -0.75 -0.55 -1.65 -1 -1.95 -1 -0.60 0 -0.70 -1.15 -0.25 -2.80 0.35 -1.40 2.70 -2.70 4.85 -2.70 2.20 0 3.65 0.50 2.90 1 -0.90 0.50 3.30 3.65 4.35 3.25 0.75 -0.30 0.70 -0.45 -0.45 -1.40 -0.70 -0.60 -1.75 -1.40 -2.25 -1.70 -0.75 -0.50 -0.65 -0.50 0.55 -0.05 1.60 0.60 4.75 3.30 4.75 4 0 0.70 -2.40 2.90 -3.10 2.90 -0.40 0 -1.05 -0.35 -1.50 -0.80z m-4.35 -3.45 c-1.95 -1.15 -3.55 -1.60 -3.55 -1.05 0 0.10 -0.15 0.55 -0.30 1 -0.25 0.60 0.25 0.80 2.40 0.95 1.45 0.10 2.90 0.20 3.15 0.25 0.30 0.05 -0.50 -0.45 -1.70 -1.15z"/>
 </g>
 <g fill="#626c7c">
  <path d="M0 37.75 c0 -1.25 0.25 -2.25 0.50 -2.25 0.30 0 0.50 -0.35 0.50 -0.80 0 -1.30 2 -3.70 3.10 -3.70 0.80 0 0.95 0.20 0.70 1.15 -0.20 0.60 -0.75 2.60 -1.20 4.45 -0.80 3.15 -0.95 3.40 -2.20 3.40 -1.30 0 -1.40 -0.15 -1.40 -2.25z m2.95 -3.25 c0.30 -0.95 0.35 -1.50 0.10 -1.25 -0.25 0.30 -0.65 1.20 -0.85 2 -0.45 1.95 0 1.50 0.75 -0.75z"/>
  <path d="M31.65 38.30 c0.30 -1.90 2.70 -7.05 3.65 -7.80 0.40 -0.35 1.05 -0.35 1.95 0 2.40 0.90 2.75 1.65 2.75 5.70 0 3.60 -0.05 3.80 -1.15 3.80 -1.05 0 -1.10 -0.15 -1 -4.10 0.10 -4.65 -0.15 -4.35 -0.60 0.75 -0.30 3.10 -0.40 3.35 -1.50 3.35 -0.65 0 -1.30 -0.30 -1.40 -0.60 -0.20 -0.50 -0.30 -0.50 -0.30 0 -0.05 0.30 -0.65 0.60 -1.35 0.60 -1.25 0 -1.30 -0.15 -1.05 -1.70z"/>
  <path d="M15.70 36.20 c0.40 -1.65 1.15 -2.55 1.65 -2.05 0.50 0.55 -0.50 3 -1.30 3.25 -0.55 0.20 -0.60 -0.10 -0.35 -1.20z"/>
  <path d="M19.35 18.20 c-0.65 -0.65 -0.35 -1.20 0.70 -1.20 0.55 0 0.95 0.25 0.85 0.60 -0.25 0.70 -1.10 1.05 -1.55 0.60z"/>
 </g>
 <g fill="#a87341">
  <path d="M15.50 37 c0 -0.55 0.35 -1 0.75 -1 0.85 0 0.90 0.10 0.45 1.20 -0.45 1.15 -1.20 1 -1.20 -0.20z"/>
  <path d="M12.80 29.05 c-1.30 -1.40 -0.35 -1.50 2.20 -0.25 l2.25 1.15 -1.80 0 c-1.15 0.05 -2.10 -0.30 -2.65 -0.90z"/>
  <path d="M13.50 25.45 c-0.75 -1.40 -0.45 -1.55 1.45 -0.90 0.90 0.30 2.50 0.45 3.60 0.25 2.50 -0.40 2.60 0.50 0.10 1.15 -2.95 0.85 -4.55 0.70 -5.15 -0.50z"/>
  <path d="M21.20 23.15 c-0.15 -0.50 -0.60 -1.55 -1 -2.35 -0.65 -1.25 -0.65 -1.40 0.10 -1.10 0.40 0.15 1.10 0.30 1.50 0.30 0.50 0 0.70 0.60 0.70 2 0 2 -0.80 2.75 -1.30 1.15z"/>
  <path d="M11.25 21.30 c-0.25 -1.30 -0.20 -2.25 0.20 -2.75 0.30 -0.45 0.90 -1.55 1.30 -2.40 0.45 -0.90 0.95 -1.65 1.20 -1.65 0.65 0 0.05 2.05 -1.10 3.60 -0.55 0.70 -0.85 1.50 -0.70 1.75 0.20 0.30 0.10 1.15 -0.10 1.95 l-0.40 1.45 -0.40 -1.95z"/>
  <path d="M14.70 20.75 c-0.35 -0.85 0.20 -1.85 0.85 -1.50 0.60 0.40 0.60 2.25 -0.05 2.25 -0.30 0 -0.65 -0.35 -0.80 -0.75z"/>
  <path d="M21.85 18 c0.30 -1.15 0.95 -1.30 1.30 -0.30 0.30 0.80 -0.05 1.30 -0.95 1.30 -0.35 0 -0.50 -0.40 -0.35 -1z"/>
  <path d="M19.25 17.95 c-0.50 -0.75 0.05 -1.15 1 -0.75 0.45 0.15 0.65 0.50 0.50 0.80 -0.40 0.65 -1.10 0.65 -1.50 -0.05z"/>
  <path d="M23.25 14.55 c-0.30 -0.30 -2.20 -0.60 -4.25 -0.75 -5.55 -0.35 -6.15 -0.60 -5.80 -2.45 0.70 -3.55 3 -4.10 7.30 -1.65 1.75 1 4.50 4.05 4.50 5 0 0.50 -1.25 0.35 -1.75 -0.15z"/>
 </g>
 <g fill="#d48f52">
  <path d="M15.75 37.35 c-0.20 -0.50 -0.15 -1.15 0.20 -1.50 0.80 -0.80 1.30 0 0.70 1.25 -0.50 1.05 -0.55 1.10 -0.90 0.25z"/>
  <path d="M13.20 29.30 c-0.50 -0.40 -0.85 -0.85 -0.70 -0.95 0.15 -0.15 0.70 0.05 1.20 0.45 0.55 0.35 0.85 0.80 0.75 0.95 -0.15 0.15 -0.70 -0.10 -1.25 -0.45z"/>
  <path d="M14.40 25.70 c-1.80 -0.95 -1.85 -1.85 -0.10 -1.20 0.70 0.30 1.95 0.50 2.75 0.50 1.70 0 1.95 0.75 0.35 1.20 -1.50 0.40 -1.40 0.40 -3 -0.50z"/>
  <path d="M11.30 21.15 c-0.20 -1 -0.15 -2 0.20 -2.65 0.80 -1.50 0.90 -1.15 0.55 1.75 -0.35 2.45 -0.35 2.45 -0.75 0.90z"/>
  <path d="M13.05 12.40 c0.05 -0.35 0.25 -1.20 0.45 -1.90 0.35 -1.10 0.40 -1.05 0.45 0.65 0.05 1 -0.15 1.85 -0.45 1.85 -0.25 0 -0.50 -0.30 -0.45 -0.60z"/>
 </g>
 <g fill="#8892a1">
  <path d="M2.05 38.90 c-0.05 -0.75 0.15 -1.85 0.40 -2.50 0.20 -0.65 0.55 -1.80 0.75 -2.65 l0.30 -1.50 -0.75 1.25 c-0.40 0.70 -0.70 1.65 -0.75 2.15 0 0.45 -0.20 0.85 -0.50 0.85 -0.25 0 -0.50 0.70 -0.50 1.55 0 0.85 -0.20 1.40 -0.50 1.20 -0.25 -0.15 -0.50 -1.10 -0.50 -2.05 0 -1.05 0.20 -1.65 0.50 -1.45 0.30 0.15 0.50 -0.05 0.50 -0.55 0 -1.35 2 -4.20 2.95 -4.20 0.45 0 1.10 -0.25 1.45 -0.60 0.85 -0.85 0.75 -0.45 -0.65 2.30 -0.70 1.35 -1.25 2.95 -1.25 3.50 -0.05 0.60 -0.35 1.75 -0.75 2.55 l-0.65 1.50 -0.05 -1.35z"/>
  <path d="M31.80 38.15 c0.15 -1.05 1.10 -3.30 2.05 -5.05 1.35 -2.45 1.95 -3.10 2.55 -2.85 0.50 0.20 1.25 0.50 1.75 0.60 0.70 0.25 0.85 0.85 0.85 3.95 0 2 -0.20 3.80 -0.50 3.95 -0.30 0.20 -0.50 -1 -0.50 -3.20 0 -1.90 -0.20 -3.65 -0.50 -3.80 -0.30 -0.20 -0.50 1.25 -0.50 3.95 0 4.05 -0.05 4.30 -1.05 4.30 -1 0 -1.05 -0.15 -0.75 -2.60 0.25 -2 0.20 -2.50 -0.20 -2.10 -0.30 0.30 -0.70 1.50 -0.85 2.65 -0.25 1.75 -0.45 2.05 -1.50 2.05 -1.10 0 -1.15 -0.15 -0.85 -1.85z"/>
  <path d="M15.50 36.60 c0 -0.25 0.15 -0.60 0.40 -0.80 0.20 -0.20 0.35 -0.60 0.35 -0.85 0 -0.25 0.25 -0.45 0.50 -0.45 0.30 0 0.50 0.25 0.45 0.50 -0.05 0.30 -0.10 0.85 -0.10 1.25 -0.10 0.75 -1.60 1.10 -1.60 0.35z"/>
  <path d="M19 17.50 c0 -0.25 0.30 -0.50 0.70 -0.50 0.40 0 0.90 0.25 1.05 0.50 0.15 0.30 -0.15 0.50 -0.70 0.50 -0.60 0 -1.05 -0.20 -1.05 -0.50z"/>
 </g>
 <g fill="#c3b18f">
  <path d="M16.10 36 c0.70 -1.10 1.20 -0.95 0.75 0.25 -0.20 0.40 -0.55 0.75 -0.85 0.75 -0.30 0 -0.30 -0.35 0.10 -1z"/>
  <path d="M14.15 25.50 c-1.80 -0.70 -1.40 -1.55 0.40 -0.90 0.85 0.30 2.60 0.40 3.85 0.20 2.15 -0.25 2.25 -0.20 1.40 0.45 -1.10 0.85 -3.95 0.95 -5.65 0.25z"/>
  <path d="M13 16 c0 -0.55 0.25 -1 0.50 -1 0.30 0 0.50 0.45 0.50 1 0 0.55 -0.20 1 -0.50 1 -0.25 0 -0.50 -0.45 -0.50 -1z"/>
 </g>
 <g fill="#abb0c7">
  <path d="M2 39.15 c0 -0.50 0.45 -2.30 0.95 -4 1.10 -3.55 0.65 -4.25 -0.65 -1 -0.50 1.20 -1 1.80 -1.15 1.45 -0.40 -1 1.45 -4.10 2.45 -4.10 0.45 0 1 -0.20 1.15 -0.50 0.15 -0.25 0.55 -0.50 0.85 -0.50 0.30 0 0.20 0.40 -0.20 0.90 -0.90 0.95 -2.40 5.65 -2.40 7.45 0 0.65 -0.20 1.15 -0.50 1.15 -0.25 0 -0.50 -0.40 -0.50 -0.85z"/>
  <path d="M32.05 37.70 c0.60 -3.25 2.95 -7.20 4.20 -7.15 0.65 0.05 0.75 0.15 0.25 0.25 -0.85 0.25 -2.15 3.20 -3.05 6.85 -0.75 3.15 -2 3.25 -1.40 0.05z"/>
  <path d="M38.10 36.50 c0 -0.95 0.10 -1.35 0.25 -0.85 0.10 0.45 0.10 1.25 0 1.75 -0.15 0.45 -0.25 0.05 -0.25 -0.90z"/>
  <path d="M16.15 36.30 c0.20 -0.50 0.35 -1.20 0.35 -1.60 0 -0.45 0.20 -0.65 0.45 -0.50 0.55 0.35 0.15 2.20 -0.60 2.65 -0.35 0.20 -0.40 0 -0.20 -0.55z"/>
 </g>
 <g fill="#e6ead9">
  <path d="M14.80 25.60 c-0.10 -0.20 1.05 -0.40 2.60 -0.45 2.05 0 2.50 0.10 1.60 0.35 -1.70 0.55 -3.90 0.60 -4.20 0.10z"/>
  <path d="M13 16.25 c0 -0.40 0.25 -0.75 0.50 -0.75 0.30 0 0.50 0.35 0.50 0.75 0 0.40 -0.20 0.75 -0.50 0.75 -0.25 0 -0.50 -0.35 -0.50 -0.75z"/>
 </g>
</svg>