<?xml version="1.0" encoding="utf-8"?>
<!DOCTYPE svg PUBLIC "-//W3C//DTD SVG 1.0//EN" "http://www.w3.org/TR/2001/REC-SVG-20010904/DTD/svg10.dtd">
<svg version="1.0" xmlns="http://www.w3.org/2000/svg" width="40px" height="40px" viewBox="0 0 40 40" preserveAspectRatio="xMidYMid meet">
 <g fill="#0e0b0c">
  <path d="M29.50 39.15 c0 -0.50 0.15 -1.75 0.30 -2.75 0.30 -1.75 0.45 -1.90 2 -1.90 1.85 0 2.05 0.60 1.40 3.95 -0.30 1.35 -0.50 1.55 -2 1.55 -1.30 0 -1.70 -0.20 -1.70 -0.85z"/>
  <path d="M14.65 39.15 c-0.95 -0.20 -1.15 -0.55 -1.15 -1.95 0 -1.85 0.60 -2.05 3.95 -1.40 1.35 0.30 1.55 0.50 1.55 2 0 1.60 -0.10 1.70 -1.60 1.65 -0.90 -0.05 -2.15 -0.20 -2.75 -0.30z"/>
  <path d="M0 35.55 c0 -0.75 2.70 -5 3.15 -5.05 0.25 0 1.15 -0.30 2 -0.70 0.90 -0.40 2.80 -1.10 4.25 -1.60 1.40 -0.50 2.60 -1.15 2.60 -1.40 -0.05 -0.30 -0.35 -2.10 -0.70 -4.05 -0.65 -3.30 -0.65 -3.60 0.35 -5.20 1 -1.70 1.10 -2.50 1.25 -9.65 0.10 -4.30 0.60 -5.15 4.30 -6.95 2.15 -1 9.45 -1.40 10.05 -0.50 0.15 0.25 0.90 0.60 1.70 0.80 0.80 0.15 2.35 1.25 3.45 2.45 1.60 1.70 2.05 2.75 2.55 5.35 0.55 2.85 0.50 3.65 -0.20 6.20 -0.95 3.20 -3.75 7.90 -5.25 8.90 -1.20 0.70 -1.30 2.75 -0.25 3.15 0.40 0.20 0.75 0.50 0.75 0.75 0 0.25 -0.35 0.45 -0.75 0.45 -0.40 0 -0.75 0.45 -0.75 1 0 0.65 -0.35 1 -1 1 -0.55 0 -1 0.30 -1 0.70 0 0.85 -1.10 1.30 -3.05 1.30 -1.35 0 -1.45 -0.15 -1.45 -1.75 0 -1.55 0.15 -1.80 1.50 -2.05 0.80 -0.20 1.50 -0.65 1.50 -1 0 -0.40 0.35 -0.70 0.75 -0.70 0.50 0 0.75 -0.50 0.75 -1.55 0 -0.85 0.40 -1.90 0.85 -2.35 0.80 -0.80 0.75 -0.85 -0.05 -1 -0.90 -0.20 -0.95 -1.50 -0.05 -6.60 0.25 -1.50 0.05 -2 -1.30 -3.45 -1.80 -1.85 -5.05 -3.50 -6.90 -3.55 -1.20 0 -4.55 1.90 -4.55 2.60 0 0.20 0.55 0.50 1.25 0.70 1.05 0.25 1.25 0.60 1.25 2 0 1.45 -0.15 1.70 -1.20 1.70 -0.90 0 -1.25 0.35 -1.45 1.50 -0.20 0.95 -0.65 1.50 -1.15 1.50 -0.65 0 -0.75 0.30 -0.50 1.65 0.80 3.55 0.95 6.85 0.35 6.85 -0.30 0 -0.55 0.55 -0.55 1.25 0 1 -0.25 1.25 -1.25 1.25 -0.70 0 -1.25 0.20 -1.25 0.45 0 0.25 -0.80 0.60 -1.75 0.75 -0.95 0.20 -1.75 0.55 -1.75 0.75 0 0.25 -0.80 0.60 -1.75 0.75 -1.25 0.25 -1.75 0.60 -1.75 1.30 0 1.70 -0.60 2.50 -1.80 2.50 -0.65 0 -1.20 -0.20 -1.20 -0.45z m16.85 -31.35 c-0.15 -0.15 -0.60 -0.20 -0.95 -0.05 -0.40 0.15 -0.25 0.30 0.30 0.30 0.55 0.05 0.85 -0.10 0.65 -0.25z"/>
  <path d="M35.40 31.35 c-1.50 -0.40 -1.90 -0.75 -1.90 -1.70 0 -1.15 0.90 -1.50 1.80 -0.75 0.25 0.25 1.40 0.70 2.60 1.05 1.25 0.35 2.10 0.90 2.10 1.30 0 0.85 -1.75 0.90 -4.60 0.10z"/>
 </g>
 <g fill="#11141e">
  <path d="M29.20 37.90 c0.45 -3.15 3.70 -9.40 4.85 -9.40 0.55 0 0.95 0.25 0.95 0.50 0 0.30 0.45 0.50 1 0.50 1.35 0 1.25 0.85 -0.50 4.05 -0.80 1.50 -1.75 3.55 -2 4.60 -0.55 1.95 -1.75 2.50 -2.15 1 -0.20 -0.85 -0.25 -0.85 -0.30 0 -0.05 0.50 -0.45 0.85 -1.10 0.85 -1 0 -1.05 -0.20 -0.75 -2.10z m2.80 -1.65 c0 -0.15 -0.10 -0.25 -0.25 -0.25 -0.15 0 -0.25 0.10 -0.25 0.25 0 0.15 0.10 0.25 0.25 0.25 0.15 0 0.25 -0.10 0.25 -0.25z"/>
  <path d="M13.30 37.95 c-0.65 -3.40 -0.45 -3.95 1.45 -3.95 1.55 0 1.75 -0.15 1.75 -1.25 0 -1.05 0.25 -1.25 1.50 -1.25 1 0 1.50 -0.25 1.50 -0.75 0 -0.95 3 -1.05 3.95 -0.10 0.50 0.40 0.60 0.40 0.35 0 -0.15 -0.30 -0.10 -0.70 0.20 -0.90 0.25 -0.15 0.50 -0.65 0.50 -1.05 0 -1 1.20 -2.20 2.25 -2.20 1.10 0 4.75 1.90 4.75 2.50 0 0.25 -0.60 0.50 -1.35 0.60 -1.10 0.10 -1.45 0.45 -1.55 1.50 -0.10 0.75 -0.75 1.85 -1.45 2.40 -1.30 1.05 -4.65 1.40 -4.65 0.50 0 -0.25 -0.55 -0.50 -1.25 -0.50 -0.80 0 -1.25 0.30 -1.25 0.75 0 0.50 -0.50 0.75 -1.50 0.75 -1.45 0 -1.50 0.10 -1.50 2.25 0 2.20 0 2.25 -1.70 2.25 -1.50 0 -1.70 -0.20 -2 -1.55z m2.20 -0.70 c0 -0.15 -0.10 -0.25 -0.25 -0.25 -0.15 0 -0.25 0.10 -0.25 0.25 0 0.15 0.10 0.25 0.25 0.25 0.15 0 0.25 -0.10 0.25 -0.25z m9.50 -7 c0 -0.15 -0.10 -0.25 -0.25 -0.25 -0.15 0 -0.25 0.10 -0.25 0.25 0 0.15 0.10 0.25 0.25 0.25 0.15 0 0.25 -0.10 0.25 -0.25z m2 -1.50 c0 -0.15 -0.10 -0.25 -0.25 -0.25 -0.15 0 -0.25 0.10 -0.25 0.25 0 0.15 0.10 0.25 0.25 0.25 0.15 0 0.25 -0.10 0.25 -0.25z"/>
  <path d="M3 35 c0 -1 -0.25 -1.50 -0.75 -1.50 -0.95 0 -0.95 -0.50 0.05 -1.90 0.40 -0.60 1.20 -1.10 1.70 -1.10 0.50 0 1.10 -0.20 1.25 -0.50 0.15 -0.25 0.65 -0.50 1.10 -0.50 1.30 0 5.65 -2.20 5.65 -2.85 0 -0.35 0.35 -0.65 0.75 -0.65 0.50 0 0.75 0.50 0.75 1.70 0 1.50 -0.20 1.70 -1.55 2 -0.85 0.15 -2.10 0.30 -2.75 0.30 -0.95 0 -1.20 0.25 -1.20 1.25 0 0.70 -0.40 2.15 -0.85 3.25 -0.80 1.75 -1.10 2 -2.50 2 -1.50 0 -1.65 -0.15 -1.65 -1.50z"/>
  <path d="M38.50 31.25 c0 -0.40 0.35 -0.75 0.75 -0.75 0.40 0 0.75 0.35 0.75 0.75 0 0.40 -0.35 0.75 -0.75 0.75 -0.40 0 -0.75 -0.35 -0.75 -0.75z"/>
  <path d="M30 20.10 c0 -0.85 0.45 -1.85 1.05 -2.40 1 -0.90 1 -0.90 0.70 0.45 -0.65 2.50 0.15 1.40 1.20 -1.75 1.45 -4.30 1.40 -8.05 -0.20 -10.85 -1.55 -2.70 -1.55 -3 -0.05 -1.60 2.35 2.20 3 8.70 1.35 13.10 -1.60 4.20 -4.05 6.05 -4.05 3.05z"/>
  <path d="M13 15.60 c0 -1.85 0.05 -1.90 1.75 -1.90 1.70 0 1.75 0.05 1.75 1.90 0 1.85 -0.05 1.90 -1.75 1.90 -1.70 0 -1.75 -0.05 -1.75 -1.90z"/>
  <path d="M27.55 13.05 c-0.75 -1.20 -2.30 -2.60 -4.40 -3.80 -2.65 -1.55 -3.50 -1.80 -5 -1.60 -1 0.20 -1.95 0.55 -2.15 0.85 -0.15 0.25 -0.90 0.45 -1.65 0.40 -1.25 -0.10 -1.35 -0.30 -1.35 -2.40 0 -1.75 0.25 -2.60 1.15 -3.35 1.65 -1.55 5.60 -3.25 6.95 -3.05 1.30 0.25 1.45 0.15 -2.60 1.65 l-1.75 0.65 2.75 0 c3.15 -0.05 4.65 0.60 8.45 3.60 3.05 2.40 3.85 4.05 3 6.10 l-0.55 1.40 -1.25 -1.90 c-1.30 -2 -5.45 -4.85 -8.25 -5.65 -1.75 -0.50 -5.90 0.25 -6.50 1.20 -0.75 1.15 -0.40 1.25 1.50 0.30 4.20 -2.20 12.20 1.50 13.35 6.20 0.50 1.95 -0.30 1.65 -1.70 -0.60z"/>
  <path d="M29 1.75 c0 -0.15 0.10 -0.25 0.25 -0.25 0.15 0 0.25 0.10 0.25 0.25 0 0.15 -0.10 0.25 -0.25 0.25 -0.15 0 -0.25 -0.10 -0.25 -0.25z"/>
 </g>
 <g fill="#2e1f17">
  <path d="M12.50 39.30 c0 -0.40 0.60 -0.80 1.35 -0.90 0.70 -0.10 1.40 -0.45 1.45 -0.80 0.05 -0.35 0 -0.40 -0.15 -0.10 -0.10 0.25 -0.65 0.50 -1.20 0.50 -0.75 0 -0.95 -0.35 -0.95 -1.80 0 -1.80 0 -1.80 1.95 -1.60 1.40 0.10 1.85 0 1.70 -0.45 -0.15 -0.35 -0.65 -0.65 -1.10 -0.65 -1.25 -0.05 -3.05 -1.80 -3.05 -2.95 0 -0.70 -0.30 -1.05 -1 -1.05 -0.55 0 -1 -0.35 -1 -0.75 0 -0.40 0.35 -0.75 0.75 -0.75 0.95 0 0.95 -1.65 0.05 -5.85 -0.65 -3.05 -0.65 -3.20 0.50 -4.75 0.65 -0.85 1.20 -2.10 1.20 -2.75 0 -1 0.20 -1.15 1.40 -0.90 l1.35 0.25 -1.35 -0.55 c-1.25 -0.50 -1.40 -0.80 -1.40 -3 0 -1.40 0.25 -2.45 0.55 -2.45 0.25 0 0.35 0.30 0.15 0.65 -0.25 0.40 -0.10 0.40 0.45 -0.10 0.75 -0.60 0.85 -0.50 0.85 1.05 0 1.40 0.25 1.75 1.50 2.25 0.85 0.30 1.50 0.90 1.50 1.35 0 1 0.80 1.05 1.20 0.05 0.35 -0.95 4.80 -1.05 5.70 -0.15 0.85 0.85 0.80 3.90 -0.10 3.90 -0.40 0 -0.85 0.55 -1 1.25 -0.25 1.05 -0.60 1.25 -2.10 1.25 -1.35 0 -1.85 -0.25 -2.05 -1 -0.15 -0.55 -0.60 -1 -0.95 -1 -0.40 0 -0.70 -0.35 -0.70 -0.75 0 -0.40 -0.20 -0.75 -0.50 -0.75 -0.25 0 -0.50 0.25 -0.50 0.50 0 0.30 -0.55 0.50 -1.25 0.50 -0.70 0 -1.25 0.25 -1.25 0.50 0 0.30 -0.50 0.50 -1.05 0.50 -0.90 0 -1 0.20 -0.75 1.40 0.20 0.75 0.60 3.10 0.90 5.25 0.55 3.55 0.65 3.85 1.75 3.85 1.40 0 3.70 -1.10 4.60 -2.20 0.40 -0.45 1.45 -0.80 2.35 -0.80 1.50 0 1.70 0.15 1.70 1.25 0 1.05 0.25 1.25 1.55 1.25 1.40 0 1.50 0.10 0.90 0.85 -0.50 0.55 -0.50 0.70 -0.05 0.45 0.30 -0.20 0.60 -0.10 0.60 0.20 0 1.05 -3.30 3.50 -5.10 3.80 -1.85 0.30 -2.65 1.20 -1.15 1.20 0.55 0 0.75 0.55 0.75 2 0 1.70 -0.15 2 -1 2 -0.55 0 -1.15 0.35 -1.30 0.75 -0.45 1.05 -6.70 1.10 -6.70 0.05z m5 -1.55 c0 -0.15 -0.10 -0.25 -0.25 -0.25 -0.15 0 -0.25 0.10 -0.25 0.25 0 0.15 0.10 0.25 0.25 0.25 0.15 0 0.25 -0.10 0.25 -0.25z m-2.15 -2.10 c-0.20 -0.15 -0.50 -0.15 -0.70 0 -0.15 0.20 0 0.35 0.35 0.35 0.35 0 0.50 -0.15 0.35 -0.35z m3.15 -2.40 c0 -0.15 -0.10 -0.25 -0.25 -0.25 -0.15 0 -0.25 0.10 -0.25 0.25 0 0.15 0.10 0.25 0.25 0.25 0.15 0 0.25 -0.10 0.25 -0.25z m3 -1.50 c0 -0.15 -0.10 -0.25 -0.25 -0.25 -0.15 0 -0.25 0.10 -0.25 0.25 0 0.15 0.10 0.25 0.25 0.25 0.15 0 0.25 -0.10 0.25 -0.25z m2.50 -1 c0 -0.15 -0.10 -0.25 -0.25 -0.25 -0.15 0 -0.25 0.10 -0.25 0.25 0 0.15 0.10 0.25 0.25 0.25 0.15 0 0.25 -0.10 0.25 -0.25z m1 -0.50 c0 -0.15 -0.10 -0.25 -0.25 -0.25 -0.15 0 -0.25 0.10 -0.25 0.25 0 0.15 0.10 0.25 0.25 0.25 0.15 0 0.25 -0.10 0.25 -0.25z m-10.15 -15.10 c-0.20 -0.15 -0.35 0 -0.35 0.35 0 0.35 0.15 0.50 0.35 0.35 0.15 -0.20 0.15 -0.50 0 -0.70z"/>
  <path d="M26.50 31.25 c0 -0.15 0.10 -0.25 0.25 -0.25 0.15 0 0.25 0.10 0.25 0.25 0 0.15 -0.10 0.25 -0.25 0.25 -0.15 0 -0.25 -0.10 -0.25 -0.25z"/>
  <path d="M26.60 24.50 c0.10 -1.10 0 -2 -0.20 -2 -0.65 0 -0.45 -3.45 0.35 -5.30 1 -2.40 0.50 -5.70 -0.80 -5.70 -0.60 0 -0.95 -0.35 -0.95 -1 0 -0.80 -0.35 -1 -1.75 -1 -1.55 0 -1.75 -0.15 -1.75 -1.25 0 -1.25 0 -1.25 1.85 -0.50 4.95 2.10 6.90 5.55 5.45 9.75 -1.15 3.30 -1 3.40 1.20 1.25 l2 -1.95 -0.30 1.70 -0.30 1.75 0.75 -1.35 c0.45 -0.75 0.85 -1.75 1 -2.25 0.15 -0.60 0.25 -0.45 0.30 0.45 0.05 1.60 -2.25 5.45 -4.15 6.95 -0.70 0.55 -1.30 1.35 -1.30 1.75 0 0.40 -0.35 0.70 -0.80 0.70 -0.65 0 -0.75 -0.40 -0.60 -2z"/>
  <path d="M16 7.80 c0 -0.85 2.10 -1.40 3.75 -1 2.30 0.55 1.50 1.70 -1.25 1.70 -1.80 0 -2.50 -0.20 -2.50 -0.70z"/>
  <path d="M32 4 c0 -0.35 0.15 -0.50 0.35 -0.35 0.15 0.20 0.15 0.50 0 0.70 -0.20 0.15 -0.35 0 -0.35 -0.35z"/>
  <path d="M30.20 2.40 c-0.20 -0.35 -0.15 -0.40 0.20 -0.20 0.35 0.20 0.60 0.45 0.60 0.60 0 0.40 -0.45 0.20 -0.80 -0.40z"/>
 </g>
 <g fill="#191d2f">
  <path d="M2 38.80 c0 -2.50 1.15 -6.15 2.45 -7.70 0.80 -1 2.20 -1.85 3.70 -2.30 2.35 -0.70 2.35 -0.70 2.35 0.50 0 0.70 -0.30 1.20 -0.70 1.20 -0.70 0 -1.65 1.95 -3.35 6.75 -0.80 2.30 -1 2.50 -2.65 2.65 -1.60 0.15 -1.80 0.05 -1.80 -1.10z m3 -4.05 c0 -0.15 -0.10 -0.25 -0.25 -0.25 -0.15 0 -0.25 0.10 -0.25 0.25 0 0.15 0.10 0.25 0.25 0.25 0.15 0 0.25 -0.10 0.25 -0.25z m0.90 -2.50 c-0.15 -0.15 -0.45 0.10 -0.60 0.60 -0.30 0.70 -0.25 0.75 0.25 0.30 0.35 -0.35 0.50 -0.75 0.35 -0.90z m0.60 -1 c0 -0.15 -0.10 -0.25 -0.25 -0.25 -0.15 0 -0.25 0.10 -0.25 0.25 0 0.15 0.10 0.25 0.25 0.25 0.15 0 0.25 -0.10 0.25 -0.25z"/>
  <path d="M29.20 37.65 c0.15 -1.25 0.85 -3.50 1.50 -5 l1.25 -2.65 -1.50 0 c-1.10 0 -1.45 0.25 -1.45 1 0 0.75 -0.35 1 -1.25 1 -0.95 0 -1.25 0.25 -1.25 1.05 0 1.50 -1.95 2.90 -4.10 2.95 -1.65 0 -1.90 -0.15 -1.95 -1.10 -0.05 -1.10 -0.05 -1.10 -0.45 0.10 -0.20 0.70 -0.40 2 -0.45 2.90 -0.05 1.25 -0.25 1.60 -1 1.60 -1.30 0 -1.80 -0.85 -1 -1.80 0.30 -0.40 0.45 -0.85 0.30 -1 -0.40 -0.45 -1.45 1.75 -1.10 2.30 0.15 0.30 0.05 0.50 -0.20 0.50 -0.30 0 -0.55 -0.20 -0.55 -0.50 0 -0.25 -0.65 -0.50 -1.50 -0.50 -1.45 0 -1.50 -0.05 -1.50 -2.50 0 -1.90 0.20 -2.50 0.75 -2.50 1.25 0 0.85 -0.70 -0.90 -1.50 -1.25 -0.60 -1.65 -1.10 -1.75 -2.35 -0.15 -1.40 0 -1.60 1.35 -1.90 1.60 -0.35 4 0.90 4.05 2.15 0 0.65 0.45 0.75 2.75 0.60 0.85 -0.05 1.60 -0.30 1.65 -0.55 0.10 -0.25 0.85 -0.45 1.65 -0.45 0.95 0 1.45 -0.25 1.45 -0.75 0 -0.40 0.45 -0.75 0.95 -0.75 0.65 0 1.05 -0.40 1.15 -1.10 0.15 -1.25 1.90 -1.90 1.90 -0.75 0 1 3 2.35 5.25 2.35 1.65 0 1.80 0.10 1.50 1.15 -0.30 0.90 -0.25 1 0.30 0.50 2 -1.95 1.60 0.45 -0.85 5.20 -0.95 1.75 -1.70 3.55 -1.70 3.95 0 0.40 -0.25 0.70 -0.55 0.70 -0.80 0 -0.15 -3.60 1.05 -6.05 0.55 -1.05 0.90 -1.95 0.75 -1.95 -0.40 0 -2.10 3.65 -2.70 5.90 -0.40 1.35 -0.85 2.10 -1.40 2.10 -0.65 0 -0.75 -0.40 -0.45 -2.35z m-13.85 -0.50 c-0.20 -0.15 -0.35 0 -0.35 0.35 0 0.35 0.15 0.50 0.35 0.35 0.15 -0.20 0.15 -0.50 0 -0.70z m-0.10 -1.15 c0.15 -0.25 0.05 -0.50 -0.20 -0.50 -0.30 0 -0.55 0.25 -0.55 0.50 0 0.30 0.10 0.50 0.20 0.50 0.15 0 0.40 -0.20 0.55 -0.50z m3.75 0.25 c0 -0.15 -0.10 -0.25 -0.25 -0.25 -0.15 0 -0.25 0.10 -0.25 0.25 0 0.15 0.10 0.25 0.25 0.25 0.15 0 0.25 -0.10 0.25 -0.25z m-0.65 -3.60 c-0.20 -0.15 -0.35 0 -0.35 0.35 0 0.35 0.15 0.50 0.35 0.35 0.15 -0.20 0.15 -0.50 0 -0.70z m8.15 -1.35 c1.10 -1.35 -0.25 -0.85 -1.55 0.50 -1.05 1.20 -1.10 1.30 -0.15 0.80 0.55 -0.30 1.30 -0.90 1.70 -1.30z m-10 0.50 c0 -0.10 -0.40 -0.50 -0.85 -0.85 -0.80 -0.65 -0.85 -0.60 -0.20 0.20 0.65 0.80 1.05 1.05 1.05 0.65z m4.85 -0.15 c-0.20 -0.15 -0.50 -0.15 -0.70 0 -0.15 0.20 0 0.35 0.35 0.35 0.35 0 0.50 -0.15 0.35 -0.35z m1.15 -0.40 c0 -0.15 -0.10 -0.25 -0.25 -0.25 -0.15 0 -0.25 0.10 -0.25 0.25 0 0.15 0.10 0.25 0.25 0.25 0.15 0 0.25 -0.10 0.25 -0.25z m12 0 c0 -0.15 -0.10 -0.25 -0.25 -0.25 -0.15 0 -0.25 0.10 -0.25 0.25 0 0.15 0.10 0.25 0.25 0.25 0.15 0 0.25 -0.10 0.25 -0.25z m-9.70 -1.05 c0.90 -0.70 0.90 -0.70 -0.30 -0.15 -1.55 0.70 -1.80 0.95 -1.20 0.95 0.30 0 0.95 -0.35 1.50 -0.80z m-10.30 0.05 c0 -0.15 -0.10 -0.25 -0.25 -0.25 -0.15 0 -0.25 0.10 -0.25 0.25 0 0.15 0.10 0.25 0.25 0.25 0.15 0 0.25 -0.10 0.25 -0.25z m12.55 -1.60 c0.65 -0.80 0.60 -0.85 -0.15 -0.20 -0.50 0.35 -0.90 0.75 -0.90 0.85 0 0.40 0.40 0.15 1.05 -0.65z"/>
  <path d="M30 20.55 c0 -1.20 0.30 -2.20 0.85 -2.60 0.75 -0.65 0.80 -0.55 0.50 1 -0.20 0.90 -0.35 2.10 -0.35 2.60 0 0.55 -0.20 0.95 -0.50 0.95 -0.25 0 -0.50 -0.85 -0.50 -1.95z"/>
  <path d="M31.50 20.75 c0 -0.25 0.30 -1.05 0.65 -1.75 0.65 -1.35 1.50 -4 2.30 -7.25 l0.45 -2 0.05 2.05 c0.05 2.50 -1.15 6.55 -2.45 8.20 -0.55 0.70 -1 1.05 -1 0.75z"/>
  <path d="M13.35 9.65 c-0.55 -0.50 -0.40 -4.60 0.15 -5.65 0.65 -1.20 3.80 -3.15 4.65 -2.85 0.35 0.15 0.10 0.45 -0.65 0.75 -2.55 1.10 -3.40 2.25 -3.60 4.70 -0.15 2.20 -0.10 2.30 0.70 1.55 0.85 -0.75 0.90 -0.70 0.90 0.50 0 1 -0.25 1.35 -0.90 1.35 -0.50 0 -1.10 -0.15 -1.25 -0.35z"/>
  <path d="M34 7.75 c0 -0.15 0.10 -0.25 0.25 -0.25 0.15 0 0.25 0.10 0.25 0.25 0 0.15 -0.10 0.25 -0.25 0.25 -0.15 0 -0.25 -0.10 -0.25 -0.25z"/>
  <path d="M32.85 5.40 c-0.50 -0.85 -0.80 -1.65 -0.65 -1.75 0.35 -0.35 1.90 2.25 1.70 2.80 -0.05 0.30 -0.55 -0.15 -1.05 -1.05z"/>
 </g>
 <g fill="#142044">
  <path d="M2.65 37.55 c0.35 -3.10 2.20 -7.45 3.40 -8.10 1.20 -0.65 1.20 -0.40 -0.25 2.45 -0.65 1.30 -1.45 3.65 -1.80 5.25 -0.80 3.55 -1.75 3.80 -1.35 0.40z"/>
  <path d="M4.25 38.10 c0.20 -1 1 -3.45 1.85 -5.40 1.25 -2.95 1.75 -3.60 3.10 -4.10 0.90 -0.35 2 -0.60 2.45 -0.60 0.45 0 0.85 -0.35 0.85 -0.75 0 -0.40 0.35 -0.75 0.75 -0.75 0.40 0 0.75 0.35 0.75 0.75 0 0.40 0.60 1.10 1.40 1.60 0.75 0.50 1.50 1.15 1.70 1.45 0.40 0.60 5.40 -0.20 5.40 -0.90 0 -0.20 0.70 -0.40 1.50 -0.40 1.10 0 1.50 -0.25 1.50 -0.90 0 -1.05 0.90 -2.10 1.85 -2.10 1.95 0 -0.20 2.65 -3.60 4.40 -1.10 0.60 -1.80 1.05 -1.60 1.10 0.75 0 3.60 -1.60 4.95 -2.90 1.20 -1.10 1.55 -1.20 2.65 -0.70 0.70 0.35 2.05 0.60 2.95 0.60 0.90 0 1.75 0.10 1.90 0.25 0.15 0.15 -0.45 1.70 -1.40 3.40 -0.90 1.70 -1.90 4.15 -2.20 5.45 l-0.60 2.40 -13.25 -0.05 -13.25 0 0.35 -1.85z m12.95 0.85 c-0.15 -0.30 -0.05 -0.75 0.30 -0.95 0.35 -0.20 0.50 -0.70 0.40 -1.05 -0.15 -0.50 -0.40 -0.35 -0.85 0.45 -0.55 1 -0.40 2.10 0.25 2.10 0.15 0 0.10 -0.25 -0.10 -0.55z m-1.90 -2.20 c-0.15 -1.40 -0.80 -2.35 -0.80 -1.10 0 0.80 0.50 2.35 0.75 2.35 0.10 0 0.10 -0.55 0.05 -1.25z m4.55 -0.60 c-0.20 -0.15 -0.35 0 -0.35 0.35 0 0.35 0.15 0.50 0.35 0.35 0.15 -0.20 0.15 -0.50 0 -0.70z m-0.85 0.10 c0 -0.15 -0.10 -0.25 -0.25 -0.25 -0.15 0 -0.25 0.10 -0.25 0.25 0 0.15 0.10 0.25 0.25 0.25 0.15 0 0.25 -0.10 0.25 -0.25z m-0.65 -3.35 c-0.15 -0.35 -0.25 -0.10 -0.25 0.60 0 0.70 0.10 0.95 0.25 0.65 0.10 -0.35 0.10 -0.95 0 -1.25z m6.90 -0.60 c1.40 -1.20 2.40 -2.30 2.25 -2.45 -0.15 -0.15 -1.50 0.85 -3 2.20 -1.50 1.30 -2.50 2.45 -2.25 2.45 0.30 0 1.65 -1 3 -2.20z m-8.90 0.85 c-0.20 -0.15 -0.35 0 -0.35 0.35 0 0.35 0.15 0.50 0.35 0.35 0.15 -0.20 0.15 -0.50 0 -0.70z m-0.05 -1.55 c-0.15 -0.30 -1.15 -1 -2.15 -1.55 -1.70 -0.95 -1.75 -0.95 -0.65 -0.10 0.70 0.55 1.60 1.30 2 1.70 0.80 0.75 1.30 0.70 0.80 -0.05z m3.20 0.65 c0 -0.15 -0.10 -0.25 -0.25 -0.25 -0.15 0 -0.25 0.10 -0.25 0.25 0 0.15 0.10 0.25 0.25 0.25 0.15 0 0.25 -0.10 0.25 -0.25z m1.85 -0.60 c-0.20 -0.15 -0.50 -0.15 -0.70 0 -0.15 0.20 0 0.35 0.35 0.35 0.35 0 0.50 -0.15 0.35 -0.35z"/>
  <path d="M31.70 37.95 c0.35 -2.15 2.90 -7.65 3.80 -8.20 1.25 -0.80 1 0.40 -0.95 4.25 -1.15 2.25 -2.05 4.55 -2.05 5.05 0 0.55 -0.25 0.95 -0.55 0.95 -0.40 0 -0.45 -0.65 -0.25 -2.05z"/>
  <path d="M30.55 19.65 c-0.05 -0.85 0.20 -1.75 0.45 -1.90 0.60 -0.35 0.60 1.10 0 2.50 -0.35 0.85 -0.45 0.75 -0.45 -0.60z"/>
  <path d="M32 19.90 c0 -0.70 1.15 -2.90 1.60 -2.90 0.20 0 0.40 0.20 0.40 0.45 0 0.55 -1.95 2.95 -2 2.45z"/>
  <path d="M13.35 9.65 c-0.50 -0.45 -0.40 -3.15 0.10 -3.15 0.20 0 0.30 0.60 0.15 1.40 -0.25 1.20 -0.20 1.30 0.55 0.65 0.75 -0.60 0.85 -0.55 0.85 0.40 0 1 -0.95 1.40 -1.65 0.70z"/>
 </g>
 <g fill="#4b2d19">
  <path d="M13 38.90 c0 -0.60 0.35 -0.85 1.15 -0.75 0.85 0.05 1.10 -0.15 1 -0.95 -0.10 -0.80 0.25 -1.20 1.10 -1.40 1.30 -0.35 1.75 -1.30 0.60 -1.30 -0.45 0 -0.60 -0.45 -0.45 -1.45 0.15 -1.25 -0.05 -1.65 -1.80 -2.75 -1.85 -1.15 -2 -1.40 -2.55 -4.90 -1.20 -7.40 -1.20 -7.20 0.05 -8.25 0.75 -0.60 1.10 -1.30 1 -2.10 -0.20 -1.10 -0.05 -1.15 1.75 -0.85 1.75 0.30 1.85 0.25 0.95 -0.45 -0.55 -0.40 -1.40 -0.75 -1.95 -0.75 -1.60 0 -0.95 -3.45 0.85 -4.85 1.90 -1.45 3.30 -1.50 3.30 -0.15 0 0.75 -0.45 1.10 -1.50 1.35 -1.25 0.20 -1.50 0.50 -1.50 1.70 l0 1.45 4.70 0 c2.60 0 5.05 0.15 5.50 0.30 0.60 0.25 0.80 0 0.80 -1 0 -1.05 -0.25 -1.30 -1.20 -1.30 -0.70 0 -1.55 -0.35 -2 -0.75 -0.40 -0.40 -1.20 -0.75 -1.75 -0.75 -0.70 0 -1.05 -0.30 -1.05 -1 0 -0.55 0.30 -1 0.70 -1 1.60 0 5.20 2 6.70 3.70 1.85 2.10 2.15 4.90 0.80 8.05 -1.10 2.60 -0.45 2.80 1.55 0.50 1.90 -2.20 2.05 -1.95 1.15 1.55 -0.40 1.40 -1.10 2.65 -1.75 3.10 -0.75 0.45 -1.15 1.20 -1.15 2.05 0 1.75 -1.45 3.10 -5 4.75 -1.50 0.70 -2.50 1.30 -2.15 1.30 0.85 0 3.15 -1 4.80 -2.15 0.75 -0.50 1.35 -0.70 1.35 -0.45 0 1.25 -6.40 4.05 -7 3.10 -0.20 -0.30 -0.70 -0.40 -1.20 -0.20 -0.65 0.25 -0.80 0.80 -0.70 2.15 0.10 1.10 0.40 1.75 0.80 1.70 0.30 -0.10 0.60 0.20 0.60 0.60 0 0.90 -1.35 1 -1.60 0.15 -0.15 -0.40 -0.45 -0.20 -0.85 0.50 -0.45 0.85 -0.50 1.35 -0.05 1.85 0.45 0.55 0.15 0.65 -1.70 0.60 -1.85 -0.05 -2.30 -0.25 -2.30 -0.95z m8.65 -10.90 c1.05 -1.15 1.05 -1.15 -0.50 0.10 -0.90 0.75 -2.10 1.45 -2.65 1.65 -0.55 0.15 -1 0.55 -1 0.80 0 0.70 2.80 -1.05 4.15 -2.55z m3.35 -10.10 c0 -0.50 -0.15 -0.90 -0.30 -0.90 -0.50 0 -1.70 1.40 -1.70 1.95 0 0.30 -0.25 0.55 -0.55 0.55 -0.60 0 -0.15 1.85 0.70 2.90 0.40 0.55 0.70 0.20 1.20 -1.50 0.35 -1.20 0.65 -2.55 0.65 -3z m-3.15 -1.50 c-0.80 -0.50 -1.05 -0.10 -0.65 0.95 0.30 0.75 0.45 0.75 0.80 0.15 0.30 -0.45 0.25 -0.85 -0.15 -1.10z m-6.60 -0.90 c0.15 -0.25 0.05 -0.50 -0.20 -0.50 -0.30 0 -0.55 0.25 -0.55 0.50 0 0.30 0.10 0.50 0.20 0.50 0.15 0 0.40 -0.20 0.55 -0.50z m5.10 0.15 c-0.20 -0.15 -0.50 -0.15 -0.70 0 -0.15 0.20 0 0.35 0.35 0.35 0.35 0 0.50 -0.15 0.35 -0.35z m3.15 -0.90 c-0.70 -0.85 -2.30 -1 -2.75 -0.30 -0.15 0.25 0.45 0.60 1.35 0.70 0.90 0.10 1.75 0.25 1.85 0.25 0.10 0.05 -0.10 -0.25 -0.45 -0.65z"/>
  <path d="M14 36.25 c0 -0.15 0.10 -0.25 0.25 -0.25 0.15 0 0.25 0.10 0.25 0.25 0 0.15 -0.10 0.25 -0.25 0.25 -0.15 0 -0.25 -0.10 -0.25 -0.25z"/>
  <path d="M32.35 18.95 c0.20 -0.65 0.40 -0.90 0.55 -0.50 0.10 0.35 -0.05 0.90 -0.30 1.15 -0.40 0.40 -0.45 0.20 -0.25 -0.65z"/>
  <path d="M13.50 6.50 c0 -0.35 0.15 -0.50 0.35 -0.35 0.15 0.20 0.15 0.50 0 0.70 -0.20 0.15 -0.35 0 -0.35 -0.35z"/>
 </g>
 <g fill="#2b2e3e">
  <path d="M12.50 39.55 c0 -0.15 0.25 -0.65 0.50 -1.05 0.35 -0.55 0.60 -0.60 1.05 -0.15 0.75 0.75 2.10 -0.30 1.40 -1.15 -0.25 -0.35 -0.05 -1.35 0.55 -2.60 0.55 -1.15 1 -2.25 1 -2.50 0 -0.25 0.40 -0.60 0.90 -0.75 0.45 -0.10 1.20 -0.40 1.65 -0.55 0.65 -0.30 0.85 -0.05 0.85 0.95 0 0.75 -0.15 1.15 -0.35 0.90 -0.15 -0.30 -0.70 -0.50 -1.15 -0.50 -1.25 0 -1.25 3.60 -0.05 4.30 0.50 0.25 0.75 0.65 0.55 0.85 -0.20 0.20 -0.70 0.10 -1.05 -0.25 -0.55 -0.45 -0.95 -0.20 -1.90 1.15 -0.90 1.30 -1.50 1.70 -2.55 1.70 -0.75 -0.05 -1.40 -0.20 -1.40 -0.35z"/>
  <path d="M16 39.50 c0 -0.25 0.25 -0.50 0.50 -0.50 0.30 0 0.50 0.25 0.50 0.50 0 0.30 -0.20 0.50 -0.50 0.50 -0.25 0 -0.50 -0.20 -0.50 -0.50z"/>
  <path d="M2 38 c0 -1.15 -0.20 -1.50 -1 -1.50 -0.65 0 -1 -0.35 -1 -1 0 -0.55 0.15 -1 0.40 -1 0.20 0 0.80 -0.75 1.30 -1.60 0.75 -1.40 5.30 -4.45 5.30 -3.60 0 0.10 -0.55 1.30 -1.20 2.60 -0.65 1.30 -1.45 3.55 -1.80 5 -0.65 2.90 -2 3.65 -2 1.10z"/>
  <path d="M31.75 37.65 c0.60 -3.30 2.25 -5.10 2.25 -2.45 0 2.70 -0.60 4.30 -1.60 4.30 -0.90 0 -0.95 -0.20 -0.65 -1.85z"/>
  <path d="M13.50 36.05 c0 -0.60 0.25 -1.05 0.50 -1.05 0.30 0 0.50 0.30 0.50 0.70 0 0.40 -0.20 0.90 -0.50 1.05 -0.25 0.15 -0.50 -0.15 -0.50 -0.70z"/>
  <path d="M33.50 33.15 c0 -0.75 2 -3.65 2.50 -3.65 0.30 0 1.30 0.35 2.25 0.70 2.05 0.90 2.35 2.30 0.50 2.30 -0.70 0 -1.25 -0.20 -1.25 -0.50 0 -0.90 -0.90 -0.55 -1.25 0.50 -0.20 0.65 -0.75 1 -1.55 1 -0.65 0 -1.20 -0.15 -1.20 -0.35z"/>
  <path d="M33.25 16.80 c0.70 -1.85 1.25 -4 1.30 -4.75 0 -0.70 0.15 -1 0.30 -0.65 0.45 1.10 -0.85 6.30 -1.90 7.60 -0.85 1.10 -0.80 0.75 0.30 -2.20z"/>
  <path d="M31 18 c0 -0.35 0.15 -0.50 0.35 -0.35 0.15 0.20 0.15 0.50 0 0.70 -0.20 0.15 -0.35 0 -0.35 -0.35z"/>
  <path d="M13.50 10.55 c0 -0.25 -0.15 -0.85 -0.35 -1.35 -0.20 -0.55 -0.15 -0.75 0.25 -0.50 0.30 0.15 0.65 0.10 0.85 -0.20 0.60 -1 1.05 -0.45 0.85 1 -0.20 1.30 -1.60 2.25 -1.60 1.05z"/>
  <path d="M13 6.90 c0 -0.75 0.20 -1.90 0.45 -2.55 0.50 -1.25 3.40 -3.35 4.60 -3.35 0.40 0.05 0.05 0.40 -0.80 0.85 -2.40 1.25 -3.25 2.20 -3.25 3.60 0 0.70 -0.25 1.65 -0.50 2.05 -0.40 0.60 -0.50 0.45 -0.50 -0.60z"/>
  <path d="M32.80 4.90 l-0.85 -1.65 1 1.20 c0.90 1 1.35 2.05 0.90 2.05 -0.05 0 -0.55 -0.75 -1.05 -1.60z"/>
 </g>
 <g fill="#5e381d">
  <path d="M14 39.60 c0 -0.20 0.45 -0.65 1.05 -1 0.85 -0.55 0.90 -0.80 0.40 -1.40 -0.45 -0.55 -0.45 -0.90 0.20 -1.60 0.40 -0.45 0.90 -1.50 1.05 -2.35 0.25 -1.05 0.85 -1.75 2.15 -2.35 1 -0.45 2.05 -0.70 2.30 -0.55 0.65 0.40 -1.05 1.65 -2.25 1.65 -0.70 0 -0.90 0.40 -0.90 1.90 0 2.05 -2.25 6.10 -3.35 6.10 -0.35 0 -0.65 -0.15 -0.65 -0.40z"/>
  <path d="M16 39.50 c0 -0.25 0.20 -0.50 0.45 -0.50 0.30 0 0.65 0.25 0.80 0.50 0.15 0.30 -0.05 0.50 -0.45 0.50 -0.45 0 -0.80 -0.20 -0.80 -0.50z"/>
  <path d="M18.25 37 c-0.15 -0.25 0.05 -0.50 0.50 -0.50 0.45 0 0.65 0.25 0.50 0.50 -0.15 0.30 -0.40 0.50 -0.50 0.50 -0.10 0 -0.35 -0.20 -0.50 -0.50z"/>
  <path d="M20 32.55 c0 -0.30 0.30 -0.55 0.70 -0.55 0.40 0 1.15 -0.15 1.65 -0.30 0.60 -0.25 0.75 -0.20 0.40 0.15 -0.75 0.80 -2.75 1.30 -2.75 0.70z"/>
  <path d="M14.35 30.10 c-0.65 -0.15 -0.85 -0.50 -0.70 -1.15 0.15 -0.60 0 -0.95 -0.45 -0.95 -0.40 0 -0.75 -0.40 -0.75 -0.85 -0.05 -0.50 -0.15 -1.60 -0.25 -2.45 -0.05 -0.90 -0.35 -2.05 -0.70 -2.65 -0.70 -1.40 -0.10 -4.55 0.95 -4.90 0.45 -0.10 1.20 -0.45 1.70 -0.70 1.25 -0.70 1.70 -0.15 0.95 1.05 -0.30 0.50 -0.40 1.10 -0.15 1.20 0.55 0.35 1.05 -0.85 1.05 -2.40 0 -0.60 0.25 -1.35 0.55 -1.65 0.40 -0.40 0.25 -0.65 -0.55 -0.90 -0.85 -0.25 -0.95 -0.50 -0.45 -1.05 1 -1.20 5.95 -0.75 5.95 0.60 0 0.40 -0.35 0.70 -0.75 0.70 -0.40 0 -0.75 0.25 -0.75 0.50 0 0.30 -0.30 0.50 -0.70 0.50 -0.40 0 -0.95 0.70 -1.25 1.55 -0.75 2.20 -0.70 2.40 0.45 2.10 0.55 -0.15 1 -0.70 1 -1.20 0 -0.55 0.35 -0.95 0.75 -0.95 0.40 0 0.75 0.35 0.75 0.75 0 1 0.80 0.95 1.20 -0.05 0.45 -1.15 0.40 -1.20 -0.70 -1.20 -0.55 0 -1 -0.25 -1 -0.55 0 -0.40 0.70 -0.45 2.10 -0.25 2.10 0.35 2.10 0.35 1.15 -0.70 -0.90 -1 -0.90 -1 0.15 -1 0.55 0 1.20 -0.20 1.35 -0.50 0.15 -0.25 -0.05 -0.50 -0.50 -0.50 -0.45 0 -1.80 -0.45 -3.05 -1 -2 -0.95 -2.20 -1.20 -2.20 -2.75 0 -2.15 0.70 -2.25 4.35 -0.55 5.40 2.55 6.65 7.85 2.90 12.30 -0.35 0.40 -0.95 1.85 -1.35 3.20 -0.50 1.90 -0.90 2.50 -1.70 2.55 -0.55 0.05 -1.95 0.80 -3.05 1.70 -2.05 1.65 -4.60 2.50 -6.30 2.15z m3.55 -2.45 l1.45 -0.90 -3.20 0 c-1.70 0 -3.15 0.05 -3.15 0.15 0 0.10 2.95 1.50 3.35 1.60 0.10 0 0.75 -0.40 1.55 -0.85z m-2.05 -1.50 c-0.20 -0.15 -0.50 -0.15 -0.70 0 -0.15 0.20 0 0.35 0.35 0.35 0.35 0 0.50 -0.15 0.35 -0.35z m6.15 -1.15 c0 -0.30 -0.20 -0.90 -0.50 -1.40 -0.25 -0.45 -0.75 -1.50 -1.05 -2.35 -0.35 -1.05 -0.60 -1.30 -0.90 -0.80 -0.25 0.35 -0.85 0.60 -1.35 0.50 -0.55 -0.05 -1.35 0.05 -1.85 0.30 -0.55 0.25 -1.20 0.10 -1.80 -0.45 -1.25 -1.15 -1.55 -1 -1.55 0.75 0 0.85 0.20 1.40 0.50 1.20 0.25 -0.15 0.30 -0.65 0.15 -1.05 -0.25 -0.70 -0.15 -0.75 0.90 -0.15 0.65 0.35 2.25 0.55 3.60 0.50 2.70 -0.15 3.10 0.55 0.75 1.35 l-1.65 0.50 1.90 0.05 c1.75 0.05 2.40 0.65 1.35 1.30 -1 0.60 -0.50 1.30 0.50 0.75 0.55 -0.30 1 -0.75 1 -1z m-5 -0.75 c0 -0.15 -0.10 -0.25 -0.25 -0.25 -0.15 0 -0.25 0.10 -0.25 0.25 0 0.15 0.10 0.25 0.25 0.25 0.15 0 0.25 -0.10 0.25 -0.25z m-1.65 -0.60 c-0.20 -0.15 -0.50 -0.15 -0.70 0 -0.15 0.20 0 0.35 0.35 0.35 0.35 0 0.50 -0.15 0.35 -0.35z m12.35 -6.95 c0.20 -0.75 0.10 -1.60 -0.15 -1.85 -0.40 -0.40 -0.55 -0.25 -0.55 0.50 0 0.60 -0.15 1.40 -0.30 1.85 -0.15 0.45 -0.10 0.80 0.20 0.80 0.25 0 0.65 -0.60 0.80 -1.30z"/>
  <path d="M26.50 29.25 c0 -0.15 0.10 -0.25 0.25 -0.25 0.15 0 0.25 0.10 0.25 0.25 0 0.15 -0.10 0.25 -0.25 0.25 -0.15 0 -0.25 -0.10 -0.25 -0.25z"/>
  <path d="M27 26 c0.20 -1.15 0.80 -2.35 1.30 -2.75 0.80 -0.60 0.85 -0.80 0.25 -1.20 -0.55 -0.35 -0.35 -0.85 0.95 -2.50 0.90 -1.15 1.70 -2.05 1.75 -2.05 0.10 0 0 1.05 -0.10 2.40 -0.30 2.40 -1.30 4.10 -2.50 4.10 -0.40 0 -0.65 0.55 -0.65 1.45 0 0.80 -0.30 1.70 -0.70 2 -0.55 0.45 -0.60 0.20 -0.30 -1.45z"/>
  <path d="M23.50 27.25 c0 -0.15 0.10 -0.25 0.25 -0.25 0.15 0 0.25 0.10 0.25 0.25 0 0.15 -0.10 0.25 -0.25 0.25 -0.15 0 -0.25 -0.10 -0.25 -0.25z"/>
  <path d="M32.30 19.35 c0.15 -0.50 0.45 -0.75 0.60 -0.60 0.15 0.15 0 0.55 -0.35 0.90 -0.50 0.45 -0.55 0.40 -0.25 -0.30z"/>
  <path d="M14.50 14.75 c0 -0.15 0.10 -0.25 0.25 -0.25 0.15 0 0.25 0.10 0.25 0.25 0 0.15 -0.10 0.25 -0.25 0.25 -0.15 0 -0.25 -0.10 -0.25 -0.25z"/>
  <path d="M13.50 9.80 c0 -0.70 1.80 -2.30 2.65 -2.30 0.25 0 0.35 0.60 0.25 1.40 -0.10 1.05 -0.45 1.40 -1.50 1.50 -1 0.10 -1.40 -0.05 -1.40 -0.60z"/>
  <path d="M13.05 7.20 c0 -0.55 0.15 -0.70 0.30 -0.30 0.15 0.35 0.10 0.80 -0.05 0.95 -0.15 0.20 -0.30 -0.10 -0.25 -0.65z"/>
 </g>
 <g fill="#27355a">
  <path d="M12.50 39.75 c0 -0.90 0.95 -2 1.30 -1.60 0.20 0.20 0 0.75 -0.45 1.20 -0.45 0.50 -0.85 0.65 -0.85 0.40z"/>
  <path d="M15.55 36.80 c-0.45 -0.50 -0.45 -0.80 -0.05 -1.05 0.30 -0.20 0.75 -0.90 1.05 -1.60 0.50 -1.35 1.45 -1.10 1.45 0.40 0 1.20 -0.85 2.95 -1.45 2.95 -0.25 0 -0.70 -0.30 -1 -0.70z"/>
  <path d="M13.50 36.15 c0 -0.65 0.25 -1.15 0.50 -1.15 0.65 0 0.65 0.55 0 1.50 -0.40 0.60 -0.50 0.55 -0.50 -0.35z"/>
  <path d="M20 32.65 c0 -0.20 0.95 -0.70 2.10 -1.05 1.15 -0.35 2.75 -1.15 3.55 -1.70 1 -0.70 1.40 -0.85 1.25 -0.35 -0.40 1.15 -6.90 4.10 -6.90 3.10z"/>
  <path d="M15.50 31.75 c0 -0.15 0.10 -0.25 0.25 -0.25 0.15 0 0.25 0.10 0.25 0.25 0 0.15 -0.10 0.25 -0.25 0.25 -0.15 0 -0.25 -0.10 -0.25 -0.25z"/>
  <path d="M30.65 19.75 c0 -1.10 0.10 -1.50 0.20 -0.85 0.10 0.60 0.10 1.50 0 2 -0.15 0.45 -0.25 -0.05 -0.20 -1.15z"/>
  <path d="M33.15 17.30 c0.60 -1.50 1.15 -2.65 1.30 -2.55 0.25 0.30 -1.45 4.70 -1.95 5 -0.20 0.15 0.05 -0.95 0.65 -2.45z"/>
  <path d="M34.60 12.75 c0 -0.80 0.10 -1.10 0.25 -0.60 0.10 0.45 0.10 1.15 0 1.50 -0.15 0.30 -0.25 -0.05 -0.25 -0.90z"/>
  <path d="M13.50 9.30 c0 -0.10 0.35 -0.30 0.75 -0.50 0.40 -0.15 0.75 -0.05 0.75 0.20 0 0.30 -0.35 0.50 -0.75 0.50 -0.40 0 -0.75 -0.10 -0.75 -0.20z"/>
  <path d="M13.05 6.65 c-0.05 -0.90 0.20 -1.65 0.45 -1.65 0.60 0 0.60 0.85 0 2.25 -0.35 0.85 -0.45 0.75 -0.45 -0.60z"/>
  <path d="M13.50 4.25 c0 -0.15 0.10 -0.25 0.25 -0.25 0.15 0 0.25 0.10 0.25 0.25 0 0.15 -0.10 0.25 -0.25 0.25 -0.15 0 -0.25 -0.10 -0.25 -0.25z"/>
 </g>
 <g fill="#45444a">
  <path d="M0 37.50 c0 -1.35 0.15 -2.50 0.40 -2.50 0.20 0 0.80 -0.95 1.35 -2.05 0.50 -1.15 1.30 -2.15 1.75 -2.30 0.40 -0.10 1.15 -0.45 1.65 -0.70 0.55 -0.30 1.05 -0.45 1.15 -0.35 0.10 0.10 -0.40 1.55 -1.05 3.20 -0.65 1.60 -1.35 3.90 -1.55 5.10 -0.30 2 -0.40 2.10 -2 2.10 l-1.70 0 0 -2.50z"/>
  <path d="M31.70 38.15 c0.20 -1.05 1.10 -3.35 2 -5.15 1.80 -3.45 2.50 -3.80 5.20 -2.40 1.80 0.95 1.30 1.55 -1.15 1.30 -2.10 -0.25 -2.25 -0.20 -2.25 0.90 0 1.40 -1 3.70 -1.60 3.70 -0.20 0 -0.40 0.80 -0.40 1.75 0 1.45 -0.20 1.75 -1.05 1.75 -0.95 0 -1.05 -0.20 -0.75 -1.85z"/>
  <path d="M15.70 38.05 c0.20 -0.35 0.15 -0.90 -0.20 -1.30 -0.40 -0.50 -0.40 -0.75 0 -1 0.30 -0.20 0.80 -0.90 1.05 -1.65 0.35 -0.90 0.65 -1.10 1.05 -0.70 0.65 0.65 -0.55 4.70 -1.55 5 -0.45 0.15 -0.55 0 -0.35 -0.35z"/>
  <path d="M13.50 36 c0 -0.25 0.25 -0.50 0.55 -0.50 0.25 0 0.35 0.25 0.20 0.50 -0.15 0.30 -0.40 0.50 -0.55 0.50 -0.10 0 -0.20 -0.20 -0.20 -0.50z"/>
  <path d="M33 18 c0 -0.40 0.25 -1.10 0.50 -1.50 0.45 -0.65 0.50 -0.65 0.50 0 0 0.40 -0.25 1.10 -0.50 1.50 -0.45 0.65 -0.50 0.65 -0.50 0z"/>
  <path d="M13 16.25 c0 -1.45 0.20 -1.75 1.05 -1.75 0.60 0 0.90 0.20 0.65 0.55 -0.15 0.30 -0.05 0.75 0.30 0.95 0.95 0.55 0.20 2 -1 2 -0.80 0 -1 -0.30 -1 -1.75z"/>
  <path d="M16.05 17.20 c0 -0.55 0.15 -0.70 0.30 -0.30 0.15 0.35 0.10 0.80 -0.05 0.95 -0.15 0.20 -0.30 -0.10 -0.25 -0.65z"/>
  <path d="M16 15.50 c0 -0.35 0.15 -0.50 0.35 -0.35 0.15 0.20 0.15 0.50 0 0.70 -0.20 0.15 -0.35 0 -0.35 -0.35z"/>
  <path d="M14.50 8.75 c0 -0.15 0.10 -0.25 0.25 -0.25 0.15 0 0.25 0.10 0.25 0.25 0 0.15 -0.10 0.25 -0.25 0.25 -0.15 0 -0.25 -0.10 -0.25 -0.25z"/>
  <path d="M13 6.40 c0 -0.80 0.25 -1.40 0.50 -1.40 0.65 0 0.65 1 0 2 -0.40 0.60 -0.50 0.45 -0.50 -0.60z"/>
  <path d="M16.50 1.75 c0 -0.15 0.10 -0.25 0.25 -0.25 0.15 0 0.25 0.10 0.25 0.25 0 0.15 -0.10 0.25 -0.25 0.25 -0.15 0 -0.25 -0.10 -0.25 -0.25z"/>
 </g>
 <g fill="#714423">
  <path d="M16.50 39.50 c0 -0.35 0.15 -0.50 0.35 -0.35 0.15 0.20 0.15 0.50 0 0.70 -0.20 0.15 -0.35 0 -0.35 -0.35z"/>
  <path d="M15.70 38.05 c0.20 -0.35 0.10 -0.90 -0.20 -1.30 -0.50 -0.60 -0.45 -0.75 0.15 -0.75 0.45 0 0.90 -0.40 1 -0.85 0.15 -0.50 0.25 0 0.20 1.05 -0.05 1.20 -0.40 2.05 -0.80 2.20 -0.45 0.15 -0.55 0 -0.35 -0.35z"/>
  <path d="M18.50 37 c0 -0.25 0.25 -0.50 0.55 -0.50 0.25 0 0.35 0.25 0.20 0.50 -0.15 0.30 -0.40 0.50 -0.55 0.50 -0.10 0 -0.20 -0.20 -0.20 -0.50z"/>
  <path d="M13.10 29.40 c-0.65 -0.65 -0.70 -3.35 -0.15 -5.40 0.25 -0.85 0.45 -1.05 0.75 -0.60 0.20 0.30 0.80 0.60 1.30 0.60 0.70 0 0.90 0.25 0.65 0.80 -0.20 0.55 0.05 1.10 0.60 1.50 0.90 0.65 0.90 0.70 -0.20 0.70 -0.60 0 -1.60 -0.25 -2.15 -0.55 -0.80 -0.45 -0.95 -0.40 -0.80 0.15 0.15 0.35 1.40 1.15 2.85 1.70 1.90 0.75 2.40 1.15 1.80 1.40 -1.35 0.50 -4 0.35 -4.65 -0.30z"/>
  <path d="M18 25.50 c0 -0.65 0.45 -1.10 1.25 -1.30 1.80 -0.45 2.20 0.20 0.80 1.35 -1.50 1.20 -2.05 1.20 -2.05 -0.05z"/>
  <path d="M21.50 23.55 c-0.30 -0.60 -0.40 -1.30 -0.25 -1.55 0.15 -0.25 -0.10 -0.90 -0.55 -1.45 -0.80 -0.90 -0.95 -0.90 -1.45 -0.20 -0.35 0.45 -0.85 0.65 -1.15 0.45 -0.95 -0.55 -0.70 -1.20 0.55 -1.40 0.85 -0.10 1.05 -0.45 0.95 -1.50 -0.10 -1.05 0.10 -1.40 0.70 -1.40 0.55 0 0.75 0.30 0.55 1 -0.15 0.65 0 1 0.45 1 0.40 0 0.70 0.25 0.70 0.50 0 0.30 0.35 0.50 0.80 0.50 0.70 0 0.80 0.40 0.55 2.05 -0.35 2.65 -1.05 3.40 -1.85 2z"/>
  <path d="M29.30 22.75 c0.45 -0.70 0.70 -1.55 0.55 -1.90 -0.15 -0.35 0.05 -1.20 0.45 -1.90 0.65 -1.20 0.65 -1.15 0.70 0.70 0 2.15 -0.60 3.60 -1.75 4.05 -0.65 0.25 -0.65 0.10 0.05 -0.95z"/>
  <path d="M11.60 22.05 c-0.80 -2.35 -0.75 -3.20 0.35 -4.60 0.50 -0.65 1 -1.65 1.10 -2.20 0.15 -0.55 0.60 -1.05 1.10 -1.15 0.75 -0.15 0.85 0.05 0.55 1.20 -0.25 0.95 -0.20 1.25 0.25 1 1.05 -0.70 0.55 1.15 -0.55 1.90 -0.75 0.50 -1.35 1.70 -1.70 3.20 l-0.50 2.35 -0.60 -1.70z"/>
  <path d="M16.10 22.95 c0.25 -0.80 2.25 -1.05 2.70 -0.40 0.15 0.25 -0.05 0.45 -0.50 0.45 -0.40 0 -1.10 0.15 -1.60 0.35 -0.60 0.20 -0.75 0.10 -0.60 -0.40z"/>
  <path d="M14 22.50 c0 -0.25 0.25 -0.50 0.50 -0.50 0.30 0 0.50 0.25 0.50 0.50 0 0.30 -0.20 0.50 -0.50 0.50 -0.25 0 -0.50 -0.20 -0.50 -0.50z"/>
  <path d="M14.55 20.05 c-0.45 -0.75 -0.35 -1 0.45 -1.20 0.90 -0.25 1.30 -1.50 1.05 -3.05 -0.15 -0.70 1.05 -1.30 2.45 -1.25 0.70 0.05 0.90 0.15 0.50 0.25 -0.40 0.15 -1.20 1.55 -1.70 3.20 -1 3.05 -1.90 3.75 -2.75 2.05z"/>
  <path d="M22 17.75 c0 -0.40 0.25 -0.75 0.50 -0.75 0.30 0 0.50 -0.20 0.50 -0.50 0 -0.25 -0.45 -0.50 -0.95 -0.50 -0.55 0 -1.15 -0.20 -1.30 -0.50 -0.40 -0.60 1.75 -0.65 2.70 -0.05 0.45 0.30 0.55 0.90 0.35 1.75 -0.35 1.40 -1.80 1.80 -1.80 0.55z"/>
  <path d="M23.70 14.50 c-0.25 -0.25 -2.05 -0.50 -3.95 -0.60 -4.30 -0.15 -6.85 -0.90 -6.25 -1.85 0.30 -0.50 1.05 -0.60 2.80 -0.35 1.30 0.15 2.50 0.50 2.65 0.75 0.20 0.25 1.05 0.60 1.90 0.80 2.35 0.50 1.70 -0.80 -1.15 -2.50 -1.65 -0.95 -2.20 -1.60 -2.20 -2.50 0 -1.05 0.25 -1.25 1.45 -1.25 2.40 0 5.70 1.45 7.70 3.35 1.80 1.80 2.55 3.90 1.15 3.35 -0.35 -0.15 -0.80 0.10 -0.95 0.50 -0.35 0.90 -2.35 1.10 -3.15 0.30z m1.80 -3.95 c0 -0.50 -4 -2.20 -4.35 -1.85 -0.15 0.10 0.75 0.70 1.95 1.25 2.55 1.20 2.40 1.15 2.40 0.60z"/>
 </g>
 <g fill="#843c21">
  <path d="M14.25 39.50 c0.15 -0.25 0.40 -0.50 0.55 -0.50 0.10 0 0.20 0.25 0.20 0.50 0 0.30 -0.25 0.50 -0.55 0.50 -0.25 0 -0.35 -0.20 -0.20 -0.50z"/>
  <path d="M16.50 39.25 c0 -0.15 0.10 -0.25 0.25 -0.25 0.15 0 0.25 0.10 0.25 0.25 0 0.15 -0.10 0.25 -0.25 0.25 -0.15 0 -0.25 -0.10 -0.25 -0.25z"/>
  <path d="M16.15 37.65 c0.20 -0.15 0.50 -0.15 0.70 0 0.15 0.20 0 0.35 -0.35 0.35 -0.35 0 -0.50 -0.15 -0.35 -0.35z"/>
  <path d="M12.80 27.75 c-0.35 -0.95 0.15 -0.95 1.40 0 0.95 0.75 0.95 0.75 -0.05 0.75 -0.55 0 -1.15 -0.35 -1.35 -0.75z"/>
  <path d="M14 26.35 c-1.25 -1 -1.05 -2.35 0.30 -2.35 0.65 0 1.20 0.20 1.20 0.45 0 0.20 1.15 0.30 2.50 0.15 2.80 -0.25 3.20 0.30 1.05 1.55 -1.70 1 -3.95 1.10 -5.05 0.20z"/>
 </g>
 <g fill="#805128">
  <path d="M18.50 37 c0 -0.35 0.15 -0.50 0.35 -0.35 0.15 0.20 0.15 0.50 0 0.70 -0.20 0.15 -0.35 0 -0.35 -0.35z"/>
  <path d="M16.80 35.25 c-0.35 -1.40 0 -2.45 0.70 -2 0.40 0.25 0.20 2.70 -0.20 3.15 -0.10 0.05 -0.35 -0.45 -0.50 -1.15z"/>
  <path d="M13.40 29.45 c-0.50 -0.25 -0.90 -0.95 -0.90 -1.45 0 -1.20 -0.15 -1.20 2.25 0 1.10 0.55 2.25 1 2.65 1 0.35 0 0.50 0.25 0.35 0.50 -0.40 0.65 -3.25 0.60 -4.35 -0.05z"/>
  <path d="M13.55 25.20 c-0.30 -0.75 -0.50 -1.40 -0.40 -1.50 0.10 -0.10 1 0.05 2.05 0.35 1.05 0.30 2.80 0.35 3.90 0.20 2.45 -0.45 2.45 0.60 0 1.60 -1.40 0.55 -1.60 0.55 -1.60 -0.10 0 -0.40 -0.45 -0.75 -1 -0.75 -0.55 0 -1 0.35 -1 0.75 0 1.25 -1.30 0.85 -1.95 -0.55z"/>
  <path d="M21.10 22.40 c-0.30 -0.90 -0.65 -2.10 -0.90 -2.60 -0.30 -0.85 -0.20 -0.90 1.10 -0.60 2.05 0.50 2.30 0.95 1.85 2.80 -0.60 2.25 -1.50 2.40 -2.05 0.40z"/>
  <path d="M16 23.05 c0 -0.30 0.25 -0.65 0.50 -0.80 0.30 -0.15 0.50 0.05 0.50 0.45 0 0.45 -0.20 0.80 -0.50 0.80 -0.25 0 -0.50 -0.20 -0.50 -0.45z"/>
  <path d="M11.65 21.85 c-0.90 -1.90 -0.80 -3 0.25 -4.15 0.50 -0.55 1.10 -1.60 1.30 -2.40 0.40 -1.60 1.65 -1.50 1.40 0.20 -0.10 0.70 0 1 0.35 0.80 1.15 -0.75 0.45 0.65 -0.80 1.60 -0.95 0.70 -1.40 1.55 -1.60 3.15 l-0.30 2.15 -0.60 -1.35z"/>
  <path d="M14 22.50 c0 -0.35 0.15 -0.50 0.35 -0.35 0.15 0.20 0.15 0.50 0 0.70 -0.20 0.15 -0.35 0 -0.35 -0.35z"/>
  <path d="M14.70 20.40 c-0.20 -0.30 0 -0.80 0.40 -1.10 0.40 -0.30 0.95 -1.45 1.20 -2.50 0.25 -1.10 0.75 -2.05 1.05 -2.15 0.40 -0.15 0.45 0.30 0.10 1.70 -0.25 1.05 -0.60 2.50 -0.75 3.30 -0.35 1.40 -1.35 1.80 -2 0.75z"/>
  <path d="M18 20.25 c0 -0.45 0.25 -0.75 0.55 -0.65 0.30 0.10 0.55 0.40 0.55 0.65 0 0.25 -0.25 0.55 -0.55 0.65 -0.30 0.10 -0.55 -0.20 -0.55 -0.65z"/>
  <path d="M30.50 18.75 c0 -0.15 0.10 -0.25 0.25 -0.25 0.15 0 0.25 0.10 0.25 0.25 0 0.15 -0.10 0.25 -0.25 0.25 -0.15 0 -0.25 -0.10 -0.25 -0.25z"/>
  <path d="M19.75 18 c-0.15 -0.25 0.05 -0.50 0.50 -0.50 0.45 0 0.65 0.25 0.50 0.50 -0.15 0.30 -0.40 0.50 -0.50 0.50 -0.10 0 -0.35 -0.20 -0.50 -0.50z"/>
  <path d="M22 17.75 c0 -0.40 0.25 -0.75 0.50 -0.75 0.30 0 0.50 -0.20 0.50 -0.50 0 -0.25 -0.45 -0.50 -1 -0.50 -0.55 0 -1 -0.20 -1 -0.50 0 -0.55 0.55 -0.65 1.70 -0.20 1.05 0.40 1.10 3.20 0.05 3.20 -0.40 0 -0.75 -0.35 -0.75 -0.75z"/>
  <path d="M19.90 16.65 c0.35 -0.15 0.80 -0.10 0.95 0.05 0.20 0.15 -0.10 0.30 -0.65 0.25 -0.55 0 -0.70 -0.15 -0.30 -0.30z"/>
  <path d="M23.75 14.55 c-0.30 -0.30 -2.10 -0.55 -4.10 -0.65 -2 -0.10 -3.75 -0.35 -3.95 -0.55 -0.20 -0.20 -0.90 -0.35 -1.55 -0.35 -1.20 0 -1.35 -0.45 -0.85 -2.35 0.45 -1.55 1.70 -1.45 1.70 0.10 0 1.05 0.25 1.25 1.50 1.25 0.85 0 1.50 0.20 1.50 0.50 0 0.55 3.40 1.25 3.85 0.80 0.60 -0.55 -2 -2.55 -4.45 -3.50 -1.35 -0.50 -2.40 -1.10 -2.40 -1.30 0 -1.30 4.05 -2 5.50 -0.95 0.60 0.45 0.55 0.50 -0.35 0.30 -1.60 -0.35 -1.45 -0.10 0.75 1.20 1 0.60 2.40 1.80 3.10 2.60 1.20 1.35 1.35 1.40 2 0.60 0.55 -0.70 0.60 -1 0.05 -1.90 -0.65 -1 -0.55 -1 0.65 0.10 1.55 1.45 1.60 1.70 0.45 3.05 -0.65 0.70 -0.95 0.80 -1.25 0.35 -0.25 -0.40 -0.40 -0.35 -0.40 0.30 0 0.90 -1 1.15 -1.75 0.40z"/>
 </g>
 <g fill="#6a5647">
  <path d="M18.50 37.25 c0 -0.15 0.10 -0.25 0.25 -0.25 0.15 0 0.25 0.10 0.25 0.25 0 0.15 -0.10 0.25 -0.25 0.25 -0.15 0 -0.25 -0.10 -0.25 -0.25z"/>
  <path d="M16.80 35.75 c-0.50 -1.35 -0.35 -2.25 0.40 -2.25 0.50 0 0.65 0.40 0.50 1.35 -0.30 1.75 -0.50 1.90 -0.90 0.90z"/>
  <path d="M13.40 29.30 c-0.50 -0.35 -0.90 -0.90 -0.90 -1.25 0 -0.80 1.50 -0.70 1.80 0.20 0.50 1.20 0 1.75 -0.90 1.05z"/>
  <path d="M14 25.10 c0 -0.75 0.45 -0.90 3.50 -0.90 1.95 0 3.50 0.20 3.50 0.40 0 0.70 -2.45 1.40 -4.80 1.40 -1.80 0 -2.20 -0.15 -2.20 -0.90z"/>
  <path d="M20.25 19.50 c-0.40 -0.65 0.25 -0.65 1.25 0 0.65 0.40 0.65 0.50 -0.10 0.50 -0.45 0 -1 -0.20 -1.15 -0.50z"/>
  <path d="M12.70 17.50 c0.15 -0.70 0.30 -1.55 0.30 -1.85 0 -0.35 0.35 -0.65 0.75 -0.65 0.40 0 0.75 0.35 0.75 0.80 0 0.45 0.25 0.60 0.55 0.40 0.35 -0.20 0.50 -0.05 0.35 0.35 -0.15 0.40 -0.60 0.70 -1.10 0.70 -0.45 0 -1.10 0.35 -1.35 0.75 -0.40 0.60 -0.45 0.45 -0.25 -0.50z"/>
  <path d="M16 18.25 c0 -0.15 0.10 -0.25 0.25 -0.25 0.15 0 0.25 0.10 0.25 0.25 0 0.15 -0.10 0.25 -0.25 0.25 -0.15 0 -0.25 -0.10 -0.25 -0.25z"/>
  <path d="M19.80 18.15 c-0.60 -0.60 -0.30 -1.65 0.45 -1.65 0.40 0 0.75 0.30 0.75 0.70 0 0.85 -0.70 1.40 -1.20 0.95z"/>
  <path d="M22 17.75 c0 -0.40 0.35 -0.75 0.75 -0.75 0.40 0 0.75 0.35 0.75 0.75 0 0.40 -0.35 0.75 -0.75 0.75 -0.40 0 -0.75 -0.35 -0.75 -0.75z"/>
  <path d="M13.50 10.10 c0 -0.45 0.45 -1.15 1 -1.50 0.90 -0.55 1 -0.50 1 0.90 0 1.15 -0.20 1.50 -1 1.50 -0.60 0 -1 -0.35 -1 -0.90z"/>
  <path d="M13.05 6.20 c0 -0.55 0.15 -0.70 0.30 -0.30 0.15 0.35 0.10 0.80 -0.05 0.95 -0.15 0.20 -0.30 -0.10 -0.25 -0.65z"/>
 </g>
 <g fill="#974d30">
  <path d="M12.90 27.65 c0.35 -0.15 0.80 -0.10 0.95 0.05 0.20 0.15 -0.10 0.30 -0.65 0.25 -0.55 0 -0.70 -0.15 -0.30 -0.30z"/>
  <path d="M13.65 25.25 l-0.60 -1.30 3.10 0.35 c1.70 0.20 3.20 0.45 3.35 0.55 0.55 0.50 -1.80 1.65 -3.45 1.65 -1.45 0 -1.90 -0.25 -2.40 -1.25z"/>
 </g>
 <g fill="#545c6b">
  <path d="M1.95 38.90 c-0.05 -0.85 -0.10 -0.95 -0.30 -0.25 -0.10 0.45 -0.55 0.85 -0.95 0.85 -2.15 0 0.90 -8.25 3.30 -8.85 0.70 -0.15 1.55 -0.50 1.90 -0.80 0.85 -0.65 0.75 -0.30 -0.65 2.75 -0.70 1.45 -1.40 3.70 -1.55 5.05 -0.35 2.45 -1.65 3.40 -1.75 1.25z"/>
  <path d="M33 39 c0 -0.55 -0.20 -1 -0.50 -1 -0.85 0 -0.55 -1.80 0.50 -3.15 0.55 -0.70 1 -1.50 1 -1.80 0 -1.45 1.25 -3.05 2.35 -3.05 2.65 0 3.15 0.75 3.15 4.75 0 5.15 -0.05 5.25 -3.55 5.25 -2.60 0 -2.95 -0.10 -2.95 -1z"/>
  <path d="M15.75 37.15 c-0.15 -0.50 -0.05 -0.95 0.20 -1.05 0.30 -0.10 0.55 -0.75 0.55 -1.40 0 -1.25 0.75 -1.65 1.10 -0.60 0.30 0.80 -0.65 3.90 -1.15 3.90 -0.20 0 -0.50 -0.40 -0.70 -0.85z"/>
  <path d="M13.50 36 c0 -0.35 0.15 -0.50 0.35 -0.35 0.15 0.20 0.15 0.50 0 0.70 -0.20 0.15 -0.35 0 -0.35 -0.35z"/>
  <path d="M33.05 18.25 c0.05 -0.95 0.90 -2.55 0.90 -1.75 0 0.40 -0.20 1.10 -0.45 1.50 -0.25 0.40 -0.45 0.55 -0.45 0.25z"/>
  <path d="M12.90 16.25 c0.10 -0.70 0.55 -1.50 1 -1.85 0.65 -0.55 0.70 -0.45 0.50 1 -0.20 1.50 0.25 2.20 0.75 1.10 0.15 -0.30 0.20 -0.25 0.15 0.10 -0.05 0.35 -0.70 0.70 -1.40 0.75 -1.05 0.05 -1.20 -0.10 -1 -1.10z"/>
 </g>
 <g fill="#615d5f">
  <path d="M31.70 39.20 c0.15 -0.45 0.30 -1 0.30 -1.25 0 -0.25 0.35 -0.45 0.75 -0.45 0.45 0 0.75 0.45 0.75 1.25 0 0.95 -0.25 1.25 -1.05 1.25 -0.75 0 -0.95 -0.20 -0.75 -0.80z"/>
  <path d="M20.50 19.50 c0 -0.25 0.35 -0.35 0.75 -0.20 0.40 0.20 0.75 0.40 0.75 0.50 0 0.10 -0.35 0.20 -0.75 0.20 -0.40 0 -0.75 -0.20 -0.75 -0.50z"/>
  <path d="M22 17.80 c0 -0.45 0.35 -0.80 0.80 -0.80 0.85 0 0.70 1.10 -0.20 1.40 -0.35 0.10 -0.60 -0.15 -0.60 -0.60z"/>
  <path d="M12.80 16.65 c0.15 -0.75 0.65 -1.75 1.05 -2.15 0.65 -0.65 0.70 -0.55 0.50 0.90 -0.25 1.50 0.25 2.20 0.80 1.10 0.15 -0.30 0.20 -0.25 0.15 0.10 -0.10 0.35 -0.45 0.65 -0.85 0.65 -0.40 0 -1 0.20 -1.35 0.45 -0.50 0.30 -0.55 0.05 -0.30 -1.05z"/>
  <path d="M16.55 17.20 c0 -0.55 0.15 -0.70 0.30 -0.30 0.15 0.35 0.10 0.80 -0.05 0.95 -0.15 0.20 -0.30 -0.10 -0.25 -0.65z"/>
  <path d="M20.55 17.20 c0 -0.55 0.15 -0.70 0.30 -0.30 0.15 0.35 0.10 0.80 -0.05 0.95 -0.15 0.20 -0.30 -0.10 -0.25 -0.65z"/>
  <path d="M33.50 17.25 c0 -0.15 0.10 -0.25 0.25 -0.25 0.15 0 0.25 0.10 0.25 0.25 0 0.15 -0.10 0.25 -0.25 0.25 -0.15 0 -0.25 -0.10 -0.25 -0.25z"/>
  <path d="M21.40 15.65 c0.30 -0.10 0.90 -0.10 1.25 0 0.30 0.15 0.05 0.25 -0.65 0.25 -0.70 0 -0.95 -0.10 -0.60 -0.25z"/>
 </g>
 <g fill="#925e32">
  <path d="M15.80 37.20 c-0.40 -1.10 -0.40 -1.30 0.20 -0.95 0.30 0.15 0.50 -0.15 0.50 -0.70 0 -0.60 0.25 -1.05 0.50 -1.05 0.55 0 0.60 0.75 0.20 2.40 -0.35 1.30 -0.95 1.45 -1.40 0.30z"/>
  <path d="M13.25 29 c-0.50 -0.55 -0.75 -1.15 -0.60 -1.30 0.40 -0.45 4.80 1.45 4.55 1.90 -0.50 0.80 -3.05 0.40 -3.95 -0.60z"/>
  <path d="M13.75 25 c-0.50 -0.55 -0.80 -1.10 -0.65 -1.25 0.45 -0.50 3.40 0.85 3.40 1.55 0 1.05 -1.70 0.85 -2.75 -0.30z"/>
  <path d="M17 25.30 c0 -0.40 0.70 -0.80 1.65 -0.95 2 -0.30 2.40 0 1.15 0.95 -1.25 0.90 -2.80 0.90 -2.80 0z"/>
  <path d="M21.80 23.60 c-0.45 -0.75 -1.70 -4.60 -1.45 -4.60 0.10 0 0.85 0.30 1.60 0.70 1.15 0.60 1.35 1 1.15 2.30 -0.20 1.55 -0.85 2.35 -1.30 1.60z"/>
  <path d="M16.50 22.75 c0 -0.15 0.10 -0.25 0.25 -0.25 0.15 0 0.25 0.10 0.25 0.25 0 0.15 -0.10 0.25 -0.25 0.25 -0.15 0 -0.25 -0.10 -0.25 -0.25z"/>
  <path d="M11.25 20.45 c-0.25 -1.20 -0.10 -1.80 0.70 -2.65 0.60 -0.60 1.05 -1.45 1.05 -1.90 0 -0.45 0.35 -1.05 0.75 -1.40 0.65 -0.55 0.70 -0.40 0.40 1 -0.25 1.45 -0.20 1.60 0.55 1.35 0.55 -0.20 0.75 -0.15 0.55 0.20 -0.20 0.30 -0.65 0.40 -1.05 0.25 -0.90 -0.35 -1.70 1.20 -1.70 3.15 0 2 -0.80 2 -1.25 0z"/>
  <path d="M15 20.65 c0 -0.60 2.10 -4.70 2.30 -4.50 0.35 0.35 -1.40 4.85 -1.85 4.85 -0.25 0 -0.45 -0.15 -0.45 -0.35z"/>
  <path d="M18.15 20.15 c0.20 -0.15 0.50 -0.15 0.70 0 0.15 0.20 0 0.35 -0.35 0.35 -0.35 0 -0.50 -0.15 -0.35 -0.35z"/>
  <path d="M22.25 18.05 c-0.30 -0.55 0.65 -1.30 1.10 -0.85 0.20 0.15 0.05 0.30 -0.30 0.30 -0.35 0 -0.45 0.25 -0.30 0.50 0.15 0.30 0.20 0.50 0.05 0.50 -0.15 0 -0.35 -0.20 -0.55 -0.45z"/>
  <path d="M21.25 15.50 c0.15 -0.25 0.60 -0.35 1 -0.15 1.05 0.35 0.95 0.65 -0.30 0.65 -0.55 0 -0.90 -0.20 -0.70 -0.50z"/>
  <path d="M24.20 14.55 c-0.25 -0.25 -2.15 -0.55 -4.20 -0.70 -2.05 -0.15 -4.40 -0.50 -5.25 -0.75 -1.30 -0.40 -1.50 -0.65 -1.35 -1.90 0.10 -0.80 0.70 -2 1.35 -2.65 1.15 -1.15 1.30 -1.20 3.30 -0.55 2.70 0.90 5.45 2.95 6.60 4.90 0.80 1.45 0.55 2.55 -0.45 1.65z m-2.55 -2.25 c-0.15 -0.80 -0.65 -1.30 -1.55 -1.45 -0.75 -0.15 -2.10 -0.45 -2.95 -0.75 -1.55 -0.50 -1.65 -0.45 -1.65 0.60 0 0.95 0.20 1.10 1.25 0.90 1.75 -0.30 3.75 0.30 3.75 1.15 0 0.40 0.30 0.75 0.70 0.75 0.45 0 0.60 -0.40 0.45 -1.20z"/>
 </g>
 <g fill="#7a6961">
  <path d="M16.20 37 c0.15 -0.70 0.30 -1.40 0.30 -1.60 0 -0.25 0.25 -0.40 0.50 -0.40 0.75 0 0.60 1.20 -0.30 2.30 -0.75 0.90 -0.75 0.90 -0.50 -0.30z"/>
  <path d="M13.95 24.95 c-0.55 -0.55 -0.95 -1.10 -0.85 -1.25 0.45 -0.40 3.90 1 3.90 1.65 0 1 -1.90 0.75 -3.05 -0.40z"/>
  <path d="M18 25.30 c0 -0.60 1.40 -1.25 2.65 -1.30 0.95 0 0.20 0.95 -1.15 1.45 -1.20 0.40 -1.50 0.35 -1.50 -0.15z"/>
  <path d="M19.50 17.25 c0 -0.40 0.35 -0.75 0.75 -0.75 0.40 0 0.75 0.35 0.75 0.75 0 0.40 -0.35 0.75 -0.75 0.75 -0.40 0 -0.75 -0.35 -0.75 -0.75z"/>
  <path d="M22 17.75 c0 -0.15 0.10 -0.25 0.25 -0.25 0.15 0 0.25 0.10 0.25 0.25 0 0.15 -0.10 0.25 -0.25 0.25 -0.15 0 -0.25 -0.10 -0.25 -0.25z"/>
  <path d="M13.60 16 c0 -0.70 0.10 -0.95 0.25 -0.60 0.10 0.30 0.10 0.90 0 1.25 -0.15 0.30 -0.25 0.05 -0.25 -0.65z"/>
  <path d="M15 16.75 c0 -0.15 0.10 -0.25 0.25 -0.25 0.15 0 0.25 0.10 0.25 0.25 0 0.15 -0.10 0.25 -0.25 0.25 -0.15 0 -0.25 -0.10 -0.25 -0.25z"/>
  <path d="M13 6 c0 -0.35 0.15 -0.50 0.35 -0.35 0.15 0.20 0.15 0.50 0 0.70 -0.20 0.15 -0.35 0 -0.35 -0.35z"/>
 </g>
 <g fill="#9e703c">
  <path d="M16.20 37.35 c0.15 -0.50 0.30 -1.15 0.30 -1.40 0 -0.25 0.25 -0.45 0.50 -0.45 0.70 0 0.60 0.65 -0.30 1.80 -0.70 0.85 -0.75 0.85 -0.50 0.05z"/>
  <path d="M13.70 29.30 c-1.40 -1.05 -0.55 -1.50 1.50 -0.75 1.20 0.45 1.60 0.80 1.15 1.05 -0.90 0.55 -1.55 0.50 -2.65 -0.30z"/>
  <path d="M13.50 24.50 c-0.30 -0.55 -0.35 -1 -0.10 -1 0.50 0 1.60 1.05 1.60 1.60 0 0.80 -0.95 0.40 -1.50 -0.60z"/>
  <path d="M20 24.50 c0 -0.25 0.25 -0.50 0.50 -0.50 0.30 0 0.50 0.25 0.50 0.50 0 0.30 -0.20 0.50 -0.50 0.50 -0.25 0 -0.50 -0.20 -0.50 -0.50z"/>
  <path d="M21.60 23 c-1.35 -3.65 -1.30 -3.90 0.45 -3 1 0.55 1.25 2.25 0.45 3.50 -0.35 0.60 -0.55 0.50 -0.90 -0.50z"/>
  <path d="M11.35 20.65 c-0.15 -0.90 0.05 -1.85 0.55 -2.65 0.45 -0.70 0.95 -1.70 1.10 -2.20 0.15 -0.55 0.55 -1.05 0.85 -1.15 0.75 -0.25 0.20 1.85 -0.70 2.75 -0.35 0.35 -0.65 1.25 -0.65 2 0 2.10 -0.80 3 -1.15 1.25z"/>
  <path d="M15.30 20.55 c-0.25 -0.40 -0.10 -1 0.40 -1.45 0.85 -0.85 0.95 -0.45 0.35 1.10 -0.30 0.75 -0.50 0.80 -0.75 0.35z"/>
  <path d="M18.50 20.25 c0 -0.15 0.10 -0.25 0.25 -0.25 0.15 0 0.25 0.10 0.25 0.25 0 0.15 -0.10 0.25 -0.25 0.25 -0.15 0 -0.25 -0.10 -0.25 -0.25z"/>
  <path d="M22.50 18.25 c0 -0.15 0.10 -0.25 0.25 -0.25 0.15 0 0.25 0.10 0.25 0.25 0 0.15 -0.10 0.25 -0.25 0.25 -0.15 0 -0.25 -0.10 -0.25 -0.25z"/>
  <path d="M20 16.95 c0 -0.25 0.25 -0.35 0.50 -0.20 0.30 0.15 0.50 0.40 0.50 0.55 0 0.10 -0.20 0.20 -0.50 0.20 -0.25 0 -0.50 -0.25 -0.50 -0.55z"/>
  <path d="M22.65 17.15 c0.20 -0.15 0.50 -0.15 0.70 0 0.15 0.20 0 0.35 -0.35 0.35 -0.35 0 -0.50 -0.15 -0.35 -0.35z"/>
  <path d="M21.65 15.65 c0.20 -0.15 0.50 -0.15 0.70 0 0.15 0.20 0 0.35 -0.35 0.35 -0.35 0 -0.50 -0.15 -0.35 -0.35z"/>
  <path d="M21.25 13.95 c-1.65 -0.25 -3.45 -0.45 -4 -0.45 -1.15 -0.05 -4.25 -0.95 -4.25 -1.30 0 -0.15 0.30 -1 0.70 -1.95 0.85 -2 2.40 -2.95 3.65 -2.30 0.50 0.25 1.85 0.85 3 1.30 2.30 0.95 6.05 5.55 4.30 5.20 -0.25 -0.05 -1.75 -0.30 -3.40 -0.50z"/>
 </g>
 <g fill="#697480">
  <path d="M0 38.35 c0 -2.85 2.15 -6.55 4.45 -7.70 2.25 -1.15 2.35 -1.10 1.35 0.50 -0.70 1.10 -1.95 4.75 -2.50 7.50 -0.20 0.75 -0.55 1.35 -0.90 1.35 -0.50 0 -0.40 -2.10 0.35 -5 0.25 -0.95 0.20 -1.10 -0.20 -0.50 -0.30 0.40 -0.70 1.80 -0.85 3.15 -0.40 2.80 -1.70 3.35 -1.70 0.70z"/>
  <path d="M33 38.55 c0 -0.80 -0.25 -1.55 -0.50 -1.65 -0.65 -0.20 2.35 -6.40 3.30 -6.75 0.35 -0.15 1.45 0 2.45 0.35 l1.75 0.60 0 4.45 c0 4.40 0 4.45 -1.25 4.45 l-1.20 0 0.30 -4.10 c0.25 -3 0.15 -3.95 -0.25 -3.70 -0.40 0.20 -0.60 1.80 -0.60 4.10 0 2.95 -0.15 3.70 -0.75 3.70 -0.55 0 -0.75 -0.65 -0.80 -2.35 -0.05 -1.35 -0.15 -1.85 -0.30 -1.15 -0.45 2.80 -0.70 3.50 -1.40 3.50 -0.50 0 -0.75 -0.50 -0.75 -1.45z m2.85 -5.15 c-0.15 -0.40 -0.30 -0.25 -0.30 0.30 -0.05 0.55 0.10 0.85 0.25 0.65 0.15 -0.15 0.20 -0.60 0.05 -0.95z"/>
  <path d="M16.50 36.15 c0 -0.90 0.25 -1.65 0.50 -1.65 0.65 0 0.65 1.50 0 2.50 -0.35 0.55 -0.50 0.35 -0.50 -0.85z"/>
 </g>
 <g fill="#917659">
  <path d="M16.50 34.50 c0 -0.55 0.25 -1 0.50 -1 0.30 0 0.50 0.45 0.50 1 0 0.55 -0.20 1 -0.50 1 -0.25 0 -0.50 -0.45 -0.50 -1z"/>
  <path d="M14.65 25.50 c-0.65 -0.25 -1.15 -0.85 -1.15 -1.35 0 -0.65 0.15 -0.70 0.60 -0.25 0.35 0.35 1.60 0.60 2.80 0.60 1.50 0 2.10 0.20 2 0.65 -0.30 0.75 -2.75 0.95 -4.25 0.35z"/>
  <path d="M13.25 16.35 c-0.20 -0.50 -0.25 -1.05 -0.05 -1.20 0.50 -0.50 0.90 0.20 0.65 1.20 -0.20 0.85 -0.20 0.85 -0.60 0z"/>
 </g>
 <g fill="#997b64">
  <path d="M16.55 35.55 c-0.05 -1.70 0.10 -2.10 0.55 -1.65 0.40 0.40 0.40 1 0.05 2.20 l-0.55 1.65 -0.05 -2.20z"/>
  <path d="M14.40 25.45 c-1.25 -0.70 -1.15 -1.60 0.15 -1.20 0.60 0.20 1.80 0.35 2.70 0.35 0.90 0 2.10 -0.15 2.70 -0.35 1.70 -0.50 1.20 0.60 -0.50 1.20 -1.95 0.70 -3.90 0.70 -5.05 0z"/>
  <path d="M13 15.75 c0 -0.40 0.25 -0.75 0.50 -0.75 0.30 0 0.50 0.35 0.50 0.75 0 0.40 -0.20 0.75 -0.50 0.75 -0.25 0 -0.50 -0.35 -0.50 -0.75z"/>
 </g>
 <g fill="#a48e79">
  <path d="M15.65 25.60 c-0.60 -0.10 -1.35 -0.50 -1.75 -0.95 -0.55 -0.70 -0.50 -0.75 0.60 -0.40 0.70 0.25 2.35 0.40 3.65 0.35 1.35 -0.05 2.30 0.10 2.15 0.35 -0.35 0.50 -3 0.90 -4.65 0.65z"/>
  <path d="M13 16.05 c0 -0.30 0.25 -0.65 0.50 -0.80 0.30 -0.15 0.50 0.05 0.50 0.45 0 0.45 -0.20 0.80 -0.50 0.80 -0.25 0 -0.50 -0.20 -0.50 -0.45z"/>
 </g>
 <g fill="#858f9a">
  <path d="M0 38.25 c0 -0.95 0.20 -1.75 0.45 -1.75 0.25 0 0.55 -0.65 0.70 -1.50 0.45 -2.05 1.80 -4 2.80 -4 0.45 0 1.10 -0.25 1.45 -0.60 0.85 -0.85 0.75 -0.15 -0.35 2 -0.50 1 -1.20 3.15 -1.55 4.75 -0.30 1.55 -0.80 2.85 -1.05 2.85 -0.70 0 -0.55 -1.55 0.50 -4.80 0.55 -1.60 0.90 -3 0.80 -3.15 -0.30 -0.30 -1.60 2.85 -2.35 5.65 -0.70 2.75 -1.40 3 -1.40 0.55z"/>
  <path d="M32 38.45 c0 -1.40 2.40 -7 3.50 -8.15 0.20 -0.20 1.10 -0.25 1.95 -0.05 1.50 0.30 1.55 0.45 1.50 2.65 -0.05 1.30 -0.25 3.05 -0.45 3.85 -0.30 1.15 -0.40 0.75 -0.45 -1.85 -0.10 -5.25 -1.05 -4.75 -1.05 0.55 0 3.85 -0.15 4.55 -0.80 4.55 -0.70 0 -0.75 -0.50 -0.45 -3.60 0.15 -2 0.45 -4.10 0.55 -4.65 0.20 -0.85 0.20 -0.90 -0.30 -0.15 -0.25 0.45 -0.75 2.50 -1.10 4.60 -0.55 3.45 -0.70 3.80 -1.75 3.80 -0.95 0 -1.15 -0.25 -1.15 -1.55z"/>
  <path d="M16.50 35.65 c0 -0.90 0.25 -1.65 0.50 -1.65 0.65 0 0.65 1.50 0 2.50 -0.35 0.55 -0.50 0.35 -0.50 -0.85z"/>
  <path d="M22.30 18.10 c-0.15 -0.30 -0.05 -0.70 0.25 -0.85 0.75 -0.50 1.25 0.15 0.60 0.80 -0.35 0.35 -0.65 0.35 -0.85 0.05z"/>
 </g>
 <g fill="#ad9d92">
  <path d="M16.50 36.75 c0 -0.15 0.10 -0.25 0.25 -0.25 0.15 0 0.25 0.10 0.25 0.25 0 0.15 -0.10 0.25 -0.25 0.25 -0.15 0 -0.25 -0.10 -0.25 -0.25z"/>
  <path d="M16.50 35.50 c0 -0.25 0.25 -0.50 0.55 -0.50 0.25 0 0.35 0.25 0.20 0.50 -0.15 0.30 -0.40 0.50 -0.55 0.50 -0.10 0 -0.20 -0.20 -0.20 -0.50z"/>
  <path d="M14.05 24.80 c-0.50 -0.60 -0.30 -0.65 1.30 -0.25 1.05 0.25 2.70 0.30 3.65 0.15 1.30 -0.20 1.55 -0.15 1 0.25 -1.10 0.80 -5.25 0.70 -5.95 -0.15z"/>
  <path d="M13.25 16.05 c-0.15 -0.25 -0.05 -0.60 0.25 -0.80 0.25 -0.15 0.50 0.05 0.50 0.45 0 0.90 -0.30 1.05 -0.75 0.35z"/>
 </g>
 <g fill="#9ba5ae">
  <path d="M2.60 37.40 c0.45 -2.30 2.10 -6.40 2.60 -6.40 0.10 0 -0.20 1.05 -0.70 2.40 -0.50 1.30 -1.05 3.30 -1.25 4.50 -0.20 1.15 -0.50 2.10 -0.75 2.10 -0.20 0 -0.15 -1.15 0.10 -2.60z"/>
  <path d="M36.05 36.40 c-0.05 -2.10 0.20 -4 0.45 -4.15 0.60 -0.40 0.60 5.55 0 7 -0.30 0.70 -0.45 -0.25 -0.45 -2.85z"/>
  <path d="M0 38 c0 -0.25 0.25 -0.50 0.50 -0.50 0.30 0 0.50 0.25 0.50 0.50 0 0.30 -0.20 0.50 -0.50 0.50 -0.25 0 -0.50 -0.20 -0.50 -0.50z"/>
  <path d="M32.50 36.90 c0 -1.10 2.70 -6.25 2.85 -5.40 0.30 1.55 -1.15 5.75 -2 5.90 -0.45 0.10 -0.85 -0.15 -0.85 -0.50z"/>
  <path d="M1 36.25 c0 -1.20 1.95 -5.25 2.50 -5.25 0.25 0 -0.15 1.30 -0.85 2.90 -1.55 3.40 -1.65 3.55 -1.65 2.35z"/>
  <path d="M16.50 35.65 c0 -0.20 0.25 -0.75 0.50 -1.15 0.40 -0.65 0.50 -0.65 0.50 0.10 0 0.45 -0.20 1 -0.50 1.15 -0.25 0.15 -0.50 0.15 -0.50 -0.10z"/>
  <path d="M38 35.25 c0 -0.15 0.10 -0.25 0.25 -0.25 0.15 0 0.25 0.10 0.25 0.25 0 0.15 -0.10 0.25 -0.25 0.25 -0.15 0 -0.25 -0.10 -0.25 -0.25z"/>
  <path d="M19.60 17.55 c0.20 -0.65 0.90 -0.80 0.95 -0.20 0 0.20 -0.25 0.45 -0.55 0.60 -0.35 0.10 -0.55 -0.10 -0.40 -0.40z"/>
  <path d="M22.25 17.50 c0.15 -0.25 0.50 -0.50 0.80 -0.50 0.25 0 0.45 0.25 0.45 0.50 0 0.30 -0.35 0.50 -0.80 0.50 -0.40 0 -0.60 -0.20 -0.45 -0.50z"/>
 </g>
 <g fill="#bfb7b1">
  <path d="M16.85 34.95 c0.20 -0.65 0.40 -0.90 0.55 -0.50 0.10 0.35 -0.05 0.90 -0.30 1.15 -0.40 0.40 -0.45 0.20 -0.25 -0.65z"/>
  <path d="M14.50 25 c-0.60 -0.40 -0.55 -0.50 0.25 -0.45 0.55 0.05 1.55 0.25 2.25 0.45 1.20 0.40 1.20 0.40 -0.25 0.45 -0.80 0 -1.85 -0.20 -2.25 -0.45z"/>
  <path d="M19.80 17.55 c-0.20 -0.25 -0.10 -0.60 0.15 -0.75 0.25 -0.20 0.60 -0.10 0.75 0.15 0.20 0.25 0.10 0.60 -0.15 0.75 -0.25 0.20 -0.60 0.10 -0.75 -0.15z"/>
 </g>
 <g fill="#bdbdc3">
  <path d="M17 34.75 c0 -0.15 0.10 -0.25 0.25 -0.25 0.15 0 0.25 0.10 0.25 0.25 0 0.15 -0.10 0.25 -0.25 0.25 -0.15 0 -0.25 -0.10 -0.25 -0.25z"/>
  <path d="M15.50 25.25 c0 -0.15 0.10 -0.25 0.25 -0.25 0.15 0 0.25 0.10 0.25 0.25 0 0.15 -0.10 0.25 -0.25 0.25 -0.15 0 -0.25 -0.10 -0.25 -0.25z"/>
  <path d="M19.75 17.55 c-0.15 -0.25 -0.05 -0.60 0.25 -0.80 0.25 -0.15 0.50 0.05 0.50 0.45 0 0.90 -0.30 1.05 -0.75 0.35z"/>
  <path d="M22.50 17.50 c0 -0.25 0.25 -0.50 0.50 -0.50 0.30 0 0.50 0.25 0.50 0.50 0 0.30 -0.20 0.50 -0.50 0.50 -0.25 0 -0.50 -0.20 -0.50 -0.50z"/>
 </g>
 <g fill="#d3bdb1">
  <path d="M19.65 24.65 c0.20 -0.15 0.50 -0.15 0.70 0 0.15 0.20 0 0.35 -0.35 0.35 -0.35 0 -0.50 -0.15 -0.35 -0.35z"/>
  <path d="M13.55 15.70 c0 -0.55 0.15 -0.70 0.30 -0.30 0.15 0.35 0.10 0.80 -0.05 0.95 -0.15 0.20 -0.30 -0.10 -0.25 -0.65z"/>
 </g>
 <g fill="#dededf">
  <path d="M20.05 17.20 c0 -0.55 0.15 -0.70 0.30 -0.30 0.15 0.35 0.10 0.80 -0.05 0.95 -0.15 0.20 -0.30 -0.10 -0.25 -0.65z"/>
  <path d="M22.50 17.75 c0 -0.15 0.10 -0.25 0.25 -0.25 0.15 0 0.25 0.10 0.25 0.25 0 0.15 -0.10 0.25 -0.25 0.25 -0.15 0 -0.25 -0.10 -0.25 -0.25z"/>
 </g>
 <g fill="#e3dde2">
  <path d="M13.50 15.75 c0 -0.15 0.10 -0.25 0.25 -0.25 0.15 0 0.25 0.10 0.25 0.25 0 0.15 -0.10 0.25 -0.25 0.25 -0.15 0 -0.25 -0.10 -0.25 -0.25z"/>
 </g>
</svg>