<?xml version="1.0" encoding="utf-8"?>
<!DOCTYPE svg PUBLIC "-//W3C//DTD SVG 1.0//EN" "http://www.w3.org/TR/2001/REC-SVG-20010904/DTD/svg10.dtd">
<svg version="1.0" xmlns="http://www.w3.org/2000/svg" width="40px" height="40px" viewBox="0 0 40 40" preserveAspectRatio="xMidYMid meet">
 <g fill="#040815">
  <path d="M14.40 36.25 c0.30 -4.60 -0.40 -6.45 -2.80 -7.60 -2.20 -1.05 -5.60 -4.25 -5.60 -5.25 0 -0.45 0.30 -1.05 0.70 -1.35 0.55 -0.45 0.60 -1 0.25 -2.20 -0.25 -0.90 -0.45 -2.90 -0.45 -4.45 0 -1.95 -0.25 -3 -0.70 -3.25 -0.45 -0.25 -0.60 -0.90 -0.45 -1.80 0.20 -1.05 0.40 -1.25 0.95 -0.80 0.75 0.60 1.70 0.20 1.70 -0.75 0 -0.80 2.65 -2.90 5.20 -4.10 1 -0.50 1.80 -1 1.80 -1.20 0 -0.15 -0.65 -0.55 -1.50 -0.85 -1 -0.40 -1.50 -0.90 -1.50 -1.60 0 -1.60 1.55 -1.30 3.50 0.70 0.95 1 2.90 2.30 4.35 3 1.75 0.75 3.05 1.85 4 3.20 2.25 3.25 2.55 2.70 1.35 -2.55 -0.40 -1.90 0.55 -1.80 1.55 0.10 0.50 0.95 0.75 2.85 0.75 5.70 0 3 0.20 4.35 0.65 4.65 0.40 0.20 0.95 1.15 1.25 2.05 0.50 1.50 0.50 1.60 -0.70 1.60 -0.85 0 -1.20 -0.25 -1.20 -1 0 -0.65 -0.35 -1 -1 -1 -0.55 0 -1 0.35 -1 0.75 0 0.45 -0.45 0.75 -1.25 0.75 -0.90 0 -1.25 0.25 -1.25 1 0 0.90 -0.35 1 -3.20 1 -2.10 0 -3.30 -0.20 -3.50 -0.60 -0.25 -0.50 -0.35 -0.50 -0.60 0 -0.15 0.35 -1.20 0.60 -2.50 0.60 -1.20 0 -2.20 0.25 -2.20 0.55 0 0.25 0.55 1.35 1.25 2.35 0.70 1 1.25 2.10 1.25 2.45 0 0.40 0.65 0.65 1.50 0.65 2.05 0 4.25 1 7.15 3.20 1.30 1 2.80 1.80 3.35 1.80 1.20 0 1.30 0.75 0.15 1.20 -0.60 0.25 -0.65 0.50 -0.25 0.90 0.40 0.40 0.95 0.40 2.05 -0.10 1.30 -0.50 1.75 -0.50 2.75 0.20 1.10 0.70 4.30 4.80 4.30 5.50 0 0.90 -2.25 0.10 -3.40 -1.15 -1.20 -1.35 -1.60 -1.45 -3.45 -1.20 -1.85 0.25 -2.15 0.45 -2.15 1.45 0 1.15 -0.05 1.20 -5.65 1.15 l-5.70 0 0.25 -3.70z m5.10 -21.15 c0 -0.85 -3 -5.95 -4.15 -7 -2.30 -2.15 -6.15 0.15 -4.10 2.40 0.40 0.45 0.75 1.15 0.75 1.55 0 0.70 0.75 1.10 5 2.75 2.10 0.80 2.50 0.85 2.50 0.30z"/>
  <path d="M34.70 33.85 c0.20 -0.85 0.05 -1.55 -0.45 -2.05 -1.10 -1.05 -4.20 -1.55 -5.35 -0.85 -0.80 0.50 -0.90 0.40 -0.90 -0.90 0 -1.45 0.75 -2.55 1.10 -1.60 0.05 0.30 1.10 0.60 2.25 0.75 2.75 0.30 4.15 1.10 4.15 2.30 0 0.55 0.25 1 0.50 1 0.90 0 0.50 1.45 -0.55 2.05 -1 0.50 -1.05 0.45 -0.75 -0.70z"/>
  <path d="M27.50 24.55 c0 -2.10 0.50 -3.05 1.55 -3.05 1.10 0 1.15 0.55 0.35 2.85 -0.75 2.05 -1.90 2.20 -1.90 0.20z"/>
  <path d="M22.15 1.75 c-1.70 -1.90 0.05 -2.40 1.85 -0.50 l1.15 1.25 -1.20 0 c-0.65 -0.05 -1.50 -0.35 -1.80 -0.75z"/>
 </g>
 <g fill="#1a0e09">
  <path d="M14.40 36.15 c0.25 -5.10 -0.20 -6.15 -3.55 -8.05 -2.80 -1.60 -5.15 -4.20 -4.60 -5.10 0.55 -0.90 1.30 -0.50 1.80 0.95 0.65 1.80 2.75 3.25 4.45 3.15 1.50 -0.10 3.10 0.85 2.10 1.25 -0.50 0.20 -0.45 0.45 0.20 1.20 0.65 0.70 0.90 1.95 0.95 4.85 0.10 4.40 -0.10 5.60 -1 5.60 -0.40 0 -0.55 -1.05 -0.35 -3.85z"/>
  <path d="M34.65 33.90 c0.40 -1.50 -0.85 -3.40 -2.20 -3.40 -0.50 0 -0.95 -0.20 -0.95 -0.50 0 -0.90 2.30 -0.55 3.70 0.55 1.55 1.25 1.70 2.95 0.25 3.85 -1 0.65 -1.05 0.60 -0.80 -0.50z"/>
  <path d="M23.50 33 c0 -1.15 0.20 -1.50 1 -1.50 0.55 0 1 -0.20 1 -0.50 0 -0.25 -1 -0.50 -2.25 -0.50 -2.20 0 -2.25 -0.05 -2.25 -1.65 0 -1.45 0.25 -1.70 2.45 -2.75 1.35 -0.60 3.15 -1.10 4 -1.10 1.45 0 1.55 0.10 1.55 1.95 0 1.55 0.20 2.05 1 2.30 0.55 0.15 1 0.55 1 0.80 0 0.30 -0.25 0.35 -0.55 0.15 -0.30 -0.15 -1.15 0.25 -1.85 0.90 -0.75 0.70 -2.20 1.70 -3.20 2.30 l-1.90 1.05 0 -1.45z"/>
  <path d="M11.10 26 c-0.70 -1.15 -0.75 -1.50 -0.15 -1.50 0.40 0 1.20 2.05 0.90 2.35 -0.10 0.05 -0.40 -0.35 -0.75 -0.85z"/>
  <path d="M28 22.75 c0 -1.40 0.20 -1.75 1 -1.75 1.10 0 1.30 1 0.50 2.55 -0.80 1.50 -1.50 1.15 -1.50 -0.80z"/>
  <path d="M7.85 21.75 c-1.05 -1.45 -1.75 -5.75 -0.90 -5.75 0.30 0 0.70 0.90 0.85 2.05 0.20 1.10 0.65 2.15 1 2.30 0.70 0.25 1 2.65 0.35 2.65 -0.25 0 -0.80 -0.60 -1.30 -1.25z"/>
  <path d="M11.50 20.25 c0 -1.10 0.15 -1.25 1.40 -1 1.30 0.30 1.35 0.30 0.35 -0.55 -0.95 -0.80 -0.90 -0.80 1.65 -0.55 2.70 0.30 4.10 1.20 4.10 2.55 0 0.65 -0.65 0.80 -3.75 0.80 -3.65 0 -3.75 -0.05 -3.75 -1.25z"/>
  <path d="M27.30 18.90 c-0.40 -1.60 -0.35 -3.40 0.10 -3.40 0.70 0 1.45 0.75 1.70 1.75 0.15 0.55 0.45 1.40 0.65 1.90 0.30 0.65 0.10 0.85 -0.90 0.85 -0.85 0 -1.30 -0.35 -1.55 -1.10z"/>
  <path d="M5.40 11.95 c-1.05 -0.60 -5.40 -6.60 -5.40 -7.40 0 -1.05 0.75 -0.55 4.30 3 3.05 3.05 3.50 3.70 2.95 4.25 -0.80 0.80 -0.75 0.80 -1.85 0.15z"/>
  <path d="M25.05 5.65 c-0.50 -1.05 -1.65 -2.55 -2.50 -3.40 -1.70 -1.70 -1.90 -2.25 -0.80 -2.25 1.75 0 5.25 4.70 5.25 7 0 1.10 -1.05 0.40 -1.95 -1.35z"/>
  <path d="M14.60 2.90 c-0.30 -0.30 -0.60 -0.45 -0.60 -0.25 0 0.20 -0.90 -0.10 -2 -0.65 -2.45 -1.25 -2.55 -2 -0.35 -2 1.15 0 2.05 0.40 2.80 1.20 1.20 1.25 1.35 2.90 0.15 1.70z"/>
 </g>
 <g fill="#131d2f">
  <path d="M17 39.05 c0 -0.60 0.55 -1.15 1.60 -1.50 1.80 -0.65 1.65 -0.70 2.10 1.10 0.30 1.30 0.25 1.35 -1.70 1.35 -1.65 0 -2 -0.15 -2 -0.95z"/>
  <path d="M21.65 38.90 c-0.45 -1.05 0 -3.20 1 -4.75 0.35 -0.55 -2.85 -3.65 -3.75 -3.65 -0.25 0 -0.40 -0.20 -0.40 -0.50 0 -0.25 0.80 -0.50 1.75 -0.50 0.95 0 1.75 0.25 1.75 0.50 0 0.30 0.30 0.50 0.65 0.50 0.40 0 1.15 0.50 1.75 1.15 l1.10 1.15 -1.25 1.20 c-1.80 1.70 -1.65 2.55 0.40 2.20 3.75 -0.70 5.10 -1.10 3.95 -1.15 -1.35 -0.05 -1 -1.05 0.40 -1.05 0.90 0 5 4.45 5 5.45 0 0.30 -0.45 0.55 -1 0.55 -0.70 0 -1 -0.35 -1 -1.05 l0 -1 -1.30 1 c-1.05 0.85 -2.05 1.05 -4.95 1.05 -3.20 0 -3.65 -0.10 -4.10 -1.10z"/>
  <path d="M33.80 31.05 c-0.45 -0.65 -4.45 -1.05 -5.15 -0.45 -0.50 0.40 -0.65 0.15 -0.65 -1.05 0 -0.85 0.25 -1.55 0.50 -1.55 0.30 0 0.50 0.30 0.50 0.65 0 0.35 0.50 0.65 1.15 0.70 2.70 0.20 4.35 0.75 4.35 1.40 0 0.85 -0.30 0.95 -0.70 0.30z"/>
  <path d="M13.65 29.80 c-0.20 -0.35 -1.25 -1.05 -2.30 -1.55 -1.05 -0.50 -2.10 -1.30 -2.40 -1.80 -0.25 -0.55 -0.80 -0.95 -1.15 -0.95 -0.80 0 -1.95 -2.35 -1.35 -2.75 0.25 -0.15 0.85 -0.10 1.35 0.10 0.70 0.25 0.80 0.15 0.50 -0.65 -0.65 -1.65 -0.60 -1.95 0.35 -1.80 0.65 0.10 0.85 -0.20 0.85 -1.35 0 -0.80 -0.20 -1.65 -0.50 -1.80 -0.25 -0.15 -0.50 -0.75 -0.50 -1.25 0 -0.80 0.20 -0.85 1.50 -0.50 0.80 0.25 2.10 0.90 2.90 1.40 0.75 0.55 2.20 1.15 3.25 1.35 1 0.20 1.85 0.55 1.85 0.80 0 0.25 0.85 0.45 1.90 0.40 1 0 1.55 -0.15 1.25 -0.30 -0.35 -0.10 -0.65 -0.55 -0.65 -0.90 0 -0.55 -1.95 -1.25 -4.25 -1.50 -0.25 -0.05 -1.50 -0.55 -2.75 -1.10 -1.25 -0.60 -2.90 -1.35 -3.75 -1.70 -0.80 -0.35 -1.70 -0.75 -1.95 -0.85 -0.25 -0.15 -0.35 1.15 -0.20 2.85 0.10 1.70 0.05 2.90 -0.15 2.70 -0.25 -0.25 -0.45 -1.65 -0.55 -3.15 -0.10 -1.50 -0.40 -2.95 -0.75 -3.25 -0.45 -0.40 -0.45 -0.70 0.05 -1.35 0.60 -0.80 0.75 -0.75 2.05 0.60 1.90 1.95 2.70 1.95 1.05 -0.05 -0.70 -0.85 -1.30 -1.80 -1.30 -2.20 0 -0.90 2.90 -3.40 4.95 -4.20 1.55 -0.65 1.65 -0.65 3.35 1 2.35 2.30 4.80 6.80 4.75 8.85 0 0.85 0.20 1.60 0.50 1.60 1 0 1.95 1.45 1.95 2.95 l0 1.50 -4.25 0 c-4.05 0 -5.80 -0.65 -2.85 -1.10 1.20 -0.15 1.15 -0.20 -0.40 -0.30 -0.95 -0.05 -2.20 -0.40 -2.70 -0.80 -1.10 -0.85 -1.80 -0.95 -1.80 -0.35 0 0.25 0.55 0.75 1.25 1.10 0.70 0.35 1.25 0.85 1.25 1.10 0 0.20 -0.55 0.40 -1.25 0.40 -0.70 0 -1.25 0.15 -1.25 0.40 0 0.85 3 3.95 4.70 4.85 1.30 0.70 1.80 1.30 1.80 2.15 0 0.90 -0.20 1.15 -0.80 0.90 -0.45 -0.15 -1.40 -0.45 -2.10 -0.60 -1.10 -0.25 -1.25 -0.20 -0.70 0.35 0.30 0.35 0.60 0.85 0.60 1.05 0 0.65 -0.90 0.45 -1.35 -0.30z m-2.10 -3.15 c-0.95 -1.80 -1.95 -2.80 -2.75 -2.95 -0.45 -0.05 -0.80 0 -0.80 0.15 0 0.75 1.20 2.25 2.40 2.85 1.75 0.95 1.75 0.95 1.15 -0.05z"/>
  <path d="M23.80 16.10 c-0.45 -2.90 -2.60 -6.50 -6 -9.95 -3.25 -3.40 -3 -3.85 0.95 -1.75 1.70 0.90 2.55 1.70 2.65 2.50 0.10 0.75 0.50 1.10 1.25 1.10 1.90 0.05 3 2.20 2.75 5.30 l-0.25 2.70 1.55 -0.15 c1.25 -0.10 1.55 0.10 1.55 0.90 0 0.80 -0.40 1.05 -2.05 1.15 -2.05 0.15 -2.05 0.15 -2.40 -1.80z"/>
  <path d="M26.55 10.95 c-0.05 -1.30 -0.40 -3.15 -0.80 -4.10 -0.90 -2.15 -0.90 -2.35 -0.25 -2.35 1.50 0 2.55 5.35 1.50 7.75 -0.35 0.75 -0.45 0.45 -0.45 -1.30z"/>
  <path d="M12.65 2.15 c-0.85 -0.30 -0.85 -2.15 0 -2.15 0.40 0 1.20 0.55 1.85 1.25 l1.15 1.25 -1.20 -0.05 c-0.65 0 -1.50 -0.15 -1.80 -0.30z"/>
 </g>
 <g fill="#372617">
  <path d="M14.80 34.50 c-0.15 -0.80 -0.45 -2.20 -0.60 -3 -0.15 -0.85 -0.75 -2 -1.35 -2.50 -0.55 -0.55 -0.75 -1 -0.40 -1 0.30 0 1.15 0.55 1.80 1.25 1.05 1 1.25 1.70 1.25 4 0 3.05 -0.25 3.55 -0.70 1.25z"/>
  <path d="M34.70 33 c0.05 -1.55 1.10 -2.05 1.60 -0.75 0.30 0.75 -0.55 2.25 -1.30 2.25 -0.20 0 -0.35 -0.65 -0.30 -1.50z"/>
  <path d="M23.35 33.65 c-0.65 -0.65 -0.35 -2.10 0.55 -2.30 0.50 -0.15 0.30 -0.25 -0.50 -0.30 -0.80 0 -1.40 -0.25 -1.40 -0.55 0 -0.25 -0.35 -0.50 -0.75 -0.50 -0.50 0 -0.75 -0.55 -0.75 -1.75 0 -1.60 0.10 -1.75 1.50 -1.75 0.85 0 1.50 -0.20 1.50 -0.50 0 -0.25 0.55 -0.50 1.25 -0.50 0.70 0 1.25 -0.20 1.25 -0.50 0 -0.25 0.35 -0.50 0.75 -0.50 0.45 0 0.75 -0.45 0.75 -1.25 0 -1 0.25 -1.25 1.25 -1.25 1.10 0 1.20 0.10 0.75 1.30 -0.30 0.70 -0.50 2.40 -0.50 3.75 0 2 0.15 2.45 0.90 2.50 0.65 0 0.70 0.10 0.10 0.30 -0.40 0.15 -1.10 0.65 -1.50 1.15 -0.60 0.75 -4.15 3 -4.70 3 -0.05 0 -0.30 -0.15 -0.45 -0.35z m2.70 -5.95 c1.30 -0.75 1.70 -1.10 0.95 -0.90 -1.90 0.50 -4.85 2.20 -3.90 2.20 0.45 0 1.80 -0.60 2.95 -1.30z"/>
  <path d="M9.15 26.90 c-1.20 -0.80 -2.15 -1.65 -2.15 -1.95 0 -0.80 0.90 -0.50 2.15 0.75 0.65 0.60 1.45 1.25 1.85 1.40 0.35 0.10 0.55 0.45 0.45 0.75 -0.10 0.35 -1.05 -0.05 -2.30 -0.95z"/>
  <path d="M8.65 22.10 c-0.90 -0.55 -2.15 -3.85 -2.15 -5.60 0 -2.40 0.85 -1.75 1.20 1 0.35 2.60 1 3.50 1.95 2.55 0.90 -0.90 1.35 -0.65 1.35 0.95 0 1.55 -0.95 2 -2.35 1.10z"/>
  <path d="M13 21.15 c0 -0.95 0.45 -1.10 4.65 -1.40 2.50 -0.25 4.30 -0.50 4 -0.60 -1.10 -0.40 -0.70 -1.15 0.60 -1.15 1.10 0 1.25 0.20 1.25 1.75 0 1.70 -0.05 1.75 -1.85 1.75 -1.05 0 -3.40 0.15 -5.25 0.35 -3.20 0.25 -3.40 0.25 -3.40 -0.70z"/>
  <path d="M27.85 20.65 c-0.20 -0.15 -0.35 -0.95 -0.35 -1.75 0 -0.90 -0.25 -1.40 -0.75 -1.40 -0.40 0 -0.75 -0.20 -0.75 -0.40 0 -0.50 1.10 -1.60 1.60 -1.60 0.45 0 2.40 3.90 2.40 4.85 0 0.65 -1.60 0.90 -2.15 0.30z"/>
  <path d="M13.75 19 c-0.20 -0.30 0.40 -0.50 1.50 -0.50 1.10 0 1.70 0.20 1.50 0.50 -0.15 0.30 -0.85 0.50 -1.50 0.50 -0.65 0 -1.35 -0.20 -1.50 -0.50z"/>
  <path d="M5.10 10.95 c-0.25 -0.55 -0.60 -0.95 -0.85 -0.85 -0.60 0.20 -4.50 -5.55 -4.05 -6 0.20 -0.15 2.15 1.55 4.35 3.80 4 4.05 4 4.10 2.45 4.10 -1.10 0 -1.65 -0.30 -1.90 -1.05z"/>
  <path d="M25.45 5.90 c-0.35 -0.65 -1.50 -2.20 -2.55 -3.50 -1.80 -2.15 -1.90 -2.40 -0.95 -2.40 0.60 0 1.05 0.30 1.05 0.70 0 0.40 0.45 0.85 0.95 1.05 0.55 0.15 1.05 0.55 1.20 0.90 0.15 0.35 0.60 1.45 1.05 2.50 0.85 2 0.25 2.60 -0.75 0.75z"/>
  <path d="M10.65 1.15 c-1 -0.40 -0.75 -1.15 0.35 -1.15 0.55 0 1 0.35 1 0.75 0 0.75 -0.30 0.85 -1.35 0.40z"/>
 </g>
 <g fill="#177308">
  <path d="M18.60 21.65 c0.15 -1.85 0.20 -1.90 2.30 -1.95 l2.15 -0.05 -0.15 1.80 c-0.15 1.75 -0.25 1.80 -2.30 1.95 l-2.15 0.15 0.15 -1.90z"/>
  <path d="M27 17.50 c0 -1.55 0.15 -1.90 0.75 -1.70 0.40 0.20 0.75 0.35 0.75 0.40 0 0 0.20 0.80 0.45 1.70 0.45 1.50 0.40 1.60 -0.75 1.60 -1.05 0 -1.20 -0.20 -1.20 -2z"/>
 </g>
 <g fill="#293445">
  <path d="M21.75 38.95 c-0.50 -1.55 -0.05 -1.60 1.25 -0.20 1.15 1.25 1.15 1.25 0.10 1.25 -0.60 0 -1.15 -0.40 -1.35 -1.05z"/>
  <path d="M28 39.10 c0 -0.45 0.45 -1.15 1 -1.50 0.60 -0.35 1.25 -1.10 1.45 -1.70 0.35 -1.05 0.50 -0.95 1.95 1.05 0.90 1.20 1.60 2.40 1.60 2.65 0 0.20 -1.35 0.40 -3 0.40 -2.55 0 -3 -0.15 -3 -0.90z"/>
  <path d="M23 33.25 c-0.35 -0.45 -1.85 -1.50 -3.35 -2.40 -1.45 -0.85 -2.65 -1.75 -2.65 -1.95 0 -0.25 0.80 -0.40 1.75 -0.40 1.20 0 1.75 0.25 1.75 0.75 0 0.45 0.45 0.75 1.25 0.75 0.70 0 1.25 0.15 1.25 0.40 0 0.20 0.70 0.65 1.50 1 1.60 0.70 2 1.60 0.75 1.60 -0.40 0 -0.75 0.25 -0.75 0.50 0 0.75 -0.80 0.60 -1.50 -0.25z"/>
  <path d="M33.80 31.10 c-0.20 -0.30 -1.05 -0.80 -1.95 -1.10 -1.55 -0.45 -1.50 -0.50 0.40 -0.20 2.30 0.35 2.45 0.40 2.15 1.25 -0.15 0.50 -0.30 0.50 -0.60 0.05z"/>
  <path d="M14 30 c0 -0.30 -0.55 -0.80 -1.25 -1.10 -0.70 -0.30 -1.25 -0.75 -1.25 -1.05 0 -0.60 3.10 1.25 3.40 2.05 0.10 0.30 -0.05 0.60 -0.35 0.60 -0.30 0 -0.55 -0.25 -0.55 -0.50z"/>
  <path d="M10.70 24.15 c-2.05 -2.15 -3.50 -3.95 -3.20 -4.05 0.30 -0.10 0.85 0.05 1.20 0.35 0.55 0.45 0.75 0.45 0.95 -0.05 0.15 -0.35 0.30 0.10 0.30 1 0.05 1.45 0.20 1.60 1.55 1.60 1.15 0 1.50 0.20 1.50 1 0 0.65 0.35 1 1 1 0.55 0 1 0.30 1 0.70 0 0.40 0.15 1.05 0.30 1.50 0.70 1.75 -1.05 0.60 -4.60 -3.05z"/>
  <path d="M12.50 20.30 c0 -0.65 0.25 -0.70 1.30 -0.30 0.85 0.35 1.90 0.35 3.05 0.05 1.25 -0.35 1.65 -0.35 1.50 0.10 -0.10 0.35 -1.40 0.65 -3 0.75 -2.30 0.10 -2.85 0 -2.85 -0.60z"/>
  <path d="M20.15 20.65 c-1.20 -0.45 -0.65 -1.25 0.60 -0.95 2.90 0.75 0.20 -1.90 -2.75 -2.70 -1.25 -0.35 -3.15 -1 -4.25 -1.50 -4.90 -2.10 -5.75 -2.50 -5.90 -2.40 -0.30 0.20 -2.35 -1.20 -2.35 -1.55 0 -0.25 0.35 -0.60 0.85 -0.75 0.50 -0.20 1.30 0.20 2.30 1.20 1.90 1.95 2.80 1.95 1.15 -0.05 -2.30 -2.75 -1.30 -4.90 3.20 -6.75 1.65 -0.70 1.75 -0.70 3.40 1 0.95 0.90 2.80 3.80 4.05 6.35 3.40 6.65 4.85 6.75 2.20 0.10 -1 -2.55 -2.10 -4.15 -4.50 -6.50 -1.75 -1.75 -3.70 -3.40 -4.40 -3.65 -0.75 -0.30 -1.25 -0.85 -1.25 -1.50 0 -1.40 0.25 -1.30 2.85 1.10 1.20 1.20 2.40 2.10 2.55 2.10 0.70 -0.15 3.90 1.75 4.90 2.90 2.30 2.60 2.85 3.95 2.55 6.45 -0.30 2.55 0.20 3.45 1.40 2.45 0.65 -0.50 0.75 -0.40 0.75 0.90 0 1.35 -0.20 1.55 -1.60 1.70 -1.25 0.10 -1.70 0.40 -1.80 1.30 -0.15 0.90 -0.50 1.10 -1.75 1.05 -0.90 0 -1.90 -0.15 -2.20 -0.30z m-9.45 -11.40 c-0.30 -0.80 -1.70 -1.05 -1.70 -0.35 0 0.65 0.55 1.10 1.30 1.10 0.40 0 0.55 -0.30 0.40 -0.75z"/>
  <path d="M13.20 18.50 c-0.55 -0.60 -1.55 -1.10 -2.25 -1.10 -1.30 -0.10 -2.45 -0.75 -2.45 -1.45 0 -0.85 1.50 -0.45 4.35 1.05 1.55 0.85 3.10 1.50 3.50 1.50 0.40 0 0.55 0.25 0.40 0.50 -0.50 0.85 -2.45 0.55 -3.55 -0.50z"/>
  <path d="M6.85 15.80 c-0.25 -1.05 -0.30 -2.05 -0.15 -2.20 0.60 -0.55 0.85 0.35 0.70 2.20 l-0.15 1.95 -0.40 -1.95z"/>
  <path d="M26.50 9.50 c0 -0.85 -0.25 -2 -0.55 -2.60 -0.70 -1.35 -0.10 -1.80 0.80 -0.60 0.80 1.10 1 4 0.25 4.45 -0.30 0.20 -0.50 -0.35 -0.50 -1.25z"/>
 </g>
 <g fill="#704716">
  <path d="M21.65 30.90 c-0.85 -0.40 -1.15 -1 -1.15 -2.15 0 -1.55 0.10 -1.65 2.50 -1.95 2 -0.25 2.50 -0.55 2.50 -1.25 0 -0.60 0.50 -1.05 1.25 -1.25 1.05 -0.25 1.25 -0.60 1.25 -2.05 0 -1.45 0.20 -1.75 1.05 -1.75 0.90 0 1 0.20 0.75 1.40 -0.20 0.75 -0.60 2.95 -0.90 4.85 -0.25 1.95 -0.75 3.80 -1 4.15 -0.65 0.75 -4.70 0.75 -6.25 0z m3.60 -1.85 c-0.90 -0.35 -0.80 -0.50 0.90 -1.20 1 -0.45 1.85 -1.05 1.85 -1.35 0 -0.50 -0.30 -0.40 -2.85 0.90 -0.65 0.35 -1.65 0.60 -2.25 0.60 -1.10 0.05 -1.15 0.05 -0.20 0.75 0.55 0.40 1.55 0.75 2.25 0.70 1.15 0 1.20 -0.05 0.30 -0.40z"/>
  <path d="M8.60 21.85 c-1.40 -1.50 -1.55 -2.90 -0.15 -1.65 0.80 0.75 0.95 0.75 1.20 0.05 0.55 -1.35 1.35 -0.80 1.35 1 0 2.05 -0.85 2.30 -2.40 0.60z"/>
  <path d="M12 20.80 c0 -1.20 0.15 -1.30 1.15 -1 0.60 0.25 1.55 0.35 2.10 0.30 0.55 0 2.35 -0.15 4 -0.30 1.65 -0.10 3.10 -0.25 3.20 -0.25 0.15 -0.05 -0.20 -0.40 -0.75 -0.80 -0.90 -0.70 -0.85 -0.70 0.60 -0.75 1.55 0 2.55 -1.05 1.90 -2.05 -0.15 -0.25 -0.05 -0.45 0.25 -0.45 0.25 0 0.70 0.35 0.95 0.80 0.40 0.70 0.50 0.70 1.05 0 0.75 -0.85 2.05 -0.50 2.05 0.55 0 1.20 -1.30 2.15 -2.95 2.15 -1.30 0 -1.55 0.20 -1.55 1.25 0 1.15 -0.20 1.25 -1.85 1.20 -1.05 0 -3.75 0.15 -6 0.35 l-4.15 0.35 0 -1.35z"/>
  <path d="M14 19 c-0.55 -0.35 -0.35 -0.50 0.90 -0.50 1 0 1.55 0.20 1.35 0.50 -0.40 0.65 -1.30 0.65 -2.25 0z"/>
  <path d="M3.30 9.35 c-1.20 -1.55 -1.70 -3.35 -1 -3.35 0.75 0 2.70 2.85 2.70 3.90 0 1.45 -0.20 1.40 -1.70 -0.55z"/>
 </g>
 <g fill="#35465e">
  <path d="M29 39.25 c0 -0.40 0.45 -0.75 0.95 -0.75 0.50 0 1.05 0.35 1.25 0.75 0.20 0.55 -0.05 0.75 -0.95 0.75 -0.80 0 -1.25 -0.30 -1.25 -0.75z"/>
  <path d="M32 37.95 c-1.40 -2.70 -1 -3 0.70 -0.45 1.45 2.20 1.55 2.50 0.80 2.50 -0.25 0 -0.95 -0.90 -1.50 -2.05z"/>
  <path d="M28 29.45 c0.05 -1.40 0.10 -1.55 0.55 -0.80 0.30 0.50 1.15 0.90 2.10 0.90 l1.60 0.10 -1.50 0.20 c-0.80 0.15 -1.80 0.45 -2.10 0.75 -0.50 0.40 -0.65 0.15 -0.65 -1.15z"/>
  <path d="M11.15 24.50 c-1.75 -1.80 -3.15 -3.60 -3.15 -4 0.05 -0.60 0.15 -0.55 0.70 0.15 0.65 0.85 0.70 0.80 0.95 -0.15 0.20 -0.70 0.65 -1 1.75 -1 1.80 0 2.40 0.70 1.40 1.60 -0.60 0.55 -0.55 0.90 0.55 2.30 0.75 1 1.15 2.10 1.05 3 -0.15 1.30 -0.25 1.25 -3.25 -1.90z"/>
  <path d="M14.05 20.80 c0.55 -0.45 3.45 -0.70 3.45 -0.30 0 0.30 -0.80 0.50 -1.85 0.50 -1 0 -1.70 -0.10 -1.60 -0.20z"/>
  <path d="M21.15 20.15 c1.65 -0.25 1.65 -0.30 0.15 -1.85 -0.65 -0.75 -1.70 -1.30 -2.45 -1.30 -0.70 0 -1.40 -0.20 -1.60 -0.50 -0.15 -0.25 -0.65 -0.30 -1.05 -0.15 -0.45 0.15 -0.95 0.10 -1.15 -0.15 -0.15 -0.25 -1.15 -0.90 -2.15 -1.40 -1.05 -0.50 -2 -1.35 -2.15 -1.85 -0.20 -0.55 -0.55 -0.95 -0.80 -0.95 -0.70 0 -1.50 -2.50 -1.20 -3.55 0.20 -0.55 0.80 -1.20 1.40 -1.50 l1.10 -0.60 -1.10 1.25 c-1.50 1.60 -1.45 2.40 0.15 2.40 1.10 0 1.20 -0.10 0.70 -0.75 -0.60 -0.70 -0.30 -1.75 0.50 -1.75 0.40 0 1.15 1.65 1.25 2.60 0 0.50 1.20 1.60 1.45 1.35 0.20 -0.20 -0.75 -2.20 -2.05 -4.35 -0.60 -0.90 -0.50 -1.10 1 -1.85 l1.60 -0.80 1.95 2.15 c1.05 1.20 2.85 4.10 4 6.50 1.90 4.10 2.80 5.10 3.55 3.90 0.15 -0.25 -0.55 -2.35 -1.65 -4.60 -1.50 -3.25 -2.60 -4.80 -5.05 -7.05 -1.70 -1.55 -3.45 -2.85 -3.85 -2.85 -0.40 0 -0.70 -0.35 -0.70 -0.75 0 -1.20 0.85 -0.90 2.95 1 1.05 0.95 2.25 1.75 2.60 1.75 0.40 0.05 1.60 0.65 2.70 1.40 2.55 1.75 4.35 5.15 4 7.60 -0.10 0.95 -0.10 2.25 0.10 2.90 0.25 1.05 0.30 1.05 0.95 0.25 0.60 -0.85 0.65 -0.80 0.70 0.25 0 0.65 -0.30 1.10 -0.75 1.10 -0.40 0 -0.75 0.35 -0.75 0.75 0 0.40 -0.35 0.75 -0.75 0.75 -0.40 0 -0.75 0.25 -0.75 0.50 0 0.30 -0.95 0.45 -2.10 0.45 -1.50 -0.10 -1.75 -0.15 -0.75 -0.30z m-3.95 -6.90 c-0.80 -1.20 -0.75 -1.25 0.25 -1.25 0.55 0 1.05 0.25 1.05 0.60 0 0.30 0.15 0.40 0.35 0.25 0.15 -0.20 -0.10 -0.80 -0.65 -1.40 -0.85 -0.95 -0.95 -0.95 -1.55 -0.15 -0.80 1.15 -0.85 2.55 0 2.85 1.25 0.55 1.35 0.30 0.55 -0.90z m-4.40 -1 c-0.15 -0.45 -0.55 -0.65 -0.80 -0.50 -0.40 0.25 -0.35 0.55 0.05 1.05 0.70 0.90 1.20 0.55 0.75 -0.55z m10.75 -1.95 c-0.70 -1.80 -1.10 -1.65 -0.45 0.25 0.30 0.80 0.60 1.40 0.70 1.30 0.15 -0.10 0 -0.80 -0.25 -1.55z m-7.40 -1.30 c-0.35 -1.25 -0.95 -1.70 -1.40 -1 -0.30 0.50 0.70 1.95 1.35 2 0.15 0 0.20 -0.45 0.05 -1z"/>
  <path d="M12.60 17.95 c-1.15 -0.85 -2.10 -1.60 -2.10 -1.70 0 -0.10 1.30 0.40 2.95 1.15 1.60 0.75 2.85 1.50 2.70 1.75 -0.40 0.70 -1.45 0.35 -3.55 -1.20z"/>
  <path d="M7.10 16.65 c-0.05 -0.85 -0.25 -2 -0.40 -2.50 -0.25 -0.70 -0.20 -0.75 0.25 -0.35 0.35 0.35 0.55 1.40 0.40 2.50 -0.15 1.75 -0.20 1.75 -0.25 0.35z"/>
  <path d="M9.05 16.80 c-0.40 -0.50 -0.45 -0.80 -0.05 -1.05 0.25 -0.15 0.65 0.05 0.80 0.50 0.45 1.10 -0.05 1.45 -0.75 0.55z"/>
  <path d="M8.15 13.05 c-0.90 -0.45 -1.65 -1.05 -1.65 -1.40 0 -1.20 0.80 -0.95 2.40 0.65 1.80 1.85 1.65 1.95 -0.75 0.75z"/>
  <path d="M26.55 9.20 c-0.05 -0.60 -0.40 -1.90 -0.80 -2.90 -0.45 -1.05 -0.55 -1.80 -0.25 -1.80 0.90 0 2 3.40 1.50 4.65 -0.45 1.10 -0.45 1.10 -0.45 0.05z"/>
 </g>
 <g fill="#504944">
  <path d="M21.80 39.20 c-0.45 -1.20 -0.40 -1.30 0.70 -0.70 0.55 0.30 1 0.75 1 1 0 0.80 -1.35 0.55 -1.70 -0.30z"/>
  <path d="M28.50 39.25 c0 -0.40 0.45 -0.75 0.95 -0.75 0.50 0 1.05 0.35 1.25 0.75 0.20 0.55 -0.05 0.75 -0.95 0.75 -0.80 0 -1.25 -0.30 -1.25 -0.75z"/>
  <path d="M14.60 37.90 c0.75 -2.30 0.90 -2.35 0.90 -0.25 0 1.30 -0.20 1.85 -0.70 1.85 -0.60 0 -0.65 -0.30 -0.20 -1.60z"/>
  <path d="M35 33.40 c0 -0.35 -0.15 -1.20 -0.30 -1.90 l-0.35 -1.25 1.10 1.05 c0.70 0.65 0.95 1.35 0.75 1.85 -0.35 1 -1.20 1.15 -1.20 0.25z"/>
  <path d="M22.15 32.35 c-2.10 -1.40 -2.05 -1.85 0.10 -1.85 1.60 0 1.75 0.10 1.75 1.50 0 0.85 -0.05 1.50 -0.10 1.45 -0.10 0 -0.90 -0.50 -1.75 -1.10z"/>
  <path d="M14 30.30 c-0.25 -0.65 -0.95 -1.35 -1.55 -1.55 -1.75 -0.55 -5.15 -3.20 -5.85 -4.50 -1 -1.95 0.30 -2 1.45 -0.05 0.55 0.95 2.05 2.35 3.30 3.05 2.50 1.50 4.15 3 4.15 3.75 0 0.95 -1.05 0.50 -1.50 -0.70z"/>
  <path d="M27.50 29.85 c0 -2.05 0.45 -2.35 1.35 -0.90 0.50 0.80 0.40 1.10 -0.40 1.85 -0.90 0.85 -0.95 0.80 -0.95 -0.95z"/>
  <path d="M16.35 28.80 c-2.65 -1.65 -2.65 -1.65 0 -1.60 2.25 0.05 2.40 0.15 2.55 1.45 0.20 1.65 -0.10 1.65 -2.55 0.15z"/>
  <path d="M11.90 25 l-1.40 -1.75 1.30 -0.15 c1.65 -0.20 1.80 -0.05 1.60 1.95 l-0.15 1.70 -1.35 -1.75z"/>
  <path d="M11 20.80 c0 -1.15 1 -1.50 2.30 -0.75 1.70 0.90 1.50 1.45 -0.55 1.45 -1.20 0 -1.75 -0.25 -1.75 -0.70z"/>
  <path d="M7 19.65 c-0.05 -0.50 -0.15 -2.10 -0.30 -3.60 -0.20 -1.85 -0.15 -2.55 0.25 -2.35 0.30 0.20 0.55 1.10 0.55 1.95 0 0.90 0.20 2.35 0.45 3.25 0.40 1.25 0.35 1.60 -0.25 1.60 -0.40 0 -0.70 -0.40 -0.70 -0.85z"/>
  <path d="M24.50 17.15 c0.05 -1.25 0.10 -1.30 0.65 -0.55 0.60 0.75 0.70 0.75 1.30 -0.20 0.60 -0.95 0.70 -0.95 1.40 -0.25 1.20 1.20 0.45 2.35 -1.60 2.35 -1.60 0 -1.75 -0.15 -1.75 -1.35z"/>
  <path d="M7.25 12.55 c-1.05 -0.20 -1.55 -0.65 -1.65 -1.45 -0.20 -1.25 0.35 -1.40 1.45 -0.45 0.75 0.60 2.20 2.40 1.90 2.30 -0.10 -0.05 -0.85 -0.20 -1.70 -0.40z"/>
  <path d="M25.35 5.45 c-1 -1.80 -0.65 -2.75 0.45 -1.25 0.60 0.85 1 2.80 0.60 2.80 -0.10 0 -0.55 -0.70 -1.05 -1.55z"/>
  <path d="M11.50 1.40 l-1.75 -1.15 1.60 -0.15 c1.10 -0.10 1.90 0.15 2.60 0.85 0.60 0.60 1.05 1.15 1.05 1.30 0 0.60 -1.90 0.15 -3.50 -0.85z"/>
 </g>
 <g fill="#966407">
  <path d="M22.15 32.35 c-2.75 -1.85 -1.80 -2.70 2.65 -2.40 0.55 0.05 1.30 -0.25 1.65 -0.65 0.50 -0.60 0.40 -0.70 -0.55 -0.45 -1.05 0.20 -1.05 0.15 -0.30 -0.45 0.45 -0.35 1.25 -0.90 1.75 -1.20 0.50 -0.35 0.70 -0.75 0.45 -1 -0.25 -0.25 -0.55 -0.20 -0.65 0.20 -0.15 0.30 -0.65 0.60 -1.15 0.60 -0.50 0 -1.10 0.25 -1.25 0.50 -0.50 0.80 -1.40 0.60 -1.05 -0.25 0.20 -0.55 -0.05 -0.75 -0.95 -0.75 -1 0 -1.25 -0.25 -1.25 -1.25 0 -1.10 -0.10 -1.20 -1.30 -0.75 -0.70 0.30 -1.95 0.50 -2.75 0.50 -1.30 0 -1.45 -0.15 -1.45 -1.50 0 -0.80 -0.20 -1.50 -0.50 -1.50 -0.75 0 -0.60 -1.50 0.15 -1.55 0.30 -0.05 1.95 -0.15 3.60 -0.20 1.60 -0.10 3.05 -0.40 3.15 -0.70 0.45 -1.30 1.10 -0.40 1.10 1.45 0 1.45 0.20 2 0.75 2 0.50 0 0.75 0.50 0.75 1.50 0 1.80 0.80 1.95 1.60 0.25 0.30 -0.70 0.95 -1.25 1.40 -1.25 0.75 0 0.85 0.50 0.80 3.45 -0.10 3.10 -0.25 3.65 -1.50 4.75 -0.75 0.75 -1.55 1.30 -1.80 1.30 -0.20 0 -0.70 0.10 -1.10 0.20 -0.35 0.10 -1.35 -0.30 -2.25 -0.85z"/>
  <path d="M9.30 22.45 c-0.70 -0.55 -1.30 -1.40 -1.30 -1.85 0.05 -0.75 0.10 -0.75 0.70 0.05 0.60 0.75 0.70 0.80 1 0.10 0.55 -1.50 1.80 -0.85 1.80 1 0 2 -0.35 2.15 -2.20 0.70z"/>
 </g>
 <g fill="#6e5f4b">
  <path d="M14 39.60 c0 -0.25 0.35 -0.85 0.75 -1.40 0.70 -0.90 0.70 -0.90 0.75 0.45 0 0.85 -0.25 1.35 -0.75 1.35 -0.40 0 -0.75 -0.20 -0.75 -0.40z"/>
  <path d="M21.80 39.20 c-0.45 -1.20 -0.40 -1.25 0.70 -0.60 1.15 0.75 1.30 1.40 0.30 1.40 -0.40 0 -0.85 -0.35 -1 -0.80z"/>
  <path d="M14.40 31.80 c-0.80 -2.90 -0.80 -2.90 0.20 -1.95 0.70 0.75 0.95 1.50 0.80 2.95 l-0.15 1.95 -0.85 -2.95z"/>
  <path d="M35 33.40 c0 -0.60 -0.50 -1.60 -1.10 -2.25 -0.85 -0.95 -0.95 -1.15 -0.25 -1.15 0.40 0 1.25 0.60 1.80 1.30 0.80 1 0.90 1.55 0.50 2.25 -0.65 1.25 -0.95 1.20 -0.95 -0.15z"/>
  <path d="M22.90 32.35 c-0.25 -0.50 -0.60 -0.80 -0.80 -0.65 -0.50 0.30 -4.75 -2.25 -5.30 -3.15 -0.25 -0.35 0.25 -0.55 1.40 -0.55 1.25 0 1.80 0.20 1.80 0.75 0 0.45 0.45 0.75 1.15 0.75 1.75 0 2.45 0.75 2.25 2.30 -0.10 1.20 -0.20 1.30 -0.50 0.55z"/>
  <path d="M8.50 26.35 c-0.40 -0.35 -1.05 -1 -1.45 -1.45 -0.55 -0.75 -0.55 -0.90 0 -0.90 0.40 0 1.10 0.60 1.60 1.30 1.05 1.40 1 1.90 -0.15 1.05z"/>
  <path d="M9.10 22.20 c-1.30 -1.10 -2.10 -2.20 -2.10 -2.85 0.05 -1.20 -0.05 -1.30 2.25 1.90 0.75 1 0.75 1 0.65 0 -0.10 -0.60 0.20 -1.05 0.75 -1.15 0.70 -0.15 0.85 0.20 0.85 1.85 0 1.15 -0.05 2.05 -0.15 2.05 -0.10 0 -1.10 -0.80 -2.25 -1.80z"/>
  <path d="M19.50 22.50 c0 -0.65 -0.35 -1 -1 -1 -1.25 0 -1.35 -1.45 -0.10 -1.55 0.45 -0.05 1.60 -0.05 2.50 0 1.15 0.10 1.60 -0.10 1.60 -0.65 0 -0.45 -0.35 -0.80 -0.75 -0.80 -0.40 0 -0.75 -0.20 -0.75 -0.50 0 -0.25 0.80 -0.45 1.75 -0.35 1.60 0.10 1.75 0.25 1.75 1.75 0 1.10 -0.25 1.60 -0.75 1.60 -0.45 0 -0.75 0.45 -0.75 1.25 0 1.10 -0.20 1.25 -1.75 1.25 -1.40 0 -1.75 -0.20 -1.75 -1z m2.50 -1.65 c0 -0.20 -0.45 -0.15 -1 0.15 -0.55 0.30 -1 0.75 -1 1 0 0.30 0.45 0.25 1 -0.10 0.55 -0.35 1 -0.80 1 -1.05z"/>
  <path d="M6.80 16.10 c-0.20 -0.90 -0.25 -1.80 -0.10 -1.95 0.55 -0.60 0.85 0.25 0.70 1.95 l-0.15 1.65 -0.45 -1.65z"/>
  <path d="M5.30 11.55 c-0.50 -0.55 -0.80 -1.40 -0.70 -1.95 0.15 -1 0.20 -1 1.50 0.15 0.85 0.75 1.30 1.50 1.10 1.95 -0.40 1.05 -0.85 1 -1.90 -0.15z"/>
  <path d="M0.55 5.20 c-0.35 -0.40 -0.50 -0.90 -0.35 -1.05 0.35 -0.35 1.80 0.80 1.80 1.40 0 0.65 -0.65 0.50 -1.45 -0.35z"/>
  <path d="M23.35 2.85 c-1.05 -1.25 -1.15 -1.65 -0.55 -1.75 0.75 -0.20 2.70 1.60 2.70 2.45 0 1.05 -0.95 0.75 -2.15 -0.70z"/>
  <path d="M11.55 1.40 c-0.95 -0.60 -1.45 -1.20 -1.10 -1.30 0.80 -0.25 4.55 1.40 4.55 2 0 0.75 -1.70 0.40 -3.45 -0.70z"/>
 </g>
 <g fill="#4a5d74">
  <path d="M32.30 38.15 l-0.85 -1.90 1.25 1.50 c1.30 1.55 1.60 2.25 0.90 2.25 -0.25 0 -0.80 -0.85 -1.30 -1.85z"/>
  <path d="M13.50 29.25 c-0.35 -0.40 -0.90 -0.75 -1.30 -0.75 -0.35 0 -0.80 -0.20 -0.95 -0.50 -0.60 -0.95 0.70 -0.50 2.10 0.75 0.75 0.65 1.25 1.25 1.10 1.25 -0.20 0 -0.60 -0.35 -0.95 -0.75z"/>
  <path d="M15.75 28.30 c-0.85 -0.35 -1.80 -1 -2.20 -1.45 -0.60 -0.75 -0.50 -0.85 1 -0.85 2.20 0 3.10 0.60 2.85 1.90 -0.15 0.95 -0.25 0.95 -1.65 0.40z"/>
  <path d="M10 21.10 c0 -1.20 1.75 -1.75 3.15 -1 0.55 0.25 1.90 0.40 2.95 0.25 4.15 -0.55 0.40 0.70 -4.45 1.50 -1.40 0.20 -1.65 0.10 -1.65 -0.75z"/>
  <path d="M21.90 19.95 c1.15 -0.45 1.10 -1.45 -0.05 -1.45 -0.70 0 -2.35 -3.50 -2.35 -4.95 0 -0.50 -0.45 -1.50 -1 -2.20 -0.55 -0.70 -1 -1.55 -1 -1.95 -0.05 -0.35 -0.45 0.25 -0.95 1.35 -1.10 2.25 -0.75 3.50 1.15 4.20 0.60 0.25 1.40 0.80 1.75 1.25 0.60 0.70 0.55 0.80 -0.35 0.80 -0.55 0 -1.35 -0.35 -1.80 -0.75 -0.45 -0.50 -0.85 -0.55 -1.05 -0.25 -0.50 0.80 -1.25 0.05 -1.25 -1.25 0 -1.65 -0.90 -2.05 -1.10 -0.45 -0.15 1.30 -0.15 1.30 -2.50 -1 -2.55 -2.45 -2.75 -2.80 -1.75 -2.80 0.35 0 1.05 0.70 1.50 1.50 1.15 1.95 2.30 2 1.95 0.15 -0.20 -1.15 -0.10 -1.30 0.45 -0.75 0.85 0.80 1.85 0.80 1.05 0 -0.65 -0.65 -0.85 -2.40 -0.25 -2.40 0.15 0 0.75 0.35 1.25 0.85 0.50 0.45 0.90 0.60 0.90 0.35 0 -0.60 -1.15 -3.80 -1.65 -4.55 -0.25 -0.35 -0.20 -0.65 0.05 -0.65 0.75 0 3.50 3.80 5.10 7.05 2.60 5.40 2.75 5.60 3.30 5.80 1 0.35 1.20 -1.25 0.40 -3.20 -1.75 -4.20 -2.40 -5.45 -3.70 -6.90 -0.75 -0.80 -1.35 -1.90 -1.35 -2.35 0 -0.75 0.15 -0.75 1.40 -0.10 3.50 1.80 6.05 6.50 5.05 9.25 -0.50 1.30 0.35 3.30 1.15 2.55 0.25 -0.20 0.25 0.05 0.10 0.55 -0.20 0.50 -0.35 1.05 -0.35 1.15 0 0.10 -0.35 0.20 -0.75 0.20 -0.40 0 -0.75 0.35 -0.75 0.75 0 0.55 -0.55 0.75 -1.85 0.70 -1.70 0 -1.75 -0.05 -0.75 -0.50z m2.10 -8.50 c-0.25 -0.95 -0.85 -2.20 -1.25 -2.70 -0.55 -0.75 -0.50 -0.25 0.25 1.75 0.55 1.50 1 2.85 1 2.95 0 0.10 0.10 0.10 0.25 0 0.10 -0.15 0 -1.05 -0.25 -2z m-2.85 -3.80 c-0.40 -1.25 -1.20 -2.15 -1.75 -2.15 -0.25 0 0 0.70 0.60 1.50 1.20 1.70 1.60 1.90 1.15 0.65z"/>
  <path d="M13 17.95 l-1.75 -1.50 2 1.05 c1.10 0.55 2.35 1 2.75 1 0.65 0 0.65 0.05 0 0.50 -1.05 0.65 -1.05 0.65 -3 -1.05z"/>
  <path d="M6.75 15.35 c-0.20 -0.50 -0.25 -1.05 -0.05 -1.20 0.50 -0.50 0.90 0.20 0.65 1.20 -0.20 0.85 -0.20 0.85 -0.60 0z"/>
  <path d="M17.60 13.90 c-0.85 -0.85 -0.75 -1.90 0.15 -1.90 0.45 0 0.75 0.45 0.75 1.25 0 1.45 -0.05 1.50 -0.90 0.65z"/>
  <path d="M8.10 12.50 c-0.60 -0.60 -1.10 -0.80 -1.10 -0.50 0 0.30 -0.20 0.40 -0.50 0.25 -0.70 -0.45 -0.60 -1.60 0.15 -1.60 0.30 0 1.10 0.65 1.75 1.45 1.40 1.65 1.25 1.80 -0.30 0.40z"/>
  <path d="M10.85 9.15 c-0.60 -0.55 -0.40 -1.15 0.35 -1.15 0.40 0 0.80 0.35 1 0.75 0.25 0.75 -0.70 1.05 -1.35 0.40z"/>
  <path d="M26.20 7.20 c-0.30 -0.95 -0.40 -1.70 -0.15 -1.70 0.40 0 1.20 2.95 0.85 3.25 -0.10 0.10 -0.40 -0.60 -0.70 -1.55z"/>
  <path d="M12.30 7.05 c-0.85 -0.95 -0.85 -1.05 -0.10 -1.35 1.10 -0.40 1.40 -0.05 1.20 1.30 l-0.15 1.10 -0.95 -1.05z"/>
  <path d="M16.25 4 c-0.75 -0.80 -2.05 -1.60 -2.80 -1.75 -1 -0.25 -1.45 -0.65 -1.45 -1.30 0 -1.50 0.20 -1.40 4 2 1.25 1.05 2.10 2.10 1.95 2.25 -0.15 0.15 -0.90 -0.35 -1.70 -1.20z"/>
 </g>
 <g fill="#6aa218">
  <path d="M15.50 22.55 c0 -1.95 0.05 -2 2.15 -2.40 1.15 -0.25 2.65 -0.35 3.35 -0.20 l1.20 0.20 -1.10 0.75 c-1.35 0.90 -1.45 1.85 -0.10 1.10 0.80 -0.40 1 -0.40 1 0.20 0 1.45 -1.50 2.30 -4.05 2.30 l-2.45 0 0 -1.95z"/>
  <path d="M25 18.65 c0 -1.45 0.20 -2.15 0.45 -1.75 0.30 0.50 0.50 0.50 1.05 -0.15 0.95 -1.15 1.30 -0.95 2.45 1.35 1.20 2.45 0.85 2.90 -2.05 2.90 l-1.90 0 0 -2.35z"/>
 </g>
 <g fill="#b76f07">
  <path d="M23.05 32.55 c-0.30 -0.50 -1.10 -1.10 -1.80 -1.25 -0.70 -0.20 -1.25 -0.70 -1.25 -1.15 0 -0.65 0.45 -0.75 2.90 -0.50 2.35 0.25 3.05 0.15 4.10 -0.65 1.35 -1.05 1.05 -1.30 -0.65 -0.45 -1.05 0.50 -1.10 0.50 -0.10 -0.25 0.55 -0.40 1.30 -1 1.65 -1.30 0.45 -0.40 0.60 -0.15 0.60 1.20 0 1.55 -0.20 1.80 -1.35 2.10 -2.20 0.45 -2.50 0.60 -1.25 0.65 0.60 0.05 1.10 0.35 1.10 0.80 0 0.70 -0.90 1 -2.45 0.80 -0.35 -0.10 -0.50 0.10 -0.30 0.40 0.15 0.30 0.10 0.55 -0.20 0.55 -0.30 0 -0.75 -0.40 -1 -0.95z"/>
  <path d="M24 27.60 c0 -0.35 -0.55 -0.60 -1.25 -0.60 -1 0 -1.25 -0.25 -1.25 -1.25 0 -1.25 -0.70 -1.65 -1.25 -0.75 -0.15 0.30 -1.90 0.50 -3.85 0.50 -3.45 0 -3.60 -0.05 -5.85 -2.10 -1.25 -1.15 -2.40 -2.35 -2.50 -2.65 -0.10 -0.25 0.30 -0.05 0.90 0.45 1.05 0.95 1.05 0.95 1.05 0 0 -0.85 0.40 -0.95 3.75 -0.95 2.55 0 3.70 0.20 3.55 0.55 -0.30 0.75 1.25 0.60 2.10 -0.15 0.35 -0.35 1.20 -0.65 1.90 -0.65 0.70 0 1.35 -0.35 1.55 -0.85 0.55 -1.40 2.30 -2.95 2.55 -2.20 0.15 0.45 0.45 0.40 1.10 -0.20 0.70 -0.60 1 -0.65 1.30 -0.20 0.20 0.35 0 0.85 -0.45 1.20 -0.95 0.70 -1.15 1.75 -0.30 1.75 0.25 0 0.40 -0.20 0.20 -0.45 -0.15 -0.25 -0.05 -0.60 0.20 -0.80 0.70 -0.40 2.55 1.30 2.55 2.25 0 1.65 -1.60 5.50 -2.30 5.50 -0.40 0 -0.70 0.25 -0.70 0.50 0 0.30 -0.40 0.50 -0.90 0.50 -0.50 0 -1.15 0.25 -1.50 0.60 -0.45 0.45 -0.60 0.45 -0.60 0z m-3.50 -5.35 c1.60 -0.85 2.10 -1.95 0.65 -1.40 -1 0.40 -3.05 2.15 -2.45 2.15 0.20 0 1 -0.35 1.80 -0.75z"/>
 </g>
 <g fill="#40d62e">
  <path d="M15.70 23.95 c-0.25 -0.45 0 -0.50 1 -0.25 0.85 0.20 1.75 0.05 2.60 -0.55 1.25 -0.80 1.30 -0.80 1.15 0.15 -0.15 0.70 -0.70 1 -2.30 1.10 -1.20 0.10 -2.20 -0.10 -2.45 -0.45z"/>
  <path d="M16.65 22.65 c-1.35 -0.25 -1.50 -1.45 -0.25 -2.10 1.35 -0.70 3.75 -0.85 3.95 -0.20 0.20 0.55 -1.75 2.70 -2.30 2.60 -0.15 -0.05 -0.80 -0.20 -1.40 -0.30z"/>
  <path d="M26.35 20.15 c-0.20 -0.15 -0.35 -0.65 -0.35 -1.10 0 -0.55 0.15 -0.50 0.75 0.25 0.75 0.90 0.75 0.90 0.65 0 -0.10 -0.50 0.15 -1.05 0.55 -1.20 0.45 -0.15 0.60 0 0.40 0.50 -0.15 0.50 0 0.75 0.50 0.70 0.45 0 0.90 0.25 1 0.60 0.25 0.65 -2.90 0.90 -3.50 0.25z"/>
  <path d="M26.10 17.40 c0.15 -0.35 0.75 -0.75 1.40 -0.80 1.05 -0.15 1.10 -0.10 0.55 0.60 -0.80 0.95 -2.20 1.05 -1.95 0.20z"/>
 </g>
 <g fill="#9c7639">
  <path d="M23.45 33.25 c-0.05 -0.15 -0.10 -0.40 -0.15 -0.60 -0.05 -0.25 -0.25 -0.70 -0.45 -1 -0.30 -0.45 -0.05 -0.65 0.85 -0.65 1.35 0 3.95 -2.10 4.10 -3.30 0.20 -1.40 0.70 -1.40 0.70 -0.05 0 0.70 0.10 1.60 0.25 1.95 0.50 1.25 -1.60 2.90 -3.65 2.90 -1.40 0 -1.65 0.15 -1.10 0.50 0.50 0.30 0.55 0.50 0.15 0.50 -0.35 0 -0.70 -0.10 -0.70 -0.25z"/>
  <path d="M20.20 30.85 c-3.60 -2.05 -5.70 -3.50 -5.70 -3.90 0 -0.25 0.80 -0.45 1.75 -0.45 1.55 0 1.75 0.15 1.75 1.25 0 1.10 0.20 1.25 1.75 1.25 1.55 0 1.75 0.15 1.75 1.25 0 1.45 0.05 1.40 -1.30 0.60z"/>
  <path d="M22.50 27 c0 -0.55 0.35 -1 0.75 -1 0.40 0 0.75 -0.20 0.75 -0.50 0 -0.25 0.75 -0.50 1.70 -0.50 2.05 0 2.30 -0.30 1.95 -2.15 -0.20 -1.10 -0.55 -1.35 -1.70 -1.35 -1.10 0 -1.45 -0.25 -1.45 -0.95 0 -0.55 -0.30 -1.05 -0.60 -1.20 -0.50 -0.15 -0.50 -0.50 0.05 -1.50 1 -1.90 1.55 -1.65 1.55 0.65 0 1.10 0.20 2 0.45 2 0.25 0 0.35 -0.50 0.20 -1.10 -0.25 -1.15 -0.25 -1.15 0.50 -0.15 0.45 0.55 0.85 0.75 0.85 0.45 0 -0.95 2.20 -0.55 2.40 0.45 0.30 1.40 -1.40 5.85 -2.20 5.85 -0.40 0 -0.70 0.25 -0.70 0.50 0 0.30 -0.45 0.50 -0.95 0.50 -0.55 0 -1.15 0.25 -1.30 0.50 -0.60 0.95 -2.25 0.55 -2.25 -0.50z"/>
  <path d="M11.25 24.10 c-0.55 -0.75 -1.05 -1.95 -1.10 -2.70 -0.05 -1.40 0.45 -1.60 3.50 -1.05 1.65 0.30 1.85 1.65 0.20 1.65 -1 0 -1.15 0.20 -0.95 1.75 0.25 2.10 -0.30 2.20 -1.65 0.35z"/>
  <path d="M21.50 22 c0.95 -0.65 1.50 -0.65 1.50 0 0 0.30 -0.50 0.50 -1.10 0.50 -0.95 0 -1 -0.10 -0.40 -0.50z"/>
  <path d="M8 21.25 c-1 -1.20 -0.30 -1.40 0.75 -0.25 0.50 0.55 0.65 1 0.40 1 -0.30 0 -0.80 -0.35 -1.15 -0.75z"/>
  <path d="M18.80 21.20 c-1.30 -0.95 -0.60 -1.40 1.85 -1.25 1 0.05 1.15 1.05 0.15 1.05 -0.40 0 -0.80 0.20 -0.90 0.45 -0.05 0.25 -0.60 0.15 -1.10 -0.25z"/>
  <path d="M26 17.60 c0 -0.70 0.55 -1.05 1.30 -0.75 0.40 0.15 0.55 0.45 0.40 0.70 -0.35 0.55 -1.70 0.60 -1.70 0.05z"/>
  <path d="M3.90 10 c-1.15 -1.45 -1.25 -1.80 -0.60 -1.90 1.15 -0.25 2.30 1.10 2.10 2.45 -0.15 1.15 -0.20 1.15 -1.50 -0.55z"/>
  <path d="M12.10 1.65 c-1.85 -0.90 -2.10 -1.65 -0.45 -1.65 0.60 0 1.40 0.45 1.75 1.05 0.90 1.40 0.65 1.55 -1.30 0.60z"/>
 </g>
 <g fill="#607893">
  <path d="M13.40 26.50 l-1.65 -1.50 2 0.10 c1.75 0.15 2 0.30 2.15 1.55 0.20 1.75 -0.50 1.70 -2.50 -0.15z"/>
  <path d="M23 19.25 c0 -0.65 1.70 -2.75 2.20 -2.75 0.20 0 0.15 1.30 -0.15 3.15 -0.10 0.70 -2.05 0.35 -2.05 -0.40z"/>
  <path d="M13.45 18.15 c-0.65 -0.75 -0.60 -0.75 0.30 -0.30 0.55 0.30 1.35 0.65 1.75 0.80 0.50 0.20 0.40 0.30 -0.30 0.30 -0.60 0.05 -1.40 -0.30 -1.75 -0.80z"/>
  <path d="M18.05 16.55 c-0.40 -0.25 -0.45 -0.55 -0.15 -0.75 0.25 -0.15 0.75 0.05 1.10 0.45 0.70 0.80 0.15 1 -0.95 0.30z"/>
  <path d="M19.95 14.30 c-0.30 -1.25 -0.95 -2.60 -1.45 -3.05 -0.50 -0.45 -0.80 -1.20 -0.65 -1.60 0.20 -0.50 0 -0.70 -0.65 -0.55 -0.65 0.10 -1 -0.25 -1.25 -1.50 l-0.35 -1.65 1.20 1.10 c1.25 1.20 4.70 7.55 4.70 8.75 0 1.55 -1 0.55 -1.55 -1.50z"/>
  <path d="M15.20 14.80 c-0.50 -1.35 0.10 -2.15 0.70 -0.95 0.40 0.70 0.45 1.20 0.10 1.40 -0.30 0.15 -0.65 -0.05 -0.80 -0.45z"/>
  <path d="M22.85 12.45 c-1.65 -3.85 -1.35 -4.55 0.40 -0.90 l1.25 2.70 -0.30 -2 c-0.15 -1.10 -0.50 -2.25 -0.80 -2.60 -0.25 -0.35 -0.40 -0.90 -0.25 -1.25 0.35 -0.95 2 3.10 1.95 4.80 -0.05 2.65 -0.90 2.40 -2.25 -0.75z"/>
  <path d="M17.55 13.30 c-0.40 -0.45 -0.55 -0.95 -0.35 -1.15 0.45 -0.45 1.45 0.65 1.20 1.35 -0.10 0.40 -0.40 0.35 -0.85 -0.20z"/>
  <path d="M6.35 12.20 c-0.60 -0.60 -0.40 -1.55 0.35 -1.55 0.35 0 0.95 0.50 1.30 1.05 0.60 0.95 0.55 1 -0.10 0.40 -0.55 -0.45 -0.85 -0.45 -1 -0.10 -0.10 0.30 -0.35 0.40 -0.55 0.20z"/>
  <path d="M14.60 10.90 c-0.70 -0.70 -0.80 -1.90 -0.10 -1.90 0.65 0 1.60 1.90 1.10 2.20 -0.25 0.15 -0.70 0 -1 -0.30z"/>
  <path d="M21.35 7.70 c-0.20 -0.20 -0.35 -0.70 -0.35 -1.15 0 -0.55 0.15 -0.60 0.55 -0.20 0.30 0.30 0.50 0.80 0.35 1.15 -0.10 0.30 -0.35 0.40 -0.55 0.20z"/>
  <path d="M12.35 7.15 c-0.50 -0.45 -0.45 -1.15 0.10 -1.15 0.25 0 0.55 0.35 0.75 0.75 0.25 0.75 -0.25 1 -0.85 0.40z"/>
  <path d="M16.05 3.80 c-0.65 -0.65 -1.70 -1.35 -2.35 -1.50 -0.65 -0.20 -1.20 -0.65 -1.20 -1.10 0 -0.55 0.55 -0.35 2.20 0.75 1.20 0.85 2.30 1.85 2.45 2.30 0.45 1.05 0.20 0.95 -1.10 -0.45z"/>
 </g>
 <g fill="#857a6c">
  <path d="M14.30 39.25 c0.20 -0.40 0.50 -0.75 0.75 -0.75 0.25 0 0.45 0.35 0.45 0.75 0 0.40 -0.35 0.75 -0.75 0.75 -0.45 0 -0.60 -0.30 -0.45 -0.75z"/>
  <path d="M21.85 39.05 c-0.20 -0.85 -0.10 -0.90 0.70 -0.40 1.10 0.70 1.25 1.35 0.25 1.35 -0.35 0 -0.80 -0.45 -0.95 -0.95z"/>
  <path d="M14.55 31.90 c-0.35 -1.20 -0.90 -2.50 -1.15 -2.90 -0.30 -0.40 0.05 -0.10 0.80 0.65 0.80 0.85 1.30 2 1.30 2.90 0 2 -0.25 1.85 -0.95 -0.65z"/>
  <path d="M8.60 26.20 c-1.30 -1.10 -2.10 -2.20 -2.05 -2.85 0 -1.05 0 -1.10 0.60 -0.10 0.35 0.55 1.35 1.75 2.25 2.70 2.20 2.30 1.75 2.45 -0.80 0.25z"/>
  <path d="M13.35 26.30 c-1 -0.90 -1.85 -1.95 -1.85 -2.25 0 -0.75 2.25 -0.70 2.90 0.10 0.35 0.45 1.15 3.85 0.85 3.85 -0.05 0 -0.90 -0.75 -1.90 -1.70z"/>
  <path d="M10.15 21 c-0.05 -0.55 0.10 -1 0.40 -1 0.25 0 0.45 0.30 0.45 0.65 0 0.40 0.15 0.40 0.45 -0.10 0.55 -0.85 2.05 -0.35 2.05 0.70 0 0.50 -0.50 0.75 -1.65 0.75 -1.30 0 -1.65 -0.20 -1.70 -1z"/>
  <path d="M6.85 15.80 c-0.25 -0.75 -0.30 -1.55 -0.15 -1.70 0.40 -0.40 0.90 1.25 0.70 2.25 -0.15 0.65 -0.30 0.50 -0.55 -0.55z"/>
  <path d="M5.85 11.95 c-0.45 -0.30 -0.85 -0.95 -0.85 -1.45 0 -1.20 0.75 -1.30 1.20 -0.20 0.15 0.40 0.50 0.60 0.80 0.45 0.60 -0.35 0.65 0.25 0.10 1.10 -0.25 0.40 -0.65 0.40 -1.25 0.10z"/>
  <path d="M14.60 2.40 c-0.35 -0.35 -0.60 -0.45 -0.60 -0.25 0 0.20 -0.45 0.15 -1 -0.15 -0.95 -0.50 -1.40 -1.50 -0.60 -1.50 0.40 0 3.50 2.45 3.10 2.50 -0.20 0 -0.55 -0.25 -0.90 -0.60z"/>
  <path d="M22.60 1.85 c-1.20 -1.30 -1.40 -1.85 -0.55 -1.85 0.55 0 1.15 0.55 2.40 2.15 1.05 1.35 -0.55 1.10 -1.85 -0.30z"/>
 </g>
 <g fill="#dc8e12">
  <path d="M23 31.75 c-0.35 -0.45 -0.95 -0.70 -1.30 -0.55 -0.35 0.15 -1.80 -0.50 -3.25 -1.45 -1.40 -0.95 -2.75 -1.75 -2.95 -1.75 -0.95 0 -5.40 -5.60 -5.40 -6.80 0.05 -0.65 0.20 -1.20 0.45 -1.20 0.25 0 0.45 0.25 0.45 0.55 0 0.40 0.20 0.40 0.65 0 0.45 -0.35 1.20 -0.40 2.35 -0.05 1.05 0.30 1.95 0.30 2.55 0 0.50 -0.30 1.85 -0.50 3 -0.50 l2.15 0 -1.20 1.10 c-0.80 0.75 -1.25 0.90 -1.40 0.50 -0.25 -0.85 -2.10 -0.75 -2.10 0.15 0 0.40 -0.35 0.75 -0.75 0.75 -1.20 0 -0.85 0.85 0.50 1.20 0.80 0.20 1.70 0.05 2.40 -0.45 0.60 -0.40 1.25 -0.75 1.45 -0.75 0.80 0 0.40 2.45 -0.45 2.95 -0.85 0.45 -0.85 0.50 0 0.85 1.20 0.45 1.40 0.15 1.50 -2.30 0.05 -1.45 0.35 -2.25 1 -2.55 0.60 -0.35 0.80 -0.85 0.60 -1.45 -0.25 -0.85 1.05 -3.45 1.75 -3.50 0.15 0 0.30 0.85 0.40 1.85 0.05 1 0.20 1.90 0.30 2.05 0.10 0.10 0.95 -0.20 1.80 -0.65 1.35 -0.70 1.70 -0.75 2.05 -0.15 0.60 0.90 0.55 1.10 -0.35 3.90 -0.50 1.60 -1.15 2.50 -1.85 2.75 -0.60 0.20 -1.20 0.40 -1.35 0.45 -1.80 0.80 -3.15 1.30 -3.55 1.30 -1.10 0 -0.30 0.90 1.55 1.80 2.25 1.10 2.75 2.70 0.80 2.70 -0.65 0 -1.45 -0.35 -1.80 -0.75z m1 -7 c0 -0.40 -0.20 -0.75 -0.50 -0.75 -0.25 0 -0.50 0.35 -0.50 0.75 0 0.40 0.25 0.75 0.50 0.75 0.30 0 0.50 -0.35 0.50 -0.75z"/>
  <path d="M27 29 c0.95 -0.65 1.50 -0.65 1.50 0 0 0.30 -0.50 0.50 -1.10 0.50 -0.95 0 -1 -0.10 -0.40 -0.50z"/>
  <path d="M26 17.55 c0 -0.75 1.40 -1.65 2 -1.30 0.40 0.25 0.40 0.55 -0.05 1.05 -0.65 0.75 -1.95 0.95 -1.95 0.25z"/>
 </g>
 <g fill="#a5937d">
  <path d="M14.80 37.40 c0.45 -3.55 0.70 -3.65 0.70 -0.25 0 1.65 -0.20 2.85 -0.50 2.85 -0.35 0 -0.40 -0.95 -0.20 -2.60z"/>
  <path d="M21.85 38.95 c-0.25 -1 -0.25 -1 0.70 -0.15 1.15 1 1.15 1.20 0.25 1.20 -0.35 0 -0.80 -0.45 -0.95 -1.05z"/>
  <path d="M35 33.45 c0 -0.65 -0.50 -1.65 -1.10 -2.30 -1.25 -1.30 -0.65 -1.55 1 -0.35 1.15 0.80 1.50 2.90 0.60 3.45 -0.30 0.15 -0.50 -0.20 -0.50 -0.80z"/>
  <path d="M14.55 31.60 c-0.40 -0.90 -0.55 -1.75 -0.40 -1.90 0.40 -0.45 1.45 1.75 1.25 2.70 -0.10 0.60 -0.40 0.35 -0.85 -0.80z"/>
  <path d="M9.35 26.70 c-2.25 -1.75 -3.15 -3.05 -2.55 -3.65 0.20 -0.15 0.45 0.05 0.60 0.45 0.30 0.85 2.90 3.50 4.35 4.35 0.55 0.30 0.75 0.60 0.45 0.60 -0.30 0.05 -1.55 -0.75 -2.85 -1.75z"/>
  <path d="M14.25 27 c-0.50 -0.55 -0.70 -1 -0.45 -1 0.25 0 0.85 0.45 1.35 1 0.45 0.55 0.65 1 0.40 1 -0.20 0 -0.80 -0.45 -1.30 -1z"/>
  <path d="M10.50 22.10 c0 -0.25 0.45 -0.85 1 -1.35 1 -0.90 1 -0.85 1 0.40 0 1 -0.25 1.35 -1 1.35 -0.55 0 -1 -0.20 -1 -0.40z"/>
  <path d="M7.80 20.90 c-0.50 -0.65 -0.80 -2.05 -0.75 -3.40 l0.05 -2.25 0.40 2.40 c0.25 1.35 0.70 2.75 1.05 3.15 0.30 0.40 0.45 0.85 0.30 1 -0.15 0.15 -0.60 -0.25 -1.05 -0.90z"/>
  <path d="M23.30 19.65 c-0.20 -0.50 0.05 -1.25 0.70 -1.85 l1 -1 0 1.85 c0 1.95 -1.10 2.60 -1.70 1z"/>
  <path d="M4.80 11.10 c-0.80 -0.95 -0.80 -1 0.15 -1.25 0.70 -0.15 1.10 0.05 1.35 0.75 0.25 0.85 0.40 0.90 0.80 0.35 0.40 -0.60 0.45 -0.55 0.25 0.05 -0.30 1.10 -1.55 1.15 -2.55 0.10z"/>
  <path d="M1.45 6.65 c-0.40 -0.80 -0.90 -1.55 -1.20 -1.75 -0.30 -0.25 -0.20 -0.40 0.25 -0.40 0.70 0 1.10 0.35 2.95 2.65 0.60 0.75 0.55 0.85 -0.30 0.85 -0.55 0 -1.30 -0.60 -1.70 -1.35z"/>
  <path d="M24.30 3.90 c-1.30 -1.85 -0.95 -2.85 0.45 -1.25 0.70 0.75 1.25 1.60 1.25 1.90 0 0.80 -0.90 0.50 -1.70 -0.65z"/>
  <path d="M13.15 1.95 c-0.90 -0.25 -1.65 -0.80 -1.65 -1.20 0 -1.10 0.75 -0.90 2.30 0.50 0.75 0.70 1.25 1.25 1.15 1.20 -0.10 0 -0.95 -0.25 -1.80 -0.50z"/>
 </g>
 <g fill="#62d085">
  <path d="M19.50 23.25 c0 -0.10 0.45 -0.45 1 -0.75 0.80 -0.45 1 -0.40 1 0.25 0 0.40 -0.45 0.75 -1 0.75 -0.55 0 -1 -0.10 -1 -0.25z"/>
  <path d="M19 21.50 c0 -0.25 -0.35 -0.50 -0.80 -0.50 -0.40 0 -0.60 -0.20 -0.45 -0.50 0.35 -0.55 2.40 -0.70 2.90 -0.20 0.15 0.20 0 0.65 -0.40 1 -0.80 0.80 -1.25 0.90 -1.25 0.20z"/>
 </g>
 <g fill="#dca03f">
  <path d="M19.10 30.20 c-1.20 -0.70 -2.05 -1.40 -1.95 -1.55 0.25 -0.20 4.35 2.30 4.35 2.65 0 0.30 -0.15 0.25 -2.40 -1.10z"/>
  <path d="M20.90 29.75 c-3.20 -2.35 -4.10 -3.95 -1 -1.85 0.75 0.50 2.30 1.20 3.50 1.60 1.15 0.35 2.10 0.95 2.10 1.35 0 1.20 -2.20 0.65 -4.60 -1.10z"/>
  <path d="M26.90 30.30 c-0.15 -0.80 0 -1.35 0.50 -1.55 1.05 -0.40 1.65 0.70 1.05 1.85 -0.65 1.25 -1.30 1.10 -1.55 -0.30z"/>
  <path d="M21.50 26.30 c0 -0.95 0.30 -1.85 0.65 -1.95 0.30 -0.15 -0.15 -0.30 -1 -0.30 -0.90 -0.05 -1.65 -0.25 -1.65 -0.55 0 -0.55 2.65 -2 3.75 -2 0.85 0 0.90 -0.25 0.30 -1.45 -0.55 -1 0.05 -2.25 0.95 -1.95 0.35 0.10 0.75 0.75 0.85 1.40 0.25 1.65 0.30 1.65 2.30 0.55 1.55 -0.85 1.80 -0.90 2.05 -0.20 0.55 1.35 -1.25 6.05 -2.40 6.35 -0.60 0.15 -1.15 0.30 -1.30 0.35 -0.15 0.05 -0.70 0.40 -1.25 0.75 -0.55 0.40 -1.50 0.70 -2.10 0.70 -0.95 0 -1.15 -0.25 -1.15 -1.70z m3.60 -0.65 c-0.90 -0.20 -1.15 -0.50 -0.95 -1.20 0.15 -0.65 0.05 -0.95 -0.30 -0.80 -0.35 0.10 -0.65 0.65 -0.75 1.25 -0.15 0.95 0.05 1.10 1.50 1.05 1.25 -0.05 1.35 -0.15 0.50 -0.30z m3.35 -3.65 l-0.05 -1.25 -0.40 1.25 c-0.20 0.70 -0.40 1.60 -0.45 2 -0.05 0.65 0 0.65 0.45 0 0.25 -0.40 0.45 -1.30 0.45 -2z"/>
  <path d="M12.55 25.20 c-2.35 -2.65 -2.45 -3.20 -1.05 -4.45 0.95 -0.85 1.10 -0.85 1.80 -0.15 0.70 0.70 1.05 0.70 3.75 0 2.30 -0.65 3.05 -0.70 3.55 -0.20 0.45 0.45 0.15 0.60 -1.50 0.60 -1.50 0 -2.10 0.20 -2.10 0.70 0 0.40 -0.50 0.85 -1.10 0.95 -1.05 0.20 -1 0.25 0.50 0.90 0.85 0.35 1.60 0.95 1.60 1.30 0 1.25 -1.70 0.65 -3.65 -1.20 l-1.90 -1.90 0.35 1.50 c0.15 0.85 0.80 2 1.35 2.60 0.55 0.65 0.90 1.25 0.75 1.40 -0.15 0.15 -1.20 -0.75 -2.35 -2.05z"/>
  <path d="M26.50 17.65 c0.05 -0.90 0.95 -1.75 1.45 -1.40 0.45 0.25 0.45 0.50 0 1.05 -0.60 0.75 -1.45 0.95 -1.45 0.35z"/>
 </g>
 <g fill="#f8aa29">
  <path d="M24.10 32.15 c-0.60 -0.25 -1.90 -1.25 -4.80 -3.80 l-1.55 -1.35 2 0.10 c1.10 0.10 2 0.40 2.05 0.65 0.10 1.35 0.90 2.25 2 2.25 0.95 0 1.20 0.25 1.20 1.25 0 0.70 -0.05 1.25 -0.10 1.20 -0.10 0 -0.45 -0.15 -0.80 -0.30z"/>
  <path d="M25.90 26.15 c0.85 -0.30 -0.20 -1.65 -1.25 -1.65 -0.65 0 -0.65 -0.15 -0.15 -0.75 0.40 -0.45 0.45 -0.75 0.10 -0.75 -0.30 0 -0.70 0.25 -0.85 0.50 -0.45 0.75 -1.25 0.10 -1.25 -1.05 0 -0.50 0.35 -0.95 0.75 -0.95 0.65 0 0.75 -0.35 0.50 -1.65 -0.25 -1.25 -0.10 -1.85 0.60 -2.50 0.95 -0.80 0.95 -0.80 0.85 0.80 -0.20 2.10 0.45 3.25 1.40 2.50 0.35 -0.30 1.15 -0.70 1.75 -0.85 1.40 -0.45 1.70 0.75 0.80 3.45 -0.70 2.10 -1.85 3.30 -3.10 3.20 -0.55 0 -0.60 -0.10 -0.15 -0.30z m2.30 -2.45 c0.15 -0.45 0.30 -1.40 0.30 -2.10 -0.05 -1.15 -0.15 -1.10 -0.75 0.65 -0.90 2.40 -0.85 2.25 -0.30 2.25 0.25 0 0.60 -0.35 0.75 -0.80z"/>
  <path d="M19.20 23.55 c0.50 -0.50 1.30 -1.05 1.85 -1.20 0.75 -0.20 0.95 0 0.95 0.95 0 1.05 -0.25 1.20 -1.85 1.20 -1.75 0 -1.80 -0.05 -0.95 -0.95z"/>
  <path d="M13.35 22.35 c-1.25 -1.40 -1.40 -1.45 -1.20 -0.45 0.25 1.15 -0.35 1.55 -0.80 0.45 -0.15 -0.35 0.10 -1.10 0.50 -1.60 0.70 -1 0.70 -1 1.45 0 0.40 0.55 1.20 1.50 1.70 2.15 0.60 0.65 0.75 1.10 0.35 1.05 -0.30 0 -1.25 -0.75 -2 -1.60z"/>
  <path d="M15.35 22.15 c-0.70 -0.65 -0.30 -1 1.60 -1.55 2.35 -0.75 3.70 -0.75 3.30 -0.10 -0.15 0.30 -1.10 0.50 -2 0.50 -1.30 0 -1.65 0.15 -1.45 0.75 0.30 0.75 -0.80 1.05 -1.45 0.40z"/>
  <path d="M26.50 17.65 c0 -0.25 0.20 -0.75 0.50 -1.15 0.55 -0.90 1.25 -0.35 0.85 0.75 -0.30 0.75 -1.35 1.05 -1.35 0.40z"/>
 </g>
 <g fill="#839db8">
  <path d="M23.35 19.70 c-0.35 -0.35 1.15 -3.20 1.65 -3.20 0.15 0 0.20 0.80 0.10 1.75 -0.20 1.60 -0.95 2.25 -1.75 1.45z"/>
  <path d="M17.25 13.05 c-0.30 -0.55 0.45 -1.15 0.95 -0.70 0.45 0.45 0.35 1.15 -0.15 1.15 -0.30 0 -0.60 -0.20 -0.80 -0.45z"/>
  <path d="M24.40 12.25 c-0.15 -0.70 -0.05 -1.25 0.15 -1.25 0.25 0 0.45 0.55 0.45 1.25 0 0.70 -0.10 1.25 -0.20 1.25 -0.10 0 -0.30 -0.55 -0.40 -1.25z"/>
  <path d="M18.35 11.15 c-0.20 -0.15 -0.35 -0.75 -0.35 -1.35 0 -1 0 -1 0.75 0 0.40 0.50 0.75 1.10 0.75 1.35 0 0.45 -0.70 0.45 -1.15 0z"/>
  <path d="M14.25 10.45 c-0.20 -0.30 -0.25 -0.65 -0.10 -0.80 0.35 -0.35 1.35 0.30 1.35 0.90 0 0.60 -0.85 0.60 -1.25 -0.10z"/>
  <path d="M25.30 5.25 c-0.65 -1 -0.70 -1.25 -0.10 -1.25 0.35 0 0.80 0.50 0.95 1.10 0.45 1.55 0.10 1.65 -0.85 0.15z"/>
  <path d="M15.30 3.05 c-0.50 -0.55 -1.40 -1.05 -1.95 -1.15 -1.10 -0.15 -1.90 -1.90 -0.90 -1.90 0.30 0 0.55 0.35 0.55 0.75 0 0.40 0.30 0.75 0.65 0.75 0.40 0 1.20 0.55 1.85 1.25 0.65 0.70 1.05 1.25 0.90 1.25 -0.15 0 -0.65 -0.45 -1.10 -0.95z"/>
 </g>
 <g fill="#daae67">
  <path d="M25 30.60 c0 -0.40 2.60 -2.10 3.20 -2.10 0.15 0 0.30 0.55 0.30 1.25 0 1.10 -0.20 1.25 -1.75 1.25 -0.95 0 -1.75 -0.20 -1.75 -0.40z"/>
  <path d="M23.10 27.15 c0.10 -0.60 0.80 -1 1.90 -1.20 1.65 -0.25 1.55 -0.55 -0.45 -1.05 -0.55 -0.15 -0.55 -0.35 0.10 -0.95 0.40 -0.45 0.80 -1.20 0.90 -1.70 0.25 -1.05 1.75 -2.15 2.25 -1.60 0.25 0.20 0.10 1.15 -0.25 2.15 -0.65 1.85 -0.35 3 0.45 1.70 0.35 -0.50 0.50 -0.55 0.50 -0.10 0 0.65 -1.45 2.05 -2.25 2.15 -0.25 0.05 -0.95 0.40 -1.50 0.75 -1.30 0.95 -1.85 0.90 -1.65 -0.15z"/>
  <path d="M13.20 25.90 l-1.45 -1.65 1.65 1.45 c1.50 1.40 1.85 1.80 1.45 1.80 -0.10 0 -0.80 -0.75 -1.65 -1.60z"/>
  <path d="M13.80 22.80 c-1.05 -1.30 -1.75 -2.50 -1.55 -2.70 0.20 -0.20 0.65 0.10 1.05 0.65 0.40 0.55 1.20 1.50 1.75 2.15 0.55 0.65 0.95 1.40 0.85 1.70 -0.10 0.30 -1.05 -0.55 -2.10 -1.80z"/>
  <path d="M28.95 21.90 c0.20 -1.40 0.30 -1.45 0.45 -0.45 0.10 0.65 0 1.35 -0.25 1.60 -0.30 0.30 -0.35 -0.15 -0.20 -1.15z"/>
  <path d="M15.20 21.90 c-0.15 -0.20 0.20 -0.40 0.75 -0.40 0.60 0 1.05 0.20 1.05 0.40 0 0.25 -0.35 0.45 -0.75 0.45 -0.45 0 -0.90 -0.20 -1.05 -0.45z"/>
  <path d="M7.65 20.75 c-0.45 -1.20 0.05 -1.35 0.75 -0.25 0.40 0.65 0.40 1 0.10 1 -0.30 0 -0.65 -0.35 -0.85 -0.75z"/>
  <path d="M23.65 20.05 c-0.50 -0.80 -0.40 -1.10 0.40 -1.85 0.90 -0.85 0.95 -0.80 0.95 0.95 0 2.05 -0.45 2.35 -1.35 0.90z"/>
  <path d="M5.10 11.20 c-1.35 -0.95 -1.40 -1.70 -0.15 -1.70 0.55 0 1.15 0.45 1.30 1.05 0.45 1.40 0.15 1.55 -1.15 0.65z"/>
 </g>
 <g fill="#fcbf48">
  <path d="M21.05 29.70 c-1.95 -1.50 -3.55 -2.85 -3.55 -3 0 -0.10 0.80 -0.20 1.75 -0.20 1.35 0 1.75 0.20 1.75 0.90 0 0.55 0.55 1.20 1.25 1.50 0.70 0.30 1.25 0.80 1.25 1.10 0 0.25 0.70 0.50 1.50 0.50 1.15 0 1.50 0.20 1.50 1 0 1.70 -1.70 1.15 -5.45 -1.80z"/>
  <path d="M26.55 24.90 c0 -0.90 0.35 -2.45 0.70 -3.40 0.85 -2.15 1 -0.95 0.15 1.35 -0.60 1.70 -0.20 2.90 0.60 1.65 0.40 -0.65 0.50 -0.60 0.50 0.10 0 0.50 -0.45 1.10 -1 1.40 -0.90 0.50 -1 0.40 -0.95 -1.10z"/>
  <path d="M13.60 22.50 c-1.20 -1.45 -1.45 -2 -0.90 -2 0.45 0 0.80 0.20 0.80 0.40 0 0.25 0.70 1.15 1.55 2 0.90 0.90 1.30 1.60 0.90 1.60 -0.40 0 -1.45 -0.90 -2.35 -2z"/>
  <path d="M22.50 23.05 c0 -1.40 0.15 -1.65 0.95 -1.40 0.70 0.15 0.90 0.05 0.70 -0.50 -0.20 -0.55 0 -0.70 0.65 -0.55 0.70 0.10 1 0.65 1.10 2.05 0.15 1.65 0.05 1.85 -0.95 1.85 -0.90 0 -1 -0.15 -0.55 -0.60 1.20 -1.20 0.60 -1.55 -0.65 -0.40 l-1.25 1.15 0 -1.60z"/>
  <path d="M29 21.35 c0.20 -2.05 0.25 -2.05 0.40 -0.40 0.10 0.90 0 1.85 -0.25 2.10 -0.25 0.25 -0.30 -0.55 -0.15 -1.70z"/>
 </g>
 <g fill="#c8b195">
  <path d="M14.55 39.50 c0 -0.40 0.20 -1.20 0.45 -1.75 l0.45 -1 0 1 c0 0.55 -0.20 1.35 -0.45 1.75 -0.45 0.65 -0.50 0.65 -0.45 0z"/>
  <path d="M22 39.20 c0 -0.70 0.15 -0.70 0.75 -0.20 0.40 0.35 0.75 0.70 0.75 0.80 0 0.10 -0.35 0.20 -0.75 0.20 -0.40 0 -0.75 -0.35 -0.75 -0.80z"/>
  <path d="M15.10 34.40 c-0.05 -1 -0.35 -2.45 -0.60 -3.20 -0.30 -0.75 -0.40 -1.45 -0.30 -1.60 0.55 -0.50 1.35 2.70 1.15 4.60 l-0.20 2.05 -0.05 -1.85z"/>
  <path d="M35 32.80 c0 -0.35 -0.35 -0.95 -0.75 -1.30 -1.25 -1.05 -0.85 -1.60 0.50 -0.70 1.20 0.80 1.75 2.70 0.75 2.70 -0.25 0 -0.50 -0.30 -0.50 -0.70z"/>
  <path d="M24.50 30.80 c0 -0.35 0.40 -0.80 0.90 -0.95 0.45 -0.10 1.25 -0.40 1.75 -0.60 0.70 -0.30 0.85 -0.10 0.85 0.95 0 1.15 -0.20 1.30 -1.75 1.30 -1.15 0 -1.75 -0.25 -1.75 -0.70z"/>
  <path d="M9.40 26.75 c-2.25 -1.55 -3.70 -3.75 -2.40 -3.75 0.30 0 0.50 0.30 0.50 0.70 0 0.40 0.95 1.55 2.10 2.50 2.45 2.10 2.35 2.30 -0.20 0.55z"/>
  <path d="M7.50 20.20 c-0.30 -0.70 -0.45 -1.85 -0.45 -2.60 0.05 -1.20 0.10 -1.10 0.45 0.40 0.20 0.95 0.55 2.15 0.75 2.65 0.20 0.45 0.20 0.85 0.05 0.85 -0.20 0 -0.55 -0.60 -0.80 -1.30z"/>
  <path d="M23.50 19.30 c0 -0.35 0.30 -0.90 0.65 -1.20 0.50 -0.40 0.65 -0.25 0.75 0.70 0.05 0.75 -0.15 1.20 -0.65 1.20 -0.40 0 -0.75 -0.30 -0.75 -0.70z"/>
  <path d="M4.95 10.90 c-1.55 -1.50 -3.70 -4.40 -4.15 -5.65 -0.20 -0.55 0.85 0.15 2.40 1.75 2.60 2.50 3.70 4.25 3.15 4.80 -0.10 0.10 -0.75 -0.30 -1.40 -0.90z"/>
  <path d="M24.95 4.65 c-2 -2.40 -2.10 -2.65 -1.30 -2.65 0.80 0 2.50 2.30 2.25 3.05 -0.10 0.30 -0.50 0.10 -0.95 -0.40z"/>
  <path d="M11.15 1.15 c-1 -0.40 -0.75 -1.15 0.35 -1.15 0.55 0 1 0.35 1 0.75 0 0.75 -0.30 0.85 -1.35 0.40z"/>
 </g>
 <g fill="#fccd76">
  <path d="M24.45 32.10 c-1.60 -0.70 -3.45 -2.55 -3.45 -3.40 0 -0.70 -0.15 -0.75 -0.40 -0.30 -0.50 0.75 -4.30 -2.40 -6.20 -5.05 l-1.15 -1.60 1.45 1.15 c1.85 1.40 3.20 1.40 5.85 -0.15 1.20 -0.70 2.50 -1.25 2.85 -1.25 0.70 0 0.80 1.80 0.10 2.25 -0.25 0.15 -0.50 0.85 -0.50 1.45 0 1 0.20 1.10 1.40 0.90 1.35 -0.25 1.35 -0.25 0.40 0.85 -0.55 0.55 -1.55 1.05 -2.25 1.05 l-1.30 0 1.25 1 c0.70 0.55 2.20 1.10 3.40 1.30 2.30 0.35 2.65 0.85 1.15 1.70 -1.10 0.55 -1.45 0.60 -2.60 0.10z"/>
  <path d="M26.30 25.75 c0.25 -0.55 -0.05 -0.75 -1 -0.75 -1.35 0 -1.65 -0.45 -0.80 -1.30 0.35 -0.35 0.30 -1.10 -0.25 -2.35 -0.95 -2.30 -0.95 -2.85 0 -2.85 0.40 0 0.75 0.30 0.75 0.65 0 0.30 0.20 0.90 0.45 1.30 0.40 0.60 0.60 0.65 1.25 0.05 1.20 -0.95 1.60 -0.20 0.90 1.65 -0.80 2.25 -0.75 2.85 0.30 2.85 0.75 0.05 0.75 0.10 -0.10 0.75 -1.25 0.95 -1.85 0.95 -1.50 0z"/>
 </g>
 <g fill="#ddc5a7">
  <path d="M15.10 33.50 c0 -0.95 0.10 -1.35 0.25 -0.85 0.10 0.45 0.10 1.25 0 1.75 -0.15 0.45 -0.25 0.05 -0.25 -0.90z"/>
  <path d="M35 32.25 c0 -0.35 -0.40 -0.90 -0.85 -1.20 -0.50 -0.25 -0.75 -0.60 -0.60 -0.75 0.35 -0.35 2.45 1.55 2.45 2.20 0 0.30 -0.20 0.50 -0.50 0.50 -0.25 0 -0.50 -0.35 -0.50 -0.75z"/>
  <path d="M26.60 30.65 c0.20 -1.60 1.90 -2.30 1.90 -0.80 0 1 -0.90 2.15 -1.65 2.15 -0.20 0 -0.35 -0.60 -0.25 -1.35z"/>
  <path d="M7.20 24.80 c-0.45 -0.75 -0.70 -1.45 -0.60 -1.60 0.15 -0.10 0.65 0.35 1.10 1.10 0.50 0.70 0.75 1.40 0.65 1.55 -0.15 0.10 -0.65 -0.35 -1.15 -1.05z"/>
  <path d="M25.50 21.50 c0 -0.45 2.05 -1.60 2.35 -1.30 0.60 0.55 -0.35 1.75 -1.30 1.65 -0.60 -0.05 -1.05 -0.20 -1.05 -0.35z"/>
  <path d="M23.65 19.75 c-0.15 -0.45 -0.15 -0.90 0 -1.05 0.45 -0.45 1.35 0.30 1.35 1.10 0 0.95 -0.95 0.90 -1.35 -0.05z"/>
  <path d="M0.95 5.40 c-0.60 -1.15 -0.60 -1.15 0.50 -0.20 1.15 1.05 1.30 1.30 0.55 1.30 -0.25 0 -0.75 -0.50 -1.05 -1.10z"/>
  <path d="M22.80 2 c-0.75 -0.85 -1.25 -1.70 -1.10 -1.90 0.50 -0.45 2.95 2.20 2.70 2.90 -0.10 0.30 -0.75 -0.10 -1.60 -1z"/>
  <path d="M11.45 1 l-1.20 -0.95 1.30 -0.05 c0.90 0 1.40 0.30 1.60 1 0.35 1.25 -0.20 1.25 -1.70 0z"/>
 </g>
 <g fill="#fcdea1">
  <path d="M23.15 31.15 c-1.10 -0.80 -2.80 -2.10 -3.70 -2.95 -1.75 -1.60 -5.80 -5.95 -4.45 -4.80 1.10 0.95 3.30 0.70 6.05 -0.65 2.10 -1.10 2.50 -1.15 2.75 -0.50 0.20 0.40 0 1.10 -0.35 1.55 -0.35 0.45 -0.70 1.25 -0.80 1.80 -0.15 0.85 0.05 0.95 1.45 0.65 l1.65 -0.35 -0.95 1.05 c-0.55 0.55 -1.55 1.05 -2.25 1.05 l-1.30 0.05 1.15 0.95 c0.65 0.55 1.95 1.10 2.90 1.30 1.75 0.30 2.30 1.35 0.90 1.90 -1.05 0.40 -0.80 0.50 -3.05 -1.05z m-2.30 -5.40 c0.40 -1.15 -0.05 -1.35 -1.50 -0.60 -1.40 0.75 -1.30 1.35 0.25 1.35 0.50 0 1.05 -0.35 1.25 -0.75z"/>
  <path d="M24 24.75 c0 -0.15 0.25 -0.65 0.55 -1.15 0.45 -0.70 0.40 -1.25 -0.25 -2.50 -1 -1.90 -1 -2.10 -0.10 -2.10 0.35 0 0.80 0.45 0.95 1 0.20 0.85 0.50 1 1.65 0.70 1.15 -0.30 1.30 -0.20 1.05 0.50 -0.20 0.50 -0.35 1 -0.35 1.15 0 0.15 -0.35 0 -0.75 -0.35 -0.60 -0.50 -0.75 -0.50 -0.75 0.20 0 0.45 0.25 0.80 0.50 0.80 0.30 0 0.50 0.45 0.50 1 0 0.80 -0.35 1 -1.50 1 -0.80 0 -1.50 -0.10 -1.50 -0.25z"/>
  <path d="M4.85 10.60 c-1.50 -1.55 -1.95 -3.75 -0.55 -2.55 0.85 0.70 2.40 3.45 2.10 3.75 -0.15 0.10 -0.85 -0.45 -1.55 -1.20z"/>
  <path d="M24.50 4.05 c-0.80 -1.15 -0.90 -1.55 -0.35 -1.55 0.65 0 2.10 2.40 1.65 2.85 -0.10 0.10 -0.70 -0.50 -1.30 -1.30z"/>
  <path d="M11.65 1.15 c-0.85 -0.30 -0.80 -1.15 0.05 -1.15 0.40 0 0.80 0.35 1 0.75 0.30 0.75 0.05 0.85 -1.05 0.40z"/>
 </g>
 <g fill="#faedc1">
  <path d="M35 32.85 c0 -0.65 -0.30 -1.45 -0.60 -1.85 -0.35 -0.40 -0.15 -0.30 0.50 0.20 1.10 0.95 1.50 2.80 0.60 2.80 -0.25 0 -0.50 -0.50 -0.50 -1.15z"/>
  <path d="M25 32.10 c-1.20 -0.40 -5.60 -3.85 -7.75 -6.05 l-1.95 -2.05 1.55 0 c0.85 0 2.50 -0.45 3.70 -1 1.20 -0.55 2.50 -1 2.85 -1 0.85 0 0.75 1.35 -0.15 1.70 -0.45 0.15 -0.75 0.90 -0.75 1.80 0 1.40 0.10 1.50 1.05 1 1.30 -0.75 1.90 -0.20 0.85 0.80 -0.50 0.50 -1.20 0.65 -2.10 0.40 -1.20 -0.30 -1.30 -0.50 -1 -2 0.15 -0.95 0.20 -1.70 0.10 -1.70 -0.10 0 -1.05 0.40 -2.05 0.90 l-1.85 0.90 1.45 1.10 c0.85 0.60 1.75 1.10 2.05 1.10 0.25 0 0.50 0.20 0.50 0.40 0 0.60 2.30 1.60 3.55 1.60 0.50 0 1.40 -0.25 1.95 -0.60 1.25 -0.80 1.80 -0.20 1.10 1.30 -0.55 1.20 -1.85 1.80 -3.10 1.40z"/>
  <path d="M24.60 24.05 c0.45 -0.70 0.40 -1.35 -0.25 -3 -0.45 -1.10 -0.60 -2.05 -0.35 -2.05 0.45 0 3 4.70 3 5.60 0 0.20 -0.70 0.40 -1.50 0.40 -1.35 0 -1.45 -0.10 -0.90 -0.95z"/>
  <path d="M4.15 9.85 c-3.25 -3.45 -4.35 -6.20 -1.35 -3.30 1.75 1.65 3.50 4.35 3.10 4.75 -0.15 0.10 -0.90 -0.55 -1.75 -1.45z"/>
  <path d="M23.55 2.75 c-1.15 -1.50 -2 -2.75 -1.85 -2.75 0.65 0 2.95 2.35 3.65 3.65 1.20 2.35 0.50 2 -1.80 -0.90z"/>
  <path d="M11.20 0.75 c-0.95 -0.70 -0.90 -0.70 0.20 -0.75 0.65 0 1.10 0.30 1.10 0.75 0 0.95 -0.05 0.95 -1.30 0z"/>
 </g>
 <g fill="#fefde8">
  <path d="M22.60 30.45 c-1.85 -1.35 -2.80 -2.40 -1.70 -1.80 3.45 1.80 4.15 1.95 5.45 1.10 1.70 -1.15 2.75 -0.25 1.40 1.25 -1.25 1.40 -2.70 1.25 -5.15 -0.55z"/>
  <path d="M23.70 26.75 c1.05 -0.80 1.60 -0.65 1.05 0.20 -0.15 0.30 -0.70 0.55 -1.15 0.55 -0.75 -0.05 -0.75 -0.10 0.10 -0.75z"/>
  <path d="M17.05 24.80 c0.10 -0.10 1.10 -0.55 2.20 -1 l2 -0.80 -1.20 1 c-0.65 0.55 -1.60 1 -2.20 1 -0.55 0 -0.90 -0.10 -0.80 -0.20z"/>
  <path d="M24.50 24.60 c0 -0.20 0.20 -0.60 0.50 -0.90 0.30 -0.30 0.20 -1 -0.30 -1.95 -0.40 -0.80 -0.65 -1.80 -0.55 -2.20 0.15 -0.75 2.85 4.05 2.85 5.05 0 0.20 -0.55 0.40 -1.25 0.40 -0.70 0 -1.25 -0.20 -1.25 -0.40z"/>
  <path d="M2.30 7.35 c-2.35 -3.05 -1.30 -2.65 1.40 0.55 0.55 0.60 0.70 1.10 0.40 1.10 -0.30 0 -1.10 -0.75 -1.80 -1.65z"/>
  <path d="M23.75 2.95 c-1.45 -1.75 -1.30 -2.60 0.20 -1.25 0.80 0.75 1.75 2.80 1.30 2.80 -0.10 0 -0.75 -0.70 -1.50 -1.55z"/>
 </g>
</svg>