<?xml version="1.0" encoding="utf-8"?>
<!DOCTYPE svg PUBLIC "-//W3C//DTD SVG 1.0//EN" "http://www.w3.org/TR/2001/REC-SVG-20010904/DTD/svg10.dtd">
<svg version="1.0" xmlns="http://www.w3.org/2000/svg" width="40px" height="40px" viewBox="0 0 40 40" preserveAspectRatio="xMidYMid meet">
 <g fill="#06070e">
  <path d="M5.50 38.75 c0 -1.10 0.20 -1.25 2 -1.25 1.80 0 2 0.15 2 1.25 0 1.15 -0.20 1.25 -2 1.25 -1.80 0 -2 -0.10 -2 -1.25z"/>
  <path d="M19.30 38 c-0.25 -1.70 -0.50 -2 -1.55 -2 -1 0 -1.25 -0.25 -1.25 -1.25 0 -0.90 -0.25 -1.25 -0.95 -1.25 -0.50 0 -1.75 -0.35 -2.75 -0.75 -2 -0.85 -5.70 -0.55 -6.55 0.50 -0.70 0.85 -6.25 1.55 -6.25 0.85 0 -0.30 1.25 -1.75 2.80 -3.20 2.90 -2.75 5.75 -4.05 8.45 -3.80 1.25 0.15 1.60 -0.10 2.25 -1.45 1 -2.20 2 -2.10 2 0.10 0 1.50 0.15 1.75 1.20 1.75 0.65 0 2.55 -0.90 4.20 -2 1.65 -1.10 3.40 -2 3.90 -2 0.55 0 1.35 -0.70 1.80 -1.50 0.70 -1.25 1.20 -1.50 2.75 -1.55 1.15 -0.05 1.45 -0.15 0.80 -0.30 -0.65 -0.10 -1.15 -0.40 -1.15 -0.65 0 -0.25 -0.80 -0.20 -1.80 0.10 -1.75 0.45 -6 0.15 -7 -0.50 -0.30 -0.20 -0.65 -0.75 -0.85 -1.20 -0.40 -1.05 -3.65 -1.25 -4 -0.25 -0.10 0.30 -0.10 1.80 0.05 3.25 0.20 2.05 0.10 2.60 -0.50 2.60 -1.50 0 -2.45 -6.95 -1.10 -7.95 1.15 -0.80 2.10 -3.55 2.10 -5.95 0.05 -3.70 3.30 -9.60 5.30 -9.60 1 0 1.05 0.80 0.10 1.15 -0.90 0.35 -3.10 4.10 -3.55 6 l-0.35 1.35 2.60 -1.75 c1.45 -0.95 3 -1.75 3.45 -1.75 0.45 0 1.95 -1.15 3.30 -2.50 1.35 -1.40 2.75 -2.50 3.10 -2.50 1.20 0 0.65 1.80 -0.95 3.45 l-1.65 1.70 1.25 0.80 c1.95 1.25 3.50 3.10 3.50 4.10 0 1.60 1.65 1.10 4.90 -1.55 l3.10 -2.50 0 1.40 c0 1.15 -0.55 1.75 -3.20 3.50 -2.60 1.70 -3.15 2.30 -3.20 3.45 -0.10 3.35 -0.95 7.05 -1.90 8.30 -0.60 0.70 -2.05 2.05 -3.25 2.95 -2 1.55 -2.25 1.95 -2.55 4.35 -0.40 3.25 0.15 5.20 2.10 7.60 0.80 1.05 1.50 2 1.50 2.15 0 0.15 -2.20 0.30 -4.95 0.30 l-4.90 0 -0.35 -2z m9 -25.65 c0.05 -0.05 0.20 -0.85 0.35 -1.70 0.25 -1.25 0.10 -1.75 -0.60 -2.10 -1 -0.55 -2.05 0.30 -3.85 3.15 l-0.90 1.45 2.45 -0.35 c1.40 -0.25 2.50 -0.45 2.55 -0.45z"/>
 </g>
 <g fill="#0d1629">
  <path d="M6 39.50 c0 -0.25 -0.85 -0.50 -1.90 -0.50 -1.25 0 -2.25 -0.35 -2.70 -0.85 -0.90 -1.05 -1.55 -5.15 -0.80 -5.15 0.25 0 1.45 -0.95 2.55 -2.15 2.50 -2.55 4.15 -3.35 6.95 -3.35 1.25 0 2.45 -0.35 3 -0.85 0.85 -0.75 0.90 -0.70 0.90 0.80 0 1.15 -0.15 1.50 -0.60 1.20 -1.10 -0.65 -2.10 -0.65 -5.05 0.20 -2.70 0.75 -4.35 2.05 -4.35 3.40 0 0.25 0.25 0.10 0.55 -0.35 0.25 -0.50 1.10 -0.90 1.85 -0.90 0.75 0 2.25 -0.45 3.40 -0.95 1.85 -0.85 2.10 -0.85 2.55 -0.10 0.50 0.80 4.05 2.35 4.45 1.90 0.15 -0.10 0.35 -0.85 0.50 -1.65 0.20 -1.15 0.15 -1.35 -0.35 -0.80 -0.35 0.30 -0.95 0.60 -1.30 0.60 -1.10 0 0.25 -2.15 1.90 -3 0.80 -0.40 3.75 -2.30 6.55 -4.25 5.10 -3.50 5.10 -3.50 3.40 -3.65 -2 -0.20 -3.30 -1.10 -1.60 -1.10 0.60 0 1.10 -0.20 1.10 -0.50 0 -0.25 -0.45 -0.50 -1 -0.50 -0.55 0 -1 -0.20 -1 -0.45 0 -0.55 3.90 -1.55 5.95 -1.55 0.80 0 1.55 -0.30 1.70 -0.60 0.60 -1.70 0.80 0.30 0.40 3.65 l-0.45 3.70 -3.20 2.85 c-3.40 3.10 -4.40 3.65 -3.10 1.65 0.75 -1.15 0.75 -1.25 0 -1.25 -1.75 0 -8.60 5.10 -8.05 6 0.20 0.30 0.60 0.20 1.10 -0.30 0.75 -0.75 0.90 -0.75 1.50 0.10 0.85 1.15 0.80 1.45 -0.10 2.40 -1.15 1.10 -0.25 2.75 2.55 4.80 l2.45 1.75 -1.95 0.15 c-1.20 0.10 -2.10 -0.10 -2.35 -0.50 -0.35 -0.50 -0.45 -0.50 -0.45 0 0 0.40 -0.85 0.60 -2.50 0.60 -2.15 0 -2.75 -0.20 -4 -1.50 -0.85 -0.85 -1.50 -1.70 -1.50 -1.95 0 -0.25 -1.05 -0.30 -2.30 -0.15 l-2.30 0.25 0.20 -2.10 c0.10 -1.25 -0.05 -2.05 -0.35 -2.05 -0.35 0 -0.45 0.70 -0.35 1.75 0.15 1.10 -0.10 2.25 -0.60 3 -0.80 1.20 -0.80 1.25 0.45 1.25 0.80 0 1.25 0.30 1.25 0.75 0 0.50 -0.50 0.75 -1.50 0.75 -0.80 0 -1.50 -0.20 -1.50 -0.50z m1.85 -0.35 c-0.20 -0.15 -0.50 -0.15 -0.70 0 -0.15 0.20 0 0.35 0.35 0.35 0.35 0 0.50 -0.15 0.35 -0.35z m11.15 -4.85 c0 -0.15 -0.20 -0.40 -0.50 -0.55 -0.25 -0.15 -0.50 -0.05 -0.50 0.20 0 0.30 0.25 0.55 0.50 0.55 0.30 0 0.50 -0.10 0.50 -0.20z m0.85 -2.15 c-0.20 -0.15 -0.35 0 -0.35 0.35 0 0.35 0.15 0.50 0.35 0.35 0.15 -0.20 0.15 -0.50 0 -0.70z m9.40 -8.65 c0.90 -1 0.75 -1.90 -0.20 -1.25 -0.75 0.45 -1.65 2.25 -1.15 2.25 0.25 0 0.85 -0.45 1.35 -1z m2 -6.45 c-0.45 -0.80 -1.25 -0.15 -0.90 0.75 0.20 0.50 0.45 0.60 0.75 0.30 0.30 -0.30 0.35 -0.75 0.15 -1.05z"/>
  <path d="M25.75 38.65 c-0.20 -0.80 -0.50 -1.80 -0.80 -2.25 -0.70 -1.35 -0.55 -2.90 0.30 -2.90 0.40 0 0.75 0.40 0.75 0.90 0 0.45 0.55 1.70 1.25 2.70 1.55 2.30 1.55 2.90 0 2.90 -0.95 0 -1.30 -0.30 -1.50 -1.35z m1.25 0.15 c0 -0.15 -0.25 -0.40 -0.60 -0.60 -0.35 -0.20 -0.40 -0.15 -0.20 0.20 0.35 0.60 0.80 0.80 0.80 0.40z"/>
  <path d="M22.05 30.90 c-0.05 -0.50 -0.30 -0.90 -0.65 -0.90 -0.40 0 -0.35 -0.30 0.20 -0.80 1.25 -1.25 1.90 -0.65 1.15 1.05 -0.45 0.95 -0.70 1.20 -0.70 0.65z"/>
  <path d="M24.50 30 c0 -0.35 0.15 -0.50 0.35 -0.35 0.15 0.20 0.15 0.50 0 0.70 -0.20 0.15 -0.35 0 -0.35 -0.35z"/>
  <path d="M18.50 18.25 c0 -0.40 -0.45 -0.75 -1 -0.75 -0.55 0 -1 -0.35 -1 -0.75 0 -0.40 -0.20 -0.75 -0.50 -0.75 -0.25 0 -0.50 -0.60 -0.45 -1.35 l0 -1.40 0.55 1.25 0.55 1.25 0.35 -1.25 c0.25 -0.70 0.40 -2.05 0.40 -3 0 -1.55 -0.05 -1.60 -0.35 -0.50 -0.35 1.25 -0.35 1.25 -0.65 -0.30 -0.50 -2.35 0.55 -6.20 1.65 -6.20 0.25 0 0.10 0.80 -0.30 1.80 -0.85 2.10 -1.05 4.05 -0.25 2.65 0.25 -0.45 1.20 -1.10 2.10 -1.50 0.90 -0.35 2 -1.05 2.50 -1.55 0.50 -0.50 1.35 -0.90 1.85 -0.90 0.55 0 1.15 -0.25 1.30 -0.50 0.35 -0.60 1.75 -0.70 1.75 -0.10 -0.05 0.20 -1.30 1.35 -2.80 2.60 -2.85 2.35 -5.70 6.20 -5.70 7.70 0 1.55 1.15 0.55 3.10 -2.75 1.90 -3.15 4.45 -5.95 5.40 -5.95 0.30 0 0.50 0.55 0.50 1.25 0 0.90 -0.25 1.25 -1 1.25 -0.65 0 -1 0.35 -1 1 0 0.65 -0.35 1 -1 1 -0.80 0 -1 0.35 -1 1.50 0 1.15 -0.20 1.50 -1 1.50 -1.25 0 -1.30 0.85 -0.10 1.15 0.65 0.20 0.60 0.25 -0.25 0.30 -0.60 0 -1.20 0.25 -1.40 0.50 -0.35 0.65 1.50 1.20 2.75 0.80 0.55 -0.20 1 -0.10 1 0.20 0 0.30 -0.45 0.55 -0.95 0.55 -0.55 0 -1.15 0.25 -1.30 0.50 -0.20 0.30 0.25 0.50 1 0.50 0.75 0 1.20 0.20 1 0.50 -0.15 0.30 -1.55 0.50 -3.05 0.50 -2.05 0 -2.70 -0.20 -2.70 -0.75z m3 -1 c0 -0.15 -0.10 -0.25 -0.25 -0.25 -0.15 0 -0.25 0.10 -0.25 0.25 0 0.15 0.10 0.25 0.25 0.25 0.15 0 0.25 -0.10 0.25 -0.25z"/>
  <path d="M25.35 13.55 c0.15 -0.60 0.70 -1.05 1.20 -1.05 0.75 0 0.95 -0.35 0.95 -1.60 0 -3.75 1.35 -5 3.15 -3 1.10 1.20 1.10 2.55 0 3.40 -1.40 1 -0.50 1.30 1.50 0.45 2.15 -0.90 2.85 -0.95 2.85 -0.20 0 0.80 -3.95 2.30 -7.10 2.70 -2.70 0.30 -2.80 0.25 -2.55 -0.70z"/>
 </g>
 <g fill="#1d293d">
  <path d="M0 36.55 c0 -3.20 0.10 -3.45 1.20 -3.75 0.65 -0.15 1.65 -1.05 2.20 -2.05 1.25 -2 3.85 -3.25 6.80 -3.20 1.10 0 1.85 0.10 1.55 0.20 -0.25 0.05 -1.80 0.55 -3.40 1 -4.10 1.20 -5.30 3.35 -3.65 6.50 0.65 1.25 0.75 1.25 1.20 0.40 0.40 -0.65 0.35 -1.10 -0.25 -1.75 -1.05 -1.20 -0.40 -2.90 1.10 -2.90 0.70 0 2.05 -0.40 3.05 -0.85 1.45 -0.70 1.90 -0.75 2.10 -0.25 0.30 0.90 3.65 2.20 4.85 1.90 0.55 -0.15 1.30 -0.10 1.60 0.10 0.80 0.50 1.95 3.35 2.40 6 0.25 1.65 0.20 2.10 -0.40 2.10 -0.50 0 -0.85 -0.85 -1.10 -2.85 -0.50 -3.90 -0.65 -4.30 -2.10 -3.90 -0.70 0.15 -1.65 -0.05 -2.30 -0.50 -1.60 -1.15 -2.55 -0.90 -3.85 0.90 -0.60 0.85 -0.85 1.30 -0.45 1 0.35 -0.35 1.25 -0.65 2.05 -0.65 1 0 1.55 0.40 2.15 1.50 0.45 0.85 1 1.50 1.25 1.50 0.25 0 0.80 0.70 1.25 1.50 l0.80 1.50 -5 0 c-3.50 0 -5.05 -0.20 -5.25 -0.60 -0.25 -0.50 -0.35 -0.50 -0.60 0 -0.20 0.40 -1.45 0.60 -3.75 0.60 l-3.45 0 0 -3.45z m4.35 0.35 c-0.45 -0.35 -1.10 -1.30 -1.40 -2.15 -0.60 -1.45 -0.65 -1.45 -0.85 -0.35 -0.20 1.30 1.15 3.10 2.30 3.10 0.70 0 0.70 -0.10 -0.05 -0.60z"/>
  <path d="M22.15 38.50 c-0.65 -1.70 0 -2.05 0.85 -0.50 0.30 0.55 0.85 1 1.25 1 0.40 0 0.75 0.25 0.75 0.50 0 0.30 -0.50 0.50 -1.15 0.50 -0.80 0 -1.30 -0.45 -1.70 -1.50z"/>
  <path d="M26.75 39.50 c0.20 -0.30 0.05 -0.85 -0.25 -1.25 -0.95 -1.15 0.65 -0.95 1.65 0.15 1.15 1.25 1.05 1.60 -0.45 1.60 -0.75 0 -1.15 -0.20 -0.95 -0.50z"/>
  <path d="M15 29.75 c0 -0.15 0.10 -0.25 0.25 -0.25 0.15 0 0.25 0.10 0.25 0.25 0 0.15 -0.10 0.25 -0.25 0.25 -0.15 0 -0.25 -0.10 -0.25 -0.25z"/>
  <path d="M16.50 28.25 c0 -1 0.35 -1.25 1.75 -1.55 1 -0.15 1.75 -0.60 1.75 -1 0 -0.40 0.45 -0.70 1 -0.70 0.55 0 1 -0.35 1 -0.75 0 -0.45 0.60 -0.90 1.50 -1.05 0.85 -0.20 1.50 -0.60 1.50 -0.95 0 -0.35 0.75 -1.10 1.65 -1.70 l1.60 -1.05 -1.35 0 c-2.10 0 -1.70 -1.25 0.65 -2 2.30 -0.80 2.95 -0.35 2.95 2.05 0 1.10 -0.65 1.75 -3.60 3.75 -2 1.30 -4.50 3.05 -5.50 3.85 -1.05 0.75 -2.55 1.60 -3.40 1.85 -1.35 0.40 -1.50 0.35 -1.50 -0.75z"/>
  <path d="M12.70 27.95 c-0.15 -0.30 -0.05 -0.80 0.25 -1.10 0.40 -0.40 0.55 -0.25 0.55 0.55 0 1.20 -0.25 1.40 -0.80 0.55z"/>
  <path d="M29.15 23.70 c2.45 -2.45 2.75 -3 2.50 -4.25 -0.20 -1.15 -0.10 -1.45 0.60 -1.45 0.75 0 0.85 0.30 0.60 1.90 -0.25 1.40 -0.90 2.40 -2.90 4.25 -3.65 3.25 -4.20 2.95 -0.80 -0.45z"/>
  <path d="M19 18.25 c0 -0.50 -0.55 -0.75 -1.75 -0.75 -1.75 0 -1.75 0 -1.70 -2.10 0 -1.95 0.05 -2.05 0.50 -0.90 0.75 1.80 1.45 0.40 1.45 -2.85 0 -2.25 0.20 -2.80 1.55 -4.05 0.90 -0.85 2.50 -1.80 3.65 -2.15 1.15 -0.35 2.50 -1.05 3.10 -1.55 1.25 -1.10 2.20 -1.15 2.20 -0.15 0 0.45 -0.60 1 -1.35 1.30 -0.75 0.30 -1.50 0.65 -1.65 0.85 -0.15 0.20 -1.05 1 -2 1.80 -1.75 1.45 -1.95 1.70 -3.85 5.20 -1.40 2.50 -1.45 3.10 -0.25 3.05 0.55 0 1.40 -1.10 2.35 -3 1.60 -3.30 4.80 -6.95 6.05 -6.95 1.15 0 3.60 1.85 3.95 3.05 0.25 0.70 0 1.40 -0.80 2.25 -1.30 1.40 -0.80 1.50 1.70 0.45 2.20 -0.90 2.35 -0.90 2.35 -0.10 0 0.80 -4.15 2.15 -9 2.90 -5.25 0.80 -5.45 0.85 -4.30 1.75 0.70 0.50 0.80 0.70 0.25 0.70 -1.25 0 0.65 1 2.05 1.05 l1.25 0.05 -1.25 0.40 c-2.20 0.70 -4.50 0.60 -4.50 -0.25z m1.50 -1 c0 -0.15 -0.10 -0.25 -0.25 -0.25 -0.15 0 -0.25 0.10 -0.25 0.25 0 0.15 0.10 0.25 0.25 0.25 0.15 0 0.25 -0.10 0.25 -0.25z m4.35 -6.85 c-0.15 -0.40 -0.30 -0.25 -0.30 0.30 -0.05 0.55 0.10 0.85 0.25 0.65 0.15 -0.15 0.20 -0.60 0.05 -0.95z m5.35 -0.35 c0.75 -0.85 0.75 -0.95 0.05 -1.25 -0.45 -0.15 -0.65 -0.10 -0.50 0.15 0.15 0.25 0.05 0.60 -0.25 0.80 -0.45 0.30 -0.70 1.25 -0.35 1.25 0.10 0 0.60 -0.40 1.05 -0.95z"/>
  <path d="M32 16.70 c0 -0.85 -0.90 -0.80 -6.95 0.10 -1.35 0.20 -2.05 0.15 -1.90 -0.15 0.35 -0.55 4.40 -1.25 7.50 -1.35 1.10 -0.05 1.85 -0.30 1.85 -0.65 0 -0.35 0.25 -0.65 0.50 -0.65 0.55 0 0.60 0.75 0.20 2.40 -0.35 1.25 -1.20 1.50 -1.20 0.30z"/>
  <path d="M16.50 11 c0 -0.35 0.15 -0.50 0.35 -0.35 0.15 0.20 0.15 0.50 0 0.70 -0.20 0.15 -0.35 0 -0.35 -0.35z"/>
  <path d="M16.50 7.60 c0.35 -2.15 0.85 -3.10 1.50 -3.10 0.40 0 -1 4.15 -1.60 4.75 -0.15 0.15 -0.10 -0.60 0.10 -1.65z"/>
 </g>
 <g fill="#372f24">
  <path d="M26.65 38.30 c-1.85 -1.95 -2.40 -4.30 -2 -7.95 0.30 -2.40 0.60 -2.80 3.80 -5.85 l3.45 -3.25 -0.15 -3.20 c-0.05 -1.95 0.05 -2.90 0.30 -2.50 0.30 0.50 0.45 0.40 0.45 -0.40 0 -0.65 0.25 -1.15 0.55 -1.15 0.50 0 0.40 1.50 -0.35 6.35 -0.15 1.20 -1.05 2.30 -3.40 4.35 -2.95 2.65 -3.20 2.95 -3.45 5.45 -0.40 3.30 0.20 5.50 2.15 7.95 1.90 2.35 0.85 2.50 -1.35 0.20z"/>
  <path d="M2.80 31.90 c0.35 -1.25 1.75 -3.05 2.10 -2.70 0.10 0.15 -0.10 1.05 -0.45 2 -0.70 2 -2.25 2.60 -1.65 0.70z"/>
  <path d="M13.75 28.80 l-1.50 -1.25 1.15 -1.15 c1.10 -1.10 1.10 -1.10 1.10 -0.05 0 0.80 0.40 1.10 1.75 1.35 2 0.40 2.10 0.65 0.90 1.60 -1.25 0.95 -1.70 0.85 -3.40 -0.50z"/>
  <path d="M28.50 19.20 c0 -1.90 0.15 -2.25 0.90 -2.10 1.05 0.20 1.35 1.95 0.60 3.35 -0.90 1.70 -1.50 1.20 -1.50 -1.25z"/>
  <path d="M13.30 19.15 c-0.25 -0.90 0 -1.95 0.80 -3.50 0.65 -1.15 1.30 -2.15 1.50 -2.15 0.15 0 0.50 0.70 0.65 1.60 0.30 1.15 0.15 1.75 -0.45 2.15 -0.45 0.35 -0.80 1.20 -0.80 1.95 0 1.70 -1.30 1.70 -1.70 -0.05z"/>
  <path d="M22.50 19.05 c0 -0.80 0.40 -0.95 2.50 -0.95 2.15 -0.05 2.50 0.10 2.50 0.95 0 0.80 -0.35 0.95 -2.50 0.95 -2.10 0 -2.50 -0.15 -2.50 -0.95z"/>
  <path d="M24.15 16.65 c0.45 -0.10 1.25 -0.10 1.75 0 0.45 0.15 0.05 0.25 -0.90 0.25 -0.95 0 -1.35 -0.10 -0.85 -0.25z"/>
  <path d="M32.50 12.15 c0 -0.25 1.10 -1.15 2.50 -2.10 1.35 -0.90 2.85 -2.10 3.30 -2.60 1.10 -1.20 1.70 -1.20 1.70 0 0 0.65 -1.05 1.75 -2.85 3 -2.55 1.90 -4.65 2.60 -4.65 1.70z"/>
  <path d="M17.25 5.15 c1.10 -2.60 2.90 -5.15 3.65 -5.15 0.30 0 0.60 0.25 0.60 0.50 0 0.30 -0.20 0.50 -0.40 0.50 -0.20 0 -1.20 1.35 -2.15 3 -1.90 3.35 -2.90 4 -1.70 1.15z"/>
  <path d="M26.90 6.15 c0.35 -0.15 0.80 -0.10 0.95 0.05 0.20 0.15 -0.10 0.30 -0.65 0.25 -0.55 0 -0.70 -0.15 -0.30 -0.30z"/>
  <path d="M25.05 5.10 c0.10 -0.25 1.15 -1.55 2.35 -2.80 1.40 -1.55 2.55 -2.30 3.35 -2.30 0.70 0 1.25 0.10 1.25 0.25 0 0.45 -4.65 4.50 -5.20 4.50 -0.30 0 -0.85 0.20 -1.25 0.45 -0.40 0.30 -0.60 0.25 -0.50 -0.10z"/>
 </g>
 <g fill="#31425c">
  <path d="M19.60 37.90 l0 -2.15 0.70 1.50 c0.85 1.95 0.85 2.75 0 2.75 -0.45 0 -0.70 -0.65 -0.70 -2.10z"/>
  <path d="M26.40 38.15 c-1.15 -1.35 -1.50 -2.65 -0.70 -2.65 0.70 0 2.15 2.80 1.70 3.25 -0.15 0.15 -0.60 -0.15 -1 -0.60z"/>
  <path d="M2.80 33.70 c-0.55 -2.05 1.30 -4.45 4.05 -5.40 1.30 -0.45 2.80 -0.80 3.35 -0.80 1.20 0.05 -2.50 1.50 -3.75 1.50 -1.30 0 -2.55 2.35 -2.35 4.30 0.25 2.05 -0.85 2.35 -1.30 0.40z"/>
  <path d="M0 33.45 c0 -0.25 0.25 -0.35 0.50 -0.20 0.30 0.15 0.50 0.40 0.50 0.55 0 0.10 -0.20 0.20 -0.50 0.20 -0.25 0 -0.50 -0.25 -0.50 -0.55z"/>
  <path d="M7.40 31.15 c0.30 -0.10 0.90 -0.10 1.25 0 0.30 0.15 0.05 0.25 -0.65 0.25 -0.70 0 -0.95 -0.10 -0.60 -0.25z"/>
  <path d="M20.50 26.05 c0 -1.40 0.15 -1.55 1.45 -1.55 1.15 0 1.50 -0.25 1.65 -1.10 0.10 -0.75 0.55 -1.20 1.30 -1.30 0.60 -0.10 1.10 -0.50 1.10 -0.90 0 -0.40 0.30 -0.70 0.70 -0.70 0.90 0 1.40 -1.35 0.65 -1.70 -0.40 -0.15 -0.30 -0.50 0.35 -1 1.30 -1.05 2.15 -1 2.55 0.15 0.60 2 -0.30 3 -7.40 7.95 l-2.35 1.65 0 -1.50z"/>
  <path d="M26.20 26.60 c0.40 -0.65 3.30 -2.80 3.30 -2.45 0 0.15 -0.85 0.85 -1.85 1.65 -1 0.75 -1.65 1.15 -1.45 0.80z"/>
  <path d="M31.30 21.75 c0.45 -0.70 0.65 -1.60 0.50 -2.10 -0.40 -1 0.70 -5.65 1.35 -5.65 0.25 0 0.30 0.60 0.05 1.40 -0.20 0.75 -0.40 2.25 -0.45 3.40 -0.15 2.20 -1 4.20 -1.80 4.20 -0.25 0 -0.10 -0.55 0.35 -1.25z"/>
  <path d="M18.40 18.15 c-0.50 -0.10 -0.90 -0.45 -0.90 -0.70 0 -0.25 -0.35 -0.45 -0.75 -0.45 -0.45 0 -0.75 -0.45 -0.75 -1.10 0 -0.85 0.15 -0.95 0.60 -0.50 0.35 0.35 1.35 0.60 2.20 0.60 1.55 0 3 0.95 1.60 1.05 -0.35 0.05 0.35 0.35 1.60 0.70 l2.25 0.65 -2.50 0 c-1.35 0 -2.90 -0.10 -3.35 -0.25z"/>
  <path d="M23.75 16.50 c0.15 -0.25 0.85 -0.50 1.55 -0.50 0.65 0 1.20 0.25 1.20 0.50 0 0.30 -0.70 0.50 -1.55 0.50 -0.85 0 -1.40 -0.20 -1.20 -0.50z"/>
  <path d="M31.25 15.50 c-0.15 -0.25 -0.05 -0.50 0.20 -0.50 0.30 0 0.55 0.25 0.55 0.50 0 0.30 -0.10 0.50 -0.20 0.50 -0.15 0 -0.40 -0.20 -0.55 -0.50z"/>
  <path d="M17.50 12.45 c0 -3.20 0.10 -3.40 1.70 -4.85 0.95 -0.80 2.60 -1.75 3.65 -2.10 1.05 -0.35 2.30 -0.95 2.80 -1.40 0.45 -0.40 0.95 -0.65 1.10 -0.55 0.10 0.15 -0.75 1.15 -1.90 2.20 -1.15 1.10 -1.80 1.60 -1.40 1.10 0.60 -0.75 0.60 -0.85 -0.15 -0.55 -0.45 0.15 -0.80 0.60 -0.80 1 0 0.40 -0.45 0.95 -1 1.30 -0.55 0.35 -1 1 -1 1.50 0 0.45 -0.20 1 -0.50 1.15 -0.25 0.15 -0.95 1.25 -1.50 2.40 l-0.95 2.10 -0.05 -3.30z m2 -2.70 c0 -0.15 -0.10 -0.25 -0.25 -0.25 -0.15 0 -0.25 0.10 -0.25 0.25 0 0.15 0.10 0.25 0.25 0.25 0.15 0 0.25 -0.10 0.25 -0.25z"/>
  <path d="M20 15.10 c0 -0.15 0.70 -1.40 1.60 -2.80 1.85 -3.05 4.85 -6.30 5.70 -6.30 0.35 0 1.30 0.55 2.05 1.30 l1.40 1.25 -1.55 -0.75 c-1.65 -0.80 -2.20 -0.65 -2.20 0.60 0 0.55 0.15 0.60 0.65 0.15 0.65 -0.50 1.85 0.10 1.85 1 0 0.70 -1.65 0.95 -2.45 0.35 -0.70 -0.60 -0.70 -0.55 -0.10 0.25 0.35 0.45 1 0.85 1.35 0.85 0.40 0 0.70 0.45 0.70 1 0 1.30 0.80 1.25 3.45 -0.25 2.35 -1.35 3.05 -1.55 3.05 -0.70 0 0.60 -2.60 1.75 -5.85 2.50 -4.15 0.90 -9.65 1.80 -9.65 1.55z m5.50 -1.85 c0 -0.15 -0.10 -0.25 -0.25 -0.25 -0.15 0 -0.25 0.10 -0.25 0.25 0 0.15 0.10 0.25 0.25 0.25 0.15 0 0.25 -0.10 0.25 -0.25z"/>
  <path d="M30.10 10.70 c0.50 -0.50 1 -0.75 1.20 -0.60 0.15 0.20 -0.25 0.60 -0.90 0.90 -1.10 0.60 -1.10 0.60 -0.30 -0.30z"/>
  <path d="M16.50 8.05 c0 -1.10 1.15 -4.05 1.60 -4.05 0.55 0 0.55 0.10 -0.60 2.55 -0.55 1.20 -1 1.90 -1 1.50z"/>
 </g>
 <g fill="#734f0d">
  <path d="M15.80 27.95 c-0.65 -3.40 -0.45 -3.95 1.45 -3.95 1.50 0 1.75 0.15 1.75 1.15 0 0.60 0.15 1.60 0.30 2.15 0.20 0.75 0 1.15 -0.65 1.30 -0.50 0.15 -1.25 0.45 -1.70 0.60 -0.60 0.30 -0.90 0 -1.15 -1.25z"/>
  <path d="M13.10 28.40 c-0.35 -0.35 -0.40 -0.85 -0.05 -1.50 0.75 -1.35 1.45 -1.10 1.45 0.60 0 1.60 -0.45 1.85 -1.40 0.90z"/>
  <path d="M18.30 21 c-0.30 -1.80 -0.45 -2 -1.80 -2 -0.85 0 -1.50 0.25 -1.50 0.50 0 0.30 -0.30 0.50 -0.70 0.50 -1.05 0 -1.35 -2.10 -0.50 -3.40 0.70 -1.10 1.05 -1.15 2.85 -0.85 3.45 0.55 3.60 0.60 3.50 1.15 -0.05 0.25 0.60 0.60 1.45 0.80 1.30 0.25 1.45 0.45 1.15 1.40 -0.20 0.65 -0.45 1.75 -0.60 2.55 -0.20 1.15 -0.50 1.35 -1.90 1.35 -1.50 0 -1.65 -0.15 -1.95 -2z"/>
  <path d="M28.60 18.90 c0.15 -1.75 1.10 -2.40 1.60 -1.10 0.45 1.20 -0.10 2.70 -1 2.70 -0.55 0 -0.70 -0.45 -0.60 -1.60z"/>
  <path d="M31.50 18.50 c0 -0.35 0.15 -0.50 0.35 -0.35 0.15 0.20 0.15 0.50 0 0.70 -0.20 0.15 -0.35 0 -0.35 -0.35z"/>
 </g>
 <g fill="#664f42">
  <path d="M19.70 39.20 c0.15 -0.45 0.30 -1.05 0.30 -1.35 0 -0.80 1 0.70 1 1.55 0 0.30 -0.35 0.60 -0.80 0.60 -0.55 0 -0.70 -0.25 -0.50 -0.80z"/>
  <path d="M3.60 35.90 c-0.70 -0.70 -0.80 -2.90 -0.15 -2.90 0.25 0 0.55 0.40 0.70 0.90 0.10 0.45 0.40 1.25 0.60 1.75 0.40 1 -0.25 1.15 -1.15 0.25z"/>
  <path d="M24.75 34.50 c-0.40 -1.80 0.20 -7 0.80 -7 0.55 0 0.55 0.70 0 3.15 -0.35 1.40 -0.25 2.40 0.25 3.65 0.60 1.45 0.60 1.70 0 1.70 -0.40 0 -0.85 -0.65 -1.05 -1.50z"/>
  <path d="M3 31.60 c0 -0.65 1.55 -2.60 2.05 -2.60 0.30 0 0.10 0.70 -0.40 1.50 -0.80 1.40 -1.65 1.95 -1.65 1.10z"/>
  <path d="M15 29.50 c0 -0.25 -0.35 -0.50 -0.75 -0.50 -1.15 0 -0.90 -0.85 0.40 -1.20 1.60 -0.40 3.85 -0.35 3.85 0.10 0 0.40 -2.60 2.10 -3.20 2.10 -0.15 0 -0.30 -0.20 -0.30 -0.50z"/>
  <path d="M30 23.80 c0 -0.20 0.55 -1.05 1.25 -1.90 0.70 -0.80 1.25 -1.25 1.25 -0.95 0 0.60 -2.45 3.45 -2.50 2.85z"/>
  <path d="M26.50 21.55 c0 -1.50 -0.10 -1.55 -2.20 -1.55 -1.20 0 -2.90 -0.15 -3.75 -0.30 -1.30 -0.25 -1.55 -0.55 -1.55 -1.75 0 -1.45 0.70 -2.30 1.25 -1.45 0.15 0.25 0.05 0.50 -0.20 0.50 -0.30 0 -0.55 0.45 -0.55 1 0 0.60 0.35 1 0.80 1 0.50 0 0.70 -0.30 0.55 -0.70 -0.30 -0.75 -0.05 -0.75 3.20 -0.05 0.70 0.15 1.90 0.05 2.60 -0.20 1 -0.40 1.35 -0.35 1.35 0.05 0 0.35 0.30 0.15 0.70 -0.40 0.80 -1.05 1.30 -0.80 1.50 0.65 0.25 1.25 -0.45 2.40 -2.20 3.65 l-1.50 1.05 0 -1.50z"/>
  <path d="M13.80 21.40 c-0.50 -1.90 -0.35 -2.40 0.70 -2.40 0.80 0 1 0.35 1 1.75 0 2 -1.20 2.45 -1.70 0.65z"/>
  <path d="M31.65 18.30 c0.15 -0.40 0.45 -1.55 0.65 -2.50 0.15 -1 0.55 -1.80 0.80 -1.80 0.30 0 0.35 0.55 0.20 1.25 -0.50 1.95 -1.25 3.75 -1.60 3.75 -0.15 0 -0.20 -0.30 -0.05 -0.70z"/>
  <path d="M13.50 17.55 c0 -0.55 0.25 -1.15 0.55 -1.30 0.25 -0.20 0.75 -0.95 1.05 -1.65 l0.50 -1.35 0.45 1.15 c0.25 0.65 0.90 1.30 1.45 1.45 1.55 0.40 1.30 1.80 -0.30 1.50 -0.80 -0.15 -1.40 0 -1.55 0.45 -0.40 1.10 -2.15 0.85 -2.15 -0.25z"/>
  <path d="M24.65 16.65 c0.45 -0.10 1.15 -0.10 1.50 0 0.30 0.15 -0.05 0.25 -0.90 0.25 -0.80 0 -1.10 -0.10 -0.60 -0.25z"/>
  <path d="M17.55 14.20 c0 -0.55 0.15 -0.70 0.30 -0.30 0.15 0.35 0.10 0.80 -0.05 0.95 -0.15 0.20 -0.30 -0.10 -0.25 -0.65z"/>
  <path d="M31.50 12.75 c0 -0.15 0.10 -0.25 0.25 -0.25 0.15 0 0.25 0.10 0.25 0.25 0 0.15 -0.10 0.25 -0.25 0.25 -0.15 0 -0.25 -0.10 -0.25 -0.25z"/>
  <path d="M32.50 12.15 c0 -0.25 0.80 -0.90 1.75 -1.55 1.65 -1.05 1.75 -1.05 1.75 -0.15 0 0.60 -0.55 1.15 -1.55 1.50 -1.90 0.65 -1.95 0.65 -1.95 0.20z"/>
  <path d="M38 7.95 c1.40 -1.20 1.80 -1.35 1.90 -0.70 0.20 1 -1.25 2.20 -2.65 2.20 -0.85 0 -0.70 -0.25 0.75 -1.50z"/>
  <path d="M17.35 5.05 c0.15 -0.55 0.65 -1.40 1.15 -1.90 0.50 -0.55 1.05 -1.45 1.20 -2.05 0.35 -1.10 1.80 -1.55 1.80 -0.60 0 0.30 -0.20 0.50 -0.45 0.50 -0.25 0 -1.15 1.15 -2 2.50 -1.65 2.65 -2.10 3.10 -1.70 1.55z"/>
  <path d="M25.55 4.65 c0.10 -0.30 1.05 -1.45 2.05 -2.60 1.30 -1.40 2.30 -2.05 3.20 -2.05 1.30 0 1.30 0.05 -0.80 2.05 -1.15 1.15 -2.35 2.10 -2.70 2.15 -0.30 0.05 -0.85 0.25 -1.25 0.50 -0.40 0.25 -0.60 0.25 -0.50 -0.05z"/>
 </g>
 <g fill="#a66905">
  <path d="M15.90 28.05 c-0.50 -0.50 -0.90 -1.15 -0.90 -1.45 0 -0.35 -0.20 -0.60 -0.45 -0.60 -0.20 0 -0.55 -1.95 -0.75 -4.30 -0.25 -3.45 -0.15 -4.40 0.45 -5 0.40 -0.45 0.75 -1.10 0.75 -1.50 0 -0.90 0.50 -0.90 1.20 0.05 0.30 0.40 1.30 0.80 2.20 0.85 1.50 0.10 2.95 0.90 1.65 0.90 -0.30 0 -0.55 0.45 -0.55 1 0 0.95 1.25 1.45 1.60 0.60 0.10 -0.25 1.30 -0.30 2.65 -0.15 2.40 0.30 2.50 0.35 2.65 2 0.20 1.90 -0.45 2.55 -2.50 2.55 -1.15 0 -1.40 0.20 -1.40 1.25 0 0.70 -0.20 1.25 -0.50 1.25 -0.25 0 -0.50 0.35 -0.50 0.75 0 1.75 -4.30 3.15 -5.60 1.80z m1.60 -2.30 c0 -0.15 -0.10 -0.25 -0.25 -0.25 -0.15 0 -0.25 0.10 -0.25 0.25 0 0.15 0.10 0.25 0.25 0.25 0.15 0 0.25 -0.10 0.25 -0.25z m1 -3 c0 -1.40 -1.15 -3.25 -2.05 -3.25 -0.60 0 -0.80 0.25 -0.65 0.75 0.20 0.40 0.60 0.75 1 0.75 0.40 0 0.70 0.50 0.70 1.25 0 0.70 0.25 1.25 0.50 1.25 0.30 0 0.50 -0.35 0.50 -0.75z m2 -1.50 c0 -0.15 -0.10 -0.25 -0.25 -0.25 -0.15 0 -0.25 0.10 -0.25 0.25 0 0.15 0.10 0.25 0.25 0.25 0.15 0 0.25 -0.10 0.25 -0.25z m-4 -4 c0 -0.15 -0.10 -0.25 -0.25 -0.25 -0.15 0 -0.25 0.10 -0.25 0.25 0 0.15 0.10 0.25 0.25 0.25 0.15 0 0.25 -0.10 0.25 -0.25z"/>
  <path d="M28 19.25 c0 -0.95 0.10 -1.75 0.20 -1.75 0.10 0 0.55 -0.15 1 -0.30 0.60 -0.25 0.80 0 0.80 0.95 0 1.80 -0.50 2.85 -1.30 2.85 -0.45 0 -0.70 -0.60 -0.70 -1.75z"/>
 </g>
 <g fill="#4d5c73">
  <path d="M19.85 38.50 c0.15 -0.55 0.35 -1 0.45 -1 0.10 0 0.20 0.45 0.20 1 0 0.55 -0.20 1 -0.45 1 -0.25 0 -0.35 -0.45 -0.20 -1z"/>
  <path d="M2.90 33.65 c-0.30 -1.20 0.05 -2.65 0.65 -2.65 0.25 0 0.45 0.80 0.45 1.75 0 1.80 -0.75 2.40 -1.10 0.90z"/>
  <path d="M7.65 28.15 c0.20 -0.15 0.50 -0.15 0.70 0 0.15 0.20 0 0.35 -0.35 0.35 -0.35 0 -0.50 -0.15 -0.35 -0.35z"/>
  <path d="M17.55 27.65 c-0.05 -0.90 0.30 -1.15 1.70 -1.45 1.25 -0.20 1.75 -0.55 1.75 -1.25 0 -0.55 0.35 -0.95 0.75 -0.95 0.40 0 0.75 -0.20 0.75 -0.50 0 -0.25 0.40 -0.50 0.95 -0.50 0.50 0 1.05 -0.45 1.20 -1 0.20 -0.75 0.70 -1 2.10 -1 1.10 0 1.70 0.20 1.50 0.50 -0.40 0.65 -8.20 6.50 -9.15 6.90 -0.50 0.15 -0.65 0.05 -0.40 -0.30 0.15 -0.30 0.10 -0.65 -0.15 -0.80 -0.25 -0.20 -0.60 0.10 -0.70 0.55 -0.20 0.70 -0.25 0.65 -0.30 -0.20z"/>
  <path d="M26.25 26.50 c0.50 -0.55 1 -1 1.15 -1 0.15 0 -0.15 0.45 -0.65 1 -0.50 0.55 -1 1 -1.15 1 -0.15 0 0.15 -0.45 0.65 -1z"/>
  <path d="M28.25 25 c0.15 -0.25 0.40 -0.50 0.55 -0.50 0.15 0 0.10 0.25 -0.05 0.50 -0.15 0.30 -0.40 0.50 -0.55 0.50 -0.15 0 -0.10 -0.20 0.05 -0.50z"/>
  <path d="M31.85 19.55 c-0.15 -0.60 -0.10 -1.55 0.05 -2.15 0.25 -1 0.35 -0.95 0.65 0.60 0.40 1.85 -0.25 3.25 -0.70 1.55z"/>
  <path d="M26 18.95 c0 -0.55 3.45 -2.15 3.85 -1.75 0.15 0.10 0.10 0.70 -0.10 1.25 -0.25 0.80 -0.75 1.05 -2.05 1.05 -0.95 0 -1.70 -0.25 -1.70 -0.55z"/>
  <path d="M17.65 17.95 c-1.65 -0.60 -0.95 -2 0.95 -1.85 1.50 0.10 2.55 0.90 1.20 0.90 -0.40 0 -0.80 0.30 -0.90 0.70 -0.10 0.50 -0.45 0.55 -1.25 0.25z"/>
  <path d="M21.15 18.15 c0.20 -0.15 0.50 -0.15 0.70 0 0.15 0.20 0 0.35 -0.35 0.35 -0.35 0 -0.50 -0.15 -0.35 -0.35z"/>
  <path d="M24.50 16.50 c1 -0.65 2.65 -0.65 2.25 0 -0.15 0.30 -0.90 0.50 -1.65 0.50 -1.05 0 -1.20 -0.10 -0.60 -0.50z"/>
  <path d="M20 15.20 c0 -0.45 3.80 -6.10 4.90 -7.30 1.80 -1.95 2.65 -1.85 2 0.25 -0.30 0.85 -0.65 1.90 -0.75 2.30 -0.10 0.35 -0.55 0.55 -1.10 0.40 -0.50 -0.10 -1.15 0.15 -1.45 0.70 -0.90 1.40 -0.70 1.70 0.35 0.75 1.05 -0.95 4.55 -1.70 4.55 -0.95 0 0.25 -0.90 0.75 -2 1.10 -1.10 0.30 -2 0.80 -2 1.05 0 0.65 0.85 0.65 1.25 0 0.15 -0.25 0.80 -0.50 1.40 -0.50 2.05 0 0.10 0.90 -3.50 1.65 -2 0.40 -3.65 0.65 -3.65 0.55z"/>
  <path d="M17.70 13.25 c0.10 -1.10 0.25 -2.60 0.25 -3.35 0.05 -1.60 2.45 -3.65 4.80 -4.10 1.40 -0.30 1.40 -0.30 0.40 0.25 -0.65 0.35 -1.15 0.85 -1.15 1.20 0 0.85 -1.85 2.40 -2.40 2.05 -0.30 -0.15 -0.65 0.05 -0.80 0.50 -0.20 0.60 -0.05 0.70 0.70 0.45 0.90 -0.30 0.85 -0.10 -0.35 2.10 -1.75 3.20 -1.75 3.15 -1.45 0.90z m3.30 -5.50 c0 -0.15 -0.10 -0.25 -0.25 -0.25 -0.15 0 -0.25 0.10 -0.25 0.25 0 0.15 0.10 0.25 0.25 0.25 0.15 0 0.25 -0.10 0.25 -0.25z"/>
  <path d="M32.50 14.25 c0 -0.15 0.10 -0.25 0.25 -0.25 0.15 0 0.25 0.10 0.25 0.25 0 0.15 -0.10 0.25 -0.25 0.25 -0.15 0 -0.25 -0.10 -0.25 -0.25z"/>
  <path d="M31.50 12.55 c0.40 -0.35 1.35 -0.90 2.15 -1.35 1.15 -0.60 1.35 -0.60 1.35 0 0 0.35 -0.55 0.85 -1.20 1 -0.65 0.15 -1.60 0.45 -2.15 0.60 -0.75 0.25 -0.80 0.20 -0.15 -0.25z"/>
  <path d="M30.25 10.50 c0.15 -0.25 0.40 -0.50 0.55 -0.50 0.10 0 0.20 0.25 0.20 0.50 0 0.30 -0.25 0.50 -0.55 0.50 -0.25 0 -0.35 -0.20 -0.20 -0.50z"/>
  <path d="M27.50 9.25 c0 -0.50 0.35 -0.75 0.90 -0.65 1.05 0.20 0.95 1.10 -0.10 1.30 -0.50 0.10 -0.80 -0.15 -0.80 -0.65z"/>
  <path d="M25.20 4.55 c1.05 -1.15 1.30 -1.30 1.30 -0.55 0 0.25 -0.50 0.75 -1.10 1.05 -1.15 0.60 -1.15 0.60 -0.20 -0.50z"/>
 </g>
 <g fill="#996a42">
  <path d="M14.15 28.95 c-1.50 -0.55 -1.55 -2.45 -0.15 -2.45 1.10 0 1.70 0.95 1.40 2.15 -0.10 0.55 -0.45 0.60 -1.25 0.30z"/>
  <path d="M14.10 23.40 c0 -1.20 -0.10 -2.90 -0.25 -3.75 -0.15 -1.15 0 -1.65 0.50 -1.65 0.35 0 0.65 -0.50 0.65 -1.10 0 -0.65 0.20 -1.45 0.45 -1.85 0.35 -0.55 0.50 -0.50 0.75 0.30 0.20 0.55 0.20 1.40 0 1.85 -0.15 0.45 -0.05 0.80 0.25 0.80 0.30 0 0.50 -0.15 0.50 -0.35 -0.25 -1.55 0.25 -1.95 1.50 -1.20 1.20 0.75 0.20 2.55 -1.50 2.55 l-1.50 0 0.30 3.25 c0.30 3 0.25 3.25 -0.65 3.25 -0.80 0 -1 -0.35 -1 -2.10z"/>
  <path d="M21 21.55 c0 -0.55 -0.10 -1.25 -0.25 -1.65 -0.50 -1.30 0.55 -2.05 2.05 -1.55 1.95 0.65 1.95 1.95 0 1.75 -0.95 -0.15 -1.30 0 -1.05 0.35 0.15 0.30 0.50 0.45 0.75 0.30 0.25 -0.15 0.55 -0.05 0.75 0.25 0.20 0.30 0.55 0.40 0.80 0.25 0.25 -0.20 0.45 0.05 0.45 0.45 0 0.60 -0.50 0.80 -1.75 0.80 -1.40 0 -1.75 -0.20 -1.75 -0.95z"/>
  <path d="M27 20.30 c0 -1.55 0.25 -2.30 0.80 -2.50 1.60 -0.60 2.15 -0.35 1.95 1.10 -0.10 0.75 -0.20 1.50 -0.20 1.65 -0.05 0.20 -0.60 0.70 -1.30 1.15 l-1.25 0.80 0 -2.20z"/>
  <path d="M30 0.75 c0 -0.40 0.45 -0.75 1 -0.75 0.55 0 1 0.10 1 0.25 0 0.10 -0.45 0.45 -1 0.75 -0.80 0.45 -1 0.40 -1 -0.25z"/>
 </g>
 <g fill="#c58911">
  <path d="M16.65 28.65 c-0.35 -0.15 -0.65 -0.65 -0.65 -1.20 0 -0.70 -0.35 -0.95 -1.25 -0.95 -1.15 0 -1.20 -0.10 -0.70 -1.35 0.30 -0.80 0.40 -2.35 0.20 -3.50 -0.30 -1.95 -0.20 -2.15 0.70 -2.15 0.65 0 1.05 0.35 1.05 0.90 0 0.70 0.10 0.75 0.50 0.10 0.80 -1.20 0.60 -1.50 -0.95 -1.50 -0.85 0 -1.55 -0.30 -1.75 -0.80 -0.30 -0.80 1.10 -3.70 1.75 -3.70 0.60 0 1 1.75 0.65 2.70 -0.15 0.45 -0.10 0.80 0.20 0.80 0.25 0 0.60 -0.40 0.75 -0.95 0.15 -0.75 0.55 -0.90 1.65 -0.65 0.80 0.15 1.15 0.35 0.85 0.45 -0.70 0.25 -0.90 2.15 -0.25 2.15 0.20 0 0.45 0.75 0.50 1.60 0.10 0.90 0.35 1.85 0.65 2.15 0.40 0.35 0.45 -0.10 0.25 -1.50 -0.15 -1.10 -0.15 -2.20 0.05 -2.50 0.25 -0.25 1.65 -0.50 3.15 -0.55 1.50 0 3.55 -0.15 4.50 -0.35 1.25 -0.25 1.45 -0.25 0.75 0.10 -0.55 0.25 -0.70 0.50 -0.35 0.50 1 0.05 0.70 1.80 -0.50 2.90 -3.45 3.05 -10.45 7.95 -9.70 6.75 0.15 -0.30 0.10 -0.65 -0.20 -0.85 -0.25 -0.15 -0.50 0.05 -0.50 0.45 0 0.90 -0.50 1.25 -1.35 0.95z m1.10 -2.65 c-0.15 -0.25 -0.55 -0.50 -0.80 -0.50 -0.30 0 -0.35 0.25 -0.20 0.50 0.15 0.30 0.55 0.50 0.80 0.50 0.30 0 0.35 -0.20 0.20 -0.50z m1.75 -0.25 c0.35 -0.45 0.40 -0.75 0.10 -0.75 -0.25 0 -0.60 0.35 -0.80 0.75 -0.15 0.40 -0.20 0.75 -0.10 0.75 0.10 0 0.45 -0.35 0.80 -0.75z m1.50 -2 c0 -0.15 -0.10 -0.25 -0.25 -0.25 -0.15 0 -0.25 0.10 -0.25 0.25 0 0.15 0.10 0.25 0.25 0.25 0.15 0 0.25 -0.10 0.25 -0.25z m-5 -1 c0 -0.15 -0.10 -0.25 -0.25 -0.25 -0.15 0 -0.25 0.10 -0.25 0.25 0 0.15 0.10 0.25 0.25 0.25 0.15 0 0.25 -0.10 0.25 -0.25z m8.80 -2.20 c-0.25 -0.40 -3.30 -0.70 -3.30 -0.30 0 0.15 0.50 0.45 1.15 0.70 1.15 0.45 2.50 0.20 2.15 -0.40z"/>
 </g>
 <g fill="#61748c">
  <path d="M4 30 c0.30 -0.55 0.75 -1 1.05 -1 0.30 0 0.30 0.35 -0.05 1 -0.30 0.55 -0.75 1 -1.05 1 -0.30 0 -0.30 -0.35 0.05 -1z"/>
  <path d="M25.75 27 c0.50 -0.55 1 -1 1.10 -1 0.10 0 -0.10 0.45 -0.45 1 -0.35 0.55 -0.85 1 -1.10 1 -0.25 0 -0.05 -0.45 0.45 -1z"/>
  <path d="M28.95 24.30 c1.30 -1.40 1.55 -1.55 1.55 -0.85 0 0.25 -0.60 0.85 -1.35 1.30 l-1.40 0.90 1.20 -1.35z"/>
  <path d="M26.50 18.80 c0 -0.75 2.80 -1.65 3.35 -1.10 0.20 0.15 -0.10 0.30 -0.55 0.30 -0.60 0 -0.80 0.25 -0.60 0.75 0.20 0.55 -0.05 0.75 -0.95 0.75 -0.75 0 -1.25 -0.30 -1.25 -0.70z"/>
  <path d="M18 17.50 c0 -0.65 0.35 -1 1 -1 0.95 0 0.95 0.05 0.15 1 -0.50 0.55 -0.95 1 -1 1 -0.10 0 -0.15 -0.45 -0.15 -1z"/>
  <path d="M21 18.25 c0 -0.15 0.10 -0.25 0.25 -0.25 0.15 0 0.25 0.10 0.25 0.25 0 0.15 -0.10 0.25 -0.25 0.25 -0.15 0 -0.25 -0.10 -0.25 -0.25z"/>
  <path d="M24.75 16.50 c1.40 -0.60 1.85 -0.60 1.50 0 -0.15 0.30 -0.80 0.50 -1.40 0.45 -1.05 0 -1.05 -0.05 -0.10 -0.45z"/>
  <path d="M17.90 12 c0.20 -2.65 0.50 -3.40 1.50 -4.25 1.80 -1.45 3.25 -2.20 4.10 -2.20 0.40 0 0.10 0.40 -0.75 0.85 -0.80 0.45 -1.50 1.15 -1.50 1.55 0 0.40 -0.35 0.85 -0.75 0.95 -0.65 0.25 -0.65 0.15 -0.05 -0.55 0.40 -0.50 0.45 -0.85 0.15 -0.85 -0.70 0 -2.10 2 -2.10 2.95 0 0.60 0.15 0.60 0.60 0.15 0.95 -0.95 1.65 -0.70 0.75 0.30 -0.40 0.45 -1.10 1.65 -1.50 2.60 -0.70 1.75 -0.75 1.70 -0.45 -1.50z"/>
  <path d="M20.50 14.65 c0 -0.15 1 -1.75 2.20 -3.65 2.10 -3.20 4.30 -5.25 4.30 -4 0 0.30 -0.35 0.65 -0.75 0.85 -0.90 0.30 -4.45 5.60 -4.05 6 0.10 0.15 0.65 -0.20 1.15 -0.70 0.95 -0.90 4.15 -2.30 4.55 -1.95 0.10 0.15 -0.90 0.70 -2.25 1.30 -2.10 0.95 -2.25 1.15 -1.40 1.50 0.90 0.40 0.90 0.45 -0.25 0.50 -0.70 0.05 -1.75 0.15 -2.35 0.20 -0.65 0.10 -1.15 0.05 -1.15 -0.05z"/>
  <path d="M25.50 13.80 c0 -0.10 0.35 -0.30 0.75 -0.50 0.40 -0.15 0.75 -0.05 0.75 0.20 0 0.30 -0.35 0.50 -0.75 0.50 -0.40 0 -0.75 -0.10 -0.75 -0.20z"/>
  <path d="M25.10 9.90 c0.10 -0.30 0.50 -0.70 0.80 -0.80 0.35 -0.10 0.50 0.10 0.30 0.60 -0.35 0.90 -1.40 1.10 -1.10 0.20z"/>
  <path d="M27.60 9.40 c0.30 -0.90 1.40 -1.05 1.40 -0.20 0 0.45 -0.35 0.80 -0.80 0.80 -0.45 0 -0.70 -0.25 -0.60 -0.60z"/>
  <path d="M17 6.20 c0 -0.30 0.35 -0.95 0.75 -1.50 0.40 -0.50 0.70 -0.70 0.70 -0.45 0 0.30 -0.30 0.95 -0.70 1.45 -0.40 0.55 -0.75 0.75 -0.75 0.50z"/>
  <path d="M25.75 4 c0.50 -0.55 1.15 -1 1.40 -1 0.30 0 0.10 0.45 -0.40 1 -0.50 0.55 -1.15 1 -1.40 1 -0.30 0 -0.10 -0.45 0.40 -1z"/>
 </g>
 <g fill="#83796f">
  <path d="M19.50 39.65 c0 -0.25 0.25 -0.75 0.50 -1.15 0.40 -0.60 0.50 -0.55 0.50 0.40 0 0.60 -0.20 1.10 -0.50 1.10 -0.25 0 -0.50 -0.15 -0.50 -0.35z"/>
  <path d="M26.60 38.30 c-0.60 -0.90 -1.35 -2.40 -1.60 -3.35 -0.60 -2.05 -0.10 -7.25 0.75 -7.95 0.45 -0.35 0.45 0.25 -0.05 2.60 -0.60 2.85 -0.55 3.30 0.35 5.45 0.60 1.30 1.45 2.75 2 3.25 1.10 1 1.25 1.70 0.35 1.70 -0.35 0 -1.15 -0.75 -1.80 -1.70z"/>
  <path d="M3.85 30.20 c0.45 -0.75 0.95 -1.05 1.05 -0.75 0.20 0.65 -0.80 2.05 -1.45 2.05 -0.25 0 -0.10 -0.60 0.40 -1.30z"/>
  <path d="M17 27.75 c0 -0.75 0.20 -1.20 0.50 -1 0.30 0.15 0.50 0.60 0.50 1 0 0.40 -0.20 0.85 -0.50 1 -0.30 0.20 -0.50 -0.25 -0.50 -1z"/>
  <path d="M18.50 28.25 c0 -0.15 0.10 -0.25 0.25 -0.25 0.15 0 0.25 0.10 0.25 0.25 0 0.15 -0.10 0.25 -0.25 0.25 -0.15 0 -0.25 -0.10 -0.25 -0.25z"/>
  <path d="M19.50 27 c0 -0.65 0.40 -1.20 1 -1.35 0.55 -0.15 1 -0.70 1 -1.20 0 -0.55 0.35 -0.95 0.75 -0.95 0.40 0 0.75 -0.25 0.75 -0.60 0 -0.30 0.30 -0.20 0.65 0.30 0.65 0.85 0.75 0.80 1.75 -0.90 0.70 -1.15 1.45 -1.80 2.10 -1.80 1.60 0 0.75 1.05 -3.25 4.10 -4.75 3.65 -4.75 3.65 -4.75 2.40z"/>
  <path d="M28 25.25 c0 -0.15 0.10 -0.25 0.25 -0.25 0.15 0 0.25 0.10 0.25 0.25 0 0.15 -0.10 0.25 -0.25 0.25 -0.15 0 -0.25 -0.10 -0.25 -0.25z"/>
  <path d="M30.40 22.85 c1.30 -1.30 1.60 -2.10 1.65 -3.85 0.10 -3.15 0.65 -5.40 1.10 -4.65 0.20 0.35 0.15 1.05 -0.10 1.55 -0.30 0.55 -0.45 1.85 -0.40 2.95 0.05 1.55 -0.30 2.50 -1.30 3.85 -0.80 1 -1.65 1.80 -1.95 1.80 -0.35 0 0.10 -0.75 1 -1.65z"/>
  <path d="M17 17.35 c0 -1 0.45 -1.25 1.50 -1 0.55 0.15 0.80 0.55 0.65 0.95 -0.35 0.90 -2.15 0.90 -2.15 0.05z"/>
  <path d="M17.50 14.75 c0 -0.15 0.10 -0.25 0.25 -0.25 0.15 0 0.25 0.10 0.25 0.25 0 0.15 -0.10 0.25 -0.25 0.25 -0.15 0 -0.25 -0.10 -0.25 -0.25z"/>
  <path d="M34.25 10.75 c2.35 -2 3.25 -2.40 3.25 -1.55 0 1 -2.40 2.80 -3.70 2.80 -0.95 0 -0.90 -0.10 0.45 -1.25z"/>
  <path d="M38.50 7.80 c0 -0.10 0.35 -0.45 0.75 -0.80 0.60 -0.50 0.75 -0.50 0.75 0.20 0 0.45 -0.35 0.80 -0.75 0.80 -0.40 0 -0.75 -0.10 -0.75 -0.20z"/>
  <path d="M17.50 5.15 c0.05 -0.80 2.30 -4.35 2.90 -4.55 0.35 -0.10 -0.10 0.95 -0.95 2.35 -1.55 2.50 -1.95 2.95 -1.95 2.20z"/>
  <path d="M26 4.15 c0 -0.80 1.75 -2.15 2.75 -2.15 0.85 0 0.85 0.05 0 1 -0.50 0.55 -1 0.90 -1.15 0.75 -0.15 -0.15 -0.55 0 -0.95 0.30 -0.35 0.35 -0.65 0.35 -0.65 0.10z"/>
 </g>
 <g fill="#59e63c">
  <path d="M19.50 21 c0 -0.35 0.15 -0.50 0.35 -0.35 0.15 0.20 0.15 0.50 0 0.70 -0.20 0.15 -0.35 0 -0.35 -0.35z"/>
  <path d="M20.85 21.10 c-0.15 -0.20 -0.15 -0.95 0 -1.70 0.25 -1.45 0.45 -1.45 3.80 -0.55 1.60 0.45 0.85 1.15 -1.25 1.15 -2 0.05 -2.10 0.10 -1.20 0.75 0.95 0.75 0.95 0.75 -0.05 0.75 -0.60 0 -1.20 -0.15 -1.30 -0.40z"/>
  <path d="M13.50 18.15 c0 -0.60 1.75 -4.10 2.05 -4.15 0.60 0 0.90 2.20 0.45 2.75 -0.30 0.35 -0.35 0.75 -0.15 0.90 0.55 0.60 1.05 0.40 1.30 -0.50 0.20 -0.70 0.25 -0.60 0.30 0.25 0.05 0.95 -0.20 1.10 -1.95 1.10 -1.10 0 -2 -0.15 -2 -0.35z"/>
 </g>
 <g fill="#e29912">
  <path d="M15.50 28.50 c0 -1.25 -0.20 -1.50 -1.25 -1.50 -1.20 0 -1.20 0 -0.35 -1.45 0.70 -1.30 0.75 -1.90 0.25 -4.85 -0.45 -2.45 -0.45 -3.60 -0.05 -4.05 0.45 -0.55 0.70 -0.45 1.25 0.35 0.85 1.20 1.65 1.30 1.65 0.25 0 -0.45 0.45 -0.75 1.25 -0.75 1.15 0 1.25 0.10 0.70 1.05 -0.40 0.80 -0.40 1.15 0.05 1.45 0.35 0.20 0.70 1.45 0.80 2.80 0.15 2.25 0.15 2.35 -0.40 1.10 -0.55 -1.35 -1.40 -1.90 -1.40 -0.95 0 0.25 -0.60 0.60 -1.35 0.70 -1.35 0.20 -1.35 0.20 0.15 0.30 1.35 0.05 1.55 0.20 1.55 1.55 0 0.85 -0.15 1.30 -0.30 1.05 -0.20 -0.30 -0.60 -0.30 -0.95 -0.10 -0.50 0.30 -0.50 0.55 0.15 1.05 1.10 0.90 0.95 1.75 -0.50 2.70 -1.25 0.80 -1.25 0.80 -1.25 -0.70z m1.50 -9.25 c0 -0.15 -0.10 -0.25 -0.25 -0.25 -0.15 0 -0.25 0.10 -0.25 0.25 0 0.15 0.10 0.25 0.25 0.25 0.15 0 0.25 -0.10 0.25 -0.25z"/>
  <path d="M19.50 27 c0 -0.55 0.45 -1.40 1 -1.85 0.55 -0.50 1 -1.15 1 -1.50 0 -0.35 0.25 -0.65 0.50 -0.65 0.30 0 0.05 -0.45 -0.50 -1 -0.85 -0.85 -1.35 -2 -0.85 -2 0.05 0 0.95 0.40 1.95 0.95 1.40 0.70 1.70 1.05 1.25 1.50 -0.40 0.40 -0.40 0.70 0.05 1.15 0.40 0.40 0.70 0.25 1.10 -0.65 0.25 -0.65 0.85 -1.70 1.30 -2.30 0.80 -1.15 0.80 -1.15 -0.75 -0.85 -1.20 0.25 -1.55 0.15 -1.55 -0.45 0 -0.55 0.30 -0.70 0.75 -0.55 0.40 0.20 1.05 0.10 1.40 -0.20 0.30 -0.25 1.30 -0.60 2.10 -0.70 0.85 -0.15 1.20 -0.15 0.85 -0.05 -0.40 0.15 -0.55 0.55 -0.40 0.95 0.65 1.65 -0.85 3.15 -8.30 8.60 -0.80 0.55 -0.90 0.55 -0.90 -0.40z"/>
  <path d="M22.15 18.65 c0.20 -0.15 0.50 -0.15 0.70 0 0.15 0.20 0 0.35 -0.35 0.35 -0.35 0 -0.50 -0.15 -0.35 -0.35z"/>
  <path d="M15.50 15.75 c-0.40 -0.45 -0.40 -0.75 -0.10 -0.75 0.60 0 1.30 0.95 0.95 1.30 -0.10 0.10 -0.50 -0.10 -0.85 -0.55z"/>
 </g>
 <g fill="#758ca9">
  <path d="M29.70 23.55 c1.05 -1.15 1.30 -1.30 1.30 -0.55 0 0.25 -0.50 0.75 -1.10 1.05 -1.15 0.60 -1.15 0.60 -0.20 -0.50z"/>
  <path d="M27.50 19.25 c0 -0.15 0.10 -0.25 0.25 -0.25 0.15 0 0.25 0.10 0.25 0.25 0 0.15 -0.10 0.25 -0.25 0.25 -0.15 0 -0.25 -0.10 -0.25 -0.25z"/>
  <path d="M17.50 17.50 c0 -0.65 0.35 -1 1 -1 0.90 0 0.95 0.10 0.40 1 -0.35 0.55 -0.80 1 -1 1 -0.25 0 -0.40 -0.45 -0.40 -1z"/>
  <path d="M27.50 18 c1.70 -0.55 3 -0.55 1.75 0 -0.55 0.25 -1.45 0.40 -2 0.40 -0.80 0 -0.75 -0.10 0.25 -0.40z"/>
  <path d="M24.65 16.65 c0.20 -0.15 0.50 -0.15 0.70 0 0.15 0.20 0 0.35 -0.35 0.35 -0.35 0 -0.50 -0.15 -0.35 -0.35z"/>
  <path d="M16 16 c0 -0.35 0.15 -0.50 0.35 -0.35 0.15 0.20 0.15 0.50 0 0.70 -0.20 0.15 -0.35 0 -0.35 -0.35z"/>
  <path d="M26 16.25 c0 -0.15 0.10 -0.25 0.25 -0.25 0.15 0 0.25 0.10 0.25 0.25 0 0.15 -0.10 0.25 -0.25 0.25 -0.15 0 -0.25 -0.10 -0.25 -0.25z"/>
  <path d="M17.50 14.50 c0 -0.35 0.15 -0.50 0.35 -0.35 0.15 0.20 0.15 0.50 0 0.70 -0.20 0.15 -0.35 0 -0.35 -0.35z"/>
  <path d="M20.50 14.75 c0 -0.15 0.10 -0.25 0.25 -0.25 0.15 0 0.25 0.10 0.25 0.25 0 0.15 -0.10 0.25 -0.25 0.25 -0.15 0 -0.25 -0.10 -0.25 -0.25z"/>
  <path d="M18 13 c0 -0.35 0.15 -0.50 0.35 -0.35 0.15 0.20 0.15 0.50 0 0.70 -0.20 0.15 -0.35 0 -0.35 -0.35z"/>
  <path d="M24.50 12.25 c0 -0.15 0.10 -0.25 0.25 -0.25 0.15 0 0.25 0.10 0.25 0.25 0 0.15 -0.10 0.25 -0.25 0.25 -0.15 0 -0.25 -0.10 -0.25 -0.25z"/>
  <path d="M33.80 11.30 c1.05 -0.75 1.50 -0.70 0.95 0.15 -0.15 0.30 -0.70 0.55 -1.15 0.55 -0.65 0 -0.65 -0.10 0.20 -0.70z"/>
  <path d="M23 10.75 c0 -0.15 0.10 -0.25 0.25 -0.25 0.15 0 0.25 0.10 0.25 0.25 0 0.15 -0.10 0.25 -0.25 0.25 -0.15 0 -0.25 -0.10 -0.25 -0.25z"/>
  <path d="M18 9.55 c0 -0.25 0.25 -0.65 0.50 -0.80 0.30 -0.15 0.50 -0.10 0.50 0.20 0 0.25 -0.20 0.65 -0.50 0.80 -0.25 0.15 -0.50 0.10 -0.50 -0.20z"/>
  <path d="M25.50 9.75 c0 -0.15 0.10 -0.25 0.25 -0.25 0.15 0 0.25 0.10 0.25 0.25 0 0.15 -0.10 0.25 -0.25 0.25 -0.15 0 -0.25 -0.10 -0.25 -0.25z"/>
  <path d="M27.75 9.55 c-0.30 -0.55 0.45 -1.15 0.95 -0.70 0.45 0.45 0.35 1.15 -0.15 1.15 -0.30 0 -0.60 -0.20 -0.80 -0.45z"/>
  <path d="M20.25 8.50 c0.15 -0.25 0.40 -0.50 0.55 -0.50 0.10 0 0.20 0.25 0.20 0.50 0 0.30 -0.25 0.50 -0.55 0.50 -0.25 0 -0.35 -0.20 -0.20 -0.50z"/>
  <path d="M20.45 7.05 c0.65 -0.60 1.40 -1.05 1.70 -1.05 0.60 0 0.55 0 -1.40 1.20 l-1.50 0.85 1.20 -1z"/>
  <path d="M26 7.25 c0 -0.15 0.10 -0.25 0.25 -0.25 0.15 0 0.25 0.10 0.25 0.25 0 0.15 -0.10 0.25 -0.25 0.25 -0.15 0 -0.25 -0.10 -0.25 -0.25z"/>
  <path d="M23 5.75 c0 -0.15 0.10 -0.25 0.25 -0.25 0.15 0 0.25 0.10 0.25 0.25 0 0.15 -0.10 0.25 -0.25 0.25 -0.15 0 -0.25 -0.10 -0.25 -0.25z"/>
  <path d="M17.50 5.25 c0 -0.25 0.25 -0.85 0.50 -1.25 0.25 -0.40 0.50 -0.50 0.50 -0.25 0 0.30 -0.25 0.85 -0.50 1.25 -0.25 0.40 -0.50 0.55 -0.50 0.25z"/>
  <path d="M25 4.85 c0 -0.10 0.70 -0.80 1.50 -1.60 1 -0.95 1.50 -1.20 1.50 -0.70 0 0.40 -0.65 1.15 -1.50 1.60 -0.80 0.50 -1.50 0.80 -1.50 0.70z"/>
 </g>
 <g fill="#b49777">
  <path d="M20.10 39 c0 -0.70 0.10 -0.95 0.25 -0.60 0.10 0.30 0.10 0.90 0 1.25 -0.15 0.30 -0.25 0.05 -0.25 -0.65z"/>
  <path d="M26.90 38.15 c-1.30 -1.45 -2.15 -3.15 -1.50 -3.15 0.30 0.05 3.25 4.50 2.90 4.50 -0.05 0 -0.70 -0.60 -1.40 -1.35z"/>
  <path d="M3.50 35.55 c-0.85 -1.65 -0.60 -4.30 0.50 -5.30 0.55 -0.50 1 -0.65 1 -0.35 0 0.30 -0.20 0.70 -0.50 0.85 -0.65 0.40 -0.65 3.55 0 4.80 0.35 0.60 0.35 0.95 0.05 0.95 -0.30 0 -0.75 -0.45 -1.05 -0.95z"/>
  <path d="M24.80 30.90 c0.20 -1.45 0.55 -3 0.80 -3.40 0.25 -0.50 0.30 -0.15 0.15 1 -0.15 0.95 -0.35 2.50 -0.40 3.35 -0.05 0.90 -0.30 1.65 -0.50 1.65 -0.20 0 -0.25 -1.20 -0.05 -2.60z"/>
  <path d="M14.40 28.90 c-1.55 -1.10 -1.75 -2 -0.65 -2.90 0.40 -0.35 0.75 -1.15 0.75 -1.80 0 -1.25 0.60 -1.40 3 -0.75 l1.20 0.35 -1 1 c-0.55 0.55 -0.90 1.30 -0.80 1.60 0.10 0.35 -0.30 0.60 -0.85 0.60 -1.50 0 -1.30 0.90 0.25 1.10 1.25 0.15 1.30 0.20 0.40 1 -0.90 0.75 -1.05 0.75 -2.30 -0.20z"/>
  <path d="M19.50 27.85 c0 -0.15 0.85 -0.85 1.85 -1.65 1 -0.75 1.65 -1.15 1.45 -0.80 -0.40 0.65 -3.30 2.80 -3.30 2.45z"/>
  <path d="M23.50 24.75 c0 -0.15 0.10 -0.25 0.25 -0.25 0.15 0 0.25 0.10 0.25 0.25 0 0.15 -0.10 0.25 -0.25 0.25 -0.15 0 -0.25 -0.10 -0.25 -0.25z"/>
  <path d="M25.30 23.30 c0.15 -0.40 0.65 -0.85 1.10 -1.05 0.65 -0.25 0.65 -0.10 -0.15 0.75 -1.05 1.20 -1.30 1.25 -0.95 0.30z"/>
  <path d="M30.50 22.75 c0.65 -0.70 1.25 -1.25 1.35 -1.25 0.10 0 -0.20 0.55 -0.65 1.25 -0.45 0.70 -1.05 1.25 -1.35 1.25 -0.30 0 0 -0.55 0.65 -1.25z"/>
  <path d="M27.50 21.75 c0 -0.15 0.10 -0.25 0.25 -0.25 0.15 0 0.25 0.10 0.25 0.25 0 0.15 -0.10 0.25 -0.25 0.25 -0.15 0 -0.25 -0.10 -0.25 -0.25z"/>
  <path d="M24 19.55 c0 -0.25 -0.70 -0.55 -1.60 -0.75 -0.85 -0.15 -1.45 -0.40 -1.35 -0.55 0.15 -0.10 1.20 0.05 2.40 0.30 1.50 0.35 2.40 0.30 2.75 -0.05 0.25 -0.25 0.95 -0.50 1.50 -0.50 0.70 0 0.40 0.30 -0.95 1 -2.15 1.10 -2.75 1.20 -2.75 0.55z"/>
  <path d="M15.35 15.65 c-0.50 -0.45 -0.40 -1.65 0.10 -1.65 0.25 0 0.55 0.45 0.70 1 0.25 1 -0.15 1.30 -0.80 0.65z"/>
  <path d="M34.75 10.60 c1.70 -1.55 4.50 -3.60 4.95 -3.60 1.30 0 -1.25 2.95 -2.55 3 -0.35 0 -1.10 0.45 -1.65 1 -0.55 0.55 -1.30 1 -1.60 1 -0.35 0 0.05 -0.65 0.85 -1.40z"/>
  <path d="M26.50 3.60 c0 -0.75 3.30 -3.60 4.15 -3.60 1.20 0 1.05 0.40 -0.75 1.90 -1.70 1.45 -3.40 2.30 -3.40 1.70z"/>
  <path d="M18.50 3.30 c0 -0.90 1.75 -3.30 2.45 -3.30 0.50 0 0.40 0.40 -0.50 1.40 -0.65 0.75 -1.35 1.55 -1.55 1.85 -0.25 0.25 -0.40 0.25 -0.40 0.05z"/>
 </g>
 <g fill="#eba840">
  <path d="M16 28.80 c0 -0.45 -0.25 -0.80 -0.55 -0.80 -0.35 0 -0.50 -0.65 -0.35 -1.70 0.10 -0.95 0 -1.60 -0.20 -1.50 -0.20 0.15 -0.40 -0.20 -0.40 -0.75 0 -0.80 0.35 -1 2 -0.95 1.10 0 2 0.10 2 0.15 0 0.75 -0.75 1.75 -1.30 1.75 -0.90 0 -0.90 0.50 0.10 1.90 0.45 0.65 0.70 1.20 0.65 1.25 -0.10 0.10 -0.60 0.45 -1.05 0.80 -0.75 0.60 -0.90 0.55 -0.90 -0.15z"/>
  <path d="M20.25 27 c0.15 -0.25 0.40 -0.50 0.55 -0.50 0.15 0 0.10 0.25 -0.05 0.50 -0.15 0.30 -0.40 0.50 -0.55 0.50 -0.15 0 -0.10 -0.20 0.05 -0.50z"/>
  <path d="M22.25 25.50 c0.15 -0.25 0.40 -0.50 0.55 -0.50 0.15 0 0.10 0.25 -0.05 0.50 -0.15 0.30 -0.40 0.50 -0.55 0.50 -0.15 0 -0.10 -0.20 0.05 -0.50z"/>
  <path d="M19.05 22.45 c-0.50 -1.30 -0.75 -1.50 -0.90 -0.80 -0.35 1.40 -2.75 0.90 -3.20 -0.65 -0.20 -0.70 -0.40 -0.90 -0.45 -0.50 -0.05 0.40 -0.30 -0.15 -0.50 -1.20 -0.25 -1.45 -0.20 -2.20 0.30 -2.70 0.60 -0.55 0.70 -0.55 0.70 0.05 0 1.10 1.60 1.55 2.10 0.60 0.75 -1.30 1.95 -0.95 1.60 0.50 -0.20 0.75 -0.10 1.25 0.20 1.25 0.60 0 1.30 2.90 1 4.25 -0.10 0.60 -0.35 0.35 -0.85 -0.80z"/>
  <path d="M21.50 23.50 c0 -0.35 0.15 -0.50 0.35 -0.35 0.15 0.20 0.15 0.50 0 0.70 -0.20 0.15 -0.35 0 -0.35 -0.35z"/>
  <path d="M25.50 22.75 c0 -0.15 0.10 -0.25 0.25 -0.25 0.15 0 0.25 0.10 0.25 0.25 0 0.15 -0.10 0.25 -0.25 0.25 -0.15 0 -0.25 -0.10 -0.25 -0.25z"/>
  <path d="M21.15 21.75 c-0.15 -0.45 -0.15 -0.90 -0.05 -1.05 0.45 -0.40 2.90 0.90 2.60 1.35 -0.45 0.75 -2.20 0.50 -2.55 -0.30z"/>
  <path d="M23.85 19.40 c-0.15 -0.45 0.35 -0.65 1.45 -0.70 1.45 0 1.55 0.05 0.80 0.60 -1.10 0.85 -1.95 0.85 -2.25 0.10z"/>
  <path d="M27.25 19.50 c0.15 -0.25 0.40 -0.50 0.55 -0.50 0.10 0 0.20 0.25 0.20 0.50 0 0.30 -0.25 0.50 -0.55 0.50 -0.25 0 -0.35 -0.20 -0.20 -0.50z"/>
  <path d="M29 17.75 c0 -0.15 0.10 -0.25 0.25 -0.25 0.15 0 0.25 0.10 0.25 0.25 0 0.15 -0.10 0.25 -0.25 0.25 -0.15 0 -0.25 -0.10 -0.25 -0.25z"/>
  <path d="M15.50 15.80 c-0.30 -0.45 -0.50 -1.05 -0.40 -1.40 0.15 -0.40 0.45 -0.20 0.85 0.50 0.75 1.40 0.45 1.95 -0.45 0.90z"/>
 </g>
 <g fill="#bab5ab">
  <path d="M27.10 38.50 c-2 -2.50 -2.65 -4.80 -2.30 -7.65 0.20 -1.45 0.55 -2.95 0.80 -3.35 0.30 -0.55 0.35 -0.40 0.15 0.40 -1.10 3.85 -0.10 8.20 2.40 11 0.55 0.60 0.80 1.10 0.55 1.05 -0.25 0 -0.95 -0.65 -1.60 -1.45z"/>
  <path d="M14.20 25.90 c0.15 -0.65 0.30 -1.55 0.30 -2 0 -0.70 0.35 -0.85 1.50 -0.75 2 0.25 2.45 0.80 1.30 1.60 -0.55 0.40 -0.80 1.05 -0.65 1.50 0.25 0.55 -0.05 0.75 -1.20 0.75 -1.40 0 -1.55 -0.15 -1.25 -1.10z m1.30 -1.15 c0 -0.15 -0.10 -0.25 -0.25 -0.25 -0.15 0 -0.25 0.10 -0.25 0.25 0 0.15 0.10 0.25 0.25 0.25 0.15 0 0.25 -0.10 0.25 -0.25z"/>
  <path d="M29.50 23.85 c0 -0.10 0.70 -0.80 1.60 -1.65 l1.60 -1.45 -1.25 1.60 c-1 1.35 -1.95 2.05 -1.95 1.50z"/>
  <path d="M32.10 19.50 c0 -0.70 0.10 -0.95 0.25 -0.60 0.10 0.30 0.10 0.90 0 1.25 -0.15 0.30 -0.25 0.05 -0.25 -0.65z"/>
  <path d="M17.20 17.70 c0.15 -0.45 0.30 -0.90 0.30 -1 0 -0.10 0.35 -0.20 0.80 -0.20 0.55 0 0.70 0.25 0.50 0.80 -0.15 0.45 -0.30 0.90 -0.30 1 0 0.10 -0.35 0.20 -0.80 0.20 -0.55 0 -0.70 -0.25 -0.50 -0.80z"/>
  <path d="M29.15 17.65 c0.20 -0.15 0.50 -0.15 0.70 0 0.15 0.20 0 0.35 -0.35 0.35 -0.35 0 -0.50 -0.15 -0.35 -0.35z"/>
  <path d="M32.50 14.75 c0 -0.15 0.10 -0.25 0.25 -0.25 0.15 0 0.25 0.10 0.25 0.25 0 0.15 -0.10 0.25 -0.25 0.25 -0.15 0 -0.25 -0.10 -0.25 -0.25z"/>
  <path d="M34.75 10.65 c2.40 -2.20 4.80 -3.75 5.15 -3.40 0.50 0.50 -3.20 3.60 -5.05 4.25 l-1.60 0.50 1.50 -1.35z"/>
  <path d="M18.55 3 c0.65 -1.10 1.30 -2 1.55 -2 0.25 0 -0.20 0.90 -0.90 2 -0.75 1.10 -1.45 2 -1.55 2 -0.10 0 0.30 -0.90 0.90 -2z"/>
  <path d="M26.50 3.60 c0 -0.25 0.45 -0.85 1 -1.35 0.75 -0.70 1 -0.75 1 -0.20 0 0.40 -0.45 1 -1 1.35 -0.55 0.35 -1 0.40 -1 0.20z"/>
 </g>
 <g fill="#bbec78">
  <path d="M24 19.60 c0 -0.35 -0.50 -0.65 -1.10 -0.65 -0.95 -0.05 -1 -0.10 -0.20 -0.30 1 -0.25 2.20 0.60 1.65 1.20 -0.20 0.15 -0.35 0.05 -0.35 -0.25z"/>
  <path d="M13.90 17.65 c0.30 -0.10 0.90 -0.10 1.25 0 0.30 0.15 0.05 0.25 -0.65 0.25 -0.70 0 -0.95 -0.10 -0.60 -0.25z"/>
  <path d="M17.30 17.25 c0.20 -0.40 0.40 -0.75 0.50 -0.75 0.10 0 0.20 0.35 0.20 0.75 0 0.40 -0.20 0.75 -0.50 0.75 -0.25 0 -0.35 -0.35 -0.20 -0.75z"/>
  <path d="M14.50 16.25 c0 -0.15 0.10 -0.25 0.25 -0.25 0.15 0 0.25 0.10 0.25 0.25 0 0.15 -0.10 0.25 -0.25 0.25 -0.15 0 -0.25 -0.10 -0.25 -0.25z"/>
  <path d="M15.50 15.75 c-0.35 -0.45 -0.50 -0.90 -0.35 -1.05 0.15 -0.15 0.50 0.20 0.85 0.75 0.65 1.25 0.40 1.35 -0.50 0.30z"/>
 </g>
 <g fill="#f2c67b">
  <path d="M3.50 35.20 c-0.70 -1.75 -0.45 -4.30 0.35 -4.60 0.50 -0.15 0.55 0.15 0.20 0.95 -0.20 0.70 -0.20 1.90 0.05 2.85 0.60 2.10 0.10 2.75 -0.60 0.80z"/>
  <path d="M15.70 28.80 c-0.15 -0.45 -0.85 -0.80 -1.50 -0.80 -1.40 0 -1.50 -0.40 -0.45 -1.80 0.40 -0.50 0.75 -1.45 0.75 -2.05 0 -0.90 0.30 -1.05 1.75 -1 1.35 0.05 1.75 0.25 1.60 0.80 -0.10 0.55 -0.65 0.75 -1.60 0.70 -1.25 -0.10 -1.40 0 -0.75 0.50 0.40 0.35 1.15 1.10 1.65 1.65 0.80 1 0.80 1.10 -0.15 1.95 -0.90 0.80 -1 0.80 -1.30 0.05z"/>
  <path d="M15.20 21.75 c-0.15 -0.40 -0.15 -0.90 0 -1.20 0.20 -0.25 0.10 -0.60 -0.20 -0.80 -0.25 -0.15 -0.75 -0.75 -1.05 -1.35 -0.55 -0.95 -0.45 -1 1.20 -0.70 1.40 0.25 1.90 0.15 2.25 -0.50 0.65 -1.15 1.60 -0.45 1.25 0.85 -0.15 0.60 -0.05 1.20 0.20 1.40 0.75 0.45 1.25 2.40 0.75 2.75 -0.20 0.15 -0.80 -0.45 -1.30 -1.25 -0.50 -0.85 -1 -1.40 -1.15 -1.25 -0.15 0.15 0 0.60 0.30 1 0.35 0.40 0.50 1 0.30 1.30 -0.45 0.75 -2.25 0.60 -2.55 -0.25z"/>
  <path d="M21.65 22.15 c-0.35 -0.10 -0.65 -0.55 -0.65 -0.95 0 -0.80 2.10 -0.20 2.40 0.70 0.20 0.60 -0.65 0.75 -1.75 0.25z"/>
  <path d="M23.50 19.15 c-0.65 -0.75 -0.60 -0.80 0.20 -0.50 0.50 0.20 1.10 0.35 1.35 0.35 0.30 0 0.35 0.25 0.20 0.50 -0.45 0.70 -0.90 0.60 -1.75 -0.35z"/>
  <path d="M15.20 14.90 c-0.20 -0.35 -0.15 -0.40 0.20 -0.20 0.60 0.35 0.80 0.80 0.40 0.80 -0.15 0 -0.40 -0.25 -0.60 -0.60z"/>
  <path d="M34.50 11.20 c0 -0.55 2.25 -2.15 3 -2.15 0.50 0 0.25 0.40 -0.65 1.20 -1.35 1.20 -2.35 1.60 -2.35 0.95z"/>
 </g>
 <g fill="#e2d3bb">
  <path d="M20.05 39.20 c0 -0.55 0.15 -0.70 0.30 -0.30 0.15 0.35 0.10 0.80 -0.05 0.95 -0.15 0.20 -0.30 -0.10 -0.25 -0.65z"/>
  <path d="M26.40 37.40 c-0.80 -1.25 -2 -4.45 -1.75 -4.70 0.05 -0.10 0.75 1.20 1.45 2.80 1.40 3.15 1.50 3.70 0.30 1.90z"/>
  <path d="M3 32.15 c0 -0.55 0.50 -1.40 1.05 -1.95 l1.10 -0.95 -0.90 1.75 c-1.15 2.25 -1.25 2.35 -1.25 1.15z"/>
  <path d="M25.10 30 c0 -0.95 0.10 -1.35 0.25 -0.85 0.10 0.45 0.10 1.25 0 1.75 -0.15 0.45 -0.25 0.05 -0.25 -0.90z"/>
  <path d="M14 28.60 c-1.10 -0.90 -1.10 -0.95 -0.25 -2.25 1.05 -1.60 1.30 -1.65 2.50 -0.35 0.50 0.55 0.65 1 0.35 1 -0.35 0 -0.60 0.55 -0.60 1.25 0 1.50 -0.50 1.55 -2 0.35z"/>
  <path d="M25.50 27.75 c0 -0.15 0.10 -0.25 0.25 -0.25 0.15 0 0.25 0.10 0.25 0.25 0 0.15 -0.10 0.25 -0.25 0.25 -0.15 0 -0.25 -0.10 -0.25 -0.25z"/>
  <path d="M15.30 24.25 c-0.95 -0.70 -0.90 -0.75 0.85 -0.75 1.40 0 1.75 0.15 1.55 0.75 -0.40 0.95 -1.15 0.95 -2.40 0z"/>
  <path d="M15.50 21.50 c0 -1.15 1.75 -1.40 2.15 -0.30 0.35 0.90 -0.05 1.30 -1.25 1.30 -0.55 0 -0.90 -0.35 -0.90 -1z"/>
  <path d="M18.50 20.75 c0 -0.15 0.10 -0.25 0.25 -0.25 0.15 0 0.25 0.10 0.25 0.25 0 0.15 -0.10 0.25 -0.25 0.25 -0.15 0 -0.25 -0.10 -0.25 -0.25z"/>
  <path d="M32 19.50 c0 -0.35 0.15 -0.50 0.35 -0.35 0.15 0.20 0.15 0.50 0 0.70 -0.20 0.15 -0.35 0 -0.35 -0.35z"/>
  <path d="M17 18.15 c0 -0.25 0.20 -0.75 0.50 -1.15 0.55 -0.90 1.25 -0.35 0.85 0.75 -0.30 0.75 -1.35 1.05 -1.35 0.40z"/>
  <path d="M34.30 11.10 c2.45 -2.15 5.30 -4.20 5.50 -3.95 0.60 0.60 -4.05 4.35 -5.35 4.35 -0.40 0 -0.45 -0.15 -0.15 -0.40z"/>
  <path d="M19.20 2.15 c0.45 -0.85 1 -1.75 1.30 -1.90 0.90 -0.55 0.50 0.45 -0.80 2 l-1.30 1.50 0.80 -1.60z"/>
  <path d="M27 3.10 c0 -0.70 2.95 -3.10 3.80 -3.10 0.75 0 0.75 0.10 -0.10 1.05 -1.10 1.25 -3.70 2.65 -3.70 2.05z"/>
 </g>
 <g fill="#feecab">
  <path d="M3.65 35.25 c-0.15 -0.45 -0.15 -0.90 -0.05 -1.05 0.15 -0.15 0.40 0.20 0.55 0.80 0.30 1.15 -0.05 1.35 -0.50 0.25z"/>
  <path d="M3 32.40 c0 -0.45 0.45 -1.30 1 -1.95 l1 -1.20 -0.85 1.75 c-1 2.20 -1.15 2.35 -1.15 1.40z"/>
  <path d="M14.05 28.55 c-1.15 -0.85 -1.15 -0.95 -0.30 -2.20 0.70 -1.10 1.05 -1.25 1.80 -0.85 1.45 0.80 2.15 2.40 1.40 3.30 -0.75 0.90 -1.45 0.85 -2.90 -0.25z"/>
  <path d="M15.30 24.25 c-1.25 -0.95 -0.95 -1.20 1.10 -0.90 1.30 0.20 1.50 0.40 1.05 0.95 -0.70 0.85 -0.95 0.85 -2.15 -0.05z"/>
  <path d="M15.35 22.20 c-0.20 -0.20 -0.20 -0.85 -0.05 -1.45 0.15 -0.65 -0.05 -1.35 -0.50 -1.70 -1 -0.85 -1.05 -1.75 -0.05 -1.35 0.40 0.15 1.05 0.45 1.45 0.60 0.45 0.15 0.85 -0.15 1.05 -0.75 0.15 -0.60 0.55 -0.95 0.80 -0.75 0.25 0.15 0.35 0.70 0.20 1.15 -0.15 0.50 0.05 1.20 0.50 1.55 0.40 0.35 0.75 1.10 0.75 1.65 0 1 -0.05 1 -0.85 -0.15 -1.55 -2.25 -2.90 -2.55 -1.40 -0.35 0.70 1.15 0.70 1.25 0 1.55 -1.05 0.40 -1.50 0.40 -1.90 0z"/>
  <path d="M21.25 21.50 c-0.40 -0.65 0.75 -0.65 1.75 0 0.60 0.40 0.55 0.50 -0.35 0.50 -0.60 0 -1.25 -0.20 -1.40 -0.50z"/>
  <path d="M24.15 19.15 c0.20 -0.15 0.50 -0.15 0.70 0 0.15 0.20 0 0.35 -0.35 0.35 -0.35 0 -0.50 -0.15 -0.35 -0.35z"/>
  <path d="M23 18.75 c0 -0.15 0.10 -0.25 0.25 -0.25 0.15 0 0.25 0.10 0.25 0.25 0 0.15 -0.10 0.25 -0.25 0.25 -0.15 0 -0.25 -0.10 -0.25 -0.25z"/>
  <path d="M15.50 15.25 c0 -0.15 0.10 -0.25 0.25 -0.25 0.15 0 0.25 0.10 0.25 0.25 0 0.15 -0.10 0.25 -0.25 0.25 -0.15 0 -0.25 -0.10 -0.25 -0.25z"/>
  <path d="M34.50 11.15 c0 -0.55 3.45 -2.85 3.80 -2.50 0.15 0.15 -0.50 0.85 -1.45 1.55 -1.75 1.35 -2.35 1.60 -2.35 0.95z"/>
  <path d="M29.50 1 c0 -0.65 0.35 -1 1 -1 0.55 0 1 0.05 1 0.15 0 0.05 -0.45 0.50 -1 1 -0.95 0.80 -1 0.80 -1 -0.15z"/>
 </g>
 <g fill="#fbf7e1">
  <path d="M25 34.25 c0 -0.15 0.10 -0.25 0.25 -0.25 0.15 0 0.25 0.10 0.25 0.25 0 0.15 -0.10 0.25 -0.25 0.25 -0.15 0 -0.25 -0.10 -0.25 -0.25z"/>
  <path d="M3.50 30.80 c0 -0.10 0.40 -0.50 0.90 -0.85 0.75 -0.65 0.80 -0.60 0.15 0.20 -0.65 0.80 -1.05 1.05 -1.05 0.65z"/>
  <path d="M14.35 28.60 c-0.50 -0.50 -0.85 -1.20 -0.85 -1.50 0 -0.50 1.95 -1.90 2.20 -1.50 0.05 0.10 0.40 0.75 0.75 1.50 1.10 2.20 -0.45 3.30 -2.10 1.50z"/>
  <path d="M16 24.50 c0 -0.25 0.35 -0.50 0.80 -0.50 0.40 0 0.60 0.25 0.45 0.50 -0.15 0.30 -0.50 0.50 -0.80 0.50 -0.25 0 -0.45 -0.20 -0.45 -0.50z"/>
  <path d="M15.65 21.70 c-0.45 -1.15 0.55 -1.90 1.30 -1 0.65 0.80 0.35 1.80 -0.50 1.80 -0.25 0 -0.60 -0.35 -0.80 -0.80z"/>
  <path d="M21.50 21.50 c0 -0.25 0.35 -0.35 0.75 -0.20 0.40 0.20 0.75 0.40 0.75 0.50 0 0.10 -0.35 0.20 -0.75 0.20 -0.40 0 -0.75 -0.20 -0.75 -0.50z"/>
  <path d="M18.05 20.05 c-0.60 -0.80 -0.90 -1.80 -0.75 -2.25 0.45 -1.15 1.15 -1 0.85 0.20 -0.15 0.50 0.10 1.30 0.55 1.75 0.75 0.75 1.10 1.75 0.60 1.75 -0.15 0 -0.70 -0.65 -1.25 -1.45z"/>
  <path d="M15.50 19.25 c0 -0.15 0.10 -0.25 0.25 -0.25 0.15 0 0.25 0.10 0.25 0.25 0 0.15 -0.10 0.25 -0.25 0.25 -0.15 0 -0.25 -0.10 -0.25 -0.25z"/>
  <path d="M35.80 10.20 c2.60 -2.45 3.80 -3.30 4.05 -3 0.35 0.30 -1.75 2.10 -4.05 3.50 l-1.55 0.90 1.55 -1.40z"/>
  <path d="M27.50 2.75 c0 -0.15 0.10 -0.25 0.25 -0.25 0.15 0 0.25 0.10 0.25 0.25 0 0.15 -0.10 0.25 -0.25 0.25 -0.15 0 -0.25 -0.10 -0.25 -0.25z"/>
  <path d="M19.25 2 c0.15 -0.25 0.40 -0.50 0.55 -0.50 0.15 0 0.10 0.25 -0.05 0.50 -0.15 0.30 -0.40 0.50 -0.55 0.50 -0.15 0 -0.10 -0.20 0.05 -0.50z"/>
  <path d="M29.10 1 c0.60 -0.90 1.90 -1.40 1.90 -0.70 0 0.50 -1.40 1.70 -1.95 1.70 -0.40 0 -0.35 -0.35 0.05 -1z"/>
 </g>
</svg>