<?xml version="1.0" encoding="utf-8"?>
<!DOCTYPE svg PUBLIC "-//W3C//DTD SVG 1.0//EN" "http://www.w3.org/TR/2001/REC-SVG-20010904/DTD/svg10.dtd">
<svg version="1.0" xmlns="http://www.w3.org/2000/svg" width="40px" height="40px" viewBox="0 0 40 40" preserveAspectRatio="xMidYMid meet">
 <g fill="#0e0a0d">
  <path d="M7.75 39.05 c-0.55 -0.55 -2.35 -1.70 -4 -2.55 -1.65 -0.90 -3.15 -1.85 -3.35 -2.20 -0.20 -0.30 -0.40 -1.50 -0.40 -2.65 0 -1.60 0.20 -2.15 0.75 -2.15 0.40 0 0.75 -0.45 0.75 -1 0 -0.55 -0.35 -1 -0.75 -1 -0.80 0 -0.95 -1.35 -0.45 -3.95 0.40 -2 0.85 -1.95 2.15 0.20 0.80 1.40 0.85 1.75 0.30 1.75 -0.40 0 -0.75 0.35 -0.75 0.75 0 0.45 0.45 0.75 1.25 0.75 1.75 0 4.70 1.30 5.05 2.20 0.15 0.40 0.95 0.90 1.75 1.05 0.80 0.20 1.45 0.50 1.45 0.70 0 0.20 0.55 0.65 1.25 0.95 0.70 0.30 1.25 0.40 1.25 0.15 0 -0.25 1.35 0.25 3 1.10 2.95 1.55 3.85 2.80 2.15 2.90 -0.55 0 -0.65 0.15 -0.25 0.30 0.30 0.10 0.60 1 0.60 1.95 l0 1.70 -5.40 0 c-4.60 0 -5.50 -0.15 -6.35 -0.95z"/>
  <path d="M20 37 c0 -1.15 1.45 -1.35 2.40 -0.40 0.95 0.95 0.70 1.40 -0.90 1.40 -1.15 0 -1.50 -0.20 -1.50 -1z"/>
  <path d="M32 26.60 c0 -2.50 -0.90 -5.10 -1.75 -5.10 -0.30 0 -1.40 1.15 -2.45 2.55 -1.30 1.75 -2.05 2.40 -2.40 2.05 -0.50 -0.50 1.25 -4.40 2.35 -5.20 1.20 -0.85 -0.25 -0.80 -2 0.10 -1.10 0.55 -2.25 1 -2.65 1 -1.35 0 -0.25 -1.25 1.80 -2 1.10 -0.45 2.20 -0.95 2.40 -1.15 0.55 -0.50 -2.65 0.10 -5.20 1 -1.15 0.45 -2.25 0.65 -2.40 0.50 -0.50 -0.50 0.30 -1.35 1.35 -1.35 1 0 1.30 -0.80 0.45 -1.10 -0.30 -0.10 -0.10 -0.65 0.50 -1.25 0.55 -0.60 1 -1.20 1 -1.25 0 -0.10 -1.15 -0.25 -2.50 -0.30 -1.40 -0.05 -3.35 -0.45 -4.35 -0.85 -2.35 -1 -5.80 -0.95 -8.05 0.05 -5.15 2.30 -6 2.80 -6.60 3.95 -1.10 2.05 -1.50 1.45 -1.50 -2.25 0 -3.15 0.10 -3.50 1 -3.50 0.55 0 1 -0.20 1 -0.40 0 -0.25 0.85 -0.65 1.90 -0.95 l1.85 -0.50 -2.85 -0.10 c-1.80 -0.05 -2.90 -0.25 -2.90 -0.60 0 -0.70 1.50 -1.90 2.40 -1.95 0.35 0 1 -0.30 1.35 -0.70 0.60 -0.55 0.55 -0.85 -0.05 -1.75 -0.70 -0.95 -0.65 -1.05 0 -1.05 0.45 0 0.80 -0.35 0.80 -0.75 0 -0.60 0.35 -0.45 1.35 0.45 1.05 1 1.35 1.70 1.30 3.15 -0.05 1.55 0 1.65 0.30 0.65 0.25 -1 0.45 -1.10 0.80 -0.50 0.35 0.55 0.55 0.35 0.80 -1 0.20 -1 0.15 -2 -0.15 -2.35 -0.25 -0.35 -0.40 -0.90 -0.25 -1.25 0.15 -0.40 0.95 0.15 2.20 1.50 1.90 1.95 3.15 2.80 2.35 1.50 -0.20 -0.35 -0.15 -0.40 0.20 -0.20 0.35 0.20 0.60 1.25 0.60 2.35 0 2.15 1.15 2.75 1.75 0.95 0.30 -0.90 0.60 -1 2.85 -0.70 2.25 0.30 2.55 0.25 2.25 -0.45 -0.20 -0.50 -0.15 -1.35 0.10 -1.95 0.40 -1.05 0.40 -1.05 1.55 0.50 1.40 1.85 2.50 2.20 1.30 0.35 -1.15 -1.75 -1 -2.10 0.40 -0.80 0.65 0.65 1.35 1.65 1.50 2.20 0.20 0.75 1.40 1.65 3.55 2.70 2.60 1.25 3.25 1.40 3.05 0.75 -0.10 -0.50 -0.35 -1.65 -0.50 -2.60 -0.30 -1.75 -0.25 -1.75 0.80 0.50 1.05 2.15 1.10 2.20 1.40 1 0.30 -1.10 0.40 -1.15 0.75 -0.35 0.25 0.60 0.05 1.25 -0.65 2 -1.15 1.20 -1 3.75 0.20 4.20 0.95 0.35 0.90 4.35 0 5.10 -0.55 0.45 -0.65 1.30 -0.45 3.30 0.20 1.85 0.10 3 -0.35 3.50 -1.10 1.30 -1.50 0.85 -1.50 -1.65z"/>
  <path d="M34.85 24.35 c-0.55 -1.45 -0.45 -2.15 0.20 -1.50 0.30 0.30 0.45 0.95 0.35 1.45 -0.15 0.90 -0.20 0.90 -0.55 0.05z"/>
  <path d="M29.75 23.50 c0.15 -0.25 0.40 -0.50 0.55 -0.50 0.10 0 0.20 0.25 0.20 0.50 0 0.30 -0.25 0.50 -0.55 0.50 -0.25 0 -0.35 -0.20 -0.20 -0.50z"/>
  <path d="M15 6.15 c0 -0.25 -0.65 -1.10 -1.45 -1.95 -2.05 -2.20 -1.25 -3.30 0.90 -1.20 1.50 1.50 2.10 3.50 1.05 3.50 -0.25 0 -0.50 -0.15 -0.50 -0.35z"/>
  <path d="M18.15 2.75 c-0.15 -0.45 -0.15 -0.90 0 -1.10 0.50 -0.50 1.85 0.30 1.85 1.10 0 1 -1.45 1 -1.85 0z"/>
 </g>
 <g fill="#1a1720">
  <path d="M12.10 39.45 c0.10 -0.30 0.40 -0.50 0.65 -0.50 0.25 0 0.55 0.20 0.65 0.50 0.10 0.30 -0.20 0.55 -0.65 0.55 -0.45 0 -0.75 -0.25 -0.65 -0.55z"/>
  <path d="M14 38.50 c0 -1.75 0.65 -1.95 1.70 -0.45 0.50 0.80 1 0.95 1.65 0.70 0.80 -0.35 0.75 -0.45 -0.50 -0.90 -0.75 -0.30 -1.25 -0.85 -1.15 -1.20 0.15 -0.35 -0.85 -1.25 -2.35 -2.10 -2.95 -1.70 -2.85 -2.05 0.15 -0.55 1.10 0.55 2.55 1 3.30 1 0.85 0 1.40 0.30 1.55 0.95 0.15 0.55 0.65 1.05 1.20 1.20 0.65 0.15 0.95 0.70 0.95 1.55 0 1.25 -0.10 1.30 -3.25 1.30 l-3.25 0 0 -1.50z"/>
  <path d="M9 38.75 c0 -0.15 0.10 -0.25 0.25 -0.25 0.15 0 0.25 0.10 0.25 0.25 0 0.15 -0.10 0.25 -0.25 0.25 -0.15 0 -0.25 -0.10 -0.25 -0.25z"/>
  <path d="M10 38.35 c0 -0.35 0.25 -0.90 0.60 -1.25 0.75 -0.75 0.10 -1.40 -0.75 -0.70 -0.90 0.75 -1.95 0 -1.55 -1.10 0.30 -0.80 0.15 -0.85 -0.85 -0.55 -0.65 0.20 -1.40 0.55 -1.65 0.80 -0.85 0.75 -1.90 0.50 -1.70 -0.40 0.10 -0.50 0.50 -0.90 0.90 -0.90 0.40 0 0.80 -0.40 0.90 -0.95 0.15 -0.70 0.05 -0.80 -0.65 -0.40 -0.50 0.25 -1.30 0.35 -1.80 0.25 -0.75 -0.20 -0.95 0 -0.95 1.10 0 1.05 -0.20 1.30 -0.80 1.05 -0.45 -0.15 -1 -0.30 -1.25 -0.30 -0.25 0 -0.45 -0.55 -0.45 -1.25 0 -1.05 0.25 -1.25 1.55 -1.25 1 0 1.45 -0.20 1.30 -0.60 -0.10 -0.35 -0.80 -0.60 -1.55 -0.55 l-1.30 0.10 0.05 -3.75 c0.05 -3.55 0.10 -3.70 1.25 -3.70 0.65 0 1.20 0.30 1.20 0.65 0 0.35 0.45 1.15 1 1.75 0.55 0.60 1 1.25 1 1.55 0 0.60 1.25 1.05 3 1.05 1.10 0 1.50 0.30 1.95 1.50 0.50 1.45 0.45 1.50 -0.75 1.35 -0.65 -0.10 -1.55 -0.60 -1.95 -1.20 -0.90 -1.30 -3.75 -2.40 -3.75 -1.50 0 0.60 6.90 5.35 9.35 6.50 1.45 0.65 1.30 2.05 -0.25 2.25 -0.60 0.10 -1.10 0.40 -1.10 0.65 0 0.25 -0.20 0.45 -0.50 0.45 -0.25 0 -0.50 -0.30 -0.50 -0.65z"/>
  <path d="M32.10 26.60 c0 -1.35 -0.25 -2.95 -0.55 -3.50 -0.40 -0.75 -0.35 -1.15 0.20 -1.60 1.15 -0.95 0.95 -1.25 -1.50 -1.95 -2 -0.60 -2.40 -0.60 -2.90 0.10 -0.70 0.90 -4.30 2.85 -5.20 2.85 -0.35 0 -0.65 -0.25 -0.65 -0.55 0 -0.45 1.45 -1.20 4.90 -2.50 0.90 -0.35 1 -0.60 0.65 -1.30 -0.25 -0.50 -0.60 -1.25 -0.70 -1.70 -0.15 -0.45 -1.10 -1.30 -2.20 -1.90 l-1.90 -1.05 1.40 1.15 c2 1.65 1.80 2.85 -0.50 2.85 -1.70 0 -1.75 -0.05 -1 -0.90 1.15 -1.25 1.05 -1.60 -0.40 -1.60 -1.40 0 -1.65 -0.75 -0.40 -1.20 0.75 -0.30 0.75 -0.40 0.05 -1.10 -0.50 -0.55 -2 -0.85 -4.20 -1 -1.90 -0.10 -4.05 -0.30 -4.80 -0.50 -0.70 -0.15 -1.45 0 -1.65 0.25 -0.20 0.35 0.70 0.55 2.60 0.60 2.60 0 7.65 1.30 5.55 1.40 -0.45 0.05 -0.90 0.30 -1 0.60 -0.25 0.70 -3.40 0.10 -3.40 -0.60 0 -0.25 -0.55 -0.45 -1.25 -0.45 -0.70 0 -1.25 0.20 -1.25 0.45 0 0.20 -1.50 0.55 -3.35 0.70 -1.85 0.15 -3.45 0.50 -3.55 0.80 -0.10 0.30 -0.40 0.55 -0.60 0.55 -0.25 0 -1.05 0.55 -1.80 1.25 -2.35 2.15 -2.70 1.75 -2.70 -3.15 l0 -4.40 1.75 -0.70 c0.95 -0.40 1.75 -0.90 1.75 -1.15 0 -0.25 0.35 -0.35 0.75 -0.15 1.40 0.50 0.75 -0.60 -1.30 -2.25 -2 -1.60 -2 -2.40 0.10 -2.45 0.80 0 2.95 1.60 2.95 2.15 0 0.15 0.50 0.85 1.15 1.45 0.65 0.65 1.40 1.60 1.70 2.10 0.45 0.80 0.65 0.80 1.55 0.25 1.30 -0.80 1.40 -1.25 0.35 -1.65 -0.45 -0.15 -0.75 0 -0.75 0.45 0 0.40 -0.25 0.75 -0.55 0.75 -0.40 0 -0.45 -0.55 -0.25 -1.55 0.15 -0.90 0.05 -1.90 -0.25 -2.25 -1.25 -1.50 1.05 -0.65 2.50 0.90 0.85 0.90 1.55 1.35 1.55 1 0 -0.35 0.25 -0.50 0.50 -0.35 0.30 0.15 0.50 0.85 0.50 1.55 0 0.70 0.35 1.35 0.75 1.55 1.30 0.45 1.50 -0.25 0.60 -2.10 -1.05 -2.15 -1.05 -2.25 -0.10 -2.25 0.40 0 1.15 0.85 1.60 1.85 0.75 1.55 1.25 1.95 2.75 2.20 1.95 0.30 2 0.10 0.40 -1.80 -1.20 -1.40 -2.10 -4.35 -1.55 -4.90 0.60 -0.60 1.55 0 1.55 0.95 0 0.45 0.30 1.05 0.65 1.45 0.30 0.35 1.10 1.35 1.75 2.15 0.60 0.80 2.60 2.20 4.50 3.10 1.85 0.90 3.75 2 4.25 2.40 0.80 0.70 0.95 0.70 1.35 0.10 0.35 -0.55 0.50 -0.40 0.50 0.60 0 0.85 0.40 1.65 1 2 0.55 0.35 1 0.95 1 1.30 0 0.35 0.30 1.10 0.65 1.65 0.50 0.85 0.50 1.15 0 1.30 -0.35 0.15 -0.65 0.65 -0.65 1.20 0 0.50 -0.40 1.20 -0.90 1.50 -0.80 0.50 -0.85 0.85 -0.40 2.50 0.55 2.05 0 4.45 -1.05 4.80 -0.40 0.15 -0.60 -0.55 -0.55 -2.25z m1.40 -7.80 c0 -0.45 -1.10 -1.10 -2.75 -1.60 -1.50 -0.50 -2.75 -1.05 -2.75 -1.30 0 -0.20 -0.20 -0.40 -0.50 -0.40 -0.85 0 0.60 2.50 1.45 2.55 0.60 0 3.35 0.85 4.45 1.40 0.05 0 0.10 -0.30 0.10 -0.65z m-2.50 -4 c-0.70 -0.40 -1.45 -0.60 -1.65 -0.45 -0.60 0.40 0.70 1.15 1.90 1.10 0.90 0 0.85 -0.05 -0.25 -0.65z m-28.25 -0.30 c0.15 -0.25 -0.05 -0.50 -0.45 -0.50 -0.40 0 -0.90 0.25 -1.05 0.50 -0.15 0.30 0.05 0.50 0.45 0.50 0.40 0 0.90 -0.20 1.05 -0.50z m23.05 -0.75 c-1.25 -1.95 -1 -2.25 1.60 -2 l2.35 0.25 -2 -0.80 c-1.10 -0.45 -2.25 -0.80 -2.60 -0.85 -0.35 0 -0.70 -0.30 -0.85 -0.65 -0.15 -0.35 -0.70 -0.90 -1.30 -1.20 -1 -0.55 -1.05 -0.50 -0.50 0.50 0.75 1.40 0.45 1.65 -1.20 1 -1.80 -0.65 -4.30 -0.65 -4.30 0.05 0 0.30 0.30 0.45 0.70 0.30 1.45 -0.55 4.70 0.75 6.60 2.70 2.20 2.25 2.65 2.45 1.50 0.70z m-20.80 -0.55 c0 -0.10 -0.35 -0.20 -0.75 -0.20 -0.40 0 -0.75 0.20 -0.75 0.50 0 0.25 0.35 0.35 0.75 0.20 0.40 -0.20 0.75 -0.40 0.75 -0.50z m1.35 -0.55 c-0.20 -0.15 -0.50 -0.15 -0.70 0 -0.15 0.20 0 0.35 0.35 0.35 0.35 0 0.50 -0.15 0.35 -0.35z m1.50 -0.50 c-0.20 -0.15 -0.50 -0.15 -0.70 0 -0.15 0.20 0 0.35 0.35 0.35 0.35 0 0.50 -0.15 0.35 -0.35z m1.15 -1.15 c0 -0.25 -0.20 -0.50 -0.50 -0.50 -0.25 0 -0.50 0.25 -0.50 0.50 0 0.30 0.25 0.50 0.50 0.50 0.30 0 0.50 -0.20 0.50 -0.50z m-3.50 -2.50 c0 -0.25 -0.20 -0.50 -0.45 -0.50 -0.30 0 -0.65 0.25 -0.80 0.50 -0.15 0.30 0.05 0.50 0.45 0.50 0.45 0 0.80 -0.20 0.80 -0.50z m7 -0.25 c0 -0.15 -0.10 -0.25 -0.25 -0.25 -0.15 0 -0.25 0.10 -0.25 0.25 0 0.15 0.10 0.25 0.25 0.25 0.15 0 0.25 -0.10 0.25 -0.25z"/>
  <path d="M25.90 24.10 c1.05 -2.55 2.35 -4.05 3.45 -4 1.55 0.15 1.45 0.45 -0.75 2.85 -1.95 2.15 -3.35 2.75 -2.70 1.15z"/>
  <path d="M30 23.50 c0 -0.35 0.15 -0.50 0.35 -0.35 0.15 0.20 0.15 0.50 0 0.70 -0.20 0.15 -0.35 0 -0.35 -0.35z"/>
  <path d="M22 19.75 c0 -0.15 0.10 -0.25 0.25 -0.25 0.15 0 0.25 0.10 0.25 0.25 0 0.15 -0.10 0.25 -0.25 0.25 -0.15 0 -0.25 -0.10 -0.25 -0.25z"/>
  <path d="M24.90 18.65 c0.35 -0.15 0.80 -0.10 0.95 0.05 0.20 0.15 -0.10 0.30 -0.65 0.25 -0.55 0 -0.70 -0.15 -0.30 -0.30z"/>
  <path d="M25.50 17.75 c0 -0.15 0.10 -0.25 0.25 -0.25 0.15 0 0.25 0.10 0.25 0.25 0 0.15 -0.10 0.25 -0.25 0.25 -0.15 0 -0.25 -0.10 -0.25 -0.25z"/>
  <path d="M24 7 c0 -0.35 0.15 -0.50 0.35 -0.35 0.15 0.20 0.15 0.50 0 0.70 -0.20 0.15 -0.35 0 -0.35 -0.35z"/>
 </g>
 <g fill="#2d2924">
  <path d="M8.35 39.30 c-0.15 -0.40 -2.10 -1.65 -4.30 -2.80 -2.90 -1.50 -4.05 -2.40 -4.05 -3.05 0 -0.70 0.35 -0.95 1.45 -0.95 1.05 0 1.50 -0.30 1.80 -1.10 0.20 -0.70 0.40 -0.90 0.60 -0.50 0.10 0.30 0.55 0.60 0.95 0.60 0.40 0 0.70 0.20 0.70 0.45 0 0.60 -1.25 1.60 -1.60 1.30 -0.15 -0.15 -0.55 0.10 -0.90 0.55 -0.60 0.65 -0.55 0.85 0 1.20 0.50 0.30 0.85 0.20 1.15 -0.25 0.20 -0.40 0.70 -0.60 1.10 -0.45 0.50 0.20 0.75 0 0.75 -0.70 0 -1 0.05 -1 1.80 -0.30 2.65 1.10 3.15 1.75 2.20 2.75 -0.45 0.40 -1.05 0.70 -1.35 0.60 -1.20 -0.40 -1.10 0.85 0.10 1.65 0.70 0.45 1.25 1 1.25 1.25 0 0.75 -1.35 0.50 -1.65 -0.25z m-0.85 -3.15 c1.60 -1.40 1.30 -2.20 -0.50 -1.35 -1.50 0.75 -1.80 1.25 -1.15 1.85 0.45 0.50 0.50 0.45 1.65 -0.50z"/>
  <path d="M12.10 39.55 c0.10 -0.35 0.35 -0.60 0.55 -0.60 0.60 0.05 0.45 0.75 -0.15 1 -0.35 0.10 -0.55 -0.10 -0.40 -0.40z"/>
  <path d="M14 38.50 c0 -1.05 0.20 -1.40 0.70 -1.20 0.40 0.15 0.85 0.60 1 1 0.15 0.40 0.75 0.70 1.30 0.70 1.90 0 1 0.80 -1 0.85 -1.90 0.10 -2 0 -2 -1.35z"/>
  <path d="M17.75 38.20 c-1.25 -1.35 -1.50 -2.05 -1.35 -3.35 l0.20 -1.70 1.70 0.80 c0.90 0.45 1.65 1.10 1.70 1.45 0 0.30 0.30 0.60 0.65 0.60 0.65 0 4.35 3.15 4.35 3.70 0 0.15 -1.30 0.30 -2.85 0.25 -2.65 -0.05 -3.05 -0.20 -4.40 -1.75z"/>
  <path d="M10 38.50 c0 -0.80 1.65 -2.50 2.50 -2.50 0.60 0 0.60 0.10 0.05 0.45 -0.55 0.35 -0.55 0.45 0 0.70 0.50 0.20 0.35 0.40 -0.40 0.60 -0.65 0.20 -1.15 0.55 -1.15 0.80 0 0.25 -0.20 0.45 -0.50 0.45 -0.25 0 -0.50 -0.20 -0.50 -0.50z"/>
  <path d="M12.50 34.10 c-1.25 -0.70 -2.30 -1.50 -2.40 -1.70 -0.10 -0.20 -0.45 -0.40 -0.80 -0.40 -0.35 0 -1.30 -0.55 -2.10 -1.25 -0.80 -0.70 -2.30 -1.55 -3.30 -1.85 -1.30 -0.35 -2.10 -1 -2.50 -2 -0.35 -0.75 -0.80 -1.40 -1 -1.40 -0.25 0 -0.40 -1 -0.40 -2.25 0 -1.25 0.20 -2.25 0.45 -2.25 0.50 0 2.05 3.05 2.05 4 0 0.30 0.20 0.45 0.45 0.25 0.25 -0.15 1.10 0.30 1.85 1 0.70 0.65 1.50 1.10 1.75 0.95 0.25 -0.15 0.45 -0.05 0.45 0.20 0 0.25 0.40 0.60 0.90 0.80 1.65 0.60 6.70 3.65 7.15 4.35 0.55 0.85 0.60 2.95 0.10 2.95 -0.25 -0.05 -1.40 -0.65 -2.65 -1.40z"/>
  <path d="M0 31.25 c0 -0.15 0.10 -0.25 0.25 -0.25 0.15 0 0.25 0.10 0.25 0.25 0 0.15 -0.10 0.25 -0.25 0.25 -0.15 0 -0.25 -0.10 -0.25 -0.25z"/>
  <path d="M2 30.25 c0 -0.15 0.10 -0.25 0.25 -0.25 0.15 0 0.25 0.10 0.25 0.25 0 0.15 -0.10 0.25 -0.25 0.25 -0.15 0 -0.25 -0.10 -0.25 -0.25z"/>
  <path d="M0.65 29.15 c0.20 -0.15 0.50 -0.15 0.70 0 0.15 0.20 0 0.35 -0.35 0.35 -0.35 0 -0.50 -0.15 -0.35 -0.35z"/>
  <path d="M32.15 27.15 c0.20 -1.05 0.55 -1.95 0.80 -2.05 0.25 -0.10 0.05 -0.60 -0.50 -1.15 -1.15 -1.15 -1.25 -2.35 -0.20 -2.75 0.40 -0.20 0.75 -0.60 0.75 -1 0 -0.85 1.30 -0.95 1.80 -0.15 0.20 0.35 -0.10 0.95 -0.65 1.40 -0.75 0.60 -0.95 1.05 -0.65 1.80 0.65 1.55 0.55 3.90 -0.20 4.90 -1.05 1.35 -1.45 1 -1.15 -1z"/>
  <path d="M25 26 c0 -1 2.55 -4.50 3.25 -4.50 0.40 0 0.75 -0.20 0.75 -0.50 0 -0.25 0.35 -0.50 0.75 -0.50 0.50 0 -0.05 1.05 -1.60 3 -2.20 2.85 -3.15 3.60 -3.15 2.50z"/>
  <path d="M29.35 24.50 c0.30 -1.10 1.15 -1.90 1.15 -1.05 0 0.85 -0.60 2.05 -1 2.05 -0.25 0 -0.30 -0.45 -0.15 -1z"/>
  <path d="M34.80 23.75 c-0.15 -0.40 -0.05 -0.75 0.20 -0.75 0.30 0 0.50 0.35 0.50 0.75 0 0.40 -0.10 0.75 -0.20 0.75 -0.10 0 -0.30 -0.35 -0.50 -0.75z"/>
  <path d="M21.10 22.40 c0.25 -0.70 3.20 -2.35 4.30 -2.40 1.30 -0.05 0.50 0.95 -1.65 1.95 -2.60 1.20 -2.90 1.25 -2.65 0.45z"/>
  <path d="M19.50 20 c0 -0.30 0.30 -0.60 0.65 -0.70 2 -0.60 2.55 -0.95 2 -1.15 -1.10 -0.40 -0.70 -1.15 0.60 -1.15 0.70 0 1.25 -0.20 1.25 -0.50 0 -0.25 0.25 -0.50 0.50 -0.50 0.30 0 0.50 0.35 0.50 0.75 0 0.40 0.25 0.75 0.50 0.75 0.30 0 0.50 0.35 0.50 0.75 0 0.40 -0.45 0.75 -1.05 0.75 -0.55 0 -1.40 0.20 -1.85 0.45 -1.55 0.75 -3.60 1.10 -3.60 0.55z"/>
  <path d="M0 18.30 c0 -1.35 0.35 -1.95 1.75 -3 2.65 -2.05 4.65 -2.70 9.35 -3.10 3.50 -0.25 4.75 -0.15 6.95 0.60 2.65 0.90 3.05 1 4.35 1.15 0.30 0 0.60 0.30 0.60 0.60 0 0.40 -0.80 0.50 -2.60 0.25 -6.75 -0.85 -10 -0.90 -12.25 -0.30 -3.50 0.95 -6.60 2.80 -6.95 4.25 -0.45 1.80 -1.20 1.55 -1.20 -0.45z"/>
  <path d="M30.20 19.50 c-0.30 -0.30 -1 -0.60 -1.60 -0.75 -1.65 -0.30 -2.10 -0.70 -2.10 -1.90 l0.05 -1.10 0.85 1 c0.45 0.55 1.80 1.30 3 1.65 1.15 0.35 2.10 0.85 2.10 1.10 0 0.65 -1.65 0.65 -2.30 0z"/>
  <path d="M29.15 16.65 c-1.35 -0.50 -0.65 -1.50 0.85 -1.25 0.85 0.10 1.50 0.50 1.50 0.90 0 0.70 -1.15 0.85 -2.35 0.35z"/>
  <path d="M31.70 15.05 c-1.50 -0.70 -2.25 -0.80 -2.95 -0.40 -0.70 0.35 -1 0.35 -1.15 -0.05 -0.10 -0.35 -0.50 -0.60 -0.90 -0.60 -0.40 0 -0.70 -0.10 -0.70 -0.20 0 -0.10 -0.15 -0.60 -0.30 -1.05 -0.30 -0.75 -0.05 -0.80 2.05 -0.45 3.10 0.45 2.65 -0.35 -0.80 -1.60 -2.45 -0.90 -4.95 -3.10 -4.95 -4.35 0 -0.35 0.25 -0.20 0.55 0.25 0.25 0.50 1 1.15 1.60 1.50 0.95 0.45 1 0.45 0.55 -0.15 -0.30 -0.40 -0.70 -1.15 -0.90 -1.65 -0.35 -0.95 -0.30 -0.95 0.70 -0.05 0.55 0.50 1 1.25 1 1.70 0 1.05 1.75 2.55 2.95 2.55 0.50 0 1.50 0.45 2.20 1 2.10 1.65 2.15 1.50 1.05 -2.75 -0.25 -1 -0.25 -1 0.50 -0.05 0.45 0.55 0.80 1.40 0.80 1.90 0 1.15 0.85 1.20 1.10 0.05 0.10 -0.60 0.30 -0.70 0.55 -0.35 0.15 0.30 -0.10 1.10 -0.65 1.70 -1.25 1.45 -1.25 1.85 0 2.60 0.55 0.35 1 0.80 1 1 0 0.65 -1.10 0.45 -3.30 -0.55z m-0.20 -1.80 c0 -0.15 -0.10 -0.25 -0.25 -0.25 -0.15 0 -0.25 0.10 -0.25 0.25 0 0.15 0.10 0.25 0.25 0.25 0.15 0 0.25 -0.10 0.25 -0.25z"/>
  <path d="M0.50 14 c0 -0.25 0.25 -0.60 0.55 -0.80 0.40 -0.25 0.35 -0.45 -0.20 -0.80 -0.45 -0.20 -0.75 -1.05 -0.75 -1.80 0.05 -1.05 0.40 -1.60 1.50 -2.05 1.80 -0.80 2.60 -0.20 2 1.45 -0.30 0.75 -0.55 0.95 -0.80 0.60 -0.20 -0.35 -0.60 -0.60 -0.85 -0.60 -0.30 0 -0.05 0.80 0.55 1.75 1.15 1.85 1.25 1.70 -1.25 2.50 -0.40 0.10 -0.75 0 -0.75 -0.25z"/>
  <path d="M20.90 12.40 c-2.10 -1.10 -2.45 -1.90 -0.90 -1.90 1.05 0 3 1.65 3 2.50 0 0.60 0.15 0.65 -2.10 -0.60z"/>
  <path d="M3.80 12.10 c-0.15 -0.30 0.15 -0.60 0.75 -0.75 0.60 -0.15 0.95 -0.05 0.80 0.30 -0.25 0.75 -1.20 1 -1.55 0.45z"/>
  <path d="M6 11.80 c0 -0.50 0.40 -0.80 1.10 -0.80 0.60 0 0.95 0.05 0.85 0.15 -0.10 0.05 -0.60 0.45 -1.05 0.80 -0.75 0.60 -0.90 0.55 -0.90 -0.15z"/>
  <path d="M9.25 11 c-0.15 -0.25 0.15 -0.50 0.75 -0.50 0.60 0 0.90 0.25 0.75 0.50 -0.15 0.30 -0.50 0.50 -0.75 0.50 -0.25 0 -0.60 -0.20 -0.75 -0.50z"/>
  <path d="M15.25 11 c-0.90 -0.40 -0.90 -0.45 0.25 -0.45 0.70 0 1.60 0.20 2 0.45 0.60 0.40 0.60 0.50 -0.25 0.45 -0.55 0 -1.45 -0.20 -2 -0.45z"/>
  <path d="M20 9.50 c-1.10 -0.35 -1.05 -0.40 0.65 -0.45 1 -0.05 1.85 0.20 1.85 0.45 0 0.55 -0.70 0.55 -2.50 0z"/>
  <path d="M5 9.25 c0 -0.15 0.10 -0.25 0.25 -0.25 0.15 0 0.25 0.10 0.25 0.25 0 0.15 -0.10 0.25 -0.25 0.25 -0.15 0 -0.25 -0.10 -0.25 -0.25z"/>
  <path d="M8 8.40 c0 -0.60 0.05 -0.95 0.15 -0.85 0.05 0.10 0.45 0.60 0.80 1.10 0.60 0.70 0.55 0.85 -0.15 0.85 -0.50 0 -0.80 -0.40 -0.80 -1.10z"/>
  <path d="M10 9.30 c0 -0.10 0.35 -0.45 0.75 -0.80 0.60 -0.50 0.75 -0.50 0.75 0.20 0 0.45 -0.35 0.80 -0.75 0.80 -0.40 0 -0.75 -0.10 -0.75 -0.20z"/>
  <path d="M12.65 8.25 c-0.75 -0.85 -0.85 -1.95 -0.15 -1.50 0.30 0.15 0.50 -0.05 0.50 -0.50 0 -0.45 0.25 -0.65 0.50 -0.50 0.30 0.20 0.50 0.70 0.40 1.15 -0.05 0.50 0.05 1.15 0.25 1.50 0.55 0.85 -0.75 0.75 -1.50 -0.15z"/>
  <path d="M3.50 7.50 c0 -0.25 0.20 -0.50 0.45 -0.50 0.30 0 0.65 0.25 0.80 0.50 0.15 0.30 -0.05 0.50 -0.45 0.50 -0.45 0 -0.80 -0.20 -0.80 -0.50z"/>
  <path d="M9.35 7.70 c-0.20 -0.20 -0.35 -0.70 -0.35 -1.15 0 -0.55 0.15 -0.60 0.55 -0.20 0.30 0.30 0.50 0.80 0.35 1.15 -0.10 0.30 -0.35 0.40 -0.55 0.20z"/>
  <path d="M15.40 6.50 c-0.50 -0.85 -0.65 -1.60 -0.35 -1.75 0.70 -0.45 1.30 0.10 1.85 1.75 0.75 2.05 -0.35 2.05 -1.50 0z"/>
  <path d="M4.75 6.50 c-0.90 -0.95 -0.85 -1 0.15 -1 0.75 0 1.10 0.30 1.10 1 0 0.55 -0.10 1 -0.15 1 -0.10 0 -0.60 -0.45 -1.10 -1z"/>
  <path d="M10.65 6.15 c0.20 -0.15 0.50 -0.15 0.70 0 0.15 0.20 0 0.35 -0.35 0.35 -0.35 0 -0.50 -0.15 -0.35 -0.35z"/>
  <path d="M1.55 3.85 c-0.60 -0.75 -0.25 -1.35 0.80 -1.35 0.35 0 0.65 0.45 0.65 1 0 1.15 -0.65 1.30 -1.45 0.35z"/>
  <path d="M12.65 3.15 c-0.70 -0.25 -0.90 -1.65 -0.25 -1.65 0.25 0 0.85 0.45 1.35 1 0.90 1 0.40 1.30 -1.10 0.65z"/>
 </g>
 <g fill="#27293a">
  <path d="M12.25 39.50 c0.15 -0.25 0.40 -0.50 0.55 -0.50 0.10 0 0.20 0.25 0.20 0.50 0 0.30 -0.25 0.50 -0.55 0.50 -0.25 0 -0.35 -0.20 -0.20 -0.50z"/>
  <path d="M14.10 38.50 c-0.15 -1.70 0.60 -2 1.40 -0.50 0.30 0.55 1 1 1.50 1 0.55 0 1 0.25 1 0.50 0 0.30 -0.85 0.50 -1.90 0.50 -1.75 0 -1.90 -0.10 -2 -1.50z"/>
  <path d="M10 38.70 c0 -0.15 0.35 -0.75 0.80 -1.40 0.85 -1.40 0.15 -2.30 -1.05 -1.30 -0.40 0.35 -0.75 0.45 -0.75 0.20 0 -0.20 -0.25 -0.15 -0.60 0.20 -0.75 0.75 -1.40 0.80 -1.40 0.10 0 -0.25 0.35 -0.50 0.75 -0.50 0.40 0 0.75 -0.45 0.75 -0.95 0 -0.95 -0.10 -0.95 -1.75 -0.25 -1.05 0.40 -1.75 0.50 -1.75 0.20 0 -0.25 0.25 -0.50 0.50 -0.50 0.30 0 0.50 -0.45 0.50 -1.05 0 -0.55 0.15 -0.95 0.40 -0.85 0.20 0.15 1.10 0.50 2 0.85 0.85 0.35 1.60 0.85 1.60 1.05 0 0.20 0.80 0.75 1.75 1.20 1 0.50 1.65 1.05 1.50 1.30 -0.30 0.50 -3.25 2.05 -3.25 1.70z"/>
  <path d="M16.75 37 c-0.80 -0.80 -1.20 -1.50 -0.85 -1.50 0.30 0 0.80 0.45 1.10 1 0.30 0.55 1 1 1.50 1 0.55 0 1 0.25 1 0.50 0 0.95 -1.35 0.50 -2.75 -1z"/>
  <path d="M6 37.50 c-0.40 -0.25 -0.50 -0.50 -0.25 -0.50 0.30 0 0.85 0.25 1.25 0.50 0.40 0.25 0.55 0.50 0.25 0.50 -0.25 0 -0.85 -0.25 -1.25 -0.50z"/>
  <path d="M1.40 35.10 c-1.50 -0.90 -1.95 -1.95 -0.50 -1.15 1.45 0.80 2.90 2 2.35 2 -0.25 0 -1.10 -0.35 -1.85 -0.85z"/>
  <path d="M14 34.75 c0 -0.15 0.10 -0.25 0.25 -0.25 0.15 0 0.25 0.10 0.25 0.25 0 0.15 -0.10 0.25 -0.25 0.25 -0.15 0 -0.25 -0.10 -0.25 -0.25z"/>
  <path d="M2 33.55 c0 -0.30 0.25 -0.65 0.50 -0.80 0.30 -0.15 0.50 -0.75 0.50 -1.30 0 -1.10 0.40 -1.20 1.70 -0.20 1.05 0.80 0.65 1.75 -0.75 1.75 -0.50 0 -0.95 0.25 -0.95 0.50 0 0.30 -0.20 0.50 -0.50 0.50 -0.25 0 -0.50 -0.20 -0.50 -0.45z"/>
  <path d="M12 33.75 c0 -0.15 0.10 -0.25 0.25 -0.25 0.15 0 0.25 0.10 0.25 0.25 0 0.15 -0.10 0.25 -0.25 0.25 -0.15 0 -0.25 -0.10 -0.25 -0.25z"/>
  <path d="M10 32.50 c0 -0.25 0.35 -0.35 0.75 -0.20 0.40 0.20 0.75 0.40 0.75 0.50 0 0.10 -0.35 0.20 -0.75 0.20 -0.40 0 -0.75 -0.20 -0.75 -0.50z"/>
  <path d="M0 30.25 c0 -1.35 1.05 -1.65 1.95 -0.60 0.40 0.55 0.25 0.80 -0.70 1.25 -1.15 0.55 -1.25 0.50 -1.25 -0.65z"/>
  <path d="M6.80 30.45 c-0.95 -0.95 -0.95 -0.95 0.85 -0.95 1.50 0 1.85 0.20 1.85 1 0 1.30 -1.45 1.25 -2.70 -0.05z"/>
  <path d="M2.35 27.75 c0.15 -0.50 0 -0.75 -0.40 -0.65 -0.40 0.10 -0.75 -0.35 -0.85 -0.95 -0.15 -0.90 0.05 -1.15 0.85 -1.15 0.60 0 1.05 0.30 1.05 0.75 0 0.40 0.25 0.75 0.50 0.75 0.30 0 0.50 0.45 0.50 1 0 0.65 -0.35 1 -1 1 -0.65 0 -0.90 -0.25 -0.65 -0.75z"/>
  <path d="M32.05 23.65 c-0.60 -1.65 -0.60 -1.90 0.25 -2.50 0.80 -0.60 0.75 -0.70 -0.75 -1.20 -1.10 -0.40 -1.45 -0.70 -1.05 -0.95 0.65 -0.40 3.35 0.30 4.15 1 0.25 0.20 -0.05 0.85 -0.65 1.40 -0.90 0.80 -1 1.20 -0.55 2 0.75 1.35 0.70 2.10 -0.10 2.10 -0.35 0 -0.95 -0.85 -1.30 -1.85z"/>
  <path d="M26.30 23.40 c1.45 -2.50 2.25 -3.30 3.20 -3.05 0.95 0.25 0.95 0.35 -0.40 1.90 -1.30 1.60 -3.60 2.50 -2.80 1.15z"/>
  <path d="M20.50 22.65 c0 -0.20 0.45 -0.70 1.05 -1.05 0.90 -0.60 1 -0.55 0.85 0.25 -0.15 0.85 -1.90 1.60 -1.90 0.80z"/>
  <path d="M26 20 c0 -0.25 0.35 -0.50 0.80 -0.50 0.40 0 0.60 0.25 0.45 0.50 -0.15 0.30 -0.50 0.50 -0.80 0.50 -0.25 0 -0.45 -0.20 -0.45 -0.50z"/>
  <path d="M21 19.55 c0 -0.30 0.35 -0.55 0.75 -0.55 0.90 0 1 -0.80 0.15 -1.20 -0.45 -0.15 -0.30 -0.55 0.45 -1.20 1.30 -1.15 1.05 -1.60 -0.95 -1.60 -0.75 0 -1.40 -0.25 -1.40 -0.55 0 -0.30 0.30 -0.45 0.70 -0.30 0.40 0.15 0.80 0.10 0.90 -0.15 0.25 -0.80 3.40 1.55 3.40 2.50 0 0.55 0.25 1.10 0.50 1.25 0.95 0.60 0.50 1.10 -1.10 1.40 -0.90 0.15 -2.05 0.40 -2.50 0.60 -0.55 0.20 -0.90 0.15 -0.90 -0.20z"/>
  <path d="M27.25 18.15 c-0.40 -0.40 -0.75 -1.10 -0.75 -1.55 0.05 -0.70 0.20 -0.70 0.95 0.20 0.45 0.60 1.30 1.20 1.85 1.30 0.85 0.15 0.85 0.20 -0.20 0.50 -0.70 0.20 -1.40 0.05 -1.85 -0.45z"/>
  <path d="M34.25 18.50 c-0.15 -0.25 -1.50 -0.85 -3 -1.30 -3.80 -1.20 -3.75 -2.35 0 -1.45 1.50 0.35 2.75 0.55 2.75 0.45 0 -0.10 -1.05 -0.60 -2.30 -1.15 -1.85 -0.85 -2.45 -0.90 -3.25 -0.40 -0.90 0.50 -1.15 0.40 -2.25 -0.90 -0.90 -1.15 -1.05 -1.55 -0.45 -1.65 0.35 -0.10 1.10 0.05 1.60 0.30 0.50 0.25 1.35 0.30 1.90 0.10 0.95 -0.35 0.95 -0.35 0 -0.90 -0.55 -0.30 -0.85 -0.70 -0.65 -0.85 0.20 -0.20 1.05 0.15 1.90 0.75 1.30 0.95 1.70 1 2 0.45 0.25 -0.35 0.60 -0.50 0.80 -0.30 0.20 0.15 0.10 0.65 -0.25 1.05 -0.45 0.55 -0.40 0.85 0.20 1.50 0.45 0.45 1.05 0.80 1.35 0.80 0.30 0 0.40 0.45 0.25 0.95 -0.15 0.60 0.05 1.10 0.45 1.25 0.90 0.35 0.90 1.80 0 1.80 -0.40 0 -0.85 -0.20 -1.05 -0.50z m-2.75 -5.25 c0 -0.15 -0.10 -0.25 -0.25 -0.25 -0.15 0 -0.25 0.10 -0.25 0.25 0 0.15 0.10 0.25 0.25 0.25 0.15 0 0.25 -0.10 0.25 -0.25z"/>
  <path d="M0.35 17.40 c0.20 -0.35 0.40 -0.85 0.40 -1.05 0 -0.40 1.45 -1.35 4.05 -2.55 1.95 -0.95 7.20 -1.80 7.20 -1.20 0 0.20 -0.75 0.40 -1.70 0.40 -0.95 0 -1.90 0.25 -2.05 0.50 -0.15 0.30 -0.95 0.50 -1.75 0.50 -0.75 0 -1.50 0.35 -1.70 0.75 -0.15 0.40 -0.60 0.75 -1.05 0.75 -0.40 0 -0.75 0.35 -0.75 0.75 0 0.40 -0.35 0.75 -0.75 0.75 -0.40 0 -0.75 0.25 -0.75 0.50 0 0.30 -0.35 0.50 -0.80 0.50 -0.50 0 -0.60 -0.20 -0.35 -0.60z"/>
  <path d="M25.50 15.15 c-0.40 -0.15 -1.30 -0.70 -2 -1.15 -2.75 -1.95 -4.95 -2.90 -5.90 -2.65 -0.60 0.15 -1.70 -0.10 -2.55 -0.50 -1.10 -0.55 -1.60 -0.60 -2.05 -0.15 -0.40 0.40 -0.65 0.35 -1 -0.20 -0.40 -0.65 -0.55 -0.60 -1.20 0.25 -0.70 0.95 -0.75 0.95 -2.40 -0.75 -0.90 -0.95 -2.85 -2.80 -4.30 -4.10 -2.65 -2.35 -3.20 -3.40 -1.85 -3.40 1.70 0 4.10 1.95 5.95 4.95 1.25 2 1.45 2.10 2.25 1.35 0.65 -0.60 1 -0.65 1.45 -0.20 0.30 0.30 0.70 0.45 0.85 0.30 0.15 -0.15 -0.50 -1.15 -1.50 -2.20 -1.15 -1.25 -1.60 -2 -1.20 -2.15 0.35 -0.10 1.15 0.45 1.75 1.20 1 1.25 1.10 1.30 1.35 0.45 0.15 -0.70 0.25 -0.60 0.30 0.35 0.05 1.65 1.60 3.20 2.45 2.35 0.65 -0.65 -0.30 -2.80 -1.95 -4.45 -0.90 -0.90 -0.90 -0.95 0 -0.95 1.05 0 1.80 0.80 3 3.10 0.60 1.20 1.25 1.70 2.55 1.95 0.95 0.20 1.80 0.30 1.90 0.20 0.10 -0.10 -0.40 -0.95 -1.10 -1.90 -0.75 -0.95 -1.55 -2.45 -1.80 -3.30 -0.35 -1.35 -0.30 -1.55 0.55 -1.55 0.50 0 0.95 0.20 0.95 0.45 0 0.25 0.80 1.60 1.75 3 1.90 2.75 2.20 3.55 0.90 2.50 -0.75 -0.65 -0.80 -0.55 -0.45 0.70 0.35 1.40 0.30 1.40 -1.55 1.10 -1.05 -0.20 -2.25 -0.45 -2.70 -0.55 -1 -0.25 -1.65 1.10 -0.85 1.60 0.35 0.20 0.65 0.15 0.80 -0.20 0.30 -1 4.30 0.65 6.60 2.80 2.25 2.10 2.35 2.25 1 1.75z m-21 -10.40 c0 -0.15 -0.10 -0.25 -0.25 -0.25 -0.15 0 -0.25 0.10 -0.25 0.25 0 0.15 0.10 0.25 0.25 0.25 0.15 0 0.25 -0.10 0.25 -0.25z"/>
  <path d="M0 14.40 c0 -0.45 0.30 -0.90 0.65 -1.05 0.45 -0.15 0.45 -0.35 -0.05 -0.95 -0.85 -1.05 -0.50 -2.75 0.70 -3.65 1.30 -0.95 2.15 -0.95 2.55 0.15 0.15 0.45 0.65 1.25 1.05 1.75 0.60 0.70 0.65 1 0.15 1.50 -0.45 0.45 -0.85 0.25 -1.75 -0.90 -0.65 -0.85 -1.35 -1.35 -1.55 -1.15 -0.20 0.20 0.10 0.95 0.70 1.70 1.10 1.45 1 2.20 -0.40 2.20 -0.45 0 -1.10 0.25 -1.45 0.60 -0.45 0.45 -0.60 0.40 -0.60 -0.20z"/>
  <path d="M15.90 14.15 c-1.35 -0.35 -1.55 -1.65 -0.25 -1.65 2 0 3.30 0.55 3 1.30 -0.25 0.70 -1.10 0.80 -2.75 0.35z"/>
  <path d="M6 11.50 c0 -0.55 -0.20 -1 -0.50 -1 -0.25 0 -0.50 -0.35 -0.50 -0.75 0 -0.90 0.70 -0.95 2.05 -0.25 1.25 0.70 1.20 1.60 -0.05 2.40 -0.90 0.55 -1 0.50 -1 -0.40z"/>
  <path d="M27.15 10.65 c0.20 -0.15 0.50 -0.15 0.70 0 0.15 0.20 0 0.35 -0.35 0.35 -0.35 0 -0.50 -0.15 -0.35 -0.35z"/>
 </g>
 <g fill="#393a51">
  <path d="M16 39.45 c0 -0.25 0.25 -0.35 0.50 -0.20 0.30 0.15 0.50 0.40 0.50 0.55 0 0.10 -0.20 0.20 -0.50 0.20 -0.25 0 -0.50 -0.25 -0.50 -0.55z"/>
  <path d="M12.50 39.25 c0 -0.15 0.10 -0.25 0.25 -0.25 0.15 0 0.25 0.10 0.25 0.25 0 0.15 -0.10 0.25 -0.25 0.25 -0.15 0 -0.25 -0.10 -0.25 -0.25z"/>
  <path d="M14.55 38.55 c-0.35 -0.25 -0.55 -0.75 -0.45 -1.10 0.15 -0.50 0.40 -0.35 0.85 0.45 0.65 1.20 0.60 1.30 -0.40 0.65z"/>
  <path d="M10.50 38.20 c0 -0.25 0.35 -0.85 0.75 -1.35 0.50 -0.70 0.90 -0.80 1.50 -0.50 0.75 0.45 0.75 0.55 0.05 1.10 -0.45 0.40 -0.80 0.50 -0.80 0.30 0 -0.20 -0.35 -0.10 -0.75 0.25 -0.40 0.35 -0.75 0.45 -0.75 0.20z"/>
  <path d="M14.50 35.25 c0 -0.15 0.10 -0.25 0.25 -0.25 0.15 0 0.25 0.10 0.25 0.25 0 0.15 -0.10 0.25 -0.25 0.25 -0.15 0 -0.25 -0.10 -0.25 -0.25z"/>
  <path d="M6 33.55 c0 -0.30 0.25 -0.65 0.50 -0.80 0.30 -0.15 0.50 0.05 0.50 0.45 0 0.45 -0.20 0.80 -0.50 0.80 -0.25 0 -0.50 -0.20 -0.50 -0.45z"/>
  <path d="M3.50 32 c0 -0.90 0.15 -0.95 1 -0.50 1.10 0.60 0.90 1.50 -0.30 1.50 -0.40 0 -0.70 -0.45 -0.70 -1z"/>
  <path d="M32.10 23.40 c-0.50 -1.40 -0.50 -1.75 0.20 -2.25 0.70 -0.50 0.55 -0.70 -1.05 -1.35 -1.05 -0.45 -2.25 -0.80 -2.70 -0.85 -0.60 0 -0.55 -0.10 0.20 -0.40 0.60 -0.25 1.70 -0.15 2.75 0.20 0.95 0.35 2.20 0.80 2.75 1 0.95 0.30 0.95 0.35 -0.20 1.30 -1.05 0.85 -1.10 1.15 -0.60 2.25 0.70 1.55 0.70 1.70 -0.10 1.70 -0.35 0 -0.90 -0.75 -1.25 -1.60z"/>
  <path d="M26 24 c0 -0.25 0.40 -0.85 0.90 -1.35 0.55 -0.50 1.10 -1.35 1.35 -1.90 0.20 -0.60 0.45 -0.75 0.60 -0.40 0.10 0.35 0.60 0.45 1.05 0.30 0.45 -0.20 0.10 0.55 -0.90 1.75 -1.65 1.95 -3 2.70 -3 1.60z"/>
  <path d="M24 21 c0 -0.60 2.40 -1.60 3.20 -1.35 0.30 0.10 -0.15 0.55 -1.05 1 -1.85 1 -2.15 1.05 -2.15 0.35z"/>
  <path d="M23 18.75 c0 -0.15 0.10 -0.25 0.25 -0.25 0.15 0 0.25 0.10 0.25 0.25 0 0.15 -0.10 0.25 -0.25 0.25 -0.15 0 -0.25 -0.10 -0.25 -0.25z"/>
  <path d="M24.25 18.30 c-1.45 -0.85 -2.25 -1.65 -1.90 -1.95 0.30 -0.35 2.95 0.90 3.40 1.60 0.45 0.75 -0.40 1 -1.50 0.35z"/>
  <path d="M33.40 18.05 c-1.30 -0.60 -1.70 -1.05 -1.45 -1.50 0.50 -0.80 2.10 -0.35 3.25 0.90 1.20 1.30 0.40 1.55 -1.80 0.60z"/>
  <path d="M27.50 17.25 c0 -0.15 0.10 -0.25 0.25 -0.25 0.15 0 0.25 0.10 0.25 0.25 0 0.15 -0.10 0.25 -0.25 0.25 -0.15 0 -0.25 -0.10 -0.25 -0.25z"/>
  <path d="M29.60 16.65 c-1.30 -0.25 -1 -1.15 0.45 -1.15 0.50 0 0.95 0.35 0.95 0.75 0 0.40 -0.05 0.70 -0.10 0.70 -0.10 -0.05 -0.65 -0.20 -1.30 -0.30z"/>
  <path d="M23.50 15.75 c-0.35 -0.40 -0.95 -0.75 -1.30 -0.75 -0.40 0 -0.70 -0.20 -0.70 -0.50 0 -0.65 0.30 -0.65 2.05 0.25 0.80 0.45 1.35 1 1.20 1.25 -0.40 0.65 -0.50 0.65 -1.25 -0.25z"/>
  <path d="M32.30 15.15 c-1.95 -1 -2.70 -1.15 -3.40 -0.70 -1.05 0.65 -1.90 0.35 -3 -1.15 l-0.85 -1.15 2.10 0.20 c2.60 0.25 7.85 2.60 7.85 3.50 0 0.80 0.25 0.85 -2.70 -0.70z"/>
  <path d="M2.75 15 c0.15 -0.25 0.40 -0.50 0.55 -0.50 0.10 0 0.20 0.25 0.20 0.50 0 0.30 -0.25 0.50 -0.55 0.50 -0.25 0 -0.35 -0.20 -0.20 -0.50z"/>
  <path d="M23.90 14.30 c-0.50 -0.35 -0.75 -0.80 -0.60 -0.95 0.35 -0.35 2.20 0.70 2.20 1.25 0 0.60 -0.65 0.45 -1.60 -0.30z"/>
  <path d="M1.50 13.20 c0 -0.40 -0.35 -0.85 -0.75 -1 -0.95 -0.40 -1 -1.70 -0.05 -1.70 0.35 0 1.05 0.55 1.50 1.25 1 1.50 1 1.55 0.05 1.95 -0.45 0.15 -0.75 0 -0.75 -0.50z"/>
  <path d="M29.75 11.95 c-0.80 -0.50 -1.15 -0.95 -0.75 -0.95 0.40 0 1.30 0.45 2 1 1.60 1.25 0.70 1.25 -1.25 -0.05z"/>
  <path d="M4 11.20 c0 -0.40 0.25 -0.60 0.50 -0.45 0.30 0.15 0.50 0.50 0.50 0.80 0 0.25 -0.20 0.45 -0.50 0.45 -0.25 0 -0.50 -0.35 -0.50 -0.80z"/>
  <path d="M6.15 10.65 c-1.15 -0.80 -1.50 -1.65 -0.70 -1.65 0.25 0 0.95 0.40 1.60 0.90 1.40 1.15 0.60 1.75 -0.90 0.75z"/>
  <path d="M15.10 10.65 c-1.45 -0.70 -1.75 -0.70 -2.10 -0.10 -0.40 0.55 -0.60 0.55 -1.15 -0.25 -0.70 -0.95 -0.70 -0.95 -1.30 0 -0.50 0.90 -0.60 0.90 -1.90 -0.55 -0.70 -0.80 -1.55 -1.50 -1.85 -1.50 -0.30 0 -0.50 -0.40 -0.50 -0.85 0.05 -0.45 -0.50 -1.35 -1.25 -2 l-1.30 -1.15 1.20 1.40 c1.65 1.85 0.60 1.75 -1.20 -0.15 l-1.45 -1.50 1.65 0 c1.80 0 2.20 0.30 4.20 3.40 1.30 2 2.35 2.70 2.35 1.60 0 -0.25 0.35 -0.50 0.75 -0.50 0.40 0 0.75 0.25 0.75 0.50 0 0.30 0.25 0.50 0.50 0.50 0.30 0 0.50 -0.35 0.50 -0.75 0 -0.40 -0.20 -0.75 -0.50 -0.75 -0.25 0 -0.50 -0.20 -0.50 -0.50 0 -1 1.35 -0.45 1.90 0.75 0.65 1.45 1.20 1.55 2.30 0.45 0.70 -0.70 1 -0.70 3.15 0 l2.40 0.80 -2.25 -0.20 c-2.60 -0.20 -4.15 0.80 -2.60 1.65 1.40 0.85 0 0.60 -1.80 -0.30z"/>
  <path d="M20 11 c-0.90 -0.60 -0.10 -0.60 1.25 0 0.65 0.30 0.75 0.45 0.25 0.45 -0.40 0 -1.10 -0.20 -1.50 -0.45z"/>
  <path d="M2.50 10.25 c0 -0.15 0.10 -0.25 0.25 -0.25 0.15 0 0.25 0.10 0.25 0.25 0 0.15 -0.10 0.25 -0.25 0.25 -0.15 0 -0.25 -0.10 -0.25 -0.25z"/>
  <path d="M0.25 9.50 c0.15 -0.25 0.65 -0.50 1.05 -0.50 0.40 0 0.70 0.25 0.70 0.50 0 0.30 -0.45 0.50 -1.05 0.50 -0.55 0 -0.85 -0.20 -0.70 -0.50z"/>
  <path d="M22 9.50 c0 -0.35 0.15 -0.50 0.35 -0.35 0.15 0.20 0.15 0.50 0 0.70 -0.20 0.15 -0.35 0 -0.35 -0.35z"/>
  <path d="M23.05 8.30 c-0.35 -0.40 -0.90 -0.65 -1.30 -0.50 -0.75 0.30 -2.45 -1.95 -2.95 -3.90 -0.40 -1.75 0.90 -1.95 1.75 -0.25 0.35 0.60 1.25 1.95 2.10 3 0.80 1.05 1.35 2 1.25 2.15 -0.15 0.10 -0.55 -0.10 -0.85 -0.50z m-2.05 -2.55 c0 -0.15 -0.10 -0.25 -0.25 -0.25 -0.15 0 -0.25 0.10 -0.25 0.25 0 0.15 0.10 0.25 0.25 0.25 0.15 0 0.25 -0.10 0.25 -0.25z"/>
  <path d="M15.10 5.75 c-0.85 -1.35 -0.95 -1.75 -0.35 -1.75 0.60 0 2.25 2.35 2.25 3.25 0 0.75 -0.85 0.05 -1.90 -1.50z"/>
 </g>
 <g fill="#4a453a">
  <path d="M8.20 39.10 c-0.30 -0.45 -1.70 -1.40 -3.10 -2.10 -1.40 -0.70 -2.55 -1.40 -2.60 -1.60 0 -0.50 1.40 0.05 3 1.10 0.70 0.50 1.85 1.25 2.65 1.70 0.75 0.45 1.35 1.05 1.35 1.30 0 0.80 -0.70 0.60 -1.30 -0.40z"/>
  <path d="M21.30 39.55 c-0.15 -0.25 -0.90 -0.60 -1.65 -0.75 -0.70 -0.20 -2.25 -1.20 -3.45 -2.25 -1.15 -1 -3 -2.30 -4.15 -2.80 -1.10 -0.55 -2.05 -1.30 -2.05 -1.60 0 -0.35 -0.35 -0.65 -0.85 -0.65 -0.45 0 -1.55 -0.55 -2.40 -1.20 -0.90 -0.70 -2.20 -1.40 -2.95 -1.60 -0.70 -0.15 -1.30 -0.65 -1.30 -1.05 0 -0.40 -0.20 -0.55 -0.50 -0.40 -0.25 0.15 -0.60 -0.30 -0.80 -1 -0.15 -0.70 -0.50 -1.25 -0.75 -1.25 -0.85 0 -0.45 -0.90 0.50 -1.15 0.65 -0.15 1.50 0.35 2.65 1.45 0.90 0.90 2.05 1.70 2.50 1.70 0.45 0 0.90 0.20 1 0.40 0.05 0.20 1.60 1.25 3.40 2.30 1.80 1 3.60 2.10 4 2.35 0.40 0.25 1.25 0.65 1.85 0.90 0.55 0.30 1.20 0.75 1.40 1 0.15 0.30 0.75 0.55 1.30 0.55 0.65 0 0.95 0.35 0.95 1.05 0 0.75 0.25 0.95 0.75 0.75 0.65 -0.25 4.25 2.70 4.25 3.45 0 0.45 -3.45 0.25 -3.70 -0.20z"/>
  <path d="M10 38.55 c0 -0.25 0.25 -0.65 0.50 -0.80 0.30 -0.15 0.50 -0.10 0.50 0.20 0 0.25 -0.20 0.65 -0.50 0.80 -0.25 0.15 -0.50 0.10 -0.50 -0.20z"/>
  <path d="M14.45 37.65 c-0.65 -0.80 -0.60 -0.85 0.20 -0.20 0.45 0.35 0.85 0.75 0.85 0.85 0 0.40 -0.40 0.15 -1.05 -0.65z"/>
  <path d="M7.25 36.50 c0.15 -0.25 0.55 -0.50 0.80 -0.50 0.30 0 0.35 0.25 0.20 0.50 -0.15 0.30 -0.55 0.50 -0.80 0.50 -0.30 0 -0.35 -0.20 -0.20 -0.50z"/>
  <path d="M4.75 35 c-0.15 -0.25 0.05 -0.50 0.45 -0.50 0.45 0 0.80 -0.35 0.80 -0.80 0 -0.40 0.25 -0.60 0.50 -0.45 0.80 0.50 0.60 1.15 -0.45 1.75 -0.65 0.35 -1.10 0.35 -1.30 0z"/>
  <path d="M8.65 34.15 c0.20 -0.15 0.50 -0.15 0.70 0 0.15 0.20 0 0.35 -0.35 0.35 -0.35 0 -0.50 -0.15 -0.35 -0.35z"/>
  <path d="M1.15 29.65 c0.20 -0.15 0.50 -0.15 0.70 0 0.15 0.20 0 0.35 -0.35 0.35 -0.35 0 -0.50 -0.15 -0.35 -0.35z"/>
  <path d="M32.20 27.40 c0.15 -0.65 0.30 -1.30 0.30 -1.50 0 -0.25 0.35 -0.40 0.75 -0.40 0.90 0 1 1.55 0.15 2.40 -0.95 0.95 -1.55 0.70 -1.20 -0.50z"/>
  <path d="M29.50 24.50 c0 -0.35 0.15 -0.50 0.35 -0.35 0.15 0.20 0.15 0.50 0 0.70 -0.20 0.15 -0.35 0 -0.35 -0.35z"/>
  <path d="M0 21.25 c0 -0.95 0.25 -1.75 0.50 -1.75 0.30 0 0.50 0.45 0.50 0.95 0 0.55 0.15 1.30 0.30 1.75 0.20 0.55 0.05 0.80 -0.50 0.80 -0.60 0 -0.80 -0.50 -0.80 -1.75z"/>
  <path d="M21.20 22.05 c1.05 -1.15 2.80 -1.70 2.80 -0.90 0 0.60 -2.20 1.85 -3.20 1.85 -0.25 0 -0.05 -0.45 0.40 -0.95z"/>
  <path d="M19.50 20.10 c0 -0.55 1.20 -1.10 2.40 -1.10 1.05 0 0.25 0.75 -1.25 1.25 -0.65 0.15 -1.15 0.10 -1.15 -0.15z"/>
  <path d="M0 18.25 c0 -1.35 3.60 -4.25 6.20 -5 4.35 -1.20 8.80 -1.15 8.80 0.05 0 0.60 -0.35 0.75 -1.25 0.60 -3.25 -0.65 -11.95 2.30 -12.55 4.25 -0.35 1.05 -1.20 1.15 -1.20 0.10z"/>
  <path d="M29.65 15.65 c0.20 -0.15 0.50 -0.15 0.70 0 0.15 0.20 0 0.35 -0.35 0.35 -0.35 0 -0.50 -0.15 -0.35 -0.35z"/>
  <path d="M19.75 14.75 c-0.25 -0.10 -1.35 -0.30 -2.35 -0.50 -1.20 -0.20 -1.90 -0.55 -1.90 -1 0 -1 1.30 -0.90 3.75 0.20 1.10 0.50 2.30 0.80 2.65 0.70 0.30 -0.15 0.60 0 0.60 0.30 0 0.50 -1.60 0.70 -2.75 0.30z"/>
  <path d="M26.70 13.60 c-1.20 -1.15 -0.25 -1.60 1.90 -0.80 2.80 0.95 3.90 0.95 2.60 -0.10 -0.90 -0.75 -0.90 -0.75 0.20 -0.45 1.25 0.35 1.35 -0.10 0.60 -2.70 -0.60 -2.20 0.15 -1.40 0.95 0.90 0.35 1.10 0.40 1.90 0.10 2.20 -0.25 0.25 -0.35 0.75 -0.20 1.10 0.35 0.95 -5.25 0.80 -6.15 -0.15z"/>
  <path d="M1.75 13 c0.15 -0.25 0.50 -0.50 0.80 -0.50 0.25 0 0.45 0.25 0.45 0.50 0 0.30 -0.35 0.50 -0.80 0.50 -0.40 0 -0.60 -0.20 -0.45 -0.50z"/>
  <path d="M21.25 12.50 c-0.15 -0.30 0.05 -0.35 0.45 -0.20 0.90 0.35 1.05 0.70 0.35 0.70 -0.30 0 -0.65 -0.20 -0.80 -0.50z"/>
  <path d="M4.25 12 c0.15 -0.25 0.40 -0.50 0.55 -0.50 0.10 0 0.20 0.25 0.20 0.50 0 0.30 -0.25 0.50 -0.55 0.50 -0.25 0 -0.35 -0.20 -0.20 -0.50z"/>
  <path d="M20 11.75 c0 -0.15 0.10 -0.25 0.25 -0.25 0.15 0 0.25 0.10 0.25 0.25 0 0.15 -0.10 0.25 -0.25 0.25 -0.15 0 -0.25 -0.10 -0.25 -0.25z"/>
  <path d="M7 11.25 c0 -0.15 0.10 -0.25 0.25 -0.25 0.15 0 0.25 0.10 0.25 0.25 0 0.15 -0.10 0.25 -0.25 0.25 -0.15 0 -0.25 -0.10 -0.25 -0.25z"/>
  <path d="M16.65 11.15 c0.20 -0.15 0.50 -0.15 0.70 0 0.15 0.20 0 0.35 -0.35 0.35 -0.35 0 -0.50 -0.15 -0.35 -0.35z"/>
  <path d="M34 11.25 c0 -0.15 0.10 -0.25 0.25 -0.25 0.15 0 0.25 0.10 0.25 0.25 0 0.15 -0.10 0.25 -0.25 0.25 -0.15 0 -0.25 -0.10 -0.25 -0.25z"/>
  <path d="M10 10.75 c0 -0.15 0.10 -0.25 0.25 -0.25 0.15 0 0.25 0.10 0.25 0.25 0 0.15 -0.10 0.25 -0.25 0.25 -0.15 0 -0.25 -0.10 -0.25 -0.25z"/>
  <path d="M12.15 10.65 c0.20 -0.15 0.50 -0.15 0.70 0 0.15 0.20 0 0.35 -0.35 0.35 -0.35 0 -0.50 -0.15 -0.35 -0.35z"/>
  <path d="M27.40 10.65 c0.35 -0.15 0.80 -0.10 0.95 0.05 0.20 0.15 -0.10 0.30 -0.65 0.25 -0.55 0 -0.70 -0.15 -0.30 -0.30z"/>
  <path d="M8 8.25 c0 -0.40 0.10 -0.75 0.20 -0.75 0.10 0 0.30 0.35 0.50 0.75 0.15 0.40 0.05 0.75 -0.20 0.75 -0.30 0 -0.50 -0.35 -0.50 -0.75z"/>
  <path d="M10.50 8.75 c0 -0.15 0.10 -0.25 0.25 -0.25 0.15 0 0.25 0.10 0.25 0.25 0 0.15 -0.10 0.25 -0.25 0.25 -0.15 0 -0.25 -0.10 -0.25 -0.25z"/>
  <path d="M22.70 7.40 c-0.20 -0.35 -0.15 -0.40 0.20 -0.20 0.60 0.35 0.80 0.80 0.40 0.80 -0.15 0 -0.40 -0.25 -0.60 -0.60z"/>
  <path d="M24.30 7.20 c-0.50 -1.25 0.05 -1.45 0.70 -0.25 0.30 0.60 0.35 1.05 0.05 1.05 -0.25 0 -0.60 -0.35 -0.75 -0.80z"/>
  <path d="M9 6.70 c0 -0.40 0.25 -0.60 0.50 -0.45 0.30 0.15 0.50 0.50 0.50 0.80 0 0.25 -0.20 0.45 -0.50 0.45 -0.25 0 -0.50 -0.35 -0.50 -0.80z"/>
  <path d="M12 6.95 c0 -0.25 0.20 -0.40 0.45 -0.20 0.25 0.15 0.60 -0.15 0.70 -0.60 0.20 -0.70 0.25 -0.65 0.30 0.25 0.05 0.65 -0.25 1.10 -0.70 1.10 -0.40 0 -0.75 -0.25 -0.75 -0.55z"/>
  <path d="M9.75 5.10 c-0.85 -0.75 -2.05 -1.70 -2.75 -2.15 -1.35 -0.90 -1.15 -1.70 0.35 -1.25 0.95 0.30 2.95 2 4.05 3.40 1.10 1.40 -0.05 1.40 -1.65 0z"/>
  <path d="M3 3.70 c0 -0.90 0.20 -1.10 0.90 -0.85 0.90 0.35 2.10 1.40 2.10 1.85 0 0.10 -0.65 0.20 -1.50 0.20 -1.20 -0.05 -1.50 -0.25 -1.50 -1.20z"/>
  <path d="M13.40 3.80 c-1.90 -1.60 -1.85 -2.60 0 -1.50 1.70 1 2.95 2.70 2 2.70 -0.35 0 -1.25 -0.55 -2 -1.20z"/>
  <path d="M18.35 2.80 c-0.60 -1.50 0.85 -1.75 1.65 -0.30 0.45 0.85 0.40 1 -0.45 1 -0.50 0 -1.05 -0.30 -1.20 -0.70z"/>
 </g>
 <g fill="#444c59">
  <path d="M14.10 38.40 c-0.10 -1.50 -0.05 -1.60 0.65 -0.85 0.45 0.45 0.65 1.15 0.45 1.60 -0.50 1.35 -1 1 -1.10 -0.75z"/>
  <path d="M16.20 39.40 c-0.20 -0.35 -0.15 -0.40 0.20 -0.20 0.60 0.35 0.80 0.80 0.40 0.80 -0.15 0 -0.40 -0.25 -0.60 -0.60z"/>
  <path d="M10 38.80 c0 -0.80 1.80 -2.60 2.40 -2.40 0.75 0.25 0.80 1.10 0 1.10 -0.30 0 -1 0.35 -1.50 0.85 -0.50 0.45 -0.90 0.65 -0.90 0.45z"/>
  <path d="M4.95 36.65 c-0.65 -0.85 -0.65 -0.85 0.30 -0.15 0.55 0.40 1.10 0.80 1.20 0.85 0.10 0.10 0 0.15 -0.30 0.15 -0.30 0 -0.85 -0.40 -1.20 -0.85z"/>
  <path d="M7.65 36.30 c0.45 -0.35 0.85 -1.05 0.85 -1.50 0 -1 0.70 -1.05 1.45 -0.10 0.45 0.50 0.40 0.80 -0.20 1.30 -0.40 0.35 -0.75 0.45 -0.75 0.20 0 -0.20 -0.25 -0.15 -0.60 0.20 -0.35 0.35 -0.85 0.60 -1.10 0.60 -0.30 0 -0.15 -0.35 0.35 -0.70z"/>
  <path d="M1.40 35.10 c-2.10 -1.30 -1.65 -1.70 0.50 -0.50 2.35 1.40 2.40 1.40 1.55 1.35 -0.40 0 -1.30 -0.40 -2.05 -0.85z"/>
  <path d="M5.30 34.60 c0.30 -0.20 0.65 -0.75 0.85 -1.25 0.35 -1 1.35 -0.70 1.35 0.40 0 0.65 -1.05 1.25 -2.15 1.25 -0.40 0 -0.45 -0.15 -0.05 -0.40z"/>
  <path d="M2 33.85 c0 -0.20 0.30 -0.85 0.65 -1.50 0.30 -0.60 0.60 -1.15 0.65 -1.25 0.05 -0.05 0.45 0 0.90 0.20 1.10 0.40 1.05 1.70 -0.10 1.70 -0.50 0 -1.15 0.25 -1.50 0.60 -0.35 0.35 -0.60 0.45 -0.60 0.25z"/>
  <path d="M8 31.25 c0 -0.15 0.10 -0.25 0.25 -0.25 0.15 0 0.25 0.10 0.25 0.25 0 0.15 -0.10 0.25 -0.25 0.25 -0.15 0 -0.25 -0.10 -0.25 -0.25z"/>
  <path d="M0 30 c0 -1.10 0.35 -1.25 1.45 -0.55 0.80 0.50 0.30 1.55 -0.75 1.55 -0.40 0 -0.70 -0.45 -0.70 -1z"/>
  <path d="M3 28.25 c0 -0.15 0.10 -0.25 0.25 -0.25 0.15 0 0.25 0.10 0.25 0.25 0 0.15 -0.10 0.25 -0.25 0.25 -0.15 0 -0.25 -0.10 -0.25 -0.25z"/>
  <path d="M32.40 24.25 c-0.20 -1.95 0.30 -2.30 1.10 -0.80 0.70 1.35 0.65 2.55 -0.20 2.55 -0.40 0 -0.75 -0.70 -0.90 -1.75z"/>
  <path d="M28 22.45 c0 -0.70 1.90 -2.20 2.30 -1.80 0.10 0.10 -0.35 0.70 -1.05 1.35 -0.85 0.80 -1.25 0.95 -1.25 0.45z"/>
  <path d="M23 21.50 c0 -0.60 1.30 -1.25 3.25 -1.70 1.40 -0.30 1.40 -0.25 -0.50 0.90 -2.20 1.40 -2.75 1.55 -2.75 0.80z"/>
  <path d="M31.65 21.65 c0.20 -0.15 0.50 -0.15 0.70 0 0.15 0.20 0 0.35 -0.35 0.35 -0.35 0 -0.50 -0.15 -0.35 -0.35z"/>
  <path d="M33 20.55 c-0.40 -0.25 -1.95 -0.85 -3.35 -1.30 -1.50 -0.50 -2.65 -1.15 -2.65 -1.55 0 -0.40 0.25 -0.70 0.50 -0.70 0.30 0 0.50 0.25 0.50 0.50 0 0.30 0.25 0.50 0.55 0.50 1.25 0 6.40 2.15 6.15 2.55 -0.30 0.55 -0.75 0.55 -1.70 0z"/>
  <path d="M22.50 19 c0 -0.25 0.25 -0.50 0.55 -0.50 0.25 0 0.35 0.25 0.20 0.50 -0.15 0.30 -0.40 0.50 -0.55 0.50 -0.10 0 -0.20 -0.20 -0.20 -0.50z"/>
  <path d="M32.75 17.70 c-1.35 -0.60 -2.95 -1.15 -3.50 -1.20 -0.85 0 -0.90 -0.10 -0.25 -0.50 0.70 -0.45 2.30 -0.35 4.65 0.30 0.75 0.25 2.15 2.10 1.75 2.40 -0.10 0.10 -1.25 -0.35 -2.65 -1z"/>
  <path d="M23.40 18.15 c-2 -0.20 -2.30 -0.55 -1.35 -1.50 0.45 -0.45 0.95 -0.40 2 0.10 1.35 0.70 2.45 1.85 1.60 1.65 -0.20 -0.05 -1.25 -0.15 -2.25 -0.25z"/>
  <path d="M1.50 16.25 c0 -0.40 0.30 -0.75 0.70 -0.75 0.35 0 0.95 -0.35 1.30 -0.75 0.45 -0.55 0.80 -0.65 1.15 -0.30 0.35 0.35 0.10 0.85 -0.70 1.50 -1.45 1.20 -2.45 1.35 -2.45 0.30z"/>
  <path d="M23.70 15.75 c-0.20 -0.40 -0.95 -0.75 -1.70 -0.75 -0.80 0 -1.55 -0.20 -1.70 -0.40 -0.40 -0.65 2.25 -0.35 3.60 0.35 0.60 0.35 1 0.80 0.85 1.10 -0.45 0.65 -0.75 0.55 -1.05 -0.30z"/>
  <path d="M32 14.95 c-1.20 -0.55 -2.70 -0.90 -3.35 -0.75 -0.65 0.20 -1.40 -0.05 -1.95 -0.55 -1.15 -1.20 -0.20 -1.40 2.60 -0.65 2.35 0.65 2.90 0.45 3.35 -1.25 0.25 -0.80 0.30 -0.75 0.25 0.25 -0.05 2.15 0.10 2.40 1.10 2.75 0.55 0.15 1 0.55 1 0.80 0 0.65 -0.45 0.55 -3 -0.60z"/>
  <path d="M23 13.75 c-1.35 -1 -1.50 -1.25 -0.75 -1.25 0.95 0.05 3.25 1.60 3.25 2.20 0 0.55 -0.75 0.25 -2.50 -0.95z"/>
  <path d="M16.40 14.15 c-1.05 -0.25 -1.60 -1.65 -0.65 -1.65 1.15 0 3.25 0.95 3.25 1.50 0 0.50 -1.05 0.55 -2.60 0.15z"/>
  <path d="M5.40 13.65 c0.35 -0.15 0.80 -0.10 0.95 0.05 0.20 0.15 -0.10 0.30 -0.65 0.25 -0.55 0 -0.70 -0.15 -0.30 -0.30z"/>
  <path d="M1.50 12.75 c0 -0.40 -0.35 -0.75 -0.75 -0.75 -0.40 0 -0.75 -0.35 -0.75 -0.75 0 -1.05 0.80 -0.95 2 0.35 1.20 1.30 1.30 1.90 0.25 1.90 -0.40 0 -0.75 -0.35 -0.75 -0.75z"/>
  <path d="M8.50 12.75 c0 -0.15 0.10 -0.25 0.25 -0.25 0.15 0 0.25 0.10 0.25 0.25 0 0.15 -0.10 0.25 -0.25 0.25 -0.15 0 -0.25 -0.10 -0.25 -0.25z"/>
  <path d="M28.50 11.45 c-1.50 -0.80 -2.95 -1.50 -3.25 -1.60 -0.25 -0.10 -0.35 -0.35 -0.20 -0.55 0.40 -0.40 4.30 1.35 5.95 2.65 1.65 1.35 0.85 1.20 -2.50 -0.50z"/>
  <path d="M3.50 11.40 c-0.40 -0.65 -0.65 -1.45 -0.60 -1.75 0.10 -0.35 -0.10 -0.65 -0.40 -0.65 -0.25 0 -0.50 0.25 -0.50 0.50 0 0.30 -0.50 0.50 -1.10 0.50 l-1.15 0 1.25 -1 c0.70 -0.55 1.50 -1 1.80 -1 0.45 0 2.20 3.30 2.20 4.15 0 0.70 -0.80 0.30 -1.50 -0.75z"/>
  <path d="M6.10 10.50 c-1.15 -0.95 -1.40 -1.50 -0.65 -1.50 0.80 0 2.75 1.85 2.25 2.10 -0.25 0.20 -0.95 -0.10 -1.60 -0.60z"/>
  <path d="M15.05 10.65 c-1.30 -0.65 -1.80 -0.70 -1.95 -0.25 -0.25 0.85 -1.10 0.75 -1.10 -0.15 0 -1 -0.85 -0.95 -1.45 0.15 -0.50 0.75 -0.65 0.70 -1.90 -0.65 -0.75 -0.80 -1.50 -1.45 -1.75 -1.35 -0.20 0.05 -0.40 -0.40 -0.40 -1 0 -0.65 -0.60 -1.60 -1.35 -2.10 -0.70 -0.55 -1.15 -0.70 -0.95 -0.40 0.65 1.10 -0.50 0.60 -1.70 -0.65 -1.35 -1.40 -1.10 -2 0.65 -1.55 1.55 0.35 3.85 2.60 5.10 4.95 0.90 1.70 2.25 2.50 2.25 1.35 0 -0.70 1.35 -0.65 1.60 0.10 0.10 0.30 0.50 0.40 0.85 0.20 0.45 -0.30 0.25 -0.75 -0.65 -1.65 -0.70 -0.70 -1.15 -1.50 -1 -1.75 0.15 -0.25 0.60 -0.05 1 0.45 0.55 0.70 0.70 0.75 0.70 0.15 0.05 -0.40 0.30 0 0.65 0.95 0.65 1.90 1.20 2.25 2.35 1.55 0.60 -0.40 0.60 -0.65 -0.15 -2.20 -1.05 -2.25 -0.30 -2.35 1.05 -0.15 0.55 1 1.65 1.90 2.65 2.25 l1.70 0.60 -2.10 -0.20 c-2.45 -0.25 -3.85 0.75 -2.30 1.65 1.45 0.85 0.05 0.60 -1.80 -0.30z"/>
  <path d="M18.90 10.65 c0.30 -0.10 0.90 -0.10 1.25 0 0.30 0.15 0.05 0.25 -0.65 0.25 -0.70 0 -0.95 -0.10 -0.60 -0.25z"/>
  <path d="M18.55 3.05 c-0.60 -1.05 -0.25 -1.60 0.75 -1.20 0.80 0.30 0.95 2.15 0.20 2.15 -0.25 0 -0.70 -0.40 -0.95 -0.95z"/>
 </g>
 <g fill="#4e5b6c">
  <path d="M8.50 39.45 c0 -0.25 0.25 -0.35 0.50 -0.20 0.30 0.15 0.50 0.40 0.50 0.55 0 0.10 -0.20 0.20 -0.50 0.20 -0.25 0 -0.50 -0.25 -0.50 -0.55z"/>
  <path d="M14.35 38.95 c-0.35 -1.35 -0.05 -1.85 0.70 -1.10 0.35 0.35 0.40 0.85 0.10 1.40 -0.45 0.75 -0.55 0.75 -0.80 -0.30z"/>
  <path d="M10.25 38 c0.15 -0.25 0.40 -0.50 0.55 -0.50 0.10 0 0.20 0.25 0.20 0.50 0 0.30 -0.25 0.50 -0.55 0.50 -0.25 0 -0.35 -0.20 -0.20 -0.50z"/>
  <path d="M11.50 36.75 c0 -0.45 0.30 -0.60 0.75 -0.45 0.40 0.20 0.75 0.50 0.75 0.75 0 0.25 -0.35 0.45 -0.75 0.45 -0.40 0 -0.75 -0.35 -0.75 -0.75z"/>
  <path d="M7.50 36.50 c0 -0.35 0.15 -0.50 0.35 -0.35 0.15 0.20 0.15 0.50 0 0.70 -0.20 0.15 -0.35 0 -0.35 -0.35z"/>
  <path d="M8.85 34.95 c-0.15 -0.65 -0.05 -0.95 0.30 -0.80 0.75 0.25 1.10 1.85 0.45 1.85 -0.25 0 -0.60 -0.45 -0.75 -1.05z"/>
  <path d="M1.50 34.75 c0 -0.15 0.10 -0.25 0.25 -0.25 0.15 0 0.25 0.10 0.25 0.25 0 0.15 -0.10 0.25 -0.25 0.25 -0.15 0 -0.25 -0.10 -0.25 -0.25z"/>
  <path d="M0 34.25 c0 -0.15 0.10 -0.25 0.25 -0.25 0.15 0 0.25 0.10 0.25 0.25 0 0.15 -0.10 0.25 -0.25 0.25 -0.15 0 -0.25 -0.10 -0.25 -0.25z"/>
  <path d="M6.30 33.75 c0.20 -0.40 0.50 -0.60 0.75 -0.45 0.70 0.40 0.50 1.20 -0.30 1.20 -0.45 0 -0.60 -0.30 -0.45 -0.75z"/>
  <path d="M2.50 33.25 c0 -0.15 0.10 -0.25 0.25 -0.25 0.15 0 0.25 0.10 0.25 0.25 0 0.15 -0.10 0.25 -0.25 0.25 -0.15 0 -0.25 -0.10 -0.25 -0.25z"/>
  <path d="M3.65 32.65 c-0.75 -0.25 -0.90 -1.65 -0.20 -1.65 0.65 0 1.65 1.40 1.20 1.65 -0.20 0.10 -0.70 0.10 -1 0z"/>
  <path d="M0 30.05 c0 -0.70 0.25 -0.95 0.75 -0.70 0.85 0.30 0.75 1.25 -0.15 1.55 -0.35 0.10 -0.60 -0.25 -0.60 -0.85z"/>
  <path d="M27.50 22.85 c0 -0.45 0.45 -1.05 1 -1.35 0.55 -0.30 1 -0.35 1 -0.10 0 0.25 -0.45 0.85 -1 1.35 -0.90 0.80 -1 0.80 -1 0.10z"/>
  <path d="M32 22.50 c-0.35 -0.65 -0.35 -1 -0.05 -1 0.30 0 0.75 0.45 1.05 1 0.35 0.65 0.35 1 0.05 1 -0.30 0 -0.75 -0.45 -1.05 -1z"/>
  <path d="M23.10 21.40 c0.20 -0.55 3.90 -2.05 4.25 -1.70 0.20 0.20 -3.65 2.30 -4.15 2.30 -0.15 0 -0.20 -0.25 -0.10 -0.60z"/>
  <path d="M30 20.75 c0 -0.15 0.10 -0.25 0.25 -0.25 0.15 0 0.25 0.10 0.25 0.25 0 0.15 -0.10 0.25 -0.25 0.25 -0.15 0 -0.25 -0.10 -0.25 -0.25z"/>
  <path d="M33 20.55 c-0.40 -0.20 -1.25 -0.65 -1.85 -0.95 -0.65 -0.35 -1.55 -0.60 -2.05 -0.60 -1 0 -2.10 -0.90 -2.10 -1.75 0 -0.25 0.35 -0.10 0.75 0.45 0.35 0.50 0.90 0.75 1.15 0.60 0.60 -0.35 5.60 1.65 5.60 2.25 0 0.55 -0.50 0.55 -1.50 0z"/>
  <path d="M21.50 19.55 c0 -0.50 1.50 -1.20 1.85 -0.85 0.15 0.10 -0.25 0.45 -0.80 0.80 -0.60 0.30 -1.05 0.35 -1.05 0.05z"/>
  <path d="M33.65 18 c-0.90 -0.45 -1.50 -1 -1.35 -1.15 0.15 -0.15 -0.05 -0.25 -0.40 -0.20 -1.95 0.05 -3.05 -0.20 -2.60 -0.60 0.65 -0.70 4.95 0.35 5.95 1.45 1.15 1.25 0.30 1.55 -1.60 0.50z"/>
  <path d="M25.15 18.15 c0.20 -0.15 0.50 -0.15 0.70 0 0.15 0.20 0 0.35 -0.35 0.35 -0.35 0 -0.50 -0.15 -0.35 -0.35z"/>
  <path d="M21.50 17.55 c0 -0.80 0.90 -1.10 2.25 -0.75 1 0.25 1.15 0.45 0.65 0.75 -0.90 0.60 -2.90 0.55 -2.90 0z"/>
  <path d="M23.50 15.45 c0 -0.25 0.25 -0.35 0.50 -0.20 0.30 0.15 0.50 0.40 0.50 0.55 0 0.10 -0.20 0.20 -0.50 0.20 -0.25 0 -0.50 -0.25 -0.50 -0.55z"/>
  <path d="M31.15 14.60 c-2.50 -0.95 -2.85 -1.70 -0.55 -1.25 1.20 0.25 1.45 0.15 1.15 -0.35 -0.25 -0.45 -0.20 -0.55 0.15 -0.30 0.40 0.25 0.60 -0.05 0.60 -0.80 0 -0.90 0.10 -1 0.50 -0.40 0.25 0.45 0.30 0.90 0 1.20 -0.25 0.25 -0.25 0.85 0.05 1.40 0.70 1.35 0.50 1.40 -1.90 0.50z"/>
  <path d="M3.75 14.50 c0.15 -0.25 0.40 -0.50 0.55 -0.50 0.10 0 0.20 0.25 0.20 0.50 0 0.30 -0.25 0.50 -0.55 0.50 -0.25 0 -0.35 -0.20 -0.20 -0.50z"/>
  <path d="M20.30 14.60 c-0.25 -0.45 2.05 -0.40 2.55 0.05 0.15 0.20 -0.25 0.35 -1 0.35 -0.70 0 -1.40 -0.20 -1.55 -0.40z"/>
  <path d="M22.70 13.45 c-1.35 -0.85 -2.55 -1.75 -2.70 -1.95 -0.15 -0.20 -0.60 -0.50 -1 -0.70 -0.40 -0.15 0.05 -0.20 1 -0.05 1.15 0.20 2.40 0.95 3.70 2.25 1.05 1.10 1.80 2 1.70 2 -0.10 0 -1.30 -0.70 -2.70 -1.55z"/>
  <path d="M27.40 14.15 c-1.25 -0.30 -1.15 -1.65 0.10 -1.65 0.65 0 1 0.35 1 1 0 0.55 -0.05 0.95 -0.10 0.95 -0.10 -0.05 -0.55 -0.15 -1 -0.30z"/>
  <path d="M5.15 13.65 c0.20 -0.15 0.50 -0.15 0.70 0 0.15 0.20 0 0.35 -0.35 0.35 -0.35 0 -0.50 -0.15 -0.35 -0.35z"/>
  <path d="M1.50 12.75 c0 -0.40 -0.35 -0.75 -0.75 -0.75 -0.40 0 -0.75 -0.20 -0.75 -0.50 0 -1 1.75 -0.45 2.35 0.75 0.45 1 0.40 1.25 -0.15 1.25 -0.40 0 -0.70 -0.35 -0.70 -0.75z"/>
  <path d="M3.50 10.80 c-0.35 -1 -1.05 -1.85 -1.45 -1.95 -0.50 -0.15 -0.40 -0.25 0.30 -0.30 0.70 -0.05 1.20 0.35 1.45 1.10 0.20 0.60 0.60 1.25 0.90 1.45 0.40 0.25 0.40 0.50 0 0.90 -0.35 0.35 -0.70 0 -1.20 -1.20z"/>
  <path d="M30.20 11.90 c-0.20 -0.35 -0.15 -0.40 0.20 -0.20 0.35 0.20 0.60 0.45 0.60 0.60 0 0.40 -0.45 0.20 -0.80 -0.40z"/>
  <path d="M5.80 10.25 c-0.55 -0.40 -0.85 -0.85 -0.70 -1.05 0.35 -0.30 2.40 0.85 2.40 1.40 0 0.60 -0.65 0.45 -1.70 -0.35z"/>
  <path d="M8.10 9.20 c-1.60 -1.80 -2 -2.70 -1.15 -2.70 0.25 0 0.95 0.80 1.55 1.75 0.60 0.95 1.30 1.75 1.55 1.75 0.25 0 0.45 0.25 0.45 0.50 0 0.95 -0.80 0.50 -2.40 -1.30z"/>
  <path d="M14.70 10.45 c-0.15 -0.30 -0.85 -0.40 -1.50 -0.25 -0.70 0.20 -1.20 0.10 -1.20 -0.20 0 -0.25 -0.35 -0.50 -0.75 -0.50 -0.40 0 -0.75 -0.20 -0.75 -0.50 0 -0.70 1.35 -0.60 1.65 0.15 0.15 0.45 0.35 0.45 0.85 0 0.50 -0.45 0.85 -0.45 1.55 0 0.70 0.45 1.05 0.45 1.55 -0.05 0.55 -0.55 0.45 -1 -0.45 -2.60 -0.80 -1.55 -0.90 -2 -0.35 -2 0.35 0 0.80 0.55 1 1.25 0.15 0.65 0.60 1.45 1 1.80 0.90 0.75 0.90 1.45 0 1.45 -0.40 0 -0.90 0.45 -1.05 1 -0.35 1.10 -1 1.30 -1.55 0.45z"/>
  <path d="M0.40 9.65 c0.35 -0.15 0.80 -0.10 0.95 0.05 0.20 0.15 -0.10 0.30 -0.65 0.25 -0.55 0 -0.70 -0.15 -0.30 -0.30z"/>
  <path d="M19.90 9.15 c0.35 -0.15 0.80 -0.10 0.95 0.05 0.20 0.15 -0.10 0.30 -0.65 0.25 -0.55 0 -0.70 -0.15 -0.30 -0.30z"/>
  <path d="M12.25 7.50 c-0.15 -0.25 -0.05 -0.50 0.20 -0.50 0.30 0 0.55 0.25 0.55 0.50 0 0.30 -0.10 0.50 -0.20 0.50 -0.15 0 -0.40 -0.20 -0.55 -0.50z"/>
  <path d="M20.05 6.40 c-0.40 -0.65 -0.75 -1.55 -0.80 -2 -0.10 -1.15 1.20 -1.15 1.60 0 0.20 0.45 0.60 1.05 1 1.25 0.35 0.20 0.65 0.80 0.65 1.25 -0.05 0.65 -0.35 0.45 -1.25 -0.65 -0.70 -0.80 -1.25 -1.30 -1.25 -1.05 0 0.25 0.35 0.90 0.85 1.40 0.45 0.50 0.60 0.90 0.35 0.90 -0.25 0 -0.80 -0.50 -1.15 -1.10z"/>
  <path d="M4.80 5.15 c-0.50 -0.50 -0.80 -0.60 -0.60 -0.25 0.45 0.75 -0.30 0.80 -1.10 0 -0.90 -0.90 -0.70 -1.40 0.60 -1.40 1.25 0 2.50 1.10 2.20 2 -0.10 0.30 -0.55 0.15 -1.10 -0.35z"/>
  <path d="M8.15 3.80 c-0.90 -0.55 -1.65 -1.20 -1.65 -1.40 0 -0.80 1.85 -0.35 2.70 0.55 1.40 1.55 0.75 2.05 -1.05 0.85z"/>
 </g>
 <g fill="#645f53">
  <path d="M21.65 39.35 c0.20 -0.50 -0.20 -0.70 -1.15 -0.70 -1.60 0 -5.75 -3.35 -5.75 -4.65 0 -1.15 1.75 -1.20 2.80 -0.05 0.55 0.60 1.30 1.05 1.70 1.05 0.40 0 0.75 0.35 0.75 0.75 0 0.40 0.35 0.75 0.70 0.75 0.90 0 3.30 2.15 3.30 2.95 0 0.30 -0.60 0.55 -1.30 0.55 -0.90 0 -1.20 -0.20 -1.05 -0.65z m-2.40 -2.35 c0.15 -0.30 -0.05 -0.35 -0.45 -0.20 -0.90 0.35 -1.05 0.70 -0.35 0.70 0.30 0 0.65 -0.20 0.80 -0.50z"/>
  <path d="M7.20 37.90 c-0.20 -0.35 -0.15 -0.40 0.20 -0.20 0.60 0.35 0.80 0.80 0.40 0.80 -0.15 0 -0.40 -0.25 -0.60 -0.60z"/>
  <path d="M4.70 36.40 c-0.20 -0.35 -0.15 -0.40 0.20 -0.20 0.60 0.35 0.80 0.80 0.40 0.80 -0.15 0 -0.40 -0.25 -0.60 -0.60z"/>
  <path d="M2.50 35.50 c-0.40 -0.25 -0.50 -0.50 -0.25 -0.50 0.30 0 0.85 0.25 1.25 0.50 0.40 0.25 0.55 0.50 0.25 0.50 -0.25 0 -0.85 -0.25 -1.25 -0.50z"/>
  <path d="M12.15 33.60 c-1.95 -0.90 -2.25 -2.60 -0.50 -2.60 1.70 0 2.45 0.70 2.25 2.10 -0.15 1.25 -0.20 1.25 -1.75 0.50z"/>
  <path d="M7 30.40 c-0.70 -0.55 -1.85 -1.25 -2.60 -1.50 -0.80 -0.30 -1.25 -0.70 -1.10 -0.95 0.15 -0.25 -0.25 -0.65 -0.90 -0.90 -0.65 -0.30 -0.85 -0.50 -0.50 -0.50 0.30 -0.05 0.60 -0.55 0.65 -1.15 0 -0.65 0.15 -0.85 0.30 -0.50 0.10 0.30 0.55 0.60 0.95 0.60 0.40 0 0.70 0.35 0.70 0.75 0 0.45 0.45 0.75 1.20 0.75 0.65 0 1.30 0.35 1.50 0.75 0.15 0.40 0.60 0.75 1.05 0.75 0.40 0 0.75 0.25 0.75 0.50 0 0.30 0.35 0.50 0.75 0.50 0.95 0 0.95 0.35 0.05 1.30 -0.95 0.90 -1.30 0.85 -2.80 -0.40z"/>
  <path d="M32.20 27.70 c0.15 -0.45 0.30 -1.20 0.30 -1.75 0 -0.50 0.35 -0.95 0.75 -0.95 0.85 0 1 1.15 0.25 2.55 -0.65 1.15 -1.75 1.30 -1.30 0.15z"/>
  <path d="M0.65 25.15 c-0.85 -0.30 -0.90 -5.65 -0.10 -5.65 0.30 0 0.45 0.40 0.35 0.90 -0.15 0.50 0.05 1.35 0.40 1.85 0.75 1 0.95 3.30 0.35 3.20 -0.25 0 -0.70 -0.15 -1 -0.30z"/>
  <path d="M21.50 22 c1.30 -1 2 -1.25 2 -0.70 0 0.55 -1.70 1.65 -2.50 1.65 -0.50 0.05 -0.30 -0.30 0.50 -0.95z"/>
  <path d="M19.50 20.10 c0 -0.25 0.80 -0.65 1.75 -0.95 2.20 -0.70 2.35 0.05 0.20 0.80 -1.90 0.65 -1.95 0.65 -1.95 0.15z"/>
  <path d="M0 18.30 c0 -0.40 0.35 -0.80 0.75 -1 0.40 -0.15 0.75 -0.60 0.75 -1.05 0 -0.40 0.30 -0.75 0.70 -0.75 0.35 0 0.95 -0.35 1.30 -0.75 0.95 -1.15 5.65 -2.25 9.60 -2.25 2.80 0.05 4.30 0.35 6.40 1.30 1.50 0.70 2.20 1.15 1.50 1 -0.70 -0.15 -3.20 -0.50 -5.65 -0.80 -4 -0.55 -4.65 -0.50 -7.80 0.45 -1.95 0.60 -3.80 1.40 -4.25 1.80 -0.40 0.40 -0.95 0.75 -1.25 0.75 -0.25 0 -0.65 0.45 -0.80 1 -0.35 1.15 -1.25 1.35 -1.25 0.30z"/>
  <path d="M32.20 14.85 c-0.95 -0.55 -1 -0.70 -0.35 -1.30 0.55 -0.50 0.65 -1.25 0.45 -2.75 -0.40 -2.25 0 -2.25 0.65 0.10 0.30 0.95 0.25 1.70 -0.05 2 -0.35 0.35 -0.15 0.85 0.55 1.55 1.15 1.15 0.45 1.40 -1.25 0.40z"/>
  <path d="M22.75 13.50 c-0.15 -0.25 -0.05 -0.50 0.20 -0.50 0.30 0 0.55 0.25 0.55 0.50 0 0.30 -0.10 0.50 -0.20 0.50 -0.15 0 -0.40 -0.20 -0.55 -0.50z"/>
  <path d="M30.50 12.25 c0 -0.15 0.10 -0.25 0.25 -0.25 0.15 0 0.25 0.10 0.25 0.25 0 0.15 -0.10 0.25 -0.25 0.25 -0.15 0 -0.25 -0.10 -0.25 -0.25z"/>
  <path d="M5.50 9.25 c0 -0.15 0.10 -0.25 0.25 -0.25 0.15 0 0.25 0.10 0.25 0.25 0 0.15 -0.10 0.25 -0.25 0.25 -0.15 0 -0.25 -0.10 -0.25 -0.25z"/>
  <path d="M23.65 8.90 c-0.30 -0.35 -0.70 -1 -0.90 -1.40 -0.35 -0.60 -0.25 -0.60 0.55 0.05 0.50 0.45 1.40 1.05 1.95 1.35 1 0.55 1 0.55 -0.05 0.60 -0.60 0 -1.30 -0.30 -1.55 -0.60z"/>
  <path d="M8 8.45 c0 -0.25 0.25 -0.35 0.50 -0.20 0.30 0.15 0.50 0.40 0.50 0.55 0 0.10 -0.20 0.20 -0.50 0.20 -0.25 0 -0.50 -0.25 -0.50 -0.55z"/>
  <path d="M11 8.75 c0 -0.15 0.10 -0.25 0.25 -0.25 0.15 0 0.25 0.10 0.25 0.25 0 0.15 -0.10 0.25 -0.25 0.25 -0.15 0 -0.25 -0.10 -0.25 -0.25z"/>
  <path d="M4.15 7.65 c0.20 -0.15 0.50 -0.15 0.70 0 0.15 0.20 0 0.35 -0.35 0.35 -0.35 0 -0.50 -0.15 -0.35 -0.35z"/>
  <path d="M11.25 6.50 c-0.80 -0.80 -1.20 -1.50 -0.85 -1.50 0.30 0 1 0.50 1.60 1.10 0.65 0.70 1 0.85 1 0.40 0 -0.35 0.15 -0.55 0.30 -0.35 0.15 0.15 0.10 0.65 -0.15 1.05 -0.40 0.70 -0.65 0.60 -1.90 -0.70z"/>
  <path d="M24.30 7.25 c-0.15 -0.40 -0.05 -0.75 0.15 -0.75 0.25 0 0.55 0.35 0.75 0.75 0.15 0.40 0.05 0.75 -0.15 0.75 -0.25 0 -0.55 -0.35 -0.75 -0.75z"/>
  <path d="M9.20 6.90 c-0.20 -0.35 -0.15 -0.40 0.20 -0.20 0.35 0.20 0.60 0.45 0.60 0.60 0 0.40 -0.45 0.20 -0.80 -0.40z"/>
  <path d="M6 6.25 c0 -0.15 0.10 -0.25 0.25 -0.25 0.15 0 0.25 0.10 0.25 0.25 0 0.15 -0.10 0.25 -0.25 0.25 -0.15 0 -0.25 -0.10 -0.25 -0.25z"/>
  <path d="M6.75 2.85 c-0.60 -0.50 -0.70 -0.80 -0.35 -1.05 0.65 -0.40 2.60 0.50 2.60 1.20 0 0.70 -1.15 0.60 -2.25 -0.15z"/>
 </g>
 <g fill="#5a717b">
  <path d="M20.50 37.50 c0 -1.20 1.75 -1.40 2.20 -0.20 0.45 1.15 0.40 1.20 -0.95 1.20 -0.90 0 -1.25 -0.25 -1.25 -1z"/>
  <path d="M7.50 36.25 c0 -0.15 0.10 -0.25 0.25 -0.25 0.15 0 0.25 0.10 0.25 0.25 0 0.15 -0.10 0.25 -0.25 0.25 -0.15 0 -0.25 -0.10 -0.25 -0.25z"/>
  <path d="M2.20 35.20 c-0.90 -0.70 -0.90 -0.75 0.20 -0.20 0.60 0.30 1.10 0.65 1.10 0.75 0 0.40 -0.25 0.30 -1.30 -0.55z"/>
  <path d="M9.10 35 c0 -0.70 0.10 -0.95 0.25 -0.60 0.10 0.30 0.10 0.90 0 1.25 -0.15 0.30 -0.25 0.05 -0.25 -0.65z"/>
  <path d="M6.50 33.70 c0 -0.40 0.25 -0.60 0.50 -0.45 0.30 0.15 0.50 0.50 0.50 0.80 0 0.25 -0.20 0.45 -0.50 0.45 -0.25 0 -0.50 -0.35 -0.50 -0.80z"/>
  <path d="M10.50 32.75 c0 -0.15 0.10 -0.25 0.25 -0.25 0.15 0 0.25 0.10 0.25 0.25 0 0.15 -0.10 0.25 -0.25 0.25 -0.15 0 -0.25 -0.10 -0.25 -0.25z"/>
  <path d="M7.30 30.45 c-0.95 -0.95 -0.95 -0.95 0.85 -0.95 1.50 0 1.85 0.20 1.85 1 0 1.30 -1.45 1.25 -2.70 -0.05z"/>
  <path d="M32.35 24.15 c-0.35 -3 -0.05 -3.30 0.90 -1 0.95 2.25 0.95 3.35 0.05 3.35 -0.45 0 -0.75 -0.85 -0.95 -2.35z"/>
  <path d="M34 20.75 c0 -0.15 0.10 -0.25 0.25 -0.25 0.15 0 0.25 0.10 0.25 0.25 0 0.15 -0.10 0.25 -0.25 0.25 -0.15 0 -0.25 -0.10 -0.25 -0.25z"/>
  <path d="M21.70 19.25 c0.55 -0.40 1.10 -0.60 1.25 -0.45 0.30 0.30 -0.95 1.20 -1.70 1.20 -0.25 -0.05 -0.05 -0.35 0.45 -0.75z"/>
  <path d="M26.50 19.75 c0 -0.15 0.10 -0.25 0.25 -0.25 0.15 0 0.25 0.10 0.25 0.25 0 0.15 -0.10 0.25 -0.25 0.25 -0.15 0 -0.25 -0.10 -0.25 -0.25z"/>
  <path d="M30.10 19.30 c-0.90 -0.35 -1.50 -0.75 -1.35 -0.90 0.40 -0.35 3.25 0.70 3.25 1.20 0 0.20 -0.05 0.35 -0.10 0.35 -0.10 -0.05 -0.90 -0.35 -1.80 -0.65z"/>
  <path d="M27.35 18.15 c-0.20 -0.15 -0.35 -0.55 -0.35 -0.85 0 -0.30 0.25 -0.25 0.60 0.10 0.30 0.30 0.45 0.70 0.35 0.85 -0.15 0.15 -0.45 0.10 -0.60 -0.10z"/>
  <path d="M32 17.20 l-2.75 -1.25 2.45 0.25 c1.60 0.10 2.80 0.55 3.45 1.25 1.45 1.40 0.40 1.30 -3.15 -0.25z"/>
  <path d="M21.50 17.55 c0 -0.65 1.05 -0.95 2.15 -0.65 0.75 0.20 0.80 0.35 0.25 0.65 -0.85 0.60 -2.40 0.55 -2.40 0z"/>
  <path d="M33.65 15.65 c-1.05 -0.40 -0.75 -1.10 0.35 -0.80 0.55 0.15 1 0.45 1 0.70 0 0.50 -0.40 0.50 -1.35 0.10z"/>
  <path d="M3.50 14.75 c0 -0.15 0.10 -0.25 0.25 -0.25 0.15 0 0.25 0.10 0.25 0.25 0 0.15 -0.10 0.25 -0.25 0.25 -0.15 0 -0.25 -0.10 -0.25 -0.25z"/>
  <path d="M21 14.75 c0 -0.15 0.10 -0.25 0.25 -0.25 0.15 0 0.25 0.10 0.25 0.25 0 0.15 -0.10 0.25 -0.25 0.25 -0.15 0 -0.25 -0.10 -0.25 -0.25z"/>
  <path d="M22.50 14.75 c0 -0.15 0.10 -0.25 0.25 -0.25 0.15 0 0.25 0.10 0.25 0.25 0 0.15 -0.10 0.25 -0.25 0.25 -0.15 0 -0.25 -0.10 -0.25 -0.25z"/>
  <path d="M22.95 13.55 c-0.65 -0.50 -2 -1.30 -2.95 -1.85 -1.30 -0.65 -1.55 -0.95 -0.85 -1.10 0.95 -0.20 3.70 1.35 5.10 2.90 1.15 1.25 0.30 1.30 -1.30 0.05z"/>
  <path d="M27.30 13.90 c-0.45 -0.25 -0.80 -0.70 -0.80 -1 0 -0.60 2.95 -0.15 3.65 0.55 0.60 0.60 -1.90 1 -2.85 0.45z"/>
  <path d="M2 13.25 c0 -0.15 0.10 -0.25 0.25 -0.25 0.15 0 0.25 0.10 0.25 0.25 0 0.15 -0.10 0.25 -0.25 0.25 -0.15 0 -0.25 -0.10 -0.25 -0.25z"/>
  <path d="M0.80 11.75 c-0.95 -0.75 -0.95 -0.75 0.10 -0.75 0.65 0 1.10 0.30 1.10 0.75 0 0.90 0 0.90 -1.20 0z"/>
  <path d="M30.25 12.10 c-0.30 -0.25 -1.60 -0.85 -3 -1.35 -1.35 -0.50 -3.25 -1.60 -4.15 -2.45 -0.90 -0.85 -1.80 -1.55 -1.95 -1.55 -0.20 0 -0.40 -0.55 -0.45 -1.25 -0.15 -1.15 0 -1.05 1.70 0.85 1.05 1.20 3.20 2.75 4.95 3.65 1.70 0.80 3.25 1.70 3.40 2 0.40 0.60 0.10 0.65 -0.50 0.10z m-8.75 -5.35 c0 -0.15 -0.10 -0.25 -0.25 -0.25 -0.15 0 -0.25 0.10 -0.25 0.25 0 0.15 0.10 0.25 0.25 0.25 0.15 0 0.25 -0.10 0.25 -0.25z"/>
  <path d="M6.10 10.20 c-0.65 -0.30 -1 -0.70 -0.75 -0.85 0.40 -0.25 2.50 1 2.10 1.30 -0.10 0.10 -0.75 -0.10 -1.35 -0.45z"/>
  <path d="M8.90 10.05 c-0.50 -0.50 -0.90 -1.15 -0.90 -1.45 0 -0.35 -0.35 -0.60 -0.75 -0.60 -0.40 0 -0.75 -0.30 -0.75 -0.70 0 -0.35 -0.35 -0.95 -0.75 -1.30 -0.40 -0.35 -0.75 -0.95 -0.75 -1.30 0 -1.30 1.70 0.25 3.15 2.85 0.75 1.35 1.55 2.45 1.85 2.45 0.25 0 0.50 0.25 0.50 0.50 0 0.75 -0.65 0.55 -1.60 -0.45z"/>
  <path d="M15.20 10.40 c-0.20 -0.35 -0.15 -0.40 0.20 -0.20 0.60 0.35 0.80 0.80 0.40 0.80 -0.15 0 -0.40 -0.25 -0.60 -0.60z"/>
  <path d="M3 9.95 c0 -0.25 0.25 -0.35 0.50 -0.20 0.30 0.15 0.50 0.40 0.50 0.55 0 0.10 -0.20 0.20 -0.50 0.20 -0.25 0 -0.50 -0.25 -0.50 -0.55z"/>
  <path d="M12.75 9.50 c0.50 -0.55 1 -0.90 1.15 -0.80 0.25 0.30 -1.15 1.80 -1.70 1.80 -0.20 0 0.05 -0.45 0.55 -1z"/>
  <path d="M16.35 7.40 c-0.40 -0.90 -1.05 -1.95 -1.50 -2.35 -0.50 -0.35 -0.85 -1 -0.85 -1.40 0 -0.65 0.15 -0.65 0.75 -0.15 1 0.85 3.35 5.50 2.75 5.50 -0.25 0 -0.80 -0.75 -1.15 -1.60z"/>
  <path d="M12.50 7.75 c0 -0.15 0.10 -0.25 0.25 -0.25 0.15 0 0.25 0.10 0.25 0.25 0 0.15 -0.10 0.25 -0.25 0.25 -0.15 0 -0.25 -0.10 -0.25 -0.25z"/>
 </g>
 <g fill="#7b7569">
  <path d="M21.50 39.55 c0 -0.25 0.30 -0.60 0.65 -0.70 0.30 -0.15 -0.20 -0.25 -1.20 -0.25 -2.55 0.05 -3.40 -0.55 -1.90 -1.40 1.75 -1 2.65 -0.85 3.85 0.55 1.45 1.65 1.40 2.25 -0.15 2.25 -0.70 0 -1.25 -0.20 -1.25 -0.45z"/>
  <path d="M16.35 36.10 c-1.05 -1.15 -1.10 -3.10 -0.10 -3.10 0.45 0 0.90 0.35 1.05 0.75 0.20 0.40 0.75 0.75 1.25 0.75 0.55 0 1.10 0.35 1.30 0.75 0.35 0.95 0.25 1.10 -1.35 1.50 -0.95 0.20 -1.55 0.05 -2.15 -0.65z m0.40 -1.10 c0.15 -0.25 0.20 -0.50 0.05 -0.50 -0.15 0 -0.40 0.25 -0.55 0.50 -0.15 0.30 -0.20 0.50 -0.05 0.50 0.15 0 0.40 -0.20 0.55 -0.50z"/>
  <path d="M11.35 33.20 c-1.65 -0.90 -1.35 -1.70 0.70 -1.70 1.20 0 1.45 0.20 1.45 1.25 0 1.45 -0.25 1.50 -2.15 0.45z m1.15 -0.45 c0 -0.15 -0.10 -0.25 -0.25 -0.25 -0.15 0 -0.25 0.10 -0.25 0.25 0 0.15 0.10 0.25 0.25 0.25 0.15 0 0.25 -0.10 0.25 -0.25z"/>
  <path d="M5.55 29.50 c-0.95 -0.55 -1.95 -1.30 -2.15 -1.75 -0.25 -0.40 -0.80 -0.75 -1.15 -0.75 -0.40 0 -0.75 -0.35 -0.75 -0.75 0 -0.45 -0.30 -0.90 -0.65 -1.05 -0.80 -0.30 -1.10 -3.70 -0.35 -3.70 0.25 0 0.80 0.60 1.20 1.40 0.85 1.60 3.05 4.10 3.70 4.10 0.80 0 2.60 1.85 2.60 2.70 0 1 -0.35 1 -2.45 -0.20z"/>
  <path d="M32.35 26.65 c0.35 -2.30 0.50 -2.50 1.20 -1.80 0.65 0.65 -0.05 3.25 -0.95 3.55 -0.35 0.10 -0.45 -0.45 -0.25 -1.75z"/>
  <path d="M25.20 25.70 c0.15 -0.45 0.30 -0.90 0.30 -1 0 -0.10 0.35 -0.20 0.75 -0.20 0.90 0 0.95 0.60 0.15 1.40 -0.85 0.85 -1.55 0.75 -1.20 -0.20z"/>
  <path d="M21.20 22.25 c0.55 -0.40 1.10 -0.60 1.25 -0.45 0.30 0.30 -0.95 1.20 -1.70 1.20 -0.25 -0.05 -0.05 -0.35 0.45 -0.75z"/>
  <path d="M0 19.25 c0 -1.10 0.25 -1.75 0.65 -1.75 0.45 0 0.60 0.55 0.45 1.75 -0.10 0.95 -0.40 1.75 -0.65 1.75 -0.25 0 -0.45 -0.80 -0.45 -1.75z"/>
  <path d="M1.60 16.40 c0.15 -0.35 1.45 -1.25 2.95 -2.05 2.15 -1.10 3.45 -1.35 6.45 -1.45 4.65 -0.10 7.60 0.35 9.40 1.35 0.75 0.45 0.90 0.65 0.35 0.50 -0.55 -0.20 -2.95 -0.55 -5.30 -0.85 -3.90 -0.50 -4.65 -0.45 -7.85 0.55 -1.95 0.60 -3.85 1.40 -4.30 1.80 -0.90 0.90 -1.95 1 -1.70 0.15z"/>
  <path d="M32 13.75 c0 -0.15 0.10 -0.25 0.25 -0.25 0.15 0 0.25 0.10 0.25 0.25 0 0.15 -0.10 0.25 -0.25 0.25 -0.15 0 -0.25 -0.10 -0.25 -0.25z"/>
  <path d="M22.50 13.25 c0 -0.15 0.10 -0.25 0.25 -0.25 0.15 0 0.25 0.10 0.25 0.25 0 0.15 -0.10 0.25 -0.25 0.25 -0.15 0 -0.25 -0.10 -0.25 -0.25z"/>
  <path d="M32.50 12.50 c0 -0.25 0.25 -0.50 0.55 -0.50 0.25 0 0.35 0.25 0.20 0.50 -0.15 0.30 -0.40 0.50 -0.55 0.50 -0.10 0 -0.20 -0.20 -0.20 -0.50z"/>
  <path d="M32.50 10.75 c0 -0.15 0.10 -0.25 0.25 -0.25 0.15 0 0.25 0.10 0.25 0.25 0 0.15 -0.10 0.25 -0.25 0.25 -0.15 0 -0.25 -0.10 -0.25 -0.25z"/>
  <path d="M32 9.50 c0 -0.35 0.15 -0.50 0.35 -0.35 0.15 0.20 0.15 0.50 0 0.70 -0.20 0.15 -0.35 0 -0.35 -0.35z"/>
  <path d="M12.10 7.40 c-0.35 -0.35 -0.60 -0.95 -0.60 -1.35 0 -0.55 0.25 -0.40 0.80 0.35 0.90 1.25 0.75 1.95 -0.20 1z"/>
  <path d="M13 6.25 c0 -0.15 0.10 -0.25 0.25 -0.25 0.15 0 0.25 0.10 0.25 0.25 0 0.15 -0.10 0.25 -0.25 0.25 -0.15 0 -0.25 -0.10 -0.25 -0.25z"/>
  <path d="M4.80 5.10 c-0.20 -0.35 -0.60 -0.50 -0.85 -0.30 -0.30 0.15 -0.95 -0.15 -1.50 -0.75 -1.20 -1.25 -1.20 -1.55 0 -1.55 1.30 0 3.25 1.65 2.95 2.50 -0.15 0.55 -0.30 0.55 -0.60 0.10z"/>
  <path d="M19.10 4 c-0.80 -1.30 -0.75 -2.55 0.10 -2.20 0.55 0.20 1.80 2.25 1.80 2.95 0 0.65 -1.35 0.10 -1.90 -0.75z"/>
  <path d="M6.85 2.95 c-0.45 -0.30 -0.75 -0.70 -0.60 -0.95 0.40 -0.65 2.25 0 2.25 0.80 0 0.80 -0.40 0.85 -1.65 0.15z"/>
 </g>
 <g fill="#697e90">
  <path d="M12.50 39.50 c0 -0.35 0.15 -0.50 0.35 -0.35 0.15 0.20 0.15 0.50 0 0.70 -0.20 0.15 -0.35 0 -0.35 -0.35z"/>
  <path d="M14.50 38.20 c0 -0.40 0.25 -0.60 0.50 -0.45 0.30 0.20 0.40 0.55 0.25 0.80 -0.45 0.70 -0.75 0.55 -0.75 -0.35z"/>
  <path d="M10.15 38.15 c0.20 -0.15 0.50 -0.15 0.70 0 0.15 0.20 0 0.35 -0.35 0.35 -0.35 0 -0.50 -0.15 -0.35 -0.35z"/>
  <path d="M11.50 37 c0 -0.25 0.35 -0.50 0.75 -0.50 0.40 0 0.75 0.25 0.75 0.50 0 0.30 -0.35 0.50 -0.75 0.50 -0.40 0 -0.75 -0.20 -0.75 -0.50z"/>
  <path d="M9.05 35.20 c0 -0.55 0.15 -0.70 0.30 -0.30 0.15 0.35 0.10 0.80 -0.05 0.95 -0.15 0.20 -0.30 -0.10 -0.25 -0.65z"/>
  <path d="M6.55 33.70 c0 -0.55 0.15 -0.70 0.30 -0.30 0.15 0.35 0.10 0.80 -0.05 0.95 -0.15 0.20 -0.30 -0.10 -0.25 -0.65z"/>
  <path d="M3.50 32 c0 -0.25 0.20 -0.50 0.45 -0.50 0.30 0 0.65 0.25 0.80 0.50 0.15 0.30 -0.05 0.50 -0.45 0.50 -0.45 0 -0.80 -0.20 -0.80 -0.50z"/>
  <path d="M32.50 24.05 c0 -0.55 -0.15 -1.40 -0.30 -1.90 -0.30 -0.80 -0.25 -0.80 0.45 0.10 0.90 1.10 1.10 2.75 0.35 2.75 -0.25 0 -0.50 -0.45 -0.50 -0.95z"/>
  <path d="M26.95 22.80 c0.40 -0.50 1.20 -1.10 1.75 -1.40 1 -0.55 1 -0.50 0.25 0.65 -0.45 0.65 -1.25 1.30 -1.75 1.40 -0.80 0.15 -0.85 0.05 -0.25 -0.65z"/>
  <path d="M22.15 21.85 c0.20 -0.65 4.85 -2.55 4.85 -1.95 0 0.20 -0.75 0.70 -1.60 1.05 -0.90 0.40 -2.05 0.90 -2.55 1.15 -0.65 0.30 -0.85 0.20 -0.70 -0.25z"/>
  <path d="M20 19.95 c0 -0.25 0.20 -0.45 0.45 -0.45 0.25 0 0.85 -0.15 1.35 -0.35 0.55 -0.20 0.75 -0.15 0.55 0.20 -0.45 0.70 -2.35 1.20 -2.35 0.60z"/>
  <path d="M31 19.50 c-0.65 -0.45 -0.65 -0.50 0 -0.50 0.40 0 1.10 0.25 1.50 0.50 0.65 0.45 0.65 0.50 0 0.50 -0.40 0 -1.10 -0.25 -1.50 -0.50z"/>
  <path d="M28.75 18.50 c0.20 -0.30 0.55 -0.40 0.80 -0.25 0.70 0.45 0.55 0.75 -0.35 0.75 -0.40 0 -0.60 -0.25 -0.45 -0.50z"/>
  <path d="M22 17.30 c0.30 -0.40 0.90 -0.60 1.35 -0.45 0.60 0.25 0.60 0.35 0.05 0.70 -0.35 0.25 -0.95 0.45 -1.35 0.45 -0.55 0 -0.55 -0.15 -0.05 -0.70z"/>
  <path d="M27.50 17.75 c0 -0.15 0.10 -0.25 0.25 -0.25 0.15 0 0.25 0.10 0.25 0.25 0 0.15 -0.10 0.25 -0.25 0.25 -0.15 0 -0.25 -0.10 -0.25 -0.25z"/>
  <path d="M31.50 16.50 c0 -0.65 1 -0.65 2 0 0.60 0.40 0.45 0.50 -0.60 0.50 -0.80 0 -1.40 -0.20 -1.40 -0.50z"/>
  <path d="M29.40 16.15 c0.30 -0.10 0.90 -0.10 1.25 0 0.30 0.15 0.05 0.25 -0.65 0.25 -0.70 0 -0.95 -0.10 -0.60 -0.25z"/>
  <path d="M23.70 15.40 c-0.20 -0.35 -0.15 -0.40 0.20 -0.20 0.60 0.35 0.80 0.80 0.40 0.80 -0.15 0 -0.40 -0.25 -0.60 -0.60z"/>
  <path d="M32.55 15.05 c-1.15 -0.60 -1.45 -1 -1 -1.15 0.40 -0.15 1.40 0.25 2.20 0.90 1.75 1.40 1.20 1.55 -1.20 0.25z"/>
  <path d="M24.20 14.30 c-0.50 -0.40 -0.80 -0.85 -0.65 -1 0.15 -0.15 0.70 0.15 1.20 0.70 1.05 1.15 0.85 1.30 -0.55 0.30z"/>
  <path d="M28.50 13.50 c0 -0.25 0.30 -0.50 0.70 -0.50 0.40 0 0.90 0.25 1.05 0.50 0.15 0.30 -0.15 0.50 -0.70 0.50 -0.60 0 -1.05 -0.20 -1.05 -0.50z"/>
  <path d="M26.50 13.25 c0 -0.15 0.10 -0.25 0.25 -0.25 0.15 0 0.25 0.10 0.25 0.25 0 0.15 -0.10 0.25 -0.25 0.25 -0.15 0 -0.25 -0.10 -0.25 -0.25z"/>
  <path d="M32.50 12.75 c0 -0.15 0.10 -0.25 0.25 -0.25 0.15 0 0.25 0.10 0.25 0.25 0 0.15 -0.10 0.25 -0.25 0.25 -0.15 0 -0.25 -0.10 -0.25 -0.25z"/>
  <path d="M4 11.45 c0 -0.25 0.25 -0.35 0.50 -0.20 0.30 0.15 0.50 0.40 0.50 0.55 0 0.10 -0.20 0.20 -0.50 0.20 -0.25 0 -0.50 -0.25 -0.50 -0.55z"/>
  <path d="M19.20 11.25 c-0.50 -0.40 -0.70 -0.75 -0.35 -0.75 0.95 0 2.15 0.55 2.15 1.05 0 0.65 -0.70 0.55 -1.80 -0.30z"/>
  <path d="M29.20 11.20 c-0.90 -0.70 -0.90 -0.75 0.20 -0.20 0.60 0.30 1.10 0.65 1.10 0.75 0 0.40 -0.25 0.30 -1.30 -0.55z"/>
  <path d="M0 11.25 c0 -0.15 0.10 -0.25 0.25 -0.25 0.15 0 0.25 0.10 0.25 0.25 0 0.15 -0.10 0.25 -0.25 0.25 -0.15 0 -0.25 -0.10 -0.25 -0.25z"/>
  <path d="M6.10 10.25 c-0.65 -0.35 -0.95 -0.75 -0.70 -0.95 0.25 -0.15 0.85 0.15 1.35 0.70 1.05 1.15 0.95 1.15 -0.65 0.25z"/>
  <path d="M9.20 10.10 c-0.60 -0.45 -1.20 -1.25 -1.35 -1.75 -0.20 -0.55 -0.60 -0.75 -0.90 -0.55 -0.35 0.20 -0.45 0.15 -0.30 -0.15 0.15 -0.25 -0.50 -1.25 -1.50 -2.20 -1 -0.95 -1.60 -1.40 -1.40 -1 0.25 0.45 0.15 0.60 -0.30 0.45 -0.40 -0.15 -0.65 -0.55 -0.55 -0.85 0.05 -0.30 -0.25 -0.55 -0.70 -0.55 -0.40 0 -0.60 -0.20 -0.45 -0.50 0.15 -0.25 0.65 -0.50 1 -0.50 1.10 0 4.20 2.95 5.30 5.05 0.50 1.05 1.35 2.10 1.80 2.40 0.50 0.25 0.80 0.60 0.65 0.75 -0.15 0.10 -0.75 -0.15 -1.30 -0.60z"/>
  <path d="M3 10 c0 -0.35 0.15 -0.50 0.35 -0.35 0.15 0.20 0.15 0.50 0 0.70 -0.20 0.15 -0.35 0 -0.35 -0.35z"/>
  <path d="M16 9.50 c0 -0.35 0.15 -0.50 0.35 -0.35 0.15 0.20 0.15 0.50 0 0.70 -0.20 0.15 -0.35 0 -0.35 -0.35z"/>
  <path d="M23.25 8.50 c-0.80 -0.80 -1.55 -1.40 -1.65 -1.25 -0.45 0.45 -2.10 -1.40 -2.10 -2.30 0 -0.50 -0.20 -1.05 -0.50 -1.20 -0.25 -0.15 -0.50 -0.75 -0.50 -1.25 0 -1.35 1.15 -0.80 1.90 0.90 0.85 1.95 4.05 5.60 4.85 5.60 0.40 0 0.85 0.25 1 0.50 0.70 1.15 -1.70 0.35 -3 -1z m-2.25 -2.55 c-0.35 -0.55 -0.70 -0.90 -0.85 -0.75 -0.15 0.15 0 0.60 0.35 1.05 0.90 1.05 1.15 0.95 0.50 -0.30z"/>
  <path d="M10.75 9 c0.15 -0.25 0.40 -0.50 0.55 -0.50 0.10 0 0.20 0.25 0.20 0.50 0 0.30 -0.25 0.50 -0.55 0.50 -0.25 0 -0.35 -0.20 -0.20 -0.50z"/>
  <path d="M13.50 9 c0 -0.35 0.15 -0.50 0.35 -0.35 0.15 0.20 0.15 0.50 0 0.70 -0.20 0.15 -0.35 0 -0.35 -0.35z"/>
  <path d="M2.15 8.65 c0.20 -0.15 0.50 -0.15 0.70 0 0.15 0.20 0 0.35 -0.35 0.35 -0.35 0 -0.50 -0.15 -0.35 -0.35z"/>
  <path d="M17 8.50 c-0.40 -0.25 -0.60 -0.60 -0.45 -0.75 0.20 -0.15 0.60 0.05 0.95 0.50 0.70 0.85 0.55 0.95 -0.50 0.25z"/>
  <path d="M11.75 7 c-0.50 -0.55 -0.75 -1.15 -0.60 -1.35 0.35 -0.30 1.80 1.25 1.85 2 0 0.55 -0.30 0.40 -1.25 -0.65z"/>
  <path d="M16 6.50 c0 -0.35 0.15 -0.50 0.35 -0.35 0.15 0.20 0.15 0.50 0 0.70 -0.20 0.15 -0.35 0 -0.35 -0.35z"/>
 </g>
 <g fill="#8e8a7a">
  <path d="M21.50 39.75 c0 -0.15 0.10 -0.25 0.25 -0.25 0.15 0 0.25 0.10 0.25 0.25 0 0.15 -0.10 0.25 -0.25 0.25 -0.15 0 -0.25 -0.10 -0.25 -0.25z"/>
  <path d="M22.50 39.15 c0 -0.70 -0.40 -0.90 -1.75 -0.90 -2.15 0 -2.50 -0.80 -0.60 -1.45 1.20 -0.45 1.55 -0.30 2.65 0.85 0.70 0.75 1.45 1.35 1.70 1.35 0.30 0 0.50 0.25 0.50 0.50 0 0.30 -0.55 0.50 -1.25 0.50 -0.85 0 -1.25 -0.25 -1.25 -0.85z"/>
  <path d="M16.25 36.05 c-0.30 -0.55 1.25 -1.55 2.40 -1.55 0.80 0 1.50 1.20 1 1.70 -0.50 0.50 -3.05 0.35 -3.40 -0.15z"/>
  <path d="M13.65 34.45 c-0.90 -0.60 -1.55 -1.20 -1.40 -1.40 0.10 -0.20 -0.30 -0.35 -0.90 -0.35 -0.65 0.05 -1.05 -0.20 -0.95 -0.55 0.05 -0.35 -0.35 -0.65 -0.90 -0.65 -0.65 0 -1 -0.35 -1 -1 0 -0.55 0.30 -1 0.70 -1 0.80 0 5.50 2.55 5.70 3.10 0.10 0.20 0.60 0.40 1.10 0.40 1.40 0 1.75 0.95 0.70 1.75 -1.20 0.90 -1.15 0.90 -3.05 -0.30z"/>
  <path d="M4.15 28.65 c-0.35 -0.10 -0.65 -0.55 -0.65 -0.90 0 -0.35 -0.45 -0.75 -1 -0.90 -0.55 -0.15 -1 -0.60 -1 -1.05 0 -0.45 -0.35 -0.80 -0.75 -0.80 -0.90 0 -1 -0.80 -0.10 -1.15 0.50 -0.20 0.50 -0.30 0 -0.30 -0.35 -0.05 -0.65 -0.55 -0.65 -1.15 0 -1 0.05 -1.05 1 -0.15 0.55 0.50 1 1.45 1 2.10 0 0.75 0.30 1.15 0.90 1.15 1 0 2.60 1.65 2.60 2.75 0 0.75 -0.30 0.85 -1.35 0.40z"/>
  <path d="M32.50 25.50 c0 -2.10 0.70 -2.70 1.15 -1 0.30 1.20 -0.10 3 -0.70 3 -0.25 0 -0.45 -0.90 -0.45 -2z"/>
  <path d="M25.35 26.20 c-0.55 -0.55 0.80 -2.70 1.75 -2.70 0.95 0 0.90 0.05 -0.10 1.50 -1.15 1.60 -1.20 1.65 -1.65 1.20z"/>
  <path d="M0 20.25 c0 -0.40 0.25 -0.75 0.50 -0.75 0.30 0 0.50 0.35 0.50 0.75 0 0.40 -0.20 0.75 -0.50 0.75 -0.25 0 -0.50 -0.35 -0.50 -0.75z"/>
  <path d="M20 20.05 c0 -0.40 2.05 -1.15 2.35 -0.85 0.10 0.05 -0.40 0.40 -1.10 0.70 -0.70 0.30 -1.25 0.40 -1.25 0.15z"/>
  <path d="M22.15 17.65 c0.20 -0.15 0.50 -0.15 0.70 0 0.15 0.20 0 0.35 -0.35 0.35 -0.35 0 -0.50 -0.15 -0.35 -0.35z"/>
  <path d="M1.50 16.55 c0 -0.25 1.15 -1.05 2.60 -1.80 2.90 -1.50 7.20 -2.30 9.60 -1.75 1.40 0.35 1.25 0.40 -0.95 0.45 -2.95 0.05 -9.25 1.95 -9.60 2.90 -0.30 0.75 -1.65 0.90 -1.65 0.20z"/>
  <path d="M32.60 14.95 c-0.65 -0.25 -1 -0.70 -0.85 -1 0.25 -0.35 0.65 -0.20 1.30 0.35 0.50 0.45 0.95 0.95 0.95 1.05 0 0.20 0 0.20 -1.40 -0.40z"/>
  <path d="M19.50 14.25 c0 -0.15 0.10 -0.25 0.25 -0.25 0.15 0 0.25 0.10 0.25 0.25 0 0.15 -0.10 0.25 -0.25 0.25 -0.15 0 -0.25 -0.10 -0.25 -0.25z"/>
  <path d="M32.75 12.50 c0.15 -0.25 0.40 -0.50 0.55 -0.50 0.15 0 0.10 0.25 -0.05 0.50 -0.15 0.30 -0.40 0.50 -0.55 0.50 -0.15 0 -0.10 -0.20 0.05 -0.50z"/>
  <path d="M32 9.75 c0 -0.15 0.10 -0.25 0.25 -0.25 0.15 0 0.25 0.10 0.25 0.25 0 0.15 -0.10 0.25 -0.25 0.25 -0.15 0 -0.25 -0.10 -0.25 -0.25z"/>
  <path d="M4 7.75 c0 -0.15 0.10 -0.25 0.25 -0.25 0.15 0 0.25 0.10 0.25 0.25 0 0.15 -0.10 0.25 -0.25 0.25 -0.15 0 -0.25 -0.10 -0.25 -0.25z"/>
  <path d="M4.75 5 c-0.50 -0.60 -1.25 -0.90 -1.60 -0.75 -0.40 0.10 -0.55 0 -0.40 -0.25 0.15 -0.30 -0.05 -0.50 -0.50 -0.50 -0.45 0 -0.65 -0.20 -0.50 -0.50 0.15 -0.25 0.60 -0.50 1 -0.50 0.80 0 3.75 2.40 3.75 3.05 0 0.75 -0.80 0.50 -1.75 -0.55z"/>
 </g>
 <g fill="#5dd366">
  <path d="M26.75 13.45 c-0.20 -0.30 -0.25 -0.60 -0.15 -0.75 0.40 -0.35 3.40 0.40 3.40 0.85 0 0.65 -2.90 0.55 -3.25 -0.10z"/>
  <path d="M29 11.25 c0 -0.15 0.10 -0.25 0.25 -0.25 0.15 0 0.25 0.10 0.25 0.25 0 0.15 -0.10 0.25 -0.25 0.25 -0.15 0 -0.25 -0.10 -0.25 -0.25z"/>
 </g>
 <g fill="#7a91a2">
  <path d="M12.50 39.75 c0 -0.15 0.10 -0.25 0.25 -0.25 0.15 0 0.25 0.10 0.25 0.25 0 0.15 -0.10 0.25 -0.25 0.25 -0.15 0 -0.25 -0.10 -0.25 -0.25z"/>
  <path d="M14.50 38.25 c0 -0.15 0.10 -0.25 0.25 -0.25 0.15 0 0.25 0.10 0.25 0.25 0 0.15 -0.10 0.25 -0.25 0.25 -0.15 0 -0.25 -0.10 -0.25 -0.25z"/>
  <path d="M12 37 c0 -0.25 0.25 -0.50 0.55 -0.50 0.25 0 0.35 0.25 0.20 0.50 -0.15 0.30 -0.40 0.50 -0.55 0.50 -0.10 0 -0.20 -0.20 -0.20 -0.50z"/>
  <path d="M9 34.75 c0 -0.15 0.10 -0.25 0.25 -0.25 0.15 0 0.25 0.10 0.25 0.25 0 0.15 -0.10 0.25 -0.25 0.25 -0.15 0 -0.25 -0.10 -0.25 -0.25z"/>
  <path d="M32.35 23 c-0.15 -0.55 -0.15 -1 -0.05 -1 0.10 0 0.40 0.45 0.70 1 0.30 0.55 0.35 1 0.10 1 -0.30 0 -0.60 -0.45 -0.75 -1z"/>
  <path d="M23.60 21.40 c0.20 -0.55 3.40 -2.15 3.40 -1.70 0 0.10 -0.80 0.70 -1.80 1.25 -1 0.60 -1.70 0.80 -1.60 0.45z"/>
  <path d="M33.75 20.50 c-0.15 -0.25 -0.05 -0.50 0.20 -0.50 0.30 0 0.55 0.25 0.55 0.50 0 0.30 -0.10 0.50 -0.20 0.50 -0.15 0 -0.40 -0.20 -0.55 -0.50z"/>
  <path d="M28.65 18.65 c0.20 -0.15 0.50 -0.15 0.70 0 0.15 0.20 0 0.35 -0.35 0.35 -0.35 0 -0.50 -0.15 -0.35 -0.35z"/>
  <path d="M33.75 17.90 c-0.55 -0.35 -1.80 -0.90 -2.75 -1.25 l-1.75 -0.60 1.75 -0.05 c1.55 0 5 1.55 5 2.25 0 0.45 -1.20 0.25 -2.25 -0.35z"/>
  <path d="M22 17.55 c0 -0.30 0.25 -0.65 0.50 -0.80 0.30 -0.15 0.50 0.05 0.50 0.45 0 0.45 -0.20 0.80 -0.50 0.80 -0.25 0 -0.50 -0.20 -0.50 -0.45z"/>
  <path d="M27 17.45 c0 -0.25 0.25 -0.35 0.50 -0.20 0.30 0.15 0.50 0.40 0.50 0.55 0 0.10 -0.20 0.20 -0.50 0.20 -0.25 0 -0.50 -0.25 -0.50 -0.55z"/>
  <path d="M23.70 15.40 c-0.20 -0.35 -0.15 -0.40 0.20 -0.20 0.35 0.20 0.60 0.45 0.60 0.60 0 0.40 -0.45 0.20 -0.80 -0.40z"/>
  <path d="M33.10 15.25 c-1.50 -0.80 -1.90 -1.25 -1.05 -1.25 0.75 0.05 2.75 1.40 2.40 1.65 -0.10 0.10 -0.70 -0.10 -1.35 -0.40z"/>
  <path d="M22.65 13.35 c-1.70 -1.15 -2.10 -1.85 -1 -1.85 0.35 0 1.30 0.70 2.10 1.50 1.70 1.75 1.20 1.90 -1.10 0.35z"/>
  <path d="M29.25 13.50 c-0.15 -0.25 -0.05 -0.50 0.20 -0.50 0.30 0 0.55 0.25 0.55 0.50 0 0.30 -0.10 0.50 -0.20 0.50 -0.15 0 -0.40 -0.20 -0.55 -0.50z"/>
  <path d="M4 11.75 c0 -0.15 0.10 -0.25 0.25 -0.25 0.15 0 0.25 0.10 0.25 0.25 0 0.15 -0.10 0.25 -0.25 0.25 -0.15 0 -0.25 -0.10 -0.25 -0.25z"/>
  <path d="M28.50 11 c-0.40 -0.25 -0.50 -0.50 -0.25 -0.50 0.30 0 0.85 0.25 1.25 0.50 0.40 0.25 0.55 0.50 0.25 0.50 -0.25 0 -0.85 -0.25 -1.25 -0.50z"/>
  <path d="M3 10.25 c0 -0.15 0.10 -0.25 0.25 -0.25 0.15 0 0.25 0.10 0.25 0.25 0 0.15 -0.10 0.25 -0.25 0.25 -0.15 0 -0.25 -0.10 -0.25 -0.25z"/>
  <path d="M9.65 10.15 c0.20 -0.15 0.50 -0.15 0.70 0 0.15 0.20 0 0.35 -0.35 0.35 -0.35 0 -0.50 -0.15 -0.35 -0.35z"/>
  <path d="M12.15 10.15 c0.20 -0.15 0.50 -0.15 0.70 0 0.15 0.20 0 0.35 -0.35 0.35 -0.35 0 -0.50 -0.15 -0.35 -0.35z"/>
  <path d="M15 10.25 c0 -0.15 0.10 -0.25 0.25 -0.25 0.15 0 0.25 0.10 0.25 0.25 0 0.15 -0.10 0.25 -0.25 0.25 -0.15 0 -0.25 -0.10 -0.25 -0.25z"/>
  <path d="M25.40 9.90 c-0.80 -0.25 -1.40 -0.70 -1.40 -0.95 0 -0.50 1.30 -0.10 2.75 0.90 1.15 0.75 0.60 0.80 -1.35 0.05z"/>
  <path d="M8 8.50 c-0.30 -0.55 -0.80 -0.85 -1.10 -0.70 -0.30 0.20 -0.40 0.15 -0.20 -0.20 0.45 -0.70 -2.65 -3.70 -3.55 -3.40 -0.40 0.15 -0.55 0.05 -0.40 -0.20 0.15 -0.30 -0.05 -0.50 -0.50 -0.50 -0.45 0 -0.65 -0.25 -0.50 -0.50 0.85 -1.40 4.65 1.40 6.30 4.65 0.55 1 0.85 1.85 0.75 1.85 -0.15 0 -0.50 -0.45 -0.80 -1z"/>
  <path d="M13.50 9.25 c0 -0.15 0.10 -0.25 0.25 -0.25 0.15 0 0.25 0.10 0.25 0.25 0 0.15 -0.10 0.25 -0.25 0.25 -0.15 0 -0.25 -0.10 -0.25 -0.25z"/>
  <path d="M2.50 8.75 c0 -0.15 0.10 -0.25 0.25 -0.25 0.15 0 0.25 0.10 0.25 0.25 0 0.15 -0.10 0.25 -0.25 0.25 -0.15 0 -0.25 -0.10 -0.25 -0.25z"/>
  <path d="M22 7.25 c-0.35 -0.40 -0.80 -0.65 -1 -0.50 -0.50 0.30 -1.75 -1.20 -1.35 -1.60 0.20 -0.15 0.10 -0.60 -0.20 -1 -0.45 -0.50 -0.40 -0.65 0.15 -0.65 0.45 0 1.40 0.90 2.10 2.05 1.35 2 1.55 3.20 0.30 1.70z m-1.40 -1.85 c-0.35 -0.35 -0.60 -0.40 -0.60 -0.10 0 0.70 0.60 1.30 0.95 0.95 0.10 -0.15 -0.05 -0.55 -0.35 -0.85z"/>
 </g>
 <g fill="#9e9d91">
  <path d="M15.50 34.35 c0 -0.85 0.25 -1.35 0.70 -1.35 1.20 0 1.35 0.80 0.30 1.75 -0.95 0.90 -1 0.85 -1 -0.40z"/>
  <path d="M17.50 35 c0.95 -0.65 1.50 -0.65 1.50 0 0 0.30 -0.50 0.50 -1.10 0.50 -0.95 0 -1 -0.10 -0.40 -0.50z"/>
  <path d="M10.35 32.70 c-0.15 -0.15 -0.15 -0.60 0 -1 0.20 -0.50 0 -0.60 -0.55 -0.40 -0.60 0.20 -0.80 0 -0.80 -0.75 0 -0.60 0.30 -1.05 0.65 -1.05 1.10 0.05 2.95 1.95 2.65 2.75 -0.25 0.75 -1.35 1 -1.95 0.45z"/>
  <path d="M4.05 28.55 c-0.35 -0.25 -0.50 -0.70 -0.35 -1 0.25 -0.35 -0.05 -0.55 -0.70 -0.55 -0.55 0 -1.20 -0.40 -1.35 -0.85 -0.20 -0.50 -0.65 -1.10 -1.05 -1.35 -0.60 -0.35 -0.60 -0.50 -0.05 -0.85 0.50 -0.30 0.55 -0.45 0.10 -0.45 -0.35 0 -0.65 -0.35 -0.65 -0.75 0 -1.20 0.90 -0.90 1.85 0.65 1.05 1.65 3.05 3.60 3.70 3.60 0.25 0 0.45 0.45 0.45 1 0 1.05 -0.80 1.30 -1.95 0.55z"/>
  <path d="M25.30 26.05 c-0.40 -0.65 1.85 -3.75 2.90 -3.95 0.75 -0.15 0.65 0.25 -0.70 2.10 -1.80 2.50 -1.80 2.50 -2.20 1.85z"/>
  <path d="M0 20.20 c0 -0.40 0.25 -0.60 0.50 -0.45 0.30 0.15 0.50 0.50 0.50 0.80 0 0.25 -0.20 0.45 -0.50 0.45 -0.25 0 -0.50 -0.35 -0.50 -0.80z"/>
  <path d="M19.75 20 c0.15 -0.25 0.70 -0.50 1.15 -0.50 0.75 0 0.75 0.10 0.10 0.50 -1 0.65 -1.65 0.65 -1.25 0z"/>
  <path d="M0 18.25 c0 -0.40 0.25 -0.75 0.50 -0.75 0.30 0 0.50 0.35 0.50 0.75 0 0.40 -0.20 0.75 -0.50 0.75 -0.25 0 -0.50 -0.35 -0.50 -0.75z"/>
  <path d="M1.50 16.60 c0 -0.25 0.35 -0.65 0.80 -0.80 0.50 -0.20 0.70 -0.05 0.60 0.30 -0.25 0.75 -1.40 1.15 -1.40 0.50z"/>
  <path d="M5.25 14.45 c1.10 -0.50 2.35 -0.90 2.75 -0.90 0.95 0.05 -3 1.90 -4 1.85 -0.40 0 0.15 -0.40 1.25 -0.95z"/>
  <path d="M9.15 13.15 c0.20 -0.15 0.50 -0.15 0.70 0 0.15 0.20 0 0.35 -0.35 0.35 -0.35 0 -0.50 -0.15 -0.35 -0.35z"/>
  <path d="M10.90 13.15 c0.35 -0.15 0.80 -0.10 0.95 0.05 0.20 0.15 -0.10 0.30 -0.65 0.25 -0.55 0 -0.70 -0.15 -0.30 -0.30z"/>
  <path d="M13.40 3.80 c-0.80 -0.65 -1.40 -1.30 -1.40 -1.50 0 -0.65 1.40 -0.25 2.20 0.65 1.40 1.55 0.70 2.20 -0.80 0.85z"/>
  <path d="M7.60 3.25 c-1.80 -1.20 -1.60 -1.90 0.30 -1.20 1 0.40 2 1.75 1.55 2.15 -0.10 0.10 -0.95 -0.30 -1.85 -0.95z"/>
  <path d="M18.85 3.15 c-0.65 -0.65 -0.35 -1.60 0.40 -1.35 0.40 0.20 0.75 0.60 0.75 1 0 0.75 -0.60 0.95 -1.15 0.35z"/>
 </g>
 <g fill="#90acc0">
  <path d="M12 37.25 c0 -0.15 0.10 -0.25 0.25 -0.25 0.15 0 0.25 0.10 0.25 0.25 0 0.15 -0.10 0.25 -0.25 0.25 -0.15 0 -0.25 -0.10 -0.25 -0.25z"/>
  <path d="M32.50 24.40 c0 -1.60 0.15 -1.95 0.50 -1.40 0.65 1 0.65 3.50 0 3.50 -0.25 0 -0.50 -0.95 -0.50 -2.10z"/>
  <path d="M26.50 23.55 c0 -0.60 2.10 -2.10 2.45 -1.80 0.25 0.30 -1.45 2.25 -2.05 2.25 -0.20 0 -0.40 -0.20 -0.40 -0.45z"/>
  <path d="M23.50 21.45 c0 -0.45 2.45 -1.65 2.80 -1.35 0.05 0.10 -0.55 0.55 -1.35 1 -0.80 0.45 -1.45 0.65 -1.45 0.35z"/>
  <path d="M20.65 19.65 c0.20 -0.15 0.50 -0.15 0.70 0 0.15 0.20 0 0.35 -0.35 0.35 -0.35 0 -0.50 -0.15 -0.35 -0.35z"/>
  <path d="M22 19.25 c0 -0.15 0.10 -0.25 0.25 -0.25 0.15 0 0.25 0.10 0.25 0.25 0 0.15 -0.10 0.25 -0.25 0.25 -0.15 0 -0.25 -0.10 -0.25 -0.25z"/>
  <path d="M30.90 19.15 c0.35 -0.15 0.80 -0.10 0.95 0.05 0.20 0.15 -0.10 0.30 -0.65 0.25 -0.55 0 -0.70 -0.15 -0.30 -0.30z"/>
  <path d="M28.90 18.65 c0.35 -0.15 0.80 -0.10 0.95 0.05 0.20 0.15 -0.10 0.30 -0.65 0.25 -0.55 0 -0.70 -0.15 -0.30 -0.30z"/>
  <path d="M32.75 17.35 c-1.05 -0.55 -1.70 -1.10 -1.40 -1.20 0.80 -0.30 4.15 1.20 4.15 1.80 0 0.70 -0.35 0.65 -2.75 -0.60z"/>
  <path d="M22 17.75 c0 -0.15 0.10 -0.25 0.25 -0.25 0.15 0 0.25 0.10 0.25 0.25 0 0.15 -0.10 0.25 -0.25 0.25 -0.15 0 -0.25 -0.10 -0.25 -0.25z"/>
  <path d="M27 17.50 c0 -0.35 0.15 -0.50 0.35 -0.35 0.15 0.20 0.15 0.50 0 0.70 -0.20 0.15 -0.35 0 -0.35 -0.35z"/>
  <path d="M33.15 15.30 c-0.65 -0.30 -1.15 -0.70 -1.15 -0.90 0 -0.65 0.65 -0.45 2 0.60 1.35 1.05 0.95 1.20 -0.85 0.30z"/>
  <path d="M23.25 13.50 c-0.50 -0.55 -0.70 -1 -0.40 -1 0.25 0 0.90 0.45 1.40 1 0.50 0.55 0.70 1 0.40 1 -0.25 0 -0.90 -0.45 -1.40 -1z"/>
  <path d="M20 11.50 l-1.25 -1.05 1.25 0.35 c1.55 0.40 1.65 0.50 1.40 1.20 -0.10 0.40 -0.65 0.20 -1.40 -0.50z"/>
  <path d="M26.75 10.45 c-1.35 -0.55 -2.90 -1.40 -3.45 -1.85 -1.40 -1.30 -2.95 -3.60 -2.35 -3.60 0.25 0 0.90 0.70 1.40 1.55 0.60 1 2 2.05 4.05 3 1.70 0.85 3.10 1.60 3.10 1.75 0 0.25 0.15 0.30 -2.75 -0.85z"/>
  <path d="M5.50 9.75 c0 -0.15 0.10 -0.25 0.25 -0.25 0.15 0 0.25 0.10 0.25 0.25 0 0.15 -0.10 0.25 -0.25 0.25 -0.15 0 -0.25 -0.10 -0.25 -0.25z"/>
  <path d="M8.20 8.90 c-0.20 -0.35 -0.70 -1.20 -1.10 -1.90 -0.70 -1.20 -0.65 -1.20 0.15 -0.25 1 1.20 1.85 2.75 1.55 2.75 -0.15 0 -0.40 -0.30 -0.60 -0.60z"/>
  <path d="M10 5.25 c-1.45 -1.50 -1.95 -2.25 -1.40 -2.25 0.80 0 3.90 3.15 3.90 4 0 0.75 -0.15 0.65 -2.50 -1.75z"/>
  <path d="M15.35 5.70 c-1.10 -1.45 -0.70 -2.35 0.40 -0.90 0.60 0.80 1 2.25 0.65 2.20 -0.10 0 -0.55 -0.60 -1.05 -1.30z"/>
  <path d="M20.50 6.75 c0 -0.15 0.10 -0.25 0.25 -0.25 0.15 0 0.25 0.10 0.25 0.25 0 0.15 -0.10 0.25 -0.25 0.25 -0.15 0 -0.25 -0.10 -0.25 -0.25z"/>
 </g>
 <g fill="#afaf9f">
  <path d="M23 39.30 c0 -0.45 0.35 -0.60 1 -0.45 0.55 0.15 1 0.45 1 0.70 0 0.25 -0.45 0.45 -1 0.45 -0.55 0 -1 -0.30 -1 -0.70z"/>
  <path d="M19 38.10 c0 -1.45 2.50 -2.10 3.45 -0.90 0.45 0.55 0.35 0.75 -0.55 1 -1.60 0.40 -2.90 0.35 -2.90 -0.10z"/>
  <path d="M16.75 36 c-0.45 -0.75 2.15 -1.80 2.80 -1.15 0.30 0.30 0.40 0.80 0.25 1.10 -0.45 0.70 -2.65 0.70 -3.05 0.05z"/>
  <path d="M14.35 34.75 c-2.40 -1.25 -2.50 -1.35 -1.80 -1.85 0.50 -0.30 0.35 -0.35 -0.40 -0.15 -1.55 0.45 -2.35 -0.15 -1.60 -1.10 0.55 -0.60 0.45 -0.65 -0.60 -0.40 -0.90 0.20 -1.65 -0.10 -2.95 -1.20 l-1.75 -1.50 1.50 0 c0.85 0 2.20 0.45 3 1 0.85 0.50 2.35 1.30 3.40 1.75 1 0.45 1.85 1 1.85 1.25 0 0.25 0.45 0.45 1 0.45 1.15 0 1.35 1.10 0.35 1.90 -0.45 0.40 -1 0.35 -2 -0.15z m0.15 -1 c0 -0.15 -0.10 -0.25 -0.25 -0.25 -0.15 0 -0.25 0.10 -0.25 0.25 0 0.15 0.10 0.25 0.25 0.25 0.15 0 0.25 -0.10 0.25 -0.25z"/>
  <path d="M1.50 26.15 c0 -0.50 -0.35 -1.55 -0.75 -2.35 -0.85 -1.65 -0.90 -1.80 -0.35 -1.80 0.50 0 3.10 3.85 3.10 4.55 0 0.25 -0.45 0.45 -1 0.45 -0.60 0 -1 -0.35 -1 -0.85z"/>
  <path d="M25.50 25.50 c0 -0.95 1.60 -3 2.30 -3 0.55 0 0.40 0.45 -0.40 1.75 -1.15 1.75 -1.90 2.20 -1.90 1.25z"/>
  <path d="M0 20.50 c0 -0.25 0.25 -0.50 0.50 -0.50 0.30 0 0.50 0.25 0.50 0.50 0 0.30 -0.20 0.50 -0.50 0.50 -0.25 0 -0.50 -0.20 -0.50 -0.50z"/>
  <path d="M0 18.50 c0 -0.25 0.25 -0.50 0.50 -0.50 0.30 0 0.50 0.25 0.50 0.50 0 0.30 -0.20 0.50 -0.50 0.50 -0.25 0 -0.50 -0.20 -0.50 -0.50z"/>
  <path d="M1.50 16.75 c0 -0.15 0.10 -0.25 0.25 -0.25 0.15 0 0.25 0.10 0.25 0.25 0 0.15 -0.10 0.25 -0.25 0.25 -0.15 0 -0.25 -0.10 -0.25 -0.25z"/>
  <path d="M2.50 16.25 c0 -0.15 0.10 -0.25 0.25 -0.25 0.15 0 0.25 0.10 0.25 0.25 0 0.15 -0.10 0.25 -0.25 0.25 -0.15 0 -0.25 -0.10 -0.25 -0.25z"/>
  <path d="M4.70 14.80 c0.55 -0.45 1.35 -0.80 1.75 -0.75 0.70 0 0.70 0.05 0.05 0.30 -0.40 0.15 -1.20 0.50 -1.75 0.75 -1 0.45 -1 0.45 -0.05 -0.30z"/>
  <path d="M29 13.25 c0 -0.15 0.10 -0.25 0.25 -0.25 0.15 0 0.25 0.10 0.25 0.25 0 0.15 -0.10 0.25 -0.25 0.25 -0.15 0 -0.25 -0.10 -0.25 -0.25z"/>
  <path d="M24 8.75 c0 -0.15 0.10 -0.25 0.25 -0.25 0.15 0 0.25 0.10 0.25 0.25 0 0.15 -0.10 0.25 -0.25 0.25 -0.15 0 -0.25 -0.10 -0.25 -0.25z"/>
  <path d="M23 8.25 c0 -0.15 0.10 -0.25 0.25 -0.25 0.15 0 0.25 0.10 0.25 0.25 0 0.15 -0.10 0.25 -0.25 0.25 -0.15 0 -0.25 -0.10 -0.25 -0.25z"/>
  <path d="M24.50 7.25 c0 -0.15 0.10 -0.25 0.25 -0.25 0.15 0 0.25 0.10 0.25 0.25 0 0.15 -0.10 0.25 -0.25 0.25 -0.15 0 -0.25 -0.10 -0.25 -0.25z"/>
  <path d="M2.30 3.50 c-0.75 -0.25 -0.80 -0.45 -0.35 -0.70 0.35 -0.25 0.90 -0.15 1.20 0.15 0.70 0.70 0.30 1 -0.85 0.55z"/>
  <path d="M7.50 3 c-1.20 -0.95 -1.20 -1 -0.20 -1 0.55 0 1.45 0.45 1.95 1 1.20 1.35 -0.05 1.35 -1.75 0z"/>
  <path d="M18.80 3.20 c-0.40 -1.10 -0.40 -1.20 0.40 -1.20 0.35 0 0.80 0.45 0.95 1 0.30 1.20 -0.90 1.40 -1.35 0.20z"/>
 </g>
 <g fill="#c8c4ae">
  <path d="M19.35 38.15 c-0.50 -0.50 0.65 -1.65 1.70 -1.65 1.20 0 1.75 1 0.90 1.55 -0.85 0.50 -2.15 0.60 -2.60 0.10z"/>
  <path d="M16.75 36 c-0.45 -0.70 2.25 -1.70 2.90 -1.05 0.25 0.25 0.30 0.70 0.15 1 -0.45 0.70 -2.65 0.70 -3.05 0.05z"/>
  <path d="M13.45 34.35 c-0.45 -0.35 -0.70 -0.90 -0.55 -1.25 0.15 -0.45 -0.15 -0.55 -1.20 -0.30 -1.20 0.30 -1.35 0.25 -1.05 -0.75 0.20 -0.90 0.10 -1.05 -0.70 -0.80 -0.60 0.20 -1.55 -0.15 -2.55 -0.90 -0.90 -0.70 -2.15 -1.40 -2.80 -1.60 -0.95 -0.25 -1.05 -0.45 -0.55 -1.05 0.75 -0.90 2.40 -0.90 2.75 0.05 0.20 0.40 0.60 0.75 1 0.75 0.40 0 0.70 0.15 0.70 0.40 0 0.20 1.50 1.05 3.25 1.85 1.80 0.85 3.25 1.65 3.25 1.90 0 0.20 0.30 0.35 0.70 0.35 1.05 0 1.55 1.05 0.75 1.55 -0.95 0.60 -2.05 0.55 -3 -0.20z m0.90 -0.70 c-0.20 -0.15 -0.50 -0.15 -0.70 0 -0.15 0.20 0 0.35 0.35 0.35 0.35 0 0.50 -0.15 0.35 -0.35z"/>
  <path d="M1.50 25.70 c-1 -2.55 -0.70 -2.75 1.45 -0.75 1.90 1.75 1.90 2.05 0.30 2.05 -0.90 0 -1.40 -0.35 -1.75 -1.30z"/>
  <path d="M0.50 18.25 c0 -0.15 0.10 -0.25 0.25 -0.25 0.15 0 0.25 0.10 0.25 0.25 0 0.15 -0.10 0.25 -0.25 0.25 -0.15 0 -0.25 -0.10 -0.25 -0.25z"/>
  <path d="M1.50 16.50 c0 -0.25 0.35 -0.50 0.80 -0.50 0.40 0 0.60 0.25 0.45 0.50 -0.15 0.30 -0.50 0.50 -0.80 0.50 -0.25 0 -0.45 -0.20 -0.45 -0.50z"/>
  <path d="M3.90 4.30 c-2.10 -1.15 -2.55 -2.05 -0.75 -1.55 1.15 0.35 3.20 2.10 2.80 2.40 -0.10 0.10 -1.05 -0.30 -2.05 -0.85z"/>
 </g>
 <g fill="#add1e2">
  <path d="M32.65 25.05 c0.05 -1.35 0.25 -2.20 0.45 -1.90 0.55 0.85 0.50 4.35 -0.10 4.35 -0.25 0 -0.40 -1.10 -0.35 -2.45z"/>
  <path d="M27 23.45 c0 -0.40 0.45 -1 1 -1.35 0.55 -0.35 1 -0.40 1 -0.20 0 0.25 -0.45 0.85 -1 1.35 -0.75 0.70 -1 0.75 -1 0.20z"/>
  <path d="M22.50 21.50 c0 -0.25 0.20 -0.50 0.45 -0.50 0.25 0 0.90 -0.15 1.40 -0.35 0.80 -0.30 0.80 -0.25 0.20 0.50 -0.75 0.95 -2.05 1.15 -2.05 0.35z"/>
  <path d="M31 19.25 c0 -0.15 0.10 -0.25 0.25 -0.25 0.15 0 0.25 0.10 0.25 0.25 0 0.15 -0.10 0.25 -0.25 0.25 -0.15 0 -0.25 -0.10 -0.25 -0.25z"/>
  <path d="M33.75 17.50 c-1.65 -1.10 -1.45 -1.30 0.50 -0.40 0.70 0.30 1.25 0.75 1.25 1 0 0.55 -0.05 0.55 -1.75 -0.60z"/>
  <path d="M27 17.75 c0 -0.15 0.10 -0.25 0.25 -0.25 0.15 0 0.25 0.10 0.25 0.25 0 0.15 -0.10 0.25 -0.25 0.25 -0.15 0 -0.25 -0.10 -0.25 -0.25z"/>
  <path d="M33 15 c-0.70 -0.55 -1 -1 -0.75 -1 0.30 0 1.05 0.45 1.75 1 0.70 0.55 1.05 1 0.75 1 -0.25 0 -1.05 -0.45 -1.75 -1z"/>
  <path d="M22.35 13.05 c-3 -1.75 -3.25 -2.05 -1.95 -2.05 0.60 0 1.95 0.80 3 1.75 2.25 2.10 2.10 2.15 -1.05 0.30z"/>
  <path d="M27.75 10.75 c-1.25 -0.60 -1.30 -0.70 -0.25 -0.45 0.70 0.20 1.45 0.50 1.75 0.75 0.60 0.60 0.25 0.55 -1.50 -0.30z"/>
  <path d="M24.45 9.15 c-0.65 -0.75 -0.60 -0.75 0.45 -0.20 1.15 0.60 1.40 1.05 0.65 1.05 -0.25 0 -0.75 -0.35 -1.10 -0.85z"/>
  <path d="M8.50 9.25 c0 -0.15 0.10 -0.25 0.25 -0.25 0.15 0 0.25 0.10 0.25 0.25 0 0.15 -0.10 0.25 -0.25 0.25 -0.15 0 -0.25 -0.10 -0.25 -0.25z"/>
  <path d="M17 8.25 c0 -0.15 0.10 -0.25 0.25 -0.25 0.15 0 0.25 0.10 0.25 0.25 0 0.15 -0.10 0.25 -0.25 0.25 -0.15 0 -0.25 -0.10 -0.25 -0.25z"/>
  <path d="M21.50 6.50 c-0.90 -1.15 -1.50 -2.20 -1.30 -2.35 0.35 -0.40 0.35 -0.40 2 2.25 1.65 2.65 1.35 2.70 -0.70 0.10z"/>
  <path d="M6.60 6.50 c-0.35 -0.55 -0.40 -1 -0.15 -1 0.45 0 1.20 1.50 0.90 1.80 -0.05 0.10 -0.40 -0.30 -0.75 -0.80z"/>
  <path d="M9.55 4.70 c-1.25 -1.25 -1.90 -2.20 -1.45 -2.20 0.90 0 4.10 3.25 3.85 3.90 -0.10 0.25 -1.20 -0.50 -2.40 -1.70z"/>
  <path d="M14.75 5 c-1.10 -1.15 -1.25 -1.50 -0.60 -1.50 0.45 0 1.15 0.70 1.60 1.50 0.45 0.85 0.70 1.50 0.60 1.50 -0.10 0 -0.80 -0.65 -1.60 -1.50z"/>
 </g>
 <g fill="#d3d8c9">
  <path d="M23 39.25 c0 -0.65 0.20 -0.70 1 -0.25 0.55 0.30 1 0.65 1 0.75 0 0.15 -0.45 0.25 -1 0.25 -0.55 0 -1 -0.35 -1 -0.75z"/>
  <path d="M19.25 38.05 c-0.40 -0.70 1.50 -1.60 2.45 -1.25 1.15 0.45 1 1.05 -0.30 1.40 -1.55 0.40 -1.80 0.40 -2.15 -0.15z"/>
  <path d="M17.85 35.80 c-0.35 -0.85 1.10 -1.55 1.80 -0.85 0.25 0.25 0.30 0.70 0.15 1 -0.50 0.80 -1.65 0.70 -1.95 -0.15z"/>
  <path d="M14.10 34.40 c0.40 -1.10 1.80 -1.70 2.50 -1 0.50 0.50 0.50 0.75 -0.10 1.10 -1.05 0.70 -2.60 0.60 -2.40 -0.10z"/>
  <path d="M12.65 33.65 c0.20 -0.15 0.50 -0.15 0.70 0 0.15 0.20 0 0.35 -0.35 0.35 -0.35 0 -0.50 -0.15 -0.35 -0.35z"/>
  <path d="M10.50 32.10 c0 -0.85 1.65 -1.45 1.90 -0.70 0.10 0.35 0.75 0.60 1.40 0.60 0.65 0 1.20 0.20 1.20 0.45 0 0.25 -1 0.45 -2.25 0.40 -1.45 -0.05 -2.25 -0.35 -2.25 -0.75z"/>
  <path d="M7.45 30.30 c-0.70 -0.65 -1.70 -1.30 -2.25 -1.40 -1.45 -0.25 -1.20 -1.65 0.30 -1.65 0.75 0 1.20 0.25 1.15 0.65 -0.10 0.30 0.15 0.60 0.55 0.60 0.90 0 3.80 1.60 3.80 2.15 0 0.20 -0.20 0.35 -0.45 0.35 -0.25 0 -0.75 0.10 -1.15 0.25 -0.35 0.15 -1.25 -0.30 -1.95 -0.95z"/>
  <path d="M32.55 27.40 c0 -0.65 0.20 -1.60 0.45 -2.15 0.35 -0.80 0.45 -0.65 0.45 0.85 0.05 1 -0.15 2 -0.45 2.15 -0.30 0.15 -0.50 -0.20 -0.45 -0.85z"/>
  <path d="M1.80 25.70 c-0.50 -0.70 -0.75 -1.65 -0.65 -2.10 0.15 -0.65 0.30 -0.55 0.85 0.50 0.35 0.70 1.05 1.45 1.60 1.55 0.55 0.15 0.85 0.50 0.65 0.80 -0.55 0.90 -1.60 0.60 -2.45 -0.75z"/>
  <path d="M26.30 23.75 c0.35 -0.90 2.20 -2 2.20 -1.35 0 0.50 -1.65 2.10 -2.15 2.10 -0.15 0 -0.20 -0.35 -0.05 -0.75z"/>
  <path d="M21 22.55 c0 -0.40 1.45 -1.20 3.25 -1.80 0.85 -0.25 0.90 -0.20 0.25 0.40 -1 0.90 -3.50 1.95 -3.50 1.40z"/>
  <path d="M0.15 22.15 c0.20 -0.15 0.50 -0.15 0.70 0 0.15 0.20 0 0.35 -0.35 0.35 -0.35 0 -0.50 -0.15 -0.35 -0.35z"/>
  <path d="M0 20.50 c0 -0.35 0.15 -0.50 0.35 -0.35 0.15 0.20 0.15 0.50 0 0.70 -0.20 0.15 -0.35 0 -0.35 -0.35z"/>
  <path d="M20.40 19.65 c0.35 -0.15 0.80 -0.10 0.95 0.05 0.20 0.15 -0.10 0.30 -0.65 0.25 -0.55 0 -0.70 -0.15 -0.30 -0.30z"/>
  <path d="M20.50 5.25 c-1.20 -1.25 -1.45 -1.75 -0.90 -1.75 0.45 0 1.25 0.80 1.85 1.75 0.55 0.95 0.95 1.75 0.90 1.75 -0.10 0 -0.90 -0.80 -1.85 -1.75z"/>
  <path d="M13.60 3.75 c-1.20 -1.15 -1.60 -1.75 -1.05 -1.75 0.75 0 2.35 1.50 3.15 2.90 0.60 1.05 -0.15 0.65 -2.10 -1.15z"/>
  <path d="M2.90 3.65 c-0.50 -0.10 -0.90 -0.45 -0.90 -0.75 0 -0.25 0.35 -0.35 0.80 -0.20 0.45 0.15 1 0.30 1.25 0.30 0.25 0 0.45 0.25 0.45 0.50 0 0.50 -0.15 0.55 -1.60 0.15z"/>
 </g>
 <g fill="#e9eee0">
  <path d="M23 39.50 c0 -0.25 0.30 -0.50 0.70 -0.50 0.40 0 0.90 0.25 1.05 0.50 0.15 0.30 -0.15 0.50 -0.70 0.50 -0.60 0 -1.05 -0.20 -1.05 -0.50z"/>
  <path d="M19.75 37.95 c-0.40 -0.60 0.55 -1.45 1.60 -1.45 0.60 0 1.40 0.95 1.10 1.20 -0.65 0.60 -2.40 0.75 -2.70 0.25z"/>
  <path d="M18 35.80 c0 -0.40 0.20 -0.85 0.40 -1 0.65 -0.40 1.75 0.55 1.40 1.15 -0.50 0.80 -1.80 0.70 -1.80 -0.15z"/>
  <path d="M14 34.55 c0 -0.25 0.30 -0.55 0.65 -0.70 1 -0.35 0.10 -0.90 -1.95 -1.05 -1.50 -0.15 -1.90 -0.40 -1.80 -1.05 0.15 -0.70 -0.10 -0.80 -1 -0.60 -1.55 0.40 -3.85 -1.40 -2.95 -2.30 0.45 -0.45 0.75 -0.45 1.45 0.05 0.45 0.35 1.25 0.75 1.75 0.90 0.45 0.20 0.85 0.50 0.85 0.75 0 0.25 0.30 0.45 0.65 0.45 0.90 0 3.35 1.20 3.35 1.65 0 0.20 0.45 0.35 1 0.35 1.20 0 1.35 1.25 0.20 1.70 -1.15 0.45 -2.20 0.35 -2.20 -0.15z"/>
  <path d="M13 33.75 c0 -0.15 0.10 -0.25 0.25 -0.25 0.15 0 0.25 0.10 0.25 0.25 0 0.15 -0.10 0.25 -0.25 0.25 -0.15 0 -0.25 -0.10 -0.25 -0.25z"/>
  <path d="M4.50 28.50 c-0.65 -0.45 -0.65 -0.55 0 -1 1.20 -0.80 2 -0.60 2 0.50 0 1.10 -0.80 1.30 -2 0.50z"/>
  <path d="M32.80 26.15 c0.45 -2.55 0.70 -2.70 0.70 -0.50 0 1 -0.25 1.95 -0.55 2.10 -0.35 0.25 -0.40 -0.25 -0.15 -1.60z"/>
  <path d="M1.65 25 c-0.50 -1.10 -1.05 -2 -1.25 -2 -0.25 0 -0.40 -0.20 -0.40 -0.50 0 -1.10 1.05 -0.40 1.85 1.25 0.45 0.95 1.25 1.85 1.75 2.05 1 0.30 0.75 1.20 -0.40 1.20 -0.40 0 -1.10 -0.90 -1.55 -2z"/>
  <path d="M25.50 25.90 c0 -0.85 1.20 -2.85 1.90 -3.15 1.20 -0.45 1.10 -0.10 -0.45 1.75 -0.75 0.95 -1.45 1.60 -1.45 1.40z"/>
  <path d="M21.75 21.80 c0.55 -0.40 1.45 -0.75 2 -0.75 0.80 0 0.85 0.05 0.25 0.40 -0.40 0.25 -1.30 0.60 -2 0.80 -1.20 0.35 -1.20 0.35 -0.25 -0.45z"/>
  <path d="M20.15 19.65 c0.20 -0.15 0.50 -0.15 0.70 0 0.15 0.20 0 0.35 -0.35 0.35 -0.35 0 -0.50 -0.15 -0.35 -0.35z"/>
  <path d="M2 16.50 c0 -0.25 0.25 -0.50 0.55 -0.50 0.25 0 0.35 0.25 0.20 0.50 -0.15 0.30 -0.40 0.50 -0.55 0.50 -0.10 0 -0.20 -0.20 -0.20 -0.50z"/>
  <path d="M20.15 4.80 c-1.15 -1.05 -1.55 -2.30 -0.75 -2.30 0.40 0 2.30 3 2 3.20 -0.05 0.10 -0.65 -0.30 -1.25 -0.90z"/>
  <path d="M13 3.25 c-0.65 -0.70 -0.95 -1.25 -0.70 -1.25 0.70 0 2.70 1.50 2.70 2.05 0 0.80 -0.80 0.50 -2 -0.80z"/>
  <path d="M2.90 3.65 c-1.40 -0.35 -1.05 -1.05 0.35 -0.75 0.70 0.10 1.25 0.40 1.25 0.65 0 0.45 -0.20 0.50 -1.60 0.10z"/>
 </g>
 <g fill="#cef7fc">
  <path d="M33.05 24.70 c0 -0.55 0.15 -0.70 0.30 -0.30 0.15 0.35 0.10 0.80 -0.05 0.95 -0.15 0.20 -0.30 -0.10 -0.25 -0.65z"/>
  <path d="M26.50 23.60 c0 -0.20 0.45 -0.65 1 -1 1.10 -0.65 1.35 -0.15 0.40 0.80 -0.70 0.70 -1.40 0.80 -1.40 0.20z"/>
  <path d="M22.70 21.55 c0.15 -0.25 0.80 -0.55 1.40 -0.70 1.10 -0.30 1.10 -0.25 0.20 0.40 -1.10 0.85 -2 1 -1.60 0.30z"/>
  <path d="M34 15.75 c0 -0.15 0.10 -0.25 0.25 -0.25 0.15 0 0.25 0.10 0.25 0.25 0 0.15 -0.10 0.25 -0.25 0.25 -0.15 0 -0.25 -0.10 -0.25 -0.25z"/>
  <path d="M21.50 12.45 c-1.20 -0.80 -1.90 -1.45 -1.50 -1.45 0.80 0 4 2.10 4 2.65 0 0.45 0.10 0.50 -2.50 -1.20z"/>
  <path d="M28 10.75 c0 -0.15 0.10 -0.25 0.25 -0.25 0.15 0 0.25 0.10 0.25 0.25 0 0.15 -0.10 0.25 -0.25 0.25 -0.15 0 -0.25 -0.10 -0.25 -0.25z"/>
  <path d="M27 10.25 c0 -0.15 0.10 -0.25 0.25 -0.25 0.15 0 0.25 0.10 0.25 0.25 0 0.15 -0.10 0.25 -0.25 0.25 -0.15 0 -0.25 -0.10 -0.25 -0.25z"/>
  <path d="M25 9.50 c-0.45 -0.30 -0.50 -0.50 -0.15 -0.50 0.30 0 0.75 0.25 0.90 0.50 0.40 0.60 0.20 0.60 -0.75 0z"/>
  <path d="M5.75 5.50 c-0.80 -0.80 -1.20 -1.50 -0.90 -1.50 0.50 0 1.70 1.20 2.35 2.40 0.60 1 0.10 0.70 -1.45 -0.90z"/>
  <path d="M20.85 5.55 c-1.35 -1.50 -1.65 -2.05 -0.95 -2.05 0.20 0 0.85 0.80 1.50 1.75 1.35 2.15 1.25 2.20 -0.55 0.30z"/>
  <path d="M10.60 5.35 c-1.25 -1.35 -1.50 -2.30 -0.30 -1.35 0.75 0.65 1.90 2.50 1.55 2.50 -0.10 0 -0.65 -0.50 -1.25 -1.15z"/>
  <path d="M14.90 4.95 c-0.50 -0.25 -0.90 -0.70 -0.90 -0.95 0 -0.85 0.75 -0.55 1.40 0.50 0.70 1.15 0.65 1.15 -0.50 0.45z"/>
 </g>
 <g fill="#fafdf6">
  <path d="M24 39.50 c0 -0.35 0.15 -0.50 0.35 -0.35 0.15 0.20 0.15 0.50 0 0.70 -0.20 0.15 -0.35 0 -0.35 -0.35z"/>
  <path d="M20 37.55 c0 -0.60 1.45 -1.15 2.05 -0.75 0.90 0.50 0.45 1.20 -0.80 1.20 -0.70 0 -1.25 -0.20 -1.25 -0.45z"/>
  <path d="M18.25 36 c-0.45 -0.75 0.20 -1.50 1 -1.15 0.40 0.15 0.75 0.45 0.75 0.65 0 0.60 -1.45 1 -1.75 0.50z"/>
  <path d="M14.25 34.50 c-0.15 -0.25 -0.05 -0.50 0.20 -0.50 0.30 0 0.55 -0.20 0.55 -0.50 0 -0.25 -0.45 -0.50 -0.95 -0.50 -0.55 0 -1.15 -0.25 -1.30 -0.50 -0.20 -0.30 -0.75 -0.40 -1.30 -0.25 -0.70 0.25 -0.85 0.15 -0.65 -0.45 0.15 -0.45 0.60 -0.80 0.90 -0.80 0.90 0 3.30 1.20 3.30 1.65 0 0.20 0.45 0.35 1 0.35 1.25 0 1.30 0.80 0.05 1.50 -1.20 0.60 -1.40 0.65 -1.80 0z"/>
  <path d="M7.65 30.40 c-1.25 -0.60 -1.45 -1.15 -0.65 -1.65 0.55 -0.35 3.50 1.25 3.50 1.85 0 0.55 -1.55 0.45 -2.85 -0.20z"/>
  <path d="M4.60 27.70 c0.45 -0.45 1.05 -0.65 1.35 -0.45 0.80 0.50 0.15 1.25 -1.10 1.25 -1 0 -1 -0.05 -0.25 -0.80z"/>
  <path d="M32.50 27.50 c0 -0.25 0.25 -0.50 0.55 -0.50 0.25 0 0.35 0.25 0.20 0.50 -0.15 0.30 -0.40 0.50 -0.55 0.50 -0.10 0 -0.20 -0.20 -0.20 -0.50z"/>
  <path d="M3.65 26.15 c0.20 -0.15 0.50 -0.15 0.70 0 0.15 0.20 0 0.35 -0.35 0.35 -0.35 0 -0.50 -0.15 -0.35 -0.35z"/>
  <path d="M25.50 25.50 c0 -0.35 0.15 -0.50 0.35 -0.35 0.15 0.20 0.15 0.50 0 0.70 -0.20 0.15 -0.35 0 -0.35 -0.35z"/>
  <path d="M26.50 23.60 c0 -0.25 0.35 -0.65 0.80 -0.80 0.50 -0.20 0.70 -0.05 0.60 0.30 -0.25 0.75 -1.40 1.15 -1.40 0.50z"/>
  <path d="M22.20 21.75 c1.10 -0.85 2 -1 1.60 -0.30 -0.15 0.25 -0.80 0.55 -1.40 0.70 -1.10 0.30 -1.10 0.25 -0.20 -0.40z"/>
  <path d="M20.50 19.75 c0 -0.15 0.10 -0.25 0.25 -0.25 0.15 0 0.25 0.10 0.25 0.25 0 0.15 -0.10 0.25 -0.25 0.25 -0.15 0 -0.25 -0.10 -0.25 -0.25z"/>
  <path d="M2 16.25 c0 -0.15 0.10 -0.25 0.25 -0.25 0.15 0 0.25 0.10 0.25 0.25 0 0.15 -0.10 0.25 -0.25 0.25 -0.15 0 -0.25 -0.10 -0.25 -0.25z"/>
  <path d="M21.20 5.90 c-0.20 -0.35 -0.15 -0.40 0.20 -0.20 0.60 0.35 0.80 0.80 0.40 0.80 -0.15 0 -0.40 -0.25 -0.60 -0.60z"/>
  <path d="M4.85 4.65 c-1.10 -0.75 -1.65 -1.45 -1.35 -1.55 0.35 -0.15 1.30 0.50 2.15 1.35 1.95 1.90 1.70 1.95 -0.80 0.20z"/>
  <path d="M8.85 4.10 c-1.30 -1.05 -2.10 -1.95 -1.80 -2.05 0.70 -0.20 2.85 1.40 3.85 2.85 0.95 1.40 0.80 1.35 -2.05 -0.80z"/>
  <path d="M13.25 3.50 c-0.80 -0.80 -1.25 -1.50 -1.10 -1.50 0.70 0 2.75 1.55 3.05 2.30 0.45 1.15 -0.40 0.80 -1.95 -0.80z"/>
  <path d="M19.30 3.90 c-0.90 -1.30 -1 -1.90 -0.30 -1.90 0.25 0 0.80 0.70 1.25 1.50 0.90 1.75 0.20 2.05 -0.95 0.40z"/>
  <path d="M2 2.75 c0 -0.15 0.10 -0.25 0.25 -0.25 0.15 0 0.25 0.10 0.25 0.25 0 0.15 -0.10 0.25 -0.25 0.25 -0.15 0 -0.25 -0.10 -0.25 -0.25z"/>
 </g>
</svg>