<?xml version="1.0" encoding="utf-8"?>
<!DOCTYPE svg PUBLIC "-//W3C//DTD SVG 1.0//EN" "http://www.w3.org/TR/2001/REC-SVG-20010904/DTD/svg10.dtd">
<svg version="1.0" xmlns="http://www.w3.org/2000/svg" width="40px" height="40px" viewBox="0 0 40 40" preserveAspectRatio="xMidYMid meet">
 <g fill="#0a0c16">
  <path d="M15.50 37.75 c-0.90 -1 -1.25 -2 -1.45 -5 -0.35 -3.85 -0.80 -4.75 -2.65 -4.75 -0.45 0 -1 -0.20 -1.15 -0.50 -0.15 -0.25 -0.75 -0.50 -1.30 -0.50 -0.75 0 -0.95 0.35 -0.95 1.50 0 1.55 0.15 1.70 2.65 2.20 1.60 0.35 1.65 0.65 0.35 2.25 -0.90 1.05 -1.15 1.10 -2.40 0.60 -3.35 -1.45 -3.75 -2.05 -3.70 -6.30 0.05 -3.45 -0.15 -4.35 -1.40 -6.85 -1.85 -3.60 -2 -6.85 -0.45 -9.35 0.95 -1.55 1 -1.95 0.40 -4 -0.30 -1.25 -0.80 -2.50 -1 -2.75 -0.60 -0.65 -0.55 -2.80 0 -2.80 0.90 0 3.65 4.05 4.40 6.40 0.35 1.30 0.55 3.05 0.40 3.95 l-0.30 1.60 1.60 -0.55 c1.50 -0.50 1.55 -0.60 1.20 -2.70 -0.25 -1.75 -0.15 -2.20 0.45 -2.20 0.50 0 0.85 0.75 1.10 2.25 0.25 1.95 0.50 2.25 1.50 2.25 1.40 0 1.40 -0.20 0.60 -4.10 -0.35 -1.55 -0.45 -3.05 -0.25 -3.20 0.55 -0.55 1.80 1.35 1.85 2.70 0 2.05 1.10 5.55 1.75 5.80 0.55 0.20 0.65 -0.30 0.45 -2.35 -0.15 -1.45 -0.45 -3.05 -0.65 -3.60 -0.95 -2.40 -1.50 -4.45 -1.30 -4.65 1.10 -1.15 3.75 5.95 3.75 10.15 0 1.20 0.25 1.75 0.70 1.75 0.40 0 0.85 0.30 0.95 0.65 0.45 1.10 0.35 -3.95 -0.10 -5.45 -1.50 -4.90 -1.70 -5.75 -1.45 -6 1 -0.95 3.90 7.50 3.90 11.35 0 1.65 0.60 2.10 3.65 3 1.30 0.35 2.35 0.80 2.35 1 0 0.20 0.90 1 2 1.80 2.20 1.65 7.25 7.60 7.75 9.15 0.40 1.30 -0.30 2.20 -2.35 3.05 -1.20 0.50 -1.65 0.50 -1.80 0.05 -0.30 -0.95 -1.50 -0.70 -1.85 0.40 -0.15 0.55 -0.75 1 -1.25 1 -0.65 0 -0.85 -0.25 -0.70 -0.70 0.20 -0.55 0 -0.65 -0.70 -0.45 -0.95 0.25 -1.65 -0.20 -4.45 -2.75 -0.95 -0.90 -1.40 -1 -1.95 -0.60 -0.50 0.45 -0.55 0.80 -0.05 1.55 0.30 0.50 0.85 0.95 1.15 0.95 0.30 0 0.85 0.35 1.20 0.75 1 1.20 -0.05 1.90 -2.15 1.50 -2.60 -0.50 -3.85 -1.90 -3.85 -4.25 0 -1.10 -0.20 -2 -0.40 -2 -0.70 0 -1.60 2.40 -1.60 4.15 0 1.25 0.35 1.80 1.50 2.45 0.85 0.45 1.50 1.20 1.50 1.65 0 0.90 -0.55 0.95 -1.45 0.15 -0.55 -0.55 -0.60 -0.45 -0.30 0.50 0.30 0.95 0.15 1.10 -1.15 1.10 -0.85 0 -1.85 -0.45 -2.60 -1.25z m19.50 -9.20 c0 -0.25 -0.35 -0.55 -0.75 -0.75 -0.40 -0.15 -0.75 -0.85 -0.75 -1.55 0 -1.35 -0.85 -1.55 -2.75 -0.75 -0.90 0.40 -0.85 0.45 0.40 0.45 1.05 0.05 1.35 0.30 1.35 1.20 0 0.65 0.15 1.35 0.35 1.50 0.50 0.50 2.15 0.40 2.15 -0.10z m-21.50 -4.50 c0 -2.40 0 -2.40 1.90 -2.75 3.75 -0.60 4.10 -0.50 4.10 1.45 0 1.95 0.20 2.10 1.30 1.05 0.80 -0.85 0.95 -1.80 0.20 -1.80 -0.25 0 -0.50 -0.35 -0.50 -0.75 0 -0.50 -0.55 -0.75 -1.75 -0.75 -1.60 0 -1.75 -0.15 -1.75 -1.45 0 -1.15 -0.25 -1.50 -1.25 -1.65 -0.70 -0.15 -1.25 -0.05 -1.25 0.25 0 0.30 -1.25 0.35 -3.35 0.15 -1.90 -0.15 -4.05 -0.10 -4.90 0.10 -1.30 0.40 -1.05 0.50 2.25 0.90 l3.75 0.45 0.15 1.70 c0.10 0.90 -0.10 2.35 -0.45 3.15 -0.50 1.25 -0.50 1.55 0.10 1.95 1.25 0.80 1.45 0.50 1.45 -2z"/>
  <path d="M8.25 3.70 c-1 -3.20 -0.80 -3.85 0.65 -1.85 1.35 1.95 1.90 4.65 0.95 4.65 -0.45 0 -1.05 -1.10 -1.60 -2.80z"/>
 </g>
 <g fill="#202135">
  <path d="M15.90 37.95 c-0.90 -0.50 -2.05 -3.90 -1.70 -5 0.10 -0.40 0.35 -1.40 0.50 -2.25 0.25 -1.45 0.10 -1.65 -1.35 -2.20 -0.90 -0.35 -2.30 -0.95 -3.20 -1.30 -2 -0.90 -2 -0.90 -2.30 0.35 -0.45 1.70 0.45 3.45 1.80 3.45 1.70 0 1.95 0.45 0.95 1.75 l-0.85 1.10 -1.75 -0.95 c-2.70 -1.50 -3.05 -2.25 -2.95 -6.15 0.15 -2.95 -0.05 -3.95 -1.25 -6.45 -2 -4.15 -2.10 -6.05 -0.65 -8.75 1.10 -2.05 1.15 -2.30 0.45 -4.50 -0.35 -1.25 -0.95 -2.80 -1.25 -3.40 -0.80 -1.70 -0.05 -2 1.45 -0.60 3.25 3.05 4.20 7.75 2.20 11.10 -1.10 1.85 -1.20 2.65 -0.25 1.95 0.30 -0.20 0.75 -0.80 1.05 -1.35 0.30 -0.55 1.20 -1.05 1.95 -1.15 1.35 -0.20 1.40 -0.20 1.05 -2.75 -0.15 -1.45 -0.45 -3.35 -0.60 -4.20 -0.25 -1.30 -0.15 -1.65 0.45 -1.65 0.80 0 1.05 0.75 1.60 5.10 0.20 1.45 0.65 2.55 1.15 2.85 0.70 0.40 0.70 0.65 0.20 1.80 -0.35 0.75 -0.50 1.50 -0.35 1.65 0.55 0.55 1.95 -2.15 1.80 -3.50 -0.10 -1 0.10 -1.40 0.65 -1.40 0.45 0 0.80 0.40 0.80 0.95 0 0.50 0.30 1.20 0.70 1.55 0.40 0.30 0.60 0.95 0.45 1.40 -0.25 0.75 -0.20 0.75 0.55 0.10 0.65 -0.65 0.70 -1.10 0.30 -2.50 -0.65 -2.35 -0.65 -3 0.20 -3 0.85 0 1.30 1.10 1.30 3.05 0 0.80 0.30 1.90 0.60 2.45 0.55 0.80 0.45 1.10 -0.30 1.65 -0.50 0.40 -0.85 0.95 -0.75 1.30 0.25 0.75 2.95 -1.40 2.95 -2.35 0 -0.35 0.35 -0.60 0.75 -0.60 0.85 0 1.05 2.25 0.25 2.75 -0.25 0.15 -0.50 0.80 -0.50 1.35 0 1.05 0.10 1 1.50 -0.35 1.20 -1.15 1.65 -1.30 2.15 -0.80 0.45 0.50 0.40 0.75 -0.35 1.35 -0.55 0.35 -0.85 0.85 -0.65 1.05 0.20 0.15 0.75 -0.05 1.20 -0.45 1.20 -1.05 2.55 -1.45 2.90 -0.90 0.15 0.25 -0.20 0.70 -0.75 1 -0.95 0.50 -2.85 3.50 -2.20 3.50 0.20 0 1.05 -0.80 1.90 -1.80 1.45 -1.60 1.65 -1.70 2.55 -1.05 0.95 0.75 0.95 0.75 -0.25 1.80 -0.70 0.55 -0.95 1 -0.60 1.05 0.30 0 0.60 -0.20 0.60 -0.45 0 -0.75 1.50 -1.05 2.55 -0.55 0.50 0.30 2.25 2.25 3.80 4.35 l2.85 3.75 -1.35 1.20 c-1.55 1.30 -3.10 1.55 -3.55 0.60 -0.15 -0.45 -0.65 -0.15 -1.50 0.85 -0.70 0.80 -1.40 1.30 -1.60 1.10 -0.20 -0.15 -0.05 -0.65 0.30 -1.10 0.50 -0.60 0.50 -0.75 -0.15 -0.75 -0.40 0 -0.90 0.30 -1.05 0.65 -0.15 0.45 -0.45 0.35 -0.95 -0.25 -0.40 -0.50 -0.95 -0.90 -1.30 -0.90 -0.30 0 -0.55 -0.20 -0.55 -0.50 0 -0.25 0.35 -0.35 0.75 -0.20 0.40 0.20 0.75 0.10 0.75 -0.20 0 -0.75 -5.05 -1.75 -5.65 -1.15 -0.80 0.80 0.45 3.05 1.70 3.05 0.70 0 0.95 0.25 0.85 0.90 -0.15 0.55 -0.60 0.80 -1.40 0.70 -2.90 -0.25 -4.50 -2.15 -4.50 -5.10 0 -1.45 0.10 -1.50 2.30 -1.50 1.25 0 2.90 0.30 3.60 0.65 2.65 1.35 9.35 3.30 9.80 2.85 0.55 -0.50 -2.05 -1.65 -2.70 -1.25 -0.60 0.35 -4 -1.85 -4 -2.55 0 -0.85 -1.40 -1.85 -2 -1.45 -0.40 0.25 -0.30 0.65 0.30 1.30 0.65 0.75 0.70 0.95 0.15 0.95 -1 -0.05 -2.45 -1.25 -2.45 -2.05 -0.05 -0.50 -0.30 -0.40 -0.80 0.30 -0.55 0.70 -0.90 0.80 -1.05 0.40 -0.15 -0.40 -0.75 -0.55 -1.55 -0.35 -1.30 0.25 -1.30 0.25 -0.35 -0.55 0.55 -0.40 1.25 -0.65 1.60 -0.55 0.80 0.30 0.85 -0.50 0.10 -1 -0.30 -0.15 -0.70 -0.10 -0.90 0.15 -0.15 0.25 -0.65 0.60 -1.10 0.75 -0.85 0.35 -3.75 5.80 -3.50 6.65 0.10 0.30 0.20 0.80 0.20 1.15 0 0.40 0.75 1.25 1.70 1.95 0.90 0.70 1.65 1.50 1.65 1.80 0 0.25 -0.40 0.15 -0.85 -0.25 -1.70 -1.45 -2.30 -1.60 -1.70 -0.50 0.30 0.55 0.55 1.15 0.55 1.30 0 0.50 -2.20 0.30 -3.10 -0.25z m1.30 -1.15 c-0.15 -0.45 -0.50 -0.80 -0.75 -0.80 -0.30 0 -0.25 0.45 0.05 1.05 0.65 1.20 1.20 1 0.70 -0.25z m-0.40 -8.05 c0.25 -1.15 0.20 -1.35 -0.30 -0.95 -0.30 0.35 -0.65 2 -0.75 3.75 -0.20 3 -0.15 3.05 0.25 0.95 0.25 -1.25 0.60 -2.90 0.80 -3.75z m5.20 2.50 c0 -0.40 -0.20 -0.75 -0.50 -0.75 -0.25 0 -0.50 0.35 -0.50 0.75 0 0.40 0.25 0.75 0.50 0.75 0.30 0 0.50 -0.35 0.50 -0.75z m-14.95 -6.45 c0.05 -2.30 -0.15 -4.10 -0.45 -4.40 -0.40 -0.40 -0.50 0.40 -0.40 3.15 0.10 2.05 0.25 4.15 0.25 4.65 0.05 0.55 0.15 0.85 0.30 0.75 0.10 -0.15 0.25 -2 0.30 -4.15z m27.45 3.20 c0 -0.55 -0.35 -1 -0.75 -1 -0.40 0 -0.75 0.45 -0.75 1 0 0.55 0.35 1 0.75 1 0.40 0 0.75 -0.45 0.75 -1z m-18.35 -3.35 c0.25 -1.25 0.15 -1.65 -0.40 -1.65 -0.75 0 -1.10 2.50 -0.40 3.15 0.40 0.45 0.45 0.40 0.80 -1.50z m-6.45 0.15 c-0.15 -0.40 0.10 -1.30 0.60 -2.05 0.60 -0.90 0.70 -1.45 0.30 -1.85 -0.35 -0.35 -0.60 -0.05 -0.85 1 -0.15 0.85 -0.65 1.80 -1.05 2.15 -1 0.80 -0.85 1.45 0.30 1.45 0.65 0 0.85 -0.25 0.70 -0.70z m7.30 -4.55 c0 -0.50 -0.50 -0.75 -1.60 -0.75 l-1.65 0.05 1.50 0.70 c0.85 0.35 1.55 0.70 1.65 0.70 0.05 0.05 0.10 -0.30 0.10 -0.70z m-11.85 -9.45 c0.75 -2 0.40 -4.35 -0.80 -5.55 -0.35 -0.35 -0.40 -0.20 -0.20 0.35 0.90 2.55 0.85 4.25 -0.10 6.40 -0.55 1.20 -0.85 2.45 -0.65 2.70 0.15 0.30 0.45 -0.05 0.65 -0.70 0.20 -0.70 0.70 -2.15 1.10 -3.20z"/>
  <path d="M13.20 7.65 c-0.15 -0.80 -0.50 -1.90 -0.75 -2.55 -0.25 -0.65 -0.45 -1.65 -0.40 -2.25 0 -1.10 0 -1.10 0.85 0.10 0.90 1.30 2.10 4.35 2.10 5.45 0 1.20 -1.50 0.55 -1.80 -0.75z"/>
  <path d="M19.35 6.15 c-0.45 -0.45 -0.45 -1.65 0.05 -1.65 0.20 0 0.65 0.45 1 1 0.50 0.80 0.50 1 -0.05 1 -0.40 0 -0.85 -0.15 -1 -0.35z"/>
 </g>
 <g fill="#1e5e0f">
  <path d="M29.50 31.50 c-0.70 -0.50 -1.05 -1.10 -0.85 -1.30 0.20 -0.20 0.35 -0.10 0.35 0.20 0 0.35 0.35 0.60 0.75 0.60 0.40 0 0.75 0.20 0.75 0.50 0 0.25 0.35 0.35 0.75 0.20 0.40 -0.20 0.75 -0.05 0.75 0.25 0 0.85 -1.10 0.65 -2.50 -0.45z"/>
  <path d="M30.70 29.65 c-2.40 -2.15 -2.45 -3 -0.30 -3.05 1.25 -0.05 2.20 0.25 2.95 1 1.15 1.05 1.55 2.90 0.70 2.90 -0.25 0 -0.80 0.10 -1.15 0.25 -0.40 0.15 -1.35 -0.35 -2.20 -1.10z"/>
 </g>
 <g fill="#373953">
  <path d="M15.55 37.30 c-1.05 -1.10 -1.15 -1.65 -0.95 -4.70 0.20 -3.65 -0.30 -4.60 -2.35 -4.60 -1.10 0 -3.75 -1.40 -3.75 -2 0 -0.80 2.75 -0.75 4 0.10 1.95 1.35 3.10 1.30 3.85 -0.10 0.95 -1.85 0.80 -0.60 -0.30 2.40 -1.20 3.30 -0.95 7.30 0.60 9 0.55 0.60 0.80 1.10 0.50 1.10 -0.25 0 -1 -0.55 -1.60 -1.20z"/>
  <path d="M19.05 36.45 c-0.65 -0.50 -0.95 -0.95 -0.70 -0.95 0.65 0 2.45 1.35 2.15 1.65 -0.15 0.15 -0.80 -0.15 -1.45 -0.70z"/>
  <path d="M16.35 35.20 c-0.35 -0.40 0.20 -2.20 0.70 -2.20 0.60 0 0.60 1.85 0 2.20 -0.20 0.15 -0.55 0.15 -0.70 0z"/>
  <path d="M24.25 35 c-0.20 -0.30 -0.70 -0.50 -1.20 -0.50 -0.50 0 -1.20 -0.35 -1.55 -0.75 -0.45 -0.50 -0.45 -0.75 -0.05 -0.75 0.30 0 0.55 0.20 0.55 0.50 0 0.25 0.80 0.40 1.80 0.35 1 -0.05 1.95 0.15 2.05 0.45 0.25 0.70 -1.20 1.35 -1.60 0.70z"/>
  <path d="M31 34.60 c0 -0.20 0.25 -0.65 0.60 -1 0.30 -0.30 0.40 -0.75 0.20 -0.95 -0.20 -0.25 -0.65 0 -1 0.50 -0.90 1.20 -1.15 1.10 -3.60 -1.15 -2.15 -1.95 -3.15 -2.40 -3.90 -1.60 -0.20 0.20 -1.05 0.35 -1.85 0.35 -1.15 0 -1.45 -0.20 -1.45 -1.10 0 -1.05 0.15 -1.10 2.80 -0.90 1.55 0.10 3.10 0.45 3.35 0.70 0.30 0.30 1.05 0.55 1.70 0.55 0.65 0 1.15 0.25 1.15 0.50 0 0.30 0.35 0.50 0.75 0.50 0.40 0 0.75 0.25 0.75 0.50 0 0.30 -0.25 0.50 -0.60 0.50 -0.30 0 -0.40 0.15 -0.25 0.30 0.20 0.20 0.70 0.05 1.15 -0.30 0.60 -0.55 0.85 -0.55 1.15 -0.10 0.20 0.40 0.80 0.50 1.35 0.30 0.70 -0.25 0.60 0.05 -0.50 1.20 -1.55 1.70 -1.80 1.85 -1.80 1.20z"/>
  <path d="M8.20 32.80 c-0.50 -0.40 -0.85 -0.85 -0.70 -0.95 0.15 -0.15 0.80 0.15 1.50 0.65 1.45 1.10 0.70 1.35 -0.80 0.30z"/>
  <path d="M34.50 33.05 c0 -0.25 0.80 -0.60 1.80 -0.80 2.20 -0.40 1.95 -0.70 -0.90 -1.30 -1.60 -0.35 -2.65 -1.05 -4 -2.60 -1.40 -1.60 -1.80 -1.85 -1.55 -0.95 0.15 0.60 0.05 1.10 -0.15 1.10 -0.25 0 -0.70 -0.50 -0.95 -1.10 -0.35 -0.85 -0.85 -1.10 -1.85 -1 -0.80 0.10 -1.70 -0.20 -2.25 -0.75 -0.50 -0.50 -1.35 -0.90 -1.90 -0.90 -0.65 0 -0.95 -0.30 -0.85 -0.75 0.25 -0.95 -0.05 -0.70 -1.60 1.65 -0.70 1.05 -1.30 2.10 -1.30 2.40 0 0.90 -2 4.45 -2.50 4.45 -0.65 0 -0.65 -0.80 0.05 -2.05 0.25 -0.55 0.70 -2.15 0.95 -3.60 0.20 -1.45 0.50 -2.90 0.60 -3.30 0.10 -0.50 -0.45 -0.85 -1.60 -1.10 -5.20 -1.15 -5.25 -1.15 -5.50 -2.95 -0.15 -0.90 -0.55 -1.75 -0.85 -1.90 -0.80 -0.25 -0.85 0.70 -0.15 1.15 0.60 0.35 0.30 1.55 -0.85 4.15 -1.05 2.20 -1.75 2 -1.45 -0.45 0.25 -2.25 -0.35 -4.45 -1.25 -4.45 -0.30 0 -0.40 0.35 -0.25 0.80 0.45 1.15 -0.75 0.60 -1.65 -0.80 -0.75 -1.10 -0.75 -1.20 0.05 -0.90 0.80 0.35 2.40 -0.95 2.40 -1.95 0 -0.30 0.35 -0.85 0.80 -1.20 0.75 -0.60 0.80 -0.50 0.50 0.95 -0.20 0.85 -0.20 1.60 0.05 1.60 0.80 0 2 -3.75 1.75 -5.65 -0.30 -2.55 0.80 -2.45 1.20 0.10 0.20 1.10 0.65 2.10 1.05 2.25 0.60 0.25 0.55 0.45 -0.05 1.45 -0.55 0.80 -0.65 1.60 -0.40 2.60 l0.40 1.50 0.60 -1.65 c0.30 -0.85 0.80 -1.60 1.10 -1.60 0.75 0 0.30 -3.80 -1.05 -8.95 -1 -3.70 -0.90 -5.15 0.20 -3.30 0.95 1.55 1.75 4.55 2.10 7.75 0.20 1.65 0.60 3 0.85 3 0.50 0 0.30 1.25 -0.45 3.35 -0.25 0.75 -0.05 0.65 1 -0.30 0.75 -0.70 1.35 -1.50 1.35 -1.90 0 -0.85 0.40 -0.80 1.35 0.10 0.70 0.70 0.70 0.90 -0.05 1.70 -0.85 0.90 -1.10 2.55 -0.40 2.55 0.55 0 2.60 -2.35 2.60 -3 0 -0.30 0.35 -0.50 0.75 -0.50 0.40 0 0.75 0.40 0.75 0.95 0 0.50 -0.35 1.20 -0.75 1.55 -0.40 0.35 -0.75 1 -0.75 1.45 0 0.45 -0.25 1.10 -0.60 1.45 -0.35 0.35 -0.45 0.60 -0.25 0.60 0.15 0 1.20 -0.95 2.25 -2.10 1.25 -1.30 2.15 -1.90 2.55 -1.70 0.45 0.30 0.35 0.70 -0.50 1.60 -1.45 1.55 -0.90 2.10 0.85 0.75 0.75 -0.55 1.70 -1.05 2.10 -1.05 0.70 0 0.70 0.05 0 0.65 -0.90 0.70 -2.40 2.90 -2.40 3.45 0 0.95 1.35 0.25 2.10 -1.10 0.50 -0.90 1.25 -1.50 1.90 -1.50 1.40 0 1.25 0.75 -0.45 2.40 -1.40 1.35 -1.45 1.45 -0.55 2 0.80 0.45 0.90 0.45 0.70 -0.10 -0.30 -0.75 1.55 -2.30 2.70 -2.30 0.70 0 3.05 2.50 5.50 5.95 l1.65 2.30 -1.30 1.15 c-1.30 1.10 -3.25 1.50 -3.25 0.65z m-10.50 -10.65 c0 -0.65 -1.15 -0.25 -1.40 0.50 -0.10 0.35 0.10 0.50 0.60 0.30 0.45 -0.15 0.80 -0.55 0.80 -0.80z"/>
  <path d="M5.30 29.95 c-0.15 -0.85 -0.30 -2.80 -0.30 -4.35 0 -1.95 -0.40 -3.55 -1.35 -5.55 -1.70 -3.50 -1.70 -6.15 -0.10 -9 0.65 -1.15 1.25 -1.90 1.35 -1.60 0.10 0.25 -0.35 1.15 -0.95 2 -0.90 1.25 -1.05 1.90 -0.75 3.90 0.15 1.30 0.85 3.45 1.55 4.75 0.95 1.80 1.25 3.35 1.45 6.85 0.25 4.45 -0.25 6.10 -0.90 3z"/>
  <path d="M7 28.25 c0 -1.25 0.15 -2.25 0.40 -2.25 0.20 0 0.35 1 0.35 2.25 0 1.25 -0.15 2.25 -0.35 2.25 -0.25 0 -0.40 -1 -0.40 -2.25z"/>
  <path d="M26.20 28.25 c-0.50 -0.40 -0.70 -0.70 -0.45 -0.75 0.75 0 2 0.90 1.70 1.20 -0.15 0.15 -0.70 -0.05 -1.25 -0.45z"/>
  <path d="M4 14.85 c0 -0.35 0.45 -1.50 1 -2.60 1.25 -2.45 1.25 -3.45 0 -6 l-1 -2 0.30 2.25 c0.20 1.65 0.10 2.05 -0.25 1.50 -0.30 -0.40 -0.55 -1.15 -0.55 -1.65 0 -0.50 -0.35 -1.55 -0.75 -2.30 -0.40 -0.80 -0.55 -1.55 -0.40 -1.75 0.45 -0.45 3.15 2.55 3.95 4.45 0.75 1.85 0.95 6.25 0.30 6.25 -0.25 0 -0.70 0.55 -1 1.25 -0.60 1.30 -1.60 1.70 -1.60 0.60z"/>
  <path d="M17.45 12.85 c0 -0.35 -0.20 -1.65 -0.40 -2.95 -0.30 -1.80 -0.25 -2.40 0.20 -2.40 0.55 0 1.75 3.45 1.75 4.90 0 0.75 -1.50 1.15 -1.55 0.45z"/>
  <path d="M19.55 6.70 c-0.35 -0.95 -0.55 -1.85 -0.45 -2 0.35 -0.35 1.75 1.45 2.10 2.70 0.60 1.90 -0.95 1.30 -1.65 -0.70z"/>
  <path d="M8.85 5.65 c-0.15 -0.80 -0.45 -2.15 -0.75 -3 -0.30 -0.90 -0.35 -1.65 -0.10 -1.65 0.65 0 1.90 2.25 2.25 4.20 0.30 1.40 0.20 1.80 -0.40 1.80 -0.40 0 -0.85 -0.60 -1 -1.35z"/>
  <path d="M15.65 5 c-0.55 -1.50 -0.15 -2 0.70 -0.85 0.90 1.10 1.15 2.35 0.50 2.35 -0.35 0 -0.90 -0.65 -1.20 -1.50z"/>
 </g>
 <g fill="#505272">
  <path d="M14.75 31.80 c0.10 -3.15 0.35 -2.85 -3.60 -4.30 -1.70 -0.65 -2.25 -2 -0.90 -2 1.05 0 4.40 1.75 5.20 2.70 0.50 0.55 0.50 1 0.15 1.45 -0.30 0.35 -0.65 1.65 -0.75 2.85 -0.15 1.55 -0.20 1.35 -0.10 -0.70z"/>
  <path d="M31.50 34.15 c0 -0.25 0.45 -0.90 1 -1.40 0.55 -0.50 1 -0.70 1 -0.40 0 0.25 -0.45 0.90 -1 1.40 -0.55 0.50 -1 0.70 -1 0.40z"/>
  <path d="M30.25 32.50 c0.50 -0.55 1 -0.90 1.15 -0.75 0.35 0.30 -0.90 1.75 -1.55 1.75 -0.25 0 -0.10 -0.45 0.40 -1z"/>
  <path d="M34.75 33 c-0.15 -0.25 0.15 -0.50 0.70 -0.50 0.50 0 1.40 -0.15 1.90 -0.30 0.80 -0.25 0.80 -0.20 -0.05 0.50 -1.15 0.90 -2.10 1.05 -2.55 0.30z"/>
  <path d="M28.15 32.15 c0.45 -0.10 0.85 -0.45 0.85 -0.75 0 -0.30 -0.45 -0.40 -1 -0.25 -0.65 0.15 -1 0 -1 -0.45 0 -0.90 1 -0.85 2.20 0.05 1.10 0.85 0.65 1.75 -0.85 1.70 -0.85 -0.05 -0.90 -0.10 -0.20 -0.30z"/>
  <path d="M16.50 31.55 c0 -0.20 0.20 -1.05 0.45 -1.85 0.25 -0.80 0.75 -2.85 1.10 -4.55 0.50 -2.40 0.85 -3.15 1.50 -3.15 0.50 0 0.95 0.25 1.05 0.55 0.10 0.30 0.75 -0.30 1.40 -1.35 0.70 -1 1.65 -2.10 2.10 -2.40 1.15 -0.70 1.85 0.10 0.75 0.90 -0.45 0.35 -0.85 0.90 -0.85 1.20 0 0.70 -3.30 3.35 -4.10 3.35 -0.35 0 -0.65 0.50 -0.65 1.10 0 0.60 -0.20 1.25 -0.40 1.45 -0.20 0.20 -0.35 0.75 -0.35 1.20 0 0.45 -0.35 1.55 -0.80 2.40 -0.75 1.60 -1.20 2 -1.20 1.15z"/>
  <path d="M5.85 31.15 c-0.20 -0.15 -0.30 -1.70 -0.30 -3.35 l0.10 -3.05 0.35 3.25 c0.40 3.40 0.40 3.70 -0.15 3.15z"/>
  <path d="M35.15 30.60 c-1.85 -0.60 -3 -1.40 -4.10 -2.80 -2.10 -2.60 -2.10 -4.40 -0.05 -2.55 0.75 0.70 0.95 0.70 1.55 -0.05 0.55 -0.65 0.55 -0.75 -0.10 -0.70 -1.95 0.30 -2.75 -0.60 -1.15 -1.20 1.05 -0.40 2.15 0.60 5 4.35 3.10 4.15 3.05 4.25 -1.15 2.95z"/>
  <path d="M21.90 30.60 c-1.70 -0.35 -1 -1.60 0.85 -1.60 0.95 0 1.75 0.15 1.75 0.40 0 0.60 -1.70 1.40 -2.60 1.20z"/>
  <path d="M28.80 27.30 c-0.45 -0.75 -1.15 -1.25 -1.45 -1.15 -0.35 0.10 -0.90 -0.10 -1.25 -0.45 -0.50 -0.50 -0.25 -1.05 1.35 -2.75 1.15 -1.30 2.15 -1.95 2.50 -1.70 0.45 0.25 0 0.90 -1.30 2.05 -1.25 1.15 -1.65 1.70 -1.10 1.70 0.95 0 2.60 2.25 2.35 3.10 -0.10 0.30 -0.60 -0.05 -1.10 -0.80z"/>
  <path d="M5.05 23.10 c-0.40 -0.90 -0.55 -1.75 -0.40 -1.90 0.40 -0.45 1.45 1.75 1.25 2.70 -0.10 0.60 -0.40 0.35 -0.85 -0.80z"/>
  <path d="M8.20 22.40 c0.60 -1.40 0.60 -1.85 0 -3 -0.40 -0.75 -1.10 -1.55 -1.55 -1.85 -1.20 -0.65 -0.70 -1 1 -0.70 1.95 0.40 2.60 2.20 1.75 4.85 -0.35 1.10 -0.95 2.05 -1.25 2.20 -0.50 0.15 -0.45 -0.25 0.05 -1.50z"/>
  <path d="M24.10 22.95 c1 -1.70 2.20 -2.80 3.50 -3.20 l1.15 -0.40 -1.15 0.95 c-0.60 0.55 -1.40 1.50 -1.75 2.20 -0.35 0.70 -1.05 1.30 -1.50 1.40 -0.80 0.15 -0.85 0.05 -0.25 -0.95z"/>
  <path d="M19.85 21.15 c-0.70 -0.65 -0.30 -2.15 0.70 -2.70 0.95 -0.50 1 -0.80 0.70 -3.25 -0.25 -2.20 -0.20 -2.70 0.40 -2.70 1.40 0 1.90 4.95 0.60 6 -0.40 0.35 -0.75 0.90 -0.75 1.25 0 0.80 -1.25 1.85 -1.65 1.40z"/>
  <path d="M16.15 20.15 c-1 -0.40 -0.75 -1.35 0.65 -2.70 1.10 -1 1.25 -1.50 1 -3.20 -0.15 -1.15 -0.40 -2.45 -0.60 -2.90 -0.20 -0.55 -0.05 -0.85 0.45 -0.85 0.90 0 1.35 1.05 1.35 3.25 0 0.90 0.25 1.75 0.60 1.85 0.40 0.15 0.25 0.55 -0.45 1.25 -0.70 0.70 -0.95 1.45 -0.80 2.35 0.20 1.05 0.10 1.30 -0.65 1.25 -0.55 0 -1.25 -0.15 -1.55 -0.30z"/>
  <path d="M11.50 19.55 c0 -0.25 0.35 -0.55 0.75 -0.75 0.40 -0.15 0.75 -0.70 0.75 -1.25 0 -0.55 0.35 -1.20 0.85 -1.45 0.60 -0.35 0.75 -0.90 0.50 -2.25 -0.20 -1.25 -0.10 -1.70 0.30 -1.55 0.90 0.35 1.70 2.40 1.30 3.25 -0.20 0.40 -0.50 1.30 -0.70 2.10 -0.20 0.90 -0.60 1.35 -1.25 1.35 -0.55 0 -1 0.25 -1 0.50 0 0.30 -0.35 0.50 -0.75 0.50 -0.40 0 -0.75 -0.20 -0.75 -0.45z"/>
  <path d="M10.05 17.20 c-1.15 -1.05 -1.20 -1.25 -0.45 -2.05 0.80 -0.90 0.85 -2.15 0.15 -6 -0.30 -1.80 -0.20 -2.15 0.45 -2.15 0.55 0 0.80 0.50 0.80 1.70 0 2.85 0.55 4.80 1.40 4.80 0.65 0 0.60 0.15 -0.15 1 -0.60 0.65 -0.75 1.35 -0.55 2.20 0.40 1.70 -0.20 1.90 -1.65 0.50z"/>
  <path d="M2.45 15.10 c-0.30 -1.70 0.50 -3.75 1.90 -5.10 0.65 -0.55 0.60 -0.40 -0.10 0.75 -0.55 0.85 -1.10 2.50 -1.25 3.75 -0.30 2.20 -0.30 2.20 -0.55 0.60z"/>
  <path d="M4.35 15.15 c-0.15 -0.25 0.15 -1.40 0.70 -2.60 1.20 -2.75 1.20 -4.10 -0.10 -6.60 -1.20 -2.40 -1.65 -2.35 -0.95 0.10 0.90 3 0.45 2.80 -0.55 -0.30 -1.25 -4 -1.20 -4.10 0.70 -2.05 1.70 1.80 2.85 4.60 2.85 7 0 1.45 -2.20 5.15 -2.65 4.45z"/>
  <path d="M7.85 2 c-0.15 -0.55 -0.10 -1 0.10 -1 0.15 0 0.60 0.45 0.95 1 0.50 0.80 0.50 1 -0.10 1 -0.35 0 -0.80 -0.45 -0.95 -1z"/>
 </g>
 <g fill="#746d70">
  <path d="M28.30 32.95 c-0.85 -0.85 -0.90 -0.95 -0.15 -0.95 0.45 0 0.85 -0.20 0.85 -0.50 0 -0.25 0.25 -0.50 0.55 -0.50 0.30 0 0.40 0.45 0.15 1.10 -0.30 1 -0.25 1.05 0.50 0.45 0.90 -0.75 1.10 -0.05 0.20 0.85 -0.75 0.75 -0.95 0.75 -2.10 -0.45z"/>
  <path d="M35 32.95 c0 -0.30 0.35 -0.45 0.75 -0.30 0.40 0.20 0.85 0.10 1 -0.15 0.20 -0.30 0.60 -0.50 0.90 -0.50 0.80 0.05 -1.15 1.50 -2 1.50 -0.35 0 -0.65 -0.25 -0.65 -0.55z"/>
  <path d="M26.20 30.80 c-0.50 -0.30 -2.05 -0.55 -3.45 -0.55 -1.95 0 -2.50 -0.20 -2.65 -0.85 -0.15 -0.75 0.20 -0.90 2 -0.90 1.20 0 2.80 0.35 3.60 0.75 0.75 0.40 1.75 0.75 2.10 0.75 0.40 0 0.70 0.20 0.70 0.45 0 0.75 -1.25 0.95 -2.30 0.35z"/>
  <path d="M11.80 27.80 c-3.15 -1.15 -4.25 -2.30 -2.20 -2.30 1.45 0.05 5.55 2.05 5.80 2.90 0.25 0.75 -0.05 0.75 -3.60 -0.60z"/>
  <path d="M3.95 20.70 c-1.70 -3.50 -2.25 -7.60 -1.20 -8.65 0.35 -0.35 0.50 0.45 0.50 2.35 0 2.05 0.40 3.75 1.40 6 1.95 4.30 1.30 4.55 -0.70 0.30z"/>
  <path d="M21.50 16.25 c0 -1.20 0.25 -1.75 0.75 -1.75 0.50 0 0.75 0.55 0.75 1.75 0 1.20 -0.25 1.75 -0.75 1.75 -0.50 0 -0.75 -0.55 -0.75 -1.75z"/>
  <path d="M14.30 12.90 c-0.10 -0.35 -0.50 -2.35 -0.95 -4.40 -0.40 -2.05 -0.95 -4.30 -1.15 -5 -0.35 -1.20 -0.30 -1.20 0.60 -0.40 1.50 1.30 3.40 10.40 2.20 10.40 -0.30 0 -0.60 -0.30 -0.70 -0.60z"/>
  <path d="M17.55 12.35 c-0.70 -1.85 -0.70 -2.35 0.15 -2.35 0.85 0 1.25 1.45 0.80 2.75 -0.35 0.90 -0.45 0.90 -0.95 -0.40z"/>
  <path d="M21 12.50 c0 -1 -1.10 -5.50 -1.80 -7.25 -0.35 -0.90 -0.30 -0.95 0.50 -0.30 1.10 0.95 2.05 3.25 2.50 6.20 0.30 1.95 0.25 2.35 -0.40 2.35 -0.45 0 -0.80 -0.40 -0.80 -1z"/>
  <path d="M16.55 7.40 c-0.35 -1.20 -0.85 -2.55 -1.15 -3.10 -0.80 -1.55 0.70 -0.65 1.65 1 0.90 1.50 1.25 4.20 0.55 4.20 -0.25 0 -0.70 -0.95 -1.05 -2.10z"/>
  <path d="M8.50 4.05 c-0.25 -0.55 -0.50 -1.50 -0.50 -2.15 0 -1.10 0.05 -1.05 1 0.35 0.55 0.85 1 1.80 1 2.15 0 0.95 -0.90 0.70 -1.50 -0.35z"/>
 </g>
 <g fill="#6b709b">
  <path d="M29 33.25 c0 -0.40 -0.40 -0.75 -0.85 -0.80 -0.60 0 -0.65 -0.10 -0.25 -0.30 0.35 -0.15 0.95 0 1.30 0.35 0.50 0.35 0.80 0.40 1.05 0 0.15 -0.25 0.55 -0.50 0.85 -0.50 0.30 0 0.15 0.45 -0.35 1 -1.10 1.20 -1.75 1.30 -1.75 0.25z"/>
  <path d="M32.25 33 c0.50 -0.55 1 -1 1.10 -1 0.10 0 -0.05 0.45 -0.35 1 -0.30 0.55 -0.80 1 -1.10 1 -0.30 0 -0.15 -0.45 0.35 -1z"/>
  <path d="M36.65 30.75 c-0.85 -0.35 -1.70 -0.55 -1.85 -0.45 -0.15 0.10 -0.20 0.05 -0.05 -0.10 0.10 -0.20 -0.35 -1 -1 -1.80 -2.60 -3.05 -0.70 -2.50 2.15 0.60 0.60 0.65 0.65 0.65 0.40 -0.10 -0.15 -0.50 -0.20 -0.90 -0.05 -0.90 0.30 0 2.35 3.05 2.20 3.25 -0.10 0.10 -0.90 -0.15 -1.80 -0.50z"/>
  <path d="M26.50 30.50 c0 -0.25 -0.35 -0.50 -0.75 -0.50 -0.40 0 -0.75 -0.20 -0.75 -0.45 0 -0.20 0.80 -0.15 1.75 0.15 1.90 0.60 2.30 1.30 0.75 1.30 -0.55 0 -1 -0.20 -1 -0.50z"/>
  <path d="M14.40 28.65 c-0.50 -0.10 -0.90 -0.55 -0.90 -0.95 0 -0.60 0.20 -0.60 1 -0.20 0.55 0.30 1 0.75 1 1 0 0.30 -0.05 0.45 -0.10 0.45 -0.10 -0.05 -0.55 -0.15 -1 -0.30z"/>
  <path d="M30.85 27.25 c-0.75 -0.70 -1.35 -1.65 -1.35 -2.10 0 -0.70 0.20 -0.60 1.20 0.30 0.95 0.90 2.10 3.05 1.60 3.05 0 0 -0.70 -0.55 -1.45 -1.25z"/>
  <path d="M34.50 26.25 c-0.65 -0.70 -0.95 -1.25 -0.70 -1.25 0.40 0.05 2.50 2.50 2.05 2.50 -0.10 0 -0.70 -0.55 -1.35 -1.25z"/>
  <path d="M5.60 25.65 c-0.05 -0.85 -0.35 -2.20 -0.60 -2.95 -0.30 -0.75 -0.40 -1.45 -0.30 -1.60 0.55 -0.50 1.35 2.65 1.15 4.35 -0.20 1.80 -0.20 1.80 -0.25 0.20z"/>
  <path d="M27 23.50 c0 -0.65 2.45 -2.20 2.85 -1.85 0.15 0.20 -0.10 0.45 -0.55 0.65 -0.45 0.15 -0.80 0.60 -0.80 1 0 0.40 -0.35 0.70 -0.75 0.70 -0.40 0 -0.75 -0.20 -0.75 -0.50z"/>
  <path d="M21.30 22.40 c1.05 -1.75 3 -3.90 3.60 -3.90 0.95 0 0.70 0.70 -0.45 1.40 -0.60 0.35 -0.90 0.80 -0.75 0.95 0.15 0.20 -0.05 0.75 -0.55 1.25 -0.90 1 -2.40 1.25 -1.85 0.30z"/>
  <path d="M24.50 22.60 c0 -0.25 0.55 -0.95 1.25 -1.60 1.45 -1.35 1.60 -1.05 0.45 0.75 -0.80 1.20 -1.70 1.65 -1.70 0.85z"/>
  <path d="M19.80 20.70 c-0.50 -1.25 -0.35 -1.60 0.70 -1.95 0.75 -0.25 1 -0.75 1 -2.05 0 -1.10 0.25 -1.70 0.65 -1.70 0.95 0 1 2.85 0.05 3.20 -0.40 0.15 -0.70 0.70 -0.70 1.20 0 1.40 -1.30 2.40 -1.70 1.30z"/>
  <path d="M15.75 19.50 c-0.15 -0.25 0.30 -1.10 1.05 -1.80 1.35 -1.40 1.40 -2.50 0.40 -6.80 -0.25 -1.10 -0.15 -1.40 0.50 -1.40 0.55 0 0.80 0.45 0.80 1.65 0 0.85 0.25 2.40 0.50 3.35 0.40 1.40 0.35 1.85 -0.25 2.30 -0.40 0.30 -0.75 1.15 -0.75 1.90 0 0.95 -0.25 1.30 -0.95 1.30 -0.55 0 -1.15 -0.20 -1.30 -0.50z"/>
  <path d="M13 18.30 c0 -1.30 0.60 -2.30 1.15 -1.95 0.35 0.20 0.40 -0.60 0.15 -2.50 -0.15 -1.70 -0.10 -2.85 0.15 -2.85 1.15 0 1.55 5.10 0.55 6.95 -0.60 1.20 -2 1.40 -2 0.35z"/>
  <path d="M10.15 17.15 c-0.90 -0.30 -0.80 -2.15 0.05 -2.15 0.55 0 0.60 -0.45 0.20 -2.30 -0.50 -2.20 -0.30 -3.25 0.45 -2.50 0.45 0.45 0.65 7.30 0.20 7.25 -0.15 0 -0.60 -0.15 -0.90 -0.30z"/>
  <path d="M4.55 14.70 c-0.05 -0.55 0.30 -1.45 0.70 -2 1 -1.35 0.90 -4.65 -0.25 -6.95 -0.95 -1.95 -0.95 -2 0 -0.85 1.90 2.30 2.60 7 1.20 8.15 -0.45 0.35 -1 1.10 -1.20 1.70 l-0.45 1 0 -1.05z"/>
 </g>
 <g fill="#9f9490">
  <path d="M31 34.60 c0 -0.50 1.10 -1.60 1.60 -1.60 0.25 0 0.15 0.45 -0.20 1 -0.65 1 -1.40 1.35 -1.40 0.60z"/>
  <path d="M28.30 32.95 c-0.85 -0.80 -0.85 -0.95 -0.15 -0.95 0.45 0 0.90 0.20 1.10 0.50 0.15 0.25 0.65 0.30 1.15 0.15 0.75 -0.30 0.75 -0.25 0.15 0.50 -0.85 1.05 -1.05 1.05 -2.25 -0.20z"/>
  <path d="M25.55 30.30 c-0.90 -0.50 -1.55 -0.55 -2.60 -0.15 -1 0.40 -1.55 0.40 -2.15 -0.10 -1.25 -1.05 -0.35 -1.65 1.90 -1.35 2.75 0.45 5.90 1.55 5.45 1.95 -0.45 0.50 -1.25 0.40 -2.60 -0.35z"/>
  <path d="M11.30 27.50 c-2.85 -1.10 -3.20 -1.40 -2.15 -1.75 0.85 -0.35 5.85 1.65 5.85 2.30 0 0.65 -0.90 0.50 -3.70 -0.55z"/>
  <path d="M3.30 19.15 c-1.05 -2.10 -1.40 -4.35 -0.85 -5.70 0.45 -1.05 0.50 -0.95 0.55 1.05 0 1.25 0.35 3.10 0.70 4.15 0.80 2.20 0.60 2.40 -0.40 0.50z"/>
  <path d="M17.25 10.90 c-0.10 -0.35 -0.30 -1.30 -0.40 -2.15 -0.15 -0.80 -0.40 -2 -0.60 -2.60 -0.45 -1.50 0.40 -1.50 1.15 0 0.85 1.75 1.30 5.35 0.65 5.35 -0.35 0 -0.65 -0.30 -0.80 -0.60z"/>
  <path d="M20.55 9.40 c-1.25 -3.35 -1.45 -4.45 -0.95 -4.30 0.35 0.15 0.75 0.55 0.90 0.95 0.20 0.40 0.60 1.20 0.90 1.80 0.35 0.65 0.60 1.50 0.60 1.90 0 1.15 -0.95 0.90 -1.45 -0.35z"/>
  <path d="M13.50 8.20 c-0.65 -1.60 -0.65 -2.20 0 -2.20 0.60 0 1.50 1.65 1.50 2.70 0 1.25 -1 0.95 -1.50 -0.50z"/>
  <path d="M9.80 8.60 c-0.15 -0.25 -0.45 -1.35 -0.75 -2.50 -0.35 -1.60 -0.30 -2.10 0.15 -2.10 0.60 0 1.80 3.05 1.80 4.45 0 0.65 -0.80 0.75 -1.20 0.15z"/>
  <path d="M12.50 4.55 c-0.85 -1.65 -0.55 -2.35 0.50 -1.05 0.55 0.70 1 1.40 1 1.65 0 0.70 -1 0.35 -1.50 -0.60z"/>
 </g>
 <g fill="#9099c6">
  <path d="M31.75 33.50 c0.50 -0.55 1 -0.90 1.15 -0.75 0.35 0.30 -0.90 1.75 -1.55 1.75 -0.25 0 -0.10 -0.45 0.40 -1z"/>
  <path d="M28.80 33.25 c-0.55 -0.40 -0.80 -0.90 -0.60 -1.10 0.20 -0.20 0.55 -0.05 0.75 0.30 0.35 0.55 0.65 0.55 1.60 0.05 1.20 -0.65 1.20 -0.65 0.25 0.45 -0.55 0.55 -1 1.05 -1 1.05 -0.05 0 -0.50 -0.35 -1 -0.75z"/>
  <path d="M30.35 26.65 c-0.20 -0.15 -0.35 -0.65 -0.35 -1.05 0 -0.60 0.15 -0.60 0.75 -0.10 0.40 0.35 0.75 0.80 0.75 1.05 0 0.55 -0.70 0.60 -1.15 0.10z"/>
  <path d="M27.30 23.30 c0.15 -0.45 0.55 -0.80 0.80 -0.80 0.65 0 0.25 1.15 -0.50 1.40 -0.35 0.10 -0.50 -0.10 -0.30 -0.60z"/>
  <path d="M21.50 22.50 c0 -0.70 3 -4 3.70 -3.95 0.30 0 0.05 0.35 -0.55 0.80 -0.65 0.40 -1.15 1.15 -1.15 1.60 0 0.45 -0.45 1.10 -1 1.45 -0.55 0.35 -1 0.40 -1 0.10z"/>
  <path d="M19.80 20.25 c-0.15 -0.45 0.05 -0.90 0.50 -1.10 0.95 -0.35 1.40 0.10 1.05 1.10 -0.40 0.95 -1.15 0.95 -1.55 0z"/>
  <path d="M16.10 18.90 c0.10 -0.60 0.55 -1.20 1.05 -1.30 0.70 -0.15 0.90 0.05 0.75 1 -0.10 0.60 -0.55 1.20 -1.05 1.30 -0.70 0.15 -0.90 -0.05 -0.75 -1z"/>
  <path d="M13.30 18.55 c-0.45 -0.70 0.20 -2.05 0.95 -2.05 0.40 0 0.80 -0.60 0.90 -1.35 l0.20 -1.40 0.10 1.35 c0.10 2.55 -1.30 4.85 -2.15 3.45z"/>
  <path d="M21.80 17.15 c-0.15 -0.50 -0.40 -1.75 -0.60 -2.75 -0.25 -1.55 -0.15 -1.90 0.50 -1.90 0.80 0 0.85 0.35 1 3.65 0.10 1.65 -0.50 2.30 -0.90 1z"/>
  <path d="M9.85 16.65 c-0.65 -0.60 -0.35 -1.65 0.40 -1.65 0.40 0 0.75 0.45 0.75 1 0 1 -0.55 1.30 -1.15 0.65z"/>
  <path d="M17.80 13.10 c-0.20 -0.90 -0.25 -1.80 -0.10 -1.95 0.55 -0.60 0.85 0.25 0.70 1.95 l-0.15 1.65 -0.45 -1.65z"/>
  <path d="M14.30 12.75 c-0.45 -1.20 -0.35 -2.25 0.15 -2.25 0.60 0 1.10 2.15 0.60 2.65 -0.25 0.25 -0.55 0.05 -0.75 -0.40z"/>
  <path d="M10.40 11.75 c-0.70 -2.15 -1 -5.25 -0.45 -5.25 0.70 0 1.15 1.95 0.95 4.30 -0.10 1.45 -0.25 1.70 -0.50 0.95z"/>
  <path d="M6.30 10.70 c-0.15 -0.45 -0.30 -1.35 -0.30 -2 0 -0.70 -0.35 -1.90 -0.75 -2.70 -0.45 -0.85 -0.65 -1.50 -0.55 -1.50 0.55 0 1.70 2.80 2.05 4.90 0.35 2.10 0.10 2.80 -0.45 1.30z"/>
 </g>
 <g fill="#cfc3bf">
  <path d="M31 34.65 c0 -0.65 1.45 -1.90 1.75 -1.55 0.15 0.15 -0.20 0.65 -0.75 1.15 -0.55 0.50 -1 0.65 -1 0.40z"/>
  <path d="M28.80 33.25 c-0.55 -0.40 -0.80 -0.90 -0.60 -1.10 0.20 -0.20 0.55 -0.10 0.75 0.25 0.25 0.40 0.75 0.50 1.35 0.25 0.85 -0.30 0.85 -0.25 0.25 0.50 -0.35 0.45 -0.70 0.85 -0.75 0.85 0 0 -0.50 -0.35 -1 -0.75z"/>
  <path d="M25.55 30.15 c-0.90 -0.60 -1.40 -0.65 -2.05 -0.25 -1 0.60 -3 0.25 -3 -0.50 0 -0.80 5.15 -0.20 6.50 0.75 0.80 0.55 0.95 0.85 0.45 0.85 -0.40 0 -1.25 -0.35 -1.90 -0.85z"/>
  <path d="M11.90 27.55 c-2.70 -0.95 -3.50 -1.55 -2.05 -1.55 1.25 0 4.45 1.30 4.90 2 0.40 0.60 0.10 0.60 -2.85 -0.45z"/>
  <path d="M3 18.20 c-0.30 -0.70 -0.45 -2.30 -0.45 -3.60 0.10 -2.30 0.10 -2.25 0.45 0.70 0.20 1.65 0.50 3.30 0.70 3.60 0.20 0.35 0.25 0.60 0.05 0.60 -0.15 0 -0.50 -0.60 -0.75 -1.30z"/>
  <path d="M21.30 14.40 c-0.15 -0.65 -0.30 -1.75 -0.30 -2.45 0 -0.70 -0.40 -2.55 -0.95 -4.10 -0.95 -2.95 -0.90 -3.30 0.15 -2.20 1.35 1.40 3.10 9.85 2.05 9.85 -0.35 0 -0.75 -0.50 -0.95 -1.10z"/>
  <path d="M17.25 10.95 c-0.40 -1.70 0.05 -2.55 0.75 -1.45 0.60 0.95 0.65 3 0.05 3 -0.25 0 -0.60 -0.70 -0.80 -1.55z"/>
  <path d="M13.60 8.55 c-0.70 -2.30 -0.75 -3.05 -0.15 -3.05 0.50 0 1.55 2.70 1.55 4.05 0 1.60 -0.80 1.05 -1.40 -1z"/>
  <path d="M9.05 5.70 c-0.60 -2.10 -1 -3.90 -0.85 -4.05 0.35 -0.35 1.45 1.85 2.15 4.35 0.75 2.70 0.80 3.50 0.25 3.50 -0.25 0 -0.95 -1.70 -1.55 -3.80z"/>
  <path d="M16.60 7.15 c-0.80 -1.55 -1.20 -3.75 -0.60 -3.40 0.45 0.25 2 3.45 2 4.05 0 0.55 -1.05 0.05 -1.40 -0.65z"/>
  <path d="M12.30 3.70 c-0.50 -1.25 0.05 -1.45 0.70 -0.25 0.30 0.60 0.35 1.05 0.05 1.05 -0.25 0 -0.60 -0.35 -0.75 -0.80z"/>
 </g>
 <g fill="#b4bfec">
  <path d="M31 34.80 c0 -0.55 1.50 -1.95 1.80 -1.70 0.10 0.15 -0.25 0.65 -0.80 1.15 -0.55 0.50 -1 0.75 -1 0.55z"/>
  <path d="M20 19.75 c0 -0.45 0.25 -0.75 0.55 -0.65 0.30 0.10 0.55 0.40 0.55 0.65 0 0.25 -0.25 0.55 -0.55 0.65 -0.30 0.10 -0.55 -0.20 -0.55 -0.65z"/>
  <path d="M16.25 19.45 c-0.20 -0.30 0 -0.90 0.45 -1.35 0.75 -0.75 0.80 -0.75 0.80 0.25 0 1.25 -0.75 1.90 -1.25 1.10z"/>
  <path d="M13.50 17.75 c0 -0.40 0.25 -0.75 0.50 -0.75 0.30 0 0.50 0.35 0.50 0.75 0 0.40 -0.20 0.75 -0.50 0.75 -0.25 0 -0.50 -0.35 -0.50 -0.75z"/>
  <path d="M21.85 16.55 c-0.45 -2.25 -0.45 -3.05 0.10 -3.05 0.65 0 0.90 1.50 0.55 3.25 l-0.30 1.50 -0.35 -1.70z"/>
  <path d="M17.60 12 c-0.40 -1.60 -0.35 -2 0.20 -2 0.50 0 0.70 0.60 0.70 2 0 1.10 -0.10 2 -0.20 2 -0.10 0 -0.40 -0.90 -0.70 -2z"/>
  <path d="M10.30 10.85 c-0.25 -0.75 -0.30 -1.55 -0.10 -1.70 0.55 -0.55 0.90 0.25 0.70 1.70 l-0.20 1.40 -0.40 -1.40z"/>
 </g>
 <g fill="#f0eced">
  <path d="M28.75 33 c-0.50 -0.55 -0.65 -1 -0.35 -1 0.35 0 0.60 0.25 0.60 0.55 0 0.35 0.45 0.45 1.05 0.30 0.80 -0.20 0.90 -0.15 0.40 0.45 -0.70 0.90 -0.60 0.90 -1.70 -0.30z"/>
  <path d="M10.25 26.75 c-1.25 -0.55 -1.35 -0.70 -0.45 -0.70 0.60 -0.05 1.35 0.30 1.70 0.70 0.75 0.90 0.70 0.90 -1.25 0z"/>
  <path d="M21.60 14.40 c-0.30 -1.20 -0.65 -2.80 -0.80 -3.65 -0.10 -0.80 -0.45 -2.35 -0.70 -3.35 -0.60 -2.30 0.10 -2.05 1.15 0.35 0.70 1.70 1.60 8.75 1.15 8.75 -0.15 0 -0.50 -0.95 -0.80 -2.10z"/>
  <path d="M14.40 12.35 c-0.25 -0.50 -0.40 -1.40 -0.40 -2 0 -0.60 -0.45 -2.50 -0.95 -4.20 -0.95 -3.10 -0.75 -4.20 0.35 -2 1.05 2.05 1.70 5.10 1.50 7.10 -0.10 1.45 -0.25 1.75 -0.50 1.10z"/>
  <path d="M9.45 7 c-0.75 -2.90 -1.25 -5.35 -1.20 -5.40 0.75 -0.80 3 7.20 2.65 9.40 -0.10 0.80 -0.65 -0.70 -1.45 -4z"/>
  <path d="M17.50 11.05 c-0.25 -0.55 -0.50 -1.40 -0.50 -1.95 0 -0.55 -0.35 -1.95 -0.75 -3.10 -0.40 -1.20 -0.65 -2.25 -0.55 -2.40 0.45 -0.40 2.20 3.70 2.50 6.05 0.40 2.50 0.15 2.95 -0.70 1.40z"/>
 </g>
</svg>