<?xml version="1.0" encoding="utf-8"?>
<!DOCTYPE svg PUBLIC "-//W3C//DTD SVG 1.0//EN" "http://www.w3.org/TR/2001/REC-SVG-20010904/DTD/svg10.dtd">
<svg version="1.0" xmlns="http://www.w3.org/2000/svg" width="40px" height="40px" viewBox="0 0 40 40" preserveAspectRatio="xMidYMid meet">
 <g fill="#0a0509">
  <path d="M1.50 38.60 c0 -0.75 -0.25 -1.65 -0.50 -1.90 -0.30 -0.30 -0.65 -1.70 -0.85 -3.10 -0.25 -2.45 -0.25 -2.60 0.85 -2.60 l1.15 0 -1.05 -1.15 c-0.85 -0.90 -1.10 -1.80 -1.10 -3.75 l0 -2.60 1.70 0 c1.40 0 1.90 0.30 3 2 0.70 1.10 1.30 2.20 1.30 2.50 0 0.25 0.35 0.50 0.75 0.50 0.40 0 2.25 0.95 4.10 2.10 5.25 3.20 8.15 4.40 10.70 4.40 l2.35 0 1.40 -3.25 c0.80 -1.80 1.60 -3.25 1.80 -3.25 0.25 0 0.40 -0.45 0.40 -1 0 -0.75 -0.35 -1 -1.25 -1 -1.10 0 -1.25 -0.20 -1.25 -2 0 -1.95 0.05 -2 1.70 -2 1.40 0 1.75 0.20 1.90 1.10 0.15 1.05 0.20 1.05 0.75 -0.25 l0.65 -1.35 -2.25 0 c-2.25 0 -2.25 0 -2.25 -1.70 0 -2.05 1.40 -3.30 3.80 -3.30 1.35 0 1.60 -0.20 1.90 -1.55 0.65 -3.20 0.50 -3.45 -1.95 -3.45 l-2.25 0 0 -2.60 c0 -4.25 3.05 -7.90 6.65 -7.90 0.85 0 1.35 -0.25 1.35 -0.75 0 -0.50 0.50 -0.75 1.65 -0.75 2.65 0.05 3.35 0.95 3.35 4.45 0 2.90 -0.05 3.05 -1.25 3.05 l-1.25 0 0 5.50 c0 5.15 -0.05 5.50 -1 5.50 -0.80 0 -1 0.35 -1 1.75 0 1 -0.45 2.75 -1.05 3.90 -0.65 1.30 -1.05 2.90 -1 4.25 0.05 1.15 -0.15 2.10 -0.45 2.10 -0.25 0 -0.50 0.55 -0.50 1.25 0 1.05 -0.25 1.25 -1.50 1.25 -1.35 0 -1.65 0.30 -2.50 2.25 -0.70 1.60 -1.25 2.25 -1.95 2.25 -0.70 0 -1.15 0.45 -1.35 1.25 -0.25 1 -0.60 1.25 -1.95 1.25 -0.90 0 -1.75 -0.20 -1.85 -0.50 -0.05 -0.25 -2.75 -0.70 -5.90 -0.95 l-5.75 -0.50 -2.05 -2.30 c-1.10 -1.25 -2.20 -2.25 -2.40 -2.25 -0.25 0 -0.25 1.45 -0.05 3.25 l0.35 3.25 -2.05 0 c-1.90 0 -2.05 -0.10 -2.05 -1.40z m32 -28.35 c0 -0.40 -0.35 -0.75 -0.75 -0.75 -0.40 0 -0.75 0.35 -0.75 0.75 0 0.40 0.35 0.75 0.75 0.75 0.40 0 0.75 -0.35 0.75 -0.75z m3 -3.95 c0 -0.95 -0.20 -1.15 -1 -0.95 -0.55 0.15 -1 0.70 -1 1.20 0 0.60 0.35 0.95 1 0.95 0.70 0 1 -0.35 1 -1.20z"/>
  <path d="M19 24.75 c0 -1.65 0.10 -1.75 1.75 -1.75 1.65 0 1.75 0.10 1.75 1.75 0 1.65 -0.10 1.75 -1.75 1.75 -1.65 0 -1.75 -0.10 -1.75 -1.75z"/>
  <path d="M4.50 11.30 c0 -1.25 -0.20 -1.80 -0.75 -1.80 -0.40 0 -0.75 -0.45 -0.75 -1 0 -0.80 -0.35 -1 -1.50 -1 -1.50 0 -1.50 -0.05 -1.50 -2.60 0 -4.90 0.05 -4.90 4.75 -4.90 2.35 0 4.25 0.20 4.35 0.50 0.10 0.30 2.05 0.65 4.40 0.80 2.35 0.15 4.70 0.45 5.25 0.70 0.55 0.25 2.55 0.90 4.40 1.50 l3.40 1.10 -0.15 1.80 c-0.15 1.80 -0.20 1.85 -2.50 2 -1.70 0.10 -2.40 0.35 -2.40 0.90 0 1 -2.95 0.90 -4.05 -0.10 -1.30 -1.15 -2.45 -0.55 -2.45 1.30 0 1.45 -0.10 1.50 -2.20 1.50 -1.30 0 -2.55 -0.30 -3 -0.75 -1 -1 -1.20 -0.95 -1.40 0.40 -0.10 0.90 -0.50 1.15 -2 1.25 -1.85 0.15 -1.90 0.15 -1.90 -1.60z m3 -4.55 c0 -1.45 0.20 -1.75 1.15 -1.80 1.05 0 1.05 -0.05 0.10 -0.40 -0.55 -0.25 -1.40 -0.25 -1.85 0 -0.45 0.25 -1.30 0.45 -1.85 0.45 -0.60 0 -1.05 0.25 -1.05 0.50 0 0.30 0.55 0.50 1.25 0.50 1 0 1.25 0.25 1.25 1.25 0 0.70 0.25 1.25 0.50 1.25 0.30 0 0.50 -0.80 0.50 -1.75z"/>
 </g>
 <g fill="#11101f">
  <path d="M20 38.05 c0 -0.25 0.40 -0.75 0.90 -1 0.80 -0.50 0.80 -0.50 0 -0.55 -0.50 0 -0.90 -0.35 -0.90 -0.75 0 -0.50 0.55 -0.75 1.75 -0.75 1.85 0 2.50 1.25 0.90 1.65 -0.80 0.20 -0.80 0.25 0 0.30 0.50 0 0.85 0.35 0.75 0.70 -0.25 0.75 -3.40 1.15 -3.40 0.40z"/>
  <path d="M10.50 36.75 c0 -0.50 -0.50 -0.75 -1.70 -0.75 -1.85 0 -4.15 -1.50 -4.80 -3.20 -0.40 -0.95 -0.45 -0.90 -0.45 0.40 -0.05 1.20 -0.15 1.35 -0.80 0.80 -0.60 -0.50 -0.75 -0.50 -0.75 0.20 0 0.45 -0.40 0.80 -1 0.80 -0.95 0 -1 -0.35 -1 -7.95 0 -4.40 0.25 -9.10 0.60 -10.50 0.55 -2.45 0.65 -2.55 2.30 -2.55 l1.75 0 -0.35 2.40 c-0.80 5.35 -0.90 8.10 -0.40 8.10 0.30 0 0.60 0.75 0.70 1.65 0.10 1.35 0.40 1.65 1.55 1.75 0.75 0.10 1.35 0.40 1.35 0.65 0 0.25 0.35 0.45 0.75 0.45 0.40 0 0.75 0.35 0.75 0.75 0 0.45 0.45 0.75 1.25 0.75 0.80 0 1.25 0.30 1.25 0.75 0 0.45 0.45 0.75 1.20 0.75 0.70 0 1.55 0.30 1.90 0.65 0.35 0.40 1.30 0.85 2.05 1.05 1.15 0.25 1.35 0.60 1.35 2.05 l0 1.75 -3.75 0 c-3 0 -3.75 -0.15 -3.75 -0.75z m5.90 -0.05 c1 -0.30 0.85 -0.45 -1.25 -1.45 -1.30 -0.60 -3.95 -2.05 -5.85 -3.20 -1.85 -1.15 -3.50 -2 -3.60 -1.90 -0.40 0.40 0.40 1.85 1 1.85 0.30 0 1.40 1 2.45 2.20 2.05 2.45 4.40 3.25 7.25 2.50z m-11.90 -7.45 c0 -0.15 -0.60 -1.20 -1.35 -2.35 -1.25 -1.90 -1.40 -2 -1.55 -0.95 -0.10 0.70 0.30 1.65 0.95 2.35 1.05 1.10 1.95 1.55 1.95 0.95z"/>
  <path d="M24 35.50 c0 -2.35 1.50 -5 2.85 -5 0.85 0 1.05 0.20 0.80 0.90 -0.25 0.70 -0.15 0.65 0.50 -0.15 0.80 -0.95 0.80 -0.95 0.85 0.60 0 0.90 -0.40 2.40 -0.85 3.40 -0.70 1.50 -1.10 1.75 -2.50 1.75 -1.50 0 -1.65 -0.15 -1.65 -1.50z"/>
  <path d="M21.90 29.65 c-2 -0.15 -2.40 -0.40 -2.40 -1.20 0 -0.60 -0.35 -0.95 -1 -0.95 -0.80 0 -1 -0.35 -1 -1.65 0 -2.20 0.75 -2.85 3.35 -2.85 2.05 0 2.15 0.05 2.15 1.50 0 1.25 0.20 1.50 1.25 1.50 1.15 0 1.25 -0.20 1.30 -2.10 0 -1.20 0.05 -3.05 0.10 -4.15 l0.10 -2 2.30 0.05 2.30 0 -0.90 -1.50 c-0.55 -0.85 -0.95 -2.30 -0.95 -3.15 0 -1.15 -0.25 -1.65 -0.75 -1.65 -0.55 0 -0.75 -0.60 -0.75 -2.35 l0 -2.40 -4.65 -1.50 c-2.50 -0.80 -4.80 -1.65 -5.10 -1.85 -0.25 -0.20 -1.45 -0.40 -2.75 -0.35 -2.60 0 -2.20 0.25 3.25 1.95 4.05 1.25 5.75 2 5.75 2.60 0 0.20 -0.35 0.40 -0.75 0.40 -0.40 0 -0.75 0.45 -0.75 1 0 0.80 -0.35 1 -1.75 1 -1.15 0 -1.75 -0.25 -1.75 -0.65 0 -0.65 -1.95 -1.85 -2.95 -1.85 -0.25 0 -0.30 1 -0.15 2.25 l0.25 2.25 -1.85 0 c-1.25 0 -1.80 -0.20 -1.80 -0.75 0 -0.40 -0.45 -0.75 -1 -0.75 -0.55 0 -1 -0.35 -1 -0.75 0 -0.95 0.35 -0.95 1.30 0 0.45 0.40 1.15 0.75 1.60 0.75 0.65 -0.05 0.45 -0.35 -0.65 -1.25 -0.80 -0.70 -1.65 -1.25 -1.80 -1.25 -0.20 0 -0.85 1.35 -1.45 3 -1.10 2.90 -1.20 3 -2.85 3 -1.30 0 -1.80 -0.25 -2 -1 -0.15 -0.60 -0.70 -1 -1.25 -1 -0.95 0 -1 -0.25 -0.80 -2.50 0.25 -2.35 0.20 -2.50 -0.90 -2.50 -1.05 0 -1.20 -0.25 -1.20 -1.75 0 -0.95 0.25 -1.75 0.50 -1.75 0.30 0 0.50 -0.45 0.50 -0.95 0 -2 0.55 -2.55 2.55 -2.55 1.25 0 1.95 0.25 1.95 0.65 0 0.85 -1.95 2.45 -2.65 2.15 -0.45 -0.15 -0.40 -0.25 0.05 -0.25 0.80 -0.05 0.80 -1.05 -0.05 -1.05 -0.35 0 -0.90 0.75 -1.25 1.65 -0.85 2.40 -0.70 3.35 0.30 1.75 0.75 -1.30 1.90 -1.70 3.90 -1.45 0.35 0.05 1.05 -0.70 1.65 -1.70 0.90 -1.60 1.20 -1.75 3.30 -1.75 1.25 0 2.25 0.25 2.25 0.50 0 0.30 0.90 0.50 2 0.50 1.10 0 2 0.20 2 0.45 0 0.25 0.95 0.55 2.10 0.75 1.15 0.20 2.30 0.60 2.50 0.95 0.25 0.40 0.40 0.20 0.40 -0.50 0 -1 0.25 -1.15 1.90 -1.15 2.35 0 3.10 0.70 3.15 2.95 0 1 0.15 1.50 0.30 1.20 0.10 -0.35 0.80 -0.65 1.45 -0.65 0.65 0 1.20 -0.20 1.20 -0.50 0 -0.25 0.35 -0.50 0.75 -0.50 0.45 0 0.75 -0.45 0.75 -1.20 0 -1.25 1.05 -1.80 3.65 -1.80 1.25 0 1.35 0.15 1.35 2.25 0 1.25 -0.20 2.25 -0.50 2.25 -0.25 0 -0.50 0.55 -0.50 1.25 0 1.65 -1.70 1.70 -3 0.15 -1.05 -1.30 -0.60 -2.15 1.50 -3 0.70 -0.30 1 -0.60 0.60 -0.75 -0.95 -0.35 -3.75 1.50 -4.95 3.35 -1.50 2.15 -1.45 2.95 0 1.60 1.35 -1.30 1.95 -1.40 1.55 -0.35 -0.20 0.45 0 0.75 0.50 0.75 0.45 0 0.80 0.25 0.80 0.50 0 0.30 0.40 0.50 0.95 0.50 0.75 0 0.95 0.55 1.25 3.60 0.30 3.55 0.70 4.75 1.15 3.55 0.45 -1.30 1.15 -0.60 1.15 1.10 0 1.55 -0.15 1.75 -1.25 1.75 -1.05 0 -1.25 0.25 -1.25 1.50 0 1 -0.25 1.50 -0.75 1.50 -0.60 0 -0.65 -0.20 -0.30 -0.90 0.75 -1.40 0.55 -4.95 -0.25 -4.95 -0.40 0 -0.70 0.30 -0.70 0.70 0 0.35 -0.20 0.65 -0.50 0.65 -0.25 0 -0.50 0.25 -0.50 0.50 0 0.30 0.35 0.50 0.75 0.50 1 0 0.95 1.55 -0.05 2.80 -0.55 0.65 -0.85 0.75 -1 0.35 -0.15 -0.35 -0.60 -0.65 -1 -0.65 -0.50 0 -0.70 0.60 -0.70 1.90 0 1.05 -0.20 2.10 -0.45 2.40 -0.25 0.25 -0.55 1.25 -0.65 2.20 -0.15 1.65 -0.25 1.75 -2.15 1.80 -1.10 0 -3.05 -0.05 -4.35 -0.15z m8.10 -10.15 c1.20 -0.95 1.20 -1 0.20 -1 -0.60 0 -1.60 0.45 -2.25 1 -1.15 0.90 -1.15 0.95 -0.20 0.95 0.55 0.05 1.55 -0.40 2.25 -0.95z m3.55 -5.55 l-0.45 -1.70 -0.05 1.55 c-0.05 0.85 0.10 1.70 0.30 1.85 0.60 0.65 0.70 -0.05 0.20 -1.70z m-13.55 -6.10 c0 -1.10 -2.35 -1.85 -5.75 -1.85 -3.35 0 -4.45 0.70 -1.75 1.10 0.85 0.15 1.50 0.05 1.50 -0.15 0 -0.60 4.20 0.10 5 0.85 0.90 0.85 1 0.85 1 0.05z"/>
 </g>
 <g fill="#320709">
  <path d="M1.55 39.30 c-0.30 -0.40 -0.70 -1.85 -0.90 -3.20 l-0.30 -2.55 1.85 -0.30 c1 -0.20 2.20 -0.25 2.70 -0.10 2.65 0.85 4.65 1.75 5.45 2.45 1.15 0.95 4.15 1.55 5.95 1.10 l1.35 -0.35 -1.20 -0.70 c-1.10 -0.65 -0.85 -0.70 2.50 -0.45 4.60 0.30 5.55 -0.25 7.10 -4.10 0.65 -1.55 1.85 -3.90 2.75 -5.25 0.90 -1.30 2.05 -3.25 2.50 -4.35 0.95 -2.10 2 -2.80 1.40 -0.85 -0.15 0.60 -1.10 2.60 -2 4.45 -0.95 1.85 -1.70 3.55 -1.70 3.75 0 0.70 3.90 -5.65 4.55 -7.45 0.35 -1.05 1 -1.90 1.35 -1.90 0.60 0 0.70 0.65 0.45 3.75 l-0.35 3.75 1.25 0 1.25 0 -0.80 1.90 c-0.45 1 -1.25 3 -1.80 4.35 -1.20 3.05 -1.80 3.75 -2.35 2.80 -0.70 -1.10 -1.55 -0.15 -1.55 1.70 0 1.05 -0.30 1.75 -0.80 1.95 -1.25 0.50 -10.70 0.35 -10.70 -0.15 0 -0.45 -2.25 -0.80 -8.35 -1.25 -2.85 -0.20 -3.15 -0.10 -3.15 0.75 0 0.85 -0.40 0.95 -2.95 0.95 -1.90 0 -3.15 -0.25 -3.50 -0.70z m22.45 -2.60 c0 -0.10 -1.20 -0.20 -2.60 -0.20 -1.45 0 -2.40 0.20 -2.05 0.40 0.60 0.35 4.65 0.20 4.65 -0.20z m3.25 -3.50 c0.70 -1.55 1.25 -2.95 1.25 -3.15 -0.05 -0.40 -2.95 5.05 -3 5.60 -0.05 1 0.65 0.05 1.75 -2.45z m-23.75 1.85 c0 -0.25 -0.35 -0.70 -0.75 -1.05 -0.60 -0.50 -0.75 -0.50 -0.75 0.10 0 0.40 0.15 0.90 0.35 1.05 0.45 0.50 1.15 0.45 1.15 -0.10z"/>
  <path d="M31.50 38.75 c0 -1.75 1.70 -1.75 1.80 0 0.10 0.90 -0.15 1.25 -0.85 1.25 -0.70 0 -0.95 -0.35 -0.95 -1.25z"/>
  <path d="M37 21.75 l0 -3.75 1.50 0 c1.45 0 1.50 0.05 1.50 2.45 0 1.95 -0.25 2.80 -1.20 3.75 -0.65 0.75 -1.30 1.30 -1.50 1.30 -0.15 0 -0.30 -1.70 -0.30 -3.75z"/>
  <path d="M37.50 11.10 c0 -0.50 -0.20 -1.10 -0.40 -1.35 -0.45 -0.50 -1.30 -3.35 -1.80 -5.80 -0.25 -1.10 -0.50 -1.25 -1.55 -1.05 -1.10 0.20 -1.25 0.05 -1.25 -1.35 0 -1.55 0 -1.55 2.75 -1.55 1.50 0 2.75 0.25 2.75 0.50 0 0.30 0.45 0.50 1 0.50 0.95 0 1 0.35 1 5.50 l0 5.50 -1.25 0 c-0.85 0 -1.25 -0.25 -1.25 -0.90z m0.20 -8.80 c-1.05 -0.75 -1.50 -0.70 -0.95 0.15 0.15 0.30 0.70 0.55 1.15 0.55 0.65 0 0.65 -0.10 -0.20 -0.70z"/>
  <path d="M29 10.10 c0 -1.80 0.45 -2.15 2.55 -2.20 1.05 -0.05 1.40 -0.25 1.25 -0.75 -0.20 -0.45 0.20 -0.65 1.30 -0.65 1.50 0 1.55 0 1.20 2.10 -0.20 1.15 -0.40 2.15 -0.45 2.25 -0.10 0.05 -1.45 0.25 -3 0.45 l-2.85 0.35 0 -1.55z"/>
  <path d="M13.70 10.55 c0.20 -0.25 0.10 -0.55 -0.15 -0.65 -0.25 -0.05 -0.65 -0.80 -0.85 -1.60 -0.25 -1.10 -0.20 -1.35 0.30 -1.05 0.35 0.20 0.75 0.15 0.95 -0.10 0.15 -0.25 1.25 -0.40 2.45 -0.25 1.65 0.15 2.10 0.40 2.10 1.15 0 0.50 -0.35 0.95 -0.75 0.95 -0.40 0 -0.75 0.45 -0.75 1 0 0.80 -0.35 1 -1.80 1 -0.95 0 -1.65 -0.20 -1.50 -0.45z"/>
  <path d="M0 4 l0 -4 1.45 0 c1.65 0 2.40 0.70 1.40 1.35 -0.75 0.50 -1.85 2.90 -1.85 4.05 0.05 0.75 0.10 0.75 0.75 -0.10 0.70 -0.95 0.75 -0.90 0.75 0.85 0 1.65 -0.15 1.85 -1.25 1.85 -1.25 0 -1.25 -0.05 -1.25 -4z"/>
  <path d="M12.70 5.40 c-0.30 -0.50 2.55 -0.40 4.55 0.10 1.15 0.30 0.85 0.40 -1.40 0.35 -1.65 -0.05 -3.05 -0.25 -3.15 -0.45z"/>
  <path d="M6.70 2.05 c0.85 -0.95 0.85 -1.05 0.15 -1.05 -0.50 0 -0.85 -0.20 -0.85 -0.50 0 -0.25 0.80 -0.50 1.80 -0.50 1.65 0 1.75 0.10 1.60 1.40 -0.15 1.15 -0.40 1.35 -1.90 1.50 -1.70 0.20 -1.70 0.20 -0.80 -0.85z"/>
 </g>
 <g fill="#4b0000">
  <path d="M2.25 37.95 c-0.20 -1.10 -0.20 -2.15 -0.05 -2.30 0.15 -0.20 0.30 0.15 0.30 0.65 0 0.55 0.35 1.45 0.75 2 0.70 0.90 0.70 0.85 0.45 -0.65 -0.30 -1.55 -0.25 -1.65 1.10 -1.65 l1.45 -0.05 -1.25 -0.75 c-1.20 -0.70 -1.10 -0.75 1.75 -0.50 2.20 0.20 3.20 0.50 3.85 1.30 0.45 0.55 1.05 1 1.35 1 0.30 0 0.55 0.35 0.55 0.75 0 0.50 -0.50 0.75 -1.70 0.75 -1.05 0 -1.80 0.30 -2 0.75 -0.20 0.55 -1.05 0.75 -3.25 0.75 l-2.95 0 -0.35 -2.05z m4.25 0.10 c0 -0.25 -0.35 -0.60 -0.80 -0.75 -1.20 -0.45 -1.40 -0.35 -0.70 0.45 0.70 0.85 1.50 1 1.50 0.30z m2.90 -1.90 c-0.50 -0.10 -1.40 -0.10 -2 0 -0.65 0.10 -0.25 0.20 0.85 0.20 1.10 0.05 1.60 -0.05 1.15 -0.20z"/>
  <path d="M18.50 39.50 c0 -0.25 -1.25 -0.50 -2.75 -0.50 -2.45 0 -2.75 -0.10 -2.75 -1 0 -1 0.25 -1 4.90 -0.85 4.25 0.15 4.85 0.30 4.70 1.05 -0.15 0.75 0 0.80 0.90 0.30 0.95 -0.50 1 -0.50 0.40 0.45 -0.70 1.20 -1.65 1.35 -2.10 0.45 -0.25 -0.50 -0.35 -0.50 -0.60 0 -0.35 0.70 -2.70 0.80 -2.70 0.10z"/>
  <path d="M24.25 39.50 c0.15 -0.25 0.60 -0.50 1 -0.50 0.40 0 1.05 -0.50 1.45 -1.10 0.45 -0.60 0.95 -0.95 1.10 -0.75 0.20 0.20 0.05 0.65 -0.30 1.10 -0.75 0.90 -0.05 0.95 1.10 0.05 0.50 -0.35 0.75 -0.80 0.55 -0.95 -0.15 -0.20 0.10 -1.40 0.65 -2.70 0.50 -1.35 0.85 -2.55 0.80 -2.75 -0.05 -0.25 0.10 -0.40 0.40 -0.40 0.25 0 0.30 -0.35 0.15 -0.85 -0.25 -0.60 -0.15 -0.70 0.35 -0.40 0.50 0.30 0.60 0.20 0.35 -0.40 -0.15 -0.50 -0.10 -0.85 0.15 -0.85 0.45 0 0.60 -0.55 2 -6.50 0.90 -4 2 -6.50 2.80 -6.50 0.50 0 0.70 -0.75 0.70 -3 0 -3 0.20 -3.30 1.70 -2.70 1.15 0.45 1.15 8.60 0.05 9 -0.55 0.25 -0.75 0.95 -0.70 2.65 0.05 1.25 -0.15 2.75 -0.45 3.30 -1.40 2.60 -4.50 10.75 -4.85 12.65 l-0.35 2.10 -4.45 0 c-2.90 0 -4.40 -0.20 -4.20 -0.50z"/>
  <path d="M17 36 c-0.50 -0.35 0.35 -0.50 2.90 -0.50 2.05 0 3.60 0.20 3.60 0.50 0 0.65 -5.50 0.65 -6.50 0z"/>
  <path d="M25.15 34.65 c0.50 -2.65 1.75 -5.15 2.60 -5.15 0.60 0 0.45 0.60 -0.80 3.15 -1.90 3.75 -2.20 4.10 -1.80 2z"/>
  <path d="M27.15 34.20 c0.10 -0.60 0.50 -1.60 0.95 -2.25 l0.85 -1.20 -0.10 1.35 c-0.05 0.75 -0.15 1.25 -0.30 1.10 -0.15 -0.10 -0.55 0.30 -0.90 0.90 -0.60 1.10 -0.65 1.10 -0.50 0.10z"/>
  <path d="M39.30 21.60 c-0.20 -0.65 -0.25 -1.30 -0.10 -1.45 0.50 -0.55 0.90 0.20 0.70 1.45 l-0.20 1.15 -0.40 -1.15z"/>
  <path d="M15 10.50 c-0.40 -0.25 -1.15 -0.55 -1.60 -0.70 -0.55 -0.15 -0.90 -0.75 -0.90 -1.50 0 -0.90 0.20 -1.20 0.70 -1 0.40 0.15 0.85 0.05 1.05 -0.25 0.20 -0.40 0.60 -0.40 1.25 -0.05 0.50 0.25 1.30 0.35 1.70 0.20 1.20 -0.45 2.30 0.70 2.30 2.35 0 1.35 -0.15 1.45 -1.85 1.40 -1.05 0 -2.25 -0.20 -2.65 -0.45z"/>
  <path d="M27.50 8.80 c0 -0.95 0.25 -1.90 0.55 -2.05 0.75 -0.50 0.85 -0.20 0.55 1.90 -0.25 2.35 -1.10 2.45 -1.10 0.15z"/>
  <path d="M29 9.60 c0 -0.90 1.45 -2.60 2.15 -2.60 0.20 0 0.35 0.70 0.35 1.55 0 0.80 -0.20 1.40 -0.45 1.20 -0.25 -0.15 -0.60 -0.05 -0.80 0.25 -0.50 0.80 -1.25 0.55 -1.25 -0.40z"/>
  <path d="M35.35 3.10 c-1.70 -1.05 -1.70 -1.45 -0.10 -1.45 0.75 0 1.35 0.35 1.55 0.95 0.40 1.35 0.15 1.45 -1.45 0.50z"/>
  <path d="M0 1.75 c0 -1.55 0.15 -1.75 1.25 -1.75 1.25 0 1.75 1.15 0.75 1.75 -0.25 0.15 -0.50 0.05 -0.50 -0.30 0 -0.35 -0.15 -0.45 -0.30 -0.30 -0.20 0.20 -0.10 0.65 0.20 1 0.65 0.75 0.30 1.35 -0.75 1.35 -0.40 0 -0.65 -0.60 -0.65 -1.75z"/>
  <path d="M38 2.25 c-0.70 -0.40 -1.65 -0.90 -2.10 -1.05 -1.70 -0.60 -0.90 -1.20 1.60 -1.20 2.45 0 2.50 0.05 2.50 1.50 0 1.70 -0.25 1.80 -2 0.75z"/>
 </g>
 <g fill="#251923">
  <path d="M1.50 38.50 c0 -1.85 0.40 -1.90 1.90 -0.10 1 1.20 1.10 1.20 0.60 0.20 -0.60 -1.25 -0.40 -1.90 0.45 -1.35 0.30 0.15 0.55 0.85 0.55 1.55 0 1.05 -0.25 1.20 -1.75 1.20 -1.60 0 -1.75 -0.10 -1.75 -1.50z"/>
  <path d="M21.50 38.35 c0 -0.95 0.80 -1.55 1.20 -0.90 0.15 0.25 -0.05 0.70 -0.45 1.05 -0.60 0.50 -0.75 0.50 -0.75 -0.15z"/>
  <path d="M8 37.50 c-0.55 -0.35 0 -0.50 1.90 -0.50 1.40 0 2.60 0.25 2.60 0.50 0 0.65 -3.50 0.65 -4.50 0z"/>
  <path d="M17.15 37.65 c0.75 -0.10 1.85 -0.10 2.50 0 0.60 0.10 0 0.20 -1.40 0.20 -1.35 0 -1.90 -0.10 -1.10 -0.20z"/>
  <path d="M23.35 36.60 c-1.40 -0.30 -0.80 -1.85 0.80 -2 1.15 -0.15 1.35 -0.40 1.35 -1.65 0 -1.05 0.25 -1.45 0.90 -1.45 0.55 0 0.90 0.35 0.90 0.95 0 0.55 -0.15 0.90 -0.35 0.75 -0.20 -0.10 -0.60 0.50 -0.95 1.30 -0.75 1.80 -1.45 2.40 -2.65 2.10z"/>
  <path d="M8 36.05 c-1.25 -0.20 -3.15 -0.85 -4.20 -1.45 l-1.90 -1.15 0.20 1.30 c0.15 0.70 0.05 1.25 -0.15 1.25 -0.50 0 -0.60 -1.55 -0.15 -2.70 0.40 -1 2.90 -1.05 3.90 -0.05 0.40 0.40 1.20 0.75 1.75 0.75 0.55 0 1.65 0.55 2.40 1.25 0.75 0.65 1.20 1.20 0.90 1.15 -0.25 0 -1.50 -0.20 -2.75 -0.35z"/>
  <path d="M16.90 35.95 c-1.55 -0.85 -1 -1.45 1.35 -1.45 1.90 0 2.25 0.15 2.25 1 0 0.75 -0.35 1 -1.35 1 -0.80 0 -1.80 -0.25 -2.25 -0.55z"/>
  <path d="M30.65 32.50 c0.05 -0.55 0.25 -1 0.45 -1 0.20 0 0.20 -0.35 0.05 -0.85 -0.25 -0.60 -0.15 -0.70 0.35 -0.40 0.40 0.25 0.55 0.15 0.40 -0.30 -0.15 -0.40 0.05 -0.95 0.40 -1.30 0.35 -0.35 0.75 -1.60 0.95 -2.75 0.50 -3.30 0.75 -3.90 1.60 -3.90 0.60 0 0.70 0.35 0.40 1.65 -0.50 2.40 -0.50 2.45 -1.45 4.60 -0.50 1.10 -1.25 2.75 -1.60 3.65 -0.75 1.80 -1.70 2.15 -1.55 0.60z"/>
  <path d="M3 30.25 c0 -0.40 0.25 -0.75 0.50 -0.75 0.30 0 0.50 0.20 0.50 0.50 0 0.25 0.35 0.35 0.75 0.20 0.40 -0.20 0.75 -0.05 0.75 0.25 0 0.30 -0.55 0.55 -1.25 0.55 -0.80 0 -1.25 -0.30 -1.25 -0.75z"/>
  <path d="M27 29.25 c0 -1.20 0.25 -1.75 0.70 -1.75 0.40 0 0.80 -0.50 0.90 -1.10 0.10 -0.65 0.55 -1.20 1.05 -1.30 0.75 -0.15 0.90 0 0.60 0.90 -0.25 0.85 -0.20 1 0.25 0.75 0.45 -0.25 0.55 -0.20 0.30 0.20 -0.20 0.30 -0.55 0.45 -0.75 0.35 -0.20 -0.15 -0.75 0.65 -1.25 1.70 -1.10 2.45 -1.80 2.55 -1.80 0.25z"/>
  <path d="M5.50 29.70 c-0.45 -0.15 -1.05 -0.65 -1.40 -1.20 -0.55 -0.90 -0.50 -1 0.90 -1 1.25 0 1.50 0.20 1.50 1.25 0 0.70 -0.05 1.20 -0.10 1.20 -0.10 -0.05 -0.50 -0.15 -0.90 -0.25z"/>
  <path d="M24.50 24.75 c0 -1.70 0.05 -1.75 1.90 -1.75 1.50 0.05 1.70 0.15 1 0.55 -0.50 0.25 -0.90 0.75 -0.90 1.05 0 0.35 0.25 0.30 0.75 -0.10 0.65 -0.55 0.75 -0.40 0.75 0.70 0 1.15 -0.20 1.30 -1.75 1.30 -1.65 0 -1.75 -0.10 -1.75 -1.75z"/>
  <path d="M31.70 18.25 c-0.40 -2.20 0.10 -2.85 0.80 -1.05 0.65 1.70 0.65 2.80 0 2.80 -0.25 0 -0.60 -0.80 -0.80 -1.75z"/>
  <path d="M33.90 19.15 c-0.25 -1.40 0.15 -4.15 0.65 -4.15 0.25 0 0.45 0.45 0.45 1 0 0.55 0.25 1 0.50 1 0.30 0 0.50 -0.35 0.50 -0.75 0 -0.40 0.35 -0.75 0.75 -0.75 0.95 0 0.85 2.90 -0.05 3.90 -0.90 0.90 -2.60 0.75 -2.80 -0.25z"/>
  <path d="M32.25 16 c-0.75 -0.85 -0.80 -1 -0.15 -1 0.45 0 0.90 0.45 1.05 1 0.15 0.55 0.20 1 0.15 1 -0.10 0 -0.55 -0.45 -1.05 -1z"/>
  <path d="M31.50 10.75 c0 -2.65 0.15 -3.15 0.75 -2.95 0.85 0.35 1 -0.35 0.20 -1.15 -0.80 -0.80 0.30 -2.65 1.55 -2.65 0.55 0 1 -0.30 1 -0.65 0 -0.45 -0.50 -0.60 -1.50 -0.45 -1.40 0.20 -1.50 0.10 -1.50 -1.35 0 -1.35 0.20 -1.55 1.30 -1.55 0.95 0 1.25 0.20 1 0.75 -0.25 0.70 0.30 1 1.40 0.80 0.65 -0.15 1.30 1 1.30 2.35 0 0.70 0.30 1.10 0.90 1.10 0.70 0 0.75 0.10 0.10 0.50 -0.65 0.40 -0.60 0.50 0.15 0.50 0.95 0 1.15 -1.50 0.30 -2.35 -0.45 -0.45 -0.35 -0.50 0.50 -0.30 0.85 0.20 1.05 0.65 1.05 2.20 0 1.10 -0.20 1.95 -0.50 1.95 -0.25 0 -0.50 -0.20 -0.50 -0.50 0 -0.25 -0.20 -0.50 -0.50 -0.50 -0.85 0 -0.55 1.40 0.40 1.95 0.75 0.45 0.75 0.50 -0.25 0.55 -0.70 0 -1.15 0.30 -1.15 0.75 0 0.40 -0.35 0.75 -0.75 0.75 -0.40 0 -0.75 -0.35 -0.75 -0.75 0 -0.40 -0.20 -0.75 -0.50 -0.75 -0.25 0 -0.50 1.15 -0.50 2.50 0 2.95 -1.05 3.45 -1.90 0.90 l-0.55 -1.65 0.15 1.65 c0.10 1.05 -0.10 1.60 -0.55 1.60 -0.45 0 -0.65 -0.90 -0.65 -3.25z"/>
  <path d="M13.50 10.50 c0.50 -0.30 0.55 -0.50 0.15 -0.50 -0.35 0 -0.65 -0.55 -0.65 -1.25 0 -1.50 0.30 -1.55 1.40 -0.35 0.50 0.45 0.70 0.65 0.50 0.40 -0.25 -0.30 -0.40 -0.95 -0.40 -1.55 0.05 -0.95 0.05 -0.95 1 0.20 0.55 0.65 1 1.70 1 2.35 0 1.05 -0.25 1.20 -1.85 1.20 -1.40 0 -1.70 -0.15 -1.15 -0.50z"/>
  <path d="M0 8.10 c0 -1.20 3 -4.60 4.05 -4.60 0.40 0 1.50 -0.55 2.45 -1.25 1.10 -0.80 1.40 -1.25 0.85 -1.25 -1.10 0 -3.35 1.05 -3.35 1.60 0 0.20 -0.25 0.40 -0.55 0.40 -0.40 0 -0.35 -0.25 0.05 -0.75 0.85 -1.05 0.35 -1.45 -0.95 -0.75 -0.80 0.40 -1.05 0.40 -1.05 -0.05 0 -0.30 -0.35 -0.45 -0.75 -0.25 -0.45 0.15 -0.75 0 -0.75 -0.45 0 -0.60 1 -0.75 5.50 -0.75 3.05 0 5.50 0.15 5.50 0.40 -0.05 0.20 -0.65 1.05 -1.40 1.90 -1.05 1.25 -1.90 1.65 -4 1.95 -2.70 0.35 -2.75 0.40 -3.20 3.50 -0.20 1.40 -2.40 1.70 -2.40 0.35z"/>
  <path d="M17 8 c0 -0.55 0.30 -1 0.65 -1 0.40 0 1.10 0.45 1.60 1 0.90 1 0.85 1 -0.65 1 -1.25 0 -1.60 -0.20 -1.60 -1z"/>
  <path d="M18.95 6.50 c-0.45 -0.25 -1.95 -0.50 -3.35 -0.60 -1.45 -0.10 -2.60 -0.35 -2.60 -0.60 0 -0.55 6.10 0.10 6.70 0.75 0.70 0.65 0.20 0.95 -0.75 0.45z"/>
  <path d="M0 3.75 c0 -1.65 0.80 -2.30 1.65 -1.45 0.30 0.35 -0.95 3.20 -1.40 3.20 -0.15 0 -0.25 -0.80 -0.25 -1.75z"/>
  <path d="M10.50 3.80 c0 -1.15 1.10 -3.80 1.55 -3.80 0.25 0 0.45 0.25 0.45 0.50 0 0.30 0.35 0.50 0.75 0.50 1.10 0 0.95 2 -0.10 2 -0.80 0.05 -0.80 0.10 0.05 0.75 0.95 0.70 0.90 0.75 -0.85 0.75 -1.20 0 -1.85 -0.25 -1.85 -0.70z"/>
  <path d="M38.60 2.40 c-0.35 -0.35 -0.60 -0.45 -0.60 -0.25 0 0.20 -0.45 -0.10 -1 -0.65 -0.60 -0.60 -1.25 -0.90 -1.50 -0.75 -0.30 0.20 -0.50 0.10 -0.50 -0.20 0 -0.40 1.05 -0.45 3.90 -0.10 0.35 0 0.50 0.30 0.35 0.55 -0.15 0.30 -0.05 0.50 0.20 0.50 0.30 0 0.55 0.35 0.55 0.75 0 0.90 -0.60 0.95 -1.40 0.15z"/>
 </g>
 <g fill="#221f32">
  <path d="M23.50 35.25 c0 -1 0.25 -1.25 1.25 -1.25 1.45 0 1.60 0.60 0.45 1.70 -1.10 1.15 -1.70 1 -1.70 -0.45z"/>
  <path d="M6.10 35.65 c-0.65 -0.15 -1.30 -0.55 -1.45 -0.95 -0.15 -0.40 -0.70 -0.70 -1.20 -0.70 -0.55 0 -1.20 -0.50 -1.50 -1.10 -0.45 -1.10 -0.45 -1.10 -0.30 -0.10 0.20 0.85 0 1 -0.70 0.85 -0.80 -0.20 -0.95 -0.75 -0.95 -2.90 0 -3.55 0.55 -7.25 1.05 -7.25 0.25 0 0.45 0.90 0.45 2.05 0 1.55 0.30 2.35 1.40 3.40 0.75 0.75 1.65 1.30 2 1.15 0.35 -0.10 0.60 0.25 0.60 0.80 0 0.55 0.60 1.50 1.40 2.10 0.75 0.55 1.90 1.50 2.60 2 l1.25 0.95 -1.75 -0.05 c-0.95 0 -2.25 -0.15 -2.90 -0.25z"/>
  <path d="M14.15 34.70 c-2.15 -1.05 -2.10 -1.70 0.10 -1.70 1.55 0 1.75 0.15 1.75 1.25 0 0.70 -0.05 1.25 -0.10 1.25 -0.10 0 -0.90 -0.40 -1.75 -0.80z"/>
  <path d="M6.20 30 c-2.10 -1.45 -4.20 -4.40 -4.20 -5.80 0 -0.40 0.45 -0.70 1 -0.70 0.75 0 1 0.35 1 1.25 0 0.80 0.30 1.25 0.75 1.25 0.45 0 0.75 0.45 0.75 1.25 0 1.05 0.25 1.25 1.50 1.25 1.35 0 1.50 0.15 1.50 1.50 0 0.85 -0.05 1.50 -0.10 1.50 -0.10 -0.05 -1.10 -0.70 -2.20 -1.50z"/>
  <path d="M19.65 29.65 c-0.35 -0.10 -0.65 -0.65 -0.65 -1.20 0 -0.55 -0.35 -1.10 -0.75 -1.25 -0.45 -0.20 -0.75 -0.95 -0.75 -2 0 -1.45 0.15 -1.70 1.20 -1.70 0.65 0 1.30 -0.25 1.40 -0.50 0.10 -0.30 1.35 -0.65 2.80 -0.85 2.45 -0.25 2.60 -0.35 2.60 -1.70 0 -1.10 0.25 -1.45 0.95 -1.45 0.60 0 0.90 0.35 0.85 0.90 0 0.45 0.25 0.80 0.60 0.70 1.80 -0.35 3.10 4.55 1.35 5.20 -0.45 0.20 -0.75 0.95 -0.75 1.75 0 0.95 -0.25 1.45 -0.75 1.45 -0.40 0 -0.75 0.25 -0.75 0.50 0 0.50 -6.20 0.65 -7.35 0.15z m4.25 -2 c-0.50 -0.10 -1.40 -0.10 -2 0 -0.65 0.10 -0.25 0.20 0.85 0.20 1.10 0.05 1.60 -0.05 1.15 -0.20z m-3.20 -2.40 c0.80 -0.60 0.85 -0.75 0.20 -0.75 -0.40 0 -1.05 0.35 -1.40 0.75 -0.80 0.95 -0.05 0.95 1.20 0z m6.80 -1 c0.35 -0.40 0.40 -0.75 0.10 -0.75 -0.25 0 -0.75 0.35 -1.10 0.75 -0.35 0.40 -0.40 0.75 -0.10 0.75 0.25 0 0.75 -0.35 1.10 -0.75z"/>
  <path d="M0 19.65 c0 -0.80 0.25 -2.25 0.55 -3.35 0.30 -1.05 0.70 -2.95 0.90 -4.25 0.25 -1.25 0.60 -2.70 0.80 -3.15 0.30 -0.75 0.10 -0.90 -0.95 -0.90 l-1.35 0 1.50 -2.20 c1.55 -2.25 3.85 -3.30 4.70 -2.15 0.30 0.40 0.35 0.30 0.15 -0.30 -0.20 -0.65 0 -0.85 0.95 -0.85 1 0 1.25 -0.25 1.25 -1.25 0 -0.90 0.25 -1.25 1 -1.25 1.05 0 1.40 1.20 0.50 1.75 -0.30 0.15 -0.85 1.05 -1.30 1.90 -0.85 1.60 -0.85 1.60 0.20 0.70 0.75 -0.70 1.05 -0.75 1.30 -0.25 0.20 0.45 0.25 0.45 0.20 -0.10 0 -0.40 0.25 -1.50 0.60 -2.40 l0.60 -1.60 11.45 0 c7.30 0 11.45 0.20 11.45 0.50 0 0.30 -0.30 0.50 -0.60 0.50 -0.35 0 -0.25 0.25 0.25 0.55 0.45 0.25 1.10 0.35 1.45 0.15 0.40 -0.25 0.45 0.60 0.25 3.10 -0.15 1.85 -0.50 3.50 -0.80 3.60 -0.30 0.10 -0.55 1.05 -0.55 2.15 0 1.05 -0.25 1.95 -0.55 1.95 -0.35 0 -0.45 -0.95 -0.30 -2.75 0.15 -2.15 0.05 -2.75 -0.50 -2.75 -0.95 0 -1.40 -1.35 -0.65 -2.25 0.35 -0.40 1.05 -0.75 1.55 -0.75 0.55 0 0.95 -0.30 0.95 -0.70 0 -1.20 -2 -0.30 -4.40 2.05 -1.25 1.15 -2.70 2.15 -3.20 2.15 -0.70 0 -0.90 0.40 -0.90 1.75 l0 1.75 -3.30 0 -3.30 0 0.25 -1.60 c0.15 -1.10 -0.05 -1.95 -0.55 -2.55 -1.10 -1.25 -0.65 -1.35 1.80 -0.50 2.30 0.75 4.60 0.50 3.05 -0.35 -1.80 -1.05 -8.85 -3.15 -10.60 -3.20 -1.90 -0.05 -1.90 -0.05 -0.80 0.85 0.55 0.45 1.35 0.85 1.75 0.85 0.40 0 0.70 0.30 0.70 0.65 0 0.40 -0.75 0.60 -2.10 0.60 -1.20 0 -2.15 0.25 -2.25 0.65 -0.15 0.35 0.25 0.60 0.95 0.60 1.10 0.05 1.10 0.05 0.25 0.75 -0.55 0.35 -1.25 0.55 -1.65 0.40 -0.40 -0.15 -0.70 0 -0.70 0.30 0 0.30 0.20 0.55 0.50 0.55 0.80 0 1.15 2.30 0.50 3.45 -0.30 0.65 -1.05 1.05 -1.75 1.05 -0.90 0 -1.30 0.35 -1.55 1.25 -0.25 0.95 -0.65 1.25 -1.75 1.25 -1.10 0 -1.50 0.25 -1.70 1.25 -0.15 0.70 -0.35 1.80 -0.50 2.50 -0.30 1.45 -1.55 1.70 -1.90 0.40 -0.20 -0.85 -0.25 -0.85 -0.30 0 -0.10 1.45 -1.55 1 -1.55 -0.50z m7.95 -11.40 c0 -0.25 -0.50 0.40 -1.20 1.45 -0.65 1.10 -1.05 2.20 -0.90 2.50 0.30 0.45 2.05 -2.85 2.10 -3.95z m-2.65 -2.10 c-0.30 -0.30 -0.95 1.20 -1.50 3.35 -0.15 0.70 0.20 0.25 0.75 -0.90 0.55 -1.20 0.90 -2.30 0.75 -2.45z m29.20 -0.40 c0 -0.40 -0.20 -0.75 -0.50 -0.75 -0.25 0 -0.50 0.35 -0.50 0.75 0 0.40 0.25 0.75 0.50 0.75 0.30 0 0.50 -0.35 0.50 -0.75z m-9.50 -2 c-0.35 -0.40 -0.85 -0.75 -1.15 -0.75 -0.25 0 -0.10 0.45 0.40 1 1.05 1.15 1.75 0.95 0.75 -0.25z"/>
  <path d="M30.25 19.50 c0.85 -0.95 0.85 -1 0 -1 -0.60 0 -0.80 -0.30 -0.60 -1 0.15 -0.55 0.10 -1 -0.10 -1 -0.65 0 -2.05 -3.50 -2.05 -5.15 0 -2 0.95 -3.75 1 -1.85 0.05 1.25 0.05 1.25 0.50 0.15 0.25 -0.65 0.80 -1.15 1.25 -1.15 0.40 0 0.75 -0.35 0.75 -0.75 0 -0.65 0.15 -0.65 1 -0.15 1.10 0.70 1.25 2.10 0.50 4.10 -0.30 0.80 -0.30 1.35 0 1.55 0.30 0.20 0.50 1.05 0.50 1.90 l-0.05 1.60 -1.25 -1.50 c-1.30 -1.50 -1.20 -1.30 0.65 1.95 0.35 0.55 0.65 1.55 0.65 2.20 0 0.95 -0.25 1.10 -1.85 1.10 -1.75 0 -1.80 0 -0.90 -1z"/>
  <path d="M34 18.75 c0 -0.95 0.25 -1.75 0.50 -1.75 0.30 0 0.50 0.40 0.50 0.90 0.05 0.80 0.05 0.80 0.55 0 0.80 -1.45 1.45 -1.05 1.30 0.85 -0.10 1.55 -0.25 1.75 -1.45 1.75 -1.25 0 -1.40 -0.15 -1.40 -1.75z"/>
  <path d="M0 0.65 c0 -0.40 0.60 -0.65 1.50 -0.65 0.85 0 1.50 0.25 1.50 0.50 0 0.30 -0.15 0.50 -0.35 0.55 -0.25 0 -0.90 0.10 -1.50 0.15 -0.70 0.10 -1.15 -0.15 -1.15 -0.55z"/>
  <path d="M4.30 0.75 c0.30 -0.80 2.70 -1.05 2.70 -0.30 0 0.25 -0.50 0.55 -1.10 0.75 -1.70 0.45 -1.90 0.35 -1.60 -0.45z"/>
 </g>
 <g fill="#60090a">
  <path d="M3 39.45 c0 -0.30 0.35 -0.40 0.80 -0.25 0.50 0.20 0.65 0.10 0.40 -0.30 -0.25 -0.40 0.10 -0.45 1.20 -0.25 1.25 0.25 1.60 0.15 1.85 -0.70 0.30 -0.95 0.65 -0.95 7.65 -0.70 4.05 0.15 7.55 0.25 7.80 0.25 0.25 0 0.15 0.35 -0.20 0.75 -0.35 0.40 -1.10 0.75 -1.70 0.75 -0.85 0 -0.90 0.10 -0.30 0.50 0.50 0.30 -2.30 0.50 -8.35 0.50 -6.35 0 -9.15 -0.15 -9.15 -0.55z"/>
  <path d="M29.25 39.50 c0.20 -0.30 0.50 -0.40 0.75 -0.25 0.45 0.25 1.10 -1.25 1.25 -2.80 0.05 -0.45 0.55 -1.65 1.15 -2.65 0.60 -1.05 1.10 -2.05 1.10 -2.35 0 -0.25 0.55 -1.30 1.15 -2.35 0.65 -1 1.10 -2.15 1 -2.45 -0.15 -0.40 0.20 -0.65 0.75 -0.65 1.20 0 1.20 0.10 -1.65 7.45 -1 2.60 -1.85 5.10 -1.90 5.60 -0.05 0.75 -0.45 0.95 -2 0.95 -1.15 0 -1.80 -0.20 -1.60 -0.50z"/>
  <path d="M21.90 36.15 c0.60 -0.10 1.50 -0.10 2 0 0.45 0.15 -0.05 0.25 -1.15 0.20 -1.10 0 -1.50 -0.10 -0.85 -0.20z"/>
  <path d="M29.65 35.50 c0.15 -0.70 1.05 -3.05 2.05 -5.25 0.95 -2.20 1.85 -4.80 2 -5.75 0.40 -3.45 0.90 -5.50 1.35 -5.50 0.20 0 0.55 -0.80 0.75 -1.75 0.15 -1 0.60 -1.75 1 -1.75 0.40 0 0.70 -0.35 0.70 -0.75 0 -0.50 0.50 -0.75 1.40 -0.75 1 0 1.15 0.15 0.65 0.45 -0.65 0.40 -0.65 0.60 0 1.35 0.55 0.70 0.55 0.90 0.05 1.10 -0.50 0.15 -0.50 0.35 -0.05 0.90 0.45 0.55 0.45 0.90 0.05 1.30 -0.45 0.45 -0.60 0.45 -0.60 0 0 -1.20 -0.95 -0.55 -1.10 0.80 -0.10 0.90 -0.40 1.30 -0.90 1.25 -0.55 -0.10 -1 0.60 -1.45 2.10 -0.35 1.20 -0.65 2.35 -0.60 2.50 0 0.15 -0.40 1.05 -0.95 2 -0.55 1 -1 2.05 -1 2.40 0 0.35 -0.80 1.95 -1.80 3.60 -1.05 1.85 -1.65 2.50 -1.55 1.75z"/>
  <path d="M28.50 11.15 c0 -0.15 0.35 -1.05 0.80 -2 0.65 -1.25 1.10 -1.65 1.90 -1.55 0.85 0.10 1.05 0.50 1.05 1.90 0 1.70 -0.10 1.75 -1.85 1.80 -1.05 0.05 -1.90 -0.05 -1.90 -0.15z"/>
  <path d="M14.15 10.35 c-0.70 -0.35 -1.15 -1.05 -1.15 -1.70 0 -1.40 0.80 -1.50 1.25 -0.15 0.15 0.55 0.55 1 0.80 1 0.25 0 0.20 -0.45 -0.15 -1 -1 -1.60 0.05 -1.80 1.35 -0.25 0.65 0.85 1.35 1.35 1.55 1.15 0.20 -0.25 0.10 -0.40 -0.20 -0.40 -0.35 0 -0.60 -0.45 -0.60 -1 0 -1.10 0.35 -1.25 1.40 -0.55 0.40 0.25 0.60 1.05 0.50 1.85 -0.15 1.25 -0.35 1.45 -1.90 1.55 -0.95 0 -2.25 -0.20 -2.85 -0.50z"/>
  <path d="M35.35 2.80 c-0.70 -0.55 -0.75 -0.75 -0.20 -0.95 0.75 -0.25 1.85 0.50 1.85 1.25 0 0.60 -0.60 0.45 -1.65 -0.30z"/>
  <path d="M0 2.50 c0 -0.25 0.35 -0.50 0.75 -0.50 0.40 0 0.75 0.25 0.75 0.50 0 0.30 -0.35 0.50 -0.75 0.50 -0.40 0 -0.75 -0.20 -0.75 -0.50z"/>
  <path d="M37.55 1.75 c-0.95 -0.65 -1.90 -1.10 -2.15 -0.95 -0.20 0.15 -0.40 0.05 -0.40 -0.20 0 -0.25 1.15 -0.50 2.50 -0.55 2.45 -0.05 2.50 -0.05 2.50 1.45 0 1.80 -0.25 1.80 -2.45 0.25z"/>
  <path d="M0 0.75 c0 -0.40 0.45 -0.75 1 -0.75 0.55 0 1 0.10 1 0.25 0 0.10 -0.45 0.45 -1 0.75 -0.80 0.45 -1 0.40 -1 -0.25z"/>
 </g>
 <g fill="#48181c">
  <path d="M1.60 39.60 c-0.35 -0.25 -0.75 -1.60 -0.95 -3 -0.25 -2.15 -0.15 -2.60 0.50 -2.60 0.50 0 0.95 0.85 1.35 2.50 0.35 1.40 0.80 2.50 1.05 2.50 0.25 0 0.45 0.25 0.45 0.50 0 0.60 -1.50 0.65 -2.40 0.10z"/>
  <path d="M4 38.50 c-0.70 -1.70 -0.20 -2.75 0.60 -1.35 0.25 0.50 1.20 1.35 2.05 1.90 l1.60 0.95 -1.80 0 c-1.55 0 -1.90 -0.20 -2.45 -1.50z"/>
  <path d="M18.50 39.40 c0 -0.55 0.40 -0.90 1 -0.90 0.55 0 1 -0.20 1 -0.45 0 -0.25 0.45 -0.55 1.05 -0.70 0.75 -0.20 0.95 -0.05 0.85 0.55 -0.10 0.50 -0.75 0.90 -1.65 1 -0.80 0.10 -1.65 0.45 -1.85 0.75 -0.25 0.40 -0.40 0.30 -0.40 -0.25z"/>
  <path d="M24.50 39.45 c0 -0.35 0.45 -0.45 1.10 -0.30 0.60 0.15 1.50 0.10 2 -0.20 0.70 -0.35 0.90 -0.30 0.90 0.30 0 0.55 -0.55 0.75 -2 0.75 -1.15 0 -2 -0.25 -2 -0.55z"/>
  <path d="M29.25 39.50 c0.15 -0.30 0.50 -0.40 0.75 -0.25 0.25 0.15 0.55 0.05 0.75 -0.25 0.45 -0.70 1.60 -0.60 1.90 0.15 0.15 0.45 -0.35 0.70 -1.75 0.80 -1.30 0.05 -1.85 -0.10 -1.65 -0.45z"/>
  <path d="M29.20 36.50 c0.40 -1.95 3.75 -9 4.30 -9 0.55 0 -1.50 5.10 -3.25 8 -0.95 1.60 -1.25 1.90 -1.05 1z"/>
  <path d="M20.50 36 c0 -0.25 1.05 -0.50 2.30 -0.50 1.35 0 2.15 0.20 1.95 0.50 -0.15 0.30 -1.20 0.50 -2.30 0.50 -1.05 0 -1.95 -0.20 -1.95 -0.50z"/>
  <path d="M33.80 23.90 c0.05 -0.65 0.15 -1.45 0.15 -1.75 0.05 -0.35 0.40 -0.65 0.80 -0.65 0.80 0 0.90 0.60 0.45 2.40 -0.20 0.60 -0.60 1.10 -0.90 1.10 -0.35 0 -0.60 -0.50 -0.50 -1.10z"/>
  <path d="M39.35 21.80 c-0.20 -0.50 -0.25 -1.05 -0.10 -1.20 0.45 -0.45 0.85 0.30 0.65 1.25 -0.15 0.85 -0.20 0.85 -0.55 -0.05z"/>
  <path d="M35.70 17.90 c0.15 -0.65 0.30 -1.45 0.30 -1.75 0 -0.35 0.35 -0.65 0.80 -0.65 0.70 0 0.75 -0.50 0.45 -3.60 -0.20 -2 -0.55 -3.70 -0.80 -3.80 -0.25 -0.10 -0.45 -0.95 -0.45 -1.90 0 -0.95 -0.20 -1.70 -0.45 -1.70 -0.70 0 -0.95 -2.40 -0.30 -2.70 0.80 -0.30 1.75 0.65 1.75 1.70 0 1.50 1.35 4.50 2.30 5.25 0.80 0.65 0.85 0.80 0.20 1.25 -0.50 0.30 -0.55 0.50 -0.10 0.50 0.30 0 0.60 0.35 0.60 0.80 0 0.40 -0.20 0.60 -0.50 0.45 -0.25 -0.15 -0.50 -0.05 -0.50 0.20 0 0.30 0.25 0.55 0.50 0.55 0.30 0 0.50 0.45 0.50 1 0 0.55 -0.20 1 -0.50 1 -0.25 0 -0.50 0.70 -0.50 1.50 0 1.10 -0.20 1.50 -0.70 1.40 -0.40 -0.10 -0.75 0.05 -0.70 0.30 0 0.50 -1.10 1.30 -1.80 1.30 -0.20 0 -0.30 -0.50 -0.10 -1.10z"/>
  <path d="M30.15 10.65 c0.45 -0.10 0.85 -0.55 0.85 -1 0 -0.65 -0.15 -0.65 -0.75 -0.15 -0.80 0.65 -1 0.15 -0.45 -1.20 0.35 -0.90 1.75 -1.05 2.55 -0.25 0.25 0.25 0.40 1.05 0.25 1.75 -0.15 1 -0.50 1.20 -1.80 1.15 -0.85 -0.05 -1.15 -0.15 -0.65 -0.30z"/>
  <path d="M33.70 8.95 c0.25 -2.05 1 -3.40 1.60 -2.85 0.60 0.60 -0.40 4.90 -1.15 4.90 -0.50 0 -0.65 -0.50 -0.45 -2.05z"/>
  <path d="M1.75 5.45 c0.45 -0.85 0.95 -1.45 1.05 -1.30 0.40 0.35 -0.75 2.85 -1.30 2.85 -0.30 0 -0.20 -0.65 0.25 -1.55z"/>
  <path d="M0 3.85 c0 -1.35 0.20 -1.85 0.80 -1.85 0.65 0 0.75 0.30 0.45 1.40 -0.55 2.25 -1.25 2.50 -1.25 0.45z"/>
  <path d="M7.55 1.90 c0.45 -0.35 0.70 -0.95 0.60 -1.25 -0.15 -0.40 0.20 -0.65 0.85 -0.65 0.80 0 1.05 0.25 0.90 1.15 -0.10 0.80 -0.55 1.15 -1.65 1.25 -1.30 0.10 -1.40 0.05 -0.70 -0.50z"/>
  <path d="M32.15 1.30 c-1.65 -0.80 -1.40 -1.30 0.60 -1.30 0.95 0 1.75 0.25 1.75 0.50 0 0.30 -0.25 0.50 -0.55 0.50 -0.25 0 -0.35 0.25 -0.20 0.50 0.40 0.60 -0.15 0.55 -1.60 -0.20z"/>
  <path d="M38.50 1.15 c-2.15 -0.40 -2.35 -1.15 -0.35 -1.15 1.30 0 1.85 0.20 1.85 0.75 0 0.40 -0.05 0.70 -0.10 0.70 -0.10 -0.05 -0.70 -0.20 -1.40 -0.30z"/>
  <path d="M0 0.45 c0 -0.25 0.70 -0.45 1.50 -0.45 0.85 0 1.50 0.20 1.50 0.40 0 0.25 -0.65 0.45 -1.50 0.50 -0.80 0 -1.50 -0.20 -1.50 -0.45z"/>
 </g>
 <g fill="#8a090e">
  <path d="M9.50 39.50 c0 -0.25 0.80 -0.50 1.75 -0.50 0.95 0 1.75 0.25 1.75 0.50 0 0.30 -0.80 0.50 -1.75 0.50 -0.95 0 -1.75 -0.20 -1.75 -0.50z"/>
  <path d="M14 39.55 c0 -0.25 0.45 -0.65 1 -0.80 0.55 -0.15 1 -0.55 1 -0.80 0 -0.25 1.50 -0.45 3.30 -0.45 2.40 0 3.25 0.15 3.10 0.65 -0.15 0.30 -0.95 0.65 -1.80 0.75 -0.90 0.10 -1.60 0.35 -1.60 0.65 0 0.25 -1.10 0.45 -2.50 0.45 -1.35 0 -2.50 -0.20 -2.50 -0.45z"/>
  <path d="M30.50 39.55 c0 -0.25 0.20 -0.65 0.50 -0.80 0.25 -0.15 0.70 -1.25 1 -2.40 0.30 -1.15 0.90 -2.80 1.30 -3.70 0.40 -0.85 0.70 -1.75 0.70 -2 0.05 -0.65 1.90 -2.90 2.20 -2.60 0.50 0.50 -4.10 11.70 -4.90 11.85 -0.45 0.10 -0.80 -0.05 -0.80 -0.35z"/>
  <path d="M20.15 36.15 c0.75 -0.10 1.95 -0.10 2.75 0 0.75 0.10 0.10 0.20 -1.40 0.20 -1.50 0 -2.15 -0.10 -1.35 -0.20z"/>
  <path d="M31 33.10 c0 -0.35 0.20 -1 0.50 -1.50 0.25 -0.45 0.85 -1.70 1.30 -2.75 1.25 -2.80 1.35 -1.95 0.15 1.20 -1.05 2.75 -1.95 4.15 -1.95 3.05z"/>
  <path d="M36.50 17 c0 -1.25 0.20 -1.50 1.25 -1.50 0.95 0 1.25 0.25 1.25 1.05 0 0.80 -0.20 0.95 -1.10 0.70 -0.85 -0.30 -1 -0.20 -0.75 0.45 0.20 0.45 0.10 0.80 -0.15 0.80 -0.30 0 -0.50 -0.65 -0.50 -1.50z"/>
  <path d="M14.05 9.65 c0 -0.80 0.15 -1.10 0.30 -0.75 0.40 1 1.10 0.70 0.80 -0.40 -0.15 -0.55 -0.05 -1 0.25 -1 0.25 0 0.60 0.45 0.75 1 0.15 0.55 0.60 1 1.05 1 0.45 0 0.80 0.35 0.80 0.75 0 0.55 -0.55 0.75 -2 0.75 -1.85 0 -2 -0.10 -1.95 -1.35z"/>
  <path d="M28 8.75 c0 -0.95 0.20 -1.75 0.40 -1.75 0.20 0 0.30 0.80 0.20 1.75 -0.10 0.95 -0.30 1.75 -0.40 1.75 -0.10 0 -0.20 -0.80 -0.20 -1.75z"/>
  <path d="M29 10 c0 -0.75 1.55 -3 2.05 -3 0.25 0 0.45 0.40 0.45 0.90 -0.05 0.90 -2.50 3 -2.50 2.10z"/>
 </g>
 <g fill="#363045">
  <path d="M18.40 36.15 c-1.65 -0.40 -1 -1.65 0.85 -1.65 1.40 0 1.75 0.20 1.75 1 0 1 -0.70 1.15 -2.60 0.65z"/>
  <path d="M6.75 35.55 c-0.80 -0.15 -2.25 -0.70 -3.10 -1.20 -1.50 -0.80 -1.65 -1.10 -1.65 -3.10 0 -1.25 0.20 -2.25 0.45 -2.25 0.55 0 1.20 2.40 0.80 3 -0.20 0.30 -0.10 0.50 0.15 0.50 0.30 0 0.65 -0.55 0.80 -1.25 0.45 -1.75 1.15 -1.55 1.50 0.50 0.30 1.40 0.70 1.90 2.05 2.50 0.95 0.35 1.75 0.95 1.75 1.20 0 0.60 -0.40 0.60 -2.75 0.10z"/>
  <path d="M0 33.75 c0 -2 1.20 -2.45 1.70 -0.60 0.50 1.85 0.35 2.35 -0.70 2.35 -0.80 0 -1 -0.35 -1 -1.75z"/>
  <path d="M24 29.75 c0 -0.40 -0.20 -0.75 -0.50 -0.75 -0.25 0 -0.50 0.25 -0.50 0.50 0 0.30 -0.80 0.50 -1.75 0.50 -1.65 0 -1.75 -0.10 -1.75 -1.75 0 -1.20 -0.25 -1.75 -0.75 -1.75 -0.50 0 -0.75 -0.55 -0.75 -1.75 0 -1.65 0.10 -1.75 1.75 -1.75 2.05 0 2.45 1.20 0.50 1.70 -1.35 0.35 -1.70 1.30 -0.50 1.30 0.40 0 0.75 -0.20 0.75 -0.45 0 -0.25 1 -0.30 2.25 -0.15 l2.25 0.25 0 -1.85 c0 -1.65 0.15 -1.80 1.40 -1.80 2.85 0 3.60 0.50 3.60 2.30 0 1.60 -0.10 1.70 -1.75 1.70 -2 0 -2.25 -0.55 -0.60 -1.65 0.60 -0.40 0.90 -0.95 0.70 -1.15 -0.40 -0.45 -3.35 2.40 -3.35 3.25 0 0.25 0.40 0.60 0.90 0.70 0.45 0.15 -0.60 0.25 -2.40 0.30 -2.30 0.05 -3.05 0.20 -2.50 0.55 1.35 0.85 5.40 0.60 5.95 -0.35 0.40 -0.75 0.50 -0.55 0.55 1 0 1.80 -0.05 1.85 -1.75 1.85 -1.20 0 -1.75 -0.25 -1.75 -0.75z"/>
  <path d="M33.50 25.90 c0 -1.45 0.65 -2.90 1.25 -2.90 0.50 0 0.55 0.40 0.10 1.75 -0.50 1.70 -1.35 2.40 -1.35 1.15z"/>
  <path d="M0 18.75 c0 -1.40 0.20 -1.75 0.95 -1.75 0.55 0 1.10 0.40 1.20 0.90 0.20 0.80 0.25 0.80 0.30 0 0.10 -1.70 1.05 -0.90 1.05 0.85 0 1.85 -1.25 2.50 -1.65 0.90 -0.20 -0.85 -0.25 -0.85 -0.30 0 0 0.45 -0.40 0.85 -0.80 0.85 -0.50 0 -0.75 -0.55 -0.75 -1.75z"/>
  <path d="M22.50 18.75 c0 -1.65 0.10 -1.75 1.75 -1.75 1.65 0 1.75 0.10 1.75 1.75 0 1.65 -0.10 1.75 -1.75 1.75 -1.65 0 -1.75 -0.10 -1.75 -1.75z"/>
  <path d="M34 17.80 c0 -0.90 -0.15 -2.70 -0.30 -4 -0.30 -1.90 -0.20 -2.30 0.50 -2.30 0.65 0 0.80 0.65 0.85 3.90 0.05 3.40 0.10 3.65 0.55 2.25 0.60 -1.90 1.95 -2.25 1.75 -0.50 -0.15 1.45 -1.05 2.35 -2.30 2.35 -0.85 0 -1.05 -0.30 -1.05 -1.70z"/>
  <path d="M1 15.40 c0 -0.65 0.15 -2 0.35 -3.05 0.25 -1.55 0.50 -1.90 1.35 -1.80 2 0.15 2.30 -0.05 2.30 -1.50 0 -1 0.30 -1.50 1 -1.70 1.90 -0.50 1.15 -2.15 -0.85 -1.90 -0.35 0.05 -0.65 -0.35 -0.65 -0.90 0 -0.65 0.70 -1.40 2 -2.10 1.20 -0.70 1.95 -1.40 1.80 -1.80 -0.20 -0.45 0.15 -0.65 0.95 -0.65 1.55 0 1.55 0.30 0.10 2.50 -2.05 3 -1.95 3.75 0.10 1.45 1.10 -1.20 2 -2.55 2.05 -3.05 0 -0.70 1.10 -0.80 10.85 -0.85 5.95 -0.05 10.70 0.05 10.50 0.25 -0.20 0.20 0.05 0.65 0.55 1 0.45 0.40 0.60 0.70 0.25 0.70 -0.30 0 -0.75 -0.20 -0.90 -0.50 -0.20 -0.30 -3.55 -0.50 -8.45 -0.50 -7.60 0 -8.20 0.05 -9.10 1.05 -0.60 0.65 -1.35 0.95 -2.05 0.80 -1 -0.20 -1.05 -0.10 -0.55 0.60 0.35 0.45 0.90 0.95 1.15 1.15 0.30 0.20 0.05 0.40 -0.50 0.40 -0.55 0 -1.45 0.35 -2 0.80 -0.95 0.70 -0.95 0.75 0.15 1 0.60 0.20 1.10 0.65 1.10 1.05 0 0.55 -0.35 0.65 -1.25 0.45 -1.15 -0.30 -1.40 -0.10 -2.05 1.50 -0.40 1 -0.65 1.95 -0.50 2.05 0.15 0.15 0.55 -0.35 0.90 -1.15 0.30 -0.80 0.70 -1.55 0.80 -1.70 0.30 -0.40 1.10 1.25 1.10 2.40 0 1 -0.25 1.10 -2.25 1.10 -1.70 0 -2.25 -0.20 -2.25 -0.75 0 -0.95 1.35 -3.65 2.40 -4.85 0.40 -0.50 0.55 -0.90 0.30 -0.90 -0.25 0 -1.25 1.10 -2.20 2.50 -0.95 1.35 -1.90 2.45 -2.10 2.50 -0.25 0 -0.40 0.75 -0.40 1.65 0 3.10 -0.45 3.85 -2.30 3.85 -1.45 0 -1.70 -0.20 -1.70 -1.10z"/>
  <path d="M32.05 13.65 c0.05 -1.95 0.10 -2.15 0.45 -1.15 0.60 1.80 0.60 3.50 0 3.50 -0.25 0 -0.50 -1.05 -0.45 -2.35z"/>
  <path d="M20.50 10.50 c0 -0.55 -0.15 -1 -0.40 -1 -0.20 0 -0.65 -0.50 -1.05 -1.10 -0.65 -1.05 -0.65 -1.10 0.15 -0.45 0.45 0.40 1 0.55 1.20 0.35 0.20 -0.20 -0.20 -0.80 -0.85 -1.35 -1.75 -1.40 -1.05 -1.60 1.65 -0.50 2.40 1.05 3.55 1 4 -0.25 0.20 -0.50 0.70 -0.60 1.55 -0.40 1 0.25 1.70 -0.05 3.25 -1.50 1.90 -1.70 3 -2.25 3 -1.40 0 0.20 -0.65 0.70 -1.45 1.15 -0.75 0.45 -1.85 1.75 -2.35 2.85 -0.95 2.05 -1.90 2.65 -2.35 1.50 -0.15 -0.35 -0.30 0.20 -0.30 1.25 l-0.05 1.85 -3 0 c-2.65 0 -3 -0.10 -3 -1z m4.50 -1.75 c0 -0.50 -0.55 -0.75 -1.75 -0.75 -2.35 0 -2.35 1.20 0 1.35 1.30 0.10 1.75 -0.05 1.75 -0.60z"/>
  <path d="M33.95 8.15 c0.25 -1.60 0.55 -1.90 1.70 -2.05 1.25 -0.15 1.35 -0.05 1.35 1.85 0 2.40 -1 2.80 -1.05 0.45 l-0.05 -1.65 -0.50 1.65 c-0.75 2.30 -1.80 2.10 -1.45 -0.25z"/>
  <path d="M31 7.70 c0 -0.70 0.15 -0.70 0.75 -0.20 0.40 0.35 0.75 0.70 0.75 0.80 0 0.10 -0.35 0.20 -0.75 0.20 -0.40 0 -0.75 -0.35 -0.75 -0.80z"/>
  <path d="M32.25 6.45 c-0.20 -0.30 -0.25 -0.65 -0.10 -0.80 0.35 -0.35 1.35 0.30 1.35 0.90 0 0.60 -0.85 0.60 -1.25 -0.10z"/>
  <path d="M19.65 4.15 c-2 -0.70 -3.65 -1.45 -3.65 -1.65 0 -0.75 2.20 -0.95 4.30 -0.45 2.35 0.60 5.70 3.50 3.90 3.40 -0.50 -0.05 -2.60 -0.60 -4.55 -1.30z"/>
  <path d="M5.50 0.50 c0 -0.25 0.35 -0.50 0.75 -0.50 0.40 0 0.75 0.25 0.75 0.50 0 0.30 -0.35 0.50 -0.75 0.50 -0.40 0 -0.75 -0.20 -0.75 -0.50z"/>
 </g>
 <g fill="#32344b">
  <path d="M18 36.05 c-3.20 -0.65 -4 -1.35 -4 -3.55 l0 -2 2.05 0 c1.60 0 2.10 0.20 2.30 1 0.15 0.55 0.65 1 1.15 1 1.85 0 2.50 0.60 2.50 2.30 0 1.85 -0.35 1.95 -4 1.25z"/>
  <path d="M22.50 35.50 c0 -0.75 0.35 -1 1.25 -1 1 0 1.25 -0.25 1.25 -1.20 0 -1.95 -0.55 -2.80 -1.75 -2.80 -2.55 0 -4.25 -0.60 -4.25 -1.55 0 -0.60 -0.35 -0.95 -1 -0.95 -0.80 0 -1 -0.35 -1 -1.75 0 -1.40 0.20 -1.75 1 -1.75 0.65 0 1 -0.35 1 -0.95 0 -0.70 0.50 -1 2.10 -1.25 1.55 -0.25 1.90 -0.50 1.50 -0.90 -0.35 -0.35 -0.60 -1.65 -0.60 -3 0 -2.75 0.60 -3.30 4.50 -3.75 2 -0.25 2.50 -0.50 2.50 -1.20 0 -0.60 -0.35 -0.95 -1 -0.95 -0.60 0 -1 -0.35 -1 -0.85 0 -0.65 -0.20 -0.60 -0.80 0.35 -1.30 1.90 -2.25 2.50 -4 2.50 -2.45 0 -4.20 -0.80 -4.20 -2 0 -1.05 -1.65 -1.45 -2.25 -0.50 -0.15 0.25 -1.20 0.50 -2.25 0.50 -2.05 0 -2.45 0.35 -3.25 2.75 -0.45 1.40 -0.70 1.50 -3 1.50 -2.20 0 -2.50 0.15 -2.80 1.25 -0.55 1.95 -0.50 7 0.05 7 0.30 0 0.50 0.80 0.50 1.75 0 1.40 0.20 1.75 1 1.75 0.55 0 1 0.25 1 0.50 0 0.30 0.70 0.50 1.50 0.50 1 0 1.50 0.25 1.50 0.75 0 0.45 0.45 0.75 1.25 0.75 1 0 1.25 0.25 1.25 1.30 0 1.60 -0.35 1.50 -4.90 -1.45 -4.70 -3.10 -5.80 -5.15 -5.50 -10.30 0.15 -2.10 0.10 -3.35 -0.15 -2.80 -0.20 0.55 -0.40 2.75 -0.40 4.90 -0.05 2.20 -0.25 3.85 -0.55 3.85 -0.65 0 -0.65 -11.35 0 -11.75 0.30 -0.15 0.50 -1.40 0.50 -2.80 0 -2.10 0.15 -2.45 1 -2.45 0.60 0 1 0.35 1 0.90 0.05 0.75 0.10 0.75 0.55 -0.10 0.45 -0.75 0.65 -0.80 1 -0.25 0.35 0.55 0.45 0.50 0.45 -0.15 0 -0.50 0.25 -0.90 0.55 -0.90 0.35 0 0.40 0.35 0.15 0.90 -0.20 0.45 -0.45 1.75 -0.55 2.85 l-0.15 2 1 -2.50 c0.60 -1.35 1.40 -2.80 1.85 -3.10 0.45 -0.35 0.70 -0.65 0.50 -0.65 -0.20 0 0 -0.55 0.45 -1.25 0.45 -0.70 0.60 -1.25 0.30 -1.25 -0.25 0 -0.60 0.30 -0.75 0.65 -0.15 0.35 -1.05 0.70 -2.05 0.75 -1.70 0.15 -1.75 0.10 -1.30 -1.15 0.65 -1.65 0.20 -1.60 -0.70 0.15 -0.70 1.25 -0.75 1.30 -0.80 0.25 0 -2 -1.50 -1.40 -1.50 0.60 0 1.55 -0.15 1.75 -1.25 1.75 -1.60 0 -1.60 -0.45 0.30 -3.25 0.95 -1.40 1.85 -2.20 2.25 -2.05 0.35 0.15 0.80 0.05 0.95 -0.20 0.20 -0.30 0.65 -0.50 1.05 -0.50 0.40 0 1.25 -0.55 1.90 -1.25 0.65 -0.70 1.55 -1.25 2 -1.25 0.70 0 0.65 0.25 -0.35 1.90 -1.80 2.90 -2.10 4.10 -0.50 2.20 1.50 -1.70 2.65 -2 3.75 -0.95 0.35 0.40 1.75 0.80 3.05 0.95 2.95 0.35 4.75 1.50 5.65 3.70 0.60 1.40 0.95 1.70 2.25 1.70 1.45 0 1.55 -0.10 1.35 -1.50 -0.25 -1.70 0.65 -2.80 1.90 -2.30 0.55 0.20 1.30 -0.10 2.05 -0.75 1.50 -1.45 1.95 -0.95 0.65 0.70 -0.60 0.70 -1 1.95 -0.95 2.95 0 0.90 0.15 1.30 0.30 0.90 0.20 -0.40 0.60 -1 0.95 -1.35 0.35 -0.35 0.70 -0.90 0.85 -1.25 0.15 -0.50 0.45 -0.45 1.10 0.15 0.65 0.65 0.85 2 1 6.90 l0.20 6.05 -3.55 7.15 c-1.90 3.90 -3.85 7.50 -4.25 8 -1.10 1.20 -2.65 1.10 -2.65 -0.15z m4.50 -7.95 c0 -0.15 -0.95 -0.25 -2.10 -0.20 -1.20 0.05 -2.70 0.10 -3.35 0.10 -2.10 0.05 -0.50 0.95 1.95 1.15 2.10 0.15 3.50 -0.30 3.50 -1.05z m-6.50 -2 c0 -0.25 0.60 -0.70 1.40 -1 1.25 -0.50 1.25 -0.50 -0.40 -0.25 -0.95 0.20 -1.90 0.40 -2.10 0.55 -0.70 0.35 -0.45 1.15 0.35 1.15 0.40 0 0.75 -0.20 0.75 -0.45z m8 -1.90 c0 -0.90 -0.75 -0.80 -1.70 0.15 -1.20 1.15 -0.95 1.70 0.45 1.05 0.70 -0.35 1.25 -0.90 1.25 -1.20z m1.25 -3.90 c1.60 -1 1.80 -1.20 0.90 -1.25 -1.70 0 -3.65 0.90 -3.65 1.75 0 1 0.40 0.95 2.75 -0.50z m2.25 -4.10 c-0.30 -0.50 -1.10 -1.80 -1.75 -2.90 -1.40 -2.25 -1.65 -2 -0.45 0.40 0.80 1.55 2.15 3.35 2.55 3.35 0.10 0 -0.05 -0.40 -0.35 -0.85z m-28.55 -2.85 c0.05 -2.10 -0.25 -1.45 -0.60 1.20 -0.20 1.50 -0.15 1.90 0.15 1.25 0.25 -0.55 0.45 -1.65 0.45 -2.45z m6.55 -2.85 c0 -1.15 0.35 -1.20 1.30 -0.20 0.45 0.40 1.25 0.75 1.80 0.75 0.90 0 0.75 -0.25 -0.85 -1.45 -1.85 -1.35 -2 -1.40 -2.60 -0.60 -0.30 0.50 -0.75 1.55 -0.95 2.35 -0.35 1.30 -0.30 1.40 0.45 0.75 0.50 -0.35 0.85 -1.10 0.85 -1.60z m21.20 -0.20 c0.15 -0.40 0.10 -0.75 -0.15 -0.75 -0.25 0 -0.70 0.35 -1.05 0.75 -0.50 0.60 -0.50 0.75 0.15 0.75 0.40 0 0.85 -0.35 1.05 -0.75z m-13.80 -1.25 c-0.85 -1.35 -0.15 -1.80 1.40 -0.80 0.70 0.50 1.45 0.75 1.60 0.55 0.60 -0.55 -1.95 -2.25 -3.35 -2.25 -0.70 0 -2.05 -0.20 -2.95 -0.50 -1.20 -0.30 -1.95 -0.30 -2.65 0.15 -1.30 0.80 -1.20 1.35 0.25 1.35 1.20 0 2.80 1.15 2.80 2.05 0 0.25 0.80 0.45 1.75 0.45 1.60 0 1.70 -0.10 1.15 -1z"/>
  <path d="M6.75 35.55 c-0.80 -0.20 -2.25 -0.75 -3.10 -1.25 -1.50 -0.75 -1.65 -1.05 -1.65 -3.05 0 -2.25 0.95 -3.25 1.10 -1.10 0 0.60 0.10 1.40 0.10 1.80 0.05 0.40 0.35 0.80 0.75 0.95 0.50 0.15 0.60 0 0.40 -0.60 -0.35 -0.95 0.05 -2.30 0.75 -2.30 0.25 0 0.40 0.30 0.35 0.65 -0.05 0.30 0.05 1.20 0.25 1.95 0.30 1.05 0.85 1.50 2.35 1.90 3.70 1 2.55 1.95 -1.30 1.05z"/>
  <path d="M0.50 31.25 c0 -2.15 0.20 -3.75 0.50 -3.75 0.30 0 0.50 1.30 0.50 2.95 0 1.65 0.15 3.30 0.30 3.75 0.20 0.55 0.05 0.80 -0.50 0.80 -0.65 0 -0.80 -0.65 -0.80 -3.75z"/>
  <path d="M34.15 19.25 c0 -1.65 0.10 -2.25 0.20 -1.35 0.10 0.90 0.10 2.25 0 3 -0.10 0.75 -0.20 0 -0.20 -1.65z"/>
  <path d="M33.95 14.25 c-0.30 -2 -0.20 -2.65 0.35 -2.15 0.15 0.15 0.20 1.15 0.10 2.20 l-0.15 1.95 -0.30 -2z"/>
  <path d="M33.70 9.40 c1 -4.70 1.25 -6.55 1 -6.95 -0.15 -0.25 0.20 -0.45 0.75 -0.45 0.70 0 1.05 0.30 1.05 1 0 0.55 -0.20 1 -0.45 1 -0.25 0 -0.70 1.45 -1.05 3.25 -0.35 1.80 -0.80 3.25 -1.05 3.25 -0.25 0 -0.35 -0.50 -0.25 -1.10z"/>
  <path d="M32.50 6.50 c-0.40 -0.25 -0.55 -0.60 -0.35 -0.80 0.20 -0.20 0.65 -0.10 0.95 0.20 0.75 0.75 0.35 1.20 -0.60 0.60z"/>
  <path d="M20.50 4.45 c-4.65 -1.60 -4.35 -1.45 -3.35 -2 1.30 -0.75 4.55 -0.05 6.05 1.25 2.40 2.05 1.60 2.25 -2.70 0.75z"/>
 </g>
 <g fill="#692b2d">
  <path d="M2.35 39.65 c-0.20 -0.15 -0.35 -1.10 -0.30 -2.10 0.05 -1.80 0.05 -1.80 0.45 -0.40 0.25 0.80 0.70 1.75 1.05 2.15 0.45 0.55 0.40 0.70 -0.15 0.70 -0.40 0 -0.90 -0.15 -1.05 -0.35z"/>
  <path d="M4.15 38.65 c-0.85 -1.80 -0.50 -2 1.30 -0.60 1.80 1.45 1.90 1.95 0.45 1.95 -0.75 0 -1.35 -0.50 -1.75 -1.35z"/>
  <path d="M29.65 35.40 c2.05 -4.55 4 -9.95 4.20 -11.60 0.40 -4 0.70 -5.30 1.10 -5.05 0.80 0.45 1.05 -1.30 1.05 -7.55 0 -4.85 0.15 -6.20 0.65 -6.20 1 0 1.90 3.20 2.20 8.10 l0.30 4.35 -1.15 -0.30 c-0.95 -0.25 -1.10 -0.15 -0.85 0.50 0.20 0.50 0.15 0.85 -0.10 0.85 -0.25 0 -0.55 0.75 -0.75 1.60 -0.85 4.25 -5.75 15.90 -6.65 15.90 -0.15 0 -0.15 -0.30 0 -0.60z"/>
  <path d="M27.50 9.75 c0 -0.95 0.20 -1.75 0.45 -1.75 0.25 0 0.55 0.80 0.65 1.75 0.15 1.20 0 1.75 -0.45 1.75 -0.40 0 -0.65 -0.65 -0.65 -1.75z"/>
  <path d="M16.50 10.30 c0 -0.50 0.35 -0.60 1.15 -0.40 1.05 0.25 1.05 0.20 0.25 -0.75 -1.15 -1.25 -1.15 -1.65 0 -1.65 1.25 0 2.10 0.95 2.10 2.35 0 1 -0.25 1.15 -1.75 1.15 -1.15 0 -1.75 -0.25 -1.75 -0.70z"/>
  <path d="M31.50 9.75 c0 -0.90 -0.60 -0.95 -1.40 -0.15 -0.30 0.30 -0.75 0.40 -0.95 0.15 -0.25 -0.20 -0.10 -0.50 0.25 -0.60 0.30 -0.15 0.60 -0.55 0.60 -0.90 0 -1.05 0.95 -1.40 1.75 -0.75 0.85 0.70 1 3 0.25 3 -0.25 0 -0.50 -0.35 -0.50 -0.75z"/>
  <path d="M0 0.50 c0 -0.25 0.35 -0.50 0.75 -0.50 0.40 0 0.75 0.25 0.75 0.50 0 0.30 -0.35 0.50 -0.75 0.50 -0.40 0 -0.75 -0.20 -0.75 -0.50z"/>
 </g>
 <g fill="#3d425f">
  <path d="M18.40 36 c-3.05 -0.50 -8.55 -3.45 -8.20 -4.35 0.15 -0.35 -0.05 -0.65 -0.50 -0.65 -0.40 0 -0.85 -0.35 -1.05 -0.80 -0.20 -0.55 -0.40 -0.60 -0.65 -0.20 -0.60 0.95 -3.20 -0.70 -4.45 -2.80 -0.60 -1 -1.20 -2.65 -1.25 -3.65 -0.25 -2.40 0.60 -7.45 1.50 -9.25 0.50 -1.10 0.55 -1.60 0.15 -1.85 -0.40 -0.25 -0.20 -1.35 0.75 -3.80 0.70 -1.85 1.30 -3.65 1.30 -3.90 -0.05 -1 -1.50 2.10 -2.30 4.90 -0.90 3.10 -2.20 3.90 -2.20 1.35 0 -1 -0.25 -1.50 -0.75 -1.50 -0.40 0 -0.75 -0.45 -0.75 -1 0 -0.55 0.20 -1 0.45 -1 0.25 0 0.70 -0.70 1.05 -1.50 0.35 -0.85 1.05 -1.75 1.55 -2 0.70 -0.40 0.90 -0.30 1.10 0.65 l0.20 1.10 0.10 -1.15 c0 -0.60 0.45 -1.25 0.90 -1.45 0.50 -0.15 1.35 -0.65 1.85 -1.10 0.90 -0.75 0.95 -0.70 0.70 1.60 -0.25 1.95 -0.15 2.25 0.40 1.80 0.35 -0.30 0.90 -0.45 1.20 -0.35 0.25 0.05 -0.60 1.50 -1.95 3.15 -2.25 2.75 -2.40 3.15 -2.10 4.95 l0.30 1.95 0.95 -2.70 c0.95 -2.75 3.20 -6.25 3.65 -5.75 0.15 0.15 -0.05 0.80 -0.45 1.40 -0.90 1.35 -2.55 6.90 -2.20 7.25 0.15 0.15 0.50 -0.35 0.85 -1.15 0.30 -0.80 0.75 -1.85 1 -2.30 0.25 -0.50 0.45 -1.35 0.45 -1.95 0 -1 0.05 -1.05 0.90 -0.35 1.20 1.05 2.95 1.55 3.35 0.90 0.15 -0.25 0 -0.50 -0.35 -0.50 -1.10 -0.05 -3.10 -2 -2.60 -2.50 0.70 -0.70 2.65 0 2.95 1.05 0.30 0.90 0.80 1.15 2.15 1 1 -0.15 0.70 1.50 -0.50 2.55 -1.05 0.90 -1.05 1.05 -0.40 4.80 0.35 2.10 0.75 4.65 0.85 5.65 0.20 1.50 0.40 1.80 1.20 1.60 0.50 -0.15 0.95 -0.60 0.95 -0.95 0 -0.50 0.70 -0.70 2.35 -0.70 2.20 0 2.25 -0.05 1.50 -0.90 -0.50 -0.50 -0.85 -1.65 -0.85 -2.50 0 -1.35 -0.15 -1.55 -1.60 -1.70 -1.65 -0.15 -1.65 -0.20 -2.10 -3.50 -0.40 -2.80 -0.30 -3.45 0.40 -4.15 1.05 -1.10 1 -1.60 -0.25 -2 -0.55 -0.20 -0.90 -0.45 -0.80 -0.55 0.45 -0.45 3.85 1.55 3.85 2.25 0 0.40 -0.35 1.15 -0.80 1.60 -0.80 0.85 -0.75 0.95 0.50 1.40 0.70 0.30 1.65 0.40 2.05 0.25 1.15 -0.45 2.75 -3.40 2.45 -4.55 -0.35 -1.25 0.70 -2.05 1.35 -1.10 0.40 0.55 0.75 0.35 1.90 -0.90 1.70 -2.05 2.50 -2.15 1.10 -0.20 -1.30 1.85 -1.35 4.05 -0.05 6.55 0.55 1.10 0.80 2 0.55 2 -0.30 0 -0.40 0.30 -0.25 0.70 0.15 0.40 0.60 0.60 1 0.45 1 -0.35 2.30 2.95 1.90 4.75 -0.35 1.30 -2.55 5.60 -3.15 6.10 -0.15 0.15 -0.35 0.60 -0.45 1 -0.35 1.75 -3.75 8.05 -4.60 8.50 -1.05 0.55 -2.70 0.55 -6.10 0z m1.95 -1.30 c-0.15 -0.20 -1.05 -0.45 -1.95 -0.65 -0.90 -0.20 -1.65 -0.65 -1.65 -1.05 0 -0.35 -0.30 -0.75 -0.70 -0.90 -0.50 -0.15 -0.55 0.10 -0.30 0.95 0.20 0.65 0.65 1.35 0.95 1.55 0.65 0.45 4.10 0.55 3.65 0.10z m3.80 -1.20 c0.20 -0.75 0 -1 -0.75 -1 -0.50 0 -1.45 -0.25 -2.05 -0.50 -1.10 -0.50 -1.10 -0.50 0.05 0.30 0.60 0.45 1.10 1.15 1.10 1.50 0 1.10 1.35 0.80 1.65 -0.30z m2.85 -5.15 c0 -1.05 -0.25 -1.15 -2.95 -1.10 -4.50 0 -5.10 1.20 -0.75 1.45 1.30 0.05 2.50 0.40 2.60 0.70 0.30 0.95 1.10 0.15 1.10 -1.05z m-6.50 -2.70 c0.70 -0.50 2.15 -1.20 3.25 -1.50 l2 -0.65 -2.50 0.30 c-2.85 0.35 -4 0.85 -4.45 1.95 -0.35 1 0.20 0.95 1.70 -0.10z m7 -0.90 c0.85 -0.45 1.50 -1.10 1.50 -1.55 0 -0.60 -0.20 -0.65 -1.10 -0.15 -1.45 0.75 -3.10 2.45 -2.40 2.45 0.30 0 1.20 -0.35 2 -0.75z m0.65 -4 c0.90 -0.45 2.15 -1.20 2.85 -1.70 l1.20 -0.95 -2.40 0.45 c-1.30 0.25 -2.60 0.55 -2.85 0.70 -0.80 0.55 -0.50 -0.35 0.40 -1 0.45 -0.35 0.70 -0.95 0.50 -1.40 -0.25 -0.65 -0.60 -0.70 -1.80 -0.35 -2.85 0.80 -3.20 1.55 -1.75 3.75 0.95 1.45 1.70 1.55 3.85 0.50z"/>
  <path d="M7 35.55 c-1.95 -0.40 -4.05 -1.45 -4.60 -2.25 -0.60 -0.90 0.15 -1.35 0.90 -0.55 1.10 1.10 1.65 0.90 1.30 -0.35 -0.25 -1 -0.15 -1.05 0.55 -0.50 0.45 0.40 0.85 1.15 0.95 1.75 0.10 0.70 0.45 1.05 1 0.95 0.50 -0.05 1.50 0.20 2.25 0.60 1.15 0.60 1.20 0.75 0.40 0.70 -0.55 0 -1.80 -0.15 -2.75 -0.35z"/>
  <path d="M0.80 34.70 c-0.45 -1.25 -0.35 -3.60 0.20 -3.95 0.30 -0.20 0.50 0.30 0.50 1.10 0 0.75 0.15 1.90 0.30 2.55 0.35 1.25 -0.55 1.55 -1 0.30z"/>
  <path d="M0 27.15 c0 -1.25 0.95 -9.55 1.30 -11.50 0.20 -0.90 0.60 -1.65 0.95 -1.65 0.55 0 0.55 0.50 -0.05 2.65 -0.35 1.40 -0.70 4.55 -0.70 7 0 3.55 -0.15 4.35 -0.75 4.35 -0.40 0 -0.75 -0.40 -0.75 -0.85z"/>
  <path d="M34.15 19.25 c0 -1.35 0.10 -1.90 0.20 -1.10 0.10 0.75 0.10 1.85 0 2.50 -0.10 0.60 -0.20 0 -0.20 -1.40z"/>
  <path d="M31 14.05 c-1.35 -2.15 -1.55 -2.70 -0.95 -3.10 1.15 -0.70 1.55 -0.30 2.30 2.25 1.05 3.50 0.55 3.80 -1.35 0.85z"/>
  <path d="M34.15 14.75 c0 -1.10 0.10 -1.50 0.20 -0.85 0.10 0.60 0.10 1.50 0 2 -0.15 0.45 -0.25 -0.05 -0.20 -1.15z"/>
  <path d="M34.05 7.40 c0.05 -0.35 0.25 -1.20 0.45 -1.90 0.35 -1.10 0.40 -1.05 0.45 0.65 0.05 1 -0.15 1.85 -0.45 1.85 -0.25 0 -0.50 -0.30 -0.45 -0.60z"/>
  <path d="M16.15 5.90 c-1.75 -0.25 -3.15 -0.70 -3.15 -0.95 0 -0.80 3.70 -0.45 5.50 0.55 1.95 1.05 2 1.05 -2.35 0.40z"/>
  <path d="M10.90 5.55 c0.40 -0.20 0.65 -0.95 0.60 -1.60 -0.20 -2.20 0 -2.95 0.70 -2.95 0.40 0 0.85 -0.30 0.95 -0.60 0.20 -0.50 0.30 -0.50 0.30 0 0.05 0.70 1.55 0.85 1.55 0.10 0 -0.25 0.45 -0.50 1 -0.50 1.35 0 1.25 0.30 -0.35 1.75 -0.95 0.85 -1.80 1.15 -2.50 1 -1.20 -0.30 -1.65 0.50 -0.50 0.90 0.70 0.25 -0.95 2.35 -1.85 2.35 -0.30 0 -0.25 -0.20 0.10 -0.45z"/>
  <path d="M20.10 4.15 c-2 -0.70 -3.55 -1.35 -3.45 -1.50 0.60 -0.55 3.45 -0.25 4.25 0.50 0.45 0.40 1.40 0.85 2.05 0.95 0.70 0.05 1.30 0.45 1.45 0.80 0.25 0.80 0 0.75 -4.30 -0.75z"/>
 </g>
 <g fill="#9f1334">
  <path d="M27.85 11.15 c-0.55 -0.50 -0.40 -3.65 0.15 -3.65 0.30 0 0.50 0.90 0.50 2 0 2.05 -0.10 2.25 -0.65 1.65z"/>
  <path d="M30.40 10.90 c0.60 -0.30 1.10 -1 1.10 -1.55 0 -0.95 -0.05 -0.95 -0.90 -0.20 -1.10 1 -1.90 0.55 -0.85 -0.45 0.35 -0.40 0.75 -0.95 0.85 -1.30 0.35 -1 1.90 0.50 1.90 1.80 0 1.40 -0.90 2.30 -2.20 2.25 -1 0 -1 -0.05 0.10 -0.55z"/>
  <path d="M14.15 10.15 c-0.35 -0.10 -0.65 -0.85 -0.65 -1.55 l0.05 -1.35 0.75 1.40 c0.55 1.05 1 1.30 1.75 1.10 0.55 -0.20 0.95 -0.10 0.95 0.20 0 0.55 -1.75 0.70 -2.85 0.20z"/>
  <path d="M17.90 9 c-0.90 -0.85 -1.20 -2 -0.50 -2 0.90 0.05 1.65 0.95 1.50 1.85 -0.15 0.95 -0.20 0.95 -1 0.15z"/>
  <path d="M15 7.95 c0 -0.55 0.25 -0.85 0.50 -0.70 0.30 0.15 0.50 0.65 0.50 1.05 0 0.40 -0.20 0.70 -0.50 0.70 -0.25 0 -0.50 -0.45 -0.50 -1.05z"/>
 </g>
 <g fill="#62464d">
  <path d="M2.50 38.90 c0 -0.95 0.10 -1 0.50 -0.40 0.65 0.95 0.65 1.50 0 1.50 -0.25 0 -0.50 -0.50 -0.50 -1.10z"/>
  <path d="M5.15 39.65 c0.20 -0.15 -0.05 -0.55 -0.50 -0.90 -0.40 -0.30 -0.70 -0.80 -0.60 -1.10 0.10 -0.30 0.85 0.10 1.60 0.90 1.40 1.40 1.40 1.45 0.30 1.45 -0.60 0 -0.95 -0.15 -0.80 -0.35z"/>
  <path d="M32.25 29.25 c1.85 -5.05 2.10 -5.60 2.45 -5.20 0.30 0.30 -3 8.95 -3.65 9.60 -0.35 0.35 0.20 -1.65 1.20 -4.40z"/>
  <path d="M34 19.75 c0 -2.15 0.20 -3.75 0.50 -3.75 0.30 0 0.50 0.75 0.50 1.65 0 1.20 0.15 1.40 0.50 0.85 0.65 -1 0.65 -11.65 0 -11.25 -0.25 0.15 -0.50 1.85 -0.50 3.80 0 1.90 -0.20 3.45 -0.50 3.45 -0.95 0 -1.05 -3.45 -0.25 -7.90 0.95 -5.15 1.85 -5.95 2.75 -2.45 0.30 1.15 0.75 2.75 1 3.55 0.65 2 0.65 5.80 0 4.80 -0.45 -0.65 -0.50 -0.65 -0.50 0 -0.05 1.50 -1.40 8.30 -1.95 9.65 -0.95 2.45 -1.55 1.50 -1.55 -2.40z"/>
  <path d="M32.10 11.85 c-0.05 -2.05 -0.30 -2.95 -0.85 -3.15 -0.80 -0.35 -1.05 -1.70 -0.30 -1.70 1.10 0 1.60 1.60 1.40 4.60 l-0.15 3.15 -0.10 -2.90z"/>
  <path d="M14.50 10.85 c0 -0.40 -0.55 -0.95 -1.25 -1.25 -0.70 -0.30 -1.25 -0.90 -1.25 -1.35 0 -1.20 1.80 -0.85 2.40 0.50 0.35 0.70 0.95 1.20 1.45 1.15 1.85 -0.15 2.65 0.10 2.65 0.85 0 0.55 -0.55 0.75 -2 0.75 -1.35 0 -2 -0.20 -2 -0.65z"/>
  <path d="M17.90 8.90 c-0.90 -1.15 -1.15 -1.90 -0.60 -1.90 0.65 0 3.70 2.10 3.70 2.55 0 0.90 -2.25 0.40 -3.10 -0.65z"/>
  <path d="M6.50 3.05 c0 -0.30 0.45 -0.85 1.05 -1.25 0.60 -0.40 0.90 -0.95 0.70 -1.25 -0.20 -0.35 0.20 -0.55 0.95 -0.55 1.60 0 1.60 0.15 0.20 2 -1 1.40 -2.90 2.05 -2.90 1.05z"/>
 </g>
 <g fill="#ae2245">
  <path d="M14.15 10.15 c-0.35 -0.10 -0.65 -0.70 -0.65 -1.30 l0 -1.05 0.80 1.10 c0.55 0.75 1.25 1.10 2.50 1.10 0.95 0 1.70 -0.20 1.70 -0.50 0 -0.25 -0.20 -0.50 -0.45 -0.50 -0.55 0 -1.20 -1.55 -0.80 -1.90 0.45 -0.45 2.25 1.50 2.25 2.50 0 0.75 -0.40 0.90 -2.35 0.85 -1.35 0 -2.70 -0.15 -3 -0.30z"/>
  <path d="M31.50 9.25 c0 -0.40 -0.20 -0.75 -0.50 -0.75 -0.25 0 -0.50 -0.35 -0.50 -0.75 0 -0.65 0.20 -0.70 1 -0.25 1 0.55 1.40 2.50 0.50 2.50 -0.25 0 -0.50 -0.35 -0.50 -0.75z"/>
 </g>
 <g fill="#4c5476">
  <path d="M21 35.35 c0 -0.35 -0.65 -1.15 -1.50 -1.75 -0.80 -0.65 -1.50 -1.35 -1.50 -1.65 0 -0.30 -0.80 -2.15 -1.80 -4.20 -1 -2.05 -1.70 -3.85 -1.55 -4.10 0.15 -0.20 -0.10 -1.85 -0.45 -3.65 -1.10 -4.90 -1.30 -9 -0.40 -9 1.15 0 0.80 -0.70 -1.10 -1.90 -0.95 -0.60 -1.60 -1.35 -1.45 -1.60 0.40 -0.65 1.75 -0.05 3 1.30 1 1.15 1.65 1.40 3.40 1.25 1.10 -0.05 1.10 -1.50 0 -2.35 -0.50 -0.35 -0.65 -0.70 -0.35 -0.70 0.30 0 0.85 0.35 1.20 0.75 0.35 0.40 0.90 0.75 1.30 0.75 1.25 0 1.30 1.10 0.15 2.30 l-1.20 1.25 1.25 0.95 c1.45 1.10 1.80 1.20 2.25 0.50 0.60 -0.95 1.25 -0.50 1.25 0.90 l0.05 1.35 0.85 -1.35 c1.05 -1.80 1.45 -1.75 1.50 0.05 0 1.25 -0.20 1.50 -1.30 1.65 -1.85 0.20 -2.10 2.35 -0.50 4.40 1.35 1.70 2.05 1.80 3.80 0.55 0.75 -0.50 2.10 -1.30 3 -1.75 1.60 -0.80 1.60 -0.80 1.60 0.45 0 0.80 -0.30 1.25 -0.75 1.25 -0.50 0 -0.75 0.50 -0.75 1.50 0 0.85 -1.30 4.15 -3 7.50 l-3 6 -2 0 c-1.30 0 -2 -0.20 -2 -0.65z m6.20 -6.20 c0.60 -1.50 -0.20 -1.95 -3.35 -1.90 -2.80 0 -3.10 0.10 -3.25 1.10 -0.35 2.30 5.75 3.05 6.60 0.80z m-6.50 -3.45 c0.75 -0.75 3.35 -1.70 4.65 -1.70 1.05 0 0.70 0.85 -0.45 1.25 -0.65 0.15 -0.90 0.40 -0.60 0.55 0.30 0.15 1.20 -0.05 2 -0.40 0.80 -0.30 1.80 -0.60 2.20 -0.60 0.45 -0.05 0.75 -0.65 0.85 -1.70 0.15 -1.75 -0.20 -2 -1.05 -0.80 -0.35 0.45 -1.40 0.85 -2.35 0.95 -4.50 0.40 -7.45 1.50 -7.45 2.85 0 0.70 1.40 0.45 2.20 -0.40z m0.30 -10.15 c0 -0.25 -0.35 -0.55 -0.75 -0.75 -0.75 -0.25 -1 0.25 -0.40 0.85 0.45 0.50 1.15 0.45 1.15 -0.10z"/>
  <path d="M22.75 29.50 c0.15 -0.25 0.75 -0.50 1.30 -0.50 0.55 0 0.85 0.25 0.70 0.50 -0.15 0.30 -0.75 0.50 -1.30 0.50 -0.55 0 -0.85 -0.20 -0.70 -0.50z"/>
  <path d="M1.35 35.15 c-0.20 -0.15 -0.35 -1.25 -0.30 -2.35 l0.05 -2.05 0.45 2.20 c0.45 2.25 0.40 2.80 -0.20 2.20z"/>
  <path d="M4.15 34.50 c-0.90 -0.55 -1.65 -1.20 -1.65 -1.45 0 -0.60 3.40 1 3.70 1.80 0.35 0.90 -0.20 0.80 -2.05 -0.35z"/>
  <path d="M13.50 33.95 c-5.70 -2.65 -9.25 -5.25 -10.25 -7.45 -0.50 -1.10 -0.75 -2.15 -0.60 -2.35 0.20 -0.15 0.35 0.10 0.35 0.60 0 0.70 0.15 0.80 0.55 0.40 0.35 -0.35 0.40 -1.40 0.15 -2.95 -0.35 -2.30 -0.40 -2.35 -0.75 -0.95 -0.30 1.35 -0.35 1.30 -0.40 -0.60 0 -1.20 0.20 -2.15 0.45 -2.15 0.30 0 0.50 -1.35 0.50 -3 0 -2.25 0.15 -3 0.70 -3 0.40 0 0.85 -0.40 1 -0.85 0.15 -0.50 0.20 1.15 0.20 3.60 -0.10 6.65 0.10 8.70 0.55 7.50 0.25 -0.55 0.30 -1.75 0.15 -2.60 -0.30 -2.20 0.45 -2.10 1.65 0.25 0.55 1 1.75 2.80 2.60 4 1.40 1.85 1.65 2.60 1.65 5.05 l0 2.90 2.90 1.55 c3.65 2 2.80 2.05 -1.40 0.05z m-3.25 -6.70 c-0.45 -1 -0.95 -1.70 -1.10 -1.55 -0.15 0.15 0.10 1.10 0.60 2.05 0.45 1 0.95 1.70 1.10 1.55 0.15 -0.15 -0.10 -1.10 -0.60 -2.05z m-2.95 -1.50 c-0.55 -1.75 -1.30 -2.35 -1.30 -1 0 1.05 1.10 3.25 1.50 3 0.20 -0.10 0.10 -1 -0.20 -2z"/>
  <path d="M1.05 21.65 c-0.05 -2.55 0.15 -4.65 0.35 -4.65 0.40 0 0.25 7.60 -0.15 8.75 -0.10 0.30 -0.20 -1.60 -0.20 -4.10z"/>
  <path d="M29.10 17.60 c-1 -1 -3.10 -6 -3.10 -7.35 0 -0.40 0.55 -1.35 1.25 -2.10 l1.20 -1.40 0.05 2.25 c0 1.75 0.40 2.90 1.75 4.95 1 1.50 1.75 3.05 1.65 3.50 -0.25 1.15 -1.70 1.25 -2.80 0.15z"/>
  <path d="M34.15 15.50 c0 -1.25 0.10 -1.75 0.20 -1.10 0.10 0.60 0.10 1.60 0 2.25 -0.10 0.60 -0.20 0.10 -0.20 -1.15z"/>
  <path d="M2.05 14.65 c-0.05 -1.20 0.20 -2.15 0.45 -2.15 0.60 0 0.60 1.20 0 3 -0.35 1.05 -0.40 0.95 -0.45 -0.85z"/>
  <path d="M6.30 14.65 c0.45 -2.65 2.10 -6.40 3.25 -7.45 1.10 -1 1.25 -0.35 0.25 1.10 -0.40 0.55 -1.20 2.50 -1.80 4.35 -1.25 3.80 -2.25 5 -1.70 2z"/>
  <path d="M31.05 13.90 c-1.50 -2.60 -1.50 -2.65 -0.50 -3.10 0.75 -0.35 0.95 -0.85 0.80 -1.65 -0.15 -0.70 0.05 -1.15 0.40 -1.15 0.45 0 0.70 1.25 0.85 4.15 0.10 2.25 0.15 4.20 0.10 4.25 -0.05 0.10 -0.80 -1 -1.65 -2.50z"/>
  <path d="M0 9 c0 -0.55 0.15 -1 0.40 -1 0.20 0 0.80 -0.90 1.30 -2 0.85 -1.75 1.40 -2.30 1.95 -1.85 0.10 0.05 0.60 -0.20 1.05 -0.60 0.80 -0.70 0.85 -0.60 0.70 0.75 -0.10 1.05 -0.45 1.50 -1.20 1.60 -0.85 0.10 -1.15 0.60 -1.40 2.15 -0.25 1.65 -0.50 1.95 -1.55 1.95 -0.90 0 -1.25 -0.25 -1.25 -1z"/>
  <path d="M8.55 5.15 c0.40 -0.50 1.65 -1.85 2.80 -3 1.75 -1.80 2.45 -2.15 4 -2.15 l1.90 0.05 -1.60 1.45 c-1.05 0.95 -1.90 1.35 -2.60 1.15 -1.10 -0.30 -1.50 0.60 -0.40 1 0.40 0.15 0.35 0.50 -0.35 1.30 -1.15 1.25 -2.05 1.40 -1.60 0.20 0.30 -0.80 0.30 -0.80 -0.60 0 -1.30 1.20 -2.45 1.15 -1.55 0z"/>
  <path d="M13.25 5 c0.40 -0.65 2.75 -0.65 3.75 0 0.55 0.35 0.10 0.50 -1.65 0.50 -1.50 0 -2.30 -0.20 -2.10 -0.50z"/>
  <path d="M7.50 3.90 c0 -0.75 0.25 -1.50 0.55 -1.65 0.95 -0.60 1.05 0.10 0.25 1.60 l-0.75 1.40 -0.05 -1.35z"/>
 </g>
 <g fill="#685a63">
  <path d="M0 34.25 c0 -2 1.20 -2.45 1.70 -0.60 0.50 1.85 0.35 2.35 -0.70 2.35 -0.80 0 -1 -0.35 -1 -1.75z"/>
  <path d="M32.10 30 c0.25 -0.85 0.75 -1.65 1.05 -1.85 0.35 -0.20 0.40 0 0.15 0.65 -0.25 0.50 -0.55 1.35 -0.65 1.85 -0.15 0.45 -0.45 0.85 -0.70 0.85 -0.20 0 -0.15 -0.70 0.15 -1.50z"/>
  <path d="M0 21.10 c0 -6.80 0.10 -7.45 1 -8.10 0.60 -0.40 1 -1.30 1 -2.10 0 -0.85 0.25 -1.40 0.70 -1.40 0.80 0 0.65 2.45 -0.50 7.05 -0.35 1.50 -0.70 4.85 -0.75 7.35 -0.05 3.55 -0.20 4.60 -0.75 4.60 -0.55 0 -0.70 -1.40 -0.70 -7.40z"/>
  <path d="M33.85 25 c0.15 -1.25 0.35 -6.20 0.40 -11 0.05 -6.75 0.25 -9.15 0.85 -10.45 0.40 -0.90 0.90 -1.45 1.10 -1.15 0.60 0.95 2.30 6.85 2.25 7.85 l0 1 -0.45 -1 c-0.50 -1.15 -0.55 -1.10 -0.75 1.50 -0.35 4.65 -1.30 9.40 -2.50 12.35 -1.25 3.10 -1.25 3.15 -0.90 0.90z m2.15 -12.25 c0.10 -3.05 0.10 -6.05 0 -6.75 l-0.10 -1.25 -0.40 1.25 c-0.55 1.65 -0.55 14.55 -0.05 13.25 0.25 -0.55 0.50 -3.50 0.55 -6.50z"/>
  <path d="M22.50 25.10 c0 -0.60 2.90 -1.35 3.35 -0.90 0.45 0.45 0.10 0.65 -1.70 1.05 -1 0.20 -1.65 0.15 -1.65 -0.15z"/>
  <path d="M22.50 23 c0 -0.25 0.60 -0.50 1.40 -0.45 1.20 0 1.25 0.05 0.35 0.45 -1.35 0.60 -1.75 0.60 -1.75 0z"/>
  <path d="M3.65 14.75 c-0.05 -3.90 0.45 -5.25 1.80 -5.25 0.80 0 0.85 0.20 0.35 1.75 -0.30 0.95 -0.70 1.75 -0.90 1.75 -0.25 0 -0.40 0.60 -0.45 1.40 -0.10 3.35 -0.80 3.70 -0.80 0.35z"/>
  <path d="M7 12.20 c0 -1 0.90 -2.70 1.45 -2.70 0.25 0 0.20 0.80 -0.10 1.75 -0.55 1.80 -1.35 2.35 -1.35 0.95z"/>
  <path d="M17 10.50 c0 -0.25 0.35 -0.50 0.75 -0.50 0.95 0 0.95 -0.45 -0.10 -1.60 -1.10 -1.25 0.15 -1.20 1.80 0.05 1.60 1.20 1.10 2.55 -0.95 2.55 -0.80 0 -1.50 -0.20 -1.50 -0.50z"/>
  <path d="M31.10 8.50 c-0.85 -1.40 -0.75 -1.60 0.40 -1 0.55 0.30 1 0.85 1 1.25 0 1.05 -0.65 0.95 -1.40 -0.25z"/>
  <path d="M6.45 7.25 c-0.05 -1.10 -0.05 -2.55 0 -3.25 0.10 -1.25 1.80 -2.95 2.95 -3 0.80 0 -0.60 2.35 -2.10 3.60 -0.65 0.55 -0.80 0.90 -0.40 0.90 0.40 0 0.50 0.25 0.30 0.65 -0.40 0.65 1.80 -1.05 2.40 -1.90 1.35 -1.90 2.75 -3.25 3.30 -3.25 0.35 0 0.50 -0.25 0.35 -0.50 -0.15 -0.25 0.15 -0.50 0.70 -0.50 1.75 0 1.35 1.85 -0.45 2.25 -1.55 0.35 -1.95 1 -0.85 1.40 0.40 0.15 0.25 0.60 -0.50 1.40 -1.25 1.30 -2.15 0.95 -1.15 -0.40 0.35 -0.50 -0.55 0.35 -1.95 1.85 l-2.55 2.75 -0.05 -2z"/>
  <path d="M8.50 8.60 c0 -0.25 0.45 -0.85 1 -1.35 1.10 -1 1.30 -0.45 0.30 0.90 -0.70 0.90 -1.30 1.10 -1.30 0.45z"/>
  <path d="M2 5.80 c0 -0.35 0.35 -0.95 0.75 -1.30 0.40 -0.35 0.75 -0.45 0.75 -0.25 0 0.25 0.45 0 1 -0.50 1.35 -1.20 1.80 -0.65 1 1.25 -0.50 1.20 -0.95 1.50 -2.05 1.50 -0.90 0 -1.45 -0.25 -1.45 -0.70z"/>
 </g>
 <g fill="#636d8d">
  <path d="M4.45 34.55 l-1.20 -1 1.15 0.30 c1.15 0.25 1.90 1 1.45 1.45 -0.10 0.10 -0.75 -0.20 -1.40 -0.75z"/>
  <path d="M25 34.25 c0 -0.85 -1.55 -1 -2.35 -0.20 -1 1 -2.50 -0.05 -3.85 -2.60 -1.50 -2.95 -1.60 -3.45 -0.50 -3.45 0.40 0 0.60 -0.25 0.45 -0.50 -0.45 -0.70 1.95 -1.50 4.55 -1.50 1.25 0 2.75 -0.25 3.30 -0.55 0.80 -0.40 1.10 -0.40 1.45 0.10 0.30 0.55 0.55 0.50 1.15 -0.30 0.40 -0.55 0.85 -0.85 1.05 -0.65 0.30 0.30 -4.65 10.40 -5.05 10.40 -0.10 0 -0.20 -0.35 -0.20 -0.75z m1.75 -4.25 c0.90 -0.75 1.05 -3.75 0.15 -3.20 -0.35 0.20 -1.95 0.40 -3.65 0.40 -2.85 0.05 -3 0.10 -3.15 1.35 -0.10 0.90 0.15 1.45 1 1.85 1.35 0.70 4.65 0.45 5.65 -0.40z"/>
  <path d="M9.75 31.95 c-1.35 -0.85 -3.10 -1.90 -3.85 -2.35 -0.75 -0.45 -1.55 -1.20 -1.70 -1.60 -0.15 -0.40 -0.40 -4.15 -0.45 -8.35 -0.15 -7.25 -0.10 -7.55 0.85 -7.80 1 -0.30 1 -0.15 0.70 4.55 -0.35 4.45 0 7.65 1 10.35 0.25 0.65 0.20 0.80 -0.20 0.55 -0.40 -0.20 -0.60 0 -0.60 0.55 0 0.55 0.85 1.35 2.25 2.10 2.60 1.35 5.65 3.55 4.95 3.55 -0.25 0 -1.55 -0.70 -2.95 -1.55z"/>
  <path d="M0 27.25 c0 -1.95 0.70 -2.35 1.20 -0.60 0.45 1.75 0.35 2.35 -0.45 2.35 -0.50 0 -0.75 -0.55 -0.75 -1.75z"/>
  <path d="M21.75 25.10 c0.65 -0.65 4.25 -1.25 4.25 -0.70 0 0.25 -0.30 0.45 -0.60 0.50 -0.35 0.05 -1.45 0.25 -2.40 0.40 -1.15 0.20 -1.60 0.15 -1.25 -0.20z"/>
  <path d="M16 21.60 c-0.30 -1.55 -1.05 -4.30 -1.55 -6.05 -1.15 -3.90 -1.20 -4.55 -0.20 -4.55 1.10 0 0.90 -0.85 -0.25 -1.15 -0.55 -0.15 -1 -0.60 -1 -1.05 0 -1.10 0.65 -1 1.40 0.20 0.75 1.25 3.85 1.40 4.50 0.25 0.40 -0.75 2.10 -0.60 2.10 0.20 0 0.20 -1 1.20 -2.25 2.20 -2.55 2.15 -2.75 3.05 -1 4.45 0.70 0.55 1.25 1.50 1.25 2.15 0 0.80 0.45 1.40 1.55 1.95 1.45 0.70 1.50 0.70 1.20 -0.25 -0.50 -1.45 0.40 -1.15 2.15 0.80 l1.60 1.75 -1.80 0.75 c-2.20 0.90 -3.30 0.95 -4.05 0.20 -0.45 -0.45 -0.90 -0.40 -1.80 0.20 l-1.20 0.80 -0.65 -2.85z"/>
  <path d="M30.50 22.30 c0 -0.40 -0.35 -0.85 -0.80 -1 -1 -0.40 -0.55 -1.05 1.30 -2 1.45 -0.70 1.50 -0.70 1.50 0.50 0 1.45 -0.80 3.20 -1.50 3.20 -0.30 0 -0.50 -0.30 -0.50 -0.70z"/>
  <path d="M28.10 14.30 c-1.60 -3.55 -1.65 -3.80 -0.90 -4.90 0.65 -0.95 0.80 -1 0.80 -0.25 0 1.05 1.75 4.60 3.05 6.30 1.25 1.60 1.20 2.55 -0.15 2.55 -0.95 0 -1.45 -0.70 -2.80 -3.70z"/>
  <path d="M34.10 15.50 c0 -0.95 0.10 -1.35 0.25 -0.85 0.10 0.45 0.10 1.25 0 1.75 -0.15 0.45 -0.25 0.05 -0.25 -0.90z"/>
  <path d="M0.10 14.75 c-0.05 -1.40 0.10 -1.75 0.85 -1.75 0.55 0 1.05 -0.30 1.20 -0.60 0.10 -0.35 0.40 -0.50 0.60 -0.30 0.25 0.25 0.15 1.30 -0.20 2.40 -0.80 2.65 -2.35 2.80 -2.45 0.25z"/>
  <path d="M31.70 14.75 c-0.40 -0.65 -0.65 -1.45 -0.45 -1.75 0.20 -0.30 0.05 -0.45 -0.30 -0.40 -1.25 0.30 -1 -1.40 0.35 -2.05 1.25 -0.55 1.30 -0.50 1.05 0.55 -0.20 0.65 -0.10 2 0.10 3.05 0.50 2.15 0.35 2.30 -0.75 0.60z"/>
  <path d="M6.65 13.70 c0.40 -2.25 2.35 -6.35 3.25 -6.60 0.40 -0.10 0.30 0.40 -0.35 1.50 -0.50 0.90 -1.30 2.85 -1.80 4.30 -0.95 3 -1.50 3.40 -1.10 0.80z"/>
  <path d="M0 9.50 c0 -0.55 0.25 -1 0.50 -1 0.30 0 0.50 -0.30 0.50 -0.60 0 -1.10 2.15 -4.20 2.40 -3.50 0.15 0.50 0.35 0.50 0.90 0.05 0.55 -0.45 0.70 -0.40 0.70 0.35 0 1.55 -1.15 4.20 -1.85 4.20 -0.35 0 -0.65 0.35 -0.65 0.75 0 0.45 -0.45 0.75 -1.25 0.75 -0.90 0 -1.25 -0.25 -1.25 -1z"/>
  <path d="M31.05 8.45 c-0.55 -0.95 -0.55 -1.05 0.20 -0.75 0.45 0.15 0.95 0.30 1.05 0.30 0.10 0 0.20 0.35 0.20 0.75 0 1.05 -0.65 0.95 -1.45 -0.30z"/>
  <path d="M5 8.60 c0 -0.20 0.45 -1.80 1.05 -3.50 0.80 -2.35 1.25 -3.10 2 -3.10 0.50 0 0.95 0.10 0.95 0.25 0 0.75 -2.10 4.25 -2.50 4.25 -0.30 0 -0.50 0.55 -0.50 1.25 0 0.70 -0.20 1.25 -0.50 1.25 -0.25 0 -0.50 -0.20 -0.50 -0.40z"/>
  <path d="M7 7.70 c0 -0.55 0.70 -1.65 1.50 -2.45 1.95 -1.90 1.95 -0.60 0 1.75 -1.25 1.45 -1.50 1.55 -1.50 0.70z"/>
  <path d="M13.10 1.65 c0.10 -0.60 0.70 -0.95 1.80 -1.05 l1.65 -0.15 -1 1 c-1.30 1.30 -2.70 1.40 -2.45 0.20z"/>
 </g>
 <g fill="#937375">
  <path d="M2.65 39.10 c-0.15 -0.65 -0.65 -1.10 -1.20 -1.10 -0.75 0 -0.95 -0.35 -0.95 -1.75 0 -2.65 1.15 -2.15 2.10 0.90 0.45 1.40 0.70 2.70 0.60 2.85 -0.15 0.10 -0.35 -0.30 -0.55 -0.90z"/>
  <path d="M33.60 25.80 c2.35 -6.95 2.45 -7.45 2.55 -13.40 0.05 -3.40 -0.10 -7.15 -0.35 -8.40 -0.30 -1.65 -0.25 -2.10 0.15 -1.70 0.85 0.80 2.60 7.70 2.40 9.40 -0.15 1.20 -0.20 1.05 -0.25 -0.65 -0.15 -3.15 -0.65 -2.20 -0.90 1.55 -0.10 1.75 -0.45 4.35 -0.75 5.85 -0.65 3.10 -4.20 13.50 -4.85 14.15 -0.25 0.25 0.65 -2.80 2 -6.80z"/>
  <path d="M34.15 17.05 c-0.05 -2.25 0.05 -2.90 0.35 -2.05 0.50 1.65 0.60 4.90 0.15 5.15 -0.25 0.15 -0.45 -1.25 -0.50 -3.10z"/>
  <path d="M31.10 8.50 c-0.65 -1.05 -0.30 -1.25 0.90 -0.50 0.50 0.30 0.60 0.60 0.25 0.95 -0.35 0.35 -0.70 0.20 -1.15 -0.45z"/>
  <path d="M34.65 6.75 c0 -1.10 0.10 -1.50 0.20 -0.85 0.10 0.60 0.10 1.50 0 2 -0.15 0.45 -0.25 -0.05 -0.20 -1.15z"/>
 </g>
 <g fill="#6579a4">
  <path d="M23.10 32.15 c0.10 -0.50 0.85 -1 1.80 -1.20 2 -0.40 2.65 -1.20 4 -5.05 0.80 -2.15 0.95 -3.25 0.60 -4.15 -0.50 -1.35 -0.10 -1.80 1.80 -2.05 1.60 -0.15 1.25 1.25 -1.90 7.35 -1.80 3.50 -2.95 5.20 -3.75 5.50 -1.85 0.70 -2.75 0.55 -2.55 -0.40z"/>
  <path d="M4.30 27.90 c-0.55 -0.75 -0.60 -1.30 -0.25 -2 0.80 -1.50 1.35 -1.05 1.25 1.10 0 1.10 -0.10 2 -0.15 2 -0.05 0 -0.45 -0.50 -0.85 -1.10z"/>
  <path d="M20.25 26.50 c1.40 -0.60 2.75 -0.60 2.75 0 0 0.30 -0.85 0.50 -1.85 0.45 -1.55 0 -1.70 -0.10 -0.90 -0.45z"/>
  <path d="M24.50 26.55 c0 -0.25 0.40 -0.55 0.90 -0.70 0.45 -0.10 1.25 -0.40 1.75 -0.60 0.85 -0.35 0.90 -0.30 0.30 0.70 -0.65 1 -2.95 1.50 -2.95 0.60z"/>
  <path d="M24.50 24.50 c0 -0.25 0.35 -0.50 0.75 -0.50 0.40 0 0.75 0.25 0.75 0.50 0 0.30 -0.35 0.50 -0.75 0.50 -0.40 0 -0.75 -0.20 -0.75 -0.50z"/>
  <path d="M29.65 17.45 c-0.30 -0.30 -0.45 -0.90 -0.30 -1.25 0.15 -0.35 -0.25 -1.45 -0.85 -2.45 -0.60 -0.95 -0.90 -2 -0.70 -2.30 0.20 -0.30 1.10 0.65 2.15 2.40 1.50 2.30 1.75 3.05 1.25 3.55 -0.75 0.75 -0.85 0.75 -1.55 0.05z"/>
  <path d="M31.60 14.45 c-0.35 -0.55 -0.55 -1.20 -0.40 -1.35 0.50 -0.45 1.40 0.75 1.20 1.60 -0.10 0.70 -0.25 0.65 -0.80 -0.25z"/>
  <path d="M15.95 11 l-1.20 -0.95 1.85 -0.05 c1.85 0 2.95 -0.70 1.80 -1.15 -0.35 -0.15 -0.15 -0.30 0.40 -0.30 0.90 -0.05 2.15 1.30 1.60 1.70 -3.05 2.10 -2.90 2.05 -4.45 0.75z"/>
  <path d="M30 11.60 c0 -0.25 0.60 -0.70 1.30 -1.05 1.15 -0.50 1.30 -0.50 1 0.20 -0.15 0.45 -0.30 0.95 -0.30 1.05 0 0.10 -0.45 0.20 -1 0.20 -0.55 0 -1 -0.20 -1 -0.40z"/>
  <path d="M11.75 8.50 c-0.90 -0.95 -0.85 -1 0.15 -1 0.75 0 1.10 0.30 1.10 1 0 0.55 -0.10 1 -0.15 1 -0.10 0 -0.60 -0.45 -1.10 -1z"/>
  <path d="M31.50 8.90 c0 -0.45 -0.30 -0.95 -0.60 -1.05 -0.35 -0.15 -0.40 -0.30 -0.15 -0.30 0.30 0 0.85 0.20 1.25 0.45 0.60 0.35 0.60 0.60 0.10 1.10 -0.45 0.45 -0.60 0.45 -0.60 -0.20z"/>
 </g>
 <g fill="#797f9c">
  <path d="M26.25 31 c0.50 -0.55 1 -0.90 1.15 -0.75 0.35 0.30 -0.90 1.75 -1.55 1.75 -0.25 0 -0.10 -0.45 0.40 -1z"/>
  <path d="M0 28.25 c0 -2.40 0.70 -3 1.20 -1.10 0.50 1.95 0.35 3.35 -0.45 3.35 -0.55 0 -0.75 -0.60 -0.75 -2.25z"/>
  <path d="M4.30 28.15 c-0.45 -1.65 -0.30 -6.65 0.20 -6.65 0.30 0 0.50 0.15 0.50 0.40 0.05 0.20 0.25 1.30 0.45 2.50 0.25 1.30 0.25 2.10 -0.05 2.10 -0.30 0 -0.35 0.55 -0.20 1.25 0.35 1.40 -0.50 1.75 -0.90 0.40z"/>
  <path d="M21.25 26.50 c0.15 -0.25 1.40 -0.50 2.70 -0.50 1.30 0 2.65 -0.30 3 -0.60 0.55 -0.55 0.65 -0.50 0.35 0.25 -0.15 0.50 -0.30 1.05 -0.30 1.15 0 0.10 -1.35 0.20 -3.05 0.20 -1.85 0 -2.90 -0.20 -2.70 -0.50z"/>
  <path d="M22.50 25.10 c0 -0.50 2.55 -1.20 2.95 -0.80 0.35 0.30 -0.10 0.60 -1.60 0.95 -0.80 0.20 -1.35 0.15 -1.35 -0.15z"/>
  <path d="M0 21.25 c0 -1.20 0.25 -1.75 0.75 -1.75 0.80 0 0.90 0.60 0.45 2.40 -0.50 1.70 -1.20 1.30 -1.20 -0.65z"/>
  <path d="M0 16.35 c0 -0.35 0.25 -0.90 0.60 -1.25 0.45 -0.45 0.45 -0.60 0 -0.60 -0.35 0 -0.60 -0.45 -0.60 -1 0 -0.55 0.25 -1 0.50 -1 0.30 0 0.50 -0.35 0.50 -0.75 0 -0.40 -0.20 -0.75 -0.50 -0.75 -0.25 0 -0.50 -0.45 -0.50 -1 0 -0.55 0.25 -1 0.50 -1 0.30 0 0.50 -0.30 0.50 -0.70 0 -0.35 0.45 -1.25 1 -1.95 0.60 -0.75 1 -1.45 1 -1.60 -0.05 -0.20 0.10 -0.50 0.30 -0.65 0.20 -0.20 0.20 -0.05 0 0.30 -0.40 0.65 0.30 0.85 0.90 0.25 0.15 -0.20 0.65 -0.40 1.05 -0.45 0.65 -0.10 0.65 0.05 0 1.20 -0.40 0.75 -1.15 2 -1.70 2.80 -0.65 1 -0.90 1.95 -0.70 2.90 0.45 2.15 -0.80 5.90 -1.90 5.90 -0.55 0 -0.95 -0.30 -0.95 -0.65z"/>
  <path d="M3.80 14.20 c-0.15 -1.25 -0.10 -2.65 0.20 -3.10 0.45 -0.80 0.45 -0.75 0.50 0.05 0 0.45 0.25 0.85 0.50 0.85 0.55 0 0.65 1.65 0.20 3.40 -0.50 1.75 -1.05 1.30 -1.40 -1.20z"/>
  <path d="M6.75 13.25 c0.50 -2.20 2.40 -5.90 3.20 -6.15 0.50 -0.15 0.40 0.25 -0.30 1.20 -0.55 0.80 -1.30 2.35 -1.65 3.45 -0.80 2.50 -1.70 3.60 -1.25 1.50z"/>
  <path d="M17 11 c0 -0.25 0.30 -0.50 0.70 -0.50 1.05 0 1.25 -1.15 0.35 -1.85 -1 -0.80 0.10 -0.90 1.50 -0.15 1.40 0.80 1.15 1.85 -0.60 2.45 -1.95 0.65 -1.95 0.65 -1.95 0.05z"/>
  <path d="M5.75 9.95 c0.20 -0.75 0.10 -1.50 -0.20 -1.65 -0.50 -0.35 0.15 -3.10 1 -4 0.25 -0.30 0.45 -0.85 0.45 -1.30 0 -0.45 0.55 -1.10 1.25 -1.40 1.85 -0.85 1.95 -0.75 0.80 0.85 -0.55 0.75 -1.25 2.05 -1.55 2.85 -0.40 1.20 -0.05 0.95 2.20 -1.40 1.50 -1.60 2.95 -2.90 3.25 -2.90 0.30 0 0.55 -0.20 0.55 -0.50 0 -0.25 0.85 -0.50 1.90 -0.50 l1.85 0 -1.50 1.25 c-0.80 0.65 -2.15 1.20 -2.95 1.25 -0.80 0 -1.30 0.15 -1.10 0.35 0.15 0.20 -0.55 1.25 -1.65 2.35 -1.05 1.15 -2.55 2.95 -3.30 4.05 -1.10 1.65 -1.25 1.75 -1 0.70z"/>
  <path d="M10.50 5.60 c0 -0.65 1.95 -2.30 2.30 -1.95 0.15 0.15 0.15 0.50 -0.05 0.80 -0.45 0.75 -2.25 1.65 -2.25 1.15z"/>
 </g>
 <g fill="#7c89b9">
  <path d="M26 31.65 c0 -0.35 0.25 -0.75 0.55 -0.90 1.10 -0.70 2.95 -5.90 2.95 -8.30 0 -2.60 1 -3.35 1.95 -1.50 0.40 0.75 0.05 1.85 -1.80 5.35 -2.25 4.45 -3.65 6.45 -3.65 5.35z"/>
  <path d="M4.60 28.40 c-0.70 -0.70 -0.80 -1.40 -0.15 -1.40 0.25 0 0.55 0.45 0.70 1 0.30 1.15 0.25 1.20 -0.55 0.40z"/>
  <path d="M21 26.50 c0.40 -0.25 1.75 -0.50 3.05 -0.50 1.25 0 2.50 -0.25 2.85 -0.60 0.35 -0.35 0.60 -0.40 0.60 -0.10 0 1.15 -1.35 1.70 -4.20 1.70 -2.15 0 -2.85 -0.15 -2.30 -0.50z"/>
  <path d="M22.75 24.95 c-0.15 -0.20 0.55 -0.45 1.50 -0.55 0.95 -0.10 1.75 -0.05 1.75 0.15 0 0.45 -3 0.85 -3.25 0.40z"/>
  <path d="M29.85 17.65 c-0.20 -0.15 -0.35 -0.85 -0.35 -1.50 0 -0.70 -0.25 -1.65 -0.55 -2.25 -0.30 -0.55 -0.40 -1.10 -0.30 -1.20 0.30 -0.30 3.35 4.15 3.35 4.85 0 0.50 -1.65 0.60 -2.15 0.10z"/>
  <path d="M30 11.75 c0 -0.10 0.45 -0.45 1 -0.75 0.80 -0.45 1 -0.40 1 0.25 0 0.40 -0.45 0.75 -1 0.75 -0.55 0 -1 -0.10 -1 -0.25z"/>
  <path d="M16.75 11.05 c-0.15 -0.25 0.25 -0.55 0.85 -0.65 0.75 -0.10 1.10 -0.45 1.10 -1.05 -0.10 -1.15 1.45 -0.95 1.70 0.20 0.10 0.55 -0.40 1.05 -1.45 1.40 -1.95 0.65 -1.80 0.65 -2.20 0.10z"/>
 </g>
 <g fill="#98949d">
  <path d="M1 38.25 c0 -1.85 1.15 -2.50 1.65 -0.85 0.10 0.45 0.40 1.25 0.60 1.75 0.30 0.70 0.10 0.85 -0.95 0.85 -1.15 0 -1.30 -0.20 -1.30 -1.75z"/>
  <path d="M0 30 c0 -2.60 0.65 -3.35 1.20 -1.35 0.55 2.05 0.35 3.85 -0.45 3.85 -0.55 0 -0.75 -0.60 -0.75 -2.50z"/>
  <path d="M23.75 26.60 c0.30 -0.25 1.30 -0.60 2.25 -0.80 1.05 -0.20 1.55 -0.15 1.25 0.15 -0.30 0.25 -1.30 0.60 -2.25 0.80 -1.15 0.25 -1.60 0.20 -1.25 -0.15z"/>
  <path d="M4.70 25.45 c-0.60 -1 -0.90 -8.95 -0.30 -8.95 0.40 0 1.20 8.95 0.85 9.40 -0.10 0.10 -0.35 -0.10 -0.55 -0.45z"/>
  <path d="M22.70 24.90 c-0.15 -0.20 0.05 -0.40 0.40 -0.40 0.35 0 1.15 -0.15 1.80 -0.30 0.60 -0.20 1.10 -0.10 1.10 0.20 0 0.60 -2.95 1.10 -3.30 0.50z"/>
  <path d="M0 19 c0 -2 0.20 -3.50 0.50 -3.50 0.30 0 0.50 -0.35 0.50 -0.75 0 -0.40 -0.20 -0.75 -0.50 -0.75 -0.70 0 -0.60 -1.85 0.15 -2.15 0.50 -0.20 0.50 -0.30 0 -0.30 -0.75 -0.05 -0.90 -2.05 -0.20 -2.05 0.25 0 0.55 -0.50 0.70 -1.10 0.35 -1.40 4.85 -5.90 4.85 -4.85 0 0.40 -0.35 1.25 -0.80 1.85 -0.80 1.20 -2.25 5.60 -2.50 7.60 -0.05 0.70 -0.45 3 -0.90 5.15 -0.45 2.15 -0.80 4.05 -0.80 4.15 0 0.10 -0.20 0.20 -0.50 0.20 -0.30 0 -0.50 -1.50 -0.50 -3.50z"/>
  <path d="M34.65 18.25 c0 -1.10 0.10 -1.50 0.20 -0.85 0.10 0.60 0.10 1.50 0 2 -0.15 0.45 -0.25 -0.05 -0.20 -1.15z"/>
  <path d="M36.05 16.25 c0 -1.10 0.20 -2.45 0.45 -3 0.35 -0.80 0.45 -0.55 0.45 1 0 1.10 -0.20 2.45 -0.45 3 -0.35 0.80 -0.45 0.55 -0.45 -1z"/>
  <path d="M3.80 14 c-0.20 -1.40 0 -2.70 0.75 -4.60 0.60 -1.45 1.35 -3.70 1.75 -4.95 0.50 -1.60 1.10 -2.45 1.95 -2.85 1.75 -0.80 2.05 -0.75 1.15 0.30 -1 1.10 -2.40 3.85 -2.40 4.70 0 0.35 0.55 0 1.25 -0.85 2.90 -3.45 4.35 -4.75 5.25 -4.75 0.55 0 1 -0.20 1 -0.50 0 -0.25 0.45 -0.50 1 -0.50 0.55 0 1 0.15 1 0.30 0 0.75 -2.40 2.15 -3.60 2.20 -0.80 0 -1.40 0.30 -1.40 0.65 0 0.35 -0.80 1.45 -1.80 2.40 -2.45 2.35 -4.05 5.25 -4.45 8.10 -0.45 2.85 -1 3.05 -1.45 0.35z"/>
  <path d="M34.05 11.25 c0 -1.35 0.20 -2.95 0.45 -3.50 0.30 -0.75 0.45 -0.35 0.45 1.50 0 1.40 -0.20 2.95 -0.45 3.50 -0.30 0.75 -0.45 0.35 -0.45 -1.50z"/>
  <path d="M7.30 12 c0.40 -1.60 2.20 -5.15 2.45 -4.90 0.10 0.10 -0.50 1.50 -1.30 3.15 -0.85 1.65 -1.35 2.45 -1.15 1.75z"/>
  <path d="M12.60 9.20 c-0.60 -0.40 -1.10 -0.95 -1.10 -1.25 0 -0.85 1.95 -0.45 2.50 0.50 0.95 1.80 0.45 2.05 -1.40 0.75z"/>
  <path d="M17.50 8.25 c-1.05 -1.25 -0.05 -1.55 1.15 -0.35 0.85 0.90 0.90 1.10 0.25 1.10 -0.40 0 -1.05 -0.35 -1.40 -0.75z"/>
  <path d="M36.30 5.90 c-0.15 -0.65 -0.30 -1.70 -0.25 -2.40 0 -1.15 0.05 -1.15 0.40 -0.25 0.75 1.95 1.05 3.75 0.60 3.75 -0.25 0 -0.55 -0.50 -0.75 -1.10z"/>
  <path d="M11.10 4.90 c0.40 -0.60 1 -1.20 1.35 -1.30 1 -0.35 -0.25 1.70 -1.25 2.10 -0.75 0.30 -0.75 0.20 -0.10 -0.80z"/>
 </g>
 <g fill="#8694c4">
  <path d="M28 29 c0 -0.15 0.45 -1.45 1 -2.90 0.55 -1.45 1 -3.15 1 -3.85 0 -0.70 0.25 -1.25 0.50 -1.25 1.20 0 0.95 1.60 -0.70 4.80 -0.95 1.90 -1.75 3.35 -1.80 3.20z"/>
  <path d="M23.80 26.55 c0.25 -0.20 1.20 -0.55 2.15 -0.75 1.45 -0.25 1.60 -0.20 1.05 0.45 -0.35 0.40 -1.30 0.75 -2.15 0.75 -0.90 0 -1.35 -0.20 -1.05 -0.45z"/>
  <path d="M30.15 17.40 c-0.20 -0.35 -0.40 -1.10 -0.45 -1.65 -0.05 -0.55 -0.25 -1.45 -0.45 -2 -0.20 -0.55 0.30 -0.05 1.20 1.15 1.45 1.95 1.65 3.10 0.55 3.10 -0.25 0 -0.60 -0.30 -0.85 -0.60z"/>
  <path d="M18.75 10 c0.20 -0.30 -0.05 -0.85 -0.55 -1.25 -1.45 -1 -0.50 -1.45 1.05 -0.45 1.40 0.90 1.45 1.85 0 2.10 -0.55 0.15 -0.75 0 -0.50 -0.40z"/>
  <path d="M13.40 9.45 c-1.05 -0.60 -1.20 -1.45 -0.20 -1.45 0.35 0 0.80 0.45 0.95 1 0.15 0.55 0.20 1 0.20 1 -0.05 0 -0.50 -0.25 -0.95 -0.55z"/>
 </g>
 <g fill="#b4a9b3">
  <path d="M0.10 37.15 c0.20 -2.45 1.65 -2.90 2.15 -0.70 0.40 1.85 0.05 2.55 -1.30 2.55 -0.85 0 -1 -0.30 -0.85 -1.85z"/>
  <path d="M0 31.25 c0 -1.95 0.70 -2.35 1.20 -0.60 0.45 1.75 0.35 2.35 -0.45 2.35 -0.50 0 -0.75 -0.55 -0.75 -1.75z"/>
  <path d="M4.20 22.20 c-0.15 -1.25 -0.20 -3.85 -0.10 -5.75 0.15 -1.85 0.10 -3.50 -0.15 -3.55 -0.25 -0.10 -0.30 -0.65 -0.15 -1.25 0.15 -0.60 0.55 -1 0.90 -0.85 0.40 0.15 0.50 1.40 0.20 4.60 -0.20 2.40 -0.20 5.40 -0.05 6.75 0.35 3 -0.20 3.10 -0.65 0.05z"/>
  <path d="M36.05 17 c0 -0.70 0.20 -1.70 0.45 -2.25 0.40 -0.90 0.45 -0.90 0.45 0.25 0 0.70 -0.20 1.70 -0.45 2.25 -0.40 0.90 -0.45 0.90 -0.45 -0.25z"/>
  <path d="M34.05 12.40 c-0.05 -1.85 0.15 -3.45 0.35 -3.60 0.25 -0.15 0.30 1.15 0.20 2.85 -0.25 4.35 -0.50 4.70 -0.55 0.75z"/>
  <path d="M1.20 14.25 c0.15 -0.45 0 -0.75 -0.45 -0.75 -0.50 0 -0.75 -0.55 -0.75 -1.75 0 -0.95 0.15 -1.75 0.40 -1.75 0.20 0 0.80 -0.90 1.30 -2 0.50 -1.10 1.35 -2.35 1.90 -2.80 0.85 -0.80 0.90 -0.80 0.90 0.35 0 0.65 -0.35 1.80 -0.70 2.55 -0.40 0.75 -0.90 2.60 -1.05 4.15 -0.25 1.95 -0.60 2.75 -1.10 2.75 -0.45 0 -0.65 -0.30 -0.45 -0.75z"/>
  <path d="M36.55 8.50 c-0.05 -1.25 -0.15 -3.15 -0.30 -4.25 -0.25 -1.85 -0.20 -1.80 0.55 0.65 0.65 2 0.70 3 0.30 4.25 l-0.50 1.60 -0.05 -2.25z"/>
  <path d="M6.05 5.55 c0.65 -1.85 1.50 -3.30 2.25 -3.80 0.65 -0.40 1.20 -0.55 1.20 -0.25 0 0.25 -0.20 0.50 -0.45 0.50 -0.25 0 -0.55 0.40 -0.70 0.90 -0.15 0.45 -0.60 1.75 -1.05 2.85 l-0.85 2 1.75 -2 c0.95 -1.10 1.75 -1.75 1.80 -1.45 0 0.95 -3.10 4.20 -4.05 4.20 -0.85 0 -0.85 -0.15 0.10 -2.95z"/>
  <path d="M12 2 c0 -0.25 0.45 -0.50 0.95 -0.50 0.55 0 1.30 -0.35 1.75 -0.75 1.25 -1.30 2.05 -0.80 0.80 0.50 -1.15 1.25 -3.50 1.75 -3.50 0.75z"/>
 </g>
 <g fill="#d8a1b2">
  <path d="M0 34.75 c0 -2 1.20 -2.45 1.70 -0.60 0.50 1.85 0.35 2.35 -0.70 2.35 -0.80 0 -1 -0.35 -1 -1.75z"/>
  <path d="M18 8.70 c-1.05 -1 -1.10 -1.20 -0.35 -1.20 0.50 0 1 0.35 1.15 0.75 0.20 0.40 0.60 0.75 1 0.75 0.40 0 0.70 0.25 0.70 0.50 0 0.85 -1.20 0.50 -2.50 -0.80z"/>
 </g>
 <g fill="#a7b0e6">
  <path d="M24.25 26.50 c0.15 -0.25 0.85 -0.50 1.55 -0.50 0.70 0 1.10 0.20 0.95 0.50 -0.15 0.30 -0.85 0.50 -1.55 0.50 -0.70 0 -1.10 -0.20 -0.95 -0.50z"/>
  <path d="M29.50 25.30 c0 -0.80 1.05 -2.80 1.50 -2.80 0.30 0 0.20 0.60 -0.25 1.50 -0.70 1.35 -1.25 1.90 -1.25 1.30z"/>
  <path d="M30.65 17.65 c-0.35 -0.15 -0.65 -0.85 -0.65 -1.55 l0 -1.30 1.10 1.10 c1.10 1.10 0.80 2.20 -0.45 1.75z"/>
  <path d="M19 9.50 c0 -0.25 0.35 -0.50 0.75 -0.50 0.40 0 0.75 0.25 0.75 0.50 0 0.30 -0.35 0.50 -0.75 0.50 -0.40 0 -0.75 -0.20 -0.75 -0.50z"/>
  <path d="M12.40 8.95 c-1.25 -0.70 -1.10 -1.55 0.20 -1.35 0.65 0.10 1.20 0.55 1.30 1.05 0.20 0.95 -0.25 1.05 -1.50 0.30z"/>
 </g>
 <g fill="#cac5cb">
  <path d="M0.05 35 c-0.05 -5 0.60 -6.75 1.20 -3.10 0.60 3.75 1.35 6.60 1.80 6.90 1 0.60 0.35 1.20 -1.25 1.20 l-1.70 0 -0.05 -5z"/>
  <path d="M0 25.25 c0 -1.50 0.25 -2.75 0.50 -2.75 0.30 0 0.50 1.25 0.50 2.75 0 1.50 -0.20 2.75 -0.50 2.75 -0.25 0 -0.50 -1.25 -0.50 -2.75z"/>
  <path d="M23.05 24.80 c0.60 -0.50 3 -0.80 2.70 -0.30 -0.15 0.25 -0.90 0.50 -1.60 0.50 -0.75 0 -1.20 -0.10 -1.10 -0.20z"/>
  <path d="M0 18.25 c0 -1.25 0.25 -2.25 0.50 -2.25 0.30 0 0.50 -0.40 0.50 -0.90 0 -0.50 0.25 -1.15 0.55 -1.45 0.45 -0.45 0.35 -0.50 -0.50 -0.30 -0.85 0.20 -1.05 0.05 -1.05 -1 0 -1.50 2.95 -6.65 4.75 -8.35 1.50 -1.40 1.55 -1.10 0.30 1.40 -1.10 2.15 -2.15 5.75 -3.35 11.25 -0.90 4.30 -1.70 5.05 -1.70 1.60z"/>
  <path d="M4.20 16 c0.20 -1.65 0.15 -2.80 -0.20 -3 -0.30 -0.20 0.20 -2.20 1.30 -5.25 1.65 -4.65 2.65 -6.25 3.90 -6.25 0.35 0 0.30 0.15 -0.05 0.40 -0.55 0.35 -2.65 4.75 -2.65 5.50 0 0.20 1 -0.80 2.20 -2.15 1.20 -1.40 2.35 -2.35 2.55 -2.15 0.35 0.35 -4.65 6.05 -5.55 6.30 -0.60 0.15 -0.65 0.50 -0.65 5.45 0 1.80 -0.25 3.20 -0.60 3.40 -0.40 0.30 -0.50 -0.30 -0.25 -2.25z"/>
  <path d="M36.60 10.50 c0 -0.95 0.10 -1.35 0.25 -0.85 0.10 0.45 0.10 1.25 0 1.75 -0.15 0.45 -0.25 0.05 -0.25 -0.90z"/>
  <path d="M12.25 2 c-0.15 -0.30 0.20 -0.50 0.90 -0.50 0.70 0 1.50 -0.35 1.85 -0.75 0.35 -0.40 0.85 -0.75 1.15 -0.75 0.30 0 0 0.55 -0.65 1.25 -1.20 1.30 -2.70 1.65 -3.25 0.75z"/>
 </g>
 <g fill="#e1dde3">
  <path d="M1.25 38.65 c-0.15 -0.80 -0.50 -2.10 -0.75 -2.95 -0.65 -2.05 -0.65 -9.20 0 -9.20 0.30 0 0.50 1.30 0.50 2.90 0.05 3.05 1 7.70 1.95 9.50 0.50 0.95 0.45 1.10 -0.40 1.10 -0.70 0 -1.10 -0.40 -1.30 -1.35z"/>
  <path d="M0 23 c0 -0.55 0.25 -1 0.50 -1 0.30 0 0.50 0.45 0.50 1 0 0.55 -0.20 1 -0.50 1 -0.25 0 -0.50 -0.45 -0.50 -1z"/>
  <path d="M0 19.50 c0 -0.55 0.25 -1 0.50 -1 0.30 0 0.50 0.45 0.50 1 0 0.55 -0.20 1 -0.50 1 -0.25 0 -0.50 -0.45 -0.50 -1z"/>
  <path d="M1 16.45 c0 -1.05 0.35 -2.10 0.75 -2.45 0.95 -0.75 0.95 -0.30 0 2.25 l-0.70 2 -0.05 -1.80z"/>
  <path d="M36.65 12.25 c0 -1.10 0.10 -1.50 0.20 -0.85 0.10 0.60 0.10 1.50 0 2 -0.15 0.45 -0.25 -0.05 -0.20 -1.15z"/>
  <path d="M1.30 11.15 c0.35 -2.30 1 -3.85 2.60 -6 1.85 -2.60 2.15 -1.90 0.65 1.50 -0.80 1.70 -1.60 3.85 -1.80 4.75 -0.50 2.35 -1.75 2.15 -1.45 -0.25z"/>
  <path d="M4 12.15 c0 -0.50 0.65 -2.60 1.45 -4.65 0.75 -2.05 1.55 -4.20 1.75 -4.70 0.15 -0.50 0.45 -0.80 0.60 -0.65 0.15 0.15 -0.10 1.35 -0.55 2.65 -0.45 1.30 -0.70 2.65 -0.55 3 0.25 0.60 -2 5.20 -2.50 5.20 -0.10 0 -0.20 -0.40 -0.20 -0.85z"/>
  <path d="M12.50 8.75 c-0.50 -0.65 -0.45 -0.75 0.45 -0.75 0.60 0 1.05 0.30 1.05 0.75 0 0.40 -0.20 0.75 -0.45 0.75 -0.25 0 -0.70 -0.35 -1.05 -0.75z"/>
  <path d="M7 7.75 c0 -0.70 3.85 -5.05 4.15 -4.75 0.15 0.15 -0.70 1.40 -1.90 2.75 -1.25 1.40 -2.25 2.30 -2.25 2z"/>
 </g>
 <g fill="#f6f6f8">
  <path d="M1.20 37.50 c-0.20 -1.40 -0.55 -2.65 -0.75 -2.80 -0.60 -0.35 -0.55 -4.70 0.05 -4.70 0.30 0 0.50 0.70 0.50 1.55 0 1.80 1.40 6.90 2.10 7.85 0.40 0.45 0.25 0.60 -0.50 0.60 -0.90 0 -1.10 -0.40 -1.40 -2.50z"/>
  <path d="M0 21.25 c0 -1.25 0.25 -2.25 0.50 -2.25 0.30 0 0.50 1 0.50 2.25 0 1.25 -0.20 2.25 -0.50 2.25 -0.25 0 -0.50 -1 -0.50 -2.25z"/>
  <path d="M1 15.65 c0 -0.55 0.35 -1.35 0.80 -1.70 0.75 -0.60 0.80 -0.55 0.45 0.55 -0.50 1.75 -1.25 2.45 -1.25 1.15z"/>
  <path d="M1.50 11.35 c0 -2.10 1.35 -5.10 2.95 -6.55 1.20 -1.05 1.40 -0.55 0.40 0.95 -0.40 0.55 -1.10 2.25 -1.60 3.75 -1.25 3.60 -1.75 4.15 -1.75 1.85z"/>
  <path d="M4 12.20 c0 -0.95 0.25 -1.70 1.95 -5.20 0.50 -1.15 0.55 -1.15 0.35 -0.10 -0.30 1.70 0.30 1.35 2.35 -1.40 1.05 -1.35 2.10 -2.50 2.40 -2.50 0.30 0 -0.50 1.15 -1.75 2.50 -1.20 1.40 -2.95 3.70 -3.75 5.15 -1.05 1.80 -1.55 2.30 -1.55 1.55z"/>
  <path d="M12.45 8.70 c-0.60 -0.70 -0.55 -0.80 0.25 -0.65 0.55 0.10 1.05 0.50 1.20 0.85 0.25 0.85 -0.65 0.75 -1.45 -0.20z"/>
 </g>
</svg>