<?xml version="1.0" encoding="utf-8"?>
<!DOCTYPE svg PUBLIC "-//W3C//DTD SVG 1.0//EN" "http://www.w3.org/TR/2001/REC-SVG-20010904/DTD/svg10.dtd">
<svg version="1.0" xmlns="http://www.w3.org/2000/svg" width="40px" height="40px" viewBox="0 0 40 40" preserveAspectRatio="xMidYMid meet">
 <g fill="#130707">
  <path d="M8.50 39.65 c0 -0.25 0.50 -1.20 1.05 -2.15 2.60 -4.20 2.75 -11.05 0.25 -11.70 -1.50 -0.35 -5.05 -5.45 -4.60 -6.60 0.20 -0.45 0.65 -0.70 1.20 -0.60 0.70 0.20 0.85 -0.15 0.85 -2.30 0 -1.40 0.20 -3.15 0.45 -3.90 0.35 -1.15 0.10 -1.60 -2.10 -3.65 -1.60 -1.50 -2.60 -2.90 -2.70 -3.80 -0.35 -2.15 0.65 -1.80 3.05 1.05 1.15 1.35 2.25 2.50 2.45 2.50 0.20 -0.05 0.95 -0.90 1.70 -2 2 -2.85 5.10 -3.90 10.75 -3.60 2.15 0.15 5 2.70 6.40 5.75 0.85 1.75 1.25 2.20 1.60 1.75 0.75 -0.95 1.10 -2.35 1.20 -4.90 0.05 -1.45 0.45 -2.65 1.10 -3.40 1.95 -2.15 2.10 -1.55 1.10 3.90 -0.65 3.65 -1.30 6.15 -1.95 7.40 -0.60 1.15 -0.65 2.15 -0.25 5.20 0.45 3.80 0.45 3.90 -1.30 7.45 -0.95 2 -1.75 3.90 -1.75 4.20 0 0.35 1.45 2.15 3.30 4 2.40 2.50 3.10 3.55 2.70 3.95 -0.40 0.40 -0.90 0.15 -1.80 -0.95 -2.50 -3 -3.35 -3.75 -4.45 -4.05 -1.55 -0.40 -4.75 1.05 -4.75 2.10 0 0.80 0.05 0.80 0.95 0 0.65 -0.60 1.35 -0.75 2.25 -0.50 1.60 0.40 1.70 1.50 0.20 1.90 -1.80 0.45 -3.90 0.35 -3.90 -0.20 0 -0.25 -0.65 -0.50 -1.50 -0.50 -1.20 0 -1.50 -0.20 -1.50 -1.10 -0.05 -1.60 -1.65 -3.35 -3.35 -3.70 -1.45 -0.30 -1.45 -0.25 -2.05 2.85 -0.30 1.70 -0.75 3.25 -1 3.40 -0.25 0.15 -0.60 0.80 -0.80 1.45 -0.25 0.75 -0.75 1.10 -1.60 1.10 -0.65 0 -1.20 -0.15 -1.20 -0.35z m10.50 -12.35 c0 -0.65 2.95 -1.30 5.95 -1.30 1.10 0 1.55 -0.40 2.35 -2.10 1.10 -2.35 1.05 -4.90 -0.10 -4.90 -0.95 0 -0.95 -3.45 0.10 -4.90 0.65 -0.95 0.65 -1.10 0.05 -1.10 -0.45 0 -1 -0.95 -1.40 -2.25 -0.35 -1.25 -0.85 -2.25 -1.05 -2.25 -0.20 0 -0.40 -0.45 -0.40 -1 0 -0.60 -0.35 -1 -0.80 -1 -0.45 0 -1.35 -0.45 -2.05 -1 -2.25 -1.80 -6.35 -1 -9.35 1.75 -1.05 0.95 -1.50 1.95 -1.70 3.65 -0.15 1.30 -0.55 2.65 -0.95 3 -0.95 0.95 -0.85 4.10 0.10 4.10 0.50 0 0.75 0.55 0.80 1.90 0.10 3.40 0.60 4.30 2.70 4.90 1.05 0.30 2.05 0.80 2.15 1.10 0.10 0.35 0.50 0.60 0.90 0.60 0.40 0 0.70 0.35 0.70 0.75 0 0.40 0.45 0.75 1 0.75 0.55 0 1 -0.30 1 -0.70z"/>
  <path d="M21.25 21.65 c-0.55 -0.15 -1.20 -0.45 -1.45 -0.70 -0.30 -0.25 -1.90 -0.45 -3.55 -0.45 -2.35 0 -3.30 -0.20 -3.90 -0.90 -1.10 -1.20 -1.15 -4.10 -0.10 -4.10 0.40 0 0.75 -0.20 0.75 -0.50 0 -0.25 0.45 -0.50 1 -0.50 0.75 0 1 -0.35 1 -1.25 0 -1.10 0.20 -1.25 1.80 -1.25 2.30 0 5.20 2.15 5.20 3.80 0 0.90 0.45 1.45 1.75 2.05 1.50 0.70 1.75 1.10 1.75 2.50 0 1.55 -0.10 1.65 -1.60 1.60 -0.90 -0.05 -2.10 -0.15 -2.65 -0.30z"/>
  <path d="M27 38.25 c0 -1.95 0.30 -2.15 1.30 -0.85 1 1.30 0.85 2.60 -0.30 2.60 -0.80 0 -1 -0.35 -1 -1.75z"/>
 </g>
 <g fill="#0a0c28">
  <path d="M8.50 39.75 c0 -0.15 0.55 -1.15 1.25 -2.25 1.70 -2.70 2.45 -6.40 1.80 -8.80 -0.30 -1 -0.40 -2.05 -0.25 -2.30 0.15 -0.20 -0.10 -0.40 -0.50 -0.40 -0.45 0 -0.80 -0.20 -0.80 -0.50 0 -0.25 0.80 -0.50 1.75 -0.50 1.85 0 4.25 0.90 4.25 1.60 0 0.20 0.35 0.40 0.75 0.40 0.40 0 0.75 0.35 0.75 0.75 0 0.40 0.40 0.75 0.90 0.75 0.95 0.05 3.60 2.20 3.60 3 0 0.25 0.55 0.50 1.25 0.50 0.70 0 1.25 -0.20 1.25 -0.50 0 -0.90 1.95 -0.55 3.25 0.60 1.80 1.55 1.65 2.60 -0.20 1.55 -1.20 -0.75 -1.70 -0.75 -3.50 -0.25 -1.55 0.50 -2.05 0.90 -2.05 1.70 0 0.95 0.10 0.95 1.15 0.30 1.55 -1 3.40 -0.40 4.70 1.55 0.65 0.95 1.15 1.90 1.15 2.10 0 0.90 -2.10 0.40 -3 -0.65 -0.75 -0.95 -1.05 -1.05 -1.55 -0.50 -0.35 0.30 -1.05 0.60 -1.55 0.60 -0.50 0 -0.90 0.35 -0.90 0.75 0 0.50 -0.55 0.75 -1.75 0.75 -1.40 0 -1.75 -0.20 -1.75 -1 0 -0.65 -0.35 -1 -1 -1 -0.85 0 -1 -0.35 -1 -2.25 0 -1.35 0.25 -2.25 0.60 -2.25 0.30 0 0.15 -0.45 -0.35 -1 -0.50 -0.55 -1.45 -1 -2.10 -1 -0.90 0 -1.15 0.25 -1.15 1.25 0 1 0.25 1.25 1.30 1.25 1.15 0 1.25 0.15 1.10 2.15 -0.15 2.05 -0.20 2.10 -2.10 2.25 -1.05 0.10 -2.25 0.50 -2.65 0.90 -0.70 0.65 -2.65 1 -2.65 0.45z"/>
  <path d="M6 20 c0 -0.60 0.35 -1 0.80 -1 0.65 0 0.75 -0.35 0.50 -1.65 -0.35 -1.75 0.35 -4.85 1.20 -5.35 0.35 -0.20 -0.25 -1.10 -1.50 -2.15 -1.10 -1 -2 -1.95 -2 -2.10 0 -0.60 2.45 -0.20 3 0.50 0.35 0.40 0.75 0.65 0.95 0.50 0.55 -0.30 4.05 2.70 4.05 3.55 0 0.40 0.30 0.70 0.65 0.70 0.35 0 1.10 0.40 1.65 0.90 0.50 0.50 2.15 1.35 3.60 1.85 1.40 0.50 2.60 1.15 2.60 1.35 0 0.20 0.55 0.40 1.25 0.40 1.15 0 1.25 0.20 1.15 1.75 -0.10 1.60 -0.20 1.75 -1.75 1.75 -0.90 0 -1.65 -0.20 -1.65 -0.45 0 -0.25 -0.95 -0.60 -2.10 -0.85 l-2.15 -0.40 1.95 -0.20 c1.10 -0.10 2.50 0.10 3.15 0.45 0.65 0.35 1.30 0.50 1.45 0.35 0.55 -0.55 -5.35 -2.40 -6.60 -2.10 -0.65 0.15 -1.50 0.10 -1.85 -0.15 -1.15 -0.90 -2.85 -0.65 -2.85 0.40 0 0.60 -0.35 0.95 -1 0.95 -0.65 0 -1 0.35 -1 1 0 0.80 -0.35 1 -1.75 1 -1.40 0 -1.75 -0.20 -1.75 -1z"/>
  <path d="M25 18.45 c0 -0.85 0.60 -2.45 1.45 -3.60 2.15 -3.15 3.55 -6.15 3.55 -7.60 0 -0.90 0.25 -1.25 1 -1.25 0.55 0 1 0.30 1 0.70 0 1.35 -2 7.05 -3 8.55 -1.20 1.85 -1.25 2.15 -0.10 2.05 0.60 -0.05 0.80 0.25 0.70 0.95 -0.25 1.30 -1 1.75 -2.95 1.75 -1.50 0 -1.65 -0.15 -1.65 -1.55z"/>
  <path d="M17.50 11.75 c0 -1.65 0.10 -1.75 1.75 -1.75 1.65 0 1.75 0.10 1.75 1.75 0 1.65 -0.10 1.75 -1.75 1.75 -1.65 0 -1.75 -0.10 -1.75 -1.75z"/>
  <path d="M25 8.95 c0 -0.30 -0.45 -0.90 -1.05 -1.40 -0.70 -0.60 -1 -1.25 -0.85 -2.30 l0.15 -1.50 1.80 1.85 c2.35 2.35 2.80 3.90 1.15 3.90 -0.65 0 -1.20 -0.25 -1.20 -0.55z"/>
  <path d="M10.55 6.05 c0.35 -0.50 1 -1.15 1.50 -1.50 0.85 -0.50 0.95 -0.40 0.95 0.95 0 1.35 -0.15 1.50 -1.50 1.50 -1.35 0 -1.45 -0.10 -0.95 -0.95z"/>
  <path d="M19 3.95 c0 -0.85 0.25 -1 1.60 -0.85 1.10 0.10 1.70 0.45 1.80 1.05 0.15 0.70 -0.20 0.85 -1.60 0.85 -1.50 0 -1.80 -0.20 -1.80 -1.05z"/>
  <path d="M30.50 4 c0 -0.55 0.35 -1.15 0.75 -1.30 0.40 -0.20 0.75 -0.60 0.75 -1 0 -1.15 0.80 -0.80 0.85 0.40 0.15 1.40 -0.70 2.90 -1.60 2.90 -0.40 0 -0.75 -0.45 -0.75 -1z"/>
 </g>
 <g fill="#090d58">
  <path d="M20.70 35.65 l0.30 -3.40 -2.10 -1.45 -2.15 -1.45 1.45 1.55 c1.80 1.95 2.20 4.10 0.75 4.10 -0.50 0 -0.95 0.35 -0.95 0.75 0 0.40 0.35 0.75 0.75 0.75 0.40 0 0.75 0.30 0.75 0.70 0 0.75 -6.20 1.50 -8.25 1 -1.45 -0.35 -1.45 -0.35 -0.50 -2.15 1.55 -3 1.50 -10.05 -0.05 -10.05 -0.40 0 -0.70 -0.20 -0.70 -0.50 0 -0.25 0.80 -0.50 1.75 -0.50 0.95 0 1.75 0.20 1.75 0.45 0 0.25 0.65 0.60 1.50 0.80 0.80 0.20 2.55 1.30 3.90 2.50 2.30 2.10 2.50 2.40 2.80 5.30 0.35 2.80 0.45 3 1.20 2.30 0.45 -0.40 1.35 -0.90 2 -1.05 0.90 -0.30 1.10 -0.20 1.10 0.70 0 1.50 -1.90 2.95 -3.95 3 l-1.70 0 0.35 -3.35z m-5.70 -6.05 c0 -0.20 -0.25 -0.65 -0.60 -1 -0.35 -0.35 -0.40 -0.60 -0.20 -0.60 0.25 0 0.15 -0.35 -0.20 -0.75 -0.35 -0.40 -1 -0.75 -1.45 -0.75 -0.70 0.05 -0.70 0.10 0.10 0.55 0.45 0.30 0.75 0.75 0.55 1 -0.45 0.75 0.15 1.95 1.05 1.95 0.40 0 0.75 -0.20 0.75 -0.40z"/>
  <path d="M21.50 21 c0 -0.25 -0.45 -0.50 -1 -0.50 -0.55 0 -1 -0.35 -1 -0.75 0 -0.90 1.05 -1 1.85 -0.20 0.30 0.30 0.85 0.45 1.25 0.35 0.35 -0.15 -0.15 -0.60 -1.20 -1.05 -2.40 -1 -2.45 -1.85 -0.15 -1.85 0.95 0 1.75 0.25 1.75 0.50 0 0.95 1.25 0.50 1.75 -0.60 0.30 -0.65 1 -1.20 1.65 -1.30 0.80 -0.10 1.10 -0.50 1.10 -1.35 0 -1.90 0.55 -2.75 1.80 -2.75 1.05 0 1.15 0.15 0.70 1.30 -0.30 0.70 -1.25 2.35 -2.10 3.60 l-1.60 2.35 1.40 -0.90 1.35 -0.90 -0.15 1.65 c-0.15 1.50 -0.30 1.65 -2 1.80 -1.05 0.10 -1.90 0.35 -1.90 0.65 0 0.25 -0.80 0.45 -1.75 0.45 -0.95 0 -1.75 -0.20 -1.75 -0.50z"/>
  <path d="M6.50 20 c0 -1.05 0.75 -1.35 1.25 -0.50 0.15 0.30 0.55 0.50 0.80 0.50 0.30 0 0.15 -0.35 -0.30 -0.80 -1.20 -1.25 -0.75 -2.90 0.85 -3.10 1.70 -0.20 1.35 -1.60 -0.45 -1.60 -1.05 0 -1.15 -0.15 -0.85 -1.10 0.45 -1.60 0.50 -1.65 2 -0.45 1.95 1.55 2.25 0.70 0.30 -1 -1.35 -1.20 -1.45 -1.45 -0.65 -1.45 0.55 0 1.15 0.25 1.30 0.50 0.15 0.30 0.75 0.50 1.30 0.50 1.55 0 5.90 3.55 5.90 4.85 0.05 1 -0.10 1.05 -1.25 0.60 -1.20 -0.40 -1.25 -0.40 -0.70 0.30 0.50 0.65 0.45 0.75 -0.40 0.75 -0.60 0 -1.15 -0.20 -1.30 -0.45 -0.15 -0.25 -0.85 -0.55 -1.55 -0.65 -1.10 -0.25 -1.25 -0.10 -1.25 1.15 0 0.95 -0.25 1.45 -0.75 1.45 -0.40 0 -0.75 0.35 -0.75 0.75 0 0.50 -0.55 0.75 -1.75 0.75 -1.40 0 -1.75 -0.20 -1.75 -1z"/>
 </g>
 <g fill="#142a38">
  <path d="M27 38.50 c0 -1.70 0.35 -1.90 1.30 -0.60 0.95 1.25 0.85 2.10 -0.30 2.10 -0.80 0 -1 -0.35 -1 -1.50z"/>
  <path d="M28 33.75 c-0.75 -0.80 -1.50 -1.15 -2.10 -0.95 -0.75 0.20 -0.90 0 -0.90 -1.50 0 -1.45 0.20 -1.80 1 -1.80 0.65 0 0.90 0.25 0.70 0.70 -0.15 0.40 0.20 1.15 0.85 1.65 3.75 3.05 3.80 3.10 2.65 3.15 -0.55 0 -1.55 -0.55 -2.20 -1.25z"/>
  <path d="M17.90 17.40 c-1.35 -0.55 -2.40 -1.30 -2.40 -1.60 0 -0.30 -0.45 -0.85 -1 -1.20 -1.25 -0.75 -1.45 -4.10 -0.25 -4.10 1.10 0 0.90 -0.85 -0.25 -1.15 -0.75 -0.20 -1 -0.70 -1 -1.80 0 -1.05 -0.25 -1.55 -0.75 -1.55 -0.45 0 -0.75 0.45 -0.75 1.15 0 2.60 -0.55 3.40 -2.20 3.25 -1.20 -0.10 -1.60 -0.40 -1.70 -1.40 -0.15 -1.05 -0.10 -1.10 0.60 -0.55 0.50 0.45 0.80 0.45 0.80 0.15 0 -1.05 3.15 -4.15 4.90 -4.85 0.95 -0.40 2.65 -0.75 3.80 -0.75 5.50 -0.10 7.10 1.15 7.60 5.90 0.25 2.20 0.15 3.10 -0.25 3.10 -0.30 0 -0.55 0.75 -0.55 1.75 0 1.20 -0.25 1.75 -0.75 1.75 -0.50 0 -0.75 0.50 -0.75 1.50 0 1.30 -0.20 1.50 -1.35 1.50 -0.80 -0.05 -2.45 -0.50 -3.75 -1.10z m2.60 -1.10 c0 -0.40 -3.60 -2.90 -3.80 -2.65 -0.15 0.15 0.60 0.85 1.65 1.55 1.90 1.35 2.15 1.45 2.15 1.10z m0.35 -8.40 c-1.50 -3.55 -1.80 -3.75 -5.10 -2.90 -1.30 0.35 -1.35 0.40 -0.35 0.45 0.70 0 1.30 0.45 1.45 0.95 0.25 0.95 1.85 1.95 3.35 2.05 0.55 0.05 0.80 -0.20 0.65 -0.55z"/>
  <path d="M8 14.75 c0 -1.25 0.10 -2.25 0.25 -2.25 0.20 0 0.95 0.35 1.75 0.75 1.15 0.60 1.50 1.10 1.50 2.25 0 1.40 -0.15 1.50 -1.75 1.50 -1.75 0 -1.75 0 -1.75 -2.25z"/>
  <path d="M26 11.50 c0 -3.35 0.65 -3.90 1.75 -1.35 l0.70 1.60 0.90 -2.10 c1.10 -2.60 2.40 -2.95 1.90 -0.50 -0.20 0.85 -0.80 2.45 -1.30 3.50 -0.80 1.50 -1.25 1.85 -2.45 1.85 -1.50 0 -1.50 0 -1.50 -3z"/>
  <path d="M30.50 4.05 c0 -0.60 1.45 -2.05 2.05 -2.05 0.50 0 0.60 0.60 0.15 1.70 -0.30 0.85 -2.20 1.15 -2.20 0.35z"/>
 </g>
 <g fill="#55220b">
  <path d="M31.30 37.25 c-1.20 -1.85 -0.95 -2.55 0.45 -1.25 1.25 1.15 1.65 2.50 0.80 2.50 -0.25 0 -0.80 -0.55 -1.25 -1.25z"/>
  <path d="M21 33.15 c-0.05 -1.15 -7 -6.15 -10 -7.15 -3.55 -1.20 -7.35 -7 -4.55 -7 0.55 0 1.15 0.25 1.30 0.50 0.15 0.30 0.55 0.50 0.85 0.50 0.35 0 0.30 -0.30 -0.10 -0.75 -0.55 -0.65 -0.40 -0.75 0.95 -0.75 1.20 0 1.60 0.25 1.85 1.25 0.15 0.70 0.20 1.95 0 2.75 -0.20 1.15 -0.10 1.50 0.45 1.50 0.45 0 1.15 0.20 1.65 0.45 0.45 0.25 1.25 0.60 1.75 0.75 0.55 0.15 1.05 0.75 1.20 1.30 0.25 1 2.15 1.45 2.15 0.50 0 -0.30 1.35 -0.50 3 -0.50 1.65 0 3 -0.20 3 -0.50 0 -0.25 0.90 -0.50 2 -0.50 1.10 0 2 0.15 2 0.30 0 0.15 -0.50 1.40 -1.05 2.75 -0.85 1.90 -0.95 2.65 -0.50 3.10 0.65 0.65 0.75 1.55 0.15 1.15 -0.25 -0.15 -1.50 0.05 -2.85 0.45 -3.05 0.95 -3.25 0.95 -3.25 -0.10z m2.90 -4.20 c0.80 -1.25 0.40 -1.85 -0.60 -1 -0.40 0.35 -1.20 0.50 -1.80 0.30 -1.10 -0.35 -1.35 0.20 -0.40 1.15 0.90 0.90 2.10 0.70 2.80 -0.45z"/>
  <path d="M18.05 32.80 c-0.50 -0.60 -0.40 -0.65 0.40 -0.45 0.60 0.15 1.05 0.45 1.05 0.70 0 0.70 -0.80 0.55 -1.45 -0.25z"/>
  <path d="M15.50 22.50 c0 -1.25 -0.20 -1.50 -1.20 -1.50 -1.65 0 -3.15 -2.05 -3.60 -4.80 -0.15 -1.25 -0.20 -2.35 -0.10 -2.45 0.10 -0.15 1.15 0.45 2.25 1.25 1.15 0.85 2.35 1.45 2.70 1.35 0.40 -0.10 0.50 -0.10 0.30 0.05 -0.20 0.10 -0.15 0.50 0.20 0.90 0.45 0.55 0.35 0.70 -0.45 0.70 -0.60 0 -1.20 -0.20 -1.35 -0.50 -0.15 -0.25 -0.55 -0.50 -0.85 -0.50 -0.30 0 -0.15 0.45 0.35 1 0.50 0.55 1.55 1 2.35 1 0.90 0 1.40 0.25 1.40 0.75 0 0.40 0.25 0.75 0.50 0.75 0.30 0 0.50 -0.35 0.50 -0.75 0 -0.80 2.25 -1.05 2.70 -0.30 0.15 0.25 0.85 0.55 1.60 0.70 1.90 0.35 0.80 -0.50 -2.10 -1.65 l-2.45 -0.95 2.05 -0.05 c1.10 0 2.20 0.20 2.50 0.45 0.90 0.85 4.10 1 4.75 0.25 1 -1.25 2.30 -0.85 2.30 0.70 0 0.75 0.15 1.70 0.35 2.15 0.30 0.70 -0.05 0.90 -2.15 1.20 -1.35 0.20 -2.95 0.20 -3.50 0 -0.60 -0.20 -1.05 -0.10 -1.05 0.20 0 0.30 -0.90 0.55 -2 0.55 -1.10 0 -2 0.25 -2 0.50 0 0.30 -0.90 0.50 -2 0.50 -1.90 0 -2 -0.10 -2 -1.50z"/>
  <path d="M12.75 14 c-0.90 -0.95 -0.85 -1 0.15 -1 0.75 0 1.10 0.30 1.10 1 0 0.55 -0.10 1 -0.15 1 -0.10 0 -0.60 -0.45 -1.10 -1z"/>
  <path d="M4.45 7.55 c-1.40 -1.45 -2 -3.55 -0.95 -3.55 0.80 0 3.45 3.15 3.50 4.15 0 1.25 -0.90 1.05 -2.55 -0.60z"/>
  <path d="M30.15 6.25 c0.35 -2.05 1.60 -4.25 2.40 -4.25 0.35 0 0.45 0.45 0.20 1.15 -0.20 0.60 -0.50 1.90 -0.70 2.85 -0.20 1.15 -0.65 1.80 -1.25 1.90 -0.85 0.20 -0.90 -0.05 -0.65 -1.65z"/>
 </g>
 <g fill="#141b7b">
  <path d="M9 39.40 c0 -0.30 0.55 -1.30 1.25 -2.20 0.70 -0.90 1.25 -1.85 1.25 -2.15 0 -0.30 0.45 -0.75 1 -1.05 1.20 -0.65 1.40 -3 0.25 -3 -0.50 0 -0.75 -0.50 -0.75 -1.35 0 -1.30 0 -1.30 0.90 -0.35 0.50 0.50 2.20 1.50 3.75 2.20 2.25 1 2.85 1.50 2.85 2.40 0 0.70 -0.20 1.05 -0.55 0.85 -0.30 -0.20 -0.95 0.10 -1.50 0.70 -1 1.05 -1 1.05 0.30 1.05 0.70 0 1.25 0.20 1.25 0.45 0 0.60 -1.30 1.05 -3.05 1.05 -0.90 0 -1.65 0.35 -2.05 1 -0.50 0.75 -1.20 1 -2.75 1 -1.30 0 -2.15 -0.25 -2.15 -0.60z m5.55 -2.95 c0.80 -0.40 0.90 -0.65 0.40 -1.25 -0.80 -1 -1.80 -0.85 -2.10 0.25 -0.40 1.55 0.15 1.85 1.70 1z m2.45 -2.20 c0 -0.40 -0.20 -0.75 -0.50 -0.75 -0.25 0 -0.50 0.35 -0.50 0.75 0 0.40 0.25 0.75 0.50 0.75 0.30 0 0.50 -0.35 0.50 -0.75z"/>
  <path d="M13.25 26.65 c-1.80 -0.45 -2.05 -1.15 -0.35 -1.15 1.10 0 1.60 0.25 1.60 0.75 0 0.40 -0.05 0.70 -0.10 0.70 -0.10 -0.05 -0.60 -0.15 -1.15 -0.30z"/>
  <path d="M7.85 18.15 c-0.55 -0.50 -0.40 -4.55 0.20 -4.90 0.25 -0.20 1.05 -0.20 1.75 -0.05 1.05 0.30 1.20 0.60 1.20 2.80 0 2.40 -0.05 2.50 -1.40 2.50 -0.80 0 -1.60 -0.15 -1.75 -0.35z"/>
  <path d="M14.55 17.55 c-0.35 -0.25 -0.60 -0.70 -0.45 -1.05 0.10 -0.40 0.55 -0.25 1.40 0.45 0.85 0.70 1 1 0.50 1.05 -0.40 0 -1.05 -0.20 -1.45 -0.45z"/>
  <path d="M15.15 15.75 l-1.40 -1.25 1.75 0.10 c1.40 0.10 1.80 0.40 1.90 1.30 0.20 1.45 -0.50 1.40 -2.25 -0.15z"/>
 </g>
 <g fill="#135061">
  <path d="M24 38.25 c0 -1.65 0.10 -1.75 1.75 -1.75 1.40 0 1.85 0.25 2.50 1.50 0.40 0.80 0.75 1.55 0.75 1.75 0 0.15 -1.10 0.25 -2.50 0.25 l-2.50 0 0 -1.75z"/>
  <path d="M28.85 34.60 c-1.45 -1.55 -1 -2.25 0.65 -1.10 0.85 0.60 1.50 1.30 1.50 1.55 0 0.75 -1.30 0.50 -2.15 -0.45z"/>
  <path d="M19.65 18.15 c-1.20 -0.40 -2.15 -1.05 -2.15 -1.45 0 -0.40 -0.50 -0.70 -1.10 -0.70 -0.65 0 -2.10 -0.90 -3.30 -2 -1.20 -1.10 -2.25 -2 -2.40 -2 -0.95 0 -3.20 -2.25 -3.20 -3.15 0 -0.80 0.15 -0.90 0.60 -0.45 0.80 0.80 1.40 0.75 1.40 -0.15 0 -0.35 0.30 -0.90 0.65 -1.10 0.40 -0.20 0.80 -0.80 1 -1.30 0.20 -0.50 1.30 -1.35 2.45 -1.85 6.40 -2.90 13.85 1.05 13.90 7.35 l0 1.90 1.10 -1.85 c0.60 -1.05 1.30 -1.90 1.50 -1.90 1.35 0 -0.85 5.25 -3.55 8.40 -1.15 1.30 -3.65 1.40 -6.90 0.25z m1.65 -1.55 c-0.15 -0.25 -1.65 -1.40 -3.40 -2.60 -2.90 -2.05 -3.05 -2.10 -1.90 -0.70 0.70 0.85 1.95 2 2.75 2.60 1.50 1.05 3.05 1.45 2.55 0.70z m-1.20 -3.95 c-0.55 -0.80 -1.65 -1.95 -2.40 -2.65 -0.85 -0.75 -0.60 -0.25 0.75 1.40 2.25 2.75 3.30 3.55 1.65 1.25z m2.70 -6.60 c-1.25 -2.35 -1.75 -2.25 -0.60 0.15 0.60 1.15 1.10 1.95 1.20 1.75 0.10 -0.20 -0.20 -1.05 -0.60 -1.90z"/>
 </g>
 <g fill="#2c3864">
  <path d="M9 39.30 c0 -0.35 0.30 -0.95 0.70 -1.25 0.55 -0.45 0.75 -0.40 1 0.30 0.35 0.80 0.45 0.75 1.30 -0.35 0.80 -1.10 1.40 -1.25 4.70 -1.40 l3.75 -0.20 0.45 -2.10 c0.30 -1.60 0.25 -2.20 -0.40 -2.70 -0.65 -0.55 -0.40 -0.65 1.65 -0.40 1.40 0.15 2.35 0.10 2.35 -0.20 0 -0.30 0.45 -0.50 1 -0.50 0.55 0 1 0.20 1 0.40 0 0.25 0.95 1.15 2.15 2.05 1.95 1.45 3.85 3.85 3.85 4.85 0 0.25 -1.35 -0.90 -2.95 -2.50 l-2.95 -2.90 -2.15 0.70 c-2.05 0.65 -2.20 0.90 -2.35 2.60 l-0.15 1.90 1.80 -1.35 c1.75 -1.35 1.80 -1.35 2.80 -0.45 1.35 1.20 2.05 2.60 1.70 3.20 -0.20 0.30 -0.60 0.20 -1.05 -0.25 -1.05 -1.05 -1.70 -0.95 -1.70 0.25 0 0.85 -0.35 1 -2.45 1 -1.50 0 -2.55 -0.25 -2.70 -0.60 -0.20 -0.50 -0.30 -0.50 -0.30 0 -0.05 0.95 -11.05 0.85 -11.05 -0.10z"/>
  <path d="M7.50 20.20 c0 -0.70 0.15 -0.70 0.75 -0.20 0.40 0.35 0.75 0.70 0.75 0.80 0 0.10 -0.35 0.20 -0.75 0.20 -0.40 0 -0.75 -0.35 -0.75 -0.80z"/>
  <path d="M8.85 19.70 c-0.95 -1.25 -1.45 -4.60 -1 -6.55 l0.25 -1.05 1.80 1.05 c2.05 1.15 2.80 2 2.10 2.25 -0.30 0.10 -0.50 1.05 -0.50 2.10 0 3.65 -1 4.45 -2.65 2.20z m0.70 -4.40 c0.25 0.15 0.45 -0.10 0.45 -0.50 0 -0.50 -0.30 -0.65 -0.75 -0.50 -0.40 0.20 -0.75 0.70 -0.70 1.15 0 0.50 0.10 0.55 0.30 0.15 0.10 -0.30 0.45 -0.50 0.70 -0.30z"/>
  <path d="M21 20.55 c0 -0.25 -0.95 -0.60 -2.10 -0.80 -1.50 -0.30 -1.80 -0.45 -1.05 -0.60 0.60 -0.10 2.15 0.15 3.45 0.60 3.15 1.05 3.45 0.50 0.40 -0.75 -4.90 -2.10 -5.70 -2.50 -5.70 -3 0 -0.75 1.90 -0.60 3.25 0.30 0.70 0.45 1.60 0.70 2 0.50 0.45 -0.15 0.65 -0.10 0.50 0.20 -0.20 0.30 0.35 0.50 1.20 0.50 1.45 0 1.55 0.15 1.55 1.75 0 1.65 -0.10 1.75 -1.75 1.75 -0.95 0 -1.75 -0.20 -1.75 -0.45z"/>
  <path d="M10.25 12 c-1.20 -0.95 -1.60 -1.50 -1.05 -1.50 0.45 0 0.80 0.20 0.80 0.45 0 0.25 0.55 0.60 1.25 0.75 0.70 0.20 1.25 0.65 1.25 1.05 0 1 -0.10 1 -2.25 -0.75z"/>
  <path d="M28.50 12.75 c0 -0.45 0.30 -1.40 0.70 -2.15 0.40 -0.75 0.85 -2.65 1.05 -4.20 0.25 -1.90 0.70 -3.15 1.35 -3.75 1.05 -0.90 1.05 -0.90 0.70 1.60 -0.40 2.90 -1.50 6.70 -2.30 8.20 -0.65 1.25 -1.50 1.40 -1.50 0.30z"/>
  <path d="M9.50 8.05 c0 -0.30 0.55 -1.15 1.25 -1.90 l1.20 -1.40 0.05 1.90 c0 1.65 -0.15 1.85 -1.25 1.85 -0.70 0 -1.25 -0.20 -1.25 -0.45z"/>
  <path d="M22.05 4.90 c-0.65 -0.65 -1.05 -0.85 -0.85 -0.50 0.25 0.40 0 0.60 -0.65 0.60 -0.70 0 -1.05 -0.30 -1.05 -1 0 -0.75 0.25 -0.95 1.15 -0.80 0.60 0.15 1.25 0.25 1.40 0.25 0.15 0.05 0.95 0.60 1.75 1.30 1.30 1.10 1.35 1.25 0.45 1.25 -0.55 0 -1.55 -0.50 -2.20 -1.10z"/>
 </g>
 <g fill="#8d3b10">
  <path d="M21.50 32.75 c0 -0.30 -1.35 -1.40 -2.95 -2.40 -1.60 -1.05 -3.35 -2.35 -3.80 -2.90 -0.50 -0.50 -1.30 -0.95 -1.80 -0.95 -0.50 0 -1.05 -0.20 -1.20 -0.50 -0.15 -0.25 -0.80 -0.50 -1.45 -0.50 -1.55 0 -4.80 -3.95 -4.80 -5.85 0 -1.10 1.65 -0.70 3.15 0.75 1.20 1.10 1.40 1.15 0.95 0.30 -0.30 -0.60 -0.40 -1.25 -0.20 -1.45 0.20 -0.15 0.05 -0.25 -0.35 -0.15 -0.40 0.10 -0.85 -0.25 -0.95 -0.70 -0.10 -0.55 0.10 -0.90 0.60 -0.90 0.45 0 0.80 0.30 0.80 0.65 0 1.25 1 -0.90 1 -2.25 0 -0.80 0.25 -1.40 0.60 -1.40 0.85 0 4.90 2.50 4.90 3 0 0.70 -0.65 0.60 -1.80 -0.25 -1.45 -1.10 -1.90 -0.90 -1 0.50 1.25 1.90 1.05 3.25 -0.45 3.25 -1.90 0 -1.50 0.85 0.50 1.10 1.60 0.20 1.75 0.10 1.75 -1.15 0 -0.75 0.35 -1.45 0.80 -1.65 1.15 -0.45 3.65 -0.35 4.60 0.15 0.45 0.20 1.50 0.55 2.25 0.75 1.65 0.40 1.40 -0.50 -0.35 -1.20 -0.90 -0.40 -0.85 -0.45 0.60 -0.45 0.95 -0.05 1.60 0.20 1.60 0.60 0 0.45 0.10 0.45 0.40 -0.05 0.25 -0.35 0.80 -0.50 1.20 -0.35 0.45 0.20 0.95 0.10 1.15 -0.20 0.15 -0.30 0.90 -0.55 1.60 -0.55 1 0 1.15 0.15 0.75 0.65 -0.45 0.50 -0.40 0.95 0.15 1.70 1 1.40 0.20 3.65 -1.25 3.65 -0.55 0 -1 -0.25 -1 -0.55 0 -0.40 -0.90 -0.50 -2.85 -0.25 -1.60 0.15 -4.30 0.45 -6 0.60 -2.15 0.25 -3.15 0.55 -3.15 1 0 0.40 0.50 0.70 1.20 0.70 0.80 0 1.85 0.75 3.10 2.25 1.20 1.35 2.55 2.35 3.45 2.50 1 0.25 1.30 0.20 0.80 -0.15 -0.55 -0.40 -0.55 -0.55 0 -0.90 0.40 -0.20 1.15 -0.40 1.70 -0.45 1 0 1.80 -1.75 0.80 -1.75 -0.30 0 -0.55 0.25 -0.55 0.55 0 0.35 -0.45 0.45 -1.10 0.30 -0.60 -0.20 -1.35 -0.10 -1.70 0.20 -0.75 0.60 -2.20 0.05 -2.20 -0.85 0 -0.40 0.50 -0.70 1.25 -0.70 0.80 0 1.25 -0.30 1.25 -0.80 0 -0.70 0.40 -0.80 2.25 -0.55 1.30 0.10 2.45 0.35 2.60 0.50 0.15 0.15 -0.20 1.30 -0.80 2.50 -0.55 1.20 -1.05 2.40 -1.05 2.70 0 0.30 -0.95 0.70 -2.10 0.90 -1.20 0.20 -2.30 0.65 -2.50 0.95 -0.25 0.35 -0.40 0.35 -0.40 0.05z m-12 -8.95 c0 -0.40 -0.45 -1.20 -1.05 -1.85 -1.10 -1.25 -1.10 -1.05 0.05 1.20 0.75 1.50 1 1.70 1 0.65z"/>
  <path d="M5.70 8.30 c-2.25 -1.95 -3.25 -3.95 -1.80 -3.70 0.45 0.10 1.05 0.65 1.35 1.30 0.25 0.60 0.75 1.10 1.05 1.10 0.85 0 1.80 1.35 1.60 2.25 -0.10 0.65 -0.60 0.45 -2.20 -0.95z"/>
  <path d="M30.25 6.40 c0.40 -2.35 1.80 -5 2.10 -4.05 0.15 0.35 -0.05 1.85 -0.35 3.40 -0.40 1.85 -0.80 2.75 -1.35 2.75 -0.60 0 -0.65 -0.40 -0.40 -2.10z"/>
 </g>
 <g fill="#1d3690">
  <path d="M11.50 39.45 c0 -0.85 1 -2.45 1.50 -2.45 0.30 0 0.50 0.70 0.50 1.50 0 1.15 -0.20 1.50 -1 1.50 -0.55 0 -1 -0.25 -1 -0.55z"/>
  <path d="M14.40 38.75 c-0.30 -1.50 -0.15 -2.15 0.40 -1.65 0.15 0.20 0.20 0.95 0.10 1.75 l-0.15 1.40 -0.35 -1.50z"/>
  <path d="M18 39 c0 -1.20 0.30 -1.25 1.30 -0.30 0.95 1 0.90 1.30 -0.30 1.30 -0.65 0 -1 -0.35 -1 -1z"/>
  <path d="M20.50 38.80 c0 -0.75 -0.35 -1.30 -0.85 -1.45 -0.85 -0.20 -0.85 -0.25 0 -0.30 0.45 0 0.85 -0.40 0.85 -0.80 0 -0.40 0.20 -0.75 0.45 -0.75 0.60 0 1.15 1.45 0.75 2.05 -0.15 0.25 0.10 0.45 0.50 0.45 0.45 0 0.80 0.25 0.80 0.55 0 0.30 0.35 0.45 0.75 0.25 0.45 -0.15 0.75 0 0.75 0.45 0 0.55 -0.55 0.75 -2 0.75 -1.80 0 -2 -0.15 -2 -1.20z"/>
  <path d="M27.05 38.70 c-0.35 -0.40 -0.55 -0.90 -0.35 -1.05 0.45 -0.50 1.80 0.30 1.80 1.10 0 0.95 -0.55 0.95 -1.45 -0.05z"/>
  <path d="M9.50 38.55 c0 -0.85 0.90 -1.05 1.20 -0.30 0.15 0.45 0 0.75 -0.45 0.75 -0.40 0 -0.75 -0.20 -0.75 -0.45z"/>
  <path d="M22.90 21.15 c-1.30 -0.35 -1.10 -1.10 0.25 -0.80 l1.10 0.25 -1.10 -1 c-1.40 -1.25 -1.45 -1.60 -0.15 -1.60 0.55 0 1 -0.25 1 -0.50 0 -0.30 0.30 -0.50 0.65 -0.45 1.45 0.20 1.85 -0.15 1.85 -1.45 0 -1 0.35 -1.65 1.25 -2.10 0.70 -0.35 1.40 -0.55 1.55 -0.40 0.40 0.45 -0.70 2.40 -2.20 4 -1.30 1.45 -1.20 2.55 0.15 1.40 0.65 -0.55 0.75 -0.40 0.75 0.95 0 0.85 -0.25 1.55 -0.55 1.55 -0.25 0 -0.35 -0.20 -0.20 -0.50 0.15 -0.25 0 -0.50 -0.40 -0.50 -0.40 0 -0.85 0.35 -1.05 0.75 -0.25 0.75 -1.20 0.85 -2.90 0.40z"/>
  <path d="M7.15 20.65 c-0.70 -0.25 -0.90 -1.65 -0.25 -1.65 0.50 0 1.60 1.10 1.60 1.60 0 0.45 -0.40 0.45 -1.35 0.05z"/>
  <path d="M8.80 19.45 c-0.80 -0.95 -1.30 -2.15 -1.30 -3.10 0 -3.25 1.10 -5 1.85 -3 0.20 0.45 0.05 0.95 -0.25 1.05 -0.35 0.10 -0.60 0.55 -0.55 1 0 0.55 0.10 0.60 0.30 0.20 0.10 -0.30 0.45 -0.50 0.70 -0.30 0.25 0.15 0.45 -0.20 0.45 -0.70 0 -0.80 0.25 -0.95 1.10 -0.70 0.60 0.15 0.85 0.35 0.50 0.50 -0.40 0.10 -0.60 1.25 -0.60 3.10 0 1.60 -0.20 3.05 -0.45 3.20 -0.25 0.20 -1.05 -0.40 -1.75 -1.25z m1.20 -2.25 c0 -0.70 -0.20 -1.15 -0.45 -1 -0.25 0.15 -0.35 0.75 -0.20 1.30 0.35 1.40 0.65 1.25 0.65 -0.30z"/>
  <path d="M14.25 17.20 c-0.55 -0.40 -1.35 -0.95 -1.75 -1.20 -0.40 -0.25 -0.60 -0.60 -0.40 -0.80 0.35 -0.30 4.40 2 4.40 2.55 0 0.50 -1.30 0.20 -2.25 -0.55z"/>
  <path d="M16.75 16.70 c-1.55 -0.80 -5.15 -3.50 -8.25 -6.15 -1.60 -1.40 -1.65 -1.50 -0.65 -1.55 0.65 0 1.60 0.45 2.15 1 0.55 0.55 1.45 1 2 1 0.65 0 1 0.35 1 1 0 0.70 0.35 1 1.15 1 1.45 0.05 4.50 2.65 4.25 3.70 -0.15 0.70 -0.30 0.70 -1.65 0z"/>
 </g>
 <g fill="#6b4d38">
  <path d="M26.45 29.20 c1.25 -1.60 1.30 -2.20 0.30 -2.20 -0.40 0 -0.75 0.20 -0.75 0.45 0 0.30 -0.85 0.40 -1.85 0.30 -1.05 -0.05 -2.30 -0.15 -2.80 -0.20 -0.80 -0.05 -0.90 -0.40 -0.75 -2.55 0.10 -1.75 -0.05 -2.50 -0.45 -2.50 -0.35 0 -0.65 0.45 -0.65 1 0 0.85 -0.35 1 -2 1 -1.85 0 -2 0.10 -2 1.35 0 0.70 0.35 1.75 0.85 2.25 0.45 0.50 0.60 0.90 0.30 0.90 -0.25 0 -0.90 -0.45 -1.45 -1.05 -1.25 -1.35 -3.65 -2.60 -5.15 -2.65 -1.35 -0.05 -3.80 -2.85 -4.30 -4.90 -0.30 -1.20 -0.20 -1.40 0.65 -1.40 0.60 0 1.40 0.50 1.80 1.10 0.95 1.30 0.65 1.80 -0.50 0.85 -0.80 -0.65 -0.80 -0.60 -0.05 0.80 1.15 2.20 2.30 3.60 2.35 2.85 0.05 -1.80 3.55 -2.85 4.90 -1.50 0.45 0.45 0.60 0.30 0.60 -0.75 0 -0.75 -0.20 -1.35 -0.50 -1.35 -0.25 0 -0.50 -0.30 -0.50 -0.70 0 -1.25 4.20 -1.75 6.15 -0.70 1 0.50 1 0.60 0.15 0.90 -0.85 0.30 -0.85 0.35 -0.10 1.15 0.50 0.45 1.55 0.85 2.35 0.85 1.30 0 1.45 0.15 1.45 1.50 0 0.85 0.25 1.50 0.50 1.50 0.30 0 0.50 -0.45 0.50 -1 0 -0.55 0.25 -1 0.50 -1 0.30 0 0.50 -0.55 0.50 -1.20 0 -0.70 0.25 -1.40 0.55 -1.60 0.40 -0.20 0.35 -0.45 -0.10 -0.75 -0.55 -0.35 -0.50 -0.45 0.20 -0.45 0.50 0 0.85 -0.40 0.85 -0.95 0 -1.20 0.90 -1.85 1.60 -1.15 0.40 0.40 0.35 0.80 -0.10 1.35 -0.55 0.65 -0.50 0.95 0.20 1.70 0.95 1.05 0.85 1.30 -1.70 6.70 -0.85 1.85 -1.80 3.35 -2.05 3.35 -0.30 0 -0.05 -0.60 0.50 -1.30z m-7.95 -8.70 c-1 -0.65 -2.15 -0.65 -1.75 0 0.15 0.30 0.80 0.50 1.40 0.50 0.90 0 0.95 -0.10 0.35 -0.50z"/>
  <path d="M17 27.75 c-0.50 -0.60 -0.50 -0.75 0.20 -0.75 0.45 0 0.80 0.35 0.80 0.75 0 0.40 -0.10 0.75 -0.20 0.75 -0.10 0 -0.45 -0.35 -0.80 -0.75z"/>
  <path d="M9.60 20.50 c-0.35 -0.55 -0.45 -1 -0.20 -1 0.20 0 0.40 -0.50 0.45 -1.10 0.05 -0.55 0.40 -1.25 0.75 -1.50 0.50 -0.40 0.50 -0.55 0.05 -0.75 -0.35 -0.10 -0.65 -0.75 -0.65 -1.40 0 -0.90 0.20 -1.10 1 -0.90 0.55 0.15 1 0.45 1 0.65 0 0.25 0.40 0.55 0.90 0.70 1.25 0.40 3.90 2.80 3.05 2.80 -0.40 0 -1.25 -0.45 -1.95 -1 -1.55 -1.20 -2.35 -1.30 -1.45 -0.15 0.60 0.75 0.60 0.80 -0.15 0.50 -0.75 -0.25 -0.90 -0.05 -0.90 1.10 0 1.65 -0.45 3.05 -0.95 3.05 -0.15 0 -0.60 -0.45 -0.95 -1z"/>
  <path d="M14.25 14.90 c-0.55 -0.30 -1.65 -1.10 -2.50 -1.80 l-1.50 -1.25 1.45 0.35 c0.75 0.20 1.75 0.65 2.10 1.05 0.40 0.35 0.95 0.75 1.25 0.85 0.35 0.10 0.50 0.45 0.40 0.75 -0.15 0.45 -0.45 0.45 -1.20 0.05z"/>
  <path d="M6.35 8.75 c-0.55 -0.35 -0.85 -1.15 -0.75 -1.75 0.15 -1 0.25 -0.95 1.85 0.70 1.45 1.50 1.60 1.80 0.75 1.80 -0.50 0 -1.35 -0.35 -1.85 -0.75z"/>
  <path d="M30 8.40 c0 -1.50 0.65 -2.90 1.30 -2.90 0.85 0 0.85 0.50 0.20 2.20 -0.50 1.35 -1.50 1.80 -1.50 0.70z"/>
 </g>
 <g fill="#2a6485">
  <path d="M14.50 39.30 c0 -0.40 -0.15 -1.05 -0.30 -1.50 -0.25 -0.65 0.05 -0.80 1.50 -0.80 1 0 1.80 0.25 1.80 0.50 0 0.30 0.30 0.50 0.70 0.50 0.60 0 1.30 1 1.30 1.80 0 0.10 -1.10 0.20 -2.50 0.20 -1.80 0 -2.50 -0.20 -2.50 -0.70z m2.50 -1.35 c0 -0.25 -0.35 -0.45 -0.75 -0.45 -0.75 0 -1 0.60 -0.45 1.15 0.40 0.40 1.20 -0.05 1.20 -0.70z"/>
  <path d="M20.40 38.65 c-0.10 -0.80 0.15 -2.50 0.45 -3.85 0.50 -2 0.50 -2.55 0 -2.90 -0.35 -0.20 0.15 -0.40 1.30 -0.40 1.55 0 1.85 0.15 1.85 1 0 0.70 -0.30 1 -0.85 0.90 -1.35 -0.25 -1.80 4.25 -0.50 5.05 1.20 0.80 2.10 0.20 1.25 -0.85 -0.60 -0.70 -0.50 -0.70 0.50 -0.15 0.60 0.30 1.10 1.05 1.10 1.55 0 0.85 -0.35 1 -2.45 1 -2.35 0 -2.50 -0.10 -2.65 -1.35z"/>
  <path d="M27.50 39.25 c0 -0.40 -0.25 -0.75 -0.55 -0.75 -0.25 0 -0.40 -0.20 -0.20 -0.50 0.45 -0.75 1.75 0 1.75 1.05 0 0.50 -0.20 0.95 -0.50 0.95 -0.25 0 -0.50 -0.35 -0.50 -0.75z"/>
  <path d="M30.40 35.90 c-0.75 -0.90 -1.25 -1.75 -1.10 -1.85 0.40 -0.40 2.85 2.30 2.65 2.90 -0.15 0.35 -0.80 -0.15 -1.55 -1.05z"/>
  <path d="M27 32.75 c-0.50 -0.60 -0.80 -0.65 -1.30 -0.20 -0.55 0.45 -0.70 0.25 -0.70 -1 0 -1.05 0.25 -1.55 0.75 -1.55 0.40 0 0.75 0.35 0.75 0.75 0 0.40 0.45 0.95 1 1.25 0.55 0.30 1 0.75 1 1 0 0.75 -0.80 0.60 -1.50 -0.25z"/>
  <path d="M24.25 21.25 c-0.25 -0.10 -1.35 -0.30 -2.35 -0.50 -1.05 -0.15 -1.90 -0.55 -1.90 -0.85 0 -0.25 0.35 -0.35 0.80 -0.20 1.80 0.70 3.20 0.90 3.20 0.45 0 -0.30 -0.90 -0.85 -2 -1.30 -2.30 -0.90 -2.80 -2.15 -0.60 -1.65 1.10 0.25 1.20 0.20 0.50 -0.20 -1.50 -0.90 -1 -1.55 1 -1.40 1.50 0.10 1.90 0.35 2 1.30 0.25 1.65 0.95 1.35 1.30 -0.65 0.20 -0.95 0.50 -1.75 0.75 -1.75 0.20 0 0.65 -0.55 0.95 -1.25 0.50 -1.10 2.10 -1.80 2.10 -0.95 0 0.60 -2.15 3.95 -3.40 5.30 -1.70 1.85 -1 2.45 0.80 0.75 1.50 -1.45 2.10 -1.65 2.10 -0.85 0 0.30 -0.35 0.50 -0.75 0.50 -0.50 0 -0.75 0.55 -0.75 1.75 0 1.30 -0.20 1.75 -0.80 1.75 -0.70 0 -0.70 -0.15 -0.20 -0.75 0.50 -0.60 0.50 -0.75 -0.20 -0.75 -0.45 0 -0.80 0.35 -0.80 0.75 0 0.70 -0.60 0.90 -1.75 0.50z"/>
  <path d="M9.90 16.65 c-0.30 -1.25 0.10 -2.65 0.70 -2.65 0.25 0 1.05 0.45 1.75 1 1.25 0.95 1.25 1 0.20 1 -0.60 0 -1.05 0.30 -1.05 0.75 0 1.05 -1.35 0.95 -1.60 -0.10z"/>
  <path d="M16.65 16.65 c-0.35 -0.10 -0.65 -0.80 -0.65 -1.45 0 -0.65 -0.20 -1.20 -0.50 -1.20 -0.25 0 -0.50 0.25 -0.50 0.50 0 1 -0.95 0.45 -4.95 -2.75 -2.90 -2.35 -4.05 -3.60 -4.05 -4.40 0.05 -0.95 0.10 -1 0.65 -0.35 1.05 1.35 4.15 3.50 5.05 3.50 0.70 0 0.75 -0.20 0.30 -1 -0.30 -0.55 -1 -1 -1.50 -1 -1.30 0 -1.25 -0.30 0.20 -2.20 1.60 -2.10 5.55 -3.55 8.85 -3.15 3.90 0.50 8.45 4.80 7.60 7.25 -0.35 0.90 -1.05 0.75 -1.30 -0.25 -0.15 -0.50 -0.25 0.15 -0.30 1.50 -0.05 1.75 -0.25 2.35 -0.80 2.35 -0.40 0 -0.75 0.25 -0.75 0.50 0 0.30 -0.80 0.50 -1.75 0.50 -0.95 0 -1.75 -0.25 -1.75 -0.55 0 -0.25 0.30 -0.35 0.65 -0.15 0.50 0.30 0.50 0.20 0 -0.35 -0.75 -0.75 -0.85 -2.45 -0.15 -2.45 0.25 0 0.80 0.60 1.20 1.40 1 1.75 1 1.25 0.05 -1.40 -0.95 -2.65 -0.95 -4 -0.05 -4 0.35 0 0.95 1 1.30 2.25 0.95 3.30 1.20 2.40 0.30 -1.05 -0.40 -1.55 -1.25 -3.35 -1.85 -3.90 l-1.10 -1.05 0.75 1.25 c0.95 1.55 0.35 2.25 -1.95 2.40 -1.35 0.10 -1.65 -0.05 -1.65 -0.85 0 -0.55 -0.45 -1.05 -1.10 -1.25 -1.85 -0.45 -2.40 -0.35 -2.40 0.55 0 0.65 -0.15 0.70 -0.60 0.25 -0.80 -0.80 -1.65 -0.75 -0.95 0.05 0.30 0.40 0.35 0.85 0.10 1.15 -0.65 0.65 -0.05 5.30 0.65 5.05 0.30 -0.15 1.80 0.85 3.30 2.20 2.45 2.20 2.60 2.45 1.50 2.40 -0.70 0 -1.55 -0.15 -1.85 -0.30z m3 -11.15 c-0.30 -1.20 -1.15 -1.85 -1.15 -0.90 0 0.60 0.90 1.90 1.30 1.90 0.05 0 0 -0.45 -0.15 -1z"/>
  <path d="M18.50 14.25 c-0.50 -0.60 -0.50 -0.75 0.20 -0.75 0.45 0 0.80 0.35 0.80 0.75 0 0.40 -0.10 0.75 -0.20 0.75 -0.10 0 -0.45 -0.35 -0.80 -0.75z"/>
  <path d="M15.50 12 l-1.75 -1.45 1.90 -0.05 c1.75 0 1.85 0.10 1.85 1.50 0 0.85 -0.05 1.50 -0.15 1.50 -0.05 0 -0.90 -0.65 -1.85 -1.50z"/>
 </g>
 <g fill="#a8611b">
  <path d="M21.25 32.95 c0.30 -0.45 -4.65 -5.95 -5.40 -5.95 -0.30 0 -0.10 0.50 0.45 1.10 l0.95 1.10 -1.25 -0.85 c-3.15 -2.20 -4.75 -3.05 -5.85 -3.10 -1.85 -0.05 -5.25 -4.85 -4.25 -5.85 0.60 -0.60 2.35 0.25 2.80 1.35 0.40 1.05 1.30 0.95 1.20 -0.10 -0.20 -2.60 0.15 -6.65 0.60 -6.65 0.30 0 1.15 0.40 1.90 0.95 0.75 0.50 2 1.30 2.85 1.80 0.80 0.50 1.20 1 0.85 1.15 -0.30 0.10 -1.30 -0.30 -2.10 -0.90 -2 -1.45 -2.25 -1.10 -0.70 0.90 1.20 1.50 1.45 1.60 3.60 1.30 1.60 -0.20 2.95 -0.05 4.20 0.50 1.05 0.45 2.10 0.80 2.40 0.80 0.95 0 0.50 -1 -0.60 -1.55 -1 -0.40 -0.90 -0.45 0.50 -0.25 0.85 0.15 1.60 0.05 1.60 -0.20 0 -0.30 0.20 -0.50 0.45 -0.50 0.25 0 0.45 0.30 0.40 0.65 0 0.30 0.05 1.15 0.05 1.80 0.10 1 0.20 1.10 0.85 0.55 0.65 -0.50 0.65 -0.75 0.15 -1.05 -0.45 -0.30 -0.35 -0.70 0.60 -1.65 1.55 -1.70 2.20 -1.65 1.85 0.20 -0.20 0.80 -0.10 1.60 0.15 1.75 1.40 0.85 -0.85 6.75 -2.60 6.75 -0.45 0 -1 0.25 -1.15 0.50 -0.25 0.35 -0.55 0.40 -0.90 0.05 -0.40 -0.30 -0.90 -0.25 -1.50 0.20 -1.05 0.75 -2.85 0.40 -2.85 -0.55 0 -0.40 0.50 -0.70 1.25 -0.70 0.80 0 1.25 -0.30 1.25 -0.75 0 -0.45 0.45 -0.75 1.20 -0.75 1.10 0 2.15 -1.30 1.55 -1.90 -0.15 -0.15 -1.45 0.05 -2.95 0.40 -1.50 0.35 -3.55 0.50 -4.50 0.35 -2.25 -0.35 -2.40 0.55 -0.30 1.75 1.20 0.70 1.50 1.20 1.50 2.65 0 0.95 0.25 1.75 0.50 1.75 0.30 0 0.50 -0.25 0.50 -0.50 0 -0.30 0.40 -0.25 1 0.10 0.55 0.35 1 0.90 1 1.25 0 0.40 0.65 0.65 1.50 0.65 1 0 1.50 0.25 1.50 0.75 0 0.40 -0.30 0.75 -0.60 0.80 -3.30 0.30 -3.85 0.30 -3.65 -0.10z m-7.75 -8.70 c-0.35 -0.45 -0.75 -0.65 -0.90 -0.50 -0.15 0.10 0.05 0.55 0.40 1 0.35 0.45 0.75 0.65 0.90 0.50 0.15 -0.10 -0.05 -0.55 -0.40 -1z m-4.05 -1.15 c-0.35 -0.80 -1.05 -1.75 -1.55 -2.05 -0.90 -0.55 -0.90 -0.50 -0.35 0.55 1.80 3.40 3.25 4.50 1.90 1.50z m9.05 -0.60 c0.60 -0.40 0.45 -0.50 -0.65 -0.50 -0.80 0 -1.30 0.20 -1.10 0.50 0.40 0.60 0.80 0.60 1.75 0z m4.90 -1.25 c0.10 -0.10 -0.80 -0.30 -2 -0.50 -1.20 -0.15 -2.80 -0.45 -3.60 -0.60 -0.95 -0.15 -1.30 -0.10 -1.10 0.30 0.20 0.30 1.15 0.55 2.10 0.55 0.95 0 1.70 0.25 1.70 0.50 0 0.45 2.30 0.20 2.90 -0.25z"/>
  <path d="M19.75 18 c-0.90 -0.40 -0.85 -0.45 0.40 -0.45 0.75 -0.05 1.35 0.20 1.35 0.45 0 0.60 -0.40 0.60 -1.75 0z"/>
  <path d="M16.50 16.50 c-0.60 -0.40 -0.55 -0.50 0.40 -0.50 0.60 0 1.10 0.25 1.10 0.50 0 0.65 -0.55 0.65 -1.50 0z"/>
 </g>
 <g fill="#db3e23">
  <path d="M20.50 38.25 c0 -1.95 0.70 -2.35 1.20 -0.60 0.45 1.75 0.35 2.35 -0.45 2.35 -0.50 0 -0.75 -0.55 -0.75 -1.75z"/>
  <path d="M31.05 36.55 c-1.10 -1.55 -1.35 -2.30 -0.55 -1.80 0.85 0.50 2.60 3.25 2.05 3.25 -0.25 0 -0.95 -0.65 -1.50 -1.45z"/>
  <path d="M19.80 30.70 c-1.40 -1.45 -1.40 -1.45 -0.30 -1.60 1.40 -0.25 2.15 0.50 1.90 1.90 -0.15 1.10 -0.15 1.10 -1.60 -0.30z"/>
  <path d="M23.50 30.50 c1.80 -0.55 2.50 -0.55 2.50 0 0 0.30 -0.85 0.50 -1.85 0.45 -1.70 -0.05 -1.75 -0.10 -0.65 -0.45z"/>
  <path d="M15.50 22.75 c0 -0.85 0.80 -1 1.25 -0.25 0.20 0.30 0.70 0.45 1.15 0.30 3.05 -0.85 4.10 -0.85 4.10 -0.10 0 0.65 -0.60 0.80 -3.25 0.80 -2.55 0 -3.25 -0.15 -3.25 -0.75z"/>
  <path d="M17 21.50 c0 -0.25 -0.35 -0.50 -0.75 -0.50 -0.40 0 -0.75 -0.35 -0.75 -0.75 0 -0.55 0.65 -0.75 2.70 -0.75 1.55 0 2.90 0.25 3.10 0.60 0.25 0.40 -0.35 0.50 -2.25 0.25 -1.60 -0.20 -2.45 -0.10 -2.30 0.15 0.20 0.30 1.10 0.50 2.05 0.50 0.95 0 1.70 0.25 1.70 0.50 0 0.30 -0.80 0.50 -1.75 0.50 -0.95 0 -1.75 -0.20 -1.75 -0.50z"/>
  <path d="M26.65 21.45 c0.70 -0.40 1.10 -0.40 1.50 0 0.40 0.40 0.15 0.55 -0.90 0.55 -1.30 -0.05 -1.40 -0.10 -0.60 -0.55z"/>
  <path d="M29.25 21.40 c-0.20 -0.50 -0.55 -0.90 -0.85 -0.90 -0.25 0 -0.80 -0.30 -1.15 -0.70 -0.60 -0.60 -0.55 -0.80 0.20 -1.50 1.30 -1.15 2.25 -1 1.90 0.30 -0.20 0.60 -0.05 1.40 0.20 1.75 0.30 0.35 0.45 0.90 0.30 1.25 -0.15 0.45 -0.35 0.40 -0.60 -0.20z"/>
  <path d="M5.85 8.40 c-1.45 -1.05 -3.15 -3.80 -2.65 -4.30 0.40 -0.40 3.70 2.85 4.10 4.05 0.40 1.35 0.15 1.40 -1.45 0.25z"/>
 </g>
 <g fill="#3b82a0">
  <path d="M24 39.50 c0.95 -0.65 1.50 -0.65 1.50 0 0 0.30 -0.50 0.50 -1.10 0.50 -0.95 0 -1 -0.10 -0.40 -0.50z"/>
  <path d="M27.50 39.25 c0 -0.40 0.25 -0.75 0.50 -0.75 0.30 0 0.50 0.35 0.50 0.75 0 0.40 -0.20 0.75 -0.50 0.75 -0.25 0 -0.50 -0.35 -0.50 -0.75z"/>
  <path d="M20.50 37.40 c0.05 -0.35 0.25 -1.65 0.50 -2.90 0.25 -1.45 0.25 -2.45 -0.10 -2.85 -0.40 -0.50 -0.15 -0.65 1.05 -0.65 1.30 0 1.55 0.20 1.55 1.25 0 0.80 -0.20 1.15 -0.70 0.95 -0.50 -0.20 -0.75 0.45 -1 2.25 -0.20 1.40 -0.55 2.55 -0.80 2.55 -0.30 0 -0.50 -0.30 -0.50 -0.60z"/>
  <path d="M23.15 21.65 c1.70 -0.45 0.80 -2.25 -1.50 -3.05 -1.20 -0.35 -2.15 -1 -2.15 -1.35 0 -0.60 0.30 -0.60 2 0 1.15 0.40 1.90 0.50 1.75 0.25 -0.15 -0.30 -0.55 -0.50 -0.80 -0.50 -0.75 0 -3.95 -2.70 -3.95 -3.30 0 -0.60 -4 -2.70 -5.10 -2.70 -0.30 0 0.60 1.05 2 2.40 2.55 2.30 3.45 4.05 1.80 3.40 -0.90 -0.35 -10.10 -7.25 -10.50 -7.85 -0.55 -0.95 1.60 -0.35 3 0.75 2.10 1.75 3.10 1.15 1.75 -1 -0.85 -1.40 -0.95 -1.85 -0.45 -2.45 0.35 -0.40 0.80 -0.75 1.05 -0.75 0.20 0 2.50 2.10 5.05 4.65 3.30 3.30 4.05 3.90 2.65 2.10 -1.05 -1.35 -3.15 -3.65 -4.65 -5.05 l-2.75 -2.55 2.40 -0.85 c3.60 -1.20 4.75 -1.05 6.35 0.85 0.80 0.85 1.55 2.15 1.70 2.85 0.50 2.30 1.60 5.25 1.65 4.45 0.05 -1.15 -1.45 -6.05 -2.25 -7.30 -0.95 -1.50 -0.50 -1.45 1.60 0.20 2.45 1.85 3.90 4.80 3.50 7.25 -0.35 2.25 -0.10 2.40 0.90 0.55 l0.75 -1.40 0.05 1.60 c0 1.05 -0.55 2.30 -1.70 3.75 -1.30 1.75 -1.60 2.55 -1.40 3.80 0.20 1.55 0.20 1.60 -1.70 1.55 -1.10 -0.05 -1.55 -0.15 -1.05 -0.30z m3.30 -6.60 c-0.05 -0.60 -0.10 -0.60 -0.30 0.10 -0.10 0.45 -0.45 0.75 -0.70 0.60 -0.25 -0.20 -0.45 0.20 -0.45 0.85 0.05 1.10 0.05 1.10 0.75 0.20 0.40 -0.55 0.70 -1.35 0.70 -1.75z m-4.30 -3.85 c-0.45 -1.35 -0.95 -2.10 -1 -1.70 -0.20 0.85 1.25 4.75 1.65 4.40 0.10 -0.15 -0.20 -1.35 -0.65 -2.70z m3.50 -1.75 c-0.20 -0.20 -0.30 0.75 -0.15 2.20 l0.25 2.60 0.15 -2.20 c0.10 -1.20 0 -2.35 -0.25 -2.60z m-5.65 -3.40 c0 -0.25 -0.45 -0.95 -1 -1.60 -0.85 -1.05 -0.95 -1.05 -0.65 -0.20 0.50 1.65 1.65 2.85 1.65 1.80z"/>
  <path d="M27.50 18.25 c1.35 -1.45 1.50 -1.50 1.50 -0.50 0 0.40 -0.35 0.75 -0.75 0.75 -0.40 0 -0.75 0.25 -0.75 0.50 0 0.30 -0.25 0.50 -0.60 0.50 -0.30 0 -0.05 -0.55 0.60 -1.25z"/>
  <path d="M14.95 17.35 c-0.40 -0.35 -1.45 -1 -2.30 -1.40 -0.90 -0.35 -1.65 -0.95 -1.65 -1.30 0 -0.40 0.65 -0.20 1.70 0.50 0.90 0.60 2.10 1.35 2.60 1.65 0.55 0.35 0.80 0.75 0.65 0.90 -0.20 0.20 -0.65 0.05 -1 -0.35z"/>
 </g>
 <g fill="#a56d4b">
  <path d="M21.75 33.60 c0.10 -0.70 -0.35 -1.60 -1.10 -2.30 -0.75 -0.70 -1.15 -1.60 -1.05 -2.25 0.15 -1 0.25 -0.95 2.05 0.70 1.05 0.95 2.25 1.75 2.65 1.75 0.40 0 0.70 0.35 0.70 0.75 0 0.70 -0.85 1 -2.35 0.80 -0.30 -0.05 -0.65 0.30 -0.80 0.80 -0.10 0.50 -0.15 0.40 -0.10 -0.25z"/>
  <path d="M25 30.60 c0 -0.20 0.45 -0.65 0.95 -0.95 0.80 -0.50 0.90 -0.45 0.70 0.40 -0.25 0.90 -1.65 1.40 -1.65 0.55z"/>
  <path d="M23 26.85 c0 -0.85 0.25 -1.35 0.75 -1.35 0.55 0 0.75 -0.55 0.75 -1.95 0 -1.80 0.10 -1.95 1.65 -2.20 1.80 -0.25 3.20 0.50 2.35 1.35 -0.25 0.25 -0.50 0.75 -0.50 1 0 0.30 0.35 0.05 0.75 -0.55 0.40 -0.60 0.60 -1.40 0.45 -1.85 -0.15 -0.45 -0.05 -0.80 0.25 -0.80 0.30 0 0.55 0.60 0.55 1.30 0 1.50 -1.80 4.70 -2.65 4.70 -0.30 0 -0.90 0.35 -1.40 0.80 -0.55 0.50 -0.95 0.60 -1.20 0.25 -0.15 -0.30 -0.05 -0.55 0.30 -0.55 0.35 0 0.45 -0.15 0.30 -0.35 -0.20 -0.15 -0.80 0.10 -1.35 0.60 -1 0.90 -1 0.85 -1 -0.40z"/>
  <path d="M12.25 25.50 c-0.15 -0.25 -0.75 -0.50 -1.30 -0.50 -0.50 0 -0.95 -0.30 -0.95 -0.70 0 -0.40 -0.15 -1.15 -0.30 -1.65 -0.25 -0.85 -0.25 -0.85 0.45 -0.05 0.90 1.10 1.50 0.60 0.80 -0.65 -0.35 -0.70 -0.30 -0.95 0.20 -0.95 0.45 0 0.85 0.75 1 1.80 0.15 1 0.70 2.10 1.20 2.50 0.80 0.60 0.80 0.65 0.05 0.70 -0.45 0 -1 -0.20 -1.15 -0.50z"/>
  <path d="M15 22.05 c0 -2.35 0.10 -2.50 1.50 -2.80 1.70 -0.35 3.50 0.05 3.50 0.85 0 0.30 -0.65 0.40 -1.80 0.15 -1.20 -0.20 -1.70 -0.15 -1.45 0.20 0.15 0.30 -0.05 0.55 -0.45 0.55 -1.05 0 -1 0.50 0.10 1.30 0.45 0.35 1.45 0.50 2.25 0.35 1.15 -0.25 1.35 -0.10 1.35 0.80 0 0.95 -0.30 1.05 -2.50 1.05 l-2.50 0 0 -2.45z"/>
  <path d="M27.75 18 c0.95 -1.05 1.75 -0.90 1.75 0.30 0 0.45 -0.50 0.70 -1.35 0.70 -1.25 0 -1.30 -0.05 -0.40 -1z"/>
  <path d="M14.65 17.35 c-1.10 -0.50 -1.55 -1.35 -0.75 -1.35 0.60 0 2.40 1.40 2.10 1.65 -0.15 0.10 -0.75 0 -1.35 -0.30z"/>
  <path d="M15.70 15.75 c-0.95 -0.70 -0.90 -0.70 0.20 -0.75 0.65 0 1.10 0.30 1.10 0.75 0 0.95 -0.05 0.95 -1.30 0z"/>
 </g>
 <g fill="#c48237">
  <path d="M23.50 32.50 c0 -0.25 -0.55 -0.50 -1.20 -0.50 -0.75 0 -2.05 -0.90 -3.70 -2.60 -1.35 -1.45 -3 -3.10 -3.55 -3.60 -1.15 -1.05 -1.35 -1.80 -0.50 -1.80 0.30 0 0.10 -0.60 -0.45 -1.35 -0.50 -0.80 -1.10 -2 -1.30 -2.75 -0.15 -0.80 -0.65 -1.40 -1.10 -1.40 -0.55 0 -0.60 0.20 -0.20 0.95 0.65 1.20 0.65 3.05 0.05 3.05 -0.70 0 -1.05 -1.50 -1.25 -4.70 -0.20 -3.90 0.10 -4.15 3 -2.25 3.05 2.05 2.90 1.90 2.60 2.20 -0.15 0.15 -1.05 -0.30 -2.05 -0.95 -1 -0.70 -1.95 -1.05 -2.10 -0.80 -0.20 0.30 -0.10 0.50 0.20 0.50 0.25 0 0.90 0.65 1.35 1.45 0.80 1.35 1 1.45 4 1.35 2.10 -0.05 3.35 0.20 3.80 0.65 0.55 0.55 0.30 0.65 -1.75 0.35 -1.80 -0.20 -2.60 -0.10 -3.20 0.45 -0.65 0.65 -0.65 0.85 0.05 1.50 0.40 0.40 0.95 0.75 1.25 0.75 0.75 0 0.70 0.85 -0.05 1.20 -0.50 0.25 -0.50 0.35 0 0.60 0.30 0.15 0.60 0.70 0.60 1.25 0 0.50 0.25 0.95 0.50 0.95 0.30 0 0.50 -0.20 0.50 -0.50 0 -0.25 0.80 -0.50 1.75 -0.50 1.40 0 1.75 0.20 1.75 1 0 0.75 -0.35 1 -1.25 1 -1.15 0 -1.20 0.10 -0.65 1 0.80 1.20 2.80 1.70 4.55 1.05 1.20 -0.50 1.35 -0.40 1.35 0.60 0 0.65 -0.25 1.40 -0.60 1.75 -0.75 0.75 -2.40 0.80 -2.40 0.10z"/>
  <path d="M25.20 27.20 c0.20 -0.50 0.05 -0.70 -0.30 -0.60 -0.80 0.30 -1.90 -0.80 -1.90 -1.80 0 -0.60 -0.50 -0.80 -2 -0.80 -2.85 0 -2.60 -1.20 0.40 -2 1.30 -0.40 2.55 -0.95 2.75 -1.35 0.70 -1.20 1.35 -0.70 1.65 1.35 0.20 1.10 0.55 1.85 0.75 1.70 0.25 -0.15 0.35 -0.50 0.20 -0.75 -0.20 -0.25 -0.05 -0.45 0.20 -0.45 0.30 0 0.55 -0.40 0.55 -0.85 0 -0.70 0.15 -0.70 0.60 -0.25 0.50 0.50 0.45 0.95 -0.25 2.15 -1.35 2.40 -1 2.95 0.45 0.60 1.05 -1.75 1.15 -2.30 0.65 -3.20 -0.45 -0.85 -0.40 -1 0.15 -0.85 1.90 0.65 0 5.75 -2.65 7.10 -1.40 0.70 -1.50 0.70 -1.25 0z"/>
  <path d="M12.80 25.75 c-0.80 -0.45 -1.80 -0.65 -2.15 -0.55 -0.40 0.15 -0.65 -0.10 -0.65 -0.65 0 -0.55 -0.15 -1.40 -0.30 -1.90 -0.25 -0.85 -0.25 -0.85 0.45 0 0.40 0.45 0.85 0.85 1 0.85 0.15 0 1.05 0.70 1.95 1.50 1.85 1.70 1.80 1.80 -0.30 0.75z"/>
  <path d="M7.05 22.70 c-0.85 -1.30 -1.55 -2.55 -1.55 -2.75 0 -1 1.20 -0.95 2.30 0.10 1.40 1.35 1.15 2 -0.30 0.70 -0.55 -0.50 -1 -0.65 -1 -0.35 0 0.30 0.25 0.70 0.50 0.85 0.65 0.40 2.15 3.30 1.85 3.55 -0.15 0.15 -0.95 -0.80 -1.80 -2.10z"/>
  <path d="M27.25 18.50 c1.05 -1.15 2.25 -1.30 2.25 -0.30 0 0.75 -1.05 1.30 -2.35 1.30 -0.70 0 -0.70 -0.15 0.10 -1z"/>
  <path d="M15 15.25 c-0.50 -0.60 -0.50 -0.75 0.20 -0.75 0.45 0 0.80 0.35 0.80 0.75 0 0.40 -0.10 0.75 -0.20 0.75 -0.10 0 -0.45 -0.35 -0.80 -0.75z"/>
 </g>
 <g fill="#ea6853">
  <path d="M20.50 38.25 c0 -0.95 0.20 -1.75 0.45 -1.75 0.25 0 0.55 0.80 0.65 1.75 0.15 1.20 0 1.75 -0.45 1.75 -0.40 0 -0.65 -0.65 -0.65 -1.75z"/>
  <path d="M31 36.50 c-0.60 -0.80 -0.85 -1.50 -0.65 -1.50 0.25 0 0.95 0.70 1.55 1.50 0.65 0.85 0.90 1.50 0.65 1.50 -0.25 0 -0.95 -0.65 -1.55 -1.50z"/>
  <path d="M24.50 31 c0 -0.25 0.45 -0.70 1 -1 0.85 -0.45 1 -0.40 1 0.50 0 0.65 -0.35 1 -1 1 -0.55 0 -1 -0.20 -1 -0.50z"/>
  <path d="M18.50 22.80 c0 -0.10 0.70 -0.30 1.50 -0.40 0.85 -0.15 1.50 -0.05 1.50 0.20 0 0.20 -0.65 0.40 -1.50 0.40 -0.80 0 -1.50 -0.10 -1.50 -0.20z"/>
  <path d="M17.25 20 c-1.30 -0.35 -1.10 -0.40 1.15 -0.45 1.45 0 2.60 0.15 2.60 0.45 0 0.55 -1.55 0.55 -3.75 0z"/>
  <path d="M27.25 18.50 c0.95 -1.05 2.25 -1.35 2.25 -0.55 0 0.60 -0.95 1.25 -2.20 1.40 -0.95 0.15 -0.95 0.15 -0.05 -0.85z"/>
  <path d="M6.15 8.40 c-1.70 -1.95 -3.25 -4.40 -2.75 -4.40 0.75 0 4.10 3.90 4.10 4.75 0 1 -0.15 0.95 -1.35 -0.35z"/>
  <path d="M30.50 5.40 c0 -0.65 0.50 -1.70 1.05 -2.40 l1.05 -1.25 -0.30 1.70 c-0.15 0.90 -0.30 2 -0.30 2.35 0 0.40 -0.35 0.70 -0.75 0.70 -0.45 0 -0.75 -0.45 -0.75 -1.10z"/>
 </g>
 <g fill="#4aa8b7">
  <path d="M23.20 18.95 c-0.15 -0.30 -0.05 -0.70 0.25 -0.90 0.40 -0.25 0.15 -0.55 -0.65 -0.95 -0.65 -0.30 -3.05 -1.90 -5.30 -3.55 -2.25 -1.70 -4.25 -3.05 -4.45 -3.05 -0.65 0 -2.15 -3.45 -1.85 -4.25 0.25 -0.75 0.45 -0.70 1.70 0.15 2.15 1.55 4.10 3.65 4.10 4.45 0 0.40 0.20 0.60 0.45 0.45 0.25 -0.15 1.15 0.50 2 1.45 2.10 2.40 2.40 2.20 0.55 -0.45 -0.80 -1.25 -1.50 -2.45 -1.50 -2.75 0 -0.30 -0.20 -0.50 -0.40 -0.40 -0.25 0.05 -1.55 -0.95 -3 -2.20 l-2.55 -2.30 1.25 -0.60 c2.75 -1.25 3.85 -0.80 5.60 2.40 0.85 1.60 1.60 3.25 1.60 3.65 0 0.90 2 5.10 2.30 4.80 0.25 -0.25 -2.40 -7.15 -3.80 -9.90 -0.75 -1.50 -0.85 -2 -0.35 -2 1.40 0 2.90 2.60 4.50 7.75 0.55 1.75 0.80 2.10 0.80 1.20 0.05 -1.80 -1.40 -6.55 -2.35 -7.55 -0.40 -0.50 -0.55 -0.90 -0.30 -0.90 0.55 0 2.35 2 2.55 2.75 1.25 5.15 1.90 10.45 1.15 9.25 -0.40 -0.60 -0.50 -0.60 -0.80 0.15 -0.45 1.25 0.65 2.40 1.30 1.35 0.50 -0.80 0.20 -6.10 -0.55 -8.95 -0.60 -2.50 -0.25 -2.45 1 0.05 0.75 1.55 0.95 2.70 0.70 4.05 -0.35 2.25 0.05 2.35 1.10 0.35 0.85 -1.60 1.75 -2 1.75 -0.75 0 0.95 -3.45 6.25 -4.05 6.25 -0.25 0 -0.45 0.35 -0.45 0.75 0 0.85 -1.75 1 -2.30 0.20z"/>
  <path d="M27.30 18.45 c0.60 -0.65 1 -0.80 1.10 -0.45 0.15 0.35 -0.10 0.80 -0.45 1.05 -1.25 0.80 -1.60 0.45 -0.65 -0.60z"/>
  <path d="M18.15 17.25 c-0.90 -0.40 -1.65 -1.05 -1.65 -1.45 0 -0.45 -0.60 -0.95 -1.35 -1.10 -1.90 -0.45 -6.15 -3.60 -6.15 -4.55 0 -0.60 0.45 -0.40 1.90 0.65 1 0.75 1.55 1 1.15 0.55 -1.40 -1.75 0.30 -0.75 3.45 2 1.80 1.55 4.15 3.20 5.25 3.70 1.95 0.90 2 0.95 0.50 0.90 -0.80 0 -2.25 -0.30 -3.10 -0.70z"/>
 </g>
 <g fill="#858c9c">
  <path d="M20.50 37.30 c0 -0.40 0.25 -0.90 0.50 -1.05 0.30 -0.15 0.50 0.15 0.50 0.70 0 0.60 -0.20 1.05 -0.50 1.05 -0.25 0 -0.50 -0.30 -0.50 -0.70z"/>
  <path d="M29.35 34.85 c-1.35 -1.35 -2.30 -2.55 -2.15 -2.75 0.35 -0.35 3.65 2.70 4.40 4.05 0.80 1.55 0.25 1.20 -2.25 -1.30z"/>
  <path d="M21 34.05 c0 -0.30 0.25 -0.65 0.55 -0.80 0.35 -0.25 0.20 -0.70 -0.35 -1.30 -0.85 -0.90 -0.80 -0.95 0.95 -0.95 1.50 0 1.85 0.20 1.85 1 0 0.65 -0.35 1 -1 1 -0.55 0 -1 0.35 -1 0.75 0 0.40 -0.20 0.75 -0.50 0.75 -0.25 0 -0.50 -0.20 -0.50 -0.45z"/>
  <path d="M24.60 31.65 c0.10 -0.85 0.50 -1.45 1.05 -1.55 1.25 -0.25 1.10 1.75 -0.20 2.40 -0.95 0.55 -1 0.45 -0.85 -0.85z"/>
  <path d="M24.20 20.75 c0.25 -1 0.10 -1.30 -0.95 -1.55 -1.60 -0.40 -1.70 -1.70 -0.10 -1.35 1.05 0.20 1.05 0.15 -0.15 -0.55 l-1.25 -0.75 1.25 -0.05 c1.40 0 2.20 1 2.75 3.45 0.25 1.10 0.55 1.55 1.05 1.35 0.40 -0.15 0.70 -0.05 0.70 0.20 0 0.30 -0.80 0.50 -1.80 0.50 -1.65 0 -1.80 -0.10 -1.50 -1.25z"/>
  <path d="M27.20 18.60 c1.10 -1.30 1.80 -1.40 1.80 -0.35 0 0.40 -0.20 0.75 -0.45 0.75 -0.25 0 -0.90 0.15 -1.40 0.35 -0.85 0.30 -0.85 0.25 0.05 -0.75z"/>
  <path d="M28 13.90 c0 -0.35 0.45 -1.65 1 -2.85 0.55 -1.20 1.15 -3.05 1.30 -4.10 0.20 -1.15 0.60 -1.95 1 -1.95 0.40 0 0.70 0.30 0.70 0.65 0 0.95 -1.35 5.15 -2.30 7.10 -0.80 1.75 -1.70 2.35 -1.70 1.15z"/>
  <path d="M7.90 10 c-0.95 -0.60 -4.60 -5.45 -4.30 -5.75 0.10 -0.10 1.60 1.25 3.35 3 2.85 2.90 3.25 4.05 0.95 2.75z"/>
 </g>
 <g fill="#e79c3f">
  <path d="M18.90 29.35 c-2.70 -2.85 -3.70 -4.20 -3.55 -4.90 0.60 -2.15 3.60 0.05 3.65 2.70 0 0.75 0.30 1.35 0.65 1.35 0.35 0 1 0.40 1.45 0.95 0.40 0.50 1.05 1 1.40 1.15 0.35 0.10 0.50 0.75 0.40 1.40 -0.15 1.15 -0.45 0.95 -4 -2.65z"/>
  <path d="M25.65 26.65 c-1.05 -0.40 -0.75 -1.50 0.75 -2.75 0.80 -0.70 1.30 -1.50 1.20 -2.10 -0.15 -0.55 0 -0.80 0.35 -0.60 0.80 0.55 0.65 1.50 -0.45 2.95 -1.10 1.40 -1.25 1.85 -0.55 1.85 0.80 0 2.65 -3.65 2.35 -4.65 -0.15 -0.70 -0.10 -0.85 0.30 -0.45 0.65 0.65 0.25 2.30 -1.10 4.50 -0.95 1.55 -1.55 1.80 -2.85 1.25z"/>
  <path d="M7.70 23.35 c-1.85 -2.75 -2 -3.20 -1.05 -2.40 0.80 0.65 2.50 3.55 2.20 3.85 -0.05 0.10 -0.60 -0.60 -1.15 -1.45z"/>
  <path d="M13.35 20.65 c-0.80 -1.65 -1.45 -2.40 -2.05 -2.30 -0.70 0.05 -0.80 -0.20 -0.60 -1.15 0.20 -0.65 0.10 -1.20 -0.15 -1.20 -0.25 0 -0.35 -0.45 -0.20 -1 0.35 -1.25 1.40 -1.05 1.40 0.30 0 1.55 2.75 4.80 3.85 4.50 0.50 -0.15 1.35 -0.45 1.90 -0.60 0.60 -0.20 1 -0.10 1 0.25 0 0.30 -0.55 0.55 -1.25 0.55 -0.70 0 -1.25 0.25 -1.25 0.50 0 0.30 -0.40 0.50 -0.85 0.50 -0.85 0.05 -0.85 0.05 0 0.70 1.05 0.80 1.10 1.30 0.10 1.30 -0.40 0 -1.25 -1.05 -1.90 -2.35z"/>
  <path d="M6.60 20.25 c-0.65 -0.35 -0.95 -0.75 -0.70 -0.95 0.25 -0.15 1.05 0.15 1.65 0.70 1.35 1.10 0.80 1.25 -0.95 0.25z"/>
  <path d="M19 20 c0 -0.25 0.45 -0.50 1 -0.50 0.55 0 1 0.25 1 0.50 0 0.30 -0.45 0.50 -1 0.50 -0.55 0 -1 -0.20 -1 -0.50z"/>
  <path d="M14.10 16.95 c-0.90 -0.60 -1.55 -1.15 -1.45 -1.30 0.30 -0.25 3.35 1.50 3.35 2 0 0.50 -0.05 0.50 -1.90 -0.70z"/>
  <path d="M14.35 14.85 c-1.60 -1.15 -2.65 -2.15 -2.30 -2.30 0.35 -0.10 0.85 0.10 1.15 0.50 0.70 0.85 2.25 1.85 3.45 2.25 0.45 0.20 0.85 0.65 0.85 1 0 0.90 0.25 1 -3.15 -1.45z"/>
 </g>
 <g fill="#cba46b">
  <path d="M19.60 29.85 c-1.30 -1.35 -1.50 -3.85 -0.35 -3.85 0.40 0 0.75 -0.35 0.75 -0.75 0 -0.40 0.25 -0.75 0.55 -0.75 0.30 0 0.40 -0.40 0.20 -0.95 -0.35 -1.15 1.20 -2.25 2.45 -1.75 0.75 0.30 1 -0.30 0.95 -2.15 -0.05 -1.20 1.25 -0.65 1.55 0.65 0.25 0.95 0.55 1.20 1.30 0.95 1.55 -0.50 1.80 1.05 0.55 2.80 -0.60 0.80 -1 1.65 -0.85 1.90 0.15 0.25 -0.15 0.80 -0.70 1.30 -0.55 0.50 -1 0.65 -1 0.35 0 -0.30 0.30 -0.65 0.65 -0.75 0.35 -0.20 0.30 -0.30 -0.20 -0.30 -0.45 -0.05 -1.10 0.30 -1.50 0.75 -0.40 0.50 -1.15 0.70 -2.05 0.60 -1.95 -0.30 -2.15 0.25 -0.55 1.80 1.15 1.20 1.20 1.30 0.30 1.30 -0.55 0 -1.45 -0.50 -2.05 -1.15z m3.40 -4.90 c0 -0.55 -0.20 -0.85 -0.50 -0.70 -0.25 0.15 -0.50 0.65 -0.50 1.05 0 0.40 0.25 0.70 0.50 0.70 0.30 0 0.50 -0.45 0.50 -1.05z"/>
  <path d="M16.55 26.20 c-0.60 -0.75 -1.05 -1.55 -1.05 -1.85 0 -0.30 -0.35 -0.95 -0.85 -1.45 -1.20 -1.35 -0.55 -1.55 1.55 -0.55 1.60 0.80 1.80 1.10 1.80 3.05 0 1.15 -0.10 2.10 -0.20 2.10 -0.15 0 -0.70 -0.60 -1.25 -1.30z"/>
  <path d="M28.35 24.65 c0.70 -1.75 1.65 -3.40 1.65 -2.75 0 0.70 -1.40 3.60 -1.75 3.60 -0.10 0 -0.05 -0.40 0.10 -0.85z"/>
  <path d="M13.50 20.50 c0 -0.25 0.55 -0.50 1.25 -0.50 0.70 0 1.25 0.25 1.25 0.50 0 0.30 -0.55 0.50 -1.25 0.50 -0.70 0 -1.25 -0.20 -1.25 -0.50z"/>
  <path d="M6.75 20 c-0.20 -0.30 -0.55 -0.35 -0.85 -0.20 -0.35 0.20 -0.40 0.10 -0.20 -0.20 0.25 -0.45 0.65 -0.45 1.35 -0.10 0.50 0.30 0.95 0.65 0.95 0.75 0 0.45 -0.95 0.25 -1.25 -0.25z"/>
  <path d="M17.90 20.15 c-0.50 -0.10 -0.90 -0.45 -0.90 -0.75 0 -0.55 3 -0.05 3.75 0.65 0.45 0.45 -1.25 0.55 -2.85 0.10z"/>
  <path d="M27.50 18.50 c0.30 -0.55 0.90 -1 1.30 -1 1.10 0 0.60 1.10 -0.70 1.55 -1 0.40 -1.05 0.30 -0.60 -0.55z"/>
 </g>
 <g fill="#67bbd3">
  <path d="M21.45 18.65 c-2.25 -0.80 -3.55 -1.60 -3.95 -2.45 -0.40 -0.70 -1.10 -1.20 -1.80 -1.20 -1.35 0 -8.70 -5.40 -8.70 -6.40 0 -0.80 -0.10 -0.85 3.55 2.05 1.25 1 2.65 1.85 3.15 1.85 0.45 0 1.65 0.80 2.75 1.75 1.75 1.60 7.40 4.55 7.85 4.10 0.10 -0.10 -1 -0.95 -2.45 -1.85 -2.85 -1.85 -8.85 -6.45 -8.85 -6.80 0 -0.15 0.45 0 1.05 0.30 1.50 0.85 1.80 0.20 0.40 -0.95 -0.65 -0.55 -1 -1.15 -0.80 -1.35 0.20 -0.25 2.05 1.35 4.10 3.50 2.05 2.15 3.75 3.70 3.75 3.45 0 -0.70 -1.65 -2.95 -4.25 -5.70 -1.35 -1.50 -2.45 -3.05 -2.50 -3.45 0 -0.50 -0.40 -0.70 -1.25 -0.60 -1.05 0.10 -1 0 0.45 -0.65 2.15 -0.95 4.05 -1 4.05 0 0 0.40 0.55 1.55 1.25 2.55 0.70 1 1.25 2.15 1.25 2.55 0 0.85 2.50 5.85 2.80 5.55 0.30 -0.35 -1.45 -5.15 -3.15 -8.75 -1.75 -3.65 -1 -4.40 1.15 -1.20 1.40 2.15 2 4.10 2.80 8.80 0.25 1.65 0.70 3.40 0.95 3.85 0.55 1.05 0.60 2.40 0.10 2.35 -0.25 -0.05 -1.90 -0.60 -3.70 -1.30z"/>
  <path d="M26.10 17.25 c0.10 -0.25 1.05 -2.25 2.10 -4.35 1 -2.15 2.05 -3.90 2.35 -3.90 1.10 0 -1.85 6.25 -3.70 7.85 -0.55 0.50 -0.90 0.70 -0.75 0.40z"/>
  <path d="M24.85 13.80 c-0.20 -0.50 -0.35 -1.50 -0.35 -2.25 0 -1.80 -1.45 -6.05 -2.40 -7.15 -0.40 -0.50 -0.55 -0.90 -0.25 -0.90 0.70 0 2.30 1.85 2.50 2.90 0.90 5.55 1.15 7.40 1 7.80 -0.10 0.30 -0.30 0.10 -0.50 -0.40z"/>
  <path d="M26.40 13 c-0.20 -0.70 -0.45 -2.15 -0.55 -3.25 -0.15 -1.10 -0.40 -2.45 -0.60 -3 -0.20 -0.55 0.15 -0.30 0.75 0.60 0.80 1.25 1 2.15 0.90 4.25 -0.15 2 -0.25 2.35 -0.50 1.40z"/>
 </g>
 <g fill="#cab798">
  <path d="M22.25 32.60 c-0.25 -0.20 -0.80 -0.75 -1.20 -1.25 -0.65 -0.85 -0.55 -0.90 1.25 -0.85 1.05 0.05 2.45 -0.10 3.10 -0.25 0.80 -0.30 1.10 -0.15 1.10 0.40 0 1.75 -2.80 3.05 -4.25 1.95z"/>
  <path d="M17.25 27.15 c-0.70 -1.05 -1.25 -2.10 -1.25 -2.35 0 -0.25 -0.40 -0.90 -0.85 -1.45 -0.85 -1 -0.85 -1 0.35 -0.70 0.70 0.20 2.85 0.10 4.85 -0.25 2.90 -0.45 3.65 -0.75 3.85 -1.60 0.15 -0.55 0 -1.20 -0.35 -1.40 -0.40 -0.25 -0.20 -0.40 0.50 -0.40 0.80 0 1.10 0.35 1.25 1.40 0.10 0.75 0.40 1.30 0.65 1.25 0.30 -0.05 0.85 -0.15 1.25 -0.25 1 -0.20 0.75 1.95 -0.30 3.15 -0.45 0.50 -0.65 1.10 -0.50 1.40 0.20 0.25 0.10 0.60 -0.20 0.80 -0.25 0.15 -0.50 0.10 -0.50 -0.15 0 -0.25 -0.65 -0.60 -1.45 -0.75 -1.05 -0.20 -1.55 -0.65 -1.65 -1.45 -0.15 -1.05 -0.25 -1 -0.75 0.50 -0.55 1.55 -0.55 1.60 0.65 1.60 0.80 0 1.20 0.25 1.05 0.65 -0.10 0.35 -0.95 0.60 -2.05 0.55 -1.20 -0.05 -1.80 0.15 -1.80 0.60 0 1.35 -1.45 0.70 -2.75 -1.15z m9.95 -3.95 c0.20 -0.50 0.05 -0.70 -0.30 -0.60 -0.75 0.25 -1.15 1.40 -0.50 1.40 0.25 0 0.65 -0.35 0.80 -0.80z"/>
  <path d="M18.25 20 c-0.85 -0.35 -0.75 -0.45 0.65 -0.45 0.85 -0.05 1.60 0.20 1.60 0.45 0 0.60 -0.85 0.60 -2.25 0z"/>
  <path d="M27.50 18.55 c0 -0.50 1.50 -1.20 1.85 -0.85 0.15 0.15 0.10 0.45 -0.10 0.75 -0.40 0.65 -1.75 0.75 -1.75 0.10z"/>
 </g>
 <g fill="#f8c064">
  <path d="M18.05 28.15 c-0.95 -1.15 -1.35 -1.95 -1 -2.10 0.35 -0.10 0.90 0.20 1.25 0.65 0.40 0.55 0.70 0.65 0.95 0.35 0.15 -0.30 1.10 -0.55 2.05 -0.55 1.25 0 1.70 0.20 1.70 0.80 0 0.65 -0.35 0.75 -1.55 0.50 -1.40 -0.25 -1.55 -0.20 -1.30 0.70 0.45 1.75 -0.50 1.55 -2.10 -0.35z"/>
  <path d="M26 26.55 c0 -0.30 -0.35 -0.55 -0.75 -0.55 -0.45 0 -0.75 -0.45 -0.75 -1.05 0 -0.70 0.25 -0.95 0.80 -0.85 1 0.20 1.90 2.25 1.20 2.65 -0.30 0.20 -0.50 0.05 -0.50 -0.20z"/>
  <path d="M7.55 23.20 c-0.95 -1.25 -1.35 -2.20 -0.85 -2.20 0.10 0 0.65 0.80 1.25 1.75 1.20 2.10 1.05 2.25 -0.40 0.45z"/>
  <path d="M14.85 23.10 c-1.30 -1.40 -1 -1.75 0.65 -0.75 0.85 0.45 1.50 1.05 1.50 1.25 0 0.75 -1.35 0.40 -2.15 -0.50z"/>
  <path d="M13.50 20.25 c0 -0.40 -0.45 -1.20 -1 -1.75 -1.10 -1.10 -1.25 -1.50 -0.55 -1.50 0.30 0 0.90 0.70 1.40 1.50 0.45 0.85 1.15 1.50 1.50 1.50 0.35 0 0.65 0.25 0.65 0.50 0 0.30 -0.45 0.50 -1 0.50 -0.55 0 -1 -0.35 -1 -0.75z"/>
  <path d="M18.50 20 l-1.75 -0.35 1.90 -0.10 c1 0 1.85 0.20 1.85 0.45 0 0.30 -0.05 0.45 -0.10 0.45 -0.10 -0.05 -0.95 -0.25 -1.90 -0.45z"/>
  <path d="M28.15 18.15 c0.45 -0.45 0.95 -0.70 1.15 -0.55 0.50 0.50 -0.30 1.40 -1.20 1.40 -0.75 0 -0.75 -0.05 0.05 -0.85z"/>
  <path d="M15.70 15.75 c-0.85 -0.65 -0.85 -0.70 -0.10 -0.75 0.45 0 1 0.25 1.15 0.55 0.55 0.85 0 1 -1.05 0.20z"/>
 </g>
 <g fill="#94bee0">
  <path d="M20.85 35.65 c0.30 -1.95 1.15 -3.50 1.15 -2.05 0 1.50 -0.65 3.90 -1.05 3.90 -0.20 0 -0.25 -0.85 -0.10 -1.85z"/>
  <path d="M27.80 33.20 c-0.55 -0.35 -0.90 -0.80 -0.75 -0.90 0.10 -0.10 0.65 0.10 1.15 0.50 0.55 0.35 0.90 0.80 0.75 0.90 -0.10 0.10 -0.65 -0.10 -1.15 -0.50z"/>
  <path d="M22.20 32.25 c-0.95 -0.70 -0.90 -0.70 0.20 -0.75 0.65 0 1.10 0.30 1.10 0.75 0 0.95 -0.05 0.95 -1.30 0z"/>
  <path d="M24.30 20.80 c0.25 -1.10 0.05 -1.25 -2.40 -2.05 -3.15 -1 -4.90 -2 -8.70 -4.75 -2.70 -2.05 -3.45 -3.25 -1.10 -1.90 0.60 0.35 1.50 0.65 1.90 0.65 0.40 0 0.95 0.50 1.25 1.15 0.25 0.60 0.80 1.10 1.15 1.10 0.40 0 1.30 0.40 2 0.90 1.15 0.80 5.20 2.60 5.85 2.60 0.10 0 0.10 -0.35 -0.05 -0.75 -0.20 -0.40 -0.60 -0.75 -1 -0.75 -0.40 0 -0.70 -0.20 -0.70 -0.50 0 -0.25 0.45 -0.50 1 -0.50 0.65 0 1 0.35 1 0.95 0 0.55 0.20 1.10 0.45 1.25 0.25 0.15 0.55 1.10 0.65 2.05 0.15 1.45 0.05 1.75 -0.70 1.75 -0.70 0 -0.85 -0.25 -0.60 -1.20z"/>
  <path d="M27.95 13.50 c1.15 -2.30 2.20 -4.90 2.35 -5.85 0.15 -0.90 0.60 -1.65 0.95 -1.65 1.45 0 -2.30 9.20 -4.50 11 -0.45 0.35 0.10 -1.20 1.20 -3.50z"/>
  <path d="M7.65 9.70 c-1.55 -1.20 -2.15 -2.20 -1.25 -2.20 0.65 0.05 3.20 2.50 3 3 -0.10 0.25 -0.90 -0.10 -1.75 -0.80z"/>
  <path d="M24.40 9.75 c-0.15 -0.25 -0.45 -1.30 -0.60 -2.25 l-0.35 -1.75 0.80 1.40 c0.75 1.30 0.90 3.80 0.15 2.60z"/>
  <path d="M25.55 7.60 c-0.85 -1.55 -0.65 -2 0.25 -0.70 0.45 0.65 0.70 1.30 0.55 1.45 -0.15 0.10 -0.50 -0.20 -0.80 -0.75z"/>
  <path d="M20 4.40 c0 -0.60 0.05 -0.95 0.15 -0.85 0.05 0.10 0.45 0.60 0.80 1.10 0.60 0.70 0.55 0.85 -0.15 0.85 -0.50 0 -0.80 -0.40 -0.80 -1.10z"/>
 </g>
 <g fill="#fdadab">
  <path d="M30.80 36.20 c-0.80 -1 -1.20 -1.75 -0.85 -1.65 0.55 0.20 2.90 3.45 2.45 3.45 -0.05 0 -0.80 -0.80 -1.60 -1.80z"/>
  <path d="M7.20 9.10 c-1.25 -1.05 -3.90 -4.55 -3.65 -4.85 0.15 -0.10 1.30 1.05 2.65 2.55 2.45 2.80 2.90 3.85 1 2.30z"/>
  <path d="M30.50 6.45 c0.45 -2.50 1.50 -3.80 1.50 -1.80 0 1.40 -0.95 3.85 -1.50 3.85 -0.20 0 -0.20 -0.90 0 -2.05z"/>
 </g>
 <g fill="#ead69e">
  <path d="M22.10 32.20 c-1.35 -0.95 -6.10 -6.55 -6.10 -7.25 0 -0.75 2 0.70 2.30 1.70 0.20 0.70 0.45 0.80 0.85 0.40 0.30 -0.30 1.55 -0.55 2.75 -0.55 1.95 0 2.15 0.10 1.60 0.75 -0.45 0.55 -1.10 0.70 -2.10 0.50 -1.05 -0.25 -1.40 -0.15 -1.40 0.45 0 1.30 2.30 2.45 4.25 2.15 2.05 -0.35 2.65 0.35 1.45 1.70 -1.05 1.15 -2.10 1.20 -3.60 0.15z"/>
  <path d="M20 25.55 c0 -0.30 0.35 -0.55 0.75 -0.55 0.40 0 0.75 -0.35 0.75 -0.80 0 -0.55 -0.30 -0.75 -1 -0.55 -0.60 0.15 -1 0 -1 -0.40 0 -0.65 1.50 -1.25 3.25 -1.25 0.55 0 1.30 -0.50 1.70 -1.10 l0.70 -1.10 0.40 1.05 c0.25 0.75 0.70 1 1.35 0.80 0.55 -0.10 1.10 -0.05 1.25 0.20 0.15 0.25 -0.20 0.50 -0.75 0.50 -1.35 0.10 -1.55 0.35 -1.60 2.15 -0.05 0.90 -0.30 1.50 -0.75 1.50 -0.45 0 -0.60 -0.50 -0.45 -1.75 0.15 -1.20 0 -1.75 -0.45 -1.75 -0.35 0 -0.65 0.25 -0.65 0.50 0 0.30 -0.30 0.50 -0.70 0.50 -0.40 0 -0.80 0.50 -0.90 1.10 -0.15 1.15 -1.90 1.95 -1.90 0.95z"/>
  <path d="M17 24.15 c-1.35 -0.25 -2.50 -1.05 -2.50 -1.65 0 -0.55 3.70 0.80 3.90 1.45 0.10 0.30 0.10 0.50 0 0.50 -0.05 -0.05 -0.70 -0.20 -1.40 -0.30z"/>
  <path d="M18.75 20 l-1.50 -0.40 1.35 -0.05 c0.75 0 1.50 0.20 1.65 0.45 0.15 0.30 0.25 0.45 0.15 0.45 -0.10 -0.05 -0.80 -0.25 -1.65 -0.45z"/>
  <path d="M28.15 18.15 c0.45 -0.45 1 -0.65 1.20 -0.45 0.20 0.20 0.05 0.55 -0.35 0.80 -1.25 0.80 -1.75 0.55 -0.85 -0.35z"/>
 </g>
 <g fill="#8ae3f2">
  <path d="M18.65 17.25 c-2.50 -1.15 -6.15 -3.70 -6.15 -4.25 0 -0.95 2.40 0.05 4.65 1.85 1.40 1.20 2.85 2.15 3.15 2.15 0.25 0 0.95 0.35 1.50 0.75 1.55 1.15 -0.15 0.90 -3.15 -0.50z"/>
  <path d="M22.45 16.60 c-0.95 -0.50 -3.15 -2 -4.90 -3.30 -2.35 -1.80 -2.95 -2.55 -2.45 -2.90 0.50 -0.35 0.45 -0.55 -0.30 -1.15 -0.55 -0.40 -0.80 -0.90 -0.60 -1.10 0.15 -0.20 1.90 1.35 3.80 3.40 1.90 2.05 3.50 3.45 3.50 3.10 0 -0.65 -3.30 -5.10 -4.40 -5.95 -0.65 -0.45 -0.65 -0.60 0.10 -0.85 0.45 -0.20 0.80 -0.65 0.80 -1.10 0 -1.70 0.95 -0.55 2.55 3.15 1.65 3.90 2.95 6.25 2.95 5.35 0 -1.75 -3.20 -9.95 -4.40 -11.35 -0.65 -0.80 -0.65 -0.90 0 -0.90 0.90 0 3.25 3.35 3.70 5.35 0.15 0.75 0.65 2.45 1.05 3.70 0.40 1.30 0.65 3.05 0.55 3.90 l-0.15 1.60 -1.80 -0.95z"/>
  <path d="M27.70 14.15 c1 -2 2.05 -3.65 2.35 -3.65 0.30 0 -0.15 1.30 -1.05 2.90 -2.40 4.30 -3.35 4.85 -1.30 0.75z"/>
  <path d="M24.55 11.25 c-0.05 -0.80 -0.40 -2.35 -0.75 -3.35 -0.40 -1.05 -0.50 -1.90 -0.30 -1.90 0.75 0 1.55 2.90 1.35 4.80 -0.15 1.65 -0.20 1.70 -0.30 0.45z"/>
  <path d="M8.65 10.30 c-0.75 -0.65 -1.25 -1.35 -1.10 -1.50 0.15 -0.15 1.05 0.40 2 1.20 0.95 0.80 1.45 1.45 1.10 1.50 -0.35 0 -1.25 -0.55 -2 -1.20z"/>
 </g>
 <g fill="#f1ebc4">
  <path d="M21.65 31.40 c-1.05 -0.90 -2.15 -2 -2.50 -2.40 -1 -1.30 -0.20 -1.25 1.25 0.10 1.70 1.60 2.50 1.85 4.20 1.35 1.85 -0.50 2.40 0.45 0.90 1.65 -1.50 1.20 -1.65 1.15 -3.85 -0.70z"/>
  <path d="M21.80 27.55 c-0.15 -0.25 0.05 -0.60 0.50 -0.75 1 -0.40 1.45 -0.05 0.95 0.65 -0.40 0.65 -1.10 0.70 -1.45 0.10z"/>
  <path d="M17 26.25 c-0.50 -0.60 -0.50 -0.75 0.15 -0.75 0.40 0 0.85 0.35 1.05 0.75 0.15 0.40 0.10 0.75 -0.15 0.75 -0.25 0 -0.70 -0.35 -1.05 -0.75z"/>
  <path d="M20 25.55 c0 -0.25 0.40 -0.85 0.90 -1.35 0.80 -0.85 0.80 -0.85 -0.40 -0.50 -1.65 0.55 -4.05 0.45 -4.70 -0.20 -0.35 -0.35 0.05 -0.50 1.20 -0.50 0.95 0 2.65 -0.25 3.70 -0.50 2.25 -0.50 3.35 -0.15 2.20 0.70 -0.45 0.30 -0.85 1 -0.95 1.55 -0.20 1 -1.95 1.75 -1.95 0.80z"/>
  <path d="M24.55 23.25 c0.05 -3.60 0.70 -3.90 1.35 -0.60 0.55 2.80 0.45 3.35 -0.65 3.35 -0.55 0 -0.70 -0.70 -0.70 -2.75z"/>
 </g>
 <g fill="#b5f1fd">
  <path d="M28.70 33.90 c-1.75 -1.85 -1.80 -1.95 -0.40 -1 1.75 1.20 2.95 2.50 2.60 2.85 -0.10 0.15 -1.10 -0.70 -2.20 -1.85z"/>
  <path d="M19.05 17.50 c-3.25 -1.50 -12.40 -8.30 -11.85 -8.85 0.10 -0.15 1.70 0.85 3.50 2.20 4.15 3.10 8.70 5.95 10.45 6.60 0.75 0.30 1.35 0.65 1.35 0.80 0 0.50 -1.25 0.20 -3.45 -0.75z"/>
  <path d="M17.60 13.10 c-2.20 -1.90 -2.55 -2.60 -1.45 -2.60 0.65 0 4.35 3.50 4.35 4.15 0 0.70 -0.80 0.30 -2.90 -1.55z"/>
  <path d="M20.05 11.95 c-1.65 -2 -1.80 -3.20 -0.30 -1.95 0.90 0.75 2.45 3.50 2.10 3.80 -0.10 0.10 -0.90 -0.70 -1.80 -1.85z"/>
  <path d="M28.50 13.75 c0 -0.80 2 -6.45 2.55 -7 0.85 -0.85 -0.15 2.85 -1.35 5.25 -0.65 1.25 -1.15 2 -1.20 1.75z"/>
  <path d="M23.20 12.70 c-0.20 -0.50 -0.75 -1.95 -1.25 -3.15 -1.05 -2.40 -1.20 -3.55 -0.50 -3.55 0.60 0 2.80 6.90 2.40 7.35 -0.20 0.15 -0.45 -0.15 -0.65 -0.65z"/>
  <path d="M24.55 10.50 c-0.05 -0.40 -0.20 -1.30 -0.35 -2 -0.25 -1.10 -0.20 -1.15 0.30 -0.35 0.30 0.50 0.45 1.40 0.35 2 -0.10 0.60 -0.25 0.75 -0.30 0.35z"/>
 </g>
 <g fill="#f1f8f4">
  <path d="M23 31.55 c0 -0.55 2.40 -1.20 3.05 -0.80 0.25 0.20 0.35 0.55 0.20 0.80 -0.40 0.60 -3.25 0.60 -3.25 0z"/>
  <path d="M24.50 25.40 c0 -0.35 0.15 -1.20 0.35 -1.85 l0.30 -1.15 0.60 1.15 c0.35 0.65 0.55 1.45 0.40 1.80 -0.35 0.85 -1.65 0.85 -1.65 0.05z"/>
  <path d="M12.95 13.45 c-0.95 -0.80 -1 -0.90 -0.20 -0.50 1.70 0.85 2.55 1.55 1.95 1.55 -0.35 0 -1.10 -0.45 -1.75 -1.05z"/>
  <path d="M29 12.95 c-0.05 -0.65 1.65 -5.75 2.05 -6.20 0.75 -0.75 -0.10 2.80 -1.10 4.75 -0.50 0.95 -0.90 1.60 -0.95 1.45z"/>
  <path d="M6.35 7.90 c-1 -1.15 -1.85 -2.35 -1.85 -2.60 0 -0.25 0.05 -0.35 0.15 -0.25 0.05 0.10 1.10 1.30 2.35 2.60 1.20 1.30 1.95 2.35 1.70 2.35 -0.30 0 -1.35 -0.95 -2.35 -2.10z"/>
 </g>
</svg>