<?xml version="1.0" encoding="utf-8"?>
<!DOCTYPE svg PUBLIC "-//W3C//DTD SVG 1.0//EN" "http://www.w3.org/TR/2001/REC-SVG-20010904/DTD/svg10.dtd">
<svg version="1.0" xmlns="http://www.w3.org/2000/svg" width="40px" height="40px" viewBox="0 0 40 40" preserveAspectRatio="xMidYMid meet">
 <g fill="#100608">
  <path d="M0 39.35 c0 -0.40 0.55 -1.20 1.25 -1.85 l1.25 -1.15 0 1.80 c0 1.65 -0.15 1.85 -1.25 1.85 -0.70 0 -1.25 -0.30 -1.25 -0.65z"/>
  <path d="M33.50 39 c0 -0.55 -0.35 -1 -0.75 -1 -0.55 0 -0.75 -0.55 -0.75 -1.80 0 -2.15 0.45 -1.90 2.95 1.55 l1.60 2.25 -1.50 0 c-1.20 0 -1.55 -0.20 -1.55 -1z"/>
  <path d="M4 34.15 c1.85 -2.40 3.15 -2.75 2.90 -0.75 -0.15 1.15 -0.40 1.40 -1.85 1.50 -1.60 0.15 -1.70 0.10 -1.05 -0.75z"/>
  <path d="M8.85 33.40 c-0.20 -1.20 0 -1.85 0.55 -2.25 0.50 -0.35 1.15 -0.85 1.50 -1.20 0.90 -0.75 1.10 -0.45 1.45 2.50 l0.30 2.55 -1.75 0 c-1.65 0 -1.80 -0.15 -2.05 -1.60z"/>
  <path d="M22.85 34.15 c-0.20 -0.15 -0.35 -1.05 -0.35 -2 0 -1.50 0.15 -1.65 1.50 -1.65 1.45 0 1.50 -0.05 1.50 -2.35 0 -2.20 -0.05 -2.25 -0.90 -1.50 -0.50 0.50 -1.20 0.85 -1.50 0.85 -0.70 0 -2.85 2.10 -3.25 3.20 -0.25 0.60 -1.05 0.80 -3.30 0.80 -2.45 0 -3.10 -0.20 -3.55 -0.95 -0.80 -1.60 -0.60 -3.05 0.80 -4.65 0.90 -1.10 1.10 -1.70 0.75 -2.05 -0.30 -0.30 -0.55 -1.05 -0.55 -1.65 0 -0.65 -0.20 -1.25 -0.45 -1.40 -0.25 -0.15 -0.55 -0.80 -0.70 -1.40 -0.10 -0.65 -0.40 -1.55 -0.60 -2 -0.30 -0.75 -0.10 -0.90 0.95 -0.90 0.95 0 1.30 0.25 1.30 0.90 0 0.50 0.15 1.10 0.35 1.30 0.50 0.50 1.60 4.80 1.65 6.40 l0 1.35 1.60 -0.85 c0.85 -0.45 2.25 -1.60 3.05 -2.50 1.85 -2.05 3.85 -3.10 5.85 -3.10 1.25 0 1.50 -0.20 1.50 -1.25 0 -0.70 0.25 -1.25 0.50 -1.25 0.30 0 0.50 -0.20 0.50 -0.50 0 -0.25 -0.30 -0.50 -0.70 -0.50 -0.40 0 -0.80 -0.30 -0.95 -0.60 -0.15 -0.50 -0.35 -0.50 -0.95 -0.05 -0.70 0.60 -6.25 1.60 -8.75 1.65 -1 0 -1.15 -0.25 -1.15 -1.75 0 -1.60 0.10 -1.75 1.55 -1.75 0.85 0 1.85 -0.35 2.25 -0.75 0.45 -0.40 1.20 -0.75 1.75 -0.75 0.75 0 0.95 -0.35 0.95 -1.65 0 -2.30 1.40 -3.55 3.75 -3.25 1.50 0.15 1.75 0.05 1.75 -0.80 0 -0.80 0.15 -0.85 0.60 -0.40 0.45 0.45 1.10 0.15 2.75 -1.50 1.90 -1.85 2.15 -1.95 2.15 -1.05 0 0.60 -0.25 1.25 -0.50 1.40 -0.30 0.20 -0.40 0.55 -0.25 0.80 0.20 0.25 -0.05 0.45 -0.50 0.45 -0.45 0 -0.65 0.25 -0.50 0.50 0.20 0.30 -0.20 1.35 -0.80 2.35 -1 1.60 -1.05 2.05 -0.60 4.35 0.60 2.90 0.20 4.10 -2.65 7.60 -1.75 2.10 -2 3.15 -1.55 6.10 0.30 1.75 1.05 3.15 2.80 4.95 1.40 1.50 1.35 1.75 -0.55 1.55 -1.45 -0.15 -1.65 -0.35 -1.80 -1.75 -0.10 -1.15 -0.40 -1.65 -1 -1.60 -0.55 0 -0.60 0.15 -0.20 0.30 0.30 0.10 0.60 1 0.60 1.95 0 1.65 -0.05 1.70 -1.90 1.70 -1.05 0 -2.10 -0.15 -2.25 -0.35z"/>
  <path d="M10.80 6.70 c-0.45 -1.75 0.10 -4.20 0.95 -4.20 0.85 0 1.30 2 0.95 3.95 -0.40 1.90 -1.45 2.05 -1.90 0.25z"/>
  <path d="M16.25 4.80 c1.25 -1.90 2.25 -2.05 2.25 -0.30 0 1.35 -0.15 1.50 -1.50 1.50 -1.50 0 -1.50 0 -0.75 -1.20z"/>
 </g>
 <g fill="#060b31">
  <path d="M19.50 36.05 c0 -1.65 0.25 -3.15 0.50 -3.30 0.30 -0.15 0.50 -0.75 0.50 -1.30 0 -0.50 0.25 -0.95 0.50 -0.95 0.30 0 0.50 -0.20 0.50 -0.50 0 -0.25 -0.35 -0.50 -0.75 -0.50 -0.40 0 -0.75 0.45 -0.75 1 0 0.90 -0.35 1 -2.95 1 l-2.90 0 -1.45 3 c-1.30 2.75 -1.55 3 -3.05 3 -1.50 0 -1.65 -0.15 -1.65 -1.45 0 -2.75 0.65 -4.70 1.60 -4.95 0.50 -0.10 1.50 -1.20 2.20 -2.40 0.95 -1.65 1.60 -2.20 2.50 -2.20 0.70 0 1.35 0.35 1.50 0.75 0.40 0.95 2.20 1 2.20 0 0 -0.85 1.50 -2.75 2.15 -2.75 0.25 0 1.30 -0.65 2.35 -1.50 1.05 -0.80 2.25 -1.50 2.70 -1.50 0.45 0 0.80 -0.40 0.80 -1 0 -0.55 0.30 -1 0.70 -1 0.40 0 0.80 -0.25 0.90 -0.55 0.10 -0.30 0.80 -0.45 1.60 -0.35 l1.45 0.15 -1.85 2.40 c-1 1.30 -1.80 2.80 -1.80 3.30 0 0.50 -0.50 1.30 -1.10 1.75 -1.05 0.70 -1.10 0.80 -0.25 1.30 0.45 0.30 0.85 1.15 0.85 1.90 0 1.05 0.10 1.20 0.50 0.60 0.45 -0.65 0.60 -0.60 1.10 0.25 0.30 0.55 1.60 1.95 2.85 3.15 l2.30 2.15 -2 -0.15 c-1.60 -0.10 -2 -0.35 -2.30 -1.40 -0.30 -1.15 -0.35 -1.10 -0.40 0.40 -0.05 1.35 -0.25 1.60 -1.30 1.60 -0.90 0 -1.25 0.25 -1.25 1 0 0.75 -0.35 1 -1.20 1 -0.70 0 -1.40 0.25 -1.55 0.50 -0.15 0.30 -1.10 0.50 -2.05 0.50 l-1.70 0 0 -2.95z m-1.25 -6.55 c0.15 -0.30 -0.10 -0.65 -0.60 -0.80 -0.50 -0.15 -1.50 -0.55 -2.25 -0.95 -1.50 -0.75 -1.75 -0.35 -0.90 1.30 0.55 1 3.20 1.35 3.75 0.45z m6.50 -5.75 c2 -1.85 2.20 -2.15 1 -1.55 -1.60 0.75 -4.75 3.80 -3.95 3.80 0.25 0 1.60 -1 2.95 -2.25z"/>
  <path d="M1.95 36.60 c0.25 -0.45 0.95 -1.30 1.50 -1.80 1.05 -0.95 1.05 -0.95 1.05 0.85 0 1.70 -0.10 1.85 -1.50 1.85 -1.30 0 -1.45 -0.15 -1.05 -0.90z"/>
  <path d="M16.50 16.50 c0 -0.80 -0.35 -1 -1.75 -1 -1.70 0 -1.75 -0.05 -1.75 -1.85 0 -1.05 -0.45 -2.55 -1 -3.40 -1.30 -2 -1.35 -4.25 -0.05 -4.25 0.75 0 1 0.50 1.30 2.40 0.25 2.05 0.50 2.50 1.80 2.95 0.90 0.35 1.45 0.90 1.45 1.55 0 0.85 0.20 0.90 1.90 0.55 4.65 -1 4.60 -1 4.60 -2.50 0 -1.30 0.15 -1.45 1.55 -1.45 1.40 0 1.50 0.10 0.90 0.90 -0.65 0.80 -0.60 0.80 0.35 -0.05 0.65 -0.55 1 -1.30 0.85 -2 -0.10 -0.60 0.30 -1.65 0.85 -2.30 l1 -1.15 0.90 1.10 0.90 1.15 1.35 -1.35 c1.45 -1.45 3.50 -1.90 2.35 -0.55 -0.35 0.40 -0.50 0.75 -0.30 0.75 0.15 0 -0.40 1.05 -1.20 2.35 -0.85 1.30 -1.50 2.85 -1.50 3.50 0 0.65 -0.20 1.15 -0.45 1.15 -0.25 0 -0.55 0.45 -0.70 0.95 -0.15 0.65 -0.85 1.05 -2.40 1.30 -1.20 0.20 -3.55 0.75 -5.15 1.30 -3.95 1.25 -5.80 1.25 -5.80 -0.05z m8.75 -2.05 c0.25 -0.25 0 -0.45 -0.60 -0.45 -1.40 0 -2.65 0.50 -2.65 1.05 0 0.55 2.50 0.05 3.25 -0.60z m4.55 -3.50 l0.80 -1.55 -1.30 0.90 c-1.50 1.15 -2.05 2.20 -1.05 2.20 0.40 0 1.10 -0.70 1.55 -1.55z"/>
  <path d="M11 2.55 c0 -0.25 0.35 -0.70 0.75 -1.05 0.65 -0.50 0.75 -0.45 0.75 0.45 0 0.60 -0.30 1.05 -0.75 1.05 -0.40 0 -0.75 -0.20 -0.75 -0.45z"/>
 </g>
 <g fill="#491808">
  <path d="M19 37.75 c0 -1.40 0.20 -1.75 1 -1.75 0.60 0 1 0.35 1 0.90 0.05 0.75 0.10 0.75 0.75 -0.10 0.70 -0.95 0.75 -0.90 0.75 0.85 0 1.80 -0.05 1.85 -1.75 1.85 -1.65 0 -1.75 -0.10 -1.75 -1.75z"/>
  <path d="M18 26.75 c0 -1.55 0.15 -1.75 1.25 -1.75 0.85 0 1.25 -0.25 1.25 -0.90 0 -1.15 0.95 -2.10 2.10 -2.10 0.50 0 0.90 -0.35 0.90 -0.75 0 -0.40 0.35 -0.75 0.80 -0.75 1.05 0 2.20 -1.25 2.20 -2.40 0 -1.90 0.55 -2.60 2.05 -2.60 0.95 0 1.45 -0.25 1.45 -0.75 0 -0.40 0.45 -0.75 1 -0.75 0.65 0 1 0.35 1 0.95 0 1.15 -2 5.05 -2.60 5.05 -0.20 0 -0.40 0.30 -0.40 0.65 -0.05 0.80 -2.30 3.35 -3.05 3.35 -0.35 0 -0.25 -0.45 0.30 -1.30 0.80 -1.25 0.80 -1.25 -0.35 -0.65 -0.65 0.30 -2.15 1.50 -3.45 2.65 -1.25 1.15 -2.70 2.30 -3.25 2.65 -0.85 0.55 -0.85 0.60 -0.05 0.60 0.45 0.05 0.85 -0.15 0.85 -0.45 0 -0.75 0.85 -0.60 1.20 0.25 0.20 0.60 -0.15 0.75 -1.45 0.75 -1.65 0 -1.75 -0.10 -1.75 -1.75z"/>
  <path d="M23.20 25.45 c1.45 -1.15 2.35 -0.95 1.30 0.30 -0.35 0.40 -1.10 0.75 -1.65 0.75 -0.90 0 -0.85 -0.10 0.35 -1.05z"/>
  <path d="M14.70 24.65 c-0.05 -0.50 -0.20 -1.30 -0.45 -1.75 -0.30 -0.75 -0.10 -0.90 0.95 -0.90 1.15 0 1.30 0.20 1.30 1.75 0 1.35 -0.20 1.75 -0.90 1.75 -0.50 0 -0.90 -0.40 -0.90 -0.85z"/>
  <path d="M13.55 20.15 c-0.40 -0.80 -0.90 -1.80 -1.15 -2.30 -0.30 -0.60 -0.25 -1.15 0.15 -1.65 0.85 -1.05 1.45 -0.85 1.45 0.55 0 0.70 0.25 1.25 0.50 1.25 0.30 0 0.50 0.80 0.50 1.75 0 2.10 -0.60 2.25 -1.45 0.40z"/>
  <path d="M21 18.65 c0 -0.25 -0.95 -0.40 -2.10 -0.40 -2.10 0 -2.15 -0.05 -2.30 -1.70 -0.20 -1.95 0.45 -2.55 2.80 -2.55 1.05 0 1.60 0.25 1.60 0.70 0 0.55 0.45 0.65 1.80 0.50 1 -0.15 2.05 -0.35 2.25 -0.50 0.55 -0.30 0.55 0.60 0.15 2.75 -0.30 1.40 -0.50 1.55 -2.25 1.55 -1.10 0 -1.95 -0.15 -1.95 -0.35z"/>
  <path d="M21.50 14 c0 -0.25 0.70 -0.50 1.60 -0.50 1.80 0 1.75 0.20 -0.20 0.70 -0.85 0.20 -1.40 0.10 -1.40 -0.20z"/>
  <path d="M30 8.55 c0 -1 3.75 -5.55 4.65 -5.55 0.70 0 0.35 1.20 -0.75 2.40 -0.65 0.70 -0.85 1.10 -0.50 0.90 0.40 -0.25 0.15 0.40 -0.50 1.40 -1.20 1.85 -2.25 2.45 -1.70 0.95 0.25 -0.75 0.20 -0.75 -0.45 0.05 -0.75 0.95 -0.75 0.95 -0.75 -0.15z"/>
  <path d="M11.05 6.90 c-0.55 -1.80 -0.10 -4.95 0.75 -5.25 0.55 -0.20 1.20 3.05 1.20 5.65 0 1.75 -1.35 1.45 -1.95 -0.40z"/>
 </g>
 <g fill="#112a37">
  <path d="M27.50 38.40 c0.05 -2.20 1.05 -3.40 2.90 -3.40 1.65 0 2.10 0.65 2.10 3.30 l0 1.70 -2.50 0 c-2.50 0 -2.50 0 -2.50 -1.60z"/>
  <path d="M33.65 39.65 c-0.35 -0.10 -0.65 -1.05 -0.65 -2.05 l0.05 -1.85 1.45 1.75 c0.85 0.95 1.50 1.90 1.50 2.10 0 0.45 -1.40 0.45 -2.35 0.05z"/>
  <path d="M5.10 33.25 c0.45 -0.50 1.95 -1.30 3.35 -1.80 2.45 -0.85 2.55 -0.85 2.55 0.05 0 1.35 -1.15 2 -4.05 2.35 -2.55 0.25 -2.65 0.25 -1.85 -0.60z"/>
  <path d="M26 29.75 c0 -2.15 0.50 -2.20 1.65 -0.30 1.10 1.90 1.10 2.05 -0.40 2.05 -1.10 0 -1.25 -0.20 -1.25 -1.75z"/>
  <path d="M12 28.55 c0 -0.30 0.55 -1.15 1.25 -1.90 1.40 -1.60 1.75 -0.60 0.45 1.25 -0.80 1.15 -1.70 1.45 -1.70 0.65z"/>
  <path d="M25 25.65 c0.05 -1.45 1 -3.15 1.80 -3.15 0.25 0 0.40 1 0.30 2.25 -0.15 1.80 -0.40 2.25 -1.15 2.25 -0.70 0 -0.95 -0.35 -0.95 -1.35z"/>
  <path d="M19.50 16.05 c0.45 -0.90 0.35 -0.95 -1.25 -0.90 -0.95 0.05 -1.75 0.25 -1.75 0.50 0 0.20 -0.80 0.35 -1.75 0.35 l-1.75 0 0.10 -2.25 c0.05 -1.55 0.30 -2.25 0.85 -2.40 0.50 -0.15 0.40 -0.25 -0.30 -0.30 -1.20 -0.05 -2.15 -1.40 -2.15 -3 0 -1.40 1.30 -1.35 1.75 0.10 0.30 0.95 0.40 0.95 0.60 0.25 0.40 -1.55 1.65 -1.05 1.65 0.60 0 1.35 0.15 1.50 1.45 1.50 1.15 0 1.50 -0.25 1.65 -1.10 0.10 -0.90 0.50 -1.20 2 -1.30 1.30 -0.10 1.85 0.05 2 0.60 0.25 1.40 3.40 -1.70 3.40 -3.35 0 -1.20 -0.20 -1.35 -1.75 -1.35 -1.40 0 -1.75 -0.20 -1.75 -1 0 -0.55 0.35 -1 0.75 -1 1.30 0 5 2.35 5.75 3.65 0.65 1.15 0.65 1.40 -0.20 2.30 -0.55 0.60 -0.70 1.05 -0.40 1.05 0.30 0 0.80 -0.45 1.10 -1 0.30 -0.55 0.75 -1 1 -1 0.95 0 0.45 1.60 -0.90 2.90 -2.75 2.70 -4.10 3.55 -6.10 4.10 -1.90 0.50 -2.35 1.50 -0.70 1.50 0.40 0 0.70 0.35 0.70 0.75 0 0.55 -0.60 0.75 -2.25 0.75 -2.10 0 -2.25 -0.10 -1.75 -0.95z"/>
  <path d="M27.50 14.30 c0 -0.75 2.10 -2.80 2.90 -2.80 0.35 0 0.60 0.70 0.60 1.65 0 1.60 -0.10 1.70 -1.75 1.75 -1.15 0.05 -1.75 -0.15 -1.75 -0.60z"/>
  <path d="M32 6.55 c0 -1.35 0.70 -2.05 2.10 -2.05 0.35 0 0.35 0.25 -0.05 0.65 -0.30 0.40 -0.40 0.80 -0.25 0.95 0.15 0.15 0 0.45 -0.35 0.70 -0.40 0.25 -0.50 0.15 -0.20 -0.30 0.25 -0.40 0.20 -0.55 -0.15 -0.30 -0.30 0.20 -0.45 0.65 -0.25 1.05 0.15 0.40 0 0.75 -0.30 0.75 -0.30 0 -0.55 -0.65 -0.55 -1.45z"/>
  <path d="M16.55 4.65 c1.55 -2 2.45 -2.15 2.45 -0.40 0 1.05 -0.25 1.25 -1.55 1.25 -1.45 0 -1.50 -0.10 -0.90 -0.85z"/>
 </g>
 <g fill="#0d1353">
  <path d="M20 37.50 c0 -1.25 -0.20 -1.50 -1.25 -1.50 -0.70 0 -1.25 -0.20 -1.25 -0.50 0 -0.25 -0.35 -0.50 -0.75 -0.50 -0.40 0 -0.75 -0.20 -0.75 -0.50 0 -0.25 -0.45 -0.50 -1 -0.50 -0.55 0 -1 -0.20 -1 -0.50 0 -1.15 -0.95 -0.40 -1.25 1 -0.20 0.85 -0.55 1.50 -0.80 1.50 -0.25 0 -0.45 0.45 -0.45 1 0 0.80 -0.35 1 -1.75 1 -1.65 0 -1.75 -0.10 -1.75 -1.75 0 -0.95 0.25 -1.75 0.50 -1.75 0.30 0 0.50 -0.70 0.50 -1.50 0 -0.90 0.30 -1.65 0.75 -1.80 0.40 -0.15 1.20 -1.05 1.80 -2 0.55 -0.95 1.40 -1.70 1.80 -1.70 0.65 0 0.65 0.15 0.15 0.75 -0.50 0.60 -0.50 0.75 0.15 0.75 0.40 0 0.85 0.35 1.05 0.75 0.20 0.55 0.70 0.65 1.90 0.40 2.05 -0.35 2.25 -0.50 1.50 -1.25 -1.25 -1.25 -0.60 -2.50 2.10 -3.90 0.75 -0.40 2.40 -1.70 3.65 -2.85 1.20 -1.20 2.45 -2.15 2.70 -2.15 0.25 0 0.45 -0.20 0.45 -0.40 0 -0.25 0.70 -0.45 1.50 -0.50 0.85 0 1.50 0.20 1.50 0.45 0 0.25 -0.20 0.45 -0.50 0.45 -0.25 0 -0.50 0.25 -0.50 0.55 0 0.30 -0.55 1.25 -1.25 2.05 -1.30 1.50 -1.35 2.05 -0.45 6.30 0.15 0.65 1.85 2.80 3.85 4.75 3.50 3.55 3.55 3.60 2.15 3.75 -0.80 0.10 -1.80 -0.20 -2.30 -0.65 -0.85 -0.75 -1.15 -0.75 -2.45 -0.20 -0.90 0.40 -1.55 1.05 -1.55 1.55 0 0.80 -0.50 0.90 -3.50 0.90 l-3.50 0 0 -1.50z m2.10 -1.95 c0.10 -0.65 -0.10 -1.30 -0.40 -1.40 -0.35 -0.10 -0.65 0.60 -0.80 1.80 -0.15 1.60 -0.05 1.90 0.40 1.40 0.35 -0.30 0.70 -1.15 0.80 -1.80z m-10.70 -2.90 c0.90 -1.75 1.50 -3.15 1.35 -3.15 -0.45 0 -2.60 3.80 -2.95 5.25 -0.50 1.95 -0.30 1.65 1.60 -2.10z m15.60 1.20 c0 -0.80 -2.35 -2.15 -2.85 -1.65 -0.20 0.20 0.15 0.80 0.85 1.30 1.50 1.15 2 1.25 2 0.35z m-2.45 -4.50 c-0.40 -0.40 -0.55 -0.35 -0.55 0.20 0 0.45 0.15 0.95 0.35 1.15 0.20 0.20 0.45 0.10 0.55 -0.20 0.15 -0.35 -0.05 -0.85 -0.35 -1.15z m-4.35 -1.95 c0.25 -0.50 0.35 -0.50 0.60 0 0.40 0.85 1.35 0.75 1.05 -0.10 -0.20 -0.45 0.25 -1.10 1 -1.60 1.20 -0.75 5.35 -4.70 4.95 -4.70 -0.80 0 -3.80 2.05 -5.30 3.55 -1.05 1.10 -2.10 1.95 -2.40 1.95 -0.25 0 -0.75 0.35 -1.10 0.75 -0.50 0.60 -0.50 0.75 0.15 0.75 0.40 0 0.90 -0.30 1.05 -0.60z"/>
  <path d="M15.35 16.65 c-0.90 -0.15 -1.55 -0.65 -1.90 -1.45 -0.70 -1.95 -0.55 -2.45 0.55 -1.45 0.60 0.55 1 0.65 1 0.30 0 -0.30 -0.35 -0.70 -0.75 -0.90 -1.05 -0.35 -2.55 -3.45 -2.95 -5.80 -0.25 -1.60 -0.15 -1.85 0.70 -1.85 0.80 0 1 0.35 1 1.75 0 1 0.30 1.85 0.75 2.10 0.40 0.25 1.15 1.30 1.70 2.40 0.55 1.10 1 1.75 1.05 1.40 0 -0.40 0.45 -0.35 1.45 0.25 1.40 0.75 1.55 0.75 2.45 -0.05 0.50 -0.45 1.50 -0.85 2.25 -0.85 0.70 0 1.45 -0.20 1.60 -0.50 0.15 -0.25 0.80 -0.50 1.40 -0.50 1.20 -0.05 2.85 -1.10 2.85 -1.85 0 -0.90 3.30 -4.15 4.20 -4.15 0.80 0 0.85 0.10 0.25 0.85 -0.60 0.70 -0.60 0.80 0 0.40 0.80 -0.45 0.60 0 -1.05 2.35 -0.95 1.40 -1.20 4.15 -0.40 4.65 1 0.60 0.50 1.75 -0.80 1.75 -0.80 0 -1.15 -0.20 -0.90 -0.55 0.25 -0.40 -0.40 -0.45 -2.30 -0.20 -1.90 0.25 -2.55 0.20 -2.30 -0.20 0.20 -0.30 0.65 -0.55 1 -0.55 1.15 0 3.15 -1.90 4.45 -4.20 l1.20 -2.15 -2.95 2.85 c-2.05 2 -3.60 3.05 -5.05 3.45 -3.30 0.85 -4 1.55 -1.60 1.55 2.35 0.05 1.55 0.70 -1.40 1.15 -1.75 0.25 -1.80 0.25 -1.30 -0.75 0.45 -0.85 0.40 -0.95 -0.40 -0.80 -0.50 0.10 -0.85 0.55 -0.85 1.05 0.10 0.85 -0.20 0.90 -2.95 0.50z"/>
 </g>
 <g fill="#141b75">
  <path d="M30.95 38.15 c-0.35 -1.05 -0.70 -1.60 -0.80 -1.25 -0.15 0.35 -1.10 0.60 -2.45 0.60 -1.85 0 -2.20 -0.15 -2.20 -1 0 -0.70 -0.35 -1 -1.10 -1 -1.40 0 -1.95 -0.40 -3 -2.05 -1.10 -1.70 -1.10 -5.35 0 -5.25 0.40 0 1.10 -0.60 1.55 -1.40 1.25 -2.20 2.05 -2.20 2.05 -0.05 0 1 -0.20 1.70 -0.45 1.50 -0.25 -0.15 -0.55 0.45 -0.65 1.35 -0.10 1.20 -0.40 1.65 -1 1.60 -1.35 -0.10 -1.10 1.15 0.25 1.50 0.65 0.15 1.75 0.80 2.50 1.50 1.05 1 1.40 1.10 1.85 0.55 0.40 -0.50 0.30 -0.90 -0.55 -1.70 -0.65 -0.60 -1.30 -1.05 -1.55 -1.05 -0.85 0 -0.35 -1.10 0.60 -1.35 0.55 -0.15 0.85 -0.50 0.70 -0.75 -0.15 -0.25 -0.40 -1.90 -0.55 -3.65 -0.20 -2.80 -0.10 -3.25 0.90 -4.20 1.35 -1.25 1.10 -1.35 -0.85 -0.30 -1.60 0.80 -1.85 0.75 -1.40 -0.45 0.20 -0.50 0.90 -0.80 2 -0.80 1.95 0 2.10 0.35 0.65 2.20 -0.85 1.05 -0.95 1.70 -0.65 3.65 0.45 3.20 0.80 3.75 4.70 7.90 1.85 1.95 3.60 4.05 3.95 4.65 0.55 1.05 0.50 1.10 -1.65 1.10 -2.15 0 -2.25 -0.10 -2.85 -1.85z"/>
  <path d="M28.35 16.15 c-0.20 -0.15 -0.35 -1 -0.35 -1.80 0 -1.10 0.20 -1.40 0.75 -1.15 0.40 0.15 0.70 0.10 0.70 -0.10 -0.15 -0.90 0.10 -1.60 0.55 -1.60 0.30 0 0.50 0.30 0.50 0.70 0 0.40 0.35 1.10 0.80 1.50 1.15 1.20 0.45 2.80 -1.25 2.80 -0.75 0 -1.55 -0.15 -1.70 -0.35z"/>
  <path d="M20.10 14.35 c0.10 -1.50 0.25 -1.65 1.85 -1.80 1 -0.05 2 -0.30 2.25 -0.55 0.65 -0.65 2.80 -0.65 2.80 0 0 0.60 -2.65 2 -3.75 2 -0.45 0 -1.30 0.30 -1.90 0.60 -1.05 0.60 -1.05 0.65 0.65 0.95 l1.75 0.30 -1.90 0.10 c-1.85 0.05 -1.90 0 -1.75 -1.60z"/>
  <path d="M25.25 14.50 c0.15 -0.25 0.65 -0.50 1.05 -0.50 0.40 0 0.70 0.25 0.70 0.50 0 0.30 -0.45 0.50 -1.05 0.50 -0.55 0 -0.85 -0.20 -0.70 -0.50z"/>
  <path d="M13.80 12.50 l-1.45 -1.75 1.35 -0.15 c1.75 -0.20 1.90 -0.05 1.70 1.95 l-0.15 1.65 -1.45 -1.70z"/>
  <path d="M31 9.60 c0 -0.20 0.40 -0.95 0.85 -1.60 l0.80 -1.25 -1.30 1.20 c-1.35 1.20 -1.35 1.20 -1.35 0.15 0 -1.15 0.05 -1.20 2.05 -1.35 l1.35 -0.10 -1 1.70 c-1 1.65 -1.40 2 -1.40 1.25z"/>
 </g>
 <g fill="#623812">
  <path d="M18.30 29.25 c-0.15 -0.40 -0.70 -0.75 -1.20 -0.75 -0.50 0 -1.35 -0.30 -1.85 -0.70 -0.85 -0.60 -1.05 -0.60 -1.60 0.15 -0.55 0.70 -0.60 0.70 -0.65 -0.20 0 -1.30 0.90 -2.25 2.10 -2.25 1.15 0 1.15 -0.30 -0.10 -1.60 -0.55 -0.60 -1 -1.50 -1 -1.95 0 -0.50 -0.45 -1.90 -1 -3.15 -0.55 -1.35 -0.75 -2.40 -0.50 -2.55 0.30 -0.20 0.50 -1 0.50 -1.85 0 -1.45 0.05 -1.50 0.90 -0.80 1.70 1.45 2.35 1.55 1.10 0.10 -0.70 -0.80 -1.45 -1.60 -1.75 -1.80 -0.25 -0.20 0 -0.40 0.65 -0.40 0.65 0 1.10 0.30 1.10 0.75 0 0.70 0.60 0.95 1.65 0.80 0.20 0 0.35 0.55 0.35 1.25 0 0.70 0.20 1.15 0.45 1 0.25 -0.15 0.60 0.20 0.75 0.85 0.30 1.10 0.35 1.10 1.05 0.10 0.55 -0.70 1.25 -0.95 2.40 -0.85 1 0.10 2.65 -0.35 4.25 -1.15 2.60 -1.30 3.60 -1.30 3.60 0.05 0 0.40 0.25 0.70 0.55 0.70 0.35 0 0.25 -0.45 -0.20 -1.20 -0.75 -1.10 -0.65 -1.80 0.20 -1.80 0.20 0 0.50 0.65 0.70 1.50 0.20 0.80 0.50 1.50 0.75 1.50 0.95 0 -0.80 3.55 -2.70 5.60 -1.15 1.20 -1.75 1.80 -1.35 1.30 0.40 -0.50 0.60 -0.90 0.45 -0.90 -0.85 0 -3.75 1.90 -5.30 3.45 -1 1 -2.25 2.05 -2.85 2.35 -1 0.55 -1.10 0.80 -0.50 2.35 0.20 0.45 0.15 0.85 -0.15 0.85 -0.25 0 -0.60 -0.35 -0.80 -0.75z m-1.05 -10.25 c-0.15 -0.25 -0.75 -0.50 -1.30 -0.50 -0.50 0 -0.95 0.25 -0.95 0.50 0 0.30 0.60 0.50 1.30 0.50 0.70 0 1.15 -0.20 0.95 -0.50z m12.15 -1.95 c-0.60 -0.20 -1.40 0.85 -1.40 1.90 0 0.40 0.40 0.15 0.95 -0.50 0.55 -0.70 0.75 -1.30 0.45 -1.40z"/>
  <path d="M23.15 13.65 c0.45 -0.10 0.85 -0.40 0.85 -0.65 0 -0.45 2.50 -1.20 2.85 -0.85 0.35 0.35 -2.90 1.85 -3.80 1.80 -0.65 -0.05 -0.65 -0.10 0.10 -0.30z"/>
 </g>
 <g fill="#1d3a5b">
  <path d="M0 39.50 c0 -1.05 5.35 -6.90 6.65 -7.25 2.90 -0.85 3.95 -1.55 5.40 -3.80 1.70 -2.65 3.45 -3.35 3.45 -1.30 0 0.90 -0.10 0.95 -0.50 0.35 -0.35 -0.50 -0.65 -0.55 -0.85 -0.25 -2.80 3.90 -3.80 5.55 -4.10 6.65 -0.30 1.10 -0.70 1.40 -2.25 1.50 -1.25 0.10 -2.30 0.60 -3.05 1.40 -0.60 0.65 -1.35 1.20 -1.70 1.20 -0.30 0 -0.55 0.45 -0.55 1 0 0.75 -0.35 1 -1.25 1 -0.70 0 -1.25 -0.20 -1.25 -0.50z"/>
  <path d="M23 39.30 c0 -0.65 -0.60 -0.80 -2.75 -0.80 -1.50 0 -2.75 -0.20 -2.75 -0.50 0 -0.25 -0.35 -0.50 -0.75 -0.50 -0.50 0 -0.75 -0.50 -0.75 -1.50 0 -1.15 -0.20 -1.50 -1 -1.50 -0.80 0 -1 0.35 -1 1.50 0 1.40 -0.15 1.50 -1.75 1.50 -1.60 0 -1.75 -0.10 -1.75 -1.45 0 -0.85 0.25 -1.65 0.50 -1.80 0.30 -0.15 0.50 -0.65 0.50 -1.05 0 -0.85 2.10 -4.20 2.65 -4.20 0.25 0 0.25 0.25 0.10 0.50 -0.20 0.30 0.40 0.50 1.45 0.50 2.30 0 2.55 -0.10 2.50 -0.90 -0.05 -0.40 0.25 -0.55 0.85 -0.35 0.50 0.20 0.95 0.10 0.95 -0.20 0 -0.30 0.50 -0.50 1.10 -0.40 0.70 0.05 1.30 -0.30 1.60 -0.95 0.80 -1.50 1.65 -0.95 1.40 0.85 -0.15 1.15 -0.45 1.50 -1.10 1.30 -0.65 -0.15 -0.85 0.10 -0.90 1.25 -0.05 1.65 1.40 3.40 2.90 3.40 0.50 0 1.20 0.45 1.50 1 0.35 0.65 1.05 1 2.10 1 1.15 0 1.40 -0.15 1 -0.60 -0.40 -0.50 -0.15 -0.70 1 -0.75 1.15 -0.10 1.45 0.05 1.20 0.65 -0.15 0.45 0.15 1.35 0.65 2.05 1.15 1.40 0.90 2.65 -0.50 2.65 -0.65 0 -0.95 -0.35 -0.95 -1.10 0 -0.65 -0.20 -1.45 -0.45 -1.80 -0.35 -0.55 -0.45 -0.50 -0.75 0.15 -0.15 0.45 -0.70 0.75 -1.15 0.65 -0.55 -0.10 -1.10 0.25 -1.40 0.85 -0.65 1.30 -4.25 1.75 -4.25 0.55z m-1 -3.65 c0 -2.15 -0.80 -1.75 -1.10 0.55 -0.15 1.20 0 1.60 0.45 1.45 0.35 -0.15 0.65 -1.05 0.65 -2z m2.40 0.45 c0.10 -0.35 -0.10 -0.50 -0.60 -0.30 -0.45 0.15 -0.80 0.55 -0.80 0.80 0 0.65 1.15 0.25 1.40 -0.50z"/>
  <path d="M33.60 37.50 c-1.15 -1.55 -1.40 -2.25 -0.60 -1.75 0.75 0.50 2.60 3.25 2.15 3.25 -0.25 0 -0.95 -0.65 -1.55 -1.50z"/>
  <path d="M15.75 16.50 c-0.15 -0.55 -0.20 -1.20 -0.05 -1.45 0.15 -0.25 -0.05 -0.70 -0.45 -1.05 -0.40 -0.35 -0.75 -1.30 -0.75 -2.10 0 -1.40 0.10 -1.45 1.90 -1.30 1.70 0.15 1.85 0.30 2 1.80 0.10 1.10 0.40 1.60 1 1.60 0.75 0 0.75 -0.10 0.10 -0.55 -0.60 -0.45 -0.60 -0.50 0.15 -0.25 0.50 0.15 1.30 0.30 1.70 0.30 0.70 0 0.70 0.15 -0.10 1 -0.80 0.90 -0.80 1 -0.10 1 0.50 0 0.85 0.35 0.85 0.75 0 0.50 -0.50 0.75 -1.30 0.75 -1.05 0 -1.25 -0.20 -1.05 -1 0.20 -0.75 0 -1 -0.75 -1 -0.85 0 -0.95 0.25 -0.70 1.25 0.30 1.10 0.15 1.25 -0.90 1.25 -0.80 0 -1.35 -0.35 -1.55 -1z"/>
  <path d="M27.60 13.90 c0.30 -0.90 1.40 -1.05 1.40 -0.20 0 0.45 -0.35 0.80 -0.80 0.80 -0.45 0 -0.70 -0.25 -0.60 -0.60z"/>
  <path d="M29.65 13.55 c-0.50 -0.80 -0.30 -1.45 1.40 -4.15 l2 -3.15 -1.80 1.90 c-0.95 1 -2.25 1.85 -2.80 1.85 -0.75 0 -0.95 0.25 -0.75 0.75 0.20 0.55 -0.10 0.75 -1.30 0.75 l-1.55 0 1.30 -1 c0.70 -0.55 1.45 -1 1.70 -1 0.25 0 1.30 -1 2.35 -2.25 1.10 -1.25 2.35 -2.25 2.95 -2.25 0.80 0 0.85 0.15 0.35 0.75 -0.35 0.40 -0.50 0.75 -0.30 0.75 0.15 0 -0.30 0.95 -1.05 2.15 -0.85 1.30 -1.35 2.80 -1.35 4 -0.05 2.10 -0.30 2.30 -1.15 0.90z"/>
  <path d="M24 9.55 c0 -1.30 0.20 -1.55 1.25 -1.55 0.80 0 1.25 -0.30 1.25 -0.75 0 -0.40 0.35 -0.75 0.75 -0.75 0.40 0 0.75 0.20 0.75 0.45 0 0.50 -1.65 2.35 -3.10 3.50 -0.80 0.60 -0.90 0.50 -0.90 -0.90z"/>
 </g>
 <g fill="#2a387e">
  <path d="M0 39.50 c0 -0.25 0.25 -0.50 0.50 -0.50 0.30 0 0.50 -0.35 0.50 -0.75 0 -0.45 0.45 -0.75 1.25 -0.75 1 0 1.25 0.25 1.25 1.25 0 1.10 -0.20 1.25 -1.75 1.25 -0.95 0 -1.75 -0.20 -1.75 -0.50z"/>
  <path d="M10 39.50 c0 -0.25 -0.45 -0.50 -1 -0.50 -0.85 0 -1 -0.35 -1 -2 0 -1.70 -0.15 -2 -1.05 -2 -0.80 0 -1 -0.25 -0.85 -1.35 0.10 -1 0.50 -1.45 1.60 -1.75 1.90 -0.45 2.05 -0.30 2 2.40 l-0.05 2.20 1.45 -2.90 c1.90 -3.85 2.85 -5 3.30 -4.25 0.20 0.35 1.15 0.70 2.10 0.75 1.55 0.15 1.75 0 1.65 -0.95 -0.15 -1.20 0.60 -1.60 1 -0.50 0.20 0.45 0.35 0.45 0.75 -0.05 0.25 -0.35 0.80 -0.50 1.25 -0.30 0.75 0.25 0.70 0.40 -0.30 1.25 l-1.10 0.95 1.45 -0.30 c1.25 -0.30 1.35 -0.25 0.90 0.60 -0.25 0.55 -0.65 1.95 -0.85 3.20 -0.20 1.25 -0.45 2.65 -0.50 3.10 -0.15 0.55 0.05 0.75 0.55 0.55 0.45 -0.15 0.70 -1.05 0.70 -2.75 0 -1.35 0.15 -2.40 0.40 -2.30 0.20 0.10 1.20 0.60 2.25 1.10 1.15 0.50 1.85 1.10 1.70 1.45 -0.15 0.45 0.30 0.70 1.30 0.75 0.90 0.10 1.80 0.35 2 0.55 0.75 0.75 -0.20 1.65 -1.45 1.40 -0.85 -0.15 -1.25 0.05 -1.45 0.70 -0.35 1.05 -1.75 1.30 -1.75 0.30 0 -0.35 0.25 -0.90 0.60 -1.25 0.45 -0.45 0.45 -0.60 0 -0.60 -0.30 0 -0.70 0.55 -0.90 1.25 -0.30 1.10 -0.55 1.25 -2.75 1.25 -2.35 0 -2.45 -0.05 -2.45 -1.40 0 -1.30 -0.10 -1.40 -1.75 -1.20 -1.40 0.15 -1.75 0.05 -1.75 -0.65 0 -0.85 -0.05 -0.85 -1 0 -0.55 0.50 -1 1.55 -1 2.35 0 1.30 -0.15 1.40 -2 1.40 -1.10 0 -2 -0.20 -2 -0.50z m14.65 -3.25 c0.05 -0.25 -0.30 -0.55 -0.75 -0.65 -0.55 -0.10 -0.90 0.15 -0.90 0.65 0 0.85 1.50 0.90 1.65 0z m-6.10 -4.25 c0.25 0 0.45 -0.20 0.45 -0.50 0 -0.65 -1.35 -0.65 -1.75 0 -0.15 0.30 -0.15 1 0.05 1.65 l0.40 1.10 0.20 -1.10 c0.10 -0.65 0.40 -1.15 0.65 -1.15z"/>
  <path d="M31 38.15 c-0.35 -1.05 -1.25 -2.70 -2.05 -3.65 -0.85 -1.10 -1.65 -3.10 -2.15 -5.35 -0.95 -4.20 -1 -5.25 -0.30 -4.15 0.25 0.40 0.50 1.45 0.50 2.25 0 1.85 0.75 3 4.80 7.35 3.30 3.55 4.60 5.40 3.75 5.40 -0.30 0 -0.85 -0.60 -1.25 -1.40 -0.80 -1.60 -2.80 -3.50 -2.80 -2.70 0 0.30 0.25 0.70 0.50 0.85 0.30 0.15 0.85 0.95 1.25 1.80 0.75 1.40 0.75 1.45 -0.40 1.45 -0.90 0 -1.30 -0.45 -1.85 -1.85z m-0.50 -3.60 c0 -0.25 -0.35 -0.70 -0.75 -1.05 -0.80 -0.70 -0.90 -0.50 -0.45 0.70 0.30 0.85 1.20 1.10 1.20 0.35z"/>
  <path d="M10 32.20 c0 -0.60 0.55 -1.65 1.25 -2.40 0.70 -0.75 1.25 -1.55 1.25 -1.85 0 -0.25 0.25 -0.45 0.50 -0.45 0.75 0 0.65 0.15 -1.25 3.05 -1.25 1.95 -1.75 2.40 -1.75 1.65z"/>
  <path d="M16 15.20 l0 -1.85 1.95 0.35 c1.15 0.15 2.10 0.10 2.30 -0.20 0.15 -0.25 0.75 -0.50 1.30 -0.50 0.50 0 0.95 -0.20 0.95 -0.50 0 -0.25 0.30 -0.35 0.65 -0.20 0.40 0.15 1 -0.10 1.35 -0.55 0.35 -0.40 1.15 -0.75 1.80 -0.75 0.70 0 1.20 -0.30 1.20 -0.70 0 -0.40 0.65 -1 1.40 -1.35 0.80 -0.35 1.70 -1.25 2 -2.05 0.35 -0.95 0.85 -1.40 1.60 -1.40 0.95 0 1 0.10 0.50 0.75 -0.35 0.40 -0.50 0.75 -0.35 0.75 0.20 0 -0.25 1.05 -0.90 2.30 -1.45 2.75 -1.55 3.95 -0.40 4.60 0.50 0.30 0.70 0.80 0.50 1.30 -0.35 0.95 -1.95 1.10 -1.80 0.20 0.05 -0.35 -0.05 -1.25 -0.25 -2.05 -0.30 -0.95 -0.15 -1.75 0.50 -2.75 2.25 -3.50 2.20 -3.65 -0.45 -1.05 -2.95 3 -5.30 4.45 -7.15 4.45 -0.65 0 -1.30 0.25 -1.45 0.55 -0.20 0.30 -1.15 0.40 -2.45 0.20 -1.50 -0.20 -1.85 -0.15 -1.30 0.20 0.40 0.30 0.55 0.55 0.30 0.55 -0.25 0 -0.15 0.35 0.20 0.75 0.55 0.65 0.40 0.75 -0.70 0.75 -1.15 0 -1.30 -0.20 -1.30 -1.80z"/>
  <path d="M19.50 16 c0 -0.25 0.70 -0.50 1.50 -0.50 0.85 0 1.50 0.25 1.50 0.50 0 0.30 -0.65 0.50 -1.50 0.50 -0.80 0 -1.50 -0.20 -1.50 -0.50z"/>
  <path d="M24.50 15.25 c0 -0.20 3.90 -2.25 4.30 -2.25 0.05 0 0.20 0.45 0.35 1 0.25 0.95 0.10 1 -1.45 0.70 -1.10 -0.20 -1.70 -0.10 -1.70 0.25 0 0.30 -0.35 0.55 -0.75 0.55 -0.40 0 -0.75 -0.10 -0.75 -0.25z"/>
  <path d="M13.60 12.15 c-1.40 -1.75 -1.40 -2.15 0.15 -2.15 1.10 0 1.25 0.20 1.25 1.75 0 0.95 -0.05 1.75 -0.15 1.75 -0.10 0 -0.65 -0.60 -1.25 -1.35z"/>
 </g>
 <g fill="#136076">
  <path d="M23.50 38.45 c0 -0.85 0.20 -1.40 0.50 -1.20 0.30 0.15 0.50 0.85 0.50 1.55 0 0.65 -0.20 1.20 -0.50 1.20 -0.25 0 -0.50 -0.70 -0.50 -1.55z"/>
  <path d="M25 39.05 c0 -0.55 0.20 -1.15 0.50 -1.30 0.30 -0.20 0.25 -0.65 -0.10 -1.25 -0.35 -0.55 -0.40 -1.15 -0.20 -1.35 0.25 -0.20 0.55 -0.10 0.65 0.25 0.15 0.30 0.85 0.60 1.55 0.60 2 0 2.95 0.75 2.15 1.65 -0.40 0.50 -0.45 0.85 -0.05 1.10 1.15 0.70 0.35 1.25 -2 1.25 -2.15 0 -2.50 -0.15 -2.50 -0.95z"/>
  <path d="M31.05 38.15 c-0.40 -1.05 -0.80 -2.20 -0.90 -2.50 -0.15 -0.35 0.05 -0.65 0.40 -0.65 0.40 0 1.20 1.05 1.85 2.25 1.35 2.70 1.35 2.75 0.20 2.75 -0.60 0 -1.15 -0.65 -1.55 -1.85z"/>
  <path d="M5 33.50 c0 -0.60 1.65 -1.50 2.70 -1.50 1.20 0 0.95 0.75 -0.45 1.40 -1.55 0.75 -2.25 0.75 -2.25 0.10z"/>
  <path d="M26.30 26.20 c-0.20 -1 -0.25 -1.90 -0.10 -2.05 0.10 -0.15 0.40 0.55 0.60 1.55 0.15 1.05 0.20 1.95 0.05 2.10 -0.10 0.15 -0.40 -0.55 -0.55 -1.60z"/>
  <path d="M15 15.50 c0 -0.25 0.25 -0.50 0.50 -0.50 0.30 0 -0.40 -1.15 -1.50 -2.55 -1.10 -1.40 -2 -2.95 -2 -3.50 0 -1.20 0.45 -1.20 1.30 -0.05 0.60 0.80 0.65 0.75 0.70 -0.30 0 -0.75 1 -2.20 2.70 -3.90 2.40 -2.35 3 -2.70 4.70 -2.70 2.35 0 5 1.05 6.25 2.40 1.25 1.35 0.45 3.20 -2.45 5.75 -2.70 2.40 -2.55 3.10 0.20 0.90 1.10 -0.85 2.20 -1.55 2.40 -1.55 0.25 0 1.75 -1.40 3.35 -3.10 2.20 -2.45 2.85 -2.90 2.85 -2.10 0 1 -3 4.20 -3.95 4.20 -0.30 0 -0.75 0.45 -1.05 1 -0.30 0.55 -0.85 1 -1.25 1 -0.40 0 -0.75 0.40 -0.75 0.90 0 1.50 -6.15 3.70 -8.75 3.20 -1 -0.15 -1.20 -0.05 -0.95 0.60 0.25 0.60 0 0.80 -1 0.80 -0.70 0 -1.30 -0.20 -1.30 -0.50z m6.30 -3.10 l1.45 -1.65 -1.60 1.45 c-0.85 0.75 -1.80 1.25 -2.10 1.10 -0.30 -0.20 -0.55 -0.10 -0.55 0.15 0 1.05 1.35 0.55 2.80 -1.05z m-0.35 -4.90 c0.75 0 1.55 -0.20 1.85 -0.45 0.25 -0.25 1 -0.55 1.70 -0.70 1.20 -0.20 1.20 -0.20 -0.10 -0.30 -1.05 -0.05 -1.40 -0.30 -1.40 -1.05 0 -0.80 -0.35 -1 -1.50 -1 -0.80 0 -1.50 0.25 -1.50 0.50 0 0.30 -0.65 0.50 -1.50 0.50 -1 0 -1.50 0.25 -1.50 0.75 0 0.40 0.45 0.75 1 0.75 0.80 0 1 0.35 1.05 1.65 0.05 1.15 0.15 1.30 0.30 0.50 0.15 -0.85 0.55 -1.15 1.60 -1.15z"/>
 </g>
 <g fill="#8e5216">
  <path d="M18.15 28.90 c-0.20 -0.35 -0.70 -0.65 -1 -0.70 -0.35 -0.05 -1 -0.10 -1.40 -0.10 -0.80 -0.10 -1.05 -1.60 -0.25 -1.60 0.70 0 0.65 -1.35 -0.10 -1.60 -0.30 -0.10 -0.60 -1.05 -0.60 -2.05 -0.05 -1 -0.20 -1.85 -0.40 -1.85 -0.80 0 -1.85 -3.55 -1.55 -5.25 0.35 -2.10 0.80 -2.50 1.65 -1.50 0.35 0.40 0.85 0.75 1.10 0.75 0.30 0 0.25 -0.35 -0.10 -0.75 -0.50 -0.60 -0.50 -0.75 0.05 -0.75 0.70 0 1.10 0.50 3.05 3.75 l0.90 1.55 -1.75 -0.20 c-1.35 -0.15 -1.75 -0.05 -1.75 0.60 0 0.45 0.25 0.80 0.50 0.80 0.30 0 0.50 0.40 0.40 0.90 -0.25 1.35 2.75 1.45 4.05 0.15 1.30 -1.30 1.30 -1.55 0.10 -1.55 -0.90 0 -1.55 -1.25 -1.55 -3.10 0 -0.75 0.45 -0.90 2.20 -0.90 1.35 0 3.05 -0.45 4.50 -1.25 2.80 -1.50 2.60 -1.50 2.95 -0.25 0.15 0.55 0.50 1 0.80 1 0.35 0 0.35 -0.40 0.05 -1.25 -0.60 -1.55 0 -1.60 1.10 -0.05 1.20 1.60 0.35 4.05 -2.30 6.90 -1.15 1.20 -1.75 1.80 -1.40 1.40 0.30 -0.45 0.60 -1.05 0.60 -1.35 0 -0.30 0.55 -1.35 1.25 -2.35 0.90 -1.35 1.05 -1.80 0.50 -1.80 -0.40 0 -0.75 -0.35 -0.75 -0.75 0 -0.45 -0.30 -0.60 -0.80 -0.40 -0.60 0.20 -0.70 0.70 -0.45 2 0.45 2.40 -0.10 3.55 -1.90 4.35 -0.90 0.35 -2.60 1.65 -3.80 2.85 -1.20 1.20 -2.05 1.80 -1.90 1.30 0.20 -0.45 0.05 -1.50 -0.25 -2.25 -0.45 -1.05 -0.60 -1.15 -0.75 -0.45 -0.15 0.45 -0.60 0.85 -1.05 0.85 -0.60 0 -0.55 0.20 0.35 1.05 0.75 0.75 0.95 1.20 0.60 1.65 -0.30 0.35 -0.40 1.10 -0.20 1.70 0.30 1.20 -0.05 1.45 -0.70 0.50z m6.85 -10.20 c0 -0.15 -0.30 -0.60 -0.70 -1 -0.85 -0.80 -2.30 -0.95 -2.30 -0.20 0 0.30 0.45 0.50 1 0.50 0.55 0 1 0.25 1 0.50 0 0.30 0.25 0.50 0.50 0.50 0.30 0 0.50 -0.15 0.50 -0.30z"/>
 </g>
 <g fill="#3a557f">
  <path d="M0.70 39.20 c0.15 -0.45 0.30 -1 0.30 -1.25 0 -0.25 0.35 -0.45 0.75 -0.45 0.40 0 0.75 -0.35 0.75 -0.75 0 -0.45 0.35 -0.90 0.75 -1.05 0.40 -0.20 0.75 -0.60 0.75 -0.95 0 -0.95 1.60 -2.10 3.90 -2.80 1.80 -0.50 2.55 -1.15 4.15 -3.50 2.10 -3.15 2.95 -3.90 2.95 -2.75 0 0.40 -0.65 1.45 -1.45 2.30 -1.95 2.20 -4.05 6.45 -4.05 8.25 0.05 1.40 0.10 1.35 0.80 -0.65 0.80 -2.30 3.70 -7.15 3.70 -6.25 0 0.35 0.60 0.65 1.35 0.75 1.50 0.15 2.35 1.85 0.85 1.70 -0.45 0 -0.95 0.25 -1.05 0.60 -0.15 0.30 0.15 0.60 0.60 0.60 0.45 0 1.25 0.45 1.85 1 1.60 1.50 2.60 1.30 2.20 -0.35 -0.20 -0.80 -0.50 -2 -0.65 -2.75 -0.15 -0.70 -0.70 -1.80 -1.20 -2.35 -1.20 -1.30 -1.20 -2.05 0.05 -2.05 0.60 0 0.85 0.25 0.70 0.70 -0.15 0.35 0.10 1 0.50 1.45 0.45 0.45 0.80 1.05 0.80 1.35 0 0.35 0.40 0.45 1 0.25 1.15 -0.35 1.15 -0.50 0.50 2.60 -1.05 5.30 -1.10 5.20 0.40 4.85 2.25 -0.55 2.35 -0.50 2.50 0.85 l0.15 1.30 -6 0.05 c-5.35 0.05 -6.05 -0.05 -6.05 -0.80 -0.05 -0.80 -0.10 -0.80 -0.70 0.05 -0.75 1 -2.80 1.15 -3.75 0.25 -0.55 -0.50 -0.70 -0.50 -0.90 0 -0.15 0.35 -1.15 0.60 -2.65 0.60 -1.45 0 -2.50 -0.25 -2.65 -0.60 -0.20 -0.50 -0.30 -0.50 -0.30 0 -0.05 0.30 -0.30 0.60 -0.60 0.60 -0.30 0 -0.40 -0.35 -0.25 -0.80z m13.30 -5.35 c0 -0.30 -0.45 -0.10 -1 0.40 -0.55 0.50 -1 1.15 -1 1.40 0 0.30 0.45 0.10 1 -0.40 0.55 -0.50 1 -1.15 1 -1.40z"/>
  <path d="M31.65 39.70 c0.15 -0.20 -0.15 -1.20 -0.65 -2.25 -0.55 -1.05 -0.85 -2.20 -0.70 -2.60 0.10 -0.40 -0.10 -1 -0.55 -1.35 -0.40 -0.35 -0.75 -0.85 -0.75 -1.15 0 -0.30 0.65 0.20 1.50 1.15 0.80 0.90 1.35 1.80 1.20 2.05 -0.10 0.20 0.25 1.15 0.80 2.05 1.25 2.10 1.25 2.40 -0.10 2.40 -0.60 0 -0.95 -0.15 -0.75 -0.30z"/>
  <path d="M34.60 38.90 c-0.35 -0.65 -0.95 -1.70 -1.40 -2.40 -0.65 -0.90 -0.50 -0.85 0.50 0.25 1.65 1.90 2.45 3.25 1.90 3.25 -0.25 0 -0.70 -0.50 -1 -1.10z"/>
  <path d="M27.55 37.05 c-0.40 -0.25 -1 -0.35 -1.40 -0.20 -0.45 0.20 -0.80 -0.15 -1 -0.80 -0.20 -0.75 -0.55 -1 -1.10 -0.80 -1.55 0.60 -1.80 0.50 -1.95 -1.10 l-0.15 -1.60 2 1.10 c1.15 0.60 2.05 1.40 2.05 1.75 0 0.35 0.65 0.60 1.50 0.60 1 0 1.50 0.25 1.50 0.75 0 0.85 -0.45 0.95 -1.45 0.30z"/>
  <path d="M28.25 33.65 c-0.20 -0.50 -0.45 -1.45 -0.55 -2.15 -0.40 -1.90 0.65 -0.60 1.05 1.40 0.35 1.70 0.10 2.15 -0.50 0.75z"/>
  <path d="M15.95 16.65 c0 -0.25 -0.10 -1 -0.20 -1.75 -0.10 -0.80 0 -1.40 0.20 -1.40 0.35 0 2.05 2.65 2.05 3.20 0 0.45 -2 0.35 -2.05 -0.05z"/>
  <path d="M19.75 16 c-0.15 -0.25 0.15 -0.50 0.70 -0.50 0.60 0 1.05 0.25 1.05 0.50 0 0.30 -0.30 0.50 -0.70 0.50 -0.40 0 -0.90 -0.20 -1.05 -0.50z"/>
  <path d="M30.10 15.05 c0.05 -0.75 -0.10 -1.65 -0.30 -1.95 -0.35 -0.55 1.30 -4.30 2.15 -4.80 0.25 -0.15 0 0.55 -0.50 1.55 -1.15 2.20 -1.20 3.30 -0.25 4.10 0.80 0.70 0.50 2.55 -0.45 2.55 -0.45 0 -0.65 -0.55 -0.65 -1.45z"/>
  <path d="M19 14.70 c0 -0.25 0.55 -0.70 1.25 -1.05 1 -0.45 1.25 -0.40 1.25 0.15 0 0.40 -0.20 0.70 -0.45 0.70 -0.25 0 -0.80 0.15 -1.25 0.30 -0.45 0.15 -0.80 0.10 -0.80 -0.10z"/>
  <path d="M27 10.80 c0 -0.70 0.25 -1.30 0.60 -1.30 0.35 0 1.30 -0.70 2.20 -1.55 0.90 -0.85 1.85 -1.50 2.10 -1.40 0.50 0.20 -2.20 3.45 -4.05 4.90 -0.75 0.60 -0.85 0.55 -0.85 -0.65z"/>
 </g>
 <g fill="#7e5d48">
  <path d="M6.85 39.15 c-0.20 -0.15 -0.35 -0.75 -0.35 -1.30 0 -0.65 0.25 -0.85 0.75 -0.65 0.45 0.15 0.75 0 0.75 -0.40 0 -0.40 -0.35 -0.80 -0.75 -1 -1.30 -0.50 -0.80 -1.30 0.75 -1.30 1.40 0 1.50 0.15 1.55 1.90 0.05 1.15 0.15 1.40 0.30 0.75 0.10 -0.65 0.45 -1.15 0.70 -1.15 0.65 0 0.55 2.20 -0.15 2.90 -0.65 0.65 -3 0.80 -3.55 0.25z"/>
  <path d="M20.10 23.90 c-0.55 -1.45 -0.70 -1.55 -1.15 -0.80 -0.35 0.65 -0.90 0.80 -2.10 0.55 -1.95 -0.35 -2.85 -1.05 -2 -1.55 0.40 -0.25 0.40 -0.55 -0.05 -1.20 -0.35 -0.50 -0.80 -0.75 -0.95 -0.55 -0.20 0.15 -0.35 -0.30 -0.35 -1 0 -0.75 -0.20 -1.35 -0.50 -1.35 -0.25 0 -0.50 -0.45 -0.50 -1 0 -0.65 0.35 -1 1 -1 0.65 0 1 0.35 1 1 0 0.60 0.25 1.35 0.60 1.70 0.50 0.50 0.85 0.40 1.80 -0.65 l1.15 -1.30 1 1.25 1 1.25 -0.35 -1.20 c-0.25 -1.05 -0.20 -1.15 0.60 -0.80 0.55 0.20 1.55 0.50 2.35 0.65 1.10 0.15 1.35 0.45 1.35 1.65 0 0.80 -0.45 1.85 -1.10 2.45 -0.60 0.55 -0.80 1 -0.50 1 0.45 0 0.35 0.40 -0.20 1.25 -1.05 1.65 -1.35 1.60 -2.10 -0.35z"/>
  <path d="M28.65 19.75 c1 -1.65 1.55 -3.10 1.35 -3.25 -0.25 -0.15 -0.25 -0.60 0 -0.95 0.20 -0.40 0.30 -1 0.15 -1.40 -0.15 -0.35 0 -0.65 0.25 -0.65 2 0 1.10 4.20 -1.45 7.05 l-2 2.20 1.70 -3z"/>
  <path d="M20 16.25 c-0.50 -0.65 -0.45 -0.75 0.45 -0.75 0.55 0 1.05 0.20 1.05 0.45 0 0.25 0.40 0.60 0.90 0.70 0.55 0.15 0.40 0.25 -0.45 0.30 -0.75 0 -1.60 -0.30 -1.95 -0.70z"/>
  <path d="M26.50 14.60 c0 -0.50 2.05 -1.75 2.35 -1.40 0.45 0.40 -0.85 1.80 -1.65 1.80 -0.40 0 -0.70 -0.15 -0.70 -0.40z"/>
 </g>
 <g fill="#c23a2e">
  <path d="M18.50 39.15 c0.05 -0.95 1.10 -2.65 1.70 -2.65 0.15 0 0.30 0.35 0.30 0.75 0 0.40 0.45 0.75 0.95 0.75 0.70 0 0.90 0.25 0.70 1 -0.35 1.35 -3.65 1.45 -3.65 0.15z"/>
  <path d="M7.50 38.25 c0 -0.55 0.35 -0.70 1.20 -0.45 1 0.25 1.20 0.05 1.55 -1.40 l0.40 -1.65 0.20 1.40 c0.15 0.80 0.10 1.75 -0.05 2.15 -0.40 1 -3.30 0.95 -3.30 -0.05z"/>
  <path d="M8.45 37.15 c-0.05 -0.25 -0.05 -0.55 0 -0.75 0 -0.25 -0.15 -0.40 -0.45 -0.40 -0.25 0 -0.50 -0.20 -0.50 -0.50 0 -0.25 0.45 -0.50 1 -0.50 0.75 0 1 0.35 1 1.25 0 1.10 -0.90 1.85 -1.05 0.90z"/>
  <path d="M19.75 17.95 c-0.60 -0.95 0.10 -1.05 1.60 -0.25 l1.40 0.75 -1.35 0.05 c-0.75 0 -1.50 -0.25 -1.65 -0.55z"/>
  <path d="M23.80 17.15 c-0.15 -0.20 -1.05 -0.35 -1.90 -0.35 -2.65 -0.05 -2.35 -1.30 0.30 -1.30 1.95 0 2.30 0.15 2.30 1 0 1.05 -0.15 1.20 -0.70 0.65z"/>
  <path d="M13 15.25 c0 -1.80 0.50 -2.20 1.40 -1.10 0.70 0.85 0.20 2.85 -0.70 2.85 -0.45 0 -0.70 -0.60 -0.70 -1.75z"/>
  <path d="M15.95 16.40 c-0.05 -0.35 -0.05 -0.85 0 -1.10 0.05 -0.20 -0.20 -0.70 -0.50 -1.10 -0.45 -0.55 -0.40 -0.70 0.25 -0.70 0.60 0 0.80 0.45 0.80 1.75 0 1.65 -0.45 2.50 -0.55 1.15z"/>
  <path d="M11.30 6.90 c-0.50 -2 -0.30 -4.25 0.45 -4.90 0.60 -0.50 0.75 -0.45 0.75 0.35 0 0.55 0.15 2.05 0.30 3.35 0.30 1.85 0.20 2.30 -0.40 2.30 -0.45 0 -0.90 -0.50 -1.10 -1.10z"/>
  <path d="M31 7.45 c0 -1.10 2.80 -4.10 3.60 -3.85 0.35 0.15 -0.25 1.10 -1.50 2.45 -1.40 1.45 -2.10 1.95 -2.10 1.40z"/>
 </g>
 <g fill="#384dac">
  <path d="M31.20 37.90 c-0.50 -1.20 -0.90 -2.65 -0.95 -3.25 -0.05 -0.90 0.10 -1 0.90 -0.60 0.55 0.30 0.80 0.85 0.65 1.35 -0.15 0.45 0.15 1.55 0.70 2.35 1.20 1.80 1.25 2.25 0.30 2.25 -0.40 0 -1.10 -0.95 -1.60 -2.10z"/>
  <path d="M27.60 37.15 c-0.75 -0.30 -0.30 -1.15 0.70 -1.15 0.40 0 0.70 0.35 0.70 0.75 0 0.75 -0.30 0.85 -1.40 0.40z"/>
  <path d="M23.75 34.45 c-0.55 -0.85 -0.10 -0.90 1.25 -0.20 1.20 0.70 1.20 0.70 0.15 0.75 -0.60 0 -1.25 -0.25 -1.40 -0.55z"/>
  <path d="M28.20 33.40 c-0.20 -0.65 -0.45 -1.35 -0.50 -1.65 -0.05 -0.25 -0.30 -0.95 -0.50 -1.45 -0.25 -0.65 -0.20 -0.85 0.20 -0.60 0.30 0.20 0.80 1.25 1.10 2.35 0.60 2.20 0.35 3.30 -0.30 1.35z"/>
  <path d="M29.95 15.80 c0.40 -0.50 0.40 -1.05 0.05 -2 -0.35 -0.95 -0.35 -1.65 0 -2.35 0.75 -1.30 0.85 -1.20 0.60 0.50 -0.10 0.80 0.05 1.60 0.35 1.75 0.30 0.20 0.55 0.90 0.55 1.60 0 0.90 -0.25 1.20 -1.05 1.20 -0.85 0 -0.95 -0.15 -0.50 -0.70z"/>
  <path d="M20.65 15.65 c0.45 -0.10 1.25 -0.10 1.75 0 0.45 0.15 0.05 0.25 -0.90 0.25 -0.95 0 -1.35 -0.10 -0.85 -0.25z"/>
  <path d="M13 14.25 c0 -0.40 0.20 -0.75 0.45 -0.75 0.25 0 0.70 0.35 1.05 0.75 0.50 0.65 0.45 0.75 -0.45 0.75 -0.60 0 -1.05 -0.30 -1.05 -0.75z"/>
  <path d="M14.60 13.20 c-1.55 -1.90 -1.40 -2.95 0.25 -1.60 0.60 0.45 0.75 0.45 0.45 0.05 -0.20 -0.40 -0.10 -0.65 0.20 -0.65 0.35 0 0.45 0.35 0.30 0.80 -0.20 0.45 -0.05 1.15 0.25 1.50 0.30 0.35 0.45 0.95 0.35 1.25 -0.10 0.35 -0.90 -0.25 -1.80 -1.35z"/>
  <path d="M20.30 13.75 c1.05 -0.80 2.70 -1 2.70 -0.30 0 0.45 -1.65 1.05 -2.95 1.05 -0.55 0 -0.45 -0.20 0.25 -0.75z"/>
  <path d="M12 9.55 c-0.75 -1.40 -0.60 -2.55 0.25 -2.55 0.40 0 0.75 0.30 0.75 0.65 0 0.30 0.15 1.10 0.30 1.75 0.40 1.35 -0.55 1.50 -1.30 0.15z"/>
 </g>
 <g fill="#2a7891">
  <path d="M17 38.50 c0 -1 0.25 -1.50 0.75 -1.50 0.40 0 0.75 0.25 0.75 0.60 0 0.45 0.15 0.45 0.60 0 0.95 -0.95 1.25 -0.70 1.25 0.90 0 1.35 -0.15 1.50 -1.70 1.50 -1.50 0 -1.65 -0.15 -1.65 -1.50z"/>
  <path d="M31.55 38.70 c-0.50 -1.10 -0.45 -1.25 0.25 -1.10 1.05 0.20 1.95 2.40 1 2.40 -0.35 0 -0.90 -0.60 -1.25 -1.30z"/>
  <path d="M27.60 37.15 c-0.30 -0.10 -0.50 -0.45 -0.35 -0.65 0.35 -0.55 1.75 -0.10 1.75 0.55 0 0.50 -0.40 0.50 -1.40 0.10z"/>
  <path d="M16 15.10 c0 -0.25 -0.80 -1.35 -1.75 -2.45 -1.15 -1.35 -1.75 -2.55 -1.75 -3.50 l0.05 -1.40 0.95 1.85 c0.55 1 1.25 2 1.55 2.20 0.30 0.15 0.15 -0.25 -0.30 -1 -1.05 -1.60 -0.75 -3 1.20 -5.30 1.40 -1.60 1.50 -1.65 1.55 -0.60 0 0.65 0.30 1.10 0.75 1.10 0.40 0 0.75 0.35 0.75 0.75 0 0.70 0.15 0.65 1.25 -0.10 0.65 -0.50 1.25 -1.15 1.25 -1.50 0 -0.30 0.30 -0.70 0.65 -0.80 0.30 -0.15 -0.25 -0.30 -1.25 -0.30 -2.30 -0.05 -2.60 -1.30 -0.45 -1.80 1.95 -0.40 4.95 0.50 6.80 2.05 0.90 0.80 1.15 1.20 0.60 1 -0.80 -0.25 -0.90 -0.10 -0.60 1.10 0.25 1.25 -0.05 1.75 -2.20 3.75 -3 2.80 -4.55 3.15 -1.90 0.45 1 -1.05 1.85 -2.10 1.85 -2.35 0 -0.25 -1.25 0.85 -2.80 2.40 -3.10 3.15 -4.10 3.45 -1.95 0.60 0.75 -0.95 1.25 -1.90 1.10 -2.05 -0.15 -0.15 -1.10 1 -2.10 2.50 -1 1.55 -1.95 2.80 -2.10 2.80 -0.15 0 -0.15 -1.45 -0.05 -3.25 0.20 -3.55 -0.05 -3.70 -0.95 -0.65 -0.50 1.70 -0.45 2.25 0.15 3.10 0.80 1.20 0.90 1.80 0.20 1.80 -0.25 0 -0.50 -0.20 -0.50 -0.40z"/>
  <path d="M20.05 13.85 c0.70 -0.40 1.85 -0.85 2.60 -1.05 0.75 -0.15 2.05 -0.95 2.95 -1.70 2.50 -2.05 3.90 -2.75 3.90 -1.95 0 0.95 -1.65 2.35 -2.65 2.35 -0.45 0 -0.85 0.30 -0.85 0.70 0 0.80 -1.95 1.65 -5 2.05 -2.15 0.30 -2.20 0.30 -0.95 -0.40z"/>
 </g>
 <g fill="#487195">
  <path d="M0 39.50 c0 -0.25 0.25 -0.50 0.50 -0.50 0.30 0 0.50 -0.25 0.50 -0.55 0 -0.30 1.05 -1.70 2.30 -3.20 1.75 -2 2.85 -2.80 4.50 -3.25 1.85 -0.55 2.55 -1.15 4.45 -3.80 2.85 -4 3.25 -4.25 3.20 -1.85 0 1.05 -0.15 1.60 -0.30 1.30 -0.10 -0.35 -0.45 -0.65 -0.65 -0.65 -0.70 0 -4.40 5.70 -4.75 7.30 -0.65 2.80 -0.85 3.20 -1.30 2.90 -0.25 -0.15 -0.35 -0.45 -0.20 -0.70 0.15 -0.20 -0.35 -0.55 -1.05 -0.70 -1.05 -0.30 -1.20 -0.45 -0.70 -1.05 0.35 -0.40 0.90 -0.75 1.30 -0.75 0.35 0 0.90 -0.45 1.20 -0.95 0.45 -0.95 0.40 -0.95 -1 -0.20 -1.60 0.75 -2.70 2.30 -2.10 2.85 0.20 0.20 -0.20 0.80 -0.90 1.40 -1 0.80 -1.05 0.90 -0.25 0.60 1.20 -0.45 2.65 -0.45 4 0 0.85 0.30 1.10 0.05 1.65 -1.85 0.35 -1.20 1.35 -3.15 2.20 -4.40 0.80 -1.20 1.35 -1.75 1.15 -1.20 -0.20 0.55 -0.50 1.55 -0.65 2.25 -0.15 0.70 -0.70 1.90 -1.25 2.65 -1.50 2.20 -0.65 2.10 1.70 -0.15 2.30 -2.20 3.70 -2.25 3.70 -0.10 0 0.55 0.15 1.20 0.40 1.40 0.20 0.20 0.35 0.10 0.35 -0.20 0 -0.35 0.25 -0.60 0.55 -0.60 0.35 0 0.45 0.50 0.25 1.30 -0.20 0.80 -0.15 1.15 0.15 1 0.80 -0.50 1.25 -4.85 0.60 -5.90 -0.30 -0.50 -0.55 -1.25 -0.55 -1.70 0 -0.90 -1.15 -2.20 -1.95 -2.20 -0.30 0 -0.55 -0.20 -0.55 -0.50 0 -0.25 0.45 -0.50 1 -0.50 0.55 0 1 0.30 1 0.70 0 0.35 0.35 0.95 0.75 1.30 0.40 0.35 0.75 1.05 0.75 1.55 0 1.05 0.80 1.30 1.15 0.35 0.35 -0.90 -0.15 3.40 -0.70 5.85 -0.35 1.85 -0.10 3.25 0.40 1.90 0.40 -1.10 1.60 -0.75 1.30 0.35 -0.20 0.85 -0.70 1 -2.90 1 -2.15 0 -2.65 -0.15 -2.55 -0.80 0.10 -1.25 -1.20 -1.45 -1.55 -0.25 -0.40 1.50 -2.15 1.40 -2.15 -0.15 0 -1.20 -0.05 -1.20 -1.50 -0.50 -0.80 0.45 -1.60 0.95 -1.75 1.25 -0.45 0.70 -4.10 0.55 -4.45 -0.15 -0.25 -0.50 -0.35 -0.50 -0.60 0 -0.15 0.30 -0.70 0.60 -1.20 0.60 -0.50 0 -1.05 -0.30 -1.20 -0.60 -0.25 -0.50 -0.35 -0.50 -0.60 0 -0.35 0.70 -1.70 0.80 -1.70 0.10z"/>
  <path d="M31.90 38.90 c-0.50 -0.60 -0.90 -1.45 -0.90 -1.85 0 -1 1.80 0.65 2.15 2 0.35 1.25 -0.20 1.20 -1.25 -0.15z"/>
  <path d="M15.95 16.15 c-0.05 -0.25 -0.05 -0.60 0 -0.80 0.05 -0.25 -0.40 -1.10 -0.95 -1.90 -1.35 -1.85 -0.45 -1.95 0.95 -0.05 l1 1.35 0.05 -1.20 c0 -0.95 0.15 -1.10 0.60 -0.65 0.40 0.40 0.40 0.75 -0.10 1.35 -0.50 0.60 -0.50 0.90 0 1.50 0.50 0.65 0.45 0.75 -0.45 0.75 -0.55 0 -1.10 -0.15 -1.10 -0.35z"/>
  <path d="M13.75 15.40 c-0.50 -1.30 -0.10 -2.15 0.60 -1.30 0.35 0.40 0.40 0.95 0.15 1.40 -0.40 0.60 -0.50 0.60 -0.75 -0.10z"/>
  <path d="M20.65 13.75 c0.80 -0.45 1.55 -0.70 1.75 -0.55 0.40 0.45 0 0.70 -1.65 1.05 l-1.50 0.30 1.40 -0.80z"/>
  <path d="M12.05 9.45 c-0.70 -2 -0.70 -1.95 0.15 -1.95 0.35 0 0.80 0.40 0.95 0.90 0.10 0.45 0.40 1.25 0.60 1.75 0.25 0.60 0.10 0.85 -0.40 0.85 -0.40 0 -1 -0.70 -1.30 -1.55z"/>
  <path d="M14.30 9.60 c-0.20 -0.65 -0.25 -1.30 -0.10 -1.45 0.50 -0.55 0.90 0.20 0.70 1.45 l-0.20 1.15 -0.40 -1.15z"/>
  <path d="M29 9.30 c0 -0.45 0.35 -0.95 0.75 -1.15 1.25 -0.45 1.35 0.10 0.25 1.10 -0.90 0.85 -1 0.85 -1 0.05z"/>
  <path d="M25 5.40 c0 -1.05 0.85 -2.05 1.40 -1.70 0.70 0.40 0.15 2.30 -0.70 2.30 -0.40 0 -0.70 -0.30 -0.70 -0.60z"/>
 </g>
 <g fill="#b77835">
  <path d="M16.65 26.50 c-0.15 -0.55 -0.65 -1 -1.10 -1 -0.60 0 -0.80 -0.50 -0.85 -1.75 0 -1.25 0.20 -1.75 0.75 -1.75 0.45 0 1.30 -0.15 1.90 -0.30 1.55 -0.40 2.20 1.15 0.90 2.10 -0.90 0.70 -0.90 0.70 0 1.40 0.55 0.40 0.80 0.95 0.60 1.50 -0.45 1.10 -1.90 1 -2.20 -0.20z"/>
  <path d="M20.50 24.85 c0 -0.80 -0.25 -1.85 -0.50 -2.40 -0.35 -0.65 -0.35 -0.95 0 -0.95 0.25 0 0.50 0.30 0.50 0.70 0 0.40 0.55 0.80 1.25 0.90 l1.25 0.15 -1.25 1.50 -1.20 1.50 -0.05 -1.40z"/>
  <path d="M21.75 21.25 c-0.15 -0.40 -0.35 -1.10 -0.50 -1.50 -0.15 -0.55 -0.65 -0.65 -1.75 -0.45 -1.15 0.25 -1.50 0.15 -1.50 -0.50 0 -0.45 -0.40 -0.80 -1 -0.80 -0.80 0 -1 0.35 -1 1.50 0 0.85 -0.25 1.50 -0.55 1.50 -0.75 0 -1.95 -1.30 -1.95 -2.20 0 -0.40 -0.25 -0.90 -0.50 -1.05 -0.45 -0.30 -0.20 -3.60 0.30 -4.20 0.50 -0.60 1.55 1.10 1.30 2.20 -0.15 0.95 0 1.25 0.65 1.25 0.55 0 0.75 -0.25 0.60 -0.75 -0.20 -0.40 -0.05 -0.85 0.25 -1.05 0.60 -0.40 2.90 2.15 2.90 3.20 0 0.30 0.25 0.60 0.55 0.60 0.30 0 0.40 -0.45 0.20 -1 -0.35 -1.15 0.05 -1.25 1.70 -0.30 0.70 0.40 1.60 0.55 2 0.40 0.55 -0.20 0.65 0 0.40 0.95 -0.20 0.65 -0.35 1.60 -0.35 2.10 0 1.05 -1.45 1.15 -1.75 0.10z"/>
  <path d="M27.05 19.65 c-0.05 -0.80 -0.35 -1.15 -1.05 -1.15 -1.05 0 -1.35 -0.75 -0.50 -1.25 0.30 -0.15 0.50 -0.50 0.50 -0.80 0 -0.25 -0.20 -0.45 -0.50 -0.45 -0.25 0 -0.50 0.35 -0.50 0.75 0 0.85 -0.80 1 -1.30 0.20 -0.15 -0.30 -0.75 -0.40 -1.30 -0.30 -1.15 0.30 -2.40 -0.05 -2.40 -0.70 0 -0.25 1.05 -0.45 2.35 -0.45 1.25 0 2.70 -0.30 3.10 -0.65 1 -0.80 3.55 -1.95 3.55 -1.55 0 0.15 -0.45 0.85 -1 1.55 -1.05 1.35 -1.30 2.65 -0.55 3.45 0.25 0.25 0.25 0.90 0.05 1.45 -0.40 0.95 -0.45 0.95 -0.45 -0.10z"/>
  <path d="M28.50 20.30 c0 -0.25 0.45 -1.20 1.05 -2.10 0.70 -1.20 0.85 -1.70 0.40 -1.70 -0.45 0 -0.40 -0.25 0.20 -0.85 1.15 -1.15 1.60 -0.55 0.95 1.30 -0.55 1.50 -2.60 4.15 -2.60 3.35z"/>
  <path d="M24.50 13.10 c0 -0.20 0.70 -0.65 1.50 -0.95 0.85 -0.30 1.50 -0.50 1.50 -0.35 0 0.10 -0.65 0.50 -1.50 0.95 -0.80 0.45 -1.50 0.60 -1.50 0.35z"/>
 </g>
 <g fill="#4889a6">
  <path d="M1.90 39 c-0.80 -0.90 -0.75 -1.10 1.40 -3.60 2.30 -2.75 3.20 -3.35 4.95 -3.30 0.70 0 0.55 0.15 -0.60 0.70 -1.35 0.60 -2.30 1.90 -2.40 3.40 0 0.25 -0.30 0.55 -0.70 0.70 -0.40 0.15 -0.55 0 -0.35 -0.35 0.20 -0.30 0.15 -0.55 -0.15 -0.55 -0.30 0 -0.75 0.45 -1.05 1 -0.45 0.80 -0.40 1.10 0.25 1.30 0.90 0.35 1 1.70 0.15 1.65 -0.35 0 -1.05 -0.45 -1.50 -0.95z"/>
  <path d="M6 39.60 c0 -0.30 0.30 -0.65 0.65 -0.75 0.30 -0.15 0.05 -0.30 -0.65 -0.30 -1.15 -0.05 -1.15 -0.10 -0.40 -0.85 0.75 -0.75 0.90 -0.75 1.60 -0.10 0.70 0.70 0.65 0.90 -0.20 1.65 -0.55 0.50 -1 0.65 -1 0.35z"/>
  <path d="M17.55 38.90 c0 -0.65 0.15 -0.85 0.30 -0.50 0.70 1.80 2.15 -0.95 2.15 -4.15 0 -1.25 0.25 -2.25 0.50 -2.25 0.60 0 0.60 1.50 0 4.50 -0.25 1.35 -0.25 2.45 0.05 2.70 0.30 0.30 0.45 0.20 0.45 -0.35 0 -0.45 0.25 -0.85 0.55 -0.85 0.30 0 0.45 0.40 0.35 0.90 -0.10 0.60 -0.75 0.90 -2.30 1 -1.90 0.15 -2.10 0.05 -2.05 -1z"/>
  <path d="M13.35 38.30 c-0.20 -0.45 0.20 -0.80 1.05 -1.05 0.75 -0.20 1.50 -0.60 1.70 -0.90 0.20 -0.30 0.55 -0.40 0.75 -0.15 0.20 0.20 -0.25 0.95 -1.10 1.60 -1.75 1.40 -2.05 1.45 -2.40 0.50z"/>
  <path d="M11.75 37 c0.50 -0.55 1 -0.90 1.15 -0.75 0.35 0.30 -0.90 1.75 -1.55 1.75 -0.25 0 -0.10 -0.45 0.40 -1z"/>
  <path d="M8.35 37.20 c-0.15 -0.15 -0.20 -0.55 -0.10 -0.85 0.10 -0.35 0.30 -1.25 0.45 -2 0.20 -0.75 0.50 -1.25 0.75 -1.10 0.25 0.10 0.25 1.05 0.05 2.05 -0.45 1.95 -0.70 2.35 -1.15 1.90z"/>
  <path d="M11.50 33.90 c0 -0.40 0.35 -1.15 0.75 -1.70 0.75 -0.90 0.75 -0.90 0.65 0.50 -0.15 1.45 -1.40 2.50 -1.40 1.20z"/>
  <path d="M17 13.50 c0 -0.55 0.35 -1 0.75 -1 0.65 0 0.70 0.20 0.25 1 -0.30 0.55 -0.65 1 -0.75 1 -0.15 0 -0.25 -0.45 -0.25 -1z"/>
  <path d="M20.50 13.85 c2.20 -1.30 3.50 -1.50 3.50 -0.65 0 0.55 -0.45 0.80 -1.45 0.80 -0.80 0 -1.90 0.15 -2.40 0.30 -0.50 0.15 -0.35 -0.05 0.35 -0.45z"/>
  <path d="M19.50 12.60 c0 -0.35 0.20 -0.60 0.40 -0.60 0.20 0 0.90 -1.05 1.50 -2.35 l1.15 -2.40 -1.30 1.40 c-1.45 1.60 -1.45 1.45 -0.65 -2.90 0.60 -3.20 0.65 -3.25 2.25 -3.25 1.85 0 2.50 0.70 1.65 1.75 -0.45 0.55 -0.45 0.75 -0.05 0.75 0.30 0 0.70 -0.35 0.85 -0.75 0.60 -1.55 1.35 -0.70 1.05 1.25 -0.15 1.20 -0.05 2.05 0.35 2.20 0.30 0.15 -0.50 1.25 -1.90 2.55 -2.85 2.70 -3.80 2.60 -1.15 -0.15 1 -1.05 1.85 -2.10 1.85 -2.35 0 -0.25 -1.35 0.85 -3 2.50 -1.65 1.65 -3 2.70 -3 2.35z"/>
  <path d="M13.35 11.45 c-0.50 -0.55 -0.85 -1.55 -0.75 -2.20 0.15 -0.95 0.30 -0.85 1.30 1.05 1.15 2.35 0.90 2.90 -0.55 1.15z"/>
  <path d="M17.25 9.45 c0.25 -1.45 0.20 -2 -0.20 -1.75 -0.30 0.20 -0.55 0.85 -0.55 1.40 0 1.50 -0.30 0.95 -0.70 -1.25 -0.35 -1.75 -0.20 -2.05 1.45 -3.65 1 -0.95 2.05 -1.70 2.30 -1.70 0.25 0 0.45 0.80 0.45 1.75 0 0.95 -0.20 1.75 -0.50 1.75 -0.25 0 -0.50 0.70 -0.50 1.50 0 0.85 -0.20 1.50 -0.50 1.50 -0.25 0 -0.50 0.55 -0.50 1.25 0 0.70 -0.25 1.25 -0.55 1.25 -0.35 0 -0.40 -0.70 -0.20 -2.05z"/>
  <path d="M14.50 9.95 c-0.35 -0.55 -0.45 -1.35 -0.30 -1.75 0.50 -1.25 1.05 -0.75 1.10 1.05 0.05 2.05 -0.05 2.10 -0.80 0.70z"/>
 </g>
 <g fill="#e95c4f">
  <path d="M19 39.35 c0 -0.35 0.30 -1.05 0.65 -1.55 0.60 -0.85 0.70 -0.80 0.70 0.65 0 0.95 -0.25 1.55 -0.70 1.55 -0.35 0 -0.65 -0.30 -0.65 -0.65z"/>
  <path d="M8.45 37.25 c-0.45 -0.40 0.10 -3.25 0.60 -3.25 0.25 0 0.45 0.50 0.45 1.15 0 1.20 -0.65 2.50 -1.05 2.10z"/>
  <path d="M20 18 c0 -0.60 0.40 -0.60 1.75 0 0.90 0.40 0.85 0.45 -0.35 0.45 -0.80 0.05 -1.40 -0.15 -1.40 -0.45z"/>
  <path d="M12.80 16.15 c0.55 -2.70 0.65 -2.80 1.45 -2.15 0.55 0.45 0.60 0.85 0.20 1.55 -0.40 0.80 -0.30 1.05 0.65 1.45 1 0.40 0.90 0.45 -0.75 0.45 -1.80 0.05 -1.85 0 -1.55 -1.30z"/>
  <path d="M20.60 16.60 c-0.35 -0.10 -0.60 -0.40 -0.60 -0.65 0 -0.65 4.10 -0.35 4.35 0.35 0.15 0.50 -2.55 0.70 -3.75 0.30z"/>
  <path d="M29.55 9 c0 -0.80 0.90 -1.95 3.35 -4.20 2.50 -2.30 1.90 -0.75 -0.90 2.25 -1.35 1.50 -2.45 2.35 -2.45 1.95z"/>
  <path d="M11.30 5.50 c-0.20 -1.20 -0.10 -2.45 0.25 -3.05 0.70 -1.35 0.75 -1.25 1.15 2.20 0.25 2.25 0.15 2.85 -0.40 2.85 -0.40 0 -0.80 -0.80 -1 -2z"/>
 </g>
 <g fill="#ae8c6b">
  <path d="M8.55 35.65 c-0.05 -0.85 0.20 -1.75 0.50 -1.90 0.80 -0.55 0.85 -0.15 0.15 1.75 l-0.60 1.75 -0.05 -1.60z"/>
  <path d="M15.15 25.80 c-0.30 -0.40 -0.40 -0.95 -0.15 -1.35 0.25 -0.40 0.20 -0.95 -0.10 -1.30 -0.65 -0.80 -0.65 -0.75 1.55 -1.55 1.40 -0.45 1.85 -0.45 2.15 0.05 0.55 0.85 0.50 1.20 -0.40 2.10 -0.75 0.75 -0.75 0.85 0.05 1.75 0.90 0.95 0.85 1 -0.80 1 -0.95 -0.05 -1.95 -0.35 -2.30 -0.70z"/>
  <path d="M20.70 23.85 c-2.35 -4.55 -2.30 -4.55 -2.95 -3.70 -0.80 1.10 -3.25 1.15 -3.25 0.05 0 -0.45 -0.25 -0.60 -0.55 -0.40 -0.35 0.20 -0.50 0.05 -0.35 -0.35 0.15 -0.40 -0.05 -1.05 -0.40 -1.45 -0.55 -0.65 -0.55 -1.10 0 -2.65 0.50 -1.55 0.75 -1.75 1.20 -1.20 0.40 0.50 0.40 0.85 0.05 1.20 -0.70 0.70 -0.15 1.65 0.85 1.65 0.40 0 0.70 -0.45 0.70 -1 0 -0.55 0.20 -1 0.40 -1 0.50 0 2.60 2.80 2.60 3.50 0 0.25 0.20 0.50 0.45 0.50 0.25 0 0.60 0.90 0.80 2 0.20 1.10 0.65 2.15 1 2.40 0.40 0.20 0.55 0.65 0.35 0.95 -0.25 0.40 -0.55 0.20 -0.90 -0.50z"/>
  <path d="M21.55 21.05 c-0.30 -0.50 -0.40 -1.05 -0.20 -1.20 0.15 -0.20 -0.10 -0.45 -0.55 -0.65 -0.45 -0.15 -0.80 -0.65 -0.80 -1.05 0 -0.50 0.30 -0.65 0.80 -0.45 0.45 0.15 1.35 0.45 2 0.60 1 0.25 1.15 0.50 0.90 1.65 -0.60 2.35 -1.30 2.75 -2.15 1.10z"/>
  <path d="M28.50 20.20 c0 -0.85 0.90 -1.80 1.50 -1.60 0.35 0.10 0.20 0.50 -0.45 1.10 -0.60 0.55 -1.05 0.75 -1.05 0.50z"/>
  <path d="M30.55 7.15 c0.90 -1.20 2.15 -2.10 2.40 -1.85 0.30 0.30 -2 2.70 -2.60 2.70 -0.25 0 -0.15 -0.40 0.20 -0.85z"/>
 </g>
 <g fill="#48a5bf">
  <path d="M19.65 37.55 c0.40 -1.15 0.65 -1.40 0.75 -0.80 0.10 0.50 -0.15 1.25 -0.60 1.65 -0.70 0.75 -0.75 0.65 -0.15 -0.85z"/>
  <path d="M17.65 28.30 c-0.65 -0.30 -1.15 -0.80 -1.15 -1.15 0 -0.35 0.50 -0.65 1.15 -0.65 0.85 0 1.10 0.30 1.10 1.25 0 0.70 0 1.20 0 1.20 0 -0.05 -0.50 -0.30 -1.10 -0.65z"/>
  <path d="M14.05 12.25 c-2.05 -2.20 -2.50 -3.40 -1.55 -4 0.30 -0.15 0.50 -0.05 0.50 0.25 0 0.35 0.65 1.55 1.40 2.70 2.80 4.15 2.70 4.40 -0.35 1.05z"/>
  <path d="M17.15 10.15 c0.30 -3.70 0.25 -3.80 -0.40 -2.15 -0.55 1.45 -0.70 1.55 -0.70 0.60 -0.05 -1.60 -1.05 -0.85 -1.10 0.80 l0 1.35 -0.50 -1.20 c-0.40 -1 -0.20 -1.60 0.85 -3.15 2 -2.85 3.95 -4.05 6.55 -4.05 2.50 0 3.60 0.70 2.70 1.75 -1.15 1.35 -3.90 5.25 -5.30 7.50 -0.85 1.35 -1.70 2.40 -1.95 2.40 -0.25 0 -0.30 -1.75 -0.15 -3.85z"/>
  <path d="M21.25 13.55 c0.15 -0.25 0.90 -0.60 1.70 -0.80 0.80 -0.15 1.95 -0.85 2.55 -1.55 0.65 -0.65 1.40 -1.20 1.70 -1.20 0.25 0 1.25 -0.70 2.15 -1.60 1.10 -1.05 1.65 -1.35 1.65 -0.85 0 0.90 -3.65 4.40 -5.85 5.60 -1.65 0.90 -4.40 1.20 -3.90 0.40z"/>
  <path d="M19.50 12.70 c0 -0.30 0.30 -0.85 0.65 -1.15 0.40 -0.30 1.20 -1.55 1.80 -2.75 1 -1.85 3.65 -5.30 4.15 -5.30 0.10 0 0.15 0.60 0.15 1.40 0 1 -0.85 2.25 -3.35 4.85 -1.85 1.95 -3.40 3.25 -3.40 2.95z"/>
  <path d="M23.90 9.90 c1.15 -1.10 2.25 -1.90 2.50 -1.70 0.40 0.45 -3.10 3.80 -4 3.80 -0.30 0 0.35 -0.95 1.50 -2.10z"/>
 </g>
 <g fill="#5b75e8">
  <path d="M32.05 38.70 c-1.10 -1.40 -1.40 -2.50 -0.55 -1.95 0.55 0.35 2.15 3.25 1.80 3.25 -0.15 0 -0.70 -0.60 -1.25 -1.30z"/>
  <path d="M30.25 15.50 c0.50 -0.55 1 -1 1.10 -1 0.05 0 0.15 0.45 0.15 1 0 0.70 -0.35 1 -1.10 1 -1 0 -1.05 -0.05 -0.15 -1z"/>
  <path d="M30 12.30 c0 -0.70 0.20 -1.35 0.40 -1.50 0.25 -0.15 0.30 0.40 0.20 1.25 -0.25 1.75 -0.60 1.90 -0.60 0.25z"/>
  <path d="M13.35 11.65 c-1.65 -1.90 -2.40 -5.15 -1.10 -5.15 0.45 0 0.75 0.45 0.75 1.25 0 0.75 0.35 2 0.80 2.80 0.90 1.80 0.70 2.35 -0.45 1.10z"/>
 </g>
 <g fill="#e19642">
  <path d="M17 26.50 c0 -1.15 -0.20 -1.50 -1 -1.50 -0.55 0 -1 -0.20 -1 -0.50 0 -0.90 1.50 -0.55 2.80 0.65 0.80 0.75 1.15 1.45 0.90 2 -0.55 1.45 -1.70 1 -1.70 -0.65z"/>
  <path d="M14.80 23.10 c-0.65 -0.60 -0.25 -1.10 0.95 -1.10 0.70 0 1.25 0.20 1.25 0.45 0 0.50 -1.80 1.05 -2.20 0.65z"/>
  <path d="M14.80 20.05 c-0.30 -0.95 -0.50 -1.05 -0.90 -0.50 -0.35 0.50 -0.40 0.40 -0.15 -0.40 0.20 -0.70 0.05 -1.25 -0.45 -1.50 -0.65 -0.35 -0.65 -0.65 -0.05 -2.40 0.65 -1.95 1.35 -1.65 1.10 0.50 -0.05 0.55 0.25 1.05 0.80 1.15 0.50 0.10 0.85 -0.15 0.85 -0.60 0 -1.45 0.95 -1.30 1.95 0.40 1.40 2.25 1.35 2.50 -0.65 2.15 -1.60 -0.25 -1.75 -0.15 -1.90 1.05 l-0.15 1.35 -0.45 -1.20z"/>
  <path d="M28.95 19.10 c0.60 -1.15 2.05 -2.40 2.05 -1.75 0 0.25 -0.35 0.95 -0.80 1.55 -0.95 1.35 -1.95 1.50 -1.25 0.20z"/>
  <path d="M20.70 18.80 c-0.50 -0.40 -0.80 -0.85 -0.60 -1.05 0.40 -0.40 2.40 0.65 2.40 1.25 0 0.70 -0.65 0.60 -1.80 -0.20z"/>
  <path d="M26.25 17 c0.25 -0.70 0.10 -1 -0.45 -1 -1.10 0 -1 -0.85 0.15 -1.50 1.40 -0.75 2.45 -0.70 1.65 0.10 -0.35 0.35 -0.60 1.25 -0.60 2 0 0.75 -0.25 1.40 -0.55 1.40 -0.30 0 -0.40 -0.45 -0.20 -1z"/>
  <path d="M23.25 16.45 c-0.20 -0.30 -0.25 -0.65 -0.10 -0.80 0.35 -0.35 1.35 0.30 1.35 0.90 0 0.60 -0.85 0.60 -1.25 -0.10z"/>
  <path d="M30 15.75 c0.35 -0.40 0.80 -0.75 1.05 -0.75 0.25 0 0.45 0.35 0.45 0.75 0 0.45 -0.45 0.75 -1.05 0.75 -0.90 0 -0.95 -0.10 -0.45 -0.75z"/>
 </g>
 <g fill="#6b98b7">
  <path d="M32.15 38.90 c-0.95 -1.25 -1.20 -1.90 -0.70 -1.90 0.55 0 1.75 1.95 1.40 2.30 -0.10 0.15 -0.45 -0.05 -0.70 -0.40z"/>
  <path d="M19.50 38.40 c0.30 -0.35 0.50 -1.55 0.50 -2.75 0 -1.20 0.25 -2.15 0.50 -2.15 0.75 0 0.05 4.10 -0.80 4.90 -0.45 0.35 -0.50 0.40 -0.20 0z"/>
  <path d="M1 38.30 c0 -0.15 0.95 -1.30 2.05 -2.65 2 -2.35 3.95 -3.60 5.45 -3.60 0.40 0 0.20 0.30 -0.50 0.60 -0.70 0.35 -2.45 1.80 -3.90 3.25 -2.40 2.40 -3.10 2.95 -3.10 2.40z"/>
  <path d="M8.50 35.85 c0 -1.55 0.75 -3.15 3.05 -6.55 1.40 -2.15 2.45 -3.20 2.45 -2.55 0 0.15 -0.90 1.55 -1.95 3.15 -1.05 1.55 -2.30 3.85 -2.70 5.10 -0.70 1.90 -0.80 2.05 -0.85 0.85z"/>
  <path d="M17 27.50 c0 -0.25 0.35 -0.50 0.75 -0.50 0.40 0 0.75 0.25 0.75 0.50 0 0.30 -0.35 0.50 -0.75 0.50 -0.40 0 -0.75 -0.20 -0.75 -0.50z"/>
  <path d="M15.90 16.45 c0.35 -0.90 1.10 -1.40 1.10 -0.70 0 0.15 0 0.60 0 1 0 0.40 -0.35 0.75 -0.75 0.75 -0.50 0 -0.60 -0.30 -0.35 -1.05z"/>
  <path d="M17 13.25 c0 -0.40 0.25 -0.75 0.50 -0.75 0.30 0 0.50 0.35 0.50 0.75 0 0.40 -0.20 0.75 -0.50 0.75 -0.25 0 -0.50 -0.35 -0.50 -0.75z"/>
  <path d="M23 13.60 c0 -0.65 2.80 -2.55 4.30 -2.90 1.35 -0.35 1.40 -0.30 0.75 0.50 -0.65 0.80 -4.10 2.80 -4.80 2.80 -0.15 0 -0.25 -0.20 -0.25 -0.40z"/>
  <path d="M12.60 10.50 c-0.85 -1.45 -1.35 -5.30 -0.70 -5.70 0.35 -0.20 0.65 0.40 0.85 1.55 0.40 2.55 0.55 3.25 1 4.30 0.50 1.20 -0.35 1.10 -1.15 -0.15z"/>
  <path d="M29 9.65 c0 -0.75 2.35 -3.50 2.70 -3.10 0.15 0.15 -0.40 1.05 -1.20 2 -0.80 0.95 -1.45 1.45 -1.50 1.10z"/>
 </g>
 <g fill="#63b8d6">
  <path d="M4.25 34.50 c0.50 -0.55 1 -0.90 1.15 -0.75 0.35 0.30 -0.90 1.75 -1.55 1.75 -0.25 0 -0.10 -0.45 0.40 -1z"/>
  <path d="M9.05 33.65 c0.25 -0.80 1.05 -2.05 1.75 -2.90 1.25 -1.50 1.25 -1.50 -0.15 1.35 -1.45 2.95 -2.45 3.90 -1.60 1.55z"/>
  <path d="M12.40 28.25 c1.70 -2.95 3.10 -3.60 3.10 -1.35 0 1 -0.15 1.15 -0.50 0.60 -0.35 -0.60 -0.65 -0.55 -1.80 0.50 -1.10 1 -1.25 1.05 -0.80 0.25z"/>
  <path d="M22.75 12.95 c1.10 -0.50 2.75 -1.40 3.65 -1.95 1.45 -0.90 1.65 -0.90 1.50 -0.20 -0.20 1.10 -4.10 3.20 -5.80 3.15 -1.25 0 -1.25 -0.10 0.65 -1z"/>
  <path d="M17.35 10 c0.10 -1.65 0.40 -3.60 0.65 -4.30 0.60 -1.55 0.65 -2.05 0.05 -1.40 -0.25 0.25 -0.70 1.30 -1.05 2.40 -0.40 1.25 -0.75 1.70 -1 1.30 -0.30 -0.45 -0.55 -0.35 -0.95 0.30 -0.40 0.70 -0.50 0.75 -0.55 0.20 0 -1.35 2.45 -4.45 4.20 -5.25 1.80 -0.85 5.90 -0.85 5.70 0 -0.10 0.25 -0.75 0.40 -1.50 0.30 -1.10 -0.10 -1.35 0.05 -1.10 0.70 0.20 0.45 0.65 0.70 1 0.55 0.40 -0.15 0.70 -0.15 0.70 0 0 0.50 -2.75 4.20 -3.10 4.20 -0.25 0 -0.40 -0.75 -0.45 -1.60 -0.05 -1.65 -0.05 -1.65 -0.50 0.35 -0.25 1.05 -0.35 2.30 -0.20 2.70 0.25 0.65 -1 2.55 -1.75 2.55 -0.20 0 -0.30 -1.35 -0.15 -3z"/>
  <path d="M19.50 12.65 c0 -0.25 0.45 -0.90 1 -1.40 0.55 -0.50 1 -0.70 1 -0.40 0 0.25 -0.45 0.90 -1 1.40 -0.55 0.50 -1 0.70 -1 0.40z"/>
  <path d="M24.45 9.80 c1.30 -1.40 1.55 -1.55 1.55 -0.85 0 0.25 -0.60 0.85 -1.35 1.30 l-1.40 0.90 1.20 -1.35z"/>
  <path d="M22.95 7.40 c0.55 -0.90 1.50 -2 2.15 -2.40 l1.15 -0.70 -0.95 1.10 c-0.55 0.60 -0.80 1.25 -0.65 1.45 0.50 0.45 -1.15 2.15 -2.05 2.15 -0.55 0 -0.50 -0.35 0.35 -1.60z"/>
  <path d="M11.75 6.95 c-0.30 -1.40 -0.05 -2.40 0.50 -1.85 0.15 0.10 0.40 0.95 0.55 1.80 0.40 2.10 -0.60 2.15 -1.05 0.05z"/>
 </g>
 <g fill="#f39472">
  <path d="M12.50 17 c0 -0.65 1.50 -0.65 2.50 0 0.55 0.35 0.35 0.50 -0.85 0.50 -0.90 0 -1.65 -0.20 -1.65 -0.50z"/>
  <path d="M13.40 14.65 c0.25 -1.20 0.30 -1.25 0.60 -0.40 0.40 1.05 0.20 1.75 -0.45 1.75 -0.25 0 -0.30 -0.60 -0.15 -1.35z"/>
  <path d="M29.50 8.60 c0 -0.55 3.45 -3.85 3.70 -3.55 0.25 0.20 -3.05 3.95 -3.45 3.95 -0.15 0 -0.25 -0.20 -0.25 -0.40z"/>
  <path d="M11.85 7.40 c-0.30 -1.25 0 -5.40 0.40 -5.80 0.15 -0.15 0.25 0.85 0.25 2.20 0 1.35 0.15 2.95 0.30 3.60 0.20 0.60 0.10 1.10 -0.20 1.10 -0.25 0 -0.60 -0.50 -0.75 -1.10z"/>
 </g>
 <g fill="#debf87">
  <path d="M15 27.50 c0 -0.25 -0.35 -0.50 -0.80 -0.50 -0.65 0 -0.65 -0.20 0.15 -1.50 1 -1.70 1.70 -1.85 3.15 -0.65 1.35 1.15 1.25 2.45 -0.10 2.85 -1.65 0.40 -2.40 0.35 -2.40 -0.20z"/>
  <path d="M17 23.50 c0 -0.25 -0.55 -0.50 -1.25 -0.50 -0.70 0 -1.25 -0.20 -1.25 -0.50 0 -0.25 0.50 -0.50 1.15 -0.50 0.65 0 1.40 -0.25 1.75 -0.60 0.45 -0.45 0.65 -0.35 0.90 0.25 0.15 0.45 0.20 1.20 0 1.60 -0.30 0.85 -1.30 1.05 -1.30 0.25z"/>
  <path d="M19.30 20.65 c-0.40 -1.30 -1.55 -1.50 -2 -0.40 -0.50 1.35 -2.10 0.85 -2.95 -1 -0.45 -0.95 -1.05 -1.75 -1.35 -1.75 -0.25 0 -0.50 -0.25 -0.50 -0.55 0 -0.35 0.60 -0.45 1.75 -0.25 1.40 0.30 1.75 0.20 1.75 -0.45 0 -1.35 1 -0.80 1.05 0.65 0 0.75 0.15 1.05 0.30 0.70 0.30 -0.80 1.65 0.15 1.65 1.15 0 0.40 0.25 0.75 0.55 0.85 0.30 0.10 0.45 0.65 0.35 1.15 -0.20 0.95 -0.25 0.90 -0.60 -0.10z"/>
  <path d="M21.15 19.15 c-1.70 -1.15 -1.40 -1.65 0.60 -1 1 0.30 1.70 0.75 1.60 1.05 -0.25 0.80 -1.05 0.80 -2.20 -0.05z"/>
  <path d="M29 19.65 c0 -0.25 0.50 -0.95 1.05 -1.65 l1 -1.25 -0.80 1.65 c-0.75 1.50 -1.25 2.05 -1.25 1.25z"/>
 </g>
 <g fill="#82d5e5">
  <path d="M14.60 12.85 c-1.25 -1.35 -1.50 -2.30 -0.30 -1.35 0.75 0.65 1.90 2.50 1.55 2.50 -0.10 0 -0.65 -0.50 -1.25 -1.15z"/>
  <path d="M17.25 11.40 c0.35 -4.05 0.70 -5.65 1.55 -7.35 0.70 -1.40 1 -1.55 2.95 -1.55 1.20 0 2.35 0.20 2.50 0.50 0.15 0.25 0 0.35 -0.40 0.20 -0.40 -0.15 -1.50 0.10 -2.40 0.50 -1.25 0.50 -1.45 0.75 -0.70 0.75 2.05 0.10 2.45 0.80 1.35 2.35 -2.30 3.35 -4.10 6.30 -4.10 6.75 0 0.25 -0.20 0.45 -0.50 0.45 -0.25 0 -0.35 -1.10 -0.25 -2.60z"/>
  <path d="M21.50 13.80 c0 -0.15 1.20 -0.80 2.70 -1.45 1.50 -0.70 3.80 -2.35 5.10 -3.70 2 -2.10 2.20 -2.20 1.55 -0.85 -1 1.95 -3.85 4.50 -6.20 5.45 -1.70 0.75 -3.15 0.95 -3.15 0.55z"/>
  <path d="M19.80 12.50 c1.05 -2.10 4.85 -7.50 5.30 -7.50 0.25 0 0.10 0.35 -0.35 0.80 -0.55 0.60 -0.65 0.95 -0.30 1.20 0.35 0.20 -0.50 1.45 -2.20 3.30 -1.55 1.60 -2.65 2.60 -2.45 2.20z"/>
  <path d="M24 10.25 c0.95 -0.95 1.80 -1.75 1.95 -1.75 0.15 0 -0.50 0.80 -1.45 1.75 -0.95 0.95 -1.80 1.75 -1.95 1.75 -0.15 0 0.50 -0.80 1.45 -1.75z"/>
  <path d="M12 7.40 c0 -1.25 0.15 -1.45 0.50 -0.90 0.65 1 0.65 2.50 0 2.50 -0.25 0 -0.50 -0.75 -0.50 -1.60z"/>
  <path d="M14.50 8.20 c0 -0.75 3 -4.70 3.60 -4.70 0.35 0 0.30 0.25 -0.05 0.70 -0.30 0.35 -0.85 1.55 -1.25 2.60 -0.45 1.25 -0.75 1.60 -0.80 0.95 -0.05 -1 -0.05 -1 -0.75 -0.05 -0.40 0.55 -0.75 0.75 -0.75 0.50z"/>
 </g>
 <g fill="#e4ceaf">
  <path d="M15.20 27.45 c-0.15 -0.30 -0.75 -0.45 -1.25 -0.30 -0.90 0.25 -0.90 0.15 0.10 -1.25 0.60 -0.80 1.65 -1.70 2.40 -2.05 l1.30 -0.55 -1.35 -0.20 c-0.80 -0.10 -1.40 -0.35 -1.40 -0.55 0 -0.45 3 -1.20 3.35 -0.85 0.10 0.10 -0.25 1.05 -0.85 2.10 -1 1.95 -1 1.95 0 2.10 0.60 0.10 1 0.55 1 1.15 0 0.70 -0.35 0.95 -1.45 0.95 -0.85 0 -1.65 -0.25 -1.85 -0.55z"/>
  <path d="M14.35 19.15 c-0.70 -1.85 -0.70 -1.90 0.30 -2.05 0.60 -0.10 1.35 -0.55 1.70 -1 0.55 -0.75 0.65 -0.55 0.70 1.30 0.05 1.15 0.10 2.40 0.15 2.75 0.05 0.30 -0.45 0.65 -1 0.75 -0.85 0.10 -1.25 -0.30 -1.85 -1.75z"/>
  <path d="M18.40 19.40 c-1 -1 -1.15 -1.90 -0.40 -1.90 0.45 0 1.75 2.50 1.40 2.75 -0.10 0.05 -0.55 -0.35 -1 -0.85z"/>
  <path d="M29.95 8.15 c0.65 -1.25 3.05 -3.45 3.05 -2.85 0 0.30 -0.55 1 -1.25 1.60 -0.70 0.60 -1.25 1.30 -1.25 1.60 0 0.25 -0.25 0.50 -0.50 0.50 -0.35 0 -0.35 -0.30 -0.05 -0.85z"/>
 </g>
 <g fill="#baf3fc">
  <path d="M12.45 28.25 c0.25 -0.55 1.05 -1.55 1.75 -2.20 l1.30 -1.20 0 1.30 c0 0.95 -0.20 1.25 -0.75 1.05 -0.45 -0.20 -1.20 0.20 -1.80 0.85 -0.80 0.95 -0.90 1 -0.50 0.20z"/>
  <path d="M14.15 12.40 c-1.55 -1.70 -2.15 -3.15 -2.10 -5 l0.05 -1.65 0.70 2.15 c0.35 1.20 1.15 2.95 1.70 3.90 1.25 1.95 1.10 2.20 -0.35 0.60z"/>
  <path d="M23.25 13.05 c2.05 -0.65 4.15 -2.05 5.70 -3.85 1.85 -2.05 2.60 -2.05 0.95 0.05 -1.40 1.80 -5.30 4.25 -6.60 4.20 -1.05 -0.05 -1.05 -0.05 -0.05 -0.40z"/>
  <path d="M21.60 9.75 c0.90 -1.25 1.80 -2.25 2 -2.25 0.55 0 -0.25 1.40 -1.75 3.15 -1.85 2.10 -2 1.60 -0.25 -0.90z"/>
 </g>
 <g fill="#f8f1db">
  <path d="M14.85 27.30 c-0.90 -0.70 -0.90 -0.80 -0.10 -2 0.95 -1.40 2.25 -1.75 2.25 -0.55 0 0.40 -0.35 0.75 -0.80 0.75 -0.40 0 -0.65 0.20 -0.50 0.45 0.15 0.20 0.90 0.30 1.60 0.15 1.15 -0.20 1.30 -0.10 1.05 0.60 -0.20 0.50 -0.35 1 -0.35 1.10 0 0.50 -2.35 0.10 -3.15 -0.50z"/>
  <path d="M15 20.25 c0 -0.45 -0.40 -1.35 -0.85 -2.05 -0.80 -1.25 -0.80 -1.30 0.25 -1.10 0.60 0.10 1.35 -0.25 1.80 -0.85 0.65 -0.90 0.70 -0.85 0.65 0.90 0 1 -0.25 1.85 -0.45 1.85 -0.20 0 -0.40 -0.20 -0.40 -0.50 0 -0.25 -0.20 -0.50 -0.50 -0.50 -0.90 0 -0.50 1.10 0.50 1.35 0.55 0.15 1 0.60 1 0.95 0 0.40 -0.45 0.70 -1 0.70 -0.55 0 -1 -0.35 -1 -0.75z"/>
  <path d="M17.85 18.65 c-0.50 -0.45 -0.45 -1.15 0.10 -1.15 0.25 0 0.55 0.35 0.75 0.75 0.25 0.75 -0.25 1 -0.85 0.40z"/>
 </g>
</svg>