<?xml version="1.0" encoding="utf-8"?>
<!DOCTYPE svg PUBLIC "-//W3C//DTD SVG 1.0//EN" "http://www.w3.org/TR/2001/REC-SVG-20010904/DTD/svg10.dtd">
<svg version="1.0" xmlns="http://www.w3.org/2000/svg" width="40px" height="40px" viewBox="0 0 40 40" preserveAspectRatio="xMidYMid meet">
 <g fill="#040c22">
  <path d="M20.80 36.75 c0.35 -0.80 2.60 -2 3.05 -1.60 0.35 0.40 -1.15 1.65 -2.45 2 -0.50 0.15 -0.75 0 -0.60 -0.40z"/>
  <path d="M28 33.80 c0 -1.25 1.05 -1.80 3.65 -1.80 2 0 1.65 0.75 -0.90 1.95 -2.80 1.30 -2.75 1.30 -2.75 -0.15z"/>
  <path d="M14.30 33.75 c0.20 -0.45 0 -0.75 -0.50 -0.75 -0.45 0 -0.80 -0.20 -0.80 -0.40 0 -0.50 2.25 -1.60 3.25 -1.60 0.45 0 0.75 -0.50 0.75 -1.15 0 -0.65 0.25 -1.40 0.60 -1.75 0.40 -0.40 0.40 -0.75 -0.10 -1.35 -0.55 -0.65 -0.40 -0.75 0.80 -0.80 0.85 -0.05 1.10 -0.15 0.60 -0.30 -0.55 -0.15 -0.90 -0.70 -0.90 -1.35 0 -0.65 -0.25 -1.85 -0.55 -2.75 -0.45 -1.25 -0.80 -1.55 -2 -1.55 -1.35 0 -1.45 -0.15 -1.45 -2 l0 -2 2.25 0 c1.25 0 2.25 0.25 2.25 0.50 0 0.30 0.40 0.50 0.90 0.50 1.30 0 2.10 1 2.10 2.60 0 1.15 0.20 1.40 1.30 1.40 1.55 0 2.85 -1.15 2.15 -1.85 -0.30 -0.30 -0.45 -1.30 -0.35 -2.20 0.15 -1.55 0.30 -1.70 1.90 -1.85 1.55 -0.15 1.85 0.05 2.35 1.25 l0.55 1.40 0.05 -1.85 c0.05 -1.80 0.10 -1.90 1.80 -1.90 1.05 0 1.75 0.25 1.75 0.65 0.05 0.30 0.30 0.10 0.70 -0.55 l0.60 -1.15 1.55 1.55 c1.05 1.05 1.80 2.60 2.30 4.55 l0.75 2.95 -1.15 0 c-0.95 0 -1.25 -0.30 -1.40 -1.60 -0.10 -0.90 -0.25 0 -0.25 2 -0.05 2.10 0.10 3.60 0.40 3.60 0.30 0 0.50 -0.65 0.50 -1.50 0 -1.20 0.20 -1.50 1.05 -1.50 0.95 0 1.05 0.20 0.70 1.90 -0.55 3 -2.75 6.05 -2.75 3.85 0 -0.45 -0.50 -0.75 -1.30 -0.75 -0.70 0 -1.15 -0.20 -0.95 -0.45 0.45 -0.80 0.70 -4.55 0.25 -4.55 -0.20 0 -0.65 -0.65 -0.95 -1.50 -0.70 -2.10 -1 -1.85 -0.80 0.75 0.10 1.45 -0.05 2.25 -0.45 2.25 -0.30 0 -1.05 0.15 -1.60 0.30 -0.80 0.20 -1.15 0 -1.35 -0.80 -0.20 -0.85 -0.45 -1 -1.20 -0.60 -0.50 0.25 -2.10 0.75 -3.50 1.10 -1.65 0.35 -2.65 0.85 -2.65 1.30 0 0.40 -0.35 0.70 -0.75 0.70 -0.50 0 -0.75 0.55 -0.75 1.75 0 0.95 -0.20 1.75 -0.50 1.75 -0.25 0 -0.50 0.25 -0.50 0.50 0 0.30 0.45 0.50 1 0.50 1.10 0 1.15 0.05 0.70 1.20 -0.40 1 -2.20 1.05 -2.20 0.05 0 -0.40 -0.45 -0.75 -1 -0.75 -0.55 0 -1 0.30 -1 0.65 0 0.70 -1.55 2.35 -2.15 2.35 -0.15 0 -0.20 -0.35 -0.05 -0.75z"/>
  <path d="M8 29.55 c0 -0.25 0.65 -0.70 1.50 -1.05 1.95 -0.80 2.50 -1.55 2.15 -2.90 l-0.25 -1.05 -2.10 1.15 c-1.10 0.60 -2.95 1.45 -4.05 1.80 -1.10 0.35 -2.15 0.90 -2.35 1.20 -0.20 0.30 -0.40 -0.15 -0.40 -1.05 0 -1.10 0.25 -1.65 0.90 -1.80 0.50 -0.15 0.30 -0.25 -0.55 -0.30 l-1.35 -0.05 1.10 -1.75 c1.45 -2.20 1.90 -2.20 1.90 0 0 0.95 0.20 1.75 0.45 1.75 0.50 0 1.05 -1.70 1.05 -3.30 0 -1.05 0.25 -1.10 4.55 -1.10 5.15 0 5.30 0.10 4.65 3.80 -0.40 2.10 -0.60 2.35 -1.90 2.50 -1 0.15 -1.25 0.30 -0.80 0.60 1.40 0.85 0.10 2 -2.25 2 -1.25 0 -2.25 -0.20 -2.25 -0.45z"/>
  <path d="M25.10 29.55 c-1.10 -0.65 0.55 -1.95 2.10 -1.70 1.55 0.30 1.60 0.55 0.45 1.45 -1.05 0.80 -1.65 0.85 -2.55 0.25z"/>
  <path d="M30 26.75 c0 -0.90 0.25 -1.25 1 -1.25 1.20 0 1.40 1.75 0.20 2.20 -1.15 0.45 -1.20 0.40 -1.20 -0.95z"/>
 </g>
 <g fill="#311210">
  <path d="M19.50 30.25 c0 -1.40 0.20 -1.75 1 -1.75 1.05 0 1.20 0.50 0.70 2.40 -0.50 1.80 -1.70 1.35 -1.70 -0.65z"/>
  <path d="M1 29.85 c0 -0.70 0.25 -1.45 0.50 -1.60 0.30 -0.15 0.50 -0.75 0.50 -1.30 0 -0.75 0.35 -0.95 1.75 -0.95 2.05 0 2.45 1.20 0.55 1.70 -0.70 0.15 -1.35 0.75 -1.55 1.25 -0.15 0.55 -0.60 1.25 -1 1.55 -0.65 0.50 -0.75 0.40 -0.75 -0.65z"/>
  <path d="M6.10 22.75 c0.25 -1.90 0.15 -2.25 -0.60 -2.25 -1.05 0 -0.85 -1.60 0.35 -2.55 0.60 -0.55 0.65 -0.40 0.40 0.70 -0.25 0.85 -0.15 1.35 0.20 1.35 0.30 0 0.55 -0.45 0.55 -1 0 -0.50 0.45 -1.20 1 -1.50 1 -0.55 1.20 -0.20 1.15 1.90 -0.05 0.30 0.50 0.60 1.15 0.60 1.05 0 1.20 0.25 1.20 1.75 0 1.20 -0.20 1.65 -0.65 1.45 -0.35 -0.10 -1.10 0.20 -1.60 0.80 -0.50 0.55 -1.45 1 -2.15 1 -1.15 0 -1.20 -0.10 -1 -2.25z"/>
  <path d="M14.50 9.75 c0 -0.90 2.80 -4.10 3.20 -3.70 0.40 0.35 -2.20 4.45 -2.80 4.45 -0.20 0 -0.40 -0.35 -0.40 -0.75z"/>
  <path d="M18 8.50 c0 -0.75 2.90 -3.80 3.25 -3.40 0.20 0.20 -0.30 1.15 -1.10 2.10 -1.40 1.80 -2.15 2.25 -2.15 1.30z"/>
  <path d="M22 7.30 c0 -0.70 2.50 -3.45 2.85 -3.10 0.30 0.30 -2 3.80 -2.45 3.80 -0.25 0 -0.40 -0.30 -0.40 -0.70z"/>
  <path d="M26.60 5 c0.65 -1.05 1.85 -1.70 2.30 -1.25 0.40 0.40 -1.45 2.25 -2.25 2.25 -0.55 0 -0.55 -0.20 -0.05 -1z"/>
 </g>
 <g fill="#0b1f36">
  <path d="M21.20 36.55 c1.05 -1.15 1.30 -1.30 1.30 -0.55 0 0.25 -0.50 0.75 -1.10 1.05 -1.15 0.60 -1.15 0.60 -0.20 -0.50z"/>
  <path d="M14.75 33.75 c0.20 -0.55 0.50 -1.40 0.60 -1.85 0.15 -0.50 0.55 -0.90 0.90 -0.90 0.40 0 0.85 -0.50 1.05 -1.10 0.20 -0.65 0.55 -1.30 0.85 -1.45 0.50 -0.35 -2.05 -3.95 -2.75 -3.95 -0.25 0 -0.40 0.55 -0.40 1.20 0 0.70 -0.55 1.85 -1.20 2.65 -0.95 1.15 -1.65 1.45 -3.55 1.55 -2.05 0.05 -2.25 0 -1.75 -0.65 0.35 -0.40 0.90 -0.75 1.25 -0.75 0.95 0 2.30 -1.80 2 -2.60 -0.20 -0.50 0.20 -1.20 1 -1.80 0.85 -0.65 1.10 -1.15 0.70 -1.35 -0.30 -0.20 -1.10 0.25 -1.75 1 -0.65 0.80 -1.35 1.25 -1.55 1.05 -0.20 -0.20 -0.05 -0.60 0.35 -0.85 0.55 -0.40 0.60 -0.60 0.15 -0.80 -0.40 -0.15 -0.55 -0.70 -0.35 -1.45 0.30 -1.10 0.15 -1.20 -1.50 -1.20 -2.10 0 -2.30 -0.75 -0.80 -2.55 0.80 -1 0.95 -1.05 1 -0.30 0 1.40 0.65 1 2.75 -1.65 1.10 -1.35 2.15 -2.50 2.30 -2.50 0.40 0 0.95 2.60 0.95 4.30 0 0.95 -0.25 1.20 -1.30 1.20 -0.70 0 -1.60 0.35 -2 0.75 -0.70 0.65 -0.65 0.75 0.50 0.75 0.70 0 1.30 -0.20 1.30 -0.50 0 -0.25 0.80 -0.50 1.75 -0.50 1.20 0 1.75 -0.25 1.75 -0.75 0 -0.50 0.55 -0.75 1.75 -0.75 1.20 0 1.75 0.25 1.75 0.75 0 0.40 0.25 0.75 0.50 0.75 0.30 0 0.50 0.35 0.50 0.80 0 0.65 0.30 0.50 1.25 -0.50 0.70 -0.75 1.25 -1.80 1.25 -2.35 0 -0.75 -0.35 -0.95 -1.75 -0.95 -1.65 0 -1.75 -0.10 -1.75 -1.75 0 -1.65 0.10 -1.75 1.75 -1.75 1.55 0 1.75 0.15 1.80 1.40 0 0.75 0.15 1.05 0.30 0.75 0.10 -0.35 1.10 -0.65 2.15 -0.65 1.60 0 1.95 0.20 2.15 1.15 0.20 0.95 0.20 0.90 0.30 -0.25 0.05 -1.25 -0.15 -1.40 -1.45 -1.40 -1.40 0 -1.50 -0.15 -1.50 -1.75 0 -1.65 0.10 -1.75 1.75 -1.75 1.60 0 1.75 0.10 1.75 1.50 0 1.35 0.15 1.50 1.65 1.50 0.85 0 2.05 0.35 2.55 0.75 0.55 0.40 1.40 0.75 1.90 0.75 0.90 0 1.90 1.40 1.90 2.70 0 0.45 -0.35 0.80 -0.75 0.80 -0.50 0 -0.75 0.55 -0.75 1.75 0 1.60 -0.15 1.75 -1.45 1.75 -1.50 0 -2 -0.80 -2.30 -3.55 -0.05 -0.75 -0.40 -1.75 -0.70 -2.25 -0.50 -0.80 -0.55 -0.55 -0.45 1.45 0.15 1.90 0 2.35 -0.65 2.35 -0.60 0 -0.80 0.30 -0.60 1 0.15 0.55 0.70 1 1.20 1 0.55 0 0.90 0.15 0.85 0.40 0 0.20 0.10 0.75 0.30 1.20 0.60 1.35 -0.35 3.65 -1.60 3.80 -0.60 0.10 -1.10 0.40 -1.10 0.65 0 0.60 -3.10 1.85 -3.85 1.55 -1.25 -0.45 -0.60 -1.45 1.35 -2.25 1.80 -0.70 2 -0.95 2 -2.55 0 -1.75 -0.75 -2.35 -1.70 -1.45 -0.45 0.45 -5.30 1.60 -5.30 1.30 0 -0.15 0.50 -0.70 1.15 -1.20 l1.10 -1 -1.25 0.35 c-0.70 0.15 -1.35 0.40 -1.45 0.50 -0.10 0.10 -0.25 2 -0.30 4.20 -0.10 4.65 -0.70 5.75 -2.95 5.30 -1.10 -0.25 -1.80 -0.05 -2.70 0.80 -1.15 1.05 -1.25 1.10 -0.85 0.15z m14.25 -12.35 c0 -0.70 -2.40 -4.85 -2.65 -4.55 -0.15 0.15 0.05 0.80 0.45 1.45 0.80 1.15 0.55 3.20 -0.35 3.20 -0.25 0 -0.45 0.30 -0.45 0.70 0 0.60 0.25 0.60 1.50 0.15 0.85 -0.30 1.50 -0.75 1.50 -0.95z m-9 -1.10 c0 -0.35 -0.40 -1 -0.85 -1.35 -0.75 -0.60 -0.80 -0.60 -0.50 0.20 0.20 0.50 0.35 1.15 0.35 1.40 0 0.25 0.25 0.45 0.50 0.45 0.30 0 0.50 -0.30 0.50 -0.70z"/>
  <path d="M26.50 34.05 c0 -0.50 2.50 -2.05 3.25 -2.05 0.20 0 0.25 0.50 0.15 1.15 -0.10 0.85 -0.55 1.15 -1.75 1.25 -0.90 0.10 -1.65 -0.05 -1.65 -0.35z"/>
  <path d="M13 32.55 c0 -0.50 1.50 -1.20 1.85 -0.85 0.15 0.15 0.10 0.45 -0.10 0.75 -0.40 0.65 -1.75 0.75 -1.75 0.10z"/>
  <path d="M32.50 32.30 c0 -0.40 -0.45 -0.80 -1.05 -0.90 -0.90 -0.15 -0.85 -0.30 0.75 -1.85 1.65 -1.60 1.80 -1.65 1.80 -0.65 0 0.80 0.30 1.10 1.05 1.10 1.25 0 0.90 0.60 -1.05 2 -1.20 0.85 -1.50 0.90 -1.50 0.30z"/>
  <path d="M1.40 28.65 c0.70 -0.30 0.80 -2.15 0.10 -2.15 -0.80 0 -0.55 -1.35 0.30 -1.70 0.85 -0.35 2.20 0.75 2.20 1.85 0 0.90 -1.60 2.35 -2.55 2.30 -0.50 0 -0.50 -0.10 -0.05 -0.30z"/>
  <path d="M5.50 24.55 c0 -0.30 -0.55 -0.55 -1.25 -0.55 -0.70 0 -1.25 -0.10 -1.25 -0.20 0 -0.10 0.60 -1.40 1.35 -2.90 l1.35 -2.65 0.45 1.60 c0.30 1.05 0.85 1.65 1.55 1.75 0.80 0.10 1.05 0.50 1.05 1.65 0 1.35 -0.20 1.50 -1.60 1.65 -0.95 0.10 -1.65 -0.05 -1.65 -0.35z"/>
  <path d="M16 12.50 c0 -0.25 0.20 -0.50 0.50 -0.50 0.25 0 0.65 -0.60 0.80 -1.35 0.50 -2 1.80 -4.15 2.55 -4.15 0.45 0 0.35 0.50 -0.35 1.65 -0.70 1.15 -0.90 2.05 -0.70 3.25 0.30 1.55 0.25 1.60 -1.25 1.60 -0.85 0 -1.55 -0.20 -1.55 -0.50z"/>
  <path d="M14 10.55 c0 -0.55 2.05 -3.15 2.30 -2.90 0.45 0.45 -0.95 3.35 -1.60 3.35 -0.40 0 -0.70 -0.20 -0.70 -0.45z"/>
  <path d="M20.50 10.75 c0 -0.85 1.55 -3.75 1.95 -3.75 0.70 0 0.70 0.80 0.05 2.05 -0.45 0.75 -0.35 0.95 0.25 0.95 0.45 0 0.65 0.25 0.50 0.50 -0.30 0.50 -2.75 0.70 -2.75 0.25z"/>
  <path d="M25 8.15 c0.05 -1.15 1.30 -2.80 1.95 -2.60 0.30 0.15 0.20 0.80 -0.30 1.85 -0.85 1.75 -1.65 2.10 -1.65 0.75z"/>
 </g>
 <g fill="#091754">
  <path d="M27 34 c0 -0.80 0.35 -1 1.50 -1 1 0 1.50 -0.25 1.50 -0.75 0 -0.45 0.45 -0.75 1.20 -0.75 0.95 0 1.25 -0.30 1.40 -1.35 0.10 -0.80 0.60 -1.60 1.20 -1.90 2.45 -1.20 3.45 -3.80 2.65 -7 -0.30 -1.30 -0.35 -1.20 -0.40 0.90 -0.05 1.65 -0.25 2.35 -0.75 2.35 -0.35 0 -0.80 -0.40 -1 -0.85 -0.15 -0.50 -0.75 -1.65 -1.30 -2.55 -1.05 -1.75 -0.90 -2.85 0.30 -2.40 1.10 0.45 0.80 -1 -0.55 -2.60 -0.70 -0.85 -1.25 -1.85 -1.25 -2.30 0 -0.45 -0.20 -0.80 -0.45 -0.80 -0.25 0 -0.60 -0.40 -0.70 -0.85 -0.20 -0.70 -0.25 -0.60 -0.30 0.25 -0.05 0.90 -0.35 1.10 -1.80 1.10 -1.65 0 -1.75 -0.10 -1.75 -1.75 0 -1.40 0.25 -1.80 1.15 -2 1.70 -0.45 3.60 0.45 6.40 3.10 3.70 3.45 4.65 5.80 4.60 10.95 -0.05 4.20 -2.75 7.55 -8.10 10.15 -2.80 1.30 -3.55 1.35 -3.55 0.05z"/>
  <path d="M16.55 33.15 c-0.50 -0.55 -0.45 -0.80 0.15 -1.45 0.45 -0.40 0.80 -1.20 0.80 -1.70 0 -0.50 0.35 -1.05 0.75 -1.20 0.60 -0.20 0.70 -0.50 0.25 -1.25 -1 -1.90 -0.40 -6.35 0.80 -6 0.75 0.20 0.85 -1.55 0.10 -2.40 -0.60 -0.70 -0.70 -0.65 -0.95 0.65 -0.35 1.40 -0.35 1.40 -0.70 0.35 -0.40 -1.30 -1.75 -1.55 -1.75 -0.40 0 0.40 0.35 0.75 0.80 0.75 0.60 0 0.70 0.45 0.60 1.90 -0.15 1.60 -0.30 1.85 -1.25 1.75 -0.95 -0.10 -1.15 0.10 -1.15 1.25 0 1.90 -1.30 3.60 -2.80 3.60 -1.60 0 -1.50 -0.50 0.30 -2.25 1.60 -1.55 2.10 -2.95 0.55 -1.55 -0.60 0.55 -1.05 0.70 -1.30 0.35 -0.15 -0.30 0.25 -0.80 0.95 -1.15 1.55 -0.70 1.60 -1.10 0.25 -2.05 -0.55 -0.40 -0.95 -1.05 -0.90 -1.40 0.05 -0.40 -0.15 -1.30 -0.55 -2.05 -0.80 -1.65 -0.40 -2.75 1.25 -3.50 1.05 -0.45 1.40 -0.45 1.90 0.25 0.50 0.70 0.70 0.70 1.25 0.05 0.55 -0.60 0.45 -0.70 -0.40 -0.70 -0.85 0 -1 -0.30 -0.95 -1.85 0.05 -1.05 0.15 -1.50 0.30 -1 0.20 0.75 0.30 0.80 1.30 0.10 1.55 -1.05 1.85 -0.95 1.85 0.75 0 1.15 0.20 1.50 1 1.50 0.55 0 1 -0.35 1 -0.75 0 -0.50 0.55 -0.75 1.75 -0.75 1.65 0 1.75 0.10 1.75 1.70 0 1.55 -0.15 1.75 -1.50 1.90 l-1.50 0.15 1.25 1.45 c0.70 0.80 1.25 1.85 1.25 2.35 0 0.45 0.30 0.95 0.65 1.10 0.35 0.10 0 0.50 -0.75 0.85 -1.55 0.75 -1.50 0.65 -1.70 4.50 -0.05 1.50 -0.10 3.25 -0.15 3.85 -0.05 1.55 -3.55 3.30 -4.50 2.30z m0.15 -10.50 c-0.30 -1.10 -1.70 -2.05 -1.70 -1.15 0 0.30 0.25 0.50 0.55 0.50 0.25 0 0.35 0.25 0.15 0.55 -0.15 0.30 0 0.75 0.35 1 0.85 0.50 0.95 0.40 0.65 -0.90z m3.80 0.90 c0 -0.60 -1 -1.25 -1.35 -0.90 -0.35 0.35 0.30 1.35 0.90 1.35 0.25 0 0.45 -0.20 0.45 -0.45z"/>
  <path d="M25.80 29.65 c-0.70 -0.70 -0.20 -1.60 1.15 -2.05 1.75 -0.60 2.60 -2 2.20 -3.50 -0.30 -1.15 -1.35 -1.45 -1.90 -0.60 -0.20 0.30 -0.75 0.40 -1.25 0.25 -0.50 -0.15 -1.05 -0.05 -1.25 0.25 -0.15 0.25 -0.90 0.50 -1.65 0.50 -1.30 -0.05 -1.30 -0.05 -0.35 -0.65 0.55 -0.30 2.15 -0.80 3.50 -1.10 2.20 -0.45 2.50 -0.65 2.45 -1.75 -0.05 -0.65 0.50 -1.75 1.10 -2.45 1.20 -1.25 1.20 -1.25 1.20 -0.20 0 0.60 0.25 1.25 0.55 1.40 0.30 0.20 0.45 0.95 0.40 1.65 -0.10 0.75 0 1.65 0.25 2 0.50 0.80 -0.05 3.35 -0.85 4.05 -1.05 0.85 -5.25 2.50 -5.55 2.20z"/>
  <path d="M2.50 26.80 c0 -1.15 0.25 -1.95 0.75 -2.10 0.40 -0.20 0.75 -0.65 0.75 -1.05 0 -0.60 0.40 -0.70 2 -0.50 1.60 0.20 2 0.10 1.90 -0.50 -0.10 -0.55 0.40 -0.80 1.70 -0.90 5 -0.50 1.20 4.30 -4.35 5.55 -0.80 0.20 -1.80 0.55 -2.10 0.85 -0.50 0.35 -0.65 0.05 -0.65 -1.35z m6.75 -1.90 c1.60 -1.05 2.25 -1.95 1.40 -1.90 -0.50 0.05 -3.95 3 -3.50 3 0.20 0 1.15 -0.50 2.10 -1.10z"/>
  <path d="M21.55 10.40 c0 -0.90 0.15 -1.35 0.30 -1 0.30 0.75 1.75 0.80 2.55 0 0.45 -0.45 0.60 -0.25 0.60 1 0 1.50 -0.10 1.60 -1.75 1.60 -1.65 0 -1.75 -0.10 -1.70 -1.60z"/>
 </g>
 <g fill="#14304a">
  <path d="M22.50 35.80 c0 -0.60 1.85 -1.55 4.15 -2.10 1 -0.20 1.35 -0.10 1.35 0.40 0 0.45 -1.05 1 -2.75 1.50 -1.90 0.55 -2.75 0.60 -2.75 0.20z"/>
  <path d="M14.80 33.30 c0.20 -0.55 0 -0.65 -0.90 -0.50 l-1.15 0.30 1.20 -1.05 c0.65 -0.60 1.70 -1.05 2.35 -1.05 0.95 0 1.20 -0.25 1.20 -1.30 0 -0.70 0.20 -1.15 0.45 -0.95 1 0.60 1.05 -0.80 0.05 -1.60 -0.60 -0.50 -1.30 -1.40 -1.55 -2 -0.60 -1.60 -1.45 -1.40 -1.45 0.30 0 1.70 -1.45 3.70 -2.80 3.80 -0.50 0.05 -1.60 0.30 -2.40 0.50 -1.10 0.30 -1.40 0.25 -1.20 -0.30 0.15 -0.40 0.65 -0.80 1.20 -0.90 0.50 -0.05 1.35 -0.50 1.85 -0.95 0.45 -0.40 0.85 -0.60 0.85 -0.35 0 0.95 1.45 -0.95 1.75 -2.30 0.45 -1.95 1 -2.20 2.25 -0.95 1.15 1.15 1.20 1.05 0.40 -0.85 -0.75 -1.70 -1.50 -2.30 -1.95 -1.55 -0.20 0.30 -0.90 0.55 -1.65 0.55 -0.80 0 -1.30 0.25 -1.30 0.65 0 0.50 -0.35 0.65 -1.20 0.40 -0.90 -0.20 -1.35 -0.05 -1.80 0.75 -0.55 1.10 -2 1.45 -2 0.50 0 -0.85 1.35 -1.95 2.45 -1.95 0.60 0 1.05 -0.25 1.05 -0.55 0 -0.40 -0.55 -0.45 -1.60 -0.25 -0.90 0.20 -2.40 0.50 -3.25 0.65 l-1.65 0.30 0.60 -1.70 c0.70 -2.20 0.85 -2.30 1.45 -1.45 0.40 0.55 0.60 0.60 0.80 0.15 0.10 -0.35 0.70 -1.15 1.25 -1.75 l1 -1.15 -0.30 1.15 c-0.15 0.90 -0.05 1.10 0.55 0.90 0.40 -0.15 0.85 -0.30 0.95 -0.30 0.10 0 0.20 -0.30 0.20 -0.70 0 -0.40 0.50 -1.15 1.15 -1.65 1.30 -1.10 2.35 -2.80 2.35 -3.90 0 -0.40 0.25 -0.75 0.50 -0.75 0.30 0 0.50 0.35 0.50 0.75 0 0.70 0.15 0.65 1.25 -0.05 0.70 -0.45 1.25 -1.15 1.25 -1.50 0 -0.85 0.85 -0.95 1.10 -0.10 0.40 1.10 2 -0.10 2.75 -2.10 0.45 -1.10 1.10 -2 1.45 -2 0.70 0 0.45 1.20 -0.45 2.40 -0.40 0.50 -0.35 0.80 0.20 1.15 0.50 0.30 1 0.10 1.80 -0.80 1.40 -1.55 1.65 -1.55 1.65 0 0 1.05 0.25 1.25 1.50 1.25 1.40 0 1.50 0.10 1.50 2 0 1.45 -0.20 2 -0.75 2 -0.40 0 -0.75 0.35 -0.75 0.75 0 0.45 0.45 0.75 1.25 0.75 1 0 1.25 -0.25 1.25 -1.30 0 -1.15 0.15 -1.25 1.85 -1.10 1.50 0.10 2.10 0.50 3.05 1.90 0.65 0.95 1.50 1.70 1.85 1.60 0.75 -0.15 1.90 4.50 1.65 6.75 -0.10 1.10 -0.45 1.45 -1.50 1.55 -1.25 0.15 -1.40 0 -1.40 -1.35 0 -0.85 -0.20 -1.55 -0.45 -1.55 -0.25 0 -0.55 -1.15 -0.75 -2.55 -0.35 -2.55 -2.35 -5.30 -3.40 -4.65 -0.55 0.35 0 4.70 0.70 5.55 0.30 0.35 0.40 0.95 0.25 1.35 -0.15 0.35 -0.05 0.90 0.25 1.20 1.50 1.50 -1.35 5.10 -4.05 5.10 -1.35 0 -1.30 -0.20 0.15 -1.65 1.05 -1.05 1.15 -1.55 0.95 -3.65 -0.15 -1.35 -0.70 -3.20 -1.20 -4.10 -0.55 -0.90 -0.95 -2 -0.95 -2.40 0 -0.95 -0.80 -0.90 -1.20 0.10 -0.45 1.15 -0.35 1.80 0.20 1.45 0.75 -0.45 1.20 2.15 0.50 3 -0.80 0.95 -1.70 0.95 -1.30 0 0.40 -1.10 -0.20 -0.90 -1.50 0.50 -1.40 1.55 -3.50 1.75 -2.75 0.30 0.40 -0.70 0.30 -1.20 -0.45 -2.05 -0.55 -0.65 -1 -1.45 -1 -1.85 0 -0.35 -0.20 -0.65 -0.40 -0.65 -0.25 0 -0.45 -0.80 -0.50 -1.75 -0.05 -1.70 0 -1.75 1.70 -1.75 0.95 0 1.65 0.20 1.50 0.40 -0.10 0.20 -0.05 0.70 0.15 1 0.40 0.65 2.05 0.30 2.05 -0.45 0 -0.25 0.35 -0.45 0.75 -0.45 0.50 0 0.75 -0.50 0.75 -1.50 0 -1.40 -0.10 -1.45 -1.60 -1.15 -0.90 0.15 -2.05 0.50 -2.50 0.70 -0.45 0.25 -1.50 0.45 -2.35 0.45 -1.20 0 -1.55 0.20 -1.55 1 0 0.70 -0.35 1 -1.20 1 -1.20 0 -2.20 1.40 -1.40 1.95 0.25 0.15 0.60 0.80 0.80 1.45 0.20 0.60 0.70 1.10 1.10 1.10 0.40 0 0.70 0.25 0.70 0.55 0 0.25 0.20 0.40 0.45 0.25 0.25 -0.15 0.55 0.20 0.70 0.75 0.15 0.60 0.50 0.90 0.80 0.70 0.30 -0.15 0.55 -0.05 0.55 0.20 0 0.30 -0.20 0.55 -0.50 0.55 -0.80 0 -0.55 0.95 0.50 1.85 1.05 0.90 1.20 2.10 0.70 5.85 -0.25 1.75 -0.55 2.30 -1.25 2.30 -0.50 0 -1.05 0.25 -1.20 0.50 -0.20 0.30 -0.75 0.40 -1.25 0.25 -0.50 -0.15 -1.05 -0.05 -1.25 0.25 -0.45 0.75 -1.25 0.60 -0.95 -0.20z m5 -5.35 c0.05 -2.35 0.05 -2.40 -0.15 -0.45 -0.10 1.20 -0.50 2.55 -0.80 2.95 -0.50 0.55 -0.45 0.65 0.15 0.45 0.55 -0.15 0.75 -1 0.80 -2.95z m11.10 -4 c-0.25 -0.80 -0.35 -1.80 -0.20 -2.20 0.15 -0.40 0.05 -0.75 -0.20 -0.75 -0.25 0 -0.40 1.20 -0.35 2.70 0.10 2 0.25 2.60 0.70 2.25 0.40 -0.40 0.45 -0.90 0.05 -2z"/>
  <path d="M31.40 30.45 c0.85 -0.80 1.95 -2.15 2.35 -3 1.05 -1.95 1.75 -1.85 1.75 0.25 0 1.10 -0.30 1.80 -0.80 2 -0.45 0.20 -0.70 0.45 -0.55 0.60 0.60 0.65 -1.15 1.70 -2.75 1.70 l-1.65 0 1.65 -1.55z"/>
  <path d="M11.80 25.55 c-0.20 -0.25 0.15 -0.75 0.75 -1.05 1.40 -0.75 1.70 -0.35 0.50 0.70 -0.60 0.55 -1.05 0.65 -1.25 0.35z"/>
  <path d="M23 23.85 c0.75 -0.40 2.20 -0.80 3.25 -1 1.70 -0.20 1.80 -0.20 0.75 0.25 -0.70 0.25 -1.65 0.70 -2.10 0.95 -0.50 0.25 -1.40 0.45 -2 0.45 -1.10 0 -1.10 0 0.10 -0.65z"/>
 </g>
 <g fill="#04605a">
  <path d="M32.50 30.75 c0 -0.40 0.45 -1.60 1 -2.60 0.65 -1.20 1 -2.85 1 -4.50 l0 -2.65 2.05 0 2.10 0 -0.35 3.05 c-0.35 3.65 -2.70 7.45 -4.65 7.45 -0.70 0 -1.15 -0.30 -1.15 -0.75z"/>
  <path d="M23.60 23.80 c0.50 -0.60 3.90 -1.25 3.90 -0.75 0 0.25 -0.55 0.45 -1.20 0.45 -0.65 0 -1.65 0.15 -2.15 0.35 -0.50 0.15 -0.75 0.15 -0.55 -0.05z"/>
  <path d="M4.80 20.65 c0.40 -1.70 1.20 -2.70 1.20 -1.50 0 0.45 0.25 0.85 0.50 0.85 0.30 0 0.50 -0.20 0.50 -0.50 0 -0.25 0.25 -0.50 0.50 -0.50 0.30 0 0.50 0.70 0.50 1.50 0 1.40 -0.15 1.50 -1.75 1.50 -1.65 0 -1.75 -0.05 -1.45 -1.35z"/>
  <path d="M21.25 21 c-0.20 -0.30 0.35 -0.50 1.20 -0.50 0.85 0 1.55 0.25 1.55 0.50 0 0.30 -0.55 0.50 -1.20 0.50 -0.70 0 -1.40 -0.20 -1.55 -0.50z"/>
  <path d="M34.50 18 c0 -2.20 0.30 -2.45 1.30 -1.10 0.65 0.80 0.70 0.80 0.40 0 -0.15 -0.50 -0.10 -0.90 0.20 -0.90 0.45 0 1.60 2.55 1.60 3.55 0 0.80 -0.95 0.45 -1.15 -0.40 -0.20 -0.85 -0.25 -0.85 -0.30 0 -0.05 0.50 -0.45 0.85 -1.05 0.85 -0.85 0 -1 -0.35 -1 -2z"/>
  <path d="M18.55 16.65 c0.50 -0.55 0.50 -0.70 0.10 -0.45 -0.45 0.25 -0.65 -0.05 -0.65 -0.90 0 -1.15 0.20 -1.30 1.75 -1.30 1.65 0 1.75 0.10 1.75 1.75 0 1.70 -0.05 1.75 -1.80 1.75 -1.65 0 -1.75 -0.10 -1.15 -0.85z"/>
  <path d="M13.25 14.65 c0.25 -0.50 0.55 -1.70 0.70 -2.65 0.35 -2.10 1.35 -3.90 1.85 -3.35 0.20 0.20 0.10 0.90 -0.20 1.60 -0.85 1.90 -0.75 3.25 0.30 3.25 0.65 0 0.70 -0.10 0.15 -0.45 -0.55 -0.35 -0.45 -0.55 0.40 -1 0.55 -0.35 1.05 -1.05 1.05 -1.60 0 -1.25 0.85 -2.95 1.50 -2.95 0.25 0 0.20 0.65 -0.10 1.55 -0.75 2.10 0.15 2.90 1.55 1.40 0.55 -0.65 1.05 -1.30 1.05 -1.55 0 -0.20 0.20 -0.40 0.50 -0.40 0.25 0 0.35 0.30 0.20 0.70 -0.15 0.40 -0.05 0.85 0.20 1 1 0.60 2 -0.30 2.85 -2.50 0.80 -2.15 1.55 -3.05 2.05 -2.55 0.15 0.15 -0.10 0.95 -0.50 1.80 -1.10 2.10 -1.05 2.40 0.95 2.75 1.55 0.30 1.75 0.55 1.75 1.85 0 1.95 -1 2.95 -2.95 2.95 -1.40 0 -1.55 -0.15 -1.55 -1.55 0 -1.20 -0.15 -1.50 -0.80 -1.25 -0.45 0.15 -1.45 0.30 -2.25 0.30 -0.95 0 -1.45 0.25 -1.45 0.75 0 0.50 -0.55 0.75 -1.75 0.75 -1.40 0 -1.75 0.20 -1.75 1 0 0.85 -0.35 1 -2.05 1 -1.75 0 -2 -0.10 -1.70 -0.85z"/>
 </g>
 <g fill="#203e64">
  <path d="M21.50 36.25 c0.35 -0.45 1.45 -1.10 2.45 -1.55 1 -0.45 2.35 -1.05 3.05 -1.35 0.70 -0.30 1.85 -1 2.65 -1.50 l1.35 -0.90 0 1.50 c0 1.20 -0.20 1.55 -0.95 1.55 -0.55 0 -1.15 0.25 -1.30 0.50 -0.15 0.30 -0.90 0.50 -1.65 0.50 -0.75 0 -2.35 0.45 -3.55 1 -2.60 1.20 -2.85 1.25 -2.05 0.25z"/>
  <path d="M15.05 33.20 c0.55 -0.65 0.45 -0.70 -0.70 -0.45 -1.80 0.45 -1.70 -0.05 0.15 -1 1.90 -1 3.20 -1 2.80 0.05 -0.20 0.55 0.10 0.50 1.20 -0.30 1.35 -0.95 1.50 -1.35 1.50 -3.65 -0.05 -2.35 -0.10 -2.50 -0.65 -1.45 l-0.65 1.10 -1.10 -1 c-1.30 -1.20 -1.40 -1.75 -0.35 -1.30 0.95 0.35 0.95 0.15 -0.25 -2.20 -1 -2 -1.65 -2.45 -2.25 -1.50 -0.15 0.30 -0.85 0.50 -1.55 0.50 -0.75 0 -1.20 0.30 -1.20 0.80 0 0.55 -0.25 0.70 -0.80 0.50 -0.45 -0.15 -1 -0.30 -1.25 -0.30 -0.30 0 -0.40 -0.45 -0.20 -0.95 0.20 -0.70 0 -1.15 -0.75 -1.55 -1 -0.50 -1.45 -3 -0.55 -3 0.20 0 0.30 0.60 0.20 1.35 l-0.25 1.40 1.20 -1.45 c0.60 -0.75 1.90 -2.20 2.80 -3.20 0.85 -1 1.60 -2.20 1.60 -2.65 0 -0.50 0.25 -1.05 0.55 -1.25 0.45 -0.25 0.50 0.05 0.25 1 -0.35 1.40 -0.05 1.60 1.20 0.80 0.55 -0.35 0.55 -0.50 0.10 -0.50 -1.30 0 0 -1 1.30 -1 0.75 0 1.80 -0.35 2.30 -0.75 0.55 -0.40 1.60 -0.75 2.40 -0.75 0.75 0 1.90 -0.50 2.50 -1.10 0.85 -0.85 1 -0.90 0.75 -0.20 -0.30 0.75 -0.15 0.85 0.85 0.60 1.70 -0.40 4.30 0.20 4.30 1 0 0.40 0.50 0.70 1.15 0.70 0.65 0 1.90 0.80 3 1.90 1.75 1.80 1.85 2.05 1.55 4.25 -0.40 2.85 -1.35 3.05 -2.10 0.50 -0.95 -3.15 -3.75 -4.10 -3.60 -1.25 0.15 2.05 0.05 2.40 -0.55 1.60 -0.40 -0.60 -0.45 -0.55 -0.25 0.30 0.20 0.55 0.35 2.55 0.35 4.35 0.05 2.85 0.15 3.30 0.75 2.80 0.45 -0.40 0.60 -1 0.35 -1.65 -0.60 -1.85 -0.60 -3.85 0 -3.65 0.35 0.10 0.65 0.75 0.70 1.40 0.05 0.65 0.15 1.55 0.20 1.95 0.35 2.30 -0.10 2.95 -2.95 4.35 -2.80 1.40 -4.10 1.60 -4.10 0.60 0 -0.30 0.85 -0.85 1.90 -1.30 1 -0.40 2 -1 2.20 -1.35 1 -1.45 -1.60 -10.25 -2.95 -10.30 -0.35 0 -0.65 0.35 -0.65 0.80 0 0.40 -0.20 0.65 -0.45 0.50 -0.20 -0.15 -0.30 0.30 -0.15 1 0.20 1.20 0.10 1.30 -0.95 0.95 -1 -0.30 -1.10 -0.25 -0.60 0.30 1 1.05 0.75 1.95 -0.55 1.95 -0.70 0 -1.60 -0.60 -2.30 -1.50 -1.70 -2.20 -2.20 -1.90 -1.80 1.15 0.25 1.90 0.65 2.85 1.50 3.45 1 0.75 1.10 1.20 0.95 3.75 -0.20 3.65 -0.40 4.15 -1.60 4.15 -0.55 0 -1.15 0.25 -1.30 0.50 -0.20 0.30 -0.75 0.40 -1.25 0.25 -0.50 -0.15 -1.05 -0.05 -1.25 0.25 -0.15 0.25 -0.55 0.50 -0.85 0.50 -0.30 0 -0.25 -0.30 0.15 -0.80z m-1.50 -15.55 c-0.55 -1.05 -1 -1.75 -1.05 -1.55 0 0.60 1.65 3.90 1.90 3.70 0.10 -0.10 -0.30 -1.05 -0.85 -2.15z m4.20 -0.40 l1.50 -1.20 -1.85 0.85 c-1.05 0.45 -1.85 1 -1.90 1.25 0 0.65 0.70 0.35 2.25 -0.90z m17.85 -1.60 c-0.30 -0.50 -1.05 -1.35 -1.65 -1.90 -0.95 -0.80 -0.90 -0.70 0.20 0.65 0.75 0.95 1.35 1.90 1.35 2.20 0 0.30 0.15 0.45 0.30 0.30 0.15 -0.20 0.05 -0.75 -0.20 -1.25z m-13.10 -0.90 c0 -0.50 -0.50 -0.75 -1.50 -0.75 -0.80 0 -1.50 -0.20 -1.50 -0.50 0 -0.25 -0.35 -0.50 -0.75 -0.50 -0.40 0 -0.75 0.35 -0.75 0.75 0 0.50 0.50 0.75 1.50 0.75 0.85 0 1.50 0.25 1.50 0.50 0 0.30 0.35 0.50 0.75 0.50 0.40 0 0.75 -0.35 0.75 -0.75z m5.50 -2.50 c0.35 -0.40 0.40 -0.75 0.10 -0.75 -0.25 0 -0.75 0.35 -1.10 0.75 -0.35 0.40 -0.40 0.75 -0.10 0.75 0.25 0 0.75 -0.35 1.10 -0.75z m-2 -0.15 c0 -0.25 -0.65 -0.35 -1.50 -0.20 -0.80 0.10 -1.50 0.30 -1.50 0.40 0 0.10 0.70 0.20 1.50 0.20 0.85 0 1.50 -0.20 1.50 -0.40z"/>
  <path d="M33 31.35 c0 -0.70 0.20 -1.85 0.50 -2.60 0.40 -1 0.80 -1.25 2 -1.15 0.80 0.05 1.50 0.35 1.50 0.65 -0.05 0.55 -1.80 2.70 -3.10 3.70 -0.80 0.60 -0.90 0.55 -0.90 -0.60z"/>
  <path d="M17.50 29.65 c0 -1 0.15 -1.20 0.45 -0.70 0.35 0.55 0.55 0.50 1 -0.25 0.50 -0.90 0.50 -0.90 0.55 0.15 0 0.60 -0.45 1.35 -1 1.65 -0.90 0.50 -1 0.40 -1 -0.85z"/>
  <path d="M8.50 29.50 c0 -0.15 1.15 -0.80 2.55 -1.45 1.50 -0.65 2.65 -1.50 2.80 -2.05 0.15 -0.55 0.45 -1 0.70 -1 0.80 0 0.50 1.30 -0.70 3 -0.95 1.45 -1.40 1.70 -3.25 1.75 -1.15 0.05 -2.10 -0.10 -2.10 -0.25z"/>
  <path d="M2.15 27.90 c0.10 -0.35 -0.15 -1.05 -0.55 -1.55 -0.70 -0.80 -0.70 -0.95 0.20 -1.55 0.50 -0.40 1.10 -0.60 1.30 -0.50 0.25 0.15 0.40 -0.05 0.40 -0.45 0 -1.50 5.15 -2.45 5.70 -1.10 0.25 0.70 -0.70 1.95 -1.85 2.40 -0.50 0.20 -0.75 0.55 -0.60 0.85 0.15 0.25 -0.35 0.75 -1.10 1.05 -0.75 0.30 -1.80 0.75 -2.25 1 -1.20 0.60 -1.50 0.55 -1.25 -0.15z"/>
  <path d="M34.50 23 c0 -1.80 0.15 -2 1.25 -2 1.30 0 1.75 1.25 0.65 1.65 -0.50 0.15 -0.50 0.35 -0.05 0.95 0.75 0.85 0.35 1.40 -0.95 1.40 -0.70 0 -0.90 -0.40 -0.90 -2z"/>
  <path d="M23.25 23.80 c0.85 -0.35 2.30 -0.80 3.25 -0.95 1.60 -0.30 1.65 -0.25 0.85 0.35 -0.55 0.40 -1.25 0.60 -1.60 0.50 -0.35 -0.15 -0.80 -0.05 -1 0.25 -0.15 0.30 -0.90 0.55 -1.65 0.55 l-1.35 -0.05 1.50 -0.65z"/>
  <path d="M25.50 19.80 c0 -0.40 0.25 -0.90 0.50 -1.05 0.30 -0.15 0.50 0.15 0.50 0.70 0 0.60 -0.20 1.05 -0.50 1.05 -0.25 0 -0.50 -0.30 -0.50 -0.70z"/>
 </g>
 <g fill="#132689">
  <path d="M17.50 32.80 c0 -0.35 0.55 -1.05 1.25 -1.50 1.10 -0.75 1.25 -1.15 1.25 -3.85 0 -2.55 0.10 -3 0.70 -2.50 0.45 0.40 0.60 1.30 0.45 2.95 -0.30 3.25 -0.65 4.75 -1 4.40 -0.20 -0.15 -0.85 0.05 -1.50 0.45 -0.95 0.65 -1.15 0.65 -1.15 0.05z"/>
  <path d="M31 32.30 c0 -1.15 1.85 -3.30 2.90 -3.30 0.35 0 0.45 0.35 0.25 0.90 -0.30 0.75 -0.25 0.75 0.50 0.15 0.55 -0.40 0.75 -1.05 0.55 -1.80 -0.15 -0.65 -0.05 -1.30 0.25 -1.45 0.30 -0.20 0.55 0 0.55 0.45 0 0.45 0.25 0.65 0.50 0.50 0.70 -0.45 -0.35 -2.25 -1.25 -2.25 -0.90 0 -1 -1.55 -0.15 -2.40 0.45 -0.45 0.45 -0.60 -0.15 -0.60 -0.60 0 -0.60 -0.10 0.05 -0.50 1.15 -0.70 -0.65 -5.50 -2.55 -6.80 -0.80 -0.50 -1.45 -1.30 -1.45 -1.75 0 -0.45 -0.45 -0.95 -1 -1.10 -1.30 -0.35 -1.40 -2.35 -0.10 -2.35 0.50 0 2.15 1.15 3.70 2.50 3.50 3.15 4.65 5.80 4.65 10.80 -0.05 3.15 -0.20 3.80 -1.50 5.50 -1.60 2.15 -3.45 3.75 -4.85 4.30 -0.70 0.30 -0.90 0.15 -0.90 -0.80z m6.50 -8.75 c0 -0.60 -1 -1.25 -1.35 -0.90 -0.35 0.35 0.30 1.35 0.90 1.35 0.25 0 0.45 -0.20 0.45 -0.45z m-1 -5.80 c-0.60 -1.80 -2.75 -4.75 -3.50 -4.75 -0.20 0 0.25 0.70 1.05 1.55 0.80 0.85 1.70 2.40 2 3.50 0.35 1.10 0.70 1.85 0.85 1.75 0.10 -0.15 -0.05 -1.05 -0.40 -2.05z"/>
  <path d="M11.25 29 c-0.40 -0.65 0.20 -1.60 0.75 -1.25 0.25 0.15 0.90 -0.35 1.45 -1.05 0.90 -1.15 1.05 -1.20 1.05 -0.40 0 2.10 -2.40 4.05 -3.25 2.70z"/>
  <path d="M28.75 27.45 c0.20 -0.65 0.45 -2.45 0.50 -3.95 0.15 -4.10 0.40 -4.20 0.70 -0.25 l0.30 3.50 1.05 -1.15 1.05 -1.15 -0.20 1.25 c-0.30 1.45 -0.90 2 -2.60 2.55 -1.10 0.35 -1.15 0.25 -0.80 -0.80z"/>
  <path d="M18.85 25.70 c-0.20 -0.20 -0.35 -0.95 -0.30 -1.65 l0 -1.30 0.50 1.20 c0.50 1.30 0.40 2.35 -0.20 1.75z"/>
  <path d="M7.50 24.50 c0 -0.95 1.55 -1.95 3 -1.95 1 0.05 1.05 0.10 0.25 0.30 -0.55 0.15 -1.50 0.70 -2.10 1.30 -0.75 0.65 -1.15 0.80 -1.15 0.35z"/>
  <path d="M31 21.50 c0 -0.95 0.15 -1.05 0.60 -0.60 0.45 0.45 0.45 0.75 0 1.20 -0.45 0.45 -0.60 0.35 -0.60 -0.60z"/>
  <path d="M15.50 15.75 c-0.70 -0.85 -0.25 -2.50 0.55 -1.95 0.40 0.20 0.45 0 0.20 -0.75 -0.30 -1 0.35 -1.40 1.95 -1.10 0.20 0.05 0.95 -0.25 1.60 -0.70 0.65 -0.40 1.50 -0.75 1.95 -0.75 0.90 0 1.75 1.95 1.75 4.05 0 1.25 -0.20 1.45 -1.45 1.45 -0.85 0 -1.65 -0.25 -1.80 -0.50 -0.20 -0.30 -0.60 -0.20 -1.05 0.25 -1 0.95 -2.90 0.95 -3.70 0z"/>
  <path d="M24.75 14.50 c0.15 -0.25 0.05 -0.50 -0.20 -0.50 -0.30 0 -0.55 -0.55 -0.55 -1.25 0 -1.10 0.20 -1.25 1.80 -1.25 1.55 0 1.75 0.10 1.20 0.75 -0.45 0.50 -0.45 0.75 -0.05 0.75 0.30 0 0.55 0.45 0.55 1 0 0.80 -0.35 1 -1.55 1 -0.85 0 -1.40 -0.20 -1.20 -0.50z"/>
 </g>
 <g fill="#7c362f">
  <path d="M1 29.75 c0 -0.95 1.55 -2.75 2.35 -2.75 0.40 0 0.20 0.60 -0.50 1.75 -1.20 1.85 -1.85 2.20 -1.85 1z"/>
  <path d="M1.75 26 c0.15 -0.25 1.15 -0.50 2.15 -0.45 1.50 0 1.65 0.10 0.85 0.45 -1.40 0.60 -3.35 0.60 -3 0z"/>
  <path d="M6.60 22.65 c0.15 -1.90 0.15 -1.90 2.55 -2.05 2.25 -0.15 2.35 -0.10 2.35 1.10 0 0.95 -0.25 1.30 -0.95 1.30 -0.50 0 -1.20 0.35 -1.55 0.75 -0.35 0.40 -1.05 0.75 -1.60 0.75 -0.80 0 -0.95 -0.30 -0.80 -1.85z m2.85 -0.70 c0.55 0 0.60 -0.10 0.15 -0.30 -0.75 -0.30 -2.60 1.20 -2.55 2.05 0 0.30 0.35 0.05 0.80 -0.55 0.40 -0.65 1.15 -1.15 1.60 -1.20z"/>
  <path d="M5 19.60 c0 -0.25 0.35 -0.85 0.80 -1.40 0.70 -0.85 0.75 -0.85 0.50 -0.05 -0.15 0.50 -0.30 1.15 -0.30 1.40 0 0.25 -0.20 0.45 -0.50 0.45 -0.25 0 -0.50 -0.20 -0.50 -0.40z"/>
  <path d="M7 19.55 c0 -0.25 0.45 -0.95 1.05 -1.60 0.80 -0.95 0.95 -1 0.75 -0.30 -0.15 0.50 -0.30 1.25 -0.30 1.65 0 0.40 -0.35 0.70 -0.75 0.70 -0.40 0 -0.75 -0.20 -0.75 -0.45z"/>
  <path d="M16 7.50 c1 -1.45 2 -1.95 2 -1.10 0 0.50 -2.15 2.60 -2.70 2.60 -0.20 0 0.10 -0.65 0.70 -1.50z"/>
  <path d="M19 7 c1.15 -1.60 1.95 -2.25 2.30 -1.85 0.35 0.35 -2.30 3.35 -2.90 3.35 -0.25 0 0 -0.65 0.60 -1.50z"/>
  <path d="M21.50 8 c0 -0.70 3 -4 3.65 -4 0.30 0 0.05 0.50 -0.50 1.15 -0.55 0.60 -1.30 1.60 -1.60 2.25 -0.60 1.10 -1.55 1.50 -1.55 0.60z"/>
  <path d="M25.85 6.55 c0.25 -1.05 2.50 -3.35 2.90 -3 0.30 0.30 -2.30 3.95 -2.80 3.95 -0.20 0 -0.25 -0.45 -0.10 -0.95z"/>
 </g>
 <g fill="#2b5882">
  <path d="M21.75 36.10 c0.55 -0.50 1.60 -1.20 2.40 -1.50 1.10 -0.45 1.35 -0.45 1.35 0.10 0 0.40 -0.65 0.85 -1.50 1.05 -0.80 0.20 -1.60 0.55 -1.75 0.80 -0.20 0.25 -0.55 0.45 -0.90 0.45 -0.30 0 -0.15 -0.40 0.40 -0.90z"/>
  <path d="M27.50 34 c0 -0.55 0.20 -1 0.45 -1 0.20 0 1.40 -0.80 2.60 -1.75 2.45 -1.95 3.20 -2.15 3.65 -0.95 0.45 1.15 -0.25 1.80 -3.40 3.35 -3.30 1.60 -3.30 1.60 -3.30 0.35z"/>
  <path d="M14.90 33.40 c0.85 -0.85 0.75 -1.65 -0.15 -0.90 -0.45 0.35 -0.95 0.50 -1.10 0.30 -0.55 -0.55 0.95 -1.30 2.55 -1.30 l1.45 0 -1.15 1.25 c-0.65 0.70 -1.40 1.25 -1.70 1.25 -0.30 0 -0.25 -0.25 0.10 -0.60z"/>
  <path d="M17 33.05 c0 -0.65 1.45 -1.75 1.85 -1.40 0.35 0.40 -0.75 1.85 -1.40 1.85 -0.25 0 -0.45 -0.20 -0.45 -0.45z"/>
  <path d="M20.35 28.65 c0.30 -2.80 0.50 -3.55 0.80 -3.10 0.35 0.45 -0.25 5.95 -0.65 5.95 -0.25 0 -0.30 -1.30 -0.15 -2.85z"/>
  <path d="M8.50 29.50 c0 -0.35 1.20 -1 1.80 -1 0.65 0 0.05 0.95 -0.80 1.15 -0.55 0.15 -1 0.10 -1 -0.15z"/>
  <path d="M25.45 29.20 c-0.45 -0.55 -0.25 -0.80 0.80 -1.20 0.70 -0.25 1.50 -0.50 1.75 -0.50 0.80 0 1.50 -1.85 1.50 -3.85 0 -1.05 -0.55 -3 -1.20 -4.40 -0.65 -1.35 -1.35 -2.90 -1.50 -3.45 -0.30 -0.85 -0.40 -0.85 -1.20 -0.15 -0.45 0.40 -1.75 1.10 -2.85 1.55 -1.05 0.45 -2.10 1.10 -2.30 1.40 -0.30 0.45 -0.60 0.40 -1.25 -0.15 -0.80 -0.65 -0.85 -0.50 -0.55 2.30 0.20 1.65 0.50 3.55 0.70 4.25 0.30 1.10 0.25 1.15 -0.50 0.60 -0.40 -0.35 -1.20 -1.65 -1.65 -2.80 -0.90 -2.10 -0.95 -2.15 -2.35 -1.65 -1.30 0.45 -1.60 0.35 -2.45 -0.70 -1.80 -2.30 -1.95 -2.85 -1.10 -3.70 0.75 -0.75 0.85 -0.70 1.40 0.35 1.55 2.95 1.90 3.45 2.10 3.25 0.15 -0.10 -0.25 -1.25 -0.85 -2.55 l-1.15 -2.30 1.15 -2.10 c0.90 -1.75 1.05 -1.90 0.80 -0.70 -0.25 1.10 -0.15 1.35 0.40 1.15 0.40 -0.15 1.25 0.10 1.85 0.50 1.05 0.75 1.10 0.75 0.55 -0.30 -0.35 -0.55 -0.80 -1.05 -1.05 -1.05 -0.30 0 -0.50 -0.20 -0.50 -0.50 0 -0.25 0.35 -0.50 0.75 -0.50 0.50 0 0.75 -0.50 0.75 -1.50 0 -0.80 0.25 -1.50 0.55 -1.50 0.35 0 0.45 0.55 0.30 1.50 -0.35 1.65 0 1.85 1.45 0.75 0.50 -0.40 1.60 -0.75 2.40 -0.75 0.80 0 1.90 -0.40 2.45 -0.90 0.55 -0.45 0.85 -0.55 0.65 -0.20 -0.20 0.35 -0.05 0.60 0.40 0.60 0.45 0 0.80 0.35 0.80 0.75 0 0.40 0.25 0.75 0.50 0.75 0.30 0 0.50 -0.35 0.50 -0.75 0 -1.15 2.25 -0.90 4.50 0.50 2 1.25 2.65 2.10 1.25 1.55 -1.05 -0.40 -0.95 -0.10 0.70 1.65 0.80 0.90 1.75 2.40 2.10 3.45 0.30 1 0.80 2.10 1.05 2.35 0.75 0.80 -0.10 -2.30 -1.15 -4.10 -0.50 -0.90 -0.75 -1.65 -0.50 -1.65 1.15 0 3.25 6.95 2.35 7.80 -0.30 0.30 -0.85 0.45 -1.20 0.30 -0.85 -0.25 -0.75 0.90 0.15 1.20 0.40 0.20 0.60 0.50 0.45 0.75 -0.15 0.25 0 0.45 0.25 0.45 0.80 0 0.65 1.20 -0.30 2.95 -0.90 1.55 -1.65 2 -1.65 1.05 0 -0.25 -0.40 -0.50 -0.95 -0.50 -0.85 0 -0.85 -0.15 -0.25 -2.50 0.35 -1.40 0.80 -2.75 0.95 -3 0.15 -0.30 0.10 -0.50 -0.15 -0.50 -0.25 0 -0.50 -0.85 -0.50 -1.90 -0.05 -3.80 -1.80 -5.95 -4.30 -5.30 -1.30 0.30 -2 1.80 -1.15 2.65 0.25 0.25 0.65 2.50 0.80 4.90 l0.30 4.40 1 -1.45 c0.70 -1.05 0.80 -1.55 0.35 -1.70 -0.30 -0.10 -0.55 -0.90 -0.55 -1.75 0.10 -1.40 0.10 -1.45 0.30 -0.35 0.15 0.70 0.45 1.50 0.70 1.80 0.25 0.35 0.25 1.15 -0.05 2.05 -0.65 1.85 -5.65 4.40 -6.55 3.35z m11.20 -2.45 c-0.40 -1.10 -1.10 -0.90 -0.80 0.25 0.15 0.55 0.45 0.85 0.70 0.75 0.20 -0.15 0.30 -0.60 0.10 -1z m-18.15 -9.80 c2.45 -1.70 2.30 -1.70 -0.85 -0.20 -1.20 0.55 -2.15 1.15 -2.15 1.40 0 0.65 0.70 0.35 3 -1.20z m2.55 -5.10 c-0.80 -0.80 -1.30 0 -0.50 0.95 0.45 0.55 0.75 0.60 0.85 0.20 0.10 -0.30 -0.05 -0.85 -0.35 -1.15z m7.45 0.40 c0.50 -0.60 0.50 -0.75 -0.15 -0.75 -0.40 0 -1 0.35 -1.35 0.75 -0.50 0.60 -0.50 0.75 0.15 0.75 0.40 0 1 -0.35 1.35 -0.75z"/>
  <path d="M11.25 29 c-0.50 -0.80 0.20 -1.50 1.10 -1.15 0.45 0.20 1.05 -0.05 1.45 -0.60 0.95 -1.30 0.85 -0.20 -0.10 1.15 -0.80 1.15 -1.95 1.45 -2.45 0.60z"/>
  <path d="M1.40 26.25 c-0.20 -0.20 0.55 -1.50 1.65 -2.85 1.05 -1.35 1.95 -2.70 1.95 -3 0 -0.30 0.35 -0.40 0.75 -0.25 0.45 0.20 1.05 -0.25 1.60 -1.15 1.15 -1.95 1.70 -1.90 1.15 0.05 l-0.45 1.60 1.10 -1.05 c0.90 -0.85 1.30 -0.95 1.75 -0.50 0.90 0.90 0.75 3.90 -0.20 3.90 -0.40 0 -1.60 0.65 -2.60 1.45 -1.80 1.45 -5.95 2.55 -6.70 1.80z m8.25 -3.90 c0.20 0.15 0.35 0.05 0.35 -0.25 0 -0.35 -0.25 -0.60 -0.60 -0.60 -0.75 0 -2.40 1.50 -2.40 2.15 0 0.30 0.50 0.05 1.15 -0.55 0.65 -0.60 1.35 -0.95 1.50 -0.75z"/>
  <path d="M21.35 9 c0.15 -0.55 0.45 -1 0.70 -1 0.55 0 0.55 0.15 0.15 1.20 -0.45 1.15 -1.15 1 -0.85 -0.20z"/>
 </g>
 <g fill="#2539bb">
  <path d="M31 32.50 c0 -1.25 2.45 -4.50 3.40 -4.50 0.30 0 0.60 -0.35 0.60 -0.75 0 -0.40 0.25 -0.75 0.50 -0.75 0.30 0 0.50 0.30 0.50 0.70 0 0.40 0.25 0.80 0.55 0.90 0.80 0.25 -2.30 3.75 -4.10 4.70 -1.35 0.70 -1.45 0.65 -1.45 -0.30z m3.70 -2.45 c1.65 -1.85 0.60 -1.55 -1.15 0.30 -0.90 0.95 -1.25 1.50 -0.75 1.25 0.55 -0.30 1.40 -1 1.90 -1.55z"/>
  <path d="M20.30 28.90 c0.45 -4.10 0.70 -4.30 0.70 -0.50 0 1.65 -0.20 3.20 -0.50 3.35 -0.30 0.20 -0.40 -0.80 -0.20 -2.85z"/>
  <path d="M11.65 28.55 c-0.05 -0.70 0.15 -0.85 0.90 -0.70 0.65 0.20 1.10 -0.10 1.40 -0.90 0.30 -0.70 0.50 -0.90 0.50 -0.40 0.05 0.80 -1.70 2.95 -2.35 2.95 -0.20 0 -0.40 -0.40 -0.45 -0.95z"/>
  <path d="M26.50 28.70 c0 -0.45 0.45 -0.90 1 -1.05 0.60 -0.15 1.40 -0.85 1.80 -1.60 0.70 -1.15 0.75 -1.20 0.55 -0.15 -0.30 1.30 0 1.40 1.25 0.25 0.50 -0.45 0.90 -0.60 0.90 -0.35 -0.05 1.10 -1.30 2.10 -4.20 3.20 -1.05 0.40 -1.30 0.35 -1.30 -0.30z"/>
  <path d="M36.45 26.50 c-0.65 -0.70 -0.70 -1 -0.15 -1.70 0.35 -0.50 0.85 -0.75 1.15 -0.55 0.30 0.15 0.55 -0.05 0.55 -0.45 0 -0.40 -0.45 -0.85 -1 -1.05 -0.70 -0.25 -1.15 -1.10 -1.60 -3.30 -0.35 -1.75 -0.85 -2.95 -1.25 -2.95 -0.35 0 -0.75 -0.55 -0.95 -1.25 -0.20 -0.80 -0.65 -1.25 -1.25 -1.25 -0.50 0 -0.95 -0.20 -0.95 -0.50 0 -0.25 -0.70 -0.50 -1.60 -0.50 -1.80 0 -1.40 -0.80 0.60 -1.15 0.95 -0.15 0.85 -0.25 -0.50 -0.25 -1.60 -0.05 -4 1.25 -4 2.15 0 0.20 0.35 0.10 0.75 -0.25 0.55 -0.45 0.75 -0.50 0.75 -0.05 0 1 -1.35 2.05 -2.60 2 -0.85 -0.05 -0.90 -0.15 -0.25 -0.30 0.45 -0.10 0.85 -0.45 0.85 -0.75 0 -0.25 -0.35 -0.40 -0.75 -0.25 -0.50 0.25 -0.80 -0.20 -1.05 -1.50 -0.40 -2.10 0.30 -2.70 3.50 -2.95 6.35 -0.45 12.60 7.75 11.50 15.10 -0.35 2.55 -0.65 2.85 -1.75 1.70z m0.75 -7.35 c-0.70 -3.15 -4.10 -7.45 -5.05 -6.50 -0.10 0.15 0.25 0.50 0.80 0.85 1.10 0.55 3.55 4.90 3.55 6.25 0 0.40 0.25 0.75 0.50 0.75 0.30 0 0.40 -0.55 0.20 -1.35z"/>
  <path d="M29.65 22.75 c0 -1.10 0.10 -1.50 0.20 -0.85 0.10 0.60 0.10 1.50 0 2 -0.15 0.45 -0.25 -0.05 -0.20 -1.15z"/>
  <path d="M18.05 17.35 c0.10 -0.05 0.60 -0.45 1.10 -0.80 0.70 -0.60 0.85 -0.55 0.85 0.15 0 0.50 -0.40 0.80 -1.10 0.80 -0.60 0 -0.95 -0.05 -0.85 -0.15z"/>
  <path d="M15.85 16.65 c-0.20 -0.15 -0.35 -1 -0.35 -1.80 0 -1.45 0.05 -1.45 1.20 -0.70 1.15 0.75 1.20 0.75 0.95 -0.15 -0.30 -1.15 0.80 -1.35 1.75 -0.40 1 1 0.70 1.85 -0.90 2.65 -1.60 0.85 -2.15 0.90 -2.65 0.40z"/>
 </g>
 <g fill="#3f74a0">
  <path d="M21.45 36.30 c0.35 -0.40 2.10 -1.35 3.95 -2.10 3.70 -1.55 7.05 -4 8.10 -5.95 0.35 -0.70 1.05 -1.25 1.55 -1.25 1.25 0 1.75 1.90 0.80 2.90 -0.70 0.70 -0.75 0.65 -0.55 -0.45 l0.30 -1.20 -1 1.15 c-0.55 0.60 -1.25 1.10 -1.55 1.10 -0.55 0 -0.75 0.65 -0.60 1.90 0.05 0.30 -0.40 0.60 -0.95 0.60 -0.55 0 -1.50 0.40 -2.05 0.95 -0.55 0.50 -2.10 1.05 -3.40 1.25 -1.30 0.15 -2.80 0.65 -3.35 1.05 -1.20 0.90 -2 0.95 -1.25 0.05z"/>
  <path d="M15.50 32.75 c0.75 -0.85 0.35 -0.95 -1.05 -0.25 -0.55 0.30 -0.95 0.35 -0.95 0.05 0 -0.55 1.20 -1.05 2.55 -1.05 1.10 0 1.20 0.55 0.35 1.40 -0.85 0.85 -1.65 0.75 -0.90 -0.15z"/>
  <path d="M11.65 28.40 c-0.10 -0.90 0 -1 0.40 -0.40 0.40 0.65 0.60 0.55 1.45 -0.45 0.55 -0.65 1 -0.95 1 -0.70 0 0.55 -1.90 2.65 -2.40 2.65 -0.20 0 -0.45 -0.50 -0.45 -1.10z"/>
  <path d="M25.25 29.05 c-0.15 -0.25 -0.05 -0.60 0.25 -0.80 0.25 -0.15 0.50 0 0.50 0.35 0 0.40 0.25 0.30 0.55 -0.20 0.25 -0.50 0.80 -0.90 1.20 -0.90 0.90 0 1.35 -0.75 1.80 -3 0.40 -1.75 0.40 -1.75 0.30 0.40 -0.10 1.35 0.10 2.10 0.45 2.10 0.35 0 0.75 -0.30 0.85 -0.60 0.20 -0.45 0.30 -0.40 0.30 0.15 0.05 0.45 -0.95 1.15 -2.60 1.85 -2.95 1.25 -3.20 1.30 -3.60 0.65z"/>
  <path d="M1.25 26.05 c-0.15 -0.30 0.10 -0.70 0.60 -1 0.85 -0.40 2.30 -2.90 3.55 -6.05 l0.55 -1.25 0 1.50 0.05 1.50 1.25 -1.50 c1.15 -1.40 1.20 -1.45 1.25 -0.35 0 0.60 -0.20 1.10 -0.50 1.10 -0.25 0 -0.50 0.25 -0.50 0.55 0 0.30 0.60 0.05 1.30 -0.50 1.05 -0.80 1.50 -0.90 2 -0.50 0.90 0.75 0.90 2.95 0.05 2.95 -0.40 0 -1.10 0.45 -1.65 1.05 -1.40 1.55 -3.65 2.60 -5 2.30 -0.65 -0.10 -1.20 0 -1.20 0.20 0 0.60 -1.35 0.55 -1.75 0z m7.25 -3.25 c0.35 -0.45 0.80 -0.70 1 -0.55 0.25 0.15 0.55 0.05 0.70 -0.20 0.20 -0.25 0.10 -0.65 -0.20 -0.80 -0.50 -0.30 -4.55 2.90 -4.95 3.95 -0.25 0.60 2.55 -1.35 3.45 -2.40z"/>
  <path d="M35.15 25.65 c-0.80 -0.30 -0.85 -1.25 -0.10 -2 0.70 -0.70 2.95 0.55 2.95 1.65 0 0.70 -1.60 0.90 -2.85 0.35z"/>
  <path d="M17.80 23.55 c-0.50 -0.95 -0.75 -2.15 -0.60 -2.85 0.20 -0.70 0.10 -1.20 -0.20 -1.20 -0.25 0 -0.50 0.25 -0.50 0.50 0 1.15 -1.30 0.35 -2.10 -1.30 -1.20 -2.35 -1.05 -6.70 0.20 -6.70 0.25 0 0.30 0.50 0.15 1.10 -0.30 0.85 -0.20 1 0.45 0.75 0.50 -0.20 1.25 0.20 2.05 1.05 l1.25 1.35 -1.50 0.70 c-0.80 0.40 -1.50 1.05 -1.50 1.40 0 0.95 0.25 0.85 2.80 -1.10 1.80 -1.40 2.05 -1.75 1.15 -1.65 -0.95 0.15 -1.15 -0.10 -1.30 -1.40 -0.20 -2.40 1 -3.10 2.30 -1.40 0.60 0.75 1 1.65 0.85 2 -0.15 0.40 0.10 0.50 0.80 0.30 0.55 -0.10 0.80 -0.40 0.55 -0.55 -0.40 -0.25 -2.15 -3.40 -2.15 -3.90 0 -0.05 0.75 -0.15 1.70 -0.15 1.20 0 2 -0.35 2.60 -1.10 0.65 -0.90 0.75 -0.95 0.50 -0.20 -0.30 0.85 -0.10 0.90 1.70 0.60 1.55 -0.25 2.10 -0.15 2.30 0.45 0.20 0.40 0.75 0.75 1.25 0.75 0.55 0 1.15 0.50 1.40 1.20 0.25 0.65 0.80 1.30 1.25 1.45 0.80 0.30 3.30 4.85 3.30 6.05 0 0.35 0.35 0.80 0.75 1 0.40 0.15 0.75 0.75 0.75 1.35 0 0.80 -0.20 0.95 -0.85 0.70 -0.50 -0.20 -1.30 -0.50 -1.80 -0.60 -0.65 -0.20 -0.75 -0.45 -0.30 -0.95 0.40 -0.45 0.25 -1.25 -0.50 -3 -1.25 -2.80 -2.35 -3.75 -4.05 -3.35 -1.95 0.45 -2.25 0.95 -1.65 2.80 0.60 1.70 1.35 5.65 0.85 4.35 -0.15 -0.40 -0.70 -1.55 -1.20 -2.50 -0.50 -1 -1.05 -2.50 -1.25 -3.40 -0.30 -1.40 -1.25 -2.30 -1.25 -1.15 0 0.55 -6.05 3.25 -7.05 3.10 -0.85 -0.10 -0.95 1.95 -0.25 4.55 0.65 2.20 0.05 2.80 -0.90 0.95z m7.20 -8.95 c0 -0.65 3.95 -2.60 5.40 -2.65 1.15 -0.05 1.05 -0.15 -0.40 -0.40 -1.50 -0.25 -2.10 -0.05 -4 1.35 -2.90 2.20 -2.80 2.10 -1.85 2.10 0.50 0 0.85 -0.20 0.85 -0.40z m6 -1.10 c0 -0.25 -0.35 -0.50 -0.75 -0.50 -0.40 0 -0.75 0.25 -0.75 0.50 0 0.30 0.35 0.50 0.75 0.50 0.40 0 0.75 -0.20 0.75 -0.50z"/>
  <path d="M31.05 22.40 c-0.05 -0.80 0.20 -1.40 0.45 -1.40 0.60 0 0.60 0.40 0 1.75 -0.40 0.90 -0.45 0.85 -0.45 -0.35z"/>
  <path d="M11.90 19.55 c-1.25 -1.70 -1.30 -1.95 -0.55 -2.70 0.70 -0.70 0.90 -0.55 1.95 1.55 1.35 2.70 1.45 3.10 0.60 3.10 -0.35 0 -1.25 -0.90 -2 -1.95z"/>
  <path d="M16.65 12.30 c0.45 -0.35 0.85 -1.15 0.85 -1.75 0 -1.30 0.85 -3.05 1.45 -3.05 0.25 0 0 1.25 -0.60 2.75 -0.65 1.80 -1.25 2.75 -1.80 2.75 -0.70 -0.05 -0.70 -0.10 0.10 -0.70z"/>
  <path d="M21.55 9 c0 -1.20 1.20 -3.40 1.65 -2.95 0.15 0.10 -0.20 1.10 -0.70 2.20 -0.80 1.75 -0.90 1.85 -0.95 0.75z"/>
 </g>
 <g fill="#395ad2">
  <path d="M29 33.30 c0 -0.35 0.55 -1.05 1.25 -1.50 1.35 -0.90 2.45 -1.05 2 -0.30 -0.15 0.30 -0.10 0.50 0.15 0.50 0.80 0 3.75 -3 3.40 -3.40 -0.20 -0.20 -0.80 0.20 -1.35 0.85 -0.95 1.20 -1.30 0.60 -0.65 -1.15 0.40 -1 2.15 -1.05 2.55 -0.05 0.35 0.95 -0.90 2.35 -3.70 4.30 -2.25 1.55 -3.65 1.85 -3.65 0.75z"/>
  <path d="M17.60 32.50 c0.65 -1 1.40 -1.35 1.40 -0.60 0 0.50 -1.10 1.60 -1.60 1.60 -0.25 0 -0.15 -0.45 0.20 -1z"/>
  <path d="M20 31.65 c0 -0.60 0.25 -1.25 0.50 -1.40 0.65 -0.40 0.65 0.75 0 1.75 -0.40 0.60 -0.50 0.55 -0.50 -0.35z"/>
  <path d="M11.50 29.30 c0 -0.10 0.55 -0.55 1.25 -1 1.40 -0.95 1.65 -0.75 0.45 0.40 -0.70 0.75 -1.70 1.10 -1.70 0.60z"/>
  <path d="M25.20 28.90 c-0.25 -0.40 -0.10 -0.45 0.45 -0.25 0.50 0.15 0.85 0.15 0.85 -0.10 0 -0.55 2.60 -1.75 3.40 -1.60 0.40 0.05 1 -0.30 1.40 -0.80 0.70 -0.90 1 -0.35 0.30 0.65 -0.35 0.55 -4.85 2.70 -5.65 2.70 -0.20 0 -0.55 -0.25 -0.75 -0.60z"/>
  <path d="M34.60 25.55 c0 -0.85 0.25 -1.60 0.70 -1.75 1 -0.40 2.70 0.75 2.70 1.80 0 1 -0.80 1.60 -1.25 0.90 -0.15 -0.25 -0.55 -0.50 -0.80 -0.50 -0.30 0 -0.35 0.25 -0.20 0.50 0.15 0.30 0 0.50 -0.40 0.50 -0.45 0 -0.70 -0.55 -0.75 -1.45z"/>
  <path d="M1.25 26 c-0.15 -0.25 0.15 -0.50 0.75 -0.50 0.60 0 0.90 0.25 0.75 0.50 -0.15 0.30 -0.50 0.50 -0.75 0.50 -0.25 0 -0.60 -0.20 -0.75 -0.50z"/>
  <path d="M36.95 22.60 c-0.55 -0.10 -0.90 -0.80 -1.05 -1.85 l-0.20 -1.70 1.20 1.20 c1.30 1.30 1.30 2.60 0.05 2.35z"/>
  <path d="M18.50 17.30 c0.70 -0.40 1.35 -0.60 1.45 -0.50 0.30 0.30 -0.05 0.55 -1.45 0.90 l-1.25 0.35 1.25 -0.75z"/>
  <path d="M34.20 16.50 c-0.20 -0.80 -0.60 -1.50 -0.95 -1.50 -0.30 0 -1.10 -0.55 -1.75 -1.25 -0.85 -0.90 -1.45 -1.15 -2.40 -0.90 -0.85 0.20 -1.15 0.10 -0.90 -0.30 0.20 -0.30 1.10 -0.60 1.95 -0.60 l1.60 -0.05 -1.75 -0.35 c-1 -0.20 -2.05 -0.50 -2.40 -0.75 -0.40 -0.20 -0.50 -0.10 -0.30 0.40 0.40 1 -3.35 3.55 -3.90 2.65 -0.70 -1.05 -0.45 -3.25 0.40 -3.55 0.55 -0.20 0.75 -0.10 0.55 0.35 -0.15 0.35 0.20 0.95 0.70 1.25 0.90 0.55 0.90 0.55 0.35 -0.35 -0.80 -1.30 -0.45 -1.60 2.20 -1.70 1.70 -0.05 2.60 0.25 4.15 1.40 2.55 1.85 3.40 2.70 1.65 1.60 -0.80 -0.50 -1.40 -0.65 -1.40 -0.35 0 0.25 0.45 0.75 1.05 1.10 0.55 0.35 1.45 1.50 2 2.55 0.85 1.60 0.85 1.85 0.20 1.85 -0.45 0 -0.90 -0.60 -1.05 -1.50z"/>
  <path d="M16.20 15.75 c-0.45 -1.80 0.10 -2.10 1.25 -0.70 l1 1.20 -0.55 -1.60 c-0.35 -0.90 -0.95 -1.70 -1.40 -1.85 -0.40 -0.10 0.10 -0.20 1.15 -0.25 1.30 -0.05 1.85 0.15 1.85 0.65 0 0.40 0.15 1.05 0.30 1.50 0.20 0.50 -0.25 1 -1.25 1.50 -1.95 1.05 -1.95 1.05 -2.35 -0.45z"/>
  <path d="M25 14.60 c0 -0.25 0.55 -0.70 1.25 -1 1.05 -0.50 1.25 -0.45 1.25 0.20 0 0.40 -0.20 0.65 -0.45 0.45 -0.25 -0.15 -0.60 -0.05 -0.80 0.25 -0.35 0.60 -1.25 0.65 -1.25 0.10z"/>
 </g>
 <g fill="#cc6b63">
  <path d="M1 29.80 c0 -0.75 0.90 -1.55 1.30 -1.15 0.35 0.35 -0.35 1.85 -0.85 1.85 -0.25 0 -0.45 -0.30 -0.45 -0.70z"/>
  <path d="M7.75 23.50 c0.80 -0.80 1.55 -1.40 1.65 -1.25 0.45 0.45 -1.45 2.75 -2.25 2.75 -0.65 0 -0.50 -0.35 0.60 -1.50z"/>
  <path d="M6.50 22.65 c0 -1.25 1.30 -2.15 3.20 -2.15 0.95 0 1.30 0.25 1.30 1 0 0.55 -0.20 1 -0.50 1 -0.25 0 -0.35 -0.35 -0.20 -0.75 0.50 -1.30 -1.45 -0.85 -2.65 0.65 -1.05 1.30 -1.10 1.30 -1.15 0.25z"/>
  <path d="M7.60 18.50 c0.35 -0.55 0.80 -1 0.95 -1 0.20 0 0.25 0.45 0.10 1 -0.15 0.55 -0.60 1 -0.95 1 -0.60 0 -0.60 -0.20 -0.10 -1z"/>
  <path d="M14.50 10 c0 -0.30 0.80 -1.35 1.80 -2.40 1.60 -1.65 1.70 -1.70 0.85 -0.35 -0.55 0.85 -1.15 1.90 -1.30 2.40 -0.35 0.90 -1.35 1.20 -1.35 0.35z"/>
  <path d="M19.50 6.45 c0.60 -0.80 1.20 -1.40 1.35 -1.25 0.35 0.30 -1.35 2.80 -1.95 2.80 -0.25 0 0 -0.70 0.60 -1.55z"/>
  <path d="M22 7.50 c0 -0.70 2.95 -3.85 3 -3.20 0 0.30 -0.45 0.95 -1 1.45 -0.55 0.50 -1 1.20 -1 1.60 0 0.35 -0.20 0.65 -0.50 0.65 -0.25 0 -0.50 -0.20 -0.50 -0.50z"/>
  <path d="M26.20 6.10 c0.70 -1.35 2.30 -3.05 2.30 -2.45 0 0.15 -0.45 1.10 -1.05 2.05 -1.25 2.10 -2.30 2.45 -1.25 0.40z"/>
 </g>
 <g fill="#4c8bc6">
  <path d="M21.25 36.50 c0.45 -0.70 4.05 -2.50 5 -2.50 0.40 0 0.75 0.25 0.75 0.50 0 0.30 -0.40 0.50 -0.85 0.50 -0.50 0 -1.85 0.45 -3.05 1 -1.15 0.55 -2 0.75 -1.85 0.50z"/>
  <path d="M28.75 33.45 c-0.20 -0.30 -0.25 -0.55 -0.20 -0.65 1.50 -1.10 3.45 -2.35 3.50 -2.20 0.35 1.45 0.20 2.05 -0.70 2.65 -1.25 0.90 -2.15 0.95 -2.60 0.20z"/>
  <path d="M15.70 32.55 c1.05 -1.15 1.30 -1.30 1.30 -0.55 0 0.25 -0.50 0.75 -1.10 1.05 -1.15 0.60 -1.15 0.60 -0.20 -0.50z"/>
  <path d="M25.20 28.90 c-0.25 -0.35 -0.10 -0.45 0.45 -0.25 0.40 0.15 1.05 -0.05 1.35 -0.45 0.35 -0.40 0.90 -0.70 1.25 -0.70 0.40 0 0.80 -0.30 0.90 -0.60 0.20 -0.45 0.30 -0.45 0.30 -0.05 0.05 0.70 -2.30 2.65 -3.25 2.65 -0.35 0 -0.80 -0.25 -1 -0.60z"/>
  <path d="M34 27.90 c0.05 -0.80 1.50 -4.15 1.85 -4.25 0.25 -0.10 0.85 0.25 1.35 0.80 0.65 0.70 0.75 1.20 0.40 1.85 -0.30 0.55 -0.55 0.65 -0.80 0.25 -0.60 -0.90 -1.25 -0.60 -0.95 0.45 0.20 0.75 0 1 -0.80 1 -0.55 0 -1.05 -0.05 -1.05 -0.10z"/>
  <path d="M1.35 26.15 c-0.20 -0.15 0.15 -0.80 0.80 -1.40 1.80 -1.80 2.85 -3.40 2.85 -4.35 0 -0.50 0.25 -0.90 0.50 -0.90 0.30 0 0.50 0.25 0.50 0.60 0 0.45 0.15 0.45 0.60 0 0.85 -0.85 1.40 -0.75 1.05 0.25 -0.25 0.70 -0.05 0.65 1.25 -0.30 l1.60 -1.10 0.50 1.30 c0.50 1.35 0.30 2.25 -0.50 2.25 -0.25 0 -0.35 -0.35 -0.20 -0.75 0.60 -1.55 -1.40 -0.70 -3.70 1.65 -1.35 1.35 -2.65 2.35 -2.95 2.25 -0.30 -0.10 -0.70 0.05 -0.90 0.30 -0.35 0.60 -0.95 0.70 -1.40 0.20z m5.15 -4.75 c0 -0.30 -0.35 -0.25 -0.75 0.10 -0.40 0.35 -0.75 0.85 -0.75 1.10 0 0.30 0.35 0.25 0.75 -0.10 0.40 -0.35 0.75 -0.85 0.75 -1.10z"/>
  <path d="M6.80 24.40 c0.80 -0.60 1.75 -1.30 2.15 -1.60 0.60 -0.45 0.60 -0.35 0.10 0.60 -0.35 0.65 -1.15 1.35 -1.85 1.60 -1.90 0.75 -2 0.60 -0.40 -0.60z"/>
  <path d="M17.80 22.70 c-0.50 -1.85 -0.10 -1.95 0.55 -0.20 0.30 0.85 0.40 1.50 0.15 1.50 -0.20 0 -0.55 -0.60 -0.70 -1.30z"/>
  <path d="M12.30 19.70 c-0.80 -1 -1.25 -2.10 -1.10 -2.50 0.40 -1.05 1.15 -0.45 2.30 1.80 1.30 2.50 0.60 2.90 -1.20 0.70z"/>
  <path d="M35.25 18.85 c-1.25 -2.65 -4.95 -6.60 -5.70 -6.15 -0.30 0.20 -0.45 0.55 -0.30 0.80 0.15 0.20 -0.20 0.95 -0.75 1.55 l-1 1.20 -0.30 -1.10 -0.30 -1.15 -1.25 1 c-0.70 0.55 -1.75 1 -2.30 1 -1.55 0 -5.35 2 -5.35 2.80 0 0.35 -0.30 0.55 -0.70 0.40 -0.35 -0.15 -0.80 0.10 -0.95 0.50 -0.50 1.30 -1.05 0.95 -2 -1.20 -1 -2.30 -1.05 -2.70 -0.35 -2.25 0.65 0.40 0.65 -0.40 -0.05 -1.10 -0.40 -0.40 -0.10 -0.65 1.05 -0.90 1.20 -0.25 1.75 -0.15 2.25 0.60 0.40 0.50 0.75 1.05 0.75 1.25 0 0.35 -2.10 1.65 -2.35 1.50 -0.25 -0.15 -0.25 0.40 -0.05 0.95 0.10 0.30 1.60 -0.40 3.35 -1.55 2.20 -1.45 3.50 -2.05 4.35 -1.85 0.70 0.10 1.40 -0.05 1.60 -0.35 0.60 -0.95 4.05 -2.80 5.25 -2.80 1.20 0.05 3.90 2.20 4.75 3.80 0.90 1.70 2 5.20 1.65 5.20 -0.15 0 -0.75 -0.95 -1.30 -2.15z"/>
  <path d="M28.25 18.80 c-0.50 -0.95 -0.80 -1.90 -0.65 -2.10 0.40 -0.35 2 2.70 1.80 3.40 -0.10 0.25 -0.60 -0.30 -1.15 -1.30z"/>
  <path d="M17.95 14.55 c-0.30 -0.85 -0.90 -1.60 -1.35 -1.70 -0.50 -0.15 -0.30 -0.25 0.50 -0.30 0.70 0 1.45 0.25 1.60 0.60 0.25 0.45 0.35 0.45 0.60 -0.05 0.25 -0.50 0.50 -0.50 1.25 0.20 1.25 1.10 1.20 1.45 -0.30 2.10 -1.75 0.80 -1.75 0.80 -2.30 -0.85z"/>
  <path d="M21.80 13.65 c-0.10 -0.50 -0.35 -1.40 -0.55 -2 -0.30 -1 -0.15 -1.15 1.20 -1.15 0.95 0 1.80 -0.40 2.35 -1.10 0.55 -0.80 0.75 -0.85 0.55 -0.25 -0.25 0.60 -0.05 0.85 0.60 0.85 1.25 0 1.80 1.50 0.90 2.40 -0.65 0.60 -0.80 0.50 -1.40 -0.85 -0.45 -0.95 -0.80 -1.30 -1.05 -0.90 -0.20 0.30 0 0.95 0.40 1.40 0.65 0.75 0.65 0.90 -0.05 1.65 -1.10 1.05 -2.60 1 -2.95 -0.05z"/>
  <path d="M28.25 10.85 c-0.60 -0.50 -0.70 -0.80 -0.35 -1.05 0.35 -0.20 0.60 -0.10 0.60 0.15 0 0.30 0.45 0.55 0.95 0.55 0.55 0 1.15 0.25 1.30 0.50 0.45 0.75 -1.40 0.60 -2.50 -0.15z"/>
 </g>
 <g fill="#62a5b8">
  <path d="M31.50 31.60 c0 -0.55 0.45 -1.35 1 -1.85 1.15 -1 3 -4.45 3 -5.50 0 -1.05 0.70 -0.95 1.70 0.20 0.70 0.75 0.75 1.20 0.35 1.90 -0.30 0.50 -0.55 0.60 -0.55 0.30 0 -0.35 -0.35 -0.65 -0.75 -0.65 -0.55 0 -0.60 0.25 -0.25 1.25 0.35 0.85 0.30 1.25 -0.10 1.25 -0.30 0 -1.30 0.80 -2.25 1.75 -1.85 1.95 -1.80 2.15 0.25 0.95 l1.35 -0.80 -1.20 1.05 c-1.45 1.30 -2.55 1.35 -2.55 0.15z"/>
  <path d="M7 24.60 c0 -0.20 0.60 -0.75 1.30 -1.30 1.30 -0.90 1.30 -0.90 0.75 0.10 -0.50 0.95 -2.05 1.90 -2.05 1.20z"/>
  <path d="M3.75 23 c0.45 -0.50 1.05 -1.75 1.35 -2.80 0.50 -1.70 0.60 -1.80 0.80 -0.75 l0.20 1.20 1.20 -1.45 c0.85 -1.10 1.15 -1.25 1.20 -0.60 0 0.45 -0.20 1 -0.50 1.15 -0.25 0.15 -0.50 0.55 -0.50 0.80 0 0.30 0.50 0.15 1.10 -0.25 1.40 -1 1.90 -1 1.90 -0.05 0 0.40 -0.40 0.75 -0.90 0.75 -0.50 0 -1.40 0.65 -2 1.50 -0.90 1.15 -1.45 1.45 -2.85 1.40 -1.65 -0.05 -1.70 -0.15 -1 -0.90z m3 -1.90 c-0.35 -0.35 -2.25 1.45 -2.25 2.05 0 0.30 0.55 0 1.25 -0.65 0.70 -0.65 1.15 -1.30 1 -1.40z"/>
  <path d="M36 21 l0 -1.50 1 1 c0.55 0.55 1 1.25 1 1.50 0 0.30 -0.45 0.50 -1 0.50 -0.80 0 -1 -0.35 -1 -1.50z"/>
  <path d="M14.65 17.55 c0.20 -0.95 0.05 -1.65 -0.35 -2.05 -1.25 -1 0.35 -7.50 1.80 -7.50 0.40 0 0 1.35 -0.60 2.25 -0.20 0.30 -0.50 1.25 -0.65 2.15 -0.25 1.30 -0.15 1.60 0.55 1.60 0.50 0 1.30 0.50 1.80 1.10 0.90 1 0.90 1.10 0.05 1.70 -0.45 0.35 -1.20 0.50 -1.65 0.35 -0.60 -0.25 -0.70 -0.05 -0.50 0.75 0.20 0.60 0.05 1.10 -0.20 1.10 -0.30 0 -0.40 -0.60 -0.25 -1.45z"/>
  <path d="M19.50 15 c0 -0.25 -0.35 -0.50 -0.75 -0.50 -0.45 0 -0.90 -0.35 -1.05 -0.75 -0.20 -0.40 -0.70 -0.75 -1.15 -0.75 -0.75 -0.05 -0.75 -0.10 0 -0.65 0.45 -0.35 0.95 -1.40 1.15 -2.40 0.15 -1 0.75 -2.20 1.30 -2.70 1.25 -1.15 1.25 -0.70 0 1.35 -1.10 1.85 -1.45 4.55 -0.40 3.50 0.45 -0.45 0.85 -0.20 1.75 1 0.85 1.20 1 1.70 0.50 2 -0.85 0.55 -1.35 0.50 -1.35 -0.10z"/>
  <path d="M22 13.90 c0 -0.35 -0.35 -1.25 -0.70 -2 l-0.75 -1.40 1.75 0.15 c0.90 0.05 1.70 0.35 1.70 0.65 0 0.35 0.35 0.75 0.80 0.90 0.75 0.30 0.75 0.40 -0.05 1.30 -1 1.10 -2.75 1.35 -2.75 0.40z"/>
  <path d="M27.30 14.10 c-0.15 -0.30 -0.05 -0.70 0.25 -0.85 0.75 -0.50 1.25 0.15 0.60 0.80 -0.35 0.35 -0.65 0.35 -0.85 0.05z"/>
  <path d="M25.40 11.35 c-0.75 -1.60 -0.75 -1.85 0.10 -3.70 0.50 -1.10 1.15 -2.20 1.45 -2.35 0.65 -0.45 0.25 0.80 -1.10 3.10 -0.80 1.30 -0.80 1.60 -0.20 1.60 0.40 0 1 0.35 1.35 0.80 0.55 0.60 0.55 0.90 -0.05 1.50 -0.65 0.65 -0.85 0.50 -1.55 -0.95z"/>
  <path d="M21.50 9.15 c0 -0.60 0.45 -1.55 1 -2.20 l1.05 -1.20 -0.80 1.95 c-0.95 2.45 -1.25 2.75 -1.25 1.45z"/>
 </g>
 <g fill="#5677f6">
  <path d="M28.50 33.45 c0 -0.50 0.20 -0.95 0.50 -0.95 0.25 0 1.35 -0.80 2.45 -1.75 1.05 -0.95 2.20 -1.75 2.50 -1.75 0.30 0 0.55 -0.55 0.55 -1.25 0 -1.50 0.75 -1.65 1.50 -0.30 0.65 1.30 0.65 1.55 -0.15 1.25 -0.35 -0.10 -1.40 0.55 -2.35 1.55 -1.85 1.90 -1.70 2.25 0.35 0.90 0.75 -0.50 1.20 -0.65 1 -0.35 -0.65 1.10 -3.75 2.65 -4.05 2.05 -0.10 -0.35 -0.25 -0.25 -0.25 0.20 -0.05 1.25 -2.05 1.60 -2.05 0.40z"/>
  <path d="M25.65 28.85 c-0.15 -0.35 -0.10 -0.45 0.10 -0.20 0.25 0.20 0.75 0.05 1.20 -0.30 0.45 -0.40 1.25 -0.85 1.75 -1.05 0.95 -0.35 0.95 -0.30 0.10 0.65 -1.10 1.20 -2.70 1.65 -3.15 0.90z"/>
  <path d="M36.65 26.20 c-0.85 -0.90 -0.80 -1.70 0.05 -1.70 1 0 1.45 0.85 0.95 1.70 -0.35 0.60 -0.50 0.60 -1 0z"/>
  <path d="M23.50 12.50 c0 -1.45 0.05 -1.45 1 -0.65 0.70 0.65 0.85 1 0.40 1.50 -0.85 1.05 -1.40 0.75 -1.40 -0.85z"/>
  <path d="M25.75 12 c-0.15 -0.20 -0.10 -0.75 0.05 -1.20 0.25 -0.65 0.45 -0.70 1 -0.25 0.40 0.30 0.70 0.75 0.70 0.95 0 0.60 -1.45 1 -1.75 0.50z"/>
  <path d="M28.35 10.95 c-0.45 -0.30 -0.75 -0.70 -0.60 -0.95 0.35 -0.55 2.10 -0.05 2.80 0.80 0.45 0.55 0.40 0.70 -0.35 0.70 -0.55 0 -1.35 -0.25 -1.85 -0.55z"/>
 </g>
 <g fill="#63ade5">
  <path d="M25.75 34.25 c2.50 -1.30 4.85 -2.65 5.30 -3.05 0.40 -0.40 1.10 -0.70 1.50 -0.70 1.10 0 -3.45 3.95 -4.95 4.25 -1.20 0.25 -3.60 0.90 -5.60 1.55 -0.40 0.15 1.30 -0.80 3.75 -2.05z"/>
  <path d="M34.90 27.55 c-0.70 -0.25 -0.70 -0.45 -0.15 -1.20 0.60 -0.80 0.65 -0.80 0.90 0.25 0.35 1.30 0.35 1.35 -0.75 0.95z"/>
  <path d="M36.65 26.15 c-0.90 -0.35 -0.80 -1.65 0.10 -1.65 0.40 0 0.75 0.45 0.75 1 0 0.55 -0.05 1 -0.10 0.95 -0.10 0 -0.45 -0.15 -0.75 -0.30z"/>
  <path d="M1.50 25.80 c0 -0.15 0.70 -1 1.55 -1.90 1.10 -1.15 1.50 -1.35 1.25 -0.65 -0.30 0.80 -0.05 0.70 1.15 -0.45 0.85 -0.80 1.40 -1.60 1.30 -1.80 -0.10 -0.20 0.10 -0.80 0.50 -1.30 0.40 -0.50 0.75 -0.70 0.75 -0.40 0 0.25 -0.25 0.75 -0.60 1.10 -0.85 0.85 0.20 0.75 1.50 -0.20 1.15 -0.80 2.10 -0.60 2.10 0.55 0 0.40 -0.35 0.55 -1.05 0.40 -0.75 -0.20 -1.50 0.20 -2.70 1.40 -2.45 2.50 -3.25 3.10 -3.25 2.40 0 -0.40 -0.35 -0.30 -0.90 0.20 -0.90 0.80 -1.60 1.10 -1.60 0.65z"/>
  <path d="M6 25.30 c0 -0.10 0.80 -0.80 1.80 -1.55 1.45 -1.10 1.65 -1.15 1.15 -0.35 -0.55 0.90 -2.95 2.40 -2.95 1.90z"/>
  <path d="M36.50 21.75 c0 -0.40 0.35 -0.75 0.75 -0.75 0.40 0 0.75 0.35 0.75 0.75 0 0.40 -0.35 0.75 -0.75 0.75 -0.40 0 -0.75 -0.35 -0.75 -0.75z"/>
  <path d="M12.10 19.25 c-0.65 -0.90 -1.05 -1.95 -0.85 -2.25 0.45 -0.70 0.85 -0.30 2.20 2.15 1.35 2.40 0.25 2.50 -1.35 0.10z"/>
  <path d="M14.55 18.55 c-1.15 -2.25 -1.30 -2.75 -0.55 -2.30 0.65 0.40 2.20 3.75 1.85 4.05 -0.15 0.15 -0.75 -0.60 -1.30 -1.75z"/>
  <path d="M14.30 15.70 c-0.65 -0.95 -0.75 -1.45 -0.35 -1.85 0.40 -0.40 0.55 -0.40 0.55 0.10 0 0.35 0.35 0.50 0.90 0.35 1.05 -0.35 2.90 1.35 2.35 2.15 -0.55 1 -2.50 0.55 -3.45 -0.75z"/>
  <path d="M18 14.50 c-0.35 -0.80 -1 -1.50 -1.45 -1.50 -0.70 0 -0.70 -0.10 -0.05 -0.50 0.55 -0.35 0.85 -0.20 1.20 0.50 0.30 0.65 0.95 1 1.90 1 1.60 0 1.85 0.75 0.45 1.50 -1.35 0.70 -1.35 0.70 -2.05 -1z"/>
  <path d="M27.30 14.25 c-0.15 -0.45 0.05 -0.90 0.50 -1.10 0.95 -0.35 1.40 0.10 1.05 1.10 -0.40 0.95 -1.15 0.95 -1.55 0z"/>
  <path d="M23.30 13.65 c0.85 -0.85 0.85 -0.90 -0.20 -1.05 -1.40 -0.20 -1.45 -1.40 -0.10 -1.75 0.65 -0.15 1 0 1 0.45 0 0.40 0.25 0.70 0.50 0.70 0.90 0 0.55 1.45 -0.45 2 -1.45 0.75 -1.75 0.60 -0.75 -0.35z"/>
  <path d="M14 12 c0 -0.55 0.25 -1 0.50 -1 0.30 0 0.50 0.45 0.50 1 0 0.55 -0.20 1 -0.50 1 -0.25 0 -0.50 -0.45 -0.50 -1z"/>
  <path d="M25.80 12.15 c-0.45 -0.45 -0.35 -2.15 0.10 -2.15 0.50 0 1.60 1.05 1.60 1.55 0 0.50 -1.35 0.95 -1.70 0.60z"/>
 </g>
 <g fill="#5ad8de">
  <path d="M31.80 30.40 c0.85 -0.90 1.95 -2.30 2.45 -3.15 0.90 -1.40 0.95 -1.45 1.40 -0.40 0.35 0.85 0.10 1.35 -1.75 3.05 -2.60 2.50 -4.30 2.85 -2.10 0.50z"/>
  <path d="M36 25.25 c0 -0.40 0.35 -0.75 0.75 -0.75 0.40 0 0.75 0.35 0.75 0.75 0 0.40 -0.35 0.75 -0.75 0.75 -0.40 0 -0.75 -0.35 -0.75 -0.75z"/>
  <path d="M5.75 22.50 c0.50 -0.55 1 -1 1.10 -1 0.05 0 0.15 0.45 0.15 1 0 0.70 -0.35 1 -1.10 1 -1 0 -1.05 -0.05 -0.15 -1z"/>
  <path d="M36.50 21.75 c0 -0.45 0.25 -0.75 0.55 -0.65 0.30 0.10 0.55 0.40 0.55 0.65 0 0.25 -0.25 0.55 -0.55 0.65 -0.30 0.10 -0.55 -0.20 -0.55 -0.65z"/>
  <path d="M14.55 15.70 c-0.80 -0.95 -1 -1.45 -0.60 -1.85 0.40 -0.40 0.55 -0.35 0.55 0.10 0 0.40 0.30 0.55 0.80 0.35 0.90 -0.35 2.85 1.50 2.40 2.25 -0.50 0.85 -2.05 0.45 -3.15 -0.85z"/>
  <path d="M18.10 14.55 c-0.45 -0.85 -1.05 -1.55 -1.25 -1.55 -0.25 0 -0.25 -0.25 -0.05 -0.55 0.20 -0.40 0.45 -0.35 0.75 0.10 0.30 0.55 0.55 0.55 1 0.10 0.50 -0.50 0.85 -0.45 1.55 0.20 1.20 1.05 1.15 2 -0.10 2.65 -0.90 0.45 -1.15 0.35 -1.90 -0.95z"/>
  <path d="M21.95 13 c-0.70 -1.95 -0.60 -2.30 0.65 -2.10 1.15 0.20 2.40 1.25 2.40 2.05 0 0.50 -1.55 1.55 -2.25 1.55 -0.15 0 -0.55 -0.65 -0.80 -1.50z"/>
  <path d="M14 11.70 c0 -1 0.90 -2.70 1.45 -2.70 0.20 0 0.15 0.80 -0.15 1.75 -0.55 1.80 -1.30 2.35 -1.30 0.95z"/>
  <path d="M25.75 11.45 c-0.45 -1.35 0 -1.75 1 -0.95 0.95 0.80 0.95 1.30 0.05 1.65 -0.45 0.20 -0.85 -0.10 -1.05 -0.70z"/>
 </g>
 <g fill="#ff9b8a">
  <path d="M15.45 8.60 c1.55 -2.20 2.50 -2.65 1.20 -0.60 -0.60 0.95 -1.35 1.80 -1.70 1.95 -0.35 0.10 -0.10 -0.50 0.50 -1.35z"/>
  <path d="M22 7.75 c0 -0.70 2.35 -3.55 2.65 -3.25 0.15 0.15 -0.40 1.05 -1.20 2 -0.80 0.95 -1.45 1.50 -1.45 1.25z"/>
  <path d="M26 6.75 c0.05 -0.70 1.90 -3.05 2.15 -2.75 0.15 0.15 -0.30 0.95 -0.95 1.75 -0.65 0.85 -1.20 1.30 -1.20 1z"/>
 </g>
 <g fill="#79d0f1">
  <path d="M26.25 34.25 c3.80 -2.05 6.40 -4.20 7.65 -6.25 1.20 -2 1.35 -2.10 1.50 -1.10 0.15 0.90 -0.55 1.90 -2.95 4.10 -1.70 1.65 -3.25 2.85 -3.45 2.75 -0.25 -0.15 -0.50 -0.05 -0.60 0.25 -0.05 0.25 -0.95 0.60 -1.90 0.80 l-1.75 0.30 1.50 -0.85z"/>
  <path d="M5 23.60 c0 -0.25 0.45 -0.85 1 -1.35 0.55 -0.50 0.90 -1 0.75 -1.15 -0.25 -0.25 1.15 -3.10 1.50 -3.10 0.30 0 -0.30 1.60 -0.90 2.40 -0.70 0.90 0.85 0.80 1.65 -0.15 0.35 -0.40 0.80 -0.60 1.05 -0.45 0.80 0.45 0.50 1.20 -0.55 1.20 -0.55 0 -1.45 0.70 -2.10 1.50 -1 1.40 -2.40 2 -2.40 1.10z"/>
  <path d="M12.05 18.80 c-0.40 -0.45 -0.55 -0.95 -0.35 -1.15 0.45 -0.45 1.45 0.65 1.20 1.35 -0.10 0.40 -0.40 0.35 -0.85 -0.20z"/>
  <path d="M14.80 16.15 c-0.20 -0.45 0 -1.15 0.45 -1.60 0.75 -0.75 0.90 -0.70 1.80 0.40 0.80 0.95 0.85 1.30 0.35 1.60 -1.05 0.70 -2.25 0.50 -2.60 -0.40z"/>
  <path d="M18 14.55 c-0.70 -1.30 -0.65 -1.40 0.50 -1.70 0.85 -0.20 1 0 1 1.20 0 1.65 -0.70 1.90 -1.50 0.50z"/>
  <path d="M23 13.65 c0 -0.20 0.45 -0.70 1.05 -1.05 0.90 -0.60 1 -0.55 0.85 0.25 -0.15 0.85 -1.90 1.60 -1.90 0.80z"/>
  <path d="M14.20 11.55 c0.30 -1.55 1.25 -3.30 1.60 -2.90 0.25 0.20 -1.05 3.75 -1.55 4.20 -0.20 0.25 -0.25 -0.35 -0.05 -1.30z"/>
  <path d="M21.85 12.25 c-0.20 -0.40 -0.05 -0.85 0.25 -1.05 0.35 -0.20 0.40 -0.15 0.20 0.20 -0.20 0.35 -0.15 0.60 0.15 0.60 0.25 0 0.55 -0.30 0.70 -0.60 0.10 -0.35 0.40 -0.50 0.60 -0.30 0.40 0.40 -0.60 1.90 -1.25 1.90 -0.20 0 -0.50 -0.35 -0.65 -0.75z"/>
  <path d="M25.85 11.50 c-0.15 -0.65 0 -1 0.45 -1 0.75 0 0.95 1.30 0.25 1.70 -0.25 0.15 -0.55 -0.15 -0.70 -0.70z"/>
  <path d="M17.50 10.20 c0 -0.25 0.35 -0.95 0.75 -1.50 0.40 -0.50 0.75 -0.70 0.75 -0.40 0 0.25 -0.35 0.95 -0.75 1.50 -0.40 0.50 -0.75 0.70 -0.75 0.40z"/>
  <path d="M21.50 8.95 c0 -0.40 0.35 -1.20 0.75 -1.75 0.90 -1.20 0.95 -0.35 0 1.30 -0.45 0.80 -0.70 0.95 -0.75 0.45z"/>
 </g>
 <g fill="#88f4fb">
  <path d="M32.15 30.25 c0.95 -0.95 1.90 -2.20 2.10 -2.75 0.35 -1.20 1.25 -1.35 1.25 -0.25 0 0.95 -3.65 4.75 -4.55 4.75 -0.35 0 0.20 -0.80 1.20 -1.75z"/>
  <path d="M7.30 19.55 c0.45 -0.85 0.85 -1.55 0.95 -1.55 0.40 0 -0.45 2 -1.05 2.55 -0.50 0.40 -0.50 0.15 0.10 -1z"/>
  <path d="M14.60 15.50 c-0.65 -0.80 -0.90 -1.50 -0.60 -1.50 0.25 0 0.50 0.25 0.50 0.55 0 0.40 0.25 0.35 0.80 -0.10 0.70 -0.55 0.95 -0.45 1.70 0.55 0.70 0.90 0.75 1.35 0.35 1.60 -1.05 0.65 -1.65 0.45 -2.75 -1.10z"/>
  <path d="M18.05 14.40 c-0.35 -0.90 -0.20 -1.25 0.60 -1.55 1.05 -0.40 2.35 0.35 2.35 1.40 0 0.60 -1.05 1.25 -2.05 1.25 -0.25 0 -0.65 -0.50 -0.90 -1.10z"/>
  <path d="M22.25 13.75 c-0.15 -0.40 -0.35 -1.10 -0.50 -1.55 -0.15 -0.45 -0.05 -0.60 0.30 -0.40 0.30 0.20 0.75 0 1 -0.35 0.20 -0.35 0.55 -0.50 0.75 -0.30 0.20 0.15 0.05 0.70 -0.35 1.15 -0.60 0.75 -0.55 0.80 0.45 0.50 1.35 -0.45 1.50 0.45 0.15 1.20 -1.30 0.65 -1.55 0.65 -1.80 -0.25z"/>
  <path d="M25.85 11.55 c-0.15 -0.60 -0.05 -1.05 0.15 -1.05 0.75 0 1.15 1.05 0.60 1.60 -0.30 0.30 -0.55 0.10 -0.75 -0.55z"/>
  <path d="M14.25 10.90 c0.40 -1.35 1.75 -2.90 1.75 -2.05 0 0.35 -0.20 0.75 -0.50 0.90 -0.25 0.15 -0.50 0.75 -0.50 1.30 0 0.50 -0.25 0.95 -0.55 0.95 -0.30 0 -0.40 -0.45 -0.20 -1.10z"/>
  <path d="M18 9.45 c0 -0.85 1.30 -2.85 1.65 -2.45 0.10 0.15 -0.20 0.95 -0.70 1.75 -0.55 0.85 -0.95 1.15 -0.95 0.70z"/>
  <path d="M21.80 8.50 c0.15 -0.70 0.50 -1.45 0.75 -1.75 0.70 -0.75 0.50 0.35 -0.35 1.75 l-0.75 1.25 0.35 -1.25z"/>
  <path d="M25.60 7.50 c0.45 -1.35 1.40 -2.50 1.40 -1.75 0 0.45 -1.50 3.25 -1.75 3.25 -0.10 0 0.05 -0.70 0.35 -1.50z"/>
 </g>
 <g fill="#e6ccca">
  <path d="M18 9.10 c0 -0.35 0.70 -1.30 1.55 -2.20 1.60 -1.70 1.45 -1.25 -0.45 1.30 -0.60 0.80 -1.10 1.20 -1.10 0.90z"/>
 </g>
 <g fill="#d3ffff">
 </g>
</svg>