<?xml version="1.0" encoding="utf-8"?>
<!DOCTYPE svg PUBLIC "-//W3C//DTD SVG 1.0//EN" "http://www.w3.org/TR/2001/REC-SVG-20010904/DTD/svg10.dtd">
<svg version="1.0" xmlns="http://www.w3.org/2000/svg" width="40px" height="40px" viewBox="0 0 40 40" preserveAspectRatio="xMidYMid meet">
 <g fill="#0a090f">
  <path d="M16.50 28.75 l0 -2.25 3.25 0 3.25 0 0 1.95 c0 1.90 0 1.90 -2.30 2.25 -4.20 0.55 -4.20 0.55 -4.20 -1.95z"/>
  <path d="M22 3.25 c0 -1.45 0 -1.45 1.75 -0.65 1.75 0.80 1.60 1.90 -0.25 1.90 -1.25 0 -1.50 -0.20 -1.50 -1.25z"/>
 </g>
 <g fill="#23202e">
  <path d="M12.15 33.85 c1.90 -2.30 1.90 -2.35 0.95 -3.35 -0.55 -0.60 -1.10 -2 -1.25 -3.20 -0.30 -2.15 0.05 -5.85 0.60 -6.30 0.15 -0.15 1.05 -1.75 1.95 -3.60 0.90 -1.90 1.85 -3.40 2.10 -3.40 0.30 0 0.50 0.80 0.50 1.75 0 1.20 -0.25 1.75 -0.75 1.75 -0.50 0 -0.75 0.50 -0.75 1.50 0 0.95 -0.25 1.50 -0.70 1.50 -0.85 0 -1.60 4.75 -1.05 6.85 0.50 2.10 2.25 3 2.25 1.15 0 -0.55 0.20 -1 0.45 -1 0.25 0 0.60 -0.55 0.75 -1.25 0.25 -1.05 0.60 -1.25 2.05 -1.25 0.95 0 1.75 0.25 1.75 0.50 0 0.30 0.45 0.50 1 0.50 0.80 0 1 0.35 1 1.75 0 1.55 -0.15 1.75 -1.25 1.75 -0.75 0 -1.25 0.30 -1.25 0.70 0 0.85 -1.10 1.30 -3.05 1.30 -0.95 0 -1.45 0.25 -1.45 0.75 0 0.60 0.70 0.75 3.50 0.75 l3.50 0 0 -1.50 c0 -1.15 0.20 -1.50 1 -1.50 0.80 0 1 -0.35 1 -1.75 0 -1.40 0.20 -1.75 1 -1.75 1.40 0 1.35 2.30 -0.05 3.80 l-1.10 1.15 1.65 1.40 c0.90 0.75 1.95 1.60 2.30 1.80 1.35 0.80 0.65 1.25 -1.25 0.80 -2.40 -0.55 -14.95 -0.30 -16.30 0.30 -0.70 0.30 -0.45 -0.25 0.90 -1.90z m9.35 -5.40 c0 -0.25 -0.80 -0.45 -1.75 -0.45 -1.10 0 -1.75 0.25 -1.75 0.65 0 0.45 0.55 0.60 1.75 0.45 0.95 -0.10 1.75 -0.40 1.75 -0.65z"/>
  <path d="M24.50 20.75 c0 -2.15 0.70 -2.25 1.75 -0.25 1 1.90 0.95 2 -0.50 2 -1.10 0 -1.25 -0.20 -1.25 -1.75z"/>
  <path d="M22 15.70 c0 -2.20 0.90 -2.10 1.85 0.20 0.65 1.55 0.60 1.60 -0.60 1.60 -1.10 0 -1.25 -0.20 -1.25 -1.80z"/>
  <path d="M15.60 12.40 c-0.30 -0.65 -0.70 -1.70 -0.90 -2.40 l-0.30 -1.25 1.30 1.20 c0.70 0.70 1.30 1.75 1.30 2.40 0 1.45 -0.65 1.50 -1.40 0.05z"/>
  <path d="M22 13 c0 -0.25 -0.45 -0.50 -0.95 -0.50 -0.55 0 -1.15 -0.45 -1.30 -1 -0.20 -0.65 -0.75 -1 -1.50 -1 -1.10 0 -1.20 -0.15 -0.75 -1.30 0.75 -1.95 0.60 -2.70 -0.55 -2.70 -1.70 0 -2.95 -0.95 -2.95 -2.30 0 -1.05 0.20 -1.20 1 -0.95 0.70 0.25 1 0.10 1 -0.45 0 -1.05 0.50 -1 1.30 0.05 0.70 1 3.70 1.25 3.70 0.30 0 -1.05 0.95 -1.25 2.50 -0.55 2.05 0.90 1.90 2.20 -0.35 3.15 -1.20 0.50 -1.95 0.60 -2.05 0.25 -0.35 -1.05 -1.60 -0.50 -1.60 0.75 0 0.80 0.30 1.25 0.75 1.25 0.40 0 0.75 0.30 0.75 0.65 0 0.30 0.20 0.90 0.45 1.30 0.40 0.60 0.65 0.60 1.80 -0.15 1.35 -0.90 1.35 -0.90 1 0.30 -0.50 1.75 -1.35 3.40 -1.85 3.40 -0.20 0 -0.40 -0.20 -0.40 -0.50z"/>
 </g>
 <g fill="#353046">
  <path d="M27.75 35.45 c-1.75 -0.60 -12.10 -0.80 -15 -0.30 -1.10 0.15 -1.70 0.20 -1.35 0.05 0.30 -0.15 0.60 -0.55 0.60 -0.95 0 -0.35 0.80 -1.30 1.75 -2.10 0.95 -0.85 1.75 -2 1.75 -2.55 0 -1.30 1 -3.60 1.60 -3.60 0.20 0 0.40 -0.35 0.40 -0.75 0 -0.50 0.55 -0.75 1.75 -0.75 1.55 0 1.75 -0.15 1.75 -1.25 0 -1.10 0.20 -1.25 1.70 -1.25 1.20 0 1.80 0.25 1.95 0.90 0.20 0.65 0.25 0.55 0.30 -0.25 0 -0.65 -0.15 -1.15 -0.35 -1.15 -0.25 0 -0.70 -0.55 -1 -1.25 -0.35 -0.75 -1 -1.25 -1.60 -1.25 -0.85 0 -1 -0.30 -1 -1.85 0 -2.65 0.50 -4.15 1.30 -4.15 0.40 0 0.70 0.30 0.70 0.65 0 0.35 0.90 2.40 2.05 4.60 1.85 3.70 2 4.25 1.90 7.50 -0.10 2.90 -0.35 3.75 -1.35 4.85 -1.15 1.25 -1.15 1.30 -0.25 1.60 0.80 0.25 4.80 3.90 4.10 3.75 -0.10 0 -0.85 -0.25 -1.70 -0.50z m-4.75 -3.70 c0 -1.45 -1.25 -1.70 -2.80 -0.50 -0.50 0.40 -1.35 0.75 -1.80 0.75 -0.50 0 -0.90 0.25 -0.90 0.50 0 0.30 1.25 0.50 2.75 0.50 2.60 0 2.75 -0.05 2.75 -1.25z m-2.55 -2.75 c0.60 0 1.05 -0.35 1.05 -0.75 0 -1.15 -2.85 -1 -3.50 0.20 -0.75 1.40 -0.65 1.65 0.45 1.05 0.55 -0.25 1.45 -0.50 2 -0.50z m4.55 0 c0 -0.25 -0.35 -0.50 -0.75 -0.50 -0.40 0 -0.75 0.25 -0.75 0.50 0 0.30 0.35 0.50 0.75 0.50 0.40 0 0.75 -0.20 0.75 -0.50z m-5.50 -2.25 c0 -0.15 -0.10 -0.25 -0.25 -0.25 -0.15 0 -0.25 0.10 -0.25 0.25 0 0.15 0.10 0.25 0.25 0.25 0.15 0 0.25 -0.10 0.25 -0.25z"/>
  <path d="M12.80 29.90 c-0.65 -1.05 -1.05 -3.80 -0.85 -6 0.15 -1.85 1.45 -0.90 1.75 1.25 0.15 1.15 0.40 2.95 0.60 4 0.35 2.15 -0.35 2.50 -1.50 0.75z"/>
  <path d="M12.65 21.15 c2.20 -4.35 3.40 -7.35 3.20 -8.05 -0.15 -0.45 -0.50 -1.60 -0.80 -2.55 l-0.50 -1.70 1.15 1.10 1.15 1.05 0.55 -1.25 c0.85 -1.90 0.80 -3.80 -0.15 -3.45 -0.40 0.20 -0.75 0.05 -0.75 -0.30 0 -0.30 -0.35 -0.90 -0.75 -1.30 -0.60 -0.65 -0.60 -0.85 0.15 -1.75 0.85 -1 0.85 -1 1.30 0 0.70 1.55 4.30 1.75 4.30 0.25 0 -0.40 0.45 -0.70 1.05 -0.70 0.55 0 0.90 0.20 0.75 0.45 -0.15 0.25 0.10 0.40 0.55 0.35 1.20 -0.10 1.45 1.65 0.30 2 -3.05 1 -3.85 2.35 -2.85 4.95 0.30 0.70 0.45 0.70 1.50 0 1.10 -0.70 1.20 -0.70 1.20 0.10 0 1.60 -0.80 2.30 -2.40 2.05 -1.35 -0.20 -1.55 -0.05 -1.80 1.20 -0.20 1 -0.60 1.40 -1.30 1.40 -0.55 0 -1 0.35 -1 0.75 0 0.40 -0.35 0.75 -0.75 0.75 -0.50 0 -0.75 0.50 -0.75 1.50 0 0.85 -0.20 1.50 -0.50 1.50 -0.25 0 -0.50 0.45 -0.50 1 0 0.75 -0.35 1 -1.30 1 -0.70 0 -1.15 -0.15 -1.05 -0.35z"/>
 </g>
 <g fill="#942228">
  <path d="M14.50 32.50 c0 -1.65 0.15 -2 1 -2 0.65 0 1 -0.35 1 -1 0 -0.55 0.25 -1 0.55 -1 0.30 0 0.40 0.45 0.20 1 -0.35 1.20 -0.10 1.25 1.40 0.30 0.60 -0.40 1.95 -0.85 3 -1 1.65 -0.30 1.85 -0.25 1.85 0.70 0 0.70 0.35 1 1.15 1 0.85 0 0.95 0.10 0.35 0.50 -0.60 0.35 -0.60 0.60 -0.10 1.10 0.30 0.30 0.60 1 0.60 1.50 0 0.70 -0.40 0.90 -2 0.90 -1.65 0 -2 -0.15 -2 -1 0 -0.80 -0.35 -1 -1.50 -1 -1.15 0 -1.50 0.20 -1.50 1 0 0.85 -0.35 1 -2 1 l-2 0 0 -2z m1.50 0.25 c0 -0.15 -0.10 -0.25 -0.25 -0.25 -0.15 0 -0.25 0.10 -0.25 0.25 0 0.15 0.10 0.25 0.25 0.25 0.15 0 0.25 -0.10 0.25 -0.25z"/>
 </g>
 <g fill="#494561">
  <path d="M11.65 35 c0.45 -0.30 0.75 -0.75 0.60 -1 -0.15 -0.25 0.35 -0.90 1.10 -1.55 0.90 -0.70 1.20 -1.15 0.75 -1.30 -1.20 -0.45 -2.10 -3.10 -2.10 -6.15 0 -3.35 1 -5.50 2.55 -5.50 0.75 0 0.95 0.35 0.95 1.75 0 1.20 -0.25 1.75 -0.75 1.75 -0.40 0 -0.75 0.25 -0.75 0.50 0 0.30 0.35 0.50 0.75 0.50 0.50 0 0.75 0.50 0.75 1.50 0 1.10 0.20 1.40 0.75 1.20 0.40 -0.20 0.75 -0.60 0.75 -1 0 -0.40 0.25 -0.70 0.50 -0.70 0.30 0 0.50 -0.40 0.50 -0.95 0 -0.50 0.35 -1.60 0.75 -2.35 0.70 -1.35 0.70 -1.45 -0.25 -1.60 -0.75 -0.15 -1 -0.55 -1.05 -1.75 0 -0.90 -0.15 -1.30 -0.30 -0.95 -0.20 0.55 -2.65 0.90 -2.65 0.35 0 -0.10 0.40 -1 0.85 -2 0.70 -1.50 0.75 -2.05 0.25 -3.40 -0.90 -2.50 -0.75 -3.30 0.35 -1.90 l0.95 1.25 0.80 -2.70 c1 -3.30 1 -3.15 -0.20 -2.75 -1.25 0.40 -3.50 -0.95 -3.50 -2 0 -0.40 0.45 -0.75 0.95 -0.75 0.55 0 1.05 -0.30 1.20 -0.60 0.15 -0.50 0.40 -0.45 0.90 0.20 0.40 0.45 1.55 0.90 2.60 1 1.50 0.15 1.85 0.05 1.85 -0.70 0 -1 1.05 -1.15 2.55 -0.40 1.45 0.80 1.20 1.30 -1.20 2.50 -2.05 1 -2.10 1.15 -1.95 3.05 0.25 2.50 0.85 2.85 2.45 1.40 l1.25 -1.20 -0.35 1.25 c-0.20 0.70 -0.65 1.75 -1.05 2.35 -0.65 1.05 -0.60 1.40 0.55 3.65 1.50 2.95 1.60 4.50 0.40 4.50 -0.55 0 -0.70 0.15 -0.35 0.40 0.30 0.20 0.70 0.70 0.85 1.10 0.20 0.50 0.30 0.40 0.30 -0.35 0.05 -1.45 0.85 -1.45 1.60 -0.05 0.35 0.70 0.50 2.35 0.30 4.60 -0.25 2.80 -0.55 3.75 -1.35 4.40 -1 0.80 -1 1.90 0 1.90 0.25 0 1.20 0.70 2.10 1.50 1.60 1.50 1.35 1.80 -0.95 1.20 -0.65 -0.20 -1.15 -0.65 -1.15 -1 0 -0.45 -0.55 -0.70 -1.50 -0.70 -0.80 0 -1.50 0.20 -1.50 0.45 0 0.20 -2.10 0.55 -4.60 0.70 -2.55 0.20 -5.20 0.45 -5.90 0.60 -1.05 0.30 -1.10 0.25 -0.35 -0.25z m2.10 -1.50 c0.15 -0.25 0.20 -0.50 0.05 -0.50 -0.15 0 -0.40 0.25 -0.55 0.50 -0.15 0.30 -0.20 0.50 -0.05 0.50 0.15 0 0.40 -0.20 0.55 -0.50z m3.25 -1 c0 -0.25 -0.20 -0.50 -0.45 -0.50 -0.30 0 -0.65 0.25 -0.80 0.50 -0.15 0.30 0.05 0.50 0.45 0.50 0.45 0 0.80 -0.20 0.80 -0.50z m7 0 c0 -0.25 -0.20 -0.50 -0.50 -0.50 -0.25 0 -0.50 0.25 -0.50 0.50 0 0.30 0.25 0.50 0.50 0.50 0.30 0 0.50 -0.20 0.50 -0.50z m-2 -1.25 c0 -1.40 -0.75 -1.70 -1.20 -0.45 -0.50 1.25 -0.35 1.70 0.45 1.70 0.45 0 0.75 -0.45 0.75 -1.25z m-3.15 -1 c-0.25 -0.50 0.20 -0.80 1.45 -1.05 1.85 -0.35 2.05 -1.35 0.30 -1.60 -0.65 -0.10 -0.95 -0.40 -0.75 -0.90 0.15 -0.40 0 -0.70 -0.30 -0.70 -0.30 0 -0.55 0.35 -0.55 0.75 0 0.40 -0.20 0.75 -0.40 0.75 -0.25 0 -0.70 0.60 -1.05 1.35 -0.50 1.05 -0.45 1.40 0.05 1.70 1 0.65 1.55 0.55 1.25 -0.30z m4.35 -5.20 c-0.20 -0.85 -0.45 -1.50 -0.55 -1.35 -0.15 0.10 -0.10 0.95 0.10 1.80 0.20 0.85 0.45 1.50 0.55 1.35 0.10 -0.10 0.05 -0.90 -0.10 -1.80z m2.30 0.20 c0 -0.15 -0.10 -0.25 -0.25 -0.25 -0.15 0 -0.25 0.10 -0.25 0.25 0 0.15 0.10 0.25 0.25 0.25 0.15 0 0.25 -0.10 0.25 -0.25z m-2.65 -8.85 c-0.15 -0.40 -0.30 -0.25 -0.30 0.30 -0.05 0.55 0.10 0.85 0.25 0.65 0.15 -0.15 0.20 -0.60 0.05 -0.95z m-4.85 -3.15 c0 -0.15 -0.10 -0.25 -0.25 -0.25 -0.15 0 -0.25 0.10 -0.25 0.25 0 0.15 0.10 0.25 0.25 0.25 0.15 0 0.25 -0.10 0.25 -0.25z m0.35 -1.60 c-0.20 -0.15 -0.35 0 -0.35 0.35 0 0.35 0.15 0.50 0.35 0.35 0.15 -0.20 0.15 -0.50 0 -0.70z m1.65 -1.60 c0 -0.30 -0.20 -0.65 -0.50 -0.80 -0.25 -0.15 -0.50 0.05 -0.50 0.45 0 0.45 0.25 0.80 0.50 0.80 0.30 0 0.50 -0.20 0.50 -0.45z m3.35 -6.90 c-0.20 -0.15 -0.35 0 -0.35 0.35 0 0.35 0.15 0.50 0.35 0.35 0.15 -0.20 0.15 -0.50 0 -0.70z"/>
 </g>
 <g fill="#5c5776">
  <path d="M11.75 34.85 c0.55 -0.40 1.95 -1 3.15 -1.35 2.30 -0.70 2.70 -1.35 1 -1.60 l-1.15 -0.15 1.20 -0.70 c0.95 -0.50 1.40 -0.55 2.30 -0.05 0.65 0.35 1.45 0.50 1.85 0.35 0.45 -0.20 0.40 -0.30 -0.15 -0.30 -0.45 -0.05 -0.95 -0.40 -1.15 -0.80 -0.30 -0.85 1.75 -1.60 2.75 -0.95 0.85 0.50 0.15 -2.85 -0.70 -3.55 -0.35 -0.25 -0.55 -0.90 -0.45 -1.45 0.10 -0.55 0 -0.80 -0.35 -0.60 -0.30 0.20 -0.55 0.70 -0.55 1.10 0 0.80 -2.35 4.65 -3.35 5.50 -0.35 0.30 -1.20 0.45 -1.90 0.30 -1.25 -0.20 -1.25 -0.25 -0.45 -1.15 0.90 -1 0.30 -1.35 -0.65 -0.40 -0.35 0.35 -0.60 0.15 -0.75 -0.75 -0.15 -0.85 -0.05 -1.30 0.35 -1.30 0.35 0 0.75 -0.35 0.95 -0.75 0.15 -0.40 0.05 -0.75 -0.20 -0.75 -0.30 0 -0.50 0.25 -0.50 0.50 0 0.30 -0.25 0.50 -0.55 0.50 -1 0 0 -5 1.55 -8 2.35 -4.45 2.60 -5.40 1.75 -6.65 -1.10 -1.60 -0.95 -2.90 0.20 -1.40 l0.90 1.15 0.55 -1.40 c0.30 -0.80 0.70 -2.10 0.90 -2.90 0.30 -1.25 0.20 -1.40 -0.50 -1.15 -1.10 0.45 -3.80 -0.95 -3.80 -1.95 0 -0.55 0.30 -0.65 1 -0.45 0.70 0.25 1 0.10 1 -0.45 0 -1.15 0.40 -1 1.85 0.70 0.65 0.85 1.45 1.35 1.70 1.20 0.25 -0.15 0.35 -0.50 0.20 -0.75 -0.45 -0.65 0.45 -0.55 1.15 0.15 0.45 0.45 0.60 0.30 0.60 -0.75 0 -0.85 0.25 -1.35 0.75 -1.35 0.40 0 0.70 0.15 0.70 0.35 -0.15 1 0.10 1.35 0.50 0.70 0.50 -0.80 1.55 -0.30 1.55 0.70 0 0.60 -3.25 2.10 -4.05 1.85 -0.45 -0.10 0.10 4.55 0.60 5.15 0.30 0.30 0.75 0.05 1.25 -0.65 1.30 -1.85 1.70 -1.20 0.70 1.15 l-0.95 2.20 1.30 2.30 c0.95 1.75 1.20 2.75 1 4.15 -0.15 1 -0.15 1.55 0 1.25 0.45 -1.15 1.55 -0.70 1.85 0.75 0.50 2.10 -0.10 7.05 -0.90 7.90 -0.40 0.40 -1.10 0.55 -1.60 0.35 -0.60 -0.25 -0.75 -0.15 -0.45 0.30 0.20 0.40 0.10 0.85 -0.30 1.10 -0.35 0.20 -0.50 0.55 -0.30 0.80 0.25 0.20 0.60 0.10 0.80 -0.25 0.50 -0.85 1.70 -0.35 3.70 1.50 l1.60 1.55 -1.50 -0.30 c-7.60 -1.50 -10.10 -1.50 -15.75 -0.05 -1.20 0.30 -1.20 0.30 -0.25 -0.45z m10.10 -2.70 c-0.20 -0.15 -0.50 -0.15 -0.70 0 -0.15 0.20 0 0.35 0.35 0.35 0.35 0 0.50 -0.15 0.35 -0.35z m0.15 -1.65 c0 -0.25 -0.20 -0.50 -0.50 -0.50 -0.25 0 -0.50 0.25 -0.50 0.50 0 0.30 0.25 0.50 0.50 0.50 0.30 0 0.50 -0.20 0.50 -0.50z m2.35 -2.35 c-0.15 -0.50 -0.50 -1.95 -0.85 -3.25 -0.35 -1.35 -0.85 -2.40 -1.05 -2.40 -0.85 0 -0.45 3.60 0.60 5.05 1.15 1.65 1.60 1.85 1.30 0.60z m1 -3.25 c-0.10 -0.65 -0.20 -0.25 -0.20 0.85 -0.05 1.10 0.05 1.60 0.20 1.15 0.10 -0.50 0.10 -1.40 0 -2z m-7.30 -0.90 c0.25 0 0.45 -0.55 0.45 -1.25 0 -0.70 0.25 -1.25 0.50 -1.25 0.30 0 0.50 -0.20 0.50 -0.50 0 -0.25 -0.35 -0.50 -0.75 -0.50 -0.50 0 -0.75 0.50 -0.75 1.50 0 0.85 -0.20 1.50 -0.50 1.50 -0.25 0 -0.45 0.50 -0.45 1.15 0.05 0.80 0.10 0.90 0.30 0.25 0.10 -0.50 0.45 -0.90 0.70 -0.90z m3.45 -2.75 c0 -0.25 -0.25 -0.15 -0.50 0.25 -0.25 0.40 -0.50 1 -0.50 1.25 0 0.30 0.25 0.15 0.50 -0.25 0.25 -0.40 0.50 -0.95 0.50 -1.25z m-7.50 0 c0 -0.15 -0.10 -0.25 -0.25 -0.25 -0.15 0 -0.25 0.10 -0.25 0.25 0 0.15 0.10 0.25 0.25 0.25 0.15 0 0.25 -0.10 0.25 -0.25z m8 -1 c0 -0.15 -0.10 -0.25 -0.25 -0.25 -0.15 0 -0.25 0.10 -0.25 0.25 0 0.15 0.10 0.25 0.25 0.25 0.15 0 0.25 -0.10 0.25 -0.25z m1.10 -3.05 c-0.25 -2.05 -0.35 -2 -0.75 0.20 -0.25 1.10 -0.15 1.60 0.30 1.60 0.45 0 0.60 -0.55 0.45 -1.80z m-3.35 0.80 c0.15 -0.25 0.20 -0.50 0.05 -0.50 -0.15 0 -0.40 0.25 -0.55 0.50 -0.15 0.30 -0.20 0.50 -0.05 0.50 0.15 0 0.40 -0.20 0.55 -0.50z m2.10 -2.85 c-0.20 -0.15 -0.35 0 -0.35 0.35 0 0.35 0.15 0.50 0.35 0.35 0.15 -0.20 0.15 -0.50 0 -0.70z m-3.40 -2.50 c0.90 -1.60 1.45 -3.20 1.25 -3.65 -0.20 -0.50 -0.65 0.05 -1.45 1.85 -2.35 5.25 -2.25 6.35 0.20 1.80z m0.55 2.10 c0 -0.15 -0.10 -0.25 -0.25 -0.25 -0.15 0 -0.25 0.10 -0.25 0.25 0 0.15 0.10 0.25 0.25 0.25 0.15 0 0.25 -0.10 0.25 -0.25z m1.70 -2 l0.35 -1.50 -1 1.20 c-0.50 0.70 -0.85 1.55 -0.70 1.95 0.35 0.90 0.95 0.20 1.35 -1.65z"/>
  <path d="M19.50 13.75 c0 -0.15 0.10 -0.25 0.25 -0.25 0.15 0 0.25 0.10 0.25 0.25 0 0.15 -0.10 0.25 -0.25 0.25 -0.15 0 -0.25 -0.10 -0.25 -0.25z"/>
  <path d="M12.50 33.30 c0 -0.15 0.45 -0.50 1 -0.80 0.55 -0.30 1 -0.40 1 -0.30 0 0.15 -0.45 0.50 -1 0.80 -0.55 0.30 -1 0.40 -1 0.30z"/>
 </g>
 <g fill="#7c5864">
  <path d="M15.75 33.50 c0.15 -0.25 0.70 -0.50 1.15 -0.50 0.80 -0.05 0.80 -0.10 -0.05 -0.70 -0.75 -0.60 -0.75 -0.75 -0.10 -1.30 0.60 -0.50 0.90 -0.50 1.60 0.05 0.75 0.60 0.80 0.60 0.55 -0.40 -0.20 -0.85 0 -1.15 0.95 -1.40 1.45 -0.35 2.55 0.20 1.60 0.80 -0.35 0.20 -0.50 0.60 -0.25 0.80 0.25 0.20 0.55 0.10 0.65 -0.20 0.15 -0.50 0.50 -0.50 1.25 -0.10 0.75 0.40 0.85 0.70 0.45 1.10 -0.80 0.80 -0.70 1.35 0.25 1.35 0.45 0 0.60 -0.25 0.40 -0.60 -0.25 -0.40 -0.10 -0.45 0.50 -0.25 0.50 0.20 1 0.35 1.10 0.35 0.10 0 0.20 0.35 0.20 0.75 0 0.50 -0.55 0.75 -1.75 0.75 -0.95 0 -1.75 -0.20 -1.75 -0.50 0 -0.25 -0.80 -0.50 -1.75 -0.50 -0.95 0 -1.75 0.25 -1.75 0.50 0 0.30 -0.80 0.50 -1.80 0.50 -1.05 0 -1.65 -0.20 -1.45 -0.50z"/>
  <path d="M15.50 29.50 c0 -0.25 0.35 -0.50 0.75 -0.50 0.40 0 0.75 -0.25 0.75 -0.60 0 -0.30 0.15 -0.40 0.30 -0.25 0.40 0.40 -0.70 1.85 -1.35 1.85 -0.25 0 -0.45 -0.20 -0.45 -0.50z"/>
  <path d="M22.50 28.95 c0 -0.90 0.10 -0.95 0.75 -0.25 0.40 0.40 0.75 0.85 0.75 1 0 0.15 -0.35 0.30 -0.75 0.30 -0.45 0 -0.75 -0.45 -0.75 -1.05z"/>
  <path d="M20 8 c0 -0.55 0.25 -1 0.50 -1 0.30 0 0.50 0.45 0.50 1 0 0.55 -0.20 1 -0.50 1 -0.25 0 -0.50 -0.45 -0.50 -1z"/>
  <path d="M19.05 6.90 c-0.05 -1.25 0.15 -1.40 1.50 -1.40 0.85 0 1.40 0.20 1.20 0.50 -0.15 0.25 -0.55 0.35 -0.95 0.20 -0.35 -0.15 -0.90 0.25 -1.20 0.90 -0.55 1.15 -0.55 1.15 -0.55 -0.20z"/>
 </g>
 <g fill="#6c6889">
  <path d="M12.25 34.70 c0.55 -0.40 1.95 -1 3.15 -1.30 2.20 -0.55 2.45 -0.85 1.55 -1.75 -0.35 -0.35 -0.30 -0.60 0.25 -0.80 0.45 -0.20 0.80 -0.10 0.80 0.15 0 1 1.45 0.45 1.60 -0.60 0.10 -0.65 0.55 -1.20 1.15 -1.35 0.80 -0.15 0.85 -0.05 0.35 0.60 -0.50 0.55 -0.45 0.85 0.10 1.30 0.55 0.45 0.75 0.45 0.90 0 0.15 -0.40 0.55 -0.50 1.15 -0.25 0.70 0.25 0.80 0.45 0.35 0.90 -0.35 0.35 -0.60 0.80 -0.60 1 0 0.60 1.40 0.50 1.60 -0.15 0.10 -0.30 1.20 0.30 2.40 1.35 1.25 1 1.80 1.70 1.25 1.50 -0.55 -0.20 -3.25 -0.60 -6 -0.90 -4.20 -0.45 -5.50 -0.40 -8 0.25 -2.50 0.65 -2.85 0.65 -2 0.05z m7.25 -1.45 c0 -0.15 -0.10 -0.25 -0.25 -0.25 -0.15 0 -0.25 0.10 -0.25 0.25 0 0.15 0.10 0.25 0.25 0.25 0.15 0 0.25 -0.10 0.25 -0.25z"/>
  <path d="M13.50 32.75 c0 -0.15 0.10 -0.25 0.25 -0.25 0.15 0 0.25 0.10 0.25 0.25 0 0.15 -0.10 0.25 -0.25 0.25 -0.15 0 -0.25 -0.10 -0.25 -0.25z"/>
  <path d="M14.10 29.50 c0.55 -0.85 0.55 -1.10 -0.05 -1.45 -0.55 -0.35 -0.50 -0.65 0.15 -1.65 0.45 -0.70 0.85 -2.10 0.95 -3.20 0.10 -1.50 -0.10 -1.95 -0.85 -2.10 -0.50 -0.10 -1.15 0.10 -1.40 0.50 -0.75 1 -0.30 -0.10 1.30 -3.25 0.80 -1.55 1.55 -2.75 1.65 -2.65 0.15 0.10 -0.15 0.90 -0.60 1.80 -0.85 1.65 -0.65 2.60 0.30 1.65 0.30 -0.30 0.90 -0.45 1.25 -0.30 0.45 0.15 1.05 -0.50 1.70 -1.90 l1 -2.20 -0.25 2.25 c-0.20 1.60 -0.10 2.05 0.25 1.50 0.25 -0.40 0.50 -1.30 0.50 -2 0 -2 1.20 -4.85 1.90 -4.60 0.30 0.10 0.60 -0.15 0.60 -0.55 0 -0.40 0.30 -0.85 0.65 -1 0.55 -0.20 0.60 0.15 0.20 1.95 -0.50 2.05 -0.40 2.40 1.40 5.80 1.70 3.25 1.95 4.05 1.95 7.25 0 2 -0.15 3.75 -0.35 3.95 -0.70 0.75 -1.90 -1.15 -2.65 -4.35 -0.45 -1.75 -1.05 -3.50 -1.35 -3.90 -0.45 -0.50 -0.35 -0.80 0.35 -1.30 0.70 -0.50 0.80 -1.05 0.50 -2.55 l-0.35 -1.90 -0.65 2.50 c-0.80 3.10 -4.35 10.60 -5.50 11.70 -0.25 0.20 -1.05 0.50 -1.85 0.70 -1.30 0.30 -1.35 0.25 -0.75 -0.70z m11.70 -2.30 c-0.15 -0.45 -0.30 -1.40 -0.35 -2.10 0 -1.25 -0.05 -1.30 -0.45 -0.25 -0.50 1.20 -0.10 3.15 0.60 3.15 0.30 0 0.35 -0.35 0.20 -0.80z m-10.45 -0.55 c-0.20 -0.15 -0.35 0 -0.35 0.35 0 0.35 0.15 0.50 0.35 0.35 0.15 -0.20 0.15 -0.50 0 -0.70z m1.15 -4.90 c0 -0.15 -0.10 -0.25 -0.25 -0.25 -0.15 0 -0.25 0.10 -0.25 0.25 0 0.15 0.10 0.25 0.25 0.25 0.15 0 0.25 -0.10 0.25 -0.25z"/>
  <path d="M23.70 30.15 c-0.70 -0.15 -1.20 -0.70 -1.35 -1.55 -0.30 -1.65 0.10 -2.25 0.50 -0.70 0.15 0.60 0.55 1.10 0.90 1.10 0.35 0 0.90 0.35 1.25 0.75 0.35 0.40 0.45 0.70 0.20 0.70 -0.25 -0.05 -0.95 -0.20 -1.50 -0.30z"/>
  <path d="M12.50 28.50 c0 -0.35 0.15 -0.50 0.35 -0.35 0.15 0.20 0.15 0.50 0 0.70 -0.20 0.15 -0.35 0 -0.35 -0.35z"/>
  <path d="M21 23.90 c0 -0.65 0.25 -1.50 0.50 -1.90 0.35 -0.55 0.50 -0.35 0.50 0.85 0 0.85 -0.20 1.75 -0.50 1.90 -0.30 0.15 -0.50 -0.20 -0.50 -0.85z"/>
  <path d="M17.50 15.15 c0 -0.35 0.20 -0.70 0.45 -0.90 0.25 -0.15 0.60 -0.95 0.80 -1.75 0.20 -0.85 0.55 -1.50 0.80 -1.50 0.25 0 0.45 -0.90 0.45 -2.05 0 -1.20 0.20 -1.90 0.50 -1.70 1.05 0.65 0.45 3.35 -1.25 5.90 -0.95 1.40 -1.75 2.30 -1.75 2z"/>
  <path d="M16.25 14.15 c0.20 -0.65 0 -1.60 -0.45 -2.25 -0.90 -1.25 -1 -1.90 -0.35 -1.90 0.25 0 0.65 0.60 0.90 1.35 0.45 1.25 0.55 1.10 1.35 -1.90 1 -3.50 2.30 -5.25 3.25 -4.30 0.40 0.40 0.55 0.15 0.55 -1.05 0 -1.05 0.25 -1.60 0.75 -1.60 0.45 0 0.60 0.30 0.45 0.75 -0.35 0.85 0.55 1.05 1.05 0.25 0.40 -0.65 1.25 -0.15 1.25 0.70 0 0.60 -3.30 2.10 -4.35 1.90 -0.30 -0.05 -1 1.05 -1.55 2.50 -1.20 3.10 -3.25 7.15 -2.85 5.55z"/>
  <path d="M15.50 5.65 c-1.60 -0.60 -2.05 -2.40 -0.50 -1.90 0.70 0.20 1.10 0.05 1.30 -0.50 0.25 -0.65 0.45 -0.55 1 0.55 1 1.90 0.30 2.65 -1.80 1.85z"/>
 </g>
 <g fill="#827b9c">
  <path d="M12.70 34.60 c0.15 -0.25 1.30 -0.75 2.55 -1.10 2.25 -0.65 2.80 -1.20 1.65 -1.65 -0.35 -0.15 -0.05 -0.30 0.75 -0.30 1 -0.05 1.35 -0.30 1.35 -1 0 -0.50 0.35 -1.10 0.80 -1.25 1.15 -0.45 1.35 -0.40 1.05 0.35 -0.15 0.40 -0.05 1 0.20 1.40 0.40 0.60 0.50 0.60 0.90 0 0.65 -1 1.65 -0.15 1.25 1.05 -0.25 0.90 -0.15 1 0.95 0.70 0.85 -0.20 1.65 0.05 2.55 0.75 0.75 0.60 1.25 1.15 1.15 1.25 -0.35 0.40 -7.60 -0.95 -7.90 -1.45 -0.20 -0.30 -1.20 -0.15 -2.50 0.30 -3 1.05 -5.10 1.50 -4.75 0.95z"/>
  <path d="M14.50 29.30 c0 -0.40 -0.15 -1.15 -0.35 -1.65 -0.30 -0.75 -0.20 -0.80 0.45 -0.30 1 0.85 1.40 0.30 1.05 -1.50 -0.25 -1.30 -0.20 -1.45 0.60 -1.20 0.70 0.30 0.80 0.15 0.60 -0.75 -0.20 -0.60 -0.05 -1.40 0.25 -1.75 0.55 -0.70 0.35 -0.80 -2.20 -1.35 -0.80 -0.20 -1.40 -0.50 -1.40 -0.70 0 -0.25 0.60 -0.35 1.40 -0.25 1.45 0.25 3.60 -1.30 3.60 -2.60 0 -0.40 0.20 -0.80 0.40 -0.95 0.25 -0.15 0.30 0.45 0.20 1.35 -0.15 1.20 -0.10 1.45 0.40 1.05 0.30 -0.30 0.65 -1.35 0.75 -2.25 0.10 -0.95 0.40 -2.50 0.70 -3.45 0.40 -1.50 0.45 -1.60 0.55 -0.50 0.10 1.20 0.10 1.15 0.80 -0.45 1.15 -2.60 1.30 -1.60 0.40 3 -0.95 5.05 -3.50 10.80 -5.90 13.20 -1.95 1.95 -2.30 2.10 -2.30 1.05z"/>
  <path d="M25.75 29 c-0.15 -0.25 -0.05 -0.50 0.20 -0.50 0.30 0 0.55 0.25 0.55 0.50 0 0.30 -0.10 0.50 -0.20 0.50 -0.15 0 -0.40 -0.20 -0.55 -0.50z"/>
  <path d="M24.50 27.50 c0 -0.35 0.15 -0.50 0.35 -0.35 0.15 0.20 0.15 0.50 0 0.70 -0.20 0.15 -0.35 0 -0.35 -0.35z"/>
  <path d="M25.80 27.25 c-0.15 -0.45 -0.30 -1.50 -0.30 -2.30 0 -1.70 -1 -1.50 -1.05 0.20 0 0.85 -0.20 0.70 -0.70 -0.65 -0.85 -2.20 -0.90 -4.15 -0.20 -4.85 0.45 -0.45 0.45 -1 0 -2.20 -0.95 -2.70 -0.30 -2.15 1.35 1.15 0.90 1.85 1.65 4.20 1.80 5.70 0.20 2.70 -0.30 4.45 -0.90 2.95z"/>
  <path d="M12.50 21.50 c0 -0.35 0.15 -0.50 0.35 -0.35 0.15 0.20 0.15 0.50 0 0.70 -0.20 0.15 -0.35 0 -0.35 -0.35z"/>
  <path d="M14.50 17.75 c0 -0.15 0.10 -0.25 0.25 -0.25 0.15 0 0.25 0.10 0.25 0.25 0 0.15 -0.10 0.25 -0.25 0.25 -0.15 0 -0.25 -0.10 -0.25 -0.25z"/>
  <path d="M19 11.75 c0 -0.40 0.25 -0.75 0.50 -0.75 0.30 0 0.50 0.35 0.50 0.75 0 0.40 -0.20 0.75 -0.50 0.75 -0.25 0 -0.50 -0.35 -0.50 -0.75z"/>
  <path d="M15.35 11 c-0.15 -0.55 -0.05 -1 0.20 -1 0.25 0 0.45 0.10 0.45 0.20 0 0.10 0.15 0.55 0.30 1 0.15 0.45 0.10 0.80 -0.20 0.80 -0.25 0 -0.60 -0.45 -0.75 -1z"/>
  <path d="M17.55 11.25 c-0.10 -1.15 1.05 -4.20 1.95 -5.25 0.55 -0.65 1 -0.90 1 -0.65 0 0.30 -0.35 0.80 -0.75 1.15 -0.40 0.35 -0.75 1 -0.75 1.45 -0.05 0.95 -1.40 4.05 -1.45 3.30z"/>
  <path d="M20.40 10.20 c-0.25 -0.20 -0.40 -1.05 -0.40 -1.90 0 -1.05 0.15 -1.35 0.55 -0.95 0.30 0.30 0.45 1.15 0.35 1.90 -0.10 0.75 -0.30 1.15 -0.50 0.95z"/>
  <path d="M15.65 5.40 c-1.80 -0.85 -1.80 -1.80 0 -1.65 1.20 0.10 1.65 0.40 1.75 1.20 0.20 1.15 -0.10 1.25 -1.75 0.45z"/>
  <path d="M21.50 4.70 c0.30 -0.70 0.40 -1.50 0.20 -1.75 -0.15 -0.25 0 -0.45 0.25 -0.45 0.30 0 0.55 0.35 0.55 0.75 0 0.85 0.80 1 1.25 0.25 0.35 -0.60 1.25 -0.20 1.25 0.55 0 0.40 -2.90 1.95 -3.70 1.95 -0.15 0 -0.05 -0.60 0.20 -1.30z"/>
 </g>
 <g fill="#b77a69">
  <path d="M21.10 32.75 c-0.35 -0.45 -1.15 -0.65 -2 -0.45 -0.75 0.10 -1.70 0 -2.10 -0.30 -0.65 -0.45 -0.65 -0.55 0 -1 0.50 -0.30 0.80 -0.30 0.90 0 0.30 0.85 1.10 0.55 1.10 -0.45 0 -0.50 0.45 -1.05 1.05 -1.20 0.70 -0.20 0.95 -0.10 0.80 0.35 -0.40 0.95 0.55 2.20 1.05 1.45 0.60 -0.95 1.60 0 1.25 1.25 -0.30 1.25 -1.10 1.40 -2.05 0.35z"/>
  <path d="M24.50 33 c0 -0.35 0.15 -0.50 0.35 -0.35 0.15 0.20 0.15 0.50 0 0.70 -0.20 0.15 -0.35 0 -0.35 -0.35z"/>
 </g>
 <g fill="#9a97b7">
  <path d="M12.50 34.75 c0 -0.15 0.10 -0.25 0.25 -0.25 0.15 0 0.25 0.10 0.25 0.25 0 0.15 -0.10 0.25 -0.25 0.25 -0.15 0 -0.25 -0.10 -0.25 -0.25z"/>
  <path d="M25.50 34.65 c-1.50 -0.25 -3.60 -1.20 -4.10 -1.90 -0.25 -0.30 -0.40 -0.20 -0.40 0.25 0 0.50 -0.15 0.55 -0.55 0.15 -0.45 -0.45 -1.20 -0.35 -3.10 0.40 -1.35 0.55 -2.85 0.90 -3.30 0.80 -0.45 -0.10 0.15 -0.45 1.35 -0.80 1.85 -0.50 2.95 -1.55 1.60 -1.55 -0.25 0 -0.50 -0.25 -0.50 -0.55 0 -0.35 0.50 -0.45 1.25 -0.25 1.15 0.30 1.50 -0.05 1.35 -1.25 -0.05 -0.20 0.40 -0.45 0.95 -0.60 0.55 -0.15 0.95 -0.05 0.90 0.30 -0.20 1.50 0.10 1.85 1.25 1.55 1.05 -0.25 1.15 -0.15 0.95 1 -0.20 0.95 -0.05 1.30 0.50 1.30 0.40 0 0.85 -0.25 0.95 -0.55 0.10 -0.35 0.80 -0.05 1.65 0.70 0.85 0.75 1.30 1.30 1 1.25 -0.25 0 -1.05 -0.15 -1.75 -0.25z"/>
  <path d="M15 28.85 c0 -0.45 0.25 -0.85 0.50 -0.85 0.30 0 0.50 -0.65 0.50 -1.50 0 -1.15 0.25 -1.50 0.95 -1.50 0.50 0 1.10 -0.35 1.25 -0.80 0.45 -1.10 0.40 -1.30 -0.25 -0.90 -0.35 0.20 -0.45 -0.05 -0.35 -0.60 0.10 -0.55 -0.15 -1.20 -0.55 -1.50 -0.65 -0.50 -0.55 -0.80 0.70 -2.25 1.40 -1.65 1.50 -1.45 0.50 1.30 -0.20 0.55 0.20 0.10 0.95 -1 0.70 -1.10 1.30 -2.60 1.30 -3.35 0 -0.80 0.25 -1.40 0.50 -1.40 0.30 0 1 -0.95 1.55 -2.10 l1 -2.15 -0.30 1.75 c-0.95 5.40 -1.40 6.90 -2.05 6.65 -0.80 -0.30 -0.95 0.65 -0.20 1.10 0.70 0.45 -2.60 6.70 -4.45 8.45 -1.20 1.15 -1.55 1.30 -1.55 0.65z"/>
  <path d="M25.90 27 c-0.20 -0.70 -0.40 -2.10 -0.40 -3.10 0 -2.65 -1 -2.95 -1.05 -0.30 l0 2.15 -0.75 -2.45 c-0.65 -2 -0.65 -2.70 -0.15 -3.60 0.30 -0.60 0.45 -1.55 0.25 -2.05 -0.20 -0.60 0 -0.50 0.70 0.35 1.45 1.80 2.10 4.35 1.90 7.50 -0.10 2.15 -0.25 2.45 -0.50 1.50z"/>
  <path d="M15.55 11.20 c0 -0.55 0.15 -0.70 0.30 -0.30 0.15 0.35 0.10 0.80 -0.05 0.95 -0.15 0.20 -0.30 -0.10 -0.25 -0.65z"/>
  <path d="M19.25 11.50 c0.15 -0.25 0.40 -0.50 0.55 -0.50 0.10 0 0.20 0.25 0.20 0.50 0 0.30 -0.25 0.50 -0.55 0.50 -0.25 0 -0.35 -0.20 -0.20 -0.50z"/>
  <path d="M17.50 10.50 c0 -0.35 0.15 -0.50 0.35 -0.35 0.15 0.20 0.15 0.50 0 0.70 -0.20 0.15 -0.35 0 -0.35 -0.35z"/>
  <path d="M20 8.40 c0 -1.25 0.15 -1.45 0.50 -0.90 0.65 1 0.65 2.50 0 2.50 -0.25 0 -0.50 -0.75 -0.50 -1.60z"/>
  <path d="M18 8.80 c0 -0.40 0.25 -0.90 0.50 -1.05 0.30 -0.15 0.50 0.05 0.50 0.45 0 0.40 -0.20 0.90 -0.50 1.05 -0.25 0.15 -0.50 -0.05 -0.50 -0.45z"/>
  <path d="M16.10 5.40 c-0.90 -0.90 -0.70 -1.40 0.40 -1.40 0.55 0 1 0.30 1 0.70 0 1.05 -0.75 1.35 -1.40 0.70z"/>
  <path d="M21.50 5 c0 -0.55 0.30 -1 0.65 -1 0.30 0 1.15 -0.15 1.80 -0.35 1.75 -0.45 1.10 0.80 -0.85 1.65 -1.50 0.60 -1.60 0.60 -1.60 -0.30z"/>
  <path d="M14.50 3.75 c0 -0.15 0.10 -0.25 0.25 -0.25 0.15 0 0.25 0.10 0.25 0.25 0 0.15 -0.10 0.25 -0.25 0.25 -0.15 0 -0.25 -0.10 -0.25 -0.25z"/>
 </g>
 <g fill="#afabcd">
  <path d="M14 34.25 c0 -0.15 0.10 -0.25 0.25 -0.25 0.15 0 0.25 0.10 0.25 0.25 0 0.15 -0.10 0.25 -0.25 0.25 -0.15 0 -0.25 -0.10 -0.25 -0.25z"/>
  <path d="M22.85 33.70 c-0.95 -0.50 -1.35 -1.05 -1.15 -1.55 0.15 -0.40 0.30 -0.85 0.30 -0.95 0 -0.10 0.30 -0.20 0.70 -0.20 0.45 0 0.60 0.40 0.45 1.20 -0.25 1.25 1.25 2.30 1.85 1.25 0.25 -0.35 0.50 -0.40 0.70 -0.05 0.15 0.25 -0.05 0.65 -0.50 0.80 -0.95 0.35 -0.65 0.40 -2.35 -0.50z"/>
  <path d="M18 32.50 c0 -0.25 -0.35 -0.50 -0.75 -0.50 -0.40 0 -0.75 -0.20 -0.75 -0.50 0 -0.25 0.35 -0.50 0.75 -0.50 0.40 0 0.75 0.25 0.75 0.50 0 1 0.90 0.45 1.20 -0.75 0.40 -1.60 1.20 -1.60 1.60 0 0.35 1.50 0.35 1.50 -1.40 1.95 -0.85 0.20 -1.40 0.10 -1.40 -0.20z"/>
  <path d="M15.60 28 c0.35 -0.55 0.80 -1 1 -1 0.25 0 0.15 0.45 -0.20 1 -0.35 0.55 -0.80 1 -1 1 -0.25 0 -0.15 -0.45 0.20 -1z"/>
  <path d="M25.80 24.25 c-0.60 -3.05 -0.65 -3.20 -1.75 -2.90 -1.30 0.35 -1.30 -0.10 -0.10 -1.65 l0.90 -1.15 0.85 1.90 c0.50 1.10 0.80 2.70 0.70 3.85 l-0.20 1.95 -0.40 -2z"/>
  <path d="M18.65 22.75 c-0.30 -0.70 -0.35 -1.35 -0.10 -1.55 0.25 -0.15 0.45 0 0.45 0.25 0 0.30 0.25 0.55 0.50 0.55 0.30 0 0.30 -0.35 -0.05 -0.95 -0.50 -0.75 -0.25 -1.55 1.25 -4.60 l1.80 -3.70 -0.20 2.45 c-0.10 1.35 -0.45 2.60 -0.80 2.80 -0.40 0.25 -0.45 0.45 -0.05 0.55 0.30 0.15 0.05 1.20 -0.75 2.85 -0.65 1.40 -1.30 2.60 -1.35 2.60 -0.05 0 -0.35 -0.55 -0.70 -1.25z"/>
  <path d="M16.80 20.55 c-0.15 -0.20 0.15 -0.80 0.70 -1.30 1 -0.90 1.25 -0.55 0.70 0.95 -0.35 0.90 -1 1.05 -1.40 0.35z"/>
  <path d="M23.05 11.20 c0 -0.55 0.15 -0.70 0.30 -0.30 0.15 0.35 0.10 0.80 -0.05 0.95 -0.15 0.20 -0.30 -0.10 -0.25 -0.65z"/>
  <path d="M15.50 11 c0 -0.35 0.15 -0.50 0.35 -0.35 0.15 0.20 0.15 0.50 0 0.70 -0.20 0.15 -0.35 0 -0.35 -0.35z"/>
  <path d="M20.10 8.50 c0 -0.70 0.10 -0.95 0.25 -0.60 0.10 0.30 0.10 0.90 0 1.25 -0.15 0.30 -0.25 0.05 -0.25 -0.65z"/>
  <path d="M18 8.75 c0 -0.15 0.10 -0.25 0.25 -0.25 0.15 0 0.25 0.10 0.25 0.25 0 0.15 -0.10 0.25 -0.25 0.25 -0.15 0 -0.25 -0.10 -0.25 -0.25z"/>
  <path d="M16.25 4.95 c-0.50 -0.75 0.15 -1.25 0.80 -0.60 0.35 0.35 0.35 0.65 0.05 0.85 -0.30 0.15 -0.70 0.05 -0.85 -0.25z"/>
  <path d="M22 4.75 c0 -0.45 0.25 -0.65 0.50 -0.50 0.30 0.20 0.85 0.05 1.25 -0.25 0.60 -0.50 0.75 -0.45 0.75 0.20 0 0.45 -0.20 0.80 -0.45 0.80 -0.25 0 -0.80 0.15 -1.25 0.30 -0.55 0.20 -0.80 0.05 -0.80 -0.55z"/>
 </g>
 <g fill="#ecc57f">
  <path d="M22 32.30 c0 -0.80 0.30 -1.30 0.70 -1.30 0.45 0 0.60 0.35 0.45 1 -0.40 1.55 -1.15 1.70 -1.15 0.30z"/>
  <path d="M18.75 32 c0.15 -0.25 0.40 -0.50 0.55 -0.50 0.10 0 0.20 0.25 0.20 0.50 0 0.30 -0.25 0.50 -0.55 0.50 -0.25 0 -0.35 -0.20 -0.20 -0.50z"/>
  <path d="M20.55 31.70 c0 -0.55 0.15 -0.70 0.30 -0.30 0.15 0.35 0.10 0.80 -0.05 0.95 -0.15 0.20 -0.30 -0.10 -0.25 -0.65z"/>
  <path d="M16.50 31.50 c0 -0.25 0.35 -0.50 0.75 -0.50 0.40 0 0.75 0.25 0.75 0.50 0 0.30 -0.35 0.50 -0.75 0.50 -0.40 0 -0.75 -0.20 -0.75 -0.50z"/>
 </g>
 <g fill="#c2bfdf">
  <path d="M22 32.80 c0 -0.45 0.25 -0.80 0.50 -0.80 0.30 0 0.50 0.20 0.50 0.45 0 0.30 -0.20 0.65 -0.50 0.80 -0.25 0.15 -0.50 -0.05 -0.50 -0.45z"/>
  <path d="M18.90 31.90 c0.35 -0.35 0.60 -1 0.60 -1.50 0 -1.25 0.80 -1.10 1.20 0.25 0.45 1.75 0.40 1.85 -1.05 1.85 -1.05 0 -1.20 -0.15 -0.75 -0.60z"/>
  <path d="M26.15 25.75 c0 -1.10 0.10 -1.50 0.20 -0.85 0.10 0.60 0.10 1.50 0 2 -0.15 0.45 -0.25 -0.05 -0.20 -1.15z"/>
  <path d="M19 22.80 c0 -0.45 0.25 -0.80 0.50 -0.80 0.30 0 0.50 0.20 0.50 0.45 0 0.30 -0.20 0.65 -0.50 0.80 -0.25 0.15 -0.50 -0.05 -0.50 -0.45z"/>
  <path d="M25.50 23.25 c0.35 -1.60 -0.05 -2.35 -1 -2.10 -1.20 0.30 -1.35 -0.75 -0.25 -1.65 0.65 -0.50 0.85 -0.35 1.55 1.25 0.55 1.40 0.60 2 0.20 2.45 -0.30 0.30 -0.55 0.35 -0.50 0.05z"/>
  <path d="M19.50 21 c-0.65 -0.40 -0.45 -1 1.15 -4.10 l1.85 -3.65 -0.30 2.75 c-0.25 2.25 -1.35 5.55 -1.85 5.50 -0.05 0 -0.45 -0.25 -0.85 -0.50z"/>
  <path d="M17 20.30 c0 -0.35 0.40 -1 0.85 -1.35 0.75 -0.60 0.80 -0.60 0.50 0.20 -0.20 0.50 -0.35 1.15 -0.35 1.40 0 0.25 -0.20 0.45 -0.50 0.45 -0.25 0 -0.50 -0.30 -0.50 -0.70z"/>
  <path d="M20.05 8.20 c0 -0.55 0.15 -0.70 0.30 -0.30 0.15 0.35 0.10 0.80 -0.05 0.95 -0.15 0.20 -0.30 -0.10 -0.25 -0.65z"/>
  <path d="M22 5.05 c0 -0.15 0.55 -0.55 1.25 -0.90 1 -0.45 1.25 -0.40 1.25 0.10 0 0.35 -0.55 0.75 -1.25 0.85 -0.70 0.15 -1.25 0.10 -1.25 -0.05z"/>
 </g>
 <g fill="#dcdaf3">
  <path d="M22 32.50 c0 -0.25 0.25 -0.50 0.55 -0.50 0.25 0 0.35 0.25 0.20 0.50 -0.15 0.30 -0.40 0.50 -0.55 0.50 -0.10 0 -0.20 -0.20 -0.20 -0.50z"/>
  <path d="M19.70 31.75 c-0.20 -0.40 -0.15 -1.15 0.05 -1.60 0.35 -0.85 0.40 -0.80 0.75 0.10 0.25 0.55 0.45 1.30 0.45 1.65 0.05 0.85 -0.90 0.75 -1.25 -0.15z"/>
  <path d="M19.55 21.05 c-0.55 -0.35 -0.30 -1.15 1.20 -4.10 l1.85 -3.70 -0.35 2.50 c-0.35 2.25 -1.45 5.75 -1.85 5.75 -0.10 0 -0.45 -0.20 -0.85 -0.45z"/>
  <path d="M17 20.55 c0 -0.25 0.30 -0.70 0.70 -1 0.60 -0.50 0.65 -0.40 0.45 0.40 -0.25 1.05 -1.15 1.50 -1.15 0.60z"/>
  <path d="M23 4.80 c0 -0.10 0.35 -0.45 0.75 -0.80 0.45 -0.35 0.75 -0.40 0.75 -0.10 0 0.25 -0.35 0.60 -0.75 0.80 -0.40 0.15 -0.75 0.20 -0.75 0.10z"/>
 </g>
 <g fill="#f6f7fb">
  <path d="M19.65 31.25 c-0.40 -1.10 0.30 -1.65 0.85 -0.75 0.65 1 0.60 1.50 0 1.50 -0.30 0 -0.65 -0.35 -0.85 -0.75z"/>
  <path d="M19.35 20.70 c-0.35 -0.35 1.75 -4.65 2.30 -4.70 0.55 0 0.45 1.45 -0.25 3.35 -0.55 1.55 -1.35 2.05 -2.05 1.35z"/>
 </g>
</svg>