<?xml version="1.0" encoding="utf-8"?>
<!DOCTYPE svg PUBLIC "-//W3C//DTD SVG 1.0//EN" "http://www.w3.org/TR/2001/REC-SVG-20010904/DTD/svg10.dtd">
<svg version="1.0" xmlns="http://www.w3.org/2000/svg" width="40px" height="40px" viewBox="0 0 40 40" preserveAspectRatio="xMidYMid meet">
 <g fill="#0d0704">
  <path d="M5 38.85 c0 -1.35 1.40 -2.85 2.65 -2.85 0.45 0 0.85 -0.40 0.85 -0.85 0 -1.65 2.25 -3.25 4.35 -3.05 l1.90 0.15 0.15 3.90 c0.15 3.55 0.05 3.85 -0.85 3.85 -0.90 0 -1 -0.30 -0.90 -2.80 0.10 -1.50 -0.05 -2.90 -0.25 -3 -0.45 -0.30 -1.70 0.75 -4.55 3.70 -2.30 2.35 -3.35 2.65 -3.35 0.95z"/>
  <path d="M0.50 35.45 c0 -0.25 0.75 -0.80 1.70 -1.20 1.25 -0.55 1.80 -1.15 2.05 -2.25 0.20 -0.85 1.10 -2.55 2.05 -3.75 0.95 -1.25 1.70 -2.65 1.70 -3.15 0.05 -1.90 1.95 -5.05 3.60 -5.90 0.90 -0.45 1.70 -0.85 1.75 -0.90 0.20 -0.15 -1.35 -5.45 -1.75 -6 -0.25 -0.30 -0.70 -1.50 -1 -2.70 -0.40 -1.80 -0.35 -2.45 0.50 -4.20 1.45 -2.95 3.50 -5.40 4.55 -5.40 1.25 0 1.10 2 -0.15 2.35 -0.55 0.15 -1 0.55 -1 0.95 0 0.35 -0.45 1.45 -1.05 2.40 -0.95 1.60 -0.95 1.85 -0.25 2.10 0.50 0.20 0.80 0.90 0.80 1.90 0 0.90 0.25 2.95 0.55 4.55 0.60 3.40 0.25 6.25 -0.85 6.25 -1.45 0 -3.20 2.40 -3.55 4.75 -0.15 1.40 -0.55 2.25 -0.95 2.25 -0.40 0 -0.70 0.35 -0.70 0.80 0 0.45 -0.40 1.40 -0.95 2.10 -0.50 0.75 -1.10 1.85 -1.25 2.50 -0.20 0.65 -0.75 1.10 -1.35 1.10 -0.60 0 -0.95 0.35 -0.95 1 0 0.80 -0.35 1 -1.75 1 -0.95 0 -1.75 -0.25 -1.75 -0.55z"/>
  <path d="M37.10 33.75 c-0.35 -1.25 -0.60 -3.50 -0.60 -5 0 -4.90 -2.55 -8.90 -6.20 -9.75 -1.25 -0.25 -3.20 -0.85 -4.30 -1.30 -1.70 -0.70 -2 -1.05 -2 -2.25 0 -0.80 0.25 -1.45 0.50 -1.45 0.30 0 0.50 0.20 0.50 0.40 0 0.55 3.05 1.90 6 2.65 3.25 0.80 4.75 2.10 6.25 5.30 1.15 2.35 1.30 3.25 1.05 5.20 -0.25 1.90 -0.10 2.90 0.70 4.55 1.35 2.80 1.30 3.90 -0.15 3.90 -0.95 0 -1.25 -0.40 -1.75 -2.25z"/>
  <path d="M23.50 12.10 c0 -0.80 0.25 -2.70 0.50 -4.25 0.45 -2.30 0.40 -3.10 -0.25 -4.30 -0.40 -0.85 -0.75 -1.95 -0.75 -2.55 0 -1.70 1.40 -1.10 2.55 1.05 1.10 2.20 1.05 5.45 -0.15 9.60 -0.65 2.20 -1.90 2.50 -1.90 0.45z"/>
  <path d="M16.60 9.15 c0.15 -1.80 0.25 -1.90 2.05 -2.05 l1.90 -0.15 -0.15 1.90 c-0.15 1.80 -0.25 1.90 -2.05 2.05 l-1.90 0.15 0.15 -1.90z"/>
 </g>
 <g fill="#24140d">
  <path d="M4.50 38.75 c0 -0.90 0.25 -1.25 1 -1.25 0.65 0 1 -0.35 1 -0.90 0 -1.15 0.95 -2.10 2.10 -2.10 0.50 0 0.90 -0.35 0.90 -0.75 0 -0.40 0.35 -0.75 0.75 -0.75 0.40 0 0.75 -0.35 0.75 -0.80 0 -0.60 0.45 -0.70 1.90 -0.60 1.75 0.15 1.85 0.25 2 2.05 0.10 1.40 0 1.85 -0.60 1.85 -0.45 0 -0.80 -0.30 -0.80 -0.70 0 -1.75 -1.30 -1.20 -4.35 1.90 -3.55 3.55 -4.65 4.05 -4.65 2.05z"/>
  <path d="M13.20 39.25 c0.15 -0.45 0.30 -1.40 0.30 -2.05 0 -0.90 0.25 -1.20 1.05 -1.20 0.85 0 1 0.25 0.85 1.90 -0.10 1.50 -0.35 1.90 -1.35 2 -0.95 0.15 -1.10 0 -0.85 -0.65z"/>
  <path d="M31.80 38.70 c0.25 -0.90 0 -1.70 -0.80 -2.85 -0.65 -0.85 -1.30 -2.20 -1.50 -3.05 l-0.30 -1.55 -1 1.50 c-0.65 1.05 -0.95 2.25 -0.90 4.10 0.05 2.30 -0.05 2.65 -0.85 2.65 -0.85 0 -0.95 -0.40 -0.95 -3.25 0 -2.55 0.30 -3.80 1.30 -5.75 1.20 -2.25 1.45 -2.50 3 -2.50 1.65 0 1.70 0.05 1.70 1.95 0 2.95 0.55 5.05 1.30 5.05 0.50 0 0.70 0.70 0.70 2.50 0 2.15 -0.15 2.50 -1 2.50 -0.85 0 -0.95 -0.20 -0.70 -1.30z"/>
  <path d="M0 36.05 c0 -0.65 0.55 -1.15 1.75 -1.55 0.95 -0.30 2 -1 2.25 -1.55 0.80 -1.45 1.50 -1.15 1.50 0.75 0 1.50 -0.20 1.75 -2.15 2.50 -2.75 1.05 -3.35 1 -3.35 -0.15z"/>
  <path d="M37.05 34.30 c-0.75 -3.05 -0.70 -4.80 0.15 -4.80 0.45 0 0.95 1 1.35 2.50 0.35 1.40 0.80 2.50 1.05 2.50 0.20 0 0.40 0.45 0.40 1 0 0.70 -0.35 1 -1.20 1 -1 0 -1.25 -0.35 -1.75 -2.20z"/>
  <path d="M7.30 27.05 c0.80 -1.10 1.65 -2.05 1.85 -2.05 0.25 0 0.35 0.85 0.25 1.90 -0.15 1.70 -0.30 1.85 -1.85 2 l-1.65 0.15 1.40 -2z"/>
  <path d="M35.45 24 c-0.35 -1.10 -0.80 -2 -1.05 -2 -0.20 0 -0.40 -0.45 -0.40 -1 0 -0.65 -0.35 -1 -1 -1 -0.55 0 -1 -0.20 -1 -0.50 0 -0.25 -0.60 -0.50 -1.35 -0.50 -0.80 0 -2.25 -0.25 -3.25 -0.55 -1.55 -0.40 -1.90 -0.75 -1.90 -1.70 0 -0.70 0.05 -1.25 0.15 -1.25 0.05 0 1.30 0.45 2.75 1 1.45 0.55 3.05 1 3.55 1 1.45 0 3.80 2.25 5 4.75 1.30 2.80 1.35 3.75 0.05 3.75 -0.70 0 -1.10 -0.55 -1.55 -2z"/>
  <path d="M8.60 23.15 c1.20 -2.50 1.80 -3.20 3.25 -3.90 1.45 -0.70 1.70 -1.05 1.45 -2.05 -0.30 -1.05 -0.15 -1.20 0.95 -1.20 1.10 0 1.25 0.20 1.25 1.65 0 2 -0.40 2.60 -2 3.10 -1.35 0.45 -2.50 1.40 -2.50 2.20 0 0.30 -0.60 0.55 -1.30 0.55 -0.70 0 -1.20 -0.15 -1.10 -0.35z"/>
  <path d="M16 9.75 c0 -2.80 1.35 -3.90 4.60 -3.65 2 0.15 2.15 0.25 2.30 1.70 0.10 0.80 -0.10 2.10 -0.35 2.85 -0.50 1.25 -0.75 1.35 -3.55 1.35 l-3 0 0 -2.25z"/>
  <path d="M24 7.50 c0 -1.65 0.15 -2 1 -2 1.05 0 1.25 0.80 0.70 2.90 -0.55 1.95 -1.70 1.35 -1.70 -0.90z"/>
  <path d="M13 2.50 c1.55 -2.20 2 -2.25 2 -0.30 0 1.65 -0.10 1.80 -1.55 1.80 l-1.50 0 1.05 -1.50z"/>
 </g>
 <g fill="#321a12">
  <path d="M4.90 38.15 c-0.10 -1.55 -0.35 -1.95 -1.25 -2.05 -0.65 -0.10 -1.15 0.05 -1.15 0.35 0 0.30 -0.55 0.55 -1.25 0.55 -1.95 0 -1.55 -1.45 0.65 -2.35 1.30 -0.50 2.10 -1.20 2.45 -2.20 0.55 -1.35 1.65 -2.05 1.65 -0.95 0 0.30 0.40 0.50 0.95 0.50 1 0 1.55 1.25 1.55 3.65 0 1.20 -2.25 4.35 -3.15 4.35 -0.15 0 -0.35 -0.85 -0.45 -1.85z"/>
  <path d="M13.55 36.45 c-0.10 -3.20 -0.15 -3.35 -2.05 -3.05 l-1.50 0.20 0 -2.80 c0 -2.80 0 -2.80 -1.55 -2.80 -1.45 0 -1.50 -0.05 -0.75 -1.10 0.45 -0.60 0.80 -1.65 0.80 -2.30 0 -1.40 0.85 -3.10 1.50 -3.10 0.30 0 0.50 1.35 0.50 3 l0 3.05 1.75 -0.35 c0.95 -0.15 2.30 -0.15 3 0 1.05 0.25 1.25 0.60 1.25 2.05 0 1.55 -0.15 1.70 -1.60 1.90 l-1.65 0.20 1.65 0.05 c1.50 0.10 1.60 0.20 1.60 2.10 0 1.10 -0.20 2 -0.50 2 -0.25 0 -0.50 0.80 -0.50 1.75 0 1.35 -0.20 1.75 -0.90 1.75 -0.80 0 -0.95 -0.45 -1.05 -2.55z"/>
  <path d="M32 37.85 c0 -0.45 -0.60 -1.65 -1.30 -2.70 -1.05 -1.50 -1.20 -2.25 -1 -3.75 0.20 -1.05 0.20 -1.90 0.10 -1.90 -0.40 0 -2.80 5.05 -2.80 5.95 0 0.95 -0.35 1.05 -5.60 1.85 l-1.85 0.30 -0.35 -3 c-0.25 -2.35 -0.50 -3.05 -1.25 -3.25 -0.70 -0.20 -0.95 -0.70 -0.95 -2.05 l0 -1.80 3.25 0 3.25 0 0 1.75 c0 1.55 -0.15 1.75 -1.35 1.75 -1.30 0 -1.20 0.10 0.80 1.15 1.60 0.80 2.25 0.95 2.40 0.50 0.15 -0.35 0.55 -0.65 0.90 -0.65 0.35 0 0.75 -0.65 0.85 -1.50 0.20 -1.30 0.10 -1.50 -1 -1.50 -1.15 0 -1.20 -0.10 -1 -2.50 0.20 -1.75 0.05 -2.50 -0.45 -2.70 -0.35 -0.15 -0.65 -1 -0.65 -2.05 0 -1.70 0.05 -1.75 2 -1.75 1.95 0 2 0.05 2 1.75 0 0.95 0.25 1.75 0.50 1.75 0.30 0 0.50 0.35 0.50 0.75 0 0.45 0.45 0.75 1.25 0.75 1.25 0 1.25 0.05 1.25 4.25 0 2.50 0.20 4.25 0.50 4.25 0.30 0 0.50 0.35 0.50 0.80 0 0.60 0.30 0.75 1.15 0.50 0.60 -0.15 1.60 -0.30 2.25 -0.30 0.85 0 1.10 -0.30 1.10 -1.25 0 -0.70 -0.20 -1.25 -0.50 -1.25 -0.25 0 -0.50 -1 -0.50 -2.25 0 -1.85 0.15 -2.25 0.95 -2.25 0.75 0 0.95 0.50 1.20 2.75 0.15 1.50 0.65 3.45 1.05 4.35 1.05 2.10 1 2.40 -0.40 2.40 -0.65 0 -1.30 0.25 -1.40 0.55 -0.10 0.30 -1.35 0.70 -2.80 0.85 -2.15 0.20 -2.60 0.10 -2.60 -0.55z"/>
  <path d="M35.50 23.75 c0 -1.85 1.15 -2.50 1.65 -0.85 0.10 0.45 0.40 1.25 0.60 1.75 0.30 0.70 0.10 0.85 -0.95 0.85 -1.15 0 -1.30 -0.20 -1.30 -1.75z"/>
  <path d="M33 20.50 c-0.40 -0.55 -1 -1 -1.35 -1 -0.35 0 -0.65 -0.45 -0.65 -1 0 -1.90 3.10 -0.70 4.75 1.80 0.75 1.15 0.75 1.20 -0.65 1.20 -0.80 0 -1.65 -0.40 -2.10 -1z"/>
  <path d="M12 19.50 c0 -0.25 0.30 -0.50 0.70 -0.50 0.95 0 1.35 -1.25 0.65 -1.95 -0.40 -0.40 -0.20 -0.55 0.80 -0.55 1.20 0 1.35 0.20 1.35 1.75 0 1.65 -0.10 1.75 -1.75 1.75 -0.95 0 -1.75 -0.20 -1.75 -0.50z"/>
  <path d="M24.20 17.10 c-0.30 -0.20 -0.65 -0.75 -0.85 -1.20 -0.15 -0.50 -0.80 -0.90 -1.35 -0.90 -0.75 0 -1 -0.35 -1 -1.45 0 -2.45 0.45 -3.05 2.30 -3.05 1.70 0 1.70 0.05 1.70 2.20 0 1.95 0.20 2.35 1.50 3.15 0.85 0.45 1.50 1.05 1.50 1.25 0 0.50 -3.05 0.50 -3.80 0z"/>
 </g>
 <g fill="#3f1a13">
  <path d="M0 38.75 c0 -0.85 0.30 -1.25 0.90 -1.25 0.45 -0.05 1.40 -0.35 2.05 -0.70 1.10 -0.60 1.15 -0.70 0.30 -1.15 -0.85 -0.50 -0.80 -0.60 0.20 -1.60 0.55 -0.55 1.05 -1.40 1.05 -1.85 0 -0.60 0.45 -0.75 1.75 -0.65 1.25 0.15 1.95 -0.10 2.45 -0.80 1.05 -1.35 1.05 -3.75 0 -3.75 -0.45 0 -0.60 -0.25 -0.40 -0.55 0.20 -0.35 0.40 -1.35 0.45 -2.30 0.15 -2.55 1.70 -4.35 3.90 -4.55 1.80 -0.15 1.85 -0.10 1.85 1.55 0 1.45 -0.25 1.85 -1.50 2.35 -1.95 0.80 -2.10 2.75 -0.25 3.10 0.70 0.15 1.40 0.05 1.55 -0.15 0.40 -0.65 2.80 -0.55 4.35 0.20 1.45 0.65 1.85 2.35 0.55 2.35 -0.40 0 -0.60 0.25 -0.45 0.50 0.20 0.30 0.55 0.40 0.80 0.25 0.25 -0.20 0.45 0.05 0.45 0.55 0 0.70 -0.45 0.80 -3.25 0.60 -4.45 -0.30 -3.35 0.50 1.25 0.90 4.25 0.35 6.50 1.10 6.55 2.20 0 0.50 0.10 0.55 0.30 0.15 0.35 -1 2.10 -0.80 2.05 0.25 -0.05 0.45 0.10 1.90 0.30 3.25 l0.35 2.35 -3.70 0 c-2.05 0 -5.10 -0.15 -6.80 -0.30 l-3.05 -0.35 0 -1.75 0 -1.75 2.50 0.25 c1.35 0.15 2.50 0.05 2.50 -0.15 0 -0.25 -1.25 -0.45 -2.75 -0.45 -2.60 0 -3.65 -0.70 -2 -1.30 1.20 -0.45 0.90 -1 -0.55 -0.95 -0.85 0.05 -2.45 1.20 -4.80 3.40 -3.45 3.30 -3.55 3.35 -6.20 3.35 -2.55 0 -2.70 -0.05 -2.70 -1.25z m22.50 -3.90 c0 -0.35 -0.45 -0.90 -1 -1.25 -1 -0.60 -1.05 -0.60 -0.20 0.65 0.90 1.40 1.20 1.55 1.20 0.60z m-10.65 -5.20 c-0.15 -0.50 -0.25 -0.10 -0.25 0.85 0 0.95 0.10 1.35 0.25 0.90 0.10 -0.50 0.10 -1.30 0 -1.75z"/>
  <path d="M37.50 39.45 c0 -0.40 -0.85 -0.50 -2.75 -0.25 -2.65 0.30 -2.75 0.25 -2.75 -0.90 0 -0.95 0.30 -1.30 1.40 -1.45 1.30 -0.20 1.30 -0.20 -0.20 -0.30 -1.10 -0.05 -1.85 -0.45 -2.40 -1.30 l-0.80 -1.25 2.10 -0.05 c1.20 0 1.85 -0.15 1.55 -0.30 -0.40 -0.10 -0.65 -1.10 -0.65 -2.20 0 -1.05 -0.20 -1.95 -0.50 -1.95 -0.25 0 -0.50 0.45 -0.50 1 0 0.65 -0.35 1 -1 1 -0.85 0 -1 -0.35 -1.05 -2.60 l-0.05 -2.65 -0.45 2.20 c-0.55 2.80 -0.95 3.20 -0.95 1 -0.05 -1.40 -0.10 -1.55 -0.55 -0.80 -0.25 0.45 -0.75 0.85 -1 0.85 -0.30 0 -0.85 0.35 -1.25 0.75 -1 1 -5.20 1.05 -5.20 0.05 0 -0.40 0.40 -0.85 0.90 -0.95 0.80 -0.20 0.80 -0.25 0 -0.30 -1.50 -0.10 -1 -1.45 0.65 -1.80 0.85 -0.20 1.95 -0.75 2.50 -1.30 1 -1 0.80 -2.45 -0.35 -2.45 -0.40 0 -0.85 -0.35 -1 -0.75 -0.20 -0.40 -0.85 -0.75 -1.50 -0.75 -1 0 -1.20 -0.25 -1.20 -1.60 0.05 -2.35 1 -3.40 3.20 -3.40 1.60 0 1.80 0.15 1.80 1.25 0 0.80 0.30 1.25 0.75 1.25 0.40 0 0.75 0.25 0.75 0.50 0 0.30 0.30 0.50 0.70 0.50 0.40 0 0.80 0.80 1 2 0.25 1.45 0.55 2 1.20 2 1.60 0 3.10 1.45 3.15 3.15 0.05 1.50 0.10 1.45 0.40 -0.40 0.20 -1.10 0.55 -2.30 0.80 -2.70 0.25 -0.40 0.40 -1.75 0.35 -3 l-0.10 -2.30 1.25 1.40 c0.70 0.75 1.25 1.85 1.25 2.35 0 0.50 0.25 1.10 0.55 1.25 0.30 0.20 0.50 1.70 0.45 3.40 -0.10 3.40 0.55 7.10 1.45 8 0.30 0.30 0.55 1.40 0.55 2.45 0 1.70 -0.15 1.90 -1.25 1.90 -0.70 0 -1.25 -0.25 -1.25 -0.55z"/>
  <path d="M21 14.25 c0 -1.70 0.05 -1.75 1.90 -1.75 1.65 0 1.85 0.15 1.95 1.30 0 0.75 0.35 1.50 0.75 1.75 0.40 0.30 -0.35 0.45 -1.95 0.45 l-2.65 0 0 -1.75z"/>
 </g>
 <g fill="#392a1d">
  <path d="M23.90 36.15 c-0.50 -0.10 -0.90 -0.50 -0.90 -0.90 0 -0.75 -2.25 -2.35 -2.70 -1.90 -0.15 0.15 -0.05 0.70 0.25 1.20 0.65 1.20 -0.15 1.25 -1.20 0.05 -0.50 -0.55 -0.85 -1.75 -0.85 -2.90 0 -1.90 0.10 -2 1.65 -2.10 1.30 -0.10 1.75 0.15 2.45 1.40 0.75 1.30 1.15 1.50 3.05 1.50 l2.20 0 -0.95 2 c-1 1.95 -1.25 2.10 -3 1.65z"/>
  <path d="M4.85 31.05 c0.15 -0.50 0.90 -1.70 1.65 -2.60 l1.45 -1.70 0.05 1.90 c0 1 -0.20 1.85 -0.50 1.85 -0.25 0 -0.50 0.35 -0.50 0.75 0 0.45 -0.45 0.75 -1.20 0.75 -0.95 0 -1.15 -0.20 -0.95 -0.95z"/>
  <path d="M12 30 c0 -1.15 -0.25 -2 -0.55 -2 -0.30 0 -0.45 0.35 -0.25 0.75 0.15 0.40 0.05 1.25 -0.20 1.85 -0.35 0.95 -0.45 0.80 -0.45 -0.95 l-0.05 -2.15 2.80 0 c1.70 0 2.65 0.20 2.45 0.50 -0.15 0.30 -0.80 0.50 -1.40 0.50 -0.85 0 -0.95 0.10 -0.40 0.45 0.40 0.25 1 0.35 1.40 0.20 0.40 -0.15 0.65 0.10 0.65 0.80 0 0.70 -0.30 1.05 -1 1.05 -0.55 0 -1 0.25 -1 0.50 0 0.30 -0.45 0.50 -1 0.50 -0.85 0 -1 -0.35 -1 -2z"/>
  <path d="M15 19.75 c0 -0.45 -0.45 -1.25 -1 -1.85 -0.55 -0.60 -1 -1.65 -1 -2.35 0 -0.70 -0.45 -2.05 -1 -2.95 -1.20 -1.95 -1.20 -2.10 -0.25 -2.10 1.05 0 0.95 -0.45 -0.35 -1.50 -1.05 -0.80 -1.05 -0.95 -0.35 -2.75 0.85 -2.30 1.95 -2.90 1.95 -1.05 0 0.95 0.25 1.30 1 1.30 0.65 0 1 0.35 1 0.95 0 0.70 0.30 0.85 1.25 0.65 0.80 -0.15 1.25 -0.55 1.25 -1.15 0 -0.70 0.50 -1 2 -1.25 1.20 -0.20 2 -0.60 2 -1 0 -1.75 1.30 -4.70 2.05 -4.70 1.45 0 2.60 3.55 2.25 6.85 -0.60 5.15 -1.35 7.70 -2.25 7.60 -2.50 -0.25 -3.05 0.05 -3.05 1.55 0 1.15 -0.20 1.50 -1 1.50 -0.80 0 -1 0.35 -1 1.50 0 1.40 -0.15 1.50 -1.75 1.50 -1.25 0 -1.75 -0.20 -1.75 -0.75z m1.50 -4 c0 -0.90 -0.25 -1.25 -0.95 -1.25 -0.70 0 -0.85 0.30 -0.65 1.25 0.10 0.70 0.55 1.25 0.90 1.25 0.40 0 0.70 -0.50 0.70 -1.25z m2.50 -2.50 c0 -0.45 -0.30 -0.60 -0.75 -0.45 -0.40 0.20 -0.75 0.50 -0.75 0.75 0 0.25 0.35 0.45 0.75 0.45 0.40 0 0.75 -0.35 0.75 -0.75z m1.70 -3.20 c0.20 -0.25 -0.20 -0.35 -0.75 -0.20 -0.80 0.20 -1 0.10 -0.85 -0.40 0.10 -0.35 0.75 -0.80 1.45 -1 1.05 -0.25 1.10 -0.35 0.30 -0.70 -1.05 -0.45 -3.35 0.95 -3.35 2 0 0.85 2.75 1.05 3.20 0.30z"/>
  <path d="M13.60 1.90 c1.55 -2 2.90 -2.40 2.90 -0.90 0 1.45 -1.15 2.50 -2.80 2.50 l-1.35 0 1.25 -1.60z"/>
 </g>
 <g fill="#49231c">
  <path d="M14 38.25 c0 -1.65 0.10 -1.75 1.75 -1.75 1.65 0 1.75 0.10 1.75 1.75 0 1.65 -0.10 1.75 -1.75 1.75 -1.65 0 -1.75 -0.10 -1.75 -1.75z"/>
  <path d="M23 37 c0 -1.65 -0.20 -3 -0.50 -3 -0.55 0 -1.75 -1.80 -2.25 -3.35 -0.30 -1.05 -0.15 -1.15 1.35 -1.15 0.90 0 1.95 -0.20 2.35 -0.45 0.40 -0.25 -0.20 -0.35 -1.65 -0.20 -2.10 0.25 -2.30 0.20 -2.30 -0.80 0 -0.85 0.30 -1.05 1.45 -1.05 1.50 0 3.55 -1.90 3.55 -3.30 0 -0.45 0.60 -0.70 1.75 -0.70 0.95 0 1.75 0.25 1.75 0.50 0 0.30 0.45 0.50 0.95 0.50 0.55 0 1.15 0.45 1.30 1 0.40 1.30 2.05 1.30 2.85 0 0.35 -0.55 1.15 -1 1.75 -1 1.35 0 1.40 0.10 0.35 2.05 -0.40 0.85 -0.70 2 -0.60 2.60 0.15 0.80 0.45 0.40 1.25 -1.65 1 -2.65 1.05 -2.65 1.35 -1.25 0.15 0.85 0.10 2.65 -0.15 4 -0.25 1.40 -0.45 2 -0.50 1.40 -0.10 -1.75 -1.05 -1.90 -1.05 -0.20 0 0.85 0.25 1.55 0.50 1.55 0.95 0 0.50 1.45 -0.80 2.45 -0.75 0.60 -1.50 1.05 -1.75 1.05 -0.25 0 -0.55 -1.10 -0.75 -2.50 -0.40 -3 -1.70 -3.55 -1.70 -0.75 0 1.85 -1.25 2.55 -1.60 0.90 -0.25 -1.30 0.65 -5.65 1.20 -5.65 0.65 0 0 -0.90 -1.05 -1.50 -0.80 -0.40 -0.85 -0.30 -0.65 0.80 0.30 1.75 -1.25 5.60 -2.75 6.55 -0.65 0.45 -1 0.95 -0.80 1.10 0.25 0.15 0.35 1.35 0.25 2.70 -0.20 2.20 -0.30 2.35 -1.65 2.35 -1.45 0 -1.45 0 -1.45 -3z m2.50 -4.45 c0 -0.25 0.15 -0.80 0.30 -1.25 0.20 -0.60 0 -0.80 -0.75 -0.80 -0.60 0 -1.05 0.25 -1.05 0.50 0 0.30 -0.45 0.50 -1 0.50 -0.55 0 -1 0.35 -1 0.75 0 0.50 0.55 0.75 1.75 0.75 0.95 0 1.75 -0.20 1.75 -0.45z"/>
  <path d="M32.10 38.90 c0.10 -0.75 0.55 -1.20 1.30 -1.30 1 -0.15 1.15 0 1 1 -0.10 0.75 -0.55 1.20 -1.30 1.30 -1 0.15 -1.15 0 -1 -1z"/>
  <path d="M0 38 c0 -0.55 0.30 -1 0.65 -1 0.40 0 0.35 -0.15 -0.15 -0.50 -0.65 -0.40 -0.60 -0.55 0.25 -1.20 1.85 -1.35 3.80 -1.40 5.10 -0.20 1.65 1.55 1.45 2.15 -1 3.10 -3 1.15 -4.85 1.05 -4.85 -0.20z"/>
  <path d="M35.35 38.65 c-0.60 -0.55 -0.40 -0.90 1.15 -1.80 1.15 -0.70 1.50 -1.30 1.55 -2.50 l0.05 -1.60 0.40 1.50 c0.20 0.85 0.40 2.25 0.45 3.15 0.05 1.50 -0.05 1.60 -1.60 1.60 -0.95 0 -1.85 -0.15 -2 -0.35z"/>
  <path d="M18.50 33.25 c0 -1.20 0.25 -1.75 0.75 -1.75 0.40 0 0.80 0.15 0.80 0.40 0.45 2.75 0.35 3.10 -0.60 3.10 -0.75 0 -0.95 -0.35 -0.95 -1.75z"/>
  <path d="M6.35 33.45 c-0.45 -0.25 -1.10 -0.35 -1.35 -0.20 -0.30 0.15 -0.50 -0.15 -0.50 -0.75 0 -0.80 0.30 -1.05 1.15 -1 1.95 0.20 2.35 0 2.35 -1 0 -1.60 1.55 -3 3.35 -3 1.50 0 1.65 0.15 1.65 1.50 0 0.85 0.25 1.50 0.50 1.50 0.30 0 0.50 0.70 0.50 1.50 0 0.85 -0.20 1.50 -0.45 1.50 -0.90 0 -1.65 -1.50 -1.35 -2.70 0.30 -1.30 -0.05 -2.80 -0.65 -2.80 -0.20 0 -0.40 0.65 -0.40 1.45 0 1.70 -1.90 4.55 -3.05 4.55 -0.45 0 -1.25 -0.25 -1.75 -0.55z"/>
  <path d="M14.50 30.75 c0 -0.40 -0.20 -0.75 -0.50 -0.75 -0.25 0 -0.50 -0.20 -0.50 -0.40 0 -0.50 4.85 -0.45 5.30 0.05 0.20 0.20 0.10 0.35 -0.20 0.35 -0.35 0 -0.60 0.35 -0.60 0.75 0 0.50 -0.55 0.75 -1.75 0.75 -1.20 0 -1.75 -0.25 -1.75 -0.75z"/>
  <path d="M17.40 28.30 c-0.80 -0.45 -1.50 -0.55 -1.65 -0.25 -0.50 0.75 -2.25 0.50 -2.25 -0.35 0 -1.65 1 -2.70 2.65 -2.70 1.80 0 3.35 1.40 3.35 3 0 1.20 -0.30 1.25 -2.10 0.30z"/>
  <path d="M9 23.40 c0 -1.70 1.35 -3.40 3.35 -4.25 1.15 -0.45 1.65 -0.95 1.45 -1.45 -0.20 -0.45 0.05 -0.70 0.70 -0.70 0.85 0 1 0.35 1 2 0 1.95 -0.05 2 -1.65 2 -0.90 0 -2.10 0.35 -2.65 0.80 -0.90 0.75 -0.90 0.75 0.15 0.25 1.55 -0.80 1.75 -0.70 1.55 0.85 -0.15 1.15 -0.40 1.35 -2 1.50 -1.70 0.15 -1.90 0.05 -1.90 -1z"/>
  <path d="M34 20.75 c0 -2.15 0.50 -2.20 1.65 -0.30 1.10 1.90 1.10 2.05 -0.40 2.05 -1.10 0 -1.25 -0.20 -1.25 -1.75z"/>
  <path d="M19.90 21.65 c-1.25 -0.15 -1.90 -0.45 -1.90 -0.95 0 -0.40 -0.30 -0.70 -0.65 -0.70 -0.90 0 -1.05 -3.30 -0.20 -3.85 0.60 -0.35 0.85 -0.45 2.50 -0.55 0.55 -0.05 0.85 -0.50 0.85 -1.30 0 -1.25 1.25 -2.10 1.80 -1.25 0.15 0.30 0.55 0.15 0.95 -0.40 0.45 -0.65 0.50 -1.10 0.15 -1.50 -0.40 -0.50 -0.25 -0.65 0.60 -0.65 1 0 1.10 0.20 0.85 1.90 -0.35 2.10 -0.10 2.70 1.55 3.55 0.65 0.35 1.10 1.05 1.10 1.75 0 1.25 -1.50 3.30 -2.45 3.30 -0.35 0 -0.45 0.25 -0.30 0.50 0.30 0.50 -1.05 0.55 -4.85 0.15z m3.50 -1.75 c0.35 -0.35 0.60 -0.80 0.60 -1 0 -0.75 -0.75 -0.40 -1.40 0.60 -0.65 1.10 -0.15 1.35 0.80 0.40z"/>
 </g>
 <g fill="#572e18">
  <path d="M14.20 39.60 c-0.30 -0.20 -0.55 -1.45 -0.50 -2.85 0.05 -2.15 0.20 -2.50 1.30 -2.80 1.30 -0.35 1.05 -0.55 -1 -0.65 -1.40 -0.05 -2.15 -1.80 -0.75 -1.80 0.45 0 0.65 -0.25 0.50 -0.55 -0.20 -0.30 -0.70 -0.40 -1.10 -0.25 -0.40 0.15 -0.55 0.05 -0.40 -0.20 0.40 -0.65 -0.15 -2.50 -0.75 -2.50 -0.20 0 -0.55 0.55 -0.70 1.25 -0.20 0.70 -0.55 1.25 -0.80 1.25 -0.30 0 -0.50 0.25 -0.50 0.55 0 0.25 0.25 0.35 0.50 0.20 1.20 -0.75 0.35 0.80 -0.95 1.70 -1.20 0.90 -1.60 0.95 -3 0.40 -1.85 -0.70 -1.85 -0.90 -0.45 -3.40 1.10 -2 1.90 -2.50 1.90 -1.20 0 0.40 0.25 0.75 0.50 0.75 0.30 0 0.50 -0.45 0.50 -1 0 -0.55 -0.25 -1 -0.55 -1 -0.40 0 -0.40 -0.25 0.05 -0.75 0.35 -0.40 0.70 -1.55 0.75 -2.45 0.05 -0.95 0.50 -2.30 0.95 -3.05 0.90 -1.35 3.05 -2.45 3.85 -1.95 0.25 0.15 0.45 -0.30 0.45 -0.95 0 -1.25 1.40 -1.85 4.40 -1.85 1.20 0 1.25 0.05 0.35 1 -1.10 1.20 -0.45 1.35 0.85 0.15 0.55 -0.45 0.90 -0.55 0.90 -0.25 0 0.35 0.25 0.60 0.50 0.60 0.30 0 0.50 -0.45 0.50 -1 0 -0.75 0.35 -1 1.25 -1 1.10 0 1.20 0.10 0.75 1.30 -0.30 0.70 -0.75 1.70 -1 2.25 -0.40 0.75 -0.35 0.95 0.20 0.95 1 0 1.40 -0.80 1.55 -2.80 0.15 -2.30 0.45 -2.50 2.45 -1.55 0.95 0.40 2.55 0.95 3.60 1.15 2.55 0.45 4.50 1.60 5.15 3.05 0.95 2.05 0.70 2.65 -1.10 2.65 -1.65 0 -3.35 -1.20 -3.35 -2.35 0 -0.30 -0.55 -0.40 -1.25 -0.25 -1.50 0.25 -1.45 0.25 -0.45 2.35 0.80 1.75 1.85 2.25 4.90 2.25 1.85 0 1.90 0 1.20 1.15 -0.85 1.25 -1.15 6.35 -0.40 6.35 0.70 0 0.60 2.20 -0.10 2.90 -0.90 0.90 -3.15 0.70 -4.05 -0.30 -1.05 -1.15 -1.05 -2.05 0 -3.60 0.60 -0.85 0.65 -1.25 0.25 -1.40 -0.35 -0.10 -0.60 -0.40 -0.60 -0.65 0 -0.30 0.20 -0.40 0.45 -0.20 0.25 0.15 0.55 -0.15 0.65 -0.60 0.10 -0.60 -0.45 -1.35 -1.50 -2.05 -1.70 -1.20 -2.75 -1.25 -1.35 -0.10 0.85 0.70 1 1.50 0.20 1.50 -1 0 -1.90 -1.35 -1.60 -2.45 0.15 -0.55 0.05 -1.05 -0.25 -1.05 -0.25 0 -0.65 0.55 -0.80 1.25 -0.45 1.75 -1.80 1.65 -1.80 -0.10 0 -0.80 -0.20 -1.65 -0.40 -1.95 -0.65 -1 -2.65 -1.35 -3.90 -0.65 -2.30 1.20 -1.10 3.95 1.75 3.95 1.40 0 1.35 1.30 -0.05 1.70 -2.10 0.55 -3.25 0.30 -4.55 -1 -1.25 -1.25 -1.30 -1.25 -1.85 -0.25 -0.30 0.60 -0.90 1.05 -1.30 1.05 -0.40 0 -0.60 0.25 -0.45 0.50 0.20 0.30 0.75 0.40 1.30 0.25 0.55 -0.20 0.95 -0.10 0.95 0.30 0 0.45 0.15 0.45 0.75 -0.05 0.40 -0.30 0.95 -0.40 1.30 -0.20 0.30 0.20 1.55 0.35 2.75 0.35 2.20 0 3.20 0.80 1.10 0.90 -0.65 0 -0.85 0.15 -0.50 0.30 0.30 0.10 0.60 0.65 0.60 1.20 0 0.75 0.35 0.95 1.75 0.95 1.85 0 2.50 1.25 1 1.80 -1 0.40 -0.95 1.05 0.15 1.35 0.55 0.15 0.35 0.25 -0.50 0.30 -1.05 0.05 -1.25 -0.15 -1.05 -0.90 0.15 -0.65 -0.10 -1.15 -0.80 -1.50 -0.55 -0.35 -1.35 -1.20 -1.80 -1.95 l-0.75 -1.35 0.25 1.75 c0.15 0.95 0.40 2.60 0.55 3.65 0.25 1.60 0.15 1.85 -0.60 1.85 -0.90 0.05 -0.90 0.05 -0.05 0.55 0.45 0.25 0.85 0.70 0.85 0.95 0 0.60 -6 0.65 -6.80 0.10z m-0.20 -14.10 c0 -0.55 0 -1.15 0.05 -1.35 0 -0.25 -0.30 -0.45 -0.70 -0.55 -0.90 -0.20 -1.40 1.65 -0.70 2.35 0.85 0.85 1.35 0.65 1.35 -0.45z m-1.25 -4.40 c-0.30 -0.35 -2.25 0.95 -2.25 1.45 0 0.25 0.55 0.10 1.20 -0.40 0.65 -0.50 1.15 -0.95 1.05 -1.05z m13.55 0.60 c-1.50 -1.05 -2.25 -0.80 -0.80 0.30 0.70 0.50 1.35 0.80 1.50 0.65 0.15 -0.10 -0.20 -0.55 -0.70 -0.95z"/>
  <path d="M32 39.30 c0 -1.10 1.15 -1.75 3.40 -1.90 1.25 -0.10 2.20 -0.45 2.35 -0.90 0.25 -0.65 0.35 -0.65 0.75 0 0.30 0.40 0.50 1.35 0.50 2.15 0 1.35 0 1.35 -3.50 1.35 -2.65 0 -3.50 -0.15 -3.50 -0.70z"/>
  <path d="M0 37.35 c0 -1.65 0.20 -1.85 2.25 -2.65 2.15 -0.80 2.30 -0.80 3.25 0.05 1.40 1.25 1.25 2.10 -0.60 3.05 l-1.60 0.85 0.90 -1.45 0.95 -1.45 -1.45 1.30 c-0.80 0.75 -1.95 1.50 -2.55 1.70 -1.05 0.30 -1.15 0.15 -1.15 -1.40z"/>
 </g>
 <g fill="#592b28">
  <path d="M23.20 38.75 c-0.35 -1.35 0.25 -4.45 0.65 -3.35 0.15 0.30 0.55 0.60 0.90 0.60 1.05 0 1.35 0.85 1 2.50 -0.40 1.90 -2.10 2.05 -2.55 0.25z"/>
  <path d="M32.10 39.15 c0.20 -1.20 2.40 -1.25 2.40 -0.05 0 0.65 -0.35 0.90 -1.30 0.90 -0.90 0 -1.25 -0.25 -1.10 -0.85z"/>
  <path d="M36 38.80 c0 -1.45 1 -2.30 1.05 -0.95 0 0.50 0.30 0 0.65 -1.10 l0.60 -2 0.35 1.70 c0.65 3.10 0.50 3.55 -1.15 3.55 -1.25 0 -1.50 -0.20 -1.50 -1.20z"/>
  <path d="M4.10 37.45 c0.40 -0.65 1.15 -1.25 1.60 -1.35 1.40 -0.30 0.85 0.85 -0.80 1.70 l-1.60 0.85 0.80 -1.20z"/>
  <path d="M23.10 34.35 c-1.40 -0.80 -0.95 -1.35 1.25 -1.35 1.50 0 1.65 -0.15 1.65 -1.55 0 -1.40 -0.05 -1.45 -0.80 -0.75 -0.40 0.45 -1.55 0.80 -2.50 0.80 -1.35 0 -1.70 -0.20 -1.70 -0.95 0 -0.65 0.30 -0.95 0.90 -0.95 1.55 0.15 4.65 -1.70 5.15 -3 l0.50 -1.30 1.05 1.10 c1 0.95 1.05 1.20 0.40 3.05 -0.35 1.15 -0.85 1.90 -1.15 1.70 -0.30 -0.20 -0.40 0 -0.20 0.55 0.35 0.95 -0.25 1.80 -2 2.70 -1.30 0.70 -1.10 0.70 -2.55 -0.05z"/>
  <path d="M7.20 32.95 c-0.55 -0.90 0.25 -2.85 1.35 -3.20 1.35 -0.45 1.75 0 0.90 1.10 -0.60 0.75 -0.60 0.80 0.20 0.50 1 -0.35 1.15 0.30 0.25 1 -1.10 0.85 -2.35 1.15 -2.70 0.60z"/>
  <path d="M30 31.15 c0 -0.90 1 -2.80 1 -1.95 0 0.30 0.35 0.05 0.75 -0.50 0.70 -0.90 0.75 -0.80 0.65 1.05 -0.15 1.65 -0.35 2.05 -1.25 2.15 -0.85 0.15 -1.15 -0.10 -1.15 -0.75z"/>
  <path d="M36.75 28.85 c-0.50 -1.80 0.40 -5.10 1 -3.70 0.20 0.50 0.15 1.85 -0.10 3 -0.50 2.05 -0.50 2.10 -0.90 0.70z"/>
  <path d="M21 27.50 c0 -0.55 0.35 -1 0.75 -1 0.40 0 1.25 -0.55 1.85 -1.25 1.30 -1.50 2.20 -1.60 2.55 -0.25 0.40 1.60 -1.45 3.50 -3.45 3.50 -1.35 0 -1.70 -0.20 -1.70 -1z"/>
  <path d="M17.25 27.55 c0.15 -0.10 0 -0.50 -0.30 -0.90 -0.45 -0.50 -0.30 -0.65 0.75 -0.65 0.95 0 1.30 0.25 1.30 0.95 0 0.65 -0.30 0.95 -1 0.90 -0.50 -0.05 -0.85 -0.15 -0.75 -0.30z"/>
  <path d="M29.50 26 l-1.25 -1 1.15 0 c0.60 0 1.25 0.35 1.45 0.75 0.45 1.20 0 1.25 -1.35 0.25z"/>
  <path d="M33.50 25.55 c0 -0.85 0.25 -1.65 0.50 -1.80 0.30 -0.15 0.50 -1.10 0.50 -2.05 0 -1.90 0.35 -2.10 1.30 -0.80 1 1.30 0.85 3.75 -0.30 5 -1.40 1.50 -2 1.40 -2 -0.35z"/>
  <path d="M11.50 20.30 c0 -0.90 1.85 -1.35 2.50 -0.60 0.65 0.80 0.15 1.30 -1.35 1.30 -0.65 0 -1.15 -0.30 -1.15 -0.70z"/>
  <path d="M17.50 20.35 c0 -0.45 0.45 -0.60 1.40 -0.45 0.90 0.10 1.65 -0.10 2.15 -0.70 0.65 -0.80 0.60 -0.80 -0.40 -0.15 -1.35 0.85 -2.05 0.25 -1.25 -1.05 0.35 -0.55 0.40 -1 0.15 -1 -0.30 0 -0.65 0.25 -0.80 0.50 -0.45 0.75 -1.25 0.60 -1.25 -0.25 0 -0.45 0.35 -0.90 0.75 -1.05 0.40 -0.20 0.65 -0.50 0.50 -0.75 -0.15 -0.20 0.40 -0.75 1.25 -1.20 0.80 -0.40 1.50 -1 1.50 -1.30 0 -0.30 0.25 -0.35 0.50 -0.20 0.30 0.15 0.35 0.90 0.20 1.60 -0.25 0.90 -0.15 1.20 0.25 0.95 0.30 -0.20 0.55 -0.75 0.55 -1.25 0 -0.45 0.25 -1.10 0.60 -1.45 0.40 -0.40 0.40 -0.75 -0.10 -1.35 -0.50 -0.65 -0.45 -0.75 0.40 -0.75 0.95 0 1.05 0.20 0.75 2.45 -0.25 2.30 -0.20 2.45 1.05 2.75 1.70 0.40 2.10 1.40 1.30 3.30 -0.45 1.05 -0.95 1.50 -1.80 1.50 -1.10 0 -1.15 -0.15 -1 -2.35 0.15 -2.10 0.10 -2.25 -0.50 -1.40 -0.40 0.50 -0.70 1.20 -0.70 1.50 0 0.30 -0.50 1.05 -1.15 1.65 -1.30 1.25 -4.35 1.55 -4.35 0.45z m9.05 -3 c-0.45 -0.45 -0.70 -0.40 -1.05 0.15 -0.80 1.20 -0.55 1.55 0.55 0.95 0.80 -0.40 0.90 -0.70 0.50 -1.10z"/>
  <path d="M14 18.25 c0 -0.40 0.25 -0.75 0.50 -0.75 0.30 0 0.50 0.35 0.50 0.75 0 0.40 -0.20 0.75 -0.50 0.75 -0.25 0 -0.50 -0.35 -0.50 -0.75z"/>
 </g>
 <g fill="#4f3b2c">
  <path d="M14 34.50 c0 -0.25 0.35 -0.50 0.75 -0.50 0.40 0 0.75 0.25 0.75 0.50 0 0.30 -0.35 0.50 -0.75 0.50 -0.40 0 -0.75 -0.20 -0.75 -0.50z"/>
  <path d="M22.60 34.15 c-0.40 -0.15 -1.10 -0.95 -1.65 -1.85 -0.85 -1.40 -0.95 -1.45 -0.95 -0.40 0 0.75 -0.30 1.10 -1 1.10 -0.80 0 -1 -0.35 -1 -1.80 0 -1.55 0.10 -1.75 0.75 -1.20 0.60 0.50 0.75 0.50 0.75 0 0 -0.40 0.55 -0.55 1.65 -0.35 2.05 0.30 5.25 -1.25 5.85 -2.95 0.30 -0.70 0.70 -1.15 1 -0.95 0.30 0.20 0.30 0.75 0 1.55 -0.30 0.70 -0.50 2.25 -0.50 3.45 0 1.30 -0.30 2.50 -0.80 2.95 -0.75 0.80 -2.75 1 -4.10 0.45z m2.40 -2.40 c0 -0.40 -0.35 -0.75 -0.75 -0.75 -0.80 0 -1 0.60 -0.40 1.15 0.55 0.60 1.15 0.40 1.15 -0.40z"/>
  <path d="M12.55 32.60 c-0.95 -1.75 0.20 -5.20 1.20 -3.60 0.15 0.30 0.70 0.50 1.20 0.50 0.50 0 1.05 0.45 1.20 1 0.15 0.55 0.05 1 -0.20 1 -0.25 0 -0.45 0.35 -0.45 0.75 0 0.40 -0.20 0.75 -0.45 0.75 -0.25 0 -0.80 0.15 -1.20 0.30 -0.45 0.15 -1 -0.10 -1.30 -0.70z"/>
  <path d="M4.50 32.20 c0 -0.65 1.05 -2.20 1.50 -2.20 0.30 0 0.50 0.55 0.50 1.25 0 0.90 -0.25 1.25 -1 1.25 -0.55 0 -1 -0.15 -1 -0.30z"/>
  <path d="M13 28.15 c-2.25 -0.40 -2.30 -1.15 -0.10 -1.15 1.55 0 2.10 0.20 2.10 0.75 0 0.40 -0.15 0.70 -0.35 0.70 -0.25 -0.05 -0.95 -0.20 -1.65 -0.30z"/>
  <path d="M20.75 28 c1.10 -0.25 2.55 -0.55 3.25 -0.70 1.05 -0.25 1 -0.20 -0.25 0.40 -0.80 0.45 -2.30 0.75 -3.25 0.70 l-1.75 -0.05 2 -0.35z"/>
  <path d="M28.20 24.95 c-0.95 -1.05 -0.95 -1.05 0.30 -0.90 0.70 0.10 1.30 0.60 1.40 1.10 0.25 1.15 -0.55 1.10 -1.70 -0.20z"/>
  <path d="M15.50 17.50 c0 -0.55 0.35 -1.15 0.75 -1.30 0.40 -0.20 0.75 -0.75 0.75 -1.25 0 -0.75 -0.35 -0.95 -1.90 -0.95 -1.55 0 -2.15 -0.30 -3.05 -1.55 l-1.15 -1.50 1.05 -0.30 c0.85 -0.20 0.95 -0.40 0.50 -0.95 -0.45 -0.55 -0.30 -0.70 0.75 -0.70 0.80 0 1.30 0.25 1.30 0.75 0 0.40 0.25 0.75 0.50 0.75 0.30 0 0.50 -0.35 0.50 -0.75 0 -0.40 0.45 -0.75 1 -0.75 0.55 0 1 -0.35 1 -0.75 0 -0.40 0.25 -0.75 0.50 -0.75 0.30 0 0.50 -0.45 0.50 -1 0 -0.75 0.35 -1 1.25 -1 0.90 0 1.25 -0.25 1.25 -0.95 0 -0.50 0.35 -1.05 0.75 -1.25 0.40 -0.15 0.75 -0.60 0.75 -1.05 0 -0.45 0.45 -0.75 1.15 -0.75 1.95 0 2.45 1.85 1.75 6.40 -0.30 2.10 -0.65 3.95 -0.75 4.05 -0.05 0.10 -0.55 -0.15 -1.05 -0.60 -0.80 -0.75 -0.95 -0.70 -2.05 0.50 -1.10 1.10 -1.15 1.20 -0.25 1.05 0.55 -0.10 0.95 0.10 0.90 0.50 -0.05 0.30 -0.10 0.90 -0.10 1.30 -0.10 0.85 -4.60 3.80 -5.75 3.80 -0.50 0 -0.85 -0.40 -0.85 -1z m3.50 -4.50 c0 -0.25 -0.35 -0.50 -0.75 -0.50 -0.40 0 -0.75 0.25 -0.75 0.50 0 0.30 0.35 0.50 0.75 0.50 0.40 0 0.75 -0.20 0.75 -0.50z m-0.55 -2.20 c1.10 0.25 1.75 -0.05 3.35 -1.60 1.60 -1.50 1.75 -1.80 0.85 -1.55 -0.65 0.15 -1.25 0.05 -1.40 -0.20 -0.15 -0.20 -0.65 -0.25 -1.15 -0.10 -1.35 0.50 -4.10 3.25 -3.75 3.85 0.25 0.35 0.40 0.30 0.55 -0.10 0.10 -0.35 0.70 -0.45 1.55 -0.30z"/>
 </g>
 <g fill="#65371e">
  <path d="M13.70 37.90 c0.10 -1.20 0.20 -2.55 0.25 -3 0.05 -0.95 2.30 -1.10 4.95 -0.30 1.20 0.35 1.60 0.75 1.60 1.60 0 1.05 -0.25 1.15 -2.35 1.20 -3.85 0 -4 0.05 -3 0.65 0.45 0.25 1.10 0.35 1.35 0.20 0.65 -0.40 4 0.70 4 1.30 0 0.25 -1.55 0.45 -3.50 0.45 l-3.50 0 0.20 -2.10z"/>
  <path d="M32 39.50 c0 -0.60 2.40 -1.60 3 -1.25 0.20 0.15 0.70 -0.10 1.05 -0.55 0.60 -0.70 0.70 -0.70 1 0.15 0.80 1.90 0.55 2.15 -2.30 2.15 -1.55 0 -2.75 -0.20 -2.75 -0.50z"/>
  <path d="M0 36.05 c0 -0.50 1.20 -1.05 2.15 -1.05 0.35 0 0.15 0.35 -0.35 0.75 -1.10 0.85 -1.80 0.95 -1.80 0.30z"/>
  <path d="M30.45 34.35 c-0.55 -1.20 -0.55 -1.50 0.10 -1.90 0.60 -0.40 0.60 -0.50 0 -0.90 -0.55 -0.35 -0.45 -0.75 0.50 -2 1.55 -2.10 2.50 -2.05 2.10 0.10 -0.30 1.75 0.55 1.45 1.05 -0.40 0.15 -0.55 0.10 0 -0.05 1.25 -0.25 2.05 -1.15 4.10 -1.15 2.55 0 -0.35 -0.20 -0.45 -0.50 -0.30 -0.25 0.15 -0.50 0.65 -0.50 1.05 0 0.45 0.25 0.60 0.60 0.40 0.35 -0.20 0.40 -0.15 0.20 0.25 -0.20 0.30 -0.55 0.45 -0.80 0.30 -0.20 -0.15 -0.50 0.05 -0.65 0.35 -0.10 0.40 -0.50 0.05 -0.90 -0.75z"/>
  <path d="M7.20 33 c-0.25 -0.20 -0.95 -0.50 -1.60 -0.60 l-1.10 -0.15 1.05 -2 c1.35 -2.55 2.40 -3.75 3.75 -4.25 0.65 -0.25 1.20 -1.05 1.35 -1.95 0.20 -0.95 0.85 -1.80 1.70 -2.25 1.25 -0.70 1.30 -0.75 0.30 -0.80 -1.10 0 -3.15 2.10 -3.15 3.30 0 0.40 -0.25 0.70 -0.50 0.70 -0.65 0 -0.15 -2.35 0.80 -3.85 0.80 -1.25 2.75 -1.95 4 -1.45 0.45 0.20 0.75 0.45 0.60 0.60 -0.15 0.15 0.20 0.75 0.75 1.40 0.95 1.10 1.10 1.10 2.55 0.35 l1.55 -0.75 -1.50 -0.30 c-1.20 -0.20 -1.35 -0.35 -0.75 -0.75 0.40 -0.25 1.30 -0.40 1.95 -0.30 0.80 0.10 1.75 -0.40 2.90 -1.55 1.25 -1.20 1.60 -1.40 1.35 -0.65 -0.20 0.55 -0.80 1.50 -1.35 2.15 l-1 1.10 1.35 0 c0.75 0 2.05 0.40 2.85 0.85 1.30 0.75 1.45 1.10 1.15 2.35 -0.50 2.20 -1.25 3.20 -2.90 3.80 -2.35 0.80 -4.10 0.60 -5.70 -0.75 -1.85 -1.55 -2 -1.55 -2.20 -0.10 -0.15 0.95 -0.40 1.10 -1.90 0.95 -0.95 -0.10 -2.15 -0.55 -2.60 -0.95 -0.50 -0.45 -0.90 -0.55 -0.90 -0.25 0 0.30 0.20 0.70 0.50 0.85 0.30 0.20 -0.05 1.30 -0.80 2.80 -1.45 2.75 -1.85 3.10 -2.50 2.45z m6.45 -9.65 c-1.35 -0.85 -2.25 0.85 -1.05 2.05 0.45 0.45 0.70 0.30 1.15 -0.55 0.45 -0.85 0.40 -1.20 -0.10 -1.50z m9.25 1.80 c1.45 -0.35 1.40 -1.35 -0.10 -2.05 -1.90 -0.85 -3.30 -0.25 -3.30 1.50 0 1.35 0.15 1.50 1.15 1.15 0.60 -0.15 1.60 -0.45 2.25 -0.60z"/>
  <path d="M15.95 32.70 c0 -0.55 -0.15 -0.70 -0.30 -0.30 -0.50 1.25 -1.65 0.60 -1.65 -0.90 0 -1 -0.25 -1.50 -0.75 -1.50 -0.40 0 -0.75 -0.20 -0.75 -0.50 0 -0.25 0.35 -0.50 0.75 -0.50 0.40 0 0.75 0.25 0.75 0.55 0 0.30 0.45 0.40 1 0.20 0.75 -0.25 1 -0.10 1.05 0.60 0 0.75 0.10 0.70 0.45 -0.20 0.50 -1.20 2 -1.10 2 0.10 0 0.35 0.35 0.75 0.75 0.95 1.05 0.40 0.95 1.80 -0.10 1.80 -0.50 0 -1.40 0.15 -2 0.30 -0.90 0.25 -1.15 0.10 -1.20 -0.60z"/>
  <path d="M29.25 25.80 c-0.80 -0.65 -1.70 -1.90 -2 -2.85 -0.40 -1.10 -1 -1.75 -1.75 -1.95 -1.75 -0.40 -1.75 -1.35 0 -2.25 1.25 -0.65 1.45 -0.95 1 -1.50 -0.85 -1 0.25 -1.35 1.15 -0.35 0.45 0.45 0.80 1 0.80 1.25 0.05 0.20 0.20 0.30 0.45 0.25 0.20 -0.10 0.30 -0.30 0.20 -0.55 -0.05 -0.20 0.85 -0.25 2 -0.10 2.65 0.30 4.90 2.50 4.90 4.75 0 1.35 -0.15 1.50 -1.50 1.50 -1.35 0 -1.50 -0.15 -1.50 -1.50 0 -0.95 -0.25 -1.50 -0.70 -1.50 -0.35 0 -1.35 -0.15 -2.20 -0.30 l-1.55 -0.30 0.55 1.80 c0.50 1.50 0.85 1.85 2.35 2.05 3.95 0.65 4.10 0.70 3.60 1.65 -0.75 1.35 -4.05 1.30 -5.80 -0.10z m4.75 -5.30 c-0.30 -0.55 -0.80 -1 -1.10 -1 -0.30 0 -0.15 0.45 0.35 1 0.50 0.55 1 1 1.10 1 0.10 0 -0.05 -0.45 -0.35 -1z"/>
  <path d="M14 18.50 c0 -0.25 0.35 -0.50 0.75 -0.50 0.40 0 0.75 0.25 0.75 0.50 0 0.30 -0.35 0.50 -0.75 0.50 -0.40 0 -0.75 -0.20 -0.75 -0.50z"/>
 </g>
 <g fill="#704021">
  <path d="M13.50 39 c0 -0.90 0.25 -1 2.15 -0.70 3.50 0.45 4.35 0.70 4.35 1.20 0 0.30 -0.65 0.50 -1.50 0.50 -0.80 0 -1.50 -0.20 -1.50 -0.50 0 -0.25 -0.35 -0.50 -0.75 -0.50 -0.40 0 -0.75 0.25 -0.75 0.50 0 0.30 -0.45 0.50 -1 0.50 -0.65 0 -1 -0.35 -1 -1z"/>
  <path d="M33.80 39.25 c0.20 -0.40 0.50 -0.75 0.75 -0.75 0.25 0 0.45 0.35 0.45 0.75 0 0.40 -0.35 0.75 -0.75 0.75 -0.45 0 -0.60 -0.30 -0.45 -0.75z"/>
  <path d="M36 38.80 c0 -0.70 0.25 -1.30 0.50 -1.30 0.30 0 0.50 0.35 0.50 0.75 0 0.40 0 0.90 0.05 1.10 0 0.20 -0.20 0.45 -0.50 0.55 -0.30 0.10 -0.55 -0.40 -0.55 -1.10z"/>
  <path d="M13.75 37 c-0.55 -0.85 0.20 -3 1 -3 0.40 0 0.75 0.25 0.75 0.55 0 0.40 0.20 0.40 0.65 0.05 1.30 -1.10 5.40 1.05 4.25 2.20 -0.60 0.55 -6.30 0.75 -6.65 0.20z"/>
  <path d="M30.30 34.20 c-0.55 -1.45 -0.30 -3.75 0.45 -4 0.40 -0.15 0.85 -0.70 1 -1.25 0.50 -1.55 1.25 -1.10 1.25 0.80 0 1.70 -1.35 5.25 -2.05 5.25 -0.20 0 -0.50 -0.35 -0.65 -0.80z"/>
  <path d="M16 32.80 c0 -0.35 0.25 -1.35 0.55 -2.20 0.45 -1.35 0.70 -1.50 1.50 -1.10 1.15 0.65 2.20 2.50 1.60 3 -0.20 0.20 -1.15 0.50 -2 0.65 -1.20 0.25 -1.65 0.15 -1.65 -0.35z"/>
  <path d="M13.50 32.05 c0 -1 1.25 -2.55 2.05 -2.55 0.50 0 0.55 0.75 0.15 2.40 -0.40 1.40 -2.20 1.50 -2.20 0.15z"/>
  <path d="M5 31.80 c0 -0.40 0.75 -1.80 1.65 -3.10 1.70 -2.60 3.15 -3.20 3.05 -1.35 0 0.60 0.15 1 0.40 0.85 0.75 -0.45 0.40 1.15 -0.35 1.80 -0.40 0.35 -0.75 1.05 -0.75 1.55 0 1 -0.75 1.30 -1.25 0.45 -0.20 -0.30 -0.75 -0.30 -1.50 0 -0.95 0.35 -1.25 0.30 -1.25 -0.20z"/>
  <path d="M20.60 31.50 c-0.80 -1.30 -0.75 -1.50 0.15 -1.50 0.45 0 0.75 0.45 0.75 1.25 0 1.50 -0.10 1.55 -0.90 0.25z"/>
  <path d="M22.40 27.85 c0.40 -0.45 -0.05 -0.55 -1.95 -0.40 -2 0.10 -2.65 -0.05 -3.20 -0.75 -0.55 -0.80 -0.55 -1.10 0.10 -1.80 0.45 -0.50 0.60 -0.90 0.30 -0.90 -0.75 0 -2.65 2.25 -2.65 3.15 0 1.10 -1.90 1.10 -3.40 0.05 -2.25 -1.55 -0.75 -5.70 2.10 -5.70 0.65 0 1.45 0.35 1.80 0.70 0.50 0.65 0.80 0.65 2.25 -0.05 0.95 -0.45 1.65 -0.95 1.55 -1.10 -0.05 -0.15 0.90 -1.20 2.10 -2.30 1.85 -1.65 2.15 -1.75 1.60 -0.75 -0.35 0.70 -1.10 1.65 -1.70 2.10 -0.90 0.75 -0.95 0.90 -0.15 0.90 1.40 0 1.05 1.95 -0.40 2.30 -0.80 0.20 -1.25 0.65 -1.25 1.25 0 1.10 0.70 1.20 2.95 0.40 1.70 -0.60 2 -1.75 0.70 -2.75 -1.50 -1.05 -0.30 -1.35 1.45 -0.35 1.55 0.90 1.80 1.60 1.20 3.40 -0.50 1.65 -1.05 2.25 -2.40 2.70 -1.20 0.40 -1.40 0.40 -1 -0.10z m-7.40 -4.90 c0 -0.75 -0.20 -0.95 -0.80 -0.75 -0.45 0.15 -0.90 0.30 -1 0.30 -0.10 0 -0.20 0.35 -0.20 0.75 0 0.40 0.45 0.75 1 0.75 0.70 0 1 -0.35 1 -1.05z"/>
  <path d="M29.75 26 c-0.85 -0.55 -1.85 -1.85 -2.30 -3.10 -0.65 -1.65 -1.10 -2.15 -1.95 -2.15 -0.65 0 -1.25 -0.25 -1.35 -0.55 -0.25 -0.80 2.70 -1.75 4.15 -1.40 0.90 0.25 1.20 0.10 1.20 -0.50 0 -1.30 0.75 -0.95 3.20 1.70 1.25 1.35 2.30 2.25 2.30 2 0 -0.25 -0.80 -1.25 -1.75 -2.25 -1.50 -1.50 -1.65 -1.75 -0.80 -1.75 0.55 0 1.55 0.75 2.25 1.65 2.30 3 1.35 7.35 -1.40 6.65 -0.75 -0.20 -1.30 -0.10 -1.30 0.20 0 0.75 -0.55 0.60 -2.25 -0.50z m0.75 -4.25 c0 -0.40 -0.45 -0.75 -1 -0.75 -1.10 0 -1.35 0.75 -0.35 1.15 1.05 0.45 1.35 0.35 1.35 -0.40z"/>
  <path d="M9.05 23.60 c-0.10 -1.30 1.50 -3.60 2.70 -3.90 2.15 -0.55 2.45 0.35 0.40 1.30 -1.05 0.45 -2.20 1.40 -2.50 2.05 -0.30 0.65 -0.60 0.90 -0.60 0.55z"/>
  <path d="M13.85 18 c-0.20 -0.85 0 -1 1.45 -1 1.95 0 2.35 1.20 0.60 1.70 -1.65 0.45 -1.75 0.40 -2.05 -0.70z"/>
  <path d="M26 16.75 c-0.65 -0.70 -0.95 -1.25 -0.70 -1.25 0.70 0 2.70 1.50 2.70 2.05 0 0.80 -0.80 0.50 -2 -0.80z"/>
 </g>
 <g fill="#6c3f31">
  <path d="M14 38.95 c0 -0.75 0.20 -0.95 0.80 -0.75 0.45 0.15 1.45 0.30 2.25 0.30 0.95 0 1.45 0.25 1.45 0.75 0 0.55 -0.60 0.75 -2.25 0.75 -1.95 0 -2.25 -0.15 -2.25 -1.05z"/>
  <path d="M25.45 31.65 c-0.05 -1.35 -0.20 -1.90 -0.30 -1.25 -0.20 0.90 -0.55 1.10 -1.95 1.10 -1.20 0 -1.70 -0.25 -1.70 -0.75 0 -0.40 0.30 -0.75 0.65 -0.75 0.35 0 1.50 -0.45 2.60 -1 2.45 -1.25 2.35 -1.25 1.95 0.30 -0.25 0.90 -0.15 1.25 0.15 1.05 0.60 -0.40 0.60 2.05 0 3.05 -0.80 1.25 -1.35 0.55 -1.40 -1.75z"/>
  <path d="M30.35 32.65 c-0.30 -0.70 -0.10 -1.90 0.30 -1.90 0.25 0 0.75 -0.55 1.10 -1.25 l0.70 -1.25 0.05 1.60 c0 0.85 -0.15 1.90 -0.30 2.35 -0.30 0.80 -1.50 1.10 -1.85 0.45z"/>
  <path d="M16.50 30.65 c0 -0.25 0.20 -0.70 0.40 -1.05 0.35 -0.45 0.65 -0.40 1.35 0.40 0.90 1 0.90 1 -0.40 1 -0.75 0 -1.35 -0.15 -1.35 -0.35z"/>
  <path d="M22.90 27.50 l1.15 -0.95 -1.90 0.30 c-1.60 0.25 -1.80 0.20 -1.30 -0.40 0.70 -0.85 4.05 -2.70 4.35 -2.40 0.55 0.55 0.50 2.20 -0.05 2.10 -0.35 -0.10 -0.50 0.15 -0.35 0.55 0.15 0.45 -0.30 0.90 -1.40 1.25 l-1.65 0.55 1.15 -1z"/>
  <path d="M33.90 26.10 c-0.90 -0.15 -1.30 -2.10 -0.50 -2.10 0.25 0 0.35 -0.75 0.25 -1.60 l-0.20 -1.65 0.75 1.25 c0.70 1.15 0.75 1.15 0.80 0.20 0 -0.55 -0.25 -1.25 -0.60 -1.60 -0.30 -0.30 -0.45 -0.75 -0.25 -0.95 0.65 -0.60 1.80 1.55 1.80 3.35 0 2.05 -0.85 3.35 -2.05 3.10z"/>
  <path d="M21.15 21.15 c0.45 -0.10 1.25 -0.10 1.75 0 0.45 0.15 0.05 0.25 -0.90 0.25 -0.95 0 -1.35 -0.10 -0.85 -0.25z"/>
  <path d="M20.50 20.10 c0 -0.25 0.70 -1.05 1.50 -1.85 l1.55 -1.45 -0.80 1.55 c-0.70 1.45 -2.25 2.60 -2.25 1.75z"/>
  <path d="M24.25 20 c-0.15 -0.25 0.15 -0.50 0.70 -0.50 0.60 0 1.05 0.25 1.05 0.50 0 0.30 -0.30 0.50 -0.70 0.50 -0.40 0 -0.90 -0.20 -1.05 -0.50z"/>
  <path d="M13.85 18 c-0.20 -0.80 0 -1 0.95 -1 1.35 0 1.65 1.20 0.40 1.70 -1.05 0.40 -1.05 0.40 -1.35 -0.70z"/>
  <path d="M25.95 16.55 c-0.65 -0.55 -0.95 -1 -0.70 -1 0.70 0 2.50 1.40 2.15 1.70 -0.15 0.15 -0.80 -0.15 -1.45 -0.70z"/>
  <path d="M19.60 15.10 c0.10 -1 0.45 -1.40 1.30 -1.50 0.95 -0.15 1.15 0 1 0.95 -0.10 0.60 -0.65 1.30 -1.30 1.50 -1.05 0.40 -1.15 0.30 -1 -0.95z"/>
 </g>
 <g fill="#5f5039">
  <path d="M21.70 32.70 c-2.10 -2.20 -2.15 -2.70 -0.05 -2.70 0.85 0 2.35 -0.45 3.25 -1 0.90 -0.55 1.65 -1 1.75 -1 0.05 0 0.15 1.25 0.20 2.75 0.15 2.55 0.05 2.80 -1.15 3.25 -1.90 0.75 -2.20 0.65 -4 -1.30z"/>
  <path d="M12.80 32.20 c-0.55 -1.45 -0.35 -3.20 0.45 -3.20 0.40 0 0.75 0.25 0.75 0.55 0 0.30 0.45 0.40 1 0.20 1.10 -0.35 1.25 0.10 0.50 1.95 -0.55 1.45 -2.20 1.75 -2.70 0.50z"/>
  <path d="M18.50 31.45 c0 -0.55 0.25 -0.85 0.50 -0.70 0.30 0.15 0.50 0.65 0.50 1.05 0 0.40 -0.20 0.70 -0.50 0.70 -0.25 0 -0.50 -0.45 -0.50 -1.05z"/>
  <path d="M13.75 17.50 c-0.40 -0.80 -0.75 -2 -0.75 -2.65 0 -0.65 -0.45 -1.80 -1 -2.50 -1 -1.25 -0.65 -2.30 0.50 -1.60 1.10 0.70 0.40 -0.75 -0.80 -1.65 l-1.35 -0.95 0.85 -2.20 c1.50 -3.85 5.80 -7.70 5.80 -5.15 0 1 -1.20 2.20 -2.20 2.20 -0.50 0 -0.80 0.45 -0.80 1.20 0 0.65 -0.30 1.35 -0.60 1.45 -0.50 0.20 -0.50 0.30 0 0.30 0.80 0.05 2.10 1.30 2.10 2 0 0.30 0.25 0.55 0.50 0.55 0.30 0 0.50 -0.45 0.50 -1 0 -0.80 0.35 -1 1.50 -1 1.30 0 1.50 -0.15 1.50 -1.45 0 -1 0.30 -1.50 1 -1.70 0.65 -0.15 1.10 -0.85 1.30 -1.80 0.50 -2.35 1.90 -2 3.20 0.75 1 2.05 1.05 2.45 0.45 4.60 -0.70 2.75 -1.70 4.40 -2.15 3.65 -0.20 -0.25 -0.85 0.05 -1.55 0.75 -1.45 1.45 -1.50 1.70 -0.50 1.70 0.40 0 0.75 0.45 0.75 1 0 0.70 -0.90 1.55 -2.60 2.70 -3.85 2.40 -4.75 2.50 -5.65 0.80z m2.25 -5 c0 -0.25 -0.60 -0.50 -1.35 -0.45 -1.25 0 -1.30 0.05 -0.40 0.45 1.35 0.60 1.75 0.60 1.75 0z m3.60 -1.75 c1.70 -0.35 2.75 -2 1.85 -3.05 -0.85 -1 -1.20 -0.90 -3.45 1.10 -2 1.80 -2.25 2.75 -0.60 2.45 0.45 -0.10 1.45 -0.30 2.20 -0.50z m4.90 -7.45 c0 -0.30 -0.45 0 -1 0.70 -1.30 1.65 -1.25 2.60 0 1.05 0.55 -0.65 1 -1.40 1 -1.75z"/>
 </g>
 <g fill="#7d4b27">
  <path d="M16.80 39.25 c-0.30 -0.80 0.50 -1 1.90 -0.45 1.20 0.45 0.95 1.20 -0.40 1.20 -0.65 0 -1.30 -0.35 -1.50 -0.75z"/>
  <path d="M13.90 38.40 c0.45 -0.45 0.75 -0.45 1.20 0 0.45 0.45 0.35 0.60 -0.60 0.60 -0.95 0 -1.05 -0.15 -0.60 -0.60z"/>
  <path d="M13.85 36.80 c-0.40 -1 0.20 -2.85 0.85 -2.65 0.70 0.25 0.70 2.95 0 3.20 -0.30 0.10 -0.70 -0.15 -0.85 -0.55z"/>
  <path d="M16.35 37.15 c-0.20 -0.15 -0.35 -0.85 -0.35 -1.50 0 -0.90 0.30 -1.15 1.20 -1.15 2.90 0 3.70 1.35 1.45 2.40 -1.55 0.70 -1.85 0.75 -2.30 0.25z"/>
  <path d="M30.45 33.40 c-0.10 -1.80 0.10 -2.50 0.85 -3.25 0.40 -0.40 0.70 -1.05 0.70 -1.45 0 -0.40 0.25 -0.70 0.50 -0.70 0.75 0 0.60 2.25 -0.30 4.50 -0.90 2.20 -1.65 2.60 -1.75 0.90z"/>
  <path d="M13.40 32.45 c-1.15 -0.65 -1.15 -1.45 -0.10 -1.45 0.45 0 1.15 -0.40 1.50 -0.85 0.85 -1.25 1.40 -0.50 0.85 1.15 -0.55 1.60 -1.05 1.85 -2.25 1.15z"/>
  <path d="M16.45 31.40 c0.40 -1.95 1.10 -2.25 2.25 -0.95 1.25 1.35 0.70 2.55 -1.10 2.55 -1.40 0 -1.45 -0.10 -1.15 -1.60z"/>
  <path d="M8 31.70 c0 -0.15 0.45 -0.95 1.05 -1.80 1.30 -1.80 0.95 -2.40 -0.45 -0.70 -0.55 0.75 -1.30 1.30 -1.70 1.30 -0.40 0 -1 0.30 -1.40 0.65 -0.65 0.60 -0.15 -0.35 1.80 -3.40 1 -1.50 2 -1.60 2.70 -0.25 0.45 0.85 0.35 1.40 -0.50 2.75 -1.05 1.65 -1.50 2.10 -1.50 1.45z"/>
  <path d="M17.15 26.20 c-0.15 -0.45 0 -1 0.40 -1.20 0.35 -0.25 0.50 -0.60 0.30 -0.80 -0.20 -0.20 -0.75 0 -1.20 0.45 -0.50 0.40 -2.10 0.95 -3.55 1.15 -2.85 0.35 -3.25 -0.15 -2.05 -2.45 1.05 -2 2.95 -2.45 4.45 -1.10 0.75 0.70 1.10 0.65 3.20 -0.25 3 -1.25 4.10 -1.25 6.25 0.05 1.25 0.75 1.55 1.15 1.10 1.60 -0.30 0.30 -0.55 0.95 -0.55 1.40 0 1.80 -7.70 2.85 -8.35 1.15z m5.25 -1.50 c0.60 -0.20 1.10 -0.50 1.10 -0.70 0 -0.75 -1.55 -1 -2.50 -0.35 -1.85 1.10 -1.05 1.70 1.40 1.05z"/>
  <path d="M29.35 25.35 c-1.65 -1.50 -3.15 -5 -2.55 -5.95 0.15 -0.20 1.05 -0.30 2 -0.20 1.45 0.20 1.70 0.10 1.50 -0.50 -0.50 -1.30 2.70 1.25 3.75 3 1 1.65 1.30 3.55 0.45 3.05 -0.30 -0.15 -0.35 0.05 -0.20 0.45 0.45 1.20 -1.40 1 -3.10 -0.30 l-1.45 -1.10 1.15 1.25 c2.20 2.45 0.95 2.70 -1.55 0.30z m3.90 -2.85 c-0.45 -0.80 -0.90 -1.50 -1.05 -1.50 -0.10 0 0.10 0.70 0.55 1.50 0.45 0.85 0.90 1.50 1.05 1.50 0.10 0 -0.10 -0.65 -0.55 -1.50z"/>
  <path d="M9 23.20 c0 -0.15 0.35 -0.90 0.75 -1.70 0.80 -1.60 2.55 -2.40 3.40 -1.55 0.40 0.40 0.30 0.55 -0.35 0.55 -0.50 0 -1.55 0.65 -2.35 1.45 -0.80 0.80 -1.45 1.35 -1.45 1.25z"/>
  <path d="M33.55 19.95 c-0.90 -1.05 -1.40 -1.95 -1.10 -1.95 0.85 0 3.05 2.35 3.05 3.25 0 0.95 0.05 1 -1.95 -1.30z"/>
  <path d="M21.20 19.55 c1.05 -1.15 1.30 -1.30 1.30 -0.55 0 0.25 -0.50 0.75 -1.10 1.05 -1.15 0.60 -1.15 0.60 -0.20 -0.50z"/>
  <path d="M24.50 20 c0 -0.25 0.35 -0.50 0.75 -0.50 0.40 0 0.75 0.25 0.75 0.50 0 0.30 -0.35 0.50 -0.75 0.50 -0.40 0 -0.75 -0.20 -0.75 -0.50z"/>
  <path d="M14.30 18.60 c-0.75 -0.70 -0.20 -1.60 0.95 -1.60 1.50 0 1.70 1.25 0.30 1.65 -0.55 0.15 -1.10 0.10 -1.25 -0.05z"/>
  <path d="M26.20 16.75 c-0.50 -0.40 -0.70 -0.75 -0.40 -0.75 0.25 0 0.95 0.35 1.50 0.75 0.50 0.40 0.70 0.75 0.40 0.75 -0.25 0 -0.95 -0.35 -1.50 -0.75z"/>
 </g>
 <g fill="#865232">
  <path d="M13.60 39.15 c0.10 -0.50 0.50 -0.90 0.90 -0.90 0.40 0 0.80 0.40 0.90 0.90 0.10 0.60 -0.15 0.85 -0.90 0.85 -0.75 0 -1 -0.25 -0.90 -0.85z"/>
  <path d="M16.80 39.20 c-0.20 -0.55 -0.05 -0.70 0.55 -0.60 0.45 0.10 0.90 0.45 1.05 0.80 0.30 0.90 -1.25 0.75 -1.60 -0.20z"/>
  <path d="M16.55 37 c-0.80 -0.50 -0.25 -2.50 0.70 -2.50 1 0 2.25 0.55 2.25 1 0 0.75 -2.30 1.90 -2.95 1.50z"/>
  <path d="M13.90 36.75 c-0.40 -0.40 0.15 -2.75 0.65 -2.75 0.25 0 0.45 0.70 0.45 1.50 0 1.40 -0.45 1.90 -1.10 1.25z"/>
  <path d="M30.85 33.15 c-0.65 -0.60 -0.35 -2.55 0.40 -2.85 0.40 -0.15 0.75 -0.60 0.75 -1.05 0 -0.40 0.25 -0.75 0.55 -0.75 0.55 0 0.40 1.30 -0.55 3.75 -0.50 1.35 -0.65 1.45 -1.15 0.90z"/>
  <path d="M16.50 31.90 c0 -1.70 0.80 -2.80 1.50 -2.10 0.85 0.85 0.40 2.90 -0.60 3.10 -0.65 0.15 -0.90 -0.15 -0.90 -1z"/>
  <path d="M12.70 31.80 c-0.15 -0.45 -0.15 -1.20 0.05 -1.65 0.40 -0.85 0.40 -0.85 0.60 0 0.15 0.45 0.35 0.85 0.50 0.85 0.15 0 0.60 -0.40 1 -0.85 0.60 -0.80 0.65 -0.75 0.55 0.60 -0.10 1.10 -0.45 1.55 -1.30 1.65 -0.65 0.10 -1.25 -0.15 -1.40 -0.60z"/>
  <path d="M7.30 28.60 c-0.35 -0.60 1.60 -2.40 2.05 -1.90 0.40 0.40 -0.40 1.90 -1.20 2.15 -0.30 0.10 -0.70 0 -0.85 -0.25z"/>
  <path d="M17.95 26.45 c-0.55 -0.35 -0.60 -0.60 -0.05 -1.45 0.50 -0.85 0.50 -1 -0.15 -1 -0.45 0 -1.30 0.30 -1.90 0.70 -0.60 0.40 -1.90 0.80 -2.85 0.90 -1.50 0.15 -1.75 0 -1.90 -1.05 -0.10 -0.65 0.10 -1.40 0.45 -1.75 0.45 -0.40 0.50 -0.35 0.25 0.35 -0.20 0.65 -0.10 0.85 0.30 0.75 0.35 -0.15 0.70 -0.70 0.80 -1.30 0.20 -1.30 1.85 -1.50 2.30 -0.35 0.35 0.90 3 0.60 5.25 -0.55 1.70 -0.90 2 -0.90 4 0.35 1.25 0.75 1.55 1.15 1.10 1.60 -0.30 0.30 -0.55 0.95 -0.55 1.40 0 0.90 -2.55 1.80 -3.45 1.25 -0.25 -0.20 -1 -0.10 -1.65 0.15 -0.75 0.25 -1.55 0.30 -1.95 0z"/>
  <path d="M32.85 25.45 c-0.50 -0.30 -1.10 -1.05 -1.35 -1.65 -0.55 -1.55 -2.50 -2.10 -2.50 -0.75 0 1.35 -0.95 1.15 -1.50 -0.35 -0.65 -1.65 -0.65 -3.70 0 -3.70 0.30 0 0.95 0.45 1.45 0.95 0.60 0.60 1.05 0.75 1.15 0.45 0.30 -0.90 1.20 -0.05 2.60 2.45 1.45 2.60 1.50 3.35 0.15 2.60z"/>
  <path d="M33 21.85 c-0.70 -0.85 -1.45 -1.80 -1.65 -2.20 -0.70 -1.15 1.25 0.25 2.30 1.65 1.35 1.85 0.80 2.30 -0.65 0.55z"/>
  <path d="M9.50 22.20 c0 -0.75 0.70 -1.50 1.85 -2.15 1.35 -0.70 1.65 -0.70 1.65 -0.05 0 0.30 -0.25 0.50 -0.60 0.50 -0.30 0 -1.10 0.50 -1.75 1.10 -0.65 0.60 -1.15 0.85 -1.15 0.60z"/>
 </g>
 <g fill="#6e5f44">
  <path d="M22.65 33.65 c-0.90 -0.35 -0.80 -1.65 0.05 -1.65 0.40 0 0.90 -0.20 1.05 -0.50 0.20 -0.30 -0.25 -0.35 -1.15 -0.20 -0.95 0.20 -1.60 0.05 -2.05 -0.50 -0.60 -0.70 -0.50 -0.80 0.90 -0.80 0.90 0 2.55 -0.50 3.70 -1.05 l2.10 -1.05 -1.25 1.35 c-0.70 0.80 -1 1.25 -0.70 1.10 1 -0.60 1.80 0.90 1.20 2.35 -0.35 1 -0.80 1.30 -1.85 1.25 -0.80 0 -1.70 -0.15 -2 -0.30z"/>
  <path d="M12.70 31.80 c-0.15 -0.45 -0.15 -1.20 0.05 -1.65 0.30 -0.80 0.40 -0.75 0.85 0.35 l0.45 1.25 0.75 -1.25 0.70 -1.25 -0.10 1.50 c-0.10 1.15 -0.45 1.55 -1.30 1.65 -0.65 0.10 -1.25 -0.15 -1.40 -0.60z"/>
  <path d="M13.65 17.15 c-0.35 -0.75 -0.65 -1.85 -0.65 -2.45 0 -0.60 -0.45 -1.65 -1 -2.30 -1 -1.35 -0.90 -2 0.30 -1.55 1.10 0.40 0.80 -0.55 -0.50 -1.80 -1.05 -1 -1.15 -1.35 -0.70 -2.50 1.60 -3.95 2.40 -4.65 2.40 -2.05 0 0.85 0.15 1.50 0.40 1.50 0.20 0 0.85 0.15 1.50 0.30 0.90 0.25 1.10 0.10 1.10 -0.75 0 -0.80 0.30 -1.05 1.25 -1.05 0.70 0 1.25 -0.20 1.25 -0.45 0 -0.25 0.45 -0.55 1.05 -0.70 0.55 -0.15 1.25 -0.95 1.60 -1.80 0.65 -1.75 2.10 -2.05 2.50 -0.55 0.15 0.55 0.10 0.90 -0.15 0.75 -0.20 -0.10 -0.50 0.45 -0.70 1.25 -0.15 0.90 -0.70 1.70 -1.30 1.90 l-1.05 0.40 1.10 1.10 c1.45 1.60 0.65 4.55 -1.25 4.60 -0.25 0 0.05 -0.55 0.70 -1.25 1.10 -1.15 1.10 -1.35 0.40 -2.05 -1 -1 -2.30 -0.60 -4.35 1.30 -1.40 1.35 -1.70 3 -0.50 3 0.25 0 0.45 0.35 0.45 0.75 0 0.40 -0.35 0.75 -0.75 0.75 -0.40 0 -0.75 -0.35 -0.75 -0.75 0 -0.40 -0.45 -0.75 -1 -0.75 -0.55 0 -1.15 -0.05 -1.35 -0.10 -0.25 -0.05 -0.50 0.35 -0.60 0.85 -0.15 0.80 -0.05 0.85 0.55 0.35 0.60 -0.45 0.95 -0.45 1.70 0.15 1.95 1.50 4.25 0.50 2.60 -1.15 -0.80 -0.80 -0.25 -1.20 1.25 -0.85 1 0.25 1.25 0.60 1.20 1.65 -0.10 0.90 -0.45 1.40 -1.10 1.50 -0.55 0.10 -1.20 0.45 -1.50 0.80 -0.25 0.35 -0.85 0.75 -1.25 0.95 -0.50 0.20 -0.40 0.30 0.40 0.30 1.35 0.05 1.45 0.85 0.15 1.55 -1.65 0.85 -2.75 0.55 -3.40 -0.85z"/>
  <path d="M14.50 1.25 c1.50 -1.60 2.50 -1.60 2.50 0 0 1.10 -0.20 1.25 -1.85 1.25 l-1.80 0 1.15 -1.25z"/>
 </g>
 <g fill="#955e30">
  <path d="M13.60 39.15 c0.25 -1.25 1.40 -1.40 1.40 -0.20 0 0.60 -0.30 1.05 -0.80 1.05 -0.45 0 -0.70 -0.35 -0.60 -0.85z"/>
  <path d="M14 35.80 c0 -0.70 0.25 -1.40 0.50 -1.55 0.30 -0.20 0.50 0.35 0.50 1.20 0 0.85 -0.20 1.55 -0.50 1.55 -0.25 0 -0.50 -0.55 -0.50 -1.20z"/>
  <path d="M16.10 35.90 c0.15 -1.25 1.25 -1.65 2.35 -0.95 0.60 0.40 0.60 0.60 0.10 1.25 -1.05 1.25 -2.65 1.05 -2.45 -0.30z"/>
  <path d="M16.70 31.40 c0.35 -1.85 0.55 -2.10 1.25 -1.65 0.85 0.50 0.65 2.60 -0.25 2.95 -1.25 0.50 -1.35 0.40 -1 -1.30z"/>
  <path d="M31 32.15 c0 -0.60 0.25 -1.25 0.50 -1.40 0.30 -0.15 0.50 -0.75 0.50 -1.30 0 -0.55 0.20 -0.90 0.45 -0.70 0.30 0.15 0.30 0.90 -0.05 1.90 -0.70 2.10 -1.40 2.85 -1.40 1.50z"/>
  <path d="M14 32.15 c0.05 -0.20 0.35 -0.95 0.80 -1.65 l0.70 -1.25 -0.10 1.45 c-0.10 0.80 -0.45 1.55 -0.75 1.70 -0.35 0.10 -0.65 0 -0.65 -0.25z"/>
  <path d="M17.50 25.75 c0 -0.40 0.60 -0.90 1.35 -1.05 l1.35 -0.35 -1.20 -0.45 c-0.80 -0.30 -1.50 -0.20 -2.30 0.35 -0.65 0.40 -2.20 0.90 -3.50 1.10 -2.30 0.30 -2.30 0.30 -2.10 -1.15 0.10 -0.90 0.60 -1.70 1.50 -2.20 1.30 -0.70 1.45 -0.65 2.45 0.30 1.05 1.05 1.05 1.05 3.60 0.15 1.45 -0.55 3.20 -0.95 3.90 -0.95 1.65 0 2.70 1.15 2.20 2.35 -0.25 0.50 -0.35 1.15 -0.30 1.45 0.10 0.75 -1.60 1.20 -4.55 1.20 -1.80 0 -2.40 -0.20 -2.40 -0.75z"/>
  <path d="M31.75 23.65 c-1.35 -2.05 -1.75 -3.65 -0.60 -2.75 1 0.85 2.95 4.60 2.40 4.60 -0.30 0 -1.10 -0.85 -1.80 -1.85z"/>
  <path d="M27.50 22.55 c-1.30 -2.45 -0.05 -4.05 1.65 -2.15 1.05 1.15 1.10 1.80 0.05 1.40 -0.60 -0.20 -0.70 -0.05 -0.45 0.70 0.40 1.30 -0.55 1.30 -1.25 0.05z"/>
  <path d="M34 23.20 c0 -0.25 -0.55 -1.10 -1.25 -1.90 -1.50 -1.75 -1.65 -2.30 -0.20 -1 1.25 1.15 2.15 2.70 1.75 3.10 -0.15 0.15 -0.30 0.05 -0.30 -0.20z"/>
  <path d="M10 21.05 c0 -0.25 0.35 -0.60 0.80 -0.75 1.20 -0.45 1.40 -0.35 0.70 0.45 -0.70 0.85 -1.50 1 -1.50 0.30z"/>
 </g>
 <g fill="#7a6a4c">
  <path d="M24 33.75 c0 -0.15 0.55 -0.90 1.25 -1.65 1.15 -1.25 1.25 -1.25 1.25 -0.30 0 0.55 -0.25 1.25 -0.60 1.60 -0.60 0.60 -1.90 0.85 -1.90 0.35z"/>
  <path d="M23.60 32 c0.35 -0.55 0.80 -1 1 -1 0.75 0 0.40 0.75 -0.60 1.40 -0.95 0.60 -1 0.55 -0.40 -0.40z"/>
  <path d="M20.65 30.70 c-0.80 -0.60 -0.70 -0.65 1 -0.70 1.05 0 2.45 -0.35 3.15 -0.80 1.70 -1.15 2 -0.60 0.30 0.65 -1.90 1.35 -3.40 1.65 -4.45 0.85z"/>
  <path d="M13.60 16.90 c-0.80 -2.25 -0.75 -3.15 0.10 -3.85 0.60 -0.50 0.95 -0.40 1.80 0.45 0.60 0.60 1.40 0.95 1.80 0.80 0.60 -0.25 0.60 -0.10 0.15 0.75 -0.40 0.80 -0.85 0.95 -1.75 0.75 -0.85 -0.25 -1.20 -0.10 -1.20 0.45 0 0.55 0.55 0.75 1.85 0.75 2.15 0 1.75 0.80 -0.65 1.30 -1.35 0.25 -1.55 0.10 -2.10 -1.40z"/>
  <path d="M18.65 13.80 c0.15 -0.40 -0.05 -1 -0.45 -1.30 -1.10 -0.95 -0.85 -1.50 0.65 -1.50 0.75 0 1.85 -0.50 2.50 -1.10 1 -0.95 1.15 -0.95 1.15 -0.20 0 0.45 -0.60 1.40 -1.30 2.05 -0.75 0.70 -1.15 1.25 -0.95 1.25 0.20 0 0.10 0.35 -0.25 0.75 -0.80 0.95 -1.70 1 -1.35 0.05z"/>
  <path d="M16.15 12.85 c-0.60 -1.05 -2.65 -1.40 -3 -0.55 -0.20 0.55 -0.45 0.60 -0.95 0.15 -0.80 -0.65 -0.95 -2.15 -0.20 -1.70 1.25 0.75 1.35 -0.45 0.10 -1.50 -1 -0.90 -1.15 -1.20 -0.55 -1.25 0.45 0 0.95 0.35 1.15 0.75 0.45 1.15 1.45 0.90 1.15 -0.30 -0.30 -1.15 1.70 -3.45 2.95 -3.45 0.40 0 1.15 -0.45 1.70 -1 0.55 -0.55 1.35 -1 1.75 -1 0.45 0 0.90 -0.60 1.10 -1.50 0.20 -1.15 0.55 -1.50 1.45 -1.50 1.05 0 1.20 0.15 0.90 1.35 -0.45 1.95 -1.60 3.65 -2.45 3.65 -0.40 0 -0.75 0.15 -0.75 0.30 0 0.50 1.40 1.70 1.95 1.70 0.30 0 0.55 0.25 0.55 0.50 0 0.30 -0.20 0.50 -0.45 0.50 -0.30 0 -0.65 -0.20 -0.80 -0.50 -0.60 -0.95 -2.20 -0.50 -3.70 1.05 -0.95 0.90 -1.90 1.45 -2.30 1.25 -0.40 -0.15 -0.75 -0.05 -0.75 0.20 0 0.30 0.15 0.50 0.40 0.50 0.65 0.05 2.10 2.45 1.65 2.75 -0.30 0.15 -0.65 -0.05 -0.90 -0.40z"/>
  <path d="M12 4.55 c0 -0.30 0.55 -1.15 1.25 -1.90 l1.20 -1.40 0.05 1.90 c0 1.65 -0.15 1.85 -1.25 1.85 -0.70 0 -1.25 -0.20 -1.25 -0.45z"/>
 </g>
 <g fill="#8a795a">
  <path d="M20.50 30.50 c0 -0.25 0.70 -0.50 1.55 -0.50 0.85 0 2 -0.25 2.60 -0.55 1.05 -0.50 1.05 -0.45 -0.10 0.50 -1.20 1.10 -4.05 1.45 -4.05 0.55z"/>
  <path d="M13.60 16.65 c-0.35 -1.20 -0.40 -2.10 -0.05 -2.75 0.65 -1.20 1.05 -1.15 2.45 0.35 1.35 1.45 1.10 2.15 -0.45 1.20 -1.15 -0.75 -1.80 -0.35 -1.40 0.80 0.20 0.40 0.90 0.75 1.60 0.75 1.55 0 1.65 0.80 0.15 1.20 -1.70 0.45 -1.70 0.45 -2.30 -1.55z"/>
  <path d="M19 13.30 c0 -0.40 -0.35 -0.80 -0.75 -1 -1.25 -0.45 -0.85 -1.30 0.60 -1.30 0.70 0 1.75 -0.35 2.25 -0.85 0.50 -0.45 1 -0.70 1.15 -0.55 0.55 0.50 -0.40 2 -1.55 2.40 -0.80 0.30 -1.10 0.75 -0.90 1.25 0.15 0.40 0.05 0.75 -0.25 0.75 -0.30 0 -0.55 -0.30 -0.55 -0.70z"/>
  <path d="M16 12.55 c0 -0.75 -2.60 -1.20 -3 -0.50 -0.20 0.30 -0.65 0.40 -0.95 0.25 -0.90 -0.55 -0.65 -1.30 0.45 -1.30 1.05 0 1.90 -2 1.25 -2.95 -0.55 -0.95 -1.40 -0.60 -1.10 0.45 0.30 1.25 -0.25 1.30 -1.30 0.15 -0.65 -0.75 -0.65 -1.05 -0.15 -1.75 0.35 -0.50 1.20 -0.90 1.90 -0.90 1.35 0 3.90 -1.05 3.90 -1.60 0 -0.25 0.35 -0.40 0.75 -0.40 0.85 0 3.75 -2.75 3.75 -3.50 0 -0.30 0.45 -0.50 1 -0.50 1.15 0 1.15 0.10 0.50 2.50 -0.35 1.30 -0.90 1.95 -2.10 2.45 l-1.65 0.65 1.25 0.35 c1.25 0.35 1.20 0.40 -0.65 1.25 -1.05 0.50 -2.20 1.40 -2.60 1.90 -0.35 0.55 -0.95 0.90 -1.35 0.80 -0.45 -0.20 0 -0.85 1.25 -2.10 1.05 -1 1.75 -1.80 1.60 -1.80 -0.65 0 -3 2.10 -3.55 3.10 -0.50 0.90 -0.40 1.25 0.60 2.15 1.30 1.20 1.50 1.75 0.70 1.75 -0.25 0 -0.50 -0.20 -0.50 -0.45z"/>
  <path d="M14.90 1 c0.60 -0.55 1.40 -1 1.85 -1 0.40 0 0.75 0.45 0.75 1 0 0.80 -0.35 1 -1.85 1 l-1.85 0 1.10 -1z"/>
 </g>
 <g fill="#99875f">
  <path d="M14 17.45 c-0.65 -1.20 -0.60 -1.95 0.05 -0.85 0.35 0.65 0.85 0.80 2.05 0.55 1 -0.20 1.45 -0.15 1.25 0.20 -0.65 1 -2.85 1.10 -3.35 0.10z"/>
  <path d="M12.15 12.15 c-0.90 -0.35 -0.80 -1.15 0.10 -1.15 0.40 0 0.75 0.35 0.75 0.75 0 0.40 -0.05 0.75 -0.10 0.70 -0.10 0 -0.45 -0.15 -0.75 -0.30z"/>
  <path d="M18.25 12.05 c-0.15 -0.25 0.50 -0.75 1.45 -1.05 0.95 -0.30 1.85 -0.80 1.95 -1.15 0.10 -0.35 0.40 -0.45 0.60 -0.25 0.50 0.45 -2 2.90 -2.95 2.90 -0.40 0 -0.85 -0.20 -1.05 -0.45z"/>
  <path d="M14.50 11.50 c0 -0.25 0.35 -0.50 0.75 -0.50 0.40 0 0.75 0.25 0.75 0.50 0 0.30 -0.35 0.50 -0.75 0.50 -0.40 0 -0.75 -0.20 -0.75 -0.50z"/>
  <path d="M16 9.50 c0 -1.05 3.05 -3.50 4.35 -3.50 0.65 0 1.05 0.20 0.90 0.50 -0.15 0.30 -0.65 0.50 -1 0.50 -0.40 0 -1.50 0.70 -2.50 1.55 -0.95 0.85 -1.75 1.30 -1.75 0.95z"/>
  <path d="M11.30 8.55 c-0.50 -0.50 -0.65 -1.10 -0.40 -1.25 0.25 -0.15 0.60 -0.95 0.75 -1.75 0.20 -0.85 1.25 -2.45 2.35 -3.55 1.65 -1.65 2.35 -2 4 -2 1.20 0 2 0.25 2 0.60 0 0.45 0.15 0.45 0.60 0 0.35 -0.35 1.15 -0.60 1.80 -0.60 0.90 0 1.15 0.20 0.90 0.80 -0.15 0.45 -0.30 1 -0.30 1.25 0 0.70 -3.10 3.45 -3.85 3.45 -0.35 0 -1.55 0.90 -2.70 2 -1.15 1.10 -2.15 2 -2.25 2 -0.05 0 -0.05 -0.40 0 -0.85 0.05 -0.60 -0.35 -0.95 -1.10 -1.05 -1.05 -0.15 -1.10 -0.05 -0.60 0.85 0.65 1.30 -0.05 1.35 -1.20 0.10z m5.95 -4.55 c0.40 0 0.85 -0.20 1 -0.50 0.20 -0.30 -0.35 -0.50 -1.20 -0.50 -1.35 0 -1.55 0.15 -1.55 1.40 0.05 1.15 0.10 1.20 0.55 0.50 0.25 -0.50 0.80 -0.90 1.20 -0.90z"/>
 </g>
 <g fill="#a5936b">
  <path d="M12 11.75 c-0.50 -0.60 -0.50 -0.75 0.20 -0.75 0.45 0 0.80 0.35 0.80 0.75 0 0.40 -0.10 0.75 -0.20 0.75 -0.10 0 -0.45 -0.35 -0.80 -0.75z"/>
  <path d="M18.35 12.15 c-0.75 -0.70 -0.30 -1.15 1.15 -1.15 0.85 0 1.65 -0.35 1.95 -0.85 0.25 -0.50 0.65 -0.75 0.80 -0.55 0.20 0.20 -0.20 0.90 -0.90 1.60 -1.30 1.30 -2.35 1.60 -3 0.95z"/>
  <path d="M16 9.50 c0 -0.90 3.15 -3.50 4.25 -3.45 0.95 0 0.95 0.05 0.05 0.60 -0.55 0.35 -1.70 1.25 -2.65 2.05 -0.90 0.75 -1.65 1.15 -1.65 0.80z"/>
  <path d="M11.45 8.50 c-0.65 -0.50 -0.90 -0.95 -0.55 -1 0.30 0 0.60 -0.55 0.60 -1.20 0 -1.10 2.10 -4.25 3.15 -4.70 0.20 -0.10 0.70 -0.50 1.10 -0.90 0.55 -0.55 1.70 -0.70 4.25 -0.60 l3.55 0.15 -1.85 2.45 c-1.05 1.30 -2.35 2.60 -2.95 2.85 -1.45 0.65 -2.95 1.60 -3.35 2.20 -0.25 0.30 -0.75 0.25 -1.45 -0.15 -1.35 -0.85 -2.45 -0.05 -1.45 1.15 0.85 1.05 0.35 0.95 -1.05 -0.25z"/>
 </g>
 <g fill="#b3a179">
  <path d="M18.45 11.95 c-0.60 -0.35 -0.60 -0.45 0.05 -0.45 0.40 0 1.35 -0.35 2.15 -0.70 1.35 -0.75 1.90 -0.35 0.75 0.55 -1.10 0.85 -2.20 1.05 -2.95 0.60z"/>
  <path d="M16 9.60 c0 -0.80 3.45 -3.60 4.40 -3.55 0.75 0 0.75 0.10 -0.10 0.60 -0.55 0.35 -1.70 1.25 -2.65 2.05 -0.90 0.75 -1.65 1.20 -1.65 0.90z"/>
  <path d="M11.20 8.40 c-0.20 -0.30 -0.15 -0.65 0.15 -0.75 0.25 -0.10 0.40 -0.70 0.30 -1.35 -0.15 -0.75 0.20 -1.65 1.10 -2.60 1 -1.10 1.25 -1.20 1 -0.45 -0.20 0.55 -0.50 1.55 -0.65 2.25 -0.10 0.70 -0.45 1.50 -0.70 1.85 -0.25 0.35 -0.35 0.85 -0.15 1.15 0.15 0.25 0.10 0.50 -0.20 0.50 -0.25 0 -0.65 -0.25 -0.85 -0.60z"/>
  <path d="M13.80 5.65 c0.40 -2.30 1.05 -3.60 2.25 -4.75 1.35 -1.35 1.60 -1.10 1.30 1.10 l-0.25 2 1 -1.25 c0.55 -0.70 1.40 -1.25 1.90 -1.25 0.50 0 1.30 -0.35 1.75 -0.80 0.45 -0.45 0.90 -0.70 1.05 -0.60 0.30 0.35 -0.35 1.90 -0.80 1.90 -0.20 0 -0.85 0.80 -1.45 1.75 -0.55 1 -1.40 1.75 -1.95 1.75 -0.50 0 -1.20 0.30 -1.55 0.65 -0.55 0.50 -0.60 0.35 -0.35 -0.65 0.25 -1 0.15 -0.90 -0.55 0.40 -0.50 0.90 -1.20 1.60 -1.75 1.60 -0.80 0 -0.90 -0.25 -0.60 -1.85z"/>
 </g>
 <g fill="#c9b790">
  <path d="M19.45 11.45 c0.70 -0.25 1.55 -0.75 1.90 -1.05 0.90 -0.75 0.80 -0.15 -0.15 0.80 -0.40 0.45 -1.25 0.80 -1.85 0.75 -1.05 0 -1.05 -0.05 0.10 -0.50z"/>
  <path d="M17.70 7.75 c2 -1.80 2.80 -2.15 2.80 -1.25 0 0.30 -0.30 0.50 -0.65 0.50 -0.40 0 -1.20 0.55 -1.85 1.25 -0.65 0.70 -1.40 1.25 -1.70 1.25 -0.30 -0.05 0.35 -0.80 1.40 -1.75z"/>
  <path d="M11.85 6.65 c-0.40 -0.65 0.35 -2.90 1.10 -3.40 0.70 -0.40 0.65 0.05 -0.15 2.20 -0.35 1 -0.75 1.50 -0.95 1.20z"/>
  <path d="M14.45 5.95 c-0.10 -1.90 0.10 -2.65 0.85 -3.45 0.50 -0.55 0.85 -0.55 1.25 -0.15 0.70 0.70 -0.15 3.20 -1.35 4.20 -0.55 0.45 -0.70 0.35 -0.75 -0.60z"/>
  <path d="M17 5.50 c0 -0.25 0.25 -1.05 0.60 -1.75 0.45 -0.95 0.80 -1.20 1.60 -0.95 1.35 0.40 1.45 0.55 1.10 1.15 -0.45 0.70 -3.30 2.05 -3.30 1.55z"/>
 </g>
 <g fill="#ddcda5">
  <path d="M16.55 9.05 c0.30 -0.80 2.85 -2.85 3.10 -2.50 0.10 0.10 -0.60 0.85 -1.55 1.70 -0.95 0.80 -1.65 1.15 -1.55 0.80z"/>
 </g>
</svg>