<?xml version="1.0" encoding="utf-8"?>
<!DOCTYPE svg PUBLIC "-//W3C//DTD SVG 1.0//EN" "http://www.w3.org/TR/2001/REC-SVG-20010904/DTD/svg10.dtd">
<svg version="1.0" xmlns="http://www.w3.org/2000/svg" width="40px" height="40px" viewBox="0 0 40 40" preserveAspectRatio="xMidYMid meet">
 <g fill="#1e1611">
  <path d="M6.65 39.15 c-0.15 -0.50 -0.40 -1.05 -0.50 -1.25 -0.10 -0.25 0.35 -0.40 1.05 -0.40 1.05 0 1.30 0.25 1.30 1.25 0 1.45 -1.35 1.75 -1.85 0.40z"/>
  <path d="M14 38.55 c0 -0.80 0.20 -2.05 0.50 -2.75 0.40 -1.05 0.25 -1.40 -0.80 -2.25 -1.05 -0.85 -1.25 -1.35 -1.10 -3.15 0.15 -2.15 0.20 -2.15 3.85 -4 2 -1.05 4.35 -1.90 5.10 -1.90 0.80 0 1.45 -0.20 1.45 -0.40 0 -0.25 1 -1.45 2.25 -2.75 1.70 -1.80 2.60 -2.35 3.75 -2.35 1.40 0 1.50 0.15 1.50 1.75 0 1.20 -0.45 2.25 -1.50 3.40 -0.80 0.95 -1.50 2.20 -1.50 2.80 0 0.55 -0.20 1.05 -0.50 1.05 -0.25 0 -0.50 0.70 -0.50 1.50 0 1.25 -0.20 1.50 -1.25 1.50 -0.70 0 -1.25 0.25 -1.25 0.55 0 0.85 -1.60 1.90 -2.85 1.95 -0.75 0 -1.15 0.30 -1.15 0.85 0 0.45 -0.50 1.90 -1.10 3.20 -1.05 2.25 -1.30 2.40 -3 2.45 -1.75 0 -1.90 -0.10 -1.90 -1.45z"/>
  <path d="M33 38.85 c0 -0.65 0.60 -1.70 1.30 -2.40 0.70 -0.65 1.60 -1.80 2 -2.55 0.55 -1.05 1.10 -1.40 2.20 -1.40 1.45 0 1.50 0.10 1.50 2.35 0 3.25 -1.80 5.15 -4.85 5.15 -1.90 0 -2.15 -0.15 -2.15 -1.15z"/>
  <path d="M4.35 29.65 c-0.20 -0.15 -0.35 -1.10 -0.35 -2.10 0 -1 -0.45 -2.35 -0.95 -3 -0.75 -1 -0.85 -1.50 -0.40 -3.10 0.25 -1.10 0.70 -1.95 0.95 -1.95 0.55 0 -0.05 -2.10 -0.75 -2.55 -0.55 -0.40 -0.15 -2.40 1 -4.80 0.90 -1.95 1.65 -2.15 1.65 -0.40 0 1.05 0.25 1.25 1.45 1.25 1.90 0 3.05 1.60 3.05 4.05 0 2.85 -0.40 3.45 -2.35 3.45 -2.95 0 -1.35 0.85 2.35 1.20 l3.50 0.35 0 2.05 c0 2.45 -0.95 3.35 -3.60 3.40 -1.70 0 -1.90 0.15 -1.90 1.25 0 1.10 -0.20 1.25 -1.65 1.25 -0.95 0 -1.85 -0.15 -2 -0.35z"/>
  <path d="M16.65 21.25 c-0.90 -0.95 -0.80 -3.50 0.10 -4.25 1.10 -0.90 5.10 -1.25 6 -0.50 0.90 0.75 1 4.05 0.15 4.90 -0.85 0.85 -5.50 0.75 -6.25 -0.15z"/>
  <path d="M29.50 14.50 c0 -0.25 -0.55 -0.50 -1.25 -0.50 -1.10 0 -1.25 -0.20 -1.25 -2 0 -1.45 0.20 -2 0.75 -2 0.50 0 0.75 -0.50 0.75 -1.50 0 -1.35 0.15 -1.50 1.65 -1.50 2.40 0 3.40 0.95 3.70 3.60 0.35 3.10 -0.40 4.40 -2.60 4.40 -0.95 0 -1.75 -0.20 -1.75 -0.50z"/>
  <path d="M6.35 8 c-0.35 -1.30 1.40 -3.50 2.85 -3.50 0.60 0 1.40 -0.30 1.75 -0.60 0.55 -0.50 0.70 -0.50 0.90 0 0.15 0.40 1.45 0.60 3.90 0.60 2.05 0 4.85 0.25 6.25 0.55 2.45 0.50 2.50 0.60 2.50 2.30 l0 1.80 -2.60 -0.45 c-1.45 -0.25 -4.85 -0.40 -7.50 -0.35 -4.05 0.10 -4.90 0 -4.90 -0.60 0 -0.40 -0.35 -0.75 -0.75 -0.75 -0.40 0 -0.75 0.45 -0.75 1 0 1.30 -1.30 1.30 -1.65 0z"/>
  <path d="M14.50 1.75 c2.05 -2.10 3.50 -2.30 3.50 -0.50 0 1.45 -1.30 2.25 -3.55 2.25 l-1.65 0 1.70 -1.75z"/>
 </g>
 <g fill="#34281f">
  <path d="M14.25 39.50 c-0.20 -0.30 -0.25 -1.60 -0.15 -2.90 0.15 -2.25 0.10 -2.35 -1.20 -2.50 -0.80 -0.10 -1.40 -0.45 -1.40 -0.90 0 -0.40 -0.30 -0.70 -0.65 -0.70 -0.35 0 -1.10 -0.40 -1.65 -0.95 -1.15 -1 -5.05 -1.60 -5.40 -0.80 -0.30 0.70 -1.80 -1.25 -1.80 -2.35 0 -0.50 0.35 -0.90 0.75 -0.90 0.50 0 0.75 -0.50 0.75 -1.50 0 -0.80 -0.20 -1.50 -0.50 -1.50 -0.30 0 -0.40 -2.05 -0.30 -5.10 0.15 -5.25 1.05 -8.25 3 -9.85 0.45 -0.40 0.80 -1.35 0.80 -2.15 0 -1.05 0.30 -1.55 1 -1.75 0.55 -0.15 1 -0.50 1 -0.75 0 -0.25 0.45 -0.30 1 -0.15 0.55 0.15 1 0.10 1 -0.15 0 -0.25 1.25 -1.10 2.80 -1.90 1.55 -0.80 2.95 -1.70 3.05 -2.05 0.40 -1.05 2.15 -0.80 2.15 0.35 0 0.55 -0.20 1 -0.50 1 -0.25 0 -0.50 0.35 -0.50 0.75 0 0.40 -0.40 0.75 -0.85 0.80 -1.50 0.05 0.85 0.85 2.60 0.90 0.85 0.05 2.90 0.40 4.50 0.85 1.65 0.45 3.85 0.80 4.85 0.75 2.20 -0.10 3.90 0.65 3.90 1.75 0 0.40 0.35 0.85 0.75 1 1.15 0.45 1 4.75 -0.25 6.35 -0.55 0.70 -1.20 2.35 -1.45 3.70 -0.60 2.95 -1.05 4.15 -1.55 4.15 -0.25 0 -0.80 0.70 -1.20 1.60 -0.95 1.85 -0.95 1.90 -0.30 1.90 0.30 0 0.50 -0.35 0.50 -0.75 0 -0.50 0.55 -0.75 1.75 -0.75 1.65 0 1.75 0.10 1.75 1.75 0 1.40 -0.20 1.75 -0.95 1.75 -0.50 0 -1.05 0.45 -1.20 1 -0.20 0.70 -0.70 1 -1.75 1 -0.85 0 -1.65 0.20 -1.85 0.45 -0.15 0.25 -0.95 0.60 -1.75 0.80 -0.85 0.20 -1.50 0.55 -1.50 0.80 0 0.25 -0.25 0.45 -0.55 0.45 -0.30 0 -1 0.55 -1.55 1.25 -0.55 0.70 -1.30 1.25 -1.65 1.25 -0.65 0 -0.85 0.40 -1.45 3.15 -0.20 0.90 -0.65 1.35 -1.30 1.35 -0.85 0 -0.95 -0.25 -0.70 -1.35 0.15 -0.80 0.75 -2.15 1.30 -3.10 1 -1.80 0.90 -2.05 -1.70 -3.60 -1.75 -0.95 -1.05 -2.20 2.10 -3.70 1.65 -0.80 2.90 -1.50 2.80 -1.60 -0.10 -0.15 -1.60 0.50 -3.25 1.35 -3 1.50 -4.20 2.75 -3.20 3.45 0.25 0.15 1.10 0.80 1.85 1.40 l1.40 1.10 -1.05 2.20 c-0.60 1.20 -1.05 2.55 -1.05 3 0 0.95 -0.75 1.15 -1.25 0.35z m7.20 -15.55 c1.10 -0.35 2.05 -0.75 2.05 -0.95 0 -0.20 0.45 -0.50 1.05 -0.65 0.55 -0.15 1.15 -0.75 1.30 -1.30 0.15 -0.60 0.45 -1.05 0.65 -1.05 0.20 0 0.60 -0.95 0.90 -2.15 0.55 -2.20 0.35 -4.35 -0.45 -4.35 -0.25 0 -0.45 -0.80 -0.45 -1.75 0 -1.60 -0.10 -1.75 -1.55 -1.75 -0.85 0 -1.90 -0.20 -2.40 -0.50 -3 -1.60 -10.75 -1.40 -11.70 0.30 -0.25 0.40 -1.20 0.70 -2.35 0.70 -1.65 0 -2 0.15 -2 0.95 0 0.55 -0.40 1.10 -0.85 1.20 -0.50 0.15 0.05 0.25 1.25 0.30 1.50 0.05 2.10 0.25 2.10 0.80 0 0.40 0.25 0.75 0.50 0.75 0.30 0 0.50 1.25 0.50 2.75 0 1.50 -0.20 2.75 -0.50 2.75 -0.90 0 -0.50 1.10 0.50 1.35 0.55 0.15 1 0.45 1 0.70 0 0.25 0.55 0.45 1.25 0.45 1.05 0 1.25 -0.25 1.25 -1.50 0 -1.15 0.20 -1.50 1 -1.50 0.55 0 1 -0.35 1 -0.75 0 -0.40 0.15 -0.75 0.40 -0.75 0.20 0 0.60 -0.50 0.85 -1.10 0.40 -0.90 1 -1.20 2.60 -1.30 3.30 -0.25 4.15 0.45 4.15 3.40 0 2.35 -0.10 2.50 -1.25 2.50 -0.70 0 -1.25 0.20 -1.25 0.45 0 0.25 -1.55 0.60 -3.50 0.80 l-3.50 0.35 0 1.65 c0 1 -0.30 1.75 -0.75 1.95 -0.40 0.15 -0.75 0.50 -0.75 0.75 0 0.25 1.55 -0.30 3.45 -1.20 1.85 -0.90 4.35 -1.95 5.50 -2.30z m-10.30 1.35 c1.20 -0.95 1.05 -1.80 -0.35 -1.80 -0.65 0 -1.60 -0.15 -2.10 -0.35 -0.60 -0.20 -0.75 -0.15 -0.50 0.25 0.20 0.35 0.95 0.60 1.60 0.60 1.65 0 1.30 1.20 -0.40 1.40 -0.90 0.10 -1.85 -0.45 -3.55 -2.05 -1.30 -1.20 -2.35 -2 -2.35 -1.75 0 0.20 0.95 1.30 2.05 2.40 2.20 2.10 3.95 2.55 5.60 1.30z m16.05 -2.30 c1 -1.10 1.80 -2.15 1.80 -2.35 0 -0.20 -0.70 0.45 -1.55 1.50 -0.80 1 -1.90 2.05 -2.35 2.35 -0.45 0.25 -0.60 0.50 -0.30 0.50 0.35 0 1.40 -0.90 2.40 -2z m-5.70 -3.25 c0.50 -0.60 0.50 -0.90 0 -1.50 -0.90 -1.05 -1.45 -0.95 -1.15 0.25 0.20 0.70 0 1 -0.50 1 -0.45 0 -0.95 0.25 -1.10 0.50 -0.50 0.80 2.05 0.60 2.75 -0.25z m-13.25 -1.75 c0.35 -1.05 -0.85 -3.50 -1.65 -3.50 -0.60 0 -1.60 1.15 -1.60 1.85 0 0.75 1.75 2.65 2.45 2.65 0.25 0 0.65 -0.45 0.80 -1z m23.75 -5.45 c0.60 -1.20 -0.05 -3.30 -1.20 -3.70 -0.60 -0.25 -0.55 0 0.25 1.10 0.85 1.15 0.95 1.60 0.50 2.50 -0.35 0.55 -0.45 1.05 -0.35 1.05 0.15 0 0.50 -0.45 0.80 -0.95z m-16.05 -6.35 c0.10 -0.10 -0.95 -0.20 -2.35 -0.20 -1.45 0 -2.60 0.20 -2.60 0.45 0 0.40 4.50 0.15 4.95 -0.25z"/>
  <path d="M6.15 16.70 c-0.45 -1.25 0.65 -2 1.30 -0.80 0.50 0.95 0.30 1.60 -0.55 1.60 -0.25 0 -0.55 -0.35 -0.75 -0.80z"/>
  <path d="M33.50 38.25 c0 -1.40 0.20 -1.75 1 -1.75 0.60 0 1 -0.35 1 -0.85 0 -1.75 1.90 -4.15 3.25 -4.15 1.30 0 1.30 0.05 1.15 3.40 -0.15 3.25 -0.20 3.35 -1.50 3.50 -0.80 0.10 -1.40 0.45 -1.40 0.90 0 0.40 -0.45 0.70 -1 0.70 -1.40 0 -1.30 -0.35 1 -2.80 1.10 -1.20 2 -2.45 2 -2.80 0 -0.35 -0.35 -0.20 -0.75 0.35 -1.55 2.25 -4 5.20 -4.35 5.20 -0.25 0.05 -0.40 -0.75 -0.40 -1.70z"/>
  <path d="M5.50 36.50 c-0.80 -1.65 -1.50 -3.10 -1.50 -3.25 0 -0.15 0.55 -0.25 1.25 -0.25 0.80 0 1.25 0.30 1.25 0.80 0 0.40 0.35 1.10 0.75 1.50 0.85 0.85 1.05 4.20 0.25 4.20 -0.25 0 -1.15 -1.35 -2 -3z"/>
  <path d="M9.50 36.50 c0 -1.95 0.05 -2 1.75 -2 1.70 0 1.75 0.05 1.75 2 0 1.95 -0.05 2 -1.75 2 -1.70 0 -1.75 -0.05 -1.75 -2z"/>
  <path d="M37.15 10.65 c-0.35 -0.10 -0.65 -1 -0.65 -1.95 0 -1.60 0.10 -1.70 1.75 -1.70 1.70 0 1.75 0.05 1.75 2 0 1.75 -0.15 2 -1.10 1.95 -0.65 0 -1.45 -0.15 -1.75 -0.30z"/>
 </g>
 <g fill="#4d3b2c">
  <path d="M9.25 37.65 c-0.45 -3.20 -1.55 -5.65 -2.45 -5.65 -0.40 0 -0.80 -0.30 -0.95 -0.60 -0.10 -0.40 -0.40 -0.45 -0.65 -0.20 -0.25 0.25 -0.20 0.55 0.20 0.65 0.30 0.15 0.60 0.65 0.60 1.20 0 0.50 0.25 0.95 0.50 0.95 0.30 0 0.50 0.80 0.50 1.75 0 0.95 -0.20 1.75 -0.40 1.75 -0.50 0 -3 -4.55 -3.90 -7.10 -0.55 -1.65 -0.55 -1.90 0.05 -1.90 1.05 0 1 -2.80 -0.05 -3.40 -0.60 -0.35 -0.70 -0.85 -0.45 -2.25 0.20 -1 0.55 -1.85 0.75 -1.85 0.20 0 0.75 0.85 1.25 1.90 0.60 1.25 1.60 2.25 2.90 2.85 1.85 0.90 1.95 0.90 3.65 0 0.95 -0.50 1.65 -1.15 1.55 -1.40 -0.10 -0.30 -1.20 -0.75 -2.50 -1.10 -1.95 -0.50 -2.25 -0.50 -1.80 0.10 0.30 0.35 1.10 0.65 1.75 0.65 0.65 0 1.20 0.25 1.20 0.50 0 0.30 -0.80 0.50 -1.75 0.50 -1.20 0 -1.85 -0.30 -2.25 -1 -0.30 -0.55 -0.75 -0.90 -0.95 -0.75 -0.55 0.30 -2.90 -3.10 -3.30 -4.80 -0.45 -1.75 0.50 -5.25 2.05 -7.55 0.95 -1.50 1.55 -1.90 2.70 -1.90 0.80 0 1.60 -0.25 1.75 -0.50 0.20 -0.35 -0.10 -0.45 -0.90 -0.25 -1.40 0.35 -2.05 -0.30 -1.60 -1.70 0.35 -1.15 2.70 -1.85 3.45 -1 0.40 0.45 0.25 0.50 -0.70 0.30 l-1.25 -0.30 1.10 0.90 c0.95 0.80 1.45 0.85 3.25 0.45 2.50 -0.55 7.75 -0.10 10.80 0.95 2.40 0.80 3.60 0.50 1.35 -0.35 -2.80 -1.05 -6.10 -1.60 -9.85 -1.60 -3.40 -0.05 -3.90 -0.15 -3.90 -0.90 0 -0.60 0.85 -1.30 2.40 -2.05 1.30 -0.65 2.65 -1.55 3 -2.05 0.45 -0.60 1.30 -0.90 2.65 -0.90 1.90 0 1.95 0.05 1.95 1.75 0 1.75 0 1.75 -2.35 1.80 l-2.40 0.05 2.75 0.45 c1.50 0.25 2.85 0.70 2.90 0.95 0.25 0.70 1.70 0.60 2.80 -0.25 1.40 -1.05 9.25 -1.05 10.60 0 0.50 0.40 1.80 0.95 2.85 1.25 1.60 0.45 1.85 0.75 1.85 2.05 0 1.05 -0.20 1.40 -0.60 1.15 -0.50 -0.30 -0.50 -0.20 0 0.35 0.45 0.45 0.60 3.55 0.60 11.75 0 9.45 -0.10 11.15 -0.80 11.75 -0.40 0.35 -1.20 1.50 -1.75 2.55 -0.55 1.10 -1.30 2.05 -1.70 2.20 -0.40 0.15 -0.85 0.70 -1 1.25 -0.30 0.85 -0.85 0.95 -5.05 0.95 l-4.70 0 0 -1.75 c0 -1.95 2.15 -6.50 3.30 -6.95 0.95 -0.35 0.90 -1.30 -0.05 -1.30 -0.40 0 -0.75 0.25 -0.75 0.50 0 0.30 -0.65 0.50 -1.50 0.50 -1 0 -1.50 0.25 -1.50 0.75 0 0.40 -0.35 0.75 -0.75 0.75 -0.40 0 -0.75 0.25 -0.75 0.50 0 0.30 -0.40 0.50 -0.90 0.50 -1.20 0 -2.35 1.35 -2.80 3.15 -0.15 0.75 -0.60 1.35 -1 1.35 -0.35 0 -0.90 0.50 -1.20 1.15 l-0.55 1.10 0 -1.15 c-0.10 -2.90 3.50 -7.35 7.20 -8.90 1.65 -0.70 2.50 -2.55 2.30 -5.05 -0.10 -0.65 0.10 -1.15 0.35 -1.15 0.95 0 3.10 -3.85 3.60 -6.45 0.25 -1.45 0.95 -3.20 1.50 -3.90 0.55 -0.70 1 -1.70 1 -2.25 0 -1.25 -3.10 -4.40 -3.40 -3.50 -0.10 0.35 0.40 1.10 1.10 1.65 1.55 1.20 1.60 2.05 0.35 3.85 -0.50 0.75 -1.10 2.50 -1.25 3.85 -0.35 3 -2.35 6 -4.80 7.30 -0.95 0.50 -3.55 1.70 -5.75 2.65 -2.20 0.95 -4.15 2.05 -4.30 2.40 -0.15 0.35 -0.55 1.15 -0.85 1.75 -0.50 0.90 -0.45 1.05 0.10 0.85 0.40 -0.15 1.40 0.20 2.20 0.80 l1.45 1.10 -0.90 1.80 c-0.55 1 -0.95 2.35 -0.95 2.95 0 1.05 -0.20 1.15 -2.95 1.15 l-2.95 0 -0.35 -2.35z m3.75 -7.40 c0.50 -0.65 0.45 -0.75 -0.55 -0.75 -0.65 0 -1.65 -0.35 -2.15 -0.75 -0.55 -0.40 -1.60 -0.75 -2.35 -0.75 -0.85 0 -1.70 -0.40 -2.15 -1.10 -0.75 -1.10 -0.80 -1.10 -0.80 -0.10 0 1.45 0.95 2.20 2.85 2.20 1 0 2.15 0.40 2.75 1 1.30 1.20 1.60 1.25 2.40 0.25z m15.75 -1.75 c0.40 -0.65 -1.25 -0.65 -2.25 0 -0.60 0.40 -0.45 0.50 0.60 0.50 0.75 0 1.50 -0.20 1.65 -0.50z m-7.70 -5 l1.20 -1.05 -2.25 0.30 c-1.25 0.15 -3.25 0.35 -4.50 0.40 l-2.25 0.10 -0.15 -2.15 c-0.15 -1.85 0 -2.20 0.85 -2.45 0.60 -0.15 1.05 -0.65 1.05 -1.15 0 -0.85 2.65 -3.50 3.50 -3.50 0.80 0 0.95 -1.60 0.25 -2.70 -1.10 -1.65 -5.50 -2.55 -7.20 -1.45 -0.85 0.55 -1.85 0.70 -3.35 0.45 -2.10 -0.25 -2.20 -0.20 -2.20 0.95 0 0.95 0.25 1.25 1.05 1.25 1.10 0 2.45 1.10 2.45 1.95 0 0.30 0.25 0.55 0.50 0.55 0.30 0 0.50 1 0.50 2.25 0 1.25 -0.20 2.25 -0.50 2.25 -0.85 0 -0.55 1.60 0.40 1.85 0.45 0.10 1.40 0.85 2.10 1.65 1.10 1.30 1.55 1.45 4.30 1.50 2.40 0 3.35 -0.25 4.25 -1z m-13.60 -3.80 c0.60 -0.95 1.05 -2.15 1.05 -2.60 -0.05 -1.30 -1.35 -2.70 -2.35 -2.50 -1.30 0.25 -1.45 2.60 -0.25 3.80 0.65 0.65 0.80 1.25 0.55 2 -0.60 1.60 -0.20 1.35 1 -0.70z m13 0.75 c1.95 -0.70 2.10 -2.25 0.25 -3.05 -1.20 -0.55 -1.45 -0.50 -2.45 0.80 -0.90 1.10 -1 1.60 -0.60 2.10 0.75 0.80 0.85 0.85 2.80 0.15z m8.55 -8.70 c-0.30 -0.75 -0.65 -1.25 -0.85 -1.05 -0.15 0.15 0 0.85 0.35 1.55 0.35 0.70 0.75 1.15 0.85 1.05 0.10 -0.10 -0.05 -0.80 -0.35 -1.55z"/>
  <path d="M6 16.25 c0 -0.40 0.35 -0.75 0.75 -0.75 0.40 0 0.75 0.35 0.75 0.75 0 0.40 -0.35 0.75 -0.75 0.75 -0.40 0 -0.75 -0.35 -0.75 -0.75z"/>
  <path d="M19 18.75 c0 -0.40 0.35 -0.75 0.75 -0.75 0.40 0 0.75 0.35 0.75 0.75 0 0.40 -0.35 0.75 -0.75 0.75 -0.40 0 -0.75 -0.35 -0.75 -0.75z"/>
  <path d="M35 39.60 c0 -0.25 0.90 -1.25 2 -2.25 1.10 -0.95 2 -2.10 2 -2.55 0 -0.40 0.25 -0.90 0.50 -1.05 0.30 -0.20 0.50 0.90 0.50 2.95 l0 3.30 -2.50 0 c-1.35 0 -2.50 -0.20 -2.50 -0.40z"/>
  <path d="M16.60 32.35 c-0.90 -0.60 -1.55 -1.40 -1.50 -1.75 0.15 -0.70 3.40 -2.50 8.05 -4.55 1.85 -0.85 2.35 -0.90 2.35 -0.35 0 1.65 -1.05 3.25 -2.85 4.30 -1.05 0.65 -2.45 1.70 -3.15 2.30 l-1.30 1.20 -1.60 -1.15z"/>
 </g>
 <g fill="#5d4938">
  <path d="M6.25 37.35 c-0.40 -1.40 -0.75 -2.95 -0.75 -3.50 0 -0.50 -0.70 -1.60 -1.50 -2.45 -1.65 -1.65 -2.50 -4 -1.60 -4.30 0.65 -0.20 0.85 -3.10 0.20 -3.10 -0.25 0 -0.35 -0.65 -0.20 -1.50 0.10 -0.80 0.40 -1.35 0.65 -1.20 0.85 0.50 1.90 3.50 2.05 5.75 0.15 2.05 0.25 2.25 1.25 2.05 0.80 -0.15 1.15 0 1.15 0.60 0 0.45 0.20 0.80 0.50 0.80 0.25 0 0.35 -0.35 0.20 -0.75 -0.20 -0.45 0 -0.75 0.45 -0.75 0.95 0 1.75 1.10 1 1.35 -0.40 0.15 -0.40 0.70 0.10 1.80 0.35 0.90 0.85 2.95 1.10 4.65 l0.45 3.05 -2.15 0 -2.15 0 -0.75 -2.50z"/>
  <path d="M12 39.55 c0 -0.25 0.50 -0.55 1.15 -0.75 1.65 -0.45 1.85 -0.40 1.85 0.45 0 0.50 -0.50 0.75 -1.50 0.75 -0.80 0 -1.50 -0.20 -1.50 -0.45z"/>
  <path d="M24.50 38.15 c0 -1.05 0.35 -2.35 0.75 -2.85 0.40 -0.55 0.75 -1.80 0.70 -2.75 0 -1 -0.15 -1.50 -0.30 -1.15 -0.10 0.30 -0.55 0.60 -0.95 0.60 -0.40 0 -0.70 0.25 -0.70 0.50 0 0.30 -0.80 0.50 -1.75 0.50 -0.95 0 -1.75 -0.15 -1.75 -0.35 0 -0.65 3.10 -2.45 5.25 -3.15 4.25 -1.30 5.30 -2.10 6.60 -4.85 1 -2.10 1.50 -2.65 2.45 -2.65 0.95 0 1.20 0.35 1.50 1.75 0.25 1.45 0.05 2.15 -1 3.75 -0.70 1.10 -1.90 2.35 -2.65 2.85 -2.95 1.85 -6.15 6.35 -6.15 8.65 0 0.65 -0.35 1 -1 1 -0.85 0 -1 -0.35 -1 -1.85z"/>
  <path d="M36.95 38 c2.45 -2.25 3.05 -2.45 3.05 -1 0 0.80 -0.35 1 -1.55 1 -1.30 0 -1.45 0.15 -1.20 1 0.25 0.85 0.10 1 -1.10 1 l-1.40 -0.05 2.20 -1.95z"/>
  <path d="M38.50 39.55 c0 -0.25 0.35 -0.55 0.75 -0.75 0.45 -0.15 0.75 0 0.75 0.45 0 0.40 -0.35 0.75 -0.75 0.75 -0.40 0 -0.75 -0.20 -0.75 -0.45z"/>
  <path d="M16.50 38.75 c0 -1.05 1.75 -4.40 2.70 -5.20 0.65 -0.55 0.80 -0.55 0.80 0.15 0 0.45 -0.35 0.80 -0.75 0.80 -0.55 0 -0.75 0.60 -0.75 2.50 0 2.15 -0.15 2.50 -1 2.50 -0.55 0 -1 -0.35 -1 -0.75z"/>
  <path d="M36.70 35.25 c0.90 -1.60 1.95 -3.05 2.30 -3.15 0.80 -0.30 -0.75 2.40 -2.65 4.55 -1.25 1.50 -1.25 1.40 0.35 -1.40z"/>
  <path d="M16 34.50 c0 -0.25 -0.45 -0.50 -1 -0.50 -0.70 0 -1 -0.35 -1 -1.05 0 -1.05 0.50 -0.95 2.15 0.45 0.95 0.85 1.10 1.60 0.35 1.60 -0.25 0 -0.50 -0.20 -0.50 -0.50z"/>
  <path d="M16.40 31.95 c-1.55 -1.15 -1.75 -1.70 -0.70 -2.10 0.50 -0.20 0.65 -0.05 0.50 0.35 -0.15 0.35 0.35 0.90 1.05 1.20 0.70 0.30 1.25 0.80 1.25 1.10 0 0.75 -0.60 0.60 -2.10 -0.55z"/>
  <path d="M12.60 31.15 c0.10 -0.45 0.45 -0.90 0.80 -1.05 0.90 -0.30 0.75 1.25 -0.20 1.60 -0.55 0.20 -0.70 0.05 -0.60 -0.55z"/>
  <path d="M39.35 31.15 c-0.55 -0.50 -0.40 -4.15 0.15 -4.15 0.30 0 0.50 1 0.50 2.25 0 2.30 -0.10 2.50 -0.65 1.90z"/>
  <path d="M18.65 29.30 c-0.45 -0.55 -0.30 -0.80 0.65 -1.30 1.55 -0.85 1.85 -0.50 0.80 0.85 -0.70 0.85 -0.95 0.95 -1.45 0.45z"/>
  <path d="M11.20 28.25 c-0.20 -0.45 -0.55 -0.75 -0.90 -0.70 -2.45 0.30 -4.25 -0.10 -4.55 -1.10 -0.45 -1.40 0.05 -1.80 1.10 -0.85 0.50 0.45 1.25 0.90 1.65 0.95 1 0.20 4.10 -1.50 3.90 -2.10 -0.10 -0.30 -1.35 -0.90 -2.75 -1.40 l-2.55 -0.85 0.75 1.15 c0.55 0.80 1.10 1.10 1.70 0.90 0.55 -0.20 0.95 -0.10 0.95 0.20 0 0.60 -1.95 0.75 -2.80 0.15 -1.55 -1 -1.30 -3.10 0.80 -6.40 0.60 -0.95 0.50 -1.25 -0.45 -2.65 -0.95 -1.30 -1.25 -1.45 -2.10 -1 -1.55 0.80 -1.70 1.90 -0.50 3.50 0.85 1.15 0.95 1.65 0.55 2.40 -0.25 0.55 -0.35 1.40 -0.15 1.90 0.60 1.65 -1.85 -0.90 -2.60 -2.70 -0.70 -1.65 -0.55 -4.60 0.35 -6.25 0.60 -1.20 4.40 -1.30 4.40 -0.15 0 0.40 0.45 0.75 1 0.75 0.90 0 1 0.35 1 3.25 0 1.85 -0.20 3.25 -0.50 3.25 -0.25 0 -0.50 0.25 -0.50 0.50 0 0.30 0.45 0.50 0.95 0.50 0.85 0 1 -0.50 1.35 -4 0.35 -4 0.35 -4 1.75 -4 1.20 0 1.45 -0.20 1.45 -1.25 0 -1.10 0.20 -1.25 1.90 -1.30 l1.85 0 -1.90 -0.80 c-1.95 -0.80 -6.35 -0.55 -6.35 0.40 0 0.25 -0.55 0.45 -1.20 0.45 -0.70 0 -1.40 0.25 -1.55 0.50 -0.35 0.60 -2.75 0.70 -2.75 0.10 0 -1.15 1.70 -2.60 3.10 -2.60 0.80 0 2.15 -0.45 2.95 -1.05 0.95 -0.65 1.95 -0.95 2.60 -0.80 0.60 0.15 2.25 0.55 3.60 0.85 1.40 0.35 2.85 1.05 3.35 1.65 1.10 1.35 1.15 4.50 0.15 5.50 -0.40 0.45 -0.55 0.85 -0.35 1 0.20 0.10 0.05 0.10 -0.35 0 -0.80 -0.20 -3.05 1.70 -3.05 2.55 0 0.30 0.25 0.20 0.55 -0.20 0.45 -0.60 0.50 -0.60 0.25 0.15 -0.15 0.50 -0.30 1.15 -0.30 1.40 0 0.25 -0.50 0.40 -1.10 0.30 -0.75 -0.05 -1.15 0.15 -1.15 0.65 0 0.45 0.35 0.70 1 0.60 3 -0.50 5.10 -0.95 5.65 -1.30 0.30 -0.20 1.05 -0.10 1.60 0.20 1.25 0.65 1.35 3.05 0.15 4.10 -1.05 0.85 -7.50 3.90 -8.30 3.90 -0.85 0 1.50 -1.55 3.05 -2 1.15 -0.35 1 -0.40 -1 -0.45 -2.55 -0.05 -5.40 1.25 -5.05 2.35 0.35 0.85 -0.30 0.75 -0.65 -0.15z m10.20 -5.60 c0.25 -0.90 -0.80 -0.80 -1.75 0.15 -0.75 0.70 -0.70 0.80 0.35 0.60 0.65 -0.05 1.25 -0.45 1.40 -0.75z"/>
  <path d="M24 27.05 c0 -0.55 0.25 -1.15 0.50 -1.30 0.30 -0.15 0.50 0.15 0.50 0.70 0 0.55 -0.20 1.15 -0.50 1.30 -0.25 0.15 -0.50 -0.15 -0.50 -0.70z"/>
  <path d="M39 25.15 c0 -0.50 -0.15 -1.35 -0.30 -1.90 -0.15 -0.55 0.10 -1.45 0.50 -2 0.70 -0.95 0.75 -0.80 0.80 1.90 0 1.55 -0.20 2.85 -0.50 2.85 -0.25 0 -0.50 -0.40 -0.50 -0.85z"/>
  <path d="M25.65 22.95 c0.75 -0.55 1.35 -1.30 1.35 -1.70 0 -0.35 0.35 -0.90 0.75 -1.25 1.30 -1.05 0.80 0.20 -0.80 2.15 -0.85 1 -1.80 1.85 -2.10 1.85 -0.35 0 0 -0.50 0.80 -1.05z"/>
  <path d="M27.80 23.55 c-0.15 -0.20 0.15 -0.80 0.65 -1.25 0.85 -0.80 0.90 -0.75 0.70 0.45 -0.25 1.25 -0.85 1.60 -1.35 0.80z"/>
  <path d="M39.05 15.75 c0 -2.30 0.20 -4.35 0.45 -4.50 0.30 -0.20 0.50 1.45 0.50 4.20 0 2.50 -0.20 4.55 -0.45 4.55 -0.25 0 -0.50 -1.90 -0.50 -4.25z"/>
  <path d="M19.25 18.95 c-0.50 -0.75 0.15 -1.25 0.80 -0.60 0.35 0.35 0.35 0.65 0.05 0.85 -0.30 0.15 -0.70 0.05 -0.85 -0.25z"/>
  <path d="M28.25 17.35 c-0.20 -0.50 -0.25 -1.05 -0.05 -1.20 0.50 -0.50 0.90 0.20 0.65 1.20 -0.20 0.85 -0.20 0.85 -0.60 0z"/>
  <path d="M6 16.20 c0 -0.85 1.10 -0.70 1.40 0.20 0.10 0.35 -0.15 0.60 -0.60 0.60 -0.45 0 -0.80 -0.35 -0.80 -0.80z"/>
  <path d="M30.50 16.45 c0 -0.75 1.65 -3.45 2.10 -3.45 0.50 0 0.50 0.30 -0.05 1.40 -0.25 0.45 -0.60 1.25 -0.75 1.75 -0.30 0.95 -1.30 1.20 -1.30 0.30z"/>
  <path d="M29.30 12.10 c-0.40 -0.80 -1.10 -1.60 -1.55 -1.75 -1.45 -0.60 -0.80 -1.50 0.85 -1.15 2.75 0.55 3.85 2.40 2.20 3.75 -0.60 0.50 -0.90 0.35 -1.50 -0.85z"/>
  <path d="M32.75 10.90 c-0.20 -0.55 -0.95 -1.60 -1.65 -2.25 -0.70 -0.60 -1 -1.15 -0.75 -1.15 0.95 0 2.55 1.75 2.85 3.15 0.40 1.60 0 1.80 -0.45 0.25z"/>
  <path d="M20.50 8.20 c-1.25 -0.45 -1.45 -0.65 -0.70 -0.65 1.85 -0.05 4.20 0.55 3.90 1 -0.35 0.55 -1 0.50 -3.20 -0.35z"/>
  <path d="M37.75 8.15 c-0.80 -0.45 -2.35 -1.20 -3.35 -1.70 -2.35 -1.20 -6.50 -1.25 -8.45 -0.10 -1.35 0.80 -1.65 0.80 -5.20 -0.05 -2.50 -0.60 -3.75 -1.10 -3.75 -1.60 0 -0.95 -0.75 -0.90 -1.75 0.10 -1.05 1.05 -4 1.20 -4 0.20 0 -1.25 4.75 -3.50 6.65 -3.20 1.05 0.20 1.60 0.10 1.60 -0.30 0 -0.35 -0.40 -0.45 -1 -0.25 -0.70 0.25 -1 0.10 -1 -0.45 0 -0.60 0.50 -0.80 2.05 -0.80 l2.10 0 -0.25 2.20 c-0.25 2.10 -0.20 2.25 1.05 2.40 2.15 0.25 4.05 -0.65 4.05 -1.95 0 -0.95 0.25 -1.15 1.45 -1.15 0.75 0 2.80 -0.15 4.50 -0.30 l3.05 -0.35 0 1.70 c0 1.30 0.15 1.50 0.60 1.05 0.35 -0.35 1.35 -0.60 2.25 -0.60 l1.65 0 0 3 c0 1.65 -0.15 3 -0.35 2.95 -0.25 0 -1.05 -0.40 -1.90 -0.80z"/>
  <path d="M6.50 7.30 c0 -0.35 0.35 -1 0.80 -1.35 0.70 -0.55 0.90 -0.50 1.50 0.30 0.55 0.75 0.55 1 0.05 1.35 -0.95 0.60 -2.35 0.45 -2.35 -0.30z"/>
 </g>
 <g fill="#705c49">
  <path d="M5.35 36 c-3.25 -6.80 -3.75 -8.80 -3.10 -12.25 l0.55 -3 0.95 1.75 c0.55 1.05 0.95 2.85 1 4.45 0.05 2.90 0.95 4.05 3 4.05 1.30 0 2 1.30 2.70 4.90 0.80 4 0.80 4.10 -1.30 4.05 -1.85 0 -1.95 -0.10 -3.80 -3.95z m3.20 -1.15 c-0.30 -0.30 -0.55 -1.05 -0.55 -1.70 0 -0.65 -0.25 -1.15 -0.55 -1.15 -0.75 0 -0.10 3.60 0.70 4.10 0.80 0.50 1.10 -0.55 0.40 -1.25z"/>
  <path d="M16.50 39.25 c0 -1.25 1.45 -4.40 2.65 -5.65 1.50 -1.60 6.15 -4.20 7.75 -4.30 2.35 -0.20 4.40 -1.85 5.80 -4.70 1.65 -3.35 2.95 -3.45 3.20 -0.25 0.15 1.90 -0.05 2.25 -2.25 4.45 -4.10 4 -4.55 4.35 -5.30 4.05 -0.55 -0.20 -0.65 0 -0.50 0.70 0.15 0.50 -0.20 1.75 -0.80 2.70 -0.55 1 -1.05 2.25 -1.05 2.80 0 0.80 -0.35 0.95 -2.75 0.95 -2.65 0 -2.75 -0.05 -2.75 -1.35 0 -0.80 0.45 -2.15 1 -3 0.65 -1.15 0.80 -1.65 0.35 -1.65 -0.60 0 -1.05 0.65 -2.70 4.10 -0.90 1.90 -2.65 2.65 -2.65 1.15z m7.50 -6.50 c0 -0.40 -0.35 -0.75 -0.75 -0.75 -0.40 0 -0.75 0.35 -0.75 0.75 0 0.40 0.35 0.75 0.75 0.75 0.40 0 0.75 -0.35 0.75 -0.75z"/>
  <path d="M35.50 39.25 c0.35 -0.40 0.80 -0.75 1.05 -0.75 0.25 0 0.45 0.35 0.45 0.75 0 0.45 -0.45 0.75 -1.05 0.75 -0.90 0 -0.95 -0.10 -0.45 -0.75z"/>
  <path d="M12.80 30.80 c0.15 -0.45 0.55 -0.80 0.80 -0.80 0.65 0 0.25 1.15 -0.50 1.40 -0.35 0.10 -0.50 -0.10 -0.30 -0.60z"/>
  <path d="M6 29.50 c0 -0.25 0.35 -0.50 0.75 -0.50 0.40 0 0.75 0.25 0.75 0.50 0 0.30 -0.35 0.50 -0.75 0.50 -0.40 0 -0.75 -0.20 -0.75 -0.50z"/>
  <path d="M5.95 26.45 c-0.75 -1.45 -0.10 -1.85 1.10 -0.60 0.90 0.85 0.95 1.05 0.25 1.30 -0.50 0.20 -1 -0.05 -1.35 -0.70z"/>
  <path d="M10.25 27 c-0.15 -0.25 0.30 -0.85 1 -1.30 1.85 -1.20 1.55 -2.15 -0.75 -2.50 -1.10 -0.20 -2.40 -0.60 -2.85 -1 -0.85 -0.60 -0.85 -0.75 0.35 -2.90 l1.20 -2.25 -1 -1.40 c-1.30 -1.70 -1.90 -1.90 -2.95 -0.85 -0.55 0.60 -0.75 1.30 -0.55 2.15 0.90 3.70 0.95 5.20 0.25 4.95 -1.90 -0.65 -2.55 -5.50 -1.20 -8.80 1 -2.30 2.65 -4.10 3.50 -3.80 0.35 0.15 1.60 -0.20 2.70 -0.80 1.50 -0.75 2.60 -0.95 3.95 -0.75 2.85 0.45 5.60 1.35 5.60 1.85 0 0.25 0.35 0.85 0.80 1.25 1.25 1.25 0.45 3 -2.90 6.20 -2.20 2.15 -3.30 2.90 -4 2.65 -1.30 -0.40 -1.10 0.40 0.40 1.45 1.20 0.90 1.35 0.90 5 0.05 3.65 -0.90 3.85 -0.90 4.45 0 0.65 0.90 0.55 1.95 -0.35 3.15 -0.25 0.30 -2.20 0.75 -4.30 0.90 -2.10 0.20 -4.70 0.80 -5.70 1.30 -2.15 1.10 -2.25 1.10 -2.65 0.45z m6.80 -2.85 c0.50 -0.60 0.55 -0.75 0.05 -0.45 -0.35 0.20 -0.90 0.15 -1.25 -0.10 -0.35 -0.25 -1.15 -0.60 -1.85 -0.75 -1.20 -0.30 -1.20 -0.25 -0.30 0.40 0.55 0.40 1.30 0.75 1.65 0.75 0.35 0 0.65 0.25 0.65 0.50 0 0.70 0.30 0.60 1.05 -0.35z m-1.35 -7.70 c-0.15 -0.30 -0.35 -0.45 -0.40 -0.35 -0.05 0.10 -0.40 0.60 -0.80 1.10 -0.70 0.90 -0.70 0.95 0.40 0.35 0.60 -0.35 1 -0.85 0.80 -1.10z m3.15 -2.20 c0.35 -0.95 0.25 -1 -1.50 -1.45 -1.40 -0.35 -1.40 -0.35 -0.55 0.95 0.95 1.45 1.60 1.60 2.05 0.50z"/>
  <path d="M7.30 23.90 c-1 -1.45 -0.45 -1.95 0.60 -0.55 0.45 0.60 1.30 1.15 1.85 1.30 0.75 0.20 0.70 0.25 -0.35 0.30 -0.85 0.05 -1.60 -0.35 -2.10 -1.05z"/>
  <path d="M6.25 16.45 c-0.20 -0.30 -0.25 -0.65 -0.10 -0.80 0.35 -0.35 1.35 0.30 1.35 0.90 0 0.60 -0.85 0.60 -1.25 -0.10z"/>
  <path d="M29.60 12.40 c-0.35 -0.35 -0.60 -0.90 -0.60 -1.20 0 -0.35 -0.45 -0.80 -1 -0.95 -1.15 -0.35 -1.35 -1.25 -0.25 -1.25 0.40 0 0.75 0.20 0.75 0.40 0 0.25 0.50 0.40 1.05 0.40 1.55 -0.05 2.40 1.45 1.40 2.45 -0.60 0.60 -0.90 0.65 -1.35 0.15z"/>
  <path d="M39.25 8.55 c-0.15 -0.25 -1.10 -0.75 -2.15 -1.10 -1 -0.30 -2.40 -1 -3.05 -1.50 -1.60 -1.30 -5.15 -1.25 -7.95 0.10 -1.85 0.95 -2.35 1 -3.50 0.45 -0.75 -0.35 -3.65 -0.75 -6.45 -0.90 -3.85 -0.15 -5 -0.40 -4.80 -0.90 0.40 -1.05 3.65 -2.35 6.10 -2.40 2 -0.05 2.30 -0.20 2.45 -1.20 0.15 -1.10 0.20 -1.10 10.15 -1.10 l9.95 0 0 4.50 c0 4.35 -0.10 5 -0.75 4.05z m-0.75 -3.35 c0 -0.70 -0.15 -0.70 -0.75 -0.20 -0.40 0.35 -0.75 0.70 -0.75 0.80 0 0.10 0.35 0.20 0.75 0.20 0.40 0 0.75 -0.35 0.75 -0.80z m-4.60 -2.15 c0.15 -0.50 0 -0.60 -0.60 -0.40 -0.50 0.20 -1.50 0.35 -2.20 0.40 l-1.35 0.05 1.25 0.40 c1.65 0.55 2.60 0.40 2.90 -0.45z"/>
  <path d="M6.50 7.30 c0 -0.85 1.25 -1.90 1.70 -1.45 0.20 0.20 0.55 0.05 0.80 -0.35 0.25 -0.40 0.65 -0.55 0.85 -0.30 0.20 0.25 0.10 0.55 -0.20 0.65 -0.35 0.15 -0.65 0.55 -0.65 0.90 0 0.60 -1.05 1.25 -2.05 1.25 -0.25 0 -0.45 -0.30 -0.45 -0.70z"/>
 </g>
 <g fill="#8f7458">
  <path d="M5.10 35.35 c-3.05 -6.60 -3.25 -7.45 -2.85 -11.15 0.45 -4.35 1.30 -3.55 1.20 1.20 -0.10 4 0.50 6.10 3.30 11.60 1.35 2.65 1.45 3 0.90 3 -0.25 -0.05 -1.35 -2.10 -2.55 -4.65z"/>
  <path d="M16.50 39.40 c0.05 -1.30 1.90 -4.70 3.40 -6.20 1.45 -1.45 5.45 -3.70 6.60 -3.70 0.70 0 0.60 0.65 -0.25 1.80 -0.40 0.50 -0.75 1.55 -0.75 2.35 0 0.80 -0.25 1.35 -0.70 1.35 -0.40 0 -1.25 1.10 -1.90 2.50 l-1.15 2.45 -2.60 0.05 c-1.80 0 -2.65 -0.20 -2.65 -0.60z"/>
  <path d="M7.35 24.15 c-0.50 -0.45 -0.45 -1.15 0.10 -1.15 0.25 0 0.55 0.35 0.75 0.75 0.25 0.75 -0.25 1 -0.85 0.40z"/>
  <path d="M19.80 22.70 c-0.45 -0.40 -0.80 -0.95 -0.80 -1.20 0 -0.70 3 -0.85 3.90 -0.20 0.70 0.50 0.70 0.70 0.15 1.40 -0.85 1 -2.25 1.05 -3.25 0z"/>
  <path d="M7.85 22.30 c-0.75 -0.60 -0.80 -0.90 -0.30 -2 0.35 -0.70 0.85 -1.30 1.10 -1.30 0.25 0 0.20 0.35 -0.15 0.75 -0.35 0.45 -0.50 0.95 -0.30 1.10 0.20 0.20 0.55 0.05 0.80 -0.35 0.55 -0.90 1.75 -0.30 2.90 1.40 0.70 1.05 0.65 1.10 -1.20 1.10 -1.10 0 -2.35 -0.35 -2.85 -0.70z"/>
  <path d="M4 20.75 c-1 -1.25 -1.20 -4.80 -0.30 -6.75 l0.75 -1.75 -0.05 2.50 c-0.05 1.40 0.10 3.45 0.30 4.65 0.40 2.25 0.30 2.55 -0.70 1.35z"/>
  <path d="M6.25 16.45 c-0.50 -0.75 0.15 -1.25 0.80 -0.60 0.35 0.35 0.35 0.65 0.05 0.85 -0.30 0.15 -0.70 0.05 -0.85 -0.25z"/>
  <path d="M29.45 11.80 c-0.85 -1.80 0.05 -2.70 1.30 -1.30 0.85 0.95 0.85 1.10 0.10 1.85 -0.75 0.75 -0.85 0.70 -1.40 -0.55z"/>
  <path d="M7.40 11.95 c-0.50 -0.35 -0.40 -0.70 0.60 -1.65 0.70 -0.70 1.75 -1.35 2.35 -1.45 0.60 -0.10 1.25 -0.30 1.45 -0.50 0.30 -0.25 3.15 0.05 3.60 0.45 0.50 0.35 -2.10 3.10 -2.70 2.85 -0.40 -0.15 -0.70 -0.05 -0.70 0.20 0 0.55 -3.70 0.65 -4.60 0.10z"/>
  <path d="M6.80 7.60 c-0.15 -0.25 0 -0.85 0.35 -1.30 0.60 -0.80 0.70 -0.80 1.30 -0.15 0.50 0.65 0.45 0.85 -0.40 1.30 -0.55 0.30 -1.10 0.35 -1.25 0.15z"/>
  <path d="M18.80 5.50 c-1.05 -0.20 -3.15 -0.30 -4.60 -0.20 -2.95 0.20 -3.40 -0.25 -1.45 -1.50 0.85 -0.55 1.25 -0.60 1.25 -0.25 0 0.40 0.35 0.30 0.90 -0.20 0.65 -0.60 1.85 -0.85 4 -0.85 2.40 0 3.10 -0.15 3.10 -0.75 0 -0.40 -0.20 -0.75 -0.50 -0.75 -0.25 0 -0.50 -0.20 -0.50 -0.50 0 -0.30 1.60 -0.50 3.75 -0.50 5.30 0 4.90 0.95 -0.75 1.65 -0.45 0.05 -0.85 0.85 -1 2.10 -0.30 2.25 -0.80 2.45 -4.20 1.75z"/>
  <path d="M35 2.25 c-0.30 -0.35 -1.15 -0.75 -1.85 -0.85 -0.75 -0.10 -1.40 -0.45 -1.55 -0.75 -0.35 -1.10 3.75 -0.80 4.90 0.35 0.95 0.95 0.95 1 0.05 1.50 -0.70 0.35 -1.10 0.30 -1.55 -0.25z"/>
 </g>
 <g fill="#ab8e6b">
  <path d="M18.35 39.65 c-0.10 -0.25 -0.35 -1 -0.50 -1.70 -0.40 -1.55 2 -5.10 4.20 -6.20 1.30 -0.70 1.45 -0.65 2.20 0.40 0.70 1 0.70 1.15 0 1.65 -0.40 0.30 -0.75 0.95 -0.75 1.40 0 0.45 -0.35 0.80 -0.75 0.80 -0.40 0 -1.10 0.75 -1.55 1.65 -1.10 2.05 -2.30 2.95 -2.85 2z"/>
  <path d="M5.35 35.55 c-2.80 -5.75 -3.30 -7.50 -3 -11 0.40 -4.20 0.90 -3.35 0.95 1.60 0 3.80 0.15 4.40 2.15 8.50 1.20 2.40 2.10 4.45 2 4.55 -0.10 0.10 -1.05 -1.50 -2.10 -3.65z"/>
 </g>
 <g fill="#c3a482">
  <path d="M2.55 24.05 c0 -1.65 0.15 -2.55 0.40 -2.30 0.25 0.30 0.25 1.50 0.05 2.75 l-0.35 2.25 -0.10 -2.70z"/>
 </g>
</svg>