<?xml version="1.0" encoding="utf-8"?>
<!DOCTYPE svg PUBLIC "-//W3C//DTD SVG 1.0//EN" "http://www.w3.org/TR/2001/REC-SVG-20010904/DTD/svg10.dtd">
<svg version="1.0" xmlns="http://www.w3.org/2000/svg" width="40px" height="40px" viewBox="0 0 40 40" preserveAspectRatio="xMidYMid meet">
 <g fill="#0f0e10">
  <path d="M29.25 36 c1.45 -2.85 1.55 -3.35 0.50 -2.50 -0.60 0.50 -0.75 0.45 -0.75 -0.30 0 -0.75 -0.30 -0.60 -1.65 0.70 -1.75 1.70 -2.95 2.20 -1.80 0.75 0.60 -0.75 0.60 -0.80 -0.15 -0.50 -1.15 0.40 -1.15 -0.45 -0.05 -1.05 1.55 -0.90 0.40 -2.10 -2.05 -2.10 -3 0 -3.80 -0.40 -3.80 -1.80 0 -0.95 0.25 -1.20 1.25 -1.20 1.30 0 5.25 -1.50 5.25 -2.05 0 -0.15 -0.55 -0.75 -1.25 -1.35 -0.70 -0.60 -1.25 -1.30 -1.25 -1.60 0 -0.25 -0.55 -0.50 -1.25 -0.50 -1.10 0 -1.25 -0.20 -1.25 -1.80 l0 -1.85 2.65 0.35 c1.40 0.15 3.35 0.30 4.25 0.30 1.10 0 1.60 0.25 1.60 0.75 0 0.40 0.30 0.75 0.65 0.75 0.35 0 2.10 1.40 3.85 3.15 2.55 2.40 3.25 3.45 3.35 4.75 0.10 1.45 -0.05 1.60 -1.40 1.60 -0.80 0 -2.05 -0.40 -2.80 -0.85 l-1.30 -0.85 0.30 1.70 c1.05 6 1.05 6.55 -0.10 6.85 -0.55 0.15 -1.05 0.45 -1.05 0.70 0 0.25 -0.70 0.45 -1.50 0.45 l-1.50 0 1.25 -2.50z"/>
  <path d="M6.30 36.25 c-0.20 -1.05 -0.65 -1.75 -1.05 -1.75 -0.50 0 -0.75 -0.55 -0.75 -1.80 l0 -1.80 3.45 0.35 c3.40 0.35 3.40 0.35 3.75 -1 0.20 -0.85 0.10 -1.55 -0.45 -2.05 -0.40 -0.45 -0.75 -1.40 -0.75 -2.20 0 -1.05 -0.50 -1.80 -2 -3 -1.95 -1.55 -5 -5.45 -5 -6.40 0 -0.25 -0.80 -1.35 -1.75 -2.40 -1.65 -1.80 -1.75 -2.10 -1.75 -5.30 0 -2.70 0.15 -3.40 0.75 -3.40 0.40 0 0.75 -0.45 0.75 -1 0 -1.60 2.65 -1.30 5.25 0.60 2.05 1.55 2.20 1.80 2.25 4.05 0 1.45 -0.20 2.35 -0.60 2.35 -0.30 0 -0.05 0.55 0.60 1.25 0.90 0.95 1.10 1.60 0.90 3.15 -0.25 1.80 -0.15 2 2.30 3.80 1.40 1.05 3.05 2.15 3.70 2.45 0.65 0.30 1.10 0.95 1.10 1.70 0 0.60 0.25 1.15 0.50 1.15 0.30 0 0.50 0.85 0.50 1.90 0 2.05 -1.30 3.65 -5 6.10 -2.10 1.45 -3.35 2.80 -3.75 4.05 -0.20 0.55 -0.80 0.95 -1.50 0.95 -0.90 0 -1.20 -0.35 -1.45 -1.75z"/>
  <path d="M12.85 19.10 c-1.50 -1.60 -1.90 -4.40 -0.60 -4.70 0.65 -0.15 0.65 -0.30 0 -1.60 -0.40 -0.75 -0.75 -2.05 -0.75 -2.85 0 -1.30 0.15 -1.45 1.70 -1.45 1.40 0 2 0.35 3 1.65 0.75 0.95 1.30 2.05 1.30 2.45 0 0.45 0.35 1.05 0.75 1.40 0.40 0.35 0.75 1.40 0.75 2.30 0 1.20 -0.25 1.70 -0.75 1.70 -0.45 0 -0.75 0.45 -0.75 1.25 0 1.10 -0.20 1.25 -1.65 1.25 -1.15 0 -2.05 -0.40 -3 -1.40z"/>
  <path d="M22.75 11.10 c-0.50 -0.35 -1.75 -2.40 -1.75 -2.85 0 -0.10 0.35 -0.10 0.80 0.10 0.70 0.25 0.75 0.15 0.25 -0.75 -0.75 -1.45 -0.70 -1.60 0.70 -1.60 0.75 0 1.25 0.30 1.25 0.70 0 0.35 0.45 0.80 1 0.95 0.75 0.20 1 0.70 1 2.05 0 1.65 -0.15 1.80 -1.35 1.80 -0.80 0 -1.60 -0.20 -1.90 -0.40z"/>
 </g>
 <g fill="#241c23">
  <path d="M1.50 39.25 c0 -0.40 -0.35 -0.75 -0.75 -0.75 -0.65 0 -0.75 -1.35 -0.75 -9 l0 -9 1.40 -0.05 c0.75 0 1.05 -0.15 0.75 -0.30 -0.35 -0.10 -0.65 -0.55 -0.65 -0.95 0 -0.40 -0.35 -0.70 -0.75 -0.70 -0.65 0 -0.75 -1.30 -0.75 -8.50 l0 -8.50 2.75 0 c2.25 0 2.75 -0.15 2.80 -0.85 0 -0.55 0.15 -0.65 0.30 -0.25 0.10 0.30 0.50 0.60 0.85 0.60 0.80 0 3.80 3.10 3.80 3.90 0 0.35 0.60 0.85 1.30 1.10 1.70 0.65 2.05 0.65 1.30 -0.10 -0.35 -0.35 -0.60 -0.80 -0.60 -1.10 0 -0.30 0.25 -0.25 0.60 0.10 0.70 0.70 1.60 0.80 1.15 0.10 -0.15 -0.25 1.55 0.45 3.75 1.55 3.90 1.95 5.25 2.20 4.15 0.85 -0.30 -0.35 -0.65 -1.25 -0.85 -2.05 -0.45 -1.85 0.90 -2.40 2.35 -0.90 0.60 0.55 0.80 1.05 0.45 1.05 -1 0 -0.65 0.80 0.65 1.50 1 0.55 1.25 1.05 1.25 2.55 0 1.50 0.45 2.40 2.05 4.25 1.15 1.35 2.65 2.85 3.30 3.35 1.45 1.15 0.90 1.80 -1.60 1.90 -0.85 0.05 -1.10 0.15 -0.60 0.30 0.45 0.10 0.85 0.45 0.85 0.70 0 0.25 0.60 0.45 1.40 0.45 0.75 0 1.70 0.30 2.10 0.65 1.30 1 4 6.25 3.70 7.10 -0.15 0.40 -0.10 0.75 0.15 0.75 0.20 0 0.70 0.45 1.05 1.05 0.60 0.95 0.55 1 -0.40 0.70 -1.45 -0.45 -2.95 0.90 -2.65 2.45 0.20 0.85 0 1.25 -0.70 1.45 -0.70 0.20 -0.75 0.25 -0.10 0.30 0.85 0.05 1.70 2.25 1.20 3.05 -0.45 0.75 -1.75 0.60 -2.05 -0.25 -0.20 -0.50 -0.70 -0.65 -1.50 -0.45 -1 0.25 -1.15 0.15 -0.90 -0.60 0.25 -0.75 0.20 -0.80 -0.20 -0.25 -0.30 0.40 -0.40 1 -0.25 1.40 0.15 0.45 -0.15 0.65 -1.05 0.65 -1.60 0 -1.60 -0.40 0 -3.65 l1.30 -2.60 -1.25 1.20 -1.30 1.15 0.30 -1.15 0.30 -1.20 -1.30 1.20 c-1.10 1 -1.45 1.10 -2.10 0.55 -0.60 -0.50 -0.65 -0.75 -0.20 -1.05 1.35 -0.80 0 -1.85 -2.90 -2.15 -4.80 -0.45 -4.70 -0.40 -4.35 -1.55 0.25 -0.75 -0.15 -0.60 -1.60 0.80 -1.10 1 -2.75 2.30 -3.70 2.95 -2.30 1.60 -3.15 2.55 -4.25 5 -1 2.15 -2 2.60 -2.50 1 -0.15 -0.55 -0.55 -1 -0.80 -1 -0.25 0 -0.45 0.45 -0.45 1 0 0.80 -0.35 1 -1.75 1 -1.20 0 -1.75 -0.25 -1.75 -0.75z m8.95 -6.20 c-0.35 -0.10 -0.90 0.20 -1.30 0.75 -1.10 1.50 -0.75 1.95 0.65 0.65 0.80 -0.75 1.05 -1.25 0.65 -1.40z m6.05 -4.70 c-0.15 -0.10 -0.85 -0.35 -1.60 -0.55 -1.20 -0.25 -1.30 -0.20 -1.10 0.95 0.10 0.70 -0.05 1.75 -0.35 2.40 -0.40 0.75 0.05 0.50 1.35 -0.75 1.05 -1.05 1.80 -1.95 1.70 -2.05z m11.50 2.15 c0 -0.25 -0.45 -0.30 -1 -0.15 -0.55 0.15 -0.85 0.45 -0.75 0.70 0.35 0.50 1.75 0.05 1.75 -0.55z m2.50 -1.40 c0 -1.50 -0.95 -2.10 -2.45 -1.55 -4.75 1.80 -5.35 2.65 -1.45 2.15 2.25 -0.30 2.55 -0.25 2.25 0.50 -0.30 0.70 -0.15 0.75 0.65 0.30 0.55 -0.30 1 -0.95 1 -1.40z m-22 0.45 c1.05 -0.85 1.10 -1.05 0.50 -1.80 -1 -1.20 -2.45 -1.85 -3.45 -1.50 -1.15 0.35 -1.75 3.25 -0.70 3.25 0.35 0 0.65 0.25 0.65 0.50 0 0.80 1.65 0.55 3 -0.45z m24.25 -3.70 c-2.65 -2.55 -3.60 -3.15 -4.55 -2.95 -0.70 0.10 -1.20 0 -1.20 -0.35 0 -0.30 0.25 -0.55 0.50 -0.55 0.30 0 0.50 -0.20 0.50 -0.50 0 -0.65 -2.35 -0.65 -2.75 -0.05 -0.35 0.65 2.30 3.10 3.25 2.95 0.75 -0.10 3.50 1.55 6 3.55 2.15 1.80 1.65 1.15 -1.75 -2.10z m-20.05 -3.30 c-1.60 -1.10 -3.30 -2.30 -3.75 -2.65 -1.05 -0.85 -2.10 -2.90 -1.55 -2.90 1.10 0 0.95 -1.95 -0.20 -3.05 -0.65 -0.60 -1.20 -0.95 -1.20 -0.75 0 0.60 -2.95 -1.20 -3.70 -2.30 -0.45 -0.60 -0.80 -0.95 -0.80 -0.75 0 0.85 2.35 3.50 3.45 3.90 0.90 0.35 1.05 0.65 0.65 1.05 -1.15 1.15 3.50 6.35 7.65 8.55 2.75 1.45 2.45 0.90 -0.55 -1.10z m8 -1 l-0.35 -2.95 2.95 -0.40 c2 -0.25 2.95 -0.15 3.10 0.25 0.20 0.65 1.60 0.75 1.60 0.10 0 -0.25 -0.15 -1.10 -0.30 -1.95 -0.25 -1.30 -0.60 -1.55 -1.90 -1.70 -1.20 -0.10 -1.60 -0.40 -1.70 -1.40 -0.20 -1.30 -1.65 -3 -2.60 -3 -0.25 0 -0.50 -0.20 -0.50 -0.50 0 -0.25 -0.55 -0.50 -1.20 -0.50 -0.65 0 -1.30 -0.25 -1.40 -0.55 -0.30 -0.85 -2.30 -0.05 -2.50 0.95 -0.10 0.45 0.10 1.35 0.45 1.90 0.60 0.90 1.05 1.05 2.90 0.80 l2.25 -0.25 0 1.85 c0 1.45 -0.20 1.80 -1 1.80 -0.75 0 -1 0.35 -1 1.25 0 0.80 -0.30 1.25 -0.75 1.25 -0.40 0 -0.75 0.45 -0.75 1 0 0.55 -0.25 1 -0.55 1 -0.30 0 -0.85 0.30 -1.20 0.70 -0.60 0.60 -0.35 0.80 1.50 1.55 1.25 0.45 2.25 1.05 2.25 1.30 0 0.25 0.20 0.45 0.50 0.45 0.30 0 0.35 -1.15 0.20 -2.95z m-5.20 -3.80 c-0.35 -0.45 -1.15 -1.05 -1.70 -1.35 -0.80 -0.40 -0.70 -0.15 0.40 1.05 1.45 1.55 2.55 1.80 1.30 0.30z m0.50 -3.90 c0 -0.35 -0.70 -1.40 -1.50 -2.35 l-1.50 -1.75 1.05 2 c1.65 3.10 1.95 3.45 1.95 2.10z m-10.50 -4.35 c-0.55 -1.05 -3.40 -2.75 -3.85 -2.30 -0.20 0.20 3.70 3.30 4.20 3.30 0.10 0 -0.05 -0.45 -0.35 -1z m2 -0.35 c-0.05 -0.80 -4.50 -4.65 -4.50 -3.85 0 0.25 4 4.50 4.40 4.65 0.05 0.05 0.10 -0.35 0.10 -0.80z"/>
 </g>
 <g fill="#342a32">
  <path d="M0 37.45 c0 -1.80 0.20 -2.45 0.65 -2.30 0.30 0.10 0.50 0.60 0.45 1.10 -0.15 0.75 -0.05 0.80 0.50 0.40 0.35 -0.30 0.85 -0.60 1.05 -0.60 0.75 -0.05 4.95 -3.75 4.45 -3.95 -0.30 -0.10 -1.40 0.75 -2.40 1.90 -1.90 2.10 -2.90 2.40 -1.50 0.40 0.45 -0.60 0.80 -1.60 0.80 -2.15 0 -0.80 -0.30 -1 -1.35 -0.95 -0.80 0 -1.45 0.30 -1.45 0.60 -0.05 0.35 -0.10 0.95 -0.15 1.35 0 0.40 -0.25 0.75 -0.55 0.75 -0.85 0 -0.60 -5.80 0.25 -6.50 1 -0.85 1.60 -0.25 0.75 0.75 -0.35 0.40 -0.40 0.75 -0.20 0.75 0.25 0 0.75 -0.45 1.10 -1 0.40 -0.70 0.45 -1 0.05 -1 -0.30 0 -0.40 -0.35 -0.25 -0.85 0.30 -0.80 0.30 -0.80 -0.60 0 -1.20 1.10 -1.60 1.05 -1.60 -0.10 0 -0.55 0.40 -1.10 0.90 -1.20 0.80 -0.20 0.80 -0.25 0 -0.30 -1.15 -0.05 -1.15 -1.35 0 -2 0.80 -0.50 0.80 -0.50 0 -0.55 -0.80 0 -0.90 -0.60 -0.90 -5.50 0 -4.65 0.10 -5.50 0.80 -5.50 0.50 0 0.70 0.30 0.50 0.90 -0.30 0.95 0.45 2.05 1.95 2.90 1.65 0.95 1.55 1.85 -0.20 1.45 -2.45 -0.50 -1.80 0.45 0.70 1.15 2 0.55 3.15 1.60 1.70 1.60 -0.30 0 -0.45 0.30 -0.30 0.65 0.10 0.30 -0.15 1.05 -0.60 1.60 -0.80 1 -0.80 1 0.25 0.10 0.95 -0.80 1.70 -0.70 1.70 0.20 0 0.20 -0.75 1.10 -1.60 1.95 -1.60 1.55 -0.90 1.35 1.55 -0.35 1.20 -0.85 1.20 -0.85 0.60 0.30 -0.45 0.80 -0.45 1.05 -0.10 0.80 0.35 -0.20 1.40 0.30 2.40 1.10 1 0.75 2.05 1.55 2.35 1.75 0.30 0.20 0.25 0.60 -0.15 1.10 -0.55 0.65 -0.55 0.80 -0.05 0.80 0.35 0 -0.50 1.10 -1.90 2.45 -1.45 1.40 -2.60 2.90 -2.55 3.40 0 0.85 0.05 0.85 0.60 -0.05 1.65 -2.55 2.15 -2.75 1 -0.40 -0.70 1.45 -1.20 2.70 -1.10 2.85 0.30 0.25 3.95 -4.65 3.95 -5.25 0 -0.25 0.50 -0.75 1.15 -1.05 1.10 -0.60 1.10 -0.60 0.15 0.50 -1.45 1.65 -0.40 1.25 2 -0.75 1.20 -0.95 2.20 -1.55 2.20 -1.30 0 0.55 -1.75 2.10 -4.50 3.95 -1.55 1.05 -2.65 2.35 -3.50 4.10 -1.15 2.35 -1.40 2.55 -3 2.55 -1 0 -2.05 -0.25 -2.40 -0.60 -0.45 -0.45 -0.60 -0.45 -0.60 0 0 0.35 -0.65 0.60 -1.50 0.60 -1.45 0 -1.50 -0.05 -1.50 -2.55z m7.50 -9.45 c0 -0.25 -0.45 -0.50 -1 -0.50 -0.55 0 -1 0.25 -1 0.50 0 0.30 0.45 0.50 1 0.50 0.55 0 1 -0.20 1 -0.50z"/>
  <path d="M26 38.50 c0 -0.30 0.80 -1.80 1.80 -3.30 1 -1.50 1.75 -2.85 1.60 -2.95 -0.10 -0.15 -1 0.55 -1.90 1.50 -0.95 0.95 -1.90 1.75 -2.20 1.75 -0.25 0 0.15 -0.70 1 -1.55 1.35 -1.50 1.30 -1.45 -1.20 0.35 -1.50 1.10 -3.10 2.25 -3.65 2.65 -0.50 0.35 -0.95 0.45 -0.95 0.20 0 -0.25 0.95 -1.15 2.15 -2 1.15 -0.85 2.75 -2.15 3.60 -2.85 0.80 -0.70 1.55 -1.15 1.65 -1.05 0.15 0.10 0.65 0 1.15 -0.30 0.55 -0.25 1.30 -0.30 1.70 -0.10 0.60 0.35 0.30 1 -1.50 3.40 -1.25 1.65 -2.25 3.25 -2.25 3.60 0 0.30 -0.20 0.75 -0.50 0.90 -0.25 0.15 -0.50 0.05 -0.50 -0.25z"/>
  <path d="M28.75 37.50 c1.05 -3.45 2.90 -6 4.35 -6 0.55 0 0.80 -0.20 0.60 -0.55 -0.15 -0.30 -0.75 -0.45 -1.25 -0.30 -0.55 0.15 -0.95 0.05 -0.95 -0.25 0 -0.25 -0.25 -0.30 -0.60 -0.10 -0.35 0.25 -0.45 0.05 -0.30 -0.60 0.15 -0.50 0.35 -1.30 0.45 -1.70 0.10 -0.40 -0.50 -1.05 -1.50 -1.55 -1.65 -0.85 -3.05 -0.80 -3.05 0.15 0 0.80 -1.40 1.90 -2.40 1.90 -0.75 0 -0.95 0.25 -0.75 0.95 0.15 0.60 0.55 0.90 1.05 0.75 0.50 -0.15 0.35 0.05 -0.25 0.35 -1.45 0.75 -5.95 -0.35 -5.20 -1.25 0.65 -0.75 -1.35 -2.65 -3.55 -3.40 -0.90 -0.30 -2 -0.80 -2.40 -1.15 -0.40 -0.35 -1.40 -0.95 -2.25 -1.40 -2.05 -1.05 -4.55 -3.25 -4.15 -3.65 0.20 -0.15 1.15 0.40 2.10 1.30 1.85 1.75 6.35 3.95 8.05 3.95 0.60 0 0.10 -0.40 -1.25 -1 -2.35 -1.05 -7.50 -4.80 -7.50 -5.45 0 -0.25 0.50 -0.30 1.05 -0.15 0.90 0.25 1 0.15 0.60 -0.65 -0.30 -0.50 -0.65 -1.60 -0.85 -2.35 -0.30 -1.30 -0.25 -1.35 0.70 -0.85 0.55 0.30 1 0.85 1 1.20 0 0.35 0.45 1.25 1 1.90 0.50 0.70 0.85 1.40 0.70 1.55 -0.50 0.45 1.55 1.30 2.20 0.90 0.45 -0.25 0.15 -0.95 -1.15 -2.30 -0.95 -1.05 -1.85 -2.30 -2 -2.70 -0.15 -0.45 -0.75 -1.05 -1.35 -1.30 -1.50 -0.65 -1.75 -2.05 -0.45 -2.50 0.60 -0.15 1.05 -0.60 1.05 -1 0 -1.05 -2.50 -3.75 -3.20 -3.45 -0.40 0.15 -2.15 -0.70 -3.95 -1.90 -2.70 -1.75 -3.30 -2.40 -3.30 -3.50 -0.05 -1.35 0 -1.40 2.70 -1.40 2.90 0 3.20 0.15 6.10 2.85 1.30 1.25 1.70 1.95 1.55 3 -0.10 1.15 0.15 1.55 1.60 2.25 2.45 1.20 3.15 1.10 0.90 -0.15 -1.05 -0.55 -1.90 -1.10 -1.90 -1.25 0 -0.35 2 0 3.75 0.55 0.55 0.20 0.35 -0.10 -0.50 -0.65 -1.80 -1.15 -3.60 -3.10 -2.90 -3.10 0.25 0 1 0.55 1.65 1.25 1.15 1.20 2.35 1.75 1.75 0.75 -0.50 -0.85 0.55 -0.55 1.90 0.50 0.70 0.55 1.45 1 1.70 1 0.90 0 4.65 2.05 4.65 2.50 0 0.30 -0.80 0.50 -1.75 0.50 -0.95 0 -1.75 -0.20 -1.75 -0.50 0 -0.25 -0.35 -0.50 -0.75 -0.50 -0.45 0 -0.75 0.45 -0.75 1.25 0 0.70 -0.20 1.25 -0.50 1.25 -0.25 0 -0.50 0.20 -0.50 0.45 0 0.20 1.15 0.30 2.50 0.15 2.05 -0.20 2.50 -0.10 2.50 0.60 0 0.45 0.25 0.80 0.50 0.80 0.30 0 0.50 0.80 0.50 1.75 0 1.65 -0.10 1.75 -1.75 1.75 -1.40 0 -1.75 0.20 -1.75 1 0 0.55 -0.20 1 -0.50 1 -0.25 0 -0.50 0.50 -0.50 1.05 0 0.90 0.10 0.95 0.75 0.45 0.40 -0.35 0.75 -1 0.75 -1.50 0 -1.55 5.35 -2.10 6.75 -0.70 0.45 0.45 0.90 0.70 1.05 0.60 0.10 -0.15 -0.10 -0.55 -0.55 -0.90 -0.40 -0.35 -0.75 -1.05 -0.75 -1.55 0 -0.55 -0.35 -0.95 -0.75 -0.95 -0.40 0 -0.75 -0.35 -0.75 -0.75 0 -0.40 -0.35 -0.75 -0.75 -0.75 -0.50 0 -0.75 -0.55 -0.75 -1.75 0 -2.65 1.45 -2.30 4.05 1 1.20 1.55 3 3.40 4 4.20 1.10 0.90 2.15 2.40 2.70 3.90 0.50 1.30 1.30 2.95 1.75 3.65 1.25 1.85 1.55 3 0.85 3 -0.40 0.05 -0.30 0.25 0.20 0.65 0.85 0.70 1.75 2.60 0.95 2.10 -0.75 -0.45 -2.35 0.15 -2.70 1.05 -0.15 0.40 0.05 1.75 0.50 3.05 0.70 2 0.70 2.35 0.05 3 -0.85 0.85 -1.85 0.50 -1.85 -0.65 0 -0.40 -0.45 -0.70 -1.05 -0.70 -0.95 0 -1.05 -0.20 -0.80 -1.60 l0.30 -1.65 -0.90 1.75 c-0.55 0.95 -1.45 2.20 -2.05 2.75 l-1.15 1 0.40 -1.25z m-6.25 -8 c0 -0.25 -0.45 -0.50 -1 -0.50 -0.55 0 -1 0.25 -1 0.50 0 0.30 0.45 0.50 1 0.50 0.55 0 1 -0.20 1 -0.50z m10.45 -3.60 c-2.05 -2 -3.75 -3.50 -3.85 -3.25 -0.20 0.45 -2.10 0.50 -2.10 0.05 0 -0.20 0.40 -0.65 0.90 -1 0.80 -0.65 0.80 -0.65 -0.15 -0.75 -0.55 0 -1.65 0 -2.40 0.05 -0.75 0.05 -1.75 -0.20 -2.15 -0.55 -0.40 -0.30 -0.90 -0.40 -1.10 -0.20 -0.20 0.20 -0.05 0.50 0.30 0.60 0.35 0.15 1.80 1 3.15 1.95 1.40 0.95 2.85 1.70 3.25 1.70 0.80 0 4.65 2.55 5.90 3.95 0.55 0.60 1.20 1.05 1.45 1.05 0.25 0 -1.15 -1.65 -3.20 -3.60z m-7.75 -1.45 c-0.50 -0.55 -1.40 -1.30 -1.95 -1.55 -1 -0.55 -1 -0.55 0 0.65 1.35 1.65 2.40 2.50 2.65 2.20 0.15 -0.15 -0.15 -0.70 -0.70 -1.30z m6.80 -1.70 c-0.35 -0.45 -0.75 -0.65 -0.90 -0.50 -0.15 0.10 0.05 0.55 0.40 1 0.35 0.45 0.75 0.65 0.90 0.50 0.15 -0.10 -0.05 -0.55 -0.40 -1z m-17.10 -5.60 c-0.95 -1.05 -2 -2.35 -2.30 -2.90 -0.55 -0.95 -0.55 -0.95 -0.60 0.10 0 1.35 2.75 4.65 3.90 4.65 0.55 0 0.25 -0.55 -1 -1.85z m2.15 -1.45 c-0.60 -0.75 -1.05 -1.55 -1.05 -1.80 0 -0.70 -2.60 -4.40 -3.10 -4.40 -0.25 0 0.15 1.05 0.90 2.40 1.85 3.25 3.20 5.10 3.75 5.10 0.30 0 0.05 -0.60 -0.50 -1.30z m-10.05 -9.85 c0 -0.10 -0.75 -0.80 -1.60 -1.65 l-1.65 -1.45 1.45 1.65 c1.40 1.50 1.80 1.85 1.80 1.45z"/>
  <path d="M4 7.75 c-0.35 -0.40 -0.40 -0.75 -0.10 -0.75 0.25 0 0.75 0.35 1.10 0.75 0.35 0.40 0.40 0.75 0.10 0.75 -0.25 0 -0.75 -0.35 -1.10 -0.75z"/>
  <path d="M21.75 6.40 c-0.65 -1.60 -0.65 -1.65 0.65 -1.80 0.95 -0.15 1.65 0.20 2.45 1.15 1.55 1.80 1.45 2.25 -0.60 2.25 -1.55 0 -1.90 -0.25 -2.50 -1.60z"/>
  <path d="M0.55 6.05 c-0.35 -0.25 -0.55 -0.75 -0.45 -1.10 0.15 -0.50 0.40 -0.35 0.85 0.45 0.65 1.20 0.60 1.30 -0.40 0.65z"/>
 </g>
 <g fill="#463843">
  <path d="M6 39.50 c0 -0.70 1.40 -4 1.70 -4 0.10 0 0.05 0.75 -0.20 1.65 -0.35 1.30 -0.35 1.45 0.15 0.65 0.35 -0.50 1.10 -1.55 1.75 -2.25 1 -1.20 1 -1.05 -0.25 1.55 -0.90 1.80 -1.70 2.85 -2.25 2.85 -0.50 0.05 -0.90 -0.20 -0.90 -0.45z"/>
  <path d="M2 38.30 c0 -0.60 5.10 -5.80 5.70 -5.80 0.15 0 -0.20 1.05 -0.70 2.30 -0.55 1.25 -1 2.60 -1 3 0 0.40 -0.35 0.70 -0.80 0.70 -0.50 0 -0.70 -0.30 -0.50 -0.75 0.40 -1.10 -0.35 -0.90 -1.10 0.25 -0.70 1.15 -1.60 1.30 -1.60 0.30z"/>
  <path d="M26 38.05 c0 -0.25 0.30 -0.70 0.70 -1 0.60 -0.50 0.65 -0.40 0.45 0.40 -0.25 1.05 -1.15 1.50 -1.15 0.60z"/>
  <path d="M28.50 38.35 c0 -0.80 2.45 -5.65 3.10 -6.25 0.90 -0.70 3.30 -0.05 3.60 1 0.10 0.35 0.40 1.35 0.65 2.25 0.65 1.95 0.35 2.35 -0.85 1.15 -0.60 -0.60 -1.30 -0.80 -2.05 -0.65 -0.85 0.25 -1.05 0.15 -0.85 -0.40 0.20 -0.40 0.45 -1.10 0.65 -1.55 0.20 -0.50 0.15 -0.90 -0.15 -0.90 -0.30 0 -0.65 0.45 -0.85 0.95 -0.30 1 -3.25 4.95 -3.25 4.40z"/>
  <path d="M20 37.60 c0 -0.45 6.85 -5.85 7.50 -5.85 0.15 -0.05 0.75 -0.30 1.35 -0.65 0.60 -0.30 1.45 -0.45 1.85 -0.30 0.65 0.25 0.60 0.60 -0.60 2.25 -0.75 1.05 -1.55 1.95 -1.75 1.95 -0.25 0 -0.05 -0.50 0.35 -1.10 1.50 -2.15 0.80 -2 -1.70 0.30 -3.05 2.85 -3.90 3.05 -1.25 0.25 1.10 -1.15 1.65 -1.90 1.25 -1.70 -0.70 0.40 -4.45 3.20 -5 3.75 -0.95 0.95 -2 1.55 -2 1.10z"/>
  <path d="M11.50 33.15 c0.40 -0.20 1.70 -1.10 2.90 -2.05 1.15 -0.95 2.25 -1.60 2.40 -1.45 0.40 0.40 -4.40 3.85 -5.30 3.80 -0.65 -0.05 -0.65 -0.05 0 -0.30z"/>
  <path d="M4.50 32.10 c0 -0.50 0.30 -1.20 0.65 -1.55 0.50 -0.60 0.40 -0.65 -0.40 -0.35 -1.15 0.45 -1.15 0.45 -2.65 0.35 -1 -0.05 -1.05 -0.15 -0.50 -1.15 0.35 -0.60 1.05 -1.55 1.50 -2.10 0.50 -0.55 0.75 -1.10 0.60 -1.25 -0.15 -0.15 -0.45 0.05 -0.70 0.45 -0.25 0.40 -0.60 0.55 -0.80 0.35 -0.40 -0.40 0.55 -1.20 3.05 -2.65 1.50 -0.85 1.50 -0.85 0.65 0.15 -1.30 1.45 -1.10 1.80 0.45 0.80 0.75 -0.50 1.20 -0.65 1 -0.30 -0.20 0.35 0 0.70 0.50 0.85 0.50 0.15 1.20 0.75 1.55 1.35 0.65 1.05 0.40 2.95 -0.40 2.95 -0.25 0 -1.25 0.70 -2.15 1.50 -2 1.75 -2.35 1.85 -2.35 0.60z"/>
  <path d="M19.50 30 c-0.40 -0.25 -0.55 -0.60 -0.35 -0.85 0.25 -0.20 0.55 -0.10 0.75 0.20 0.20 0.30 1.05 0.65 1.85 0.80 l1.50 0.20 -1.50 0.05 c-0.80 0.05 -1.85 -0.10 -2.25 -0.40z"/>
  <path d="M32.65 29.90 c-0.70 -0.20 -1.50 -0.25 -1.80 -0.05 -0.25 0.15 -0.20 -0.20 0.15 -0.80 0.30 -0.60 0.75 -0.95 1.05 -0.80 0.25 0.20 0.45 0.20 0.45 0.05 0 -0.55 -3.75 -2.80 -4.65 -2.80 -0.50 0 -2 -0.90 -3.40 -2 -2.60 -2.05 -3.05 -2.25 -3.60 -1.70 -0.40 0.45 2.75 4.20 3.55 4.20 1.05 0 0.65 1 -0.65 1.60 -0.70 0.30 -1.25 0.75 -1.25 1 0 0.90 -2.40 0.35 -3.50 -0.85 -0.60 -0.65 -2.25 -1.60 -3.55 -2 -1.35 -0.45 -2.55 -1.05 -2.70 -1.30 -0.40 -0.55 -0.10 -0.55 1.35 0 0.65 0.30 1.95 0.60 2.95 0.80 1 0.15 2.35 0.70 2.95 1.25 1.30 1.10 1.80 1.25 2.25 0.50 0.20 -0.30 0.15 -0.45 -0.10 -0.40 -0.20 0.10 -0.95 -0.25 -1.65 -0.75 -0.65 -0.45 -1 -0.85 -0.75 -0.85 0.30 0 -0.45 -0.90 -1.60 -2 -1.95 -1.75 -2.10 -2.10 -1.65 -3.25 0.65 -1.65 0.60 -1.75 -0.05 -1.75 -0.35 0 -1.35 -0.80 -2.25 -1.75 -1.20 -1.20 -1.70 -2.15 -1.70 -3.25 0 -0.85 -0.35 -1.90 -0.75 -2.30 -0.95 -1 -0.95 -1.75 0 -1.40 0.40 0.20 0.75 0.05 0.75 -0.25 0 -0.35 0.40 -0.35 1.30 0 2.05 0.75 1.95 0.20 -0.10 -1 -2.15 -1.30 -2 -2 0.25 -0.85 1.75 0.95 2.05 0.95 2.05 0.30 0 -0.25 -0.25 -0.50 -0.60 -0.50 -0.80 0 -3.90 -2.45 -3.90 -3.10 0 -0.35 0.65 0.05 1.45 0.80 0.80 0.80 1.70 1.25 2 1.05 0.30 -0.15 1.30 0.15 2.20 0.70 0.85 0.55 1.75 1 2 1 0.20 0 1.60 0.60 3.05 1.30 1.95 0.90 3.45 2.20 5.25 4.40 1.40 1.70 3.30 3.75 4.30 4.50 0.95 0.75 1.75 1.65 1.75 2 0.05 0.35 0.45 1.50 1 2.60 0.55 1.10 0.95 2.30 1 2.65 0 0.30 0.20 0.60 0.40 0.60 0.25 0 0.70 0.55 1 1.25 0.45 0.95 0.45 1.25 -0.05 1.25 -0.35 0.05 -0.25 0.30 0.30 0.70 2.10 1.60 -0.40 2.30 -4.50 1.20z m3.50 -1.15 c-0.15 -0.40 -0.40 -0.75 -0.60 -0.75 -0.65 0 -5.55 -4.75 -5.55 -5.40 0 -0.70 -0.80 -0.80 -1.25 -0.10 -0.15 0.30 -0.65 0.50 -1.05 0.50 -0.40 0 -0.70 -0.20 -0.70 -0.50 0 -0.25 0.35 -0.50 0.75 -0.50 0.40 0 0.75 -0.20 0.75 -0.50 0 -0.50 -1 -0.70 -2.65 -0.60 -0.50 0.05 -1.65 -0.25 -2.60 -0.65 -2.20 -0.90 -2.30 -0.05 -0.10 1.05 0.85 0.45 2.30 1.40 3.15 2 0.85 0.65 1.95 1.20 2.40 1.20 1 0 6.25 3.75 6.65 4.80 0.15 0.40 0.45 0.60 0.70 0.45 0.20 -0.15 0.30 -0.60 0.10 -1z m-2.15 -5.75 c-0.30 -0.60 -0.70 -1 -0.85 -0.85 -0.10 0.15 0.05 0.70 0.40 1.30 0.85 1.30 1.20 0.95 0.45 -0.45z m-1 0.70 c0 -0.20 -0.80 -1.25 -1.80 -2.35 -1 -1.10 -1.75 -1.80 -1.60 -1.55 0.10 0.25 0.60 1.30 1.05 2.35 0.50 1 1.20 1.85 1.60 1.85 0.40 0 0.75 -0.15 0.75 -0.30z m-15 -6.95 c0 -0.40 -0.20 -0.75 -0.40 -0.75 -0.25 0 -0.70 -0.60 -1.05 -1.35 -0.90 -2 -3.10 -5.15 -3.60 -5.15 -0.25 0 -0.45 0.35 -0.45 0.75 0 0.40 0.20 0.75 0.45 0.75 0.25 0 0.85 0.70 1.25 1.60 0.95 1.90 1 2.05 0.20 1.60 -0.35 -0.20 0.15 0.40 1.10 1.40 2 2 2.50 2.25 2.50 1.15z m2.85 -1.80 c-0.45 -0.30 -0.70 -0.75 -0.55 -1.05 0.20 -0.30 0.05 -0.45 -0.30 -0.30 -1.05 0.35 -1.15 1.30 -0.15 1.55 1.55 0.40 1.95 0.35 1 -0.20z"/>
  <path d="M0 28.70 c0 -0.50 1.55 -1.80 1.85 -1.55 0.15 0.15 -0.10 0.65 -0.50 1.10 -0.80 0.75 -1.35 0.95 -1.35 0.45z"/>
  <path d="M0 26.25 c0 -0.40 0.35 -0.75 0.80 -0.75 0.70 0 0.70 0.15 0.20 0.75 -0.35 0.40 -0.70 0.75 -0.80 0.75 -0.10 0 -0.20 -0.35 -0.20 -0.75z"/>
  <path d="M15.90 24 c-1.60 -0.45 -5.25 -2.95 -6.65 -4.50 l-0.95 -1.05 1.45 0.35 c1.30 0.30 7.75 4.90 7.75 5.50 0 0.10 -0.05 0.20 -0.10 0.15 -0.10 0 -0.75 -0.20 -1.50 -0.45z"/>
  <path d="M0.75 20.50 c0.80 -0.90 0.80 -1 0.10 -1 -0.70 0 -0.85 -0.50 -0.85 -2.75 0 -2.95 0.20 -3.15 1.70 -2 0.90 0.70 0.90 0.75 0.10 0.75 -0.55 0 -0.80 0.30 -0.70 0.90 0.10 0.50 0.55 0.80 1.05 0.70 0.45 -0.10 0.85 0.10 0.85 0.40 0 0.25 -0.35 0.50 -0.75 0.50 -0.40 0 -0.75 0.25 -0.75 0.50 0 0.30 0.50 0.50 1.10 0.50 l1.05 0 -1.15 1.25 c-1.45 1.55 -3.15 1.80 -1.75 0.25z"/>
  <path d="M23.95 8.85 c-2.55 -2.30 -3.65 -5.35 -1.90 -5.35 0.30 0 1.30 0.80 2.25 1.80 1.25 1.35 1.70 2.30 1.70 3.50 0 0.95 -0.05 1.70 -0.10 1.70 -0.10 0 -0.95 -0.75 -1.95 -1.65z"/>
  <path d="M5.25 4 c-1.75 -1.65 -3.45 -3 -3.75 -3 -0.25 0 -0.50 -0.20 -0.50 -0.50 0 -0.70 4.40 -0.60 5.35 0.15 2.30 1.80 4.15 3.85 4.15 4.55 0 1.15 -0.25 1.05 -2.60 -1.25 -1.15 -1.10 -2.55 -2.25 -3.10 -2.55 -0.60 -0.25 -0.20 0.20 0.80 1.05 2.20 1.85 4.20 4.55 3.40 4.55 -0.30 0 -2 -1.35 -3.75 -3z"/>
 </g>
 <g fill="#544550">
  <path d="M7 39.70 c0 -0.60 2.20 -4.20 2.55 -4.20 0.20 0 -0.20 1 -0.90 2.25 -1.15 2.10 -1.65 2.70 -1.65 1.95z"/>
  <path d="M26.05 38.25 c0 -0.65 1.40 -2.50 1.65 -2.20 0.15 0.10 -0.20 0.75 -0.70 1.45 -0.55 0.70 -1 1.05 -0.95 0.75z"/>
  <path d="M28.50 38.30 c0 -0.90 2.70 -5.90 3.30 -6.15 1.20 -0.45 3.45 0.60 3.50 1.65 0.05 0.55 0.35 1.50 0.70 2.15 0.65 1.25 0.15 1.15 -1.60 -0.35 -0.45 -0.35 -1.10 -0.55 -1.45 -0.30 -0.45 0.25 -0.50 0 -0.25 -1 0.45 -1.85 -0.50 -1.65 -1.50 0.35 -0.95 1.80 -2.70 4.20 -2.70 3.65z"/>
  <path d="M4.75 35.60 c1.05 -1.15 2 -2.10 2.05 -2.10 0.10 0 -0.10 0.75 -0.35 1.60 -0.25 0.90 -0.45 1.75 -0.45 1.90 0 0.15 -0.20 -0.10 -0.50 -0.50 -0.35 -0.60 -0.60 -0.55 -1.60 0.25 -0.65 0.55 -0.25 0 0.85 -1.15z"/>
  <path d="M25.50 35.30 c0 -0.25 0.35 -0.90 0.85 -1.40 0.90 -1 0.25 -1.25 -0.85 -0.25 -0.40 0.30 -0.30 0.10 0.25 -0.55 0.50 -0.60 1.20 -1.05 1.55 -0.90 0.35 0.15 0.70 0 0.80 -0.30 0.20 -0.50 2.90 -1.05 2.90 -0.60 0 0.55 -2.65 4.20 -2.90 3.95 -0.15 -0.15 0.10 -0.65 0.50 -1.10 0.40 -0.50 0.90 -1.35 1.10 -1.85 0.30 -0.85 0.20 -0.85 -0.55 -0.25 -0.50 0.35 -1.50 1.35 -2.25 2.20 -0.75 0.80 -1.35 1.30 -1.40 1.05z"/>
  <path d="M10.10 34.50 c0.10 -0.40 0.65 -0.90 1.20 -1.20 0.50 -0.30 1.75 -1.15 2.75 -1.90 2.20 -1.70 3.10 -1.85 1.10 -0.25 -3.30 2.65 -5.25 3.95 -5.05 3.35z"/>
  <path d="M37.15 30.65 c-1.25 -0.25 -1.35 -0.55 -0.70 -1.55 0.30 -0.55 0.55 -0.50 1.25 0.15 0.65 0.65 1.20 1.95 0.70 1.70 -0.10 -0.05 -0.65 -0.20 -1.25 -0.30z"/>
  <path d="M32 29.25 c-0.35 -0.40 -0.40 -0.75 -0.10 -0.75 0.25 0 0.75 0.35 1.10 0.75 0.35 0.40 0.40 0.75 0.10 0.75 -0.25 0 -0.75 -0.35 -1.10 -0.75z"/>
  <path d="M32.25 27.75 c-1.65 -1.20 -3.65 -2.35 -4.50 -2.50 -0.80 -0.20 -2.50 -1.20 -3.75 -2.30 -2 -1.75 -2.10 -1.90 -0.80 -1.45 0.80 0.30 2.10 1.10 2.90 1.75 0.80 0.70 1.80 1.25 2.25 1.25 0.95 0 7.15 4.35 7.15 5.05 0 0.65 0.10 0.70 -3.25 -1.80z"/>
  <path d="M2 29.10 c0 -0.25 0.50 -0.85 1.10 -1.40 l1.05 -0.95 -0.90 1.40 c-0.90 1.40 -1.25 1.65 -1.25 0.95z"/>
  <path d="M4 29.35 c0 -0.60 1.65 -3.35 2.35 -3.90 0.70 -0.60 0.75 -0.55 0.40 0.55 -0.45 1.45 -1.85 3.45 -2.35 3.50 -0.25 0 -0.40 -0.10 -0.40 -0.15z"/>
  <path d="M20 28 c0 -0.65 0.55 -0.65 1.50 0 0.60 0.40 0.55 0.50 -0.35 0.50 -0.65 0 -1.15 -0.20 -1.15 -0.50z"/>
  <path d="M34.20 26.60 c-1.10 -1.05 -1.80 -1.70 -1.50 -1.45 1.80 1.30 0.45 -1.90 -2 -4.80 -0.65 -0.80 -1.20 -1.65 -1.20 -1.85 0 -0.85 -2.10 -1.60 -4.55 -1.70 -1.35 -0.05 -2.45 -0.05 -2.45 0 0 0.10 0.50 0.60 1.10 1.20 1.40 1.30 0.55 1.30 -1.10 0 -0.70 -0.55 -1.50 -1 -1.85 -1 -0.30 0 -0.90 -0.40 -1.25 -0.85 -0.35 -0.50 -1.10 -1.25 -1.65 -1.65 -1 -0.75 -1 -0.70 -0.05 0.40 0.55 0.60 0.70 1.10 0.40 1.10 -0.30 0 -0.95 -0.60 -1.40 -1.35 -0.45 -0.80 -1.50 -2.40 -2.35 -3.60 -1.50 -2.15 -1.50 -2.15 -0.30 -1.80 1.45 0.45 3.35 1.45 4.60 2.45 0.65 0.50 0.80 1.05 0.55 2 -0.25 1.05 -0.05 1.40 1 1.85 1.60 0.75 2.35 0.20 1.05 -0.75 -0.85 -0.60 -0.85 -0.65 0.15 -0.90 0.60 -0.15 1.20 -0.05 1.35 0.30 0.20 0.40 0.30 0.40 0.55 -0.05 0.15 -0.35 0.60 -0.45 1 -0.30 1.10 0.40 0.80 -0.75 -0.35 -1.40 -0.60 -0.30 -0.95 -0.35 -0.80 -0.10 0.20 0.25 -0.35 0.50 -1.20 0.50 -1.05 0 -2.15 -0.60 -3.60 -1.95 -1.15 -1.05 -2.35 -1.90 -2.65 -1.90 -0.30 0 -0.85 -0.30 -1.15 -0.70 -0.50 -0.60 -0.40 -0.65 0.55 -0.45 0.65 0.15 1.85 0.75 2.65 1.25 l1.50 1 -1.55 -1.45 c-0.85 -0.75 -1.70 -1.80 -1.85 -2.30 -0.30 -0.85 -0.20 -0.80 1.10 0.10 0.80 0.60 1.70 1.05 2 1.05 1.85 0 6.50 3.20 8.80 6 1.35 1.65 2.95 3.35 3.55 3.75 0.60 0.35 2.20 2.95 3.55 5.70 2.80 5.55 2.60 6.65 -0.65 3.65z m-0.40 -3.95 c-0.40 -0.75 -0.75 -1.10 -0.80 -0.75 0 0.85 1 2.75 1.35 2.45 0.10 -0.15 -0.10 -0.90 -0.55 -1.70z m-1.30 -2.85 c0 -0.10 -1.95 -2.20 -4.30 -4.60 -4.15 -4.30 -4.20 -4.30 -1.45 -1 3.10 3.75 5.75 6.30 5.75 5.60z"/>
  <path d="M1.75 27 c1.35 -1.50 2.60 -2.15 2.60 -1.25 0 0.35 -0.30 0.55 -0.70 0.40 -0.35 -0.15 -0.65 -0.05 -0.65 0.20 0 0.20 -0.50 0.70 -1.10 1.10 l-1.15 0.70 1 -1.15z"/>
  <path d="M16.75 26.10 c-1.45 -0.50 -2.15 -0.90 -1.60 -1 1.10 -0.25 4.35 0.85 4.35 1.45 0 0.25 -0.05 0.45 -0.10 0.40 -0.10 0 -1.25 -0.40 -2.65 -0.85z"/>
  <path d="M13.45 22.50 c-1.20 -0.80 -2.85 -2.05 -3.70 -2.70 l-1.50 -1.25 1.75 0.45 c0.95 0.25 2.15 0.95 2.75 1.50 0.55 0.55 1.70 1.55 2.50 2.25 2.10 1.70 0.90 1.55 -1.80 -0.25z"/>
  <path d="M30.05 22.65 c-0.40 -0.75 -0.60 -0.80 -1.10 -0.25 -0.35 0.30 -1 0.60 -1.40 0.60 -0.55 0 -0.50 -0.20 0.25 -0.80 0.55 -0.45 0.75 -0.85 0.40 -1 -0.30 -0.15 -1 -0.55 -1.50 -0.95 -0.90 -0.65 -0.85 -0.70 0.60 -0.75 1.70 0 2.35 0.55 3.15 2.65 0.60 1.50 0.35 1.80 -0.40 0.50z"/>
  <path d="M23.15 20 c-1.20 -0.50 -2.15 -0.80 -2.15 -0.55 0 0.50 -3.45 0.55 -3.80 0 -0.15 -0.25 0.15 -0.45 0.65 -0.50 0.50 0 1.60 -0.10 2.40 -0.15 1.30 -0.10 5.25 1.40 5.25 2 0 0.30 -0.05 0.30 -2.35 -0.80z"/>
  <path d="M14.40 16.65 c-1.45 -1.55 -2.20 -3.70 -1.70 -5 0.30 -0.70 0.45 -0.60 1.05 0.55 0.90 1.65 0.95 1.95 0.25 1.55 -0.25 -0.15 -0.40 0 -0.25 0.35 0.15 0.35 0.95 1.05 1.75 1.50 1.50 0.85 2.05 2.40 0.85 2.40 -0.35 0 -1.25 -0.60 -1.95 -1.35z"/>
  <path d="M24.30 9.25 c-0.95 -0.70 -0.95 -0.75 0.35 -0.75 0.85 0 1.35 0.25 1.35 0.75 0 0.95 -0.45 0.95 -1.70 0z"/>
  <path d="M21.85 5.70 l-0.85 -1.75 1.35 0.15 c1.15 0.10 1.45 0.40 1.55 1.80 0.20 2.20 -0.90 2.10 -2.05 -0.20z"/>
  <path d="M13.70 6.05 c-1.75 -1.05 -3 -2.55 -1.40 -1.60 1.20 0.65 3.55 2.50 3.20 2.55 -0.15 0 -0.95 -0.45 -1.80 -0.95z"/>
  <path d="M4.50 3 c-2.35 -2.15 -3 -2.95 -2.25 -2.95 0.55 0.05 2.20 1.40 3.70 3 1.50 1.65 2.50 2.95 2.25 2.95 -0.25 -0.05 -1.90 -1.35 -3.70 -3z"/>
  <path d="M8 3.85 c-0.95 -0.90 -2.30 -2 -2.95 -2.50 -1.60 -1.10 -0.95 -1.75 0.80 -0.80 2.65 1.40 5.75 5 4.30 4.95 -0.25 0 -1.20 -0.75 -2.15 -1.65z"/>
 </g>
 <g fill="#69545e">
  <path d="M26.70 37.15 c0.90 -1.75 2.25 -3.50 2.30 -3 0 0.40 -2.55 4.35 -2.85 4.35 -0.10 0 0.15 -0.60 0.55 -1.35z"/>
  <path d="M8.50 37.30 c0 -0.85 2.05 -3.70 2.85 -4.05 0.70 -0.25 0.70 -0.10 -0.15 0.85 -0.60 0.65 -1.40 1.70 -1.85 2.40 -0.50 0.65 -0.85 1.05 -0.85 0.80z"/>
  <path d="M24 36.70 c0 -0.60 5.40 -6 5.65 -5.65 0.10 0.10 -1.10 1.55 -2.70 3.20 -1.65 1.60 -2.95 2.75 -2.95 2.45z"/>
  <path d="M29.50 36.30 c0 -0.20 0.50 -1.30 1.10 -2.40 0.95 -1.70 1.30 -1.90 2.40 -1.65 1.55 0.40 1.80 0.65 2.20 2.50 0.30 1.35 0.25 1.40 -0.35 0.65 -0.40 -0.50 -0.95 -0.90 -1.30 -0.90 -0.30 0 -0.55 -0.35 -0.55 -0.75 0 -0.40 -0.35 -0.75 -0.75 -0.75 -0.40 0 -0.75 0.30 -0.75 0.70 0 0.75 -1.95 3.35 -2 2.60z"/>
  <path d="M23 35.35 c0 -0.15 0.95 -1 2.15 -1.90 1.15 -0.95 1.80 -1.30 1.40 -0.80 -0.80 1 -3.55 3.05 -3.55 2.70z"/>
  <path d="M36.35 29.55 c0.15 -0.60 -0.35 -1.40 -1.45 -2.35 -0.90 -0.80 -1.55 -1.40 -1.45 -1.35 0.10 0.05 0.45 -0.20 0.80 -0.50 0.50 -0.50 0.30 -1.25 -1.05 -3.95 -1.65 -3.25 -4.40 -6.05 -4.80 -4.80 -0.10 0.30 -0.75 -0.20 -1.40 -1.15 l-1.20 -1.70 1.35 1.20 c0.75 0.70 1.35 1 1.35 0.75 0 -0.65 -3.95 -4.65 -5.20 -5.25 -0.90 -0.45 -0.90 -0.35 0.15 0.55 0.65 0.55 1.10 1.15 0.95 1.30 -0.15 0.15 -1.20 -0.65 -2.40 -1.80 -2.25 -2.15 -2.40 -2.20 -3.45 -1.55 -0.65 0.40 -0.65 0.60 0 1.35 0.65 0.80 0.60 0.80 -0.40 0.15 -0.65 -0.40 -1.15 -0.85 -1.15 -1 0 -0.20 -0.50 -0.45 -1.10 -0.60 -0.60 -0.20 -0.95 -0.45 -0.80 -0.60 0.15 -0.20 0.80 -0.05 1.40 0.25 1.30 0.70 2.15 0.15 0.85 -0.55 -1.65 -0.95 -0.85 -1.35 1.30 -0.60 3.95 1.35 6.60 3.15 9.10 6.15 1.35 1.65 2.95 3.35 3.55 3.75 1.30 0.85 5.95 9.95 5.45 10.75 -0.15 0.25 0 0.65 0.45 0.80 1.25 0.45 1.25 1.50 0.05 1.60 -0.90 0.05 -1.10 -0.15 -0.90 -0.85z"/>
  <path d="M32.20 27.50 c-1.40 -1.05 -3.20 -2.10 -4 -2.30 -0.80 -0.20 -1.90 -0.70 -2.45 -1.20 -0.55 -0.50 -1.55 -1.15 -2.15 -1.50 -0.65 -0.30 -1.05 -0.70 -0.95 -0.85 0.35 -0.30 3.05 1.10 3.80 2.05 0.40 0.45 1.10 0.80 1.60 0.80 0.85 0 6.70 3.70 7.25 4.60 0.60 0.90 -0.70 0.25 -3.10 -1.60z"/>
  <path d="M15.75 25.50 c-0.35 -0.60 0.10 -0.60 1.50 0 0.95 0.40 0.95 0.45 -0.10 0.45 -0.60 0.05 -1.25 -0.15 -1.40 -0.45z"/>
  <path d="M27 22.45 c0 -0.25 0.35 -0.45 0.75 -0.45 1.10 0 0.90 -0.75 -0.35 -1.40 -1.15 -0.55 -1.15 -0.55 0.15 -0.55 0.75 -0.05 1.65 0.30 2 0.75 0.55 0.70 0.50 0.90 -0.30 1.35 -1.30 0.75 -2.25 0.85 -2.25 0.30z"/>
  <path d="M31.45 21.15 c-1.20 -1.35 -2.05 -3.15 -1.50 -3.15 0.65 0 2.65 2.90 2.45 3.55 -0.10 0.30 -0.55 0.15 -0.95 -0.40z"/>
  <path d="M14.35 16.60 c-0.75 -0.75 -1.35 -1.80 -1.35 -2.35 0 -0.80 0.15 -0.75 1.20 0.30 0.65 0.65 1.55 1.50 2 1.85 0.45 0.35 0.80 0.85 0.80 1.10 0 0.95 -1.35 0.50 -2.65 -0.90z"/>
  <path d="M17.10 15.40 c-0.35 -0.35 -0.60 -0.80 -0.60 -1.05 0 -0.25 -0.80 -1.60 -1.75 -2.90 -0.95 -1.35 -1.65 -2.45 -1.55 -2.45 0.65 0 3.75 1.60 4.95 2.50 1.05 0.85 1.30 1.35 1.05 2.20 -0.45 1.45 -0.70 1.65 -1.20 0.80 -0.25 -0.40 -0.60 -0.55 -0.80 -0.35 -0.20 0.15 -0.05 0.65 0.30 1.10 0.75 0.90 0.45 1 -0.40 0.15z"/>
  <path d="M22.50 15.50 c0 -0.25 0.35 -0.50 0.75 -0.50 0.40 0 0.75 0.25 0.75 0.50 0 0.30 -0.35 0.50 -0.75 0.50 -0.40 0 -0.75 -0.20 -0.75 -0.50z"/>
  <path d="M20 10.75 c-0.65 -0.70 -1.05 -1.40 -0.90 -1.55 0.35 -0.30 2.90 1.80 2.90 2.40 0 0.75 -0.80 0.40 -2 -0.85z"/>
  <path d="M23.90 8.95 c-0.85 -0.60 -1.40 -1.50 -1.40 -2.20 0 -0.65 -0.20 -1.35 -0.50 -1.50 -0.90 -0.55 -0.50 -1.30 0.60 -1.15 1.35 0.20 3.40 3.05 3.40 4.70 0 1.45 -0.35 1.45 -2.10 0.15z"/>
  <path d="M12.95 5.45 c-1.15 -0.95 -1.15 -1 -0.10 -0.50 0.60 0.30 1.25 0.80 1.40 1.05 0.50 0.80 -0.05 0.60 -1.30 -0.55z"/>
  <path d="M7 2.95 c-3.40 -3.15 -3.35 -3.90 0.15 -1.50 1.95 1.30 3.85 3.75 3.30 4.25 -0.10 0.10 -1.65 -1.15 -3.45 -2.75z"/>
 </g>
 <g fill="#7e6a7d">
  <path d="M8.45 37.15 c0.50 -1.05 1.60 -2.45 2.40 -3.15 l1.40 -1.25 -1.30 1.50 c-0.75 0.85 -1.70 2.25 -2.15 3.15 -0.45 0.85 -0.95 1.60 -1.05 1.60 -0.15 0 0.15 -0.85 0.70 -1.85z"/>
  <path d="M21.20 36.35 c4.95 -3.70 5.85 -4.35 5.60 -3.90 -0.50 0.75 -6.15 5.05 -6.65 5 -0.20 0 0.25 -0.50 1.05 -1.10z"/>
  <path d="M27.75 35.50 c0.45 -0.80 0.90 -1.50 1.05 -1.50 0.10 0 -0.10 0.70 -0.55 1.50 -0.45 0.85 -0.90 1.50 -1.05 1.50 -0.10 0 0.10 -0.65 0.55 -1.50z"/>
  <path d="M25.10 35.25 c0.75 -0.70 1.50 -1.25 1.70 -1.25 0.20 0 -0.15 0.55 -0.80 1.25 -0.65 0.70 -1.40 1.25 -1.70 1.25 -0.30 0 0.05 -0.55 0.80 -1.25z"/>
  <path d="M29.50 36.20 c0 -0.25 0.35 -0.95 0.75 -1.50 0.40 -0.50 0.75 -0.70 0.75 -0.40 0 0.25 -0.35 0.95 -0.75 1.50 -0.40 0.50 -0.75 0.70 -0.75 0.40z"/>
  <path d="M33.50 33.35 c0 -0.25 -0.60 -0.35 -1.30 -0.20 -1.10 0.20 -1.20 0.15 -0.60 -0.45 0.55 -0.60 0.95 -0.60 2.05 -0.10 1.50 0.70 1.75 1.25 0.60 1.25 -0.40 0 -0.75 -0.25 -0.75 -0.50z"/>
  <path d="M28.10 32.25 c0.75 -0.80 1.45 -1.35 1.55 -1.20 0.15 0.10 -0.50 0.75 -1.35 1.40 l-1.55 1.20 1.35 -1.40z"/>
  <path d="M36.35 29.70 c0.30 -0.85 1.45 -0.90 1.80 -0.05 0.15 0.35 -0.25 0.65 -0.95 0.65 -0.75 0.05 -1.05 -0.15 -0.85 -0.60z"/>
  <path d="M32.75 27.75 c-1.95 -1.60 -1.40 -1.60 0.75 0 0.95 0.70 1.50 1.25 1.20 1.25 -0.25 0 -1.10 -0.55 -1.95 -1.25z"/>
  <path d="M35.30 27.55 c-0.20 -0.25 -0.15 -0.85 0.05 -1.35 0.25 -0.65 0.15 -0.75 -0.35 -0.45 -0.45 0.25 -0.55 0.20 -0.30 -0.20 0.55 -0.85 -2.45 -6.80 -4.15 -8.10 -0.80 -0.65 -2.35 -2.35 -3.45 -3.70 -1.15 -1.55 -2.90 -3 -4.40 -3.75 -1.35 -0.70 -2.60 -1.45 -2.80 -1.75 -0.20 -0.25 -0.50 -0.30 -0.70 -0.10 -0.20 0.20 0.25 1.05 1.05 1.85 2.20 2.25 1.25 1.80 -1.40 -0.75 -1.35 -1.25 -2.20 -2.25 -1.90 -2.25 0.25 0 0.65 0.25 0.80 0.55 0.20 0.30 0.70 0.40 1.10 0.25 1.20 -0.50 5.65 2.15 7.85 4.60 1.10 1.30 3 3.25 4.10 4.35 1.20 1.10 2.60 3.20 3.25 4.75 0.60 1.50 1.55 3.35 2.05 4.10 1.10 1.60 1.15 2.25 0.15 1.40 -0.65 -0.55 -0.70 -0.50 -0.45 0.20 0.35 0.85 -0.05 1.10 -0.50 0.35z"/>
  <path d="M25.65 23.70 l-1.40 -1.30 1.75 1.15 c2.30 1.45 2.25 1.45 1.60 1.45 -0.30 0 -1.20 -0.60 -1.95 -1.30z"/>
  <path d="M27 22.50 c0 -0.25 0.35 -0.50 0.75 -0.50 1 0 0.95 -0.85 -0.10 -1.45 -0.70 -0.40 -0.75 -0.50 -0.15 -0.50 0.40 0 1.15 0.30 1.60 0.65 0.85 0.60 0.85 0.70 0 1.50 -1.05 0.90 -2.10 1.05 -2.10 0.30z"/>
  <path d="M30.70 19.90 c-0.80 -1.55 -0.80 -1.60 0 -0.95 1.15 0.95 2 2.55 1.35 2.55 -0.30 0 -0.90 -0.75 -1.35 -1.60z"/>
  <path d="M24.40 9.10 c-1.55 -0.90 -1.80 -1.60 -0.70 -1.60 0.80 0 2.30 1.30 2.30 2.05 0 0.60 0 0.60 -1.60 -0.45z"/>
  <path d="M7.15 3 c-2.90 -2.65 -3.25 -3.25 -1.50 -2.35 1.95 1.05 3.15 2.05 4.05 3.50 1.35 2.05 0.35 1.60 -2.55 -1.15z"/>
 </g>
 <g fill="#926f65">
  <path d="M14.35 16.25 c-2.10 -2 -1.60 -2.50 0.65 -0.70 1.10 0.90 2 1.70 2 1.80 0 0.55 -1.45 -0.05 -2.65 -1.10z"/>
  <path d="M16.50 14.20 c-0.30 -0.75 -1 -2 -1.55 -2.80 -1.40 -1.95 -1 -2.20 1.35 -0.85 2.80 1.55 3.15 1.85 2.85 3 -0.20 0.70 -0.55 0.90 -1.30 0.65 -0.80 -0.25 -0.95 -0.15 -0.70 0.50 0.20 0.45 0.20 0.80 0.05 0.80 -0.10 0 -0.45 -0.60 -0.70 -1.30z"/>
  <path d="M24.35 9.10 c-1.05 -0.65 -1.35 -1.20 -1.25 -2.15 0.05 -0.75 -0.20 -1.70 -0.55 -2.15 -0.55 -0.70 -0.55 -0.80 0.10 -0.80 1.45 0 3.80 3.95 3.25 5.45 -0.05 0.30 -0.75 0.15 -1.55 -0.35z"/>
 </g>
 <g fill="#9b879b">
  <path d="M20 37.35 c0 -0.10 1.05 -0.90 2.40 -1.80 l2.35 -1.65 -2 1.80 c-1.75 1.55 -2.75 2.15 -2.75 1.65z"/>
  <path d="M24.80 35.85 c0.10 -0.35 0.70 -0.95 1.35 -1.30 1.05 -0.65 1.05 -0.60 -0.10 0.65 -1.35 1.45 -1.65 1.60 -1.25 0.65z"/>
  <path d="M36.30 29.75 c0.35 -0.85 1 -1 1.40 -0.30 0.15 0.25 -0.05 0.60 -0.50 0.75 -1.10 0.45 -1.20 0.40 -0.90 -0.45z"/>
  <path d="M33.25 21.05 c-0.15 -0.60 -0.90 -1.75 -1.65 -2.65 l-1.35 -1.60 1.35 0.90 c1.20 0.80 2.70 3.65 2.20 4.15 -0.10 0.15 -0.35 -0.25 -0.55 -0.80z"/>
  <path d="M26.20 12.80 c-1.65 -1.80 -2.65 -3.05 -2.25 -2.80 1.15 0.60 6.05 6 5.50 6 -0.10 0 -1.55 -1.45 -3.25 -3.20z"/>
  <path d="M7.55 2.95 c-1.20 -1.05 -1.90 -1.95 -1.60 -1.95 0.70 0 4.40 3.35 4.05 3.65 -0.15 0.15 -1.25 -0.65 -2.45 -1.70z"/>
 </g>
 <g fill="#bc9283">
  <path d="M16.05 12.80 c-0.40 -0.45 -0.55 -0.95 -0.35 -1.15 0.45 -0.45 1.45 0.65 1.20 1.35 -0.10 0.40 -0.40 0.35 -0.85 -0.20z"/>
  <path d="M25 8.40 c0 -0.55 -0.60 -1.85 -1.30 -2.75 -1.15 -1.50 -1.20 -1.65 -0.25 -1.05 1.65 1 3.25 4.90 2.05 4.90 -0.25 0 -0.50 -0.50 -0.50 -1.10z"/>
 </g>
 <g fill="#c5a9b4">
  <path d="M27 22.50 c0 -0.25 0.35 -0.50 0.75 -0.50 0.40 0 0.75 0.25 0.75 0.50 0 0.30 -0.35 0.50 -0.75 0.50 -0.40 0 -0.75 -0.20 -0.75 -0.50z"/>
 </g>
 <g fill="#e7d3ea">
 </g>
</svg>