<?xml version="1.0" encoding="utf-8"?>
<!DOCTYPE svg PUBLIC "-//W3C//DTD SVG 1.0//EN" "http://www.w3.org/TR/2001/REC-SVG-20010904/DTD/svg10.dtd">
<svg version="1.0" xmlns="http://www.w3.org/2000/svg" width="40px" height="40px" viewBox="0 0 40 40" preserveAspectRatio="xMidYMid meet">
 <g fill="#090407">
  <path d="M4.15 38.65 c-0.35 -0.75 -0.65 -2 -0.65 -2.75 0 -1.10 0.25 -1.40 1.10 -1.40 0.85 0 0.95 -0.15 0.50 -0.60 -0.40 -0.40 -0.60 -2.25 -0.60 -5 0 -3.25 -0.20 -4.75 -0.80 -5.70 -0.65 -0.95 -0.75 -1.90 -0.55 -4 0.30 -3.15 0.05 -4.20 -1 -4.20 -0.55 0 -0.65 -0.45 -0.35 -2.35 0.20 -1.35 0.65 -2.65 1.05 -2.90 0.55 -0.40 1.30 -4.85 1.65 -9.60 0 -0.10 0.80 -0.15 1.80 -0.15 l1.85 0 -0.35 4.95 -0.35 5 2.35 0.35 c2.75 0.40 5.70 3 5.70 4.95 0 1.05 0.25 1.25 1.50 1.25 1.45 0 1.50 0.10 1.50 2.30 l0 2.25 -1.85 -0.15 c-1.50 -0.10 -1.95 -0.40 -2.05 -1.25 -0.15 -0.85 -0.60 -1.15 -2.65 -1.40 -2.30 -0.30 -2.45 -0.45 -2.45 -1.80 0 -1.10 -0.25 -1.45 -1 -1.45 -0.90 0 -1 0.35 -1 2.65 0 1.95 0.25 3 0.95 3.80 0.55 0.60 1.25 2.25 1.60 3.60 0.60 2.35 0.70 2.45 2.30 2.45 1.65 0 1.70 0.05 1.55 1.90 -0.15 1.75 -0.25 1.85 -2.10 2 -1.20 0.10 -2.10 -0.10 -2.35 -0.50 -0.20 -0.35 -0.55 -0.50 -0.70 -0.30 -0.50 0.45 0.85 2.30 1.85 2.55 0.50 0.15 0.90 0.70 0.90 1.30 0 0.85 0.30 1.05 1.50 1.05 1.40 0 1.50 0.15 1.50 1.75 0 1.65 -0.10 1.75 -1.75 1.75 -1.45 0 -1.75 -0.20 -1.80 -1.10 -0.05 -0.85 -0.10 -0.95 -0.30 -0.25 -0.15 0.50 -0.70 0.85 -1.45 0.85 -0.75 0 -1.20 0.30 -1.20 0.75 0 0.50 -0.50 0.75 -1.60 0.75 -1.30 0 -1.80 -0.30 -2.25 -1.35z"/>
  <path d="M17 38.25 c0 -1.70 0.05 -1.75 2 -1.75 1.95 0 2 0.05 2 1.75 0 1.70 -0.05 1.75 -2 1.75 -1.95 0 -2 -0.05 -2 -1.75z"/>
  <path d="M25 38.75 c0 -1.10 0.20 -1.25 1.75 -1.25 1.55 0 1.75 0.15 1.75 1.25 0 1.10 -0.20 1.25 -1.75 1.25 -1.55 0 -1.75 -0.15 -1.75 -1.25z"/>
  <path d="M28.50 36 c0 -0.80 -0.35 -1 -1.75 -1 -1.60 0 -1.75 -0.10 -1.75 -1.45 0 -2.40 0.85 -4.05 2.10 -4.10 l1.15 0 -1.10 -0.45 c-0.95 -0.40 -1.15 -0.85 -1.15 -2.45 0 -1.10 0.45 -2.85 0.95 -3.90 1.65 -3.20 1.55 -5.45 -0.25 -5.80 -0.95 -0.15 -1.45 0.10 -2.05 0.95 -0.60 0.95 -1.20 1.20 -2.70 1.20 -1.85 0 -1.95 -0.05 -1.95 -1.65 0 -1.20 0.50 -2.20 1.75 -3.55 1.65 -1.85 1.85 -1.90 4.20 -1.70 l2.50 0.25 0.25 -3.30 c0.20 -1.80 0.60 -4.55 0.95 -6.05 0.50 -2.20 0.85 -2.80 1.75 -2.90 1.05 -0.15 1.10 -0.05 1.10 5 0 3.15 0.20 5.40 0.55 5.75 0.40 0.40 0.35 1.60 -0.25 4.55 -0.45 2.15 -0.80 4.75 -0.80 5.70 0 0.95 -0.35 2.15 -0.75 2.70 -0.95 1.25 -1.05 11.70 -0.15 12.60 0.45 0.45 0.25 0.60 -1 0.60 -1.25 0 -1.60 -0.20 -1.60 -1z"/>
  <path d="M16 26.55 c0 -2.10 0.55 -2.55 3.05 -2.55 1.30 0 1.45 0.15 1.45 1.65 0 2.10 -0.75 2.85 -2.85 2.85 -1.60 0 -1.65 -0.10 -1.65 -1.95z"/>
 </g>
 <g fill="#141019">
  <path d="M0 39.60 c0 -0.25 0.55 -0.95 1.25 -1.60 l1.25 -1.15 0 1.55 c0 1.35 -0.20 1.60 -1.25 1.60 -0.70 0 -1.25 -0.20 -1.25 -0.40z"/>
  <path d="M4.30 39.20 c-1.10 -1.05 -1.10 -5.20 -0.05 -5.20 0.65 0 0.75 -0.55 0.50 -3.55 -0.25 -3.05 -0.15 -3.55 0.50 -3.25 1.25 0.45 0.85 -0.90 -0.95 -3.25 -1.20 -1.55 -1.90 -3.10 -2.25 -5.15 -0.70 -3.80 -0.70 -3.80 0.20 -3.80 0.40 0 0.75 -0.20 0.75 -0.50 0 -0.25 -0.20 -0.50 -0.50 -0.50 -0.25 0 -0.50 -0.80 -0.50 -1.80 0 -2.10 1.30 -3.50 2.35 -2.60 0.90 0.70 0.80 1.90 -0.05 1.90 -0.65 0 -0.65 0.25 -0.10 1.65 0.90 2.25 1.40 6.35 0.75 6.35 -0.65 0 -0.05 3.60 0.80 4.25 0.35 0.30 1.20 1.65 1.90 3 0.70 1.40 1.30 2.15 1.35 1.70 0 -1.30 -1.40 -4.90 -2.25 -5.75 -0.55 -0.55 -0.75 -1.95 -0.80 -5.10 -0.05 -2.40 -0.10 -5.50 -0.20 -6.90 -0.10 -2.50 -0.05 -2.50 1.10 -2 0.60 0.30 1.15 0.70 1.15 0.95 0 0.20 0.45 0.35 1 0.35 0.80 0 1 -0.35 1 -1.75 0 -1.65 0.10 -1.75 1.75 -1.75 1.65 0 1.75 0.10 1.75 1.75 0 1.65 -0.10 1.75 -1.60 1.80 -0.90 0 -1.30 0.15 -0.90 0.30 2 0.65 3.15 1.50 4.10 3.10 0.60 0.95 1.20 1.45 1.30 1.15 0.10 -0.35 0.85 -0.60 1.65 -0.60 1.20 0 1.45 -0.20 1.45 -1.25 0 -2.40 1 -3.75 2.85 -3.75 1.50 0 1.65 0.10 1.65 1.55 l0 1.60 3 -0.30 c2.50 -0.20 3 -0.15 3 0.50 0 0.70 0.15 0.65 1 -0.10 0.60 -0.50 0.90 -1.25 0.75 -1.65 -0.60 -1.55 0.40 -1.55 1.25 0.05 0.70 1.30 0.85 2.15 0.50 3.50 -0.25 1.15 -0.20 1.85 0.10 1.95 0.80 0.30 -0.05 3.40 -0.90 3.40 -0.45 0 -0.70 0.55 -0.70 1.55 0 0.85 -0.30 2.15 -0.70 2.85 -1.35 2.60 -1.90 5.45 -1.20 6.60 0.55 0.85 0.55 1.10 -0.05 1.45 -1.10 0.70 -0.20 3.10 1.95 5.30 1.05 1.10 1.95 2.20 2 2.40 0 0.25 -0.75 0.35 -1.60 0.25 -1.25 -0.10 -1.70 -0.40 -1.80 -1.25 -0.25 -1.65 -2.10 -1.55 -2.10 0.10 0 1.10 -0.20 1.25 -1.75 1.25 -1.60 0 -1.75 -0.10 -1.75 -1.50 0 -1.25 -0.20 -1.50 -1.25 -1.50 -1.05 0 -1.25 -0.25 -1.25 -1.55 0 -0.95 0.35 -1.85 0.90 -2.25 0.75 -0.60 0.70 -0.65 -0.50 -0.70 -0.80 0 -1.40 -0.20 -1.40 -0.50 0 -0.25 -0.20 -0.50 -0.50 -0.50 -0.25 0 -0.50 0.45 -0.50 1 0 1.10 -0.80 1.25 -4.10 0.70 -1.45 -0.25 -1.90 -0.55 -1.90 -1.30 0 -0.85 -0.25 -0.95 -2.35 -0.60 -2.90 0.40 -2.85 0.40 -2.10 1.55 1.10 1.65 6.05 3.65 9.15 3.65 l2.80 0 0 1.75 0 1.75 -4.75 0 c-3.85 0 -5.05 -0.20 -6.35 -1 -2.05 -1.25 -2.40 -1.25 -2.40 0 0 0.80 -0.35 1 -1.70 1 -0.95 0 -2.10 -0.35 -2.50 -0.80z m24.20 -2.95 c0 -0.65 -0.20 -0.70 -1 -0.25 -0.55 0.30 -1 0.65 -1 0.75 0 0.15 0.45 0.25 1 0.25 0.55 0 1 -0.35 1 -0.75z m-0.50 -4.90 c0 -0.80 -0.90 0.15 -1.15 1.25 -0.30 1.10 -0.25 1.10 0.40 0.20 0.40 -0.55 0.75 -1.20 0.75 -1.45z m-21.45 -1.40 c-0.50 -1.15 -0.50 -1.15 -0.50 0.35 -0.05 0.85 0.10 1.70 0.35 1.90 0.55 0.60 0.70 -0.90 0.15 -2.25z m19.90 -6.45 c0.60 -0.40 1.55 -3.50 1.55 -5.05 0 -0.95 -0.25 -1.45 -0.75 -1.45 -0.40 0 -0.75 0.45 -0.75 1 0 0.85 -0.35 1 -1.90 1 -1.60 0 -2.05 0.25 -2.50 1.25 -0.55 1.15 -0.85 1.25 -4.10 1.25 l-3.50 0 0 -1.50 c0 -1.30 -0.15 -1.50 -1.45 -1.50 -1.60 0 -2.50 -1.35 -1.45 -2.10 0.40 -0.30 0.20 -0.35 -0.60 -0.10 -0.70 0.20 -1.30 0.55 -1.40 0.75 -0.10 0.25 -0.50 0.45 -0.90 0.45 -0.45 0 -0.70 0.55 -0.70 1.75 0 0.95 0.20 1.75 0.45 1.75 0.40 0 1.70 3.35 2.15 5.55 0.10 0.60 0.45 0.70 1.75 0.35 1.25 -0.30 1.60 -0.70 1.75 -1.80 0.15 -1.20 0.40 -1.35 2.15 -1.50 1.10 -0.10 2.20 -0.40 2.45 -0.65 0.30 -0.25 1.25 -0.45 2.15 -0.45 1.60 0 1.65 0.05 1.65 2 0 1.65 -0.15 2 -1 2 -0.55 0 -1 0.25 -1 0.50 0 0.30 0.55 0.50 1.20 0.50 0.70 0 1.40 0.25 1.55 0.50 0.15 0.30 0.75 0.50 1.30 0.50 0.50 0 1 0.30 1.05 0.65 0.05 0.30 0.15 -0.75 0.25 -2.40 0.10 -1.65 0.40 -3.10 0.60 -3.25z m3.10 0.50 c0.55 -1.90 0.95 -3.75 0.80 -4.10 -0.10 -0.35 -0.50 0.35 -0.80 1.55 -0.35 1.20 -1 2.75 -1.40 3.40 -0.65 1 -0.65 2.65 0.05 2.65 0.15 0 0.75 -1.55 1.35 -3.50z m-5.60 -8.50 c1.05 -1.10 1.85 -2 1.75 -2 -0.75 0 -1.90 0.90 -2.95 2.30 -1.75 2.30 -1.15 2.15 1.20 -0.30z m7 0.10 c0.35 -1.20 0.30 -1.50 -0.20 -1.30 -0.65 0.30 -1.30 2.45 -0.85 2.95 0.40 0.35 0.60 0.05 1.05 -1.65z m-16.95 0.65 c0 -1.20 -3.30 -4.10 -4.95 -4.35 -1.65 -0.25 -1.95 0.15 -0.85 1.05 0.50 0.40 0.80 0.45 1.05 0.05 0.50 -0.85 3.15 1 3.70 2.60 0.55 1.50 1.05 1.85 1.05 0.65z"/>
  <path d="M30 9.85 c0 -0.75 -0.20 -1.35 -0.50 -1.35 -0.70 0 -0.65 -3.50 0.10 -6.25 0.45 -1.60 0.85 -2.25 1.50 -2.25 1.05 0 1.10 0.60 0.25 3.55 -0.35 1.20 -0.70 3.30 -0.80 4.70 -0.10 2.60 -0.55 3.85 -0.55 1.60z"/>
  <path d="M6.20 4.95 c0.15 -0.85 0.30 -2.20 0.30 -3 0 -1.10 0.25 -1.45 1 -1.45 0.75 0 1 0.35 1 1.45 0 2.95 -0.60 4.55 -1.60 4.55 -0.90 0 -1 -0.25 -0.70 -1.55z"/>
  <path d="M22.50 1.80 c0 -1.75 0.05 -1.80 2.05 -1.80 1.95 0 2 0.05 1.85 1.65 -0.15 1.45 -0.30 1.60 -2 1.75 -1.85 0.15 -1.90 0.15 -1.90 -1.60z"/>
 </g>
 <g fill="#420305">
  <path d="M21.50 18 c0 -0.25 0.35 -0.50 0.75 -0.50 0.40 0 0.75 -0.30 0.75 -0.70 0 -1.05 2.50 -2.85 3.70 -2.70 0.60 0.10 1 0.45 0.90 0.80 -0.05 0.30 0.10 0.60 0.40 0.60 1.20 0 0.35 -1.55 -1 -1.80 -2.15 -0.45 -1.85 -1.30 0.40 -1.10 1.70 0.15 1.85 0.30 2 1.80 0.10 0.95 -0.20 2.20 -0.65 2.90 -0.70 1.05 -1.15 1.20 -4 1.20 -1.85 0 -3.25 -0.20 -3.25 -0.50z"/>
  <path d="M9 16.80 c0 -0.40 -0.35 -0.80 -0.75 -1 -0.85 -0.30 -1.05 -2.80 -0.25 -2.80 0.30 0 0.50 0.30 0.50 0.65 0 0.30 0.25 0.20 0.55 -0.30 0.50 -0.85 0.60 -0.85 2 0 0.80 0.45 1.50 1.05 1.50 1.25 0.05 0.20 0.15 0.65 0.20 0.90 0.05 0.30 0.15 0.75 0.20 1.05 0 0.30 0.40 0.40 0.85 0.25 0.40 -0.15 0.60 -0.10 0.45 0.20 -0.50 0.80 -5.25 0.65 -5.25 -0.20z"/>
  <path d="M21.50 15.85 c0 -1.05 0.25 -1.35 1.10 -1.35 1.05 0 1.05 0 0.10 1.15 -0.50 0.60 -1 1.20 -1.05 1.30 -0.10 0.10 -0.15 -0.40 -0.15 -1.10z"/>
  <path d="M13.40 14.60 c-0.80 -1.30 -1.40 -1.75 -4.40 -3 -1.20 -0.50 -1.15 -0.55 0.65 -0.55 1.30 -0.05 1.85 0.15 1.85 0.70 0 0.45 0.45 0.75 1.25 0.75 0.90 0 1.30 0.35 1.55 1.25 0.50 1.95 0 2.40 -0.90 0.85z"/>
 </g>
 <g fill="#221c2f">
  <path d="M4 38.20 c0 -2.05 0.35 -2.15 1.85 -0.30 l1.15 1.35 -0.55 -1.50 c-0.30 -0.80 -1 -2 -1.55 -2.60 -0.85 -0.95 -1 -1.45 -0.65 -3.25 0.20 -1.20 0.35 -2.80 0.30 -3.55 0 -1.95 0.75 -1.25 1.15 1 0.60 3.45 1.40 5.20 2.45 5.70 0.60 0.25 2.20 1.15 3.55 2 1.35 0.80 2.65 1.40 2.90 1.35 0.30 -0.10 -0.65 -0.80 -2.05 -1.55 -3.50 -1.95 -5.35 -3.90 -5.70 -6.20 -0.15 -1.05 -0.50 -2.75 -0.80 -3.80 -0.65 -2.75 0.30 -2.85 1.50 -0.15 1.20 2.75 1.70 2.95 1.30 0.55 -0.15 -0.95 -0.10 -1.75 0.20 -1.75 0.25 0 0.45 0.40 0.45 0.95 0 1.40 1.75 1.60 3.20 0.35 0.90 -0.75 1.35 -1.80 1.60 -3.65 0.30 -2.50 0.25 -2.65 -0.75 -2.65 -0.80 0 -1.05 -0.30 -1.05 -1.25 0 -1.05 -0.25 -1.25 -1.45 -1.25 -0.80 0 -1.80 -0.15 -2.25 -0.30 -0.60 -0.25 -0.80 0 -0.80 1 0 0.70 0.25 1.30 0.50 1.30 0.65 0 0.65 3.50 0 4.50 -0.40 0.65 -0.50 0.65 -0.50 -0.10 0 -0.45 -0.40 -1.20 -0.85 -1.65 -0.45 -0.50 -0.85 -1.65 -0.90 -2.70 -0.35 -5.80 -0.35 -8.60 -0.10 -8.85 0.20 -0.20 0.10 -0.75 -0.20 -1.30 -0.35 -0.65 -0.35 -1.80 0.05 -3.65 0.50 -2.40 0.70 -2.75 1.80 -2.75 1.05 0 1.20 0.20 1.20 2 0 1.50 -0.20 2 -0.80 2 -0.55 0 -0.70 0.30 -0.40 1.15 0.15 0.60 0.55 1.20 0.75 1.25 0.75 0.30 0.50 1.60 -0.30 1.60 -0.40 0 -0.75 0.35 -0.75 0.75 0 0.40 0.20 0.75 0.40 0.75 0.25 0 0.70 0.50 1.05 1.15 l0.55 1.10 -0.30 -1.10 c-0.35 -1.50 1.25 -1.60 2.50 -0.20 1 1.10 0.60 2.30 -0.55 1.85 -0.40 -0.20 -0.55 -0.05 -0.40 0.25 0.20 0.30 0.70 0.40 1.15 0.20 0.40 -0.15 0.95 0 1.15 0.30 0.20 0.30 0.60 0.40 0.90 0.25 0.80 -0.50 -0.85 -3.15 -2.55 -4.20 -1.85 -1.10 -1.75 -1.60 0.35 -1.60 1.20 0 1.75 0.25 1.75 0.75 0 0.40 0.35 0.75 0.75 0.75 0.40 0 0.75 0.35 0.75 0.75 0 0.60 0.35 0.70 1.40 0.45 2.45 -0.50 3.50 -1.30 3.80 -2.75 0.25 -1.25 0.50 -1.45 2.05 -1.45 1.65 0 1.75 0.10 1.75 1.70 0 0.95 -0.30 2.05 -0.60 2.40 -0.35 0.35 -0.90 1.40 -1.25 2.30 -0.45 1.35 -0.45 1.60 0.20 1.60 0.40 0 0.85 -0.45 1 -1 0.15 -0.55 0.50 -1 0.80 -1 0.30 0 0.95 -0.40 1.45 -0.85 0.70 -0.60 1.05 -0.70 1.50 -0.25 0.45 0.45 0.35 0.85 -0.40 1.70 l-0.95 1.10 1.35 -1 c1.70 -1.20 1.75 -2.10 0.15 -2.50 -1.55 -0.40 -1.65 -1.50 -0.10 -1.85 0.60 -0.10 1.50 -0.40 2 -0.60 0.70 -0.30 0.85 -0.10 0.85 0.95 l0 1.35 1.20 -1.40 c1.05 -1.20 1.30 -1.30 2.05 -0.65 1.35 1.15 0.80 6.65 -1.10 10.65 -2.10 4.35 -3 7.80 -2.15 8.35 0.50 0.30 0.45 0.85 -0.20 2.80 -0.45 1.30 -0.80 3.35 -0.80 4.55 0 1.80 -0.15 2.15 -0.95 2.15 -0.55 0 -1.10 -0.40 -1.20 -0.85 -0.20 -0.85 -0.25 -0.85 -0.30 0 -0.05 0.80 -0.90 0.85 -11.30 0.85 l-11.25 -0.05 0 -1.75z m16.25 0.30 c0.20 -0.30 -0.35 -0.50 -1.25 -0.50 -0.90 0 -1.45 0.20 -1.25 0.50 0.15 0.30 0.75 0.50 1.25 0.50 0.50 0 1.10 -0.20 1.25 -0.50z m0 -3.55 c0.25 -0.25 -0.30 -0.45 -1.35 -0.45 -1 0 -2 -0.20 -2.15 -0.50 -0.15 -0.25 -1 -0.50 -1.80 -0.50 -0.85 0 -1.60 -0.30 -1.75 -0.75 -0.20 -0.50 -0.95 -0.75 -2.40 -0.70 -1.95 0.05 -2 0.05 -0.65 0.55 0.75 0.25 1.35 0.80 1.35 1.20 0 0.40 0.40 0.70 0.90 0.70 0.45 0.05 1.40 0.35 2.10 0.75 1.30 0.70 4.80 0.55 5.75 -0.30z m6.10 -0.75 c1.35 -1.05 1.65 -1.55 1.60 -3.10 l0 -1.85 -0.75 2 c-0.40 1.10 -1.30 2.50 -2 3.15 -1.70 1.50 -0.95 1.40 1.15 -0.20z m-13.75 -4.75 c0.60 -0.30 2.20 -0.55 3.60 -0.55 2.30 0 2.40 -0.10 1.55 -0.75 -0.55 -0.40 -1.45 -0.55 -2 -0.40 -0.55 0.20 -1.95 0.60 -3.10 0.90 -1.20 0.25 -2.15 0.70 -2.15 0.95 0 0.55 0.85 0.50 2.10 -0.15z m16.90 -4.75 c0.55 -1.80 1 -4.25 1 -5.40 0.05 -1.10 0.35 -2.90 0.70 -3.95 0.50 -1.35 0.55 -1.85 0.10 -1.70 -1.05 0.35 -1.80 2.55 -1.80 5.35 0 1.80 -0.35 3.50 -1 4.75 -1.05 2 -1.25 3.35 -0.65 3.90 0.55 0.55 0.55 0.50 1.65 -2.95z m-5.15 2.50 c1.05 -0.30 1.10 -0.50 0.85 -3 l-0.35 -2.70 1.80 0 c1.15 0 1.85 -0.30 2.05 -0.80 0.55 -1.45 0.30 -1.70 -1.70 -1.70 -1.10 0 -2 0.25 -2 0.50 0 0.30 -0.55 0.50 -1.20 0.50 -1.30 0 -2.35 1.05 -1.40 1.40 0.80 0.25 0.80 3.95 0 4.20 -0.30 0.10 -0.45 0.60 -0.25 1.05 0.35 0.95 0.55 1 2.20 0.55z m-5.50 -1 c0.25 -0.70 -2.45 -1.30 -3.05 -0.65 -0.30 0.30 -0.20 0.45 0.35 0.45 0.45 0 0.85 0.25 0.85 0.55 0 0.70 1.60 0.40 1.85 -0.35z m-1.85 -7.45 c0 -0.70 -0.20 -1.25 -0.50 -1.25 -0.25 0 -0.50 0.55 -0.50 1.25 0 0.70 0.25 1.25 0.50 1.25 0.30 0 0.50 -0.55 0.50 -1.25z m3.70 -0.70 c-0.30 -0.30 -1.20 0.95 -1.20 1.70 0.05 0.30 0.35 0.05 0.75 -0.45 0.40 -0.55 0.60 -1.10 0.45 -1.25z"/>
  <path d="M4.25 24 c-0.15 -0.25 -0.20 -0.50 -0.05 -0.50 0.15 0 -0.20 -0.50 -0.75 -1.05 -0.80 -0.80 -1 -1.50 -0.80 -2.90 0.15 -1.20 0 -2.05 -0.50 -2.50 -0.60 -0.50 -0.65 -1.35 -0.40 -3.50 0.40 -3.30 1.30 -4.55 2.45 -3.55 1 0.80 1 1.50 0.05 1.50 -0.85 0 -1 0.55 -0.30 1.25 0.30 0.30 0.70 1.80 0.95 3.40 0.35 2.35 0.35 2.85 -0.30 2.85 -0.50 0 -0.60 0.25 -0.30 0.90 0.45 1.10 0.90 4.60 0.55 4.60 -0.15 0 -0.45 -0.20 -0.60 -0.50z"/>
  <path d="M9.50 7.75 c0 -1.65 0.10 -1.75 1.75 -1.75 1.65 0 1.75 0.10 1.75 1.75 0 1.65 -0.10 1.75 -1.75 1.75 -1.65 0 -1.75 -0.10 -1.75 -1.75z"/>
  <path d="M29 5.20 c0 -2.50 1.10 -5.20 2.10 -5.20 1.10 0 1.10 0 0.10 3.60 -0.85 3.05 -2.20 4 -2.20 1.60z"/>
  <path d="M22.50 1.50 c0 -1.45 0.10 -1.50 2.25 -1.50 2.05 0 2.25 0.10 2.25 1.20 0 1.30 -0.80 1.80 -3.05 1.80 -1.30 0 -1.45 -0.20 -1.45 -1.50z"/>
 </g>
 <g fill="#750403">
  <path d="M22 17.90 c0 -0.20 0.30 -0.40 0.70 -0.40 0.40 0 0.80 -0.50 0.90 -1.10 0.20 -1.50 2.60 -2.90 3.45 -2.05 0.80 0.80 -0.60 2.50 -2.25 2.80 -1 0.20 -1 0.20 0.10 0.30 0.70 0 1.80 -0.55 2.65 -1.40 1.40 -1.40 1.45 -1.40 1.45 -0.35 0 1.80 -1.70 2.85 -4.50 2.75 -1.40 -0.05 -2.50 -0.30 -2.50 -0.55z"/>
  <path d="M8.85 16.90 c-1 -0.80 -1.75 -3.90 -0.90 -3.90 0.30 0 0.55 0.30 0.55 0.65 0 1 2.20 2.85 3.40 2.85 0.55 0 1.20 0.25 1.35 0.50 0.45 0.75 -3.40 0.60 -4.40 -0.10z"/>
  <path d="M10 15 c-1.25 -1.25 -1.30 -2 -0.10 -2 1.15 0 2.80 1.75 2.35 2.45 -0.45 0.80 -1.15 0.65 -2.25 -0.45z"/>
  <path d="M22 15.30 c0 -1.55 1.40 -2.40 4.10 -2.50 1.40 0 2.65 0.20 2.75 0.45 0.10 0.35 -0.60 0.45 -1.90 0.35 -1.70 -0.20 -2.25 0 -3.50 1.20 -1.20 1.15 -1.45 1.25 -1.45 0.50z"/>
 </g>
 <g fill="#30283d">
  <path d="M3.70 38.75 c-0.15 -0.70 -0.60 -1.25 -1 -1.25 -0.70 0 -0.35 -1.60 1.15 -4.95 0.45 -0.95 0.80 -2.60 0.85 -3.60 0.05 -2.70 0.80 -1.65 0.90 1.35 0.05 1.45 0.50 3.05 1.10 3.95 0.55 0.85 1.35 2.05 1.80 2.70 0.90 1.35 3.10 1.90 2.65 0.65 -0.25 -0.60 -0.10 -0.60 0.75 -0.15 0.60 0.35 1.10 0.80 1.10 1.05 0 0.55 5.90 0.65 9.85 0.20 2.45 -0.30 2.65 -0.45 3.20 -2.15 0.35 -0.95 0.90 -2.10 1.30 -2.45 0.70 -0.70 0.75 -1 0.90 -4.35 0.10 -1.10 0.60 -3.30 1.20 -4.90 0.60 -1.60 1.20 -4.30 1.35 -6 0.15 -1.70 0.60 -3.65 1 -4.35 0.65 -1.15 0.70 -1.10 0.40 1.25 -0.20 1.40 -0.55 2.90 -0.80 3.40 -0.25 0.50 -0.25 0.85 0.05 0.85 0.50 0 0.80 -1.10 1.30 -4.60 0.30 -1.90 0.20 -2.40 -0.35 -2.40 -0.40 0 -0.95 0.25 -1.30 0.60 -1.05 1.05 -0.70 -0.40 0.40 -1.65 1 -1.20 1 -1.20 1.75 -0.25 1.45 1.90 0.45 7.95 -1.90 11.80 -0.95 1.45 -2.25 5.25 -2.35 6.65 0 0.20 0.30 0.35 0.70 0.35 0.70 0 0.60 3.50 -0.15 6.70 -0.40 1.80 -2.55 2.90 -2.20 1.15 0.15 -0.90 0.05 -0.85 -0.60 0.30 l-0.80 1.35 -9.10 0 -9.15 0 -1.15 -2.35 c-0.65 -1.35 -1.30 -2.15 -1.40 -1.85 -0.25 0.80 0.75 3.20 1.35 3.20 0.25 0 0.50 0.25 0.50 0.50 0 0.30 -0.65 0.50 -1.50 0.50 -1.15 0 -1.55 -0.25 -1.80 -1.25z"/>
  <path d="M13.20 36.85 c-1.40 -0.60 -2.90 -1.50 -3.40 -1.95 -0.50 -0.50 -1.05 -0.90 -1.30 -0.90 -0.25 0 -0.90 -1.55 -1.50 -3.45 -1.65 -5.65 -1.10 -7.40 0.95 -2.80 1.15 2.60 1.65 2.90 1.20 0.75 -0.15 -0.95 -0.05 -1.50 0.30 -1.50 0.30 0 0.55 0.35 0.55 0.75 0 0.45 0.50 0.80 1.40 0.80 1.15 0.10 1.20 0.10 0.25 0.30 -0.65 0.10 -1.15 0.55 -1.15 0.95 0 0.85 0.40 0.85 2 -0.05 1.55 -0.90 5.45 -0.95 8.20 -0.15 2.35 0.70 2.75 1.10 2.45 2.60 l-0.20 1.05 0.50 -1.05 c0.65 -1.50 1.55 -1.95 1.60 -0.85 0.05 0.65 0.15 0.55 0.45 -0.35 0.65 -2.10 0.60 -2.90 -0.25 -1.85 -0.65 0.90 -0.75 0.90 -3.45 0 -3.20 -1.05 -3.60 -2.05 -1.55 -3.95 0.70 -0.65 1.25 -1.45 1.25 -1.80 0 -0.45 -0.15 -0.45 -0.50 0.10 -0.45 0.65 -0.55 0.65 -1.05 0 -0.45 -0.60 -0.50 -0.55 -0.30 0.35 0.20 0.80 -0.05 1.15 -1 1.40 -1.75 0.40 -2.30 -0.15 -1.95 -2.15 0.15 -0.95 0.10 -1.55 -0.15 -1.30 -0.25 0.25 -0.55 1.40 -0.75 2.60 -0.25 1.80 -0.20 2.10 0.55 2.10 0.70 0.05 0.60 0.20 -0.35 0.75 -1.65 0.95 -2.50 0.95 -2.50 0 0 -0.50 -0.50 -0.75 -1.50 -0.75 -1.45 0 -1.50 -0.10 -1.50 -2.25 0 -1.95 0.15 -2.35 1.25 -2.75 1.95 -0.75 1.65 -2.40 -0.50 -2.80 -1.55 -0.25 -1.75 -0.50 -1.75 -1.80 0 -1.15 0.15 -1.40 0.65 -1.05 0.30 0.30 1.45 0.65 2.50 0.85 1.65 0.30 1.85 0.50 1.55 1.45 -0.25 0.90 -0.20 1 0.35 0.45 1.05 -0.95 1.45 -0.70 1.45 0.90 0 0.85 0.25 1.50 0.50 1.50 0.30 0 0.50 -0.85 0.50 -1.90 0 -2.25 0.20 -2.60 1.55 -2.25 0.80 0.20 0.95 0.75 1 2.85 0 2.25 0.10 2.40 0.50 1.30 0.85 -1.95 0.90 -4.45 0.15 -5.05 -0.40 -0.30 -0.70 -0.40 -0.70 -0.20 0 0.20 -0.35 0.10 -0.75 -0.25 -0.55 -0.45 -1 -0.40 -2.20 0.30 -0.85 0.50 -1.60 0.80 -1.70 0.65 -2.35 -3.30 -3.05 -3.95 -4.75 -4.45 -2.50 -0.70 -3.10 -0.65 -3.10 0.25 0 0.40 0.30 0.75 0.70 0.75 0.70 0 1.60 2.40 1.05 2.90 -0.15 0.15 -0.55 -0.15 -0.95 -0.65 -0.65 -0.90 -0.75 -0.80 -1.25 1.25 -0.45 2.05 -0.50 1.85 -0.35 -2.05 0.10 -2.35 0 -4.60 -0.20 -5 -0.60 -1.05 0.45 -6.45 1.25 -6.45 1.35 0 2.25 0.65 2.25 1.55 0 0.75 0.35 0.95 1.65 0.95 2.20 0.05 3.85 1.50 3.85 3.45 0 1.20 -0.20 1.55 -1 1.55 -0.70 0 -1 0.35 -1 1.20 0 0.95 0.30 1.25 1.50 1.40 1.20 0.20 1.55 0 2.05 -1.20 0.45 -1.15 0.90 -1.40 2.20 -1.40 1.50 0 1.65 -0.15 1.95 -1.75 l0.35 -1.75 3.50 0 3.50 0 -0.15 1.85 c-0.15 1.75 -0.30 1.95 -1.90 2.20 l-1.75 0.30 2.15 0.10 c1.95 0.05 2.10 -0.05 2.10 -1.20 0 -0.95 0.25 -1.25 1.05 -1.25 0.95 0 1.05 0.20 0.70 1.90 -0.55 2.90 -0.75 5.15 -0.70 8 0 1.95 -0.35 3.35 -1.25 5.10 -0.90 1.75 -1.20 2.90 -1 3.95 0.45 2.05 -0.65 5 -2.50 6.65 -0.85 0.75 -1.75 1.40 -2 1.40 -0.25 0 -1 0.50 -1.65 1.05 -0.85 0.85 -1.30 0.95 -1.80 0.55 -0.40 -0.35 -0.90 -0.35 -1.35 -0.10 -1.10 0.70 -1.95 0.60 -4.80 -0.65z m2.30 -1.55 c0 -0.40 0.30 -0.85 0.65 -0.95 0.30 -0.15 -0.15 -0.30 -1.05 -0.30 -1.25 -0.05 -1.75 -0.30 -1.95 -1.05 -0.20 -0.70 -0.70 -1 -1.70 -1 -0.95 0 -1.45 -0.25 -1.45 -0.75 0 -0.40 -0.20 -0.75 -0.50 -0.75 -0.25 0 -0.50 0.45 -0.50 1 0 0.55 0.35 1 0.75 1 0.95 0 2.45 1.40 2.90 2.65 0.40 1.05 2.85 1.20 2.85 0.15z m6.25 -3.90 c0.25 -0.20 -1.30 -0.40 -3.45 -0.40 -2.45 0 -3.75 0.20 -3.55 0.50 0.15 0.30 0.95 0.50 1.75 0.50 0.80 0 1.55 0.20 1.75 0.50 0.30 0.45 2.45 -0.20 3.50 -1.10z m5.25 -13.20 c0 -0.70 0.45 -1.85 1 -2.55 1.25 -1.65 0.90 -2.15 -1.50 -2.15 -1.65 0 -2.20 0.30 -3.70 2.10 -1 1.15 -1.70 2.15 -1.60 2.25 0.10 0.10 0.70 0 1.35 -0.25 1.70 -0.60 2.95 -0.20 2.95 0.95 0 0.50 0.35 0.95 0.75 0.95 0.45 0 0.75 -0.50 0.75 -1.30z"/>
  <path d="M23.80 15.85 c0.40 -1.10 2.25 -2 2.85 -1.40 0.40 0.40 0.30 0.55 -0.30 0.55 -0.45 0 -0.85 0.35 -0.85 0.75 0 0.40 -0.45 0.75 -1 0.75 -0.60 0 -0.85 -0.25 -0.70 -0.65z"/>
  <path d="M22 37.50 c0 -0.30 0.60 -0.75 1.30 -1 1.65 -0.65 1.70 -0.65 1.70 0.30 0 0.50 -0.30 0.70 -0.75 0.55 -0.40 -0.20 -0.85 -0.10 -1 0.15 -0.40 0.65 -1.25 0.65 -1.25 0z"/>
  <path d="M8.60 36 c-0.35 -0.55 -0.45 -1 -0.20 -1 0.20 0 0.65 0.45 1 1 0.35 0.55 0.45 1 0.20 1 -0.20 0 -0.65 -0.45 -1 -1z"/>
  <path d="M3.65 23.05 c-2.10 -3.30 -2.65 -11.05 -0.80 -11.05 0.60 0 0.75 0.40 0.50 2 -0.15 1.10 -0.05 2 0.20 2 0.25 0 0.45 -0.40 0.45 -0.85 0 -0.75 0.10 -0.80 0.50 -0.15 0.65 1.05 0.60 3.20 -0.05 3.85 -0.45 0.45 -0.45 0.95 0 2.05 0.35 0.85 0.55 2.05 0.45 2.70 -0.20 1.10 -0.25 1.05 -1.25 -0.55z"/>
  <path d="M9.50 13.70 c0 -0.75 1.30 -0.95 1.70 -0.25 0.15 0.25 -0.15 0.55 -0.70 0.70 -0.65 0.15 -1 0 -1 -0.45z"/>
  <path d="M22.60 2.15 c0.10 -1.55 0.35 -1.95 1.30 -2.05 0.60 -0.10 1.10 0.05 1.10 0.35 0 0.30 -0.20 0.55 -0.50 0.55 -0.25 0 -0.50 0.30 -0.50 0.65 0.05 0.30 0.45 0.10 0.95 -0.50 1.35 -1.60 1.65 -1.45 1.45 0.75 -0.15 1.75 -0.25 1.85 -2.05 2 l-1.90 0.15 0.15 -1.90z"/>
 </g>
 <g fill="#3c2e4b">
  <path d="M8 38.50 c0 -1.15 -0.25 -1.50 -0.95 -1.50 -0.85 0 -1.55 -1.25 -1.55 -2.95 0 -1.05 1.30 0.20 2.60 2.50 0.70 1.30 1.45 1.95 2.30 2.05 2.20 0.25 1.90 1.40 -0.35 1.40 -1.95 0 -2.05 -0.10 -2.05 -1.50z"/>
  <path d="M22 39.50 c0 -0.25 0.35 -0.50 0.75 -0.50 0.40 0 0.75 0.25 0.75 0.50 0 0.30 -0.35 0.50 -0.75 0.50 -0.40 0 -0.75 -0.20 -0.75 -0.50z"/>
  <path d="M24 39.50 c0 -0.25 0.40 -0.70 0.95 -0.95 0.50 -0.30 1.10 -1.30 1.25 -2.25 0.35 -1.75 1.50 -2.75 2 -1.65 0.15 0.35 0.25 0.05 0.20 -0.65 -0.10 -2.30 0.10 -3 0.85 -3 0.60 0 0.75 0.65 0.75 3 0 1.65 -0.20 3 -0.50 3 -0.25 0 -0.50 0.35 -0.50 0.75 0 0.40 -0.35 0.75 -0.80 0.75 -0.60 0 -0.70 -0.35 -0.50 -1.60 0.20 -1.15 0 -0.95 -0.55 0.75 -0.65 1.90 -1.05 2.35 -2 2.35 -0.65 0 -1.15 -0.20 -1.15 -0.50z"/>
  <path d="M14.30 37.25 c-1.10 -0.40 -2.55 -1.15 -3.25 -1.75 -0.70 -0.55 -1.70 -1.15 -2.20 -1.35 -0.45 -0.15 -1 -0.85 -1.15 -1.60 -0.25 -1.20 -0.65 -2.85 -1.45 -5.90 -0.50 -1.90 0.60 -1.25 1.40 0.80 1.75 4.35 2.20 2.15 0.50 -2.65 -0.35 -1.05 -0.65 -2.25 -0.65 -2.60 0 -1.10 1.85 -0.80 2.15 0.30 0.20 0.85 0.55 0.95 1.50 0.70 1.15 -0.25 1.25 -0.15 1 0.90 -0.20 0.85 -0.15 1 0.30 0.60 1 -0.90 0 -3.90 -1.35 -4.10 -0.70 -0.10 -1.10 -0.50 -1.10 -1.10 0 -0.70 -0.45 -1 -1.85 -1.10 l-1.90 -0.15 -0.05 -4.25 c0 -2.35 -0.05 -4.45 -0.15 -4.75 -0.10 -0.25 -0.15 -1.25 -0.10 -2.20 0.05 -1.20 0.25 -1.60 0.75 -1.40 1.10 0.45 1.40 -0.25 0.40 -0.95 -0.75 -0.60 -0.70 -0.65 0.80 -0.70 1.50 0 1.60 0.10 1.60 1.75 0 1.20 -0.20 1.75 -0.65 1.65 -0.65 -0.15 -0.85 0.15 -0.85 1.35 0 0.40 0.35 0.75 0.75 0.75 0.45 0 0.75 0.45 0.75 1.05 0 0.85 -0.25 1 -1.25 0.85 -1.05 -0.20 -1.25 -0.05 -1.25 0.90 0 0.65 0.25 1.20 0.55 1.20 0.65 0 2.40 2.05 2.45 2.85 0 0.35 0.60 0.50 1.50 0.40 0.85 -0.10 1.50 0.05 1.50 0.35 0 0.25 0.35 0.35 0.80 0.20 0.60 -0.20 0.70 -0.05 0.45 0.70 -0.20 0.55 -0.10 1 0.20 1 0.30 0 0.55 -0.25 0.55 -0.55 0 -0.25 0.25 -0.35 0.50 -0.20 0.80 0.50 0.60 1.75 -0.50 3.10 -1.05 1.35 -1.25 2.15 -0.55 2.15 0.25 0 0.60 -0.50 0.80 -1.10 0.35 -1.05 0.40 -1 0.60 0.55 0.15 0.90 0 1.90 -0.30 2.20 -0.80 0.80 -0.65 1.35 0.35 1.35 0.80 0.05 0.80 0.05 -0.05 0.70 -0.55 0.45 -1.60 0.60 -2.80 0.45 -1.75 -0.25 -1.95 -0.15 -2.25 1.10 -0.45 1.85 -0.05 2.10 1.65 1.10 3.20 -1.90 9.85 -0.55 10.60 2.15 l0.35 1.25 0.35 -1.10 c0.40 -1.25 1.05 -1.50 1.40 -0.50 0.10 0.30 0.35 -0.25 0.55 -1.35 0.40 -2.05 -0.05 -3.25 -0.55 -1.40 -0.30 1.20 -0.65 1.20 -3.95 -0.20 -2.35 -1 -2.45 -1.50 -0.75 -3.55 0.85 -1.05 1.55 -2.25 1.55 -2.65 0 -0.45 0.30 -1.10 0.65 -1.45 0.50 -0.55 0.45 -0.65 -0.10 -0.45 -0.75 0.20 -1.20 0.85 -1.85 2.65 -0.35 0.95 -0.35 0.95 -0.60 0.05 -0.35 -1.60 0.90 -5.20 1.95 -5.45 0.60 -0.15 0.95 0 0.95 0.45 0 0.40 0.25 0.70 0.55 0.70 0.30 0 0.45 -0.35 0.25 -0.75 -0.20 -0.55 0.05 -0.75 0.95 -0.75 0.70 0 1.95 -0.65 2.85 -1.45 1.45 -1.25 1.55 -1.55 0.90 -2.30 -0.40 -0.50 -1.15 -0.75 -1.85 -0.60 -0.80 0.15 -1.15 -0.05 -1.15 -0.50 0 -0.50 -0.30 -0.65 -0.80 -0.45 -0.45 0.15 -0.90 0.30 -1 0.30 -0.10 0 -0.20 0.35 -0.20 0.80 0 0.45 -0.45 1.60 -1.05 2.55 -1 1.55 -1.10 1.60 -1.70 0.80 -0.45 -0.60 -0.50 -1.15 -0.15 -1.80 0.25 -0.50 0.35 -1.10 0.15 -1.25 -0.15 -0.15 -0.40 0.20 -0.60 0.80 -0.45 1.70 -1.40 1 -1.30 -0.95 l0.15 -1.70 -1 1.85 c-0.85 1.60 -2.85 3.35 -3.20 2.80 -1.85 -2.80 -1.85 -2.90 -0.80 -2.90 0.75 0 1 -0.35 1 -1.45 0 -1.20 0.25 -1.45 1.55 -1.75 2.40 -0.45 3.85 -0.35 4.10 0.35 0.15 0.30 0.30 0.10 0.30 -0.45 0.05 -0.60 0.40 -1.20 0.80 -1.40 0.95 -0.35 0.95 0.55 0 2.40 -0.45 0.80 -0.65 1.55 -0.55 1.65 0.50 0.50 1.80 -2.90 1.80 -4.60 0 -1.75 0 -1.75 2.15 -1.75 2.05 0 2.15 -0.05 3.35 -2.75 0.85 -1.85 1.55 -2.75 2.20 -2.75 0.75 0 0.85 0.25 0.60 1.40 -0.20 0.75 -0.55 3.35 -0.80 5.80 -0.25 2.45 -0.70 4.70 -1 5.05 -0.40 0.45 -0.35 0.70 0.05 0.85 0.45 0.15 0.40 0.65 -0.20 1.90 -0.65 1.25 -0.70 1.80 -0.30 2.05 0.85 0.50 0.15 4.85 -0.90 6.05 -0.55 0.65 -0.85 1.90 -0.90 4.05 -0.10 3.40 -0.95 5.70 -2.30 6.10 -0.45 0.15 -1 0.60 -1.15 1 -0.15 0.40 -0.65 0.75 -1.10 0.75 -0.40 0 -1.20 0.50 -1.65 1.10 -0.90 1.05 -2.40 0.85 -1.70 -0.25 0.20 -0.35 -0.25 -0.20 -1 0.30 -1.55 1 -1.55 1 -4.05 0.10z m8.70 -3.05 c0 -0.40 -0.20 -0.60 -0.50 -0.45 -0.25 0.15 -0.50 0.65 -0.50 1.05 0 0.40 0.25 0.60 0.50 0.45 0.30 -0.15 0.50 -0.65 0.50 -1.05z m-10.35 -0.75 c-1 -1 -1.15 -1.05 -1.85 -0.30 -0.75 0.70 -0.65 0.80 0.80 1 0.90 0.10 1.75 0.25 1.90 0.25 0.10 0.05 -0.25 -0.40 -0.85 -0.95z m7.10 -0.95 c0.15 -0.25 0.75 -0.50 1.30 -0.50 0.50 0 0.95 -0.30 0.95 -0.60 0 -0.45 -1.05 -0.65 -3.65 -0.65 -2.85 0 -3.60 0.15 -3.60 0.75 0 0.50 0.50 0.75 1.35 0.75 0.70 0 1.50 0.15 1.70 0.40 0.50 0.50 1.60 0.45 1.95 -0.15z m3.25 -8.10 c0 -1.25 -0.15 -1.45 -0.50 -0.90 -0.65 1 -0.65 2.50 0 2.50 0.30 0 0.50 -0.75 0.50 -1.60z m-15 -8.75 c0 -0.25 -0.25 -0.75 -0.50 -1.15 -0.40 -0.60 -0.50 -0.55 -0.50 0.40 0 0.60 0.25 1.10 0.50 1.10 0.30 0 0.50 -0.15 0.50 -0.35z m18.20 -6.55 c0.10 -0.20 -0.20 -0.45 -0.75 -0.45 -0.50 -0.05 -0.95 0.10 -0.95 0.40 0 0.55 1.35 0.60 1.70 0.05z"/>
  <path d="M2.75 36.15 c0.20 -0.50 0.40 -1.25 0.45 -1.65 0.10 -0.40 0.50 -0.80 0.95 -0.90 0.65 -0.15 0.85 0.20 0.85 1.60 0 1.60 -0.15 1.80 -1.30 1.80 -1.05 0 -1.25 -0.20 -0.95 -0.85z"/>
  <path d="M4.50 31 c0 -0.55 0.25 -1 0.50 -1 0.30 0 0.50 0.45 0.50 1 0 0.55 -0.20 1 -0.50 1 -0.25 0 -0.50 -0.45 -0.50 -1z"/>
  <path d="M28.35 29.20 c-0.15 -0.20 0.05 -1 0.45 -1.80 1 -1.95 1.40 -1.50 0.55 0.55 -0.35 0.85 -0.80 1.40 -1 1.25z"/>
  <path d="M16.75 25.05 c-0.15 -0.30 -0.15 -1.05 0.05 -1.65 0.20 -0.60 0.35 -2.25 0.40 -3.65 0.05 -2.15 0.20 -2.50 1.05 -2.50 0.90 0 1 0.35 1 3.85 0 2.15 -0.15 3.90 -0.35 3.90 -0.15 0 -0.65 0.15 -1.05 0.30 -0.40 0.15 -0.90 0.05 -1.10 -0.25z"/>
  <path d="M30 24.05 c0 -0.60 0.55 -2.15 1.25 -3.40 0.65 -1.30 1.35 -3.65 1.55 -5.25 0.35 -3.25 1.20 -3.95 1.20 -0.95 0 2.55 -1.60 7.65 -2.95 9.35 -1 1.25 -1.05 1.30 -1.05 0.25z"/>
  <path d="M2.20 18.90 c-0.65 -1.95 -0.30 -8 0.50 -8.80 0.60 -0.65 0.90 -0.65 1.50 -0.10 1 0.80 1.05 1.70 0.05 1.30 -0.50 -0.15 -0.75 0.05 -0.75 0.60 0 0.45 -0.15 1.70 -0.30 2.75 -0.35 1.85 0.50 2.75 0.95 1 0.15 -0.50 0.25 -0.05 0.30 1.05 0.05 1.65 -0.05 1.85 -0.70 1.30 -0.70 -0.55 -0.70 -0.50 -0.30 0.70 0.40 1 0.40 1.30 -0.20 1.30 -0.35 0 -0.85 -0.50 -1.05 -1.10z"/>
  <path d="M31 17.45 c0 -0.95 0.35 -2.20 0.75 -2.75 0.65 -0.85 0.70 -0.80 0.40 1.05 -0.40 2.90 -1.10 3.95 -1.15 1.70z"/>
  <path d="M22 1.75 c0 -1.55 0.15 -1.75 1.25 -1.75 1.10 0 1.25 0.15 0.95 1.25 -0.40 1.65 0.10 1.60 1 -0.10 0.70 -1.30 0.75 -1.30 0.80 -0.30 0 2 -0.55 2.65 -2.30 2.65 -1.60 0 -1.70 -0.10 -1.70 -1.75z"/>
 </g>
 <g fill="#bb0402">
  <path d="M24.90 17.50 c0.90 -0.20 2.10 -0.80 2.70 -1.30 1 -0.90 1.05 -0.90 0.75 -0.05 -0.20 0.50 -0.35 1.15 -0.35 1.40 0 0.25 -1.05 0.45 -2.35 0.40 -2.25 -0.05 -2.30 -0.05 -0.75 -0.45z"/>
  <path d="M8.60 16.20 c-0.35 -0.40 -0.60 -1.10 -0.50 -1.60 0.10 -0.70 0.40 -0.60 1.55 0.75 1.25 1.40 1.30 1.65 0.50 1.65 -0.50 -0.05 -1.20 -0.35 -1.55 -0.80z"/>
  <path d="M23.80 15.85 c0.35 -1 2.25 -2 2.80 -1.45 0.80 0.80 -0.15 2.10 -1.65 2.10 -0.95 0 -1.35 -0.20 -1.15 -0.65z"/>
  <path d="M22 15.65 c0 -1.10 0.60 -2.15 1.30 -2.15 0.40 0 0.70 -0.20 0.70 -0.50 0 -0.25 0.75 -0.50 1.65 -0.45 l1.60 0.05 -1.75 0.75 c-0.95 0.40 -2.15 1.20 -2.60 1.80 -0.50 0.60 -0.90 0.85 -0.90 0.50z"/>
  <path d="M10.10 14.90 c-0.80 -0.80 -0.75 -1.90 0.05 -1.90 0.70 0 2.35 1.55 2.35 2.15 0 0.60 -1.75 0.40 -2.40 -0.25z"/>
  <path d="M12.55 13.30 c-0.65 -0.70 -1.65 -1.35 -2.25 -1.45 -0.70 -0.15 -0.55 -0.25 0.50 -0.30 0.95 0 1.90 0.30 2.40 0.90 1.35 1.50 0.70 2.30 -0.65 0.85z"/>
 </g>
 <g fill="#453a59">
  <path d="M8.50 38.65 c0 -1.10 0.10 -1.25 0.50 -0.65 0.25 0.40 0.75 0.75 1.10 0.80 1.60 0.15 1.90 0.25 1.90 0.70 0 0.30 -0.80 0.50 -1.75 0.50 -1.60 0 -1.75 -0.15 -1.75 -1.35z"/>
  <path d="M24 39.55 c0 -0.25 0.35 -0.55 0.75 -0.70 0.40 -0.20 1.05 -1.15 1.50 -2.15 1 -2.45 1.45 -1.90 0.70 1 -0.45 1.95 -0.75 2.30 -1.75 2.30 -0.65 0 -1.20 -0.20 -1.20 -0.45z"/>
  <path d="M27.10 39.40 c0.15 -0.35 0.65 -2.15 1.15 -4 0.50 -1.90 1.10 -3.40 1.30 -3.40 0.50 0 0.60 3.40 0.15 6.15 -0.30 1.55 -0.55 1.85 -1.55 1.85 -0.80 0 -1.15 -0.25 -1.05 -0.60z"/>
  <path d="M12.75 36.45 c-3.75 -2.05 -5.25 -3.45 -5.25 -5.05 0 -0.80 -0.25 -1.90 -0.55 -2.45 -0.25 -0.55 -0.45 -1.50 -0.35 -2.10 0.15 -0.90 0.40 -0.70 1.25 1.15 0.60 1.25 1.20 2.70 1.30 3.25 0.15 0.65 0.25 0.50 0.30 -0.50 0 -0.80 -0.20 -2.40 -0.45 -3.50 -0.25 -1.10 -0.35 -2.05 -0.25 -2.20 0.15 -0.10 0.40 0.50 0.55 1.35 0.20 0.90 0.50 1.60 0.75 1.60 0.25 0 0.45 0.55 0.45 1.20 0 1.55 0.95 1.85 2.10 0.70 0.95 -0.95 2.90 -1.25 2.90 -0.40 0 0.30 -0.60 0.50 -1.35 0.55 -1.25 0 -1.30 0.05 -0.40 0.45 0.65 0.30 0.75 0.45 0.25 0.45 -0.55 0.05 -0.45 0.30 0.35 1.15 1.10 1.05 3.50 1.35 5.70 0.65 0.65 -0.25 0.95 -0.05 0.95 0.50 0 0.45 0.20 0.70 0.50 0.50 0.25 -0.15 0.35 -0.60 0.20 -0.95 -0.15 -0.35 0.10 -0.95 0.55 -1.30 1.05 -0.85 0.95 -0.10 -0.30 3.25 -0.55 1.50 -1.35 2.75 -1.70 2.75 -0.45 0 -0.60 -0.30 -0.45 -0.75 0.35 -0.90 -0.60 -1 -1 -0.10 -0.15 0.45 -0.45 0.35 -0.95 -0.30 -0.60 -0.70 -0.80 -0.75 -1.30 -0.20 -0.30 0.40 -0.40 0.85 -0.20 1 0.75 0.80 -1.75 0.25 -3.60 -0.70z"/>
  <path d="M5.80 35.65 c-0.30 -0.75 -0.40 -0.75 -0.80 -0.15 -0.40 0.65 -0.50 0.65 -0.50 -0.10 0 -0.45 -0.25 -0.90 -0.55 -1 -0.45 -0.15 -0.40 -0.70 0.10 -2.05 0.75 -2.15 1.45 -2.40 1.45 -0.55 0 0.70 0.60 2.05 1.30 3 1.25 1.60 1.25 1.70 0.30 1.70 -0.55 0 -1.15 -0.40 -1.30 -0.85z"/>
  <path d="M22.80 35.05 c0.15 -0.70 0.65 -1.90 1 -2.75 l0.65 -1.55 0.05 1.55 c0 0.90 -0.45 2.10 -1.05 2.75 l-1 1.20 0.35 -1.20z"/>
  <path d="M25 33.30 c0 -0.40 0.25 -0.90 0.50 -1.05 0.30 -0.15 0.50 -0.80 0.50 -1.40 0 -0.60 0.40 -1.55 0.80 -2.10 0.75 -0.95 0.80 -0.90 0.45 0.75 -0.40 1.80 -1.60 4.50 -2 4.50 -0.15 0 -0.25 -0.30 -0.25 -0.70z"/>
  <path d="M19 30 c0 -0.65 1.50 -0.65 2.50 0 0.55 0.35 0.35 0.50 -0.85 0.50 -0.90 0 -1.65 -0.20 -1.65 -0.50z"/>
  <path d="M24 28.75 c0 -0.40 -0.20 -0.75 -0.50 -0.75 -1.20 0 -0.35 -4.85 0.95 -5.15 0.75 -0.20 0.75 -0.25 0 -0.30 -0.45 0 -1 -0.60 -1.15 -1.30 -0.35 -1.45 0 -2.40 0.80 -1.95 0.30 0.20 0.30 -0.10 -0.05 -0.75 -0.55 -0.95 -0.45 -1.05 0.65 -1.05 0.70 0 2.05 -0.70 3.05 -1.55 0.95 -0.85 1.75 -1.30 1.75 -1 0 0.30 -0.20 0.55 -0.45 0.55 -0.25 0 -0.85 1.20 -1.25 2.65 -0.45 1.40 -1.05 3.35 -1.35 4.25 -0.70 2.10 -0.30 2.55 1.15 1.30 l1.10 -0.95 -0.85 1.25 c-0.45 0.65 -0.85 1.60 -0.85 2.10 0 0.45 -0.45 1.10 -1 1.40 -0.55 0.30 -1 0.85 -1 1.25 0 0.40 -0.20 0.75 -0.50 0.75 -0.25 0 -0.50 -0.35 -0.50 -0.75z m0.55 -3.10 c-0.45 -0.80 -0.50 -0.70 -0.55 0.60 0 1.05 0.15 1.30 0.55 0.90 0.40 -0.40 0.40 -0.80 0 -1.50z"/>
  <path d="M12 28.50 c0 -0.25 -0.30 -0.50 -0.70 -0.50 -1.20 0 -1.45 -0.90 -1.05 -3.80 0.25 -2.20 0.55 -2.85 1.40 -3.20 l1.10 -0.45 -1.15 0 c-0.60 -0.05 -1.25 -0.40 -1.40 -0.80 -0.20 -0.40 -0.60 -0.75 -1 -0.75 -0.50 0 -0.55 0.30 -0.20 1.30 0.30 0.70 0.50 1.95 0.50 2.75 0 2 -1.30 1.90 -1.75 -0.10 -0.25 -1 -0.50 -1.35 -0.75 -1 -0.20 0.35 -0.50 -0.90 -0.70 -2.75 -0.20 -2.10 -0.15 -3.55 0.20 -3.90 0.35 -0.35 0.50 -0.25 0.50 0.30 0 0.45 0.35 0.95 0.80 1.10 0.75 0.30 0.75 -0.20 -0.15 -2.55 -0.45 -1.15 0.35 -0.70 1.95 1.10 1.10 1.25 1.80 1.70 2.45 1.50 1.20 -0.40 1.20 0.10 0.10 1.45 -0.90 1.05 -0.90 1.05 0.15 0.15 1.15 -0.95 1.80 -0.70 1.35 0.50 -0.25 0.65 -0.15 0.65 0.75 0.20 0.95 -0.50 1.10 -0.45 1.10 0.30 0 0.50 -0.35 1.35 -0.75 1.85 -0.85 1.15 -1 2.30 -0.25 2.30 0.30 0 0.50 -0.30 0.50 -0.70 0 -0.40 0.25 -0.90 0.60 -1.10 0.40 -0.25 0.45 0.15 0.20 1.60 -0.25 1.05 -0.45 2.50 -0.45 3.15 -0.10 0.90 -0.55 1.40 -1.70 1.90 -1 0.40 -1.65 0.45 -1.65 0.15z m0.90 -4.55 l-0.25 -1.20 -0.50 1.25 c-0.60 1.40 -0.30 2.35 0.45 1.60 0.25 -0.25 0.40 -1 0.30 -1.65z"/>
  <path d="M19.50 27.60 c0 -0.50 2.05 -1.75 2.35 -1.40 0.45 0.40 -0.85 1.80 -1.65 1.80 -0.40 0 -0.70 -0.15 -0.70 -0.40z"/>
  <path d="M17.15 25.15 c-0.65 -0.25 -0.60 -1.05 0.15 -6 0.35 -2.30 1.70 -2.20 1.70 0.10 0 1.20 -0.25 1.75 -0.75 1.75 -0.40 0 -0.75 0.35 -0.75 0.75 0 0.90 0.80 1 1.15 0.15 0.15 -0.35 0.30 -0.15 0.30 0.45 0.05 0.60 0.20 1.40 0.35 1.80 0.25 0.75 -1.05 1.35 -2.15 1z"/>
  <path d="M30 23.70 c0 -0.95 1.90 -3.70 2.60 -3.70 0.60 0 -0.15 1.80 -1.35 3.30 -1.10 1.30 -1.20 1.35 -1.25 0.40z"/>
  <path d="M2.50 20.90 c0 -0.35 -0.15 -1.50 -0.30 -2.50 -0.20 -1.10 -0.15 -1.90 0.15 -1.90 0.25 0 0.75 0.85 1.10 1.90 0.35 1 0.75 2.15 0.85 2.50 0.20 0.35 -0.10 0.60 -0.75 0.60 -0.60 0 -1.05 -0.30 -1.05 -0.60z"/>
  <path d="M21.05 19.65 c-0.05 -0.60 0.20 -1.25 0.45 -1.40 0.60 -0.35 0.60 0.10 0 1.50 -0.40 0.95 -0.45 0.95 -0.45 -0.10z"/>
  <path d="M31.05 17.75 c0 -0.80 0.20 -1.85 0.45 -2.25 0.40 -0.60 0.50 -0.50 0.45 0.50 0 0.70 -0.20 1.70 -0.45 2.25 -0.35 0.85 -0.45 0.80 -0.45 -0.50z"/>
  <path d="M32.85 15.75 c0.20 -2.20 0.10 -3.25 -0.25 -3.25 -0.30 0 -0.70 0.25 -0.85 0.50 -0.15 0.30 -0.55 0.50 -0.80 0.50 -0.25 0 -0.10 -0.55 0.35 -1.25 1 -1.50 1.50 -1.55 2.25 -0.20 0.60 1.15 0.15 6.95 -0.60 6.95 -0.20 0 -0.30 -1.45 -0.10 -3.25z"/>
  <path d="M24.50 15.50 c0.30 -0.55 0.85 -1 1.20 -1 0.45 0 0.60 0.35 0.45 1 -0.15 0.55 -0.70 1 -1.25 1 -0.80 0 -0.85 -0.15 -0.40 -1z"/>
  <path d="M15.10 15.20 c-0.30 -0.35 -0.60 -1.55 -0.60 -2.70 0 -1.80 0.15 -2 1.20 -2 0.65 0 1.30 -0.35 1.50 -0.75 0.15 -0.45 0.95 -0.75 2.05 -0.75 l1.80 0 -0.15 2.10 c-0.10 1.55 -0.40 2.20 -1 2.30 -0.65 0.10 -0.90 -0.15 -0.90 -0.90 0 -1.45 -0.85 -0.80 -1.25 0.90 -0.35 1.75 -1.75 2.75 -2.65 1.80z"/>
  <path d="M22.50 13.90 c0 -1 -0.20 -2 -0.50 -2.15 -0.65 -0.40 -0.65 -3.25 0.05 -3.25 0.35 0 0.40 0.55 0.20 1.55 -0.25 1.15 -0.20 1.50 0.25 1.20 0.30 -0.20 0.50 -1.05 0.45 -1.95 -0.20 -2.80 0 -3.25 1.45 -3.45 1.30 -0.20 1.30 -0.20 -0.20 -0.30 -1.70 -0.05 -2.20 -0.90 -2.20 -3.90 0 -1.35 0.20 -1.65 1.05 -1.65 0.80 0 1 0.25 0.80 1 -0.30 1.25 0.55 1.90 0.95 0.75 0.50 -1.20 1.20 0.05 1.20 2.15 0 1 0.25 1.60 0.70 1.60 0.50 0 0.60 -0.55 0.45 -2.20 l-0.25 -2.15 1.90 -0.30 c3.25 -0.55 3.25 -0.55 2.40 1.75 -0.40 1.20 -0.80 3.70 -0.90 5.65 -0.20 4 -0.60 5.25 -1.65 5.25 -0.50 0 -0.65 -0.45 -0.45 -1.85 0.20 -1.30 0.15 -1.50 -0.10 -0.65 -0.25 0.80 -1.15 1.65 -2.55 2.30 -1.15 0.55 -2.35 1.35 -2.60 1.75 -0.30 0.50 -0.45 0.15 -0.45 -1.15z m4.05 -4.90 l1.20 -0.95 -1.60 -0.05 c-1.30 0 -1.65 0.20 -1.65 1 0 1.25 0.55 1.25 2.05 0z m3.45 -2.65 c0 -1.05 -0.90 0.35 -1.25 1.90 l-0.35 1.50 0.80 -1.45 c0.45 -0.75 0.80 -1.65 0.80 -1.95z"/>
  <path d="M2 12.75 c0 -1.15 0.25 -1.75 0.70 -1.75 0.40 0 0.60 0.45 0.55 1.15 -0.05 0.60 -0.15 1.40 -0.20 1.75 -0.15 1.40 -1.05 0.45 -1.05 -1.15z"/>
  <path d="M6.60 13 c0 -0.95 0.10 -1.35 0.25 -0.85 0.10 0.45 0.10 1.25 0 1.75 -0.15 0.45 -0.25 0.05 -0.25 -0.90z"/>
  <path d="M12.10 12.85 c-0.30 -0.35 -1.70 -0.95 -3.10 -1.30 -1.35 -0.35 -2.50 -0.85 -2.50 -1.10 0 -0.25 1.45 -0.45 3.25 -0.45 l3.25 0 0 1.75 c0 1.90 -0.10 2.05 -0.90 1.10z"/>
  <path d="M10 8.50 c0 -0.30 0.50 -0.40 1.40 -0.20 1.20 0.35 1.30 0.30 0.65 -0.45 -0.35 -0.50 -1 -0.85 -1.35 -0.85 -0.40 0 -0.70 -0.35 -0.70 -0.75 0 -0.55 0.55 -0.75 1.80 -0.75 1.70 0 1.75 0.05 1.60 1.65 -0.15 1.40 -0.35 1.60 -1.75 1.75 -0.95 0.10 -1.65 -0.05 -1.65 -0.40z"/>
  <path d="M6 6.80 c0 -0.95 0.20 -1.15 1 -0.95 1.10 0.30 1.40 -0.60 0.40 -1 -0.35 -0.15 -0.05 -0.30 0.75 -0.30 1.25 -0.05 1.35 0.10 1.35 1.75 0 1.65 -0.10 1.75 -0.85 1.15 -0.55 -0.50 -0.70 -0.50 -0.45 -0.05 0.25 0.40 -0.05 0.60 -0.90 0.60 -1.05 0 -1.30 -0.25 -1.30 -1.20z"/>
  <path d="M11.50 1.75 c0 -1.65 0.10 -1.75 1.75 -1.75 1.65 0 1.75 0.10 1.75 1.75 0 1.65 -0.10 1.75 -1.75 1.75 -1.65 0 -1.75 -0.10 -1.75 -1.75z"/>
 </g>
 <g fill="#52435d">
  <path d="M3.85 39.65 c-0.20 -0.15 -0.35 -0.95 -0.35 -1.75 0 -0.75 -0.25 -1.40 -0.55 -1.40 -0.40 0 -0.40 -0.20 -0.10 -0.60 0.30 -0.35 0.55 -1 0.55 -1.40 0 -0.40 0.35 -1.65 0.75 -2.75 0.60 -1.55 0.85 -1.80 1.10 -1.15 0.20 0.45 0.20 1.10 0 1.40 -0.20 0.30 0.35 1.45 1.20 2.50 2.30 2.85 3.20 5.50 1.85 5.50 -0.35 0 -1.15 -1.15 -1.75 -2.55 -1.25 -2.85 -1.85 -2.95 -1.35 -0.20 0.20 1.05 0.65 1.75 1.05 1.75 0.40 0 0.75 0.25 0.75 0.50 0 0.55 -2.65 0.70 -3.15 0.15z"/>
  <path d="M24.25 39.50 c-0.15 -0.25 0.05 -0.50 0.50 -0.50 0.40 0 0.90 -0.35 1.05 -0.75 0.50 -1.20 1.10 -0.85 0.80 0.50 -0.20 1.25 -1.75 1.75 -2.35 0.75z"/>
  <path d="M32 39.50 c0 -0.25 -0.40 -0.50 -0.95 -0.50 -0.50 0 -1.20 -0.35 -1.60 -0.80 -0.80 -0.95 -0.85 -5.10 -0.05 -6.45 0.50 -0.85 0.55 -0.70 0.60 1.35 0 2.05 0.25 2.60 2 4.40 2.30 2.35 2.35 2.50 1 2.50 -0.55 0 -1 -0.20 -1 -0.50z"/>
  <path d="M12.25 36 c-0.90 -1 -0.85 -1 0.90 -1 1.50 0 1.85 0.20 1.85 1 0 0.65 -0.35 1 -0.90 1 -0.55 0 -1.35 -0.45 -1.85 -1z"/>
  <path d="M20 36.45 c0 -0.30 -0.35 -0.40 -0.80 -0.25 -0.65 0.25 -0.75 0.05 -0.45 -1.05 0.60 -2.45 2 -3.45 2.40 -1.75 0.15 0.70 0.30 0.65 0.75 -0.40 0.40 -0.90 0.55 -1 0.55 -0.35 0.05 1.30 -1.30 4.35 -1.90 4.35 -0.30 0 -0.55 -0.25 -0.55 -0.55z"/>
  <path d="M23.20 34.25 c0.20 -0.80 0.60 -1.70 0.90 -2 0.35 -0.35 0.40 -0.05 0.20 1 -0.20 0.85 -0.60 1.75 -0.90 2 -0.35 0.35 -0.40 0.05 -0.20 -1z"/>
  <path d="M10.25 32.90 c-1.85 -8.15 -1.85 -7.80 -0.75 -8.90 0.55 -0.55 1.20 -1 1.45 -1 0.25 0 0.70 -0.30 1 -0.70 0.45 -0.55 0.40 -0.75 -0.25 -1 -1.65 -0.65 -2.20 -0.30 -2.20 1.20 0 1.85 -1.25 2.05 -1.70 0.30 -0.15 -0.65 -0.45 -1.60 -0.65 -2.10 -0.25 -0.70 -0.10 -0.80 1.05 -0.50 1.30 0.30 1.35 0.25 1.20 -1.30 -0.10 -0.90 -0.35 -1.60 -0.65 -1.55 -0.25 0.05 -0.55 -0.75 -0.65 -1.75 l-0.10 -1.80 1.65 1.60 c1.10 1.10 1.95 1.50 2.50 1.30 1.10 -0.40 1.10 0.25 0 1.10 -0.50 0.35 -0.70 0.80 -0.45 1.05 0.25 0.20 0.55 0.10 0.65 -0.20 0.30 -0.90 1.15 -0.80 1.15 0.05 0 0.50 0.35 0.60 1.10 0.40 0.80 -0.20 1 -0.10 0.75 0.45 -1 2.45 -1.70 3.40 -2.30 3.30 -0.75 -0.10 -1.70 2.45 -1.25 3.25 0.45 0.65 1.20 -0.05 1.20 -1.15 0 -0.55 0.40 -1.15 0.90 -1.30 0.45 -0.20 1.15 -0.70 1.50 -1.10 0.55 -0.70 0.60 -0.60 0.30 0.70 -0.20 0.85 -0.40 2.15 -0.40 3 -0.05 1.30 -0.30 1.55 -2.40 2.25 -1.65 0.50 -2.40 1 -2.40 1.65 0 1.15 0.75 1.10 2 -0.15 1 -1 3.55 -1.30 5.90 -0.70 1.85 0.50 1.25 1.20 -1.10 1.20 -3.20 0 -3.85 0.35 -3.30 1.75 0.55 1.45 0.25 1.75 -1.80 1.75 -1.35 0 -1.75 -0.25 -1.95 -1.10z"/>
  <path d="M7.10 29 c-0.35 -0.60 -0.50 -1.30 -0.30 -1.60 0.30 -0.50 1.65 1.25 1.70 2.25 0 0.70 -0.75 0.35 -1.40 -0.65z"/>
  <path d="M23.55 23.30 c-0.05 -2.25 0.15 -3.10 0.85 -3.60 0.50 -0.40 0.60 -0.65 0.25 -0.70 -1.10 0 -0.70 -1 0.40 -1 0.55 0 0.85 0.25 0.70 0.50 -0.15 0.30 -0.05 0.50 0.30 0.50 0.40 0 0.45 0.70 0.25 2.40 -0.55 3.70 -0.80 4.25 -1.55 3.60 -0.50 -0.40 -0.70 -0.35 -0.90 0.35 -0.15 0.50 -0.25 -0.45 -0.30 -2.05z"/>
  <path d="M17.10 25.05 c-0.90 -0.55 -0.20 -3.55 0.70 -3.20 0.75 0.25 1 2.90 0.30 3.35 -0.20 0.10 -0.65 0.05 -1 -0.15z"/>
  <path d="M3.60 22.75 c-1 -1.65 -1 -1.75 -0.15 -1.75 0.65 0 1 0.50 1.25 1.60 0.45 2.20 0.10 2.25 -1.10 0.15z"/>
  <path d="M30.20 23.25 c0.20 -0.75 0.65 -1.70 1.05 -2.05 0.35 -0.40 0.80 -1.35 1 -2.20 0.35 -1.70 1.25 -2.50 1.25 -1.15 0 1.20 -2.25 5.95 -3 6.40 -0.50 0.30 -0.55 0.05 -0.30 -1z"/>
  <path d="M2.10 18.15 c-0.60 -2.95 -0.20 -7.45 0.70 -8.20 0.55 -0.45 0.90 -0.40 1.50 0.10 0.70 0.60 0.70 0.70 -0.20 1 -0.75 0.30 -0.95 0.90 -1.05 3.55 -0.05 1.75 0.15 3.80 0.40 4.55 0.40 1.05 0.40 1.35 -0.15 1.35 -0.45 0 -0.90 -0.90 -1.20 -2.35z"/>
  <path d="M13.85 14.75 c-1.30 -1.65 -1.35 -1.75 -0.35 -1.75 0.55 0 1 -0.15 1 -0.35 -0.05 -0.65 -3.45 -2.15 -4.90 -2.15 -2.25 -0.05 -3.35 -1.05 -3.50 -3.25 -0.15 -1.60 -0.05 -1.90 0.45 -1.35 0.35 0.30 0.85 0.60 1.05 0.60 0.65 0 0.45 -1.40 -0.25 -1.65 -0.45 -0.15 -0.70 -1.10 -0.70 -2.55 -0.05 -1.90 0.10 -2.30 0.85 -2.30 0.70 0 0.95 0.55 1.20 2.70 0.35 2.50 0.45 2.70 2.20 3.25 1 0.35 3.20 0.55 4.85 0.45 3 -0.15 3 -0.15 3.15 -1.75 0.15 -1.45 0.35 -1.65 1.65 -1.65 1.10 0 1.45 -0.25 1.45 -1 0 -0.55 0.35 -1 0.75 -1 0.40 0 0.75 0.35 0.75 0.75 0 0.95 0.95 0.95 1.30 0 0.55 -1.35 1.20 -0.80 1.20 1 0 1.35 0.20 1.75 0.90 1.70 0.50 0 0.60 -0.15 0.25 -0.30 -0.35 -0.10 -0.65 -0.95 -0.65 -1.85 0 -1.60 0.05 -1.65 2.60 -1.95 1.40 -0.20 2.65 -0.25 2.75 -0.15 0.40 0.35 -1.45 3.80 -1.85 3.55 -0.30 -0.15 -0.50 0.15 -0.50 0.70 0 1.90 -0.60 2.50 -2.80 2.85 -1.20 0.15 -2.20 0.50 -2.20 0.70 0 0.25 -0.15 0.75 -0.30 1.20 -0.35 0.95 0.90 1.05 2.30 0.20 1.15 -0.70 1.75 -0.30 1.30 0.90 -0.25 0.65 -0.70 0.75 -2.05 0.55 -1.55 -0.25 -1.80 -0.15 -2.05 0.95 -0.15 0.65 -0.60 1.20 -1 1.20 -1.10 0 -0.85 -1.35 0.40 -2.20 0.60 -0.45 0.85 -0.80 0.50 -0.80 -0.30 0 -0.60 -0.40 -0.65 -0.85 0 -0.55 -0.25 -0.30 -0.60 0.60 -0.90 2.25 -2.85 5.75 -3.20 5.75 -0.15 0 -0.15 -1.10 0 -2.50 0.15 -1.35 0.20 -2.50 0.05 -2.50 -0.15 0 -0.65 0.95 -1.15 2.15 -0.50 1.15 -1.35 2.50 -1.90 2.95 -0.90 0.80 -1 0.80 -2.30 -0.85z m3.15 -2 c0 -0.40 -0.20 -0.75 -0.50 -0.75 -0.25 0 -0.50 0.35 -0.50 0.75 0 0.40 0.25 0.75 0.50 0.75 0.30 0 0.50 -0.35 0.50 -0.75z m-5.60 -4.40 c0.90 0.20 1.05 0.10 0.80 -0.55 -0.35 -0.95 -2 -1.10 -2.35 -0.15 -0.15 0.45 -0.40 0.40 -1.10 -0.15 -0.85 -0.70 -0.85 -0.70 -0.25 0.35 0.45 0.70 0.90 0.95 1.25 0.65 0.30 -0.25 1.05 -0.35 1.65 -0.15z"/>
  <path d="M20.80 16.05 c-0.20 -0.25 -0.10 -1 0.15 -1.65 0.45 -1.05 0.50 -1.05 0.50 0.50 0.05 1.60 -0.15 1.95 -0.65 1.15z"/>
  <path d="M33.05 14.65 c-0.05 -2.20 -0.40 -2.60 -1.45 -1.55 -0.30 0.30 -0.70 0.45 -0.85 0.35 -0.15 -0.15 0.30 -0.80 1 -1.45 l1.20 -1.15 0.55 1.45 c0.40 1 0.40 1.95 0.10 2.95 -0.50 1.50 -0.50 1.45 -0.55 -0.60z"/>
  <path d="M10.65 15.15 c-0.85 -0.30 -0.80 -1.15 0.05 -1.15 0.40 0 0.80 0.35 1 0.75 0.30 0.75 0.05 0.85 -1.05 0.40z"/>
  <path d="M29 12.65 c0 -0.65 0.25 -1.15 0.50 -1.15 0.65 0 0.65 0.55 0 1.50 -0.40 0.60 -0.50 0.55 -0.50 -0.35z"/>
  <path d="M9.50 3.25 c0 -0.95 0.25 -1.75 0.50 -1.75 0.30 0 0.50 -0.35 0.50 -0.75 0 -0.55 0.60 -0.75 2.50 -0.75 2.45 0 2.50 0.05 2.50 1.50 0 1.25 -0.20 1.50 -1.25 1.50 -0.90 0 -1.25 0.25 -1.25 1 0 0.80 -0.35 1 -1.75 1 -1.65 0 -1.75 -0.10 -1.75 -1.75z"/>
 </g>
 <g fill="#f50301">
  <path d="M25 17.65 c0.70 -0.15 1.65 -0.60 2.15 -1 0.45 -0.45 0.85 -0.60 0.85 -0.35 0 0.95 -1.25 1.70 -2.70 1.65 -1.40 -0.10 -1.40 -0.10 -0.30 -0.30z"/>
  <path d="M8.80 16.20 c-0.45 -0.40 -0.80 -1.25 -0.80 -1.85 0 -1.05 0.05 -1.05 0.85 0.15 0.45 0.70 1.20 1.50 1.65 1.85 0.65 0.55 0.65 0.60 -0.10 0.65 -0.45 0 -1.20 -0.35 -1.60 -0.80z"/>
  <path d="M24.10 15.90 c0.25 -0.75 1.75 -1.70 2.15 -1.35 0.15 0.20 0.15 0.70 -0.05 1.15 -0.35 0.90 -2.40 1.15 -2.10 0.20z"/>
  <path d="M10.30 14.70 c-0.85 -0.85 -1.05 -1.70 -0.40 -1.70 0.50 0 2.10 1.65 2.10 2.15 0 0.60 -0.90 0.35 -1.70 -0.45z"/>
  <path d="M22.50 15 c0 -1.10 1 -2 2.25 -1.95 0.95 0 0.95 0.05 -0.10 0.45 -0.60 0.25 -1.30 0.85 -1.60 1.35 -0.40 0.70 -0.50 0.75 -0.55 0.15z"/>
  <path d="M12.25 13 c-0.50 -0.55 -0.80 -1.10 -0.65 -1.25 0.15 -0.15 0.65 0.20 1.15 0.75 0.50 0.55 0.80 1.10 0.65 1.25 -0.15 0.15 -0.65 -0.20 -1.15 -0.75z"/>
 </g>
 <g fill="#5b496f">
  <path d="M0 39.70 c0 -0.15 0.65 -0.95 1.50 -1.85 l1.50 -1.60 0 1.90 c0 1.75 -0.10 1.85 -1.50 1.85 -0.80 0 -1.50 -0.10 -1.50 -0.30z"/>
  <path d="M3.50 38.25 c0 -0.95 0.25 -1.75 0.50 -1.75 0.30 0 0.50 -0.85 0.50 -1.85 l0 -1.85 1.65 1.70 c0.95 0.95 2.10 2.35 2.60 3.15 0.45 0.75 1.30 1.35 1.80 1.35 0.55 0 0.95 0.25 0.95 0.55 0 0.40 -0.55 0.45 -1.55 0.25 -0.85 -0.15 -1.75 -0.30 -2 -0.30 -0.45 0 -1.95 -2.90 -1.95 -3.85 0 -0.35 -0.25 -0.65 -0.55 -0.65 -0.40 0 -0.50 0.80 -0.25 2.50 0.30 2.30 0.25 2.50 -0.70 2.50 -0.80 0 -1 -0.30 -1 -1.75z"/>
  <path d="M24.50 39.50 c0 -0.25 0.20 -0.50 0.50 -0.50 0.25 0 0.90 -0.95 1.45 -2.10 1 -2.10 1 -0.95 -0.05 1.75 -0.50 1.30 -1.90 1.90 -1.90 0.85z"/>
  <path d="M27 39.60 c0 -0.20 0.20 -0.60 0.45 -0.85 0.20 -0.30 0.70 -1.90 1.05 -3.65 0.75 -3.60 1.55 -4.55 1.40 -1.75 0 1.05 0.25 2.40 0.60 3 0.60 0.90 0.55 1.15 -0.15 1.90 -0.45 0.45 -0.85 1.05 -0.85 1.30 0 0.25 -0.55 0.45 -1.25 0.45 -0.70 0 -1.25 -0.20 -1.25 -0.40z"/>
  <path d="M12.30 36.05 c-1.85 -1.20 -2.65 -3.15 -2.80 -6.60 -0.25 -4.35 -0.10 -4.95 1 -4.95 0.75 0 1 -0.35 1 -1.25 0 -1 -0.25 -1.25 -1.25 -1.25 -0.90 0 -1.25 -0.25 -1.25 -0.95 0 -0.60 -0.40 -1.05 -1.10 -1.15 -1.20 -0.15 -2.20 -2.40 -1.70 -3.75 0.25 -0.65 0.60 -0.50 1.80 0.80 0.85 0.85 1.50 1.30 1.50 1 0 -0.30 -0.35 -0.85 -0.75 -1.25 -0.40 -0.45 -0.75 -1.35 -0.75 -2.10 l0.05 -1.35 0.85 1.40 c0.45 0.75 1.45 1.65 2.15 1.95 1.25 0.55 1.30 0.65 0.60 1.75 -0.70 1.05 -0.70 1.15 0.05 0.85 0.45 -0.15 0.80 -0.50 0.80 -0.75 0 -0.25 0.25 -0.45 0.55 -0.45 0.30 0 0.40 0.45 0.20 1 -0.35 1.15 -0.10 1.25 1.30 0.50 1.15 -0.65 1.30 0.10 0.20 1 -0.40 0.35 -0.75 1.05 -0.75 1.60 0 0.60 -0.30 0.90 -0.80 0.80 -1.10 -0.20 -2.45 2.90 -1.40 3.30 0.40 0.15 0.90 -0.20 1.25 -0.75 0.30 -0.60 0.85 -0.90 1.25 -0.75 0.50 0.20 0.70 -0.10 0.70 -0.95 0 -0.65 0.25 -1.35 0.55 -1.55 0.40 -0.20 0.45 0.05 0.15 0.85 -0.20 0.65 -0.40 1.95 -0.45 2.90 -0.15 1.80 -1 2.45 -3.60 2.65 -0.85 0.10 -1.15 0.40 -1.15 1.25 0 0.65 0.25 1.15 0.50 1.15 0.30 0 0.50 0.45 0.50 1.05 0 0.55 0.20 0.90 0.45 0.75 0.20 -0.15 0.30 -0.85 0.15 -1.55 -0.15 -0.80 0 -1.25 0.45 -1.25 0.35 0 0.45 0.15 0.30 0.30 -0.15 0.20 0.15 0.90 0.70 1.60 0.80 1 1.55 1.35 3.45 1.50 1.35 0.10 2.55 -0.05 2.75 -0.35 0.55 -0.90 1.40 -0.60 1.10 0.40 -0.15 0.70 -0.05 0.90 0.45 0.70 0.85 -0.30 0.90 0.55 0.15 1.90 -0.40 0.80 -0.65 0.90 -1.25 0.40 -0.50 -0.45 -0.85 -0.45 -1.40 0 -0.55 0.45 -0.75 0.35 -1 -0.55 l-0.30 -1.15 -0.95 1.15 c-1.15 1.35 -2.35 1.40 -4.25 0.15z"/>
  <path d="M23 35.05 c0 -0.85 0.60 -2.05 1 -2.05 0.50 0 0.05 1.90 -0.55 2.30 -0.25 0.15 -0.45 0.05 -0.45 -0.25z"/>
  <path d="M8.30 33.40 c-0.75 -2.70 -1.35 -6 -1.20 -6.20 0.35 -0.30 1.75 3.25 2.10 5.20 0.25 1.50 -0.50 2.35 -0.90 1z"/>
  <path d="M25 33.75 c0 -0.30 0.20 -0.75 0.45 -1 0.25 -0.30 0.55 -0.95 0.70 -1.50 0.25 -1 0.25 -0.95 0.30 0.05 0 0.55 -0.30 1.45 -0.70 2 -0.40 0.50 -0.75 0.70 -0.75 0.45z"/>
  <path d="M18.50 30 c0 -0.65 1.50 -0.65 2.50 0 0.55 0.35 0.35 0.50 -0.85 0.50 -0.90 0 -1.65 -0.20 -1.65 -0.50z"/>
  <path d="M17.15 25.05 c-0.30 -0.20 -0.30 -1.75 0 -4.20 0.40 -3.10 0.70 -3.85 1.30 -3.75 1.20 0.25 1.15 7.75 0 8.05 -0.45 0.15 -1.05 0.10 -1.30 -0.10z"/>
  <path d="M24.55 24.20 c-0.30 -0.75 -0.50 -1.45 -0.35 -1.55 0.15 -0.15 0.05 -0.80 -0.20 -1.45 -0.35 -0.80 -0.30 -1.15 0.10 -1.05 0.30 0.05 0.65 -0.20 0.75 -0.50 0.15 -0.35 0 -0.65 -0.30 -0.65 -0.30 0 -0.55 -0.35 -0.55 -0.75 0 -0.45 0.45 -0.75 1.10 -0.75 0.60 0 1.50 -0.35 2 -0.85 0.50 -0.45 0.90 -0.55 0.90 -0.25 0 0.30 -0.55 0.95 -1.25 1.40 -1.15 0.75 -1.20 0.90 -0.45 1.45 0.75 0.55 0.75 0.80 0 3.40 -0.45 1.55 -0.90 2.85 -1 2.85 -0.05 0 -0.40 -0.60 -0.75 -1.30z"/>
  <path d="M30 24.15 c0 -0.30 0.60 -1.75 1.35 -3.15 0.85 -1.70 1.40 -3.65 1.55 -5.60 0.25 -3 0.20 -3 -0.95 -2.65 l-1.20 0.40 0.95 -1.10 1 -1.10 0.60 1.20 c1.15 2.15 -0.30 8.85 -2.50 11.60 -0.40 0.55 -0.80 0.75 -0.80 0.40z"/>
  <path d="M3.10 21.90 c-0.55 -0.75 -1.60 -6.45 -1.25 -7 0.55 -0.95 1 -0.25 1.05 1.70 0.05 1.15 0.45 2.60 0.85 3.20 1.25 1.95 0.70 3.75 -0.65 2.10z"/>
  <path d="M14.50 15.50 c0 -0.30 -0.75 -1.20 -1.60 -2 -0.90 -0.80 -1.35 -1.50 -1 -1.50 0.75 0 0.80 -2 0.05 -2 -0.35 0 -0.85 0.35 -1.20 0.80 -0.45 0.65 -1 0.75 -2.40 0.50 -1.85 -0.35 -2.50 -1.40 -1.20 -2 0.50 -0.25 0.50 -0.35 0 -0.60 -0.95 -0.45 -0.85 -2.75 0.10 -2.40 0.45 0.20 0.75 0 0.75 -0.50 0 -0.45 0.40 -0.80 1 -0.80 0.85 0 1 -0.35 1 -2.55 0 -2.45 0.05 -2.50 1.40 -2.35 0.80 0.10 1.50 0.55 1.70 1.15 0.30 0.95 0.30 0.95 0.65 -0.10 0.45 -1.45 2.25 -1.55 2.25 -0.15 0 0.55 -0.35 1 -0.75 1 -0.45 0 -0.75 0.45 -0.75 1.20 0 0.80 -0.35 1.35 -1 1.55 -1.45 0.45 -1.25 1.75 0.25 1.75 0.90 0 1.25 0.25 1.25 0.95 0 0.50 0.35 1.05 0.75 1.25 0.55 0.20 0.75 -0.10 0.75 -1.20 0 -1.40 0.15 -1.50 1.75 -1.50 1.60 0 1.75 0.15 1.75 1.40 0 1.35 -1.80 5.35 -3.30 7.50 -0.85 1.10 -2.20 1.50 -2.20 0.60z m2.50 -2.75 c0 -0.70 -0.20 -1.25 -0.50 -1.25 -0.25 0 -0.50 0.55 -0.50 1.25 0 0.70 0.25 1.25 0.50 1.25 0.30 0 0.50 -0.55 0.50 -1.25z m-2.60 -3.25 c-0.35 -0.55 -1.05 -1.15 -1.50 -1.30 -0.50 -0.15 -0.90 -0.45 -0.90 -0.70 0 -0.25 -0.90 -0.40 -2 -0.35 -2.15 0.05 -2.45 0.35 -1.20 1.40 0.60 0.50 0.85 0.50 1.15 0 0.30 -0.45 0.95 -0.30 2.60 0.65 1.20 0.65 2.25 1.20 2.35 1.25 0.05 0.05 -0.15 -0.40 -0.50 -0.95z"/>
  <path d="M20.75 14.85 c0.55 -1.75 1.25 -2.20 1.25 -0.75 0 0.70 -0.35 1.45 -0.80 1.60 -0.60 0.25 -0.70 0.05 -0.45 -0.85z"/>
  <path d="M19.35 12.65 c0.35 -2.40 1 -3.65 1.90 -3.65 0.35 0 0.80 -0.30 0.95 -0.60 0.15 -0.35 0.10 0.05 -0.05 0.85 -0.40 1.95 -2.05 5.25 -2.65 5.25 -0.25 0 -0.30 -0.85 -0.15 -1.85z"/>
  <path d="M23 13.50 c0 -0.50 -0.30 -1 -0.60 -1.15 -1.05 -0.40 0.55 -1.70 3.10 -2.55 1.20 -0.40 2.30 -0.65 2.40 -0.55 0.70 0.65 -1.25 3.40 -2.95 4.25 -1.90 0.90 -1.95 0.90 -1.95 0z"/>
  <path d="M2.15 12.25 c0.15 -2.15 1.15 -3.35 1.85 -2.25 0.35 0.55 0.25 0.80 -0.30 0.90 -0.40 0.10 -0.70 0.45 -0.65 0.75 0.15 1.30 -0.10 2.35 -0.50 2.35 -0.30 0 -0.45 -0.80 -0.40 -1.75z"/>
  <path d="M28.35 13.15 c-0.30 -0.55 1.15 -5.15 1.60 -5.15 0.35 0 0.25 2 -0.25 4.40 -0.20 1.05 -0.95 1.50 -1.35 0.75z"/>
  <path d="M23 9 c0 -0.55 0.25 -1 0.50 -1 0.30 0 0.50 0.45 0.50 1 0 0.55 -0.20 1 -0.50 1 -0.25 0 -0.50 -0.45 -0.50 -1z"/>
  <path d="M24.70 6.65 c-0.75 -1.25 -0.30 -2.15 1.05 -2.15 0.65 0 1.35 -0.20 1.50 -0.50 0.15 -0.25 -0.05 -0.50 -0.45 -0.50 -0.60 0 -0.80 -0.50 -0.80 -1.75 l0 -1.75 2.75 0 c3 0 3.20 0.25 2.25 2.80 l-0.55 1.35 -1.35 -1.20 c-1 -0.90 -1.10 -0.95 -0.45 -0.15 0.95 1.15 1.10 2.55 0.35 3.70 -0.40 0.60 -0.65 0.65 -1.50 0.10 -0.85 -0.50 -1.05 -0.50 -1.30 0.15 -0.40 1 -0.85 0.95 -1.50 -0.10z"/>
 </g>
 <g fill="#5e548a">
  <path d="M28.05 38.05 c0.80 -2.25 1.95 -2.40 1.95 -0.30 0 1.50 -0.15 1.75 -1.20 1.75 -1.15 0 -1.20 -0.10 -0.75 -1.45z"/>
  <path d="M6.80 37.90 c-0.75 -2.90 -0.05 -3.15 1.60 -0.65 l1.10 1.75 -1.20 0 c-0.80 0 -1.30 -0.35 -1.50 -1.10z"/>
  <path d="M14.75 36.50 c-0.15 -0.25 -0.60 -0.35 -1 -0.15 -0.40 0.15 -0.75 0.05 -0.75 -0.25 0 -0.25 -0.45 -0.60 -1 -0.75 -0.55 -0.15 -1.35 -1.05 -1.75 -2.05 -0.85 -2 -1 -5.55 -0.25 -5.05 0.30 0.15 0.50 1.20 0.50 2.30 0 1.60 0.15 1.95 1 1.95 0.55 0 1 0.25 1 0.50 0 0.30 0.60 0.50 1.40 0.50 0.75 0 1.85 0.15 2.45 0.30 1.10 0.30 1.10 0.35 0.30 1.75 -0.90 1.50 -1.40 1.75 -1.90 0.95z"/>
  <path d="M8.40 31.70 c-0.25 -0.20 -0.40 -0.80 -0.40 -1.40 0 -0.70 0.15 -0.85 0.55 -0.45 0.30 0.30 0.45 0.95 0.35 1.40 -0.05 0.45 -0.30 0.65 -0.50 0.45z"/>
  <path d="M24.60 23.90 c-1.20 -1.20 -0.60 -3.45 1.10 -4.05 0.85 -0.35 0.90 -0.15 0.65 1.70 -0.30 2.40 -0.90 3.20 -1.75 2.35z"/>
  <path d="M30.50 22.55 c0 -0.30 0.20 -0.55 0.50 -0.55 0.25 0 0.60 -0.55 0.80 -1.25 0.15 -0.70 0.50 -1.25 0.75 -1.25 0.65 0 -0.70 3.15 -1.45 3.40 -0.35 0.10 -0.60 -0.05 -0.60 -0.35z"/>
  <path d="M17 20.90 c0 -1.50 0.65 -2.90 1.30 -2.90 0.45 0 0.70 0.60 0.70 1.75 0 1.40 -0.20 1.75 -1 1.75 -0.55 0 -1 -0.30 -1 -0.60z"/>
  <path d="M10.50 20.85 c0 -0.10 0.65 -0.75 1.40 -1.50 l1.45 -1.35 -0.25 1.50 c-0.15 1.20 -0.45 1.50 -1.40 1.50 -0.65 0 -1.20 -0.05 -1.20 -0.15z"/>
  <path d="M9.15 19.60 c-1.45 -0.15 -1.65 -0.35 -1.65 -1.70 0 -1.35 0.10 -1.45 0.85 -0.85 0.75 0.65 0.75 0.60 0.25 -0.40 -0.35 -0.60 -0.60 -1.60 -0.60 -2.25 0.05 -1.15 0.05 -1.10 0.75 0.20 0.40 0.70 1.40 1.60 2.20 1.95 1.30 0.60 1.40 0.80 0.85 1.45 -0.35 0.40 -0.75 1 -0.85 1.25 -0.10 0.30 -0.95 0.45 -1.80 0.35z"/>
  <path d="M24.35 18.65 c-0.65 -0.65 -0.35 -1.15 0.75 -1.15 0.60 0 1.50 -0.35 2 -0.85 0.50 -0.45 0.90 -0.60 0.90 -0.30 0 0.40 -2.65 2.65 -3.15 2.65 -0.10 0 -0.35 -0.15 -0.50 -0.35z"/>
  <path d="M6.35 18.15 c-0.55 -0.50 -0.40 -2.15 0.15 -2.15 0.30 0 0.50 0.55 0.50 1.25 0 1.30 -0.10 1.45 -0.65 0.90z"/>
  <path d="M20.85 16.40 c-0.45 -1.30 0.20 -2.90 1.20 -2.90 0.55 0 0.95 -0.35 0.95 -0.75 0 -0.45 0.40 -1.25 0.95 -1.80 0.85 -0.95 1 -0.95 1.75 -0.20 0.90 0.95 0.65 1.75 -0.60 1.75 -0.75 0 -0.75 0.10 -0.10 0.50 0.65 0.45 0.65 0.50 0 0.50 -0.40 0 -1.45 0.85 -2.30 1.85 -1.20 1.45 -1.60 1.65 -1.85 1.05z"/>
  <path d="M12.65 13.35 c-1.50 -1.50 -1.45 -1.85 0.35 -1.85 1.35 0 1.50 0.15 1.50 1.50 0 1.75 -0.35 1.85 -1.85 0.35z"/>
  <path d="M28.50 12.30 c0 -0.35 0.35 -0.95 0.75 -1.30 0.80 -0.65 1 -0.15 0.45 1.20 -0.40 1 -1.20 1.05 -1.20 0.10z"/>
  <path d="M6.30 9.90 c-0.40 -1.60 -0.35 -3.90 0.10 -3.90 1.30 0.05 1.75 1.10 1.65 3.65 -0.05 1.65 -1.30 1.80 -1.75 0.25z"/>
  <path d="M8.15 6 c-0.60 -1.40 -0.40 -1.95 0.40 -1.15 0.30 0.30 0.45 0.95 0.30 1.45 -0.15 0.85 -0.25 0.80 -0.70 -0.30z"/>
  <path d="M10.50 1.80 c0 -1 0.25 -1.80 0.50 -1.80 0.30 0 0.50 0.65 0.50 1.45 0 0.85 -0.20 1.65 -0.50 1.80 -0.30 0.20 -0.50 -0.40 -0.50 -1.45z"/>
  <path d="M12 2.95 c0 -0.25 0.25 -0.35 0.50 -0.20 0.30 0.15 0.50 0.10 0.50 -0.20 0 -0.25 -0.15 -0.55 -0.35 -0.70 -0.25 -0.10 -0.10 -0.10 0.20 -0.05 0.35 0.10 0.85 -0.25 1.10 -0.70 0.45 -0.70 0.50 -0.55 0.55 0.80 0 1.40 -0.15 1.60 -1.25 1.60 -0.70 0 -1.25 -0.25 -1.25 -0.55z"/>
 </g>
 <g fill="#6c5979">
  <path d="M1.50 39 c0 -0.60 0.50 -1.70 1.10 -2.50 0.60 -0.85 1.15 -1.90 1.20 -2.35 0.10 -0.50 0.35 -1.70 0.60 -2.65 l0.50 -1.75 0.05 1.80 c0.05 1.15 0.50 2.30 1.45 3.35 0.75 0.90 1.75 2.15 2.25 2.85 0.50 0.70 1.20 1.25 1.60 1.25 0.40 0 0.75 0.25 0.75 0.50 0 0.30 -0.65 0.50 -1.45 0.50 -1.15 0 -1.70 -0.40 -2.50 -1.80 -0.60 -0.95 -1.05 -2.10 -1.05 -2.50 0 -0.40 -0.20 -0.70 -0.50 -0.70 -0.25 0 -0.50 1.15 -0.50 2.50 l0 2.50 -1.75 0 c-1.45 0 -1.75 -0.20 -1.75 -1z"/>
  <path d="M25 39.65 c0.05 -0.50 1.95 -3 2 -2.55 0 0.70 -1.15 2.90 -1.60 2.90 -0.20 0 -0.40 -0.15 -0.40 -0.35z"/>
  <path d="M27.75 39.15 c0.20 -0.50 0.50 -1.30 0.60 -1.75 0.15 -0.50 0.40 -0.90 0.60 -0.90 0.20 0 0.25 -0.75 0.15 -1.70 -0.10 -0.95 0.05 -2.15 0.40 -2.65 0.45 -0.75 0.50 -0.60 0.25 0.90 -0.20 1.50 -0.05 2.15 1 3.35 0.70 0.80 1.25 1.95 1.25 2.55 0 0.90 -0.30 1.05 -2.30 1.05 -2 0 -2.25 -0.10 -1.95 -0.85z"/>
  <path d="M12.80 35.70 c-0.15 -0.40 -0.60 -0.70 -1 -0.70 -0.85 0 -2.30 -2.95 -2.30 -4.75 0 -1.70 -1.25 -6.60 -2.55 -10.15 -0.70 -1.90 -0.80 -2.90 -0.45 -3.50 0.40 -0.70 0.50 -0.60 0.55 0.65 0.05 1.25 0.10 1.30 0.30 0.35 0.25 -1.15 0.25 -1.15 1.25 -0.25 l1.05 0.90 -0.90 -1.40 c-1.10 -1.75 -0.60 -2.40 0.75 -0.95 0.60 0.60 1.50 1.10 2.10 1.10 0.95 0 1 0.10 0.30 0.90 -0.40 0.45 -0.90 1.30 -1.10 1.80 -0.30 0.85 -0.25 0.85 0.55 0.25 0.50 -0.40 1.15 -1 1.45 -1.40 0.90 -1.10 0.25 2.95 -0.85 5.35 -0.90 2 -0.90 3.10 0 3.10 0.20 0 0.70 -0.55 1.05 -1.25 0.85 -1.60 1.15 -1.55 1.85 0.25 0.50 1.40 0.50 1.50 -1.15 2 -0.95 0.35 -2.05 0.45 -2.45 0.30 -0.55 -0.20 -0.75 0.10 -0.75 1.15 0 0.80 0.35 1.55 0.75 1.75 0.45 0.15 0.75 0 0.75 -0.40 0 -0.35 0.55 -0.90 1.25 -1.20 1.65 -0.75 1.75 -0.75 1.75 0.15 0 0.45 -0.45 0.75 -1.25 0.75 -1.20 0 -1.20 0 -0.35 1.50 0.60 1 1.40 1.60 2.50 1.80 1.55 0.30 1.60 0.40 0.95 1.40 -0.85 1.25 -3.65 1.60 -4.05 0.50z"/>
  <path d="M18 34.95 c0 -1.05 0.25 -1.45 0.90 -1.45 0.50 0 1.10 -0.20 1.40 -0.45 0.25 -0.30 0.50 0.20 0.55 1.35 0.10 1.75 0 1.85 -1.35 1.90 -1.35 0.05 -1.50 -0.10 -1.50 -1.35z"/>
  <path d="M16.90 24.65 c-0.10 -0.25 0 -2.05 0.25 -4.05 0.35 -3 0.60 -3.60 1.30 -3.50 0.90 0.20 0.90 0.05 0.35 4.55 -0.25 2.30 -0.60 3.35 -1.05 3.35 -0.40 0 -0.75 -0.15 -0.85 -0.35z"/>
  <path d="M24.60 23.90 c-0.85 -0.85 -0.75 -3.40 0.20 -3.75 1.05 -0.40 1.90 0.60 1.45 1.70 -0.25 0.50 -0.35 1.15 -0.30 1.50 0.10 0.85 -0.70 1.20 -1.35 0.55z"/>
  <path d="M4 23.30 c0 -0.35 -0.30 -0.95 -0.70 -1.25 -0.70 -0.60 -1.65 -5.35 -1.45 -7.05 0.05 -0.40 0.20 -1.60 0.35 -2.70 0.25 -2.10 0.90 -3.10 1.75 -2.60 0.75 0.50 0.70 1.30 -0.15 1.30 -1.15 0 -1.40 5.85 -0.35 8.25 1.25 2.80 1.65 4.75 1.05 4.75 -0.25 0 -0.50 -0.30 -0.50 -0.70z"/>
  <path d="M30.35 23.15 c0.20 -0.50 0.60 -1.10 0.95 -1.40 0.30 -0.25 0.75 -1.15 0.95 -2 0.20 -0.80 0.50 -1.20 0.60 -0.85 0.30 0.75 -1.75 5.10 -2.40 5.10 -0.20 0 -0.25 -0.40 -0.10 -0.85z"/>
  <path d="M21.10 16.05 c-0.55 -0.35 -0.50 -0.80 0.30 -2.60 1.10 -2.40 2.60 -3.60 3.85 -3.15 1.35 0.55 0.65 1.95 -0.90 1.85 -1.15 -0.10 -1.35 0.10 -1.35 1.30 0 1.75 -1.05 3.15 -1.90 2.60z"/>
  <path d="M14.50 15.45 c0 -0.30 -0.35 -0.90 -0.85 -1.35 -0.75 -0.75 -0.70 -0.85 0.40 -1.15 1.10 -0.35 1.15 -0.35 0.10 -0.40 -0.60 -0.05 -1.15 -0.30 -1.25 -0.65 -0.15 -0.35 -1 -0.65 -1.95 -0.65 -4.15 -0.15 -4.45 -0.25 -4.45 -1.20 0 -0.55 0.30 -1.10 0.65 -1.20 0.35 -0.15 0.25 -0.30 -0.25 -0.30 -0.55 -0.05 -0.90 -0.45 -0.90 -1.05 0 -1.50 1.60 -1.05 2.45 0.65 0.50 1.05 0.85 1.25 1.35 0.80 0.70 -0.60 4.20 0.25 4.20 1.05 0 0.20 0.35 0.50 0.75 0.70 0.55 0.20 0.40 -0.20 -0.35 -1.20 -0.60 -0.85 -1.40 -1.50 -1.75 -1.50 -0.35 0 -0.65 -0.20 -0.65 -0.45 0 -0.70 -1.65 -1.15 -2.05 -0.50 -0.45 0.80 -1.25 0.20 -2.15 -1.65 -0.90 -1.80 -1 -2.90 -0.30 -2.90 0.30 0 0.50 -0.40 0.50 -0.95 0 -0.55 0.45 -1.05 1.15 -1.25 2.20 -0.60 2.45 -0.40 2.25 1.45 -0.10 0.95 0 1.75 0.20 1.75 0.20 0 0.40 -0.25 0.40 -0.55 0 -0.25 0.20 -0.40 0.40 -0.25 0.25 0.15 0.80 -0.40 1.30 -1.25 0.85 -1.45 0.90 -1.45 5.25 -1.45 l4.40 0 0.30 2.35 c0.15 1.45 0.05 2.70 -0.30 3.15 -0.50 0.65 -0.50 0.65 0.30 0.05 0.45 -0.35 0.85 -1.30 0.85 -2.10 0 -0.80 0.25 -1.45 0.50 -1.45 0.30 0 0.50 -0.45 0.50 -1 0 -0.90 0.35 -1 3 -1 2.85 0 3.90 0.55 2.25 1.20 -0.40 0.15 -0.75 0.60 -0.75 1.05 0 1 -0.45 0.95 -1.70 -0.15 -1.05 -0.85 -1.05 -0.85 -0.15 0.25 1.30 1.50 0.95 3.35 -0.65 3.55 -0.70 0.10 -1.45 0.55 -1.65 0.95 -0.40 0.60 -0.55 0.60 -1.15 -0.20 -0.60 -0.80 -0.65 -0.75 -0.70 0.95 0 2.05 -0.85 3.05 -1.10 1.30 -0.15 -0.90 -0.40 -0.55 -1.05 1.35 -0.50 1.40 -1.20 2.95 -1.60 3.45 -0.70 0.95 -0.75 0.90 -0.75 -0.55 0 -0.85 0.35 -2.50 0.75 -3.65 0.40 -1.15 0.75 -2.60 0.70 -3.20 -0.05 -0.55 -0.30 -0.05 -0.65 1.10 -0.30 1.20 -0.95 2.45 -1.45 2.80 -0.45 0.35 -0.85 1.10 -0.85 1.60 0 0.50 -0.25 1.30 -0.50 1.70 -0.40 0.60 -0.50 0.45 -0.50 -0.60 0 -0.80 -0.25 -1.40 -0.55 -1.40 -0.30 0 -0.50 0.75 -0.45 1.65 0.05 0.85 0.10 1.90 0.05 2.25 -0.05 0.75 -1.55 0.80 -1.55 0.05z"/>
  <path d="M31.65 12.15 c0.40 -0.45 1 -0.60 1.30 -0.45 0.95 0.60 0.60 1.05 -0.75 1.15 -1.20 0.05 -1.25 -0.05 -0.55 -0.70z"/>
 </g>
 <g fill="#7c6889">
  <path d="M1.50 38.90 c0 -0.55 0.50 -1.70 1.15 -2.55 0.60 -0.90 1.15 -1.95 1.20 -2.35 0.05 -0.40 0.30 -1.40 0.60 -2.25 0.40 -1.30 0.45 -1.05 0.45 1.75 -0.05 1.80 0.10 3.95 0.30 4.80 0.35 1.55 0.35 1.60 -1.65 1.60 -1.75 0.05 -2.05 -0.10 -2.05 -1z"/>
  <path d="M28.30 39.25 c-0.30 -0.90 0.85 -1.55 1.75 -0.95 0.45 0.25 0.50 0.05 0.35 -0.70 -0.20 -0.60 -0.15 -1.10 0.05 -1.10 0.70 0 2.05 1.80 2.05 2.65 0 1.15 -3.75 1.20 -4.20 0.10z"/>
  <path d="M6.30 36.70 c-0.20 -0.45 -0.20 -0.95 -0.05 -1.10 0.30 -0.30 1.75 0.90 1.75 1.45 0 0.80 -1.40 0.50 -1.70 -0.35z"/>
  <path d="M14.15 35.95 c-0.65 -0.25 -1.15 -0.65 -1.15 -0.90 0 -0.25 -0.40 -0.35 -0.95 -0.20 -0.70 0.15 -1.10 -0.20 -1.65 -1.70 -1.05 -2.50 -1.70 -9.15 -0.95 -9.15 0.30 0 0.55 -0.20 0.55 -0.50 0 -0.25 -0.45 -0.50 -1 -0.50 -0.75 0 -1 -0.35 -1 -1.25 0 -0.70 -0.20 -1.25 -0.40 -1.25 -0.70 0 -1.60 -3.10 -1.10 -3.95 0.35 -0.65 0.50 -0.50 0.55 0.70 0.05 0.85 0.15 1.15 0.30 0.65 0.30 -1.20 0.85 -1.15 1.85 0.25 0.50 0.60 0.40 0.25 -0.20 -0.75 -0.85 -1.50 -0.95 -1.90 -0.35 -1.90 0.40 0 1 0.35 1.35 0.75 0.35 0.40 1.10 0.75 1.70 0.75 0.90 0.05 0.95 0.10 0.30 0.65 -0.40 0.35 -1.05 1.25 -1.40 2.10 -0.65 1.45 -0.65 1.45 0.30 0.60 0.95 -0.85 1 -0.85 1.20 0.60 0.25 1.65 -0.95 5.20 -1.60 4.80 -0.25 -0.15 -0.35 0.90 -0.30 2.30 0.10 1.80 0.40 2.70 0.95 3.05 0.50 0.25 0.85 0.85 0.90 1.30 0.05 0.50 0.20 0.35 0.40 -0.40 l0.35 -1.25 0.90 1.65 c0.45 0.90 1.05 1.50 1.30 1.35 0.70 -0.45 1.20 1.05 0.65 1.90 -0.30 0.50 -0.70 0.60 -1.50 0.30z"/>
  <path d="M18.10 35.15 c0.10 -1 0.45 -1.45 1.30 -1.55 1.35 -0.20 1.50 1.20 0.25 2.20 -1.35 1 -1.75 0.85 -1.55 -0.65z"/>
  <path d="M13.25 30.05 c-0.15 -0.25 0.20 -0.65 0.80 -0.80 1.30 -0.45 4.45 0.15 4.45 0.75 0 0.65 -4.85 0.65 -5.25 0.05z"/>
  <path d="M11 27.75 c0 -0.40 0.30 -0.75 0.70 -0.75 0.35 0 1 -0.50 1.40 -1.10 l0.75 -1.10 0.65 1.20 c0.55 1 0.50 1.25 -0.30 1.85 -1.20 0.90 -3.20 0.85 -3.20 -0.10z"/>
  <path d="M17.20 21.15 c0.35 -4.10 0.45 -4.45 1.25 -3.95 0.30 0.20 0.50 1.90 0.40 4.05 -0.10 3.25 -0.20 3.75 -1 3.75 -0.85 0 -0.90 -0.35 -0.65 -3.85z"/>
  <path d="M24.50 23.30 c-0.75 -1.40 -0.40 -2.80 0.75 -2.80 0.85 0 1 1.30 0.20 1.80 -0.40 0.20 -0.40 0.45 -0.05 0.65 0.30 0.20 0.35 0.60 0.15 0.95 -0.25 0.45 -0.55 0.25 -1.05 -0.60z"/>
  <path d="M3.40 21.90 c-0.45 -0.35 -0.95 -1.65 -1.15 -2.90 l-0.30 -2.25 1.30 2.45 c1.40 2.65 1.45 3.70 0.15 2.70z"/>
  <path d="M2.20 13.50 c0.40 -3.35 0.85 -4.35 1.75 -3.80 0.75 0.50 0.70 1.35 -0.05 1.20 -0.40 -0.10 -0.75 0.85 -0.95 2.50 -0.50 3.85 -1.15 3.95 -0.75 0.10z"/>
  <path d="M14.70 15.25 c0.15 -0.40 0.05 -0.75 -0.20 -0.75 -0.30 0 -0.95 -0.45 -1.50 -1 l-1 -1 1 0 c0.55 0 1 -0.35 1 -0.75 0 -0.50 -0.50 -0.75 -1.60 -0.75 -2.10 0 -3.15 -0.65 -2.75 -1.70 0.45 -1.15 1.40 -1 3.60 0.45 1 0.75 2 1.15 2.15 1 0.40 -0.35 -1.95 -2.75 -2.75 -2.75 -0.35 0 -0.65 -0.25 -0.65 -0.50 0 -0.90 -2.60 -1.65 -3.05 -0.90 -0.30 0.45 -0.50 0.35 -0.70 -0.35 -0.20 -0.55 -0.55 -1.40 -0.80 -1.85 -1.10 -2.10 0.10 -4.40 2.30 -4.40 1.30 0 1.35 0.10 1.15 2 -0.10 1.40 0 2 0.45 2 0.35 0 0.65 0.40 0.65 0.90 0 0.70 0.10 0.75 0.50 0.10 0.25 -0.40 0.50 -1.25 0.50 -1.85 0 -0.65 0.20 -1.15 0.45 -1.15 0.25 0 0.65 -0.45 0.80 -1 0.30 -0.90 0.75 -1 4.85 -1 l4.50 0 -0.20 3 c-0.10 1.65 -0.05 3 0.20 3 0.60 0 0.50 3.40 -0.10 3.75 -0.30 0.20 -0.50 -0.30 -0.50 -1.10 0 -1.10 -0.10 -1.25 -0.50 -0.65 -0.25 0.40 -0.50 1.25 -0.50 1.85 0 1.25 -2.45 4.35 -2.50 3.15 0 -0.40 0.45 -2.25 1.05 -4.05 0.70 -2.05 0.95 -3.70 0.70 -4.25 -0.25 -0.70 -0.50 -0.20 -0.95 1.90 -0.75 3.50 -1.30 4.25 -1.30 1.70 0 -1.10 -0.20 -1.75 -0.50 -1.55 -0.25 0.15 -0.50 1.60 -0.50 3.15 0 1.55 -0.25 3.20 -0.55 3.60 -0.40 0.55 -0.45 0.35 -0.25 -0.90 0.20 -1.20 0.10 -1.60 -0.35 -1.50 -0.30 0.15 -0.65 1.25 -0.75 2.55 -0.10 1.75 -0.35 2.35 -0.95 2.35 -0.45 0 -0.65 -0.30 -0.45 -0.75z m2.40 -8 c0.35 -1.45 0.15 -2.25 -0.60 -2.25 -0.20 0 -0.50 0.90 -0.60 2 -0.20 2.30 0.60 2.45 1.20 0.25z m2.70 -3.95 c0.15 -0.40 0.20 -1.15 0.10 -1.65 -0.15 -0.65 -0.35 -0.45 -0.75 0.75 -0.60 1.55 0.05 2.40 0.65 0.90z"/>
  <path d="M21 15.05 c0 -1.50 1.65 -4.05 2.80 -4.35 2.35 -0.60 2.50 0.55 0.40 2.75 -1.80 1.90 -3.20 2.60 -3.20 1.60z"/>
  <path d="M6.50 9.70 c-0.65 -1.60 -0.65 -3.20 0 -3.20 0.85 0 2.50 2.15 2.50 3.35 0 1.65 -1.85 1.55 -2.50 -0.15z"/>
  <path d="M24.75 3.80 c0.05 -2.80 0.65 -3.80 2.40 -3.80 1.35 0 1.75 0.25 2.20 1.55 0.60 1.50 0.55 1.55 -0.30 0.75 -1.30 -1.15 -2.45 -1.05 -1.40 0.10 0.80 0.85 0.80 1 -0.30 1.95 -1.60 1.50 -2.60 1.30 -2.60 -0.55z"/>
  <path d="M29.75 0.50 c-0.15 -0.25 0.15 -0.50 0.70 -0.50 0.60 0 1.05 0.25 1.05 0.50 0 0.30 -0.30 0.50 -0.70 0.50 -0.40 0 -0.90 -0.20 -1.05 -0.50z"/>
 </g>
 <g fill="#816a9e">
  <path d="M1.15 39.65 c-1 -0.20 -1.05 -0.25 -0.25 -1.10 0.45 -0.50 1.40 -1.50 2 -2.25 1.40 -1.65 1.90 -1.30 2.25 1.60 0.30 2.30 -0.70 3.05 -1.40 1 l-0.40 -1.15 -0.20 1.15 c-0.10 0.60 -0.35 1.05 -0.55 1.05 -0.20 -0.05 -0.85 -0.20 -1.45 -0.30z"/>
  <path d="M6.60 37.25 c-0.45 -1 -0.45 -1.25 0.10 -1.25 0.40 0 1.05 0.55 1.50 1.25 0.80 1.20 0.75 1.25 -0.10 1.25 -0.50 0 -1.20 -0.55 -1.50 -1.25z"/>
  <path d="M29.50 35.95 c-0.30 -0.55 -0.45 -1.40 -0.35 -1.85 0.20 -0.70 0.25 -0.70 0.30 0.10 0 0.55 0.40 1.40 0.90 1.90 0.45 0.50 0.55 0.90 0.25 0.90 -0.30 0 -0.80 -0.45 -1.10 -1.05z"/>
  <path d="M14.10 35.45 c-0.65 -0.65 -0.90 -1.40 -0.70 -2.10 0.25 -0.85 0.35 -0.90 0.50 -0.30 0.10 0.50 0.65 0.85 1.40 0.85 1.65 0 1.90 0.30 1.10 1.55 -0.80 1.30 -1.10 1.30 -2.30 0z"/>
  <path d="M18.10 35.15 c0.10 -0.85 0.50 -1.45 1.05 -1.55 1.05 -0.20 1.15 1.15 0.15 2.20 -1.05 1.05 -1.40 0.85 -1.20 -0.65z"/>
  <path d="M10.30 33 c-0.45 -1.10 -0.80 -2.60 -0.80 -3.35 0 -1.15 -0.60 -3.70 -2.05 -8.45 -0.35 -1.10 -0.30 -2 0.15 -2.95 l0.60 -1.30 0.95 1.15 c0.80 0.95 0.80 0.85 -0.10 -0.65 -1.50 -2.60 -1.30 -3.50 0.35 -1.65 0.80 0.80 1.70 1.40 2 1.30 0.35 -0.10 0.60 0.05 0.60 0.35 0 0.30 -0.20 0.55 -0.50 0.55 -0.25 0 -0.50 0.30 -0.50 0.65 0 0.30 -0.45 1.15 -1 1.85 -0.55 0.70 -1 1.45 -1 1.70 0 0.25 0.45 -0.15 1.05 -0.90 0.55 -0.70 1.45 -1.55 2 -1.80 0.80 -0.45 0.95 -0.35 0.95 0.75 0 0.70 -0.40 1.65 -0.90 2.15 -2.10 2.10 -2.70 7 -1.05 8.85 0.50 0.55 1.05 1.60 1.20 2.40 0.55 2.20 -1 1.70 -1.95 -0.65z"/>
  <path d="M18 30 c0 -0.65 1.50 -0.65 2.50 0 0.55 0.35 0.35 0.50 -0.85 0.50 -0.90 0 -1.65 -0.20 -1.65 -0.50z"/>
  <path d="M12.30 26.95 c1.40 -1.50 1.45 -1.50 1.60 -0.40 0.20 1.20 -0.60 1.95 -2.10 1.95 -0.85 0 -0.80 -0.20 0.50 -1.55z"/>
  <path d="M17.30 20.15 c0.30 -3.30 0.25 -3.25 1.15 -2.70 0.90 0.60 0.25 5.55 -0.75 5.55 -0.55 0 -0.60 -0.65 -0.40 -2.85z"/>
  <path d="M24.30 22.15 c-0.35 -0.35 0.65 -1.65 1.25 -1.65 0.25 0 0.45 0.30 0.45 0.70 0 0.75 -1.20 1.40 -1.70 0.95z"/>
  <path d="M2.80 20.90 c-1 -3.20 -0.50 -3.85 0.75 -1.15 0.70 1.45 0.70 1.75 0.10 1.75 -0.35 0 -0.75 -0.30 -0.85 -0.60z"/>
  <path d="M6.25 18 c-0.15 -0.25 -0.05 -0.90 0.20 -1.35 0.45 -0.80 0.50 -0.70 0.55 0.50 0 1.40 -0.25 1.70 -0.75 0.85z"/>
  <path d="M21.30 15.65 c-0.80 -2.50 2.75 -6.60 4.20 -4.90 0.65 0.75 0.20 1.95 -0.55 1.50 -0.25 -0.20 -0.45 0 -0.45 0.35 -0.05 0.35 -0.70 1.40 -1.45 2.30 -1.30 1.55 -1.50 1.60 -1.75 0.75z"/>
  <path d="M15.50 14.20 c0 -0.55 -0.30 -0.75 -1 -0.55 -0.60 0.15 -1.45 -0.20 -2.25 -0.95 -0.70 -0.65 -1.65 -1.20 -2.05 -1.20 -0.40 0 -0.70 -0.50 -0.70 -1.25 0 -0.70 0.25 -1.25 0.50 -1.25 0.30 0 0.50 0.45 0.50 1 0 0.80 0.35 1 1.50 1 0.85 0 1.50 -0.25 1.50 -0.55 0 -0.40 0.25 -0.35 0.75 0.05 1.15 0.95 1.55 0.15 0.50 -1 -0.50 -0.55 -0.65 -1 -0.35 -1 0.35 0 0.60 -0.35 0.60 -0.75 0 -0.45 -0.45 -0.75 -1.25 -0.75 -0.70 0 -1.25 -0.20 -1.25 -0.45 0 -0.25 -0.80 -0.45 -1.75 -0.40 -0.95 0.05 -1.75 0.25 -1.75 0.50 0 0.20 -0.20 0.25 -0.50 0.10 -0.95 -0.55 -0.50 -2.05 1 -3.50 0.80 -0.80 1.50 -1.20 1.50 -0.85 0 0.30 -0.20 0.70 -0.50 0.85 -0.90 0.55 -0.55 1.15 0.50 0.90 0.70 -0.20 1 0 1 0.55 0 0.50 0.25 0.70 0.50 0.55 0.30 -0.15 0.50 -0.95 0.50 -1.75 0 -0.75 0.35 -1.50 0.75 -1.70 0.40 -0.15 0.75 -0.65 0.75 -1.05 0 -0.55 0.35 -0.75 1.15 -0.65 0.90 0.10 1.15 0.50 1.25 2.15 l0.20 2 0.70 -1.25 0.70 -1.25 -0.30 1.40 c-0.35 1.50 0.30 1.80 1.50 0.55 0.75 -0.70 0.80 -0.60 0.80 1 0 1.60 -0.10 1.75 -1.50 1.70 -1.20 -0.05 -1.45 -0.25 -1.25 -0.90 0.20 -0.70 -0.10 -0.95 -1.55 -1.25 -1.15 -0.20 -2.05 -0.10 -2.40 0.25 -0.40 0.45 -0.25 0.55 0.70 0.40 1.20 -0.15 1.25 -0.05 1.10 2 -0.15 2.20 0.75 3 1.25 1.10 0.15 -0.55 0.45 -1 0.70 -1 0.80 0 0.45 1.50 -0.85 3.45 -0.90 1.40 -1.15 2.30 -0.90 3.25 0.15 0.70 0.15 1.30 0 1.30 -0.15 0 -0.30 -0.35 -0.30 -0.80z"/>
  <path d="M20.50 11.20 c0 -0.55 0.15 -1.20 0.35 -1.40 0.20 -0.20 0.40 -0.75 0.40 -1.20 0.20 -2.70 0.30 -3.10 0.80 -3.10 1.50 0 2.70 3.45 1.45 4.25 -0.30 0.20 -0.50 -0.25 -0.50 -1 0 -0.75 -0.20 -1.20 -0.50 -1 -0.25 0.15 -0.50 0.80 -0.50 1.45 0 0.60 -0.35 1.55 -0.75 2.10 -0.70 0.95 -0.70 0.95 -0.75 -0.10z"/>
  <path d="M7.10 10.60 c-0.75 -0.50 -1.45 -4.10 -0.75 -4.10 0.85 0 2.65 2.30 2.65 3.40 0 1.15 -0.75 1.40 -1.90 0.70z"/>
  <path d="M25.30 4.20 c-1 -0.95 -1 -1.70 0 -3.10 0.90 -1.30 2.60 -1.45 3.50 -0.20 0.85 1.05 0.90 2 0.10 1.20 -0.80 -0.80 -1.95 -0.75 -1.60 0.10 0.15 0.40 0 0.85 -0.25 1.05 -0.30 0.15 -0.45 0.50 -0.30 0.75 0.50 0.85 -0.70 1 -1.45 0.20z"/>
  <path d="M8 1.50 c0 -1.15 0.20 -1.50 1 -1.50 1.10 0 1.25 0.60 0.50 2.05 -0.80 1.40 -1.50 1.15 -1.50 -0.55z"/>
  <path d="M22.40 1.15 c-1.20 -0.30 -1.15 -1.15 0.10 -1.15 0.55 0 1 0.35 1 0.75 0 0.40 -0.05 0.70 -0.10 0.70 -0.10 -0.05 -0.55 -0.15 -1 -0.30z"/>
 </g>
 <g fill="#8f799b">
  <path d="M4 38.75 c0 -0.70 -0.20 -1.25 -0.50 -1.25 -0.25 0 -0.50 0.35 -0.50 0.75 0 0.40 -0.20 0.75 -0.50 0.75 -0.95 0 -0.50 -1.85 0.70 -3 l1.25 -1.15 0.25 1.35 c0.20 0.70 0.40 1.85 0.55 2.55 0.20 0.90 0.05 1.25 -0.50 1.25 -0.45 0 -0.75 -0.45 -0.75 -1.25z"/>
  <path d="M7.65 39.40 c-0.25 -0.35 -0.70 -1.25 -1.05 -2 -0.45 -1.10 -0.45 -1.40 0.05 -1.40 0.55 0 2.85 2.90 2.85 3.65 0 0.60 -1.35 0.40 -1.85 -0.25z"/>
  <path d="M29.15 39.40 c0.10 -0.35 0.45 -0.70 0.75 -0.70 0.35 -0.05 0.75 -0.10 0.90 -0.15 0.20 0 -0.05 -0.65 -0.55 -1.35 -1.35 -2.10 -0.60 -1.85 1.75 0.55 l2.20 2.25 -2.65 0 c-1.90 0 -2.55 -0.20 -2.40 -0.60z"/>
  <path d="M14.10 35.35 c-0.60 -0.65 -1.25 -1.90 -1.40 -2.85 -0.30 -1.65 -0.30 -1.70 0.45 -0.75 0.45 0.55 0.85 1.25 0.85 1.55 0 0.60 1.40 1.45 2.15 1.30 0.60 -0.15 0.40 0.75 -0.30 1.35 -0.55 0.40 -0.95 0.25 -1.75 -0.60z"/>
  <path d="M18.10 35.15 c0.20 -1.10 1.90 -1.50 1.90 -0.50 0 0.40 -0.35 0.90 -0.80 1.05 -1.15 0.45 -1.30 0.40 -1.10 -0.55z"/>
  <path d="M10.50 32.90 c-0.55 -1.20 -1 -2.85 -1 -3.70 0 -0.85 -0.35 -2.60 -0.80 -3.90 -0.45 -1.30 -0.70 -2.80 -0.55 -3.30 0.15 -0.55 0.05 -0.90 -0.20 -0.70 -0.25 0.15 -0.45 -0.55 -0.45 -1.50 0 -1.15 0.30 -1.90 0.90 -2.25 0.70 -0.40 0.75 -0.60 0.25 -1.10 -0.35 -0.35 -0.65 -1.10 -0.65 -1.60 0 -0.85 0.10 -0.85 1 0.30 1.10 1.35 1.30 2.35 0.50 2.35 -0.90 0 -0.50 1.10 0.50 1.35 1 0.25 1 0.25 -0.05 1.70 -0.55 0.80 -0.90 1.75 -0.80 2.10 0.15 0.35 0.30 0.25 0.30 -0.25 0.05 -0.95 2.20 -2.60 3 -2.30 0.60 0.20 -0.80 4.50 -1.75 5.20 -0.95 0.75 -0.65 5.50 0.45 6.35 0.45 0.30 0.95 1.20 1.15 2 0.50 2.15 -0.70 1.65 -1.80 -0.75z"/>
  <path d="M13.60 29.90 c0.15 -0.35 0.70 -0.70 1.30 -0.80 0.80 -0.15 1 0.05 0.80 0.60 -0.35 0.95 -2.40 1.10 -2.10 0.20z"/>
  <path d="M12.55 26.85 c1.15 -1.70 1.20 -1.70 1.85 -0.75 0.85 1.15 0.45 1.70 -1.55 2.20 l-1.45 0.35 1.15 -1.80z"/>
  <path d="M17 23.40 c0 -1.25 0.60 -2.90 1.05 -2.90 0.25 0 0.45 0.80 0.45 1.75 0 1.20 -0.25 1.75 -0.75 1.75 -0.40 0 -0.75 -0.30 -0.75 -0.60z"/>
  <path d="M24.50 21.90 c0 -0.90 0.90 -1.70 1.40 -1.20 0.15 0.20 -0.10 0.70 -0.55 1.15 -0.80 0.80 -0.85 0.80 -0.85 0.05z"/>
  <path d="M2.70 20.65 c-0.15 -0.80 -0.35 -1.70 -0.50 -2 -0.10 -0.35 0.05 -0.65 0.30 -0.65 0.30 0 0.50 0.40 0.50 0.95 0 0.50 0.35 1.20 0.75 1.55 0.95 0.80 0.95 1.50 0 1.50 -0.40 0 -0.85 -0.60 -1.05 -1.35z"/>
  <path d="M17.50 18.75 c0 -0.80 0.30 -1.25 0.75 -1.25 0.45 0 0.75 0.45 0.75 1.25 0 0.80 -0.30 1.25 -0.75 1.25 -0.45 0 -0.75 -0.45 -0.75 -1.25z"/>
  <path d="M14.80 14.90 c0.15 -0.65 0.15 -1 -0.05 -0.75 -0.50 0.45 -2.25 -1.05 -2.25 -1.95 0 -0.35 -0.65 -0.75 -1.50 -0.95 -1 -0.20 -1.50 -0.65 -1.50 -1.25 0 -1.35 0.70 -1.60 2.60 -0.80 2.30 1 3.30 2.20 3.70 4.70 0.30 1.75 0.20 2.10 -0.50 2.10 -0.65 0 -0.80 -0.25 -0.50 -1.10z"/>
  <path d="M21.20 15.35 c-0.30 -0.80 0.90 -3.55 1.80 -4.10 1 -0.60 0.55 3.05 -0.50 4 -0.85 0.80 -1 0.80 -1.30 0.10z"/>
  <path d="M2 13.80 c0 -0.40 0.25 -0.90 0.50 -1.05 0.30 -0.15 0.50 0.15 0.50 0.70 0 0.60 -0.20 1.05 -0.50 1.05 -0.25 0 -0.50 -0.30 -0.50 -0.70z"/>
  <path d="M2.60 11.05 c0.20 -1.45 1.15 -1.95 1.60 -0.80 0.15 0.45 0.10 0.65 -0.15 0.50 -0.30 -0.15 -0.75 0.15 -1.05 0.60 -0.45 0.80 -0.50 0.75 -0.40 -0.30z"/>
  <path d="M20.15 10.90 c0.15 -0.65 0.60 -2.15 1 -3.40 0.65 -1.95 0.65 -2.45 0.05 -3.25 -0.65 -0.85 -0.70 -0.80 -0.70 0.80 -0.05 0.95 -0.35 2.40 -0.75 3.20 l-0.65 1.50 -0.05 -1.90 c-0.05 -1.95 -1.05 -2.20 -1.05 -0.30 0 0.55 -0.35 1.55 -0.80 2.20 l-0.80 1.20 -1.55 -1.35 c-0.85 -0.75 -1.95 -1.75 -2.45 -2.20 -0.50 -0.50 -1.20 -0.90 -1.55 -0.90 -0.35 0 -0.90 -0.25 -1.25 -0.60 -0.45 -0.45 -0.60 -0.45 -0.60 0 0 0.35 -0.20 0.60 -0.50 0.60 -1 0 -0.45 -1.85 1 -3.25 0.80 -0.80 1.50 -1.20 1.50 -0.85 0 0.30 -0.20 0.70 -0.50 0.85 -0.90 0.55 -0.50 1.30 0.50 1 0.70 -0.25 1 -0.10 1 0.50 0 0.45 0.25 0.65 0.50 0.50 0.30 -0.15 0.50 -0.85 0.50 -1.45 0 -0.65 0.35 -1.45 0.75 -1.80 0.40 -0.35 0.75 -0.95 0.75 -1.30 0 -0.40 0.45 -0.70 1.05 -0.70 0.65 0 0.90 0.20 0.65 0.65 -0.30 0.45 -0.20 0.45 0.35 0 0.85 -0.85 2.95 -0.85 2.95 0 0 0.35 -0.35 1.15 -0.80 1.75 -0.45 0.65 -0.65 1.50 -0.50 1.90 0.25 0.70 0.40 0.70 1.05 0 0.40 -0.40 0.75 -1.20 0.75 -1.75 0 -0.55 0.25 -1.15 0.50 -1.30 0.30 -0.15 0.50 0.10 0.50 0.65 0 0.75 0.25 0.90 1.35 0.70 1.30 -0.25 1.30 -0.20 0.95 1.85 -0.20 1.25 -0.10 2.05 0.20 2.05 0.65 0 0.65 2.35 0.05 2.75 -0.25 0.15 -0.55 -0.35 -0.65 -1.10 l-0.20 -1.40 -0.40 1.50 c-0.60 2.50 -1.25 3.75 -1.85 3.75 -0.35 0 -0.45 -0.45 -0.30 -1.10z m-3.05 -3.25 c0.15 -0.80 0.40 -1.75 0.60 -2.25 0.30 -0.65 -0.05 -0.85 -1.70 -1.15 -2.20 -0.35 -2.80 -0.15 -2.25 0.75 0.25 0.40 0.55 0.40 0.95 0.05 1 -0.80 1.30 -0.10 1 2.05 -0.25 1.50 -0.15 1.90 0.45 1.90 0.40 0 0.85 -0.60 0.95 -1.35z m0.60 -4.50 c0.20 -0.45 0.15 -1 -0.10 -1.25 -0.30 -0.30 -0.55 0.05 -0.70 0.80 -0.30 1.45 0.30 1.75 0.80 0.45z"/>
  <path d="M7.80 10.20 c-0.15 -0.45 -0.30 -1.25 -0.30 -1.80 0 -0.85 0.15 -0.90 0.75 -0.40 0.85 0.70 1 2.30 0.30 2.70 -0.25 0.15 -0.60 -0.05 -0.75 -0.50z"/>
  <path d="M25.20 3.95 c-0.85 -0.95 -0.85 -1.10 -0.10 -2.35 0.95 -1.55 3.40 -2.20 3.40 -0.90 0 0.45 -0.35 0.80 -0.75 0.80 -0.40 0 -0.60 0.30 -0.45 0.70 0.15 0.40 0 0.85 -0.25 1.05 -0.30 0.15 -0.45 0.50 -0.30 0.75 0.60 0.95 -0.65 0.90 -1.55 -0.05z"/>
  <path d="M7.35 3.70 c-0.10 -0.25 -0.40 -1.20 -0.60 -2.05 -0.30 -1.60 -0.30 -1.65 1.50 -1.65 1.65 0 1.80 0.10 1.50 1.15 -0.45 1.35 -2.05 3.10 -2.40 2.55z"/>
  <path d="M21.50 0.50 c0 -0.25 0.45 -0.50 1.05 -0.50 0.55 0 0.85 0.25 0.70 0.50 -0.15 0.30 -0.65 0.50 -1.05 0.50 -0.40 0 -0.70 -0.20 -0.70 -0.50z"/>
 </g>
 <g fill="#9077ba">
  <path d="M2 37.60 c0 -0.25 0.55 -0.95 1.20 -1.55 1.05 -0.95 1.20 -1 1.50 -0.30 0.45 1.25 0.35 2.25 -0.20 2.25 -0.25 0 -0.50 -0.40 -0.50 -0.85 -0.05 -0.85 -0.05 -0.85 -0.55 0 -0.50 0.90 -1.45 1.15 -1.45 0.45z"/>
  <path d="M14.05 35.05 c-1.35 -1.90 -1.35 -2.35 0.05 -1.05 0.60 0.55 1.40 0.90 1.75 0.75 0.55 -0.15 0.55 0 0.15 0.75 -0.70 1.30 -0.75 1.25 -1.95 -0.45z"/>
  <path d="M18 35.25 c0 -0.80 1.35 -1.60 1.85 -1.05 0.35 0.35 -0.80 1.80 -1.40 1.80 -0.25 0 -0.45 -0.35 -0.45 -0.75z"/>
  <path d="M10.80 33.75 c-0.80 -1.20 -0.80 -1.25 0.20 -1.25 0.75 0 1 0.35 1 1.25 0 0.70 -0.10 1.25 -0.20 1.25 -0.10 0 -0.55 -0.55 -1 -1.25z"/>
  <path d="M12 28.15 c0.05 -0.55 1.30 -2.15 1.70 -2.15 0.65 0 0.25 1.90 -0.50 2.20 -1 0.40 -1.20 0.40 -1.20 -0.05z"/>
  <path d="M8.30 24.30 c-0.50 -1.90 -0.40 -2.50 0.40 -1.85 0.55 0.50 0.80 0.40 1.05 -0.40 0.30 -1 2.65 -2.80 3.10 -2.35 0.15 0.10 -0.10 0.85 -0.50 1.65 -0.45 0.75 -0.90 1.95 -1.05 2.65 -0.35 1.65 -2.60 1.90 -3 0.30z"/>
  <path d="M17.50 20.25 c0 -1.20 0.25 -1.75 0.75 -1.75 0.80 0 0.90 0.60 0.45 2.40 -0.50 1.70 -1.20 1.30 -1.20 -0.65z"/>
  <path d="M8.05 21.05 c-0.45 -0.30 -0.55 -0.90 -0.30 -2 0.40 -1.80 0.60 -1.90 1.60 -0.65 0.60 0.75 0.65 0.70 0.35 -0.65 -0.20 -0.80 -0.65 -1.70 -1.05 -1.90 -0.35 -0.20 -0.65 -0.75 -0.65 -1.20 0 -0.50 0.50 -0.15 1.40 0.95 0.75 0.95 1.65 1.65 1.95 1.55 0.45 -0.15 0.40 0.20 -0.10 1.25 -1.05 2 -2.40 3.15 -3.20 2.65z"/>
  <path d="M6.20 17.95 c-0.15 -0.30 -0.05 -0.80 0.25 -1.10 0.40 -0.40 0.55 -0.25 0.55 0.55 0 1.20 -0.25 1.40 -0.80 0.55z"/>
  <path d="M14.70 15.20 c0.15 -0.45 0.30 -0.90 0.30 -1 0 -0.10 0.25 -0.20 0.50 -0.20 0.30 0 0.50 0.45 0.50 1 0 0.60 -0.35 1 -0.80 1 -0.55 0 -0.70 -0.25 -0.50 -0.80z"/>
  <path d="M11.35 11.65 c-0.40 -0.35 -0.45 -2.65 -0.10 -2.65 1 0 3.25 1.85 3.25 2.65 0 0.45 -2.70 0.45 -3.15 0z"/>
  <path d="M7.70 10.65 c-0.80 -0.25 -0.25 -2.15 0.60 -2.15 0.40 0 0.70 0.45 0.70 0.95 0 1.10 -0.45 1.50 -1.30 1.20z"/>
  <path d="M6.35 9.15 c-0.55 -0.50 -0.40 -2.15 0.15 -2.15 0.30 0 0.50 0.55 0.50 1.25 0 1.30 -0.10 1.45 -0.65 0.90z"/>
  <path d="M21.55 8.25 c0 -0.80 0.20 -1.95 0.40 -2.45 0.70 -1.75 0.90 0.30 0.25 2.20 l-0.65 1.75 0 -1.50z"/>
  <path d="M23 8.05 c0 -0.85 0.25 -1.55 0.50 -1.55 0.30 0 0.50 0.55 0.50 1.20 0 0.70 -0.20 1.40 -0.50 1.55 -0.30 0.20 -0.50 -0.35 -0.50 -1.20z"/>
  <path d="M17 7.65 c0.05 -1 1.15 -2.65 1.80 -2.65 0.20 0 0.15 0.25 -0.20 0.60 -0.35 0.35 -0.60 1.10 -0.60 1.75 0 0.65 -0.20 1.15 -0.50 1.15 -0.25 0 -0.50 -0.40 -0.50 -0.85z"/>
  <path d="M12.10 6.45 c0.10 -0.95 0.50 -1.20 1.80 -1.25 2.75 -0.15 2.50 1.55 -0.35 2.10 -1.50 0.30 -1.65 0.25 -1.45 -0.85z"/>
  <path d="M8.10 5.65 c0.20 -1.15 1.90 -1.50 1.90 -0.40 0 0.45 -0.20 0.65 -0.50 0.50 -0.25 -0.15 -0.50 -0.05 -0.50 0.20 0 0.30 -0.25 0.55 -0.55 0.55 -0.30 0 -0.45 -0.40 -0.35 -0.85z"/>
  <path d="M10.50 5.55 c0 -1 0.85 -1.85 1.35 -1.40 0.35 0.40 -0.35 2.35 -0.90 2.35 -0.25 0 -0.45 -0.45 -0.45 -0.95z"/>
  <path d="M13 3.25 c0 -0.45 0.35 -0.90 0.75 -1.05 0.40 -0.20 0.75 -0.75 0.75 -1.25 0 -0.50 0.25 -0.95 0.55 -0.95 0.95 0 2 1.50 1.85 2.60 -0.20 1.40 -1.90 1.90 -1.90 0.55 -0.05 -0.85 -0.05 -0.85 -0.55 0 -0.60 1.05 -1.45 1.10 -1.45 0.10z"/>
 </g>
 <g fill="#9e86ae">
  <path d="M4 37.40 c0 -3.05 0.35 -2.95 0.95 0.25 0.35 1.85 0.30 2.35 -0.25 2.35 -0.50 0 -0.70 -0.75 -0.70 -2.60z"/>
  <path d="M7.30 38.30 c-0.90 -1.95 -0.95 -2.30 -0.40 -2.30 0.25 0 0.90 0.90 1.55 2 0.85 1.55 0.95 2 0.40 2 -0.40 0 -1.10 -0.75 -1.55 -1.70z"/>
  <path d="M30.50 39.25 c0 -0.40 0.25 -0.75 0.60 -0.75 0.30 0 0.15 -0.45 -0.35 -1 -1.75 -1.90 -0.45 -1.45 1.50 0.50 1.35 1.40 1.70 2 1.15 2 -0.45 0 -0.95 -0.30 -1.05 -0.60 -0.20 -0.50 -0.30 -0.50 -0.30 0 -0.05 0.85 -1.55 0.75 -1.55 -0.15z"/>
  <path d="M1.50 38.55 c0 -0.60 1.95 -2.90 2 -2.30 0 1.30 -0.70 2.75 -1.30 2.75 -0.40 0 -0.70 -0.20 -0.70 -0.45z"/>
  <path d="M14.25 35.15 c-0.90 -0.85 -1.90 -3.15 -1.60 -3.50 0.15 -0.10 0.70 0.60 1.25 1.60 0.60 0.95 1.30 1.75 1.60 1.75 0.25 0 0.50 0.25 0.50 0.50 0 0.75 -0.85 0.60 -1.75 -0.35z"/>
  <path d="M18.35 35.70 c-0.45 -0.50 0.20 -1.70 0.95 -1.70 0.40 0 0.70 0.20 0.70 0.45 0 0.60 -1.30 1.60 -1.65 1.25z"/>
  <path d="M11 33 c0 -0.55 -0.20 -1 -0.50 -1 -0.25 0 -0.50 -0.25 -0.50 -0.50 0 -0.35 0.30 -0.35 1 0 1 0.55 1.40 2.50 0.50 2.50 -0.25 0 -0.50 -0.45 -0.50 -1z"/>
  <path d="M9.50 29.10 c0 -0.80 -0.35 -2.45 -0.80 -3.75 -0.45 -1.30 -0.65 -2.60 -0.55 -2.95 0.20 -0.40 0.40 -0.20 0.60 0.50 0.45 1.35 1.45 1.50 1.10 0.10 -0.30 -1.10 0.80 -2.50 1.95 -2.50 0.80 0 0.85 0.20 0.25 1.40 -0.30 0.45 -0.60 1.45 -0.75 2.20 -0.20 0.90 -0.55 1.25 -1 1.10 -0.60 -0.25 -0.70 0.20 -0.45 2.50 0.15 1.55 0.15 2.80 -0.05 2.80 -0.15 0 -0.30 -0.65 -0.30 -1.40z"/>
  <path d="M13.85 30.20 c-0.50 -0.55 0.15 -1.20 1.20 -1.20 0.50 0 0.95 0.35 0.95 0.75 0 0.75 -1.55 1.05 -2.15 0.45z"/>
  <path d="M17.50 30 c0 -0.25 0.45 -0.50 1 -0.50 0.55 0 1 0.25 1 0.50 0 0.30 -0.45 0.50 -1 0.50 -0.55 0 -1 -0.20 -1 -0.50z"/>
  <path d="M12.80 26.90 c0.80 -1.50 0.85 -1.55 1.50 -0.65 0.65 0.85 0.60 1.05 -0.40 1.60 -1.80 0.95 -2 0.80 -1.10 -0.95z"/>
  <path d="M17 23.75 c0 -1.50 1.25 -1.70 1.65 -0.30 0.25 1.10 0 1.55 -1 1.55 -0.35 0 -0.65 -0.55 -0.65 -1.25z"/>
  <path d="M8.50 21.05 c0 -0.35 -0.20 -0.45 -0.50 -0.30 -0.25 0.15 -0.50 0 -0.50 -0.35 0 -1.15 0.60 -2.90 1 -2.90 0.20 0 0.60 0.50 0.90 1.15 0.30 0.60 0.55 0.80 0.55 0.45 0.05 -0.35 -0.35 -1.20 -0.80 -1.90 -0.80 -1.25 -0.80 -1.30 0.10 -1.10 0.55 0.10 1.20 0.75 1.45 1.50 0.40 1.15 0.30 1.55 -0.85 2.70 -0.75 0.75 -1.35 1.05 -1.35 0.75z"/>
  <path d="M17.50 18.90 c0 -1.50 0.05 -1.55 0.80 -0.80 0.45 0.45 0.70 1.20 0.55 1.60 -0.55 1.35 -1.35 0.85 -1.35 -0.80z"/>
  <path d="M2.30 18.70 c-0.45 -1.10 -0.35 -5.70 0.10 -5.70 0.20 0 0.35 1.45 0.35 3.25 0 1.80 -0.05 3.25 -0.05 3.25 -0.05 0 -0.25 -0.35 -0.40 -0.80z"/>
  <path d="M14.85 15 c0.15 -0.55 0.45 -1 0.70 -1 0.25 0 0.45 0.45 0.45 1 0 0.55 -0.30 1 -0.70 1 -0.45 0 -0.60 -0.35 -0.45 -1z"/>
  <path d="M21.70 15.65 c0.15 -0.30 0.05 -0.65 -0.30 -0.75 -0.35 -0.15 -0.40 -0.50 -0.20 -0.85 0.35 -0.55 0.50 -0.55 0.90 0 0.30 0.45 0.30 0.25 0.10 -0.65 -0.25 -1.05 -0.05 -1.50 1.05 -2.20 1.05 -0.70 1.40 -0.75 1.90 -0.20 0.45 0.50 0.45 0.70 0 0.85 -0.35 0.15 -0.65 0.50 -0.65 0.85 0 0.35 -0.70 1.25 -1.60 2.10 -0.85 0.80 -1.40 1.20 -1.20 0.85z"/>
  <path d="M12.40 12.75 c-0.75 -0.70 -1.70 -1.25 -2.15 -1.25 -0.80 0 -1 -1.35 -0.30 -2.45 0.35 -0.50 0.65 -0.55 1.50 -0.10 0.55 0.35 1.05 0.80 1.05 1.10 0 0.30 0.25 0.35 0.50 0.20 0.80 -0.50 2.10 1.10 1.90 2.35 -0.20 1.55 -0.95 1.60 -2.50 0.15z"/>
  <path d="M2.55 11.20 c-0.05 -1.25 1.25 -2 1.65 -0.95 0.15 0.45 0 0.60 -0.45 0.45 -0.35 -0.15 -0.75 0.10 -0.90 0.65 -0.20 0.75 -0.25 0.75 -0.30 -0.15z"/>
  <path d="M14.75 9.30 c-0.80 -0.95 -1.65 -1.60 -1.85 -1.50 -0.55 0.35 -1 -0.75 -0.65 -1.75 0.20 -0.70 0.70 -0.90 1.90 -0.80 1.50 0.10 1.55 0.20 1.40 2.20 -0.10 1.65 0 2 0.60 1.75 0.40 -0.15 0.85 -0.90 1 -1.70 0.40 -1.90 2.40 -3.80 2.95 -2.80 0.45 0.80 0 3.70 -0.65 4.10 -0.25 0.15 -0.45 -0.55 -0.45 -1.55 0 -1.10 -0.20 -1.70 -0.50 -1.50 -0.25 0.15 -0.50 0.95 -0.50 1.80 0 0.80 -0.20 1.45 -0.40 1.45 -0.25 0 -0.65 0.45 -0.90 1 -0.45 0.95 -0.55 0.90 -1.95 -0.70z"/>
  <path d="M21.05 8.45 c0.60 -1.55 0.90 -3.15 0.70 -3.95 -0.20 -1 -0.10 -1.45 0.50 -1.65 0.65 -0.25 0.70 0.05 0.55 1.80 -0.30 2.75 -1.40 5.95 -2.15 6.20 -0.35 0.15 -0.20 -0.75 0.40 -2.40z"/>
  <path d="M7.85 10.15 c-0.65 -0.60 -0.35 -1.65 0.40 -1.65 0.40 0 0.75 0.45 0.75 1 0 1 -0.55 1.30 -1.15 0.65z"/>
  <path d="M8.30 6.10 c-0.20 -0.30 -0.10 -1.05 0.20 -1.60 0.55 -1.05 1.50 -1.35 1.50 -0.45 0 0.30 0.45 0.40 1 0.20 1.10 -0.35 1.35 0.45 0.50 1.75 -0.40 0.60 -0.65 0.65 -1.45 0.15 -0.75 -0.45 -1.05 -0.45 -1.15 -0.05 -0.15 0.45 -0.30 0.45 -0.60 0z"/>
  <path d="M13 3.60 c0 -0.25 0.45 -0.85 1 -1.35 0.55 -0.50 1 -1.20 1 -1.60 0 -0.35 0.25 -0.65 0.50 -0.65 0.70 0 0.65 0.20 -0.55 2.20 -1 1.70 -1.95 2.35 -1.95 1.40z"/>
  <path d="M15 3.40 c0.05 -0.75 1.20 -2.40 1.70 -2.40 0.20 0 0.30 0.60 0.20 1.35 -0.15 1.40 -1.90 2.35 -1.90 1.05z"/>
  <path d="M7 2.40 c0 -0.65 0.25 -1.50 0.50 -1.90 0.40 -0.65 0.55 -0.65 1.30 0.05 0.65 0.65 0.70 1.05 0.25 1.90 -0.75 1.40 -2.05 1.35 -2.05 -0.05z"/>
  <path d="M24.75 3 c-0.15 -0.25 0.10 -1.05 0.55 -1.75 0.95 -1.45 3.20 -1.75 3.20 -0.45 0 0.55 -0.25 0.70 -0.80 0.50 -0.55 -0.20 -0.75 -0.10 -0.55 0.40 0.50 1.25 -1.65 2.50 -2.40 1.30z"/>
  <path d="M17.70 1.75 c-0.20 -0.55 -0.45 -1.15 -0.55 -1.35 -0.10 -0.25 0.35 -0.40 1.05 -0.40 1.50 0 1.60 0.40 0.60 1.80 -0.70 0.95 -0.75 0.95 -1.10 -0.05z"/>
 </g>
 <g fill="#ac92c3">
  <path d="M0.50 39.65 c0 -0.25 0.70 -1.20 1.55 -2.15 0.85 -0.95 1.40 -1.35 1.25 -0.85 -0.15 0.50 -0.30 1.50 -0.30 2.15 0 0.95 -0.25 1.20 -1.25 1.20 -0.70 0 -1.25 -0.15 -1.25 -0.35z"/>
  <path d="M4.05 37.75 c0 -2.10 0.10 -2.30 0.55 -1.40 0.35 0.75 0.35 1.50 0 2.50 -0.50 1.30 -0.50 1.20 -0.55 -1.10z"/>
  <path d="M7.60 38.95 c-0.60 -0.90 -0.55 -1 0.25 -0.85 0.50 0.10 0.95 0.55 1.05 1.05 0.25 1.15 -0.50 1.05 -1.30 -0.20z"/>
  <path d="M31.05 39.15 c0.10 -0.50 -0.15 -1.45 -0.50 -2.15 -0.50 -1 -0.25 -0.85 1.15 0.60 1.90 1.95 2.50 3.20 0.80 1.65 -0.90 -0.85 -1 -0.85 -0.70 -0.10 0.15 0.50 0.05 0.85 -0.30 0.85 -0.30 0 -0.50 -0.40 -0.45 -0.85z"/>
  <path d="M18.50 35.05 c0 -0.60 0.30 -1.05 0.75 -1.05 0.40 0 0.75 0.20 0.75 0.45 0 0.25 -0.35 0.70 -0.75 1.05 -0.65 0.50 -0.75 0.45 -0.75 -0.45z"/>
  <path d="M13.60 34.40 c-0.70 -0.70 -0.80 -2.10 -0.15 -1.70 0.35 0.25 1.15 2.30 0.85 2.30 -0.05 0 -0.35 -0.25 -0.70 -0.60z"/>
  <path d="M10.85 33.60 c-0.50 -0.55 -0.85 -1.40 -0.75 -1.85 0.25 -1.35 2.05 0.30 1.80 1.70 l-0.15 1.15 -0.90 -1z"/>
  <path d="M14 30.05 c0 -0.30 0.20 -0.60 0.45 -0.75 0.70 -0.45 5.05 0.30 4.75 0.75 -0.35 0.60 -5.20 0.55 -5.20 0z"/>
  <path d="M12.50 27.65 c0 -0.25 0.25 -0.75 0.50 -1.15 0.35 -0.60 0.60 -0.60 1.10 -0.10 0.50 0.50 0.50 0.75 -0.10 1.10 -0.90 0.60 -1.50 0.65 -1.50 0.15z"/>
  <path d="M8.55 24.85 c-0.35 -1 -0.55 -2.15 -0.40 -2.50 0.35 -0.85 1.45 2.10 1.25 3.35 -0.15 0.80 -0.35 0.60 -0.85 -0.85z"/>
  <path d="M10 23.05 c0 -1.30 0.25 -2.05 0.80 -2.25 1.50 -0.55 1.70 -0.30 0.85 1.05 -0.50 0.75 -0.85 1.40 -0.75 1.50 0.30 0.40 0.05 1.65 -0.40 1.65 -0.25 0 -0.50 -0.90 -0.50 -1.95z"/>
  <path d="M8.25 20.85 c-0.30 -0.35 -0.40 -1.25 -0.25 -2.10 l0.25 -1.50 0.90 1.25 c1.10 1.55 1.15 0.40 0.05 -1.30 -0.95 -1.40 -0.55 -2.30 0.50 -1.15 1.30 1.35 1.35 3.20 0.15 4.35 -0.80 0.75 -1.25 0.85 -1.60 0.45z"/>
  <path d="M17.50 20.25 c0 -0.80 0.30 -1.25 0.80 -1.25 0.55 0 0.70 0.25 0.50 0.80 -0.15 0.45 -0.30 1 -0.30 1.25 0 0.25 -0.20 0.45 -0.50 0.45 -0.25 0 -0.50 -0.55 -0.50 -1.25z"/>
  <path d="M2.15 15.25 c0 -1.10 0.10 -1.50 0.20 -0.85 0.10 0.60 0.10 1.50 0 2 -0.15 0.45 -0.25 -0.05 -0.20 -1.15z"/>
  <path d="M15 15.30 c0 -0.40 0.25 -0.90 0.50 -1.05 0.30 -0.15 0.50 0.15 0.50 0.70 0 0.60 -0.20 1.05 -0.50 1.05 -0.25 0 -0.50 -0.30 -0.50 -0.70z"/>
  <path d="M22.45 14.90 c0.55 -0.75 0.55 -1.05 0 -1.70 -0.55 -0.70 -0.50 -0.95 0.45 -1.75 0.65 -0.50 1.50 -0.75 1.95 -0.60 0.70 0.30 0.70 0.35 -0.05 0.90 -0.45 0.35 -0.80 0.95 -0.80 1.35 0 0.40 -0.50 1.15 -1.10 1.70 -0.95 0.75 -1 0.80 -0.45 0.10z"/>
  <path d="M12.50 12.50 c-0.55 -0.55 -1.45 -1 -2.05 -1 -0.90 0 -1 -0.20 -0.70 -1.35 0.45 -1.90 0.60 -1.95 1.90 -0.80 0.60 0.55 1.50 1.15 2 1.30 0.50 0.20 0.85 0.85 0.85 1.60 0 1.50 -0.65 1.60 -2 0.25z"/>
  <path d="M7.75 10 c-0.35 -0.60 0.10 -1.50 0.80 -1.50 0.25 0 0.45 0.45 0.45 1 0 1.05 -0.75 1.35 -1.25 0.50z"/>
  <path d="M14.05 8.60 c-0.65 -1.20 -0.15 -3.10 0.80 -3.10 0.50 0 0.65 0.55 0.55 2 -0.10 2.15 -0.60 2.55 -1.35 1.10z"/>
  <path d="M17 8.15 c0 -0.55 0.30 -1.35 0.65 -1.90 0.65 -0.80 0.70 -0.75 0.45 0.70 -0.25 1.75 -1.10 2.65 -1.10 1.20z"/>
  <path d="M19 6.55 c0 -1.10 0.25 -2.15 0.50 -2.30 0.30 -0.20 0.50 0.50 0.50 1.70 0 1.10 -0.20 2.15 -0.50 2.30 -0.30 0.20 -0.50 -0.50 -0.50 -1.70z"/>
  <path d="M23 7.80 c0 -0.40 0.25 -0.90 0.50 -1.05 0.30 -0.15 0.50 0.15 0.50 0.70 0 0.60 -0.20 1.05 -0.50 1.05 -0.25 0 -0.50 -0.30 -0.50 -0.70z"/>
  <path d="M12.25 7.35 c-0.20 -0.50 -0.15 -1.15 0.20 -1.50 0.80 -0.80 1.30 0 0.70 1.25 -0.50 1.05 -0.55 1.10 -0.90 0.25z"/>
  <path d="M8.25 6 c-0.20 -0.35 0.10 -1.10 0.70 -1.65 0.65 -0.65 1.05 -0.80 1.05 -0.45 0 0.45 0.35 0.55 1 0.35 1.15 -0.35 1.40 0.65 0.40 1.65 -0.85 0.85 -1.40 0.75 -1.40 -0.25 -0.05 -0.85 -0.10 -0.85 -0.70 0 -0.50 0.65 -0.80 0.75 -1.05 0.35z"/>
  <path d="M15.25 3.50 c-0.30 -0.50 0.80 -2.50 1.35 -2.50 0.25 0 0.40 0.55 0.40 1.20 0 1.20 -1.25 2.15 -1.75 1.30z"/>
  <path d="M7 2.55 c0 -0.55 -0.15 -1.30 -0.30 -1.75 -0.20 -0.55 0 -0.80 0.70 -0.80 1.35 0 1.75 0.75 1.40 2.30 -0.35 1.40 -1.80 1.65 -1.80 0.25z"/>
  <path d="M24.85 3.20 c-0.65 -0.65 1.35 -3.20 2.50 -3.20 0.65 0 1.15 0.25 1.15 0.50 0 0.30 -0.30 0.50 -0.70 0.50 -0.40 0 -0.80 0.50 -0.90 1.10 -0.15 1.10 -1.35 1.75 -2.05 1.10z"/>
 </g>
 <g fill="#bda2da">
  <path d="M0 39.80 c0 -0.10 0.70 -0.90 1.50 -1.80 l1.50 -1.60 0 1.30 c0 0.75 -0.40 1.50 -0.95 1.80 -1 0.50 -2.05 0.65 -2.05 0.30z"/>
  <path d="M4 37.65 c0 -1.75 0.15 -2.20 0.50 -1.65 0.65 1 0.65 4 0 4 -0.25 0 -0.50 -1.05 -0.50 -2.35z"/>
  <path d="M31 39.50 c0 -0.25 0.25 -0.50 0.60 -0.50 0.30 0 0.15 -0.45 -0.35 -1 -0.50 -0.55 -0.80 -1.10 -0.65 -1.25 0.50 -0.50 1.90 1.65 1.60 2.45 -0.35 0.85 -1.20 1.10 -1.20 0.30z"/>
  <path d="M10.90 33.45 c-0.90 -0.50 -1.25 -1.95 -0.45 -1.95 0.60 0 1.65 1.40 1.45 1.95 -0.10 0.30 -0.45 0.30 -1 0z"/>
  <path d="M13.75 30 c-0.15 -0.20 0.05 -0.50 0.45 -0.65 0.80 -0.30 4.95 0.15 4.60 0.50 -0.40 0.45 -4.80 0.55 -5.05 0.15z"/>
  <path d="M10.35 24.65 c-0.55 -0.50 -0.40 -3.05 0.15 -3.40 0.30 -0.20 0.50 0.50 0.50 1.70 0 2.10 -0.10 2.30 -0.65 1.70z"/>
  <path d="M17.25 22.40 c0.55 -3.25 1.25 -3.50 1.25 -0.50 0 2.05 -0.15 2.60 -0.80 2.60 -0.65 0 -0.75 -0.35 -0.45 -2.10z"/>
  <path d="M8.35 20.65 c-0.20 -0.15 -0.35 -1 -0.35 -1.85 0.05 -1.50 0.05 -1.50 0.80 -0.55 0.40 0.55 1 0.95 1.25 0.85 0.30 -0.05 0.25 0.30 -0.05 0.90 -0.55 1.05 -1.10 1.25 -1.65 0.65z"/>
  <path d="M8.60 16.25 c-0.90 -1.90 -0.75 -2.05 0.65 -0.75 0.65 0.60 1.10 1.35 0.95 1.55 -0.45 0.80 -1 0.50 -1.60 -0.80z"/>
  <path d="M22.50 13.25 c-0.70 -0.80 -0.30 -1.75 0.80 -1.75 0.40 0 0.70 0.50 0.70 1.25 0 1.40 -0.60 1.60 -1.50 0.50z"/>
  <path d="M12 11.70 c0 -0.55 -0.30 -0.70 -1 -0.45 -0.85 0.25 -1 0.10 -1 -1.20 0 -1.95 0.45 -1.95 2.15 0 1.50 1.75 1.70 2.45 0.60 2.45 -0.40 0 -0.75 -0.35 -0.75 -0.80z"/>
  <path d="M8 9.50 c0 -0.95 0.15 -1.05 0.60 -0.60 0.45 0.45 0.45 0.75 0 1.20 -0.45 0.45 -0.60 0.35 -0.60 -0.60z"/>
  <path d="M14.25 8.90 c-0.45 -1.15 -0.10 -3.05 0.65 -3.30 0.70 -0.20 0.75 1.55 0.10 3.15 -0.35 0.90 -0.45 0.90 -0.75 0.15z"/>
  <path d="M17 7.80 c0 -0.40 0.25 -0.90 0.50 -1.05 0.30 -0.15 0.50 0.15 0.50 0.70 0 0.60 -0.20 1.05 -0.50 1.05 -0.25 0 -0.50 -0.30 -0.50 -0.70z"/>
  <path d="M19 6.55 c0 -0.80 0.25 -1.65 0.50 -1.80 0.30 -0.20 0.50 0.30 0.50 1.20 0 0.80 -0.20 1.65 -0.50 1.80 -0.30 0.20 -0.50 -0.30 -0.50 -1.20z"/>
  <path d="M12 6.80 c0 -0.40 0.25 -0.90 0.50 -1.05 0.30 -0.15 0.50 0.15 0.50 0.70 0 0.60 -0.20 1.05 -0.50 1.05 -0.25 0 -0.50 -0.30 -0.50 -0.70z"/>
  <path d="M8.30 6.05 c-0.25 -0.40 -0.10 -1 0.40 -1.45 0.85 -0.85 0.95 -0.45 0.35 1.10 -0.30 0.75 -0.50 0.80 -0.75 0.35z"/>
  <path d="M10 5.80 c0 -0.80 1.40 -2.10 1.80 -1.65 0.40 0.35 -0.70 2.35 -1.30 2.35 -0.30 0 -0.50 -0.30 -0.50 -0.70z"/>
  <path d="M7.40 3.15 c-0.55 -1.05 -0.35 -3.15 0.30 -3.15 1.10 0 1.55 2 0.65 2.85 -0.40 0.40 -0.85 0.55 -0.95 0.30z"/>
  <path d="M15.50 2.50 c0.30 -0.55 0.75 -1 1 -1 0.30 0 0.50 0.45 0.50 1 0 0.65 -0.35 1 -1 1 -0.90 0 -0.95 -0.15 -0.50 -1z"/>
  <path d="M25 2.40 c0.05 -1.60 3 -3.45 3 -1.90 0 0.30 -0.30 0.50 -0.70 0.50 -0.45 0 -0.60 0.35 -0.45 1 0.20 0.75 0 1 -0.80 1 -0.55 0 -1.05 -0.30 -1.05 -0.60z"/>
 </g>
 <g fill="#d1b5ef">
  <path d="M4 38.20 c0 -0.70 0.20 -1.15 0.50 -0.95 0.30 0.15 0.50 0.75 0.50 1.30 0 0.50 -0.20 0.95 -0.50 0.95 -0.25 0 -0.50 -0.60 -0.50 -1.30z"/>
  <path d="M1.50 38.65 c0 -0.25 0.35 -0.90 0.75 -1.45 0.75 -0.90 0.75 -0.90 0.65 0.25 -0.15 1.15 -1.40 2.20 -1.40 1.20z"/>
  <path d="M14.20 29.90 c-0.45 -0.65 0.95 -0.90 2.80 -0.45 l1.75 0.40 -2.15 0.20 c-1.20 0.15 -2.30 0.05 -2.40 -0.15z"/>
  <path d="M17 23.65 c0 -0.50 0.30 -1.30 0.65 -1.75 0.55 -0.70 0.65 -0.60 0.70 0.90 0.05 1.15 -0.20 1.70 -0.65 1.70 -0.40 0 -0.70 -0.40 -0.70 -0.85z"/>
  <path d="M8.15 19.75 c-0.15 -0.45 -0.15 -0.90 0 -1.05 0.45 -0.45 1.35 0.30 1.35 1.10 0 0.95 -0.95 0.90 -1.35 -0.05z"/>
  <path d="M9 16.75 c-0.95 -1.15 -0.35 -1.95 0.65 -0.85 0.50 0.55 0.70 1.15 0.45 1.30 -0.25 0.15 -0.75 -0.05 -1.10 -0.45z"/>
  <path d="M22.60 13.35 c-0.65 -0.75 0.05 -2.10 0.85 -1.65 0.65 0.45 0.75 1.65 0.10 2 -0.25 0.15 -0.65 0 -0.95 -0.35z"/>
  <path d="M12 11.85 c0 -0.50 -0.40 -0.85 -1 -0.85 -0.75 0 -1 -0.35 -1 -1.25 0 -1.15 0.10 -1.20 1 -0.75 0.55 0.30 1 0.85 1 1.25 0 0.35 0.30 0.75 0.65 0.90 0.50 0.20 0.50 0.35 0 0.90 -0.55 0.55 -0.65 0.50 -0.65 -0.20z"/>
  <path d="M14 7.55 c0 -1.35 0.75 -2.45 1.30 -1.95 0.35 0.40 -0.40 3.40 -0.85 3.40 -0.25 0 -0.45 -0.65 -0.45 -1.45z"/>
  <path d="M12.20 6.95 c-0.15 -0.30 -0.05 -0.80 0.25 -1.10 0.40 -0.40 0.55 -0.25 0.55 0.55 0 1.20 -0.25 1.40 -0.80 0.55z"/>
  <path d="M10 5.55 c0 -0.25 0.35 -0.55 0.75 -0.75 0.45 -0.15 0.75 0 0.75 0.45 0 0.40 -0.35 0.75 -0.75 0.75 -0.40 0 -0.75 -0.20 -0.75 -0.45z"/>
  <path d="M15.50 3.15 c0 -0.25 0.20 -0.75 0.50 -1.15 0.55 -0.90 1.25 -0.35 0.85 0.75 -0.30 0.75 -1.35 1.05 -1.35 0.40z"/>
  <path d="M7.60 2.20 c0.05 -0.45 0.45 -0.95 0.80 -1.10 0.45 -0.15 0.65 0.10 0.50 0.70 -0.05 0.45 -0.45 0.95 -0.80 1.10 -0.45 0.15 -0.65 -0.10 -0.50 -0.70z"/>
  <path d="M25.30 2.55 c-0.45 -0.65 0.75 -2.55 1.55 -2.55 0.35 0 0.65 0.25 0.65 0.50 0 0.30 -0.25 0.50 -0.50 0.50 -0.30 0 -0.50 0.35 -0.40 0.80 0.15 0.95 -0.85 1.50 -1.30 0.75z"/>
 </g>
 <g fill="#e8cafc">
  <path d="M14.55 29.50 c0.45 -0.25 1.40 -0.30 2.25 0 1.35 0.40 1.30 0.40 -0.80 0.45 -1.60 0 -2 -0.10 -1.45 -0.45z"/>
  <path d="M17 24.05 c0 -0.25 0.15 -0.85 0.30 -1.30 0.25 -0.65 0.40 -0.70 0.75 -0.15 0.65 1 0.55 1.90 -0.30 1.90 -0.40 0 -0.75 -0.20 -0.75 -0.45z"/>
  <path d="M8.20 19.85 c-0.15 -0.45 -0.20 -1.20 -0.10 -1.70 0.15 -0.80 0.25 -0.75 0.85 0.30 0.45 0.80 0.50 1.30 0.10 1.70 -0.35 0.35 -0.60 0.30 -0.85 -0.30z"/>
  <path d="M9 16.75 c-0.85 -1.05 -0.40 -1.40 0.75 -0.55 0.55 0.40 0.70 0.75 0.40 0.95 -0.30 0.20 -0.80 0 -1.15 -0.40z"/>
  <path d="M10.55 10.55 c-0.35 -0.25 -0.55 -0.80 -0.45 -1.30 0.15 -0.80 0.25 -0.75 1.05 0.15 0.95 1.05 0.55 1.85 -0.60 1.15z"/>
  <path d="M14.25 8.40 c-0.20 -0.50 -0.20 -1.30 0 -1.75 0.40 -0.85 0.40 -0.85 0.60 0 0.15 0.45 0.15 1.25 0 1.75 -0.20 0.80 -0.20 0.80 -0.60 0z"/>
  <path d="M8 1.75 c0 -0.40 0.25 -0.75 0.50 -0.75 0.30 0 0.50 0.35 0.50 0.75 0 0.40 -0.20 0.75 -0.50 0.75 -0.25 0 -0.50 -0.35 -0.50 -0.75z"/>
  <path d="M26 0.50 c0 -0.25 0.35 -0.50 0.75 -0.50 0.40 0 0.75 0.25 0.75 0.50 0 0.30 -0.35 0.50 -0.75 0.50 -0.40 0 -0.75 -0.20 -0.75 -0.50z"/>
 </g>
 <g fill="#fbeefe">
  <path d="M8 18.95 c0 -0.55 0.25 -0.85 0.50 -0.70 0.30 0.15 0.50 0.65 0.50 1.05 0 0.40 -0.20 0.70 -0.50 0.70 -0.25 0 -0.50 -0.45 -0.50 -1.05z"/>
 </g>
</svg>