<?xml version="1.0" encoding="utf-8"?>
<!DOCTYPE svg PUBLIC "-//W3C//DTD SVG 1.0//EN" "http://www.w3.org/TR/2001/REC-SVG-20010904/DTD/svg10.dtd">
<svg version="1.0" xmlns="http://www.w3.org/2000/svg" width="40px" height="40px" viewBox="0 0 40 40" preserveAspectRatio="xMidYMid meet">
 <g fill="#381d0d">
  <path d="M18.75 36 c-0.20 -0.30 -0.70 -0.50 -1.15 -0.40 -0.90 0.15 -2.45 -0.80 -3.60 -2.25 -0.65 -0.90 -0.60 -0.95 1.10 -0.80 1.05 0.10 2 0 2.20 -0.20 0.20 -0.20 1.25 -0.35 2.30 -0.35 1.75 0 1.90 0.10 1.90 1.40 0 0.80 -0.40 1.80 -0.90 2.25 -1.10 1 -1.40 1.05 -1.85 0.35z"/>
  <path d="M1.50 34.30 c0 -0.95 0.35 -2.05 0.75 -2.50 0.40 -0.40 0.75 -1.55 0.75 -2.50 0 -1.45 0.20 -1.80 1 -1.80 0.90 0 1 0.25 0.85 2.15 -0.10 1.15 -0.45 2.60 -0.75 3.20 -0.35 0.60 -0.60 1.55 -0.60 2.10 0 0.70 -0.30 1.05 -1 1.05 -0.80 0 -1 -0.35 -1 -1.70z"/>
  <path d="M23.50 30.25 c0 -1.55 0.15 -1.75 1.25 -1.75 1.45 0 1.50 0.10 0.50 2 -1.05 2 -1.75 1.90 -1.75 -0.25z"/>
  <path d="M11.40 29.15 c-1.85 -4.25 -4.30 -6.35 -5.10 -4.40 -0.15 0.40 -0.50 0.75 -0.80 0.75 -0.55 0 -0.65 -1.60 -0.20 -3.95 0.30 -1.35 0.50 -1.55 2 -1.55 1.60 0 1.70 0.10 1.70 1.75 0 1.40 0.20 1.75 1 1.75 0.80 0 1 0.35 1 1.50 0 1.15 0.20 1.50 1 1.50 0.85 0 1 0.35 1 2 0 2.30 -0.75 2.60 -1.60 0.65z"/>
  <path d="M37 26.30 c0 -1.05 -0.30 -1.20 -2.60 -1.45 -2.85 -0.35 -3.40 -0.85 -3.40 -3.20 0 -1.55 -0.10 -1.65 -1.75 -1.65 -1.20 0 -1.75 -0.25 -1.75 -0.75 0 -0.40 0.40 -0.75 0.90 -0.75 0.80 -0.05 0.80 -0.05 0 -0.55 -1.45 -0.80 -1.05 -1.35 1.25 -1.55 1.85 -0.20 2.25 -0.05 3.60 1.35 2.55 2.75 3.75 4.65 3.75 6 0 1 0.25 1.25 1.25 1.25 0.95 0 1.15 0.20 0.90 0.90 -0.70 1.80 -2.15 2.10 -2.15 0.40z"/>
  <path d="M25.70 25.30 c-0.15 -0.65 -0.20 -1.75 -0.10 -2.35 0.10 -1 0.50 -1.25 1.95 -1.35 1.55 -0.15 1.85 0.05 2.15 1 0.65 2.60 0.05 4.50 -1 2.85 -0.25 -0.40 -0.50 -0.30 -0.80 0.25 -0.65 1.20 -1.85 1 -2.20 -0.40z"/>
  <path d="M14.80 16.90 c-0.95 -3.65 0.55 -5.50 1.60 -1.95 0.80 2.60 0.75 3.05 -0.35 3.05 -0.55 0 -1.05 -0.45 -1.25 -1.10z"/>
  <path d="M5.35 6.65 c-0.20 -0.15 -0.35 -1.10 -0.35 -2.05 l0 -1.70 1.95 1.65 c1.10 0.95 2 1.85 2 2.10 0.05 0.45 -3.15 0.50 -3.60 0z"/>
 </g>
 <g fill="#5e3619">
  <path d="M0 34.25 c0 -5.40 0.05 -5.75 1 -5.75 0.65 0 1 0.35 1 1 0 0.75 0.35 1 1.25 1 1.35 0 1.75 1.30 0.70 2.35 -0.35 0.35 -0.65 1.35 -0.70 2.25 -0.25 5.20 -0.15 4.90 -1.75 4.90 l-1.50 0 0 -5.75z"/>
  <path d="M18.75 35.95 c-0.20 -0.30 0.05 -0.80 0.55 -1.20 0.55 -0.35 0.75 -0.85 0.55 -1.10 -0.25 -0.20 -0.85 0.10 -1.35 0.75 -1.20 1.45 -2.05 1.40 -3.55 -0.25 -1.70 -1.95 -3.45 -4.50 -3.45 -5.10 0 -0.95 -3.05 -5 -3.90 -5.15 -0.60 -0.15 -1.05 0.40 -1.60 1.80 -0.40 1.10 -1.05 2.05 -1.35 2.20 -0.90 0.25 -0.80 -2 0.30 -5.90 0.85 -3.15 0.95 -3.25 2.65 -3.40 1.65 -0.15 1.80 -0.05 2.10 1.45 0.15 0.85 0.30 2.45 0.30 3.50 0 1.75 0.15 1.95 1.25 1.95 0.80 0 1.25 0.30 1.25 0.75 0 0.40 0.35 0.75 0.80 0.75 0.45 0 1.45 0.45 2.25 1.05 0.85 0.60 2.25 1.05 3.35 1.05 1.50 0 2.15 -0.40 3.90 -2.25 1.25 -1.30 2.35 -3.05 2.70 -4.30 0.50 -1.95 0.60 -2.05 2.50 -2.05 l2 0 0 2.75 c0 3.05 -0.70 3.60 -1.70 1.25 -0.35 -0.85 -0.75 -1.35 -0.95 -1.20 -0.15 0.20 -0.10 0.75 0.20 1.30 0.45 0.80 0.25 1.50 -1 3.50 -0.85 1.35 -1.55 2.60 -1.55 2.75 0 0.40 -5.20 5.65 -5.60 5.65 -0.20 0 -0.50 -0.25 -0.65 -0.55z"/>
  <path d="M35.40 26.90 c-0.35 -0.65 -0.55 -1.30 -0.50 -1.50 0.05 -0.25 -0.35 -0.40 -0.90 -0.40 -0.65 0 -1 -0.35 -1 -1 0 -0.75 -0.35 -1 -1.25 -1 -1.10 0 -1.25 -0.20 -1.25 -1.75 0 -1.55 0.15 -1.75 1.75 -2.05 1.65 -0.30 1.90 -0.15 4.50 2.60 1.50 1.60 2.75 3.10 2.75 3.35 0 0.55 -2.35 2.85 -2.95 2.85 -0.30 0 -0.80 -0.50 -1.15 -1.10z m-0.45 -4.75 c-0.70 -0.95 -2.45 -1.50 -2.45 -0.80 0 0.80 0.75 1.55 1.75 1.75 1.35 0.30 1.45 0.10 0.70 -0.95z"/>
  <path d="M23 20.75 c0.95 -0.95 1.75 -1.75 1.85 -1.75 0.10 0 0.15 0.80 0.15 1.75 0 1.70 -0.05 1.75 -1.85 1.75 l-1.85 0 1.70 -1.75z"/>
  <path d="M13 10.75 c0 -2.65 0.65 -2.30 2.40 1.40 0.10 0.20 -0.40 0.35 -1.10 0.35 -1.15 0 -1.30 -0.20 -1.30 -1.75z"/>
  <path d="M4.50 5 c0 -0.55 -0.35 -1 -0.75 -1 -0.50 0 -0.75 -0.50 -0.75 -1.55 0 -1.45 0.10 -1.50 0.90 -0.90 0.45 0.40 1.15 1.15 1.55 1.65 0.40 0.55 1.15 1.40 1.65 1.90 0.85 0.85 0.85 0.90 -0.85 0.90 -1.40 0 -1.75 -0.20 -1.75 -1z"/>
 </g>
 <g fill="#754a29">
  <path d="M0 39.50 c0 -0.25 0.40 -0.70 0.90 -0.95 0.80 -0.50 0.80 -0.50 0 -0.55 -0.50 0 -0.90 -0.20 -0.90 -0.50 0 -0.25 0.35 -0.50 0.75 -0.50 0.40 0 0.75 -0.45 0.75 -1 0 -0.55 -0.35 -1 -0.75 -1 -0.40 0 -0.75 -0.20 -0.75 -0.50 0 -0.65 0.50 -0.65 2.15 0.15 1.05 0.45 1.30 0.85 1.10 1.60 -0.10 0.55 -0.25 1.60 -0.25 2.40 0 1.15 -0.20 1.35 -1.50 1.35 -0.80 0 -1.50 -0.20 -1.50 -0.50z"/>
  <path d="M19.65 35.10 c0.90 -1 1.10 -2.10 0.45 -2.10 -0.25 0 -0.95 0.55 -1.60 1.25 -0.65 0.70 -1.35 1.25 -1.60 1.25 -0.60 0 -3.35 -3.15 -3.40 -3.85 0 -0.35 -0.25 -0.65 -0.55 -0.65 -0.25 0 -0.85 -0.85 -1.30 -1.85 -0.40 -1.05 -0.90 -2 -1.10 -2.15 -0.85 -0.65 -1.95 -3 -2.30 -4.90 -0.40 -2.50 -1.05 -2.35 -1.50 0.40 -0.70 4.05 -2.10 2.20 -1.50 -1.90 0.55 -3.75 1.50 -5.10 3.45 -5.10 l1.70 0 0 3.95 c0 3.05 0.15 4.20 0.80 4.80 0.45 0.45 0.80 1 0.80 1.20 0 0.60 3.75 2.05 5.40 2.05 0.90 0 1.60 0.25 1.60 0.60 0 0.45 0.15 0.45 0.60 0 0.35 -0.35 1 -0.60 1.50 -0.60 0.90 0 2.05 -1.45 2.65 -3.35 0.30 -1 0.15 -1.15 -1.20 -1.15 -0.85 0 -1.55 -0.20 -1.55 -0.50 0 -0.25 0.20 -0.50 0.45 -0.50 0.25 0 1.35 -0.90 2.40 -2 1.75 -1.90 2.05 -2 3.90 -1.75 l2 0.30 -1.55 -0.75 c-3.30 -1.50 -2.55 -2.50 1.35 -2 2.25 0.30 2.65 0.55 3.15 1.75 0.30 0.80 0.75 1.45 1.05 1.45 0.25 0 1.70 1.35 3.10 2.95 2.80 3.15 2.95 3.90 0.90 5.25 -1.05 0.70 -1.20 0.65 -2 -0.20 -0.50 -0.55 -1.10 -1 -1.35 -1 -0.85 0 -1.90 -1.40 -1.90 -2.45 0 -0.60 -0.30 -1.05 -0.75 -1.05 -0.45 0 -0.75 -0.45 -0.75 -1.25 0 -0.70 -0.20 -1.25 -0.50 -1.25 -0.25 0 -0.50 0.80 -0.50 1.75 0 0.95 -0.20 1.75 -0.45 1.75 -0.25 0 -0.60 0.50 -0.70 1.15 -0.15 0.65 -0.25 0.40 -0.30 -0.75 -0.05 -2.60 -0.75 -2.40 -1.70 0.50 -0.65 1.90 -0.65 2.15 -0.05 1.40 0.60 -0.85 0.70 -0.90 0.70 -0.15 0 2.15 -6.30 10.35 -7.95 10.35 -0.55 0 -0.55 -0.15 0.10 -0.90z m4.25 -5.15 c2.10 -2.45 2.40 -3.35 0.65 -1.70 -1.65 1.50 -2.85 3.25 -2.30 3.25 0.20 0 0.90 -0.70 1.65 -1.55z m-8.90 0.35 c0 -0.10 -0.60 -0.60 -1.35 -1.05 l-1.40 -0.90 0.95 1.05 c0.85 1 1.80 1.45 1.80 0.90z m20.05 -8.25 c-0.75 -1 -1.35 -1.40 -2 -1.20 -0.85 0.20 -0.90 0.40 -0.40 1.20 0.55 0.90 1.30 1.25 2.75 1.40 0.45 0.05 0.35 -0.40 -0.35 -1.40z"/>
  <path d="M1.20 32.75 c-0.90 -1 -1.10 -1.90 -1.15 -5.50 l-0.10 -4.30 1.65 0.15 c1.45 0.15 1.65 0.35 2.05 2.20 0.45 2.40 -0.15 8.30 -0.90 8.50 -0.25 0.10 -1 -0.35 -1.55 -1.05z"/>
  <path d="M16.85 23.15 c-0.50 -0.50 -0.40 -3.65 0.10 -3.65 0.25 0 0.80 0.55 1.25 1.25 0.45 0.70 1.15 1.25 1.55 1.25 0.40 0 0.75 0.35 0.75 0.75 0 0.50 -0.50 0.75 -1.65 0.75 -0.95 0 -1.85 -0.15 -2 -0.35z"/>
  <path d="M0 18.25 c0 -1.55 0.15 -1.75 1.25 -1.75 1.10 0 1.25 0.20 1.25 1.75 0 1.55 -0.15 1.75 -1.25 1.75 -1.10 0 -1.25 -0.20 -1.25 -1.75z"/>
  <path d="M14 13.25 c0 -1.95 0.70 -2.30 1.50 -0.80 0.80 1.55 0.60 2.55 -0.50 2.55 -0.80 0 -1 -0.35 -1 -1.75z"/>
  <path d="M1 6.75 c0 -1.65 0.10 -1.75 1.75 -1.75 1.65 0 1.75 0.10 1.75 1.75 0 1.65 -0.10 1.75 -1.75 1.75 -1.65 0 -1.75 -0.10 -1.75 -1.75z"/>
  <path d="M7.15 7.65 c-0.90 -0.15 -1.15 -0.55 -1.15 -1.65 0 -1.40 0.05 -1.45 1.40 -0.75 0.75 0.35 1.95 0.90 2.75 1.20 2.85 1.10 0.80 1.95 -3 1.20z"/>
 </g>
 <g fill="#97663c">
  <path d="M1.70 38.90 c0.15 -0.65 0.30 -1.75 0.30 -2.50 0 -0.95 0.25 -1.40 0.80 -1.40 0.55 0 0.70 0.25 0.50 0.80 -0.15 0.45 -0.30 1.55 -0.30 2.50 0 1.25 -0.20 1.70 -0.80 1.70 -0.60 0 -0.75 -0.30 -0.50 -1.10z"/>
  <path d="M19.50 35.60 c0 -0.25 0.95 -1.35 2.15 -2.45 1.15 -1.10 2.85 -3.25 3.80 -4.80 2.35 -3.80 2.55 -3.25 0.30 0.80 -1.60 2.90 -6.25 7.70 -6.25 6.45z"/>
  <path d="M16.50 34.75 c0 -0.40 0.25 -0.75 0.55 -0.75 0.30 0 0.95 -0.50 1.45 -1.10 0.50 -0.65 1.10 -1 1.30 -0.75 0.35 0.35 -2.20 3.30 -2.90 3.35 -0.25 0 -0.40 -0.35 -0.40 -0.75z"/>
  <path d="M1.90 32.05 c-0.10 -1.10 0 -2.55 0.15 -3.25 0.20 -0.75 0.15 -1.20 -0.10 -1.05 -0.25 0.20 -0.30 -0.40 -0.10 -1.25 0.25 -1.30 0.10 -1.60 -0.80 -1.85 -0.90 -0.25 -1.05 -0.65 -1.05 -3.15 0 -1.85 0.25 -3 0.65 -3.15 0.50 -0.20 0.50 -0.30 0 -0.30 -0.80 -0.05 -0.95 -15.55 -0.15 -15.55 0.30 0 0.50 -0.55 0.50 -1.25 0 -0.70 0.30 -1.25 0.65 -1.25 0.40 0 1.20 0.55 1.85 1.25 l1.15 1.25 -1.30 0 c-1.70 0 -1.35 0.90 1 2.40 l1.80 1.20 -0.35 5.80 c-0.30 5.45 -0.25 5.75 0.45 4.50 0.60 -1.05 1.15 -1.40 2.30 -1.40 1.55 0 3.90 1.70 3.95 2.80 0 0.35 1.05 1.85 2.35 3.40 2.55 3 4.05 3.55 5.25 1.85 0.35 -0.50 1.15 -1.05 1.75 -1.25 0.55 -0.20 1.65 -1.10 2.40 -2.05 1.20 -1.60 1.50 -1.75 3.15 -1.45 1 0.15 2.40 0.05 3.10 -0.25 1.20 -0.50 1.15 -0.55 -0.35 -0.25 -1.50 0.25 -3.65 -0.60 -3.65 -1.40 0 -0.25 1.20 -0.35 2.65 -0.30 2.35 0.15 2.85 0.35 4.25 1.95 1.65 1.90 2.30 4.15 0.85 2.95 -0.40 -0.35 -1.10 -0.45 -1.55 -0.30 -0.65 0.25 -0.70 0.45 -0.20 1.05 0.50 0.65 0.40 0.75 -0.70 0.75 -1.10 0 -1.30 -0.20 -1.30 -1.45 0 -1.20 -0.25 -1.45 -1.50 -1.65 -0.80 -0.15 -1.50 -0.05 -1.50 0.20 0 0.20 0.45 0.40 1 0.40 0.80 0 1 0.35 1 1.70 0 1.75 0.65 2.30 2.55 2.30 0.50 0 0.95 -0.25 0.95 -0.55 0 -0.70 1.90 -0.15 3.65 1.10 0.75 0.55 1.60 0.85 1.85 0.70 0.30 -0.15 0.50 0.05 0.50 0.50 0 0.40 -0.60 1.05 -1.30 1.35 -1.10 0.50 -1.40 0.50 -1.90 -0.20 -0.45 -0.60 -1.55 -0.90 -3.85 -1 l-3.20 -0.15 -0.25 -2.25 -0.25 -2.25 -1.60 2.35 c-0.85 1.25 -1.70 2.70 -1.85 3.25 -0.25 0.85 -2.60 3.65 -3.05 3.65 -0.10 0 -0.10 -0.35 0.10 -0.80 0.30 -0.75 0.20 -0.75 -0.95 0 -0.70 0.45 -1.65 0.70 -2.10 0.50 -0.45 -0.15 -0.80 -0.05 -0.80 0.30 0 0.30 -0.20 0.45 -0.50 0.25 -0.25 -0.15 -0.30 -0.65 -0.15 -1.05 0.25 -0.70 0.15 -0.70 -0.75 -0.15 -0.90 0.60 -1.25 0.50 -2.55 -0.45 -0.85 -0.60 -1.75 -1.10 -2 -1.10 -0.90 0 -3.05 -3.30 -3.05 -4.65 0 -0.70 -0.25 -1.45 -0.55 -1.65 -0.30 -0.15 -0.40 -0.85 -0.25 -1.45 0.15 -0.65 0.10 -1.30 -0.20 -1.50 -0.25 -0.15 -0.60 0.35 -0.80 1.10 -0.15 0.75 -0.75 3.10 -1.30 5.15 -0.55 2.05 -1.20 4.60 -1.40 5.60 -0.35 1.85 -1.25 3.40 -2 3.40 -0.20 0 -0.50 -0.90 -0.60 -1.95z"/>
  <path d="M14.25 32.85 c-0.95 -0.75 -0.65 -1.85 0.45 -1.85 0.40 0 1.30 0.35 2.10 0.75 l1.40 0.70 -1.40 0.55 c-1.65 0.60 -1.45 0.65 -2.55 -0.15z"/>
  <path d="M12 29.95 c-0.75 -1.40 -0.35 -1.70 0.70 -0.50 0.55 0.60 0.65 1.05 0.35 1.25 -0.25 0.20 -0.75 -0.15 -1.05 -0.75z"/>
  <path d="M36.55 23.80 c-0.85 -0.90 -1 -1.30 -0.50 -1.30 1.20 0 2.05 0.80 1.85 1.75 -0.10 0.70 -0.35 0.65 -1.35 -0.45z"/>
  <path d="M15 16.75 c0 -2 1.20 -2.45 1.70 -0.60 0.50 1.85 0.35 2.35 -0.70 2.35 -0.80 0 -1 -0.35 -1 -1.75z"/>
  <path d="M11.60 10.20 c-0.35 -0.40 -0.60 -1.30 -0.50 -2 l0.15 -1.30 1.65 1.55 c0.85 0.85 1.60 1.80 1.60 2.05 0 0.75 -2.15 0.55 -2.90 -0.30z"/>
 </g>
 <g fill="#b17f51">
  <path d="M1.70 39.20 c0.15 -0.45 0.30 -1.55 0.30 -2.50 0 -0.95 0.25 -1.70 0.50 -1.70 0.30 0 0.50 1.15 0.50 2.50 0 1.95 -0.15 2.50 -0.80 2.50 -0.55 0 -0.70 -0.25 -0.50 -0.80z"/>
  <path d="M2.30 33.55 c-0.20 -0.25 0 -0.65 0.35 -0.90 0.40 -0.20 0.95 -0.85 1.25 -1.40 0.30 -0.55 0.60 -0.70 0.60 -0.35 0 1 -1.85 3.20 -2.20 2.65z"/>
  <path d="M24 31.50 c0 -0.75 3.45 -6.60 3.50 -5.90 0 0.20 -0.80 1.80 -1.75 3.50 -0.95 1.75 -1.75 2.80 -1.75 2.40z"/>
  <path d="M2.65 29.35 c0.10 -1 0.45 -2.10 0.70 -2.45 0.90 -1.15 1.10 -3.10 0.65 -6.90 -0.25 -2.35 -0.20 -5.30 0.10 -7.95 0.55 -4.15 0.55 -4.25 -0.65 -5.15 -3.65 -2.85 -4.45 -4.40 -2.20 -4.40 0.90 0 1.25 0.25 1.25 1 0 0.55 0.35 1 0.75 1 0.50 0 0.75 -0.50 0.75 -1.35 l0.05 -1.40 1.50 1.75 1.50 1.75 -1.30 0.15 c-1.50 0.20 -1.70 1.10 -0.20 1.10 1.05 0 1.05 0.15 0.75 3.85 -0.20 2.10 -0.45 4.50 -0.60 5.35 -0.20 1.45 -0.20 1.45 0.35 0.45 0.85 -1.60 3.95 -1.60 5.65 0.05 0.75 0.65 1.30 1.50 1.30 1.90 0 0.45 0.35 1.05 0.75 1.40 0.40 0.35 0.75 0.95 0.75 1.30 0 0.40 0.30 0.70 0.65 0.70 0.45 0 0.55 -0.60 0.45 -2 -0.30 -2.75 0.95 -2.65 1.95 0.15 0.80 2.05 0.85 2.10 3.35 2.25 1.90 0.10 2.60 -0.05 2.60 -0.50 0 -0.35 0.55 -1.25 1.25 -2 1 -1.10 1.55 -1.30 2.85 -1.10 0.90 0.15 2.20 0.05 2.90 -0.25 1.25 -0.55 1.25 -0.55 -0.25 -0.35 -1.55 0.20 -3.25 -0.40 -3.25 -1.20 0 -0.25 1.15 -0.40 2.50 -0.40 1.40 0.05 2.50 0.20 2.50 0.40 0 0.30 2.60 3.25 5.70 6.50 1.35 1.40 1.60 1.95 1.30 2.85 -0.65 1.60 -2.40 1.95 -3.60 0.65 -0.80 -0.85 -1.40 -1 -3.30 -0.80 -2.80 0.30 -3.60 -0.25 -3.60 -2.50 0 -1.45 -0.15 -1.70 -1.15 -1.70 -0.65 0 -1.60 0.45 -2.10 1 -0.55 0.60 -2.05 1.60 -3.40 2.25 -3.65 1.85 -5.60 1.40 -8.55 -2.10 -1.25 -1.50 -2.30 -3 -2.30 -3.35 0 -0.30 -0.55 -1.05 -1.25 -1.70 l-1.20 -1.15 -0.70 1.40 c-0.40 0.75 -0.90 2.40 -1.05 3.65 -0.50 3.25 -2.25 7.80 -3.35 8.80 -0.95 0.85 -1 0.85 -0.80 -0.95z m34.10 -3.35 c-1.05 -1.15 -0.65 -1.95 0.50 -1 1.70 1.40 0.85 0.10 -1.50 -2.35 -1.75 -1.85 -2.70 -2.50 -3.15 -2.20 -1 0.60 0.25 2.40 2.15 3.10 1.35 0.50 1.40 0.60 0.50 0.95 -0.90 0.35 -0.95 0.40 -0.10 0.75 0.45 0.20 0.85 0.65 0.85 1.05 0 0.40 0.35 0.70 0.85 0.70 0.70 0 0.70 -0.10 -0.10 -1z m-18.75 -3.25 c0 -0.40 -0.45 -0.75 -1 -0.75 -0.65 0 -0.90 0.25 -0.70 0.75 0.20 0.40 0.60 0.75 1 0.75 0.40 0 0.70 -0.35 0.70 -0.75z"/>
  <path d="M18 28.75 c0 -0.40 -0.45 -0.75 -1 -0.75 -0.55 0 -1 -0.20 -1 -0.50 0 -0.25 0.85 -0.45 1.95 -0.35 1.80 0.10 1.90 0.15 1.40 1.25 -0.60 1.25 -1.35 1.45 -1.35 0.35z"/>
  <path d="M21 27.65 c0 -0.60 0.60 -1.40 1.40 -1.90 0.75 -0.50 1.70 -1.35 2.15 -1.90 0.45 -0.55 1.05 -0.90 1.35 -0.80 0.30 0.10 -0.70 1.45 -2.20 2.95 -2.20 2.25 -2.70 2.55 -2.70 1.65z"/>
  <path d="M10.70 26.75 c-0.70 -0.70 -1.15 -1.45 -0.95 -1.70 0.15 -0.25 0 -0.65 -0.25 -0.80 -0.35 -0.20 -0.45 -0.95 -0.25 -1.75 0.15 -0.80 0.10 -1.55 -0.20 -1.75 -0.75 -0.40 -0.70 -2.90 0 -2.65 0.60 0.20 1.80 3.30 2.10 5.45 0.15 0.85 0.55 1.20 1.25 1.15 0.60 0 0.95 0.15 0.80 0.40 -0.15 0.20 0.35 0.65 1.10 0.90 0.90 0.35 1.20 0.70 0.85 1.05 -0.35 0.35 -1.25 0.10 -2.80 -0.70 -2 -1.10 -2.20 -1.10 -1.70 -0.30 0.35 0.55 1 0.95 1.45 0.95 0.50 0 0.90 0.25 0.90 0.50 0 0.85 -1 0.55 -2.30 -0.75z"/>
  <path d="M1.15 19.05 c0.20 -1.55 0.10 -1.90 -0.45 -1.70 -1.15 0.45 -0.85 -1.85 0.40 -2.80 0.80 -0.65 1.10 -1.60 1.30 -3.80 0.15 -1.70 0.40 -2.60 0.60 -2.20 0.45 0.85 -0.50 6.45 -1.10 6.45 -0.25 0 -0.30 0.60 -0.15 1.40 0.60 2.70 0.45 4.60 -0.30 4.60 -0.40 0 -0.50 -0.70 -0.30 -1.95z"/>
  <path d="M14.50 15.50 c0 -0.80 -0.20 -1.50 -0.50 -1.50 -0.25 0 -0.50 -0.80 -0.50 -1.75 0 -0.95 0.25 -1.75 0.55 -1.75 0.55 0 1.85 2.75 2.30 5.05 0.25 1.25 0.10 1.45 -0.80 1.45 -0.85 0 -1.05 -0.30 -1.05 -1.50z"/>
  <path d="M0 9.75 l0 -4.30 1.20 0.90 c0.65 0.50 1 1.05 0.70 1.20 -0.55 0.35 -0.80 1.55 -0.85 4.35 -0.05 1.15 -0.25 2.10 -0.55 2.10 -0.30 0 -0.50 -1.75 -0.50 -4.25z"/>
  <path d="M7.50 7 c0 -1.05 0.50 -1.20 2.40 -0.70 1.80 0.50 1.35 1.70 -0.65 1.70 -1.40 0 -1.75 -0.20 -1.75 -1z"/>
 </g>
 <g fill="#cfa06f">
  <path d="M2.20 37.85 c0.10 -1.30 0.30 -2.50 0.50 -2.70 0.45 -0.45 0.30 2.35 -0.20 3.85 -0.30 0.95 -0.40 0.65 -0.30 -1.15z"/>
  <path d="M25.55 28.50 c0.60 -1.10 1.20 -1.90 1.30 -1.80 0.20 0.20 -1.85 3.80 -2.20 3.80 -0.10 0 0.30 -0.90 0.90 -2z"/>
  <path d="M4.35 21.45 c-0.20 -3.70 -0.10 -8.15 0.15 -9.95 0.40 -2.95 0.35 -3.35 -0.60 -4.35 -0.60 -0.65 -1.45 -1.25 -2 -1.45 -0.50 -0.15 -0.90 -0.60 -0.90 -1 0 -0.40 -0.20 -0.70 -0.50 -0.70 -0.25 0 -0.50 -0.90 -0.50 -2 0 -3.10 1.60 -2.75 5 1 1.90 2.10 3.15 3.10 4.35 3.30 1.60 0.30 2.85 1.30 2.95 2.40 0 0.30 0.10 1.15 0.10 1.90 0.10 1.05 0.40 1.35 1.50 1.50 1.15 0.15 1.45 0.50 2.20 2.90 0.45 1.50 0.95 3.35 1.10 4.15 0.20 0.75 0.80 1.85 1.35 2.40 1.40 1.40 3.15 0.90 5.75 -1.60 1.80 -1.75 2.20 -1.95 3.30 -1.50 0.95 0.35 1.70 0.30 2.60 -0.10 1.80 -0.85 1.60 -1.15 -0.55 -0.95 -2.30 0.15 -3.70 -0.55 -2.80 -1.45 0.45 -0.45 0.95 -0.45 2.10 0.05 0.80 0.30 1.70 0.45 2 0.30 0.25 -0.15 1.45 0.85 2.65 2.25 1.15 1.40 3.05 3.45 4.15 4.50 1.55 1.50 1.80 1.95 1.10 1.95 -0.55 0 -2 -1.15 -3.35 -2.55 -1.40 -1.55 -2.60 -2.45 -2.95 -2.25 -1 0.65 -0.60 1.80 1.05 2.80 1.30 0.80 1.45 1 0.75 1.30 -0.50 0.15 -1.85 0.15 -3.10 0 -1.95 -0.30 -2.25 -0.50 -2.25 -1.60 0 -1.70 -2.65 -1.85 -4 -0.20 -1.50 1.80 -5 3.05 -7.60 2.70 -1.30 -0.20 -2.40 -0.50 -2.40 -0.65 0 -0.20 -0.80 -1.25 -1.75 -2.35 -0.95 -1.05 -1.75 -2.25 -1.75 -2.65 0 -0.70 -2.25 -3.05 -2.95 -3.05 -0.65 0 -1.45 2.35 -2.05 6 -0.35 1.75 -0.85 3.75 -1.20 4.40 -0.55 1.05 -0.70 0.30 -0.95 -5.45z"/>
 </g>
 <g fill="#e4bc8d">
  <path d="M4.80 24.35 c-0.45 -3.20 -0.45 -8.65 0 -12.85 0.40 -3.30 0.45 -3.50 0.70 -1.75 0.20 1.70 0.45 2 1.55 2.15 1.10 0.15 1.25 0.35 1.05 1.40 -0.10 0.65 0.05 1.55 0.40 1.95 0.50 0.60 0.50 0.75 -0.10 0.75 -0.75 0 -1.60 2.85 -2.20 7.65 -0.45 3.10 -1 3.40 -1.40 0.70z m1.45 -8.15 c0.70 -1 0.35 -3.30 -0.45 -3.05 -0.60 0.20 -1.10 3.85 -0.50 3.85 0.20 0 0.60 -0.35 0.95 -0.80z"/>
  <path d="M15 24 c-0.65 -1.20 -0.35 -1.25 1.25 -0.20 0.65 0.45 1.45 0.65 1.75 0.45 0.25 -0.15 0.50 -0.05 0.50 0.20 0 1 -2.95 0.60 -3.50 -0.45z"/>
  <path d="M19.25 24.50 c0.15 -0.25 0.70 -0.50 1.15 -0.55 0.50 0 0.20 -0.30 -0.65 -0.60 -0.80 -0.35 -1.85 -0.80 -2.30 -1.10 -0.95 -0.60 -3.50 -4.45 -4.40 -6.60 -0.35 -0.85 -0.95 -1.70 -1.35 -1.85 -0.40 -0.15 -0.70 -0.80 -0.70 -1.50 0 -0.70 -0.25 -1.40 -0.55 -1.55 -0.25 -0.20 -0.45 -0.95 -0.35 -1.65 0.10 -1.05 -0.10 -1.35 -1.30 -1.65 -1.40 -0.40 -7.80 -6.20 -7.80 -7.05 0 -1.10 1.45 -0.10 4.25 2.85 1.95 2 3.50 3.25 4.20 3.25 0.55 0 1.95 0.80 3.05 1.80 1.70 1.55 2.20 2.50 3.30 6.15 2.60 8.80 3.90 9.75 8.05 5.90 2.55 -2.30 2.25 -2.25 6.15 -0.95 0.45 0.15 -0.15 0.50 -1.45 0.90 -1.25 0.40 -2.70 1.15 -3.30 1.70 -2.05 1.90 -6.90 3.90 -6 2.50z m6.90 -3.95 c2.15 -2.35 0.85 -1.85 -1.40 0.50 -1.10 1.15 -1.55 1.85 -1 1.55 0.55 -0.30 1.65 -1.25 2.40 -2.05z"/>
  <path d="M36.70 23.65 c-0.65 -0.70 -1.10 -1.40 -1 -1.50 0.30 -0.30 3.30 1.95 3.30 2.45 0 0.80 -1.10 0.35 -2.30 -0.95z"/>
  <path d="M30.15 23.65 c-1.55 -0.30 -1.45 -1.80 0.10 -2.85 1.50 -1 1.95 -1 1.60 -0.05 -0.20 0.40 0.30 1.20 1.20 2 1.35 1.10 1.40 1.25 0.50 1.25 -0.55 0 -1.15 -0.20 -1.30 -0.50 -0.15 -0.25 -0.55 -0.50 -0.80 -0.50 -0.30 0 -0.35 0.25 -0.20 0.50 0.15 0.30 0.25 0.45 0.15 0.45 -0.10 -0.05 -0.65 -0.20 -1.25 -0.30z"/>
  <path d="M12.55 21.10 c-1.05 -1.55 -1.35 -2.60 -0.65 -2.60 0.40 0.05 2.15 3.60 1.90 3.90 -0.10 0.10 -0.65 -0.50 -1.25 -1.30z"/>
  <path d="M34.50 21 c0 -0.30 -0.95 -0.90 -2.05 -1.35 -1.80 -0.70 -2 -0.90 -1.30 -1.40 1.15 -0.85 0.60 -1.20 -1.55 -0.95 -2.20 0.30 -3.80 -0.50 -2.65 -1.25 0.45 -0.30 1.10 -0.30 1.60 0 0.50 0.25 1.40 0.45 2.05 0.45 1.10 0 2.95 1.55 4.85 4.15 0.55 0.70 0.55 0.85 -0.15 0.85 -0.45 0 -0.80 -0.25 -0.80 -0.50z"/>
  <path d="M9.80 17.20 c-0.20 -0.50 -0.05 -0.70 0.30 -0.60 0.75 0.25 1.15 1.40 0.50 1.40 -0.25 0 -0.65 -0.35 -0.80 -0.80z"/>
  <path d="M2.85 6.15 c-1 -0.70 -1.85 -1.55 -1.85 -1.80 0 -0.30 0.50 -0.05 1.15 0.55 0.65 0.60 1.55 1.10 2 1.10 0.90 0 1.55 0.80 0.95 1.20 -0.25 0.15 -1.25 -0.35 -2.25 -1.05z"/>
 </g>
 <g fill="#ffe6ac">
  <path d="M35.40 21.90 c-3 -3.15 -3.65 -4.35 -1.90 -3.40 0.55 0.30 1 0.70 1 0.90 0 0.20 1.05 1.55 2.30 3 3.15 3.60 2.10 3.25 -1.40 -0.50z"/>
  <path d="M32.25 23 c-0.50 -0.55 -0.70 -1 -0.40 -1 0.25 0 0.90 0.45 1.40 1 0.50 0.55 0.70 1 0.40 1 -0.25 0 -0.90 -0.45 -1.40 -1z"/>
  <path d="M17.05 20.90 c-0.40 -0.65 -0.80 -2.05 -0.90 -3.15 l-0.15 -2 0.70 2.25 c0.35 1.25 0.80 2.65 1.05 3.15 0.50 1.20 0.10 1.05 -0.70 -0.25z"/>
  <path d="M23.50 21.15 c0 -0.25 0.55 -1 1.25 -1.65 0.70 -0.65 1.25 -0.95 1.25 -0.65 0 0.25 -0.55 1 -1.25 1.65 -0.70 0.65 -1.25 0.95 -1.25 0.65z"/>
  <path d="M27 16.75 c-0.50 -0.60 -0.50 -0.75 0.15 -0.75 1.25 0 2.35 0.55 2.05 1.05 -0.40 0.70 -1.50 0.55 -2.20 -0.30z"/>
  <path d="M14.30 13 c-1.60 -3.25 -2.15 -4.05 -3.85 -5.25 -1.05 -0.80 -1.35 -1.25 -0.85 -1.25 2.05 0 6.25 5.40 5.75 7.40 -0.15 0.60 -0.45 0.35 -1.05 -0.90z"/>
  <path d="M4.25 3.50 c-1.35 -1.35 -2.25 -2.50 -1.95 -2.50 0.50 0 2.75 2.25 4.15 4.15 1.20 1.55 0.30 0.90 -2.20 -1.65z"/>
 </g>
</svg>