<?xml version="1.0" encoding="utf-8"?>
<!DOCTYPE svg PUBLIC "-//W3C//DTD SVG 1.0//EN" "http://www.w3.org/TR/2001/REC-SVG-20010904/DTD/svg10.dtd">
<svg version="1.0" xmlns="http://www.w3.org/2000/svg" width="40px" height="40px" viewBox="0 0 40 40" preserveAspectRatio="xMidYMid meet">
 <g fill="#180c06">
  <path d="M18.75 35.95 c-0.20 -0.30 -0.65 -0.40 -1.05 -0.25 -0.50 0.20 -0.70 -0.20 -0.70 -1.45 0 -1.70 0.05 -1.75 2 -1.75 1.85 0 2 0.10 2 1.40 0 2 -1.50 3.35 -2.25 2.05z"/>
  <path d="M26 24 c0 -1.95 0.05 -2 1.75 -2 1.70 0 1.75 0.05 1.75 2 0 1.90 -0.65 2.70 -1.15 1.40 -0.20 -0.50 -0.30 -0.50 -0.30 0 -0.05 0.30 -0.50 0.60 -1.05 0.60 -0.85 0 -1 -0.35 -1 -2z"/>
  <path d="M31.30 23.70 c-0.15 -0.45 -0.30 -1.55 -0.30 -2.50 0 -1.60 0.10 -1.70 1.75 -1.70 2 0 4.25 2.05 4.25 3.85 0 1.05 -0.25 1.15 -2.70 1.15 -2 0 -2.75 -0.20 -3 -0.80z"/>
 </g>
 <g fill="#2c2017">
  <path d="M18.75 36 c-0.20 -0.30 -0.75 -0.40 -1.20 -0.25 -1 0.30 -4.30 -2.70 -4.70 -4.30 -0.20 -0.75 0 -0.95 0.95 -0.95 0.85 0 1.20 0.30 1.20 0.95 0 1 2.10 1.90 2.40 1.05 0.10 -0.30 1.05 -0.50 2.15 -0.50 1.80 0 1.95 0.10 1.95 1.40 0 0.80 -0.40 1.80 -0.90 2.25 -1.10 1 -1.40 1.05 -1.85 0.35z"/>
  <path d="M1.50 34.30 c0 -0.95 0.35 -2.05 0.75 -2.50 0.40 -0.40 0.75 -1.55 0.75 -2.50 0 -1.45 0.20 -1.80 1 -1.80 0.85 0 1 0.35 1 1.90 -0.05 1 -0.35 2.40 -0.75 3.10 -0.40 0.70 -0.70 1.75 -0.75 2.40 0 0.75 -0.30 1.10 -1 1.10 -0.80 0 -1 -0.35 -1 -1.70z"/>
  <path d="M37 26.55 c0 -1.75 0.60 -2.55 1.80 -2.55 1.45 0 1.55 0.95 0.20 2.40 -1.30 1.35 -2 1.40 -2 0.15z"/>
  <path d="M26 23.75 l0 -2.75 1.75 0 c1.60 0 1.75 0.10 1.75 1.50 0 0.85 0.25 1.50 0.50 1.50 0.30 0 0.50 0.45 0.50 1 0 1.10 -2 1.45 -2 0.40 0 -0.35 -0.25 -0.25 -0.55 0.25 -0.25 0.45 -0.85 0.85 -1.20 0.85 -0.55 0 -0.75 -0.70 -0.75 -2.75z"/>
  <path d="M5 24.25 c0 -1.65 0.10 -1.75 1.75 -1.75 1.20 0 1.75 0.25 1.75 0.75 0 0.40 -0.35 0.75 -0.75 0.75 -0.40 0 -1 0.45 -1.35 1 -0.95 1.45 -1.40 1.20 -1.40 -0.75z"/>
  <path d="M31.50 21.25 c0 -1.65 0.10 -1.75 1.75 -1.75 1.75 0 2.75 1 2.75 2.80 0 0.75 -0.10 0.80 -0.85 0.10 -0.50 -0.40 -1.30 -0.90 -1.80 -1.05 -0.75 -0.30 -0.85 -0.15 -0.60 0.65 0.25 0.70 0.10 1 -0.45 1 -0.60 0 -0.80 -0.50 -0.80 -1.75z"/>
  <path d="M15.50 18.75 c0 -1.10 0.25 -1.75 0.65 -1.75 0.40 0 0.90 0.80 1.20 1.75 0.55 1.65 0.50 1.75 -0.65 1.75 -1.05 0 -1.20 -0.25 -1.20 -1.75z"/>
  <path d="M26.50 19 c0 -0.60 0.35 -1 0.90 -1.05 0.50 0 0.60 -0.15 0.25 -0.30 -1.20 -0.45 -0.65 -1.15 0.85 -1.15 1.40 0 1.50 0.15 1.50 1.75 0 1.65 -0.10 1.75 -1.75 1.75 -1.40 0 -1.75 -0.20 -1.75 -1z"/>
  <path d="M31 17.50 c0 -0.80 0.20 -1.50 0.45 -1.50 0.25 0 0.95 0.70 1.55 1.50 l1.05 1.50 -1.50 0 c-1.40 0 -1.55 -0.15 -1.55 -1.50z"/>
  <path d="M14.50 14.75 c0 -1.10 0.25 -1.75 0.65 -1.75 0.40 0 0.90 0.80 1.20 1.75 0.55 1.65 0.50 1.75 -0.65 1.75 -1.05 0 -1.20 -0.25 -1.20 -1.75z"/>
  <path d="M13 10.75 c0 -2.65 0.65 -2.30 2.40 1.40 0.10 0.20 -0.40 0.35 -1.10 0.35 -1.15 0 -1.30 -0.20 -1.30 -1.75z"/>
  <path d="M8.50 7.55 c0 -0.30 -0.75 -0.55 -1.60 -0.65 -1.40 -0.10 -1.70 -0.40 -1.80 -1.50 -0.10 -1 -0.45 -1.40 -1.15 -1.40 -0.60 0 -0.95 -0.35 -0.95 -1 0 -0.65 -0.35 -1 -1 -1 -0.65 0 -1 -0.35 -1 -1 0 -1.75 1.40 -1.10 4.35 2 1.75 1.90 3.20 3 3.90 3 0.60 0 1.50 0.45 2 1 0.90 1 0.85 1 -0.90 1 -1.05 0 -1.85 -0.20 -1.85 -0.45z"/>
 </g>
 <g fill="#412c1d">
  <path d="M0.90 38.15 c-0.75 -0.20 -0.90 -0.80 -0.90 -3.95 0 -3.40 0.10 -3.70 1 -3.70 0.60 0 1.20 0.50 1.50 1.15 0.40 0.95 0.45 0.85 0.45 -0.75 0.05 -1.25 0.30 -1.90 0.75 -1.90 1.15 0 1.35 2.10 0.30 3.75 -0.55 0.90 -0.85 1.75 -0.70 1.90 0.20 0.15 0.15 1.10 0 2.10 -0.35 1.70 -0.60 1.90 -2.40 1.40z"/>
  <path d="M18.70 35.95 c-0.15 -0.30 -0.70 -0.45 -1.20 -0.30 -0.60 0.15 -1.45 -0.35 -2.35 -1.35 -1.60 -1.70 -4.15 -5.40 -4.15 -5.95 0 -0.95 -2.75 -4.35 -3.50 -4.35 -0.55 0 -1.15 0.75 -1.65 2 -0.95 2.45 -1.85 2.60 -1.85 0.25 0 -0.95 0.20 -1.75 0.45 -1.75 0.25 0 0.55 -1.10 0.75 -2.50 0.30 -2.40 0.40 -2.50 1.85 -2.50 1.85 0 2.95 1 2.95 2.70 0 0.70 0.25 1.30 0.50 1.30 0.30 0 0.50 0.45 0.50 1 0 0.55 0.30 1 0.70 1 0.40 0 0.80 0.35 1 0.75 0.15 0.40 0.60 0.75 1.05 0.75 0.40 0 0.75 0.25 0.75 0.50 0 0.30 0.35 0.50 0.75 0.50 0.40 0 0.75 0.25 0.75 0.50 0 0.30 0.45 0.50 1 0.50 0.80 0 1 0.35 1 1.75 0 1.45 -0.20 1.75 -1.10 1.75 -0.60 0 -0.90 0.15 -0.75 0.35 0.20 0.15 1.45 0.25 2.85 0.20 2.15 -0.05 2.50 0.05 2.50 0.85 0 0.85 -1.45 2.60 -2.15 2.60 -0.15 0 -0.45 -0.25 -0.65 -0.55z m1.05 -1.50 c0.60 -0.95 -0.25 -1.15 -1.10 -0.30 -0.80 0.80 -0.80 0.85 -0.05 0.85 0.45 0 1 -0.25 1.15 -0.55z"/>
  <path d="M23.50 30.25 c0 -1.55 0.15 -1.75 1.25 -1.75 1.45 0 1.50 0.10 0.50 2 -1.05 2 -1.75 1.90 -1.75 -0.25z"/>
  <path d="M35.50 27.05 c-0.40 -0.80 -0.30 -1.05 0.90 -1.45 1.25 -0.50 1.15 -0.50 -1 -0.55 -2.05 -0.05 -2.40 -0.20 -2.40 -1.05 0 -0.75 0.35 -1 1.25 -1 1.10 0 1.20 -0.10 0.65 -0.95 -0.35 -0.55 -0.80 -0.95 -1.05 -0.90 -0.25 0.05 -0.60 -0.20 -0.70 -0.50 -0.15 -0.40 0.15 -0.65 0.75 -0.65 0.95 0 5.60 4.20 5.60 5.10 0 0.60 -2.35 2.90 -2.95 2.90 -0.30 0 -0.75 -0.45 -1.05 -0.95z"/>
  <path d="M25 26.40 c0 -0.65 0.15 -2 0.30 -3 0.30 -1.75 0.45 -1.90 2 -1.90 1.20 0 1.70 0.25 1.70 0.75 0 0.40 0.25 0.75 0.50 0.75 0.30 0 0.50 0.70 0.50 1.50 0 2.25 -1.55 1.70 -2.15 -0.75 -0.10 -0.55 -0.15 -0.30 -0.10 0.50 0.15 1.95 -0.55 3.25 -1.75 3.25 -0.70 0 -1 -0.35 -1 -1.10z"/>
  <path d="M23 20.75 c0.95 -0.95 1.75 -1.75 1.85 -1.75 0.10 0 0.15 0.80 0.15 1.75 0 1.70 -0.05 1.75 -1.85 1.75 l-1.85 0 1.70 -1.75z"/>
  <path d="M26 18.95 c0 -0.90 0.25 -1 1.35 -0.80 1.20 0.20 1.30 0.20 0.50 -0.40 -1.30 -0.95 -1.05 -1.25 1.15 -1.25 1.95 0 2 0.05 2 1.75 l0 1.75 -2.50 0 c-2.20 0 -2.50 -0.10 -2.50 -1.05z"/>
  <path d="M15 16.25 c0 -1.95 0.70 -2.30 1.50 -0.80 0.80 1.55 0.60 2.55 -0.50 2.55 -0.80 0 -1 -0.35 -1 -1.75z"/>
  <path d="M4.50 4.25 c0 -0.95 0.05 -1.75 0.15 -1.75 0.10 0 0.85 0.80 1.70 1.75 l1.55 1.75 -1.70 0 c-1.60 0 -1.70 -0.10 -1.70 -1.75z"/>
 </g>
 <g fill="#513723">
  <path d="M0 38.25 c0 -1.05 0.25 -1.75 0.60 -1.75 0.45 0 0.45 -0.15 0 -0.60 -0.80 -0.80 -0.75 -2.25 0.05 -2.55 0.50 -0.20 0.50 -0.35 0 -0.90 -0.35 -0.35 -0.65 -1.40 -0.65 -2.30 0 -1.30 0.20 -1.65 1 -1.65 0.60 0 1 0.35 1 0.80 0 0.45 0.45 1.45 1 2.20 0.90 1.25 0.90 1.50 0.30 2.15 -0.40 0.40 -0.55 0.90 -0.30 1.15 0.25 0.25 0.30 1.50 0.15 2.85 -0.25 2.20 -0.40 2.35 -1.70 2.35 -1.30 0 -1.45 -0.15 -1.45 -1.75z"/>
  <path d="M19.20 35.95 c-0.20 -0.35 -0.10 -0.75 0.20 -0.85 0.70 -0.20 0.80 -1.60 0.20 -1.60 -0.25 0 -0.85 0.45 -1.35 1 -0.50 0.55 -1.15 1 -1.40 1 -0.65 0 -3.35 -3 -3.35 -3.70 0 -0.30 -0.45 -0.85 -1 -1.20 -0.55 -0.35 -1 -1.05 -1 -1.55 0 -0.55 -0.30 -1.30 -0.65 -1.65 -1.25 -1.30 -2.35 -3.40 -2.40 -4.50 0 -1.15 0 -1.15 -0.50 0.10 -0.40 1 -0.60 1.10 -0.95 0.50 -0.40 -0.60 -0.50 -0.55 -0.50 0.35 0 0.60 -0.20 1.25 -0.50 1.40 -0.85 0.50 -1.15 -2.30 -0.55 -5.05 0.60 -2.60 0.65 -2.70 2.35 -2.70 l1.70 0 0 3.75 c0 3.45 0.10 3.75 1.05 3.75 0.55 0 1.30 0.30 1.65 0.65 2.20 2.10 3.50 2.85 4.80 2.85 0.85 0 1.50 0.20 1.50 0.45 0 0.20 0.55 0.30 1.25 0.15 1.25 -0.20 5.25 -4.10 5.25 -5.10 0 -0.25 0.35 -0.50 0.75 -0.50 0.50 0 0.75 -0.50 0.75 -1.50 0 -1.40 0.15 -1.50 1.75 -1.50 l1.75 0 0 2.80 c0 3.15 -0.85 3.50 -1.80 0.80 -0.25 -0.90 -0.65 -1.45 -0.85 -1.30 -0.60 0.60 -0.40 2.10 0.30 2.35 0.40 0.10 0.10 1 -1 2.80 -0.90 1.45 -1.65 2.75 -1.65 2.95 0 0.20 -1.20 1.55 -2.70 3 -1.90 1.90 -2.80 2.50 -3.10 2.05z"/>
  <path d="M35.70 27.15 c-0.75 -0.80 -0.75 -0.85 0.10 -1.20 0.70 -0.20 0.40 -0.40 -1.15 -0.65 -1.65 -0.30 -2.15 -0.60 -2.15 -1.35 0 -0.60 -0.35 -0.95 -1 -0.95 -0.80 0 -1 -0.35 -1 -1.75 0 -1.25 -0.20 -1.75 -0.80 -1.75 -0.50 0 -0.70 -0.30 -0.50 -0.75 0.15 -0.40 0.05 -0.75 -0.20 -0.75 -0.30 0 -0.50 -0.55 -0.50 -1.15 0 -1.10 0.15 -1.15 1.90 -0.90 1.55 0.25 1.85 0.55 2 1.70 0.10 0.85 0.45 1.35 1 1.35 1.20 0.05 6.15 5.75 5.80 6.70 -0.15 0.40 -0.80 1.10 -1.45 1.50 -1.10 0.70 -1.25 0.70 -2.05 -0.05z m-0.40 -4.75 c-0.75 -1.05 -2.80 -1.80 -2.80 -1 0.05 1 1.35 1.95 2.90 2.05 0.50 0.05 0.50 -0.20 -0.10 -1.05z"/>
 </g>
 <g fill="#5d4430">
  <path d="M0 39.55 c0 -0.25 0.35 -0.55 0.75 -0.75 0.40 -0.15 0.75 -0.50 0.75 -0.75 0 -0.30 -0.35 -0.40 -0.75 -0.25 -0.40 0.20 -0.75 0.05 -0.75 -0.25 0 -0.30 0.35 -0.55 0.75 -0.55 0.40 0 0.75 -0.45 0.75 -1 0 -0.55 -0.35 -1 -0.75 -1 -0.40 0 -0.75 -0.20 -0.75 -0.50 0 -0.25 0.20 -0.50 0.45 -0.50 0.30 0 0.65 0.25 0.80 0.50 0.15 0.30 0.75 0.50 1.35 0.50 0.80 0 0.95 0.25 0.70 1.15 -0.15 0.60 -0.30 1.70 -0.30 2.50 0 1.15 -0.20 1.35 -1.50 1.35 -0.80 0 -1.50 -0.20 -1.50 -0.45z"/>
  <path d="M19.35 36.20 c-0.20 -0.20 0.05 -0.80 0.50 -1.30 1.35 -1.50 0.05 -2.15 -1.35 -0.65 -1.30 1.35 -2.50 1.65 -2.50 0.55 0 -0.35 0.50 -0.80 1.10 -0.95 0.60 -0.20 0.95 -0.45 0.80 -0.60 -0.15 -0.20 -0.80 -0.05 -1.40 0.25 -1.90 1 -4.10 -1.85 -2.25 -2.85 0.60 -0.35 0.25 -0.80 -1.60 -2.15 l-2.40 -1.75 1.75 -0.15 c0.95 -0.10 1.80 0.05 1.90 0.35 0.10 0.30 0.50 0.55 0.85 0.55 0.35 0 0.75 0.20 0.85 0.45 0.15 0.50 2.10 0.75 5.05 0.65 1.40 -0.10 1.85 -0.30 1.85 -0.95 0 -0.50 0.70 -1.60 1.50 -2.50 1.45 -1.55 2 -3.15 1.05 -3.15 -0.25 0 -0.55 0.35 -0.75 0.75 -0.20 0.55 -1.10 0.75 -3.80 0.75 l-3.50 0 0 -1.75 c0 -1.95 0.45 -2.20 1.40 -0.75 1 1.65 3.20 1.30 5.30 -0.85 1.75 -1.85 1.80 -1.85 1.80 -0.60 0 1.15 0.15 1.20 2 1.05 2 -0.20 2 -0.20 2 1.55 0 1 -0.20 1.95 -0.50 2.10 -0.30 0.20 -0.50 -0.25 -0.50 -1.05 0 -1.05 -0.15 -1.20 -0.70 -0.75 -0.35 0.30 -0.80 1.25 -1 2.05 -0.15 0.85 -1.30 2.60 -2.55 3.95 -1.25 1.30 -2.25 2.70 -2.25 3.10 0 0.75 1.70 -1.10 3.85 -4.25 1.75 -2.50 2.10 -1.50 0.45 1.15 -0.70 1.10 -1.30 2.20 -1.30 2.45 0 0.70 -5.30 5.65 -5.65 5.30z m-2.15 -5.40 c-0.15 -0.40 -0.60 -0.60 -1.05 -0.45 -0.60 0.25 -0.60 0.35 -0.05 0.70 1 0.65 1.40 0.55 1.10 -0.25z"/>
  <path d="M1.20 32.75 c-0.90 -0.95 -1.10 -1.90 -1.15 -5.20 -0.10 -3.70 0 -4.05 0.90 -4.05 2.25 0 2.55 0.45 2.55 3.80 0 1.80 0.20 3.20 0.50 3.20 0.70 0 0.60 1.60 -0.20 2.65 -0.85 1.15 -1.35 1.05 -2.60 -0.40z"/>
  <path d="M12 29.95 c-0.35 -0.55 -0.50 -1.10 -0.40 -1.25 0.40 -0.35 2.40 1.35 2.15 1.85 -0.50 0.75 -1.20 0.50 -1.75 -0.60z"/>
  <path d="M35.30 26.75 c-0.15 -0.40 -0.60 -0.75 -1.05 -0.75 -0.40 0 -0.75 -0.35 -0.75 -0.75 0 -0.40 0.45 -0.75 1 -0.75 0.55 0 1 -0.25 1 -0.55 0 -0.25 0.25 -0.35 0.60 -0.15 0.35 0.20 0.10 -0.35 -0.50 -1.20 -1.20 -1.65 -2.60 -2.85 -1.85 -1.55 0.35 0.55 0.30 0.60 -0.35 0.10 -0.95 -0.80 -1.60 -0.25 -0.80 0.70 0.70 0.90 0.35 1.20 -1 0.80 -0.75 -0.15 -1.10 -0.65 -1.10 -1.45 0 -0.95 -0.25 -1.20 -1.25 -1.20 -0.80 0 -1.25 -0.30 -1.25 -0.75 0 -0.40 0.40 -0.75 0.90 -0.75 0.50 0 0.10 -0.40 -0.90 -0.90 -2.05 -1 -1.90 -1.90 0.25 -1.75 0.85 0.10 2.05 0.15 2.65 0.15 0.85 0 1.35 0.45 1.75 1.50 0.30 0.85 0.75 1.50 0.95 1.50 0.50 0 5.85 5.60 5.90 6.15 0 0.70 -2 2.35 -2.95 2.35 -0.50 0 -1.05 -0.35 -1.25 -0.75z"/>
  <path d="M4.50 24.75 c0 -1.40 0.20 -1.75 1 -1.75 1.10 0 1.30 1 0.50 2.55 -0.80 1.50 -1.50 1.15 -1.50 -0.80z"/>
  <path d="M8.20 21.65 l-0.40 -2.90 -0.50 1.80 c-1 3.30 -2.40 1 -1.50 -2.40 0.25 -0.90 0.70 -1.15 2 -1.15 1.55 0 1.70 0.15 1.70 1.45 0 0.85 0.25 1.65 0.50 1.80 0.30 0.15 0.50 1.20 0.50 2.30 0 1.60 -0.20 1.95 -0.95 1.95 -0.80 0 -1.05 -0.50 -1.35 -2.85z"/>
  <path d="M0 18.25 c0 -1.40 0.20 -1.75 1 -1.75 0.80 0 1 0.35 1 1.75 0 1.40 -0.20 1.75 -1 1.75 -0.80 0 -1 -0.35 -1 -1.75z"/>
  <path d="M14 13.25 c0 -1.95 0.70 -2.30 1.50 -0.80 0.80 1.55 0.60 2.55 -0.50 2.55 -0.80 0 -1 -0.35 -1 -1.75z"/>
  <path d="M11 8.45 c0 -1.45 0.10 -1.50 0.85 -0.90 2.60 2.05 2.70 2.45 0.65 2.45 -1.35 0 -1.50 -0.15 -1.50 -1.55z"/>
  <path d="M6 6.05 l0 -1.40 1.75 0.80 c2.25 1.05 2.25 2.05 0 2.05 -1.60 0 -1.75 -0.15 -1.75 -1.45z"/>
 </g>
 <g fill="#6e513a">
  <path d="M1.35 39.70 c-0.15 -0.20 -0.10 -0.75 0.20 -1.25 0.25 -0.55 0.45 -1.25 0.40 -1.60 -0.15 -1.30 0.10 -1.85 0.85 -1.85 0.60 0 0.75 0.30 0.50 1.15 -0.15 0.60 -0.30 1.70 -0.30 2.50 0 1.25 -0.85 1.80 -1.65 1.05z"/>
  <path d="M19.90 34.85 c0.60 -0.65 0.95 -1.35 0.75 -1.50 -0.20 -0.20 0.40 -0.65 1.25 -0.95 0.90 -0.35 1.60 -0.80 1.60 -1 0 -0.65 3.65 -5.95 3.90 -5.70 0.10 0.15 -0.50 1.55 -1.40 3.15 -1.80 3.25 -5.30 7.15 -6.45 7.15 -0.55 0 -0.45 -0.30 0.35 -1.15z"/>
  <path d="M16 35.05 c0 -0.25 0.50 -0.80 1.15 -1.20 0.80 -0.60 0.90 -0.80 0.35 -0.80 -0.45 -0.05 -1.05 0.20 -1.40 0.55 -0.50 0.50 -0.85 0.40 -1.70 -0.45 -0.90 -0.90 -0.95 -1.25 -0.45 -1.85 0.55 -0.60 0.85 -0.65 1.70 -0.20 0.60 0.30 1.75 0.65 2.55 0.75 2.10 0.20 2.15 0.45 0.50 2.15 -1.40 1.45 -2.70 1.95 -2.70 1.05z"/>
  <path d="M1.70 32.75 c-0.15 -0.70 -0.20 -1.95 0 -2.75 0.20 -1.15 0.05 -1.65 -0.70 -2.10 -1.05 -0.65 -1.40 -2.40 -0.50 -2.40 0.30 0 0.50 0.35 0.50 0.75 0 0.40 0.25 0.75 0.50 0.75 0.90 0 0.50 -1.45 -0.50 -1.75 -1.30 -0.40 -1.40 -2.75 -0.10 -2.75 2.45 0.05 3.10 0.55 3.10 2.55 0 1.35 0.20 1.95 0.70 1.95 0.60 0 0.65 0.30 0.20 1.65 -0.30 0.85 -0.75 1.70 -0.95 1.85 -0.20 0.15 -0.45 0.90 -0.55 1.70 -0.20 1.90 -1.25 2.25 -1.70 0.55z"/>
  <path d="M21.30 30.85 c0.30 -0.85 -0.30 -1.15 -1 -0.50 -0.55 0.60 -3.30 0.60 -3.30 0.05 0 -0.30 -0.30 -0.40 -0.70 -0.25 -0.90 0.35 -5.45 -2.75 -6.80 -4.65 -0.60 -0.85 -0.95 -1.90 -0.80 -2.35 0.20 -0.40 0.10 -1.05 -0.15 -1.35 -0.25 -0.30 -0.55 -1.20 -0.65 -2.05 -0.15 -1.25 -0.30 -1.05 -0.85 1.40 -0.45 2 -0.85 2.85 -1.40 2.85 -0.65 0 -0.75 -0.45 -0.45 -2.85 0.20 -1.60 0.55 -2.95 0.80 -3.05 0.30 -0.10 0.50 -0.75 0.50 -1.40 0 -1.05 0.20 -1.20 2 -1.20 l1.95 0 -0.10 3.90 c-0.10 4.10 0.55 5.60 2.35 5.60 0.45 0 0.80 0.40 0.80 0.95 0 1 1.20 1.45 4.25 1.60 3.55 0.15 4 0 5 -1.85 1.40 -2.55 2.50 -3.70 3.60 -3.70 1.50 0 0.90 2.25 -1.40 5.30 -2.40 3.10 -4.15 4.85 -3.65 3.55z"/>
  <path d="M12 30.05 c-0.75 -1.40 -0.60 -1.65 0.50 -0.95 1.05 0.65 1.35 1.90 0.50 1.90 -0.25 0 -0.70 -0.45 -1 -0.95z"/>
  <path d="M35.50 26.75 c0 -0.40 -0.35 -0.75 -0.75 -0.75 -0.50 0 -0.75 -0.50 -0.75 -1.30 0 -1.15 0.15 -1.30 1.30 -1.05 0.90 0.15 1.10 0.05 0.75 -0.30 -0.30 -0.30 -0.55 -0.95 -0.55 -1.45 0 -0.75 0.40 -0.60 1.95 0.90 2.05 1.85 2.20 2.80 0.65 4.10 -1.10 0.85 -2.60 0.75 -2.60 -0.15z"/>
  <path d="M16.50 21.25 c0 -2.05 0.80 -2.30 1.60 -0.50 0.30 0.70 0.85 1.25 1.25 1.25 0.35 0 0.65 0.25 0.65 0.50 0 0.30 -0.80 0.50 -1.75 0.50 -1.65 0 -1.75 -0.10 -1.75 -1.75z"/>
  <path d="M31.50 20.95 c0 -1.55 -0.05 -1.55 -1.85 -1.25 -1.05 0.15 -2.30 0.30 -2.75 0.30 -0.50 0 -0.90 0.35 -0.90 0.75 0 0.50 -0.50 0.75 -1.55 0.75 l-1.60 0 1.25 -1.60 c1.20 -1.55 1.50 -1.65 4.35 -1.65 1.65 -0.05 3.05 0.10 3.05 0.30 0 0.20 0.75 0.45 1.65 0.55 1.25 0.10 1.65 0.40 1.75 1.35 0.15 0.85 0 1.05 -0.50 0.75 -1.75 -1.10 -3.10 -0.60 -1.80 0.70 0.45 0.45 0.40 0.60 -0.25 0.60 -0.60 0 -0.85 -0.45 -0.85 -1.55z"/>
  <path d="M0.10 18.25 c0 -1.50 0.15 -1.75 1.20 -1.75 1.05 0 1.20 0.25 1.20 1.75 0 1.50 -0.15 1.75 -1.20 1.75 -1.05 0 -1.20 -0.25 -1.20 -1.75z"/>
  <path d="M27.40 17.30 c-1.40 -1.05 -1.05 -1.30 1.60 -1.20 2.60 0.10 3.40 1.05 1.40 1.60 -1.60 0.40 -2.05 0.35 -3 -0.40z"/>
  <path d="M12 9.45 c0 -1.45 0.10 -1.50 0.90 -0.90 1.95 1.55 2.10 2.45 0.35 2.45 -1.05 0 -1.25 -0.25 -1.25 -1.55z"/>
  <path d="M1 6.75 c0 -1.65 0.10 -1.75 1.75 -1.75 1.65 0 1.75 0.10 1.75 1.75 0 1.65 -0.10 1.75 -1.75 1.75 -1.65 0 -1.75 -0.10 -1.75 -1.75z"/>
  <path d="M8 7 c0 -1.10 1 -1.30 2.55 -0.50 1.50 0.80 1.15 1.50 -0.80 1.50 -1.40 0 -1.75 -0.20 -1.75 -1z"/>
 </g>
 <g fill="#7e5d40">
  <path d="M1.70 38.90 c0.15 -0.65 0.30 -1.75 0.30 -2.50 0 -0.95 0.25 -1.40 0.80 -1.40 0.55 0 0.70 0.25 0.50 0.80 -0.15 0.45 -0.30 1.55 -0.30 2.50 0 1.25 -0.20 1.70 -0.80 1.70 -0.60 0 -0.75 -0.30 -0.50 -1.10z"/>
  <path d="M19.50 35.70 c0 -0.25 0.95 -1.30 2.15 -2.45 1.15 -1.10 2.40 -2.55 2.75 -3.25 0.35 -0.70 1.10 -1.80 1.65 -2.50 0.75 -1 0.90 -1.05 0.65 -0.25 -0.80 2.35 -2.90 5.30 -4.95 7 -1.25 1 -2.25 1.65 -2.25 1.45z"/>
  <path d="M16.50 35.10 c0 -0.40 1.30 -1.60 2.50 -2.35 0.35 -0.20 0.25 0.15 -0.30 0.90 -0.95 1.30 -2.20 2.15 -2.20 1.45z"/>
  <path d="M2.10 30.80 c0.05 -1.75 0 -3.10 -0.20 -2.95 -0.50 0.25 -0.50 0.20 0.05 -1.70 0.40 -1.40 0.35 -1.60 -0.75 -1.85 -1.10 -0.30 -1.20 -0.60 -1.20 -3 0 -1.70 0.25 -2.80 0.65 -2.95 0.50 -0.20 0.50 -0.30 0 -0.30 -0.70 -0.05 -0.90 -2.05 -0.25 -2.05 0.25 0 0.70 -1.50 1.10 -3.35 0.65 -3.25 0.60 -3.35 -0.45 -4.05 -0.85 -0.60 -1.05 -1.20 -1.05 -3.15 0 -2.50 0.70 -3.15 2.15 -1.95 2.30 1.95 3.05 2.50 3.45 2.50 0.65 0 0.45 4.45 -0.40 8 -0.50 2.15 -0.55 3.30 -0.20 3.40 0.25 0.10 0.50 0.95 0.50 1.90 0 1.40 -0.20 1.70 -1.05 1.70 -0.75 0 -0.95 0.20 -0.75 0.80 0.15 0.45 0.30 1.45 0.30 2.25 0 1.10 0.25 1.45 1 1.45 0.95 0 1 0.10 0.25 1.80 -0.40 1 -0.75 2.40 -0.75 3.15 0 1.45 -1.25 3.55 -2.05 3.55 -0.35 0 -0.45 -1.25 -0.35 -3.20z"/>
  <path d="M13.75 32.50 c-0.45 -0.75 0.20 -1.50 1.30 -1.50 1.10 0 1.20 0.55 0.35 1.40 -0.75 0.75 -1.25 0.75 -1.65 0.10z"/>
  <path d="M16 32.50 c0 -0.25 0.35 -0.50 0.75 -0.50 0.40 0 0.75 0.25 0.75 0.50 0 0.30 -0.35 0.50 -0.75 0.50 -0.40 0 -0.75 -0.20 -0.75 -0.50z"/>
  <path d="M12.05 29.90 c-0.85 -1.35 -0.45 -1.65 0.65 -0.45 0.50 0.50 0.65 1.05 0.45 1.20 -0.25 0.15 -0.75 -0.15 -1.10 -0.75z"/>
  <path d="M17.35 29.70 c0.25 -0.65 0.15 -0.70 -0.65 -0.20 -0.80 0.45 -1.35 0.35 -3.30 -0.75 -3.55 -2 -4.75 -4 -4.95 -8.25 0 -0.40 -0.15 -1.10 -0.25 -1.50 -0.25 -0.65 -0.30 -0.65 -0.70 0 -0.30 0.40 -0.50 1.30 -0.55 2 l-0.05 1.25 -0.40 -1.25 c-0.20 -0.70 -0.40 -2 -0.45 -2.85 -0.05 -1.35 0.15 -1.70 1.25 -1.95 0.75 -0.20 2.15 -0.15 3.10 0.10 1.50 0.40 1.85 0.75 2.50 2.85 0.55 1.70 1 2.35 1.70 2.35 0.50 0 1.20 0.55 1.50 1.25 0.35 0.80 0.95 1.25 1.75 1.25 1.65 0 4.30 -1.20 5.50 -2.45 0.75 -0.80 1.85 -1.20 3.85 -1.40 l2.80 -0.30 0 1.80 c0 1 0.25 1.95 0.50 2.10 0.30 0.15 0.50 0.75 0.50 1.30 0 0.75 -0.30 1 -1.10 0.85 -0.95 -0.10 -1.20 -0.50 -1.30 -2 -0.20 -2.15 -0.80 -2.40 -1.65 -0.80 -0.35 0.65 -0.85 1.40 -1.15 1.70 -0.30 0.30 -1.20 1.65 -1.95 3 -1.05 1.75 -1.55 2.20 -1.85 1.70 -0.30 -0.50 -0.60 -0.55 -1.10 -0.15 -0.35 0.25 -1.35 0.65 -2.25 0.80 -1.30 0.25 -1.55 0.20 -1.30 -0.45z"/>
  <path d="M35.70 26.75 c-0.20 -0.50 -1 -0.75 -2.25 -0.75 -1.60 0 -1.95 -0.15 -1.95 -1 0 -0.55 0.35 -1 0.75 -1 0.40 0 0.75 -0.25 0.75 -0.55 0 -0.70 1.90 -0.15 3.60 1.10 1.90 1.35 2.20 1.20 0.55 -0.30 -1.20 -1.05 -1.25 -1.20 -0.45 -1.25 1.35 0 2.80 1.40 2.45 2.40 -0.65 1.85 -2.95 2.75 -3.45 1.35z"/>
  <path d="M31.50 20.25 c0 -1.50 0.15 -1.75 1.15 -1.75 1.40 0 2.35 0.85 2.35 2.20 0 0.80 -0.15 0.85 -0.60 0.40 -0.90 -0.90 -2.55 -0.75 -2.20 0.15 0.15 0.40 0.05 0.75 -0.20 0.75 -0.30 0 -0.50 -0.80 -0.50 -1.75z"/>
  <path d="M29 17 c0 -1.10 3.20 -1.05 3.40 0.05 0.10 0.60 -0.30 0.75 -1.65 0.75 -1.20 -0.05 -1.75 -0.30 -1.75 -0.80z"/>
  <path d="M1 1.25 c0 -0.70 0.30 -1.25 0.65 -1.25 0.40 0 1.20 0.55 1.85 1.25 l1.15 1.25 -1.80 0 c-1.65 0 -1.85 -0.15 -1.85 -1.25z"/>
 </g>
 <g fill="#8b6a4e">
  <path d="M2 36.20 c0 -0.70 0.25 -1.20 0.55 -1.10 0.30 0.10 0.50 0.35 0.50 0.55 -0.05 0.20 -0.05 0.70 -0.05 1.10 0 0.40 -0.20 0.75 -0.50 0.75 -0.25 0 -0.50 -0.60 -0.50 -1.30z"/>
  <path d="M21.55 33.70 c1.25 -1.35 3.05 -3.75 3.95 -5.30 2.30 -3.90 2.55 -3.25 0.30 0.75 -1.10 1.95 -2.75 4 -4.20 5.15 l-2.35 1.85 2.30 -2.45z"/>
  <path d="M16.50 35.05 c0 -0.25 0.60 -0.85 1.40 -1.30 l1.35 -0.90 -1.20 1.35 c-1.30 1.40 -1.55 1.55 -1.55 0.85z"/>
  <path d="M2 33.25 c0 -0.40 0.30 -0.75 0.70 -0.75 0.35 0 0.80 -0.45 0.95 -1.05 0.20 -0.80 0.15 -0.90 -0.45 -0.40 -0.90 0.70 -0.80 1.10 -0.90 -4.65 -0.10 -4.85 -0.45 -6.25 -1.30 -4.90 -0.25 0.40 -0.60 0.55 -0.85 0.35 -0.20 -0.25 -0.15 -0.55 0.15 -0.75 0.30 -0.20 0.65 -1.05 0.80 -1.90 0.15 -1.20 0.05 -1.55 -0.45 -1.35 -0.55 0.20 -0.65 -1.15 -0.60 -7.55 0.05 -6.80 0.15 -7.80 0.85 -7.80 0.45 0 1.35 0.60 1.95 1.35 l1.15 1.30 0 -1.70 0.05 -1.70 1.50 1.75 c1.15 1.35 1.30 1.80 0.70 1.90 -0.90 0.20 -1 1.45 -0.15 1.70 0.45 0.15 0.45 1.10 0 4.20 -0.80 5.15 -0.75 6.20 0.15 6.20 0.45 0 0.75 -0.45 0.75 -1.25 0 -1.10 0.20 -1.25 1.75 -1.25 1.45 0 1.85 0.25 2.55 1.60 0.45 0.90 1.10 1.85 1.40 2.20 1.40 1.45 2.20 2.65 2.50 3.60 0.30 0.85 1.60 1.55 2.95 1.60 0.20 0 0.35 -0.45 0.35 -1 0 -0.75 -0.35 -1 -1.25 -1 -1.10 0 -1.25 -0.20 -1.25 -1.70 0 -0.95 -0.25 -1.80 -0.55 -1.90 -0.30 -0.10 -0.65 -1.25 -0.80 -2.55 -0.25 -1.85 -0.15 -2.35 0.45 -2.35 0.50 0 1 0.85 1.40 2.40 1.40 5.45 1.65 5.80 4.20 6.10 1.25 0.15 2.30 0.10 2.30 -0.10 0 -0.20 0.40 -0.40 0.90 -0.40 0.60 0 0.70 -0.10 0.20 -0.40 -0.45 -0.35 -0.35 -0.75 0.60 -1.75 1.50 -1.60 2.30 -1.70 2.30 -0.35 0 0.65 0.35 1 1 1 0.75 0 1 0.35 1 1.25 0 0.90 0.25 1.25 1 1.25 0.65 0 1 -0.35 1 -1 0 -1.35 0.70 -1.25 1.50 0.25 0.35 0.65 1.40 1.45 2.30 1.75 0.90 0.30 1.90 0.90 2.20 1.30 0.70 0.80 1.75 1 1.25 0.20 -0.15 -0.25 -0.05 -0.50 0.20 -0.50 1.15 0 0.50 2.05 -0.75 2.60 -1.15 0.55 -1.40 0.50 -2 -0.35 -0.55 -0.75 -1.25 -0.95 -3.30 -0.85 -3.05 0.15 -3.90 -0.45 -3.90 -2.70 0 -1.60 -0.10 -1.70 -1.35 -1.40 -0.80 0.20 -1.60 0.55 -1.90 0.80 -0.35 0.35 -0.10 0.40 0.65 0.15 1.05 -0.30 1.10 -0.25 0.70 0.60 -0.85 1.50 -6.30 6.35 -6.50 5.75 -0.10 -0.40 -0.40 -0.35 -0.95 0.15 -0.95 1 -1.65 0.95 -1.65 -0.10 0 -0.75 -0.10 -0.75 -0.95 0.05 -1.15 1.05 -2.45 0.60 -1.50 -0.50 0.30 -0.40 0.50 -0.85 0.35 -0.95 -0.15 -0.15 -0.50 0.05 -0.85 0.45 -1.45 1.75 -5.80 -2.50 -5.40 -5.30 0.10 -0.80 -0.05 -1.40 -0.30 -1.40 -0.25 0 -0.35 -0.95 -0.25 -2.25 0.15 -1.25 0.10 -2.25 -0.10 -2.25 -0.45 0 -1 1.65 -2 5.75 -0.35 1.40 -0.90 3.35 -1.30 4.40 -0.40 1 -0.70 2.50 -0.70 3.30 0 0.75 -0.40 1.90 -0.95 2.45 -1.10 1.30 -1.55 1.40 -1.55 0.35z m34.50 -7.50 c-0.65 -0.70 -1.35 -1.25 -1.55 -1.25 -0.55 0 1.70 2.50 2.25 2.50 0.25 0 -0.05 -0.55 -0.70 -1.25z m-13.25 -1 l1.50 -1.20 -2.10 1 c-1.20 0.60 -2.15 1.15 -2.15 1.25 0 0.60 1.45 0.05 2.75 -1.05z m-8.75 -0.75 c-0.30 -0.55 -0.75 -1 -1 -1 -0.65 0 -0.60 0.40 0.15 1.25 0.90 1.05 1.45 0.90 0.85 -0.25z m-2.95 -3.10 c-0.25 -0.65 -0.60 -1.60 -0.75 -2.10 -0.20 -0.50 -0.45 -0.80 -0.60 -0.70 -0.30 0.30 1.10 3.90 1.50 3.90 0.15 0 0.10 -0.50 -0.15 -1.10z m-7.85 -13.70 c-2 -1.50 -2.90 -1.75 -1.35 -0.30 1.40 1.30 1.55 1.75 1.40 3.65 l-0.20 2.20 0.55 -2.40 c0.45 -2.15 0.40 -2.50 -0.40 -3.15z"/>
  <path d="M13.80 31.80 c0.35 -0.95 1.90 -1.10 1.60 -0.15 -0.15 0.30 -0.60 0.65 -1.05 0.75 -0.60 0.10 -0.75 -0.05 -0.55 -0.60z"/>
  <path d="M12 29.75 c-1 -1.20 -0.30 -1.40 0.75 -0.25 0.50 0.55 0.65 1 0.40 1 -0.30 0 -0.80 -0.35 -1.15 -0.75z"/>
  <path d="M36.25 23.50 c-0.90 -1 -0.55 -1.25 0.95 -0.70 0.85 0.30 1.15 1.70 0.40 1.70 -0.25 0 -0.85 -0.45 -1.35 -1z"/>
  <path d="M34.35 21.10 c-0.50 -0.50 -0.85 -1.30 -0.85 -1.75 0 -0.55 -0.40 -0.85 -1.25 -0.85 -0.70 0 -1.25 0.25 -1.25 0.50 0 0.30 -0.80 0.50 -1.75 0.50 -1.90 0 -2.50 -1 -0.60 -1.05 0.60 0 1.55 -0.25 2.10 -0.50 0.85 -0.40 0.75 -0.45 -0.45 -0.25 -1.85 0.25 -2.80 -0.10 -2.80 -1 0 -0.45 0.65 -0.60 2.20 -0.55 1.90 0.15 2.45 0.45 4.25 2.55 2 2.30 2.50 3.30 1.65 3.30 -0.25 0 -0.80 -0.40 -1.25 -0.90z"/>
  <path d="M7.50 7 c0 -1.05 0.50 -1.20 2.40 -0.70 1.80 0.50 1.35 1.70 -0.65 1.70 -1.40 0 -1.75 -0.20 -1.75 -1z"/>
 </g>
 <g fill="#9b7656">
  <path d="M1.70 39.20 c0.15 -0.45 0.30 -1.10 0.30 -1.50 0 -0.40 0.25 -0.70 0.50 -0.70 0.30 0 0.50 0.70 0.50 1.50 0 1.05 -0.25 1.50 -0.80 1.50 -0.55 0 -0.70 -0.25 -0.50 -0.80z"/>
  <path d="M24 31.55 c0 -0.75 2.40 -4.95 3.10 -5.35 0.25 -0.15 -0.25 1 -1.15 2.65 -1.95 3.45 -1.95 3.50 -1.95 2.70z"/>
  <path d="M2.70 29.25 c0.20 -1.10 0.60 -2.20 0.95 -2.50 0.50 -0.35 0.60 -1.45 0.45 -3.85 -0.20 -3.15 -0.15 -3.40 0.75 -3.40 0.80 0 1.05 0.45 1.30 2.25 0.35 2.55 -1.10 7.10 -2.75 8.60 -1 0.90 -1 0.85 -0.70 -1.10z"/>
  <path d="M18 28.80 c0 -0.40 0.35 -0.80 0.75 -1 0.65 -0.20 0.70 -0.10 0.25 0.70 -0.65 1.15 -1 1.30 -1 0.30z"/>
  <path d="M10.70 26.75 c-0.70 -0.70 -1.10 -1.50 -0.90 -1.80 0.15 -0.30 0 -0.75 -0.35 -1 -0.55 -0.30 -0.55 -0.65 -0.15 -1.30 0.35 -0.65 0.35 -1.25 -0.15 -2.15 -0.75 -1.45 -0.85 -2.50 -0.25 -2.50 0.50 0 1.60 3.35 1.60 4.80 0 0.50 0.60 1.55 1.35 2.35 1.15 1.15 1.20 1.35 0.40 1.05 -0.55 -0.20 -1.35 -0.60 -1.75 -0.90 -0.65 -0.50 -0.65 -0.45 0 0.45 0.40 0.55 1.10 1.25 1.50 1.60 0.40 0.35 0.55 0.65 0.35 0.65 -0.20 0 -0.95 -0.55 -1.65 -1.25z"/>
  <path d="M21 27.60 c0 -0.65 2.25 -2.60 2.95 -2.60 0.35 0 -0.05 0.70 -0.85 1.50 -1.55 1.55 -2.10 1.80 -2.10 1.10z"/>
  <path d="M35.35 26.45 c-0.70 -0.80 -1.40 -1 -3.30 -0.90 -3 0.15 -3.55 -0.20 -3.55 -2.35 0 -1.45 -0.15 -1.70 -1.15 -1.70 -0.65 0 -1.60 0.50 -2.15 1.05 -1.50 1.70 -6 3.45 -7.85 3.10 -1.70 -0.30 -5.60 -4.05 -6.15 -5.90 -0.20 -0.55 -0.85 -1.55 -1.50 -2.20 l-1.15 -1.15 -0.60 1.30 c-0.75 1.65 -1.45 1.20 -1.45 -1 0 -1.60 0.10 -1.70 1.75 -1.70 0.95 0 1.75 0.20 1.75 0.45 0 0.25 0.50 0.60 1.15 0.75 1.05 0.30 3.40 4.20 3.35 5.70 0 0.30 0.45 0.60 0.95 0.60 0.55 0 1.05 0.20 1.15 0.40 0.10 0.25 0.75 0.60 1.55 0.80 1.10 0.25 1.35 0.15 1.35 -0.60 0 -0.50 0.40 -0.90 0.90 -0.95 2.35 -0.15 3.10 -0.40 3.10 -1 0 -0.40 0.65 -0.65 1.75 -0.65 1.40 0 1.75 -0.20 1.75 -1 0 -0.75 0.35 -1 1.40 -1.05 0.75 0 1.80 -0.20 2.35 -0.45 0.80 -0.35 0.60 -0.45 -0.85 -0.40 -1.80 0.10 -3.45 -0.75 -2.80 -1.40 0.20 -0.15 1.35 -0.10 2.60 0.05 1.75 0.30 2.30 0.60 2.30 1.25 0 0.60 0.45 1 1.10 1.10 0.65 0.10 1.20 0.60 1.40 1.30 0.15 0.65 0.40 1.15 0.60 1.15 0.20 0 1.25 0.80 2.35 1.75 2 1.90 2.15 2.85 0.65 4.10 -1.10 0.85 -1.75 0.75 -2.75 -0.45z m2.15 0.30 c0 -0.80 -1.90 -2.25 -3 -2.20 l-1.25 0.05 1.40 0.50 c0.75 0.25 1.35 0.80 1.35 1.20 0 0.40 0.35 0.70 0.75 0.70 0.40 0 0.75 -0.10 0.75 -0.25z m-1.65 -3.95 c-1.50 -1.60 -2.80 -2.60 -3.20 -2.45 -0.40 0.15 -0.60 0.60 -0.45 0.95 0.15 0.40 -0.05 0.70 -0.45 0.70 -0.35 0 -0.80 -0.40 -0.90 -0.85 -0.20 -0.75 -0.25 -0.70 -0.30 0.15 -0.05 0.80 0.40 1.15 2.35 1.65 1.30 0.30 2.90 1.05 3.60 1.55 2.20 1.75 2 1.05 -0.65 -1.70z"/>
  <path d="M1 19.80 c0 -0.70 0.25 -1.40 0.50 -1.55 0.30 -0.20 0.50 0.35 0.50 1.20 0 0.85 -0.20 1.55 -0.50 1.55 -0.25 0 -0.50 -0.55 -0.50 -1.20z"/>
  <path d="M3.80 17.35 c-0.15 -0.65 0.05 -2.95 0.40 -5.10 0.75 -4.35 1.05 -3.65 -2.90 -7.20 -1.65 -1.45 -1.70 -2.55 -0.05 -2.55 0.90 0 1.25 0.25 1.25 1 0 0.65 0.35 1 1 1 0.65 0 1 0.35 1 1 0 0.65 0.35 1 1 1 1.20 0 1.25 0.65 0.40 7.30 -0.35 3.05 -0.75 4.70 -1.20 4.70 -0.30 0 -0.70 -0.55 -0.90 -1.15z"/>
  <path d="M0 10.15 c0 -2.45 0.20 -4.15 0.50 -4.15 0.65 0 0.65 6.50 0 7.50 -0.35 0.50 -0.50 -0.55 -0.50 -3.35z"/>
 </g>
 <g fill="#a9886b">
  <path d="M2.05 37.65 c-0.05 -1.45 0.20 -2.65 0.45 -2.65 0.60 0 0.60 2.85 0 4.25 -0.30 0.75 -0.45 0.30 -0.45 -1.60z"/>
  <path d="M24.90 29.75 c0.55 -1.10 1.40 -2.45 1.85 -3 0.45 -0.55 0.20 0.15 -0.55 1.50 -1.70 3.10 -2.70 4.25 -1.30 1.50z"/>
  <path d="M3.70 28.90 c0.85 -1.20 0.95 -4.65 0.35 -10.15 -0.40 -3.55 0.25 -6.75 1.35 -6.75 0.55 0 0.70 0.45 0.50 2.20 -0.25 1.95 -0.15 2.15 0.65 1.95 0.55 -0.15 0.95 -0.45 0.95 -0.70 0 -0.25 0.80 -0.45 1.75 -0.45 1.40 0 1.75 0.20 1.75 1 0 0.65 0.35 1 1 1 0.80 0 1 0.35 1 1.50 0 1 0.25 1.50 0.75 1.50 0.40 0 0.75 0.35 0.75 0.75 0 0.40 0.35 0.75 0.75 0.75 0.40 0 0.75 0.45 0.75 1 0 0.65 0.35 1 1 1 0.65 0 1 -0.35 1 -0.95 0 -0.80 0.20 -0.85 1.95 -0.40 1.90 0.50 1.95 0.50 4.15 -1.85 2.05 -2.15 2.35 -2.30 3.60 -1.80 1.05 0.35 1.70 0.30 2.70 -0.25 l1.35 -0.70 -2 -0.05 c-2.50 0 -3.75 -0.70 -2.90 -1.55 0.45 -0.45 0.95 -0.45 2.10 0.05 0.80 0.30 1.70 0.45 1.95 0.30 0.55 -0.35 5.10 4.55 5.10 5.50 0 0.35 0.40 0.75 0.95 0.95 0.50 0.15 1.30 0.70 1.80 1.25 0.85 0.90 0.85 1 0.05 1 -0.45 0 -2 -1.25 -3.50 -2.75 -1.45 -1.50 -2.95 -2.75 -3.35 -2.70 -0.50 0 -0.55 0.10 -0.05 0.30 0.30 0.10 0.50 0.45 0.35 0.70 -0.45 0.70 0.65 2.35 1.75 2.70 2.05 0.65 0.40 1.35 -2.45 1.05 -2.90 -0.35 -3.20 0.45 -0.30 0.85 1.40 0.20 1.35 0.20 -0.35 0.30 -2 0.05 -2.75 -1 -2.15 -2.95 0.50 -1.65 -2.20 -1.30 -4.25 0.50 -0.90 0.85 -2.10 1.50 -2.55 1.50 -0.50 0 -1.05 0.25 -1.25 0.60 -0.25 0.40 -0.50 0.30 -0.75 -0.40 -0.35 -0.90 -0.40 -0.90 -0.40 0 -0.05 0.80 -0.30 0.90 -2.05 0.60 -2.20 -0.35 -4.25 -2.20 -5.85 -5.30 -0.85 -1.60 -2.50 -3.45 -3.15 -3.50 -0.45 0 -1.35 2.85 -2 6.25 -0.70 3.30 -2.35 7.25 -3.10 7.25 -0.25 0 -0.10 -0.50 0.30 -1.10z"/>
  <path d="M35.80 27.05 c-0.20 -0.25 0.20 -0.35 0.80 -0.15 0.80 0.20 1 0.10 0.80 -0.45 -0.20 -0.50 0.05 -0.75 0.65 -0.75 1.20 0 1.20 0.25 0.10 1.10 -1.05 0.80 -2 0.90 -2.35 0.25z"/>
  <path d="M15.50 19.25 c0 -1.10 0.25 -1.75 0.65 -1.75 0.40 0 0.90 0.80 1.20 1.75 0.55 1.65 0.50 1.75 -0.65 1.75 -1.05 0 -1.20 -0.25 -1.20 -1.75z"/>
  <path d="M13.80 14.40 c-0.45 -1.80 -0.35 -3.90 0.25 -3.90 0.55 0 1.95 3 1.95 4.25 0 1.20 -1.85 0.90 -2.20 -0.35z"/>
  <path d="M4.50 10.90 c0 -1.50 0.65 -2.90 1.30 -2.90 0.45 0 0.70 0.60 0.70 1.75 0 1.40 -0.20 1.75 -1 1.75 -0.55 0 -1 -0.30 -1 -0.60z"/>
  <path d="M7 6.80 c0 -1.15 0.10 -1.20 1.75 -0.65 0.95 0.30 1.75 0.80 1.75 1.20 0 0.40 -0.65 0.65 -1.75 0.65 -1.50 0 -1.75 -0.15 -1.75 -1.20z"/>
  <path d="M2.40 6.10 c-0.80 -0.50 -1.40 -1.15 -1.40 -1.45 0 -0.35 -0.20 -0.65 -0.50 -0.65 -0.25 0 -0.50 -0.45 -0.50 -1 0 -0.65 0.35 -1 1 -1 0.65 0 1 0.35 1 1 0 0.65 0.35 1 1 1 0.80 0 1 0.35 1 1.50 0 0.85 -0.05 1.50 -0.10 1.45 -0.10 0 -0.75 -0.40 -1.50 -0.85z"/>
 </g>
 <g fill="#c59a73">
  <path d="M2.35 36.50 c-0.15 -0.55 -0.05 -1.15 0.20 -1.30 0.25 -0.15 0.45 0.30 0.45 1 0 1.55 -0.30 1.70 -0.65 0.30z"/>
  <path d="M4.65 26.55 c0 -0.95 0.25 -1.55 0.70 -1.55 0.80 0 0.80 0.40 -0.05 1.90 -0.65 1.20 -0.65 1.20 -0.65 -0.35z"/>
  <path d="M37.50 24.50 c-0.60 -0.40 -0.55 -0.50 0.40 -0.50 0.60 0 1.10 0.25 1.10 0.50 0 0.65 -0.55 0.65 -1.50 0z"/>
  <path d="M33 23.50 c0 -0.65 0.55 -0.65 1.50 0 0.60 0.40 0.55 0.50 -0.35 0.50 -0.65 0 -1.15 -0.20 -1.15 -0.50z"/>
  <path d="M36.05 23.25 c-0.10 -0.95 -2.65 -3.30 -3.35 -3.05 -0.45 0.20 -0.70 -0.10 -0.70 -0.75 0 -1.55 2.05 -1 3 0.80 0.40 0.85 0.95 1.65 1.20 1.80 0.25 0.20 0.30 0.65 0.15 1 -0.15 0.40 -0.30 0.45 -0.30 0.20z"/>
  <path d="M25.35 20.15 c-0.85 -0.20 -0.85 -0.30 -0.10 -1.15 0.70 -0.75 1.05 -0.80 2.55 -0.35 2.20 0.65 2.25 1.85 0.10 1.80 -0.90 -0.05 -2.05 -0.15 -2.55 -0.30z"/>
 </g>
 <g fill="#b99f8a">
  <path d="M4.80 25.95 c-0.55 -1.70 -0.70 -11.10 -0.25 -14.20 0.45 -3.35 0.45 -3.45 -0.90 -4.85 -0.75 -0.75 -1.60 -1.40 -1.85 -1.40 -0.75 0 -1.80 -2.40 -1.80 -4.10 0 -2.40 1.80 -1.80 5.25 1.85 2.20 2.25 3.50 3.25 4.35 3.25 1.55 0 3.90 2.40 3.90 4 0 1.65 1.55 5 2.30 5 0.35 0 0.80 0.85 1 1.90 1 5.45 3.25 6.45 6.90 3.05 1.95 -1.75 2.45 -1.95 3.90 -1.70 1.05 0.20 2.20 0.05 3.15 -0.45 1.55 -0.85 1.40 -0.95 -0.85 -0.80 -1.65 0.10 -3.40 -0.40 -3.40 -1 0 -0.65 1.65 -1.05 2.20 -0.50 0.25 0.25 1.10 0.50 1.80 0.50 1.35 0 3.50 1.80 3.50 2.90 0 0.35 -0.35 0.60 -0.75 0.60 -1.50 0 -1.50 1.60 0.05 2.85 l1.45 1.15 -2.85 0 c-2.70 0 -2.85 -0.05 -3 -1.35 -0.20 -2 -1.90 -2.05 -4.05 -0.20 -0.95 0.85 -2 1.55 -2.40 1.55 -0.35 0 -1 0.35 -1.50 0.75 -0.65 0.60 -1.45 0.70 -3.40 0.45 -1.40 -0.20 -2.55 -0.50 -2.55 -0.65 0 -0.20 -0.80 -1.25 -1.75 -2.35 -0.95 -1.05 -1.75 -2.25 -1.75 -2.65 0 -0.70 -2.25 -3.05 -2.95 -3.05 -0.65 0 -1.50 2.30 -2.10 5.85 -0.60 3.45 -1.25 4.90 -1.65 3.60z"/>
  <path d="M36.45 23.45 c-0.80 -0.90 -1.40 -1.70 -1.25 -1.80 0.30 -0.35 3.80 2.35 3.80 2.90 0 0.90 -1.15 0.40 -2.55 -1.10z"/>
 </g>
 <g fill="#c9b09b">
  <path d="M4.95 24.75 c0 -0.85 -0.20 -3.25 -0.35 -5.35 -0.20 -2.15 -0.20 -4.25 0 -4.75 0.25 -0.65 0.35 -0.45 0.35 0.75 0.05 1.75 0.30 1.95 1.30 0.90 0.50 -0.50 0.60 -1.10 0.30 -2.20 -0.50 -1.60 -0.30 -2.10 0.75 -2.10 0.65 0 1.25 3.60 0.65 4 -0.20 0.15 -0.80 2.30 -1.25 4.75 -0.90 4.70 -1.65 6.50 -1.75 4z"/>
  <path d="M15.15 24.25 c-0.45 -1.25 0.10 -1.35 1.10 -0.25 0.85 0.90 0.85 1 0.05 1 -0.45 0 -0.95 -0.35 -1.15 -0.75z"/>
  <path d="M19.95 24.35 c0.40 -0.50 0.10 -0.85 -1.35 -1.50 -1.90 -0.85 -4.80 -4.70 -5.40 -7.20 -0.20 -0.65 -0.75 -1.40 -1.25 -1.70 -1 -0.50 -1.35 -2.95 -0.45 -2.95 0.30 0 0.50 -0.25 0.50 -0.55 0 -0.30 -0.45 -0.40 -1 -0.20 -0.90 0.30 -1 0.15 -0.70 -0.95 0.25 -1.10 0.05 -1.35 -1.45 -2 -1.75 -0.70 -7.85 -6.10 -7.85 -6.90 0 -1 1.25 -0.15 4.20 2.85 1.95 1.95 3.60 3.25 4.25 3.25 0.55 0 1.95 0.80 3.05 1.80 1.70 1.55 2.20 2.50 3.30 6.15 1.80 6.15 2.65 7.75 4.30 7.95 1 0.10 1.90 -0.35 3.55 -1.85 1.20 -1.15 2.60 -2.05 3.05 -2.05 0.55 0 -0.10 0.80 -1.70 2.25 -1.40 1.25 -2.30 2.25 -2.05 2.25 0.25 0 0.65 -0.20 0.80 -0.50 0.15 -0.25 0.55 -0.50 0.85 -0.50 0.85 0 -0.65 1.50 -1.55 1.50 -0.45 0 -1.25 0.35 -1.75 0.75 -1.25 0.95 -2.10 1 -1.35 0.10z"/>
  <path d="M36.75 23.65 c-0.75 -0.80 -1.70 -1.90 -2.10 -2.50 -0.45 -0.65 -1.20 -1.15 -1.70 -1.15 -0.50 0 -1.05 -0.20 -1.20 -0.50 -0.15 -0.25 -0.65 -0.50 -1.05 -0.50 -0.45 0 -0.60 0.25 -0.40 0.60 0.20 0.30 0.15 0.40 -0.20 0.20 -0.30 -0.15 -0.65 -0.10 -0.85 0.20 -0.40 0.65 -2.75 0.65 -2.75 0 0 -0.25 0.35 -0.50 0.75 -0.50 1.10 0 4.85 -1.60 4.50 -1.90 -0.15 -0.20 -1.15 -0.25 -2.20 -0.15 -2 0.10 -3.80 -1.05 -2.40 -1.60 0.40 -0.15 1 -0.05 1.40 0.20 0.40 0.25 1.30 0.45 2.05 0.45 0.95 0 1.85 0.60 3.25 2.35 1.05 1.25 2.65 3.05 3.55 3.95 0.85 0.90 1.60 1.75 1.60 1.90 0 0.65 -0.95 0.20 -2.25 -1.05z"/>
  <path d="M32.30 23.60 c-0.20 -0.35 -0.95 -0.45 -1.80 -0.25 -1.25 0.25 -1.50 0.10 -1.50 -0.75 0 -0.55 0.55 -1.35 1.25 -1.80 1.45 -0.95 1.90 -1 1.60 -0.15 -0.10 0.30 0.10 1 0.50 1.45 0.40 0.45 0.65 1.15 0.55 1.45 -0.15 0.50 -0.30 0.50 -0.60 0.05z"/>
  <path d="M12.55 21.10 c-1.10 -1.60 -1.30 -2.10 -0.65 -2.10 0.45 0 2.20 3.05 1.90 3.35 -0.10 0.10 -0.65 -0.45 -1.25 -1.25z"/>
  <path d="M5.15 10 c0 -1.25 0.10 -1.75 0.20 -1.10 0.10 0.60 0.10 1.60 0 2.25 -0.10 0.60 -0.20 0.10 -0.20 -1.15z"/>
  <path d="M2.90 6.15 c-1.05 -0.70 -1.75 -1.50 -1.60 -1.75 0.15 -0.25 0.65 0 1.05 0.55 0.40 0.60 1 1.05 1.40 1.05 0.40 0 0.85 0.25 1 0.55 0.65 0.95 0 0.85 -1.85 -0.40z"/>
 </g>
 <g fill="#ddc1a8">
  <path d="M5.05 25.75 c0.05 -0.55 0.25 -1.55 0.45 -2.25 0.40 -1.20 0.40 -1.20 0.45 0.25 0 0.85 -0.20 1.85 -0.45 2.25 -0.40 0.60 -0.50 0.55 -0.45 -0.25z"/>
  <path d="M35.25 21.90 c-1.70 -1.85 -3.20 -3.10 -3.70 -3 -0.70 0.10 -0.70 0.05 -0.05 -0.35 1.10 -0.75 0.15 -1.30 -2.10 -1.30 -1.25 0 -2.15 -0.25 -2.30 -0.65 -0.15 -0.55 0.30 -0.60 2.20 -0.30 2.70 0.40 4.60 1.85 6.30 4.75 0.55 1.05 1.55 2.15 2.20 2.50 0.65 0.35 1.20 0.80 1.20 1.05 0 0.95 -1.05 0.20 -3.75 -2.70z"/>
  <path d="M31.75 23 c-0.70 -0.75 -1.10 -0.85 -1.85 -0.45 -1.25 0.65 -1.05 -0.45 0.20 -1.25 0.60 -0.35 1.25 -0.10 2.60 1.10 1.45 1.25 1.65 1.60 0.90 1.60 -0.50 0 -1.35 -0.45 -1.85 -1z"/>
  <path d="M18.15 22.40 c-0.70 -0.35 -1.50 -1.60 -2.15 -3.20 -0.55 -1.45 -1.65 -3.30 -2.50 -4.10 -1.55 -1.50 -1.85 -2.30 -1 -2.85 0.30 -0.20 0.75 0.35 1.05 1.20 0.30 0.85 0.75 1.55 1 1.55 0.60 0 0.60 -0.05 -0.30 -2.20 -0.40 -1 -0.95 -1.80 -1.15 -1.80 -0.20 0 -0.75 -0.65 -1.25 -1.45 -0.45 -0.80 -1.70 -1.80 -2.70 -2.20 -2 -0.80 -8.05 -6.60 -7.50 -7.15 0.15 -0.20 1.70 1.15 3.45 3 2.20 2.30 3.50 3.30 4.35 3.30 0.80 0 1.95 0.75 3.30 2.15 1.70 1.80 2.25 2.90 3.20 6.50 2.15 7.90 4.05 9.20 7.80 5.35 1.05 -1.10 2.40 -2 2.95 -2 0.95 0 0.90 0.05 -0.20 0.85 -0.70 0.45 -1.35 1 -1.50 1.15 -1.85 2.20 -4.65 2.95 -6.85 1.90z"/>
  <path d="M7 15 c0 -0.95 0.15 -1.05 0.60 -0.60 0.45 0.45 0.45 0.75 0 1.20 -0.45 0.45 -0.60 0.35 -0.60 -0.60z"/>
 </g>
 <g fill="#f5d8bd">
  <path d="M35.60 22.15 c-1.50 -1.60 -2.90 -3.30 -3.20 -3.80 -0.45 -0.90 -0.40 -0.90 0.80 -0.10 0.70 0.50 1.30 1.05 1.30 1.25 0 0.20 1.05 1.55 2.30 2.95 3.15 3.50 2.15 3.25 -1.20 -0.30z"/>
  <path d="M32.25 23 c-0.50 -0.55 -0.70 -1 -0.40 -1 0.25 0 0.90 0.45 1.40 1 0.50 0.55 0.70 1 0.40 1 -0.25 0 -0.90 -0.45 -1.40 -1z"/>
  <path d="M23.75 20.60 c1.10 -1.15 2.20 -2.10 2.45 -2.10 0.65 0 -2.20 2.95 -3.45 3.60 -0.55 0.30 -0.10 -0.40 1 -1.50z"/>
  <path d="M17 20.45 c-0.30 -0.55 -0.50 -1.25 -0.35 -1.60 0.10 -0.30 0.45 0.15 0.75 1.05 0.60 1.80 0.40 2.10 -0.40 0.55z"/>
  <path d="M26.95 16.65 c-0.65 -0.75 -0.55 -0.80 1 -0.50 0.90 0.20 2.25 0.35 3 0.40 l1.30 0.05 -1.25 0.40 c-2.05 0.65 -3.35 0.55 -4.05 -0.35z"/>
  <path d="M14.30 12.70 c-1.35 -2.80 -3.25 -5 -5.05 -5.75 -0.95 -0.35 -0.95 -0.40 0.10 -0.40 2.20 -0.10 5.45 3.80 6.35 7.60 0.50 2.10 0.05 1.65 -1.40 -1.45z"/>
  <path d="M4.25 3.50 c-1.35 -1.35 -2.25 -2.50 -1.95 -2.50 0.50 0 2.75 2.25 4.15 4.15 1.20 1.55 0.30 0.90 -2.20 -1.65z"/>
 </g>
 <g fill="#fff5d7">
  <path d="M36.65 23.40 c-1.85 -2.10 -1.85 -2.70 0 -0.95 1.05 0.95 1.85 1.80 1.85 1.90 0 0.50 -0.95 0 -1.85 -0.95z"/>
  <path d="M13.95 11.40 c-0.35 -0.60 -0.95 -1.70 -1.40 -2.40 -0.75 -1.20 -0.75 -1.20 0.10 -0.55 1.05 0.85 2.55 3.50 2.20 3.90 -0.15 0.10 -0.55 -0.30 -0.90 -0.95z"/>
 </g>
</svg>