<?xml version="1.0" encoding="utf-8"?>
<!DOCTYPE svg PUBLIC "-//W3C//DTD SVG 1.0//EN" "http://www.w3.org/TR/2001/REC-SVG-20010904/DTD/svg10.dtd">
<svg version="1.0" xmlns="http://www.w3.org/2000/svg" width="40px" height="40px" viewBox="0 0 40 40" preserveAspectRatio="xMidYMid meet">
 <g fill="#1c0f08">
  <path d="M35.50 36.30 c0 -0.65 -0.25 -1.30 -0.55 -1.40 -0.25 -0.10 -0.65 -1.10 -0.80 -2.30 -0.15 -1.15 -0.50 -2.10 -0.70 -2.10 -0.25 0 -0.45 -0.60 -0.45 -1.30 0 -0.70 -0.35 -1.60 -0.75 -2 -0.75 -0.80 -1.05 -4.20 -0.35 -4.20 0.65 0 1.65 2.05 3.45 7.20 2.45 7.10 2.50 7.30 1.20 7.30 -0.80 0 -1.05 -0.30 -1.05 -1.20z"/>
  <path d="M13.50 26.45 l0 -2.10 3 0.30 c1.75 0.20 3.10 0.15 3.25 -0.15 0.15 -0.30 1.10 -0.50 2.05 -0.50 1.60 0 1.70 0.10 1.70 1.65 0 2.50 -0.70 2.85 -5.60 2.85 l-4.40 0 0 -2.05z"/>
  <path d="M24.50 22.30 c0 -2.10 1.10 -3.30 3.05 -3.30 1.30 0 1.45 -0.15 1.45 -1.50 0 -2.65 1.30 -1.75 2.10 1.50 0.70 2.95 0.70 3 -0.35 3 -0.55 0 -1.40 0.45 -1.90 1 -0.55 0.65 -1.45 1 -2.60 1 -1.65 0 -1.75 -0.10 -1.75 -1.70z"/>
  <path d="M0 15.55 c0 -0.75 0.55 -1 2.90 -1.35 1.55 -0.20 3.95 -0.30 5.25 -0.25 2.45 0.15 3.85 -0.50 3.85 -1.75 0 -0.40 -0.40 -0.70 -0.90 -0.70 -1.45 0 -4.15 -2.15 -4.90 -3.90 -0.60 -1.45 -0.60 -1.70 0.15 -1.95 0.40 -0.15 1.20 -0.05 1.70 0.25 0.50 0.35 1.60 0.60 2.45 0.60 1.15 0 1.50 0.20 1.50 1 0 0.85 0.35 1 2 1 1.85 0 2 0.10 2 1.40 0 0.75 -0.15 2.15 -0.30 3.15 l-0.30 1.85 -3.60 0.50 c-1.95 0.30 -5.40 0.70 -7.65 0.80 -3.80 0.25 -4.15 0.20 -4.15 -0.65z"/>
  <path d="M20.35 13.65 c-0.55 -0.50 -0.40 -3.60 0.15 -4.70 0.70 -1.25 3.55 -1.30 4.65 -0.05 1 1.10 1.10 3.65 0.25 4.50 -0.65 0.65 -4.50 0.85 -5.05 0.25z"/>
  <path d="M28 11 c0 -1.10 -0.20 -2 -0.50 -2 -0.25 0 -0.50 -0.80 -0.50 -1.75 0 -1.55 -0.15 -1.75 -1.25 -1.75 -0.90 0 -1.25 -0.25 -1.25 -0.95 0 -0.60 -0.55 -1.05 -1.60 -1.35 -1.30 -0.40 -1.70 -0.80 -1.80 -1.85 -0.15 -1.05 0.05 -1.35 0.80 -1.35 0.55 0 1.10 0.35 1.30 0.75 0.15 0.40 0.60 0.75 1 0.75 0.45 0 1.15 0.55 1.60 1.25 1 1.50 2 1.60 3.40 0.30 1.15 -1.10 3.80 -0.90 3.80 0.25 0 1.15 -1 3.30 -2.30 4.80 -1 1.20 -1.15 1.85 -0.90 3.20 0.25 1.50 0.20 1.70 -0.75 1.70 -0.90 0 -1.05 -0.30 -1.05 -2z"/>
  <path d="M15.85 4.55 c0.15 -0.55 0.80 -1.45 1.45 -2.10 0.65 -0.60 1.20 -1.40 1.20 -1.80 0 -0.35 0.45 -0.65 1 -0.65 0.75 0 1 0.35 1 1.25 0 1 -0.25 1.25 -1.25 1.25 -1.05 0 -1.25 0.25 -1.25 1.50 0 1.25 -0.20 1.50 -1.20 1.50 -0.95 0 -1.15 -0.20 -0.95 -0.95z"/>
 </g>
 <g fill="#34170b">
  <path d="M35.20 36.25 c-0.30 -1.60 -0.45 -1.75 -1.95 -1.75 -1.95 0 -2.20 -0.50 -2.60 -4.90 l-0.30 -3.15 1.95 0.15 c1.90 0.15 1.95 0.20 2.75 3.15 0.40 1.65 1.15 3.85 1.60 4.85 1.10 2.45 1.05 3.40 -0.15 3.40 -0.70 0 -1.05 -0.45 -1.30 -1.75z"/>
  <path d="M9.60 29.15 c0.15 -4.70 0.20 -4.85 1.40 -5.15 1 -0.25 1.30 -0.65 1.50 -2.25 l0.25 -2 2.65 -0.15 2.60 -0.15 0 1.85 c0 1.50 0.15 1.75 0.60 1.30 0.35 -0.35 1.05 -0.60 1.55 -0.60 0.55 0 2.25 -1.35 3.80 -3 2.35 -2.45 3.15 -3 4.45 -3 l1.60 0 0 3.20 c0 2.45 -0.25 3.45 -1.05 4.50 -1.05 1.35 -5.60 3.85 -8.15 4.50 -0.70 0.15 -1.30 0.65 -1.30 1 0 0.75 -1.05 1.30 -2.60 1.30 -0.55 0 -1.70 0.80 -2.55 1.75 -1.15 1.35 -1.90 1.75 -3.20 1.75 l-1.70 0 0.15 -4.85z m11.95 -3 c0.60 -0.80 0.60 -0.85 -0.05 -0.35 -0.40 0.35 -1.20 0.70 -1.75 0.85 -0.95 0.20 -0.95 0.25 0.05 0.30 0.60 0 1.40 -0.35 1.75 -0.80z m6.15 -4.90 c0.15 -0.45 0 -0.60 -0.45 -0.45 -0.35 0.15 -0.80 0.60 -0.95 0.95 -0.15 0.45 0 0.60 0.45 0.45 0.35 -0.15 0.80 -0.60 0.95 -0.95z"/>
  <path d="M7 17.60 c0 -2.45 0.50 -3.10 2.55 -3.40 1.25 -0.20 2 -0.65 2.20 -1.25 0.35 -1.15 1.25 -1.25 1.25 -0.20 0 0.40 0.25 0.75 0.50 0.75 0.30 0 0.50 -0.35 0.50 -0.75 0 -0.45 -0.85 -1 -2.30 -1.35 -1.75 -0.50 -2.80 -1.20 -4.10 -2.80 -0.95 -1.15 -1.65 -2.25 -1.50 -2.35 0.10 -0.15 2.25 -0.30 4.80 -0.40 l4.55 -0.15 0.35 2.65 c0.25 2.05 0.15 2.80 -0.50 3.40 -0.45 0.45 -0.80 1.15 -0.80 1.55 0 0.40 -0.20 0.70 -0.50 0.70 -0.25 0 -0.50 0.75 -0.50 1.65 0 2.40 -0.55 2.90 -3.65 3.20 l-2.85 0.30 0 -1.55z"/>
  <path d="M20 11.35 c0 -3.10 0.55 -3.85 2.85 -3.85 1.55 0 1.65 0.10 1.65 1.85 0 1.75 -0.05 1.80 -0.95 0.95 -0.95 -0.85 -1 -0.85 -1.55 0.15 -0.60 1.20 -0.30 2.05 0.80 2.05 0.40 0 0.70 0.35 0.70 0.75 0 0.50 -0.55 0.75 -1.75 0.75 l-1.75 0 0 -2.65z"/>
  <path d="M28 11.55 c0 -1.25 -0.25 -2.05 -0.75 -2.25 -0.45 -0.15 -0.75 -0.95 -0.75 -2.05 0 -1.55 -0.15 -1.75 -1.25 -1.75 -1.15 0 -1.25 -0.20 -1.25 -2 0 -1.90 0.10 -2 1 -1.50 0.55 0.30 1 0.85 1 1.25 0 0.85 2.25 1.05 2.75 0.25 0.30 -0.50 4.25 -0.70 4.25 -0.25 0 0.80 -1.70 4.15 -2.55 5.10 -0.85 0.85 -1 1.45 -0.70 3.10 0.30 1.85 0.25 2.05 -0.70 2.05 -0.90 0 -1.05 -0.30 -1.05 -1.95z m2.30 -4.90 c0.55 -0.60 0.65 -0.90 0.25 -1.05 -0.65 -0.20 -2.05 0.80 -2.05 1.45 0 0.70 0.85 0.50 1.80 -0.40z"/>
 </g>
 <g fill="#34291c">
  <path d="M35.50 36.75 c0 -2 1.20 -2.45 1.70 -0.60 0.50 1.85 0.35 2.35 -0.70 2.35 -0.80 0 -1 -0.35 -1 -1.75z"/>
  <path d="M33.75 31.50 c-0.20 -1.35 -0.55 -2.60 -0.80 -2.80 -0.60 -0.35 -0.55 -3.20 0.05 -3.20 0.55 0 0.80 0.55 2.40 5.40 l1.05 3.10 -1.15 0 c-1.05 0 -1.25 -0.30 -1.55 -2.50z"/>
  <path d="M17 29.50 c-0.60 -0.40 -0.60 -0.50 0.15 -0.80 0.45 -0.15 0.85 -0.60 0.85 -1 0 -0.40 0.50 -0.70 1.30 -0.70 0.70 0 1.90 -0.45 2.60 -1.05 l1.35 -1.05 0.15 1.40 c0.15 0.95 -0.10 1.60 -0.75 2.05 -0.50 0.35 -1.15 0.85 -1.50 1.15 -0.75 0.60 -3.15 0.65 -4.15 0z"/>
  <path d="M9 25.75 c0 -1.65 0.10 -1.75 1.75 -1.75 1.80 0 2.50 1.10 1 1.70 -0.40 0.15 -0.75 0.60 -0.75 1.05 0 0.40 -0.45 0.75 -1 0.75 -0.80 0 -1 -0.35 -1 -1.75z"/>
  <path d="M30.30 23.90 c-0.15 -0.65 -0.30 -1.75 -0.30 -2.50 0 -0.80 -0.20 -1.40 -0.45 -1.40 -0.45 0 -1.55 -4.85 -1.55 -6.85 0 -0.80 0.30 -1.15 1 -1.15 0.80 0 1 0.35 1 1.65 0.05 2 1.10 6.50 2.20 9.05 1 2.40 1.05 2.30 -0.40 2.30 -0.80 0 -1.30 -0.35 -1.50 -1.10z"/>
  <path d="M0 15.80 c0 -0.70 1.05 -1.30 2.30 -1.30 0.40 0 0.70 0.45 0.70 1 0 0.80 -0.35 1 -1.50 1 -0.95 0 -1.50 -0.25 -1.50 -0.70z"/>
  <path d="M12.30 13.70 c-0.20 -0.45 -0.15 -1 0 -1.15 0.20 -0.15 0.45 0 0.55 0.35 0.15 0.30 0.45 0.60 0.70 0.60 0.80 0 0.45 -1.05 -0.65 -2.05 l-1.15 -0.95 1.40 0.30 c1.05 0.25 1.35 0.10 1.35 -0.50 0 -0.45 -0.40 -0.80 -0.85 -0.80 -0.65 0 -0.95 -0.45 -1.05 -1.80 -0.10 -1.40 0.05 -1.75 0.60 -1.55 0.35 0.15 1.15 -0.05 1.70 -0.45 0.95 -0.65 1 -0.55 1.35 2.10 0.15 1.50 0.20 3.65 0 4.75 -0.30 1.80 -0.45 1.95 -2 1.95 -1.05 0 -1.75 -0.30 -1.95 -0.80z"/>
  <path d="M22.50 13.10 c0 -0.20 0.45 -0.65 1 -1 1 -0.60 1 -0.65 0.15 -1.80 -0.65 -0.85 -1.05 -1.05 -1.50 -0.70 -0.50 0.40 -0.65 0.25 -0.65 -0.55 0 -0.85 0.30 -1.05 1.75 -1.05 1.40 0 1.75 0.20 1.75 1 0 0.55 0.25 1 0.50 1 0.30 0 0.50 0.80 0.50 1.75 0 1.65 -0.10 1.75 -1.75 1.75 -0.95 0 -1.75 -0.15 -1.75 -0.40z"/>
  <path d="M6.85 7.45 c-1.30 -0.75 -1.05 -1.95 0.40 -1.95 0.90 0 1.25 0.25 1.25 0.95 0 1.25 -0.55 1.60 -1.65 1z"/>
  <path d="M27.50 4.75 c0 -0.75 2.30 -2.20 3.60 -2.25 1.45 0 2.30 0.80 1.55 1.55 -0.55 0.55 -5.15 1.20 -5.15 0.70z"/>
  <path d="M23.50 3.50 c0 -0.25 -0.50 -0.50 -1.15 -0.50 -0.65 0 -1.40 -0.25 -1.75 -0.60 -0.45 -0.45 -0.60 -0.40 -0.60 0.25 0 0.65 -0.45 0.85 -1.80 0.85 l-1.80 0 1.45 -1.70 c1.05 -1.30 1.80 -1.75 3.05 -1.75 0.85 -0.05 1.60 0.20 1.60 0.50 0 0.25 0.70 0.75 1.50 1 1.75 0.65 2.15 2.45 0.50 2.45 -0.55 0 -1 -0.20 -1 -0.50z"/>
 </g>
 <g fill="#4d2310">
  <path d="M0.50 38.75 c0 -1.10 0.20 -1.25 2 -1.25 1.80 0 2 0.15 2 1.25 0 1.15 -0.20 1.25 -2 1.25 -1.80 0 -2 -0.10 -2 -1.25z"/>
  <path d="M17 38.65 c-0.30 -0.80 -0.75 -1.80 -1 -2.25 -0.30 -0.50 -0.50 -1.70 -0.50 -2.70 0 -1.80 0 -1.85 -1 -0.95 -0.55 0.50 -1.10 1.30 -1.25 1.80 -0.25 0.70 -0.80 0.95 -1.95 0.95 -1.60 0 -1.70 -0.10 -2 -2.30 -0.15 -1.30 -0.30 -3 -0.30 -3.75 0 -1.30 -0.15 -1.45 -1.75 -1.45 -1.65 0 -1.75 -0.10 -1.75 -1.70 0 -0.90 0.45 -2.25 1 -2.95 1.35 -1.70 1.25 -2.35 -0.25 -2.35 -1.05 0 -1.25 -0.25 -1.25 -1.50 0 -0.85 0.35 -2.30 0.70 -3.25 0.65 -1.55 0.95 -1.75 2.50 -1.75 2.05 0 2.10 0.10 0.95 1.80 l-0.80 1.25 1.45 -0.35 c1.80 -0.45 2.20 -1 2.20 -3.05 0 -0.90 0.25 -1.65 0.50 -1.65 0.30 0 0.50 0.25 0.50 0.55 0 0.30 0.35 0.45 0.75 0.25 0.65 -0.20 0.70 0.10 0.45 1.85 -0.40 2.35 -1.30 3.45 -3.80 4.55 -1.55 0.70 -1.40 0.70 3 0.45 l4.60 -0.30 0 1.30 0 1.25 1.95 -0.95 c1.80 -0.85 6.05 -5.10 6.05 -6 0 -0.25 0.45 -0.45 1 -0.45 0.85 0 1 -0.35 1 -2.25 0 -1.60 0.20 -2.25 0.70 -2.25 0.95 0 1.20 1.45 1.25 7.40 l0.05 5.10 -1.55 0 c-1.45 0 -1.50 -0.05 -0.75 -1.10 0.45 -0.60 0.80 -1.90 0.80 -2.85 l0 -1.75 -2.95 3.10 c-1.60 1.70 -3.30 3.10 -3.75 3.10 -0.45 0 -1.35 0.30 -1.95 0.70 -0.60 0.40 -2.65 0.85 -4.60 1 -1.90 0.20 -3.70 0.35 -4 0.40 -0.30 0.05 -0.45 1.50 -0.35 3.60 l0.20 3.55 1.40 -1.65 c1.25 -1.55 3.55 -2.55 6.15 -2.75 0.45 -0.05 0.85 -0.25 0.85 -0.45 0 -0.20 0.25 -0.40 0.50 -0.40 0.30 0 0.50 0.70 0.50 1.50 0 0.85 0.45 3.15 1 5.10 1.55 5.65 1.50 5.90 -1.50 5.90 -2.30 0 -2.55 -0.10 -3 -1.35z m-1.20 -16.90 c0.90 -0.75 0.90 -0.75 -0.25 -0.65 -0.70 0.10 -1.30 0.45 -1.45 0.80 -0.25 0.85 0.50 0.75 1.70 -0.15z"/>
  <path d="M24.10 38.75 c-0.35 -0.70 -0.60 -2.20 -0.60 -3.25 0 -1.90 0.10 -2 1.50 -2 0.85 0 1.50 -0.25 1.50 -0.55 0 -0.30 0.80 -0.45 1.90 -0.35 1.60 0.15 1.85 0.35 2 1.55 0.10 0.75 0.45 1.35 0.90 1.35 0.50 0 0.70 0.60 0.70 1.95 0 2.25 -0.60 2.55 -4.80 2.55 -2.25 0 -2.60 -0.15 -3.10 -1.25z"/>
  <path d="M30.60 31.80 c-0.35 -1.75 -0.60 -4.10 -0.60 -5.25 0 -2.10 0 -2.10 1.65 -1.95 1.55 0.15 1.65 0.30 3 4.55 0.80 2.45 1.30 4.75 1.15 5.15 -0.15 0.45 -1 0.70 -2.45 0.70 l-2.20 0 -0.55 -3.20z m2.85 -1.35 c-0.85 -2.45 -1.65 -3.10 -1.20 -0.95 0.55 3 0.80 3.65 1.30 3.15 0.30 -0.30 0.25 -1.15 -0.10 -2.20z"/>
  <path d="M19.35 13.65 c-0.20 -0.15 -0.35 -1.35 -0.35 -2.65 0 -2.85 1.05 -4 3.65 -4 1.80 0 1.85 0.05 1.85 1.75 0 0.95 0.25 1.75 0.50 1.75 0.30 0 0.50 0.80 0.50 1.75 l0 1.75 -2.90 0 c-1.60 0 -3.10 -0.15 -3.25 -0.35z m4.60 -1.60 c0.55 -0.35 0.50 -0.65 -0.20 -1.75 -0.70 -1.05 -1 -1.20 -1.55 -0.75 -1.05 0.85 -0.90 2.95 0.20 2.95 0.45 0 1.15 -0.20 1.55 -0.45z"/>
  <path d="M13 11.50 c-0.60 -0.40 -0.55 -0.50 0.40 -0.50 0.60 0 1.10 0.25 1.10 0.50 0 0.65 -0.55 0.65 -1.50 0z"/>
  <path d="M27.15 9.50 c-0.90 -0.35 -1.15 -0.85 -1.15 -2.25 0 -1.55 -0.15 -1.75 -1.25 -1.75 -1.10 0 -1.25 -0.20 -1.25 -1.75 0 -1.25 0.20 -1.75 0.80 -1.75 0.45 0 0.90 0.45 1.05 1 0.15 0.55 0.60 1 0.95 1 0.40 0 0.70 0.30 0.70 0.65 0 0.40 0.15 0.45 0.40 0.05 1.05 -1.60 4.30 -2.20 4.80 -0.95 0.15 0.45 0 0.75 -0.50 0.75 -1.25 0 -3.70 1.50 -3.70 2.25 0 1.15 0.95 1.40 2.30 0.50 1.25 -0.80 1.25 -0.80 0.70 0.20 -0.30 0.60 -0.75 1.05 -1 1.05 -0.30 0 -0.50 0.35 -0.50 0.75 0 0.85 -0.70 0.90 -2.35 0.25z"/>
  <path d="M11.55 8.45 c-0.75 -0.60 -1.80 -0.95 -2.90 -0.85 -1.05 0.05 -1.90 -0.15 -2.15 -0.60 -0.40 -0.60 0.10 -0.80 2.65 -1.05 1.70 -0.15 3.50 -0.10 4 0.15 0.45 0.25 1.10 0.30 1.35 0.15 0.55 -0.35 0.65 0.45 0.20 2.15 -0.40 1.35 -1.55 1.40 -3.15 0.05z"/>
 </g>
 <g fill="#592c16">
  <path d="M0 38.80 c0 -1.75 0.50 -2.80 1.30 -2.80 0.40 0 0.70 -0.20 0.70 -0.50 0 -0.25 0.90 -0.50 1.95 -0.50 2.30 0 3.55 1.30 3.55 3.60 0 1.30 -0.15 1.40 -2.20 1.40 -1.30 0 -2.35 -0.25 -2.50 -0.60 -0.25 -0.50 -0.35 -0.50 -0.60 0 -0.15 0.30 -0.70 0.60 -1.25 0.60 -0.65 0 -0.95 -0.35 -0.95 -1.20z"/>
  <path d="M15.25 39.40 c-0.10 -0.35 -0.45 -1.65 -0.80 -2.90 -0.60 -2.25 -0.60 -2.25 -1.05 -0.85 -0.40 1.15 -0.75 1.35 -2.45 1.35 l-1.95 0 0 -4.25 0 -4.25 -2 0 c-2 0 -2 0 -2 -1.95 0 -1.15 0.40 -2.40 1 -3.20 l1 -1.30 -1.35 -0.15 c-1.15 -0.10 -1.45 -0.40 -1.55 -1.75 -0.10 -0.90 0.30 -2.45 0.90 -3.60 0.90 -1.85 1.20 -2.05 2.85 -2.05 l1.80 0 -1.05 1.15 c-0.55 0.60 -1.25 1.70 -1.50 2.40 l-0.50 1.25 2.35 -1.15 c3.15 -1.50 3.70 -2.20 3.30 -4.25 -0.35 -1.50 -0.30 -1.60 0.50 -0.90 0.75 0.60 0.95 0.60 1.50 -0.15 0.90 -1.25 1.25 -1.05 1.25 0.90 0 1.40 -0.20 1.75 -1 1.75 -0.80 0 -1 0.35 -1 1.50 0 1.50 -1.10 2.50 -2.85 2.50 -0.50 0 -1.20 0.45 -1.55 1 -0.60 0.95 -0.50 0.95 2.55 0.70 2.90 -0.30 3.05 -0.25 2.10 0.45 -1 0.80 -1 0.80 0.10 0.85 1.40 0 2.65 -0.50 2.65 -1.05 0 -0.25 -0.35 -0.45 -0.75 -0.45 -0.40 0 -0.75 -0.35 -0.75 -0.75 0 -0.50 0.55 -0.75 1.75 -0.75 1.40 0 1.75 0.20 1.75 1 0 1.05 0.05 1.05 2.85 -0.40 0.65 -0.35 1.60 -0.60 2.15 -0.60 0.75 0 1 -0.35 1 -1.25 0 -0.70 0.20 -1.25 0.45 -1.25 0.25 0 0.60 -0.55 0.75 -1.25 0.20 -0.80 0.65 -1.25 1.35 -1.25 0.80 0 1 -0.25 0.85 -1.35 -0.10 -1.15 -0.40 -1.45 -1.80 -1.55 -1.10 -0.10 -1.90 -0.60 -2.45 -1.50 -0.45 -0.75 -0.90 -1.45 -1 -1.55 -0.10 -0.10 -0.60 0.20 -1.15 0.70 -1.30 1.15 -1.30 2.75 0 3.10 1.85 0.50 1.15 1.65 -1 1.65 l-2 0 0 -2.55 c0 -3.30 1.40 -5.45 3.55 -5.45 1.35 0 1.45 -0.15 1.45 -1.75 0 -1.45 0.20 -1.75 1.05 -1.75 0.75 0 0.95 0.25 0.75 0.75 -0.40 1.05 2.15 1 4.40 -0.05 0.95 -0.45 2.05 -0.70 2.50 -0.55 1.15 0.45 0.40 1.85 -1 1.85 -1.45 0 -4 2.10 -3.50 2.90 0.20 0.35 0.70 0.60 1.10 0.60 0.50 0 0.70 0.60 0.75 2.15 0.05 2.75 0.35 5.10 0.95 7.45 0.55 1.90 0.25 4.40 -0.50 4.40 -0.25 0 -0.50 0.50 -0.60 1.15 -0.10 0.90 -0.50 1.15 -2.15 1.25 l-2 0.15 1.65 -1.65 c1.35 -1.45 1.60 -2.05 1.60 -4.05 0 -1.30 -0.20 -2.35 -0.50 -2.35 -0.25 0 -0.50 0.20 -0.50 0.45 0 0.80 -4.55 5.50 -5.65 5.85 -0.60 0.15 -1.45 0.65 -1.90 1.05 -0.45 0.40 -1.95 0.80 -3.25 0.90 -1.35 0.15 -3.25 0.35 -4.20 0.50 l-1.75 0.30 0.10 2.85 c0.05 1.55 0.10 3.55 0.10 4.35 l0.05 1.50 0.95 -1.55 c1.10 -1.85 2.90 -3.20 4.15 -3.20 0.75 0 0.90 0.45 0.90 2.40 0 1.30 0.20 2.60 0.45 2.90 0.20 0.25 0.65 1.15 0.95 1.95 0.25 0.85 0.65 1.90 0.85 2.40 0.30 0.70 0.05 0.85 -1.70 0.85 -1.20 0 -2.15 -0.25 -2.30 -0.60z m-6.25 -15 c0 -0.70 -0.95 0.05 -1.55 1.25 -0.60 1.10 -0.60 1.10 0.50 0.15 0.55 -0.55 1.05 -1.15 1.05 -1.40z m17 -17.65 c0 -0.40 -0.35 -0.75 -0.75 -0.75 -0.80 0 -1 0.60 -0.40 1.15 0.55 0.60 1.15 0.40 1.15 -0.40z"/>
  <path d="M19.80 34.95 c-1.20 -4.30 -1.35 -5.20 -0.80 -6.20 1.10 -2.05 2 -1.95 2.05 0.15 0 1.95 0.85 4.65 0.90 3 0.05 -0.60 0.55 -0.90 1.85 -1 1.70 -0.15 1.90 -0.30 2.60 -2.50 0.60 -1.95 0.95 -2.40 1.90 -2.40 0.65 0 1.20 -0.20 1.20 -0.50 0 -0.70 3.30 -0.60 3.85 0.15 0.45 0.50 2.65 7.25 2.65 8.05 0 0.15 -0.35 0.30 -0.75 0.30 -0.40 0 -0.75 0.35 -0.75 0.75 0 0.40 -0.45 0.75 -0.95 0.75 -0.80 0 -1 0.40 -1.15 2.15 -0.15 1.95 -0.25 2.10 -1.75 2.25 l-1.65 0.15 0 -2.75 c0 -2.70 -0.60 -4 -1.20 -2.55 -0.20 0.55 -0.65 0.70 -1.55 0.45 -1.45 -0.35 -1.60 0.35 -0.50 2.30 1.25 2.15 0.95 2.50 -1.90 2.50 l-2.65 0 -1.40 -5.05z m14.35 -1.75 c0.30 -0.30 -0.95 -4.85 -1.75 -6.35 -0.85 -1.65 -1 -0.50 -0.35 3.10 0.55 3.20 1.15 4.15 2.10 3.25z"/>
  <path d="M15 10.25 c0 -0.40 -0.35 -0.75 -0.75 -0.75 -1.25 0 -3.75 -2.10 -3.75 -3.10 0 -1.05 1.50 -1.20 2.40 -0.30 0.50 0.50 0.85 0.50 1.55 0.05 0.80 -0.50 1 -0.45 1.25 0.50 0.45 1.75 0.35 4.35 -0.20 4.35 -0.25 0 -0.50 -0.35 -0.50 -0.75z"/>
  <path d="M6.35 6.80 c-0.15 -0.40 0.05 -0.85 0.45 -1 1.30 -0.50 1.70 -0.35 1.70 0.70 0 1.15 -1.75 1.40 -2.15 0.30z"/>
 </g>
 <g fill="#483c2d">
  <path d="M35.30 37.65 c-0.45 -2.95 -0.35 -4.15 0.40 -4.15 0.40 0 0.90 0.95 1.25 2.20 0.75 3.10 0.70 3.80 -0.40 3.80 -0.70 0 -1 -0.50 -1.25 -1.85z"/>
  <path d="M19.35 28.50 c0.15 -0.55 0.45 -1 0.70 -1 0.25 0 0.90 -0.45 1.45 -1 0.50 -0.50 1.90 -1.45 3 -2 1.10 -0.55 2.50 -1.50 3 -2 1 -1 1 -1 1 0.75 0 1.65 -0.10 1.75 -1.75 1.75 -1.40 0 -1.75 0.20 -1.75 0.95 0 1 -0.90 1.55 -2.55 1.55 -0.60 0 -0.95 0.35 -0.95 1 0 0.70 -0.35 1 -1.20 1 -0.95 0 -1.15 -0.20 -0.95 -1z"/>
  <path d="M7.65 28.15 c-1.45 -0.20 -1.65 -0.40 -1.65 -1.70 0 -1.55 0.95 -2.95 2 -2.95 0.30 0 0.05 0.65 -0.55 1.50 -0.65 0.80 -1 1.65 -0.80 1.80 0.40 0.40 2.30 -1.80 2.35 -2.65 0 -0.90 2.25 -0.80 3 0.10 0.50 0.60 0.45 0.80 -0.15 1.05 -0.45 0.15 -1.10 0.10 -1.45 -0.10 -0.50 -0.30 -0.55 -0.25 -0.05 0.35 0.70 0.85 0.30 3 -0.55 2.85 -0.30 0 -1.30 -0.15 -2.15 -0.25z"/>
  <path d="M32.15 26.70 c-0.65 -0.70 -1.15 -1.55 -1.15 -1.95 0 -0.35 -0.25 -0.75 -0.55 -0.85 -0.30 -0.10 -0.65 -1.25 -0.80 -2.55 -0.35 -3.15 0.90 -3.30 1.80 -0.20 0.35 1.15 0.85 2.35 1.10 2.65 0.25 0.30 0.75 1.35 1.20 2.35 0.90 2.20 0.15 2.45 -1.60 0.55z"/>
  <path d="M12.50 20.95 c0 -1.30 0.15 -1.45 1.75 -1.45 2.25 0 2.25 1 0 2.05 l-1.75 0.80 0 -1.40z"/>
  <path d="M28 14.25 c0 -1.20 0.25 -1.75 0.75 -1.75 0.40 0 0.75 0.30 0.80 0.65 0 0.30 0.10 1.10 0.25 1.75 0.15 0.85 -0.05 1.10 -0.80 1.10 -0.80 0 -1 -0.35 -1 -1.75z"/>
  <path d="M14.30 12.85 c0.15 -0.40 -0.25 -0.90 -0.90 -1.25 -1.15 -0.55 -1.15 -0.55 0.25 -0.55 1.40 -0.05 1.70 -0.75 0.85 -2.05 -0.35 -0.55 -0.50 -0.55 -0.50 -0.10 0 0.35 -0.20 0.50 -0.50 0.35 -0.25 -0.15 -0.50 -0.80 -0.50 -1.40 0 -0.90 0.10 -0.95 0.50 -0.35 0.45 0.65 0.50 0.65 0.50 0 0.05 -0.90 2.45 -3.75 2.80 -3.35 0.45 0.45 -0.35 6.85 -0.85 6.85 -0.25 0 -0.45 0.55 -0.45 1.25 0 0.75 -0.30 1.25 -0.75 1.25 -0.40 0 -0.60 -0.30 -0.45 -0.65z"/>
  <path d="M23.80 12.30 c0.75 -0.60 0.85 -0.85 0.35 -1.35 -0.35 -0.35 -0.65 -1.15 -0.65 -1.80 0 -1 0.25 -1.15 1.75 -1.15 1.60 0 1.75 0.15 1.75 1.40 0 2.90 -0.50 3.60 -2.40 3.60 -1.65 0 -1.75 -0.05 -0.80 -0.70z"/>
  <path d="M6.55 6.80 c-0.45 -0.55 -0.40 -0.75 0.25 -1 1.45 -0.55 2.20 -0.30 2.20 0.70 0 1.15 -1.55 1.35 -2.45 0.30z"/>
  <path d="M27 5 c0 -0.30 0.55 -0.80 1.25 -1.10 0.70 -0.30 1.25 -0.75 1.25 -1 0 -0.45 2.70 -0.55 3.15 -0.05 0.60 0.55 -0.70 1.65 -1.95 1.65 -0.60 0 -1.30 0.25 -1.45 0.50 -0.40 0.65 -2.25 0.65 -2.25 0z"/>
  <path d="M22.70 3.35 c-0.15 -0.40 -1.15 -0.85 -2.25 -1.05 -2 -0.30 -2.25 -0.60 -1.55 -1.70 0.40 -0.65 1.05 -0.55 3.60 0.50 2.35 0.95 2.75 1.25 2.75 1.95 0 0.95 -2.20 1.20 -2.55 0.30z"/>
 </g>
 <g fill="#65351c">
  <path d="M0 33.25 l0 -6.75 1.75 0 c1.40 0 1.75 0.20 1.75 1 0 0.55 0.35 1 0.75 1 0.50 0 0.75 -0.50 0.75 -1.50 0 -0.80 0.25 -1.50 0.50 -1.50 0.30 0 0.50 -0.45 0.50 -1 0 -0.85 -0.35 -1 -2 -1 l-2 0 0 -2.10 c0 -1.50 0.45 -2.70 1.65 -4.50 1.45 -2.15 1.80 -2.40 3.55 -2.40 l1.95 0 -1 1.15 c-1.40 1.55 -2.75 4.25 -2.20 4.55 0.20 0.15 0.95 -0.30 1.55 -0.95 0.65 -0.70 1.60 -1.25 2.10 -1.25 0.50 0 1.40 -0.50 1.95 -1.05 0.85 -0.85 1 -1.45 0.80 -2.80 -0.30 -1.70 -0.25 -1.75 0.60 -0.95 0.85 0.80 0.95 0.80 1.25 -0.05 0.25 -0.55 0.05 -1.10 -0.50 -1.50 -0.50 -0.35 -0.65 -0.65 -0.40 -0.65 0.90 0 1.70 1.20 1.70 2.55 0 1.95 -1 4.45 -1.80 4.45 -0.40 0 -0.70 0.30 -0.70 0.70 0 0.40 -0.50 0.80 -1.10 0.90 -1 0.15 -1.05 0.20 -0.25 1 1.05 1.05 2.85 0.60 2.85 -0.70 0 -0.95 0.25 -1 3.90 -0.65 4.40 0.40 5.60 -0.15 7.35 -3.40 0.65 -1.20 1.40 -1.85 2.40 -2.05 0.85 -0.15 1.60 -0.25 1.65 -0.15 0.10 0.10 0.55 1.55 0.95 3.25 1.10 4.20 0.40 6.60 -1.80 6.60 l-1.45 0 1 -1.60 c1.05 -1.75 1.30 -4.15 0.50 -5.40 -0.50 -0.80 -0.45 -0.85 -1.95 1.60 -1.20 2 -3.50 3.90 -4.65 3.90 -0.40 0 -1.20 0.55 -1.80 1.25 -1.10 1.25 -2.10 1.65 -2.10 0.75 0 -0.25 -0.95 -0.10 -2.10 0.30 -2.40 0.85 -6.10 1.15 -6.70 0.55 -0.25 -0.20 -0.10 -0.85 0.25 -1.40 0.35 -0.60 0.50 -1.20 0.35 -1.35 -0.15 -0.15 -0.35 -0.15 -0.45 -0.05 -2.20 3.20 -2.95 4.55 -2.65 4.85 0.20 0.20 0.70 -0.05 1.05 -0.55 0.75 -1.05 2.30 -1 2.65 0.10 0.15 0.50 -0.05 0.60 -0.85 0.40 -0.90 -0.20 -1.05 -0.05 -1.05 1.20 0 1.25 -0.20 1.45 -1.30 1.45 -1.20 0 -1.25 0.10 -0.95 1.65 0.20 0.85 0.90 2.60 1.55 3.85 1.10 2.10 1.15 2.15 1.20 0.85 0 -0.80 0.35 -1.75 0.75 -2.15 0.65 -0.70 0.75 -0.65 0.75 0.50 0 1.80 0.80 1.65 1.45 -0.30 1.15 -3.20 3.55 -4.60 3.55 -2 0 0.75 0.35 2.60 0.75 4.10 0.40 1.50 0.75 3.05 0.75 3.40 0 0.90 -2.35 0.75 -3.35 -0.25 -1.10 -1.10 -4.65 -1 -4.65 0.15 0 0.40 -0.50 0.70 -1.20 0.70 -0.85 0 -1.50 -0.50 -2.25 -1.75 -0.95 -1.65 -2.05 -2.30 -2.05 -1.25 0 0.30 -0.35 0.50 -0.75 0.50 -0.40 0 -0.85 0.55 -1.05 1.25 -0.15 0.70 -0.60 1.25 -1 1.25 -0.55 0 -0.70 -1.30 -0.70 -6.75z m15.40 -11.10 l1.85 -0.85 -1.40 -0.20 c-0.85 -0.10 -1.85 0.20 -2.65 0.85 -1.70 1.30 -0.50 1.45 2.20 0.20z"/>
  <path d="M21.40 36.10 c-2.45 -5.10 -2.70 -6.30 -1.70 -7.85 1.05 -1.60 1.80 -1.60 1.80 0 0 1.10 0.20 1.25 1.95 1.25 1.80 0 2 -0.15 2.75 -2 0.45 -1.10 0.80 -2.35 0.80 -2.75 0 -0.55 0.65 -0.75 2.70 -0.75 2.95 0 3.35 0.30 4.30 3.25 0.35 1.10 1.05 3.10 1.55 4.45 1.20 3.05 1.20 3.80 0 3.80 -1.85 0 -2.55 0.60 -2.55 2.05 0 0.95 -0.25 1.45 -0.75 1.45 -0.40 0 -0.75 0.25 -0.75 0.50 0 0.30 -0.45 0.50 -1 0.50 -1.20 0 -1.30 -0.90 -0.20 -1.75 0.70 -0.50 0.75 -0.95 0.25 -3.20 -0.30 -1.40 -0.55 -3.35 -0.55 -4.30 0 -1.85 -0.40 -3.25 -0.95 -3.25 -0.25 0 -0.70 0.95 -1.05 2.15 -0.95 3 -1.40 3.45 -3.10 3.10 -1.70 -0.40 -1.75 0.10 -0.40 2.80 0.60 1.10 1.25 2.55 1.50 3.20 0.45 1.15 0.35 1.25 -1.15 1.25 -1.50 0 -1.70 -0.25 -3.45 -3.90z m13.10 -3.30 c0 -0.65 -1.70 -5.70 -2.10 -6.15 -1.05 -1.30 -1.20 -0.10 -0.50 3.55 0.65 3.40 0.85 3.70 1.65 3.25 0.55 -0.25 0.95 -0.55 0.95 -0.65z"/>
  <path d="M18.70 15.75 c-0.80 -1.95 -0.95 -6.25 -0.20 -6.25 0.30 0 0.50 -0.45 0.50 -0.95 0 -1.20 2.35 -4.05 3.30 -4.05 0.40 0 0.70 -0.50 0.70 -1.20 0 -1.55 0.50 -1.90 1.65 -1.05 0.55 0.40 0.75 0.95 0.50 1.50 -0.30 0.80 -0.10 0.85 1.60 0.60 1 -0.15 2.30 -0.65 2.75 -1.10 1.10 -1 2.75 -0.80 2.75 0.25 0 0.40 -0.55 0.85 -1.25 1 -2 0.40 -3.50 1.65 -3.50 2.85 0 0.65 0.30 1.15 0.70 1.15 0.75 0 1.50 2.80 1 3.60 -0.20 0.30 -1.30 0.40 -2.50 0.25 -1.80 -0.20 -2.20 -0.10 -2.20 0.60 0 0.45 -0.25 1.65 -0.55 2.70 -0.45 1.75 -0.60 1.85 -2.50 1.85 -1.80 0 -2.05 -0.15 -2.75 -1.75z m5.80 -4 c0.50 -0.60 0.45 -0.80 -0.20 -1.05 -0.45 -0.15 -0.80 -0.70 -0.80 -1.15 0 -0.45 -0.25 -1.15 -0.50 -1.55 -0.45 -0.65 -0.70 -0.50 -1.75 0.75 -0.70 0.85 -1.25 2 -1.25 2.65 0 0.95 0.25 1.10 1.95 1.10 1.10 0 2.20 -0.30 2.55 -0.75z"/>
  <path d="M0 15.80 c0 -0.65 1.40 -1.30 2.90 -1.30 0.30 0 0.60 0.45 0.60 1 0 0.80 -0.35 1 -1.75 1 -1.15 0 -1.75 -0.25 -1.75 -0.70z"/>
  <path d="M15 10.15 c0 -0.60 -0.20 -1.25 -0.50 -1.40 -0.25 -0.15 -0.50 -0.10 -0.50 0.20 0 0.70 -4.45 -1.55 -4.50 -2.30 0 -0.30 0.50 -0.75 1.10 -0.95 0.80 -0.25 1.35 0 2.25 1 0.70 0.85 1.15 1.10 1.15 0.65 0 -0.60 1 -1.35 1.80 -1.35 0.40 0 0.15 3.75 -0.30 4.50 -0.40 0.60 -0.50 0.55 -0.50 -0.35z"/>
 </g>
 <g fill="#743f22">
  <path d="M6.40 36.85 c-0.80 -1.70 -1.55 -3.85 -1.70 -4.75 -0.20 -0.90 -0.55 -1.75 -0.85 -1.95 -0.85 -0.55 -2.75 2.35 -2.75 4.20 0 0.95 -0.25 2 -0.55 2.30 -0.40 0.40 -0.55 -1.75 -0.55 -7.80 0 -5.25 0.20 -8.35 0.50 -8.35 0.30 0 0.50 -0.25 0.50 -0.55 0 -1.25 3.25 -5.45 4.25 -5.45 2.25 0 2.30 0.75 0.25 3.50 -1.80 2.40 -2.50 4 -1.75 4 0.70 0 3.20 -1.55 3.40 -2.10 0.20 -0.50 0.30 -0.50 0.30 0 0.05 0.35 0.70 0.60 1.55 0.60 0.85 0 1.50 0.25 1.50 0.55 0 0.40 0.65 0.50 1.90 0.30 1.85 -0.30 1.85 -0.30 0.75 0.60 -0.60 0.50 -1 1.05 -0.85 1.20 0.30 0.25 3.70 -0.80 4.80 -1.45 0.80 -0.50 -0.70 -1.20 -1.85 -0.90 -0.90 0.25 -0.90 0.20 0.15 -0.55 0.95 -0.70 1.10 -1.25 1.10 -4 0 -3.90 0.75 -5.75 2.30 -5.75 0.85 0 1.05 0.25 0.85 0.90 -0.25 1.10 1.10 4.60 1.80 4.60 0.85 0 0.95 -1.20 0.15 -2.10 -0.70 -0.80 -0.65 -0.90 0.25 -0.90 0.60 0 1.55 -0.45 2.20 -0.95 1.10 -0.90 1.10 -1 0.35 -1.30 -0.70 -0.25 -0.90 -0.95 -0.90 -2.65 l0 -2.25 -1.25 1.15 -1.25 1.15 0 -1.70 c0 -1.15 0.45 -2.20 1.40 -3.25 1.20 -1.40 1.50 -1.50 2.25 -0.95 0.60 0.40 0.70 0.75 0.40 1 -0.30 0.15 -0.55 0.60 -0.55 0.95 0 0.90 3.70 0.20 5 -0.95 1 -0.90 2.55 -0.85 2.85 0.05 0.10 0.35 -0.45 0.75 -1.20 0.90 -2.05 0.55 -3.65 1.70 -4.15 3.10 -0.25 0.65 -0.80 1.20 -1.25 1.20 -0.40 0 -0.75 0.30 -0.75 0.70 0 1 0.85 1.45 1.30 0.70 0.25 -0.40 0.50 -0.30 0.75 0.40 0.35 0.90 0.40 0.90 0.75 -0.15 0.70 -2.35 1.70 -0.65 1.70 2.95 0 1 0.20 2.40 0.50 3.10 0.35 1 0.30 1.30 -0.20 1.30 -0.40 0 -0.80 -0.45 -0.95 -1 -0.40 -1.45 -1 -1.25 -2.10 0.80 -1.20 2.25 -3 3.70 -4.70 3.70 -0.95 0 -1.50 0.45 -2.05 1.65 -0.60 1.25 -1.10 1.60 -2.25 1.70 -0.80 0.05 -3 0.25 -4.85 0.45 -2.90 0.30 -3.40 0.25 -3.40 -0.45 0 -0.40 0.30 -0.85 0.65 -1 0.45 -0.15 0.40 -0.45 -0.15 -1.05 -0.70 -0.70 -0.85 -0.65 -1.70 0.95 -0.95 1.75 -1.80 2.30 -1.80 1.15 0 -0.45 -0.20 -0.40 -0.50 0.10 -0.65 1 -0.65 6 0 6 0.30 0 0.50 0.35 0.50 0.75 0 0.50 0.50 0.75 1.40 0.75 1.60 0 2.60 1.50 2.60 3.85 0 1.85 1.15 0.75 1.95 -1.90 0.80 -2.70 1.75 -2.25 1.90 0.85 0.10 1.85 0.35 2.60 1.15 3.15 0.55 0.35 1 1 1 1.35 0 0.55 -1 0.70 -4.35 0.70 l-4.40 -0.05 -1.35 -3.10z"/>
  <path d="M21.90 35.40 c-2.15 -4.35 -2.60 -6.35 -1.70 -7.80 0.50 -0.80 2.75 -0.75 4.40 0.10 1.30 0.70 1.35 0.65 1.70 -0.85 0.20 -0.90 0.40 -1.95 0.45 -2.40 0 -0.45 0.55 -1.40 1.15 -2.20 0.60 -0.75 1.10 -2.05 1.10 -2.80 0 -2.15 1.25 -1.75 1.95 0.60 0.35 1.15 1.30 3.35 2.10 4.95 0.80 1.60 1.45 3.20 1.45 3.55 0 0.40 0.45 1.90 1 3.35 0.95 2.45 0.95 2.60 0.10 2.60 -0.50 0 -1.10 0.65 -1.50 1.65 -0.40 0.85 -0.90 2.10 -1.15 2.75 -0.30 0.80 -0.85 1.10 -1.95 1.10 -1.80 0 -1.85 -0.30 -0.45 -1.80 0.95 -1.05 1 -1.35 0.55 -3.55 -0.30 -1.30 -0.70 -3.65 -0.85 -5.15 -0.25 -2.55 -0.95 -4.55 -1.35 -4 -0.10 0.15 -0.60 1.55 -1.10 3.10 l-0.95 2.90 -1.95 -0.30 c-1.80 -0.30 -1.90 -0.25 -1.90 0.90 0 0.70 0.55 2.25 1.20 3.45 1.80 3.30 2.05 4.45 0.95 4.45 -0.65 0 -1.55 -1.35 -3.25 -4.60z m12.60 -2.55 c0 -1.05 -1.55 -5.75 -2.20 -6.65 -1.10 -1.50 -1.45 -0.50 -0.85 2.30 0.30 1.40 0.55 3.30 0.55 4.25 0 1.65 0.05 1.70 1.25 1.15 0.70 -0.30 1.25 -0.75 1.25 -1.05z"/>
  <path d="M8 26 c0 -0.25 0.45 -0.50 0.95 -0.50 0.55 0 1.15 0.25 1.30 0.50 0.20 0.30 -0.25 0.50 -0.95 0.50 -0.70 0 -1.30 -0.20 -1.30 -0.50z"/>
  <path d="M10 18.70 c0 -0.15 0.55 -0.75 1.20 -1.25 0.70 -0.55 1.40 -1.45 1.60 -2.05 0.15 -0.60 0.75 -1.55 1.25 -2.10 0.95 -1 0.95 -0.95 0.95 1.10 0 3 -1.15 4.60 -3.30 4.60 -0.95 0 -1.70 -0.15 -1.70 -0.30z"/>
  <path d="M14.65 8.80 c-0.65 -2.10 -0.50 -2.85 0.40 -1.95 0.30 0.30 0.45 1.30 0.35 2.20 l-0.15 1.70 -0.60 -1.95z"/>
  <path d="M12.30 8.25 c-0.55 -0.40 -1.95 -0.75 -3.10 -0.75 -2.45 0 -3.95 -1.20 -2.10 -1.70 2.20 -0.55 4.55 -0.30 5.25 0.60 1.90 2.40 1.85 3.30 -0.05 1.85z"/>
 </g>
 <g fill="#584b3d">
  <path d="M35.50 38.25 c0 -2 1.20 -2.45 1.70 -0.60 0.50 1.85 0.35 2.35 -0.70 2.35 -0.80 0 -1 -0.35 -1 -1.75z"/>
  <path d="M4.50 28.60 c0 -1.30 0.30 -2.10 1 -2.60 0.55 -0.40 1 -1 1 -1.35 0 -0.35 0.25 -0.65 0.55 -0.65 0.35 0 0.40 0.35 0.20 0.90 -0.20 0.45 -0.50 1.40 -0.60 2.10 l-0.20 1.25 0.90 -1.35 c1.05 -1.65 2.65 -1.85 2.65 -0.40 0 0.55 -0.20 1 -0.50 1 -0.25 0 -0.50 0.35 -0.50 0.75 0 0.40 -0.20 0.75 -0.50 0.75 -0.25 0 -0.50 0.35 -0.50 0.75 0 0.50 -0.55 0.75 -1.75 0.75 -1.70 0 -1.75 -0.05 -1.75 -1.90z"/>
  <path d="M20 27.75 c0.35 -0.40 0.80 -0.75 1.05 -0.75 0.25 0 0.45 0.35 0.45 0.75 0 0.45 -0.45 0.75 -1.05 0.75 -0.90 0 -0.95 -0.10 -0.45 -0.75z"/>
  <path d="M32.35 26.10 c-0.90 -0.95 -1.15 -2.60 -0.45 -2.60 0.35 0 0.90 0.85 2 3.15 0.35 0.70 -0.75 0.35 -1.55 -0.55z"/>
  <path d="M24.50 25.05 c0 -0.25 0.80 -0.90 1.75 -1.50 l1.75 -1 0 1.45 c0 1.40 -0.15 1.50 -1.75 1.50 -0.95 0 -1.75 -0.20 -1.75 -0.45z"/>
  <path d="M9.75 24 c0.15 -0.25 1.10 -0.50 2.05 -0.50 0.95 0 1.70 0.25 1.70 0.50 0 0.30 -0.90 0.50 -2.05 0.50 -1.20 0 -1.90 -0.20 -1.70 -0.50z"/>
  <path d="M10.35 22.65 c-0.90 -0.85 -0.25 -1.65 1.40 -1.65 1.95 0 2.30 0.70 0.80 1.50 -1.15 0.60 -1.75 0.65 -2.20 0.15z"/>
  <path d="M13.50 14.70 c0 -0.15 0.25 -0.75 0.55 -1.30 0.45 -0.90 0.40 -1.20 -0.35 -1.75 -0.85 -0.60 -0.85 -0.65 0.20 -0.65 1.20 0 1.35 -0.75 0.60 -2.75 -0.40 -1 -0.30 -1.45 0.50 -2.25 0.55 -0.55 1 -1.20 1 -1.50 0 -0.25 0.80 -1.35 1.75 -2.35 l1.75 -1.85 0 1.85 c0 1.30 -0.20 1.85 -0.75 1.85 -0.40 0 -0.75 0.45 -0.75 0.95 0 0.55 -0.35 1.30 -0.70 1.70 -0.45 0.45 -0.90 2.30 -1.10 4.55 -0.30 3.55 -0.40 3.80 -1.50 3.80 -0.65 0 -1.20 -0.15 -1.20 -0.30z"/>
  <path d="M24.50 11.75 c0.50 -0.60 0.45 -0.80 -0.20 -1.05 -0.45 -0.15 -0.80 -0.75 -0.80 -1.25 0 -1.25 0.40 -1.20 1.75 0.25 1.20 1.30 0.90 2.80 -0.60 2.80 -0.65 0 -0.65 -0.15 -0.15 -0.75z"/>
  <path d="M6.60 6.80 c-0.70 -0.40 -0.70 -0.50 0.15 -0.85 0.55 -0.20 1.60 -0.40 2.40 -0.40 1 -0.05 1.35 0.20 1.35 0.95 0 0.75 -0.30 0.95 -1.55 0.85 -0.80 -0.05 -1.90 -0.30 -2.35 -0.55z"/>
  <path d="M21.50 2.20 c0 -1.10 0.15 -1.20 1.15 -0.90 2.75 0.80 3.10 2.20 0.60 2.20 -1.55 0 -1.75 -0.15 -1.75 -1.30z"/>
 </g>
 <g fill="#7e4a2c">
  <path d="M11.30 39.25 c-0.15 -0.40 -0.75 -0.75 -1.30 -0.75 -0.60 0 -0.95 -0.20 -0.75 -0.45 0.30 -0.55 -1.20 -4.55 -1.70 -4.55 -0.20 0 -0.60 0.25 -0.85 0.50 -0.65 0.65 -1.35 -0.10 -2.15 -2.45 -0.80 -2.40 -0.70 -3.05 0.45 -3.05 0.75 0 1.10 0.45 1.35 1.50 0.20 1.15 0.55 1.50 1.45 1.50 0.85 0 1.20 0.30 1.20 1 0 0.60 0.35 1 0.80 1 0.65 0 0.80 0.35 0.60 1.65 -0.40 2.40 -0.10 2.90 1.40 2.25 1.40 -0.65 2.20 0 2.20 1.75 0 1.10 -2.25 1.20 -2.70 0.10z"/>
  <path d="M29.50 39.70 c0 -0.20 0.55 -0.85 1.25 -1.50 0.70 -0.65 1.25 -1.60 1.25 -2.15 0 -0.55 0.55 -1.40 1.25 -1.95 0.70 -0.55 1.25 -1.30 1.25 -1.70 0 -1.45 -1.65 -5.70 -2.65 -6.80 -1.20 -1.30 -2.85 -6.15 -2.85 -8.45 0 -1.85 -0.45 -3.15 -1.05 -3.15 -0.25 0 -0.45 0.35 -0.45 0.75 0 1.10 -2.30 4.60 -3.35 5.15 -1.05 0.55 -2.15 0.25 -2.15 -0.50 0 -1 4 -5.90 4.80 -5.90 0.40 0 1.05 -0.70 1.40 -1.50 0.75 -1.80 1.30 -1.45 1.30 0.80 0 2.50 1.40 7.55 3.25 11.70 0.90 2.05 2 4.90 2.40 6.25 0.40 1.40 0.90 2.90 1.10 3.35 0.25 0.65 0 0.95 -0.95 1.20 -0.95 0.20 -1.35 0.70 -1.60 2 -0.20 1.20 -0.60 1.70 -1.25 1.70 -0.55 0 -0.95 0.25 -0.95 0.50 0 0.30 -0.45 0.50 -1 0.50 -0.55 0 -1 -0.15 -1 -0.30z"/>
  <path d="M23.40 36.90 c-1.15 -1.80 -2.90 -5.30 -2.90 -5.90 0 -1.40 1.10 -0.15 2.55 2.90 0.90 1.85 1.70 3.50 1.80 3.75 0.50 0.90 -0.80 0.25 -1.45 -0.75z"/>
  <path d="M31.10 31.85 c-0.75 -3.25 -0.80 -4.95 -0.10 -3.85 0.50 0.80 1.25 5.90 0.90 6.25 -0.10 0.10 -0.45 -1 -0.80 -2.40z"/>
  <path d="M24.65 29.95 c-0.90 -0.50 -2 -0.80 -2.50 -0.60 -0.55 0.20 -0.70 0.15 -0.45 -0.25 0.25 -0.40 0 -0.60 -0.70 -0.60 -1.55 0 -0.95 -1.20 0.70 -1.40 0.75 -0.10 2 0.05 2.80 0.30 1.25 0.45 1.45 0.40 1.70 -0.55 0.15 -0.60 0.30 -1.60 0.30 -2.20 0 -0.80 0.30 -1.15 1 -1.15 1.15 0 1.30 1.20 0.45 4.20 -0.80 2.90 -1.40 3.30 -3.30 2.25z"/>
  <path d="M4 25.80 c0 -1.80 0.35 -2.60 2 -4.60 1.30 -1.60 2.70 -2.70 4.05 -3.20 1.65 -0.60 2.35 -1.25 3.35 -3.10 0.70 -1.35 1.50 -2.40 1.70 -2.40 0.60 0 0.50 3.40 -0.10 4.55 -0.30 0.50 -0.85 0.95 -1.25 0.95 -0.40 0 -0.75 0.35 -0.75 0.75 0 0.45 -0.45 0.75 -1.25 0.75 -1.10 0 -4.10 2.35 -3.60 2.85 0.15 0.10 -0.30 0.75 -0.95 1.40 -0.75 0.75 -1.20 1.80 -1.20 2.75 0 1.15 -0.20 1.50 -1 1.50 -0.85 0 -1 -0.35 -1 -2.20z"/>
  <path d="M0 26.05 c0 -0.85 0.25 -1.65 0.50 -1.80 0.30 -0.15 0.50 -0.75 0.50 -1.30 0 -0.50 -0.20 -0.95 -0.50 -0.95 -0.30 0 -0.50 -1.50 -0.50 -3.45 l0 -3.50 2.20 -0.30 c1.20 -0.20 2.70 -0.20 3.30 0 1 0.30 1 0.40 0.30 1.40 -2.45 3.35 -3.25 4.95 -4 7.80 -0.45 1.70 -0.80 3.25 -0.80 3.35 0 0.10 -0.20 0.20 -0.50 0.20 -0.25 0 -0.50 -0.65 -0.50 -1.45z"/>
  <path d="M8.50 26 c0 -0.25 0.30 -0.50 0.70 -0.50 0.40 0 0.90 0.25 1.05 0.50 0.15 0.30 -0.15 0.50 -0.70 0.50 -0.60 0 -1.05 -0.20 -1.05 -0.50z"/>
  <path d="M9.75 24.55 c-0.35 -0.60 0.20 -0.85 2.80 -1.20 0.95 -0.15 2.65 -0.65 3.75 -1.10 1.85 -0.80 1.90 -0.85 0.85 -1.30 -1.05 -0.35 -1.15 -0.75 -1.15 -3.75 0 -2.50 0.30 -4.05 1.30 -6.25 0.75 -1.65 1.65 -2.95 2 -2.95 0.40 0 0.70 -0.55 0.70 -1.25 0 -0.70 0.35 -1.40 0.75 -1.50 1.45 -0.45 2 -0.75 3.25 -1.60 1 -0.75 0.90 -0.45 -0.65 1.60 -1.05 1.40 -2.65 4.05 -3.65 5.90 -1.55 3.05 -1.75 3.75 -1.55 6.45 0.15 2.15 0.45 3.15 1 3.50 1.10 0.60 1.05 1.55 0 2.50 -1.10 0.95 -8.90 1.75 -9.40 0.95z"/>
  <path d="M10.25 22.50 c-0.15 -0.25 -0.05 -0.50 0.20 -0.50 0.30 0 0.55 -0.35 0.55 -0.75 0 -0.55 0.55 -0.75 1.85 -0.75 1.85 0 1.85 0 0.90 0.95 -1.25 1.20 -3.05 1.75 -3.50 1.05z"/>
  <path d="M22.75 12.90 c0.55 -0.30 1.50 -1 2.10 -1.55 1.60 -1.45 2 -0.65 0.50 0.85 -0.75 0.70 -1.80 1.30 -2.45 1.30 -1.10 -0.05 -1.10 -0.05 -0.15 -0.60z"/>
  <path d="M23.85 10.15 c-0.60 -0.60 -0.35 -2.90 0.40 -4 0.70 -0.95 3.55 -2.20 5 -2.15 0.30 0.05 -0.20 0.65 -1.05 1.40 -0.85 0.75 -1.70 1.75 -1.85 2.25 -0.20 0.45 -0.65 0.85 -1.05 0.85 -0.45 0 -0.60 0.35 -0.45 1 0.25 0.95 -0.35 1.35 -1 0.65z"/>
  <path d="M11.95 7.80 c-0.10 -0.10 -1.30 -0.30 -2.60 -0.45 -3.85 -0.40 -3.95 -1.05 -0.30 -1.60 2.10 -0.30 2.35 -0.25 3.15 0.95 0.65 1.05 0.50 1.85 -0.25 1.10z"/>
 </g>
 <g fill="#7a5943">
  <path d="M8.50 34.75 c-0.90 -1.45 -1.35 -1.75 -2.25 -1.55 -1.20 0.30 -1.25 0.20 -2 -4.45 -0.30 -1.65 0.55 -4.75 1.30 -4.75 0.25 0 0.45 -0.45 0.45 -1 0 -0.55 0.25 -1 0.50 -1 0.30 0 0.50 -0.40 0.50 -0.90 0 -1.20 2.05 -3.10 3.25 -3.10 0.50 0 1.60 -0.60 2.35 -1.35 l1.40 -1.35 0 1.85 c0 1.70 0.10 1.80 1.85 1.95 1.40 0.10 1.95 0.40 2.05 1.10 0.15 0.75 0 0.90 -1 0.65 -0.80 -0.20 -2.05 0.10 -3.60 0.95 -2.25 1.20 -2.45 1.20 -3.30 0.45 -0.90 -0.80 -1 -0.75 -2.15 1.60 -0.65 1.30 -1.35 3.10 -1.55 3.90 l-0.35 1.50 1.10 -1.60 c0.55 -0.90 1.15 -1.65 1.25 -1.65 0.10 0 0.20 0.90 0.20 2 0 1.65 -0.15 2 -1 2 -0.55 0 -1 0.25 -1 0.50 0 0.30 0.45 0.50 1 0.50 0.75 0 1 0.35 1 1.25 0 0.90 0.25 1.25 1 1.25 1.05 0 1.35 1.20 0.55 2.40 -0.30 0.50 -0.70 0.20 -1.55 -1.15z m5 -15.25 c0 -0.25 -0.55 -0.50 -1.25 -0.50 -0.70 0 -1.25 0.25 -1.25 0.50 0 0.30 0.55 0.50 1.25 0.50 0.70 0 1.25 -0.20 1.25 -0.50z"/>
  <path d="M34.95 32.75 c-0.20 -0.25 -0.45 -1.15 -0.65 -2 -0.35 -1.50 -0.35 -1.50 0.45 -0.35 0.45 0.60 0.75 1.50 0.65 2 -0.10 0.45 -0.30 0.65 -0.45 0.35z"/>
  <path d="M25.50 30.25 c-0.35 -0.40 -1.50 -1 -2.55 -1.35 -2.25 -0.65 -2.65 -1.90 -0.65 -1.90 2.05 0 5.20 1.10 5.20 1.80 0 0.95 -0.55 2.20 -1 2.20 -0.20 0 -0.65 -0.35 -1 -0.75z"/>
  <path d="M22.50 26.10 c0 -0.40 2.60 -2.10 3.20 -2.10 0.15 0 0.30 0.55 0.30 1.25 0 1.10 -0.20 1.25 -1.75 1.25 -0.95 0 -1.75 -0.20 -1.75 -0.40z"/>
  <path d="M31.30 23.90 c-0.85 -2.10 -1.40 -4.40 -1.05 -4.40 0.25 0 2.75 5.30 2.75 5.80 0 0.10 -0.25 0.20 -0.55 0.20 -0.25 0 -0.80 -0.75 -1.15 -1.60z"/>
  <path d="M19 9.05 c0 -1.95 0.45 -3.05 1.30 -3.05 0.40 0 0.70 -0.40 0.70 -0.85 0.05 -1.20 1.70 -3.15 2.70 -3.15 1.35 0 1.40 1.05 0.10 2.65 -0.75 0.90 -1.95 2.55 -2.70 3.75 -1.60 2.45 -2.10 2.65 -2.10 0.65z"/>
  <path d="M23.85 10.15 c-0.60 -0.55 -0.40 -1.15 0.40 -1.15 0.40 0 0.75 0.35 0.75 0.75 0 0.80 -0.60 1 -1.15 0.40z"/>
  <path d="M14.30 7.70 c-0.20 -0.45 -0.25 -0.85 -0.20 -0.90 0.10 -0.05 0.55 -0.40 1.05 -0.75 0.75 -0.60 0.85 -0.50 0.85 0.90 0 1.70 -1.15 2.20 -1.70 0.75z"/>
  <path d="M24 7.30 c0 -0.40 0.35 -0.85 0.80 -1 0.70 -0.25 0.75 -0.20 0.25 0.40 -0.50 0.55 -0.40 0.75 0.30 0.95 0.70 0.20 0.65 0.25 -0.20 0.30 -0.70 0.05 -1.15 -0.25 -1.15 -0.65z"/>
  <path d="M9.40 7.10 c-1.05 -0.10 -1.90 -0.35 -1.90 -0.60 0 -0.65 3.05 -1.15 3.60 -0.60 0.90 0.90 0.20 1.35 -1.70 1.20z"/>
  <path d="M29.60 3.55 c0.10 -0.45 0.65 -0.80 1.35 -0.80 1.80 0 1.85 1.10 0.05 1.35 -1.20 0.20 -1.50 0.05 -1.40 -0.55z"/>
 </g>
 <g fill="#8e5834">
  <path d="M29.80 39.40 c0.20 -0.35 0.80 -0.95 1.30 -1.30 0.50 -0.35 0.90 -1.10 0.90 -1.65 0 -0.95 1.35 -2.65 2.45 -3 0.75 -0.25 -0.60 -4.90 -2.20 -7.70 -1.40 -2.40 -2.95 -7.75 -2.65 -9.05 0.15 -0.55 0.50 0.25 0.80 1.80 0.35 1.55 1.40 4.35 2.35 6.25 0.95 1.90 1.75 3.80 1.75 4.30 0 0.45 0.35 1.65 0.75 2.60 0.95 2.30 0.95 2.35 -0.25 2.35 -0.80 0 -1 0.35 -1 1.75 0 1.40 -0.20 1.75 -1 1.75 -0.75 0 -1 0.35 -1 1.25 0 1 -0.25 1.25 -1.30 1.25 -0.85 0 -1.15 -0.20 -0.90 -0.60z"/>
  <path d="M8.10 34.25 l-1.10 -1.75 1.50 0 c1.40 0 1.50 0.15 1.50 1.75 0 2.20 -0.45 2.20 -1.90 0z"/>
  <path d="M26.50 25 c0 -0.90 0.30 -1.65 0.75 -1.85 1.15 -0.40 1.40 0.05 1 1.80 -0.45 2.05 -1.75 2.05 -1.75 0.05z"/>
  <path d="M4.50 24.55 c0 -0.80 3.20 -5.55 3.75 -5.55 0.15 0 0.25 0.80 0.25 1.75 0 1.15 -0.25 1.75 -0.70 1.75 -0.35 0 -0.80 0.70 -0.95 1.50 -0.25 1.05 -0.60 1.50 -1.35 1.50 -0.65 0 -1 -0.35 -1 -0.95z"/>
  <path d="M11.50 24.35 c0.15 -0.15 1.70 -0.75 3.45 -1.35 2.25 -0.75 3.35 -0.90 3.70 -0.55 0.35 0.35 0.35 0.70 0.05 1 -0.45 0.45 -7.65 1.35 -7.20 0.90z"/>
  <path d="M16.30 20.20 c-0.85 -0.80 -1 -3 -0.50 -5.65 0.25 -1.20 0.60 -1.55 1.50 -1.55 1.05 0 1.10 0.10 0.60 1.55 -0.30 0.85 -0.40 2.50 -0.25 3.75 0.25 2.45 -0.20 3.10 -1.35 1.90z"/>
  <path d="M0.75 19 c-0.15 -0.25 -0.15 -0.75 0 -1 0.20 -0.30 0.05 -0.90 -0.30 -1.30 -0.80 -0.95 -0.15 -1.45 2.45 -1.95 2.80 -0.50 3.05 0.45 0.70 2.75 -2.30 2.20 -2.40 2.25 -2.85 1.50z"/>
  <path d="M24 18.85 c0 -0.45 0.20 -0.90 0.45 -1.10 0.25 -0.15 0.60 -0.95 0.80 -1.75 0.20 -0.85 0.65 -1.50 1.05 -1.50 0.85 0 0.85 0 0 2.10 -0.90 2.10 -2.30 3.45 -2.30 2.25z"/>
  <path d="M28.50 13.15 c0 -0.25 0.25 -0.75 0.50 -1.15 0.40 -0.60 0.50 -0.55 0.50 0.40 0 0.60 -0.20 1.10 -0.50 1.10 -0.25 0 -0.50 -0.15 -0.50 -0.35z"/>
  <path d="M14.55 8.05 c-0.40 -0.70 -0.30 -1.15 0.45 -1.80 1 -0.90 1 -0.85 1 0.90 0 2 -0.65 2.40 -1.45 0.90z"/>
  <path d="M24 7.30 c0 -0.75 1.20 -1.40 1.70 -0.95 0.65 0.70 0.25 1.65 -0.70 1.65 -0.55 0 -1 -0.30 -1 -0.70z"/>
  <path d="M8.90 7.10 c-1.35 -0.10 -2.40 -0.35 -2.40 -0.55 0 -0.60 4.10 -1 4.70 -0.50 0.90 0.75 -0.05 1.20 -2.30 1.05z"/>
  <path d="M26.50 5.60 c0 -0.85 3.95 -3 5 -2.75 1.35 0.35 1.30 1.15 -0.10 1.15 -0.65 0 -1.80 0.45 -2.65 1 -1.60 1.05 -2.25 1.25 -2.25 0.60z"/>
 </g>
 <g fill="#6e6c60">
  <path d="M4.60 30.40 c-1 -1 -0.75 -2.90 0.40 -2.90 0.60 0 1 0.35 1 0.90 0.05 0.75 0.10 0.75 0.75 -0.10 0.70 -0.95 0.75 -0.90 0.75 0.85 0 1.60 -0.15 1.85 -1.15 1.85 -0.65 0 -1.40 -0.25 -1.75 -0.60z"/>
  <path d="M8.10 26.65 c0.10 -0.50 0.60 -0.90 1.15 -0.90 0.55 0 1.05 0.40 1.15 0.90 0.15 0.65 -0.15 0.85 -1.15 0.85 -1 0 -1.30 -0.20 -1.15 -0.85z"/>
  <path d="M23.50 25.60 c0 -0.35 0.85 -0.90 3.15 -2 0.20 -0.10 0.35 0.40 0.35 1.10 0 1.15 -0.20 1.30 -1.75 1.30 -0.95 0 -1.75 -0.20 -1.75 -0.40z"/>
  <path d="M10.30 22.20 c-1.10 -1.10 -1.05 -1.20 0.95 -1.20 1.95 0 2.30 0.70 0.80 1.50 -0.75 0.35 -1.15 0.30 -1.75 -0.30z"/>
  <path d="M14.15 12.25 c-0.30 -0.70 -0.35 -1.10 -0.05 -0.95 0.25 0.15 0.60 -0.15 0.75 -0.75 0.15 -0.60 0.60 -1.05 1 -1.05 0.50 0 0.65 0.50 0.55 1.85 -0.20 2.25 -1.40 2.75 -2.25 0.90z"/>
  <path d="M23.75 9.95 c-0.20 -0.30 -0.25 -0.65 -0.10 -0.80 0.35 -0.35 1.35 0.30 1.35 0.90 0 0.60 -0.85 0.60 -1.25 -0.10z"/>
  <path d="M16.35 4.15 c0.50 -1.30 2.95 -3.65 3.85 -3.65 1.40 0 4.30 1.75 4.15 2.50 -0.15 0.80 -2.95 0.90 -3.25 0.10 -0.30 -0.90 -2.60 0 -2.60 0.95 0 0.70 -0.35 0.95 -1.25 0.95 -0.95 0 -1.15 -0.20 -0.90 -0.85z"/>
 </g>
 <g fill="#976b4d">
  <path d="M30.90 38.40 c0.55 -0.65 1.20 -1.80 1.40 -2.55 0.15 -0.80 0.85 -1.65 1.50 -1.95 0.65 -0.30 1.20 -0.90 1.25 -1.35 0.05 -1 1.90 2.90 1.95 4.10 0 0.50 -0.40 0.85 -1 0.85 -0.55 0 -1 -0.35 -1 -0.80 0 -1.25 -0.85 -0.35 -1.15 1.30 -0.30 1.35 -0.50 1.50 -2.15 1.50 l-1.85 0 1.05 -1.10z"/>
  <path d="M8.85 35.20 c-1 -1.95 -2.15 -2.95 -2.60 -2.20 -0.55 0.90 -1.30 0.55 -1.15 -0.60 0.15 -1 0.45 -1.15 2.15 -1.15 1.75 0 2 0.15 2.20 1.25 0.05 0.70 0.35 1.40 0.60 1.55 0.30 0.15 0.30 0.75 0.05 1.50 l-0.45 1.20 -0.80 -1.55z"/>
  <path d="M24.50 29.45 c-0.95 -0.50 -2 -0.95 -2.35 -0.95 -0.35 0 -0.65 -0.35 -0.65 -0.75 0 -0.50 0.55 -0.75 1.75 -0.75 0.95 0 1.75 0.25 1.75 0.55 0 1.20 0.90 -0.20 1.25 -1.90 0.70 -3.70 2.50 -4.40 2 -0.75 -0.40 2.90 -1.20 5.60 -1.65 5.55 -0.20 0 -1.15 -0.45 -2.10 -1z"/>
  <path d="M4.30 26.65 c0.45 -3.25 2.70 -7.15 4.10 -7.15 0.25 0 0.60 -0.35 0.80 -0.75 0.15 -0.40 0.70 -0.75 1.25 -0.75 1.35 0 2.95 -1.80 3.65 -4.10 0.60 -2.10 1.70 -2.50 2.05 -0.80 0.20 1 0.20 0.95 0.30 -0.20 0.05 -1.15 0.30 -1.40 1.35 -1.40 1.05 0 1.25 0.15 0.95 0.90 -1.45 3.40 -1.75 4.75 -1.30 6.35 0.50 1.95 0.35 2.25 -1 1.90 -0.70 -0.20 -0.95 -0.70 -0.95 -1.95 0 -0.95 -0.20 -1.70 -0.50 -1.70 -0.25 0 -0.50 0.25 -0.50 0.55 0 0.80 -1.95 2.45 -2.95 2.50 -0.50 0 -0.60 0.10 -0.15 0.30 1 0.40 0.70 2.15 -0.40 2.15 -0.55 0 -1 -0.20 -1 -0.50 0 -0.25 -0.30 -0.50 -0.60 -0.50 -0.70 0 -2.60 3.75 -3.20 6.15 -0.20 0.90 -0.65 1.35 -1.30 1.35 -0.85 0 -0.95 -0.25 -0.60 -2.35z"/>
  <path d="M7.25 27.55 c0.80 -1.60 1.75 -2.45 1.75 -1.60 0 0.30 -0.20 0.55 -0.50 0.55 -0.25 0 -0.50 0.55 -0.50 1.25 0 0.80 -0.30 1.25 -0.75 1.25 -0.70 0 -0.70 -0.15 0 -1.45z"/>
  <path d="M32.10 24.60 c-2.20 -4.70 -2 -5.20 0.20 -0.70 1 2 1.70 3.75 1.60 3.90 -0.15 0.10 -0.95 -1.35 -1.80 -3.20z"/>
  <path d="M14.80 8.90 c-0.50 -1.90 -0.35 -2.40 0.70 -2.40 0.80 0 1 0.35 1 1.75 0 2 -1.20 2.45 -1.70 0.65z"/>
  <path d="M20.50 6.25 c0 -1.20 0.25 -1.75 0.75 -1.75 0.40 0 0.75 -0.45 0.75 -1 0 -0.75 0.35 -1 1.25 -1 0.70 0 1.25 0.20 1.25 0.45 0 0.45 -3.40 5.05 -3.75 5.05 -0.15 0 -0.25 -0.80 -0.25 -1.75z"/>
  <path d="M6.75 6.50 c-0.15 -0.25 0.15 -0.50 0.70 -0.50 0.60 0 1.05 0.25 1.05 0.50 0 0.30 -0.30 0.50 -0.70 0.50 -0.40 0 -0.90 -0.20 -1.05 -0.50z"/>
  <path d="M9 6.50 c0 -0.25 0.45 -0.50 1 -0.50 0.55 0 1 0.25 1 0.50 0 0.30 -0.45 0.50 -1 0.50 -0.55 0 -1 -0.20 -1 -0.50z"/>
  <path d="M29.05 3.75 c1.05 -1.05 1.50 -1.20 2.50 -0.80 0.85 0.30 1 0.50 0.45 0.65 -0.40 0.15 -1.55 0.50 -2.50 0.80 l-1.75 0.60 1.30 -1.25z"/>
 </g>
 <g fill="#8f8474">
  <path d="M5 31.75 c0 -0.65 -0.20 -1.35 -0.50 -1.50 -0.75 -0.45 -0.60 -2.75 0.25 -3.05 0.40 -0.15 0.85 -0.70 1 -1.25 0.20 -0.50 0.50 -0.95 0.75 -0.95 0.20 0 0.10 1.05 -0.30 2.40 -0.75 2.60 -0.90 2.65 1.80 -0.95 0.50 -0.65 1.05 -0.90 1.65 -0.70 1.20 0.50 1.05 1.60 -0.40 2.95 -0.80 0.75 -1.25 1.70 -1.25 2.60 0 1.25 -0.20 1.45 -1.50 1.55 -1.30 0.10 -1.50 -0.05 -1.50 -1.10z"/>
  <path d="M25.60 29.90 c-0.90 -0.90 -0.70 -1.40 0.60 -1.40 0.95 0 1.15 0.20 0.95 1 -0.30 1.15 -0.70 1.25 -1.55 0.40z"/>
  <path d="M20 28.10 c0 -0.40 2.70 -2.60 3.25 -2.60 0.15 0 0.25 0.70 0.25 1.50 0 1.40 -0.15 1.50 -1.75 1.50 -0.95 0 -1.75 -0.20 -1.75 -0.40z"/>
  <path d="M9.50 18.95 c0 -0.70 0.25 -0.95 0.70 -0.80 0.35 0.15 1.15 -0.05 1.75 -0.45 1 -0.70 1.05 -0.70 1.05 0.75 0 1.45 -0.15 1.55 -1.75 1.55 -1.45 0 -1.75 -0.20 -1.75 -1.05z"/>
  <path d="M14.50 12.90 c0 -1.50 0.65 -2.90 1.30 -2.90 0.45 0 0.70 0.60 0.70 1.75 0 1.40 -0.20 1.75 -1 1.75 -0.55 0 -1 -0.30 -1 -0.60z"/>
  <path d="M23.75 9.95 c-0.50 -0.75 0.15 -1.25 0.80 -0.60 0.35 0.35 0.35 0.65 0.05 0.85 -0.30 0.15 -0.70 0.05 -0.85 -0.25z"/>
  <path d="M20 6.75 c0 -0.95 0.20 -1.75 0.45 -1.75 0.25 0 0.55 -0.45 0.70 -1 0.15 -0.55 0.05 -1 -0.20 -1 -0.25 0 -0.45 -0.45 -0.45 -1 0 -0.65 0.35 -1 1 -1 0.55 0 1 0.25 1 0.50 0 0.30 0.30 0.50 0.70 0.50 1.45 0 1.30 1.05 -0.55 3.70 -1.05 1.55 -2.05 2.75 -2.25 2.80 -0.25 0 -0.40 -0.80 -0.40 -1.75z"/>
  <path d="M14.50 7.50 c0 -0.60 2.20 -3.95 3.35 -5.15 0.85 -0.90 0.90 -0.90 1.05 0.45 0.10 0.80 -0.05 1.50 -0.35 1.60 -0.30 0.10 -0.55 0.60 -0.55 1.15 0 0.50 -0.20 0.95 -0.50 0.95 -0.25 0 -0.50 0.35 -0.50 0.75 0 0.45 -0.45 0.75 -1.25 0.75 -0.70 0 -1.25 -0.20 -1.25 -0.50z"/>
 </g>
 <g fill="#ab7f5f">
  <path d="M30 39.60 c0 -0.20 0.70 -1 1.50 -1.75 l1.50 -1.45 0 1.80 c0 1.65 -0.10 1.80 -1.50 1.80 -0.80 0 -1.50 -0.15 -1.50 -0.40z"/>
  <path d="M8.70 34.70 c-0.45 -0.80 -1.20 -1.75 -1.65 -2.05 -0.60 -0.55 -0.45 -0.65 1.10 -0.65 1.50 0 1.90 0.20 2.15 1.20 0.15 0.70 0.05 1.60 -0.20 2.10 -0.40 0.75 -0.60 0.70 -1.40 -0.60z"/>
  <path d="M33 35 c0 -0.30 0.60 -0.80 1.30 -1.10 1.05 -0.50 1.35 -0.45 1.75 0.15 0.75 1.20 0.50 1.45 -1.30 1.45 -0.95 0 -1.75 -0.25 -1.75 -0.50z"/>
  <path d="M4.30 27.15 c0.60 -4.50 4.20 -9.55 6.25 -8.90 0.65 0.25 1.30 -0.25 2.30 -1.70 0.75 -1.10 1.55 -2 1.80 -2.05 0.20 0 0.35 0.80 0.35 1.75 0 1.60 -0.10 1.75 -1.50 1.75 -1.15 0 -1.50 0.20 -1.50 1 0 0.75 -0.35 1 -1.35 1 -1.20 0 -1.60 0.40 -2.85 3.15 -0.75 1.70 -1.60 3.85 -1.90 4.75 -0.25 0.90 -0.80 1.60 -1.20 1.60 -0.60 0 -0.70 -0.45 -0.40 -2.35z"/>
  <path d="M26.05 26.40 c0.15 -2.20 1.20 -4.10 2.05 -3.60 0.25 0.15 0.35 0.65 0.20 1.10 -0.10 0.50 -0.35 1.70 -0.55 2.75 -0.20 1.20 -0.55 1.85 -1.05 1.85 -0.60 0 -0.75 -0.50 -0.65 -2.10z"/>
  <path d="M13 20.30 c0 -1 0.25 -1.30 1.15 -1.30 0.60 0 1.60 -0.15 2.15 -0.30 0.80 -0.20 1.15 0 1.30 0.70 0.25 0.80 0 1.05 -1.30 1.25 -0.85 0.10 -1.95 0.35 -2.40 0.60 -0.75 0.30 -0.90 0.10 -0.90 -0.95z"/>
  <path d="M16 14.25 c0 -0.95 0.25 -1.75 0.50 -1.75 0.30 0 0.50 -0.35 0.50 -0.75 0 -0.40 0.40 -1.50 0.85 -2.50 0.60 -1.25 1.15 -1.75 2 -1.75 0.65 0 1.15 0.10 1.15 0.25 0 0.75 -4.15 8.25 -4.55 8.25 -0.25 0 -0.45 -0.80 -0.45 -1.75z"/>
  <path d="M7 6.50 c0 -0.25 0.90 -0.50 2.05 -0.50 1.20 0 1.90 0.20 1.70 0.50 -0.15 0.30 -1.10 0.50 -2.05 0.50 -0.95 0 -1.70 -0.20 -1.70 -0.50z"/>
 </g>
 <g fill="#ac937f">
  <path d="M30 39.75 c0 -0.10 0.45 -0.65 1.05 -1.15 0.55 -0.55 1.20 -1.60 1.40 -2.40 0.45 -1.85 2.50 -3 3.50 -2 0.75 0.80 0.35 1.80 -0.75 1.80 -0.40 0 -0.85 0.65 -1 1.50 -0.20 0.85 -0.65 1.50 -1 1.50 -0.40 0 -0.70 0.25 -0.70 0.50 0 0.30 -0.55 0.50 -1.25 0.50 -0.70 0 -1.25 -0.10 -1.25 -0.25z"/>
  <path d="M8.80 34.70 c-0.55 -1.45 -0.30 -2.20 0.70 -2.20 0.55 0 1 0.30 1 0.70 0 1.05 -0.55 2.30 -1 2.30 -0.20 0 -0.55 -0.35 -0.70 -0.80z"/>
  <path d="M4.65 30.60 c-0.90 -2 0.05 -7.10 1.35 -7.10 0.75 0 0.85 1.70 0.15 3.75 -0.45 1.30 -0.50 2.05 -0.15 2.15 0.70 0.25 0.65 2.60 -0.15 2.60 -0.30 0 -0.90 -0.60 -1.20 -1.40z"/>
  <path d="M20 28.10 c0 -0.40 2.15 -1.60 2.75 -1.60 0.15 0 0.25 0.45 0.25 1 0 0.80 -0.35 1 -1.50 1 -0.80 0 -1.50 -0.20 -1.50 -0.40z"/>
  <path d="M25.90 26.15 c-0.15 -1.35 0 -2.10 0.55 -2.50 1.20 -0.95 1.55 -0.80 1.55 0.75 -0.05 3.65 -1.70 5.05 -2.10 1.75z"/>
  <path d="M12 21.05 c0 -1.40 0.15 -1.55 1.65 -1.55 1.60 0 1.65 -0.05 1.45 -1.75 -0.10 -1 -0.50 -1.75 -0.85 -1.75 -0.50 0 -0.55 -0.35 -0.10 -1.75 0.45 -1.55 1.85 -2.50 1.85 -1.25 0 0.30 0.45 0.50 1 0.50 0.85 0 0.90 0.15 0.45 1.40 -0.30 0.75 -0.40 2.30 -0.20 3.50 0.30 2 0.25 2.10 -1 2.10 -0.75 0 -2 0.45 -2.80 1.05 l-1.45 1 0 -1.50z"/>
  <path d="M7.50 20 c1.25 -1.75 3 -2.05 3 -0.50 0 1.10 -1.35 2 -3 2 l-1.05 0 1.05 -1.50z"/>
  <path d="M19 8.25 c0 -1.55 0.15 -1.75 1.25 -1.75 1.50 0 1.50 0.15 0.40 2.05 -1.15 1.90 -1.65 1.85 -1.65 -0.30z"/>
  <path d="M22 3.85 c0 -1.50 0.20 -1.85 1 -1.85 0.65 0 1 0.35 1 0.90 0 0.55 -0.45 1.35 -1 1.85 -1 0.90 -1 0.85 -1 -0.90z"/>
 </g>
 <g fill="#b1a293">
  <path d="M34.50 35.20 c0 -1.60 1.45 -1.50 2.05 0.20 0.35 0.95 0.25 1.10 -0.80 1.10 -1 0 -1.25 -0.25 -1.25 -1.30z"/>
  <path d="M9.10 34.90 c-0.30 -0.30 -0.60 -1.25 -0.60 -2 0 -1.05 0.25 -1.40 1 -1.40 1.05 0 1.30 1.35 0.60 3.15 -0.30 0.70 -0.50 0.75 -1 0.25z"/>
  <path d="M5 31.60 c0 -0.75 -0.20 -1.60 -0.50 -1.90 -0.65 -0.65 -0.05 -2.70 0.85 -2.70 0.55 0 0.65 0.35 0.45 1.25 -0.35 1.45 0.05 1.60 1 0.40 0.60 -0.80 0.65 -0.70 0.70 0.95 0 1.70 -1 3.40 -2.05 3.40 -0.25 0 -0.45 -0.65 -0.45 -1.40z"/>
  <path d="M25.65 29.95 c-0.30 -0.30 -1.75 -0.95 -3.25 -1.45 -2.25 -0.75 -2.50 -0.90 -1.50 -1.20 0.60 -0.20 1.10 -0.55 1.10 -0.80 0 -0.40 2.55 -2 3.20 -2 0.15 0 0.35 0.75 0.45 1.65 0.20 1.55 0.20 1.55 0.25 -0.25 0.10 -1.60 0.30 -1.90 1.15 -1.90 0.95 0 1.05 0.20 0.75 1.60 -0.15 0.90 -0.60 1.80 -0.95 2 -0.45 0.30 -0.45 0.40 0.05 0.40 0.75 0 0.75 0.60 -0.05 1.65 -0.45 0.65 -0.75 0.75 -1.20 0.30z"/>
  <path d="M8.50 27.50 c0 -1.10 0.20 -2 0.40 -2 0.85 0 1.60 1.25 1.60 2.60 0 1.05 -0.25 1.40 -1 1.40 -0.85 0 -1 -0.35 -1 -2z"/>
  <path d="M5.80 24.20 c-0.60 -1.60 2.20 -5.20 4.05 -5.20 0.70 0 1.15 0.30 1.15 0.75 0 0.50 0.50 0.75 1.60 0.75 1.50 0 1.55 0 0.65 1 -1.10 1.20 -2.10 1.25 -3.30 0.20 -0.80 -0.75 -0.95 -0.65 -1.95 1.25 -1.10 2.20 -1.70 2.55 -2.20 1.25z"/>
  <path d="M15 18.50 c0 -0.75 -0.35 -1 -1.25 -1 l-1.20 0 1 -1.75 c1.15 -1.95 1.95 -2.25 1.95 -0.75 0 0.55 0.35 1 0.80 1 0.40 0 0.65 0.20 0.50 0.45 -0.20 0.25 -0.10 1.05 0.20 1.75 0.45 1.20 0.35 1.30 -0.75 1.30 -0.90 0 -1.25 -0.25 -1.25 -1z"/>
  <path d="M19.50 7.25 c0 -0.95 0.25 -1.75 0.50 -1.75 0.30 0 0.50 -0.35 0.50 -0.75 0 -0.50 0.50 -0.75 1.50 -0.75 l1.50 0 -1.60 2.50 c-0.90 1.35 -1.80 2.50 -2 2.50 -0.25 0 -0.40 -0.80 -0.40 -1.75z"/>
  <path d="M14.70 7.80 c-0.15 -0.40 0.20 -1.25 0.75 -1.85 l1.05 -1.15 0 1.85 c0 1.35 -0.20 1.85 -0.75 1.85 -0.45 0 -0.90 -0.35 -1.05 -0.70z"/>
 </g>
 <g fill="#bdb2a5">
  <path d="M32.50 36.20 c0 -0.90 0.80 -1.65 2.05 -1.95 1 -0.25 1.40 -0.10 1.65 0.55 0.20 0.45 0.25 0.95 0.10 1.05 -0.40 0.45 -3.80 0.75 -3.80 0.35z"/>
  <path d="M8.50 32.50 c0 -1.45 -0.20 -2 -0.75 -2 -0.40 0 -0.75 0.45 -0.75 1 0 0.90 -0.25 1.05 -1.35 0.95 -0.25 0 -0.35 -0.35 -0.25 -0.75 0.10 -0.45 -0.10 -1.10 -0.45 -1.50 -1.90 -2.30 2.35 -11.70 5.30 -11.70 2.60 0 5.25 -5.55 4.60 -9.65 -0.20 -1.55 1.35 -4.85 2.30 -4.85 0.25 0 0.25 1.80 0.05 4 -0.30 3.50 -0.25 4 0.50 4 0.95 0 1 0.20 0.25 1.65 -0.80 1.55 -2.25 2.85 -3.20 2.85 -0.50 0 -0.75 0.50 -0.75 1.50 0 0.85 -0.25 1.50 -0.55 1.50 -0.80 0 -1.95 1.30 -1.95 2.20 0 1.10 -0.80 1 -1.70 -0.25 -0.70 -1 -0.75 -0.90 -2.20 2.15 -1.45 3.20 -2.45 6.40 -1.90 6.40 0.15 0 0.85 -1 1.60 -2.25 1.35 -2.35 2.35 -2.70 2.60 -0.90 0.10 0.70 -0.15 1.15 -0.75 1.30 -0.70 0.20 -0.65 0.25 0.25 0.30 0.95 0.05 1.10 0.35 1.10 1.95 0 2.60 -0.50 4.10 -1.30 4.10 -0.50 0 -0.70 -0.65 -0.70 -2z"/>
  <path d="M25.55 29.55 c-0.60 -0.40 -0.65 -0.70 -0.15 -1.80 0.80 -1.70 0.75 -1.75 -0.40 -1.75 -0.65 0 -1 0.35 -1 1 0 0.85 -0.35 1 -2.10 1 -1.85 -0.05 -2 -0.10 -1.15 -0.60 0.55 -0.30 1.10 -0.70 1.25 -0.90 0.15 -0.20 1.55 -1.10 3.20 -2 l2.90 -1.65 -0.35 2.70 c-0.55 4.55 -0.75 4.90 -2.20 4z"/>
  <path d="M21.50 4.40 c0 -1.70 0.15 -1.90 1.25 -1.90 1.55 0 1.60 0.55 0 2.35 l-1.20 1.40 -0.05 -1.85z"/>
 </g>
 <g fill="#cbc0b5">
  <path d="M30.50 39.60 c0 -0.25 0.45 -0.85 1 -1.35 0.55 -0.50 1 -1.30 1 -1.80 0 -0.50 0.60 -1.30 1.30 -1.80 1.30 -0.80 1.35 -0.80 2.25 0.30 1.25 1.55 1.25 3.05 0 3.05 -0.55 0 -1.10 -0.40 -1.20 -0.85 -0.15 -0.65 -0.35 -0.40 -0.60 0.70 -0.20 1 -0.75 1.65 -1.45 1.85 -1.50 0.40 -2.30 0.35 -2.30 -0.10z"/>
  <path d="M8.50 34 c-0.80 -1.10 -1.40 -1.50 -2.05 -1.35 -0.75 0.20 -0.95 0 -0.95 -0.90 0 -0.65 -0.20 -1.35 -0.50 -1.50 -0.65 -0.40 -0.65 -1.75 0 -1.75 0.30 0 0.50 0.35 0.50 0.80 0 0.70 0.15 0.70 0.75 0.20 0.60 -0.50 0.75 -0.50 0.75 0.20 0 0.45 0.35 0.80 0.75 0.80 0.55 0 0.75 -0.55 0.75 -2 0 -2.20 1.20 -2.85 1.65 -0.85 0.30 1.05 -0.05 7.40 -0.40 7.75 -0.05 0.10 -0.65 -0.55 -1.25 -1.40z"/>
  <path d="M25.50 29.50 c-0.40 -0.30 -1.75 -0.75 -2.95 -1.10 -2 -0.50 -2.10 -0.60 -1.30 -1.25 1.10 -0.75 2.75 -0.85 2.75 -0.15 0 0.30 0.65 0.50 1.45 0.50 1.75 0 2.25 0.55 1.40 1.65 -0.45 0.60 -0.80 0.70 -1.35 0.35z"/>
  <path d="M4.50 26.80 c0 -1.35 2.10 -5.55 3.65 -7.20 0.60 -0.65 1.40 -1 1.85 -0.85 0.55 0.20 1.50 -0.40 2.70 -1.60 l1.80 -1.85 0 1.85 c0 1.65 -0.15 1.85 -1.25 1.85 -1.10 0 -1.25 0.20 -1.25 1.75 0 2.05 -1.10 2.40 -2.05 0.65 l-0.55 -1.05 -0.90 1.15 c-0.50 0.65 -1.30 2.40 -1.80 3.85 -0.95 2.70 -2.20 3.55 -2.20 1.45z"/>
  <path d="M26 25.35 c0 -0.60 0.45 -1.40 1 -1.75 1.10 -0.70 1.25 -0.30 0.70 1.80 -0.40 1.45 -1.70 1.45 -1.70 -0.05z"/>
  <path d="M15.25 18.25 c-0.15 -1.30 -0.15 -2.95 0 -3.75 0.20 -0.90 0.10 -1.50 -0.20 -1.50 -0.35 0 -0.35 -0.50 0 -1.50 0.40 -1.05 0.40 -1.95 0 -3 -0.45 -1.40 -0.40 -1.50 0.75 -1.50 1 0 1.20 0.25 1.25 1.65 l0 1.60 1.10 -2.10 c0.65 -1.35 1.40 -2.15 1.95 -2.15 0.65 0 0.90 -0.40 0.90 -1.50 0 -0.80 0.25 -1.50 0.50 -1.50 0.30 0 0.50 -0.30 0.50 -0.70 0 -0.45 0.35 -0.60 1 -0.45 1.35 0.35 1.25 0.85 -0.45 3.30 -2.35 3.50 -5.70 10.40 -5.70 11.80 0 0.70 0.20 1.80 0.40 2.45 0.30 0.90 0.20 1.10 -0.65 1.10 -0.80 0 -1.05 -0.45 -1.35 -2.25z"/>
  <path d="M17.75 2.50 c0.80 -0.80 1.60 -1.50 1.85 -1.50 0.20 0 0.40 0.70 0.40 1.50 0 1.40 -0.15 1.50 -1.85 1.50 l-1.85 0 1.45 -1.50z"/>
 </g>
 <g fill="#d9d1c5">
  <path d="M31 39 c0.30 -0.55 0.70 -1 0.95 -1 0.25 0 0.55 -0.65 0.70 -1.45 0.20 -1 0.70 -1.55 1.60 -1.75 1.55 -0.40 2.05 -0.15 2.40 1.20 0.20 0.80 0 1 -0.95 1 -0.75 0 -1.20 0.30 -1.20 0.80 0 1.15 -1.25 2.20 -2.75 2.20 -1.15 0 -1.20 -0.10 -0.75 -1z"/>
  <path d="M8.05 33.50 c-0.60 -0.85 -1.30 -1.40 -1.60 -1.25 -0.25 0.20 -0.45 -0.05 -0.45 -0.50 0 -0.65 0.40 -0.80 1.90 -0.65 1.75 0.15 1.85 0.25 2 2.05 0.20 2.25 -0.35 2.35 -1.85 0.35z"/>
  <path d="M4.50 28.15 c0 -2.15 0.55 -3.65 1.30 -3.65 0.85 0 0.85 0 0.15 2.80 -0.65 2.45 -1.45 2.95 -1.45 0.85z"/>
  <path d="M7.35 27.90 c1.10 -1.85 2.65 -2.50 2.65 -1.05 0 1.35 -0.60 1.95 -2.20 2.35 l-1.40 0.35 0.95 -1.65z"/>
  <path d="M24.25 28.90 c-0.80 -0.30 -1.75 -0.85 -2.10 -1.15 -0.75 -0.80 0.10 -1.65 3.55 -3.45 l2.40 -1.30 -0.35 1.40 c-0.20 0.75 -0.55 1.50 -0.85 1.65 -0.35 0.20 -0.30 0.40 0.10 0.55 0.85 0.25 0.25 2.90 -0.65 2.85 -0.30 0 -1.25 -0.25 -2.10 -0.55z"/>
  <path d="M10.60 21.90 c-0.35 -0.35 -0.60 -0.95 -0.60 -1.35 -0.05 -0.60 -0.25 -0.50 -0.95 0.35 -1.15 1.35 -1.55 1.40 -1.55 0.20 0 -1.30 1.95 -3 2.45 -2.20 0.25 0.40 0.85 0.15 1.95 -0.90 l1.60 -1.45 0 1.25 c0 0.95 0.25 1.20 1.25 1.20 0.70 0 1.25 0.30 1.25 0.65 0 0.50 -0.95 1.05 -4.50 2.75 -0.15 0.05 -0.55 -0.15 -0.90 -0.50z"/>
  <path d="M14.80 15.20 c-0.30 -2.25 0.25 -4.20 1.20 -4.20 0.30 0 0.50 0.70 0.50 1.50 0 0.85 0.20 1.50 0.45 1.50 0.25 0 0.20 0.75 -0.10 1.75 -0.75 2.45 -1.65 2.20 -2.05 -0.55z"/>
  <path d="M15.10 8.15 c-0.40 -0.65 -0.25 -1.20 0.45 -2.10 0.50 -0.65 0.95 -1.40 0.95 -1.75 0 -0.70 2.70 -3.30 3.45 -3.30 0.30 0 0.55 0.55 0.55 1.25 0 0.90 -0.25 1.25 -1 1.25 -0.65 0 -1 0.35 -1 1 0 0.55 -0.30 1 -0.70 1 -0.45 0 -0.80 0.60 -0.90 1.60 -0.15 1.80 -1.10 2.35 -1.80 1.05z"/>
  <path d="M20 6.40 c0 -1.70 0.15 -1.90 1.25 -1.90 1.55 0 1.60 0.55 0 2.35 l-1.20 1.40 -0.05 -1.85z"/>
  <path d="M22 2.80 c0 -0.95 0.20 -1.15 1.05 -0.95 0.60 0.20 0.90 0.55 0.75 1 -0.15 0.40 -0.30 0.85 -0.30 0.95 0 0.10 -0.35 0.20 -0.75 0.20 -0.45 0 -0.75 -0.45 -0.75 -1.20z"/>
 </g>
 <g fill="#e4e0d8">
  <path d="M31 39.60 c0 -0.25 0.45 -0.85 0.95 -1.30 0.55 -0.50 1.05 -1.40 1.15 -2 0.10 -0.55 0.40 -1.05 0.75 -1.05 0.30 0 0.75 -0.15 0.95 -0.35 0.20 -0.25 0.50 -0.40 0.70 -0.40 0.60 0 1.50 2.50 1.50 4 0 1.50 0 1.50 -3 1.50 -1.65 0 -3 -0.20 -3 -0.40z"/>
  <path d="M7.90 32.95 c-0.50 -0.50 -1.20 -0.80 -1.65 -0.65 -1.25 0.50 -0.90 -1.55 0.65 -3.75 0.75 -1.10 1.50 -2 1.75 -2.05 0.20 0 0.35 0.75 0.35 1.70 0 1.20 -0.25 1.80 -0.85 1.95 -0.85 0.20 -0.85 0.25 0 0.30 0.65 0.05 0.85 0.50 0.85 1.80 0 2 0.05 2 -1.10 0.70z"/>
  <path d="M4.50 28.65 c0 -2.20 0.85 -4.75 2.50 -7.30 2.60 -4.10 3.05 -2.80 0.65 1.95 -1.20 2.35 -2.15 4.85 -2.15 5.50 0 0.65 -0.20 1.20 -0.50 1.20 -0.25 0 -0.50 -0.60 -0.50 -1.35z"/>
  <path d="M23.40 28.60 c-1.35 -0.45 -2.40 -0.95 -2.40 -1.15 0 -0.60 2 -1.05 3.30 -0.75 0.70 0.20 1.20 0.10 1.20 -0.20 0 -0.25 0.45 -0.50 1 -0.50 1.05 0 1.20 0.50 0.70 2.40 -0.35 1.25 -0.55 1.25 -3.80 0.20z"/>
  <path d="M26 24.75 c0 -0.40 0.10 -0.75 0.20 -0.75 0.10 0 0.55 -0.15 0.95 -0.30 0.60 -0.20 0.70 0 0.50 0.75 -0.30 1.20 -1.65 1.45 -1.65 0.30z"/>
  <path d="M10.30 21.70 c-0.50 -1.30 -0.40 -1.55 1.70 -3.70 1.25 -1.30 2.20 -2.90 2.55 -4.30 0.55 -2.05 0.70 -2.20 2.25 -2.20 0.95 0 1.70 0.10 1.70 0.25 0 0.15 -0.45 1.20 -1 2.25 -1.05 2.05 -1.70 2.50 -2.15 1.40 -0.15 -0.40 -0.30 -0.30 -0.30 0.25 -0.05 0.45 0.25 0.85 0.65 0.85 0.40 0 0.85 0.55 1 1.20 0.15 0.65 0.45 1.55 0.60 2 0.25 0.65 -0.05 0.80 -1.35 0.80 -0.95 0 -2.25 0.45 -2.95 1 -1.50 1.20 -2.30 1.25 -2.70 0.20z"/>
  <path d="M15.30 8.75 c-0.35 -1.45 1.20 -4.90 3 -6.60 l1.20 -1.10 0 1.75 c0 1 -0.30 1.85 -0.65 2 -0.40 0.15 -1 1.35 -1.35 2.70 -0.75 2.70 -1.70 3.25 -2.20 1.25z"/>
  <path d="M19.50 6.75 c0 -0.95 0.20 -1.75 0.50 -1.75 0.25 0 0.65 -0.90 0.80 -2 0.35 -2.25 0.50 -2.30 2.05 -1.10 l1.15 0.85 -1.90 2.85 c-1 1.60 -2 2.90 -2.20 2.90 -0.25 0 -0.40 -0.80 -0.40 -1.75z"/>
 </g>
 <g fill="#f1f0ea">
  <path d="M31.30 39.25 c0.20 -0.45 0.75 -1 1.25 -1.30 0.55 -0.25 0.95 -0.75 0.95 -1.10 0 -0.35 0.55 -1 1.20 -1.45 1.20 -0.85 1.20 -0.85 1.75 0.70 0.90 2.60 0.75 3.45 -0.65 3.10 -0.65 -0.15 -1.35 -0.05 -1.50 0.25 -0.20 0.30 -1 0.55 -1.80 0.55 -1.10 0 -1.40 -0.20 -1.20 -0.75z"/>
  <path d="M8.40 33.50 c-0.85 -1.50 -0.85 -1.50 0.35 -1.50 1.05 0 1.25 0.25 1.25 1.50 0 1.90 -0.50 1.90 -1.60 0z"/>
  <path d="M5.50 31.20 c0 -0.80 3.25 -5.20 3.70 -5.05 0.30 0.10 0.60 0.80 0.70 1.50 0.15 1.10 -0.05 1.35 -0.85 1.35 -0.80 0 -1.05 0.30 -1.05 1.25 0 1 -0.25 1.25 -1.25 1.25 -0.70 0 -1.25 -0.15 -1.25 -0.30z"/>
  <path d="M4.70 27.70 c0.35 -2.80 2 -6.25 3.70 -7.80 1.40 -1.30 1.40 -1.35 -0.75 3.15 -0.85 1.85 -1.80 4.15 -2.15 5.15 -0.80 2.50 -1.20 2.25 -0.80 -0.50z"/>
  <path d="M22.80 28.30 l-2.45 -0.60 1.95 -1.25 c1.10 -0.70 2.70 -1.65 3.60 -2.15 l1.60 -0.85 0 1.65 c0 4 -0.35 4.25 -4.70 3.20z"/>
  <path d="M10.60 21.65 c-0.90 -1.65 0.10 -2.60 2.40 -2.30 1.30 0.20 2 0.10 2 -0.30 0 -0.30 0.45 -0.55 1 -0.55 0.65 0 1 0.35 1 1 0 0.65 -0.25 0.85 -0.70 0.70 -0.40 -0.15 -1.75 0.30 -3 1.05 -2.10 1.25 -2.25 1.25 -2.70 0.40z"/>
  <path d="M13.50 16.40 c0.50 -0.90 1.20 -2.70 1.50 -4 0.35 -1.40 0.95 -2.45 1.45 -2.55 0.75 -0.20 0.75 -0.25 0 -0.30 -0.45 0 -0.95 -0.50 -1.10 -1.05 -0.25 -1.05 1.30 -4.55 2.45 -5.55 0.60 -0.45 0.70 -0.30 0.70 1 0 1.30 0.20 1.55 1.25 1.55 1.60 0 1.80 -1.95 0.25 -2.35 -0.55 -0.15 -1 -0.70 -1 -1.20 0 -0.70 0.35 -0.95 1.50 -0.95 0.90 0 1.65 0.30 1.80 0.75 0.20 0.40 0.50 0.60 0.75 0.45 0.80 -0.50 0.45 1 -0.55 2.55 -0.60 0.85 -1.95 3.25 -3.05 5.40 -1.15 2.10 -2.25 3.85 -2.45 3.85 -0.20 0 -0.60 0.90 -0.95 2 -0.50 1.75 -0.80 2 -2.05 2 l-1.45 0 0.95 -1.60z"/>
 </g>
 <g fill="#fdfdfb">
  <path d="M35.60 38.40 c-0.70 -0.70 -0.80 -2.70 -0.15 -3.10 0.20 -0.15 0.65 0.30 1 1 1 2.25 0.55 3.50 -0.85 2.10z"/>
  <path d="M8.30 33.20 c-0.60 -0.85 -1.25 -1.20 -1.85 -1.05 -1.40 0.35 -1.20 -0.85 0.55 -3.45 1.65 -2.35 2.20 -2.65 2.70 -1.40 0.45 1.15 0.35 7.20 -0.05 7.20 -0.25 0 -0.80 -0.60 -1.35 -1.30z"/>
  <path d="M4.85 27.15 c0.30 -2.05 2.30 -6.35 3.15 -6.90 0.85 -0.50 0.55 0.50 -1 3.85 -0.80 1.70 -1.50 3.40 -1.50 3.75 0 0.30 -0.20 0.70 -0.45 0.90 -0.30 0.15 -0.35 -0.50 -0.20 -1.60z"/>
  <path d="M25.95 28.15 c-0.05 -0.25 -0.05 -0.55 0 -0.75 0.10 -0.60 -1.85 -0.45 -2.05 0.15 -0.10 0.30 -0.85 0.45 -1.65 0.35 l-1.50 -0.15 2.50 -1.60 c3.05 -2 4.50 -2.15 4.05 -0.50 -0.15 0.60 -0.30 1.50 -0.30 2 0 0.80 -0.95 1.25 -1.05 0.50z"/>
  <path d="M10.50 20.85 c0 -0.65 0.75 -1.90 1.75 -2.85 2.05 -2 3.45 -6 3.15 -9.05 -0.10 -1.05 0 -1.95 0.15 -1.95 0.20 0 0.60 -0.75 0.95 -1.60 0.30 -0.90 1.10 -2.25 1.75 -3.05 1.30 -1.45 2.55 -1.50 4.40 -0.10 0.90 0.65 0.85 0.80 -0.80 3.35 -1 1.45 -2.60 4.35 -3.60 6.40 -1.50 3.10 -1.75 4.10 -1.55 5.90 0.25 1.75 0.15 2.10 -0.60 2.10 -0.45 0 -1.60 0.45 -2.50 1 -2.15 1.30 -3.10 1.30 -3.10 -0.15z"/>
 </g>
</svg>