<?xml version="1.0" encoding="utf-8"?>
<!DOCTYPE svg PUBLIC "-//W3C//DTD SVG 1.0//EN" "http://www.w3.org/TR/2001/REC-SVG-20010904/DTD/svg10.dtd">
<svg version="1.0" xmlns="http://www.w3.org/2000/svg" width="40px" height="40px" viewBox="0 0 40 40" preserveAspectRatio="xMidYMid meet">
 <g fill="#120904">
  <path d="M9.50 39.20 c0 -0.80 -1.50 -3.15 -3.10 -4.90 -0.55 -0.60 -0.80 -1.40 -0.60 -2 0.40 -1.35 3.50 -4.20 5.55 -5.10 1.90 -0.80 4.15 -0.90 4.15 -0.20 0 0.30 0.90 0.50 2 0.50 l2 0 0 2 c0 1.10 -0.20 2 -0.50 2 -0.30 0 -0.45 1.30 -0.40 3.15 l0.10 3.10 0.15 -2.60 0.20 -2.65 2 0 c1.60 0 1.95 0.15 1.95 0.95 0 1.70 1 1.75 1.65 0.10 0.45 -1.30 0.85 -1.55 2.20 -1.55 1.30 0 1.70 0.25 1.85 1.15 1.05 5.15 0.80 6.85 -1 6.85 -0.70 0 -1.20 -0.30 -1.20 -0.70 0 -1.30 -1.15 -1.50 -2.05 -0.40 -0.75 1 -1.35 1.10 -5.40 1.10 -3.30 0 -4.55 -0.15 -4.60 -0.60 -0.10 -2.80 -0.55 -7.65 -0.65 -7.80 -0.10 -0.05 -1 -0.25 -2 -0.45 -1.60 -0.25 -1.85 -0.15 -2.30 1.10 -0.45 1.15 -0.30 1.55 0.75 2.85 1.50 1.80 1.60 2.90 0.25 4.05 -0.90 0.75 -1 0.75 -1 0.05z"/>
  <path d="M25.30 28.80 c-0.30 -1.50 -0.55 -1.80 -1.55 -1.80 -1.10 0 -1.25 -0.25 -1.25 -1.75 0 -1.25 0.20 -1.75 0.80 -1.75 0.60 0 0.70 -0.45 0.60 -2.10 -0.15 -1.95 -0.30 -2.15 -1.50 -2.30 -1.15 -0.15 -1.40 -0.40 -1.40 -1.60 0 -2.25 0.50 -3 2 -3 1.25 0 1.45 -0.20 1.75 -2 0.35 -2.15 0.10 -3 -1.05 -3 -0.50 0 -0.70 -0.65 -0.70 -2.30 0 -1.35 -0.20 -2.15 -0.50 -1.95 -0.25 0.15 -0.50 1.15 -0.50 2.20 0 1.05 -0.15 2.95 -0.30 4.25 -0.30 1.95 -0.50 2.30 -1.40 2.30 -0.80 0 -1.30 0.50 -1.80 1.75 -0.65 1.65 -1.50 2.35 -1.50 1.25 0 -1 -0.75 -0.45 -1.90 1.25 -1.85 2.85 -4.20 1.85 -2.65 -1.15 0.70 -1.35 1.60 -5.20 1.70 -7.10 0.20 -3.80 4.40 -8.30 7.40 -7.90 1.05 0.15 1.50 -0.05 2 -0.95 0.40 -0.70 1.10 -1.15 1.80 -1.15 1.55 0 2.05 1.35 0.85 2.25 -0.55 0.40 -0.70 0.70 -0.30 0.75 0.95 0 0.70 0.85 -0.30 1.10 -0.75 0.20 -0.90 0.60 -0.70 1.85 0.25 1.75 1.45 2.60 2.10 1.50 0.90 -1.40 1.15 0.15 0.30 1.60 -0.85 1.50 -0.85 1.55 0.05 2.60 1.05 1.25 1.65 6.35 0.70 6.35 -0.30 0 -0.55 -0.20 -0.55 -0.50 0 -0.25 -0.20 -0.50 -0.45 -0.50 -0.55 0 -0.10 4.55 0.50 5.20 0.25 0.30 0.45 0.90 0.45 1.40 0 0.65 0.40 0.90 1.25 0.90 1.45 0 1.45 -0.05 0.60 3.25 -0.60 2.35 -0.75 2.50 -2.45 2.65 -1.70 0.15 -1.80 0.05 -2.10 -1.60z"/>
  <path d="M17 24.80 c0 -1.25 0.20 -2.40 0.50 -2.55 0.30 -0.15 0.35 0.05 0.20 0.45 -0.55 1.45 0.25 0.80 1.60 -1.20 0.80 -1.25 1.70 -2 2.35 -2 0.90 0 0.95 0.25 0.70 2.55 -0.45 3.60 -1.45 4.95 -3.60 4.95 -1.75 0 -1.75 0 -1.75 -2.20z"/>
  <path d="M29 21.25 c0 -1.95 0.70 -2.30 1.50 -0.80 0.80 1.55 0.60 2.55 -0.50 2.55 -0.80 0 -1 -0.35 -1 -1.75z"/>
 </g>
 <g fill="#2a170b">
  <path d="M8.50 39.60 c0 -0.20 0.20 -0.60 0.50 -0.90 0.30 -0.30 -0.25 -1.40 -1.50 -3.10 -2.30 -3.05 -2.20 -3.65 0.95 -6.45 1.55 -1.40 5.25 -3.15 6.65 -3.15 0.65 0 0.45 4.40 -0.20 4.65 -0.40 0.15 -0.30 0.30 0.25 0.30 0.60 0.05 0.85 -0.35 0.85 -1.20 0 -0.70 0.20 -1.25 0.40 -1.25 0.25 0 0.35 -1.25 0.20 -2.85 -0.20 -2.45 -0.15 -2.75 0.60 -2.50 0.55 0.25 1.15 -0.20 1.95 -1.40 1.30 -2.05 3.20 -2.40 3.45 -0.70 0.15 1.25 1.65 2.35 2.25 1.75 0.20 -0.20 0 -0.60 -0.50 -0.85 -0.45 -0.30 -0.85 -0.95 -0.85 -1.45 0 -0.75 -0.35 -1 -1.45 -1 -1.20 0 -1.40 -0.15 -1.20 -1.15 0.10 -0.60 -0.10 -1.75 -0.55 -2.55 l-0.75 -1.45 -0.30 1.30 c-0.40 1.45 -0.80 1.60 -2.30 0.85 -0.70 -0.40 -0.95 -0.35 -0.95 0.15 0 0.85 -3.85 5.35 -4.60 5.35 -0.25 0 -0.30 -0.45 -0.15 -1.05 0.30 -0.95 0.20 -1.05 -0.75 -0.80 -1 0.25 -0.90 0 0.70 -1.55 1.90 -2 2.40 -3.30 0.95 -2.75 -0.65 0.25 -0.75 0.10 -0.50 -0.55 0.20 -0.50 0.35 -1.20 0.35 -1.60 0 -0.40 0.35 -0.70 0.80 -0.70 0.60 0 0.75 -0.35 0.55 -1.35 -0.25 -1.45 0.80 -4.15 1.65 -4.15 0.30 0 0.50 0.35 0.50 0.85 0 0.45 0.15 0.65 0.35 0.45 0.20 -0.20 0.30 -1.10 0.25 -2 -0.10 -1.45 0.20 -1.95 1.85 -3.25 2.20 -1.75 3.85 -1.95 4.90 -0.65 0.70 0.80 0.70 0.80 0.45 0 -0.15 -0.50 -0.05 -1 0.20 -1.15 0.30 -0.20 0.50 0.15 0.50 0.70 0 0.65 0.35 1.05 0.90 1.05 0.45 0 0.65 0.20 0.35 0.40 -0.55 0.40 -0.75 4.15 -0.20 3.80 0.20 -0.10 0.55 0 0.70 0.30 0.20 0.35 0.95 -0.05 1.90 -1 2.25 -2.20 2.70 -1.85 0.75 0.60 -0.90 1.15 -1.90 2.55 -2.15 3.15 -0.35 0.65 -1.10 1.05 -2.35 1.15 -1.35 0.10 -1.85 0.40 -2.10 1.25 -0.45 1.75 -0.40 1.85 1.45 1.85 1.40 0 1.75 -0.20 1.75 -1 0 -0.55 0.35 -1 0.75 -1 0.40 0 0.75 -0.35 0.75 -0.75 0 -0.40 0.20 -0.75 0.40 -0.75 0.85 0 1.60 1.25 1.60 2.70 0 0.80 0.55 2.85 1.25 4.55 1 2.50 1.15 3.50 0.85 5.30 -0.35 1.95 -0.55 2.20 -1.65 2.10 -1.10 -0.15 -1.10 -0.10 -0.35 0.55 0.70 0.55 0.85 1.45 0.85 5.35 -0.05 5.25 -0.80 7.40 -2.55 7.45 -0.60 0 -0.50 -1.90 0.15 -3.05 0.25 -0.55 0.35 -1.45 0.20 -2 -0.30 -0.90 -0.40 -0.85 -1.20 0.65 -0.55 1.05 -0.70 1.85 -0.40 2.30 0.65 0.85 -0.05 0.75 -1 -0.15 -0.70 -0.70 -0.85 -0.70 -1.40 0.10 -0.65 0.85 -0.70 0.80 -1.20 -0.50 -0.30 -0.80 -0.55 -1.75 -0.55 -2.15 0 -0.40 -0.20 -0.70 -0.50 -0.70 -0.30 0 -0.50 1.35 -0.50 3 0 2.90 -0.05 3 -1.30 3 -0.70 0 -1.60 -0.35 -2 -0.75 -0.45 -0.40 -1 -0.75 -1.25 -0.75 -0.25 0 -0.45 0.35 -0.45 0.75 0 1.90 -0.85 0.40 -1.70 -2.85 -0.45 -2 -1 -4.05 -1.10 -4.50 -0.40 -1.40 -2.60 -1.15 -3.30 0.30 -0.45 1.05 -0.35 1.45 0.80 2.80 1.55 1.85 1.60 2.50 0.35 3.90 -0.90 1.10 -2.05 1.45 -2.05 0.70z m8.50 -4.90 c0 -1.50 -0.20 -2.70 -0.45 -2.70 -0.55 0 -1.15 1.45 -0.80 2 0.15 0.25 0.30 1.25 0.35 2.20 0.10 2.80 0.90 1.50 0.90 -1.50z m-7.50 1.35 c-0.55 -1.05 -1.50 -1.85 -1.50 -1.25 0 0.40 1.50 2.20 1.85 2.20 0.10 0 -0.05 -0.45 -0.35 -0.95z m9.10 -2.30 c0.15 -1.20 0 -1.75 -0.45 -1.75 -0.65 0 -0.95 2.55 -0.30 3.15 0.50 0.55 0.55 0.45 0.75 -1.40z m6.55 -2.10 c0.50 -3.10 0 -4.15 -1.90 -4.15 -1.20 0 -1.75 -0.25 -1.90 -0.85 -0.15 -0.60 -0.35 -0.40 -0.60 0.75 -0.20 0.85 -0.55 1.60 -0.80 1.60 -0.25 0 -0.45 0.70 -0.45 1.50 0 1.35 0.15 1.50 1.50 1.50 1 0 1.50 0.25 1.50 0.75 0 0.45 0.45 0.75 1.20 0.75 0.95 0 1.20 -0.30 1.45 -1.85z m-11.55 -2.80 c0.25 -0.50 0.30 -0.85 0.15 -0.85 -0.40 0 -3.75 1.40 -3.75 1.60 0 0.60 3.20 -0.10 3.60 -0.75z m13.65 -1.95 c-0.60 -0.80 -0.80 -0.90 -0.55 -0.25 0.15 0.50 0.30 1.30 0.30 1.75 0 0.60 0.15 0.65 0.55 0.25 0.40 -0.40 0.35 -0.85 -0.30 -1.75z m-6.75 -4.25 c0 -0.55 -0.35 -0.35 -1 0.50 -0.55 0.70 -1 1.55 -1 1.95 0.05 0.90 2 -1.50 2 -2.45z m7.30 -4.25 c-0.90 -2.60 -1.05 -2.80 -1.80 -2.15 -1 0.90 -1.85 0.95 -2.15 0.15 -0.20 -0.50 -0.40 -0.45 -0.80 0.10 -0.40 0.60 -0.30 0.80 0.60 0.90 1.55 0.25 3.35 2.05 3.35 3.40 0 0.65 0.25 1.30 0.50 1.45 0.30 0.15 0.55 0.80 0.55 1.40 0.05 0.65 0.20 0.35 0.40 -0.65 0.20 -1.15 0 -2.75 -0.65 -4.60z m-1.45 3.60 c-0.30 -0.80 -0.65 -1.35 -0.75 -1.25 -0.40 0.35 0.50 3.25 0.90 3 0.20 -0.15 0.15 -0.90 -0.15 -1.75z m-8.85 -9 c0 -0.40 0.35 -1.15 0.70 -1.65 0.40 -0.50 0.60 -1.40 0.50 -2 -0.10 -0.60 -0.10 -0.80 0.10 -0.45 0.15 0.30 0.60 0.60 1 0.60 0.60 0 0.60 -0.20 0.15 -1.05 -0.40 -0.75 -0.40 -1.20 0 -1.60 0.40 -0.40 0.55 -0.30 0.55 0.35 0 1.40 2.20 0.85 2.40 -0.65 0.20 -1.10 0.05 -1.20 -1.70 -0.90 -1.05 0.20 -2.30 0.70 -2.80 1.20 -0.80 0.85 -3.90 8.70 -3.90 9.85 0.05 0.85 3 -2.80 3 -3.70z"/>
  <path d="M21.30 39.20 c-0.40 -1.05 0.10 -1.65 0.65 -0.75 0.30 0.45 0.55 0.50 0.75 0.10 0.55 -0.90 1.30 -0.65 1.30 0.45 0 1.25 -2.25 1.40 -2.70 0.20z"/>
  <path d="M16 21.40 c0 -1.30 1.25 -3.90 1.85 -3.90 0.70 0 0.90 2.30 0.35 3.70 -0.35 0.90 -2.20 1.10 -2.20 0.20z"/>
 </g>
 <g fill="#41210b">
  <path d="M15.15 38.25 c0 -1.10 0.10 -1.50 0.20 -0.85 0.10 0.60 0.10 1.50 0 2 -0.15 0.45 -0.25 -0.05 -0.20 -1.15z"/>
  <path d="M17.10 39 c-0.40 -0.70 -0.45 -1 -0.05 -1 0.30 0 0.45 -0.35 0.25 -0.75 -0.15 -0.45 0 -0.75 0.45 -0.75 0.50 0 0.75 -0.50 0.75 -1.50 0 -1.15 0.25 -1.50 0.95 -1.50 0.80 0 0.90 0.35 0.85 2.70 -0.10 3 -0.10 3.05 -1.55 3.50 -0.70 0.20 -1.20 0 -1.65 -0.70z"/>
  <path d="M26.50 38.95 c0 -0.55 0.25 -1.50 0.55 -2.05 0.55 -1.05 0.80 -6.20 0.30 -6.70 -0.15 -0.15 -0.40 0.85 -0.60 2.15 -0.40 3.10 -1.05 4.25 -1.75 3.15 -0.40 -0.65 -0.55 -0.60 -1.15 0.20 -0.90 1.25 -2.15 0.75 -2.45 -0.95 -0.20 -0.95 -0.10 -1.25 0.40 -1.05 0.40 0.15 0.70 0.05 0.70 -0.20 0 -0.30 0.80 -0.50 1.80 -0.50 1.65 0 1.80 -0.10 1.50 -1.10 -0.15 -0.65 -0.30 -1.75 -0.30 -2.50 0 -1.30 -0.15 -1.40 -1.90 -1.40 -1.05 0 -2.15 -0.25 -2.45 -0.55 -0.35 -0.35 -0.60 0.25 -0.85 2 -0.25 1.75 -0.55 2.55 -1.05 2.55 -0.40 0 -0.75 0.30 -0.75 0.70 0 0.40 -0.35 0.80 -0.75 1 -0.50 0.20 -0.75 -0.05 -0.75 -0.75 0 -1.65 -1.25 -0.80 -1.40 0.95 -0.10 1.20 -0.40 1.60 -1.15 1.60 -0.65 0 -0.95 -0.35 -0.95 -1.20 0 -0.70 -0.20 -1.80 -0.45 -2.45 -0.35 -0.90 -0.30 -1.50 0.20 -2.15 1.40 -1.85 0.80 -2.20 -1.50 -1 -1.95 1.05 -2.25 1.10 -2.25 0.40 0 -0.50 0.90 -1.25 2.15 -1.85 2.50 -1.20 4.35 -3.05 4.35 -4.30 0 -0.60 0.35 -0.95 1 -0.95 0.70 0 0.90 0.25 0.65 0.90 -0.30 0.80 -0.25 0.80 0.70 -0.05 1.35 -1.20 1.90 -0.45 0.65 0.90 -0.80 0.85 -0.95 1.45 -0.70 2.50 l0.35 1.40 0.55 -1.70 c0.45 -1.30 0.85 -1.70 1.70 -1.65 1 0.05 1.05 -0.05 0.30 -0.85 -0.75 -0.80 -0.65 -0.85 2 -0.80 1.95 0.05 2.80 0.25 2.80 0.70 0 0.35 0.25 0.65 0.50 0.65 0.70 0 0.65 -1.15 -0.10 -1.90 -0.35 -0.35 -0.40 -0.60 -0.10 -0.60 0.85 0 1.70 1.15 1.70 2.40 0 0.65 0.20 1 0.50 0.85 0.30 -0.20 0.40 -0.55 0.20 -0.80 -0.45 -0.80 0.35 -3.45 1.05 -3.45 0.90 0 1.10 1.30 0.65 4 -0.25 1.25 -0.55 4.30 -0.65 6.75 -0.45 8 -0.65 8.75 -2.05 8.75 -0.90 0 -1.20 -0.25 -1.20 -1.05z m1.50 -10.40 c0 -0.25 -0.35 -1.10 -0.75 -1.85 -0.75 -1.45 -1 -0.85 -0.45 1.20 0.30 1.05 1.20 1.55 1.20 0.65z m-3.15 -3.40 c0.15 -0.35 -0.15 -0.45 -0.80 -0.30 -0.60 0.15 -1.05 0.50 -1.05 0.75 0 0.65 1.60 0.30 1.85 -0.45z"/>
  <path d="M10.20 38.10 c0.20 -0.60 -0.25 -1.65 -1.25 -2.90 -1.25 -1.55 -1.55 -1.70 -1.30 -0.80 0.25 1.10 0.20 1.15 -0.60 0.40 -0.60 -0.55 -0.80 -1.30 -0.65 -2.55 0.20 -1.55 0.35 -1.75 1.55 -1.65 0.70 0.05 1.80 -0.20 2.40 -0.50 1.25 -0.70 2.15 -0.75 2.15 -0.20 0 0.20 -0.65 0.65 -1.50 0.95 -1.95 0.75 -2.55 2.90 -1.05 3.95 1.10 0.80 1.55 4.20 0.50 4.20 -0.30 0 -0.40 -0.40 -0.25 -0.90z"/>
  <path d="M11.50 20.50 c0 -0.70 -0.25 -0.90 -0.85 -0.65 -0.60 0.20 -0.35 -0.30 0.65 -1.40 0.90 -0.95 1.75 -2.25 1.95 -2.95 0.35 -1.20 0.35 -1.20 -0.40 -0.25 -0.90 1.20 -1.40 0.90 -1 -0.65 0.20 -0.75 0.65 -1.10 1.50 -1.10 1.15 0 1.25 0.15 1.05 1.90 -0.15 1 -0.40 2.30 -0.65 2.85 -0.20 0.55 0.25 0.15 0.95 -0.85 0.85 -1.20 1.75 -1.90 2.45 -1.90 0.65 0 0.85 -0.15 0.50 -0.40 -0.70 -0.45 0.70 -3.75 2.05 -4.75 0.80 -0.55 0.85 -0.85 0.35 -1.80 -0.50 -0.85 -0.50 -1.30 0 -1.85 0.45 -0.55 0.35 -0.70 -0.50 -0.70 -0.85 0 -1.40 0.60 -2.25 2.65 -0.65 1.40 -1.30 3 -1.45 3.50 -0.20 0.45 -0.80 0.85 -1.35 0.85 -1.15 0 -2.75 -1.30 -2.10 -1.70 0.25 -0.15 0.95 -1.30 1.65 -2.65 2.10 -4.15 6.25 -7.45 8 -6.35 0.40 0.20 -0.15 0.75 -1.60 1.50 -1.20 0.65 -1.90 1.15 -1.60 1.20 0.35 0 1.35 -0.45 2.25 -0.95 0.85 -0.55 1.80 -0.85 2 -0.70 0.25 0.15 0.40 -0.15 0.30 -0.60 -0.10 -0.50 0.15 -1 0.50 -1.10 0.40 -0.15 0.60 0.35 0.60 1.55 0 1.45 -0.20 1.80 -1 1.80 -0.70 0 -1 0.35 -1 1.20 0 0.65 -0.15 1.60 -0.30 2.05 -0.30 0.75 -0.20 0.75 0.70 0.20 1.20 -0.75 2.10 -0.25 1.20 0.65 -0.85 0.85 -0.75 1.65 0.15 0.90 0.40 -0.35 0.75 -0.90 0.75 -1.25 0 -0.30 0.65 -0.60 1.45 -0.65 1.45 -0.05 1.45 0 0.65 1.35 -0.75 1.30 -0.70 1.45 0.30 2.45 1.30 1.30 1.50 4.10 0.35 4.10 -0.40 0 -0.75 -0.30 -0.75 -0.70 0 -0.40 -0.20 -0.90 -0.50 -1.05 -0.30 -0.15 -0.35 0.05 -0.20 0.45 0.15 0.45 -0.05 1.15 -0.50 1.60 -0.70 0.65 -0.95 0.70 -1.60 0.15 -0.55 -0.45 -0.90 -0.45 -1.30 -0.05 -0.80 0.80 -1.40 0.75 -1.40 -0.15 0 -0.40 -0.35 -0.75 -0.75 -0.75 -0.40 0 -0.75 -0.40 -0.75 -0.85 0 -1.60 -1 0.45 -1 2.10 0 2.25 -0.55 3.75 -1.30 3.75 -0.50 0 -0.70 -0.65 -0.70 -1.95 0 -1.10 -0.25 -2.15 -0.50 -2.30 -0.25 -0.15 -0.50 0 -0.50 0.35 0 0.70 -3.60 4.90 -4.15 4.90 -0.20 0 -0.35 -0.45 -0.35 -1z"/>
  <path d="M23 20.55 c-0.85 -0.25 -1.30 -0.75 -1.40 -1.60 -0.15 -1.15 0 -1.20 1.85 -1.05 2.30 0.25 4.10 1.75 3.15 2.70 -0.45 0.45 -0.60 0.40 -0.60 -0.20 0 -0.45 -0.25 -1 -0.55 -1.20 -0.40 -0.20 -0.45 0 -0.20 0.75 0.35 1.15 0 1.20 -2.25 0.60z"/>
 </g>
 <g fill="#3c2f26">
  <path d="M10.20 38.05 c0.20 -0.35 0 -1.15 -0.45 -1.85 -1.10 -1.70 -0.45 -2.30 0.80 -0.75 1.10 1.35 1.10 2.60 0 2.95 -0.45 0.15 -0.55 0 -0.35 -0.35z"/>
  <path d="M13.55 35.30 c-0.75 -3 -0.70 -3.30 0.40 -3.30 0.95 0 1.55 1.70 1.55 4.30 0 2.05 -1.35 1.35 -1.95 -1z"/>
  <path d="M6.05 33.60 c-0.60 -1.10 0.30 -2.60 2.65 -4.60 1.55 -1.35 4.55 -2.60 5 -2.15 0.40 0.40 -0.70 1.65 -1.45 1.65 -0.95 0 -4.65 2.85 -4.60 3.60 0.10 2.45 -0.70 3.20 -1.60 1.50z"/>
  <path d="M8.50 32.10 c0 -0.85 0.45 -1.35 1.75 -1.90 2.05 -0.85 2.25 -0.85 2.25 -0.20 0 0.30 -0.45 0.50 -0.95 0.50 -0.55 0 -1.45 0.60 -2 1.40 -1 1.35 -1 1.35 -1.05 0.20z"/>
  <path d="M28.30 30.20 c-0.15 -0.45 -0.30 -1.30 -0.30 -1.95 0 -0.65 -0.20 -1.35 -0.50 -1.50 -0.25 -0.15 -0.50 -1.20 -0.50 -2.25 0 -1.05 -0.20 -2.10 -0.50 -2.25 -0.25 -0.15 -0.50 -0.95 -0.50 -1.80 0 -0.80 -0.25 -1.45 -0.50 -1.45 -0.45 0 -0.40 1 0.35 3.65 0.25 1.05 -0.65 1.10 -1.65 0.15 -1.15 -1.20 -0.80 -4.80 0.55 -4.80 0.80 0 2.40 1.85 2.05 2.40 -0.15 0.25 0.05 0.85 0.40 1.35 0.35 0.50 0.55 1.70 0.45 2.80 -0.15 1.60 -0.05 1.95 0.70 1.95 0.70 0 0.75 -0.10 0.20 -0.45 -0.40 -0.30 -0.50 -0.70 -0.25 -1.10 0.25 -0.40 0.35 -1.20 0.25 -1.80 -0.10 -0.90 0.15 -1.15 0.95 -1.15 1.05 0 1.10 0.15 0.75 3.40 -0.40 4.10 -0.75 5.60 -1.25 5.60 -0.20 0 -0.55 -0.35 -0.70 -0.80z"/>
  <path d="M13.50 29.65 c0 -0.25 0.25 -0.75 0.50 -1.15 0.40 -0.60 0.50 -0.55 0.50 0.40 0 0.60 -0.20 1.10 -0.50 1.10 -0.25 0 -0.50 -0.15 -0.50 -0.35z"/>
  <path d="M18 23.80 c0 -0.40 0.25 -0.90 0.50 -1.05 0.30 -0.20 1.10 -1.45 1.80 -2.80 1.05 -2.10 1.40 -2.40 2 -1.95 1 0.85 0.95 4.50 -0.05 4.50 -0.40 0 -0.75 0.25 -0.75 0.55 0 0.25 -0.25 0.35 -0.50 0.20 -0.30 -0.20 -0.40 -0.80 -0.25 -1.40 0.25 -0.75 0 -0.60 -0.65 0.45 -1.20 1.90 -2.10 2.55 -2.10 1.50z"/>
  <path d="M16 22.10 c0 -1.55 0.55 -2.60 1.35 -2.60 1.10 0 0.65 3.20 -0.45 3.40 -0.60 0.10 -0.90 -0.15 -0.90 -0.80z"/>
  <path d="M11.65 20.30 c0.35 -0.95 0.15 -1 -1.30 -0.25 -0.65 0.30 -0.35 -0.15 0.80 -1.25 1 -0.95 1.85 -1.95 1.85 -2.25 0 -0.25 0.15 -0.85 0.30 -1.25 0.20 -0.60 0.10 -0.75 -0.45 -0.55 -0.50 0.20 -0.80 -0.10 -1 -1.10 -0.20 -1.05 0 -1.70 0.95 -2.65 l1.20 -1.25 0 1.85 c0 1 0.30 1.90 0.60 2 0.90 0.30 -1.10 6.35 -2.30 7 -0.80 0.40 -0.90 0.35 -0.65 -0.30z"/>
  <path d="M14 18.60 c0 -0.35 0.25 -0.60 0.50 -0.60 0.30 0 0.50 -0.30 0.50 -0.65 0 -0.40 0.45 -1.10 1.05 -1.65 0.60 -0.50 1.50 -1.80 2 -2.80 1.10 -2.15 2.25 -3.10 1.70 -1.40 -0.25 0.80 -0.20 1 0.25 0.75 0.60 -0.40 0.50 -2.75 -0.25 -4.45 -0.40 -0.85 -0.25 -0.90 1.90 -0.60 1.55 0.25 2.35 0.20 2.35 -0.15 0 -0.30 0.20 -0.55 0.45 -0.55 0.45 0 0.25 0.80 -0.75 3.65 -0.20 0.45 -0.65 0.85 -1 0.85 -0.50 0 -0.70 0.70 -0.70 2.50 0 2.15 -0.15 2.50 -1 2.50 -0.75 0 -1 -0.35 -1 -1.35 l0 -1.40 -0.75 1.45 c-0.40 0.75 -0.75 1.85 -0.75 2.35 0 0.55 -0.35 0.95 -0.80 0.95 -0.40 0 -0.65 -0.20 -0.50 -0.45 0.15 -0.25 -0.05 -0.70 -0.45 -1.05 -0.60 -0.50 -0.75 -0.50 -0.75 0.10 0 0.40 -0.45 1.15 -1 1.65 -0.55 0.50 -1 0.65 -1 0.35z"/>
  <path d="M27.50 17.55 c-0.25 -0.55 -0.50 -1.55 -0.50 -2.25 0 -0.70 -0.20 -1.30 -0.45 -1.30 -0.25 0 -0.35 0.40 -0.20 0.90 0.10 0.50 -0.15 1.25 -0.60 1.60 -0.75 0.60 -0.95 0.60 -1.60 -0.25 -0.80 -1.10 -0.55 -5.35 0.35 -5.65 0.30 -0.10 0.50 -0.75 0.50 -1.45 0 -0.90 0.20 -1.20 0.75 -0.95 0.40 0.15 0.95 -0.10 1.20 -0.60 0.45 -0.75 0.50 -0.70 0.55 0.25 0 0.60 -0.20 1.25 -0.50 1.40 -0.85 0.50 -0.55 1.95 0.55 2.90 0.55 0.50 0.90 1.25 0.75 1.60 -0.15 0.40 0.05 1.65 0.45 2.75 0.60 1.75 0.60 2 0 2 -0.40 0 -0.95 -0.45 -1.25 -0.95z"/>
  <path d="M15.65 8.25 c-0.05 -0.95 0.10 -1.75 0.35 -1.75 0.25 0 0.35 0.40 0.20 0.90 -0.25 0.75 -0.15 0.70 0.50 -0.10 1.15 -1.40 1.50 -0.65 0.55 1.15 -1 2 -1.50 1.95 -1.60 -0.20z"/>
  <path d="M20.50 4.50 c1.45 -1.15 2.50 -1.30 2.50 -0.30 0 0.80 -1.05 1.30 -2.65 1.30 -1.05 0 -1.05 -0.05 0.15 -1z"/>
  <path d="M18.30 4.05 c-0.55 -0.85 1.60 -2.20 3 -1.85 0.70 0.20 1.20 0.45 1.10 0.55 -0.65 0.65 -3.90 1.70 -4.10 1.30z"/>
  <path d="M24 2.20 c0 -1.45 0.15 -1.75 0.80 -1.50 0.45 0.15 1.15 0.30 1.55 0.30 0.70 0 0.70 0.15 -0.10 1 -0.50 0.55 -0.65 1 -0.35 1 0.35 0 0.60 0.25 0.60 0.50 0 0.30 -0.55 0.50 -1.25 0.50 -1.10 0 -1.25 -0.20 -1.25 -1.80z"/>
 </g>
 <g fill="#58300f">
  <path d="M26.50 39.55 c0 -0.30 0.20 -0.60 0.50 -0.80 0.25 -0.15 0.35 -0.60 0.15 -1 -0.15 -0.45 -0.05 -1.05 0.25 -1.40 0.75 -0.90 1.35 -6.35 0.65 -6.35 -0.30 0 -0.40 -0.55 -0.25 -1.45 0.20 -0.80 0.05 -1.60 -0.25 -1.75 -0.30 -0.20 -0.55 -1.20 -0.55 -2.20 0 -1.20 0.15 -1.60 0.45 -1.20 0.20 0.35 0.30 1.20 0.15 1.90 -0.15 0.90 0 1.20 0.60 1.20 0.50 0 0.70 -0.25 0.55 -0.50 -0.50 -0.80 0.25 -2.50 1.05 -2.50 0.80 0 0.90 0.90 0.25 2.70 -0.30 0.65 -0.55 3.20 -0.55 5.65 -0.10 6.90 -0.40 8.15 -1.80 8.15 -0.65 0 -1.20 -0.20 -1.20 -0.45z"/>
  <path d="M18.50 36 c0 -2.35 -0.15 -3 -0.75 -3 -0.40 0 -0.75 -0.30 -0.75 -0.70 0 -0.40 -0.35 -0.80 -0.75 -1 -0.80 -0.30 -1 0.65 -0.80 3.35 0.10 1.15 -0.05 1.40 -0.80 1.25 -0.70 -0.10 -0.95 -0.70 -1.05 -2.55 -0.10 -1.55 0.05 -2.35 0.45 -2.35 0.35 0 0.45 -0.45 0.25 -1.20 -0.35 -1.50 0.10 -2.90 0.90 -2.50 0.30 0.15 0.10 -0.10 -0.40 -0.50 -0.90 -0.70 -0.90 -0.85 -0.20 -1.65 0.90 -1.10 1.95 -3.95 1.55 -4.35 -0.20 -0.15 0.30 -0.30 1 -0.30 1.20 0 1.30 0.10 0.85 1.30 -0.80 2.05 -0.60 2.35 0.75 0.85 0.65 -0.75 1.25 -1.15 1.25 -0.80 0 0.35 -0.65 1.35 -1.45 2.25 -1.20 1.40 -1.30 1.75 -0.75 2.30 1 0.90 0.85 2.15 -0.25 2.45 -0.60 0.15 -0.85 0.55 -0.70 0.95 0.30 0.85 1.45 0.90 1.55 0.10 0.20 -1.95 1.05 -5.05 1.55 -5.55 0.40 -0.40 0.90 -0.20 1.95 0.80 0.95 0.90 1.75 1.25 2.25 1.05 1.15 -0.45 1.10 -1.65 -0.10 -1.35 -0.50 0.15 -1.50 -0.30 -2.35 -1.05 -1.35 -1.20 -1.40 -1.25 -0.35 -1.30 0.60 0 1.20 0.20 1.35 0.40 0.15 0.25 0.95 0.35 1.80 0.20 1 -0.15 1.50 0 1.60 0.45 0 0.40 0.15 1.40 0.30 2.20 0.50 3.15 0.30 8 -0.40 9.25 -0.60 1.05 -0.75 1.10 -0.90 0.40 -0.20 -1.10 -0.90 -1.15 -1.30 -0.15 -0.55 1.45 -1.30 0.70 -1.30 -1.30 l0 -2.05 2 0.20 c1.90 0.15 1.95 0.10 1.65 -1.10 -0.35 -1.50 -1 -2 -2.50 -2 -0.70 0 -1.15 -0.30 -1.15 -0.75 0 -0.40 -0.45 -0.75 -1 -0.75 -0.75 0 -1 0.35 -1 1.45 0 0.80 -0.35 1.85 -0.80 2.25 -0.70 0.75 -0.65 0.80 0.75 0.80 1.50 0 1.55 0.10 1.50 2.15 -0.05 1.55 -0.15 1.80 -0.35 0.95 -0.45 -1.60 -1.35 -1.20 -1.45 0.65 -0.05 0.85 -0.10 1.90 -0.10 2.40 -0.05 0.45 -0.40 0.85 -0.80 0.85 -0.60 0 -0.75 -0.65 -0.75 -3z"/>
  <path d="M9.60 36 c-0.50 -0.85 -0.50 -1 0.15 -1 0.40 0 0.75 0.45 0.75 1 0 0.55 -0.05 1 -0.15 1 -0.05 0 -0.40 -0.45 -0.75 -1z"/>
  <path d="M10.10 28.40 c0.30 -0.90 3.30 -2 3.65 -1.40 0.20 0.30 -0.45 0.85 -1.45 1.25 -2.15 0.90 -2.45 0.95 -2.20 0.15z"/>
  <path d="M21.85 20.65 c-0.20 -0.15 -0.35 -1 -0.35 -1.80 0 -1.45 0 -1.45 1.25 -0.65 0.70 0.45 1.25 0.60 1.25 0.30 0 -0.25 0.35 -0.50 0.80 -0.50 0.55 0 0.70 0.25 0.50 0.80 -0.15 0.45 -0.30 1.10 -0.30 1.50 0 0.70 -2.50 1 -3.15 0.35z"/>
  <path d="M28.35 20.15 c-0.20 -0.15 -0.35 -0.85 -0.35 -1.45 0 -0.65 -0.20 -1.30 -0.50 -1.45 -0.80 -0.50 -0.60 -3.25 0.25 -3.25 0.50 0 0.75 0.50 0.75 1.40 0 0.75 0.30 1.80 0.65 2.35 1.25 1.85 1.40 2.75 0.40 2.75 -0.50 0 -1.05 -0.15 -1.20 -0.35z"/>
  <path d="M13 16.20 c0.30 -0.75 0.40 -1.45 0.30 -1.60 -0.15 -0.15 -0.40 0.15 -0.60 0.60 -0.50 1.25 -1.30 0.95 -0.90 -0.30 0.20 -0.65 0.35 -1.50 0.40 -1.90 0.10 -1.30 3 -6.50 3.70 -6.50 0.30 0 0.60 -0.45 0.60 -1 0 -0.55 0.40 -1.20 0.90 -1.35 0.45 -0.20 1.30 -0.75 1.80 -1.25 1.10 -1 1.35 -1.05 2.50 -0.60 0.50 0.20 -0.05 0.70 -1.80 1.60 -1.40 0.75 -2.70 1.70 -2.80 2.10 -0.20 0.55 0.05 0.50 0.85 -0.20 0.55 -0.55 1.05 -0.80 1.05 -0.60 0 0.20 0.65 -0.10 1.45 -0.70 1.05 -0.70 1.90 -0.95 2.75 -0.70 1.15 0.30 1.30 0.55 1.30 2.75 0 1.35 -0.20 2.45 -0.50 2.45 -0.25 0 -0.50 0.45 -0.50 1 0 0.65 0.25 0.90 0.75 0.70 0.40 -0.20 0.75 -0.75 0.75 -1.25 0 -0.60 0.35 -0.95 1 -0.95 1.20 0 1.25 0.40 0.20 1.90 -0.45 0.70 -0.55 1.10 -0.20 1.10 0.65 0 0.15 2.15 -0.60 2.45 -0.25 0.05 -0.05 0.45 0.45 0.85 0.85 0.65 0.85 0.75 -0.10 1.45 -0.90 0.70 -1.05 0.70 -1.65 -0.10 -0.60 -0.85 -0.70 -0.85 -1.15 0 -0.70 1.15 -1.45 1.05 -1.45 -0.20 0 -0.95 -0.10 -1 -0.85 -0.40 -0.75 0.65 -0.80 0.60 -0.55 -0.40 0.20 -0.65 0.10 -1.25 -0.10 -1.40 -0.25 -0.15 -0.55 0.40 -0.75 1.25 -0.40 1.85 -1.75 2 -1.75 0.25 0 -1.15 1.25 -4.25 1.70 -4.25 0.10 0 0.15 0.35 0.10 0.80 0 0.45 0.25 0.95 0.60 1.05 0.30 0.15 0.60 -0.10 0.60 -0.55 0 -0.45 0.25 -0.80 0.50 -0.80 0.30 0 0.50 0.45 0.50 1 0 0.55 0.25 1 0.50 1 0.30 0 0.50 -0.55 0.50 -1.25 0 -0.70 -0.20 -1.25 -0.50 -1.25 -0.25 0 -0.50 -0.60 -0.50 -1.35 0 -2.55 -0.55 -3.65 -1.75 -3.65 -1.50 0 -2.35 1.40 -4.20 6.80 -0.90 2.80 -1.80 4.50 -2.25 4.60 -0.65 0.15 -0.70 -0.05 -0.30 -1.20z m3.80 -9.60 c-0.30 -0.25 -1.80 2.70 -1.80 3.50 0.05 0.35 0.50 -0.25 1 -1.30 0.55 -1.10 0.90 -2.05 0.80 -2.20z"/>
 </g>
 <g fill="#543926">
  <path d="M9 39.70 c0 -0.15 0.35 -0.60 0.75 -1 1 -1.05 0.95 -1.30 -0.75 -3.45 -1.05 -1.30 -1.50 -1.60 -1.50 -1 0 0.70 -0.15 0.75 -0.75 0.25 -0.95 -0.80 -1 -3 0 -3 0.35 0 0.90 0.35 1.15 0.80 0.40 0.70 0.50 0.65 0.80 -0.45 0.20 -0.80 0.85 -1.45 1.85 -1.80 1.90 -0.65 1.95 -0.65 1.95 -0.15 0 0.20 -0.65 0.65 -1.50 0.95 -1.55 0.60 -2.70 3.15 -1.55 3.55 0.50 0.15 2.05 2.65 2.05 3.25 0 0.10 -0.40 0.70 -0.95 1.25 -0.90 1.05 -1.55 1.40 -1.55 0.80z"/>
  <path d="M14.30 37.90 c-0.45 -1.80 -0.35 -2.40 0.45 -2.40 0.50 0 0.75 0.55 0.75 1.75 0 1.95 -0.70 2.35 -1.20 0.65z"/>
  <path d="M17.15 36.75 c-0.15 -1.45 0 -1.75 0.85 -1.75 0.80 0 1 0.35 1 1.75 0 1.35 -0.20 1.75 -0.85 1.75 -0.65 0 -0.95 -0.45 -1 -1.75z"/>
  <path d="M22.15 36.10 c-0.30 -0.20 -0.60 -0.80 -0.70 -1.30 -0.30 -1.40 -1.35 -1.55 -1.60 -0.20 -0.15 0.85 -0.25 0.75 -0.30 -0.45 -0.05 -1.45 -0.25 -1.65 -1.35 -1.65 -0.95 0 -1.25 -0.20 -1 -0.75 0.15 -0.50 -0.15 -0.85 -0.95 -1.05 -0.80 -0.20 -1.25 -0.65 -1.25 -1.25 0 -0.50 -0.25 -0.95 -0.55 -0.95 -0.25 0 -0.35 -0.20 -0.20 -0.50 0.55 -0.85 1.15 -0.55 2.10 1 0.90 1.60 2.15 2 2.15 0.75 0 -0.40 0.35 -0.75 0.75 -0.75 0.50 0 0.75 0.50 0.75 1.50 0 1.30 0.15 1.50 1.45 1.50 1.50 0 2.05 0.70 2.05 2.75 0 1.35 -0.55 1.85 -1.35 1.35z"/>
  <path d="M25 32.25 c0 -1.40 0.20 -1.75 1 -1.75 1.05 0 1.20 0.50 0.70 2.40 -0.50 1.80 -1.70 1.35 -1.70 -0.65z"/>
  <path d="M13 31.15 c0 -0.50 0.25 -1.25 0.50 -1.65 0.35 -0.55 0.50 -0.35 0.50 0.90 0 0.85 -0.20 1.60 -0.50 1.60 -0.25 0 -0.50 -0.40 -0.50 -0.85z"/>
  <path d="M8 30.30 c0 -0.40 0.55 -0.90 1.25 -1.10 0.70 -0.15 1.25 -0.45 1.25 -0.65 0 -0.65 2.95 -2.10 3.25 -1.55 0.15 0.25 -0.35 0.75 -1.10 1.10 -0.75 0.35 -2.15 1.15 -3 1.80 -1.35 1 -1.65 1.05 -1.65 0.40z"/>
  <path d="M16.35 27.95 c-0.15 -0.55 -0.75 -1.15 -1.30 -1.30 -1.30 -0.35 -1.35 -0.95 -0.05 -1.65 0.90 -0.45 1 -0.40 1 0.75 0 0.90 0.25 1.25 1 1.25 0.65 0 1 0.35 1 1 0 1.30 -1.30 1.30 -1.65 -0.05z"/>
  <path d="M28 27.50 c0 -0.55 0.15 -1 0.40 -1 0.20 0 0.35 -1.35 0.35 -2.95 0 -1.65 -0.15 -3.15 -0.35 -3.35 -0.65 -0.65 -0.45 -2.20 0.30 -2.20 1.20 0 1.95 3.25 1.55 7.05 -0.30 2.95 -0.50 3.45 -1.30 3.45 -0.60 0 -0.95 -0.35 -0.95 -1z"/>
  <path d="M24.65 25.95 c1.20 -0.70 1.05 -1.50 -0.25 -1.20 -0.75 0.20 -1.65 -0.15 -2.60 -0.90 -1.25 -1 -1.35 -1.30 -0.85 -2.25 0.80 -1.45 1.55 -1.40 1.55 0.15 0 0.70 0.25 1.25 0.50 1.25 0.55 0 0.60 -0.75 0.20 -2.35 -0.20 -0.70 -0.70 -1.15 -1.25 -1.15 -0.55 0 -0.95 -0.30 -0.95 -0.70 0 -1.25 0.90 -1.35 1.90 -0.30 0.85 0.90 1 0.95 1.25 0.30 0.55 -1.35 1.15 -0.90 1.20 0.85 0.05 0.85 0.20 2.80 0.40 4.25 0.35 2.50 0.35 2.60 -0.80 2.60 -1.05 -0.05 -1.10 -0.10 -0.30 -0.55z"/>
  <path d="M27 24.35 c0 -0.70 -0.15 -1.70 -0.35 -2.20 -0.30 -0.75 -0.20 -0.80 0.45 -0.25 0.40 0.35 0.70 1.20 0.60 1.90 -0.15 1.75 -0.70 2.20 -0.70 0.55z"/>
  <path d="M17.90 23.60 c0.45 -0.45 1.20 -1.45 1.65 -2.10 0.45 -0.70 0.95 -1.10 1.15 -0.95 0.45 0.45 -2.15 3.95 -2.95 3.95 -0.60 0 -0.60 -0.15 0.15 -0.90z"/>
  <path d="M16.65 22.75 c-0.90 -0.95 -0.25 -3.75 0.90 -3.75 0.50 0 0.55 2.35 0.05 3.55 -0.30 0.70 -0.45 0.75 -0.95 0.20z"/>
  <path d="M11.90 18.35 c0.35 -0.35 0.90 -1.45 1.30 -2.40 0.60 -1.40 0.80 -1.55 1.05 -0.80 0.55 1.35 -0.70 3.85 -1.85 3.85 -0.80 0 -0.90 -0.15 -0.50 -0.65z"/>
  <path d="M20.90 16.75 c-0.50 -0.50 0.25 -3.25 0.90 -3.25 0.90 0 0.90 -0.40 -0.05 -1.30 -0.65 -0.70 -0.75 -0.70 -0.75 0 0 0.40 -0.15 0.85 -0.35 0.95 -0.25 0.15 -0.40 -0.95 -0.40 -2.45 0 -2.45 0.10 -2.70 1.15 -2.70 0.60 0 1.10 -0.20 1.10 -0.50 0 -0.25 0.45 -0.50 1 -0.50 0.65 0 1 0.35 1 1 0 0.55 -0.30 1 -0.70 1 -0.45 0 -0.60 0.35 -0.45 1 0.40 1.55 1.95 1.05 1.75 -0.55 -0.10 -0.95 0.10 -1.25 0.90 -1.25 1.15 0 1.30 0.70 0.30 2.05 -0.65 0.90 -0.55 1.05 0.75 1.85 1.10 0.65 1.45 1.25 1.45 2.40 0 1.80 -0.85 1.95 -1.50 0.25 -0.30 -0.85 -0.70 -1.15 -1.30 -0.90 -0.60 0.25 -0.65 0.35 -0.10 0.70 0.50 0.35 0.40 0.45 -0.30 0.45 -0.65 0 -0.85 0.25 -0.65 1 0.15 0.55 0.05 0.90 -0.20 0.70 -0.25 -0.15 -0.45 -0.60 -0.45 -1 0 -1.05 -0.85 -0.85 -1.15 0.30 -0.25 0.90 -1.35 1.35 -1.95 0.75z"/>
  <path d="M11.75 14.95 c0.20 -0.60 0.40 -1.60 0.50 -2.25 0.15 -1.55 0.30 -1.70 2.20 -1.95 1.15 -0.10 1.55 0 1.55 0.55 0 1.30 -1.05 2.80 -1.75 2.55 -0.35 -0.15 -0.90 0.25 -1.25 0.95 -0.80 1.50 -1.70 1.60 -1.25 0.15z"/>
  <path d="M17.70 13.70 c0.15 -0.45 0.30 -0.90 0.30 -1 0 -0.10 0.35 -0.20 0.75 -0.20 0.40 0 0.75 0.45 0.75 1 0 0.70 -0.35 1 -1.05 1 -0.75 0 -0.95 -0.20 -0.75 -0.80z"/>
  <path d="M17.50 6.90 c0 -0.45 0.30 -0.95 0.65 -1.05 0.45 -0.20 0.40 -0.40 -0.15 -0.80 -0.60 -0.40 -0.50 -0.70 0.70 -1.80 0.80 -0.75 1.75 -1.20 2.15 -1.05 0.40 0.15 1 0.30 1.30 0.30 0.35 0 -0.35 0.45 -1.55 1 -1.20 0.55 -2.05 1.20 -1.85 1.50 0.20 0.35 0.60 0.35 1.30 0 0.75 -0.45 0.95 -0.35 0.95 0.25 0 0.45 -0.45 0.75 -1.25 0.75 -0.65 0 -1.45 0.40 -1.70 0.90 -0.45 0.75 -0.50 0.75 -0.55 0z"/>
  <path d="M22.75 6 c0.15 -0.25 0.10 -0.50 -0.15 -0.50 -0.25 0 -0.60 -0.45 -0.75 -1 -0.20 -0.75 0 -1 0.75 -1 0.70 0 0.90 -0.25 0.70 -0.75 -0.20 -0.55 0.05 -0.75 0.90 -0.75 0.65 0 1.35 0.35 1.50 0.80 0.45 1.10 0.40 1.20 -0.50 1.20 -0.60 0 -0.75 0.30 -0.50 1.25 0.30 1.10 0.15 1.25 -0.95 1.25 -0.75 0 -1.20 -0.20 -1 -0.50z"/>
 </g>
 <g fill="#6e411a">
  <path d="M26.50 39.50 c0 -0.25 0.20 -0.50 0.40 -0.50 0.20 0 0.70 -1.70 1.05 -3.75 0.35 -2.05 0.85 -3.75 1.10 -3.75 0.50 0 0.60 2.85 0.15 6.20 -0.30 2 -0.50 2.30 -1.50 2.30 -0.65 0 -1.20 -0.20 -1.20 -0.50z"/>
  <path d="M22.20 35.90 c-0.45 -0.65 -0.50 -0.90 -0.65 -1.90 -0.10 -0.80 -1.55 -0.55 -1.55 0.25 0 0.40 -0.20 0.75 -0.50 0.75 -0.25 0 -0.50 -0.55 -0.50 -1.25 0 -0.95 -0.25 -1.25 -1.05 -1.25 -0.75 0 -0.95 -0.25 -0.75 -0.75 0.15 -0.50 -0.05 -0.75 -0.65 -0.75 -1.10 0 -1.70 1.90 -1.25 3.75 0.25 0.95 0.10 1.25 -0.45 1.25 -1.10 0 -1.50 -0.80 -1.50 -2.95 0 -2 1.10 -5.55 1.70 -5.55 0.25 0 0.80 0.65 1.25 1.50 1.10 1.85 2.20 2.35 2.20 1 0 -0.55 0.25 -1 0.50 -1 0.30 0 0.50 0.55 0.50 1.25 0 1.20 0.10 1.25 3.25 1.25 l3.25 0 0 1.75 c0 1.95 -0.30 2.15 -1.30 0.90 -0.60 -0.85 -0.65 -0.85 -0.70 0.15 0 1.45 -1.25 2.50 -1.80 1.60z"/>
  <path d="M8.35 34.30 c-0.35 -0.90 0.15 -2.80 0.70 -2.80 0.60 0 0.55 0.85 -0.05 1.25 -0.35 0.20 -0.35 0.65 0 1.30 0.30 0.55 0.35 0.95 0.05 0.95 -0.25 0 -0.55 -0.30 -0.70 -0.70z"/>
  <path d="M6.50 33.10 c0 -0.85 0.20 -1.60 0.45 -1.60 0.95 0 1.10 1 0.35 2.10 -0.80 1.10 -0.80 1.10 -0.80 -0.50z"/>
  <path d="M15.85 27.35 c-0.80 -0.85 -1.20 -1.65 -0.90 -1.75 0.30 -0.10 0.55 -0.70 0.55 -1.35 0 -0.65 0.25 -1.35 0.50 -1.50 0.30 -0.15 0.50 -1 0.50 -1.80 0 -0.85 0.30 -1.60 0.75 -1.80 1.30 -0.45 1.50 0.30 0.65 2.60 -0.90 2.40 -0.75 2.75 0.70 1.40 0.50 -0.45 0.90 -0.55 0.90 -0.25 0 0.30 -0.70 1.05 -1.50 1.70 -1.25 0.90 -1.40 1.20 -0.75 1.55 0.75 0.40 1.10 2.85 0.40 2.85 -0.25 -0.05 -1.05 -0.75 -1.80 -1.65z"/>
  <path d="M21.85 28.70 c-0.20 -0.20 -0.35 -1 -0.35 -1.80 0 -1.30 0.10 -1.40 1 -0.90 0.70 0.40 1.30 0.40 2 0 1.40 -0.75 1.25 -1.70 -0.20 -1.30 -1 0.25 -1.15 0.15 -0.90 -1 0.15 -0.95 0.50 -1.20 1.30 -1.10 0.85 0.10 1.10 0.60 1.35 2.40 0.15 1.25 0.40 2.60 0.50 3 0.15 0.55 -0.35 0.80 -2.05 0.90 -1.25 0.10 -2.45 0 -2.65 -0.20z"/>
  <path d="M28 27.70 c0 -0.85 0.20 -1.15 0.60 -0.90 0.40 0.25 0.45 0.10 0.25 -0.50 -0.50 -1.25 0.15 -3.30 1 -3.30 0.60 0 0.70 0.35 0.45 1.55 -0.15 0.85 -0.30 2.20 -0.30 3 0 1.10 -0.25 1.45 -1 1.45 -0.75 0 -1 -0.35 -1 -1.30z"/>
  <path d="M19 27.20 c0 -1.05 0.90 -2.70 1.50 -2.70 0.30 0 0.50 0.80 0.50 1.75 0 1.40 -0.20 1.75 -1 1.75 -0.55 0 -1 -0.35 -1 -0.80z"/>
  <path d="M11.70 20.20 c0.20 -0.60 0.10 -0.75 -0.45 -0.50 -0.40 0.15 -0.75 0.15 -0.75 0 0 -0.45 2.20 -2.15 2.85 -2.20 0.60 0 0.30 1.85 -0.50 2.90 -0.70 0.85 -1.50 0.75 -1.15 -0.20z"/>
  <path d="M13.50 15.20 c0.75 -1.85 0.65 -1.90 -0.80 -0.35 l-1.25 1.40 0.35 -1.25 c0.20 -0.70 0.40 -1.70 0.50 -2.30 0.15 -1.40 1.30 -3.20 2.05 -3.20 0.80 0 0.85 1.10 0.10 1.85 -0.30 0.30 -0.45 0.85 -0.35 1.25 0.15 0.35 0.55 -0.20 0.90 -1.20 0.40 -1.05 0.90 -1.90 1.15 -1.90 0.25 0 0.35 0.30 0.20 0.65 -0.10 0.30 -0.65 1.90 -1.15 3.50 -0.50 1.55 -1.15 2.85 -1.55 2.85 -0.45 0 -0.50 -0.30 -0.15 -1.30z"/>
  <path d="M17.50 14.80 c0 -1.20 1.25 -2.70 1.80 -2.15 0.15 0.15 0.15 0.95 -0.05 1.80 -0.40 1.85 -1.75 2.10 -1.75 0.35z"/>
  <path d="M20.20 14.15 c0.40 -3.55 0.85 -4.65 1.85 -4.65 0.50 0 0.95 0.35 0.95 0.75 0 0.40 0.45 0.75 1 0.75 0.55 0 1 0.15 1 0.30 0 0.70 -1.55 1.70 -2.70 1.70 -1.05 0 -1.30 0.25 -1.30 1.20 0 0.70 -0.25 1.40 -0.50 1.55 -0.35 0.25 -0.45 -0.30 -0.30 -1.60z"/>
  <path d="M25.50 12.65 c0 -1.35 1 -1.60 1.05 -0.25 0 0.55 0.10 0.60 0.30 0.20 0.20 -0.50 0.40 -0.50 0.95 -0.05 1.15 0.95 0.80 1.45 -0.80 1.35 -1.20 -0.10 -1.50 -0.35 -1.50 -1.25z"/>
  <path d="M25.45 10.40 c-0.50 -1.70 -0.35 -2.20 0.70 -2.15 0.60 0.05 1.05 0.20 1 0.30 -0.05 0.10 -0.25 0.60 -0.40 1.10 -0.30 0.70 -1.15 1.20 -1.30 0.75z"/>
  <path d="M19.75 7.95 c-0.20 -0.30 0.05 -0.85 0.55 -1.20 0.90 -0.65 0.90 -0.70 0.10 -0.75 -0.50 0 -0.90 -0.15 -0.90 -0.30 0 -0.45 2.20 -2.15 2.75 -2.20 0.30 0 0.15 0.25 -0.25 0.55 -0.55 0.40 -0.60 0.60 -0.10 0.80 0.30 0.10 0.60 1 0.60 1.95 0 1.45 -0.15 1.70 -1.20 1.70 -0.70 0 -1.40 -0.25 -1.55 -0.55z"/>
  <path d="M18.15 5.10 c-0.10 -1.95 1.05 -2.85 3.60 -2.65 0.70 0.05 0.35 0.35 -1.10 1.05 -1.45 0.65 -2.05 1.20 -1.85 1.65 0.15 0.40 0.10 0.85 -0.15 1 -0.20 0.15 -0.45 -0.30 -0.50 -1.05z"/>
 </g>
 <g fill="#6b4b31">
  <path d="M26.95 39.55 c0.40 -0.25 0.80 -1.15 0.85 -1.95 0.20 -2.85 0.80 -5.60 1.25 -5.60 0.65 0 0.25 6.15 -0.45 6.40 -0.35 0.10 -0.60 0.50 -0.60 0.90 0 0.40 -0.40 0.70 -0.85 0.70 -0.75 0 -0.75 -0.10 -0.20 -0.45z"/>
  <path d="M9.25 35.45 c-0.70 -0.85 -1.20 -1.70 -1.05 -1.80 0.30 -0.30 2.80 2.30 2.80 2.90 0 0.75 -0.35 0.50 -1.75 -1.10z"/>
  <path d="M21.75 35.50 c-0.15 -0.25 -0.20 -0.50 0 -0.50 0.15 0 0.05 -0.45 -0.25 -1 -0.30 -0.55 -0.75 -0.90 -1.05 -0.75 -0.25 0.20 -0.45 0.05 -0.45 -0.20 0 -0.30 0.80 -0.55 1.75 -0.55 1.65 0 1.75 0.10 1.75 1.75 0 1.70 -1 2.45 -1.75 1.25z"/>
  <path d="M24.85 34.45 c-0.15 -0.55 -0.15 -1.80 0 -2.75 0.20 -1.25 0.55 -1.70 1.25 -1.70 0.90 0 0.95 0.25 0.70 1.90 -0.70 3.75 -1.40 4.70 -1.95 2.55z"/>
  <path d="M6.25 33.55 c-0.45 -1.50 0.15 -3.05 1.30 -3.05 0.50 0 0.95 -0.35 0.95 -0.75 0 -0.90 1.20 -1.55 3.50 -1.95 1.65 -0.25 1.70 -0.25 0.50 0.35 -1.55 0.75 -3.85 2.35 -3.40 2.35 0.20 0 0.90 -0.20 1.60 -0.50 0.70 -0.25 1.30 -0.30 1.30 -0.05 0 0.25 -0.55 0.60 -1.25 0.75 -0.70 0.20 -1.25 0.65 -1.25 1.05 0 0.35 -0.25 0.85 -0.55 1.05 -0.45 0.25 -0.50 -0.05 -0.25 -1.05 0.30 -1.25 0.25 -1.35 -0.40 -0.80 -0.45 0.35 -0.65 0.85 -0.50 1.10 0.15 0.25 -0.05 0.90 -0.45 1.50 l-0.75 1.05 -0.35 -1.05z"/>
  <path d="M17 32.50 c0 -0.55 0.30 -1.15 0.70 -1.30 0.40 -0.15 0.85 -1.05 1 -2 0.25 -1.25 0.60 -1.70 1.30 -1.70 0.75 0 1 0.35 1 1.45 0 1.95 -0.45 3.05 -1.30 3.05 -0.40 0 -0.70 0.35 -0.70 0.75 0 0.40 -0.45 0.75 -1 0.75 -0.65 0 -1 -0.35 -1 -1z"/>
  <path d="M13 31.25 c0 -1.30 1.50 -3.85 2.15 -3.60 0.35 0.10 0.55 0.70 0.45 1.25 -0.10 0.75 0.10 1.10 0.65 1.10 0.45 0 0.65 0.25 0.50 0.50 -0.20 0.30 -0.55 0.40 -0.80 0.25 -0.25 -0.20 -0.60 0.05 -0.75 0.45 -0.40 1.05 -2.20 1.05 -2.20 0.05z"/>
  <path d="M16.65 28.05 c-0.10 -0.50 -0.85 -1.20 -1.55 -1.55 -1.15 -0.50 -1.25 -0.65 -0.55 -1.15 0.40 -0.35 1.05 -1.65 1.40 -2.95 0.40 -1.40 0.95 -2.40 1.35 -2.40 0.90 0 0.85 0.65 -0.05 3.65 -0.55 1.90 -0.60 2.45 -0.10 2.65 0.80 0.30 1.05 2.70 0.30 2.70 -0.30 0 -0.65 -0.40 -0.80 -0.95z"/>
  <path d="M20.50 25.20 c0 -0.70 0.15 -0.70 0.75 -0.20 0.40 0.35 0.75 0.70 0.75 0.80 0 0.10 -0.35 0.20 -0.75 0.20 -0.40 0 -0.75 -0.35 -0.75 -0.80z"/>
  <path d="M21.85 24 c-1.10 -0.90 -1.25 -1.25 -0.85 -2.30 0.80 -2.10 0.55 -2.05 -0.80 0.20 -0.70 1.15 -1.45 2.10 -1.70 2.10 -0.25 0 0.20 -1.15 1 -2.50 0.85 -1.40 1.50 -2.75 1.50 -3 0 -0.85 1.90 -0.55 2.20 0.35 0.30 0.75 0.40 0.70 1 -0.10 0.45 -0.65 0.75 -0.75 1 -0.35 0.20 0.35 0.15 0.60 -0.15 0.60 -0.30 0 -0.25 0.90 0.20 2.35 0.40 1.30 0.65 2.40 0.60 2.45 -0.30 0.25 -2.30 1.20 -2.50 1.20 -0.10 0 -0.80 -0.45 -1.50 -1z"/>
  <path d="M28.90 23.65 c-0.30 -1.40 0.10 -2.65 0.90 -2.65 0.45 0 0.70 0.55 0.70 1.75 0 1.85 -1.20 2.50 -1.60 0.90z"/>
  <path d="M11.50 20.85 c0 -0.35 0.25 -0.90 0.60 -1.25 0.35 -0.35 0.40 -0.60 0.10 -0.60 -0.25 0 -0.75 0.25 -1.10 0.60 -0.35 0.35 -0.60 0.45 -0.60 0.25 0 -0.50 2.60 -2.80 3.15 -2.85 0.45 0 0.10 1.65 -0.75 3.40 -0.60 1.20 -1.40 1.50 -1.40 0.45z"/>
  <path d="M14.75 17.85 c0.50 -0.75 1 -1.25 1.15 -1.10 0.15 0.15 -0.25 0.80 -0.85 1.40 l-1.15 1.10 0.85 -1.40z"/>
  <path d="M27.50 17.50 c-0.30 -0.55 -0.45 -1.20 -0.35 -1.40 0.50 -0.80 -0.60 -2.60 -1.40 -2.30 -0.70 0.30 -0.70 0.40 0.05 0.95 0.50 0.35 0.70 0.85 0.50 1.20 -0.30 0.45 -0.60 0.35 -1.15 -0.30 -0.70 -0.85 -0.70 -0.85 -0.50 0.25 0.15 0.60 0.05 1 -0.20 0.80 -0.25 -0.15 -0.45 -0.60 -0.45 -1 0 -0.40 -0.35 -0.70 -0.75 -0.70 -0.45 0 -0.60 0.30 -0.45 0.75 0.40 1 -1.10 1.55 -2.05 0.75 -0.60 -0.50 -0.70 -1.25 -0.45 -3.15 0.15 -1.40 0.40 -2.75 0.55 -2.95 0.10 -0.25 -0.10 -1 -0.55 -1.65 -1 -1.50 -1 -1.75 -0.05 -1.75 0.40 0 0.75 -0.35 0.75 -0.75 0 -0.45 -0.30 -0.60 -0.85 -0.40 -0.65 0.20 -0.50 -0.15 0.45 -1.10 1 -1.10 1.60 -1.30 2.60 -1.05 0.70 0.15 1.25 0.50 1.20 0.70 0 0.20 0.10 0.70 0.30 1.15 0.40 0.90 -0.45 3.45 -1.15 3.45 -0.25 0 -0.55 0.55 -0.65 1.25 -0.25 1.10 -0.10 1.20 0.90 0.95 0.75 -0.20 1.20 -0.10 1.20 0.25 0 0.30 -0.20 0.55 -0.50 0.55 -0.25 0 -0.50 0.40 -0.45 0.90 0 0.70 0.15 0.65 0.80 -0.25 0.85 -1.30 1.65 -1.50 1.65 -0.45 0 0.40 0.40 0.65 0.85 0.60 0.55 0 0.90 0.35 0.95 1 0.05 0.55 0.20 1.85 0.40 2.85 0.40 2.05 -0.30 2.50 -1.20 0.85z"/>
  <path d="M16.80 16.25 c-0.30 -0.80 0.65 -2.75 1.30 -2.75 0.25 0 0.40 0.80 0.40 1.75 0 1.85 -1.10 2.45 -1.70 1z"/>
  <path d="M12.35 12.80 c-0.20 -0.60 2.05 -4.80 2.60 -4.80 0.50 0 0.05 2.95 -0.50 3.30 -0.25 0.15 -0.45 0.60 -0.45 1 0 1.40 0.95 0.20 1.50 -1.85 0.30 -1.15 0.70 -1.95 0.85 -1.75 0.15 0.15 0 1.25 -0.40 2.50 -0.55 1.95 -0.80 2.20 -2.05 2.20 -0.75 -0.05 -1.45 -0.30 -1.55 -0.60z"/>
  <path d="M16.65 6.40 c-0.15 -2.10 1.85 -3.85 4.35 -3.85 l1.75 -0.05 -2.15 1 c-1.20 0.55 -2.05 1.20 -1.85 1.50 0.30 0.50 -1.10 3 -1.70 3 -0.15 0 -0.35 -0.75 -0.40 -1.60z m1.85 -1 c0 -0.65 -1.15 -0.25 -1.40 0.50 -0.10 0.35 0.10 0.50 0.60 0.30 0.45 -0.15 0.80 -0.55 0.80 -0.80z"/>
 </g>
 <g fill="#814a21">
  <path d="M18 38 c0 -1.65 0.15 -2 1 -2 0.85 0 1 0.35 1 2 0 1.65 -0.15 2 -1 2 -0.85 0 -1 -0.35 -1 -2z"/>
  <path d="M27.40 39.15 c0.60 -1.15 0.85 -4 0.70 -8.80 -0.05 -2.85 0.05 -3.80 0.50 -3.55 0.40 0.25 0.45 0.10 0.25 -0.45 -0.50 -1.30 0.20 -3.85 1 -3.85 0.60 0 0.70 0.40 0.45 1.70 -0.20 0.90 -0.45 3.10 -0.60 4.85 -0.30 2.95 -0.35 4 -0.60 9.10 -0.10 1.50 -0.30 1.85 -1.10 1.85 -0.80 0 -0.95 -0.20 -0.60 -0.85z"/>
  <path d="M13.75 35.40 c-0.60 -2.20 -0.65 -3.05 -0.10 -5.10 0.75 -3 1.50 -3.40 2.60 -1.35 0.70 1.40 0.65 1.75 -0.35 1.60 -0.20 0 -0.50 0.55 -0.70 1.35 -0.15 0.75 -0.35 1.65 -0.50 2 -0.10 0.30 0.05 0.60 0.30 0.60 0.30 0 0.50 0.80 0.50 1.75 0 2.55 -0.85 2.15 -1.75 -0.85z"/>
  <path d="M18 34.25 c0 -0.70 -0.20 -1.25 -0.50 -1.25 -0.80 0 -0.55 -0.95 0.45 -1.85 0.55 -0.45 0.85 -1.15 0.65 -1.55 -0.20 -0.55 -0.10 -0.65 0.40 -0.35 0.45 0.30 0.55 0.20 0.30 -0.20 -0.25 -0.35 -0.25 -1.40 -0.10 -2.35 0.40 -2.10 1.60 -2.25 3.45 -0.40 0.95 0.95 1.60 1.20 2.40 0.95 1.95 -0.65 2.40 1.20 1.40 5.75 -0.60 2.85 -1 3.10 -1.80 1.15 l-0.55 -1.40 -0.05 1.40 c-0.05 1.70 -0.75 1.70 -2.15 0.10 -1.15 -1.35 -1.90 -1.25 -1.90 0.30 0 0.60 -0.35 0.95 -1 0.95 -0.75 0 -1 -0.35 -1 -1.25z m5.90 -3.25 c1.90 0 1.25 -1.35 -0.75 -1.60 -2.25 -0.30 -1.95 -0.45 -2.40 1.05 -0.35 1.05 -0.25 1.15 0.80 0.90 0.65 -0.20 1.70 -0.35 2.35 -0.35z"/>
  <path d="M16.50 27.80 c-0.25 -0.65 -0.85 -1.30 -1.35 -1.45 -0.60 -0.15 -0.40 -0.25 0.50 -0.30 0.95 -0.05 1.35 0.20 1.35 0.85 0 0.70 0.10 0.75 0.50 0.10 0.40 -0.60 0.50 -0.45 0.50 0.65 0 1.65 -0.85 1.75 -1.50 0.15z"/>
  <path d="M22.40 24.30 c-1.35 -1 -1.10 -1.30 1.10 -1.30 2.15 0 2.60 0.65 1.05 1.50 -1.20 0.60 -1.10 0.60 -2.15 -0.20z"/>
  <path d="M17.10 18.25 c0.05 -1.30 0.35 -1.75 1 -1.75 0.95 0 1.10 0.55 0.60 2.40 -0.50 1.85 -1.75 1.35 -1.60 -0.65z"/>
  <path d="M27.30 15.90 c-0.45 -1.75 -0.35 -2.40 0.35 -2.40 0.35 0 0.65 0.75 0.70 1.75 0.15 1.95 -0.55 2.40 -1.05 0.65z"/>
  <path d="M25.50 15.50 c0 -0.95 0.15 -1.05 0.60 -0.60 0.45 0.45 0.45 0.75 0 1.20 -0.45 0.45 -0.60 0.35 -0.60 -0.60z"/>
  <path d="M12 14.25 c0.25 -0.70 0.45 -1.45 0.40 -1.65 -0.10 -0.55 1.20 -3.10 1.65 -3.10 0.85 0 1.05 1.20 0.30 1.75 -0.45 0.35 -0.70 0.70 -0.55 0.90 0.15 0.15 -0.10 0.95 -0.55 1.80 -0.95 1.90 -1.95 2.10 -1.25 0.30z"/>
  <path d="M13.80 14.65 c0.55 -1.65 1.35 -3.15 1.75 -3.15 0.60 0 -0.80 3.65 -1.45 3.90 -0.40 0.10 -0.50 -0.15 -0.30 -0.75z"/>
  <path d="M15 7.50 c0 -1.05 1.65 -3 2.55 -3 0.80 0 0.75 0.15 -0.30 1.30 -0.70 0.75 -1.25 1.55 -1.25 1.75 0 0.25 -0.20 0.45 -0.50 0.45 -0.25 0 -0.50 -0.25 -0.50 -0.50z"/>
  <path d="M17 6.95 c0.35 -0.55 0.70 -0.90 0.85 -0.75 0.40 0.40 -0.25 1.80 -0.85 1.80 -0.35 0 -0.35 -0.30 0 -1.05z"/>
  <path d="M22.15 3.85 c0.80 -0.30 1.25 -0.85 1.15 -1.20 -0.15 -0.35 -0.05 -0.75 0.25 -0.90 0.25 -0.20 0.40 0.30 0.35 1.20 -0.10 1.40 -0.30 1.55 -1.65 1.50 l-1.50 -0.05 1.40 -0.55z"/>
 </g>
 <g fill="#584f49">
  <path d="M10 38.65 c0 -0.70 0.95 -1.90 1.25 -1.60 0.40 0.40 -0.25 1.95 -0.80 1.95 -0.25 0 -0.45 -0.15 -0.45 -0.35z"/>
  <path d="M6 31.95 c0 -0.85 3.65 -3.90 5.40 -4.50 2.35 -0.75 3.20 -0.20 1.05 0.75 -1.05 0.40 -2.70 1.55 -3.70 2.55 -1.95 1.80 -2.75 2.15 -2.75 1.20z"/>
  <path d="M8.50 32.25 c0 -0.75 0.90 -2 1.20 -1.70 0.15 0.15 -0.05 0.70 -0.45 1.25 -0.40 0.50 -0.70 0.75 -0.75 0.45z"/>
  <path d="M14 29 c0.65 -1.15 1 -1.30 1 -0.30 0 0.40 -0.35 0.80 -0.75 1 -0.65 0.20 -0.70 0.10 -0.25 -0.70z"/>
  <path d="M20.85 18.95 c0.15 -0.55 0.70 -0.95 1.20 -0.95 0.60 0 0.95 0.35 0.95 0.95 0 0.65 -0.35 0.95 -1.20 0.95 -0.90 0 -1.10 -0.25 -0.95 -0.95z"/>
  <path d="M20.95 16.35 c-0.85 -0.65 -1.15 -3.20 -0.40 -3.65 0.25 -0.15 0.35 -0.50 0.20 -0.75 -0.20 -0.25 0.05 -0.45 0.45 -0.45 0.50 0 0.80 0.45 0.80 1.25 0 0.70 -0.30 1.25 -0.60 1.25 -0.45 0 -0.50 0.15 -0.10 0.40 0.60 0.40 1.30 2.60 0.80 2.60 -0.20 0 -0.70 -0.30 -1.15 -0.65z"/>
  <path d="M24.30 16.65 c-1 -1 0.30 -4.65 1.65 -4.65 0.85 0 0.65 1.50 -0.25 1.85 -0.75 0.25 -0.75 0.35 0 0.75 0.45 0.25 0.80 0.65 0.80 0.90 0 0.60 -1.80 1.55 -2.20 1.15z"/>
  <path d="M12 14.20 c0.30 -0.70 0.40 -1.50 0.20 -1.75 -0.15 -0.25 -0.05 -0.45 0.15 -0.45 0.25 0 0.70 -0.65 1 -1.50 0.65 -1.75 1.55 -2 1.45 -0.35 -0.05 0.65 -0.35 1.05 -0.75 0.95 -0.40 -0.10 -0.55 0.15 -0.40 0.60 0.35 0.85 -1 3.80 -1.65 3.80 -0.30 0 -0.25 -0.55 0 -1.30z"/>
  <path d="M18.55 14.05 c-0.05 -1.20 0.10 -1.60 0.45 -1.25 0.35 0.35 0.35 0.95 0.05 1.75 -0.45 1.15 -0.50 1.10 -0.50 -0.50z"/>
  <path d="M15.30 11.25 c0.15 -0.80 0.55 -1.70 0.85 -2 0.30 -0.35 0.35 0 0.15 1 -0.20 0.85 -0.60 1.75 -0.85 2 -0.35 0.35 -0.40 0 -0.15 -1z"/>
  <path d="M25.50 10.10 c0 -0.30 -0.10 -0.85 -0.25 -1.20 -0.20 -0.45 0.10 -0.70 0.75 -0.70 1.20 0 1.30 0.90 0.25 1.80 -0.45 0.40 -0.75 0.40 -0.75 0.10z"/>
  <path d="M23.50 8.15 c0 -0.65 0.25 -1.15 0.50 -1.15 0.65 0 0.65 0.55 0 1.50 -0.40 0.60 -0.50 0.55 -0.50 -0.35z"/>
  <path d="M22.35 5.15 c-0.80 -0.75 -0.35 -1.75 0.65 -1.50 0.80 0.20 0.90 0.10 0.55 -0.55 -0.25 -0.45 -0.25 -1.25 0.10 -1.95 0.50 -1.15 1.35 -1.55 1.35 -0.65 0 0.30 0.35 0.50 0.75 0.50 0.90 0 1 0.85 0.15 1.15 -0.50 0.15 -0.50 0.35 0 1 0.55 0.65 0.50 0.80 -0.50 0.95 -0.65 0.10 -1.10 0.45 -1 0.80 0.10 0.65 -1.50 0.85 -2.05 0.25z"/>
  <path d="M18.25 3.50 c0.85 -0.95 2.75 -1.40 2.75 -0.60 0 0.40 -2.40 1.60 -3.20 1.60 -0.25 0 -0.05 -0.45 0.45 -1z"/>
 </g>
 <g fill="#925a32">
  <path d="M14.50 38.80 c0 -0.70 -0.20 -1.80 -0.50 -2.50 -0.35 -1 -0.30 -1.30 0.20 -1.30 0.40 0 0.80 0.50 1 1.15 0.45 1.75 0.35 3.85 -0.20 3.85 -0.25 0 -0.50 -0.55 -0.50 -1.20z"/>
  <path d="M17.45 39.50 c-0.25 -1.80 -0.15 -3.50 0.20 -3.50 0.60 0 0.40 -2.90 -0.25 -3.15 -0.45 -0.15 -0.30 -0.55 0.45 -1.40 1.35 -1.50 2.15 -3.55 2.15 -5.50 0 -1.95 0.60 -1.85 2.45 0.40 1.40 1.65 1.65 1.80 2.55 1.25 1.30 -0.80 1.50 -0.75 1.50 0.35 0 1 -1.30 1.55 -3.85 1.55 -1.05 0 -1.65 0.25 -1.65 0.70 0 0.50 0.60 0.60 2.50 0.40 2.85 -0.25 3.30 0.25 2.75 3.20 -0.30 1.80 -1 1.80 -1.35 0 -0.30 -1.70 -1.30 -1.50 -1.25 0.30 0.10 1.15 -0.15 1.65 -0.75 1.80 -0.60 0.10 -0.90 -0.15 -0.90 -0.80 0 -1.05 -1.30 -2.45 -1.80 -1.95 -0.20 0.15 -0.35 1.80 -0.40 3.60 -0.05 3 -0.15 3.25 -1.15 3.25 -0.65 0 -1.20 -0.20 -1.20 -0.50z"/>
  <path d="M28.30 35.75 c0.15 -2.50 0.35 -4.75 0.45 -5.10 0.10 -0.35 0 -0.75 -0.25 -0.90 -0.30 -0.20 -0.50 -1 -0.50 -1.80 0 -0.90 0.20 -1.40 0.50 -1.20 0.35 0.20 0.45 -0.10 0.20 -0.95 -0.25 -1.05 -0.15 -1.25 0.45 -1 0.65 0.25 0.75 0.85 0.60 2.85 -0.15 1.45 -0.35 4.45 -0.45 6.70 -0.15 2.25 -0.45 4.50 -0.75 5 -0.35 0.65 -0.40 -0.45 -0.25 -3.60z"/>
  <path d="M14 30.25 c0 -1.90 1.25 -2.95 2.05 -1.70 0.65 1.05 0.55 1.95 -0.30 1.95 -0.40 0 -0.75 0.35 -0.75 0.75 0 0.40 -0.20 0.75 -0.50 0.75 -0.25 0 -0.50 -0.80 -0.50 -1.75z"/>
  <path d="M9 29.25 c0 -0.40 0.30 -0.75 0.70 -0.75 0.40 0 0.80 -0.20 0.90 -0.50 0.10 -0.25 0.95 -0.65 1.90 -0.80 2.05 -0.40 2 -0.30 -1.10 1.50 -1.90 1.05 -2.40 1.20 -2.40 0.55z"/>
  <path d="M16.55 27.90 c-0.35 -1 0.15 -1.95 0.65 -1.35 0.55 0.65 0.80 2.45 0.30 2.45 -0.30 0 -0.70 -0.50 -0.95 -1.10z"/>
  <path d="M21 22 c0 -0.55 0.50 -1.50 1.10 -2.10 1.05 -1.05 1.15 -1.05 1.30 -0.25 0.10 0.55 0.45 0.80 0.90 0.65 0.45 -0.15 0.70 0.05 0.70 0.70 0 0.65 -0.35 1 -1 1 -0.55 0 -1 0.25 -1 0.50 0 0.30 -0.45 0.50 -1 0.50 -0.65 0 -1 -0.35 -1 -1z"/>
  <path d="M19.50 22 c0.05 -0.85 1.40 -2.80 1.70 -2.45 0.15 0.15 -0.20 0.90 -0.70 1.70 -0.55 0.85 -1 1.15 -1 0.75z"/>
  <path d="M12.20 19.75 c0.25 -0.65 0.10 -0.80 -0.50 -0.55 -0.55 0.20 -0.45 -0.15 0.40 -1.15 0.65 -0.85 1.30 -1.50 1.55 -1.50 0.45 -0.05 0.45 1.15 0 1.65 -0.20 0.20 -0.40 0.75 -0.40 1.15 0 0.45 -0.30 0.90 -0.70 1.05 -0.50 0.15 -0.60 0 -0.35 -0.65z"/>
  <path d="M17.10 17.75 c0.05 -1.35 0.30 -1.75 1 -1.75 0.95 0 1.10 0.50 0.60 2.40 -0.50 1.80 -1.70 1.35 -1.60 -0.65z"/>
  <path d="M17.50 14.55 c0 -1.05 1.25 -2.30 1.70 -1.65 0.45 0.75 -0.25 2.60 -1 2.60 -0.40 0 -0.70 -0.40 -0.70 -0.95z"/>
  <path d="M20.30 14.95 c0.15 -0.30 0.30 -2.20 0.30 -4.25 0 -2.05 0.20 -3.80 0.45 -4 0.85 -0.50 0.50 -1.70 -0.40 -1.35 -0.85 0.30 -0.85 0.25 -0.05 -0.60 0.55 -0.60 1.70 -1 3 -1.05 1.55 -0.10 1.90 0 1.25 0.35 -0.65 0.40 -0.75 0.70 -0.35 1.45 0.35 0.65 0.35 1.05 0 1.25 -0.25 0.15 -0.50 0.75 -0.50 1.35 0 0.65 -0.25 0.90 -0.70 0.75 -0.35 -0.15 -0.65 0 -0.65 0.30 0.05 2.90 -0.20 4.35 -0.90 4.35 -0.40 0 -0.75 0.45 -0.75 1 0 0.55 -0.25 1 -0.55 1 -0.25 0 -0.35 -0.25 -0.15 -0.55z"/>
  <path d="M27.35 15.15 c-0.65 -0.60 -0.40 -2.75 0.30 -2.55 0.30 0.15 0.60 0.85 0.60 1.55 0.05 1.35 -0.25 1.65 -0.90 1z"/>
  <path d="M12.40 12.90 c-0.15 -0.35 0.10 -1.15 0.50 -1.75 0.80 -1.30 2.25 -1.60 1.80 -0.40 -0.20 0.40 -0.50 0.60 -0.75 0.45 -0.25 -0.15 -0.40 0.25 -0.30 0.85 0.10 1.20 -0.90 1.90 -1.25 0.85z"/>
  <path d="M23 12.65 c0 -0.55 0.35 -1.20 0.80 -1.35 1.30 -0.50 1.40 0.05 0.25 1.25 -1.05 1.10 -1.05 1.10 -1.05 0.10z"/>
  <path d="M25 12.50 c0.30 -0.55 0.75 -1 1 -1 0.30 0 0.50 0.45 0.50 1 0 0.65 -0.35 1 -1 1 -0.90 0 -0.95 -0.15 -0.50 -1z"/>
  <path d="M25.50 9.50 c0 -0.70 0.35 -1 1.10 -1 1 0 1.05 0.05 0.15 1 -0.50 0.55 -1 1 -1.10 1 -0.05 0 -0.15 -0.45 -0.15 -1z"/>
  <path d="M14.50 8.20 c0 -0.55 1.70 -3.20 2.10 -3.20 0.20 0 0.90 -0.55 1.60 -1.25 0.80 -0.75 1.80 -1.25 2.65 -1.20 l1.40 0.05 -1.25 0.55 c-2.35 1.10 -4.05 2.50 -4.80 3.90 -0.65 1.30 -1.70 2 -1.70 1.15z"/>
  <path d="M16.50 8.15 c0 -0.25 0.35 -0.90 0.75 -1.45 0.60 -0.80 0.70 -0.80 0.75 -0.15 0 0.45 -0.35 1.10 -0.75 1.45 -0.40 0.35 -0.75 0.40 -0.75 0.15z"/>
 </g>
 <g fill="#735e4f">
  <path d="M17.55 39.20 c-0.45 -0.55 -0.50 -0.90 -0.15 -1.15 0.35 -0.20 0.40 -0.60 0.10 -1.05 -0.30 -0.40 -0.50 -1.70 -0.50 -2.85 0 -1.80 0.15 -2.15 1 -2.15 0.90 0 1 0.35 1 4 0 4.10 -0.20 4.55 -1.45 3.20z"/>
  <path d="M10.20 37.55 c0.05 -1.70 0.50 -2 1 -0.70 0.20 0.45 0 1.15 -0.35 1.55 -0.60 0.55 -0.70 0.45 -0.65 -0.85z"/>
  <path d="M13.30 33.90 c-0.50 -1.90 -0.35 -2.40 0.70 -2.40 0.55 0 1 0.30 1 0.65 0 1.15 -0.60 2.85 -1 2.85 -0.20 0 -0.50 -0.50 -0.70 -1.10z"/>
  <path d="M6.65 33.65 c0.15 -0.60 0 -1.20 -0.35 -1.30 -0.70 -0.25 0.55 -1.85 1.45 -1.85 0.35 0 0.75 -0.45 0.90 -1 0.15 -0.55 0.85 -1.25 1.55 -1.55 1.45 -0.70 2.50 -0.15 1.20 0.60 -1.80 1 -3.95 3.10 -3.75 3.65 0.15 0.35 -0.10 1.05 -0.50 1.55 -0.75 1 -0.75 0.95 -0.50 -0.10z"/>
  <path d="M28 27.50 c0 -0.65 0.25 -0.85 0.70 -0.70 1.20 0.45 1.40 1.70 0.30 1.70 -0.65 0 -1 -0.35 -1 -1z"/>
  <path d="M28.85 26.15 c-0.60 -0.55 -0.40 -1.15 0.40 -1.15 0.40 0 0.75 0.35 0.75 0.75 0 0.80 -0.60 1 -1.15 0.40z"/>
  <path d="M21.75 23.80 c-0.85 -0.60 -0.90 -0.90 -0.35 -2.60 0.50 -1.75 0.50 -1.85 -0.15 -1 -0.40 0.55 -0.75 0.70 -0.75 0.35 0 -1.05 1 -2.55 1.70 -2.55 0.80 0 2.10 3.15 1.40 3.40 -0.25 0.05 -0.30 0.80 -0.20 1.60 0.25 1.65 -0.20 1.85 -1.65 0.80z"/>
  <path d="M12 20 c0.60 -1.10 0.05 -1.30 -1 -0.35 -0.40 0.30 -0.15 -0.10 0.65 -0.95 0.75 -0.80 1.35 -1.75 1.35 -2.05 0 -0.30 0.35 -0.70 0.80 -0.85 0.60 -0.25 0.70 -0.05 0.40 0.85 -0.15 0.60 -0.65 1.30 -1.10 1.55 -0.60 0.35 -0.60 0.50 -0.05 0.85 0.50 0.30 0.55 0.45 0.10 0.45 -0.35 0 -0.65 0.35 -0.65 0.75 0 0.40 -0.25 0.75 -0.50 0.75 -0.35 0 -0.35 -0.30 0 -1z"/>
  <path d="M20.70 15.80 c-0.15 -0.35 -0.15 -1.85 0 -3.30 0.15 -1.80 0 -3.15 -0.50 -4.10 -0.65 -1.25 -0.65 -1.40 0.05 -1.40 1.05 0 0.95 -1 -0.10 -1 -0.70 -0.05 -0.60 -0.30 0.55 -1.30 1.05 -0.90 1.80 -1.20 2.65 -0.95 1.05 0.25 1.10 0.20 0.60 -0.65 -0.90 -1.45 -0.25 -2.50 1.25 -2.25 1.45 0.30 1.70 0.90 0.50 1.35 -0.65 0.25 -0.70 0.45 -0.20 1.05 0.50 0.60 0.50 0.75 -0.15 0.75 -1.05 0 -1.60 0.95 -0.95 1.60 0.35 0.35 0.35 1 0 1.95 -0.55 1.60 -0.85 1.75 -1.90 0.85 -0.60 -0.55 -0.60 -0.50 -0.05 0.20 0.35 0.50 0.55 1.35 0.40 1.95 -0.25 0.90 -0.10 1 0.95 0.75 1.25 -0.35 1.25 -0.30 0.40 0.95 -0.45 0.70 -0.60 1.25 -0.30 1.25 0.30 0 0.80 -0.45 1.10 -1 0.30 -0.55 0.75 -1 1 -1 0.85 0 0.55 1.85 -0.35 2.20 -0.75 0.30 -0.70 0.40 0.10 1 0.50 0.35 0.75 0.90 0.55 1.20 -0.50 0.85 -2.30 0.75 -2.30 -0.15 0 -0.40 -0.35 -0.75 -0.75 -0.75 -0.40 0 -0.75 0.35 -0.75 0.75 0 0.95 -1.45 1 -1.80 0.05z"/>
  <path d="M11.75 15.20 c0.20 -0.50 0.45 -1.45 0.50 -2.10 0.05 -0.60 0.35 -1.40 0.75 -1.75 0.45 -0.40 0.55 -0.40 0.30 0 -0.15 0.30 -0.05 0.65 0.20 0.75 0.35 0.10 0.25 0.75 -0.25 1.75 -0.90 1.80 -2.20 2.95 -1.50 1.35z"/>
  <path d="M27 13.70 c0 -0.70 0.25 -1.20 0.55 -1.10 0.30 0.10 0.50 0.35 0.50 0.55 -0.05 0.20 -0.05 0.70 -0.05 1.10 0 0.40 -0.20 0.75 -0.50 0.75 -0.25 0 -0.50 -0.60 -0.50 -1.30z"/>
  <path d="M14 14.15 c0.05 -0.25 0.35 -0.95 0.75 -1.65 0.50 -0.90 0.70 -1 0.75 -0.40 0 1.15 -0.55 2.40 -1.05 2.40 -0.25 0 -0.45 -0.15 -0.45 -0.35z"/>
  <path d="M25.40 9.15 c-0.20 -0.65 0.05 -0.95 0.70 -0.95 0.55 0 0.85 0.30 0.80 0.75 -0.20 1.10 -1.25 1.20 -1.50 0.20z"/>
  <path d="M17 4.75 c0 -0.40 0.45 -0.75 1 -0.75 0.55 0 1 0.10 1 0.25 0 0.10 -0.45 0.45 -1 0.75 -0.80 0.45 -1 0.40 -1 -0.25z"/>
  <path d="M19.30 2.95 c0.15 -0.25 0.85 -0.45 1.55 -0.45 1.60 0 1.20 0.55 -0.55 0.70 -0.70 0.10 -1.15 -0.05 -1 -0.25z"/>
 </g>
 <g fill="#b0622b">
  <path d="M17.90 39.40 c-0.15 -0.35 -0.30 -2.30 -0.35 -4.30 l-0.10 -3.60 1.55 -0.35 c1.20 -0.20 1.45 -0.45 1.20 -1.10 -0.25 -0.45 -0.40 -1.80 -0.40 -3.05 -0.05 -1.70 0.15 -2.25 0.70 -2.25 0.50 0 0.80 0.60 0.90 1.65 0.15 1.45 0.30 1.60 1.85 1.60 0.95 0 1.85 -0.25 2 -0.50 0.20 -0.30 0.55 -0.40 0.80 -0.25 0.55 0.35 0.55 5.60 -0.05 7 l-0.40 1 -0.35 -1 c-0.20 -0.55 -0.45 -1.30 -0.55 -1.60 -0.40 -1.35 -1.30 -0.65 -1.05 0.80 0.20 0.95 0.05 1.65 -0.40 2.05 -0.55 0.45 -0.85 0.25 -1.45 -1.20 -0.95 -2.30 -2.20 -2 -2.20 0.60 -0.05 3.65 -0.30 5.10 -0.90 5.10 -0.30 0 -0.70 -0.30 -0.80 -0.60z"/>
  <path d="M13.35 33.55 c-0.35 -1.60 0.40 -4.85 1.20 -5.35 0.30 -0.15 0.90 0.05 1.35 0.50 0.80 0.80 0.80 0.90 0 1.35 -0.50 0.30 -0.90 1 -0.90 1.60 0 1.55 -0.55 3.35 -1 3.35 -0.20 0 -0.50 -0.65 -0.65 -1.45z"/>
  <path d="M16.85 28.65 c-0.60 -0.55 -0.40 -1.15 0.40 -1.15 0.40 0 0.75 0.35 0.75 0.75 0 0.80 -0.60 1 -1.15 0.40z"/>
  <path d="M14.10 14 c0.50 -1.50 1.40 -2.50 1.40 -1.55 0 1 -1 3.05 -1.45 3.05 -0.30 0 -0.30 -0.55 0.05 -1.50z"/>
  <path d="M12.40 13.75 c-0.15 -1.55 2.25 -6.75 3.15 -6.75 0.60 0 0.55 0.70 -0.10 1.35 -0.45 0.45 -0.75 1.45 -0.90 2.80 -0.05 0.20 -0.20 0.30 -0.40 0.30 -0.95 -0.15 -1.35 0.10 -0.85 0.45 0.40 0.25 0.35 0.80 -0.10 1.85 l-0.60 1.50 -0.20 -1.50z"/>
  <path d="M15.50 10.40 c0 -0.35 0.25 -1 0.50 -1.40 0.40 -0.60 0.50 -0.55 0.50 0.35 0 0.60 -0.20 1.25 -0.50 1.40 -0.25 0.15 -0.50 0 -0.50 -0.35z"/>
  <path d="M25.50 9.50 c0 -0.65 2.45 -3 3.15 -3 0.60 0 -1.75 3.10 -2.55 3.40 -0.35 0.10 -0.60 -0.05 -0.60 -0.40z"/>
  <path d="M17 4.60 c0 -0.35 2.60 -2.10 3.20 -2.10 0.15 0 -0.25 0.55 -0.90 1.25 -1.15 1.20 -2.30 1.65 -2.30 0.85z"/>
 </g>
 <g fill="#9e7146">
  <path d="M17.60 37.25 c-0.05 -1.45 0.10 -1.75 0.90 -1.75 0.85 0 0.95 0.25 0.70 1.40 -0.65 2.70 -1.50 2.90 -1.60 0.35z"/>
  <path d="M8.95 34.90 c-0.60 -1.15 -0.60 -1.15 0.50 -0.20 1.15 1.05 1.30 1.30 0.55 1.30 -0.25 0 -0.75 -0.50 -1.05 -1.10z"/>
  <path d="M25.35 34.30 c-0.60 -1.50 -0.40 -2.80 0.40 -2.80 0.80 0 0.90 1.15 0.30 2.70 -0.35 0.90 -0.40 0.90 -0.70 0.10z"/>
  <path d="M21.30 33.25 c-0.15 -0.40 -0.75 -0.75 -1.30 -0.75 -0.65 0 -1 -0.35 -1 -1 0 -0.80 0.35 -1 1.75 -1 1.65 0 1.75 0.10 1.75 1.75 0 1.80 -0.65 2.35 -1.20 1z"/>
  <path d="M9 29 c0 -0.70 1.90 -1.60 2.90 -1.40 0.65 0.15 0.45 0.40 -0.75 1.05 -1.85 1 -2.15 1.05 -2.15 0.35z"/>
  <path d="M16.55 27.80 c-0.25 -0.65 -1 -1.30 -1.65 -1.50 -1.10 -0.30 -1.15 -0.35 -0.20 -1.05 1.30 -0.95 2.35 -0.95 2 0 -0.20 0.40 0.05 0.85 0.50 1.05 0.85 0.35 1.10 2.70 0.30 2.70 -0.30 0 -0.75 -0.55 -0.95 -1.20z"/>
  <path d="M28.80 26.05 c-0.55 -0.85 0.30 -3.55 1.05 -3.55 0.55 0 0.70 0.35 0.45 1.15 -0.15 0.60 -0.30 1.50 -0.30 2 0 0.90 -0.75 1.15 -1.20 0.40z"/>
  <path d="M23 23.45 c0 -0.85 -0.25 -1 -1.05 -0.80 -0.90 0.25 -1 0.10 -0.70 -1.05 0.20 -0.75 0.60 -1.50 0.90 -1.70 0.45 -0.30 0.45 -0.40 0 -0.40 -0.35 0 -1.20 1 -1.95 2.25 -0.70 1.25 -1.50 2.25 -1.70 2.25 -0.25 0 0.25 -1.25 1.15 -2.75 1.70 -2.85 3.20 -3.60 3.70 -1.75 0.15 0.55 0.55 1 0.90 1 0.75 0 1.50 2.70 1 3.50 -0.60 0.95 -2.25 0.55 -2.25 -0.55z"/>
  <path d="M28.85 21.15 c-0.10 -0.50 -0.40 -1.30 -0.60 -1.75 -0.25 -0.65 -0.10 -0.90 0.45 -0.90 0.85 0 1.80 1.45 1.80 2.70 0 1.10 -1.30 1 -1.65 -0.05z"/>
  <path d="M12 20 c0.55 -1.05 0.50 -1.10 -0.30 -0.80 -0.85 0.35 -0.85 0.30 0.05 -0.70 1.15 -1.30 1.20 -1.30 1.10 0.60 -0.05 0.85 -0.40 1.65 -0.75 1.80 -0.55 0.15 -0.60 0 -0.10 -0.90z"/>
  <path d="M20.20 15.10 c0.15 -0.25 0.35 -1.65 0.50 -3.10 0.15 -1.85 0 -2.95 -0.55 -3.80 -0.70 -1.10 -0.70 -1.20 0.05 -1.20 0.45 0 0.80 -0.20 0.80 -0.50 0 -0.25 -0.35 -0.50 -0.80 -0.50 -0.40 0 -0.60 -0.20 -0.45 -0.50 0.15 -0.25 0.75 -0.50 1.30 -0.50 0.50 0 0.95 -0.35 0.95 -0.75 0 -1.25 1.40 -0.85 2.15 0.65 0.50 1.05 0.55 1.75 0.15 2.65 -0.70 1.70 -0.70 1.65 -1.65 0.90 -0.80 -0.65 -0.85 -0.60 -0.25 0.15 0.40 0.50 0.55 1.30 0.35 1.95 -0.35 1 -0.25 1.05 0.95 0.75 1.35 -0.35 1.35 -0.30 0.50 0.95 -0.50 0.80 -0.60 1.25 -0.25 1.25 0.30 0 0.70 -0.35 0.85 -0.75 0.35 -0.80 1.70 -1.05 1.70 -0.30 0 0.25 -0.60 0.95 -1.35 1.55 -0.80 0.60 -1.10 0.95 -0.75 0.75 0.30 -0.15 0.60 -0.05 0.60 0.20 0 0.75 -0.60 0.70 -1.90 -0.25 -0.60 -0.40 -1.40 -0.65 -1.75 -0.55 -0.35 0.15 -0.25 0.30 0.30 0.30 1.35 0.05 1 1.05 -0.45 1.05 -0.70 0 -1.15 -0.20 -1 -0.40z m3.20 -9.50 c0.10 -0.35 -0.10 -0.50 -0.60 -0.30 -0.45 0.15 -0.80 0.55 -0.80 0.80 0 0.65 1.15 0.25 1.40 -0.50z"/>
  <path d="M27 13.50 c0 -0.55 0.25 -1 0.50 -1 0.30 0 0.50 0.45 0.50 1 0 0.55 -0.20 1 -0.50 1 -0.25 0 -0.50 -0.45 -0.50 -1z"/>
  <path d="M14 10.65 c0 -1.45 0.50 -2.65 1.10 -2.65 0.30 0 0.25 0.30 -0.10 0.75 -0.30 0.40 -0.45 0.90 -0.35 1.15 0.15 0.20 0.10 0.70 -0.20 1.10 -0.35 0.60 -0.45 0.50 -0.45 -0.35z"/>
  <path d="M15.50 10.70 c0 -0.55 0.35 -1.45 0.75 -2 0.95 -1.30 1 0.05 0 1.80 -0.65 1.15 -0.70 1.15 -0.75 0.20z"/>
  <path d="M27 7.95 c0.05 -0.75 2.50 -2.80 2.50 -2.05 0 0.25 -0.55 0.95 -1.25 1.60 -0.85 0.80 -1.25 0.95 -1.25 0.45z"/>
  <path d="M17 4.85 c0 -0.60 0.90 -1.20 3.20 -2.30 0.25 -0.10 -0.25 0.50 -1.15 1.40 -1.75 1.75 -2.05 1.85 -2.05 0.90z"/>
 </g>
 <g fill="#93735c">
  <path d="M10.25 38.10 c0.20 -0.65 0.05 -1.45 -0.25 -1.85 -0.40 -0.50 -0.45 -0.75 -0.10 -0.75 1.10 0 1.60 1.80 0.80 2.80 -0.70 0.90 -0.75 0.90 -0.45 -0.20z"/>
  <path d="M14.45 37.65 c-0.90 -2.35 -1.10 -4.15 -0.55 -4.15 0.30 0 0.70 0.85 0.85 1.90 0.15 1 0.40 2.25 0.50 2.75 0.25 1.30 -0.20 1 -0.80 -0.50z"/>
  <path d="M17.30 33.70 c-0.25 -1 -0.10 -1.60 0.65 -2.30 1.05 -0.95 1.05 -0.95 1.05 1.35 0 2.55 -1.15 3.20 -1.70 0.95z"/>
  <path d="M21.45 33.30 c-0.35 -0.70 -0.85 -1.10 -1.25 -0.95 -0.45 0.15 -0.70 -0.10 -0.70 -0.80 0 -1.55 2.75 -1.50 3.20 0.10 0.75 2.75 -0.20 4 -1.25 1.65z"/>
  <path d="M6.65 32.65 c-1 -0.35 -0.80 -0.90 0.95 -2.60 2.35 -2.30 3.50 -1.95 1.25 0.35 -1.05 1.05 -1.70 2.05 -1.55 2.25 0.40 0.40 0.25 0.40 -0.65 0z"/>
  <path d="M13 31.55 c0 -1.30 2.30 -3.80 2.75 -3.05 0.20 0.35 0.10 0.85 -0.20 1.15 -0.30 0.30 -0.55 1.05 -0.55 1.70 0 0.80 -0.30 1.15 -1 1.15 -0.65 0 -1 -0.35 -1 -0.95z"/>
  <path d="M28.60 29.90 c-0.85 -0.85 -0.75 -2.90 0.10 -2.90 0.90 0 1.35 1.25 0.90 2.50 -0.30 0.80 -0.50 0.90 -1 0.40z"/>
  <path d="M16.75 28.50 c-0.35 -0.60 0.10 -1.50 0.80 -1.50 0.25 0 0.45 0.45 0.45 1 0 1.05 -0.75 1.35 -1.25 0.50z"/>
  <path d="M15.75 26.50 c-0.20 -0.30 -0.50 -0.40 -0.75 -0.25 -0.25 0.15 -0.55 0.05 -0.75 -0.25 -0.15 -0.30 0.05 -0.65 0.45 -0.80 0.45 -0.15 0.80 -0.60 0.80 -1 0 -0.40 0.25 -0.70 0.50 -0.70 0.30 0 0.50 0.80 0.50 1.75 0 1.80 -0.20 2.15 -0.75 1.25z"/>
  <path d="M20.45 20.15 c1.25 -2.50 2.25 -2.75 3 -0.65 0.25 0.85 0.75 1.50 1 1.50 0.30 0 0.55 0.25 0.55 0.50 0 0.30 -0.80 0.50 -1.75 0.50 -1.45 0 -1.75 -0.20 -1.75 -1.05 0 -0.80 0.20 -1 0.90 -0.70 0.70 0.25 0.75 0.20 0.20 -0.35 -0.55 -0.55 -0.90 -0.40 -1.95 0.85 l-1.25 1.50 1.05 -2.10z"/>
  <path d="M13 17.45 c0 -0.40 0.35 -1.20 0.75 -1.75 0.55 -0.75 0.70 -0.80 0.75 -0.15 0 0.40 -0.35 1.20 -0.75 1.75 -0.55 0.75 -0.70 0.80 -0.75 0.15z"/>
  <path d="M16.90 16.45 c-0.30 -0.75 1.20 -3.95 1.85 -3.95 0.15 0 0.25 0.70 0.25 1.50 0 0.95 -0.25 1.50 -0.70 1.50 -0.40 0 -0.80 0.40 -0.90 0.90 -0.15 0.75 -0.20 0.75 -0.50 0.05z"/>
  <path d="M21.50 16 c0 -0.25 -0.30 -0.50 -0.70 -0.50 -0.50 0 -0.60 -0.40 -0.35 -1.60 0.25 -1.20 0.70 -1.70 1.75 -1.95 1.30 -0.35 1.40 -0.30 1.20 0.80 -0.20 1.05 -0.15 1.15 0.65 0.70 0.55 -0.25 0.95 -0.70 0.95 -0.95 0 -0.30 0.35 -0.50 0.75 -0.50 1.20 0 0.85 0.85 -0.80 2 -1.40 1.05 -1.55 1.05 -2.45 0.25 -0.60 -0.55 -1 -0.65 -1.25 -0.30 -0.15 0.30 0.05 0.55 0.45 0.55 0.45 0 0.80 0.45 0.80 1 0 0.55 -0.20 1 -0.50 1 -0.25 0 -0.50 -0.20 -0.50 -0.50z"/>
  <path d="M24.10 15.65 c0.20 -1 0.90 -1.30 1.85 -0.70 0.90 0.60 0.25 1.55 -1 1.55 -0.70 0 -0.95 -0.30 -0.85 -0.85z"/>
  <path d="M12.40 13.10 c-0.20 -0.65 0.10 -1.40 0.80 -2.05 1.30 -1.25 1.90 -1.35 1.50 -0.30 -0.15 0.40 -0.45 0.70 -0.60 0.65 -0.90 -0.10 -1.30 0.15 -0.75 0.50 0.50 0.35 0.50 0.60 0 1.35 -0.65 0.85 -0.70 0.85 -0.95 -0.15z"/>
  <path d="M14.75 12.65 c0.20 -0.50 0.80 -2.10 1.35 -3.50 0.50 -1.45 1.20 -2.75 1.45 -2.90 0.70 -0.45 0.55 0.35 -0.50 2.55 -0.55 1.10 -1.15 2.60 -1.30 3.35 -0.20 0.75 -0.60 1.35 -0.85 1.35 -0.30 0 -0.35 -0.40 -0.15 -0.85z"/>
  <path d="M15.10 7.45 c0.05 -0.60 0.40 -1.20 0.75 -1.30 0.35 -0.15 0.45 0.15 0.30 0.85 -0.40 1.45 -1.25 1.85 -1.05 0.45z"/>
  <path d="M20.35 6.05 c-0.85 -0.30 -0.85 -0.40 0.10 -1.25 1.05 -0.95 1.05 -0.95 1.05 0.35 0 0.75 -0.05 1.35 -0.10 1.30 -0.10 0 -0.55 -0.20 -1.05 -0.40z"/>
 </g>
 <g fill="#ba7543">
  <path d="M17.95 39.50 c-0.15 -0.40 -0.30 -2.25 -0.40 -4.10 -0.10 -2.80 0.05 -3.55 0.90 -4.50 0.75 -0.80 1.05 -1.75 1.05 -3.45 0 -1.30 0.20 -2.50 0.45 -2.65 0.60 -0.40 1.70 1 1.45 1.80 -0.15 0.35 0.40 2.40 1.15 4.50 1.15 3.25 1.25 3.95 0.65 4.45 -0.55 0.45 -0.80 0.30 -1.20 -0.80 -0.25 -0.70 -0.50 -1.65 -0.50 -2.10 0 -0.50 -0.30 -0.65 -0.80 -0.45 -0.45 0.15 -1 0.30 -1.30 0.30 -0.30 0 -0.40 0.75 -0.25 1.90 0.30 2 -0.75 6.40 -1.20 5.10z"/>
  <path d="M14.40 37.25 c-0.15 -0.70 -0.05 -1.25 0.15 -1.25 0.25 0 0.45 0.55 0.45 1.25 0 0.70 -0.10 1.25 -0.20 1.25 -0.10 0 -0.30 -0.55 -0.40 -1.25z"/>
  <path d="M25.35 34.35 c-0.55 -1.40 -0.40 -2.35 0.40 -3.15 0.65 -0.70 0.75 -0.65 0.70 0.40 -0.05 0.65 -0.20 1.70 -0.40 2.40 -0.30 1.10 -0.40 1.15 -0.70 0.35z"/>
  <path d="M13.25 33.05 c-0.35 -1.55 0.85 -5.05 1.70 -5.05 0.80 0 1.10 0.90 0.60 1.85 -0.30 0.50 -0.65 1.75 -0.80 2.80 -0.35 2.20 -1.05 2.40 -1.50 0.40z"/>
  <path d="M25.30 28.55 c-0.15 -0.25 0.05 -0.55 0.45 -0.75 0.45 -0.15 0.75 0 0.75 0.45 0 0.80 -0.80 1 -1.20 0.30z"/>
  <path d="M28 27.50 c0 -0.25 0.35 -0.50 0.75 -0.50 0.40 0 0.75 0.25 0.75 0.50 0 0.30 -0.35 0.50 -0.75 0.50 -0.40 0 -0.75 -0.20 -0.75 -0.50z"/>
  <path d="M29.15 26.15 c-0.75 -0.25 -0.90 -1.65 -0.20 -1.65 0.25 0 0.35 -0.45 0.20 -1 -0.20 -0.70 0 -1 0.55 -1 0.70 0 0.80 0.30 0.50 1.90 -0.40 2.20 -0.30 2 -1.05 1.75z"/>
  <path d="M23.50 22.25 c0 -2 0.10 -2.05 1.20 -0.95 1.15 1.10 1 2.70 -0.20 2.70 -0.80 0 -1 -0.35 -1 -1.75z"/>
  <path d="M12.10 19.95 c0.10 -0.35 0.50 -0.75 0.85 -0.85 0.40 -0.15 0.60 0.05 0.45 0.45 -0.10 0.35 -0.50 0.75 -0.85 0.85 -0.40 0.15 -0.60 -0.05 -0.45 -0.45z"/>
  <path d="M12.05 18.15 c0.40 -0.50 1.15 -1.75 1.60 -2.85 0.50 -1.05 1 -1.80 1.20 -1.65 0.40 0.40 -0.70 3.35 -1.70 4.45 -1.05 1.15 -2.05 1.20 -1.10 0.05z"/>
  <path d="M12 14.80 c0 -0.40 0.25 -0.90 0.50 -1.05 0.30 -0.15 0.50 0.05 0.50 0.45 0 0.40 -0.20 0.90 -0.50 1.05 -0.25 0.15 -0.50 -0.05 -0.50 -0.45z"/>
  <path d="M13.15 11.05 c0.80 -1.80 1.60 -3.05 2 -3.05 0.25 0 0.20 0.30 -0.10 0.70 -0.30 0.40 -0.55 0.90 -0.50 1.10 0.15 1 -0.10 1.55 -0.80 1.55 -0.40 0 -0.65 -0.15 -0.60 -0.30z"/>
  <path d="M25.50 9.25 c0 -0.40 0.10 -0.75 0.20 -0.75 0.10 0 0.60 -0.15 1.05 -0.30 0.75 -0.30 0.75 -0.20 0.20 0.75 -0.80 1.25 -1.45 1.35 -1.45 0.30z"/>
 </g>
 <g fill="#da842e">
  <path d="M6.80 30.90 c0.40 -0.95 3.20 -3.05 3.55 -2.70 0.20 0.20 -0.40 1 -1.30 1.80 -1.70 1.55 -2.70 1.95 -2.25 0.90z"/>
  <path d="M12.25 17.90 c0.55 -0.75 1.20 -1.40 1.40 -1.40 0.75 0 0.05 1.15 -1.15 1.95 l-1.20 0.80 0.95 -1.35z"/>
  <path d="M12.50 12.50 c0 -0.90 1.60 -3 2.05 -2.75 0.20 0.15 0.30 0.60 0.15 1 -0.20 0.40 -0.50 0.65 -0.70 0.50 -0.25 -0.15 -0.55 -0.05 -0.75 0.25 -0.15 0.25 -0.05 0.50 0.25 0.50 0.30 0 0.40 0.25 0.25 0.50 -0.40 0.65 -1.25 0.65 -1.25 0z"/>
  <path d="M17.50 4.55 c0 -0.80 2.55 -2.10 3.65 -1.90 0.90 0.20 0.85 0.25 -0.25 0.30 -0.80 0 -1.65 0.50 -2 1.05 -0.65 1.05 -1.40 1.35 -1.40 0.55z"/>
 </g>
 <g fill="#91887f">
  <path d="M10 28.55 c0 -0.45 2.70 -1.55 3.70 -1.55 0.55 0.05 -2.65 1.95 -3.30 2 -0.25 0 -0.40 -0.20 -0.40 -0.45z"/>
  <path d="M28.50 25.25 c0 -0.40 0.35 -0.75 0.75 -0.75 0.40 0 0.75 0.35 0.75 0.75 0 0.40 -0.35 0.75 -0.75 0.75 -0.40 0 -0.75 -0.35 -0.75 -0.75z"/>
  <path d="M29 23.50 c0 -0.25 0.35 -0.50 0.75 -0.50 0.40 0 0.75 0.25 0.75 0.50 0 0.30 -0.35 0.50 -0.75 0.50 -0.40 0 -0.75 -0.20 -0.75 -0.50z"/>
  <path d="M21.50 20.70 c0 -0.55 0.30 -0.70 1.15 -0.45 1.90 0.60 2.15 1.25 0.45 1.25 -1.10 0 -1.60 -0.25 -1.60 -0.80z"/>
  <path d="M21.70 19.30 c-0.90 -0.70 -0.90 -0.75 0 -1.10 0.55 -0.20 1.05 -0.10 1.35 0.35 0.95 1.55 0.25 1.90 -1.35 0.75z"/>
  <path d="M27.80 18.40 c-0.40 -1.60 -0.35 -2.40 0.10 -2.40 0.45 0 1.60 2.20 1.60 3 0 1 -1.40 0.45 -1.70 -0.60z"/>
  <path d="M17.20 17.65 c-0.05 -0.50 -0.15 -1.25 -0.25 -1.65 -0.15 -0.45 0.25 -0.80 0.95 -0.90 1.05 -0.15 1.15 0 1 1.50 -0.15 1.75 -1.65 2.65 -1.70 1.05z"/>
  <path d="M20.90 16.15 c-0.95 -1.15 -0.25 -5.15 0.90 -5.15 0.40 0 0.70 0.35 0.70 0.75 0 0.40 0.25 0.75 0.55 0.75 0.30 0 0.40 0.35 0.25 0.80 -0.25 0.60 -0.10 0.75 0.50 0.50 0.40 -0.15 0.90 -0.30 1 -0.30 0.10 0 0.20 -0.35 0.20 -0.75 0 -0.40 0.35 -0.75 0.80 -0.75 1.15 0 0.60 1.10 -0.95 2 -1.10 0.60 -1.50 0.65 -2.35 0.10 -1.20 -0.75 -1.50 -0.75 -1.50 -0.10 0 0.30 0.35 0.50 0.75 0.50 0.45 0 0.75 0.45 0.75 1.25 0 1.45 -0.55 1.60 -1.60 0.40z"/>
  <path d="M24 15.80 c0 -0.55 0.45 -0.80 1.30 -0.80 1.55 0 1.40 1.15 -0.20 1.40 -0.75 0.10 -1.10 -0.10 -1.10 -0.60z"/>
  <path d="M12.50 12.25 c0 -0.45 0.30 -0.60 0.75 -0.45 0.40 0.20 0.60 0.50 0.45 0.75 -0.40 0.70 -1.20 0.50 -1.20 -0.30z"/>
  <path d="M15.40 10.80 c0.45 -1.25 0.90 -2.15 1.05 -2 0.30 0.30 -1.05 4.20 -1.45 4.20 -0.20 0 0 -1 0.40 -2.20z"/>
  <path d="M13.80 11.05 c-0.30 -0.45 0.45 -2.55 0.90 -2.55 0.25 0 -0.10 2.55 -0.35 2.85 -0.15 0.10 -0.40 0 -0.55 -0.30z"/>
  <path d="M25.50 9.25 c0 -0.30 1.40 -1.65 2.75 -2.75 0.85 -0.65 0.90 -0.65 0.50 0 -1 1.85 -3.25 3.70 -3.25 2.75z"/>
  <path d="M20 7.50 c0 -0.25 0.40 -0.50 0.90 -0.50 0.80 -0.05 0.80 -0.10 -0.10 -0.75 -1.15 -0.85 -0.65 -1.75 1 -1.75 0.65 0 1.20 -0.25 1.20 -0.55 0 -0.25 0.25 -0.35 0.50 -0.20 0.80 0.50 0.60 1.15 -0.50 1.50 -0.55 0.15 -1 0.55 -1 0.85 0 0.25 0.35 0.40 0.75 0.20 0.50 -0.20 0.75 0.05 0.75 0.70 0 0.80 -0.35 1 -1.75 1 -0.95 0 -1.75 -0.20 -1.75 -0.50z"/>
  <path d="M24 3.25 c-0.95 -1.15 -0.20 -2.65 1.30 -2.35 1.15 0.20 1.15 0.30 0.50 1.05 -0.60 0.65 -0.65 1 -0.20 1.45 0.45 0.45 0.40 0.60 -0.20 0.60 -0.40 0 -1.05 -0.35 -1.40 -0.75z"/>
 </g>
 <g fill="#a98872">
  <path d="M10.25 37.90 c0.20 -0.80 0.05 -1.45 -0.45 -1.85 -0.45 -0.40 -0.80 -0.90 -0.80 -1.20 0 -0.25 0.45 -0.10 1 0.40 1.05 0.95 1.35 3 0.50 3.50 -0.35 0.20 -0.45 -0.10 -0.25 -0.85z"/>
  <path d="M17.70 37.75 c0.05 -1.65 0.80 -1.65 0.80 0 0 0.70 -0.20 1.25 -0.45 1.25 -0.25 0 -0.40 -0.55 -0.35 -1.25z"/>
  <path d="M13.25 33.05 c-0.30 -1.45 0.80 -5.05 1.60 -5.05 0.25 0 0.20 1.45 -0.05 3.25 -0.55 3.50 -1.05 4.10 -1.55 1.80z"/>
  <path d="M17.50 33 c0 -0.90 1.60 -3 2.25 -3 0.60 0 0.20 1.40 -0.50 1.70 -0.40 0.15 -0.75 0.75 -0.75 1.30 0 0.55 -0.20 1 -0.50 1 -0.25 0 -0.50 -0.45 -0.50 -1z"/>
  <path d="M6 32.20 c0.05 -0.85 1.25 -2.05 2.45 -2.45 1.10 -0.35 1.15 -0.35 0.20 0.60 -1.60 1.55 -2.65 2.30 -2.65 1.85z"/>
  <path d="M28.60 30 c-0.80 -1.35 -0.75 -2.50 0.15 -2.50 0.50 0 0.75 0.55 0.75 1.75 0 2.05 -0.05 2.10 -0.90 0.75z"/>
  <path d="M21.35 20.95 c0.20 -0.60 0.55 -0.90 1 -0.75 0.40 0.15 0.85 0.30 0.95 0.30 0.10 0 0.20 0.35 0.20 0.75 0 0.45 -0.45 0.75 -1.20 0.75 -0.95 0 -1.15 -0.20 -0.95 -1.05z"/>
  <path d="M11.50 21.20 c0 -0.85 1.40 -2.45 1.80 -2.05 0.20 0.20 -0.10 0.85 -0.70 1.50 -0.60 0.60 -1.10 0.85 -1.10 0.55z"/>
  <path d="M12.85 17.15 c0.15 -0.50 0.45 -1.10 0.65 -1.40 0.20 -0.25 0.75 -1.60 1.25 -3 1.50 -4.25 2.90 -7.05 3.10 -6.35 0.15 0.35 0 0.95 -0.35 1.35 -0.30 0.35 -1.30 2.75 -2.15 5.30 -0.90 2.55 -1.90 4.70 -2.25 4.85 -0.40 0.10 -0.50 -0.10 -0.25 -0.75z"/>
  <path d="M17.15 16.60 c-0.45 -0.75 -0.35 -1.25 0.50 -2.65 l1.10 -1.70 0.15 1.45 c0.20 1.65 -0.25 3.80 -0.80 3.80 -0.20 0 -0.60 -0.40 -0.95 -0.90z"/>
  <path d="M21.10 16.40 c-0.90 -0.90 -0.75 -1.40 0.40 -1.40 0.65 0 1 0.35 1 1 0 1.15 -0.50 1.30 -1.40 0.40z"/>
  <path d="M24 15.80 c0 -0.50 0.45 -0.80 1.05 -0.80 1.20 0 1.05 1.15 -0.20 1.40 -0.50 0.10 -0.85 -0.15 -0.85 -0.60z"/>
  <path d="M12.20 13.80 c0.30 -1.40 0.75 -2.10 1.10 -1.95 0.50 0.20 0.50 0.55 0.10 1.55 -1.10 2.60 -1.75 2.85 -1.20 0.40z"/>
  <path d="M22.70 13.90 c-0.20 -0.30 -0.15 -0.40 0.20 -0.25 0.75 0.50 2.10 -0.15 2.10 -0.95 0 -0.40 0.35 -0.70 0.75 -0.70 1.25 0 0.85 0.90 -0.75 1.75 -1.75 0.90 -1.85 0.90 -2.30 0.15z"/>
  <path d="M21 10.80 c0 -0.95 -0.20 -1.90 -0.50 -2.05 -0.85 -0.50 -0.55 -1.60 0.50 -1.90 0.80 -0.20 1 0 1 0.95 0 0.65 0.25 1.20 0.55 1.20 0.35 0 0.45 0.50 0.25 1.25 -0.20 0.70 -0.10 1.25 0.20 1.25 0.25 0 0.50 0.25 0.50 0.50 0 0.30 -0.55 0.50 -1.25 0.50 -1.10 0 -1.25 -0.20 -1.25 -1.70z"/>
  <path d="M14.25 9 c0.55 -1.95 2.25 -4.45 3.35 -5.05 1.60 -0.85 1.60 -0.15 -0.05 1.35 -0.85 0.75 -1.55 1.55 -1.55 1.85 0 0.25 -0.50 1.05 -1.05 1.75 l-1.05 1.35 0.35 -1.25z"/>
 </g>
 <g fill="#c88959">
  <path d="M14.05 35.95 c-0.65 -1.95 -0.65 -1.95 -0.10 -1.95 0.50 0 1.30 2.90 0.90 3.30 -0.15 0.15 -0.50 -0.45 -0.80 -1.35z"/>
  <path d="M9.45 35.40 c-0.60 -1.15 -0.60 -1.15 0.50 -0.20 1.15 1.05 1.30 1.30 0.55 1.30 -0.25 0 -0.75 -0.50 -1.05 -1.10z"/>
  <path d="M21.65 33.65 c-0.40 -1.65 -0.65 -1.90 -1.80 -1.85 -1.05 0 -1.30 -0.15 -1.05 -0.75 0.20 -0.45 0.50 -1.90 0.65 -3.30 0.40 -3.40 1.65 -3.45 1.85 -0.05 0.10 1.30 0.60 3.30 1.20 4.35 1.15 2.30 1.30 3.45 0.30 3.45 -0.40 0 -0.90 -0.80 -1.15 -1.85z"/>
  <path d="M25.35 33.85 c-0.15 -0.40 -0.05 -1 0.20 -1.40 0.30 -0.50 0.45 -0.35 0.45 0.70 0 1.45 -0.25 1.75 -0.65 0.70z"/>
  <path d="M13.30 31.40 c0.75 -2.50 1.20 -3.40 1.65 -3.40 0.25 0 0.25 0.75 0 1.90 -0.25 1 -0.45 2 -0.45 2.25 0 0.20 -0.35 0.35 -0.80 0.35 -0.55 0 -0.70 -0.30 -0.40 -1.10z"/>
  <path d="M28.60 29.75 c-0.75 -1.65 -0.75 -1.75 0.15 -1.75 0.50 0 0.75 0.50 0.75 1.50 0 1.85 -0.15 1.85 -0.90 0.25z"/>
  <path d="M9.50 28.85 c0 -0.55 3.45 -2.10 3.80 -1.70 0.10 0.05 -0.75 0.65 -1.85 1.25 -1.40 0.85 -1.95 0.95 -1.95 0.45z"/>
  <path d="M16.85 28.30 c-0.30 -0.75 0.05 -1.30 0.75 -1.30 0.20 0 0.40 0.45 0.40 1 0 1.15 -0.75 1.35 -1.15 0.30z"/>
  <path d="M28.60 25.40 c0.30 -0.90 1.40 -1.05 1.40 -0.20 0 0.45 -0.35 0.80 -0.80 0.80 -0.45 0 -0.70 -0.25 -0.60 -0.60z"/>
  <path d="M16.55 23 c0.05 -3.35 0.45 -5 1.25 -5 0.95 0 0.90 1.30 -0.30 4.50 l-0.95 2.75 0 -2.25z"/>
  <path d="M23.50 22.75 c0 -1.15 0.25 -1.75 0.70 -1.75 0.95 0 1.55 2.55 0.70 3.05 -1.15 0.75 -1.40 0.50 -1.40 -1.30z"/>
  <path d="M29 23 c0 -0.55 0.35 -1 0.75 -1 0.40 0 0.75 0.45 0.75 1 0 0.55 -0.35 1 -0.75 1 -0.40 0 -0.75 -0.45 -0.75 -1z"/>
  <path d="M12.10 19.90 c0.10 -0.30 0.50 -0.70 0.80 -0.80 0.35 -0.10 0.50 0.10 0.30 0.60 -0.35 0.90 -1.40 1.10 -1.10 0.20z"/>
  <path d="M12.65 12.55 c0.05 -0.55 0.30 -0.85 0.70 -0.70 0.50 0.20 0.55 0.45 0.10 0.95 -0.75 0.95 -0.90 0.90 -0.80 -0.25z"/>
  <path d="M14.50 13.40 c0 -0.50 1.50 -3.90 1.75 -3.90 0.30 0 -0.80 3.15 -1.30 3.75 -0.25 0.25 -0.45 0.30 -0.45 0.15z"/>
  <path d="M21 11.25 c0 -1.40 0.20 -1.75 1 -1.75 1.05 0 1.45 1 0.40 1 -0.40 0.05 -0.30 0.30 0.25 0.70 1.25 0.95 1.05 1.80 -0.40 1.80 -1.10 0 -1.25 -0.20 -1.25 -1.75z"/>
  <path d="M27 7.75 c1.75 -1.85 2.30 -2.20 1.70 -1.10 -0.65 1.15 -2.35 2.85 -2.90 2.85 -0.25 0 0.25 -0.80 1.20 -1.75z"/>
  <path d="M22.70 6.25 c1.75 -0.90 1.80 -0.90 1.80 0 0 0.50 -0.50 0.75 -1.60 0.75 l-1.65 0 1.45 -0.75z"/>
  <path d="M20 5.50 c0 -0.75 2.40 -2.15 3.25 -1.80 1.10 0.40 0.90 1.05 -0.50 1.70 -1.60 0.75 -2.75 0.75 -2.75 0.10z"/>
  <path d="M23.85 3.15 c-0.60 -0.55 -0.40 -1.15 0.40 -1.15 0.40 0 0.75 0.35 0.75 0.75 0 0.80 -0.60 1 -1.15 0.40z"/>
 </g>
 <g fill="#ef9d4a">
  <path d="M22.50 21.75 c0 -1.30 0.35 -1.45 1.70 -0.95 1.35 0.50 1 2.20 -0.45 2.20 -1 0 -1.25 -0.25 -1.25 -1.25z"/>
  <path d="M16.80 19.90 c0.20 -0.90 0.40 -2.15 0.40 -2.75 0.05 -0.75 0.35 -1.15 0.95 -1.15 1 0 1.05 0.35 0.30 3.30 -0.35 1.35 -0.85 2.20 -1.30 2.20 -0.55 0 -0.65 -0.35 -0.35 -1.60z"/>
  <path d="M14.25 13.90 c0.20 -0.65 0.60 -1.35 0.90 -1.65 0.35 -0.35 0.40 -0.20 0.15 0.40 -0.15 0.50 -0.30 1.25 -0.30 1.65 0 0.40 -0.25 0.70 -0.55 0.70 -0.30 0 -0.40 -0.45 -0.20 -1.10z"/>
  <path d="M13.50 10.75 c0 -0.60 1.75 -3.75 2.10 -3.75 0.60 0 0.50 0.50 -0.35 1.30 -0.40 0.45 -0.75 1.20 -0.75 1.75 0 0.50 -0.20 0.95 -0.50 0.95 -0.25 0 -0.50 -0.10 -0.50 -0.25z"/>
  <path d="M26 9.15 c0 -0.65 1.45 -1.90 1.75 -1.55 0.15 0.15 -0.20 0.65 -0.75 1.15 -0.55 0.50 -1 0.65 -1 0.40z"/>
  <path d="M16.50 5 c0 -0.45 1.60 -1.50 2.30 -1.50 0.20 0 -0.05 0.45 -0.55 1 -0.95 1.05 -1.75 1.30 -1.75 0.50z"/>
  <path d="M21.80 4.70 c-0.30 -0.85 0.35 -1.30 1.40 -0.90 1.10 0.40 1 1.05 -0.15 1.35 -0.55 0.15 -1.10 -0.05 -1.25 -0.45z"/>
 </g>
 <g fill="#ca9a76">
  <path d="M17.90 37.50 c-0.60 -2 -0.50 -5.80 0.15 -5.15 0.25 0.25 0.45 1.85 0.35 3.45 -0.10 2.20 -0.25 2.65 -0.50 1.70z"/>
  <path d="M14.10 35.90 c-1 -3.30 -1.05 -4.20 -0.20 -6.05 l0.85 -1.95 0 4.80 c0 2.65 -0.05 4.80 -0.10 4.80 -0.05 0 -0.30 -0.75 -0.55 -1.60z"/>
  <path d="M21.85 33.90 c-0.40 -1.50 0.10 -1.85 0.95 -0.70 0.90 1.25 0.90 1.80 0 1.80 -0.35 0 -0.80 -0.50 -0.95 -1.10z"/>
  <path d="M19.90 28.75 c0.10 -0.95 0.45 -1.75 0.70 -1.75 0.30 0 0.35 0.55 0.15 1.40 -0.50 2.05 -1.10 2.30 -0.85 0.35z"/>
  <path d="M28.60 29.50 c-0.50 -0.85 -0.50 -1 0.15 -1 0.40 0 0.75 0.45 0.75 1 0 0.55 -0.05 1 -0.15 1 -0.05 0 -0.40 -0.45 -0.75 -1z"/>
  <path d="M10 28.55 c0 -0.25 0.40 -0.55 0.90 -0.70 0.45 -0.10 1.30 -0.40 1.85 -0.60 0.55 -0.20 0.25 0.10 -0.65 0.70 -1.80 1.15 -2.10 1.25 -2.10 0.60z"/>
  <path d="M28.60 25.45 c0.10 -0.30 0.40 -0.50 0.65 -0.50 0.25 0 0.55 0.20 0.65 0.50 0.10 0.30 -0.20 0.55 -0.65 0.55 -0.45 0 -0.75 -0.25 -0.65 -0.55z"/>
  <path d="M16.15 22.25 c0.45 -1.55 1.85 -2.50 1.85 -1.25 0 1 -1.20 3 -1.80 3 -0.45 0 -0.50 -0.40 -0.05 -1.75z"/>
  <path d="M21 22.45 c0 -1.25 1 -2.35 2 -2.10 1.30 0.35 1.30 1.65 0 1.65 -0.55 0 -1 0.25 -1 0.50 0 0.30 -0.20 0.50 -0.50 0.50 -0.25 0 -0.50 -0.25 -0.50 -0.55z"/>
  <path d="M11.50 21.20 c0 -0.75 1.35 -2.50 1.70 -2.15 0.20 0.15 -0.10 0.85 -0.65 1.50 -0.55 0.65 -1 0.95 -1.05 0.65z"/>
  <path d="M22.20 19.25 c-0.80 -0.60 -0.85 -0.70 -0.15 -0.75 0.45 0 0.95 0.35 1.15 0.75 0.35 0.95 0.25 0.95 -1 0z"/>
  <path d="M28.35 19.65 c-0.55 -1.05 -0.80 -3.15 -0.35 -3.15 0.40 0 2 2.50 2 3.25 0 0.40 -1.40 0.30 -1.65 -0.10z"/>
  <path d="M20.50 15 c0 -0.25 0.30 -0.50 0.70 -0.50 0.40 0 0.90 0.25 1.05 0.50 0.15 0.30 -0.15 0.50 -0.70 0.50 -0.60 0 -1.05 -0.20 -1.05 -0.50z"/>
  <path d="M22.35 13.95 c-0.45 -0.25 -1 -0.40 -1.25 -0.25 -0.20 0.10 -0.35 -0.95 -0.35 -2.35 0 -1.45 -0.20 -3 -0.45 -3.45 -0.30 -0.65 -0.20 -0.90 0.25 -0.90 0.40 0 1.35 -0.35 2.15 -0.75 1.80 -0.95 2 -0.75 1.55 1.25 -0.25 1.15 -0.50 1.45 -0.90 1.05 -0.95 -0.95 -1.40 -0.60 -0.75 0.50 0.50 0.85 0.50 1.15 0.05 1.30 -0.95 0.35 -0.80 1.15 0.15 1.15 0.60 0 0.75 0.35 0.60 1.25 -0.25 1.10 -0.10 1.25 0.80 1 0.85 -0.25 0.90 -0.20 0.30 0.20 -0.90 0.65 -1.05 0.65 -2.15 0z"/>
  <path d="M27 7.75 c0.65 -0.70 1.30 -1.15 1.40 -1 0.35 0.35 -1.45 2.25 -2.05 2.25 -0.30 0 0 -0.55 0.65 -1.25z"/>
  <path d="M20 5.55 c0 -0.80 2.40 -2.05 3.30 -1.70 0.70 0.25 0.65 0.40 -0.35 1.20 -1.25 1 -2.95 1.25 -2.95 0.50z"/>
 </g>
 <g fill="#afa094">
  <path d="M6.60 31 c0.35 -0.55 0.80 -1 1 -1 0.15 0 0.75 -0.15 1.25 -0.35 0.50 -0.20 0.20 0.25 -0.65 1 -1.90 1.60 -2.45 1.70 -1.60 0.35z"/>
  <path d="M17 28 c0 -0.55 0.25 -1 0.50 -1 0.30 0 0.50 0.45 0.50 1 0 0.55 -0.20 1 -0.50 1 -0.25 0 -0.50 -0.45 -0.50 -1z"/>
  <path d="M21.50 21 c0 -0.25 0.55 -0.50 1.25 -0.50 0.70 0 1.25 0.25 1.25 0.50 0 0.30 -0.55 0.50 -1.25 0.50 -0.70 0 -1.25 -0.20 -1.25 -0.50z"/>
  <path d="M22.40 19.45 c-0.95 -0.55 -1.20 -1.45 -0.40 -1.45 0.25 0 0.70 0.45 1 1 0.60 1.15 0.60 1.15 -0.60 0.45z"/>
  <path d="M27.60 16.95 c-0.05 -0.45 -0.25 -1.60 -0.40 -2.50 -0.20 -1.40 -0.15 -1.55 0.30 -0.80 0.30 0.45 0.45 1.60 0.35 2.50 -0.10 0.85 -0.25 1.25 -0.25 0.80z"/>
  <path d="M13.80 15.50 c0.40 -1.55 1.20 -2.50 1.20 -1.45 0 0.40 -0.35 1.20 -0.80 1.75 -0.70 0.90 -0.75 0.90 -0.40 -0.30z"/>
  <path d="M20.65 15.75 c-0.15 -0.45 -0.15 -0.90 0 -1.10 0.50 -0.50 1.85 0.30 1.85 1.10 0 1 -1.45 1 -1.85 0z"/>
  <path d="M24.10 15.90 c0.25 -0.75 2.40 -1.20 2.40 -0.50 0 0.50 -1.15 1.10 -2.10 1.10 -0.25 0 -0.40 -0.30 -0.30 -0.60z"/>
  <path d="M12 15.05 c0 -1.10 1 -3.05 1.60 -3.05 0.45 0 0.45 0.15 0 0.60 -0.35 0.35 -0.60 1 -0.60 1.45 0 0.50 -0.20 1.05 -0.50 1.20 -0.25 0.15 -0.50 0.10 -0.50 -0.20z"/>
  <path d="M23.75 13.90 c0.55 -0.30 1.20 -0.85 1.40 -1.25 0.45 -0.75 1.35 -0.90 1.35 -0.15 0 0.25 -0.65 0.80 -1.50 1.25 -1.65 0.85 -2.75 1 -1.25 0.15z"/>
  <path d="M20.75 10.90 c0 -3 0.30 -3.40 1.60 -2.15 0.60 0.65 0.65 0.90 0.15 1.55 -0.55 0.60 -0.50 0.85 0.25 1.40 1.05 0.75 0.70 1.60 -0.85 1.90 -1.10 0.20 -1.15 0.05 -1.15 -2.70z"/>
  <path d="M15.55 7.25 c-0.05 -1.35 1.30 -3.25 2.30 -3.25 0.65 0 0.55 0.30 -0.45 1.40 -0.70 0.75 -1.40 1.70 -1.55 2.10 -0.20 0.55 -0.30 0.45 -0.30 -0.25z"/>
  <path d="M22.50 4.25 c0 -0.45 0.30 -0.60 0.75 -0.45 0.40 0.20 0.60 0.50 0.45 0.75 -0.40 0.70 -1.20 0.50 -1.20 -0.30z"/>
  <path d="M23.65 2.70 c-0.35 -1 0.55 -1.90 1.60 -1.55 0.65 0.30 0.65 0.50 0.15 1.35 -0.75 1.20 -1.35 1.30 -1.75 0.20z"/>
 </g>
 <g fill="#e9a86d">
  <path d="M22 33.90 c0.05 -1.55 0.05 -1.60 0.75 -0.65 0.85 1.05 0.75 1.85 -0.15 2.15 -0.40 0.10 -0.60 -0.40 -0.60 -1.50z"/>
  <path d="M7 30.80 c0 -0.45 0.35 -0.80 0.75 -0.80 0.40 0 0.95 -0.45 1.25 -1 0.30 -0.55 0.75 -1 1 -1 1 0 0.45 0.90 -1.25 2.20 -1.35 1.05 -1.75 1.15 -1.75 0.60z"/>
  <path d="M20 27.50 c0 -0.55 0.25 -1 0.50 -1 0.30 0 0.50 0.45 0.50 1 0 0.55 -0.20 1 -0.50 1 -0.25 0 -0.50 -0.45 -0.50 -1z"/>
  <path d="M15.60 26.35 c-0.55 -0.60 -0.50 -1.10 0.15 -2.60 0.40 -1.05 0.75 -2.30 0.75 -2.80 0 -0.55 0.35 -0.95 0.80 -0.95 0.85 0 0.85 0.15 -0.40 4.70 -0.60 2.05 -0.80 2.30 -1.30 1.65z"/>
  <path d="M22.50 23.25 c0 -0.90 -0.20 -1.15 -0.75 -0.95 -0.85 0.35 -0.90 0.15 -0.45 -1 0.35 -0.95 2 -1.05 2.90 -0.15 1.55 1.55 1.15 3.35 -0.80 3.35 -0.60 0 -0.90 -0.40 -0.90 -1.25z"/>
  <path d="M29 21.60 c0 -0.75 -0.25 -1.65 -0.60 -2 -0.45 -0.45 -0.35 -0.60 0.45 -0.60 0.65 0 1.15 0.40 1.35 1.15 0.50 1.85 0.35 2.85 -0.45 2.85 -0.50 0 -0.75 -0.50 -0.75 -1.40z"/>
  <path d="M12.10 20.30 c0.30 -0.70 0.75 -1.30 1 -1.30 0.50 0 -0.35 1.80 -1.10 2.25 -0.30 0.20 -0.25 -0.25 0.10 -0.95z"/>
  <path d="M13 16.95 c0.35 -0.55 0.70 -0.90 0.85 -0.75 0.40 0.40 -0.25 1.80 -0.85 1.80 -0.35 0 -0.35 -0.30 0 -1.05z"/>
  <path d="M21.35 13.15 c-0.65 -0.60 -0.35 -2.55 0.45 -2.85 0.45 -0.15 0.60 -0.10 0.45 0.25 -0.20 0.30 0.05 0.80 0.55 1.15 0.45 0.35 0.70 0.90 0.50 1.20 -0.40 0.65 -1.45 0.80 -1.95 0.25z"/>
  <path d="M15.80 10 c0.35 -1.40 0.60 -1.75 0.90 -1.45 0.10 0.10 -0.10 0.75 -0.50 1.45 l-0.75 1.25 0.35 -1.25z"/>
  <path d="M26.95 8.15 c0.60 -1.20 1.55 -1.95 1.55 -1.25 0 0.25 -0.50 0.85 -1.05 1.40 -1.10 0.95 -1.10 0.95 -0.50 -0.15z"/>
  <path d="M20 5.50 c0 -0.75 2.75 -2 3.45 -1.55 0.45 0.30 0.25 0.65 -0.65 1.20 -1.40 0.95 -2.80 1.10 -2.80 0.35z"/>
 </g>
 <g fill="#d2b198">
  <path d="M10 36.25 c-0.35 -0.45 -0.55 -0.90 -0.40 -1 0.15 -0.15 0.55 0.05 0.90 0.50 0.35 0.45 0.55 0.90 0.40 1 -0.15 0.15 -0.55 -0.05 -0.90 -0.50z"/>
  <path d="M17.55 34.75 c0 -1.90 0.10 -2.25 0.45 -1.40 0.25 0.60 0.25 1.70 0 2.50 -0.35 1.20 -0.40 1.05 -0.45 -1.10z"/>
  <path d="M13.60 32.50 c0 -0.95 0.10 -1.35 0.25 -0.85 0.10 0.45 0.10 1.25 0 1.75 -0.15 0.45 -0.25 0.05 -0.25 -0.90z"/>
  <path d="M9.10 29.15 c0.10 -0.50 0.55 -0.95 1.05 -1.05 1.15 -0.25 1.05 0.50 -0.20 1.30 -0.90 0.60 -1 0.55 -0.85 -0.25z"/>
  <path d="M28.60 29.40 c-0.85 -0.85 -0.75 -2.40 0.15 -2.40 0.50 0 0.75 0.50 0.75 1.50 0 1.70 -0.05 1.75 -0.90 0.90z"/>
  <path d="M15.45 26.35 c-0.65 -0.40 -0.70 -0.75 -0.25 -1.65 0.85 -1.80 1.85 -1.50 1.45 0.45 -0.35 1.95 -0.25 1.85 -1.20 1.20z"/>
  <path d="M12 20.75 c0 -0.75 0.90 -2 1.20 -1.70 0.15 0.15 -0.05 0.70 -0.45 1.25 -0.40 0.50 -0.70 0.75 -0.75 0.45z"/>
  <path d="M28.85 20.10 c-0.90 -0.95 -1.15 -2.60 -0.45 -2.60 0.60 0 1.75 2.30 1.50 3 -0.10 0.35 -0.50 0.25 -1.05 -0.40z"/>
  <path d="M21.10 16.40 c-0.90 -0.90 -0.70 -1.40 0.40 -1.40 0.55 0 1 0.30 1 0.70 0 1.05 -0.75 1.35 -1.40 0.70z"/>
  <path d="M21 11.50 c0 -0.55 0.25 -1 0.55 -1 0.30 0 0.05 -0.60 -0.55 -1.35 l-1.10 -1.40 1.35 -0.15 c0.75 -0.10 1.65 0.10 1.95 0.40 0.40 0.40 0.35 0.45 -0.30 0.25 -0.50 -0.20 -0.90 -0.15 -0.90 0.15 0 0.30 0.30 0.60 0.65 0.75 0.45 0.15 0.45 0.40 -0.15 1.05 -0.65 0.80 -0.60 1 0.25 1.60 0.90 0.65 0.85 0.70 -0.40 0.70 -1 0 -1.35 -0.25 -1.35 -1z"/>
 </g>
 <g fill="#eabd84">
  <path d="M28.50 29.05 c-0.70 -1.35 -0.65 -2.05 0.25 -2.05 0.50 0 0.75 0.50 0.75 1.50 0 1.75 -0.25 1.90 -1 0.55z"/>
  <path d="M15 26 c-0.40 -0.25 -0.50 -0.50 -0.20 -0.50 0.35 0 0.70 -0.50 0.85 -1.10 0.15 -0.65 0.60 -2.55 1.05 -4.25 0.45 -1.70 0.65 -3.45 0.50 -3.90 -0.20 -0.50 0 -0.75 0.75 -0.75 0.60 0 1.05 0.30 1.05 0.60 0 1.05 -2.70 10.40 -3 10.40 -0.15 0 -0.60 -0.25 -1 -0.50z"/>
  <path d="M21.80 23.55 c-1.20 -1.30 -0.65 -3.05 0.90 -3.05 0.90 0 1.25 0.35 1.50 1.55 0.50 2.55 -0.75 3.30 -2.40 1.50z"/>
  <path d="M29 22.80 c0 -0.85 0.25 -1.30 0.80 -1.30 0.50 0 0.70 0.35 0.60 1.10 -0.25 1.60 -1.40 1.75 -1.40 0.20z"/>
  <path d="M13.25 16.65 c0.20 -0.50 0.50 -1.30 0.60 -1.75 0.15 -0.50 0.45 -0.90 0.65 -0.90 0.25 0 0.15 0.80 -0.15 1.75 -0.30 0.95 -0.75 1.75 -1 1.75 -0.25 0 -0.30 -0.40 -0.10 -0.85z"/>
  <path d="M27.25 15.20 c-0.30 -1.65 -0.05 -2.70 0.45 -2.15 0.50 0.50 0.85 3.95 0.40 3.95 -0.25 0 -0.65 -0.80 -0.85 -1.80z"/>
  <path d="M20.90 12.15 c0.25 -1.30 0.50 -1.40 1.80 -0.40 1.10 0.85 0.65 1.75 -0.90 1.65 -0.90 -0.10 -1.10 -0.35 -0.90 -1.25z"/>
  <path d="M21.10 9 c-1.35 -1.25 -1.40 -2 -0.20 -2 0.45 0 1.45 -0.35 2.25 -0.70 1.45 -0.80 1.50 -0.70 1.05 1.10 -0.25 0.85 -0.55 1.05 -1.25 0.85 -0.55 -0.20 -0.95 -0.10 -0.95 0.20 0 0.30 0.25 0.55 0.50 0.55 0.30 0 0.50 0.25 0.50 0.50 0 0.80 -0.70 0.60 -1.90 -0.50z"/>
  <path d="M14.85 7.45 c0.30 -1.10 1.15 -1.30 1.15 -0.25 0 0.40 -0.30 0.80 -0.70 0.95 -0.50 0.20 -0.60 0 -0.45 -0.70z"/>
  <path d="M20 5.60 c0 -0.20 0.65 -0.75 1.45 -1.25 1.70 -1 2.75 -0.25 1.25 0.90 -1.05 0.80 -2.70 1 -2.70 0.35z"/>
 </g>
 <g fill="#f9d598">
  <path d="M28.35 28.40 c-0.35 -1.25 -0.15 -1.65 0.60 -1.15 0.65 0.40 0.75 2.25 0.10 2.25 -0.25 0 -0.55 -0.50 -0.70 -1.10z"/>
  <path d="M15.45 25.15 c0.80 -1.45 2 -7.95 1.70 -9.10 -0.20 -0.80 -0.05 -1.05 0.80 -1.05 1.20 0 1.25 0.40 0.55 3.25 -1.50 5.70 -2.25 7.75 -2.85 7.75 -0.45 0 -0.55 -0.25 -0.20 -0.85z"/>
  <path d="M22.10 23.90 c-0.80 -0.95 -0.15 -3.50 0.85 -3.30 0.55 0.10 0.80 0.70 0.80 1.85 0 1.85 -0.75 2.50 -1.65 1.45z"/>
  <path d="M29.10 22.40 c0.15 -1 -0.05 -2.10 -0.50 -2.85 -0.75 -1.10 -0.70 -1.15 0.15 -1 1.10 0.25 1.95 2.55 1.55 4.20 -0.50 1.90 -1.45 1.55 -1.20 -0.35z"/>
  <path d="M13 17.30 c0 -0.40 0.25 -0.90 0.50 -1.05 0.30 -0.15 0.50 0.05 0.50 0.45 0 0.40 -0.20 0.90 -0.50 1.05 -0.25 0.15 -0.50 -0.05 -0.50 -0.45z"/>
  <path d="M27.50 16.30 c0 -0.65 -0.15 -1.55 -0.30 -2 -0.15 -0.45 -0.10 -0.80 0.15 -0.80 0.25 0 0.70 0.90 1 2 0.40 1.60 0.40 2 -0.15 2 -0.40 0 -0.70 -0.50 -0.70 -1.20z"/>
  <path d="M20.90 12.25 c0.15 -1 0.35 -1.05 1.40 -0.55 1.50 0.70 1.30 1.55 -0.40 1.60 -1 0.05 -1.20 -0.15 -1 -1.05z"/>
  <path d="M22 9.50 c0 -0.25 -0.30 -0.50 -0.70 -0.50 -0.40 0 -0.85 -0.35 -1 -0.80 -0.50 -1.35 0.10 -1.45 1.15 -0.15 1 1.15 1.30 1.95 0.80 1.95 -0.15 0 -0.25 -0.20 -0.25 -0.50z"/>
  <path d="M26.85 8 c0.45 -0.55 0.95 -0.85 1.05 -0.75 0.30 0.30 -0.90 1.75 -1.45 1.75 -0.25 0 -0.05 -0.45 0.40 -1z"/>
  <path d="M15 7.50 c0 -0.95 1.60 -3 2.35 -3 0.50 0 0.40 0.30 -0.35 1.10 -0.55 0.60 -1 1.40 -1 1.75 0 0.35 -0.20 0.65 -0.50 0.65 -0.25 0 -0.50 -0.25 -0.50 -0.50z"/>
  <path d="M23.10 7.15 c0.10 -0.45 0.40 -0.90 0.75 -1 0.35 -0.15 0.45 0.15 0.30 0.80 -0.30 1.25 -1.30 1.40 -1.05 0.20z"/>
  <path d="M20.75 5 c0.50 -0.55 1.35 -1 1.90 -1 0.95 0 1 0.05 0.10 1 -0.50 0.55 -1.35 1 -1.90 1 -0.95 0 -1 -0.05 -0.10 -1z"/>
 </g>
 <g fill="#cdcdcc">
  <path d="M6.50 31.70 c0 -0.85 0.90 -1.80 1.50 -1.60 0.35 0.10 0.20 0.50 -0.45 1.10 -0.60 0.55 -1.05 0.75 -1.05 0.50z"/>
  <path d="M17.20 18.40 c0.35 -1.70 0.65 -2.20 1.05 -1.80 0.45 0.40 -0.35 3.40 -0.85 3.40 -0.30 0 -0.40 -0.65 -0.20 -1.60z"/>
  <path d="M20.65 15.75 c-0.15 -0.45 -0.15 -0.90 -0.05 -1.05 0.45 -0.45 1.90 0.40 1.90 1.10 0 0.95 -1.45 0.90 -1.85 -0.05z"/>
  <path d="M24.50 15.75 c0 -0.45 0.45 -0.75 1.05 -0.75 0.90 0 0.95 0.10 0.45 0.75 -0.35 0.40 -0.80 0.75 -1.05 0.75 -0.25 0 -0.45 -0.35 -0.45 -0.75z"/>
  <path d="M20.85 13.10 c0.05 -0.40 0.15 -0.80 0.15 -0.90 0 -0.60 1.45 -0.10 1.70 0.60 0.25 0.65 0.10 0.75 -0.65 0.55 -0.55 -0.15 -1.10 -0.10 -1.20 0.10 -0.10 0.15 -0.10 0 0 -0.35z"/>
  <path d="M25.10 12.90 c0.25 -0.75 1.40 -1.15 1.40 -0.50 0 0.25 -0.35 0.65 -0.80 0.80 -0.50 0.20 -0.70 0.05 -0.60 -0.30z"/>
  <path d="M16 5.50 c0.95 -1.35 2 -2 2 -1.25 0 0.40 -2.40 2.75 -2.75 2.75 -0.20 0 0.15 -0.65 0.75 -1.50z"/>
  <path d="M23.50 2.30 c0 -0.95 0.70 -1.40 1.70 -1 0.65 0.25 0.70 0.45 0.25 1 -0.75 0.90 -1.95 0.90 -1.95 0z"/>
 </g>
 <g fill="#e7d2bb">
  <path d="M6.50 31.65 c0 -0.65 1.45 -1.90 1.75 -1.55 0.15 0.15 -0.20 0.65 -0.75 1.15 -0.55 0.50 -1 0.65 -1 0.40z"/>
  <path d="M9 29.65 c0.05 -0.95 0.95 -1.75 1.80 -1.55 0.75 0.15 0.70 0.30 -0.45 1.05 -0.75 0.50 -1.35 0.70 -1.35 0.50z"/>
  <path d="M15.10 26.05 c-0.55 -0.35 -0.55 -0.45 0.10 -0.70 0.45 -0.20 0.80 -0.65 0.80 -1.10 0 -0.40 0.20 -0.75 0.40 -0.75 0.25 0 0.35 0.70 0.20 1.50 -0.25 1.60 -0.45 1.75 -1.50 1.05z"/>
  <path d="M28.50 25.50 c0 -0.25 0.35 -0.50 0.75 -0.50 0.40 0 0.75 0.25 0.75 0.50 0 0.30 -0.35 0.50 -0.75 0.50 -0.40 0 -0.75 -0.20 -0.75 -0.50z"/>
  <path d="M21.85 23.60 c-1.05 -1.15 -0.60 -3.10 0.70 -3.10 0.95 0 1.15 0.45 0.95 2.25 -0.15 1.55 -0.75 1.85 -1.65 0.85z"/>
  <path d="M29 22.80 c0 -0.70 0.25 -1.40 0.50 -1.55 0.30 -0.20 0.50 0.35 0.50 1.20 0 0.85 -0.20 1.55 -0.50 1.55 -0.25 0 -0.50 -0.55 -0.50 -1.20z"/>
  <path d="M27.80 17.90 c-0.40 -1.55 -0.35 -1.90 0.15 -1.90 0.25 0 0.70 0.70 1 1.50 0.40 1.20 0.35 1.50 -0.15 1.50 -0.40 0 -0.80 -0.50 -1 -1.10z"/>
  <path d="M13 17.05 c0 -0.30 0.25 -0.65 0.50 -0.80 0.30 -0.15 0.50 -0.75 0.50 -1.30 0 -0.50 0.20 -0.95 0.45 -0.95 0.25 0 0.20 0.75 -0.10 1.75 -0.45 1.60 -1.35 2.40 -1.35 1.30z"/>
  <path d="M24.25 16 c-0.15 -0.30 0.05 -0.65 0.50 -0.80 0.95 -0.40 1.50 0 1 0.75 -0.40 0.70 -1.10 0.70 -1.50 0.05z"/>
  <path d="M12.25 14.45 c0.50 -1.75 1.15 -2.25 0.90 -0.75 -0.15 0.75 -0.50 1.45 -0.75 1.60 -0.30 0.20 -0.35 -0.10 -0.15 -0.85z"/>
  <path d="M21.35 13.20 c-0.70 -0.70 -0.30 -1.20 0.95 -1.20 0.80 0 1.20 0.25 1.10 0.65 -0.25 0.70 -1.55 1.05 -2.05 0.55z"/>
  <path d="M16 9.45 c0 -0.40 0.50 -1.25 1.05 -1.95 l1 -1.25 -0.85 1.75 c-1 2.15 -1.20 2.35 -1.20 1.45z"/>
  <path d="M15 7.35 c0 -0.40 0.45 -1.10 1 -1.60 0.55 -0.50 1 -0.65 1 -0.35 0 0.35 -0.20 0.60 -0.50 0.60 -0.25 0 -0.50 0.45 -0.50 1 0 0.55 -0.20 1 -0.50 1 -0.25 0 -0.50 -0.30 -0.50 -0.65z"/>
 </g>
 <g fill="#fee8b0">
  <path d="M7 30.75 c0.35 -0.40 0.85 -0.75 1.10 -0.75 0.30 0 0.25 0.35 -0.10 0.75 -0.35 0.40 -0.85 0.75 -1.10 0.75 -0.30 0 -0.25 -0.35 0.10 -0.75z"/>
  <path d="M17 27.75 c0 -0.40 0.25 -0.75 0.50 -0.75 0.30 0 0.50 0.35 0.50 0.75 0 0.40 -0.20 0.75 -0.50 0.75 -0.25 0 -0.50 -0.35 -0.50 -0.75z"/>
  <path d="M15.25 26 c-0.75 -0.30 -0.80 -0.45 -0.20 -0.45 0.85 -0.05 2 -4.70 2.15 -8.80 0.10 -2.10 0.55 -3.25 1.35 -3.25 0.90 0 0.60 2 -1.45 9 -0.40 1.50 -0.75 3 -0.75 3.35 0 0.35 -0.05 0.65 -0.05 0.60 -0.05 0 -0.50 -0.20 -1.05 -0.45z"/>
  <path d="M21.50 23.20 c-0.55 -0.65 -0.50 -0.95 0.45 -1.85 1.25 -1.30 2.05 -0.60 1.65 1.45 -0.25 1.35 -1.20 1.55 -2.10 0.40z"/>
  <path d="M29 23.15 c0 -0.50 0.25 -1.25 0.50 -1.65 0.35 -0.55 0.50 -0.35 0.50 0.90 0 0.85 -0.20 1.60 -0.50 1.60 -0.25 0 -0.50 -0.40 -0.50 -0.85z"/>
  <path d="M29.15 20.10 c-0.60 -0.35 -1.65 -2.75 -1.65 -3.65 0 -1.05 0.80 -0.30 1.70 1.60 0.95 2.10 0.95 2.65 -0.05 2.05z"/>
  <path d="M27.25 14.35 c-0.20 -0.50 -0.25 -1.05 -0.05 -1.20 0.50 -0.50 0.90 0.20 0.65 1.20 -0.20 0.85 -0.20 0.85 -0.60 0z"/>
  <path d="M20.60 5.40 c0.30 -0.80 1.80 -1.70 2.20 -1.25 0.45 0.45 -0.75 1.85 -1.65 1.85 -0.40 0 -0.65 -0.25 -0.55 -0.60z"/>
 </g>
 <g fill="#f9eed3">
  <path d="M9.50 28.75 c0.35 -0.40 1 -0.75 1.45 -0.75 0.65 0.05 0.65 0.15 -0.15 0.75 -1.30 0.95 -2.10 0.95 -1.30 0z"/>
  <path d="M21.50 22.55 c0 -1.05 1.25 -2.30 1.70 -1.65 0.45 0.75 -0.25 2.60 -1 2.60 -0.40 0 -0.70 -0.40 -0.70 -0.95z"/>
  <path d="M29 22.80 c0 -0.40 0.25 -0.90 0.50 -1.05 0.30 -0.15 0.50 0.15 0.50 0.70 0 0.60 -0.20 1.05 -0.50 1.05 -0.25 0 -0.50 -0.30 -0.50 -0.70z"/>
  <path d="M16.75 19.95 c0.60 -1.95 1.35 -2.40 1.15 -0.75 -0.10 0.80 -0.45 1.55 -0.85 1.70 -0.50 0.15 -0.55 -0.10 -0.30 -0.95z"/>
  <path d="M28 18.20 c-0.75 -1.85 -0.60 -2.10 0.50 -0.75 1.10 1.30 1.30 2.05 0.50 2.05 -0.30 0 -0.75 -0.60 -1 -1.30z"/>
  <path d="M17.25 16.50 c-0.40 -0.70 0.65 -3.50 1.35 -3.50 0.30 0 0.40 0.65 0.20 1.60 -0.40 1.90 -1.05 2.70 -1.55 1.90z"/>
  <path d="M24.50 15.80 c0 -0.45 0.35 -0.80 0.80 -0.80 0.85 0 0.70 1.10 -0.20 1.40 -0.35 0.10 -0.60 -0.15 -0.60 -0.60z"/>
  <path d="M22 13 c-0.60 -0.40 -0.60 -0.50 0.15 -0.80 1.05 -0.40 1.75 0.10 1.05 0.80 -0.25 0.25 -0.75 0.30 -1.20 0z"/>
  <path d="M15 7.70 c0 -0.95 2.20 -3.70 2.90 -3.70 0.65 0 0.50 0.30 -0.50 1.20 -0.80 0.65 -1.40 1.55 -1.40 2 0 0.45 -0.20 0.80 -0.50 0.80 -0.25 0 -0.50 -0.15 -0.50 -0.30z"/>
  <path d="M20.50 5.50 c0 -0.25 0.35 -0.50 0.75 -0.50 0.40 0 0.75 0.25 0.75 0.50 0 0.30 -0.35 0.50 -0.75 0.50 -0.40 0 -0.75 -0.20 -0.75 -0.50z"/>
 </g>
 <g fill="#fdfdf0">
  <path d="M21.75 23.50 c-0.40 -0.65 0.20 -2.50 0.80 -2.50 0.25 0 0.45 0.70 0.45 1.50 0 1.50 -0.65 2 -1.25 1z"/>
  <path d="M16.90 19.75 c0.10 -0.70 0.40 -1.40 0.65 -1.55 0.75 -0.45 0.50 1.65 -0.25 2.25 -0.55 0.45 -0.60 0.30 -0.40 -0.70z"/>
  <path d="M21.75 18.95 c-0.20 -0.30 -0.25 -0.65 -0.10 -0.80 0.35 -0.35 1.35 0.30 1.35 0.90 0 0.60 -0.85 0.60 -1.25 -0.10z"/>
  <path d="M28 18.25 c0 -0.40 0.25 -0.75 0.50 -0.75 0.30 0 0.50 0.35 0.50 0.75 0 0.40 -0.20 0.75 -0.50 0.75 -0.25 0 -0.50 -0.35 -0.50 -0.75z"/>
  <path d="M17 15.90 c0.05 -0.70 1.20 -2.40 1.65 -2.40 0.15 0 0.05 0.70 -0.20 1.50 -0.55 1.50 -1.45 2.05 -1.45 0.90z"/>
  <path d="M20.75 15.95 c-0.20 -0.30 -0.20 -0.65 -0.05 -0.80 0.40 -0.40 1.80 0.25 1.80 0.85 0 0.65 -1.35 0.65 -1.75 -0.05z"/>
  <path d="M24.60 15.95 c0.10 -0.35 0.50 -0.75 0.85 -0.85 0.40 -0.15 0.60 0.05 0.45 0.45 -0.10 0.35 -0.50 0.75 -0.85 0.85 -0.40 0.15 -0.60 -0.05 -0.45 -0.45z"/>
  <path d="M16.50 5 c0.30 -0.55 0.75 -1 1 -1 0.85 0 0.55 0.75 -0.55 1.40 -0.95 0.60 -0.95 0.55 -0.45 -0.40z"/>
  <path d="M23.70 2.45 c-0.40 -0.70 0.55 -1.65 1.25 -1.25 0.55 0.35 0.20 1.80 -0.45 1.80 -0.25 0 -0.60 -0.25 -0.80 -0.55z"/>
 </g>
</svg>