<?xml version="1.0" encoding="utf-8"?>
<!DOCTYPE svg PUBLIC "-//W3C//DTD SVG 1.0//EN" "http://www.w3.org/TR/2001/REC-SVG-20010904/DTD/svg10.dtd">
<svg version="1.0" xmlns="http://www.w3.org/2000/svg" width="40px" height="40px" viewBox="0 0 40 40" preserveAspectRatio="xMidYMid meet">
 <g fill="#090200">
  <path d="M14.30 38.40 c-0.15 -0.85 -0.15 -2.65 0 -4 0.30 -2.35 0.40 -2.40 2 -2.40 1.65 0 1.70 0.05 1.70 2.15 0 1.15 0.15 2.95 0.30 4 l0.35 1.85 -2 0 c-1.85 0 -2.05 -0.10 -2.35 -1.60z"/>
  <path d="M19 36.50 l0 -3.50 1.70 0 c1.30 0 1.80 0.25 2.05 1 0.15 0.55 0.55 1 0.80 1 0.25 0 0.70 -0.45 1.05 -1 0.45 -0.65 1.20 -1 2.25 -1 1.55 0 1.65 0.10 1.65 1.70 0 0.95 0.25 1.80 0.55 1.90 0.40 0.15 0.45 0.75 0.20 1.80 -0.30 1.35 -0.55 1.60 -1.80 1.60 -0.95 0 -1.45 -0.25 -1.45 -0.75 0 -0.40 -0.25 -0.75 -0.50 -0.75 -0.30 0 -0.65 0.35 -0.80 0.75 -0.25 0.55 -1.05 0.75 -3 0.75 l-2.70 0 0 -3.50z"/>
  <path d="M8.25 36.70 c-1.55 -1.70 -1.60 -2.70 -0.10 -2.70 1.45 0 2.85 1.45 2.85 2.90 0 1.50 -1.25 1.40 -2.75 -0.20z"/>
  <path d="M6.60 31.75 c-0.50 -0.60 -0.20 -1.05 1.95 -2.75 1.65 -1.30 3.05 -2 4.05 -2 1.40 0 1.45 0.10 1.30 1.85 -0.15 1.75 -0.25 1.90 -1.90 2 -0.95 0.10 -2 0.50 -2.30 0.90 -0.70 0.95 -2.25 0.95 -3.10 0z"/>
  <path d="M15.50 29.50 l0 -2 2 0 2 0 0 2 0 2 -2 0 -2 0 0 -2z"/>
  <path d="M26.50 26.25 c0 -1.40 -0.20 -1.75 -1 -1.75 -1 0 -1.35 -0.80 -1.60 -3.75 -0.10 -1 -0.55 -1.65 -1.25 -2 -0.85 -0.35 -1.15 -0.90 -1.15 -2.10 0 -1.50 0.15 -1.65 1.45 -1.65 0.85 0 1.65 -0.20 1.80 -0.50 0.15 -0.25 1.10 -0.50 2.05 -0.50 1.60 0 1.70 0.10 1.70 1.75 0 1.90 -1.20 2.50 -1.70 0.90 -0.15 -0.50 -0.15 0.45 0 2.10 0.10 1.65 0.45 3.20 0.70 3.45 0.30 0.30 0.50 0.90 0.50 1.40 0 0.55 0.35 0.90 1 0.90 0.80 0 1 0.35 1 1.75 0 1.65 -0.10 1.75 -1.75 1.75 -1.65 0 -1.75 -0.10 -1.75 -1.75z"/>
  <path d="M17 24.70 c0 -1 0.20 -1.65 0.50 -1.45 0.25 0.15 1.05 -0.60 1.80 -1.75 0.80 -1.20 1.70 -2 2.35 -2 0.90 0 0.95 0.25 0.70 2.35 -0.15 1.30 -0.60 2.60 -1.05 2.90 -0.45 0.35 -0.80 0.85 -0.80 1.20 0 0.30 -0.75 0.55 -1.75 0.55 -1.65 0 -1.75 -0.10 -1.75 -1.80z"/>
  <path d="M13.50 15.55 c0 -3.35 2.95 -10.30 4.60 -10.85 0.50 -0.15 0.90 -0.70 0.90 -1.20 0 -1.40 3.50 -2.25 3.50 -0.85 0 0.30 0.40 -0.15 0.80 -1.05 0.60 -1.10 1.15 -1.60 2 -1.60 1.55 0 1.95 0.85 0.90 2.05 -0.50 0.55 -0.60 0.95 -0.30 0.95 0.95 0 0.70 0.85 -0.30 1.10 -0.75 0.20 -0.90 0.60 -0.70 1.85 0.25 1.75 1.45 2.60 2.10 1.50 0.75 -1.20 1.20 0 0.50 1.30 -0.55 1 -1.05 1.25 -2.60 1.25 l-1.90 0 0 -2.80 c0 -2.55 -0.05 -2.70 -0.80 -1.95 -0.55 0.50 -0.70 1.20 -0.45 2.10 0.15 0.70 0.15 2.50 -0.05 3.95 -0.30 2.40 -0.45 2.70 -1.50 2.70 -0.80 0 -1.40 0.50 -1.95 1.55 -0.65 1.15 -0.95 1.40 -1.45 0.95 -0.50 -0.40 -0.75 -0.30 -0.95 0.50 -0.15 0.60 -0.65 1 -1.30 1 -0.90 0 -1.05 -0.30 -1.05 -2.45z"/>
 </g>
 <g fill="#201007">
  <path d="M8.50 39.60 c0 -0.20 0.25 -0.65 0.55 -0.95 0.35 -0.35 0.05 -1 -1 -2.20 -1.85 -2 -1.95 -2.95 -0.35 -2.95 1.35 0 3.80 2.55 3.80 3.95 0 0.45 -0.45 1.20 -1 1.70 -1.05 0.90 -2 1.10 -2 0.45z"/>
  <path d="M14.30 38.45 c-0.15 -0.85 -0.30 -2.80 -0.30 -4.30 0 -2.25 -0.15 -2.70 -0.75 -2.45 -0.45 0.15 -0.75 0 -0.75 -0.45 0 -0.55 -0.35 -0.60 -1.60 -0.20 -2 0.55 -1.90 0.55 -1.90 0 0 -0.25 0.80 -0.80 1.80 -1.30 1 -0.45 1.65 -0.95 1.50 -1.10 -0.15 -0.15 -0.85 0.10 -1.55 0.55 -1.50 1 -2.65 0.60 -1.70 -0.55 1 -1.15 3.25 -2.15 5 -2.15 1.50 0 1.55 0.05 1.35 2 -0.10 1.10 0 2 0.20 2 0.25 0 0.40 -0.45 0.40 -1 0 -0.80 0.35 -1 1.75 -1 1.65 0 1.75 0.10 1.75 1.75 0 0.95 -0.20 1.75 -0.50 1.75 -0.30 0 -0.50 1.65 -0.50 4 0 3.10 -0.15 4 -0.70 4 -1 0 -1.45 -1.35 -1.40 -4.25 0 -2.45 0 -2.40 -0.55 0.90 -0.55 3.65 -1.05 4.25 -1.55 1.80z"/>
  <path d="M19.30 38.90 c-0.15 -0.65 -0.30 -2.35 -0.30 -3.75 0 -2.65 0 -2.65 1.55 -2.65 0.90 0 1.85 0.35 2.20 0.85 1.70 2.35 3.15 -1.65 2.25 -6.30 -0.80 -4.35 -0.70 -5.50 0.65 -5.45 1.50 0.10 2.35 0.80 2.40 2.10 0.05 0.55 0.20 0.25 0.40 -0.70 0.30 -1.60 -0.30 -4.55 -1.10 -5.30 -0.20 -0.20 -0.35 -0.80 -0.35 -1.30 0 -0.90 -0.05 -0.90 -1.20 -0.05 l-1.20 0.90 1.05 1.15 1 1.10 -3 0 c-2.85 0 -3 -0.05 -2.80 -1.15 0.10 -0.60 -0.10 -1.75 -0.55 -2.55 l-0.75 -1.45 -0.30 1.30 c-0.35 1.25 -1.75 1.95 -1.75 0.85 0 -0.25 -0.35 -0.50 -0.75 -0.50 -0.40 0 -0.75 0.35 -0.75 0.75 0 0.50 -0.50 0.75 -1.50 0.75 -1.20 0 -1.50 -0.20 -1.50 -1 0 -0.90 -0.15 -0.95 -1.05 -0.50 -0.95 0.55 -1 0.50 -0.45 -0.50 0.30 -0.55 1.15 -1.15 1.90 -1.30 1.25 -0.25 1.35 -0.50 1.40 -2.60 0 -1.30 0.35 -3 0.70 -3.85 0.70 -1.45 0.80 -1.95 0.95 -3.05 0.15 -1.35 6.05 -3.55 6.05 -2.20 0 0.30 0.25 0.50 0.50 0.50 0.30 0 0.45 -0.25 0.40 -0.60 -0.10 -0.30 0.20 -0.65 0.65 -0.75 0.55 -0.15 0.90 0.20 1.05 1.10 0.15 0.70 0.10 1.25 -0.05 1.25 -0.15 0 -0.30 1 -0.30 2.20 0 1.20 0.15 2 0.30 1.70 0.20 -0.35 0.45 -0.30 0.65 0.05 0.20 0.30 0.60 0.40 0.90 0.25 0.40 -0.25 0.45 0.05 0.25 0.85 -0.20 0.65 -0.35 1.35 -0.35 1.60 0 0.20 -0.80 0.35 -1.75 0.35 l-1.75 0 0 -2.75 c0 -1.50 -0.20 -2.75 -0.50 -2.75 -0.30 0 -0.50 1.35 -0.50 3 0 2.85 -0.05 3 -1.25 3 -0.70 0 -1.25 0.25 -1.25 0.50 0 0.30 0.45 0.50 1 0.50 0.65 0 1 0.35 1 1 0 1.50 2.35 1.40 2.60 -0.10 0.10 -0.90 0.50 -1.20 1.95 -1.30 1.80 -0.15 1.85 -0.10 2.10 1.75 0.10 1.05 0.80 3.30 1.55 4.95 1.15 2.80 1.25 3.35 0.80 5.75 -0.30 1.50 -0.75 2.80 -1 2.85 -0.30 0.10 -0.50 2.10 -0.50 4.45 0 5.20 -0.75 8.15 -2.10 8.15 -0.70 0 -0.90 -0.25 -0.70 -0.85 0.15 -0.50 0.40 -1.80 0.60 -2.90 l0.35 -2 -1.05 1.25 c-0.80 1 -0.90 1.40 -0.45 1.95 0.50 0.60 0.40 0.65 -0.50 0.45 -0.95 -0.25 -1.15 -0.10 -1.15 0.90 0 1 -0.25 1.20 -1.50 1.20 -1.15 0 -1.50 -0.25 -1.50 -0.95 0 -0.55 0.25 -1.15 0.50 -1.30 0.30 -0.15 0.50 -0.05 0.50 0.20 0 0.30 0.25 0.55 0.55 0.55 0.40 0 0.35 -0.30 -0.10 -0.80 -0.40 -0.50 -0.95 -1.45 -1.30 -2.15 l-0.55 -1.30 0.05 1.25 c0.15 4.05 -0.65 6 -1.35 3.40z m-2.85 -24.35 c0.55 -1.05 0.90 -2.05 0.75 -2.20 -0.40 -0.35 0.90 -3.85 1.40 -3.85 0.20 0 0.40 0.25 0.40 0.50 0 0.30 0.35 0.50 0.75 0.50 0.65 0 0.70 -0.20 0.25 -1.05 -0.35 -0.55 -0.45 -1.35 -0.30 -1.70 0.15 -0.40 0 -0.60 -0.35 -0.45 -1.50 0.55 -5.35 10.20 -4.10 10.20 0.10 0 0.65 -0.85 1.20 -1.95z"/>
  <path d="M16 26.75 c0 -0.40 -0.45 -0.75 -1 -0.75 -0.95 0 -0.95 0 0.05 -1.70 1.05 -1.80 3.10 -2.85 2.60 -1.35 -0.15 0.55 0.10 0.45 0.75 -0.30 0.65 -0.75 1.60 -1.15 2.55 -1.15 1.40 0 1.55 0.15 1.55 1.50 0 2.10 -2.55 4.50 -4.80 4.50 -1.20 0 -1.70 -0.25 -1.70 -0.75z"/>
  <path d="M17 19.25 c0 -1.40 0.20 -1.75 1 -1.75 1.05 0 1.20 0.50 0.70 2.40 -0.50 1.80 -1.70 1.35 -1.70 -0.65z"/>
  <path d="M28 7.15 c0 -0.65 1.45 -1.90 1.75 -1.55 0.15 0.15 -0.20 0.65 -0.75 1.15 -0.55 0.50 -1 0.65 -1 0.40z"/>
 </g>
 <g fill="#381007">
  <path d="M16.95 39.15 c-0.05 -0.50 0 -2.30 0.05 -4 0.05 -2 -0.10 -3.15 -0.45 -3.15 -0.55 0 -1.10 1.70 -0.95 3 0.15 1.60 -0.25 4.75 -0.45 3.65 -0.10 -0.65 -0.40 -1.15 -0.60 -1.15 -0.45 0 -1.40 -2.60 -1.85 -5.15 -0.20 -1.35 -0.55 -1.85 -1 -1.65 -0.40 0.15 -0.70 -0.05 -0.70 -0.50 0 -0.60 0.35 -0.75 1.20 -0.60 0.90 0.20 1.30 0 1.45 -0.70 0.30 -1.05 0.30 -1.05 -1.35 -0.40 -0.85 0.30 -1.35 0.30 -1.60 -0.10 -0.50 -0.80 1.05 -1.75 3.35 -2.15 1.05 -0.20 1.95 -0.60 1.95 -0.90 0 -0.75 3.45 -3.55 3.85 -3.15 0.20 0.15 -0.30 1 -1.10 1.80 -0.80 0.80 -1.30 1.60 -1.15 1.75 0.40 0.40 3.25 -2.50 3 -3.15 -0.30 -0.90 2.15 -0.75 2.90 0.15 0.55 0.70 0.70 0.65 1.20 -0.05 1 -1.30 3 -0.70 3.20 0.95 0.10 0.75 0.40 1.25 0.65 1.05 0.25 -0.15 0.35 -0.50 0.20 -0.75 -0.40 -0.55 0.30 -0.55 1.20 0 0.60 0.40 0.65 0.80 0.15 2.45 -0.35 1.10 -0.60 2.90 -0.60 4 0 2.05 -0.05 2.05 -1.75 2 -1.80 -0.05 -1.90 -0.15 -2.50 -3.25 -0.30 -1.40 -0.55 -1.65 -1.75 -1.65 -0.80 0 -1.75 -0.15 -2.20 -0.30 -0.60 -0.25 -0.80 0 -0.80 1.05 0 1.30 -0.10 1.35 -1.80 1.10 -1.25 -0.20 -1.70 -0.15 -1.55 0.30 0.15 0.35 0.50 0.55 0.80 0.50 0.30 -0.10 0.55 0.35 0.55 1 0 1 0.20 1.10 1.95 0.95 1.05 -0.10 2.10 0.05 2.25 0.35 0.20 0.30 1.15 0.55 2.10 0.55 1.35 0 1.70 0.20 1.70 0.95 0 1.30 -1.50 2.85 -2 2.05 -0.25 -0.40 -0.60 -0.25 -1.15 0.55 -0.95 1.30 -1 1.30 -2 -1.05 l-0.75 -1.75 -0.05 3.15 -0.05 3.10 -1.75 0 c-1.30 0 -1.75 -0.20 -1.80 -0.85z m1.55 -4.40 c0 -0.70 -0.20 -1.25 -0.50 -1.25 -0.25 0 -0.50 0.55 -0.50 1.25 0 0.70 0.25 1.25 0.50 1.25 0.30 0 0.50 -0.55 0.50 -1.25z"/>
  <path d="M21.15 39 c0.05 -0.65 0.30 -0.95 0.75 -0.75 0.35 0.15 1 0.25 1.40 0.25 0.40 0 0.70 0.35 0.70 0.75 0 0.50 -0.50 0.75 -1.45 0.75 -1.20 0 -1.45 -0.20 -1.40 -1z"/>
  <path d="M9.10 38.95 c0.80 -0.45 0.65 -0.75 -1.35 -2.85 -1.85 -1.90 -2.25 -2.60 -2 -3.60 0.35 -1.55 2 -3 3.40 -3 1 0 1 0 0.05 0.75 -0.80 0.65 -0.80 0.70 -0.05 0.45 1 -0.35 1.05 -0.15 0.30 1.50 -0.50 1.10 -0.40 1.45 0.75 2.80 0.70 0.85 1.30 1.90 1.30 2.25 0 0.95 -1.40 2.25 -2.40 2.25 -0.80 -0.05 -0.75 -0.05 0 -0.55z"/>
  <path d="M26.55 39 c0 -0.40 0.25 -1.90 0.55 -3.35 0.45 -1.95 0.85 -2.65 1.50 -2.65 0.65 0 0.90 0.40 0.90 1.45 0 2.10 -0.45 3.05 -1.50 3.05 -0.55 0 -1 0.45 -1.15 1.15 -0.10 0.60 -0.25 0.75 -0.30 0.35z"/>
  <path d="M11.40 20.35 c-0.15 -1.35 0.05 -2.15 0.70 -2.85 0.50 -0.50 0.90 -1.40 0.90 -2 0 -0.65 0.35 -1 1 -1 0.70 0 1 0.30 0.90 0.90 -0.10 0.45 0.15 0.80 0.50 0.70 1.20 -0.20 0.55 1.35 -1.60 3.70 l-2.15 2.40 -0.25 -1.85z"/>
  <path d="M16 20.90 c0.05 -1.15 1.05 -2.90 1.70 -2.90 0.15 0 0.30 0.90 0.30 2 0 1.65 -0.15 2 -1 2 -0.70 0 -1 -0.35 -1 -1.10z"/>
  <path d="M21.20 18.20 c0.20 -0.50 -0.05 -1.25 -0.50 -1.75 -0.80 -0.90 -0.80 -0.95 0.95 -0.95 1.40 0 1.75 0.15 1.55 0.75 -0.20 0.40 -0.50 0.75 -0.80 0.75 -0.25 0 -0.30 0.25 -0.15 0.50 0.20 0.30 0.55 0.40 0.80 0.25 0.25 -0.20 0.45 0.05 0.45 0.45 0 0.55 -0.45 0.80 -1.30 0.80 -1 0 -1.25 -0.20 -1 -0.80z"/>
  <path d="M16.25 16.05 c-0.15 -0.30 0.20 -1.25 0.75 -2.15 0.55 -0.90 1 -2.15 1 -2.75 0 -0.60 0.15 -1.45 0.30 -1.85 0.30 -0.75 0.40 -0.75 0.95 0.05 0.90 1.20 1.50 0.50 0.75 -0.85 -0.65 -1.25 -0.20 -2.10 0.50 -1 0.85 1.30 0.55 3.55 -0.75 6.35 -0.90 1.85 -1.55 2.65 -2.25 2.65 -0.50 0 -1.05 -0.20 -1.25 -0.45z"/>
  <path d="M24.50 15.25 c0 -0.40 -0.40 -0.75 -0.95 -0.75 -0.95 0 -1.55 -1.95 -1.55 -5.35 0 -1.45 0.15 -1.65 1.25 -1.65 0.95 0 1.25 0.25 1.30 1.15 0.05 0.90 0.10 0.90 0.30 0.20 0.15 -0.50 0.50 -0.80 0.85 -0.70 0.35 0.15 1.10 -0.30 1.75 -0.95 0.65 -0.65 1.40 -1.20 1.65 -1.20 0.50 0 0.15 0.65 -1.65 2.75 -0.45 0.55 -0.95 1.60 -1.15 2.40 -0.25 1.15 -0.15 1.35 0.70 1.35 0.80 0 1 0.35 1 1.65 0 1.60 -0.10 1.70 -1.75 1.75 -1.25 0.05 -1.75 -0.15 -1.75 -0.65z"/>
  <path d="M11.80 13.20 c-0.20 -0.45 -0.05 -1.15 0.25 -1.50 0.30 -0.40 0.95 -1.35 1.40 -2.10 2.55 -4.45 3.35 -5.60 3.95 -5.60 0.30 0 0.60 -0.20 0.60 -0.40 0 -0.55 2.25 -1.60 3.35 -1.60 0.45 0 1.10 0.40 1.50 0.90 0.65 0.80 0.65 0.80 0.55 -0.10 -0.10 -0.50 0.15 -1.05 0.50 -1.15 0.40 -0.15 0.60 0.35 0.60 1.55 0 1.30 -0.20 1.80 -0.80 1.80 -0.40 0 -1.10 0.35 -1.50 0.75 -0.50 0.45 -1.25 0.65 -1.90 0.45 -1.45 -0.35 -2.75 1.35 -4.10 5.30 -0.90 2.70 -0.90 2.70 -1.40 1.40 -0.60 -1.75 -1.30 -1.80 -1.30 -0.15 0 1.40 -1.20 1.70 -1.70 0.45z"/>
 </g>
 <g fill="#33251b">
  <path d="M8.50 39.70 c0 -0.20 0.40 -0.65 0.85 -0.95 0.80 -0.60 0.80 -0.85 0.20 -2.50 -0.80 -2.30 -0.45 -2.70 0.90 -0.95 1.30 1.65 1.30 2.25 0.10 3.60 -0.85 1.05 -2.05 1.50 -2.05 0.80z"/>
  <path d="M19.50 38.25 c0 -0.95 0.20 -1.75 0.50 -1.75 0.25 0 0.45 0.80 0.40 1.75 -0.05 0.95 -0.25 1.75 -0.50 1.75 -0.20 0 -0.40 -0.80 -0.40 -1.75z"/>
  <path d="M14.30 38.40 c-0.45 -1.80 -0.35 -2.40 0.45 -2.40 0.50 0 0.75 0.55 0.75 1.75 0 1.95 -0.70 2.35 -1.20 0.65z"/>
  <path d="M25 35.20 c0 -0.40 -0.20 -0.60 -0.50 -0.45 -0.25 0.15 -0.50 0.05 -0.50 -0.20 0 -0.30 0.25 -0.55 0.50 -0.55 0.30 0 0.50 -0.50 0.50 -1.10 0 -1.95 0.60 -3.40 1.30 -3.40 0.40 0 0.70 0.35 0.70 0.75 0 0.40 0.20 0.75 0.45 0.75 0.70 0 0.55 -2.60 -0.25 -4.40 -0.40 -0.90 -0.60 -2.05 -0.45 -2.55 0.15 -0.55 0.05 -1.10 -0.25 -1.30 -0.30 -0.15 -0.50 0.15 -0.50 0.75 0 0.80 -0.20 1 -0.80 0.80 -0.45 -0.15 -0.85 -0.30 -0.95 -0.30 -0.10 0 -0.35 -1 -0.55 -2.25 -0.30 -2.10 -0.45 -2.25 -1.75 -2.25 -1.35 0 -1.45 -0.10 -0.95 -1 1.10 -2.05 6 -0.20 6 2.30 0 0.65 0.25 1.30 0.50 1.45 0.30 0.20 0.45 1.10 0.40 2 -0.05 0.95 0.10 1.90 0.35 2.10 0.20 0.20 0.25 0 0.10 -0.45 -0.15 -0.50 -0.15 -0.95 0.05 -1.10 0.20 -0.10 0.35 -1.25 0.30 -2.50 0 -1.85 0.15 -2.30 0.85 -2.30 0.45 0 0.95 0.40 1.05 0.90 0.25 0.80 -0.75 8.55 -1.25 10.10 -0.15 0.40 -0.40 1.35 -0.55 2.15 -0.20 0.75 -0.50 1.35 -0.80 1.35 -0.25 0 -0.50 -0.60 -0.60 -1.35 -0.20 -1.30 -0.25 -1.20 -0.80 0.75 -0.60 2.05 -1.60 2.90 -1.60 1.30z"/>
  <path d="M6 33.80 c-0.40 -0.55 -0.45 -1 0 -1.75 0.80 -1.50 1.50 -1.30 1.50 0.40 0 1.75 -0.65 2.35 -1.50 1.35z"/>
  <path d="M8 32.30 c0 -0.40 0.50 -1.10 1.10 -1.50 0.60 -0.45 0.90 -0.80 0.60 -0.80 -0.25 0 -0.75 0.25 -1.10 0.60 -0.45 0.45 -0.60 0.40 -0.60 -0.25 0 -0.70 0.40 -0.80 2.70 -0.65 2.35 0.15 2.75 0.05 3.20 -0.90 0.45 -0.90 0.55 -0.70 0.55 1.35 0.05 1.70 -0.15 2.35 -0.65 2.35 -0.40 0 -0.90 -0.45 -1.05 -1 -0.40 -1.25 -2.10 -0.95 -3.20 0.55 -0.80 1.15 -1.55 1.25 -1.55 0.25z"/>
  <path d="M11 28 c0 -0.60 0.50 -1.05 1.55 -1.25 1.90 -0.45 2.45 0.05 1.15 0.95 -1.60 1.20 -2.70 1.30 -2.70 0.30z"/>
  <path d="M18 24.10 c0 -1.30 2.25 -4.10 3.40 -4.10 0.95 0 1.10 0.25 1.10 1.75 0 1.25 -0.20 1.75 -0.75 1.75 -0.45 0 -0.90 -0.35 -1.05 -0.75 -0.20 -0.55 -0.55 -0.40 -1.50 0.65 -0.65 0.75 -1.20 1.05 -1.20 0.70z"/>
  <path d="M11.55 20.55 c-0.05 -0.40 -0.40 -0.55 -1.10 -0.40 -1.05 0.30 -1 0.25 0.10 -1 0.95 -1 1.25 -1.10 1.35 -0.45 0.10 0.45 0.05 1.20 -0.05 1.70 -0.15 0.45 -0.25 0.55 -0.30 0.15z"/>
  <path d="M16.80 16.90 c-0.35 -1.10 -0.40 -1.10 -0.75 -0.20 -0.20 0.55 -0.50 0.75 -0.70 0.50 -0.15 -0.30 0.35 -1.25 1.15 -2.10 0.80 -0.85 1.70 -2.40 2.05 -3.35 0.35 -0.95 0.95 -1.75 1.30 -1.75 0.80 0 0.80 -0.25 0.10 -1.55 -0.35 -0.75 -0.35 -1.20 0.10 -1.75 0.45 -0.55 0.40 -0.70 -0.25 -0.70 -1.70 0 -0.75 -1.30 1 -1.40 l1.85 -0.15 -0.25 2.25 c-0.15 1.25 -0.10 2.15 0.15 2 0.25 -0.15 0.45 -0.90 0.45 -1.75 0 -1.15 0.20 -1.45 1.05 -1.45 0.95 0 1.05 0.20 0.75 1.55 -0.15 0.85 -0.30 1.80 -0.30 2.05 0 0.25 -0.20 0.30 -0.50 0.15 -0.25 -0.15 -0.50 0.05 -0.50 0.45 0 0.50 0.30 0.65 0.75 0.50 0.40 -0.20 0.75 -0.75 0.75 -1.30 0 -0.70 0.25 -0.90 0.75 -0.70 0.45 0.15 0.90 -0.05 1.10 -0.50 0.20 -0.55 0.40 -0.60 0.65 -0.20 0.20 0.35 0 1.25 -0.45 2.05 -0.75 1.35 -0.75 1.45 0.35 2.20 1.40 1 1.50 2.75 0.10 2.75 -0.55 0 -1 -0.20 -1 -0.40 0 -0.55 -2.30 -1.60 -3.45 -1.60 -0.50 0 -1.05 0.45 -1.20 1.05 -0.15 0.60 -0.65 1 -1.20 0.95 -1.85 -0.20 -2.15 0 -2.15 1.75 0 2 -1.20 2.45 -1.70 0.65z"/>
  <path d="M13 16.30 c0 -0.45 -0.30 -0.65 -0.70 -0.50 -0.50 0.20 -0.65 -0.25 -0.50 -1.85 0.25 -3.95 2.20 -3.95 2.20 0.05 0 1.35 -0.20 2.60 -0.50 2.75 -0.25 0.15 -0.50 -0.05 -0.50 -0.45z"/>
  <path d="M20.85 16.70 c-0.15 -0.15 -0.15 -0.60 0 -1 0.20 -0.50 1.15 -0.70 3.30 -0.70 l3.05 0 -1.05 1.10 c-0.95 0.95 -1.20 1 -1.95 0.35 -0.65 -0.55 -0.90 -0.55 -1.05 -0.05 -0.25 0.60 -1.75 0.85 -2.30 0.30z"/>
  <path d="M16 5.65 c0 -0.70 0.75 -1.45 1.65 -1.80 0.65 -0.25 0.85 -0.05 0.85 0.90 0 1 -0.25 1.25 -1.25 1.25 -0.70 0 -1.25 -0.15 -1.25 -0.35z"/>
  <path d="M24 2.20 c0 -1.45 0.15 -1.75 0.80 -1.50 0.45 0.15 1.15 0.30 1.55 0.30 0.70 0 0.70 0.15 -0.10 1 -0.50 0.55 -0.65 1 -0.35 1 0.35 0 0.60 0.25 0.60 0.50 0 0.30 -0.55 0.50 -1.25 0.50 -1.10 0 -1.25 -0.20 -1.25 -1.80z"/>
 </g>
 <g fill="#5b1109">
  <path d="M9.40 39.15 c1.40 -0.55 -0.35 -5.15 -2 -5.15 -0.35 0 -0.05 0.55 0.60 1.25 0.65 0.70 1.05 1.35 0.95 1.45 -0.10 0.15 -0.90 -0.60 -1.80 -1.65 -1.45 -1.75 -1.50 -1.95 -0.90 -3.45 0.45 -0.95 1.15 -1.70 1.95 -1.90 0.70 -0.15 1.30 -0.60 1.30 -0.90 0 -0.55 0.75 -1.05 3.15 -2.20 0.20 -0.10 0.35 0.15 0.35 0.55 0 0.45 -0.95 1.35 -2.15 2 -1.20 0.70 -2.50 1.65 -2.90 2.15 -0.35 0.45 0.20 0.25 1.25 -0.50 2 -1.35 3.30 -1.65 3.30 -0.80 0 0.30 -0.65 0.65 -1.45 0.80 -2.10 0.45 -2.45 2.25 -0.80 4.40 0.70 0.90 1.25 1.90 1.25 2.20 0 0.75 -1.45 2.10 -2.15 2.05 -0.45 0 -0.40 -0.10 0.05 -0.30z"/>
  <path d="M18.50 36.25 c0 -2.45 1.15 -3.20 1.70 -1.10 0.60 2.20 0.35 3.35 -0.70 3.35 -0.85 0 -1 -0.35 -1 -2.25z"/>
  <path d="M27.15 36.15 c0.40 -0.80 0.60 -1.70 0.50 -2 -0.15 -0.40 0.20 -0.65 0.80 -0.65 0.90 0 1.05 0.30 1.05 2 0 1.90 -0.10 2 -1.50 2 -1.50 0 -1.50 0 -0.85 -1.35z"/>
  <path d="M21.80 36.20 c-0.15 -0.45 -0.30 -1.15 -0.25 -1.60 0 -0.55 0.10 -0.60 0.30 -0.20 0.10 0.30 0.65 0.60 1.20 0.60 0.85 0 0.90 0.15 0.45 1 -0.65 1.20 -1.30 1.30 -1.70 0.20z"/>
  <path d="M13.25 34.55 c-0.15 -0.85 -0.15 -1.80 0.05 -2.10 0.15 -0.30 0.10 -0.70 -0.20 -0.90 -0.35 -0.20 -0.30 -0.70 0.15 -1.55 l0.70 -1.25 0.05 1.40 c0 0.95 0.25 1.35 0.90 1.35 0.80 0 0.90 0.30 0.65 2.10 -0.35 2.65 -1.80 3.25 -2.30 0.95z"/>
  <path d="M14.85 30.65 c-0.20 -0.15 -0.35 -1.10 -0.35 -2 0 -1.65 0.05 -1.70 1.90 -1.55 1.75 0.15 1.85 0.25 2 2.05 0.15 1.80 0.10 1.85 -1.55 1.85 -0.90 0 -1.85 -0.15 -2 -0.35z"/>
  <path d="M26 28.25 c0 -0.50 -0.50 -0.75 -1.50 -0.75 -1.80 0 -2.05 -1.20 -0.35 -1.75 l1.10 -0.40 -1.10 -0.20 c-1.70 -0.30 -1.40 -1.15 0.35 -1.15 1.60 0 1.75 0.15 2.25 3.15 0.20 1.15 0.10 1.85 -0.25 1.85 -0.25 0 -0.50 -0.35 -0.50 -0.75z"/>
  <path d="M27.55 27.45 c-0.35 -0.80 -0.50 -1.65 -0.30 -1.85 0.20 -0.20 0.50 -0.05 0.60 0.30 0.15 0.30 0.45 0.60 0.70 0.60 0.30 0 0.35 -0.25 0.20 -0.50 -0.50 -0.80 0.25 -2.50 1.05 -2.50 0.85 0 0.85 0.35 0.10 3.25 -0.70 2.65 -1.40 2.85 -2.35 0.70z"/>
  <path d="M19 26.10 c0 -0.25 0.30 -0.80 0.65 -1.35 0.80 -1.05 1.85 -0.60 1.85 0.80 0 0.70 -0.35 0.95 -1.25 0.95 -0.70 0 -1.25 -0.20 -1.25 -0.40z"/>
  <path d="M18 23.75 c0 -0.40 0.35 -0.75 0.80 -0.75 0.70 0 0.70 0.15 0.20 0.75 -0.35 0.40 -0.70 0.75 -0.80 0.75 -0.10 0 -0.20 -0.35 -0.20 -0.75z"/>
  <path d="M11.30 20.95 c0.15 -0.30 0 -0.75 -0.35 -1 -0.55 -0.30 -0.40 -0.70 0.70 -1.85 1.50 -1.55 1.80 -2.90 0.55 -2.40 -0.60 0.25 -0.75 0.10 -0.50 -0.50 0.15 -0.40 0.30 -1 0.30 -1.25 0 -0.25 0.35 -0.45 0.75 -0.45 0.55 0 0.65 -0.40 0.45 -1.50 -0.65 -3.05 5.05 -10 8.15 -10 1.70 0 1.40 0.85 -0.60 1.50 -0.95 0.30 -1.85 0.75 -2 1 -0.35 0.60 1.80 0.15 2.45 -0.50 0.75 -0.75 1.80 -0.60 1.80 0.25 0 0.40 -0.20 0.75 -0.45 0.75 -0.25 0 -0.60 0.55 -0.75 1.20 -0.15 0.65 -0.65 1.35 -1.10 1.50 -1.25 0.50 -1.60 -0.20 -0.50 -1 0.95 -0.70 0.95 -0.70 -0.05 -0.70 -1.50 0 -2.90 2.20 -4.65 7.30 -1.75 5.10 -1.65 4.70 -1 4.70 0.30 0 0.50 -0.35 0.50 -0.75 0 -0.40 0.25 -0.75 0.50 -0.75 0.30 0 0.50 0.15 0.50 0.40 0 0.65 -3.75 4.60 -4.40 4.60 -0.35 0 -0.50 -0.25 -0.30 -0.55z"/>
  <path d="M25 14.75 c0 -1.65 0.10 -1.75 1.75 -1.75 1.65 0 1.75 0.10 1.75 1.75 0 1.20 -0.25 1.75 -0.75 1.75 -0.40 0 -0.75 -0.25 -0.75 -0.60 0 -0.45 -0.15 -0.45 -0.60 0 -1 1 -1.40 0.70 -1.40 -1.15z"/>
  <path d="M18 12.65 c0.70 -1.40 1.55 -2.60 1.90 -2.65 0.30 0 0.60 -0.25 0.60 -0.55 0 -0.95 1.40 -1.95 2.70 -1.95 1 0 1.30 0.25 1.30 1.05 0 0.55 -0.20 0.85 -0.50 0.70 -0.25 -0.15 -0.50 0.15 -0.50 0.70 0 0.70 -0.30 1.05 -1 1.05 -0.55 0 -1 0.25 -1 0.50 0 0.30 -0.20 0.50 -0.50 0.50 -0.25 0 -0.50 -0.35 -0.50 -0.80 0 -0.40 -0.20 -0.60 -0.50 -0.45 -0.25 0.15 -0.50 1.15 -0.50 2.20 0 1.75 -0.15 1.95 -1.40 2.15 l-1.40 0.20 1.30 -2.65z"/>
 </g>
 <g fill="#4b250f">
  <path d="M14.05 36.70 c-1.35 -4.25 -1.40 -5.60 -0.40 -7.55 0.95 -1.80 0.85 -1.95 -0.75 -1.10 -0.90 0.50 -1 0.45 -0.75 -0.30 0.20 -0.45 0.35 -0.95 0.35 -1.05 0 -0.10 0.35 -0.20 0.75 -0.20 0.40 0 0.75 -0.20 0.75 -0.50 0 -0.25 0.30 -0.50 0.65 -0.50 0.40 0 0.90 -1.20 1.30 -3.10 1.10 -5.25 1.20 -6.40 0.60 -6.40 -0.30 0 -0.55 0.30 -0.55 0.70 0 0.35 -0.35 0.95 -0.75 1.30 -0.65 0.55 -0.70 0.50 -0.45 -0.30 0.50 -1.35 1.75 -2.70 2.25 -2.40 0.25 0.15 0.45 -0.10 0.45 -0.55 0 -1.10 1.50 -3.85 2.45 -4.60 0.70 -0.50 0.70 -0.75 0.10 -1.70 -0.60 -1 -0.55 -1.20 0.15 -1.75 0.60 -0.40 0.65 -0.65 0.25 -0.80 -0.90 -0.30 1.05 -2.40 2.20 -2.40 0.65 0 0.85 -0.25 0.65 -0.75 -0.15 -0.40 -0.10 -0.75 0.15 -0.75 0.55 0 1.05 2.55 1.05 5.30 0 1.65 -0.15 2.10 -0.70 1.90 -0.55 -0.20 -0.65 0 -0.45 0.75 0.20 0.85 0.40 0.95 0.95 0.50 0.40 -0.30 0.70 -1 0.70 -1.50 0 -0.60 0.25 -0.80 0.75 -0.65 0.90 0.35 1 2.50 0.15 2.85 -0.50 0.20 -0.50 0.30 0 0.30 1.25 0.10 2.45 1.85 2.75 3.95 0.20 1.65 0.10 2.10 -0.50 2.10 -0.40 0 -0.85 -0.45 -1 -1 -0.25 -0.90 -0.35 -0.90 -1.30 -0.25 -0.80 0.55 -1.20 0.60 -1.70 0.15 -0.50 -0.40 -0.85 -0.40 -1.25 0 -0.85 0.85 -1.40 0.75 -1.40 -0.20 0 -0.50 -0.30 -0.70 -0.75 -0.50 -0.55 0.20 -0.75 -0.05 -0.75 -0.85 0 -0.90 -0.10 -0.95 -0.50 -0.35 -0.25 0.40 -0.50 1.45 -0.50 2.25 0 0.85 -0.35 2.60 -0.75 3.95 -0.40 1.35 -0.65 2.55 -0.55 2.65 0.10 0.10 0.65 -0.40 1.25 -1.15 0.60 -0.75 1.20 -1.20 1.40 -1.05 0.15 0.20 -0.40 1.25 -1.35 2.40 -1.50 1.90 -1.55 2.15 -0.95 3.30 l0.70 1.30 0.25 -1.20 c0.15 -0.65 0.50 -1.65 0.85 -2.20 0.55 -1 0.60 -1 2.10 0.15 1.60 1.15 3.05 1.45 3.05 0.60 0 -0.25 -0.50 -0.50 -1.15 -0.50 -0.65 0 -1.70 -0.55 -2.30 -1.20 l-1.10 -1.20 2.75 0.10 c2.35 0.05 2.80 0.20 2.95 1.05 0.20 0.95 0.25 0.95 0.60 -0.10 0.50 -1.60 1.35 -1.45 1.25 0.25 -0.15 1.95 -0.05 2.60 0.40 2.60 0.20 0 0.40 -0.80 0.40 -1.75 0.15 -4 0.20 -4.25 0.95 -4.25 1 0 1.20 2.90 0.25 3.50 -0.45 0.30 -0.90 4.50 -0.50 4.50 0.20 0 -0.25 10.70 -0.45 11.40 -0.05 0.05 -0.60 0.10 -1.30 0.10 -1.05 0 -1.25 -0.25 -1.25 -1.45 0 -0.80 0.30 -1.80 0.65 -2.15 0.65 -0.70 1 -9.40 0.30 -9.40 -0.20 0 -0.45 -0.40 -0.55 -0.85 -0.10 -0.45 -0.15 1.25 -0.15 3.75 0 3.70 -0.15 4.75 -0.85 5.45 -0.85 0.80 -0.90 0.80 -0.90 -0.10 -0.05 -0.95 -0.10 -0.90 -1 0.20 -1.15 1.35 -2.35 1.10 -2.60 -0.55 -0.30 -2.30 -1.15 -0.60 -1.05 2.25 0.05 2.75 0 2.85 -1.20 2.85 -0.70 0 -1.55 -0.40 -1.90 -0.85 -0.75 -1 -0.40 -2.65 0.55 -2.65 0.50 0 0.70 -0.65 0.70 -2.25 0 -2.20 -0.70 -3.05 -1.15 -1.35 -0.20 0.65 -0.25 0.55 -0.30 -0.25 0 -0.65 -0.25 -1.15 -0.55 -1.15 -1 0 -1.45 2 -1.15 5.20 0.15 1.80 0.15 3.30 0 3.30 -0.15 0 -0.75 -1.50 -1.30 -3.30z m11.95 -5.40 c0 -0.65 0.15 -1.55 0.30 -1.95 0.20 -0.55 -0.40 -0.85 -2.65 -1.25 -1.60 -0.25 -2.95 -0.45 -2.95 -0.40 -0.05 0 -0.25 1 -0.45 2.15 -0.30 2.05 -0.30 2.10 1.35 2.30 4.05 0.50 4.40 0.40 4.40 -0.85z m-8 -1.55 c0 -0.40 -0.35 -0.75 -0.75 -0.75 -0.40 0 -0.75 -0.25 -0.75 -0.60 0 -0.30 -0.15 -0.40 -0.35 -0.25 -0.15 0.20 0.10 0.80 0.60 1.35 1.10 1.20 1.25 1.25 1.25 0.25z m2.50 -18.30 c0 -0.55 -0.20 -0.85 -0.50 -0.70 -0.25 0.15 -0.50 0.75 -0.50 1.30 0 0.55 0.25 0.85 0.50 0.70 0.30 -0.15 0.50 -0.75 0.50 -1.30z"/>
  <path d="M9.35 35.95 c-0.85 -1.25 -1.70 -1.95 -2.25 -1.85 -0.55 0.10 -0.90 -0.25 -1 -0.95 -0.15 -1 0.05 -1.15 1.60 -1.15 1.35 0 1.70 0.20 1.50 0.75 -0.15 0.35 0.30 1.45 1 2.40 1.30 1.65 1.65 2.85 0.95 2.85 -0.25 -0.05 -1 -0.95 -1.80 -2.05z"/>
  <path d="M21.50 19.10 c0 -1.30 0.10 -1.35 2.05 -1.20 1.50 0.15 1.95 0.40 1.75 0.95 -0.15 0.40 -0.30 0.95 -0.30 1.20 0 0.25 -0.80 0.45 -1.75 0.45 -1.60 0 -1.75 -0.15 -1.75 -1.40z"/>
  <path d="M13.50 16.50 c0 -1 0.25 -1.50 0.70 -1.50 0.60 0 0.65 0.30 0.25 1.50 -0.30 0.85 -0.65 1.50 -0.75 1.50 -0.10 0 -0.20 -0.65 -0.20 -1.50z"/>
  <path d="M20.50 2.70 c0 -0.40 0.45 -0.70 1 -0.70 0.55 0 1 0.20 1 0.45 0 0.25 -0.45 0.55 -1 0.70 -0.65 0.15 -1 0 -1 -0.45z"/>
 </g>
 <g fill="#4a3b2b">
  <path d="M9 39.50 c0 -0.25 0.20 -0.50 0.45 -0.50 0.75 0 1.05 -1.55 0.50 -2.60 -0.70 -1.35 -0.10 -1.80 0.80 -0.60 0.95 1.25 0.95 1.85 -0.20 3.10 -1 1.20 -1.55 1.40 -1.55 0.60z"/>
  <path d="M17.30 39.20 c-0.55 -1.45 -0.30 -2.20 0.70 -2.20 0.80 0 1 0.35 1 1.50 0 1.60 -1.15 2.10 -1.70 0.70z"/>
  <path d="M14 36.55 c-0.80 -1.55 -0.60 -2.55 0.50 -2.55 0.80 0 1 0.35 1 1.75 0 1.95 -0.70 2.30 -1.50 0.80z"/>
  <path d="M8.25 34.35 c-0.25 -0.60 -0.55 -0.75 -1 -0.35 -0.70 0.60 -1.25 0.15 -1.25 -1.10 0 -0.65 0.35 -0.90 1.25 -0.90 0.70 0 1.40 -0.30 1.55 -0.70 0.35 -0.90 3.05 -1.90 3.45 -1.30 0.15 0.25 -0.40 0.55 -1.20 0.75 -1.25 0.25 -1.60 0.65 -1.95 2.40 -0.35 1.60 -0.55 1.90 -0.85 1.20z"/>
  <path d="M25 32.25 c0 -1.40 0.20 -1.75 1 -1.75 1.05 0 1.20 0.50 0.70 2.40 -0.50 1.80 -1.70 1.35 -1.70 -0.65z"/>
  <path d="M7.50 30.80 c0 -1.10 1.80 -2.60 4.30 -3.65 1.20 -0.50 2.20 -1.05 2.20 -1.25 0 -0.25 0.25 -0.40 0.50 -0.40 1.25 0 0.30 1.40 -1.60 2.50 -1.20 0.60 -2.90 1.70 -3.75 2.35 -1.30 0.95 -1.65 1.05 -1.65 0.45z"/>
  <path d="M27.85 27.50 c-0.15 -0.60 0 -1 0.35 -1 0.40 0 0.60 -0.75 0.50 -2.30 -0.10 -1.60 0.05 -2.35 0.60 -2.55 1.20 -0.45 1.30 0.05 0.95 3.55 -0.30 2.70 -0.55 3.30 -1.25 3.30 -0.50 0 -1 -0.45 -1.15 -1z"/>
  <path d="M23.75 23 l-0.35 -1.55 -0.90 1.05 c-1.10 1.30 -2.15 0.85 -1.75 -0.65 0.25 -0.90 0.15 -0.85 -0.60 0.30 -1.60 2.45 -1.70 1.40 -0.15 -1.65 0.85 -1.65 1.60 -3 1.70 -3 0.15 0 0.60 0.35 1.05 0.80 0.60 0.65 0.95 0.70 1.40 0.25 0.90 -0.90 1.20 -0.65 1.20 0.85 -0.05 0.75 0.15 2.20 0.35 3.25 0.35 1.65 0.30 1.85 -0.60 1.85 -0.75 0 -1.10 -0.45 -1.35 -1.50z"/>
  <path d="M27 23.90 c0 -0.35 -0.15 -1.20 -0.30 -1.90 -0.30 -1.20 -0.30 -1.25 0.45 -0.25 0.90 1.10 1.10 2.75 0.35 2.75 -0.25 0 -0.50 -0.30 -0.50 -0.60z"/>
  <path d="M16 22.40 c0 -1.50 0.65 -2.90 1.35 -2.90 1.10 0 0.65 3.20 -0.45 3.40 -0.50 0.10 -0.90 -0.10 -0.90 -0.50z"/>
  <path d="M27.70 17.90 c-0.20 -0.30 -0.40 -1.10 -0.50 -1.75 -0.20 -1.80 1.05 -1.35 1.65 0.60 0.45 1.40 0.40 1.75 -0.10 1.75 -0.40 0 -0.85 -0.25 -1.05 -0.60z"/>
  <path d="M15 17.60 c0 -0.40 1.90 -3.05 3.60 -5.10 0.35 -0.40 0.60 -0.80 0.50 -0.90 -0.10 -0.05 -0.05 -0.40 0.05 -0.75 0.40 -0.95 0.40 2.95 0 3.95 -0.30 0.80 -0.35 0.80 -0.70 -0.10 -0.30 -0.70 -0.40 -0.40 -0.45 1.05 -0.05 1.75 -0.10 1.90 -0.70 1.15 -0.80 -1.10 -1.30 -1.15 -1.30 -0.20 0 0.40 -0.20 0.90 -0.50 1.05 -0.25 0.15 -0.50 0.10 -0.50 -0.15z"/>
  <path d="M13 16 c0 -0.65 -0.25 -0.90 -0.75 -0.70 -0.55 0.25 -0.65 0.10 -0.45 -0.55 0.20 -0.50 0.35 -1.45 0.40 -2.20 0.05 -1.75 1.80 -2.15 1.80 -0.40 0 0.70 0.25 1.35 0.55 1.45 0.85 0.30 0.05 3.40 -0.85 3.40 -0.40 0 -0.70 -0.45 -0.70 -1z"/>
  <path d="M20.65 16.40 c-0.20 -0.35 -0.40 -2.40 -0.40 -4.50 0 -3.75 0.05 -3.90 1.15 -3.90 1.15 0 1.15 0.05 0.80 4 -0.25 2.95 -0.15 4 0.25 4 0.35 0 0.45 0.25 0.30 0.50 -0.45 0.70 -1.60 0.65 -2.10 -0.10z"/>
  <path d="M23.85 15.65 c-0.20 -0.15 -0.35 -1 -0.35 -1.85 0 -1.20 0.15 -1.40 0.50 -0.80 0.40 0.65 0.55 0.55 0.80 -0.35 0.20 -0.65 0.70 -1.15 1.20 -1.15 1.05 0 2.70 1.75 2.25 2.45 -0.40 0.75 -1.60 0.70 -1.85 -0.05 -0.15 -0.45 -0.30 -0.45 -0.60 0 -0.20 0.35 -0.10 0.60 0.15 0.60 0.30 0 0.55 0.35 0.55 0.75 0 0.75 -2 1.05 -2.65 0.40z"/>
  <path d="M25 9.60 c0 -1.05 0.25 -1.40 1 -1.40 1.10 0 1.10 0.05 0.70 1.70 -0.45 1.60 -1.70 1.40 -1.70 -0.30z"/>
  <path d="M23.50 7.75 c0 -0.70 -0.25 -1.25 -0.60 -1.25 -0.30 0 -0.45 -0.15 -0.25 -0.30 0.15 -0.15 0.10 -0.85 -0.15 -1.50 -0.40 -0.95 -0.30 -1.20 0.30 -1.20 0.45 0 0.70 -0.30 0.55 -0.60 -0.25 -0.80 0.50 -2.40 1.15 -2.40 0.30 0 0.50 0.55 0.50 1.25 0 0.70 0.25 1.25 0.50 1.25 0.30 0 0.50 0.25 0.50 0.50 0 0.30 -0.35 0.50 -0.80 0.50 -0.60 0 -0.75 0.30 -0.55 1.05 0.35 1.35 -0.10 3.95 -0.70 3.95 -0.25 0 -0.45 -0.55 -0.45 -1.25z"/>
 </g>
 <g fill="#69391e">
  <path d="M26.50 39.50 c0 -0.25 0.25 -0.50 0.55 -0.50 0.35 0 0.45 -0.50 0.25 -1.20 -0.15 -0.70 -0.10 -1.35 0.15 -1.50 0.20 -0.15 0.55 -1.20 0.75 -2.30 0.15 -1.10 0.55 -2 0.80 -2 0.55 0 0.65 3.25 0.20 6.15 -0.30 1.55 -0.55 1.85 -1.50 1.85 -0.65 0 -1.20 -0.20 -1.20 -0.50z"/>
  <path d="M13.80 35.40 c-0.70 -2.30 -0.70 -4.90 0 -6.35 0.95 -1.95 1.40 -1.95 2.55 -0.05 0.75 1.30 2.30 2.15 2.05 1.15 -0.10 -0.50 0.55 -3.10 1.10 -4.50 0.60 -1.45 1.35 -1.45 2.80 -0.10 0.90 0.85 1.30 0.95 2.15 0.50 1.45 -0.80 1.35 -1.75 -0.15 -1.35 -0.80 0.20 -1.60 -0.05 -2.35 -0.70 -1.15 -0.95 -1.15 -0.95 -0.15 -1 0.55 0 1.25 0.25 1.60 0.60 0.45 0.45 0.60 0.30 0.60 -0.75 0 -1.90 1.35 -1.70 1.80 0.30 0.20 0.85 0.40 2.05 0.45 2.60 0.05 0.55 0.25 1.40 0.45 1.90 0.60 1.30 -0.15 7.20 -1 7.90 -0.55 0.45 -0.70 0.35 -0.70 -0.60 l0 -1.20 -0.95 1.20 c-0.85 1.15 -1 1.15 -1.75 0.45 -0.45 -0.45 -0.80 -1.05 -0.80 -1.35 0 -0.30 -0.35 -0.55 -0.75 -0.55 -0.40 0 -0.75 0.35 -0.75 0.75 0 0.40 -0.20 0.75 -0.50 0.75 -0.25 0 -0.50 -0.35 -0.50 -0.75 0 -0.40 -0.45 -0.75 -1 -0.75 -0.65 0 -1 -0.35 -1 -0.95 0 -0.50 -0.35 -1.05 -0.75 -1.25 -0.80 -0.30 -1 0.65 -0.80 3.35 0.10 0.95 -0.10 1.35 -0.70 1.35 -0.40 0 -0.85 -0.30 -0.95 -0.60z m11.20 -4.65 c0 -0.40 0.30 -0.75 0.65 -0.75 1.25 0 -0.90 -1 -2.25 -1 -0.75 0 -1.55 -0.35 -1.75 -0.75 -0.35 -0.55 -0.60 -0.25 -1 1.25 l-0.50 2 2.40 0 c1.85 0 2.45 -0.20 2.45 -0.75z"/>
  <path d="M6.30 34.15 c-0.70 -0.75 -0.25 -2.15 0.70 -2.15 0.55 0 1 0.25 1 0.55 0 0.75 -1.30 1.95 -1.70 1.60z"/>
  <path d="M28.50 30.75 c0 -0.40 -0.20 -0.75 -0.40 -0.75 -0.25 0 -0.40 -0.80 -0.40 -1.75 0.05 -1.10 0.25 -1.70 0.60 -1.55 0.40 0.15 0.55 -0.65 0.45 -2.35 -0.05 -1.45 0 -2.30 0.10 -1.95 0.15 0.30 0.60 0.60 1 0.60 0.60 0 0.70 0.35 0.45 1.40 -0.20 0.75 -0.50 2.65 -0.65 4.25 -0.15 1.55 -0.45 2.85 -0.70 2.85 -0.25 0 -0.45 -0.35 -0.45 -0.75z"/>
  <path d="M10.50 30.50 c0 -0.60 1.40 -1.05 1.75 -0.55 0.10 0.25 -0.20 0.55 -0.75 0.70 -0.55 0.15 -1 0.10 -1 -0.15z"/>
  <path d="M11 28 c0.30 -0.55 0.75 -1.05 1 -1.05 0.30 -0.05 0.70 -0.10 0.95 -0.15 0.75 -0.10 2.35 -2.45 3 -4.40 0.45 -1.35 0.90 -1.90 1.60 -1.90 0.90 0 0.90 0.10 0.25 1.75 -1.35 3.25 0.80 1.35 2.50 -2.20 1.05 -2.20 2.45 -2.70 2.95 -1.05 0.35 1.05 1.40 1.40 1.15 0.40 -0.10 -0.35 0 -0.70 0.25 -0.75 0.20 -0.10 0.35 -0.05 0.35 0.10 0 0.15 0 0.60 0 1 0 1.30 -2.40 0.95 -2.65 -0.35 -0.15 -0.70 -0.25 -0.45 -0.30 0.75 0 1 -0.30 1.85 -0.60 1.85 -0.30 0 -0.40 -0.45 -0.20 -1.10 0.15 -0.65 -0.35 -0.10 -1.20 1.20 -0.85 1.25 -1.90 2.55 -2.35 2.80 -0.75 0.40 -0.75 0.55 0.05 1.75 0.45 0.70 0.70 1.55 0.50 1.85 -0.50 0.85 -1.60 0.55 -1.90 -0.50 -0.25 -1 -2.05 -1.40 -2.55 -0.55 -0.15 0.25 -1 0.70 -1.80 1 -1.40 0.45 -1.45 0.45 -1 -0.45z"/>
  <path d="M27.05 24.40 c-0.05 -1.05 0.20 -1.90 0.45 -1.90 0.60 0 0.60 1.35 0 2.75 -0.35 0.80 -0.45 0.65 -0.45 -0.85z"/>
  <path d="M28.60 20.50 c-0.70 -1.15 -0.80 -3.50 -0.15 -3.50 0.65 0 2 3.05 1.70 3.85 -0.35 0.90 -0.80 0.80 -1.55 -0.35z"/>
  <path d="M13 18.35 c0 -1.35 0.20 -1.85 0.75 -1.85 0.60 0 0.65 0.20 0.25 0.95 -0.90 1.70 -0.50 1.85 0.75 0.30 0.70 -0.80 1.25 -1.25 1.25 -0.95 0 0.25 -0.65 1.15 -1.50 1.95 l-1.50 1.45 0 -1.85z"/>
  <path d="M20.50 16.20 c-0.55 -0.60 -0.55 -0.90 0.10 -1.50 0.80 -0.85 3.80 -1.65 6.05 -1.70 1.20 0 1.35 0.15 1.35 1.75 0 0.95 -0.25 1.75 -0.55 1.75 -0.25 0 -0.40 -0.15 -0.25 -0.40 0.10 -0.20 -0.05 -0.85 -0.35 -1.45 -0.45 -0.80 -0.80 -1 -1.35 -0.65 -0.65 0.40 -0.60 0.50 0.15 0.50 1.15 0 1.10 1.35 -0.15 2 -0.80 0.40 -1.05 0.30 -1.55 -0.60 l-0.60 -1.10 -0.40 1.10 c-0.50 1.30 -1.55 1.45 -2.45 0.30z"/>
  <path d="M17.70 13.70 c0.15 -0.45 0.30 -0.90 0.30 -1 0 -0.10 0.35 -0.20 0.75 -0.20 0.40 0 0.75 0.45 0.75 1 0 0.70 -0.35 1 -1.05 1 -0.75 0 -0.95 -0.20 -0.75 -0.80z"/>
  <path d="M20.60 11.50 c0 -0.95 0.10 -1.35 0.25 -0.85 0.10 0.45 0.10 1.25 0 1.75 -0.15 0.45 -0.25 0.05 -0.25 -0.90z"/>
  <path d="M22.65 12.10 c-0.95 -0.15 -1.15 -0.50 -1.15 -1.90 0 -1.15 -0.25 -1.70 -0.70 -1.70 -1.15 0 -1.55 -1.10 -0.55 -1.60 0.70 -0.40 0.75 -0.60 0.20 -0.95 -0.55 -0.35 -0.50 -0.65 0.40 -1.50 0.80 -0.80 1.40 -1 2.40 -0.75 0.75 0.20 1.25 0.50 1.05 0.65 -0.15 0.15 -0.05 0.60 0.25 0.95 0.30 0.40 0.45 1.05 0.25 1.45 -0.40 1.15 -1.70 0.90 -1.95 -0.35 -0.15 -0.75 -0.25 -0.45 -0.30 0.70 0 1 0.20 2 0.50 2.15 0.30 0.20 0.40 0.65 0.25 1 -0.15 0.45 0.35 0.75 1.50 0.95 0.95 0.20 1.70 0.55 1.70 0.80 0 0.45 -1.25 0.45 -3.85 0.10z"/>
  <path d="M13 11.20 c0 -1.15 2.15 -4.70 2.90 -4.70 0.80 0 0.75 0.50 -0.15 1.70 -0.40 0.55 -0.75 1.25 -0.75 1.50 0 0.30 0.50 -0.25 1.05 -1.20 1.30 -2.15 1.40 -2.25 1.70 -1.90 0.15 0.10 -0.20 1.15 -0.75 2.30 -0.55 1.10 -1 2.30 -1 2.60 0 0.25 -0.65 0.50 -1.50 0.50 -1 0 -1.50 -0.25 -1.50 -0.80z"/>
  <path d="M25 10 c0 -0.65 0.35 -1 0.95 -1 0.70 0 0.90 0.25 0.70 1 -0.15 0.55 -0.60 1 -0.95 1 -0.40 0 -0.70 -0.45 -0.70 -1z"/>
  <path d="M20 2.75 c0 -0.40 0.45 -0.75 1 -0.75 1.20 0 1.35 0.75 0.20 1.20 -1.10 0.45 -1.20 0.40 -1.20 -0.45z"/>
 </g>
 <g fill="#88251f">
  <path d="M17.30 38.90 c-0.55 -2.20 -0.35 -3.40 0.65 -3.40 0.85 0 1.55 1.65 1.55 3.80 0 1.15 -1.85 0.80 -2.20 -0.40z"/>
  <path d="M10.30 37.85 c0.15 -0.40 -0.35 -1.45 -1.10 -2.40 -0.80 -0.95 -1.50 -1.80 -1.60 -1.95 -0.05 -0.10 -0.35 0.05 -0.55 0.45 -0.30 0.50 -0.50 0.45 -0.75 -0.20 -0.60 -1.55 -0.30 -2.30 1.50 -4.05 1.20 -1.10 2.35 -1.70 3.25 -1.70 0.80 0 1.45 -0.20 1.45 -0.50 0 -0.25 0.30 -0.50 0.70 -0.50 0.35 0 0.80 -0.45 0.95 -1 0.15 -0.60 0.70 -1 1.30 -1 0.80 0 1.05 0.30 1.05 1.35 0 1 -0.15 1.20 -0.55 0.80 -0.45 -0.45 -1.30 -0.20 -3.40 0.95 -2.95 1.55 -5.20 3.40 -4.80 3.80 0.15 0.15 0.75 -0.20 1.40 -0.75 1.30 -1.20 2.85 -1.80 2.85 -1.15 0 0.25 -0.55 0.60 -1.20 0.80 -1.85 0.45 -2.05 2.30 -0.55 4.50 1.30 1.90 1.40 2.75 0.35 3.10 -0.35 0.10 -0.50 -0.10 -0.30 -0.55z"/>
  <path d="M21.80 35.70 c-0.45 -1.15 -0.40 -1.20 0.95 -1.20 1.35 0 1.60 0.45 0.65 1.40 -0.80 0.80 -1.25 0.75 -1.60 -0.20z"/>
  <path d="M27 23.80 c0 -1.10 0.15 -1.35 0.55 -0.95 0.40 0.40 0.40 0.80 0 1.50 -0.45 0.80 -0.50 0.70 -0.55 -0.55z"/>
  <path d="M11 21.70 c0 -0.15 0.25 -0.75 0.55 -1.30 0.50 -0.90 0.45 -1 -0.25 -0.75 -1.20 0.45 -1 -0.30 0.45 -1.65 1.45 -1.40 1.85 -3.60 0.40 -2.45 -0.75 0.65 -0.80 0.60 -0.40 -0.30 0.20 -0.55 0.45 -1.55 0.50 -2.25 0.05 -1.45 2.05 -5.50 2.70 -5.50 0.25 0 0.60 -0.55 0.75 -1.25 0.20 -0.70 0.95 -1.65 1.70 -2.10 0.75 -0.50 1.65 -1.15 2 -1.50 0.80 -0.75 2.60 -0.85 2.60 -0.15 0 0.25 -0.55 0.60 -1.20 0.80 -2.10 0.50 -7 6.65 -6.05 7.60 0.15 0.15 0.25 0 0.25 -0.30 0 -0.35 0.25 -0.60 0.50 -0.60 0.80 0 0.60 1.50 -0.75 5.25 -1.45 4.10 -1.40 3.90 -0.65 3.45 0.30 -0.20 -0.05 0.45 -0.80 1.45 -1.25 1.65 -2.30 2.35 -2.30 1.55z"/>
  <path d="M16.50 20.40 c0 -1.50 0.65 -2.90 1.30 -2.90 0.45 0 0.70 0.60 0.70 1.75 0 1.40 -0.20 1.75 -1 1.75 -0.55 0 -1 -0.30 -1 -0.60z"/>
  <path d="M21.50 9.75 c0 -1.60 0.10 -1.75 1.50 -1.75 0.85 0 1.50 0.25 1.50 0.55 0 0.35 -0.45 0.45 -1.05 0.30 -0.80 -0.20 -0.95 -0.15 -0.55 0.25 0.30 0.30 0.40 0.80 0.25 1.15 -0.15 0.40 0.25 0.75 0.95 0.90 0.75 0.15 0.50 0.25 -0.70 0.30 -1.85 0.05 -1.90 0 -1.90 -1.70z"/>
  <path d="M17 7.10 c0 -0.65 1.95 -2.30 2.30 -1.95 0.15 0.15 -0.20 0.75 -0.75 1.30 -1.15 1.15 -1.55 1.30 -1.55 0.65z"/>
  <path d="M20.10 5.40 c0.10 -0.30 0.70 -0.90 1.30 -1.30 1 -0.65 1.10 -0.65 1.10 0.10 0 0.45 -0.35 0.80 -0.75 0.80 -0.40 0 -0.75 0.25 -0.75 0.50 0 0.30 -0.25 0.50 -0.55 0.50 -0.30 0 -0.45 -0.25 -0.35 -0.60z"/>
 </g>
 <g fill="#614d3e">
  <path d="M9 39.70 c0 -0.15 0.30 -0.60 0.70 -1 0.40 -0.35 0.80 -0.95 0.95 -1.30 0.10 -0.35 0.35 -0.50 0.55 -0.35 0.50 0.45 -0.10 1.65 -1.20 2.35 -0.55 0.35 -1 0.50 -1 0.30z"/>
  <path d="M17.10 36.75 c-0.05 -1.45 0.10 -1.75 0.90 -1.75 0.80 0 1 0.35 1 1.75 0 1.35 -0.20 1.75 -0.90 1.75 -0.70 0 -0.95 -0.40 -1 -1.75z"/>
  <path d="M8.05 33.90 c-0.40 -1.05 -0.50 -1.10 -0.80 -0.25 -0.30 0.75 -0.50 0.80 -0.80 0.25 -0.75 -1.20 -0.45 -2.45 0.85 -3.65 2.15 -2 3.20 -1.55 1.20 0.50 -0.95 0.95 -1.40 1.75 -1.05 1.75 0.35 0 1.05 -0.50 1.55 -1.10 l0.95 -1.15 -0.30 1.15 c-0.15 0.60 -0.45 1.10 -0.70 1.10 -0.25 0 -0.35 0.55 -0.15 1.25 0.40 1.55 -0.20 1.65 -0.75 0.15z"/>
  <path d="M15 29 c0 -0.80 0.10 -1.50 0.25 -1.50 0.10 0 0.55 0.70 1 1.50 0.75 1.45 0.75 1.50 -0.25 1.50 -0.80 0 -1 -0.35 -1 -1.50z"/>
  <path d="M16.50 28.40 c0 -0.30 -0.35 -0.95 -0.80 -1.45 -0.70 -0.80 -0.70 -1.15 0.10 -3.90 0.55 -2 1.10 -3.05 1.60 -3.05 0.75 0 0.65 1.45 -0.15 3.65 -0.30 0.65 -0.15 0.80 0.55 0.55 0.90 -0.25 0.90 -0.25 0.10 0.30 -0.95 0.60 -1.25 2 -0.40 2 0.30 0 0.50 0.55 0.50 1.25 0 0.80 -0.30 1.25 -0.75 1.25 -0.40 0 -0.75 -0.25 -0.75 -0.60z"/>
  <path d="M21.35 23.60 c-0.75 -0.80 -0.80 -1.25 -0.40 -2.05 1.05 -1.90 0.50 -1.80 -0.70 0.20 -1.55 2.50 -1.65 1.75 -0.15 -1.35 1.20 -2.50 2.60 -3.10 3.15 -1.40 0.40 1.35 1.25 1.30 1.25 -0.10 0 -1.80 0.65 -0.55 0.70 1.35 0.05 1.60 -0.10 1.75 -1.30 1.75 -1.05 0 -1.35 0.25 -1.50 1.30 -0.15 1.30 -0.15 1.30 -1.05 0.30z"/>
  <path d="M28.85 23.50 c-0.35 -1.40 0.15 -3 0.95 -3 0.50 0 0.70 0.65 0.70 2 0 2.15 -1.15 2.85 -1.65 1z"/>
  <path d="M27.50 17.50 c-0.30 -0.50 -0.45 -1.15 -0.40 -1.35 0.25 -1 -0.70 -2.60 -1.40 -2.30 -0.60 0.20 -0.60 0.40 0.15 0.95 0.85 0.65 0.85 0.75 -0.05 1.45 -1.05 0.80 -1.80 0.60 -1.80 -0.55 0 -1.05 -1.05 -0.85 -1.35 0.30 -0.30 1.15 -0.60 1.20 -1.70 0.35 -0.65 -0.55 -0.80 -1.55 -0.50 -4.20 0.05 -0.75 1.55 -0.90 1.55 -0.15 0 0.30 0.35 0.50 0.75 0.50 0.40 0 0.75 -0.35 0.75 -0.80 0 -0.60 0.30 -0.75 1.15 -0.50 0.60 0.15 1.25 0.30 1.50 0.30 0.20 0 0.35 0.40 0.35 0.90 0 0.65 0.10 0.70 0.45 0.20 0.30 -0.55 0.50 -0.55 0.90 0 0.30 0.35 0.50 1 0.50 1.40 0 0.40 0.15 1.60 0.35 2.65 0.40 2 -0.30 2.55 -1.20 0.85z"/>
  <path d="M18.50 14.15 c0 -0.90 0.25 -1.65 0.50 -1.65 0.65 0 0.65 1.50 0 2.50 -0.35 0.55 -0.50 0.35 -0.50 -0.85z"/>
  <path d="M25.35 10.70 c-0.70 -0.70 -0.35 -2.10 0.65 -2.35 0.60 -0.15 1 0 1 0.35 0 0.90 -1.25 2.40 -1.65 2z"/>
  <path d="M13.60 9.65 c1.75 -3.70 2.35 -4.05 2.25 -1.40 -0.05 1.05 -0.20 1.50 -0.45 1.10 -0.30 -0.45 -0.40 -0.45 -0.40 0.05 0 0.30 -0.35 0.60 -0.80 0.60 -0.40 0 -0.70 -0.15 -0.60 -0.35z"/>
  <path d="M20.10 8.50 c-0.80 -1.30 -0.75 -1.50 0.15 -1.50 0.45 0 0.90 -0.65 1.10 -1.55 0.15 -0.95 0.70 -1.70 1.25 -1.80 0.50 -0.15 0.90 -0.70 0.90 -1.35 0 -1.40 1 -2.80 1.35 -1.90 0.10 0.30 0.55 0.60 0.95 0.60 0.40 0 0.70 0.25 0.70 0.50 0 0.30 -0.25 0.50 -0.55 0.50 -0.30 0 -0.40 0.40 -0.20 0.95 0.20 0.65 0 1 -0.75 1.20 -0.85 0.20 -1 0.45 -0.60 1.20 0.55 1 0.20 3.65 -0.45 3.65 -0.25 0 -0.45 -0.35 -0.45 -0.75 0 -0.40 -0.45 -0.75 -1 -0.75 -0.65 0 -1 0.35 -1 1 0 1.30 -0.60 1.30 -1.40 0z"/>
  <path d="M18.65 3.25 c1.45 -1.30 2.35 -1.60 2.35 -0.80 0 0.55 -2.25 2.05 -3.10 2.05 -0.35 0 0 -0.60 0.75 -1.25z"/>
 </g>
 <g fill="#854a22">
  <path d="M18 36.25 c0 -2.10 -0.20 -3.75 -0.50 -3.75 -0.25 0 -0.35 -0.30 -0.20 -0.70 0.15 -0.40 -0.15 -0.80 -0.75 -0.95 -1.35 -0.35 -1.65 0.75 -1.25 4 0.20 1.85 0.15 2.65 -0.25 2.65 -1.45 0 -2.10 -6.20 -0.95 -8.75 0.75 -1.65 1.10 -1.60 2.35 0.50 0.55 0.95 1.20 1.75 1.45 1.75 0.25 0 0.90 -1.45 1.40 -3.25 0.50 -1.80 1.05 -3.25 1.25 -3.25 0.15 0 0.95 0.65 1.75 1.50 0.80 0.80 1.80 1.50 2.20 1.50 0.65 0 0.65 -0.05 0 -0.55 -0.55 -0.40 -0.45 -0.45 0.50 -0.15 1.80 0.50 2.10 1.15 1.75 4.35 -0.50 4.60 -1.10 5.50 -2.10 3 l-0.55 -1.40 -0.05 1.30 c-0.05 0.75 -0.40 1.60 -0.80 1.95 -0.65 0.50 -0.85 0.35 -1.50 -1.20 -1.10 -2.55 -1.75 -1.80 -1.75 2 0 2.85 -0.10 3.20 -1 3.20 -0.90 0 -1 -0.35 -1 -3.75z m4 -5.25 c0 -0.25 0.70 -0.50 1.50 -0.50 0.85 0 1.50 -0.20 1.50 -0.50 0 -0.25 -0.90 -0.50 -2 -0.50 -1.10 0 -2 0.10 -2 0.20 0 0.10 -0.15 0.55 -0.30 1 -0.20 0.55 -0.05 0.80 0.50 0.80 0.45 0 0.80 -0.20 0.80 -0.50z"/>
  <path d="M27.55 38.90 c0.40 -0.70 0.65 -3.30 0.65 -6.75 0 -3.25 0.20 -5.45 0.45 -5.30 0.25 0.15 0.30 -0.20 0.10 -0.80 -0.25 -0.80 -0.10 -1.05 0.50 -1.05 0.75 0 0.80 0.50 0.55 4.40 -0.75 10.20 -0.80 10.60 -1.85 10.60 -0.85 0 -0.90 -0.15 -0.40 -1.10z"/>
  <path d="M16.30 27.75 c-0.45 -0.70 -1.20 -1.25 -1.70 -1.25 -0.75 -0.05 -0.75 -0.10 -0.10 -0.65 1.10 -0.85 3 -7.45 2.60 -8.95 -0.05 -0.25 0.35 -0.40 0.95 -0.40 0.95 0 1 0.20 0.70 2.05 -0.20 1.15 -0.70 2.85 -1.05 3.75 -1 2.35 -0.90 2.55 0.55 1.20 0.70 -0.65 1.25 -0.95 1.25 -0.60 0 0.30 -0.70 1.05 -1.55 1.65 -1.40 1 -1.50 1.20 -0.75 1.70 0.85 0.65 1.15 2.75 0.35 2.75 -0.25 0 -0.80 -0.55 -1.25 -1.25z"/>
  <path d="M22.25 24.30 c-1.20 -0.90 -1 -1.10 1.40 -1.55 1.65 -0.35 1.85 -0.25 1.85 0.70 0 0.55 -0.20 1.05 -0.45 1.05 -0.25 0 -0.75 0.10 -1.15 0.25 -0.35 0.15 -1.10 -0.05 -1.65 -0.45z"/>
  <path d="M27.15 15.50 c-0.70 -1.80 -0.30 -3.75 0.60 -3 0.65 0.55 1 4.50 0.35 4.50 -0.20 0 -0.65 -0.65 -0.95 -1.50z"/>
  <path d="M25.50 15.85 c0 -0.65 -0.45 -0.85 -1.75 -0.85 -1.40 0 -1.75 -0.20 -1.75 -1 0 -0.55 -0.20 -1 -0.50 -1 -0.25 0 -0.50 0.55 -0.50 1.25 0 0.70 -0.20 1.25 -0.45 1.25 -0.20 0 -0.35 -0.50 -0.25 -1.10 0.65 -4.55 0.75 -4.90 1.70 -4.90 0.55 0 1 0.35 1 0.75 0 0.40 0.45 0.75 1 0.75 0.55 0 1 0.25 1 0.50 0 0.30 -0.20 0.50 -0.50 0.50 -0.25 0 -0.50 0.40 -0.50 0.90 0 0.70 0.20 0.65 0.95 -0.35 0.65 -0.85 1 -1 1.30 -0.60 0.20 0.35 -0.05 1.05 -0.50 1.55 -0.75 0.85 -0.75 0.95 0.10 1.40 0.70 0.45 0.80 0.65 0.30 1.15 -0.55 0.55 -0.65 0.50 -0.65 -0.20z"/>
  <path d="M17.50 14.80 c0 -1.20 1.25 -2.70 1.80 -2.15 0.15 0.15 0.15 0.95 -0.05 1.80 -0.40 1.85 -1.75 2.10 -1.75 0.35z"/>
 </g>
 <g fill="#a23d36">
  <path d="M17.65 38.90 c-0.25 -0.35 -0.50 -2.05 -0.60 -3.75 -0.10 -2.90 -0.05 -3.15 0.90 -3.15 0.95 0 1.05 0.30 1.05 3.75 0 3.60 -0.35 4.45 -1.35 3.15z"/>
  <path d="M10.25 38 c0.25 -0.95 0 -1.55 -0.95 -2.50 -0.75 -0.65 -1.30 -1.45 -1.30 -1.85 0 -1 -1 -0.80 -1.05 0.25 0 0.60 -0.15 0.50 -0.50 -0.35 -0.60 -1.50 -0.25 -2.55 0.85 -2.55 0.80 0 0.75 0.10 -0.05 1 -0.90 1 -0.90 1.05 0.05 0.65 0.50 -0.20 1.35 -0.85 1.85 -1.50 0.50 -0.65 1.40 -1.15 2 -1.10 1 0.05 0.95 0.10 -0.25 0.60 -0.80 0.30 -1.40 0.80 -1.40 1.15 0 0.35 -0.30 0.70 -0.60 0.85 -0.45 0.15 -0.35 0.55 0.40 1.40 2 2.25 2.40 3.45 1.45 4.40 -0.75 0.75 -0.80 0.70 -0.50 -0.45z"/>
  <path d="M14.15 36.75 c-0.45 -1.40 -0.40 -1.75 0.10 -1.75 0.70 0 1.25 1.10 1.25 2.55 0 1.55 -0.80 1.10 -1.35 -0.80z"/>
  <path d="M22.15 35.90 c-0.25 -0.35 -0.65 -1.15 -0.80 -1.75 -0.20 -0.95 -0.05 -1.15 0.90 -1.15 1.35 0 1.95 1.55 1.05 2.75 -0.50 0.70 -0.70 0.70 -1.15 0.15z"/>
  <path d="M14.50 29.50 c0 -0.95 0.25 -1.50 0.70 -1.50 1.05 0 1.40 1.45 0.60 2.30 -1.05 1.05 -1.30 0.90 -1.30 -0.80z"/>
  <path d="M16.85 28.65 c-0.60 -0.55 -0.40 -1.15 0.40 -1.15 0.40 0 0.75 0.35 0.75 0.75 0 0.80 -0.60 1 -1.15 0.40z"/>
  <path d="M11.45 21.15 c0.70 -1.40 0.70 -1.65 -0.20 -1.65 -0.50 0 -0.35 -0.40 0.50 -1.30 0.70 -0.75 1.25 -1.50 1.25 -1.75 0 -0.20 0.15 -0.80 0.35 -1.30 0.30 -0.80 0.20 -0.80 -0.85 0.10 l-1.15 1 0.40 -1 c0.20 -0.55 0.45 -1.60 0.50 -2.30 0.15 -1.30 3 -6.75 3.85 -7.25 1.05 -0.65 0.90 0.35 -0.30 2.45 -0.70 1.20 -1.30 2.40 -1.30 2.65 0 0.25 0.60 -0.55 1.35 -1.80 1.55 -2.65 2.65 -4 3.25 -4 0.25 0 -0.10 0.75 -0.75 1.65 -1.25 1.65 -4.85 10.85 -4.85 12.35 0 0.45 -0.60 1.35 -1.30 2.05 -1.25 1.15 -1.30 1.15 -0.75 0.10z"/>
  <path d="M25 15.25 c0 -0.45 0.30 -0.60 0.75 -0.45 0.40 0.20 0.75 0.50 0.75 0.75 0 0.25 -0.35 0.45 -0.75 0.45 -0.40 0 -0.75 -0.35 -0.75 -0.75z"/>
  <path d="M27.15 15 c-0.70 -1.05 -0.35 -2.65 0.50 -2.35 0.60 0.20 0.95 3.35 0.40 3.35 -0.15 0 -0.60 -0.45 -0.90 -1z"/>
  <path d="M17.55 13.95 c1.15 -1.65 2.10 -1.40 1.65 0.45 -0.25 0.75 -0.70 1.10 -1.55 1.10 l-1.20 0 1.10 -1.55z"/>
  <path d="M25 13.15 c0 -1.25 0.75 -1.90 1.25 -1.10 0.20 0.30 0 0.90 -0.45 1.35 -0.75 0.75 -0.80 0.75 -0.80 -0.25z"/>
  <path d="M23.50 11.50 c0 -0.25 0.35 -0.50 0.75 -0.50 0.40 0 0.75 0.25 0.75 0.50 0 0.30 -0.35 0.50 -0.75 0.50 -0.40 0 -0.75 -0.20 -0.75 -0.50z"/>
  <path d="M25.25 10.40 c-0.40 -1.05 0.05 -1.90 1.05 -1.90 0.90 0 0.90 0.55 0 1.80 -0.65 0.85 -0.75 0.90 -1.05 0.10z"/>
  <path d="M17 4.80 c0 -0.65 1 -1.30 2.05 -1.30 0.70 0 0.05 0.90 -1.10 1.50 -0.75 0.40 -0.95 0.35 -0.95 -0.20z"/>
 </g>
 <g fill="#865839">
  <path d="M14.40 37.90 c-0.25 -2.40 -0.20 -2.65 0.55 -2.15 0.65 0.40 0.75 4.25 0.10 4.25 -0.25 0 -0.55 -0.95 -0.65 -2.10z"/>
  <path d="M28.40 35.40 c0.30 -5.65 1 -6.60 0.85 -1.20 -0.10 2.45 -0.35 4.60 -0.60 4.85 -0.30 0.30 -0.40 -1.05 -0.25 -3.65z"/>
  <path d="M9.30 35.45 c-1.80 -2.15 -1.65 -3 0.20 -0.95 1.35 1.50 1.85 2.50 1.30 2.50 -0.10 0 -0.80 -0.70 -1.50 -1.55z"/>
  <path d="M21.95 35.90 c0 -0.10 -0.10 -0.55 -0.20 -1.10 -0.10 -0.50 -0.40 -1.15 -0.65 -1.40 -0.70 -0.70 -1.75 0.05 -1.40 0.95 0.15 0.40 0.05 0.55 -0.20 0.40 -0.30 -0.15 -0.50 -0.65 -0.50 -1.05 0 -0.40 -0.45 -0.70 -1 -0.70 -1.25 0 -1.30 -0.70 -0.05 -1.85 0.55 -0.50 1.10 -1.50 1.30 -2.25 0.50 -2.05 1.75 -1.80 1.75 0.35 0 1.40 0.20 1.75 1 1.75 0.70 0 1 0.35 1 1.15 0 0.65 0.25 1.40 0.50 1.65 0.70 0.70 0.10 2.20 -0.80 2.20 -0.40 0 -0.70 -0.05 -0.75 -0.10z"/>
  <path d="M25.10 34.05 c-0.50 -1.40 -0.45 -1.55 0.45 -1.55 1 0 1.25 1.20 0.50 2.40 -0.30 0.50 -0.55 0.30 -0.95 -0.85z"/>
  <path d="M8.50 32.05 c0 -0.65 1.45 -1.75 1.85 -1.35 0.15 0.15 0.05 0.30 -0.25 0.30 -0.35 0 -0.60 0.35 -0.60 0.75 0 0.40 -0.20 0.75 -0.50 0.75 -0.25 0 -0.50 -0.20 -0.50 -0.45z"/>
  <path d="M13 31.25 c0 -1.20 1.55 -3.25 2.45 -3.25 0.60 0 0.65 0.10 0.15 0.45 -0.55 0.35 -0.50 0.45 0.15 0.75 0.75 0.25 0.75 0.35 0.05 1.10 -0.45 0.40 -0.80 1 -0.80 1.25 0 0.25 -0.45 0.45 -1 0.45 -0.55 0 -1 -0.35 -1 -0.75z"/>
  <path d="M28 28.05 c0 -1.25 0.15 -1.45 0.90 -1.20 0.70 0.30 0.75 0.20 0.20 -0.45 -0.80 -1 -0.25 -3.90 0.75 -3.90 0.60 0 0.65 0.45 0.35 2.15 -0.20 1.15 -0.35 2.65 -0.40 3.35 -0.05 0.75 -0.40 1.30 -0.90 1.40 -0.70 0.15 -0.90 -0.15 -0.90 -1.35z"/>
  <path d="M17.15 28.65 c-0.35 -0.15 -0.65 -0.55 -0.65 -0.95 0 -0.35 -0.55 -0.80 -1.25 -1 -1.40 -0.35 -1.60 -0.95 -0.55 -1.55 0.35 -0.20 0.85 -1.05 1.15 -1.90 0.25 -0.80 0.85 -1.55 1.30 -1.65 0.70 -0.15 0.70 0.10 0.10 2.10 -0.60 2 -0.60 2.35 0.05 2.70 0.90 0.50 0.75 2.55 -0.15 2.25z"/>
  <path d="M18 24.15 c0 -0.35 0.20 -0.75 0.50 -0.90 0.25 -0.15 0.85 -1.05 1.30 -2 0.45 -0.95 1.05 -1.75 1.30 -1.75 0.25 0 0 0.85 -0.65 1.90 -1.40 2.30 -2.45 3.50 -2.45 2.75z"/>
  <path d="M21.60 23.90 c-0.80 -0.80 -0.75 -2.65 0.05 -3.50 0.40 -0.35 0.80 -1 1 -1.40 0.20 -0.55 0.35 -0.50 0.60 0.35 0.20 0.60 0.65 0.95 1 0.85 0.35 -0.15 0.75 0.25 0.95 0.90 0.45 1.80 0.35 2.40 -0.45 2.40 -0.40 0 -0.75 0.25 -0.75 0.50 0 0.70 -1.65 0.65 -2.40 -0.10z"/>
  <path d="M11.85 20.15 c0.25 -0.60 0.10 -0.75 -0.50 -0.50 -1.20 0.45 -1.05 -0.30 0.15 -1.05 0.90 -0.55 1 -0.50 1 0.90 0 0.80 -0.20 1.50 -0.50 1.50 -0.25 0 -0.30 -0.40 -0.15 -0.85z"/>
  <path d="M17.10 18.10 c0.05 -0.75 -0.05 -1.65 -0.25 -2 -0.50 -0.75 1.70 -3.75 2.30 -3.15 0.25 0.25 0.20 0.90 -0.15 1.50 -0.30 0.60 -0.40 1.30 -0.25 1.55 0.20 0.30 0.20 1.20 0 2 -0.45 1.95 -1.80 2.05 -1.65 0.10z"/>
  <path d="M20.45 15.65 c-0.05 -0.25 -0.05 -0.55 -0.05 -0.70 0.05 -0.20 0.10 -1.70 0.15 -3.40 0.05 -1.70 0.25 -3.05 0.40 -3.05 0.20 0 0.25 -0.80 0.15 -1.75 -0.25 -2.30 0.50 -3.15 2.80 -3.10 1 0 1.45 0.10 0.95 0.25 -0.65 0.10 -0.80 0.45 -0.60 1 0.40 0.95 0.45 1.35 0.35 3.05 -0.10 0.85 -0.35 1.10 -0.95 0.95 -0.70 -0.20 -0.90 0.05 -0.90 1.15 0 1.20 0.15 1.35 1.15 1.10 0.65 -0.15 1.10 -0.05 1.10 0.30 0 0.30 -0.20 0.55 -0.45 0.55 -0.25 0 -0.85 0.90 -1.35 2 -0.55 1.25 -1.20 2 -1.80 2 -0.50 0 -0.95 -0.15 -0.95 -0.35z"/>
  <path d="M27.05 14.60 c-0.55 -1 0.15 -2.60 0.80 -1.90 0.50 0.50 0.55 2.80 0.05 2.80 -0.20 0 -0.60 -0.40 -0.85 -0.90z"/>
  <path d="M25.05 12.45 c0.35 -0.70 0.70 -0.90 1.05 -0.55 0.65 0.65 0.10 1.60 -0.90 1.60 -0.60 0 -0.65 -0.20 -0.15 -1.05z"/>
  <path d="M25.20 9.95 c-0.15 -0.30 -0.10 -0.75 0.20 -1.05 0.30 -0.30 0.55 -0.10 0.75 0.55 0.25 1.10 -0.35 1.45 -0.95 0.50z"/>
  <path d="M27.50 7.65 c0 -0.25 0.45 -0.90 1 -1.40 0.55 -0.50 1 -0.70 1 -0.40 0 0.25 -0.45 0.90 -1 1.40 -0.55 0.50 -1 0.70 -1 0.40z"/>
  <path d="M16.50 5.55 c0 -0.95 3.45 -3.55 4.75 -3.55 1.15 0 0.90 0.85 -0.35 1.20 -0.65 0.15 -1.90 0.95 -2.75 1.75 -1.40 1.25 -1.65 1.35 -1.65 0.60z"/>
 </g>
 <g fill="#a55929">
  <path d="M17.75 39.15 c-0.30 -0.50 -0.40 -2.45 -0.25 -4.40 0.25 -3.40 0.30 -3.50 1.65 -3.65 1.15 -0.15 1.30 -0.35 1.05 -1.40 -0.40 -1.50 0.20 -4.70 0.80 -4.70 0.30 0 0.50 0.70 0.50 1.55 0 0.90 0.20 1.40 0.50 1.20 0.30 -0.20 0.40 -0.55 0.25 -0.80 -0.55 -0.80 0.35 -0.45 1.05 0.45 0.55 0.70 0.80 0.75 1.65 0.25 0.60 -0.35 1.15 -0.65 1.30 -0.65 0.45 0 0.25 6.75 -0.25 7.50 -0.35 0.55 -0.55 0.45 -0.95 -0.60 -0.75 -2.05 -1.60 -2.25 -1.45 -0.35 0.10 1.25 -0.05 1.70 -0.75 1.85 -0.60 0.15 -0.95 -0.25 -1.15 -1.35 -0.20 -0.85 -0.50 -1.55 -0.70 -1.55 -0.85 0 -1.25 1.45 -1.25 4.35 0 2.50 -0.15 3.15 -0.75 3.15 -0.40 0 -1 -0.40 -1.25 -0.85z"/>
  <path d="M28.60 34.40 c0.05 -2.70 0.25 -4.90 0.45 -4.90 0.35 0 0.05 8.25 -0.30 9.25 -0.15 0.30 -0.20 -1.70 -0.15 -4.35z"/>
  <path d="M13.80 35.45 c-0.75 -2.65 -0.80 -3.25 -0.20 -5.10 0.70 -2.20 2.10 -3.05 2.50 -1.50 0.15 0.50 -0.05 1.20 -0.45 1.60 -0.50 0.45 -0.65 1.65 -0.55 4.05 0.05 1.90 0 3.60 -0.15 3.70 -0.15 0.15 -0.65 -1.10 -1.15 -2.75z"/>
  <path d="M16.55 27.90 c-0.35 -1 0.15 -1.95 0.65 -1.35 0.55 0.65 0.80 2.45 0.30 2.45 -0.30 0 -0.70 -0.50 -0.95 -1.10z"/>
  <path d="M17.50 14.95 c0 -0.30 0.25 -1 0.55 -1.55 0.65 -1.25 1.50 -0.35 1.10 1.15 -0.30 1 -1.65 1.35 -1.65 0.40z"/>
  <path d="M20.40 14 c0.10 -0.80 0.30 -1.50 0.40 -1.50 0.10 0 0.20 0.70 0.20 1.50 0 0.85 -0.20 1.50 -0.40 1.50 -0.25 0 -0.35 -0.65 -0.20 -1.50z"/>
  <path d="M25.25 9.95 c-0.35 -0.50 2.50 -3.45 3.35 -3.45 0.55 0 -2.15 3.95 -2.70 4 -0.20 0 -0.50 -0.25 -0.65 -0.55z"/>
 </g>
 <g fill="#7b6855">
  <path d="M17.75 39.15 c-0.20 -0.50 -0.40 -2.30 -0.45 -4.05 -0.10 -2.50 0.05 -3.30 0.80 -3.95 0.90 -0.80 0.95 -0.70 0.85 4 -0.05 4.65 -0.45 5.85 -1.20 4z"/>
  <path d="M10 38.65 c0 -0.35 0.25 -0.75 0.50 -0.90 0.40 -0.25 0.35 -0.55 -0.05 -1.05 -0.35 -0.40 -0.35 -0.70 -0.05 -0.70 0.90 0 1.15 1.65 0.35 2.45 -0.45 0.45 -0.75 0.55 -0.75 0.20z"/>
  <path d="M13.55 34.65 c-0.75 -2.65 -0.70 -3.15 0.35 -3.15 0.75 0 0.95 0.45 1 2.50 0.05 2.95 -0.65 3.25 -1.35 0.65z"/>
  <path d="M6.25 33 c-0.40 -1.20 0.05 -2 1.10 -2 0.70 0 0.75 0.10 0.05 0.90 -0.45 0.45 -0.65 1.15 -0.55 1.50 0.15 0.30 0.10 0.60 0 0.60 -0.15 0 -0.40 -0.45 -0.60 -1z"/>
  <path d="M9.75 30.50 c0.15 -0.25 0.80 -0.50 1.40 -0.45 1.05 0 1.05 0.05 0.10 0.45 -1.40 0.60 -1.85 0.60 -1.50 0z"/>
  <path d="M8.60 29.70 c0.20 -1.20 3.05 -2.80 4.50 -2.60 1.10 0.20 1.05 0.25 -0.35 0.90 -0.80 0.40 -2.15 1.15 -2.95 1.65 -1.35 0.95 -1.40 0.95 -1.20 0.05z"/>
  <path d="M28.60 29.90 c-0.90 -0.90 -0.80 -3.45 0.10 -3.10 1 0.40 1.35 1.50 0.90 2.70 -0.30 0.80 -0.50 0.90 -1 0.40z"/>
  <path d="M14 29 c0.65 -1.15 1 -1.30 1 -0.30 0 0.40 -0.35 0.80 -0.75 1 -0.65 0.20 -0.70 0.10 -0.25 -0.70z"/>
  <path d="M14 26.10 c0 -0.20 0.45 -0.75 1 -1.25 0.95 -0.80 1 -0.80 1 0.40 0 0.90 -0.25 1.25 -1 1.25 -0.55 0 -1 -0.15 -1 -0.40z"/>
  <path d="M28.85 26.15 c-0.60 -0.55 -0.40 -1.15 0.40 -1.15 0.40 0 0.75 0.35 0.75 0.75 0 0.80 -0.60 1 -1.15 0.40z"/>
  <path d="M21.75 23.85 c-0.70 -0.55 -0.80 -1.05 -0.55 -2.15 0.20 -0.80 0.65 -1.60 0.95 -1.80 0.45 -0.30 0.45 -0.40 0 -0.40 -0.30 0 -1.05 0.80 -1.65 1.80 -1.60 2.55 -1.85 1.70 -0.25 -1 0.75 -1.25 1.65 -2.30 2.05 -2.30 0.80 0 0.75 -0.15 1 3.65 0.15 3 -0.05 3.25 -1.55 2.20z"/>
  <path d="M13.35 17.15 c-0.50 -0.50 -0.40 -1.75 0.10 -1.45 0.25 0.20 0.60 0 0.70 -0.30 0.20 -0.45 0.30 -0.40 0.30 0.10 0.05 1 -0.70 2.10 -1.10 1.65z"/>
  <path d="M20.65 15.95 c-0.25 -0.25 -0.35 -1.20 -0.20 -2.05 0.25 -1.20 0.70 -1.65 2.30 -2.20 1.10 -0.35 2.05 -0.70 2.15 -0.70 0.05 0 -0.25 0.55 -0.70 1.25 -0.45 0.70 -0.60 1.25 -0.30 1.25 0.30 0 0.80 -0.45 1.15 -1.05 0.40 -0.75 0.70 -0.90 1.10 -0.50 0.35 0.35 0.30 0.80 -0.35 1.50 -0.80 0.90 -0.80 1 0 1.45 0.45 0.25 0.70 0.70 0.50 1.05 -0.50 0.80 -2.30 0.65 -2.30 -0.20 0 -0.40 -0.35 -0.75 -0.75 -0.75 -0.40 0 -0.75 0.35 -0.75 0.75 0 0.85 -1.05 1 -1.85 0.20z"/>
  <path d="M11.50 15.70 c0 -0.75 1.35 -2.50 1.70 -2.15 0.20 0.15 -0.10 0.85 -0.65 1.50 -0.55 0.65 -1 0.95 -1.05 0.65z"/>
  <path d="M26.85 14.35 c-0.35 -0.90 0.40 -2.05 1.05 -1.65 0.55 0.35 0.20 2.30 -0.40 2.30 -0.20 0 -0.50 -0.30 -0.65 -0.65z"/>
  <path d="M20.75 10.50 c0.15 -0.25 0.05 -0.95 -0.25 -1.50 -0.40 -0.75 -0.40 -1.25 -0.05 -1.70 0.30 -0.30 0.40 -1.10 0.20 -1.70 -0.20 -0.85 0.05 -1.20 1.15 -1.60 1.70 -0.65 3.05 0.25 1.60 1.05 -0.50 0.30 -0.90 0.75 -0.90 1.05 0 0.35 0.25 0.30 0.75 -0.10 0.65 -0.55 0.75 -0.40 0.75 0.70 0 0.80 -0.25 1.30 -0.75 1.30 -0.50 0 -0.75 0.50 -0.75 1.50 0 1.20 -0.20 1.50 -1.05 1.50 -0.55 0 -0.85 -0.20 -0.70 -0.50z"/>
  <path d="M23.75 3 c-0.15 -0.55 -0.20 -1.45 0 -2 0.30 -0.95 0.75 -0.90 2.75 0.40 0.10 0.10 -0.10 0.35 -0.50 0.60 -0.55 0.35 -0.55 0.55 -0.05 1.20 0.60 0.70 0.50 0.80 -0.60 0.80 -0.85 0 -1.40 -0.35 -1.60 -1z"/>
 </g>
 <g fill="#a4744d">
  <path d="M14.55 38.15 c0.05 -1.70 0.10 -1.75 0.45 -0.65 0.55 1.80 0.55 2.50 0 2.50 -0.25 0 -0.50 -0.85 -0.45 -1.85z"/>
  <path d="M18 39.25 c0 -0.40 -0.20 -0.75 -0.40 -0.75 -0.20 0 -0.30 -0.80 -0.20 -1.75 0.15 -1.35 0.45 -1.75 1.20 -1.75 0.90 0 1 0.20 0.65 1.65 -0.20 0.85 -0.35 2 -0.35 2.50 0.05 0.45 -0.15 0.85 -0.45 0.85 -0.25 0 -0.45 -0.35 -0.45 -0.75z"/>
  <path d="M13.85 35.65 c-0.15 -0.25 -0.40 -1.35 -0.60 -2.50 -0.30 -1.95 -0.25 -2.15 0.65 -2.15 0.90 0 1 0.30 0.95 2.50 -0.10 2.30 -0.45 3.10 -1 2.15z"/>
  <path d="M22 35.05 c-0.25 -0.55 -0.50 -1.35 -0.50 -1.75 0 -1.05 -1.80 -1.05 -2.40 0 -0.25 0.45 -0.70 0.70 -1.05 0.50 -0.85 -0.55 -0.65 -2.05 0.45 -3.05 0.65 -0.60 1 -1.65 1.10 -3.45 0.10 -1.85 0.35 -2.55 0.90 -2.55 0.45 0 0.80 0.55 0.90 1.25 0.20 2.20 1.75 7.75 2.20 8.05 0.50 0.35 0 1.95 -0.65 1.95 -0.20 0 -0.65 -0.45 -0.95 -0.95z"/>
  <path d="M25.35 34.30 c-0.55 -1.45 -0.40 -2.65 0.40 -3 0.80 -0.30 1 1.20 0.30 2.90 -0.35 0.90 -0.40 0.90 -0.70 0.10z"/>
  <path d="M6 32.15 c0.05 -0.80 1.40 -2.15 2.20 -2.15 0.65 0 0.60 0.20 -0.30 1.25 -1.05 1.20 -1.90 1.60 -1.90 0.90z"/>
  <path d="M28.65 30.15 c-0.85 -1.80 -0.80 -3.15 0.05 -3.15 0.90 0 1.15 0.90 0.80 2.85 l-0.25 1.65 -0.60 -1.35z"/>
  <path d="M25.75 28.85 c-0.20 -0.50 -0.25 -1.05 -0.05 -1.20 0.50 -0.50 0.90 0.20 0.65 1.20 -0.20 0.85 -0.20 0.85 -0.60 0z"/>
  <path d="M16.50 27.80 c-0.25 -0.70 -0.95 -1.30 -1.55 -1.40 -1.05 -0.15 -1.10 -0.20 -0.30 -1 0.45 -0.45 0.85 -1.05 0.85 -1.35 0 -0.30 0.25 -0.55 0.50 -0.55 0.50 0 0.70 0.65 0.55 1.80 -0.05 0.30 0.30 0.85 0.70 1.20 0.85 0.70 1 2.50 0.25 2.50 -0.30 0 -0.75 -0.55 -1 -1.20z"/>
  <path d="M28.80 26.05 c-0.55 -0.85 0.30 -3.55 1.05 -3.55 0.55 0 0.70 0.35 0.45 1.15 -0.15 0.60 -0.30 1.50 -0.30 2 0 0.90 -0.75 1.15 -1.20 0.40z"/>
  <path d="M21.80 23.55 c-0.95 -1 -0.70 -2.95 0.40 -3.65 0.35 -0.25 0.30 -0.40 -0.25 -0.40 -0.40 0 -1.25 1 -1.85 2.25 -0.60 1.25 -1.30 2.25 -1.55 2.25 -0.25 0 0.35 -1.35 1.30 -3 1.95 -3.20 2.95 -3.75 3.45 -1.75 0.15 0.70 0.60 1.25 0.95 1.25 0.75 0 1.50 2.70 1 3.50 -0.50 0.85 -2.55 0.55 -3.45 -0.45z m0.80 -1.15 c-0.30 -0.30 -0.75 -0.40 -0.95 -0.20 -0.20 0.20 -0.05 0.55 0.35 0.80 0.40 0.25 0.85 0.35 0.95 0.20 0.15 -0.10 -0.05 -0.50 -0.35 -0.80z"/>
  <path d="M28.85 21.15 c-0.10 -0.50 -0.40 -1.30 -0.60 -1.75 -0.25 -0.65 -0.10 -0.90 0.45 -0.90 0.85 0 1.80 1.45 1.80 2.70 0 1.10 -1.30 1 -1.65 -0.05z"/>
  <path d="M13.50 16.65 c0 -0.65 0.25 -1.15 0.50 -1.15 0.65 0 0.65 0.55 0 1.50 -0.40 0.60 -0.50 0.55 -0.50 -0.35z"/>
  <path d="M20.25 14.90 c0.65 -1.85 0.60 -5.65 -0.10 -6.75 -0.70 -1.05 -0.70 -1.15 0.05 -1.15 0.95 0 1.10 -0.80 0.20 -1.15 -1 -0.35 -0.35 -0.70 1.85 -1 1.65 -0.20 1.80 -0.20 0.90 0.25 -0.65 0.30 -1.15 0.75 -1.15 1 0 0.55 0.70 0.50 1.35 -0.15 0.30 -0.30 0.80 -0.40 1.05 -0.25 0.75 0.45 -0.10 3.05 -0.95 2.95 -0.45 -0.10 -0.70 0.40 -0.75 1.40 -0.05 1.35 0.05 1.50 1.15 1.20 1.15 -0.25 1.20 -0.25 0.35 1 -0.75 1.15 -0.75 1.25 0 1.25 0.45 0 0.80 -0.35 0.80 -0.75 0 -0.40 0.35 -0.75 0.75 -0.75 1.15 0 0.90 0.90 -0.55 1.85 -1.05 0.65 -1.60 0.75 -2.75 0.30 -0.80 -0.30 -1.45 -0.35 -1.45 -0.10 0 0.25 0.35 0.45 0.75 0.45 0.40 0 0.75 0.25 0.75 0.50 0 0.30 -0.55 0.50 -1.25 0.50 -0.75 0 -1.15 -0.25 -1 -0.60z"/>
  <path d="M27.10 14.65 c-0.50 -0.95 -0.25 -2.15 0.40 -2.15 0.20 0 0.50 0.70 0.60 1.50 0.25 1.65 -0.30 2 -1 0.65z"/>
  <path d="M25.25 10.05 c-0.30 -0.55 0.20 -1.15 3.25 -3.80 l1.15 -1 -0.55 1 c-1.10 2.05 -3.45 4.35 -3.85 3.80z"/>
  <path d="M16 9.15 c0 -0.75 2 -3.65 2.50 -3.65 0.30 0 -0.10 0.90 -0.80 2 -1.30 2 -1.70 2.35 -1.70 1.65z"/>
  <path d="M15.05 7.75 c0 -1.20 1.05 -2.75 1.90 -2.75 0.65 0 0.25 0.95 -1.15 2.75 l-0.75 1 0 -1z"/>
 </g>
 <g fill="#c16249">
  <path d="M10 38.65 c0 -0.30 0.25 -0.75 0.50 -0.90 0.30 -0.20 -0.10 -1.05 -1 -2.05 -0.80 -0.95 -1.50 -2 -1.50 -2.35 0 -0.35 0.55 0.10 1.25 0.90 2.10 2.50 2.30 3 1.50 4.05 -0.40 0.55 -0.75 0.70 -0.75 0.35z"/>
  <path d="M14.30 36.90 c-1.10 -3.50 -1.20 -4.40 -0.55 -4.40 0.40 0 0.80 0.95 1 2.55 0.40 2.70 0.10 3.75 -0.45 1.85z"/>
  <path d="M17.50 34.15 c0.05 -2.20 1.50 -4.30 2.70 -3.85 1 0.40 1.05 1.70 0.10 1.70 -0.90 0 -1.25 1 -0.95 2.65 0.20 1.10 0.10 1.35 -0.80 1.35 -0.90 0 -1.05 -0.30 -1.05 -1.85z"/>
  <path d="M22.05 35.10 c-0.30 -0.55 -0.55 -1.40 -0.55 -1.80 0 -1.15 1.35 -0.95 2.05 0.25 0.45 0.85 0.40 1.25 -0.20 1.80 -0.65 0.70 -0.80 0.65 -1.30 -0.25z"/>
  <path d="M25 33.05 c0 -0.50 0.35 -1.20 0.75 -1.55 0.65 -0.55 0.65 -0.40 0.20 0.95 -0.60 1.75 -0.95 2 -0.95 0.60z"/>
  <path d="M6 32.15 c0.05 -0.55 1.30 -2.15 1.70 -2.15 0.55 0 0.30 1.05 -0.40 1.80 -0.80 0.75 -1.30 0.90 -1.30 0.35z"/>
  <path d="M8.50 32.20 c0 -0.85 1.70 -2.20 2.80 -2.15 0.80 0 0.75 0.10 -0.25 0.50 -0.65 0.25 -1.50 0.85 -1.85 1.35 -0.35 0.45 -0.70 0.60 -0.70 0.30z"/>
  <path d="M8.50 29.75 c0 -0.80 1.10 -1.50 1.95 -1.15 0.25 0.05 -0.10 0.55 -0.75 1.05 -1.05 0.80 -1.20 0.80 -1.20 0.10z"/>
  <path d="M11.80 20.25 c0.20 -0.40 0.05 -0.75 -0.30 -0.75 -0.45 0 -0.40 -0.25 0.15 -0.90 0.45 -0.50 1.35 -2.35 2.05 -4.10 1.65 -4.45 2.40 -6 2.85 -6 0.20 0 -0.40 2.20 -1.35 4.90 -0.95 2.65 -1.80 5.25 -1.95 5.75 -0.25 1.20 -0.75 1.85 -1.25 1.85 -0.25 0 -0.35 -0.35 -0.20 -0.75z"/>
  <path d="M12.05 14.65 c0.25 -0.85 0.45 -1.70 0.40 -1.95 -0.05 -0.25 -0.05 -0.65 0 -0.95 0.05 -0.65 2.55 -3.55 2.55 -3 0 0.95 -2.20 6.30 -2.80 6.80 -0.55 0.45 -0.60 0.30 -0.15 -0.90z"/>
 </g>
 <g fill="#98887b">
  <path d="M17.35 37.55 c0.15 -0.60 0.60 -1.05 1 -1.05 1 0 0.60 1.70 -0.45 1.90 -0.60 0.10 -0.75 -0.10 -0.55 -0.85z"/>
  <path d="M10.25 36.50 c-0.50 -0.55 -0.65 -1 -0.35 -1 0.30 0 0.80 0.45 1.10 1 0.30 0.55 0.45 1 0.35 1 -0.10 0 -0.60 -0.45 -1.10 -1z"/>
  <path d="M14.40 36.70 c-0.25 -0.20 -0.40 -0.80 -0.40 -1.40 0 -0.70 0.15 -0.85 0.55 -0.45 0.30 0.30 0.45 0.95 0.35 1.40 -0.05 0.45 -0.30 0.65 -0.50 0.45z"/>
  <path d="M6.50 31.90 c0 -0.95 0.50 -1.55 2.65 -3.10 1 -0.80 2.60 -1.50 3.50 -1.60 1.55 -0.15 1.55 -0.15 -0.65 1 -1.25 0.65 -3 1.90 -3.85 2.75 -0.90 0.85 -1.65 1.30 -1.65 0.95z"/>
  <path d="M16.90 28.70 c-0.45 -0.40 0.15 -2.20 0.65 -1.90 0.55 0.35 0.60 2.20 0.05 2.20 -0.25 0 -0.55 -0.15 -0.70 -0.30z"/>
  <path d="M29.15 26.15 c-0.75 -0.25 -0.90 -1.65 -0.15 -1.65 0.25 0 0.35 -0.35 0.20 -0.75 -0.20 -0.45 0 -0.75 0.50 -0.75 0.60 0 0.70 0.35 0.45 1.65 -0.35 1.90 -0.25 1.75 -1 1.50z"/>
  <path d="M21.65 20.90 c0.20 -0.70 1.80 -0.60 2.60 0.15 0.25 0.25 -0.20 0.45 -1.20 0.45 -1.10 0 -1.55 -0.20 -1.40 -0.60z"/>
  <path d="M21.70 19.30 c-0.90 -0.70 -0.90 -0.75 0 -1.10 0.55 -0.20 1.05 -0.10 1.35 0.35 0.95 1.55 0.25 1.90 -1.35 0.75z"/>
  <path d="M27.80 18.40 c-0.40 -1.60 -0.35 -2.40 0.10 -2.40 0.45 0 1.60 2.20 1.60 3 0 1 -1.40 0.45 -1.70 -0.60z"/>
  <path d="M17.20 17.65 c-0.05 -0.50 -0.15 -1.25 -0.25 -1.65 -0.15 -0.45 0.25 -0.80 0.95 -0.90 1.05 -0.15 1.15 0 1 1.50 -0.15 1.75 -1.65 2.65 -1.70 1.05z"/>
  <path d="M13.20 16.35 c0.15 -0.55 0.45 -1.50 0.60 -2.15 0.15 -0.65 0.50 -1.20 0.75 -1.20 0.85 0 0.45 1.90 -0.60 3.05 -0.80 0.95 -0.95 1 -0.75 0.30z"/>
  <path d="M20.85 16.10 c-0.50 -0.50 -0.75 -1.05 -0.65 -1.15 0.55 -0.55 0.80 -5.90 0.35 -6.20 -0.85 -0.50 -0.65 -1.75 0.35 -1.75 0.80 -0.05 0.80 -0.10 -0.10 -0.75 -1.15 -0.85 -0.65 -1.75 1 -1.75 0.65 0 1.20 -0.25 1.20 -0.55 0 -0.25 0.25 -0.35 0.50 -0.20 0.80 0.50 0.60 1.15 -0.50 1.50 -0.55 0.15 -1 0.55 -1 0.85 0 0.25 0.30 0.40 0.70 0.25 0.70 -0.30 1.65 1.95 1.05 2.55 -0.15 0.15 -0.25 0 -0.25 -0.30 0 -0.35 -0.35 -0.60 -0.75 -0.60 -0.60 0 -0.65 0.15 -0.15 0.95 0.45 0.75 0.45 1.15 0 1.70 -0.50 0.60 -0.45 0.80 0.20 1.05 0.55 0.20 0.70 0.65 0.55 1.35 -0.20 0.75 -0.10 0.95 0.50 0.75 0.40 -0.15 0.85 -0.30 0.95 -0.30 0.10 0 0.20 -0.35 0.20 -0.75 0 -0.40 0.35 -0.75 0.80 -0.75 1.15 0 0.60 1.10 -0.95 2 -1.10 0.60 -1.50 0.65 -2.35 0.10 -1.20 -0.75 -1.50 -0.75 -1.50 -0.10 0 0.30 0.35 0.50 0.75 0.50 0.45 0 0.75 0.45 0.75 1.25 0 1.50 -0.55 1.60 -1.65 0.35z"/>
  <path d="M24 15.80 c0 -0.55 0.45 -0.80 1.30 -0.80 1.55 0 1.40 1.15 -0.20 1.40 -0.75 0.10 -1.10 -0.10 -1.10 -0.60z"/>
  <path d="M12.30 13.55 c0.75 -2.90 2.05 -5.55 2.70 -5.55 0.30 0 0.15 0.85 -0.30 1.90 -0.45 1 -1 2.55 -1.25 3.40 -0.25 0.90 -0.75 1.85 -1.15 2.15 -0.55 0.45 -0.55 0.15 0 -1.90z"/>
  <path d="M15 11.15 c0.05 -0.65 1.45 -2.95 1.50 -2.40 0 1.05 -0.65 2.75 -1.05 2.75 -0.25 0 -0.45 -0.15 -0.45 -0.35z"/>
  <path d="M25.25 10.05 c-0.30 -0.55 0.55 -1.55 3 -3.55 0.85 -0.70 0.85 -0.70 0.35 0.25 -1.25 2.15 -2.95 3.85 -3.35 3.30z"/>
  <path d="M24 3.25 c-0.90 -1.10 -0.25 -2.25 1.30 -2.25 1.30 0 1.30 0.05 0.55 0.90 -0.65 0.70 -0.70 1.05 -0.25 1.50 0.45 0.45 0.40 0.60 -0.20 0.60 -0.40 0 -1.05 -0.35 -1.40 -0.75z"/>
 </g>
 <g fill="#c48659">
  <path d="M17.50 35.25 c0 -1.80 0.20 -3.25 0.40 -3.25 0.80 0 1.60 -2.50 1.60 -4.80 0 -1.85 0.15 -2.25 0.85 -2.10 0.60 0.10 0.85 0.75 0.95 2.20 0.05 1.10 0.55 2.95 1.15 4.10 1.20 2.40 1.35 4.10 0.30 4.10 -0.40 0 -0.85 -0.70 -1.05 -1.75 -0.25 -1.50 -0.50 -1.75 -1.75 -1.75 -1.65 0 -1.65 0.10 -0.90 2.20 0.40 1.10 0.40 1.95 0 2.95 -0.90 2.30 -1.55 1.55 -1.55 -1.90z"/>
  <path d="M14.30 36.60 c-0.25 -0.90 -0.25 -1.80 -0.10 -1.95 0.35 -0.35 0.95 2.15 0.65 2.95 -0.10 0.35 -0.35 -0.10 -0.55 -1z"/>
  <path d="M25.25 33.90 c-0.20 -0.50 -0.20 -1.30 0 -1.75 0.40 -0.85 0.40 -0.85 0.60 0 0.15 0.45 0.15 1.25 0 1.75 -0.20 0.80 -0.20 0.80 -0.60 0z"/>
  <path d="M13.20 32.70 c-0.35 -1.40 0.90 -4.70 1.80 -4.70 0.65 0 0.65 0.35 -0.05 3.50 -0.60 2.75 -1.25 3.20 -1.75 1.20z"/>
  <path d="M6.50 31.80 c0 -0.80 1.80 -2.45 2.35 -2.25 0.20 0.10 -0.20 0.80 -0.95 1.55 -0.80 0.75 -1.40 1.05 -1.40 0.70z"/>
  <path d="M28.60 30 c-0.85 -1.35 -0.75 -3 0.15 -3 0.55 0 0.75 0.55 0.75 2 0 1.10 -0.05 2 -0.15 2 -0.05 0 -0.40 -0.45 -0.75 -1z"/>
  <path d="M15.05 26.50 l-1.25 -0.30 1.40 -1.10 c1.10 -0.85 1.40 -1.50 1.40 -2.95 -0.05 -2.55 0.30 -3.65 1.20 -3.65 0.85 0 0.90 0.95 0.15 2.85 -0.30 0.75 -0.80 2.30 -1.15 3.45 -0.50 1.80 -0.70 1.95 -1.75 1.70z"/>
  <path d="M29.05 26.05 c-0.40 -0.25 -0.50 -0.70 -0.25 -1.10 0.50 -0.90 0.25 -4.50 -0.40 -5.30 -0.40 -0.50 -0.25 -0.65 0.50 -0.65 1.30 0 1.90 2.45 1.25 5.40 -0.30 1.60 -0.55 1.95 -1.10 1.65z"/>
  <path d="M23.15 23.25 c-0.35 -0.40 -0.65 -0.90 -0.65 -1.20 0 -0.25 -0.25 -0.55 -0.60 -0.65 -0.30 -0.10 -0.40 -0.45 -0.20 -0.80 0.20 -0.40 0.70 -0.40 1.55 -0.10 0.70 0.25 1.25 0.30 1.30 0.10 0.05 -0.65 0.90 1.60 0.90 2.55 0.05 1.05 -1.45 1.10 -2.30 0.10z"/>
  <path d="M11.50 21.30 c0 -0.20 0.25 -0.80 0.50 -1.30 0.45 -0.85 0.40 -0.90 -0.35 -0.65 -0.80 0.30 -0.80 0.25 -0.20 -0.50 1 -1.30 1.95 -1.05 1.70 0.40 -0.25 1.10 -1.65 2.85 -1.65 2.05z"/>
  <path d="M21.55 19.05 c-0.50 -0.30 -0.50 -0.50 -0.05 -0.80 0.65 -0.40 1.20 -0.05 0.95 0.70 -0.15 0.30 -0.50 0.35 -0.90 0.10z"/>
  <path d="M25.25 10.05 c-0.30 -0.50 1.05 -2.05 1.80 -2.05 0.25 0 0.10 0.55 -0.35 1.25 -0.90 1.40 -1 1.45 -1.45 0.80z"/>
  <path d="M22.70 6.25 c1.75 -0.90 1.80 -0.90 1.80 0 0 0.50 -0.50 0.75 -1.60 0.75 l-1.65 0 1.45 -0.75z"/>
  <path d="M20 5.50 c0 -0.75 2.40 -2.15 3.25 -1.80 1.10 0.40 0.90 1.05 -0.50 1.70 -1.60 0.75 -2.75 0.75 -2.75 0.10z"/>
  <path d="M19.50 3 c0 -0.25 0.60 -0.50 1.40 -0.45 1.20 0 1.25 0.05 0.35 0.45 -1.35 0.60 -1.75 0.60 -1.75 0z"/>
 </g>
 <g fill="#dd6d64">
  <path d="M17.50 35.25 c0 -1.85 0.20 -3.25 0.50 -3.25 0.30 0 0.50 1.40 0.50 3.25 0 1.85 -0.20 3.25 -0.50 3.25 -0.30 0 -0.50 -1.40 -0.50 -3.25z"/>
  <path d="M9.95 36.15 c-1.80 -2.15 -2 -2.75 -0.45 -1.30 0.95 0.90 1.60 1.75 1.45 1.90 -0.15 0.15 -0.60 -0.15 -1 -0.60z"/>
  <path d="M14.35 36.65 c-0.20 -0.15 -0.35 -0.80 -0.30 -1.35 0 -0.95 0.05 -0.95 0.50 0.15 0.50 1.20 0.40 1.80 -0.20 1.20z"/>
  <path d="M13.30 33.20 c-0.60 -1.65 -0.30 -2.70 0.75 -2.70 0.90 0 0.95 0.15 0.45 0.75 -0.30 0.40 -0.45 1.15 -0.25 1.75 0.35 1.15 -0.50 1.40 -0.95 0.20z"/>
  <path d="M7 30.75 c0 -0.40 0.35 -0.75 0.80 -0.75 0.70 0 0.70 0.15 0.20 0.75 -0.35 0.40 -0.70 0.75 -0.80 0.75 -0.10 0 -0.20 -0.35 -0.20 -0.75z"/>
  <path d="M9 29.30 c0 -0.50 0.40 -0.80 1.10 -0.80 0.60 0 0.95 0.05 0.85 0.15 -0.10 0.05 -0.60 0.45 -1.05 0.80 -0.75 0.60 -0.90 0.55 -0.90 -0.15z"/>
  <path d="M15.85 26.65 c-0.20 -0.35 -0.75 -0.45 -1.25 -0.30 -0.65 0.20 -0.60 0.05 0.25 -0.90 1.25 -1.30 1.80 -1.10 1.55 0.65 -0.10 0.75 -0.30 0.95 -0.55 0.55z"/>
  <path d="M11.50 21.15 c0 -0.35 0.25 -0.75 0.50 -0.90 0.85 -0.50 0.55 -1.25 -0.35 -0.90 -0.80 0.30 -0.80 0.20 0.05 -0.75 1.30 -1.50 1.90 -1.40 1.50 0.30 -0.35 1.45 -1.70 3.25 -1.70 2.25z"/>
  <path d="M14.05 13.70 c1 -2.95 2 -4.60 1.90 -3.15 -0.05 1.40 -1.75 5.65 -2.35 5.85 -0.35 0.10 -0.20 -0.90 0.45 -2.70z"/>
  <path d="M12.25 14.25 c0.20 -0.80 0.45 -1.95 0.55 -2.45 0.20 -1.10 1.05 -2.10 1.40 -1.75 0.35 0.35 -1.15 4.60 -1.80 5.20 -0.35 0.35 -0.40 0.05 -0.15 -1z"/>
  <path d="M25.30 10.10 c-0.35 -0.55 1.15 -2.30 1.55 -1.90 0.15 0.15 -0.10 0.70 -0.50 1.30 -0.40 0.60 -0.90 0.85 -1.05 0.60z"/>
  <path d="M17.05 7.25 c0.60 -0.95 1.25 -1.75 1.50 -1.75 0.25 0 -0.05 0.80 -0.65 1.75 -1.50 2.25 -2.15 2.25 -0.85 0z"/>
  <path d="M16 6.50 c0 -1.05 1.05 -2.50 1.75 -2.50 0.40 0 0.75 -0.20 0.75 -0.40 0 -0.45 2.20 -1.60 3 -1.60 1 0 0.45 0.90 -0.75 1.20 -0.65 0.15 -2 1.10 -3 2.05 -0.95 1 -1.75 1.55 -1.75 1.25z"/>
  <path d="M20 5.70 c0 -0.65 2.15 -2.20 3 -2.20 1.05 0 0.45 0.90 -0.85 1.25 -0.75 0.15 -1.55 0.60 -1.75 0.90 -0.30 0.45 -0.40 0.45 -0.40 0.05z"/>
 </g>
 <g fill="#c89770">
  <path d="M17.70 35.20 c-0.05 -2 0.10 -3.05 0.35 -2.65 0.55 0.85 0.60 5.95 0.10 5.95 -0.25 0 -0.45 -1.50 -0.45 -3.30z"/>
  <path d="M21.80 34.20 c-0.20 -0.75 -0.20 -1.45 -0.05 -1.65 0.40 -0.35 1.75 1.40 1.75 2.30 0 1.20 -1.40 0.65 -1.70 -0.65z"/>
  <path d="M13.30 32.40 c-0.15 -0.85 -0.15 -1.70 0.10 -1.85 0.20 -0.15 0.65 -0.85 0.95 -1.55 l0.60 -1.25 0 1.60 c0.05 0.85 -0.20 1.75 -0.50 1.95 -0.30 0.15 -0.40 0.85 -0.25 1.50 0.20 0.65 0.10 1.20 -0.15 1.20 -0.20 0 -0.55 -0.70 -0.75 -1.60z"/>
  <path d="M28.60 29.50 c-0.50 -0.85 -0.50 -1 0.15 -1 0.40 0 0.75 0.45 0.75 1 0 0.55 -0.05 1 -0.15 1 -0.05 0 -0.40 -0.45 -0.75 -1z"/>
  <path d="M9 29 c0 -0.55 2.95 -2.20 3.30 -1.85 0.30 0.30 -2.25 2.35 -2.85 2.35 -0.25 0 -0.45 -0.20 -0.45 -0.50z"/>
  <path d="M17 27.45 c0 -0.55 0.25 -0.85 0.50 -0.70 0.30 0.15 0.50 0.65 0.50 1.05 0 0.40 -0.20 0.70 -0.50 0.70 -0.25 0 -0.50 -0.45 -0.50 -1.05z"/>
  <path d="M15.75 26.35 c-0.20 -0.50 -0.25 -1.05 -0.05 -1.20 0.50 -0.50 0.90 0.20 0.65 1.20 -0.20 0.85 -0.20 0.85 -0.60 0z"/>
  <path d="M28.50 25.60 c0 -0.25 0.15 -0.60 0.35 -0.75 0.40 -0.45 0.40 -4.05 -0.05 -4.75 -0.20 -0.35 -0.05 -0.60 0.40 -0.60 1 0 1.55 2.10 1 3.90 -0.20 0.75 -0.30 1.65 -0.25 2 0.05 0.30 -0.25 0.60 -0.70 0.60 -0.40 0 -0.75 -0.20 -0.75 -0.40z"/>
  <path d="M23.50 23.25 c0 -1 -0.25 -1.25 -1.25 -1.25 -1.10 0 -1.20 -0.15 -0.75 -0.95 0.55 -1.05 2.50 -0.90 2.50 0.20 0 0.35 0.35 0.75 0.75 0.95 1 0.35 0.95 1.60 -0.05 2 -1.15 0.45 -1.20 0.40 -1.20 -0.95z"/>
  <path d="M16.15 22.25 c0.45 -1.55 1.85 -2.50 1.85 -1.25 0 1 -1.20 3 -1.80 3 -0.45 0 -0.50 -0.40 -0.05 -1.75z"/>
  <path d="M22 19.25 c-1.20 -0.70 -1.20 -0.70 -0.15 -0.75 0.60 0 1.25 0.25 1.40 0.55 0.55 0.85 0.10 0.90 -1.25 0.20z"/>
  <path d="M17.25 18.05 c0.15 -0.85 0.10 -1.60 -0.20 -1.80 -0.60 -0.35 0.15 -2.25 0.90 -2.25 0.60 0 1.10 2.90 0.75 4.30 -0.45 1.80 -1.85 1.60 -1.45 -0.25z"/>
  <path d="M20.50 15 c0 -0.25 0.30 -0.50 0.70 -0.50 0.40 0 0.90 0.25 1.05 0.50 0.15 0.30 -0.15 0.50 -0.70 0.50 -0.60 0 -1.05 -0.20 -1.05 -0.50z"/>
  <path d="M22.35 13.95 c-0.45 -0.25 -1.05 -0.40 -1.30 -0.25 -0.50 0.35 -0.40 -2.25 0.20 -3.15 0.20 -0.35 0.10 -0.90 -0.20 -1.20 -0.30 -0.30 -0.55 -0.95 -0.55 -1.45 0 -0.70 0.40 -0.90 1.95 -0.90 1.75 0 1.95 0.10 1.70 1.05 -0.20 0.70 -0.45 0.85 -0.80 0.50 -0.85 -0.85 -1.55 -0.65 -0.80 0.25 0.50 0.60 0.50 1 0.05 1.75 -0.50 0.80 -0.45 0.95 0.20 0.95 0.60 0 0.75 0.35 0.60 1.25 -0.15 0.65 0 1.30 0.30 1.45 0.30 0.10 0.35 0.25 0.05 0.25 -0.25 0 -0.90 -0.20 -1.40 -0.50z"/>
  <path d="M14 9.15 c0 -1.20 2.85 -4.80 4.70 -5.90 2.35 -1.40 2.80 -1.50 2.80 -0.75 0 0.30 -0.25 0.50 -0.55 0.50 -1 0 -3.70 2.45 -4.95 4.45 -1.10 1.85 -2 2.60 -2 1.70z"/>
  <path d="M27.75 7 c0.50 -0.55 1 -1 1.10 -1 0.10 0 -0.05 0.45 -0.35 1 -0.30 0.55 -0.80 1 -1.10 1 -0.30 0 -0.15 -0.45 0.35 -1z"/>
  <path d="M20 5.50 c0 -0.70 2.55 -2.10 3.30 -1.80 1.25 0.50 0.75 1.15 -1.30 1.70 -1.10 0.25 -2 0.30 -2 0.10z"/>
  <path d="M23.85 3.15 c-0.60 -0.55 -0.40 -1.15 0.40 -1.15 0.40 0 0.75 0.35 0.75 0.75 0 0.80 -0.60 1 -1.15 0.40z"/>
 </g>
 <g fill="#afa498">
  <path d="M6.50 31.65 c0 -0.75 2.05 -2.75 2.45 -2.40 0.15 0.15 -0.35 0.90 -1.10 1.65 -0.75 0.70 -1.35 1.05 -1.35 0.75z"/>
  <path d="M17 28.05 c0 -0.60 0.25 -1.05 0.50 -1.05 0.30 0 0.50 0.30 0.50 0.70 0 0.40 -0.20 0.90 -0.50 1.05 -0.25 0.15 -0.50 -0.15 -0.50 -0.70z"/>
  <path d="M21.50 21 c0 -0.25 0.55 -0.50 1.25 -0.50 0.70 0 1.25 0.25 1.25 0.50 0 0.30 -0.55 0.50 -1.25 0.50 -0.70 0 -1.25 -0.20 -1.25 -0.50z"/>
  <path d="M28.90 20.15 c-0.95 -1.05 -1.20 -2.65 -0.40 -2.65 0.65 0 1.60 1.90 1.40 2.85 -0.15 0.65 -0.30 0.60 -1 -0.20z"/>
  <path d="M22.05 19.30 c-0.85 -0.45 -1 -0.75 -0.55 -1.05 0.35 -0.20 0.95 0 1.40 0.45 1.05 1.05 0.60 1.35 -0.85 0.60z"/>
  <path d="M27.30 15.30 c-0.20 -1.05 -0.25 -2 -0.10 -2.15 0.35 -0.40 0.90 2.10 0.70 3.20 -0.15 0.55 -0.35 0.15 -0.60 -1.05z"/>
  <path d="M17 15.65 c0.05 -0.95 1.10 -2.65 1.70 -2.65 0.15 0 0.30 0.80 0.30 1.75 0 1.40 -0.20 1.75 -1 1.75 -0.65 0 -1 -0.35 -1 -0.85z"/>
  <path d="M20.65 15.75 c-0.15 -0.45 -0.15 -0.90 0 -1.10 0.50 -0.50 1.85 0.30 1.85 1.10 0 1 -1.45 1 -1.85 0z"/>
  <path d="M24.10 15.90 c0.25 -0.75 2.40 -1.20 2.40 -0.50 0 0.50 -1.15 1.10 -2.10 1.10 -0.25 0 -0.40 -0.30 -0.30 -0.60z"/>
  <path d="M12.25 14.25 c0.20 -0.80 0.40 -1.85 0.45 -2.20 0.10 -0.40 0.40 -0.85 0.65 -0.90 0.75 -0.25 -0.05 3.25 -0.90 4.05 -0.45 0.40 -0.50 0.20 -0.20 -0.95z"/>
  <path d="M20.80 12.55 c0.15 -0.70 0.40 -1.60 0.50 -2 0.10 -0.35 -0.05 -1 -0.35 -1.35 -0.60 -0.75 -0.10 -0.90 1.25 -0.40 0.85 0.35 1.10 1.70 0.30 1.70 -0.25 0 -0.50 0.25 -0.50 0.50 0 0.30 0.35 0.50 0.75 0.50 0.40 0 0.75 0.40 0.75 0.95 0 0.65 -0.45 1 -1.50 1.15 -1.35 0.20 -1.45 0.10 -1.20 -1.05z"/>
  <path d="M25 13 c0.55 -1 1.50 -1.40 1.50 -0.60 0 0.55 -1.10 1.60 -1.60 1.60 -0.25 0 -0.20 -0.45 0.10 -1z"/>
  <path d="M25.50 9.45 c0 -0.40 0.45 -1 1 -1.35 0.55 -0.35 1 -0.40 1 -0.20 0 0.25 -0.45 0.85 -1 1.35 -0.75 0.70 -1 0.75 -1 0.20z"/>
  <path d="M16 5.50 c0.95 -1.35 2 -2 2 -1.25 0 0.75 -1.70 2.75 -2.35 2.75 -0.55 0 -0.45 -0.35 0.35 -1.50z"/>
  <path d="M22.50 4.25 c0 -0.45 0.30 -0.60 0.75 -0.45 0.40 0.20 0.75 0.50 0.75 0.75 0 0.25 -0.35 0.45 -0.75 0.45 -0.40 0 -0.75 -0.35 -0.75 -0.75z"/>
  <path d="M23.65 2.70 c-0.35 -1 0.55 -1.90 1.60 -1.55 0.65 0.30 0.65 0.50 0.15 1.35 -0.75 1.20 -1.35 1.30 -1.75 0.20z"/>
 </g>
 <g fill="#e5a068">
  <path d="M21.90 34.25 c-0.35 -1.60 0.40 -2.10 1.05 -0.80 0.75 1.35 0.70 2.05 -0.15 2.05 -0.35 0 -0.80 -0.55 -0.90 -1.25z"/>
  <path d="M19.35 30.40 c0.20 -0.35 0.35 -1.40 0.40 -2.35 0 -0.95 0.30 -1.80 0.65 -1.90 0.80 -0.30 0.80 3.45 0 4.25 -0.80 0.80 -1.55 0.75 -1.05 0z"/>
  <path d="M15.60 26.40 c-0.50 -0.65 -0.50 -1.15 0.10 -2.70 0.40 -1.10 0.85 -2.80 1.05 -3.80 0.20 -1.20 0.55 -1.90 1 -1.90 1 0 0.95 0.75 -0.20 4.30 -0.50 1.65 -1 3.40 -1.10 3.90 -0.20 0.85 -0.25 0.85 -0.85 0.20z"/>
  <path d="M22.50 22.50 c0 -1.45 0.20 -2 0.75 -2 0.40 0 0.75 0.25 0.75 0.55 0 0.25 0.20 0.40 0.45 0.25 0.65 -0.45 1.10 1.80 0.45 2.55 -0.30 0.35 -0.95 0.65 -1.45 0.65 -0.75 0 -0.95 -0.40 -0.95 -2z"/>
  <path d="M21.45 10.55 c0.45 -0.30 0.50 -0.55 0.10 -0.75 -0.70 -0.45 -0.70 -2.30 0 -2.30 0.30 0 0.95 -0.50 1.45 -1.10 1.10 -1.40 1.75 -0.95 1.30 0.85 -0.25 1 -0.55 1.25 -1.30 1 -0.60 -0.20 -1 -0.10 -1 0.20 0 0.30 0.25 0.55 0.50 0.55 0.80 0 0.55 1.35 -0.30 1.70 -1.15 0.45 -1.55 0.35 -0.75 -0.15z"/>
  <path d="M25.50 9.70 c0 -0.30 0.70 -1.15 1.50 -1.95 0.85 -0.80 1.50 -1.20 1.50 -0.95 0 0.30 -0.65 1.15 -1.50 1.95 -0.80 0.80 -1.50 1.20 -1.50 0.95z"/>
  <path d="M22 4.80 c0 -0.90 0.50 -1.25 1.30 -0.95 1 0.35 0.85 1 -0.30 1.30 -0.60 0.15 -1 0 -1 -0.35z"/>
 </g>
 <g fill="#ee897d">
  <path d="M13.40 32.50 c-0.35 -1.20 -0.15 -1.90 0.40 -1.40 0.15 0.20 0.20 0.85 0.10 1.50 l-0.15 1.15 -0.35 -1.25z"/>
  <path d="M8 30 c0 -0.30 0.40 -0.70 0.90 -0.85 0.45 -0.20 1.30 -0.75 1.80 -1.25 1.25 -1.15 2.20 -1.20 1.15 0 -1.15 1.25 -3.85 2.75 -3.85 2.10z"/>
  <path d="M11.95 20.65 c0.75 -1.50 0.70 -1.80 -0.30 -1.45 -0.65 0.25 -0.55 0 0.35 -1.05 0.70 -0.75 1.30 -1.50 1.40 -1.60 0.05 -0.10 0.20 -0.10 0.35 0 0.30 0.35 -1 3.90 -1.75 4.60 -0.50 0.50 -0.50 0.40 -0.05 -0.50z"/>
  <path d="M16.50 20.90 c0 -1.50 0.65 -2.90 1.35 -2.90 0.55 0 0.70 0.30 0.45 1.15 -0.15 0.60 -0.30 1.40 -0.30 1.75 0 0.30 -0.35 0.60 -0.75 0.60 -0.40 0 -0.75 -0.30 -0.75 -0.60z"/>
  <path d="M12.30 14.50 c0.20 -0.70 0.40 -1.75 0.50 -2.30 0.15 -1.35 1.10 -3.20 1.65 -3.20 0.55 0 0.10 1.90 -0.50 2.30 -0.25 0.15 -0.45 0.75 -0.45 1.40 0 0.60 -0.35 1.55 -0.80 2.10 -0.70 0.90 -0.75 0.90 -0.40 -0.30z"/>
  <path d="M13.95 14.15 c0.70 -2.30 2.05 -5.30 2.30 -5.05 0.35 0.35 -1.80 6.40 -2.25 6.40 -0.25 0 -0.25 -0.60 -0.05 -1.35z"/>
  <path d="M25.50 9.55 c0 -0.55 1.45 -1.75 1.75 -1.45 0.10 0.10 -0.20 0.60 -0.75 1.05 -0.55 0.45 -1 0.65 -1 0.40z"/>
  <path d="M16.50 5.60 c0 -0.70 0.30 -1.10 0.80 -1.10 0.70 0 0.75 0.15 0.15 0.90 -0.35 0.45 -0.75 0.95 -0.80 1.05 -0.10 0.10 -0.15 -0.25 -0.15 -0.85z"/>
  <path d="M19 3.45 c0 -0.40 1.60 -1.45 2.20 -1.45 0.75 0 0.15 0.80 -0.95 1.35 -0.70 0.30 -1.25 0.35 -1.25 0.10z"/>
 </g>
 <g fill="#d2a884">
  <path d="M21.90 34.25 c-0.25 -1.25 -0.20 -1.25 0.50 -0.55 0.60 0.55 0.65 0.95 0.25 1.35 -0.35 0.35 -0.60 0.15 -0.75 -0.80z"/>
  <path d="M17.85 34.15 c-0.20 -0.15 -0.35 -0.80 -0.30 -1.35 0 -0.95 0.05 -0.95 0.50 0.15 0.50 1.20 0.40 1.80 -0.20 1.20z"/>
  <path d="M28.60 29.40 c-0.85 -0.85 -0.75 -2.40 0.15 -2.40 0.50 0 0.75 0.50 0.75 1.50 0 1.70 -0.05 1.75 -0.90 0.90z"/>
  <path d="M15.45 26.35 c-0.70 -0.45 -0.70 -0.65 -0.10 -1.90 1.05 -2.05 1.75 -1.80 1.35 0.45 -0.40 2.25 -0.30 2.10 -1.25 1.45z"/>
  <path d="M22.50 23.50 c0 -1.20 1.25 -1.35 1.70 -0.20 0.45 1.15 0.40 1.20 -0.70 1.20 -0.65 0 -1 -0.35 -1 -1z"/>
  <path d="M21 22.40 c0 -0.95 0.90 -2.15 1.25 -1.80 0.45 0.45 -0.20 2.40 -0.80 2.40 -0.25 0 -0.45 -0.30 -0.45 -0.60z"/>
  <path d="M12.25 19.35 c0.10 -0.60 0.60 -2.20 1.15 -3.60 0.80 -1.90 1.05 -2.20 1.05 -1.25 0.05 0.70 -0.30 1.90 -0.70 2.70 -0.40 0.75 -0.75 1.70 -0.75 2.10 0 0.35 -0.20 0.75 -0.45 0.90 -0.20 0.15 -0.35 -0.25 -0.30 -0.85z"/>
  <path d="M28.05 18.45 c-0.65 -1.95 -0.65 -1.95 -0.05 -1.95 0.40 0 2 2.55 2 3.25 0 0.15 -0.30 0.25 -0.70 0.25 -0.40 0 -0.95 -0.70 -1.25 -1.55z"/>
  <path d="M21.10 16.40 c-0.90 -0.90 -0.70 -1.40 0.40 -1.40 0.55 0 1 0.30 1 0.70 0 1.05 -0.75 1.35 -1.40 0.70z"/>
  <path d="M12.15 14.80 c0.20 -0.50 0.35 -1.10 0.35 -1.35 0 -0.25 0.20 -0.45 0.45 -0.45 0.60 0 0.10 1.90 -0.60 2.35 -0.35 0.20 -0.40 0 -0.20 -0.55z"/>
  <path d="M18 13.50 c0.30 -0.55 0.65 -1 0.75 -1 0.15 0 0.25 0.45 0.25 1 0 0.55 -0.35 1 -0.75 1 -0.65 0 -0.70 -0.20 -0.25 -1z"/>
  <path d="M21.35 13.15 c-0.55 -0.50 -0.40 -2.65 0.15 -2.65 0.30 0 0.50 0.25 0.50 0.50 0 0.30 0.35 0.50 0.75 0.50 0.40 0 0.75 0.45 0.75 1 0 1 -1.40 1.40 -2.15 0.65z"/>
  <path d="M21.05 9.20 c-1.20 -1.50 -1.30 -2.20 -0.40 -2.20 0.30 0 1.25 -0.35 2.05 -0.75 1.75 -0.95 2.15 -0.65 1.40 1 -0.35 0.80 -0.85 1.15 -1.35 0.95 -0.85 -0.35 -1.05 0.55 -0.25 1.05 0.30 0.15 0.50 0.50 0.50 0.80 0 0.85 -0.90 0.45 -1.95 -0.85z"/>
  <path d="M25.50 9.35 c0 -0.10 0.70 -0.80 1.55 -1.65 1.30 -1.20 1.50 -1.25 1 -0.35 -0.50 0.95 -2.55 2.55 -2.55 2z"/>
  <path d="M20 5.60 c0 -0.50 3 -1.75 3.35 -1.40 0.20 0.15 -0.10 0.65 -0.65 1.05 -1 0.75 -2.70 1 -2.70 0.35z"/>
 </g>
 <g fill="#f9a99d">
  <path d="M6.50 31.65 c0 -0.65 1.45 -1.90 1.75 -1.55 0.15 0.15 -0.20 0.65 -0.75 1.15 -0.55 0.50 -1 0.65 -1 0.40z"/>
  <path d="M12.50 17.95 c0.35 -0.55 0.70 -0.95 0.80 -0.80 0.35 0.35 -0.35 1.85 -0.85 1.85 -0.30 0 -0.25 -0.45 0.05 -1.05z"/>
  <path d="M15 11.50 c0.95 -2.35 2.40 -5 2.80 -5 0.10 0 -0.50 1.40 -1.30 3.15 -0.85 1.70 -1.50 3.40 -1.50 3.75 0 0.30 -0.20 0.60 -0.50 0.60 -0.25 0 -0.05 -1.15 0.50 -2.50z"/>
  <path d="M13.05 12.30 c-0.10 -3.30 4.80 -9.80 7.45 -9.80 0.40 0 -0.05 0.55 -1.05 1.20 -2.25 1.55 -4.75 5.35 -6.10 9.30 -0.15 0.40 -0.30 0.10 -0.30 -0.70z"/>
  <path d="M20.70 4.75 c0.55 -0.40 1.20 -0.75 1.50 -0.75 0.25 0 0.05 0.35 -0.50 0.75 -0.50 0.40 -1.15 0.70 -1.45 0.70 -0.25 0 -0.05 -0.30 0.45 -0.70z"/>
 </g>
 <g fill="#d7c0af">
  <path d="M8.70 29.05 c0.90 -1 2.80 -1.70 2.80 -1.05 0 0.50 -2.30 2 -3.05 2 -0.40 0 -0.30 -0.35 0.25 -0.95z"/>
  <path d="M15 26 c-0.60 -0.40 -0.60 -0.50 0.10 -0.75 0.45 -0.20 0.70 -0.65 0.55 -1.05 -0.15 -0.45 0.05 -0.70 0.60 -0.70 0.60 0 0.75 0.25 0.55 0.80 -0.15 0.45 -0.30 1.10 -0.30 1.50 0 0.80 -0.45 0.90 -1.50 0.20z"/>
  <path d="M28.50 25.50 c0 -0.25 0.35 -0.50 0.75 -0.50 0.40 0 0.75 0.25 0.75 0.50 0 0.30 -0.35 0.50 -0.75 0.50 -0.40 0 -0.75 -0.20 -0.75 -0.50z"/>
  <path d="M21.80 23.55 c-1.05 -1.20 -0.65 -3.05 0.65 -3.05 0.80 0 1.35 1.15 1.55 3.40 0.10 0.80 -1.35 0.60 -2.20 -0.35z"/>
  <path d="M20.65 15.75 c-0.15 -0.45 -0.15 -0.90 -0.05 -1.05 0.45 -0.45 1.90 0.40 1.90 1.10 0 0.95 -1.45 0.90 -1.85 -0.05z"/>
  <path d="M24.25 16 c-0.15 -0.30 0.05 -0.65 0.50 -0.80 0.95 -0.40 1.50 0 1 0.75 -0.40 0.70 -1.10 0.70 -1.50 0.05z"/>
  <path d="M13.80 14.90 c0.15 -0.65 0.50 -1.50 0.75 -1.90 0.35 -0.65 0.40 -0.65 0.45 0 0 1.35 -0.60 3 -1.10 3 -0.25 0 -0.30 -0.50 -0.10 -1.10z"/>
  <path d="M27 13.75 c0 -0.40 0.25 -0.75 0.50 -0.75 0.30 0 0.50 0.35 0.50 0.75 0 0.40 -0.20 0.75 -0.50 0.75 -0.25 0 -0.50 -0.35 -0.50 -0.75z"/>
  <path d="M20.90 11.95 c0.20 -1.40 0.25 -1.40 1.40 -0.55 1.45 1.05 1.30 1.85 -0.35 1.90 -1.10 0.05 -1.25 -0.15 -1.05 -1.35z"/>
  <path d="M25.10 12.90 c0.25 -0.75 1.40 -1.15 1.40 -0.50 0 0.25 -0.35 0.65 -0.80 0.80 -0.50 0.20 -0.70 0.05 -0.60 -0.30z"/>
  <path d="M20.80 8.90 c-0.45 -0.60 -0.80 -1.30 -0.80 -1.50 0 -0.60 2.40 -0.50 2.75 0.10 0.15 0.30 -0.10 0.50 -0.55 0.50 -0.80 0 -0.80 0.05 0.05 1 0.80 0.85 0.80 1 0.10 1 -0.45 0 -1.15 -0.50 -1.55 -1.10z"/>
  <path d="M26.50 8.35 c0.70 -0.70 1.30 -1.20 1.40 -1.10 0.35 0.35 -0.45 1.25 -1.55 1.85 -1 0.50 -1 0.45 0.15 -0.75z"/>
  <path d="M14.85 7.50 c0.25 -0.90 2.15 -3 2.15 -2.35 0 0.15 -0.25 0.85 -0.55 1.55 -0.70 1.50 -1.95 2.15 -1.60 0.80z"/>
  <path d="M23.50 2.30 c0 -0.95 0.70 -1.40 1.70 -1 0.65 0.25 0.70 0.45 0.25 1 -0.75 0.90 -1.95 0.90 -1.95 0z"/>
 </g>
 <g fill="#f5ca8a">
  <path d="M28.50 29.05 c-0.70 -1.35 -0.65 -2.05 0.25 -2.05 0.50 0 0.75 0.50 0.75 1.50 0 1.75 -0.25 1.90 -1 0.55z"/>
  <path d="M15.05 25.70 c0.45 -0.15 0.85 -0.75 0.85 -1.35 0 -0.60 0.35 -2.45 0.75 -4.15 0.45 -1.65 0.65 -3.50 0.50 -4.10 -0.20 -0.90 -0.05 -1.10 0.85 -1.10 1.05 0 1.10 0.15 0.80 2.05 -0.20 1.15 -0.85 3.55 -1.45 5.40 -0.85 2.50 -1.35 3.30 -2.10 3.40 -0.70 0.05 -0.75 0 -0.20 -0.15z"/>
  <path d="M21.95 23.55 c-1 -0.80 -1.10 -1.15 -0.65 -1.90 0.30 -0.50 1.05 -0.95 1.65 -1.05 0.90 -0.15 1.05 0.10 1.05 1.35 0 0.85 0 1.70 0.05 1.90 0.05 0.80 -0.95 0.65 -2.10 -0.30z"/>
  <path d="M29.15 22.25 c0.15 -0.95 0.05 -1.85 -0.20 -2 -0.70 -0.45 -0.55 -1.25 0.30 -1.25 0.80 0 1.55 3 1.05 4.25 -0.55 1.55 -1.45 0.80 -1.15 -1z"/>
  <path d="M27.50 16.80 c0 -0.35 -0.15 -1.40 -0.30 -2.25 -0.50 -2.45 0.55 -1.80 1.15 0.70 0.40 1.80 0.40 2.25 -0.15 2.25 -0.40 0 -0.70 -0.30 -0.70 -0.70z"/>
  <path d="M21.50 12.50 c-0.30 -0.60 -0.45 -1.20 -0.35 -1.35 0.40 -0.35 2.35 1.05 2.20 1.55 -0.30 0.95 -1.30 0.85 -1.85 -0.20z"/>
  <path d="M20.90 8.75 c-0.50 -0.65 -0.90 -1.30 -0.90 -1.45 0 -0.15 0.40 -0.30 0.90 -0.30 0.45 0 1.45 -0.35 2.25 -0.70 1.45 -0.80 1.50 -0.70 1.05 1.05 -0.25 0.95 -0.55 1.10 -1.65 0.80 -1.30 -0.30 -1.30 -0.30 -0.35 0.80 0.70 0.75 0.75 1.05 0.25 1.05 -0.40 0 -1.10 -0.55 -1.55 -1.25z"/>
  <path d="M26.95 8.10 c0.30 -0.60 0.80 -1.20 1.10 -1.40 0.40 -0.20 0.40 -0.05 0 0.70 -0.30 0.60 -0.80 1.20 -1.10 1.40 -0.40 0.20 -0.40 0.05 0 -0.70z"/>
  <path d="M20 5.50 c0 -0.25 0.65 -0.80 1.45 -1.25 1.75 -0.90 2.70 -0.10 1.25 1 -1.10 0.85 -2.70 1 -2.70 0.25z"/>
 </g>
 <g fill="#f2ccbf">
  <path d="M7.55 30.20 c1.25 -1.35 3.90 -2.95 4.25 -2.55 0.25 0.25 -4.60 3.85 -5.15 3.85 -0.15 0 0.20 -0.60 0.90 -1.30z"/>
  <path d="M12.75 17.75 c1.50 -4.25 1.90 -5.30 2.10 -5.10 0.40 0.40 -0.80 4.10 -1.65 5.10 -0.80 1 -0.80 1 -0.45 0z"/>
  <path d="M12.05 15.50 c-0.10 -0.85 1.65 -5.50 3 -8.05 1.05 -1.95 2.15 -3.30 3.15 -3.80 l1.55 -0.80 -1.90 2.20 c-2.50 2.90 -2.85 3.35 -2.85 3.75 0 0.50 -2.90 7.15 -2.95 6.70z"/>
 </g>
 <g fill="#fce5ab">
  <path d="M28.50 27.95 c0 -0.55 0.25 -0.85 0.50 -0.70 0.30 0.15 0.50 0.65 0.50 1.05 0 0.40 -0.20 0.70 -0.50 0.70 -0.25 0 -0.50 -0.45 -0.50 -1.05z"/>
  <path d="M17 27.75 c0 -0.40 0.25 -0.75 0.50 -0.75 0.30 0 0.50 0.35 0.50 0.75 0 0.40 -0.20 0.75 -0.50 0.75 -0.25 0 -0.50 -0.35 -0.50 -0.75z"/>
  <path d="M15 26 c-0.65 -0.40 -0.65 -0.50 0.05 -0.50 0.60 0 1 -0.95 1.50 -3.85 0.40 -2.15 0.65 -4.35 0.60 -4.90 -0.10 -1.25 0.85 -3.75 1.40 -3.75 0.95 0 -0.05 6 -1.75 10.85 -0.40 1.15 -0.60 2.20 -0.45 2.35 0.50 0.50 -0.55 0.35 -1.35 -0.20z"/>
  <path d="M22.05 23.65 c-1 -0.85 -1.10 -1.10 -0.60 -2.05 0.65 -1.20 1.95 -1.45 2.30 -0.45 0.15 0.30 0.05 1.25 -0.15 2 l-0.40 1.45 -1.15 -0.95z"/>
  <path d="M29.05 22.40 c0.05 -0.90 -0.20 -2.45 -0.65 -3.40 -1 -2.30 -1.55 -6 -0.90 -6 0.25 0 0.50 0.55 0.50 1.25 0 0.70 0.45 2.20 0.95 3.40 0.55 1.15 1.05 2.55 1.10 3.10 0.15 2 -0.05 3.25 -0.60 3.25 -0.30 0 -0.45 -0.70 -0.40 -1.60z"/>
  <path d="M20.50 5.60 c0 -0.75 1.20 -1.60 2.20 -1.60 0.90 0 0.95 0.05 0.05 1 -0.90 1 -2.25 1.35 -2.25 0.60z"/>
 </g>
 <g fill="#f9ebd6">
  <path d="M7 31.15 c0 -0.65 3.55 -3.30 3.90 -2.90 0.20 0.20 0.05 0.50 -0.30 0.60 -0.35 0.15 -1.30 0.80 -2.10 1.50 -0.85 0.70 -1.50 1.05 -1.50 0.80z"/>
  <path d="M21.50 22.30 c0 -1.30 0.70 -2.05 1.45 -1.60 0.65 0.40 0 2.80 -0.75 2.80 -0.40 0 -0.70 -0.50 -0.70 -1.20z"/>
  <path d="M29 22.25 c0 -0.40 0.25 -0.75 0.50 -0.75 0.30 0 0.50 0.35 0.50 0.75 0 0.40 -0.20 0.75 -0.50 0.75 -0.25 0 -0.50 -0.35 -0.50 -0.75z"/>
  <path d="M16.90 19.50 c0.10 -0.80 0.40 -1.50 0.65 -1.50 0.50 0 0.60 1.05 0.15 2.20 -0.50 1.35 -1.05 0.90 -0.80 -0.70z"/>
  <path d="M28.25 18.75 c-0.75 -2.40 -0.75 -2.50 0.25 -1.30 0.55 0.65 1 1.35 1 1.60 0 0.75 -1 0.50 -1.25 -0.30z"/>
  <path d="M13.40 16.20 c0.45 -1.25 0.90 -1.95 1 -1.55 0.15 0.75 -1.20 3.85 -1.65 3.85 -0.10 0 0.20 -1.05 0.65 -2.30z"/>
  <path d="M17.35 16.65 c-0.60 -0.60 -0.40 -1.50 0.65 -2.70 l1.05 -1.20 -0.35 1.75 c-0.35 1.90 -0.85 2.70 -1.35 2.15z"/>
  <path d="M24.50 15.75 c0 -0.45 0.45 -0.75 1.05 -0.75 0.90 0 0.95 0.10 0.45 0.75 -0.35 0.40 -0.80 0.75 -1.05 0.75 -0.25 0 -0.45 -0.35 -0.45 -0.75z"/>
  <path d="M21.85 13.20 c-0.65 -0.65 -0.35 -1.20 0.70 -1.20 0.55 0 0.95 0.25 0.85 0.60 -0.25 0.70 -1.10 1.05 -1.55 0.60z"/>
  <path d="M15 7.70 c0 -0.35 0.45 -1.10 1 -1.75 1.25 -1.55 1.30 -0.60 0 1.05 -0.55 0.70 -1 1 -1 0.70z"/>
 </g>
 <g fill="#fcf9f0">
  <path d="M9.35 28.95 c0.60 -0.60 1.25 -1 1.40 -0.85 0.15 0.15 -0.35 0.65 -1.10 1.15 l-1.40 0.85 1.10 -1.15z"/>
  <path d="M21.75 23.50 c-0.40 -0.65 0.20 -2.50 0.80 -2.50 0.25 0 0.45 0.70 0.45 1.50 0 1.50 -0.65 2 -1.25 1z"/>
  <path d="M16.90 19.60 c0.10 -0.90 0.40 -1.60 0.65 -1.60 0.65 0 0.55 1.20 -0.20 2.25 -0.65 0.80 -0.70 0.75 -0.45 -0.65z"/>
  <path d="M21.75 18.95 c-0.20 -0.30 -0.25 -0.65 -0.10 -0.80 0.35 -0.35 1.35 0.30 1.35 0.90 0 0.60 -0.85 0.60 -1.25 -0.10z"/>
  <path d="M28.20 18.80 c-0.50 -1.35 0.10 -2.15 0.70 -0.95 0.40 0.70 0.45 1.20 0.10 1.40 -0.30 0.15 -0.65 -0.05 -0.80 -0.45z"/>
  <path d="M17 15.90 c0 -0.65 1.95 -3.40 2 -2.85 0 0.15 -0.25 1 -0.55 1.90 -0.55 1.55 -1.45 2.15 -1.45 0.95z"/>
  <path d="M20.85 16.15 c-0.20 -0.15 -0.35 -0.60 -0.35 -1 0 -0.55 0.25 -0.55 1 -0.15 0.55 0.30 1 0.75 1 1 0 0.55 -1.15 0.65 -1.65 0.15z"/>
  <path d="M24.60 15.90 c0.15 -0.35 0.65 -0.75 1.20 -0.85 0.80 -0.15 0.85 -0.05 0.25 0.65 -0.80 0.95 -1.70 1.05 -1.45 0.20z"/>
  <path d="M15.65 6.50 c0.70 -1.25 1.65 -2.35 2.15 -2.45 0.80 -0.15 0.80 0 -0.20 1 -0.60 0.65 -1.55 1.75 -2.15 2.45 -0.90 1.05 -0.85 0.95 0.20 -1z"/>
  <path d="M23.70 2.45 c-0.40 -0.70 0.55 -1.65 1.25 -1.25 0.55 0.35 0.20 1.80 -0.45 1.80 -0.25 0 -0.60 -0.25 -0.80 -0.55z"/>
 </g>
</svg>