<?xml version="1.0" encoding="utf-8"?>
<!DOCTYPE svg PUBLIC "-//W3C//DTD SVG 1.0//EN" "http://www.w3.org/TR/2001/REC-SVG-20010904/DTD/svg10.dtd">
<svg version="1.0" xmlns="http://www.w3.org/2000/svg" width="40px" height="40px" viewBox="0 0 40 40" preserveAspectRatio="xMidYMid meet">
 <g fill="#110807">
  <path d="M8.50 39.25 c0 -0.40 0.25 -0.75 0.55 -0.75 0.30 0 -0.40 -1.15 -1.50 -2.60 -2.75 -3.40 -2.30 -4.70 2.75 -8.15 1.85 -1.25 5.20 -1.75 5.20 -0.75 0 0.30 0.90 0.50 2 0.50 l2 0 0 2 c0 1.10 -0.20 2 -0.50 2 -0.25 0 -0.50 0.35 -0.50 0.75 0 0.50 0.50 0.75 1.45 0.75 1.95 0 3.05 0.45 3.05 1.30 0 1.05 0.90 0.85 1.50 -0.35 0.45 -0.80 0.95 -0.95 2.40 -0.85 2.20 0.20 2.55 1.25 1.60 4.70 -0.45 1.60 -0.90 2.20 -1.55 2.20 -0.55 0 -0.95 -0.35 -0.95 -0.85 0 -0.75 -0.05 -0.75 -0.90 0 -0.75 0.65 -1.95 0.85 -5.70 0.85 l-4.80 0 -0.50 -2.10 c-0.30 -1.20 -0.40 -3.05 -0.25 -4.20 0.25 -1.85 0.15 -2.10 -0.90 -2.35 -2.15 -0.60 -2.95 -0.35 -3.45 0.95 -0.45 1.10 -0.30 1.55 0.75 2.80 1.50 1.80 1.60 2.90 0.25 4.05 -1.25 1.05 -2 1.10 -2 0.10z"/>
  <path d="M28 30.75 c0 -0.40 -0.45 -0.75 -1 -0.75 -1.50 0 -1.80 -0.80 -2.90 -8.50 -0.30 -2 -0.50 -2.25 -1.70 -2.40 -1.15 -0.15 -1.40 -0.40 -1.40 -1.60 0 -2.20 0.50 -3 1.80 -3 0.85 0 1.20 -0.30 1.20 -1 0 -0.70 0.35 -1 1.20 -1 0.65 0 1.30 -0.30 1.45 -0.60 0.15 -0.50 0.35 -0.50 1 0.05 0.60 0.45 0.85 1.45 0.85 3.10 0 2.55 -0.55 3.10 -1.50 1.60 -0.40 -0.70 -0.50 -0.20 -0.30 2.10 0.10 1.65 0.45 3.05 0.75 3.15 0.30 0.10 0.55 0.75 0.55 1.40 0 0.85 0.30 1.20 1 1.20 0.85 0 1 0.35 1 2.40 0 1.30 -0.15 2.85 -0.30 3.50 -0.35 1.25 -1.70 1.55 -1.70 0.35z"/>
  <path d="M17 24.40 c0 -1.45 0.15 -1.90 0.45 -1.45 0.35 0.50 0.75 0.20 1.80 -1.40 0.85 -1.25 1.75 -2.05 2.40 -2.05 0.90 0 0.95 0.25 0.70 2.55 -0.40 3.15 -1.45 4.45 -3.70 4.45 -1.60 0 -1.65 -0.05 -1.65 -2.10z"/>
  <path d="M12.70 17.50 c0.30 -1.95 0.25 -2 -0.75 -1.50 -0.95 0.55 -1 0.50 -0.45 -0.45 0.30 -0.60 0.75 -1.05 1 -1.05 0.75 0 1.90 -3.20 1.65 -4.60 -0.55 -2.90 4.75 -8.35 7.60 -7.80 0.85 0.20 1.35 -0.05 1.80 -0.95 0.40 -0.70 1.05 -1.15 1.80 -1.15 1.55 0 2.05 1.35 0.85 2.25 -0.55 0.40 -0.70 0.70 -0.30 0.75 0.95 0 0.70 0.85 -0.30 1.10 -0.75 0.20 -0.90 0.60 -0.70 1.85 0.10 0.90 0.55 1.75 0.90 1.90 1.45 0.55 0.75 1.65 -1.05 1.65 -1.75 0 -1.75 0 -1.75 -2.25 0 -1.75 -0.20 -2.25 -0.80 -2.25 -0.70 0 -0.75 0.35 -0.50 2.05 0.20 1.10 0.20 3.15 0 4.50 -0.30 2.15 -0.45 2.45 -1.50 2.45 -0.65 0 -1.20 0.25 -1.20 0.55 0 0.30 -0.45 1.10 -1 1.80 -0.55 0.70 -1 1.05 -1 0.70 0 -1 -0.75 -0.60 -1.65 0.95 -0.55 0.90 -1.30 1.50 -1.95 1.50 -0.90 0 -1 -0.20 -0.70 -2z"/>
 </g>
 <g fill="#28160b">
  <path d="M8.50 39.55 c0 -0.30 0.20 -0.65 0.50 -0.80 0.25 -0.15 -0.30 -1.40 -1.30 -2.85 -1.40 -1.95 -1.70 -2.80 -1.45 -3.85 0.35 -1.50 2.75 -3.75 5.25 -4.90 0.95 -0.45 2.25 -1.25 2.90 -1.80 l1.10 -1 0.05 2.95 c0.05 1.60 0.15 2.55 0.30 2.10 0.10 -0.50 0.40 -0.90 0.60 -0.90 0.20 0 0.30 -1.25 0.15 -2.85 -0.20 -2.45 -0.15 -2.75 0.60 -2.50 0.55 0.25 1.15 -0.20 1.95 -1.40 1.20 -1.90 3.35 -2.45 3.35 -0.85 0 0.45 0.40 1.30 0.85 1.85 0.75 1 0.75 0.95 0.45 -0.25 -0.15 -0.70 -0.30 -1.65 -0.30 -2.10 0 -0.65 -0.40 -0.90 -1.45 -0.90 -1.20 0 -1.40 -0.15 -1.20 -1.15 0.10 -0.60 -0.10 -1.75 -0.55 -2.55 l-0.75 -1.45 -0.30 1.30 c-0.40 1.45 -1.70 2.20 -2.35 1.25 -0.30 -0.50 -0.55 -0.45 -0.95 0.25 -0.30 0.50 -1.40 1.85 -2.50 3 l-1.95 2.10 0 -1.85 c0 -1.05 0.20 -1.90 0.40 -1.90 0.25 0 0.65 -0.80 0.95 -1.75 0.45 -1.35 0.40 -1.75 -0.10 -1.75 -1.15 0 -1.30 -2.65 -0.20 -3.75 0.60 -0.60 0.95 -0.75 0.95 -0.35 0 0.35 0.25 0.50 0.50 0.35 0.30 -0.15 0.50 -1.05 0.50 -2 0 -0.90 0.35 -2 0.75 -2.45 0.40 -0.40 0.75 -0.95 0.75 -1.25 0 -0.85 4 -3.55 5.25 -3.55 0.55 0 1.30 0.25 1.60 0.55 0.40 0.40 0.55 0.30 0.50 -0.35 -0.15 -1.50 1.30 -1.10 1.70 0.40 0.20 0.80 0.20 1.40 0 1.40 -0.20 0 -0.35 0.85 -0.30 1.90 0 2.35 1.20 2.65 3.15 0.80 2.15 -1.95 2.30 -1.40 0.35 1.10 -1.70 2.30 -2.20 3.70 -1.25 3.70 0.45 0 1.70 1.95 1.40 2.25 -0.10 0.10 -1.45 0.30 -3 0.50 l-2.90 0.35 0 -1.40 c0 -1.60 -0.25 -1.50 -0.70 0.45 -0.30 1.30 -0.25 1.35 1.95 1.35 1.70 0 2.25 0.20 2.25 0.75 0 1.05 -1.50 1.55 -2.05 0.70 -0.40 -0.60 -0.50 -0.60 -0.95 0.05 -0.35 0.60 -0.20 0.80 0.70 0.90 1.45 0.20 2.95 1.75 3.15 3.25 0.10 0.60 0.40 1.20 0.65 1.25 0.30 0.10 0.55 0.80 0.55 1.50 0.05 1.15 0.15 1.05 0.40 -0.40 0.15 -0.95 0.05 -2.55 -0.30 -3.50 -1.45 -4.20 -0.15 -4.80 1.65 -0.75 0.95 2.15 1.15 3.25 0.90 4.90 -0.20 1.15 -0.50 2.35 -0.70 2.60 -0.20 0.30 -0.55 2.90 -0.75 5.90 -0.20 2.95 -0.55 5.35 -0.80 5.35 -0.25 0 -0.45 0.55 -0.45 1.25 0 0.70 -0.30 1.25 -0.65 1.25 -1.20 0 -1.30 -0.55 -0.60 -2.80 0.75 -2.60 0.40 -3.10 -1.10 -1.40 -0.80 0.85 -0.90 1.20 -0.35 1.20 0.40 0 0.70 0.25 0.70 0.50 0 0.85 -1.90 0.55 -2.20 -0.35 -0.10 -0.50 -0.10 -0.05 0.05 1 0.25 1.75 0.20 1.85 -1.10 1.85 -0.75 0 -1.70 -0.40 -2.05 -0.85 -0.65 -0.85 -0.70 -0.85 -0.40 0 0.25 0.65 0.05 0.85 -1.05 0.85 -0.70 0 -1.70 -0.35 -2.15 -0.80 -0.70 -0.75 -0.85 -0.75 -1.45 0.10 -0.35 0.45 -0.70 0.80 -0.80 0.65 -0.10 -0.10 -0.70 -2.15 -1.35 -4.55 -1.05 -4 -1.25 -4.40 -2.35 -4.40 -0.75 0 -1.35 0.40 -1.75 1.20 -0.45 1.05 -0.35 1.45 0.80 2.80 1.55 1.85 1.60 2.50 0.35 3.90 -0.95 1.15 -2.05 1.45 -2.05 0.65z m13.60 -1.80 c0.35 -0.40 -0.70 -2.70 -1.35 -2.95 -0.35 -0.10 -0.45 0.45 -0.35 1.50 0.20 1.50 0.95 2.15 1.70 1.45z m-5.10 -2.45 c0 -1.45 -0.30 -2.40 -0.85 -2.85 -0.75 -0.65 -0.80 -0.55 -0.50 0.55 0.20 0.70 0.35 2 0.35 2.90 0 0.85 0.25 1.60 0.50 1.60 0.30 0 0.50 -1 0.50 -2.20z m2.65 0.35 c-0.35 -0.10 -0.70 -1.05 -0.70 -2.05 -0.05 -1 -0.15 -1.45 -0.30 -0.95 -0.10 0.45 -0.45 0.85 -0.70 0.85 -0.25 0 -0.45 0.55 -0.45 1.25 0 1.05 0.25 1.25 1.40 1.20 0.75 0 1.05 -0.15 0.75 -0.30z m5.50 -3.95 c0.50 -2.90 -0.05 -4.70 -1.45 -4.70 -0.65 0 -1.20 -0.20 -1.20 -0.50 0 -1.20 -1.55 -0.35 -1.80 1 -0.20 0.85 -0.50 1.50 -0.75 1.50 -0.25 0 -0.45 0.70 -0.45 1.50 0 1.35 0.15 1.50 1.50 1.50 1 0 1.50 0.25 1.50 0.75 0 0.45 0.45 0.75 1.20 0.75 0.95 0 1.20 -0.30 1.45 -1.80z m-4.70 -9.15 c0 -0.55 -0.20 -0.45 -0.55 0.35 -0.30 0.60 -0.75 1.10 -1 1.10 -0.20 0 -0.40 0.25 -0.40 0.60 0 0.30 0.45 0.15 1 -0.35 0.55 -0.50 1 -1.25 0.95 -1.70z m5.90 -0.55 c-0.30 -0.80 -0.65 -1.40 -0.75 -1.30 -0.30 0.30 0.50 2.80 0.90 2.80 0.25 0 0.15 -0.65 -0.15 -1.50z m-10.20 -6.60 c1.35 -1.85 1.75 -3.40 0.85 -3.40 -0.25 0 0.05 -0.55 0.70 -1.25 0.65 -0.70 1.55 -1.25 2 -1.25 0.65 0 0.75 -0.20 0.30 -0.95 -0.25 -0.55 -0.35 -1.35 -0.20 -1.75 0.15 -0.45 0.05 -0.80 -0.20 -0.80 -0.75 0 -2.60 2.50 -2.60 3.55 0 0.50 -0.20 1 -0.45 1.15 -0.25 0.15 -0.55 0.80 -0.70 1.40 -0.15 0.65 -0.65 2.25 -1.05 3.65 -0.85 2.60 -0.80 2.60 1.35 -0.35z m6.85 -8.90 c0 -0.55 -0.20 -1 -0.50 -1 -0.25 0 -0.50 0.45 -0.50 1 0 0.55 0.25 1 0.50 1 0.30 0 0.50 -0.45 0.50 -1z"/>
  <path d="M16.90 22.10 c-1 -0.20 -1.15 -1.20 -0.40 -2.65 0.70 -1.30 1.35 -1.20 1.60 0.20 0.30 1.65 -0.20 2.65 -1.20 2.45z"/>
 </g>
 <g fill="#161726">
  <path d="M18.50 38.15 c0.15 -3.10 0.05 -3.65 -0.75 -3.65 -0.40 0 -0.75 -0.30 -0.75 -0.70 0 -0.35 -0.35 -0.95 -0.75 -1.30 -0.65 -0.55 -0.75 -0.40 -0.75 0.70 0 0.80 -0.20 1.25 -0.50 1.05 -0.25 -0.15 -0.50 -0.95 -0.50 -1.75 0 -1.10 -0.20 -1.40 -0.75 -1.20 -0.90 0.35 -0.95 -0.45 -0.20 -1.85 0.30 -0.55 0.40 -1.25 0.30 -1.60 -0.10 -0.35 -0.55 0.25 -1 1.30 -0.45 1 -1.15 1.85 -1.55 1.85 -1.10 0 -1 -0.40 0.35 -1.55 l1.10 -1 -1.10 0.30 c-1.60 0.45 -1.50 -0.90 0.05 -1.75 1.80 -0.95 2.80 -0.35 2.80 1.75 0 1.70 0.05 1.75 2 1.75 1.65 0 2 0.15 2 1 0 0.85 0.35 1 2.25 1 2.15 0 2.25 0.05 2.25 1.50 0 0.85 0.25 1.50 0.55 1.50 0.40 0 0.40 0.25 -0.05 0.75 -0.85 1 -1.35 0.95 -1.75 -0.20 -0.15 -0.55 -0.55 -1.05 -0.90 -1.20 -1 -0.40 -0.70 2.80 0.35 3.80 0.55 0.45 0.80 1 0.60 1.20 -0.15 0.20 -0.65 -0.10 -1.05 -0.65 -0.65 -0.85 -0.70 -0.85 -0.75 -0.05 0 0.45 -0.35 0.85 -0.80 0.85 -0.60 0 -0.75 -0.45 -0.70 -1.85z"/>
  <path d="M8.35 36.60 c-0.45 -0.50 -0.75 -1.35 -0.65 -1.85 0.10 -0.55 0.05 -0.70 -0.05 -0.35 -0.20 0.50 -0.40 0.50 -0.95 0.05 -0.90 -0.70 -0.45 -1.45 0.85 -1.45 1.25 0 2.90 1.85 2.95 3.20 0 1 0 1 -0.80 0 -0.75 -0.95 -0.75 -0.90 -0.55 0.20 0.30 1.35 0.25 1.35 -0.80 0.20z"/>
  <path d="M7 30.70 c0 -0.20 0.60 -0.85 1.40 -1.50 1.10 -1 1.40 -1.05 1.50 -0.40 0.10 0.40 -0.25 1.10 -0.75 1.45 -0.95 0.75 -2.15 1 -2.15 0.45z"/>
  <path d="M25.50 28.45 c0 -2.20 0.45 -2.45 1.40 -0.90 0.35 0.60 0.80 0.90 0.95 0.75 0.15 -0.15 0 -0.65 -0.40 -1.10 -0.55 -0.70 -0.50 -0.80 0.55 -0.60 1.05 0.10 1.30 0.45 1.40 1.95 0.15 1.80 0.15 1.80 -1.85 1.80 -2.05 0 -2.05 0 -2.05 -1.90z"/>
  <path d="M24.50 14.25 c0 -1.65 0.10 -1.75 1.75 -1.75 1.65 0 1.75 0.10 1.75 1.65 0 1.60 -0.10 1.70 -1.75 1.75 -1.70 0.05 -1.75 0 -1.75 -1.65z"/>
  <path d="M15 11.75 c0 -0.95 -0.20 -1.75 -0.50 -1.75 -1.10 0 -0.20 -2.40 1.85 -5 0.10 -0.10 1.10 -0.25 2.20 -0.30 1.40 0 1.95 0.15 1.95 0.70 0 0.40 -0.30 0.60 -0.65 0.45 -0.85 -0.30 -3.20 3.15 -3.90 5.75 -0.60 2.35 -0.95 2.40 -0.95 0.15z"/>
  <path d="M17.90 12.90 c0.90 -0.90 0.70 -1.35 -0.40 -1.05 -1 0.25 -1 0.25 0.05 -0.95 0.70 -0.80 1.50 -1.15 2.05 -1 0.95 0.25 1.25 1.10 0.40 1.10 -0.25 0 -0.50 0.55 -0.50 1.25 0 0.95 -0.25 1.25 -1.10 1.25 -0.85 0 -0.95 -0.15 -0.50 -0.60z"/>
  <path d="M24.70 9.20 c0.15 -0.45 0.30 -0.90 0.30 -1 0 -0.10 0.45 -0.20 0.95 -0.20 0.55 0 1.05 -0.30 1.20 -0.60 0.10 -0.35 0.40 -0.50 0.60 -0.25 0.75 0.70 -0.85 2.85 -2.15 2.85 -0.90 0 -1.15 -0.20 -0.90 -0.80z"/>
  <path d="M19.80 8.15 c-0.20 -0.45 -0.10 -1.05 0.20 -1.35 0.35 -0.35 0.50 -0.10 0.50 0.85 0 1.55 -0.25 1.70 -0.70 0.50z"/>
 </g>
 <g fill="#442511">
  <path d="M15.15 38.25 c0 -1.10 0.10 -1.50 0.20 -0.85 0.10 0.60 0.10 1.50 0 2 -0.15 0.45 -0.25 -0.05 -0.20 -1.15z"/>
  <path d="M17.20 39.15 c-0.65 -1.15 -0.35 -2.65 0.60 -2.65 0.50 0 0.70 -0.60 0.65 -2.35 -0.05 -1.35 -0.15 -2 -0.30 -1.50 -0.30 1.15 -1.15 1.10 -1.15 -0.15 0 -0.65 -0.25 -0.90 -0.75 -0.70 -0.40 0.20 -0.75 0.60 -0.75 1 0 0.40 -0.35 0.70 -0.75 0.70 -0.70 0 -1.05 -2.35 -0.80 -5.10 0.10 -0.75 -0.20 -0.70 -2.40 0.45 -1.40 0.70 -2.80 1.60 -3.05 1.95 -0.30 0.35 0.30 0.20 1.30 -0.30 1 -0.55 2.10 -0.80 2.40 -0.65 0.30 0.20 -0.20 0.65 -1.10 1 -2.10 0.85 -2.70 2.90 -1.15 3.95 1.10 0.80 1.55 4.20 0.50 4.20 -0.30 0 -0.40 -0.40 -0.25 -0.90 0.20 -0.60 -0.20 -1.60 -1.20 -2.85 -1.10 -1.40 -1.50 -1.65 -1.50 -0.95 0 0.85 -0.05 0.85 -1.05 -0.15 -0.95 -0.90 -1 -1.15 -0.35 -2.30 0.80 -1.55 3.80 -3.95 6 -4.90 2.35 -0.95 3.35 -2.15 3.70 -4.45 0.20 -1.10 0.50 -2 0.75 -2 0.60 0 0.55 -3.85 -0.05 -4.25 -0.25 -0.15 -0.50 0 -0.50 0.40 0 0.75 -4.05 5.35 -4.70 5.35 -0.20 0 -0.20 -0.45 -0.05 -1 0.25 -0.75 0.10 -1 -0.55 -1 -0.70 0 -0.55 -0.35 0.70 -1.65 1.75 -1.80 2.10 -3 0.75 -2.50 -0.65 0.25 -0.75 0.10 -0.50 -0.55 0.20 -0.50 0.35 -1.10 0.35 -1.35 0 -0.25 0.35 -0.45 0.75 -0.45 0.40 0 0.75 -0.35 0.75 -0.75 0 -0.45 0.45 -0.75 1.20 -0.75 l1.25 0 -1 2.85 c-0.50 1.55 -0.90 2.90 -0.80 3 0.35 0.30 3.20 -3.65 4.10 -5.70 0.50 -1.20 1.25 -2.15 1.60 -2.15 0.80 0 0.80 -0.25 0.10 -1.55 -0.35 -0.75 -0.35 -1.20 0.05 -1.65 0.40 -0.50 0.35 -0.75 -0.20 -0.95 -0.45 -0.20 -0.90 -0.10 -1.05 0.15 -0.55 0.90 -1.05 0.50 -1.15 -0.90 -0.05 -1.05 0.25 -1.60 1.35 -2.25 0.80 -0.45 2 -0.85 2.65 -0.85 1.10 0 1.10 0.05 -0.35 1.20 -0.80 0.65 -1.65 1.10 -1.80 1 -0.20 -0.10 -0.65 0.20 -1 0.65 -0.60 0.75 -0.60 0.80 0.05 0.40 0.40 -0.30 0.85 -0.50 1 -0.50 0.15 -0.05 0.95 -0.40 1.80 -0.90 0.85 -0.45 1.75 -0.65 1.95 -0.45 0.20 0.20 0.20 -0.15 0.05 -0.75 -0.30 -0.85 -0.15 -1.15 0.40 -1.15 0.65 0 0.80 0.65 0.80 3.70 0 2.35 -0.20 3.80 -0.55 3.90 -0.35 0.10 -0.50 0.55 -0.35 0.95 0.20 0.50 0.45 0.35 0.90 -0.60 0.40 -0.95 1 -1.30 2.05 -1.35 l1.45 -0.05 -0.85 1.35 c-0.50 0.75 -1.10 1.50 -1.40 1.70 -0.25 0.20 -0.05 0.40 0.50 0.40 0.55 0 1.25 0.40 1.60 0.95 0.50 0.80 0.40 0.95 -0.75 1.20 -1.05 0.20 -1.40 0.60 -1.50 1.65 -0.15 1.75 -0.40 2 -1.35 1.20 -0.60 -0.50 -0.95 -0.50 -1.35 -0.10 -0.85 0.85 -1.40 0.75 -1.40 -0.20 0 -0.50 -0.30 -0.70 -0.70 -0.55 -0.50 0.20 -0.80 -0.10 -0.95 -0.80 -0.15 -1.05 -0.20 -1.05 -0.45 0.15 -0.15 0.70 -0.50 2.50 -0.80 4 -0.30 1.50 -0.70 3.20 -0.90 3.75 -0.75 1.90 1.30 -0.25 2.55 -2.75 1.15 -2.25 1.20 -2.30 3.25 -2.10 1.75 0.20 2.05 0.35 1.85 1.15 -0.35 1.20 0.65 4.95 1.25 4.95 0.30 0 0.35 -0.45 0.15 -1.10 -0.20 -0.65 -0.40 -1.70 -0.50 -2.40 -0.05 -0.80 -0.05 -0.90 0.10 -0.15 0.10 0.60 0.55 1.35 0.95 1.65 0.40 0.35 0.70 1.15 0.70 1.85 0 0.65 0.20 1.10 0.45 0.95 0.20 -0.15 0.30 -0.85 0.15 -1.55 -0.20 -1.05 0 -1.25 0.90 -1.25 1.05 0 1.10 0.15 0.80 2.65 -0.20 1.40 -0.45 4.50 -0.60 6.85 -0.40 7.65 -0.60 8.50 -2 8.50 -0.95 0 -1.20 -0.25 -1.20 -1.30 0 -0.70 0.20 -1.65 0.45 -2.10 0.55 -1.10 1 -6.60 0.50 -6.60 -0.20 0 -0.50 1.10 -0.70 2.40 -0.40 3.05 -1.05 4.15 -1.75 3.10 -0.40 -0.65 -0.60 -0.60 -1.25 0.40 -1.10 1.50 -1.65 1.40 -2.10 -0.40 -0.40 -1.50 -1.50 -1.95 -1.30 -0.50 0.30 1.60 -0.40 4 -1.10 4 -0.40 0 -0.75 0.25 -0.75 0.50 0 0.80 -0.70 0.60 -1.30 -0.35z m7.15 -6.65 c1.40 0 1.70 -0.15 1.45 -0.80 -0.15 -0.45 -0.30 -1.40 -0.30 -2.20 0 -1.30 -0.15 -1.40 -2.35 -1.60 -1.35 -0.15 -2.45 -0.20 -2.45 -0.20 -0.05 0.05 -0.25 1 -0.45 2.20 -0.30 1.90 -0.25 2.10 0.70 2.10 0.75 0 1.05 0.35 1.10 1.15 0.05 0.80 0.10 0.90 0.30 0.25 0.15 -0.65 0.75 -0.90 2 -0.90z m3.65 -3.95 c0 -0.25 -0.35 -1.10 -0.75 -1.85 -0.75 -1.45 -1 -0.85 -0.45 1.20 0.30 1.05 1.20 1.55 1.20 0.65z m-7.10 -4.25 c1.05 0.05 1.05 0 0.25 -0.95 -0.90 -1 -0.85 -1 1.25 -0.65 1.90 0.30 2.10 0.20 2.10 -0.70 0 -0.85 -0.30 -1 -1.85 -1 -1.65 0.05 -2.10 0.30 -3.30 2.05 -1 1.45 -1.30 2.30 -1.05 3.30 l0.35 1.30 0.55 -1.70 c0.45 -1.30 0.85 -1.70 1.70 -1.65z m1.60 -11.05 c0 -0.40 -0.20 -0.75 -0.50 -0.75 -0.25 0 -0.50 0.35 -0.50 0.75 0 0.40 0.25 0.75 0.50 0.75 0.30 0 0.50 -0.35 0.50 -0.75z m-2 -1.55 c0 -0.40 -0.20 -0.70 -0.50 -0.70 -0.25 0 -0.50 0.45 -0.50 1.05 0 0.55 0.25 0.85 0.50 0.70 0.30 -0.15 0.50 -0.65 0.50 -1.05z"/>
  <path d="M13.50 10.55 c0 -1.50 0.55 -2.55 1.30 -2.55 0.40 0 0.70 0.25 0.70 0.55 0 0.40 0.25 0.40 0.75 -0.05 0.90 -0.75 1 -0.05 0.15 1.75 -0.70 1.55 -2.90 1.80 -2.90 0.30z"/>
 </g>
 <g fill="#443733">
  <path d="M9 39.70 c0 -0.15 0.35 -0.60 0.75 -1 1 -1.05 0.95 -1.30 -0.70 -3.35 -0.90 -1.20 -1.55 -1.65 -1.90 -1.30 -0.30 0.30 -0.70 0.25 -1.10 -0.25 -0.90 -1.05 0.50 -3.50 2.45 -4.40 0.80 -0.35 1.50 -0.80 1.50 -1.05 0 -0.55 3.45 -2.10 3.80 -1.70 0.50 0.50 -0.80 1.85 -1.80 1.85 -0.45 0 -1.70 0.80 -2.80 1.80 -1.45 1.30 -1.60 1.50 -0.45 0.75 1.80 -1.20 2.90 -1.45 3.25 -0.80 0.15 0.30 -0.25 0.55 -0.90 0.65 -0.65 0.10 -1.40 0.70 -1.70 1.35 -0.45 1 -0.35 1.45 0.80 2.75 1.55 1.85 1.60 2.50 0.35 3.90 -0.90 1.05 -1.55 1.40 -1.55 0.80z"/>
  <path d="M17 36.75 c0 -1.40 0.20 -1.75 1 -1.75 0.80 0 1 0.35 1 1.75 0 1.40 -0.20 1.75 -1 1.75 -0.80 0 -1 -0.35 -1 -1.75z"/>
  <path d="M13.55 35.30 c-0.75 -3 -0.70 -4.55 0.20 -6.30 0.75 -1.40 1.90 -1.95 2.40 -1.10 0.10 0.20 0.10 0.05 0.05 -0.25 -0.25 -0.95 1.65 -0.80 2 0.15 0.20 0.50 0 0.90 -0.65 1.05 -0.60 0.15 -0.85 0.55 -0.70 0.95 0.15 0.45 -0.10 0.70 -0.80 0.70 -0.75 0 -1.05 -0.35 -1.10 -1.10 -0.05 -0.90 -0.15 -0.80 -0.60 0.50 -0.40 1.25 -0.35 1.80 0.10 2.05 0.30 0.20 0.70 1.55 0.90 2.95 0.25 2.15 0.15 2.60 -0.45 2.60 -0.50 0 -1 -0.80 -1.35 -2.20z"/>
  <path d="M19.55 33.90 c-0.05 -1.85 0 -1.90 1.70 -1.90 1.65 0 1.75 0.10 1.75 1.75 0 1.95 -1.20 2.50 -1.65 0.75 -0.35 -1.35 -1.25 -1.25 -1.50 0.15 -0.15 0.65 -0.25 0.40 -0.30 -0.75z"/>
  <path d="M25 32.25 c0 -1.40 0.20 -1.75 1 -1.75 1.05 0 1.20 0.50 0.70 2.40 -0.50 1.80 -1.70 1.35 -1.70 -0.65z"/>
  <path d="M28.35 30.15 c-0.75 -2.70 -0.85 -3.65 -0.35 -3.65 0.30 0 0.40 -0.25 0.25 -0.50 -0.20 -0.30 -0.10 -0.85 0.20 -1.20 0.30 -0.35 0.40 -1.10 0.20 -1.60 -0.35 -0.95 -0.30 -0.95 0.60 0 0.95 0.90 1.10 3.25 0.45 6.45 -0.30 1.55 -1 1.80 -1.35 0.50z"/>
  <path d="M14.50 26.50 c-0.60 -0.35 -0.60 -0.60 -0.15 -1.05 0.75 -0.75 1.30 -0.35 1.05 0.75 -0.10 0.55 -0.35 0.65 -0.90 0.30z"/>
  <path d="M27 24.65 c0 -0.85 -0.15 -2 -0.35 -2.50 -0.30 -0.80 -0.25 -0.80 0.50 -0.20 0.95 0.75 1.10 2.40 0.35 3.55 -0.35 0.55 -0.50 0.35 -0.50 -0.85z"/>
  <path d="M16 22.05 c0 -1.50 0.55 -2.55 1.30 -2.55 0.75 0 0.90 1.35 0.40 2.70 -0.45 1.10 -1.70 1 -1.70 -0.15z"/>
  <path d="M19.50 22.15 c0 -0.35 0.45 -1.50 1.05 -2.60 1.35 -2.60 2.45 -2.25 2.45 0.75 0 2 -0.10 2.20 -1.25 2.20 -0.95 0 -1.15 -0.20 -0.90 -0.85 0.25 -0.75 0.15 -0.70 -0.50 0.10 -0.45 0.55 -0.85 0.75 -0.85 0.40z"/>
  <path d="M23.50 21.05 c0 -0.85 0.25 -1.65 0.50 -1.80 0.30 -0.20 0.40 -0.55 0.25 -0.80 -0.20 -0.25 0 -0.45 0.35 -0.45 0.45 0 0.70 0.75 0.75 2.25 0.05 1.90 -0.05 2.25 -0.90 2.25 -0.70 0 -0.95 -0.35 -0.95 -1.45z"/>
  <path d="M11 21.55 c0 -0.30 0.25 -0.65 0.50 -0.80 1.10 -0.65 0.45 -1.20 -0.85 -0.70 -1.35 0.50 -1.30 0.40 0.50 -1.40 1 -1.05 1.85 -2.35 1.85 -2.85 0 -0.80 -0.10 -0.85 -0.80 -0.25 -0.75 0.60 -0.80 0.55 -0.45 -0.55 0.25 -0.70 0.40 -1.65 0.35 -2.10 0 -0.60 0.30 -0.90 0.95 -0.90 0.50 0 0.95 0.30 0.95 0.70 0 0.40 0.30 0.80 0.65 0.95 1.05 0.35 -1.95 8.35 -3.20 8.35 -0.25 0 -0.45 -0.20 -0.45 -0.45z"/>
  <path d="M14 19.25 c0 -0.25 0.45 -1.05 1 -1.75 0.55 -0.70 1 -1 1 -0.75 0 0.30 -0.45 1.05 -1 1.75 -0.55 0.70 -1 1.05 -1 0.75z"/>
  <path d="M27.30 17 c-0.55 -1.40 -0.65 -1.45 -1.50 -0.60 -0.80 0.80 -0.90 0.80 -1.60 -0.10 -0.40 -0.55 -0.50 -1.10 -0.30 -1.25 0.25 -0.15 0.60 -0.90 0.80 -1.65 0.60 -2.55 3.80 -1.60 3.80 1.15 0 0.75 0.20 1.95 0.50 2.65 0.70 1.95 -0.85 1.75 -1.70 -0.20z"/>
  <path d="M17.20 17.55 c0.15 -0.25 -0.05 -0.70 -0.45 -1.05 -0.90 -0.75 -0.15 -2 1.20 -2 0.60 0 0.65 -0.10 0.15 -0.45 -0.50 -0.30 -0.50 -0.50 0.10 -1.05 0.45 -0.35 0.70 -0.75 0.60 -0.95 -0.15 -0.20 -0.05 -0.65 0.20 -1.05 0.30 -0.45 0.40 0.10 0.25 1.50 -0.30 3.75 -0.80 5.50 -1.60 5.50 -0.40 0 -0.60 -0.20 -0.45 -0.45z"/>
  <path d="M20.55 16.35 c-0.30 -0.40 -0.50 -2.20 -0.40 -4.15 0.05 -1.90 -0.10 -3.85 -0.35 -4.30 -0.35 -0.75 -0.15 -0.90 0.90 -0.90 0.70 0 1.30 0.25 1.30 0.50 0 0.30 0.45 0.50 1 0.50 0.55 0 1 -0.35 1 -0.75 0 -0.40 0.20 -0.75 0.45 -0.75 0.20 0 0.30 0.55 0.15 1.25 -0.10 0.70 -0.40 1.25 -0.65 1.25 -0.25 0 -0.45 0.45 -0.45 1.05 0 0.55 0.20 0.90 0.45 0.70 0.25 -0.15 0.60 -0.05 0.80 0.25 0.20 0.30 -0.35 0.50 -1.25 0.50 l-1.60 0 0.20 2.75 c0.15 2.80 -0.35 3.50 -1.55 2.10z"/>
  <path d="M13.50 10.20 c0 -1 1.55 -3.70 2.15 -3.70 0.25 0 0.30 0.60 0.15 1.40 -0.25 1.20 -0.20 1.25 0.35 0.40 1.50 -2.30 2.50 -3.30 3.15 -3.30 0.40 0 0.70 0.25 0.70 0.55 0 0.25 -0.20 0.40 -0.45 0.25 -0.50 -0.30 -1.95 1.60 -2.90 3.85 -0.70 1.55 -3.15 2 -3.15 0.55z"/>
  <path d="M25 8.95 c0 -0.75 0.25 -0.95 0.75 -0.75 0.40 0.15 0.95 -0.10 1.20 -0.60 0.45 -0.75 0.50 -0.75 0.55 0.20 0 1.15 -0.90 2.20 -1.85 2.20 -0.35 0 -0.65 -0.45 -0.65 -1.05z"/>
  <path d="M16.35 5.85 c-0.45 -1.25 3.50 -4.05 5.30 -3.75 1 0.20 1 0.25 -0.40 0.90 -0.80 0.40 -2.20 1.35 -3.05 2.15 -1.25 1.10 -1.65 1.25 -1.85 0.70z"/>
  <path d="M21.80 4.25 c-0.20 -0.50 0.05 -0.75 0.75 -0.75 0.75 0 0.95 -0.25 0.75 -0.85 -0.30 -1.05 1.20 -3.25 1.55 -2.25 0.15 0.30 0.70 0.60 1.25 0.60 1 0 1.05 0.05 0.15 1 -0.50 0.55 -0.65 1 -0.35 1 0.35 0 0.60 0.25 0.60 0.50 0 0.30 -0.45 0.50 -1 0.50 -0.55 0 -1 0.25 -1 0.50 0 0.80 -2.35 0.60 -2.70 -0.25z"/>
 </g>
 <g fill="#603c22">
  <path d="M17.35 39.15 c-0.15 -0.50 -0.25 -1.75 -0.30 -2.75 0 -1.55 0.15 -1.90 0.95 -1.90 0.55 0 1 -0.20 1 -0.50 0 -0.25 -0.45 -0.50 -1 -0.50 -0.65 0 -1 -0.35 -1 -0.95 0 -0.50 -0.35 -1.05 -0.75 -1.25 -0.65 -0.20 -0.75 0.40 -0.75 3.70 0 2.20 -0.20 4 -0.45 4 -0.65 0 -1.55 -4.05 -1.55 -7 0 -4.25 1.75 -6 3 -3 0.60 1.50 1.80 2.05 1.90 0.90 0.20 -1.85 1.05 -5.05 1.50 -5.50 0.30 -0.30 0.95 -0.05 1.90 0.85 0.75 0.70 1.70 1.15 2.10 1 0.35 -0.15 0.80 -0.25 0.90 -0.25 0.10 0 0.20 -0.30 0.20 -0.70 0 -0.45 -0.35 -0.60 -0.90 -0.45 -1.25 0.30 -3.75 -1.75 -3.35 -2.80 0.90 -2.15 0.75 -2.15 -0.65 0.05 -0.85 1.25 -1.90 2.50 -2.35 2.75 -0.70 0.40 -0.70 0.60 -0.05 1.90 1.05 2.05 0.15 2.80 -1.35 1.15 -0.65 -0.70 -1.50 -1.35 -1.90 -1.50 -0.60 -0.20 -0.55 -0.40 0.15 -1.20 0.45 -0.50 1 -1.60 1.20 -2.45 0.55 -1.95 0.55 -2.10 0.65 -3 0 -0.40 0.40 -0.75 0.80 -0.75 0.85 0 1 1.80 0.25 3.70 -0.25 0.70 -0.30 1.30 -0.10 1.30 0.45 0 1.20 -1.05 3.05 -4.20 l1.45 -2.40 1.05 1.05 c0.80 0.80 1.05 0.85 1.05 0.30 0 -0.40 0.35 -0.75 0.80 -0.75 0.55 0 0.70 0.30 0.45 1 -0.20 0.55 -0.10 1.75 0.20 2.65 1.60 4.95 1.65 12.45 0.05 14.05 -0.35 0.35 -0.50 0.15 -0.50 -0.60 0 -0.60 -0.20 -1.10 -0.50 -1.10 -0.25 0 -0.50 0.35 -0.50 0.75 0 0.50 -0.45 0.70 -1.25 0.65 -0.85 -0.10 -1.25 -0.40 -1.25 -1 0 -0.50 -0.35 -0.90 -0.75 -0.90 -0.55 0 -0.70 0.55 -0.65 2.35 0.10 1.45 -0.10 2.40 -0.50 2.55 -0.30 0.10 -0.60 0.50 -0.60 0.90 0 1 -1.40 0.85 -1.65 -0.15z m7.65 -8.40 c0 -0.40 0.40 -0.75 0.90 -0.80 1.40 -0.05 -0.85 -0.85 -2.55 -0.90 -0.95 -0.05 -1.50 -0.40 -1.80 -1.15 -0.45 -1.10 -0.45 -1.10 -0.80 0.35 -0.20 0.85 -0.45 1.90 -0.60 2.40 -0.20 0.70 0.15 0.85 2.30 0.85 1.95 0 2.55 -0.20 2.55 -0.75z"/>
  <path d="M26.50 39.50 c0 -0.25 0.25 -0.50 0.55 -0.50 0.30 0 0.45 -0.35 0.25 -0.75 -0.35 -0.90 1.20 -6.25 1.80 -6.25 0.45 0 0.50 3.50 0.10 6.15 -0.30 1.55 -0.55 1.85 -1.50 1.85 -0.65 0 -1.20 -0.20 -1.20 -0.50z"/>
  <path d="M10.30 37.80 c0.15 -0.35 -0.30 -1.35 -1 -2.20 -0.75 -0.80 -1.30 -1.80 -1.30 -2.15 0 -0.35 -0.30 -0.25 -0.70 0.35 -0.70 0.90 -0.75 0.90 -1.05 0.05 -0.60 -1.45 0.15 -3.35 1.30 -3.35 0.90 0 0.95 0.10 0.45 0.75 -0.35 0.40 -0.40 0.75 -0.10 0.75 0.25 0 0.75 -0.35 1.10 -0.75 0.35 -0.40 0.90 -0.75 1.20 -0.75 0.35 0 0.35 0.15 -0.05 0.40 -0.85 0.55 -1.45 3.60 -0.75 3.60 0.75 0 2.25 2.90 1.85 3.50 -0.45 0.75 -1.25 0.60 -0.95 -0.20z"/>
  <path d="M28.25 29.90 c-0.20 -0.90 -0.45 -2.10 -0.60 -2.60 -0.20 -0.65 -0.05 -0.85 0.45 -0.70 0.50 0.20 0.65 -0.35 0.60 -2.80 0 -1.65 -0.20 -3.50 -0.40 -4.05 -0.20 -0.55 -0.60 -1.50 -0.85 -2.15 -0.25 -0.65 -0.45 -1.70 -0.45 -2.35 0 -1.30 -0.75 -2.05 -1.25 -1.25 -0.15 0.25 -0.05 0.50 0.20 0.50 0.90 0 0.60 1.45 -0.40 2 -0.80 0.40 -1.10 0.30 -1.50 -0.35 -0.50 -0.85 -0.60 -0.85 -1.05 0 -0.70 1.10 -1.85 1.10 -2.45 -0.05 -0.60 -1.15 0.45 -2.60 1.90 -2.60 0.55 0 1.05 -0.20 1.05 -0.50 0 -0.25 -0.45 -0.50 -0.95 -0.50 -0.60 0 -1.05 -0.40 -1.20 -1.10 -0.20 -1 -0.20 -1 -0.30 0.20 0 0.75 -0.25 1.45 -0.50 1.60 -0.20 0.15 -0.25 -0.65 0 -1.85 0.20 -1.15 0.45 -2.15 0.55 -2.20 0.05 -0.05 -0.30 -0.45 -0.85 -0.85 -1 -0.70 -1 -0.75 -0.05 -1.45 0.90 -0.70 0.90 -0.70 -0.10 -0.95 -0.60 -0.20 -1.30 0 -1.65 0.40 -0.30 0.40 -0.80 0.70 -1.10 0.70 -0.25 0 -0.10 -0.45 0.40 -1 0.50 -0.55 1.30 -1 1.75 -1 0.50 0 1.15 -0.35 1.50 -0.75 0.35 -0.40 1.15 -0.75 1.80 -0.75 0.85 0 1.10 -0.20 0.90 -0.75 -0.20 -0.50 0 -0.75 0.70 -0.75 0.55 0 1.15 0.35 1.30 0.80 0.40 1.10 0.40 1.20 -0.35 1.20 -0.50 0 -0.70 0.70 -0.70 2.30 0 1.60 -0.25 2.45 -0.80 2.75 -0.45 0.25 -0.70 0.80 -0.55 1.20 0.20 0.40 0.45 0.65 0.65 0.55 0.15 -0.10 1.20 0.30 2.30 0.90 1.75 0.95 2.05 1.30 2.30 3.30 0.15 1.25 0.65 2.85 1.05 3.65 0.70 1.30 0.80 4.65 0.20 9 -0.10 0.75 -0.20 1.90 -0.25 2.60 -0.10 1.80 -0.90 1.55 -1.30 -0.35z"/>
  <path d="M27 24.60 c0 -0.80 -0.15 -1.95 -0.35 -2.45 -0.30 -0.80 -0.25 -0.80 0.50 -0.20 0.60 0.50 0.80 1.15 0.65 2.15 -0.30 2.10 -0.80 2.40 -0.80 0.50z"/>
  <path d="M11.40 20.95 c0.85 -0.90 0.75 -1.50 -0.15 -1.15 -0.95 0.40 -1 -0.60 -0.05 -1.15 0.80 -0.45 2.40 -3.25 2.05 -3.55 -0.15 -0.15 -0.60 0.05 -1.10 0.45 -0.75 0.65 -0.80 0.60 -0.40 -0.30 0.20 -0.55 0.40 -1.65 0.45 -2.50 0.05 -1.20 0.35 -1.55 1.70 -1.95 0.90 -0.25 1.75 -0.30 1.95 -0.15 0.30 0.35 -1.40 6 -2.45 8 -0.30 0.60 -0.70 1.40 -0.90 1.80 -0.15 0.40 -0.65 0.85 -1.05 0.95 -0.55 0.20 -0.60 0.10 -0.05 -0.45z"/>
  <path d="M16.90 16.55 c-0.75 -0.90 -0.75 -1.05 0.15 -1.85 0.90 -0.85 0.95 -0.80 0.95 0.95 0 1.05 -0.05 1.85 -0.15 1.85 -0.05 0 -0.50 -0.45 -0.95 -0.95z"/>
  <path d="M25.35 10.65 c-0.20 -0.15 -0.35 -0.85 -0.35 -1.50 0 -1 0.10 -1.10 0.95 -0.60 0.55 0.35 0.80 0.95 0.65 1.55 -0.25 0.95 -0.70 1.15 -1.25 0.55z"/>
  <path d="M16 6.10 c0 -0.75 0.70 -1.55 2.40 -2.60 1.30 -0.80 2.65 -1.50 3 -1.50 1.05 0 0.65 0.90 -0.50 1.25 -0.65 0.20 -2 1.15 -3 2.15 -1.75 1.65 -1.90 1.70 -1.90 0.70z"/>
 </g>
 <g fill="#814e28">
  <path d="M17.90 36.70 c0.15 -2.15 0.05 -3.40 -0.30 -3.65 -0.30 -0.20 -0.45 -0.85 -0.25 -1.45 0.15 -0.60 0.45 -1 0.65 -0.85 0.20 0.15 0.65 -1.20 1 -3 0.35 -1.85 0.85 -3.25 1.20 -3.25 0.35 0 1.35 0.70 2.25 1.60 1.40 1.35 1.75 1.50 2.55 1 1.50 -0.90 2.20 0.85 1.75 4.30 -0.55 4.45 -1.15 5.20 -2.10 2.75 l-0.55 -1.40 -0.05 1.25 c-0.10 1.20 -1.35 3.40 -1.70 2.95 -0.10 -0.10 -0.40 -0.95 -0.65 -1.85 -0.75 -2.75 -1.45 -2.10 -1.60 1.55 -0.15 3.15 -0.20 3.35 -1.30 3.35 -1.15 0 -1.20 -0.10 -0.90 -3.30z m5.90 -6.20 c0.65 0 1.20 -0.20 1.20 -0.50 0 -0.25 -0.90 -0.50 -2 -0.50 -1.50 0 -2 0.20 -2 0.80 0 0.55 0.25 0.70 0.80 0.50 0.45 -0.15 1.35 -0.30 2 -0.30z"/>
  <path d="M27.25 39 c0.75 -0.85 0.90 -1.95 0.95 -6.70 0 -3.15 0.15 -5.65 0.35 -5.50 0.15 0.10 0.25 -0.85 0.20 -2.05 -0.05 -1.90 0.10 -2.25 0.90 -2.25 0.80 0 0.90 0.25 0.65 1.65 -0.15 0.85 -0.40 3.40 -0.55 5.60 -0.75 10.45 -0.70 10.25 -2.10 10.25 -1.25 0 -1.30 -0.05 -0.40 -1z"/>
  <path d="M13.80 35.60 c-1 -3.70 -1 -4.85 0.05 -6.65 1.10 -1.85 1.45 -1.80 2.45 0.10 0.55 1.15 0.65 1.70 0.25 2.10 -0.40 0.40 -0.55 0.35 -0.55 -0.20 0 -0.60 -0.10 -0.60 -0.50 0.05 -0.30 0.45 -0.40 2.10 -0.20 4.15 0.40 4.20 -0.35 4.40 -1.50 0.45z"/>
  <path d="M9.50 35.75 c-0.50 -0.60 -0.50 -0.75 0.20 -0.75 0.45 0 0.80 0.35 0.80 0.75 0 0.40 -0.10 0.75 -0.20 0.75 -0.10 0 -0.45 -0.35 -0.80 -0.75z"/>
  <path d="M6.45 34.25 c-0.30 -2.10 -0.10 -3 0.65 -3.15 0.65 -0.15 0.80 0.05 0.55 0.70 -0.20 0.60 -0.15 0.75 0.25 0.50 0.40 -0.25 0.60 0.10 0.55 1.05 0 1.20 -0.10 1.25 -0.40 0.40 -0.40 -0.95 -0.40 -0.95 -0.95 0 -0.30 0.55 -0.60 0.80 -0.65 0.50z"/>
  <path d="M16.30 27.75 c-0.45 -0.70 -1.15 -1.25 -1.55 -1.25 -0.95 0 -0.95 -0.80 -0.10 -1.35 1 -0.55 2.80 -7.85 2.25 -8.85 -0.30 -0.55 -0.15 -1.25 0.60 -2.30 1.45 -2 2.20 -1.95 1.80 0.15 -0.20 0.85 -0.45 2.60 -0.60 3.85 -0.10 1.25 -0.65 3.50 -1.20 5 -0.85 2.40 -0.85 2.80 -0.25 3.30 0.80 0.60 1.05 2.70 0.30 2.70 -0.25 0 -0.80 -0.55 -1.25 -1.25z"/>
  <path d="M24 26.60 c0 -0.20 0.45 -0.65 1 -1 1.10 -0.65 1.35 -0.15 0.40 0.80 -0.70 0.70 -1.40 0.80 -1.40 0.20z"/>
  <path d="M22.10 24.20 c-1.50 -1.05 -1.40 -1.70 0.30 -1.70 0.90 0 1.15 -0.15 0.70 -0.45 -0.40 -0.25 -0.60 -1.05 -0.50 -2.10 0.20 -1.70 0.20 -1.70 0.75 -0.45 l0.55 1.25 0.50 -1.25 c0.40 -1.10 0.50 -0.85 0.80 1.70 0.20 1.60 0.30 2.95 0.20 3.05 -0.70 0.60 -2.35 0.60 -3.30 -0.05z"/>
  <path d="M27 23.80 c0 -1.10 0.15 -1.35 0.55 -0.95 0.40 0.40 0.40 0.80 0 1.50 -0.45 0.80 -0.50 0.70 -0.55 -0.55z"/>
  <path d="M18.25 23.50 c0.50 -0.55 1 -0.90 1.15 -0.75 0.35 0.30 -0.90 1.75 -1.55 1.75 -0.25 0 -0.10 -0.45 0.40 -1z"/>
  <path d="M21 16.15 c-0.40 -0.50 -0.70 -1.45 -0.70 -2.15 0.35 -5.70 0.30 -5.55 1.40 -5.40 0.65 0.10 1.10 0.60 1.20 1.20 0.10 0.80 0.65 1.20 1.90 1.40 1.15 0.25 1.70 0.60 1.70 1.20 0 0.65 0.10 0.70 0.45 0.20 0.60 -1 1.35 0.25 1.50 2.55 0.10 2.15 -0.95 2.45 -1.30 0.35 -0.25 -1.60 -0.75 -2.05 -1.65 -1.50 -0.65 0.40 -0.60 0.50 0.15 0.50 0.90 0 1.20 1.25 0.35 1.75 -0.25 0.15 -0.50 -0.05 -0.50 -0.45 0 -1.10 -0.85 -1 -1.15 0.10 -0.20 0.80 -0.25 0.80 -0.30 0 0 -0.50 -0.40 -0.90 -0.80 -0.90 -0.40 0 -0.70 0.15 -0.70 0.40 0.30 1.70 -0.45 2.05 -1.55 0.75z"/>
  <path d="M25.35 10.65 c-0.55 -0.50 -0.40 -2.75 0.15 -2.40 0.25 0.15 0.45 0.85 0.40 1.50 -0.15 1.40 -0.10 1.35 -0.55 0.90z"/>
  <path d="M22.85 8.65 c-0.60 -0.55 -0.40 -2.55 0.30 -2.85 0.30 -0.15 -0.35 -0.25 -1.50 -0.15 l-2.10 0.10 1.05 -1.10 c0.75 -0.80 1.55 -1.10 3.05 -1.05 1.50 0 1.80 0.15 1.20 0.50 -0.65 0.35 -0.75 0.65 -0.35 1.40 0.85 1.60 -0.55 4.25 -1.65 3.15z"/>
  <path d="M16.60 5.40 c0.15 -0.90 3.75 -3.40 4.90 -3.40 1 0 0.40 0.80 -1.15 1.50 -1 0.50 -1.60 1.10 -1.60 1.75 0 0.70 -0.35 1 -1.15 1.05 -0.90 0.05 -1.10 -0.15 -1 -0.90z"/>
 </g>
 <g fill="#6f5a4b">
  <path d="M10.25 37.85 c0.20 -0.80 -0.05 -1.45 -0.95 -2.35 -0.75 -0.65 -1.30 -1.55 -1.30 -1.95 -0.05 -0.70 -0.15 -0.65 -0.70 0.10 -0.60 0.80 -0.70 0.80 -1 0.10 -0.15 -0.45 -0.10 -0.65 0.20 -0.50 0.30 0.15 0.50 0.10 0.50 -0.20 0 -0.25 -0.25 -0.55 -0.60 -0.65 -0.85 -0.30 0 -1.55 2.30 -3.35 1.85 -1.45 3.35 -2 3.25 -1.15 0 0.20 -0.95 1.05 -2.05 1.85 -1.15 0.85 -2.20 1.85 -2.30 2.25 -0.15 0.40 0.45 0.15 1.25 -0.60 0.80 -0.80 1.90 -1.40 2.45 -1.35 0.80 0 0.75 0.10 -0.30 0.60 -0.70 0.30 -1.40 0.80 -1.60 1.10 -0.55 0.75 -0.50 2.75 0.10 2.75 0.75 0 2.05 2.85 1.70 3.70 -0.45 1.25 -1.25 0.95 -0.95 -0.35z"/>
  <path d="M17.10 34.75 c-0.15 -2.50 -0.05 -2.75 0.85 -2.75 0.95 0 1.05 0.30 1.05 2.75 0 2.30 -0.15 2.75 -0.90 2.75 -0.70 0 -0.90 -0.50 -1 -2.75z"/>
  <path d="M21.80 35.90 c-0.50 -1.90 -0.35 -2.40 0.70 -2.40 1 0 1.30 1.10 0.70 2.70 -0.45 1.15 -1.05 1 -1.40 -0.30z"/>
  <path d="M13.30 33.90 c-0.50 -1.90 -0.35 -2.40 0.70 -2.40 0.55 0 1 0.30 1 0.65 0 1.15 -0.60 2.85 -1 2.85 -0.20 0 -0.50 -0.50 -0.70 -1.10z"/>
  <path d="M28 27.50 c0 -0.90 0.15 -0.95 1 -0.50 0.55 0.30 1 0.75 1 1 0 0.30 -0.45 0.50 -1 0.50 -0.65 0 -1 -0.35 -1 -1z"/>
  <path d="M14 26 c0 -0.30 0.30 -0.65 0.70 -0.80 0.40 -0.15 1 -1.40 1.30 -2.75 0.35 -1.50 0.85 -2.45 1.30 -2.45 0.40 0 0.70 0.25 0.70 0.55 0 1.15 -1.15 4.45 -1.60 4.45 -0.20 0 -0.40 0.35 -0.40 0.75 0 0.40 -0.45 0.75 -1 0.75 -0.55 0 -1 -0.25 -1 -0.50z"/>
  <path d="M28.85 26.15 c-0.60 -0.55 -0.40 -1.15 0.40 -1.15 0.40 0 0.75 0.35 0.75 0.75 0 0.80 -0.60 1 -1.15 0.40z"/>
  <path d="M21.90 23.95 c-1 -0.55 -1.15 -2.05 -0.40 -3.50 1.05 -1.90 0.05 -0.90 -1.20 1.30 -0.75 1.25 -1.55 2.25 -1.80 2.25 -0.25 0 0.35 -1.35 1.35 -3 1.90 -3.20 2.95 -3.75 3.45 -1.75 0.40 1.65 1.10 1.60 1.35 -0.10 0.15 -1.15 0.20 -1.05 0.30 0.50 0.05 1.75 -0.05 1.85 -1.55 1.90 -0.90 0.05 -1.25 0.15 -0.75 0.30 0.50 0.15 0.85 0.70 0.85 1.45 0 1.30 -0.30 1.45 -1.60 0.65z"/>
  <path d="M28.85 23.50 c-0.35 -1.45 0.15 -3 1 -3 0.50 0 0.65 0.50 0.55 1.85 -0.15 2 -1.10 2.75 -1.55 1.15z"/>
  <path d="M11.85 20.15 c0.25 -0.60 0.10 -0.75 -0.50 -0.50 -0.45 0.15 -0.85 0.10 -0.85 -0.15 0 -0.30 0.20 -0.50 0.45 -0.50 0.55 0 1.80 -1.90 2.30 -3.50 l0.40 -1.25 -1.15 1 -1.15 1 0.35 -1 c0.65 -1.65 1.20 -3.40 1.50 -4.75 0.15 -0.70 0.65 -1.75 1.15 -2.30 0.50 -0.55 1.25 -1.65 1.65 -2.45 0.50 -0.95 1.25 -1.55 2 -1.65 1.10 -0.15 1.15 -0.10 0.45 0.50 -1.05 0.80 -3.45 4.45 -3.45 5.15 0 0.25 0.70 -0.55 1.50 -1.85 1.35 -2.15 2.50 -3.35 2.50 -2.65 0 0.20 -0.45 1 -1 1.75 -0.55 0.75 -1.85 3.95 -2.90 7.10 -1.05 3.15 -2.10 5.95 -2.30 6.30 -0.55 0.90 -1.30 0.70 -0.95 -0.25z"/>
  <path d="M14.75 17.85 c0.50 -0.75 1 -1.25 1.15 -1.10 0.15 0.15 -0.25 0.80 -0.85 1.40 l-1.15 1.10 0.85 -1.40z"/>
  <path d="M27.45 17.40 c-0.20 -3.25 -0.75 -4.15 -1.95 -3.40 -0.65 0.40 -0.60 0.50 0.15 0.50 1.20 0 1.10 1.35 -0.20 2 -0.85 0.50 -1.05 0.40 -1.30 -0.45 -0.25 -1.05 -1.65 -1.50 -1.65 -0.50 0 0.30 -0.50 0.45 -1.10 0.35 -1.10 -0.15 -1.20 -0.60 -0.95 -3.50 0.05 -0.95 1.55 -1.30 1.55 -0.40 0 0.75 1.05 0.60 1.70 -0.25 0.65 -0.85 2.80 -0.50 2.80 0.50 0 0.35 0.40 0.60 0.85 0.55 0.60 -0.05 0.85 0.40 0.95 1.50 0.05 0.80 0.25 2 0.40 2.60 0.30 0.80 0.15 1.10 -0.40 1.10 -0.45 0 -0.80 -0.30 -0.85 -0.60z m-2.55 -4.80 c0.30 -0.90 -0.75 -0.70 -1.10 0.20 -0.20 0.50 -0.05 0.70 0.30 0.60 0.30 -0.10 0.70 -0.50 0.80 -0.80z"/>
  <path d="M18.50 13.95 c0 -0.80 0.20 -1.40 0.45 -1.25 0.40 0.25 0.15 2.80 -0.25 2.80 -0.10 0 -0.20 -0.70 -0.20 -1.55z"/>
  <path d="M20.75 10.50 c0.20 -0.30 0 -1.10 -0.45 -1.75 -1 -1.50 -1 -1.75 -0.05 -1.75 0.40 0 0.75 -0.20 0.75 -0.50 0 -0.25 -0.40 -0.50 -0.85 -0.50 -1.45 0 0.95 -2.10 2.50 -2.15 1.05 -0.10 1.25 -0.30 1.05 -1.35 -0.25 -1.40 0.70 -3.20 1.15 -2.10 0.10 0.30 0.55 0.60 0.95 0.60 0.85 0 0.95 0.85 0.10 1.15 -0.50 0.15 -0.50 0.35 0 1 0.55 0.65 0.50 0.80 -0.50 0.95 -0.90 0.10 -1.15 0.50 -1.20 1.65 -0.10 2.55 -0.25 3.55 -0.55 2.90 -0.45 -1.20 -1.15 -0.65 -1.15 0.85 0 1.20 -0.20 1.50 -1.05 1.50 -0.55 0 -0.85 -0.20 -0.70 -0.50z"/>
  <path d="M25.35 10.70 c-0.20 -0.20 -0.35 -0.85 -0.35 -1.45 0 -0.70 0.30 -1.05 1 -1.05 0.55 0 1 0.25 1 0.55 0 0.90 -1.25 2.35 -1.65 1.95z"/>
 </g>
 <g fill="#55556c">
  <path d="M17.30 38.70 c-0.45 -1.15 0.20 -3.20 1 -3.20 0.50 0 0.70 0.60 0.70 2 0 2.05 -1.05 2.85 -1.70 1.20z"/>
  <path d="M21.90 35.75 c-0.20 -1.05 -0.05 -1.25 0.90 -1.25 1.10 0 1.15 0.10 0.60 1.25 -0.30 0.70 -0.70 1.25 -0.90 1.25 -0.20 0 -0.50 -0.55 -0.60 -1.25z"/>
  <path d="M9.10 35.35 c-0.60 -0.65 -1.10 -1.60 -1.10 -2.15 0 -1.30 2 -3.20 3.30 -3.15 0.80 0 0.75 0.10 -0.30 0.60 -0.70 0.30 -1.40 0.80 -1.60 1.10 -0.55 0.70 -0.50 2.75 0.05 2.75 0.45 0 1.20 1.50 0.90 1.80 -0.10 0.10 -0.65 -0.30 -1.25 -0.95z"/>
  <path d="M6.75 32.40 c0 -0.85 0.30 -1.65 0.65 -1.80 0.45 -0.15 0.55 0.20 0.30 1.25 -0.50 2.05 -1 2.35 -0.95 0.55z"/>
  <path d="M8.50 29.75 c0 -0.80 1.10 -1.50 1.95 -1.15 0.25 0.05 -0.10 0.55 -0.75 1.05 -1.05 0.80 -1.20 0.80 -1.20 0.10z"/>
  <path d="M11 21.75 c0 -0.15 0.40 -0.85 0.85 -1.60 0.85 -1.30 0.85 -1.30 -0.25 -0.70 -1.05 0.55 -1.05 0.45 0.25 -1.40 0.80 -1.10 1.60 -2 1.80 -2.05 0.60 0 -0.10 2.95 -1.05 4.65 -0.75 1.20 -1.60 1.80 -1.60 1.10z"/>
  <path d="M16.50 20.40 c0 -1.50 0.65 -2.90 1.35 -2.90 1.10 0 0.65 3.20 -0.45 3.40 -0.50 0.10 -0.90 -0.10 -0.90 -0.50z"/>
  <path d="M24.50 15.80 c0 -0.70 1.45 -1.55 1.90 -1.10 0.10 0.15 0.10 0.60 -0.05 1.05 -0.40 0.95 -1.85 1 -1.85 0.05z"/>
  <path d="M27.30 15.10 c-0.20 -0.90 -0.25 -1.80 -0.10 -1.95 0.55 -0.60 0.85 0.25 0.70 1.95 l-0.15 1.65 -0.45 -1.65z"/>
  <path d="M12.20 13.75 c0.10 -1.90 2.70 -7.30 3.85 -8.05 1.10 -0.65 0.95 0.35 -0.30 2.55 -0.75 1.25 -1.25 2.40 -1.10 2.55 0.15 0.15 0.90 -0.85 1.60 -2.30 1.45 -2.90 2.40 -3.10 1 -0.20 -0.45 1 -1.25 2.95 -1.70 4.35 -0.50 1.40 -1.20 2.65 -1.55 2.75 -0.45 0.15 -0.55 -0.05 -0.35 -0.60 0.40 -1.05 -0.10 -1.05 -0.95 0.05 -0.55 0.80 -0.60 0.65 -0.50 -1.10z"/>
 </g>
 <g fill="#966842">
  <path d="M14.35 38.15 c-0.20 -1.05 -0.45 -2.50 -0.65 -3.25 -0.20 -0.80 -0.10 -1.40 0.20 -1.40 0.50 0 1.60 3.70 1.60 5.45 0 1.75 -0.85 1.15 -1.15 -0.80z"/>
  <path d="M17.55 39.05 c-0.60 -1.05 -0.25 -1.55 1.05 -1.55 0.65 0 0.90 0.35 0.90 1.25 0 1.50 -1.25 1.70 -1.95 0.30z"/>
  <path d="M28.60 35.75 c0 -2.30 0.10 -2.70 0.40 -1.65 0.20 0.70 0.20 2.05 0 3 -0.35 1.40 -0.40 1.20 -0.40 -1.35z"/>
  <path d="M9 35 c-1.05 -1.50 -0.95 -2.05 0.15 -0.85 1.40 1.45 1.95 2.35 1.45 2.35 -0.30 0 -1 -0.65 -1.60 -1.50z"/>
  <path d="M21.60 34.40 c-0.40 -1.55 -0.50 -1.60 -2.50 -1.45 -1.15 0.05 -2.10 -0.05 -2.10 -0.30 0 -0.25 0.70 -1.10 1.50 -1.90 1.15 -1.10 1.50 -1.25 1.50 -0.60 0 0.60 0.45 0.85 1.50 0.85 1.30 0 1.50 0.15 1.50 1.45 0 0.80 0.25 1.55 0.55 1.65 0.70 0.25 0 1.90 -0.85 1.90 -0.35 0 -0.85 -0.75 -1.10 -1.60z"/>
  <path d="M25.05 33.85 c-0.75 -2 -0.70 -2.35 0.45 -2.35 1.10 0 1.35 1.65 0.50 3 -0.35 0.55 -0.55 0.45 -0.95 -0.65z"/>
  <path d="M6.75 33.55 c0.20 -0.40 0.10 -0.85 -0.30 -1.05 -0.50 -0.35 -0.50 -0.55 0 -1.20 0.40 -0.45 0.85 -0.80 1.10 -0.80 0.55 0 0 2.55 -0.70 3.25 -0.35 0.35 -0.35 0.30 -0.10 -0.20z"/>
  <path d="M14.55 30.35 c-0.05 -1.55 0.10 -1.90 0.80 -1.75 0.50 0.10 0.95 0.60 1.05 1.10 0.15 0.55 0 0.80 -0.35 0.60 -0.30 -0.20 -0.75 0.15 -1 0.80 -0.45 1 -0.50 0.90 -0.50 -0.75z"/>
  <path d="M28.70 31.15 c0.20 -0.60 0.10 -1.20 -0.20 -1.40 -0.25 -0.15 -0.50 -0.85 -0.50 -1.55 0 -0.95 0.25 -1.25 0.90 -1.10 0.65 0.15 0.80 0.60 0.70 2.15 -0.10 1.10 -0.40 2.25 -0.70 2.50 -0.35 0.35 -0.40 0.15 -0.20 -0.60z"/>
  <path d="M16.50 27.80 c-0.25 -0.70 -0.95 -1.30 -1.55 -1.40 -1.05 -0.15 -1.10 -0.20 -0.30 -1 0.45 -0.45 0.85 -1.05 0.85 -1.35 0 -0.30 0.25 -0.55 0.50 -0.55 0.30 0 0.50 0.55 0.50 1.25 0 0.70 0.35 1.40 0.75 1.55 0.85 0.35 1.05 2.70 0.25 2.70 -0.30 0 -0.75 -0.55 -1 -1.20z"/>
  <path d="M28.80 26.05 c-0.55 -0.85 0.30 -3.55 1.05 -3.55 0.55 0 0.70 0.35 0.45 1.15 -0.15 0.60 -0.30 1.50 -0.30 2 0 0.90 -0.75 1.15 -1.20 0.40z"/>
  <path d="M23 23.75 c0 -0.60 -0.30 -0.80 -1 -0.60 -0.80 0.20 -1 0 -1 -0.90 0 -0.65 0.35 -1.55 0.80 -1.95 0.40 -0.45 0.55 -0.80 0.25 -0.80 -0.30 0 -1.10 1 -1.85 2.25 -0.70 1.25 -1.50 2.25 -1.75 2.25 -0.20 0 0.40 -1.35 1.40 -3 1.90 -3.25 2.95 -3.75 3.45 -1.70 0.20 0.80 0.60 1.15 1 1 0.45 -0.15 0.70 0.10 0.70 0.70 0 0.55 -0.45 1 -1.10 1.15 -0.95 0.20 -0.90 0.25 0.25 0.30 1.05 0.05 1.40 0.25 1.25 0.95 -0.20 1.15 -2.40 1.45 -2.40 0.35z"/>
  <path d="M28.75 20.45 c-0.20 -0.85 -0.20 -1.65 0 -1.85 0.45 -0.45 1.75 1.40 1.75 2.50 0 1.50 -1.40 1 -1.75 -0.65z"/>
  <path d="M11.85 20.15 c0.25 -0.65 0.15 -0.75 -0.60 -0.45 -0.90 0.35 -0.90 0.30 0 -0.70 0.50 -0.55 0.95 -1 1 -1 0.05 0 0.10 0.70 0.15 1.50 0 0.85 -0.15 1.50 -0.40 1.50 -0.25 0 -0.30 -0.40 -0.15 -0.85z"/>
  <path d="M17.10 18.10 c0.05 -0.75 -0.05 -1.60 -0.20 -1.85 -0.30 -0.55 1.15 -3.40 1.75 -3.30 0.20 0 0.35 0.15 0.35 0.30 0 0.15 0 0.60 0 1 0 0.40 -0.35 0.75 -0.75 0.75 -0.40 0 -0.75 0.25 -0.75 0.50 0 0.30 0.35 0.50 0.75 0.50 0.80 0 0.90 0.60 0.45 2.40 -0.45 1.65 -1.75 1.40 -1.60 -0.30z"/>
  <path d="M22.25 14.65 c0.10 -0.35 -0.10 -0.65 -0.45 -0.65 -0.40 0 -0.85 0.30 -1 0.65 -0.15 0.30 -0.20 -0.75 -0.10 -2.40 0.10 -2.05 -0.10 -3.35 -0.60 -4.10 -0.65 -1.05 -0.65 -1.15 0.10 -1.15 0.95 0 1.10 -0.80 0.20 -1.15 -0.75 -0.25 1.45 -2.30 2.45 -2.35 1.05 0 2 2.60 1.45 4.15 -0.30 0.75 -0.75 1.30 -1.05 1.20 -0.25 -0.15 -0.50 0.45 -0.50 1.25 0 1.25 0.15 1.40 1.15 1.15 1.30 -0.30 1.40 0 0.35 1.10 -0.45 0.40 -0.65 0.90 -0.45 1.10 0.15 0.15 0.65 -0.20 1.05 -0.80 0.90 -1.30 1.65 -1.50 1.65 -0.40 0 0.40 -0.60 1.10 -1.30 1.60 -1.20 0.75 -1.25 0.85 -0.40 1.20 0.60 0.25 0.30 0.30 -0.95 0.30 -1.25 -0.10 -1.80 -0.30 -1.60 -0.70z"/>
  <path d="M27.35 15.15 c-0.55 -0.50 -0.40 -2.65 0.15 -2.65 0.30 0 0.50 0.15 0.55 0.40 0 0.20 0.10 0.85 0.15 1.50 0.15 1.10 -0.20 1.40 -0.85 0.75z"/>
  <path d="M25.30 10.25 c-0.50 -1.35 -0.35 -1.75 0.70 -1.75 0.55 0 1 -0.30 1 -0.60 0.05 -0.65 2.50 -2.75 2.50 -2.10 0 0.25 -2.15 3.25 -3.50 4.85 -0.20 0.25 -0.50 0.05 -0.70 -0.40z"/>
 </g>
 <g fill="#b56634">
  <path d="M15 39.95 c0 -0.10 -0.20 -0.95 -0.45 -1.85 -0.25 -0.85 -0.30 -1.60 -0.05 -1.60 0.40 0 1.05 3.10 0.70 3.45 -0.10 0.10 -0.20 0.10 -0.20 0z"/>
  <path d="M17.75 39.15 c-0.15 -0.50 -0.35 -2.30 -0.45 -3.95 -0.10 -2.65 0.05 -3.25 1.05 -4.15 0.80 -0.80 1.15 -1.80 1.25 -3.70 0.10 -1.90 0.35 -2.60 0.90 -2.60 0.45 0 0.80 0.55 0.90 1.55 0.15 1.35 0.35 1.55 1.85 1.60 0.95 0.05 1.85 -0.15 2 -0.40 0.15 -0.30 0.50 -0.50 0.80 -0.50 0.55 0 0.50 5.20 -0.05 7 l-0.40 1.25 -0.60 -1.60 c-0.75 -2.05 -1.75 -2.20 -1.35 -0.25 0.15 0.75 0.10 1.70 -0.15 2.10 -0.60 1 -2 -0.25 -2 -1.80 0 -0.65 -0.15 -1.20 -0.35 -1.20 -1 0.05 -1.55 0.90 -1.50 2.25 0.15 3.45 -0.15 5.25 -0.85 5.25 -0.40 0 -0.85 -0.40 -1.05 -0.85z"/>
  <path d="M13.25 33.05 c-0.55 -3.20 2 -6.75 2.95 -4.20 0.20 0.50 0.05 1 -0.45 1.25 -0.40 0.25 -0.75 0.95 -0.75 1.55 0 1.60 -0.55 3.35 -1 3.35 -0.25 0 -0.55 -0.90 -0.75 -1.95z"/>
  <path d="M16.55 27.90 c-0.25 -0.70 -0.25 -1.20 0.05 -1.35 0.60 -0.20 1.40 0.85 1.40 1.85 0 1 -1 0.65 -1.45 -0.50z"/>
  <path d="M21.80 23.70 c-0.85 -0.60 -0.85 -0.70 -0.20 -0.70 0.45 0 1 0.25 1.15 0.55 0.55 0.85 0.10 0.90 -0.95 0.15z"/>
  <path d="M25.30 10.20 c-0.50 -1.25 -0.35 -1.70 0.45 -1.70 0.45 0 0.90 -0.30 1.05 -0.70 0.30 -0.80 1.70 -1.50 1.70 -0.85 0 0.25 -0.65 1.25 -1.45 2.25 -1.15 1.40 -1.50 1.65 -1.75 1z"/>
 </g>
 <g fill="#847166">
  <path d="M17.70 39.15 c-0.55 -1 -0.35 -2.65 0.35 -2.65 0.25 0 0.45 0.80 0.45 1.75 0 2 -0.05 2.10 -0.80 0.90z"/>
  <path d="M10.25 38.10 c0.20 -0.65 0.10 -1.45 -0.25 -1.85 -0.40 -0.50 -0.45 -0.75 -0.10 -0.75 0.30 0 0.80 0.50 1.15 1.05 0.45 0.85 0.40 1.25 -0.30 1.90 -0.80 0.75 -0.85 0.70 -0.50 -0.35z"/>
  <path d="M22.10 35.40 c-0.35 -0.35 -0.60 -1 -0.60 -1.55 0 -1.20 1.65 -0.95 1.90 0.35 0.25 1.20 -0.55 1.95 -1.30 1.20z"/>
  <path d="M17.30 33.90 c-0.45 -1.70 -0.40 -1.80 0.65 -2.40 0.90 -0.45 1 -0.35 0.95 1.50 0 2.20 -1.05 2.80 -1.60 0.90z"/>
  <path d="M6 32.05 c0 -1.40 5.40 -5.20 7.10 -4.95 0.95 0.15 0.80 0.35 -1.10 1.20 -1.25 0.60 -2.95 1.75 -3.75 2.60 -1.50 1.60 -2.25 2 -2.25 1.15z"/>
  <path d="M8.60 32.05 c0.10 -0.40 0.75 -1.05 1.45 -1.50 0.95 -0.55 1.05 -0.60 0.45 0 -0.40 0.40 -1 1.05 -1.40 1.45 -0.55 0.60 -0.65 0.60 -0.50 0.05z"/>
  <path d="M28.60 29.90 c-0.85 -0.85 -0.75 -2.90 0.10 -2.90 0.90 0 1.35 1.25 0.90 2.50 -0.30 0.80 -0.50 0.90 -1 0.40z"/>
  <path d="M14.10 28.95 c0.10 -0.35 0.50 -0.75 0.85 -0.85 0.40 -0.15 0.60 0.05 0.45 0.45 -0.10 0.35 -0.50 0.75 -0.85 0.85 -0.40 0.15 -0.60 -0.05 -0.45 -0.45z"/>
  <path d="M16.55 27.90 c-0.50 -1.35 -0.35 -1.65 0.70 -1.25 0.85 0.35 1.05 2.35 0.25 2.35 -0.30 0 -0.70 -0.50 -0.95 -1.10z"/>
  <path d="M28.65 25.65 c-0.20 -0.45 -0.10 -0.90 0.25 -1.05 0.30 -0.10 0.40 -0.50 0.25 -0.90 -0.15 -0.45 0.05 -0.70 0.60 -0.70 0.60 0 0.75 0.25 0.55 0.80 -0.15 0.45 -0.30 1.20 -0.30 1.75 0 1.20 -0.90 1.25 -1.35 0.10z"/>
  <path d="M21.90 23.80 c-1.20 -0.90 -1.15 -2.30 0.10 -2.30 0.80 0 1 0.35 1 1.50 0 1.70 0.05 1.70 -1.10 0.80z"/>
  <path d="M12.15 19.80 c0.20 -0.50 0.15 -0.75 -0.15 -0.55 -0.85 0.55 -0.55 -0.50 0.45 -1.60 0.55 -0.60 0.90 -1.15 0.75 -1.30 -0.35 -0.35 3.60 -9.30 4.60 -10.40 1.25 -1.40 1.50 -0.75 0.30 0.90 -0.90 1.30 -4.30 10.25 -4.70 12.35 -0.10 0.55 -0.45 1.05 -0.85 1.20 -0.50 0.15 -0.60 0 -0.40 -0.60z"/>
  <path d="M17.20 17.65 c-0.05 -0.50 -0.15 -1.25 -0.25 -1.65 -0.15 -0.45 0.25 -0.80 0.95 -0.90 1.05 -0.15 1.15 0 1 1.50 -0.15 1.75 -1.65 2.65 -1.70 1.05z"/>
  <path d="M20.55 15.85 c-0.30 -0.40 -0.45 -0.80 -0.30 -0.95 0.15 -0.15 0.30 -1.10 0.35 -2.10 0.05 -1.40 0.25 -1.80 1 -1.80 0.50 0 0.90 0.25 0.90 0.50 0 0.30 0.30 0.45 0.65 0.40 0.35 -0.10 0.55 0.30 0.45 1.10 l-0.15 1.25 1.25 -1.50 c0.70 -0.80 1.45 -1.30 1.65 -1.10 0.55 0.60 -0.50 1.95 -2.25 2.80 -0.85 0.45 -1.60 1.10 -1.60 1.45 0 0.80 -1.25 0.75 -1.95 -0.05z"/>
  <path d="M24 15.80 c0 -0.80 1.85 -1.40 2.30 -0.75 0.40 0.70 -0.25 1.45 -1.35 1.45 -0.50 0 -0.95 -0.30 -0.95 -0.70z"/>
  <path d="M27.05 13.90 c-0.05 -0.80 0.20 -1.40 0.45 -1.40 0.60 0 0.60 0.40 0 1.75 -0.40 0.90 -0.45 0.85 -0.45 -0.35z"/>
  <path d="M12.85 13.65 c-0.70 -0.65 -0.35 -2.60 0.55 -3.25 0.50 -0.35 1.30 -1.65 1.75 -2.85 0.50 -1.20 1.20 -2.45 1.55 -2.80 1 -1 3.95 -2.75 4.70 -2.75 1.20 0 0.55 0.75 -1.40 1.65 -2.30 1.05 -4.65 4.15 -5.45 7.10 -0.65 2.40 -1.25 3.40 -1.70 2.90z"/>
  <path d="M25.35 10.25 c-0.55 -1.30 -0.40 -1.60 0.65 -1.90 1.15 -0.30 1.20 -0.05 0.30 1.60 -0.55 1 -0.70 1.05 -0.95 0.30z"/>
  <path d="M20.05 5.75 c-0.05 -0.65 0.95 -1.75 1.55 -1.75 0.20 0 0.40 0.25 0.40 0.50 0 0.30 -0.30 0.50 -0.70 0.50 -0.40 0 -0.85 0.30 -0.95 0.65 -0.15 0.30 -0.30 0.35 -0.30 0.10z"/>
  <path d="M24.10 3.05 c-1.15 -0.70 -0.50 -2.30 0.90 -2.15 1.60 0.15 1.90 0.60 0.85 1.15 -0.45 0.30 -0.75 0.70 -0.60 1 0.40 0.55 -0.25 0.60 -1.15 0z"/>
 </g>
 <g fill="#ac7b54">
  <path d="M17.80 38.85 c-0.25 -0.75 -0.30 -1.55 -0.10 -1.70 0.55 -0.55 0.90 0.25 0.70 1.70 l-0.20 1.40 -0.40 -1.40z"/>
  <path d="M10.25 38.10 c0.20 -0.70 0.05 -1.45 -0.35 -1.95 -0.55 -0.70 -0.55 -0.75 0.10 -0.55 0.95 0.30 1.25 2.35 0.50 3.10 -0.45 0.40 -0.55 0.30 -0.25 -0.60z"/>
  <path d="M14 36.15 c-1.20 -4.40 -1.20 -5.40 0.25 -6.95 l1.35 -1.45 -0.45 1.50 c-0.20 0.85 -0.35 3.15 -0.30 5.15 0.05 1.95 0 3.60 -0.10 3.60 -0.10 0 -0.45 -0.85 -0.75 -1.85z"/>
  <path d="M22.05 35.10 c-0.30 -0.55 -0.55 -1.35 -0.55 -1.80 0 -1 -2 -1.60 -2.50 -0.75 -0.25 0.30 -0.30 0.90 -0.15 1.30 0.15 0.35 -0.10 0.65 -0.55 0.65 -1.15 0 -1 -2.30 0.20 -3.50 0.75 -0.75 1 -1.65 1 -3.45 0 -2.50 0.60 -3.60 1.35 -2.45 0.60 0.95 0.70 4.40 0.15 4.40 -0.30 0 -0.50 0.25 -0.50 0.50 0 0.30 0.30 0.50 0.70 0.50 1 0 2.65 4.35 1.90 5.10 -0.35 0.35 -0.65 0.20 -1.05 -0.50z"/>
  <path d="M25.30 34.25 c-0.50 -1.40 -0.35 -2.25 0.45 -2.25 0.60 0 0.70 0.35 0.45 1.40 -0.45 1.75 -0.50 1.80 -0.90 0.85z"/>
  <path d="M6.35 32.10 c-0.40 -0.60 1.50 -2.60 2.50 -2.60 0.75 0 0.75 0.10 0.10 0.65 -0.40 0.30 -1.05 1 -1.50 1.50 -0.45 0.55 -0.95 0.75 -1.10 0.45z"/>
  <path d="M28.65 30 c-0.85 -1.30 -0.80 -3 0.05 -3 0.90 0 1.20 0.90 0.85 2.65 -0.30 1.35 -0.30 1.35 -0.90 0.35z"/>
  <path d="M17 28.50 c0 -0.25 -0.45 -0.95 -1.05 -1.55 -1.10 -1.10 -0.95 -2.45 0.25 -2.45 0.45 0 0.65 0.30 0.50 0.65 -0.15 0.40 0.10 1 0.55 1.35 0.85 0.70 1.05 2.50 0.25 2.50 -0.25 0 -0.50 -0.20 -0.50 -0.50z"/>
  <path d="M28.75 26 c-0.35 -0.60 0.10 -1.50 0.80 -1.50 0.25 0 0.45 0.45 0.45 1 0 1.05 -0.75 1.35 -1.25 0.50z"/>
  <path d="M23.50 23.25 c0 -0.40 -0.55 -0.85 -1.20 -1.05 -1.25 -0.30 -1.30 -1.50 -0.10 -2.30 0.35 -0.25 0.20 -0.40 -0.30 -0.40 -0.45 0 -1 0.45 -1.15 1.05 -0.20 0.55 -0.45 0.90 -0.60 0.80 -0.45 -0.45 1.35 -3.35 2.10 -3.35 0.40 0 0.85 0.55 1.05 1.25 0.15 0.70 0.60 1.25 0.95 1.25 0.60 0 1.25 1.45 1.25 2.90 0 0.30 -0.45 0.60 -1 0.60 -0.55 0 -1 -0.35 -1 -0.75z"/>
  <path d="M28.85 21.15 c-0.10 -0.50 -0.40 -1.30 -0.60 -1.75 -0.25 -0.65 -0.10 -0.90 0.45 -0.90 0.75 0 1.80 1.80 1.80 3.05 0 0.80 -1.40 0.50 -1.65 -0.40z"/>
  <path d="M11.50 21.30 c0 -0.20 0.25 -0.80 0.50 -1.30 0.45 -0.85 0.40 -0.90 -0.35 -0.65 -0.80 0.30 -0.80 0.25 -0.20 -0.50 0.35 -0.45 0.95 -0.85 1.25 -0.85 0.95 0 0.80 1.85 -0.25 2.80 -0.50 0.45 -0.95 0.70 -0.95 0.50z"/>
  <path d="M17.15 16.55 c-0.45 -0.75 -0.40 -1.25 0.40 -2.55 1.25 -2.05 1.65 -1.65 1.25 1.25 -0.40 2.45 -0.75 2.75 -1.65 1.30z"/>
  <path d="M24 15.75 c0 -0.40 0.45 -0.75 1 -0.75 0.55 0 1 0.35 1 0.75 0 0.40 -0.45 0.75 -1 0.75 -0.55 0 -1 -0.35 -1 -0.75z"/>
  <path d="M12 14.70 c0.30 -0.85 0.50 -1.75 0.45 -2 -0.20 -1.15 0.15 -1.70 1.05 -1.70 1 0 1 0.05 0.25 1.90 -0.45 1 -1.15 2.20 -1.55 2.60 -0.65 0.65 -0.65 0.55 -0.20 -0.80z"/>
  <path d="M20.25 15.05 c0.15 -0.30 0.40 -2.15 0.55 -4.10 0.15 -2 0.35 -3.80 0.50 -4.05 0.15 -0.20 0.95 -0.40 1.80 -0.40 1.15 0 1.45 0.20 1.20 0.80 -0.15 0.45 -0.30 1 -0.30 1.25 0 0.25 -0.50 0.20 -1.10 -0.10 -1.05 -0.55 -1.10 -0.55 -0.50 0.20 0.40 0.45 0.55 1.25 0.40 1.75 -0.20 0.60 -0.05 1.10 0.40 1.25 0.45 0.20 0.60 0.70 0.45 1.35 -0.20 0.80 -0.10 0.95 0.55 0.70 0.45 -0.15 0.80 -0.60 0.80 -1 0 -0.40 0.35 -0.70 0.75 -0.70 1.05 0 0.95 0.45 -0.35 1.55 -1.20 1.10 -2.05 1.20 -3.45 0.45 -1.20 -0.65 -1.25 -0.10 -0.05 0.80 0.75 0.60 0.70 0.65 -0.55 0.70 -0.80 0 -1.30 -0.20 -1.10 -0.45z"/>
  <path d="M14.10 13.50 c0.25 -0.85 0.70 -1.65 0.95 -1.80 0.60 -0.35 0.55 1.15 -0.05 2.35 -0.85 1.50 -1.50 1.10 -0.90 -0.55z"/>
  <path d="M27 13.50 c0 -0.55 0.25 -1 0.50 -1 0.30 0 0.50 0.45 0.50 1 0 0.55 -0.20 1 -0.50 1 -0.25 0 -0.50 -0.45 -0.50 -1z"/>
  <path d="M25.30 10.15 c-0.25 -0.55 -0.05 -1.10 0.50 -1.50 1.45 -1.05 1.80 -0.75 0.85 0.75 -0.45 0.75 -0.90 1.40 -0.95 1.50 -0.05 0.10 -0.25 -0.25 -0.40 -0.75z"/>
  <path d="M21.50 4.75 c0 -1.05 1.40 -1.55 2.15 -0.80 0.45 0.45 0.40 0.70 -0.15 1.05 -1.10 0.70 -2 0.60 -2 -0.25z"/>
  <path d="M24.10 3.40 c-0.80 -0.80 -0.75 -1.40 0.15 -1.40 0.40 0 0.75 0.45 0.75 1 0 1.15 -0.10 1.20 -0.90 0.40z"/>
 </g>
 <g fill="#918887">
  <path d="M9.30 35.40 c-0.70 -0.90 -1.15 -1.70 -1.05 -1.80 0.25 -0.25 2.70 2.50 2.75 3.05 0 0.70 -0.45 0.35 -1.70 -1.25z"/>
  <path d="M21.80 34.70 c-0.50 -1.30 -0.35 -2.20 0.40 -2.20 0.70 0 1.30 1.05 1.30 2.30 0 0.95 -1.30 0.90 -1.70 -0.10z"/>
  <path d="M6.30 32.10 c-0.35 -0.60 2.40 -3.40 4.35 -4.45 2.45 -1.25 2.10 -0.30 -0.60 1.60 -1.40 1 -2.75 2.20 -3 2.60 -0.25 0.50 -0.55 0.60 -0.75 0.25z"/>
  <path d="M8.50 32 c0 -0.70 2.35 -2.15 3.10 -1.85 0.40 0.20 0.30 0.30 -0.20 0.30 -0.50 0.05 -1.35 0.50 -1.90 1.05 -0.55 0.55 -1 0.80 -1 0.50z"/>
  <path d="M17 28 c0 -0.55 0.25 -1 0.50 -1 0.30 0 0.50 0.45 0.50 1 0 0.55 -0.20 1 -0.50 1 -0.25 0 -0.50 -0.45 -0.50 -1z"/>
  <path d="M21.65 20.90 c0.20 -0.70 1.80 -0.60 2.60 0.15 0.25 0.25 -0.20 0.45 -1.20 0.45 -1.10 0 -1.55 -0.20 -1.40 -0.60z"/>
  <path d="M21.70 19.30 c-0.90 -0.70 -0.90 -0.75 0 -1.10 0.55 -0.20 1.05 -0.10 1.35 0.35 0.95 1.55 0.25 1.90 -1.35 0.75z"/>
  <path d="M27.75 17.65 c-0.20 -1.05 -0.45 -2.30 -0.60 -2.75 -0.45 -1.75 0.60 -0.85 1.25 1 1.25 3.60 1.25 3.60 0.45 3.60 -0.55 0 -0.90 -0.65 -1.10 -1.85z"/>
  <path d="M11.90 18.40 c0.30 -0.35 1.35 -2.75 2.35 -5.30 1.05 -2.55 1.95 -4.55 2.10 -4.40 0.25 0.25 -2.10 7.90 -2.85 9.35 -0.30 0.50 -0.90 0.95 -1.35 0.95 -0.55 0 -0.65 -0.15 -0.25 -0.60z"/>
  <path d="M20.95 16.20 c-1.05 -1.05 -0.60 -3.25 0.70 -3.60 1 -0.25 1 -0.30 0.10 -0.60 -0.60 -0.20 -0.90 -0.85 -0.95 -1.95 -0.05 -1.30 0.10 -1.55 0.95 -1.45 0.70 0.10 1 0.55 1.05 1.40 0 0.70 0.20 1.65 0.40 2.10 0.20 0.45 0.20 1.15 0 1.45 -0.25 0.45 -0.10 0.50 0.50 0.30 0.50 -0.20 1 -0.35 1.10 -0.35 0.10 0 0.20 -0.35 0.20 -0.75 0 -0.40 0.35 -0.75 0.80 -0.75 1.15 0 0.60 1.10 -0.95 2 -1.10 0.65 -1.50 0.65 -2.40 0.10 -0.55 -0.35 -1.20 -0.50 -1.35 -0.35 -0.20 0.20 0.05 0.55 0.55 0.80 0.45 0.30 0.85 0.95 0.85 1.45 0 1.20 -0.50 1.25 -1.55 0.20z"/>
  <path d="M17 15.65 c0.05 -0.95 1.10 -2.65 1.70 -2.65 0.15 0 0.30 0.80 0.30 1.75 0 1.40 -0.20 1.75 -1 1.75 -0.65 0 -1 -0.35 -1 -0.85z"/>
  <path d="M24.10 15.90 c0.15 -0.35 0.75 -0.75 1.35 -0.80 0.80 -0.15 1.10 0.05 0.95 0.50 -0.15 0.35 -0.75 0.75 -1.35 0.80 -0.80 0.15 -1.10 -0.05 -0.95 -0.50z"/>
  <path d="M12 15.10 c0 -0.35 0.25 -1.10 0.50 -1.65 0.40 -0.65 0.35 -0.95 0 -0.95 -0.45 0 2 -5 3.05 -6.20 0.80 -0.90 1.10 0.20 0.35 1.30 -0.40 0.65 -1.15 2.30 -1.60 3.70 -0.85 2.65 -2.25 4.95 -2.30 3.80z"/>
  <path d="M25.35 10.25 c-0.35 -0.85 0.25 -1.60 2.90 -3.75 0.85 -0.70 0.90 -0.70 0.35 0.30 -0.30 0.55 -0.90 1.35 -1.40 1.70 -0.45 0.40 -0.95 1.15 -1.15 1.70 -0.35 0.90 -0.40 0.90 -0.70 0.05z"/>
  <path d="M20 7.50 c0 -0.25 0.40 -0.50 0.90 -0.50 0.80 -0.05 0.80 -0.05 0 -0.70 -0.50 -0.35 -0.90 -0.80 -0.90 -0.95 0 -0.70 2.40 -1.85 3.20 -1.55 1.10 0.40 1 1.05 -0.20 1.45 -0.55 0.15 -1 0.55 -1 0.85 0 0.25 0.35 0.40 0.75 0.20 0.50 -0.20 0.75 0.05 0.75 0.70 0 0.80 -0.35 1 -1.75 1 -0.95 0 -1.75 -0.20 -1.75 -0.50z"/>
  <path d="M17.50 6.55 c0.55 -1.10 1.50 -1.85 1.50 -1.20 -0.05 0.55 -1.30 2.15 -1.70 2.15 -0.20 0 -0.10 -0.45 0.20 -0.95z"/>
  <path d="M17 4.90 c0 -0.35 0.90 -1.15 2 -1.75 2.10 -1.25 3 -1.45 3 -0.65 0 0.30 -0.35 0.50 -0.85 0.50 -0.45 0 -1.55 0.55 -2.50 1.30 -1.05 0.80 -1.65 1 -1.65 0.60z"/>
  <path d="M24 3.25 c-0.90 -1.10 -0.25 -2.25 1.30 -2.25 1.30 0 1.30 0.05 0.55 0.90 -0.65 0.70 -0.70 1.05 -0.25 1.50 0.45 0.45 0.40 0.60 -0.20 0.60 -0.40 0 -1.05 -0.35 -1.40 -0.75z"/>
 </g>
 <g fill="#c48a5c">
  <path d="M17.50 35.30 c0 -3.30 0.70 -4.80 1.15 -2.50 0.30 1.70 -0.20 5.70 -0.70 5.70 -0.25 0 -0.45 -1.45 -0.45 -3.20z"/>
  <path d="M14.05 35.95 c-0.65 -1.95 -0.65 -1.95 -0.10 -1.95 0.50 0 1.30 2.90 0.90 3.30 -0.15 0.15 -0.50 -0.45 -0.80 -1.35z"/>
  <path d="M21.70 33.75 c-0.25 -1.40 -0.55 -1.75 -1.50 -1.75 -1.15 0 -1.20 -0.10 -0.90 -2.85 0.15 -1.60 0.40 -3.20 0.50 -3.55 0.40 -1.35 1.30 -0.25 1.45 1.75 0.10 1.15 0.65 3.10 1.20 4.40 1.25 2.80 1.30 3.75 0.30 3.75 -0.40 0 -0.85 -0.70 -1.05 -1.75z"/>
  <path d="M25.30 33.60 c-0.20 -0.65 -0.25 -1.30 -0.10 -1.45 0.50 -0.55 0.90 0.20 0.70 1.45 l-0.20 1.15 -0.40 -1.15z"/>
  <path d="M13 32 c0 -1.10 1.45 -4 2 -4 0.30 0 0.45 0.40 0.30 0.90 -0.15 0.45 -0.40 1.45 -0.60 2.25 -0.30 1.25 -1.70 1.95 -1.70 0.85z"/>
  <path d="M28.50 29.55 c-0.75 -1.40 -0.60 -2.55 0.25 -2.55 0.50 0 0.75 0.55 0.75 1.75 0 2 -0.25 2.15 -1 0.80z"/>
  <path d="M15.05 26.50 l-1.25 -0.30 1.40 -1.10 c1.10 -0.85 1.40 -1.50 1.40 -2.95 -0.05 -2.55 0.30 -3.65 1.20 -3.65 0.85 0 0.90 0.95 0.15 2.85 -0.30 0.75 -0.80 2.30 -1.15 3.45 -0.50 1.80 -0.70 1.95 -1.75 1.70z"/>
  <path d="M29.05 26.05 c-0.40 -0.25 -0.50 -0.70 -0.25 -1.10 0.50 -0.90 0.25 -4.50 -0.40 -5.30 -0.40 -0.50 -0.25 -0.65 0.50 -0.65 1.30 0 1.90 2.45 1.25 5.40 -0.30 1.60 -0.55 1.95 -1.10 1.65z"/>
  <path d="M23.50 23.95 c0 -0.70 -1.30 -1.95 -2 -1.95 -0.40 0 -0.40 -0.30 0 -0.95 0.45 -0.85 0.75 -0.90 1.95 -0.50 1.65 0.60 2.55 2.80 1.45 3.50 -0.90 0.60 -1.40 0.55 -1.40 -0.10z"/>
  <path d="M27 13.45 c0 -0.55 0.25 -0.85 0.50 -0.70 0.30 0.15 0.50 0.65 0.50 1.05 0 0.40 -0.20 0.70 -0.50 0.70 -0.25 0 -0.50 -0.45 -0.50 -1.05z"/>
  <path d="M20.85 12 c-0.15 -0.55 -0.05 -1.15 0.20 -1.30 0.25 -0.15 0.35 -0.50 0.20 -0.75 -0.20 -0.25 0.15 -0.45 0.75 -0.45 0.85 0 1 0.20 0.75 1 -0.20 0.55 -0.10 1 0.20 1 0.30 0 0.55 0.35 0.55 0.75 0 1.15 -2.35 0.95 -2.65 -0.25z"/>
  <path d="M22.70 7.90 l-1.05 -1.20 1.30 -0.60 c1.55 -0.75 1.80 -0.50 1.25 1.45 l-0.45 1.55 -1.05 -1.20z"/>
  <path d="M27.75 7 c0.50 -0.55 1 -1 1.10 -1 0.10 0 -0.05 0.45 -0.35 1 -0.30 0.55 -0.80 1 -1.10 1 -0.30 0 -0.15 -0.45 0.35 -1z"/>
  <path d="M20 5.50 c0 -0.80 2.30 -2.05 3.20 -1.70 1.15 0.45 1 0.95 -0.45 1.60 -1.60 0.75 -2.75 0.75 -2.75 0.10z"/>
 </g>
 <g fill="#e09e68">
  <path d="M22 33.95 c0 -1.35 0.10 -1.50 0.75 -0.95 0.40 0.35 0.75 1.05 0.75 1.55 0 0.55 -0.35 0.95 -0.75 0.95 -0.50 0 -0.75 -0.50 -0.75 -1.55z"/>
  <path d="M19.25 30.50 c0.15 -0.25 0.35 -1.25 0.45 -2.25 0.05 -0.95 0.40 -2.05 0.70 -2.35 0.45 -0.45 0.60 0 0.60 1.95 0 1.85 -0.20 2.60 -0.80 2.85 -1.10 0.40 -1.30 0.40 -0.95 -0.20z"/>
  <path d="M14.10 29.25 c0.30 -0.70 0.65 -1.20 0.70 -1.10 0.30 0.30 -0.45 2.35 -0.85 2.35 -0.25 0 -0.15 -0.55 0.15 -1.25z"/>
  <path d="M15.55 26.35 c-0.35 -0.45 -0.50 -1 -0.35 -1.25 0.60 -0.95 2.30 -8.20 2.05 -8.65 -0.20 -0.25 0.15 -0.45 0.70 -0.45 1.25 0 1.25 0.40 0.25 4 -0.40 1.50 -1.05 3.75 -1.40 4.95 -0.50 1.90 -0.65 2.05 -1.25 1.40z"/>
  <path d="M22.50 23.25 c0 -0.75 -0.30 -1.25 -0.75 -1.25 -0.45 0 -0.60 -0.30 -0.45 -0.75 0.35 -0.85 2.70 -1.05 2.70 -0.20 0 0.25 0.20 0.40 0.45 0.25 0.65 -0.40 1 2.05 0.40 2.65 -1.05 1.05 -2.35 0.65 -2.35 -0.70z"/>
  <path d="M29.05 21.90 c0.10 -0.65 0 -1.45 -0.20 -1.75 -0.25 -0.40 -0.15 -0.65 0.30 -0.65 0.80 0 1.35 1.05 1.35 2.55 0 0.55 -0.35 0.95 -0.80 0.95 -0.50 0 -0.70 -0.35 -0.65 -1.10z"/>
  <path d="M25.25 10 c-0.30 -0.45 2.80 -3.60 3.20 -3.25 0.10 0.15 -0.50 1 -1.35 1.95 -0.85 1 -1.70 1.55 -1.85 1.30z"/>
  <path d="M22 4.45 c0 -1.05 0.05 -1.10 1.20 -0.65 1.10 0.40 1 1.05 -0.20 1.35 -0.75 0.20 -1 0 -1 -0.70z"/>
 </g>
 <g fill="#cea27d">
  <path d="M17.50 35.30 c0 -1.85 0.20 -3.30 0.50 -3.30 0.30 0 0.50 1.30 0.50 2.95 0 1.65 -0.20 3.15 -0.50 3.30 -0.30 0.20 -0.50 -0.90 -0.50 -2.95z"/>
  <path d="M9.50 35.40 l-1.15 -1.65 1.40 1.35 c0.80 0.75 1.30 1.50 1.15 1.65 -0.15 0.20 -0.80 -0.45 -1.40 -1.35z"/>
  <path d="M13.55 33.95 c-0.45 -2 -0.40 -2.75 0.20 -3.85 0.65 -1.30 0.70 -1.15 0.75 2.55 0 2.10 -0.10 3.85 -0.20 3.85 -0.10 0 -0.45 -1.15 -0.75 -2.55z"/>
  <path d="M6.50 31.90 c0 -0.45 0.25 -1 0.55 -1.15 0.85 -0.55 0.90 -0.10 0.15 0.95 -0.60 0.85 -0.70 0.85 -0.70 0.20z"/>
  <path d="M28.60 29.50 c-0.80 -1.35 -0.75 -2.50 0.15 -2.50 0.50 0 0.75 0.55 0.75 1.75 0 2.05 -0.05 2.10 -0.90 0.75z"/>
  <path d="M8.70 29.05 c0.90 -1 2.80 -1.70 2.80 -1.05 0 0.50 -2.30 2 -3.05 2 -0.40 0 -0.30 -0.35 0.25 -0.95z"/>
  <path d="M15.80 26.60 c-0.20 -0.30 -0.70 -0.40 -1.20 -0.25 -0.80 0.30 -0.80 0.25 0 -0.65 0.45 -0.50 1.10 -1.90 1.45 -3.05 0.35 -1.20 0.90 -2.15 1.30 -2.15 0.50 0 0.60 0.30 0.35 1.15 -0.20 0.60 -0.65 2.10 -0.95 3.30 -0.35 1.20 -0.75 1.95 -0.95 1.65z"/>
  <path d="M28.60 25.45 c0.10 -0.30 0.40 -0.50 0.65 -0.50 0.25 0 0.55 0.20 0.65 0.50 0.10 0.30 -0.20 0.55 -0.65 0.55 -0.45 0 -0.75 -0.25 -0.65 -0.55z"/>
  <path d="M21 22.40 c0 -0.35 0.25 -1 0.50 -1.40 0.40 -0.60 0.50 -0.45 0.50 0.65 0 0.75 -0.20 1.35 -0.50 1.35 -0.25 0 -0.50 -0.30 -0.50 -0.60z"/>
  <path d="M11.90 20.40 c0.85 -0.85 0.75 -1.40 -0.25 -1.05 -0.75 0.25 -0.70 0.10 0.20 -0.90 0.60 -0.65 1.25 -1.80 1.40 -2.55 0.40 -1.50 1.25 -1.90 1.25 -0.65 0 0.45 -0.35 1.45 -0.75 2.25 -0.45 0.85 -0.65 1.50 -0.50 1.50 0.15 0 0.05 0.45 -0.25 1 -0.30 0.55 -0.80 1 -1.10 1 -0.45 0 -0.45 -0.15 0 -0.60z"/>
  <path d="M28.95 20.20 c-1 -1.15 -1.65 -3.70 -0.95 -3.70 0.65 0 2.10 2.90 1.90 3.85 -0.15 0.65 -0.25 0.60 -0.95 -0.15z"/>
  <path d="M21.10 16.40 c-0.90 -0.90 -0.75 -2.05 0.20 -1.70 0.45 0.15 0.90 0.30 1 0.30 0.10 0 0.20 0.45 0.20 1 0 1.15 -0.50 1.30 -1.40 0.40z"/>
  <path d="M18 13.50 c0.30 -0.55 0.65 -1 0.75 -1 0.15 0 0.25 0.45 0.25 1 0 0.55 -0.35 1 -0.75 1 -0.65 0 -0.70 -0.20 -0.25 -1z"/>
  <path d="M22.35 13.95 c-0.45 -0.25 -1.10 -0.35 -1.35 -0.20 -0.50 0.30 -0.35 -1 0.25 -3.10 0.10 -0.30 -0.15 -0.95 -0.50 -1.50 -0.90 -1.15 -0.95 -2.15 -0.10 -2.15 0.30 0 1.25 -0.35 2.05 -0.75 1.75 -0.95 1.90 -0.85 1.50 1.20 -0.25 1.15 -0.50 1.45 -0.85 1.10 -0.85 -0.85 -1.55 -0.65 -0.80 0.25 0.50 0.60 0.50 1 0.05 1.75 -0.50 0.80 -0.45 0.95 0.20 0.95 0.60 0 0.75 0.35 0.60 1.25 -0.15 0.65 0 1.30 0.30 1.45 0.30 0.10 0.35 0.25 0.05 0.25 -0.25 0 -0.90 -0.20 -1.40 -0.50z"/>
  <path d="M25.05 9.65 c0 -0.25 0.85 -1.05 1.80 -1.90 1.35 -1.10 1.65 -1.25 1.25 -0.50 -0.85 1.60 -3.15 3.35 -3.05 2.40z"/>
  <path d="M16 9.20 c0 -0.65 2.10 -3.75 2.35 -3.50 0.15 0.15 -0.25 1.05 -0.85 2 -1.05 1.70 -1.50 2.15 -1.50 1.50z"/>
  <path d="M15 7.75 c0 -1.15 1.50 -3.25 2.30 -3.25 0.50 0 0.35 0.60 -0.60 2 -1.45 2.20 -1.70 2.35 -1.70 1.25z"/>
  <path d="M20 5.55 c0 -0.25 0.60 -0.80 1.30 -1.30 1.65 -1.10 2.95 -0.20 1.40 1 -1.05 0.80 -2.70 1 -2.70 0.30z"/>
 </g>
 <g fill="#aba6ac">
  <path d="M17.60 37 c0 -0.95 0.10 -1.35 0.25 -0.85 0.10 0.45 0.10 1.25 0 1.75 -0.15 0.45 -0.25 0.05 -0.25 -0.90z"/>
  <path d="M7 30.85 c0 -0.35 1.10 -1.35 2.45 -2.25 4.10 -2.65 4.15 -1.85 0.05 1.10 -1.40 1 -2.50 1.50 -2.50 1.15z"/>
  <path d="M11.50 21.10 c0 -0.25 0.35 -0.75 0.75 -1.10 0.40 -0.35 0.75 -0.40 0.75 -0.10 0 0.25 -0.35 0.75 -0.75 1.10 -0.40 0.35 -0.75 0.40 -0.75 0.10z"/>
  <path d="M21.50 21 c0 -0.25 0.55 -0.50 1.25 -0.50 0.70 0 1.25 0.25 1.25 0.50 0 0.30 -0.55 0.50 -1.25 0.50 -0.70 0 -1.25 -0.20 -1.25 -0.50z"/>
  <path d="M22.40 19.45 c-0.95 -0.55 -1.20 -1.45 -0.40 -1.45 0.25 0 0.70 0.45 1 1 0.60 1.15 0.60 1.15 -0.60 0.45z"/>
  <path d="M12.10 18.05 c1.20 -1.55 1.90 -1.90 1.90 -1.05 0 0.65 -1.85 2.50 -2.55 2.50 -0.30 0 0 -0.65 0.65 -1.45z"/>
  <path d="M13.70 14.90 c0.45 -1.90 2.30 -6.10 2.55 -5.80 0.35 0.35 -1.65 6 -2.35 6.65 -0.35 0.35 -0.45 0.15 -0.20 -0.85z"/>
  <path d="M24.25 15.50 c0.15 -0.25 0.80 -0.50 1.40 -0.50 0.90 0 0.95 0.10 0.35 0.50 -1 0.65 -2.15 0.65 -1.75 0z"/>
  <path d="M12 14.85 c0 -0.35 0.40 -1.15 0.85 -1.85 0.75 -1.05 0.75 -1.15 0 -0.85 -0.65 0.25 -0.60 0 0.25 -1.45 0.55 -0.95 1.20 -1.70 1.45 -1.70 0.45 0 0.10 1.40 -0.60 2.30 -0.25 0.30 -0.30 0.65 -0.15 0.80 0.30 0.30 -1.15 3.40 -1.55 3.40 -0.15 0 -0.25 -0.30 -0.25 -0.65z"/>
  <path d="M27 14.05 c0 -0.60 0.25 -1.05 0.50 -1.05 0.30 0 0.50 0.30 0.50 0.70 0 0.40 -0.20 0.90 -0.50 1.05 -0.25 0.15 -0.50 -0.15 -0.50 -0.70z"/>
  <path d="M25 13.05 c0.30 -0.60 0.75 -1.05 1 -1.05 0.90 0 0.55 0.95 -0.55 1.50 -0.95 0.55 -1 0.50 -0.45 -0.45z"/>
  <path d="M21.50 13.10 c0 -0.25 0.45 -0.60 1.05 -0.75 0.65 -0.15 0.95 -0.05 0.80 0.30 -0.25 0.75 -1.85 1.10 -1.85 0.45z"/>
  <path d="M21.05 10.90 c0.05 -0.65 -0.10 -1.55 -0.30 -2 -0.45 -1.15 0.55 -1.20 1.65 -0.10 0.75 0.75 0.75 0.85 -0.05 1.45 -0.60 0.45 -0.70 0.70 -0.25 1.15 0.45 0.45 0.40 0.60 -0.25 0.60 -0.55 0 -0.80 -0.40 -0.80 -1.10z"/>
  <path d="M25.25 10 c-0.25 -0.45 -0.20 -0.75 0.20 -0.90 0.35 -0.10 1.05 -0.65 1.60 -1.25 0.50 -0.55 0.95 -0.80 0.95 -0.45 0 0.30 -0.40 0.85 -0.90 1.20 -0.55 0.35 -1.05 1 -1.20 1.40 -0.20 0.60 -0.30 0.60 -0.65 0z"/>
  <path d="M15 7.45 c0 -0.95 2.05 -3.45 2.80 -3.45 0.50 0 0.30 0.60 -0.70 2 -1.35 1.95 -2.10 2.50 -2.10 1.45z"/>
  <path d="M22.25 4.55 c-0.30 -0.55 0.45 -1.15 0.95 -0.70 0.45 0.45 0.35 1.15 -0.15 1.15 -0.30 0 -0.60 -0.20 -0.80 -0.45z"/>
  <path d="M19.50 3 c0 -0.20 0.45 -0.50 1 -0.65 0.55 -0.15 1 -0.10 1 0.15 0 0.20 -0.45 0.50 -1 0.65 -0.55 0.15 -1 0.10 -1 -0.15z"/>
  <path d="M23.65 2.70 c-0.35 -1 0.55 -1.90 1.60 -1.55 0.65 0.30 0.65 0.50 0.15 1.35 -0.75 1.20 -1.35 1.30 -1.75 0.20z"/>
 </g>
 <g fill="#e7be95">
  <path d="M17.65 35.25 c0 -1.10 0.10 -1.50 0.20 -0.85 0.10 0.60 0.10 1.50 0 2 -0.15 0.45 -0.25 -0.05 -0.20 -1.15z"/>
  <path d="M28.50 29.05 c-0.70 -1.35 -0.65 -2.05 0.25 -2.05 0.50 0 0.75 0.50 0.75 1.50 0 1.75 -0.25 1.90 -1 0.55z"/>
  <path d="M14.75 25.55 c0.55 -0.45 1.05 -1.15 1.10 -1.55 0.05 -0.40 0.40 -1.85 0.70 -3.25 0.35 -1.35 0.60 -3.10 0.60 -3.85 0 -1.05 0.25 -1.40 0.90 -1.40 1.20 0 1.20 0.35 -0.40 6.05 -1.25 4.45 -1.40 4.85 -2.60 4.85 -1.25 0 -1.25 -0.05 -0.30 -0.85z"/>
  <path d="M28.50 25.50 c0 -0.25 0.35 -0.50 0.75 -0.50 0.40 0 0.75 0.25 0.75 0.50 0 0.30 -0.35 0.50 -0.75 0.50 -0.40 0 -0.75 -0.20 -0.75 -0.50z"/>
  <path d="M21.80 23.55 c-1.20 -1.30 -0.65 -3.05 0.95 -3.05 0.90 0 1.25 0.35 1.50 1.50 0.55 2.50 -0.80 3.35 -2.45 1.55z"/>
  <path d="M29.05 22.45 c0.05 -0.95 -0.20 -2.50 -0.65 -3.45 -1 -2.30 -1.65 -6 -1 -6 0.25 0 0.65 0.85 0.85 1.90 0.20 1 0.80 2.80 1.30 4 1.10 2.35 1.10 4.65 0.05 5 -0.50 0.15 -0.65 -0.25 -0.55 -1.45z"/>
  <path d="M11.80 18.40 c0.55 -0.65 1.55 -2.55 2.25 -4.30 1.40 -3.65 1.90 -3.30 0.70 0.50 -0.85 2.60 -2.45 4.90 -3.40 4.90 -0.30 0 -0.10 -0.50 0.45 -1.10z"/>
  <path d="M12.15 14.80 c0.20 -0.50 0.35 -1.10 0.35 -1.35 0 -0.25 0.20 -0.45 0.45 -0.45 0.60 0 0.10 1.90 -0.60 2.35 -0.35 0.20 -0.40 0 -0.20 -0.55z"/>
  <path d="M20.85 12.50 c0.15 -0.95 0.30 -1.80 0.35 -1.85 0.05 -0.05 0.55 0.35 1.20 0.90 1.30 1 1 2.15 -0.45 1.80 -0.50 -0.15 -1 0 -1.15 0.35 -0.10 0.30 -0.10 -0.25 0.05 -1.20z"/>
  <path d="M15.50 10.15 c0 -0.25 0.45 -1.05 1 -1.90 1.20 -1.80 1.30 -1.30 0.25 0.75 -0.75 1.45 -1.25 1.90 -1.25 1.15z"/>
  <path d="M21.05 9.20 c-1.40 -1.80 -1.35 -2.05 0.65 -2.40 0.95 -0.20 1.85 -0.60 1.95 -0.95 0.40 -1.15 0.90 0.05 0.55 1.35 -0.25 1 -0.55 1.25 -1.25 1.05 -1.05 -0.35 -1.35 0.50 -0.30 0.90 0.45 0.15 0.45 0.40 0.05 0.80 -0.45 0.50 -0.80 0.30 -1.65 -0.75z"/>
  <path d="M14.50 9.10 c0 -1 1.55 -4.10 2.05 -4.10 0.70 0 0.55 0.60 -0.80 2.75 -0.65 1.10 -1.25 1.70 -1.25 1.35z"/>
  <path d="M20 5.50 c0 -0.25 0.65 -0.80 1.45 -1.25 1.75 -0.90 2.70 -0.10 1.25 1 -1.10 0.85 -2.70 1 -2.70 0.25z"/>
 </g>
 <g fill="#daccc5">
  <path d="M6.50 31.50 c0 -0.65 2 -2.45 3.65 -3.35 2.45 -1.25 2 -0.40 -0.90 1.75 -1.50 1.15 -2.75 1.85 -2.75 1.60z"/>
  <path d="M17 28.05 c0 -0.60 0.25 -1.05 0.50 -1.05 0.30 0 0.50 0.30 0.50 0.70 0 0.40 -0.20 0.90 -0.50 1.05 -0.25 0.15 -0.50 -0.15 -0.50 -0.70z"/>
  <path d="M14.30 25.95 c0.15 -0.25 0.60 -0.45 1 -0.45 0.40 0 0.70 -0.35 0.70 -0.75 0 -0.40 0.20 -0.75 0.45 -0.75 0.20 0 0.30 0.50 0.20 1.15 -0.15 0.75 -0.60 1.10 -1.45 1.15 -0.65 0.05 -1.05 -0.10 -0.90 -0.35z"/>
  <path d="M29.15 21.75 c0.05 -0.95 0.25 -1.75 0.45 -1.75 0.55 0 1.05 2.35 0.65 2.95 -0.65 1.10 -1.25 0.50 -1.10 -1.20z"/>
  <path d="M16.50 20.90 c0 -1.50 0.65 -2.90 1.35 -2.90 0.50 0 0.65 0.30 0.45 0.80 -0.15 0.45 -0.30 1.20 -0.30 1.75 0 0.50 -0.35 0.95 -0.75 0.95 -0.40 0 -0.75 -0.30 -0.75 -0.60z"/>
  <path d="M11.80 18.40 c0.55 -0.65 1.65 -2.85 2.45 -4.90 1.45 -3.65 3.15 -7 3.55 -7 0.10 0 -0.30 1.05 -1 2.40 -0.65 1.30 -1.55 3.60 -2 5.15 -0.80 2.85 -2.45 5.45 -3.40 5.45 -0.35 0 -0.15 -0.50 0.40 -1.10z"/>
  <path d="M20.65 15.75 c-0.15 -0.45 -0.15 -0.90 -0.05 -1.05 0.45 -0.45 1.90 0.40 1.90 1.10 0 0.95 -1.45 0.90 -1.85 -0.05z"/>
  <path d="M24.10 15.90 c0.15 -0.35 0.65 -0.75 1.10 -0.80 0.60 -0.15 0.85 0.05 0.70 0.50 -0.15 0.35 -0.65 0.75 -1.10 0.80 -0.60 0.15 -0.85 -0.05 -0.70 -0.50z"/>
  <path d="M12.50 13.90 c0 -0.45 0.35 -1.10 0.85 -1.45 0.75 -0.65 0.75 -0.60 0.15 0.55 -0.85 1.70 -1 1.80 -1 0.90z"/>
  <path d="M21.85 13.20 c-0.65 -0.65 -0.35 -1.20 0.70 -1.20 0.55 0 0.95 0.25 0.85 0.60 -0.25 0.70 -1.10 1.05 -1.55 0.60z"/>
  <path d="M12.80 11.30 c0.15 -0.45 0.50 -0.80 0.75 -0.80 0.25 0 0.45 -0.30 0.45 -0.70 0 -0.35 0.60 -1.70 1.30 -2.95 1.30 -2.35 3.85 -4.35 5.50 -4.35 0.70 0 0.55 0.20 -0.55 0.80 -2.20 1.15 -3.10 2.10 -4.75 5 -1.55 2.65 -3.35 4.70 -2.70 3z"/>
  <path d="M23.70 2.45 c-0.45 -0.80 0.50 -1.55 1.50 -1.15 0.65 0.25 0.70 0.45 0.25 1 -0.70 0.85 -1.25 0.90 -1.75 0.15z"/>
 </g>
 <g fill="#fde1a0">
  <path d="M28.30 28.20 c-0.20 -0.45 -0.20 -0.95 -0.10 -1.05 0.40 -0.40 1.30 0.40 1.30 1.15 0 0.95 -0.80 0.90 -1.20 -0.10z"/>
  <path d="M17 27.75 c0 -0.40 0.25 -0.75 0.50 -0.75 0.30 0 0.50 0.35 0.50 0.75 0 0.40 -0.20 0.75 -0.50 0.75 -0.25 0 -0.50 -0.35 -0.50 -0.75z"/>
  <path d="M15.85 26.15 c-0.15 -0.25 0.20 -2.40 0.70 -4.80 0.50 -2.45 0.75 -4.75 0.65 -5.10 -0.30 -0.80 0.65 -2.75 1.30 -2.75 1 0 0.35 4.20 -1.55 10.25 -0.35 1.10 -0.60 2.15 -0.55 2.40 0.05 0.20 0 0.35 -0.10 0.35 -0.15 0 -0.35 -0.15 -0.45 -0.35z"/>
  <path d="M22.40 23.90 c-0.60 -0.45 -0.75 -1.10 -0.55 -2.05 0.35 -1.85 1.85 -1.60 2.05 0.35 0.20 1.80 -0.45 2.50 -1.50 1.70z"/>
  <path d="M29.15 22.65 c0.15 -0.85 -0.10 -2.20 -0.65 -3.40 -1.05 -2.30 -1.70 -6.25 -1.05 -6.25 0.20 0 0.55 0.95 0.75 2.15 0.20 1.15 0.65 2.55 1 3.10 0.90 1.40 1.40 3.65 1.05 4.80 -0.50 1.50 -1.40 1.15 -1.10 -0.40z"/>
  <path d="M20.75 5 c0.50 -0.55 1.35 -1 1.90 -1 0.95 0 1 0.05 0.10 1 -0.50 0.55 -1.35 1 -1.90 1 -0.95 0 -1 -0.05 -0.10 -1z"/>
 </g>
 <g fill="#e0e3f0">
  <path d="M7.50 30.25 c0.80 -0.95 4 -2.95 4.25 -2.65 0.25 0.25 -4.05 3.40 -4.60 3.40 -0.15 0 0 -0.35 0.35 -0.75z"/>
  <path d="M12 18.65 c0 -0.30 0.20 -0.70 0.45 -0.90 0.25 -0.15 0.85 -1.40 1.30 -2.80 1 -2.95 1.55 -3 0.80 -0.05 -0.55 2 -2.50 4.90 -2.55 3.75z"/>
  <path d="M24.50 15.75 c0 -0.45 0.45 -0.75 1.05 -0.75 0.90 0 0.95 0.10 0.45 0.75 -0.35 0.40 -0.80 0.75 -1.05 0.75 -0.25 0 -0.45 -0.35 -0.45 -0.75z"/>
  <path d="M13 11 c2.25 -4.40 4.15 -6.95 5.70 -7.70 2.20 -1.05 3.55 -1.05 1.55 0 -2.20 1.15 -3.10 2.10 -4.75 5 -1.60 2.80 -3.75 5.10 -2.50 2.70z"/>
 </g>
 <g fill="#fcf1d2">
  <path d="M8 30 c2 -1.80 3.50 -2.70 3.50 -2.15 -0.05 0.40 -3.85 3.30 -4.75 3.55 -0.25 0.10 0.30 -0.55 1.25 -1.40z"/>
  <path d="M15.90 26.25 c-0.40 -0.40 0.20 -3.25 0.70 -3.25 0.25 0 0.30 0.50 0.10 1.15 -0.20 0.60 -0.35 1.40 -0.35 1.75 0 0.65 -0.05 0.70 -0.45 0.35z"/>
  <path d="M21.55 23.30 c-0.45 -0.55 -0.50 -1 -0.05 -1.75 0.90 -1.70 2 -1.30 2 0.70 0 1.85 -0.90 2.35 -1.95 1.05z"/>
  <path d="M29 22.80 c0 -0.40 0.25 -0.90 0.50 -1.05 0.30 -0.15 0.50 0.15 0.50 0.70 0 0.60 -0.20 1.05 -0.50 1.05 -0.25 0 -0.50 -0.30 -0.50 -0.70z"/>
  <path d="M16.75 20 c0.50 -2.40 1.25 -3.10 1.25 -1.15 0 0.85 -0.35 1.85 -0.80 2.20 -0.75 0.60 -0.80 0.50 -0.45 -1.05z"/>
  <path d="M28.60 19.35 c-0.60 -0.75 -1.35 -3.35 -0.90 -3.35 0.15 0 0.75 0.90 1.30 2 0.95 1.90 0.75 2.75 -0.40 1.35z"/>
  <path d="M21.75 18.95 c-0.20 -0.30 -0.25 -0.65 -0.10 -0.80 0.35 -0.35 1.35 0.30 1.35 0.90 0 0.60 -0.85 0.60 -1.25 -0.10z"/>
  <path d="M13.05 17.50 c0 -0.40 0.30 -1.30 0.70 -2 0.40 -0.70 0.70 -0.95 0.70 -0.50 0 0.40 -0.30 1.30 -0.70 2 -0.40 0.70 -0.70 0.95 -0.70 0.50z"/>
  <path d="M17.25 16.45 c-0.45 -0.65 0.70 -3.45 1.35 -3.45 0.30 0 0.40 0.65 0.20 1.55 -0.15 0.85 -0.30 1.75 -0.30 2 0 0.60 -0.85 0.55 -1.25 -0.10z"/>
  <path d="M20.75 15.95 c-0.20 -0.30 -0.20 -0.65 -0.05 -0.80 0.40 -0.40 1.80 0.25 1.80 0.85 0 0.65 -1.35 0.65 -1.75 -0.05z"/>
  <path d="M24.50 15.80 c0 -0.45 0.35 -0.80 0.80 -0.80 0.85 0 0.70 1.10 -0.20 1.40 -0.35 0.10 -0.60 -0.15 -0.60 -0.60z"/>
  <path d="M21.75 13 c-0.15 -0.30 0.05 -0.65 0.50 -0.80 0.95 -0.40 1.50 0 1 0.75 -0.40 0.70 -1.10 0.70 -1.50 0.05z"/>
  <path d="M15 7.85 c0 -0.70 1.70 -3.35 2.10 -3.35 0.20 0 0.40 0.15 0.40 0.40 -0.05 0.50 -2.50 3.45 -2.50 2.95z"/>
  <path d="M20.60 5.40 c0.15 -0.35 0.60 -0.70 1.05 -0.80 0.60 -0.10 0.75 0.05 0.55 0.60 -0.35 0.95 -1.90 1.10 -1.60 0.20z"/>
  <path d="M23.70 2.45 c-0.40 -0.70 0.55 -1.65 1.25 -1.25 0.55 0.35 0.20 1.80 -0.45 1.80 -0.25 0 -0.60 -0.25 -0.80 -0.55z"/>
 </g>
 <g fill="#fbfaf6">
  <path d="M8.25 29.70 c2.05 -1.70 3.25 -2.35 3.25 -1.75 0 0.25 -0.40 0.60 -0.95 0.80 -0.50 0.15 -1.30 0.70 -1.80 1.25 -0.50 0.55 -1.15 1 -1.45 1 -0.30 -0.05 0.15 -0.60 0.95 -1.30z"/>
  <path d="M22 22.50 c0 -0.80 0.25 -1.50 0.50 -1.50 0.30 0 0.50 0.70 0.50 1.50 0 0.85 -0.20 1.50 -0.50 1.50 -0.25 0 -0.50 -0.65 -0.50 -1.50z"/>
  <path d="M17 19.40 c0 -0.80 0.25 -1.40 0.50 -1.40 0.65 0 0.65 1 0 2 -0.40 0.60 -0.50 0.45 -0.50 -0.60z"/>
  <path d="M21.85 19.15 c-0.60 -0.60 -0.35 -1.10 0.40 -0.85 0.40 0.20 0.75 0.50 0.75 0.75 0 0.55 -0.70 0.60 -1.15 0.10z"/>
  <path d="M17 15.90 c0 -0.35 0.35 -1.10 0.75 -1.60 0.80 -1.05 0.90 -0.75 0.45 1.10 -0.35 1.15 -1.20 1.55 -1.20 0.50z"/>
  <path d="M20.75 15.95 c-0.50 -0.75 0.05 -1.15 1 -0.75 0.45 0.15 0.65 0.50 0.50 0.80 -0.40 0.65 -1.10 0.65 -1.50 -0.05z"/>
  <path d="M24.60 15.95 c0.10 -0.35 0.50 -0.75 0.85 -0.85 0.40 -0.15 0.60 0.05 0.45 0.45 -0.10 0.35 -0.50 0.75 -0.85 0.85 -0.40 0.15 -0.60 -0.05 -0.45 -0.45z"/>
  <path d="M13.85 15 c0.40 -1.50 1.05 -1.70 0.75 -0.25 -0.10 0.70 -0.40 1.25 -0.60 1.25 -0.25 0 -0.30 -0.45 -0.15 -1z"/>
  <path d="M15.15 7.40 c0.95 -1.75 2.20 -3.25 2.85 -3.50 0.95 -0.35 0.85 -0.10 -0.65 1.55 -1 1.10 -2.15 2.70 -2.60 3.50 -0.40 0.85 -0.90 1.55 -1.05 1.55 -0.15 0 0.50 -1.40 1.45 -3.10z"/>
  <path d="M23.85 2.65 c-0.65 -0.60 -0.35 -1.15 0.65 -1.15 0.65 0 0.90 0.25 0.70 0.75 -0.35 0.80 -0.85 0.95 -1.35 0.40z"/>
 </g>
</svg>