<?xml version="1.0" encoding="utf-8"?>
<!DOCTYPE svg PUBLIC "-//W3C//DTD SVG 1.0//EN" "http://www.w3.org/TR/2001/REC-SVG-20010904/DTD/svg10.dtd">
<svg version="1.0" xmlns="http://www.w3.org/2000/svg" width="40px" height="40px" viewBox="0 0 40 40" preserveAspectRatio="xMidYMid meet">
 <g fill="#0a0604">
  <path d="M8.50 39.55 c0 -0.30 0.25 -0.65 0.50 -0.80 0.30 -0.20 0.15 -0.80 -0.50 -1.60 -1.25 -1.60 -1.25 -2.45 0 -2.80 0.70 -0.15 1.30 0.15 2 1 1.25 1.60 1.25 2.75 0.10 3.80 -1 0.95 -2.10 1.10 -2.10 0.40z"/>
  <path d="M14.20 36.65 c0.20 -1.80 0.45 -3.50 0.60 -3.75 0.15 -0.20 1.05 -0.40 2 -0.40 1.70 0 1.70 0 1.70 2.25 0 1.25 0.25 2.25 0.50 2.25 0.30 0 0.50 -0.80 0.50 -1.75 0 -1.65 0.10 -1.75 1.75 -1.75 1.20 0 1.75 0.25 1.75 0.75 0 2.05 2.80 -1.10 3.25 -3.60 0.30 -2.05 0.40 -2.15 2.10 -2.15 l1.75 0 -0.40 3.65 c-0.20 1.95 -0.30 3.95 -0.30 4.35 0 0.40 -0.10 1.35 -0.25 2.15 -0.20 1.10 -0.50 1.35 -1.70 1.35 -1 0 -1.45 -0.25 -1.45 -0.85 0 -0.75 -0.05 -0.75 -0.90 0 -0.75 0.70 -2 0.85 -6.10 0.85 l-5.15 0 0.35 -3.35z"/>
  <path d="M6.65 31.80 c-0.45 -0.55 -0.35 -0.90 0.50 -1.65 2.40 -2.15 4.25 -3.05 7.10 -3.45 2.30 -0.30 2.65 -0.45 1.40 -0.60 l-1.60 -0.15 1.05 -1.75 c1.10 -1.85 1.40 -2 2.25 -1.15 0.40 0.40 0.90 0 1.90 -1.50 0.85 -1.25 1.75 -2.05 2.40 -2.05 0.90 0 0.95 0.25 0.70 2.35 -0.15 1.30 -0.60 2.60 -1.05 2.90 -0.55 0.40 -0.80 1.40 -0.80 2.95 0 1.25 -0.20 2.30 -0.50 2.30 -0.25 0 -0.50 0.35 -0.50 0.75 0 1.15 -4.35 1.05 -4.65 -0.10 -0.20 -0.70 -0.25 -0.60 -0.30 0.25 -0.05 0.75 -0.35 1.10 -1.10 1.10 -0.75 0 -0.95 -0.25 -0.75 -0.75 0.20 -0.60 0 -0.70 -1.10 -0.45 -0.75 0.20 -1.60 0.65 -1.90 1 -0.70 0.90 -2.25 0.85 -3.05 0z"/>
  <path d="M26.50 26.25 c0 -1.40 -0.20 -1.75 -1 -1.75 -1 0 -1.35 -0.80 -1.60 -3.75 -0.15 -1.25 -0.40 -1.55 -1.55 -1.65 -1.30 -0.15 -1.40 -0.30 -1.25 -2 0.15 -1.70 0.30 -1.85 1.80 -2 1.40 -0.15 1.60 -0.35 1.60 -1.55 0 -1.20 -0.25 -1.45 -1.50 -1.65 -1.30 -0.20 -1.50 -0.05 -1.50 0.95 0 0.90 -0.25 1.15 -1.25 1.15 -0.70 0 -1.25 0.30 -1.25 0.65 0 1.05 -1.85 2.55 -2.25 1.85 -0.25 -0.40 -0.55 -0.20 -0.95 0.60 -0.30 0.60 -1.10 1.20 -1.70 1.30 -0.95 0.15 -1.10 -0.05 -1.10 -1.40 0 -1.40 -0.10 -1.50 -1.05 -1 -0.95 0.55 -1 0.50 -0.45 -0.45 0.30 -0.60 0.75 -1.05 1 -1.05 0.70 0 2.45 -4.35 2.15 -5.45 -0.25 -1.05 1.45 -4.35 2.85 -5.40 0.60 -0.45 0.80 -0.40 1.10 0.50 0.25 1 0.30 1 0.35 -0.20 0.05 -1.40 0.85 -1.95 2.75 -1.95 0.65 0 1.55 -0.45 2.05 -1 0.70 -0.75 1.05 -0.85 1.30 -0.40 0.30 0.45 0.55 0.45 1.15 -0.05 1.10 -0.95 1.10 0.30 -0.05 1.55 -0.45 0.55 -0.55 0.90 -0.25 0.90 0.95 0 0.70 0.85 -0.30 1.10 -0.75 0.20 -0.90 0.60 -0.70 1.85 0.25 1.75 1.45 2.60 2.10 1.50 0.25 -0.35 0.60 -0.50 0.80 -0.30 0.50 0.50 -0.85 2.85 -1.65 2.85 -0.35 0 -0.65 0.45 -0.65 1 0 0.75 0.35 1 1.25 1 1.10 0 1.25 0.20 1.25 1.65 0 0.85 -0.15 2.15 -0.35 2.85 l-0.35 1.25 -0.40 -1.25 c-0.25 -0.75 -0.30 0.05 -0.15 2 0.15 1.80 0.50 3.35 0.75 3.40 0.30 0.10 0.50 0.75 0.50 1.40 0 0.95 0.25 1.20 1.30 1.20 1.10 0 1.25 0.15 1 1.15 -0.15 0.60 -0.30 1.40 -0.30 1.75 0 0.35 -0.70 0.60 -1.75 0.60 -1.65 0 -1.75 -0.10 -1.75 -1.75z m-3.50 -19.45 c0 -1.45 -0.15 -1.65 -1 -1.45 -1.20 0.30 -1.15 0.25 -0.40 1.90 0.80 1.75 1.40 1.55 1.40 -0.45z"/>
  <path d="M9.55 20.70 c-0.05 -0.30 0.50 -1.05 1.20 -1.70 l1.25 -1.15 -0.05 1.70 c0 0.95 -0.15 1.40 -0.30 1.10 -0.10 -0.35 -0.55 -0.65 -0.90 -0.65 -0.35 0 -0.80 0.30 -0.90 0.65 -0.15 0.30 -0.30 0.35 -0.30 0.05z"/>
 </g>
 <g fill="#23130a">
  <path d="M8.50 39.60 c0 -0.20 0.20 -0.60 0.50 -0.90 0.30 -0.30 -0.20 -1.25 -1.50 -2.70 -1.05 -1.25 -1.95 -2.50 -2 -2.85 0 -0.75 1.60 -1.65 2.95 -1.65 1.05 0 1.25 -0.35 1.10 -2.25 -0.10 -1.25 2.55 -2.90 4.55 -2.85 1.05 0 1.40 -0.20 1.40 -0.95 0 -1.25 1.60 -3.10 2.05 -2.35 0.20 0.35 0.80 -0.15 1.50 -1.25 1.50 -2.30 3.20 -2.50 3.60 -0.40 0.15 0.80 0.70 1.55 1.15 1.75 0.65 0.25 0.75 0.10 0.50 -0.80 -0.15 -0.65 -0.30 -1.55 -0.30 -2 0 -0.70 -0.40 -0.90 -1.70 -0.90 -1.45 0 -1.65 -0.15 -1.45 -1.15 0.10 -0.60 -0.10 -1.75 -0.55 -2.55 l-0.75 -1.45 -0.30 1.30 c-0.40 1.50 -1.75 1.80 -2.75 0.60 -0.50 -0.60 -0.50 -0.90 0.05 -1.55 0.40 -0.45 0.70 -1.50 0.75 -2.30 l0.10 -1.40 -0.95 1.10 c-0.55 0.60 -1.10 1.65 -1.30 2.30 -0.20 0.90 -0.40 1.05 -0.75 0.50 -0.35 -0.50 -0.40 -0.40 -0.20 0.25 0.15 0.50 0.30 1.15 0.30 1.45 0 0.30 0.30 0.30 0.75 -0.10 0.60 -0.50 0.75 -0.50 0.75 0.10 0 1.05 -3.95 5.50 -4.55 5.10 -0.25 -0.15 -0.30 -0.50 -0.15 -0.80 0.20 -0.30 0 -0.70 -0.35 -0.95 -0.55 -0.30 -0.40 -0.70 0.70 -1.85 1.40 -1.50 1.80 -2.75 0.70 -2.30 -1 0.35 -0.75 -3.55 0.30 -4.70 0.45 -0.50 0.85 -1.15 0.85 -1.40 0 -0.25 0.80 -1.65 1.80 -3.10 1.90 -2.80 4.25 -4.60 6.10 -4.60 1.20 0 1.50 0.75 0.50 1.15 -0.35 0.15 0.35 0.30 1.60 0.30 1.25 0.05 2.05 0.25 1.75 0.45 -0.55 0.40 -0.70 4.15 -0.15 3.80 0.20 -0.10 0.50 0 0.65 0.30 0.20 0.35 0.95 -0.05 1.90 -1 2.20 -2.15 2.70 -1.85 0.85 0.50 -0.85 1.10 -1.80 2 -2.05 2 -0.25 0 -0.45 0.70 -0.45 1.50 0 1 0.25 1.50 0.75 1.50 0.40 0 0.75 0.45 0.75 0.95 0 0.55 0.15 1.05 0.40 1.15 0.85 0.35 3.15 7.30 2.80 8.60 -0.45 1.85 -1.95 1.50 -2 -0.45 -0.15 -2.15 -0.75 -4.75 -1.25 -5.05 -0.25 -0.15 -0.45 -0.70 -0.45 -1.25 0 -0.95 -0.05 -0.95 -1.20 -0.10 l-1.20 0.90 1.20 1.30 c0.65 0.70 1.20 1.75 1.20 2.35 0 0.60 0.25 1.10 0.50 1.10 0.30 0 0.50 0.50 0.50 1.15 0 0.60 0.20 1.45 0.50 1.85 0.30 0.45 0.25 0.85 -0.15 1.10 -0.45 0.30 -0.45 0.40 0.05 0.40 0.30 0 0.60 0.35 0.60 0.75 0 0.40 0.20 0.75 0.50 0.75 0.65 0 0.20 8.50 -0.45 9.15 -0.30 0.30 -0.55 0.95 -0.55 1.40 0 0.50 -0.50 0.95 -1.25 1.05 -1.45 0.30 -1.65 -0.30 -0.35 -1.10 0.75 -0.50 0.65 -0.55 -0.45 -0.35 -0.90 0.10 -1.50 -0.10 -1.90 -0.75 -0.50 -0.80 -0.75 -0.85 -1.35 -0.35 -0.85 0.70 -1 0.60 -1.65 -1.05 -0.45 -1.20 -0.50 -1.20 -0.50 0.40 -0.05 1.45 0.10 1.60 1.45 1.60 1.15 0 1.50 0.20 1.50 1 0 0.80 -0.35 1 -1.50 1 -1 0 -1.50 -0.25 -1.50 -0.75 0 -0.40 -0.20 -0.75 -0.50 -0.75 -0.25 0 -0.50 0.35 -0.50 0.75 0 1 -2.35 1 -3.30 0 -0.45 -0.40 -0.60 -0.95 -0.45 -1.25 0.55 -0.90 0.70 -2.50 0.25 -2.50 -0.25 0 -0.60 1 -0.80 2.25 -0.30 2.30 -0.85 2.85 -1.40 1.45 -0.45 -1.15 -0.35 -4.75 0.15 -6.50 0.40 -1.45 0.35 -1.55 -0.75 -1.30 -0.95 0.15 -1.15 0.05 -0.90 -0.55 0.25 -0.70 0.10 -0.70 -1.30 -0.20 -2.50 0.90 -2.90 2.40 -1.30 4.50 1.55 2 1.60 2.35 0.35 3.75 -0.90 1.10 -2.05 1.45 -2.05 0.70z m18.65 -4.10 l0.75 -1.45 -1.20 0.80 c-0.65 0.40 -1.20 1.10 -1.20 1.45 0 1.20 0.90 0.75 1.65 -0.80z m-1.65 -2.75 c0.45 -0.55 0.45 -1.25 -0.05 -3.25 l-0.65 -2.50 -2.85 0 c-2.30 0 -2.90 -0.15 -3.10 -0.85 -0.15 -0.50 -0.25 0.75 -0.30 2.75 l-0.05 3.60 1.95 0 c1.10 0 2.15 0.25 2.30 0.50 0.45 0.75 2.05 0.60 2.75 -0.25z m-13.50 -3.50 c0.80 -0.45 0.95 -0.70 0.45 -0.75 -0.40 0 -1.20 0.35 -1.75 0.75 -1.20 0.90 -0.35 0.95 1.30 0z m10.25 -18 c-0.30 -2.65 -0.25 -3.30 0.40 -3.55 0.45 -0.15 0.65 -0.65 0.50 -1.25 -0.50 -1.75 -1.10 -0.95 -1.45 1.95 -0.20 1.55 -0.60 3.05 -0.90 3.25 -0.40 0.30 -0.40 0.50 0.10 0.70 0.30 0.10 0.60 0.65 0.60 1.20 0 0.50 0.25 0.95 0.55 0.95 0.35 0 0.40 -1.05 0.20 -3.25z m-4.35 -2.20 l0.20 -1.15 1.25 1.20 c1.20 1.05 1.25 1.05 0.90 0.15 -0.20 -0.55 -0.50 -1.40 -0.60 -1.85 -0.35 -1.20 -0.90 -1.15 -1.75 0.25 -1.15 1.80 -1.50 2.95 -0.80 2.75 0.35 -0.15 0.70 -0.75 0.80 -1.35z"/>
  <path d="M16.90 22.10 c-1.05 -0.20 -1.10 -0.70 -0.30 -2.95 0.65 -1.75 2.45 -2.35 2.35 -0.75 -0.05 1.90 -1.20 3.90 -2.05 3.70z"/>
 </g>
 <g fill="#48240c">
  <path d="M8.50 39.50 c0 -0.25 0.35 -0.50 0.75 -0.50 1.15 0 0.90 -0.55 -1.50 -3.20 -2.30 -2.50 -2.50 -3.45 -1.15 -5.15 0.60 -0.75 2.60 -0.90 2.15 -0.15 -0.15 0.30 0.05 0.50 0.55 0.50 0.75 0 0.75 0.10 0.05 1.15 -0.65 1.05 -0.60 1.25 0.70 2.85 1.70 2 1.75 2.50 0.50 3.90 -0.95 1.15 -2.05 1.45 -2.05 0.60z m1.05 -3.40 c-1.10 -1.60 -2.55 -2.90 -2.55 -2.40 0 0.55 2.70 3.80 3.15 3.80 0.25 0 -0.05 -0.65 -0.60 -1.40z"/>
  <path d="M15 39.40 c0 -0.45 -0.15 -0.90 -0.35 -1 -0.60 -0.25 -2.15 -6.80 -1.85 -7.65 0.20 -0.40 0.80 -0.80 1.40 -0.80 0.80 -0.05 0.85 -0.10 0.20 -0.30 -0.55 -0.15 -0.75 -0.50 -0.55 -1 0.25 -0.60 0.10 -0.75 -0.50 -0.50 -1.45 0.55 -1 -1.30 0.60 -2.40 0.80 -0.50 1.60 -1.55 1.75 -2.30 0.15 -0.80 0.65 -1.45 1.30 -1.60 0.90 -0.25 1 -0.10 0.70 0.80 -0.60 1.90 1.20 0 2.60 -2.70 1.15 -2.35 1.25 -2.40 3.05 -2.15 2.10 0.25 4 1.75 3.40 2.70 -0.30 0.45 -0.50 0.45 -0.80 -0.05 -0.25 -0.40 -0.45 -0.45 -0.45 -0.15 0 0.30 -1 0.55 -2.35 0.55 -1.40 0 -2.45 0.25 -2.55 0.60 -0.10 0.30 -0.70 1.20 -1.35 1.95 -0.95 1.15 -1.05 1.65 -0.75 3.35 0.25 1.35 0.40 1.60 0.45 0.75 0.10 -2.40 0.65 -3.50 1.65 -3.50 0.85 0 0.90 -0.15 0.40 -0.75 -0.50 -0.60 -0.20 -0.70 2.20 -0.65 1.95 0.05 2.80 0.30 2.80 0.75 0 0.35 0.25 0.65 0.55 0.65 0.30 0 0.45 -0.35 0.25 -0.75 -0.15 -0.45 0 -0.75 0.45 -0.75 0.40 0 0.75 0.45 0.75 1 0 0.55 0.20 1 0.45 1 0.25 0 0.45 -0.30 0.40 -0.60 -0.05 -2.25 0.25 -3.40 0.85 -3.40 0.95 0 1.15 1.25 0.70 4 -1.10 6.40 -1.30 8.20 -1.05 9.75 0.45 2.90 -0.20 5.10 -1.65 5.45 -1.65 0.45 -2.20 -0.10 -1.05 -0.95 0.55 -0.40 0.70 -0.80 0.40 -0.95 -0.30 -0.20 -0.25 -0.90 0.15 -1.95 0.95 -2.30 1.40 -5.85 0.80 -5.85 -0.25 0 -0.50 0.85 -0.50 1.90 0 2.10 -2.05 4.75 -2.75 3.60 -0.25 -0.40 -0.60 -0.25 -1.10 0.45 -0.95 1.45 -1.45 1.30 -2.10 -0.45 -0.60 -1.85 -1.70 -2.05 -1.25 -0.25 0.40 1.70 -0.15 3.75 -1.05 3.75 -0.40 0 -0.75 0.25 -0.75 0.50 0 0.30 -0.35 0.50 -0.75 0.50 -0.80 0 -0.85 -0.20 -0.80 -5 0.10 -4.15 -0.85 -3 -1.25 1.60 -0.25 2.90 -0.70 4.65 -0.70 2.80z m3.50 -4.40 c0 -1.35 0.15 -1.50 1.70 -1.50 0.95 0 1.85 0.30 1.95 0.65 0.15 0.30 0.30 0.10 0.30 -0.50 0.05 -0.85 0.35 -1.15 1.25 -1.15 1.30 0 1.80 -0.80 1.80 -3 0 -1.25 -0.20 -1.40 -1.85 -1.60 -1.05 -0.15 -2.30 -0.40 -2.75 -0.60 -0.80 -0.35 -0.90 -0.15 -0.90 1.60 0 1.25 -0.45 2.60 -1.25 3.80 -1.25 1.90 -1.65 3.80 -0.75 3.80 0.30 0 0.50 -0.65 0.50 -1.50z m-0.50 -5.50 c0 -0.25 -0.35 -0.50 -0.75 -0.50 -0.40 0 -0.75 0.25 -0.75 0.50 0 0.30 0.35 0.50 0.75 0.50 0.40 0 0.75 -0.20 0.75 -0.50z m8.95 -2.70 c-0.45 -0.40 -0.50 -0.35 -0.25 0.35 0.15 0.50 0.35 1.20 0.35 1.50 0.05 0.35 0.15 0.20 0.30 -0.35 0.15 -0.50 -0.05 -1.15 -0.40 -1.50z"/>
  <path d="M11 21.70 c0 -0.15 0.25 -0.70 0.50 -1.20 0.40 -0.80 0.40 -0.90 -0.25 -0.70 -0.40 0.20 -0.75 0.05 -0.75 -0.30 0 -0.30 0.45 -0.70 0.95 -0.85 0.55 -0.15 1.10 -0.75 1.25 -1.30 0.45 -1.70 0.35 -2 -0.45 -1.65 -0.90 0.30 -0.90 0.25 -0.30 -1.40 0.30 -0.70 0.30 -1.30 0.05 -1.40 -0.65 -0.20 4.05 -7.90 4.85 -7.90 0.35 0 0.65 -0.35 0.65 -0.75 0 -0.85 2.50 -2.25 4 -2.25 1.55 0 1.20 0.85 -0.70 1.50 -0.90 0.30 -2.20 1.15 -2.85 1.90 l-1.20 1.35 1.25 -1.10 c0.70 -0.60 2.20 -1.35 3.35 -1.75 1.65 -0.50 2.10 -0.85 1.90 -1.50 -0.15 -0.45 -0.10 -0.95 0.20 -1.10 0.40 -0.25 1.40 5.25 1.15 6.35 -0.10 0.35 1 0.55 2.50 0.40 0.85 -0.10 0.85 -0.05 0.05 1.40 -0.85 1.40 -0.85 1.50 0.20 2.40 0.70 0.60 1.15 1.70 1.30 3.30 0.20 2.05 0.10 2.35 -0.70 2.35 -0.65 0 -0.95 -0.35 -0.95 -1.10 0 -1 -0.05 -1.05 -1 -0.15 -0.85 0.75 -1.10 0.80 -1.80 0.20 -0.70 -0.55 -0.90 -0.55 -1.05 -0.05 -0.35 0.90 -1.65 0.75 -1.65 -0.20 0 -0.50 -0.30 -0.70 -0.75 -0.50 -0.55 0.20 -0.75 -0.05 -0.75 -0.85 0 -0.90 -0.10 -0.95 -0.50 -0.35 -0.25 0.40 -0.50 1.45 -0.50 2.25 0 2.25 -0.55 3.75 -1.30 3.75 -0.50 0 -0.70 -0.65 -0.70 -1.95 0 -1.10 -0.20 -2.15 -0.50 -2.30 -0.30 -0.15 -0.50 0 -0.50 0.40 0 0.35 -0.95 1.75 -2.15 3 -1.95 2.15 -2.85 2.80 -2.85 2.05z m6.05 -6.40 c0.25 0.15 0.40 0.05 0.35 -0.20 -0.25 -0.85 1.85 -5.10 2.50 -5.10 0.75 0 0.75 -0.30 0.05 -1.55 -0.35 -0.75 -0.35 -1.20 0.10 -1.75 0.45 -0.55 0.40 -0.70 -0.35 -0.70 -1.20 0 -2.70 2.70 -4.65 8.50 l-1.50 4.25 1.55 -1.85 c0.80 -1.05 1.70 -1.75 1.95 -1.60z m5.45 -2.90 c0 -1.80 -0.20 -1.75 -0.70 0.25 -0.20 0.80 -0.10 1.35 0.20 1.35 0.25 0 0.50 -0.70 0.50 -1.60z"/>
 </g>
 <g fill="#332821">
  <path d="M8.75 39.50 c-0.15 -0.25 0.05 -0.50 0.45 -0.50 0.45 0 0.80 -0.25 0.80 -0.60 0 -0.30 0.10 -0.45 0.25 -0.30 0.35 0.35 -0.25 1.90 -0.75 1.90 -0.25 0 -0.60 -0.20 -0.75 -0.50z"/>
  <path d="M26.25 39.50 c-0.15 -0.30 0 -0.65 0.45 -0.80 0.40 -0.15 0.60 -0.60 0.45 -1 -0.15 -0.45 0.10 -0.70 0.80 -0.70 0.85 0 1.05 0.30 1.05 1.50 0 1.25 -0.20 1.50 -1.20 1.50 -0.70 0 -1.40 -0.25 -1.55 -0.50z"/>
  <path d="M18.50 37.80 c0 -0.95 0.30 -1.85 0.65 -1.95 0.50 -0.20 0.50 -0.30 0 -0.30 -0.40 -0.05 -0.65 -0.75 -0.65 -1.80 l0 -1.75 3.50 0 c3.10 0 3.50 -0.10 3.50 -0.95 0 -1.85 -0.60 -2.55 -2.05 -2.55 -1.10 0 -1.45 -0.25 -1.45 -0.95 0 -0.80 -0.90 -1.55 -1.80 -1.55 -0.10 0 -0.20 1 -0.20 2.25 0 1.95 -0.15 2.25 -1.05 2.25 -0.75 0 -0.95 -0.25 -0.75 -0.75 0.20 -0.50 -0.05 -0.75 -0.70 -0.75 -0.80 0 -1 -0.35 -1 -1.75 0 -1.60 0.10 -1.75 0.95 -1.25 0.55 0.25 1.10 1 1.20 1.60 0.15 0.90 0.25 0.80 0.30 -0.40 0.05 -1.75 1.45 -3.85 1.90 -2.80 0.10 0.35 0.85 0.95 1.65 1.35 1.25 0.65 1.45 0.60 2.20 -0.20 0.80 -0.85 0.75 -0.90 -0.45 -0.65 -1.70 0.30 -3.90 -1.65 -3.45 -3.10 0.15 -0.65 -0.10 -0.45 -0.70 0.50 -1.25 1.90 -2.10 2.55 -2.10 1.50 0 -0.45 0.20 -0.80 0.40 -0.80 0.20 0 1 -1.25 1.80 -2.75 1.45 -2.95 1.80 -3.20 2.80 -2 0.50 0.60 0.75 0.65 1.05 0.20 0.20 -0.35 0.70 -0.45 1.20 -0.30 0.45 0.20 0.65 0.60 0.50 0.85 -0.20 0.30 -0.05 0.45 0.30 0.40 0.40 -0.10 0.70 0.35 0.75 1 0.05 0.65 0.30 1.40 0.65 1.75 0.30 0.30 0.55 0.95 0.55 1.45 0 0.50 0.15 0.90 0.40 0.90 0.20 0 0.35 -1 0.30 -2.25 0 -1.85 0.15 -2.25 0.90 -2.25 0.70 0 0.90 0.40 0.90 1.65 0 3.20 -0.65 6.85 -1.20 6.85 -0.35 0 -0.50 0.75 -0.40 2 0.10 1.10 0 2 -0.25 2 -0.25 0 -0.45 -0.75 -0.45 -1.60 0 -0.90 -0.15 -2.25 -0.35 -3 -0.30 -1.15 -0.20 -1.40 0.50 -1.40 0.80 0 0.80 -0.05 0 -0.60 -0.45 -0.35 -1.30 -1.90 -1.85 -3.40 -1.20 -3.35 -1.25 -2.95 -0.25 2.25 1 5.15 1.05 7.25 0.25 7.75 -0.35 0.20 -0.50 0.75 -0.35 1.15 0.15 0.40 -0.05 1.15 -0.40 1.70 -0.70 0.85 -0.70 0.85 -0.75 -0.20 0 -0.65 -0.20 -1.15 -0.50 -1.15 -0.25 0 -0.50 0.35 -0.50 0.80 0 0.70 -1.10 2.20 -1.65 2.20 -0.15 0 -0.50 -0.65 -0.80 -1.50 -0.70 -2.10 -1.65 -1.90 -1.55 0.40 0.15 3.05 0.05 3.60 -0.75 3.60 -0.50 0 -0.75 -0.50 -0.75 -1.70z m5.10 -16.55 c-0.10 -0.95 -0.25 -1.75 -0.35 -1.75 -0.10 0 -0.25 0.80 -0.35 1.75 -0.10 1.05 0 1.75 0.35 1.75 0.35 0 0.45 -0.70 0.35 -1.75z"/>
  <path d="M6.35 34.15 c-0.40 -0.80 -0.60 -1.75 -0.50 -2.15 0.35 -1.10 3.60 -3.85 5.65 -4.80 0.95 -0.45 2.25 -1.25 2.80 -1.80 1.05 -0.95 1.05 -0.95 1.30 0.30 0.20 1 0.05 1.20 -0.70 1.05 -0.50 -0.10 -0.80 0 -0.65 0.30 0.20 0.25 -0.65 0.90 -1.85 1.40 -2.35 1.05 -4.45 2.50 -3.65 2.55 0.30 0 0.75 -0.20 1 -0.45 0.80 -0.70 2.75 -1.15 2.75 -0.60 0 0.25 -0.50 0.65 -1.10 0.85 -1.75 0.50 -2.85 1.95 -2.60 3.25 l0.30 1.20 -1.05 -1.25 c-0.75 -0.90 -1.05 -1.05 -1.05 -0.45 0 0.40 0.25 1 0.60 1.35 0.45 0.45 0.45 0.60 0 0.60 -0.30 0 -0.90 -0.60 -1.25 -1.35z"/>
  <path d="M13.65 35.10 c-0.50 -0.30 -0.85 -2.50 -0.70 -4.65 0.05 -0.90 1.85 -2.95 2.55 -2.95 0.30 0 0.50 0.55 0.50 1.20 0 0.65 0.30 1.30 0.65 1.45 0.45 0.15 0.45 0.35 -0.05 1 -0.40 0.45 -0.55 1 -0.40 1.30 0.20 0.25 -0.05 0.80 -0.50 1.25 -0.40 0.45 -0.60 1 -0.45 1.30 0.35 0.60 -0.70 0.65 -1.60 0.10z"/>
  <path d="M17 33.65 c0 -1.15 0.25 -2.25 0.50 -2.40 0.65 -0.40 0.65 2.75 0 3.75 -0.35 0.55 -0.50 0.20 -0.50 -1.35z"/>
  <path d="M16 22.10 c0 -1.55 0.55 -2.60 1.35 -2.60 1.10 0 0.65 3.20 -0.45 3.40 -0.60 0.10 -0.90 -0.15 -0.90 -0.80z"/>
  <path d="M13.15 17.75 c0.20 -1.25 0.70 -2.65 1.10 -3.05 0.95 -0.95 0.95 -0.20 0.05 2.05 -0.45 1 -0.55 1.75 -0.25 1.75 0.25 0 0.65 -0.50 0.90 -1.15 0.25 -0.65 0.80 -1.45 1.30 -1.85 0.45 -0.35 1.15 -1.35 1.55 -2.15 0.45 -0.85 1.05 -1.30 1.45 -1.15 0.35 0.10 0.80 -0.05 0.95 -0.45 0.15 -0.45 0 -0.60 -0.50 -0.40 -0.50 0.20 -0.60 0 -0.40 -0.55 0.15 -0.45 0.55 -0.80 0.80 -0.80 0.30 0 0.35 -0.35 0.20 -0.75 -0.15 -0.40 -0.45 -1.10 -0.60 -1.50 -0.25 -0.55 0.05 -0.75 1 -0.75 0.95 0 1.30 0.25 1.30 1 0 0.55 0.25 1 0.50 1 0.30 0 0.50 -0.55 0.50 -1.25 0 -0.95 0.25 -1.25 1.05 -1.25 0.70 0 0.95 0.25 0.80 0.70 -0.15 0.40 0.10 0.80 0.70 0.95 0.65 0.20 0.95 0.70 0.95 1.80 0 1 0.35 1.70 1 2.05 0.70 0.35 1 1.05 1 2.25 0 0.90 0.20 2.25 0.50 2.95 0.30 0.85 0.30 1.35 -0.05 1.60 -0.70 0.40 -2 -1.35 -1.75 -2.40 0.25 -1.15 -0.10 -1.15 -1.35 -0.05 -0.90 0.85 -0.95 0.85 -1.60 0 -0.75 -1.05 -1.25 -1.10 -1.25 -0.10 0 0.90 -1.55 1 -2.40 0.15 -0.35 -0.35 -0.60 -1.30 -0.65 -2.15 l-0.05 -1.50 -0.50 1.45 c-0.40 1.05 -0.65 1.25 -0.95 0.75 -0.30 -0.50 -0.45 -0.15 -0.45 1 0 1.60 -0.05 1.65 -0.90 0.90 -0.80 -0.75 -0.90 -0.70 -1.50 0.55 -0.30 0.75 -1.05 1.65 -1.65 2.05 -1.10 0.65 -1.10 0.60 -0.80 -1.70z m10.35 -4 c0 -0.80 -0.30 -1.25 -0.75 -1.25 -0.45 0 -0.75 0.45 -0.75 1.25 0 0.80 0.30 1.25 0.75 1.25 0.45 0 0.75 -0.45 0.75 -1.25z m1.65 -3.85 c-0.15 -0.85 -0.50 -1.25 -0.95 -1.05 -0.95 0.35 -0.90 1.50 0.15 2.10 1.10 0.60 1.10 0.60 0.80 -1.05z"/>
  <path d="M16.15 7.20 c0.05 -1.90 0.30 -2.50 1.55 -3.55 2.10 -1.75 2.35 -0.50 0.35 1.55 -0.85 0.90 -1.55 1.75 -1.55 2 0 0.20 0.55 -0.30 1.20 -1.05 1.05 -1.20 1.35 -1.30 1.90 -0.70 0.45 0.50 0.45 0.60 0.05 0.35 -0.40 -0.20 -0.85 0.15 -1.25 0.90 -0.30 0.70 -0.75 1.30 -1 1.30 -0.20 0 -0.40 0.35 -0.40 0.75 0 0.40 -0.20 0.75 -0.45 0.75 -0.25 0 -0.45 -1.05 -0.40 -2.30z"/>
  <path d="M22 4.50 c0 -0.55 0.35 -1 0.80 -1 0.50 0 0.70 -0.30 0.50 -0.85 -0.25 -0.85 0.95 -3.05 1.40 -2.60 0.55 0.55 0.85 3.95 0.35 3.95 -0.30 0 -0.55 0.35 -0.55 0.75 0 0.45 -0.45 0.75 -1.25 0.75 -0.90 0 -1.25 -0.25 -1.25 -1z"/>
 </g>
 <g fill="#35393c">
  <path d="M17 38.50 c0 -1.35 0.15 -1.50 1.50 -1.50 1.35 0 1.50 0.15 1.50 1.50 0 1.35 -0.15 1.50 -1.50 1.50 -1.35 0 -1.50 -0.15 -1.50 -1.50z"/>
  <path d="M26.50 39.45 c0 -0.25 0.20 -0.40 0.45 -0.20 0.25 0.15 0.45 -0.45 0.45 -1.35 -0.05 -0.90 0.10 -2.20 0.30 -2.90 0.20 -0.70 0.40 -2.55 0.40 -4.10 0.05 -2.40 0.20 -2.90 0.90 -2.90 0.75 0 0.85 0.45 0.65 3.40 -0.50 8 -0.60 8.60 -1.95 8.60 -0.65 0 -1.20 -0.25 -1.20 -0.55z"/>
  <path d="M10.30 37.85 c0.10 -0.35 -0.50 -1.60 -1.40 -2.75 -1.35 -1.80 -1.70 -2 -1.95 -1.25 -0.30 0.85 -0.35 0.85 -0.70 0.05 -0.50 -1.30 -0.10 -2.60 0.95 -2.80 0.65 -0.15 0.80 0 0.55 0.45 -0.45 0.65 0.40 0.30 1.75 -0.80 0.40 -0.35 1.30 -0.80 2 -1 l1.25 -0.35 -1.30 0.95 c-3.10 2.15 -3.15 2.45 -1.40 4.60 1.50 1.85 1.70 3.55 0.50 3.55 -0.30 0 -0.40 -0.30 -0.25 -0.65z"/>
  <path d="M13.60 35.90 c-0.65 -1.90 -0.40 -5.05 0.45 -5.35 0.40 -0.10 0.35 -0.30 -0.10 -0.60 -0.55 -0.35 -0.40 -0.75 0.70 -1.70 0.75 -0.70 1.75 -1.25 2.15 -1.25 0.40 0 0.70 -0.25 0.70 -0.60 0 -0.90 0.65 0 0.85 1.15 0.10 0.70 -0.15 1.15 -0.85 1.30 -0.70 0.20 -0.95 0.55 -0.75 1.05 0.35 0.90 -0.70 2.20 -1.45 1.75 -0.30 -0.20 -0.25 0.05 0.15 0.55 0.50 0.60 0.55 1 0.15 1.40 -0.30 0.30 -0.40 1.30 -0.25 2.20 0.35 2.25 -0.95 2.30 -1.75 0.10z"/>
  <path d="M21.60 35.40 c-0.45 -1.80 -1.60 -2.50 -1.60 -0.95 0 0.70 -0.25 0.95 -0.75 0.75 -0.40 -0.20 -0.75 -0.60 -0.75 -1 0 -1 -0.90 -0.85 -1.15 0.20 -0.15 0.45 -0.25 0.10 -0.30 -0.80 0 -0.90 0.40 -2.50 0.95 -3.60 0.55 -1.10 1 -2.45 1 -3 0 -0.60 0.25 -1.50 0.50 -2.05 0.55 -0.95 0.55 -0.95 2.15 0.15 0.90 0.65 1.65 1.30 1.75 1.50 0.20 0.40 2.10 -1.15 2.10 -1.75 0 -0.25 -0.45 -0.25 -1 -0.10 -0.55 0.20 -1 0.10 -1 -0.20 0 -0.70 2.35 -0.70 2.75 -0.05 0.15 0.25 0.10 0.85 -0.15 1.35 -0.35 0.60 -0.25 1.05 0.25 1.60 0.55 0.55 0.70 1.50 0.55 3.65 -0.25 3.35 -1.05 4.60 -2.05 3.20 -0.55 -0.75 -0.70 -0.70 -1.25 0.90 -0.80 2.20 -1.45 2.30 -2 0.20z m4.90 -4.40 l0 -2 -2.70 0 c-2 0 -2.75 0.20 -3 0.80 -0.60 1.50 -0.30 1.70 2.45 1.70 2.10 0 2.75 0.15 2.75 0.75 0 0.40 0.10 0.75 0.25 0.75 0.15 0 0.25 -0.90 0.25 -2z"/>
  <path d="M8 30.25 c0 -0.40 0.35 -0.75 0.80 -0.75 0.70 0 0.70 0.15 0.20 0.75 -0.35 0.40 -0.70 0.75 -0.80 0.75 -0.10 0 -0.20 -0.35 -0.20 -0.75z"/>
  <path d="M11 28 c0 -0.75 1.65 -1.40 2.75 -1 0.95 0.35 0.95 0.35 -0.10 0.90 -1.30 0.75 -2.65 0.75 -2.65 0.10z"/>
  <path d="M28.10 25.35 c-1.15 -1.25 -1.45 -2.35 -0.60 -2.35 0.30 0 0.50 0.35 0.50 0.75 0 0.40 0.25 0.75 0.55 0.75 0.30 0 0.45 -0.35 0.30 -0.70 -0.20 -0.50 -0.05 -0.65 0.45 -0.45 0.75 0.25 1 3.15 0.30 3.15 -0.25 0 -0.90 -0.50 -1.50 -1.15z"/>
  <path d="M17.50 24.80 c0 -0.20 0.45 -0.80 1 -1.40 0.55 -0.60 1 -0.85 1 -0.55 0 0.25 -0.45 0.90 -1 1.40 -0.55 0.50 -1 0.75 -1 0.55z"/>
  <path d="M21 23.25 c-0.50 -0.60 -0.50 -0.75 0.20 -0.75 0.45 0 0.80 0.35 0.80 0.75 0 0.40 -0.10 0.75 -0.20 0.75 -0.10 0 -0.45 -0.35 -0.80 -0.75z"/>
  <path d="M14.05 15.90 c-0.05 -0.80 0.20 -1.40 0.45 -1.40 0.60 0 0.60 0.40 0 1.75 -0.40 0.90 -0.45 0.85 -0.45 -0.35z"/>
  <path d="M16.65 16.20 c-0.15 -0.40 -0.05 -1 0.30 -1.35 0.40 -0.40 0.55 -0.20 0.55 0.80 0 1.50 -0.35 1.75 -0.85 0.55z"/>
  <path d="M27 15.25 c-0.35 -0.40 -0.50 -1.15 -0.35 -1.70 0.15 -0.70 0 -0.85 -0.70 -0.70 -0.55 0.15 -0.95 0 -0.95 -0.30 0 -0.30 -0.55 -0.40 -1.50 -0.25 -1 0.20 -1.70 0.05 -2.30 -0.50 -0.45 -0.50 -1.15 -0.75 -1.50 -0.60 -0.40 0.15 -0.55 0 -0.35 -0.50 0.15 -0.35 0.50 -0.70 0.75 -0.70 0.30 0 0.40 -0.45 0.25 -1.05 -0.25 -0.95 -0.10 -1.05 1.20 -0.85 1.30 0.20 1.45 0.10 1.45 -1.20 0 -1.10 0.25 -1.40 1.05 -1.40 0.95 0 1.05 0.20 0.75 1.65 -0.20 0.85 -0.55 1.70 -0.80 1.75 -0.65 0.25 -0.65 2.10 -0.05 2.10 0.25 0 0.90 0.15 1.40 0.30 0.75 0.30 0.80 0.20 0.30 -0.35 -0.95 -0.95 -0.85 -3.15 0.10 -2.75 0.40 0.15 0.95 -0.10 1.20 -0.60 0.45 -0.75 0.50 -0.70 0.55 0.25 0 0.60 -0.20 1.25 -0.50 1.40 -0.85 0.55 -0.55 2.50 0.50 3.15 0.65 0.40 1 1.15 1 2.10 0 1.65 -0.55 1.90 -1.50 0.75z"/>
  <path d="M24.50 3.30 c0 -1.45 0.65 -2.30 1.70 -2.30 1.05 0.05 1.05 0.05 0.05 0.80 -0.70 0.55 -0.80 0.90 -0.35 1.05 0.95 0.35 0.70 1.15 -0.40 1.15 -0.55 0 -1 -0.30 -1 -0.70z"/>
 </g>
 <g fill="#5e3b22">
  <path d="M9 39.75 c0 -0.55 2 -2.45 2.25 -2.15 0.15 0.10 -0.15 0.75 -0.70 1.30 -0.90 1.05 -1.55 1.40 -1.55 0.85z"/>
  <path d="M27.65 39.15 c0.10 -0.50 0.40 -1.35 0.65 -1.90 0.35 -0.90 0.30 -0.90 -0.45 -0.30 -1.05 0.85 -1.05 0.45 -0.05 -1.55 0.85 -1.60 0.80 -5.95 -0.10 -8.10 -0.30 -0.80 -0.20 -0.90 0.45 -0.65 0.90 0.35 1.20 -0.40 0.35 -0.90 -0.30 -0.20 -0.35 -0.60 -0.15 -0.90 0.55 -0.90 0.60 -4.30 0.10 -4.65 -0.60 -0.35 -0.60 -3.20 0 -3.20 0.25 0 0.80 0.80 1.30 1.80 0.65 1.40 0.80 2.50 0.55 4.65 -0.15 1.55 -0.45 5.15 -0.60 8.05 -0.25 5.45 -0.90 8.50 -1.80 8.50 -0.30 0 -0.40 -0.40 -0.25 -0.85z"/>
  <path d="M10 36.75 c0 -0.25 -0.85 -1.40 -1.80 -2.50 -1.45 -1.60 -1.70 -1.75 -1.45 -0.80 0.25 0.80 0.20 1.05 -0.20 0.85 -1.25 -0.80 -0.40 -3.80 1.05 -3.80 0.85 0 0.90 0.10 0.40 0.75 -0.55 0.65 -0.50 0.70 0.25 0.40 0.75 -0.25 0.85 -0.15 0.60 0.55 -0.20 0.50 0.05 1.40 0.70 2.30 0.60 0.75 0.95 1.70 0.80 2.10 -0.15 0.35 -0.30 0.45 -0.35 0.15z"/>
  <path d="M21.85 36 c-0.20 -0.80 0 -1 0.95 -1 1.10 0 1.15 0.10 0.60 1 -0.35 0.55 -0.80 1 -0.95 1 -0.20 0 -0.45 -0.45 -0.60 -1z"/>
  <path d="M24.85 34.45 c-0.50 -1.90 0.20 -4.45 1.20 -4.45 1.10 0 1.25 1.50 0.40 3.95 -0.65 1.80 -1.20 2 -1.60 0.50z"/>
  <path d="M13.45 32.20 c-0.55 -1.60 -0.25 -2.75 1.05 -3.95 1.25 -1.15 1.60 -0.80 1.70 1.60 0.05 1.30 -0.15 1.85 -0.55 1.80 -0.35 -0.10 -0.65 0.30 -0.65 0.85 0 1.45 -0.95 1.25 -1.55 -0.30z"/>
  <path d="M17.20 32.15 c0.20 -0.75 0.80 -2 1.30 -2.75 0.55 -0.75 1 -2.15 1 -3.15 0 -0.95 0.20 -1.75 0.45 -1.75 0.90 0 3.55 1.75 3.55 2.40 0 0.30 0.35 0.60 0.75 0.60 0.40 0 0.75 0.25 0.75 0.50 0 0.30 -0.80 0.50 -1.80 0.50 -1.45 0 -1.75 -0.15 -1.50 -0.80 0.20 -0.45 0.10 -0.65 -0.25 -0.40 -0.30 0.20 -0.70 0.10 -0.90 -0.20 -0.20 -0.30 -0.35 0.60 -0.30 2 0 2.40 -0.10 2.60 -1.70 3.50 l-1.65 0.95 0.30 -1.40z"/>
  <path d="M10 30.60 c0 -0.50 2.05 -1.20 2.45 -0.85 0.30 0.35 0 0.55 -1.30 0.95 -0.65 0.20 -1.15 0.15 -1.15 -0.10z"/>
  <path d="M10 28.80 c0 -0.85 2.40 -2.10 3.65 -1.90 0.60 0.10 0.85 0 0.60 -0.40 -0.20 -0.30 0 -0.95 0.40 -1.40 0.90 -1 1.70 -3.45 1.80 -5.45 0.05 -1 1.40 -0.75 1.70 0.30 0.10 0.50 -0.10 1.60 -0.45 2.50 -1.30 3.15 0.60 1.35 2.55 -2.40 1.35 -2.55 1.40 -2.55 2.55 -1.80 0.65 0.40 1.20 0.55 1.20 0.25 0 -0.25 0.35 -0.50 0.80 -0.50 0.55 0 0.65 0.30 0.45 1 -0.15 0.50 0.05 2.15 0.45 3.55 0.45 1.45 0.65 2.75 0.50 2.90 -0.20 0.15 -0.45 0 -0.55 -0.30 -0.15 -0.40 -0.70 -0.55 -1.35 -0.35 -1.25 0.30 -4 -1.55 -3.65 -2.50 0.95 -2.20 0.80 -2.25 -0.55 -0.20 -0.85 1.25 -1.95 2.55 -2.45 2.85 -0.75 0.45 -0.80 0.60 -0.20 1 0.90 0.60 1.20 2.40 0.50 2.85 -0.30 0.15 -1.05 -0.30 -1.65 -1.05 -1 -1.20 -1.15 -1.30 -1.75 -0.55 -0.35 0.45 -0.95 0.80 -1.25 0.80 -0.30 0 -1.15 0.35 -1.90 0.70 -1.10 0.60 -1.40 0.60 -1.40 0.10z m13.50 -6.55 c0 -0.40 -0.20 -0.75 -0.50 -0.75 -0.25 0 -0.50 0.35 -0.50 0.75 0 0.40 0.25 0.75 0.50 0.75 0.30 0 0.50 -0.35 0.50 -0.75z"/>
  <path d="M26 27.90 c0 -0.95 0.10 -1 0.50 -0.40 0.65 0.95 0.65 1.50 0 1.50 -0.25 0 -0.50 -0.50 -0.50 -1.10z"/>
  <path d="M26.70 22.75 c-0.55 -1.70 -0.55 -1.75 0.35 -0.95 0.55 0.50 0.95 1.25 0.95 1.80 0 1.50 -0.70 1.05 -1.30 -0.85z"/>
  <path d="M11 21.55 c0 -0.30 0.25 -0.65 0.50 -0.80 0.80 -0.50 0.60 -1.25 -0.25 -0.95 -1.15 0.45 -0.90 -0.50 0.45 -1.75 0.65 -0.60 1.30 -1.70 1.45 -2.35 0.20 -1.20 0.20 -1.20 -0.80 -0.35 -0.95 0.90 -0.95 0.85 -0.60 -0.35 0.20 -0.70 0.40 -1.70 0.45 -2.25 0.05 -1.20 2.80 -6.25 3.40 -6.25 0.20 0 0.40 -0.30 0.40 -0.70 0 -0.85 2.90 -3.25 4.40 -3.65 0.65 -0.15 1.40 -0.05 1.70 0.25 0.35 0.35 0.05 0.60 -0.95 0.80 -1.90 0.45 -6.15 4.90 -6.15 6.45 0 0.25 0.75 -0.65 1.65 -1.95 0.85 -1.35 1.95 -2.45 2.45 -2.45 0.45 0 1.25 -0.40 1.75 -0.90 0.55 -0.45 1.40 -0.85 1.85 -0.85 0.55 0 0.80 -0.25 0.65 -0.65 -0.15 -0.40 -0.05 -1 0.25 -1.40 0.35 -0.50 0.40 -0.25 0.25 0.90 -0.10 0.90 0.05 1.70 0.35 1.80 0.85 0.30 0.55 4.20 -0.40 5.10 -1.15 1.20 -1 1.60 0.80 1.95 3 0.60 5.40 3 2.80 2.80 -1.95 -0.20 -2.40 0 -2.10 0.75 0.20 0.40 0.15 1.15 -0.05 1.60 -0.30 0.85 -0.40 0.85 -1.05 -0.10 -0.70 -0.95 -0.80 -0.95 -1.25 -0.10 -0.65 1.10 -1.65 1.10 -2.50 0 -0.55 -0.65 -0.55 -0.85 -0.05 -1 0.30 -0.15 0.60 -0.55 0.60 -0.95 0 -0.50 0.60 -0.70 2 -0.70 1.45 0 2 -0.20 2 -0.75 0 -0.40 -0.20 -0.75 -0.50 -0.75 -0.25 0 -0.50 0.25 -0.50 0.55 0 0.30 -0.65 0.45 -1.50 0.35 -0.95 -0.10 -1.70 0.15 -2 0.60 -0.35 0.50 -0.40 0.20 -0.15 -0.95 0.25 -1.45 0.20 -1.65 -0.50 -1.40 -0.55 0.20 -0.70 0.10 -0.50 -0.45 0.15 -0.35 0.60 -0.70 1 -0.70 0.65 0 0.65 -0.20 -0.10 -1.30 -0.80 -1.20 -0.80 -1.30 0.05 -1.90 0.80 -0.60 0.75 -0.65 -0.25 -0.95 -0.75 -0.20 -1.30 0.10 -2 1.10 -1.15 1.65 -4.60 11.55 -4 11.55 0.25 0 0.65 -0.45 0.95 -1.05 0.35 -0.55 0.70 -0.90 0.85 -0.75 0.30 0.30 -3.90 5.30 -4.45 5.30 -0.25 0 -0.40 -0.20 -0.40 -0.45z"/>
  <path d="M17.10 17.65 c0 -0.25 -0.10 -0.75 -0.30 -1.20 -0.40 -0.95 1.55 -4.60 2.25 -4.15 0.60 0.35 0.55 2.20 -0.05 2.20 -0.25 0 -0.50 0.80 -0.50 1.75 0 1.20 -0.25 1.75 -0.75 1.75 -0.40 0 -0.70 -0.15 -0.65 -0.35z"/>
  <path d="M25.35 10.65 c-0.70 -0.65 -0.30 -1.65 0.60 -1.65 0.70 0 0.90 0.25 0.70 1 -0.25 1.05 -0.75 1.25 -1.30 0.65z"/>
 </g>
 <g fill="#4c4a4a">
  <path d="M13.85 37.65 c-0.15 -1.35 -0.40 -3.50 -0.55 -4.90 -0.35 -2.95 0.40 -4.35 2.10 -3.90 1.30 0.30 1.50 2.15 0.30 2.15 -0.70 0 -0.75 0.55 -0.45 4.50 0.30 3.85 0.25 4.50 -0.40 4.50 -0.55 0 -0.85 -0.70 -1 -2.35z"/>
  <path d="M17 37.25 c0 -1.50 0.25 -2.75 0.50 -2.75 0.70 0 0.65 -1.35 -0.10 -1.60 -0.40 -0.15 -0.40 -0.45 0 -1.20 0.30 -0.50 0.70 -0.85 0.95 -0.70 0.20 0.15 0.65 -1.20 0.90 -2.95 0.30 -1.80 0.75 -3.30 1.05 -3.40 0.25 -0.10 1.20 0.55 2.10 1.40 1.15 1.15 1.85 1.45 2.65 1.20 1.95 -0.65 2.40 1.20 1.40 5.75 -0.60 2.85 -1 3.10 -1.80 1.15 l-0.55 -1.40 -0.05 1.25 c-0.05 1.25 -0.85 2.50 -1.65 2.50 -0.20 0 -0.55 -0.70 -0.80 -1.60 -0.20 -0.85 -0.65 -1.65 -1 -1.80 -0.45 -0.15 -0.60 0.80 -0.60 3.35 l0 3.55 -1.50 0 c-1.50 0 -1.50 -0.05 -1.50 -2.75z m6.80 -6.75 c0.65 0 1.20 -0.20 1.20 -0.50 0 -0.25 -0.90 -0.50 -2 -0.50 -1.50 0 -2 0.20 -2 0.80 0 0.55 0.25 0.70 0.80 0.50 0.45 -0.15 1.35 -0.30 2 -0.30z"/>
  <path d="M27.75 38.95 c0.20 -0.65 0.40 -3.70 0.40 -6.80 0.05 -3.05 0.20 -5.50 0.45 -5.35 0.20 0.15 0.40 0.05 0.40 -0.25 0 -0.25 -0.25 -0.65 -0.50 -0.80 -0.40 -0.25 -0.35 -0.55 0.05 -1.05 0.30 -0.35 0.45 -1 0.30 -1.40 -0.20 -0.50 0 -0.60 0.70 -0.45 1 0.30 1 0.40 -0.10 7.50 -0.25 1.75 -0.35 3.65 -0.20 4.25 0.40 1.60 -0.40 5.05 -1.20 5.30 -0.55 0.20 -0.60 -0.05 -0.30 -0.95z"/>
  <path d="M10 38.65 c0 -0.70 0.95 -1.90 1.25 -1.60 0.40 0.40 -0.25 1.95 -0.80 1.95 -0.25 0 -0.45 -0.15 -0.45 -0.35z"/>
  <path d="M8.55 34.65 c-0.80 -1 -1.40 -2 -1.25 -2.25 0.25 -0.35 0.95 0.35 3.15 3.25 1.35 1.70 -0.40 0.85 -1.90 -1z"/>
  <path d="M6.35 34.15 c-0.90 -0.85 -0.25 -2.85 1.50 -4.45 2.45 -2.35 2.85 -1.20 0.45 1.25 -1.25 1.25 -1.75 2.15 -1.50 2.70 0.30 0.90 0.10 1.10 -0.45 0.50z"/>
  <path d="M10.50 28.30 c0 -0.75 1.05 -1.30 2.55 -1.30 1.35 0 0.80 0.80 -1.05 1.40 -1.20 0.45 -1.50 0.40 -1.50 -0.10z"/>
  <path d="M16.70 28.30 c-0.15 -0.40 -0.20 -1.15 -0.10 -1.60 0.15 -0.85 0.20 -0.85 1.05 0 0.50 0.50 0.80 1.15 0.70 1.45 -0.30 0.90 -1.35 1 -1.65 0.15z"/>
  <path d="M21.70 23.80 l-1.45 -1.25 1.90 -0.05 c1 0 1.85 0.25 1.85 0.50 0 0.30 0.35 0.50 0.75 0.50 0.40 0 0.75 0.25 0.75 0.50 0 0.30 -0.20 0.50 -0.45 0.50 -0.25 0 -0.80 0.15 -1.20 0.30 -0.40 0.15 -1.35 -0.30 -2.15 -1z"/>
  <path d="M11.85 20.15 c0.25 -0.60 0.10 -0.75 -0.50 -0.50 -1.10 0.40 -1.05 0.05 0.15 -1.15 l1 -1 0 1.75 c0 0.95 -0.20 1.75 -0.50 1.75 -0.25 0 -0.30 -0.40 -0.15 -0.85z"/>
  <path d="M16.50 20.40 c0 -1.50 0.65 -2.90 1.30 -2.90 0.45 0 0.70 0.60 0.70 1.75 0 1.40 -0.20 1.75 -1 1.75 -0.55 0 -1 -0.30 -1 -0.60z"/>
  <path d="M20.85 18.95 c0.15 -0.55 0.70 -0.95 1.20 -0.95 0.60 0 0.95 0.35 0.95 0.95 0 0.65 -0.35 0.95 -1.20 0.95 -0.90 0 -1.10 -0.25 -0.95 -0.95z"/>
  <path d="M13.25 15.65 l0.30 -1.35 -1.10 0.95 -1.10 1 0.40 -1.25 c0.25 -0.70 0.45 -1.65 0.45 -2.10 0 -0.55 0.40 -0.90 0.95 -0.90 0.70 0 0.85 0.25 0.60 1 -0.25 0.75 -0.15 0.90 0.45 0.70 0.95 -0.35 1.05 0.85 0.30 2.35 -0.80 1.45 -1.65 1.20 -1.25 -0.40z"/>
  <path d="M20.85 16.45 c-0.70 -0.40 -0.85 -0.95 -0.65 -2.55 0.15 -1.15 0.55 -2.25 0.90 -2.50 0.50 -0.30 0.50 -0.40 -0.05 -0.40 -0.35 0 -0.55 -0.30 -0.40 -0.70 0.15 -0.35 -0.05 -1.15 -0.45 -1.75 -0.70 -1 -0.70 -1.05 0.75 -1.05 1.05 0 1.55 -0.25 1.55 -0.75 0 -0.45 0.50 -0.75 1.30 -0.75 1 0 1.25 0.20 1 0.80 -0.15 0.45 -0.30 1.10 -0.30 1.50 0 0.40 -0.30 0.70 -0.65 0.70 -0.35 0 -0.65 0.50 -0.70 1.10 -0.05 0.55 -0.35 1.20 -0.70 1.40 -0.35 0.25 -0.50 1.35 -0.40 2.95 0.20 2.75 0.15 2.80 -1.20 2z"/>
  <path d="M24.30 16.65 c-0.55 -0.55 -0.35 -2.90 0.35 -3.60 0.50 -0.50 0.40 -0.75 -0.35 -1.35 -1.05 -0.75 -0.75 -0.85 1.10 -0.40 0.60 0.20 1.10 0.60 1.10 0.95 0 0.35 0.40 0.60 0.85 0.55 0.65 -0.05 0.90 0.40 1 1.85 0.15 1.40 0 1.85 -0.60 1.85 -0.45 0 -0.70 -0.20 -0.50 -0.45 0.15 -0.25 0.05 -0.60 -0.25 -0.80 -0.25 -0.15 -0.50 -0.10 -0.50 0.20 0 0.65 -1.75 1.60 -2.20 1.20z"/>
  <path d="M18.50 14.15 c0 -0.90 0.25 -1.65 0.50 -1.65 0.65 0 0.65 1.50 0 2.50 -0.35 0.55 -0.50 0.35 -0.50 -0.85z"/>
  <path d="M21.95 4.45 c-0.50 -1 -0.45 -1.05 0.75 -0.85 1.05 0.20 1.20 0.10 0.85 -0.50 -0.25 -0.45 -0.25 -1.25 0.10 -1.95 0.50 -1.15 1.35 -1.55 1.35 -0.65 0 0.30 0.35 0.50 0.75 0.50 0.90 0 1 0.85 0.15 1.15 -0.50 0.15 -0.50 0.35 0.05 1 0.60 0.75 0.55 0.85 -0.40 0.85 -0.60 0 -1.05 0.30 -1.05 0.75 0 1.15 -1.90 0.90 -2.55 -0.30z"/>
 </g>
 <g fill="#72543b">
  <path d="M10.20 38.20 c0.25 -0.75 -0.20 -1.65 -1.45 -3.25 l-1.75 -2.20 1.65 -1.35 c0.85 -0.75 2.15 -1.35 2.85 -1.35 1.10 0.05 1.10 0.10 -0.35 0.55 -0.90 0.30 -1.65 0.85 -1.65 1.20 0 0.35 -0.25 0.70 -0.60 0.80 -0.40 0.15 0 1.05 1.10 2.55 1.60 2.30 1.65 2.40 0.80 3.25 -0.85 0.80 -0.90 0.80 -0.60 -0.20z"/>
  <path d="M14.05 36.65 c-0.55 -2 -0.35 -2.65 0.50 -1.80 0.70 0.70 1.10 3.65 0.45 3.65 -0.25 0 -0.70 -0.85 -0.95 -1.85z"/>
  <path d="M28.40 36.20 c-0.15 -1.05 0 -1.55 0.45 -1.55 0.70 0 0.75 0.60 0.20 2.10 -0.35 0.85 -0.45 0.80 -0.65 -0.55z"/>
  <path d="M22.10 35.45 c-0.55 -0.80 -0.45 -0.95 0.40 -0.95 0.55 0 1 0.30 1 0.70 0 1.20 -0.75 1.30 -1.40 0.25z"/>
  <path d="M25 35 c0 -0.40 -0.15 -1.60 -0.30 -2.60 -0.30 -1.70 -0.20 -1.90 0.75 -1.90 0.85 0 1.05 0.30 1.05 1.65 0 1.65 -1.45 4.40 -1.50 2.85z"/>
  <path d="M6 31.95 c0 -0.85 3.15 -3.45 4.20 -3.45 0.70 0 0.40 0.45 -1.25 2 -2.30 2.05 -2.95 2.35 -2.95 1.45z"/>
  <path d="M13.65 31.70 c-0.70 -0.30 0.05 -2.85 1.15 -3.70 0.55 -0.50 0.80 -0.35 1.25 0.70 0.55 1.15 0.50 1.45 -0.45 2.30 -0.60 0.55 -1.10 1 -1.20 0.95 -0.10 0 -0.40 -0.15 -0.75 -0.25z"/>
  <path d="M28.50 31.30 c0 -0.40 0.25 -0.90 0.50 -1.05 0.30 -0.15 0.50 0.15 0.50 0.70 0 0.60 -0.20 1.05 -0.50 1.05 -0.25 0 -0.50 -0.30 -0.50 -0.70z"/>
  <path d="M28 28.35 c0 -0.70 0.30 -1.35 0.65 -1.50 0.45 -0.15 0.45 -0.35 -0.10 -1 -0.60 -0.75 -0.55 -0.85 0.40 -0.85 1 0 1.10 0.25 0.95 2.10 -0.10 1.55 -0.40 2.20 -1 2.30 -0.65 0.15 -0.90 -0.15 -0.90 -1.05z"/>
  <path d="M16.60 27.95 c-0.30 -0.75 -0.80 -1.45 -1.10 -1.55 -0.95 -0.30 1.10 -7.10 2.15 -7.30 1.10 -0.20 1.05 0.50 -0.15 3.90 -0.75 2.20 -0.85 2.85 -0.30 3.25 0.35 0.30 0.50 0.95 0.25 1.75 l-0.30 1.25 -0.55 -1.30z"/>
  <path d="M19.50 27.40 c0 -2.35 0.65 -3.20 1.65 -2.20 0.40 0.45 1 0.80 1.30 0.80 0.30 0 0.55 0.35 0.55 0.75 0 0.45 0.35 0.90 0.75 1.05 1.55 0.60 0.65 1.20 -1.75 1.20 -2.50 0 -2.50 0 -2.50 -1.60z"/>
  <path d="M21.90 23.95 c-1.35 -1 -1.35 -1.10 -0.65 -2.75 0.95 -2.30 0.60 -2.15 -0.95 0.50 -0.70 1.20 -1.65 2.35 -2.15 2.50 -0.75 0.30 -0.80 0.25 -0.05 -0.55 0.40 -0.50 1.40 -1.95 2.15 -3.25 1.40 -2.50 2.40 -3 3 -1.50 0.30 0.80 0.35 0.80 1.05 -0.10 0.35 -0.55 0.85 -0.80 1.05 -0.55 0.25 0.20 0.15 0.45 -0.15 0.60 -0.35 0.10 -0.35 0.90 0 2.65 0.25 1.35 0.40 2.55 0.25 2.70 -0.80 0.75 -2.35 0.65 -3.55 -0.25z"/>
  <path d="M28.90 23.65 c-0.30 -1.40 0.10 -2.65 0.90 -2.65 0.45 0 0.70 0.55 0.70 1.75 0 1.85 -1.20 2.50 -1.60 0.90z"/>
  <path d="M11 21.55 c0 -0.25 0.25 -0.65 0.50 -0.80 0.80 -0.50 0.60 -1.40 -0.25 -1.05 -0.55 0.20 -0.40 -0.25 0.40 -1.35 0.70 -0.85 1.40 -2.15 1.60 -2.85 l0.40 -1.25 -1.10 1 -1.10 0.95 0.55 -1.45 c0.30 -0.80 0.40 -1.75 0.25 -2.15 -0.15 -0.35 0.20 -1.30 0.75 -2.10 0.55 -0.75 1 -1.55 1 -1.75 0 -0.65 3.05 -4.75 3.55 -4.75 0.25 0 0.95 -0.45 1.55 -1 1.05 -0.95 2.90 -1.40 2.90 -0.60 0 0.20 -0.75 0.70 -1.65 1.10 -0.85 0.40 -1.55 1.05 -1.45 1.40 0.05 0.35 -0.30 1.25 -0.85 2 -0.85 1.20 -4.60 11.10 -4.55 12 0.05 0.20 0.60 -0.30 1.30 -1.15 0.70 -0.80 1.20 -1.25 1.10 -0.95 -0.20 0.65 -3.50 4.40 -4.35 4.90 -0.30 0.20 -0.55 0.15 -0.55 -0.15z m6.90 -15.65 c0.40 -0.50 0.55 -0.90 0.30 -0.90 -0.55 0 -3.70 5 -3.70 5.75 0 0.30 0.60 -0.50 1.35 -1.75 0.70 -1.25 1.65 -2.65 2.05 -3.10z"/>
  <path d="M27.50 17.45 c-0.35 -0.55 -0.45 -1.15 -0.30 -1.30 0.15 -0.20 0.05 -0.60 -0.25 -0.95 -0.65 -0.80 -0.10 -2.85 0.70 -2.55 0.35 0.10 0.60 0.75 0.65 1.40 0 0.65 0.20 1.95 0.40 2.85 0.45 1.85 -0.35 2.20 -1.20 0.55z"/>
  <path d="M20.85 16.30 c-0.70 -0.70 -0.75 -2.50 -0.15 -5.90 0.15 -0.80 -0.05 -1.55 -0.45 -1.90 -0.95 -0.80 -0.95 -1.50 0 -1.50 0.85 0 0.95 -0.60 0.25 -1.30 -0.85 -0.85 1.20 -2.40 2.65 -2 1.35 0.30 2.25 2.60 1.40 3.45 -0.25 0.25 -0.35 0.80 -0.20 1.15 0.15 0.40 -0.05 0.70 -0.55 0.70 -0.55 0 -0.80 0.45 -0.80 1.30 0 0.70 0.20 1.15 0.50 0.95 0.75 -0.45 3 0.30 3 1 0 0.35 -0.35 0.90 -0.75 1.25 -0.70 0.55 -0.65 0.70 0.05 1.25 0.50 0.30 0.70 0.85 0.50 1.15 -0.45 0.75 -2.30 0.55 -2.30 -0.25 0 -0.35 -0.35 -0.65 -0.75 -0.65 -0.40 0 -0.70 0.15 -0.70 0.40 0.25 1.65 -0.50 2.05 -1.70 0.90z"/>
  <path d="M18.10 14.65 c-0.55 -0.55 -0.55 -0.85 -0.10 -1.40 0.85 -1 1.50 -0.95 1.50 0.15 0 1.50 -0.65 2.10 -1.40 1.25z"/>
  <path d="M25.35 10.70 c-0.20 -0.20 -0.35 -0.85 -0.35 -1.45 0 -0.70 0.30 -1.05 1 -1.05 0.55 0 1 0.25 1 0.55 0 0.90 -1.25 2.35 -1.65 1.95z"/>
  <path d="M27.50 7.65 c0 -0.25 0.45 -0.90 1 -1.40 0.55 -0.50 1 -0.70 1 -0.40 0 0.25 -0.45 0.90 -1 1.40 -0.55 0.50 -1 0.70 -1 0.40z"/>
  <path d="M24 3.25 c-0.40 -0.45 -0.40 -0.75 -0.10 -0.75 0.90 0 2.10 0.60 2.10 1.05 0 0.70 -1.30 0.50 -2 -0.30z"/>
 </g>
 <g fill="#955418">
  <path d="M13.50 31.10 c0 -1.60 1.35 -3.75 2.05 -3.30 0.25 0.15 0.35 0.50 0.20 0.75 -0.20 0.25 -0.05 0.45 0.20 0.45 0.85 0 0.65 1.50 -0.20 1.80 -0.40 0.20 -0.75 0.60 -0.75 1 0 0.40 -0.35 0.70 -0.75 0.70 -0.50 0 -0.75 -0.50 -0.75 -1.40z"/>
  <path d="M16.60 27.90 c-0.30 -0.75 -1.05 -1.40 -1.70 -1.55 -0.85 -0.15 -0.75 -0.25 0.50 -0.30 1.70 -0.05 2.35 0.70 1.95 2.30 -0.15 0.75 -0.30 0.65 -0.75 -0.45z"/>
  <path d="M20.85 28.15 c-0.55 -0.55 -0.40 -3.15 0.20 -3.15 0.35 0 0.45 0.50 0.35 1.25 -0.15 0.70 -0.10 1.25 0.05 1.30 0.15 0 0.80 0.10 1.40 0.15 1.90 0.20 1.95 0.80 0.05 0.80 -0.95 0 -1.90 -0.15 -2.05 -0.35z"/>
  <path d="M28 27.75 c0 -0.40 0.35 -0.75 0.85 -0.75 0.70 0 0.70 -0.10 -0.10 -1 -0.50 -0.55 -0.65 -1 -0.35 -1 0.35 0 0.60 -0.55 0.60 -1.25 0 -0.80 0.30 -1.25 0.80 -1.25 0.65 0 0.70 0.35 0.40 2.15 -0.20 1.15 -0.40 2.50 -0.40 3 0 1.05 -1.80 1.15 -1.80 0.10z"/>
  <path d="M22.85 24.45 c-1.40 -0.80 -1 -1.45 0.90 -1.45 1.90 0 2.30 0.65 0.85 1.45 -0.55 0.30 -1.20 0.30 -1.75 0z"/>
  <path d="M17.10 18.25 c0.05 -1.30 0.35 -1.75 1 -1.75 0.95 0 1.10 0.55 0.60 2.40 -0.50 1.85 -1.75 1.35 -1.60 -0.65z"/>
  <path d="M27.15 15.25 c-0.45 -1.35 -0.40 -1.75 0.10 -1.75 0.60 0 1.25 1.45 1.25 2.90 0 1.25 -0.85 0.55 -1.35 -1.15z"/>
  <path d="M25.50 15.50 c0 -0.95 0.15 -1.05 0.60 -0.60 0.45 0.45 0.45 0.75 0 1.20 -0.45 0.45 -0.60 0.35 -0.60 -0.60z"/>
  <path d="M17.50 14.80 c0 -1.35 1.20 -2.65 1.70 -1.85 0.50 0.80 -0.25 3.05 -1 3.05 -0.40 0 -0.70 -0.50 -0.70 -1.20z"/>
  <path d="M20.55 13.65 c0.20 -1.05 0.40 -1.95 0.45 -2 0 -0.10 0 -0.60 0 -1.15 0 -0.65 0.35 -1 1 -1 0.70 0 1 0.30 0.90 0.90 -0.10 0.60 0.15 0.80 1 0.75 1 -0.15 1.05 -0.05 0.50 0.85 -0.40 0.60 -1.20 1 -2 1 -1.15 0 -1.40 0.20 -1.40 1.25 0 0.70 -0.20 1.25 -0.45 1.25 -0.25 0 -0.25 -0.80 0 -1.85z"/>
  <path d="M25.10 12.40 c0.30 -0.90 1.40 -1.05 1.40 -0.20 0 0.45 -0.35 0.80 -0.80 0.80 -0.45 0 -0.70 -0.25 -0.60 -0.60z"/>
  <path d="M25.30 10.20 c-0.45 -1.20 -0.35 -1.70 0.35 -1.70 0.35 0 1 -0.45 1.50 -1 1.65 -1.95 1.90 -0.95 0.30 1.25 -0.90 1.25 -1.65 2.25 -1.75 2.25 -0.05 0 -0.25 -0.35 -0.40 -0.80z"/>
 </g>
 <g fill="#5e6062">
  <path d="M14.10 37.40 c-1.05 -4.70 -1.10 -5.90 -0.40 -7.65 0.85 -1.95 1.05 -2.05 2.10 -1.05 0.95 0.95 0.95 2.15 0 1.35 -0.55 -0.45 -0.70 -0.10 -0.90 2 -0.15 1.40 -0.05 3.45 0.20 4.55 0.20 1.05 0.25 2.30 0 2.70 -0.25 0.50 -0.60 -0.10 -1 -1.90z"/>
  <path d="M17.15 35.95 c0.25 -2.90 0.55 -4.25 1.15 -4.65 0.45 -0.35 0.90 -1.60 1.05 -3.10 0.30 -3.35 0.50 -3.75 1.45 -3.35 0.50 0.20 0.70 0.70 0.55 1.45 -0.10 0.65 -0.05 1.20 0.10 1.25 0.15 0 0.95 0.10 1.75 0.20 0.80 0.10 1.90 -0.05 2.45 -0.35 1 -0.50 1 -0.40 0.70 3.40 -0.20 2.15 -0.60 4.15 -0.85 4.40 -0.35 0.35 -0.50 0.15 -0.50 -0.55 0 -0.60 -0.15 -1.40 -0.30 -1.85 -0.55 -1.45 -1.20 -0.80 -1.20 1.20 0 1.10 -0.20 2 -0.45 2 -0.60 0 -1.40 -1.10 -1.65 -2.25 -0.10 -0.55 -0.50 -1 -0.90 -1 -0.55 0 -0.75 0.70 -0.85 3 -0.10 4.20 -0.20 4.70 -0.65 3.25 -0.40 -1.20 -0.40 -1.20 -0.45 -0.10 -0.05 0.65 -0.35 1.10 -0.85 1.10 -0.75 0 -0.80 -0.50 -0.55 -4.05z"/>
  <path d="M28.10 38.20 c0.25 -1 0.35 -2.30 0.20 -2.85 -0.15 -0.70 -0.10 -0.85 0.30 -0.45 0.60 0.60 0.10 5.10 -0.60 5.10 -0.25 0 -0.20 -0.80 0.10 -1.80z"/>
  <path d="M10.20 37.55 c0.05 -1.70 0.50 -2 1 -0.70 0.20 0.45 0 1.15 -0.35 1.55 -0.60 0.55 -0.70 0.45 -0.65 -0.85z"/>
  <path d="M7.75 33.45 c-0.50 -0.75 2.40 -3.45 3.65 -3.40 0.55 0 0.35 0.20 -0.45 0.50 -0.75 0.30 -1.70 1.20 -2.10 2.05 -0.50 1.05 -0.85 1.30 -1.10 0.85z"/>
  <path d="M6 31.95 c0 -0.70 2.90 -3.35 4.65 -4.25 0.80 -0.45 1.90 -0.70 2.50 -0.60 0.90 0.10 0.65 0.40 -1.25 1.30 -1.35 0.65 -3 1.85 -3.75 2.65 -1.45 1.50 -2.15 1.80 -2.15 0.90z"/>
  <path d="M28.65 31.15 c0.15 -0.65 0.05 -1.30 -0.20 -1.45 -0.25 -0.15 -0.45 -0.70 -0.45 -1.25 0 -0.70 0.25 -0.95 0.90 -0.85 0.65 0.15 0.80 0.60 0.70 1.90 -0.10 0.95 -0.40 2 -0.70 2.25 -0.35 0.35 -0.45 0.15 -0.25 -0.60z"/>
  <path d="M16.75 28.45 c-0.20 -0.30 -0.25 -0.65 -0.10 -0.80 0.35 -0.35 1.35 0.30 1.35 0.90 0 0.60 -0.85 0.60 -1.25 -0.10z"/>
  <path d="M28.55 25.80 c-0.45 -0.55 -0.40 -0.75 0.20 -1 0.45 -0.15 0.65 -0.50 0.50 -0.80 -0.15 -0.25 -0.05 -0.50 0.20 -0.50 0.30 0 0.55 0.70 0.55 1.50 0 1.60 -0.55 1.90 -1.45 0.80z"/>
  <path d="M11.75 20.55 c0.30 -1.05 0.25 -1.15 -0.55 -0.85 -0.75 0.30 -0.70 0.05 0.30 -1.05 0.70 -0.75 1.40 -1.50 1.55 -1.65 0.15 -0.15 0.45 -0.70 0.65 -1.25 0.25 -0.60 0.50 -0.75 0.65 -0.40 0.10 0.35 0 1.05 -0.30 1.60 -0.30 0.55 -0.55 1.40 -0.55 1.95 0 0.50 -0.50 1.35 -1.05 1.90 -1.10 0.95 -1.10 0.95 -0.70 -0.25z"/>
  <path d="M27.05 14.60 c-0.50 -0.95 0.10 -2.60 0.75 -1.95 0.50 0.50 0.60 2.85 0.10 2.85 -0.20 0 -0.60 -0.40 -0.85 -0.90z"/>
  <path d="M24.85 13.70 c-0.40 -0.45 0.55 -2.20 1.15 -2.20 0.30 0 0.50 0.30 0.50 0.70 0 0.80 -1.20 1.90 -1.65 1.50z"/>
  <path d="M24 3 c-0.30 -0.60 -0.40 -1.45 -0.25 -1.95 0.25 -0.80 0.45 -0.85 1.50 -0.35 1.45 0.65 1.55 1.05 0.40 1.50 -0.70 0.30 -0.70 0.40 0.15 1.05 0.90 0.70 0.90 0.70 -0.15 0.75 -0.60 0 -1.35 -0.45 -1.65 -1z"/>
 </g>
 <g fill="#8a6b51">
  <path d="M21.85 35.15 c-0.75 -0.75 -0.35 -2.15 0.65 -2.15 0.75 0 1 0.35 1 1.25 0 1.20 -0.90 1.70 -1.65 0.90z"/>
  <path d="M8 33.75 c-0.50 -0.60 -0.50 -0.90 0 -1.50 0.35 -0.40 0.85 -0.75 1.10 -0.75 0.30 0 0.30 0.30 -0.05 0.70 -0.30 0.35 -0.45 1.05 -0.25 1.50 0.40 1 0 1.05 -0.80 0.05z"/>
  <path d="M6 32.15 c0.05 -1.40 5.10 -5.15 6.90 -5.15 1.05 0 1.20 0.70 0.20 0.75 -0.90 0.10 -3.65 1.85 -4.90 3.25 -1.40 1.45 -2.20 1.90 -2.20 1.15z"/>
  <path d="M13 31.70 c0 -0.70 1.65 -3.70 2.05 -3.70 0.60 0 0.55 0.35 -0.15 2.35 -0.35 0.90 -0.90 1.65 -1.25 1.65 -0.35 0 -0.65 -0.15 -0.65 -0.30z"/>
  <path d="M28.60 29.90 c-0.80 -2.20 -0.75 -2.90 0.10 -2.90 0.95 0 1.25 1.05 0.85 2.95 l-0.30 1.65 -0.65 -1.70z"/>
  <path d="M15.15 26.65 c-1.30 -0.25 -1.50 -1.05 -0.40 -1.45 0.40 -0.20 0.75 -0.60 0.75 -1 0 -0.40 0.25 -0.70 0.50 -0.70 0.30 0 0.50 0.80 0.50 1.75 0 0.95 -0.05 1.70 -0.10 1.70 -0.10 -0.05 -0.65 -0.20 -1.25 -0.30z"/>
  <path d="M21.80 23.75 c-1 -1.05 -1.05 -2.45 0 -3.45 0.40 -0.45 0.55 -0.80 0.25 -0.80 -0.30 0 -1.10 1 -1.85 2.25 -0.70 1.25 -1.50 2.25 -1.70 2.25 -0.25 0 0.40 -1.35 1.35 -3 1 -1.65 2.10 -3 2.50 -3 0.70 0 0.80 0.35 0.85 2.75 0.05 1.15 0.30 1.55 1.20 1.65 1.60 0.25 1.25 1.80 -0.45 2 -0.75 0.10 -1.70 -0.20 -2.15 -0.65z"/>
  <path d="M28.75 20.45 c-0.20 -0.85 -0.20 -1.65 0 -1.85 0.45 -0.45 1.75 1.40 1.75 2.50 0 1.50 -1.40 1 -1.75 -0.65z"/>
  <path d="M11.50 21.10 c0 -0.30 0.25 -0.70 0.50 -0.85 0.30 -0.15 0.50 -0.55 0.50 -0.80 0 -0.30 -0.20 -0.35 -0.50 -0.20 -0.25 0.15 -0.50 0.15 -0.50 -0.10 0.05 -0.70 1.35 -2.15 1.95 -2.15 0.40 0 0.45 0.30 0.15 0.90 -0.25 0.45 -0.40 1.10 -0.25 1.40 0.10 0.30 -0.30 0.95 -0.85 1.45 -0.55 0.50 -1 0.65 -1 0.35z"/>
  <path d="M17.10 18.30 c0.15 -0.70 0.05 -1.50 -0.15 -1.85 -0.40 -0.70 0.30 -2.45 1 -2.45 0.60 0 1.10 2.90 0.75 4.30 -0.40 1.65 -1.90 1.60 -1.60 0z"/>
  <path d="M20.65 15.80 c-0.30 -0.40 -0.50 -0.80 -0.40 -0.90 0.10 -0.10 0.30 -1.40 0.40 -2.85 0.20 -1.95 0.05 -3.05 -0.50 -3.90 -0.70 -1.05 -0.70 -1.15 0.05 -1.15 0.95 0 1.05 -0.80 0.20 -1.20 -0.75 -0.30 1.30 -2.30 2.35 -2.30 0.85 0 2.35 2.90 1.70 3.30 -0.25 0.15 -0.45 0.70 -0.45 1.30 0 0.60 -0.25 0.90 -0.60 0.75 -0.45 -0.15 -0.70 0.35 -0.80 1.50 -0.10 1.55 0 1.65 0.90 1.15 1.15 -0.60 1.25 -0.35 0.50 1.05 -0.35 0.60 -0.35 0.95 -0.05 0.95 0.30 0 0.75 -0.45 1.10 -1.05 0.40 -0.80 0.70 -0.90 1.10 -0.45 0.45 0.45 0.35 0.80 -0.50 1.50 -1.10 0.90 -1.10 0.90 -0.10 1.15 1.30 0.35 1 1.55 -0.45 1.75 -0.75 0.10 -1.10 -0.10 -1.10 -0.60 0 -0.45 -0.35 -0.80 -0.75 -0.80 -0.40 0 -0.75 0.35 -0.75 0.75 0 0.95 -1.05 0.95 -1.85 0.05z"/>
  <path d="M14.10 13.15 c1.20 -3.35 4.15 -8.15 4.90 -8.15 0.30 0 0 0.75 -0.65 1.65 -0.70 0.85 -1.85 3.35 -2.60 5.50 -0.80 2.25 -1.65 3.85 -2.05 3.85 -0.55 0 -0.45 -0.65 0.40 -2.85z"/>
  <path d="M12.30 13.50 c0.65 -4 5.05 -10.55 7.10 -10.50 0.65 0.05 0.45 0.40 -0.70 1.40 -1.85 1.65 -3.25 3.95 -4.70 7.60 -1.45 3.75 -2.15 4.35 -1.70 1.50z"/>
  <path d="M27 13.70 c0 -0.70 0.25 -1.20 0.55 -1.10 0.30 0.10 0.50 0.35 0.50 0.55 -0.05 0.20 -0.05 0.70 -0.05 1.10 0 0.40 -0.20 0.75 -0.50 0.75 -0.25 0 -0.50 -0.60 -0.50 -1.30z"/>
 </g>
 <g fill="#747576">
  <path d="M17.30 39.20 c-0.15 -0.45 -0.30 -2.20 -0.30 -3.95 0 -2.70 0.15 -3.25 1.10 -3.85 0.90 -0.60 1.20 -1.40 1.40 -3.70 0.15 -1.60 0.45 -2.95 0.75 -2.95 0.40 0 0.65 0.80 1.55 4.70 0.15 0.65 0.55 1.80 0.95 2.60 0.95 1.85 0.95 3.45 0 3.45 -0.45 0 -0.90 -0.60 -1.05 -1.45 -0.30 -1.50 -1.35 -2.30 -2.25 -1.75 -0.25 0.15 -0.30 1.15 -0.15 2.25 0.30 1.80 0.25 1.95 -0.60 1.60 -0.90 -0.30 -0.90 -0.30 -0.05 0.70 0.55 0.65 0.85 1.55 0.70 2.25 -0.20 1.15 -0.20 1.15 -0.30 0.05 0 -0.65 -0.25 -1.15 -0.50 -1.15 -0.25 0 -0.35 0.45 -0.20 1 0.30 1.20 -0.60 1.35 -1.05 0.20z"/>
  <path d="M10.25 38.10 c0.20 -0.65 0.05 -1.45 -0.25 -1.85 -0.40 -0.50 -0.45 -0.75 -0.10 -0.75 1.10 0 1.60 1.80 0.80 2.80 -0.70 0.90 -0.75 0.90 -0.45 -0.20z"/>
  <path d="M14.10 36.55 c-0.70 -2.35 -0.75 -3.05 -0.15 -3.05 0.50 0 1.35 4.35 0.95 4.80 -0.15 0.10 -0.50 -0.65 -0.80 -1.75z"/>
  <path d="M25.35 34.15 c-0.55 -0.50 -0.40 -2.65 0.15 -2.65 0.30 0 0.50 0.70 0.50 1.50 0 1.55 -0.10 1.75 -0.65 1.15z"/>
  <path d="M6 32.05 c0 -0.60 1.45 -1.75 1.80 -1.40 0.20 0.15 -0.05 0.65 -0.45 1.10 -0.85 0.85 -1.35 0.95 -1.35 0.30z"/>
  <path d="M13.50 30.75 c0 -0.60 1.20 -2.75 1.60 -2.75 0.60 0 0.45 1.15 -0.30 2.15 -0.60 0.80 -1.30 1.15 -1.30 0.60z"/>
  <path d="M28.60 29.75 c-0.75 -1.65 -0.75 -1.75 0.15 -1.75 0.50 0 0.75 0.50 0.75 1.50 0 1.85 -0.15 1.85 -0.90 0.25z"/>
  <path d="M9 29 c0 -0.40 2.55 -2 3.25 -2 0.70 0 0.10 0.90 -1.20 1.65 -1.65 1 -2.05 1.05 -2.05 0.35z"/>
  <path d="M16.65 28.15 c-0.15 -0.50 -0.40 -1.05 -0.50 -1.25 -0.10 -0.25 0.25 -0.40 0.80 -0.40 0.80 0 1.05 0.30 1.05 1.25 0 1.45 -0.90 1.70 -1.35 0.40z"/>
  <path d="M11.90 20.40 c0.90 -0.90 0.75 -1.40 -0.25 -1.05 -0.80 0.30 -0.80 0.20 0.05 -0.75 1.25 -1.45 1.85 -1.40 1.60 0.15 -0.30 1.60 -0.70 2.25 -1.45 2.25 -0.40 0 -0.40 -0.15 0.05 -0.60z"/>
  <path d="M24 15.80 c0 -0.80 1.85 -1.40 2.30 -0.75 0.40 0.70 -0.25 1.45 -1.35 1.45 -0.50 0 -0.95 -0.30 -0.95 -0.70z"/>
  <path d="M11.85 15.05 c0.15 -0.60 0.45 -1.05 0.70 -1.05 0.70 0 0.55 0.80 -0.25 1.45 -0.60 0.50 -0.65 0.40 -0.45 -0.40z"/>
  <path d="M20.40 15.75 c-0.10 -0.15 -0.15 -0.90 0 -1.75 0.15 -1.05 0.50 -1.50 1.15 -1.50 0.55 0 0.95 0.35 0.95 0.75 0 0.45 -0.30 0.60 -0.75 0.45 -0.40 -0.20 -0.75 -0.05 -0.75 0.25 0 0.30 0.35 0.55 0.75 0.55 0.40 0 0.75 0.35 0.75 0.75 0 0.70 -1.50 1.05 -2.10 0.50z"/>
  <path d="M24 14.05 c0 -0.50 1.50 -1.20 1.85 -0.85 0.15 0.10 -0.25 0.45 -0.80 0.80 -0.60 0.30 -1.05 0.35 -1.05 0.05z"/>
  <path d="M25.35 10.25 c-0.55 -1.30 -0.40 -1.60 0.65 -1.90 1.15 -0.30 1.20 -0.05 0.30 1.60 -0.55 1 -0.70 1.05 -0.95 0.30z"/>
  <path d="M21.60 4.65 c0.20 -1.10 2.15 -1.25 2.15 -0.15 0 0.40 -0.55 0.80 -1.15 0.90 -0.95 0.15 -1.15 0 -1 -0.75z"/>
  <path d="M24 3.25 c-0.60 -0.75 -0.50 -2.60 0.15 -2.35 0.20 0.05 0.85 0.10 1.45 0.10 1 0 1 0.05 0.25 0.90 -0.65 0.70 -0.70 1.05 -0.25 1.50 0.45 0.45 0.40 0.60 -0.20 0.60 -0.40 0 -1.05 -0.35 -1.40 -0.75z"/>
 </g>
 <g fill="#a77c45">
  <path d="M16.60 27.75 c-0.30 -0.70 -0.90 -1.25 -1.35 -1.25 -1.05 0 -0.95 -0.80 0.30 -1.70 0.75 -0.50 1.05 -1.25 1.05 -2.65 -0.05 -2.55 0.30 -3.65 1.20 -3.65 0.95 0 0.90 0.75 -0.35 4.25 -0.95 2.65 -0.95 3 -0.25 3.55 0.85 0.60 1.10 2.70 0.40 2.70 -0.25 0 -0.70 -0.55 -1 -1.25z"/>
  <path d="M28 27.50 c0 -0.25 0.35 -0.50 0.75 -0.50 0.40 0 0.75 0.25 0.75 0.50 0 0.30 -0.35 0.50 -0.75 0.50 -0.40 0 -0.75 -0.20 -0.75 -0.50z"/>
  <path d="M28.70 25.95 c-0.15 -0.30 -0.10 -0.75 0.15 -1 0.50 -0.50 0.10 -3.90 -0.60 -5.55 -0.25 -0.65 -0.15 -0.90 0.45 -0.90 1.25 0 1.90 2.40 1.55 5.40 -0.30 2.50 -0.80 3.20 -1.55 2.05z"/>
  <path d="M23.50 23.55 c0 -1.15 -1.50 -1.80 -2.15 -0.95 -0.25 0.40 -0.30 0.10 -0.10 -0.85 0.20 -0.80 0.55 -1.65 0.85 -1.80 0.25 -0.15 0.10 -0.45 -0.40 -0.65 -0.65 -0.25 -0.70 -0.50 -0.30 -0.90 0.65 -0.65 2.10 0.30 2.10 1.40 0 0.40 0.30 0.70 0.70 0.70 1 0 1.60 3 0.75 3.55 -1.05 0.65 -1.45 0.55 -1.45 -0.50z"/>
  <path d="M19.40 21.80 c0.75 -1.20 1.45 -2.10 1.55 -2.05 0.25 0.30 -2.10 4.25 -2.50 4.25 -0.25 0 0.20 -1 0.95 -2.20z"/>
  <path d="M21.75 13.60 c-1.10 -0.90 -1.15 -1.60 -0.55 -6.50 0.40 -3.30 0.70 -3.80 2 -3.30 1.10 0.40 1 1.25 -0.20 1.55 -0.55 0.15 -1 0.45 -1 0.70 0 0.60 0.70 0.55 1.35 -0.10 1 -1 1.65 -0.05 1.05 1.45 -0.80 1.85 -0.75 1.85 -1.75 1.05 -0.80 -0.65 -0.85 -0.60 -0.25 0.15 0.40 0.50 0.55 1.30 0.35 1.95 -0.30 0.95 -0.20 1.05 0.75 0.80 1.10 -0.30 1.10 -0.30 0.15 2.05 -0.15 0.40 0 0.50 0.55 0.30 0.45 -0.15 0.80 -0.60 0.80 -1 0 -0.40 0.35 -0.70 0.75 -0.70 1.10 0 0.90 0.85 -0.35 1.70 -1.45 1 -2.40 1 -3.65 -0.10z"/>
  <path d="M27 13.50 c0 -0.55 0.25 -1 0.50 -1 0.30 0 0.50 0.45 0.50 1 0 0.55 -0.20 1 -0.50 1 -0.25 0 -0.50 -0.45 -0.50 -1z"/>
  <path d="M25.25 10 c-0.30 -0.50 0.20 -1.10 3.25 -3.75 l1.15 -1 -0.55 1 c-1.20 2.10 -3.50 4.35 -3.85 3.75z"/>
 </g>
 <g fill="#a2846f">
  <path d="M10.25 38.05 c0.20 -0.75 -0.15 -1.60 -1.30 -3.05 -0.90 -1.10 -1.50 -2.10 -1.35 -2.25 0.10 -0.15 0.95 0.65 1.80 1.70 1.65 2.05 2.05 3.70 1.05 4.35 -0.40 0.20 -0.45 0 -0.20 -0.75z"/>
  <path d="M21.95 34.90 c-0.10 -0.90 0.10 -2.10 0.35 -2.40 0.35 -0.35 1.20 1.15 1.20 2.15 0 0.95 -1.45 1.20 -1.55 0.25z"/>
  <path d="M13.25 33.05 c-0.30 -1.40 0.40 -3.55 1.15 -3.55 0.20 0 0.25 1.10 0.20 2.50 -0.20 2.80 -0.85 3.30 -1.35 1.05z"/>
  <path d="M17.50 33.40 c0 -1.25 2.30 -3.75 2.90 -3.20 0.20 0.20 -0.05 0.70 -0.60 1.05 -0.50 0.40 -0.95 1.25 -1 1.95 -0.05 1.60 -1.30 1.75 -1.30 0.20z"/>
  <path d="M6.30 32.05 c-0.35 -0.55 2.10 -3.05 2.95 -3.05 0.30 0 1 -0.45 1.50 -1 0.95 -1 1.75 -1.30 1.75 -0.60 0 0.20 -0.70 0.80 -1.60 1.35 -0.90 0.50 -2.25 1.55 -3 2.35 -0.75 0.75 -1.45 1.20 -1.60 0.95z"/>
  <path d="M16.50 27 c0 -0.25 -0.60 -0.50 -1.35 -0.50 -1.25 0 -1.30 0 -0.40 -1 1.30 -1.40 2 -1.25 2.05 0.50 0.05 0.85 0 1.50 -0.10 1.50 -0.10 0 -0.20 -0.20 -0.20 -0.50z"/>
  <path d="M21.60 21.15 c0.10 -0.50 0.55 -0.85 0.95 -0.75 0.40 0.05 0.20 -0.30 -0.45 -0.80 -0.65 -0.50 -1 -1.05 -0.80 -1.25 0.75 -0.75 1.60 -0.30 2.15 1.15 0.25 0.85 0.75 1.50 1 1.50 0.30 0 0.55 0.25 0.55 0.50 0 0.30 -0.80 0.50 -1.80 0.50 -1.45 0 -1.75 -0.15 -1.60 -0.85z"/>
  <path d="M27.80 18.40 c-0.40 -1.60 -0.35 -2.40 0.10 -2.40 0.45 0 1.60 2.20 1.60 3 0 1 -1.40 0.45 -1.70 -0.60z"/>
  <path d="M11.95 18.35 c0.30 -0.40 1.10 -2.20 1.80 -4.10 1.35 -3.60 2.70 -6.30 2.75 -5.55 0 0.80 -2.10 7.50 -2.80 8.95 -0.40 0.75 -1.10 1.35 -1.50 1.35 -0.65 0 -0.70 -0.15 -0.25 -0.65z"/>
  <path d="M21.10 16.40 c-0.90 -0.90 -0.75 -1.40 0.40 -1.40 0.65 0 1 0.35 1 1 0 1.15 -0.50 1.30 -1.40 0.40z"/>
  <path d="M17 15.55 c0 -0.50 0.45 -1.45 1 -2.10 l0.95 -1.20 0.05 2.15 c0 1.75 -0.15 2.10 -1 2.10 -0.65 0 -1 -0.35 -1 -0.95z"/>
  <path d="M24 15.75 c0 -0.40 0.45 -0.75 1 -0.75 0.55 0 1 0.35 1 0.75 0 0.40 -0.45 0.75 -1 0.75 -0.55 0 -1 -0.35 -1 -0.75z"/>
  <path d="M12.20 13.75 c0.30 -3.05 3.70 -8.70 6.25 -10.35 2.20 -1.35 3.55 -1.75 3.55 -1 0 0.20 -0.90 0.75 -2 1.25 -2.40 1.10 -4.45 3.90 -6 8.25 -1.35 3.65 -2 4.35 -1.80 1.85z"/>
  <path d="M22.25 13.95 c-0.20 -0.30 -0.70 -0.40 -1.10 -0.25 -0.60 0.25 -0.70 0.05 -0.40 -1.05 0.45 -1.80 0.45 -1.85 1.70 -1.05 0.70 0.40 1 1 0.85 1.55 -0.15 0.65 0 0.85 0.55 0.65 0.40 -0.15 0.85 -0.30 0.95 -0.30 0.10 0 0.20 -0.35 0.20 -0.75 0 -0.40 0.35 -0.75 0.75 -0.75 1.10 0 0.90 0.85 -0.35 1.70 -1.30 0.90 -2.70 1.05 -3.15 0.25z"/>
  <path d="M25.25 9.95 c-0.25 -0.35 -0.05 -0.90 0.50 -1.25 1.25 -0.90 1.55 -0.50 0.60 0.80 -0.55 0.80 -0.85 0.90 -1.10 0.45z"/>
  <path d="M23 8.25 c-0.50 -0.60 -0.55 -1.05 -0.20 -1.65 1.25 -1.95 2.20 -0.80 1.25 1.55 -0.30 0.90 -0.40 0.90 -1.05 0.10z"/>
  <path d="M17 7.70 c0 -0.35 0.45 -1.10 1 -1.75 1.25 -1.55 1.30 -0.60 0 1.05 -0.55 0.70 -1 1 -1 0.70z"/>
  <path d="M20.05 5.65 c-0.05 -0.60 1.80 -2.15 2.60 -2.15 0.25 0 0.10 0.35 -0.35 0.75 -0.40 0.40 -0.95 0.75 -1.20 0.75 -0.30 0 -0.65 0.30 -0.75 0.65 -0.20 0.45 -0.30 0.45 -0.30 0z"/>
 </g>
 <g fill="#928d8b">
  <path d="M17.50 36 c0 -2.35 0.20 -4 0.50 -4 0.30 0 0.45 0.15 0.40 0.40 -0.05 0.20 0.10 0.85 0.30 1.50 0.20 0.65 0.15 1.40 -0.10 1.75 -0.25 0.35 -0.40 1.45 -0.35 2.50 0.10 1 -0.05 1.85 -0.30 1.85 -0.25 0 -0.45 -1.80 -0.45 -4z"/>
  <path d="M14 35.70 c-0.90 -3.15 -0.85 -4.85 0.20 -6.45 1.05 -1.60 1.65 -1.35 0.80 0.30 -0.40 0.75 -0.55 2.40 -0.35 4.80 0.15 2 0.20 3.65 0.15 3.65 -0.10 0 -0.45 -1.05 -0.80 -2.30z"/>
  <path d="M22 34 c0 -1.60 0.70 -2 1.20 -0.70 0.50 1.35 0.35 2.20 -0.45 2.20 -0.50 0 -0.75 -0.50 -0.75 -1.50z"/>
  <path d="M6.30 32.10 c-0.40 -0.65 2.15 -3.10 3.15 -3.10 0.60 0 0.50 0.25 -0.40 0.95 -0.70 0.50 -1.50 1.30 -1.85 1.80 -0.35 0.45 -0.75 0.60 -0.90 0.35z"/>
  <path d="M19.35 28.90 c0.30 -3.55 0.65 -4.45 1.15 -3.15 0.95 2.30 0.35 5.75 -1.05 5.75 -0.15 0 -0.20 -1.20 -0.10 -2.60z"/>
  <path d="M21.65 20.90 c0.20 -0.70 1.80 -0.60 2.60 0.15 0.25 0.25 -0.20 0.45 -1.20 0.45 -1.10 0 -1.55 -0.20 -1.40 -0.60z"/>
  <path d="M21.75 19.35 c-0.65 -0.50 -0.75 -0.80 -0.30 -1.05 0.60 -0.40 2.05 0.50 2.05 1.25 0 0.65 -0.65 0.55 -1.75 -0.20z"/>
  <path d="M17.15 16.75 c-0.15 -1.45 0 -1.75 0.90 -1.75 0.85 0 1 0.25 0.85 1.60 -0.20 2.35 -1.60 2.45 -1.75 0.15z"/>
  <path d="M20.80 16.05 c-0.90 -1 -0.60 -1.55 0.80 -1.55 0.55 0 0.90 0.35 0.90 0.95 0 1.40 -0.75 1.65 -1.70 0.60z"/>
  <path d="M13.65 14.75 c0.50 -1.70 1.35 -2.40 1.35 -1.10 0 1.40 -0.65 2.85 -1.25 2.85 -0.50 0 -0.55 -0.40 -0.10 -1.75z"/>
  <path d="M24.10 15.90 c0.15 -0.35 0.75 -0.75 1.35 -0.80 0.80 -0.15 1.10 0.05 0.95 0.50 -0.15 0.35 -0.75 0.75 -1.35 0.80 -0.80 0.15 -1.10 -0.05 -0.95 -0.50z"/>
  <path d="M27.40 15.50 c-0.35 -1.20 -0.15 -1.90 0.40 -1.40 0.15 0.20 0.20 0.85 0.10 1.50 l-0.15 1.15 -0.35 -1.25z"/>
  <path d="M22.25 13.95 c-0.20 -0.30 -0.70 -0.40 -1.10 -0.25 -0.45 0.20 -0.65 0.05 -0.55 -0.30 0.15 -0.35 0.85 -0.70 1.65 -0.80 1.10 -0.15 1.30 0 1.10 0.60 -0.50 1.25 0.90 0.95 1.80 -0.30 0.40 -0.65 0.95 -0.95 1.15 -0.75 0.55 0.55 -1.60 2.35 -2.85 2.35 -0.50 0 -1.05 -0.25 -1.20 -0.55z"/>
  <path d="M21 10.55 c0 -0.85 -0.20 -1.65 -0.50 -1.80 -0.85 -0.50 -0.55 -1.75 0.40 -1.75 0.80 -0.05 0.80 -0.10 -0.10 -0.75 -1.15 -0.85 -0.65 -1.75 1 -1.75 1.25 0 1.65 0.70 0.60 1.20 -0.50 0.25 -0.50 0.35 0 0.60 0.75 0.35 0.80 1.70 0.05 1.70 -0.40 0 -0.35 0.25 0.10 0.80 0.50 0.60 0.50 1 0.05 1.70 -0.45 0.70 -0.40 1 0.05 1.15 0.35 0.15 0.10 0.30 -0.50 0.30 -0.95 0.05 -1.15 -0.20 -1.15 -1.40z"/>
  <path d="M25.35 9.85 c-0.20 -0.55 0.65 -1.55 2.80 -3.30 1.35 -1.05 1 -0.30 -0.85 1.90 -1 1.20 -1.80 1.80 -1.95 1.40z"/>
  <path d="M24.40 3.45 c-0.50 -0.25 -0.90 -0.85 -0.90 -1.20 0 -0.80 0.05 -0.80 1.90 -1 1.05 -0.10 1.05 -0.05 0.35 0.70 -0.55 0.65 -0.60 1 -0.15 1.45 0.75 0.75 0 0.75 -1.20 0.05z"/>
 </g>
 <g fill="#cd9d67">
  <path d="M17.50 34.35 c0 -1.30 0.20 -2.35 0.50 -2.35 0.25 0 0.35 0.35 0.15 0.80 -0.15 0.45 0 1 0.35 1.20 0.50 0.30 0.45 0.65 -0.20 1.55 -0.80 1.15 -0.80 1.15 -0.80 -1.20z"/>
  <path d="M13.35 32.80 c-0.35 -0.85 0.85 -4.05 1.65 -4.55 0.60 -0.40 0.65 -0.50 -0.45 2.65 -0.60 1.70 -1 2.40 -1.20 1.90z"/>
  <path d="M28.60 29.50 c-0.80 -1.35 -0.75 -2.50 0.15 -2.50 0.50 0 0.75 0.55 0.75 1.75 0 2.05 -0.05 2.10 -0.90 0.75z"/>
  <path d="M17 28.30 c0 -1.15 -1.45 -2.30 -2.40 -1.95 -0.80 0.30 -0.80 0.25 0 -0.65 0.95 -1.10 3.05 -8.50 2.65 -9.25 -0.20 -0.25 0.20 -0.45 0.80 -0.45 0.95 0 1.05 0.20 0.75 1.65 -0.15 0.85 -0.80 3.15 -1.35 5.05 -1 3.20 -1 3.50 -0.25 4.05 0.90 0.65 1.10 2.25 0.30 2.25 -0.25 0 -0.50 -0.30 -0.50 -0.70z"/>
  <path d="M19.60 27.45 c0.10 -0.30 0.40 -0.50 0.65 -0.50 0.25 0 0.55 0.20 0.65 0.50 0.10 0.30 -0.20 0.55 -0.65 0.55 -0.45 0 -0.75 -0.25 -0.65 -0.55z"/>
  <path d="M28.50 25.50 c0 -0.25 0.20 -0.50 0.45 -0.50 0.50 0 0.10 -4.50 -0.45 -5.25 -0.20 -0.25 -0.50 -1.10 -0.70 -1.85 -0.50 -2.25 0.65 -1.65 1.75 0.90 0.80 1.80 0.95 2.80 0.70 4.75 -0.25 1.60 -0.60 2.45 -1.05 2.45 -0.40 0 -0.70 -0.20 -0.70 -0.50z"/>
  <path d="M22.50 23.15 c0 -1.05 -0.15 -1.20 -0.50 -0.65 -0.70 1.15 -1.20 0.15 -0.60 -1.25 0.50 -1.10 0.70 -1.15 2.05 -0.70 2.40 0.85 2.40 3.95 0 3.95 -0.70 0 -0.95 -0.35 -0.95 -1.35z"/>
  <path d="M22.20 19.25 c-0.80 -0.60 -0.85 -0.70 -0.15 -0.75 0.45 0 0.95 0.35 1.15 0.75 0.35 0.95 0.25 0.95 -1 0z"/>
  <path d="M20.50 15 c0 -0.25 0.30 -0.50 0.70 -0.50 0.40 0 0.90 0.25 1.05 0.50 0.15 0.30 -0.15 0.50 -0.70 0.50 -0.60 0 -1.05 -0.20 -1.05 -0.50z"/>
  <path d="M18 13.50 c0.30 -0.55 0.65 -1 0.75 -1 0.15 0 0.25 0.45 0.25 1 0 0.55 -0.35 1 -0.75 1 -0.65 0 -0.70 -0.20 -0.25 -1z"/>
  <path d="M22.35 13.95 c-0.45 -0.25 -1.10 -0.35 -1.35 -0.20 -0.50 0.30 -0.40 -0.60 0.30 -3.30 0.15 -0.45 -0.10 -1.10 -0.55 -1.45 -0.95 -0.80 -0.95 -2 0 -2 0.40 0 0.75 -0.20 0.75 -0.50 0 -0.25 -0.35 -0.50 -0.75 -0.50 -0.40 0 -0.75 -0.20 -0.75 -0.50 0 -0.80 2.30 -2.05 3.20 -1.70 1.10 0.40 1 1.05 -0.20 1.45 -0.55 0.15 -1 0.55 -1 0.80 0 0.65 0.70 0.55 1.40 -0.15 0.85 -0.85 1.15 -0.30 0.80 1.55 -0.25 1.15 -0.50 1.45 -0.85 1.10 -0.85 -0.85 -1.55 -0.65 -0.80 0.25 0.50 0.60 0.50 1 0.05 1.75 -0.50 0.80 -0.45 0.95 0.20 0.95 0.60 0 0.75 0.35 0.60 1.25 -0.15 0.65 0 1.30 0.30 1.45 0.30 0.10 0.35 0.25 0.05 0.25 -0.25 0 -0.90 -0.20 -1.40 -0.50z"/>
  <path d="M27 13.80 c0 -0.40 0.25 -0.90 0.50 -1.05 0.30 -0.15 0.50 0.15 0.50 0.70 0 0.60 -0.20 1.05 -0.50 1.05 -0.25 0 -0.50 -0.30 -0.50 -0.70z"/>
  <path d="M25.55 9.45 c0 -0.40 0.85 -1.35 1.80 -2.20 1.35 -1.10 1.65 -1.25 1.30 -0.50 -0.85 1.55 -3.15 3.55 -3.10 2.70z"/>
  <path d="M19.50 2.95 c0 -0.25 0.55 -0.45 1.25 -0.45 0.70 0 1.25 0.10 1.25 0.20 0 0.10 -0.55 0.30 -1.25 0.40 -0.70 0.15 -1.25 0.05 -1.25 -0.15z"/>
 </g>
 <g fill="#a7aaa8">
  <path d="M17.55 36.05 c-0.05 -2.30 0.05 -4.10 0.20 -3.95 0.45 0.45 0.60 5.60 0.20 6.90 -0.25 0.80 -0.40 -0.25 -0.40 -2.95z"/>
  <path d="M14.35 37.50 c-0.20 -0.95 -0.50 -2.55 -0.75 -3.55 -0.35 -1.30 -0.25 -2.20 0.20 -3.25 l0.70 -1.45 -0.25 1.80 c-0.15 1 0 2.95 0.30 4.40 0.30 1.40 0.45 2.85 0.35 3.15 -0.15 0.35 -0.35 -0.15 -0.55 -1.10z"/>
  <path d="M22.15 34.75 c-0.15 -0.45 -0.15 -0.90 0 -1.05 0.45 -0.45 1.35 0.30 1.35 1.10 0 0.95 -0.95 0.90 -1.35 -0.05z"/>
  <path d="M6.50 31.65 c0 -0.75 2.05 -2.75 2.45 -2.40 0.15 0.15 -0.35 0.90 -1.10 1.65 -0.75 0.70 -1.35 1.05 -1.35 0.75z"/>
  <path d="M21.75 23.50 c-0.90 -1 -0.90 -1 0.95 -1 1.50 0 1.85 0.15 1.70 0.85 -0.25 1.25 -1.55 1.35 -2.65 0.15z"/>
  <path d="M21.50 21 c0 -0.25 0.55 -0.50 1.25 -0.50 0.70 0 1.25 0.25 1.25 0.50 0 0.30 -0.55 0.50 -1.25 0.50 -0.70 0 -1.25 -0.20 -1.25 -0.50z"/>
  <path d="M22.40 19.45 c-0.95 -0.55 -1.20 -1.45 -0.40 -1.45 0.25 0 0.70 0.45 1 1 0.60 1.15 0.60 1.15 -0.60 0.45z"/>
  <path d="M20.65 15.75 c-0.15 -0.45 -0.15 -0.90 0 -1.10 0.50 -0.50 1.85 0.30 1.85 1.10 0 1 -1.45 1 -1.85 0z"/>
  <path d="M27 14.05 c0 -0.60 0.25 -1.05 0.50 -1.05 0.30 0 0.50 0.30 0.50 0.70 0 0.40 -0.20 0.90 -0.50 1.05 -0.25 0.15 -0.50 -0.15 -0.50 -0.70z"/>
  <path d="M12.75 12.65 c0.10 -0.80 0.20 -1.55 0.20 -1.75 0.05 -0.25 0.35 -0.40 0.75 -0.40 0.60 0 0.60 0.30 0.15 1.75 -0.60 2.10 -1.35 2.35 -1.10 0.40z"/>
  <path d="M14.05 13.65 c0 -0.25 0.20 -0.85 0.45 -1.40 0.40 -0.90 0.45 -0.85 0.45 0.40 0.05 0.75 -0.15 1.35 -0.45 1.35 -0.25 0 -0.50 -0.15 -0.45 -0.35z"/>
  <path d="M20.70 13.20 c0.15 -0.40 0.30 -1 0.30 -1.25 0 -0.70 1 -0.55 1.80 0.30 0.70 0.65 0.70 0.80 0 1 -0.45 0.15 -1.15 0.35 -1.60 0.50 -0.60 0.20 -0.75 0.05 -0.50 -0.55z"/>
  <path d="M25 13.05 c0.30 -0.60 0.75 -1.05 1 -1.05 0.90 0 0.55 0.95 -0.55 1.50 -0.95 0.55 -1 0.50 -0.45 -0.45z"/>
  <path d="M25.50 9.55 c0 -0.60 0.30 -1.05 0.75 -1.05 0.40 0 0.75 -0.25 0.75 -0.60 0 -0.30 0.15 -0.45 0.30 -0.25 0.20 0.15 -0.15 0.90 -0.75 1.65 -1 1.25 -1.05 1.25 -1.05 0.25z"/>
  <path d="M20 7.50 c0 -0.25 0.30 -0.50 0.65 -0.50 0.30 0 1.10 -0.15 1.75 -0.30 0.80 -0.25 1.10 -0.10 1.10 0.50 0 0.60 -0.45 0.80 -1.75 0.80 -0.95 0 -1.75 -0.20 -1.75 -0.50z"/>
  <path d="M16 5.50 c0.95 -1.35 2 -2 2 -1.25 0 0.75 -1.70 2.75 -2.35 2.75 -0.55 0 -0.45 -0.35 0.35 -1.50z"/>
  <path d="M20.90 6.10 c-1.25 -0.25 -1.10 -0.85 0.40 -1.85 1.20 -0.80 1.40 -0.80 2.10 -0.05 0.75 0.75 0.75 0.80 0 0.80 -0.50 0 -1.05 0.30 -1.25 0.65 -0.20 0.35 -0.80 0.55 -1.25 0.45z"/>
  <path d="M23.65 2.70 c-0.35 -1 0.55 -1.90 1.60 -1.55 0.65 0.30 0.65 0.50 0.15 1.35 -0.75 1.20 -1.35 1.30 -1.75 0.20z"/>
 </g>
 <g fill="#c1a897">
  <path d="M9.20 35.15 c-1.15 -1.55 -1.20 -1.70 -0.25 -0.90 1.10 0.95 2.30 2.75 1.90 2.75 -0.15 0 -0.85 -0.85 -1.65 -1.85z"/>
  <path d="M7 31.10 c0 -0.80 4.25 -4.10 5.25 -4.10 0.65 0 -0.35 1 -2.75 2.70 -1.40 1 -2.50 1.60 -2.50 1.40z"/>
  <path d="M17 28 c0 -0.55 0.25 -1 0.50 -1 0.30 0 0.50 0.45 0.50 1 0 0.55 -0.20 1 -0.50 1 -0.25 0 -0.50 -0.45 -0.50 -1z"/>
  <path d="M19.60 27.55 c0.20 -0.65 0.90 -0.80 0.95 -0.20 0 0.20 -0.25 0.45 -0.55 0.60 -0.35 0.10 -0.55 -0.10 -0.40 -0.40z"/>
  <path d="M14.80 25.55 c0.55 -0.45 0.95 -1.10 0.80 -1.45 -0.10 -0.30 0.20 -0.60 0.65 -0.60 0.60 0 0.75 0.25 0.55 0.80 -0.15 0.45 -0.30 1.05 -0.30 1.45 0 0.35 -0.60 0.65 -1.35 0.65 -1.35 0 -1.35 -0.05 -0.35 -0.85z"/>
  <path d="M11.50 21.25 c0 -0.20 0.40 -0.85 0.90 -1.40 0.80 -0.95 0.80 -0.95 -0.40 -0.60 l-1.25 0.35 1.05 -1.15 c0.60 -0.65 1.55 -2.65 2.15 -4.45 1.10 -3.40 1.85 -4.90 2.20 -4.50 0.10 0.15 -0.45 2.15 -1.25 4.50 -0.80 2.35 -1.55 4.70 -1.65 5.20 -0.25 1.05 -1.75 2.80 -1.75 2.05z"/>
  <path d="M28.85 20.10 c-0.90 -0.95 -1.15 -2.60 -0.45 -2.60 0.60 0 1.75 2.30 1.50 3 -0.10 0.35 -0.50 0.25 -1.05 -0.40z"/>
  <path d="M21.10 16.40 c-0.90 -0.90 -0.75 -2.05 0.20 -1.70 0.45 0.15 0.90 0.30 1 0.30 0.40 0 0.20 1.45 -0.20 1.70 -0.25 0.15 -0.70 0 -1 -0.30z"/>
  <path d="M24.10 15.90 c0.15 -0.35 0.75 -0.75 1.40 -0.80 1.05 -0.15 1.10 -0.10 0.55 0.60 -0.80 0.95 -2.20 1.05 -1.95 0.20z"/>
  <path d="M12 14.90 c0 -0.40 0.35 -1.15 0.75 -1.75 0.50 -0.70 0.55 -1.15 0.20 -1.25 -0.30 -0.10 -0.10 -0.70 0.50 -1.40 1.25 -1.50 1.30 -0.95 0.25 2.15 -0.80 2.35 -1.70 3.55 -1.70 2.25z"/>
  <path d="M25 13 c0.30 -0.55 0.80 -1 1.10 -1 0.30 0 0.15 0.45 -0.35 1 -0.50 0.55 -1 1 -1.10 1 -0.10 0 0.05 -0.45 0.35 -1z"/>
  <path d="M21.15 11.55 c0.15 -1.10 0 -2.20 -0.30 -2.50 -0.40 -0.40 -0.35 -0.55 0.20 -0.55 1.25 0 2 1.05 1.35 1.90 -0.50 0.55 -0.40 0.85 0.30 1.35 1.10 0.80 0.65 1.75 -0.80 1.75 -0.90 0 -1 -0.25 -0.75 -1.95z"/>
  <path d="M19 3.60 c0 -0.90 2 -1.80 2.65 -1.15 0.40 0.40 0.25 0.55 -0.45 0.55 -0.55 0 -1.25 0.25 -1.60 0.60 -0.45 0.45 -0.60 0.45 -0.60 0z"/>
 </g>
 <g fill="#e8ba81">
  <path d="M28.30 28.70 c-0.50 -1.25 -0.35 -1.70 0.45 -1.70 0.45 0 0.75 0.45 0.75 1.25 0 1.40 -0.75 1.70 -1.20 0.45z"/>
  <path d="M14.95 25.55 c0.40 -0.25 0.80 -0.90 0.85 -1.40 0.10 -0.50 0.40 -2 0.75 -3.40 0.35 -1.35 0.60 -3.10 0.60 -3.85 0 -1.05 0.25 -1.40 1 -1.40 1.15 0 1.05 0.85 -0.75 6.90 -0.85 3 -1.20 3.60 -2.10 3.60 -0.80 0 -0.90 -0.10 -0.35 -0.45z"/>
  <path d="M22.65 24.15 c-0.35 -0.10 -0.65 -1 -0.65 -1.95 0 -1.35 0.20 -1.70 1 -1.70 1.05 0 1.85 1.90 1.30 3.25 -0.30 0.75 -0.60 0.85 -1.65 0.40z"/>
  <path d="M29 22.45 c0.10 -0.95 -0.20 -2.50 -0.65 -3.45 -1 -2.30 -1.60 -6 -0.95 -6 0.25 0 0.65 0.85 0.85 1.90 0.20 1 0.80 2.80 1.30 4 1.10 2.35 1.10 4.65 0.05 5 -0.50 0.15 -0.65 -0.25 -0.60 -1.45z"/>
  <path d="M21.20 12.80 c-0.15 -0.40 -0.20 -1.10 -0.10 -1.50 0.10 -0.60 0.35 -0.55 1.30 0.20 1.20 1 1.10 2 -0.20 2 -0.40 0 -0.85 -0.30 -1 -0.70z"/>
  <path d="M21.05 9.20 c-1.30 -1.65 -1.30 -2.20 -0.15 -2.20 0.45 0 1.45 -0.35 2.25 -0.70 1.45 -0.80 1.50 -0.70 1.05 1.10 -0.25 0.85 -0.55 1.05 -1.25 0.85 -1.05 -0.35 -1.25 0.25 -0.40 1.10 0.35 0.35 0.35 0.65 0.05 0.85 -0.30 0.15 -1 -0.30 -1.55 -1z"/>
  <path d="M25.50 9.95 c0.05 -0.65 3 -3.95 3 -3.35 0 0.15 -0.65 1.10 -1.50 2.15 -0.80 1.05 -1.50 1.60 -1.50 1.20z"/>
  <path d="M20 5.50 c0 -0.80 2.30 -1.70 3.30 -1.30 0.75 0.30 0.70 0.45 -0.50 1.05 -1.65 0.85 -2.80 0.95 -2.80 0.25z"/>
 </g>
 <g fill="#f9d594">
  <path d="M28.50 29.05 c0 -0.25 -0.15 -0.80 -0.30 -1.25 -0.20 -0.55 -0.05 -0.80 0.50 -0.80 0.50 0 0.80 0.45 0.80 1.25 0 0.70 -0.20 1.25 -0.50 1.25 -0.25 0 -0.50 -0.20 -0.50 -0.45z"/>
  <path d="M15.40 25.40 c0.60 -0.80 1.75 -6.65 1.70 -8.75 0 -1.30 0.15 -1.65 0.95 -1.65 1.10 0 1.15 0.45 0.45 3.25 -1.55 5.95 -2.25 7.75 -2.90 7.75 -0.50 0 -0.60 -0.20 -0.20 -0.60z"/>
  <path d="M22 23.60 c-0.85 -0.70 -1.05 -1.20 -0.75 -2.05 0.50 -1.70 2.45 -1.25 2.65 0.65 0.25 2 -0.50 2.55 -1.90 1.40z"/>
  <path d="M29.05 22.40 c0.05 -0.90 -0.20 -2.45 -0.65 -3.40 -0.95 -2.15 -1.55 -6 -0.95 -6 0.20 0 0.55 0.95 0.75 2.15 0.20 1.15 0.65 2.55 1 3.10 0.90 1.40 1.40 3.65 1.05 4.80 -0.50 1.55 -1.35 1.10 -1.20 -0.65z"/>
  <path d="M21.35 13.20 c-0.20 -0.20 -0.35 -0.95 -0.35 -1.65 0.05 -1.15 0.10 -1.20 0.55 -0.40 0.25 0.45 0.85 0.85 1.25 0.85 0.45 0 0.70 0.30 0.60 0.65 -0.25 0.70 -1.55 1.05 -2.05 0.55z"/>
  <path d="M20.80 8.90 c-1.10 -1.50 -0.40 -2.20 0.75 -0.70 0.50 0.65 0.95 1.35 0.95 1.50 0 0.70 -1 0.20 -1.70 -0.80z"/>
  <path d="M23.10 6.90 c0.10 -0.30 0.50 -0.70 0.80 -0.80 0.35 -0.10 0.50 0.10 0.30 0.60 -0.35 0.90 -1.40 1.10 -1.10 0.20z"/>
  <path d="M20.75 5 c0.50 -0.55 1.35 -1 1.90 -1 0.95 0 1 0.05 0.10 1 -0.50 0.55 -1.35 1 -1.90 1 -0.95 0 -1 -0.05 -0.10 -1z"/>
 </g>
 <g fill="#dfcaba">
  <path d="M7.50 30.55 c0 -0.55 2.40 -2.55 3.05 -2.55 0.95 0 0.35 0.80 -1.30 1.90 -0.95 0.60 -1.75 0.90 -1.75 0.65z"/>
  <path d="M15.10 26.05 c-0.55 -0.35 -0.55 -0.45 0.10 -0.70 0.45 -0.20 0.80 -0.65 0.80 -1.10 0 -0.40 0.20 -0.75 0.40 -0.75 0.25 0 0.35 0.70 0.20 1.50 -0.25 1.60 -0.45 1.75 -1.50 1.05z"/>
  <path d="M28.50 25.50 c0 -0.25 0.35 -0.50 0.75 -0.50 0.40 0 0.75 0.25 0.75 0.50 0 0.30 -0.35 0.50 -0.75 0.50 -0.40 0 -0.75 -0.20 -0.75 -0.50z"/>
  <path d="M29.25 23.40 c-0.20 -0.50 -0.20 -1.30 0 -1.75 0.40 -0.85 0.40 -0.85 0.60 0 0.15 0.45 0.15 1.25 0 1.75 -0.20 0.80 -0.20 0.80 -0.60 0z"/>
  <path d="M21.35 21.50 c0.15 -0.55 0.70 -1 1.20 -1 0.60 0 0.95 0.35 0.95 1 0 0.70 -0.35 1 -1.20 1 -0.95 0 -1.15 -0.20 -0.95 -1z"/>
  <path d="M16.50 20.90 c0 -1.25 0.60 -2.90 1.05 -2.90 0.50 0 0.60 1.55 0.15 2.70 -0.35 0.95 -1.20 1.05 -1.20 0.20z"/>
  <path d="M11.85 18.40 c0.65 -0.65 1.70 -2.85 2.40 -4.85 1.30 -3.80 2.70 -6.50 4.05 -7.60 0.45 -0.35 0.15 0.40 -0.70 1.75 -0.85 1.30 -2 4 -2.60 5.95 -1.20 3.90 -1.60 4.60 -3.20 5.45 -1 0.50 -1 0.50 0.05 -0.70z"/>
  <path d="M20.65 15.75 c-0.15 -0.45 -0.15 -0.90 -0.05 -1.05 0.45 -0.45 1.90 0.40 1.90 1.10 0 0.95 -1.45 0.90 -1.85 -0.05z"/>
  <path d="M24.25 16 c-0.15 -0.30 0.05 -0.65 0.50 -0.80 0.95 -0.40 1.50 0 1 0.75 -0.40 0.70 -1.10 0.70 -1.50 0.05z"/>
  <path d="M12.25 14.50 c0.20 -0.70 0.60 -1.45 0.85 -1.75 0.35 -0.35 0.40 -0.10 0.15 0.75 -0.20 0.70 -0.60 1.50 -0.85 1.75 -0.35 0.35 -0.40 0.10 -0.15 -0.75z"/>
  <path d="M21.35 13.20 c-0.70 -0.70 -0.30 -1.20 0.95 -1.20 0.80 0 1.20 0.25 1.10 0.65 -0.25 0.70 -1.55 1.05 -2.05 0.55z"/>
  <path d="M13.85 9.35 c2.45 -4.60 4.70 -6.85 6.90 -6.85 0.75 0 0.55 0.25 -0.70 0.85 -1.75 0.90 -4.20 3.85 -5.35 6.45 -0.35 0.85 -1 1.70 -1.45 1.90 -0.60 0.20 -0.45 -0.35 0.60 -2.35z"/>
 </g>
 <g fill="#feefb6">
  <path d="M17 27.75 c0 -0.40 0.25 -0.75 0.50 -0.75 0.30 0 0.50 0.35 0.50 0.75 0 0.40 -0.20 0.75 -0.50 0.75 -0.25 0 -0.50 -0.35 -0.50 -0.75z"/>
  <path d="M15.25 25.95 c-0.75 -0.30 -0.80 -0.40 -0.20 -0.40 0.60 -0.05 0.95 -0.95 1.40 -3.80 0.35 -2.05 0.85 -3.85 1.10 -4.05 0.30 -0.20 0.30 -0.55 -0.10 -1 -0.45 -0.55 -0.45 -1.05 0.05 -2.20 0.35 -0.80 0.80 -1.50 1.05 -1.50 0.70 0 0.55 2.15 -0.35 5.35 -0.45 1.60 -1.05 4.05 -1.40 5.45 -0.50 2.25 -0.65 2.50 -1.55 2.15z"/>
  <path d="M21.55 23.30 c-0.45 -0.55 -0.50 -1 -0.05 -1.75 0.90 -1.70 2 -1.30 2 0.70 0 1.85 -0.90 2.35 -1.95 1.05z"/>
  <path d="M29.20 23.30 c-0.15 -0.40 -0.05 -1.15 0.25 -1.65 0.45 -0.75 0.50 -0.65 0.55 0.75 0 1.70 -0.35 2.10 -0.80 0.90z"/>
  <path d="M29.15 20.10 c-0.60 -0.35 -1.65 -2.75 -1.65 -3.65 0 -1.10 0.80 -0.30 1.60 1.65 0.95 2.20 0.95 2.55 0.05 2z"/>
  <path d="M27 13.75 c0 -0.40 0.25 -0.75 0.50 -0.75 0.30 0 0.50 0.35 0.50 0.75 0 0.40 -0.20 0.75 -0.50 0.75 -0.25 0 -0.50 -0.35 -0.50 -0.75z"/>
  <path d="M20.60 5.40 c0.30 -0.80 1.80 -1.70 2.20 -1.30 0.40 0.45 -1 1.90 -1.80 1.90 -0.30 0 -0.50 -0.25 -0.40 -0.60z"/>
 </g>
 <g fill="#f8edd6">
  <path d="M6.60 31.50 c0.30 -0.90 4.25 -4 5.05 -4 0.35 0.05 0.10 0.45 -0.55 0.90 -0.65 0.45 -2 1.50 -2.95 2.35 -1 0.80 -1.70 1.15 -1.55 0.75z"/>
  <path d="M15.30 26.05 c-0.95 -0.35 -0.95 -0.40 0.10 -0.65 0.75 -0.20 1.10 -0.10 1.10 0.40 0 0.40 -0.05 0.70 -0.10 0.65 -0.10 0 -0.60 -0.20 -1.10 -0.40z"/>
  <path d="M21.70 23.30 c-0.40 -1.05 -0.05 -2.45 0.70 -2.70 0.40 -0.10 0.60 0.40 0.60 1.60 0 1.80 -0.80 2.45 -1.30 1.10z"/>
  <path d="M29 22.75 c0 -0.40 0.25 -0.75 0.50 -0.75 0.30 0 0.50 0.35 0.50 0.75 0 0.40 -0.20 0.75 -0.50 0.75 -0.25 0 -0.50 -0.35 -0.50 -0.75z"/>
  <path d="M17 19.30 c0 -0.70 0.25 -1.30 0.50 -1.30 0.30 0 0.50 0.45 0.50 0.95 0 0.55 -0.20 1.15 -0.50 1.30 -0.30 0.20 -0.50 -0.25 -0.50 -0.95z"/>
  <path d="M28.20 18.80 c-0.50 -1.35 0.10 -2.15 0.70 -0.95 0.40 0.70 0.45 1.20 0.10 1.40 -0.30 0.15 -0.65 -0.05 -0.80 -0.45z"/>
  <path d="M13.10 17.75 c0 -0.25 0.30 -1.30 0.65 -2.25 0.35 -0.95 0.70 -1.40 0.70 -1 0 0.40 -0.30 1.45 -0.70 2.25 -0.35 0.85 -0.65 1.30 -0.65 1z"/>
  <path d="M17 15.90 c0.05 -0.35 0.35 -1.20 0.70 -1.85 0.85 -1.55 1.50 -0.55 0.75 1.15 -0.65 1.35 -1.45 1.75 -1.45 0.70z"/>
  <path d="M24.50 15.75 c0 -0.45 0.45 -0.75 1.05 -0.75 0.90 0 0.95 0.10 0.45 0.75 -0.35 0.40 -0.80 0.75 -1.05 0.75 -0.25 0 -0.45 -0.35 -0.45 -0.75z"/>
  <path d="M21.85 13.20 c-0.65 -0.65 -0.35 -1.20 0.70 -1.20 0.55 0 0.95 0.25 0.85 0.60 -0.25 0.70 -1.10 1.05 -1.55 0.60z"/>
  <path d="M13.50 10.70 c0 -1.25 3.35 -6.30 4.60 -6.95 l1.50 -0.70 -1.70 1.90 c-2.50 2.90 -3.40 4.20 -3.40 4.85 0 0.35 -0.20 0.80 -0.50 0.95 -0.25 0.15 -0.50 0.15 -0.50 -0.05z"/>
  <path d="M23.70 2.45 c-0.40 -0.70 0.55 -1.65 1.25 -1.25 0.55 0.35 0.20 1.80 -0.45 1.80 -0.25 0 -0.60 -0.25 -0.80 -0.55z"/>
 </g>
 <g fill="#fbfaf3">
  <path d="M8.95 29.35 c0.70 -0.90 2.55 -2.10 2.55 -1.65 0 0.15 -0.75 0.75 -1.60 1.35 -1.20 0.85 -1.45 0.90 -0.95 0.30z"/>
  <path d="M21.75 23.50 c-0.30 -0.45 0.55 -2.50 1 -2.50 0.15 0 0.25 0.70 0.25 1.50 0 1.45 -0.65 2 -1.25 1z"/>
  <path d="M17 19.40 c0 -0.80 0.25 -1.40 0.50 -1.40 0.65 0 0.65 1 0 2 -0.40 0.60 -0.50 0.45 -0.50 -0.60z"/>
  <path d="M21.75 18.95 c-0.20 -0.30 -0.25 -0.65 -0.10 -0.80 0.35 -0.35 1.35 0.30 1.35 0.90 0 0.60 -0.85 0.60 -1.25 -0.10z"/>
  <path d="M17 15.90 c0 -0.35 0.35 -1.10 0.75 -1.60 0.80 -1.05 0.90 -0.75 0.45 1.10 -0.35 1.15 -1.20 1.55 -1.20 0.50z"/>
  <path d="M20.85 16.15 c-0.20 -0.15 -0.35 -0.60 -0.35 -1 0 -0.55 0.25 -0.55 1 -0.15 0.55 0.30 1 0.75 1 1 0 0.55 -1.15 0.65 -1.65 0.15z"/>
  <path d="M24.60 15.90 c0.15 -0.35 0.65 -0.75 1.20 -0.85 0.80 -0.15 0.85 -0.05 0.25 0.65 -0.80 0.95 -1.70 1.05 -1.45 0.20z"/>
  <path d="M14 9.75 c1 -2.55 3.10 -5.75 3.85 -5.75 0.55 0 0.45 0.35 -0.45 1.45 -2.40 3 -2.90 3.75 -2.90 4.35 0 0.35 -0.20 0.80 -0.50 0.95 -0.35 0.20 -0.35 -0.15 0 -1z"/>
  <path d="M23.85 2.65 c-0.65 -0.60 -0.35 -1.15 0.65 -1.15 0.65 0 0.90 0.25 0.70 0.75 -0.35 0.80 -0.85 0.95 -1.35 0.40z"/>
 </g>
</svg>