<?xml version="1.0" encoding="utf-8"?>
<!DOCTYPE svg PUBLIC "-//W3C//DTD SVG 1.0//EN" "http://www.w3.org/TR/2001/REC-SVG-20010904/DTD/svg10.dtd">
<svg version="1.0" xmlns="http://www.w3.org/2000/svg" width="40px" height="40px" viewBox="0 0 40 40" preserveAspectRatio="xMidYMid meet">
 <g fill="#251309">
  <path d="M8.50 39.55 c0 -0.25 0.30 -0.60 0.65 -0.70 0.40 -0.20 0.45 -0.40 0.10 -0.70 -0.85 -0.65 -3.30 -4.65 -2.90 -4.65 0.25 0 0.10 -0.20 -0.30 -0.45 -1.65 -1.05 3 -5.40 7.30 -6.80 l2.90 -0.90 -0.15 -2.40 c-0.10 -1.30 0.10 -2.85 0.40 -3.45 0.40 -0.70 0.40 -1.30 0.10 -1.60 -0.50 -0.50 -2 0.75 -3.45 3 -0.95 1.40 -2.35 1.50 -1.90 0.10 0.25 -0.75 0.10 -1 -0.55 -1 -0.80 0 -0.80 -0.05 0.05 -1 0.50 -0.55 1.20 -1 1.60 -1 0.35 0 0.65 -0.55 0.65 -1.25 0 -1.15 -0.10 -1.20 -1 -0.75 -1.20 0.65 -1.25 0.40 -0.25 -1.50 0.65 -1.30 0.65 -1.45 -0.05 -1.60 -0.70 -0.10 -0.65 -0.30 0.25 -1.10 1.05 -0.95 1.05 -0.95 1.05 0.15 0 0.60 0.20 0.95 0.50 0.80 0.30 -0.15 0.45 -1.30 0.40 -2.50 0 -1.25 0.25 -2.60 0.65 -3.10 0.40 -0.50 0.95 -1.20 1.20 -1.55 0.60 -0.80 1.90 -2.15 2.95 -3 1 -0.80 3.65 -0.80 3.95 0.05 0.10 0.30 0.35 -0.15 0.55 -1 0.30 -1.40 0.60 -1.65 1.80 -1.65 1.70 0 2.15 0.90 1.10 2.15 -0.50 0.55 -0.55 0.85 -0.20 0.85 0.35 0 0.60 0.25 0.60 0.50 0 0.30 -0.45 0.50 -1 0.50 -0.55 0 -1 0.20 -1 0.45 0 0.25 -0.50 0.55 -1.10 0.65 -0.75 0.10 -1.20 0.55 -1.30 1.30 -0.20 1.35 0.70 1.45 1.05 0.10 0.35 -1.40 1.70 -1.25 2.05 0.25 0.20 0.70 0.55 1.25 0.85 1.25 0.25 0 1.10 -0.55 1.85 -1.25 2.10 -1.95 2.30 -1.45 0.40 1.05 -1.85 2.40 -1.85 3.20 -0.05 4.70 0.55 0.45 0.70 1.10 0.50 2.05 -0.20 0.85 0 2 0.45 2.90 1 1.90 1 2.05 -0.10 2.05 -0.55 0 -1.15 -0.65 -1.55 -1.75 -0.35 -0.95 -0.85 -1.65 -1.10 -1.50 -0.65 0.40 -0.55 2.75 0.10 2.75 0.30 0 0.40 0.40 0.20 0.95 -0.15 0.50 0.05 1.25 0.45 1.65 0.35 0.40 0.80 1.15 0.90 1.70 0.15 0.60 0.40 0.20 0.65 -1.15 0.20 -1.30 0.65 -2.15 1.05 -2.15 0.75 0 0.80 0.10 0.95 3.75 0.05 1.40 -0.15 2.80 -0.40 3.15 -0.30 0.35 -0.55 2.70 -0.60 5.25 -0.10 5.60 -0.50 7.15 -1.90 7.55 -1.65 0.45 -1.85 0.35 -1.85 -0.55 0 -0.75 -0.05 -0.75 -0.90 0 -0.75 0.65 -1.95 0.85 -5.65 0.85 l-4.75 0 -0.80 -2.60 c-0.60 -1.95 -0.65 -2.75 -0.25 -3 0.35 -0.25 0.40 -0.40 0.10 -0.40 -0.30 0 -0.80 -0.65 -1.10 -1.50 -0.70 -1.90 -2.20 -1.95 -3.05 -0.10 -0.55 1.15 -0.50 1.45 0.25 2.10 0.50 0.45 1.20 1.30 1.55 1.95 0.60 1 0.55 1.30 -0.45 2.35 -1.15 1.20 -2.45 1.60 -2.45 0.75z m16.20 -5.85 c0.15 -0.40 0.95 -0.70 1.80 -0.70 1.25 0 1.50 -0.20 1.50 -1.25 0 -1 -0.25 -1.25 -1.25 -1.25 -1.05 0 -1.25 -0.25 -1.25 -1.50 0 -1.40 -0.10 -1.50 -2 -1.50 -1.55 0 -2 -0.20 -2 -0.85 -0.05 -1.90 -2 1.55 -2 3.50 0 1.10 -0.25 1.90 -0.60 1.95 -0.35 0 0.35 0.20 1.60 0.35 1.80 0.25 2.30 0.50 2.40 1.40 0.15 1.20 1.30 1.10 1.80 -0.15z m-0.90 -11.30 c-0.15 -0.65 -0.30 -1.30 -0.30 -1.50 0 -0.25 -0.20 -0.40 -0.50 -0.40 -0.25 0 -0.50 0.70 -0.50 1.50 0 1.05 0.25 1.50 0.80 1.50 0.60 0 0.75 -0.30 0.50 -1.10z m-2.35 -2.90 c0.40 0 0.50 -0.35 0.25 -1.10 -0.35 -1.15 -1.60 -2.65 -1.90 -2.35 -0.60 0.65 -1.80 4.30 -1.80 5.40 l0.05 1.30 1.40 -1.60 c0.75 -0.90 1.65 -1.65 2 -1.65z m-3 -9.25 l0 -1 -0.45 1 c-0.25 0.55 -0.45 1.35 -0.45 1.75 -0.05 0.65 0 0.65 0.45 0 0.25 -0.40 0.45 -1.20 0.45 -1.75z"/>
 </g>
 <g fill="#483526">
  <path d="M14 38 c0 -2.05 1.05 -2.85 1.70 -1.20 0.65 1.70 0.35 3.20 -0.70 3.20 -0.85 0 -1 -0.35 -1 -2z"/>
  <path d="M21.50 39 c-0.85 -1.15 -1.75 -1.35 -1.30 -0.25 0.15 0.45 0 0.75 -0.50 0.75 -0.65 0 -0.75 -0.45 -0.60 -2 0.10 -1.10 0 -2 -0.20 -2 -0.25 0 -0.40 -0.80 -0.40 -1.75 0 -1.65 0.10 -1.75 1.70 -1.75 0.95 0 2.05 0.35 2.50 0.75 0.55 0.60 1.40 0.70 3.45 0.45 2.70 -0.30 2.70 -0.30 3.25 1.25 0.65 1.80 0.35 3.05 -0.70 3.05 -0.40 0 -0.70 0.50 -0.70 1.25 0 0.90 -0.25 1.25 -1 1.25 -0.65 0 -1 -0.35 -1 -1 0 -0.55 -0.20 -1 -0.50 -1 -0.25 0 -0.50 -0.20 -0.50 -0.50 0 -0.25 0.45 -0.50 0.95 -0.50 1 0 1.75 -1.25 1.25 -2.10 -0.25 -0.35 -0.55 -0.30 -0.90 0.15 -0.30 0.40 -1.25 1.30 -2.15 2.05 -1.20 1 -1.45 1.40 -0.90 1.60 1.05 0.40 0.95 1.30 -0.15 1.30 -0.50 0 -1.20 -0.45 -1.60 -1z m0.50 -1.70 c0 -0.40 -0.25 -0.90 -0.50 -1.05 -0.30 -0.20 -0.45 -0.70 -0.40 -1.10 0.10 -0.45 -0.10 -0.90 -0.40 -1 -0.55 -0.15 -0.50 1.40 0.05 3.25 0.30 0.85 1.25 0.75 1.25 -0.10z"/>
  <path d="M16.80 39.10 c-0.15 -0.25 -0.05 -1.10 0.20 -1.90 0.40 -1.45 0.40 -1.45 0.45 0.45 0.05 1.80 -0.15 2.25 -0.65 1.45z"/>
  <path d="M10 38.50 c0 -0.25 -0.30 -0.50 -0.70 -0.50 -0.40 0 -0.85 -0.35 -1 -0.80 -0.45 -1.20 -0.35 -1.45 0.30 -0.80 1.05 1.05 1.45 0.65 0.60 -0.65 -0.70 -1.10 -0.75 -1.25 -0.05 -1.25 0.45 0 1.25 0.70 1.85 1.50 0.95 1.35 1 1.60 0.30 2.25 -0.85 0.85 -1.30 0.95 -1.30 0.25z"/>
  <path d="M6.90 31.90 c-0.25 -1.50 1.95 -3.65 4.90 -4.90 1.20 -0.55 2.20 -1.20 2.20 -1.50 0 -0.25 0.30 -0.50 0.65 -0.50 0.80 0 2.60 -7.45 2.15 -8.85 -0.20 -0.60 0.05 -1.45 0.65 -2.25 0.55 -0.65 1.15 -1.85 1.30 -2.55 0.60 -2.20 1.15 -1.50 0.85 1.05 -0.25 2.65 -1.05 4.65 -1.10 2.75 0 -0.65 -0.20 -1.15 -0.50 -1.15 -0.25 0 -0.50 0.70 -0.50 1.50 0 1 0.25 1.50 0.75 1.50 0.95 0 0.95 0.70 0 3.80 -0.40 1.35 -0.75 2.50 -0.75 2.60 0 0.65 2.65 -3.15 3.25 -4.60 0.65 -1.50 0.65 -1.85 0.05 -2.45 -0.55 -0.50 -0.70 -1.70 -0.55 -4.30 0.15 -2.90 0 -3.65 -0.65 -4.05 -0.80 -0.45 -0.80 -0.55 0 -1 0.70 -0.45 0.75 -0.70 0.25 -1.20 -0.50 -0.55 -0.80 -0.30 -1.75 1.25 -1.25 2.10 -3.60 8.25 -3.60 9.40 0 0.55 0.20 0.45 0.75 -0.25 0.70 -0.90 0.70 -0.90 0.75 0.20 0 0.70 -0.85 2.05 -2.10 3.35 -2.05 2.15 -3.40 2.55 -2.40 0.75 0.40 -0.75 0.30 -0.85 -0.50 -0.65 -0.55 0.15 -1 0.45 -1 0.70 0 0.25 -0.25 0.45 -0.60 0.45 -0.35 0 0.35 -0.95 1.50 -2.15 2.25 -2.30 2.75 -3.60 1.10 -3.10 -0.90 0.30 -0.95 0.25 -0.25 -1.10 0.55 -1 0.55 -1.45 0.15 -1.75 -0.45 -0.25 -0.40 -0.60 0.20 -1.25 0.40 -0.50 1.25 -1.85 1.85 -3.05 0.60 -1.15 1.30 -2.10 1.55 -2.10 0.30 0 0.50 -0.30 0.50 -0.65 0 -1.10 3.35 -3.85 4.70 -3.85 1.85 0 2.05 0.85 0.30 1.25 -0.80 0.20 -1.65 0.55 -1.85 0.85 -0.20 0.40 0 0.45 0.65 0.15 0.50 -0.20 1.45 -0.50 2.10 -0.60 0.60 -0.15 1.10 -0.65 1.10 -1.10 0.05 -1.15 1.55 -2.95 1.85 -2.15 0.15 0.30 0.55 0.60 0.95 0.60 0.85 0 0.90 0.80 0.10 1.20 -0.50 0.25 -0.50 0.35 0 0.60 0.85 0.40 0.75 1.20 -0.15 1.20 -0.50 0 -0.75 0.50 -0.75 1.45 0 2.10 -0.90 4.20 -1.60 3.75 -0.35 -0.20 -0.40 -0.15 -0.20 0.20 0.65 1.10 1.80 0.65 1.80 -0.70 0 -1.10 0.15 -1.20 0.70 -0.75 0.55 0.50 0.85 0.40 1.25 -0.30 0.50 -0.85 0.50 -0.80 0.55 0.20 0 0.60 -0.20 1.25 -0.50 1.40 -0.80 0.50 -0.60 1.40 0.70 2.90 0.70 0.85 1.10 1.75 0.95 2.35 -0.15 0.55 0 1.65 0.25 2.50 0.45 1.25 0.40 1.50 -0.20 1.50 -0.40 0 -1.05 -0.70 -1.40 -1.55 -0.55 -1.30 -0.70 -1.40 -1.30 -0.75 -0.80 1 -1.25 1 -2.20 0 -0.75 -0.70 -0.80 -0.70 -0.80 0 0 0.45 0.35 0.80 0.75 0.80 0.40 0 1 0.45 1.35 1 0.35 0.55 0.95 1 1.30 1 0.45 0 0.55 0.35 0.35 0.95 -0.15 0.55 0.05 1.25 0.50 1.70 0.40 0.45 0.75 1.10 0.75 1.55 0 0.40 0.15 0.85 0.40 0.95 0.20 0.15 0.35 -0.55 0.35 -1.55 0 -1.40 0.25 -1.85 0.95 -2 0.90 -0.20 0.95 0.05 0.65 3.95 -0.40 5.05 -0.75 6.45 -1.65 6.45 -0.45 0 -0.70 -0.60 -0.70 -1.70 0 -0.95 -0.20 -1.90 -0.50 -2.05 -0.25 -0.15 -0.50 0.05 -0.50 0.45 0 0.45 -0.45 0.80 -1 0.80 -0.65 0 -1 -0.35 -1 -1 0 -0.85 -0.35 -1 -2.50 -1 -2.35 0 -2.50 0.10 -2.50 1.25 0 1.20 -0.15 1.25 -2.70 1.25 -2.80 0 -3.30 0.40 -3.30 2.55 0 1.15 -0.90 1.25 -1.30 0.20 -0.45 -1.10 -2.55 -0.95 -2.95 0.25 -0.45 1.45 -2.65 1.35 -2.85 -0.10z m6.60 -2.60 c0 -0.10 0.15 -0.55 0.30 -1 0.25 -0.70 0.15 -0.70 -1.25 0 -1.90 0.95 -1.95 1.20 -0.30 1.20 0.70 0 1.25 -0.10 1.25 -0.20z m7.05 -6.45 c-0.40 -0.40 -0.55 -0.35 -0.55 0.25 0 0.45 -0.45 0.90 -1 1.05 -0.60 0.15 -1 0.70 -1 1.40 0 1.05 0.10 1 1.55 -0.50 1.15 -1.20 1.40 -1.80 1 -2.20z m4.20 2.65 c0.15 -0.25 -0.15 -0.50 -0.70 -0.50 -0.60 0 -1.05 0.25 -1.05 0.50 0 0.30 0.30 0.50 0.70 0.50 0.40 0 0.90 -0.20 1.05 -0.50z m2 -2.35 c-0.20 -0.50 -0.50 -1.50 -0.65 -2.25 -0.10 -0.80 -0.45 -1.40 -0.70 -1.40 -0.25 0 -0.35 0.40 -0.20 0.90 0.15 0.45 0.40 1.45 0.60 2.25 0.15 0.75 0.55 1.35 0.80 1.35 0.30 0 0.35 -0.40 0.15 -0.85z"/>
 </g>
 <g fill="#6f380b">
  <path d="M14.30 39.20 c-0.15 -0.45 -0.30 -1.30 -0.30 -1.95 0 -0.65 -0.20 -1.30 -0.45 -1.45 -0.20 -0.15 -0.55 -1.30 -0.70 -2.55 -0.10 -1.25 -0.35 -2.40 -0.50 -2.55 -0.60 -0.60 -2.25 0.40 -2.80 1.65 -0.50 1.10 -0.45 1.45 0.45 2.40 0.55 0.60 1 1.30 1 1.60 0 0.30 0.25 0.65 0.50 0.75 0.80 0.25 -1.40 2.40 -2.40 2.35 -0.80 -0.05 -0.80 -0.10 0.05 -0.30 1.05 -0.25 1.15 -1.15 0.10 -1.15 -0.40 0 -0.75 -0.35 -0.75 -0.75 0 -0.45 0.30 -0.60 0.75 -0.45 0.65 0.25 0.60 0.05 -0.10 -1.25 -0.65 -1.10 -0.95 -1.30 -1.05 -0.75 -0.15 0.65 -0.40 0.60 -1.40 -0.35 -0.65 -0.60 -1.20 -1.40 -1.20 -1.75 0 -1 3.85 -4.65 5.80 -5.45 1 -0.40 2.35 -1.30 3 -1.95 1.35 -1.30 2.90 -6.75 2.55 -8.70 -0.30 -1.45 1.80 -5.05 2.40 -4.15 0.45 0.75 -0.65 7.70 -1.55 9.90 -0.45 0.95 -0.65 1.90 -0.50 2 0.15 0.15 0.50 -0.30 0.75 -1.05 0.30 -0.70 0.75 -1.30 0.95 -1.30 0.25 0 0.95 -1.05 1.50 -2.35 0.80 -1.85 0.85 -2.45 0.40 -2.95 -0.40 -0.40 -0.60 -1.90 -0.50 -4.45 0.10 -2.90 -0.05 -3.90 -0.60 -4.10 -1.05 -0.40 -0.85 -1 0.45 -1.40 0.95 -0.30 1 -0.40 0.20 -0.60 -1.55 -0.40 -0.75 -1.85 1.30 -2.35 1 -0.25 1.85 -0.75 1.85 -1.15 0 -1.05 1.70 -0.75 2.45 0.40 0.60 1 0.55 1.05 -0.30 0.85 -0.80 -0.20 -0.95 0 -1 1.30 -0.05 3.65 -0.10 3.95 -1.10 3.65 -0.70 -0.15 -0.90 -0.05 -0.70 0.45 0.15 0.40 0.70 0.70 1.20 0.70 0.70 0 0.95 -0.35 1 -1.35 0 -0.80 0.15 -1.10 0.30 -0.75 0.10 0.30 0.70 0.60 1.25 0.60 0.75 0 0.90 0.15 0.50 0.65 -0.55 0.65 -0.55 3.40 -0.05 3.05 0.65 -0.40 1.65 1.45 1.55 2.80 -0.10 0.75 0.30 2.25 0.85 3.30 0.75 1.35 1.05 2.85 1.05 5.05 0 1.75 -0.15 3.15 -0.40 3.15 -0.20 0 -0.45 2.30 -0.50 5.15 -0.20 7.60 -0.40 8.35 -2.20 8.35 -1.15 0 -1.45 -0.20 -1.20 -0.75 0.15 -0.45 -0.05 -0.90 -0.45 -1.05 -0.40 -0.20 -0.60 -0.50 -0.45 -0.75 0.15 -0.25 0.50 -0.35 0.75 -0.20 0.55 0.40 1.75 -2.10 1.25 -2.65 -0.20 -0.20 -0.70 0.10 -1.10 0.65 -0.65 0.85 -0.80 0.90 -1.25 0.25 -0.45 -0.65 -0.50 -0.60 -0.25 0.10 0.15 0.55 -0.20 1.20 -0.90 1.75 -1.05 0.85 -1.10 1 -0.35 1.65 0.70 0.65 0.70 0.75 -0.10 0.90 -0.75 0.15 -2.75 -1.25 -2.30 -1.60 0.10 -0.05 0.70 -0.50 1.35 -0.90 l1.15 -0.80 -1.30 -0.30 c-1 -0.25 -1.25 -0.55 -1 -1.25 0.15 -0.55 0 -1.05 -0.35 -1.20 -0.50 -0.15 -0.65 0.55 -0.60 2.95 l0.10 3.20 -1.40 0 c-1.95 0 -2.25 -0.70 -2.05 -4.70 0.10 -2.70 0 -3.35 -0.55 -3.20 -0.45 0.20 -0.65 1.25 -0.55 4.05 0.05 2.90 -0.10 3.85 -0.60 3.85 -0.35 0 -0.80 -0.35 -0.95 -0.80z m4.20 -3.95 c0 -0.95 -0.20 -1.75 -0.50 -1.75 -0.25 0 -0.50 0.80 -0.50 1.75 0 0.95 0.25 1.75 0.50 1.75 0.30 0 0.50 -0.80 0.50 -1.75z m6.80 -3.95 c0.50 -2.10 -0.20 -3.30 -1.90 -3.30 -0.85 0 -2 -0.35 -2.50 -0.85 -0.85 -0.75 -0.90 -0.70 -0.90 2 0 2.65 0.05 2.80 1.40 3 3.15 0.45 3.55 0.40 3.90 -0.85z m-11.35 -3.10 c0.45 -1 0.80 -1.20 1.70 -0.95 0.95 0.25 1 0.25 0.20 -0.25 -0.70 -0.45 -1.15 -0.35 -2.20 0.45 -0.70 0.60 -1.60 1.05 -1.95 1.05 -0.85 0 -0.90 0.85 -0.05 1.15 0.95 0.35 1.65 -0.10 2.30 -1.45z m14.05 0.10 c0 -0.35 -0.30 -0.95 -0.70 -1.25 -0.55 -0.45 -0.60 -0.30 -0.40 0.70 0.25 1.30 1.10 1.75 1.10 0.55z m-7.75 -4.10 c0.45 -0.20 0.75 -0.95 0.80 -1.90 0.05 -0.85 0.15 -1.15 0.30 -0.65 0.30 1.20 2.15 1.10 2.15 -0.15 0 -0.55 0.25 -1 0.50 -1 0.65 0 0.65 -1.85 -0.05 -2.25 -0.85 -0.55 -1.15 0.15 -0.45 1 0.50 0.60 0.50 0.75 -0.15 0.75 -0.40 0 -0.90 0.30 -1 0.65 -0.20 0.45 -0.35 0.45 -0.75 -0.05 -0.30 -0.45 -0.60 -0.30 -1 0.65 -0.35 0.70 -0.60 1.60 -0.60 1.95 0 0.40 -0.45 0.80 -1 0.95 -0.75 0.20 -1 0.65 -1 1.95 l0.05 1.65 0.70 -1.65 c0.40 -0.90 1.05 -1.75 1.50 -1.90z m4.30 1.05 c-0.05 -0.75 -1.20 -0.60 -1.45 0.15 -0.15 0.45 0.10 0.65 0.60 0.50 0.50 -0.05 0.85 -0.35 0.85 -0.65z m4.30 -2.75 c-0.10 -1.10 -0.30 -2.15 -0.50 -2.35 -0.20 -0.15 -0.35 -0.85 -0.35 -1.45 0 -0.65 -0.20 -1.25 -0.45 -1.40 -0.20 -0.15 -0.55 -1.20 -0.75 -2.30 -0.20 -1.20 -0.55 -1.90 -0.85 -1.75 -0.35 0.25 -0.30 0.55 0.10 1.05 0.30 0.35 0.45 1.05 0.25 1.45 -0.35 1 -2.30 1 -2.30 0 0 -0.40 -0.30 -0.75 -0.70 -0.75 -1.05 0 -0.70 1.70 0.45 2 0.65 0.20 1.05 0.80 1.15 1.75 0.20 2.65 1.10 5.25 1.80 5.25 0.45 0 0.60 -0.35 0.45 -1 -0.15 -0.55 0 -1 0.30 -1 0.30 0 0.55 0.40 0.55 0.90 0 0.85 0.40 1.60 0.85 1.60 0.10 0 0.10 -0.90 0 -2z"/>
  <path d="M11.35 21.65 c-0.20 -0.15 -0.10 -0.60 0.25 -1 0.90 -1.10 0.05 -1.35 -1.45 -0.40 -1.10 0.65 -1 0.45 0.55 -1.05 1.05 -1 2.15 -2.50 2.40 -3.30 0.65 -1.85 1.80 -1.85 1.60 0 -0.10 0.75 -0.05 1.05 0.10 0.75 0.40 -0.90 1.20 -0.80 1.20 0.10 0 0.45 -0.35 0.90 -0.75 1.05 -0.40 0.20 -0.75 0.55 -0.75 0.90 -0.05 0.80 -2.75 3.35 -3.15 2.95z"/>
  <path d="M12.50 13.20 c0 -0.40 -0.20 -0.60 -0.50 -0.45 -0.75 0.45 -0.60 -0.55 0.20 -1.20 0.40 -0.35 1.20 -1.65 1.80 -2.95 1.50 -3.15 5 -6.60 6.70 -6.60 1.75 0 1.65 0.60 -0.35 1.50 -0.85 0.40 -1.55 1.05 -1.45 1.40 0.15 0.90 -1.20 2.80 -1.60 2.15 -0.20 -0.25 -0.10 -0.60 0.20 -0.80 0.25 -0.15 0.50 -0.55 0.50 -0.90 0 -0.30 -0.55 0.25 -1.25 1.25 -1.35 1.95 -1.70 3.30 -0.50 1.70 1 -1.35 0.95 -0.25 -0.10 2.80 -0.70 1.90 -1.10 2.40 -1.75 2.20 -0.50 -0.10 -0.90 0 -0.90 0.25 0 0.25 -0.20 0.45 -0.50 0.45 -0.25 0 -0.50 -0.35 -0.50 -0.80z m2.60 -2.95 c0.45 -1 0.45 -1 -0.30 -0.05 -0.45 0.55 -0.80 1.35 -0.75 1.75 0 0.70 0.05 0.70 0.30 0.05 0.15 -0.40 0.50 -1.20 0.75 -1.75z"/>
 </g>
 <g fill="#bd5e03">
  <path d="M8.50 39.50 c0 -0.25 0.35 -0.50 0.75 -0.50 0.90 0 1.05 -2.80 0.20 -3.10 -0.30 -0.10 -0.70 -0.95 -0.95 -1.90 -0.35 -1.60 -0.45 -1.65 -0.75 -0.60 -0.45 1.35 -1.05 1.40 -1.70 0.20 -0.90 -1.70 2.55 -5.40 6.10 -6.55 1 -0.35 1.85 -0.95 1.85 -1.35 0 -0.40 0.30 -0.70 0.70 -0.70 0.40 0 0.85 -0.30 0.95 -0.60 0.15 -0.35 0.30 -0.15 0.30 0.45 0.05 0.60 0.45 1.20 1.05 1.40 1.20 0.40 1.35 2.50 0.20 2.95 -0.90 0.35 -0.50 1.30 0.60 1.30 0.50 0 0.70 -0.60 0.70 -2.15 0 -1.45 0.35 -2.60 0.95 -3.30 l1 -1.15 1.35 1.25 c1.40 1.30 3.20 1.30 3.20 0 0 -0.55 -0.35 -0.65 -1.25 -0.45 -0.85 0.20 -1.55 0.05 -2 -0.40 -1.05 -1.05 -0.95 -2.30 0.25 -2.30 0.55 0 1 0.20 1 0.45 0 0.20 0.55 0.30 1.25 0.15 1 -0.15 1.25 0 1.25 0.85 0 0.55 0.20 1.05 0.50 1.05 0.55 0 0.60 0.50 0.70 6.05 0 2.65 -0.20 4.10 -0.70 4.70 -0.65 0.80 -0.75 0.75 -1.20 -0.35 -0.45 -1.15 -0.50 -1.15 -0.65 -0.10 -0.20 1.20 -2.10 2 -2.40 1.05 -0.55 -1.95 -0.80 -2.35 -1.30 -2.35 -0.30 0 -0.50 0.80 -0.45 2.15 0.20 3.80 0.10 4.35 -1.05 4.35 -1.30 0 -2.40 -1.35 -2.10 -2.50 0.10 -0.45 0.80 -1.20 1.55 -1.65 0.75 -0.45 1.05 -0.85 0.75 -0.85 -0.35 0 -0.65 -0.35 -0.65 -0.75 0 -0.40 -0.35 -0.75 -0.75 -0.75 -0.40 0 -0.75 -0.45 -0.75 -0.95 0 -0.50 -0.35 -1.05 -0.75 -1.25 -0.85 -0.30 -0.90 0.10 -0.75 5.45 0.10 3.80 -0.45 4 -1.50 0.50 -1.40 -4.65 -1.45 -6.40 -0.40 -8.15 0.75 -1.20 1.30 -1.60 1.95 -1.45 1.15 0.30 1.30 -0.55 0.20 -1 -0.45 -0.15 -1.15 0.05 -1.65 0.50 -0.45 0.40 -1.35 0.90 -1.90 1.05 -0.60 0.20 -1.50 0.80 -2 1.35 -0.90 1 -0.90 1 0.45 0.50 0.85 -0.35 1.35 -0.35 1.35 -0.05 0 0.30 -0.20 0.50 -0.50 0.50 -0.75 0 -2.50 1.90 -2.50 2.75 0 0.40 0.40 1.10 0.95 1.60 1.45 1.40 1.70 2.85 0.60 4.05 -0.95 1.15 -2.05 1.45 -2.05 0.60z m13.50 -8.50 c0 -0.25 0.95 -0.50 2.15 -0.50 2.40 -0.05 1.75 -0.65 -1.25 -1.20 -1.10 -0.20 -1.90 -0.65 -2.05 -1.20 -0.15 -0.50 -0.25 -0.35 -0.30 0.50 0 0.70 -0.20 1.65 -0.35 2.10 -0.20 0.60 0 0.80 0.75 0.80 0.60 0 1.05 -0.20 1.05 -0.50z"/>
  <path d="M26.50 39.50 c0 -0.25 0.25 -0.50 0.55 -0.50 0.30 0 0.45 -0.50 0.40 -1.10 -0.10 -0.65 0 -1.40 0.15 -1.70 0.70 -1.10 0.45 -9.30 -0.35 -11.35 -0.35 -0.75 -0.20 -0.85 0.95 -0.55 1.05 0.25 1.25 0.15 1 -0.50 -0.20 -0.50 -0.05 -0.80 0.40 -0.80 0.45 0 0.70 0.60 0.70 1.80 0 1.65 -0.10 1.75 -1.25 1.45 l-1.30 -0.30 1.05 0.90 c1 0.85 1.05 1.15 0.65 6.40 -0.20 3.05 -0.40 5.80 -0.40 6.15 -0.05 0.70 -2.55 0.85 -2.55 0.10z"/>
  <path d="M17.80 24.15 c0.50 -0.90 1.20 -1.75 1.55 -1.85 1 -0.40 0.80 0 -0.90 1.80 l-1.60 1.65 0.95 -1.60z"/>
  <path d="M24.65 19.75 c0 -1.10 0.10 -1.50 0.20 -0.85 0.10 0.60 0.10 1.50 0 2 -0.15 0.45 -0.25 -0.05 -0.20 -1.15z"/>
  <path d="M11.80 20.25 c0.35 -0.90 0 -0.95 -1.45 -0.20 -1.10 0.55 -1.10 0.55 -0.10 -0.35 0.55 -0.55 1.30 -1.25 1.65 -1.65 0.50 -0.60 0.60 -0.40 0.60 1.10 0 1 -0.20 1.85 -0.50 1.85 -0.25 0 -0.35 -0.35 -0.20 -0.75z"/>
  <path d="M21 18.80 c0 -1.15 0.85 -1.40 1.70 -0.50 1.05 1.05 1 1.20 -0.45 1.20 -0.75 0 -1.25 -0.30 -1.25 -0.70z"/>
  <path d="M13.55 16.65 c-0.05 -0.90 0.20 -1.65 0.45 -1.65 0.60 0 0.60 0.85 0 2.25 -0.35 0.85 -0.45 0.75 -0.45 -0.60z"/>
  <path d="M16.80 16.20 c-0.35 -0.85 0.25 -2.20 1.40 -3.20 0.70 -0.55 0.80 -0.40 0.80 0.90 0 2 -0.45 3.10 -1.25 3.10 -0.35 0 -0.80 -0.35 -0.95 -0.80z"/>
  <path d="M20.75 16.50 c-0.20 -0.30 0.25 -0.50 1 -0.50 0.75 0 1.20 0.20 1 0.50 -0.15 0.30 -0.60 0.50 -1 0.50 -0.40 0 -0.85 -0.20 -1 -0.50z"/>
  <path d="M27.20 16.05 c0.50 -0.80 -0.90 -2.85 -1.80 -2.65 -0.65 0.10 -0.80 -0.05 -0.60 -0.60 0.25 -0.65 0.05 -0.75 -1.25 -0.50 -1 0.20 -1.55 0.15 -1.55 -0.25 0 -0.30 -0.35 -0.55 -0.75 -0.55 -0.50 0 -0.75 -0.50 -0.75 -1.45 0 -0.85 -0.20 -1.65 -0.50 -1.80 -0.75 -0.45 -0.60 -1.25 0.25 -1.25 0.40 0 0.75 -0.20 0.75 -0.50 0 -0.25 -0.35 -0.50 -0.75 -0.50 -1.40 0 0.15 -2 1.80 -2.35 0.80 -0.15 1.45 -0.50 1.45 -0.75 0 -0.70 2.15 -0.25 2.40 0.55 0.15 0.45 -0.05 0.55 -0.80 0.35 -0.95 -0.30 -1 -0.20 -0.60 1.20 0.40 1.40 0.35 1.50 -0.90 1.50 -1.05 0 -1.20 -0.15 -0.60 -0.50 0.40 -0.25 0.60 -0.55 0.45 -0.75 -0.15 -0.15 -0.70 0.20 -1.20 0.80 -0.80 0.85 -0.85 1.10 -0.25 1.45 0.40 0.25 0.70 1.20 0.70 2.20 0 1.75 0.50 2.40 0.95 1.20 0.15 -0.45 0.50 -0.40 1.30 0.30 0.55 0.55 1.05 0.70 1.05 0.40 0 -0.30 -0.20 -0.70 -0.50 -0.85 -0.25 -0.15 -0.50 -1.05 -0.50 -1.90 0 -1.20 0.15 -1.40 0.50 -0.85 0.40 0.60 0.60 0.55 1.50 -0.40 1.25 -1.30 2.45 -1.50 1.45 -0.20 -0.35 0.45 -1.10 1.35 -1.60 1.95 -0.85 0.95 -0.90 1.25 -0.35 1.90 0.35 0.40 0.45 0.75 0.20 0.80 -0.25 0 0.05 0.20 0.70 0.45 0.85 0.35 1.10 0.85 1.10 2.25 0 1.25 -0.20 1.75 -0.80 1.75 -0.40 0 -0.65 -0.20 -0.50 -0.45z"/>
  <path d="M11.70 14.90 c0.90 -1.30 1.05 -2.60 0.25 -2.15 -0.30 0.20 -0.25 -0.10 0.15 -0.70 0.90 -1.45 1.40 -1.30 1.40 0.35 0 1.45 -1.20 3.60 -2.05 3.60 -0.30 0 -0.15 -0.50 0.25 -1.10z"/>
  <path d="M17.50 4.05 c0 -0.65 3.05 -2 3.85 -1.70 0.40 0.15 -0.05 0.60 -1.20 1.20 -2.05 1.05 -2.65 1.15 -2.65 0.50z"/>
 </g>
 <g fill="#736359">
  <path d="M17.35 39.15 c-0.20 -0.15 -0.35 -1.05 -0.35 -2 0 -1.30 0.20 -1.65 1 -1.65 0.85 0 1 0.35 1 2 0 1.90 -0.70 2.60 -1.65 1.65z"/>
  <path d="M21.75 35.05 c-0.20 -0.70 -0.60 -1.45 -0.90 -1.65 -0.35 -0.20 0.10 -0.40 0.95 -0.40 1.20 0 1.65 0.25 1.90 1.15 0.40 1.60 0.40 1.70 -0.65 2 -0.75 0.15 -1.05 -0.10 -1.30 -1.10z"/>
  <path d="M9.15 35.40 c-0.30 -0.35 -0.65 -1.35 -0.80 -2.20 -0.20 -1.20 -0.05 -1.65 0.80 -2.25 1.65 -1.05 2.85 -1.45 2.85 -0.95 0 0.25 -0.55 0.60 -1.20 0.80 -0.70 0.15 -1.35 0.75 -1.50 1.45 -0.35 1.30 0.05 2.75 0.75 2.75 0.25 0 0.45 0.25 0.45 0.50 0 0.70 -0.80 0.60 -1.35 -0.10z"/>
  <path d="M6.35 32.90 c-0.40 -1.45 0.35 -2.70 2.15 -3.50 0.80 -0.35 1.50 -0.80 1.50 -1 0 -0.25 0.35 -0.40 0.75 -0.40 0.40 0 0.75 -0.20 0.75 -0.50 0 -0.25 0.45 -0.50 1 -0.50 0.50 0 1.20 -0.45 1.50 -1 0.60 -1.15 2 -1.35 2 -0.30 0 0.35 -0.40 0.85 -0.85 1 -3.65 1.35 -7.65 4.55 -7.65 6.10 0 1.50 -0.80 1.60 -1.15 0.10z"/>
  <path d="M28.65 30.15 c-0.95 -0.35 -0.85 -3.15 0.10 -3.15 0.45 0 0.90 0.30 1.05 0.65 0.35 1 -0.45 2.75 -1.15 2.50z"/>
  <path d="M14 28.80 c0 -0.90 0.80 -1.45 1.50 -1.05 0.30 0.20 0.25 0.60 -0.20 1.05 -0.90 0.90 -1.30 0.90 -1.30 0z"/>
  <path d="M18 23.80 c0 -0.15 0.70 -1.25 1.50 -2.45 0.85 -1.25 1.50 -2.50 1.50 -2.80 0 -0.90 1.85 -0.65 2.30 0.35 0.20 0.45 0.30 1 0.30 1.25 -0.05 0.20 0.10 0.35 0.35 0.35 0.25 0 0.60 -0.60 0.70 -1.35 0.15 -1.15 0.20 -1.05 0.30 0.50 0.05 1.65 -0.10 1.85 -1.15 1.85 -0.80 0 -1.35 0.35 -1.55 1 -0.55 1.80 -1.40 1.15 -1.10 -0.85 l0.35 -1.90 -1.30 2.15 c-1.05 1.75 -2.20 2.75 -2.20 1.90z"/>
  <path d="M16 22.85 c0 -0.35 0.30 -1.80 0.65 -3.20 0.45 -1.65 0.50 -2.85 0.20 -3.40 -0.35 -0.65 -0.20 -0.90 0.60 -1.10 0.70 -0.15 1.05 -0.65 1.05 -1.45 0 -0.65 0.25 -1.20 0.50 -1.20 0.35 0 0.45 0.65 0.30 1.65 -0.15 0.85 -0.40 2.50 -0.55 3.60 -0.55 3.40 -1.40 5.75 -2.10 5.75 -0.35 0 -0.65 -0.30 -0.65 -0.65z"/>
  <path d="M11.55 20.65 c0.55 -0.65 0.55 -0.85 0.05 -1 -0.45 -0.20 -0.35 -0.60 0.35 -1.55 0.50 -0.75 1.10 -1.90 1.30 -2.60 l0.40 -1.25 -1.15 1 -1.15 1 0.40 -1 c0.20 -0.55 0.45 -1.60 0.50 -2.35 0.10 -0.75 1.15 -3 2.35 -5 1.65 -2.75 2.45 -3.70 3.40 -3.80 1.15 -0.15 1.15 -0.10 0.40 0.50 -1.05 0.80 -4.40 6.35 -4.40 7.30 0 0.40 0.70 -0.60 1.55 -2.20 1.60 -3.05 2.95 -4.85 3.35 -4.50 0.10 0.15 -0.20 0.85 -0.75 1.65 -1.10 1.65 -2.25 4.35 -3.45 8.15 -0.45 1.50 -1.05 3.05 -1.35 3.40 -0.35 0.45 -0.30 0.55 0.35 0.30 1.15 -0.45 1 0.05 -0.45 1.55 -1.45 1.40 -2.80 1.75 -1.70 0.40z"/>
  <path d="M28.65 20.40 c-1.20 -2.60 -1.65 -4 -1.40 -4.40 0.15 -0.20 -0.05 -1 -0.45 -1.75 -0.45 -0.90 -0.80 -1.15 -1.05 -0.75 -0.20 0.35 -0.10 0.80 0.25 1 0.90 0.55 0.25 2 -0.95 2 -0.50 0 -1.10 -0.40 -1.30 -0.85 -0.30 -0.80 -0.40 -0.80 -0.80 0.20 -0.35 0.95 -0.60 1.05 -1.55 0.70 -1.10 -0.40 -1.20 -0.75 -0.95 -3.90 0.05 -0.35 0.55 -0.65 1.20 -0.65 0.65 0 1.40 -0.25 1.70 -0.55 0.45 -0.45 1.15 -0.30 2.75 0.45 1.85 0.95 2.15 1.30 2.25 2.80 0.05 0.95 0.45 2.40 0.85 3.25 0.85 1.60 1.05 3.55 0.40 3.55 -0.25 0 -0.65 -0.50 -0.95 -1.10z m-3.75 -7.80 c0.30 -0.90 -0.75 -0.70 -1.10 0.20 -0.20 0.50 -0.05 0.70 0.30 0.60 0.30 -0.10 0.70 -0.50 0.80 -0.80z"/>
  <path d="M25.35 10.70 c-0.20 -0.20 -0.35 -1.05 -0.35 -1.90 0 -1.10 0.15 -1.35 0.45 -0.85 0.25 0.35 0.70 0.50 1 0.35 0.70 -0.45 0.65 0.15 -0.10 1.60 -0.35 0.60 -0.80 0.95 -1 0.80z"/>
  <path d="M23.30 8.55 c-0.20 -0.30 -0.90 -0.55 -1.55 -0.55 -0.65 0 -1.35 -0.20 -1.50 -0.50 -0.15 -0.25 -0.05 -0.50 0.20 -0.50 0.30 0 0.55 -0.20 0.55 -0.50 0 -0.25 -0.40 -0.50 -0.85 -0.50 -0.70 0 -0.60 -0.20 0.35 -1.25 0.65 -0.70 1.60 -1.25 2.10 -1.25 0.60 0 0.90 -0.35 0.90 -1.10 0 -1.65 0.75 -2.75 1.15 -1.70 0.20 0.45 0.65 0.65 1.10 0.50 0.40 -0.15 0.75 -0.10 0.75 0.20 0 0.30 -0.30 0.60 -0.60 0.75 -0.50 0.15 -0.45 0.40 0.10 1.10 0.70 0.85 0.65 0.90 -0.70 0.55 -1.30 -0.35 -1.40 -0.25 -1.05 0.80 0.20 0.65 0.35 1.70 0.35 2.35 0 1.40 -0.85 2.40 -1.30 1.60z"/>
  <path d="M20.15 2.85 c0.25 -0.75 1.85 -1.10 1.85 -0.45 0 0.25 -0.45 0.60 -1.05 0.75 -0.65 0.15 -0.95 0.05 -0.80 -0.30z"/>
 </g>
 <g fill="#a06f38">
  <path d="M9.60 36 c-0.50 -0.85 -0.50 -1 0.15 -1 0.40 0 0.75 0.45 0.75 1 0 0.55 -0.05 1 -0.15 1 -0.05 0 -0.40 -0.45 -0.75 -1z"/>
  <path d="M6.10 33.45 c-0.50 -0.80 -0.45 -0.95 0.15 -0.95 0.40 0 0.75 -0.35 0.75 -0.75 0 -0.40 0.25 -0.75 0.50 -0.75 0.30 0 0.50 -0.30 0.50 -0.70 0 -0.95 2.30 -2.75 3.95 -3.15 2.15 -0.50 3.55 -2.50 4.55 -6.60 0.55 -2.05 0.75 -4 0.55 -4.20 -0.25 -0.25 -0.10 -1.10 0.30 -1.90 1.20 -2.45 2.45 -2.65 1.90 -0.30 -0.20 0.70 -0.70 1.40 -1.15 1.50 -0.70 0.20 -0.70 0.25 0.05 0.30 0.80 0.05 0.90 0.35 0.60 2.15 -0.20 1.15 -0.80 3.35 -1.35 4.85 -0.85 2.50 -0.85 2.85 -0.15 3.35 0.80 0.60 1.05 2.70 0.35 2.70 -0.25 0 -0.70 -0.55 -1 -1.25 -0.60 -1.30 -1.75 -1.60 -2.75 -0.70 -0.35 0.25 -1.40 1 -2.35 1.55 -1.55 0.95 -1.65 1.10 -0.80 1.40 0.95 0.30 0.95 0.35 -0.05 0.60 -0.65 0.20 -1.20 0.95 -1.55 2.20 -0.40 1.55 -0.50 1.65 -0.55 0.70 -0.05 -0.70 0.30 -1.80 0.75 -2.40 0.40 -0.60 0.55 -1.10 0.30 -1.10 -0.80 0 -2.10 1.80 -2.10 2.90 0 1.45 -0.70 1.75 -1.40 0.55z"/>
  <path d="M28.70 31.50 c0.15 -0.85 0.05 -1.50 -0.20 -1.50 -0.30 0 -0.50 -0.70 -0.50 -1.55 0 -1.20 0.20 -1.50 0.90 -1.35 0.50 0.10 0.80 0.60 0.75 1.15 -0.05 0.55 -0.15 1.85 -0.20 2.90 -0.05 1 -0.35 1.85 -0.60 1.85 -0.25 0 -0.35 -0.65 -0.15 -1.50z"/>
  <path d="M14.65 28.75 c-0.45 -0.45 -0.45 -0.80 -0.10 -1 0.55 -0.35 1.95 0.60 1.95 1.30 0 0.70 -1.20 0.50 -1.85 -0.30z"/>
  <path d="M19.05 27.25 c-0.05 -1.55 0.70 -2.75 1.70 -2.75 0.25 0 0.15 0.30 -0.35 0.65 -0.45 0.35 -0.90 1.30 -1.05 2.10 l-0.20 1.50 -0.10 -1.50z"/>
  <path d="M28.30 25.70 c-1.05 -1 -1 -1.30 0.10 -1.10 0.55 0.10 0.80 -0.15 0.70 -0.70 -0.10 -0.50 0.15 -0.90 0.55 -0.90 0.40 0 0.65 0.60 0.65 1.75 0 1.90 -0.75 2.25 -2 0.95z"/>
  <path d="M17.45 24.60 c0.30 -0.60 1.25 -2.10 2.05 -3.30 0.85 -1.20 1.50 -2.45 1.50 -2.75 0 -1.15 2 -0.55 2.30 0.70 0.35 1.35 1 1.65 1.30 0.65 0.15 -0.35 0.40 0.30 0.60 1.50 0.15 1.20 0.20 2.35 0.05 2.65 -0.50 0.75 -2.75 0.55 -2.75 -0.30 0 -0.40 -0.35 -0.75 -0.75 -0.75 -0.85 0 -1 -1.15 -0.25 -2.55 0.30 -0.50 0.35 -0.95 0.15 -0.95 -0.25 0 -0.85 0.85 -1.40 1.90 -0.55 1 -1.50 2.40 -2.20 3.10 -1.15 1.20 -1.15 1.20 -0.60 0.10z"/>
  <path d="M28.85 21.15 c-0.10 -0.50 -0.40 -1.30 -0.60 -1.75 -0.25 -0.65 -0.10 -0.90 0.45 -0.90 0.85 0 1.80 1.45 1.80 2.70 0 1.10 -1.30 1 -1.65 -0.05z"/>
  <path d="M11.50 21.05 c0 -0.55 2.55 -2.65 2.85 -2.35 0.20 0.20 -2.20 2.80 -2.60 2.80 -0.15 0 -0.25 -0.20 -0.25 -0.45z"/>
  <path d="M11.50 19.25 c0 -0.55 2.60 -4.35 2.80 -4.10 0.55 0.55 -0.50 2.85 -1.60 3.60 -0.65 0.40 -1.20 0.65 -1.20 0.50z"/>
  <path d="M20.50 16.25 c-0.45 -0.55 -0.50 -0.95 -0.15 -1.30 0.80 -0.80 2.75 -0.05 2.55 0.95 -0.20 1.15 -1.60 1.30 -2.40 0.35z"/>
  <path d="M24 15.70 c0 -0.80 -2.70 -2.30 -3.25 -1.80 -0.20 0.20 -0.30 -0.75 -0.20 -2.15 0.05 -1.35 -0.05 -2.95 -0.30 -3.45 -0.30 -0.65 -0.25 -1.05 0.15 -1.20 0.90 -0.30 0.70 -1.10 -0.25 -1.10 -0.70 -0.05 -0.60 -0.30 0.50 -1.25 2 -1.80 3.25 -1.65 3.60 0.45 0.45 2.25 0.15 3.55 -0.75 3.50 -0.50 -0.05 -0.75 0.45 -0.80 1.35 -0.05 1.30 0.10 1.40 1.20 1.10 1.20 -0.30 1.20 -0.30 0.35 1.05 -0.50 0.70 -0.65 1.30 -0.35 1.30 0.30 0 0.75 -0.35 1 -0.80 0.25 -0.50 0.75 -0.70 1.05 -0.50 0.45 0.30 0.45 0.55 0 1.10 -0.45 0.55 -0.45 0.90 -0.05 1.30 0.90 0.90 0.75 1.25 -0.65 1.50 -0.85 0.20 -1.25 0.05 -1.25 -0.40z"/>
  <path d="M26.70 13.95 c-0.50 -0.85 0.65 -1.80 1.35 -1.10 0.60 0.60 0.20 1.65 -0.55 1.65 -0.25 0 -0.60 -0.25 -0.80 -0.55z"/>
  <path d="M12.35 13.15 c-0.10 -0.50 0.20 -1.55 0.70 -2.40 0.45 -0.80 1.40 -2.50 2.10 -3.75 1.25 -2.30 3.60 -4.45 4.15 -3.85 0.15 0.15 -0.45 1.05 -1.40 2 -1.75 1.75 -4.40 6.55 -4.40 8 0 1.10 -0.85 1.10 -1.15 0z"/>
  <path d="M16.05 8.80 c2.15 -4 3.35 -4.55 1.35 -0.70 -0.90 1.85 -1.90 3.35 -2.25 3.35 -0.30 0.05 0.10 -1.15 0.90 -2.65z"/>
  <path d="M25.25 10 c-0.30 -0.50 0.15 -1.05 3.15 -3.70 1.80 -1.55 1.20 -0.20 -0.90 2.10 -1.15 1.30 -2.05 1.90 -2.25 1.60z"/>
  <path d="M23.85 3.15 c-0.65 -0.60 -0.35 -1.15 0.55 -1.15 0.50 0 0.95 0.35 0.95 0.75 0 0.75 -0.90 1 -1.50 0.40z"/>
 </g>
 <g fill="#f8820a">
  <path d="M14.50 38.80 c0 -0.65 -0.35 -2.15 -0.75 -3.30 -0.40 -1.15 -0.75 -2.75 -0.75 -3.50 0 -1.40 1.30 -4.50 1.95 -4.50 0.65 0 1.55 1.20 1.55 2.10 0 0.50 0.25 0.90 0.60 0.90 0.30 0 0.40 0.15 0.25 0.30 -0.20 0.20 -0.65 0.10 -1 -0.20 -1.15 -1 -1.35 -0.10 -1.05 4.75 0.25 3.35 0.20 4.65 -0.25 4.65 -0.30 0 -0.55 -0.55 -0.55 -1.20z"/>
  <path d="M17.40 39.40 c-0.10 -0.35 -0.25 -2.10 -0.35 -3.80 -0.10 -2.35 0.10 -3.45 0.70 -4.10 0.40 -0.45 0.90 -2 1.10 -3.45 0.35 -3.15 1.25 -4.05 2.65 -2.80 0.55 0.50 1 1.20 1 1.55 0 0.85 1.55 1.15 2.60 0.50 1.30 -0.80 1.65 0 1.60 3.50 -0.05 2.30 -0.30 3.50 -0.85 4.10 -0.80 0.75 -0.85 0.70 -0.85 -0.50 0 -0.70 -0.30 -1.55 -0.70 -1.85 -0.60 -0.50 -0.65 -0.30 -0.45 1.45 0.25 1.75 0.15 2 -0.75 2 -0.65 0 -1.10 -0.45 -1.30 -1.20 -0.15 -0.65 -0.65 -1.30 -1.05 -1.50 -0.75 -0.25 -0.90 0.80 -0.95 5.60 0 0.80 -0.30 1.10 -1.10 1.10 -0.60 0 -1.20 -0.30 -1.30 -0.60z"/>
  <path d="M27.70 39.15 c0.10 -0.50 0.40 -2.55 0.55 -4.60 0.30 -2.90 0.50 -3.50 0.85 -2.80 0.50 0.85 0.25 5.75 -0.40 7.40 -0.40 1.15 -1.35 1.10 -1 0z"/>
  <path d="M10.20 38.20 c0.20 -0.65 -0.05 -1.50 -0.70 -2.35 -0.55 -0.70 -1 -1.65 -0.95 -2.20 0 -0.75 0.10 -0.70 0.45 0.25 0.25 0.60 0.65 1.10 0.90 1.10 0.25 0 0.70 0.60 1.05 1.35 0.50 1.10 0.45 1.45 -0.25 2.10 -0.75 0.75 -0.80 0.70 -0.50 -0.25z"/>
  <path d="M6.10 33.35 c-0.45 -0.50 -0.35 -1 0.25 -1.90 1 -1.35 2.70 -2.90 3.30 -2.95 0.25 0 0.75 -0.35 1.15 -0.75 0.45 -0.40 1.35 -0.75 2.10 -0.75 1.25 0.05 1.20 0.10 -0.65 1.05 -2.70 1.35 -4.75 3.40 -4.75 4.80 0 1.30 -0.60 1.50 -1.40 0.50z"/>
  <path d="M28.65 30.15 c-0.35 -0.15 -0.65 -0.90 -0.65 -1.70 0 -1.05 0.25 -1.45 0.90 -1.45 0.70 0 0.70 0.10 0.15 0.45 -0.60 0.40 -0.60 0.50 0.05 0.60 0.45 0.15 0.60 0.55 0.45 1.25 -0.15 0.55 -0.60 0.95 -0.90 0.85z"/>
  <path d="M16.80 27.75 c-0.25 -0.90 -0.65 -1.25 -1.55 -1.25 -1.35 0 -1.70 -0.85 -0.50 -1.30 0.40 -0.20 0.75 -0.60 0.75 -1 0 -0.40 0.25 -0.70 0.50 -0.70 0.30 0 0.50 0.55 0.50 1.20 0 0.70 0.35 1.55 0.75 2 0.80 0.80 1 2.30 0.30 2.30 -0.25 0 -0.60 -0.55 -0.75 -1.25z"/>
  <path d="M28.90 26.15 c-0.45 -0.10 -0.95 -0.55 -1.10 -0.95 -0.25 -0.60 -0.05 -0.70 0.75 -0.45 0.90 0.30 1 0.20 0.70 -0.70 -0.20 -0.60 -0.10 -1.05 0.20 -1.05 0.30 0 0.55 0.80 0.55 1.75 0 0.95 -0.05 1.70 -0.10 1.70 -0.10 -0.05 -0.50 -0.15 -1 -0.30z"/>
  <path d="M21.60 23.90 c-0.35 -0.35 -0.60 -1 -0.60 -1.50 0 -1.05 1.50 -1.20 2.40 -0.30 0.35 0.35 0.60 1 0.60 1.50 0 1.05 -1.50 1.20 -2.40 0.30z"/>
  <path d="M20.70 16.30 c-0.75 -0.55 -0.80 -0.85 -0.35 -1.35 0.80 -0.80 2.15 -0.20 2.15 1.05 0 1.20 -0.45 1.25 -1.80 0.30z"/>
  <path d="M11.50 15.70 c0 -0.75 1.35 -2.50 1.70 -2.15 0.20 0.15 -0.10 0.85 -0.65 1.50 -0.55 0.65 -1 0.95 -1.05 0.65z"/>
  <path d="M27 14.50 c-0.65 -1.20 -0.25 -2.05 0.70 -1.70 0.70 0.25 0.85 2.70 0.20 2.70 -0.20 0 -0.60 -0.45 -0.90 -1z"/>
  <path d="M20.65 10.25 c0.05 -1.30 0.35 -1.75 1 -1.75 0.70 0 0.85 0.35 0.75 1.75 -0.05 1.30 -0.35 1.75 -1 1.75 -0.70 0 -0.85 -0.35 -0.75 -1.75z"/>
  <path d="M23.30 5.75 c0.35 -0.85 -0.55 -1.05 -1.05 -0.25 -0.15 0.30 -0.90 0.50 -1.65 0.50 l-1.35 -0.05 1.40 -1.20 c1.70 -1.50 2.65 -1.60 3.35 -0.30 0.70 1.35 0.65 2.05 -0.25 2.05 -0.45 0 -0.60 -0.30 -0.45 -0.75z"/>
  <path d="M19.50 3 c0 -0.25 0.60 -0.50 1.40 -0.45 1.20 0 1.25 0.05 0.35 0.45 -1.35 0.60 -1.75 0.60 -1.75 0z"/>
 </g>
 <g fill="#ab9480">
  <path d="M17.80 38.20 c-0.50 -1.35 -0.35 -2.20 0.45 -2.20 0.50 0 0.75 0.50 0.75 1.50 0 1.60 -0.70 2 -1.20 0.70z"/>
  <path d="M9.35 35.60 c-0.50 -0.50 -0.85 -1.35 -0.80 -1.90 0 -0.70 0.10 -0.75 0.30 -0.20 0.15 0.40 0.60 1.15 1.05 1.65 1.05 1.15 0.50 1.60 -0.55 0.45z"/>
  <path d="M21.95 35.50 c0 -0.40 -0.10 -1.25 -0.15 -1.85 -0.15 -1.45 1 -1.50 1.45 -0.10 0.25 0.70 0.05 1.35 -0.45 1.85 -0.65 0.70 -0.80 0.70 -0.85 0.10z"/>
  <path d="M13.25 33 c-0.35 -1.60 -0.05 -2.50 0.90 -2.50 0.40 0 0.60 0.55 0.55 1.40 -0.05 0.75 -0.15 1.65 -0.15 2 -0.10 1.20 -0.95 0.60 -1.30 -0.90z"/>
  <path d="M6.55 31.15 c1.30 -1.65 5.45 -4.50 5.45 -3.75 0 0.45 -5.25 4.60 -5.85 4.60 -0.15 0 0.05 -0.40 0.40 -0.85z"/>
  <path d="M28.35 29.65 c-0.65 -0.60 -0.35 -2.65 0.35 -2.65 0.85 0 1.25 0.90 0.90 2.15 -0.25 0.90 -0.70 1.10 -1.25 0.50z"/>
  <path d="M16.70 27.25 c-0.20 -0.40 -0.75 -0.75 -1.25 -0.75 -1.10 0 -1.15 -0.40 -0.25 -1.60 0.90 -1.20 1.95 -1.15 1.55 0.05 -0.15 0.55 0.05 1.25 0.50 1.70 0.90 0.90 0.95 1.35 0.25 1.35 -0.30 0 -0.65 -0.35 -0.80 -0.75z"/>
  <path d="M28.85 25.20 c0.40 -0.20 0.50 -0.80 0.30 -1.75 -0.20 -1.10 -0.10 -1.45 0.55 -1.45 0.85 0 0.95 0.55 0.50 2.40 -0.20 0.60 -0.70 1.10 -1.15 1.05 -0.45 0 -0.55 -0.15 -0.20 -0.25z"/>
  <path d="M21 22.55 c0 -0.25 0.20 -1.05 0.50 -1.75 0.30 -0.85 0.30 -1.30 0 -1.30 -0.30 0 -0.50 0.20 -0.50 0.40 0 0.25 -0.35 0.85 -0.75 1.40 -0.55 0.70 -0.50 0.40 0.15 -1.15 1.10 -2.70 2.30 -2.80 3.10 -0.35 0.45 1.35 0.75 1.65 1.05 1.15 0.35 -0.55 0.45 -0.50 0.45 0.20 0 0.60 -0.40 0.85 -1.50 0.85 -0.80 0 -1.50 0.25 -1.50 0.50 0 0.30 -0.20 0.50 -0.50 0.50 -0.25 0 -0.50 -0.20 -0.50 -0.45z"/>
  <path d="M11.50 21.10 c0 -0.25 0.35 -0.75 0.75 -1.10 0.40 -0.35 0.75 -0.40 0.75 -0.10 0 0.25 -0.35 0.75 -0.75 1.10 -0.40 0.35 -0.75 0.40 -0.75 0.10z"/>
  <path d="M28.30 19.30 c-0.45 -0.95 -0.80 -2.20 -0.80 -2.80 0 -0.60 -0.25 -1.55 -0.55 -2.10 -0.40 -0.70 -0.40 -1.15 0 -1.55 0.55 -0.55 0.85 -0.05 1.25 2.20 0.10 0.75 0.55 2 1 2.85 0.90 1.70 1.05 3.10 0.35 3.10 -0.25 0 -0.80 -0.75 -1.25 -1.70z"/>
  <path d="M11.70 18.55 c0.45 -0.50 1.35 -2.35 1.95 -4.10 1.20 -3.40 4.30 -9.15 4.70 -8.75 0.15 0.10 -0.30 1.20 -1 2.40 -0.70 1.20 -1.70 3.80 -2.30 5.75 -0.60 2 -1.55 4.10 -2.15 4.65 -1.40 1.25 -2.35 1.30 -1.20 0.05z"/>
  <path d="M17.15 16.60 c-0.35 -0.60 -0.40 -1.20 -0.05 -1.75 0.75 -1.40 1.40 -0.95 1.40 0.90 0 1.95 -0.45 2.25 -1.35 0.85z"/>
  <path d="M20.80 16.25 c-0.75 -0.55 -0.85 -0.90 -0.45 -1.30 0.80 -0.80 2.15 -0.15 2.15 1.05 0 1.20 -0.40 1.25 -1.70 0.25z"/>
  <path d="M24 15.85 c0 -0.95 -2.35 -2.50 -3.10 -2.05 -0.40 0.25 -0.45 -0.35 -0.25 -2.20 0.15 -1.45 0.10 -2.70 -0.20 -2.85 -0.75 -0.50 -0.50 -1.65 0.45 -1.90 0.70 -0.15 0.65 -0.30 -0.35 -0.70 l-1.20 -0.50 1.60 -1.10 c0.95 -0.70 1.90 -1 2.45 -0.80 0.75 0.25 0.70 0.45 -0.40 1.25 -0.70 0.50 -1.05 1.10 -0.85 1.35 0.25 0.20 0.70 0 1.05 -0.50 0.90 -1.20 1.30 -1.05 1.30 0.55 0 1.65 -0.75 2.95 -1.20 2.15 -0.20 -0.30 -0.55 -0.55 -0.85 -0.55 -0.25 0 -0.20 0.45 0.15 0.95 0.45 0.75 0.45 1.15 -0.05 1.75 -0.60 0.70 -0.55 0.80 0.30 0.80 0.70 0 0.95 0.35 0.90 1.35 0 1 0.30 1.40 1.25 1.65 1.55 0.35 1.65 1.70 0.15 1.90 -0.75 0.10 -1.15 -0.10 -1.15 -0.55z"/>
  <path d="M12.30 13.40 c0.20 -1.20 0.65 -2.60 1 -3.15 0.35 -0.55 1.20 -2 1.85 -3.25 1.25 -2.35 5.30 -5.40 6.35 -4.75 0.35 0.20 -0.30 0.75 -1.55 1.40 -2.45 1.20 -5.50 5.55 -6.40 9.05 -0.75 3.05 -1.70 3.55 -1.25 0.70z"/>
  <path d="M24.60 13 c0.70 -1.10 1.20 -1.25 1.65 -0.55 0.15 0.30 -0.15 0.75 -0.70 1 -1.45 0.80 -1.65 0.70 -0.95 -0.45z"/>
  <path d="M25.25 10 c-0.30 -0.50 0.60 -1.55 2.90 -3.45 1.35 -1.05 1 -0.30 -0.85 1.90 -1 1.20 -1.85 1.85 -2.05 1.55z"/>
  <path d="M23.75 2.95 c-0.20 -0.25 -0.20 -1.10 0 -1.80 0.30 -1.20 0.35 -1.20 0.95 -0.40 0.40 0.60 0.90 0.75 1.35 0.50 0.40 -0.25 0.35 0 -0.20 0.60 -0.45 0.55 -0.70 1.15 -0.50 1.30 0.15 0.20 -0.05 0.35 -0.50 0.35 -0.45 0 -0.95 -0.25 -1.10 -0.55z"/>
 </g>
 <g fill="#fda03b">
  <path d="M17.75 37.65 c-0.90 -3.65 -0.75 -5.05 0.75 -6.65 1.20 -1.30 1.50 -2.05 1.50 -3.80 0 -2.85 0.80 -2.85 1.15 0 0.20 1.20 0.85 3.40 1.50 4.90 1.20 2.65 1.20 2.75 0.30 3.30 -0.85 0.55 -0.95 0.45 -0.95 -0.75 0 -1.65 -0.45 -2.35 -1.60 -2.80 -1.25 -0.45 -1.55 0.40 -1.45 4 0.10 3.20 -0.55 4.25 -1.20 1.80z"/>
  <path d="M9.55 35.70 c-1.50 -1.95 -1.30 -2.55 0.25 -0.70 0.75 0.85 1.20 1.65 1.05 1.80 -0.10 0.15 -0.70 -0.35 -1.30 -1.10z"/>
  <path d="M14.25 36.40 c-0.95 -2.70 -1.15 -5.20 -0.50 -6.75 0.95 -2.30 1.75 -2.15 1.20 0.25 -0.20 1.05 -0.30 3.05 -0.20 4.50 0.20 2.45 0 3.35 -0.50 2z"/>
  <path d="M25 32.65 c0 -1.10 0.10 -1.25 0.50 -0.65 0.65 1 0.65 2 0 2 -0.25 0 -0.50 -0.60 -0.50 -1.35z"/>
  <path d="M7.50 30.55 c0 -0.65 2.95 -3.05 3.80 -3.05 1.10 0 0.85 0.35 -1.55 2 -1.25 0.85 -2.25 1.35 -2.25 1.05z"/>
  <path d="M28.60 29.90 c-0.85 -0.85 -0.75 -2.90 0.15 -2.90 0.50 0 0.75 0.55 0.75 1.75 0 1.95 -0.05 2 -0.90 1.15z"/>
  <path d="M14.50 26.15 c0.05 -0.70 1.50 -2.35 1.80 -2.05 0.50 0.55 -0.35 2.40 -1.10 2.40 -0.40 0 -0.70 -0.15 -0.70 -0.35z"/>
  <path d="M29 26 c-0.65 -0.40 -0.65 -0.55 -0.05 -0.95 0.35 -0.25 0.50 -0.70 0.35 -1 -0.20 -0.30 -0.10 -0.55 0.15 -0.55 0.30 0 0.55 0.70 0.55 1.50 0 1.70 0 1.65 -1 1z"/>
  <path d="M21.75 23.50 c-0.90 -1 -0.90 -1 0.95 -1 1.50 0 1.85 0.15 1.70 0.85 -0.25 1.25 -1.55 1.35 -2.65 0.15z"/>
  <path d="M21.80 20.25 c0.20 -0.75 0.10 -1.25 -0.25 -1.25 -0.30 0 -0.55 -0.20 -0.55 -0.50 0 -0.25 0.50 -0.50 1.05 -0.50 0.85 0 1 0.25 0.85 1.25 -0.20 0.85 -0.05 1.25 0.40 1.25 0.40 0 0.70 0.25 0.70 0.50 0 0.30 -0.55 0.50 -1.25 0.50 -1.10 0 -1.25 -0.15 -0.95 -1.25z"/>
  <path d="M13.05 16.65 c0 -0.20 0.20 -0.85 0.45 -1.40 0.40 -0.95 0.45 -0.95 0.45 0.10 0.05 0.60 -0.15 1.25 -0.45 1.40 -0.25 0.15 -0.50 0.15 -0.45 -0.10z"/>
  <path d="M17.90 16.60 c-1.10 -0.20 -1.15 -1.55 -0.20 -2.90 0.95 -1.25 1.40 -0.70 1.20 1.40 -0.10 1.30 -0.35 1.65 -1 1.50z"/>
  <path d="M20.65 16.15 c-1 -0.40 -0.75 -1.15 0.35 -1.15 0.55 0 1 0.35 1 0.75 0 0.75 -0.30 0.85 -1.35 0.40z"/>
  <path d="M12 15.25 c0 -0.75 0.90 -2 1.20 -1.70 0.15 0.15 -0.05 0.70 -0.45 1.25 -0.40 0.50 -0.70 0.75 -0.75 0.45z"/>
  <path d="M20.90 12.15 c0 -0.25 -0.05 -1.15 -0.10 -2 -0.05 -1.25 0.15 -1.65 0.80 -1.65 1.15 0 1.60 0.90 0.85 1.80 -0.50 0.60 -0.40 0.85 0.35 1.45 0.90 0.70 0.90 0.70 -0.40 0.75 -0.80 0 -1.45 -0.15 -1.50 -0.35z"/>
  <path d="M25.50 9.80 c0 -0.55 1.95 -2.50 2.25 -2.20 0.15 0.10 -0.30 0.75 -1 1.40 -0.70 0.65 -1.25 1 -1.25 0.80z"/>
  <path d="M14 9.25 c0 -0.70 1.60 -3.25 2 -3.25 0.70 0 0.65 0.40 -0.35 2.05 -0.75 1.30 -1.65 1.90 -1.65 1.20z"/>
  <path d="M20 5.60 c0 -0.25 0.60 -0.85 1.30 -1.35 1.25 -0.80 1.30 -0.80 1.10 0.35 -0.10 0.75 -0.55 1.20 -1.25 1.30 -0.65 0.10 -1.15 -0.05 -1.15 -0.30z"/>
  <path d="M18 4 c0 -0.65 1.90 -1.60 2.75 -1.40 0.35 0.10 -0.10 0.55 -1.05 1 -0.95 0.50 -1.70 0.65 -1.70 0.40z"/>
 </g>
 <g fill="#e5ab68">
  <path d="M22 33.65 c0.05 -1.35 0.05 -1.35 0.75 -0.45 0.70 0.95 0.60 1.80 -0.30 1.80 -0.25 0 -0.45 -0.60 -0.45 -1.35z"/>
  <path d="M19.70 30.35 c0.15 -0.50 0.30 -1.80 0.30 -2.90 0 -1.05 0.25 -1.95 0.50 -1.95 0.80 0 0.60 3.70 -0.30 4.80 -0.70 0.85 -0.75 0.85 -0.50 0.05z"/>
  <path d="M28.60 29.50 c-0.80 -1.35 -0.75 -2.50 0.15 -2.50 0.50 0 0.75 0.55 0.75 1.75 0 2.05 -0.05 2.10 -0.90 0.75z"/>
  <path d="M17 28.55 c0 -0.25 -0.15 -0.85 -0.30 -1.25 -0.25 -0.60 -0.10 -0.75 0.50 -0.50 0.85 0.35 1.10 2.20 0.30 2.20 -0.25 0 -0.50 -0.20 -0.50 -0.45z"/>
  <path d="M15.25 24.80 c1 -2.40 1.85 -6.15 2 -8.70 0.05 -1.30 0.45 -2.50 1 -3 0.80 -0.80 0.85 -0.70 0.60 2.65 -0.35 4.90 -2.35 10.75 -3.65 10.75 -0.50 0 -0.50 -0.35 0.05 -1.70z"/>
  <path d="M29.35 26.15 c-0.25 -0.35 -0.30 -0.80 -0.20 -1 0.35 -0.60 -0.45 -4.95 -1.55 -8.75 -0.70 -2.40 -0.75 -3.25 -0.30 -3.05 0.35 0.10 0.75 0.80 0.95 1.55 0.15 0.75 0.75 2.50 1.35 3.90 0.85 2.10 0.95 2.95 0.55 5.25 -0.25 1.65 -0.60 2.45 -0.80 2.10z"/>
  <path d="M21.95 23.55 c-1.15 -0.95 -1.20 -1.05 -0.35 -2.50 0.50 -0.90 0.65 -1.65 0.35 -1.80 -0.75 -0.50 -0.50 -1.25 0.35 -1.25 0.60 0 0.75 0.35 0.60 1.25 -0.20 0.85 -0.05 1.25 0.40 1.25 0.40 0 0.70 0.30 0.70 0.65 0 0.45 0.10 0.45 0.45 -0.05 0.30 -0.50 0.50 -0.20 0.75 0.95 0.35 1.85 0.40 1.70 -1 2.15 -0.70 0.20 -1.50 0 -2.25 -0.65z"/>
  <path d="M11.70 18.55 c0.55 -0.55 1.15 -1.05 1.40 -1.05 0.70 0 -0.05 0.95 -1.25 1.55 -1.10 0.60 -1.10 0.60 -0.15 -0.50z"/>
  <path d="M13.60 15 c0.25 -0.85 0.70 -1.65 0.95 -1.80 0.60 -0.35 0.55 1.15 -0.05 2.35 -0.85 1.50 -1.50 1.10 -0.90 -0.55z"/>
  <path d="M20.85 16.15 c-0.65 -0.60 -0.35 -1.15 0.65 -1.15 0.55 0 1 0.35 1 0.75 0 0.75 -1.05 1.05 -1.65 0.40z"/>
  <path d="M20.65 12.15 c-0.05 -1.90 0.15 -2 1.80 -0.70 1.35 1.05 0.95 2.30 -0.75 2.35 -0.80 0 -1 -0.30 -1.05 -1.65z"/>
  <path d="M20.75 9 c-1 -1.90 -1 -1.80 0.80 -2.20 0.90 -0.15 1.90 -0.70 2.25 -1.20 0.60 -0.80 0.65 -0.75 0.65 0.40 -0.05 1.80 -0.70 3.30 -1.15 2.60 -0.20 -0.35 -0.60 -0.60 -0.90 -0.60 -0.35 0 -0.30 0.25 0.10 0.75 0.60 0.70 0.30 1.75 -0.50 1.75 -0.25 0 -0.80 -0.65 -1.25 -1.50z"/>
  <path d="M26.50 8.65 c0 -0.25 0.60 -1 1.30 -1.70 1.20 -1.05 1.30 -1.10 0.80 -0.15 -0.65 1.25 -2.10 2.50 -2.10 1.85z"/>
  <path d="M17 7.70 c0 -0.30 0.35 -0.95 0.75 -1.50 0.40 -0.50 0.70 -0.70 0.70 -0.45 0 0.30 -0.30 0.95 -0.70 1.45 -0.40 0.55 -0.75 0.75 -0.75 0.50z"/>
  <path d="M16 6.35 c0 -1.05 2.10 -3.10 3.55 -3.50 0.80 -0.20 0.90 -0.15 0.45 0.40 -0.35 0.40 -0.95 0.85 -1.45 1 -0.45 0.10 -1.20 0.85 -1.65 1.60 -0.65 1.05 -0.90 1.20 -0.90 0.50z"/>
  <path d="M21.25 4.70 c0.85 -0.90 1.50 -1.20 2.10 -1 0.80 0.35 0.75 0.45 -0.35 1.30 -0.70 0.55 -1.65 1 -2.10 1 -0.70 0 -0.65 -0.20 0.35 -1.30z"/>
  <path d="M23.90 0.90 c0.20 -0.80 0.35 -0.90 0.50 -0.40 0.15 0.40 0.50 0.90 0.80 1.10 0.30 0.25 0.10 0.40 -0.55 0.40 -0.85 0 -1 -0.20 -0.75 -1.10z"/>
 </g>
 <g fill="#eaca9c">
  <path d="M22 34 c0 -0.95 0.15 -1.05 0.60 -0.60 0.45 0.45 0.45 0.75 0 1.20 -0.45 0.45 -0.60 0.35 -0.60 -0.60z"/>
  <path d="M6.50 31.60 c0 -0.55 2.50 -2.85 3.90 -3.60 2.20 -1.10 1.60 -0.15 -1.15 1.90 -1.50 1.15 -2.75 1.90 -2.75 1.70z"/>
  <path d="M28.25 28.45 c-0.40 -1.15 -0.05 -1.70 0.70 -1.20 0.65 0.40 0.75 2.25 0.10 2.25 -0.25 0 -0.65 -0.45 -0.80 -1.05z"/>
  <path d="M16.80 27.70 c-0.45 -1.10 -0.40 -1.20 0.45 -0.90 0.40 0.20 0.75 0.60 0.75 1 0 0.95 -0.80 0.90 -1.20 -0.10z"/>
  <path d="M15.10 25.95 c0.30 -0.80 0.60 -1.80 1.90 -6.90 0.30 -1.05 0.40 -2.30 0.20 -2.70 -0.15 -0.40 0.15 -1.50 0.65 -2.45 l0.90 -1.65 0.15 1.50 c0.35 2.85 -1.85 11.20 -3.25 12.35 -0.70 0.55 -0.80 0.55 -0.55 -0.15z"/>
  <path d="M29.20 25.95 c-0.15 -0.30 -0.05 -0.80 0.25 -1.10 0.40 -0.40 0.55 -0.25 0.55 0.55 0 1.20 -0.25 1.40 -0.80 0.55z"/>
  <path d="M22.10 23.60 c-1.40 -1.25 -0.95 -3.10 0.70 -3.10 1.05 0 1.20 0.25 1.20 2 0 2.25 -0.35 2.45 -1.90 1.10z"/>
  <path d="M29.15 22.40 c0.15 -1 0.05 -2 -0.25 -2.30 -0.25 -0.25 -0.90 -2 -1.40 -3.80 -0.65 -2.50 -0.70 -3.30 -0.25 -3.30 0.35 0 0.75 0.75 0.90 1.70 0.15 0.90 0.75 2.75 1.35 4 1.15 2.55 1.15 4.85 0.05 5.20 -0.55 0.20 -0.65 -0.15 -0.40 -1.50z"/>
  <path d="M11.80 18.45 c0.55 -0.65 1.65 -2.90 2.45 -4.95 0.75 -2.05 1.60 -3.95 1.90 -4.25 0.35 -0.35 0.40 -0.15 0.15 0.50 -0.20 0.55 -0.85 2.45 -1.40 4.25 -1.10 3.55 -1.55 4.30 -3.10 5.10 l-1.05 0.55 1.05 -1.20z"/>
  <path d="M22.15 19.15 c-0.90 -0.35 -0.80 -1.15 0.10 -1.15 0.40 0 0.75 0.35 0.75 0.75 0 0.40 -0.05 0.75 -0.10 0.70 -0.10 0 -0.45 -0.15 -0.75 -0.30z"/>
  <path d="M20.75 15.95 c-0.20 -0.30 -0.20 -0.65 -0.05 -0.80 0.40 -0.40 1.80 0.25 1.80 0.85 0 0.65 -1.35 0.65 -1.75 -0.05z"/>
  <path d="M24.35 16.15 c-0.70 -0.65 -0.30 -1.15 0.95 -1.15 1.10 0 1.25 0.10 0.70 0.75 -0.70 0.80 -1.15 0.95 -1.65 0.40z"/>
  <path d="M12.55 13.70 c0.25 -0.75 0.35 -1.45 0.25 -1.60 -0.30 -0.25 2.35 -5.40 3.60 -6.90 0.90 -1.15 3.65 -2.70 4.70 -2.70 0.35 0 -0.30 0.50 -1.45 1.10 -1.60 0.80 -2.50 1.85 -4.10 4.60 -1.15 2 -2.05 3.95 -2.05 4.40 0 1.15 -0.55 2.40 -1.05 2.40 -0.25 0 -0.20 -0.60 0.10 -1.30z"/>
  <path d="M20.70 13.20 c0.15 -0.45 0.30 -1.10 0.30 -1.45 0 -0.55 0.30 -0.60 1.15 -0.30 1.55 0.55 1.40 1.65 -0.30 2.10 -1.15 0.30 -1.40 0.25 -1.15 -0.35z"/>
  <path d="M21.30 9.55 c-1 -1.10 -1.05 -2.55 -0.05 -2.60 1.60 -0.15 1.80 -0.20 2.25 -0.95 0.65 -1.05 1.10 -0.35 0.75 1.15 -0.25 0.90 -0.60 1.15 -1.30 1 -1.05 -0.30 -1.25 0.35 -0.40 1.20 0.35 0.35 0.35 0.65 0.05 0.85 -0.25 0.15 -0.85 -0.15 -1.30 -0.65z"/>
  <path d="M16.95 7.75 c0.85 -1.65 1.55 -2.55 1.55 -2 0 0.30 -0.50 1.05 -1.05 1.75 -0.65 0.85 -0.85 0.90 -0.50 0.25z"/>
  <path d="M20 5.70 c0 -0.15 0.50 -0.70 1.15 -1.25 1.95 -1.60 3.30 -0.95 1.45 0.70 -0.90 0.80 -2.60 1.15 -2.60 0.55z"/>
  <path d="M23.50 2.55 c0 -0.25 0.15 -0.80 0.30 -1.25 0.25 -0.60 0.45 -0.65 0.95 -0.15 0.35 0.30 0.50 0.90 0.40 1.20 -0.30 0.75 -1.65 0.90 -1.65 0.20z"/>
 </g>
 <g fill="#f7edd5">
  <path d="M7.35 30.40 c1.40 -1.50 4.15 -3.10 4.15 -2.45 0 0.30 -0.80 0.90 -1.75 1.35 -0.95 0.45 -1.75 1 -1.75 1.20 0 0.20 -0.40 0.55 -0.85 0.70 -0.70 0.30 -0.65 0.10 0.20 -0.80z"/>
  <path d="M15.65 25.35 c0.20 -0.50 0.60 -2.30 0.90 -4.10 0.30 -1.80 0.75 -3.40 1 -3.55 0.25 -0.10 0.15 -0.70 -0.20 -1.25 -0.40 -0.70 -0.45 -1.10 -0.05 -1.35 0.30 -0.20 0.70 -0.80 0.85 -1.30 0.20 -0.50 0.50 -0.80 0.65 -0.65 0.30 0.30 -0.65 6.20 -1.30 7.60 -0.25 0.55 -0.55 1.85 -0.75 2.85 -0.15 1.05 -0.55 2 -0.85 2.20 -0.40 0.25 -0.45 0.10 -0.25 -0.45z"/>
  <path d="M21.65 23.10 c-0.65 -1.05 0 -2.60 1.10 -2.60 0.50 0 0.75 0.55 0.75 1.75 0 1.90 -0.90 2.35 -1.85 0.85z"/>
  <path d="M29.20 23.30 c-0.15 -0.40 -0.05 -1.15 0.25 -1.65 0.45 -0.75 0.50 -0.65 0.55 0.75 0 1.70 -0.35 2.10 -0.80 0.90z"/>
  <path d="M29.15 20.15 c-0.65 -0.25 -1.90 -3.55 -1.50 -4 0.15 -0.15 0.75 0.70 1.35 1.85 1.10 2.20 1.15 2.50 0.15 2.15z"/>
  <path d="M13.25 16.50 c0.65 -2.15 2.20 -5.80 2.20 -5.25 0.05 0.75 -1.70 5.70 -2.20 6.15 -0.20 0.20 -0.20 -0.20 0 -0.90z"/>
  <path d="M20.80 15.75 c-0.15 -0.45 0 -0.75 0.40 -0.75 0.40 0 0.80 0.35 1 0.75 0.15 0.45 0 0.75 -0.40 0.75 -0.40 0 -0.80 -0.35 -1 -0.75z"/>
  <path d="M24.60 15.90 c0.15 -0.35 0.65 -0.75 1.20 -0.85 0.80 -0.15 0.85 -0.05 0.25 0.65 -0.80 0.95 -1.70 1.05 -1.45 0.20z"/>
  <path d="M12.80 13 c0.60 -3.55 4.25 -9.50 5.80 -9.50 0.45 0.05 0.40 0.20 -0.15 0.65 -1.25 1 -4.95 6.95 -4.95 8.05 0 0.60 -0.25 1.40 -0.50 1.80 -0.35 0.55 -0.40 0.25 -0.20 -1z"/>
  <path d="M21.85 13.15 c-0.65 -0.60 -0.35 -1.15 0.65 -1.15 0.65 0 0.90 0.25 0.70 0.75 -0.35 0.80 -0.85 0.95 -1.35 0.40z"/>
  <path d="M21.25 4.75 c1.70 -1.40 2.10 -1.30 1.15 0.20 -0.35 0.60 -1.10 1.05 -1.65 1.05 -0.90 -0.05 -0.80 -0.20 0.50 -1.25z"/>
  <path d="M23.60 2.20 c0.20 -1.05 1.10 -1.15 1.30 -0.05 0.10 0.50 -0.15 0.85 -0.65 0.85 -0.50 0 -0.75 -0.30 -0.65 -0.80z"/>
 </g>
</svg>