<?xml version="1.0" encoding="utf-8"?>
<!DOCTYPE svg PUBLIC "-//W3C//DTD SVG 1.0//EN" "http://www.w3.org/TR/2001/REC-SVG-20010904/DTD/svg10.dtd">
<svg version="1.0" xmlns="http://www.w3.org/2000/svg" width="40px" height="40px" viewBox="0 0 40 40" preserveAspectRatio="xMidYMid meet">
 <g fill="#0a0401">
  <path d="M23.50 38.25 c0 -1.65 0.10 -1.75 1.75 -1.75 1.65 0 1.75 0.10 1.75 1.75 0 1.65 -0.10 1.75 -1.75 1.75 -1.65 0 -1.75 -0.10 -1.75 -1.75z"/>
  <path d="M29.50 29.75 c0 -0.95 0.25 -1.75 0.50 -1.75 0.30 0 0.50 -0.35 0.50 -0.75 0 -0.50 0.50 -0.75 1.65 -0.75 1.45 0 1.75 0.20 2.15 1.65 0.85 2.80 0.45 3.35 -2.35 3.35 l-2.45 0 0 -1.75z"/>
  <path d="M24.55 15.80 c-0.35 -0.45 -0.55 -2.05 -0.45 -4.15 l0.15 -3.40 2.50 -0.15 c1.40 -0.10 2.70 -0.35 3 -0.65 0.25 -0.25 1.20 -0.45 2.10 -0.45 1.80 0 2.10 0.70 0.90 2.30 -0.40 0.50 -0.75 1.45 -0.75 2.10 0 0.95 -0.25 1.10 -1.90 1.10 l-1.90 0 0.20 2 c0.20 2 0.20 2 -1.55 2 -0.95 0 -2 -0.30 -2.30 -0.70z"/>
 </g>
 <g fill="#2b1409">
  <path d="M18 39.50 c0 -0.25 -0.55 -0.50 -1.25 -0.50 -0.90 0 -1.25 -0.25 -1.25 -1 0 -1.05 1.65 -1.45 2.25 -0.50 0.15 0.30 0.75 0.50 1.25 0.50 0.50 0 1.05 0.30 1.20 0.65 0.15 0.30 0.15 -0.25 0 -1.25 -0.30 -1.65 -0.20 -1.90 0.70 -1.90 0.55 0 1.15 0.40 1.25 0.90 0.15 0.45 0.25 0.10 0.30 -0.75 0.05 -1.90 1.25 -2.25 1.80 -0.50 0.20 0.65 0.40 0.85 0.60 0.50 0.40 -1.10 1.15 -0.70 1.15 0.60 0 1.10 -0.20 1.25 -1.75 1.25 -1.55 0 -1.75 0.15 -1.75 1.25 0 1.15 -0.20 1.25 -2.25 1.25 -1.25 0 -2.25 -0.20 -2.25 -0.50z"/>
  <path d="M2 36.60 c0 -0.65 1.95 -1.60 2.25 -1.10 0.20 0.30 0.55 0.40 0.80 0.25 0.25 -0.20 0.45 0.05 0.45 0.45 0 0.60 -0.50 0.80 -1.75 0.80 -0.95 0 -1.75 -0.15 -1.75 -0.40z"/>
  <path d="M6 35.85 c0 -0.35 0.70 -0.90 1.60 -1.25 1.35 -0.50 1.75 -0.45 2.40 0.15 0.65 0.70 0.65 0.85 0 1.25 -1.15 0.70 -4 0.60 -4 -0.15z"/>
  <path d="M37.50 35.25 c0 -1.40 0.15 -1.45 1.55 -0.75 1.40 0.75 1.20 2 -0.30 2 -1 0 -1.25 -0.25 -1.25 -1.25z"/>
  <path d="M26 32 c0 -0.85 -0.20 -1.90 -0.45 -2.40 -0.25 -0.45 -0.70 -1.45 -1.10 -2.20 -0.95 -2.15 -1.30 -1.65 -1.05 1.60 0.20 2.80 0.15 3 -0.85 3 -0.90 0 -1.05 -0.30 -1.05 -2.25 0 -1.60 -0.20 -2.25 -0.70 -2.25 -0.70 0 -1.30 -1.45 -1.30 -3.45 0 -1.05 0.15 -1.15 1.55 -0.85 0.85 0.15 2.20 0.30 3 0.30 1.05 0 1.45 0.25 1.45 0.90 0 0.70 0.50 0.85 3.15 0.85 3.55 0 5.35 -0.50 5.35 -1.55 0 -0.40 -0.20 -0.70 -0.50 -0.70 -0.25 0 -0.50 -0.65 -0.50 -1.50 0 -1.85 0.30 -1.90 1.80 -0.10 1.35 1.55 1.50 3 0.45 4.40 -0.40 0.50 -0.75 2 -0.75 3.25 0 2 -0.15 2.40 -1.10 2.65 -1.75 0.45 -3.80 0.35 -4.15 -0.20 -0.55 -0.90 -1.25 -0.50 -1.25 0.75 0 0.90 -0.25 1.25 -1 1.25 -0.80 0 -1 -0.35 -1 -1.50z"/>
  <path d="M19.50 19.55 c0 -1.75 0.60 -2.55 1.80 -2.55 1.05 0 1.20 0.25 1.20 1.75 0 1.60 -0.10 1.75 -1.50 1.75 -1.15 0 -1.50 -0.25 -1.50 -0.95z"/>
  <path d="M31.50 17.15 l0.05 -1.90 1.20 1.40 c1.60 1.80 1.55 2.35 0 2.35 -1.10 0 -1.25 -0.20 -1.25 -1.85z"/>
  <path d="M26.40 17.30 c-0.50 -0.35 -0.90 -1.05 -0.90 -1.50 0 -0.45 -0.40 -0.80 -1 -0.80 -0.80 0 -1 -0.35 -1 -1.70 0 -1.55 0.15 -1.70 1.95 -2 2.20 -0.35 3.05 -1.15 1.75 -1.65 -0.50 -0.20 -1.10 0 -1.45 0.50 -0.90 1.25 -1.25 1.05 -1.25 -0.90 l0 -1.75 2.45 0 c1.40 0 2.65 -0.20 2.80 -0.50 0.15 -0.30 1.10 -0.50 2.05 -0.50 1.20 0 1.70 0.20 1.70 0.80 0 0.95 -1.55 3.70 -2.10 3.70 -0.55 0 -0.50 -0.90 0.10 -1.25 0.30 -0.15 0.50 -0.50 0.50 -0.80 0 -0.75 -1.90 0.70 -2.15 1.65 -0.15 0.50 -0.70 0.90 -1.30 0.90 -1.70 0 -1.40 1.90 0.35 2.10 1.20 0.15 1.35 0.35 1.50 2.30 0.15 2.10 0.15 2.10 -1.50 2.10 -0.90 0 -2.05 -0.35 -2.50 -0.70z"/>
 </g>
 <g fill="#4b2911">
  <path d="M14.85 39.65 c-0.20 -0.15 -0.35 -1.05 -0.35 -1.95 0 -1.60 0 -1.60 1.40 -0.95 0.75 0.40 1.95 0.90 2.75 1.20 2.30 0.90 1.70 2.05 -1.05 2.05 -1.35 0 -2.60 -0.15 -2.75 -0.35z"/>
  <path d="M20.65 38.25 c-0.55 -1.65 -0.50 -1.75 0.65 -1.75 1.05 0 1.20 0.25 1.20 1.75 0 1.10 -0.25 1.75 -0.65 1.75 -0.40 0 -0.90 -0.80 -1.20 -1.75z"/>
  <path d="M0 37.30 c0 -0.70 1.05 -1.30 2.30 -1.30 0.40 0 0.70 0.45 0.70 1 0 0.80 -0.35 1 -1.50 1 -0.95 0 -1.50 -0.25 -1.50 -0.70z"/>
  <path d="M37.40 37.65 c-0.65 -0.15 -0.90 -0.75 -0.90 -2.20 0 -1.10 0.15 -1.95 0.40 -1.85 2.80 1.35 3.10 1.65 3.10 3 0 1.40 -0.50 1.60 -2.60 1.05z"/>
  <path d="M3.50 36.55 c0 -0.60 0.35 -0.95 0.90 -0.95 0.45 0 1.25 -0.15 1.75 -0.35 0.70 -0.30 0.85 -0.10 0.85 0.95 0 1.15 -0.20 1.30 -1.75 1.30 -1.40 0 -1.75 -0.20 -1.75 -0.95z"/>
  <path d="M24 36.50 c0 -0.25 0.20 -0.50 0.45 -0.50 0.55 0 1.50 -2.30 1.65 -4 0.10 -0.70 0.70 -1.80 1.40 -2.45 1.90 -1.85 1.75 -2.85 -0.35 -2.60 -0.35 0.05 -0.65 -0.35 -0.65 -0.95 0 -0.80 0.30 -1 1.75 -1 0.95 0 1.75 0.25 1.75 0.50 0 0.30 0.45 0.50 1 0.50 0.55 0 1 0.30 1 0.70 0 0.45 -0.45 0.60 -1.35 0.45 -1.30 -0.20 -1.30 -0.15 -0.40 0.40 1.50 0.90 1.55 0.95 0.75 1.45 -0.60 0.35 -0.60 0.60 -0.10 1.10 0.45 0.45 0.60 0.40 0.60 -0.30 0 -0.55 0.30 -0.80 0.90 -0.70 0.60 0.10 0.90 0.70 1 2.05 0.15 1.80 0.15 1.85 -1.60 1.85 -1.60 0 -1.80 -0.15 -1.80 -1.25 0 -0.90 -0.25 -1.25 -1 -1.25 -0.75 0 -1 0.35 -1 1.40 0 0.75 -0.25 2.20 -0.55 3.25 -0.45 1.60 -0.70 1.85 -1.95 1.85 -0.85 0 -1.50 -0.20 -1.50 -0.50z"/>
  <path d="M21.60 28.25 c0.20 -2.95 0.10 -3.20 -0.85 -3.35 -0.95 -0.15 -1 -0.45 -0.85 -7.40 0.15 -9.50 0.45 -12.20 1.55 -13.45 1.35 -1.55 1.70 -1.30 1.30 0.85 -0.70 3.30 -0.60 15.70 0.15 15.95 0.30 0.15 0.60 0.55 0.60 0.95 0 0.40 0.45 0.70 0.95 0.70 0.80 0 1.05 0.50 1.30 2.75 0.20 1.55 0.25 2.95 0.05 3.10 -0.45 0.45 -1.75 -1.40 -1.80 -2.45 0 -0.50 -0.20 -0.90 -0.50 -0.90 -0.30 0 -0.40 1.30 -0.25 3.25 0.25 3.05 0.20 3.25 -0.80 3.25 -1 0 -1.05 -0.20 -0.85 -3.25z"/>
  <path d="M32.50 26 c0 -1.45 0.20 -2 0.75 -2 0.45 0 0.75 -0.45 0.75 -1.25 0 -1.40 0.75 -1.65 1.40 -0.45 0.50 0.90 0.15 3.70 -0.45 3.70 -0.25 0 -0.45 0.45 -0.45 1 0 0.65 -0.35 1 -1 1 -0.85 0 -1 -0.35 -1 -2z"/>
  <path d="M32 18.25 c0 -2 -1.30 -2.50 -1.60 -0.65 -0.15 1.30 -1.25 1.65 -3.70 1.15 -1.20 -0.20 -1.70 -0.55 -1.70 -1.20 0 -0.50 -0.45 -1.30 -1 -1.80 -1.05 -0.95 -1.45 -4.75 -0.50 -4.75 0.30 0 0.50 -0.80 0.50 -1.75 0 -1.65 0.10 -1.75 1.75 -1.75 1.20 0 1.75 0.25 1.75 0.75 0 0.40 -0.30 0.75 -0.70 0.75 -0.60 0 -1.30 1 -1.30 1.85 0 0.15 0.55 0.15 1.25 0.05 1.05 -0.20 1.25 -0.05 1.25 0.85 0 1.35 0.80 1.75 2.65 1.40 1.20 -0.25 1.35 -0.10 1.35 1.15 0 0.80 0.45 2 1 2.70 1.30 1.65 1.30 3 0 3 -0.80 0 -1 -0.35 -1 -1.75z m-3 -2.25 c0 -0.30 -0.55 -0.75 -1.25 -1 -0.70 -0.25 -1.40 -0.85 -1.55 -1.25 -0.20 -0.40 -0.55 -0.75 -0.90 -0.75 -0.30 0.05 0.35 0.80 1.40 1.75 2.15 1.90 2.30 2 2.30 1.25z"/>
 </g>
 <g fill="#71330e">
  <path d="M12.85 39.65 c-0.20 -0.15 -0.35 -1.05 -0.35 -2 0 -2 0.90 -2.15 3.80 -0.60 1.10 0.55 1.45 0.90 0.85 0.75 -1.55 -0.30 -1.45 0.10 0.10 0.70 0.70 0.25 1.25 0.70 1.25 1 0 0.55 -5.10 0.70 -5.65 0.15z"/>
  <path d="M23 38.75 c0 -1.10 0.20 -1.25 1.75 -1.25 1.55 0 1.75 0.15 1.75 1.25 0 1.10 -0.20 1.25 -1.75 1.25 -1.55 0 -1.75 -0.15 -1.75 -1.25z"/>
  <path d="M1.25 37.95 c-0.45 -1.30 0.20 -1.95 2.05 -2.10 1.30 -0.10 1.45 0.05 1.60 1.55 0.15 1.55 0.10 1.60 -1.60 1.60 -1.30 0 -1.80 -0.25 -2.05 -1.05z"/>
  <path d="M38.50 35.50 c0 -0.65 0.25 -0.90 0.75 -0.70 0.40 0.20 0.75 0.60 0.75 1 0 0.40 -0.35 0.70 -0.75 0.70 -0.40 0 -0.75 -0.45 -0.75 -1z"/>
  <path d="M26.15 33 c0.20 -0.95 -0.05 -2.30 -0.75 -3.85 -0.55 -1.35 -1.20 -3.05 -1.40 -3.90 l-0.35 -1.50 -0.50 1.75 -0.50 1.75 -0.40 -1.85 c-0.55 -2.90 -0.25 -3.65 1.80 -3.80 1.15 -0.10 2.10 0.15 2.60 0.60 0.45 0.45 1 0.80 1.30 0.80 0.30 0 0.55 0.15 0.55 0.40 0 0.20 0.90 0.30 2 0.20 l2 -0.20 0 1.85 0 1.90 -2.45 -0.25 c-2.95 -0.30 -3.65 0.05 -3.85 1.80 -0.10 1.15 0 1.25 0.80 0.80 1.50 -0.80 2 -0.60 2 0.75 0 0.70 -0.20 1.25 -0.50 1.25 -0.25 0 -0.50 0.70 -0.50 1.50 0 1.20 -0.20 1.50 -1.05 1.50 -0.95 0 -1.05 -0.20 -0.80 -1.50z"/>
  <path d="M33 31.75 c0 -1.20 0.25 -1.75 0.75 -1.75 0.40 0 0.75 0.25 0.75 0.60 0 0.30 0.50 1.10 1.10 1.75 l1.05 1.15 -1.80 0 c-1.80 0 -1.85 -0.05 -1.85 -1.75z"/>
  <path d="M19.80 24.60 c-0.45 -1.40 -0.25 -5.60 0.35 -7.70 0.60 -2.15 1.85 -2.55 1.85 -0.65 0 0.80 0.30 1.25 0.75 1.25 0.50 0 0.75 0.55 0.75 1.75 0 1.40 -0.20 1.75 -1 1.75 -0.55 0 -1 0.35 -1 0.75 0 0.45 -0.30 0.60 -0.75 0.45 -0.45 -0.20 -0.75 0 -0.75 0.50 0 0.45 0.35 0.80 0.75 0.80 0.40 0 0.75 0.45 0.75 1 0 1.25 -1.35 1.30 -1.70 0.10z"/>
  <path d="M27 18.50 c0 -0.25 -0.55 -0.50 -1.25 -0.50 -1.10 0 -1.25 -0.20 -1.25 -1.75 0 -1.40 -0.20 -1.75 -1 -1.75 -0.80 0 -1 -0.35 -1 -1.75 0 -1.65 0.10 -1.75 1.75 -1.75 1.20 0 1.75 0.25 1.75 0.75 0 0.40 -0.35 0.75 -0.75 0.75 -1.30 0 -0.80 0.95 1.25 2.40 1.05 0.75 1.85 1.65 1.75 2 -0.15 0.35 0 0.50 0.25 0.35 1 -0.60 0.50 -2.15 -0.75 -2.45 -1 -0.25 -1.25 -0.65 -1.25 -1.80 0 -1.40 0.15 -1.50 1.75 -1.50 1.25 0 1.75 0.20 1.75 0.75 0 0.45 0.40 1.25 0.90 1.75 0.50 0.55 1.40 1.90 2.05 3 l1.10 2 -3.50 0 c-2.05 0 -3.55 -0.20 -3.55 -0.50z"/>
 </g>
 <g fill="#5d3625">
  <path d="M12.65 39.15 c-0.90 -0.45 -1.65 -1.15 -1.65 -1.50 0 -0.35 -0.45 -0.65 -1 -0.65 -0.80 0 -1 -0.35 -1 -1.60 0 -1.25 0.15 -1.45 0.60 -1 0.35 0.35 1.05 0.60 1.65 0.60 0.55 0 2.35 0.70 4 1.50 1.65 0.85 2.55 1.40 1.95 1.25 -0.70 -0.20 -1.05 -0.05 -1.05 0.45 0 0.45 0.40 0.70 1 0.65 0.55 -0.05 1.10 0.25 1.20 0.65 0.20 0.65 0.15 0.65 -0.35 0 -0.45 -0.55 -0.65 -0.60 -0.85 -0.10 -0.35 0.85 -2.55 0.70 -4.50 -0.25z"/>
  <path d="M34.50 38.25 c0 -1.60 0.10 -1.75 1.50 -1.75 0.85 0 1.50 0.25 1.50 0.50 0 0.30 -0.20 0.50 -0.50 0.50 -0.25 0 -0.50 0.55 -0.50 1.25 0 0.90 -0.25 1.25 -1 1.25 -0.80 0 -1 -0.35 -1 -1.75z"/>
  <path d="M20.50 37.55 c-0.80 -1.55 -0.60 -2.55 0.50 -2.55 0.75 0 1 -0.35 1 -1.25 0 -1.55 1.25 -1.65 1.70 -0.10 0.50 1.85 0.35 2.35 -0.70 2.35 -0.75 0 -1 0.35 -1 1.25 0 1.50 -0.75 1.65 -1.50 0.30z"/>
  <path d="M4.50 36.70 c0 -0.60 1.70 -1.65 2.65 -1.70 0.50 0 0.85 0.35 0.85 1 0 0.80 -0.35 1 -1.75 1 -0.95 0 -1.75 -0.15 -1.75 -0.30z"/>
  <path d="M29.50 32 c0 -1.15 -0.90 -1.35 -1.30 -0.25 -0.50 1.25 -1.40 0.80 -2.30 -1.15 -1.20 -2.70 -1.55 -4.45 -0.95 -4.80 0.75 -0.50 0.70 -2.15 -0.05 -2.45 -0.35 -0.15 0.20 -0.30 1.20 -0.30 1.05 -0.05 2 0.25 2.25 0.65 0.20 0.35 0.90 0.95 1.55 1.25 1.40 0.75 2.60 0 2.60 -1.50 0 -0.70 0.35 -0.95 1.50 -0.95 1.40 0 1.50 0.15 1.50 1.80 0 1.35 -0.20 1.75 -0.70 1.55 -0.40 -0.15 -0.85 0.05 -1 0.45 -0.15 0.45 -0.05 0.60 0.20 0.45 0.30 -0.20 0.50 0.60 0.50 1.95 0 2.75 -1.25 4.30 -3.50 4.30 -1.15 0 -1.50 -0.20 -1.50 -1z m2.20 -1.75 c-0.35 -1.35 0.60 -1.75 1.70 -0.65 0.35 0.35 0.60 0.40 0.55 0.15 -0.05 -0.90 -2.95 -2.85 -3.80 -2.60 -0.75 0.20 -0.75 0.30 0.25 0.60 1.20 0.40 1.45 1.05 0.55 1.35 -0.40 0.15 -0.40 0.50 0.10 1.30 0.90 1.40 1.05 1.40 0.65 -0.15z m-4.20 -0.85 c0 -0.20 0.35 -0.40 0.75 -0.40 0.85 0 1.05 -1.75 0.25 -2.25 -0.25 -0.15 -0.85 -0.10 -1.30 0.15 -1.10 0.60 -1.40 2.95 -0.40 2.95 0.40 0 0.70 -0.20 0.70 -0.45z"/>
  <path d="M20.95 26.15 c-0.85 -0.20 -1.60 -1.85 -1.05 -2.35 0.15 -0.15 0.70 -0.30 1.20 -0.30 1.35 0 1.10 -0.95 -0.35 -1.30 -0.95 -0.25 -1.25 -0.65 -1.25 -1.75 0 -0.75 0.25 -2 0.60 -2.70 1.75 -3.90 4.65 1.80 3.35 6.65 -0.55 2.05 -0.80 2.20 -2.50 1.75z"/>
  <path d="M32 20 c0 -0.25 -0.30 -0.50 -0.70 -0.50 -0.50 0 -0.80 -0.65 -0.95 -1.85 l-0.20 -1.90 -0.05 1.90 c-0.10 1.80 -0.15 1.85 -1.90 1.85 -1.75 0 -1.80 -0.05 -1.60 -1.50 0.15 -0.85 0 -1.70 -0.25 -1.85 -0.30 -0.15 -0.35 -0.05 -0.15 0.25 0.20 0.35 0.05 0.60 -0.40 0.60 -0.55 0 -0.80 -0.50 -0.80 -1.50 l0 -1.50 1.75 1.10 c0.95 0.65 1.65 1.45 1.50 1.80 -0.10 0.30 0 0.60 0.25 0.60 0.25 0 0.50 -0.50 0.60 -1.10 0.10 -0.90 -0.20 -1.25 -1.35 -1.65 -1.95 -0.65 -2.35 -2.25 -0.55 -2.25 0.70 0 1.25 0.15 1.25 0.40 -0.15 1 0.10 1.60 0.80 1.60 0.40 0 0.75 -0.45 0.75 -1 0 -0.70 0.35 -1 1.05 -1 0.90 0 1 0.25 0.75 2.25 -0.15 1.35 0 2.35 0.30 2.55 0.35 0.20 0.40 0.10 0.20 -0.20 -0.20 -0.35 -0.15 -0.60 0.10 -0.60 0.50 0 1.60 2.20 1.60 3.25 0 0.40 -0.45 0.75 -1 0.75 -0.55 0 -1 -0.20 -1 -0.50z"/>
  <path d="M31.20 10.25 c1.05 -1.60 1.10 -2.60 0.05 -1.75 -0.65 0.55 -0.75 0.40 -0.75 -0.70 0 -0.70 0.25 -1.30 0.50 -1.30 0.30 0 0.50 -0.35 0.50 -0.75 0 -1.15 0.95 -0.90 1.55 0.45 0.45 0.95 0.40 1.65 -0.35 3.25 -0.55 1.10 -1.25 2.05 -1.65 2.05 -0.50 0 -0.50 -0.25 0.15 -1.25z"/>
  <path d="M24.50 8.75 c0 -1.70 0.05 -1.75 2 -1.75 2 0 2 0 2 1.90 -0.05 1.50 -0.15 1.70 -0.55 1 -0.60 -1.10 -2.45 -1.20 -2.45 -0.15 0 0.40 -0.20 0.75 -0.50 0.75 -0.25 0 -0.50 -0.80 -0.50 -1.75z"/>
  <path d="M21.85 3.50 c0.15 -0.55 0.70 -1.25 1.20 -1.55 0.85 -0.40 0.95 -0.30 0.95 1.05 0 1.25 -0.20 1.50 -1.20 1.50 -0.95 0 -1.15 -0.20 -0.95 -1z"/>
  <path d="M27 2 c0 -1.10 1 -1.30 2.55 -0.50 1.50 0.80 1.15 1.50 -0.80 1.50 -1.40 0 -1.75 -0.20 -1.75 -1z"/>
 </g>
 <g fill="#86590e">
  <path d="M1.50 38.75 c0 -0.40 -0.20 -0.75 -0.50 -0.75 -0.25 0 -0.50 -0.35 -0.50 -0.75 0 -0.70 0.20 -0.85 1.65 -0.95 0.30 -0.05 0.75 -0.25 0.90 -0.45 0.70 -0.95 1.95 0.30 1.95 1.95 0 1.60 -0.10 1.70 -1.75 1.70 -1.20 0 -1.75 -0.25 -1.75 -0.75z"/>
  <path d="M27.15 25.20 c-0.15 -0.40 -0.60 -0.65 -0.95 -0.50 -0.40 0.15 -0.70 -0.05 -0.70 -0.40 0 -1.05 -1.40 -1.35 -1.95 -0.40 -0.45 0.70 -0.50 0.55 -0.55 -0.70 0 -1.75 0 -1.75 6.90 -2.50 3.05 -0.35 3.10 -0.30 3.10 0.90 0 0.70 -0.15 2 -0.30 2.85 -0.30 1.50 -0.45 1.55 -2.80 1.55 -1.75 0 -2.50 -0.20 -2.75 -0.80z"/>
  <path d="M25 18.75 c0 -0.40 -0.20 -0.75 -0.50 -0.75 -0.25 0 -0.50 -0.55 -0.50 -1.25 0 -0.70 -0.20 -1.25 -0.50 -1.25 -0.25 0 -0.50 0.45 -0.50 1 0 0.70 -0.35 1 -1.20 1 -1.05 0 -1.25 -0.25 -1.45 -2.35 -0.15 -1.35 -0.20 -3.05 -0.15 -3.90 0.10 -0.80 0.20 -2.10 0.20 -2.85 0.10 -1.20 0.30 -1.40 1.60 -1.40 1.15 0 1.50 0.20 1.50 1 0 0.65 0.35 1 0.95 1 0.65 0 1.05 0.40 1.15 1.15 0.10 0.75 0.45 1.05 1.05 0.95 1.05 -0.20 1.15 1.20 0.10 2.20 -0.65 0.70 -0.75 0.70 -0.75 0 0 -0.50 -0.45 -0.80 -1.10 -0.80 -1.05 0.05 -0.95 0.25 0.90 1.90 1.25 1.10 2.20 2.50 2.40 3.50 0.35 1.55 0.35 1.60 -1.40 1.60 -1.25 0 -1.80 -0.20 -1.80 -0.75z"/>
  <path d="M27.10 8.90 c-1 -1 -0.75 -2.90 0.40 -2.90 0.80 0 1 -0.35 1 -1.50 0 -1.15 -0.20 -1.50 -1 -1.50 -0.70 0 -1 -0.35 -1 -1.05 0 -0.95 0.20 -1.05 1.65 -0.75 3 0.60 5.40 4.35 3 4.70 -0.95 0.15 -1.15 0.50 -1.15 1.90 0 1.45 -0.15 1.70 -1.15 1.70 -0.65 0 -1.40 -0.25 -1.75 -0.60z"/>
  <path d="M22 3.65 c0 -0.55 0.60 -1.30 1.65 -2.10 0.75 -0.60 0.85 -0.55 0.85 0.90 0 1.30 -0.20 1.55 -1.25 1.55 -0.70 0 -1.25 -0.15 -1.25 -0.35z"/>
 </g>
 <g fill="#85422a">
  <path d="M0.50 38.25 c0 -1.60 0.40 -2.05 1.70 -1.80 0.25 0.05 0.60 -0.15 0.80 -0.50 0.55 -0.85 2.50 -0.05 2.50 1.10 0 1.55 -1.55 2.95 -3.35 2.95 -1.55 0 -1.65 -0.10 -1.65 -1.75z"/>
  <path d="M11.15 39.60 c-0.30 -0.20 -0.75 -1 -0.90 -1.75 -0.30 -1.15 -0.60 -1.35 -2.05 -1.35 -2.15 0 -2.25 -1.05 -0.20 -1.85 1.15 -0.45 1.60 -0.40 2.05 0.15 0.35 0.40 1 0.60 1.45 0.45 0.45 -0.15 1.85 0.30 3.05 1 1.30 0.80 1.70 1.20 0.95 0.95 -0.70 -0.15 -1.55 -0.55 -1.90 -0.85 -0.35 -0.25 -0.75 -0.35 -0.95 -0.15 -0.40 0.40 1.20 1.70 3 2.35 0.75 0.30 1.35 0.75 1.35 1 0 0.55 -5 0.60 -5.85 0.05z"/>
  <path d="M20.60 37.75 c-0.85 -3.10 -0.75 -3.75 0.40 -3.75 0.65 0 1 0.35 1 0.95 0 0.50 0.35 1.20 0.75 1.55 0.65 0.55 0.95 0.40 2 -0.70 1.15 -1.25 2.10 -4.30 1.60 -5.15 -0.15 -0.25 0.40 -0.75 1.20 -1.10 0.80 -0.35 1.45 -0.95 1.45 -1.35 0 -0.80 0.45 -0.90 1.40 -0.30 0.35 0.25 0.50 0.80 0.35 1.20 -0.20 0.45 -0.05 0.95 0.20 1.15 0.30 0.15 0.45 0.55 0.30 0.80 -0.20 0.25 -0.05 0.45 0.25 0.45 0.40 0 0.50 -0.45 0.30 -1.25 -0.25 -0.90 -0.10 -1.25 0.45 -1.25 0.55 0 0.75 0.50 0.75 1.75 0 0.95 -0.20 1.75 -0.50 1.75 -0.25 0 -0.50 0.55 -0.50 1.25 0 1 -0.25 1.25 -1.20 1.25 -0.90 0 -1.25 0.30 -1.40 1.15 -0.10 0.80 -0.55 1.15 -1.50 1.25 -1.10 0.15 -1.40 0.45 -1.40 1.40 0 0.75 -0.30 1.20 -0.80 1.20 -0.55 0 -0.70 -0.30 -0.50 -1.10 l0.30 -1.15 -0.55 1.15 c-0.45 0.80 -1.05 1.10 -2.15 1.10 -1.45 0 -1.65 -0.20 -2.20 -2.25z"/>
  <path d="M34.05 36.05 c-0.70 -4.30 -0.70 -5.55 -0.05 -5.55 0.30 0 0.50 0.20 0.50 0.45 0 0.60 4.45 5.05 5 5.05 0.30 0 0.50 0.45 0.50 1 0 0.80 -0.30 0.95 -1.85 0.85 -1.55 -0.10 -1.85 0.05 -1.75 0.80 0.10 0.55 -0.20 0.85 -0.80 0.85 -0.80 0 -1.05 -0.60 -1.55 -3.45z"/>
  <path d="M20 28.25 c0 -1.40 0.20 -1.75 1 -1.75 0.80 0 1 0.35 1 1.75 0 1.40 -0.20 1.75 -1 1.75 -0.80 0 -1 -0.35 -1 -1.75z"/>
  <path d="M24.80 27.20 c-0.45 -1.20 -0.35 -1.40 0.45 -0.70 0.85 0.70 1 1.50 0.30 1.50 -0.25 0 -0.60 -0.35 -0.75 -0.80z"/>
  <path d="M30.50 27 c-1.60 -0.25 -1.75 -0.40 -1.75 -2 0 -1.65 0.10 -1.75 1.85 -1.90 3.65 -0.30 2.55 -3.05 -1.40 -3.50 -2.10 -0.20 -2.20 -0.30 -2.20 -1.90 0 -1.90 0.80 -2.30 1.15 -0.55 l0.20 1.10 0.40 -1.10 c0.20 -0.60 0.70 -1.20 1.20 -1.30 0.50 -0.10 0.10 -0.35 -0.95 -0.65 -1.50 -0.45 -1.75 -0.75 -1.90 -2.10 -0.15 -1.55 -0.10 -1.60 1.60 -1.60 1.70 0 1.80 0.10 1.80 1.75 0 1.25 0.20 1.75 0.80 1.75 0.50 0 0.65 0.30 0.50 0.90 -0.15 0.45 -0.05 1.20 0.25 1.60 0.45 0.60 0.50 0.60 0.25 -0.20 -0.25 -0.80 -0.20 -0.85 0.45 -0.30 0.40 0.30 0.85 1.35 1.05 2.30 0.15 0.90 0.60 1.90 1 2.25 0.40 0.30 0.70 1.40 0.70 2.35 0 1.70 -0.05 1.75 -0.75 0.80 -0.70 -0.90 -0.70 -0.90 -0.75 0.25 0 0.80 -0.20 1.05 -0.70 0.90 -0.45 -0.20 -0.80 0.05 -0.90 0.55 -0.10 0.65 -0.55 0.80 -1.90 0.60z"/>
  <path d="M27.20 25.45 c-0.15 -0.30 -0.05 -0.80 0.25 -1.10 0.40 -0.40 0.55 -0.25 0.55 0.55 0 1.20 -0.25 1.40 -0.80 0.55z"/>
  <path d="M20 24.80 c0 -0.40 0.55 -0.85 1.25 -1 1.70 -0.45 1.55 -1.25 -0.25 -1.60 -1.60 -0.35 -1.95 -1.35 -0.80 -2.45 0.50 -0.55 0.80 -0.55 1.30 -0.10 0.50 0.50 0.60 0.40 0.35 -0.30 -0.30 -0.75 -0.10 -0.90 1.05 -0.75 1.15 0.15 1.40 0.40 1.50 1.85 0.25 2.50 -1.25 5.05 -3 5.05 -0.85 0 -1.40 -0.25 -1.40 -0.70z"/>
  <path d="M27.60 9.45 c-0.40 -0.60 -0.95 -0.90 -1.40 -0.75 -0.45 0.20 -0.70 -0.05 -0.70 -0.70 0 -0.80 0.35 -1 1.75 -1 1.65 0 1.75 0.10 1.75 1.75 0 2 -0.45 2.20 -1.40 0.70z"/>
  <path d="M24.50 2.75 c0 -1.80 0 -1.80 1.90 -1.65 1.70 0.15 1.85 0.30 1.85 1.65 0 1.35 -0.15 1.50 -1.85 1.65 -1.90 0.15 -1.90 0.15 -1.90 -1.65z"/>
 </g>
 <g fill="#7a533d">
  <path d="M11 38.70 c0 -1.55 -1.05 -2.70 -2.45 -2.70 -1.30 0 -1.35 -0.60 -0.10 -1.35 0.80 -0.50 1.10 -0.45 1.60 0.15 0.30 0.40 1 0.60 1.45 0.45 0.45 -0.15 1.85 0.30 3.05 1 1.35 0.80 1.70 1.20 0.95 1 -0.70 -0.20 -1.45 -0.55 -1.70 -0.80 -0.30 -0.25 -0.90 -0.45 -1.40 -0.45 -1.05 0 -0.65 1.40 0.70 2.40 1.35 0.95 1.10 1.60 -0.60 1.60 -1.30 0 -1.50 -0.20 -1.50 -1.30z"/>
  <path d="M23 38.70 c-0.75 -1.95 -0.65 -4.20 0.25 -4.20 0.40 0 0.75 0.35 0.75 0.80 0 0.45 0.30 0.70 0.65 0.55 0.30 -0.10 1.10 -0.05 1.75 0.20 0.85 0.35 1.10 0.80 1.10 2.20 0 1.60 -0.15 1.80 -1.10 1.65 -0.80 -0.10 -1.10 -0.45 -1 -1.10 0.10 -0.55 -0.05 -0.75 -0.35 -0.55 -0.30 0.15 -0.55 0.65 -0.55 1.05 0 1.15 -1 0.80 -1.50 -0.60z"/>
  <path d="M34.50 38.50 c0 -1 0.25 -1.50 0.75 -1.50 0.40 0 0.75 0.15 0.75 0.40 0 0.20 0.15 0.85 0.30 1.50 0.25 0.90 0.10 1.10 -0.75 1.10 -0.85 0 -1.05 -0.30 -1.05 -1.50z"/>
  <path d="M28.50 33 c0 -0.85 0.45 -2.05 1 -2.65 l1.05 -1.10 0.30 1.15 c0.15 0.60 0.50 1.10 0.75 1.10 0.30 0 0.35 -0.55 0.20 -1.25 -0.25 -0.90 -0.10 -1.25 0.40 -1.25 0.95 0 1.25 1 0.90 2.75 -0.35 2 -1.20 2.75 -3.05 2.75 -1.40 0 -1.55 -0.15 -1.55 -1.50z"/>
  <path d="M21.50 31.50 c0 -0.55 -0.35 -1 -0.75 -1 -0.50 0 -0.70 -0.50 -0.65 -1.70 0.05 -1.40 0.30 -1.80 1.30 -2.05 0.65 -0.15 1.35 -0.20 1.45 -0.05 0.15 0.15 0.35 1.50 0.45 3 0.20 2.55 0.10 2.80 -0.80 2.80 -0.65 0 -1 -0.35 -1 -1z"/>
  <path d="M32.65 28.25 c-1.40 -1.55 -1.50 -1.75 -0.65 -1.75 0.55 0 1 0.25 1 0.55 0 0.30 0.30 0.45 0.70 0.30 0.55 -0.20 0.70 0.10 0.70 1.20 -0.05 0.80 -0.05 1.45 -0.10 1.45 -0.05 -0.05 -0.75 -0.80 -1.65 -1.75z"/>
  <path d="M21.35 25.05 c-0.15 -0.70 0.10 -1.05 0.85 -1.25 1.05 -0.25 1 -0.30 -0.30 -1.55 -0.75 -0.70 -1.55 -1.25 -1.85 -1.25 -0.25 0 -0.40 -0.55 -0.35 -1.20 0.05 -0.95 0.25 -1.10 0.85 -0.80 0.45 0.25 1.05 0.80 1.40 1.20 0.35 0.40 1.65 0.90 2.85 1.10 1.85 0.25 2.20 0.50 2.20 1.45 0 0.60 -0.30 1.40 -0.70 1.70 -0.55 0.45 -0.75 0.35 -0.95 -0.45 -0.40 -1.45 -1.35 -1.25 -2 0.50 -0.65 1.70 -1.60 1.95 -2 0.55z"/>
  <path d="M32 20.05 c0 -2.15 1.25 -2.30 1.90 -0.25 0.50 1.60 0.45 1.70 -0.70 1.70 -1 0 -1.20 -0.25 -1.20 -1.45z"/>
  <path d="M21.25 18.75 c-1.10 -1.15 -1.10 -2.75 0 -2.75 0.60 0 1.70 3.35 1.20 3.65 -0.10 0.10 -0.65 -0.30 -1.20 -0.90z"/>
  <path d="M30 15.25 c0 -1.35 0.20 -1.75 0.90 -1.75 0.65 0 0.85 0.35 0.80 1.40 -0.10 2.05 -0.15 2.10 -0.95 2.10 -0.50 0 -0.75 -0.55 -0.75 -1.75z"/>
  <path d="M24.50 14.75 c0 -0.40 0.20 -0.75 0.45 -0.75 0.25 0 0.70 0.35 1.05 0.75 0.50 0.65 0.45 0.75 -0.45 0.75 -0.60 0 -1.05 -0.30 -1.05 -0.75z"/>
  <path d="M26.90 14.30 c-0.50 -0.35 -0.90 -0.90 -0.90 -1.25 0 -0.30 -0.30 -0.55 -0.60 -0.55 -0.35 0 0.05 -0.45 0.85 -1 0.85 -0.55 1.50 -1.20 1.45 -1.50 -0.15 -1.30 -0.25 -1.50 -0.95 -1.50 -0.40 0 -0.75 -0.20 -0.75 -0.50 0 -0.25 0.80 -0.45 1.75 -0.40 1.75 0.05 1.75 0.05 1.75 2.50 0 1.75 -0.20 2.40 -0.70 2.40 -0.40 0 -0.80 0.55 -0.90 1.20 -0.15 1.10 -0.25 1.15 -1 0.60z"/>
  <path d="M30.20 4.75 c0.30 -1.10 0.15 -1.25 -0.95 -1.25 -0.90 0 -1.25 -0.25 -1.25 -1 0 -0.65 0.35 -1 0.90 -1 1 0 1.85 0.80 3.25 3.15 l0.85 1.35 -1.55 0 c-1.40 0 -1.55 -0.10 -1.25 -1.25z"/>
  <path d="M23 2.25 c0.65 -0.70 1.45 -1.25 1.85 -1.25 0.35 0 0.65 0.55 0.65 1.25 0 1.10 -0.20 1.25 -1.85 1.25 l-1.80 0 1.15 -1.25z"/>
 </g>
 <g fill="#9f6516">
  <path d="M0 38.55 c0 -1.15 0.25 -1.50 1.40 -1.70 1.60 -0.30 2.15 0 1.10 0.65 -0.40 0.25 -0.60 0.60 -0.40 0.75 0.15 0.15 0.65 -0.10 1.15 -0.55 0.65 -0.65 0.70 -0.95 0.20 -1.25 -0.95 -0.60 -0.20 -1.10 1 -0.70 1.45 0.45 1.50 3.25 0.05 3.25 -0.55 0 -1 0.25 -1 0.50 0 0.30 -0.80 0.50 -1.75 0.50 -1.60 0 -1.75 -0.15 -1.75 -1.45z"/>
  <path d="M9 36.80 c0 -1.65 0.05 -1.75 1.75 -1.65 0.95 0.05 1.75 0.25 1.75 0.50 0 0.20 -0.20 0.35 -0.50 0.35 -0.30 0 -0.30 0.45 0 1.25 0.45 1.20 0.40 1.25 -1.25 1.25 -1.65 0 -1.75 -0.10 -1.75 -1.70z"/>
  <path d="M28.35 25.60 c-1 -0.15 -1.35 -0.40 -1.15 -0.90 0.15 -0.40 0.45 -1.05 0.60 -1.45 0.15 -0.40 0.10 -0.75 -0.20 -0.75 -0.25 0 -0.65 0.50 -0.80 1.15 -0.30 1.05 -0.35 1.05 -1.05 0.15 -0.40 -0.50 -1 -0.80 -1.40 -0.65 -0.70 0.25 -2.15 -1.50 -1.65 -2.05 0.15 -0.15 -0.25 -1 -0.95 -1.90 -1.20 -1.55 -1.75 -4.10 -0.80 -3.50 0.25 0.20 0.35 -0.15 0.20 -0.70 -0.20 -0.70 0 -1 0.55 -1 0.45 0 0.80 -0.40 0.80 -1 0 -0.55 -0.20 -1 -0.50 -1 -0.25 0 -0.50 -0.40 -0.55 -0.85 0 -0.75 -0.10 -0.75 -0.45 0.10 -0.35 0.80 -0.45 0.65 -0.45 -0.85 -0.05 -1.05 0.20 -1.90 0.45 -1.90 0.30 0 0.50 0.30 0.55 0.65 0 0.30 0.25 0.10 0.55 -0.55 0.40 -0.80 1 -1.10 2.25 -1.10 0.90 0 1.65 -0.20 1.65 -0.50 0 -0.25 -0.35 -0.50 -0.75 -0.50 -0.40 0 -0.75 -0.20 -0.75 -0.50 0 -0.25 -0.35 -0.50 -0.75 -0.50 -1 0 -1 -2.80 0 -3.85 0.60 -0.60 1.35 -0.70 3.15 -0.40 3.05 0.45 3.85 0.90 4.80 2.80 1.10 2.15 1 3.50 -0.20 3.80 -0.55 0.15 -1 0.60 -1 0.95 0 0.85 -2.05 0.95 -2.85 0.15 -0.80 -0.80 -2.15 -0.15 -2.15 1 0 1.20 1 3.55 1.55 3.55 0.20 0 0.75 0.15 1.25 0.35 0.65 0.25 0.80 0.15 0.55 -0.50 -0.25 -0.70 0 -0.85 1.35 -0.85 l1.60 0 0 2.75 c-0.05 2.70 -0.10 2.75 -1.50 2.75 -1.30 0 -1.40 -0.15 -1.20 -1.50 0.15 -1.15 0.05 -1.50 -0.55 -1.50 -0.45 0 -1.75 -1.05 -2.90 -2.35 -1.15 -1.30 -2.20 -2.25 -2.40 -2.10 -0.45 0.50 0.30 3.30 0.95 3.30 1.05 0 3.80 2.30 3.80 3.20 0 1 1 1.45 3.30 1.45 2.25 0 3.40 2.05 2.90 5.30 -0.30 2 -0.45 2.20 -1.75 2.20 -1.25 0 -1.45 -0.20 -1.45 -1.35 l-0.05 -1.40 -0.60 1.25 c-0.45 0.95 -0.90 1.20 -2 1.10z m-1.80 -9.75 c-0.30 -0.30 -0.70 -0.35 -0.90 -0.10 -0.25 0.20 -0.10 0.50 0.25 0.60 0.30 0.15 0.65 0.60 0.65 1.05 0.05 0.70 0.10 0.70 0.30 -0.10 0.15 -0.50 0 -1.15 -0.30 -1.45z"/>
 </g>
 <g fill="#a45738">
  <path d="M0 38.75 c0 -0.80 0.30 -1.25 0.75 -1.25 0.40 0 0.75 -0.35 0.75 -0.75 0 -0.45 0.30 -0.60 0.75 -0.45 0.40 0.20 0.75 0.05 0.75 -0.25 0 -0.25 0.65 -0.45 1.50 -0.40 1.20 0.10 1.50 0.35 1.50 1.25 0 0.85 -0.30 1.10 -1.25 1.10 -0.90 0 -1.15 -0.20 -0.95 -0.75 0.45 -1.10 -0.30 -0.90 -1.35 0.35 -1.05 1.15 -1.30 1.95 -0.35 1 0.90 -0.90 1.40 -0.75 1.40 0.40 0 0.80 -0.35 1 -1.75 1 -1.55 0 -1.75 -0.15 -1.75 -1.25z"/>
  <path d="M10.10 39.40 c-0.35 -0.35 -0.60 -1 -0.60 -1.50 0 -0.50 -0.20 -0.90 -0.50 -0.90 -0.25 0 -0.50 -0.55 -0.50 -1.25 0 -1.30 1.15 -1.75 1.80 -0.70 0.15 0.30 0.75 0.45 1.25 0.30 0.50 -0.15 1.10 -0.05 1.25 0.20 0.15 0.25 -0.05 0.45 -0.45 0.45 -1.05 0 -0.50 1.90 0.70 2.55 0.55 0.25 0.95 0.70 0.95 0.95 0 0.70 -3.20 0.60 -3.90 -0.10z"/>
  <path d="M22.25 39.60 c-1.55 -1.10 -2 -3.05 -2.10 -9.20 l-0.15 -6.35 1.35 -0.15 c2 -0.25 1.95 -1.20 -0.05 -1.90 -1.85 -0.60 -2.40 -1.80 -1.05 -2.35 0.45 -0.15 1.30 0.15 1.90 0.65 0.85 0.75 0.80 0.60 -0.30 -0.90 -0.75 -1 -1.35 -1.95 -1.35 -2.10 0 -0.30 3.10 0.20 3.50 0.55 0.10 0.10 0.20 0.80 0.25 1.55 0 1.05 0.20 1.30 1 1.20 0.55 -0.10 1.10 -0.40 1.15 -0.65 0.10 -0.25 1 -0.45 2 -0.40 1.05 0 1.55 0.15 1.25 0.30 -0.70 0.25 -0.40 2.40 0.45 3.50 0.25 0.35 0.35 1.05 0.15 1.65 -0.15 0.55 -0.10 1 0.15 1 0.25 0 0.60 -0.45 0.75 -1.05 0.15 -0.60 0.50 -0.95 0.75 -0.75 0.25 0.15 0.45 -0.10 0.45 -0.50 0 -0.45 -0.20 -0.55 -0.50 -0.25 -0.30 0.30 -0.75 0.25 -1.15 -0.20 -0.90 -0.85 -0.90 -1.45 -0.05 -1.10 0.40 0.15 0.60 -0.20 0.55 -1.10 -0.05 -0.70 -0.15 -1.70 -0.15 -2.15 -0.05 -0.50 -0.40 -0.90 -0.80 -0.90 -0.50 0 -0.75 -0.50 -0.75 -1.50 0 -1.15 -0.20 -1.50 -1 -1.50 -1.10 0 -1.20 -0.55 -0.70 -3.65 0.25 -1.35 0.55 -1.85 1.25 -1.85 0.55 0 0.95 0.35 0.95 0.75 0 0.40 0.25 0.75 0.50 0.75 0.30 0 0.50 -0.25 0.50 -0.55 0 -0.25 0.20 -0.35 0.50 -0.20 0.25 0.15 0.40 1.95 0.35 4 -0.10 3.70 0.30 5.10 1.15 3.75 0.40 -0.60 0.50 -0.45 0.50 0.55 0 0.75 0.45 1.90 1 2.60 0.55 0.70 1 1.95 0.95 2.95 0 1.60 0 1.65 -0.55 0.40 l-0.55 -1.25 -0.30 1.25 c-0.60 2.60 -1.10 2.95 -3.45 2.50 -2.60 -0.45 -4 -1.60 -3.25 -2.60 0.80 -1.05 1.15 -3 0.50 -2.75 -0.30 0.10 -0.70 0.70 -0.85 1.30 -0.30 1.30 -1.10 1.45 -1.50 0.30 -0.25 -0.75 -0.40 -0.75 -1.50 0.15 -0.95 0.75 -1.20 1.40 -1.10 2.90 0.05 1.10 -0.10 3 -0.30 4.35 -0.35 1.85 -0.35 2.35 0.20 2.35 0.35 0 0.80 0.75 0.95 1.65 0.30 1.55 0.45 1.65 2.05 1.45 0.95 -0.10 1.85 -0.40 2 -0.65 0.15 -0.25 0.30 -1.80 0.30 -3.45 0.05 -2.15 0.25 -3 0.70 -3 0.40 0 0.55 -0.30 0.40 -0.75 -0.35 -0.85 0.25 -0.95 1.30 -0.20 0.55 0.40 0.60 0.60 0.15 0.75 -0.50 0.20 -0.50 0.50 0 1.30 0.45 0.80 0.45 1.10 0 1.25 -0.40 0.15 -0.65 1.20 -0.70 2.55 -0.10 3.80 -0.55 4.85 -2.20 5 -0.85 0.10 -1.70 0.45 -1.90 0.75 -0.25 0.35 -0.35 0.20 -0.20 -0.50 0.15 -0.65 -0.05 -1.20 -0.45 -1.35 -0.40 -0.15 -0.65 -0.10 -0.65 0.10 0.30 1.85 -0.90 2.75 -2.30 1.70z m10.75 -18.40 c0 -0.40 -0.20 -0.70 -0.50 -0.70 -0.25 0 -0.50 0.45 -0.50 1.05 0 0.55 0.25 0.85 0.50 0.70 0.30 -0.15 0.50 -0.65 0.50 -1.05z"/>
  <path d="M34.35 37.65 c-0.20 -0.15 -0.35 -1.75 -0.35 -3.50 0 -3.15 0 -3.15 1 -2.15 0.50 0.50 1.85 1.55 3 2.25 3.15 2 2.25 4.50 -1.05 2.75 -0.75 -0.40 -0.95 -0.35 -0.95 0.25 0 0.75 -1.05 1.05 -1.65 0.40z"/>
  <path d="M31.85 30.55 c-0.10 -0.50 0.15 -1.25 0.60 -1.65 0.80 -0.65 0.85 -0.55 0.90 0.95 0.05 1.80 -1.05 2.35 -1.50 0.70z"/>
  <path d="M25.50 17.75 c0 -0.70 0.25 -1.25 0.55 -1.25 0.30 0 0.45 0.45 0.30 1 -0.15 0.55 -0.10 1 0.10 1 0.80 0 0.95 -0.65 0.50 -1.85 -0.35 -0.95 -0.30 -1.20 0.15 -1.05 0.35 0.15 0.70 0.70 0.80 1.30 0.10 0.60 0.40 1.10 0.65 1.10 0.25 0 0.45 0.25 0.45 0.50 0 0.30 -0.80 0.50 -1.75 0.50 -1.55 0 -1.75 -0.15 -1.75 -1.25z"/>
  <path d="M24.65 5.15 c-1.15 -0.20 -1.50 -1.65 -0.85 -3.35 0.40 -1 3.15 -1.05 5.45 -0.10 1.30 0.55 1.75 1.05 1.75 1.90 l-0.05 1.15 -0.60 -1.10 c-0.60 -1.15 -0.65 -1.15 -2.20 -0.15 -0.85 0.50 -1.70 0.80 -1.85 0.65 -0.15 -0.20 -0.30 -0.05 -0.30 0.30 0 0.40 0.40 0.50 1.15 0.30 1.20 -0.40 1.30 -0.40 2.35 -0.25 0.55 0.05 0.45 0.20 -0.25 0.50 -1.05 0.45 -2.75 0.50 -4.60 0.15z m1.80 -1.65 c0.20 0 0.40 -0.35 0.40 -0.75 0 -0.50 -0.20 -0.60 -0.60 -0.25 -0.35 0.25 -0.80 0.30 -1 0.10 -0.25 -0.20 -0.25 -0.10 -0.10 0.25 0.20 0.30 0.20 0.65 0 0.80 -0.25 0.10 -0.10 0.10 0.25 0 0.40 -0.05 0.85 -0.15 1.05 -0.15z"/>
 </g>
 <g fill="#b47b1d">
  <path d="M0 38.25 c0 -1.60 0.10 -1.75 1.50 -1.75 0.85 0 1.50 0.25 1.50 0.50 0 0.30 -0.20 0.50 -0.50 0.50 -0.25 0 -0.60 0.55 -0.80 1.25 -0.50 1.95 -1.70 1.55 -1.70 -0.50z"/>
  <path d="M2.10 39.15 c0.25 -1.25 1.40 -1.40 1.40 -0.20 0 0.60 -0.30 1.05 -0.80 1.05 -0.45 0 -0.70 -0.35 -0.60 -0.85z"/>
  <path d="M28.05 26.05 c-1.05 -0.80 -1.10 -1 -0.50 -1.95 0.40 -0.60 0.85 -1.10 1.05 -1.10 0.50 0 1.05 2.20 0.80 3.20 -0.15 0.65 -0.30 0.65 -1.35 -0.15z"/>
  <path d="M25.75 23.90 c-0.20 -0.45 -0.15 -1.15 0.05 -1.50 0.30 -0.50 0.20 -0.50 -0.35 -0.10 -0.80 0.60 -2.85 1.40 -2.35 0.90 0.20 -0.15 -0.25 -0.85 -0.95 -1.50 -0.70 -0.65 -1.15 -1.40 -0.95 -1.60 0.20 -0.20 0.70 0.10 1.10 0.60 0.60 0.90 0.65 0.85 0.55 -0.55 -0.05 -0.85 -0.35 -1.45 -0.65 -1.30 -0.95 0.35 -1.95 -1.30 -1.40 -2.25 0.30 -0.45 0.35 -1.55 0.20 -2.45 -0.20 -0.90 -0.15 -1.70 0.10 -1.75 0.25 -0.10 0.60 -1.45 0.75 -3.05 0.30 -2.85 0.30 -2.85 1.95 -2.85 0.95 0 1.70 -0.20 1.70 -0.50 0 -0.25 -0.20 -0.50 -0.50 -0.50 -0.80 0 -0.55 -1.35 0.30 -1.70 1.15 -0.45 1.70 -0.35 1.70 0.25 0 0.25 -0.20 0.35 -0.50 0.20 -0.25 -0.15 -0.50 -0.05 -0.50 0.25 0 0.35 0.40 0.45 1.15 0.20 0.60 -0.20 1.60 -0.35 2.25 -0.30 1.25 0.10 1.30 -0.05 0.55 -1.50 -0.90 -1.65 0.60 -0.85 1.60 0.90 2 3.40 0.60 5.45 -3.60 5.10 -2 -0.15 -2.20 -0.05 -2.35 1.05 -0.10 0.65 0.10 1.40 0.50 1.60 0.50 0.35 0.45 0.45 -0.20 0.45 -0.50 0 -1.10 -0.45 -1.45 -1.05 -0.35 -0.70 -0.70 -0.90 -1.05 -0.55 -0.75 0.75 0.45 4.40 1.90 5.55 0.80 0.65 1.20 1.35 1 1.80 -0.25 0.75 0.25 1.05 0.85 0.40 0.20 -0.15 1.35 -0.40 2.55 -0.45 1.70 -0.15 2.30 0 2.55 0.70 0.35 0.75 0.40 0.75 0.75 -0.15 0.40 -0.95 0.45 -0.95 0.45 0.15 0.05 0.65 0.25 1.60 0.55 2.10 0.25 0.50 0.35 1.60 0.20 2.45 -0.30 1.35 -0.50 1.55 -1.65 1.40 -1.15 -0.15 -1.30 -0.40 -1.30 -2.25 0 -1.65 -0.15 -2.10 -0.85 -2.10 -1.25 0 -2.90 1.45 -3.65 3.25 -0.55 1.20 -0.75 1.35 -1 0.65z m6.85 -3 c-0.45 -0.45 -0.60 -0.35 -0.60 0.60 0 0.95 0.15 1.05 0.60 0.60 0.45 -0.45 0.45 -0.75 0 -1.20z m-7.15 -2.15 c0.05 -0.25 -0.30 -0.10 -0.75 0.35 -0.50 0.45 -0.65 1.05 -0.40 1.45 0.25 0.45 0.45 0.40 0.75 -0.35 0.20 -0.50 0.40 -1.15 0.40 -1.45z"/>
 </g>
 <g fill="#a27838">
  <path d="M0 38.05 c0 -1.55 1.30 -2.30 2.55 -1.50 0.55 0.40 0.55 0.55 -0.15 1 -0.50 0.25 -0.90 0.85 -0.90 1.20 0 0.40 -0.35 0.75 -0.75 0.75 -0.50 0 -0.75 -0.50 -0.75 -1.45z"/>
  <path d="M2.10 38.90 c0.30 -0.90 1.40 -1.05 1.40 -0.20 0 0.45 -0.35 0.80 -0.80 0.80 -0.45 0 -0.70 -0.25 -0.60 -0.60z"/>
  <path d="M9 36.25 c0 -0.95 0.15 -1.75 0.30 -1.75 0.55 0 1.80 1.55 1.50 1.85 -0.15 0.15 -0.05 0.60 0.25 1 0.45 0.50 0.30 0.65 -0.75 0.65 -1.15 0 -1.30 -0.20 -1.30 -1.75z"/>
  <path d="M28.35 24 c-0.20 -0.80 -0.15 -1.90 0 -2.35 0.30 -0.80 0.25 -0.80 -0.50 -0.25 -0.45 0.40 -0.95 1.10 -1.10 1.65 -0.40 1.30 -1.45 1.20 -1.10 -0.10 0.20 -0.80 0.15 -0.90 -0.40 -0.45 -0.40 0.35 -1.15 0.45 -1.70 0.25 -0.75 -0.25 -0.90 -0.65 -0.75 -2.25 0.15 -1.45 0 -1.90 -0.50 -1.70 -1 0.40 -1.95 -1.10 -1.40 -2.10 0.25 -0.50 0.30 -1.60 0.05 -2.65 -0.60 -2.50 -0.55 -7.55 0.05 -7.55 0.30 0 0.50 -0.55 0.50 -1.25 0 -1.80 2.50 -4.25 4.35 -4.25 2.60 0 4.55 1 5.75 2.90 1.95 3.20 2.05 3.60 0.65 3.60 -0.90 0 -1.25 -0.25 -1.25 -1 0 -1.25 -0.25 -1.25 -1.85 0 -0.70 0.55 -1.50 0.85 -1.80 0.65 -0.30 -0.15 -0.35 -0.05 -0.15 0.25 0.20 0.35 0.70 0.60 1.10 0.60 0.40 0 0.70 0.45 0.70 1 0 1.20 -0.45 1.30 -1.25 0.15 -0.85 -1.15 -2.25 -0.50 -2.25 1.10 0 1.10 0.15 1.25 1.20 0.95 1.05 -0.25 1.25 -0.10 1.40 1.10 0.10 0.75 0.40 1.45 0.75 1.55 0.35 0.15 0.45 -0.15 0.30 -0.80 -0.20 -0.85 -0.05 -1.05 1 -1.05 1.45 0 1.95 0.90 1.40 2.80 -0.25 0.95 -0.10 1.95 0.40 2.90 0.65 1.35 0.75 1.40 1.10 0.50 0.25 -0.55 0.40 0.60 0.40 2.95 0.05 3.05 -0.10 3.95 -0.70 4.20 -0.45 0.15 -0.90 0.15 -1.05 0 -0.60 -0.55 -0.70 -4.80 -0.15 -5.10 0.35 -0.25 0.50 0.30 0.40 1.65 -0.10 1.15 0.05 2.25 0.30 2.45 0.20 0.20 0.25 0.15 0.05 -0.20 -0.15 -0.30 -0.10 -0.70 0.20 -0.90 0.25 -0.15 0.50 -0.85 0.50 -1.55 0 -1.45 -1.25 -3 -1.75 -2.20 -0.15 0.25 -0.75 0.50 -1.30 0.50 -0.80 0 -0.90 0.25 -0.65 1.40 0.20 0.75 0.55 1.65 0.80 1.95 0.30 0.35 0.40 1 0.20 1.40 -0.45 1.25 -1.65 0.85 -1.95 -0.75z m-1.65 -3.60 c-0.15 -0.25 -0.50 -0.30 -0.75 -0.15 -1 0.65 -0.40 -1.15 0.60 -1.85 0.95 -0.60 1 -0.85 0.45 -1.85 -0.50 -0.95 -0.50 -1.15 0.10 -0.95 0.35 0.15 0.70 0.70 0.80 1.30 0.20 1.45 0.90 1.40 1.30 0 0.45 -1.70 0.40 -1.90 -0.65 -1.90 -1.40 0 -4.10 -3.40 -3.75 -4.75 0.15 -0.65 -0.05 -1.35 -0.50 -1.70 -0.65 -0.55 -0.80 -0.55 -0.80 0.15 0 0.45 0.25 0.80 0.50 0.80 0.30 0 0.50 0.25 0.50 0.55 0 0.25 -0.20 0.40 -0.45 0.20 -0.85 -0.50 -1.10 0.70 -0.60 2.50 0.35 1.35 0.30 1.75 -0.15 1.75 -0.45 0 -0.60 -0.50 -0.45 -1.35 0.15 -1.20 0.05 -1.15 -0.50 0.35 -0.45 1.25 -0.50 1.95 -0.15 2.45 0.45 0.55 0.60 0.55 1 -0.05 0.40 -0.65 0.65 -0.65 1.90 0.05 1.70 1 1.75 1.70 0.20 2.55 -1.40 0.70 -1.90 1.65 -1.50 2.70 0.20 0.55 0.55 0.60 1.70 0.15 0.80 -0.30 1.30 -0.75 1.20 -0.95z m0.10 -15.80 c-0.15 -0.25 0.65 -0.35 1.75 -0.25 2.10 0.15 2.20 0.05 1.45 -1.40 -0.80 -1.40 -4.25 -1.35 -5.05 0.15 -0.50 0.90 -0.45 1 0.25 0.75 0.50 -0.20 0.80 -0.05 0.80 0.40 0 0.40 0.25 0.75 0.55 0.75 0.25 0 0.40 -0.20 0.25 -0.40z"/>
 </g>
 <g fill="#946c58">
  <path d="M22.70 39.25 c-0.20 -0.40 -0.20 -1.55 -0.10 -2.50 0.15 -1.20 0 -1.75 -0.45 -1.75 -0.40 0 -0.65 -0.70 -0.65 -2 0 -1.65 0.15 -2 0.95 -2 0.85 0 1 0.40 1.15 2.65 0.10 2.15 0.30 2.60 1.05 2.45 0.45 -0.10 1 0.20 1.15 0.65 0.15 0.40 0.60 0.75 1 0.75 0.40 0 0.70 0.50 0.70 1.25 0 0.95 -0.25 1.25 -1.05 1.25 -0.80 0 -1 -0.25 -0.80 -0.95 0.15 -0.55 -0.05 -1.10 -0.40 -1.25 -0.85 -0.30 -1.25 0.15 -1.25 1.30 0 1.10 -0.90 1.20 -1.30 0.15z"/>
  <path d="M37.60 35.30 c-0.10 -1.40 -0.10 -1.40 1 -0.70 1.60 1.10 1.75 2.30 0.25 2.20 -0.90 -0.05 -1.20 -0.35 -1.25 -1.50z"/>
  <path d="M8 35.75 c0 -1.10 1.35 -1.50 2.20 -0.60 0.90 0.90 0.55 1.35 -1.05 1.35 -0.70 0 -1.15 -0.30 -1.15 -0.75z"/>
  <path d="M29 32.60 c0 -1.05 -0.25 -2.15 -0.60 -2.50 -0.45 -0.45 -0.40 -0.65 0.25 -0.85 0.45 -0.20 0.65 -0.65 0.50 -1.05 -0.30 -0.80 0.25 -0.90 1.35 -0.20 0.60 0.40 0.65 0.55 0.05 0.95 -0.45 0.30 -0.50 0.55 -0.10 0.75 0.30 0.20 0.55 0.85 0.55 1.45 0 1.25 0.85 0.60 1.10 -0.90 0.05 -0.55 0.35 -1.15 0.60 -1.35 0.80 -0.55 -0.75 -1.90 -2.20 -1.90 -0.75 0 -1.75 -0.45 -2.20 -0.95 -0.70 -0.75 -0.75 -1.25 -0.35 -2.60 l0.55 -1.70 -0.15 1.65 c-0.15 1.25 0 1.60 0.75 1.60 0.50 0 0.90 0.25 0.90 0.50 0 0.30 0.35 0.50 0.75 0.50 0.40 0 0.75 -0.35 0.75 -0.75 0 -0.45 0.50 -0.75 1.30 -0.75 1.05 0 1.25 0.20 0.95 0.90 -0.20 0.45 -0.50 1.15 -0.65 1.55 -0.20 0.50 -0.05 0.65 0.45 0.45 0.55 -0.20 0.75 0.15 0.80 1.65 0.05 1.10 -0.10 1.95 -0.40 1.95 -0.25 0 -0.45 0.45 -0.45 1.05 0 1.45 -1.20 2.45 -2.95 2.45 -1.45 0 -1.55 -0.10 -1.55 -1.90z"/>
  <path d="M21.50 24.85 c0 -0.35 0.50 -0.90 1.05 -1.30 0.95 -0.55 1.05 -0.55 0.75 0.20 -0.15 0.45 -0.30 1.05 -0.30 1.30 0 0.25 -0.35 0.45 -0.75 0.45 -0.40 0 -0.75 -0.30 -0.75 -0.65z"/>
  <path d="M25.80 23.95 c-0.35 -1.10 -0.15 -2.45 0.30 -2.15 0.35 0.25 0.50 -0.15 0.35 -1.15 -0.05 -0.25 -0.25 -0.35 -0.45 -0.30 -0.70 0.20 0.10 -1.75 0.85 -2.05 0.45 -0.20 0.60 -0.65 0.40 -1.30 -0.20 -0.55 -0.10 -1 0.20 -1 0.30 0 0.55 0.45 0.55 1 0 1.25 0.85 1.30 1.15 0.15 0.15 -0.50 0.25 -0.05 0.30 1 0.05 1.95 -0.55 2.40 -1.45 1 -0.40 -0.75 -0.45 -0.70 -0.30 0.45 0.25 1.45 -1.50 5.50 -1.90 4.35z"/>
  <path d="M22.50 22.25 c-1.25 -0.75 -1.25 -0.75 0.65 -0.65 1.15 0.05 1.85 0.35 1.85 0.75 0 0.85 -0.95 0.80 -2.50 -0.10z"/>
  <path d="M33 21.25 c0 -0.70 -0.20 -1.25 -0.50 -1.25 -0.25 0 -0.50 -0.35 -0.50 -0.75 0 -1.20 1.10 -0.65 2 1 0.90 1.65 0.80 2.25 -0.30 2.25 -0.40 0 -0.70 -0.50 -0.70 -1.25z"/>
  <path d="M30.30 16.15 c0.15 -0.80 0.40 -1.70 0.50 -2.10 0.20 -0.55 0.10 -0.55 -0.55 -0.05 -0.40 0.35 -0.65 0.80 -0.50 1 0.15 0.25 -0.25 0.30 -0.85 0.15 -2.85 -0.70 -3.40 -3 -0.75 -3.25 1.40 -0.15 1.60 -0.30 1.45 -1.45 -0.15 -1.40 1.30 -4.50 2.25 -4.80 0.35 -0.15 0.85 0.25 1.15 0.85 0.45 0.85 0.40 1.35 -0.25 2.30 -0.50 0.80 -0.85 2.45 -0.90 4.25 -0.05 1.60 -0.30 2.95 -0.55 2.95 -0.25 0 -0.15 0.35 0.20 0.75 0.50 0.65 0.45 0.75 -0.45 0.75 -0.90 0 -1 -0.20 -0.75 -1.35z m1.35 -6.45 c0.55 -0.70 0.80 -1.40 0.65 -1.55 -0.40 -0.45 -2.30 1.35 -2.30 2.20 0 1 0.65 0.75 1.65 -0.65z"/>
  <path d="M23.55 1.95 c0.65 -0.65 1.35 -0.90 1.85 -0.70 0.75 0.30 0.75 0.40 -0.10 1.05 -0.55 0.40 -1.40 0.70 -1.90 0.70 -0.85 0 -0.80 -0.10 0.15 -1.05z"/>
 </g>
 <g fill="#b76e53">
  <path d="M0 39.25 c0 -0.40 0.25 -0.75 0.50 -0.75 0.30 0 0.50 -0.45 0.50 -1 0 -0.65 0.35 -1 1 -1 0.55 0 1 0.25 1 0.50 0 0.30 -0.35 0.50 -0.75 0.50 -0.45 0 -0.75 0.45 -0.75 1.25 0 0.80 -0.30 1.25 -0.75 1.25 -0.40 0 -0.75 -0.35 -0.75 -0.75z"/>
  <path d="M2.05 39.40 c-0.05 -0.50 0.35 -1.10 0.90 -1.35 0.50 -0.30 1.05 -0.90 1.25 -1.30 0.15 -0.45 0.10 -0.65 -0.15 -0.50 -0.25 0.15 -0.60 0.05 -0.80 -0.25 -0.35 -0.55 0.25 -0.65 1.45 -0.20 1.55 0.60 0.40 3.20 -1.35 3.20 -0.45 0 -0.90 0.30 -1 0.65 -0.15 0.35 -0.30 0.25 -0.30 -0.25z"/>
  <path d="M10.50 39.55 c-0.75 -0.20 -1.30 -0.75 -1.40 -1.45 -0.10 -0.70 -0.50 -1.10 -1.15 -1.10 -1.35 0 -1.25 -1.80 0.10 -2.15 1.25 -0.35 2.95 0.60 2.60 1.40 -0.10 0.35 0.50 1.20 1.30 1.90 0.85 0.70 1.55 1.40 1.55 1.55 0 0.40 -1.40 0.30 -3 -0.15z"/>
  <path d="M21.50 38.80 c0 -0.70 -0.25 -1.40 -0.50 -1.55 -0.60 -0.40 -0.50 -8.85 0.10 -9.25 0.20 -0.15 0.25 -0.80 0.05 -1.45 -0.20 -0.85 -0.40 -1 -0.75 -0.45 -0.30 0.45 -0.40 0.30 -0.30 -0.55 0.10 -0.85 0.55 -1.35 1.55 -1.60 l1.35 -0.35 0 5.15 c0 5.60 0.55 8.05 1.75 7.55 0.40 -0.15 0.95 0.10 1.15 0.55 1.30 2.25 2.90 -1.45 2.50 -5.70 -0.10 -1.60 0 -1.90 0.80 -1.90 1.40 0 2.20 1.50 1.40 2.75 -0.90 1.50 -0.70 1.80 0.40 0.60 0.55 -0.60 1 -1.45 1 -2 0 -0.50 0.25 -1.15 0.55 -1.45 0.90 -0.90 0.10 -2.15 -1.30 -2.15 -1.35 0 -1.70 -0.70 -0.50 -1.20 0.40 -0.15 0.75 -0.60 0.75 -0.95 0 -0.40 0.35 -1 0.75 -1.35 0.80 -0.70 1.05 -3.30 0.30 -3.60 -0.25 -0.05 -0.60 -0.80 -0.75 -1.65 -0.30 -1.45 -0.30 -1.45 0.25 -0.25 0.55 1.20 0.55 1.20 0.95 0.25 0.35 -0.80 0.45 -0.65 0.45 0.80 0.05 1.25 0.35 1.95 0.90 2.15 0.60 0.25 0.70 0.45 0.25 0.90 -0.35 0.35 -0.60 1.20 -0.60 1.95 0 0.75 -0.20 1.55 -0.50 1.70 -0.80 0.50 -0.60 1.90 0.25 1.55 1 -0.35 0.95 0.45 -0.10 1.45 -0.80 0.80 -0.80 0.90 0 1.35 0.45 0.25 0.85 0.75 0.85 1.10 0 0.75 2.10 2.80 2.85 2.80 0.85 0 2.65 1.80 2.65 2.70 0 1.05 -2.15 1.10 -3.20 0.05 -0.65 -0.65 -0.75 -0.65 -0.95 0.35 -0.15 0.65 -0.20 0.25 -0.20 -0.85 l0.10 -2 -2.50 -0.05 c-1.80 -0.05 -1.95 0 -0.60 0.15 1.80 0.20 1.85 0.30 1.85 2.20 0 1.95 0 1.95 -2 1.95 -1.70 0 -2 -0.15 -2.05 -1.10 -0.05 -0.70 -0.20 -0.45 -0.40 0.60 -0.30 1.65 -0.40 1.75 -2.45 1.80 -1.70 0.05 -2.10 -0.10 -1.90 -0.65 0.25 -0.65 -0.70 -2.15 -1.40 -2.15 -0.10 0 -0.30 0.60 -0.40 1.40 -0.10 0.95 -0.45 1.40 -1.25 1.50 -0.95 0.15 -1.15 -0.05 -1.15 -1.10z"/>
  <path d="M35.10 24 c0 -0.95 0.10 -1.35 0.25 -0.85 0.10 0.45 0.10 1.25 0 1.75 -0.15 0.45 -0.25 0.05 -0.25 -0.90z"/>
  <path d="M22.10 22.30 c-1.30 -0.40 -1.60 -0.75 -1.40 -1.55 0.25 -1 0.25 -1 -0.55 0 -0.70 0.90 -0.75 0.90 -0.45 0.10 0.15 -0.50 0.30 -1.05 0.30 -1.15 0 -0.50 1.10 -0.10 1.95 0.75 0.95 0.95 0.95 0.90 0.95 -0.80 0 -1.15 -0.15 -1.55 -0.40 -1.15 -0.35 0.55 -0.55 0.50 -1.20 -0.15 -1.10 -1.10 -1.05 -1.20 1 -1.25 1.75 -0.05 1.80 -0.05 1.65 1.80 -0.15 2.60 0 3.20 0.55 2.85 0.30 -0.15 0.50 0.05 0.50 0.45 0 0.90 -0.50 0.90 -2.90 0.10z"/>
  <path d="M26.60 21.10 c0.05 -0.80 -0.10 -1.70 -0.30 -2 -0.15 -0.30 0 -0.60 0.30 -0.75 0.35 -0.10 0.95 0.40 1.25 1.10 0.60 1.20 0.60 1.20 0.35 0.10 -0.15 -0.65 -0.10 -1.30 0.20 -1.50 0.30 -0.15 0.70 -0.95 0.85 -1.70 0.30 -1.15 0.20 -1.35 -0.65 -1.35 -1.10 0 -1.80 -0.70 -2.30 -2.30 -0.25 -0.85 -0.10 -1.15 0.75 -1.35 0.90 -0.25 1.05 -0.55 0.80 -1.80 -0.25 -1.05 -0.15 -1.55 0.30 -1.55 0.70 -0.05 2.85 -1.75 2.85 -2.25 0 -0.20 -0.35 -0.25 -0.75 -0.05 -0.40 0.15 -0.75 0.05 -0.75 -0.25 0 -0.55 1.45 -2.20 1.70 -1.90 0.80 1.05 1.80 2.75 1.80 3.05 0 0.25 -0.45 0.40 -1 0.40 -0.65 0 -1 0.35 -1 0.95 0 0.55 -0.20 1.10 -0.45 1.25 -0.25 0.15 -0.55 0.75 -0.70 1.30 -0.15 0.55 -0.05 0.90 0.15 0.75 0.75 -0.45 1.85 0.25 1.75 1.15 -0.40 3.95 -0.90 6.10 -1.55 6.10 -0.40 0 -0.55 0.30 -0.40 0.75 0.20 0.40 0.05 0.75 -0.30 0.75 -0.40 0 -0.55 0.45 -0.40 1.25 0.20 0.85 0.05 1.25 -0.40 1.25 -0.45 0 -0.55 -0.30 -0.35 -0.85 0.30 -0.85 0.25 -0.80 -0.75 0 -1 0.95 -1.05 0.95 -1 -0.55z m4 -6.10 c0.15 -1.10 0.10 -1.35 -0.40 -0.95 -0.30 0.25 -0.50 0.95 -0.35 1.45 0.35 1.35 0.50 1.25 0.75 -0.50z"/>
  <path d="M27.35 17.20 c-0.20 -0.20 -0.35 -0.70 -0.35 -1.15 0 -0.55 0.15 -0.60 0.55 -0.20 0.30 0.30 0.50 0.80 0.35 1.15 -0.10 0.30 -0.35 0.40 -0.55 0.20z"/>
  <path d="M26 7.25 c0 -0.50 0.50 -0.75 1.65 -0.75 1.15 0 1.40 0.15 0.85 0.45 -0.40 0.30 -0.90 0.35 -1.10 0.25 -0.20 -0.15 -0.40 0 -0.40 0.25 0 0.30 -0.20 0.55 -0.50 0.55 -0.25 0 -0.50 -0.35 -0.50 -0.75z"/>
  <path d="M26.60 1.50 c0.50 -0.30 1.25 -0.35 2 -0.05 1 0.45 0.90 0.50 -0.85 0.50 -1.55 0 -1.80 -0.10 -1.15 -0.45z"/>
 </g>
 <g fill="#bd9039">
  <path d="M0 37.75 c0 -1 0.25 -1.25 1.25 -1.25 0.70 0 1.25 0.25 1.25 0.50 0 0.30 -0.20 0.50 -0.50 0.50 -0.25 0 -0.50 0.35 -0.50 0.75 0 0.40 -0.35 0.75 -0.75 0.75 -0.45 0 -0.75 -0.45 -0.75 -1.25z"/>
  <path d="M28.05 25.80 c-0.45 -0.55 -0.45 -1.25 -0.05 -2.85 0.30 -1.15 0.45 -2.60 0.30 -3.25 -0.55 -2.15 2.75 -4.45 3.50 -2.50 0.40 1.10 -0.70 2.80 -1.80 2.80 -1.10 0 -1.30 1 -0.50 2.50 0.50 0.95 0.15 4 -0.50 4 -0.20 0 -0.65 -0.30 -0.95 -0.70z"/>
  <path d="M23.45 21.40 c-0.40 -0.90 -0.60 -2.10 -0.50 -2.65 0.10 -0.80 0 -0.85 -0.45 -0.40 -0.85 0.75 -2.15 -0.45 -1.70 -1.55 0.40 -1.10 1.40 -1 1 0.10 -0.20 0.55 0.15 0.35 0.90 -0.45 l1.15 -1.35 1.40 1.10 1.40 1.10 -1.25 1 c-0.65 0.50 -1.35 1.20 -1.55 1.55 -0.45 0.70 0.10 2.25 0.70 1.85 0.25 -0.15 0.45 0.10 0.45 0.50 0 1.35 -0.85 0.90 -1.55 -0.80z"/>
  <path d="M26.60 21.50 c0.10 -0.80 -0.10 -1.20 -0.45 -1.10 -1 0.15 -0.75 -1.30 0.30 -1.90 0.85 -0.40 1 -0.30 1.30 1.05 0.25 1.15 0.15 1.80 -0.50 2.40 -0.75 0.75 -0.80 0.70 -0.65 -0.45z"/>
  <path d="M33 20.75 c0 -0.40 -0.20 -0.75 -0.50 -0.75 -0.25 0 -0.50 -0.35 -0.50 -0.80 0 -0.40 0.20 -0.65 0.45 -0.50 0.25 0.20 0.60 0 0.70 -0.30 0.15 -0.35 0.30 0.20 0.30 1.25 0.05 1 -0.05 1.85 -0.20 1.85 -0.15 0 -0.25 -0.35 -0.25 -0.75z"/>
  <path d="M21.25 13.75 c0.90 -5.75 0.90 -6.25 0 -6.95 -0.90 -0.65 -0.85 -0.75 0.15 -2.35 0.55 -0.95 1.55 -2.05 2.20 -2.45 1.15 -0.70 3.90 -1.05 3.90 -0.45 0 0.20 -0.60 0.45 -1.35 0.65 -0.80 0.15 -1.85 0.90 -2.40 1.65 -0.55 0.80 -0.65 1.15 -0.25 0.85 1.10 -0.80 2.60 -1.30 2.25 -0.70 -0.60 0.95 0.25 1.50 1.35 0.85 0.80 -0.45 1.10 -0.45 1.25 0 0.15 0.50 0.45 0.50 1.20 0 1.15 -0.75 1.20 -1.25 0.10 -2.45 -0.75 -0.85 -0.75 -0.90 0 -0.65 0.45 0.20 1.25 1.10 1.80 2 1.25 2.20 0.80 4.40 -1 4.65 -0.65 0.10 -1.50 0.45 -1.80 0.70 -0.45 0.40 -0.65 0.35 -0.65 -0.15 0 -0.40 0.65 -1.15 1.50 -1.70 0.80 -0.55 1.60 -1.30 1.75 -1.65 0.25 -0.70 -0.45 -0.40 -1.75 0.70 -0.40 0.35 -1.10 0.70 -1.50 0.80 -0.40 0.10 -1.15 0.55 -1.70 1.05 -1.15 0.95 -1.60 1.05 -2.05 0.35 -0.70 -1.15 -1.20 -0.30 -1.55 2.50 -0.15 1.65 -0.65 3.40 -1.05 3.85 -0.65 0.80 -0.70 0.70 -0.40 -1.10z"/>
  <path d="M26.30 12.65 c-0.20 -0.45 -0.10 -1.05 0.20 -1.35 0.35 -0.35 0.50 -0.10 0.50 0.85 0 1.55 -0.25 1.70 -0.70 0.50z"/>
  <path d="M20.55 10.40 c0 -1.35 0.20 -2.40 0.45 -2.40 0.55 0 0.55 1.05 0 3.25 -0.35 1.35 -0.40 1.25 -0.45 -0.85z"/>
 </g>
 <g fill="#b7885b">
  <path d="M0 38.30 c0 -1.60 0.15 -1.80 1.25 -1.80 0.70 0 1.25 0.25 1.25 0.55 0 0.25 -0.20 0.40 -0.45 0.20 -0.25 -0.15 -0.55 0.35 -0.65 1.10 -0.25 2.10 -1.40 2.05 -1.40 -0.05z"/>
  <path d="M2 39.30 c0 -0.40 0.25 -0.90 0.50 -1.05 0.30 -0.15 0.50 0.15 0.50 0.70 0 0.60 -0.20 1.05 -0.50 1.05 -0.25 0 -0.50 -0.30 -0.50 -0.70z"/>
  <path d="M10.50 39.25 c0 -0.40 -0.45 -0.75 -1 -0.75 -0.65 0 -1.10 -0.45 -1.30 -1.25 -0.35 -1.50 0.05 -2.75 0.90 -2.75 0.45 0 0.40 0.15 -0.10 0.50 -0.60 0.40 -0.55 0.50 0.40 0.50 0.75 0 1.10 0.30 1.10 0.95 0 0.50 0.55 1.30 1.25 1.75 0.70 0.45 1.25 1.05 1.25 1.30 0 0.30 -0.55 0.50 -1.25 0.50 -0.80 0 -1.25 -0.30 -1.25 -0.75z"/>
  <path d="M22.50 36.75 c0 -0.95 0.25 -1.75 0.50 -1.75 0.30 0 0.50 0.35 0.50 0.75 0 0.40 0.20 0.75 0.45 0.75 0.25 0 0.35 0.45 0.20 1 -0.45 1.75 -1.65 1.20 -1.65 -0.75z"/>
  <path d="M4.15 36.80 c0.15 -0.40 0.05 -0.85 -0.30 -0.95 -0.35 -0.10 0 -0.20 0.75 -0.15 1.70 0.05 2 1.80 0.35 1.80 -0.70 0 -0.95 -0.25 -0.80 -0.70z"/>
  <path d="M33.50 34.50 c0 -1.40 0.20 -2 0.70 -2 0.80 0 4.15 1.85 5.25 2.90 0.95 0.95 0.25 1.35 -1.15 0.70 -0.95 -0.40 -1.30 -0.40 -1.45 0.05 -0.15 0.35 -0.50 0.05 -0.80 -0.65 -0.50 -1.15 -0.55 -1.15 -0.35 -0.10 0.15 0.90 0 1.10 -1 1.10 -1.05 0 -1.20 -0.20 -1.20 -2z"/>
  <path d="M29.55 28.30 c-0.50 -0.60 -0.40 -0.65 0.40 -0.45 0.60 0.15 1.05 0.45 1.05 0.70 0 0.70 -0.80 0.55 -1.45 -0.25z"/>
  <path d="M30.60 27 c-0.90 -0.20 -1.80 -0.55 -2 -0.75 -0.65 -0.60 -0.40 -7.95 0.30 -8.65 0.95 -1.05 0.75 -2.60 -0.35 -2.60 -1.05 0 -1.75 -0.75 -2.30 -2.40 -0.25 -0.90 -0.10 -1.25 0.70 -1.45 0.55 -0.15 1.10 -0.60 1.20 -1.10 0.15 -0.45 0.25 0.05 0.30 1.10 0 1 -0.20 1.85 -0.50 1.85 -0.25 0 -0.35 0.25 -0.20 0.50 0.15 0.30 0.65 0.50 1.05 0.50 0.40 0 0.60 -0.25 0.40 -0.55 -0.20 -0.35 0.10 -0.45 0.85 -0.35 0.95 0.10 1.20 0.50 1.25 1.65 0.05 0.85 0.35 2.15 0.65 3 0.50 1.15 0.70 1.30 1.05 0.75 0.35 -0.55 0.50 -0.20 0.50 1.15 0 1.15 0.20 1.80 0.50 1.60 0.60 -0.35 0.60 -0.15 0.20 0.95 -0.50 1.30 -1.20 0.90 -1.20 -0.70 0 -1.05 -0.45 -1.95 -1.35 -2.85 l-1.40 -1.25 -0.20 1.15 c-0.05 0.65 -0.40 1.35 -0.70 1.55 -0.45 0.25 -0.40 0.80 0.10 2 0.40 0.90 0.70 2.15 0.65 2.80 0 0.60 0.10 1.10 0.25 1.10 0.75 0 2.15 -1.15 2.15 -1.75 0 -0.40 0.30 -0.75 0.70 -0.75 0.55 0 0.60 0.40 0.20 2 -0.30 1.10 -0.65 2 -0.85 1.95 -0.15 -0.05 -1.05 -0.25 -1.95 -0.45z m0.10 -12.20 c0.30 -1.25 0.25 -1.40 -0.35 -0.85 -0.40 0.30 -0.65 1.05 -0.50 1.60 0.35 1.20 0.40 1.10 0.85 -0.75z"/>
  <path d="M23.35 21.30 c-0.75 -1.60 -0.75 -1.75 0.10 -2.50 0.50 -0.45 1.15 -0.80 1.45 -0.80 0.35 0 0.60 -0.35 0.60 -0.80 0 -0.45 0.25 -0.60 0.55 -0.40 0.35 0.20 0 0.85 -1 1.80 -1.75 1.65 -1.85 2 -0.80 3.10 0.85 0.80 0.95 1.30 0.35 1.30 -0.25 0 -0.80 -0.75 -1.25 -1.70z"/>
  <path d="M21.60 22.10 c-0.80 -0.10 -1.10 -0.40 -0.90 -0.95 0.15 -0.40 0.30 -0.85 0.30 -0.95 0 -0.60 1.05 -0.05 1.50 0.85 0.70 1.20 0.60 1.30 -0.90 1.05z"/>
  <path d="M26.75 21.40 c0.20 -1.05 0.10 -1.40 -0.50 -1.40 -1.05 0 -0.95 -0.85 0.25 -1.50 0.80 -0.40 1 -0.40 1 0.20 0 0.40 0.10 1 0.25 1.40 0.15 0.35 -0.10 1.10 -0.50 1.65 -0.80 0.95 -0.80 0.95 -0.50 -0.35z"/>
  <path d="M21.50 18.65 c0 -0.65 1.45 -1.90 1.75 -1.55 0.15 0.15 -0.20 0.65 -0.75 1.15 -0.55 0.50 -1 0.65 -1 0.40z"/>
  <path d="M21 14.55 c0 -0.60 0.25 -1.05 0.50 -1.05 0.30 0 0.50 0.30 0.50 0.70 0 0.40 -0.20 0.90 -0.50 1.05 -0.25 0.15 -0.50 -0.15 -0.50 -0.70z"/>
  <path d="M29.90 7.15 c0.35 -0.10 0.85 -0.70 1.15 -1.25 0.50 -0.90 0.45 -0.90 -0.50 -0.40 -1.20 0.60 -1.50 -0.20 -0.30 -0.85 1.30 -0.75 -0.45 -2.55 -2.65 -2.75 -1 -0.10 -1.50 -0.30 -1.10 -0.45 1.60 -0.65 3.75 0.50 5.15 2.70 1.80 2.90 1.75 3.35 -0.50 3.30 -1.05 0 -1.60 -0.15 -1.25 -0.30z"/>
  <path d="M23.50 5.30 c0 -0.35 0.55 -0.90 1.20 -1.20 1.05 -0.45 1.15 -0.40 0.90 0.50 -0.20 0.85 -0.10 0.95 0.90 0.65 0.70 -0.20 1 -0.15 0.80 0.15 -0.45 0.75 -3.80 0.65 -3.80 -0.10z"/>
  <path d="M23.50 3.15 c0 -0.55 0.35 -1.30 0.75 -1.65 1.25 -1.05 1.45 -0.15 0.30 1.30 -0.95 1.20 -1.05 1.25 -1.05 0.35z"/>
 </g>
 <g fill="#d38f64">
  <path d="M9.40 39.45 c-0.50 -0.25 -0.90 -0.95 -0.90 -1.45 0 -0.80 -0.35 -1 -1.75 -1 -2.95 0 -1.90 -1.50 1.50 -2.15 0.85 -0.20 1.25 -0.20 0.90 -0.05 -0.40 0.20 -0.05 0.85 1 1.90 3.05 3.10 3.15 3.30 1.55 3.30 -0.80 0 -1.85 -0.25 -2.30 -0.55z"/>
  <path d="M28.25 37.90 c0.20 -1.20 0.65 -3.35 1 -4.85 0.40 -1.50 0.60 -2.90 0.45 -3.15 -0.15 -0.20 0.10 -0.25 0.50 -0.10 0.90 0.35 1.05 1.95 0.30 2.45 -0.25 0.15 -0.50 0.60 -0.50 0.90 0 0.35 0.35 0.20 0.75 -0.35 0.35 -0.50 0.90 -0.75 1.20 -0.55 0.30 0.15 0.55 -0.05 0.55 -0.50 0 -1.45 1.70 -0.60 2 1 0.20 0.85 0.60 2 0.90 2.60 1.20 2.20 0.80 2.95 -1.65 3.10 -2.15 0.10 -2.25 0.05 -2.25 -1.30 l-0.05 -1.40 -0.70 1.25 c-0.40 0.70 -0.70 1.65 -0.75 2.15 0 0.50 -0.40 0.85 -1.05 0.85 -0.95 0 -1 -0.20 -0.70 -2.10z"/>
  <path d="M21.80 38.20 c-0.45 -1.60 0.05 -3.20 0.95 -3.20 0.75 0 1.55 3.10 1 3.95 -0.55 1 -1.65 0.55 -1.95 -0.75z"/>
  <path d="M2 38.75 c0 -0.10 0.45 -0.45 1 -0.75 0.80 -0.45 1 -0.40 1 0.25 0 0.40 -0.45 0.75 -1 0.75 -0.55 0 -1 -0.10 -1 -0.25z"/>
  <path d="M0.50 36.95 c0 -0.25 0.45 -0.45 1 -0.45 0.55 0 1 0.20 1 0.40 0 0.20 -0.45 0.40 -1 0.45 -0.55 0.05 -1 -0.10 -1 -0.40z"/>
  <path d="M35.85 35.10 c-1.15 -2.60 -1.10 -2.70 0.85 -1.60 3.15 1.90 4.25 4.10 1.20 2.45 -0.90 -0.50 -1 -0.45 -0.75 0.25 0.65 1.70 -0.50 0.70 -1.30 -1.10z"/>
  <path d="M31.10 27.15 c-0.65 -0.15 -1.30 -0.55 -1.45 -0.95 -0.15 -0.40 -0.55 -0.70 -0.95 -0.70 -0.75 0 -0.90 -1.35 -0.40 -2.70 0.30 -0.75 0.40 -0.75 1 0.05 0.35 0.50 0.70 1.35 0.70 1.95 0 0.80 0.30 1.05 1.45 1.05 0.85 0 1.35 -0.25 1.25 -0.55 -0.10 -0.30 0 -2.10 0.25 -4.05 0.25 -2.25 0.45 -2.85 0.50 -1.60 0 1 0.25 1.85 0.50 1.85 0.25 0 0.10 1.35 -0.30 3 -0.45 1.65 -0.90 2.95 -1.10 2.95 -0.15 -0.05 -0.80 -0.20 -1.45 -0.30z"/>
  <path d="M21.35 25 c-0.20 -0.75 0 -1 0.70 -1 0.60 0 0.95 0.35 0.95 1 0 0.55 -0.30 1 -0.70 1 -0.35 0 -0.80 -0.45 -0.95 -1z"/>
  <path d="M23.30 21.05 c-0.70 -1.35 -0.70 -1.45 0.90 -3 1 -0.95 1.80 -1.40 2 -1.10 0.20 0.25 -0.35 1 -1.20 1.60 -1.70 1.30 -1.85 2 -0.70 3.15 0.40 0.45 0.55 0.80 0.25 0.80 -0.30 0 -0.85 -0.65 -1.25 -1.45z"/>
  <path d="M20.50 21.65 c0 -0.25 0.25 -0.75 0.50 -1.15 0.45 -0.65 0.55 -0.65 1 0 0.75 1.10 0.60 1.50 -0.50 1.50 -0.55 0 -1 -0.15 -1 -0.35z"/>
  <path d="M27 20.50 c0 -0.25 -0.35 -0.50 -0.80 -0.50 -1 0 -0.65 -1.20 0.45 -1.40 0.60 -0.10 0.75 0.05 0.55 0.60 -0.15 0.45 -0.05 0.80 0.25 0.80 0.30 0 0.55 0.25 0.55 0.50 0 0.30 -0.20 0.50 -0.50 0.50 -0.25 0 -0.50 -0.20 -0.50 -0.50z"/>
  <path d="M28.80 19.55 c-0.15 -0.25 0.05 -1.30 0.40 -2.35 l0.75 -1.95 0 2.10 c0.05 2 -0.55 3.15 -1.15 2.20z"/>
  <path d="M30.65 17.75 c-0.15 -0.45 -0.15 -1.55 0 -2.50 l0.25 -1.65 -1.40 0.80 c-1.35 0.80 -1.50 0.80 -2.35 0 -1 -1.05 -0.50 -1.85 0.55 -0.90 0.45 0.30 1.05 0.50 1.40 0.35 0.45 -0.15 0.30 -0.35 -0.35 -0.65 -0.55 -0.20 -1.30 -0.70 -1.65 -1.05 -0.55 -0.55 -0.55 -0.70 0.10 -0.95 0.45 -0.15 0.80 -0.90 0.80 -1.55 0 -1.40 1.20 -2.60 2.65 -2.65 0.90 0 1.20 1.25 0.40 1.75 -0.30 0.15 -0.80 0.95 -1.20 1.75 l-0.75 1.45 1.15 -0.75 c1.45 -0.95 1.65 -0.40 1.20 3 -0.20 1.40 -0.15 2.75 0.10 3.05 0.60 0.60 0.55 1.25 -0.05 1.25 -0.30 0 -0.65 -0.35 -0.85 -0.75z"/>
  <path d="M26.90 1.65 c0.60 -0.10 1.50 -0.10 2 0 0.45 0.15 -0.05 0.25 -1.15 0.20 -1.10 0 -1.50 -0.10 -0.85 -0.20z"/>
 </g>
 <g fill="#c2a668">
  <path d="M0 38.50 c0 -0.25 0.35 -0.50 0.75 -0.50 0.40 0 0.75 0.25 0.75 0.50 0 0.30 -0.35 0.50 -0.75 0.50 -0.40 0 -0.75 -0.20 -0.75 -0.50z"/>
  <path d="M0 37 c0 -0.25 0.45 -0.50 1.05 -0.50 0.55 0 0.85 0.25 0.70 0.50 -0.15 0.30 -0.65 0.50 -1.05 0.50 -0.40 0 -0.70 -0.20 -0.70 -0.50z"/>
  <path d="M28 24.40 c0 -0.35 0.15 -1.20 0.35 -1.85 0.30 -1.10 0.30 -1.10 0.95 0.45 0.90 2.05 0.90 2 -0.30 2 -0.55 0 -1 -0.30 -1 -0.60z"/>
  <path d="M26.75 21 c0.25 -0.70 0.10 -1 -0.45 -1 -1.05 0 -1.05 -0.80 0 -1.20 1.10 -0.45 1.30 -0.40 0.90 0.25 -0.15 0.30 -0.05 0.70 0.25 0.90 0.30 0.20 0.45 0.75 0.25 1.20 -0.45 1.20 -1.35 1.05 -0.95 -0.15z"/>
  <path d="M23 19.65 c0 -0.80 2.85 -3.25 3.20 -2.75 0.15 0.25 -0.10 0.80 -0.60 1.20 -1.95 1.60 -2.60 2 -2.60 1.55z"/>
  <path d="M22.55 17.15 c0.65 -0.80 1.25 -1.50 1.35 -1.60 0.05 -0.10 0.25 -0.05 0.45 0.10 0.40 0.40 -1.80 2.85 -2.50 2.85 -0.30 0 0 -0.60 0.70 -1.35z"/>
  <path d="M30.85 18.15 c-0.65 -0.65 -0.35 -1.60 0.40 -1.35 0.40 0.20 0.75 0.60 0.75 1 0 0.75 -0.60 0.95 -1.15 0.35z"/>
  <path d="M30.80 14.40 c0.30 -1.60 0.30 -1.60 -0.45 -0.65 -0.80 1 -0.80 1 -0.85 -0.10 0 -0.80 0.30 -1.15 1 -1.15 0.80 0 1 0.35 1 1.75 0 0.95 -0.20 1.75 -0.50 1.75 -0.25 0 -0.35 -0.70 -0.20 -1.60z"/>
  <path d="M21.25 13.40 c0.15 -0.90 0.40 -2.55 0.55 -3.65 l0.20 -2 -0.70 2 -0.70 2 -0.05 -2.90 c-0.05 -3.65 1.75 -6.85 3.85 -6.85 0.50 0 0.30 0.55 -0.65 1.80 l-1.40 1.80 1.30 -0.80 c0.80 -0.55 1.35 -0.65 1.60 -0.35 0.35 0.60 -0.60 2.55 -1.60 3.30 -0.40 0.30 -0.95 2.05 -1.30 3.90 -0.30 1.85 -0.75 3.35 -1 3.35 -0.25 0 -0.30 -0.70 -0.10 -1.60z"/>
  <path d="M29.70 9.05 c0.20 -0.30 0 -0.55 -0.55 -0.55 -0.70 0 -0.50 -0.40 0.85 -1.45 1.95 -1.65 1.85 -2.60 -0.15 -1.05 -1.40 1.10 -1.85 1.25 -1.85 0.50 0 -0.30 0.65 -0.90 1.45 -1.40 1.20 -0.75 1.40 -1.05 0.95 -1.85 -0.25 -0.55 0.10 -0.30 0.80 0.50 1.25 1.45 1.75 3.25 0.90 3.25 -0.20 0 -0.60 0.50 -0.85 1.10 -0.30 0.60 -0.80 1.20 -1.20 1.30 -0.40 0.15 -0.55 0 -0.35 -0.35z"/>
  <path d="M25 7.05 c0 -0.55 1.40 -2.05 1.95 -2.05 0.90 0 1 0.75 0.20 1.60 -0.85 0.95 -2.15 1.20 -2.15 0.45z"/>
 </g>
 <g fill="#e2a384">
  <path d="M8.60 39.40 c-0.35 -0.35 -0.60 -0.85 -0.60 -1.20 0 -0.30 -0.35 -0.70 -0.75 -0.90 -0.40 -0.15 -0.75 -0.05 -0.75 0.20 0 0.30 -0.70 0.50 -1.50 0.50 -1.35 0 -1.45 -0.10 -1.05 -0.95 1.10 -2 6.05 -2.35 6.05 -0.35 0 0.35 0.55 1.05 1.25 1.50 0.70 0.45 1.25 1.05 1.25 1.30 0 0.70 -3.20 0.60 -3.90 -0.10z"/>
  <path d="M21.80 38.15 c-0.50 -3.25 -0.35 -5.15 0.40 -5.15 1 0 1.10 0.30 1.50 3.90 0.30 2.85 0.25 3.10 -0.60 3.10 -0.75 0 -1.05 -0.45 -1.30 -1.85z"/>
  <path d="M28.70 37.90 c0.15 -1.20 0.40 -2.70 0.45 -3.40 0.35 -2.40 1 -4.50 1.40 -4.50 0.65 0 0.55 1.70 -0.10 2.35 -0.30 0.30 -0.45 0.85 -0.30 1.25 0.20 0.45 0.40 0.25 0.60 -0.45 0.50 -1.60 1.25 -1.45 1.25 0.25 0 0.95 0.15 1.15 0.45 0.70 0.25 -0.40 0.20 -1.60 -0.10 -2.75 -0.40 -1.50 -0.35 -2.10 0.05 -2.25 1.35 -0.45 0.45 -1.60 -1.75 -2.20 -2.55 -0.70 -3.70 -2.40 -1.70 -2.40 0.60 0 1.05 0.30 1.05 0.80 0 0.45 0.40 0.70 0.90 0.65 1.60 -0.15 2.10 0.05 2.10 0.80 0 0.40 0.25 0.75 0.50 0.75 0.30 0 0.50 0.35 0.50 0.75 0 0.40 -0.20 0.75 -0.50 0.75 -0.25 0 -0.50 0.25 -0.50 0.55 0 0.30 0.35 0.45 0.75 0.25 0.55 -0.20 0.75 0.10 0.75 1.05 0 1.30 1.60 3.15 2.75 3.15 0.30 0 1.10 0.55 1.75 1.25 0.95 1 1 1.25 0.35 1.25 -0.45 0 -0.95 -0.20 -1.10 -0.50 -0.50 -0.80 -1.25 -0.60 -1.25 0.40 -0.05 0.45 -0.35 0.10 -0.80 -0.85 -0.85 -2 -1.40 -1.85 -0.75 0.25 0.25 0.80 0.60 2.05 0.75 2.85 l0.30 1.35 -4.05 0 -4.05 0 0.30 -2.10z m4.80 -1.40 c0 -0.25 -0.35 -0.50 -0.75 -0.50 -0.40 0 -0.75 0.25 -0.75 0.50 0 0.30 0.35 0.50 0.75 0.50 0.40 0 0.75 -0.20 0.75 -0.50z"/>
  <path d="M21.50 27 c0 -2.35 0.15 -3 0.75 -3 0.60 0 0.75 0.65 0.75 3 0 2.35 -0.15 3 -0.75 3 -0.60 0 -0.75 -0.65 -0.75 -3z"/>
  <path d="M33 22.80 c0 -0.80 0.30 -1.30 0.70 -1.30 0.45 0 0.60 0.35 0.45 1 -0.40 1.55 -1.15 1.70 -1.15 0.30z"/>
  <path d="M21 21.30 c0 -1.10 0.85 -1.40 1.20 -0.50 0.45 1.10 0.40 1.20 -0.45 1.20 -0.40 0 -0.75 -0.30 -0.75 -0.70z"/>
  <path d="M27.40 14.45 c-1.20 -0.70 -1.15 -2.80 0.10 -3.45 0.55 -0.30 1 -0.90 1 -1.30 0 -0.40 0.20 -0.65 0.45 -0.45 0.25 0.15 0.60 0.05 0.80 -0.25 0.15 -0.25 -0.05 -0.50 -0.50 -0.50 -0.60 0 -0.35 -0.40 0.70 -1.30 1.65 -1.35 2.10 -2.50 0.80 -2 -0.40 0.15 -0.75 0.05 -0.75 -0.20 0 -0.30 0.25 -0.50 0.55 -0.50 0.30 0 0.45 -0.35 0.25 -0.75 -0.45 -1.25 0.05 -0.85 1.15 0.95 0.60 0.90 1.05 2.30 1 3.10 0 1.15 -0.10 1.25 -0.40 0.50 -0.30 -0.85 -0.55 -0.75 -1.95 1 -2 2.40 -2.05 3.10 -0.15 1.75 l1.40 -1 -0.10 1.10 c-0.05 0.60 -0.15 1.55 -0.25 2.10 -0.05 0.55 -0.20 0.75 -0.30 0.40 -0.20 -0.40 -0.55 -0.30 -1.25 0.40 -1.10 1.10 -1.35 1.10 -2.55 0.40z m1.85 -0.95 c-0.15 -0.25 -0.65 -0.50 -1.05 -0.50 -0.40 0 -0.60 0.25 -0.45 0.50 0.15 0.30 0.65 0.50 1.05 0.50 0.40 0 0.60 -0.20 0.45 -0.50z"/>
  <path d="M22.50 3.70 c0.05 -1.05 2.30 -2.95 2.70 -2.30 0.15 0.25 -0.40 1.10 -1.20 1.85 -1.30 1.25 -1.50 1.30 -1.50 0.45z"/>
 </g>
 <g fill="#d3b38f">
  <path d="M0 39 c0 -0.55 0.35 -1 0.75 -1 0.85 0 0.90 0.10 0.45 1.20 -0.45 1.15 -1.20 1 -1.20 -0.20z"/>
  <path d="M2 39.40 c0 -0.85 3.60 -3.90 4.65 -3.90 0.50 0 0.85 0.40 0.85 1 0 0.55 -0.35 1 -0.75 1 -0.40 0 -0.75 0.25 -0.75 0.50 0 0.30 -0.35 0.50 -0.75 0.50 -0.40 0 -0.75 0.35 -0.75 0.75 0 0.45 -0.45 0.75 -1.25 0.75 -0.70 0 -1.25 -0.25 -1.25 -0.60z"/>
  <path d="M35.35 38.90 c-0.30 -1.05 -0.10 -1.80 0.35 -1.35 0.50 0.55 0.80 2.45 0.40 2.45 -0.25 0 -0.60 -0.50 -0.75 -1.10z"/>
  <path d="M34.35 35.65 c-0.60 -0.60 -0.35 -3.15 0.30 -3.15 0.85 0.05 3.05 1.95 2.65 2.35 -0.20 0.20 -0.80 0.05 -1.40 -0.30 -0.95 -0.60 -1 -0.55 -0.75 0.40 0.25 1.05 -0.15 1.40 -0.80 0.70z"/>
  <path d="M21.80 34.70 c-0.15 -0.45 -0.30 -1.80 -0.30 -3 0 -1.60 0.20 -2.20 0.75 -2.20 0.40 0 0.80 0.30 0.80 0.65 0.40 4.05 0.35 5.35 -0.25 5.35 -0.40 0 -0.85 -0.35 -1 -0.80z"/>
  <path d="M32.50 30.80 c0 -0.90 0.20 -1.15 0.90 -0.95 1.25 0.30 1.30 2.15 0.05 2.15 -0.65 0 -0.95 -0.35 -0.95 -1.20z"/>
  <path d="M30 26.50 c0 -0.25 0.45 -0.50 1 -0.50 0.55 0 1 0.25 1 0.50 0 0.30 -0.45 0.50 -1 0.50 -0.55 0 -1 -0.20 -1 -0.50z"/>
  <path d="M28.55 25.55 c-0.35 -0.65 -0.45 -1.65 -0.15 -2.60 l0.40 -1.60 0.70 2.10 c0.45 1.50 0.50 2.25 0.15 2.60 -0.40 0.40 -0.70 0.25 -1.10 -0.50z"/>
  <path d="M33 22.45 c0 -0.55 0.25 -0.85 0.50 -0.70 0.30 0.15 0.50 0.65 0.50 1.05 0 0.40 -0.20 0.70 -0.50 0.70 -0.25 0 -0.50 -0.45 -0.50 -1.05z"/>
  <path d="M23 19.75 c0 -0.15 0.65 -1 1.50 -1.90 1.10 -1.20 1.50 -1.40 1.50 -0.75 0 0.45 -0.65 1.30 -1.50 1.90 -0.80 0.60 -1.50 0.95 -1.50 0.75z"/>
  <path d="M30.50 16.55 c0 -0.85 0.25 -1.65 0.55 -1.85 0.45 -0.25 0.50 0.05 0.25 1 -0.20 0.75 -0.10 1.30 0.20 1.30 0.25 0 0.50 0.25 0.50 0.50 0 0.30 -0.35 0.50 -0.75 0.50 -0.50 0 -0.75 -0.50 -0.75 -1.45z"/>
  <path d="M21.05 14.65 c0 -0.20 0.20 -0.85 0.45 -1.40 0.40 -0.95 0.45 -0.95 0.45 0.10 0.05 0.60 -0.15 1.25 -0.45 1.40 -0.25 0.15 -0.50 0.15 -0.45 -0.10z"/>
  <path d="M28.90 13.15 c-0.60 -0.15 -0.90 -0.65 -0.85 -1.55 0.05 -0.85 0.15 -1.05 0.30 -0.45 0.30 1.10 0.45 1.10 2.25 -0.20 l1.50 -1.10 -0.35 1.20 c-0.25 0.65 -0.40 1.45 -0.40 1.70 0 0.60 -1.05 0.75 -2.45 0.40z"/>
  <path d="M22.05 9.40 c-0.05 -0.80 -0.25 -1.40 -0.50 -1.40 -0.25 0 -0.35 -0.50 -0.15 -1.10 0.25 -1.05 0.30 -1.05 0.65 -0.10 0.30 0.90 0.35 0.90 0.70 0.10 0.20 -0.50 0.80 -0.90 1.40 -0.90 1 0 1 0 0.05 1.05 -0.50 0.55 -1.20 1.65 -1.55 2.35 l-0.55 1.35 -0.05 -1.35z"/>
  <path d="M29.85 8.55 c-0.15 -0.75 0.15 -1.35 0.95 -2 0.80 -0.65 1.05 -1.10 0.70 -1.30 -0.30 -0.20 -1.10 0.15 -1.80 0.80 -0.65 0.60 -1.35 0.95 -1.55 0.75 -0.25 -0.20 0.15 -0.80 0.85 -1.35 0.70 -0.50 1.55 -1.20 1.90 -1.45 0.40 -0.40 0.60 -0.35 0.60 0 0 0.30 0.35 0.90 0.75 1.30 0.40 0.45 0.75 1.35 0.70 2.10 0 0.75 -0.15 1.05 -0.30 0.70 -0.20 -0.50 -0.55 -0.40 -1.40 0.40 l-1.10 1.05 -0.30 -1z"/>
  <path d="M21.50 4.45 c0 -0.75 3.10 -3.45 3.60 -3.15 0.25 0.15 -0.30 1.05 -1.20 2 -1.65 1.75 -2.40 2.10 -2.40 1.15z"/>
 </g>
 <g fill="#ebcb7e">
  <path d="M28 24.90 c0 -0.35 0.15 -1.15 0.30 -1.80 l0.35 -1.15 0.65 1.35 c0.95 1.80 0.90 2.20 -0.30 2.20 -0.55 0 -1 -0.30 -1 -0.60z"/>
  <path d="M33 23.05 c0 -0.60 0.25 -1.05 0.50 -1.05 0.30 0 0.50 0.30 0.50 0.70 0 0.40 -0.20 0.90 -0.50 1.05 -0.25 0.15 -0.50 -0.15 -0.50 -0.70z"/>
  <path d="M23.50 19.25 c1.85 -2.40 2.50 -2.95 2.50 -2.20 0 0.40 -0.75 1.30 -1.60 1.95 -1.30 0.95 -1.50 1 -0.90 0.25z"/>
  <path d="M25.50 19.55 c0 -0.25 0.35 -0.55 0.75 -0.75 0.45 -0.15 0.75 0 0.75 0.45 0 0.40 -0.35 0.75 -0.75 0.75 -0.40 0 -0.75 -0.20 -0.75 -0.45z"/>
  <path d="M20.75 8.40 c0.15 -2.90 1.45 -5.90 2.60 -5.90 0.35 0 0.65 -0.20 0.65 -0.50 0 -0.25 0.30 -0.50 0.70 -0.50 0.50 0 0.25 0.55 -0.70 1.55 -1.40 1.55 -2.30 3.80 -1.80 4.35 0.15 0.10 0.35 -0.05 0.50 -0.45 0.10 -0.40 0.35 -1.10 0.50 -1.55 0.30 -0.95 2.30 -1.25 2.30 -0.40 0 0.30 -0.55 1.10 -1.20 1.75 -0.65 0.65 -1.45 1.80 -1.70 2.60 l-0.50 1.40 -0.05 -1.35 c-0.05 -1.95 -0.95 -1.75 -1.20 0.25 -0.15 0.85 -0.15 0.30 -0.10 -1.25z"/>
  <path d="M30.40 7.10 c0.55 -0.60 1 -0.70 1.20 -0.40 0.65 0.95 0.45 1.30 -0.85 1.30 -1.20 0 -1.20 -0.05 -0.35 -0.90z"/>
  <path d="M32.55 7.45 c0 -0.40 -0.35 -1.15 -0.70 -1.65 -0.65 -0.90 -0.75 -0.90 -2.05 -0.05 -1.15 0.75 -1.30 0.75 -1 0.10 0.15 -0.45 0.70 -0.95 1.25 -1.10 1.10 -0.35 1.20 -0.80 0.35 -1.75 -0.55 -0.60 -0.50 -0.60 0.25 -0.05 0.45 0.35 0.85 0.90 0.85 1.20 0 0.30 0.35 0.90 0.80 1.40 0.45 0.50 0.70 1.30 0.55 1.80 -0.15 0.65 -0.25 0.70 -0.30 0.10z"/>
  <path d="M25.50 6.55 c0 -0.25 0.35 -0.70 0.75 -1.05 0.65 -0.50 0.75 -0.45 0.75 0.45 0 0.60 -0.30 1.05 -0.75 1.05 -0.40 0 -0.75 -0.20 -0.75 -0.45z"/>
 </g>
 <g fill="#f1c8a9">
  <path d="M0 39 c0 -0.55 0.25 -1 0.50 -1 0.30 0 0.50 0.45 0.50 1 0 0.55 -0.20 1 -0.50 1 -0.25 0 -0.50 -0.45 -0.50 -1z"/>
  <path d="M7 39 c-0.35 -0.65 -1.05 -1 -2.15 -1 l-1.60 -0.05 1.40 -1.20 c1.85 -1.65 4.85 -1.60 4.85 0.05 0 0.35 0.55 1.05 1.25 1.50 1.85 1.20 1.55 1.70 -1 1.70 -1.70 0 -2.35 -0.25 -2.75 -1z"/>
  <path d="M22.25 38.65 c-0.65 -2.55 -0.75 -12.10 -0.15 -13.55 0.50 -1.15 0.65 -0.50 0.95 4.95 0.15 3.45 0.45 7.10 0.65 8.15 0.25 1.40 0.20 1.80 -0.35 1.80 -0.40 0 -0.90 -0.60 -1.10 -1.35z"/>
  <path d="M30 37 c0 -1.65 0.20 -3 0.50 -3 0.30 0 0.50 -0.45 0.50 -1 0 -0.55 0.25 -1 0.50 -1 0.55 0 0.65 1.60 0.20 5.40 -0.25 1.70 -0.55 2.60 -1 2.60 -0.50 0 -0.70 -0.80 -0.70 -3z"/>
  <path d="M35.25 38.10 c-0.20 -1.15 -0.60 -2.25 -0.80 -2.40 -0.25 -0.15 -0.45 -0.75 -0.45 -1.30 0 -0.60 -0.30 -1.45 -0.70 -1.85 -0.40 -0.45 -0.90 -1.45 -1.10 -2.20 -0.30 -1.40 -0.30 -1.40 0.75 -0.75 0.60 0.35 1.20 1.10 1.35 1.70 0.15 0.55 1.25 1.65 2.50 2.45 1.90 1.20 2.80 2.25 1.95 2.25 -0.45 0 -2.50 -1.25 -2.85 -1.75 -0.70 -0.95 -1 0.25 -0.45 1.70 0.35 0.80 0.55 2.10 0.45 2.85 -0.20 1.30 -0.25 1.25 -0.65 -0.70z"/>
  <path d="M32.85 28 c-0.15 -0.60 -0.70 -1 -1.25 -1 -0.60 0 -1.20 -0.25 -1.35 -0.50 -0.20 -0.30 -0.50 -0.40 -0.70 -0.30 -0.85 0.55 -1.70 -0.65 -1.35 -1.95 0.30 -1.10 0.45 -1.25 1.05 -0.75 0.40 0.35 0.75 1.05 0.75 1.55 0 0.70 0.35 0.95 1.50 0.95 1 0 1.50 0.25 1.50 0.75 0 0.40 0.25 0.75 0.50 0.75 0.30 0 0.50 0.35 0.50 0.75 0 1.10 -0.85 0.90 -1.15 -0.25z"/>
  <path d="M24 18.65 c1.25 -1.55 2 -2.05 2 -1.25 0 0.25 -0.75 0.95 -1.60 1.60 l-1.65 1.20 1.25 -1.55z"/>
  <path d="M30.85 17.65 c-0.60 -0.60 -0.35 -1.10 0.40 -0.85 0.40 0.20 0.75 0.50 0.75 0.75 0 0.55 -0.70 0.60 -1.15 0.10z"/>
  <path d="M27.55 14.30 c-0.45 -0.55 -0.30 -0.60 0.70 -0.40 0.75 0.10 1.25 0 1.25 -0.35 0 -0.45 -1.40 -0.80 -2.60 -0.60 -0.85 0.10 -0.35 -1.45 0.60 -1.95 0.80 -0.45 1 -0.40 1 0.25 0 0.40 0.35 0.75 0.75 0.75 0.40 0 0.75 -0.15 0.75 -0.40 0 -0.20 0.45 -0.65 1 -1 1.60 -1 1.30 0.85 -0.45 2.80 -1.65 1.75 -2.15 1.95 -3 0.90z"/>
  <path d="M29.85 8.35 c-0.30 -0.85 1.45 -2.05 1.90 -1.30 0.35 0.50 -0.60 1.95 -1.25 1.95 -0.20 0 -0.50 -0.30 -0.65 -0.65z"/>
  <path d="M32.55 7.75 c0 -0.55 -0.40 -1.60 -0.85 -2.25 l-0.85 -1.25 1.10 1.05 c0.75 0.70 1.05 1.45 0.90 2.25 -0.15 1 -0.25 1 -0.30 0.20z"/>
  <path d="M28 6.70 c0 -0.45 1.65 -1.65 2.20 -1.70 0.30 0 0 0.45 -0.60 1 -1.10 1.05 -1.60 1.25 -1.60 0.70z"/>
  <path d="M22.20 3.70 c0.15 -0.45 0.30 -0.90 0.30 -1 0 -0.10 0.35 -0.20 0.75 -0.20 0.40 0 0.75 -0.20 0.75 -0.50 0 -0.25 0.25 -0.50 0.55 -0.50 0.30 0 0.05 0.70 -0.55 1.50 -1.15 1.60 -2.30 2.05 -1.80 0.70z"/>
 </g>
 <g fill="#f7e1c6">
  <path d="M0 39.25 c0 -0.40 0.25 -0.75 0.50 -0.75 0.30 0 0.50 0.35 0.50 0.75 0 0.40 -0.20 0.75 -0.50 0.75 -0.25 0 -0.50 -0.35 -0.50 -0.75z"/>
  <path d="M2 39.50 c0 -0.70 3.50 -3.50 4.35 -3.50 0.70 0 4.15 3.05 4.15 3.75 0 0.45 -3.90 0.25 -4.10 -0.20 -0.10 -0.30 -1.05 -0.30 -2.25 -0.10 -1.20 0.25 -2.15 0.25 -2.15 0.05z"/>
  <path d="M22.80 39.55 c-0.20 -0.25 -0.45 -1.50 -0.60 -2.75 -0.40 -2.85 0.60 -3.20 1.05 -0.40 0.20 1 0.45 2.25 0.60 2.75 0.25 0.90 -0.60 1.20 -1.05 0.40z"/>
  <path d="M38 35.50 c0 -0.25 -0.45 -0.50 -1 -0.50 -0.55 0 -1 -0.20 -1 -0.50 0 -0.25 -0.20 -0.50 -0.50 -0.50 -0.25 0 -0.50 0.40 -0.50 0.85 0 0.60 -0.15 0.70 -0.50 0.35 -0.55 -0.55 -0.15 -2.20 0.50 -2.20 0.25 0 1.25 0.45 2.20 1.05 1.75 1 2.35 1.95 1.30 1.95 -0.25 0 -0.50 -0.20 -0.50 -0.50z"/>
  <path d="M22 30.20 c0 -2.05 0.20 -3.15 0.50 -2.95 0.30 0.15 0.50 1.65 0.50 3.30 0 1.65 -0.20 2.95 -0.50 2.95 -0.30 0 -0.50 -1.45 -0.50 -3.30z"/>
  <path d="M33 28.25 c0 -0.40 0.25 -0.75 0.50 -0.75 0.30 0 0.50 0.35 0.50 0.75 0 0.40 -0.20 0.75 -0.50 0.75 -0.25 0 -0.50 -0.35 -0.50 -0.75z"/>
  <path d="M31.25 26.50 c-0.15 -0.25 0.15 -0.50 0.70 -0.50 0.60 0 1.05 0.25 1.05 0.50 0 0.30 -0.30 0.50 -0.70 0.50 -0.40 0 -0.90 -0.20 -1.05 -0.50z"/>
  <path d="M28 25.05 c0 -0.25 0.15 -0.85 0.30 -1.30 0.25 -0.65 0.40 -0.70 0.75 -0.15 0.65 1 0.55 1.90 -0.30 1.90 -0.40 0 -0.75 -0.20 -0.75 -0.45z"/>
  <path d="M33 22.75 c0 -0.40 0.25 -0.75 0.50 -0.75 0.30 0 0.50 0.35 0.50 0.75 0 0.40 -0.20 0.75 -0.50 0.75 -0.25 0 -0.50 -0.35 -0.50 -0.75z"/>
  <path d="M24.60 18 c0.35 -0.55 0.80 -1 1 -1 0.75 0 0.40 0.75 -0.60 1.40 -0.95 0.60 -1 0.55 -0.40 -0.40z"/>
  <path d="M29.55 12.05 c0.85 -1.30 2.45 -2.25 2.45 -1.45 -0.05 1.05 -1.30 2.40 -2.20 2.40 -0.65 0 -0.70 -0.15 -0.25 -0.95z"/>
  <path d="M22 9.15 c0 -0.65 -0.20 -1.15 -0.50 -1.15 -1.15 0 -0.50 -2.75 1.30 -5.45 0.10 -0.05 0.40 0 0.70 0.20 0.35 0.20 0.20 0.75 -0.50 1.60 -1.10 1.40 -1.35 3.45 -0.40 3.75 0.40 0.15 0.40 0.45 0 1.20 -0.55 0.90 -0.55 0.90 -0.60 -0.15z"/>
  <path d="M25.60 6.40 c0.30 -0.80 1.80 -1.70 2.20 -1.25 0.45 0.45 -0.75 1.85 -1.65 1.85 -0.40 0 -0.65 -0.25 -0.55 -0.60z"/>
  <path d="M28 6.70 c0 -0.50 1.40 -1.70 2.05 -1.70 0.35 0 0.20 0.45 -0.45 1 -1.05 1 -1.60 1.25 -1.60 0.70z"/>
 </g>
 <g fill="#fbf6e4">
  <path d="M2 39.60 c0 -0.20 0.60 -0.95 1.40 -1.65 1.60 -1.50 3.20 -1.30 5.45 0.75 l1.40 1.30 -4.15 0 c-2.25 0 -4.10 -0.15 -4.10 -0.40z"/>
  <path d="M22.40 37.20 c-0.25 -0.20 -0.40 -1.60 -0.40 -3.15 0 -1.95 0.15 -2.60 0.55 -2.20 0.25 0.25 0.45 1.70 0.35 3.10 -0.10 1.45 -0.30 2.45 -0.50 2.25z"/>
  <path d="M22 29 c0 -0.55 0.25 -1 0.50 -1 0.30 0 0.50 0.45 0.50 1 0 0.55 -0.20 1 -0.50 1 -0.25 0 -0.50 -0.45 -0.50 -1z"/>
  <path d="M24.45 18.35 c1.30 -1.40 1.55 -1.60 1.55 -0.95 0 0.20 -0.65 0.80 -1.40 1.30 l-1.35 0.95 1.20 -1.30z"/>
  <path d="M29.50 12.55 c0 -0.60 1.45 -2.05 2.05 -2.05 0.65 0 0.55 0.60 -0.25 1.65 -0.70 0.90 -1.80 1.15 -1.80 0.40z"/>
  <path d="M22 8.80 c0 -0.45 -0.20 -0.80 -0.50 -0.80 -0.25 0 -0.50 -0.45 -0.50 -1 0 -1.40 1.85 -4.70 2.25 -4.05 0.15 0.30 -0.05 1.05 -0.45 1.65 -0.95 1.30 -1.05 2.95 -0.25 3.75 0.40 0.40 0.40 0.65 0 0.85 -0.30 0.20 -0.55 0 -0.55 -0.40z"/>
  <path d="M23 6.55 c0 -1 1.35 -2.40 1.85 -1.85 0.45 0.40 -0.70 2.80 -1.35 2.80 -0.25 0 -0.50 -0.40 -0.50 -0.95z"/>
  <path d="M25.50 6.50 c0 -0.25 0.50 -0.70 1.05 -1.05 0.85 -0.45 1.15 -0.40 1.50 0.10 0.30 0.55 0.55 0.55 1.05 0.05 0.30 -0.30 0.80 -0.60 1.10 -0.60 0.25 0 -0.05 0.50 -0.65 1.05 -0.95 0.90 -1.25 0.95 -1.65 0.40 -0.35 -0.55 -0.55 -0.55 -0.75 -0.05 -0.30 0.70 -1.65 0.80 -1.65 0.10z"/>
 </g>
</svg>