<?xml version="1.0" encoding="utf-8"?>
<!DOCTYPE svg PUBLIC "-//W3C//DTD SVG 1.0//EN" "http://www.w3.org/TR/2001/REC-SVG-20010904/DTD/svg10.dtd">
<svg version="1.0" xmlns="http://www.w3.org/2000/svg" width="40px" height="40px" viewBox="0 0 40 40" preserveAspectRatio="xMidYMid meet">
 <g fill="#0a0808">
  <path d="M24.50 39.05 c0 -0.55 0.25 -1.15 0.50 -1.30 0.30 -0.15 0.50 -0.75 0.50 -1.30 0 -1.35 0.90 -1.20 1.60 0.30 0.30 0.70 0.85 1.25 1.25 1.25 0.35 0 0.65 0.25 0.65 0.50 0 0.30 -0.55 0.50 -1.25 0.50 -0.70 0 -1.25 0.25 -1.25 0.50 0 0.30 -0.45 0.50 -1 0.50 -0.65 0 -1 -0.35 -1 -0.95z"/>
  <path d="M14.50 38.45 c0 -0.25 0.55 -0.75 1.25 -1.05 0.70 -0.30 1.25 -0.75 1.25 -1 0 -0.20 0.25 -0.40 0.50 -0.40 0.30 0 0.50 0.65 0.50 1.40 0 1.25 -0.20 1.40 -1.75 1.45 -0.95 0.05 -1.75 -0.15 -1.75 -0.40z"/>
  <path d="M24.30 33.25 c-0.20 -1.05 -0.65 -1.75 -1.05 -1.75 -0.45 0 -0.75 -0.50 -0.75 -1.25 0 -0.90 0.25 -1.25 0.95 -1.25 0.50 0 1.05 -0.35 1.25 -0.75 0.15 -0.40 0.60 -0.75 1 -0.75 0.35 0 0.85 -0.55 1 -1.25 0.25 -0.90 0.65 -1.25 1.55 -1.25 1.05 0 1.25 -0.25 1.25 -1.50 0 -1.15 0.20 -1.50 1 -1.50 1.90 0 1.20 1.55 -2.70 6 -2.20 2.50 -3 4 -2.40 4.60 0.80 0.80 0.75 2.40 -0.10 2.40 -0.40 0 -0.85 -0.75 -1 -1.75z"/>
  <path d="M17.20 32.80 c-0.30 -1.70 -1.70 -2.95 -1.70 -1.55 0 0.40 -0.20 0.75 -0.50 0.75 -0.25 0 -0.50 -0.20 -0.50 -0.50 0 -1.45 -1.80 -4.45 -2.85 -4.75 -0.65 -0.15 -1.45 -0.85 -1.75 -1.50 -0.30 -0.70 -0.75 -1.25 -1 -1.25 -0.75 0 -0.45 -4.35 0.35 -4.70 0.40 -0.15 0.60 -0.60 0.45 -1 -0.15 -0.45 -0.10 -1.45 0.20 -2.20 0.35 -0.95 0.30 -1.75 -0.05 -2.35 -0.35 -0.70 -0.35 -1 0.05 -1.15 0.35 -0.10 0.60 -0.55 0.60 -1 0 -0.75 -0.10 -0.75 -0.50 -0.10 -0.40 0.65 -0.50 0.65 -0.50 -0.10 0 -0.45 0.30 -0.90 0.65 -1.05 0.45 -0.15 0.45 -0.45 -0.05 -1.30 -0.35 -0.60 -0.50 -1.55 -0.35 -2.05 0.25 -0.80 0.05 -0.90 -1.10 -0.80 -1.05 0.15 -1.40 0.45 -1.35 1.25 0 0.55 -0.15 1.05 -0.40 1.05 -0.60 0 -0.50 -2.40 0.15 -2.80 0.40 -0.25 0.40 -0.40 0 -0.70 -0.40 -0.20 0.10 -0.95 1.45 -2.15 1.10 -1 2 -2.05 2 -2.35 0 -0.80 1.85 -0.60 2.20 0.25 0.15 0.40 0.65 0.75 1.10 0.75 0.70 0 0.70 0.15 0.20 0.80 -0.55 0.65 -0.50 0.80 0.35 1 0.75 0.20 1.10 0.85 1.35 2.15 0.50 3.15 1.75 5.70 2.65 5.35 1.20 -0.45 2.15 0.65 2.15 2.45 0 2.20 -2.45 4.75 -4.55 4.75 -0.95 0 -1.45 0.25 -1.45 0.75 0 0.50 -0.50 0.75 -1.50 0.75 -1.35 0 -1.50 0.15 -1.50 1.70 0 1.50 0.15 1.70 1.50 1.90 1.20 0.20 1.50 0.05 1.50 -0.70 0 -0.70 0.40 -0.90 1.75 -0.90 1.65 0 1.75 0.10 1.75 1.75 0 1.55 -0.15 1.75 -1.30 1.75 -1.15 0 -1.25 0.15 -1.10 1.90 0.10 1.50 0.35 1.90 1.30 2 0.70 0.10 1.10 0.50 1.10 1.15 0 0.50 0.25 0.95 0.50 0.95 0.30 0 0.50 0.80 0.50 1.75 0 2.35 -1.35 2.40 -1.80 0.05z"/>
  <path d="M29.50 20.25 c0 -0.40 -0.20 -0.75 -0.50 -0.75 -0.55 0 -0.65 -5.15 -0.20 -8.10 0.35 -2 1.40 -2.55 1.85 -0.95 0.10 0.55 0 1.95 -0.30 3.20 -0.40 1.75 -0.35 2.55 0.30 3.75 0.40 0.90 0.65 2.05 0.50 2.60 -0.30 1.15 -1.65 1.35 -1.65 0.25z"/>
  <path d="M20.45 7.90 c1.40 -2.25 2.05 -2.30 2.05 -0.20 0 1.70 -0.10 1.80 -1.55 1.80 l-1.55 0 1.05 -1.60z"/>
  <path d="M31.90 4.15 c-0.90 -0.20 -1.20 -1.20 -0.60 -1.80 0.30 -0.30 2.20 1.15 2.20 1.75 0 0.40 -0.20 0.45 -1.60 0.05z"/>
  <path d="M26.50 1.90 c0 -0.60 2.15 -1.90 3.10 -1.90 0.20 0 0.40 0.55 0.40 1.25 0 1.10 -0.20 1.25 -1.75 1.25 -1.05 0 -1.75 -0.25 -1.75 -0.60z"/>
 </g>
 <g fill="#15101b">
  <path d="M19 38.90 c0 -0.85 -0.15 -0.95 -0.45 -0.45 -0.25 0.40 -0.80 0.55 -1.30 0.35 -0.45 -0.15 -1.25 -0.05 -1.80 0.20 -0.75 0.45 -0.95 0.35 -0.95 -0.25 0 -0.40 0.55 -1 1.20 -1.25 0.75 -0.25 1.35 -1 1.55 -1.95 0.45 -2.15 1.75 -2.05 1.75 0.10 0 1.85 0.75 2.85 2.15 2.85 1.40 0 0.70 1.25 -0.80 1.40 -1.10 0.15 -1.35 -0.05 -1.35 -1z"/>
  <path d="M24.70 39.35 c-0.40 -0.45 -0.35 -0.90 0.15 -1.70 0.55 -0.80 0.60 -1.35 0.20 -2.10 -0.70 -1.25 -0.70 -2.55 -0.05 -2.55 0.55 0 1.40 1.80 2 4.40 0.30 1.25 0.25 1.60 -0.35 1.60 -0.40 0 -0.55 0.25 -0.40 0.50 0.45 0.70 -0.90 0.60 -1.55 -0.15z"/>
  <path d="M13.85 29.40 c-1.50 -3.15 -1.70 -4.10 -0.60 -2.60 0.70 0.95 0.70 0.95 0.75 -0.10 0 -0.60 -0.35 -1.20 -0.75 -1.40 -1.10 -0.40 -0.90 -1.30 0.25 -1.30 0.65 0 1 -0.35 1 -1 0 -0.85 0.35 -1 2 -1 1.10 0 2 0.20 2 0.45 0 0.30 1.05 0.55 2.40 0.65 2.05 0.15 2.35 0.30 2.50 1.35 0.30 2 -0.35 3.50 -1.65 3.85 -1 0.25 -1.25 0.60 -1.25 1.85 0 1.20 -0.15 1.40 -0.60 0.95 -0.85 -0.85 -1.45 -0.75 -1.10 0.15 0.20 0.50 0 0.75 -0.70 0.75 -0.55 0 -1.10 -0.35 -1.30 -0.75 -0.35 -1 -1.20 -0.95 -1.40 0.15 -0.10 0.55 -0.65 -0.15 -1.55 -2z m4.10 -1.75 c-0.35 -0.50 -0.75 -1 -0.80 -1.10 -0.10 -0.10 -0.15 0.25 -0.15 0.85 0 0.70 0.30 1.10 0.80 1.10 0.70 0 0.75 -0.15 0.15 -0.85z"/>
  <path d="M29.50 22 c0 -0.85 -0.35 -1 -2.30 -1 -1.85 0 -2.35 -0.20 -2.55 -1 -0.35 -1.40 -1.15 -1.25 -1.15 0.25 0 1.15 -0.20 1.25 -2 1.25 -1.45 0 -2 -0.20 -2 -0.75 0 -0.55 -0.55 -0.75 -2 -0.75 -1.85 0 -2.05 -0.15 -2.30 -1.50 -0.30 -1.25 -0.55 -1.50 -1.80 -1.50 -0.80 0 -1.75 -0.30 -2.10 -0.65 -0.90 -0.90 -1.45 -2.70 -1 -3.40 0.50 -0.85 0.55 -4.55 0.05 -5.60 -0.20 -0.45 -0.25 -1.10 -0.05 -1.40 0.55 -0.95 1.65 1.30 1.90 4 0.25 2.90 0.60 3.65 1.10 2.40 0.15 -0.45 0.05 -1.60 -0.30 -2.55 -0.65 -2.05 -0.30 -3.15 0.80 -2.25 0.40 0.30 0.70 0.95 0.70 1.45 0 0.45 0.15 1 0.35 1.20 0.55 0.55 0.55 2.50 0.05 3.20 -0.75 0.85 0.10 0.75 1.10 -0.15 0.75 -0.70 0.90 -0.70 1.50 0 0.35 0.40 0.40 0.75 0.10 0.75 -0.25 0 -0.65 0.35 -0.80 0.75 -0.25 0.65 -0.05 0.60 0.95 -0.10 1.55 -1.15 1.55 -1.30 -0.25 -2.80 -0.80 -0.70 -1.50 -1.50 -1.50 -1.75 0 -1.10 -3 -4.50 -4.30 -4.80 l-1.35 -0.35 1.10 -0.75 c0.55 -0.40 1.05 -1 1.05 -1.25 0 -0.65 -3.05 1.10 -3.35 1.90 -0.15 0.30 -0.80 0.95 -1.50 1.40 -0.70 0.50 -1.10 0.60 -0.90 0.25 0.20 -0.35 0.40 -1 0.45 -1.45 0.05 -1.15 2.95 -5.05 3.70 -5.05 0.35 0 1 0.30 1.40 0.70 0.35 0.40 0.95 0.80 1.30 0.90 0.55 0.20 0.55 0.40 0 1 -0.50 0.65 -0.50 0.85 0.20 1.10 0.50 0.20 0.70 0.65 0.55 1.25 -0.15 0.65 0.05 1.05 0.65 1.20 0.50 0.15 1.15 1.15 1.55 2.55 0.65 2.15 0.75 2.30 2.05 2.05 1.40 -0.35 2.40 0.75 2.40 2.60 0 0.75 0.40 0.90 2.10 0.90 1.85 0 2.15 0.15 2.30 1.15 0.15 0.85 0.50 1.10 1.55 1.10 1.55 0 2.55 0.80 2.55 2.10 0 0.50 0.30 0.90 0.70 0.90 0.65 0 1.30 1.40 1.30 2.90 0 0.30 -0.45 0.60 -1 0.60 -0.65 0 -1 -0.35 -1 -1z m-16.50 -6.75 c0 -0.40 -0.20 -0.75 -0.50 -0.75 -0.25 0 -0.50 0.35 -0.50 0.75 0 0.40 0.25 0.75 0.50 0.75 0.30 0 0.50 -0.35 0.50 -0.75z"/>
 </g>
 <g fill="#2a2225">
  <path d="M17.30 39.25 c-0.20 -0.55 -0.65 -0.70 -1.65 -0.45 -1.25 0.35 -1.35 0.30 -0.70 -0.45 0.35 -0.50 0.95 -0.85 1.35 -0.85 0.35 0 0.80 -0.45 0.95 -1 0.40 -1.20 1.75 -1.35 1.75 -0.15 0 1.20 1.45 2.65 2.35 2.30 0.55 -0.20 0.70 -0.10 0.55 0.40 -0.35 1.05 -4.20 1.25 -4.60 0.20z"/>
  <path d="M25.50 37.65 c0 -1.15 0.25 -1.65 0.75 -1.65 0.40 0 0.75 0.35 0.75 0.75 0 0.45 0.35 0.90 0.75 1.05 1.20 0.50 0.85 1.05 -0.75 1.30 -1.40 0.20 -1.50 0.15 -1.50 -1.45z"/>
  <path d="M17.10 31.15 c-1.15 -0.55 -1.80 -0.65 -2 -0.30 -0.20 0.30 -0.80 -0.40 -1.35 -1.65 -0.55 -1.20 -1.25 -2.20 -1.60 -2.20 -0.95 0 -2.65 -2.50 -2.30 -3.35 0.25 -0.60 0.10 -0.75 -0.45 -0.50 -0.65 0.20 -0.80 -0.10 -0.80 -1.45 0 -1.70 0.55 -2.25 1.10 -1.05 0.20 0.30 0.20 -0.50 0.10 -1.90 -0.15 -1.35 -0.05 -2.10 0.15 -1.60 0.30 0.85 0.40 0.85 1 0.15 0.40 -0.45 0.45 -0.80 0.15 -0.80 -0.35 0 -0.40 -1.60 -0.25 -4.75 0.20 -3.55 0.15 -4.75 -0.30 -4.75 -0.35 0 -0.45 -0.25 -0.30 -0.50 0.20 -0.30 0.60 -0.25 1.05 0.20 0.50 0.50 0.75 2.10 0.85 5 0.05 2.35 0.15 4.30 0.20 4.30 0.05 0 0.40 -0.15 0.85 -0.30 0.65 -0.25 0.70 -0.85 0.45 -3.35 -0.15 -1.70 -0.55 -3.25 -0.80 -3.40 -0.25 -0.20 -0.35 -0.75 -0.15 -1.20 0.25 -0.70 0.45 -0.75 1.05 -0.25 0.40 0.35 0.75 1.05 0.75 1.55 0 0.50 0.25 1.05 0.50 1.20 0.70 0.45 0.60 2.40 -0.10 3.20 -0.55 0.55 -0.50 0.65 0.20 0.40 0.90 -0.30 1.55 0.30 1.75 1.80 0.10 0.50 -0.05 0.75 -0.35 0.60 -0.30 -0.20 -0.25 0.20 0.10 0.95 0.30 0.70 0.75 1.30 1 1.30 0.55 0 0.50 -1.35 -0.10 -2.55 -0.40 -0.65 -0.35 -0.95 0 -0.95 0.30 0 0.90 -0.35 1.30 -0.75 0.65 -0.65 0.60 -0.85 -0.30 -1.75 -1.30 -1.30 -1.20 -1.45 0.90 -1.15 1.40 0.25 1.60 0.45 1.65 1.85 0 0.85 0.15 1.25 0.30 0.95 0.10 -0.35 1 -0.65 1.95 -0.65 1.35 0 1.70 0.20 1.70 1 0 0.80 0.35 1 1.75 1 0.95 0 1.75 0.25 1.75 0.50 0 0.30 0.35 0.50 0.75 0.50 0.40 0 0.75 0.30 0.75 0.70 0 0.40 0.20 0.80 0.45 0.90 0.20 0.10 0.55 1.30 0.75 2.75 0.30 2.30 0.20 2.70 -0.90 4 l-1.25 1.40 -0.05 -1.60 c0 -1.15 -0.25 -1.65 -0.75 -1.65 -0.40 0 -0.75 -0.35 -0.75 -0.75 0 -0.50 -0.50 -0.75 -1.50 -0.75 -1.40 0 -1.50 -0.15 -1.50 -1.75 0 -1.50 -0.15 -1.75 -1.10 -1.70 -0.65 0 -0.85 0.15 -0.50 0.30 0.30 0.10 0.60 1 0.60 1.95 0 1.55 -0.15 1.70 -1.50 1.70 -0.80 0 -1.50 0.25 -1.50 0.55 0 0.25 0.70 0.75 1.50 1 1.30 0.50 1.50 0.80 1.50 2.50 0 1.90 -0.05 1.95 -1.70 1.95 -0.95 0 -2.05 -0.30 -2.40 -0.65 -1.25 -1.25 -2.40 -1.40 -2.40 -0.35 0 0.80 0.35 1 1.50 1 0.85 0 1.50 0.25 1.50 0.50 0 0.30 0.45 0.50 0.95 0.50 0.55 0 1.10 0.30 1.20 0.65 0.20 0.45 0.30 0.40 0.30 -0.10 0.05 -1.10 1.65 -2 3.45 -2.05 1.90 0 1.90 0.10 0.55 2 -0.70 0.95 -1.35 1.30 -1.90 1.10 -0.65 -0.25 -0.70 -0.15 -0.20 0.45 0.90 1.15 -3.45 0.95 -4.70 -0.15 -0.55 -0.50 -1.40 -0.90 -1.95 -0.85 -0.85 0 -0.80 0.05 0.20 0.45 0.60 0.25 1.10 0.70 1.10 1 0 0.65 0.10 0.65 -1.90 -0.35z m-1.90 -3.95 c0.40 -1.05 -0.05 -1.70 -1.20 -1.70 -0.50 0 -1.10 -0.25 -1.25 -0.50 -0.20 -0.30 -0.55 -0.40 -0.80 -0.20 -0.45 0.25 1.95 3.20 2.60 3.20 0.20 0 0.50 -0.35 0.65 -0.80z m5 -1.35 c-0.15 -0.40 -0.60 -0.90 -1 -1.05 -0.50 -0.20 -0.65 -0.10 -0.40 0.35 1.05 1.85 2.05 2.35 1.40 0.70z m-3.20 -1.25 c0 -0.50 -0.25 -1.15 -0.60 -1.50 -0.75 -0.75 -2.90 -0.80 -2.90 -0.10 0 0.30 0.35 0.50 0.75 0.50 0.40 0 0.75 0.45 0.75 1 0 0.65 0.35 1 1 1 0.65 0 1 -0.35 1 -0.90z m10.30 -6.05 c-0.45 -0.40 -0.90 -0.60 -1.10 -0.45 -0.45 0.50 0.15 1.25 1.05 1.25 0.70 0 0.70 -0.10 0.05 -0.80z m-6.80 -1.65 c0 -0.60 -0.15 -0.90 -0.35 -0.75 -0.15 0.20 -0.60 0.10 -1 -0.25 -0.60 -0.50 -0.60 -0.35 -0.10 0.75 0.75 1.65 1.45 1.75 1.45 0.25z"/>
  <path d="M16.25 13.55 c-0.50 -0.85 0.60 -1.05 1.25 -0.30 0.50 0.60 0.50 0.75 -0.15 0.75 -0.45 0 -0.90 -0.20 -1.10 -0.45z"/>
  <path d="M16 10 c0 -1.15 -3.40 -5.15 -4 -4.75 -0.25 0.15 -0.55 0.05 -0.70 -0.15 -0.15 -0.25 0.35 -0.75 1.10 -1.05 1.20 -0.55 1.45 -0.50 2.25 0.50 0.50 0.65 1.05 1.80 1.20 2.55 0.15 0.80 0.50 1.55 0.70 1.70 0.60 0.35 0.55 2.20 -0.05 2.20 -0.25 0 -0.50 -0.45 -0.50 -1z"/>
  <path d="M28.50 8.25 c0 -1.95 0.70 -2.30 1.50 -0.80 0.80 1.55 0.60 2.55 -0.50 2.55 -0.80 0 -1 -0.35 -1 -1.75z"/>
  <path d="M21 7.05 c0 -0.30 0.55 -1.15 1.25 -1.90 l1.20 -1.40 0.05 1.90 c0 1.65 -0.15 1.85 -1.25 1.85 -0.70 0 -1.25 -0.20 -1.25 -0.45z"/>
  <path d="M6.95 6.40 c0.35 -0.50 0.55 -1.20 0.40 -1.65 -0.20 -0.40 -0.05 -0.85 0.25 -1.05 0.35 -0.25 0.40 -0.10 0.15 0.35 -0.20 0.40 0.05 0.25 0.60 -0.30 0.55 -0.55 0.80 -1.10 0.55 -1.20 -0.65 -0.25 1.60 -2.55 2.55 -2.55 0.55 0 0.50 0.20 -0.25 0.80 -0.50 0.40 -0.70 0.65 -0.35 0.45 0.35 -0.15 1.15 -0.15 1.85 0.05 1.55 0.40 1.20 1.60 -0.50 1.60 -0.85 -0.05 -2.10 0.75 -3.60 2.15 -1.25 1.20 -2 1.80 -1.65 1.35z"/>
 </g>
 <g fill="#4e2c13">
  <path d="M25.05 35.45 c-0.70 -2 -0.70 -1.95 0.15 -1.95 0.35 0 0.80 0.40 0.95 0.90 0.10 0.45 0.40 1.25 0.60 1.75 0.25 0.60 0.10 0.85 -0.40 0.85 -0.40 0 -1 -0.70 -1.30 -1.55z"/>
  <path d="M23.80 31.70 c-0.65 -1.65 -0.35 -2.70 0.85 -2.70 1.05 0.05 1.10 0.05 0.15 0.75 -0.80 0.60 -0.85 0.90 -0.40 1.35 0.70 0.70 0.80 1.40 0.15 1.40 -0.25 0 -0.60 -0.35 -0.75 -0.80z"/>
  <path d="M12.50 24.50 c-0.55 -0.55 -1 -1.20 -1 -1.50 0 -0.25 -0.35 -0.50 -0.75 -0.50 -0.40 0 -0.75 -0.20 -0.75 -0.50 0 -0.25 0.80 -0.50 1.75 -0.50 1.20 0 1.75 0.25 1.75 0.75 0 0.40 0.25 0.75 0.50 0.75 0.30 0 0.50 0.55 0.50 1.25 0 1.50 -0.65 1.60 -2 0.25z"/>
  <path d="M10 19.75 c0 -0.70 0.45 -1.75 1 -2.35 l1 -1.10 0 2.35 c0 2 -0.15 2.35 -1 2.35 -0.75 0 -1 -0.35 -1 -1.25z"/>
  <path d="M16.50 19.40 c0 -1.25 0.15 -1.45 0.60 -1 0.90 0.90 1.40 0.75 1.40 -0.40 0 -0.90 0.05 -0.95 0.90 -0.20 0.60 0.50 0.85 1.20 0.70 2 -0.20 1 -0.50 1.20 -1.90 1.20 -1.60 0 -1.70 -0.10 -1.70 -1.60z"/>
  <path d="M28 17.50 c0 -1.65 0.15 -2 1 -2 1.05 0 1.25 0.80 0.70 2.90 -0.55 1.95 -1.70 1.35 -1.70 -0.90z"/>
  <path d="M30 18.75 c0 -0.40 0.25 -0.75 0.50 -0.75 0.30 0 0.50 0.35 0.50 0.75 0 0.40 -0.20 0.75 -0.50 0.75 -0.25 0 -0.50 -0.35 -0.50 -0.75z"/>
  <path d="M21 16.75 c0 -0.50 -0.35 -0.75 -0.85 -0.65 -0.60 0.10 -0.95 -0.20 -1.05 -0.95 -0.15 -1 0.05 -1.15 1.60 -1.15 1.70 0 1.80 0.10 1.80 1.75 0 1.20 -0.25 1.75 -0.75 1.75 -0.40 0 -0.75 -0.35 -0.75 -0.75z"/>
  <path d="M28.50 13.25 c0 -1.40 0.20 -1.75 1 -1.75 1.05 0 1.20 0.50 0.70 2.40 -0.50 1.80 -1.70 1.35 -1.70 -0.65z"/>
  <path d="M28.10 6.25 c0.10 -1.85 -0.05 -2.80 -0.45 -3 -0.35 -0.10 -0.65 0 -0.65 0.25 0 0.30 -0.85 0.50 -1.85 0.50 l-1.90 -0.05 1.75 -1.45 c0.95 -0.85 2.10 -1.50 2.60 -1.50 0.50 0 0.90 -0.20 0.90 -0.50 0 -1.05 1.40 -0.45 2.90 1.25 1.85 2 1.95 2.25 0.60 2.25 -1.50 0 -2.65 2.05 -2.05 3.70 0.50 1.20 0.40 1.30 -0.75 1.30 -1.25 0 -1.30 -0.10 -1.10 -2.75z"/>
  <path d="M20.25 8.10 c0.30 -0.20 0.80 -0.95 1.20 -1.70 0.95 -1.90 1.55 -1.75 1.55 0.35 0 1.65 -0.10 1.75 -1.60 1.75 -0.90 0 -1.40 -0.20 -1.15 -0.40z"/>
  <path d="M13.40 5.80 c-1.25 -0.90 -1.10 -1.90 0.15 -1.70 1.20 0.15 2.40 2.40 1.30 2.40 -0.35 0 -1 -0.35 -1.45 -0.70z"/>
 </g>
 <g fill="#282449">
  <path d="M24 39.05 c0 -0.25 0.35 -0.70 0.75 -1.05 0.40 -0.35 0.75 -0.95 0.75 -1.30 0 -0.40 0.35 -0.70 0.75 -0.70 1.05 0 1 2.80 -0.05 3.20 -1.15 0.45 -2.20 0.35 -2.20 -0.15z"/>
  <path d="M15.50 38 c0 -0.25 0.45 -0.50 1 -0.50 0.55 0 0.95 -0.15 0.95 -0.35 -0.20 -1.25 0.15 -2.15 0.80 -2.15 0.50 0 0.75 0.55 0.75 1.75 0 1.65 -0.10 1.75 -1.75 1.75 -0.95 0 -1.75 -0.20 -1.75 -0.50z"/>
  <path d="M19 28 c-0.30 -0.55 -0.85 -1 -1.25 -1 -0.50 0 -0.75 -0.55 -0.75 -1.75 0 -1.55 0.15 -1.75 1.25 -1.75 1.05 0 1.25 -0.25 1.25 -1.45 0 -0.80 0.35 -2.10 0.75 -2.85 0.90 -1.80 1.05 -4.20 0.15 -3.30 -0.40 0.40 -0.75 0.45 -1.25 0.05 -0.80 -0.70 -0.85 -1.95 -0.10 -1.95 0.30 0 0.40 -0.35 0.25 -0.80 -0.25 -0.60 0 -0.75 1.10 -0.60 0.95 0.10 1.40 0.45 1.50 1.30 0.10 0.60 0.40 1.10 0.70 1.10 0.25 0 0.40 0.35 0.20 0.75 -0.15 0.45 0 0.75 0.45 0.75 0.45 0 0.60 -0.30 0.40 -0.80 -0.20 -0.60 0 -0.75 0.90 -0.60 1.05 0.15 1.20 0.45 1.35 2.55 0.10 1.30 0.35 2.35 0.65 2.35 0.25 0 0.45 -0.25 0.45 -0.55 0 -0.25 0.25 -0.35 0.55 -0.15 0.35 0.20 0.35 -0.05 -0.05 -0.80 -0.50 -1 -0.45 -1.05 0.60 -0.90 0.95 0.10 1.15 0.45 1.15 1.90 0 1.65 -0.10 1.75 -1.85 1.90 -1.65 0.15 -1.90 0 -1.90 -0.85 0 -0.60 -0.35 -1.05 -0.75 -1.05 -0.60 0 -0.75 0.80 -0.75 4.15 0 2.55 -0.25 4.40 -0.60 4.75 -1 1 -3.80 0.75 -4.40 -0.40z m0.80 -2.80 c-0.50 -0.70 -1 -1.15 -1.15 -1 -0.15 0.15 0.10 0.85 0.55 1.60 0.50 0.70 1 1.15 1.15 1 0.15 -0.15 -0.10 -0.85 -0.55 -1.60z m2.20 0.60 c0 -0.40 -0.20 -0.85 -0.45 -1.05 -0.60 -0.35 -1.20 0.60 -0.80 1.25 0.45 0.75 1.25 0.60 1.25 -0.20z m0 -6.35 c0 -0.55 -0.20 -0.85 -0.50 -0.70 -0.25 0.15 -0.50 0.65 -0.50 1.05 0 0.40 0.25 0.70 0.50 0.70 0.30 0 0.50 -0.45 0.50 -1.05z"/>
  <path d="M11.20 20.25 c-0.40 -2.95 -0.05 -3.75 1.75 -3.75 1.60 0 2.05 0.85 2.05 4.15 0 1.80 -0.05 1.85 -1.70 1.85 -1.65 0 -1.75 -0.10 -2.10 -2.25z"/>
  <path d="M14.50 15.60 c0 -0.25 0.55 -0.90 1.25 -1.50 1.40 -1.25 1.50 -1.15 0.65 0.65 -0.50 1.15 -1.90 1.80 -1.90 0.85z"/>
  <path d="M7.50 5.40 c0 -0.40 0.40 -1.15 0.90 -1.70 0.50 -0.55 0.85 -1.20 0.75 -1.50 -0.10 -0.30 0.30 -0.95 0.90 -1.50 1.05 -0.90 1.10 -0.90 0.80 0 -0.30 0.70 -0.15 0.85 0.40 0.60 0.40 -0.15 0.75 0 0.75 0.35 -0.05 0.85 -4.50 4.60 -4.50 3.75z"/>
  <path d="M11.80 5.05 c-0.90 -0.35 -0.90 -0.40 -0.10 -0.70 1.35 -0.55 1.80 -0.40 1.80 0.40 0 0.80 -0.25 0.85 -1.70 0.30z"/>
 </g>
 <g fill="#41363d">
  <path d="M19.50 39 c0 -0.90 0.10 -0.95 1 -0.40 0.55 0.35 1 0.80 1 1 0 0.25 -0.45 0.40 -1 0.40 -0.65 0 -1 -0.35 -1 -1z"/>
  <path d="M24 39.25 c0 -0.35 0.40 -0.90 0.85 -1.20 0.70 -0.40 0.75 -0.70 0.30 -2.25 -0.40 -1.35 -0.40 -1.80 0 -1.80 0.90 0 2.20 3.15 1.45 3.40 -0.35 0.10 -0.60 0.75 -0.60 1.40 0 0.85 -0.30 1.20 -1 1.20 -0.55 0 -1 -0.35 -1 -0.75z"/>
  <path d="M17 31.75 c0 -0.80 -1.70 -1.90 -2.20 -1.40 -0.15 0.15 -0.30 0.05 -0.30 -0.25 0 -0.35 0.35 -0.60 0.75 -0.60 0.40 0 0.75 -0.30 0.75 -0.70 0 -0.40 0.10 -1.05 0.25 -1.40 0.20 -0.50 -0.50 -1.10 -1.95 -1.85 -1.20 -0.65 -2.30 -1.60 -2.45 -2.10 -0.15 -0.55 -0.60 -0.95 -1.05 -0.95 -0.50 0 -0.80 -0.45 -0.80 -1.25 0 -0.90 0.25 -1.25 1 -1.25 0.55 0 1 -0.20 1 -0.50 0 -0.25 0.30 -0.50 0.70 -0.50 0.50 0 0.60 -0.35 0.40 -1.10 -0.25 -0.95 -0.35 -1 -0.50 -0.25 -0.10 0.45 -0.60 0.85 -1.15 0.85 -0.85 0 -0.90 -0.15 -0.45 -1 0.30 -0.55 1.05 -1.10 1.75 -1.30 0.65 -0.15 1.55 -0.70 2.05 -1.25 1.10 -1.20 1.80 -0.75 1.20 0.85 -0.70 1.75 -0.60 2.20 0.25 2.20 0.40 0 0.75 0.45 0.75 1 0 0.55 -0.35 1 -0.75 1 -0.45 0 -0.75 0.45 -0.75 1.15 0 1.70 0.55 3.35 1.10 3.35 0.30 0 0.35 -0.35 0.20 -0.80 -0.25 -0.65 -0.05 -0.75 0.95 -0.60 1.15 0.25 1.30 0.05 1.60 -1.70 0.15 -1.10 0.60 -2.10 0.95 -2.25 0.40 -0.15 0.70 -0.80 0.70 -1.45 0 -0.75 0.30 -1.20 0.75 -1.20 0.40 0 0.75 0.30 0.75 0.70 0 0.35 -0.35 0.95 -0.75 1.30 -0.90 0.75 -1 2 -0.15 2 0.45 0 0.45 0.15 0 0.60 -0.35 0.35 -0.60 1.30 -0.60 2.15 0 2.05 -0.45 2.45 -1.60 1.40 -0.80 -0.70 -0.90 -0.70 -0.90 0 0 0.40 0.60 1.25 1.30 1.80 1.05 0.80 1.50 0.90 2 0.50 0.55 -0.45 0.70 -0.35 0.70 0.60 0.05 1.15 0.05 1.15 1.50 -0.40 0.95 -1.05 1.95 -1.65 2.75 -1.65 0.80 0 1.25 -0.30 1.25 -0.75 0 -0.50 -0.50 -0.75 -1.50 -0.75 -1.15 0 -1.50 -0.25 -1.50 -0.95 0 -0.55 -0.20 -1.15 -0.50 -1.30 -0.25 -0.15 -0.50 0.05 -0.50 0.45 0 1.10 -1.40 1 -1.60 -0.05 -0.10 -0.50 -0.10 -1.65 0 -2.50 0.15 -1.25 0.45 -1.65 1.20 -1.65 0.60 0 0.90 -0.25 0.75 -0.60 -1 -2.45 -1 -2.40 0.35 -2.40 1.35 0 1.50 0.30 1.30 3.40 -0.05 1.35 0.10 1.60 1 1.60 0.80 0 1 -0.20 0.80 -0.75 -0.15 -0.40 -0.05 -0.75 0.20 -0.75 0.30 0 0.50 1.10 0.50 2.45 0 2.30 0.10 2.50 1.30 2.65 l1.35 0.15 -2.35 2.90 c-1.30 1.55 -2.50 2.75 -2.70 2.65 -0.20 -0.10 -0.80 0.10 -1.30 0.50 -0.80 0.55 -0.85 0.80 -0.30 1.45 0.35 0.40 0.50 0.95 0.30 1.10 -0.20 0.20 -0.55 0.05 -0.80 -0.30 -0.25 -0.45 -0.90 -0.60 -1.95 -0.40 -1.05 0.25 -1.55 0.15 -1.55 -0.30 0 -0.55 -2.15 -1.85 -3.10 -1.85 -0.85 0 -0.35 0.90 0.60 1.15 0.55 0.15 1 0.60 1 1.05 0 0.45 -0.40 0.80 -1 0.80 -0.55 0 -1 -0.35 -1 -0.75z"/>
  <path d="M11.60 26.65 c-0.35 -0.10 -0.85 -0.70 -1.15 -1.25 -0.50 -0.90 -0.40 -0.90 1 0.15 1.95 1.40 2 1.85 0.15 1.10z"/>
  <path d="M10.55 15.40 c0 -0.35 0.20 -1.10 0.45 -1.65 0.35 -0.85 0.45 -0.75 0.45 0.65 0.05 0.85 -0.15 1.60 -0.45 1.60 -0.25 0 -0.50 -0.30 -0.45 -0.60z"/>
  <path d="M14 13.15 c0 -0.60 0.25 -1.25 0.50 -1.40 0.65 -0.40 0.65 0.75 0 1.75 -0.40 0.60 -0.50 0.55 -0.50 -0.35z"/>
  <path d="M18.30 12.20 c-1 -0.70 -1 -0.70 0 -1.40 0.80 -0.65 0.95 -0.65 1.10 0 0.10 0.40 0.10 1 0 1.40 -0.15 0.65 -0.30 0.65 -1.10 0z"/>
  <path d="M15.90 9.50 c-0.40 -1 -1.45 -2.50 -2.35 -3.35 -1.80 -1.85 -1.90 -2.15 -0.60 -2.15 1.05 0 2.50 1.80 3.50 4.35 0.90 2.25 0.35 3.30 -0.55 1.15z"/>
  <path d="M10.20 1.75 c0.15 -0.75 0.40 -1.50 0.60 -1.70 0.20 -0.15 0.20 0.10 0.05 0.60 -0.30 0.70 -0.15 0.85 0.60 0.60 0.50 -0.15 1.20 0.05 1.55 0.50 0.50 0.60 0.50 0.75 -0.05 0.75 -0.40 0 -1.20 0.15 -1.85 0.30 -1 0.30 -1.10 0.20 -0.90 -1.05z"/>
 </g>
 <g fill="#7b4b12">
  <path d="M27.60 17.75 c-0.40 -0.45 -1.10 -0.65 -1.75 -0.50 -0.85 0.20 -1.30 -0.05 -1.90 -1.05 -0.80 -1.35 -0.85 -1.35 -1.15 -0.30 -0.55 1.70 -1.45 1.25 -2.70 -1.25 l-1.10 -2.25 2.85 0.35 c1.60 0.20 3 0.55 3.05 0.80 0.10 0.25 0.85 0.45 1.70 0.45 l1.55 0 -0.35 -4.70 c-0.30 -4.30 -0.25 -4.75 0.55 -4.95 0.85 -0.20 0.85 -0.25 0.05 -0.30 -0.50 0 -0.90 -0.25 -0.90 -0.55 0 -0.25 -0.35 -0.50 -0.75 -0.50 -1.25 0 -0.85 -1.45 0.50 -1.80 0.70 -0.15 1.25 -0.50 1.25 -0.75 0 -0.85 0.85 -0.45 2.70 1.25 2.15 2.05 2.20 2.30 0.55 2.30 -1.75 0 -2.60 1.90 -1.75 3.95 0.60 1.45 0.40 6.25 -0.35 9.45 -0.30 1.25 -1.10 1.40 -2.05 0.35z"/>
  <path d="M19.40 9.50 c1.25 -2.20 2.10 -2.30 2.10 -0.25 0 1.60 -0.10 1.75 -1.50 1.75 l-1.45 0 0.85 -1.50z"/>
  <path d="M21.90 5.65 c0.30 -0.50 1.10 -1.45 1.85 -2.15 l1.30 -1.25 -0.15 2 c-0.15 1.85 -0.25 2 -1.80 2.15 -1.50 0.15 -1.60 0.05 -1.20 -0.75z"/>
 </g>
 <g fill="#5f4d2d">
  <path d="M19 39 c0 -1.15 0.50 -1.30 1.40 -0.40 0.90 0.90 0.75 1.40 -0.40 1.40 -0.65 0 -1 -0.35 -1 -1z"/>
  <path d="M25.55 38.25 c-0.05 -1.80 -1.40 -6.25 -2.10 -7 -0.20 -0.15 -0.90 -0.05 -1.65 0.20 -0.85 0.35 -1.30 0.35 -1.30 0.05 0 -0.30 0.20 -0.50 0.50 -0.50 0.25 0 0.60 -0.55 0.80 -1.25 0.25 -1.05 0.60 -1.25 2.10 -1.25 1.70 0 1.70 0.05 0.90 0.95 -0.85 0.95 -0.90 0.90 1.75 6.15 0.25 0.50 0.45 1.25 0.45 1.65 0 0.40 0.35 0.75 0.75 0.75 0.40 0 0.75 0.25 0.75 0.50 0 0.30 -0.55 0.50 -1.20 0.50 -0.65 0 -1.35 0.30 -1.45 0.65 -0.15 0.30 -0.30 -0.30 -0.30 -1.40z"/>
  <path d="M17.80 39.05 c-0.25 -0.35 -0.95 -0.55 -1.65 -0.40 -0.75 0.15 -1.10 0 -1 -0.35 0.10 -0.30 0.65 -0.60 1.25 -0.70 0.85 -0.15 1.10 -0.50 1.10 -1.65 0 -0.95 0.25 -1.45 0.75 -1.45 0.50 0 0.75 0.50 0.70 1.65 -0.05 2.20 -0.65 3.75 -1.15 2.90z"/>
  <path d="M17 31.75 c0 -0.70 -1.65 -1.90 -2.05 -1.50 -0.15 0.10 -0.60 -0.50 -1.05 -1.30 -0.45 -0.80 -0.65 -1.45 -0.40 -1.45 0.20 0 0.55 0.30 0.65 0.65 0.20 0.45 0.40 0.40 0.80 -0.15 0.90 -1.30 0.60 -2 -1.20 -2.85 -0.95 -0.45 -1.75 -1.05 -1.75 -1.35 0 -0.25 -0.50 -1 -1.10 -1.65 -0.95 -1 -1 -1.35 -0.50 -3.05 0.40 -1.25 1.05 -2.15 1.95 -2.60 0.80 -0.40 1.85 -1.05 2.35 -1.50 0.90 -0.70 0.95 -0.65 0.60 1.35 -0.25 1.80 -0.20 2.05 0.45 1.85 0.45 -0.20 1.25 0.10 1.75 0.55 0.95 0.85 1 0.85 1 -0.20 0 -0.95 0.15 -1 1.05 -0.55 0.85 0.50 1.05 0.40 1.30 -0.45 0.15 -0.60 0.45 -1.05 0.70 -1.05 0.25 0 0.45 -0.60 0.45 -1.30 l0 -1.30 3.25 0.35 3.25 0.35 0 -1.80 c0 -1 0.25 -1.80 0.50 -1.80 0.30 0 0.50 0.45 0.50 0.95 0 0.55 0.15 1.30 0.30 1.75 0.20 0.55 0.05 0.80 -0.50 0.80 -0.90 0 -1.10 1.25 -0.30 1.75 0.30 0.15 0.55 1.15 0.55 2.15 0.05 1.15 0.15 1.45 0.30 0.75 0.40 -2.15 1.15 -1.15 1.15 1.60 0 2.40 -0.10 2.75 -1 2.75 -0.55 0 -1 -0.20 -1 -0.50 0 -0.25 -0.30 -0.50 -0.70 -0.50 -0.80 0 -1.40 -2.40 -0.70 -2.60 0.50 -0.20 -0.50 -2.90 -1.05 -2.90 -0.70 0 -1.40 2.45 -0.90 2.95 0.40 0.40 0.15 0.55 -0.80 0.55 -1.55 0 -1.65 -0.15 -0.60 -1.20 0.70 -0.70 0.70 -1 -0.15 -2.85 l-1 -2.10 -0.35 1.70 c-0.20 0.95 -0.70 2.10 -1.10 2.55 -0.45 0.50 -0.65 1.15 -0.50 1.55 0.10 0.35 -0.05 1.05 -0.45 1.60 -0.40 0.50 -0.70 1.50 -0.70 2.15 0 1.05 -0.10 1.10 -0.75 0.60 -1.15 -0.95 -1 0.30 0.20 1.85 0.55 0.65 0.85 1.60 0.70 2.05 -0.20 0.65 -0.10 0.60 0.50 -0.15 0.80 -1 0.80 -1 0.85 0.15 0 0.80 -0.30 1.10 -1.05 1.10 -0.70 0 -0.90 0.20 -0.60 0.65 0.20 0.30 -0.25 0.20 -0.95 -0.25 -0.95 -0.65 -1.45 -0.70 -1.70 -0.35 -0.20 0.35 0.05 0.80 0.50 1.05 1 0.55 1.05 1.90 0.05 1.90 -0.40 0 -0.75 -0.35 -0.75 -0.75z m2.40 -3.85 c-0.30 -0.90 -1.40 -1.05 -1.40 -0.20 0 0.45 0.35 0.80 0.80 0.80 0.45 0 0.70 -0.25 0.60 -0.60z m-2.40 -3.60 c0 -0.40 -0.20 -0.90 -0.50 -1.05 -0.25 -0.15 -0.50 0.15 -0.50 0.70 0 0.60 0.25 1.05 0.50 1.05 0.30 0 0.50 -0.30 0.50 -0.70z m-2.50 -3.50 c0 -0.10 -0.35 -0.45 -0.75 -0.80 -0.60 -0.50 -0.75 -0.50 -0.75 0.20 0 0.45 0.35 0.80 0.75 0.80 0.40 0 0.75 -0.10 0.75 -0.20z"/>
  <path d="M11.20 26.30 c-0.50 -0.40 -0.85 -0.85 -0.70 -0.95 0.15 -0.15 0.70 0.05 1.20 0.45 0.55 0.35 0.85 0.80 0.75 0.95 -0.15 0.15 -0.70 -0.10 -1.25 -0.45z"/>
  <path d="M18.15 11.95 c-0.45 -0.45 -0.30 -0.85 0.65 -1.55 0.65 -0.55 1.20 -1.20 1.20 -1.45 0 -0.25 0.45 -0.95 1 -1.55 l1 -1.10 0 1.85 c0 1.30 -0.20 1.85 -0.75 1.85 -0.45 0 -0.75 0.45 -0.75 1.25 0 1.35 -1.30 1.75 -2.35 0.70z"/>
  <path d="M28.50 8.75 c0 -0.95 0.25 -1.75 0.50 -1.75 0.30 0 0.50 0.80 0.50 1.75 0 0.95 -0.20 1.75 -0.50 1.75 -0.25 0 -0.50 -0.80 -0.50 -1.75z"/>
  <path d="M23.50 4 c0 -0.65 3.55 -3 4.10 -2.70 0.20 0.15 0.55 -0.10 0.70 -0.50 0.40 -1 1.05 -1 2 -0.10 1.45 1.45 0.85 2.30 -1.55 2.30 -1.65 0 -2.25 0.20 -2.25 0.75 0 0.50 -0.50 0.75 -1.50 0.75 -0.80 0 -1.50 -0.20 -1.50 -0.50z"/>
 </g>
 <g fill="#56484a">
  <path d="M18.50 39.25 c0 -0.40 -0.35 -0.75 -0.80 -0.75 -0.55 0 -0.70 -0.25 -0.50 -0.80 0.15 -0.45 0.30 -1.80 0.30 -3 0 -1.65 0.20 -2.20 0.75 -2.20 0.60 0 0.75 0.55 0.70 2.55 -0.10 1.95 0.10 2.70 0.70 3.05 1.15 0.65 1.05 1.90 -0.15 1.90 -0.55 0 -1 -0.35 -1 -0.75z"/>
  <path d="M24.35 39.35 c-0.15 -0.35 0.25 -1.15 0.90 -1.75 1.30 -1.25 1.75 -1.35 1.75 -0.55 0 0.35 0.40 0.90 0.90 1.30 0.80 0.70 0.80 0.70 0 0.45 -0.50 -0.15 -1.20 0.05 -1.60 0.45 -0.90 0.90 -1.60 0.95 -1.95 0.10z"/>
  <path d="M23.85 32 c-0.20 -0.80 -0.55 -0.95 -1.95 -0.70 -1.20 0.20 -1.45 0.15 -0.90 -0.25 0.65 -0.45 0.65 -0.60 0.05 -1.15 -0.55 -0.50 -0.70 -0.50 -0.90 -0.05 -0.15 0.45 -0.50 0.50 -1.20 0.15 -1.25 -0.70 -1.20 -1.15 0.25 -1.80 1.05 -0.50 1.20 -0.45 0.95 0.25 -0.15 0.45 0.10 0.30 0.55 -0.30 0.55 -0.75 1.40 -1.15 2.35 -1.15 0.80 0 1.45 -0.20 1.45 -0.50 0 -0.25 0.70 -0.50 1.50 -0.50 1 0 1.50 -0.25 1.50 -0.75 0 -0.55 -0.60 -0.75 -2.50 -0.75 l-2.50 0 0 -2.75 c0 -1.50 0.25 -2.75 0.50 -2.75 0.30 0 0.50 0.30 0.50 0.65 0 0.40 0.15 0.35 0.50 -0.15 0.35 -0.60 0.60 -0.60 1.45 0.20 0.55 0.50 1.10 1.40 1.20 2 0.15 0.85 0.25 0.75 0.30 -0.30 0 -0.80 0.30 -1.40 0.55 -1.40 0.30 0 0.50 -0.35 0.50 -0.75 0 -0.40 0.30 -0.75 0.65 -0.75 0.45 0 0.65 0.55 0.55 1.65 l-0.15 1.60 0.55 -1.60 c0.30 -0.90 0.70 -1.65 0.90 -1.65 0.55 0 0.30 6 -0.25 6.40 -0.30 0.20 -1.15 1.20 -1.95 2.30 -0.80 1.05 -1.55 1.65 -1.75 1.40 -0.20 -0.30 -0.85 -0.05 -1.65 0.65 -1.15 1 -1.25 1.25 -0.65 1.75 0.80 0.70 1 2 0.30 2 -0.25 0 -0.55 -0.45 -0.70 -1z"/>
  <path d="M17.90 31.60 c-0.50 -0.10 -0.90 -0.40 -0.90 -0.65 0 -0.55 0.55 -0.55 1.50 0.05 0.90 0.55 0.55 0.90 -0.60 0.60z"/>
  <path d="M16 30.05 c0 -0.30 -0.30 -0.50 -0.60 -0.40 -0.35 0.05 -0.55 -0.25 -0.45 -0.65 0.10 -0.40 0.30 -1.35 0.40 -2.10 0.30 -1.70 2.70 -2.20 4 -0.80 0.75 0.85 0.75 0.90 -0.05 0.90 -1.05 0 -2.45 1.30 -2.10 1.95 0.15 0.25 -0.05 0.70 -0.45 1.05 -0.50 0.45 -0.75 0.45 -0.75 0.05z"/>
  <path d="M11.30 26.20 c-0.55 -0.35 -0.90 -0.80 -0.75 -0.90 0.10 -0.10 0.65 0.10 1.15 0.50 0.55 0.35 0.90 0.80 0.75 0.90 -0.10 0.10 -0.65 -0.10 -1.15 -0.50z"/>
  <path d="M18.40 24.10 c-0.95 -0.55 -1.40 -1.25 -1.40 -2.10 0 -0.90 0.15 -1.05 0.45 -0.55 0.60 0.95 1.40 0.30 1.80 -1.45 0.70 -3.15 2.25 -0.40 1.60 2.90 -0.45 2.35 -0.50 2.35 -2.45 1.20z"/>
  <path d="M12.20 23.25 c-0.15 -0.70 -0.50 -1.15 -0.70 -1 -0.25 0.15 -0.60 0 -0.80 -0.30 -0.20 -0.40 -0.15 -0.45 0.20 -0.25 0.45 0.25 0.60 -0.30 0.60 -1.90 0 -2.25 0.70 -3.15 1.15 -1.40 0.15 0.45 0.25 0.05 0.30 -0.90 0.05 -1.35 0.20 -1.55 0.55 -1 0.40 0.65 0.50 0.60 0.50 -0.10 0 -0.55 0.40 -0.90 1 -0.90 0.90 0 0.95 0.15 0.50 1.05 -0.75 1.35 -0.30 2.45 0.90 2.10 0.60 -0.15 1.10 0.10 1.30 0.65 0.45 1.15 0 1.50 -0.95 0.70 -0.65 -0.55 -0.70 -0.40 -0.45 0.90 0.45 2.10 -0.50 3.60 -2.30 3.60 -1.15 0 -1.55 -0.25 -1.80 -1.25z m2.20 -2.85 c-0.30 -0.90 -1.40 -1.05 -1.40 -0.20 0 0.45 0.35 0.80 0.80 0.80 0.45 0 0.70 -0.25 0.60 -0.60z"/>
  <path d="M21 17.30 c0 -0.85 0.25 -1.30 0.80 -1.30 0.50 0 0.70 0.35 0.60 1.10 -0.25 1.60 -1.40 1.75 -1.40 0.20z"/>
  <path d="M19.40 13.35 c-1 -1.15 -1.70 -2.20 -1.55 -2.35 0.15 -0.15 0.40 0.05 0.50 0.40 0.15 0.30 0.90 0.60 1.70 0.60 1.35 0 1.45 0.15 1.45 1.75 0 0.95 -0.05 1.75 -0.10 1.75 -0.10 0 -0.95 -0.95 -2 -2.15z"/>
  <path d="M15.85 9.45 c-0.40 -0.95 -1.30 -2.40 -2.05 -3.30 -1.60 -1.90 -0.85 -2.80 0.85 -0.95 1.15 1.25 2.65 5.15 2.15 5.65 -0.15 0.15 -0.55 -0.50 -0.95 -1.40z"/>
  <path d="M11 2.25 c0 -0.70 1.25 -1.35 1.70 -0.90 0.55 0.55 0.30 1.05 -0.70 1.30 -0.60 0.15 -1 0 -1 -0.40z"/>
 </g>
 <g fill="#4d476e">
  <path d="M15.05 38.20 c0.30 -0.40 0.95 -0.65 1.40 -0.60 0.55 0.10 0.85 -0.30 0.95 -1.45 0.10 -1 0.45 -1.65 0.85 -1.65 0.50 0 0.70 0.50 0.60 1.65 -0.15 2.05 -0.70 2.60 -2.75 2.70 -1.35 0.05 -1.55 -0.05 -1.05 -0.65z"/>
  <path d="M21.15 31.15 c1.05 -0.30 1.10 -0.95 0.10 -1.35 -1.05 -0.40 -0.95 -1.50 0.25 -2.55 0.55 -0.50 1 -1.20 1 -1.60 0 -0.35 0.35 -0.65 0.75 -0.65 0.85 0 1.05 2.45 0.30 3.90 -0.25 0.45 -0.60 1.25 -0.75 1.75 -0.15 0.50 -0.70 0.85 -1.40 0.80 -0.85 -0.05 -0.90 -0.10 -0.25 -0.30z"/>
  <path d="M11.90 22.40 c-0.30 -1.20 -0.80 -2.30 -1.05 -2.45 -0.60 -0.40 0.10 -2.80 0.90 -3.15 0.45 -0.15 0.75 0.50 1 2.25 0.20 1.45 0.55 2.30 0.85 2.15 0.30 -0.20 0.40 0.10 0.20 0.85 -0.15 0.65 -0.15 0.90 0 0.55 0.15 -0.30 0.45 -0.50 0.65 -0.35 0.70 0.40 -0.05 -2.20 -0.75 -2.80 -0.40 -0.30 -0.70 -1.25 -0.70 -2.10 0 -1.45 0.05 -1.50 0.75 -0.55 0.70 0.95 0.70 0.95 0.45 -0.05 -0.15 -0.70 0.15 -1.40 0.85 -2 l1.10 -1 -0.35 1.40 c-0.15 0.75 -0.45 1.95 -0.60 2.70 -0.30 1.10 -0.20 1.25 0.50 1 0.45 -0.20 0.80 -0.10 0.80 0.10 0 0.25 -0.30 0.55 -0.60 0.70 -0.50 0.15 -0.50 0.35 0 1 0.45 0.50 0.55 1.35 0.35 2.35 -0.30 1.30 -0.55 1.50 -2 1.50 -1.60 0 -1.75 -0.15 -2.35 -2.10z"/>
  <path d="M22.50 22.50 c0 -0.25 0.35 -0.50 0.75 -0.50 0.40 0 0.75 0.25 0.75 0.50 0 0.30 -0.35 0.50 -0.75 0.50 -0.40 0 -0.75 -0.20 -0.75 -0.50z"/>
  <path d="M27 21 c0 -0.55 0.25 -1 0.50 -1 0.30 0 0.50 -0.35 0.50 -0.75 0 -0.40 0.25 -0.75 0.50 -0.75 0.30 0 0.50 0.80 0.50 1.75 0 1.40 -0.20 1.75 -1 1.75 -0.65 0 -1 -0.35 -1 -1z"/>
  <path d="M22.50 20.25 c0 -0.70 0.20 -1.25 0.45 -1.25 0.60 0 1.15 1.45 0.75 2.05 -0.50 0.90 -1.20 0.45 -1.20 -0.80z"/>
  <path d="M16 9.80 c0 -0.40 -0.80 -1.75 -1.75 -3 -0.95 -1.25 -1.55 -2.40 -1.30 -2.50 0.60 -0.40 2.35 1.70 3.25 3.90 0.95 2.25 0.95 2.30 0.30 2.30 -0.25 0 -0.50 -0.30 -0.50 -0.70z"/>
  <path d="M7.50 5.80 c0 -0.75 3.15 -4.20 4.05 -4.45 1.40 -0.40 1.65 0.50 0.35 1.20 -0.65 0.30 -1.90 1.25 -2.75 2.10 -0.90 0.85 -1.65 1.40 -1.65 1.15z"/>
  <path d="M9.80 1.05 c0.50 -0.50 1.05 -0.85 1.15 -0.75 0.30 0.30 -1 1.70 -1.60 1.70 -0.30 0 -0.10 -0.40 0.45 -0.95z"/>
 </g>
 <g fill="#846f3b">
  <path d="M17.80 39.25 c-0.15 -0.40 -0.90 -0.80 -1.65 -0.80 -1.05 -0.05 -1.15 -0.15 -0.40 -0.30 0.55 -0.15 1.25 -0.60 1.60 -1 0.50 -0.65 0.75 -0.60 1.85 0.60 0.70 0.80 1.30 1.60 1.30 1.80 0 0.75 -2.40 0.50 -2.70 -0.30z"/>
  <path d="M24.50 39 c0 -0.55 0.25 -1 0.50 -1 0.30 0 0.50 -0.35 0.50 -0.75 0 -1.10 1.35 -0.90 1.65 0.20 0.10 0.55 -0.15 1.25 -0.70 1.75 -1.30 1.10 -1.95 1 -1.95 -0.20z"/>
  <path d="M24.50 33.50 c-0.85 -2.60 -0.30 -3.15 0.70 -0.75 0.90 2.10 1 2.75 0.40 2.75 -0.25 0 -0.75 -0.90 -1.10 -2z"/>
  <path d="M17 31.25 c0 -0.40 0.25 -0.75 0.50 -0.75 0.30 0 0.50 0.35 0.50 0.75 0 0.40 -0.20 0.75 -0.50 0.75 -0.25 0 -0.50 -0.35 -0.50 -0.75z"/>
  <path d="M16 30 c0 -0.25 -0.40 -0.30 -0.85 -0.15 -0.65 0.25 -0.75 0.15 -0.40 -0.65 1.05 -2.50 0.90 -3.50 -0.70 -4.20 -1.15 -0.45 -1.70 -1.10 -2.15 -2.70 -0.35 -1.10 -0.80 -2.20 -1.05 -2.35 -0.65 -0.45 0.20 -2.95 1 -2.95 0.50 0 0.65 0.30 0.45 0.80 -0.15 0.45 -0.15 1.05 0.05 1.35 0.20 0.35 0.40 0.70 0.45 0.85 0.35 1.80 0.95 3 1.50 3 0.85 0 0.45 -2.30 -0.60 -3.55 -0.40 -0.40 -0.70 -1.45 -0.70 -2.25 l0 -1.45 1.15 1.60 c0.70 1.05 1.40 1.55 1.90 1.40 0.45 -0.15 1.10 0.10 1.45 0.50 0.85 1 0.25 1.60 -0.75 0.75 -0.40 -0.35 -0.75 -0.40 -0.75 -0.15 0 0.50 1.85 2.15 2.45 2.15 0.25 0 0.60 -0.80 0.75 -1.75 0.20 -0.95 0.55 -1.75 0.75 -1.75 0.60 0 1.05 3.20 0.50 3.40 -0.25 0.10 -0.45 0.75 -0.45 1.45 0 1 -0.15 1.15 -1.10 0.90 -0.80 -0.30 -1 -0.20 -0.75 0.40 0.20 0.55 -0.05 0.90 -0.70 1.10 -0.55 0.20 -0.90 0.45 -0.75 0.60 0.15 0.20 0 0.65 -0.35 1.05 -0.50 0.65 -0.45 0.75 0.25 0.45 0.70 -0.25 0.75 -0.10 0.30 1.20 -0.50 1.45 -0.90 1.90 -0.90 0.95z m1.15 -5.30 c0.40 -0.40 -0.15 -1.70 -0.70 -1.70 -0.25 0 -0.45 0.45 -0.45 1 0 0.95 0.55 1.30 1.15 0.70z"/>
  <path d="M27 21.75 c0 -0.40 0.25 -1.15 0.55 -1.65 0.40 -0.65 0.30 -1.35 -0.35 -2.85 l-0.90 -2 -0.25 1.50 c-0.40 1.95 -1 1.75 -2 -0.55 l-0.85 -1.90 -0.60 2.10 c-0.85 2.75 -1.60 2.70 -1.60 -0.10 0 -2.65 0.75 -3.05 4.55 -2.55 2.05 0.30 2.45 0.20 2.45 -0.45 0 -1 1.30 -1.05 1.70 -0.05 0.30 0.85 -0.15 2.30 -0.90 2.90 -0.40 0.30 -0.35 0.50 0.10 0.70 0.45 0.15 0.55 1 0.40 2.80 -0.25 2.60 -0.25 2.60 0.30 0.75 0.60 -2 1.75 -2.70 1.20 -0.75 -0.15 0.60 -0.30 1.50 -0.30 2 0 0.65 -0.40 0.85 -1.75 0.85 -1.25 0 -1.75 -0.25 -1.75 -0.75z"/>
  <path d="M14.25 17 c-0.20 -0.30 -0.10 -0.85 0.20 -1.15 0.75 -0.75 1.25 -0.10 0.65 0.95 -0.35 0.60 -0.55 0.65 -0.85 0.20z"/>
  <path d="M17.75 11.50 c-0.15 -0.25 0 -0.50 0.40 -0.50 0.35 0 1 -0.55 1.35 -1.25 0.95 -1.75 1.50 -1.55 1.50 0.50 0 1.60 -0.10 1.75 -1.45 1.75 -0.85 0 -1.65 -0.20 -1.80 -0.50z"/>
  <path d="M29.35 2.65 c0.50 -0.15 0.50 -0.50 0.10 -1.25 -0.85 -1.55 -0.10 -1.70 1.30 -0.20 0.70 0.75 1.25 1.45 1.25 1.60 0 0.10 -0.75 0.20 -1.60 0.15 -0.90 0 -1.35 -0.15 -1.05 -0.30z"/>
 </g>
 <g fill="#72605d">
  <path d="M17.60 39 c-0.35 -0.60 -0.45 -1.35 -0.20 -1.90 0.40 -0.95 0.40 -2.50 -0.15 -4.95 -0.40 -1.65 -0.05 -2 1.15 -1.20 0.45 0.30 0.60 1.35 0.50 3.50 -0.05 1.80 0.10 3.25 0.40 3.45 0.30 0.20 0.65 0.75 0.85 1.25 0.30 0.75 0.20 0.80 -0.70 0.30 -0.75 -0.40 -0.95 -0.40 -0.75 0 0.20 0.30 0.15 0.55 -0.05 0.55 -0.25 0 -0.70 -0.45 -1.05 -1z"/>
  <path d="M24.50 39 c0 -0.55 0.25 -1 0.55 -1 0.35 0 0.50 -0.60 0.35 -1.50 -0.30 -1.85 0.65 -1.75 1.30 0.15 0.40 1.10 0.30 1.55 -0.60 2.35 -1.35 1.25 -1.60 1.25 -1.60 0z"/>
  <path d="M24.20 32.25 c-0.30 -1.15 -0.50 -1.25 -2.15 -1.05 -1 0.15 -1.40 0.15 -0.90 0 1 -0.30 1.10 -0.75 0.25 -1.60 -0.45 -0.45 -0.35 -0.90 0.45 -2 0.85 -1.15 1 -1.90 0.80 -3.55 -0.25 -1.65 -0.15 -2.05 0.55 -2.05 0.45 0 0.80 0.25 0.80 0.55 0 0.40 0.30 0.35 0.85 -0.10 0.65 -0.55 0.85 -0.55 1 -0.05 0.40 1.05 1.15 0.65 1.15 -0.65 0 -0.70 0.30 -1.40 0.70 -1.55 0.40 -0.15 0.60 -0.60 0.45 -1 -0.15 -0.40 0 -0.70 0.35 -0.70 0.40 0 0.55 0.45 0.40 1.20 -0.40 1.90 0.45 2.70 0.85 0.85 0.50 -2.30 1 -1.90 1 0.85 0 1.70 -0.30 2.75 -1.10 3.80 -0.65 0.80 -1.15 1.60 -1.15 1.85 0 0.25 -0.45 0.65 -1 0.95 -0.85 0.45 -0.95 0.40 -0.65 -0.35 0.20 -0.50 -0.45 -0.10 -1.45 0.85 -1.45 1.45 -1.65 1.90 -1.15 2.50 0.85 1.10 1.30 2.50 0.75 2.50 -0.25 0 -0.60 -0.55 -0.80 -1.25z"/>
  <path d="M15.80 28.85 c-0.65 -2.40 -0.40 -2.85 1.45 -2.85 0.95 0 1.75 0.25 1.75 0.50 0 0.30 -0.55 0.50 -1.20 0.50 -0.70 0 -1.40 0.25 -1.60 0.60 -0.25 0.35 -0.10 0.45 0.40 0.25 0.60 -0.20 0.70 -0.05 0.55 0.70 -0.40 1.45 -1 1.60 -1.35 0.30z"/>
  <path d="M14.65 25.15 c-0.35 -0.10 -0.65 -0.55 -0.65 -0.90 0 -0.35 -0.30 -0.80 -0.60 -0.90 -0.35 -0.15 -0.10 -0.30 0.55 -0.30 0.85 -0.05 1.10 -0.30 0.95 -0.95 -0.20 -0.75 0 -0.85 1.15 -0.70 1.05 0.15 1.45 0.50 1.45 1.20 0 0.85 -0.15 0.90 -0.75 0.40 -0.60 -0.50 -0.75 -0.50 -0.75 0.20 0 1.25 0.20 1.55 0.90 1.50 0.30 -0.05 0.60 0.10 0.60 0.35 0 0.45 -1.80 0.55 -2.85 0.10z"/>
  <path d="M19 22.55 c0 -2.80 1.10 -4.10 1.65 -1.95 0.40 1.55 -0.10 3.40 -0.95 3.40 -0.45 0 -0.70 -0.55 -0.70 -1.45z"/>
  <path d="M12.05 21.55 c-0.70 -1.30 -0.70 -2.70 0 -2.45 0.30 0.10 0.55 0.40 0.55 0.65 0 0.30 0.20 0.90 0.45 1.35 0.30 0.50 0.25 0.95 0 1.15 -0.30 0.15 -0.75 -0.15 -1 -0.70z"/>
  <path d="M14 19.25 c-0.50 -0.55 -0.50 -0.95 -0.10 -1.35 0.30 -0.30 0.40 -0.85 0.25 -1.20 -0.15 -0.45 0.05 -0.70 0.60 -0.70 0.45 0 0.65 0.20 0.50 0.50 -0.55 0.90 -0.70 2.50 -0.20 2.50 0.25 0 0.45 0.25 0.45 0.50 0 0.75 -0.80 0.60 -1.50 -0.25z"/>
  <path d="M29.60 1.65 c-0.05 -1.50 0.05 -1.70 0.55 -1.05 0.30 0.40 1.10 1.25 1.75 1.85 l1.10 1.05 -1.65 0 c-1.60 0 -1.70 -0.10 -1.75 -1.85z"/>
 </g>
 <g fill="#655c89">
  <path d="M24.50 39.50 c0 -0.75 1.55 -3 2.05 -3 0.25 0 0.45 0.55 0.45 1.25 0 0.80 -0.30 1.25 -0.75 1.25 -0.40 0 -0.75 0.25 -0.75 0.50 0 0.30 -0.20 0.50 -0.50 0.50 -0.25 0 -0.50 -0.25 -0.50 -0.50z"/>
  <path d="M17.25 37.65 c0.20 -0.50 0.40 -1.35 0.50 -1.90 0.05 -0.55 0.15 -1.15 0.20 -1.35 0 -0.25 0.30 -0.40 0.60 -0.40 0.40 0 0.45 0.55 0.25 1.55 -0.15 0.90 -0.05 1.90 0.25 2.25 0.45 0.55 0.30 0.70 -0.80 0.70 -1.10 0 -1.30 -0.15 -1 -0.85z"/>
  <path d="M22.15 30.65 c0.20 -0.15 -0.05 -0.55 -0.50 -0.90 -0.75 -0.55 -0.70 -0.70 0.15 -2.15 1.25 -2.20 1.85 -2 1.50 0.55 -0.15 1.15 -0.25 2.25 -0.25 2.50 -0.05 0.20 -0.30 0.35 -0.65 0.35 -0.30 0 -0.40 -0.15 -0.25 -0.35z"/>
  <path d="M25.50 26.85 c0 -0.35 0.20 -0.85 0.45 -1.10 0.30 -0.30 0.70 -1.60 0.95 -3 0.25 -1.60 0.65 -2.45 1.05 -2.35 0.40 0.10 0.50 -0.20 0.30 -0.90 -0.20 -0.60 -0.10 -1 0.20 -1 0.30 0 0.55 0.60 0.50 1.40 0 0.75 0.10 2.20 0.30 3.20 0.30 1.40 0.15 2.20 -0.45 3.15 -0.80 1.25 -2.20 1.80 -1.50 0.65 0.30 -0.50 0.20 -0.50 -0.35 0 -0.85 0.80 -1.45 0.75 -1.45 -0.05z"/>
  <path d="M22.60 23.15 c0.25 -1.20 1.25 -1.35 1.55 -0.15 0.20 0.75 0 1 -0.75 1 -0.65 0 -0.90 -0.30 -0.80 -0.85z"/>
  <path d="M11.80 21.10 c-0.10 -0.20 -0.35 -1.20 -0.55 -2.25 -0.30 -1.55 -0.20 -1.85 0.50 -1.85 0.60 0 0.75 0.25 0.55 0.80 -0.15 0.45 -0.15 1.05 0.05 1.35 0.50 0.80 0.55 2.35 0.10 2.35 -0.20 0 -0.50 -0.15 -0.65 -0.40z"/>
  <path d="M14.25 17 c-0.20 -0.35 0.05 -1.05 0.70 -1.65 1.20 -1.20 1.35 -0.70 0.35 1.10 -0.45 0.85 -0.75 1 -1.05 0.55z"/>
  <path d="M13.25 5.50 c-0.85 -0.90 -0.85 -1 -0.05 -1 0.45 0 0.95 0.35 1.15 0.75 0.45 1.25 -0.10 1.35 -1.10 0.25z"/>
  <path d="M9.50 3.25 c0.30 -0.40 0.50 -0.90 0.35 -1.10 -0.15 -0.20 0.50 -0.45 1.45 -0.50 0.95 -0.10 1.70 -0.05 1.70 0.05 0 0.25 -3.45 2.30 -3.85 2.30 -0.15 0 0 -0.35 0.35 -0.75z"/>
 </g>
 <g fill="#a97e27">
  <path d="M15.50 27.05 c0 -0.90 -0.35 -1.75 -0.85 -2.05 -0.75 -0.45 -0.60 -0.50 0.70 -0.30 1.80 0.30 2.55 -0.35 1.65 -1.45 -0.55 -0.65 -0.35 -0.75 0.95 -0.75 1.25 0 1.55 0.20 1.55 1.05 0 0.90 -0.10 0.95 -0.75 0.45 -0.60 -0.50 -0.75 -0.50 -0.75 0.10 0 0.40 0.25 0.95 0.60 1.30 0.45 0.45 0.45 0.60 -0.05 0.60 -0.40 0 -1.20 0.55 -1.85 1.30 l-1.20 1.25 0 -1.50z"/>
  <path d="M19.35 20 c0.15 -0.55 0.45 -1 0.70 -1 0.25 0 0.45 0.45 0.45 1 0 0.55 -0.30 1 -0.70 1 -0.45 0 -0.60 -0.35 -0.45 -1z"/>
  <path d="M24 15.90 c-0.60 -1.60 -0.60 -1.65 -1.10 -0.50 -0.75 1.55 -1.50 1.35 -2.45 -0.60 l-0.80 -1.70 1.50 -0.30 c2.20 -0.45 3.85 -0.35 3.85 0.20 0 0.30 0.55 0.50 1.25 0.50 1.20 0 1.25 -0.10 1.25 -3.25 0 -1.85 -0.20 -3.25 -0.50 -3.25 -0.25 0 -0.50 -0.90 -0.50 -2 0 -1.95 0.05 -2 1.70 -2 2.15 0 2.60 0.70 1.55 2.30 -0.45 0.65 -0.70 1.40 -0.55 1.65 0.55 0.85 0.45 8.25 -0.15 8.45 -0.30 0.10 -0.55 0.50 -0.55 0.85 0 0.35 -0.35 0.75 -0.75 0.95 -0.50 0.20 -0.75 -0.05 -0.75 -0.70 0 -0.55 -0.20 -1 -0.50 -1 -0.25 0 -0.50 0.45 -0.50 1 0 1.60 -1.35 1.15 -2 -0.60z"/>
  <path d="M21.50 6.55 c0 -0.50 3.30 -4.05 3.75 -4.05 0.15 0 0.25 0.70 0.25 1.50 0 1 -0.25 1.50 -0.75 1.50 -0.40 0 -0.75 0.35 -0.75 0.75 0 0.45 -0.45 0.75 -1.25 0.75 -0.70 0 -1.25 -0.20 -1.25 -0.45z"/>
 </g>
 <g fill="#c15e37">
  <path d="M27.40 6.45 c-0.65 -0.35 -0.90 -1.15 -0.90 -2.70 0 -1.25 0.20 -2.25 0.45 -2.25 0.25 0 0.80 -0.15 1.25 -0.30 0.55 -0.20 0.80 -0.05 0.80 0.50 0 0.45 0.25 0.80 0.50 0.80 0.35 0 0.35 -0.35 0 -1.05 -0.95 -1.70 -0.15 -1.65 1.45 0.15 1.75 1.90 1.95 2.60 0.65 2.20 -0.65 -0.20 -1.15 0.20 -1.80 1.45 -1.05 1.90 -1.15 1.95 -2.40 1.20z"/>
 </g>
 <g fill="#8f7971">
  <path d="M17.80 38.90 c-0.65 -0.75 -0.75 -1.15 -0.25 -1.70 0.45 -0.60 0.70 -0.50 1.50 0.50 1.15 1.45 1.15 1.60 0.25 1.95 -0.35 0.15 -1.05 -0.20 -1.50 -0.75z"/>
  <path d="M24.50 39.25 c0 -0.40 0.25 -0.75 0.50 -0.75 0.30 0 0.50 -0.35 0.50 -0.75 0 -0.40 0.35 -0.75 0.75 -0.75 0.40 0 0.75 0.45 0.75 1 0 0.55 -0.35 1 -0.75 1 -0.40 0 -0.75 0.25 -0.75 0.50 0 0.30 -0.20 0.50 -0.50 0.50 -0.25 0 -0.50 -0.35 -0.50 -0.75z"/>
  <path d="M17.60 33.15 c-0.65 -2.10 -0.60 -2.30 0.60 -1.85 0.50 0.20 0.80 0.90 0.80 2 0 2.25 -0.70 2.15 -1.40 -0.15z"/>
  <path d="M21.70 30.95 c0.75 -0.45 0.80 -0.65 0.25 -1 -0.60 -0.35 -0.60 -0.65 0 -2.05 0.35 -0.90 0.60 -2.50 0.60 -3.50 -0.05 -1 0.15 -1.95 0.40 -2.10 0.60 -0.40 1.55 1.25 1.55 2.70 0 0.75 0.25 1 0.85 0.90 0.60 -0.10 1.05 -0.95 1.40 -2.55 0.30 -1.30 0.80 -2.60 1.20 -2.80 0.35 -0.25 0.50 -0.70 0.35 -1 -0.20 -0.30 -0.10 -0.55 0.20 -0.55 0.30 0 0.50 0.40 0.45 0.85 -0.20 2.35 0.15 2.85 0.80 1.15 l0.70 -1.75 -0.10 2.60 c-0.05 1.40 -0.20 2.50 -0.30 2.35 -0.10 -0.10 -0.65 0.70 -1.15 1.80 -1 1.95 -2.35 2.85 -1.70 1.15 0.25 -0.65 0.05 -0.60 -0.90 0.30 -0.65 0.65 -1.45 1 -1.75 0.80 -0.95 -0.55 -1.55 0.20 -1.05 1.45 0.35 1 0.25 1.25 -0.65 1.50 -1.70 0.45 -2.20 0.35 -1.15 -0.25z"/>
  <path d="M15.85 26.90 c0.25 -1.65 0.15 -1.90 -0.70 -1.90 -0.95 0 -2.15 -0.85 -2.15 -1.60 0 -0.20 0.45 -0.40 0.95 -0.40 0.75 0 0.95 -0.35 0.95 -1.50 -0.05 -0.85 -0.35 -1.75 -0.75 -2.05 -1.05 -0.90 -0.75 -1.55 0.35 -0.85 0.55 0.35 1 0.95 1 1.30 0 0.35 0.35 0.75 0.75 0.90 0.90 0.35 1 2.25 0.15 2.10 -0.35 -0.10 -0.65 0.30 -0.65 0.85 0 0.70 0.35 1 1.05 1 1.10 0 2.70 1.05 2.70 1.80 0 0.25 -0.65 0.45 -1.50 0.45 -0.85 0 -1.65 0.35 -1.95 0.90 -0.40 0.65 -0.45 0.35 -0.20 -1z"/>
  <path d="M19.20 24.25 c-0.60 -0.40 -1.20 -0.55 -1.40 -0.40 -0.15 0.15 -0.30 -0.05 -0.30 -0.50 0 -0.60 0.45 -0.85 1.50 -0.85 1.25 0 1.50 0.20 1.50 1.25 0 1.45 0 1.45 -1.30 0.50z"/>
  <path d="M12 21.55 c-0.65 -1.25 -0.70 -2.95 -0.05 -2.25 0.50 0.45 1.15 3.20 0.80 3.20 -0.15 0 -0.45 -0.45 -0.75 -0.95z"/>
  <path d="M18.30 12.05 c-0.80 -0.85 -0.80 -0.95 0.20 -1.20 0.80 -0.20 1 0 1 0.95 0 1.45 -0.10 1.45 -1.20 0.25z"/>
 </g>
 <g fill="#836b8c">
  <path d="M24.50 39.30 c0 -0.40 0.25 -0.80 0.55 -0.90 0.30 -0.10 0.60 -0.80 0.60 -1.55 0 -1.50 0.55 -1.80 1.05 -0.55 0.60 1.55 0.35 2.75 -0.55 2.60 -0.50 -0.10 -0.85 0.15 -0.75 0.50 0.05 0.30 -0.10 0.60 -0.40 0.60 -0.25 0 -0.50 -0.30 -0.50 -0.70z"/>
  <path d="M17.90 36.15 c-0.25 -1.20 0.05 -2.65 0.65 -2.65 0.55 0 0.60 2 0 2.90 -0.30 0.55 -0.45 0.50 -0.65 -0.25z"/>
  <path d="M21.75 28.65 c0.15 -0.80 0.50 -2.50 0.65 -3.80 0.40 -2.90 1.20 -3.10 1.75 -0.50 0.25 1.05 0.65 2.35 0.95 2.85 0.45 0.80 0.35 0.90 -0.60 0.65 -0.80 -0.20 -1.20 0.05 -1.60 0.95 -0.75 1.65 -1.60 1.55 -1.15 -0.15z"/>
  <path d="M27.20 27.20 c0.30 -0.75 0.20 -0.75 -0.50 -0.15 -0.80 0.65 -0.85 0.60 -0.55 -0.55 0.15 -0.70 0.45 -2.20 0.65 -3.40 0.40 -2.50 1.20 -3.30 1.25 -1.25 l0.05 1.40 0.35 -1.25 c0.35 -1.15 0.40 -1.10 0.75 0.70 0.30 1.50 0.15 2.35 -0.55 3.65 -0.90 1.70 -2 2.35 -1.45 0.85z"/>
  <path d="M16 9.60 c0 -0.45 -0.70 -1.70 -1.55 -2.75 -0.85 -1.05 -1.45 -2.05 -1.25 -2.20 0.50 -0.55 1.90 1.05 2.85 3.25 1.10 2.55 1.10 2.60 0.45 2.60 -0.25 0 -0.50 -0.40 -0.50 -0.90z"/>
  <path d="M10.25 2.50 c0.90 -1 2.25 -1.35 2.25 -0.60 0 0.40 -2.15 1.60 -2.85 1.60 -0.15 0 0.10 -0.45 0.60 -1z"/>
 </g>
 <g fill="#d69419">
  <path d="M27.20 16.25 c-0.15 -0.70 -0.65 -1.25 -1.05 -1.25 -0.45 0 -0.65 0.30 -0.45 0.75 0.50 1.30 -0.95 0.80 -1.80 -0.60 -0.65 -1.05 -0.90 -1.15 -0.90 -0.50 0 0.45 -0.35 0.85 -0.75 0.85 -0.40 0 -0.75 -0.30 -0.75 -0.65 0 -0.35 -0.50 -0.85 -1.10 -1.10 -2.05 -0.95 -2.15 -1.85 -0.40 -4.65 1.10 -1.80 1.90 -2.60 2.65 -2.60 1.15 -0.05 3.35 -2.90 3.35 -4.30 0 -0.40 0.50 -0.70 1.20 -0.70 1.10 0 1.20 0.15 0.95 2.10 -0.25 1.65 -0.15 2 0.40 1.80 0.55 -0.20 0.70 0.85 0.80 5.90 0.05 5.80 0 6.20 -0.90 6.20 -0.60 0 -1.05 -0.45 -1.25 -1.25z"/>
  <path d="M29.60 1.40 c-0.35 -0.35 -0.60 -0.80 -0.60 -1 0 -0.75 0.75 -0.40 1.40 0.60 0.65 1.10 0.15 1.35 -0.80 0.40z"/>
 </g>
 <g fill="#aa9653">
  <path d="M18.60 39 c-1.40 -0.85 -1.60 -1.15 -1.10 -1.75 0.60 -0.75 0.50 -3.75 -0.25 -5.45 -0.30 -0.70 -0.20 -0.85 0.55 -0.70 0.80 0.15 0.95 0.65 0.95 3.20 0 1.70 0.25 3.35 0.55 3.75 0.70 0.90 1.30 1.95 1.10 1.95 -0.10 0 -0.90 -0.45 -1.80 -1z"/>
  <path d="M25.95 38.40 c-0.05 -0.35 -0.05 -0.80 -0.05 -0.95 0.05 -0.20 -0.40 -1.50 -0.90 -3 -0.55 -1.45 -0.90 -2.75 -0.75 -2.85 0.30 -0.30 2.75 5.20 2.75 6.15 0 0.90 -1 1.50 -1.05 0.65z"/>
  <path d="M15.70 27.35 c0.25 -1.05 0.05 -1.50 -1.20 -2.35 -1.80 -1.30 -1.90 -1.85 -0.30 -1.85 0.80 0 1.30 0.30 1.45 0.95 0.20 0.70 0.55 0.90 1.25 0.70 0.70 -0.25 1.20 0.05 1.85 1 0.80 1.25 0.80 1.30 -0.20 0.95 -0.65 -0.20 -1.35 0.05 -2.10 0.80 l-1.10 1.10 0.35 -1.30z"/>
  <path d="M27 27.65 c0 -0.70 0.95 -1.90 1.25 -1.60 0.40 0.40 -0.25 1.95 -0.80 1.95 -0.25 0 -0.45 -0.15 -0.45 -0.35z"/>
  <path d="M18.90 23.95 c-0.50 -0.25 -0.90 -0.35 -0.90 -0.15 0 0.20 -0.45 -0.05 -1 -0.55 -0.55 -0.50 -1 -0.70 -1 -0.45 0 0.25 -0.35 0.05 -0.75 -0.45 -0.35 -0.55 -0.55 -1.25 -0.45 -1.55 0.15 -0.35 -0.10 -0.95 -0.55 -1.30 -0.40 -0.35 -0.75 -0.90 -0.75 -1.20 0.05 -0.30 0.65 0.15 1.40 0.95 0.75 0.85 1.85 1.90 2.45 2.45 1.10 0.90 1.10 0.90 1.85 -0.90 0.40 -1 0.85 -1.80 1 -1.80 0.20 0 0.30 1.25 0.30 2.75 0 2.85 -0.15 3.05 -1.60 2.20z"/>
  <path d="M28.55 22.15 c0.05 -1.10 0.10 -1.15 0.30 -0.40 0.15 0.55 0.50 1.15 0.85 1.35 0.35 0.25 0.25 0.40 -0.30 0.40 -0.65 0 -0.90 -0.35 -0.85 -1.35z"/>
  <path d="M12 21.20 c-0.60 -1.55 -0.60 -1.70 -0.05 -1.70 0.25 0 0.55 0.70 0.65 1.50 0.30 1.85 0.05 1.90 -0.60 0.20z"/>
  <path d="M30 20.60 c0 -0.85 0.20 -1.70 0.50 -1.85 0.30 -0.20 0.35 0.30 0.15 1.35 -0.40 2.20 -0.65 2.40 -0.65 0.50z"/>
  <path d="M27.90 18.70 c-0.45 -1.05 -1 -2.70 -1.15 -3.55 -0.30 -1.45 -0.20 -1.65 0.70 -1.65 1.30 0 2.30 3.25 1.65 5.55 l-0.40 1.60 -0.80 -1.95z"/>
  <path d="M21 16.20 c0 -2.20 0.80 -3.70 2 -3.70 0.30 0 0.45 0.40 0.30 0.90 -0.10 0.45 -0.50 1.80 -0.85 3 -0.80 2.75 -1.45 2.70 -1.45 -0.20z"/>
  <path d="M24.25 16.35 c-0.80 -1.90 -0.50 -3.85 0.55 -3.85 0.80 0 0.80 -0.05 0.95 2.85 0.20 2.70 -0.55 3.25 -1.50 1z"/>
  <path d="M25.35 2.45 c1.15 -1.15 2.65 -1 2.65 0.30 0 0.55 -0.50 0.75 -1.85 0.75 l-1.85 0 1.05 -1.05z"/>
 </g>
 <g fill="#d9a82a">
  <path d="M19.30 24.10 c-0.20 -0.35 -0.75 -0.55 -1.20 -0.50 -0.45 0.10 -0.90 -0.25 -1 -0.70 -0.10 -0.60 0.10 -0.75 0.85 -0.55 0.80 0.20 1.05 0.05 1.05 -0.75 0 -1.30 0.90 -1.95 1.30 -0.95 0.40 1.05 -0.50 4.20 -1 3.45z"/>
  <path d="M28 18.75 c-0.30 -0.80 -0.60 -2 -0.60 -2.60 0 -0.65 -0.20 -1.15 -0.45 -1.15 -0.25 0 -0.45 -0.40 -0.50 -0.85 0 -0.65 -0.15 -0.60 -0.50 0.25 -0.25 0.65 -0.30 1.40 -0.15 1.65 0.15 0.25 0.10 0.95 -0.10 1.60 -0.35 1.05 -0.40 1.05 -1 -0.40 -0.35 -0.80 -0.70 -2.30 -0.75 -3.25 l-0.05 -1.75 -0.75 1.90 c-0.75 1.75 -2.15 2.55 -2.15 1.20 0 -0.40 -0.55 -1.20 -1.20 -1.80 -1.30 -1.20 -1.25 -2.55 0.05 -2.55 0.45 0 0.65 0.30 0.45 0.75 -0.15 0.40 -0.05 0.75 0.20 0.75 0.45 0 0.90 -0.90 4 -7.90 0.65 -1.40 1.30 -2.65 1.45 -2.65 2 -0.45 2.55 -0.25 2.25 0.75 -0.15 0.55 -1.10 2.20 -2 3.65 -2.10 3.20 -2.25 4.20 -0.15 1.15 0.85 -1.25 1.40 -1.80 1.30 -1.25 -0.35 1.25 -0.90 7.15 -0.65 6.50 0.15 -0.25 0.35 -1.10 0.50 -1.85 0.50 -2.30 1.30 -1.60 1.30 1.15 0 1.55 0.20 2.40 0.50 2.20 0.60 -0.40 0.65 0.25 0 1.25 -0.30 0.45 -0.25 0.85 0.10 1.05 0.40 0.25 0.40 0.85 0.05 2.05 l-0.50 1.65 -0.65 -1.50z"/>
 </g>
 <g fill="#9d889f">
  <path d="M25.95 38.65 c0 -0.25 -0.10 -0.90 -0.15 -1.50 -0.15 -1.30 0.45 -1.55 0.90 -0.35 0.45 1.20 0.35 2.20 -0.20 2.20 -0.25 0 -0.50 -0.15 -0.55 -0.35z"/>
  <path d="M22.20 28.25 c0.20 -0.80 0.45 -2.35 0.65 -3.40 0.20 -1.50 0.40 -1.75 0.95 -1.30 0.40 0.30 0.70 1.15 0.70 1.90 0 0.75 0.30 1.65 0.65 2 0.50 0.60 0.40 0.65 -0.40 0.35 -0.65 -0.25 -1.25 0 -1.90 0.80 l-0.95 1.15 0.30 -1.50z"/>
  <path d="M27.25 27.25 c0.20 -0.55 0.55 -2 0.80 -3.20 0.45 -2.35 0.95 -3.30 0.95 -1.90 0 0.45 0.20 0.85 0.45 0.85 0.75 0 0 2.20 -1.30 3.75 -0.85 1 -1.15 1.20 -0.90 0.50z"/>
  <path d="M14.20 24.10 c-0.50 -0.75 -0.40 -0.90 0.35 -0.95 0.65 -0.05 0.95 0.25 0.95 0.90 0 1.20 -0.60 1.25 -1.30 0.05z"/>
  <path d="M11.50 19.80 c-0.60 -1.65 -0.60 -1.80 -0.05 -1.80 0.50 0 1.25 2.50 0.85 2.90 -0.15 0.10 -0.50 -0.35 -0.80 -1.10z"/>
  <path d="M15.95 9.15 c-0.30 -0.80 -1.10 -2 -1.80 -2.75 -1.50 -1.55 -1.35 -2.25 0.20 -1.15 0.60 0.40 1.40 1.75 1.80 3 0.85 2.40 0.65 3.15 -0.20 0.90z"/>
 </g>
 <g fill="#d4af4e">
  <path d="M26 38 c0 -0.55 0.25 -1 0.50 -1 0.30 0 0.50 0.45 0.50 1 0 0.55 -0.20 1 -0.50 1 -0.25 0 -0.50 -0.45 -0.50 -1z"/>
  <path d="M24.85 34.15 c-0.10 -0.50 -0.40 -1.35 -0.60 -1.90 -0.60 -1.50 0.45 -0.30 1.15 1.40 0.30 0.75 0.40 1.35 0.15 1.35 -0.25 0 -0.55 -0.40 -0.70 -0.85z"/>
  <path d="M17.85 33.65 c-0.10 -0.50 -0.40 -1.30 -0.60 -1.75 -0.25 -0.65 -0.10 -0.90 0.45 -0.90 0.90 0 1.65 2.35 0.95 3.05 -0.35 0.35 -0.60 0.20 -0.80 -0.40z"/>
  <path d="M15.85 26.70 c0.10 -0.30 -0.10 -0.90 -0.45 -1.25 -1.75 -1.85 -1.90 -2.25 -0.85 -2.25 0.60 0 0.95 0.35 0.95 0.95 0 0.75 0.25 0.90 1.20 0.75 0.70 -0.15 1.35 0.05 1.65 0.60 0.45 0.65 0.25 0.90 -1.10 1.30 -1.25 0.40 -1.60 0.35 -1.40 -0.10z"/>
  <path d="M19.30 24.10 c-0.20 -0.35 -0.75 -0.55 -1.20 -0.50 -0.50 0.10 -0.90 -0.25 -1 -0.85 -0.20 -0.85 -0.10 -0.90 0.60 -0.30 0.70 0.60 0.90 0.50 1.35 -0.90 0.80 -2.30 1.70 -1.25 1.10 1.30 -0.30 1.25 -0.55 1.70 -0.85 1.25z"/>
  <path d="M28 18.75 c-0.30 -0.80 -0.65 -2.40 -0.80 -3.60 -0.20 -1.75 -0.10 -2.15 0.55 -2.15 0.45 0 0.65 0.25 0.45 0.55 -0.15 0.30 -0.05 0.70 0.25 0.90 0.60 0.40 0.90 4.85 0.40 5.40 -0.20 0.15 -0.55 -0.35 -0.85 -1.10z"/>
  <path d="M21 15.90 c0 -2.25 0.15 -2.90 0.75 -2.90 0.40 0 0.75 -0.45 0.75 -1 0 -0.55 0.25 -1 0.55 -1 0.35 0 0.45 0.40 0.20 1.15 -0.35 1.25 -0.65 2.70 -0.70 3.90 -0.05 0.40 -0.40 1.20 -0.80 1.75 -0.65 0.85 -0.70 0.70 -0.75 -1.90z"/>
  <path d="M24.45 16.60 c-0.70 -2.40 -0.25 -5.60 0.85 -5.60 0.65 0 0.70 0.60 0.50 3.55 -0.10 1.95 -0.35 3.65 -0.50 3.80 -0.10 0.15 -0.50 -0.65 -0.85 -1.75z"/>
  <path d="M23.55 4.05 c0.35 -0.50 1 -1.15 1.50 -1.50 0.85 -0.50 0.95 -0.40 0.95 0.95 0 1.35 -0.15 1.50 -1.50 1.50 -1.35 0 -1.45 -0.10 -0.95 -0.95z"/>
  <path d="M30.20 2.25 c-0.75 -1 -1.25 -1.85 -1.15 -1.95 0.20 -0.25 3.95 3.05 3.95 3.45 0 0.85 -1.65 -0.05 -2.80 -1.50z"/>
 </g>
 <g fill="#f3b728">
  <path d="M26 38.05 c0 -0.60 0.25 -1.05 0.50 -1.05 0.30 0 0.50 0.30 0.50 0.70 0 0.40 -0.20 0.90 -0.50 1.05 -0.25 0.15 -0.50 -0.15 -0.50 -0.70z"/>
  <path d="M18.90 21.95 c0.55 -1.40 1.30 -1.45 1.50 -0.05 0.15 0.85 -0.10 1.10 -0.85 1.10 -0.80 0 -0.95 -0.20 -0.65 -1.05z"/>
  <path d="M28.10 18.65 c-0.70 -1.30 -1.20 -5.90 -0.80 -7.40 0.45 -1.90 1.15 -1 1 1.30 -0.10 1.45 0 1.95 0.45 1.75 0.50 -0.15 0.65 0.40 0.55 2.25 -0.15 2.80 -0.50 3.45 -1.20 2.10z"/>
  <path d="M19.90 13.55 c-0.80 -0.75 -1.40 -1.50 -1.40 -1.70 0 -0.45 2.95 -5.35 3.90 -6.50 0.60 -0.65 0.85 -0.70 1.15 -0.25 0.25 0.40 0.50 0.15 0.70 -0.75 0.45 -1.60 1.30 -2.40 3 -2.55 1.10 -0.15 1.25 0 0.95 0.90 -0.20 0.55 -0.55 1.15 -0.80 1.20 -0.55 0.25 -3 5.15 -4.15 8.50 -0.55 1.40 -1.20 2.60 -1.45 2.55 -0.30 -0.05 -1.15 -0.65 -1.90 -1.40z m1.85 -2.75 c0.45 -1.05 0.55 -1.75 0.25 -1.55 -0.75 0.45 -2 3.05 -1.65 3.45 0.40 0.40 0.50 0.30 1.40 -1.90z"/>
  <path d="M24.30 14.10 c-0.45 -0.75 0.55 -4.55 1.65 -6.20 l1.15 -1.65 -0.35 3 c-0.40 4.05 -0.75 5.25 -1.50 5.25 -0.40 0 -0.80 -0.15 -0.95 -0.40z"/>
  <path d="M31.35 3.45 c-0.45 -0.25 -1.20 -1.20 -1.70 -2.10 l-0.80 -1.60 2.05 1.75 c2.55 2.20 2.85 3.35 0.45 1.95z"/>
 </g>
 <g fill="#ec8f5a">
  <path d="M27.05 27.75 c0 -0.25 0.30 -1.05 0.70 -1.75 0.40 -0.70 0.75 -1.90 0.75 -2.75 0 -1.15 0.15 -1.35 0.50 -0.75 0.80 1.25 0.55 2.65 -0.75 4.25 -0.65 0.85 -1.20 1.30 -1.20 1z"/>
  <path d="M20.50 9.55 c0 -1.65 0.55 -2.55 1.60 -2.55 0.80 0 0.90 0.15 0.45 0.65 -0.30 0.40 -0.45 0.80 -0.40 0.90 0.10 0.10 -0.25 0.60 -0.75 1.10 -0.85 0.80 -0.90 0.80 -0.90 -0.10z"/>
  <path d="M22.80 8.90 c1.15 -2.30 1.20 -2.30 1.20 -0.25 0 1.50 -0.20 1.85 -1 1.85 -1 0 -1 -0.05 -0.20 -1.60z"/>
  <path d="M26 3 c0 -0.50 0.25 -1.10 0.50 -1.25 0.30 -0.15 0.50 -0.05 0.50 0.30 0 0.40 0.25 0.35 0.85 -0.10 0.75 -0.60 0.80 -0.60 0.50 0.20 -0.20 0.50 -0.35 1.10 -0.35 1.30 0 0.20 -0.45 0.35 -1 0.40 -0.65 0.05 -1 -0.20 -1 -0.85z"/>
  <path d="M30.75 2.70 c-0.75 -0.70 -1.25 -1.40 -1.10 -1.55 0.35 -0.30 3.30 1.90 3.30 2.50 0.10 0.70 -0.80 0.35 -2.20 -0.95z"/>
 </g>
 <g fill="#c2ae8a">
  <path d="M25.85 37.15 c-0.10 -0.50 -0.40 -1.30 -0.60 -1.75 -0.20 -0.50 -0.15 -0.90 0.15 -0.90 0.40 0 1.60 2.50 1.60 3.30 0 0.60 -0.95 0.05 -1.15 -0.65z"/>
  <path d="M17.85 33.60 c-0.10 -0.45 -0.40 -1.25 -0.60 -1.70 -0.25 -0.65 -0.10 -0.90 0.45 -0.90 0.45 0 0.80 0.15 0.85 0.40 0 0.20 0.10 0.85 0.25 1.45 0.25 1.30 -0.60 2 -0.95 0.75z"/>
  <path d="M15.65 27.35 c0.20 -0.50 0.35 -1.25 0.35 -1.65 0 -1.05 1.70 -0.85 2.80 0.35 0.90 1 0.90 1 -0.35 0.70 -0.90 -0.25 -1.60 -0.05 -2.25 0.60 -0.85 0.85 -0.90 0.85 -0.55 0z"/>
  <path d="M27 27.95 c0 -0.15 0.40 -1.05 0.85 -2 0.45 -0.95 0.80 -2.35 0.75 -3.20 -0.05 -1.25 0 -1.35 0.40 -0.50 0.75 1.70 0.55 2.95 -0.75 4.50 -0.65 0.85 -1.20 1.35 -1.25 1.20z"/>
  <path d="M19.10 23.90 c-0.90 -0.90 -0.75 -1.40 0.40 -1.40 0.65 0 1 0.35 1 1 0 1.15 -0.50 1.30 -1.40 0.40z"/>
  <path d="M11.60 19.40 c-0.70 -0.70 -0.80 -1.75 -0.15 -2.10 0.25 -0.15 0.55 0.40 0.65 1.20 0.15 0.85 0.20 1.50 0.15 1.50 0 0 -0.30 -0.25 -0.65 -0.60z"/>
  <path d="M18.75 12.45 c-0.85 -0.85 -0.85 -1.10 -0.25 -1.45 1.40 -0.90 2.05 -0.60 1.70 0.90 -0.45 1.80 -0.40 1.75 -1.45 0.55z"/>
 </g>
 <g fill="#f7d940">
  <path d="M17.65 38.25 c-0.50 -1.35 0.30 -1.50 1.50 -0.35 l1.05 1.10 -1.10 0 c-0.60 0 -1.25 -0.35 -1.45 -0.75z"/>
  <path d="M26 37.30 c0 -0.70 -0.20 -1.40 -0.50 -1.55 -0.25 -0.15 -0.50 -0.80 -0.45 -1.40 0 -0.85 0.25 -0.65 1 0.90 1.05 2.25 1.20 3.25 0.45 3.25 -0.25 0 -0.50 -0.55 -0.50 -1.20z"/>
  <path d="M16 26.05 c0 -1.25 1.55 -1.45 2.50 -0.30 0.50 0.60 0.50 0.75 -0.15 0.75 -0.40 0 -1.10 0.15 -1.55 0.30 -0.60 0.20 -0.80 0 -0.80 -0.75z"/>
  <path d="M18.75 23.50 c-0.35 -0.60 0.80 -3.05 1.30 -2.70 0.75 0.45 0.50 2.55 -0.30 2.85 -0.40 0.20 -0.85 0.10 -1 -0.15z"/>
  <path d="M28.20 18.75 c-0.80 -1.40 -1.25 -5.65 -0.70 -6 0.30 -0.15 0.50 0.15 0.50 0.75 0 0.60 0.25 1.50 0.55 2.05 0.25 0.55 0.45 1.70 0.35 2.60 -0.15 1.45 -0.20 1.50 -0.70 0.60z"/>
  <path d="M20.90 15.90 c-0.10 -2.10 0.10 -3.25 1.25 -5.60 0.75 -1.60 1.25 -3.05 1.15 -3.20 -0.40 -0.40 -3.30 4.55 -3.30 5.60 0 1 -0.10 1 -0.95 -0.20 -0.75 -0.95 -0.80 -1.30 -0.35 -1.75 0.35 -0.25 1.35 -1.65 2.25 -3.10 0.90 -1.45 2.55 -3.40 3.65 -4.45 1.85 -1.65 2.10 -1.75 2.55 -0.95 0.35 0.65 0.30 1.05 -0.25 1.45 -0.40 0.30 -0.85 1 -1.05 1.55 -0.15 0.55 -0.85 2.40 -1.55 4.10 -0.75 1.70 -1.55 4.25 -1.80 5.75 -0.70 3.65 -1.35 4 -1.60 0.80z"/>
  <path d="M24.60 16.65 c-0.80 -1.85 -0.25 -6.70 0.80 -7.05 0.70 -0.20 0.75 2.55 0.20 6.40 l-0.35 2.25 -0.65 -1.60z"/>
 </g>
 <g fill="#b29ecc">
  <path d="M22.20 28 c0.25 -0.70 0.50 -2 0.65 -2.85 0.30 -2.05 1.15 -1.65 1.15 0.55 0 1.05 -0.40 2 -1.10 2.60 -1.05 0.95 -1.05 0.95 -0.70 -0.30z"/>
  <path d="M11.45 18.95 c-0.35 -0.70 -0.35 -1.25 -0.05 -1.55 0.30 -0.30 0.55 0.05 0.70 1.05 0.25 1.80 0.15 1.90 -0.65 0.50z"/>
  <path d="M14.95 7.15 c-2 -2.40 -2.15 -2.70 -1.25 -2.35 0.45 0.20 1.15 0.95 1.60 1.75 0.85 1.65 0.70 1.85 -0.35 0.60z"/>
  <path d="M10.30 2.50 c0.60 -0.60 1.40 -1 1.75 -0.90 0.45 0.15 0 0.60 -1.05 1.10 l-1.75 0.90 1.05 -1.10z"/>
 </g>
 <g fill="#ecd170">
  <path d="M18.50 38.70 c-0.60 -0.20 -0.75 -1.05 -0.75 -3.70 0 -1.95 0.15 -3.50 0.40 -3.50 0.40 0 0.55 1.05 0.35 3.65 -0.05 1.25 0.20 2.25 0.80 2.90 0.85 0.95 0.70 1.05 -0.80 0.65z"/>
  <path d="M26 37.15 c0 -0.55 -0.30 -1.25 -0.60 -1.60 -0.55 -0.55 -0.50 -0.65 0.05 -0.45 0.90 0.25 1.65 2.25 1.05 2.65 -0.30 0.20 -0.50 -0.10 -0.50 -0.60z"/>
  <path d="M16 26.05 c0 -0.60 0.30 -1.05 0.80 -1.05 0.40 0 0.60 0.20 0.45 0.50 -0.15 0.25 0 0.35 0.40 0.20 0.40 -0.15 0.90 -0.05 1.10 0.25 0.15 0.30 0 0.55 -0.45 0.55 -0.40 0 -1.05 0.15 -1.50 0.30 -0.60 0.20 -0.80 0 -0.80 -0.75z"/>
  <path d="M18.75 23.50 c-0.40 -0.70 0.15 -1.50 1.05 -1.50 0.40 0 0.70 0.45 0.70 1 0 1.05 -1.20 1.40 -1.75 0.50z"/>
  <path d="M24.10 13.90 c0.25 -1.60 1.40 -1.75 1.40 -0.20 0 0.85 -0.25 1.30 -0.80 1.30 -0.50 0 -0.70 -0.35 -0.60 -1.10z"/>
  <path d="M18.85 12.50 c-0.80 -0.95 -0.80 -1 0.15 -1 0.65 0 1 0.35 1 1 0 0.55 -0.05 1 -0.15 1 -0.05 0 -0.50 -0.45 -1 -1z"/>
 </g>
 <g fill="#faf75b">
  <path d="M18.40 38.40 c-0.55 -0.45 -0.65 -0.95 -0.40 -1.65 0.45 -1 0.45 -1 0.45 0.05 0.05 0.55 0.30 1.25 0.65 1.60 0.80 0.80 0.30 0.75 -0.70 0z"/>
  <path d="M19.35 23.65 c-0.60 -0.60 -0.35 -1.65 0.40 -1.65 0.85 0 0.95 0.45 0.35 1.40 -0.25 0.35 -0.55 0.45 -0.75 0.25z"/>
  <path d="M27.50 16.95 c0 -0.55 0.25 -0.85 0.50 -0.70 0.30 0.15 0.50 0.65 0.50 1.05 0 0.40 -0.20 0.70 -0.50 0.70 -0.25 0 -0.50 -0.45 -0.50 -1.05z"/>
  <path d="M24 14.85 c0 -1.15 0.55 -2.35 1.10 -2.35 0.70 0 0.25 2.65 -0.45 2.90 -0.35 0.10 -0.65 -0.15 -0.65 -0.55z"/>
  <path d="M21.50 14.50 c-0.65 -0.40 -0.60 -0.75 0.15 -2.85 1 -2.75 3 -5.85 3.25 -5.10 0.10 0.25 -0.20 1.30 -0.70 2.35 -0.45 1 -1.10 2.80 -1.40 3.95 -0.45 1.70 -0.70 2 -1.30 1.65z"/>
  <path d="M18.85 12.25 c-0.85 -0.65 -0.85 -0.70 0.15 -1.85 0.60 -0.60 2.10 -2.60 3.40 -4.35 1.30 -1.80 2.65 -3.30 3 -3.45 1.20 -0.40 0.60 1.40 -0.90 2.75 -1.60 1.40 -4.25 5.40 -4.55 6.80 -0.15 0.65 -0.35 0.70 -1.10 0.10z"/>
 </g>
 <g fill="#d8b6cb">
  <path d="M22 28.60 c0 -0.30 0.25 -0.70 0.50 -0.85 0.30 -0.15 0.50 -0.85 0.50 -1.55 0 -0.65 0.25 -1.20 0.50 -1.20 0.90 0 0.55 2.30 -0.50 3.25 -0.55 0.50 -1 0.65 -1 0.35z"/>
  <path d="M28.25 25.15 c0.45 -1 0.90 -1.95 1 -2.10 0.50 -0.45 0.25 1.45 -0.35 2.70 -0.90 2 -1.50 1.45 -0.65 -0.60z"/>
 </g>
 <g fill="#fcf393">
  <path d="M18 35.45 c0 -1.40 -0.25 -2.95 -0.50 -3.50 -0.40 -0.75 -0.35 -0.95 0.25 -0.95 0.60 0 0.75 0.70 0.75 3.50 0 1.95 -0.10 3.50 -0.25 3.50 -0.15 0 -0.25 -1.15 -0.25 -2.55z"/>
  <path d="M26.05 37.40 c0 -0.45 -0.20 -1.25 -0.35 -1.75 -0.25 -0.85 -0.25 -0.85 0.30 0 0.30 0.50 0.45 1.25 0.35 1.75 -0.20 0.75 -0.25 0.75 -0.30 0z"/>
  <path d="M18.55 12.20 c-0.55 -0.65 -0.60 -0.90 0 -1.20 0.85 -0.55 1.45 -0.15 1.45 1.05 0 1.15 -0.50 1.20 -1.45 0.15z"/>
 </g>
 <g fill="#f7ebc8">
  <path d="M17.30 31.75 c-0.15 -0.45 0 -0.75 0.45 -0.75 0.80 0 1 0.80 0.30 1.20 -0.25 0.15 -0.55 -0.05 -0.75 -0.45z"/>
  <path d="M27.50 27.25 c0 -0.75 0.90 -2 1.20 -1.70 0.15 0.15 -0.05 0.70 -0.45 1.25 -0.40 0.50 -0.70 0.75 -0.75 0.45z"/>
 </g>
</svg>