<?xml version="1.0" encoding="utf-8"?>
<!DOCTYPE svg PUBLIC "-//W3C//DTD SVG 1.0//EN" "http://www.w3.org/TR/2001/REC-SVG-20010904/DTD/svg10.dtd">
<svg version="1.0" xmlns="http://www.w3.org/2000/svg" width="40px" height="40px" viewBox="0 0 40 40" preserveAspectRatio="xMidYMid meet">
 <g fill="#0f0d10">
  <path d="M24.50 39.05 c0 -0.55 0.25 -1.15 0.50 -1.30 0.30 -0.15 0.50 -0.75 0.50 -1.30 0 -1.35 0.90 -1.20 1.60 0.30 0.30 0.70 0.85 1.25 1.25 1.25 0.35 0 0.65 0.25 0.65 0.50 0 0.30 -0.55 0.50 -1.25 0.50 -0.70 0 -1.25 0.25 -1.25 0.50 0 0.30 -0.45 0.50 -1 0.50 -0.65 0 -1 -0.35 -1 -0.95z"/>
  <path d="M14.50 38.40 c0 -0.25 0.55 -0.70 1.25 -1 0.70 -0.30 1.40 -1.10 1.55 -1.75 0.20 -0.65 0.65 -1.15 1.05 -1.15 0.55 0 0.65 0.55 0.55 2.15 l-0.15 2.10 -2.10 0.05 c-1.20 0 -2.15 -0.20 -2.15 -0.40z"/>
  <path d="M24.25 33 c-0.20 -0.80 -0.65 -1.50 -1.05 -1.50 -0.40 0 -0.70 -0.50 -0.70 -1.25 0 -1.15 0.20 -1.25 2 -1.25 l2.05 0 -0.80 1.50 c-0.60 1.10 -0.65 1.75 -0.25 2.45 0.65 1.30 0.65 1.55 -0.20 1.55 -0.40 0 -0.85 -0.65 -1.05 -1.50z"/>
  <path d="M18 32.95 c0 -0.70 -1.25 -1.95 -1.95 -1.95 -0.30 0 -0.55 0.25 -0.55 0.50 0 1.10 -0.90 0.40 -1.15 -0.85 -0.15 -0.80 -0.75 -1.85 -1.35 -2.40 -4.45 -4.20 -5.65 -6.25 -3.60 -6.25 1.05 0 2.60 1.45 2.60 2.40 0 0.35 0.20 0.60 0.40 0.60 0.85 0 3.10 2.30 3.10 3.15 0 0.55 0.40 0.85 1.25 0.85 0.70 0 1.25 0.25 1.25 0.50 0 0.30 0.80 0.50 1.75 0.50 1.40 0 1.75 0.20 1.75 1 0 0.55 -0.30 1 -0.70 1 -0.35 0 -0.95 0.35 -1.30 0.75 -0.75 0.85 -1.50 1 -1.50 0.20z"/>
  <path d="M29.25 22.90 c0.20 -2.30 0.15 -3.40 -0.20 -3.40 -0.35 0 -0.55 -1.40 -0.55 -3.75 0 -3.45 0.10 -3.75 1.05 -3.75 0.95 0 1 0.20 0.70 1.90 -0.15 1.10 -0.05 2.50 0.30 3.35 0.30 0.85 0.65 2.65 0.75 4.05 0.20 2.20 0.05 2.70 -1.10 3.75 l-1.30 1.20 0.35 -3.35z"/>
  <path d="M8.75 19 c0.35 -3.65 0.75 -5 1.55 -5 0.50 0 0.70 0.65 0.70 2.20 0 3.60 -0.50 5.30 -1.55 5.30 -0.85 0 -0.95 -0.30 -0.70 -2.50z"/>
  <path d="M16.50 12.80 c0 -0.65 -0.25 -1.30 -0.55 -1.40 -0.75 -0.25 -1.25 -4.90 -0.50 -4.90 0.30 0 0.85 0.60 1.15 1.40 0.85 2 1.90 3.05 2.70 2.75 0.50 -0.20 0.70 0.20 0.70 1.55 0 1.70 -0.05 1.80 -1.75 1.80 -1.50 0 -1.75 -0.15 -1.75 -1.20z"/>
  <path d="M9.40 10.50 c-0.15 -1.80 -0.05 -2 0.95 -2 1 0 1.15 0.25 1.15 2 0 1.65 -0.20 2 -0.95 2 -0.75 0 -1 -0.45 -1.15 -2z"/>
  <path d="M6.60 6.50 c0.05 -2.75 0.85 -4.70 2.35 -5.85 1.15 -0.85 2.30 -0.80 4.05 0.25 1.05 0.65 1.30 1.10 0.95 1.45 -0.70 0.70 -0.10 1.80 0.80 1.45 0.40 -0.15 0.65 0.20 0.65 1 0 0.85 -0.30 1.20 -0.95 1.20 -0.55 0 -0.95 -0.20 -0.95 -0.50 0 -0.25 -0.55 -0.50 -1.25 -0.50 -1 0 -1.25 -0.25 -1.25 -1.30 0 -1.50 -1.15 -1.40 -1.40 0.10 -0.35 2.40 -0.65 3.20 -1.10 2.95 -0.25 -0.15 -0.80 0.35 -1.20 1.10 -0.75 1.40 -0.75 1.35 -0.70 -1.35z"/>
 </g>
 <g fill="#362223">
  <path d="M17.30 39.25 c-0.15 -0.40 -0.60 -0.75 -1.05 -0.75 -1.10 0 -0.90 -0.85 0.25 -1.15 0.60 -0.15 1 -0.70 1 -1.30 0 -0.60 0.30 -1.05 0.75 -1.05 0.45 0 0.75 0.45 0.75 1.10 0 0.60 0.40 1.50 0.85 2 0.75 0.85 0.75 1 0.15 1.40 -1.10 0.70 -2.35 0.60 -2.70 -0.25z"/>
  <path d="M24.15 39.25 c-0.15 -0.45 0.10 -1.10 0.60 -1.45 0.80 -0.55 0.80 -0.90 0.35 -2.30 -0.75 -2.05 -0.75 -2 0.05 -2 0.40 0 1 0.90 1.35 2.05 0.40 1.15 1 2.15 1.35 2.30 1.10 0.45 0.70 1.15 -0.60 1.15 -0.70 0 -1.25 0.25 -1.25 0.50 0 0.80 -1.50 0.60 -1.85 -0.25z"/>
  <path d="M17.05 32 c-0.50 -1.45 -2 -2.10 -2.10 -0.85 0 0.30 -0.30 -0.20 -0.65 -1.15 -0.35 -0.95 -1.30 -2.20 -2.20 -2.75 -0.85 -0.55 -1.55 -1.25 -1.60 -1.55 0 -0.30 -0.45 -0.95 -1 -1.45 -1.35 -1.25 -1.35 -3.75 0 -3.75 0.85 0 1 0.35 1 2 0 1.80 0.10 2 1.30 2 0.85 0 1.40 0.30 1.55 1 0.20 0.70 0.70 1 1.70 1 1.20 0 1.45 0.20 1.45 1.25 0 0.90 0.25 1.25 1 1.25 0.55 0 1 0.25 1 0.50 0 0.30 0.55 0.50 1.25 0.50 0.95 0 1.25 0.25 1.25 1.05 0 0.80 -0.20 0.95 -0.85 0.75 -0.50 -0.20 -0.70 -0.20 -0.50 0 0.45 0.45 -0.60 1.70 -1.40 1.70 -0.35 0 -0.90 -0.65 -1.20 -1.50z"/>
  <path d="M23.65 31.75 c-0.90 -1 -0.80 -3.10 0.15 -3.45 0.45 -0.15 1.45 -0.30 2.25 -0.30 l1.50 0 -1.10 1.45 c-0.70 0.95 -1.35 1.35 -1.90 1.20 -0.65 -0.25 -0.70 -0.15 -0.15 0.40 0.65 0.75 0.80 1.45 0.25 1.45 -0.25 -0.05 -0.70 -0.35 -1 -0.75z"/>
  <path d="M29.50 23.40 c0 -0.90 -0.15 -2.85 -0.30 -4.25 -0.25 -1.85 -0.15 -2.65 0.25 -2.65 0.30 0 0.55 0.35 0.55 0.75 0 0.40 0.20 0.75 0.45 0.75 0.70 0 1.05 5 0.40 6.05 -0.85 1.40 -1.35 1.15 -1.35 -0.65z"/>
  <path d="M9.10 18.25 c0.05 -1.35 0.30 -1.75 1 -1.75 0.70 0 0.90 0.40 0.90 1.75 0 1.40 -0.20 1.75 -1 1.75 -0.80 0 -0.95 -0.30 -0.90 -1.75z"/>
  <path d="M20.50 17.55 c0 -2.45 0.45 -3.05 2.30 -3.05 1.55 0 1.70 0.15 1.70 1.45 0 2.45 -0.45 3.05 -2.30 3.05 -1.55 0 -1.70 -0.15 -1.70 -1.45z"/>
  <path d="M28.50 13.25 c0 -1.40 0.20 -1.75 1 -1.75 1.05 0 1.20 0.50 0.70 2.40 -0.50 1.80 -1.70 1.35 -1.70 -0.65z"/>
  <path d="M28.30 9.20 c-0.15 -0.45 -0.30 -1.80 -0.30 -3 0 -1.85 0.15 -2.20 1 -2.20 0.55 0 1 -0.35 1 -0.75 0 -0.55 -0.50 -0.65 -2.50 -0.40 -1.35 0.15 -2.50 0.10 -2.50 -0.10 0 -0.60 1.65 -1.70 2.65 -1.75 0.45 0 0.85 -0.20 0.85 -0.50 0 -1.05 1.40 -0.45 2.90 1.25 1.85 2 1.95 2.25 0.60 2.25 -1.45 0 -2.70 2.15 -2.05 3.45 0.30 0.55 0.55 1.35 0.55 1.75 0 1.05 -1.80 1.05 -2.20 0z"/>
  <path d="M20.55 7.65 c0.60 -1.05 1.50 -2.35 2.05 -2.90 0.90 -0.95 0.90 -0.95 0.90 0.60 0 2.65 -0.95 4.15 -2.60 4.15 l-1.50 0 1.15 -1.85z"/>
  <path d="M12.40 5.45 c-1.70 -1.75 -1.95 -4.45 -0.45 -4.45 1.25 0 1.80 0.85 1.10 1.70 -0.45 0.55 -0.30 0.75 0.60 1 0.95 0.20 2.35 2.05 2.35 3.05 0 0.80 -2.50 -0.10 -3.60 -1.30z"/>
 </g>
 <g fill="#7d2315">
  <path d="M28.05 15.40 c0.05 -2.30 -0.10 -5.65 -0.30 -7.50 -0.30 -2.50 -0.25 -3.40 0.20 -3.40 0.45 0 0.40 -0.20 -0.05 -0.70 -0.55 -0.60 -0.70 -0.60 -1.05 0 -0.20 0.40 -0.70 0.70 -1.05 0.70 -0.40 0 -0.80 0.45 -0.95 1 -0.15 0.70 -0.70 1 -1.55 1 -1.10 0 -1.30 0.20 -1.30 1.50 0 2.50 -1 4 -2.60 4 -0.95 0 -1.40 -0.25 -1.40 -0.80 0 -0.40 0.20 -0.65 0.45 -0.50 0.25 0.15 0.70 -0.40 1.05 -1.20 0.35 -0.85 0.80 -1.50 1 -1.50 0.20 0 0.65 -0.65 1 -1.50 0.80 -2 4.20 -4.95 6 -5.35 0.80 -0.15 1.35 -0.45 1.20 -0.70 -0.70 -1.15 1.05 -0.25 2.60 1.30 1.95 2.05 2.05 2.25 0.80 2.25 -0.55 0 -1.35 0.45 -1.85 1 -0.80 0.90 -0.85 1.25 -0.30 2.75 0.40 1.20 0.50 3.05 0.25 5.90 -0.20 2.95 -0.15 4.30 0.25 4.55 1.05 0.65 0.55 1.30 -1 1.30 l-1.55 0 0.15 -4.10z"/>
  <path d="M21.50 14.65 c0 -1.55 0.10 -1.65 1.75 -1.65 1.65 0 1.75 0.10 1.75 1.75 0 1.65 -0.05 1.70 -1.75 1.65 -1.65 -0.05 -1.75 -0.15 -1.75 -1.75z"/>
 </g>
 <g fill="#424041">
  <path d="M17.95 39.20 c-0.45 -0.55 -1.10 -0.70 -2.05 -0.50 -1.70 0.35 -1.40 -0.55 0.40 -1.20 1.10 -0.45 1.20 -0.75 1.20 -4.25 l0 -3.75 2.50 0 c1.40 0 2.50 -0.20 2.50 -0.40 0 -0.55 2.30 -1.60 3.50 -1.60 0.75 0 1 -0.50 1.25 -2.70 0.35 -2.70 0.90 -3.25 3.15 -3.30 2.20 0 -1.75 6.65 -4.95 8.30 -1.15 0.55 -1.40 0.95 -1 1.35 0.70 0.70 0.70 1.85 0.05 1.85 -0.25 0 -0.50 -0.35 -0.50 -0.75 0 -0.55 -0.60 -0.70 -2.50 -0.60 -1.35 0.05 -2.25 0.20 -2 0.25 0.35 0.15 0.40 0.40 0.05 0.80 -0.25 0.30 -0.55 1.55 -0.60 2.75 -0.10 1.60 0.05 2.25 0.70 2.60 0.45 0.30 0.85 0.85 0.85 1.20 0 1 -1.70 0.95 -2.55 -0.05z"/>
  <path d="M24.25 39.45 c-0.20 -0.25 0.05 -0.95 0.50 -1.45 0.70 -0.80 0.75 -1.25 0.35 -2.50 -0.40 -1.10 -0.40 -1.50 0.05 -1.50 0.65 0 1.85 2.20 1.85 3.35 0 0.35 0.35 0.65 0.75 0.65 0.40 0 0.75 0.25 0.75 0.50 0 0.30 -0.55 0.50 -1.25 0.50 -0.70 0 -1.25 0.25 -1.25 0.50 0 0.65 -1.35 0.65 -1.75 -0.05z"/>
  <path d="M14.60 29.90 c-0.40 -0.40 -0.45 -0.75 0 -1.25 0.40 -0.50 0.40 -0.60 -0.15 -0.40 -0.40 0.15 -1.70 -0.70 -3.05 -2 -2.50 -2.50 -3.25 -4.70 -2.40 -7 0.30 -0.70 0.40 -1.50 0.30 -1.65 -0.10 -0.20 -0.05 -1.90 0.15 -3.85 0.30 -2.80 0.20 -3.90 -0.45 -5.40 l-0.85 -1.90 -0.80 1.15 c-0.70 1 -0.80 1 -0.80 0.25 -0.05 -0.50 0.30 -1.55 0.70 -2.35 0.70 -1.30 0.70 -1.45 0 -1.20 -0.65 0.30 -0.70 0.15 -0.20 -1 0.80 -1.70 2.80 -1.80 3.10 -0.15 0.15 0.80 0.25 0.65 0.30 -0.50 0.05 -1.40 0.25 -1.65 1.25 -1.65 1.30 0 2.15 1.25 1.15 1.70 -0.45 0.20 -0.40 0.40 0.10 0.60 1.30 0.60 3 2.75 3.60 4.60 0.65 2.05 1.95 3.30 2.65 2.60 0.45 -0.45 2.30 1.50 2.30 2.45 0 0.30 0.80 0.55 1.75 0.55 1.60 0 1.75 0.10 1.75 1.50 0 0.85 -0.35 2.30 -0.70 3.25 -0.65 1.55 -0.95 1.75 -2.50 1.75 -1.70 0 -1.80 -0.10 -1.80 -1.65 0 -0.90 0.25 -1.90 0.60 -2.25 0.45 -0.45 0.25 -0.60 -0.95 -0.60 -1.85 0 -2.45 -0.65 -2.90 -3.10 -0.20 -1.05 -0.65 -1.90 -0.95 -1.90 -0.60 0 -1.80 -2.70 -1.80 -4.10 0 -0.50 -0.60 -0.90 -1.60 -1.05 -0.90 -0.10 -1.75 -0.15 -1.85 -0.05 -0.10 0.10 0.10 1.10 0.45 2.20 0.50 1.50 0.55 3.35 0.20 8.10 -0.55 6.80 -0.40 8.40 0.60 8.40 0.40 0 0.70 0.35 0.70 0.75 0 0.40 0.45 0.75 1 0.75 0.55 0 1 0.25 1 0.50 0 0.30 0.35 0.50 0.75 0.50 0.45 0 0.75 0.45 0.75 1.20 0 0.65 0.15 1.55 0.30 2 0.35 0.95 -0.80 1.10 -1.70 0.20z"/>
  <path d="M28 18.25 c0 -1.20 0.25 -1.75 0.75 -1.75 0.40 0 0.75 0.30 0.75 0.70 0 0.40 0.35 0.80 0.75 1 1.40 0.50 0.85 1.80 -0.75 1.80 -1.40 0 -1.50 -0.15 -1.50 -1.75z"/>
  <path d="M29.10 1 c-0.50 -0.85 -0.50 -1 0.15 -1 0.40 0 0.75 0.10 0.75 0.20 0 0.10 0.15 0.55 0.30 1 0.45 1.15 -0.45 1 -1.20 -0.20z"/>
 </g>
 <g fill="#6e4b2b">
  <path d="M25.55 38.20 c-0.05 -1.15 -0.40 -2.90 -0.80 -3.85 -0.85 -2 -0.95 -2.85 -0.35 -2.85 0.20 0 0.65 0.75 1 1.65 0.40 0.85 0.90 2.05 1.10 2.60 1 2.30 1.10 3.25 0.35 3.25 -0.45 0 -0.90 0.30 -1 0.65 -0.15 0.30 -0.30 -0.35 -0.30 -1.45z"/>
  <path d="M14.55 29.85 c-0.70 -0.85 -0.20 -1.35 1.30 -1.35 0.80 0 1.15 0.30 1.15 1 0 1.15 -1.55 1.35 -2.45 0.35z"/>
  <path d="M14 24.25 c0 -1.65 0.10 -1.75 1.75 -1.75 1.65 0 1.75 0.10 1.75 1.75 0 1.65 -0.10 1.75 -1.75 1.75 -1.65 0 -1.75 -0.10 -1.75 -1.75z"/>
  <path d="M20.50 17.05 c0 -2.45 0.45 -3.05 2.25 -3.05 0.90 0 1.80 0.30 1.90 0.65 0.15 0.35 0.30 0.25 0.30 -0.25 0.05 -0.70 0.50 -0.90 1.80 -0.90 1.65 0 1.75 0.10 1.75 1.75 0 1.40 -0.20 1.75 -1 1.75 -0.55 0 -1 0.35 -1 0.75 0 0.55 -0.60 0.75 -2.25 0.75 -2.10 0 -2.25 -0.10 -1.75 -0.95 0.25 -0.55 0.50 -1.15 0.50 -1.40 -0.05 -0.20 -0.40 0.20 -0.80 1 -0.95 1.75 -1.70 1.75 -1.70 -0.10z"/>
  <path d="M8.50 2.80 c0 -1.30 0.25 -1.80 1 -2.05 1.90 -0.60 2.90 0.15 2.85 2 -0.05 1.70 -0.10 1.75 -1.95 1.75 -1.85 0 -1.90 -0.05 -1.90 -1.70z"/>
 </g>
 <g fill="#af341c">
  <path d="M24.20 16.30 c-0.55 -0.30 -0.95 -0.90 -0.85 -1.30 0.15 -0.50 0 -0.45 -0.35 0.15 -0.90 1.45 -1.55 0.95 -1.40 -1 0.15 -1.80 0.25 -1.90 2.05 -2.05 1.40 -0.10 1.85 0 1.85 0.60 0 0.45 0.45 0.80 1 0.80 0.90 0 1 -0.35 1 -3.20 0 -2.20 -0.25 -3.35 -0.75 -3.80 -0.80 -0.65 -1 -3.35 -0.35 -4.30 0.20 -0.30 0.85 -0.70 1.50 -0.90 0.80 -0.30 1.10 -0.15 1.10 0.40 0 0.45 0.25 0.80 0.50 0.80 0.35 0 0.35 -0.35 0 -1.05 -0.95 -1.70 -0.15 -1.65 1.45 0.15 1.75 1.90 1.95 2.60 0.70 2.20 -0.65 -0.20 -1.15 0.15 -1.70 1.10 -0.65 1.20 -0.70 1.95 -0.30 4.50 0.55 3.55 0.15 6.60 -0.90 6.60 -0.40 0 -0.75 0.25 -0.75 0.50 0 0.65 -2.50 0.55 -3.80 -0.20z"/>
  <path d="M23.50 4 c0.85 -0.85 1.65 -1.50 1.75 -1.50 0.15 0 0.25 0.70 0.25 1.50 0 1.40 -0.15 1.50 -1.75 1.50 l-1.80 0 1.55 -1.50z"/>
 </g>
 <g fill="#47616a">
  <path d="M24.50 39 c0 -0.55 0.25 -1 0.50 -1 0.30 0 0.50 -0.35 0.50 -0.75 0 -0.40 0.25 -0.75 0.50 -0.75 0.55 0 0.65 1.50 0.20 2.70 -0.45 1.15 -1.70 1 -1.70 -0.20z"/>
  <path d="M17.30 37.45 c0.15 -0.30 0.30 -2 0.25 -3.75 l-0.05 -3.20 1.75 0 c1.30 0 1.75 0.20 1.75 0.85 0 0.65 -0.15 0.70 -0.60 0.25 -0.35 -0.35 -0.75 -0.60 -0.90 -0.60 -0.30 0 -0.65 3.75 -0.60 6.15 0.05 0.50 -0.35 0.85 -0.95 0.85 -0.60 0 -0.85 -0.20 -0.65 -0.55z"/>
  <path d="M25.50 27.10 c0 -1.05 0.15 -2.10 0.35 -2.30 0.35 -0.30 1.55 -4.50 1.65 -5.40 0 -0.25 -0.45 -0.40 -1 -0.40 -0.80 0 -1 -0.35 -1 -1.75 0 -1.65 0.10 -1.75 1.70 -1.75 1.50 0 1.75 0.20 2.05 1.50 0.20 0.85 0.65 1.50 1.05 1.50 0.55 0 0.65 0.60 0.50 2.70 -0.20 2.95 -0.30 3.20 -2.45 5.95 -1.90 2.45 -2.85 2.45 -2.85 -0.05z"/>
  <path d="M8.75 20.65 c0.20 -0.50 0.50 -1.30 0.60 -1.75 0.50 -1.65 1.65 -1 1.65 0.85 0 1.55 -0.15 1.75 -1.30 1.75 -1.05 0 -1.25 -0.15 -0.95 -0.85z"/>
  <path d="M9.50 15.25 c0 -1.40 0.20 -1.75 1 -1.75 0.80 0 1 0.35 1 1.75 0 1.40 -0.20 1.75 -1 1.75 -0.80 0 -1 -0.35 -1 -1.75z"/>
  <path d="M7.70 4.70 c0.50 -0.80 0.65 -1.15 0.25 -0.80 -1 0.95 -1.55 0.70 -0.95 -0.40 0.30 -0.55 0.90 -1 1.30 -1 1.20 0 0.70 3.20 -0.50 3.45 -0.95 0.15 -0.95 0.10 -0.10 -1.25z"/>
 </g>
 <g fill="#6a5b4f">
  <path d="M17.45 39.05 c-0.65 -0.75 -0.65 -1.05 -0.10 -1.85 0.50 -0.80 0.55 -1.60 0.10 -3.75 -0.50 -2.40 -0.75 -2.85 -2.05 -3.35 -1.35 -0.50 -1.45 -0.65 -0.90 -1.40 0.60 -0.70 0.55 -0.75 -0.30 -0.60 -0.60 0.10 -0.95 -0.15 -0.95 -0.60 0 -0.60 0.65 -0.75 3 -0.75 l3 0 0.15 1.65 c0.15 1.40 0.35 1.60 1.65 1.60 0.90 0 1.45 0.25 1.45 0.70 0 0.90 -1.75 1.35 -2.45 0.65 -0.80 -0.80 -1 -0.35 -1.10 3 -0.10 2.30 0.10 3.25 0.70 3.90 0.50 0.45 0.85 1.05 0.85 1.30 0 0.75 -2.20 0.40 -3.05 -0.50z"/>
  <path d="M24.50 39.30 c0 -0.40 0.25 -0.90 0.55 -1.10 0.60 -0.35 0.25 -3.20 -0.80 -5.80 -0.20 -0.50 -0.15 -0.90 0.10 -0.90 0.20 0 1 1.50 1.70 3.40 1.30 3.25 1.30 3.40 0.40 4.25 -1.10 1.05 -1.95 1.10 -1.95 0.15z"/>
  <path d="M25 28.35 c0 -1.25 0.85 -2.35 1.85 -2.35 0.35 0 0.50 0.35 0.30 0.90 -0.25 0.70 -0.15 0.70 0.70 -0.15 1.30 -1.35 1.75 -2.65 1.35 -3.95 -0.35 -1.05 -0.35 -1.05 -0.75 -0.05 -0.35 0.95 -0.40 0.95 -0.40 -0.10 -0.05 -0.60 0.15 -1.15 0.45 -1.25 0.25 -0.05 0.50 -0.85 0.60 -1.70 0.10 -1.20 0.30 -1.50 1 -1.30 0.65 0.15 0.90 0.70 0.90 2.15 0 2.60 -0.95 4.80 -3.10 7.10 -2.05 2.15 -2.90 2.35 -2.90 0.70z"/>
  <path d="M10.05 24.70 c-0.60 -0.75 -1.05 -1.55 -1.05 -1.75 0 -0.25 2.50 -0.45 5.50 -0.45 l5.50 0 0 1.75 0 1.75 -4.45 0 c-4.25 0 -4.55 -0.05 -5.50 -1.30z"/>
  <path d="M24 19.50 c0 -0.25 -0.65 -0.50 -1.50 -0.50 -1.40 0 -1.50 -0.15 -1.50 -1.75 0 -1.20 0.25 -1.75 0.75 -1.75 0.90 0 0.90 0.05 0.25 1.85 -0.45 1.30 -0.45 1.35 0.25 0.45 0.40 -0.55 0.75 -1.30 0.75 -1.65 0 -0.85 2.85 -0.85 3.65 0 0.35 0.30 0.70 1.35 0.75 2.25 0.15 1.55 0.10 1.60 -1.60 1.60 -1 0 -1.80 -0.20 -1.80 -0.50z"/>
  <path d="M9.70 14.90 c0.10 -0.90 0.20 -1.95 0.25 -2.25 0 -0.35 0.40 -0.65 0.80 -0.65 0.55 0 0.75 0.60 0.75 2.25 0 1.90 -0.15 2.25 -0.95 2.25 -0.80 0 -0.95 -0.30 -0.85 -1.60z"/>
  <path d="M17 12.50 c0 -1.15 -0.20 -1.50 -1 -1.50 -0.80 0 -1 -0.35 -1 -1.75 0 -1 -0.25 -1.75 -0.55 -1.75 -0.80 0 -1.90 -1.55 -1.95 -2.60 0 -1.30 -0.85 -1.10 -2.25 0.50 -0.70 0.80 -1.20 1.05 -1.25 0.65 0 -0.55 -0.15 -0.55 -0.75 -0.05 -1.15 0.95 -1.50 0.20 -0.55 -1.25 0.85 -1.30 0.85 -1.30 -0.20 -0.75 -1.05 0.55 -1.05 0.55 -0.25 -0.95 0.60 -1.20 1.10 -1.55 2.25 -1.55 1.10 0 1.50 -0.25 1.55 -0.85 0 -0.55 0.15 -0.65 0.30 -0.25 0.10 0.30 0.55 0.60 0.95 0.60 0.40 0 0.70 0.35 0.70 0.75 0 0.40 -0.20 0.75 -0.50 0.75 -1.05 0 -0.45 1 0.80 1.30 1 0.25 1.65 1.05 2.60 3.15 1.60 3.45 2.15 4.05 3.55 3.70 0.95 -0.25 1.05 -0.05 1.05 1.65 l0 1.85 -1.35 -1.20 c-1.25 -1.10 -1.30 -1.10 -0.45 -0.05 0.95 1.10 0.95 1.10 -0.35 1.10 -1.15 0 -1.35 -0.20 -1.35 -1.50z"/>
 </g>
 <g fill="#d64819">
  <path d="M27.50 17.25 c0 -0.50 -0.50 -0.75 -1.50 -0.75 -1 0 -1.50 -0.25 -1.50 -0.75 0 -0.40 -0.25 -0.75 -0.55 -0.75 -0.30 0 -0.40 -0.40 -0.25 -0.85 0.25 -0.75 0.15 -0.70 -0.45 0.10 -0.60 0.75 -0.90 0.85 -1.15 0.35 -0.25 -0.30 -0.95 -0.65 -1.65 -0.70 -1.70 -0.15 -1.85 -2.30 -0.35 -4.95 0.85 -1.55 1.35 -1.95 2.50 -1.95 1 0 1.40 -0.25 1.40 -0.85 0 -0.50 0.45 -1.45 1 -2.15 0.55 -0.70 1 -1.55 1 -1.85 0 -1.25 2.40 -0.70 3.45 0.75 0.90 1.30 0.95 1.55 0.25 2.50 -0.55 0.80 -0.65 2.25 -0.45 6.80 0.25 5.55 0.25 5.80 -0.75 5.80 -0.55 0 -1 -0.35 -1 -0.75z"/>
 </g>
 <g fill="#6d7769">
  <path d="M17 30.85 c0 -1.25 0.85 -2.35 1.85 -2.35 0.70 0 0.85 1.35 0.35 2.70 -0.50 1.30 -2.20 1 -2.20 -0.35z"/>
  <path d="M20.75 30.50 c-0.50 -1.55 0.20 -6.50 1 -7.35 0.40 -0.35 1.50 -0.65 2.45 -0.65 1.70 0 1.80 -0.10 1.80 -1.75 0 -1.65 0.10 -1.75 1.65 -1.75 1.30 0 1.80 0.30 2.25 1.25 0.35 0.70 0.60 1.75 0.60 2.35 0 1.60 -1.90 4.50 -3.80 5.90 -0.95 0.70 -2.05 1.50 -2.40 1.85 -0.40 0.35 -1.25 0.75 -1.95 0.90 -1 0.25 -1.35 0.10 -1.60 -0.75z m8.65 -5.90 c0.55 -0.95 0.50 -1.25 -0.10 -1.90 -0.70 -0.65 -0.80 -0.55 -1.10 1.30 -0.20 1.10 -0.55 2.15 -0.75 2.30 -0.25 0.15 -0.45 0.50 -0.45 0.80 0 0.65 1.45 -0.85 2.40 -2.50z"/>
  <path d="M25 15.75 c0 -0.95 0.25 -1.75 0.50 -1.75 0.30 0 0.50 0.35 0.50 0.75 0 0.40 0.25 0.75 0.55 0.75 0.30 0 0.45 -0.35 0.25 -0.75 -0.20 -0.50 0.05 -0.75 0.70 -0.75 0.80 0 1 0.35 1 1.65 0 1.60 -0.10 1.70 -1.75 1.75 -1.70 0.05 -1.75 0 -1.75 -1.65z"/>
  <path d="M9.85 12.30 c-0.40 -1.05 0.20 -2.80 0.95 -2.80 0.45 0 0.70 0.60 0.70 1.75 0 1.80 -1.10 2.50 -1.65 1.05z"/>
  <path d="M15 11.30 c0 -0.40 -0.55 -1.35 -1.25 -2.10 -0.70 -0.75 -1.40 -1.90 -1.55 -2.55 -0.20 -0.65 -0.50 -1.15 -0.75 -1.15 -0.25 0 -0.45 -0.35 -0.45 -0.75 0 -0.40 -0.35 -0.75 -0.75 -0.75 -0.40 0 -0.75 -0.35 -0.75 -0.75 0 -0.40 -0.35 -0.75 -0.75 -0.75 -1.05 0 -0.95 -0.60 0.25 -1.65 1.25 -1.05 1.75 -1.05 3 0 0.75 0.70 0.85 1 0.35 1.60 -0.50 0.55 -0.45 0.75 0.15 0.95 1.20 0.40 3.50 3.10 3.85 4.55 0.15 0.70 0.70 1.70 1.20 2.20 1.40 1.30 1.15 1.85 -0.80 1.85 -1.20 0 -1.75 -0.25 -1.75 -0.70z"/>
  <path d="M8.80 7.75 c-0.15 -0.40 -0.15 -1.15 0 -1.60 0.20 -0.60 -0.05 -0.50 -0.75 0.35 l-1.10 1.25 0.15 -1.25 c0.10 -1 0.45 -1.30 1.80 -1.40 1.55 -0.15 1.60 -0.10 1.60 1.60 0 1.85 -1.10 2.55 -1.70 1.05z"/>
 </g>
 <g fill="#cb4253">
  <path d="M21.50 6.65 c0 -0.55 0.60 -1.30 1.65 -2.10 0.75 -0.60 0.85 -0.55 0.85 0.90 0 1.30 -0.20 1.55 -1.25 1.55 -0.70 0 -1.25 -0.15 -1.25 -0.35z"/>
  <path d="M28.60 4.95 c-0.65 -1 -0.70 -1 -1.65 -0.15 -1 0.90 -1 0.90 -0.85 -1.05 0.10 -1.60 0.35 -2 1.15 -2.05 0.55 0 1.40 0.30 1.90 0.70 0.75 0.65 0.85 0.65 0.85 0.05 0 -0.40 -0.25 -1 -0.60 -1.35 -0.30 -0.30 -0.45 -0.75 -0.25 -0.90 0.40 -0.40 2.80 2.35 2.85 3.25 0 0.55 -0.15 0.55 -0.75 0.05 -0.60 -0.50 -0.75 -0.50 -0.75 0.10 0 0.40 -0.30 1.10 -0.60 1.55 -0.60 0.80 -0.70 0.80 -1.30 -0.20z"/>
 </g>
 <g fill="#e75a23">
  <path d="M27.40 18.15 c-0.10 -1.15 -0.45 -1.45 -1.65 -1.55 -1.85 -0.25 -2.30 -0.90 -2 -2.85 l0.20 -1.50 -0.55 1.65 c-0.50 1.45 -1.90 2.30 -1.90 1.10 0 -0.25 -0.65 -0.50 -1.50 -0.50 -1.05 0 -1.50 -0.25 -1.50 -0.80 0 -0.70 0.10 -0.75 0.85 -0.15 0.75 0.65 0.75 0.55 -0.05 -0.65 -0.85 -1.25 -0.80 -1.35 0.70 -3.80 1.10 -1.85 1.90 -2.55 3 -2.80 1.05 -0.20 1.50 -0.55 1.50 -1.30 0 -0.55 0.25 -1 0.50 -1 0.30 0 0.50 -0.30 0.50 -0.70 0 -0.35 0.55 -0.80 1.25 -0.90 0.75 -0.15 1.25 -0.05 1.25 0.30 0 0.30 -0.55 1.40 -1.25 2.40 -1.50 2.25 -1.60 3.15 -0.15 1.40 l1.05 -1.25 -0.30 2 c-0.90 6.10 -0.90 6.20 0.05 3.25 l0.95 -2.75 0.35 4.25 c0.20 2.35 0.40 4.85 0.45 5.55 0.10 0.95 0.30 1.25 1 1.05 0.45 -0.10 0.85 0.05 0.85 0.35 0 0.30 -0.75 0.55 -1.70 0.55 -1.50 0 -1.75 -0.15 -1.90 -1.35z m-0.85 -4 c-0.50 -0.85 -0.50 -0.80 -0.55 0.15 0 1.15 0.65 2.05 0.90 1.25 0.10 -0.30 -0.05 -0.90 -0.35 -1.40z m-4.90 -3.15 c0.15 -0.55 0.10 -1 -0.15 -1 -0.40 0 -1 1.20 -1 2.05 0 0.85 0.85 0.05 1.15 -1.05z"/>
  <path d="M30.20 2.25 c-1.85 -2.40 -1.25 -2.70 1 -0.45 2 2 2.10 2.20 1.10 2.20 -0.40 0 -1.35 -0.80 -2.10 -1.75z"/>
 </g>
 <g fill="#9c7356">
  <path d="M18.05 39.40 c-0.05 -0.45 -0.30 -0.90 -0.60 -1 -0.45 -0.15 -0.45 -0.50 0.05 -1.35 0.35 -0.65 0.50 -1.95 0.35 -2.85 -0.25 -1.35 -0.10 -1.70 0.50 -1.70 0.65 0 0.75 0.45 0.50 2.40 -0.20 1.95 -0.10 2.55 0.80 3.45 1.10 1.25 0.85 2.20 -0.35 1.20 -0.55 -0.45 -0.75 -0.45 -0.95 0.05 -0.20 0.45 -0.30 0.35 -0.30 -0.20z"/>
  <path d="M24.50 39.50 c0 -0.75 1.50 -3 2 -3 0.20 0 0.50 0.45 0.65 1.05 0.20 0.75 0 1.15 -0.70 1.30 -0.50 0.15 -0.95 0.45 -0.95 0.70 0 0.25 -0.20 0.45 -0.50 0.45 -0.25 0 -0.50 -0.25 -0.50 -0.50z"/>
  <path d="M17 30.80 c0 -1.80 0.85 -2.05 0.90 -0.30 0 0.85 -0.20 1.50 -0.45 1.50 -0.25 0 -0.45 -0.55 -0.45 -1.20z"/>
  <path d="M12.90 26.15 c-1.10 -0.30 -1.30 -3.65 -0.20 -3.65 0.50 0 0.60 -0.55 0.40 -2.25 l-0.25 -2.25 1.85 0 c1.25 0 2 0.30 2.40 1 0.40 0.60 1.20 1 2 1 1.15 0 1.40 0.20 1.40 1.20 0 2.60 -0.60 4.30 -1.55 4.30 -0.55 0 -0.95 0.25 -0.95 0.50 0 0.50 -3.45 0.60 -5.10 0.15z m5 -2 c-0.50 -0.10 -1.30 -0.10 -1.75 0 -0.50 0.15 -0.10 0.25 0.85 0.25 0.95 0 1.35 -0.10 0.90 -0.25z"/>
  <path d="M29 20.55 c0 -0.25 -1.20 -0.60 -2.70 -0.75 -2.65 -0.35 -2.70 -0.40 -2.90 -2.20 -0.30 -2.45 0.45 -4.70 1.55 -4.50 0.45 0.10 0.80 0.55 0.80 1 0 0.50 0.30 1.15 0.65 1.50 0.45 0.45 0.60 0.30 0.60 -0.75 0 -2.40 1.40 -1.60 1.80 1.05 0.25 1.30 0.35 2.50 0.30 2.65 -0.05 0.20 0.40 0.20 1 0.05 0.85 -0.20 1 -0.10 0.75 0.60 -0.20 0.50 -0.35 1.10 -0.35 1.35 0 0.25 -0.35 0.45 -0.75 0.45 -0.40 0 -0.75 -0.20 -0.75 -0.45z"/>
  <path d="M22 16.15 c0 -0.40 -0.70 -0.65 -1.75 -0.65 -1.50 0 -1.75 -0.15 -1.75 -1.10 0 -0.65 0.25 -1.50 0.50 -1.90 0.45 -0.65 0.55 -0.65 1 0 0.35 0.55 0.60 0.60 1.05 0.15 0.75 -0.75 1.95 0.30 1.95 1.70 0 1.05 -1 2.80 -1 1.80z"/>
  <path d="M8.75 4 c0.85 -0.90 0.85 -1 0.10 -0.70 -0.65 0.20 -0.85 0.05 -0.85 -0.75 0 -0.85 0.30 -1.05 1.55 -1.05 1.40 0 1.50 0.10 0.90 0.85 -0.60 0.75 -0.60 0.80 0.20 0.50 0.65 -0.25 0.85 -0.05 0.85 0.90 0 1.10 -0.20 1.25 -1.85 1.25 -1.80 0 -1.80 0 -0.90 -1z"/>
 </g>
 <g fill="#c36e3b">
  <path d="M25.40 37.70 c0.30 -0.55 0.15 -1.65 -0.45 -3.35 -1.30 -3.50 -0.75 -3.60 0.80 -0.15 1.50 3.45 1.55 4.30 0.25 4.30 -0.85 0 -0.95 -0.20 -0.60 -0.80z"/>
  <path d="M16 25 c0.40 -0.25 1.15 -0.50 1.65 -0.50 0.55 0 0.85 -0.35 0.80 -1.10 -0.05 -0.85 -0.10 -0.95 -0.30 -0.25 -0.10 0.45 -0.45 0.85 -0.75 0.85 -0.25 0 -0.40 -0.30 -0.25 -0.70 0.15 -0.35 0 -0.95 -0.30 -1.25 -0.40 -0.40 -0.40 -0.55 0.05 -0.55 0.35 0 0.60 -0.45 0.60 -1 0 -0.75 0.35 -1 1.25 -1 1.05 0 1.25 -0.25 1.25 -1.45 0 -1.85 1 -4.70 1.85 -5.20 0.35 -0.20 0.65 -0.75 0.65 -1.10 0 -0.40 0.25 -0.75 0.55 -0.75 0.65 0 0.15 3.40 -0.90 5.95 -0.70 1.60 -0.70 1.70 0.05 1.10 0.45 -0.35 0.80 -1.05 0.80 -1.55 0 -0.45 0.15 -1 0.40 -1.20 0.20 -0.20 0.35 -0.55 0.40 -0.70 0.15 -1.80 0.90 -3.60 1.55 -3.60 0.55 0 0.70 0.50 0.60 1.90 -0.15 1.95 0.35 3.30 1 2.85 0.25 -0.10 0.30 -0.80 0.15 -1.50 -0.15 -0.90 0 -1.25 0.55 -1.25 0.55 0 0.85 0.80 1.15 2.65 0.20 1.40 0.35 2.75 0.30 2.95 -0.05 0.20 0.25 0.25 0.65 0.10 0.50 -0.20 0.75 0 0.75 0.55 0 0.75 -0.35 0.85 -2.30 0.55 -1.30 -0.15 -2.75 -0.30 -3.25 -0.30 -0.45 0 -1 -0.40 -1.10 -0.85 -0.20 -0.85 -0.25 -0.85 -0.30 0 -0.05 0.55 -0.45 0.85 -1.30 0.85 -1.10 0 -1.25 0.20 -1.25 1.75 0 1.20 -0.25 1.75 -0.75 1.75 -0.45 0 -0.75 0.45 -0.75 1.25 0 1.15 -0.20 1.25 -2.10 1.25 -1.60 0 -1.95 -0.15 -1.40 -0.50z"/>
  <path d="M23.55 4.15 c0.85 -1.40 2.95 -2.75 3.75 -2.45 1.05 0.40 0.85 1.80 -0.30 1.80 -0.55 0 -1 0.35 -1 0.75 0 0.50 -0.50 0.75 -1.50 0.75 -1.30 0 -1.45 -0.10 -0.95 -0.85z"/>
  <path d="M30.80 2.95 c-0.85 -0.85 -0.90 -0.95 -0.15 -0.95 0.45 0 0.85 0.25 0.85 0.50 0 0.30 0.35 0.50 0.75 0.50 0.40 0 0.75 0.25 0.75 0.50 0 0.80 -1.15 0.50 -2.20 -0.55z"/>
 </g>
 <g fill="#6f8694">
  <path d="M17.75 38.60 c-0.15 -0.80 -0.05 -1.95 0.20 -2.65 l0.50 -1.20 0 1.30 c0.05 0.70 0.30 1.50 0.60 1.80 0.45 0.45 0.40 0.80 -0.20 1.35 -0.70 0.70 -0.80 0.65 -1.10 -0.60z"/>
  <path d="M24.50 39.50 c0 -0.90 1.60 -3 2.05 -2.70 0.25 0.15 0.45 0.70 0.45 1.30 0 0.70 -0.25 0.90 -0.75 0.70 -0.45 -0.15 -0.75 0 -0.75 0.45 0 0.40 -0.20 0.75 -0.50 0.75 -0.25 0 -0.50 -0.25 -0.50 -0.50z"/>
  <path d="M17 30.85 c0 -0.65 0.30 -1.45 0.60 -1.75 0.50 -0.50 0.40 -0.70 -0.50 -0.95 -0.95 -0.20 -1.15 -0.55 -1 -1.85 0.10 -1.15 0.40 -1.60 1.30 -1.70 0.60 -0.10 1.10 -0.40 1.10 -0.65 0 -0.25 0.45 -0.45 1 -0.45 0.85 0 1 0.35 1 1.95 0 1.10 -0.30 2.20 -0.75 2.55 -0.40 0.35 -0.75 1.40 -0.75 2.30 0 1.35 -0.20 1.70 -1 1.70 -0.70 0 -1 -0.35 -1 -1.15z"/>
  <path d="M20.50 30.50 c0 -0.55 0.25 -1 0.50 -1 0.30 0 0.50 -0.40 0.50 -0.85 0 -0.75 0.10 -0.80 0.50 -0.15 0.40 0.65 0.55 0.65 0.95 0.05 0.25 -0.35 1 -0.65 1.75 -0.65 1.05 0 1.35 -0.30 1.60 -1.70 0.20 -1.05 0.60 -1.70 1.05 -1.70 0.50 0 0.65 0.30 0.40 0.90 -0.85 2.15 -0.75 2.25 0.75 0.60 1.55 -1.65 1.60 -1.70 0.75 -0.25 -1.50 2.45 -6 5.65 -6.45 4.60 -0.10 -0.35 -0.25 -0.20 -0.25 0.30 -0.05 1.25 -2.05 1.15 -2.05 -0.15z"/>
  <path d="M30 23.50 c0 -0.25 -0.55 -1 -1.25 -1.70 -1.15 -1.15 -1.25 -1.15 -1.25 -0.30 0 0.55 -0.20 1 -0.50 1 -0.25 0 -0.50 -0.55 -0.50 -1.20 0 -1.05 -0.30 -1.25 -1.60 -1.40 -1.45 -0.15 -1.65 -0.35 -1.80 -1.85 -0.20 -1.75 0.70 -4.05 1.55 -4.05 0.25 0 0.30 0.75 0.15 1.70 -0.25 1.20 -0.10 1.85 0.45 2.30 0.50 0.40 0.75 0.45 0.75 0.05 0 -0.30 -0.20 -0.55 -0.50 -0.55 -0.25 0 -0.50 -0.30 -0.50 -0.65 0 -0.95 1.90 -0.90 2.15 0.05 0.20 0.75 0.25 0.75 0.30 0 0.10 -1.60 1.55 -1.05 1.55 0.60 0 1.10 0.20 1.40 0.75 1.20 0.60 -0.25 0.75 0.20 0.75 2.50 0 1.55 -0.10 2.80 -0.25 2.80 -0.15 0 -0.25 -0.20 -0.25 -0.50z"/>
  <path d="M8.85 21.90 c-0.20 -0.60 -0.10 -1.35 0.15 -1.65 0.35 -0.45 0.80 -4.85 1 -9.60 0 -0.35 0.30 -0.65 0.70 -0.65 0.45 0 0.75 1.05 1 3.50 0.35 3.60 0.10 5.50 -0.75 5.50 -0.25 0 -0.45 0.90 -0.45 2 0 2.20 -1.15 2.85 -1.65 0.90z"/>
  <path d="M13.15 20.65 c-0.40 -0.10 -0.65 -1.10 -0.65 -2.20 0 -1.85 0.05 -1.95 1.65 -1.95 0.90 0 1.90 0.25 2.25 0.60 0.65 0.65 0.85 3.90 0.25 3.90 -0.15 0 -0.75 -0.40 -1.25 -0.85 -0.90 -0.80 -0.90 -0.80 -0.60 0 0.30 0.85 -0.35 1.05 -1.65 0.50z"/>
  <path d="M21.50 15.85 c0 -1.30 0.20 -1.85 0.70 -1.85 0.60 0 0.65 0.30 0.20 1.65 -0.75 2.25 -0.90 2.30 -0.90 0.20z"/>
  <path d="M14.30 8.70 c-0.15 -0.45 -0.30 -1.15 -0.30 -1.60 0 -0.65 0.25 -0.55 1 0.40 1.30 1.65 1.25 0.80 -0.05 -1.15 l-1.05 -1.60 1.30 1.40 c1.55 1.70 1.70 3.35 0.35 3.35 -0.50 0 -1.10 -0.35 -1.25 -0.80z"/>
  <path d="M6.50 7.65 c0 -0.60 0.60 -1.80 1.35 -2.70 1.25 -1.50 1.30 -1.55 0.25 -1.25 -0.60 0.20 -1.10 0.20 -1.10 -0.05 0 -0.85 1.55 -2.65 2.30 -2.65 0.40 0 0.60 -0.25 0.45 -0.50 -0.15 -0.25 0 -0.50 0.40 -0.50 1.20 0 1.50 1.55 0.35 1.85 -1.05 0.30 -1.15 0.60 -1 2.55 0.05 0.60 -0.15 1.10 -0.40 1.10 -0.30 0 -0.95 0.75 -1.55 1.65 -0.90 1.40 -1.05 1.45 -1.05 0.50z"/>
 </g>
 <g fill="#f37030">
  <path d="M25.85 38.65 c-0.65 -0.60 -0.35 -1.65 0.40 -1.65 0.40 0 0.75 0.45 0.75 1 0 1 -0.55 1.30 -1.15 0.65z"/>
  <path d="M23.50 17.65 c0 -1.50 1.40 -8.55 1.80 -9.25 0.35 -0.55 1.70 -0.50 1.70 0 0 1.45 -1.20 6.05 -1.55 5.85 -0.20 -0.15 -0.50 -0.05 -0.70 0.25 -0.15 0.25 -0.05 0.50 0.20 0.50 0.30 0 0.55 0.40 0.55 0.90 0 0.70 0.10 0.75 0.50 0.10 0.50 -0.80 0.60 -0.60 1.15 1.90 0.25 1 0.05 1.10 -1.70 1.10 -1.80 0 -1.95 -0.10 -1.95 -1.35z m2.50 0.35 c0 -0.25 -0.20 -0.50 -0.50 -0.50 -0.25 0 -0.50 -0.40 -0.55 -0.85 0 -0.55 -0.10 -0.65 -0.30 -0.25 -0.15 0.35 -0.10 0.95 0.05 1.35 0.30 0.85 1.30 1 1.30 0.25z"/>
  <path d="M19.50 16.25 c0 -0.70 -0.20 -1.25 -0.50 -1.25 -0.25 0 -0.45 -0.80 -0.35 -1.75 0.05 -0.95 0.35 -1.75 0.60 -1.75 0.30 0 0.80 -0.95 1.10 -2.15 0.70 -2.55 2.60 -5.20 3.15 -4.35 0.25 0.40 0.55 0.05 0.90 -0.90 0.55 -1.60 2.25 -2.85 3.10 -2.35 0.80 0.50 0.65 0.95 -1.50 4.45 -1.10 1.80 -2 3.45 -2 3.65 0 0.25 -0.50 2.05 -1.05 4.05 -0.95 3.15 -1.25 3.60 -2.25 3.60 -0.95 0 -1.20 -0.25 -1.20 -1.25z m2.60 -6 c0.80 -2.05 0.85 -2.30 0.15 -1.75 -0.90 0.75 -2.25 3.15 -2.25 4 0 1.30 1.20 0.05 2.10 -2.25z"/>
  <path d="M27.45 16.90 c0 -0.35 -0.10 -1.20 -0.20 -1.90 -0.10 -0.70 -0.05 -2.15 0.10 -3.25 0.35 -2.45 0.85 -1.40 1.35 2.90 0.25 2.35 0.20 2.85 -0.45 2.85 -0.40 0 -0.75 -0.30 -0.80 -0.60z"/>
  <path d="M29.80 1.40 l-0.80 -1.60 1.25 1.20 c1.30 1.20 1.60 2 0.80 2 -0.25 0 -0.85 -0.70 -1.25 -1.60z"/>
 </g>
 <g fill="#868e81">
  <path d="M17 31.30 c0 -0.40 0.30 -0.85 0.65 -0.95 0.45 -0.20 0.40 -0.30 -0.10 -0.30 -0.50 -0.05 -0.55 -0.20 -0.10 -0.75 0.70 -0.85 -0.10 -1.55 -1.20 -1.10 -0.55 0.20 -0.75 -0.15 -0.75 -1.50 0 -1.50 0.20 -1.75 1.50 -2 1.10 -0.25 1.50 -0.60 1.50 -1.40 0 -0.65 -0.15 -0.85 -0.40 -0.45 -0.25 0.40 -0.75 0.05 -1.45 -1 -0.60 -0.90 -1.05 -1.75 -1 -1.90 0.05 -0.15 -0.20 -0.65 -0.60 -1.10 -0.60 -0.75 -0.50 -0.85 0.90 -0.85 1.20 0 1.55 0.20 1.55 1 0 0.65 0.35 1 1 1 0.80 0 1 -0.35 1 -1.75 0 -1.55 0.15 -1.75 1.30 -1.75 1.10 0 1.20 0.15 0.90 1.15 -0.35 1.10 -0.30 1.10 0.75 0.15 l1.05 -0.95 0.05 1.95 0.10 1.95 0.30 -2 c0.20 -1.45 0.40 -1.75 0.65 -1.10 0.45 1.05 1.40 1.15 1.40 0.10 0 -0.40 0.25 -0.75 0.50 -0.75 0.30 0 0.50 0.35 0.50 0.75 0 0.40 0.40 0.75 0.90 0.75 0.55 0 1.30 0.40 1.75 0.90 0.90 1 1.15 4.35 0.40 4.80 -0.25 0.20 -0.35 -0.15 -0.20 -0.65 0.15 -0.65 -0.10 -1.15 -0.80 -1.50 -0.85 -0.50 -0.95 -0.75 -0.50 -1.95 0.40 -1.10 0.40 -1.25 -0.15 -0.70 -0.35 0.35 -0.70 1.95 -0.75 3.50 -0.05 1.55 -0.15 3.40 -0.25 4 -0.15 1.40 -2.60 3.30 -3.65 2.90 -0.45 -0.15 -0.95 0.15 -1.30 0.75 -0.40 0.85 -0.85 1 -2 0.75 -0.80 -0.15 -1.45 -0.05 -1.45 0.20 0 0.30 -0.45 0.50 -1 0.50 -0.55 0 -1 -0.30 -1 -0.70z m6 -2.80 c0 -0.25 0.35 -0.50 0.75 -0.50 0.40 0 0.75 -0.15 0.80 -0.35 0.50 -3.50 0.10 -4.40 -1.35 -2.95 -0.95 1 -0.90 1.30 0.30 1.30 1.30 0 1.25 0.65 -0.10 1.25 -1.15 0.55 -1.85 1.75 -0.95 1.75 0.30 0 0.55 -0.20 0.55 -0.50z m3 -0.95 c0 -0.25 0.15 -0.90 0.30 -1.40 0.30 -0.80 0.25 -0.80 -0.45 0.10 -0.95 1.15 -1.05 1.75 -0.35 1.75 0.30 0 0.50 -0.20 0.50 -0.45z m-4.75 -5.55 c0.15 -0.30 0.65 -0.50 1.05 -0.50 0.40 0 0.70 -0.20 0.70 -0.50 0 -0.25 -0.65 -0.50 -1.50 -0.50 l-1.50 0 0.05 3.15 c0.05 3.05 0.05 3.10 0.50 0.95 0.20 -1.15 0.55 -2.35 0.70 -2.60z"/>
  <path d="M12.50 20.50 c0 -3 2.15 -2.65 2.40 0.40 0.15 1.45 0.05 1.60 -1.10 1.60 -1.20 0 -1.30 -0.20 -1.30 -2z"/>
  <path d="M9.60 16.90 c-0.05 -1.20 0.10 -1.40 0.45 -0.90 0.30 0.50 0.35 0.25 0.15 -0.85 -0.30 -1.45 -0.20 -1.65 0.75 -1.65 0.95 0 1.05 0.30 1.05 2.50 0 2.30 -0.10 2.50 -1.15 2.50 -1 0 -1.20 -0.25 -1.25 -1.60z"/>
  <path d="M16 12.80 c0 -0.45 -0.30 -0.80 -0.70 -0.80 -0.40 0 -0.75 -0.80 -0.95 -2.05 -0.15 -1.30 -0.65 -2.30 -1.30 -2.80 -0.60 -0.40 -1.05 -1.25 -1.05 -1.95 0 -0.75 -0.30 -1.20 -0.75 -1.20 -1 0 -0.95 -0.50 0.20 -1.95 0.55 -0.70 1.05 -1 1.25 -0.65 0.15 0.30 0.10 0.65 -0.20 0.85 -0.85 0.50 -0.55 1.25 0.65 1.70 0.60 0.25 1.55 1.20 2.05 2.05 0.55 0.95 0.65 1.45 0.30 1.25 -0.40 -0.25 -0.55 -0.15 -0.40 0.30 0.15 0.40 0.55 0.65 0.85 0.55 0.30 -0.05 0.55 0.45 0.55 1.15 0 0.90 0.20 1.15 0.75 0.95 0.40 -0.20 0.75 -0.05 0.75 0.30 0 0.35 0.35 0.50 0.80 0.30 0.60 -0.25 0.75 0 0.60 1.10 -0.10 1.10 -0.40 1.40 -1.75 1.50 -1.25 0.10 -1.65 -0.05 -1.65 -0.60z"/>
  <path d="M9.10 8.20 c-0.60 -1.10 -0.20 -2.70 0.70 -2.70 0.45 0 0.70 0.60 0.70 1.75 0 1.85 -0.65 2.30 -1.40 0.95z"/>
  <path d="M7 3.70 c0 -0.65 1.70 -2.70 2.25 -2.70 0.35 0 0.80 -0.30 0.90 -0.60 0.20 -0.50 0.40 -0.45 0.80 0.10 0.35 0.50 0.30 0.95 -0.25 1.60 -0.75 0.80 -3.70 2.10 -3.70 1.60z"/>
 </g>
 <g fill="#a18678">
  <path d="M19.50 39.45 c0 -0.30 -0.30 -0.45 -0.70 -0.30 -0.40 0.15 -0.85 -0.05 -1 -0.50 -0.40 -1 -0.05 -1.35 0.90 -1 0.95 0.35 2.05 2.35 1.30 2.35 -0.25 0 -0.50 -0.25 -0.50 -0.55z"/>
  <path d="M25.85 38.65 c-0.40 -0.65 -0.25 -3.15 0.15 -3.15 0.60 0 1.10 2.60 0.60 3.10 -0.30 0.30 -0.60 0.30 -0.75 0.05z"/>
  <path d="M17.60 33.10 c-0.75 -2.55 -0.75 -2.60 0.30 -2.60 0.65 0 0.70 -0.10 0.20 -0.45 -0.35 -0.20 -0.60 -0.70 -0.50 -1.10 0.10 -0.50 -0.45 -0.70 -2.05 -0.70 -1.50 -0.05 -2.30 -0.30 -2.45 -0.75 -0.15 -0.40 -0.65 -1.10 -1.20 -1.55 -1.05 -0.95 -1.30 -4.95 -0.25 -4.95 0.40 0 0.55 -0.70 0.45 -2.25 -0.20 -2.25 -0.20 -2.25 1.35 -2.25 1 0 2.10 0.45 2.95 1.25 0.85 0.80 1.90 1.25 3 1.25 l1.65 0 -0.35 4.40 c-0.20 2.40 -0.55 4.45 -0.75 4.50 -0.60 0.25 -0.55 1.60 0.05 1.60 0.30 0 0.50 0.45 0.50 1 0 0.65 -0.25 0.90 -0.75 0.70 -0.55 -0.25 -0.75 0.05 -0.75 1.10 0 2.50 -0.75 2.95 -1.40 0.80z m0.80 -6.75 c0.35 -0.35 0.35 -1.25 0.10 -2.35 -0.20 -0.95 -0.40 -1.45 -0.45 -1.05 -0.05 0.45 -0.60 0.05 -1.30 -0.95 -0.65 -0.90 -1.10 -1.80 -1 -2 0.15 -0.20 -0.20 -0.75 -0.75 -1.25 -0.60 -0.50 -1 -0.65 -1 -0.35 0 0.35 0.25 0.60 0.60 0.60 0.45 0 0.45 0.15 0 0.60 -0.35 0.35 -0.60 0.85 -0.60 1.10 0 0.30 0.25 0.20 0.50 -0.20 0.35 -0.60 0.50 -0.40 0.50 0.70 0 0.80 0.40 1.75 0.90 2.10 0.80 0.65 0.80 0.65 0 0.70 -0.50 0 -0.90 0.25 -0.90 0.55 0 0.35 0.55 0.40 1.45 0.20 1.75 -0.35 2.35 0.35 1.25 1.45 -0.40 0.45 -0.55 0.80 -0.30 0.80 0.25 0 0.70 -0.30 1 -0.65z"/>
  <path d="M28 27.45 c0 -0.20 0.55 -1.35 1.25 -2.50 0.70 -1.20 1.25 -1.95 1.25 -1.70 0 0.55 -2.45 4.70 -2.50 4.20z"/>
  <path d="M28.60 19.40 c0.05 -1.45 0.15 -2.15 0.30 -1.50 0.10 0.80 0.40 1.10 0.90 0.90 0.60 -0.25 0.75 0.05 0.60 1.30 -0.10 1.05 -0.45 1.70 -1 1.80 -0.70 0.15 -0.85 -0.25 -0.80 -2.50z"/>
  <path d="M9.50 18.65 c0.05 -0.95 1.10 -2.65 1.70 -2.65 0.15 0 0.30 0.80 0.30 1.75 0 1.40 -0.20 1.75 -1 1.75 -0.65 0 -1 -0.35 -1 -0.85z"/>
  <path d="M23.05 16.65 c1 -2.75 3.05 -3.80 2.55 -1.40 -0.10 0.70 -0.40 1.10 -0.65 0.95 -0.25 -0.15 -0.45 0.20 -0.45 0.75 0 0.70 -0.30 1.05 -1 1.05 -0.85 0 -0.90 -0.15 -0.45 -1.35z"/>
  <path d="M26 16.45 c0 -0.55 0.25 -0.85 0.50 -0.70 0.30 0.15 0.50 0.65 0.50 1.05 0 0.40 -0.20 0.70 -0.50 0.70 -0.25 0 -0.50 -0.45 -0.50 -1.05z"/>
  <path d="M27.45 16.90 c0 -0.35 -0.10 -1.15 -0.15 -1.75 -0.10 -0.65 0.05 -1.15 0.30 -1.15 0.20 0 0.40 0.80 0.40 1.75 0 1.60 -0.45 2.55 -0.55 1.15z"/>
  <path d="M17.40 14.65 c-0.65 -0.15 -0.90 -0.75 -0.90 -1.95 0 -1.60 0.10 -1.70 1.75 -1.70 1.55 0 1.75 0.15 1.75 1.35 l0 1.35 -1 -1.10 c-0.60 -0.60 -1.20 -1.10 -1.40 -1.10 -0.15 0 0.30 0.60 1.05 1.40 1.35 1.30 1.40 1.35 2.15 0.40 0.65 -0.95 0.70 -0.95 0.70 0.35 0 1.20 -0.20 1.35 -1.60 1.30 -0.90 -0.05 -2.05 -0.15 -2.50 -0.30z"/>
  <path d="M6.50 8.40 c0 -0.65 1.20 -3.15 1.90 -4 0.45 -0.50 1.15 -0.90 1.70 -0.90 0.70 0 0.90 0.40 0.90 1.75 0 1.40 -0.20 1.75 -0.95 1.75 -0.55 0 -1.05 -0.40 -1.15 -0.85 -0.10 -0.65 -0.45 -0.45 -1.25 0.85 -0.65 0.95 -1.15 1.60 -1.15 1.40z"/>
 </g>
 <g fill="#c38c66">
  <path d="M17.70 38.30 c-0.15 -0.40 -0.05 -1.15 0.25 -1.65 0.35 -0.65 0.50 -0.70 0.55 -0.20 0 0.40 0.35 1.15 0.85 1.65 0.75 0.85 0.75 0.90 -0.30 0.90 -0.60 0 -1.20 -0.30 -1.35 -0.70z"/>
  <path d="M25.55 35.90 c-0.35 -1.20 -0.85 -2.55 -1.15 -3.05 -0.25 -0.55 -0.35 -1.05 -0.20 -1.20 0.15 -0.15 0.70 0.70 1.20 1.90 1.40 3.20 1.70 4.45 1.20 4.45 -0.25 0 -0.70 -0.95 -1.05 -2.10z"/>
  <path d="M18.05 34.25 c-0.05 -0.85 -0.30 -1.80 -0.60 -2.10 -0.30 -0.30 -0.40 -0.80 -0.25 -1.10 0.45 -0.65 3.30 -0.75 3.30 -0.10 0 0.25 -0.45 0.35 -1.05 0.20 -0.85 -0.25 -0.95 -0.10 -0.70 0.90 0.15 0.70 0.10 1.80 -0.20 2.45 -0.50 1.25 -0.50 1.25 -0.50 -0.25z"/>
  <path d="M16.80 27.55 c-0.15 -0.25 0.25 -0.60 0.95 -0.75 1.20 -0.30 1.25 -0.50 1 -2.50 -0.20 -1.35 -0.10 -2.35 0.20 -2.55 0.30 -0.15 0.55 -0.55 0.55 -0.80 0 -0.30 -0.35 -0.15 -0.80 0.25 -1 1 -1.70 1 -1.70 0.05 0 -0.40 0.25 -0.75 0.50 -0.75 0.30 0 0.50 -0.35 0.50 -0.75 0 -0.50 0.55 -0.75 1.75 -0.75 1.65 0 1.75 0.10 1.75 1.75 0 0.95 -0.20 1.75 -0.50 1.75 -0.25 0 -0.50 0.70 -0.50 1.50 0 0.85 -0.20 1.50 -0.50 1.50 -0.25 0 -0.60 0.55 -0.80 1.25 -0.30 1.25 -1.85 1.75 -2.40 0.80z"/>
  <path d="M14 27 c0 -0.25 -0.35 -0.50 -0.75 -0.50 -0.50 0 -0.75 -0.50 -0.75 -1.30 0 -1.05 0.15 -1.20 0.70 -0.75 0.50 0.45 0.75 0.40 0.95 -0.15 0.20 -0.45 -0.05 -1 -0.55 -1.30 -0.70 -0.45 -0.65 -0.50 0.40 -0.40 1.05 0.15 1.20 0.40 1.10 1.55 -0.15 1.30 -0.10 1.30 1.15 0.85 1.55 -0.60 2.30 -0.30 1.90 0.80 -0.20 0.50 -0.70 0.70 -1.45 0.55 -0.80 -0.15 -1.20 0 -1.20 0.45 0 0.40 -0.35 0.70 -0.75 0.70 -0.40 0 -0.75 -0.20 -0.75 -0.50z"/>
  <path d="M26 17.75 c0 -0.95 0.25 -1.75 0.50 -1.75 0.30 0 0.50 0.55 0.50 1.25 0 0.70 0.20 1.25 0.50 1.25 0.25 0 0.35 -0.30 0.25 -0.60 -0.50 -1.25 -0.60 -3.90 -0.20 -3.90 0.60 0 0.95 0.75 1.40 3.10 l0.40 2.20 -1.70 0.10 c-1.60 0.15 -1.65 0.05 -1.65 -1.65z"/>
  <path d="M24 14.40 c0 -1.50 0.65 -2.90 1.35 -2.90 1.10 0 0.65 3.20 -0.45 3.40 -0.50 0.10 -0.90 -0.10 -0.90 -0.50z"/>
 </g>
 <g fill="#f78c43">
  <path d="M17.65 38.20 c-0.15 -0.40 -0.05 -1 0.30 -1.35 0.40 -0.40 0.55 -0.35 0.55 0.30 0 0.45 0.25 0.85 0.50 0.85 0.30 0 0.50 0.25 0.50 0.50 0 0.80 -1.50 0.55 -1.85 -0.30z"/>
  <path d="M25.90 37.20 c-0.20 -1.60 -0.15 -1.70 0.45 -0.90 0.75 1.05 0.85 2 0.20 2.40 -0.25 0.15 -0.55 -0.50 -0.65 -1.50z"/>
  <path d="M19 22.35 c0 -0.35 0.25 -0.90 0.60 -1.25 0.45 -0.45 0.45 -0.60 0 -0.60 -0.35 0 -0.60 0.25 -0.60 0.50 0 0.30 -0.20 0.50 -0.50 0.50 -0.25 0 -0.50 -0.45 -0.50 -1 0 -0.80 0.35 -1 1.75 -1 1.65 0 1.75 0.10 1.75 1.75 0 1.55 -0.15 1.75 -1.25 1.75 -0.70 0 -1.25 -0.30 -1.25 -0.65z"/>
  <path d="M27 19.85 c0 -0.50 -0.20 -0.85 -0.50 -0.85 -0.25 0 -0.50 -0.65 -0.50 -1.50 0 -0.80 0.25 -1.50 0.50 -1.50 0.30 0 0.50 0.55 0.50 1.25 0 0.70 0.25 1.25 0.50 1.25 0.30 0 0.40 -0.55 0.25 -1.25 -0.15 -0.70 -0.35 -1.80 -0.50 -2.50 -0.50 -2.30 0.40 -2.50 1.05 -0.20 0.95 3.05 0.85 4.15 -0.30 5.20 -0.90 0.80 -1 0.80 -1 0.10z"/>
  <path d="M28.60 19.90 c0.30 -0.90 1.25 -1 1.55 -0.15 0.25 0.50 0 0.75 -0.70 0.75 -0.60 0 -0.95 -0.25 -0.85 -0.60z"/>
  <path d="M19.85 18.65 c-0.55 -0.55 -0.40 -4.65 0.15 -4.65 0.60 0 3.65 -6.50 3.30 -6.90 -0.35 -0.30 -3.30 4.40 -3.30 5.25 0 0.35 -0.20 0.65 -0.50 0.65 -0.25 0 -0.50 -0.25 -0.50 -0.55 0 -0.30 -0.30 -0.45 -0.65 -0.30 -0.40 0.15 -0.65 -0.25 -0.70 -1.10 -0.05 -0.70 0.05 -1 0.20 -0.65 0.45 1.10 1 0.65 2.80 -2.35 3.10 -5 7.35 -8 7.35 -5.10 0 0.60 -0.10 0.65 -0.45 0.15 -0.30 -0.55 -0.50 -0.50 -0.80 0.25 -0.25 0.50 -0.45 1 -0.45 1.15 -0.05 0.15 -0.65 1.60 -1.40 3.30 -0.75 1.65 -1.75 4.45 -2.20 6.25 -0.45 1.75 -1 3.45 -1.25 3.75 -0.25 0.30 -0.30 0.70 -0.10 0.85 0.15 0.20 0 0.35 -0.45 0.35 -0.40 0 -0.90 -0.15 -1.05 -0.35z"/>
  <path d="M22 18.85 c0 -0.10 0.45 -1.15 1.05 -2.35 0.60 -1.20 1.20 -3.15 1.40 -4.35 0.30 -2.30 1.20 -2.95 1.45 -1.10 0.10 0.60 0.05 2.05 -0.15 3.25 -0.20 1.60 -0.50 2.10 -1.05 1.85 -0.50 -0.20 -0.60 0 -0.40 0.55 0.30 0.80 -0.85 2.30 -1.75 2.30 -0.30 0 -0.55 -0.05 -0.55 -0.15z"/>
 </g>
 <g fill="#8aa4a4">
  <path d="M17.50 30.90 c0 -0.25 0.30 -0.40 0.65 -0.40 0.45 0 0.45 -0.10 -0.05 -0.40 -1.10 -0.70 -0.10 -2.10 1.45 -2.10 1.10 0 1.60 0.30 1.95 1.30 0.75 2 0.65 2.15 -1.75 2.05 -1.25 -0.05 -2.25 -0.25 -2.25 -0.45z"/>
  <path d="M23.20 29.45 c-0.15 -0.30 -0.10 -0.75 0.20 -1.05 0.30 -0.30 0.60 -0.30 0.80 0.05 0.60 0.90 1.20 0.65 2 -0.80 0.70 -1.25 0.75 -1.30 0.80 -0.35 0 0.60 -0.55 1.45 -1.25 1.90 -1.45 0.95 -2.05 1 -2.55 0.25z"/>
  <path d="M17.25 26 c-0.40 -0.65 -0.05 -1.20 0.70 -0.95 0.30 0.15 0.35 0.50 0.10 0.90 -0.30 0.50 -0.50 0.50 -0.80 0.05z"/>
  <path d="M18.90 25.65 c-0.30 -1.40 0.10 -2.65 0.90 -2.65 0.45 0 0.70 0.55 0.70 1.75 0 1.85 -1.20 2.50 -1.60 0.90z"/>
  <path d="M27.10 24.90 c-0.05 -0.80 -0.40 -1.40 -0.70 -1.45 -0.35 -0.05 -1.40 -0.10 -2.25 -0.10 -1.25 -0.05 -1.65 -0.30 -1.65 -0.95 0 -0.50 0.25 -0.90 0.50 -0.90 0.30 0 0.45 -0.60 0.45 -1.35 -0.05 -0.85 -0.15 -1.05 -0.30 -0.50 -0.15 0.60 -0.75 0.85 -1.95 0.85 -1.60 0 -1.70 -0.10 -1.70 -1.75 0 -1.45 0.20 -1.75 1.05 -1.75 0.70 0 0.95 0.25 0.80 0.75 -0.65 1.65 0.60 1.10 1.40 -0.65 0.90 -1.85 1.60 -2.60 2.45 -2.60 0.25 0 0.10 0.40 -0.30 0.90 -0.55 0.55 -0.65 1.20 -0.40 1.90 0.70 1.80 1.50 1.90 1.50 0.25 0 -0.85 0.25 -1.55 0.50 -1.55 0.30 0 0.50 0.55 0.50 1.25 0 0.70 0.25 1.25 0.50 1.25 0.35 0 0.40 -0.70 0.20 -1.85 -0.20 -1.25 -0.15 -1.75 0.15 -1.40 0.95 0.90 1.15 3.05 0.40 4.10 -0.40 0.55 -0.80 2.30 -0.90 3.95 -0.10 1.60 -0.20 2.35 -0.25 1.60z"/>
  <path d="M13.65 23.15 c-1.40 -0.95 -1.45 -1.65 -0.15 -1.65 1 0 2.30 1.75 1.65 2.15 -0.25 0.15 -0.90 -0.10 -1.50 -0.50z"/>
  <path d="M9 21.40 c0 -1.50 0.65 -2.90 1.30 -2.90 0.45 0 0.70 0.60 0.70 1.75 0 1.40 -0.20 1.75 -1 1.75 -0.55 0 -1 -0.30 -1 -0.60z"/>
  <path d="M28.50 20.80 c0 -1.45 0.95 -2.20 1.55 -1.25 0.65 1 0.30 2.15 -0.70 2.35 -0.60 0.15 -0.85 -0.15 -0.85 -1.10z"/>
  <path d="M15.75 19.90 c-1.35 -2.15 -2.40 -2.45 -1.95 -0.55 0.35 1.25 0.30 1.35 -0.45 0.70 -0.50 -0.40 -0.85 -1.40 -0.85 -2.35 0 -1.60 0.10 -1.70 1.65 -1.70 2.15 0 3.85 1.75 3.85 3.90 0 2.05 -0.95 2.05 -2.25 0z"/>
  <path d="M19 14.75 c0 -0.80 0.20 -1.15 0.65 -0.95 0.40 0.15 1 -0.10 1.35 -0.55 0.90 -1.10 1.50 -0.90 1.50 0.50 0 0.90 -0.20 1.15 -0.75 0.95 -0.45 -0.20 -0.75 0 -0.75 0.50 0 0.45 -0.40 0.80 -1 0.80 -0.75 0 -1 -0.35 -1 -1.25z"/>
 </g>
 <g fill="#a5a090">
  <path d="M17.20 31.90 c-0.20 -0.30 0.05 -0.85 0.55 -1.25 0.60 -0.40 0.70 -0.65 0.30 -0.65 -0.40 0 -0.55 -0.30 -0.35 -0.80 0.20 -0.50 -0.05 -1.10 -0.50 -1.45 -0.75 -0.55 -0.70 -0.65 0.45 -0.95 1.25 -0.30 1.35 -0.55 1.35 -2.75 0 -1.50 0.25 -2.55 0.65 -2.70 0.30 -0.10 0.45 -0.40 0.25 -0.60 -0.20 -0.20 -0.70 0 -1.15 0.45 -1.10 1.05 -1.60 1 -2.25 -0.20 -0.30 -0.55 -0.40 -1 -0.20 -1 0.20 0 -0.15 -0.55 -0.80 -1.25 -0.60 -0.65 -1.35 -1.10 -1.55 -0.95 -0.55 0.30 -0.10 2.40 0.85 4.30 0.50 1 0.55 1.45 0.10 1.70 -0.30 0.20 -0.40 0.15 -0.25 -0.15 0.20 -0.30 -0.20 -0.65 -0.95 -0.80 -1.70 -0.30 -1.40 1.15 0.45 2.05 1.55 0.75 1.75 2.10 0.45 2.90 -0.75 0.50 -1.20 0.30 -2.60 -1.10 -1.70 -1.70 -2.25 -3.75 -2.05 -7.95 0.05 -0.80 0.10 -2.25 0.15 -3.10 0.10 -2.15 1.75 -2.15 2.55 0 0.15 0.45 0.75 0.85 1.30 0.85 0.55 0 1.10 0.45 1.30 1 0.45 1.40 2.75 1.40 2.75 -0.05 0 -0.85 0.25 -1 1.65 -0.85 1.30 0.10 1.60 0.35 1.50 1.30 -0.10 0.60 0.05 1.10 0.30 1.10 0.45 0 2.55 -4.10 2.55 -5 0 -0.25 0.35 -0.50 0.75 -0.50 0.40 0 0.75 0.30 0.75 0.70 0 0.35 -0.35 0.95 -0.75 1.30 -0.45 0.35 -0.75 1.45 -0.75 2.55 0 1.60 -0.15 1.95 -1 1.95 -0.55 0 -1 0.35 -1 0.75 0 0.45 0.45 0.75 1.25 0.75 1.55 0 1.70 1.25 0.20 1.65 -0.60 0.15 -0.90 0.50 -0.75 0.80 0.20 0.25 0.10 0.60 -0.20 0.80 -0.25 0.15 -0.35 0.95 -0.15 1.75 0.15 0.95 0.05 1.50 -0.30 1.50 -0.30 0 -0.55 0.70 -0.55 1.50 0 1.35 -0.15 1.50 -1.50 1.50 -1 0 -1.50 0.25 -1.50 0.75 0 0.90 -0.80 1 -1.30 0.15z"/>
  <path d="M16.35 25.70 c0.15 -0.40 0.70 -0.70 1.20 -0.70 1.20 0 0.75 1.25 -0.55 1.35 -0.65 0.05 -0.85 -0.15 -0.65 -0.65z"/>
  <path d="M26.50 22.85 c0 -0.35 -0.45 -1.15 -1 -1.75 -0.55 -0.60 -1 -1.55 -0.95 -2.20 0 -0.65 0.15 -0.85 0.30 -0.50 0.40 0.95 1.15 0.70 1.15 -0.40 0 -1.35 0.90 -1.25 1.15 0.15 l0.20 1.10 0.50 -1.20 c0.35 -0.85 0.60 -1.05 0.85 -0.60 0.20 0.30 0.05 1.15 -0.40 1.80 -0.45 0.65 -0.80 1.90 -0.80 2.75 0 0.80 -0.20 1.50 -0.50 1.50 -0.25 0 -0.50 -0.30 -0.50 -0.65z"/>
  <path d="M29.80 20.75 c-0.15 -0.45 -0.55 -0.65 -0.85 -0.45 -0.35 0.20 -0.50 0.05 -0.35 -0.30 0.35 -1.15 1.30 -1.10 1.65 0 0.40 1.25 0 1.90 -0.45 0.75z"/>
  <path d="M17.85 15.65 c-0.20 -0.15 -0.35 -1.10 -0.35 -2 0 -1.55 0.05 -1.65 0.80 -0.95 1 1.05 2.95 2.10 2.50 1.40 -0.15 -0.30 -0.05 -0.70 0.25 -0.90 0.45 -0.25 0.50 0 0.30 0.85 -0.20 0.65 -0.35 1.35 -0.35 1.60 0 0.45 -2.70 0.45 -3.15 0z"/>
  <path d="M14 9.75 c0 -0.40 -0.20 -0.75 -0.50 -0.75 -0.25 0 -0.50 -0.35 -0.50 -0.75 0 -0.40 -0.20 -0.75 -0.50 -0.75 -0.25 0 -0.50 -0.55 -0.50 -1.25 0 -0.70 -0.20 -1.25 -0.50 -1.25 -0.25 0 -0.50 0.35 -0.50 0.75 0 0.45 -0.45 0.75 -1.05 0.75 -0.80 0 -1 -0.20 -0.75 -0.85 0.15 -0.50 -0.35 -0.10 -1.20 0.85 l-1.50 1.75 0.55 -1.65 c0.30 -0.90 1.15 -2 1.80 -2.50 0.70 -0.45 1.80 -1.35 2.40 -2 0.70 -0.70 1.30 -0.95 1.50 -0.60 0.15 0.25 0.05 0.50 -0.20 0.50 -0.75 0 -0.70 1.35 0.10 1.85 0.35 0.20 0.90 1.05 1.25 1.85 0.55 1.20 0.75 1.35 1.15 0.75 0.35 -0.50 0.40 -0.40 0.35 0.55 -0.10 0.80 0.10 1.20 0.50 1.15 0.65 -0.15 0.75 0.35 0.30 1.55 -0.40 1 -2.20 1.05 -2.20 0.05z"/>
  <path d="M7.75 2.45 c0.45 -0.80 1 -1.35 1.25 -1.20 0.30 0.20 0.65 -0.05 0.80 -0.45 0.40 -1.10 1.20 -1 1.20 0.15 0 1.10 -0.75 1.80 -2.65 2.50 l-1.35 0.55 0.75 -1.55z"/>
 </g>
 <g fill="#f57187">
  <path d="M31 3 c-0.70 -0.50 -1.05 -1.10 -0.85 -1.35 0.25 -0.20 0.70 0 1.05 0.50 0.35 0.45 0.90 0.85 1.25 0.85 0.30 0 0.55 0.25 0.55 0.50 0 0.75 -0.60 0.60 -2 -0.50z"/>
 </g>
 <g fill="#fba856">
  <path d="M17.80 38.20 c-0.15 -0.45 -0.10 -1.15 0.20 -1.60 0.40 -0.75 0.45 -0.75 0.50 0.10 0 0.50 0.40 1.25 0.90 1.60 0.80 0.60 0.80 0.65 -0.20 0.70 -0.60 0 -1.25 -0.35 -1.40 -0.80z"/>
  <path d="M25.85 37.15 c-0.15 -0.80 -0.40 -1.95 -0.55 -2.65 -0.25 -1 -0.20 -0.95 0.40 0.25 1.05 2.35 1.40 3.75 0.90 3.75 -0.25 0 -0.60 -0.60 -0.75 -1.35z"/>
  <path d="M19 22.80 c0 -1.35 0.75 -1.75 1.15 -0.65 0.15 0.30 0.30 0.10 0.30 -0.50 0.05 -1.20 -1.10 -1.60 -1.70 -0.65 -0.35 0.60 -1.25 0.20 -1.25 -0.55 0 -0.25 0.90 -0.45 2.05 -0.45 l2 0 -0.15 1.90 c-0.10 1.50 -0.35 1.90 -1.25 2 -0.95 0.15 -1.15 -0.05 -1.15 -1.10z"/>
  <path d="M26.30 18.95 c-0.40 -2.10 -0.40 -2.45 0.20 -2.45 0.30 0 0.50 0.55 0.50 1.20 0 0.65 0.25 1.30 0.60 1.40 0.30 0.10 0.40 0.50 0.20 0.80 -0.60 1 -1.15 0.65 -1.50 -0.95z"/>
  <path d="M19.60 18.65 c0.05 -0.50 -0.10 -1.70 -0.30 -2.75 -0.30 -1.55 -0.20 -1.80 0.55 -1.70 0.90 0.15 1.80 2.90 1.30 4.15 -0.15 0.35 0 0.65 0.30 0.65 0.65 0 2.45 -3.60 2.85 -5.85 0.15 -0.90 0.50 -1.65 0.75 -1.65 0.75 0 0.50 3.35 -0.30 4 -0.40 0.35 -0.75 0.95 -0.75 1.30 0 0.40 -0.20 0.70 -0.50 0.70 -0.25 0 -0.50 0.45 -0.50 1 0 0.80 -0.35 1 -1.70 1 -1.35 0 -1.70 -0.20 -1.70 -0.85z"/>
  <path d="M27.80 17.45 c-0.40 -2.20 -0.40 -2.75 0.15 -2.15 0.65 0.70 1.10 3.10 0.60 3.40 -0.25 0.15 -0.55 -0.40 -0.75 -1.25z"/>
  <path d="M21.35 14.40 c-0.60 -0.30 -0.75 -0.70 -0.45 -1.05 0.25 -0.35 0.80 -1.60 1.25 -2.85 0.50 -1.25 1.30 -2.80 1.85 -3.50 0.90 -1.15 1 -1.20 1 -0.20 0 0.55 -0.20 1.20 -0.45 1.50 -0.25 0.25 -0.90 1.85 -1.40 3.55 -0.80 2.70 -1.05 3 -1.80 2.55z"/>
  <path d="M19.15 12.30 c0.20 -0.45 -0.05 -0.85 -0.55 -0.95 -0.80 -0.20 -0.75 -0.25 0.05 -0.30 0.45 0 0.85 -0.35 0.85 -0.75 0 -1.55 5.95 -8.30 7.30 -8.30 0.55 0 -1.60 3.10 -2.40 3.55 -1.20 0.65 -4.40 5.45 -4.40 6.55 0 0.50 -0.25 0.90 -0.55 0.90 -0.30 0 -0.45 -0.30 -0.30 -0.70z"/>
 </g>
 <g fill="#acb1a4">
  <path d="M17 31.50 c0 -0.25 0.35 -0.50 0.75 -0.50 0.40 0 0.75 -0.20 0.75 -0.50 0 -0.25 -0.25 -0.50 -0.55 -0.50 -0.30 0 -0.40 -0.45 -0.20 -1 0.20 -0.55 0.10 -1 -0.20 -1 -1.05 0 -0.55 -0.95 0.55 -1.10 0.95 -0.15 1.10 -0.45 1.15 -2.40 0 -1.55 0.20 -2.20 0.65 -2.10 0.30 0.05 0.60 -0.35 0.60 -0.90 0 -1 -1.20 -1.40 -1.70 -0.55 -0.40 0.65 -2.30 0.05 -2.30 -0.65 0 -1 -2.20 -2.80 -2.90 -2.35 -0.45 0.25 -0.40 0.85 0.25 2.45 0.45 1.15 0.65 2.25 0.50 2.45 -0.50 0.45 -1.85 -0.85 -1.85 -1.80 0 -0.45 -0.25 -1.15 -0.55 -1.55 -0.35 -0.55 -0.40 -0.15 -0.15 1.50 0.40 2.75 1.10 3.85 2.50 4.20 0.80 0.20 1.05 0.55 0.85 1.30 -0.35 1.40 -1.60 1.20 -3.60 -0.50 -1.65 -1.40 -1.70 -1.50 -1.80 -5.75 -0.05 -2.40 0.05 -4.05 0.25 -3.75 0.20 0.35 0.50 0.40 0.65 0.15 0.15 -0.25 0.10 -0.75 -0.20 -1.15 -0.25 -0.40 -0.45 -1.35 -0.45 -2.10 0 -1.15 0.20 -1.40 1.25 -1.40 1.05 0 1.25 0.25 1.25 1.60 0 1.25 0.15 1.45 0.60 1 0.35 -0.35 1.35 -0.60 2.25 -0.60 1.65 0 1.65 0 1.65 2.40 l0 2.35 2.65 -0.05 c2.35 0 2.65 -0.15 3.05 -1.35 0.60 -1.70 0.90 -1.70 1.70 0.15 0.55 1.20 1 1.50 2.20 1.50 1.30 0 1.45 0.15 1.10 1.15 -0.20 0.60 -0.35 2.25 -0.30 3.60 l0 2.50 -0.45 -2.10 c-0.60 -2.55 -1.70 -3.70 -2.20 -2.20 -0.20 0.60 -0.75 1.05 -1.35 1.05 -0.70 0 -0.90 0.25 -0.75 0.75 0.20 0.40 0.05 0.85 -0.20 1.05 -0.30 0.15 -0.40 0.85 -0.25 1.50 0.25 0.85 0.10 1.20 -0.35 1.20 -0.55 0 -0.65 0.45 -0.35 2.05 l0.40 2.05 -1.70 -0.35 c-1.05 -0.15 -1.70 -0.10 -1.70 0.25 0 0.25 -0.35 0.50 -0.75 0.50 -0.40 0 -0.75 -0.20 -0.75 -0.50z"/>
  <path d="M26.05 27.85 c0.85 -1.60 0.95 -1.65 0.95 -0.50 0 0.60 -0.35 1.15 -0.75 1.35 -0.65 0.25 -0.70 0.10 -0.20 -0.85z"/>
  <path d="M16.30 25.75 c0.20 -0.40 0.80 -0.75 1.40 -0.75 1.05 0.05 1.05 0.05 0.10 0.75 -1.25 0.95 -1.85 0.95 -1.50 0z"/>
  <path d="M29.75 20.55 c-0.15 -0.30 -0.55 -0.40 -0.85 -0.25 -0.30 0.20 -0.45 0.05 -0.30 -0.30 0.35 -1.05 1.25 -1.15 1.60 -0.20 0.40 1 0.05 1.50 -0.45 0.75z"/>
  <path d="M14.80 11.25 c-0.20 -0.70 -0.55 -1.25 -0.80 -1.25 -0.30 0 -0.50 -0.35 -0.50 -0.75 0 -0.40 -0.20 -0.75 -0.50 -0.75 -0.25 0 -0.50 -0.45 -0.50 -1 0 -0.55 -0.20 -1 -0.50 -1 -0.25 0 -0.50 -0.50 -0.55 -1.10 0 -0.65 -0.15 -0.85 -0.30 -0.50 -0.10 0.30 -0.55 0.60 -0.95 0.60 -0.40 0 -0.70 -0.30 -0.70 -0.60 0 -0.35 -0.50 0.15 -1.15 1.10 -0.85 1.35 -1.15 1.55 -1.25 0.80 -0.25 -1.10 1.60 -3.10 3.15 -3.50 0.60 -0.15 1.25 -0.75 1.40 -1.35 0.20 -0.70 0.50 -0.90 0.90 -0.65 0.50 0.30 0.50 0.45 0.05 0.60 -0.85 0.25 -0.75 1.60 0.15 1.90 0.40 0.20 0.75 0.65 0.75 1.05 0 1.20 2.35 4.30 2.70 3.55 0.15 -0.35 0.20 0 0.05 0.75 -0.25 1.25 -0.15 1.40 0.65 1.10 0.65 -0.15 1.10 0 1.30 0.55 0.45 1.15 -0.05 1.70 -1.70 1.70 -1.05 0 -1.45 -0.30 -1.70 -1.25z"/>
  <path d="M7.50 3.20 c0 -0.80 1.10 -2.20 1.55 -1.90 0.25 0.15 0.80 0 1.20 -0.30 0.60 -0.50 0.75 -0.50 0.75 0.10 0 0.35 -0.65 1.05 -1.45 1.55 -1.50 0.90 -2.05 1.05 -2.05 0.55z"/>
 </g>
 <g fill="#81bed4">
  <path d="M26.65 19.15 c-0.80 -1.60 -0.85 -2.65 -0.15 -2.65 0.30 0 0.50 0.55 0.50 1.20 0 0.65 0.30 1.30 0.65 1.45 0.40 0.15 0.45 0.40 0.10 0.75 -0.35 0.40 -0.70 0.15 -1.10 -0.75z"/>
  <path d="M28.65 19.80 c0.25 -0.80 1.35 -0.95 1.35 -0.15 0 0.35 -0.35 0.70 -0.75 0.70 -0.45 0 -0.70 -0.25 -0.60 -0.55z"/>
  <path d="M18.70 16.30 c-0.45 -1.25 0 -3.45 0.80 -3.65 0.65 -0.20 0.65 -0.15 0 0.30 -0.75 0.50 -0.35 1.30 0.65 1.30 0.35 0 0.65 0.60 0.75 1.40 0.15 1.10 -0.05 1.35 -0.90 1.35 -0.55 0 -1.15 -0.30 -1.30 -0.70z"/>
 </g>
 <g fill="#fece5e">
  <path d="M19.15 23.70 c-0.15 -0.40 -0.05 -1 0.30 -1.35 0.40 -0.40 0.55 -0.20 0.55 0.80 0 1.50 -0.35 1.75 -0.85 0.55z"/>
  <path d="M20.50 22.50 c0 -1.10 0.25 -2 0.50 -2 0.30 0 0.50 0.90 0.50 2 0 1.10 -0.20 2 -0.50 2 -0.25 0 -0.50 -0.90 -0.50 -2z"/>
  <path d="M18.50 12.95 c0.55 -0.40 0.60 -0.60 0.15 -0.80 -0.35 -0.10 -0.65 -0.45 -0.65 -0.70 0 -0.25 0.30 -0.45 0.65 -0.45 0.30 0 1.05 -0.85 1.60 -1.85 0.55 -1 1.30 -1.95 1.70 -2.05 0.40 -0.15 0.15 0.60 -0.65 2 -0.70 1.25 -1.30 2.60 -1.30 3 0 0.45 -0.35 0.95 -0.80 1.10 -1.20 0.45 -1.55 0.35 -0.70 -0.25z"/>
  <path d="M21.75 12.15 c0.35 -1.60 2.75 -5.85 3.05 -5.50 0.25 0.25 -2.70 6.85 -3.10 6.85 -0.15 0 -0.15 -0.60 0.05 -1.35z"/>
 </g>
 <g fill="#f5b481">
  <path d="M17.85 37.65 c-0.15 -0.25 -0.05 -0.85 0.20 -1.40 0.35 -0.85 0.40 -0.85 0.40 0.40 0.05 1.35 -0.20 1.70 -0.60 1z"/>
  <path d="M25.70 36.25 c-0.30 -0.95 -0.35 -1.60 -0.15 -1.50 0.50 0.35 1.45 3.25 1.05 3.25 -0.20 0 -0.60 -0.80 -0.90 -1.75z"/>
  <path d="M18.05 33.90 c-0.05 -0.75 -0.25 -1.50 -0.55 -1.65 -0.85 -0.55 -0.55 -1.15 0.80 -1.45 0.75 -0.20 1.55 -0.15 1.85 0.15 0.35 0.35 0.10 0.40 -0.65 0.20 -1 -0.25 -1.10 -0.15 -0.85 0.90 0.15 0.65 0.05 1.65 -0.15 2.20 -0.40 0.90 -0.45 0.85 -0.45 -0.35z"/>
  <path d="M17.25 27.50 c-0.20 -0.30 0.30 -0.50 1.10 -0.50 1.10 0 1.25 0.10 0.65 0.50 -0.95 0.60 -1.35 0.60 -1.75 0z"/>
  <path d="M16.30 25.75 c0.20 -0.40 0.60 -0.75 1 -0.75 0.95 0 0.90 0.80 -0.10 1.20 -1.10 0.45 -1.20 0.40 -0.90 -0.45z"/>
  <path d="M19.10 24.40 c0.05 -1.65 0.75 -1.85 1.05 -0.25 0.15 0.65 0.25 0.40 0.30 -0.75 0.05 -2.50 1.05 -2.45 1.05 0.05 0 1.65 -0.20 1.95 -1.20 2.15 -1.10 0.20 -1.20 0.05 -1.20 -1.20z"/>
 </g>
 <g fill="#bcc2b8">
  <path d="M17.35 32.20 c-0.60 -0.65 -0.40 -0.95 1.15 -1.60 0.85 -0.40 1.50 -0.90 1.50 -1.15 0 -0.60 -0.85 -0.60 -1.25 0.05 -0.50 0.80 -1.25 0.60 -0.95 -0.25 0.20 -0.40 0.05 -1.10 -0.30 -1.50 -0.55 -0.65 -0.40 -0.75 0.70 -0.75 1.15 0 1.30 -0.15 1.05 -1 -0.40 -1.30 0.20 -2.40 0.80 -1.45 0.30 0.45 0.45 -0.15 0.45 -1.65 0 -2.25 -0.60 -3.45 -1.25 -2.40 -1.05 1.65 -3.70 -0.65 -3.90 -3.45 -0.10 -1.20 -0.25 -1.30 -0.95 -0.85 -1.10 0.70 -1.55 2.60 -0.90 3.85 0.30 0.55 0.50 1.40 0.40 1.85 -0.15 0.55 -0.70 -0.15 -1.55 -1.90 l-1.30 -2.75 0.25 3 c0.25 2.60 0.50 3.20 2 4.50 0.95 0.85 1.70 1.75 1.70 2.05 0 1.45 -1.55 0.90 -3.70 -1.20 -2.35 -2.30 -2.40 -2.35 -2.05 -4.60 0.25 -1.25 0.40 -2.90 0.40 -3.65 0 -1 0.10 -1.20 0.40 -0.75 0.50 0.75 0.50 0.70 0.70 -1.55 0.10 -0.95 -0.05 -1.40 -0.25 -1.05 -0.25 0.40 -0.50 -0.45 -0.65 -2.05 -0.15 -1.50 -0.40 -3.30 -0.60 -4.10 -0.30 -1.15 -0.20 -1.35 0.65 -1.35 1.15 0 1.60 0.90 1.60 3.10 0 1.15 0.20 1.45 0.80 1.20 0.45 -0.15 1.10 -0.30 1.50 -0.30 0.40 0 0.70 -0.45 0.70 -1.05 0 -1.15 -1.10 -2.45 -2.05 -2.45 -0.30 0 -1.15 -0.60 -1.80 -1.35 -0.95 -0.95 -1.35 -1.15 -1.65 -0.65 -0.20 0.35 -0.70 0.50 -1.05 0.40 -0.90 -0.30 2.50 -2.45 3.50 -2.30 0.40 0.10 1.45 1.40 2.35 2.90 0.90 1.50 1.90 2.70 2.20 2.60 0.30 -0.05 0.45 0.10 0.25 0.40 -0.20 0.30 -0.20 0.90 0 1.40 0.25 0.70 0.35 0.70 0.80 0.10 0.40 -0.55 0.60 -0.60 0.80 -0.10 0.10 0.30 0.55 0.60 0.95 0.60 0.40 0 0.70 0.25 0.70 0.55 0 0.30 -0.45 0.45 -1 0.30 -1.25 -0.30 -1.25 -0.30 0.25 1.45 0.70 0.80 1.25 1.75 1.25 2.10 0 0.30 0.25 0.60 0.50 0.60 0.30 0 0.50 0.70 0.50 1.50 0 0.85 0.20 1.50 0.40 1.50 0.70 0 1.60 -1.15 1.60 -2.10 0 -1.35 0.70 -1.10 1.40 0.60 0.85 1.90 2.05 2 1.75 0.15 l-0.15 -1.40 0.60 1.25 c0.35 0.70 0.80 1.40 1 1.55 0.40 0.30 -0.65 2.95 -1.15 2.95 -0.20 0 -0.45 -0.35 -0.65 -0.75 -0.15 -0.40 -0.60 -0.60 -1.05 -0.45 -0.50 0.20 -0.75 0 -0.75 -0.50 0 -1.50 -0.85 -0.80 -1.45 1.15 -0.30 1.10 -0.55 2.15 -0.50 2.40 0.30 1.70 -0.15 3.65 -0.80 3.65 -1.05 0 -0.95 1.95 0.15 3.15 0.85 1 0.80 1 -0.85 0.70 -1.25 -0.25 -1.85 -0.15 -2.25 0.45 -0.30 0.40 -0.75 0.60 -0.95 0.40z"/>
  <path d="M7.60 2.80 c0.30 -0.70 0.85 -1.30 1.20 -1.30 0.35 0 0.95 -0.15 1.40 -0.30 1.60 -0.60 0.75 0.65 -1.20 1.75 l-2 1.10 0.60 -1.25z"/>
 </g>
 <g fill="#d2d8d0">
  <path d="M20.15 26.70 c-0.15 -0.40 -0.05 -1 0.30 -1.35 0.30 -0.30 0.55 -1 0.55 -1.55 0 -0.60 0.25 -1.40 0.50 -1.80 0.35 -0.55 0.45 0.10 0.45 2.10 -0.05 1.95 -0.30 2.95 -0.80 3.10 -0.35 0.15 -0.80 -0.05 -1 -0.50z"/>
  <path d="M13.40 26.65 c-0.50 -0.10 -0.90 -0.55 -0.90 -0.95 0 -0.40 -0.25 -0.60 -0.55 -0.45 -0.80 0.50 -2.95 -1.75 -2.95 -3.10 0 -1.80 0.60 -1.55 2.40 1.10 0.20 0.30 1.10 1.05 2 1.70 0.85 0.60 1.60 1.35 1.60 1.60 0 0.45 -0.20 0.50 -1.60 0.10z"/>
  <path d="M16.75 19.50 c-0.50 -0.55 -0.90 -1.80 -0.95 -2.90 -0.05 -1.95 -0.05 -1.95 -1.15 -1.15 -0.60 0.45 -1.25 1.55 -1.45 2.40 -0.35 1.75 -1.20 1.80 -1.20 0.05 0 -0.65 -0.25 -0.90 -0.75 -0.75 -0.55 0.25 -0.60 0.05 -0.25 -0.95 0.65 -1.70 0.65 -4.25 0 -3.20 -0.40 0.65 -0.50 0.65 -0.70 0 -0.40 -1.20 -0.90 -4.60 -0.95 -6.55 l-0.05 -1.80 -0.95 1.20 c-1.15 1.40 -1.70 1.20 -0.85 -0.35 0.30 -0.60 1.35 -1.40 2.30 -1.80 1.55 -0.65 1.85 -0.65 2.60 0.10 0.45 0.50 0.75 0.90 0.60 0.90 -0.10 0.05 0.50 1.10 1.40 2.40 0.90 1.30 1.60 2.50 1.60 2.75 0.05 0.70 2.55 3.30 2.85 2.95 0.20 -0.20 -0.15 -0.65 -0.75 -1.10 -1.50 -1.05 -1.40 -1.75 0.20 -1.05 1 0.50 1.20 0.85 1 1.90 -0.15 0.95 0.05 1.60 0.70 2.20 0.55 0.50 1 1.55 1 2.35 0 1.40 -0.70 1.90 -1.15 0.80 -0.15 -0.35 -0.50 0.10 -0.85 1 -0.70 1.85 -1 1.95 -2.25 0.60z m-1.75 -6.75 c0 -0.40 -0.20 -0.75 -0.50 -0.75 -0.25 0 -0.50 0.35 -0.50 0.75 0 0.40 0.25 0.75 0.50 0.75 0.30 0 0.50 -0.35 0.50 -0.75z"/>
  <path d="M26.25 19.50 c-0.15 -0.25 0.15 -0.50 0.75 -0.50 0.60 0 0.90 0.25 0.75 0.50 -0.15 0.30 -0.50 0.50 -0.75 0.50 -0.25 0 -0.60 -0.20 -0.75 -0.50z"/>
  <path d="M23 17 c0 -0.55 0.25 -1 0.50 -1 0.30 0 0.50 0.45 0.50 1 0 0.55 -0.20 1 -0.50 1 -0.25 0 -0.50 -0.45 -0.50 -1z"/>
  <path d="M7.60 2.90 c0.25 -0.75 2.50 -1.95 2.90 -1.60 0.30 0.35 -1.90 2.20 -2.60 2.20 -0.25 0 -0.40 -0.30 -0.30 -0.60z"/>
 </g>
 <g fill="#fadbb5">
  <path d="M18.15 35.25 c0 -1.35 0.10 -1.90 0.20 -1.10 0.10 0.75 0.10 1.85 0 2.50 -0.10 0.60 -0.20 0 -0.20 -1.40z"/>
  <path d="M17.30 32.15 c-0.55 -0.55 -0.30 -1.15 0.45 -1.15 0.40 0 0.75 0.20 0.75 0.45 0 0.65 -0.80 1.10 -1.20 0.70z"/>
  <path d="M20.50 17.05 c0 -0.35 -0.25 -0.45 -0.50 -0.30 -0.80 0.50 -2 -0.70 -1.65 -1.65 0.30 -0.75 0.25 -0.75 -0.50 -0.15 -0.75 0.60 -0.85 0.55 -0.85 -0.15 0 -0.45 0.30 -0.80 0.65 -0.80 0.35 -0.05 0.20 -0.35 -0.35 -0.75 -0.65 -0.50 -0.85 -1.05 -0.60 -1.95 0.25 -1.10 0.40 -1.15 1.55 -0.65 1.40 0.70 2.05 1.85 1.25 2.35 -0.40 0.25 -0.20 0.95 0.55 2.20 0.60 1 0.95 2 0.75 2.15 -0.15 0.20 -0.30 0.05 -0.30 -0.30z m-1.50 -4.35 c0 -0.35 -1.35 -1.70 -1.70 -1.70 -0.20 0 -0.05 0.45 0.30 1 0.60 0.95 1.40 1.35 1.40 0.70z"/>
  <path d="M23 16.80 c0 -0.40 0.25 -0.90 0.50 -1.05 0.30 -0.15 0.50 0.15 0.50 0.70 0 0.60 -0.20 1.05 -0.50 1.05 -0.25 0 -0.50 -0.30 -0.50 -0.70z"/>
  <path d="M7.60 5.40 c0.25 -0.80 3.50 -2.50 3.85 -2.05 0.20 0.15 0 0.40 -0.30 0.50 -0.35 0.15 -0.65 0.65 -0.65 1.20 0 0.50 -0.25 0.95 -0.55 0.95 -0.30 0 -0.45 -0.35 -0.25 -0.75 0.15 -0.40 0.05 -0.75 -0.25 -0.75 -0.25 0 -0.60 0.35 -0.75 0.75 -0.35 0.90 -1.35 1 -1.10 0.15z"/>
  <path d="M7.50 3.10 c0 -0.65 1.15 -1.60 1.90 -1.60 0.35 0 0.60 0.25 0.50 0.60 -0.25 0.65 -2.40 1.55 -2.40 1z"/>
 </g>
 <g fill="#eceee6">
  <path d="M16.50 17.30 c-0.55 -1.45 -0.05 -3.05 1.10 -3.40 0.40 -0.15 0.20 -0.50 -0.55 -0.85 -1.05 -0.60 -1.15 -0.55 -0.90 0.20 0.25 0.55 0.15 0.75 -0.25 0.60 -0.35 -0.10 -0.60 -0.65 -0.55 -1.15 0.10 -0.50 -0.05 -1.40 -0.30 -1.95 -0.25 -0.55 -0.60 -1.55 -0.75 -2.25 l-0.25 -1.25 0.95 1.25 c0.55 0.70 1 1.40 1 1.60 0 0.20 0.70 1.05 1.50 1.80 1.75 1.70 1.85 2.15 0.50 3 -0.85 0.50 -0.90 0.75 -0.40 1.60 0.50 0.75 0.50 1.10 0.05 1.55 -0.50 0.50 -0.75 0.30 -1.15 -0.75z"/>
  <path d="M20.50 17.35 c0 -0.50 -0.30 -0.70 -0.65 -0.55 -0.85 0.30 -2.10 -1.10 -1.40 -1.50 0.25 -0.20 0.60 -0.10 0.80 0.20 0.20 0.30 0.50 0.40 0.75 0.25 0.50 -0.30 1.25 1.70 0.80 2.10 -0.15 0.20 -0.30 -0.05 -0.30 -0.50z"/>
  <path d="M12 11.50 c0 -2.20 -0.20 -4 -0.45 -4 -0.25 0 -0.55 -0.50 -0.70 -1.10 -0.10 -0.65 -0.10 0.60 -0.05 2.75 0.10 2.20 -0.05 3.85 -0.35 3.85 -0.25 0 -0.45 -0.80 -0.45 -1.75 0 -0.95 -0.25 -2.30 -0.60 -3 -0.40 -0.95 -0.40 -1.55 0 -2.50 0.75 -1.65 0.15 -1.60 -1.25 0.15 -0.60 0.75 -1.10 1.05 -1.15 0.70 0 -0.85 2.25 -2.90 3.50 -3.25 0.55 -0.15 1.25 0.10 1.60 0.55 0.45 0.50 0.45 0.65 0.05 0.45 -0.30 -0.20 -0.70 -0.15 -0.90 0.15 -0.15 0.25 0.25 0.60 0.95 0.80 1.30 0.30 2.05 1.50 1.30 1.95 -0.65 0.40 -0.65 2.25 0 2.25 0.30 0 0.50 0.95 0.40 2.25 -0.10 1.75 -0.30 2.20 -0.90 2 -0.60 -0.25 -0.65 -0.20 -0.10 0.30 0.80 0.85 0.75 1.45 -0.15 1.45 -0.60 0 -0.75 -0.80 -0.75 -4z"/>
  <path d="M7.50 3.05 c0 -0.55 1.15 -1.55 1.85 -1.55 0.95 0 0.20 1.35 -0.90 1.65 -0.50 0.15 -0.95 0.10 -0.95 -0.10z"/>
 </g>
</svg>