<?xml version="1.0" encoding="utf-8"?>
<!DOCTYPE svg PUBLIC "-//W3C//DTD SVG 1.0//EN" "http://www.w3.org/TR/2001/REC-SVG-20010904/DTD/svg10.dtd">
<svg version="1.0" xmlns="http://www.w3.org/2000/svg" width="40px" height="40px" viewBox="0 0 40 40" preserveAspectRatio="xMidYMid meet">
 <g fill="#050509">
  <path d="M24.50 39.05 c0 -1.35 0.75 -1.70 2.80 -1.35 1.95 0.40 2.30 1.30 0.45 1.30 -0.70 0 -1.25 0.25 -1.25 0.50 0 0.30 -0.45 0.50 -1 0.50 -0.65 0 -1 -0.35 -1 -0.95z"/>
  <path d="M14.50 38.50 c0 -0.30 0.55 -0.80 1.25 -1.10 0.70 -0.30 1.40 -1.10 1.55 -1.75 0.20 -0.65 0.65 -1.15 1.05 -1.15 0.55 0 0.65 0.55 0.55 2.15 -0.15 2.10 -0.15 2.10 -2.25 2.25 -1.30 0.10 -2.15 -0.05 -2.15 -0.40z"/>
  <path d="M18 31.75 c0 -1.65 0.10 -1.75 1.75 -1.75 1.40 0 1.75 0.20 1.75 1 0 0.55 -0.30 1 -0.70 1 -0.35 0 -0.95 0.35 -1.30 0.75 -1 1.20 -1.50 0.85 -1.50 -1z"/>
  <path d="M24 32.25 c0 -0.40 -0.20 -0.75 -0.50 -0.75 -0.25 0 -0.50 -0.45 -0.50 -1 0 -0.80 0.35 -1 1.55 -1 1.30 0 1.50 0.15 1.20 0.90 -0.20 0.45 -0.50 1.25 -0.60 1.75 -0.30 1.05 -1.15 1.15 -1.15 0.10z"/>
  <path d="M17 31.45 c0 -0.35 -0.50 -0.45 -1.25 -0.25 -0.70 0.20 -1.25 0.10 -1.25 -0.15 0 -0.25 -0.15 -0.80 -0.30 -1.25 -0.25 -0.65 0.05 -0.80 1.50 -0.80 1.65 0 1.80 0.10 1.80 1.50 0 0.85 -0.10 1.50 -0.25 1.50 -0.15 0 -0.25 -0.25 -0.25 -0.55z"/>
  <path d="M29.50 23.85 c0 -1.50 0.20 -1.85 1 -1.85 0.65 0 1 0.35 1 0.90 0 0.55 -0.45 1.35 -1 1.85 -1 0.90 -1 0.85 -1 -0.90z"/>
  <path d="M8.90 18.65 c-0.30 -1.40 0.10 -2.65 0.90 -2.65 0.45 0 0.70 0.55 0.70 1.75 0 1.85 -1.20 2.50 -1.60 0.90z"/>
  <path d="M16.50 12.25 c0 -1.65 0.10 -1.75 1.75 -1.75 1.65 0 1.75 0.10 1.75 1.75 0 1.65 -0.10 1.75 -1.75 1.75 -1.65 0 -1.75 -0.10 -1.75 -1.75z"/>
  <path d="M6.75 5.15 c0.15 -2.50 0.05 -2.35 1.55 -3.85 1.55 -1.55 3 -1.65 4.60 -0.35 1.55 1.35 1.40 1.55 -1.15 1.55 -2.20 0 -2.25 0.05 -2.25 1.65 0 1.95 -0.40 2.55 -1.80 2.75 -0.95 0.10 -1.05 -0.10 -0.95 -1.75z"/>
  <path d="M13.50 4.60 c0 -0.55 0.35 -0.90 0.95 -0.90 0.65 0 0.95 0.35 0.90 0.90 -0.05 0.50 -0.45 0.90 -0.95 0.90 -0.55 0 -0.90 -0.35 -0.90 -0.90z"/>
  <path d="M32.40 4.15 c-0.50 -0.10 -0.90 -0.55 -0.90 -0.90 0 -0.90 1.30 -0.45 1.70 0.55 0.15 0.40 0.20 0.65 0.15 0.65 -0.05 -0.05 -0.50 -0.15 -0.95 -0.30z"/>
 </g>
 <g fill="#1f1919">
  <path d="M17.20 39.45 c-0.15 -0.30 -0.85 -0.45 -1.55 -0.30 -0.90 0.15 -1.15 0 -1.05 -0.60 0.10 -0.45 0.70 -0.85 1.30 -0.95 0.65 -0.10 1.30 -0.50 1.45 -0.90 0.40 -1.05 1.50 -0.85 1.80 0.35 0.15 0.55 0.75 1.15 1.30 1.30 0.60 0.15 1.05 0.60 1.05 0.95 0 0.85 -3.75 1 -4.30 0.15z"/>
  <path d="M24.35 39.65 c-0.65 -0.60 -0.35 -1.40 0.65 -2.05 0.90 -0.55 1 -0.50 1 0.90 0 1.40 -0.85 2 -1.65 1.15z"/>
  <path d="M17.50 32.25 l0 -2.25 2.45 0 c1.35 0 2.55 -0.25 2.65 -0.55 0.10 -0.25 1.15 -0.65 2.30 -0.80 l2.15 -0.30 -0.90 1.55 c-0.50 0.85 -1.05 1.45 -1.20 1.30 -0.20 -0.10 -0.25 0.25 -0.10 0.80 0.15 0.55 0 1 -0.30 1 -0.30 0 -0.55 -0.35 -0.55 -0.75 0 -0.50 -0.55 -0.70 -2.20 -0.60 -1.20 0.05 -2.20 0.20 -2.20 0.35 0.05 0.95 -0.85 2.50 -1.40 2.50 -0.50 0 -0.70 -0.65 -0.70 -2.25z"/>
  <path d="M13.70 29.05 c-0.50 -0.80 -1.40 -1.75 -2.05 -2.10 -0.65 -0.35 -1.15 -0.75 -1.15 -0.95 0 -0.15 -0.50 -0.85 -1.05 -1.45 -0.95 -1 -1.05 -1.50 -0.75 -4.45 0.45 -4.55 0.80 -5.60 1.65 -5.60 0.70 0 0.75 0.60 0.45 4.20 -0.30 3.50 -0.20 4.20 0.45 4.45 0.40 0.20 0.75 0.80 0.75 1.35 0 0.65 0.35 1 1 1 0.55 0 1 0.35 1 0.75 0 0.40 0.35 0.75 0.75 0.75 0.50 0 0.75 0.55 0.75 1.75 0 2.15 -0.65 2.25 -1.80 0.30z"/>
  <path d="M29.25 22.90 c0.25 -2.30 0.15 -3.40 -0.20 -3.40 -0.35 0 -0.55 -1.40 -0.55 -3.75 0 -3.45 0.10 -3.75 1.05 -3.75 0.95 0 1 0.20 0.70 1.90 -0.15 1.10 -0.05 2.50 0.30 3.35 0.30 0.85 0.65 2.55 0.75 3.85 0.15 1.95 -0.05 2.60 -1.10 3.75 l-1.25 1.40 0.30 -3.35z"/>
  <path d="M17 13 c0 -0.95 -0.25 -1.50 -0.70 -1.50 -0.70 0 -1.30 -1.45 -1.30 -3.35 0 -0.70 -0.30 -1.15 -0.75 -1.15 -0.40 0 -0.75 -0.45 -0.75 -1 0 -0.75 -0.35 -1 -1.25 -1 -1 0 -1.25 -0.25 -1.25 -1.25 0 -2.10 -1.70 -1.35 -2.30 1 -0.20 0.85 -0.80 2.20 -1.30 3 l-0.90 1.50 0 -1.40 c0 -0.75 0.40 -2 0.85 -2.75 0.85 -1.30 0.85 -1.30 0 -0.65 -0.60 0.50 -0.85 0.50 -0.85 0.05 0 -1 1.65 -3.50 2.35 -3.50 0.35 0 0.65 -0.20 0.65 -0.50 0 -0.25 0.55 -0.50 1.25 -0.50 0.70 0 1.25 0.20 1.25 0.50 0 0.25 0.55 0.60 1.25 0.80 1 0.25 1.15 0.45 0.70 1 -0.65 0.75 -0.20 1.70 0.85 1.70 0.40 0 0.65 0.15 0.60 0.40 -0.20 0.55 2.05 5.50 2.65 5.90 0.35 0.20 0.75 0.05 1 -0.35 1.75 -2.90 2.20 -2.55 1.70 1.50 l-0.35 3.05 -1.70 0 c-1.55 0 -1.70 -0.15 -1.70 -1.50z"/>
  <path d="M9.40 10.50 c-0.15 -1.80 -0.05 -2 0.95 -2 1 0 1.15 0.25 1.15 2 0 1.65 -0.20 2 -0.95 2 -0.75 0 -1 -0.45 -1.15 -2z"/>
  <path d="M21 7.05 c0 -0.30 0.55 -1.15 1.25 -1.90 l1.20 -1.40 0.05 1.90 c0 1.65 -0.15 1.85 -1.25 1.85 -0.70 0 -1.25 -0.20 -1.25 -0.45z"/>
  <path d="M30 3.25 c0 -0.50 -0.55 -0.75 -1.75 -0.75 -2.20 0 -2.30 -1 -0.20 -1.95 1.55 -0.65 1.65 -0.65 3.25 1.10 0.95 1 1.70 1.90 1.70 2.05 0 0.15 -0.65 0.30 -1.50 0.30 -1 0 -1.50 -0.25 -1.50 -0.75z"/>
 </g>
 <g fill="#372e2c">
  <path d="M18 39.50 c0 -0.25 -0.55 -0.60 -1.25 -0.80 -1.50 -0.35 -1.60 -1 -0.25 -1.35 0.60 -0.15 1 -0.70 1 -1.30 0 -0.60 0.30 -1.05 0.75 -1.05 0.50 0 0.75 0.50 0.75 1.45 0 1.30 1.05 2.35 2.15 2.15 0.20 -0.05 0.35 0.25 0.35 0.65 0 0.50 -0.55 0.75 -1.75 0.75 -0.95 0 -1.75 -0.20 -1.75 -0.50z"/>
  <path d="M24.30 39.05 c-0.15 -0.25 0.05 -0.75 0.50 -1.10 0.70 -0.60 0.70 -1.55 -0.10 -3.65 -0.20 -0.50 -0.05 -0.80 0.40 -0.80 0.40 0 1.05 0.90 1.40 2 0.40 1.15 1.05 2.25 1.45 2.50 0.45 0.25 0.70 0.50 0.55 0.65 -0.55 0.50 -3.95 0.85 -4.20 0.40z"/>
  <path d="M17.50 31.25 l0 -1.80 2.30 0.10 c1.25 0.10 2.45 -0.05 2.60 -0.35 0.65 -0.90 2.60 -1.70 4.15 -1.70 l1.55 0 -1.45 1.65 c-0.80 1 -1.70 1.60 -2.15 1.45 -0.60 -0.20 -0.65 -0.10 -0.10 0.45 0.70 0.80 0.80 1.95 0.10 1.95 -0.25 0 -0.50 -0.35 -0.50 -0.75 0 -0.55 -0.60 -0.70 -2.45 -0.60 -1.35 0.05 -2.45 0.30 -2.40 0.55 0.05 0.30 -0.30 0.60 -0.75 0.70 -0.75 0.15 -0.90 -0.15 -0.90 -1.65z"/>
  <path d="M14.30 30.20 c-0.35 -1.30 -2.40 -3.70 -3.20 -3.70 -0.20 0 -0.60 -0.55 -0.95 -1.25 -0.50 -1.15 -0.45 -1.25 0.70 -1.25 1.25 0 2.65 1 2.65 1.95 0 0.30 0.35 0.55 0.75 0.55 0.40 0 0.75 0.25 0.75 0.55 0 0.30 0.35 0.85 0.75 1.25 0.85 0.90 1.05 2.95 0.20 2.40 -0.30 -0.15 -0.75 -0.05 -0.95 0.30 -0.25 0.40 -0.50 0.10 -0.70 -0.80z"/>
  <path d="M28.50 24.90 c0 -1.05 0.25 -1.90 0.50 -1.90 0.30 0 0.50 -0.65 0.50 -1.50 0 -1 -0.25 -1.50 -0.75 -1.50 -0.55 0 -0.75 -0.55 -0.75 -2 0 -1.65 0.15 -2 1 -2 0.65 0 1 0.35 1 0.95 0 0.55 0.20 1.05 0.45 1.15 0.20 0.10 0.55 1.30 0.75 2.65 0.30 2.30 0.20 2.70 -1.20 4.25 l-1.45 1.75 -0.05 -1.85z"/>
  <path d="M8.70 20.40 c0.20 -0.90 0.50 -3.20 0.60 -5.15 0.15 -1.90 0.35 -3.80 0.45 -4.10 0.10 -0.35 -0.20 -1.55 -0.70 -2.65 -0.65 -1.50 -1 -1.85 -1.45 -1.40 -0.45 0.45 -0.60 0.40 -0.60 -0.20 0 -1.65 0.60 -2.40 2 -2.40 1.80 0 2.20 1.50 2.15 8.70 -0.10 7.15 -0.40 8.80 -1.75 8.80 -0.90 0 -1 -0.20 -0.70 -1.60z"/>
  <path d="M20 18.60 c0 -0.75 0.30 -2 0.65 -2.75 0.45 -1.05 0.95 -1.35 2.25 -1.35 1.50 0 1.60 0.10 1.60 1.80 0 2.70 -0.75 3.70 -2.75 3.70 -1.60 0 -1.75 -0.15 -1.75 -1.40z"/>
  <path d="M28.50 13.25 c0 -1.40 0.20 -1.75 1 -1.75 1.05 0 1.20 0.50 0.70 2.40 -0.50 1.80 -1.70 1.35 -1.70 -0.65z"/>
  <path d="M16.50 10.70 c0 -1.35 -0.20 -1.70 -1 -1.70 -0.75 0 -1.10 -0.45 -1.30 -1.50 -0.20 -0.80 -0.75 -1.60 -1.25 -1.75 -0.55 -0.20 -0.95 -0.55 -0.95 -0.80 0 -0.25 -0.35 -0.45 -0.75 -0.45 -0.50 0 -0.75 -0.55 -0.75 -1.75 0 -1.50 0.15 -1.75 1.20 -1.75 1.50 0 2.10 0.80 1.35 1.70 -0.45 0.55 -0.30 0.75 0.55 0.95 0.75 0.20 1.55 1.15 2.30 2.80 0.60 1.35 1.10 2.60 1.10 2.80 0 0.20 0.40 0.65 0.85 1 0.70 0.55 1 0.50 1.50 -0.20 0.55 -0.70 0.60 -0.60 0.65 0.80 0 1.45 -0.10 1.55 -1.75 1.55 -1.65 0 -1.75 -0.10 -1.75 -1.70z"/>
  <path d="M28.30 9.20 c-0.15 -0.45 -0.30 -1.80 -0.30 -3 0 -2.10 0.05 -2.20 1.50 -2.20 1.50 0 1.50 0 0.75 1.20 -0.65 0.95 -0.70 1.45 -0.30 2.25 0.30 0.55 0.55 1.35 0.55 1.75 0 1.05 -1.80 1.05 -2.20 0z"/>
  <path d="M28.50 1.25 c0 -1.50 1 -1.65 2.15 -0.35 1.20 1.30 1.05 1.60 -0.65 1.60 -1.25 0 -1.50 -0.20 -1.50 -1.25z"/>
 </g>
 <g fill="#704514">
  <path d="M24.75 34.40 c-0.35 -0.90 -0.60 -1.75 -0.45 -1.85 0.40 -0.40 1.60 1.05 1.85 2.20 0.30 1.80 -0.60 1.55 -1.40 -0.35z"/>
  <path d="M28.05 15.15 c0.05 -2.15 -0.05 -5.40 -0.30 -7.25 -0.30 -2.50 -0.25 -3.40 0.20 -3.40 0.45 0 0.40 -0.20 -0.05 -0.70 -0.55 -0.60 -0.70 -0.60 -1.05 0 -0.20 0.40 -0.75 0.70 -1.10 0.70 -0.40 0 -0.75 0.35 -0.75 0.80 0 0.45 -0.45 0.90 -1 1.05 -0.55 0.15 -1 0.70 -1 1.20 0 0.55 -0.20 0.95 -0.45 0.95 -0.25 0 -0.60 0.55 -0.75 1.25 -0.25 0.90 -0.65 1.25 -1.55 1.25 -0.70 0 -1.25 -0.10 -1.25 -0.25 0 -0.60 1.20 -2.75 1.60 -2.75 0.20 0 0.40 -0.35 0.40 -0.80 0 -1.15 5.25 -6.20 6.45 -6.20 0.60 0 1.05 -0.20 1.05 -0.50 0 -1 1.10 -0.50 2.80 1.25 1.95 2.05 2.05 2.25 0.80 2.25 -0.55 0 -1.35 0.45 -1.85 1 -0.85 0.90 -0.85 1.25 -0.30 2.80 0.60 1.65 0.45 7.30 -0.25 9.80 -0.20 0.65 -0.05 0.80 0.50 0.60 0.45 -0.15 0.80 -0.05 0.80 0.25 0 0.30 -0.70 0.55 -1.55 0.55 l-1.55 0 0.15 -3.85z"/>
 </g>
 <g fill="#4a493d">
  <path d="M19 39 c0 -1.20 0.30 -1.25 1.30 -0.30 0.95 1 0.90 1.30 -0.30 1.30 -0.65 0 -1 -0.35 -1 -1z"/>
  <path d="M24.30 39.25 c-0.15 -0.45 0.05 -0.90 0.45 -1.05 0.40 -0.20 0.75 -0.70 0.75 -1.15 0 -0.60 -1.20 -4.65 -1.75 -5.90 -0.05 -0.10 -0.80 0.10 -1.75 0.35 -1.20 0.35 -1.90 0.30 -2.45 -0.15 -0.60 -0.50 -0.70 -0.45 -0.45 0.20 0.15 0.45 0.10 1.10 -0.15 1.50 -0.30 0.50 -0.45 0.50 -0.45 0.10 0 -0.35 -0.35 -0.65 -0.75 -0.65 -0.40 0 -0.75 -0.35 -0.75 -0.75 0 -0.40 -0.55 -0.85 -1.25 -1.05 -0.65 -0.15 -1.35 -0.70 -1.50 -1.25 -0.15 -0.50 -0.90 -1.45 -1.65 -2.05 -0.75 -0.65 -1.65 -1.55 -2.05 -2.05 -0.60 -0.75 -0.50 -0.85 0.90 -0.85 1.20 0 1.55 0.20 1.55 0.95 0 0.75 0.50 1 3 1.25 2.90 0.35 3 0.40 3 1.85 l0 1.45 2.85 -0.30 c2.05 -0.25 2.70 -0.20 2.45 0.20 -0.20 0.35 0.05 1.45 0.60 2.50 1.05 2 1.85 3.80 2.30 5.25 0.15 0.50 0.50 0.75 0.80 0.60 0.25 -0.15 0.50 -0.05 0.50 0.20 0 0.30 -0.55 0.55 -1.25 0.55 -0.70 0 -1.25 0.25 -1.25 0.50 0 0.80 -1.35 0.60 -1.70 -0.25z"/>
  <path d="M17.70 38.95 c-0.15 -0.30 -0.85 -0.45 -1.55 -0.30 -0.75 0.15 -1.10 0 -1 -0.35 0.10 -0.30 0.65 -0.60 1.25 -0.70 0.60 -0.10 1.10 -0.50 1.10 -0.90 0 -0.40 0.25 -0.70 0.50 -0.70 0.30 0 0.50 0.80 0.50 1.75 0 1.80 -0.20 2.15 -0.80 1.20z"/>
  <path d="M27 26.80 c0 -1.45 0.20 -1.80 1 -1.80 0.90 0 1 -0.35 1.05 -4.35 0.05 -2.45 0.20 -3.90 0.30 -3.30 0.15 0.70 0.45 1 0.95 0.80 0.55 -0.20 0.70 0.30 0.70 2.60 0 2.30 -0.25 3.20 -1.50 5 -2.05 2.95 -2.50 3.15 -2.50 1.05z"/>
  <path d="M9.15 19.25 c0.30 -0.95 0.80 -1.75 1.20 -1.75 0.40 0 0.65 0.65 0.65 1.75 0 1.50 -0.15 1.75 -1.20 1.75 -1.15 0 -1.20 -0.10 -0.65 -1.75z"/>
  <path d="M20.50 17.25 c0 -0.95 0.25 -1.75 0.50 -1.75 0.30 0 0.50 -0.55 0.50 -1.25 0 -1.10 0.20 -1.25 1.75 -1.25 1.65 0 1.75 0.10 1.75 1.75 0 0.95 -0.20 1.75 -0.50 1.75 -0.25 0 -0.50 0.55 -0.50 1.25 0 1.10 -0.20 1.25 -1.75 1.25 -1.65 0 -1.75 -0.10 -1.75 -1.75z"/>
  <path d="M15 8.75 c0 -2.10 0.80 -2.30 1.65 -0.35 0.30 0.75 0.80 1.50 1.10 1.70 0.25 0.20 -0.25 0.40 -1.10 0.40 -1.55 0 -1.65 -0.10 -1.65 -1.75z"/>
  <path d="M6.75 7.25 c0.15 -0.80 0.35 -1.85 0.40 -2.30 0.05 -0.50 0.65 -0.80 1.75 -0.85 1.65 -0.15 1.65 -0.10 1.50 1.75 -0.10 1.30 -0.40 1.90 -0.90 1.90 -0.45 0 -0.70 -0.40 -0.65 -1 0.05 -0.85 -0.15 -0.75 -1.20 0.50 l-1.25 1.50 0.35 -1.50z"/>
  <path d="M11.25 2.95 c-0.20 -1.35 -0.20 -2.65 -0.05 -2.80 0.15 -0.20 0.30 -0.05 0.30 0.25 0 0.35 0.35 0.60 0.75 0.60 0.90 0 1 1.35 0.15 1.65 -0.35 0.10 0.10 0.55 1 1.05 2.05 1.05 2.05 1.80 -0.10 1.80 -1.65 0 -1.70 -0.05 -2.05 -2.55z"/>
  <path d="M25.65 2.15 c1.15 -1.20 2.85 -1.20 2.85 -0.05 0 0.70 -0.40 0.90 -1.85 0.90 -1.75 0 -1.80 -0.05 -1 -0.85z"/>
 </g>
 <g fill="#405468">
  <path d="M24.50 39 c0 -0.55 0.25 -1 0.50 -1 0.30 0 0.50 -0.35 0.50 -0.75 0 -0.40 0.35 -0.75 0.75 -0.75 0.95 0 1 1.85 0.05 2.80 -1 1 -1.80 0.85 -1.80 -0.30z"/>
  <path d="M15.05 38.20 c0.30 -0.40 0.95 -0.65 1.40 -0.60 0.65 0.15 0.80 -0.45 0.95 -3.45 l0.15 -3.65 1.70 0 c0.95 0 1.75 0.25 1.75 0.55 0 0.30 -0.40 0.45 -0.90 0.35 -0.95 -0.25 -0.95 -0.35 -1.25 5.60 -0.05 1.15 -0.95 1.75 -2.75 1.85 -1.35 0.05 -1.55 -0.05 -1.05 -0.65z"/>
  <path d="M25.50 26.80 c0 -0.95 0.25 -1.90 0.50 -2.05 0.30 -0.15 0.50 -1.30 0.50 -2.55 0 -1.20 -0.20 -2.20 -0.50 -2.20 -0.25 0 -0.50 -0.90 -0.50 -2 0 -1.95 0.05 -2 1.75 -2 1.40 0 1.80 0.20 2.05 1.25 0.15 0.65 0.55 1.15 0.85 1.10 0.30 -0.05 0.60 0.95 0.65 2.55 0.10 2.25 -0.10 2.95 -1.50 5 -0.95 1.35 -2.10 2.40 -2.70 2.50 -0.95 0.15 -1.10 -0.05 -1.10 -1.60z"/>
  <path d="M21.50 16.65 c0 -0.90 -0.35 -1.10 -1.85 -1.25 -1.80 -0.15 -1.90 -0.25 -2.05 -2 -0.15 -1.90 -0.15 -1.90 1.65 -1.90 1.40 0 1.90 0.25 2.10 1 0.20 0.75 0.70 1 1.95 1 1.65 0 1.70 0.05 1.70 2 0 1.80 -0.15 2 -1.25 2 -0.95 0 -1.15 -0.20 -0.90 -0.85 0.25 -0.75 0.15 -0.70 -0.50 0.10 -0.80 1 -0.80 1 -0.85 -0.10z"/>
  <path d="M7.65 4.80 c0.20 -0.50 0.05 -0.65 -0.45 -0.45 -0.60 0.25 -0.65 0.05 -0.15 -1.05 0.40 -0.85 1 -1.30 1.80 -1.30 1 0 1.15 0.25 1.15 1.75 0 1.55 -0.15 1.75 -1.30 1.75 -0.95 0 -1.25 -0.20 -1.05 -0.70z"/>
 </g>
 <g fill="#6e6a46">
  <path d="M17.80 39.25 c-0.15 -0.40 -0.90 -0.80 -1.65 -0.80 -1.20 -0.10 -1.25 -0.10 -0.25 -0.30 1.25 -0.25 2.30 -1.85 1.90 -2.95 -0.15 -0.40 0.05 -0.70 0.50 -0.70 0.60 0 0.75 0.35 0.60 1.25 -0.15 0.80 0.10 1.65 0.65 2.35 0.55 0.55 0.95 1.25 0.95 1.50 0 0.70 -2.40 0.45 -2.70 -0.35z"/>
  <path d="M24.50 38.95 c0 -0.55 0.25 -0.85 0.50 -0.70 0.30 0.15 0.50 -0.05 0.50 -0.45 0 -1.05 1.30 -1.05 1.70 0 0.45 1.10 0.40 1.20 -0.45 1.20 -0.40 0 -0.75 0.25 -0.75 0.50 0 0.30 -0.35 0.50 -0.75 0.50 -0.40 0 -0.75 -0.45 -0.75 -1.05z"/>
  <path d="M24.50 33.50 c-0.85 -2.60 -0.30 -3.15 0.70 -0.75 0.90 2.10 1 2.75 0.40 2.75 -0.25 0 -0.75 -0.90 -1.10 -2z"/>
  <path d="M17 31.25 c0 -0.65 -0.85 -1 -2.10 -0.85 -0.15 0.05 -0.45 -0.25 -0.60 -0.65 -0.15 -0.40 -0.05 -0.75 0.20 -0.75 0.30 0 0.50 -0.25 0.50 -0.55 0 -0.30 -0.35 -0.45 -0.75 -0.25 -0.50 0.20 -0.75 -0.05 -0.75 -0.70 0 -0.80 0.35 -1 1.70 -1 0.95 0 1.80 0.30 1.90 0.65 0.35 0.95 0.45 4.85 0.15 4.85 -0.15 0 -0.25 -0.35 -0.25 -0.75z"/>
  <path d="M21 25.50 l0 -2 2 0 2 0 0 2 0 2 -2 0 -2 0 0 -2z"/>
  <path d="M14 24.25 l0 -1.75 3 0 3 0 0 1.75 0 1.75 -3 0 -3 0 0 -1.75z"/>
  <path d="M29.10 18.90 c0 -1.35 0.15 -1.80 0.35 -1.25 0.20 0.50 0.55 0.90 0.80 0.90 0.30 -0.05 0.50 0.50 0.55 1.20 0.05 0.90 -0.20 1.25 -0.85 1.25 -0.70 0 -0.90 -0.40 -0.85 -2.10z"/>
  <path d="M24 19.25 c0 -0.40 -0.45 -0.75 -1 -0.75 -0.95 0 -1 -0.10 -0.25 -1.50 0.40 -0.80 0.75 -1.75 0.75 -2.10 0 -0.35 -0.45 0.30 -1 1.50 -1.10 2.45 -2 2.75 -2 0.65 0 -2.45 0.45 -3.05 2.30 -3.05 0.95 0 1.70 0.25 1.70 0.50 0 0.30 0.45 0.50 1 0.50 0.55 0 1 0.35 1 0.75 0 0.40 0.20 0.75 0.40 0.75 0.20 0 0.40 0.80 0.45 1.75 0.05 1.65 -0.05 1.75 -1.65 1.75 -1.20 0 -1.70 -0.25 -1.70 -0.75z"/>
  <path d="M13.05 8.30 c-0.60 -0.90 -1.05 -2.15 -1.05 -2.80 0 -1.05 -0.10 -1.05 -1.10 -0.40 -0.65 0.40 -1.80 0.75 -2.60 0.80 l-1.40 0.10 0.85 -1.40 c0.50 -0.75 0.60 -1.05 0.20 -0.75 -1.10 1.10 -1.50 0.70 -0.75 -0.70 0.80 -1.55 2.50 -3.15 3.35 -3.15 0.25 0 1 0.50 1.60 1.05 0.80 0.75 0.90 1.15 0.45 1.30 -0.80 0.30 0.15 1.65 1.20 1.65 0.65 0 2.20 2.60 2.90 4.90 0.35 0.95 0.20 1.10 -1.15 1.10 -1.15 0 -1.70 -0.40 -2.50 -1.70z"/>
 </g>
 <g fill="#a5671c">
  <path d="M24.40 16.30 c-0.50 -0.35 -0.90 -0.95 -0.90 -1.35 -0.05 -0.50 -0.20 -0.45 -0.55 0.20 -0.80 1.40 -1.45 1 -1.45 -0.90 0 -1.65 0.10 -1.75 1.75 -1.75 0.95 0 1.75 0.25 1.75 0.50 0 0.30 0.55 0.50 1.25 0.50 1.20 0 1.25 -0.10 1.25 -3.50 0 -2.25 -0.20 -3.50 -0.55 -3.50 -0.80 0 -0.25 -4.50 0.60 -5.05 1 -0.65 1.45 -0.55 1.45 0.30 0 0.40 0.25 0.75 0.50 0.75 0.35 0 0.35 -0.35 0 -1.05 -0.90 -1.65 -0.10 -1.75 1.25 -0.15 1 1.15 1.10 1.55 0.60 1.95 -1.75 1.40 -2.25 3 -1.75 5.80 0.60 3.25 0.30 6.15 -0.75 7.20 -0.95 0.90 -3.30 0.95 -4.45 0.05z"/>
  <path d="M21.50 6.55 c0 -0.50 3.30 -4.05 3.75 -4.05 0.15 0 0.25 0.70 0.25 1.50 0 1 -0.25 1.50 -0.75 1.50 -0.40 0 -0.75 0.35 -0.75 0.75 0 0.45 -0.45 0.75 -1.25 0.75 -0.70 0 -1.25 -0.20 -1.25 -0.45z"/>
 </g>
 <g fill="#696461">
  <path d="M17.60 39 c-0.45 -0.75 -0.45 -1.30 -0.10 -1.95 0.50 -1.05 -0.30 -6.55 -1 -6.55 -0.20 0 -0.55 -0.60 -0.70 -1.30 -0.25 -0.95 -0.60 -1.25 -1.25 -1.05 -1.15 0.30 -5.25 -3.80 -5.70 -5.65 -0.40 -1.55 0.60 -4.50 1.55 -4.50 0.45 0 0.65 0.60 0.60 1.90 -0.05 1 -0.10 2.70 -0.05 3.75 0.05 1.80 0.10 1.85 1.80 1.85 0.95 0 1.75 0.25 1.75 0.50 0 0.30 1 0.50 2.20 0.50 2 0 2.20 0.10 2.50 1.50 0.20 1.05 0.55 1.50 1.30 1.50 0.70 0 1 0.35 1 1.05 0 0.85 -0.25 1 -1.25 0.85 -1.20 -0.25 -1.25 -0.15 -1.25 1.90 0 1.15 -0.15 2.45 -0.30 2.85 -0.15 0.40 0.10 1.05 0.50 1.50 0.45 0.45 0.80 1.15 0.80 1.55 0 1.15 -1.65 1 -2.40 -0.20z"/>
  <path d="M24.50 38.95 c0 -0.60 0.20 -0.90 0.55 -0.65 0.40 0.25 0.50 -0.20 0.35 -1.50 -0.25 -2.20 0.55 -2.15 1.45 0.15 0.65 1.50 0.60 1.65 -0.35 1.90 -0.55 0.15 -1 0.45 -1 0.70 0 0.25 -0.20 0.45 -0.50 0.45 -0.25 0 -0.50 -0.45 -0.50 -1.05z"/>
  <path d="M24.25 32.15 c-0.20 -0.65 -0.70 -1.15 -1.05 -1.15 -0.40 0 -0.70 -0.35 -0.70 -0.75 0 -0.40 0.25 -0.75 0.50 -0.75 0.30 0 0.50 -0.35 0.50 -0.75 0 -0.40 0.35 -0.75 0.75 -0.75 0.40 0 0.85 -0.55 1.05 -1.25 0.15 -0.70 0.60 -1.25 0.95 -1.25 0.35 0 0.95 -0.85 1.40 -1.85 0.65 -1.65 0.75 -1.75 0.80 -0.65 0 0.70 -0.30 1.85 -0.65 2.65 -0.80 1.45 -0.60 1.75 0.40 0.75 1.05 -1.10 1.30 -2.35 0.85 -4.65 -0.35 -1.85 -0.25 -2.35 0.50 -3.05 0.55 -0.50 0.95 -0.65 1 -0.40 0 0.25 0.10 1.40 0.25 2.50 0.20 1.40 0 2.60 -0.55 3.65 -1.05 2.05 -4.55 5.55 -5.50 5.55 -0.90 0 -0.95 0.60 -0.20 1.35 0.30 0.30 0.45 0.85 0.30 1.25 -0.20 0.45 -0.40 0.25 -0.60 -0.45z"/>
  <path d="M15 24.25 c0 -1.75 0 -1.75 2.25 -1.75 2.25 0 2.25 0 2.25 1.75 0 1.75 0 1.75 -2.25 1.75 -2.25 0 -2.25 0 -2.25 -1.75z"/>
  <path d="M21 17.25 c0 -1.20 0.25 -1.75 0.75 -1.75 0.90 0 0.90 0.05 0.25 1.70 -0.65 1.75 -0.20 1.65 0.75 -0.20 0.70 -1.40 1 -1.50 3.50 -1.50 2.50 0 2.75 0.10 3.05 1.20 0.50 2 -0.10 2.30 -4.35 2.30 l-3.95 0 0 -1.75z"/>
  <path d="M9.50 15.65 c0 -2.15 0.55 -3.65 1.30 -3.65 0.50 0 0.70 0.70 0.70 2.50 0 2.15 -0.15 2.50 -1 2.50 -0.75 0 -1 -0.35 -1 -1.35z"/>
  <path d="M17 12.50 c0 -1.15 -0.20 -1.50 -1 -1.50 -0.80 0 -1 -0.35 -1 -1.55 0 -1 0.20 -1.40 0.55 -1.15 0.35 0.20 0.50 0.05 0.35 -0.35 -0.15 -0.40 -0.70 -0.65 -1.25 -0.55 -0.60 0.10 -1.15 -0.20 -1.35 -0.65 -0.15 -0.40 -0.85 -1 -1.55 -1.25 -1.25 -0.50 -1.75 -2.15 -0.75 -2.75 0.30 -0.15 0.50 -0.55 0.50 -0.80 0 -0.30 -0.20 -0.35 -0.50 -0.20 -0.30 0.15 -0.35 -0.05 -0.20 -0.45 0.25 -0.60 0.55 -0.65 1.25 -0.25 1.05 0.55 1.30 1.45 0.40 1.45 -0.40 0 -0.40 0.25 0.05 0.75 0.35 0.40 0.95 0.75 1.35 0.75 0.40 0 1.30 1.30 2 2.90 1.65 3.50 2.20 4.10 3.60 3.75 0.95 -0.25 1.05 -0.05 1.05 1.65 l0 1.85 -1.35 -1.20 c-1.25 -1.10 -1.30 -1.10 -0.45 -0.05 0.95 1.10 0.95 1.10 -0.35 1.10 -1.15 0 -1.35 -0.20 -1.35 -1.50z"/>
  <path d="M28.50 8.75 c0 -0.95 0.20 -1.75 0.40 -1.75 0.20 0 0.30 0.80 0.20 1.75 -0.10 0.95 -0.30 1.75 -0.40 1.75 -0.10 0 -0.20 -0.80 -0.20 -1.75z"/>
  <path d="M7.25 5.50 c0.20 -0.60 0.10 -1 -0.25 -1 -0.40 0 -0.40 -0.30 0 -1 1.10 -2 2.50 -0.90 2.50 1.90 0 0.95 -0.15 1.15 -0.45 0.65 -0.30 -0.45 -0.55 -0.50 -0.75 -0.10 -0.60 0.95 -1.40 0.60 -1.05 -0.45z"/>
 </g>
 <g fill="#667f77">
  <path d="M20.70 30.75 c-0.40 -1 0.05 -5 0.75 -6.85 0.45 -1.20 0.80 -1.40 2.55 -1.40 1.80 0 2 -0.10 2 -1.25 0 -1 -0.25 -1.25 -1.25 -1.25 -1.10 0 -1.25 -0.20 -1.25 -1.75 0 -1.70 0.65 -2.35 1.15 -1.10 0.20 0.50 0.30 0.45 0.30 0 0.05 -0.35 0.50 -0.65 1.05 -0.65 0.75 0 1 0.35 1 1.25 0 0.75 0.30 1.25 0.75 1.25 0.45 0 0.60 0.30 0.40 0.90 -0.25 0.70 -0.15 0.65 0.50 -0.15 0.50 -0.65 0.80 -0.75 0.85 -0.35 0 0.35 0.35 1 0.75 1.40 0.85 0.90 0.55 3.05 -0.60 4.20 -0.70 0.65 -0.70 0.60 -0.15 -0.50 0.50 -0.90 0.50 -1.25 0.05 -1.40 -0.30 -0.10 -0.55 -0.50 -0.55 -0.85 0 -0.40 -0.20 -0.80 -0.40 -0.95 -0.20 -0.10 -0.35 1.15 -0.30 2.80 0.05 2.75 -0.10 3.20 -1.25 4.20 -0.70 0.65 -1.55 1.20 -1.90 1.20 -0.35 0 -0.80 0.30 -1 0.70 -0.65 1.15 -3.10 1.55 -3.45 0.55z"/>
  <path d="M16 12.80 c0 -0.45 -0.20 -0.80 -0.50 -0.80 -0.25 0 -0.50 -0.85 -0.50 -1.90 0 -1.40 0.20 -1.95 0.75 -1.95 0.40 0 0.75 0.25 0.75 0.55 0 0.35 0.50 1 1.05 1.50 0.90 0.75 1.15 0.80 1.55 0.25 0.30 -0.50 0.40 -0.10 0.30 1.05 -0.15 1.55 -0.30 1.75 -1.75 1.90 -1.25 0.10 -1.65 -0.05 -1.65 -0.60z"/>
  <path d="M12.35 6.65 c-0.20 -0.15 -0.35 -0.95 -0.35 -1.70 0 -1.10 0.20 -1.30 1 -1.10 0.55 0.15 1.50 0.90 2.05 1.70 1.20 1.70 0.80 1.95 -0.60 0.35 l-1 -1.15 0.55 1.15 c0.45 0.95 0.40 1.10 -0.40 1.10 -0.50 0 -1.10 -0.15 -1.25 -0.35z"/>
  <path d="M11.35 2.15 c0.30 -0.80 0.25 -0.80 -0.50 -0.20 -0.75 0.60 -0.85 0.55 -0.85 -0.65 0 -1.50 0.60 -1.65 2 -0.45 0.70 0.65 0.85 1 0.40 1.50 -0.75 0.95 -1.45 0.80 -1.05 -0.20z"/>
 </g>
 <g fill="#cd6a3d">
  <path d="M27.50 7.80 c0 -0.65 -0.35 -1.45 -0.75 -1.80 -0.40 -0.35 -0.75 -1.40 -0.75 -2.35 0 -2.25 1.80 -3.10 3.10 -1.50 1 1.25 1.20 0.80 0.35 -0.75 -0.90 -1.70 -0.20 -1.55 1.75 0.40 2.10 2.10 2.20 2.40 0.65 2 -1.45 -0.35 -2.60 1.45 -2.80 4.35 -0.10 1.35 -1.55 1.05 -1.55 -0.35z"/>
 </g>
 <g fill="#807d78">
  <path d="M17.85 38.95 c-0.70 -0.80 -0.80 -1.20 -0.30 -1.75 0.45 -0.60 0.70 -0.50 1.50 0.50 1.70 2.20 0.60 3.35 -1.20 1.25z"/>
  <path d="M24.50 39.25 c0 -0.40 0.30 -0.75 0.70 -0.75 0.45 0 0.65 -0.45 0.55 -1.25 -0.05 -0.80 0.10 -1.20 0.45 -1.10 0.90 0.30 1 2.85 0.10 2.85 -0.45 0 -0.80 0.25 -0.80 0.50 0 0.30 -0.20 0.50 -0.50 0.50 -0.25 0 -0.50 -0.35 -0.50 -0.75z"/>
  <path d="M17.50 32.75 c-0.35 -1.25 -0.90 -2.25 -1.20 -2.25 -0.30 0 -0.15 -0.25 0.35 -0.55 1.05 -0.60 1.15 -1.95 0.10 -1.95 -0.40 0 -0.75 0.30 -0.75 0.65 0 0.45 -0.10 0.45 -0.45 -0.05 -0.20 -0.40 -0.75 -0.60 -1.10 -0.50 -0.40 0.10 -1.65 -0.75 -2.85 -1.80 -2.20 -2.05 -3.45 -5 -2.60 -6.05 0.25 -0.35 0.60 -2.60 0.70 -5.05 0.15 -2.45 0.25 -4.75 0.25 -5.05 0.05 -0.35 0.35 -0.65 0.75 -0.65 0.45 0 0.75 1.10 1 3.70 0.35 3.80 0.05 6.30 -0.75 6.30 -0.25 0 -0.45 0.70 -0.45 1.50 0 1.25 0.20 1.50 1.25 1.50 1.15 0 1.25 -0.15 1.25 -2.50 l0 -2.50 1.80 0 c1.35 0 1.85 0.25 2.05 1 0.20 0.75 0.70 1 1.95 1 1.60 0 1.70 0.10 1.70 1.65 0 2.20 -0.45 2.75 -2.50 3 -1.65 0.20 -1.65 0.20 0.40 0.25 2.05 0.10 2.10 0.15 2.10 1.85 0 0.95 -0.20 1.75 -0.40 1.75 -0.25 0 -0.35 0.70 -0.20 1.50 0.15 0.90 0 1.50 -0.35 1.50 -0.30 0 -0.55 0.85 -0.55 2 0 2.65 -0.70 2.55 -1.50 -0.25z"/>
  <path d="M24.30 32.70 c-0.40 -1.05 -0.40 -1.20 0.15 -1.20 0.25 0 0.55 0.45 0.70 1 0.30 1.20 -0.40 1.35 -0.85 0.20z"/>
  <path d="M20.50 30.50 c0 -0.70 0.35 -1 1.05 -1 0.55 0 1.35 -0.35 1.75 -0.75 0.45 -0.40 1.20 -0.75 1.70 -0.75 0.55 0 1 -0.50 1.20 -1.25 0.40 -1.55 1.30 -1.65 0.95 -0.10 -0.20 1.05 -0.20 1.10 0.55 0.15 0.60 -0.70 0.80 -0.80 0.80 -0.25 0 0.40 -0.80 1.25 -1.80 1.95 -0.95 0.70 -2.10 1.55 -2.55 1.95 -0.65 0.60 -0.80 0.60 -1.20 0 -0.35 -0.55 -0.45 -0.55 -0.45 0.20 0 0.50 -0.40 0.85 -1 0.85 -0.65 0 -1 -0.35 -1 -1z"/>
  <path d="M29.55 24.35 c0.55 -1.20 0.50 -1.50 -0.40 -2.50 -1.20 -1.25 -1 -2.35 0.40 -2.35 0.65 0 1 0.40 1.05 1.15 0.15 2.15 -0.15 3.60 -0.90 4.35 -0.70 0.65 -0.70 0.60 -0.15 -0.65z"/>
  <path d="M26.50 22.25 c0 -1.55 -0.15 -1.75 -1.25 -1.75 -1.10 0 -1.25 -0.20 -1.25 -1.80 0 -0.95 0.20 -1.65 0.45 -1.45 0.30 0.15 0.35 -0.45 0.20 -1.50 l-0.30 -1.75 2.10 0 c2 0 2.05 0 2.05 1.80 0 1.45 -0.15 1.75 -0.80 1.50 -0.65 -0.25 -0.75 -0.10 -0.50 0.80 0.15 0.65 0.30 1.90 0.30 2.80 0 0.90 0.20 1.55 0.45 1.40 0.25 -0.20 0.35 0.15 0.20 0.70 -0.45 1.75 -1.65 1.20 -1.65 -0.75z"/>
  <path d="M16.50 12.75 c0 -1.65 0.10 -1.75 1.75 -1.75 1.55 0 1.75 0.15 1.75 1.35 l0 1.35 -1 -1.10 c-0.60 -0.60 -1.20 -1.10 -1.35 -1.10 -0.20 0 0.30 0.70 1.10 1.50 l1.45 1.50 -1.85 0 c-1.80 0 -1.85 -0.05 -1.85 -1.75z"/>
  <path d="M6.50 7.65 c0 -1.40 2.30 -4.15 3.55 -4.15 0.70 0 0.95 0.35 0.95 1.40 0 2.05 -0.55 3.60 -1.25 3.60 -0.80 0 -1.30 -1.25 -0.95 -2.25 0.50 -1.30 -0.15 -0.80 -1.25 0.90 -0.90 1.40 -1.05 1.45 -1.05 0.50z"/>
  <path d="M14 7.50 c0 -0.55 0.10 -1 0.25 -1 0.10 0 0.45 0.45 0.75 1 0.45 0.80 0.40 1 -0.25 1 -0.40 0 -0.75 -0.45 -0.75 -1z"/>
  <path d="M15.35 7.05 c-1.20 -2.10 -1.05 -2.60 0.20 -0.65 0.60 0.90 1 1.75 0.85 1.85 -0.10 0.10 -0.60 -0.45 -1.05 -1.20z"/>
  <path d="M7 3.50 c0 -0.85 2.80 -3.50 3.70 -3.50 1.40 0 0.85 1.40 -1.05 2.75 -2.05 1.35 -2.65 1.55 -2.65 0.75z"/>
  <path d="M11.60 2.05 c0.20 -0.65 0.90 -0.80 0.95 -0.20 0 0.20 -0.25 0.45 -0.55 0.60 -0.35 0.10 -0.55 -0.10 -0.40 -0.40z"/>
 </g>
 <g fill="#9c8b55">
  <path d="M18.10 38.85 c-0.80 -0.85 -0.95 -1.30 -0.55 -1.70 0.55 -0.55 0.40 -3.35 -0.30 -5.50 -0.30 -0.90 -0.20 -1.15 0.55 -1.15 0.80 0 0.85 -0.10 0.20 -0.50 -0.55 -0.35 -0.35 -0.50 0.90 -0.50 1.25 0 1.60 0.20 1.60 1 0 0.60 -0.25 0.85 -0.70 0.70 -1 -0.40 -1.45 5.75 -0.50 6.85 0.80 0.85 0.95 1.95 0.30 1.95 -0.25 0 -0.90 -0.50 -1.50 -1.15z"/>
  <path d="M25.70 36.75 c-0.30 -0.95 -0.35 -1.75 -0.15 -1.75 0.55 0 1.45 1.70 1.45 2.70 0 1.40 -0.75 0.85 -1.30 -0.95z"/>
  <path d="M15.25 28 c-0.20 -0.30 -0.55 -0.40 -0.80 -0.25 -0.25 0.20 -0.45 -0.05 -0.45 -0.50 0 -0.40 -0.55 -1 -1.25 -1.25 -1 -0.40 -1.25 -0.80 -1.25 -2.25 0 -1.45 0.15 -1.75 1.10 -1.75 0.85 0 0.95 -0.15 0.50 -0.60 -0.35 -0.35 -0.60 -1.35 -0.60 -2.25 0 -1.55 0.10 -1.65 1.65 -1.65 1.70 0.05 3.35 0.95 3.35 1.95 0 0.30 0.70 0.55 1.50 0.55 1.25 0 1.50 0.20 1.50 1.20 0 2.60 -0.60 4.30 -1.55 4.30 -0.60 0 -1.05 0.50 -1.25 1.25 -0.35 1.45 -0.95 1.60 -1.70 0.40 -0.45 -0.80 -0.50 -0.75 -0.25 0.25 0.35 1.15 0.05 1.50 -0.50 0.60z m2.25 -4 c-1.80 -0.55 -2.60 -0.55 -2.25 0 0.15 0.30 1.05 0.50 1.90 0.45 1.55 -0.05 1.55 -0.05 0.35 -0.45z"/>
  <path d="M25.75 18 c-0.25 -1.50 -0.55 -2 -1.30 -2 -0.65 0 -0.95 -0.35 -1 -1.10 0 -1.10 -0.05 -1.10 -0.45 -0.15 -0.30 0.85 -0.75 1 -2.45 0.85 -1.80 -0.20 -2.05 -0.35 -2.05 -1.45 0 -1.15 0.10 -1.20 0.90 -0.60 0.80 0.65 0.80 0.65 0.10 -0.30 -0.40 -0.55 -1.05 -1.20 -1.35 -1.40 -0.35 -0.20 -0.65 -0.80 -0.65 -1.25 0 -0.75 0.10 -0.75 0.50 -0.10 0.40 0.65 0.55 0.60 1.20 -0.25 0.45 -0.55 0.80 -1.15 0.80 -1.35 0 -0.25 0.25 -0.40 0.50 -0.40 0.30 0 0.50 0.75 0.50 1.70 0 1.85 0.60 2.30 3.05 2.30 0.80 0 1.45 0.25 1.45 0.50 0 0.30 0.75 0.50 1.70 0.50 1.60 0 1.70 0.10 2 2.35 0.25 1.80 0.10 2.55 -0.55 3.25 -1.40 1.55 -2.50 1.15 -2.90 -1.10z"/>
  <path d="M29 19.25 c0.35 -0.40 0.80 -0.75 1.05 -0.75 0.25 0 0.45 0.35 0.45 0.75 0 0.45 -0.45 0.75 -1.05 0.75 -0.90 0 -0.95 -0.10 -0.45 -0.75z"/>
  <path d="M8.50 4.50 c0 -0.25 0.65 -0.80 1.45 -1.20 0.80 -0.45 1.55 -1.10 1.75 -1.55 0.15 -0.45 0.55 -0.65 0.80 -0.50 0.40 0.25 0.35 0.55 -0.05 1.05 -0.45 0.55 -0.45 0.85 0 1.40 0.45 0.55 0.40 0.75 -0.25 1 -1.25 0.45 -3.70 0.35 -3.70 -0.20z"/>
  <path d="M8.50 2.35 c0 -0.85 0.35 -1.30 1.10 -1.50 2.25 -0.60 2.10 0.95 -0.20 2.20 -0.75 0.40 -0.90 0.30 -0.90 -0.70z"/>
  <path d="M25.25 2.50 c0.50 -0.55 1.30 -1 1.85 -1 0.55 0 0.90 0.35 0.90 1 0 0.80 -0.35 1 -1.85 1 -1.75 0 -1.80 0 -0.90 -1z"/>
 </g>
 <g fill="#d59a1e">
  <path d="M23.90 16 c0 -0.40 -0.05 -1.05 -0.05 -1.35 0.05 -0.35 -0.15 -0.65 -0.40 -0.65 -0.25 0 -0.45 0.35 -0.45 0.75 0 0.40 -0.35 0.75 -0.75 0.75 -0.40 0 -0.75 -0.30 -0.75 -0.70 0 -0.70 -1.35 -1.45 -1.95 -1.10 -0.20 0.15 -0.40 -0.45 -0.45 -1.30 -0.15 -1.90 2.10 -5.90 3.35 -5.90 0.50 0 1.55 -1.05 2.50 -2.50 1 -1.55 2 -2.50 2.55 -2.50 0.80 0 0.90 0.20 0.55 1.15 -0.50 1.30 -0.20 2.35 0.60 2.35 0.40 0 0.60 1.70 0.65 5.50 l0.05 5.45 -1.55 0.50 c-2.10 0.70 -3.80 0.50 -3.90 -0.45z"/>
  <path d="M29.75 1.50 c-0.50 -0.55 -0.75 -1.15 -0.60 -1.35 0.35 -0.30 1.80 1.25 1.85 2 0 0.55 -0.30 0.40 -1.25 -0.65z"/>
 </g>
 <g fill="#809388">
  <path d="M20.15 27.90 c0.20 -2 0.55 -3.70 0.85 -3.80 0.25 -0.10 0.50 -0.65 0.50 -1.20 0 -1.25 1.35 -2.35 2.90 -2.40 0.75 0 1.30 -0.35 1.45 -1 0.20 -0.70 0.70 -1 1.60 -1 1.65 0 3.05 1.55 2.70 3 -0.25 1 -0.35 1 -1.20 0.20 -0.70 -0.65 -0.80 -1.05 -0.40 -1.90 0.50 -1.05 0.50 -1.05 -0.30 -0.05 -0.55 0.70 -0.70 1.55 -0.45 3.10 0.20 1.40 0.10 2.40 -0.30 2.90 -0.35 0.40 -0.50 1.05 -0.35 1.50 0.30 0.70 -2 2.75 -3.10 2.75 -0.30 0 -0.55 0.30 -0.55 0.65 0 0.45 -0.10 0.45 -0.45 -0.05 -0.35 -0.55 -0.45 -0.55 -0.70 0.10 -0.20 0.45 -0.80 0.80 -1.40 0.80 -1.05 0 -1.10 -0.15 -0.80 -3.60z m2.85 0.85 c0 -0.50 0.50 -0.75 1.40 -0.75 1.10 0 1.50 -0.35 1.95 -1.50 0.30 -0.80 0.35 -1.50 0.10 -1.50 -0.25 0 -0.45 0.35 -0.45 0.80 0 0.45 -0.30 0.70 -0.60 0.55 -0.35 -0.10 -0.60 -0.70 -0.50 -1.25 0.20 -1.20 -0.80 -1.50 -1.80 -0.50 -0.85 0.85 -0.75 1.95 0.15 1.60 1.10 -0.45 0.90 0.45 -0.25 1.20 -1.05 0.65 -1.40 2.10 -0.50 2.10 0.30 0 0.50 -0.35 0.50 -0.75z"/>
  <path d="M14.35 9.90 c-0.15 -1.15 -0.55 -2.20 -0.80 -2.30 -0.30 -0.10 -0.55 -0.50 -0.55 -0.90 0 -0.40 -0.20 -0.70 -0.50 -0.70 -0.25 0 -0.50 -0.35 -0.50 -0.75 0 -0.40 -0.45 -0.75 -1 -0.75 -1.15 0 -1.35 -0.75 -0.35 -1.35 0.40 -0.20 0.85 -0.80 1 -1.30 0.20 -0.50 0.60 -0.75 0.85 -0.60 0.40 0.25 0.35 0.55 0 1 -0.70 0.80 -0.25 1.75 0.75 1.75 1 0 3.25 3.65 3.25 5.20 0 0.95 0.20 1.20 0.80 0.95 0.60 -0.20 0.75 -0.05 0.60 0.65 -0.10 0.65 -0.65 1 -1.70 1.10 -1.50 0.15 -1.55 0.05 -1.85 -2z m0.60 -3.60 c-0.60 -1 -1.20 -1.75 -1.30 -1.60 -0.15 0.15 0.25 1.05 0.85 2.05 1.45 2.35 1.85 1.95 0.45 -0.45z"/>
  <path d="M8 2 c0.30 -0.55 0.85 -1 1.25 -1 0.35 0 0.80 -0.30 0.90 -0.60 0.20 -0.50 0.40 -0.45 0.80 0.10 0.65 0.90 -0.90 2.50 -2.45 2.50 -0.90 0 -0.95 -0.15 -0.50 -1z"/>
 </g>
 <g fill="#c8ad3b">
  <path d="M25.20 35.15 c-0.15 -0.50 -0.50 -1.45 -0.75 -2.10 -0.60 -1.50 -0.20 -2 0.50 -0.65 1.10 2.05 1.55 3.60 1 3.60 -0.25 0 -0.60 -0.40 -0.75 -0.85z"/>
  <path d="M18.50 24 c0 -0.25 -0.35 -0.35 -0.75 -0.20 -0.40 0.20 -0.75 0.05 -0.75 -0.25 0 -0.30 0.30 -0.55 0.70 -0.55 0.40 0 0.85 -0.35 1 -0.80 0.50 -1.30 0.35 -1.45 -0.40 -0.40 -0.90 1.20 -1.45 0.70 -1 -1 0.20 -0.95 0.65 -1.30 1.50 -1.30 0.95 0 1.20 -0.25 1.20 -1.30 0 -2.10 1.10 -5.20 1.85 -5.20 0.40 0 0.65 -0.60 0.65 -1.75 0 -1.20 0.25 -1.75 0.75 -1.75 0.40 0 0.75 0.15 0.75 0.40 -0.05 0.80 -1.40 5.95 -1.95 7.35 -0.55 1.35 -0.50 1.40 0.15 0.75 0.40 -0.40 1 -1.85 1.30 -3.25 1 -4.20 1.25 -4.90 1.80 -5.10 0.70 -0.25 1.15 3.40 0.60 4.85 -0.40 1.10 0.40 1.90 1.20 1.10 0.30 -0.30 0.30 -0.60 -0.05 -0.80 -0.70 -0.45 -0.10 -1.80 0.80 -1.80 0.50 0 0.65 0.30 0.45 0.80 -0.20 0.60 -0.10 0.75 0.45 0.50 0.80 -0.30 0.95 0.60 0.45 2.60 -0.35 1.20 -1.50 1.50 -1.85 0.50 -0.10 -0.35 -0.15 -0.05 -0.05 0.75 0.15 1.25 0.05 1.35 -1.55 1.35 -1.20 0 -1.75 -0.25 -1.90 -0.85 -0.20 -0.85 -0.25 -0.85 -0.30 0 -0.05 0.55 -0.45 0.85 -1.30 0.85 -1.05 0 -1.25 0.25 -1.25 1.40 0 2.35 -0.55 3.60 -1.55 3.60 -0.55 0 -0.95 -0.20 -0.95 -0.50z"/>
  <path d="M23.55 4.05 c0.35 -0.50 1 -1.15 1.50 -1.50 0.85 -0.50 0.95 -0.40 0.95 0.95 0 1.35 -0.15 1.50 -1.50 1.50 -1.35 0 -1.45 -0.10 -0.95 -0.95z"/>
  <path d="M31.25 3.50 c-0.15 -0.25 0.15 -0.50 0.70 -0.50 0.60 0 1.05 0.25 1.05 0.50 0 0.30 -0.30 0.50 -0.70 0.50 -0.40 0 -0.90 -0.20 -1.05 -0.50z"/>
 </g>
 <g fill="#9e9f8a">
  <path d="M26 38.25 c0 -0.40 0.25 -0.75 0.50 -0.75 0.30 0 0.50 0.35 0.50 0.75 0 0.40 -0.20 0.75 -0.50 0.75 -0.25 0 -0.50 -0.35 -0.50 -0.75z"/>
  <path d="M17.35 32.15 c-0.65 -0.65 -0.35 -1.65 0.55 -1.65 0.60 0 0.70 -0.10 0.20 -0.40 -0.35 -0.25 -0.50 -0.80 -0.30 -1.25 0.20 -0.55 0.05 -0.85 -0.45 -0.85 -0.45 0 -1.05 -0.40 -1.35 -0.85 -0.55 -0.85 -0.55 -0.85 -0.30 0.05 0.25 0.65 0.10 0.85 -0.45 0.65 -0.40 -0.20 -0.85 -0.05 -1.05 0.20 -0.15 0.30 -0.60 0.10 -1.05 -0.50 -0.40 -0.60 -0.60 -1.25 -0.40 -1.50 0.15 -0.25 -0.25 -0.55 -0.85 -0.65 -0.90 -0.10 -1.20 -0.60 -1.50 -2.15 -0.70 -3.50 -0.85 -7.30 -0.35 -6.95 0.30 0.15 0.35 -0.20 0.15 -1 -0.25 -1.15 -0.15 -1.30 1 -1.30 1.05 0 1.30 0.25 1.30 1.25 0 1.05 0.25 1.25 1.45 1.25 1.05 0 1.50 0.30 1.70 1.05 0.15 0.55 0.75 1.15 1.30 1.30 0.60 0.15 1.05 0.45 1.05 0.70 0 0.25 0.35 0.30 0.75 0.15 0.45 -0.20 0.75 -0.95 0.75 -1.75 0 -1.20 0.20 -1.45 1.30 -1.45 1.10 0 1.20 0.15 0.90 1.10 -0.30 1 -0.25 1.05 0.50 0.45 0.70 -0.60 0.80 -0.50 0.80 0.65 0 0.70 -0.20 1.30 -0.50 1.30 -0.25 0 -0.50 0.25 -0.50 0.50 0 0.30 0.55 0.50 1.25 0.50 1.40 0 1.75 1.35 0.50 1.80 -0.40 0.20 -0.75 0.70 -0.75 1.20 0 0.55 -0.20 1.05 -0.45 1.20 -0.20 0.15 -0.30 0.85 -0.15 1.55 0.10 0.75 0 1.25 -0.35 1.25 -0.30 0 -0.55 0.35 -0.55 0.75 0 0.40 -0.35 0.75 -0.75 0.75 -0.40 0 -0.75 0.35 -0.75 0.75 0 0.40 -0.35 0.75 -0.80 0.75 -0.50 0 -0.70 0.30 -0.50 0.75 0.25 0.75 -0.70 1.05 -1.35 0.40z m0.55 -7.65 c0.30 0 0.60 -0.20 0.60 -0.50 0 -0.25 -0.35 -0.35 -0.75 -0.20 -0.40 0.20 -0.75 0.05 -0.75 -0.25 0 -0.30 0.50 -0.55 1.10 -0.55 0.60 0 0.90 -0.15 0.75 -0.35 -0.20 -0.15 -0.10 -0.60 0.20 -1 0.35 -0.40 0.40 -0.65 0.05 -0.65 -0.25 0 -0.65 0.35 -0.80 0.80 -0.40 1.10 -1.35 0.65 -2.30 -1.05 -0.45 -0.80 -1.10 -1.55 -1.45 -1.65 -0.50 -0.15 -0.55 0 -0.25 0.45 0.45 0.75 0.70 2 0.75 4.10 0 1.25 0.15 1.40 1.10 1.15 0.60 -0.15 1.40 -0.30 1.75 -0.30z"/>
  <path d="M26.15 27.80 c0.40 -0.80 0.70 -1 0.95 -0.65 0.20 0.30 0.10 0.85 -0.20 1.20 -0.90 1.10 -1.35 0.75 -0.75 -0.55z"/>
  <path d="M26.25 22.85 c-0.20 -0.50 -0.25 -1.05 -0.05 -1.20 0.50 -0.50 0.90 0.20 0.65 1.20 -0.20 0.85 -0.20 0.85 -0.60 0z"/>
  <path d="M28.60 21.35 c-0.45 -0.50 -0.35 -0.95 0.20 -1.75 1 -1.45 1.70 -1.40 1.70 0.10 0 1.55 -1.15 2.55 -1.90 1.65z"/>
  <path d="M25.65 20.65 c-0.90 -0.15 -1.15 -0.55 -1.15 -1.65 0 -0.80 0.25 -1.60 0.60 -1.80 0.40 -0.25 0.45 -0.10 0.25 0.45 -0.15 0.45 -0.10 0.95 0.15 1.10 0.30 0.20 0.50 -0.15 0.50 -0.70 0 -0.60 0.25 -1.05 0.50 -1.05 0.30 0 0.50 0.35 0.50 0.75 0 0.40 0.20 0.75 0.50 0.75 0.25 0 0.35 -0.30 0.20 -0.65 -0.10 -0.35 0.20 -0.65 0.80 -0.70 0.55 -0.05 1 0.05 1 0.25 0 0.45 -2.20 3.60 -2.50 3.55 -0.15 -0.05 -0.75 -0.20 -1.35 -0.30z"/>
  <path d="M17.60 13.65 c0.15 -1.65 0.35 -1.90 1.55 -2.05 0.75 -0.10 1.35 0.10 1.35 0.40 0 0.30 0.25 0.40 0.55 0.25 0.35 -0.25 0.45 0.25 0.35 1.30 -0.15 1.55 -0.30 1.70 -2.05 1.85 l-1.90 0.15 0.15 -1.90z m1.85 -0.70 c-0.55 -0.55 -1.15 -0.90 -1.35 -0.75 -0.15 0.20 0.15 0.65 0.70 1.05 1.40 1.10 1.85 0.90 0.65 -0.30z"/>
  <path d="M14 9.75 c0 -0.40 -0.20 -0.75 -0.50 -0.75 -0.25 0 -0.50 -0.55 -0.50 -1.25 0 -0.80 -0.30 -1.25 -0.75 -1.25 -0.45 0 -0.75 -0.45 -0.75 -1.25 0 -0.85 -0.30 -1.25 -0.85 -1.25 -0.65 0 -0.70 -0.15 -0.25 -0.60 0.90 -0.90 2.80 0.35 3.50 2.25 0.50 1.35 0.70 1.45 1.15 0.85 0.45 -0.60 0.50 -0.60 0.25 0.15 -0.40 1.25 0.20 2.20 0.75 1.30 0.35 -0.55 0.45 -0.50 0.45 0.15 0 1.45 -0.60 2.40 -1.55 2.40 -0.50 0 -0.95 -0.35 -0.95 -0.75z"/>
  <path d="M8.50 1.70 c0 -0.40 0.25 -0.60 0.50 -0.45 0.30 0.15 0.65 -0.05 0.80 -0.45 0.40 -1.10 1.20 -1 1.20 0.15 0 0.85 -0.90 1.55 -2.05 1.55 -0.25 0 -0.45 -0.35 -0.45 -0.80z"/>
 </g>
 <g fill="#8b98a4">
  <path d="M18.15 30.90 c0.45 -0.30 0.40 -0.50 -0.10 -0.85 -0.35 -0.25 -0.50 -0.70 -0.30 -1.05 0.20 -0.30 -0.05 -0.85 -0.55 -1.25 -0.55 -0.40 -0.75 -0.75 -0.50 -0.75 0.30 0 0.05 -0.30 -0.50 -0.70 -1.05 -0.80 -0.95 -1 0.70 -1.55 1 -0.30 1.15 -0.20 1 0.70 -0.10 0.55 0.05 1 0.35 1.05 0.25 0 0.45 -0.60 0.45 -1.35 0 -1.05 -0.25 -1.35 -0.85 -1.25 -0.45 0.10 -0.85 -0.10 -0.85 -0.40 0 -0.25 0.80 -0.50 1.75 -0.50 1.75 0 1.75 0 1.75 2.20 0 1.30 -0.25 2.30 -0.60 2.45 -0.35 0.15 -0.15 0.30 0.50 0.30 0.75 0.05 1.10 0.35 1.10 1 0 0.55 0.15 1.30 0.30 1.70 0.20 0.65 -0.15 0.75 -1.95 0.70 -1.25 -0.05 -2 -0.25 -1.70 -0.45z"/>
  <path d="M22.75 30.05 c-0.40 -0.70 0.90 -1.45 1.90 -1.10 0.85 0.30 0.80 0.40 -0.35 0.95 -0.70 0.30 -1.40 0.35 -1.55 0.15z"/>
  <path d="M11.85 26.50 c-2 -1.90 -2.30 -2.50 -1.10 -2.50 0.40 0 0.75 -0.25 0.75 -0.60 0 -0.30 0.55 -0.05 1.25 0.60 0.70 0.65 1.25 0.90 1.25 0.60 0 -0.95 -0.20 -1.35 -0.65 -1.20 -0.25 0.05 -0.30 -0.10 -0.15 -0.35 0.20 -0.25 0.10 -0.60 -0.20 -0.80 -0.25 -0.15 -0.50 -1.45 -0.50 -2.80 l0 -2.50 2.40 0.15 2.35 0.15 0.15 2.15 c0.15 1.65 0 2.10 -0.65 2.10 -0.45 0 -0.70 -0.20 -0.55 -0.45 0.15 -0.20 -0.45 -1.05 -1.30 -1.80 -1.55 -1.40 -1.55 -1.40 -1.20 -0.20 0.75 2.60 0.90 3.25 1.05 5.35 0.15 1.15 0 2.10 -0.25 2.10 -0.25 0 -0.50 0.40 -0.60 0.90 -0.10 0.70 -0.45 0.55 -2.05 -0.90z"/>
  <path d="M8.90 22.15 c-0.25 -1.25 0.70 -3.65 1.45 -3.65 0.70 0 0.90 2.30 0.35 3.70 -0.40 1.05 -1.60 1 -1.80 -0.05z"/>
  <path d="M26.55 21.65 c-0.05 -1.10 -0.25 -1.15 -3.55 -1.15 l-3.50 0 0 -1.70 c0 -1.30 0.25 -1.80 1.05 -2.05 1.35 -0.45 1.75 0.05 0.90 1.05 -0.60 0.75 -0.60 0.85 0.05 0.60 0.40 -0.10 1.05 -0.90 1.45 -1.70 1.40 -2.90 3.05 -3.05 2.55 -0.20 -0.20 1.10 -0.25 2.10 -0.10 2.25 0.65 0.60 0.90 0.15 0.70 -1.25 -0.15 -0.90 0 -1.50 0.35 -1.50 0.30 0 0.55 0.65 0.55 1.45 0 0.80 0.25 1.55 0.55 1.65 0.35 0.10 0.30 0.75 -0.20 1.90 -0.65 1.45 -0.80 1.55 -0.80 0.65z"/>
  <path d="M28.60 21.35 c-0.45 -0.50 -0.35 -0.95 0.25 -1.85 l0.80 -1.15 0.45 1.15 c0.55 1.55 -0.60 2.95 -1.50 1.85z"/>
  <path d="M27.80 18.20 c-0.45 -1.20 -0.35 -3.10 0.20 -3.45 0.30 -0.15 0.50 0.25 0.50 0.95 0 0.65 0.25 1.30 0.55 1.40 0.55 0.20 0.10 1.90 -0.55 1.90 -0.20 0 -0.55 -0.35 -0.70 -0.80z"/>
  <path d="M10.80 16.25 c0.20 -0.40 0.05 -0.75 -0.25 -0.75 -0.30 0 -0.55 -0.45 -0.55 -1 0 -0.65 0.35 -1 1 -1 0.80 0 1 0.35 1 1.75 0 1.20 -0.25 1.75 -0.75 1.75 -0.45 0 -0.60 -0.30 -0.45 -0.75z"/>
  <path d="M19 15 c0 -0.60 0.35 -1 0.90 -1 0.75 -0.05 0.75 -0.10 -0.10 -0.75 -0.95 -0.70 -0.90 -0.75 0.85 -0.75 1.80 0 1.85 0.05 1.85 1.75 0 1.65 -0.10 1.75 -1.75 1.75 -1.40 0 -1.75 -0.20 -1.75 -1z"/>
  <path d="M14.50 8.40 c0.05 -1.10 0.05 -1.10 0.70 -0.25 0.70 0.90 0.70 0.90 0.95 0 0.20 -0.70 0.25 -0.70 0.30 0.25 0.05 0.80 -0.25 1.10 -0.95 1.10 -0.70 0 -1 -0.35 -1 -1.10z"/>
  <path d="M9.05 8.15 c-0.25 -0.50 -0.25 -1.30 0 -2 0.60 -1.65 0.15 -1.40 -1.35 0.75 -1.30 1.85 -1.30 1.85 -0.95 0.35 0.40 -1.75 1.90 -3.55 3.30 -3.90 1.05 -0.30 1.20 0.45 0.65 3.80 -0.35 2 -0.90 2.35 -1.65 1z"/>
  <path d="M7.60 2.75 c0.35 -0.80 0.95 -1.25 1.70 -1.25 1.50 0 1.10 1.15 -0.60 1.95 -1.70 0.75 -1.75 0.75 -1.10 -0.70z"/>
 </g>
 <g fill="#f0b428">
  <path d="M26 38 c0 -0.55 0.25 -1 0.50 -1 0.30 0 0.50 0.45 0.50 1 0 0.55 -0.20 1 -0.50 1 -0.25 0 -0.50 -0.45 -0.50 -1z"/>
  <path d="M27.55 17.15 c-0.05 -1.70 0.15 -2.20 1 -2.70 1.05 -0.55 1.10 -0.50 0.85 2 -0.15 1.60 -0.05 2.60 0.30 2.70 0.30 0.15 -0.05 0.20 -0.75 0.15 -1.15 -0.05 -1.30 -0.25 -1.40 -2.15z"/>
  <path d="M23.50 17.15 c0 -1 0.20 -2.50 0.50 -3.35 0.25 -0.85 0.60 -2.35 0.75 -3.30 0.15 -0.95 0.80 -2.40 1.45 -3.20 l1.15 -1.50 -0.40 3.25 c-0.25 1.75 -0.65 4.10 -0.90 5.20 -0.30 1.10 -0.60 2.60 -0.80 3.40 -0.40 2.10 -1.75 1.75 -1.75 -0.50z m1.50 -0.20 c0 -0.55 -0.20 -0.85 -0.50 -0.70 -0.25 0.15 -0.50 0.65 -0.50 1.05 0 0.40 0.25 0.70 0.50 0.70 0.30 0 0.50 -0.45 0.50 -1.05z"/>
  <path d="M26.35 18.65 c-0.55 -0.50 -0.40 -2.15 0.15 -2.15 0.30 0 0.50 0.55 0.50 1.25 0 1.30 -0.10 1.45 -0.65 0.90z"/>
  <path d="M21 15.50 c0 -0.25 -0.55 -0.50 -1.25 -0.50 -1.10 0 -1.20 -0.20 -1.10 -1.85 0.20 -2.80 4.80 -10.40 4.85 -8.10 0.05 0.40 0.50 -0.15 1.05 -1.15 0.55 -1.05 1.15 -1.95 1.35 -1.95 2.35 -0.45 2.55 -0.35 2.05 1 -0.30 0.70 -0.80 1.65 -1.20 2.05 -1.10 1.30 -2.60 4.60 -3.50 7.90 -0.55 1.85 -1.15 3.10 -1.55 3.10 -0.40 0 -0.70 -0.20 -0.70 -0.50z m-0.50 -1.75 c-0.70 -0.85 -1.50 -1 -1.50 -0.30 0 0.25 0.40 0.60 0.90 0.70 0.45 0.15 0.95 0.25 1.05 0.30 0.10 0 -0.10 -0.30 -0.45 -0.70z m1.45 -3.35 l0.55 -1.65 -1 1.20 c-0.55 0.65 -1 1.50 -1 1.90 0 1.15 0.85 0.30 1.45 -1.45z"/>
  <path d="M27.05 12.65 c0.25 -1.05 0.45 -2.05 0.45 -2.25 0 -0.25 0.25 -0.40 0.55 -0.40 0.90 0 0.30 4.20 -0.65 4.40 -0.70 0.15 -0.75 -0.10 -0.35 -1.75z"/>
  <path d="M31.50 3.50 c-0.60 -0.40 -0.55 -0.50 0.40 -0.50 0.60 0 1.10 0.25 1.10 0.50 0 0.65 -0.55 0.65 -1.50 0z"/>
  <path d="M30.15 1.90 c-1.15 -1.50 -1.20 -2.05 -0.10 -1.05 0.60 0.60 1 1.25 0.85 1.40 -0.15 0.15 -0.50 0 -0.75 -0.35z"/>
 </g>
 <g fill="#bdad6c">
  <path d="M25.85 37.15 c-0.10 -0.50 -0.40 -1.30 -0.60 -1.75 -0.20 -0.50 -0.15 -0.90 0.15 -0.90 0.40 0 1.60 2.50 1.60 3.30 0 0.60 -0.95 0.05 -1.15 -0.65z"/>
  <path d="M18.05 34.85 c-0.05 -0.80 -0.30 -1.85 -0.60 -2.45 -0.65 -1.20 -0.55 -1.30 1.45 -1.70 0.95 -0.20 1.60 -0.10 1.60 0.20 0 0.25 -0.45 0.40 -1 0.25 -0.85 -0.25 -0.95 -0.10 -0.70 1.15 0.15 0.80 0.05 2 -0.25 2.70 l-0.50 1.25 0 -1.40z"/>
  <path d="M16.75 27.55 c-0.15 -0.25 0.25 -0.55 0.85 -0.65 0.90 -0.10 1.15 -0.45 1.15 -1.65 0 -1.15 -0.20 -1.45 -0.85 -1.35 -0.50 0.10 -0.90 -0.10 -0.90 -0.40 0 -0.25 0.50 -0.50 1.10 -0.50 0.60 0 0.90 -0.15 0.75 -0.35 -0.20 -0.15 -0.10 -0.60 0.20 -0.95 0.40 -0.50 0.20 -0.60 -1.15 -0.40 -1.40 0.25 -1.70 0.15 -1.75 -0.70 -0.10 -1.10 1.05 -1.60 3.75 -1.60 1.50 0 1.60 0.10 1.60 1.75 0 0.95 -0.20 1.75 -0.50 1.75 -0.25 0 -0.50 0.70 -0.50 1.50 0 0.85 -0.20 1.50 -0.50 1.50 -0.25 0 -0.60 0.55 -0.80 1.25 -0.30 1.25 -1.85 1.75 -2.45 0.80z"/>
  <path d="M14 27 c0 -0.25 -0.35 -0.50 -0.75 -0.50 -0.40 0 -0.75 -0.35 -0.75 -0.75 0 -0.40 -0.20 -0.75 -0.50 -0.75 -0.25 0 -0.50 -0.80 -0.50 -1.75 0 -1.60 0.10 -1.75 1.50 -1.75 1.60 0 2.10 1.15 0.75 1.70 -0.40 0.15 -0.70 0 -0.60 -0.30 0.05 -0.30 -0.20 -0.65 -0.50 -0.75 -0.90 -0.30 -0.80 0.90 0.15 2.10 0.55 0.70 0.90 0.80 1.05 0.40 0.15 -0.35 0.45 -0.65 0.75 -0.65 0.30 0 0.35 0.35 0.20 0.80 -0.25 0.60 -0.10 0.75 0.55 0.45 2.25 -0.90 2.75 -0.90 2.55 0.05 -0.15 0.70 -0.55 0.90 -1.60 0.85 -1.05 -0.05 -1.30 0.10 -1.10 0.60 0.15 0.45 -0.05 0.75 -0.45 0.75 -0.40 0 -0.75 -0.20 -0.75 -0.50z"/>
  <path d="M26 20 c0 -0.25 -0.55 -0.50 -1.25 -0.50 -0.80 0 -1.25 -0.30 -1.25 -0.75 0 -0.40 -0.20 -0.75 -0.50 -0.75 -0.65 0 1.10 -4.60 1.90 -4.90 0.40 -0.10 0.60 0.45 0.55 2 0 1.20 -0.15 1.85 -0.30 1.50 -0.30 -0.80 -1.15 -0.30 -1.15 0.75 0 0.45 0.30 0.65 0.70 0.50 0.50 -0.20 0.65 -0.05 0.45 0.45 -0.15 0.40 0.05 0.70 0.50 0.70 0.50 0 0.65 -0.40 0.45 -1.25 -0.10 -0.75 0 -1.25 0.35 -1.25 0.30 0 0.55 0.45 0.55 1 0 0.55 0.20 1 0.45 1 0.20 0 0.30 -0.55 0.15 -1.25 -0.15 -0.90 0 -1.25 0.60 -1.25 0.50 0 0.80 0.45 0.80 1.15 0 0.60 0.15 1.60 0.30 2.25 0.20 0.70 0.10 1.10 -0.30 1.10 -0.35 0 -0.50 -0.35 -0.30 -0.75 0.15 -0.40 0.05 -0.75 -0.15 -0.75 -0.25 0 -0.55 0.35 -0.75 0.75 -0.30 0.85 -1.80 1.05 -1.80 0.25z"/>
  <path d="M22 14.50 c0 -0.80 0.20 -1.50 0.40 -1.50 0.25 0 0.35 0.70 0.20 1.50 -0.10 0.85 -0.30 1.50 -0.40 1.50 -0.10 0 -0.20 -0.65 -0.20 -1.50z"/>
  <path d="M8.80 4.05 c0.25 -0.25 0.95 -0.60 1.60 -0.80 0.80 -0.25 1.10 -0.10 1.10 0.45 0 0.55 -0.50 0.80 -1.60 0.80 -0.95 0 -1.40 -0.20 -1.10 -0.45z"/>
  <path d="M8.10 2.40 c0.10 -0.75 0.55 -1.15 1.55 -1.25 0.75 -0.10 1.35 -0.05 1.35 0.10 0 0.50 -1.15 1.55 -2.15 1.90 -0.75 0.30 -0.90 0.15 -0.75 -0.75z"/>
 </g>
 <g fill="#84a1d3">
  <path d="M26 37.75 c0 -0.40 0.25 -0.75 0.50 -0.75 0.30 0 0.50 0.35 0.50 0.75 0 0.40 -0.20 0.75 -0.50 0.75 -0.25 0 -0.50 -0.35 -0.50 -0.75z"/>
  <path d="M27.05 21.15 c-0.05 -0.35 -0.40 -0.65 -0.80 -0.65 -0.40 0 -0.75 -0.35 -0.75 -0.75 0 -0.40 0.20 -0.75 0.45 -0.75 0.20 0 0.30 -0.55 0.15 -1.25 -0.10 -0.75 0 -1.25 0.35 -1.25 0.30 0 0.55 0.40 0.55 0.90 0 0.50 0.25 1.15 0.50 1.40 0.35 0.35 0.35 0.95 0.05 1.75 -0.25 0.65 -0.50 0.90 -0.50 0.60z"/>
  <path d="M28.50 20.65 c0 -1.35 0.95 -2 1.55 -1.10 0.60 1 0.55 1.55 -0.10 1.15 -0.30 -0.15 -0.75 0 -1 0.35 -0.30 0.55 -0.45 0.40 -0.45 -0.40z"/>
  <path d="M12.50 18.25 c0 -1.70 0.05 -1.75 2 -1.75 1.95 0 2 0.05 2 1.85 0 1.55 -0.10 1.70 -0.60 1.05 -0.35 -0.40 -1.05 -0.90 -1.60 -1.10 -0.75 -0.25 -0.85 -0.10 -0.65 0.70 0.15 0.65 0 1 -0.45 1 -0.45 0 -0.70 -0.60 -0.70 -1.75z"/>
  <path d="M27.70 17.25 c-0.30 -1.60 -0.05 -2.75 0.50 -2.20 0.55 0.55 0.85 3.95 0.40 3.95 -0.30 0 -0.70 -0.80 -0.90 -1.75z"/>
  <path d="M18.70 16.30 c-0.45 -1.15 0 -3.45 0.70 -3.60 0.35 -0.05 0.40 0 0.10 0.15 -0.80 0.40 -0.60 1 0.45 1.30 0.60 0.15 0.90 -0.05 0.85 -0.60 -0.05 -1.10 1.40 -1 1.60 0.10 0.10 0.50 0.05 1.45 -0.10 2.15 -0.25 0.95 -0.65 1.20 -1.85 1.20 -0.80 0 -1.60 -0.30 -1.75 -0.70z"/>
 </g>
 <g fill="#f39e67">
  <path d="M20.50 9.55 c0 -1.65 0.55 -2.55 1.60 -2.55 0.80 0 0.90 0.15 0.45 0.65 -0.30 0.40 -0.45 0.80 -0.40 0.90 0.10 0.10 -0.25 0.60 -0.75 1.10 -0.85 0.80 -0.90 0.80 -0.90 -0.10z"/>
  <path d="M22.80 8.90 c1.15 -2.30 1.20 -2.30 1.20 -0.25 0 1.50 -0.20 1.85 -1 1.85 -1 0 -1 -0.05 -0.20 -1.60z"/>
  <path d="M26 3.55 c0 -0.85 0.25 -1.65 0.50 -1.80 0.30 -0.15 0.50 -0.05 0.50 0.30 0 0.40 0.20 0.40 0.75 -0.05 0.65 -0.55 0.70 -0.50 0.40 0.25 -0.15 0.50 -0.75 1.35 -1.25 1.85 -0.85 0.85 -0.90 0.85 -0.90 -0.55z"/>
 </g>
 <g fill="#a9b2a4">
  <path d="M19.40 31.15 c-0.50 -0.10 -0.90 -0.55 -0.90 -0.95 0 -0.40 -0.20 -0.70 -0.50 -0.70 -0.25 0 -0.35 -0.30 -0.20 -0.70 0.15 -0.35 -0.15 -0.85 -0.65 -1.05 -0.80 -0.35 -0.75 -0.45 0.35 -0.70 1.05 -0.30 1.25 -0.65 1.40 -2.55 0.05 -1.25 0.25 -2.60 0.40 -3 0.20 -0.65 0.30 -0.65 0.70 0 0.30 0.45 0.50 0.50 0.50 0.15 0 -0.90 -1 -1.35 -1.65 -0.70 -1 1 -2.25 0.60 -2.80 -0.95 -0.45 -1.40 -1.75 -2.45 -2.35 -1.85 -0.15 0.15 0 1.20 0.30 2.35 0.65 2.35 0.40 2.95 -0.75 2 -0.45 -0.35 -0.90 -0.50 -1.10 -0.30 -0.55 0.55 0.95 2.70 2.05 3 1.20 0.30 1.55 2.30 0.45 2.30 -0.35 0 -0.65 0.30 -0.65 0.65 0 0.30 -0.40 0 -0.90 -0.80 -0.45 -0.75 -1.20 -1.45 -1.65 -1.60 -0.55 -0.20 -0.95 -1.15 -1.25 -2.90 -0.50 -3.30 -0.60 -7 -0.15 -6.30 0.25 0.40 0.45 0.40 0.70 -0.05 0.20 -0.30 0.10 -0.85 -0.20 -1.15 -0.30 -0.30 -0.55 -1.20 -0.55 -1.95 0 -1.15 0.20 -1.40 1.25 -1.40 0.70 0 1.25 -0.20 1.25 -0.50 0 -0.25 0.45 -0.50 1 -0.50 0.55 0 1 -0.20 1 -0.50 0 -0.25 -0.20 -0.50 -0.50 -0.50 -0.25 0 -0.50 -0.25 -0.50 -0.55 0 -0.30 -0.35 -0.85 -0.75 -1.25 -0.40 -0.40 -0.85 -1.55 -1.05 -2.60 -0.20 -1 -0.60 -2 -0.90 -2.20 -0.35 -0.25 -0.30 -0.40 0.20 -0.40 0.80 0.05 2.85 1.40 2.60 1.80 -0.10 0.10 0.35 1.10 0.95 2.20 0.80 1.45 1.25 1.85 1.60 1.40 0.25 -0.40 0.30 -0.15 0.10 0.75 -0.25 1.25 -0.15 1.40 0.65 1.10 0.65 -0.15 1.10 0 1.30 0.55 0.40 1.10 -0.05 1.70 -1.35 1.75 -0.95 0.05 -0.95 0.10 -0.15 0.30 0.80 0.20 0.90 0.60 0.60 2.90 l-0.30 2.65 2.40 0.20 c1.95 0.20 2.50 0.05 3.20 -0.80 l0.85 -1.05 0.95 1.15 c0.55 0.65 1.55 1.10 2.35 1.10 1.10 0 1.30 0.15 1 0.90 -0.15 0.45 -0.45 1.50 -0.60 2.30 -0.30 1.35 -0.35 1.40 -1 0.50 -0.55 -0.80 -0.85 -0.85 -1.70 -0.30 -0.55 0.35 -1.25 0.50 -1.55 0.30 -0.35 -0.25 -0.45 0 -0.30 0.70 0.20 0.60 0.10 1.25 -0.20 1.40 -0.25 0.15 -0.35 0.85 -0.20 1.50 0.20 0.75 0.10 1.20 -0.25 1.20 -0.40 0 -0.50 0.65 -0.30 2 0.25 2.10 0.05 2.25 -2.25 1.65z"/>
  <path d="M25.75 28.45 c0.55 -0.65 1.05 -1.30 1.10 -1.40 0.10 -0.10 0.15 0.15 0.15 0.60 0 0.45 -0.50 1.10 -1.10 1.40 l-1.15 0.60 1 -1.20z"/>
  <path d="M16 26.05 c0 -0.55 1.55 -1.20 1.95 -0.80 0.15 0.15 -0.05 0.50 -0.45 0.75 -0.95 0.60 -1.50 0.60 -1.50 0.05z"/>
  <path d="M7 6.70 c0 -0.55 0.45 -1.45 0.95 -1.90 0.90 -0.85 0.95 -0.80 1.30 0.70 0.20 0.85 0.20 1.70 0.05 1.85 -0.15 0.20 -0.30 -0.25 -0.30 -0.90 l0 -1.20 -1 1.25 c-0.95 1.20 -1 1.20 -1 0.20z"/>
  <path d="M8.10 2.20 c0.10 -0.40 0.40 -0.75 0.65 -0.80 0.30 0 0.90 -0.20 1.40 -0.45 0.60 -0.35 0.85 -0.30 0.85 0.10 0 0.70 -1.50 1.90 -2.40 1.95 -0.40 0 -0.60 -0.35 -0.50 -0.80z"/>
 </g>
 <g fill="#fada3d">
  <path d="M17.70 38.30 c-0.15 -0.40 -0.05 -1.15 0.25 -1.65 0.35 -0.65 0.50 -0.70 0.55 -0.20 0 0.40 0.35 1.15 0.85 1.65 0.75 0.85 0.75 0.90 -0.30 0.90 -0.60 0 -1.20 -0.30 -1.35 -0.70z"/>
  <path d="M26 37.30 c0 -0.70 -0.20 -1.40 -0.50 -1.55 -0.25 -0.15 -0.50 -0.80 -0.45 -1.40 0 -0.85 0.25 -0.65 1 0.90 1.05 2.25 1.20 3.25 0.45 3.25 -0.25 0 -0.50 -0.55 -0.50 -1.20z"/>
  <path d="M16 25.75 c0 -0.40 0.45 -0.75 1 -0.75 1.20 0 1.35 0.75 0.20 1.20 -1.10 0.45 -1.20 0.40 -1.20 -0.45z"/>
  <path d="M19 22.30 c0 -0.40 0.25 -0.90 0.50 -1.05 0.30 -0.15 0.50 0.15 0.50 0.70 0 0.60 -0.20 1.05 -0.50 1.05 -0.25 0 -0.50 -0.30 -0.50 -0.70z"/>
  <path d="M20.50 21.85 c0 -1.65 -0.50 -2 -1.60 -1 -0.85 0.75 -0.90 0.75 -0.90 -0.25 0 -0.90 0.30 -1.10 1.75 -1.10 1.65 0 1.75 0.10 1.75 1.75 0 0.95 -0.20 1.75 -0.50 1.75 -0.25 0 -0.50 -0.50 -0.50 -1.15z"/>
  <path d="M26.55 19 c-0.35 -0.85 -0.55 -1.80 -0.40 -2.10 0.10 -0.35 0.40 -0.05 0.60 0.75 0.55 2.15 1.30 1.60 0.95 -0.70 -0.30 -1.65 -0.20 -2.05 0.35 -1.85 1.10 0.35 1.15 3.20 0.10 4.35 -0.90 1 -0.95 1 -1.60 -0.45z"/>
  <path d="M29 20.05 c0 -0.85 0.90 -1.05 1.20 -0.30 0.15 0.45 0 0.75 -0.45 0.75 -0.40 0 -0.75 -0.20 -0.75 -0.45z"/>
  <path d="M19.35 16.65 c-0.30 -2.80 -0.10 -3.15 0.95 -1.85 0.75 0.90 0.75 0.90 0.55 -0.20 -0.15 -0.65 0.35 -2.40 1.20 -4.15 0.85 -1.70 1.40 -3.15 1.25 -3.30 -0.35 -0.35 -3.30 4.20 -3.30 5.05 0 0.45 -0.20 0.80 -0.50 0.80 -0.25 0 -0.50 -0.25 -0.50 -0.55 0 -0.30 -0.30 -0.45 -0.65 -0.30 -0.40 0.15 -0.65 -0.25 -0.70 -1.10 -0.05 -0.70 0.05 -1 0.20 -0.65 0.45 1.10 1 0.65 2.80 -2.35 1 -1.60 2.75 -3.75 3.90 -4.80 3.05 -2.75 3.40 -1.50 0.95 3.50 -1.10 2.20 -2.35 5.45 -2.80 7.20 -1.40 5.55 -2.90 6.70 -3.35 2.70z"/>
  <path d="M22.60 17.70 c0.30 -0.80 0.75 -1.65 0.95 -1.95 0.30 -0.40 1.45 -5.75 1.45 -6.60 0 -0.10 0.20 -0.05 0.50 0.10 0.55 0.35 0.55 4.25 0 6.50 -0.20 0.85 -0.40 1.20 -0.45 0.90 0 -0.35 -0.25 -0.65 -0.55 -0.65 -0.70 0 -0.60 1.85 0.15 2.15 0.35 0.20 0.30 0.30 -0.25 0.30 -0.45 0.05 -1.20 0.20 -1.65 0.35 -0.70 0.30 -0.70 0.15 -0.15 -1.10z"/>
  <path d="M27.05 13.90 c0.05 -0.35 0.25 -1.20 0.45 -1.90 0.35 -1.10 0.40 -1.05 0.45 0.65 0.05 1 -0.15 1.85 -0.45 1.85 -0.25 0 -0.50 -0.30 -0.45 -0.60z"/>
 </g>
 <g fill="#afbab9">
  <path d="M17 31.50 c0 -0.25 0.35 -0.50 0.75 -0.50 0.40 0 0.75 -0.20 0.75 -0.50 0 -0.25 -0.25 -0.50 -0.55 -0.50 -0.30 0 -0.40 -0.35 -0.25 -0.80 0.20 -0.45 0.05 -1.15 -0.25 -1.50 -0.45 -0.55 -0.35 -0.70 0.65 -0.70 1.20 0 1.20 -0.10 1 -2.75 -0.25 -3.15 0.70 -3.95 1.05 -0.85 0.15 1.75 0.20 1.75 0.25 -0.45 0.10 -2.70 -0.25 -3.25 -1.45 -2.15 -0.85 0.75 -1 0.70 -2.15 -0.50 -0.70 -0.70 -1.30 -1.80 -1.30 -2.45 0 -1.45 -0.35 -1.85 -1.30 -1.50 -0.55 0.20 -0.60 0.40 -0.15 1 0.50 0.55 0.45 0.65 -0.10 0.55 -0.80 -0.15 -0.80 1 -0.05 3.50 0.75 2.35 -0.20 1.50 -1.65 -1.55 -1.40 -2.95 -1.45 -2.80 -0.55 1.40 0.50 2.50 0.85 3.10 2.10 3.75 0.90 0.45 1.40 1.10 1.30 1.60 -0.30 1.60 -1.55 1.30 -3.85 -0.95 -2.35 -2.25 -2.35 -2.30 -2 -4.60 0.25 -1.25 0.40 -2.95 0.40 -3.70 0 -0.85 0.15 -1.20 0.35 -0.85 0.30 0.45 0.45 0.45 0.75 0 0.20 -0.30 0.10 -0.85 -0.20 -1.15 -0.30 -0.30 -0.55 -1.20 -0.55 -1.95 0 -1.05 0.25 -1.40 0.95 -1.40 1 0 1.55 0.90 1.55 2.55 0 0.85 0.30 1 1.65 0.85 1.10 -0.10 1.55 -0.40 1.45 -0.90 -0.25 -1.15 0.40 -4.05 0.90 -3.75 0.20 0.15 0.55 -0.05 0.70 -0.35 0.25 -0.50 0.35 -0.50 0.60 0 0.15 0.30 0.60 0.60 1 0.60 0.40 0 0.70 0.25 0.70 0.55 0 0.30 -0.45 0.45 -0.95 0.30 -0.70 -0.15 -0.90 -0.05 -0.70 0.45 0.15 0.40 0.45 0.70 0.70 0.70 0.25 0 0.45 0.55 0.45 1.20 0 1.05 -0.25 1.25 -1.75 1.40 -1.40 0.10 -1.65 0.30 -1.20 0.90 0.40 0.55 0.60 0.60 0.80 0.15 0.10 -0.35 1 -0.65 1.90 -0.65 1.60 0 2.55 0.95 2.30 2.40 -0.20 1.25 1.05 0.55 1.60 -0.90 0.60 -1.60 1.35 -2 1.35 -0.70 0 0.85 1.15 2.20 1.90 2.20 0.25 0 0.40 -0.60 0.30 -1.35 l-0.20 -1.40 0.60 1.40 c0.35 0.75 0.75 1.35 1 1.35 0.20 0 0.40 -0.60 0.45 -1.35 0 -1.20 0.05 -1.25 0.40 -0.40 0.30 0.70 0.10 1.40 -0.50 2.35 -0.55 0.70 -0.95 1.65 -0.95 2.05 0 1.10 -0.85 1.50 -1.20 0.60 -0.15 -0.40 -0.60 -0.75 -1.05 -0.75 -0.50 0 -0.75 -0.50 -0.75 -1.50 0 -0.80 -0.20 -1.50 -0.45 -1.50 -0.60 0 -1.25 3.50 -1.50 7.65 0 0.85 -0.35 1.35 -0.80 1.35 -0.40 0 -0.75 0.15 -0.80 0.40 0 0.20 -0.10 0.75 -0.20 1.30 -0.10 0.55 0.15 1 0.80 1.15 1.75 0.45 1.05 1.30 -0.80 0.95 -1.10 -0.20 -1.75 -0.15 -1.75 0.20 0 0.25 -0.35 0.50 -0.75 0.50 -0.40 0 -0.75 -0.20 -0.75 -0.50z"/>
  <path d="M23.80 29.25 c-0.15 -0.45 0 -0.60 0.50 -0.40 0.40 0.15 1.05 0 1.45 -0.35 0.45 -0.35 0.90 -0.50 1.05 -0.35 0.15 0.15 -0.40 0.60 -1.20 1.05 -1.30 0.65 -1.55 0.65 -1.80 0.05z"/>
  <path d="M29.55 20.55 c-0.40 -0.25 -0.50 -0.70 -0.30 -1.05 0.30 -0.45 0.50 -0.40 0.85 0.20 0.60 1.05 0.35 1.40 -0.55 0.85z"/>
  <path d="M9.60 9.35 c-0.80 -2.30 -0.75 -2.85 0.35 -2.85 1.05 0 1.55 0.95 1.55 3.05 0 2 -1.15 1.85 -1.90 -0.20z"/>
  <path d="M14.50 9 c0 -0.55 -0.20 -1 -0.50 -1 -0.25 0 -0.50 -0.50 -0.50 -1.10 0 -1.05 0.15 -0.95 1.10 0.50 0.80 1.30 1.15 1.50 1.50 1 0.35 -0.45 0.40 -0.40 0.20 0.25 -0.15 0.50 -0.30 1.05 -0.30 1.15 0 0.10 -0.35 0.20 -0.75 0.20 -0.40 0 -0.75 -0.45 -0.75 -1z"/>
  <path d="M7 6.85 c0 -0.95 1.95 -3.35 2 -2.45 0 0.40 -0.45 1.25 -1 1.95 -0.65 0.85 -1 1.05 -1 0.50z"/>
  <path d="M10.50 4.20 c0 -1.55 1.30 -1.50 2.40 0.20 0.70 1.05 0.65 1.10 -0.85 1.10 -1.35 0 -1.55 -0.20 -1.55 -1.30z"/>
  <path d="M7.65 2.75 c0.40 -0.85 1.15 -1.45 1.80 -1.50 1.50 -0.10 1.05 0.80 -0.90 1.95 l-1.65 0.95 0.75 -1.40z"/>
 </g>
 <g fill="#e1ca7c">
  <path d="M18.45 38.65 c-0.60 -0.15 -0.70 -0.75 -0.55 -2.95 0.15 -1.70 0 -3 -0.40 -3.45 -0.35 -0.45 -0.55 -0.80 -0.45 -0.90 2.75 -1.60 2.75 -1.55 3.10 -0.65 0.20 0.45 0 0.60 -0.60 0.45 -0.70 -0.20 -0.85 0.25 -0.90 2.95 -0.10 2.25 0.10 3.35 0.70 4 0.80 0.90 0.65 1 -0.90 0.55z"/>
  <path d="M26.25 37.75 c-0.15 -0.55 -0.55 -1.40 -0.80 -1.85 -0.25 -0.50 -0.45 -1.30 -0.45 -1.75 0.05 -0.50 0.50 0.05 1.05 1.25 0.55 1.20 0.90 2.45 0.80 2.75 -0.15 0.35 -0.40 0.15 -0.60 -0.40z"/>
  <path d="M16 25.75 c0 -0.40 0.25 -0.75 0.50 -0.75 0.30 0 0.50 0.35 0.50 0.75 0 0.40 -0.20 0.75 -0.50 0.75 -0.25 0 -0.50 -0.35 -0.50 -0.75z"/>
  <path d="M19 23.75 c0 -2.20 0.90 -2.30 1.10 -0.10 l0.20 1.60 0.55 -1.75 0.55 -1.75 0.05 1.90 c0.05 1.65 -0.10 1.85 -1.20 1.85 -1.10 0 -1.25 -0.20 -1.25 -1.75z"/>
  <path d="M8.20 4.55 c0.50 -0.50 1.30 -1.05 1.85 -1.20 0.75 -0.20 0.95 0 0.95 0.95 0 1.25 -1.20 1.70 -1.65 0.60 -0.20 -0.50 -0.30 -0.50 -0.30 0 -0.05 0.30 -0.40 0.60 -0.90 0.60 -0.75 0 -0.75 -0.10 0.05 -0.95z"/>
  <path d="M7.60 2.90 c0.15 -0.35 0.75 -0.70 1.45 -0.80 1.15 -0.10 1.15 -0.10 0.25 0.65 -1.20 0.90 -1.95 1 -1.70 0.15z"/>
 </g>
 <g fill="#f8ef5c">
  <path d="M18.60 38.55 c-0.40 -0.25 -0.60 -0.80 -0.50 -1.25 0.10 -0.60 0.30 -0.50 0.75 0.45 0.30 0.70 0.50 1.25 0.50 1.25 -0.05 0 -0.40 -0.20 -0.75 -0.45z"/>
  <path d="M26.20 37.70 c-0.15 -0.50 -0.50 -1.45 -0.75 -2.10 -0.25 -0.65 -0.45 -1.40 -0.40 -1.75 0 -0.35 0.45 0.50 1 1.85 0.55 1.35 0.85 2.55 0.75 2.70 -0.15 0.15 -0.40 -0.20 -0.60 -0.70z"/>
  <path d="M19 23.85 c0 -1.35 0.25 -2.35 0.55 -2.35 0.35 0 0.45 0.75 0.25 2.10 -0.40 2.90 -0.80 3 -0.80 0.25z"/>
  <path d="M20.90 23 c0.10 -0.80 0.30 -1.50 0.40 -1.50 0.10 0 0.20 0.70 0.20 1.50 0 0.85 -0.20 1.50 -0.40 1.50 -0.25 0 -0.35 -0.65 -0.20 -1.50z"/>
  <path d="M26.50 19.75 c0 -0.40 0.35 -0.75 0.75 -0.75 0.50 0 0.75 -0.50 0.80 -1.35 0 -1.20 0.05 -1.25 0.40 -0.40 0.25 0.65 0.15 1.40 -0.35 2.15 -0.80 1.25 -1.60 1.45 -1.60 0.35z"/>
  <path d="M19.55 16.75 c0.05 -2.35 0.20 -2.65 0.70 -1.90 1.10 1.60 1.20 3.10 0.35 3.65 -0.75 0.40 -0.70 0.45 0.15 0.50 0.60 0 1.30 -0.25 1.65 -0.60 0.45 -0.45 0.60 -0.40 0.60 0.25 0 0.65 -0.45 0.85 -1.75 0.85 l-1.75 0 0.05 -2.75z"/>
  <path d="M23 16.80 c0 -0.40 0.20 -0.85 0.45 -1 0.20 -0.15 0.55 -0.95 0.70 -1.80 0.20 -0.80 0.55 -1.50 0.85 -1.50 0.80 0 0.60 2.30 -0.25 3 -0.40 0.35 -0.75 0.95 -0.75 1.30 0 0.40 -0.20 0.70 -0.50 0.70 -0.25 0 -0.50 -0.30 -0.50 -0.70z"/>
  <path d="M21.20 13.80 c-0.30 -0.70 1.70 -5.45 3 -7.05 1.10 -1.45 1.05 0.05 -0.15 2.55 -0.50 1.05 -1.10 2.70 -1.30 3.60 -0.35 1.65 -1.10 2.10 -1.55 0.90z"/>
  <path d="M18.65 12.25 c-0.35 -0.40 -0.65 -0.85 -0.65 -1 0 -0.15 0.30 -0.25 0.65 -0.25 0.30 0 1.05 -0.90 1.55 -2 0.90 -1.85 5.25 -7 5.95 -7 0.65 0 -0.70 2.65 -1.85 3.55 -1.50 1.15 -4.30 5.50 -4.30 6.60 0 1.05 -0.55 1.05 -1.35 0.10z"/>
 </g>
 <g fill="#c2c9bd">
  <path d="M17.60 32.45 c-0.35 -0.55 -0.55 -1.20 -0.40 -1.35 0.50 -0.45 1.40 0.75 1.20 1.60 -0.10 0.70 -0.25 0.65 -0.80 -0.25z"/>
  <path d="M19.25 31 c-0.90 -0.35 -0.90 -0.40 -0.15 -0.75 0.55 -0.20 1.20 -0.05 1.65 0.45 0.90 0.90 0.25 1.05 -1.50 0.30z"/>
  <path d="M13.25 27.50 c-0.20 -0.30 -0.15 -0.50 0.05 -0.50 0.20 0 -0.05 -0.45 -0.55 -1 -0.90 -0.95 -0.85 -1 0.05 -1 1.10 0 2.20 0.90 2.20 1.80 0 0.75 -1.40 1.30 -1.75 0.70z"/>
  <path d="M17.25 27.50 c-0.15 -0.25 0.15 -0.50 0.70 -0.50 0.60 0 1.05 0.25 1.05 0.50 0 0.30 -0.30 0.50 -0.70 0.50 -0.40 0 -0.90 -0.20 -1.05 -0.50z"/>
  <path d="M19.85 26.60 c-0.95 -1.05 -1.15 -3.60 -0.30 -3.60 0.25 0 0.40 0.20 0.25 0.40 -0.10 0.20 -0.05 0.70 0.20 1.10 0.30 0.50 0.50 0.30 0.75 -0.80 0.15 -0.80 0.50 -1.85 0.80 -2.30 0.65 -1.20 0.55 -1.40 -0.30 -1.05 -0.45 0.15 -1.15 -0.15 -1.55 -0.65 -0.45 -0.55 -0.65 -0.70 -0.50 -0.40 0.40 0.80 -1 1.90 -1.95 1.50 -0.40 -0.15 -0.60 -0.60 -0.45 -1.05 0.20 -0.40 -0.05 -0.85 -0.50 -1.05 -0.45 -0.15 -0.80 -0.70 -0.80 -1.20 0 -1.35 -0.80 -1.65 -1.75 -0.70 -0.80 0.80 -0.80 1.45 0 4.10 0.50 1.60 -0.40 1.35 -1.05 -0.25 -0.35 -0.80 -0.75 -1.85 -1 -2.40 -0.35 -0.80 -0.45 -0.65 -0.60 0.90 -0.10 1 -0.35 1.85 -0.65 1.85 -0.60 0 -0.60 -3.85 0.05 -4.25 0.65 -0.40 0.65 -3.25 0 -3.25 -0.25 0 -0.50 -1 -0.50 -2.25 0 -2.15 0.05 -2.25 1.50 -2.25 1 0 1.50 0.25 1.50 0.75 0 0.40 0.35 0.75 0.75 0.75 0.50 0 0.75 -0.50 0.75 -1.60 0.05 -1.40 0.10 -1.50 0.55 -0.75 0.30 0.45 0.70 0.75 0.95 0.60 0.20 -0.15 0.30 0.15 0.15 0.70 -0.15 0.50 0 1.10 0.30 1.25 0.30 0.20 0.55 0.15 0.55 -0.15 0 -0.25 0.70 -0.15 1.50 0.25 1.40 0.75 2.10 2.20 1 2.20 -0.25 0 -0.50 -0.20 -0.50 -0.45 0 -0.25 -0.35 -0.55 -0.75 -0.75 -1.10 -0.40 -0.95 -0.15 1 2 1.80 1.95 2.35 4.35 1.15 4.85 -0.35 0.15 -0.20 0.30 0.40 0.30 1.25 0.05 2.20 -0.85 2.20 -2.05 0 -0.50 0.25 -0.90 0.50 -0.90 0.30 0 0.50 0.55 0.50 1.20 0 0.65 0.30 1.35 0.65 1.50 0.30 0.15 0.10 0.15 -0.45 0.05 -0.90 -0.25 -1.15 0 -1.50 1.85 -0.40 2.15 -0.50 3 -0.65 5.55 -0.05 1.55 -1 1.75 -2.20 0.45z"/>
  <path d="M9.30 23.20 c-0.15 -0.45 -0.30 -1.25 -0.30 -1.85 0.05 -1.05 0.10 -1.05 1.25 0.30 0.70 0.75 1.25 1.60 1.25 1.90 0 0.75 -1.85 0.50 -2.20 -0.35z"/>
  <path d="M26.15 20.15 c-1.10 -0.40 -0.70 -1.15 0.65 -1.15 0.75 0 1.20 0.25 1.10 0.60 -0.25 0.70 -0.90 0.90 -1.75 0.55z"/>
  <path d="M7 6.75 c0 -1 1.45 -2.60 2.95 -3.25 1.65 -0.65 2.30 -0.30 3.45 1.85 0.85 1.60 0.85 1.60 -1.95 1.55 -2.40 -0.05 -2.50 -0.10 -2.20 -1.30 0.30 -1.20 0.25 -1.20 -0.95 0.20 -0.70 0.80 -1.30 1.20 -1.30 0.95z"/>
  <path d="M8.50 2.30 c0 -0.65 1.95 -1.50 2.45 -1.05 0.25 0.30 -1.45 1.70 -2.05 1.75 -0.25 0 -0.40 -0.30 -0.40 -0.70z"/>
 </g>
 <g fill="#ced7d3">
  <path d="M19.50 31 c-0.40 -0.25 -0.55 -0.60 -0.40 -0.75 0.20 -0.20 0.85 0 1.50 0.45 1.20 0.85 0.25 1.15 -1.10 0.30z"/>
  <path d="M13.60 27.40 c0.25 -0.60 -0.10 -1.05 -1.35 -1.60 -2.05 -1 -3.25 -2.60 -3.25 -4.30 l0.05 -1.25 1 1.25 c1.90 2.35 2.30 2.75 3.75 3.80 1.40 1.05 1.40 1.05 0.45 2 -0.75 0.80 -0.90 0.80 -0.65 0.10z"/>
  <path d="M20.30 26.20 c-0.40 -1.10 -0.40 -1.20 0.40 -1.20 0.75 0 1.40 1.20 0.95 1.70 -0.55 0.50 -1.05 0.35 -1.35 -0.50z"/>
  <path d="M17.05 19.45 c-1.10 -1.20 -1.65 -3.45 -1 -4.25 0.30 -0.40 0.20 -0.70 -0.30 -0.90 -0.45 -0.15 -0.75 0 -0.75 0.45 0 0.40 -0.30 0.90 -0.65 1.10 -0.30 0.20 -0.95 1.05 -1.35 1.85 -0.70 1.35 -0.75 1.40 -0.90 0.40 -0.10 -0.60 -0.35 -1.10 -0.55 -1.10 -0.25 0 -0.35 -1.05 -0.25 -2.35 0.10 -1.35 0.05 -2.10 -0.10 -1.75 -0.85 1.75 -1.60 -0.95 -1.80 -6.55 l-0.10 -1.90 -0.90 1.15 c-0.70 0.95 -0.90 1 -0.90 0.30 0 -1.65 4.15 -3.50 4.70 -2.15 0.15 0.45 0.10 0.65 -0.20 0.50 -0.30 -0.15 -0.50 -0.05 -0.50 0.20 0 0.30 0.35 0.55 0.75 0.55 0.65 0 3.75 3.95 3.75 4.85 0 0.20 1.15 1.65 2.50 3.15 1.70 1.85 2.50 3.20 2.50 4.15 0 0.75 -0.20 1.35 -0.50 1.35 -0.25 0 -0.50 -0.20 -0.50 -0.50 0 -0.25 -0.35 -0.50 -0.75 -0.50 -0.55 0 -0.60 0.25 -0.25 1.20 0.75 2 -0.35 2.45 -1.95 0.75z m-2.05 -6.70 c0 -0.40 -0.20 -0.75 -0.50 -0.75 -0.25 0 -0.50 0.35 -0.50 0.75 0 0.40 0.25 0.75 0.50 0.75 0.30 0 0.50 -0.35 0.50 -0.75z"/>
  <path d="M26 20 c-0.95 -0.60 -0.35 -1.10 1.05 -0.90 0.95 0.10 1 0.25 0.40 0.75 -0.45 0.35 -1 0.45 -1.45 0.15z"/>
  <path d="M18.15 11.75 c-1.55 -1.50 -1.45 -1.80 0.35 -0.95 0.85 0.45 1.50 1.10 1.50 1.50 0 0.95 -0.55 0.80 -1.85 -0.55z"/>
  <path d="M7.50 3.10 c0 -0.75 1.20 -1.60 2.25 -1.60 0.95 0.05 0.95 0.05 -0.20 1 -1.20 1.05 -2.05 1.30 -2.05 0.60z"/>
 </g>
 <g fill="#fdf6a2">
  <path d="M18.10 35.60 c-0.05 -1.45 -0.35 -3.10 -0.60 -3.65 -0.40 -0.65 -0.35 -0.95 0 -0.95 0.85 0 1.05 1.15 0.85 4.30 l-0.15 2.95 -0.10 -2.65z"/>
  <path d="M19 16.70 c0 -0.65 -0.15 -0.70 -0.70 -0.25 -0.60 0.50 -0.70 0.35 -0.70 -1.05 0.05 -0.90 -0.10 -2.05 -0.35 -2.55 -0.75 -1.75 0.10 -1.30 1.90 1.10 2.10 2.75 2.30 3.55 0.85 3.55 -0.60 0 -1 -0.35 -1 -0.80z"/>
  <path d="M18.15 11.70 c-1.50 -1.60 -1.45 -1.75 0.35 -0.90 0.85 0.45 1.50 1.10 1.50 1.50 0 1 -0.55 0.80 -1.85 -0.60z"/>
  <path d="M7.50 5.50 c0.45 -0.90 2 -2 2.70 -2 0.15 0 0.30 0.70 0.30 1.50 0 1 -0.25 1.50 -0.75 1.50 -0.65 0 -0.70 -0.20 -0.25 -1 0.35 -0.65 0.35 -1 0.05 -1 -0.30 0 -0.75 0.45 -1.05 1 -0.30 0.55 -0.75 1 -1.05 1 -0.30 0 -0.30 -0.35 0.05 -1z"/>
 </g>
 <g fill="#e2e8de">
  <path d="M16.85 18.15 c-0.20 -0.15 -0.35 -0.85 -0.35 -1.45 0 -0.80 0.25 -1.10 0.70 -0.90 0.40 0.15 0.85 0 1.05 -0.30 0.25 -0.40 0.55 -0.35 1.10 0.10 0.45 0.35 0.95 0.55 1.10 0.40 0.15 -0.15 0.35 0.15 0.45 0.65 0.10 0.60 -0.15 0.85 -0.85 0.85 -0.60 0 -1.05 -0.30 -1.05 -0.80 0 -0.40 -0.20 -0.60 -0.50 -0.45 -0.25 0.15 -0.50 0.75 -0.50 1.30 0 0.95 -0.55 1.25 -1.15 0.60z"/>
  <path d="M23 17.05 c0 -0.55 0.25 -1.15 0.50 -1.30 0.30 -0.15 0.50 0.15 0.50 0.70 0 0.55 -0.20 1.15 -0.50 1.30 -0.25 0.15 -0.50 -0.15 -0.50 -0.70z"/>
  <path d="M11.85 12.30 c0.15 -2.80 0.05 -4.30 -0.25 -4.30 -0.30 0 -0.65 -0.50 -0.75 -1.10 -0.15 -0.65 -0.15 0.50 -0.05 2.50 0.10 2.15 0 3.60 -0.30 3.60 -0.30 0 -0.50 -0.80 -0.50 -1.75 0 -0.95 -0.25 -2.30 -0.60 -3 -0.40 -0.95 -0.40 -1.55 0 -2.50 0.40 -0.85 0.40 -1.25 0.05 -1.25 -0.80 0 -0.05 -0.85 1 -1.15 0.60 -0.15 1.30 0.10 1.65 0.55 0.50 0.60 0.50 0.70 0.05 0.40 -0.40 -0.20 -0.65 -0.10 -0.65 0.20 0 0.35 0.45 0.70 0.95 0.85 0.85 0.20 3.55 3.60 3.55 4.40 0 0.20 0.70 1.20 1.55 2.25 1.50 1.85 1.55 2 0.70 2.85 -0.65 0.65 -1 0.70 -1.15 0.25 -0.10 -0.30 -0.50 -0.60 -0.90 -0.60 -0.65 0 -1.35 -1.75 -1.15 -2.80 0.15 -0.95 -0.05 -1.70 -0.55 -1.70 -0.25 0 -0.50 0.95 -0.50 2.15 0 2.20 -0.20 2.70 -1.60 3.75 -0.80 0.65 -0.85 0.35 -0.55 -3.60z m2.65 -3.50 c0 -0.10 -0.15 -0.55 -0.30 -1 -0.45 -1.15 -1.20 -1 -1.20 0.20 0 0.55 0.35 1 0.75 1 0.40 0 0.75 -0.10 0.75 -0.20z"/>
  <path d="M7 6.75 c0 -0.90 0.95 -2 1.30 -1.60 0.20 0.20 0 0.75 -0.45 1.20 -0.45 0.50 -0.85 0.65 -0.85 0.40z"/>
  <path d="M8.05 2.45 c0.25 -0.50 0.95 -0.95 1.55 -0.95 0.80 0 0.90 0.15 0.45 0.70 -0.30 0.40 -1 0.80 -1.55 0.95 -0.85 0.20 -0.90 0.10 -0.45 -0.70z"/>
 </g>
 <g fill="#f8fbf1">
  <path d="M17.15 13 c-0.65 -0.75 -1.30 -1.80 -1.45 -2.30 -0.25 -0.80 -0.20 -0.80 0.25 -0.20 0.45 0.60 0.65 0.60 0.95 0.10 0.30 -0.45 0.65 -0.35 1.35 0.50 0.55 0.65 0.65 0.85 0.25 0.55 -1.25 -1.15 -1.60 -0.70 -0.55 0.80 1.75 2.45 1.05 2.95 -0.80 0.55z"/>
  <path d="M12.10 10.50 c0 -0.95 0.10 -1.35 0.25 -0.85 0.10 0.45 0.10 1.25 0 1.75 -0.15 0.45 -0.25 0.05 -0.25 -0.90z"/>
  <path d="M9.30 7.75 c-0.35 -1.30 0.70 -3.90 1.80 -4.55 0.35 -0.25 0.25 0.20 -0.20 0.90 -0.60 0.90 -0.80 1.85 -0.60 2.80 0.35 1.80 -0.55 2.60 -1 0.85z"/>
  <path d="M11.25 6.55 c-0.15 -0.25 -0.05 -0.60 0.20 -0.75 0.65 -0.40 2.10 0.20 1.75 0.75 -0.35 0.60 -1.55 0.60 -1.95 0z"/>
 </g>
</svg>