<?xml version="1.0" encoding="utf-8"?>
<!DOCTYPE svg PUBLIC "-//W3C//DTD SVG 1.0//EN" "http://www.w3.org/TR/2001/REC-SVG-20010904/DTD/svg10.dtd">
<svg version="1.0" xmlns="http://www.w3.org/2000/svg" width="40px" height="40px" viewBox="0 0 40 40" preserveAspectRatio="xMidYMid meet">
 <g fill="#100d14">
  <path d="M24.60 38.90 c0.10 -0.90 0.50 -1.15 1.60 -1.15 1.90 0 2.15 0.85 0.45 1.65 -1.90 0.85 -2.25 0.75 -2.05 -0.50z"/>
  <path d="M14.50 38.45 c0 -0.25 0.55 -0.75 1.25 -1.05 0.70 -0.30 1.40 -1.10 1.55 -1.75 0.55 -2.10 1.70 -1.35 1.70 1.10 l0 2.20 -2.25 -0.05 c-1.25 0 -2.25 -0.25 -2.25 -0.45z"/>
  <path d="M17.05 32 c-0.55 -1.70 -1.25 -1.95 -1.80 -0.60 -0.35 0.85 -0.75 0.15 -2.05 -3.50 -0.15 -0.45 -0.80 -0.95 -1.45 -1.10 -0.65 -0.15 -1.40 -0.95 -1.75 -1.80 -0.35 -0.80 -0.80 -1.50 -1.05 -1.50 -0.70 0 -0.55 -3.90 0.20 -4.10 0.30 -0.15 0.65 -1 0.75 -1.95 0.30 -4.05 0.35 -4.75 0.65 -5.20 0.45 -0.75 -0.10 -4.25 -0.65 -4.25 -0.25 0 -0.35 -0.45 -0.15 -0.95 0.25 -0.80 0.05 -1 -0.85 -0.95 -0.65 0.05 -1.45 0.30 -1.80 0.55 -1.35 1.05 -0.55 -1.55 1.30 -4.05 1.40 -1.95 2.15 -2.55 3.15 -2.60 2.05 0 2.85 1.25 4.75 7.75 0.50 1.65 0.95 3.10 1 3.20 0.10 0.10 0.70 -0.15 1.35 -0.60 1.20 -0.75 1.20 -0.75 1.85 1.20 0.65 1.90 0.95 2.15 3.75 2.55 0.60 0.10 1.05 0.60 1.15 1.30 0.15 0.85 0.50 1.10 1.65 1.10 0.80 0 1.45 -0.20 1.45 -0.50 0 -0.25 0.30 -0.50 0.70 -0.50 0.85 0 1.80 2.50 2.10 5.65 0.25 2.55 0.10 2.80 -4.30 7.70 -0.80 0.85 -1.60 2.15 -1.80 2.85 -0.35 1.40 -1.20 1.80 -1.20 0.55 0 -0.40 -0.35 -0.75 -0.80 -0.75 -0.55 0 -0.70 -0.40 -0.60 -1.35 0.15 -1.20 0.40 -1.40 2.05 -1.55 1.40 -0.10 1.85 -0.40 1.85 -1.10 0 -1.70 0.60 -2.50 1.80 -2.50 1.15 0 1.20 -0.15 1.15 -2.85 0 -2.45 -0.10 -2.75 -0.55 -1.75 -0.40 0.80 -1 1.10 -2.25 1.10 -1.50 0 -1.65 -0.15 -1.65 -1.50 0 -1.15 -0.20 -1.50 -1 -1.50 -0.80 0 -1 0.35 -1 1.50 0 1.40 -0.15 1.50 -1.75 1.50 -1.20 0 -1.75 -0.25 -1.75 -0.75 0 -0.55 -0.55 -0.75 -2 -0.75 -1.65 0 -2.10 -0.20 -2.50 -1.10 l-0.45 -1.15 0 1.15 c-0.05 0.90 -0.35 1.10 -1.55 1.10 -1.35 0 -1.50 0.15 -1.50 1.50 0 0.95 0.25 1.50 0.70 1.50 0.40 0 1.05 0.15 1.50 0.30 0.60 0.20 0.80 0 0.80 -0.80 0 -0.90 0.25 -1.05 1.90 -0.90 1.60 0.15 1.85 0.35 2 1.55 0.15 1.20 0.40 1.35 1.90 1.35 1.60 0 1.70 0.10 1.70 1.75 0 1.65 -0.10 1.75 -1.75 1.75 -1.40 0 -1.75 -0.20 -1.75 -1 0 -0.55 -0.35 -1 -0.75 -1 -0.45 0 -0.75 0.45 -0.75 1.25 0 1 0.25 1.25 1.30 1.25 0.70 0 1.70 0.25 2.25 0.50 1.10 0.60 1.30 3 0.25 3 -0.35 0 -0.95 0.35 -1.30 0.75 -0.95 1.15 -1.85 0.90 -2.45 -0.75z"/>
  <path d="M31.90 4.15 c-0.50 -0.10 -0.90 -0.55 -0.90 -0.95 0 -0.90 0.75 -0.90 1.70 0.10 1.25 1.20 1.10 1.35 -0.80 0.85z"/>
 </g>
 <g fill="#271d23">
  <path d="M17.35 39.25 c-0.50 -0.35 -1.35 -0.50 -1.95 -0.35 -0.75 0.15 -0.95 0.05 -0.80 -0.45 0.20 -0.60 3.40 -1.60 3.80 -1.20 0.10 0.10 0.10 0.75 0 1.40 -0.15 1.15 -0.25 1.20 -1.05 0.60z"/>
  <path d="M17.45 31.75 c-1.30 -1.35 -2.45 -1.65 -2.45 -0.60 0 0.30 -0.50 -0.45 -1.15 -1.75 -0.60 -1.35 -1.35 -2.40 -1.70 -2.40 -0.85 0 -2.75 -2.55 -2.45 -3.30 0.15 -0.40 -0.05 -0.55 -0.50 -0.35 -0.75 0.25 -0.90 -0.25 -0.40 -1.55 0.15 -0.45 0.50 -0.70 0.70 -0.55 0.25 0.15 0.35 -0.85 0.25 -2.20 -0.15 -2.10 -0.05 -2.40 0.65 -2.20 1.35 0.35 3.85 -2.05 3.35 -3.20 -0.20 -0.50 -0.45 -1.80 -0.55 -2.95 -0.05 -1.10 -0.20 -2.25 -0.30 -2.50 -0.10 -0.25 0.10 -0.50 0.35 -0.60 0.30 -0.05 0.60 0.35 0.65 1 0.10 0.60 0.55 1.35 0.95 1.70 0.50 0.35 0.70 1 0.55 1.85 -0.15 0.75 -0.05 1.35 0.15 1.35 0.25 0 0.45 -0.20 0.45 -0.50 0 -0.90 0.95 -0.50 1.25 0.55 0.35 1.10 2.10 1.10 1.85 -0.05 -0.10 -0.50 0.40 -0.55 2.20 -0.30 1.30 0.15 2.65 0.30 3 0.30 0.40 0 0.70 0.45 0.70 1 0 0.80 0.35 1 1.75 1 1.70 0 1.75 -0.05 1.75 -2 0 -1.65 0.15 -2 0.95 -2 0.90 0 0.95 0.30 0.80 3.10 -0.15 1.80 0 3.25 0.30 3.40 0.25 0.20 0.60 1.50 0.70 2.90 0.20 2.35 0.10 2.60 -0.75 2.60 -0.55 0 -1 -0.35 -1 -0.75 0 -0.40 -0.45 -0.75 -1 -0.75 -0.55 0 -1 -0.20 -1 -0.50 0 -0.25 -0.65 -0.50 -1.50 -0.50 -1 0 -1.50 -0.25 -1.50 -0.75 0 -0.40 -0.20 -0.75 -0.50 -0.75 -0.25 0 -0.50 0.45 -0.50 1 0 0.80 -0.35 1 -1.75 1 -2.30 0 -2.35 1.30 -0.10 1.90 1.50 0.40 1.60 0.55 1.60 2.65 l0 2.20 1.90 -0.20 c1 -0.05 1.85 0.05 1.85 0.25 -0.05 0.75 -2 3 -2 2.30 0 -0.35 -0.25 -0.50 -0.50 -0.35 -0.40 0.25 -0.35 0.60 0.10 1.15 0.55 0.70 0.50 0.75 -0.25 0.45 -0.50 -0.20 -1.15 -0.35 -1.40 -0.35 -0.25 0 -0.45 -0.65 -0.45 -1.50 0 -1.25 -0.20 -1.50 -1.10 -1.50 -1.05 0.05 -1.05 0.10 -0.25 0.55 1.20 0.70 1.15 2.95 -0.10 2.95 -0.55 0 -1.15 0.25 -1.30 0.50 -0.50 0.80 -1.05 0.60 -2.30 -0.75z m2.55 -0.25 c0 -0.45 -1.55 -1.50 -2.20 -1.50 -0.40 0 1.35 1.90 1.85 1.95 0.20 0.05 0.35 -0.15 0.35 -0.45z m-4.80 -4.25 c0.15 -0.40 0.50 -0.75 0.80 -0.75 0.25 0 0.50 0.35 0.50 0.75 0 0.40 0.45 0.75 1 0.75 0.55 0 1 -0.20 1 -0.50 0 -0.25 -0.30 -0.50 -0.70 -0.50 -0.55 0 -0.80 -1.05 -1.10 -4 -0.30 -3.50 -0.45 -4 -1.30 -4 -0.50 0 -1.05 -0.35 -1.20 -0.75 -0.50 -1.20 -1.45 -0.85 -2 0.65 -0.45 1.20 -0.35 1.60 0.80 3 0.70 0.90 1.60 1.60 1.90 1.60 0.35 0 0.60 0.55 0.60 1.25 0 1.20 0 1.20 -2.05 0.50 -2.80 -1 -2.85 -1 -0.90 1 1.90 1.95 2.20 2.05 2.65 1z m2.80 -9.20 c0 -0.25 -0.30 -1.05 -0.70 -1.80 -0.85 -1.60 -1.50 -0.85 -0.80 0.95 0.45 1.25 1.50 1.80 1.50 0.85z m2.45 -1.65 c0 -0.90 -0.15 -1.35 -0.30 -1 -0.10 0.30 -0.45 0.50 -0.70 0.30 -0.25 -0.15 -0.45 0.20 -0.45 0.75 0 0.80 0.35 1.20 1.40 1.50 0.05 0.05 0.10 -0.70 0.05 -1.55z"/>
  <path d="M10.80 16.10 c-0.15 -0.30 -0.20 -2.25 -0.05 -4.40 0.15 -2.50 0.05 -4.10 -0.30 -4.55 -0.80 -0.95 -0.10 -1.50 0.80 -0.60 0.90 0.90 1.25 8.60 0.45 9.45 -0.40 0.40 -0.70 0.40 -0.90 0.10z"/>
  <path d="M16.15 10.20 c-0.55 -1.55 -3.80 -5.20 -4.65 -5.20 -0.65 -0.05 -0.60 -0.15 0.10 -0.70 1.05 -0.80 4.05 -0.45 3.70 0.45 -0.10 0.35 -0.05 0.80 0.15 1.05 0.65 0.75 1.75 4.70 1.40 5 -0.20 0.20 -0.50 -0.10 -0.70 -0.60z"/>
  <path d="M20.55 7.65 c0.60 -1.05 1.50 -2.35 2.05 -2.90 0.90 -0.95 0.90 -0.95 0.90 0.90 0 1 -0.20 1.85 -0.50 1.85 -0.25 0 -0.50 0.45 -0.50 1 0 0.80 -0.35 1 -1.55 1 l-1.55 0 1.15 -1.85z"/>
  <path d="M7.15 5.90 c1 -1.60 1.10 -2.10 0.25 -1.60 -0.35 0.20 -0.40 0.15 -0.20 -0.25 0.20 -0.30 0.55 -0.45 0.80 -0.30 0.45 0.25 1.20 -0.60 1.25 -1.50 0.10 -1.25 0.95 -2.25 1.85 -2.25 0.50 0 0.80 0.25 0.65 0.50 -0.15 0.30 0 0.50 0.40 0.50 0.90 0 2.25 1.45 1.40 1.55 -0.30 0.05 -0.75 0.15 -1.05 0.20 -0.25 0.05 -0.75 0.15 -1 0.20 -0.30 0 -1.60 1 -2.85 2.20 -1.85 1.65 -2.20 1.80 -1.50 0.75z"/>
 </g>
 <g fill="#352b30">
  <path d="M17.50 39.25 c-0.40 -0.50 -1.05 -0.65 -1.95 -0.40 -1.15 0.30 -1.25 0.25 -0.60 -0.50 0.35 -0.50 1.10 -0.85 1.60 -0.85 0.55 0 0.95 -0.35 0.95 -0.75 0 -1 0.80 -0.95 1.20 0.05 0.45 1.15 0.35 3.20 -0.15 3.20 -0.25 0 -0.70 -0.35 -1.05 -0.75z"/>
  <path d="M25.50 37.95 c0 -0.75 -0.20 -1.95 -0.50 -2.65 -0.35 -1 -0.30 -1.30 0.20 -1.30 0.40 0 1.05 0.90 1.50 2 0.45 1.10 1.15 2 1.55 2 1.50 0 0.70 0.90 -1 1.10 -1.60 0.20 -1.75 0.10 -1.75 -1.15z"/>
  <path d="M18.50 33.10 c0 -0.35 -0.30 -0.60 -0.70 -0.60 -0.35 0 -0.80 -0.45 -0.95 -1 -0.15 -0.55 -0.70 -1 -1.25 -1 -1 0 -2.95 -2.35 -2.35 -2.90 0.15 -0.20 0.50 0 0.75 0.40 0.60 0.95 1.10 0.40 1.20 -1.20 0.05 -1.15 0.25 -1.30 1.90 -1.30 1 0 1.95 -0.20 2.10 -0.45 0.15 -0.25 -0.75 -0.30 -1.95 -0.15 -2.15 0.20 -2.25 0.20 -2.25 -1.10 0 -1.05 -0.25 -1.30 -1.10 -1.25 -0.85 0.05 -0.95 0.10 -0.25 0.30 0.50 0.15 0.85 0.70 0.85 1.40 0 1.55 -1.20 1.20 -3.10 -0.95 -1.80 -2.05 -1.85 -3.50 -0.15 -3.20 0.85 0.20 1.25 0.05 1.25 -0.40 0 -0.40 -0.55 -0.70 -1.30 -0.70 -1.25 0 -1.30 -0.05 -0.60 -1.10 0.40 -0.60 1.40 -1.40 2.20 -1.85 1.20 -0.65 1.45 -1.10 1.45 -2.65 0 -1.05 0.20 -1.85 0.50 -1.75 0.25 0.05 0.40 0.60 0.35 1.25 -0.10 0.75 0.10 1.10 0.60 1.10 0.45 0 0.80 -0.25 0.80 -0.60 0 -0.30 0.10 -0.45 0.25 -0.30 0.15 0.15 -0.05 1.05 -0.45 2 -0.70 1.65 -0.70 1.85 0.15 2.60 1.15 1.05 2.05 1 2.10 -0.05 0 -0.55 0.15 -0.65 0.30 -0.25 0.10 0.30 0.55 0.60 0.95 0.60 0.50 0 0.70 -0.55 0.65 -1.85 -0.05 -1.05 -0.15 -1.50 -0.30 -1 -0.20 0.70 -0.40 0.80 -0.95 0.30 -0.50 -0.40 -0.55 -0.75 -0.15 -1.25 0.40 -0.45 0.25 -0.90 -0.50 -1.65 l-1.05 -1.05 1.75 0 c1.60 0 1.75 0.15 1.75 1.45 0 1.40 0.05 1.40 2.25 1.15 1.50 -0.15 2.25 -0.05 2.25 0.35 0 0.30 0.70 0.55 1.50 0.55 1.35 0 1.50 0.15 1.55 1.65 0.05 0.85 0.15 1.20 0.30 0.75 0.25 -1.05 1.15 -1.20 1.15 -0.20 0 0.40 0.20 0.80 0.40 0.90 0.25 0.10 0.60 1.35 0.75 2.75 l0.30 2.65 -3.30 3.85 c-1.85 2.15 -3.20 3.50 -3 3.05 0.20 -0.60 0.10 -0.75 -0.45 -0.55 -0.85 0.30 -0.90 0.75 -0.10 1.55 0.30 0.30 0.40 0.75 0.20 0.95 -0.20 0.20 -0.55 0.05 -0.75 -0.30 -0.50 -0.80 -3.40 -0.30 -4.65 0.85 -0.55 0.45 -0.90 0.55 -0.90 0.20z m1.75 -1.60 c0.15 -0.25 -0.40 -0.80 -1.20 -1.25 -0.95 -0.45 -1.60 -0.55 -1.80 -0.25 -0.15 0.30 0.05 0.50 0.50 0.50 0.40 0 0.90 0.35 1.05 0.75 0.35 0.85 1 1 1.45 0.25z m4.45 -4.25 c0.75 -0.40 1.85 -0.75 2.35 -0.75 0.70 0 0.95 -0.35 0.95 -1.50 0 -1.35 -0.15 -1.50 -1.50 -1.50 -1.15 0 -1.50 -0.25 -1.50 -0.95 0 -0.50 -0.35 -1.20 -0.75 -1.55 -0.60 -0.50 -0.75 -0.50 -0.75 0.20 0 0.60 -0.50 0.80 -2 0.80 -1.45 0 -2 -0.20 -2 -0.75 0 -0.50 -0.55 -0.75 -1.75 -0.75 -0.95 0 -1.75 0.25 -1.75 0.50 0 0.30 0.45 0.50 1.05 0.50 0.60 0 1.15 0.40 1.30 0.90 0.15 0.70 0.60 0.85 2.20 0.70 l1.95 -0.20 0.05 3.40 c0 1.90 0.20 3.05 0.35 2.55 0.20 -0.50 1 -1.20 1.80 -1.60z m-2.95 -1.25 c0 -1.10 -1.45 -0.90 -1.65 0.15 -0.15 0.70 0.05 0.90 0.75 0.75 0.50 -0.10 0.90 -0.50 0.90 -0.90z m5.80 -6.70 c0.25 0.15 0.20 -0.30 -0.10 -1 -0.65 -1.35 -1.45 -1.30 -1.45 0.15 0 1.05 0.65 1.85 0.90 1.10 0.10 -0.30 0.40 -0.45 0.65 -0.25z m-3.85 -2.70 c0.10 -0.20 0.05 -0.70 -0.15 -1.05 -0.30 -0.45 -0.50 -0.35 -0.70 0.40 -0.25 1 0.35 1.45 0.85 0.65z"/>
  <path d="M10.75 26 c-0.70 -0.80 -0.80 -1.20 -0.35 -2.10 0.50 -1.05 0.55 -1.05 0.55 -0.20 0.05 0.55 0.55 1.50 1.15 2.15 0.80 0.90 0.90 1.15 0.30 1.15 -0.40 0 -1.15 -0.45 -1.65 -1z"/>
  <path d="M10.50 15 c0 -0.55 0.35 -1 0.75 -1 0.85 0 0.90 0.10 0.45 1.20 -0.45 1.15 -1.20 1 -1.20 -0.20z"/>
  <path d="M15.90 9.50 c-0.40 -1 -1.50 -2.50 -2.35 -3.40 -1.70 -1.70 -1.75 -3 0 -2.10 0.50 0.30 0.95 0.35 0.95 0.15 0.05 -0.20 0.60 0.95 1.30 2.60 0.65 1.65 1.15 3.35 1.05 3.75 -0.10 0.45 -0.50 0.05 -0.95 -1z"/>
  <path d="M7.50 5.50 c0.30 -0.55 0.80 -1 1.10 -1 0.30 0 0.15 0.45 -0.35 1 -0.50 0.55 -1 1 -1.10 1 -0.10 0 0.05 -0.45 0.35 -1z"/>
 </g>
 <g fill="#2b324d">
  <path d="M17.70 39.25 c-0.20 -0.40 -0.60 -0.75 -1 -0.75 -0.40 0 -0.70 -0.20 -0.70 -0.40 0 -0.25 0.75 -0.45 1.65 -0.40 1.25 0.05 1.65 0.30 1.75 1.20 0.20 1.25 -1.25 1.60 -1.70 0.35z"/>
  <path d="M24 39.05 c0 -0.25 0.35 -0.70 0.75 -1.05 0.40 -0.35 0.75 -0.95 0.75 -1.30 0 -0.40 0.35 -0.70 0.75 -0.70 1.05 0 1 2.80 -0.05 3.20 -1.15 0.45 -2.20 0.35 -2.20 -0.15z"/>
  <path d="M17.50 32.50 c0 -2.20 0.25 -2.40 1.50 -1.15 0.60 0.70 0.70 1.10 0.30 2 -0.85 1.85 -1.80 1.40 -1.80 -0.85z"/>
  <path d="M19 28.25 c0 -0.90 -0.20 -1.15 -0.75 -0.95 -0.60 0.25 -0.75 -0.15 -0.75 -1.75 0 -1.70 0.15 -2.05 1 -2.05 0.85 0 1 -0.35 1 -2 0 -1.10 0.20 -2 0.45 -2 0.70 0 1.05 -2.20 0.60 -3.75 -0.30 -0.95 -0.50 -1.15 -0.50 -0.55 -0.05 0.75 -0.20 0.80 -0.80 0.30 -0.60 -0.50 -0.65 -0.80 -0.15 -1.35 0.50 -0.65 0.40 -0.95 -0.55 -1.70 -1.15 -0.95 -1.15 -1 -0.25 -1.70 0.85 -0.60 0.95 -0.55 1.10 0.55 0.10 0.80 0.50 1.20 1.15 1.20 0.70 0 0.95 0.35 0.95 1.50 0 1.15 0.20 1.40 0.80 1.15 0.65 -0.25 0.75 -0.10 0.45 0.85 -0.25 0.80 -0.20 1.05 0.30 0.90 0.40 -0.15 0.65 -0.65 0.65 -1.10 -0.05 -0.45 0.30 -0.80 0.80 -0.80 0.60 0 0.95 0.55 1.15 1.85 0.20 1 0.15 2.05 -0.05 2.35 -0.85 1.30 -1.60 4.20 -1.60 6.20 0 3.20 -0.65 4.10 -3 4.10 -1.80 0 -2 -0.15 -2 -1.25z m2.50 -1.50 c0.50 -0.60 0.50 -0.90 0 -1.50 -0.80 -0.95 -1.50 -0.50 -1.50 1.05 0 1.35 0.60 1.55 1.50 0.45z m0.50 -7.30 c0 -0.55 -0.20 -0.85 -0.50 -0.70 -0.25 0.15 -0.50 0.65 -0.50 1.05 0 0.40 0.25 0.70 0.50 0.70 0.30 0 0.50 -0.45 0.50 -1.05z"/>
  <path d="M12.15 23.15 c-1.75 -4.20 -1.70 -6.65 0.15 -6.65 0.40 0 0.70 -0.25 0.70 -0.60 0 -0.30 0.15 -0.40 0.35 -0.25 0.15 0.20 0.90 -0.15 1.55 -0.75 l1.25 -1.15 -0.30 1.50 c-0.15 0.85 -0.45 1.90 -0.60 2.35 -0.25 0.65 -0.10 0.75 0.70 0.55 0.60 -0.15 1.05 -0.05 1.05 0.30 0 0.30 -0.30 0.55 -0.70 0.55 -0.60 0 -0.65 0.55 -0.45 2.75 l0.30 2.75 -1.70 0 c-1.40 0 -1.80 -0.25 -2.30 -1.35z"/>
  <path d="M25.50 20.35 c0 -0.80 0.15 -0.85 0.75 -0.35 0.60 0.50 0.75 0.45 0.75 -0.20 0 -0.50 0.25 -0.70 0.55 -0.50 0.40 0.20 0.40 0 0 -0.75 -0.50 -0.90 -0.45 -1.05 0.40 -1.05 1.30 0 1.60 0.60 1.25 2.45 -0.30 1.35 -0.50 1.50 -2 1.45 -1.35 -0.05 -1.70 -0.25 -1.70 -1.05z"/>
  <path d="M15.65 9 c-0.75 -1.45 -0.85 -2 -0.40 -2 0.65 0 2.05 3.35 1.60 3.80 -0.10 0.15 -0.65 -0.65 -1.20 -1.80z"/>
  <path d="M12.70 5.45 c-1.40 -0.70 -1.50 -0.85 -0.75 -1.30 1 -0.65 2.75 0.40 2.45 1.45 -0.10 0.50 -0.45 0.50 -1.70 -0.15z"/>
  <path d="M7.50 5.65 c0 -0.25 0.40 -1 0.85 -1.65 0.50 -0.70 0.90 -1.45 0.90 -1.75 0.10 -0.95 0.85 -2.25 1.35 -2.25 0.30 0 0.35 0.35 0.20 0.80 -0.20 0.60 -0.10 0.75 0.45 0.50 0.40 -0.15 0.75 -0.05 0.75 0.20 0 0.25 0.40 0.55 0.90 0.65 0.65 0.20 0.55 0.25 -0.25 0.30 -0.65 0 -2.05 0.85 -3.15 1.85 -1.10 1 -2 1.60 -2 1.35z"/>
 </g>
 <g fill="#533730">
  <path d="M19.50 39.25 c0 -0.45 -0.50 -0.75 -1.30 -0.75 -1 0 -1.25 -0.20 -1 -0.80 0.15 -0.45 0.30 -1.20 0.30 -1.75 0 -0.50 0.35 -0.95 0.75 -0.95 0.50 0 0.75 0.50 0.75 1.50 0 0.85 0.20 1.50 0.50 1.50 0.25 0 0.70 0.45 1 1 0.45 0.80 0.40 1 -0.25 1 -0.40 0 -0.75 -0.35 -0.75 -0.75z"/>
  <path d="M25.40 36.65 c-0.15 -0.80 -0.45 -1.80 -0.65 -2.25 -0.25 -0.60 -0.15 -0.90 0.35 -0.90 0.65 0 1.90 2.55 1.90 3.90 0 1.20 -1.40 0.55 -1.60 -0.75z"/>
  <path d="M20.70 31.15 c0.15 -0.40 0.30 -0.85 0.30 -0.95 0 -0.10 0.35 -0.20 0.75 -0.20 1.15 0 0.90 1.35 -0.30 1.65 -0.75 0.20 -0.95 0.10 -0.75 -0.50z"/>
  <path d="M16.90 31 c-0.10 -0.30 -0.65 -0.60 -1.20 -0.60 -1 -0.10 -3.15 -2.90 -2.20 -2.90 0.20 0 0.55 0.30 0.65 0.65 0.20 0.45 0.40 0.40 0.80 -0.15 0.90 -1.25 0.60 -2 -1.05 -2.80 -1.90 -0.95 -3.90 -3.75 -3.90 -5.50 0 -1.10 0.55 -1.85 2.65 -3.55 0.40 -0.30 0.90 -0.45 1.05 -0.30 0.15 0.20 0.65 -0.10 1.10 -0.65 0.70 -0.90 0.75 -0.80 0.50 1.15 -0.25 1.75 -0.20 2.05 0.45 1.85 0.40 -0.20 1.10 0 1.55 0.35 0.65 0.50 0.80 0.45 1.05 -0.45 0.25 -0.95 0.35 -1 1 -0.30 2.15 2.10 1.85 -2.25 -0.30 -4.85 l-1.35 -1.60 1.15 -1.15 c0.65 -0.65 1.30 -1.20 1.40 -1.20 0.15 0 0.25 0.80 0.25 1.75 0 1.20 0.25 1.75 0.75 1.75 0.40 0 0.75 0.45 0.75 0.95 0 0.55 0.25 1.15 0.50 1.30 0.60 0.40 0.10 2.70 -0.80 3.80 -0.85 0.95 -0.90 1.95 -0.15 1.95 0.30 0 0.15 0.35 -0.25 0.80 -0.45 0.40 -0.80 1.45 -0.80 2.25 0 1.30 -0.15 1.45 -1 1.20 -1.40 -0.45 -1.25 0.25 0.50 2.15 1.80 2 1.90 2.60 0.40 2.60 -0.95 0 -1 0.10 -0.40 0.50 0.65 0.40 0.65 0.50 -0.05 0.50 -0.45 0 -1.10 -0.35 -1.45 -0.75 -0.80 -0.95 -1.65 -0.45 -1.25 0.80 0.20 0.50 0.20 0.95 0.10 0.95 -0.15 0 -0.35 -0.25 -0.45 -0.50z m0.10 -7.25 c0 -0.40 -0.20 -0.75 -0.50 -0.75 -0.25 0 -0.50 0.35 -0.50 0.75 0 0.40 0.25 0.75 0.50 0.75 0.30 0 0.50 -0.35 0.50 -0.75z m-1.25 -1.25 c0.15 -0.25 -0.15 -0.50 -0.70 -0.50 -0.60 0 -1.05 0.25 -1.05 0.50 0 0.30 0.30 0.50 0.70 0.50 0.40 0 0.90 -0.20 1.05 -0.50z m-1.80 -2.30 c-0.70 -0.90 -1.20 -0.55 -0.75 0.55 0.15 0.45 0.55 0.65 0.80 0.50 0.40 -0.25 0.35 -0.55 -0.05 -1.05z"/>
  <path d="M11.20 26.30 c-0.50 -0.40 -0.85 -0.85 -0.70 -0.95 0.15 -0.15 0.70 0.05 1.20 0.45 0.55 0.35 0.85 0.80 0.75 0.95 -0.15 0.15 -0.70 -0.10 -1.25 -0.45z"/>
  <path d="M28.15 21.65 c-0.60 -0.80 -0.90 -1.50 -0.60 -1.70 0.30 -0.15 0.20 -0.90 -0.20 -1.90 l-0.70 -1.65 -0.55 1.50 c-0.35 1.05 -0.35 1.65 0.05 2.05 0.40 0.40 0.10 0.55 -1.05 0.55 -1.40 0 -1.60 -0.15 -1.60 -1.30 0 -1.10 0.10 -1.25 0.75 -0.70 0.65 0.55 0.65 0.40 0.05 -1.40 -0.70 -1.90 -0.70 -2 0.35 -2.30 2.35 -0.60 3.85 -0.35 3.85 0.70 0 0.55 0.30 1 0.65 1 0.90 0 1.85 2.40 1.85 4.60 0 2.35 -1.20 2.55 -2.85 0.55z m1.80 -2.65 c0.05 -0.65 0 -0.65 -0.45 0 -0.25 0.40 -0.45 1.20 -0.45 1.75 l0 1 0.45 -1 c0.25 -0.55 0.45 -1.35 0.45 -1.75z"/>
  <path d="M28.20 8.70 c-0.20 -0.70 -0.20 -2.25 -0.05 -3.50 l0.25 -2.20 -1.70 0 c-0.95 0 -1.70 -0.15 -1.70 -0.30 0 -0.60 1.70 -1.65 2.65 -1.70 0.45 0 0.85 -0.20 0.85 -0.50 0 -1.05 1.40 -0.45 2.90 1.25 1.85 2 1.95 2.25 0.60 2.25 -1.45 0 -2.70 2.15 -2.05 3.45 0.85 1.55 0.65 2.55 -0.45 2.55 -0.65 0 -1.10 -0.45 -1.30 -1.30z"/>
  <path d="M20.25 8.10 c0.30 -0.20 0.80 -0.95 1.20 -1.70 0.95 -1.90 1.55 -1.75 1.55 0.35 0 1.65 -0.10 1.75 -1.60 1.75 -0.90 0 -1.40 -0.20 -1.15 -0.40z"/>
  <path d="M13.60 5.90 c-0.90 -0.90 -0.75 -1.70 0.35 -1.70 0.60 0 1.05 0.45 1.20 1.15 0.25 1.25 -0.55 1.55 -1.55 0.55z"/>
 </g>
 <g fill="#7f2a17">
  <path d="M16.80 23.20 c-0.45 -1.20 -0.35 -2.70 0.20 -2.70 0.30 0 0.50 0.35 0.50 0.75 0 0.40 0.35 0.75 0.75 0.75 0.40 0 0.75 -0.35 0.75 -0.75 0 -0.40 0.25 -0.75 0.50 -0.75 0.30 0 0.50 0.80 0.50 1.75 0 1.60 -0.15 1.75 -1.45 1.75 -0.85 0 -1.55 -0.30 -1.75 -0.80z"/>
  <path d="M27.70 20.10 c0.15 -0.25 -0.05 -1.30 -0.45 -2.40 -0.65 -1.75 -0.75 -1.85 -1.05 -0.80 -0.45 1.60 -1.35 1.35 -2.15 -0.50 l-0.65 -1.65 -0.55 1.40 c-0.75 1.85 -1.75 1.70 -2.15 -0.40 -0.15 -0.95 -0.55 -1.75 -0.90 -1.80 -0.30 -0.05 0 -0.25 0.70 -0.45 1.80 -0.60 4.50 -0.60 4.50 0 0 0.30 0.70 0.50 1.55 0.50 l1.60 0 -0.35 -4.75 c-0.35 -4.35 -0.30 -4.75 0.55 -4.80 0.70 0 0.75 -0.10 0.15 -0.30 -0.40 -0.15 -0.90 -0.55 -1.10 -0.85 -0.25 -0.40 -0.40 -0.35 -0.40 0.10 0 0.30 -0.45 0.60 -0.95 0.60 -0.65 0 -1.05 0.40 -1.15 1.15 -0.10 0.80 -0.55 1.15 -1.50 1.25 -1.15 0.15 -1.40 0.40 -1.40 1.60 0 2.20 -0.50 3 -1.80 3 -0.65 0 -1.20 -0.10 -1.20 -0.25 0 -0.60 1.20 -2.75 1.55 -2.75 0.20 0 0.55 -0.45 0.70 -1.05 0.60 -1.80 3.75 -4.85 5.65 -5.50 1 -0.30 2 -0.85 2.20 -1.10 0.25 -0.45 3.90 2.70 3.90 3.40 0 0.15 -0.55 0.25 -1.25 0.25 -1.75 0 -2.60 1.90 -1.75 3.95 1.15 2.80 -0.30 12.55 -1.90 12.55 -0.35 0 -0.55 -0.20 -0.40 -0.40z"/>
  <path d="M30 19.50 c0 -0.55 0.25 -1 0.50 -1 0.30 0 0.50 0.45 0.50 1 0 0.55 -0.20 1 -0.50 1 -0.25 0 -0.50 -0.45 -0.50 -1z"/>
 </g>
 <g fill="#514350">
  <path d="M24 39.25 c0 -0.40 0.45 -0.95 1 -1.25 0.90 -0.45 1 -0.40 1 0.75 0 0.90 -0.25 1.25 -1 1.25 -0.55 0 -1 -0.35 -1 -0.75z"/>
  <path d="M15.10 38.20 c0.70 -0.70 1.05 -0.75 1.50 -0.30 0.40 0.40 0.45 0.60 0.05 0.60 -0.30 0 -1 0.15 -1.50 0.30 -0.85 0.35 -0.85 0.30 -0.05 -0.60z"/>
  <path d="M24.80 34.40 c-0.35 -0.90 -0.80 -2 -0.95 -2.45 -0.20 -0.55 -0.70 -0.75 -1.80 -0.55 -1.25 0.15 -1.50 0.05 -1.25 -0.55 0.20 -0.60 0.05 -0.70 -0.65 -0.55 -1.25 0.35 -2.55 -1.10 -1.75 -1.90 0.30 -0.30 1.10 -0.50 1.85 -0.50 0.75 0 1.45 -0.30 1.55 -0.65 0.15 -0.35 0.75 -0.50 1.40 -0.40 0.80 0.15 1.25 -0.10 1.65 -1 0.70 -1.45 0.40 -1.85 -1.20 -1.85 -1.35 0 -1.50 -1.20 -0.50 -4.10 l0.65 -1.85 1.50 1.20 c1.50 1.15 3.25 1 2.50 -0.20 -0.20 -0.30 0 -0.55 0.40 -0.55 0.55 0 0.80 0.50 0.80 1.65 0.05 1.30 0.10 1.45 0.55 0.75 0.25 -0.50 0.65 -0.90 0.85 -0.90 0.65 0 0.60 3.90 -0.05 4.60 -0.35 0.35 -1.05 1.25 -1.55 2 -0.45 0.70 -1.60 1.70 -2.55 2.10 -2.30 1.10 -2.45 1.45 -1.35 3.40 1.15 2.10 1.65 3.90 1.05 3.90 -0.30 0 -0.80 -0.75 -1.15 -1.60z"/>
  <path d="M17 31.70 c0 -0.45 -0.50 -1.20 -1.10 -1.65 -0.95 -0.80 -1 -1.15 -0.60 -2.55 0.55 -2 2.75 -2.90 3.80 -1.60 0.50 0.60 0.55 0.80 0 1 -0.55 0.15 -2.10 2.60 -2.10 3.25 0 0.15 0.45 0.35 1 0.50 0.55 0.15 1 0.60 1 1.05 0 0.45 -0.40 0.80 -1 0.80 -0.60 0 -1 -0.35 -1 -0.80z"/>
  <path d="M11.30 26.20 c-0.55 -0.35 -0.90 -0.80 -0.75 -0.90 0.10 -0.10 0.65 0.10 1.15 0.50 0.55 0.35 0.90 0.80 0.75 0.90 -0.10 0.10 -0.65 -0.10 -1.15 -0.50z"/>
  <path d="M18.75 24.20 c-0.70 -0.50 -0.80 -0.85 -0.40 -1.10 0.30 -0.20 0.70 -1.20 0.90 -2.25 0.35 -1.80 1.25 -2.60 1.25 -1.10 0 0.40 0.40 0.75 0.90 0.75 0.55 0 0.65 0.15 0.25 0.40 -0.30 0.20 -0.65 1.15 -0.75 2.05 -0.20 2 -0.75 2.30 -2.15 1.25z"/>
  <path d="M12 23.05 c-0.75 -1.40 -0.65 -3.55 0.20 -3.55 0.35 0 0.80 0.50 1 1.10 0.20 0.90 0.40 1 0.85 0.55 0.50 -0.50 0.45 -0.85 -0.20 -1.55 -0.45 -0.50 -0.85 -1.50 -0.85 -2.15 0 -0.95 0.30 -1.25 1.20 -1.35 1.05 -0.05 1.20 0.10 1.15 1.30 -0.10 1.05 0.10 1.30 0.80 1.20 0.80 -0.15 0.85 0.10 0.60 1.75 -0.60 3.50 -0.70 3.65 -2.50 3.65 -1.20 0 -1.90 -0.30 -2.25 -0.95z"/>
  <path d="M24.65 17.75 c-0.15 -0.45 -0.15 -0.90 0 -1.05 0.45 -0.45 1.35 0.30 1.35 1.10 0 0.95 -0.95 0.90 -1.35 -0.05z"/>
  <path d="M16.35 10.65 c-0.20 -0.15 -0.35 -0.65 -0.35 -1.05 0 -0.40 -0.80 -1.70 -1.75 -2.90 -1.90 -2.30 -1.55 -3.60 0.40 -1.50 1.55 1.65 3.15 6.95 1.70 5.45z"/>
  <path d="M10.20 1.75 c0.15 -0.75 0.40 -1.50 0.60 -1.70 0.20 -0.15 0.20 0.10 0.05 0.60 -0.30 0.70 -0.15 0.85 0.60 0.60 0.50 -0.15 1.20 0.05 1.55 0.50 0.50 0.60 0.50 0.75 -0.05 0.75 -0.40 0 -1.20 0.15 -1.85 0.30 -1 0.30 -1.10 0.20 -0.90 -1.05z"/>
 </g>
 <g fill="#7b4b31">
  <path d="M17.85 39.25 c-0.20 -0.40 -0.90 -0.75 -1.60 -0.75 -0.75 0 -1.20 -0.20 -1 -0.50 0.20 -0.30 0.70 -0.45 1.15 -0.40 0.65 0.10 0.90 -0.30 1 -1.45 0.10 -1.05 0.45 -1.65 0.90 -1.65 0.65 0 0.70 0.50 0.50 2.60 -0.35 2.85 -0.55 3.30 -0.95 2.15z"/>
  <path d="M25.55 38.65 c-0.05 -1.75 1.10 -2.35 1.65 -0.85 0.40 1.10 0.40 1.20 -0.40 1.20 -0.40 0 -0.85 0.30 -0.95 0.65 -0.15 0.30 -0.30 -0.15 -0.30 -1z"/>
  <path d="M24.60 33.90 c-0.30 -0.85 -0.45 -1.70 -0.35 -1.85 0.40 -0.35 1.70 1.60 1.75 2.60 0 1.40 -0.75 1 -1.40 -0.75z"/>
  <path d="M17 31.05 c0 -0.25 -0.75 -0.70 -1.60 -1 -1 -0.35 -1.40 -0.75 -1.10 -0.95 0.30 -0.20 0.70 -0.85 0.90 -1.45 0.20 -0.65 0.70 -1.15 1.10 -1.15 0.85 0 0.95 0.80 0.10 1.15 -0.45 0.20 -0.40 0.30 0.15 0.30 0.50 0.05 0.75 0.55 0.75 1.80 0 0.95 -0.05 1.75 -0.15 1.75 -0.10 0 -0.15 -0.20 -0.15 -0.45z"/>
  <path d="M14.25 25.15 c-3.10 -1.55 -4.75 -6.10 -2.85 -7.95 0.80 -0.85 0.85 -0.75 1.30 1.60 0.25 1.35 0.65 2.60 0.90 2.75 0.25 0.15 0.45 0.45 0.45 0.65 -0.05 0.15 0.10 0.25 0.30 0.20 0.55 -0.20 0.15 -2.05 -0.65 -2.95 -0.80 -0.90 -0.95 -3.70 -0.20 -3.20 0.30 0.15 0.65 -0.05 0.80 -0.45 0.15 -0.45 0.50 -0.80 0.75 -0.80 0.60 0 0.60 1.85 -0.05 2.25 -0.75 0.50 0.05 1.80 0.95 1.50 0.45 -0.15 1.30 0.10 1.85 0.50 0.80 0.60 0.85 0.80 0.25 1.20 -0.40 0.25 -0.55 0.80 -0.35 1.35 0.45 1.25 1.30 0.25 1.45 -1.70 0.05 -0.90 0.35 -1.60 0.65 -1.60 0.75 0 1.40 3.20 0.70 3.40 -0.25 0.10 -0.50 0.75 -0.50 1.45 0 1 -0.15 1.15 -1.10 0.90 -0.80 -0.30 -1 -0.20 -0.75 0.40 0.55 1.45 -1.55 1.70 -3.90 0.50z m2.90 -0.45 c0.40 -0.40 -0.15 -1.70 -0.70 -1.70 -0.25 0 -0.45 0.45 -0.45 1 0 0.95 0.55 1.30 1.15 0.70z"/>
  <path d="M27 21.30 c0 -0.40 0.25 -0.80 0.55 -0.90 0.45 -0.15 0.40 -0.75 -0.10 -2.15 -0.90 -2.75 -1.45 -3.25 -1.45 -1.35 0 2.25 -0.85 2 -1.85 -0.50 l-0.85 -2.10 -0.45 1.45 c-0.30 0.80 -0.80 1.80 -1.20 2.15 -0.55 0.55 -0.65 0.30 -0.65 -1.60 0 -2.70 0.65 -3.05 4.75 -2.55 2.60 0.35 2.75 0.45 2.75 1.75 0 0.80 0.20 1.50 0.45 1.60 0.25 0.10 0.35 1.20 0.20 2.55 -0.20 1.85 -0.45 2.35 -1.20 2.35 -0.55 0 -0.95 -0.30 -0.95 -0.70z"/>
  <path d="M29.70 20.90 c0.15 -0.65 0.30 -1.45 0.30 -1.75 0 -0.35 0.20 -0.65 0.50 -0.65 0.25 0 0.45 0.80 0.35 1.75 -0.05 1.10 -0.35 1.75 -0.80 1.75 -0.45 0 -0.55 -0.35 -0.35 -1.10z"/>
  <path d="M17.75 11.50 c-0.15 -0.25 0 -0.50 0.40 -0.50 0.35 0 1 -0.55 1.35 -1.25 0.95 -1.75 1.50 -1.55 1.50 0.50 0 1.60 -0.10 1.75 -1.45 1.75 -0.85 0 -1.65 -0.20 -1.80 -0.50z"/>
  <path d="M28.50 8.75 c0 -0.95 0.25 -1.75 0.50 -1.75 0.30 0 0.50 0.80 0.50 1.75 0 0.95 -0.20 1.75 -0.50 1.75 -0.25 0 -0.50 -0.80 -0.50 -1.75z"/>
  <path d="M23.50 4.05 c0 -0.25 0.70 -0.95 1.50 -1.55 l1.50 -1.05 0 1.50 c0 1.40 -0.15 1.55 -1.50 1.55 -0.80 0 -1.50 -0.20 -1.50 -0.45z"/>
 </g>
 <g fill="#475276">
  <path d="M17.35 38.65 c-0.10 -0.25 -0.10 -1.45 0.05 -2.75 0.15 -1.65 0.45 -2.40 0.90 -2.40 0.55 0 0.70 0.55 0.60 2.15 -0.15 1.95 -1.10 3.85 -1.55 3z"/>
  <path d="M21.55 29.60 c-0.60 -1.10 0.80 -4.55 1.85 -4.60 0.75 0 0.80 2.55 0 4.25 -0.65 1.50 -1.20 1.60 -1.85 0.35z"/>
  <path d="M12.50 23.05 c-0.35 -0.85 -0.80 -1.55 -1.05 -1.55 -0.75 0 -0.50 -4.35 0.25 -4.65 0.55 -0.20 0.80 0.35 1.05 2.20 0.20 1.35 0.60 2.45 0.90 2.45 0.35 0 0.25 0.25 -0.15 0.50 -0.70 0.45 -0.60 0.50 0.85 0.50 0.20 0 0.40 -0.30 0.45 -0.65 0.15 -1.90 0.20 -1.95 1 -1.15 1.15 1.20 0.30 3.50 -1.40 3.70 -1 0.10 -1.40 -0.15 -1.90 -1.35z"/>
  <path d="M13.80 19.55 c-0.45 -0.65 0.55 -4.40 1.25 -4.85 0.85 -0.50 1 0.10 0.40 1.60 -0.35 0.80 -0.70 1.90 -0.80 2.40 -0.25 1.25 -0.45 1.50 -0.85 0.85z"/>
  <path d="M20.15 14.25 c-0.85 -0.95 -0.80 -1.25 0.10 -1.25 0.40 0 0.75 0.45 0.75 1 0 1.15 -0.05 1.20 -0.85 0.25z"/>
  <path d="M13.25 5.50 c-0.85 -0.90 -0.85 -1 -0.05 -1 0.45 0 0.95 0.35 1.15 0.75 0.45 1.25 -0.10 1.35 -1.10 0.25z"/>
  <path d="M7.50 5.80 c0 -0.20 0.70 -1.25 1.60 -2.35 1.45 -1.80 3.40 -2.65 3.40 -1.45 0 0.30 -0.20 0.50 -0.50 0.50 -0.25 0 -1.40 0.80 -2.50 1.80 -1.10 1 -2 1.65 -2 1.50z"/>
 </g>
 <g fill="#6a565a">
  <path d="M17.60 39 c-0.45 -0.75 -0.50 -1.30 -0.10 -2 0.35 -0.65 0.35 -1.75 -0.05 -3.55 -0.60 -2.80 -1.30 -3.90 -2.30 -3.60 -0.30 0.10 -0.70 -0.05 -0.90 -0.30 -0.15 -0.30 0.05 -0.55 0.50 -0.55 0.45 0 0.75 -0.30 0.70 -0.60 -0.25 -1.95 0.10 -2.90 1.05 -2.90 0.55 0 1 -0.25 1 -0.60 0 -0.30 0.45 -0.15 1 0.35 1.30 1.15 1.25 1.75 -0.05 1.75 -0.70 0 -0.95 0.25 -0.80 0.75 0.20 0.40 0.10 0.85 -0.15 1 -0.85 0.50 -0.55 1.65 0.50 2 0.80 0.25 1 0.75 1 2.75 0 1.35 -0.25 2.60 -0.55 2.75 -0.30 0.20 0 0.80 0.75 1.45 0.75 0.60 1.30 1.35 1.30 1.70 0 1 -2.20 0.70 -2.90 -0.40z"/>
  <path d="M24.30 39.25 c-0.15 -0.45 0.05 -0.90 0.45 -1.05 0.40 -0.20 0.75 -0.60 0.75 -1 0 -0.40 0.25 -0.70 0.50 -0.70 0.55 0 0.65 1.50 0.20 2.70 -0.40 1 -1.50 1.05 -1.90 0.05z"/>
  <path d="M24.35 33.15 c-0.20 -0.15 -0.35 -0.75 -0.35 -1.25 0 -0.80 -0.30 -0.90 -1.85 -0.70 -1.05 0.15 -1.50 0.15 -1 0 0.60 -0.20 0.75 -0.60 0.55 -1.45 -0.50 -2 0.55 -3.25 2.80 -3.25 2.35 0 2.50 0.55 0.70 2.35 -1.15 1.15 -1.25 1.40 -0.65 2.60 0.35 0.70 0.75 1.45 0.85 1.70 0.20 0.45 -0.60 0.45 -1.05 0z"/>
  <path d="M18.50 29.50 c-0.60 -0.40 -0.55 -0.50 0.40 -0.50 0.60 0 1.10 0.25 1.10 0.50 0 0.65 -0.55 0.65 -1.50 0z"/>
  <path d="M27 27.25 c0.75 -2 0.70 -2.10 -2 -2.45 -2.05 -0.25 -2.50 -0.50 -2.50 -1.30 0 -0.65 0.35 -1 0.95 -1 0.50 0 1.20 -0.35 1.60 -0.80 0.55 -0.70 0.70 -0.65 1.25 0.40 l0.65 1.15 0.05 -1.35 c0 -0.75 0.30 -1.40 0.75 -1.50 0.65 -0.15 0.65 -0.30 0 -1.60 -1 -1.95 -0.95 -2.80 0.25 -2.80 0.90 0 1 0.35 1.05 3.15 0.05 2.90 0.10 3 0.55 1.50 0.75 -2.25 1.15 -2.05 1.25 0.65 0.05 1.85 -0.20 2.70 -1.40 4.40 -1.95 2.65 -3.15 3.40 -2.45 1.55z"/>
  <path d="M12.50 23 c-0.35 -0.80 -0.80 -1.50 -1.05 -1.50 -0.25 0 -0.45 -0.80 -0.45 -1.75 0 -0.95 0.20 -1.75 0.45 -1.75 0.45 0 1.85 3.50 1.60 3.95 -0.15 0.20 1.05 1.05 1.50 1.05 0.65 0 0.20 -2.75 -0.50 -3.30 -0.55 -0.45 -0.55 -0.85 -0.10 -2.35 0.35 -1.05 0.85 -1.85 1.10 -1.85 0.25 0 0.25 0.50 -0.05 1.20 -0.45 1.20 0.05 2.30 2.15 4.55 0.90 1 0.90 1 -0.35 1.15 -0.90 0.10 -1.30 0.45 -1.30 1.15 0 1.65 -2.25 1.25 -3 -0.55z"/>
  <path d="M19 22.65 c0 -1.85 0.50 -3.65 1 -3.65 0.60 0 1.05 2.35 0.70 3.75 -0.45 1.70 -1.70 1.60 -1.70 -0.10z"/>
  <path d="M19.90 13.90 l-1.35 -1.65 1.25 -0.15 c1.65 -0.20 1.80 -0.05 1.60 1.90 l-0.15 1.60 -1.35 -1.70z"/>
 </g>
 <g fill="#bd4b1c">
  <path d="M27.45 17.75 c-0.70 -2.35 -1.45 -3 -1.45 -1.25 0 1.60 -1.35 1.15 -2 -0.60 -0.60 -1.60 -0.60 -1.65 -1.10 -0.50 -0.75 1.55 -1.50 1.35 -2.45 -0.65 -0.80 -1.65 -0.80 -1.75 0.15 -1.75 0.50 0 1.05 -0.35 1.20 -0.75 0.20 -0.40 0.90 -0.75 1.70 -0.75 1.15 0 1.45 -0.25 1.70 -1.60 0.20 -0.95 0.10 -1.70 -0.20 -1.80 -0.25 -0.10 -0.55 -0.80 -0.55 -1.50 -0.05 -0.85 -0.15 -1.05 -0.30 -0.45 -0.25 0.90 -2.65 1.25 -2.65 0.40 0 -0.25 0.85 -1.30 1.85 -2.35 1.65 -1.75 1.85 -1.80 2.20 -0.90 0.35 0.80 0.40 0.85 0.40 0.10 0.05 -0.70 0.50 -0.90 1.75 -0.90 2.35 0 3.20 1.10 2.10 2.75 -0.45 0.70 -0.75 1.45 -0.60 1.70 0.15 0.20 0.30 2.10 0.35 4.25 0.10 2.95 -0.05 4 -0.60 4.35 -0.60 0.35 -0.60 0.50 0 0.90 0.45 0.30 0.55 0.90 0.30 2 -0.45 2.15 -1 1.95 -1.80 -0.70z"/>
  <path d="M30 19.25 c0 -0.40 0.25 -0.75 0.50 -0.75 0.30 0 0.50 0.35 0.50 0.75 0 0.40 -0.20 0.75 -0.50 0.75 -0.25 0 -0.50 -0.35 -0.50 -0.75z"/>
 </g>
 <g fill="#996641">
  <path d="M24.50 39.30 c0 -1 1.35 -1.95 2.30 -1.60 0.75 0.30 0.75 0.45 -0.20 1.30 -1.25 1.15 -2.10 1.30 -2.10 0.30z"/>
  <path d="M17.60 38.75 c-0.50 -0.60 -0.50 -1 -0.05 -1.80 0.30 -0.60 0.45 -1.70 0.35 -2.50 -0.15 -0.95 0 -1.45 0.40 -1.45 0.45 0 0.60 0.95 0.60 3.25 0 3.35 -0.20 3.70 -1.30 2.50z"/>
  <path d="M24.50 33.25 c-0.35 -0.70 -0.55 -1.40 -0.35 -1.55 0.15 -0.15 0.65 0.40 1.10 1.25 0.40 0.85 0.60 1.55 0.35 1.55 -0.25 0 -0.75 -0.55 -1.10 -1.25z"/>
  <path d="M15.50 27.30 c0 -1.30 -0.25 -1.80 -1.05 -2.05 -1.30 -0.40 -2.95 -3.95 -2.55 -5.40 0.25 -0.90 0.40 -0.75 0.85 0.90 0.70 2.45 2.10 3 2.10 0.80 0 -0.85 -0.30 -1.60 -0.70 -1.75 -0.65 -0.25 -0.95 -1.80 -0.30 -1.80 0.15 0 1.25 1.05 2.45 2.40 l2.10 2.35 0.60 -1.50 c1.05 -2.95 1.20 -3.05 1.40 -1.50 0.10 0.80 -0.05 1.55 -0.35 1.65 -0.30 0.10 -0.55 0.85 -0.55 1.70 0 1.30 -0.10 1.45 -0.75 0.90 -0.60 -0.50 -0.75 -0.50 -0.75 0.15 0 0.45 0.25 0.95 0.50 1.10 0.60 0.35 -0.30 1.40 -1.70 1.90 -0.55 0.20 -0.80 0.65 -0.60 1.10 0.15 0.40 0.05 0.75 -0.20 0.75 -0.30 0 -0.50 -0.75 -0.50 -1.70z m1.65 -2.60 c0.15 -0.20 0.05 -0.80 -0.25 -1.40 -0.55 -1 -0.55 -1 -0.90 -0.05 -0.55 1.40 0.25 2.35 1.15 1.45z"/>
  <path d="M27 21.25 c0 -0.40 0.35 -0.75 0.75 -0.75 0.70 0 0.70 -0.20 0 -1.80 -1 -2.45 -0.95 -3.20 0.25 -3.20 0.90 0 1 0.35 1 3.25 0 2.90 -0.10 3.25 -1 3.25 -0.55 0 -1 -0.35 -1 -0.75z"/>
  <path d="M29.85 20.40 c0.40 -2.30 0.65 -2.40 0.65 -0.25 0 1.05 -0.20 1.85 -0.50 1.85 -0.25 0 -0.35 -0.70 -0.15 -1.60z"/>
  <path d="M21 17 c0 -1 0.25 -1.50 0.75 -1.50 0.40 0 0.75 -0.25 0.75 -0.60 0 -0.30 0.10 -0.45 0.25 -0.35 0.40 0.40 -0.75 3.95 -1.25 3.95 -0.30 0 -0.50 -0.65 -0.50 -1.50z"/>
  <path d="M25 18.35 c0 -0.15 -0.35 -1.05 -0.75 -2.05 -0.75 -1.75 -0.75 -1.80 0.35 -1.80 0.95 0 1.15 0.30 1.25 1.70 0.10 0.95 -0.10 1.90 -0.35 2.05 -0.30 0.15 -0.50 0.20 -0.50 0.10z"/>
 </g>
 <g fill="#e54c15">
  <path d="M27.05 15.90 c-0.55 -1.70 -0.75 -1.95 -1.10 -1.25 -0.70 1.25 -1.40 1.05 -1.75 -0.45 -0.30 -1.10 -0.40 -1.20 -0.80 -0.50 -0.65 1.15 -2.55 1 -3.80 -0.35 -0.60 -0.65 -1.10 -1.30 -1.10 -1.50 0 -0.20 0.70 -1.45 1.55 -2.85 1 -1.65 1.90 -2.50 2.55 -2.50 1.15 0 2.40 -1.15 2.40 -2.20 0 -0.45 0.25 -0.80 0.50 -0.80 0.30 0 0.50 -0.45 0.50 -1 0 -0.65 0.35 -1 0.95 -1 0.55 0 1.35 -0.40 1.85 -0.85 0.80 -0.80 0.80 -0.80 0.50 0.15 -0.15 0.55 -0.10 1.75 0.20 2.65 0.25 0.95 0.30 1.95 0.05 2.25 -0.20 0.30 -0.45 0.90 -0.45 1.30 -0.30 4.80 -0.30 6.90 0 6.70 0.20 -0.15 0.40 0.75 0.40 2 0 1.90 -0.15 2.30 -0.90 2.30 -0.65 0 -1.15 -0.60 -1.55 -2.10z m0.65 -6.65 c0.20 -0.95 0.15 -1.25 -0.15 -0.75 -0.20 0.40 -0.55 1.45 -0.75 2.25 -0.20 0.95 -0.15 1.25 0.15 0.75 0.20 -0.40 0.55 -1.40 0.75 -2.25z m1.30 -3.70 c0 -0.25 -0.35 -0.70 -0.75 -1.05 -0.80 -0.70 -0.90 -0.50 -0.45 0.70 0.30 0.85 1.20 1.10 1.20 0.35z"/>
 </g>
 <g fill="#c6404a">
  <path d="M28.60 5 c-0.60 -1 -0.70 -1 -1.50 -0.15 -0.80 0.80 -0.85 0.75 -1 -0.55 -0.25 -1.90 0.25 -2.95 1.15 -2.60 0.40 0.15 0.75 0.05 0.75 -0.20 0 -0.30 0.25 -0.50 0.50 -0.50 0.30 0 0.50 0.35 0.50 0.75 0 0.40 0.25 0.75 0.50 0.75 0.35 0 0.35 -0.35 0 -1.05 -0.95 -1.70 -0.20 -1.60 1.65 0.25 1.15 1.15 1.55 1.80 1.10 2 -0.35 0.10 -0.90 -0.05 -1.20 -0.35 -0.40 -0.40 -0.55 -0.35 -0.55 0.20 0 0.40 -0.30 1.15 -0.60 1.60 -0.60 0.80 -0.70 0.80 -1.30 -0.15z"/>
 </g>
 <g fill="#7d6974">
  <path d="M18 39.20 c0 -0.35 -0.30 -0.70 -0.60 -0.85 -0.45 -0.15 -0.35 -0.35 0.25 -0.60 0.95 -0.40 2.35 0.50 2.35 1.55 0 0.35 -0.45 0.60 -1 0.55 -0.55 -0.05 -1 -0.35 -1 -0.65z"/>
  <path d="M24.50 39.30 c0 -0.40 0.25 -0.90 0.55 -1.10 0.30 -0.15 0.45 -0.95 0.35 -1.75 -0.30 -1.95 0.60 -1.60 1.45 0.50 0.65 1.50 0.60 1.65 -0.35 1.90 -0.55 0.15 -1 0.45 -1 0.70 0 0.25 -0.20 0.45 -0.50 0.45 -0.25 0 -0.50 -0.30 -0.50 -0.70z"/>
  <path d="M17.25 32 c-0.55 -0.85 0.25 -1.60 1.05 -0.95 0.40 0.30 0.70 0.75 0.70 1 0 0.60 -1.35 0.55 -1.75 -0.05z"/>
  <path d="M21.35 31.15 c0.40 -0.15 0.55 -0.70 0.35 -1.40 -0.15 -0.70 0 -1.65 0.45 -2.25 0.50 -0.70 0.65 -1.75 0.50 -3 l-0.25 -1.90 1.80 0.05 c1 0.05 1.80 0.25 1.80 0.50 0 0.20 0.25 0.25 0.50 0.10 0.30 -0.15 0.50 -0.85 0.50 -1.55 0 -1.65 1.95 -1.75 2.05 -0.05 0.05 0.80 0.10 0.90 0.30 0.25 0.40 -1.60 1.20 -0.95 1.05 0.85 -0.05 0.95 -0.25 1.75 -0.40 1.75 -0.20 0 -0.70 0.80 -1.15 1.75 -1 2.10 -2.10 2.35 -1.65 0.40 l0.30 -1.40 -0.80 1.50 c-1.05 1.85 -1.75 2.35 -2.50 1.75 -0.80 -0.70 -1.30 0.05 -0.55 0.90 0.30 0.40 0.55 0.90 0.50 1.05 -0.10 0.35 -1.75 1 -2.65 1 -0.50 -0.05 -0.55 -0.10 -0.15 -0.30z"/>
  <path d="M16.05 30.05 c-0.05 -0.35 -0.35 -0.55 -0.80 -0.35 -0.40 0.15 -0.75 0.05 -0.75 -0.20 0 -0.30 0.25 -0.50 0.50 -0.50 0.30 0 0.50 -0.50 0.55 -1.10 0 -1.15 0 -1.15 0.50 0.05 0.25 0.70 0.40 1.60 0.30 2 -0.15 0.55 -0.25 0.60 -0.30 0.10z"/>
  <path d="M14.65 25.15 c-0.95 -0.35 -0.80 -2 0.20 -2.35 0.75 -0.30 0.75 -0.40 0.15 -0.80 -0.55 -0.35 -0.30 -0.50 0.90 -0.50 1.35 0 1.60 0.20 1.60 1.15 0 0.85 -0.10 0.95 -0.50 0.35 -0.50 -0.85 -0.85 -0.65 -1.10 0.75 -0.10 0.70 0.10 1 0.75 0.95 0.45 -0.05 0.85 0.10 0.85 0.35 0 0.45 -1.80 0.55 -2.85 0.10z"/>
  <path d="M19.40 24.45 c-1.20 -0.65 -1.15 -1.45 0.10 -1.45 0.65 0 1 0.35 1 1 0 1.15 0.05 1.15 -1.10 0.45z"/>
  <path d="M11.55 20.50 c-0.40 -1.20 -0.35 -1.50 0.15 -1.50 0.60 0 1.25 1.40 1.30 2.65 0 0.95 -0.95 0.20 -1.45 -1.15z"/>
  <path d="M14.35 17.15 c-0.15 -0.25 0 -0.95 0.40 -1.45 0.75 -1 0.90 -0.55 0.30 1 -0.20 0.55 -0.50 0.75 -0.70 0.45z"/>
  <path d="M15.85 9.15 c-0.25 -1.30 -0.20 -1.30 0.45 -0.40 0.80 1.10 0.90 1.75 0.25 1.75 -0.25 0 -0.55 -0.60 -0.70 -1.35z"/>
 </g>
 <g fill="#656990">
  <path d="M24.75 39.50 c-0.40 -0.65 0.20 -1.60 0.75 -1.25 0.20 0.15 0.35 -0.15 0.30 -0.60 0 -0.45 0.25 -0.90 0.60 -1 0.35 -0.15 0.60 0.25 0.60 1.05 0 1 -0.25 1.30 -1.05 1.30 -0.55 0 -0.85 0.25 -0.70 0.50 0.15 0.30 0.20 0.50 0.05 0.50 -0.15 0 -0.40 -0.20 -0.55 -0.50z"/>
  <path d="M21.75 28.75 c0.20 -0.80 0.45 -2.55 0.60 -3.85 0.40 -3.75 2.10 -2.80 2.15 1.15 0 0.80 -0.60 1.80 -1.55 2.75 l-1.60 1.45 0.40 -1.50z"/>
  <path d="M26.25 25.20 c0.40 -1 0.75 -2.45 0.75 -3.25 0 -1.55 1 -2.05 1.05 -0.55 0 0.70 0.10 0.70 0.40 -0.15 0.35 -0.80 0.50 -0.55 0.80 1.30 0.20 1.45 0.15 2.75 -0.20 3.40 -0.85 1.55 -1.70 1.30 -1.35 -0.30 l0.30 -1.40 -0.85 1.40 c-1.25 1.95 -1.80 1.65 -0.90 -0.45z"/>
  <path d="M11 18.25 c0 -0.75 0.30 -1.25 0.70 -1.25 0.45 0 0.65 0.50 0.60 1.25 -0.05 1.65 -1.30 1.65 -1.30 0z"/>
  <path d="M14.55 16.65 c-0.05 -0.60 0.20 -1.25 0.45 -1.40 0.60 -0.35 0.60 0.10 0 1.50 -0.40 0.95 -0.45 0.95 -0.45 -0.10z"/>
  <path d="M14.60 7.15 c-1.70 -2.30 -1.85 -3.40 -0.30 -2.10 0.80 0.65 2.45 3.90 2.10 4.20 -0.10 0.05 -0.90 -0.90 -1.80 -2.10z"/>
  <path d="M9.50 3.25 c0.30 -0.40 0.50 -0.90 0.35 -1.10 -0.15 -0.20 0.50 -0.45 1.45 -0.50 0.95 -0.10 1.70 -0.05 1.70 0.05 0 0.25 -3.45 2.30 -3.85 2.30 -0.15 0 0 -0.35 0.35 -0.75z"/>
 </g>
 <g fill="#977163">
  <path d="M18.20 39.10 c-0.95 -0.80 -1 -1.05 -0.45 -2.40 0.40 -0.80 0.70 -1.10 0.70 -0.65 0.05 0.45 0.50 1.40 1.05 2.10 0.55 0.70 1 1.40 1 1.55 0 0.60 -1.25 0.25 -2.30 -0.60z"/>
  <path d="M25.70 37.90 c0.05 -1.40 1.10 -1.75 1.45 -0.45 0.25 1.10 0 1.55 -0.90 1.55 -0.35 0 -0.60 -0.50 -0.55 -1.10z"/>
  <path d="M17.35 32.40 c-0.35 -1.35 -0.15 -1.60 0.90 -1.25 0.95 0.40 1 2.35 0.05 2.35 -0.35 0 -0.80 -0.50 -0.95 -1.10z"/>
  <path d="M14.50 29.50 c0 -0.30 0.20 -0.50 0.45 -0.50 0.55 0 1.05 -2.45 0.70 -3.35 -0.15 -0.35 -0.55 -0.65 -0.95 -0.65 -0.35 0 -0.90 -0.45 -1.20 -0.95 -0.70 -1.35 -0.65 -1.50 0.45 -1.20 0.50 0.15 1.10 0 1.25 -0.30 0.20 -0.30 0.05 -0.55 -0.30 -0.55 -0.40 -0.05 -0.30 -0.30 0.30 -0.75 0.85 -0.65 1.05 -0.60 1.80 0.25 0.50 0.55 1.45 1 2.20 1 0.95 0 1.30 0.25 1.30 1 0 1.05 -1.20 1.40 -1.75 0.50 -0.20 -0.30 -0.50 -0.40 -0.75 -0.25 -0.25 0.15 -0.65 -0.10 -0.90 -0.55 -0.60 -1.05 -1.60 -0.50 -1.60 0.85 0 0.75 0.30 0.95 1.30 0.85 0.90 -0.10 1.55 0.20 2.05 1 0.75 1.05 0.75 1.10 -1.05 1.10 -1.55 0 -1.80 0.15 -1.80 1.20 0 0.65 -0.35 1.30 -0.75 1.50 -0.40 0.15 -0.75 0.05 -0.75 -0.20z"/>
  <path d="M21.50 29.30 c0 -0.45 0.35 -0.95 0.75 -1.15 1.25 -0.45 1.35 0.10 0.25 1.10 -0.90 0.85 -1 0.85 -1 0.05z"/>
  <path d="M27.20 27.20 c0.15 -0.45 0.30 -0.90 0.30 -1 0 -0.10 0.35 -0.20 0.75 -0.20 0.65 0 0.65 0.15 0.15 1 -0.75 1.20 -1.65 1.35 -1.20 0.20z"/>
  <path d="M27.70 22.80 c-0.35 -0.70 -0.40 -1.50 -0.15 -1.90 0.35 -0.50 0.45 -0.40 0.50 0.35 l0 1 0.40 -1 c0.40 -0.95 0.45 -0.90 0.65 0.25 0.20 1.05 0.30 0.90 0.65 -0.85 0.20 -1.20 0.55 -2.15 0.80 -2.15 0.55 0 0.55 -0.05 -0.10 3 -0.60 2.80 -1.80 3.35 -2.75 1.30z"/>
  <path d="M11.60 20.35 c-0.70 -2 -0.75 -2.85 -0.15 -2.85 0.25 0 0.60 0.60 0.75 1.40 0.20 0.75 0.45 1.75 0.60 2.25 0.50 1.60 -0.60 0.90 -1.20 -0.80z"/>
  <path d="M14.35 19 c-0.15 -0.55 -0.20 -1 -0.15 -1 0.05 0 0.45 0.45 0.95 1 0.65 0.75 0.70 1 0.15 1 -0.35 0 -0.80 -0.45 -0.95 -1z"/>
  <path d="M28.40 19.75 c-0.40 -0.40 0.15 -2.75 0.65 -2.75 0.25 0 0.30 0.60 0.15 1.40 -0.40 1.60 -0.45 1.70 -0.80 1.35z"/>
 </g>
 <g fill="#d86b2f">
  <path d="M19 21.40 c0 -0.35 0.35 -1.10 0.75 -1.60 0.70 -0.95 0.75 -0.90 0.75 0.60 0 1.10 -0.25 1.60 -0.75 1.60 -0.40 0 -0.75 -0.30 -0.75 -0.60z"/>
  <path d="M27.85 18.50 c-0.40 -0.95 -0.90 -2.55 -1.10 -3.50 -0.35 -1.60 -0.40 -1.65 -0.80 -0.60 -0.25 0.60 -0.30 1.40 -0.15 1.80 0.15 0.40 0.05 1.10 -0.20 1.60 -0.40 0.70 -0.60 0.55 -1.15 -1.10 -0.35 -1.05 -0.60 -2.50 -0.55 -3.20 0.05 -0.85 -0.20 -0.55 -0.70 0.90 -0.75 2.05 -2.20 2.90 -2.20 1.25 0 -0.45 -0.60 -1.50 -1.35 -2.25 -1.05 -1.10 -1.15 -1.40 -0.50 -1.40 0.45 0 0.85 0.25 0.85 0.50 0 1.25 0.90 0.30 2 -2.10 1.70 -3.85 2.05 -5.05 1.45 -5.40 -0.80 -0.50 2.05 -3 3.40 -3 1.10 0 1.20 0.15 0.95 1.30 -0.20 0.75 -0.70 1.65 -1.05 2.05 -1 1 -0.95 1.45 0.05 0.60 0.75 -0.60 0.80 -0.55 0.55 0.30 -0.15 0.55 -0.40 2.35 -0.55 4 -0.25 2.95 -0.25 2.95 0.30 0.90 0.75 -2.95 1.40 -2.70 1.40 0.55 0 1.45 0.20 3.30 0.50 4.10 0.30 0.90 0.30 2.05 0.05 2.95 l-0.45 1.50 -0.75 -1.75z"/>
  <path d="M20 10.50 c0 -1.65 0.70 -2.65 1.65 -2.40 0.60 0.10 0.55 0.45 -0.45 1.90 -1.15 1.65 -1.20 1.65 -1.20 0.50z"/>
  <path d="M30.75 3 c-0.50 -0.55 -0.80 -1.15 -0.60 -1.30 0.30 -0.35 2.80 1.35 2.85 1.95 0 0.70 -1.35 0.35 -2.25 -0.65z"/>
 </g>
 <g fill="#b7764a">
  <path d="M25.75 37.95 c-0.20 -0.30 -0.25 -0.65 -0.10 -0.75 0.15 -0.15 -0.20 -1.40 -0.70 -2.80 -0.50 -1.45 -0.85 -2.70 -0.70 -2.80 0.30 -0.30 2.75 5.20 2.75 6.15 0 0.85 -0.80 1 -1.25 0.20z"/>
  <path d="M17.75 34.75 c0 -1.55 0.20 -2.25 0.65 -2.25 0.50 0 0.60 0.50 0.40 1.90 -0.15 1 -0.25 2 -0.30 2.25 0 0.20 -0.15 0.35 -0.35 0.35 -0.25 0 -0.40 -1 -0.40 -2.25z"/>
  <path d="M15.75 26.95 c0.25 -0.40 -0.10 -1 -1 -1.75 -0.75 -0.60 -1.20 -1.35 -1.05 -1.65 0.60 -0.90 1.65 -0.65 1.95 0.50 0.20 0.75 0.55 0.95 1.30 0.70 0.70 -0.20 1.15 0 1.50 0.70 0.75 1.30 0.70 1.55 -0.15 1.25 -0.40 -0.15 -1.20 0 -1.80 0.30 -0.90 0.50 -1.05 0.45 -0.75 -0.05z"/>
  <path d="M19.40 24.20 c-0.20 -0.15 -0.70 -0.35 -1.15 -0.40 -0.45 -0.05 -1 -0.35 -1.15 -0.60 -0.20 -0.30 -0.75 -0.65 -1.20 -0.85 -0.50 -0.15 -0.90 -0.55 -0.90 -0.85 0 -0.75 1.35 -0.60 2.20 0.30 0.85 0.85 1.80 0.55 1.80 -0.60 0 -0.40 0.20 -0.70 0.45 -0.70 0.25 0 0.60 -0.40 0.70 -0.85 0.15 -0.50 0.25 0.40 0.30 2 0.05 2.60 -0.25 3.35 -1.05 2.55z"/>
  <path d="M27.55 17.95 c-0.80 -2.35 -0.70 -4.95 0.20 -4.95 0.40 0 0.60 0.30 0.45 0.70 -0.15 0.40 -0.05 0.85 0.25 1.05 0.65 0.40 0.75 4.75 0.10 4.75 -0.25 0 -0.70 -0.70 -1 -1.55z"/>
  <path d="M21 16.20 c0 -1.85 0.20 -2.70 0.75 -2.90 0.40 -0.15 0.75 -0.60 0.75 -1.05 0 -0.40 0.25 -0.75 0.55 -0.75 0.30 0 0.40 0.45 0.15 1.15 -0.35 1 -0.55 2.15 -0.65 3.65 -0.05 0.25 -0.40 0.95 -0.80 1.50 -0.65 0.85 -0.70 0.75 -0.75 -1.60z"/>
  <path d="M24.45 16.60 c-0.85 -2.10 -0.35 -5.10 0.90 -5.10 0.60 0 0.65 0.60 0.40 3.40 -0.20 1.85 -0.40 3.40 -0.45 3.45 0 0.05 -0.40 -0.75 -0.85 -1.75z"/>
  <path d="M30.80 2.95 c-0.70 -0.70 -0.80 -0.95 -0.25 -0.95 0.75 0.05 2.45 1.15 2.45 1.70 0 0.60 -1.30 0.20 -2.20 -0.75z"/>
  <path d="M25.35 2.45 c1.15 -1.15 2.65 -1 2.65 0.30 0 0.55 -0.50 0.75 -1.85 0.75 l-1.85 0 1.05 -1.05z"/>
 </g>
 <g fill="#8d7a91">
  <path d="M25.95 38.65 c-0.35 -2.15 -0.30 -3.15 0 -3.15 0.45 0 1.05 1.70 1.05 2.90 0 0.65 -0.95 0.85 -1.05 0.25z"/>
  <path d="M17.75 36.40 c0.20 -1.20 0.10 -2.80 -0.20 -3.55 -0.50 -1.25 -0.45 -1.40 0.30 -1.25 0.75 0.15 0.85 0.65 0.75 2.80 -0.10 1.55 0.05 2.95 0.40 3.40 0.50 0.55 0.45 0.70 -0.45 0.70 -1 0 -1.10 -0.20 -0.80 -2.10z"/>
  <path d="M21.50 29.65 c0 -0.30 0.35 -1.35 0.75 -2.30 0.40 -1 0.75 -2.40 0.75 -3.10 0 -0.70 0.20 -1.25 0.45 -1.25 0.55 0 1.05 1.25 1.05 2.50 0 1.65 0.95 1.60 1.70 -0.10 0.45 -1.05 0.75 -1.30 0.75 -0.75 0.10 1.60 -1.45 3.95 -2.30 3.65 -0.50 -0.20 -1.30 0.15 -2 0.75 -0.60 0.65 -1.15 0.90 -1.15 0.60z"/>
  <path d="M27.20 27.25 c0.75 -1.95 0.90 -4.25 0.40 -4.90 -0.35 -0.40 -0.35 -0.90 -0.10 -1.35 0.40 -0.60 0.50 -0.60 0.50 0.20 0 0.55 0.15 0.85 0.30 0.65 0.20 -0.15 0.65 0.05 1.05 0.45 0.90 0.90 0.15 3.60 -1.45 5 -1.05 0.95 -1.05 0.95 -0.70 -0.05z"/>
  <path d="M14 23.50 c0 -0.25 0.35 -0.50 0.75 -0.50 0.40 0 0.75 0.25 0.75 0.50 0 0.30 -0.35 0.50 -0.75 0.50 -0.40 0 -0.75 -0.20 -0.75 -0.50z"/>
  <path d="M18.30 12.05 c-0.80 -0.85 -0.80 -0.95 0.20 -1.20 0.80 -0.20 1 0 1 0.95 0 1.45 -0.10 1.45 -1.20 0.25z"/>
  <path d="M15.95 9.20 c-0.25 -0.75 -1.05 -2 -1.75 -2.85 -0.70 -0.80 -1.10 -1.60 -0.95 -1.75 0.50 -0.55 2.20 1.55 2.95 3.70 0.80 2.35 0.60 3.10 -0.25 0.90z"/>
 </g>
 <g fill="#f57a2f">
  <path d="M26 38 c0 -0.55 0.25 -1 0.50 -1 0.30 0 0.50 0.45 0.50 1 0 0.55 -0.20 1 -0.50 1 -0.25 0 -0.50 -0.45 -0.50 -1z"/>
  <path d="M16 25.80 c0 -1.10 1.75 -1.30 2.45 -0.25 0.50 0.85 0.40 0.95 -0.95 0.95 -0.95 0 -1.50 -0.25 -1.50 -0.70z"/>
  <path d="M18.80 23.55 c-0.45 -0.70 0.60 -3.15 1.20 -2.80 0.25 0.15 0.50 0.65 0.50 1.05 0 1 -1.35 2.35 -1.70 1.75z"/>
  <path d="M28.20 18.75 c-0.80 -1.45 -1.20 -5.25 -0.70 -7.25 0.40 -1.80 0.50 -1.60 0.75 1.75 0.05 0.55 0.25 1.35 0.45 1.80 0.20 0.45 0.30 1.70 0.20 2.75 -0.15 1.75 -0.20 1.85 -0.70 0.95z"/>
  <path d="M21 16.25 c0 -1.20 -0.40 -2.05 -1.35 -2.95 l-1.35 -1.25 0.95 -1.70 c1.60 -3 3.60 -5.60 4.20 -5.45 0.30 0.05 0.80 -0.45 1.05 -1.10 0.50 -1.35 2.25 -2.50 3 -2.05 0.60 0.40 0.65 1.75 0.10 1.75 -0.70 0 -4 7.50 -4.90 11.15 -0.90 3.60 -1.70 4.40 -1.70 1.60z m0.15 -3.85 c0.15 -0.35 0.60 -1.50 1.05 -2.50 0.45 -1.05 0.70 -1.90 0.55 -1.90 -0.40 0 -2.75 3.70 -2.75 4.35 0 0.85 0.80 0.85 1.15 0.05z"/>
  <path d="M24.30 13.15 c0.35 -3 0.85 -4.40 2.05 -5.55 0.90 -0.95 0.85 0.30 -0.15 4.85 -0.55 2.40 -1.05 3.55 -1.55 3.55 -0.60 0 -0.65 -0.55 -0.35 -2.85z"/>
  <path d="M29.75 1.70 c-0.45 -0.70 -0.70 -1.40 -0.55 -1.60 0.15 -0.15 0.35 -0.15 0.45 -0.05 0.05 0.10 0.65 0.80 1.30 1.60 0.95 1.05 1.05 1.35 0.45 1.35 -0.45 0 -1.15 -0.60 -1.65 -1.30z"/>
 </g>
 <g fill="#f59640">
  <path d="M17.65 38.25 c-0.50 -1.35 0.30 -1.50 1.50 -0.35 l1.05 1.10 -1.10 0 c-0.60 0 -1.25 -0.35 -1.45 -0.75z"/>
  <path d="M26 38.05 c0 -0.60 0.25 -1.05 0.50 -1.05 0.30 0 0.50 0.30 0.50 0.70 0 0.40 -0.20 0.90 -0.50 1.05 -0.25 0.15 -0.50 -0.15 -0.50 -0.70z"/>
  <path d="M25.30 35.70 c-0.15 -0.45 -0.30 -1.15 -0.30 -1.60 0.05 -0.60 0.25 -0.50 0.75 0.40 0.40 0.70 0.70 1.40 0.75 1.65 0 0.65 -0.90 0.35 -1.20 -0.45z"/>
  <path d="M19.05 23.80 c-0.45 -0.55 -0.50 -1 -0.05 -1.75 0.80 -1.60 1.50 -1.25 1.50 0.70 0 1.85 -0.50 2.20 -1.45 1.05z"/>
  <path d="M27.80 17.90 c-0.65 -3.15 -0.80 -4.90 -0.45 -4.90 0.45 0 1.65 3.90 1.65 5.25 0 1.20 -0.95 0.85 -1.20 -0.35z"/>
  <path d="M21.10 15.55 c-0.05 -2.25 0.30 -3.65 1.45 -6.10 1.30 -2.75 1.35 -3.05 0.45 -2.20 -0.55 0.50 -1.55 1.80 -2.10 2.85 -1.10 1.95 -1.90 2.45 -1.90 1.25 0 -1.15 3.70 -6.50 5.75 -8.30 2 -1.75 2.85 -1.45 1.85 0.60 -2.35 5.05 -3.90 9.55 -4.35 12.45 -0.45 2.95 -1.10 2.65 -1.15 -0.55z"/>
  <path d="M24.60 16.80 c-0.40 -0.95 -0.50 -2.25 -0.30 -3.75 0.80 -5.55 2.05 -4.15 1.35 1.55 -0.40 3.50 -0.40 3.55 -1.05 2.20z"/>
 </g>
 <g fill="#f47770">
  <path d="M30.55 2.45 c-1.55 -1.55 -1.95 -2.45 -1.05 -2.45 0.30 0 0.50 0.30 0.50 0.65 0 0.30 0.70 1.05 1.50 1.60 0.80 0.55 1.50 1.15 1.50 1.40 0 0.75 -1 0.30 -2.45 -1.20z"/>
 </g>
 <g fill="#9d92b1">
  <path d="M22.20 27.90 c0.20 -0.65 0.45 -1.90 0.65 -2.75 0.35 -2.15 1 -2.10 1.40 0.05 0.30 1.35 0.10 1.95 -0.70 2.75 -1.35 1.35 -1.75 1.35 -1.35 -0.05z"/>
  <path d="M11.65 20 c-0.60 -1.40 -0.40 -1.95 0.40 -1.15 0.30 0.30 0.45 0.95 0.30 1.45 -0.15 0.85 -0.25 0.80 -0.70 -0.30z"/>
  <path d="M14.65 6.85 c-1.70 -1.85 -1.95 -2.55 -0.70 -1.90 1 0.55 2.30 2.45 1.95 2.85 -0.15 0.10 -0.70 -0.30 -1.25 -0.95z"/>
  <path d="M10.30 2.50 c0.60 -0.60 1.40 -1 1.75 -0.90 0.45 0.15 0 0.60 -1.05 1.10 l-1.75 0.90 1.05 -1.10z"/>
 </g>
 <g fill="#c29688">
  <path d="M25.85 37.15 c-0.10 -0.50 -0.40 -1.35 -0.60 -1.90 -0.35 -0.90 -0.30 -0.90 0.40 -0.25 0.90 0.90 1.60 3 0.95 3 -0.25 0 -0.60 -0.40 -0.75 -0.85z"/>
  <path d="M17.85 33.65 c-0.10 -0.50 -0.40 -1.30 -0.60 -1.75 -0.25 -0.65 -0.10 -0.90 0.45 -0.90 0.90 0 1.65 2.35 0.95 3.05 -0.35 0.35 -0.60 0.20 -0.80 -0.40z"/>
  <path d="M15.65 27.35 c0.20 -0.50 0.35 -1.25 0.35 -1.65 0 -0.85 1.55 -0.95 2.40 -0.10 0.90 0.90 0.75 1.35 -0.35 1.05 -0.50 -0.10 -1.30 0.20 -1.80 0.70 -0.90 0.85 -0.95 0.85 -0.60 0z"/>
  <path d="M27 27.95 c0 -0.20 0.35 -1.15 0.75 -2.10 0.40 -1 0.75 -2.45 0.80 -3.20 0 -1.25 0.05 -1.30 0.45 -0.40 0.75 1.70 0.55 2.95 -0.75 4.50 -0.65 0.85 -1.20 1.35 -1.25 1.20z"/>
  <path d="M19.15 23.95 c-0.70 -0.70 -0.30 -1.95 0.65 -1.95 0.40 0 0.70 0.50 0.70 1.25 0 1.35 -0.45 1.60 -1.35 0.70z"/>
  <path d="M11.50 19.50 c-0.45 -1.05 -0.50 -1.70 -0.15 -2.05 0.35 -0.35 0.65 0.05 0.85 1.30 0.45 2.35 0.10 2.70 -0.70 0.75z"/>
 </g>
 <g fill="#fbae52">
  <path d="M18.40 38.65 c-1 -0.25 -1.15 -1 -0.40 -2.15 0.40 -0.60 0.50 -0.65 0.50 -0.05 0 0.40 0.35 1.15 0.85 1.65 0.80 0.90 0.65 1 -0.95 0.55z"/>
  <path d="M26 37.30 c0 -0.70 -0.20 -1.40 -0.50 -1.55 -0.25 -0.15 -0.50 -0.80 -0.50 -1.40 0.05 -0.85 0.25 -0.60 1 0.90 1.10 2.25 1.25 3.25 0.50 3.25 -0.25 0 -0.50 -0.55 -0.50 -1.20z"/>
  <path d="M18.90 23.70 c-0.55 -0.50 0.15 -1.70 0.95 -1.70 0.40 0 0.65 0.35 0.55 0.85 -0.15 0.90 -1 1.35 -1.50 0.85z"/>
  <path d="M27.70 17.80 c-0.15 -0.40 -0.20 -1.15 -0.10 -1.60 0.10 -0.70 0.30 -0.60 0.75 0.45 0.40 0.80 0.45 1.45 0.15 1.60 -0.30 0.20 -0.65 -0.05 -0.80 -0.45z"/>
  <path d="M24.25 15.50 c-0.40 -0.65 0.25 -4 0.80 -4 0.60 0 0.60 3.85 0 4.25 -0.25 0.15 -0.60 0.05 -0.80 -0.25z"/>
  <path d="M21 13.70 c0 -0.95 2.95 -7.10 3.60 -7.50 0.20 -0.15 0.40 0.20 0.40 0.75 0 0.55 -0.20 1.10 -0.40 1.25 -0.25 0.15 -0.85 1.60 -1.40 3.25 -0.90 2.80 -2.20 4.15 -2.20 2.25z"/>
  <path d="M18.80 12.40 c-0.90 -0.80 -0.90 -0.95 -0.20 -1.55 0.45 -0.30 1.45 -1.60 2.25 -2.85 2.60 -4.15 5.50 -6.85 5.50 -5.15 0 0.40 -0.85 1.60 -1.85 2.60 -2.40 2.35 -4.10 4.85 -4.45 6.55 -0.30 1.30 -0.30 1.30 -1.25 0.40z"/>
 </g>
 <g fill="#eba26e">
  <path d="M19 38.45 c0 -0.30 -0.30 -0.45 -0.65 -0.30 -0.50 0.20 -0.60 -0.45 -0.45 -2.65 0.10 -1.75 0 -3 -0.35 -3.20 -0.75 -0.50 -0.70 -1.30 0.15 -1.30 0.90 0 1.25 1.55 0.95 4 -0.20 1.50 -0.05 2.25 0.60 3 0.50 0.60 0.65 1 0.35 1 -0.35 0 -0.60 -0.25 -0.60 -0.55z"/>
  <path d="M26 37.15 c0 -0.55 -0.30 -1.25 -0.60 -1.60 -0.55 -0.55 -0.50 -0.65 0.05 -0.45 0.90 0.25 1.65 2.25 1.05 2.65 -0.30 0.20 -0.50 -0.10 -0.50 -0.60z"/>
  <path d="M16 26.05 c0 -1.25 1.55 -1.45 2.50 -0.30 0.50 0.60 0.50 0.75 -0.15 0.75 -0.40 0 -1.10 0.15 -1.55 0.30 -0.60 0.20 -0.80 0 -0.80 -0.75z"/>
  <path d="M18.75 23.55 c-0.35 -0.60 0.60 -1.20 1.25 -0.80 0.55 0.35 0.20 1.25 -0.50 1.25 -0.25 0 -0.55 -0.20 -0.75 -0.45z"/>
 </g>
 <g fill="#ffd65c">
  <path d="M19 23.25 c0 -0.40 0.25 -0.75 0.50 -0.75 0.30 0 0.50 0.35 0.50 0.75 0 0.40 -0.20 0.75 -0.50 0.75 -0.25 0 -0.50 -0.35 -0.50 -0.75z"/>
  <path d="M18.85 12.65 c-1 -1.15 -1.10 -1.65 -0.20 -1.65 0.30 0 1.10 -0.90 1.75 -2 0.60 -1.10 1.35 -2 1.65 -2 0.30 0 0.05 0.80 -0.60 1.80 -0.60 1 -1.25 2.50 -1.40 3.30 -0.30 1.45 -0.35 1.45 -1.20 0.55z"/>
  <path d="M21.75 11.90 c0.45 -1.50 2.80 -5.55 3.05 -5.30 0.30 0.35 -2.50 6.40 -2.95 6.40 -0.25 0 -0.25 -0.50 -0.10 -1.10z"/>
 </g>
 <g fill="#cbafbb">
  <path d="M22.45 28.15 c0.30 -0.60 0.55 -1.55 0.55 -2.10 0 -1.30 0.80 -1.35 1.15 -0.10 0.15 0.65 -0.20 1.40 -1 2.15 -1.25 1.15 -1.25 1.15 -0.70 0.05z"/>
  <path d="M28.05 25.40 c0.60 -2.15 1.45 -2.95 1.45 -1.35 -0.05 1.15 -1.05 2.95 -1.65 2.95 -0.15 0 -0.05 -0.70 0.20 -1.60z"/>
  <path d="M11.30 18.90 c-0.15 -0.65 -0.05 -1.35 0.20 -1.60 0.35 -0.35 0.50 -0.20 0.50 0.30 0 0.45 0.15 1.15 0.30 1.60 0.15 0.45 0.10 0.80 -0.20 0.80 -0.25 0 -0.60 -0.50 -0.80 -1.10z"/>
 </g>
 <g fill="#a2afe4">
  <path d="M11.75 19.80 c-0.15 -0.45 -0.35 -1.15 -0.50 -1.55 -0.10 -0.40 0 -0.85 0.20 -1 0.25 -0.10 0.55 0.45 0.75 1.35 0.35 1.65 0 2.60 -0.45 1.20z"/>
  <path d="M14.25 6.15 l-0.85 -1.40 1.15 1.10 c0.60 0.60 1 1.25 0.85 1.40 -0.15 0.15 -0.65 -0.35 -1.15 -1.10z"/>
  <path d="M10.45 2.55 c0.65 -0.60 1.40 -1.05 1.75 -1.05 0.60 0 -0.25 0.70 -1.95 1.55 -0.80 0.40 -0.75 0.30 0.20 -0.50z"/>
 </g>
 <g fill="#fccb90">
  <path d="M18 35.30 c0 -1.50 -0.20 -2.90 -0.50 -3.05 -0.75 -0.45 -0.60 -1.25 0.25 -1.25 0.60 0 0.75 0.70 0.75 3.50 0 1.95 -0.10 3.50 -0.25 3.50 -0.15 0 -0.25 -1.20 -0.25 -2.70z"/>
  <path d="M26.05 37.40 c0 -0.45 -0.20 -1.25 -0.35 -1.75 -0.25 -0.85 -0.25 -0.85 0.30 0 0.30 0.50 0.45 1.25 0.35 1.75 -0.20 0.75 -0.25 0.75 -0.30 0z"/>
  <path d="M27.75 26.65 c0.75 -1.60 1.25 -2.10 1.25 -1.20 0 0.25 -0.45 0.95 -1 1.60 l-1.05 1.20 0.80 -1.60z"/>
  <path d="M18.75 12.50 c-1.05 -1.15 -0.70 -1.80 0.60 -1.25 0.70 0.25 0.75 0.45 0.20 0.60 -0.55 0.25 -0.55 0.35 0 0.70 0.35 0.20 0.55 0.50 0.40 0.70 -0.15 0.15 -0.70 -0.20 -1.20 -0.75z"/>
 </g>
 <g fill="#f0d3d0">
  <path d="M17 31.50 c0 -0.25 0.35 -0.50 0.75 -0.50 0.40 0 0.75 0.25 0.75 0.50 0 0.30 -0.35 0.50 -0.75 0.50 -0.40 0 -0.75 -0.20 -0.75 -0.50z"/>
 </g>
</svg>