<?xml version="1.0" encoding="utf-8"?>
<!DOCTYPE svg PUBLIC "-//W3C//DTD SVG 1.0//EN" "http://www.w3.org/TR/2001/REC-SVG-20010904/DTD/svg10.dtd">
<svg version="1.0" xmlns="http://www.w3.org/2000/svg" width="40px" height="40px" viewBox="0 0 40 40" preserveAspectRatio="xMidYMid meet">
 <g fill="#050506">
  <path d="M5.30 25.60 c-0.10 -0.20 -0.35 -1.20 -0.55 -2.25 l-0.35 -1.85 2 0 c2.15 0 2.60 0.50 2.60 3.05 0 1.30 -0.15 1.45 -1.70 1.45 -0.95 0 -1.85 -0.15 -2 -0.40z"/>
  <path d="M14.50 16.75 c0 -1.40 0.20 -1.75 1 -1.75 0.55 0 1 0.35 1 0.75 0 0.90 0.80 1 1.15 0.15 0.15 -0.35 0.30 0.10 0.30 1 0.05 1.50 -0.05 1.60 -1.70 1.60 -1.65 0 -1.75 -0.10 -1.75 -1.75z"/>
  <path d="M13.60 9.15 c0.10 -1.05 0.30 -1.80 0.50 -1.65 0.15 0.15 0.85 -0.25 1.50 -0.85 0.95 -0.90 1.35 -1 1.80 -0.55 0.70 0.70 0.80 3.90 0.10 3.90 -0.25 0 -0.50 -0.20 -0.50 -0.50 0 -0.90 -1.10 -0.50 -1.35 0.50 -0.15 0.55 -0.70 1 -1.25 1 -0.80 0 -0.95 -0.30 -0.80 -1.85z"/>
 </g>
 <g fill="#151317">
  <path d="M5.20 25.15 c-0.20 -0.80 -0.60 -1.70 -0.85 -2.05 -0.45 -0.55 -0.60 -0.55 -0.90 0.25 -0.35 0.85 -0.35 0.85 -0.70 0 -0.20 -0.50 -0.05 -1.70 0.35 -2.75 0.55 -1.55 0.95 -1.90 2.30 -2 1.45 -0.15 1.60 0 1.60 1.10 0 0.70 0.25 1.30 0.55 1.30 1 0 1.90 1.70 1.95 3.65 0 1.85 0 1.85 -2 1.85 -1.75 0 -2 -0.15 -2.30 -1.35z"/>
  <path d="M27.80 22.55 c-0.15 -0.20 -0.85 -0.30 -1.55 -0.15 -1 0.15 -1.25 0 -1.25 -0.85 0 -0.85 0.30 -1.05 1.75 -1.05 1.55 0 1.75 0.15 1.75 1.25 0 1.30 -0.25 1.55 -0.70 0.80z"/>
  <path d="M15 18.05 c0 -0.30 -0.80 -0.35 -1.75 -0.20 -1.15 0.20 -1.75 0.10 -1.75 -0.30 0 -0.30 0.25 -0.55 0.60 -0.55 0.45 0 0.45 -0.15 0 -0.60 -0.35 -0.35 -0.60 -1 -0.60 -1.45 0 -2.30 -2.60 -1.35 -3.75 1.30 -0.85 2.15 -1.75 2.25 -1.75 0.25 0 -0.95 0.35 -1.70 1 -2.10 0.65 -0.40 1 -1.20 1 -2.20 0 -2.35 2.60 -5.70 4.45 -5.70 1.25 0 1.55 0.30 2.55 2.80 0.65 1.55 1.15 3.85 1.20 5.20 0.05 1.65 0.25 2.30 0.70 2.15 0.30 -0.15 0.60 -0.45 0.60 -0.70 0 -0.25 0.25 -0.45 0.50 -0.45 0.30 0 0.50 0.70 0.50 1.50 0 1.40 -0.15 1.50 -1.75 1.50 -0.95 0 -1.75 -0.20 -1.75 -0.45z m-2 -7.80 l-1 -2.35 -1 1.25 c-1.25 1.60 -1.30 2.50 -0.10 2.15 0.60 -0.20 1.30 0.05 1.85 0.70 1.35 1.45 1.40 0.95 0.25 -1.75z"/>
  <path d="M26 6.80 c0 -0.80 1.25 -1.20 2.65 -0.90 1.60 0.40 0.95 1.60 -0.90 1.60 -1.20 0 -1.75 -0.25 -1.75 -0.70z"/>
 </g>
 <g fill="#221e26">
  <path d="M29.20 32.25 c0.30 -2.20 0.70 -3.25 1.15 -3.25 0.55 0 0.65 0.50 0.35 2.40 -0.15 1.30 -0.55 2.75 -0.80 3.25 -0.90 1.75 -1.20 0.75 -0.70 -2.40z"/>
  <path d="M34.75 32.15 c0.25 -1.85 0.10 -4 -0.40 -6 l-0.70 -3.15 1.10 0 c1.05 0 1.20 0.30 1.50 2.95 0.20 1.75 0.10 4.10 -0.25 5.75 -0.80 3.85 -1.65 4.20 -1.25 0.45z"/>
  <path d="M29 25.90 c-0.35 -1.45 -0.85 -2.90 -1.10 -3.25 -0.70 -0.85 -3.90 -0.20 -5.55 1.15 -0.90 0.80 -1.95 1.15 -3.10 1.10 -1.55 -0.05 -1.75 -0.20 -1.75 -1.50 0 -1.15 0.20 -1.40 1.25 -1.40 1.10 0 1.25 -0.20 1.25 -1.75 0 -1.40 0.20 -1.75 0.95 -1.75 0.65 0 1.05 -0.40 1.15 -1.10 0.10 -0.95 0.50 -1.20 2.05 -1.30 1.40 -0.10 1.85 0 1.85 0.60 0 0.45 0.35 0.80 0.75 0.80 0.45 0 0.75 0.50 0.75 1.30 0 1.15 0.10 1.20 0.75 0.50 0.40 -0.40 0.75 -1.60 0.75 -2.75 0 -2 0.05 -2.05 1.70 -2.05 0.95 0 1.90 0.25 2.10 0.55 0.25 0.40 0.40 0.40 0.70 0 0.15 -0.35 1.20 -0.75 2.30 -0.90 1.75 -0.30 1.90 -0.25 1.30 0.50 -0.60 0.70 -0.45 0.95 1.10 1.95 1 0.65 1.80 1.45 1.80 1.80 0 0.95 -2.25 0.70 -3.20 -0.35 -1.15 -1.25 -3.50 -0.85 -2.80 0.45 0.65 1.20 0.65 4 0 4 -0.30 0 -0.80 -0.60 -1.10 -1.35 -0.35 -0.80 -0.65 -1.45 -0.70 -1.55 -0.05 -0.10 -0.65 0.20 -1.30 0.60 -1.20 0.80 -1.45 1.95 -0.75 3.15 0.20 0.30 0.50 1.60 0.65 2.85 0.30 1.85 0.20 2.30 -0.45 2.30 -0.50 0 -0.95 -0.85 -1.35 -2.60z"/>
  <path d="M6.15 27.25 c-0.30 -0.35 -0.85 -1.55 -1.15 -2.70 -0.55 -2 -1.50 -2.80 -1.50 -1.25 0 0.40 -0.20 0.60 -0.50 0.45 -0.85 -0.55 -0.55 -2 1.10 -5.20 1.10 -2.15 1.85 -3.05 2.55 -3.05 0.85 0 0.90 0.25 0.60 1.85 l-0.35 1.90 1.05 -0.95 c0.60 -0.55 1.20 -0.85 1.30 -0.70 0.45 0.40 -0.35 6.90 -0.80 6.90 -0.20 0 -0.70 -0.45 -1.10 -1.05 -0.95 -1.30 -1.60 -0.35 -0.75 1.05 0.40 0.60 1.15 1 2 1 1.95 0 1.75 1.20 -0.25 1.85 -1.20 0.35 -1.80 0.35 -2.20 -0.10z"/>
  <path d="M10 18.30 c0 -0.45 0.30 -0.80 0.65 -0.80 0.30 0 0.90 -0.20 1.30 -0.45 0.60 -0.40 0.60 -0.75 -0.15 -2.30 -0.85 -1.70 -0.95 -1.75 -1.95 -1.10 -2.40 1.55 -3.05 -1.95 -0.85 -4.15 0.55 -0.55 1 -1.20 1 -1.40 0 -0.70 1.75 -2.10 2.60 -2.10 0.45 0 1.05 0.30 1.40 0.70 0.30 0.40 0.90 0.60 1.30 0.45 0.45 -0.15 0.70 0.10 0.70 0.80 0 0.60 -0.20 1.05 -0.50 1.05 -0.30 0 -0.30 0.45 0 1.25 0.40 1 0.30 1.25 -0.30 1.25 -0.55 0 -0.50 0.25 0.30 1.15 0.75 0.75 1 1.60 0.90 2.75 -0.15 1 0 1.55 0.30 1.45 0.30 -0.10 0.50 -1.05 0.40 -2.05 -0.10 -1.50 0 -1.80 0.80 -1.80 1 0 1.60 1.65 1.60 4.30 0 1.10 -0.20 1.20 -2.10 1.20 -1.20 0 -3.35 0.15 -4.75 0.30 -2.25 0.30 -2.65 0.20 -2.65 -0.50z m4.70 -3.65 c-0.50 -2.35 -2.30 -6.65 -2.75 -6.65 -0.25 0 -0.90 0.75 -1.45 1.65 l-1 1.60 1.60 0.25 c1.30 0.20 1.80 0.65 2.65 2.40 1.15 2.45 1.40 2.60 0.95 0.75z"/>
  <path d="M17.05 9.95 c-0.35 -1.35 -0.55 -2.65 -0.40 -2.80 0.55 -0.50 3.35 0.45 3.35 1.15 0 0.55 0.30 0.65 1 0.45 0.80 -0.25 1 -0.10 1 0.75 0 1.95 -0.95 3 -2.65 3 -1.55 0 -1.70 -0.15 -2.30 -2.55z"/>
  <path d="M30.85 9.65 c-0.55 -0.50 -0.40 -2.65 0.15 -2.65 0.25 0 1.20 0.65 2.10 1.50 l1.65 1.45 -1.80 0.05 c-1 0 -1.95 -0.15 -2.10 -0.35z"/>
 </g>
 <g fill="#2b2936">
  <path d="M29.30 30.90 c0.30 -5.20 -0.85 -9.05 -2.75 -9.30 -0.80 -0.15 -1.05 0 -0.75 0.45 0.25 0.45 0.10 0.50 -0.50 0.30 -0.55 -0.25 -1.50 0.15 -2.70 1.10 -1.40 1.05 -2.45 1.40 -4.25 1.45 -1.30 0.05 -3 0.40 -3.85 0.85 -2.05 1.05 -3.50 1 -3.50 -0.25 0 -0.75 0.35 -1 1.25 -1 0.70 0 1.25 -0.20 1.25 -0.50 0 -0.25 0.75 -0.50 1.65 -0.50 1.30 0 1.80 -0.30 2.25 -1.25 0.35 -0.70 0.95 -1.40 1.35 -1.60 0.70 -0.25 0.70 -0.40 -0.05 -1.20 -0.60 -0.65 -1.55 -0.95 -3.05 -0.95 -1.15 0 -2.15 -0.20 -2.15 -0.50 0 -0.25 -0.35 -0.50 -0.75 -0.50 -0.40 0 -0.60 -0.30 -0.45 -0.70 0.15 -0.40 0.05 -0.85 -0.25 -1.05 -0.30 -0.15 -0.55 -0.85 -0.55 -1.50 0 -0.65 -0.20 -1.30 -0.40 -1.45 -0.65 -0.40 -3.40 2.75 -4 4.55 -0.60 1.80 0.05 2.70 0.85 1.30 0.45 -0.75 0.50 -0.65 0.55 0.75 0 1.45 -0.15 1.60 -1.55 1.60 -1.20 0 -1.50 -0.20 -1.25 -0.75 0.35 -1 -0.20 -0.95 -1 0.15 -0.60 0.80 -0.65 0.75 -0.70 -0.30 0 -1 0.65 -2.45 2.45 -5.60 0.25 -0.40 0.85 -1.75 1.45 -3 1.25 -2.95 3.45 -5.50 4.60 -5.50 0.55 0 1.30 0.50 1.70 1.10 0.45 0.60 0.80 0.85 0.80 0.50 0 -0.30 0.25 -0.60 0.50 -0.60 0.30 0 0.50 0.45 0.50 1.05 0 0.65 -0.20 0.90 -0.60 0.65 -0.40 -0.25 -0.45 0 -0.20 0.85 1.15 3.75 1.40 5.65 0.85 6.55 -0.45 0.75 -0.40 0.90 0.65 0.80 1.05 -0.10 1.10 -0.25 0.80 -1.65 -0.25 -0.80 -0.55 -3.35 -0.70 -5.60 l-0.30 -4.10 1.70 1.10 c1 0.60 1.75 1.50 1.80 2.05 0 0.85 0.15 0.80 1.70 -0.40 0.95 -0.70 1.95 -1.30 2.25 -1.30 0.30 0 0.55 -0.20 0.55 -0.50 0 -0.25 1.10 -0.50 2.40 -0.50 2.85 0 6.05 1.85 8.85 5.15 1.90 2.20 2.10 2.80 1.15 3.80 -0.55 0.55 -0.50 0.70 0 0.90 0.35 0.15 0.95 0.55 1.30 0.95 0.40 0.40 0.95 0.70 1.25 0.70 0.30 0 0.55 1 0.55 2.35 0 2.55 0 2.55 -2.70 -1.20 -1.95 -2.75 -2.50 -3.25 -1.95 -1.80 0.25 0.65 0.10 0.75 -0.80 0.50 -0.90 -0.20 -1.05 -0.10 -0.75 0.55 2.45 5.60 3.05 9.25 2.25 13.50 -0.75 3.80 -1.30 3.25 -1.35 -1.30 0 -3.30 -0.30 -5.10 -1.15 -7.50 -0.65 -1.70 -1.35 -3.20 -1.50 -3.30 -0.15 -0.10 -0.80 0.20 -1.40 0.70 -1.05 0.85 -1.05 0.90 -0.30 3.80 0.70 2.80 0.65 6.70 -0.15 9.95 -0.65 2.60 -1.15 1.10 -0.90 -2.85z m-4.30 -11 c0 -0.55 -2.45 1.15 -2.50 1.75 0 0.20 0.55 0 1.25 -0.45 0.70 -0.45 1.25 -1 1.25 -1.30z m-11.30 -8.75 c-1.50 -4.70 -1.50 -4.70 -3.95 -0.50 l-0.90 1.50 1.40 -0.35 c1.45 -0.35 2.95 0.45 2.40 1.35 -0.15 0.30 -0.05 0.35 0.25 0.15 0.35 -0.20 0.80 0.50 1.20 1.80 0.40 1.35 0.70 1.80 0.80 1.25 0.10 -0.50 -0.45 -2.85 -1.20 -5.20z m9.20 4.25 c0.85 -0.85 0.75 -1.40 -0.35 -1.40 -0.55 0 -1.05 -0.40 -1.15 -0.85 -0.15 -0.75 -0.30 -0.70 -0.85 0.30 -0.60 1.05 -0.55 1.30 0.25 1.90 1.10 0.80 1.35 0.80 2.10 0.05z m3.60 -3.65 c0.90 -1.10 4 -1 4 0.10 0 0.65 0.15 0.70 0.60 0.25 0.35 -0.35 1.25 -0.60 2 -0.60 0.75 0 1.40 -0.20 1.40 -0.50 0 -0.25 -0.65 -0.50 -1.50 -0.50 -0.85 0 -1.50 -0.25 -1.50 -0.65 0 -0.30 -0.90 -0.90 -2 -1.25 -3 -0.90 -3.50 -0.80 -3.50 0.90 0 0.85 -0.20 1.50 -0.50 1.50 -0.25 0 -0.50 0.35 -0.50 0.75 0 0.40 0.20 0.75 0.45 0.75 0.25 0 0.70 -0.35 1.05 -0.75z"/>
  <path d="M1.85 28.65 c-0.55 -0.50 -0.40 -2.15 0.15 -2.15 0.30 0 0.50 0.55 0.50 1.25 0 1.30 -0.10 1.45 -0.65 0.90z"/>
  <path d="M6.10 27.40 c-0.85 -0.85 -0.75 -2.40 0.20 -2.40 0.75 0 2.20 1.10 2.20 1.70 0 0.70 -1.90 1.20 -2.40 0.70z"/>
 </g>
 <g fill="#292d4c">
  <path d="M1.75 27.85 c-0.50 -1.85 0.05 -4.40 1.65 -7.65 1.35 -2.80 3.10 -3.75 3.10 -1.70 0 0.55 0.20 1 0.50 1 0.25 0 0.70 -0.45 1 -1 0.40 -0.70 1.05 -1 2.35 -1 1.70 0 1.75 0.05 1.50 1.50 -0.30 1.25 -0.15 1.50 0.65 1.50 0.65 0 1 -0.35 1 -1 0 -0.55 -0.20 -1 -0.50 -1 -0.25 0 -0.50 -0.90 -0.50 -2 0 -2.30 1.20 -2.80 1.70 -0.75 0.20 0.70 0.55 1.25 0.85 1.25 0.30 0 0.90 0.40 1.35 0.85 0.80 0.80 0.85 0.80 1 0 0.10 -0.45 0.50 -0.85 0.85 -0.85 0.45 0 0.60 -0.30 0.45 -0.75 -0.25 -0.55 0.05 -0.75 1 -0.75 1.05 0 1.30 0.25 1.30 1.30 0 1.20 -0.10 1.25 -0.85 0.65 -0.75 -0.55 -0.70 -0.50 0.05 0.45 0.95 1.10 0.95 1.10 -0.35 1.10 -1.55 0 -1.75 1 -0.40 1.95 0.90 0.65 0.90 0.70 -0.15 2.35 -0.80 1.25 -1.40 1.65 -2.55 1.70 -0.85 0 -1.75 0.20 -2 0.45 -0.45 0.40 -5.10 1.55 -6.25 1.55 -0.95 0 -0.50 -1.95 0.50 -2.25 1.50 -0.50 1.20 -1.25 -0.55 -1.25 -0.80 0 -1.40 -0.20 -1.25 -0.45 0.20 -0.25 0 -0.55 -0.30 -0.70 -0.35 -0.10 -0.90 0.25 -1.25 0.85 -0.55 1 -0.60 1 -0.95 0.10 -0.20 -0.55 0 -1.50 0.50 -2.40 0.50 -0.80 0.80 -1.60 0.65 -1.75 -0.50 -0.45 -2.40 3.85 -3.05 7 -0.60 2.75 -0.70 2.95 -1.05 1.70z"/>
  <path d="M29.05 25.15 c-0.85 -3.75 -1.50 -4.70 -2.65 -4.10 -0.75 0.40 -0.90 0.30 -0.90 -0.60 0 -0.90 0.20 -1 1.25 -0.75 0.95 0.25 1.15 0.15 0.95 -0.45 -0.35 -0.90 -1.75 -1 -2.60 -0.15 -0.95 0.95 -1.35 0 -0.60 -1.35 0.75 -1.40 2.30 -1.75 1.80 -0.45 -0.25 0.70 -0.20 0.75 0.45 0.20 0.60 -0.50 0.75 -0.50 0.75 0.20 0 0.45 0.35 0.80 0.75 0.80 0.50 0 0.75 0.55 0.75 1.75 0 0.95 0.20 1.75 0.45 1.75 0.25 0 0.70 1.15 1 2.50 0.70 3.25 0.70 3.50 -0.10 3.50 -0.35 0 -0.90 -1.20 -1.30 -2.85z"/>
  <path d="M34.70 26.15 c-0.15 -0.80 -0.60 -2.25 -1 -3.25 -0.35 -1.05 -0.55 -2.25 -0.35 -2.70 0.20 -0.50 0.10 -0.75 -0.20 -0.55 -0.25 0.15 -0.50 0.05 -0.55 -0.30 0 -0.35 -0.20 -1.10 -0.35 -1.70 -0.30 -1 -0.20 -1.15 1.05 -1.15 1 0 1.25 0.15 0.80 0.45 -0.55 0.35 -0.50 0.80 0.30 2.35 0.85 1.70 2.10 6.30 2.10 7.70 0 1.15 -1.50 0.40 -1.80 -0.85z"/>
  <path d="M19.60 24.55 c-0.50 -0.30 -0.50 -0.50 0.15 -1.05 0.65 -0.55 0.75 -0.45 0.75 0.45 0 1.20 0 1.20 -0.90 0.60z"/>
  <path d="M27.50 16.40 c0 -0.30 -0.15 -0.40 -0.35 -0.25 -0.50 0.55 -1.60 -1.30 -1.65 -2.70 0 -1.65 0.85 -2.45 2.80 -2.45 1.35 0 1.60 0.20 1.90 1.55 0.45 2.30 0.40 2.40 -0.90 1.80 -1 -0.50 -1.10 -0.75 -0.65 -1.35 0.55 -0.65 0.50 -0.65 -0.30 -0.05 -0.90 0.70 -0.90 0.80 0.35 1.70 1.65 1.20 1.70 2.35 0.05 2.35 -0.70 0 -1.25 -0.25 -1.25 -0.60z"/>
  <path d="M14.80 14.95 c-0.45 -2.20 -0.40 -2.45 0.40 -2.45 0.80 0 1.55 2.65 1.05 3.50 -0.55 0.90 -1.10 0.50 -1.45 -1.05z"/>
  <path d="M35.80 13.75 c-0.15 -0.40 -0.60 -0.75 -1.05 -0.75 -0.55 0 -0.75 -0.50 -0.75 -1.85 l0.05 -1.90 1.70 2 c0.95 1.10 1.75 2.30 1.75 2.65 0 0.85 -1.35 0.75 -1.70 -0.15z"/>
  <path d="M11.30 13.15 c-0.25 -0.60 -0.45 -0.70 -0.90 -0.25 -0.75 0.75 -1.55 0.80 -1.30 0.05 0.10 -0.30 0.30 -0.45 0.45 -0.35 0.15 0.10 0.65 -0.15 1.10 -0.50 1 -0.85 1.85 -0.40 1.85 0.95 0 1.15 -0.80 1.25 -1.20 0.10z"/>
  <path d="M25.80 8.70 c-0.70 -1.85 -0.35 -2.45 1.70 -2.60 2 -0.10 2 -0.10 2 1.65 0 1.65 -0.10 1.75 -1.70 1.75 -1.10 0 -1.80 -0.30 -2 -0.80z"/>
 </g>
 <g fill="#373441">
  <path d="M29.40 30.90 c0.10 -2.55 0.30 -4.75 0.40 -4.85 0.15 -0.15 0.45 0 0.75 0.30 0.45 0.45 0.45 1.60 0 4.50 -0.80 5.50 -1.45 5.55 -1.15 0.05z"/>
  <path d="M34.75 29.85 c0 -3.20 -0.25 -5.25 -0.85 -6.70 -0.50 -1.15 -0.75 -2.50 -0.55 -2.95 0.25 -0.65 0.15 -0.75 -0.40 -0.45 -0.40 0.20 -0.55 0.25 -0.35 0 0.75 -0.80 -2.70 -5.75 -4 -5.75 -0.60 0 -0.60 -0.15 -0.10 -0.75 0.35 -0.40 0.45 -0.75 0.20 -0.75 -0.25 0 -1.80 1.45 -3.45 3.25 l-3 3.30 -1.85 -1.35 c-1.55 -1.10 -1.90 -1.65 -1.90 -3 0 -1.90 1.80 -5.65 2.90 -6.10 0.45 -0.15 1.20 -0.70 1.75 -1.25 0.80 -0.80 1.05 -0.85 1.40 -0.30 0.35 0.55 0.45 0.50 0.45 -0.15 0 -1.05 0.20 -1.10 1.60 -0.35 0.75 0.40 0.95 0.40 0.70 0 -0.25 -0.35 0.05 -0.55 0.70 -0.55 1.15 0 6 2.95 6 3.70 0 0.40 -3.45 0.15 -6.10 -0.50 -1.20 -0.25 -1.40 -0.15 -1.40 0.80 0 0.65 -0.40 1.20 -1 1.35 -0.55 0.15 -1 0.45 -1 0.70 0 0.75 1.85 0.50 2.50 -0.30 0.70 -0.85 4 -1.05 4 -0.25 0 0.35 0.90 0.40 2.45 0.20 2.15 -0.30 2.50 -0.20 3.25 0.85 1 1.45 1 1.95 0.05 1.95 -0.40 0 -0.75 -0.20 -0.75 -0.45 0 -0.80 -2.50 -1.10 -3.45 -0.45 -0.80 0.60 -0.85 0.80 -0.30 1.60 0.75 1 2 0.60 1.55 -0.50 -0.15 -0.45 0 -0.55 0.60 -0.35 1.30 0.45 2.10 1.20 1.80 1.70 -0.15 0.25 0.30 0.45 1 0.45 0.80 0 1.30 0.30 1.30 0.75 0 0.40 0.35 0.75 0.75 0.75 0.40 0 0.75 0.45 0.75 1 0 1.60 -1.10 1.15 -3.40 -1.35 -1.20 -1.35 -2.05 -2 -1.90 -1.50 0.15 0.55 0 0.85 -0.45 0.85 -0.95 0 -0.95 0.65 0 2.50 1.55 3 2.15 6.65 1.75 10.45 -0.60 5.30 -1.25 5.25 -1.25 -0.10z"/>
  <path d="M7 26.75 c0 -0.40 -0.30 -0.75 -0.65 -0.75 -0.40 0 -1 -0.90 -1.35 -1.95 -0.55 -1.70 -0.50 -2.10 0.20 -3.10 0.90 -1.30 1 -1.95 0.40 -1.95 -0.25 0 -0.70 0.50 -1 1.15 l-0.55 1.10 0 -1.25 c-0.05 -0.70 0.35 -1.90 0.85 -2.75 1.35 -2.10 4.70 -5.25 5.25 -4.90 0.30 0.15 -0.10 0.75 -0.90 1.30 -2 1.45 -3.85 6.35 -2.10 5.70 0.30 -0.10 0.90 0.05 1.20 0.45 0.50 0.50 0.50 0.65 0 0.85 -0.45 0.20 -0.45 0.35 0.05 0.90 0.45 0.45 0.60 0.50 0.60 0.05 0 -0.35 0.25 -0.60 0.50 -0.60 0.30 0 0.50 0.55 0.50 1.25 0 0.95 0.25 1.25 1.15 1.25 0.60 0 1.40 0.20 1.75 0.40 0.85 0.55 0.20 2.10 -0.90 2.10 -0.50 0 -1.70 0.35 -2.65 0.75 -1 0.40 -1.95 0.75 -2.10 0.75 -0.15 0 -0.25 -0.35 -0.25 -0.75z m1 -2.20 c0 -0.30 -0.25 -0.65 -0.50 -0.80 -0.30 -0.20 -0.40 -0.55 -0.25 -0.80 0.20 -0.25 0.10 -0.45 -0.20 -0.45 -0.85 0 -1.15 1 -0.55 1.75 0.70 0.85 1.50 1 1.50 0.30z"/>
  <path d="M28.55 23.20 c-0.60 -1.25 -1.05 -2.50 -1 -2.85 0.15 -1.30 -0.10 -1.85 -0.90 -1.85 -0.70 0 -0.70 -0.10 0.10 -1 0.50 -0.55 0.80 -1.10 0.65 -1.25 -0.15 -0.15 -0.65 0.35 -1.15 1.10 -0.90 1.40 -2.70 3.10 -3.35 3.15 -0.55 0 3.80 -6.15 4.50 -6.40 0.30 -0.10 0.60 0.15 0.60 0.55 0 0.40 0.40 0.70 0.85 0.65 1.35 -0.10 1.40 1.65 0.05 2.20 -1 0.45 -0.90 0.45 0.50 0.20 1.45 -0.25 1.60 -0.15 1.60 0.95 0 1.55 -0.50 2 -1.35 1.25 -0.55 -0.45 -0.60 -0.35 -0.25 0.65 0.80 2.05 1.15 4.95 0.70 4.95 -0.30 0 -0.95 -1 -1.55 -2.30z"/>
  <path d="M19.55 24.55 c-0.45 -0.30 -0.40 -0.55 0.20 -1.05 0.40 -0.35 0.90 -0.50 1.10 -0.35 0.15 0.20 1.35 -0.55 2.65 -1.65 1.30 -1.10 2.65 -2 2.95 -2 1 0 0.55 1.45 -0.55 1.75 -0.65 0.20 -1.60 0.75 -2.15 1.20 -1.90 1.65 -3.60 2.45 -4.20 2.10z"/>
  <path d="M18 22.50 c0 -0.25 0.35 -0.50 0.75 -0.50 0.90 0 1 -2.05 0.20 -2.85 -0.70 -0.70 -1.95 -0.30 -1.95 0.65 0 0.60 -0.20 0.60 -1 0.20 -0.80 -0.45 -0.90 -0.40 -0.70 0.25 0.20 0.40 0.60 0.75 1 0.75 0.40 0 0.70 0.35 0.70 0.75 0 0.50 -0.50 0.70 -1.75 0.65 -1.60 -0.05 -1.75 -0.20 -1.75 -1.65 l0 -1.65 -2.25 0.30 c-2.05 0.20 -2.25 0.15 -2.25 -0.85 0 -0.55 0.25 -1.05 0.55 -1.05 0.25 0 0.40 0.20 0.20 0.45 -0.15 0.25 0.40 0.15 1.25 -0.25 1.50 -0.80 1.85 -1.60 1.05 -2.45 -0.70 -0.75 -1.20 -3.75 -0.65 -3.75 0.95 0 2.60 2.60 2.60 4.05 0 1.40 0.10 1.45 2.15 1.40 3.20 -0.15 4.90 1 5.55 3.70 0.25 1.10 0.15 1.35 -0.65 1.35 -0.55 0 -1.15 0.25 -1.30 0.50 -0.15 0.30 -0.65 0.50 -1.05 0.50 -0.40 0 -0.70 -0.20 -0.70 -0.50z"/>
  <path d="M14.65 14.05 c-0.45 -2.30 -0.40 -2.40 0.40 -1.90 0.90 0.55 1.65 3.10 1.15 3.90 -0.60 1 -1.10 0.35 -1.55 -2z"/>
  <path d="M7.50 12.75 c0 -0.50 1.95 -4 2.95 -5.25 1.85 -2.35 1.55 -0.65 -0.45 2.40 -1.80 2.80 -2.50 3.60 -2.50 2.85z"/>
  <path d="M17.60 11.30 c0.10 -0.95 0.05 -1.65 -0.15 -1.50 -0.40 0.25 -1.15 -3.30 -0.75 -3.70 0.45 -0.40 2.30 1.45 2 1.95 -0.15 0.25 0.10 0.45 0.50 0.45 1 0 1 -0.10 -0.20 2.40 -1.25 2.55 -1.70 2.65 -1.40 0.40z"/>
  <path d="M13.05 8.45 c-0.90 -2 -0.05 -3.05 1.15 -1.40 0.50 0.70 0.80 0.90 0.80 0.45 0 -0.60 0.10 -0.60 0.65 -0.05 0.50 0.55 0.50 0.70 0 0.90 -0.35 0.15 -0.65 0.55 -0.65 0.95 0 1.25 -1.25 0.75 -1.95 -0.85z"/>
 </g>
 <g fill="#363954">
  <path d="M30 29.50 c0 -0.40 -0.15 -1.60 -0.30 -2.60 -0.20 -1.25 -0.15 -1.90 0.20 -1.90 0.80 0 1.30 3.25 0.65 4.35 -0.40 0.70 -0.50 0.70 -0.55 0.15z"/>
  <path d="M6 26.55 c0 -0.60 0.45 -1.05 1.25 -1.25 0.70 -0.20 1.25 -0.65 1.25 -1.10 0 -0.40 -0.20 -0.60 -0.50 -0.45 -0.30 0.20 -0.50 -0.25 -0.50 -0.95 0 -0.80 -0.30 -1.30 -0.75 -1.30 -0.40 0 -0.75 0.25 -0.75 0.50 0 0.30 -0.35 0.50 -0.75 0.50 -1.20 0 -0.90 -0.65 1.50 -2.90 2.05 -1.90 3.75 -2.85 3 -1.60 -0.15 0.30 0.05 0.35 0.45 0.20 0.60 -0.25 0.80 0 0.80 1 0 1.05 0.25 1.30 1.25 1.30 0.90 0 1.25 -0.25 1.25 -1 0 -0.80 0.35 -1 1.75 -1 1.50 0 1.75 0.20 2.15 1.60 0.30 1.30 0.20 1.80 -0.60 2.60 l-1 1 1.20 0.35 c0.75 0.20 0.90 0.35 0.40 0.40 -1.40 0.10 -2.40 -0.50 -2.40 -1.45 0 -0.65 -0.35 -0.85 -1.30 -0.70 -1.80 0.20 -2.55 1 -1.30 1.40 1.55 0.50 0.85 2.15 -1.05 2.50 -2.35 0.45 -2.80 0.55 -3.15 0.95 -0.75 0.75 -2.20 0.35 -2.20 -0.60z m3.35 -5.30 c0.40 -0.45 0.65 -0.90 0.55 -1.05 -0.45 -0.45 -1.90 0.40 -1.90 1.10 0 0.90 0.40 0.90 1.35 -0.05z m7.65 -0.50 c0 -0.10 -0.40 -0.45 -0.90 -0.70 -0.70 -0.40 -0.95 -0.30 -0.95 0.25 0 0.35 0.45 0.70 0.95 0.70 0.50 0 0.90 -0.10 0.90 -0.25z"/>
  <path d="M35.25 26.20 c-1 -4.30 -1.45 -5.65 -2.75 -7.95 -0.80 -1.35 -1.90 -3 -2.50 -3.65 -0.60 -0.60 -0.90 -1.35 -0.75 -1.60 0.15 -0.30 0 -0.50 -0.35 -0.50 -0.85 0.05 -3 1.95 -4.05 3.65 -1.45 2.25 -1.85 1.60 -1.80 -2.90 0.05 -3.30 0.20 -4.15 0.70 -3.75 0.30 0.25 0.75 0.35 0.95 0.15 0.20 -0.20 -0.20 -0.65 -0.80 -1 l-1.15 -0.60 1.35 -0.05 c0.95 0 1.40 -0.30 1.50 -1.05 0.15 -1 0.15 -1 1.35 0.10 l1.15 1.10 -0.35 -1.10 c-0.40 -1.35 0.90 -1.45 1.85 -0.15 0.35 0.55 1.45 1.20 2.45 1.55 1 0.30 2.25 1.05 2.75 1.65 l0.95 1 -2.25 -0.30 c-5.50 -0.80 -6.50 -0.85 -6.50 -0.45 0 0.25 0.90 0.35 2 0.25 1.25 -0.15 2 0 2 0.35 0 0.30 0.80 0.55 1.75 0.55 2.20 0 2.30 1.05 0.20 1.85 -1.35 0.50 -1.45 0.70 -0.95 1.60 0.30 0.60 0.95 1.05 1.50 1.05 0.50 0 1.10 0.20 1.25 0.50 0.15 0.30 -0.05 0.50 -0.45 0.50 -1 0 -1 0.65 -0.05 2.50 1.20 2.30 2.30 7.15 1.80 7.65 -0.30 0.30 -0.60 -0.05 -0.80 -0.95z"/>
  <path d="M19.80 23.80 c0.15 -0.45 0.55 -0.80 0.80 -0.80 0.65 0 0.25 1.15 -0.50 1.40 -0.35 0.10 -0.50 -0.10 -0.30 -0.60z"/>
  <path d="M18.40 21.50 c0.10 -0.85 0.40 -1.65 0.65 -1.80 0.25 -0.15 0.45 -0.75 0.45 -1.30 0 -1.05 0 -1.05 1.05 -0.10 0.55 0.50 0.90 1.30 0.80 1.80 -0.15 0.50 -0.05 0.90 0.20 0.90 0.25 0 0.45 0.25 0.45 0.50 0 0.30 -0.45 0.50 -0.95 0.50 -0.55 0 -1.15 0.25 -1.30 0.50 -0.70 1.15 -1.55 0.50 -1.35 -1z"/>
  <path d="M3.05 21.15 c0.70 -1.90 2.10 -4.15 2.55 -4.15 0.65 0 0.45 0.80 -0.90 3.20 -1.40 2.50 -2.50 3.15 -1.65 0.95z"/>
  <path d="M24.75 20.50 c1.05 -1.15 2.25 -1.30 2.25 -0.30 0 0.35 -0.50 0.80 -1.10 1 -1.90 0.50 -2.10 0.35 -1.15 -0.70z"/>
  <path d="M39 20.60 c0 -0.20 -1.05 -1.55 -2.30 -3 -2.35 -2.65 -2.70 -4.20 -0.55 -2.20 0.65 0.60 1.45 1.10 1.75 1.10 0.35 0 0.60 0.30 0.60 0.70 0 0.35 0.35 0.95 0.75 1.30 0.85 0.70 1 2.50 0.25 2.50 -0.25 0 -0.50 -0.15 -0.50 -0.40z"/>
  <path d="M24.50 18.30 c0 -0.85 2.10 -3.90 2.90 -4.20 0.30 -0.10 0.60 0.15 0.60 0.55 0 0.40 0.40 0.70 0.85 0.65 1.55 -0.10 1.25 1.45 -0.35 2.05 -1.55 0.60 -1.95 0.30 -0.90 -0.75 0.45 -0.45 0.45 -0.60 0.05 -0.60 -0.35 0 -1 0.70 -1.50 1.50 -0.90 1.60 -1.65 1.95 -1.65 0.80z"/>
  <path d="M12.10 17.45 c0.80 -0.45 0.85 -0.65 0.15 -2.30 -0.55 -1.25 -0.60 -2 -0.25 -2.35 0.70 -0.70 1.95 1.10 2 2.85 0 1.60 1.20 2.30 2.55 1.40 0.75 -0.45 0.95 -0.40 0.95 0.20 0 0.60 -0.65 0.75 -3.10 0.75 -2.40 -0.05 -2.95 -0.15 -2.30 -0.55z"/>
  <path d="M14.05 11.70 c-0.90 -2.65 -1.50 -4.95 -1.35 -5.05 1 -1 2.80 2.80 3.55 7.45 0.55 3.65 -0.70 2.30 -2.20 -2.40z"/>
  <path d="M35.80 13.75 c-0.85 -0.65 -0.75 -1.75 0.20 -1.75 0.65 0 1.60 1.90 1.10 2.20 -0.20 0.10 -0.75 -0.10 -1.30 -0.45z"/>
  <path d="M17.25 10.40 c-0.25 -1.05 -0.20 -1.65 0.20 -1.80 0.30 -0.10 0.55 -0.50 0.55 -0.90 0 -0.60 0.20 -0.60 1 -0.20 0.55 0.30 1 0.90 1 1.30 0 0.40 0.25 0.60 0.50 0.45 0.30 -0.15 0.50 -0.05 0.50 0.25 0 0.35 -0.35 0.45 -0.75 0.30 -0.55 -0.20 -0.95 0.15 -1.25 0.95 -0.65 1.70 -1.35 1.55 -1.75 -0.35z"/>
 </g>
 <g fill="#4d4143">
  <path d="M7.50 26.30 c0 -0.45 -0.40 -0.80 -0.85 -0.80 -0.80 0 -2.15 -2 -2.15 -3.20 0 -0.90 4.60 -4.90 5.30 -4.60 1.10 0.40 0.80 1.55 -0.55 2.30 -1.40 0.75 -1.65 1.75 -0.50 2.20 0.40 0.15 0.75 0.60 0.75 1.05 0 0.40 0.45 0.75 1 0.75 0.55 0 1 0.20 1 0.45 0 0.60 -1.45 2.05 -2 2.05 -0.25 0 -0.75 0.15 -1.20 0.30 -0.55 0.20 -0.80 0.05 -0.80 -0.50z m0.90 -2.20 c0.10 -0.35 -0.10 -0.55 -0.50 -0.50 -0.35 0.10 -0.60 -0.15 -0.50 -0.45 0.15 -0.80 -0.50 -0.85 -1.30 -0.05 -0.45 0.45 -0.35 0.70 0.30 1.20 0.95 0.75 1.70 0.65 2 -0.20z"/>
  <path d="M28.15 22 c-0.40 -1.05 -0.40 -1.60 -0.05 -1.80 0.65 -0.45 1.90 1.15 1.90 2.40 0 1.45 -1.25 1.05 -1.85 -0.60z"/>
  <path d="M11.35 22.65 c-0.20 -0.15 -0.35 -1.20 -0.35 -2.25 0 -1.30 0.20 -1.90 0.70 -1.90 0.40 0 0.85 -0.65 1.05 -1.50 0.40 -1.75 1 -1.95 1.40 -0.50 0.25 1 2.05 1.40 2.55 0.55 0.45 -0.65 2.30 -0.05 2.30 0.75 0 0.40 -0.50 0.70 -1.10 0.70 -2.55 0 -3.25 0.50 -3 2.05 0.20 1.25 0.05 1.45 -1 1.45 -0.65 0 -1.45 0.25 -1.70 0.50 -0.30 0.30 -0.65 0.35 -0.85 0.15z"/>
  <path d="M30.85 15.60 c-1.30 -1.45 -1.10 -2.60 0.55 -2.60 1 0 1.15 0.15 0.65 0.45 -0.60 0.40 -0.60 0.65 0.15 1.75 0.65 1 0.70 1.30 0.15 1.30 -0.40 0 -1.05 -0.40 -1.50 -0.90z"/>
  <path d="M23.40 12.40 c-0.10 -0.70 -0.80 -1.45 -1.80 -1.90 -1.25 -0.60 -1.50 -0.90 -1 -1.40 0.80 -0.80 1.90 -0.75 2.95 0.20 0.50 0.45 1.20 0.70 1.55 0.60 0.35 -0.15 -0.05 -0.60 -1.05 -1.15 -1.65 -0.80 -1.70 -0.90 -0.80 -1.55 1.10 -0.80 1.25 -0.85 2.20 -0.25 0.50 0.35 0.60 1.15 0.30 3.50 -0.30 2.50 -0.50 3.05 -1.25 3.05 -0.60 0 -1 -0.45 -1.10 -1.10z"/>
  <path d="M18.50 9.90 c0 -1.05 0.20 -1.90 0.45 -1.90 0.95 0 1.05 0.90 0.30 2.30 l-0.75 1.45 0 -1.85z"/>
  <path d="M13.05 8.45 c-0.70 -2 -0.70 -1.95 0.20 -1.95 0.80 0 1.75 1.50 1.75 2.70 0 1.40 -1.40 0.85 -1.95 -0.75z"/>
 </g>
 <g fill="#634632">
  <path d="M7 26.55 c0 -1.50 1.75 -3.05 3.25 -2.95 1.45 0.15 1.60 0.95 0.45 2.10 -0.95 0.95 -1.40 1.05 -0.90 0.20 0.20 -0.35 -0.05 -0.30 -0.60 0.15 -1.75 1.45 -2.20 1.55 -2.20 0.50z"/>
  <path d="M13.10 20.25 c-0.10 -1.45 0.05 -1.75 0.85 -1.75 0.55 0 1.05 -0.20 1.15 -0.50 0.10 -0.25 0.90 -0.60 1.80 -0.80 1.40 -0.30 1.60 -0.20 1.60 0.75 0 0.70 -0.30 1.05 -1 1.05 -0.55 0 -1 0.25 -1 0.55 0 0.30 -0.35 0.40 -0.80 0.25 -0.55 -0.20 -0.70 -0.05 -0.60 0.60 0.10 0.45 0.50 0.80 0.80 0.75 0.35 -0.10 0.60 0.05 0.60 0.25 0 0.25 -0.75 0.45 -1.65 0.50 -1.55 0.05 -1.65 -0.05 -1.75 -1.65z"/>
  <path d="M7.40 19.65 c0.30 -0.10 0.60 -0.55 0.60 -0.95 0 -0.40 0.10 -0.70 0.20 -0.70 0.10 0 0.65 -0.15 1.15 -0.30 0.75 -0.25 0.75 -0.20 0.15 0.25 -0.50 0.35 -0.55 0.55 -0.10 0.55 0.30 0 0.60 0.35 0.60 0.75 0 0.50 -0.50 0.75 -1.60 0.70 -0.90 0 -1.35 -0.15 -1 -0.30z"/>
  <path d="M21.90 10.40 c-1.55 -0.55 -1.80 -1.25 -0.70 -1.70 0.80 -0.30 3.80 1.25 3.80 1.90 0 0.55 -1.40 0.45 -3.10 -0.20z"/>
  <path d="M19 9 c0 -0.95 0.15 -1.05 0.60 -0.60 0.45 0.45 0.45 0.75 0 1.20 -0.45 0.45 -0.60 0.35 -0.60 -0.60z"/>
  <path d="M23.60 8.30 l-1.20 -0.65 1.30 -0.80 c1.65 -1.10 1.75 -1.10 3.45 0.55 1.25 1.15 1.40 1.20 0.90 0.25 -0.75 -1.45 -0.70 -1.65 0.45 -1.65 0.60 0 1.10 0.45 1.30 1.20 0.15 0.70 0.65 1.35 1.10 1.45 0.50 0.15 0.15 0.25 -0.65 0.30 -0.85 0 -2.30 -0.15 -3.25 -0.45 -1 -0.30 -1.80 -0.30 -2 -0.05 -0.15 0.25 -0.75 0.20 -1.40 -0.15z"/>
 </g>
 <g fill="#404361">
  <path d="M30.10 28.40 c-0.05 -0.80 -0.55 -2.75 -1.15 -4.40 -0.55 -1.65 -0.90 -3.30 -0.80 -3.65 0.20 -0.35 0.30 -0.30 0.30 0.20 0.05 0.45 0.35 0.95 0.75 1.10 0.85 0.35 1.50 3.85 1.15 6.35 -0.15 1.45 -0.20 1.50 -0.25 0.40z"/>
  <path d="M2 26.10 c0 -1.50 0.20 -2.60 0.55 -2.60 0.35 0 0.40 0.80 0.15 2.40 -0.45 3.20 -0.70 3.30 -0.70 0.20z"/>
  <path d="M5.70 26.25 c-0.35 -1.50 -0.05 -2 1.05 -1.60 1 0.40 1 2.85 0 2.85 -0.40 0 -0.85 -0.55 -1.05 -1.25z"/>
  <path d="M8.15 25.35 c0.15 -1.05 0.10 -1.85 -0.20 -1.85 -0.25 0 -0.45 -0.35 -0.45 -0.75 0 -0.55 -0.40 -0.65 -1.50 -0.40 -1.85 0.35 -1.95 -0.45 -0.20 -1.70 0.70 -0.50 1.75 -1.40 2.35 -2 0.55 -0.65 1.25 -1.15 1.55 -1.15 0.30 0 0.20 0.25 -0.20 0.50 -1.10 0.70 -0.35 0.60 1.70 -0.25 2.05 -0.85 2.20 -1.40 0.80 -3.50 -1.10 -1.65 -1.30 -2.75 -0.50 -2.75 0.80 0 2.15 2.45 2.45 4.40 0.25 1.55 0.55 1.90 1.70 2 0.75 0.10 1.35 -0.05 1.35 -0.35 0 -0.30 0.45 -0.55 1 -0.55 1.40 0 3.55 2.20 3.20 3.20 -0.15 0.45 -0.05 0.80 0.30 0.80 0.30 0 0.40 0.25 0.20 0.55 -0.25 0.40 -0.45 0.40 -0.70 -0.05 -0.30 -0.45 -0.55 -0.35 -0.95 0.45 -0.65 1.15 -1.85 1.40 -2.20 0.45 -0.15 -0.50 -0.50 -0.40 -1.25 0.25 -1.35 1.25 -1.95 0.20 -0.65 -1.10 1 -1 1 -1.05 0.05 -1.55 -1 -0.55 -1.95 0.15 -1 0.75 0.80 0.50 0.05 1.25 -1.20 1.25 -1.55 0 -2.75 1.35 -1.60 1.80 0.45 0.15 0.80 0.75 0.80 1.25 0 1.10 -0.55 1.20 -1.40 0.35 -0.40 -0.40 -0.60 -0.40 -0.60 -0.05 0 0.30 -0.35 0.65 -0.70 0.80 -0.50 0.20 -0.65 0.05 -0.45 -0.45 0.20 -0.50 0 -0.60 -0.55 -0.40 -0.45 0.15 -0.70 0.50 -0.55 0.70 0.15 0.25 0 0.60 -0.30 0.80 -0.45 0.25 -0.50 -0.15 -0.30 -1.45z m1.45 -3.20 c-0.50 -0.20 -0.50 -0.40 -0.05 -0.95 0.35 -0.40 0.50 -0.85 0.35 -0.95 -0.40 -0.40 -1.90 0.30 -1.90 0.85 0 0.65 1.65 1.90 2 1.55 0.15 -0.15 -0.05 -0.40 -0.40 -0.50z m9.90 -2.10 c0 -0.25 -0.45 -0.55 -0.95 -0.70 -0.70 -0.15 -0.90 -0.05 -0.70 0.45 0.30 0.75 1.65 0.95 1.65 0.25z"/>
  <path d="M35.50 26.35 c0 -1.85 -2.35 -7.45 -4.20 -10.10 -1.20 -1.65 -2.05 -3.30 -1.95 -3.60 0.50 -1.40 -2.15 0.30 -3.80 2.40 -0.90 1.20 -1.85 2.30 -2.10 2.35 -0.60 0.25 -0.55 -3 0.05 -4.60 0.30 -0.80 0.30 -1.35 0 -1.55 -0.30 -0.20 -0.50 -0.65 -0.50 -1.05 0 -0.55 0.35 -0.65 1.40 -0.40 1.20 0.35 1.30 0.30 0.65 -0.45 -0.60 -0.75 -0.55 -0.85 0.15 -0.85 0.50 0 0.80 -0.40 0.80 -1.10 l0 -1.05 1.20 1.10 c1.20 1.15 1.25 1.15 0.95 0.10 -0.20 -0.75 -0.05 -1.05 0.55 -1.05 0.60 0 0.80 0.45 0.80 1.75 0 1.60 -0.10 1.75 -1.50 1.75 -1.15 0 -1.50 0.25 -1.50 0.95 0 0.55 -0.30 1.10 -0.60 1.20 -0.40 0.15 -0.30 0.30 0.25 0.30 0.55 0.05 0.85 -0.30 0.85 -0.95 0 -0.80 0.35 -1 1.50 -1 1.15 0 1.50 -0.20 1.50 -1 0 -2.05 3.90 -0.80 5.90 1.95 1.35 1.85 1.45 2.80 0.25 2.30 -0.50 -0.20 -1.30 -0.50 -1.75 -0.60 -0.50 -0.15 -0.90 -0.50 -0.90 -0.75 0 -0.50 -1.25 -1.90 -1.70 -1.90 -0.15 0 -0.30 0.35 -0.30 0.75 0 0.40 0.35 0.75 0.75 0.75 0.40 0 0.75 0.25 0.75 0.50 0 0.30 -0.35 0.65 -0.75 0.80 -0.40 0.20 -0.75 0.60 -0.75 0.95 0 0.65 1.55 2.25 2.10 2.10 0.15 -0.05 0.50 0.05 0.70 0.30 0.20 0.20 0 0.35 -0.45 0.35 -0.65 0 -0.60 0.45 0.50 2.80 1.20 2.70 2.15 7.20 1.45 7.20 -0.15 0 -0.30 -0.30 -0.30 -0.65z"/>
  <path d="M2.85 21.65 c0.45 -1.15 2.20 -4.15 2.45 -4.15 0.45 0 -1.70 4.70 -2.25 4.90 -0.35 0.10 -0.45 -0.15 -0.20 -0.75z"/>
  <path d="M37.40 18.40 c-1.30 -1.70 -2.30 -3.20 -2.20 -3.30 0.45 -0.40 2.80 1.70 3.40 3 0.35 0.75 0.80 1.20 1 1.10 0.20 -0.15 0.40 0.30 0.40 1 0 0.70 -0.05 1.30 -0.15 1.30 -0.05 0 -1.15 -1.40 -2.45 -3.10z"/>
  <path d="M25 20.50 c0 -0.25 0.45 -0.50 1 -0.50 0.55 0 1 0.25 1 0.50 0 0.30 -0.45 0.50 -1 0.50 -0.55 0 -1 -0.20 -1 -0.50z"/>
  <path d="M25 17.70 c0 -0.80 1.95 -3.70 2.50 -3.70 0.95 0 0.50 1.30 -1 2.75 -0.80 0.80 -1.50 1.25 -1.50 0.95z"/>
  <path d="M28 16.55 c0.55 -1.10 1.50 -1.45 1.50 -0.55 0 0.25 -0.45 0.70 -1.05 1 -0.95 0.55 -1 0.50 -0.45 -0.45z"/>
  <path d="M14.35 12.15 c-0.70 -2.15 -1.40 -4.30 -1.60 -4.75 -0.25 -0.65 -0.10 -0.90 0.40 -0.90 0.90 0 2.55 4.15 3 7.40 0.40 3.30 -0.45 2.50 -1.80 -1.75z"/>
  <path d="M17.30 10.35 c-0.20 -1.15 -0.50 -2.65 -0.65 -3.30 l-0.30 -1.20 1.55 0.95 c2 1.15 2.20 1.80 1.30 3.65 -1.15 2.30 -1.55 2.25 -1.90 -0.10z"/>
 </g>
 <g fill="#464c73">
  <path d="M2.05 25.50 c0 -1.45 0.45 -3.05 1.20 -4.50 1.25 -2.35 1.65 -2.15 0.70 0.35 -0.30 0.75 -0.85 2.55 -1.20 3.90 l-0.70 2.50 0 -2.25z"/>
  <path d="M5.85 26.50 c-0.20 -0.85 0 -1 1.15 -1 1.80 0 2.35 0.80 1.05 1.45 -1.40 0.80 -1.90 0.70 -2.20 -0.45z"/>
  <path d="M29.55 25.40 c-0.35 -1.20 -0.75 -2.45 -0.85 -2.75 -0.15 -0.35 0.05 -0.65 0.45 -0.65 0.55 0 0.85 0.80 1.10 2.55 0.45 3.20 0.05 3.65 -0.70 0.85z"/>
  <path d="M34.80 23.10 c-0.50 -1.55 -1.45 -3.80 -2.10 -4.95 -0.70 -1.20 -1 -2.15 -0.75 -2.15 0.70 0 2.85 4.35 3.60 7.20 0.85 3.35 0.30 3.30 -0.75 -0.10z"/>
  <path d="M8.30 23.25 c-1.10 -1.45 -1.45 -1.55 -2.50 -0.45 -0.75 0.70 -0.85 0.70 -1.10 -0.05 -0.30 -0.80 1.25 -2.75 2.20 -2.75 0.30 0 0.85 -0.55 1.30 -1.25 0.45 -0.70 1.20 -1.20 1.70 -1.15 2.35 0.20 3.10 -0.10 3.10 -1.20 0 -0.65 -0.35 -1.60 -0.75 -2.10 -0.95 -1.25 -0.95 -1.80 -0.10 -1.80 0.80 0 1.85 2.10 1.85 3.70 0 0.85 0.35 1.30 1.25 1.50 0.70 0.20 1.25 0.65 1.25 1 0 0.40 0.55 0.80 1.25 0.90 0.70 0.15 1.25 0.05 1.25 -0.15 0 -0.25 0.45 -0.45 1 -0.45 1.40 0 1.25 1.55 -0.30 3 -1 1 -1.35 1.10 -1.70 0.50 -0.35 -0.55 -0.55 -0.60 -1.20 0 -1.15 0.90 -1.65 0.20 -0.60 -0.95 0.70 -0.80 0.75 -1 0.10 -1.50 -1 -0.85 -1.75 -0.30 -1.45 0.95 0.20 0.70 0 1 -0.55 1 -0.40 0 -0.90 -0.55 -1.10 -1.25 -0.15 -0.70 -0.50 -1.10 -0.75 -0.95 -0.25 0.15 -0.25 0.60 0 1.15 0.35 0.65 0.25 1 -0.50 1.45 -1.20 0.75 -2.45 -0.15 -2.05 -1.50 0.25 -0.95 -0.10 -1.05 -1.55 -0.45 -0.85 0.30 -0.75 0.50 0.60 1.90 0.80 0.85 2.10 1.65 2.90 1.80 1.10 0.15 0.95 0.20 -0.60 0.30 -1.60 0.05 -2.20 -0.20 -2.95 -1.20z"/>
  <path d="M37.50 18.50 c-0.45 -0.80 -0.40 -1 0.25 -1 0.40 0 0.75 0.10 0.75 0.20 0 0.10 0.15 0.55 0.30 1 0.45 1.15 -0.65 1 -1.30 -0.20z"/>
  <path d="M23.25 14.90 c0.20 -1.20 0.30 -2.90 0.30 -3.85 -0.05 -1.30 0.10 -1.55 0.55 -1.15 0.90 0.75 2.40 -0.45 2.40 -1.95 0.05 -1.10 0.10 -1.15 0.70 -0.30 0.80 1.05 1.35 1.10 1 0.10 -0.20 -0.50 0 -0.75 0.50 -0.75 0.45 0 0.95 0.35 1.10 0.75 0.15 0.40 1 0.85 1.85 1 1.85 0.35 2.70 0.95 4.25 2.95 1.45 1.85 1.40 2.40 -0.10 1.75 -1.60 -0.75 -4.85 -0.15 -4.50 0.75 0.15 0.40 0.05 0.85 -0.25 1 -0.65 0.45 -1.65 -1.40 -1.25 -2.40 0.65 -1.70 -1.55 -0.70 -3.85 1.70 -1.30 1.40 -2.50 2.50 -2.70 2.50 -0.20 0 -0.20 -0.95 0 -2.10z"/>
  <path d="M25.50 16.70 c0.05 -0.75 1.35 -2.20 1.95 -2.20 0.35 0 0.55 0.25 0.45 0.60 -0.25 0.70 -2.40 2.15 -2.40 1.60z"/>
  <path d="M35.60 16 c-0.35 -0.55 -0.40 -1 -0.20 -1 0.25 0 0.85 0.45 1.35 1 0.70 0.75 0.75 1 0.20 1 -0.40 0 -1 -0.45 -1.35 -1z"/>
  <path d="M14.65 12.45 c-0.75 -2.50 -0.85 -3.45 -0.40 -3.45 0.80 0 2.50 6.30 1.80 6.70 -0.20 0.15 -0.85 -1.30 -1.40 -3.25z"/>
  <path d="M17.50 11.30 c0 -0.35 -0.15 -1.40 -0.30 -2.30 -0.30 -1.45 -0.25 -1.55 0.85 -1.40 0.85 0.10 1.25 0.50 1.35 1.40 0.20 1.25 0.15 1.25 -0.60 0.25 -0.80 -0.95 -0.80 -0.90 -0.50 0.90 0.20 1.20 0.10 1.85 -0.25 1.85 -0.30 0 -0.55 -0.30 -0.55 -0.70z"/>
 </g>
 <g fill="#5c5654">
  <path d="M6.10 26.45 c-1.15 -1.80 -0.55 -3.20 0.80 -1.85 0.45 0.45 0.75 0.45 1.25 -0.05 0.50 -0.55 0.50 -0.70 0 -0.90 -0.35 -0.15 -0.65 -0.55 -0.65 -0.95 0 -0.90 -0.45 -0.90 -1.60 0.10 -0.80 0.80 -0.90 0.75 -1.20 -0.05 -0.25 -0.60 -0.05 -1.15 0.55 -1.55 1.30 -0.95 1.50 -0.90 3.55 1.05 0.95 0.95 2.20 1.75 2.75 1.75 1.20 0 1.25 0.95 0.10 1.10 -0.50 0 -1.10 0.10 -1.40 0.15 -0.25 0.10 -0.80 0.15 -1.10 0.20 -0.35 0 -0.60 0.30 -0.50 0.60 0.05 0.30 -0.35 0.75 -0.95 0.95 -0.75 0.30 -1.15 0.15 -1.60 -0.55z"/>
  <path d="M3.05 22.25 c0 -0.55 0.20 -1.35 0.45 -1.75 0.45 -0.65 0.50 -0.65 0.45 0 0 0.40 -0.20 1.20 -0.45 1.75 l-0.45 1 0 -1z"/>
  <path d="M25.50 8 c0 -1.85 0.70 -1.90 1.80 -0.25 1.05 1.55 1.40 1.35 0.75 -0.45 -0.40 -1.05 -0.40 -1.30 0.20 -1.30 0.80 0 1.75 1.50 1.75 2.70 0 0.60 -0.55 0.80 -2.25 0.80 -2.15 0 -2.25 -0.05 -2.25 -1.50z"/>
 </g>
 <g fill="#846138">
  <path d="M6.50 26.35 c0 -0.75 0.50 -1.30 1.55 -1.80 2.15 -0.95 2.40 -0.25 0.50 1.45 -1.95 1.80 -2.05 1.80 -2.05 0.35z"/>
  <path d="M23.85 12 c-0.15 -0.55 -0.95 -1.30 -1.85 -1.65 -1.35 -0.60 -1.45 -0.75 -0.80 -1.30 0.65 -0.55 1.05 -0.45 2.25 0.40 0.85 0.60 1.60 0.85 1.80 0.60 0.15 -0.30 -0.30 -0.90 -1 -1.35 -1.35 -0.85 -1.25 -1.40 0.30 -2.20 0.80 -0.45 1.20 -0.25 2.45 1.10 1.50 1.60 2 1.25 1 -0.65 -0.45 -0.75 -0.35 -0.95 0.30 -0.95 0.40 0 1.05 0.70 1.35 1.50 0.30 0.85 0.90 1.50 1.35 1.50 0.65 0 0.65 0.05 0 0.50 -0.40 0.25 -1.40 0.50 -2.20 0.50 -1.35 0 -3.30 1.55 -3.30 2.60 0 0.85 -1.40 0.35 -1.65 -0.60z"/>
 </g>
 <g fill="#4a5384">
  <path d="M2.05 25.65 c-0.05 -0.85 0.40 -2.60 0.95 -3.85 1.05 -2.45 1.85 -3.20 0.95 -0.90 -0.30 0.75 -0.85 2.50 -1.20 3.85 -0.60 2.15 -0.70 2.30 -0.70 0.90z"/>
  <path d="M29.65 24.75 c-0.30 -0.95 -0.40 -1.75 -0.15 -1.75 0.40 0 1.15 3 0.85 3.35 -0.10 0.05 -0.40 -0.65 -0.70 -1.60z"/>
  <path d="M35 23.30 c0 -0.35 -0.65 -1.95 -1.40 -3.50 -0.80 -1.55 -1.30 -2.80 -1.10 -2.80 0.45 0 2.30 3.85 2.80 5.70 0.15 0.70 0.15 1.30 0 1.30 -0.15 0 -0.30 -0.30 -0.30 -0.70z"/>
  <path d="M4.70 22.20 c0.15 -0.45 0.30 -0.90 0.30 -1 0 -0.10 0.20 -0.20 0.45 -0.20 0.25 0 0.35 0.45 0.20 1 -0.15 0.55 -0.50 1 -0.75 1 -0.30 0 -0.35 -0.35 -0.20 -0.80z"/>
  <path d="M18.50 22.30 c0 -0.65 -0.25 -0.85 -1 -0.65 -0.55 0.15 -0.85 0.05 -0.70 -0.20 0.45 -0.75 -0.80 -1.95 -1.90 -1.95 -0.80 0 -0.90 0.15 -0.45 0.70 0.45 0.55 0.40 0.75 -0.20 1 -0.85 0.30 -1.55 -0.80 -1 -1.65 0.20 -0.35 0 -0.40 -0.50 -0.25 -0.55 0.25 -0.75 0.70 -0.55 1.45 0.20 0.75 0.05 1.25 -0.45 1.45 -0.50 0.15 -0.85 -0.15 -1.05 -0.95 -0.20 -0.80 -0.65 -1.25 -1.25 -1.25 -0.65 0 -0.95 -0.35 -0.95 -1.10 0 -0.90 0.10 -1 0.45 -0.45 0.40 0.60 0.60 0.60 1.30 -0.10 0.45 -0.50 1.20 -0.85 1.65 -0.90 4.95 -0.25 6.55 -0.15 7.75 0.40 1.70 0.85 1.75 2.15 0.10 4 -1.05 1.20 -1.20 1.25 -1.25 0.45z"/>
  <path d="M23.25 16.55 c-0.15 -0.30 -0.05 -1.45 0.25 -2.55 0.30 -1.15 0.40 -2.45 0.25 -2.95 -0.20 -0.70 -0.05 -0.95 0.60 -0.85 0.60 0 0.85 -0.25 0.80 -0.85 -0.05 -0.75 0.25 -0.90 1.65 -0.75 1.10 0.10 1.90 -0.15 2.20 -0.60 0.40 -0.60 0.50 -0.60 0.75 0.10 0.20 0.45 1.15 0.90 2.30 1.10 1.30 0.20 1.95 0.55 1.95 1.10 0 0.40 0.20 0.65 0.45 0.50 0.20 -0.15 0.75 0.10 1.15 0.60 1.55 1.75 1.50 2 -0.40 1.60 -2.10 -0.50 -4.25 0.25 -3.85 1.30 0.15 0.40 -0.05 0.70 -0.50 0.70 -0.90 0 -1.65 -1.65 -0.90 -1.90 1 -0.35 0.55 -1.10 -0.65 -1.10 -1.35 0 -4.30 2.20 -4.30 3.25 0 0.90 -1.35 1.90 -1.75 1.30z"/>
  <path d="M35.60 15.95 c-0.60 -0.95 -0.55 -0.95 0.40 -0.45 0.55 0.30 1 0.75 1 1 0 0.85 -0.75 0.55 -1.40 -0.55z"/>
  <path d="M12.90 15.25 c-0.15 -0.70 -0.05 -1.25 0.15 -1.25 0.25 0 0.45 0.20 0.45 0.45 0 0.25 0.15 0.80 0.30 1.25 0.15 0.45 0.10 0.80 -0.20 0.80 -0.25 0 -0.60 -0.55 -0.70 -1.25z"/>
  <path d="M15.30 13.95 c-0.10 -0.40 -0.45 -1.45 -0.75 -2.40 -0.55 -1.60 -0.40 -2.55 0.25 -1.90 0.45 0.40 1.25 4.45 1 4.75 -0.15 0.15 -0.35 -0.05 -0.50 -0.45z"/>
  <path d="M17.35 9.20 c-0.75 -0.80 -0.30 -1.70 0.90 -1.70 0.95 0 1.25 0.25 1.25 1.05 0 0.85 -0.15 0.95 -0.70 0.50 -0.50 -0.45 -0.75 -0.45 -0.90 -0.05 -0.10 0.30 -0.35 0.40 -0.55 0.20z"/>
 </g>
 <g fill="#625d6b">
  <path d="M5.80 26.40 c-0.45 -1.80 -0.35 -2 0.70 -1.65 1.05 0.35 2.50 -0.45 2.50 -1.30 0 -0.25 -0.40 -0.45 -0.85 -0.45 -0.65 0 -0.70 -0.15 -0.25 -0.60 0.65 -0.65 2.10 0.30 2.10 1.40 0 0.50 0.40 0.60 1.50 0.40 0.95 -0.20 1.50 -0.10 1.50 0.25 0 0.30 -0.75 0.55 -1.60 0.60 -1.55 0 -4.20 0.80 -3.15 0.95 0.55 0.05 -1.20 1.50 -1.80 1.50 -0.20 0 -0.45 -0.50 -0.65 -1.10z"/>
  <path d="M28.85 23 c-0.95 -1.35 -1.15 -3 -0.35 -3 0.65 0 1.60 2.40 1.40 3.45 -0.15 0.60 -0.35 0.50 -1.05 -0.45z"/>
  <path d="M4.75 23.05 c-0.75 -1.25 1.20 -2.90 2.55 -2.15 0.55 0.30 0.40 0.65 -0.75 1.50 -0.85 0.60 -1.60 0.90 -1.80 0.65z"/>
  <path d="M11.50 19.50 c0 -1.25 0.25 -2 0.65 -2.05 6.20 -0.35 6.25 -0.35 6.55 1.20 0.50 2.35 0.35 2.85 -0.70 2.85 -0.55 0 -1 -0.25 -1 -0.50 0 -0.30 -0.70 -0.95 -1.60 -1.50 -1.85 -1.15 -3.65 -0.55 -3.25 1.05 0.15 0.50 0.05 0.95 -0.20 0.95 -0.25 0 -0.45 -0.90 -0.45 -2z"/>
  <path d="M13.15 20.75 c-0.15 -0.45 -0.15 -0.95 0.05 -1.10 0.35 -0.35 1.80 0.80 1.80 1.40 0 0.75 -1.50 0.50 -1.85 -0.30z"/>
  <path d="M7.80 20.15 c-0.15 -0.15 0 -0.75 0.25 -1.30 0.45 -0.80 0.65 -0.85 1 -0.30 0.25 0.40 0.45 0.85 0.45 1 0 0.45 -1.35 0.95 -1.70 0.60z"/>
  <path d="M37.30 18.25 c-0.70 -1.05 -0.70 -1.25 -0.10 -1.25 0.90 0 2 1.80 1.35 2.20 -0.25 0.15 -0.80 -0.25 -1.25 -0.95z"/>
  <path d="M31.15 16 c-1.55 -1.90 -1.90 -3 -1.10 -3 0.60 0 2.95 3.40 2.95 4.20 0 0.70 -0.85 0.15 -1.85 -1.20z"/>
  <path d="M23.65 11.15 c-0.35 -0.75 -0.55 -1.40 -0.50 -1.50 0.35 -0.35 2.35 1.95 2.10 2.40 -0.50 0.75 -0.95 0.50 -1.60 -0.90z"/>
  <path d="M25.85 10.30 c-0.20 -0.50 -0.25 -1.05 -0.10 -1.20 0.45 -0.45 0.85 0.30 0.65 1.25 -0.15 0.85 -0.20 0.85 -0.55 -0.05z"/>
  <path d="M13.50 9 c-0.35 -0.85 -0.45 -1.70 -0.30 -1.90 0.50 -0.45 1.80 1.35 1.80 2.50 0 1.40 -0.80 1.05 -1.50 -0.60z"/>
  <path d="M27 9.50 c0 -0.70 0.30 -1 0.90 -0.90 0.55 0.10 0.85 -0.15 0.80 -0.70 -0.15 -1.45 0.65 -1 1.25 0.65 0.70 2 0.70 1.95 -0.15 1.95 -0.40 0 -0.85 -0.30 -0.95 -0.60 -0.20 -0.50 -0.30 -0.50 -0.30 0 -0.10 1.05 -1.55 0.65 -1.55 -0.40z"/>
  <path d="M18.75 9 c-0.15 -0.25 -0.60 -0.35 -1 -0.15 -0.45 0.15 -0.75 -0.05 -0.75 -0.50 0 -0.45 -0.15 -1.20 -0.35 -1.70 -0.30 -0.85 -0.30 -0.85 0.70 0 0.55 0.45 1.25 0.85 1.55 0.85 0.35 0 0.60 0.45 0.60 1 0 1.10 -0.25 1.30 -0.75 0.50z"/>
 </g>
 <g fill="#7b6154">
  <path d="M5.80 26.40 c-0.50 -1.95 -0.40 -2.70 0.30 -2 0.95 0.95 2.45 0.70 2.75 -0.40 0.30 -1.15 1.15 -1.35 1.15 -0.25 0 0.40 0.40 0.75 0.90 0.80 0.45 0 -0.05 0.30 -1.15 0.70 -1.10 0.35 -1.75 0.70 -1.50 0.70 0.50 0.10 -1.20 1.55 -1.80 1.55 -0.20 0 -0.45 -0.50 -0.65 -1.10z"/>
  <path d="M13.25 20.95 c-0.50 -0.75 0.05 -1.15 1 -0.75 0.45 0.15 0.65 0.50 0.50 0.80 -0.40 0.65 -1.10 0.65 -1.50 -0.05z"/>
  <path d="M17.20 21.10 c0.15 -0.25 -0.30 -0.75 -0.95 -1.10 -1.60 -0.85 -1.60 -1.70 -0.05 -1.40 0.95 0.20 1.10 0.05 0.90 -0.70 -0.25 -1 0.50 -1.15 1.95 -0.40 1.15 0.65 1.25 1.50 0.20 1.50 -0.45 0 -0.75 0.45 -0.75 1.25 0 0.80 -0.30 1.25 -0.80 1.25 -0.40 0 -0.65 -0.20 -0.50 -0.40z"/>
  <path d="M25.75 10.05 c-0.40 -0.80 -1 -1.60 -1.35 -1.75 -0.35 -0.15 0.15 -0.20 1.10 -0.15 1.60 0.10 1.75 0.25 1.90 1.75 0.20 2 -0.65 2.10 -1.65 0.15z"/>
 </g>
 <g fill="#a84b3e">
  <path d="M11.50 20.30 c0 -1.50 0.15 -1.80 1.10 -1.80 1.05 0 1.05 0.05 0.15 0.70 -0.55 0.40 -0.80 1 -0.60 1.45 0.15 0.45 0.10 0.95 -0.15 1.10 -0.30 0.20 -0.50 -0.45 -0.50 -1.45z"/>
  <path d="M13 20.50 c0 -0.25 0.30 -0.50 0.70 -0.50 0.40 0 0.90 0.25 1.05 0.50 0.15 0.30 -0.15 0.50 -0.70 0.50 -0.60 0 -1.05 -0.20 -1.05 -0.50z"/>
  <path d="M8 19.50 c0 -1.25 1.40 -2.30 2.10 -1.60 0.75 0.75 0.20 1.90 -1.05 2.25 -0.80 0.20 -1.05 0 -1.05 -0.65z"/>
  <path d="M15.20 19.25 c-0.85 -0.65 -0.85 -0.70 -0.10 -0.75 0.45 0 1 0.25 1.15 0.55 0.55 0.85 0 1 -1.05 0.20z"/>
 </g>
 <g fill="#596088">
  <path d="M5.85 26.50 c-0.20 -0.75 0 -1 0.65 -1 1.25 0 1.80 1 0.95 1.55 -1.05 0.65 -1.30 0.55 -1.60 -0.55z"/>
  <path d="M29 23.10 c-0.40 -0.75 -0.80 -1.50 -0.90 -1.70 -0.10 -0.25 0.15 -0.40 0.60 -0.40 0.40 0 0.85 0.65 1.05 1.55 0.45 2 0.10 2.30 -0.75 0.55z"/>
  <path d="M4.50 22.55 c0 -0.45 1.65 -2.05 2.10 -2.05 0.15 0 0.45 0.35 0.60 0.80 0.15 0.40 0.10 0.60 -0.20 0.45 -0.30 -0.15 -0.50 -0.10 -0.50 0.15 0 0.25 -0.45 0.60 -1 0.75 -0.55 0.15 -1 0.10 -1 -0.10z"/>
  <path d="M10.80 21.25 c-0.15 -0.45 -0.20 -1.05 0 -1.30 0.35 -0.55 0.05 -0.55 -1.50 0.05 -1.05 0.35 -1.30 0.30 -1.30 -0.25 0 -0.40 0.45 -0.75 1 -0.75 1.05 0 1.40 -0.80 0.45 -1.10 -0.30 -0.10 0.80 -0.25 2.50 -0.30 2.50 -0.10 3.05 0 3.05 0.65 0 0.45 -0.20 0.65 -0.50 0.50 -0.90 -0.55 -2.55 0.75 -2.40 1.85 0.20 1.30 -0.85 1.75 -1.30 0.65z"/>
  <path d="M17.25 21.05 c0.15 -0.30 -0.20 -0.75 -0.75 -1.05 -0.55 -0.30 -1 -1 -1 -1.50 0 -1.25 0.45 -1.25 1.30 -0.10 0.60 0.75 0.60 0.75 0.35 -0.25 -0.30 -1.35 -0.10 -1.40 2.15 -0.35 1.75 0.85 2.15 2.05 1.10 3.10 -0.70 0.70 -3.60 0.80 -3.15 0.15z"/>
  <path d="M36.85 17.60 c-0.75 -0.95 -1.25 -1.90 -1.10 -2 0.30 -0.30 2.20 1.35 2.80 2.50 0.85 1.60 -0.30 1.30 -1.70 -0.50z"/>
  <path d="M31.30 16 c-2.05 -2.85 -2.10 -3 -1.05 -3 0.40 0 0.75 0.25 0.75 0.55 0 0.30 0.40 1.15 0.90 1.85 0.95 1.40 1.70 3.10 1.40 3.10 -0.10 0 -1 -1.15 -2 -2.50z"/>
  <path d="M12.40 14.25 c-1.10 -1.45 -1.10 -1.75 -0.15 -1.75 0.40 0 0.85 0.55 1.05 1.25 0.45 1.75 0.15 1.90 -0.90 0.50z"/>
  <path d="M15.05 12.40 c-0.05 -0.50 -0.50 -1.60 -1.05 -2.50 -1.20 -1.95 -1.25 -2.40 -0.30 -2.40 0.75 0 2.05 4.05 1.65 5.10 -0.20 0.45 -0.30 0.35 -0.30 -0.20z"/>
  <path d="M31.15 12.15 c-0.15 -0.35 -0.70 -0.65 -1.20 -0.65 -0.65 0 -0.95 -0.40 -1 -1.10 -0.05 -0.90 -0.15 -0.85 -0.40 0.30 -0.65 3 -2.65 1.55 -2.20 -1.55 0.25 -1.40 0.35 -1.50 1 -0.90 0.95 1 1.55 0.95 1.80 -0.10 0.20 -0.75 0.30 -0.75 0.60 0.25 0.30 0.85 0.75 1.10 2.20 1.10 1.30 0 2.20 0.35 2.90 1.15 1.90 2.10 1.80 2.25 -0.90 2.20 -1.55 -0.05 -2.65 -0.35 -2.80 -0.70z"/>
  <path d="M24 12.05 c0 -0.25 -0.15 -0.90 -0.35 -1.40 -0.30 -0.85 -0.25 -0.85 0.75 0.05 0.60 0.50 0.95 1.15 0.80 1.35 -0.35 0.60 -1.20 0.55 -1.20 0z"/>
  <path d="M19 8.75 c0 -0.40 -0.20 -0.75 -0.50 -0.75 -0.25 0 -0.50 0.25 -0.50 0.50 0 1.05 -0.90 0.45 -1.15 -0.75 -0.15 -0.85 0 -1.20 0.35 -1 0.30 0.15 0.95 0.40 1.45 0.55 0.75 0.30 1.30 2.20 0.60 2.20 -0.15 0 -0.25 -0.35 -0.25 -0.75z"/>
 </g>
 <g fill="#84756b">
  <path d="M6 26.50 c-1 -1.90 -0.40 -2.55 1.15 -1.25 1.30 1.15 1.30 1.25 0.40 1.75 -0.80 0.40 -1.10 0.30 -1.55 -0.50z"/>
  <path d="M8.40 24.95 c0.85 -0.90 0.75 -1.95 -0.20 -1.95 -0.40 0 -0.60 -0.20 -0.45 -0.50 0.40 -0.65 2.25 0.50 2.25 1.40 0 0.50 0.35 0.60 1.20 0.40 0.70 -0.15 1.40 -0.05 1.55 0.20 0.20 0.35 -0.35 0.50 -1.60 0.45 -1.05 -0.10 -2.30 0.05 -2.65 0.30 -0.60 0.30 -0.65 0.25 -0.10 -0.30z"/>
  <path d="M4.80 23.05 c-0.45 -0.70 0.55 -2.05 1.50 -2.05 0.35 0 0.80 0.30 1 0.65 0.20 0.30 0.20 0.45 -0.05 0.25 -0.20 -0.20 -0.75 0.10 -1.25 0.70 -0.60 0.75 -0.95 0.90 -1.20 0.45z"/>
  <path d="M8 19.50 c0 -0.25 0.45 -0.50 1.05 -0.50 0.55 0 0.85 0.25 0.70 0.50 -0.15 0.30 -0.65 0.50 -1.05 0.50 -0.40 0 -0.70 -0.20 -0.70 -0.50z"/>
  <path d="M14.90 19.10 c-1.80 -1.05 -1.75 -1.60 0.05 -1.60 1.30 0 2.05 0.70 2.05 2.05 0 0.65 -0.55 0.55 -2.10 -0.45z"/>
  <path d="M26 8.65 l0 -1.90 1.25 1.45 c1.55 1.85 1.55 2.30 0 2.30 -1.10 0 -1.25 -0.20 -1.25 -1.85z"/>
  <path d="M29 8.85 c0 -0.65 -0.25 -1.40 -0.60 -1.75 -0.45 -0.45 -0.40 -0.60 0.20 -0.60 0.45 0 0.90 0.50 1.10 1.15 0.40 1.60 0.35 2.35 -0.20 2.35 -0.25 0 -0.50 -0.50 -0.50 -1.15z"/>
 </g>
 <g fill="#6d7090">
  <path d="M6.05 26.55 c-0.70 -1.25 -0.70 -2.70 -0.05 -2.30 0.30 0.15 0.50 0.75 0.50 1.25 0 0.50 0.25 1 0.60 1.10 0.45 0.15 0.45 0.30 0.05 0.55 -0.35 0.20 -0.85 -0.05 -1.10 -0.60z"/>
  <path d="M8.80 24.30 c0.20 -0.55 0.10 -1.05 -0.35 -1.30 -0.35 -0.25 -0.55 -0.55 -0.45 -0.70 0.15 -0.10 0.70 0.10 1.25 0.50 0.90 0.70 0.90 0.75 0.10 1.60 -0.85 0.80 -0.90 0.80 -0.55 -0.10z"/>
  <path d="M28.85 22.65 c-1 -1.85 -1.05 -2.15 -0.35 -2.15 0.60 0 1.60 2.40 1.35 3.20 -0.10 0.30 -0.55 -0.15 -1 -1.05z"/>
  <path d="M4.50 22.60 c0 -0.65 1.15 -1.60 1.95 -1.60 0.55 0 0.50 0.20 -0.20 1 -0.95 1.05 -1.75 1.30 -1.75 0.60z"/>
  <path d="M15.85 19.65 c-1.55 -1.10 -2.05 -1.20 -3 -0.75 -1.70 0.80 -5 1.25 -4.60 0.65 0.15 -0.30 0.55 -0.55 0.80 -0.55 0.30 0 0.85 -0.35 1.25 -0.75 0.50 -0.45 1.75 -0.75 3.35 -0.75 2.30 0 2.70 0.15 3.45 1.40 0.60 0.95 0.90 1.10 0.90 0.50 0 -0.45 -0.20 -1 -0.50 -1.15 -0.60 -0.35 -0.65 -1.25 -0.10 -1.25 0.20 0 1.05 0.45 1.95 0.95 1.20 0.75 1.50 1.25 1.30 2 -0.35 1.45 -2.45 1.30 -4.80 -0.30z"/>
  <path d="M37.25 18.10 c-1.80 -2.30 -1.95 -2.75 -0.90 -2.20 0.95 0.55 2.50 2.95 2.10 3.30 -0.10 0.10 -0.65 -0.40 -1.20 -1.10z"/>
  <path d="M31 15.50 c-0.90 -1.15 -1.45 -2.20 -1.25 -2.40 0.35 -0.40 1.40 0.85 2.55 3.05 1 1.90 0.55 1.70 -1.30 -0.65z"/>
  <path d="M12.15 13.70 c-1.20 -1.35 -1.45 -2.20 -0.65 -2.20 0.65 0 2.15 2.30 1.90 2.95 -0.05 0.30 -0.65 -0.05 -1.25 -0.75z"/>
  <path d="M26.30 10.90 c-0.50 -1.15 -0.55 -1.75 -0.10 -2.20 0.90 -1.05 2.50 0.85 2.10 2.50 -0.45 1.75 -1.20 1.65 -2 -0.30z"/>
  <path d="M31.50 11.70 c-2 -0.85 -2.50 -1.50 -2.45 -3.20 l0.05 -1.25 0.55 1.25 c0.50 1 1 1.30 2.60 1.35 2.10 0.15 3.60 1.20 3.05 2.10 -0.50 0.75 -1.70 0.65 -3.80 -0.25z"/>
  <path d="M13.80 9.30 c-0.90 -1.40 -1.05 -2.80 -0.35 -2.80 0.50 0 1.80 3.45 1.40 3.80 -0.10 0.15 -0.60 -0.35 -1.05 -1z"/>
  <path d="M17 7.45 c0 -0.55 0.25 -0.85 0.50 -0.70 0.30 0.15 0.50 0.65 0.50 1.05 0 0.40 -0.20 0.70 -0.50 0.70 -0.25 0 -0.50 -0.45 -0.50 -1.05z"/>
 </g>
 <g fill="#b3823c">
  <path d="M15.50 18.45 c0 -0.90 0.10 -0.95 0.75 -0.45 0.40 0.35 0.75 0.80 0.75 1.05 0 0.25 -0.35 0.45 -0.75 0.45 -0.45 0 -0.75 -0.45 -0.75 -1.05z"/>
  <path d="M17.60 18.45 c-0.35 -0.55 -0.55 -1.15 -0.45 -1.30 0.45 -0.40 2.40 0.90 2.20 1.50 -0.30 0.95 -1.10 0.90 -1.75 -0.20z"/>
  <path d="M23.80 11.25 c-0.15 -0.40 -0.85 -0.85 -1.55 -1.05 -1.25 -0.30 -1.60 -0.90 -0.80 -1.40 0.50 -0.35 3.55 2.05 3.55 2.75 0 0.75 -0.85 0.50 -1.20 -0.30z"/>
  <path d="M25.80 9.80 c-0.40 -0.70 -1.25 -1.40 -1.90 -1.60 -1.05 -0.30 -1.05 -0.35 -0.15 -1 1.45 -1.05 2.10 -0.85 3.45 1.15 0.95 1.40 1.10 1.95 0.65 2.25 -0.95 0.60 -1.15 0.50 -2.05 -0.80z"/>
  <path d="M29 8.55 c0 -0.55 -0.20 -1.15 -0.50 -1.30 -0.70 -0.45 -0.60 -1.35 0.10 -1.15 0.75 0.25 1.45 2.80 0.85 3.20 -0.25 0.15 -0.45 -0.20 -0.45 -0.75z"/>
 </g>
 <g fill="#868289">
  <path d="M5.85 25.70 c-0.20 -0.20 -0.35 -0.70 -0.35 -1.15 0 -0.55 0.15 -0.60 0.55 -0.20 0.30 0.30 0.50 0.80 0.35 1.15 -0.10 0.30 -0.35 0.40 -0.55 0.20z"/>
  <path d="M8.80 24.25 c0.20 -0.50 0.05 -1 -0.35 -1.25 -0.35 -0.25 -0.55 -0.55 -0.40 -0.75 0.15 -0.15 0.65 0.15 1.15 0.70 0.75 0.80 0.75 0.95 0.05 1.55 -0.65 0.55 -0.70 0.50 -0.45 -0.25z"/>
  <path d="M4.50 22.55 c0 -0.65 1.30 -1.60 1.65 -1.20 0.40 0.35 -0.55 1.65 -1.20 1.65 -0.25 0 -0.45 -0.20 -0.45 -0.45z"/>
  <path d="M28.50 21.75 c-0.70 -1.35 -0.25 -2.45 0.50 -1.25 0.45 0.70 0.70 2.50 0.35 2.50 -0.10 0 -0.50 -0.55 -0.85 -1.25z"/>
  <path d="M16.10 19.70 c-1.10 -0.75 -1.50 -2.20 -0.60 -2.20 0.55 0 2.25 2.40 1.90 2.75 -0.10 0.15 -0.70 -0.10 -1.30 -0.55z"/>
  <path d="M10.60 19.15 c-0.90 -0.35 0.20 -1.65 1.45 -1.65 1.10 0 1.20 0.55 0.35 1.40 -0.65 0.65 -0.80 0.65 -1.80 0.25z"/>
  <path d="M17.80 18.70 c-0.20 -0.45 -0.20 -0.95 -0.05 -1.10 0.40 -0.40 2.75 0.80 2.75 1.40 0 0.85 -2.35 0.55 -2.70 -0.30z"/>
  <path d="M37.10 17.85 c-1.20 -1.25 -1.40 -1.85 -0.60 -1.85 0.55 0 2.25 2.40 1.90 2.75 -0.10 0.15 -0.70 -0.25 -1.30 -0.90z"/>
  <path d="M11.60 12.75 c-0.30 -0.70 -0.40 -1.25 -0.20 -1.25 0.60 0 1.60 1.15 1.60 1.85 0 1.10 -0.80 0.75 -1.40 -0.60z"/>
  <path d="M26.80 11.70 c-0.50 -1.35 -0.35 -2.70 0.40 -2.70 0.90 0 1.30 1.10 0.95 2.45 -0.30 1.25 -0.90 1.35 -1.35 0.25z"/>
  <path d="M13.65 8.50 c-0.95 -1.45 -0.85 -2.40 0.15 -1.40 0.45 0.40 0.70 1.15 0.60 1.60 -0.15 0.70 -0.25 0.70 -0.75 -0.20z"/>
 </g>
 <g fill="#8388ab">
  <path d="M29 22.55 c-0.60 -1.20 -0.65 -1.70 -0.05 -1.35 0.45 0.30 1.10 2.30 0.75 2.30 -0.10 0 -0.40 -0.45 -0.70 -0.95z"/>
  <path d="M18.05 19.20 c-0.75 -1.65 -0.55 -1.85 1.15 -1.25 0.80 0.35 1.30 0.90 1.30 1.55 0 1.50 -1.70 1.25 -2.45 -0.30z"/>
  <path d="M10.55 19.05 c-0.55 -0.35 -0.50 -0.55 0.35 -1 1.15 -0.60 2.60 -0.75 2.60 -0.25 0 0.35 -1.55 1.65 -2 1.70 -0.15 0 -0.55 -0.20 -0.95 -0.45z"/>
  <path d="M37 17.55 c-0.80 -1.20 -0.85 -1.45 -0.25 -1.25 0.85 0.35 2 2.15 1.60 2.50 -0.15 0.15 -0.75 -0.45 -1.35 -1.25z"/>
  <path d="M30.80 15.05 c-0.50 -0.55 -0.80 -1.30 -0.70 -1.65 0.15 -0.40 0.60 0 1.10 1 0.95 1.85 0.85 2 -0.40 0.65z"/>
  <path d="M11.55 12.65 c-0.65 -1.40 -0.65 -1.40 0.40 -0.45 1.10 1 1.35 1.80 0.65 1.80 -0.25 0 -0.70 -0.60 -1.05 -1.35z"/>
  <path d="M31.85 11.60 c-2.10 -0.95 -2 -1.60 0.25 -1.60 1.85 0 3.40 0.80 3.40 1.75 0 0.95 -1.25 0.90 -3.65 -0.15z"/>
  <path d="M13.60 8.50 c-0.40 -0.65 -0.40 -1 -0.10 -1 0.30 0 0.65 0.35 0.85 0.75 0.45 1.20 -0.05 1.35 -0.75 0.25z"/>
 </g>
 <g fill="#9a908d">
  <path d="M9 23.80 c0 -0.40 -0.30 -0.85 -0.60 -0.95 -0.40 -0.20 -0.45 -0.30 -0.10 -0.30 0.90 -0.05 1.85 1.30 1.20 1.70 -0.25 0.15 -0.50 0 -0.50 -0.45z"/>
  <path d="M4.60 22.45 c0.10 -0.35 0.50 -0.75 0.85 -0.85 0.40 -0.15 0.60 0.05 0.45 0.45 -0.10 0.35 -0.50 0.75 -0.85 0.85 -0.40 0.15 -0.60 -0.05 -0.45 -0.45z"/>
  <path d="M28.30 21.20 c-0.40 -1.05 -0.40 -1.20 0.15 -1.20 0.25 0 0.55 0.45 0.70 1 0.30 1.20 -0.40 1.35 -0.85 0.20z"/>
  <path d="M15.60 19.40 c-1.80 -1.10 -2.05 -1.90 -0.65 -1.90 0.85 0 2.90 2.30 2.45 2.75 -0.10 0.10 -0.90 -0.25 -1.80 -0.85z"/>
  <path d="M18.25 19 c-1 -1.10 -0.80 -1.70 0.45 -1.20 0.45 0.15 0.80 0.75 0.80 1.25 0 1.20 -0.15 1.20 -1.25 -0.05z"/>
  <path d="M26.95 11.70 c-0.40 -0.50 -0.45 -0.90 -0.10 -1.10 0.25 -0.20 0.65 -0.70 0.80 -1.10 0.15 -0.40 0.30 0.10 0.30 1.15 0.05 2.05 -0.05 2.20 -1 1.05z"/>
 </g>
 <g fill="#baa281">
  <path d="M14.65 19.05 c-1.90 -0.95 -2.10 -1.55 -0.50 -1.55 0.65 0 1.70 0.55 2.35 1.25 1.35 1.45 0.65 1.55 -1.85 0.30z"/>
  <path d="M26.50 11.05 c-0.75 -1.45 -0.60 -2.05 0.50 -2.05 0.80 0 1 0.35 1 1.50 0 1.70 -0.70 1.95 -1.50 0.55z"/>
 </g>
 <g fill="#d4ab68">
  <path d="M15.05 18.95 c-0.65 -0.55 -1.05 -1.10 -0.90 -1.30 0.40 -0.35 2.85 1.20 2.85 1.85 0 0.75 -0.60 0.60 -1.95 -0.55z"/>
  <path d="M18 18.50 c-0.30 -0.55 -0.40 -1 -0.25 -1 0.70 0 2.25 1.05 2.25 1.50 0 0.90 -1.45 0.50 -2 -0.50z"/>
  <path d="M26.30 10.20 c-0.45 -1.15 -0.40 -1.20 0.70 -1.20 0.65 0 1 0.35 1 1 0 1.20 -1.25 1.35 -1.70 0.20z"/>
 </g>
 <g fill="#999eb6">
  <path d="M28.50 21.50 c-0.30 -0.60 -0.45 -1.20 -0.35 -1.35 0.15 -0.10 0.55 0.25 0.85 0.85 0.30 0.60 0.45 1.20 0.35 1.35 -0.15 0.10 -0.55 -0.25 -0.85 -0.85z"/>
  <path d="M18.60 19.45 c-0.75 -1.20 -0.50 -1.70 0.65 -1.30 0.75 0.30 1.10 2.35 0.35 2.35 -0.20 0 -0.65 -0.45 -1 -1.05z"/>
  <path d="M10.50 18.60 c0 -0.25 0.35 -0.65 0.80 -0.80 1.25 -0.50 3.70 -0.35 3.70 0.20 0 0.30 -0.30 0.50 -0.70 0.50 -0.35 0 -1.40 0.15 -2.25 0.30 -0.90 0.20 -1.55 0.10 -1.55 -0.20z"/>
  <path d="M36.95 17.40 c-0.85 -1.20 -0.90 -1.45 -0.30 -0.95 0.90 0.70 2.10 2.55 1.65 2.55 -0.15 0 -0.75 -0.75 -1.35 -1.60z"/>
  <path d="M30.50 14.75 c-0.35 -0.45 -0.55 -0.90 -0.40 -1 0.15 -0.15 0.55 0.05 0.90 0.50 0.35 0.45 0.55 0.90 0.40 1 -0.15 0.15 -0.55 -0.05 -0.90 -0.50z"/>
  <path d="M32.25 11.35 c-0.55 -0.45 -0.70 -0.80 -0.35 -1.05 0.60 -0.35 2.85 0.40 3.35 1.15 0.45 0.80 -1.90 0.70 -3 -0.10z"/>
  <path d="M13.50 8.30 c-0.30 -0.45 -0.50 -1.05 -0.40 -1.40 0.15 -0.40 0.45 -0.20 0.85 0.50 0.75 1.40 0.45 1.95 -0.45 0.90z"/>
 </g>
 <g fill="#adaaa6">
  <path d="M18.60 19 c-0.35 -0.55 -0.40 -1 -0.10 -1 0.25 0 0.70 0.45 1 1 0.30 0.55 0.35 1 0.15 1 -0.25 0 -0.70 -0.45 -1.05 -1z"/>
  <path d="M11.60 18.45 c0.30 -0.90 3.50 -0.95 3.80 -0.05 0.15 0.45 -0.10 0.50 -1 0.15 -0.75 -0.30 -1.55 -0.25 -2.10 0.05 -0.70 0.40 -0.85 0.35 -0.70 -0.15z"/>
 </g>
 <g fill="#cfbb93">
  <path d="M15.35 19 c-1.85 -1.15 -2.15 -1.50 -1.25 -1.50 0.90 0 3.30 1.80 2.90 2.15 -0.15 0.10 -0.85 -0.15 -1.65 -0.65z"/>
 </g>
 <g fill="#adb1c6">
  <path d="M10.50 18.55 c0 -0.50 2.10 -1.15 2.45 -0.75 0.35 0.30 -1 1.20 -1.80 1.20 -0.35 0 -0.65 -0.20 -0.65 -0.45z"/>
  <path d="M33.15 11.65 c-0.35 -0.10 -0.65 -0.45 -0.65 -0.70 0 -0.70 1.30 -0.50 2 0.30 0.50 0.60 0.50 0.75 -0.05 0.70 -0.40 0 -1 -0.15 -1.30 -0.30z"/>
 </g>
 <g fill="#f3ca7c">
  <path d="M15.50 19 c-0.95 -0.75 -1.05 -1 -0.45 -1 0.80 0 2.30 1.35 1.90 1.75 -0.10 0.10 -0.75 -0.25 -1.45 -0.75z"/>
  <path d="M26.60 10.80 c-0.40 -0.95 -0.40 -1.25 0.15 -1.45 0.90 -0.35 1.25 0.05 1.25 1.50 0 1.50 -0.70 1.50 -1.40 -0.05z"/>
 </g>
 <g fill="#bec3d3">
 </g>
</svg>