<?xml version="1.0" encoding="utf-8"?>
<!DOCTYPE svg PUBLIC "-//W3C//DTD SVG 1.0//EN" "http://www.w3.org/TR/2001/REC-SVG-20010904/DTD/svg10.dtd">
<svg version="1.0" xmlns="http://www.w3.org/2000/svg" width="40px" height="40px" viewBox="0 0 40 40" preserveAspectRatio="xMidYMid meet">
 <g fill="#09060f">
  <path d="M20 38.80 c0 -0.70 -0.20 -1.30 -0.50 -1.30 -0.25 0 -0.50 -0.90 -0.50 -2 l0 -2 2 0 c1.45 0 2 0.20 2 0.80 0 0.90 2.45 -0.75 5.90 -4 2.40 -2.25 3.25 -3.60 4 -6.45 l0.55 -1.90 -2.20 0.30 c-2.65 0.45 -5.25 -0.10 -5.25 -1.05 0 -0.40 -0.45 -0.70 -1 -0.70 -0.55 0 -1 -0.20 -1 -0.50 0 -0.25 -0.35 -0.50 -0.75 -0.50 -0.55 0 -0.75 -0.60 -0.75 -2.25 0 -1.25 0.25 -2.25 0.50 -2.25 0.30 0 0.50 -0.60 0.50 -1.30 0 -1.15 0.15 -1.25 1.90 -1.10 1.50 0.10 1.90 0.35 2 1.30 0.25 1.60 2.10 1.50 2.10 -0.15 0 -0.95 -0.25 -1.25 -1.05 -1.25 -0.60 0 -1.15 -0.40 -1.30 -1 -0.20 -0.80 -0.70 -1 -2.40 -1 -1.80 0 -2.20 -0.20 -2.45 -1.10 -0.30 -1.10 -0.35 -1.10 -1 -0.25 -0.35 0.45 -0.90 0.85 -1.25 0.85 -0.30 0 -0.55 0.45 -0.55 1 0 0.55 0.25 1 0.50 1 0.30 0 0.50 1 0.50 2.25 0 1.25 -0.20 2.25 -0.50 2.25 -0.25 0 -0.50 0.70 -0.50 1.50 0 1 -0.25 1.50 -0.75 1.50 -0.40 0 -0.75 0.25 -0.75 0.50 0 0.30 -0.80 0.50 -1.75 0.50 -0.95 0 -1.75 -0.25 -1.75 -0.50 0 -0.35 -0.65 -0.40 -1.75 -0.20 -0.95 0.15 -2.35 0.15 -3.05 0 -1.25 -0.35 -1.30 -0.50 -1.10 -2.80 0.20 -1.85 0.10 -2.50 -0.40 -2.50 -1.15 0 -1.25 0.95 -0.45 5.05 1.15 6.10 1.10 6.45 -0.95 6.45 -1.65 0 -1.70 -0.05 -2.05 -2.75 -0.15 -1.50 -0.65 -3.10 -1.10 -3.55 -0.95 -0.95 -0.65 -5.90 0.50 -8.05 0.45 -0.75 0.90 -2 1.10 -2.80 0.25 -1.15 0.50 -1.35 2 -1.35 1.55 0 1.75 0.15 1.75 1.25 0 1.10 0.20 1.25 1.75 1.25 1.60 0 1.75 0.15 1.75 1.45 0 0.85 0.30 1.55 0.80 1.75 1.15 0.45 1.20 0.40 1.20 -0.60 0 -0.95 1.20 -2.25 2.50 -2.75 0.40 -0.15 -0.45 -0.30 -1.85 -0.30 l-2.65 -0.05 0 -1.65 c0 -1.55 0.30 -1.90 3.60 -4 2 -1.30 3.90 -2.55 4.25 -2.85 1.10 -0.90 3.85 -0.60 4.65 0.55 0.90 1.20 5.50 4.65 5.50 4.05 0 -0.25 -0.35 -0.85 -0.75 -1.40 -0.40 -0.50 -0.75 -1.70 -0.75 -2.55 0 -1.55 0.10 -1.65 1.90 -1.65 2.25 0 3.45 1.50 5.65 7.15 1.85 4.75 2.45 9.35 1.25 9.35 -0.45 0 -0.80 0.25 -0.80 0.50 0 0.30 0.35 0.50 0.75 0.50 0.40 0 0.90 0.60 1.05 1.30 0.35 1.45 -0.05 9.85 -0.60 11.60 -0.25 0.90 -0.10 1.10 0.75 1.10 1.05 0 1.10 0.20 0.95 3.65 l-0.15 3.60 -2.85 0.15 c-2.80 0.15 -2.90 0.10 -2.90 -1.15 0 -0.80 -0.30 -1.25 -0.75 -1.25 -0.45 0 -0.75 0.45 -0.75 1.20 0 1.35 -0.75 1.50 -8.60 2.10 l-3.90 0.30 0 -1.30z"/>
  <path d="M16.85 32.15 c-0.20 -0.15 -0.35 -1.05 -0.35 -2 0 -1.55 0.10 -1.65 1.70 -1.65 2.70 0 3.30 0.40 3.30 2.30 0 1.65 -0.05 1.70 -2.15 1.70 -1.20 0 -2.35 -0.15 -2.50 -0.35z"/>
 </g>
 <g fill="#0a1130">
  <path d="M20.50 38.55 c0 -1.40 -0.15 -1.55 -1.50 -1.55 -1.40 0 -1.50 -0.15 -1.50 -1.75 0 -1.70 0.10 -1.75 1.80 -1.75 1.65 0 1.80 0.10 1.50 1.20 -0.15 0.60 -0.15 1.30 0 1.45 0.45 0.45 3 -0.90 6.05 -3.20 1.45 -1.10 2.95 -1.95 3.40 -1.95 0.40 0 0.75 -0.35 0.75 -0.75 0 -0.35 0.30 -0.90 0.70 -1.10 0.35 -0.20 0.90 -1.75 1.20 -3.40 0.65 -3.65 1.40 -5.75 2.10 -5.75 0.25 0 0.50 -0.65 0.50 -1.50 0 -1.40 0.15 -1.50 1.75 -1.50 1.75 0 1.75 0 1.75 2.25 0 1.25 -0.20 2.25 -0.45 2.25 -0.25 0 -0.25 0.90 0.05 2.15 0.25 1.15 0.35 2.85 0.20 3.75 -0.15 1.15 -0.05 1.60 0.50 1.60 0.55 0 0.70 1 0.70 5 0 5.75 0.80 5.15 -6.75 5.30 -2.45 0.05 -6.35 0.25 -8.60 0.45 l-4.15 0.35 0 -1.55z m7.90 -4.15 c1.45 -1.10 3 -1.85 3.40 -1.70 0.45 0.15 0.70 -0.05 0.70 -0.55 0 -0.45 0.30 -1.20 0.70 -1.60 0.40 -0.45 0.85 -1.70 1.05 -2.80 l0.30 -2 -0.95 2 c-1.10 2.30 -4.70 5.80 -8.45 8.25 -1.45 0.90 -2.65 1.75 -2.65 1.85 0 0.40 3.45 -1.60 5.90 -3.45z m9.90 0.60 l0.15 -2.25 -0.80 1.50 c-0.40 0.85 -1.15 1.90 -1.60 2.40 -0.75 0.90 -0.70 0.95 0.65 0.75 1.30 -0.15 1.45 -0.35 1.60 -2.40z m-1.50 -6.85 c0.40 -1.60 0.70 -4 0.70 -5.40 0 -2.45 -0.60 -4.30 -1.15 -3.45 -0.40 0.65 -0.30 4.20 0.10 4.20 0.40 0 -0.05 4.05 -0.70 6.75 -0.20 0.85 -0.20 1.35 0 1.15 0.20 -0.20 0.70 -1.65 1.05 -3.25z"/>
  <path d="M0 36.25 c0 -1.40 0.20 -1.75 1 -1.75 0.80 0 1 0.35 1 1.75 0 1.40 -0.20 1.75 -1 1.75 -0.80 0 -1 -0.35 -1 -1.75z"/>
  <path d="M4.90 27.50 c-0.35 -0.55 -1.15 -1 -1.75 -1 -0.70 0 -1.15 -0.30 -1.15 -0.75 0 -0.40 -0.45 -0.75 -1 -0.75 -0.85 0 -1 -0.35 -1 -2.45 0 -2.20 0.15 -2.50 1.15 -2.65 0.95 -0.15 1.15 -0.55 1.45 -2.85 0.15 -1.45 0.50 -2.80 0.80 -3 0.25 -0.15 0.60 -1.35 0.80 -2.65 0.20 -1.30 0.65 -2.70 1 -3.05 0.35 -0.35 0.80 -1.15 1 -1.75 0.20 -0.60 1.35 -2.10 2.55 -3.35 1.85 -1.85 2.55 -2.25 4.05 -2.25 1.80 0 1.80 0 1.60 2 -0.10 1.30 0 1.80 0.30 1.50 0.55 -0.55 3.80 -0.70 3.80 -0.20 0 0.15 -0.50 0.75 -1.10 1.30 -0.65 0.55 -0.90 0.85 -0.60 0.70 0.35 -0.15 0.85 0.05 1.20 0.40 0.45 0.60 0.35 0.85 -0.45 1.25 -0.55 0.30 -1.35 0.55 -1.75 0.55 -0.45 0 -0.80 0.30 -0.80 0.65 0 0.65 -3.35 2.60 -4.15 2.45 -0.20 -0.05 -1.05 0.55 -1.95 1.40 -0.85 0.80 -1.75 1.50 -2.05 1.50 -0.25 0 -0.30 0.60 -0.15 1.40 1.15 4.60 1.90 8.15 2.15 10.25 l0.30 2.35 -1.85 0 c-1.25 0 -2 -0.30 -2.40 -1z m0.60 -10.20 c0 -0.40 -0.20 -0.90 -0.50 -1.05 -0.25 -0.15 -0.50 0.15 -0.50 0.70 0 0.60 0.25 1.05 0.50 1.05 0.30 0 0.50 -0.30 0.50 -0.70z m10.50 -10.05 c0 -0.65 -0.20 -0.70 -1 -0.25 -0.55 0.30 -1 0.65 -1 0.75 0 0.15 0.45 0.25 1 0.25 0.55 0 1 -0.35 1 -0.75z"/>
  <path d="M28.50 17 c-0.40 -0.25 -1.15 -0.35 -1.65 -0.20 -0.75 0.25 -0.90 0.05 -0.75 -1.15 0.15 -1.25 0.40 -1.40 2.05 -1.55 1.80 -0.15 1.85 -0.15 1.85 1.60 0 1.90 -0.25 2.10 -1.50 1.30z"/>
  <path d="M35 14.75 c0 -1 -0.25 -1.25 -1.20 -1.25 -0.65 0 -1.30 -0.30 -1.40 -0.60 -0.15 -0.40 -0.95 -0.60 -2.05 -0.50 -1.60 0.15 -1.85 0.05 -1.85 -0.90 0 -0.60 0.20 -0.90 0.50 -0.75 0.25 0.15 0.95 0.05 1.50 -0.25 l1.05 -0.55 -1.15 -1.15 c-0.65 -0.60 -2.05 -1.75 -3.15 -2.55 -1.10 -0.80 -2.60 -2.10 -3.35 -2.90 -1.25 -1.35 -1.45 -1.40 -2.15 -0.65 -1.25 1.25 -1.75 0.95 -1.75 -0.95 0 -1.65 0.10 -1.75 1.75 -1.75 0.95 0 1.75 0.25 1.75 0.50 0 0.30 0.25 0.50 0.55 0.50 0.30 0 1.20 0.70 1.95 1.50 0.75 0.85 1.65 1.50 1.95 1.50 0.30 0 0.55 0.35 0.55 0.75 0 0.40 0.35 0.75 0.80 0.75 0.55 0 0.70 -0.25 0.45 -0.85 -0.20 -0.50 -0.45 -1.75 -0.60 -2.80 -0.25 -1.80 -0.25 -1.85 1.25 -1.85 2.15 0 3.10 0.45 3.10 1.55 0 0.50 0.30 0.95 0.70 0.95 0.85 0 3.30 5.95 3.30 8 0 2.55 -1.20 1.70 -2.40 -1.70 -1.15 -3.20 -3.50 -7.30 -4.20 -7.30 -0.20 0 0.25 1.05 1.05 2.40 1.45 2.35 3.20 7.40 2.80 8.05 -0.10 0.20 0.35 1 1 1.85 l1.15 1.45 -0.25 -1.35 c-0.20 -1.15 -0.10 -1.40 0.80 -1.40 0.85 0 1.05 0.30 1.05 1.75 0 1.65 -0.10 1.75 -1.75 1.75 -1.55 0 -1.75 -0.15 -1.75 -1.25z"/>
  <path d="M27 8.30 c0 -0.40 -0.30 -0.85 -0.60 -0.95 -0.35 -0.15 -0.15 -0.30 0.50 -0.30 0.80 -0.05 1.10 0.25 1.10 0.95 0 0.55 -0.20 1 -0.50 1 -0.25 0 -0.50 -0.30 -0.50 -0.70z"/>
 </g>
 <g fill="#221718">
  <path d="M13.50 36.75 c0 -1.65 0.10 -1.75 1.75 -1.75 1.65 0 1.75 0.10 1.75 1.75 0 1.65 -0.10 1.75 -1.75 1.75 -1.65 0 -1.75 -0.10 -1.75 -1.75z"/>
  <path d="M18 35.50 l0 -2 2.50 0 c1.40 0 2.50 -0.20 2.50 -0.40 0 -0.25 -1.20 -0.35 -2.65 -0.20 -3.20 0.25 -4.35 -0.60 -4.35 -3.20 0 -1.90 0.15 -1.95 4.90 -1.40 2.10 0.30 2.60 0.50 2.60 1.25 0 0.70 0.35 0.95 1.50 0.95 0.90 0 1.65 0.30 1.80 0.75 0.20 0.45 0.95 0.75 1.85 0.75 1.55 0 1.55 0 0.60 0.95 -0.55 0.50 -2.20 1.75 -3.70 2.75 -2.15 1.45 -3.10 1.80 -5.10 1.80 l-2.45 0 0 -2z"/>
  <path d="M31 29.60 c0 -2.30 0.50 -3.10 1.80 -3.10 0.65 0 1.20 0.10 1.20 0.25 0 0.65 -1.50 3.10 -2.20 3.70 -0.70 0.60 -0.80 0.50 -0.80 -0.85z"/>
  <path d="M33.50 30.65 c0.05 -0.25 0.35 -0.95 0.75 -1.65 0.50 -0.90 0.70 -1 0.75 -0.40 0 1.15 -0.55 2.40 -1.05 2.40 -0.25 0 -0.45 -0.15 -0.45 -0.35z"/>
  <path d="M5.50 26.90 c0 -0.35 -0.15 -1.20 -0.30 -1.90 -0.25 -1.05 -0.15 -1 0.80 0.45 0.55 0.90 1.15 1.60 1.20 1.50 0.20 -0.20 -1.50 -8.95 -2 -10.65 -0.30 -0.85 -0.40 -0.80 -0.95 0.50 -0.65 1.45 -0.65 1.45 -0.70 -1.05 -0.05 -1.55 0.25 -2.95 0.75 -3.65 1.05 -1.50 1.90 -1.40 1.50 0.20 l-0.35 1.30 1.55 -1.10 c0.85 -0.60 1.35 -1.35 1.20 -1.65 -0.20 -0.35 -0.20 -0.45 0.05 -0.25 0.65 0.60 2.25 -0.55 1.95 -1.35 -0.20 -0.40 -0.05 -0.75 0.25 -0.75 0.30 0 0.55 -0.35 0.55 -0.75 0 -0.50 0.55 -0.75 1.75 -0.75 1.40 0 1.75 -0.20 1.75 -0.95 0 -1.05 0.95 -1.55 2.90 -1.55 1.15 0 1.05 0.15 -1.05 1.50 -2.60 1.65 -2.85 2 -1.35 2 0.55 0 1 -0.30 1 -0.70 0 -1.30 1.45 -1.30 2.30 -0.05 l0.80 1.25 0.95 -1.20 c0.50 -0.65 0.95 -1.45 0.95 -1.75 0 -0.30 0.45 -0.55 1 -0.55 0.55 0 1 0.35 1 0.75 0 0.65 0.60 1.95 1.40 3.25 0.10 0.10 0.35 -0.10 0.60 -0.50 0.40 -0.65 0.50 -0.60 0.50 0.15 0 0.65 -0.40 0.85 -1.70 0.85 -1.50 0 -1.75 -0.20 -1.95 -1.35 l-0.20 -1.40 -0.10 1.40 c0 0.85 -0.35 1.35 -0.80 1.35 -0.90 0 -0.95 0.90 -0.20 2.85 0.50 1.35 0.55 1.35 1.20 0.45 0.60 -0.80 1.10 -0.90 3.25 -0.60 l2.50 0.35 0 -1.55 c0 -1.60 0.70 -2 1.20 -0.70 0.20 0.55 0.65 0.70 1.55 0.50 0.70 -0.15 1.80 -0.45 2.50 -0.60 0.80 -0.20 1.25 -0.10 1.25 0.30 0 0.35 -0.35 0.50 -0.85 0.30 -0.50 -0.20 -0.30 0.15 0.45 0.80 0.75 0.65 1.85 1.70 2.40 2.40 l1.05 1.25 -0.30 -1.15 c-0.30 -0.95 -0.20 -1.15 0.60 -1 0.75 0.15 0.90 0.70 1.05 3.80 0.10 2.25 -0.05 3.60 -0.40 3.60 -0.25 0 -0.50 -0.50 -0.50 -1.10 0 -1.45 -1 -0.50 -1.70 1.65 -0.55 1.60 -0.60 1.60 -4.40 1.80 -3.25 0.15 -3.90 0.05 -3.90 -0.60 0 -0.55 -0.60 -0.75 -2.50 -0.75 -2.15 0 -2.50 -0.15 -2.50 -0.95 0 -1.30 -0.75 -1.70 -2.30 -1.35 -0.85 0.25 -1.20 0.65 -1.20 1.55 0 1.10 -0.20 1.25 -1.75 1.25 -0.90 0 -1.90 -0.30 -2.10 -0.65 -0.30 -0.40 -1.45 -0.55 -3.80 -0.45 -2.95 0.15 -3.40 0.30 -3.10 1 0.20 0.50 0.45 1.90 0.60 3.25 l0.30 2.35 -1.85 0 c-1.10 0 -1.80 -0.25 -1.80 -0.60z m24.50 -6.30 c0 -0.25 0.60 -0.70 1.35 -1.05 0.95 -0.45 1.15 -0.75 0.75 -1.15 -0.35 -0.35 -0.65 -0.50 -0.70 -0.35 -0.10 0.10 -0.70 0.80 -1.35 1.60 -0.70 0.75 -0.95 1.35 -0.65 1.35 0.35 0 0.60 -0.20 0.60 -0.40z m-1.20 -3.40 c-0.55 -0.40 -0.75 -0.90 -0.50 -1.30 0.20 -0.35 -0.10 -0.25 -0.65 0.25 -0.70 0.60 -1.45 0.80 -2.35 0.55 -1 -0.25 -1.30 -0.10 -1.30 0.50 0 0.45 0.35 0.80 0.75 0.80 0.40 0 0.75 0.25 0.75 0.55 0 0.35 0.50 0.45 1.25 0.25 0.75 -0.20 1.25 -0.10 1.25 0.25 0 0.30 0.40 0.15 0.85 -0.35 0.80 -0.75 0.80 -0.85 -0.05 -1.50z m-15.60 0.25 c-0.35 -0.60 -3.20 -0.60 -3.20 0 0 0.25 0.25 0.55 0.60 0.65 0.95 0.35 2.90 -0.15 2.60 -0.65z m4.80 0.10 c0 -0.25 -0.75 -0.70 -1.60 -1.05 -0.90 -0.30 -2.05 -0.80 -2.55 -1.10 -0.55 -0.25 -1.05 -0.35 -1.20 -0.20 -0.15 0.15 0.85 0.80 2.15 1.45 2.80 1.40 3.20 1.55 3.20 0.90z m17.50 -0.50 c0 -0.55 -3.90 -1.05 -4.95 -0.65 -0.70 0.30 0.25 0.55 4.35 1 0.30 0.05 0.60 -0.10 0.60 -0.35z m-17.50 -5.20 c0 -0.30 -0.45 -0.10 -1 0.40 -0.55 0.50 -1 1.15 -1 1.40 0 0.30 0.45 0.10 1 -0.40 0.55 -0.50 1 -1.15 1 -1.40z m14.20 0.55 c-0.20 -0.30 -0.50 -0.25 -0.75 0.15 -0.70 1.10 -0.50 1.65 0.30 0.95 0.40 -0.35 0.60 -0.85 0.45 -1.10z m-15.85 -1.90 c0.15 -0.55 0.60 -1 0.95 -1 0.40 0 0.70 -0.20 0.70 -0.50 0 -0.25 -0.80 -0.50 -1.75 -0.50 -1.80 0 -2.10 0.50 -1.45 2.20 0.45 1.10 1.25 1 1.55 -0.20z"/>
  <path d="M23.75 3 c-0.15 -0.25 -0.75 -0.75 -1.35 -1.05 -0.65 -0.35 -0.90 -0.35 -0.70 -0.05 0.15 0.30 0.10 0.65 -0.20 0.85 -0.30 0.20 -0.50 -0.30 -0.50 -1.20 0 -1.45 0.10 -1.55 2 -1.55 1.90 0 2 0.10 2 1.45 0 1.55 -0.70 2.45 -1.25 1.55z"/>
 </g>
 <g fill="#1c244e">
  <path d="M19.50 38.85 c0 -1 -0.25 -1.35 -1 -1.35 -0.80 0 -1 -0.35 -1 -1.75 0 -1.65 0.10 -1.75 1.75 -1.75 0.95 0 1.75 0.25 1.75 0.50 0 0.30 -0.45 0.50 -1.05 0.50 -1.55 0 -0.65 0.90 1.30 1.30 1.95 0.35 2.20 0.90 0.90 1.65 -0.85 0.45 -0.85 0.50 0 0.85 1.20 0.45 6.85 -1.25 6.85 -2.05 0 -0.35 0.35 -0.90 0.80 -1.30 0.65 -0.55 0.70 -0.45 0.45 0.70 -0.30 1.20 -0.20 1.35 1 1.35 2.30 0 4.50 -3.75 5.75 -9.80 0.60 -2.80 1.05 -3.20 2.30 -2 0.75 0.80 1 5.55 0.25 5.10 -0.25 -0.20 -0.85 0.70 -1.30 1.90 -0.50 1.25 -1.40 2.75 -2.05 3.35 -1.70 1.60 -1.50 2.05 0.70 1.65 2.20 -0.40 3.15 -1.05 2.20 -1.65 -0.40 -0.25 -0.50 -0.90 -0.30 -1.95 0.55 -2.75 1.20 -1.75 1.20 1.90 l0 3.50 -3.85 0 c-2.15 0 -6.75 0.15 -10.25 0.35 l-6.40 0.30 0 -1.30z"/>
  <path d="M0.10 36.45 c0 -1.95 0.05 -2 1.60 -1.85 1.40 0.15 1.55 0.35 1.70 2.05 0.15 1.80 0.15 1.85 -1.60 1.85 -1.70 0 -1.75 -0.05 -1.70 -2.05z"/>
  <path d="M25.05 37.30 c0.45 -0.45 4 -2.80 4.20 -2.80 0.80 0 0 1.15 -1.35 2 -1.40 0.85 -3.50 1.45 -2.85 0.80z"/>
  <path d="M23.50 36.35 c0 -0.80 3.90 -3.45 4.80 -3.25 0.40 0.10 -0.55 1 -2.05 2.05 -1.75 1.20 -2.75 1.65 -2.75 1.20z"/>
  <path d="M31.70 36.15 c0.10 -0.50 0.40 -1.45 0.55 -2.15 0.65 -2.35 2.35 -6 2.80 -6 0.25 0 0.45 0.45 0.45 1 0 0.55 -0.20 1 -0.45 1 -0.25 0 -0.35 0.45 -0.20 0.95 0.15 0.55 -0.40 2.10 -1.20 3.50 -1.35 2.50 -2.45 3.40 -1.95 1.70z"/>
  <path d="M31.50 30.25 c0 -0.60 1.75 -3.75 2.10 -3.75 0.60 0 0.50 0.25 -0.65 2.20 -0.95 1.65 -1.45 2.15 -1.45 1.55z"/>
  <path d="M4.75 28.25 c-0.80 -0.65 -1.80 -1.20 -2.10 -1.25 -0.35 0 -0.65 -0.35 -0.65 -0.75 0 -0.40 -0.45 -0.75 -1 -0.75 -0.95 0 -1 -0.35 -1 -5.25 l0 -5.25 1.45 0 c1.35 0 1.50 -0.20 2.10 -2.50 0.35 -1.40 0.95 -2.50 1.30 -2.50 0.40 0 0.65 -0.60 0.65 -1.45 0 -0.80 0.30 -1.80 0.65 -2.15 0.35 -0.35 0.80 -1.05 0.95 -1.50 0.20 -0.45 0.85 -0.90 1.50 -1 0.65 -0.10 1.20 -0.55 1.30 -1.15 0.35 -1.95 1.60 -2.75 4.25 -2.75 l2.45 0 -0.20 1.75 c-0.15 1.45 -0.05 1.75 0.70 1.75 0.50 0 0.90 -0.35 0.90 -0.75 0 -0.40 0.20 -0.75 0.45 -0.75 0.25 0 0.85 -0.35 1.30 -0.85 0.45 -0.45 1.95 -0.90 3.35 -1.05 2.50 -0.25 2.55 -0.25 2.30 1.10 -0.20 0.90 -0.05 1.30 0.40 1.30 0.40 0 0.70 0.25 0.70 0.50 0 0.30 0.35 0.50 0.75 0.50 0.40 0 0.75 0.25 0.75 0.50 0 0.30 0.35 0.50 0.75 0.50 0.60 0 0.65 -0.20 0.25 -0.95 -0.25 -0.55 -0.50 -1.55 -0.50 -2.25 0 -1.10 0.25 -1.30 1.40 -1.30 2.10 0 4.10 1.10 4.10 2.25 0 2 0.60 3.25 1.55 3.25 0.75 0 0.95 0.35 0.95 1.75 0 2.40 -0.85 2.20 -2 -0.50 -1 -2.40 -3.50 -5.95 -3.85 -5.55 -0.10 0.10 0.45 1.50 1.30 3.05 1.50 2.80 2.45 6.05 1.90 6.55 -0.25 0.30 -7.05 -4.85 -9.50 -7.15 -0.80 -0.75 -1.25 -1.65 -1.10 -2.05 0.20 -0.60 0.10 -0.60 -0.40 -0.20 -0.40 0.35 -0.90 0.40 -1.10 0.20 -0.25 -0.20 -0.25 -0.10 -0.05 0.25 0.20 0.35 -0.15 0.90 -0.80 1.30 -6.40 4 -7.10 4.55 -6.20 4.75 0.55 0.10 1.15 -0.15 1.40 -0.60 0.50 -0.90 1.90 -1.10 1.90 -0.25 0 0.30 -0.45 0.65 -1 0.80 -0.55 0.15 -1 0.45 -1 0.70 0 0.70 -3.40 2.05 -4.10 1.65 -0.40 -0.25 -0.40 -0.05 0.10 0.55 0.70 0.85 0.65 0.90 -0.35 0.65 -0.65 -0.20 -1.35 0 -1.70 0.40 -0.30 0.40 -0.95 0.70 -1.40 0.70 -0.80 0 -2.35 1.90 -1.85 2.35 0.10 0.15 0 0.85 -0.25 1.55 -0.35 0.85 -0.30 1.35 0.05 1.60 0.30 0.20 0.50 1.20 0.40 2.30 -0.15 1.90 -0.20 1.85 -0.85 -1.20 -1.10 -5.10 -1.70 -4.55 -2.35 2.30 -0.20 2.45 -0.15 3.60 0.20 3.60 0.30 0 0.70 -0.25 0.90 -0.55 0.15 -0.30 0.70 0.10 1.25 1 1.60 2.60 1.75 2 0.65 -2.20 -0.15 -0.60 0.15 -0.35 0.70 0.55 0.55 0.90 1.25 1.75 1.55 1.90 0.30 0.20 0.55 1.15 0.55 2.10 0 1.60 -0.10 1.70 -1.60 1.70 -1 0 -2.25 -0.50 -3.15 -1.25z m3.90 -17.05 c1.30 -1.15 1.55 -1.55 0.70 -1 -0.80 0.50 -1.55 0.75 -1.70 0.65 -0.40 -0.45 1.70 -4.05 3.10 -5.35 0.75 -0.70 1.55 -1.70 1.85 -2.20 0.45 -0.85 0.40 -0.85 -1 0.10 -2 1.45 -4.95 6 -5.85 8.95 -0.90 3 -0.90 3.10 0 1.80 0.40 -0.60 1.70 -1.90 2.90 -2.95z"/>
  <path d="M35.50 19.05 c0 -0.55 0.25 -1.15 0.50 -1.30 0.30 -0.15 0.50 0.15 0.50 0.70 0 0.55 -0.20 1.15 -0.50 1.30 -0.25 0.15 -0.50 -0.15 -0.50 -0.70z"/>
  <path d="M37.30 18.40 c-0.15 -0.90 -0.35 -2.45 -0.50 -3.40 -0.15 -0.95 -0.40 -2.50 -0.60 -3.35 -0.30 -1.45 -0.20 -1.65 0.65 -1.65 0.85 0 1.10 0.55 1.60 2.85 0.80 4.05 0.75 7.15 -0.20 7.15 -0.40 0 -0.80 -0.65 -0.95 -1.60z"/>
  <path d="M35.45 16 c-0.30 -2.45 -1 -3.40 -2.70 -3.70 -1.90 -0.35 -2.65 -1.10 -1.85 -1.90 1.05 -1.05 5.60 3.75 5.60 5.90 0 0.45 -1 0.15 -1.05 -0.30z"/>
  <path d="M26.35 8.15 c-0.65 -0.60 -0.35 -1.15 0.65 -1.15 0.55 0 1 0.35 1 0.75 0 0.75 -1.05 1.05 -1.65 0.40z"/>
  <path d="M1.50 5.25 c0 -1.60 0.30 -2.55 1 -3.25 0.55 -0.55 1 -1.20 1 -1.50 0 -0.25 0.80 -0.50 1.75 -0.50 1.65 0 1.75 0.10 1.75 1.65 0 0.85 -0.45 2.55 -1 3.75 -0.85 1.90 -1.10 2.10 -2.75 2.10 -1.75 0 -1.75 0 -1.75 -2.25z"/>
  <path d="M34.50 1.75 c0 -1.70 0.05 -1.75 2 -1.75 1.95 0 2 0.05 2 1.75 0 1.70 -0.05 1.75 -2 1.75 -1.95 0 -2 -0.05 -2 -1.75z"/>
 </g>
 <g fill="#3f2b25">
  <path d="M13.80 38.20 c-0.15 -0.45 -0.30 -1.45 -0.30 -2.25 0 -1.30 0.15 -1.45 1.70 -1.45 1.85 0 2.30 0.60 2.30 3.05 0 1.30 -0.15 1.45 -1.70 1.45 -1.10 0 -1.80 -0.30 -2 -0.80z"/>
  <path d="M22 37.30 c0 -0.50 -0.45 -0.80 -1.10 -0.85 -1.05 -0.05 -1.05 -0.10 -0.15 -0.30 1.70 -0.40 2.05 -1.15 0.60 -1.15 -0.75 0 -1.80 -0.45 -2.35 -1 -0.55 -0.55 -1.15 -1 -1.30 -1 -0.80 0 -1.70 -1.60 -1.70 -3.05 l0 -1.60 2.25 0.25 c1.25 0.15 2.25 0.10 2.25 -0.15 0 -0.25 0.90 -0.45 2 -0.45 1.65 0 2 0.15 2 1 0 0.65 0.35 1 1 1 0.55 0 1.15 0.35 1.30 0.75 0.20 0.45 0.95 0.75 2.05 0.75 2.30 0 1.85 0.55 -3.10 4 -2.65 1.80 -3.75 2.35 -3.75 1.80z m-2.45 -6.80 c-1.05 -0.95 -2.05 -1.30 -2.05 -0.80 0 0.60 1.65 1.80 2.40 1.80 0.70 -0.05 0.60 -0.25 -0.35 -1z"/>
  <path d="M5.85 27.75 c-0.20 -1.25 -0.20 -1.25 1.05 -0.45 0.65 0.45 1.10 0.60 0.95 0.35 -0.15 -0.25 -0.75 -2.80 -1.35 -5.65 -0.55 -2.90 -1.15 -5.65 -1.30 -6.10 -0.35 -1.25 3.15 -4.85 6.40 -6.55 3.30 -1.70 4.10 -1.75 3.80 -0.15 -0.20 0.90 -0.05 1.10 0.65 0.95 0.70 -0.20 0.80 -0.60 0.60 -1.95 -0.20 -1.35 -0.10 -1.70 0.50 -1.70 0.45 0 1.10 0.50 1.40 1.10 0.55 1 0.65 1 1.20 0.25 0.55 -0.80 0.65 -0.80 0.95 0.25 0.15 0.65 0.30 2.10 0.30 3.25 0 1.15 0.25 2.25 0.50 2.40 0.30 0.20 0.50 -1.10 0.50 -3.45 0 -3.95 0.55 -4.80 1.60 -2.55 0.70 1.50 0.95 1.55 1.80 0.25 0.80 -1.30 2.10 -1.30 2.10 0 0 0.55 0.20 1 0.45 1 0.25 0 0.60 0.60 0.75 1.30 0.35 1.25 0.40 1.25 1.60 0.50 1.15 -0.80 1.30 -0.75 3.20 0.75 1.45 1.20 3 3.55 3 4.65 0 0.05 -1.80 0.05 -4 0.05 -3.35 0 -3.85 -0.10 -3.15 -0.60 0.45 -0.35 1.10 -0.65 1.45 -0.65 0.35 0 0.90 -0.40 1.20 -0.85 0.50 -0.85 0.50 -0.85 1 0 0.30 0.45 1 0.85 1.55 0.85 0.80 0 0.70 -0.25 -0.75 -1.55 -1.85 -1.60 -2.80 -1.55 -2.80 0.05 0 0.65 -0.45 1.10 -1.35 1.30 -0.80 0.20 -1.80 0.70 -2.30 1.15 -0.55 0.45 -1.55 0.70 -2.40 0.65 -1.75 -0.20 -2.05 1.10 -0.30 1.65 0.95 0.30 0.95 0.40 0.25 0.60 -1.20 0.30 -1.15 1.15 0.10 1.15 0.55 0 1 -0.20 1 -0.45 0 -0.25 0.45 -0.55 1 -0.70 0.55 -0.15 1 -0.05 1 0.20 0 0.25 0.45 0.20 1 -0.15 1.30 -0.80 1.85 -0.15 0.85 1 -0.95 1.05 -1.10 1.60 -0.35 1.60 0.30 0 0.50 -0.30 0.50 -0.65 0 -0.40 0.60 -0.95 1.30 -1.30 1.45 -0.65 2.40 -0.30 1.20 0.45 -0.40 0.25 -0.55 0.60 -0.35 0.80 0.20 0.20 0.75 0 1.20 -0.45 0.80 -0.80 0.80 -0.90 -0.10 -1.60 -0.55 -0.40 -1.50 -0.75 -2.15 -0.75 -0.65 0 -1 -0.20 -0.85 -0.50 0.40 -0.65 3.10 -0.65 3.55 0.05 0.15 0.30 0.85 0.45 1.50 0.30 1.50 -0.25 1.50 -0.05 -0.05 4.90 -1.45 4.60 -2.20 6.25 -2.90 6.25 -0.50 0 -0.25 -3.60 0.35 -5.05 0.30 -0.75 -0.35 -0.85 -5.45 -1.20 -4.30 -0.25 -5.90 -0.55 -6.10 -1.05 -0.20 -0.55 -0.45 -0.60 -0.90 -0.20 -0.45 0.40 -2.50 0.45 -6.30 0.20 l-5.60 -0.35 0.30 1.45 c0.20 0.80 0.50 2.50 0.65 3.85 l0.35 2.35 -1.75 0 c-1.50 0 -1.80 -0.20 -2.05 -1.25z m11.35 -8.50 c-0.25 -0.95 -0.10 -1.25 0.50 -1.25 0.45 0 0.80 -0.40 0.80 -1 0 -0.60 -0.25 -0.85 -0.65 -0.70 -0.35 0.10 -2 -0.35 -3.75 -1.05 -1.70 -0.70 -3.60 -1.25 -4.20 -1.25 l-1.15 -0.05 1.15 -0.90 c2 -1.75 1.15 -2.05 -1.15 -0.45 -1.25 0.90 -2.25 1.75 -2.25 2 0 0.20 0.95 0.40 2.15 0.40 2.30 0 6.35 1.60 6.35 2.55 0 0.45 1.95 2.90 2.40 2.95 0.05 0 0 -0.55 -0.20 -1.25z m-7.70 -0.50 c-0.35 -0.40 -0.85 -0.75 -1.10 -0.75 -0.30 0 -0.25 0.35 0.10 0.75 0.35 0.40 0.85 0.75 1.10 0.75 0.30 0 0.25 -0.35 -0.10 -0.75z m4 -1.25 c0 -0.50 -5.15 -1.20 -6.10 -0.85 -0.35 0.15 -0.10 0.30 0.60 0.35 0.70 0 1.65 0.35 2.15 0.70 0.85 0.65 3.35 0.50 3.35 -0.20z m9.20 -0.80 c0.70 -0.65 1.10 -2.20 0.65 -2.20 -0.10 0 -0.65 0.70 -1.25 1.50 -1.20 1.55 -0.75 2.05 0.60 0.70z m-3.20 -1.80 c-0.55 -1.20 -1 -2.60 -1 -3.10 0 -0.85 -0.20 -0.80 -1.65 0.60 -2.05 2 -2.55 2 -3.35 0.10 -0.35 -0.80 -0.95 -1.75 -1.40 -2.10 -0.70 -0.60 -0.70 -0.55 -0.05 0.50 0.65 1.05 0.60 1.25 -0.30 1.95 -0.90 0.70 -0.90 0.75 -0.05 0.45 0.60 -0.20 1.25 0.05 1.85 0.75 l0.90 1.05 1.85 -1.05 c1.80 -1.10 1.85 -1.10 1.55 -0.05 -0.15 0.60 0 1 0.35 1 0.30 0 0.85 0.45 1.20 1 1.05 1.70 1.10 1.10 0.10 -1.10z m7.15 0.10 c-0.15 -0.55 -0.65 -1 -1.10 -1 -1.55 0 -1.60 0.65 -0.20 1.30 0.80 0.35 1.45 0.65 1.50 0.65 0 0.05 -0.05 -0.40 -0.20 -0.95z m0.35 -4.75 c0 -0.40 -0.35 -0.75 -0.75 -0.75 -1.30 0 -0.90 1 0.65 1.45 0.05 0.05 0.10 -0.30 0.10 -0.70z"/>
  <path d="M37.60 19 c-0.05 -1.25 -0.45 -3.60 -0.80 -5.25 -0.65 -2.60 -0.65 -2.85 0 -2.05 0.95 1.30 1.30 3.55 1.05 6.80 -0.15 2.65 -0.15 2.65 -0.25 0.50z"/>
  <path d="M3.50 15.60 c0 -1.90 1.10 -4.15 1.75 -3.50 0.35 0.30 -1.10 5.40 -1.55 5.40 -0.10 0 -0.20 -0.85 -0.20 -1.90z"/>
  <path d="M10 8.50 c0 -0.25 0.45 -0.50 1 -0.50 0.55 0 1 -0.35 1 -0.75 0 -0.50 0.50 -0.75 1.65 -0.75 l1.60 0.05 -2.25 1.20 c-2.50 1.35 -3 1.45 -3 0.75z"/>
  <path d="M20.50 1.45 c0 -1.40 0.10 -1.50 1.65 -1.35 1.35 0.15 1.65 0.35 1.75 1.60 0.10 0.85 0 1.30 -0.35 1.10 -0.25 -0.20 -0.35 -0.70 -0.20 -1.20 0.30 -0.70 0.20 -0.75 -0.45 -0.25 -0.40 0.35 -0.90 0.50 -1.05 0.30 -0.20 -0.15 -0.35 0.05 -0.35 0.50 0 0.50 -0.20 0.85 -0.50 0.85 -0.25 0 -0.50 -0.70 -0.50 -1.55z"/>
 </g>
 <g fill="#5d453a">
  <path d="M20.50 38 c0 -0.85 -0.30 -1.55 -0.60 -1.55 -0.35 -0.05 0 -0.20 0.80 -0.40 1.60 -0.30 1.80 -1.40 0.25 -1.15 -1.50 0.25 -2.95 -0.80 -2.95 -2.15 0 -1 -0.25 -1.25 -1.25 -1.25 -1.10 0 -1.25 -0.20 -1.25 -1.70 l0 -1.65 4.75 0 4.75 0 0 1.50 c0 0.85 -0.35 1.95 -0.85 2.45 -0.75 0.85 -0.75 0.90 0 0.90 0.50 0 0.85 0.35 0.85 0.75 0 0.40 -0.20 0.75 -0.50 0.75 -0.25 0 -0.50 0.40 -0.50 0.90 0 1.05 -1.45 2.60 -2.40 2.60 -0.95 0 -0.70 0.90 0.30 1.15 0.65 0.20 0.55 0.25 -0.25 0.30 -0.95 0.05 -1.15 -0.20 -1.15 -1.45z m2.20 -7.30 c0.45 -1.15 0.05 -1.40 -1.10 -0.65 -0.80 0.50 -1.30 0.50 -2.40 0.05 -1.55 -0.75 -2.10 -0.45 -1.20 0.65 0.85 1.05 4.30 1 4.70 -0.05z"/>
  <path d="M13.50 37.25 c0 -1.65 0.10 -1.75 1.75 -1.75 1.65 0 1.75 0.10 1.75 1.75 0 1.65 -0.10 1.75 -1.75 1.75 -1.65 0 -1.75 -0.10 -1.75 -1.75z"/>
  <path d="M6.50 35.75 c0 -1.65 0.10 -1.75 1.75 -1.75 1.65 0 1.75 0.10 1.75 1.75 0 1.65 -0.10 1.75 -1.75 1.75 -1.65 0 -1.75 -0.10 -1.75 -1.75z"/>
  <path d="M27.50 32.55 c0 -1.40 0.15 -1.55 1.50 -1.55 1.35 0 1.50 -0.15 1.50 -1.50 0 -1.25 0.20 -1.50 1.25 -1.50 0.70 0 1.25 0.20 1.25 0.45 0 0.70 -2.40 3.40 -4.05 4.60 l-1.45 1 0 -1.50z"/>
  <path d="M7.10 24.15 c-0.90 -4.20 -1.15 -6.65 -0.60 -6.65 0.25 0 0.50 0.20 0.50 0.50 0 0.25 0.70 0.80 1.50 1.25 1.65 0.85 2 0.30 0.65 -1.05 -0.85 -0.85 -0.85 -0.90 0 -0.55 0.50 0.20 1.15 0.35 1.40 0.35 0.25 0 0.45 0.45 0.45 1 0 0.70 0.35 1 1.15 1 1.05 -0.05 1.05 -0.05 0.15 -0.75 -1.10 -0.85 -1.05 -1 0.80 -1.45 1.05 -0.25 1.55 0 2.55 1.20 1.55 1.85 2.55 1.90 3.65 0.25 0.50 -0.75 1.30 -1.25 2 -1.25 1.15 0 1.30 0.20 1.40 2 0.10 1.20 1.80 1.20 3.05 0 0.60 -0.60 1.45 -1 1.80 -0.95 0.40 0.05 1.10 -0.05 1.60 -0.30 1.45 -0.60 1.60 0.15 0.35 1.50 -1.15 1.25 -1.15 1.25 -0.10 1.25 0.70 0 1 -0.25 0.80 -0.70 -0.15 -0.40 0.20 -0.80 0.85 -0.95 1.50 -0.40 1.70 -0.15 0.70 0.85 -0.95 0.95 -0.80 1 0.95 0.30 0.95 -0.35 1.30 -0.30 1.30 0.15 0 0.30 0.50 0.05 1.05 -0.65 0.60 -0.70 0.95 -0.90 0.80 -0.45 -0.15 0.50 -0.55 1.75 -0.90 2.90 -0.60 2.05 -1.60 2.70 -2.15 1.30 -0.15 -0.45 -0.90 -0.75 -1.80 -0.75 -0.80 0 -1.50 -0.20 -1.50 -0.50 0 -0.25 -0.45 -0.50 -1 -0.50 -0.55 0 -1 0.25 -1 0.50 0 0.30 -1.05 0.50 -2.30 0.50 -1.90 0 -2.35 -0.20 -2.55 -1.05 -0.25 -0.85 -0.55 -1 -1.60 -0.70 -2.60 0.70 -6.05 0.85 -6.05 0.30 0 -0.35 -1.05 -0.55 -2.70 -0.55 -2.95 0 -3.30 0.35 -3.30 3.30 0 2.65 -1.30 2.20 -1.90 -0.65z"/>
  <path d="M32.10 18.15 c-0.90 -0.10 -1.50 -0.45 -1.35 -0.70 0.45 -0.65 1.85 -0.50 2.95 0.30 0.55 0.40 0.80 0.70 0.50 0.65 -0.25 0 -1.20 -0.15 -2.10 -0.25z"/>
  <path d="M10.25 16.50 c-0.55 -0.25 -1.85 -0.45 -2.85 -0.45 -1.05 -0.05 -1.90 -0.20 -1.90 -0.40 0 -0.75 5.75 -0.35 7.25 0.50 l1.50 0.80 -1.50 0 c-0.80 0 -1.95 -0.20 -2.50 -0.45z"/>
  <path d="M20.60 16.40 c-0.85 -0.85 -0.75 -1.90 0.15 -1.90 0.45 0 0.75 -0.45 0.75 -1.25 0 -0.70 0.25 -1.25 0.50 -1.25 0.30 0 0.50 -1 0.50 -2.25 0 -2.45 0.30 -2.75 1.30 -1.40 0.60 0.85 0.70 0.85 1.60 -0.25 0.60 -0.65 1.30 -1 1.75 -0.80 0.80 0.30 1.65 2.85 1.15 3.60 -0.15 0.25 -0.05 1.15 0.15 2 0.40 1.25 0.25 1.70 -0.65 2.55 -1.25 1.15 -2.55 1.35 -3.10 0.50 -0.25 -0.45 0.05 -0.50 0.95 -0.25 1.25 0.30 1.30 0.25 1 -1.30 -0.35 -1.90 -0.65 -2.45 -0.65 -1.25 0 0.50 -0.40 0.85 -1 0.85 -0.90 0 -0.95 -0.15 -0.50 -1 0.30 -0.55 0.35 -1 0.05 -1 -0.25 0 -0.70 0.60 -0.95 1.40 -0.30 0.75 -0.95 1.85 -1.45 2.50 -0.75 0.90 -1.05 1 -1.55 0.50z"/>
  <path d="M4 15.10 c0 -0.90 0.25 -1.60 0.50 -1.60 0.30 0 0.50 -0.45 0.50 -0.95 0 -0.55 0.20 -1.10 0.50 -1.30 0.40 -0.25 -0.80 4.70 -1.30 5.20 -0.10 0.10 -0.20 -0.50 -0.20 -1.35z"/>
  <path d="M16.10 15.80 l-1.20 -0.65 1.30 -0.80 c1.55 -1.05 2.10 -1.10 1.35 -0.15 -0.30 0.35 -0.45 1.05 -0.25 1.50 0.35 0.95 0.30 0.95 -1.20 0.10z"/>
  <path d="M12.30 14.25 c-0.80 -0.60 -0.85 -0.75 -0.20 -0.75 0.40 0 1.05 0.35 1.40 0.75 0.80 0.95 0.05 0.95 -1.20 0z"/>
  <path d="M13.70 12.80 c-0.15 -0.70 -0.70 -1.60 -1.25 -2.10 -1.35 -1.20 -1.20 -1.45 1.20 -2.20 1.15 -0.40 2.30 -1 2.50 -1.35 0.50 -0.80 1.35 -0.85 1.35 -0.10 0 0.85 1.40 2 1.75 1.45 0.15 -0.25 0.85 -0.50 1.55 -0.50 1 0 1.20 0.25 1.20 1.55 0 1.70 -0.70 2.65 -2.40 3.15 -1.25 0.40 -1.40 -0.20 -0.55 -1.80 0.50 -0.90 0.30 -0.85 -1.20 0.30 -0.95 0.75 -1.90 1.70 -2.05 2.10 -0.45 1.15 -1.75 0.80 -2.10 -0.50z m2.30 -2.05 c0 -0.40 -0.35 -0.75 -0.75 -0.75 -1.30 0 -0.90 1 0.65 1.45 0.05 0.05 0.10 -0.30 0.10 -0.70z"/>
  <path d="M8.30 11.75 c2.15 -1.95 2.80 -2.10 3.70 -1 0.50 0.65 0.50 0.95 -0.25 1.75 -1.15 1.30 -1.95 1.30 -1.15 0 0.35 -0.50 0.45 -1.15 0.25 -1.35 -0.25 -0.20 -0.60 -0.10 -0.80 0.25 -0.35 0.60 -2.80 2.10 -3.45 2.10 -0.15 0 0.60 -0.80 1.70 -1.75z"/>
  <path d="M32.50 12.25 c-0.45 -0.55 -0.80 -0.65 -1.20 -0.25 -0.60 0.60 -2.30 0.70 -2.30 0.15 0 -0.25 0.60 -0.80 1.25 -1.30 1.25 -0.90 1.30 -0.90 2.90 0.60 1.10 1.10 1.35 1.55 0.80 1.55 -0.45 0 -1.10 -0.35 -1.45 -0.75z"/>
  <path d="M10 8.25 c0 -0.50 0.50 -0.75 1.65 -0.75 l1.60 0.05 -1.25 0.70 c-1.60 0.90 -2 0.90 -2 0z"/>
  <path d="M20.85 6 c0.35 -1.25 1.80 -1.15 2.05 0.15 0.15 0.60 -0.15 0.85 -1.05 0.85 -1 0 -1.20 -0.20 -1 -1z"/>
  <path d="M19.85 2.65 c-0.20 -0.15 -0.35 -0.85 -0.35 -1.50 0 -1 0.25 -1.15 2 -1.15 2.10 0 2.75 0.90 1 1.35 -0.55 0.15 -1 0.60 -1 0.95 0 0.70 -1.10 0.95 -1.65 0.35z"/>
 </g>
 <g fill="#344077">
  <path d="M20.50 38.75 c0 -0.85 0.25 -1.25 0.90 -1.20 0.50 0 0.60 0.15 0.25 0.30 -0.90 0.35 -0.80 1.15 0.10 1.15 0.40 0 0.75 0.25 0.75 0.50 0 0.30 -0.45 0.50 -1 0.50 -0.75 0 -1 -0.35 -1 -1.25z"/>
  <path d="M23.35 39.50 c1 -0.95 5.75 -2.05 7.55 -1.80 1.70 0.30 1.95 0.20 2.95 -1.30 2.85 -4.25 3.40 -6.65 3.35 -14.65 0 -6.85 -0.10 -7.85 -1.35 -11.60 -1.35 -4.10 -4.05 -8.65 -5.25 -9.05 -0.55 -0.15 -0.50 0.10 0.10 1.30 1.05 2 2.30 5.65 2.30 6.70 0 0.85 -0.05 0.85 -1.40 0 -0.75 -0.45 -2.25 -1.50 -3.30 -2.35 -4.40 -3.40 -5.25 -4.30 -4.95 -5.10 0.20 -0.55 0.15 -0.70 -0.30 -0.45 -0.30 0.20 -0.90 0.15 -1.25 -0.15 -0.50 -0.45 -0.60 -0.30 -0.45 0.60 0.15 0.85 -0.10 1.30 -0.95 1.75 -0.65 0.35 -2.05 1.15 -3.15 1.85 -6.10 3.65 -8.35 4.45 -6.85 2.35 0.35 -0.45 0.80 -1.30 1.05 -1.85 0.30 -0.55 1.20 -1.80 2.05 -2.75 2.55 -2.80 0.70 -2.40 -2.25 0.50 -4.50 4.45 -6.95 10.30 -7.55 17.90 -0.30 3.60 -0.25 4.10 0.50 4.10 0.45 0 0.80 0.35 0.80 0.75 0 0.50 -0.55 0.75 -1.75 0.75 -0.95 0 -1.75 -0.20 -1.75 -0.50 0 -0.25 -0.35 -0.50 -0.75 -0.50 -0.70 0 -0.75 -1.60 -0.70 -13 l0.05 -13 4.70 0 c3.95 0 4.70 0.15 4.70 0.80 0 0.70 0.05 0.70 0.80 0 1.10 -1.10 7.20 -1.15 7.20 -0.05 0 0.40 0.35 0.75 0.75 0.75 0.40 0 0.75 -0.35 0.75 -0.75 0 -0.65 0.60 -0.75 3.15 -0.70 1.70 0.05 3.25 0.35 3.45 0.65 0.25 0.40 0.40 0.35 0.40 -0.05 0 -0.50 1.60 -0.65 6.30 -0.65 5.45 0 6.45 0.10 7 0.90 0.85 1.05 1 26.60 0.20 26.60 -0.25 0 -0.50 0.55 -0.50 1.25 0 2.25 -2 6.65 -3.65 8.05 l-1.60 1.35 3.15 -0.25 c2.80 -0.30 3.10 -0.20 3.10 0.65 0 1.10 0.50 1.05 -9.40 1.20 -4.25 0.10 -7.50 -0.05 -7.25 -0.25z m-21.15 -17.85 c0.15 -1.35 0.10 -3.05 -0.15 -3.90 l-0.45 -1.50 -0.05 1.55 c-0.05 0.85 -0.20 2.60 -0.35 3.90 -0.20 1.40 -0.15 2.30 0.15 2.30 0.30 0 0.65 -1.05 0.85 -2.35z m2.05 -17.15 c0.45 -0.80 0.55 -1.50 0.30 -1.50 -0.55 0 -1.55 1.60 -1.55 2.45 0 0.95 0.45 0.60 1.25 -0.95z"/>
  <path d="M0.50 37.75 c0 -0.95 0.20 -1.15 0.90 -0.95 0.70 0.25 0.70 0.15 -0.10 -0.50 -0.95 -0.75 -0.90 -0.80 0.85 -0.80 1.80 0 1.85 0.05 1.85 1.75 0 1.65 -0.10 1.75 -1.75 1.75 -1.55 0 -1.75 -0.15 -1.75 -1.25z"/>
  <path d="M0 29.45 c0 -1.80 0.10 -2 1.15 -1.85 0.90 0.10 1.15 0.50 1.25 2.05 0.15 1.70 0.05 1.85 -1.10 1.85 -1.20 0 -1.30 -0.20 -1.30 -2.05z"/>
  <path d="M31 10.75 c0 -0.40 0.20 -0.75 0.45 -0.75 0.25 0 0.55 0.35 0.75 0.75 0.15 0.45 0 0.75 -0.45 0.75 -0.40 0 -0.75 -0.35 -0.75 -0.75z"/>
  <path d="M11.50 9.75 c0 -0.30 2.85 -1.75 3.50 -1.75 0.95 0 0.50 0.85 -0.75 1.40 -1.30 0.60 -2.75 0.80 -2.75 0.35z"/>
  <path d="M27.50 8.30 c0 -0.40 -0.40 -0.85 -0.85 -0.95 -0.70 -0.20 -0.60 -0.25 0.25 -0.30 0.80 -0.05 1.10 0.25 1.10 0.95 0 0.55 -0.10 1 -0.25 1 -0.15 0 -0.25 -0.30 -0.25 -0.70z"/>
  <path d="M16.20 7.50 c0.05 -0.40 0.50 -0.80 1.05 -0.85 0.75 -0.05 0.75 0 0.15 0.15 -0.45 0.15 -0.95 0.55 -1.05 0.85 -0.10 0.35 -0.15 0.25 -0.15 -0.15z"/>
 </g>
 <g fill="#421aad">
  <path d="M18 38.50 c0 -0.80 -0.20 -1.50 -0.50 -1.50 -0.25 0 -0.50 -0.80 -0.50 -1.75 0 -1.65 0.10 -1.75 1.75 -1.75 1.20 0 1.75 0.25 1.75 0.75 0 0.40 -0.35 0.75 -0.75 0.75 -1.45 0 -0.70 0.95 1 1.30 1.95 0.35 2.20 0.85 0.90 1.70 -0.65 0.40 -0.70 0.65 -0.25 0.80 1.25 0.55 0.55 1.20 -1.40 1.20 -1.90 0 -2 -0.10 -2 -1.50z"/>
  <path d="M0.15 37.75 c-0.40 -1.15 0.10 -1.40 1.45 -0.70 1.05 0.55 1.10 0.55 0.45 -0.20 -0.35 -0.50 -1 -0.85 -1.35 -0.85 -0.40 0 -0.70 -0.35 -0.70 -0.80 0 -0.60 0.45 -0.70 1.90 -0.60 1.75 0.15 1.85 0.25 2 2.05 0.15 1.80 0.15 1.85 -1.65 1.85 -1.15 0 -1.90 -0.25 -2.10 -0.75z"/>
  <path d="M13 36 c0 -1.95 0.05 -2 1.75 -2 1.70 0 1.75 0.05 1.75 2 0 1.95 -0.05 2 -1.75 2 -1.70 0 -1.75 -0.05 -1.75 -2z"/>
  <path d="M6.35 30.90 c-1.30 -1.45 -2.35 -2.80 -2.35 -3 0 -0.20 -0.35 -0.40 -0.75 -0.40 -0.55 0 -0.75 -0.50 -0.70 -1.85 0.05 -1.05 0.15 -1.50 0.30 -1.05 0.10 0.50 0.55 0.90 0.95 0.90 0.45 0 1.55 0.60 2.50 1.35 l1.75 1.30 -0.30 -1.30 c-0.55 -2.05 0.50 -1.65 2.50 0.95 1.20 1.60 1.75 2.85 1.75 4 0 1.60 -0.10 1.70 -1.65 1.70 -1.35 0 -2.05 -0.45 -4 -2.60z"/>
 </g>
 <g fill="#845436">
  <path d="M4 38.25 c0 -1.50 0.15 -1.75 1.20 -1.75 0.90 0 1.25 -0.35 1.50 -1.50 0.25 -1.35 0.50 -1.50 2.05 -1.50 1.75 0 1.75 0 1.75 2.25 0 1.90 -0.15 2.25 -1 2.25 -0.65 0 -1 0.35 -1 1 0 0.85 -0.35 1 -2.25 1 -2.25 0 -2.25 0 -2.25 -1.75z"/>
  <path d="M14.35 39.65 c-0.20 -0.15 -0.35 -1.10 -0.35 -2.10 0.05 -1.60 0.10 -1.70 0.70 -0.90 0.80 1.05 1.35 1.10 0.95 0.05 -0.25 -0.60 0 -0.75 1.15 -0.60 1.30 0.15 1.45 0.35 1.60 2.05 0.15 1.85 0.15 1.85 -1.80 1.85 -1.05 0 -2.10 -0.15 -2.25 -0.35z"/>
  <path d="M20 37.25 c0 -1 0.25 -1.25 1.30 -1.25 1.95 0 1.20 -1.20 -0.85 -1.35 -2.50 -0.20 -2.95 -0.50 -2.95 -1.90 0 -0.70 -0.35 -1.40 -0.75 -1.55 -0.45 -0.20 -0.75 -0.95 -0.75 -2 0 -1.60 0.10 -1.70 1.65 -1.70 1.95 0 2.65 0.45 3 1.75 0.20 0.75 0.25 0.70 0.30 -0.35 0.05 -1.25 0.25 -1.40 1.75 -1.40 1.30 0 1.80 0.25 2.05 1 0.15 0.55 0.65 1 1.05 1 0.40 0 1.05 0.75 1.45 1.65 0.60 1.35 0.70 1.40 0.75 0.50 0 -0.70 0.30 -1.15 0.75 -1.15 0.40 0 0.75 -0.35 0.75 -0.75 0 -0.45 0.35 -0.90 0.75 -1.05 0.40 -0.20 0.75 -0.60 0.75 -0.95 0 -0.35 0.25 -0.75 0.50 -0.85 0.30 -0.10 0.65 -1.35 0.85 -2.80 0.30 -2.50 0.75 -3.20 1.40 -2.05 0.25 0.30 0.60 0.20 1 -0.40 1.10 -1.50 -0.90 5.45 -2.20 7.50 -1.50 2.45 -8.10 7.65 -11.25 8.85 -1.20 0.45 -1.30 0.35 -1.30 -0.75z m2.70 -6.05 l0.85 -1.85 -1.15 0.40 c-1.55 0.45 -2.35 0.45 -4.15 0 l-1.50 -0.40 1.75 1.80 c0.95 1 2.10 1.85 2.55 1.85 0.40 0 1.15 -0.80 1.65 -1.80z m2.80 1.35 c0 -0.85 -0.75 -0.95 -1.75 -0.25 -0.90 0.65 -0.90 0.70 0.40 0.70 0.75 0 1.35 -0.20 1.35 -0.45z"/>
  <path d="M11.90 34.15 c-0.45 -0.55 -0.95 -2.40 -1.15 -4.50 l-0.35 -3.65 1.80 0 c1.70 0 1.80 0.10 1.80 1.65 0 0.85 0.45 2.15 1 2.85 0.55 0.70 1 2 1 2.90 0 1.50 -0.10 1.60 -1.65 1.60 -1 0 -2 -0.35 -2.45 -0.85z"/>
  <path d="M1.25 30.15 c-0.70 -0.75 -1.25 -1.90 -1.25 -2.50 0 -0.95 0.25 -1.15 1.70 -1.15 0.95 0 1.80 0.25 1.90 0.50 0.10 0.30 0.80 0.60 1.55 0.70 1.35 0.15 2.55 0.80 1.45 0.80 -0.35 0 -0.60 0.70 -0.60 1.50 0 1.40 -0.15 1.50 -1.75 1.50 -1.20 0 -2.05 -0.40 -3 -1.35z"/>
  <path d="M7.80 27.15 c-0.75 -4 -0.75 -5.45 -0.05 -6.35 0.65 -0.85 0.75 -0.85 1.50 -0.10 0.70 0.70 0.80 1.40 0.50 4.30 -0.25 2.40 -0.55 3.50 -1 3.50 -0.35 0 -0.80 -0.60 -0.95 -1.35z"/>
  <path d="M23.50 22.40 c0 -1.25 0.15 -1.45 0.60 -1 0.85 0.85 1.90 0.75 1.90 -0.15 0 -0.40 0.25 -0.75 0.50 -0.75 0.30 0 0.50 0.80 0.50 1.75 0 1.65 -0.10 1.75 -1.75 1.75 -1.65 0 -1.75 -0.10 -1.75 -1.60z"/>
  <path d="M14 21.30 c0 -1.30 1.20 -2.55 2 -2.05 0.25 0.15 0.50 0.65 0.50 1.05 0 0.40 0.25 0.70 0.50 0.70 0.30 0 0.50 0.35 0.50 0.75 0 0.50 -0.55 0.75 -1.75 0.75 -1.50 0 -1.75 -0.15 -1.75 -1.20z"/>
  <path d="M10 16 c-1.05 -0.35 -1.05 -0.40 -0.25 -0.45 0.55 0 1.35 0.20 1.75 0.45 0.90 0.55 0.25 0.55 -1.50 0z"/>
  <path d="M20 15.55 c-0.25 -0.55 -0.50 -1.35 -0.50 -1.75 0 -0.45 -0.20 -0.80 -0.50 -0.80 -0.85 0 -0.55 -1.25 0.50 -2.40 1.85 -2 0.20 -1.15 -2.30 1.15 -1.30 1.25 -2.55 2.25 -2.75 2.25 -0.20 0 -0.50 -0.55 -0.65 -1.25 -0.20 -0.70 -0.75 -1.70 -1.30 -2.25 -1 -1 -0.95 -1 0.55 -1.80 0.85 -0.40 1.85 -0.65 2.20 -0.50 0.35 0.10 0.80 -0.25 0.95 -0.85 0.25 -0.85 0.40 -0.95 0.75 -0.45 0.20 0.40 0.60 0.65 0.85 0.60 0.20 -0.05 0.55 0.30 0.70 0.75 0.25 0.70 0.45 0.65 1.30 -0.35 0.55 -0.65 1.15 -1.60 1.35 -2.10 0.55 -1.35 1.45 -0.70 2.25 1.60 0.80 2.45 1.15 2.60 2.10 0.85 1.05 -1.95 2.25 -1.60 2.80 0.85 0.50 2.35 1.20 2.80 2.35 1.65 0.70 -0.70 1 -0.60 2.95 1.20 2.55 2.40 2.30 3.30 -0.30 1.05 -1.45 -1.30 -1.85 -1.45 -2.05 -0.80 -0.15 0.45 -0.35 1.15 -0.50 1.55 -0.10 0.40 -0.65 0.75 -1.20 0.75 -0.55 0 -1.15 0.25 -1.30 0.50 -0.60 0.95 -1.05 0.50 -1.55 -1.35 -0.60 -2.55 -2.20 -2.85 -3.15 -0.55 -0.75 1.80 -2 3.40 -2.60 3.40 -0.25 0 -0.65 -0.45 -0.95 -0.95z m-4 -4.55 c0 -0.55 -0.20 -1 -0.50 -1 -0.25 0 -0.50 0.45 -0.50 1 0 0.55 0.25 1 0.50 1 0.30 0 0.50 -0.45 0.50 -1z"/>
  <path d="M24.50 13 c0.60 -1.10 1.50 -0.90 1.50 0.30 0 0.40 -0.45 0.70 -1 0.70 -0.90 0 -0.95 -0.15 -0.50 -1z"/>
  <path d="M8.10 12.05 c1 -1.60 2.25 -2.15 3.40 -1.45 1.05 0.65 1.10 1.45 0.10 1.80 -0.35 0.10 -0.60 -0.15 -0.60 -0.60 0 -0.45 -0.20 -0.80 -0.50 -0.80 -0.25 0 -0.50 0.20 -0.50 0.40 0 0.25 -0.55 0.70 -1.25 1 -1.15 0.55 -1.20 0.50 -0.65 -0.35z"/>
  <path d="M23.50 2.05 c0 -0.85 0.60 -2.05 1.05 -2.05 0.25 0 0.45 0.55 0.45 1.25 0 0.80 -0.30 1.25 -0.75 1.25 -0.40 0 -0.75 -0.20 -0.75 -0.45z"/>
  <path d="M19.50 1.10 c0 -0.75 0.40 -0.95 2 -1 1.10 -0.05 2 0.10 2 0.35 0 0.90 -1.05 1.15 -1.85 0.45 -0.75 -0.55 -0.80 -0.55 -0.50 0.25 0.25 0.60 0.05 0.85 -0.65 0.85 -0.65 0 -1 -0.35 -1 -0.90z"/>
 </g>
 <g fill="#a16013">
  <path d="M2.45 38.15 c-0.65 -0.70 -0.90 -1.15 -0.50 -0.90 0.45 0.25 0.60 0.15 0.45 -0.30 -0.15 -0.40 -0.70 -0.75 -1.30 -0.85 -0.90 -0.15 -1.10 -0.50 -1.10 -2.15 0 -2.60 1.10 -2.60 4.60 0.15 1.45 1.10 2.15 1.50 1.55 0.80 -0.65 -0.65 -1.15 -1.80 -1.15 -2.55 0 -1.15 -0.20 -1.35 -1.45 -1.35 -1.90 0 -3.05 -1.15 -3.05 -3.05 0 -1.30 0.15 -1.45 1.65 -1.45 1.95 0.05 3.35 1 3.35 2.40 0 0.80 0.35 1.05 1.60 1.20 2.10 0.20 3.90 2.75 3.90 5.45 0 1.90 -0.05 1.95 -1.70 1.95 -0.95 0 -1.85 -0.30 -1.95 -0.60 -0.15 -0.35 -0.30 0 -0.30 0.80 -0.05 1.25 -0.15 1.35 -0.90 0.75 -0.75 -0.60 -0.80 -0.60 -0.50 0.20 0.50 1.40 -1.80 1.05 -3.20 -0.50z"/>
  <path d="M12.55 34.95 c-0.30 -0.90 -0.55 -2.25 -0.55 -3 0 -1.30 0.15 -1.45 1.75 -1.45 0.95 0 1.75 0.25 1.75 0.55 0 0.30 0.35 0.85 0.75 1.25 0.95 0.95 1 4.20 0.10 4.20 -0.35 0 -0.90 -0.25 -1.25 -0.60 -0.45 -0.45 -0.60 -0.45 -0.60 0 0 1.25 -1.40 0.55 -1.95 -0.95z m1.15 -2.70 c-0.45 -0.70 -0.95 -1.15 -1.10 -1 -0.25 0.20 1.30 2.25 1.75 2.25 0.10 0 -0.20 -0.55 -0.65 -1.25z"/>
  <path d="M10.50 28.25 c0 -1.65 0.10 -1.75 1.75 -1.75 1.65 0 1.75 0.10 1.75 1.75 0 1.65 -0.10 1.75 -1.75 1.75 -1.65 0 -1.75 -0.10 -1.75 -1.75z"/>
  <path d="M32.80 12.40 c-0.75 -1.15 -0.80 -1.15 -1.55 -0.20 -0.75 1 -0.75 0.95 -0.75 -0.05 0 -1.95 1.15 -2.05 3 -0.30 1.20 1.15 1.50 1.65 0.95 1.65 -0.45 0 -1.20 -0.50 -1.65 -1.10z"/>
  <path d="M11 11.80 c0 -0.95 -0.80 -1.05 -1.15 -0.15 -0.10 0.30 -0.40 0.45 -0.65 0.20 -0.20 -0.20 0 -0.75 0.50 -1.25 0.70 -0.60 1 -0.70 1.15 -0.20 0.15 0.30 0.55 0.60 1 0.60 0.85 0 0.65 1.10 -0.25 1.40 -0.35 0.10 -0.60 -0.15 -0.60 -0.60z"/>
  <path d="M11.50 9.80 c0 -0.15 0.70 -0.55 1.55 -1 1.65 -0.80 2.95 -0.60 2.95 0.50 0 0.50 -0.65 0.70 -2.25 0.70 -1.25 0 -2.25 -0.10 -2.25 -0.20z"/>
  <path d="M26.10 8.15 c0.25 -1.30 1.90 -1.45 1.90 -0.20 0 0.75 -0.30 1.05 -1.05 1.05 -0.70 0 -0.95 -0.25 -0.85 -0.85z"/>
 </g>
 <g fill="#46569a">
  <path d="M23.50 39.65 c0 -0.25 1.30 -0.75 2.90 -1.20 2.15 -0.65 3.70 -0.75 6.35 -0.45 1.90 0.20 3.70 0.30 4 0.25 2.80 -0.85 3.25 -0.80 3.25 0.50 l0 1.25 -8.25 0 c-4.55 0 -8.25 -0.15 -8.25 -0.35z"/>
  <path d="M0.65 38.65 c-0.65 -0.25 -0.95 -2.15 -0.35 -2.15 0.15 0 0.75 0.25 1.30 0.55 0.80 0.45 0.95 0.40 0.80 -0.15 -0.15 -0.35 -0.70 -0.70 -1.30 -0.80 -1.35 -0.20 -1.45 -1.10 -0.15 -1.10 1.30 0 3.55 1.90 3.55 3.05 0 0.75 -0.35 0.95 -1.60 0.90 -0.90 0 -1.95 -0.15 -2.25 -0.30z"/>
  <path d="M34.70 35.35 c2.05 -3.55 2.85 -7.30 2.85 -13.45 0 -8.30 -2.30 -16.30 -5.80 -20 -0.70 -0.75 -1.25 -1.50 -1.25 -1.65 0 -0.15 0.80 -0.25 1.75 -0.25 1.35 0 1.75 0.20 1.75 0.90 0 0.50 0.55 1.25 1.25 1.60 0.70 0.35 1.25 0.80 1.25 0.95 0.05 0.15 0.60 1 1.25 1.80 l1.25 1.50 0 -1.50 c0 -1 -0.50 -2.10 -1.50 -3.15 -0.80 -0.90 -1.50 -1.75 -1.50 -1.90 0 -0.10 0.90 -0.20 2 -0.20 l2 0 0 6.45 c0 3.80 -0.20 6.60 -0.50 6.80 -0.30 0.20 -0.50 -0.45 -0.50 -1.60 0 -1.05 -0.40 -2.35 -0.80 -2.90 -0.75 -0.95 -0.75 -0.95 -0.45 0.50 0.20 0.85 0.60 2.40 0.85 3.50 0.30 1.10 0.50 3.70 0.45 5.70 0 2.40 0.15 3.90 0.55 4.10 0.40 0.25 0.45 0.55 0.05 1.05 -0.30 0.35 -0.65 2.30 -0.85 4.30 -0.30 3.45 -1.70 7.55 -2.95 8.50 -0.35 0.25 -1 0.60 -1.50 0.75 -0.75 0.30 -0.70 0.05 0.35 -1.80z"/>
  <path d="M0 30.75 c0 -0.40 0.25 -0.75 0.60 -0.75 0.45 0 0.45 -0.15 0 -0.60 -0.95 -0.95 -0.70 -1.35 0.80 -1.25 1.20 0.10 1.45 0.35 1.50 1.75 0.10 1.50 0 1.60 -1.40 1.60 -1 0 -1.50 -0.25 -1.50 -0.75z"/>
  <path d="M0.50 24.75 c0 -0.40 0.30 -0.60 0.65 -0.45 0.50 0.15 1 -1.50 1.95 -6.40 0.70 -3.65 1.20 -6.75 1.10 -6.85 -0.30 -0.30 -3.20 6.10 -3.20 7.10 0 0.45 -0.20 0.85 -0.50 0.85 -0.65 0 -0.65 -4.85 0 -5.25 0.30 -0.20 1.45 -2.30 2.55 -4.65 1.10 -2.40 2.65 -5.20 3.45 -6.20 0.85 -1 1.50 -2.10 1.50 -2.35 0 -0.35 1.20 -0.55 3 -0.55 1.65 0 3 0.20 3 0.50 0 0.30 -0.20 0.50 -0.45 0.50 -0.70 0 -3.95 3.50 -5.55 6 -1.70 2.70 -4.50 10.30 -4.50 12.40 0 0.80 -0.15 2.50 -0.30 3.80 -0.30 2 -0.50 2.30 -1.50 2.30 -0.70 0 -1.20 -0.30 -1.20 -0.75z"/>
  <path d="M0 7 c0 -4.65 0.05 -5 1 -5 0.55 0 1 -0.20 1 -0.50 0 -0.25 -0.45 -0.50 -1 -0.50 -0.55 0 -1 -0.20 -1 -0.50 0 -0.25 1.15 -0.50 2.50 -0.50 2.35 0 3.15 0.55 1.95 1.30 -1 0.60 -3.45 6.65 -3.55 8.70 -0.05 1.10 -0.25 2 -0.50 2 -0.20 0 -0.40 -2.25 -0.40 -5z"/>
  <path d="M26.75 7.95 c-0.20 -0.30 -0.25 -0.65 -0.10 -0.80 0.35 -0.35 1.35 0.30 1.35 0.90 0 0.60 -0.85 0.60 -1.25 -0.10z"/>
  <path d="M16.10 7.40 c0.15 -0.35 0.65 -0.75 1.20 -0.85 0.80 -0.15 0.85 -0.05 0.25 0.65 -0.80 0.95 -1.70 1.05 -1.45 0.20z"/>
  <path d="M13.70 4.35 c1.30 -1.75 2.30 -3.50 2.30 -3.80 0 -0.30 0.95 -0.55 2.25 -0.55 1.75 0 2.35 0.20 2.80 1.05 0.65 1.25 0.20 1.80 -2.55 3.30 -0.95 0.50 -2.30 1.30 -3 1.75 -0.70 0.45 -1.90 1 -2.65 1.20 -1.40 0.30 -1.40 0.30 0.85 -2.95z"/>
  <path d="M27.25 5.70 c-1.05 -0.85 -1.20 -1.15 -0.50 -0.90 0.55 0.15 0.10 -0.30 -1 -1.05 -1.10 -0.80 -2.10 -1.45 -2.15 -1.55 -0.10 -0.05 -0.05 -0.60 0.15 -1.15 0.25 -0.90 0.75 -1.05 2.80 -1.05 l2.45 0 0 1.80 c0 1.05 -0.20 1.65 -0.50 1.45 -0.25 -0.15 -0.50 -0.65 -0.50 -1.10 0 -0.45 -0.15 -0.70 -0.30 -0.50 -0.55 0.50 0.30 2.25 1.25 2.50 0.50 0.10 1 0.70 1.20 1.30 0.15 0.65 0.05 0.95 -0.25 0.75 -0.30 -0.20 -0.65 -0.10 -0.85 0.20 -0.20 0.30 -0.90 0.05 -1.80 -0.70z"/>
 </g>
 <g fill="#644095">
  <path d="M20 39.50 c0 -0.25 0.45 -0.50 1 -0.50 0.55 0 1 0.25 1 0.50 0 0.30 -0.45 0.50 -1 0.50 -0.55 0 -1 -0.20 -1 -0.50z"/>
  <path d="M13 37.50 c0 -0.55 -0.25 -1 -0.60 -1 -0.85 0 -3.40 -2.55 -3.40 -3.40 0 -0.85 -1.40 -2.05 -2.35 -2.10 -0.35 0 -0.65 0.55 -0.65 1.25 0 1.35 -0.60 1.50 -4.10 0.95 -1.70 -0.30 -1.90 -0.50 -1.90 -1.75 0 -1.05 0.25 -1.45 0.90 -1.45 0.80 -0.05 0.80 -0.05 -0.05 -0.55 -0.60 -0.35 -0.85 -1.15 -0.85 -3 0 -2.25 0.10 -2.50 0.95 -2.20 0.65 0.20 1.15 0 1.50 -0.60 0.45 -0.80 0.50 -0.70 0.55 0.50 0 0.75 0.25 1.35 0.50 1.35 0.95 0 1.25 0.10 1.85 0.60 0.35 0.30 0.60 0.65 0.50 0.85 -0.05 0.15 1 1.45 2.35 2.80 1.35 1.40 2.05 1.95 1.60 1.25 -1.35 -2.05 -2 -3.50 -1.65 -3.80 0.60 -0.60 3.10 1.10 3.25 2.20 0.10 0.60 0.40 1.10 0.65 1.10 0.25 0 0.45 0.20 0.45 0.45 0 0.90 2.25 4 2.90 4.05 0.85 0 0.75 -0.30 -0.65 -1.70 -0.70 -0.70 -1.25 -1.85 -1.25 -2.55 0 -1.10 0.20 -1.25 1.65 -1.25 1.95 0 2.85 0.75 2.85 2.35 0 0.90 0.30 1.15 1.25 1.15 1.65 0 1.75 1.85 0.15 2.15 l-1.15 0.20 1.15 0.40 c0.60 0.20 1.10 0.70 1.10 1.05 0 0.40 0.30 0.70 0.65 0.70 0.40 0 0.35 0.15 -0.15 0.50 -0.40 0.25 -0.85 0.25 -1 0 -0.15 -0.25 -1.15 -0.50 -2.20 -0.60 -1.25 -0.05 -2.05 -0.45 -2.40 -1.05 -0.25 -0.50 -0.60 -0.80 -0.75 -0.65 -0.15 0.15 0.10 0.85 0.55 1.55 0.80 1.25 0.80 1.25 -0.70 1.25 -1.15 0 -1.50 -0.20 -1.50 -1z m-9.50 -8.50 c-0.70 -0.55 -1.45 -1 -1.75 -1 -0.25 0 0.20 0.45 1 1 1.90 1.25 2.40 1.25 0.75 0z"/>
  <path d="M1.15 36.10 c-0.75 -0.10 -1.15 -0.50 -1.15 -1.15 0 -1.20 0.60 -1.20 1.75 0.05 1.05 1.15 0.95 1.35 -0.60 1.10z"/>
  <path d="M30.15 21.30 c0 -0.80 0.30 -1.30 1 -1.50 1.40 -0.35 1.55 -0.10 0.60 0.85 -1.10 1.10 -0.95 1.40 0.50 1.05 0.75 -0.20 1.25 -0.10 1.25 0.25 0 0.30 -0.75 0.55 -1.70 0.55 -1.45 0 -1.65 -0.15 -1.65 -1.20z"/>
 </g>
 <g fill="#7d6061">
  <path d="M2.60 38.85 c-1.35 -1.40 -1.40 -1.95 -0.20 -1.50 0.75 0.30 0.75 0.25 0.20 -0.50 -0.40 -0.45 -1.10 -0.95 -1.60 -1.10 -0.65 -0.20 -0.90 -0.75 -0.90 -1.75 0.05 -1.25 0.25 -1.50 1.25 -1.50 0.80 0 1.35 0.35 1.50 1 0.15 0.55 0.70 1 1.20 1 0.50 0 1.05 0.25 1.25 0.60 0.25 0.35 0.50 0.20 0.80 -0.55 0.60 -1.65 2.20 -1.15 2.05 0.60 -0.05 0.75 0.10 1.35 0.35 1.35 0.80 0 1.05 -0.95 0.50 -2 -0.45 -0.80 -0.40 -1 0.25 -1 0.65 0 0.80 0.45 0.65 1.90 -0.10 1.50 -0.35 1.90 -1.25 2 -0.85 0.10 -1.15 0.50 -1.15 1.35 0 1.10 -0.20 1 -2.30 -1.15 -1.80 -1.80 -1.95 -1.90 -0.75 -0.45 0.85 1.05 1.55 2.10 1.55 2.35 0 0.95 -2.35 0.50 -3.40 -0.65z"/>
  <path d="M13.10 35.25 c0.05 -1.80 0.70 -2.35 1.20 -1 0.20 0.40 0.50 0.75 0.75 0.75 0.20 0 0.30 -0.35 0.15 -0.75 -0.20 -0.45 0 -0.75 0.50 -0.75 0.60 0 0.80 0.50 0.80 1.75 0 1.95 -0.30 2.15 -1.30 0.90 -0.65 -0.85 -0.65 -0.85 -0.70 0 0 0.45 -0.35 0.85 -0.75 0.85 -0.50 0 -0.70 -0.50 -0.65 -1.75z"/>
  <path d="M21 36.50 c0 -0.25 0.35 -0.50 0.75 -0.50 0.40 0 0.75 -0.35 0.75 -0.75 0 -0.40 -0.35 -0.75 -0.75 -0.75 -0.40 0 -0.75 -0.20 -0.75 -0.50 0 -0.25 0.80 -0.50 1.75 -0.50 1.50 0 1.75 0.15 1.75 1.15 0 0.65 -0.25 1.40 -0.60 1.75 -0.75 0.75 -2.90 0.80 -2.90 0.10z"/>
  <path d="M3.60 32.40 c-0.35 -0.35 -0.60 -0.90 -0.60 -1.25 0 -0.35 -0.25 -0.65 -0.55 -0.65 -0.60 0 -1.90 -1.45 -1.95 -2.10 0 -0.50 1.90 0.15 2.55 0.90 0.30 0.40 0.85 0.70 1.15 0.70 0.75 -0.05 -1.75 -1.95 -2.55 -2 -0.30 0 -0.75 -0.20 -0.90 -0.50 -0.20 -0.30 0.40 -0.50 1.45 -0.50 1.30 0 1.80 0.20 1.80 0.80 0 0.55 0.40 0.70 1.40 0.60 0.75 -0.10 1.60 0.15 1.90 0.55 0.65 0.85 0.30 3.15 -0.45 2.70 -0.30 -0.20 -0.40 0 -0.20 0.50 0.25 0.65 0 0.85 -1.05 0.85 -0.80 0 -1.65 -0.25 -2 -0.60z"/>
  <path d="M10.55 30.90 c-0.10 -1.85 -0.05 -1.90 1.70 -1.90 1.65 0 1.75 0.10 1.75 1.55 0 1.35 -0.10 1.50 -0.75 0.95 -0.90 -0.75 -1 0.05 -0.15 0.90 0.50 0.50 0.30 0.60 -0.90 0.50 -1.40 -0.10 -1.55 -0.25 -1.65 -2z"/>
  <path d="M8.85 29.10 c-1.15 -1.30 -1.10 -2.60 0.15 -2.60 0.80 0 1 0.35 1 1.75 0 2 -0.05 2.05 -1.15 0.85z"/>
  <path d="M30.25 24.05 c-0.15 -0.30 -1.80 -0.35 -3.75 -0.20 -2.95 0.25 -3.65 0.15 -4.50 -0.60 -0.80 -0.70 -1.70 -0.90 -4.25 -0.80 -2.05 0.10 -3.25 -0.10 -3.25 -0.40 0 -0.30 -0.35 -0.55 -0.75 -0.55 -1.20 0 -0.85 -1.20 0.55 -1.85 1.50 -0.70 2.20 -0.45 2.20 0.65 0 0.90 1.05 0.90 2.30 -0.05 1.40 -1.05 2.30 -0.90 4.65 0.75 2.10 1.55 2.30 1.50 2.65 -0.75 0.10 -0.55 0.60 -1.05 1.15 -1.20 0.85 -0.15 0.90 -0.05 0.30 0.65 -0.40 0.45 -0.55 0.95 -0.35 1.15 0.15 0.20 0.60 0 0.95 -0.45 0.75 -0.95 2.55 -1.65 2.05 -0.80 -0.25 0.40 0.05 0.45 1.10 0.20 1.35 -0.35 1.40 -0.35 0.55 0.60 -1.15 1.30 -1.05 1.65 0.35 1.30 0.90 -0.20 1.35 -0.05 1.80 0.75 0.30 0.60 0.40 1.30 0.25 1.55 -0.40 0.65 -3.60 0.65 -4 0.05z m-0.05 -3.25 c-0.15 -0.40 -0.60 -0.60 -1 -0.45 -1.05 0.40 -0.85 1.15 0.30 1.15 0.65 0 0.90 -0.25 0.70 -0.70z"/>
  <path d="M7.30 22.05 c0.20 -0.45 0.35 -1.30 0.35 -1.90 -0.05 -1.20 0.55 -1.55 1.10 -0.65 0.15 0.30 0.95 0.50 1.80 0.50 1.30 0 1.45 0.15 1.45 1.50 0 1.50 -0.05 1.50 -2.50 1.45 -2.15 -0.10 -2.50 -0.25 -2.20 -0.90z"/>
  <path d="M9.55 18.55 c-0.45 -0.80 -0.40 -0.90 0.45 -0.70 0.55 0.15 1 0.60 1 0.95 0 1 -0.90 0.85 -1.45 -0.25z"/>
  <path d="M13 18.75 c0 -0.40 0.45 -0.75 1 -0.75 1.20 0 1.35 0.75 0.20 1.20 -1.10 0.45 -1.20 0.40 -1.20 -0.45z"/>
  <path d="M13.85 13 c-0.20 -0.85 -0.10 -0.90 0.70 -0.45 0.55 0.25 0.85 0.70 0.70 1 -0.50 0.75 -1.10 0.50 -1.40 -0.55z"/>
  <path d="M27.50 11.75 c0 -0.95 0.25 -1.75 0.50 -1.75 0.30 0 0.50 0.35 0.50 0.80 0 0.60 0.30 0.75 1.25 0.50 1.10 -0.30 1.25 -0.15 1.25 0.95 0 1.10 -0.20 1.25 -1.75 1.25 -1.65 0 -1.75 -0.10 -1.75 -1.75z"/>
 </g>
 <g fill="#9f6941">
  <path d="M15 39.45 c0 -0.30 -0.35 -0.85 -0.75 -1.25 -0.85 -0.85 -1.05 -4.20 -0.25 -4.20 0.30 0 0.50 0.65 0.50 1.40 0 0.80 0.40 1.80 0.90 2.25 1.30 1.20 1.95 1.05 0.85 -0.15 -1.30 -1.45 -1.40 -3.50 -0.20 -3.50 0.70 0 1.05 0.45 1.30 1.50 0.15 0.85 0.45 1.50 0.70 1.50 0.25 0 0.45 0.70 0.45 1.50 0 1.40 -0.15 1.50 -1.75 1.50 -0.95 0 -1.75 -0.25 -1.75 -0.55z"/>
  <path d="M6.65 37.65 c-0.95 -0.20 -1.15 -0.55 -1.15 -1.95 0 -1.55 0.10 -1.70 1.50 -1.70 1.50 0 2 0.65 0.95 1.30 -0.35 0.20 -0.35 0.50 -0.05 0.80 0.70 0.70 1.75 0 1.40 -0.90 -0.15 -0.45 0.10 -0.70 0.70 -0.70 0.80 0 1 0.35 1 1.75 0 1.65 -0.10 1.75 -1.60 1.70 -0.90 -0.05 -2.15 -0.20 -2.75 -0.30z"/>
  <path d="M21 37.05 c0 -0.55 0.50 -1.05 1.15 -1.25 1.05 -0.30 1.05 -0.35 0.25 -1 -1.60 -1.20 -1.05 -1.90 1.20 -1.70 1.85 0.10 2.15 0 2.15 -0.85 0 -0.70 0.40 -1.05 1.25 -1.15 0.70 -0.10 1.45 -0.50 1.65 -0.90 0.20 -0.40 0.95 -0.70 1.55 -0.70 1.05 0 1.20 -0.30 1.40 -2.05 0.10 -1.10 0 -2.15 -0.20 -2.25 -0.20 -0.15 -0.40 -0.95 -0.40 -1.85 0 -1.20 0.15 -1.40 0.60 -0.95 0.35 0.35 1.10 0.60 1.75 0.60 1 0 1.10 0.20 0.80 1.65 -0.70 3.95 -2.85 6.70 -8.25 10.45 -4.05 2.80 -4.90 3.15 -4.90 1.95z"/>
  <path d="M2.15 36.55 c-1.35 -1.10 -1.50 -1.80 -0.35 -1.35 0.70 0.25 0.75 0.20 0.20 -0.45 -0.55 -0.65 -0.40 -0.75 0.95 -0.75 1.35 0 1.55 0.20 1.55 1.30 0 1.10 -0.10 1.25 -0.75 0.70 -0.90 -0.75 -1 0.05 -0.15 0.90 0.95 0.95 -0.25 0.65 -1.45 -0.35z"/>
  <path d="M17 33.55 c-0.25 -0.55 -0.50 -1.75 -0.50 -2.65 l0.05 -1.65 1.65 1.90 c0.90 1 1.90 1.85 2.25 1.85 0.30 0 0.55 0.35 0.55 0.75 0 1.20 -3.35 1 -4 -0.20z"/>
  <path d="M4.60 31.90 c0.15 -1.45 0.35 -1.65 1.80 -1.80 1.45 -0.15 1.60 -0.05 1.60 1.20 0 1.10 -0.10 1.25 -0.75 0.70 -0.90 -0.75 -1 0.05 -0.15 0.90 0.45 0.45 0.25 0.60 -1.05 0.60 -1.50 0 -1.60 -0.10 -1.45 -1.60z"/>
  <path d="M22.70 31.25 c1.10 -1.70 0.60 -2.45 -0.95 -1.45 -0.90 0.60 -1.45 0.65 -2.10 0.25 -0.50 -0.30 -0.60 -0.55 -0.25 -0.55 0.30 0 0.60 -0.30 0.60 -0.70 0 -0.75 1.50 -1.30 3.65 -1.30 1.20 0 1.35 0.20 1.35 1.65 0 1.70 -1.20 3.35 -2.45 3.35 -0.50 0 -0.45 -0.35 0.15 -1.25z"/>
  <path d="M10.50 30.25 c0 -1.65 0.10 -1.75 1.75 -1.75 1.70 0 1.75 0.05 1.75 1.85 l0 1.80 -1.10 -0.95 c-0.95 -0.85 -1.05 -0.85 -0.75 -0.05 0.25 0.60 0.05 0.85 -0.65 0.85 -0.80 0 -1 -0.35 -1 -1.75z"/>
  <path d="M0.50 29 c-1.30 -0.80 -0.15 -1.10 1.35 -0.30 1.15 0.65 1.20 0.75 0.40 0.75 -0.55 0.05 -1.35 -0.15 -1.75 -0.45z"/>
  <path d="M8.20 27.75 c-0.80 -2 -0.95 -4.25 -0.20 -4.25 0.30 0 0.50 -0.20 0.50 -0.50 0 -0.25 -0.35 -0.35 -0.75 -0.20 -1.10 0.45 -0.90 -0.50 0.40 -1.70 1.50 -1.40 3.35 -1.45 3.35 -0.10 0 0.55 -0.35 1 -0.75 1 -0.75 0 -0.95 1.40 -0.75 5.65 0.10 2.35 -0.80 2.40 -1.80 0.10z"/>
  <path d="M1.40 27.90 c-1.90 -0.65 -1.80 -1.90 0.10 -1.90 1.25 0 1.50 0.20 1.50 1.25 0 0.70 -0.05 1.25 -0.10 1.20 -0.10 0 -0.75 -0.25 -1.50 -0.55z"/>
  <path d="M14.60 21.40 c0.10 -0.85 0.45 -1.70 0.85 -1.80 0.50 -0.15 0.60 0 0.40 0.65 -0.30 0.75 -0.10 0.85 1.65 0.65 1.80 -0.15 2 -0.05 2 0.95 0 1.05 -0.25 1.15 -2.55 1.15 l-2.50 0 0.15 -1.60z"/>
  <path d="M19.95 15.20 c-0.55 -1.50 -0.20 -3.20 0.65 -3.20 0.30 0 0.40 -0.15 0.25 -0.30 -0.20 -0.20 -0.65 -0.05 -1.10 0.30 -1.35 1.15 -1.35 0.20 0 -1.45 0.75 -0.85 1.10 -1.55 0.85 -1.55 -0.25 0 -0.75 0.35 -1.10 0.75 -1.50 1.80 -1.25 0.50 0.35 -2 1 -1.50 1.95 -2.75 2.15 -2.75 0.55 0 1.05 1.50 0.75 2.05 -0.20 0.25 0.25 1.05 0.95 1.80 1.05 1.10 1.30 1.20 1.30 0.50 0 -0.60 0.40 -0.85 1.50 -0.85 0.85 0 1.50 0.20 1.50 0.45 0 0.25 0.25 1.10 0.50 1.80 l0.50 1.30 1.50 -1.05 c1.20 -0.85 1.50 -0.90 1.50 -0.30 0 0.40 -0.20 0.90 -0.50 1.05 -0.25 0.15 -0.50 0.75 -0.50 1.25 0 0.65 -0.45 1.10 -1.35 1.30 -0.80 0.20 -1.65 0.55 -1.95 0.80 -0.40 0.30 -0.65 -0.20 -0.90 -1.60 -0.25 -1.50 -0.60 -2.15 -1.50 -2.50 -0.65 -0.25 -1.35 -0.70 -1.55 -0.95 -0.15 -0.30 -0.55 -0.55 -0.80 -0.55 -0.25 0 -0.10 0.55 0.35 1.30 0.65 0.95 0.70 1.40 0.25 1.85 -0.40 0.40 -0.55 0.40 -0.55 -0.05 0 -0.35 -0.25 -0.60 -0.50 -0.60 -0.35 0 -0.35 0.35 0 1.05 0.45 0.80 0.40 1.30 -0.25 2.25 -1 1.55 -1.65 1.50 -2.30 -0.10z"/>
  <path d="M13.75 12.50 c-0.20 -0.80 -0.80 -1.85 -1.40 -2.25 -1.05 -0.75 -1.05 -0.75 0.25 -0.75 0.70 0 1.45 0.30 1.55 0.65 0.15 0.30 0.30 0 0.30 -0.75 0.05 -1 0.25 -1.30 0.80 -1.10 0.45 0.20 0.75 0 0.75 -0.50 0 -0.45 0.40 -0.80 0.95 -0.80 1.10 0 1.75 1.90 0.95 2.85 -0.30 0.35 -0.35 0.65 -0.10 0.65 0.20 0 -0.35 0.80 -1.30 1.75 -0.95 0.95 -1.85 1.75 -2.05 1.75 -0.20 0 -0.50 -0.65 -0.70 -1.50z"/>
  <path d="M24.60 13.40 c0.30 -0.90 1.40 -1.05 1.40 -0.20 0 0.45 -0.35 0.80 -0.80 0.80 -0.45 0 -0.70 -0.25 -0.60 -0.60z"/>
  <path d="M34.10 13.65 c-0.35 -0.10 -0.85 -0.70 -1.15 -1.25 -0.45 -0.85 -0.40 -0.90 0.45 -0.45 1.95 1.05 2.55 2.45 0.70 1.70z"/>
  <path d="M8.60 11.90 c0.10 -0.30 0.75 -0.90 1.35 -1.35 1.15 -0.75 1.20 -0.75 0.50 0.35 -0.75 1.15 -2.15 1.95 -1.85 1z"/>
  <path d="M11 11.80 c0 -0.45 0.35 -0.80 0.80 -0.80 0.85 0 0.70 1.10 -0.20 1.40 -0.35 0.10 -0.60 -0.15 -0.60 -0.60z"/>
  <path d="M24 1.05 c0 -0.60 0.25 -1.05 0.50 -1.05 0.30 0 0.50 0.30 0.50 0.70 0 0.40 -0.20 0.90 -0.50 1.05 -0.25 0.15 -0.50 -0.15 -0.50 -0.70z"/>
  <path d="M21.85 1.15 c-0.65 -0.60 -0.35 -1.15 0.65 -1.15 0.65 0 0.90 0.25 0.70 0.75 -0.35 0.80 -0.85 0.95 -1.35 0.40z"/>
 </g>
 <g fill="#596ab3">
  <path d="M24 39.60 c0 -0.25 1.10 -0.70 2.45 -1.05 3.05 -0.75 8.05 -0.30 8.05 0.75 0 0.40 -0.45 0.70 -1 0.70 -0.55 0 -1 -0.20 -1 -0.50 0 -0.30 -1.45 -0.50 -3.30 -0.50 -2.05 0 -3.15 0.20 -2.95 0.50 0.20 0.30 -0.25 0.50 -0.95 0.50 -0.70 0 -1.30 -0.20 -1.30 -0.40z"/>
  <path d="M35.50 39.25 c0 -0.45 0.45 -0.75 1.15 -0.75 0.60 0 1.60 -0.15 2.25 -0.30 0.90 -0.25 1.10 -0.10 1.10 0.75 0 0.90 -0.30 1.05 -2.25 1.05 -1.65 0 -2.25 -0.20 -2.25 -0.75z"/>
  <path d="M0 37.75 c0 -1.10 0.10 -1.20 1.30 -0.70 2 0.70 2.05 0.15 0.15 -1 -1.40 -0.85 -1.50 -1.05 -0.65 -1.05 1.30 0 2.70 1.50 2.70 2.90 0 0.90 -0.30 1.10 -1.75 1.10 -1.55 0 -1.75 -0.15 -1.75 -1.25z"/>
  <path d="M35.20 35.75 c0.15 -0.55 0.70 -2.25 1.25 -3.75 3.05 -8.50 0.95 -22.90 -4.35 -29.90 -0.70 -0.90 -1.10 -1.80 -0.90 -2 0.20 -0.20 0.60 0.05 0.85 0.50 0.25 0.45 1.20 1.30 2.15 1.85 1.05 0.65 1.80 1.60 1.95 2.45 0.15 0.75 0.80 2.95 1.40 4.85 1 3.05 1.10 4.50 1.10 11.80 -0.05 9.05 -0.55 11.75 -2.45 13.80 -1.05 1.15 -1.25 1.20 -1 0.40z"/>
  <path d="M1.85 33.15 c-0.20 -0.15 -0.35 -1.05 -0.35 -1.95 0 -1.05 -0.30 -1.85 -0.85 -2.15 -0.50 -0.25 -0.75 -0.60 -0.55 -0.80 0.15 -0.20 1.05 0.10 2 0.60 0.90 0.50 2 0.90 2.40 0.90 0.45 0 0.75 0.65 0.90 1.90 0.15 1.80 0.15 1.85 -1.55 1.85 -0.90 0 -1.85 -0.15 -2 -0.35z"/>
  <path d="M1.50 24.90 c0.55 -0.60 1 -1.80 1.05 -2.60 0.05 -3.30 0.75 -3.15 0.70 0.15 0 3.55 0 3.55 -1.40 3.55 l-1.40 0 1.05 -1.10z"/>
  <path d="M0 17 c0 -0.55 0.20 -1.40 0.45 -1.90 0.30 -0.45 1.65 -3.20 3 -6.10 3.20 -6.65 5.30 -9 8.05 -9 1.10 0 2 0.25 2 0.50 0 0.30 -0.35 0.50 -0.85 0.50 -1.15 0 -4.65 3.80 -4.65 5.05 0 0.60 -0.40 1.15 -0.95 1.30 -1.50 0.40 -6.05 7.85 -6.05 9.95 0 0.40 -0.20 0.70 -0.50 0.70 -0.25 0 -0.50 -0.45 -0.50 -1z"/>
  <path d="M39 9.65 c0 -0.50 -0.35 -1.35 -0.75 -1.85 -1.25 -1.65 -0.80 -2.15 0.50 -0.55 1.25 1.55 1.65 3.25 0.75 3.25 -0.25 0 -0.50 -0.40 -0.50 -0.85z"/>
  <path d="M0 6.55 c0 -1.40 0.20 -2.55 0.45 -2.55 0.70 0 0.95 1.10 0.70 2.90 -0.40 2.60 -1.15 2.40 -1.15 -0.35z"/>
  <path d="M2.05 3.40 c-0.05 -1.30 1.05 -3.40 1.80 -3.40 0.35 0 0.65 0.25 0.65 0.50 0 0.30 -0.20 0.50 -0.40 0.50 -0.25 0 -0.80 0.75 -1.25 1.65 -0.45 0.95 -0.80 1.25 -0.80 0.75z"/>
  <path d="M16.75 3 c0.50 -0.55 1 -0.90 1.15 -0.75 0.35 0.30 -0.90 1.75 -1.55 1.75 -0.25 0 -0.10 -0.45 0.40 -1z"/>
  <path d="M25.40 2.95 c-1.80 -1.35 -1.85 -2.95 -0.15 -2.95 1.55 0 1.60 0.65 0.15 1.40 -1.10 0.50 -1.10 0.55 -0.10 0.55 1 0.05 2.20 0.90 2.20 1.65 0 0.65 -0.65 0.45 -2.10 -0.65z"/>
  <path d="M38.85 3 c-0.15 -0.65 0 -1 0.45 -1 0.40 0 0.70 0.45 0.70 1 0 0.55 -0.20 1 -0.45 1 -0.25 0 -0.55 -0.45 -0.70 -1z"/>
  <path d="M18.65 1.15 c-1.10 -0.40 -0.70 -1.15 0.65 -1.15 0.75 0 1.20 0.25 1.10 0.60 -0.25 0.70 -0.90 0.90 -1.75 0.55z"/>
  <path d="M37.15 1.15 c-1.25 -0.50 -0.60 -1.15 1.10 -1.15 1.20 0 1.75 0.25 1.75 0.75 0 0.75 -1.55 0.95 -2.85 0.40z"/>
 </g>
 <g fill="#6c48c6">
  <path d="M18.50 38.25 c0 -1.65 0.10 -1.75 1.75 -1.75 0.95 0 1.75 0.20 1.75 0.50 0 0.65 -1.80 1.55 -2.25 1.10 -0.25 -0.20 -0.25 -0.05 -0.05 0.30 0.20 0.30 0.65 0.60 1.05 0.60 0.40 0 0.85 0.25 1 0.50 0.20 0.30 -0.40 0.50 -1.45 0.50 -1.70 0 -1.80 -0.10 -1.80 -1.75z"/>
  <path d="M0.45 37.70 c-0.60 -0.75 -0.50 -0.80 1.05 -0.45 1.55 0.35 1.65 0.30 1.05 -0.40 -0.35 -0.45 -1.10 -0.95 -1.60 -1.10 -1.35 -0.45 -1 -1.85 0.55 -2.30 l1.25 -0.35 -1.35 -0.05 c-1.15 -0.05 -1.40 -0.30 -1.40 -1.30 0 -1.30 0.75 -1.70 1.15 -0.60 0.15 0.30 0.30 0 0.30 -0.75 0.05 -0.95 -0.20 -1.40 -0.70 -1.40 -0.40 0 -0.75 -0.20 -0.75 -0.50 0 -0.80 0.65 -0.60 3.05 0.95 4.25 2.75 5.75 5.60 3.05 5.95 -0.60 0.10 -1.10 0.50 -1.10 0.95 0 0.50 -0.55 0.30 -1.95 -0.80 -2.85 -2.30 -3 -1.90 -0.20 0.70 l2.40 2.20 -2.05 0.05 c-1.35 0 -2.30 -0.30 -2.75 -0.80z"/>
  <path d="M12.20 36.80 c-0.55 -1.40 0 -3.05 1.05 -3.05 0.75 0 1.05 0.45 1.30 1.90 0.25 1.70 0.20 1.85 -0.90 1.85 -0.65 0 -1.30 -0.30 -1.45 -0.70z"/>
  <path d="M15.45 36.15 c0 -0.25 -0.10 -0.90 -0.25 -1.50 -0.10 -0.65 0.05 -1.15 0.30 -1.15 0.30 0 0.50 0.70 0.50 1.50 0 1.30 -0.45 2.20 -0.55 1.15z"/>
  <path d="M8.50 31.65 l0 -1.30 1.25 1.15 c0.70 0.65 1.25 1.25 1.25 1.35 0 0.10 -0.55 0.15 -1.25 0.15 -1 0 -1.25 -0.25 -1.25 -1.35z"/>
  <path d="M10.90 32.15 c-1.45 -1.70 -1.50 -2.65 -0.15 -2.65 1.10 0 1.25 0.20 1.25 1.75 0 2 -0.05 2.05 -1.10 0.90z"/>
  <path d="M4.70 30 c-1.35 -1.10 -2.95 -2.15 -3.55 -2.30 -0.85 -0.25 -1.15 -0.65 -1.15 -1.75 0 -0.80 0.25 -1.45 0.55 -1.45 0.25 0 0.35 0.25 0.20 0.50 -0.15 0.30 -0.15 0.50 0 0.50 0.45 0 1.55 -1.15 1.90 -2 0.15 -0.45 0.30 -0.15 0.30 0.65 0.05 0.85 0.40 1.50 0.95 1.70 1.05 0.40 3.25 2.65 2.55 2.65 -0.25 0 -0.10 0.70 0.30 1.55 0.45 0.85 0.75 1.65 0.60 1.75 -0.10 0.15 -1.30 -0.70 -2.65 -1.80z"/>
 </g>
 <g fill="#c4803e">
  <path d="M3.85 39.10 c-0.90 -1 -1.10 -2.10 -0.45 -2.10 0.60 0 2.10 1.70 2.10 2.40 0 0.85 -0.75 0.75 -1.65 -0.30z"/>
  <path d="M5.30 37.70 c-1.05 -1.20 -2.30 -2.15 -2.75 -2.10 -0.40 0.10 -0.80 -0.15 -0.80 -0.55 0 -0.40 -0.30 -0.80 -0.70 -0.95 -0.40 -0.15 -0.55 0 -0.35 0.35 0.20 0.30 0.15 0.55 -0.10 0.55 -0.25 0 -0.45 -0.65 -0.50 -1.50 -0.05 -1.25 0.15 -1.50 1.20 -1.50 0.75 0 1.20 0.30 1.20 0.75 0 0.40 0.45 0.75 1 0.75 0.55 0 1 0.35 1 0.75 0 0.80 0.45 0.95 1.70 0.45 1.05 -0.40 1 -1 -0.20 -2.20 -0.60 -0.60 -0.90 -1.25 -0.75 -1.50 0.35 -0.55 -3.55 -3.50 -4.60 -3.50 -0.35 0 -0.65 -0.35 -0.65 -0.75 0 -0.45 0.45 -0.75 1.15 -0.75 1.30 0 3.85 1.05 3.85 1.65 0 0.20 0.30 0.35 0.65 0.35 1 0 2.35 1.65 2.35 2.90 0 0.80 0.30 1.10 1.15 1.10 1.40 0 2.35 1.75 2.35 4.25 0 1.65 -0.10 1.75 -1.75 1.75 -1.40 0 -1.75 0.20 -1.75 1 0 1.45 -0.50 1.20 -2.70 -1.30z m4.20 -1.80 c0 -1.10 -1.90 -3.80 -3.10 -4.45 -0.90 -0.45 -0.75 -0.15 0.60 1.25 1.65 1.75 1.70 1.90 0.85 2.55 -0.65 0.50 -0.75 0.70 -0.25 0.90 1.15 0.50 1.90 0.35 1.90 -0.25z"/>
  <path d="M15.15 39.25 c-0.35 -0.40 -0.65 -1.05 -0.65 -1.50 0 -0.40 -0.20 -0.75 -0.50 -0.75 -0.25 0 -0.50 -0.40 -0.50 -0.85 0 -0.60 0.50 -0.30 1.55 1 1.70 2.05 2.55 2.20 1.20 0.20 -0.40 -0.65 -0.90 -1.75 -1 -2.40 -0.15 -0.60 -0.50 -1.35 -0.80 -1.65 -0.40 -0.40 -0.45 -0.25 -0.20 0.60 0.20 0.70 0.10 1.10 -0.25 1.10 -0.40 0 -0.50 -0.50 -0.35 -1.35 0.15 -0.90 -0.05 -1.80 -0.70 -2.60 -0.60 -0.75 -0.95 -0.90 -0.95 -0.45 0 0.40 0.25 0.95 0.60 1.30 0.45 0.45 0.40 0.60 -0.35 0.60 -1.70 -0.05 -5.40 -6.55 -4.50 -8 0.60 -0.95 1.75 -0.50 1.75 0.70 0 1.30 0.80 1.80 3 1.80 1.15 0 1.45 0.25 1.70 1.55 0.15 0.85 0.30 2.10 0.30 2.75 0 0.95 0.25 1.20 1.25 1.20 1 0 1.30 0.35 1.75 2 0.30 1.10 0.75 2 1 2 0.30 0 0.50 0.80 0.50 1.75 0 1.65 -0.10 1.75 -1.60 1.75 -0.90 -0.05 -1.95 -0.35 -2.25 -0.75z"/>
  <path d="M26.15 33.15 c0.10 -1.80 0.20 -1.90 2 -2.05 1 -0.10 1.85 0.05 1.85 0.30 0 0.70 -1.40 1.75 -1.90 1.45 -0.20 -0.15 -0.70 -0.05 -1.10 0.25 -0.60 0.40 -0.55 0.45 0.20 0.20 0.95 -0.35 0.95 -0.30 0.05 0.70 -0.50 0.55 -0.95 1 -1.05 1 -0.05 0 -0.05 -0.85 -0.05 -1.85z"/>
  <path d="M1.35 29.50 c-0.30 -1.15 -0.15 -1.20 1.20 -0.50 1.20 0.70 1.25 1.50 0 1.50 -0.50 0 -1.05 -0.45 -1.20 -1z"/>
  <path d="M16.50 28.75 c0 -1.65 0.10 -1.75 1.75 -1.75 1.60 0 1.75 0.10 1.75 1.55 0 1.30 -0.15 1.50 -0.85 1.20 -1.50 -0.55 -1.90 -0.55 -1.75 0.15 0.05 0.30 -0.10 0.60 -0.40 0.60 -0.25 0 -0.50 -0.80 -0.50 -1.75z"/>
  <path d="M20.05 15.20 c-0.50 -1.10 -0.45 -1.55 0.20 -2.50 0.80 -1.25 0.40 -1.65 -0.65 -0.60 -0.45 0.45 -0.60 0.40 -0.60 -0.20 0 -0.45 0.50 -1.20 1.10 -1.60 0.60 -0.45 0.95 -0.95 0.75 -1.10 -0.20 -0.20 -0.65 -0.05 -1.10 0.30 -1.40 1.15 -1.25 0.20 0.25 -1.55 0.80 -0.95 1.45 -1.40 1.50 -1.05 0 0.30 0.40 0.60 0.95 0.60 0.50 0 1.05 0.40 1.25 0.90 0.15 0.45 0.45 1.20 0.60 1.60 0.25 0.60 0.20 0.65 -0.35 0.15 -0.35 -0.35 -1 -0.65 -1.45 -0.65 -0.60 0.05 -0.60 0.10 0.15 0.55 1.10 0.65 1.20 2.55 0.05 2.10 -0.70 -0.25 -0.75 -0.15 -0.25 0.80 0.50 0.85 0.40 1.30 -0.30 2.30 -1.15 1.55 -1.35 1.55 -2.10 -0.05z"/>
  <path d="M26.85 13.70 c-0.15 -1 -0.65 -2.25 -1.10 -2.70 -0.45 -0.50 -0.75 -1.35 -0.65 -1.85 0.20 -1.15 1.90 -1.55 1.90 -0.45 0 0.45 0.20 0.80 0.40 0.80 0.25 0 0.70 0.55 1 1.25 0.55 1.25 0.65 1.25 1.85 0.45 1.45 -0.95 2.40 -0.55 1.05 0.45 -0.50 0.35 -0.80 0.95 -0.70 1.35 0.10 0.40 -0.20 0.75 -0.60 0.75 -0.40 0 -0.85 0.10 -1 0.25 -1.55 1.55 -1.85 1.50 -2.15 -0.30z"/>
  <path d="M13.85 12.35 c-0.45 -0.95 -1.15 -2 -1.65 -2.25 -0.80 -0.45 -0.70 -0.60 0.80 -1.25 1.05 -0.40 2.10 -0.55 2.55 -0.30 0.60 0.30 0.75 0.15 0.75 -0.70 -0.05 -0.65 0.30 -1.15 0.80 -1.25 1.20 -0.25 1.85 2.35 0.80 3.10 -0.40 0.30 -0.65 0.80 -0.55 1.05 0.10 0.30 -0.50 1.20 -1.30 1.95 l-1.50 1.40 -0.70 -1.75z m1.15 -1.85 c0 -0.25 -0.35 -0.50 -0.75 -0.50 -0.40 0 -0.75 0.25 -0.75 0.50 0 0.30 0.35 0.50 0.75 0.50 0.40 0 0.75 -0.20 0.75 -0.50z"/>
  <path d="M33.60 13 c-0.60 -0.60 -1.10 -1.15 -1.10 -1.30 0 -0.35 1.90 0.75 2.25 1.35 0.65 1 -0.05 0.95 -1.15 -0.05z"/>
  <path d="M21.80 1.15 c-0.55 -0.55 -0.30 -1.15 0.45 -1.15 0.40 0 0.75 0.20 0.75 0.45 0 0.65 -0.80 1.10 -1.20 0.70z"/>
 </g>
 <g fill="#75a170">
  <path d="M26.50 22.05 c0 -0.85 1 -1.15 1.75 -0.55 0.40 0.30 0.95 0.45 1.20 0.25 0.30 -0.15 0.95 -0.05 1.40 0.20 0.70 0.40 0.30 0.50 -1.70 0.55 -1.45 0 -2.65 -0.20 -2.65 -0.45z"/>
  <path d="M10.75 20.50 c-0.20 -0.30 0.60 -0.50 1.95 -0.50 1.25 0 2.30 -0.25 2.30 -0.50 0 -0.30 -0.50 -0.40 -1.15 -0.25 -0.75 0.20 -1.40 0.05 -1.80 -0.45 -0.60 -0.70 -0.45 -0.80 0.90 -0.80 1.85 0 3.30 1.15 2.85 2.25 -0.30 0.85 -4.55 1.05 -5.05 0.25z"/>
  <path d="M28 20.55 c0 -0.75 1.55 -2.10 2.05 -1.75 0.60 0.35 0.15 1.05 -1.10 1.70 -0.60 0.35 -0.95 0.35 -0.95 0.05z"/>
  <path d="M30 20.50 c0 -0.25 0.45 -0.50 1.05 -0.50 0.55 0 0.85 0.25 0.70 0.50 -0.15 0.30 -0.65 0.50 -1.05 0.50 -0.40 0 -0.70 -0.20 -0.70 -0.50z"/>
  <path d="M20 13.05 c0 -0.30 0.25 -0.65 0.50 -0.80 0.30 -0.15 0.50 -0.55 0.50 -0.80 0 -0.30 -0.20 -0.35 -0.50 -0.20 -0.25 0.15 -0.50 -0.05 -0.50 -0.45 0 -1.10 2.80 -1.10 3.20 0 0.55 1.40 0.35 1.85 -0.50 1.15 -0.75 -0.60 -0.80 -0.55 -0.50 0.45 0.30 0.95 0.20 1.10 -0.90 1.10 -0.70 0 -1.30 -0.20 -1.30 -0.45z"/>
  <path d="M28.65 12.25 c0 -0.40 0.10 -0.65 0.25 -0.50 0.15 0.10 0.70 -0.10 1.30 -0.50 1.60 -1.15 2.10 -0.85 0.80 0.50 -1.30 1.40 -2.35 1.60 -2.35 0.50z"/>
  <path d="M11 11.75 c0 -0.45 0.25 -0.75 0.55 -0.65 0.30 0.10 0.55 0.40 0.55 0.65 0 0.25 -0.25 0.55 -0.55 0.65 -0.30 0.10 -0.55 -0.20 -0.55 -0.65z"/>
  <path d="M13.10 11 c-0.50 -0.85 -0.50 -1 0.15 -1 0.40 0 0.75 0.45 0.75 1 0 0.55 -0.05 1 -0.15 1 -0.05 0 -0.40 -0.45 -0.75 -1z"/>
  <path d="M16.10 7.65 c0.25 -1.30 1.70 -1.40 2.05 -0.15 0.20 0.80 0 1 -1 1 -0.90 0 -1.20 -0.25 -1.05 -0.85z"/>
 </g>
 <g fill="#a97b65">
  <path d="M15.50 38.95 c0 -0.85 0.15 -0.95 0.70 -0.50 0.50 0.40 0.80 0.45 1.05 0.05 0.15 -0.25 0.05 -0.50 -0.20 -0.50 -1.10 0 -0.50 -1 0.60 -1.05 0.60 0 0.80 -0.15 0.50 -0.30 -0.35 -0.10 -0.65 -0.60 -0.65 -1 0 -0.60 0.15 -0.65 0.70 -0.20 0.85 0.70 4.65 0.55 4.30 -0.20 -0.15 -0.25 -1.30 -0.50 -2.55 -0.55 -2.70 -0.05 -3.45 -0.40 -3.45 -1.65 0 -0.50 -0.35 -1.20 -0.75 -1.55 -0.60 -0.50 -0.75 -0.50 -0.75 0.20 0 0.45 0.25 0.80 0.50 0.80 0.30 0 0.50 0.60 0.50 1.35 0 1.30 -0.10 1.25 -1.75 -1.05 -1.05 -1.50 -1.75 -3.05 -1.75 -3.95 0 -0.85 -0.15 -1.35 -0.35 -1.20 -0.70 0.75 -0.15 3.45 1.05 4.90 1.30 1.55 1.65 2.45 0.90 2.45 -0.50 0 -2.60 -2.15 -2.60 -2.65 0 -0.15 -0.65 -1 -1.45 -1.90 -0.85 -0.90 -1.45 -1.75 -1.45 -1.90 0.05 -0.15 -0.10 -0.70 -0.35 -1.20 -0.50 -1.20 -0.40 -1.25 2.95 -1.65 2.65 -0.30 2.90 -0.25 3.15 0.75 0.30 1.10 1.35 1.40 1.90 0.55 0.15 -0.25 1.05 -0.50 2 -0.50 1.55 0 1.65 0.10 1.85 1.95 0.15 1.85 0.10 1.90 -0.95 1.40 -0.60 -0.25 -0.95 -0.75 -0.80 -1.05 0.20 -0.30 -0.05 -0.25 -0.50 0.10 -0.65 0.55 -0.70 0.85 -0.20 1.65 0.30 0.50 0.75 0.95 1 0.95 0.20 0 0.25 0.25 0.10 0.50 -0.40 0.65 0.35 0.90 3.50 1.20 1.40 0.10 2.60 0.25 2.70 0.25 0.15 0.05 -0.20 0.40 -0.75 0.80 -1.35 1 0 0.95 1.60 -0.05 0.65 -0.45 1.35 -0.70 1.50 -0.55 0.45 0.45 -5.90 4.35 -7.15 4.35 -0.80 0 -1.15 0.30 -1.15 1 0 0.80 -0.35 1 -1.75 1 -1.45 0 -1.75 -0.20 -1.75 -1.05z"/>
  <path d="M8 37.75 c0 -0.90 0.25 -1.25 1 -1.25 1.25 0 1.25 -0.35 0 -2.35 -1 -1.65 -1 -1.65 0 -1.65 0.80 0 1 0.35 1 1.50 0 1 0.25 1.50 0.75 1.50 0.50 0 0.75 0.55 0.75 1.75 0 1.65 -0.10 1.75 -1.75 1.75 -1.55 0 -1.75 -0.15 -1.75 -1.25z"/>
  <path d="M3.50 34.20 c0 -1.65 0.05 -1.70 0.85 -0.95 0.80 0.80 0.85 0.80 1.50 -0.05 0.65 -0.85 0.70 -0.85 1.80 0.20 1.10 1.15 1.10 1.15 0.15 1.90 -0.55 0.40 -1.75 0.70 -2.65 0.70 -1.55 0 -1.65 -0.10 -1.65 -1.80z"/>
  <path d="M12.50 35.30 c0 -0.40 -0.30 -0.80 -0.60 -0.95 -0.35 -0.10 -0.50 -0.35 -0.35 -0.55 0.15 -0.15 0.80 0.25 1.45 0.95 0.95 1.05 1.05 1.25 0.35 1.25 -0.45 0 -0.85 -0.30 -0.85 -0.70z"/>
  <path d="M25.55 32.15 c-0.55 -1.20 -0.65 -1.20 -1.50 -0.45 -1.35 1.25 -2.25 1.05 -1.35 -0.30 1.10 -1.55 1.05 -2.55 -0.15 -2.15 -0.80 0.25 -0.90 0.10 -0.70 -0.75 0.20 -0.75 0.70 -1 1.95 -1 1.10 0 1.70 0.25 1.70 0.70 0 0.35 1 0.95 2.25 1.30 1.55 0.45 2.25 0.90 2.25 1.50 0 0.95 -1.15 2.15 -1.65 1.70 -0.15 -0.15 -0.70 -0.05 -1.25 0.25 -0.80 0.40 -1.05 0.30 -1.55 -0.80z"/>
  <path d="M7 29.70 c0 -0.70 0.15 -0.70 0.75 -0.20 0.40 0.35 0.75 0.70 0.75 0.80 0 0.10 -0.35 0.20 -0.75 0.20 -0.40 0 -0.75 -0.35 -0.75 -0.80z"/>
  <path d="M30.75 25 c-1.40 -1.50 -2.75 -1.95 -2.75 -1 0 0.55 -3.10 0.65 -4.85 0.20 -0.65 -0.20 -1.15 -0.65 -1.15 -1 0 -0.90 -1.50 -0.85 -2.70 0.05 -1.40 1.10 -4.10 0.95 -5.30 -0.25 l-1 -1 -1.50 1.50 c-0.90 0.90 -2 1.50 -2.80 1.50 -1.10 0 -1.25 -0.10 -0.70 -0.75 0.35 -0.40 0.50 -1.25 0.30 -2 -0.25 -1.05 -0.10 -1.35 0.95 -1.75 0.75 -0.30 2.30 -0.50 3.55 -0.50 1.20 0 2.20 -0.20 2.20 -0.50 0 -0.25 0.25 -0.50 0.55 -0.50 0.35 0 0.45 0.45 0.30 1.05 -0.40 1.40 1 1.80 2.75 0.80 2 -1.15 3 -1.05 4.40 0.40 1.35 1.45 2.90 1.60 3.75 0.40 0.50 -0.70 0.80 -0.75 1.40 -0.25 0.40 0.35 1.05 0.50 1.50 0.30 1.10 -0.40 4.60 2.90 4.20 3.95 -0.45 1.25 -1.50 1.05 -3.10 -0.65z"/>
  <path d="M20.50 13.55 c0 -1.50 0.55 -2.55 1.30 -2.55 0.40 0 0.70 -0.30 0.70 -0.60 0 -0.90 1 0.65 1 1.60 0 0.55 -0.15 0.55 -0.60 0.10 -0.80 -0.80 -1.65 -0.80 -1.05 0.05 0.30 0.30 0.65 1 0.80 1.50 0.25 0.65 0.05 0.85 -0.90 0.85 -0.90 0 -1.25 -0.25 -1.25 -0.95z"/>
  <path d="M27 11.75 c0 -0.95 0.20 -1.75 0.50 -1.75 0.65 0 1.55 1.80 1.10 2.30 -0.20 0.25 0 0.15 0.40 -0.15 1 -0.90 1.45 -0.80 1.35 0.25 -0.05 0.65 -0.50 0.95 -1.70 1 -1.60 0.15 -1.65 0.05 -1.65 -1.65z"/>
  <path d="M16.95 11.15 c-0.45 -2.25 -0.30 -3.65 0.40 -3.65 0.40 0 0.85 0.45 1 1 0.25 1 0.35 1 1.20 0.20 0.55 -0.45 0.95 -0.60 0.95 -0.30 0 0.70 -0.85 1.25 -2.20 1.30 -0.70 0.05 -1 0.35 -0.90 0.95 0.15 0.80 -0.30 1.30 -0.45 0.50z"/>
  <path d="M19 11.30 c0 -0.10 0.35 -0.45 0.75 -0.80 0.60 -0.50 0.75 -0.50 0.75 0.20 0 0.45 -0.35 0.80 -0.75 0.80 -0.40 0 -0.75 -0.10 -0.75 -0.20z"/>
  <path d="M25.40 10 c-0.35 -1.20 -0.15 -1.90 0.40 -1.40 0.15 0.20 0.20 0.85 0.10 1.50 l-0.15 1.15 -0.35 -1.25z"/>
  <path d="M23.30 9.70 c-0.55 -0.35 -0.80 -0.85 -0.65 -1.05 0.20 -0.20 0.75 0.05 1.20 0.50 1.10 1.05 0.70 1.50 -0.55 0.55z"/>
 </g>
 <g fill="#cd8f60">
  <path d="M6.75 39.05 c-0.15 -0.50 -0.70 -1.30 -1.25 -1.80 -0.60 -0.55 -1 -1.55 -1 -2.45 0 -1.20 0.15 -1.35 0.50 -0.80 0.30 0.50 0.50 0.55 0.50 0.15 0 -0.35 0.55 -0.65 1.25 -0.65 0.90 0 1.25 0.25 1.25 1 0 0.55 -0.25 1 -0.55 1 -0.25 0 -0.35 0.25 -0.20 0.50 0.15 0.30 0.90 0.50 1.60 0.50 0.90 0 1.20 -0.20 0.95 -0.75 -0.20 -0.55 0.05 -0.75 0.95 -0.75 1.10 0 1.25 0.25 1.25 1.70 0 1.75 -0.65 2.30 -2.55 2.30 -0.50 0 -0.95 0.25 -0.95 0.50 0 0.90 -1.40 0.55 -1.75 -0.45z"/>
  <path d="M15 38.75 c0 -0.40 -0.20 -0.75 -0.50 -0.75 -0.25 0 -0.50 -0.45 -0.50 -1 0 -0.90 0.20 -0.80 1.45 0.60 1.60 1.80 2.70 1.70 1.20 -0.05 -1.20 -1.40 -1.30 -3.05 -0.15 -3.05 0.50 0 1.15 0.35 1.50 0.75 0.35 0.40 1 0.75 1.45 0.80 0.50 0 0.55 0.10 0.20 0.30 -0.35 0.10 -0.65 0.90 -0.65 1.70 0 1.35 -0.10 1.45 -2 1.45 -1.45 0 -2 -0.20 -2 -0.75z"/>
  <path d="M20.50 37.35 c0 -0.55 5.15 -3.35 6.20 -3.35 0.65 0 -3.55 2.95 -5 3.50 -0.85 0.35 -1.20 0.30 -1.20 -0.15z"/>
  <path d="M18.90 34.65 c-0.50 -0.15 -0.90 -0.45 -0.90 -0.70 0 -0.25 -0.35 -0.45 -0.75 -0.45 -0.40 0 -0.75 -0.30 -0.75 -0.70 0 -0.35 -0.40 -1 -0.85 -1.35 -0.70 -0.60 -0.80 -0.60 -0.45 0.05 0.20 0.45 0.05 0.40 -0.35 -0.10 -0.40 -0.50 -1.10 -0.90 -1.55 -0.90 -0.60 0 -0.75 -0.40 -0.65 -1.75 0.10 -1.60 0.25 -1.75 1.60 -1.75 0.85 0 2.05 -0.35 2.65 -0.80 0.90 -0.60 1.80 -0.75 3.90 -0.45 2.40 0.30 2.70 0.45 2.70 1.50 0 0.90 0.35 1.20 1.65 1.40 0.85 0.15 2 0.35 2.55 0.45 0.95 0.15 1 0.10 2.85 -3.75 l1.15 -2.40 1.20 1.20 1.20 1.20 -1 2.20 c-1.10 2.45 -4.60 6.15 -4.60 4.90 0 -0.45 -0.80 -1 -1.85 -1.35 -1.75 -0.55 -1.95 -0.50 -2.75 0.50 -0.45 0.65 -1 0.95 -1.20 0.75 -0.20 -0.20 0 -0.75 0.45 -1.25 1.70 -1.85 0.60 -2.80 -1.50 -1.35 -1.40 0.95 -3.75 0.10 -3.30 -1.20 0.25 -0.65 0.15 -0.70 -0.40 -0.15 -0.35 0.30 -1.05 0.60 -1.60 0.60 -0.75 0 -0.65 0.25 0.60 1.30 0.85 0.70 1.50 1.55 1.40 1.85 -0.05 0.35 1.05 0.70 2.80 0.90 1.60 0.15 3 0.45 3.20 0.60 0.45 0.50 -4.15 1.30 -5.45 1z"/>
  <path d="M8.85 33.65 c-0.20 -0.15 -0.35 -0.85 -0.35 -1.50 0 -0.60 -0.15 -1.15 -0.35 -1.15 -0.35 0 -1.80 -2.60 -1.50 -2.75 0.05 0 1.30 1.25 2.80 2.85 l2.70 2.90 -1.50 0 c-0.80 0 -1.65 -0.15 -1.80 -0.35z"/>
  <path d="M10.25 31 c-1.35 -2.15 -1.55 -2.75 -0.70 -2.20 0.35 0.20 0.50 0.05 0.35 -0.35 -0.15 -0.40 -0.55 -0.70 -0.90 -0.70 -0.40 0 -0.85 -0.65 -1.05 -1.45 -0.30 -1.10 -0.15 -1.75 0.65 -2.85 0.60 -0.80 1.25 -1.45 1.50 -1.45 0.20 0 0.50 1.15 0.70 2.50 0.20 1.40 0.50 2.50 0.70 2.50 0.20 0 0.40 1.35 0.40 3 0 1.65 -0.05 3 -0.15 3 -0.15 0 -0.80 -0.90 -1.50 -2z"/>
  <path d="M1.15 27.65 c-1.65 -0.30 -1.55 -2.15 0.10 -2.15 1 0 1.25 0.25 1.25 1.25 0 0.70 -0.05 1.20 -0.10 1.20 -0.10 -0.05 -0.65 -0.20 -1.25 -0.30z"/>
  <path d="M20.50 15.80 c-0.85 -1.10 -0.80 -2.40 0.25 -3.95 1 -1.55 2.40 -1.60 2.65 -0.10 0.15 0.80 0.05 0.90 -0.45 0.40 -1.10 -1.10 -1.50 -0.70 -0.75 0.75 0.65 1.20 0.60 1.50 -0.20 2.45 -0.75 0.95 -1 1 -1.50 0.45z"/>
  <path d="M26.80 13 c-0.15 -1.10 -0.50 -2 -0.75 -2 -0.25 0 -0.55 -0.45 -0.70 -1 -0.20 -0.80 0 -1 0.95 -1 0.75 0 1.20 0.30 1.20 0.75 0 0.40 0.25 0.75 0.50 0.75 0.30 0 0.50 0.60 0.50 1.40 0.05 1.15 0.10 1.20 0.55 0.50 0.25 -0.50 0.85 -0.90 1.30 -0.90 0.60 0 0.40 0.50 -0.85 1.75 -0.95 0.95 -1.85 1.75 -2.05 1.75 -0.15 0 -0.45 -0.90 -0.65 -2z"/>
  <path d="M24.60 13.45 c0.10 -0.35 0.50 -0.75 0.85 -0.85 0.40 -0.15 0.60 0.05 0.45 0.45 -0.10 0.35 -0.50 0.75 -0.85 0.85 -0.40 0.15 -0.60 -0.05 -0.45 -0.45z"/>
  <path d="M13.60 11.75 c-0.90 -1.40 -0.95 -1.75 -0.35 -1.75 0.40 0 0.75 -0.35 0.75 -0.80 0 -0.65 0.35 -0.75 1.65 -0.50 1 0.20 1.35 0.15 0.90 -0.15 -0.75 -0.50 -0.40 -2.05 0.45 -2.05 0.30 0 0.75 0.50 0.95 1.15 0.35 0.85 0.20 1.40 -0.65 2.30 -0.55 0.65 -0.75 1.05 -0.40 0.85 1 -0.60 0.65 0.45 -0.55 1.60 -0.65 0.60 -1.25 1.10 -1.40 1.10 -0.10 0 -0.70 -0.80 -1.35 -1.75z"/>
  <path d="M19 11.85 c0 -0.90 1.40 -2.10 1.85 -1.65 0.20 0.15 -0.15 0.75 -0.75 1.30 -0.80 0.75 -1.10 0.85 -1.10 0.35z"/>
  <path d="M9.25 11 c0.50 -0.55 1.10 -1 1.35 -1 0.20 0 0.15 0.45 -0.20 1 -0.35 0.55 -0.95 1 -1.35 1 -0.55 0 -0.50 -0.25 0.20 -1z"/>
  <path d="M23 9.45 c-1.70 -0.60 -2.45 -1.95 -1.95 -3.40 0.40 -0.95 0.60 -1.05 1.20 -0.55 0.40 0.35 0.75 0.90 0.75 1.20 0 0.30 0.35 1.15 0.70 1.95 0.40 0.75 0.70 1.35 0.65 1.30 -0.05 0 -0.65 -0.25 -1.35 -0.50z"/>
 </g>
 <g fill="#6f82d7">
  <path d="M0.90 39.65 c-0.55 -0.15 -0.90 -0.70 -0.90 -1.40 0 -1 0.20 -1.15 1.90 -1.05 2.30 0.10 3.10 0.60 3.10 1.85 0 0.75 -0.35 0.95 -1.60 0.90 -0.90 -0.05 -2.05 -0.15 -2.50 -0.30z"/>
  <path d="M38.70 39.20 c0.15 -0.45 0.30 -0.90 0.30 -1 0 -0.10 0.25 -0.20 0.50 -0.20 0.30 0 0.50 0.45 0.50 1 0 0.60 -0.35 1 -0.80 1 -0.55 0 -0.70 -0.25 -0.50 -0.80z"/>
  <path d="M1.25 33 c-0.15 -0.55 -0.55 -1 -0.80 -1 -0.25 0 -0.45 -0.20 -0.45 -0.45 0 -0.25 0.45 -0.35 1 -0.20 1.15 0.30 1.20 0.20 0.50 -1.55 -0.55 -1.45 -0.40 -1.55 1.05 -0.75 0.60 0.30 0.90 0.85 0.75 1.25 -0.30 0.75 0.55 2.65 1.45 3.30 0.30 0.20 -0.35 0.40 -1.35 0.40 -1.40 0 -1.90 -0.25 -2.15 -1z"/>
  <path d="M1.80 27.75 c-0.95 -0.70 -0.95 -0.75 0.35 -0.75 0.85 0 1.35 0.25 1.35 0.75 0 0.95 -0.45 0.95 -1.70 0z"/>
  <path d="M0.50 26 c0 -0.25 0.35 -0.50 0.75 -0.50 0.40 0 0.95 -0.75 1.20 -1.60 l0.45 -1.65 0.05 2.15 c0.05 1.90 -0.05 2.10 -1.20 2.10 -0.70 0 -1.25 -0.20 -1.25 -0.50z"/>
  <path d="M37.65 18.50 c-0.65 -6.15 -2.30 -11.85 -4.45 -15.25 l-1.25 -2 2 2.05 c3 3.15 4.65 8.90 4.45 15.80 l-0.15 5.15 -0.60 -5.75z"/>
  <path d="M2.75 11 c0.85 -2.95 5.10 -9 6.35 -9 0.25 0 -0.95 2.10 -2.65 4.65 -3.60 5.40 -4.20 6.10 -3.70 4.35z"/>
 </g>
 <g fill="#a37bab">
  <path d="M1 38.95 c0 -0.85 0.25 -1 1.25 -0.85 0.65 0.15 1.10 0.05 0.95 -0.15 -0.15 -0.25 0.10 -0.45 0.50 -0.45 0.50 0 0.80 0.45 0.80 1.25 0 1.10 -0.20 1.25 -1.75 1.25 -1.45 0 -1.75 -0.20 -1.75 -1.05z"/>
  <path d="M17.85 39.65 c-0.20 -0.15 -0.35 -0.70 -0.35 -1.15 0 -0.45 -0.40 -1.25 -0.85 -1.80 -0.50 -0.55 -0.95 -1.30 -1.05 -1.70 -0.30 -1.15 -1.15 -2 -1.75 -1.65 -0.30 0.15 -0.35 0.05 -0.15 -0.25 0.20 -0.30 -0.05 -1.15 -0.50 -1.85 -1.05 -1.60 -0.65 -2.75 0.90 -2.40 1.55 0.45 3.90 2.20 3.90 2.95 0 0.35 0.30 0.85 0.65 1.05 0.30 0.20 0.90 0.75 1.20 1.20 0.55 0.65 0.45 0.75 -0.95 0.55 -2 -0.30 -1.50 0.65 0.90 1.65 1.75 0.70 1.95 1.75 0.35 1.75 -0.70 0 -0.70 0.15 0.10 1 0.90 1 0.85 1 -0.60 1 -0.80 0 -1.65 -0.15 -1.80 -0.35z"/>
  <path d="M12.50 36.35 c0 -1.35 0.20 -1.65 1.15 -1.70 0.60 0 0.80 0.05 0.45 0.20 -0.45 0.15 -0.35 0.65 0.45 1.70 l1 1.45 -1.50 0 c-1.40 0 -1.55 -0.15 -1.55 -1.65z"/>
  <path d="M5 36.25 c0 -0.40 -0.30 -0.75 -0.70 -0.75 -0.40 0 -1.10 -0.15 -1.60 -0.35 -0.65 -0.25 -0.75 -0.15 -0.45 0.35 0.25 0.45 0.20 0.55 -0.20 0.30 -0.30 -0.20 -0.45 -0.55 -0.30 -0.80 0.15 -0.25 -0.15 -0.75 -0.75 -1.10 -1.35 -0.85 -1.40 -2.90 0 -2.55 0.80 0.20 1 0 1 -1.05 0 -1.30 0.65 -1.75 1.25 -0.80 0.20 0.30 0.10 0.85 -0.20 1.20 -0.45 0.50 -0.20 1.05 0.90 2.25 1.20 1.25 1.50 1.40 1.75 0.75 0.15 -0.45 0.20 -1 0 -1.25 -0.65 -1.05 0.80 -0.35 1.80 0.90 0.95 1.25 1 1.40 0.25 1.95 -0.75 0.55 -0.75 0.65 0.10 1.15 0.75 0.45 0.60 0.50 -0.95 0.55 -1.35 0 -1.90 -0.20 -1.90 -0.75z"/>
  <path d="M8.65 33.65 c-0.65 -0.95 -1.15 -2.15 -1.15 -2.70 0 -0.70 -0.35 -0.95 -1.25 -0.95 -0.70 0 -1.25 -0.20 -1.25 -0.50 0 -0.30 -0.15 -0.45 -0.35 -0.40 -0.25 0.05 -1.35 -0.45 -2.50 -1.10 -2.55 -1.50 -2.80 -2.75 -0.65 -2.80 1.30 -0.05 1.50 0.10 1.50 1.25 0 0.80 0.15 1.05 0.40 0.70 0.60 -0.95 3.10 0.60 5.10 3.10 2 2.50 2.85 2.90 1.85 0.90 -0.40 -0.80 -0.60 -1.70 -0.50 -2 0.45 -1.25 1.50 -0.65 2.05 1.15 0.50 1.60 0.45 1.80 -0.65 2.30 -0.65 0.30 -1.25 1.05 -1.35 1.65 -0.15 1 -0.25 0.95 -1.25 -0.60z"/>
 </g>
 <g fill="#cc9c7f">
  <path d="M7 39.25 c0 -0.40 0.35 -0.75 0.75 -0.75 0.40 0 0.75 -0.30 0.75 -0.70 0 -0.40 0.40 -0.65 0.90 -0.60 0.55 0.05 0.80 -0.25 0.70 -0.80 -0.10 -0.60 0.20 -0.90 0.90 -0.90 0.80 0 1 0.30 1 1.75 0 1.65 -0.10 1.75 -1.75 1.75 -0.95 0 -1.75 0.25 -1.75 0.50 0 0.30 -0.35 0.50 -0.75 0.50 -0.40 0 -0.75 -0.35 -0.75 -0.75z"/>
  <path d="M14.95 37.90 c-0.60 -1.15 -0.60 -1.15 0.50 -0.20 1.15 1.05 1.30 1.30 0.55 1.30 -0.25 0 -0.75 -0.50 -1.05 -1.10z"/>
  <path d="M17.50 38.25 c0 -0.45 -0.35 -0.90 -0.75 -1.05 -0.40 -0.20 -0.60 -0.50 -0.45 -0.75 0.15 -0.25 0.05 -0.45 -0.25 -0.45 -0.45 0 -0.40 -2.30 0.10 -2.80 0.10 -0.15 0.70 0.50 1.30 1.45 0.80 1.30 1.40 1.70 2.60 1.75 0.85 0 1.70 0.20 1.85 0.35 0.50 0.50 -1.05 1.30 -2 1.05 -0.55 -0.10 -0.90 0.10 -0.90 0.50 0 0.40 -0.35 0.70 -0.75 0.70 -0.40 0 -0.75 -0.35 -0.75 -0.75z"/>
  <path d="M4 35.75 c0 -0.40 -0.45 -0.75 -1 -0.75 -0.80 0 -1 -0.35 -1 -1.75 0 -0.95 0.25 -1.75 0.55 -1.75 0.25 0 0.35 0.25 0.20 0.50 -0.15 0.30 0 0.50 0.35 0.50 0.35 0 0.95 0.50 1.35 1.10 0.60 0.95 0.70 1 1.15 0.25 0.70 -1.30 1.90 -1.05 1.90 0.40 0 0.95 -0.20 1.15 -0.85 0.90 -0.75 -0.25 -0.70 -0.15 0.10 0.50 0.95 0.80 0.95 0.80 -0.85 0.85 -1.35 0 -1.90 -0.20 -1.90 -0.75z"/>
  <path d="M19 34.50 c-0.70 -0.15 -1.50 -0.80 -1.80 -1.45 -0.90 -1.75 -1.65 -2.30 -3.10 -2.30 -1.20 0 -1.35 -0.15 -1.25 -1.60 0.10 -0.85 -0.05 -1.70 -0.30 -1.90 -0.75 -0.40 -1.20 2.60 -0.55 3.70 0.45 0.90 0.40 1.05 -0.40 1.05 -0.95 0 -1.50 -1.05 -1.80 -3.25 -0.10 -0.55 -0.30 -2.15 -0.55 -3.60 -0.35 -2.30 -0.25 -2.60 0.70 -3.10 0.55 -0.35 1 -0.85 0.90 -1.20 -0.15 -0.95 3.60 -0.40 4.70 0.70 1 1 1.20 0.95 3.55 -0.65 1.70 -1.15 2 -1.15 3.55 0.30 1.80 1.70 3.30 2.10 4 1.10 0.85 -1.10 3.95 -0.50 5.40 1 l1.15 1.20 -1.10 2.05 c-0.60 1.10 -1.10 2.35 -1.10 2.65 0 0.35 -0.45 1.05 -0.95 1.50 -0.80 0.75 -1.25 0.80 -3 0.30 -1.10 -0.30 -2.35 -0.90 -2.80 -1.35 -0.70 -0.65 -1 -0.70 -2.15 -0.15 -2.20 1.10 -4.35 0.25 -3.10 -1.25 1 -1.20 0.30 -1.35 -0.90 -0.20 -0.60 0.55 -1.30 0.85 -1.55 0.70 -1.10 -0.65 -0.95 0.80 0.15 1.50 0.65 0.45 1.30 1.25 1.45 1.75 0.20 0.75 0.70 1 2.20 1.05 1.05 0 2.30 0.20 2.80 0.40 1.25 0.50 -2.45 1.45 -4.15 1.05z m-4.50 -8 c0 -0.25 0.40 -0.50 0.95 -0.50 0.50 0 1.50 -0.45 2.20 -1 0.70 -0.55 1.95 -1 2.80 -1 1.05 0 1.55 -0.25 1.55 -0.75 0 -0.90 0.20 -0.90 -2.25 0 -2.35 0.85 -5.55 0.95 -6 0.25 -0.40 -0.65 -2.25 -0.65 -2.25 -0.05 0 1.05 0.65 2.05 1.30 2.05 0.40 0 0.70 0.35 0.70 0.75 0 0.40 0.25 0.75 0.50 0.75 0.30 0 0.50 -0.20 0.50 -0.50z m12.75 0 c0.15 -0.25 0.85 -0.50 1.55 -0.50 1.25 0 1.50 -0.70 0.70 -2 -0.40 -0.65 -0.55 -0.60 -1.15 0.20 -0.60 0.80 -1.10 0.90 -3.30 0.65 -2.30 -0.25 -2.55 -0.20 -2.05 0.40 0.35 0.40 1.05 0.75 1.55 0.75 0.55 0 0.95 0.25 0.95 0.50 0 0.30 0.30 0.50 0.70 0.50 0.40 0 0.90 -0.20 1.05 -0.50z"/>
  <path d="M8.15 31.25 c-0.45 -1.20 0.05 -1.35 1 -0.25 0.70 0.85 0.75 1 0.10 1 -0.45 0 -0.90 -0.35 -1.10 -0.75z"/>
  <path d="M20.50 12.55 c0.70 -1.30 0.65 -1.55 -0.25 -1.25 -1.10 0.45 -0.90 -0.70 0.20 -1.30 1.05 -0.50 2.55 -0.20 2.55 0.55 0 1.05 -0.10 1.20 -0.75 1.05 -0.45 -0.10 -0.60 0.20 -0.40 0.90 0.20 0.75 0 1 -0.80 1 -0.90 0 -1 -0.15 -0.55 -0.95z"/>
  <path d="M14 9.50 c0 -0.70 0.35 -1 1.05 -1 0.55 0 0.85 0.20 0.70 0.50 -0.15 0.30 0.05 0.35 0.50 0.20 0.60 -0.25 0.65 -0.50 0.30 -0.85 -0.75 -0.75 -0.70 -1.35 0.20 -1.35 1.05 0 1 2.80 -0.05 3.20 -1.60 0.60 -2.70 0.30 -2.70 -0.70z"/>
  <path d="M25.30 9.65 c-0.20 -0.45 -0.10 -1.05 0.20 -1.35 0.35 -0.35 0.50 -0.10 0.50 0.85 0 1.55 -0.25 1.70 -0.70 0.50z"/>
  <path d="M23 9.50 c-0.40 -0.25 -1.25 -0.50 -1.85 -0.50 -0.65 0 -1.15 -0.20 -1.15 -0.50 0 -0.95 3.25 -0.55 3.90 0.50 0.65 1.10 0.30 1.30 -0.90 0.50z"/>
 </g>
 <g fill="#eaa75e">
  <path d="M16 39.25 c0 -0.40 -0.30 -0.75 -0.70 -0.75 -0.40 0 -0.85 -0.35 -1 -0.80 -0.50 -1.30 -0.05 -1.30 1.20 0.05 1.45 1.55 2.10 1.60 1.90 0.15 -0.10 -0.65 -0.45 -1.10 -0.75 -1.05 -0.40 0.10 -0.50 -0.20 -0.30 -0.70 0.25 -0.60 0.15 -0.70 -0.35 -0.40 -0.40 0.25 -0.55 0.20 -0.35 -0.10 0.15 -0.25 -0.50 -1.55 -1.45 -2.90 -1.60 -2.25 -2.25 -4.15 -1.25 -3.55 0.25 0.20 0.35 -0.15 0.20 -0.70 -0.20 -0.70 0 -1 0.50 -1 0.45 0 0.85 0.50 0.95 1.15 0.10 0.60 0.45 1.05 0.80 1 0.30 -0.10 0.60 0.20 0.60 0.60 0 0.40 0.30 0.60 0.70 0.45 0.80 -0.30 1.50 0.55 1.05 1.35 -0.25 0.35 -0.80 0.10 -1.55 -0.60 -1.25 -1.20 -2.20 -1.05 -1.10 0.15 1.20 1.25 2.90 3.85 2.90 4.40 0 0.25 0.30 0.50 0.65 0.50 0.45 0 0.70 0.65 0.75 1.75 0.05 1.70 0 1.75 -1.65 1.75 -1.20 0 -1.75 -0.25 -1.75 -0.75z"/>
  <path d="M3.40 35.85 c-1.85 -1.45 -3.35 -2.75 -3.35 -2.95 -0.05 -0.25 0.90 -0.40 2.05 -0.40 1.15 0 1.90 0.15 1.75 0.30 -0.35 0.35 3.05 3.20 5 4.25 1.65 0.90 1.85 0.30 0.75 -1.90 -1.20 -2.25 -4.55 -5.55 -7.50 -7.20 -1.95 -1.10 -3 -2.90 -1.35 -2.30 0.40 0.20 0.85 0.10 1 -0.20 0.40 -0.55 2.75 1.50 2.75 2.45 0 0.30 0.50 0.60 1.15 0.60 0.70 0 2.25 1.20 4.30 3.25 1.75 1.80 2.95 3.25 2.65 3.25 -0.35 0 -0.60 0.65 -0.60 1.45 0 1.20 -0.25 1.45 -1.55 1.75 -2.80 0.55 -3.65 0.25 -7.05 -2.35z"/>
  <path d="M12.15 33.40 c-1.40 -1.50 -1.50 -1.80 -1.15 -3.90 0.25 -1.60 0.40 -1.85 0.45 -0.85 0.05 1.45 1.45 4.35 2.10 4.35 0.20 0 0.45 0.45 0.60 1 0.35 1.45 -0.25 1.25 -2 -0.60z"/>
  <path d="M18.75 29.50 c-0.45 -0.75 0.20 -1.50 1.30 -1.50 0.60 0 0.95 0.35 0.95 1 0 1.05 -1.65 1.45 -2.25 0.50z"/>
  <path d="M20.20 15.25 c-0.45 -1.10 0.20 -3.25 1 -3.25 0.90 0 1.40 1.90 0.75 3.10 -0.60 1.10 -1.40 1.15 -1.75 0.15z"/>
  <path d="M27 13.70 c0 -0.75 -0.50 -2.10 -1.05 -3.05 -1 -1.65 -1 -1.75 -0.20 -2.65 0.50 -0.55 1.05 -1 1.25 -1 0.20 0 0.65 1.25 1 2.75 l0.65 2.70 1.45 -1 c1.70 -1.25 2.35 -1 0.95 0.25 -0.55 0.50 -0.85 1.25 -0.70 1.70 0.20 0.65 0.15 0.70 -0.25 0.15 -0.35 -0.45 -0.60 -0.50 -0.80 -0.10 -0.20 0.30 -0.80 0.80 -1.35 1.05 -0.85 0.45 -0.95 0.35 -0.95 -0.80z"/>
  <path d="M14.50 13.35 c0 -0.45 -0.60 -1.50 -1.30 -2.35 -0.75 -0.85 -1.20 -1.65 -1.10 -1.75 0.55 -0.60 3.40 -0.85 3.40 -0.35 0 0.30 0.35 0.45 0.75 0.30 0.60 -0.25 0.65 -0.45 0.20 -1.05 -0.45 -0.55 -0.45 -0.85 0 -1.30 0.50 -0.45 0.75 -0.40 1.35 0.35 0.95 1.35 0.90 1.65 -0.55 2.60 -1.20 0.75 -1.85 2.15 -0.70 1.40 0.80 -0.50 -0.30 1.45 -1.25 2.30 -0.65 0.50 -0.80 0.50 -0.80 -0.15z"/>
  <path d="M33.75 13 c-0.50 -0.55 -0.65 -1 -0.40 -1 0.65 0 1.90 1.45 1.55 1.75 -0.15 0.15 -0.65 -0.20 -1.15 -0.75z"/>
  <path d="M11 11.75 c0 -0.40 0.25 -0.75 0.50 -0.75 0.30 0 0.50 0.35 0.50 0.75 0 0.40 -0.20 0.75 -0.50 0.75 -0.25 0 -0.50 -0.35 -0.50 -0.75z"/>
  <path d="M9 11.50 c0 -0.25 0.45 -0.70 1 -1 0.95 -0.50 1 -0.50 0.40 0.45 -0.65 1.10 -1.40 1.40 -1.40 0.55z"/>
  <path d="M19.45 11.10 c0.90 -1.70 3.15 -1.80 3.80 -0.25 0.40 1.10 0 1.30 -1.20 0.65 -0.75 -0.40 -1.35 -0.40 -2.10 0 -0.95 0.50 -1 0.50 -0.50 -0.40z"/>
  <path d="M22.80 9.40 c-0.50 -0.25 -1.55 -0.40 -2.35 -0.20 -1.35 0.25 -1.40 0.20 -0.85 -0.70 0.35 -0.55 0.95 -1 1.30 -1 0.35 0 0.50 -0.20 0.35 -0.50 -0.15 -0.25 -0.10 -0.90 0.20 -1.35 0.40 -0.75 0.65 -0.50 1.55 1.55 0.55 1.35 0.95 2.50 0.90 2.60 -0.10 0.05 -0.55 -0.10 -1.10 -0.40z"/>
  <path d="M21.50 0.50 c0 -0.25 0.35 -0.50 0.75 -0.50 0.40 0 0.75 0.25 0.75 0.50 0 0.30 -0.35 0.50 -0.75 0.50 -0.40 0 -0.75 -0.20 -0.75 -0.50z"/>
 </g>
 <g fill="#987fef">
  <path d="M0 38.50 c0 -0.80 0.25 -1.50 0.50 -1.50 0.30 0 0.50 0.20 0.50 0.45 0 0.25 0.55 0.55 1.20 0.65 0.85 0.20 1.15 0.05 0.95 -0.45 -0.40 -0.95 0.55 -0.80 1.55 0.30 0.50 0.55 0.75 1.25 0.55 1.50 -0.45 0.75 -2.10 0.70 -2.40 -0.05 -0.20 -0.50 -0.30 -0.50 -0.30 0 -0.05 0.30 -0.60 0.60 -1.30 0.60 -1.05 0 -1.25 -0.25 -1.25 -1.50z"/>
  <path d="M3.70 35.65 c-1.05 -0.90 -2.30 -1.75 -2.75 -1.90 -0.55 -0.20 -0.75 -0.65 -0.60 -1.30 0.15 -0.55 0.55 -0.90 0.95 -0.75 0.40 0.15 0.70 -0.25 0.80 -1.20 0.10 -1.10 0.30 -1.35 0.85 -1.05 0.40 0.30 0.50 0.70 0.25 1.10 -0.70 1.15 -0.65 1.95 0.10 1.95 0.40 0 0.65 0.20 0.60 0.45 -0.10 0.20 0.80 1.20 1.95 2.15 2 1.70 2.05 1.80 0.95 2 -0.75 0.15 -1.75 -0.30 -3.10 -1.45z"/>
  <path d="M9.20 33.50 c-1.60 -1.70 -3.50 -3.35 -4.20 -3.75 -0.70 -0.40 -1.90 -1.30 -2.70 -1.95 -1.25 -1.05 -1.40 -1.35 -0.85 -2 0.80 -1 1.55 -1.05 1.55 -0.15 0 0.40 0.60 0.95 1.30 1.25 0.95 0.45 1.20 0.85 0.95 1.60 -0.25 0.75 -0.10 1 0.65 1 0.50 0 1.35 0.45 1.85 1 0.50 0.55 1.05 1 1.25 1 0.50 0 5 4.10 5 4.60 0 1.25 -2.20 0.05 -4.80 -2.60z"/>
  <path d="M6.25 34.85 c-0.50 -0.40 -0.75 -0.95 -0.55 -1.25 0.20 -0.30 0.10 -1.10 -0.20 -1.70 -0.40 -0.85 -0.15 -0.75 0.95 0.50 2.20 2.30 2.05 4.05 -0.20 2.45z"/>
  <path d="M12.05 33.30 c-1.20 -1.25 -1.60 -2 -1.35 -2.65 0.35 -0.85 0.40 -0.85 1.10 0.10 0.40 0.55 1 1.35 1.35 1.75 0.90 1.05 1.40 2.50 0.95 2.50 -0.25 0 -1.15 -0.75 -2.05 -1.70z"/>
  <path d="M14.90 33.50 c-0.80 -1.45 -0.80 -1.45 0.15 -0.85 0.50 0.30 0.95 1 0.95 1.45 0 1.20 -0.10 1.15 -1.10 -0.60z"/>
 </g>
 <g fill="#d1acb6">
  <path d="M0.50 39.25 c0 -0.40 0.45 -0.75 1 -0.75 0.55 0 1 0.35 1 0.75 0 0.40 -0.45 0.75 -1 0.75 -0.55 0 -1 -0.35 -1 -0.75z"/>
  <path d="M17.65 39.05 c0.15 -0.55 -0.80 -2.50 -2.45 -5.10 -1.45 -2.30 -2.45 -4.30 -2.25 -4.45 0.55 -0.35 -0.25 -2.50 -0.95 -2.50 -0.80 0 -0.60 2.95 0.35 4.55 0.50 0.80 1.05 1.45 1.25 1.45 0.20 0 0.40 0.40 0.40 0.90 0 0.60 -0.50 0.35 -1.80 -1.05 -1 -1.05 -1.70 -2.05 -1.50 -2.20 0.15 -0.15 0.05 -0.60 -0.20 -0.90 -0.30 -0.35 -0.40 -1.15 -0.30 -1.80 0.15 -0.65 0.25 -1.60 0.25 -2.10 0.05 -0.75 0.40 -0.90 2.15 -0.75 1.70 0.10 2.25 0.40 2.90 1.55 0.50 0.95 0.60 1.50 0.20 1.75 -0.55 0.35 0.35 2.70 1 2.65 1.10 -0.15 1.35 0.05 1.20 0.85 -0.10 0.55 0.20 0.90 1 1 0.60 0.10 1.10 0.50 1.10 0.90 0 1.25 -2.15 0.60 -2.85 -0.85 -0.70 -1.45 -2.05 -2.75 -2.40 -2.35 -0.15 0.15 0.20 0.75 0.75 1.40 0.60 0.65 1.50 1.95 2.05 2.85 0.80 1.25 1.35 1.65 2.55 1.65 0.95 0 1.40 0.20 1.25 0.65 -0.10 0.30 -0.65 0.60 -1.25 0.55 -0.65 0 -0.90 0.20 -0.75 0.65 0.15 0.35 0.45 0.65 0.70 0.65 0.25 0 0.45 0.25 0.45 0.50 0 0.30 -0.70 0.50 -1.55 0.50 -1.30 0 -1.50 -0.15 -1.30 -0.95z"/>
  <path d="M12 35.80 c0 -1.65 -0.65 -2.30 -2.30 -2.30 -0.85 0 -3.15 -2.45 -3.20 -3.35 0 -0.35 -0.50 -0.65 -1.10 -0.65 -1.20 -0.05 -3.90 -2.10 -3.90 -3 0 -0.65 0 -0.65 2.30 0.30 1.65 0.70 8.25 6.80 10.65 9.85 0.60 0.75 0.55 0.85 -0.90 0.85 -1.45 0 -1.55 -0.15 -1.55 -1.70z"/>
  <path d="M1.15 33.80 c-1.15 -0.55 -1.60 -2.30 -0.60 -2.30 0.75 0 2.40 0.95 3.50 2.05 0.95 0.95 0.95 0.95 -0.40 0.90 -0.80 -0.05 -1.90 -0.30 -2.50 -0.65z"/>
  <path d="M15 23.40 c0 -0.85 0.30 -1.15 1.15 -1.15 0.60 -0.05 1.60 -0.25 2.25 -0.45 1.05 -0.35 1.15 -0.25 1 1.05 -0.15 1.25 -0.35 1.40 -2.25 1.55 -1.95 0.15 -2.15 0.05 -2.15 -1z"/>
  <path d="M20.65 23.25 c-0.35 -0.40 -0.65 -1.15 -0.65 -1.75 0 -0.80 0.25 -0.95 1.25 -0.80 1.65 0.30 2.25 0.70 2.25 1.60 0 0.40 0.45 0.75 1 0.80 0.55 0 1.30 0.05 1.65 0.10 0.30 0.05 0.60 -0.30 0.60 -0.70 0 -0.45 0.40 -0.70 1 -0.60 1.30 0.25 1.45 0.40 1.10 1.35 -0.45 1.05 -7.30 1.05 -8.20 0z"/>
  <path d="M10.25 22 c0.15 -0.25 0.75 -0.50 1.30 -0.50 0.50 0 0.95 0.25 0.95 0.50 0 0.30 -0.60 0.50 -1.30 0.50 -0.70 0 -1.15 -0.20 -0.95 -0.50z"/>
 </g>
 <g fill="#e9bc92">
  <path d="M5.85 37.75 c-1.70 -2 -1.80 -2.25 -0.90 -2.25 0.55 0 1.75 0.45 2.65 1 3.25 1.95 3.75 1 1.40 -2.65 -1.25 -2 -1.35 -2.35 -0.60 -2.35 0.45 0 1.60 0.70 2.50 1.55 1.35 1.25 1.60 1.85 1.60 3.75 0 2.35 -0.10 2.45 -3 2.90 -1.60 0.25 -1.90 0.05 -3.65 -1.95z"/>
  <path d="M16 39.25 c0 -0.40 0.30 -0.60 0.70 -0.45 1.35 0.50 1.25 -0.65 -0.25 -2.85 -0.80 -1.20 -1.45 -2.45 -1.45 -2.80 0 -0.35 -0.60 -1.20 -1.30 -1.90 -1.30 -1.30 -1.35 -2.40 -0.05 -1.35 0.40 0.35 0.90 0.40 1.10 0.20 0.25 -0.20 0.25 -0.05 0.05 0.25 -0.20 0.40 0.25 1.45 1.10 2.50 1.35 1.75 4.10 6.35 4.10 6.90 0 0.15 -0.90 0.25 -2 0.25 -1.45 0 -2 -0.20 -2 -0.75z"/>
  <path d="M4.25 38.95 c-0.20 -0.30 -0.25 -0.65 -0.10 -0.80 0.35 -0.35 1.35 0.30 1.35 0.90 0 0.60 -0.85 0.60 -1.25 -0.10z"/>
  <path d="M19.50 37 c0 -0.25 0.45 -0.50 1 -0.50 0.55 0 1 0.25 1 0.50 0 0.30 -0.45 0.50 -1 0.50 -0.55 0 -1 -0.20 -1 -0.50z"/>
  <path d="M1.35 34 c-1.55 -0.85 -1.60 -2.35 -0.10 -2.10 1.55 0.25 2.80 1.75 2.10 2.35 -0.45 0.40 -1 0.30 -2 -0.25z"/>
  <path d="M18.15 33.75 c-0.90 -1 -0.85 -1.05 1.50 -0.85 3 0.25 3.85 0.60 2.60 1.10 -1.55 0.65 -3.45 0.55 -4.10 -0.25z"/>
  <path d="M16.85 31.65 c-0.60 -0.60 -0.35 -1.10 0.40 -0.85 0.40 0.20 0.75 0.50 0.75 0.75 0 0.55 -0.70 0.60 -1.15 0.10z"/>
  <path d="M19.05 29.55 c-0.55 -0.35 -0.50 -0.65 0.20 -1.75 1 -1.55 1.75 -1.70 1.75 -0.35 0 0.55 0.25 1.15 0.50 1.30 0.30 0.20 0.40 0.55 0.25 0.80 -0.40 0.55 -1.80 0.60 -2.70 0z"/>
  <path d="M29 29.70 c0 -0.25 0.25 -0.75 0.60 -1.10 0.30 -0.30 0.45 -0.75 0.25 -0.95 -0.20 -0.20 -0.65 -0.05 -0.95 0.25 -0.35 0.35 -1.10 0.60 -1.70 0.60 -0.60 0 -1.25 0.30 -1.40 0.65 -0.15 0.40 -0.55 0.25 -1.25 -0.55 -0.55 -0.65 -1.25 -1.05 -1.50 -0.90 -0.25 0.20 -0.95 -0.30 -1.50 -1 l-1 -1.30 -1.35 1.05 c-0.75 0.60 -1.65 1.05 -2.05 1.05 -0.40 0 -1.10 0.35 -1.50 0.80 -0.75 0.70 -0.90 0.65 -1.95 -0.65 -1.15 -1.35 -1.25 -1.35 -1.90 -0.45 -0.70 0.85 -2.10 0.70 -1.55 -0.15 0.10 -0.25 -0.10 -1.15 -0.55 -2 -0.75 -1.50 -0.75 -1.70 0.10 -2.60 0.45 -0.50 1.35 -0.95 1.95 -0.95 0.55 0 1.30 -0.25 1.60 -0.55 0.35 -0.35 0.90 -0.15 1.80 0.75 1.60 1.60 1.95 1.60 3.65 0.05 1.65 -1.50 1.70 -1.50 3.15 -0.20 1.65 1.55 4.15 2.15 4.85 1.20 0.85 -1.10 3.85 -0.95 4.60 0.25 0.80 1.30 0.05 4.75 -1.35 6.20 -0.60 0.55 -1.05 0.80 -1.05 0.50z"/>
  <path d="M27.50 13 c0 -0.55 -0.45 -1.45 -1 -2 -1.15 -1.15 -1.25 -1.95 -0.35 -3.25 0.95 -1.25 2 -0.50 1.70 1.25 -0.15 0.75 -0.10 1.55 0.10 1.80 0.25 0.25 0.55 1.05 0.75 1.85 0.25 1 0.15 1.35 -0.45 1.35 -0.40 0 -0.75 -0.45 -0.75 -1z"/>
  <path d="M29.70 11.75 c0.55 -0.40 1.10 -0.60 1.25 -0.45 0.30 0.30 -0.95 1.20 -1.70 1.20 -0.25 -0.05 -0.05 -0.35 0.45 -0.75z"/>
  <path d="M9 11.25 c0.35 -0.40 0.80 -0.75 1.05 -0.75 0.25 0 0.30 0.35 0.15 0.75 -0.20 0.40 -0.65 0.75 -1.05 0.75 -0.65 0 -0.65 -0.15 -0.15 -0.75z"/>
  <path d="M20.85 11.15 c-0.70 -0.20 -0.80 -0.40 -0.30 -0.95 0.40 -0.50 0.80 -0.55 1.50 -0.15 1.85 0.95 1.05 1.70 -1.20 1.10z"/>
  <path d="M19.75 8.50 c0.15 -0.25 0.95 -0.50 1.80 -0.50 0.80 0 1.45 0.25 1.45 0.50 0 0.30 -0.80 0.50 -1.80 0.50 -1.05 0 -1.65 -0.20 -1.45 -0.50z"/>
 </g>
 <g fill="#fbd47b">
  <path d="M6.45 38.15 c-0.25 -0.75 -5.30 -4.65 -5.95 -4.65 -0.25 0 -0.50 -0.45 -0.50 -1 0 -1.35 0.45 -1.25 3.05 0.45 3.35 2.25 4.65 3.80 4.05 4.85 -0.25 0.45 -0.55 0.60 -0.65 0.35z"/>
  <path d="M10.20 34.75 c-0.50 -2 -0.05 -2.30 1.70 -0.95 2 1.60 2.05 2.20 0.10 2.20 -1.15 0 -1.55 -0.25 -1.80 -1.25z"/>
  <path d="M14.40 32.65 c-1 -1.60 -1.75 -3 -1.60 -3.10 0.15 -0.15 0.45 0.05 0.65 0.40 0.25 0.40 0.70 0.50 1.05 0.30 0.45 -0.25 0.55 -0.20 0.30 0.20 -0.20 0.30 0.20 1.25 0.90 2.10 1.25 1.45 1.70 2.95 0.95 2.95 -0.25 0 -1.25 -1.30 -2.25 -2.85z"/>
  <path d="M12.30 33 c-0.70 -0.90 -1.20 -1.80 -1 -2.05 0.15 -0.25 0.85 0.35 1.50 1.35 1.60 2.30 1.25 2.75 -0.50 0.70z"/>
  <path d="M5.45 30.10 c-2.65 -1.75 -4.65 -3.55 -4.35 -3.90 0.20 -0.20 1.60 0.25 3.15 1 2.25 1.05 2.75 1.50 2.75 2.55 0 0.70 -0.05 1.25 -0.10 1.20 -0.10 0 -0.75 -0.40 -1.45 -0.85z"/>
  <path d="M20.25 15 c-0.55 -0.85 0.20 -3 1 -3 0.95 0 0.95 1.45 0.05 2.65 -0.50 0.60 -0.80 0.75 -1.05 0.35z"/>
  <path d="M26.60 11.50 c-0.85 -1.95 -1 -2.75 -0.60 -3.50 0.75 -1.35 1.45 -1.25 1.75 0.25 0.15 0.70 0.35 1.85 0.50 2.65 0.15 0.75 0.40 1.75 0.55 2.25 0.15 0.50 0 0.85 -0.40 0.85 -0.40 0 -1.20 -1.15 -1.80 -2.50z"/>
  <path d="M29.50 12.15 c0 -0.25 0.45 -0.70 1 -1.05 0.55 -0.35 1 -0.40 1 -0.10 0 0.25 -0.45 0.70 -1 1 -0.55 0.30 -1 0.35 -1 0.15z"/>
  <path d="M9 11.25 c0.35 -0.40 0.85 -0.75 1.10 -0.75 0.30 0 0.25 0.35 -0.10 0.75 -0.35 0.40 -0.85 0.75 -1.10 0.75 -0.30 0 -0.25 -0.35 0.10 -0.75z"/>
  <path d="M13.10 10.70 c-0.75 -0.90 -0.85 -1.20 -0.35 -1 0.45 0.15 0.90 -0.05 1.05 -0.45 0.20 -0.40 0.65 -0.75 1.05 -0.75 0.40 0 0.55 0.25 0.40 0.50 -0.15 0.30 0.20 0.50 0.80 0.50 l1.10 0 -1.15 1.25 c-1.45 1.55 -1.50 1.55 -2.90 -0.05z"/>
  <path d="M20.75 11 c-0.90 -0.35 -0.95 -0.40 -0.10 -0.75 1 -0.40 2.35 0 2.35 0.75 0 0.60 -0.85 0.60 -2.25 0z"/>
  <path d="M21.40 9 l-1.85 -0.25 1 -1.60 c0.60 -0.90 1.25 -1.65 1.50 -1.65 0.35 0 1.65 3.60 1.30 3.75 -0.05 0 -0.95 -0.10 -1.95 -0.25z"/>
  <path d="M16.20 7.95 c-0.40 -0.70 0.55 -1.65 1.25 -1.25 0.30 0.20 0.55 0.70 0.55 1.10 0 0.80 -1.30 0.95 -1.80 0.15z"/>
 </g>
 <g fill="#f0d4b9">
  <path d="M0 39.25 c0 -0.45 0.45 -0.75 1.25 -0.75 0.90 0 1.15 0.20 0.95 0.75 -0.20 0.40 -0.75 0.75 -1.25 0.75 -0.50 0 -0.95 -0.35 -0.95 -0.75z"/>
  <path d="M6.60 38.20 c-1.50 -2.35 -1.15 -3.20 0.60 -1.50 1.60 1.45 3.20 1.70 3.60 0.55 0.50 -1.25 -2 -4.50 -6 -7.85 -2.05 -1.75 -3.60 -3.25 -3.50 -3.35 0.10 -0.10 1.20 0.30 2.40 0.90 1.45 0.65 4.45 3.25 8.20 7.05 l5.95 6 -5.05 0 -5.05 0 -1.15 -1.80z"/>
  <path d="M18.60 39.40 c-0.35 -0.35 -0.60 -0.80 -0.60 -1 0 -0.25 -0.85 -1.75 -1.90 -3.30 -2.45 -3.70 -2.70 -4.45 -1.80 -4.80 0.40 -0.15 0.60 -0.05 0.45 0.20 -0.15 0.25 0.35 1.35 1.15 2.35 0.80 1.05 1.90 2.70 2.40 3.65 0.50 0.95 1.25 2.15 1.65 2.65 0.60 0.75 0.60 0.85 0 0.85 -0.40 0 -1 -0.25 -1.35 -0.60z"/>
  <path d="M18.10 33.90 c-1.10 -1.10 -0.65 -1.25 1.65 -0.75 1.50 0.35 2.05 0.65 1.65 0.95 -0.95 0.60 -2.60 0.50 -3.30 -0.20z"/>
  <path d="M0.15 32.75 c-0.15 -0.45 -0.15 -0.90 0 -1.05 0.35 -0.40 2.35 0.75 2.35 1.30 0 0.80 -2 0.55 -2.35 -0.25z"/>
  <path d="M19 28.85 c0 -0.70 1 -1.85 1.60 -1.85 0.20 0 0.40 0.55 0.40 1.25 0 0.90 -0.25 1.25 -1 1.25 -0.55 0 -1 -0.30 -1 -0.65z"/>
  <path d="M25 27.60 c-1.55 -0.70 -2.80 -1.85 -3.35 -3.20 -0.80 -1.80 -1.45 -1.75 -2.50 0.25 -0.65 1.20 -0.90 1.40 -1.05 0.75 -0.20 -0.90 -1.10 -1.25 -1.10 -0.45 0 0.25 -0.70 0.90 -1.60 1.45 -1.75 1.10 -2.60 0.85 -4.75 -1.35 -1.35 -1.40 -1.40 -1.60 -0.35 -1.20 0.60 0.20 0.70 0 0.40 -1.05 -0.30 -1.20 -0.20 -1.30 1.45 -1.30 0.95 0 1.85 -0.30 2 -0.60 0.10 -0.35 0.40 0 0.60 0.75 0.30 1.10 0.15 1.55 -0.55 2.10 -0.55 0.40 -0.70 0.75 -0.40 0.75 0.30 0 0.95 -0.45 1.45 -1 0.50 -0.55 1.10 -0.85 1.30 -0.70 0.25 0.15 1.05 -0.20 1.75 -0.75 1.55 -1.20 2.85 -1.35 3.80 -0.35 0.40 0.35 1.40 1 2.20 1.45 1.30 0.65 1.65 0.70 2.25 0.15 0.40 -0.40 1.55 -0.85 2.60 -1 1.75 -0.30 1.85 -0.25 1.85 0.90 0 0.75 -0.40 1.50 -1 1.80 -0.55 0.30 -0.90 0.75 -0.75 1 0.35 0.55 -1.70 2 -2.75 1.95 -0.40 0 -1.10 -0.15 -1.50 -0.35z"/>
  <path d="M20.50 13.05 c0 -0.60 0.30 -1.05 0.80 -1.05 0.45 0 0.70 0.35 0.60 0.85 -0.25 1.25 -1.40 1.40 -1.40 0.20z"/>
 </g>
 <g fill="#d7aefa">
  <path d="M0 39.25 c0 -0.45 0.45 -0.75 1.25 -0.75 0.95 0 1.15 0.20 0.90 0.85 -0.20 0.55 -0.40 0.60 -0.55 0.25 -0.10 -0.35 -0.40 -0.60 -0.65 -0.60 -0.30 0 -0.35 0.25 -0.20 0.50 0.15 0.30 0.05 0.50 -0.20 0.50 -0.30 0 -0.55 -0.35 -0.55 -0.75z"/>
  <path d="M3.50 38.95 c0 -1.25 1.65 -1.10 1.90 0.20 0.10 0.60 -0.15 0.85 -0.85 0.85 -0.75 0 -1.05 -0.30 -1.05 -1.05z"/>
  <path d="M10.75 34.30 c-2.50 -2.40 -2.15 -3.30 0.40 -1 2.30 2.05 2.75 2.70 1.85 2.70 -0.30 0 -1.35 -0.75 -2.25 -1.70z"/>
  <path d="M12.10 32.80 c-0.95 -1.05 -1.35 -1.80 -0.95 -1.95 0.55 -0.15 3.10 3.05 2.70 3.45 -0.10 0.10 -0.90 -0.55 -1.75 -1.50z"/>
  <path d="M14.70 32.95 c-0.30 -0.40 -0.70 -1.15 -0.90 -1.70 -0.35 -0.95 -0.30 -0.95 0.75 0.05 0.60 0.60 1 1.35 0.85 1.70 -0.15 0.45 -0.30 0.45 -0.70 -0.05z"/>
  <path d="M2.05 27.05 c-0.85 -0.65 -0.95 -0.90 -0.35 -0.90 0.45 0 0.80 0.20 0.80 0.45 0 0.20 0.35 0.40 0.75 0.40 0.40 0 0.75 0.25 0.75 0.50 0 0.75 -0.60 0.60 -1.95 -0.45z"/>
 </g>
 <g fill="#feeeb0">
  <path d="M18.50 38.65 c-0.40 -0.80 -1.50 -2.50 -2.50 -3.90 -1 -1.35 -2 -2.95 -2.20 -3.50 -0.80 -2.20 2.15 1.40 3.90 4.75 1 1.90 2.10 3.55 2.45 3.65 0.40 0.20 0.30 0.30 -0.20 0.30 -0.45 0.05 -1.10 -0.55 -1.45 -1.30z"/>
  <path d="M13.75 37.55 c-0.80 -1.10 -2.10 -2.30 -2.80 -2.75 -0.70 -0.40 -1.85 -1.55 -2.50 -2.50 -0.65 -1 -1.75 -2 -2.45 -2.30 -0.70 -0.30 -2.10 -1.30 -3.15 -2.25 l-1.95 -1.70 2.55 1 c2 0.75 3.65 2.05 7.55 6.05 4.45 4.60 5.80 6.45 4.65 6.40 -0.25 -0.05 -1.05 -0.90 -1.90 -1.95z"/>
  <path d="M6.55 37.80 c-0.30 -0.35 -1.90 -1.65 -3.55 -2.85 -1.65 -1.20 -3 -2.35 -3 -2.55 0 -0.90 1.70 -0.30 3.65 1.25 2.95 2.30 4.10 3.35 3.65 3.35 -0.25 0 -0.15 0.35 0.20 0.75 0.35 0.40 0.40 0.75 0.10 0.75 -0.25 0 -0.75 -0.30 -1.05 -0.70z"/>
  <path d="M27.60 24.40 c-0.80 -0.80 -0.75 -1.40 0.10 -1.40 0.80 0 1.45 1.35 0.85 1.70 -0.20 0.15 -0.65 0 -0.95 -0.30z"/>
  <path d="M11.10 23 c-0.55 -0.95 -0.50 -1 1.15 -1 1.85 0 2.45 1.10 0.95 1.70 -1.20 0.45 -1.40 0.40 -2.10 -0.70z"/>
  <path d="M20.60 13.20 c0.05 -0.45 0.45 -0.95 0.80 -1.10 0.45 -0.15 0.65 0.10 0.50 0.70 -0.05 0.45 -0.45 0.95 -0.80 1.10 -0.45 0.15 -0.65 -0.10 -0.50 -0.70z"/>
  <path d="M13.80 11.15 c-0.45 -1.10 0.50 -2.05 1.25 -1.30 0.65 0.65 0.25 2.15 -0.50 2.15 -0.25 0 -0.60 -0.40 -0.75 -0.85z"/>
  <path d="M21.15 11.15 c-0.90 -0.35 -0.80 -1.15 0.10 -1.15 0.40 0 0.75 0.35 0.75 0.75 0 0.40 -0.05 0.75 -0.10 0.70 -0.10 0 -0.45 -0.15 -0.75 -0.30z"/>
  <path d="M26.25 10.45 c-0.50 -0.80 0.20 -3.05 0.90 -2.80 0.35 0.10 0.60 0.45 0.55 0.75 -0.05 0.35 -0.10 1.05 -0.10 1.60 -0.10 1.10 -0.85 1.35 -1.35 0.45z"/>
  <path d="M20.35 8.70 c-0.15 -0.20 0.05 -1 0.45 -1.80 0.85 -1.65 1.45 -1.40 1.95 0.75 0.30 1.20 0.20 1.35 -0.85 1.35 -0.70 0 -1.35 -0.15 -1.55 -0.30z"/>
  <path d="M16.25 7.50 c0.15 -0.25 0.65 -0.50 1.05 -0.50 0.40 0 0.70 0.25 0.70 0.50 0 0.30 -0.45 0.50 -1.05 0.50 -0.55 0 -0.85 -0.20 -0.70 -0.50z"/>
 </g>
 <g fill="#fef8de">
  <path d="M7.50 39.40 c0 -0.35 -1.30 -1.85 -2.85 -3.30 -1.60 -1.50 -2.35 -2.45 -1.65 -2.10 1.95 1 3.65 2.45 4.60 3.90 1 1.55 1.10 2.10 0.40 2.10 -0.25 0 -0.50 -0.25 -0.50 -0.60z"/>
  <path d="M7.50 31.25 c-0.40 -0.45 -1.30 -1.25 -2 -1.75 -1.20 -0.95 -1.15 -0.95 0.60 0 1 0.60 1.95 1.35 2.10 1.75 0.35 0.95 0.20 0.95 -0.70 0z"/>
  <path d="M19.50 28 c0.30 -0.55 0.75 -1 1 -1 0.30 0 0.50 0.45 0.50 1 0 0.65 -0.35 1 -1 1 -0.90 0 -0.95 -0.15 -0.50 -1z"/>
  <path d="M27.55 24.30 c-0.50 -0.60 -0.30 -1.30 0.50 -1.30 0.55 0 0.95 1.45 0.50 1.75 -0.25 0.10 -0.70 -0.05 -1 -0.45z"/>
  <path d="M11.30 23.20 c-0.45 -1.15 -0.40 -1.20 0.90 -1.20 1.45 0 2.20 0.95 1.25 1.55 -1.05 0.65 -1.80 0.55 -2.15 -0.35z"/>
  <path d="M21 12.75 c0 -0.40 0.25 -0.75 0.50 -0.75 0.30 0 0.50 0.35 0.50 0.75 0 0.40 -0.20 0.75 -0.50 0.75 -0.25 0 -0.50 -0.35 -0.50 -0.75z"/>
  <path d="M26.10 9.20 c0.05 -0.45 0.45 -0.95 0.80 -1.10 0.45 -0.15 0.65 0.10 0.50 0.70 -0.05 0.45 -0.45 0.95 -0.80 1.10 -0.45 0.15 -0.65 -0.10 -0.50 -0.70z"/>
 </g>
</svg>