<?xml version="1.0" encoding="utf-8"?>
<!DOCTYPE svg PUBLIC "-//W3C//DTD SVG 1.0//EN" "http://www.w3.org/TR/2001/REC-SVG-20010904/DTD/svg10.dtd">
<svg version="1.0" xmlns="http://www.w3.org/2000/svg" width="40px" height="40px" viewBox="0 0 40 40" preserveAspectRatio="xMidYMid meet">
 <g fill="#04030b">
  <path d="M1.50 38.50 c0 -1 -0.25 -1.50 -0.75 -1.50 -1 0 -0.95 -0.60 0.25 -2.75 0.55 -1 1 -2 1 -2.30 0 -0.25 1.45 -2.85 3.25 -5.70 1.80 -2.90 3.50 -5.85 3.75 -6.60 0.20 -0.80 0.55 -4.20 0.75 -7.60 0.20 -4.60 0.55 -6.85 1.25 -8.45 0.55 -1.25 1 -2.50 1 -2.85 0 -0.50 1.95 -0.70 8.70 -0.75 l8.70 -0.05 1.50 1.90 c0.80 1.05 1.95 2.90 2.60 4.15 0.60 1.25 1.40 2.60 1.80 3 0.35 0.45 1.55 2.45 2.70 4.45 l2 3.70 0 11.40 0 11.45 -3 0 c-2.90 0 -3 -0.05 -3 -1.30 0 -0.70 0.45 -1.85 1 -2.55 0.55 -0.70 1 -1.65 1 -2.10 0 -0.45 -0.75 0.50 -1.65 2.10 -1.50 2.75 -1.70 2.90 -3.35 2.75 -1.60 -0.15 -1.75 -0.30 -1.90 -1.95 -0.10 -1.30 0.20 -2.35 1.10 -3.70 2.35 -3.45 2.60 -5.20 1.35 -10.10 -0.60 -2.35 -1.95 -6 -3.05 -8.10 -1.10 -2.10 -2 -4.35 -2 -4.95 0 -0.60 -0.30 -1.10 -0.65 -1.10 -0.35 0 -1.60 -1 -2.80 -2.20 -5.35 -5.45 -9.85 -4.75 -9.60 1.60 0.05 1.45 -0.05 2.85 -0.20 3.10 -0.15 0.25 -0.40 2.10 -0.50 4 -0.15 3.05 0.05 4.05 1.30 7.10 0.80 1.95 1.90 3.90 2.45 4.25 0.70 0.50 1 1.30 1 2.50 l0 1.75 -2.25 -0.20 -2.25 -0.15 0 2.25 c0 2.75 1.15 3.80 3.25 3 0.75 -0.30 2 -0.50 2.80 -0.50 1.45 0 1.50 0.05 1.35 2.15 l-0.15 2.10 -9.35 0.15 -9.40 0.10 0 -1.50z m4.10 -5.35 c0.15 -1.35 0.40 -2.80 0.60 -3.25 0.25 -0.55 0.20 -0.90 -0.15 -0.90 -0.30 0 -0.55 0.35 -0.55 0.75 0 0.40 -0.35 0.75 -0.75 0.75 -0.45 0 -0.75 0.45 -0.75 1.25 0 0.70 -0.20 1.25 -0.50 1.25 -0.25 0 -0.50 0.55 -0.50 1.25 0 1 0.25 1.25 1.20 1.25 1.05 0 1.25 -0.25 1.40 -2.35z"/>
  <path d="M18.50 16.25 c0 -1.60 0.10 -1.75 1.50 -1.75 0.85 0 1.50 -0.20 1.50 -0.50 0 -0.25 0.80 -0.50 1.75 -0.50 1.65 0 1.75 0.10 1.75 1.75 0 1.60 -0.10 1.75 -1.50 1.75 -0.80 0 -1.50 0.25 -1.50 0.50 0 0.30 -0.80 0.50 -1.75 0.50 -1.65 0 -1.75 -0.10 -1.75 -1.75z"/>
 </g>
 <g fill="#0e0d24">
  <path d="M0 37.75 c0 -1.25 0.20 -2.25 0.40 -2.25 0.20 0 0.80 -1.05 1.25 -2.35 0.50 -1.35 1.90 -3.95 3.15 -5.90 1.25 -1.90 2.85 -4.60 3.60 -6 1.10 -2.05 1.35 -2.30 1.50 -1.40 0.10 0.65 -0.45 2.05 -1.30 3.25 -3.15 4.60 -3.35 6 -0.30 1.80 1.65 -2.25 1.95 -2.50 2.10 -1.55 0.10 0.60 -0.20 1.80 -0.65 2.70 -0.50 0.90 -1.30 2.90 -1.80 4.55 l-1 2.95 2.30 2.75 c1.25 1.55 2.25 3 2.25 3.25 0 0.25 -0.90 0.45 -2 0.45 -1.10 0 -2 -0.20 -2 -0.50 0 -0.25 -0.35 -0.50 -0.75 -0.50 -0.40 0 -0.75 0.25 -0.75 0.50 0 1.20 -1.55 0.35 -1.80 -1 -0.20 -0.80 -0.50 -1.50 -0.75 -1.50 -0.25 0 -0.45 0.70 -0.45 1.50 0 1.35 -0.15 1.50 -1.50 1.50 -1.45 0 -1.50 -0.10 -1.50 -2.25z m8.25 -1 c-0.70 -1.05 -1.25 -1.65 -1.25 -1.30 0 0.80 2.20 4.10 2.40 3.60 0.10 -0.25 -0.45 -1.30 -1.15 -2.30z m-2.65 -5.25 c0.15 -0.80 0.10 -1.50 -0.10 -1.50 -0.15 0 -0.55 0.70 -0.85 1.50 -0.45 1.20 -0.45 1.50 0.10 1.50 0.35 0 0.75 -0.65 0.85 -1.50z"/>
  <path d="M26 38.75 c0 -0.70 0.25 -1.25 0.50 -1.25 0.30 0 0.50 -0.40 0.50 -0.95 0 -0.50 0.45 -1.05 1 -1.20 0.55 -0.15 1.10 -0.85 1.25 -1.65 0.15 -0.80 0.50 -1.85 0.80 -2.30 0.25 -0.50 0.45 -1.45 0.45 -2.15 0 -0.80 0.30 -1.25 0.75 -1.25 0.45 0 0.75 -0.45 0.75 -1.25 0 -0.95 -0.25 -1.25 -1.10 -1.25 -0.90 0 -1.35 -0.50 -2 -2.15 -0.50 -1.15 -0.90 -2.50 -0.90 -3 0 -0.55 -0.40 -0.85 -1.25 -0.85 -1.05 0 -1.25 -0.25 -1.25 -1.50 0 -1.15 -0.25 -1.50 -0.95 -1.50 -0.95 0 -1.55 -1.25 -1.55 -3.45 0 -1.05 0.20 -1.15 2 -0.95 1.40 0.10 2 0 2 -0.45 0 -0.35 -0.50 -0.65 -1.15 -0.65 -1.65 0 -2.35 -0.90 -2.35 -3 0 -2 -0.70 -3 -2.10 -3 -0.50 0 -0.90 -0.35 -0.90 -0.75 0 -0.45 -0.45 -0.75 -1.20 -0.75 -0.65 0 -1.55 -0.15 -2 -0.30 -1.05 -0.40 -1.05 -2.20 -0.05 -2.20 1.50 0 5 2.10 7.40 4.40 1.30 1.30 2.35 2.05 2.35 1.75 0 -1.05 -6.10 -6.15 -7.35 -6.15 -0.65 0 -1.15 -0.20 -1.15 -0.50 0 -0.85 3.20 -0.50 4.50 0.50 0.70 0.55 1.55 1 1.85 1 0.35 0 1.50 0.80 2.55 1.75 1.40 1.25 2.60 3.20 4.30 7.10 1.30 3 3.30 7.20 4.40 9.40 2.15 4.35 2.40 6.25 1.70 12.75 -0.25 2.30 -0.70 3.80 -1.65 5.10 l-1.30 1.90 -4.40 0 c-4.40 0 -4.45 0 -4.45 -1.25z m8.65 -7.65 c1.20 -2.55 1.40 -3.40 0.95 -4.25 -0.30 -0.60 -0.75 -2.55 -1.05 -4.25 -0.30 -1.75 -1.30 -4.85 -2.30 -6.90 -0.95 -2.05 -1.75 -3.90 -1.75 -4.10 0 -0.20 -0.55 -1 -1.25 -1.85 -1.85 -2.25 -1.50 -0.55 0.70 3.75 2.30 4.35 4.05 10.60 4.05 14.20 0 2.55 -1.35 6.25 -2.85 7.90 -0.40 0.45 -0.60 1.10 -0.40 1.40 0.40 0.70 1.70 -1.30 3.90 -5.90z m-6.30 -15.95 c-0.20 -0.15 -0.35 0 -0.35 0.35 0 0.35 0.15 0.50 0.35 0.35 0.15 -0.20 0.15 -0.50 0 -0.70z"/>
  <path d="M37 39.50 c0 -0.25 0.30 -0.50 0.70 -0.50 0.70 0 1.30 -1.45 1.30 -3.35 0 -0.65 0.25 -1.15 0.50 -1.15 0.30 0 0.50 1.25 0.50 2.75 0 2.70 0 2.75 -1.50 2.75 -0.80 0 -1.50 -0.20 -1.50 -0.50z"/>
  <path d="M18.20 38.55 c1.25 -1.35 1 -1.45 -1.75 -0.75 -2.35 0.60 -2.65 0.60 -3.95 -0.40 -0.80 -0.60 -1.35 -1.25 -1.20 -1.45 0.30 -0.50 -0.85 -2.95 -1.40 -2.95 -0.20 0 -0.40 -0.35 -0.40 -0.80 0 -0.55 0.30 -0.70 1 -0.45 1.10 0.35 1.20 0.10 0.50 -1.25 -0.30 -0.60 -0.30 -1.40 0.05 -2.45 l0.55 -1.55 1.70 1.50 c0.95 0.80 2 1.50 2.35 1.50 0.35 -0.05 0.10 -0.45 -0.55 -1 -0.65 -0.55 -1.95 -2.95 -2.95 -5.35 -1.70 -4.25 -1.85 -5.80 -0.90 -8.25 0.25 -0.65 0.10 -0.90 -0.50 -0.90 -0.50 0 -0.70 -0.25 -0.55 -0.60 0.15 -0.35 0.45 -1.05 0.60 -1.50 0.20 -0.50 0.50 -0.90 0.75 -0.90 0.25 0 0.45 -0.45 0.45 -1 0 -0.80 0.35 -1 1.75 -1 1.65 0 1.75 0.10 1.75 1.75 0 1.60 -0.10 1.75 -1.50 1.75 -0.80 0 -1.50 0.25 -1.50 0.50 0 0.30 0.25 0.50 0.50 0.50 0.65 0 0.65 3.35 0 3.60 -0.75 0.25 0 5.40 0.80 5.40 0.45 0 0.70 0.60 0.70 1.75 0 1.20 0.25 1.75 0.75 1.75 0.40 0 0.75 0.25 0.75 0.50 0 0.30 1 0.40 2.75 0.20 2.55 -0.30 2.75 -0.25 2.75 0.70 0 0.55 0.25 1.20 0.55 1.40 0.40 0.25 0.50 1.75 0.30 5.10 -0.20 2.60 -0.40 4.80 -0.45 4.85 -0.10 0.05 -1.10 0.25 -2.30 0.40 -2.05 0.25 -2.15 0.20 -1.40 -0.60z m0.15 -4.90 c-0.20 -0.15 -0.50 -0.15 -0.70 0 -0.15 0.20 0 0.35 0.35 0.35 0.35 0 0.50 -0.15 0.35 -0.35z m-4.50 -3.50 c-0.15 -0.50 -0.25 -0.20 -0.25 0.60 0 0.85 0.10 1.20 0.25 0.90 0.10 -0.35 0.10 -1.05 0 -1.50z"/>
  <path d="M39.40 21.20 c-0.25 -0.20 -0.40 -0.75 -0.40 -1.20 0 -1.65 -4.80 -11.15 -6.65 -13.25 -0.50 -0.55 -1.35 -1.80 -1.90 -2.80 -0.95 -1.85 -2.90 -2.95 -5.25 -2.95 -0.65 0 -1.20 -0.20 -1.20 -0.50 0 -0.25 1.15 -0.50 2.50 -0.50 2.20 0 2.70 0.20 4 1.65 0.80 0.85 2 2.60 2.60 3.80 0.60 1.25 2.05 3.70 3.20 5.45 1.20 1.75 2.30 3.65 2.50 4.25 0.20 0.60 0.55 1.25 0.80 1.40 0.25 0.15 0.40 1.35 0.30 2.65 -0.10 1.35 -0.30 2.20 -0.50 2z"/>
  <path d="M17.80 17.20 c-0.15 -0.45 -0.30 -1.45 -0.30 -2.25 0 -1.45 0.10 -1.50 1.90 -1.35 1.80 0.15 1.85 0.20 2 2.30 0.15 2.10 0.15 2.10 -1.55 2.10 -1.15 0 -1.85 -0.30 -2.05 -0.80z m2.70 -0.95 c0 -0.15 -0.10 -0.25 -0.25 -0.25 -0.15 0 -0.25 0.10 -0.25 0.25 0 0.15 0.10 0.25 0.25 0.25 0.15 0 0.25 -0.10 0.25 -0.25z"/>
 </g>
 <g fill="#1d193d">
  <path d="M0 38 c0 -1.10 0.15 -2 0.40 -2 0.20 0 0.75 -1.05 1.20 -2.40 0.50 -1.30 2.05 -4.25 3.45 -6.60 1.45 -2.35 3.05 -5.10 3.60 -6.10 0.50 -1.05 1.05 -1.90 1.20 -1.90 0.60 0 -0.55 2.75 -2.40 5.75 -2.50 3.95 -2.30 4.80 0.30 1.25 1 -1.35 1.90 -2.50 2 -2.50 0.10 0 -0.10 1 -0.50 2.25 -0.40 1.25 -1.10 3.30 -1.50 4.60 -1.15 3.55 -1.10 5.80 0.15 7.40 2 2.55 1.10 3.10 -1.30 0.85 -0.85 -0.80 -1.70 -2.05 -1.90 -2.75 -0.15 -0.75 -0.45 -1.35 -0.65 -1.35 -0.20 0 -0.90 1.25 -1.55 2.75 -1.45 3.30 -2.50 3.60 -2.50 0.75z"/>
  <path d="M10 39.40 c0 -0.35 -0.45 -1.20 -1 -1.90 -0.55 -0.70 -1 -1.45 -1 -1.70 0 -0.60 1.50 1 2.70 2.85 0.80 1.20 0.85 1.35 0.10 1.35 -0.45 0 -0.80 -0.30 -0.80 -0.60z"/>
  <path d="M26.50 38.20 c0 -2.20 0.95 -3.20 3 -3.20 1.40 0 1.50 0.10 1 1 -0.30 0.55 -0.85 1 -1.25 1 -1.20 0 -0.85 0.85 0.45 1.10 1 0.20 1.40 -0.15 2.65 -2.35 2.25 -3.90 4.10 -8 4.60 -10.10 l0.40 -1.90 0.40 1.50 c0.90 3.35 -1.85 14.75 -3.55 14.75 -0.90 0 -0.90 -0.60 0.05 -2.85 1 -2.40 0.90 -3.25 -0.15 -1.35 -1.55 2.85 -2.95 4.20 -4.25 4.20 -0.70 0 -1.40 -0.30 -1.55 -0.60 -0.25 -0.50 -0.35 -0.50 -0.60 0 -0.55 1.20 -1.20 0.60 -1.20 -1.20z"/>
  <path d="M18.35 38.35 c1.05 -1.15 0.60 -1.50 -1.05 -0.85 -1.75 0.65 -3.80 0.65 -3.80 0 0 -0.25 -0.35 -0.50 -0.75 -0.50 -0.50 0 -0.75 -0.50 -0.75 -1.55 0 -1.50 0.95 -2.95 1.95 -2.95 0.70 0 0.70 -0.85 0 -1.10 -0.30 -0.10 -0.45 -0.80 -0.35 -1.60 l0.15 -1.40 1.40 1.10 c0.75 0.60 1.35 0.85 1.35 0.55 0 -0.30 0.40 -0.55 0.90 -0.60 0.45 0 0.15 -0.25 -0.75 -0.50 -1.70 -0.50 -3.65 -2.55 -3.65 -3.90 0 -0.50 -0.20 -1.05 -0.45 -1.30 -0.40 -0.50 -2.05 -5.10 -2.05 -5.85 0 -0.20 0.25 -0.40 0.50 -0.40 0.30 0 0.50 0.55 0.50 1.25 0 0.90 0.25 1.25 1 1.25 0.75 0 1.05 0.45 1.30 2 0.20 1.10 0.50 2 0.75 2 0.25 0 0.45 0.70 0.45 1.55 0 1.50 0.05 1.55 1.65 1.25 0.85 -0.20 2.40 -0.50 3.40 -0.60 l1.80 -0.30 0.35 2.30 c0.35 2.20 0.40 2.30 2.10 2.30 1.65 0 1.70 0.05 1.70 1.90 0 2.15 -0.70 3.10 -2.35 3.10 -0.95 0 -1.15 0.25 -1.15 1.70 0 1.70 -0.05 1.70 -2.45 1.90 -2.35 0.15 -2.45 0.10 -1.70 -0.75z m2.15 -1.10 c0 -0.15 -0.10 -0.25 -0.25 -0.25 -0.15 0 -0.25 0.10 -0.25 0.25 0 0.15 0.10 0.25 0.25 0.25 0.15 0 0.25 -0.10 0.25 -0.25z m-3.70 -1 c0.20 -0.50 1 -0.75 2.55 -0.75 l2.30 0 -0.30 -2.30 c-0.35 -3.15 -1.35 -4.10 -1.35 -1.30 0 2.05 -0.05 2.10 -1.65 2.10 -1.35 0 -1.75 0.25 -2.20 1.50 -0.35 0.85 -0.35 1.50 -0.10 1.50 0.25 0 0.60 -0.35 0.75 -0.75z m-1.30 -2 c0.35 -0.45 0.55 -0.85 0.40 -1 -0.10 -0.10 -0.60 0.20 -1.05 0.75 -0.45 0.55 -0.65 1 -0.40 1 0.25 0 0.70 -0.35 1.05 -0.75z m0.50 -2.50 c0 -0.15 -0.10 -0.25 -0.25 -0.25 -0.15 0 -0.25 0.10 -0.25 0.25 0 0.15 0.10 0.25 0.25 0.25 0.15 0 0.25 -0.10 0.25 -0.25z m3 -1.40 c0 -0.25 -0.20 -0.25 -0.50 -0.10 -0.25 0.15 -0.50 0.70 -0.50 1.15 0 0.75 0.10 0.75 0.50 0.10 0.25 -0.40 0.50 -0.95 0.50 -1.15z m1 -1.85 c0 -0.25 -0.35 -0.35 -0.75 -0.20 -0.40 0.20 -0.75 0.40 -0.75 0.50 0 0.10 0.35 0.20 0.75 0.20 0.40 0 0.75 -0.20 0.75 -0.50z"/>
  <path d="M29.60 30.35 l0.15 -4.15 -1.05 1.15 c-0.65 0.75 -1.65 1.15 -2.65 1.15 -1.40 0 -1.55 -0.15 -1.55 -1.65 0 -0.90 0.35 -2.15 0.80 -2.80 0.70 -1 0.75 -1.50 0.15 -4.10 -0.60 -2.75 -0.75 -2.95 -2.05 -2.95 -1.25 0 -1.40 -0.20 -1.40 -1.55 0 -0.85 -0.20 -1.40 -0.50 -1.20 -0.25 0.15 -0.50 0.95 -0.50 1.80 0 1.35 -0.10 1.45 -2 1.45 -1.85 0 -2 -0.10 -2 -1.35 0 -4.80 1.10 -6.15 4.85 -6.15 1.70 0 1.75 -0.05 1 -0.90 -0.50 -0.50 -0.85 -1.40 -0.85 -2 0 -0.90 -0.30 -1.10 -1.75 -1.10 -1.65 0 -1.75 -0.10 -1.75 -1.75 0 -0.95 -0.20 -1.75 -0.50 -1.75 -0.25 0 -0.50 -0.35 -0.50 -0.70 0 -0.65 0.25 -0.65 1.85 0 1 0.45 2.35 1.15 3.05 1.60 1.15 0.75 1.15 0.80 0.30 1.20 -0.80 0.35 -0.80 0.40 0.15 0.20 1.20 -0.20 3.70 2.40 5.35 5.55 1.05 2.05 1.05 2.15 -0.45 2.15 -0.70 0 -1.25 -0.20 -1.25 -0.50 0 -0.25 -0.20 -0.50 -0.50 -0.50 -0.25 0 -0.50 0.40 -0.50 0.95 0 0.80 0.25 0.85 1.95 0.55 l1.95 -0.35 1.50 3.30 c2.70 5.95 3.50 11.75 2.25 15.80 -0.65 2.05 -0.90 2.30 -1.20 1.50 -0.40 -0.95 -0.40 -0.95 -0.75 0.15 -0.15 0.60 -0.65 1.10 -1.05 1.10 -0.55 0 -0.65 -0.80 -0.55 -4.15z m2.75 -0.45 c-0.15 -0.35 -0.25 -0.10 -0.25 0.60 0 0.70 0.10 0.95 0.25 0.65 0.10 -0.35 0.10 -0.95 0 -1.25z m-1.60 -9.10 c-0.50 -1.30 -0.70 -2.70 -0.50 -3.40 0.25 -0.90 0.20 -1 -0.20 -0.40 -0.75 1.10 -0.65 2.45 0.35 4.85 1.10 2.75 1.45 1.85 0.35 -1.05z m-3.25 -3.05 c0 -0.15 -0.10 -0.25 -0.25 -0.25 -0.15 0 -0.25 0.10 -0.25 0.25 0 0.15 0.10 0.25 0.25 0.25 0.15 0 0.25 -0.10 0.25 -0.25z m-7 -1.45 c0 -0.10 -0.35 -0.45 -0.75 -0.80 -0.65 -0.55 -0.70 -0.50 -0.45 0.20 0.25 0.70 1.20 1.15 1.20 0.60z m3 -1.05 c0 -0.15 -0.10 -0.25 -0.25 -0.25 -0.15 0 -0.25 0.10 -0.25 0.25 0 0.15 0.10 0.25 0.25 0.25 0.15 0 0.25 -0.10 0.25 -0.25z m3 -0.50 c0 -0.10 -0.45 -0.45 -1 -0.75 -0.80 -0.45 -0.90 -0.40 -0.70 0.25 0.25 0.65 1.70 1.10 1.70 0.50z m-1.50 -3.75 c0 -0.25 -0.35 -0.50 -0.75 -0.50 -0.40 0 -0.75 0.25 -0.75 0.50 0 0.30 0.35 0.50 0.75 0.50 0.40 0 0.75 -0.20 0.75 -0.50z m1.50 -1.70 c0 -0.10 -0.40 -0.50 -0.85 -0.85 -0.80 -0.65 -0.85 -0.60 -0.20 0.20 0.65 0.80 1.05 1.05 1.05 0.65z"/>
  <path d="M11.50 26.95 c0 -0.25 0.25 -0.35 0.50 -0.20 0.30 0.15 0.50 0.40 0.50 0.55 0 0.10 -0.20 0.20 -0.50 0.20 -0.25 0 -0.50 -0.25 -0.50 -0.55z"/>
  <path d="M39.60 20.55 c-0.15 -1.10 -4.60 -10.25 -5.55 -11.30 -0.50 -0.55 -1.55 -2.10 -2.30 -3.50 -1.90 -3.40 -3.20 -4.75 -4.55 -4.75 -0.65 0 -1.30 -0.20 -1.45 -0.50 -0.20 -0.30 0.40 -0.50 1.35 -0.50 2 0 4.15 2 5.90 5.50 0.65 1.25 1.95 3.50 2.95 5 3 4.50 4.15 7.15 3.90 9.05 -0.10 0.95 -0.25 1.40 -0.25 1z"/>
  <path d="M31 12.25 c-1.20 -3.10 -3.10 -6.70 -3.90 -7.30 -0.75 -0.65 -0.80 -0.60 -0.15 0.20 0.95 1.20 -0.10 1.05 -1.25 -0.20 -1.35 -1.55 -5 -3.95 -5.90 -3.95 -0.45 0 -0.80 -0.20 -0.80 -0.50 0 -0.25 0.70 -0.50 1.50 -0.50 0.85 0 1.50 0.20 1.50 0.45 0 0.25 1.05 0.85 2.30 1.35 2.50 0.95 5.25 3.80 6.05 6.30 0.30 0.90 0.90 2.50 1.35 3.55 0.50 1.10 0.60 1.85 0.30 1.85 -0.30 0 -0.75 -0.55 -1 -1.25z"/>
  <path d="M11 11.30 c0 -0.40 0.25 -0.90 0.50 -1.05 0.65 -0.40 0.65 -2.25 -0.05 -2.25 -0.30 0 -0.45 -0.70 -0.35 -1.60 0.15 -1.45 0.35 -1.65 1.85 -1.80 l1.65 -0.15 -0.20 2 c-0.10 1.15 0 2.05 0.20 2.05 0.25 0 0.40 0.80 0.40 1.75 0 1.70 -0.05 1.75 -2 1.75 -1.40 0 -2 -0.20 -2 -0.70z m3 -0.55 c0 -0.15 -0.10 -0.25 -0.25 -0.25 -0.15 0 -0.25 0.10 -0.25 0.25 0 0.15 0.10 0.25 0.25 0.25 0.15 0 0.25 -0.10 0.25 -0.25z"/>
  <path d="M24.50 0.25 c0 -0.15 0.10 -0.25 0.25 -0.25 0.15 0 0.25 0.10 0.25 0.25 0 0.15 -0.10 0.25 -0.25 0.25 -0.15 0 -0.25 -0.10 -0.25 -0.25z"/>
 </g>
 <g fill="#2c294b">
  <path d="M0 38.75 c0 -0.70 0.25 -1.25 0.50 -1.25 0.30 0 0.50 -0.35 0.50 -0.75 0 -1.75 2.10 -6.55 4.60 -10.50 1.45 -2.35 2.80 -4.25 3 -4.25 0.20 0 -0.90 2 -2.35 4.45 -1.50 2.45 -2.75 4.65 -2.75 4.90 0 0.20 0.40 -0.25 0.95 -1.10 0.50 -0.80 1.65 -2.15 2.50 -2.95 1.85 -1.75 1.95 -1.20 0.55 2.85 -1.30 3.70 -1.25 4.95 0.30 7.65 0.70 1.20 1.20 2.20 1.05 2.20 -0.15 0 -0.95 -0.65 -1.80 -1.45 -1.85 -1.75 -2.65 -3.70 -2.25 -5.40 0.60 -2.30 -0.50 -0.85 -2.30 3.05 -1.80 3.95 -2.50 4.70 -2.50 2.55z"/>
  <path d="M18 38.75 c0.65 -0.70 1.05 -1.35 0.90 -1.50 -0.15 -0.15 -1.35 -0.05 -2.65 0.25 -1.95 0.45 -2.60 0.40 -3.55 -0.25 -0.70 -0.45 -1.05 -1.05 -0.90 -1.50 0.20 -0.40 0.05 -0.75 -0.25 -0.75 -0.30 0 -0.55 -0.35 -0.55 -0.75 0 -0.45 -0.35 -0.90 -0.75 -1.05 -1.20 -0.45 -0.85 -1.20 0.50 -1.20 0.70 0 1.25 -0.20 1.25 -0.50 0 -0.25 -0.25 -0.50 -0.55 -0.50 -0.30 0 -0.40 -0.35 -0.25 -0.80 0.15 -0.40 0.10 -0.60 -0.20 -0.45 -0.80 0.50 -0.55 -0.55 0.40 -1.70 l0.85 -1.05 2 1.80 c1.10 1 2.05 1.55 2.15 1.25 0.10 -0.30 0.95 -0.55 1.90 -0.55 l1.70 0 0 2.55 c0 1.55 0.20 2.40 0.50 2.20 0.65 -0.40 0.65 -4.10 -0.05 -4.55 -0.30 -0.15 -0.40 -0.75 -0.30 -1.30 0.25 -0.90 0.20 -0.95 -0.95 -0.15 -1.55 1 -3.70 0.65 -5 -0.85 l-0.95 -1.05 2.90 0.35 c2 0.20 2.85 0.15 2.85 -0.25 0 -1 1.65 -1.90 3.40 -1.95 0.85 0 1.60 -0.25 1.60 -0.60 0 -0.30 0.35 -0.95 0.75 -1.40 0.60 -0.65 0.70 -1.40 0.45 -2.95 -0.30 -1.85 -0.45 -2.05 -1.75 -2.05 -1.30 0 -1.45 -0.20 -1.50 -1.60 -0.10 -1.55 -0.10 -1.55 -0.30 -0.25 -0.20 1.15 -0.45 1.35 -1.95 1.35 -1.60 0 -1.70 -0.10 -1.70 -1.75 0 -1.65 0.10 -1.75 1.75 -1.75 1.65 0 2.05 -0.50 1.80 -2.10 0 -0.25 0.50 -0.40 1.20 -0.40 1.35 0 1.70 -0.75 0.50 -1.20 -0.40 -0.15 -0.75 -0.60 -0.75 -1.05 0 -0.40 -0.20 -0.75 -0.50 -0.75 -0.25 0 -0.50 -0.35 -0.50 -0.75 0 -0.40 -0.55 -0.85 -1.25 -1.05 -1 -0.25 -1.25 -0.60 -1.25 -1.95 0 -2.25 0.65 -2.55 2.75 -1.25 7.25 4.50 14.20 23 11.10 29.50 l-0.85 1.75 0.25 -2.50 0.25 -2.50 -0.75 2.25 c-0.35 1.25 -0.80 2.85 -0.95 3.55 -0.15 0.75 -0.70 1.45 -1.30 1.60 -0.55 0.15 -1.25 0.95 -1.55 1.80 -0.70 1.95 -2.45 2.20 -2.45 0.35 0 -0.70 0.25 -1.40 0.50 -1.55 0.30 -0.15 0.50 -0.95 0.50 -1.80 0 -1.30 -0.15 -1.45 -1.60 -1.45 -1.25 0 -1.45 -0.15 -1 -0.60 1 -1 0.65 -1.60 -0.40 -0.65 -0.55 0.50 -1 1.45 -1 2.10 0 0.75 -0.45 1.35 -1.20 1.70 -0.70 0.35 -1.10 0.85 -0.95 1.25 0.15 0.40 -0.05 0.70 -0.55 0.70 -0.45 0 -0.95 0.35 -1.10 0.75 -0.20 0.40 -0.65 0.75 -1.10 0.75 -0.60 0 -0.50 -0.30 0.40 -1.25z m-1.10 -2.65 c0.30 -0.90 -0.75 -0.70 -1.10 0.20 -0.20 0.50 -0.05 0.70 0.30 0.60 0.30 -0.10 0.70 -0.50 0.80 -0.80z m-1.15 -2.15 c0.70 -1.10 -0.15 -0.90 -1.30 0.35 -1.15 1.25 -1.15 1.30 -0.10 0.75 0.60 -0.30 1.25 -0.80 1.40 -1.10z m3.20 -3.60 c0.05 -0.25 -0.15 -0.25 -0.45 -0.10 -0.25 0.15 -0.50 0.80 -0.45 1.40 0 1.05 0.05 1.05 0.45 0.10 0.25 -0.55 0.45 -1.20 0.45 -1.40z m3.55 1.20 c0 -0.55 0.15 -1.30 0.30 -1.75 0.20 -0.55 0.05 -0.80 -0.50 -0.80 -0.60 0 -0.80 0.50 -0.80 1.75 0 0.95 0.25 1.75 0.50 1.75 0.30 0 0.50 -0.45 0.50 -0.95z m-6.25 -0.05 c0.15 -0.25 0.20 -0.50 0.05 -0.50 -0.15 0 -0.40 0.25 -0.55 0.50 -0.15 0.30 -0.20 0.50 -0.05 0.50 0.15 0 0.40 -0.20 0.55 -0.50z m10.75 -3 c0 -0.25 -0.55 -0.50 -1.25 -0.50 -0.85 0 -1.25 -0.30 -1.30 -0.85 0 -0.75 -0.10 -0.75 -0.40 0.10 -0.35 0.85 -0.15 1.05 1.15 1.30 0.85 0.20 1.60 0.35 1.70 0.40 0.05 0 0.10 -0.15 0.10 -0.45z m5 -0.25 c0 -0.40 -0.10 -0.75 -0.20 -0.75 -0.10 0 -0.30 0.35 -0.50 0.75 -0.15 0.40 -0.05 0.75 0.20 0.75 0.30 0 0.50 -0.35 0.50 -0.75z m-5.50 -1.50 c0 -0.15 -0.10 -0.25 -0.25 -0.25 -0.15 0 -0.25 0.10 -0.25 0.25 0 0.15 0.10 0.25 0.25 0.25 0.15 0 0.25 -0.10 0.25 -0.25z m1.25 -1.25 c0.15 -0.25 0.10 -0.50 -0.20 -0.50 -0.25 0 -0.65 0.25 -0.80 0.50 -0.15 0.30 -0.10 0.50 0.20 0.50 0.25 0 0.65 -0.20 0.80 -0.50z m3 -4.75 c-0.45 -1.30 -0.65 -2.75 -0.50 -3.55 0.25 -1.10 0.20 -1.25 -0.20 -0.70 -0.30 0.40 -0.55 1.30 -0.55 2 0 1.70 1.70 6.40 1.90 5.25 0.10 -0.45 -0.15 -1.80 -0.65 -3z m-2.90 0.15 c-0.15 -0.35 -0.25 -0.10 -0.25 0.60 0 0.70 0.10 0.95 0.25 0.65 0.10 -0.35 0.10 -0.95 0 -1.25z m-0.55 -3.80 c-0.55 -0.50 -0.75 0.20 -0.40 1.40 l0.35 1.25 0.15 -1.15 c0.10 -0.65 0.05 -1.30 -0.10 -1.50z m-7.45 -1.45 c-0.45 -0.45 -1 -0.65 -1.20 -0.45 -0.20 0.20 -0.05 0.55 0.35 0.80 1.25 0.80 1.75 0.55 0.85 -0.35z m9.30 -0.30 c0.15 -0.40 -0.15 -0.70 -0.75 -0.70 -0.80 -0.10 -0.85 0.05 -0.40 0.65 0.75 0.85 0.85 0.85 1.15 0.05z m-5.30 -0.20 c-0.20 -0.15 -0.50 -0.15 -0.70 0 -0.15 0.20 0 0.35 0.35 0.35 0.35 0 0.50 -0.15 0.35 -0.35z m2.65 -0.15 c0 -0.25 -0.45 -0.70 -1 -1 -1.20 -0.65 -1.30 -0.35 -0.20 0.70 0.90 0.90 1.20 1 1.20 0.30z m-2.50 -1.75 c0 -0.15 -0.10 -0.25 -0.25 -0.25 -0.15 0 -0.25 0.10 -0.25 0.25 0 0.15 0.10 0.25 0.25 0.25 0.15 0 0.25 -0.10 0.25 -0.25z m3 -3.40 c0 -0.10 -0.85 -0.95 -1.85 -1.90 -1.10 -1 -1.50 -1.20 -0.90 -0.45 1.25 1.55 2.75 2.85 2.75 2.35z m-6.50 -5.60 c0 -0.15 -0.10 -0.25 -0.25 -0.25 -0.15 0 -0.25 0.10 -0.25 0.25 0 0.15 0.10 0.25 0.25 0.25 0.15 0 0.25 -0.10 0.25 -0.25z"/>
  <path d="M28.50 39.30 c0 -0.65 1.45 -1.55 1.85 -1.15 0.10 0.10 0.05 0.60 -0.15 1.05 -0.40 1 -1.70 1.05 -1.70 0.10z"/>
  <path d="M31 38.65 c0 -0.25 1.20 -2.60 2.70 -5.20 1.45 -2.60 2.85 -5.20 3.05 -5.85 0.50 -1.65 1 -0.90 0.85 1.30 -0.20 2.75 -2.20 9.20 -2.70 8.70 -0.25 -0.25 -0.10 -1.35 0.30 -2.50 1 -2.75 0.35 -2.70 -1.15 0.10 -1.20 2.30 -3.05 4.35 -3.05 3.45z"/>
  <path d="M10.50 18.40 c0 -1.50 0.65 -2.90 1.30 -2.90 0.45 0 0.70 0.60 0.70 1.75 0 1.40 -0.20 1.75 -1 1.75 -0.55 0 -1 -0.30 -1 -0.60z"/>
  <path d="M38.85 18.15 c-0.10 -0.50 -0.40 -1.30 -0.60 -1.75 -0.60 -1.45 0.45 -1 1.15 0.45 0.35 0.75 0.40 1.55 0.15 1.80 -0.25 0.25 -0.55 0 -0.70 -0.50z"/>
  <path d="M11.50 14.50 c0 -0.25 -0.35 -0.50 -0.75 -0.50 -0.40 0 -0.75 -0.20 -0.75 -0.50 0 -0.25 0.25 -0.50 0.50 -0.50 0.30 0 0.50 -0.35 0.50 -0.75 0 -0.40 0.35 -0.75 0.75 -0.75 0.40 0 0.75 -0.25 0.75 -0.55 0 -0.30 0.40 -0.45 0.90 -0.25 0.55 0.20 0.45 0 -0.25 -0.50 -0.65 -0.45 -1.15 -1.15 -1.15 -1.50 0 -0.40 -0.35 -0.70 -0.75 -0.70 -1.15 0 -0.90 -1.40 0.60 -3.80 1.85 -2.90 5.65 -4.35 5.65 -2.20 0 0.80 -0.35 1 -1.65 1 l-1.70 0 0.25 2.75 c0.20 2.50 0.15 2.80 -0.95 3.20 -1.10 0.45 -1 0.50 0.70 0.50 1.80 0.05 1.85 0.10 1.85 1.80 0 1.55 -0.15 1.75 -1.25 1.75 -0.90 0 -1.25 0.25 -1.25 1 0 0.65 -0.35 1 -1 1 -0.55 0 -1 -0.20 -1 -0.50z m1.50 -8.25 c0 -0.15 -0.10 -0.25 -0.25 -0.25 -0.15 0 -0.25 0.10 -0.25 0.25 0 0.15 0.10 0.25 0.25 0.25 0.15 0 0.25 -0.10 0.25 -0.25z"/>
  <path d="M34.40 9.65 c-1.15 -1.35 -2.50 -4.15 -1.95 -4.15 0.50 0 3.25 4.45 2.90 4.80 -0.10 0.10 -0.55 -0.20 -0.95 -0.65z"/>
  <path d="M22.90 2.60 c-2.70 -1.75 -3.50 -2.60 -2.40 -2.60 0.30 0 1.45 0.60 2.65 1.35 1.15 0.75 2.25 1.35 2.40 1.30 0.20 -0.05 0.75 0.40 1.25 1 l0.95 1.10 -1.20 -1 c-1.05 -0.90 -1.20 -0.90 -0.90 -0.10 0.40 1.05 0.60 1.15 -2.75 -1.05z"/>
  <path d="M29 1.60 c0 -0.35 -0.45 -0.60 -1.05 -0.60 -0.55 0 -0.85 -0.20 -0.70 -0.50 0.50 -0.80 1.60 -0.60 1.95 0.30 0.20 0.45 0.20 0.95 0.05 1.10 -0.15 0.15 -0.25 0 -0.25 -0.30z"/>
 </g>
 <g fill="#3a7919">
  <path d="M19 17.25 c0 -0.90 0.20 -1.15 0.75 -0.95 0.95 0.40 0.95 0 -0.05 -1 -0.70 -0.75 -0.70 -0.80 0 -0.80 0.45 0 0.80 -0.25 0.80 -0.55 0 -0.30 0.80 -0.45 1.85 -0.35 1.35 0.10 1.95 0.40 2.05 1 0.15 0.65 -0.05 0.80 -0.75 0.60 -0.85 -0.25 -0.85 -0.25 0 0.45 0.45 0.40 0.85 1.20 0.85 1.80 0 0.95 -0.25 1.05 -2.75 1.05 -2.60 0 -2.75 -0.05 -2.75 -1.25z"/>
  <path d="M11 16.30 c0 -0.40 0.25 -0.80 0.55 -0.90 0.40 -0.15 0.30 -0.45 -0.20 -1 -1.20 -1.20 -0.55 -2.90 1.10 -2.90 2.25 0 3.15 1 2.95 3.25 -0.15 1.95 -0.20 2 -2.25 2.15 -1.65 0.10 -2.15 0 -2.15 -0.60z m1 -3.05 c0 -0.15 -0.10 -0.25 -0.25 -0.25 -0.15 0 -0.25 0.10 -0.25 0.25 0 0.15 0.10 0.25 0.25 0.25 0.15 0 0.25 -0.10 0.25 -0.25z"/>
 </g>
 <g fill="#3d365f">
  <path d="M0 39.20 c0 -0.40 0.35 -1.10 0.75 -1.50 0.40 -0.45 0.75 -1.45 0.75 -2.25 0 -1.80 2.50 -7.15 4.30 -9.20 1.40 -1.65 1.25 -1.25 -1.30 2.95 -0.65 1.10 -1.25 2.85 -1.30 3.90 -0.10 2.20 -1.10 4.90 -1.75 4.90 -0.25 0 -0.45 0.45 -0.45 1 0 0.55 -0.20 1 -0.50 1 -0.25 0 -0.50 -0.35 -0.50 -0.80z m3 -5.95 c0 -0.15 -0.10 -0.25 -0.25 -0.25 -0.15 0 -0.25 0.10 -0.25 0.25 0 0.15 0.10 0.25 0.25 0.25 0.15 0 0.25 -0.10 0.25 -0.25z"/>
  <path d="M8 39.50 c0 -0.35 0.15 -0.50 0.35 -0.35 0.15 0.20 0.15 0.50 0 0.70 -0.20 0.15 -0.35 0 -0.35 -0.35z"/>
  <path d="M29 39.45 c0 -0.25 0.25 -0.35 0.50 -0.20 0.30 0.15 0.50 0.40 0.50 0.55 0 0.10 -0.20 0.20 -0.50 0.20 -0.25 0 -0.50 -0.25 -0.50 -0.55z"/>
  <path d="M18.25 39.05 c-0.15 -0.25 -0.05 -0.60 0.25 -0.80 0.25 -0.15 0.50 -0.85 0.50 -1.50 0 -0.70 0.45 -1.45 1 -1.75 1.15 -0.65 1.40 -3.90 0.40 -5.50 -0.55 -0.90 -0.45 -1.15 0.85 -2.30 l1.50 -1.30 -1.50 1 c-0.80 0.50 -2 1.20 -2.65 1.55 l-1.10 0.60 1.20 -2.15 c1 -1.85 1.45 -2.15 3 -2.30 1 -0.10 1.80 -0.35 1.80 -0.65 0 -0.25 0.45 -0.45 0.95 -0.45 0.80 0 1 -0.45 1.15 -2.40 0.20 -2.85 -0.75 -4.25 -2.50 -3.75 -0.60 0.15 -1.10 0.45 -1.10 0.70 0 0.25 -0.80 0.45 -1.75 0.45 -1.40 0 -1.75 -0.20 -1.75 -0.95 0 -0.55 -0.25 -1.05 -0.55 -1.15 -0.40 -0.15 -0.50 -1.05 -0.25 -3.05 0.40 -3.20 0.95 -3.55 4.60 -3.25 1.80 0.15 1.95 0.25 2.10 1.85 0.15 1.60 0.10 1.70 -0.75 1.05 -0.50 -0.40 -0.25 0 0.55 0.90 1.05 1.10 1.80 1.50 2.45 1.30 0.60 -0.20 1.20 0.05 1.60 0.65 0.55 0.65 0.70 0.70 0.75 0.20 0 -0.55 0.15 -0.60 0.55 -0.20 0.40 0.40 0.40 0.85 0 1.55 -0.55 1 -0.10 3.30 1.05 5.50 0.45 0.90 0.45 1.50 0 2.75 -0.55 1.50 -0.50 1.55 0.20 0.60 0.80 -1 0.75 -1.55 -0.20 -8 -0.25 -1.65 -0.40 -3.10 -0.30 -3.20 0.30 -0.35 1.70 3.40 2.45 6.65 1.05 4.50 1.05 8.80 0.05 10.60 -0.80 1.35 -0.85 1.35 -0.55 0.20 0.15 -0.70 0.40 -1.75 0.55 -2.35 0.20 -0.70 0.10 -1.15 -0.25 -1.15 -0.30 0 -0.40 -0.30 -0.25 -0.70 0.15 -0.40 0.05 -0.85 -0.25 -1 -0.25 -0.20 -0.65 0.15 -0.80 0.75 -0.20 0.65 -0.10 1.20 0.25 1.45 0.85 0.50 -0.80 5.45 -2.30 6.85 -0.65 0.60 -1.20 1.35 -1.20 1.65 0 0.25 -0.20 0.50 -0.50 0.50 -0.25 0 -0.50 -0.45 -0.50 -1 0 -0.55 -0.20 -1 -0.50 -1 -0.25 0 -0.50 -0.65 -0.50 -1.50 0 -0.80 -0.20 -1.50 -0.50 -1.50 -0.25 0 -0.50 0.55 -0.50 1.25 0 1.05 -0.25 1.25 -1.50 1.25 -1.40 0 -1.50 0.15 -1.50 1.75 0 1.65 -0.10 1.75 -1.70 1.75 -0.95 0 -1.85 -0.20 -2.05 -0.45z m2.60 -1.90 c-0.20 -0.15 -0.50 -0.15 -0.70 0 -0.15 0.20 0 0.35 0.35 0.35 0.35 0 0.50 -0.15 0.35 -0.35z m0.65 -1.40 c0 -0.15 -0.10 -0.25 -0.25 -0.25 -0.15 0 -0.25 0.10 -0.25 0.25 0 0.15 0.10 0.25 0.25 0.25 0.15 0 0.25 -0.10 0.25 -0.25z m7.35 -1.60 c-0.20 -0.15 -0.50 -0.15 -0.70 0 -0.15 0.20 0 0.35 0.35 0.35 0.35 0 0.50 -0.15 0.35 -0.35z m-3.65 -3.40 c-0.20 -0.55 -0.60 -0.20 -1.25 1.10 -1.25 2.45 -1.20 2.70 0.30 1 0.65 -0.75 1.10 -1.70 0.95 -2.10z m3.15 0.15 c-0.15 -0.40 -0.30 -0.25 -0.30 0.30 -0.05 0.55 0.10 0.85 0.25 0.65 0.15 -0.15 0.20 -0.60 0.05 -0.95z m-5.35 -0.90 c0 -0.80 -0.10 -1.50 -0.20 -1.50 -0.10 0 -0.45 0.70 -0.75 1.50 -0.40 1.20 -0.35 1.50 0.25 1.50 0.45 0 0.70 -0.50 0.70 -1.50z m5.85 -0.85 c-0.20 -0.15 -0.35 0 -0.35 0.35 0 0.35 0.15 0.50 0.35 0.35 0.15 -0.20 0.15 -0.50 0 -0.70z m0.65 -0.90 c0 -0.15 -0.10 -0.25 -0.25 -0.25 -0.15 0 -0.25 0.10 -0.25 0.25 0 0.15 0.10 0.25 0.25 0.25 0.15 0 0.25 -0.10 0.25 -0.25z m-5.65 -1.10 c-0.20 -0.15 -0.35 0 -0.35 0.35 0 0.35 0.15 0.50 0.35 0.35 0.15 -0.20 0.15 -0.50 0 -0.70z m4.80 -1.75 c0.45 -0.25 0.45 -0.50 0.05 -0.90 -0.45 -0.45 -0.85 -0.30 -1.65 0.55 -1.20 1.30 -1.45 2.40 -0.30 1.45 0.65 -0.50 0.75 -0.45 0.80 0.55 0.10 1.20 0.10 1.20 0.30 -0.05 0.15 -0.70 0.50 -1.40 0.80 -1.60z m-0.70 -4.55 c-0.25 -0.90 -0.45 -2.25 -0.45 -3.05 0 -1.05 -0.15 -1.35 -0.55 -0.95 -0.35 0.35 -0.30 1.20 0.10 2.85 0.55 2.20 0.50 2.50 -0.55 3.95 l-1.15 1.60 1.55 -1.40 c1.35 -1.30 1.45 -1.60 1.05 -3z m-4.95 -4.60 c0 -0.45 0.30 -0.60 0.85 -0.40 0.55 0.20 0.70 0.15 0.45 -0.25 -0.50 -0.85 -1.85 -0.75 -2.55 0.20 -0.50 0.75 -0.65 0.75 -1.35 0 -0.90 -0.85 -1.90 -1.05 -1.90 -0.40 0 0.60 2 1.55 3.40 1.55 0.65 0.05 1.10 -0.25 1.10 -0.70z m-2 -4 c0.70 -0.40 1.05 -0.70 0.75 -0.70 -0.25 0 -1.05 0.30 -1.75 0.70 -0.70 0.40 -1 0.70 -0.75 0.70 0.30 0 1.05 -0.30 1.75 -0.70z"/>
  <path d="M31 38.90 c0 -0.20 1.45 -2.95 3.20 -6.20 l3.25 -5.85 -0.30 2.95 c-0.15 1.60 -0.55 3.65 -0.90 4.45 l-0.65 1.50 0.25 -2 0.25 -2 -1.80 3 c-1.80 2.90 -3.30 4.80 -3.30 4.15z"/>
  <path d="M7.50 38.25 c0 -0.15 0.10 -0.25 0.25 -0.25 0.15 0 0.25 0.10 0.25 0.25 0 0.15 -0.10 0.25 -0.25 0.25 -0.15 0 -0.25 -0.10 -0.25 -0.25z"/>
  <path d="M5.60 36.85 c-0.45 -0.50 -0.65 -1.70 -0.50 -3.30 0.05 -1.35 0 -2.35 -0.20 -2.20 -0.90 0.55 -0.30 -1.25 0.75 -2.20 0.60 -0.55 1.35 -1.45 1.65 -1.95 1 -1.65 1.25 -0.45 0.40 1.85 -0.45 1.20 -0.95 3.65 -1.15 5.40 -0.25 2.80 -0.40 3.10 -0.95 2.40z"/>
  <path d="M16.65 36.95 c0.85 -0.50 1.20 -1.95 0.45 -1.95 -0.25 0 -0.90 0.45 -1.50 1 -1.10 1 -3.60 1.40 -3.60 0.55 0 -0.70 0.70 -1.05 2.25 -1.15 1 -0.10 1.55 -0.60 2.15 -1.90 0.70 -1.60 0.80 -1.65 1 -0.60 0.15 1.10 0.20 1.15 0.85 0.25 0.40 -0.50 0.75 -1.40 0.75 -2 0 -0.60 0.20 -1.20 0.45 -1.35 0.70 -0.45 0 4.40 -0.75 5 -0.40 0.30 -0.70 0.90 -0.70 1.35 0 0.40 -0.35 0.90 -0.80 1.05 -1.20 0.45 -1.55 0.35 -0.55 -0.25z"/>
  <path d="M11.25 34.50 c-0.20 -0.30 0.35 -0.50 1.25 -0.50 0.90 0 1.45 0.20 1.25 0.50 -0.15 0.30 -0.75 0.50 -1.25 0.50 -0.50 0 -1.10 -0.20 -1.25 -0.50z"/>
  <path d="M17.50 30.55 c0 -0.30 0.20 -0.65 0.50 -0.80 0.30 -0.15 0.35 0.05 0.20 0.45 -0.35 0.90 -0.70 1.05 -0.70 0.35z"/>
  <path d="M11.20 28.20 c0.15 -0.45 0.30 -1 0.30 -1.30 0 -0.30 0.45 -0.15 1 0.35 1.35 1.20 1.25 1.75 -0.30 1.75 -1 0 -1.25 -0.20 -1 -0.80z"/>
  <path d="M14.15 27.40 c-0.30 -0.35 -0.65 -1.05 -0.80 -1.50 -0.25 -0.70 -0.05 -0.90 0.90 -0.90 1.05 0 1.25 0.25 1.25 1.50 0 1.60 -0.55 1.95 -1.35 0.90z"/>
  <path d="M12.65 23.65 c-0.15 -0.50 -0.70 -1.85 -1.25 -3.05 -1.05 -2.25 -0.95 -3.60 0.35 -3.60 0.50 0 0.85 0.70 1.05 2 0.30 1.80 0.50 2 1.75 2 1.30 0 1.45 0.15 1.45 1.75 0 1.60 -0.10 1.75 -1.50 1.75 -1 0 -1.65 -0.30 -1.85 -0.85z"/>
  <path d="M9 20.25 c0 -0.15 0.10 -0.25 0.25 -0.25 0.15 0 0.25 0.10 0.25 0.25 0 0.15 -0.10 0.25 -0.25 0.25 -0.15 0 -0.25 -0.10 -0.25 -0.25z"/>
  <path d="M13.65 15.85 c0.15 -0.95 0.05 -2 -0.20 -2.40 -0.35 -0.55 -0.45 -0.45 -0.45 0.45 0 0.65 -0.30 1.10 -0.75 1.10 -0.40 0 -0.75 -0.20 -0.75 -0.50 0 -0.25 -0.35 -0.50 -0.75 -0.50 -0.40 0 -0.75 -0.20 -0.75 -0.50 0 -0.25 0.25 -0.50 0.50 -0.50 0.30 0 0.50 -0.55 0.50 -1.20 0 -1.70 0.80 -2.05 2.40 -1.05 l1.35 0.80 -1.35 -1.15 c-0.80 -0.65 -1.40 -1.45 -1.40 -1.75 0 -0.30 -0.35 -0.65 -0.75 -0.85 -0.80 -0.30 -1.05 -1.60 -0.35 -1.90 0.20 -0.05 0.75 -0.80 1.20 -1.65 0.65 -1.20 1.30 -1.55 3.10 -1.85 1.25 -0.15 2.50 -0.45 2.80 -0.65 0.65 -0.40 4.25 1.40 5.90 2.90 0.60 0.55 1.10 1.45 1.10 2 0 1 0 1 -1.10 0.05 l-1.05 -0.95 0.90 1.40 0.85 1.35 -1.60 0 c-1.15 0 -1.65 -0.25 -1.85 -1 -0.15 -0.65 -0.95 -1.20 -2.25 -1.55 -1.95 -0.50 -2.10 -0.45 -3.45 1.05 -1.70 1.85 -1.75 2 -0.50 2 1.35 0 1.45 0.25 1.85 4.65 l0.35 3.85 -1.90 0 c-1.85 0 -1.90 0 -1.60 -1.65z m-1.30 -2.70 c-0.20 -0.15 -0.50 -0.15 -0.70 0 -0.15 0.20 0 0.35 0.35 0.35 0.35 0 0.50 -0.15 0.35 -0.35z m0.55 -7.20 c-0.15 -0.40 -0.35 -0.15 -0.55 0.50 -0.20 0.85 -0.15 1.05 0.25 0.65 0.25 -0.25 0.40 -0.80 0.30 -1.15z m9.35 -1.45 c-0.15 -0.25 -0.80 -0.50 -1.40 -0.45 -1 0.05 -1 0.10 0.15 0.45 0.70 0.20 1.30 0.40 1.40 0.45 0.10 0.05 0 -0.15 -0.15 -0.45z"/>
  <path d="M25.85 14.15 c-0.20 -0.15 -0.35 -1.35 -0.35 -2.55 l0 -2.25 1.05 0.95 c1.10 0.95 1.10 0.95 0.50 -0.15 -0.30 -0.60 -0.80 -1.25 -1.05 -1.40 -0.30 -0.15 -0.50 -0.70 -0.50 -1.15 0 -1.40 1.35 0.30 3 3.80 l1.45 3.10 -1.90 0 c-1.05 0 -2.05 -0.15 -2.20 -0.35z"/>
  <path d="M22.60 2.35 c-2.15 -1.40 -2.90 -2.15 -2.30 -2.25 0.45 -0.10 0.95 0 1.15 0.25 0.15 0.20 1 0.80 1.80 1.25 1.25 0.70 3.35 2.95 2.70 2.90 -0.10 -0.05 -1.60 -1 -3.35 -2.15z"/>
  <path d="M26.20 3.40 c-0.20 -0.35 -0.15 -0.40 0.20 -0.20 0.60 0.35 0.80 0.80 0.40 0.80 -0.15 0 -0.40 -0.25 -0.60 -0.60z"/>
 </g>
 <g fill="#39327b">
  <path d="M0 38.95 c0 -0.55 0.25 -0.85 0.50 -0.70 0.30 0.15 0.50 0.65 0.50 1.05 0 0.40 -0.20 0.70 -0.50 0.70 -0.25 0 -0.50 -0.45 -0.50 -1.05z"/>
  <path d="M1.60 35 c0 -0.70 0.10 -0.95 0.25 -0.60 0.10 0.30 0.10 0.90 0 1.25 -0.15 0.30 -0.25 0.05 -0.25 -0.65z"/>
  <path d="M2.55 31.65 c0.55 -1.50 4.40 -7.65 4.80 -7.65 0.15 0 -0.50 1.20 -1.35 2.65 -0.85 1.40 -1.95 3.45 -2.40 4.45 -1 2.15 -1.85 2.60 -1.05 0.55z"/>
  <path d="M35 31.75 c0 -0.25 0.25 -0.85 0.50 -1.25 0.25 -0.40 0.50 -0.50 0.50 -0.25 0 0.30 -0.25 0.85 -0.50 1.25 -0.25 0.40 -0.50 0.55 -0.50 0.25z"/>
  <path d="M6.25 29.55 c0.90 -1.80 1.25 -1.95 1.25 -0.55 0 0.50 -0.45 1.20 -1.05 1.50 -1 0.55 -1 0.55 -0.20 -0.95z"/>
  <path d="M7.50 26.75 c0 -0.15 0.10 -0.25 0.25 -0.25 0.15 0 0.25 0.10 0.25 0.25 0 0.15 -0.10 0.25 -0.25 0.25 -0.15 0 -0.25 -0.10 -0.25 -0.25z"/>
  <path d="M8.30 22 c1.05 -2.15 1.20 -2.35 1.20 -1.40 0 0.45 -0.45 1.30 -1 1.95 l-1.05 1.20 0.85 -1.75z"/>
  <path d="M37.70 15.40 c-0.80 -1.70 -2.05 -3.90 -2.80 -4.95 -0.75 -1 -1.90 -2.95 -2.60 -4.25 -0.65 -1.35 -1.95 -3.20 -2.80 -4.10 -0.90 -0.90 -1.45 -1.80 -1.30 -1.95 0.50 -0.50 3.85 3.40 4.85 5.60 0.50 1.10 1.55 2.95 2.40 4.10 1.75 2.45 3.30 5.40 3.75 7.30 0.50 2.05 0.10 1.65 -1.50 -1.75z"/>
  <path d="M11 16.50 c0 -0.65 0.35 -1 1 -1 0.65 0 1 0.35 1 1 0 0.65 -0.35 1 -1 1 -0.65 0 -1 -0.35 -1 -1z"/>
  <path d="M22.15 17.15 c0.45 -0.10 0.85 -0.55 0.85 -0.90 0 -0.45 0.30 -0.60 0.75 -0.45 0.40 0.20 0.75 0.05 0.75 -0.25 0 -0.95 -2.90 -0.65 -3.10 0.30 -0.15 0.75 -0.20 0.75 -1 -0.05 -1.35 -1.35 -1.10 -2.30 0.55 -2.30 2.75 0 4.05 0.80 4.05 2.50 0 1.40 -0.10 1.50 -1.85 1.45 -1.05 -0.05 -1.50 -0.15 -1 -0.30z"/>
  <path d="M19.50 16.75 c0 -0.15 0.10 -0.25 0.25 -0.25 0.15 0 0.25 0.10 0.25 0.25 0 0.15 -0.10 0.25 -0.25 0.25 -0.15 0 -0.25 -0.10 -0.25 -0.25z"/>
  <path d="M11.50 14.50 c0 -0.25 0.35 -0.50 0.75 -0.50 0.40 0 0.75 0.25 0.75 0.50 0 0.30 -0.35 0.50 -0.75 0.50 -0.40 0 -0.75 -0.20 -0.75 -0.50z"/>
  <path d="M22.70 4.75 c-0.20 -0.40 -0.60 -0.75 -1 -0.75 -0.40 0 -0.70 -0.20 -0.70 -0.50 0 -0.85 0.85 -0.55 2.35 0.75 1.15 1 1.25 1.20 0.50 1.25 -0.50 0 -1 -0.35 -1.15 -0.75z"/>
  <path d="M22.55 2.20 c-1.20 -0.90 -2 -1.70 -1.80 -1.70 0.75 0 4.20 2.20 4.45 2.85 0.40 1.05 -0.25 0.75 -2.65 -1.15z"/>
  <path d="M19.40 2.15 c0.35 -0.15 0.80 -0.10 0.95 0.05 0.20 0.15 -0.10 0.30 -0.65 0.25 -0.55 0 -0.70 -0.15 -0.30 -0.30z"/>
 </g>
 <g fill="#4a4566">
  <path d="M17.50 39.55 c0 -0.25 0.35 -0.70 0.75 -1.05 0.40 -0.35 0.75 -1.15 0.75 -1.80 0 -0.65 0.40 -1.40 0.95 -1.65 1.20 -0.65 1.55 -3.10 0.75 -5 -0.55 -1.30 -0.50 -1.55 0.60 -2.60 1.25 -1.20 1.25 -2.05 -0.05 -0.95 -0.65 0.55 -0.75 0.40 -0.75 -0.95 0 -1.45 0.15 -1.55 1.70 -1.55 1.20 0 1.75 -0.25 1.95 -0.95 0.30 -1.15 2.85 -1.75 2.85 -0.65 0 0.45 -0.50 1.35 -1.10 2.05 -0.95 1.10 -0.85 1.05 0.60 -0.20 0.95 -0.80 1.85 -1.55 1.95 -1.60 0.25 -0.15 -1 -5.25 -1.55 -6.30 -0.65 -1.30 -0.10 -1.70 0.95 -0.75 0.50 0.45 1.20 0.65 1.55 0.55 0.75 -0.30 0.75 -0.05 0.05 1.50 -0.45 1 -0.35 1.70 0.50 3.60 1.30 2.95 1.30 3.05 0 5.50 l-1 2 1.30 -1.50 1.30 -1.50 -0.30 1.85 c-0.20 1.25 -0.10 1.85 0.35 2 0.50 0.20 0.50 0.55 -0.05 1.70 -0.40 0.80 -0.75 1.85 -0.80 2.35 -0.15 1.45 -2.30 3.35 -3.80 3.35 -1.20 0 -1.40 -0.25 -1.55 -1.55 l-0.15 -1.55 -1.35 1.20 c-0.95 0.80 -1.40 1.65 -1.40 2.75 0 1.30 -0.20 1.55 -1.55 1.85 -2.20 0.40 -3.45 0.40 -3.45 -0.15z m3.25 -2.05 c0.15 -0.25 0.05 -0.50 -0.20 -0.50 -0.30 0 -0.55 0.25 -0.55 0.50 0 0.30 0.10 0.50 0.20 0.50 0.15 0 0.40 -0.20 0.55 -0.50z m9.05 -4.05 c0.15 -0.30 -0.25 -0.15 -1 0.30 -0.70 0.50 -1.30 0.95 -1.30 1.10 0 0.35 1.95 -0.85 2.30 -1.40z m-4.75 -3.05 l-0.50 -1.15 0 1.15 c-0.05 0.60 -0.50 1.55 -1.05 2.10 -0.60 0.60 -0.90 1.25 -0.75 1.50 0.20 0.30 0.85 -0.15 1.55 -0.95 0.95 -1.15 1.10 -1.70 0.75 -2.65z m0.95 2.85 c0 -0.15 -0.10 -0.25 -0.25 -0.25 -0.15 0 -0.25 0.10 -0.25 0.25 0 0.15 0.10 0.25 0.25 0.25 0.15 0 0.25 -0.10 0.25 -0.25z m3 -3.15 c0 -1.75 -0.85 -0.85 -1.10 1.20 -0.20 1.60 -0.15 1.70 0.45 0.90 0.35 -0.50 0.65 -1.40 0.65 -2.10z m-0.85 -3.20 c0.40 -0.25 0.30 -0.40 -0.30 -0.40 -0.80 0 -0.80 -0.10 -0.05 -1.35 0.75 -1.30 0.70 -1.25 -0.75 0.25 -0.85 0.90 -1.55 1.90 -1.55 2.20 0 0.35 0.35 0.15 0.75 -0.40 0.65 -0.90 0.70 -0.80 0.80 1.05 0.10 1.75 0.15 1.80 0.30 0.50 0.15 -0.80 0.50 -1.65 0.80 -1.85z m-4.65 2.10 c0 -0.25 -0.20 -0.50 -0.50 -0.50 -0.25 0 -0.50 0.25 -0.50 0.50 0 0.30 0.25 0.50 0.50 0.50 0.30 0 0.50 -0.20 0.50 -0.50z"/>
  <path d="M24.50 38.75 c0 -1.10 0.20 -1.25 1.75 -1.25 0.95 0 1.75 0.15 1.75 0.40 -0.05 0.85 -1.45 2.10 -2.45 2.10 -0.80 0 -1.05 -0.30 -1.05 -1.25z"/>
  <path d="M5.60 36.50 c-0.80 -1.30 -0.80 -3.50 0.05 -3.50 0.45 0 0.70 0.75 0.75 2.25 0.05 1.25 0.05 2.25 -0.05 2.25 -0.05 0 -0.40 -0.45 -0.75 -1z"/>
  <path d="M32 37.35 c0 -0.70 1.65 -3.35 2.15 -3.35 0.45 0 -0.15 1.20 -1.35 2.75 -0.40 0.55 -0.80 0.80 -0.80 0.60z"/>
  <path d="M12 36.50 c0 -0.25 0.35 -0.50 0.75 -0.50 0.90 0 4.10 -2.80 3.70 -3.20 -0.15 -0.15 -0.95 0.25 -1.75 0.95 -1.70 1.45 -3.10 1.60 -3.55 0.40 -0.20 -0.50 -0.70 -1.15 -1.10 -1.50 -0.70 -0.55 -0.60 -0.60 0.55 -0.65 0.75 0 1.50 -0.20 1.65 -0.50 0.15 -0.25 0.05 -0.50 -0.25 -0.50 -0.35 0 -0.45 -0.35 -0.30 -0.85 0.20 -0.45 0.05 -1 -0.30 -1.20 -0.45 -0.30 -0.45 -0.55 0 -1.10 0.35 -0.35 0.55 -0.80 0.45 -0.90 -0.05 -0.15 0.50 0.40 1.30 1.15 0.75 0.75 1.75 1.55 2.20 1.85 0.70 0.40 0.75 0.60 0.20 1.25 -0.60 0.70 -0.50 0.80 0.65 0.80 1.05 0 1.30 0.25 1.35 1.40 0.05 0.80 0.15 1 0.30 0.50 0.10 -0.50 0.40 -0.90 0.65 -0.90 0.25 0 0.55 -0.60 0.65 -1.35 0.15 -1.20 0.20 -1.15 0.30 0.35 0.05 1.90 -0.65 3 -1.95 3 -0.45 0 -1.30 0.45 -1.90 1 -1.10 1.05 -3.60 1.40 -3.60 0.50z"/>
  <path d="M17.50 36.25 c0 -0.15 0.10 -0.25 0.25 -0.25 0.15 0 0.25 0.10 0.25 0.25 0 0.15 -0.10 0.25 -0.25 0.25 -0.15 0 -0.25 -0.10 -0.25 -0.25z"/>
  <path d="M32.20 32.75 c0.10 -0.55 0.35 -1.45 0.50 -2 0.15 -0.55 0.05 -1.80 -0.25 -2.75 -0.30 -0.95 -0.65 -2.75 -0.75 -3.90 -0.10 -1.20 -0.45 -2.60 -0.70 -3.10 -0.65 -1.20 -0.65 -4.90 -0.05 -4.25 0.25 0.30 0.90 2.20 1.45 4.25 1.10 4.15 1.20 10.10 0.15 11.75 -0.60 1 -0.60 1 -0.35 0z"/>
  <path d="M5.50 31.10 c0 -0.25 0.35 -0.85 0.75 -1.40 0.70 -0.90 0.70 -0.90 0.75 0.45 0 0.85 -0.25 1.35 -0.75 1.35 -0.40 0 -0.75 -0.20 -0.75 -0.40z"/>
  <path d="M17 30.55 c0 -0.25 0.35 -0.55 0.70 -0.70 0.50 -0.20 0.65 -0.05 0.45 0.45 -0.30 0.75 -1.15 0.95 -1.15 0.25z"/>
  <path d="M5 29.75 c0 -0.15 0.10 -0.25 0.25 -0.25 0.15 0 0.25 0.10 0.25 0.25 0 0.15 -0.10 0.25 -0.25 0.25 -0.15 0 -0.25 -0.10 -0.25 -0.25z"/>
  <path d="M10.50 29.75 c0 -0.15 0.10 -0.25 0.25 -0.25 0.15 0 0.25 0.10 0.25 0.25 0 0.15 -0.10 0.25 -0.25 0.25 -0.15 0 -0.25 -0.10 -0.25 -0.25z"/>
  <path d="M15.45 28.25 c-0.70 -0.35 -1.55 -1.25 -1.85 -2 -0.35 -0.75 -0.40 -1.20 -0.10 -1 0.25 0.15 0.50 -0.15 0.50 -0.70 0 -0.85 0.30 -1.05 1.75 -1.05 1.65 0 1.75 0.10 1.75 1.75 0 1.40 0.20 1.75 1 1.75 1.25 0 1.30 0.80 0.05 1.50 -1.25 0.65 -1.50 0.60 -3.10 -0.25z"/>
  <path d="M13.75 19 c-0.30 -2.25 -0.50 -2.50 -1.60 -2.50 -0.65 0 -1.05 -0.20 -0.90 -0.50 0.15 -0.25 0.75 -0.50 1.25 -0.50 1.20 0 1.80 -0.90 1.05 -1.65 -0.40 -0.40 -0.55 -0.30 -0.55 0.30 0 0.45 -0.35 0.85 -0.75 0.85 -0.40 0 -0.75 -0.20 -0.75 -0.50 0 -0.25 -0.35 -0.50 -0.75 -0.50 -0.40 0 -0.75 -0.25 -0.75 -0.50 0 -0.30 0.50 -0.45 1.15 -0.35 0.60 0.10 0.80 0.10 0.50 0 -0.35 -0.15 -0.65 -0.65 -0.65 -1.20 0 -1.40 1.85 -1.25 2.15 0.20 l0.20 1.10 0.10 -1.10 c0.05 -0.80 0.30 -1.05 0.95 -0.85 0.70 0.25 0.70 0.15 -0.10 -0.50 -0.95 -0.75 -0.90 -0.80 0.80 -0.80 1.80 0 1.80 0 2.05 2.65 0.20 1.40 0.30 4 0.30 5.75 l0.05 3.10 -1.70 0 c-1.65 0 -1.70 -0.05 -2.05 -2.50z m1.60 -4.10 c-0.15 -0.40 -0.30 -0.25 -0.30 0.30 -0.05 0.55 0.10 0.85 0.25 0.65 0.15 -0.15 0.20 -0.60 0.05 -0.95z"/>
  <path d="M26 19.50 c0 -1.40 -0.15 -1.50 -1.80 -1.50 -1.45 0 -1.75 -0.15 -1.50 -0.80 0.15 -0.45 0.30 -0.90 0.30 -1 0 -0.10 0.35 -0.20 0.75 -0.20 0.40 0 0.75 -0.20 0.75 -0.50 0 -0.25 -0.45 -0.50 -1 -0.50 -0.55 0 -1 -0.15 -1 -0.40 0 -0.20 -0.90 -0.30 -2 -0.20 -1.95 0.20 -2 0.15 -2 -1.35 0 -2.10 1.55 -3.55 3.90 -3.60 1.15 -0.05 1.40 -0.15 0.75 -0.30 -0.90 -0.15 -1.15 -0.55 -1.15 -1.70 0 -0.80 -0.20 -1.45 -0.50 -1.45 -0.25 0 -0.50 -0.35 -0.50 -0.75 0 -0.45 0.30 -0.60 0.75 -0.45 0.40 0.20 0.75 0.05 0.75 -0.25 0 -0.30 -0.50 -0.55 -1.10 -0.55 -0.65 0 -1.60 -0.10 -2.15 -0.20 -0.55 -0.10 -0.70 -0.05 -0.35 0.05 0.80 0.30 0.80 1.65 -0.05 1.65 -0.80 0 -4.50 2 -4.95 2.65 -0.50 0.80 -3.10 -0.20 -3.30 -1.25 -0.20 -1.05 2.70 -4.35 4.20 -4.70 0.65 -0.15 1.20 -0.50 1.20 -0.75 0 -1.70 6.50 1.60 8.95 4.50 1.80 2.25 4.55 7.05 4.55 8 0 1.20 -5.20 -0.15 -6.45 -1.65 -0.85 -1 -2.10 -1 -3.35 0 -0.95 0.75 -0.95 0.80 0.05 0.45 0.55 -0.20 1.35 -0.45 1.75 -0.60 0.40 -0.10 1.65 0.75 2.85 1.95 1.60 1.70 2.15 2.65 2.40 4.55 0.25 1.60 0.20 2.35 -0.20 2.35 -0.30 0 -0.55 -0.65 -0.55 -1.50z m1.30 -8.85 c-0.80 -1.55 -4.80 -5.60 -4.80 -4.90 0.05 0.30 0.95 1.40 2.05 2.50 1.10 1.10 2.25 2.40 2.50 2.90 0.80 1.40 1.05 0.95 0.25 -0.50z m-1.80 0.65 c0 -0.10 -0.35 -0.45 -0.75 -0.80 -0.60 -0.50 -0.75 -0.50 -0.75 0.20 0 0.45 0.35 0.80 0.75 0.80 0.40 0 0.75 -0.10 0.75 -0.20z m-12.35 -4.60 c0.70 -0.85 0.75 -1.05 0.10 -1.05 -0.40 0 -0.75 0.20 -0.75 0.40 0 0.20 -0.15 0.80 -0.35 1.30 -0.15 0.50 -0.20 0.80 -0.10 0.65 0.10 -0.15 0.60 -0.70 1.10 -1.30z m1.60 -2.20 c0.15 -0.25 0.05 -0.50 -0.20 -0.50 -0.30 0 -0.55 0.25 -0.55 0.50 0 0.30 0.10 0.50 0.20 0.50 0.15 0 0.40 -0.20 0.55 -0.50z"/>
  <path d="M30 15.25 c0 -0.15 0.10 -0.25 0.25 -0.25 0.15 0 0.25 0.10 0.25 0.25 0 0.15 -0.10 0.25 -0.25 0.25 -0.15 0 -0.25 -0.10 -0.25 -0.25z"/>
  <path d="M24 3 c-0.70 -0.55 -1 -1 -0.70 -1 0.30 0 0.95 0.45 1.45 1 1.15 1.25 0.85 1.25 -0.75 0z"/>
  <path d="M21.50 1.25 c0 -0.15 0.10 -0.25 0.25 -0.25 0.15 0 0.25 0.10 0.25 0.25 0 0.15 -0.10 0.25 -0.25 0.25 -0.15 0 -0.25 -0.10 -0.25 -0.25z"/>
 </g>
 <g fill="#595675">
  <path d="M17.50 39.55 c0 -0.25 0.35 -0.55 0.75 -0.75 0.40 -0.15 0.75 -0.55 0.75 -0.90 0.05 -0.35 0.55 -1.30 1.20 -2.10 0.95 -1.10 1.15 -1.85 0.95 -3.15 -0.20 -1.25 -0.10 -1.65 0.50 -1.65 0.45 0 0.85 -0.65 1.05 -1.75 0.30 -1.45 0.55 -1.75 1.55 -1.75 0.95 0 1.15 0.20 0.90 0.90 -0.25 0.70 -0.15 0.65 0.55 -0.15 0.80 -0.95 0.85 -0.90 0.70 1.15 -0.15 1.70 0 2.10 0.70 2.10 0.60 0 0.75 0.25 0.55 0.90 -0.30 0.75 -0.25 0.75 0.50 0.15 0.45 -0.35 0.85 -1.30 0.85 -2.10 0 -0.75 0.55 -2 1.25 -2.80 l1.20 -1.40 -0.30 1.90 c-0.15 1.10 -0.10 1.85 0.25 1.85 0.55 0 0.20 2 -0.35 2 -0.15 0 -1.20 0.80 -2.30 1.80 -1.10 0.95 -1.55 1.55 -0.95 1.25 0.55 -0.25 1.30 -0.85 1.70 -1.25 0.35 -0.45 0.80 -0.80 1.05 -0.80 0.65 0 -0.10 1.60 -1.40 3 -0.65 0.70 -1.15 1.50 -1.15 1.85 0 0.60 -2.70 2.15 -3.85 2.15 -0.40 0 -0.65 -0.60 -0.65 -1.50 0 -1 0.25 -1.50 0.75 -1.50 0.40 0 0.75 -0.40 0.70 -0.85 0 -0.55 -0.15 -0.65 -0.30 -0.25 -0.10 0.30 -0.55 0.60 -0.95 0.60 -0.40 0 -0.70 0.50 -0.70 1.15 0 0.85 -0.45 1.30 -1.65 1.75 -1.95 0.70 -3.85 0.80 -3.85 0.15z m3.50 -2.05 c0 -0.25 -0.35 -0.50 -0.80 -0.50 -0.40 0 -0.60 0.25 -0.45 0.50 0.15 0.30 0.50 0.50 0.80 0.50 0.25 0 0.45 -0.20 0.45 -0.50z m4.05 -7.10 c-0.35 -0.80 -0.50 -0.90 -0.50 -0.30 -0.05 0.45 -0.60 1.50 -1.30 2.30 -0.85 1 -1.05 1.60 -0.65 1.70 0.35 0.15 1.15 -0.40 1.75 -1.15 0.90 -1.05 1.05 -1.60 0.70 -2.55z m0.95 2.35 c0 -0.15 -0.10 -0.25 -0.25 -0.25 -0.15 0 -0.25 0.10 -0.25 0.25 0 0.15 0.10 0.25 0.25 0.25 0.15 0 0.25 -0.10 0.25 -0.25z"/>
  <path d="M12 36.50 c0 -0.25 0.45 -0.50 1.05 -0.50 0.55 0 1.70 -0.65 2.50 -1.45 1.15 -1.15 1.45 -1.30 1.45 -0.60 0 0.50 -0.85 1.35 -1.95 1.95 -2.10 1.20 -3.05 1.40 -3.05 0.60z"/>
  <path d="M33 35.60 c0.30 -0.65 0.70 -1.05 0.90 -0.90 0.15 0.20 -0.10 0.70 -0.60 1.20 -0.90 0.80 -0.90 0.80 -0.30 -0.30z"/>
  <path d="M11.05 33.90 c-0.50 -1.30 -0.30 -1.90 0.65 -1.90 0.40 0 0.80 -0.45 0.95 -1.05 0.20 -0.75 0.10 -0.90 -0.35 -0.50 -0.45 0.40 -0.60 0.10 -0.65 -1.20 -0.05 -1.20 0.15 -1.75 0.65 -1.75 0.40 0 0.70 0.45 0.70 1.05 0 0.70 0.25 0.95 0.70 0.80 0.95 -0.35 1.90 0.80 1.50 1.80 -0.15 0.40 -0.95 1.05 -1.75 1.35 -0.80 0.35 -1.40 0.75 -1.25 0.85 0.10 0.10 0.90 -0.15 1.80 -0.60 0.90 -0.45 1.65 -0.75 1.75 -0.65 0.30 0.30 -1 1.75 -2.10 2.30 -1.55 0.85 -2.15 0.75 -2.60 -0.50z"/>
  <path d="M18 34.15 c0 -0.20 0.40 -0.85 0.80 -1.40 0.75 -1 0.80 -1 0.60 0.20 -0.15 1.10 -1.40 2.20 -1.40 1.20z"/>
  <path d="M34 33.50 c0 -0.35 0.15 -0.50 0.35 -0.35 0.15 0.20 0.15 0.50 0 0.70 -0.20 0.15 -0.35 0 -0.35 -0.35z"/>
  <path d="M32.60 32 c0 -0.40 0.20 -1.30 0.40 -2 0.30 -1 0.40 -1.05 0.40 -0.25 0 0.55 -0.15 1.45 -0.40 2 -0.25 0.60 -0.40 0.70 -0.40 0.25z"/>
  <path d="M17.25 30.50 c-0.15 -0.25 -0.05 -0.50 0.20 -0.50 0.30 0 0.55 0.25 0.55 0.50 0 0.30 -0.10 0.50 -0.20 0.50 -0.15 0 -0.40 -0.20 -0.55 -0.50z"/>
  <path d="M26.90 28.65 c-0.10 -1.35 0.15 -2.25 0.80 -3.05 0.90 -1.05 0.95 -1.40 0.40 -4.75 -0.35 -1.95 -0.75 -4.15 -0.95 -4.85 -0.30 -1.20 -0.30 -1.20 0.70 -0.35 0.55 0.45 1.15 0.70 1.35 0.50 0.25 -0.25 0.25 0.30 0.10 1.10 -0.20 0.90 0 2.40 0.45 3.70 0.85 2.45 1 3.65 0.25 2.55 -0.40 -0.65 -0.50 -0.60 -0.50 0.15 0 0.45 0.25 0.85 0.50 0.85 0.30 0 0.50 0.35 0.50 0.75 0 0.85 -2.60 5.25 -3.10 5.25 -0.20 0 -0.40 -0.85 -0.50 -1.85z"/>
  <path d="M17 28.75 c0 -0.15 0.10 -0.25 0.25 -0.25 0.15 0 0.25 0.10 0.25 0.25 0 0.15 -0.10 0.25 -0.25 0.25 -0.15 0 -0.25 -0.10 -0.25 -0.25z"/>
  <path d="M14.85 27.90 c-0.95 -0.75 -2.35 -3.90 -2.35 -5.40 0 -0.80 0.35 -1 1.55 -1 2 0 2.90 1.15 2.95 3.65 0 1.70 -0.10 1.85 -1.35 1.90 -1.35 0 -1.35 0.05 -0.25 0.45 0.60 0.25 1.10 0.60 1.10 0.75 0 0.45 -0.80 0.25 -1.65 -0.35z m1.15 -2.65 c0 -0.15 -0.10 -0.25 -0.25 -0.25 -0.15 0 -0.25 0.10 -0.25 0.25 0 0.15 0.10 0.25 0.25 0.25 0.15 0 0.25 -0.10 0.25 -0.25z m-1.50 -2.50 c0 -0.15 -0.10 -0.25 -0.25 -0.25 -0.15 0 -0.25 0.10 -0.25 0.25 0 0.15 0.10 0.25 0.25 0.25 0.15 0 0.25 -0.10 0.25 -0.25z"/>
  <path d="M32.35 27 c-0.20 -0.70 -0.35 -1.85 -0.35 -2.55 0 -0.75 -0.35 -2.15 -0.75 -3.10 -0.80 -1.95 -1 -4.35 -0.35 -4.35 0.75 0 2.60 8.25 2.15 9.80 l-0.35 1.45 -0.35 -1.25z"/>
  <path d="M24.80 25.70 c-0.45 -1.80 0.10 -4.20 1 -4.20 0.40 0 0.70 -0.20 0.70 -0.50 0 -0.25 -0.35 -0.50 -0.75 -0.50 -0.40 0 -0.75 -0.45 -0.75 -1 0 -0.65 -0.35 -1 -1 -1 -0.75 0 -1 -0.35 -1 -1.30 0 -1.05 0.15 -1.20 1.05 -0.95 0.75 0.25 1 0.15 0.85 -0.30 -0.15 -0.40 -1.05 -0.75 -2.05 -0.85 -1.50 -0.15 -1.80 0 -1.55 0.60 0.45 1.10 -0.10 1 -1.30 -0.30 -1.60 -1.75 -1.30 -2.40 1.15 -2.40 1.75 0 2.40 0.30 3.75 1.70 1.45 1.50 1.70 2.10 1.95 5.25 0.20 2.45 0.10 3.55 -0.25 3.55 -0.30 0 -0.85 0.50 -1.15 1.15 -0.60 1.05 -0.55 1.05 0.35 0.35 0.50 -0.40 1.20 -1.10 1.55 -1.50 0.55 -0.65 0.60 -0.65 0.65 0.15 0 0.45 -0.20 0.85 -0.40 0.85 -0.25 0 -0.75 0.55 -1.10 1.25 -0.85 1.60 -1.30 1.60 -1.70 -0.05z"/>
  <path d="M13 18.75 c0 -0.80 -0.30 -1.25 -0.75 -1.25 -0.40 0 -0.75 -0.45 -0.75 -1 0 -0.65 0.35 -1 0.95 -1 1.25 0 1.85 -0.90 1.10 -1.65 -0.40 -0.40 -0.55 -0.30 -0.55 0.30 0 1.10 -0.45 1.05 -2 -0.15 l-1.25 -1.05 1.50 0.35 c1.45 0.30 1.45 0.30 0.50 -0.45 -1.30 -1 -0.95 -1.25 1.65 -0.95 l2.15 0.20 -0.35 2.20 c-0.25 1.85 -0.20 2.20 0.50 2.20 0.55 0 0.80 0.45 0.80 1.65 0 1.55 -0.15 1.65 -1.75 1.75 -1.55 0.10 -1.75 0 -1.75 -1.15z m2.50 -1.50 c0 -0.15 -0.10 -0.25 -0.25 -0.25 -0.15 0 -0.25 0.10 -0.25 0.25 0 0.15 0.10 0.25 0.25 0.25 0.15 0 0.25 -0.10 0.25 -0.25z"/>
  <path d="M19 16.25 c0 -0.15 0.10 -0.25 0.25 -0.25 0.15 0 0.25 0.10 0.25 0.25 0 0.15 -0.10 0.25 -0.25 0.25 -0.15 0 -0.25 -0.10 -0.25 -0.25z"/>
  <path d="M24.40 13.20 c-1.40 -0.75 -1.85 -1.70 -0.85 -1.70 0.25 0 0.35 -0.20 0.20 -0.50 -0.15 -0.25 -0.75 -0.50 -1.30 -0.50 -0.75 0 -0.95 -0.35 -0.95 -1.80 0 -1.35 -0.25 -1.85 -1 -2.05 -0.55 -0.15 -1 -0.45 -1 -0.70 0 -0.25 -0.35 -0.45 -0.75 -0.45 -0.40 0 -0.75 -0.35 -0.75 -0.80 0 -0.60 0.30 -0.70 1.65 -0.40 0.85 0.20 2.20 0.40 2.90 0.40 0.90 0.05 1.90 0.70 3.15 2.20 2.85 3.45 2.25 3.30 -1.80 -0.35 -3.35 -2.95 -0.35 1 4.70 6.35 l1.05 1.10 -1.95 0 c-1.05 -0.05 -2.55 -0.40 -3.30 -0.80z"/>
  <path d="M28 11.75 c0 -0.15 0.10 -0.25 0.25 -0.25 0.15 0 0.25 0.10 0.25 0.25 0 0.15 -0.10 0.25 -0.25 0.25 -0.15 0 -0.25 -0.10 -0.25 -0.25z"/>
  <path d="M27.50 10.75 c0 -0.15 0.10 -0.25 0.25 -0.25 0.15 0 0.25 0.10 0.25 0.25 0 0.15 -0.10 0.25 -0.25 0.25 -0.15 0 -0.25 -0.10 -0.25 -0.25z"/>
  <path d="M13.40 5.65 c-1.60 -0.40 -0.95 -3.65 0.65 -3.65 0.55 0 1.40 -0.25 1.90 -0.55 0.70 -0.50 1.45 -0.30 3.85 0.80 2.40 1.15 2.75 1.45 1.80 1.65 -0.65 0.10 -1.75 0 -2.50 -0.25 -1.50 -0.50 -3.10 -0.30 -3.10 0.35 0 0.25 0.35 0.35 0.75 0.20 0.50 -0.20 0.75 0 0.75 0.75 0 0.85 -0.30 1.05 -1.60 1 -0.90 -0.05 -2.05 -0.15 -2.50 -0.30z m1.60 -0.90 c0.50 -0.60 0.50 -0.75 -0.20 -0.75 -0.45 0 -0.80 0.35 -0.80 0.75 0 0.40 0.10 0.75 0.20 0.75 0.10 0 0.45 -0.35 0.80 -0.75z"/>
  <path d="M24.50 3.25 c0 -0.15 0.10 -0.25 0.25 -0.25 0.15 0 0.25 0.10 0.25 0.25 0 0.15 -0.10 0.25 -0.25 0.25 -0.15 0 -0.25 -0.10 -0.25 -0.25z"/>
  <path d="M22.50 2 c-0.65 -0.40 -0.60 -0.50 0.15 -0.50 0.45 0 0.85 0.25 0.85 0.50 0 0.60 -0.05 0.60 -1 0z"/>
 </g>
 <g fill="#574896">
  <path d="M1.50 37.25 c0 -0.15 0.10 -0.25 0.25 -0.25 0.15 0 0.25 0.10 0.25 0.25 0 0.15 -0.10 0.25 -0.25 0.25 -0.15 0 -0.25 -0.10 -0.25 -0.25z"/>
  <path d="M5.50 36.25 c-0.80 -1 -0.20 -5.15 1.05 -7.05 1.15 -1.75 1.20 -1.15 0.25 2.45 -0.40 1.45 -0.60 3.25 -0.45 4 0.30 1.50 0.05 1.70 -0.85 0.60z"/>
  <path d="M33 35.75 c0 -0.50 2.50 -5.25 2.75 -5.25 0.10 0 0 0.55 -0.25 1.25 -1.05 2.75 -2.50 5.05 -2.50 4z"/>
  <path d="M33.05 30.20 c0 -0.55 0.15 -0.70 0.30 -0.30 0.15 0.35 0.10 0.80 -0.05 0.95 -0.15 0.20 -0.30 -0.10 -0.25 -0.65z"/>
  <path d="M4.50 28.25 c0 -0.15 0.10 -0.25 0.25 -0.25 0.15 0 0.25 0.10 0.25 0.25 0 0.15 -0.10 0.25 -0.25 0.25 -0.15 0 -0.25 -0.10 -0.25 -0.25z"/>
  <path d="M5.25 27 c0.15 -0.25 0.40 -0.50 0.55 -0.50 0.15 0 0.10 0.25 -0.05 0.50 -0.15 0.30 -0.40 0.50 -0.55 0.50 -0.15 0 -0.10 -0.20 0.05 -0.50z"/>
  <path d="M13 24.70 c-1.25 -2.85 -1.25 -2.70 0.25 -2.70 0.90 0 1.15 0.20 0.95 0.75 -0.20 0.40 -0.10 0.75 0.15 0.75 0.25 0 0.50 0.80 0.55 1.75 0.20 2.45 -0.75 2.20 -1.90 -0.55z"/>
  <path d="M6 25.75 c0 -0.15 0.10 -0.25 0.25 -0.25 0.15 0 0.25 0.10 0.25 0.25 0 0.15 -0.10 0.25 -0.25 0.25 -0.15 0 -0.25 -0.10 -0.25 -0.25z"/>
  <path d="M6.50 24.75 c0 -0.15 0.10 -0.25 0.25 -0.25 0.15 0 0.25 0.10 0.25 0.25 0 0.15 -0.10 0.25 -0.25 0.25 -0.15 0 -0.25 -0.10 -0.25 -0.25z"/>
  <path d="M23.10 20.25 c0.25 -1.95 0.15 -2.25 -0.65 -2.25 -0.55 0 -0.95 -0.20 -0.95 -0.50 0 -0.25 0.30 -0.50 0.70 -0.50 0.40 0 0.80 -0.30 0.95 -0.60 0.15 -0.50 0.40 -0.50 1.10 0.10 0.80 0.65 0.85 0.60 0.70 -0.25 -0.15 -0.70 -0.75 -1.10 -1.95 -1.30 -0.95 -0.20 -1.35 -0.35 -0.90 -0.40 0.45 0 0.90 -0.35 1 -0.65 0.15 -0.40 0.80 -0.10 1.80 0.90 1.25 1.30 1.60 2.10 1.90 4.65 l0.35 3.05 -2.15 0 -2.15 0 0.25 -2.25z"/>
  <path d="M10.85 19 c-0.35 -1.45 0.10 -2.85 1.05 -3.10 0.70 -0.20 0.80 0.10 0.65 1.95 -0.15 2.25 -1.20 3 -1.70 1.15z"/>
  <path d="M30.50 18.30 c0 -0.40 0.25 -0.90 0.50 -1.05 0.30 -0.15 0.50 0.15 0.50 0.70 0 0.60 -0.20 1.05 -0.50 1.05 -0.25 0 -0.50 -0.30 -0.50 -0.70z"/>
  <path d="M17.30 16.90 c-0.15 -0.65 -0.30 -1.75 -0.30 -2.50 0 -1.25 0.20 -1.40 1.70 -1.40 1.45 0 1.70 0.20 1.95 1.40 0.30 1.65 -0.05 2.15 -0.70 0.95 -0.30 -0.45 -0.70 -0.75 -1 -0.60 -0.75 0.50 -0.50 1.05 0.80 1.75 1.75 0.95 1.55 1.50 -0.45 1.50 -1.30 0 -1.75 -0.25 -2 -1.10z"/>
  <path d="M27.35 16.70 c-0.20 -0.20 -0.35 -0.70 -0.35 -1.15 0 -0.55 0.15 -0.60 0.55 -0.20 0.30 0.30 0.50 0.80 0.35 1.15 -0.10 0.30 -0.35 0.40 -0.55 0.20z"/>
  <path d="M13.80 14.75 c0.20 -0.75 0.10 -1.25 -0.20 -1.25 -0.30 0 -0.65 0.40 -0.75 0.90 -0.20 0.75 -0.25 0.75 -0.30 -0.10 0 -0.50 -0.40 -1.20 -0.85 -1.55 -0.95 -0.65 -0.60 -2.50 0.55 -2.95 0.40 -0.15 0.70 -0.10 0.70 0.10 -0.30 1.90 0.10 2.60 1.55 2.60 1.20 0 1.50 0.20 1.50 1.05 0 0.55 -0.20 0.85 -0.50 0.70 -0.25 -0.15 -0.50 0.15 -0.50 0.70 0 0.60 -0.35 1.05 -0.75 1.05 -0.55 0 -0.70 -0.35 -0.45 -1.25z"/>
  <path d="M38 15.50 c0 -0.35 0.15 -0.50 0.35 -0.35 0.15 0.20 0.15 0.50 0 0.70 -0.20 0.15 -0.35 0 -0.35 -0.35z"/>
  <path d="M36.95 13.40 c-0.35 -0.65 -0.95 -1.70 -1.35 -2.40 -0.70 -1.20 -0.65 -1.20 0.15 -0.25 1 1.20 2.40 3.75 2.05 3.75 -0.15 0 -0.55 -0.50 -0.85 -1.10z"/>
  <path d="M25.65 13.65 c0.20 -0.15 0.50 -0.15 0.70 0 0.15 0.20 0 0.35 -0.35 0.35 -0.35 0 -0.50 -0.15 -0.35 -0.35z"/>
  <path d="M34.10 8.90 c-0.25 -0.35 -1 -1.65 -1.60 -2.90 -0.60 -1.25 -1.60 -2.80 -2.20 -3.50 l-1.05 -1.25 1.15 0.95 c0.60 0.55 1.90 2.40 2.80 4.15 1.65 3.10 1.90 3.75 0.90 2.55z"/>
  <path d="M17.50 5 c0 -1.05 0.50 -1.20 2.40 -0.70 1.80 0.50 1.35 1.70 -0.65 1.70 -1.40 0 -1.75 -0.20 -1.75 -1z"/>
  <path d="M23 4.75 c0 -0.15 0.10 -0.25 0.25 -0.25 0.15 0 0.25 0.10 0.25 0.25 0 0.15 -0.10 0.25 -0.25 0.25 -0.15 0 -0.25 -0.10 -0.25 -0.25z"/>
  <path d="M18.90 3.65 c-2.10 -0.30 -1.65 -1.25 0.50 -1.05 1 0.10 1.80 0.35 1.75 0.65 -0.10 0.60 -0.50 0.65 -2.25 0.40z"/>
  <path d="M22 3.75 c0 -0.15 0.10 -0.25 0.25 -0.25 0.15 0 0.25 0.10 0.25 0.25 0 0.15 -0.10 0.25 -0.25 0.25 -0.15 0 -0.25 -0.10 -0.25 -0.25z"/>
  <path d="M23.15 2.45 c-1.70 -1.10 -2 -1.45 -1.20 -1.45 0.50 0 3.50 2.45 3.05 2.50 -0.15 0 -1 -0.50 -1.85 -1.05z"/>
 </g>
 <g fill="#bf5148">
  <path d="M21.50 20.40 c0 -2.80 0.55 -3.55 2.60 -3.70 1.85 -0.15 2.40 0.40 2.40 2.45 0 2.45 -0.80 3.35 -3 3.35 l-2 0 0 -2.10z m4 -0.15 c0 -0.40 -0.10 -0.75 -0.20 -0.75 -0.10 0 -0.30 0.35 -0.50 0.75 -0.15 0.40 -0.05 0.75 0.20 0.75 0.30 0 0.50 -0.35 0.50 -0.75z"/>
 </g>
 <g fill="#6c608d">
  <path d="M19 39.25 c0 -0.45 0.45 -0.75 1.25 -0.75 0.80 0 1.25 0.30 1.25 0.75 0 0.45 -0.45 0.75 -1.25 0.75 -0.80 0 -1.25 -0.30 -1.25 -0.75z"/>
  <path d="M21 36.05 c0 -1.10 1.50 -2.60 1.50 -1.50 0.05 0.40 0.60 0.05 1.25 -0.80 0.70 -0.80 1.25 -1.20 1.25 -0.85 0 0.30 0.35 0.60 0.75 0.60 0.45 0 0.75 -0.45 0.75 -1.25 0 -0.80 -0.30 -1.25 -0.75 -1.25 -1.50 0 -0.40 -3.30 1.70 -5.20 0.60 -0.55 1.05 -1.50 1.05 -2.15 0 -0.60 0.25 -1.15 0.50 -1.15 0.85 0 0.55 3.10 -0.35 3.80 -0.85 0.65 -0.85 0.65 0 0.70 0.80 0 0.80 0.15 0.20 1.40 -0.40 0.75 -0.90 2.25 -1.05 3.35 -0.35 1.85 -0.30 1.95 0.40 1 0.40 -0.55 0.80 -1.55 0.80 -2.25 0 -0.70 0.25 -1.60 0.55 -2 0.35 -0.55 0.45 0.35 0.30 3.10 -0.10 2.10 -0.45 4.20 -0.85 4.60 -0.45 0.60 -1.60 0.80 -4.30 0.80 -3.30 0 -3.70 -0.10 -3.70 -0.95z m7.40 -1.30 c0.75 -0.70 1.10 -1.25 0.85 -1.25 -0.75 0 -2.75 1.50 -2.75 2.05 0 0.70 0.45 0.55 1.90 -0.80z"/>
  <path d="M5.30 35.10 c-0.15 -0.25 0.05 -1.45 0.45 -2.65 l0.70 -2.20 -0.30 2.50 c-0.30 2.75 -0.40 3.05 -0.85 2.35z"/>
  <path d="M16.55 34.20 c0 -0.55 0.15 -0.70 0.30 -0.30 0.15 0.35 0.10 0.80 -0.05 0.95 -0.15 0.20 -0.30 -0.10 -0.25 -0.65z"/>
  <path d="M18.25 33.50 c0.15 -0.25 0.55 -0.50 0.80 -0.50 0.30 0 0.35 0.25 0.20 0.50 -0.15 0.30 -0.55 0.50 -0.80 0.50 -0.30 0 -0.35 -0.20 -0.20 -0.50z"/>
  <path d="M34 33.75 c0 -0.15 0.10 -0.25 0.25 -0.25 0.15 0 0.25 0.10 0.25 0.25 0 0.15 -0.10 0.25 -0.25 0.25 -0.15 0 -0.25 -0.10 -0.25 -0.25z"/>
  <path d="M21.25 31.70 c0.25 -1.40 0.10 -1.95 -0.55 -2.40 -0.75 -0.60 -0.70 -0.70 0.50 -1.65 0.70 -0.60 1.30 -1.35 1.30 -1.70 0 -0.35 -0.60 -0.05 -1.35 0.65 -2.05 1.95 -3.65 2.40 -5.55 1.60 -2.30 -0.95 -2.05 -1.85 0.40 -1.60 1.10 0.10 2 0.05 2 -0.15 0 -0.20 0.70 -0.45 1.50 -0.60 0.85 -0.20 1.50 -0.65 1.50 -1.05 0 -0.40 0.50 -0.80 1.15 -0.90 0.75 -0.10 1.15 -0.55 1.25 -1.40 0.10 -0.65 0.55 -1.70 0.95 -2.25 0.60 -0.80 0.70 -0.80 0.50 -0.10 -0.20 0.45 -0.05 0.85 0.20 0.85 0.35 0 0.45 -0.45 0.25 -1.10 -0.15 -0.65 -0.30 -1.35 -0.30 -1.60 0 -0.20 -0.35 -0.25 -0.80 -0.10 -0.55 0.20 -0.70 0.05 -0.60 -0.60 0.10 -0.45 0.50 -0.80 0.80 -0.75 0.35 0.10 0.60 -0.20 0.60 -0.60 0 -1.55 0.80 -0.65 1.40 1.50 0.90 3.30 0.75 4.60 -0.65 6.45 -1.70 2.25 -1.55 2.55 0.35 0.80 0.85 -0.80 1.70 -1.35 1.85 -1.15 0.15 0.15 0 0.40 -0.35 0.55 -0.70 0.20 -3.60 5.85 -3.60 6.85 0 0.65 -1.80 2.25 -2.55 2.25 -0.35 0 -0.45 -0.60 -0.20 -1.80z"/>
  <path d="M34.50 32.75 c0 -0.15 0.10 -0.25 0.25 -0.25 0.15 0 0.25 0.10 0.25 0.25 0 0.15 -0.10 0.25 -0.25 0.25 -0.15 0 -0.25 -0.10 -0.25 -0.25z"/>
  <path d="M13 31.30 c0 -1.10 1.15 -1.80 1.85 -1.05 0.40 0.45 0.45 0.75 0 1.20 -0.75 0.75 -1.85 0.70 -1.85 -0.15z"/>
  <path d="M32.50 31.75 c0 -0.15 0.10 -0.25 0.25 -0.25 0.15 0 0.25 0.10 0.25 0.25 0 0.15 -0.10 0.25 -0.25 0.25 -0.15 0 -0.25 -0.10 -0.25 -0.25z"/>
  <path d="M31.05 30.70 c0 -0.55 0.15 -0.70 0.30 -0.30 0.15 0.35 0.10 0.80 -0.05 0.95 -0.15 0.20 -0.30 -0.10 -0.25 -0.65z"/>
  <path d="M33 30 c0 -0.35 0.15 -0.50 0.35 -0.35 0.15 0.20 0.15 0.50 0 0.70 -0.20 0.15 -0.35 0 -0.35 -0.35z"/>
  <path d="M12.60 23.40 c-0.30 -0.65 -0.80 -1.75 -1.10 -2.50 -0.45 -1.30 -0.40 -1.40 0.75 -1.40 1.15 0 1.25 -0.20 1.25 -2.15 0 -1.20 0.25 -2.40 0.55 -2.70 0.45 -0.45 0.10 -0.80 -1.25 -1.35 -1.60 -0.65 -1.80 -0.95 -1.50 -1.90 0.45 -1.60 0.35 -1.55 2.50 -0.35 l1.95 1.05 -1.25 -1.10 -1.20 -1.10 1.70 0.20 c1.55 0.15 1.75 0.35 2.30 2.40 0.35 1.25 0.60 1.85 0.65 1.40 0.05 -0.55 0.45 -0.90 1.10 -0.90 0.55 0 1.45 -0.25 2.05 -0.55 0.80 -0.45 1.20 -0.35 2.20 0.60 1.75 1.60 1.50 2.10 -0.80 1.80 -1.75 -0.20 -1.95 -0.15 -1.45 0.45 0.30 0.40 0.45 0.85 0.30 1 -0.15 0.15 -0.70 -0.20 -1.20 -0.75 -1.05 -1.25 -1.65 -1.35 -1.65 -0.30 0 0.40 0.45 0.95 1 1.25 1.40 0.75 1.25 1.50 -0.25 1.50 -1.10 0 -1.25 0.20 -1.25 1.80 0 1.80 0 1.80 -2 1.60 -1.95 -0.15 -2 -0.15 -2 1.45 0 1.90 -0.60 2.15 -1.40 0.55z m3.40 -3.65 c0 -0.15 -0.10 -0.25 -0.25 -0.25 -0.15 0 -0.25 0.10 -0.25 0.25 0 0.15 0.10 0.25 0.25 0.25 0.15 0 0.25 -0.10 0.25 -0.25z m-1 -1.50 c0 -0.15 -0.10 -0.25 -0.25 -0.25 -0.15 0 -0.25 0.10 -0.25 0.25 0 0.15 0.10 0.25 0.25 0.25 0.15 0 0.25 -0.10 0.25 -0.25z m0.50 -1 c0 -0.15 -0.10 -0.25 -0.25 -0.25 -0.15 0 -0.25 0.10 -0.25 0.25 0 0.15 0.10 0.25 0.25 0.25 0.15 0 0.25 -0.10 0.25 -0.25z m0.50 -1.95 c0 -0.40 -0.20 -0.90 -0.50 -1.05 -0.25 -0.15 -0.50 0.15 -0.50 0.70 0 0.60 0.25 1.05 0.50 1.05 0.30 0 0.50 -0.30 0.50 -0.70z"/>
  <path d="M30 23 c0 -0.35 0.15 -0.50 0.35 -0.35 0.15 0.20 0.15 0.50 0 0.70 -0.20 0.15 -0.35 0 -0.35 -0.35z"/>
  <path d="M31.35 21.25 c-0.90 -1.90 -1.10 -3.75 -0.45 -3.75 0.45 0 1.75 5 1.45 5.30 -0.10 0.10 -0.55 -0.60 -1 -1.55z"/>
  <path d="M27.60 17 c-0.95 -1.55 -0.70 -2.30 0.40 -1.10 1 1.05 1.30 2.10 0.60 2.10 -0.20 0 -0.65 -0.45 -1 -1z"/>
  <path d="M24.35 13.15 c-0.80 -0.40 -1.55 -1.05 -1.70 -1.45 -0.15 -0.45 -0.65 -0.60 -1.20 -0.45 -0.55 0.20 -0.95 0.10 -0.95 -0.20 0 -0.30 0.35 -0.55 0.75 -0.55 0.40 0 0.75 -0.35 0.75 -0.80 0 -0.40 -0.35 -1.10 -0.75 -1.50 -0.40 -0.45 -0.75 -1.40 -0.75 -2.20 0 -1.15 0.15 -1.35 1 -1.15 0.55 0.15 1 0.50 1 0.75 0 0.25 0.85 1.50 1.85 2.75 1.35 1.65 1.85 2.70 1.80 3.85 -0.05 0.85 0.05 1.15 0.15 0.70 0.35 -1.15 0.80 -1.15 1.60 0.10 0.55 0.90 0.50 1 -0.75 0.95 -0.80 -0.05 -2.05 -0.40 -2.80 -0.80z m-1 -5 c-0.20 -0.15 -0.35 0 -0.35 0.35 0 0.35 0.15 0.50 0.35 0.35 0.15 -0.20 0.15 -0.50 0 -0.70z"/>
  <path d="M10.50 13.25 c0 -0.15 0.10 -0.25 0.25 -0.25 0.15 0 0.25 0.10 0.25 0.25 0 0.15 -0.10 0.25 -0.25 0.25 -0.15 0 -0.25 -0.10 -0.25 -0.25z"/>
  <path d="M25.10 7.35 c-2.55 -2.60 -2.80 -3.70 -0.35 -1.30 1.60 1.50 3.05 3.45 2.60 3.45 -0.05 0 -1.10 -0.95 -2.25 -2.15z"/>
  <path d="M14 5.75 c0.70 -0.65 2 -1.35 2.90 -1.55 1.40 -0.30 1.60 -0.20 1.60 0.75 0 0.85 -0.30 1.05 -1.50 1.05 -0.80 0 -1.50 0.25 -1.50 0.50 0 0.30 -0.60 0.50 -1.35 0.50 l-1.40 0 1.25 -1.25z"/>
  <path d="M12.15 5.25 c0.10 -1.75 1.85 -2.50 1.85 -0.80 0 0.60 -0.30 1.05 -0.70 1.05 -0.40 0 -0.85 0.30 -1 0.65 -0.15 0.30 -0.20 -0.05 -0.15 -0.90z"/>
  <path d="M15 2.80 c0 -1.15 0.20 -1.30 1.75 -1.30 1.40 0 1.75 0.20 1.75 1 0 0.65 -0.35 1 -0.95 1 -0.55 0 -1.30 0.15 -1.75 0.30 -0.60 0.25 -0.80 0 -0.80 -1z"/>
  <path d="M20.90 3.65 c0.30 -0.10 0.90 -0.10 1.25 0 0.30 0.15 0.05 0.25 -0.65 0.25 -0.70 0 -0.95 -0.10 -0.60 -0.25z"/>
  <path d="M23.20 2.20 c-0.90 -0.70 -0.90 -0.75 0.20 -0.20 0.60 0.30 1.10 0.65 1.10 0.75 0 0.40 -0.25 0.30 -1.30 -0.55z"/>
 </g>
 <g fill="#a02e90">
  <path d="M15.60 25.10 c-0.65 -0.75 -1.05 -1.05 -0.85 -0.75 0.20 0.45 0 0.55 -0.60 0.30 -1.20 -0.45 -1.65 -1.15 -1.65 -2.75 0 -1.25 0.20 -1.40 1.60 -1.40 1.45 0 3.50 0.50 6.30 1.55 0.85 0.35 1.10 0.80 1.10 2.15 0 1.85 -0.60 2.30 -3.15 2.25 -1.10 0 -2 -0.45 -2.75 -1.35z m-1.25 -2.45 c-0.20 -0.15 -0.35 0 -0.35 0.35 0 0.35 0.15 0.50 0.35 0.35 0.15 -0.20 0.15 -0.50 0 -0.70z"/>
  <path d="M22.50 21.05 c0 -1.75 0.45 -3.05 1.05 -3.05 0.25 0 0.15 0.55 -0.15 1.25 -0.70 1.50 -0.10 2.35 0.80 1.15 0.60 -0.80 0.65 -0.70 0.70 0.60 0.05 1.25 -0.15 1.50 -1.20 1.50 -1 0 -1.20 -0.25 -1.20 -1.45z"/>
  <path d="M25.40 20.25 c-0.10 -1.55 0.05 -2.25 0.45 -2.25 0.40 0 0.65 0.70 0.65 1.95 0 2.80 -0.85 3 -1.10 0.30z"/>
 </g>
 <g fill="#6a9265">
  <path d="M19.30 17.20 c-0.25 -0.60 -0.10 -0.75 0.50 -0.50 0.40 0.15 1.35 0.30 2 0.30 0.65 0 1.20 0.25 1.20 0.50 0 0.85 -3.35 0.60 -3.70 -0.30z"/>
  <path d="M11.10 16.65 c0.10 -0.50 0.60 -0.90 1.15 -0.90 1.05 0 2.30 -1.25 1.95 -1.85 -0.45 -0.70 -1.20 -0.45 -1.20 0.35 0 0.90 -0.80 1 -1.30 0.20 -0.15 -0.30 -0.05 -0.75 0.30 -0.95 0.40 -0.25 0.35 -0.45 -0.25 -0.70 -1.20 -0.45 -0.40 -1.30 1.30 -1.30 1.10 0 1.45 0.25 1.45 1 0 0.55 0.20 1 0.40 1 0.25 0 0.30 0.85 0.15 1.90 -0.30 1.70 -0.45 1.85 -2.20 2 -1.65 0.15 -1.90 0.05 -1.75 -0.75z"/>
  <path d="M20.50 16 c-0.40 -0.25 -0.55 -0.60 -0.35 -0.80 0.20 -0.20 0.65 -0.10 0.95 0.20 0.75 0.75 0.35 1.20 -0.60 0.60z"/>
  <path d="M20.40 14.65 c-0.80 -0.10 -1.40 -0.45 -1.40 -0.70 0 -0.75 3.65 -0.30 3.90 0.45 0.20 0.60 0 0.60 -2.50 0.25z"/>
 </g>
 <g fill="#7a7095">
  <path d="M17.50 39.50 c0 -0.35 0.15 -0.50 0.35 -0.35 0.15 0.20 0.15 0.50 0 0.70 -0.20 0.15 -0.35 0 -0.35 -0.35z"/>
  <path d="M19 38.70 c0 -0.80 0.20 -1.10 0.75 -0.90 1.15 0.45 1.95 -0.30 1 -1 -0.70 -0.50 -0.65 -0.70 0.45 -1.75 1.20 -1.10 1.30 -1.15 1.30 -0.25 0 1.60 2.70 -2.85 2.80 -4.60 0.05 -1.65 2.25 -5.30 2.60 -4.30 0.10 0.35 0.60 0.60 1.15 0.60 0.90 0 0.90 0.10 0.20 1.20 -0.60 0.85 -1.10 1.10 -2.15 0.95 -1 -0.15 -1.15 -0.10 -0.60 0.30 0.40 0.25 0.90 0.35 1.20 0.20 0.25 -0.20 0.35 0.65 0.15 2.15 -0.30 2.25 -0.25 2.35 0.40 1.50 0.40 -0.55 0.75 -1.60 0.75 -2.35 0 -0.75 0.45 -1.85 1.05 -2.50 l1 -1.20 -0.25 1.90 c-0.15 1.10 -0.05 1.75 0.25 1.60 0.25 -0.20 0.45 0 0.45 0.45 0 0.65 -0.60 1.20 -4 3.80 -0.70 0.50 -1.10 1.10 -0.85 1.30 0.20 0.20 1 -0.25 1.75 -0.95 1.55 -1.50 2.10 -1.65 2.10 -0.70 0 0.80 -2.60 3.35 -3.40 3.35 -0.35 0 -0.60 0.25 -0.60 0.50 0 0.30 -0.35 0.50 -0.75 0.50 -0.40 0 -0.75 0.35 -0.75 0.75 0 0.65 -0.60 0.75 -3 0.70 -2.80 -0.10 -3 -0.20 -3 -1.25z m6 -3.45 c0 -0.15 -0.10 -0.25 -0.25 -0.25 -0.15 0 -0.25 0.10 -0.25 0.25 0 0.15 0.10 0.25 0.25 0.25 0.15 0 0.25 -0.10 0.25 -0.25z"/>
  <path d="M15.80 34.45 c1 -1.15 1.20 -1.15 1.20 -0.25 0 0.35 -0.45 0.80 -1.05 0.95 -1 0.25 -1 0.25 -0.15 -0.70z"/>
  <path d="M11.50 34.55 c0 -0.55 2.95 -1.80 3.30 -1.40 0.15 0.15 -0.40 0.65 -1.25 1.05 -1.75 0.90 -2.05 0.95 -2.05 0.35z"/>
  <path d="M21.25 33 c-0.50 -0.80 0.30 -5.15 1.15 -6.15 1.05 -1.20 0.35 -1.70 -0.90 -0.60 -1 0.90 -1 0.90 -1 -0.90 0 -1.65 0.15 -1.85 1.25 -1.85 1 0 1.25 -0.25 1.25 -1.25 0 -0.90 0.25 -1.25 1 -1.25 0.65 0 1 0.35 1 1 0 0.55 0.20 1 0.45 1 0.25 0 0.35 -0.45 0.20 -1 -0.30 -1.20 0.75 -1.35 1.20 -0.20 0.15 0.45 -0.25 1.30 -1 2.10 -0.65 0.75 -1.40 1.90 -1.55 2.60 -0.35 1.20 -0.30 1.20 0.45 -0.10 0.75 -1.35 2.15 -2 1.60 -0.75 -0.15 0.30 -0.85 1.95 -1.55 3.55 l-1.20 3 -0.25 -1.75 -0.20 -1.70 -0.05 1.80 c-0.10 1.90 -1.25 3.45 -1.85 2.45z m2.75 -4.75 c0 -0.15 -0.10 -0.25 -0.25 -0.25 -0.15 0 -0.25 0.10 -0.25 0.25 0 0.15 0.10 0.25 0.25 0.25 0.15 0 0.25 -0.10 0.25 -0.25z"/>
  <path d="M11.15 32.65 c0.20 -0.15 0.50 -0.15 0.70 0 0.15 0.20 0 0.35 -0.35 0.35 -0.35 0 -0.50 -0.15 -0.35 -0.35z"/>
  <path d="M13 31.05 c0.75 -1.45 1.35 -1.65 1.65 -0.55 0.30 1.15 0 1.50 -1.25 1.50 -0.75 0 -0.85 -0.15 -0.40 -0.95z"/>
  <path d="M12.05 28.80 c-0.40 -0.50 -0.45 -0.80 -0.05 -1.05 0.25 -0.15 0.65 0.05 0.80 0.50 0.45 1.10 -0.05 1.45 -0.75 0.55z"/>
  <path d="M15.10 27.95 c-0.60 -0.25 -1.15 -0.65 -1.15 -0.95 -0.10 -0.75 -0.25 -1.10 -0.95 -2.75 -0.95 -2.20 -1.10 -8.25 -0.15 -8.25 0.35 0 0.80 -0.35 0.95 -0.75 0.50 -1.30 1.20 -0.80 1.25 0.90 l0.05 1.60 0.55 -1.35 c0.30 -0.80 0.85 -1.40 1.20 -1.40 0.40 0 0.65 -0.65 0.65 -1.75 0 -1.40 0.20 -1.75 1 -1.75 0.55 0 1.40 -0.35 1.95 -0.80 0.80 -0.70 0.85 -1.05 0.40 -2.50 -0.30 -0.95 -0.80 -1.70 -1.20 -1.70 -0.35 0 -0.65 -0.45 -0.65 -1 0 -1.20 1.65 -1.35 2.60 -0.25 0.35 0.45 1.10 1.25 1.60 1.75 0.55 0.55 0.75 1 0.40 1 -0.35 0 -0.60 0.25 -0.60 0.50 0 0.30 0.40 0.50 0.85 0.40 0.80 -0.15 4.15 3.60 4.15 4.65 0 1.20 -4.55 -0.35 -5.40 -1.90 -0.40 -0.65 -0.65 -0.65 -2.15 0.15 -0.95 0.45 -1.45 0.95 -1.10 1.05 0.35 0.15 1 0 1.45 -0.25 0.65 -0.35 1.25 -0.20 2.30 0.55 2.10 1.55 1.75 2 -1.25 1.65 -1.45 -0.20 -3.05 -0.20 -3.50 0 -0.90 0.35 -1.15 2.45 -0.35 2.95 0.30 0.15 0.50 1.10 0.50 2.05 0 1.60 -0.10 1.70 -1.60 1.75 -0.90 0 -1.35 0.15 -1 0.30 0.30 0.10 0.60 0.45 0.60 0.70 0 0.30 -0.40 0.30 -0.95 -0.05 -1.30 -0.70 -1.55 -0.65 -1.55 0.30 0 0.40 0.25 0.60 0.55 0.40 1.05 -0.65 2.95 0.90 2.95 2.40 0 1.95 -0.95 2.85 -2.40 2.35z m0.90 -2.65 c0 -0.10 -0.35 -0.45 -0.75 -0.80 -0.65 -0.55 -0.70 -0.50 -0.45 0.20 0.25 0.70 1.20 1.15 1.20 0.60z m0.25 -5.80 c-0.15 -0.25 -0.55 -0.50 -0.80 -0.50 -0.30 0 -0.35 0.25 -0.20 0.50 0.15 0.30 0.55 0.50 0.80 0.50 0.30 0 0.35 -0.20 0.20 -0.50z m-1.25 -1.25 c0 -0.15 -0.10 -0.25 -0.25 -0.25 -0.15 0 -0.25 0.10 -0.25 0.25 0 0.15 0.10 0.25 0.25 0.25 0.15 0 0.25 -0.10 0.25 -0.25z m9.50 -6.50 c0 -0.15 -0.10 -0.25 -0.25 -0.25 -0.15 0 -0.25 0.10 -0.25 0.25 0 0.15 0.10 0.25 0.25 0.25 0.15 0 0.25 -0.10 0.25 -0.25z m-0.50 -1.50 c0 -0.15 -0.10 -0.25 -0.25 -0.25 -0.15 0 -0.25 0.10 -0.25 0.25 0 0.15 0.10 0.25 0.25 0.25 0.15 0 0.25 -0.10 0.25 -0.25z"/>
  <path d="M28.25 21.15 c-0.20 -2.15 -0.55 -4.30 -0.80 -4.75 -0.30 -0.60 -0.30 -0.90 0.05 -0.90 0.25 0 0.50 0.25 0.50 0.55 0 0.30 0.35 0.40 0.80 0.25 0.65 -0.25 0.70 -0.05 0.45 1.15 -0.15 0.80 0.05 2.35 0.45 3.60 1.05 2.95 1 3.95 -0.15 3.95 -0.80 0 -1 -0.55 -1.30 -3.85z"/>
  <path d="M31 20.55 c-0.55 -1.05 -0.70 -3.45 -0.20 -2.90 0.35 0.30 1.20 3.85 0.90 3.85 -0.10 0 -0.40 -0.45 -0.70 -0.95z"/>
  <path d="M22.50 18.10 c0 -1.35 1.05 -2.20 1.85 -1.55 0.50 0.45 0.65 0.35 0.65 -0.25 0 -0.50 0.25 -0.70 0.50 -0.55 0.30 0.15 0.50 1 0.50 1.85 0 1.30 -0.10 1.45 -0.75 0.90 -0.60 -0.50 -0.95 -0.50 -1.35 -0.10 -0.85 0.85 -1.40 0.75 -1.40 -0.30z"/>
  <path d="M12.15 14.65 c0.20 -0.15 0.50 -0.15 0.70 0 0.15 0.20 0 0.35 -0.35 0.35 -0.35 0 -0.50 -0.15 -0.35 -0.35z"/>
  <path d="M11.40 12.75 c-0.35 -0.35 0.10 -2.75 0.55 -2.75 0.15 0 0.85 0.45 1.55 1 1 0.80 1.10 1 0.40 1 -0.50 0 -0.90 0.25 -0.90 0.50 0 0.50 -1.15 0.70 -1.60 0.25z"/>
  <path d="M13.65 10.35 c-0.90 -0.50 -1.65 -1.25 -1.65 -1.65 0 -1.25 3.15 -4.10 5 -4.50 1.55 -0.30 1.65 -0.25 1.05 0.50 -0.35 0.45 -1 0.80 -1.40 0.80 -1.55 0 -2.95 2.65 -1.60 3.10 0.30 0.10 0.45 0.75 0.35 1.45 l-0.15 1.25 -1.60 -0.95z"/>
  <path d="M24.75 7 c-1.05 -1.10 -1.80 -2.10 -1.70 -2.25 0.15 -0.10 1.15 0.65 2.20 1.75 1.05 1.10 1.80 2.10 1.70 2.25 -0.15 0.10 -1.15 -0.65 -2.20 -1.75z"/>
  <path d="M10.70 7.25 c-0.45 -1.15 2.30 -4.80 4.10 -5.55 1.80 -0.75 3.50 -0.40 6.20 1.25 1.95 1.15 1.35 1.30 -2.40 0.60 -1.20 -0.25 -2.25 -0.25 -2.40 0.05 -0.15 0.25 -0.70 0.30 -1.25 0.15 -0.60 -0.20 -0.95 -0.10 -0.95 0.35 0 0.40 -0.45 1.05 -1 1.55 -0.55 0.45 -1 1.20 -1 1.60 0 1 -0.95 0.95 -1.30 0z"/>
  <path d="M22.50 1.75 c0 -0.15 0.10 -0.25 0.25 -0.25 0.15 0 0.25 0.10 0.25 0.25 0 0.15 -0.10 0.25 -0.25 0.25 -0.15 0 -0.25 -0.10 -0.25 -0.25z"/>
 </g>
 <g fill="#a65d9b">
  <path d="M17.35 25.40 c-0.35 -1.30 0.05 -1.90 0.60 -1 0.20 0.35 0.75 0.50 1.30 0.30 0.85 -0.35 0.85 -0.40 -0.05 -1.05 -0.50 -0.35 -1.30 -0.65 -1.80 -0.65 -0.55 0 -1.60 -0.35 -2.40 -0.75 -1.70 -0.90 -1.80 -0.75 -0.75 1.25 0.75 1.40 0.70 1.50 -0.20 1.50 -1 0 -1.55 -1.25 -1.55 -3.60 0 -1.25 0.20 -1.40 1.70 -1.40 0.95 0 2.05 0.35 2.50 0.75 0.40 0.40 1.40 0.75 2.20 0.75 1.60 0 2.10 0.85 2.10 3.65 0 1.20 -0.20 1.35 -1.70 1.35 -1.30 0 -1.75 -0.25 -1.95 -1.10z"/>
  <path d="M15 23.95 c-0.50 -0.90 -0.45 -1 0.35 -0.85 0.50 0.10 0.95 0.55 1.05 1.05 0.25 1.20 -0.75 1.05 -1.40 -0.20z"/>
  <path d="M21.50 19.30 c0 -1.25 0.30 -1.90 1.25 -2.50 1.20 -0.80 1.50 -0.70 1.25 0.45 -0.05 0.30 0.20 0.20 0.55 -0.10 1.05 -1.05 1.45 -0.75 1.45 0.95 0 1.50 -0.05 1.55 -0.75 0.60 -0.75 -0.95 -0.75 -0.95 -1.50 0 -0.40 0.55 -0.75 1.30 -0.75 1.65 0 0.35 -0.35 0.65 -0.75 0.65 -0.50 0 -0.75 -0.50 -0.75 -1.70z"/>
 </g>
 <g fill="#8c80a9">
  <path d="M17.50 39.75 c0 -0.15 0.10 -0.25 0.25 -0.25 0.15 0 0.25 0.10 0.25 0.25 0 0.15 -0.10 0.25 -0.25 0.25 -0.15 0 -0.25 -0.10 -0.25 -0.25z"/>
  <path d="M19 38.70 c0 -0.85 0.25 -1 1.25 -0.80 1.35 0.25 1.60 -0.35 0.65 -1.30 -0.50 -0.50 -0.35 -0.85 0.55 -1.75 l1.10 -1.10 -0.30 1.50 -0.35 1.50 1.10 -1.75 c0.60 -0.95 1.55 -2.15 2.10 -2.65 0.70 -0.70 0.80 -1.10 0.40 -1.60 -0.65 -0.80 -0.05 -2.55 1.75 -4.65 0.70 -0.85 1.30 -1.95 1.30 -2.45 0.05 -1.75 -0.70 -6.40 -1.15 -7.25 -0.25 -0.60 -0.25 -0.90 0.10 -0.90 0.25 0 0.50 0.25 0.50 0.50 0 0.30 0.35 0.50 0.75 0.50 0.55 0 0.60 0.30 0.30 1.10 -0.30 0.80 -0.10 1.85 0.50 3.30 0.55 1.20 0.95 2.75 0.95 3.45 0 1.50 -1.90 4.80 -2.55 4.40 -0.25 -0.20 -0.30 0.05 -0.15 0.50 0.35 0.85 -0.65 5.10 -1.45 6.15 -0.90 1.20 0.80 0.65 2.25 -0.75 2.05 -1.95 2.25 -1.05 0.35 1.60 -1.65 2.25 -1.75 2.35 -3.70 2.05 -1.50 -0.25 -1.80 -0.15 -1.10 0.25 1.65 0.95 0.85 1.50 -2.15 1.35 -2.70 -0.10 -3 -0.20 -3 -1.20z m3.50 -1.45 c0 -0.15 -0.10 -0.25 -0.25 -0.25 -0.15 0 -0.25 0.10 -0.25 0.25 0 0.15 0.10 0.25 0.25 0.25 0.15 0 0.25 -0.10 0.25 -0.25z m2.55 -2.10 c0.65 -0.80 0.60 -0.85 -0.15 -0.20 -0.50 0.35 -0.90 0.75 -0.90 0.85 0 0.40 0.40 0.15 1.05 -0.65z m3.45 -8.40 c0 -0.40 -0.20 -0.75 -0.50 -0.75 -0.25 0 -0.50 0.35 -0.50 0.75 0 0.40 0.25 0.75 0.50 0.75 0.30 0 0.50 -0.35 0.50 -0.75z"/>
  <path d="M11.90 34.15 c0.35 -0.15 0.80 -0.10 0.95 0.05 0.20 0.15 -0.10 0.30 -0.65 0.25 -0.55 0 -0.70 -0.15 -0.30 -0.30z"/>
  <path d="M16 34.25 c0 -0.15 0.10 -0.25 0.25 -0.25 0.15 0 0.25 0.10 0.25 0.25 0 0.15 -0.10 0.25 -0.25 0.25 -0.15 0 -0.25 -0.10 -0.25 -0.25z"/>
  <path d="M13.75 33.50 c0.15 -0.25 0.55 -0.50 0.80 -0.50 0.30 0 0.35 0.25 0.20 0.50 -0.15 0.30 -0.55 0.50 -0.80 0.50 -0.30 0 -0.35 -0.20 -0.20 -0.50z"/>
  <path d="M28.15 33.15 c0.45 -0.55 0.85 -1.50 0.85 -2.10 0 -0.60 0.40 -1.80 0.85 -2.70 0.85 -1.55 0.90 -1.55 1.05 -0.40 0.10 0.65 -0.05 1.40 -0.35 1.70 -0.80 0.80 -0.65 1.50 0.20 1.15 1.40 -0.50 -0.60 2 -2.10 2.65 -1.35 0.60 -1.35 0.60 -0.50 -0.30z"/>
  <path d="M21.35 32.80 c-0.20 -0.50 -0.35 -1.40 -0.35 -2 0 -0.60 -0.25 -1.35 -0.55 -1.65 -0.35 -0.35 -0.10 -0.85 1 -1.60 0.85 -0.65 1.55 -1.45 1.55 -1.85 0 -1 -0.10 -0.90 -2.20 1.05 -1.80 1.70 -3.80 2.35 -3.80 1.20 0 -0.30 -0.40 -0.40 -0.85 -0.25 -1.35 0.40 -2.05 -0.25 -2.90 -2.65 -0.90 -2.55 -0.95 -3.05 -0.25 -3.05 0.25 0 0.95 0.90 1.50 2.05 0.60 1.15 1.20 1.95 1.30 1.80 0.15 -0.15 0 -0.70 -0.35 -1.30 -0.35 -0.55 -0.50 -1.15 -0.35 -1.30 0.30 -0.35 2.45 0.70 2.95 1.45 0.20 0.25 0.75 0.30 1.25 0.10 0.80 -0.30 0.80 -0.40 0.10 -1.10 -0.45 -0.45 -1.55 -0.95 -2.45 -1.15 -2.10 -0.40 -2.70 -2.35 -0.85 -2.70 l1.15 -0.20 -1.15 -0.40 c-0.85 -0.25 -1.05 -0.60 -0.80 -1.20 0.65 -1.50 0.85 -4.05 0.25 -4.05 -0.30 0 -0.55 0.70 -0.55 1.55 0 0.85 -0.25 1.95 -0.50 2.50 -0.35 0.65 -0.35 0.95 0 0.95 0.25 0 0.50 0.25 0.50 0.50 0 0.30 -0.45 0.50 -1 0.50 -0.55 0 -1 0.35 -1 0.75 0 1.05 -0.85 0.95 -1.50 -0.20 -0.75 -1.45 -0.60 -2.45 0.40 -2.70 0.80 -0.20 0.75 -0.25 -0.05 -0.30 -0.60 -0.05 -0.85 -0.35 -0.75 -0.90 0.20 -0.95 0.35 -0.95 2.40 -0.45 0.70 0.15 0.95 0.15 0.65 0 -0.50 -0.20 -0.50 -0.55 -0.10 -1.25 0.45 -0.90 0.30 -1.10 -1 -1.60 -1.20 -0.45 -1.55 -0.85 -1.55 -1.95 0 -1.70 0.15 -1.70 2.15 -0.30 0.85 0.65 2.10 1.05 2.70 1 0.90 -0.15 1.15 0.10 1.15 0.85 0 1.20 0.85 1.30 2.20 0.30 1.30 -1 2.30 -0.90 3.70 0.20 0.60 0.55 1.10 1.05 1.10 1.15 0 0.05 -1.35 0.05 -3 0 -2.75 -0.15 -3 -0.10 -3 0.85 0 0.75 0.45 1.10 1.85 1.35 1.05 0.20 2.15 0.10 2.70 -0.20 1.15 -0.75 1.50 -0.25 0.80 1.25 -0.45 1.05 -0.80 1.20 -2.55 1.05 -2 -0.15 -2.05 -0.10 -2.20 1.50 -0.15 1.50 -0.05 1.60 1.30 1.60 0.85 0 1.60 -0.30 1.75 -0.70 0.15 -0.45 0.75 -0.60 1.55 -0.45 1.20 0.25 1.30 0.45 1.10 2.60 -0.10 1.25 -0.35 2.75 -0.55 3.30 -0.20 0.60 0 0.45 0.55 -0.35 1.45 -2.15 1.75 -1.65 0.65 1 -1.25 2.85 -1.90 3.65 -1.55 1.80 0.15 -0.95 0.05 -1.25 -0.35 -1 -0.30 0.20 -0.55 1.10 -0.55 2 0 0.90 -0.30 2 -0.65 2.50 -0.65 0.90 -0.70 0.90 -1 0.10z"/>
  <path d="M13.50 31.25 c0 -0.15 0.10 -0.25 0.25 -0.25 0.15 0 0.25 0.10 0.25 0.25 0 0.15 -0.10 0.25 -0.25 0.25 -0.15 0 -0.25 -0.10 -0.25 -0.25z"/>
  <path d="M27.25 24 c0.15 -0.25 0.40 -0.50 0.55 -0.50 0.15 0 0.10 0.25 -0.05 0.50 -0.15 0.30 -0.40 0.50 -0.55 0.50 -0.15 0 -0.10 -0.20 0.05 -0.50z"/>
  <path d="M25.80 22.70 c-0.15 -0.45 -0.30 -1.50 -0.30 -2.40 0 -0.90 -0.25 -1.85 -0.55 -2.15 -0.55 -0.55 -0.25 -1.65 0.50 -1.65 0.55 0 1.55 3.15 1.55 4.90 0 1.70 -0.75 2.55 -1.20 1.30z"/>
  <path d="M25 15.75 c0 -0.15 0.10 -0.25 0.25 -0.25 0.15 0 0.25 0.10 0.25 0.25 0 0.15 -0.10 0.25 -0.25 0.25 -0.15 0 -0.25 -0.10 -0.25 -0.25z"/>
  <path d="M25.70 13.60 c-0.30 -0.20 -0.90 -1.30 -1.35 -2.45 -0.70 -1.80 -0.70 -2.15 -0.15 -2.15 0.95 0 3.30 2.85 3.30 4.05 0 0.95 -0.80 1.25 -1.80 0.55z"/>
  <path d="M18.55 11.90 c-0.05 -1.60 0.15 -1.95 1.20 -2.20 0.70 -0.15 1.25 -0.35 1.25 -0.45 0 -1.10 -1.30 -3.25 -2 -3.25 -2.30 0 -4 0.65 -4 1.55 0 0.55 -0.20 0.95 -0.50 0.95 -0.25 0 -0.50 0.25 -0.50 0.50 0 0.30 0.35 0.50 0.75 0.50 0.40 0 0.75 0.45 0.75 1 0 0.90 -0.05 0.90 -1.75 -0.15 -0.95 -0.60 -1.70 -1.35 -1.75 -1.60 0 -0.30 0.65 -1.35 1.50 -2.30 1.70 -2.10 3.80 -2.70 6.45 -1.90 1.70 0.50 1.90 0.80 3.15 4.35 0.75 2.10 1.25 3.90 1.15 4 -0.10 0.10 -0.60 -0.30 -1.15 -0.90 -0.95 -1 -1.10 -1.05 -2.50 -0.30 -0.85 0.45 -1.60 1.05 -1.75 1.40 -0.15 0.35 -0.30 -0.20 -0.30 -1.20z"/>
  <path d="M25.60 7.85 c-1.25 -1.35 -1.50 -2.30 -0.30 -1.35 0.75 0.65 1.90 2.50 1.55 2.50 -0.10 0 -0.65 -0.50 -1.25 -1.15z"/>
  <path d="M11.50 6.40 c0 -2.95 3.35 -6.25 4.50 -4.35 0.55 0.90 0.15 1.45 -1.05 1.45 -0.55 0 -1.15 0.40 -1.30 0.90 -0.20 0.45 -0.50 0.95 -0.65 1.10 -0.20 0.15 -0.60 0.70 -0.90 1.25 -0.55 0.95 -0.55 0.90 -0.60 -0.35z"/>
  <path d="M23.35 5.65 c-0.20 -0.15 -0.35 -0.55 -0.35 -0.85 0 -0.30 0.25 -0.25 0.60 0.10 0.30 0.30 0.45 0.70 0.35 0.85 -0.15 0.15 -0.45 0.10 -0.60 -0.10z"/>
  <path d="M18.65 3.65 c-2 -0.25 -2.15 -0.90 -0.35 -1.35 0.90 -0.25 1.80 0 2.85 0.65 1.55 1 1.55 1.05 0.35 0.95 -0.70 -0.05 -2 -0.15 -2.85 -0.25z"/>
 </g>
 <g fill="#a195bc">
  <path d="M19 39.75 c0 -0.15 0.10 -0.25 0.25 -0.25 0.15 0 0.25 0.10 0.25 0.25 0 0.15 -0.10 0.25 -0.25 0.25 -0.15 0 -0.25 -0.10 -0.25 -0.25z"/>
  <path d="M21 39.50 c0 -0.25 -0.45 -0.50 -1 -0.50 -1.80 0 -1.05 -0.85 1 -1.20 1.15 -0.15 1.90 -0.55 1.75 -0.80 -0.45 -0.70 1.65 -4.50 2.45 -4.50 0.70 0 0.80 -0.80 0.20 -1.75 -0.40 -0.65 1.10 -3.95 2.65 -5.80 0.90 -1.15 0.95 -1.55 0.50 -3.25 -0.30 -1.05 -0.55 -2.65 -0.55 -3.50 0 -0.80 -0.25 -1.75 -0.60 -2.10 -0.45 -0.45 -0.45 -0.60 0 -0.60 0.35 0 0.60 0.25 0.60 0.50 0 0.30 0.30 0.50 0.65 0.50 0.45 0 0.60 0.45 0.45 1.40 -0.10 0.80 0.15 2.30 0.60 3.35 0.55 1.25 0.70 2.50 0.50 3.70 -0.40 2.20 -1.65 4.15 -2.30 3.75 -0.30 -0.20 -0.40 0.10 -0.20 0.70 0.30 0.95 -0.15 2.95 -1.50 6.30 -0.30 0.75 -0.20 0.90 0.45 0.65 1 -0.35 1.45 0.25 1.05 1.40 -0.25 0.65 -0.75 0.75 -2.65 0.50 -2.05 -0.25 -2.20 -0.25 -1.40 0.40 1.25 1.05 1.05 1.35 -0.90 1.35 -0.95 0 -1.75 -0.20 -1.75 -0.50z m4.40 -4.50 c0.60 -0.95 0.55 -1 -0.40 -0.40 -0.55 0.35 -1 0.80 -1 1 0 0.75 0.75 0.40 1.40 -0.60z"/>
  <path d="M21.05 36.55 c-0.60 -0.40 -0.60 -0.60 -0.10 -1.25 0.95 -1.10 1.70 -1 1.10 0.15 -0.30 0.50 -0.35 1.05 -0.20 1.25 0.45 0.45 0 0.35 -0.80 -0.15z"/>
  <path d="M28.90 34.40 c0.60 -0.60 1.20 -0.95 1.40 -0.75 0.50 0.50 -0.80 1.85 -1.70 1.85 -0.65 0 -0.60 -0.20 0.30 -1.10z"/>
  <path d="M21.30 32.40 c-0.55 -2.05 -0.30 -3.90 0.60 -4.80 0.45 -0.50 1.10 -1.35 1.40 -1.90 0.95 -1.60 1.30 -0.45 0.50 1.55 -0.45 1.05 -0.80 2.45 -0.80 3.20 0 0.70 -0.35 1.70 -0.70 2.20 -0.65 0.80 -0.70 0.80 -1 -0.25z"/>
  <path d="M28.80 32.45 c0.60 -0.65 1 -0.80 1.10 -0.45 0.15 0.35 -0.10 0.80 -0.45 1.05 -1.25 0.80 -1.60 0.45 -0.65 -0.60z"/>
  <path d="M29 30.60 c0 -0.90 1.10 -3.10 1.60 -3.10 0.75 0 0.40 1.30 -0.60 2.50 -0.55 0.65 -1 0.90 -1 0.60z"/>
  <path d="M24 29 c0 -0.55 0.20 -1 0.45 -1 0.25 0 0.35 0.45 0.20 1 -0.15 0.55 -0.35 1 -0.45 1 -0.10 0 -0.20 -0.45 -0.20 -1z"/>
  <path d="M14.35 27.10 c-0.75 -0.95 -1.90 -4 -2.20 -5.95 -0.25 -1.55 -0.15 -1.65 1.15 -1.65 0.80 0 2.10 0.35 2.85 0.75 1.30 0.65 1.40 0.65 1.25 -0.15 -0.10 -0.45 -0.65 -0.90 -1.30 -1 -1.30 -0.20 -1.30 -0.05 -0.40 -2.10 0.70 -1.65 0.55 -3.50 -0.25 -3.50 -0.25 0 -0.45 0.35 -0.45 0.75 0 0.40 -0.20 0.75 -0.50 0.75 -0.25 0 -0.45 -0.15 -0.40 -0.35 0.20 -0.65 -1.30 -2.65 -1.95 -2.65 -0.35 0 -0.65 -0.45 -0.65 -1.05 0 -1.10 0.15 -1.05 2.70 0.75 1.20 0.80 1.45 0.85 1.15 0.20 -0.25 -0.70 0.20 -0.90 2.45 -1.20 1.70 -0.20 2.70 -0.55 2.70 -0.95 0 -0.80 1.50 -1.45 2.05 -0.90 0.20 0.20 0.75 1.30 1.25 2.40 l0.80 2 -1.30 -1.25 c-1.25 -1.15 -1.45 -1.15 -2.65 -0.50 -2 1.15 -2.10 2.10 -0.20 1.45 1.30 -0.45 1.75 -0.40 2.85 0.50 1.25 1 1.25 1.05 0.25 1.05 -0.60 0 -1.05 -0.30 -1.05 -0.75 0 -0.40 -0.20 -0.75 -0.50 -0.75 -0.25 0 -0.50 0.35 -0.50 0.75 0 0.50 -0.50 0.75 -1.45 0.75 -1.20 0 -1.55 0.30 -2 1.55 -0.45 1.35 -0.45 1.50 0.20 0.95 0.55 -0.45 1.10 -0.45 2.30 -0.05 1.95 0.70 1.75 0.70 2.70 -0.25 0.70 -0.75 0.75 -0.70 0.55 0.50 -0.35 2 -0.65 2.20 -2.80 1.95 -1.75 -0.25 -2 -0.15 -2 0.70 0 1.30 2.30 2.45 2.70 1.35 0.20 -0.55 0.65 -0.65 1.40 -0.40 1.50 0.45 1.55 0.50 1.10 1.30 -0.25 0.35 -0.45 0.80 -0.45 0.95 0 0.40 -2.65 3.45 -2.95 3.45 -0.15 0 -0.30 -0.30 -0.30 -0.70 0 -0.40 -0.30 -0.85 -0.60 -0.95 -0.50 -0.20 -0.50 -0.30 0 -0.30 1.40 -0.10 0.45 -1.05 -1.40 -1.35 -1.50 -0.25 -2 -0.55 -2 -1.25 0 -0.55 -0.20 -0.95 -0.50 -0.95 -0.25 0 -0.50 0.25 -0.50 0.55 0 0.30 -0.45 0.40 -1.05 0.20 -0.90 -0.30 -1 -0.20 -0.70 0.85 0.60 1.90 1.70 3.40 2.60 3.40 0.70 0 0.65 -0.15 -0.25 -0.80 -0.60 -0.40 -1.10 -1.15 -1.05 -1.60 0 -0.50 0.15 -0.60 0.30 -0.20 0.10 0.30 0.70 0.60 1.25 0.60 1.25 0 2.40 1.15 2.40 2.40 0 0.80 -0.40 1.05 -2.05 1.20 -1.30 0.10 -2.20 -0.05 -2.60 -0.50z"/>
  <path d="M25 26.55 c0.80 -1.55 1.60 -1.80 0.90 -0.35 -0.30 0.70 -0.75 1.30 -1 1.30 -0.25 0 -0.20 -0.45 0.10 -0.95z"/>
  <path d="M25.80 21.90 c-0.55 -2.80 -0.70 -4.90 -0.30 -4.90 0.55 0 1.50 2.85 1.50 4.55 0 1.70 -0.90 1.95 -1.20 0.35z"/>
  <path d="M14 17.30 c0 -0.45 0.25 -0.80 0.50 -0.80 0.30 0 0.50 0.20 0.50 0.45 0 0.30 -0.20 0.65 -0.50 0.80 -0.25 0.15 -0.50 -0.05 -0.50 -0.45z"/>
  <path d="M14 15.75 c0 -0.15 0.10 -0.25 0.25 -0.25 0.15 0 0.25 0.10 0.25 0.25 0 0.15 -0.10 0.25 -0.25 0.25 -0.15 0 -0.25 -0.10 -0.25 -0.25z"/>
  <path d="M20.15 15.65 c0.20 -0.15 0.50 -0.15 0.70 0 0.15 0.20 0 0.35 -0.35 0.35 -0.35 0 -0.50 -0.15 -0.35 -0.35z"/>
  <path d="M25.30 12.90 c-0.90 -1.50 -1.45 -3.40 -0.95 -3.40 1.25 0.05 3.45 3.10 2.90 4 -0.50 0.80 -1.20 0.60 -1.95 -0.60z"/>
  <path d="M12.65 9.65 c-0.90 -0.35 -0.80 -1.15 0.10 -1.15 0.40 0 0.75 0.35 0.75 0.75 0 0.40 -0.05 0.75 -0.10 0.70 -0.10 0 -0.45 -0.15 -0.75 -0.30z"/>
  <path d="M25.75 8 c-0.50 -0.55 -0.70 -1 -0.45 -1 0.25 0 0.75 0.45 1.10 1 0.35 0.55 0.55 1 0.45 1 -0.10 0 -0.60 -0.45 -1.10 -1z"/>
  <path d="M10.80 7.55 c-0.35 -0.55 0.35 -2.40 1.35 -3.65 1.65 -2.05 1.85 -0.30 0.30 2.30 -1.15 1.95 -1.25 2.05 -1.65 1.35z"/>
  <path d="M13.50 6.50 c0.60 -0.80 1.30 -1.50 1.55 -1.50 0.25 0 0.45 0.70 0.45 1.50 0 1.35 -0.15 1.50 -1.55 1.50 l-1.50 0 1.05 -1.50z"/>
  <path d="M20 7 c0 -0.25 -0.90 -0.65 -2 -0.80 -2.15 -0.35 -2.70 -1.40 -0.95 -1.85 1.65 -0.45 4.55 0.75 5 2.05 0.35 0.95 0.25 1.10 -0.80 1.10 -0.70 0 -1.25 -0.20 -1.25 -0.50z"/>
  <path d="M23.50 5.75 c-1 -1.20 -0.30 -1.40 0.75 -0.25 0.50 0.55 0.65 1 0.40 1 -0.30 0 -0.80 -0.35 -1.15 -0.75z"/>
  <path d="M18.90 3.65 c-1.50 -0.15 -1.90 -0.40 -1.90 -1.25 0 -0.85 0.20 -0.95 1.40 -0.65 0.75 0.15 2.05 0.75 2.85 1.30 1.60 1 1.60 1 -2.35 0.60z"/>
  <path d="M16 2.75 c0 -0.15 0.10 -0.25 0.25 -0.25 0.15 0 0.25 0.10 0.25 0.25 0 0.15 -0.10 0.25 -0.25 0.25 -0.15 0 -0.25 -0.10 -0.25 -0.25z"/>
 </g>
 <g fill="#97d586">
  <path d="M18.50 17 c0 -0.65 1 -0.65 2 0 0.60 0.40 0.45 0.50 -0.60 0.50 -0.80 0 -1.40 -0.20 -1.40 -0.50z"/>
  <path d="M11.65 16.15 c0.45 -0.10 1.15 -0.10 1.50 0 0.30 0.15 -0.05 0.25 -0.90 0.25 -0.80 0 -1.10 -0.10 -0.60 -0.25z"/>
  <path d="M14.05 15.20 c0 -0.55 0.15 -0.70 0.30 -0.30 0.15 0.35 0.10 0.80 -0.05 0.95 -0.15 0.20 -0.30 -0.10 -0.25 -0.65z"/>
  <path d="M20 15.45 c0 -0.25 0.25 -0.35 0.50 -0.20 0.30 0.15 0.50 0.40 0.50 0.55 0 0.10 -0.20 0.20 -0.50 0.20 -0.25 0 -0.50 -0.25 -0.50 -0.55z"/>
  <path d="M12 14.50 c0 -0.25 0.25 -0.50 0.50 -0.50 0.30 0 0.50 0.25 0.50 0.50 0 0.30 -0.20 0.50 -0.50 0.50 -0.25 0 -0.50 -0.20 -0.50 -0.50z"/>
  <path d="M18.50 14 c0 -0.25 0.75 -0.50 1.70 -0.50 0.95 0 1.90 0.25 2.05 0.50 0.20 0.30 -0.50 0.50 -1.70 0.50 -1.15 0 -2.05 -0.20 -2.05 -0.50z"/>
  <path d="M13 13.20 l-1.25 -0.70 1.40 0 c0.85 0 1.35 0.25 1.35 0.75 0 0.40 -0.05 0.75 -0.10 0.70 -0.10 -0.05 -0.70 -0.35 -1.40 -0.75z"/>
 </g>
 <g fill="#d558ce">
  <path d="M16.70 26.05 c0.95 -0.35 0.95 -0.40 -0.10 -0.65 -1.05 -0.30 -2 -1.65 -1.50 -2.15 0.30 -0.35 2.90 0.90 2.90 1.40 0 0.20 0.35 0.35 0.75 0.35 0.40 0 0.75 0.35 0.75 0.75 0 0.55 -0.55 0.75 -1.85 0.70 -1.40 0 -1.65 -0.10 -0.95 -0.40z"/>
  <path d="M14 24.50 c0 -0.35 0.15 -0.50 0.35 -0.35 0.15 0.20 0.15 0.50 0 0.70 -0.20 0.15 -0.35 0 -0.35 -0.35z"/>
  <path d="M15.40 22.30 c-1.55 -1.15 -1.05 -1.85 1.15 -1.70 1.60 0.10 2.20 0.40 2.45 1.20 0.35 0.90 0.20 1.05 -1.15 1.10 -0.90 0 -2 -0.25 -2.45 -0.60z"/>
 </g>
 <g fill="#9d98e5">
  <path d="M21.60 21.65 c0.15 -1.75 1.40 -3.05 1.40 -1.45 0 0.45 0.35 0.80 0.75 0.80 1 0 0.95 0.30 -0.25 1.50 -1.50 1.50 -2.10 1.25 -1.90 -0.85z"/>
  <path d="M25.80 21.40 c-0.50 -1.50 -0.70 -4.40 -0.35 -4.40 0.40 0 1.55 3 1.55 4.15 0 1 -0.95 1.15 -1.20 0.25z"/>
  <path d="M21 18.25 c0 -0.40 0.30 -0.75 0.70 -0.75 0.40 0 1.15 -0.40 1.60 -0.85 0.85 -0.85 0.90 -0.85 0.55 0 -0.20 0.50 -0.35 1.25 -0.35 1.65 0 0.40 -0.50 0.70 -1.25 0.70 -0.80 0 -1.25 -0.30 -1.25 -0.75z"/>
  <path d="M12.50 16.70 c0 -0.55 0.25 -0.70 0.80 -0.50 0.45 0.15 1 0.30 1.25 0.30 0.25 0 0.45 0.25 0.45 0.50 0 0.30 -0.55 0.50 -1.25 0.50 -0.80 0 -1.25 -0.30 -1.25 -0.80z"/>
  <path d="M15.95 15 c-0.30 -2.25 -0.20 -2.90 0.35 -2.40 0.15 0.15 0.20 1.30 0.10 2.45 l-0.15 2.20 -0.30 -2.25z"/>
  <path d="M14.10 15.20 c0.05 -0.55 -0.20 -1.45 -0.60 -1.95 -0.65 -0.80 -0.60 -0.85 0.25 -0.70 1.15 0.25 1.65 2.30 0.75 3.15 -0.45 0.40 -0.55 0.30 -0.40 -0.50z"/>
 </g>
 <g fill="#aeadca">
  <path d="M21.75 39.50 c0.15 -0.25 -0.15 -0.50 -0.70 -0.50 -1.40 0 -1.35 -0.80 0.10 -1.20 1.70 -0.45 2 -0.35 1.65 0.45 -0.20 0.50 0.05 0.75 0.70 0.75 0.55 0 1 0.25 1 0.50 0 0.30 -0.70 0.50 -1.55 0.50 -0.85 0 -1.40 -0.20 -1.20 -0.50z"/>
  <path d="M25.20 38.05 c-2.60 -0.65 -2.75 -0.90 -1.95 -2.95 0.45 -1 1.15 -2.25 1.65 -2.75 0.45 -0.50 0.75 -1.50 0.70 -2.20 -0.20 -1.25 0.70 -2.95 2.50 -4.75 0.75 -0.75 0.95 -1.35 0.65 -2.60 -0.15 -0.85 -0.50 -2.75 -0.70 -4.15 -0.30 -2.15 -0.25 -2.55 0.30 -2.10 0.35 0.30 0.65 1.20 0.65 1.95 0 0.75 0.35 2.20 0.75 3.25 0.60 1.40 0.65 2 0.25 2.50 -0.35 0.40 -0.45 0.95 -0.25 1.25 0.50 0.80 -1.35 3.60 -1.90 2.85 -0.25 -0.35 -0.35 -0.15 -0.15 0.65 0.30 1.40 -0.85 5.70 -1.75 6.80 -1.10 1.35 0.60 0.75 2.40 -0.85 0.95 -0.80 1.85 -1.40 2 -1.25 0.25 0.25 -2.95 4.80 -3.35 4.75 -0.15 -0.05 -0.95 -0.20 -1.80 -0.40z m0.20 -3.05 c0.35 -0.55 0.45 -1 0.20 -1 -0.50 0 -1.60 1.10 -1.60 1.60 0 0.75 0.75 0.40 1.40 -0.60z"/>
  <path d="M21 35.45 c0.35 -0.55 0.70 -0.90 0.85 -0.75 0.40 0.40 -0.25 1.80 -0.85 1.80 -0.35 0 -0.35 -0.30 0 -1.05z"/>
  <path d="M14 33.25 c0 -0.15 0.10 -0.25 0.25 -0.25 0.15 0 0.25 0.10 0.25 0.25 0 0.15 -0.10 0.25 -0.25 0.25 -0.15 0 -0.25 -0.10 -0.25 -0.25z"/>
  <path d="M21.50 33.25 c0 -0.15 0.10 -0.25 0.25 -0.25 0.15 0 0.25 0.10 0.25 0.25 0 0.15 -0.10 0.25 -0.25 0.25 -0.15 0 -0.25 -0.10 -0.25 -0.25z"/>
  <path d="M28.50 33.10 c0 -0.25 0.45 -0.85 1 -1.35 1.15 -1.05 1.35 -0.20 0.20 0.95 -0.85 0.90 -1.20 1 -1.20 0.40z"/>
  <path d="M22.50 31.75 c0 -0.15 0.10 -0.25 0.25 -0.25 0.15 0 0.25 0.10 0.25 0.25 0 0.15 -0.10 0.25 -0.25 0.25 -0.15 0 -0.25 -0.10 -0.25 -0.25z"/>
  <path d="M22.55 30.20 c0 -0.55 0.15 -0.70 0.30 -0.30 0.15 0.35 0.10 0.80 -0.05 0.95 -0.15 0.20 -0.30 -0.10 -0.25 -0.65z"/>
  <path d="M29 30.45 c0 -0.45 0.45 -1.35 1 -2 0.75 -0.95 0.95 -1 1 -0.40 0 0.45 -0.45 1.35 -1 2 -0.75 0.95 -0.95 1 -1 0.40z"/>
  <path d="M24 28.95 c0 -0.75 1.80 -3.95 2.25 -3.95 0.25 0 -1.60 3.90 -2.05 4.45 -0.10 0.10 -0.20 -0.10 -0.20 -0.50z"/>
  <path d="M22.50 28.30 c0 -1 1.35 -3.45 1.65 -2.95 0.30 0.45 -0.95 3.65 -1.40 3.65 -0.15 0 -0.25 -0.30 -0.25 -0.70z"/>
  <path d="M16 23.75 c0 -0.15 0.10 -0.25 0.25 -0.25 0.15 0 0.25 0.10 0.25 0.25 0 0.15 -0.10 0.25 -0.25 0.25 -0.15 0 -0.25 -0.10 -0.25 -0.25z"/>
  <path d="M19.40 23.20 c-0.20 -0.15 -0.60 -0.35 -1 -0.40 -3.05 -0.65 -3.30 -2.20 -0.25 -2.10 1.90 0.05 2.10 0.20 2.25 1.45 0.15 1.25 -0.35 1.75 -1 1.05z"/>
  <path d="M25.85 22.05 c-0.10 -0.50 -0.10 -1.55 0.05 -2.30 0.30 -1.75 1.10 -0.65 1.10 1.65 0 1.75 -0.75 2.20 -1.15 0.65z"/>
  <path d="M22.50 13.70 c0 -0.70 0.15 -0.70 0.75 -0.20 0.40 0.35 0.75 0.70 0.75 0.80 0 0.10 -0.35 0.20 -0.75 0.20 -0.40 0 -0.75 -0.35 -0.75 -0.80z"/>
  <path d="M13.60 13.40 c-0.35 -0.35 -0.60 -1 -0.60 -1.50 0 -1.35 1.75 -0.30 1.85 1.05 0.10 1.20 -0.35 1.35 -1.25 0.45z"/>
  <path d="M15.70 13.15 c-0.15 -0.50 -0.50 -1.30 -0.75 -1.75 -0.35 -0.70 -0.25 -0.90 0.55 -0.90 0.80 0 1 0.35 1 1.75 0 1.90 -0.35 2.30 -0.80 0.90z"/>
  <path d="M24.85 11.75 c-1 -2.05 -0.35 -2.30 1.40 -0.50 1.50 1.45 1.60 2.25 0.35 2.25 -0.55 0 -1.25 -0.70 -1.75 -1.75z"/>
  <path d="M23.25 11.90 c-0.40 -0.65 -1.15 -1.15 -1.65 -1.15 -0.65 0 -0.90 -0.50 -1 -2.55 -0.10 -2.20 -0.30 -2.65 -1.25 -2.90 -2.05 -0.55 -2.85 -0.35 -2.85 0.70 0 1.15 -0.90 1.65 -2.50 1.40 -1.10 -0.15 -1.10 -0.15 0.15 -1.50 1 -1.05 1.75 -1.40 3.20 -1.40 3.05 0 4 0.50 4.65 2.15 0.30 0.90 1 2.65 1.50 4 1 2.60 0.95 2.90 -0.25 1.25z"/>
  <path d="M24.50 6.75 c-0.95 -0.95 -1.45 -1.75 -1.20 -1.75 0.55 0 2.25 1.70 2.90 2.90 0.60 1.05 0.05 0.70 -1.70 -1.15z"/>
  <path d="M10.85 6 c0.15 -0.55 0.45 -1 0.65 -1 0.20 0 0.65 -0.65 0.95 -1.45 0.45 -0.95 1.20 -1.60 2.45 -1.95 1.60 -0.50 2.15 -0.40 4.45 0.65 1.45 0.65 2.65 1.35 2.65 1.55 0 0.50 -2.70 -0.30 -3.10 -0.95 -0.30 -0.45 -0.40 -0.45 -0.40 0.05 0 0.30 -0.35 0.60 -0.75 0.60 -0.40 0 -0.75 -0.25 -0.75 -0.60 0 -0.45 -0.15 -0.45 -0.60 0 -0.35 0.35 -1 0.60 -1.45 0.60 -0.45 0 -1.35 0.80 -2 1.75 -1.30 1.90 -2.50 2.35 -2.10 0.75z"/>
 </g>
 <g fill="#c19cd7">
  <path d="M21.45 32.75 c-0.05 -1.20 -0.25 -2.30 -0.70 -3.70 -0.25 -0.75 -0.10 -1.05 0.45 -1.05 0.45 0 1.25 -0.70 1.75 -1.55 1.20 -2 1.70 -1.20 0.70 1.05 -0.45 0.95 -0.75 2.25 -0.70 2.85 0.05 0.65 -0.25 1.65 -0.65 2.25 -0.75 1.05 -0.80 1.05 -0.85 0.15z"/>
  <path d="M14.85 27.30 c-1.40 -1.50 -3.85 -7.80 -3.85 -9.85 0 -1.55 0.05 -1.55 1.80 -1.30 2.25 0.40 2.50 0.60 1.70 1.55 -0.65 0.85 -0.20 1.50 1.90 2.70 1 0.55 1.10 0.50 1.10 -0.40 0 -0.75 -0.35 -1 -1.25 -1 -1.30 0 -1.65 -0.70 -0.70 -1.30 0.70 -0.45 0.25 -5.45 -0.60 -6.50 -0.45 -0.60 -0.30 -0.70 0.95 -0.70 1.20 0 1.60 0.30 2.05 1.50 0.55 1.65 0.90 1.75 2.75 0.90 1.10 -0.45 1.45 -0.40 2.35 0.40 1.05 0.95 1.05 0.95 -1.85 1.20 -2.65 0.25 -2.90 0.35 -3.25 1.65 -0.35 1.30 0.25 2 0.65 0.75 0.15 -0.45 0.60 -0.45 1.80 0.05 0.85 0.35 1.90 0.55 2.30 0.40 0.60 -0.25 0.70 0.25 0.55 2.60 -0.15 3.45 -1.60 6.50 -3.65 7.70 -2.05 1.15 -3.45 1.05 -4.75 -0.35z m1.75 -1.80 c-1.10 -0.45 -1.95 -1.80 -1.50 -2.30 0.15 -0.10 0.80 0.25 1.55 0.80 1.40 1.10 2.20 1.25 3.30 0.55 0.60 -0.40 0.55 -0.65 -0.50 -1.50 -1.35 -1.15 -2.20 -1.35 -1.65 -0.40 0.25 0.40 0.10 0.35 -0.45 -0.10 -0.50 -0.40 -1 -0.55 -1.20 -0.35 -0.15 0.15 -0.85 -0.05 -1.50 -0.45 -1.05 -0.70 -1.15 -0.70 -1.15 0.10 0 1.65 1.90 4.15 3.10 4.10 l1.15 0 -1.15 -0.45z"/>
  <path d="M26 19 c0 -0.35 0.15 -0.50 0.35 -0.35 0.15 0.20 0.15 0.50 0 0.70 -0.20 0.15 -0.35 0 -0.35 -0.35z"/>
  <path d="M25 17.50 c0 -0.25 0.25 -0.50 0.50 -0.50 0.30 0 0.50 0.25 0.50 0.50 0 0.30 -0.20 0.50 -0.50 0.50 -0.25 0 -0.50 -0.20 -0.50 -0.50z"/>
  <path d="M10.50 13.50 c0 -0.35 0.15 -0.50 0.35 -0.35 0.15 0.20 0.15 0.50 0 0.70 -0.20 0.15 -0.35 0 -0.35 -0.35z"/>
  <path d="M12.90 13.15 c-0.80 -0.40 -1.40 -1.15 -1.40 -1.70 0 -1.80 2.55 -0.70 3.20 1.45 0.40 1.25 0.10 1.30 -1.80 0.25z"/>
  <path d="M18.50 12.05 c0 -0.25 0.35 -0.60 0.80 -0.75 0.70 -0.25 0.75 -0.80 0.45 -3.55 -0.30 -3 -0.25 -3.20 0.60 -2.90 1.15 0.45 1.65 1.15 1.65 2.50 0 0.60 0.45 1.95 1 2.95 0.60 1 0.95 1.90 0.80 2.05 -0.10 0.15 -0.45 -0.25 -0.80 -0.80 l-0.55 -1.05 -1.95 1 c-1.10 0.55 -2 0.80 -2 0.55z"/>
  <path d="M12.65 9.65 c-0.95 -0.35 -0.80 -1.35 0.35 -2.40 1 -0.90 1 -0.85 1 0.90 0 1.85 -0.15 2 -1.35 1.50z"/>
  <path d="M10.80 7.65 c-0.55 -0.55 -0.30 -1.15 0.45 -1.15 0.40 0 0.75 0.20 0.75 0.45 0 0.65 -0.80 1.10 -1.20 0.70z"/>
  <path d="M23 5.25 c0 -0.15 0.10 -0.25 0.25 -0.25 0.15 0 0.25 0.10 0.25 0.25 0 0.15 -0.10 0.25 -0.25 0.25 -0.15 0 -0.25 -0.10 -0.25 -0.25z"/>
 </g>
 <g fill="#c6bcdd">
  <path d="M24.15 37.25 c-0.90 -1 -0.85 -1.05 1.35 -0.85 1.10 0.10 2 0 2 -0.25 0 -0.25 0.70 -1 1.55 -1.60 1.70 -1.25 1.45 -0.60 -0.65 1.90 -1.45 1.65 -3.20 2 -4.25 0.80z"/>
  <path d="M21.25 35.50 c0.15 -0.25 0.40 -0.50 0.55 -0.50 0.15 0 0.10 0.25 -0.05 0.50 -0.15 0.30 -0.40 0.50 -0.55 0.50 -0.15 0 -0.10 -0.20 0.05 -0.50z"/>
  <path d="M23.50 35 c0 -0.40 0.55 -1.35 1.25 -2.10 0.95 -1.05 1.20 -1.70 0.95 -2.65 -0.30 -1.30 0.45 -2.90 2.25 -4.70 0.80 -0.80 0.95 -0.85 1.40 -0.10 0.35 0.55 0.25 1.20 -0.35 2.20 -0.60 0.95 -0.95 1.20 -1.15 0.75 -0.15 -0.45 -0.35 -0.35 -0.65 0.30 -0.25 0.60 -0.15 1.05 0.20 1.20 0.80 0.25 0.15 1.60 -2 3.85 -1.15 1.20 -1.90 1.70 -1.90 1.25z"/>
  <path d="M29.55 30 c-0.05 -0.90 0.80 -2.30 1.15 -2 0.10 0.15 -0.10 0.80 -0.45 1.50 -0.40 0.75 -0.70 0.95 -0.70 0.50z"/>
  <path d="M24.50 27.50 c0 -0.35 0.15 -0.50 0.35 -0.35 0.15 0.20 0.15 0.50 0 0.70 -0.20 0.15 -0.35 0 -0.35 -0.35z"/>
  <path d="M14 26.55 c-0.55 -1.05 -0.70 -2.55 -0.20 -2.55 0.15 0 0.70 0.50 1.20 1.10 0.85 1.05 1 1.10 2.85 0.45 1.05 -0.35 2.20 -0.90 2.55 -1.15 0.85 -0.70 0.75 -1.55 -0.10 -1.25 -0.95 0.40 -2.10 -0.95 -1.20 -1.30 0.50 -0.20 0.40 -0.45 -0.20 -0.85 -0.50 -0.30 -0.90 -0.80 -0.90 -1.10 0 -0.35 0.20 -0.35 0.65 0 0.30 0.25 1.25 0.50 2.05 0.50 1.30 0 1.40 -0.10 0.65 -0.65 -0.45 -0.35 -0.85 -0.85 -0.85 -1.15 0 -0.55 2.35 -1.40 2.75 -1 0.50 0.50 -0.45 3.90 -1.05 3.90 -0.80 0 -0.95 0.85 -0.15 1.10 0.35 0.10 0.35 0.60 -0.05 1.65 -0.80 2.05 -1.95 3.25 -3.20 3.25 -0.85 0 -0.90 -0.10 -0.30 -0.50 0.40 -0.25 0.55 -0.60 0.35 -0.80 -0.20 -0.20 -0.75 0 -1.25 0.45 -1.25 1.15 -2.95 1.05 -3.60 -0.10z"/>
  <path d="M15.75 24.50 c-0.15 -0.25 0.05 -0.50 0.45 -0.50 0.45 0 0.80 0.25 0.80 0.50 0 0.30 -0.20 0.50 -0.45 0.50 -0.30 0 -0.65 -0.20 -0.80 -0.50z"/>
  <path d="M29.15 23 c-0.60 -1.40 -0.40 -1.95 0.40 -1.15 0.30 0.30 0.45 0.95 0.30 1.45 -0.15 0.85 -0.25 0.80 -0.70 -0.30z"/>
  <path d="M15 23.25 c0 -0.15 0.10 -0.25 0.25 -0.25 0.15 0 0.25 0.10 0.25 0.25 0 0.15 -0.10 0.25 -0.25 0.25 -0.15 0 -0.25 -0.10 -0.25 -0.25z"/>
  <path d="M15 21 c0 -0.85 0.15 -0.95 0.95 -0.50 1.60 0.80 1.70 1.50 0.35 1.50 -0.95 0 -1.30 -0.25 -1.30 -1z"/>
  <path d="M26.10 19.50 c0 -0.70 0.10 -0.95 0.25 -0.60 0.10 0.30 0.10 0.90 0 1.25 -0.15 0.30 -0.25 0.05 -0.25 -0.65z"/>
  <path d="M19.50 13.90 c0 -0.55 2.35 -1.05 3 -0.65 0.25 0.15 0.40 0.50 0.25 0.75 -0.35 0.55 -3.25 0.40 -3.25 -0.10z"/>
  <path d="M12.40 12.65 c-1 -0.25 -1.25 -2.15 -0.25 -2.15 1 0.05 2.50 1.40 2.10 1.95 -0.30 0.55 -0.45 0.60 -1.85 0.20z"/>
  <path d="M23 11.55 c-0.45 -0.85 -0.75 -0.95 -1.50 -0.55 -0.80 0.45 -0.95 0.25 -1.25 -2 -0.30 -2 -0.55 -2.50 -1.30 -2.50 -0.60 0 -0.95 -0.35 -0.95 -1 0 -1 1.20 -1.35 2.30 -0.60 1.05 0.70 1.80 2.70 1.50 4 -0.25 0.90 -0.20 1.10 0.10 0.65 0.35 -0.50 0.65 -0.25 1.30 1 0.90 1.75 0.75 2.70 -0.20 1z"/>
  <path d="M14 10.50 c-1.55 -1.35 -1.60 -1.50 -0.60 -1.50 0.60 0 1.10 0.25 1.10 0.50 0 0.30 0.35 0.50 0.75 0.50 0.40 0 0.75 0.45 0.75 1 0 1.25 0.10 1.25 -2 -0.50z"/>
  <path d="M23.95 6.20 c-0.65 -0.75 -0.90 -1.25 -0.50 -1.10 0.65 0.20 2.45 2.40 1.95 2.40 -0.10 0 -0.75 -0.60 -1.45 -1.30z"/>
  <path d="M14.75 5.50 c0.50 -0.55 1.30 -1 1.85 -1 0.55 0 0.90 0.35 0.90 1 0 0.80 -0.35 1 -1.85 1 -1.75 0 -1.80 0 -0.90 -1z"/>
  <path d="M15.15 3.15 c0.20 -0.15 0.50 -0.15 0.70 0 0.15 0.20 0 0.35 -0.35 0.35 -0.35 0 -0.50 -0.15 -0.35 -0.35z"/>
  <path d="M19.75 3 c-0.15 -0.25 -0.10 -0.50 0.20 -0.50 0.25 0 0.65 0.25 0.80 0.50 0.15 0.30 0.10 0.50 -0.20 0.50 -0.25 0 -0.65 -0.20 -0.80 -0.50z"/>
  <path d="M16 1.95 c0 -0.25 0.45 -0.45 1 -0.45 0.55 0 1 0.10 1 0.20 0 0.10 -0.45 0.30 -1 0.45 -0.55 0.15 -1 0.05 -1 -0.20z"/>
 </g>
 <g fill="#dbbbef">
  <path d="M21.40 31.25 c-0.25 -2.20 0.05 -2.55 0.95 -1.25 0.50 0.75 0.55 1.25 0.15 2 -0.75 1.35 -0.85 1.30 -1.10 -0.75z"/>
  <path d="M15.60 28 c-0.60 -0.25 -1.30 -1 -1.55 -1.60 -0.25 -0.65 -1.05 -2.55 -1.75 -4.30 -1.40 -3.40 -1.70 -6.10 -0.65 -6.10 0.30 0 1.10 0.15 1.75 0.30 0.95 0.25 1.10 0.60 0.90 1.50 -0.20 0.80 0.05 1.40 0.95 2.10 1.40 1.10 1.65 2.10 0.50 2.10 -0.45 0 -1.05 -0.60 -1.35 -1.35 l-0.60 -1.40 -0.20 1.45 c-0.10 0.80 0.20 2.30 0.70 3.40 0.70 1.60 1.10 1.90 2.35 1.90 1.30 0 1.40 0.10 0.80 0.85 -0.60 0.75 -0.60 0.80 0.20 0.50 0.50 -0.20 1.05 -0.35 1.15 -0.35 0.10 0 0.20 -0.40 0.20 -0.95 0 -0.50 0.45 -1.05 1 -1.20 1.35 -0.35 1.30 -1.85 -0.05 -1.85 -0.75 0 -0.95 -0.25 -0.70 -0.95 0.15 -0.60 0 -1.05 -0.50 -1.25 -0.85 -0.30 -1 -1.95 -0.25 -3.35 0.45 -0.75 0.75 -0.85 1.50 -0.45 0.50 0.25 1.40 0.50 1.95 0.50 0.55 0 1.10 0.20 1.30 0.45 0.40 0.75 -1.20 2.05 -2.10 1.70 -0.55 -0.20 -0.70 -0.15 -0.45 0.30 0.20 0.30 0.80 0.45 1.35 0.30 0.70 -0.25 0.95 -0.10 0.95 0.65 0 1.85 -1.90 5.45 -3.40 6.55 -1.65 1.15 -2.25 1.25 -4 0.55z m-2.60 -10.25 c0 -0.15 -0.10 -0.25 -0.25 -0.25 -0.15 0 -0.25 0.10 -0.25 0.25 0 0.15 0.10 0.25 0.25 0.25 0.15 0 0.25 -0.10 0.25 -0.25z"/>
  <path d="M15.60 24.40 c-0.95 -0.95 -0.70 -1.45 0.40 -0.80 1 0.65 1.35 1.40 0.60 1.40 -0.20 0 -0.65 -0.25 -1 -0.60z"/>
  <path d="M15 18.80 c0 -0.10 0.35 -0.85 0.75 -1.60 1.25 -2.40 0.95 -4.10 -1.05 -6.10 -2.30 -2.30 -2.25 -4.25 0.10 -4.50 1.50 -0.15 1.55 -0.05 1.85 1.95 0.25 1.85 0.95 2.90 1.90 2.95 0.55 0 0.90 -2.70 0.60 -4.85 -0.25 -1.90 -0.20 -2.05 0.75 -1.80 1.25 0.30 1.65 1.20 1.85 3.95 0.15 1.90 0.05 2.10 -1.55 2.85 -2.30 1.10 -2.15 1.90 0.30 1.75 1.05 -0.10 1.90 0.05 1.85 0.30 -0.05 0.30 -0.55 0.50 -1.10 0.55 -2.85 0.15 -3.25 0.30 -3.25 1 0 1.30 -1.50 3.75 -2.25 3.75 -0.40 0 -0.75 -0.10 -0.75 -0.20z"/>
  <path d="M12.40 12.65 c-1.20 -0.30 -1.15 -1.65 0.05 -1.65 1.05 0 2.25 1.15 1.70 1.65 -0.35 0.35 -0.40 0.35 -1.75 0z"/>
 </g>
 <g fill="#dbdaf2">
  <path d="M19.50 38.50 c0 -0.25 0.45 -0.50 1 -0.50 0.55 0 1 0.25 1 0.50 0 0.30 -0.45 0.50 -1 0.50 -0.55 0 -1 -0.20 -1 -0.50z"/>
  <path d="M24.25 37.20 c-0.95 -0.70 -0.85 -0.70 1.15 -0.40 1.70 0.25 2.10 0.20 2.10 -0.45 0 -0.40 0.55 -1.10 1.25 -1.55 1.75 -1.15 1.55 -0.30 -0.40 1.60 -1.85 1.75 -2.60 1.95 -4.10 0.80z"/>
  <path d="M25.25 35.50 c0.15 -0.25 0.40 -0.50 0.55 -0.50 0.15 0 0.10 0.25 -0.05 0.50 -0.15 0.30 -0.40 0.50 -0.55 0.50 -0.15 0 -0.10 -0.20 0.05 -0.50z"/>
  <path d="M23.80 34.40 c0.20 -0.35 0.80 -1.15 1.30 -1.75 0.65 -0.70 0.90 -1.40 0.65 -2.10 -0.65 -2.15 2.45 -6.35 3.65 -4.90 0.50 0.60 -0.75 2.75 -1.75 3 -0.20 0.05 -0.40 0.70 -0.40 1.40 0 1.30 -2.40 4.95 -3.30 4.95 -0.30 0 -0.35 -0.30 -0.15 -0.60z"/>
  <path d="M29 32.50 c0 -0.25 0.25 -0.50 0.55 -0.50 0.25 0 0.35 0.25 0.20 0.50 -0.15 0.30 -0.40 0.50 -0.55 0.50 -0.10 0 -0.20 -0.20 -0.20 -0.50z"/>
  <path d="M29.50 30 c0 -0.40 0.25 -1.10 0.50 -1.50 0.45 -0.65 0.50 -0.65 0.50 0 0 0.40 -0.25 1.10 -0.50 1.50 -0.45 0.65 -0.50 0.65 -0.50 0z"/>
  <path d="M24.50 27.55 c0 -0.30 0.20 -0.65 0.50 -0.80 0.30 -0.15 0.35 0.05 0.20 0.45 -0.35 0.90 -0.70 1.05 -0.70 0.35z"/>
  <path d="M25.50 25.75 c0 -0.15 0.10 -0.25 0.25 -0.25 0.15 0 0.25 0.10 0.25 0.25 0 0.15 -0.10 0.25 -0.25 0.25 -0.15 0 -0.25 -0.10 -0.25 -0.25z"/>
  <path d="M26.05 20.90 c0 -1.65 0.10 -1.90 0.45 -1.15 0.60 1.40 0.60 3.25 0 3.25 -0.25 0 -0.50 -0.95 -0.45 -2.10z"/>
  <path d="M28.55 21.15 c-0.65 -2.30 -0.70 -4.15 -0.10 -4.15 0.20 0 0.55 0.95 0.70 2.15 0.10 1.15 0.40 2.50 0.60 3 0.20 0.50 0.15 0.85 -0.15 0.85 -0.30 0 -0.80 -0.85 -1.05 -1.85z"/>
  <path d="M15 21.50 c0 -0.25 0.35 -0.50 0.75 -0.50 0.40 0 0.75 0.25 0.75 0.50 0 0.30 -0.35 0.50 -0.75 0.50 -0.40 0 -0.75 -0.20 -0.75 -0.50z"/>
  <path d="M21.15 19.15 c-1.30 -0.50 -0.65 -1.65 0.90 -1.65 1.20 0 1.50 0.15 1.25 0.80 -0.15 0.45 -0.30 0.90 -0.30 1 0 0.25 -1.05 0.20 -1.85 -0.15z"/>
  <path d="M23 11.45 c-0.30 -0.55 -0.50 -1.25 -0.40 -1.50 0.10 -0.25 0.40 0.20 0.75 1.05 0.65 1.70 0.45 2 -0.35 0.45z"/>
  <path d="M21 10.50 c0 -0.35 0.15 -0.50 0.35 -0.35 0.15 0.20 0.15 0.50 0 0.70 -0.20 0.15 -0.35 0 -0.35 -0.35z"/>
  <path d="M12.30 9.10 c-0.15 -0.25 0.15 -1.05 0.75 -1.65 l1 -1.20 -0.35 1.25 c-0.40 1.55 -1 2.25 -1.40 1.60z"/>
  <path d="M21.05 8.70 c0 -0.55 0.15 -0.70 0.30 -0.30 0.15 0.35 0.10 0.80 -0.05 0.95 -0.15 0.20 -0.30 -0.10 -0.25 -0.65z"/>
  <path d="M10.75 7.50 c-0.40 -0.65 1.30 -3.50 2.05 -3.50 0.35 0 0.20 0.70 -0.40 2 -1.10 2.15 -1.20 2.25 -1.65 1.50z"/>
  <path d="M23.75 6 c-0.50 -0.55 -0.65 -1 -0.35 -1 0.30 0 0.80 0.45 1.10 1 0.30 0.55 0.45 1 0.35 1 -0.10 0 -0.60 -0.45 -1.10 -1z"/>
  <path d="M16.40 4.65 c0.35 -0.15 0.80 -0.10 0.95 0.05 0.20 0.15 -0.10 0.30 -0.65 0.25 -0.55 0 -0.70 -0.15 -0.30 -0.30z"/>
  <path d="M18.65 4.65 c0.20 -0.15 0.50 -0.15 0.70 0 0.15 0.20 0 0.35 -0.35 0.35 -0.35 0 -0.50 -0.15 -0.35 -0.35z"/>
  <path d="M13 2.95 c0 -0.65 1.80 -1.45 3.20 -1.45 1.25 0 1.25 0.05 0.40 0.90 -0.90 0.90 -3.60 1.30 -3.60 0.55z"/>
  <path d="M20.15 3.15 c0.20 -0.15 0.50 -0.15 0.70 0 0.15 0.20 0 0.35 -0.35 0.35 -0.35 0 -0.50 -0.15 -0.35 -0.35z"/>
 </g>
 <g fill="#f1d4fb">
  <path d="M22 31.75 c0 -0.15 0.10 -0.25 0.25 -0.25 0.15 0 0.25 0.10 0.25 0.25 0 0.15 -0.10 0.25 -0.25 0.25 -0.15 0 -0.25 -0.10 -0.25 -0.25z"/>
  <path d="M14.60 27.40 c-0.75 -0.75 -0.80 -2.40 -0.10 -2.40 0.30 0 0.50 0.25 0.50 0.50 0 0.30 0.55 0.50 1.25 0.50 1.45 0 1.60 0.40 0.40 1.30 -1.10 0.85 -1.30 0.85 -2.05 0.10z"/>
  <path d="M19 26.10 c0 -0.20 0.45 -0.65 1 -1 0.95 -0.60 1 -0.55 0.40 0.40 -0.65 1 -1.40 1.35 -1.40 0.60z"/>
  <path d="M15.75 24.50 c-0.15 -0.25 -0.05 -0.50 0.20 -0.50 0.30 0 0.55 0.25 0.55 0.50 0 0.30 -0.10 0.50 -0.20 0.50 -0.15 0 -0.40 -0.20 -0.55 -0.50z"/>
  <path d="M13 23 c-0.30 -0.55 -0.35 -1 -0.10 -1 0.30 0 0.60 0.45 0.75 1 0.15 0.55 0.15 1 0.05 1 -0.10 0 -0.40 -0.45 -0.70 -1z"/>
  <path d="M11.45 19.60 c-0.65 -2.15 -0.35 -3.60 0.65 -3.60 0.45 0 0.65 0.80 0.65 2.45 0 3.20 -0.55 3.65 -1.30 1.15z"/>
  <path d="M20.10 18.85 c-0.90 -0.30 -1.55 -0.70 -1.50 -0.95 0.10 -0.25 0.35 -0.45 0.55 -0.45 0.20 0.05 1.25 0.05 2.35 0.05 2.10 0 2.60 0.65 1.15 1.40 -0.55 0.25 -1.60 0.25 -2.55 -0.05z"/>
  <path d="M15.60 17.75 c0.30 -0.70 0.75 -1.25 1 -1.25 0.20 0 0.40 -0.45 0.40 -1 0 -0.55 0.25 -1 0.50 -1 0.70 0 0.65 0.80 -0.10 2.10 -1.35 2.40 -2.80 3.25 -1.80 1.15z"/>
  <path d="M13.25 18.05 c-0.15 -0.25 -0.05 -0.60 0.25 -0.80 0.25 -0.15 0.50 0.05 0.50 0.45 0 0.90 -0.30 1.05 -0.75 0.35z"/>
  <path d="M16.20 12.40 c-0.50 -0.80 -1.70 -1.85 -2.60 -2.40 -1.35 -0.85 -1.55 -1.15 -1.15 -1.95 0.95 -1.80 3.55 -3.55 5.20 -3.55 2 0 2.65 0.45 3.30 2.10 0.95 2.55 0.55 4.05 -1.70 5.70 l-2.10 1.55 -0.95 -1.45z m-1.20 -4.15 c0 -0.15 -0.10 -0.25 -0.25 -0.25 -0.15 0 -0.25 0.10 -0.25 0.25 0 0.15 0.10 0.25 0.25 0.25 0.15 0 0.25 -0.10 0.25 -0.25z"/>
  <path d="M11.50 11.50 c0 -1.15 0.20 -1.20 1.55 -0.50 1.35 0.75 1.20 1.50 -0.30 1.50 -0.90 0 -1.25 -0.25 -1.25 -1z"/>
  <path d="M11 6.80 c0 -0.45 0.25 -0.80 0.50 -0.80 0.30 0 0.50 0.20 0.50 0.45 0 0.30 -0.20 0.65 -0.50 0.80 -0.25 0.15 -0.50 -0.05 -0.50 -0.45z"/>
 </g>
 <g fill="#f7f1fe">
  <path d="M28 36.10 c0 -0.25 0.50 -0.85 1.10 -1.40 l1.05 -0.95 -0.90 1.40 c-0.90 1.40 -1.25 1.65 -1.25 0.95z"/>
  <path d="M24 34.15 c0 -0.25 0.60 -1 1.30 -1.70 1.20 -1.05 1.30 -1.10 0.80 -0.15 -0.65 1.25 -2.10 2.50 -2.10 1.85z"/>
  <path d="M26 29.05 c0 -0.55 0.65 -1.75 1.50 -2.65 1.10 -1.25 1.45 -1.45 1.50 -0.75 0 0.45 -0.45 1.30 -1 1.85 -0.55 0.55 -1 1.20 -1 1.45 0 0.30 -0.20 0.65 -0.50 0.80 -0.25 0.15 -0.50 -0.15 -0.50 -0.70z"/>
  <path d="M14.65 27.15 c-0.35 -0.15 -0.65 -0.45 -0.65 -0.70 0 -0.60 1.85 -0.60 2.20 0 0.35 0.55 -0.70 1 -1.55 0.70z"/>
  <path d="M26.05 20.90 c0 -1.40 0.10 -1.50 0.45 -0.65 0.60 1.40 0.60 2.25 0 2.25 -0.25 0 -0.50 -0.75 -0.45 -1.60z"/>
  <path d="M28.35 19.30 c-0.25 -1.05 -0.30 -2 -0.15 -2.15 0.45 -0.50 0.90 1.20 0.70 2.70 -0.15 1.30 -0.20 1.25 -0.55 -0.55z"/>
  <path d="M22.50 18.75 c0 -0.15 0.10 -0.25 0.25 -0.25 0.15 0 0.25 0.10 0.25 0.25 0 0.15 -0.10 0.25 -0.25 0.25 -0.15 0 -0.25 -0.10 -0.25 -0.25z"/>
  <path d="M11 18 c0 -0.25 0.25 -0.50 0.50 -0.50 0.30 0 0.50 0.25 0.50 0.50 0 0.30 -0.20 0.50 -0.50 0.50 -0.25 0 -0.50 -0.20 -0.50 -0.50z"/>
  <path d="M11.60 11.45 c0.10 -0.30 0.40 -0.50 0.65 -0.50 0.25 0 0.55 0.20 0.65 0.50 0.10 0.30 -0.20 0.55 -0.65 0.55 -0.45 0 -0.75 -0.25 -0.65 -0.55z"/>
  <path d="M14.15 10.30 c-0.90 -0.60 -1.60 -1.30 -1.65 -1.65 0 -0.90 2.35 -3.45 2.80 -3 0.20 0.20 -0.25 1 -1 1.80 -1.35 1.40 -1.35 1.45 -0.40 1.75 1 0.35 2.40 1.70 2.05 2 -0.10 0.05 -0.90 -0.35 -1.80 -0.90z"/>
  <path d="M20.50 10.50 c0 -0.35 0.15 -0.50 0.35 -0.35 0.15 0.20 0.15 0.50 0 0.70 -0.20 0.15 -0.35 0 -0.35 -0.35z"/>
  <path d="M11 6.75 c0 -1.30 2.55 -4.75 3.55 -4.75 0.45 0 1.30 -0.15 1.80 -0.35 0.85 -0.30 0.85 -0.30 0.05 0.50 -0.45 0.45 -1.15 0.85 -1.50 0.85 -0.75 0 -2.90 2.60 -2.90 3.45 0 0.25 -0.20 0.65 -0.50 0.80 -0.25 0.15 -0.50 -0.05 -0.50 -0.50z"/>
  <path d="M16.25 5.50 c-0.15 -0.25 0.05 -0.50 0.45 -0.50 0.40 0 0.90 0.25 1.05 0.50 0.15 0.30 -0.05 0.50 -0.45 0.50 -0.40 0 -0.90 -0.20 -1.05 -0.50z"/>
  <path d="M19.20 5.40 c-0.20 -0.35 -0.15 -0.40 0.20 -0.20 0.60 0.35 0.80 0.80 0.40 0.80 -0.15 0 -0.40 -0.25 -0.60 -0.60z"/>
 </g>
</svg>