<?xml version="1.0" encoding="utf-8"?>
<!DOCTYPE svg PUBLIC "-//W3C//DTD SVG 1.0//EN" "http://www.w3.org/TR/2001/REC-SVG-20010904/DTD/svg10.dtd">
<svg version="1.0" xmlns="http://www.w3.org/2000/svg" width="40px" height="40px" viewBox="0 0 40 40" preserveAspectRatio="xMidYMid meet">
 <g fill="#08070a">
  <path d="M25 38.80 c0 -1.25 1.05 -1.80 3.65 -1.80 1.90 0 1.70 0.65 -0.70 1.90 -2.60 1.40 -2.95 1.40 -2.95 -0.10z"/>
  <path d="M11.25 38.30 c0.45 -0.70 1.35 -1.60 2.05 -2.05 1.15 -0.75 1.20 -0.75 1.20 0.50 0 1.70 -1.05 2.75 -2.75 2.75 -1.25 0 -1.25 -0.05 -0.50 -1.20z"/>
  <path d="M16 34.55 c0 -0.20 1.50 -1.15 3.40 -2.05 1.85 -0.85 3.75 -1.80 4.20 -2.05 0.50 -0.25 1.10 -0.45 1.40 -0.45 0.50 0 1.95 -1.05 3.85 -2.85 1.85 -1.75 1.60 -4.20 -0.70 -6.10 -1 -0.85 -2.45 -1.65 -3.25 -1.80 -2.05 -0.45 -1.80 -1.75 0.35 -1.75 0.95 0 1.75 0.25 1.75 0.50 0 0.30 0.45 0.50 1 0.50 0.55 0 1 0.25 1 0.50 0 0.30 0.35 0.50 0.75 0.50 0.45 0 0.75 0.45 0.75 1.15 0 0.80 0.45 1.30 1.50 1.70 1.60 0.60 1.80 1.45 1.20 5.20 -0.30 1.75 -0.40 1.85 -2.60 2.10 -1.30 0.15 -2.40 0.50 -2.50 0.80 -0.10 0.30 -0.60 0.55 -1.15 0.55 -0.50 0 -0.95 0.25 -0.95 0.50 0 0.30 -0.45 0.50 -1 0.50 -0.55 0 -1 0.25 -1 0.50 0 0.30 -0.55 0.50 -1.25 0.50 -0.70 0 -1.25 0.25 -1.25 0.50 0 0.30 -0.45 0.50 -1 0.50 -0.55 0 -1 0.25 -1 0.50 0 0.30 -0.80 0.50 -1.75 0.50 -0.95 0 -1.75 -0.20 -1.75 -0.45z"/>
  <path d="M34.50 33.50 c0 -1.25 0.20 -1.50 1.25 -1.50 1.45 0 1.55 0.35 0.45 1.90 -1.05 1.50 -1.70 1.40 -1.70 -0.40z"/>
  <path d="M10.40 32.95 c-1.30 -0.75 -1.15 -1.25 1.10 -3.45 2.40 -2.35 2.55 -3.70 0.50 -4.75 -1.05 -0.55 -1.50 -1.15 -1.50 -2 0 -0.80 -0.30 -1.25 -0.75 -1.25 -0.40 0 -0.75 0.45 -0.75 1 0 0.55 -0.35 1 -0.75 1 -0.85 0 -1.70 -1.60 -0.95 -1.85 1.15 -0.40 3.80 -2.25 3.55 -2.50 -0.40 -0.35 -3.35 1 -3.35 1.50 0 0.25 -0.40 0.35 -0.85 0.25 -0.50 -0.05 -1.20 0.05 -1.55 0.30 -1 0.60 -1.35 -0.05 -0.70 -1.45 0.55 -1.15 0.45 -1.25 -1 -1.65 -1.45 -0.35 -1.50 -0.45 -0.70 -1.25 0.55 -0.55 1.65 -0.85 3.10 -0.85 1.85 0 2.20 -0.15 2.20 -1 0 -0.55 -0.30 -1 -0.60 -1 -1.40 -0.05 2.65 -3 4.10 -3 1.25 0 1.50 -0.20 1.80 -1.75 0.35 -2 -0.75 -4.20 -2.35 -4.60 -1.10 -0.30 -1.30 -1.65 -0.20 -1.65 2.40 0 4.25 2.15 4.25 5.10 l0 1.50 3.05 -2.80 c2.85 -2.65 6.35 -4.80 7.80 -4.80 1.25 0 0.65 1 -1.20 1.95 -1.05 0.55 -1.60 1 -1.25 1.05 0.85 0 0.75 1 -0.10 1 -0.35 0 -0.95 0.35 -1.35 0.80 -0.55 0.65 -0.45 0.70 0.70 0.45 1.05 -0.30 1.35 -0.15 1.35 0.40 0 0.45 -0.45 0.95 -1 1.10 -1.05 0.35 -1.40 2.25 -0.45 2.25 0.30 0 -0.15 0.55 -0.95 1.25 -1.75 1.45 -5.60 1.80 -5.60 0.50 0 -0.40 -0.20 -0.75 -0.45 -0.75 -0.25 0 -0.80 -0.15 -1.25 -0.30 -0.60 -0.25 -0.80 0 -0.80 1 0 1.15 0.20 1.30 1.80 1.30 0.95 0 2.75 0.25 4 0.55 2.10 0.55 2.20 0.65 2.20 2.45 0 1.80 -0.05 1.90 -2.10 2.20 -1.15 0.20 -3.30 1.05 -4.75 1.85 -2.15 1.25 -2.60 1.70 -2.15 2.25 0.35 0.35 1 0.80 1.50 0.95 2.10 0.65 1.40 3.70 -1.40 6.10 -1 0.90 -1.55 1.65 -1.20 1.65 0.30 0 0.60 0.35 0.60 0.75 0 0.85 -0.40 0.90 -1.60 0.20z m2.45 -16.45 c1.20 -1.50 0.70 -2.10 -0.80 -1.05 -0.80 0.60 -2.25 1.05 -3.25 1.05 -1 0 -1.80 0.15 -1.80 0.40 0 0.70 5.25 0.40 5.85 -0.40z"/>
  <path d="M37.05 27.90 c0.05 -3.90 0.60 -5.65 1.85 -5.75 1.30 -0.15 1.55 1.20 0.30 1.70 -0.65 0.25 -0.75 0.75 -0.45 2.50 0.25 1.60 0.10 2.35 -0.45 2.90 -1.10 1.15 -1.30 0.95 -1.25 -1.35z"/>
  <path d="M37 20.70 c0 -0.55 1.45 -1.70 2.20 -1.70 1.05 0 1 0.50 -0.05 1.30 -0.90 0.70 -2.15 0.90 -2.15 0.40z"/>
  <path d="M33 17 c0 -0.25 -0.45 -0.50 -1 -0.50 -0.75 0 -1 -0.30 -0.95 -1.35 0 -1.05 0.70 -1.95 2.55 -3.55 1.40 -1.20 2.80 -2.05 3.15 -1.90 0.35 0.10 0.80 -0.10 0.95 -0.50 0.30 -0.80 2.30 -0.95 2.30 -0.20 0 0.30 -0.60 0.75 -1.35 1.05 -1.95 0.75 -5.65 3.90 -5.65 4.80 0 0.50 0.65 0.20 2 -1.05 1.10 -1 2.25 -1.80 2.50 -1.80 1.05 0 0.45 1.35 -1.05 2.20 -1.20 0.70 -1.50 1.20 -1.30 2.10 0.15 1 0 1.20 -0.95 1.20 -0.65 0 -1.20 -0.20 -1.20 -0.50z"/>
  <path d="M27 9.60 c0 -0.70 3.75 -4.10 4.50 -4.10 0.45 0 -0.20 0.95 -1.50 2.25 -2.20 2.15 -3 2.65 -3 1.85z"/>
  <path d="M25 9 c0 -1.10 1.65 -3 2.60 -3 0.90 0 0.85 0.15 -0.45 1.70 -1.45 1.80 -2.15 2.20 -2.15 1.30z"/>
  <path d="M30 4 c1.10 -1.55 2 -1.95 2 -0.85 0 0.30 -0.70 1 -1.55 1.45 l-1.50 0.90 1.05 -1.50z"/>
 </g>
 <g fill="#0f121e">
  <path d="M10.50 39.60 c0 -0.25 0.45 -0.85 1 -1.35 1 -0.90 1 -0.85 1 0.40 0 1 -0.25 1.35 -1 1.35 -0.55 0 -1 -0.20 -1 -0.40z"/>
  <path d="M31.20 34.90 c0.20 -1.10 0.45 -2.25 0.60 -2.50 0.35 -0.55 3.70 -0.50 3.70 0.05 0 0.25 0.15 0.80 0.30 1.20 0.15 0.50 -0.50 1.15 -2 2.05 -1.20 0.70 -2.40 1.30 -2.60 1.30 -0.15 0 -0.20 -0.95 0 -2.10z"/>
  <path d="M14.65 35.25 c1.80 -1.60 2.35 -1.55 2.35 0 0 1.10 -0.20 1.25 -1.85 1.25 l-1.90 -0.05 1.40 -1.20z"/>
  <path d="M36 30.25 c0 -0.95 0.25 -1.75 0.50 -1.75 0.30 0 0.50 -1.40 0.50 -3.20 0 -1.80 0.25 -3.40 0.50 -3.55 0.30 -0.15 0.50 -0.05 0.50 0.25 0 0.35 0.40 0.45 1 0.25 1.25 -0.40 1.40 1 0.20 1.45 -0.65 0.25 -0.75 0.75 -0.55 2.55 0.20 1.20 0.10 2.35 -0.10 2.50 -0.25 0.15 -0.60 0.95 -0.80 1.75 -0.45 2.15 -1.75 1.95 -1.75 -0.25z"/>
  <path d="M12.50 29.60 c0 -0.60 0.25 -1.20 0.50 -1.35 1.10 -0.70 0.50 -2.70 -1 -3.50 -1.45 -0.75 -1.50 -0.75 -1.50 0.25 0 1.55 -1.10 1.15 -2.40 -0.85 -1.25 -2 -1 -2.65 1.35 -3.65 1.95 -0.80 2.45 -2.50 0.70 -2.50 -1.05 0 -1.20 -0.20 -1.05 -1.60 0.15 -1.50 0.30 -1.65 2.05 -1.80 1.85 -0.15 1.85 -0.20 1.85 -2.30 0 -2.35 1.20 -4.10 2 -2.85 0.25 0.45 0.50 0.50 0.70 0.10 0.20 -0.30 0.60 -0.55 0.90 -0.55 0.35 0 0.30 0.30 -0.10 0.75 -1.90 2.30 2.70 -0.75 4.90 -3.25 0.60 -0.65 0.65 -0.65 0.40 0.20 -0.25 0.75 -0.10 0.85 0.95 0.60 1.70 -0.45 1.70 0.85 0 1.60 -1.20 0.55 -1.30 2.10 -0.15 2.10 0.30 0 0.25 0.30 -0.10 0.75 -0.35 0.40 -1.25 0.75 -2.05 0.75 -0.85 0 -1.45 0.25 -1.45 0.65 0 0.35 -0.50 0.95 -1.10 1.35 -1.10 0.70 -0.95 0.75 2.35 1 l3.50 0.25 0.15 1.65 0.15 1.60 -4.20 0 c-3.85 0 -4.25 0.10 -4.50 1.05 -0.15 0.55 -0.95 1.25 -1.80 1.60 -1.75 0.65 -2 1.65 -0.55 2.10 0.55 0.20 1.35 0.85 1.80 1.50 0.70 1.05 0.70 1.35 0 2.60 -0.40 0.80 -1.10 1.75 -1.50 2.10 -0.70 0.60 -0.80 0.50 -0.80 -0.35z m3.50 -12.30 c0 -0.25 0.90 -0.30 2 -0.15 2.70 0.35 2.55 -0.40 -0.20 -1.10 -2.85 -0.70 -2.80 -0.70 -2.80 0.25 0 0.45 -0.45 1.40 -1 2.20 -0.55 0.75 -0.80 1.50 -0.60 1.70 0.35 0.40 2.60 -2.10 2.60 -2.90z m3.80 -6.35 l0.95 -1.10 -1.60 0.85 c-1.75 0.90 -2.05 1.30 -1 1.30 0.40 0 1.10 -0.50 1.65 -1.05z"/>
  <path d="M29.50 27.80 c0 -0.35 0.25 -1.35 0.55 -2.20 0.45 -1.25 0.35 -1.85 -0.35 -3.05 -0.50 -0.80 -1.40 -1.75 -2.05 -2.10 -1.60 -0.85 -1.45 -1.45 0.40 -1.45 1.50 0 2.95 0.95 2.95 1.95 0 0.30 0.25 0.55 0.50 0.55 0.30 0 0.50 0.55 0.50 1.25 0 0.80 0.30 1.25 0.75 1.25 0.55 0 0.75 0.60 0.75 2.25 l0 2.25 -2 0 c-1.35 0 -2 -0.20 -2 -0.70z"/>
  <path d="M34.50 18.75 c0 -1.05 -0.25 -1.25 -1.55 -1.25 -1.10 0 -1.60 -0.25 -1.80 -1 -0.15 -0.55 -0.45 -1 -0.75 -1 -0.25 0 -0.90 -0.45 -1.50 -1 -0.60 -0.55 -1.50 -1 -2 -1 -0.50 0 -0.90 -0.20 -0.90 -0.50 0 -0.25 -0.55 -0.50 -1.25 -0.50 -1.60 0 -1.55 -0.70 0.25 -3.90 1.75 -3 7 -7.30 7 -5.70 0 0.20 -1.20 1.40 -2.70 2.60 -2.40 2 -4.15 4.30 -3.65 4.80 0.10 0.10 1.15 -0.85 2.35 -2.05 1.20 -1.25 2.55 -2.25 3 -2.25 0.45 0 -0.15 0.80 -1.40 2 -2.30 2.05 -2.60 3.60 -0.85 3.90 0.55 0.10 1.40 0.55 1.90 1 0.80 0.70 1 0.65 2.25 -0.55 0.80 -0.75 1.85 -1.35 2.40 -1.35 0.75 0 0.60 0.35 -0.95 1.80 -2.50 2.35 -1.85 3.20 0.80 0.95 2 -1.70 3.35 -2.25 3.35 -1.25 0 0.60 -1.75 1.55 -2.55 1.40 -0.30 -0.10 -0.75 0.35 -0.95 0.90 -0.30 0.85 -0.10 1.50 0.80 2.75 1.50 2.05 1.50 2.45 -0.05 2.45 -1 0 -1.25 -0.25 -1.25 -1.25z"/>
  <path d="M12.35 5.75 c-0.55 -0.75 -1.40 -1.25 -2.10 -1.25 -0.80 0 -1.25 -0.30 -1.25 -0.75 0 -1.85 5.10 0.15 5.65 2.20 0.35 1.50 -1.15 1.35 -2.30 -0.20z"/>
  <path d="M20.60 5.10 c0.15 -0.90 2.65 -2 3.25 -1.45 0.15 0.20 -0.10 0.70 -0.65 1.15 -0.50 0.40 -0.60 0.60 -0.20 0.40 0.40 -0.20 0.60 -0.15 0.40 0.05 -0.25 0.25 -1 0.50 -1.70 0.55 -0.95 0.10 -1.20 -0.05 -1.10 -0.70z"/>
 </g>
 <g fill="#181d30">
  <path d="M24.50 38.75 c0 -1.10 0.20 -1.25 1.75 -1.25 1.20 0 1.75 0.25 1.75 0.75 0 0.40 -0.35 0.75 -0.75 0.75 -0.40 0 -0.75 0.25 -0.75 0.50 0 0.30 -0.45 0.50 -1 0.50 -0.75 0 -1 -0.35 -1 -1.25z"/>
  <path d="M31 34.75 c0 -1.65 0.10 -1.75 1.75 -1.75 1.40 0 1.75 0.20 1.75 0.95 0 1 -1.75 2.55 -2.85 2.55 -0.40 0 -0.65 -0.65 -0.65 -1.75z"/>
  <path d="M35.80 30.90 c0.55 -3.45 0.35 -9.60 -0.30 -9.80 -0.25 -0.10 -0.50 -0.85 -0.50 -1.65 0 -1.35 -0.15 -1.45 -1.95 -1.45 -2.15 0 -2.55 -0.50 -2.55 -3.40 0 -1.35 0.15 -1.65 0.50 -1.10 0.35 0.60 0.60 0.60 1.10 0.10 0.85 -0.85 1.65 -0.75 0.90 0.15 -0.35 0.40 -0.45 1.10 -0.30 1.55 0.25 0.70 0.50 0.60 1.35 -0.50 0.55 -0.70 1.40 -1.30 1.80 -1.30 0.70 0 0.65 0.20 -0.25 1.15 l-1.10 1.15 1.35 1.95 c0.70 1.10 1.35 2.05 1.45 2.15 0.05 0.10 0.55 -0.10 1.15 -0.45 1.40 -0.90 2 -0.10 0.65 0.85 -1.35 0.95 -1.45 2.20 -0.10 2.20 0.55 0 1 0.25 1 0.50 0 0.30 -0.35 0.50 -0.80 0.50 -0.65 0 -0.75 0.50 -0.65 2.40 0.05 1.30 -0.15 2.95 -0.45 3.75 -0.35 0.75 -0.80 1.90 -1.10 2.60 -0.25 0.70 -0.75 1.25 -1.05 1.25 -0.45 0 -0.45 -0.75 -0.15 -2.60z"/>
  <path d="M10.35 32.65 c-0.80 -0.75 -0.20 -2 1.65 -3.55 2.80 -2.30 3.65 -1.75 1.10 0.75 -1.55 1.50 -1.90 2.15 -1.50 2.55 0.45 0.45 0.40 0.60 -0.15 0.60 -0.45 0 -0.95 -0.15 -1.10 -0.35z"/>
  <path d="M9 25.25 c0 -0.40 -0.50 -1.15 -1.10 -1.70 -1.25 -1.20 -0.80 -2.05 1.65 -3.05 0.90 -0.40 1.40 -0.90 1.25 -1.30 -0.15 -0.40 0.05 -0.70 0.40 -0.70 0.70 0 1.30 -2.10 1.30 -4.30 0 -0.65 0.25 -1.20 0.50 -1.20 0.30 0 0.50 -0.90 0.50 -2 0 -1.45 0.20 -2 0.75 -2 0.40 0 0.75 0.30 0.75 0.65 0.05 0.35 0.30 0.25 0.70 -0.25 0.35 -0.50 0.95 -0.90 1.30 -0.90 0.40 0 0.20 0.50 -0.50 1.25 -1.60 1.75 -0.60 1.55 1.50 -0.25 1.65 -1.35 4.50 -2.05 4.50 -1.10 0 0.25 -1 0.95 -2.20 1.55 -2.60 1.35 -5.80 3.90 -5.80 4.65 0 0.30 0.45 -0.05 1 -0.75 0.55 -0.70 1.55 -1.45 2.15 -1.65 0.60 -0.20 1.75 -0.80 2.55 -1.35 1.15 -0.80 1.50 -0.85 1.85 -0.30 0.25 0.40 0.20 0.75 -0.05 0.85 -0.30 0.10 -0.50 0.90 -0.50 1.80 0 1.20 -0.30 1.80 -1.10 2.20 -1.10 0.55 -1.05 0.55 0.25 0.30 0.75 -0.20 2.15 -0.15 3.10 0 1.55 0.30 1.75 0.55 1.75 1.80 l0 1.50 -3.60 0 c-2.70 0 -4.10 0.25 -5.40 1 -0.95 0.50 -2.35 1.25 -3.10 1.60 -1.35 0.60 -1.95 1.90 -0.85 1.90 0.25 0 0.35 0.25 0.20 0.50 -0.15 0.30 -0.85 0.35 -1.50 0.20 -1 -0.25 -1.15 -0.15 -0.90 0.75 0.20 0.75 0.05 1.05 -0.55 1.05 -0.45 0 -0.80 -0.35 -0.80 -0.75z m1.80 -3 c0.90 -0.65 0.90 -0.70 -0.20 -0.40 -0.60 0.15 -1.25 0.45 -1.40 0.70 -0.40 0.70 0.50 0.55 1.60 -0.30z m4.15 -3.15 l1.50 -1.95 2.90 0.40 c2.75 0.40 4.10 0.25 2.60 -0.25 -1.60 -0.55 -6.15 -1.80 -6.55 -1.80 -0.20 0 -0.40 0.30 -0.40 0.65 0 0.35 -0.55 1.40 -1.25 2.35 -2.25 3.05 -1.20 3.60 1.20 0.60z"/>
  <path d="M30.35 24.50 c0.15 -0.55 -0.20 -1.60 -0.85 -2.50 l-1.05 -1.50 1.50 0 c1.05 0 1.55 0.25 1.55 0.75 0 0.40 0.25 0.75 0.50 0.75 0.30 0 0.50 0.85 0.50 1.85 0 1.75 -0.05 1.80 -0.75 0.85 -0.65 -0.80 -0.70 -0.80 -0.45 -0.05 0.20 0.55 0.05 0.85 -0.45 0.85 -0.50 0 -0.65 -0.35 -0.50 -1z"/>
  <path d="M23.30 12.15 c-0.20 -0.45 -0.15 -0.95 0.10 -1.10 0.25 -0.15 0.70 -0.80 1.05 -1.40 0.80 -1.55 1.65 -1.50 1.05 0.10 -0.60 1.55 0.60 1.20 1.75 -0.55 0.40 -0.65 1 -1.20 1.30 -1.20 0.25 0 0.15 0.50 -0.25 1.10 -1 1.40 -1 2.90 -0.05 2.90 0.40 0 0.75 0.25 0.75 0.50 0 0.30 -1.20 0.50 -2.70 0.50 -2.05 0 -2.75 -0.20 -3 -0.85z"/>
  <path d="M36 10.55 c0 -0.50 0.55 -1.15 1.25 -1.45 2.75 -1.25 3.15 -0.20 0.50 1.35 -1.65 0.95 -1.75 0.95 -1.75 0.10z"/>
  <path d="M11.90 5.05 c-0.50 -0.60 -1.20 -0.90 -1.65 -0.75 -0.50 0.20 -0.75 0 -0.75 -0.50 0 -0.45 0.40 -0.80 0.90 -0.80 1.35 0 2.75 1.20 2.55 2.20 -0.20 0.75 -0.30 0.75 -1.05 -0.15z"/>
  <path d="M22 4.30 c0 -0.40 0.70 -1.10 1.60 -1.50 3.25 -1.65 4.10 -0.50 0.90 1.15 -2.40 1.25 -2.50 1.25 -2.50 0.35z"/>
 </g>
 <g fill="#2d271f">
  <path d="M25.50 37.25 c0 -1.50 0.15 -1.75 1.15 -1.75 2 0 4.85 0.60 4.85 1.05 0 0.60 -3.75 2.45 -5 2.45 -0.80 0 -1 -0.30 -1 -1.75z"/>
  <path d="M33.65 34.10 c0.15 -1.10 0.45 -1.40 1.80 -1.50 1.60 -0.15 1.60 -0.15 0.80 1.05 -0.45 0.70 -1.25 1.35 -1.80 1.50 -0.80 0.20 -0.95 0.05 -0.80 -1.05z"/>
  <path d="M30.20 25.20 c0.15 -0.45 0.30 -0.90 0.30 -1 0 -0.15 0.25 -0.10 0.50 0.05 0.80 0.50 0.60 1.75 -0.30 1.75 -0.55 0 -0.70 -0.25 -0.50 -0.80z"/>
  <path d="M32 25.45 c0 -0.30 -0.90 -1.65 -2 -2.95 -2.55 -3.05 -2.60 -4 -0.25 -4 1.65 0 1.85 0.20 2.75 2.30 1.20 2.75 1.30 5.20 0.25 5.20 -0.40 0 -0.75 -0.25 -0.75 -0.55z"/>
  <path d="M12.05 24.55 c-0.90 -0.70 -1.10 -1.15 -0.80 -1.85 0.35 -0.80 0.45 -0.85 0.60 -0.15 0.10 0.45 0.75 1.05 1.40 1.35 1.30 0.60 1.70 1.60 0.65 1.60 -0.35 0 -1.20 -0.45 -1.85 -0.95z"/>
  <path d="M7.50 22 c0 -0.30 0.80 -0.90 1.75 -1.35 1.95 -0.95 2.25 -1.60 0.75 -2 -0.55 -0.15 -1 -0.60 -1 -0.95 0 -1.35 -1.40 -0.70 -1.65 0.80 -0.25 1.20 -0.60 1.50 -1.65 1.50 -1.10 0 -1.20 -0.15 -0.75 -0.70 0.50 -0.60 0.30 -0.75 -0.95 -1.05 -2.65 -0.60 -1.40 -2 2 -2.20 0.95 -0.05 1.85 -0.30 1.90 -0.55 0.10 -0.30 0.45 -0.50 0.75 -0.50 0.35 0 1.30 -0.60 2.10 -1.30 1.05 -0.90 1.15 -1.05 0.25 -0.50 -0.65 0.45 -1.80 0.80 -2.50 0.80 l-1.25 -0.05 1.50 -1.20 c0.85 -0.70 2 -1.25 2.65 -1.25 0.70 0 1.35 -0.45 1.70 -1.25 0.55 -1.25 1.90 -1.75 1.90 -0.70 0 0.40 0.25 0.40 0.75 -0.05 0.40 -0.35 0.75 -0.40 0.75 -0.10 0 0.25 -0.50 0.85 -1.10 1.30 l-1.15 0.85 1.15 -0.25 c0.60 -0.10 1.10 -0.05 1.10 0.15 0 0.65 -1.20 1.55 -2.10 1.55 -0.55 0 -0.90 0.35 -0.90 1.05 0 0.70 -0.60 1.25 -1.85 1.85 -1.85 0.80 -1.85 0.80 -0.60 1 1.05 0.10 1.40 0.50 1.55 1.60 0.15 1.10 0 1.55 -0.70 1.80 -0.50 0.15 -0.90 0.45 -0.90 0.65 0 0.40 -2.20 1.55 -3 1.55 -0.30 0 -0.50 -0.25 -0.50 -0.50z"/>
  <path d="M13.50 20.75 c0.65 -0.70 1.55 -1.25 1.95 -1.25 0.55 0.05 0.40 0.40 -0.60 1.25 -1.85 1.65 -2.85 1.60 -1.35 0z"/>
  <path d="M18 18.20 c0 -0.60 0.30 -0.75 1.15 -0.50 0.60 0.15 1.50 0.30 2 0.30 0.45 0 0.85 0.25 0.85 0.50 0 0.30 -0.90 0.50 -2 0.50 -1.50 0 -2 -0.20 -2 -0.80z"/>
  <path d="M34.50 11.85 c0 -0.80 2.25 -2.85 3.10 -2.85 0.85 0 0.15 1.15 -1.50 2.40 -1.25 0.95 -1.60 1.05 -1.60 0.45z"/>
  <path d="M20 7.75 c2.05 -2.15 1.40 -2.25 -1 -0.20 -2.60 2.25 -2.60 0.65 0.05 -1.70 l2.15 -1.95 0.40 1.40 c0.20 0.75 0.20 1.60 0.05 1.85 -0.20 0.30 0.10 0.40 0.75 0.25 0.75 -0.20 1.10 -0.10 1.10 0.40 0 0.85 -2 1.70 -3.90 1.70 l-1.30 0 1.70 -1.75z"/>
  <path d="M27.50 5.80 c0 -0.85 1.85 -2.30 2.95 -2.30 0.55 0 0.50 0.25 -0.25 1.05 -1.40 1.55 -2.70 2.15 -2.70 1.25z"/>
 </g>
 <g fill="#2a2f3e">
  <path d="M10.80 39.25 c0.20 -0.40 0.50 -0.75 0.75 -0.75 0.25 0 0.45 0.35 0.45 0.75 0 0.40 -0.35 0.75 -0.75 0.75 -0.45 0 -0.60 -0.30 -0.45 -0.75z"/>
  <path d="M23.50 38.45 c0 -1.85 1.15 -2.90 3.10 -2.95 0.70 0 1.40 -0.15 1.50 -0.35 0.25 -0.65 3.30 -2.65 4 -2.65 0.35 0 0.90 -0.50 1.15 -1.10 0.35 -0.85 1 -1.20 2.45 -1.30 1.90 -0.15 1.90 -0.15 1.60 1.25 -0.20 0.75 -1.15 2.10 -2.10 3 -1.80 1.60 -7.45 4.65 -8.60 4.65 -0.30 0 -0.60 0.25 -0.60 0.50 0 0.30 -0.55 0.50 -1.25 0.50 -1.05 0 -1.25 -0.25 -1.25 -1.55z"/>
  <path d="M14.50 35.60 c0 -0.40 2.60 -2.10 3.20 -2.10 0.15 0 0.30 0.55 0.30 1.25 0 1.10 -0.20 1.25 -1.75 1.25 -0.95 0 -1.75 -0.20 -1.75 -0.40z"/>
  <path d="M28 30.30 c0 -0.40 -0.30 -0.80 -0.60 -0.90 -0.40 -0.15 0.15 -0.90 1.25 -1.85 1 -0.95 1.85 -2.10 1.85 -2.70 0 -0.80 0.15 -0.90 0.60 -0.45 0.45 0.45 0.50 0.95 0.05 2.10 -0.30 0.85 -0.35 1.50 -0.10 1.50 0.25 0 0.45 0.70 0.45 1.50 0 1.40 -0.15 1.50 -1.75 1.50 -1.20 0 -1.75 -0.25 -1.75 -0.70z"/>
  <path d="M13.15 28.50 c0.20 -0.70 0.35 -1.55 0.35 -1.85 0 -0.35 0.35 -0.65 0.75 -0.65 1.10 0 0.90 1.70 -0.35 2.80 -1.05 0.95 -1.05 0.95 -0.75 -0.30z"/>
  <path d="M36.75 29 c-0.20 -0.30 -0.30 -2.05 -0.25 -3.90 0.10 -4.70 0.15 -4.60 -1.25 -4.60 -1.10 0 -1.25 -0.20 -1.25 -1.75 0 -2.20 1.15 -2.35 2.25 -0.25 0.80 1.55 1.45 1.85 2 1 0.15 -0.25 0.65 -0.50 1.05 -0.50 0.40 0 0.70 0.25 0.70 0.50 0 0.30 -0.35 0.50 -0.75 0.50 -0.70 0 -1.75 1.45 -1.75 2.50 0 0.30 0.50 0.40 1.25 0.20 0.70 -0.15 1.25 -0.10 1.25 0.20 0 0.25 -0.45 0.60 -1 0.75 -1.15 0.30 -1.40 2.75 -0.40 3.75 0.40 0.40 0.40 0.75 -0.10 1.35 -0.70 0.85 -1.30 0.95 -1.75 0.25z"/>
  <path d="M31.90 25.75 c0.15 -1.30 0.45 -1.75 1.15 -1.75 0.75 0 0.95 0.35 0.95 1.75 0 1.50 -0.15 1.75 -1.15 1.75 -1 0 -1.15 -0.20 -0.95 -1.75z"/>
  <path d="M8.95 25.25 c-0.05 -0.40 -0.10 -0.95 -0.15 -1.25 -0.05 -0.25 0.20 -0.50 0.45 -0.50 0.30 -0.05 1 -0.40 1.65 -0.80 1.15 -0.75 1.20 -0.70 1.10 1.20 -0.05 0.20 -0.50 0.30 -1.05 0.20 -0.85 -0.15 -1 0 -0.70 0.85 0.25 0.75 0.10 1.05 -0.45 1.05 -0.45 0 -0.85 -0.35 -0.85 -0.75z"/>
  <path d="M7.25 23 c-0.45 -0.75 0.20 -1.50 1.30 -1.50 0.55 0 1.35 -0.30 1.75 -0.70 1.05 -1.05 0.85 -2.30 -0.30 -2.30 -0.80 0 -1 -0.35 -1 -1.70 0 -1.55 0.15 -1.75 2.25 -2.35 1.25 -0.35 2.25 -0.85 2.25 -1.05 0 -0.25 0.60 -0.40 1.40 -0.35 1.20 0.10 4.25 -1.25 6 -2.65 0.40 -0.35 0.60 -0.35 0.60 0.05 0 0.30 0.55 0.55 1.25 0.55 0.90 0 1.40 -0.40 1.95 -1.60 1 -2.45 3.75 -5.40 5 -5.40 0.85 0 0.70 0.30 -1.10 1.85 -2.10 1.75 -3.60 3.95 -3.60 5.20 0 0.35 1.35 -0.80 3 -2.55 1.60 -1.75 3.10 -3.05 3.30 -2.85 0.20 0.20 -0.70 1.35 -2.05 2.55 -2.45 2.30 -2.70 3.35 -0.85 3.80 0.60 0.15 1.55 0.65 2.15 1.15 0.75 0.70 1.20 0.80 1.60 0.40 0.95 -0.95 1.55 -0.60 0.70 0.35 -1.05 1.15 -1.05 1.35 -0.05 2.30 0.70 0.75 0.60 0.80 -1 0.80 -1.45 0 -1.80 -0.20 -1.80 -1 0 -0.55 -0.20 -1 -0.50 -1 -0.25 0 -0.50 -0.35 -0.50 -0.75 0 -0.45 -0.45 -0.75 -1.20 -0.75 -0.65 0 -1.90 -0.15 -2.75 -0.30 -1.15 -0.25 -1.55 -0.15 -1.55 0.40 0 0.70 -1.90 1.55 -4.85 2.15 -2 0.40 -3.75 -0.45 -3.30 -1.65 0.30 -0.75 0.25 -0.75 -0.55 -0.15 -0.55 0.50 -0.75 1.10 -0.60 1.85 0.40 1.60 -1.10 3.95 -3.55 5.50 -1.20 0.75 -2.15 1.55 -2.15 1.75 0 0.60 -0.85 0.55 -1.25 -0.05z m11.75 -9.25 c1.60 -0.90 0.25 -0.95 -1.75 0 -1.15 0.50 -1.25 0.65 -0.50 0.70 0.55 0 1.55 -0.30 2.25 -0.70z"/>
  <path d="M14.35 19.75 l1.90 -2.30 3.90 0.35 c2.10 0.20 3.85 0.20 3.85 0.05 0 -0.15 -1.30 -0.55 -2.85 -0.90 l-2.90 -0.60 2.20 -0.50 c3 -0.60 5.55 -0.10 5.55 1.15 0 0.65 0.35 1 0.95 1 1.80 0 2.55 0.60 2.55 2 l0 1.45 -2.10 -1.20 c-2.25 -1.25 -7.10 -1.80 -9.25 -1.05 -0.90 0.30 -1.15 0.20 -1.20 -0.55 0 -0.80 -0.05 -0.80 -0.45 0.10 -0.35 0.90 -3.05 3.25 -3.75 3.25 -0.15 0 0.55 -1 1.60 -2.25z"/>
  <path d="M34 15.10 c0 -0.65 3.10 -3.10 3.90 -3.10 0.95 0 0.70 0.70 -0.50 1.45 -0.65 0.40 -1.65 1.05 -2.25 1.45 -0.70 0.40 -1.15 0.50 -1.15 0.20z"/>
  <path d="M16 11.75 c0 -0.60 2.80 -2.70 3.65 -2.75 1.40 0 1 0.75 -1.10 1.90 -2 1.15 -2.55 1.30 -2.55 0.85z"/>
  <path d="M36.50 10 c0 -0.65 2.40 -1.80 2.85 -1.30 0.45 0.40 -0.30 1.10 -1.70 1.55 -0.70 0.20 -1.15 0.10 -1.15 -0.25z"/>
  <path d="M21 8.70 c0 -0.40 -0.25 -0.70 -0.60 -0.70 -0.30 0 -0.15 -0.50 0.40 -1.10 0.90 -1 0.90 -1.05 0.05 -0.75 -0.70 0.25 -0.90 0.15 -0.75 -0.55 0.10 -0.55 0.70 -0.90 1.65 -1 1.05 -0.10 1.30 0 0.80 0.35 -0.40 0.25 -0.75 1.05 -0.85 1.75 -0.10 1.15 0 1.25 0.90 0.75 1.20 -0.65 1.75 -0.25 0.95 0.75 -0.85 1 -2.55 1.35 -2.55 0.50z"/>
  <path d="M12.50 5.80 c-0.55 -0.95 -1.30 -1.85 -1.65 -1.95 -0.35 -0.10 -0.45 -0.35 -0.25 -0.55 0.55 -0.65 3.20 1.05 3.80 2.45 0.75 1.65 0.75 1.75 -0.10 1.75 -0.40 0 -1.20 -0.75 -1.80 -1.70z"/>
 </g>
 <g fill="#3a424e">
  <path d="M12.50 38.60 c0 -0.85 0.50 -1.90 1.25 -2.60 1.15 -1.05 1.95 -1.35 4.30 -1.45 0.45 -0.05 0.80 -0.45 0.75 -0.90 -0.05 -0.55 1.05 -1.30 3.45 -2.40 5.35 -2.40 6.65 -3.35 7.70 -5.50 0.80 -1.65 1.05 -1.85 1.30 -1.10 0.20 0.50 0.15 1.45 -0.15 2.15 -0.35 0.65 -0.40 1.20 -0.15 1.20 0.90 0 1.45 -2.30 0.85 -3.75 -0.35 -0.85 -0.75 -1.40 -0.90 -1.25 -0.15 0.15 -0.85 -0.45 -1.60 -1.35 -0.75 -0.85 -2.10 -1.85 -3 -2.15 -1.95 -0.65 -6.65 -0.85 -8.05 -0.35 -0.80 0.25 -1.05 0.15 -1.05 -0.60 0 -0.90 0.35 -0.95 3.80 -0.75 2.75 0.15 3.50 0.10 2.75 -0.30 -0.75 -0.35 -0.45 -0.40 1.25 -0.20 1.25 0.20 2.35 0.50 2.40 0.75 0.25 0.60 2.10 0.55 2.10 -0.05 0 -0.25 0.80 -0.50 1.75 -0.50 0.95 0 1.75 -0.20 1.75 -0.45 0 -0.25 0.35 -0.60 0.80 -0.75 0.90 -0.35 2.30 1.10 2 2 -0.15 0.30 0.35 0.90 1.05 1.25 1.05 0.55 1.35 0.55 1.50 0.10 0.25 -0.70 1.65 -0.90 1.65 -0.25 0 0.75 -2.35 1.40 -4.35 1.20 -1.80 -0.15 -2.10 -0.40 -2.30 -1.50 -0.20 -1.20 -0.20 -1.15 -0.30 0.30 -0.05 1.15 -0.30 1.60 -0.90 1.65 -0.55 0 -0.65 0.15 -0.25 0.30 0.30 0.10 0.60 0.65 0.60 1.20 0 0.50 0.35 0.95 0.75 0.95 0.55 0 0.75 0.60 0.75 2.20 0 1.85 -0.30 2.55 -1.90 4.25 -1.05 1.15 -2.05 2.05 -2.25 2.05 -0.20 0 -0.80 0.45 -1.35 1 -1.10 1.10 -4.30 1.40 -4.60 0.40 -0.40 -1.15 -1.40 0.20 -1.40 1.90 0 1.20 -0.20 1.70 -0.80 1.70 -0.40 0 -1.10 0.35 -1.50 0.75 -0.45 0.40 -1.30 0.75 -2 0.75 -0.75 0 -1.20 0.30 -1.20 0.75 0 0.55 -0.60 0.75 -2.25 0.75 -2.15 0 -2.25 -0.05 -2.25 -1.40z"/>
  <path d="M23 38.30 c0 -1.50 0.20 -1.70 1.55 -2 0.85 -0.15 2.10 -0.30 2.80 -0.30 1.05 0 1.20 0.20 1.05 1.40 -0.10 0.95 -0.45 1.40 -1.25 1.50 -0.65 0.10 -1.15 0.40 -1.15 0.65 0 0.25 -0.65 0.45 -1.50 0.45 -1.35 0 -1.50 -0.15 -1.50 -1.70z"/>
  <path d="M33.65 34.30 c0.20 -0.50 0.05 -0.65 -0.45 -0.45 -1.10 0.40 -0.90 -2 0.35 -3.55 0.60 -0.75 1.50 -1.30 2.25 -1.30 0.95 0 1.20 -0.25 1.20 -1.25 0 -1.50 0.55 -1.60 1.35 -0.30 0.50 0.75 0.45 1.10 -0.05 1.50 -0.40 0.30 -0.80 1.20 -0.95 1.95 -0.35 1.75 -2.20 4.10 -3.20 4.10 -0.45 0 -0.65 -0.30 -0.50 -0.70z"/>
  <path d="M12.35 28.80 c0.75 -0.95 1.55 -1.75 1.80 -1.75 0.75 -0.10 0.30 1.30 -0.80 2.35 -1.85 1.75 -2.60 1.30 -1 -0.60z"/>
  <path d="M8.80 24.70 c-0.20 -0.45 -0.25 -0.90 -0.20 -0.90 2.05 -1.15 2.95 -1.25 3.90 -0.30 0.80 0.80 0.85 1 0.20 1 -0.40 0 -1.25 -0.25 -1.80 -0.55 -0.95 -0.50 -1 -0.45 -0.75 0.50 0.30 1.25 -0.90 1.45 -1.35 0.25z"/>
  <path d="M8.50 22.05 c0 -0.40 2.05 -1.15 2.35 -0.85 0.10 0.05 -0.40 0.40 -1.10 0.70 -0.70 0.30 -1.25 0.40 -1.25 0.15z"/>
  <path d="M14.05 20.10 c1.05 -1.20 1.90 -1.75 2.20 -1.50 0.30 0.25 -0.20 1 -1.25 1.90 -2.45 2.10 -2.95 1.85 -0.95 -0.40z"/>
  <path d="M4 20.90 c0 -0.40 0.45 -1.15 1 -1.65 0.80 -0.75 1 -0.75 1 -0.15 0 0.40 -0.45 1.15 -1 1.65 -0.80 0.75 -1 0.75 -1 0.15z"/>
  <path d="M11.50 19.60 c0 -0.90 -0.30 -1.10 -1.50 -1.10 -1.35 0 -1.50 -0.15 -1.50 -1.65 0 -1.45 0.25 -1.75 1.75 -2.35 1.30 -0.50 1.75 -1 1.75 -1.85 0 -1.05 0.20 -1.15 2.50 -1.15 2.40 0 2.45 0.05 1.65 0.90 -0.50 0.50 -1.40 1.55 -2 2.25 -0.70 0.80 -1.65 1.35 -2.40 1.35 -0.70 0 -1.25 0.20 -1.25 0.45 0 0.30 0.60 0.30 1.45 0.05 1.35 -0.35 1.40 -0.30 1.35 1.05 -0.05 0.80 -0.45 1.80 -0.95 2.30 -0.80 0.80 -0.85 0.80 -0.85 -0.25z"/>
  <path d="M3.05 18.05 c-1.70 -0.45 -0.45 -1.35 2.60 -1.75 2.15 -0.35 2.35 -0.30 2.35 0.65 0 0.80 -0.30 1.05 -1.20 1.05 -0.65 0 -1.50 0.10 -1.90 0.20 -0.35 0.10 -1.20 0.05 -1.85 -0.15z"/>
  <path d="M18 16.10 c-1.25 -0.50 -2.30 -1.25 -2.40 -1.70 -0.20 -0.95 2.25 -2.40 3.35 -2 0.40 0.10 -0.15 0.60 -1.25 1.10 -2.05 0.95 -1.20 1.35 1 0.50 1.05 -0.35 1.30 -0.30 1.30 0.25 0 0.40 0.45 0.75 1 0.75 0.65 0 1 0.35 1 1 0 1.25 -0.95 1.25 -4 0.10z"/>
  <path d="M25.50 14 c0 -0.25 -0.45 -0.50 -1 -0.50 -1.40 0 -1.30 -2.10 0.15 -3.30 0.60 -0.50 0.80 -0.60 0.50 -0.20 -0.35 0.40 -0.65 0.90 -0.65 1.10 0 0.80 1.10 0.40 2.05 -0.70 l0.95 -1.15 -0.30 1.40 c-0.25 1.20 -0.15 1.35 0.90 1.35 0.70 0 1.75 0.55 2.40 1.25 l1.15 1.25 -3.05 0 c-1.75 0 -3.10 -0.20 -3.10 -0.50z"/>
  <path d="M32.80 12.75 c1.05 -1.60 2.70 -2.60 2.70 -1.60 0 0.60 -2.55 2.85 -3.25 2.85 -0.15 0 0.10 -0.55 0.55 -1.25z"/>
  <path d="M19 8.75 c1.20 -1.25 2.45 -2.25 2.70 -2.25 0.30 0 0.25 0.25 -0.10 0.60 -0.35 0.35 -0.60 1 -0.60 1.50 0 0.50 -0.65 1.20 -1.50 1.65 -2.60 1.35 -2.75 0.80 -0.50 -1.50z"/>
  <path d="M14.20 10.10 c-0.30 -0.20 -0.65 -1.10 -0.80 -1.95 -0.20 -1.35 -0.05 -1.65 0.70 -1.65 0.70 0 0.90 0.40 0.90 1.90 l0 1.85 1.30 -1.60 c0.70 -0.90 1.65 -1.65 2.10 -1.65 0.55 0 0.30 0.50 -0.90 1.75 -1.70 1.80 -2.30 2 -3.30 1.35z"/>
  <path d="M37.50 9.55 c0 -0.55 1.30 -1.10 1.70 -0.70 0.15 0.15 0.15 0.50 0 0.70 -0.35 0.60 -1.70 0.55 -1.70 0z"/>
  <path d="M25.50 8.10 c0 -0.30 0.55 -1.20 1.25 -1.95 0.85 -1 1.20 -1.15 1.25 -0.60 0 0.40 -0.55 1.30 -1.25 1.95 -0.70 0.65 -1.25 0.90 -1.25 0.60z"/>
  <path d="M19.50 6.35 c0 -0.95 1.65 -2.35 2.65 -2.35 1.30 0 1 0.65 -0.90 1.90 -1.25 0.80 -1.75 0.90 -1.75 0.45z"/>
 </g>
 <g fill="#63404a">
  <path d="M27.50 36.30 c0 -1.50 0.20 -1.70 1.55 -2 0.85 -0.15 2 -0.30 2.55 -0.30 0.90 0 0.95 0.10 0.35 0.85 -0.60 0.75 -0.60 0.80 0.20 0.50 1.70 -0.65 0.80 0.65 -1.15 1.65 -2.85 1.45 -3.50 1.30 -3.50 -0.70z"/>
  <path d="M36 23.25 c0 -1.20 0.25 -1.75 0.75 -1.75 0.40 0 0.75 0.35 0.75 0.80 0 0.55 0.30 0.75 1 0.55 0.55 -0.15 1 -0.05 1 0.20 0 0.25 -0.35 0.45 -0.75 0.45 -0.40 0 -0.75 0.35 -0.75 0.75 0 0.40 -0.45 0.75 -1 0.75 -0.80 0 -1 -0.35 -1 -1.75z"/>
  <path d="M7.10 22.40 c0.15 -0.35 1.05 -1.10 2.05 -1.60 2 -1.05 2.45 -2.30 0.85 -2.30 -0.55 0 -1 0.35 -1 0.75 0 0.40 -0.20 0.75 -0.50 0.75 -0.25 0 -0.50 -0.20 -0.50 -0.50 0 -0.25 -0.20 -0.50 -0.50 -0.50 -0.25 0 -0.50 0.50 -0.50 1.05 0 0.85 -0.15 0.95 -0.65 0.50 -0.40 -0.30 -0.85 -0.40 -1 -0.20 -0.80 0.75 -0.25 -1.20 0.60 -2.20 1.15 -1.40 3.70 -2.45 3.95 -1.65 0.10 0.30 0.85 0.40 1.85 0.20 1.55 -0.25 1.60 -0.20 1.50 1.05 -0.15 1.35 -1.55 3.25 -2.35 3.25 -0.25 0 -0.90 0.45 -1.50 1 -1.20 1.10 -2.60 1.35 -2.30 0.40z"/>
 </g>
 <g fill="#4c5765">
  <path d="M13 38.75 c0 -0.70 0.25 -1.25 0.50 -1.25 0.30 0 0.50 -0.25 0.50 -0.60 0 -1.50 6.35 -5.40 7.05 -4.35 0.15 0.30 1 -0.10 2 -1 0.95 -0.85 1.95 -1.45 2.30 -1.30 0.35 0.10 0.65 0 0.65 -0.25 0 -0.25 0.65 -0.85 1.50 -1.30 0.80 -0.50 1.85 -1.65 2.25 -2.55 0.75 -1.60 1.75 -2.20 1.75 -1.15 0 0.75 -1.45 3.50 -2.45 4.75 -0.40 0.55 -0.05 0.35 0.85 -0.45 1.25 -1.15 1.60 -1.30 1.60 -0.65 0 0.70 0.50 0.85 2.75 0.85 2.65 0 2.75 0.05 2.75 1.30 0 1.55 -1.75 4.20 -2.80 4.20 -1.10 0 -0.85 -0.70 0.80 -2.15 0.85 -0.75 1.50 -1.65 1.50 -2 0 -0.30 -0.95 0.40 -2.10 1.65 -1.65 1.80 -2.15 2.05 -2.30 1.40 -0.10 -0.50 -0.40 -0.90 -0.65 -0.90 -0.25 0 -0.45 -0.35 -0.45 -0.75 0 -0.40 -0.35 -0.75 -0.75 -0.75 -0.40 0 -0.75 0.35 -0.75 0.75 0 0.80 -3.90 3.25 -5.15 3.25 -0.50 0 -0.85 0.25 -0.85 0.50 0 0.30 -0.35 0.50 -0.75 0.50 -0.40 0 -0.75 0.25 -0.75 0.50 0 0.30 -0.40 0.50 -0.85 0.50 -0.50 0 -1.80 0.60 -2.90 1.25 -1.10 0.70 -2.75 1.25 -3.60 1.25 -1.45 0 -1.65 -0.15 -1.65 -1.25z"/>
  <path d="M26 38.70 c0 -0.60 1.70 -1.65 2.65 -1.70 1.15 0 1.10 0.85 -0.10 1.50 -1.10 0.55 -2.55 0.65 -2.55 0.20z"/>
  <path d="M10.35 32.65 c-0.55 -0.50 -0.40 -1.65 0.15 -1.65 0.30 0 0.50 0.30 0.50 0.70 0 0.40 0.30 0.85 0.65 0.95 0.40 0.20 0.30 0.30 -0.20 0.30 -0.45 0.05 -0.95 -0.10 -1.10 -0.30z"/>
  <path d="M13.40 27.05 c0.15 -1.15 -0.10 -1.65 -1.35 -2.50 -0.85 -0.65 -1.40 -1.35 -1.25 -1.60 0.20 -0.35 0.60 -0.25 1.10 0.20 0.50 0.40 1.25 0.85 1.75 1 1.10 0.40 1.55 1.55 1.15 3.10 -0.45 1.80 -1.70 1.65 -1.40 -0.20z"/>
  <path d="M32.10 24.80 c-0.35 -1 -0.90 -1.80 -1.20 -1.80 -0.25 0 -0.95 -0.55 -1.50 -1.25 -1.15 -1.50 -3.40 -2.75 -4.90 -2.75 -1.10 0 -1.35 -0.75 -0.35 -1.15 0.50 -0.20 0.50 -0.30 0 -0.30 -1.50 -0.10 -0.50 -1.05 1.10 -1.05 1.20 0 1.75 0.25 1.75 0.75 0 0.55 0.55 0.75 2 0.75 1.90 0 2 0.10 2 1.50 0 0.95 0.25 1.50 0.70 1.50 0.50 0 0.85 0.80 1.05 2.20 0.45 3 0.10 3.80 -0.65 1.60z m-1.60 -3.75 c-0.30 -0.60 -0.75 -1.05 -1.05 -1.05 -0.25 0 -0.10 0.55 0.40 1.20 1.05 1.40 1.45 1.35 0.65 -0.15z"/>
  <path d="M36.50 23.25 c0 -0.95 0.25 -1.75 0.50 -1.75 0.30 0 0.50 0.30 0.50 0.65 0 0.30 0.15 1.10 0.30 1.75 0.25 0.80 0.10 1.10 -0.50 1.10 -0.60 0 -0.80 -0.45 -0.80 -1.75z"/>
  <path d="M38.50 23 c0.95 -0.65 1.50 -0.65 1.50 0 0 0.30 -0.50 0.50 -1.10 0.50 -0.95 0 -1 -0.10 -0.40 -0.50z"/>
  <path d="M9.50 21.50 c0 -0.25 0.30 -0.50 0.70 -0.50 0.65 0 1.30 -1 1.30 -2.05 0 -0.25 -0.35 -0.45 -0.75 -0.45 -1.20 0 -0.90 -1.35 0.40 -1.70 2.05 -0.55 2.60 -0.25 0.85 0.50 -1.35 0.55 -1.45 0.65 -0.40 0.45 1.80 -0.35 2.10 0.35 0.85 1.95 -1.20 1.55 -2.95 2.60 -2.95 1.80z"/>
  <path d="M14.10 20.20 c1.05 -1.05 2 -1.75 2.20 -1.55 0.50 0.50 -0.75 1.80 -2.50 2.70 l-1.55 0.75 1.85 -1.90z"/>
  <path d="M5.55 18.70 c0.55 -0.65 0.55 -0.75 -0.10 -0.70 -1.55 0.25 -2.45 -0.05 -2.45 -0.75 0 -0.50 0.55 -0.75 1.75 -0.75 1.60 0 1.75 0.10 1.75 1.50 0 1.05 -0.25 1.50 -0.80 1.50 -0.70 0 -0.70 -0.10 -0.15 -0.80z"/>
  <path d="M34 18.25 c0 -0.85 -0.30 -1.25 -0.85 -1.30 -0.75 0 -0.75 -0.10 0.10 -0.45 1.30 -0.50 3 0.85 2.20 1.80 -0.35 0.45 -0.25 0.70 0.40 0.85 0.60 0.15 0.40 0.25 -0.45 0.30 -1.15 0.05 -1.40 -0.15 -1.40 -1.20z"/>
  <path d="M17.25 15.80 c-1.35 -0.60 -1.40 -0.70 -0.50 -1.05 0.55 -0.20 2 -0.75 3.25 -1.30 2.70 -1.10 1.15 -1.30 -1.95 -0.20 -2.65 0.90 -2.70 0.20 -0.05 -1 1.10 -0.50 2.25 -1.20 2.55 -1.60 0.75 -0.85 1.45 -0.85 1.45 0.05 0 1.30 2 0.25 2.80 -1.50 0.45 -0.95 1.05 -1.70 1.30 -1.70 0.30 0 0 0.80 -0.55 1.80 -1.15 1.90 -1 2.70 0.45 2.70 0.50 0 1.05 0.30 1.15 0.65 0.20 0.50 0.30 0.50 0.30 0 0.05 -0.95 0.95 -0.80 2.65 0.45 l1.50 1.05 1.75 -1.80 c0.95 -1.05 2.10 -1.85 2.55 -1.85 0.90 0.05 0.20 0.80 -3.15 3.40 -1.20 0.95 -1.35 1.25 -0.75 1.60 0.55 0.35 0.30 0.50 -0.85 0.50 -0.90 0 -1.65 -0.20 -1.65 -0.50 0 -0.25 -0.35 -0.50 -0.75 -0.50 -0.40 0 -0.75 -0.20 -0.75 -0.50 0 -0.25 -0.45 -0.50 -0.95 -0.50 -0.55 0 -1.05 -0.20 -1.15 -0.50 -0.05 -0.25 -0.90 -0.60 -1.75 -0.80 -1.45 -0.30 -1.65 -0.20 -1.65 0.80 0 1.20 -1.80 2.95 -3 2.95 -0.40 0 -1.40 -0.30 -2.25 -0.65z"/>
  <path d="M10 15.35 c0 -0.45 0.45 -1.05 1 -1.35 0.55 -0.30 1 -0.75 1 -1.05 0 -0.30 -0.50 -0.15 -1.10 0.25 -0.60 0.45 -1.30 0.80 -1.50 0.80 -0.60 0 -0.45 -1.75 0.20 -2.40 0.75 -0.75 3.40 -0.80 3.40 -0.10 0 0.75 2.50 0.10 4.10 -1.05 0.75 -0.50 1.60 -0.95 1.90 -0.95 0.25 0 0.50 -0.30 0.50 -0.65 0 -0.70 1.55 -2.35 2.15 -2.35 0.15 0 0.20 0.35 0 0.80 -0.25 0.70 -0.15 0.75 0.75 0.25 0.90 -0.45 1.05 -0.45 0.80 0.15 -0.15 0.40 -1.80 1.55 -3.60 2.55 -1.85 1 -4 2.60 -4.85 3.55 -1.70 1.90 -4.75 2.90 -4.75 1.55z"/>
  <path d="M34 15.10 c0 -0.25 0.45 -0.85 1 -1.35 0.75 -0.70 1 -0.75 1 -0.20 0 0.40 -0.45 1 -1 1.35 -0.55 0.35 -1 0.40 -1 0.20z"/>
  <path d="M26.05 11.25 c0 -0.65 1.90 -2.95 2.20 -2.70 0.10 0.15 -0.35 0.90 -1 1.70 -0.65 0.85 -1.20 1.30 -1.20 1z"/>
  <path d="M13.65 10.65 c-0.40 -0.15 -0.45 -0.60 -0.15 -1.35 0.30 -0.85 0.15 -1.60 -0.55 -2.75 -0.85 -1.35 -0.85 -1.55 -0.10 -1.55 1.20 0 2.10 1.50 2.15 3.50 l0.05 1.75 0.90 -1.10 c0.55 -0.65 1.25 -1.15 1.60 -1.15 0.80 0 -1.35 2.35 -2.45 2.60 -0.50 0.15 -1.10 0.15 -1.45 0.05z"/>
  <path d="M19.25 5.75 c3.20 -2.75 7.25 -4.60 7.25 -3.35 0 0.25 -0.60 0.70 -1.35 1.05 -0.70 0.35 -2.45 1.40 -3.90 2.30 -3.35 2.25 -4.60 2.25 -2 0z"/>
  <path d="M27.55 5.20 c0.60 -0.70 3.05 -2.20 3.70 -2.20 0.75 0 0.05 0.85 -1.50 1.90 -2.05 1.30 -3.20 1.50 -2.20 0.30z"/>
  <path d="M9.15 3.85 c0.20 -0.70 2.45 -0.80 2.70 -0.10 0.05 0.30 -0.55 0.55 -1.40 0.60 -1 0.10 -1.45 -0.10 -1.30 -0.50z"/>
 </g>
 <g fill="#796935">
  <path d="M31.20 22.75 c-0.95 -2.30 -0.95 -2.25 1.05 -2.25 1.65 0 1.75 0.10 1.75 1.70 0 1.10 -0.30 1.80 -0.80 2 -1.15 0.45 -1.20 0.45 -2 -1.45z"/>
  <path d="M5.30 18.90 c0.80 -0.85 0.80 -1 0.15 -0.75 -0.55 0.20 -0.80 0 -0.75 -0.55 0.05 -0.85 1.25 -1.45 2.95 -1.55 0.70 -0.05 0.85 0.30 0.75 1.65 -0.05 1.10 -0.30 1.60 -0.70 1.45 -0.35 -0.10 -0.75 0 -0.95 0.30 -0.15 0.30 -0.80 0.55 -1.35 0.55 -1.05 0 -1.05 0 -0.10 -1.10z"/>
  <path d="M10 14.60 c0.90 -0.55 1.80 -1.20 1.90 -1.50 0.25 -0.85 -0.65 -0.75 -1.40 0.15 -0.35 0.40 -1.05 0.75 -1.60 0.75 -1.40 0 -0.95 -1.70 0.50 -1.90 0.60 -0.10 1.10 -0.40 1.10 -0.65 0 -0.25 0.55 -0.45 1.25 -0.45 0.70 0 1.25 -0.20 1.25 -0.50 0 -0.25 0.60 -0.50 1.35 -0.50 1.30 0 1.30 0.05 0.35 0.75 -0.85 0.65 -0.85 0.70 -0.05 0.75 1.15 0 1.10 1.05 -0.20 2.70 -0.85 1.10 -1.40 1.30 -3.60 1.30 l-2.60 0 1.75 -0.90z"/>
 </g>
 <g fill="#64656f">
  <path d="M19.50 38.50 c0 -1.45 0.10 -1.50 2.20 -1.50 1.50 0 2.30 -0.25 2.50 -0.75 0.15 -0.45 0.90 -0.75 1.80 -0.75 1.30 0 1.50 -0.15 1.50 -1.40 0 -1.15 0.40 -1.65 1.75 -2.40 1 -0.55 1.75 -1.30 1.75 -1.85 0 -0.95 0.30 -1.10 3.05 -1.55 1.60 -0.30 1.80 -0.45 1.55 -1.45 -0.15 -0.60 -0.55 -1.30 -0.95 -1.50 -0.35 -0.20 -0.65 -1.20 -0.65 -2.10 0 -1.20 -0.25 -1.75 -0.75 -1.75 -0.40 0 -0.75 -0.45 -0.75 -0.95 0 -0.50 -0.35 -1.05 -0.75 -1.25 -0.40 -0.15 -0.75 -0.05 -0.75 0.20 0 0.30 0.25 0.50 0.50 0.50 0.30 0 0.50 0.85 0.45 1.90 0 1 -0.15 1.50 -0.30 1.10 -0.50 -1.35 -2.20 -3.50 -2.75 -3.50 -0.35 0 -0.10 0.50 0.50 1.15 1.75 1.85 1.30 2.10 -0.65 0.40 -2.20 -1.90 -3.55 -2.30 -7.85 -2.30 -2.20 0 -3.40 -0.20 -3.40 -0.55 0 -0.40 1.10 -0.50 3.50 -0.30 1.95 0.10 3.50 0.10 3.50 0 0 -0.15 -1.70 -0.70 -3.75 -1.15 -4.15 -1 -4.90 -1.50 -3 -1.95 0.70 -0.20 2 -0.75 2.90 -1.30 1.35 -0.85 1.45 -1 0.55 -1 -0.60 0 -2.05 0.35 -3.20 0.75 -1.75 0.60 -2 0.60 -1.55 0.05 0.30 -0.40 1.30 -1 2.20 -1.35 0.90 -0.35 1.90 -1 2.25 -1.45 0.50 -0.55 0.75 -0.60 0.90 -0.10 0.15 0.30 0.80 0.60 1.45 0.60 0.65 0 1.35 0.25 1.50 0.50 0.15 0.25 0.75 0.50 1.30 0.50 0.50 0 0.95 0.20 0.95 0.45 0 0.20 0.55 0.30 1.25 0.15 0.75 -0.10 1.25 0 1.25 0.35 0 0.35 0.20 0.50 0.45 0.30 0.30 -0.15 0.75 0.25 1.10 0.85 0.90 1.70 1.90 2.55 2.70 2.25 0.85 -0.35 1.95 0.90 1.60 1.80 -0.35 0.90 2.55 2.15 3.30 1.40 0.70 -0.70 1.35 -0.70 1.35 -0.05 0 0.30 -0.35 0.50 -0.75 0.50 -1.35 0 -1.80 1.75 -1.30 5.30 0.30 1.90 0.30 3.65 0.10 3.95 -0.25 0.25 -0.70 1.35 -1.05 2.40 -0.30 1.05 -1.30 2.40 -2.15 3.05 -2 1.45 -7.40 4.30 -8.20 4.30 -0.35 0 -0.65 0.25 -0.65 0.50 0 0.30 -1.40 0.50 -3.25 0.50 l-3.25 0 0 -1.50z m7.30 -0.75 c1.25 -0.95 0.70 -0.95 -1.10 0 -0.80 0.40 -1.10 0.75 -0.65 0.75 0.40 0 1.20 -0.35 1.75 -0.75z m4.70 -2 c1.55 -0.80 5 -4.15 5 -4.80 0 -0.25 -0.35 -0.30 -0.75 -0.15 -0.40 0.20 -0.75 0.45 -0.75 0.65 0 0.70 -3.30 3.70 -4.75 4.35 -0.80 0.35 -1.20 0.65 -0.85 0.70 0.35 0 1.30 -0.35 2.10 -0.75z m-1.70 -19.15 c-0.15 -0.25 -1.10 -0.65 -2.10 -0.80 -0.95 -0.20 -2.15 -0.50 -2.60 -0.65 -0.60 -0.20 -0.70 -0.15 -0.35 0.25 0.55 0.55 4.90 2.10 5.20 1.85 0.05 -0.10 0 -0.40 -0.15 -0.65z"/>
  <path d="M10 31.55 c0 -0.50 0.55 -1.30 1.25 -1.75 1.10 -0.75 1.25 -0.75 1.25 -0.05 0 0.45 -0.35 0.90 -0.75 1.05 -0.40 0.20 -0.75 0.60 -0.75 1 0 0.40 -0.20 0.70 -0.50 0.70 -0.25 0 -0.50 -0.40 -0.50 -0.95z"/>
  <path d="M9 25.05 c-0.65 -1.30 -0.65 -1.55 0.25 -1.55 0.40 0 0.75 0.20 0.75 0.45 0 0.25 0.15 0.80 0.30 1.25 0.45 1.15 -0.65 1 -1.30 -0.15z"/>
  <path d="M8.50 21.50 c1.65 -1.45 3 -1.95 3 -1.05 0 0.50 -3.30 2.55 -4.10 2.55 -0.35 0 0.20 -0.65 1.10 -1.50z"/>
  <path d="M14.35 20.05 c0.75 -0.80 1.60 -1.30 1.85 -1.15 0.50 0.30 -1.95 2.60 -2.75 2.60 -0.30 0 0.10 -0.65 0.90 -1.45z"/>
  <path d="M5 19.70 c0 -0.60 2.10 -2.20 2.90 -2.20 0.25 0 0.50 0.60 0.50 1.30 0 0.80 -0.15 1.05 -0.40 0.70 -0.20 -0.35 -0.65 -0.45 -0.95 -0.30 -0.30 0.20 -0.45 0.55 -0.30 0.80 0.15 0.25 -0.20 0.40 -0.75 0.35 -0.55 -0.05 -1 -0.35 -1 -0.65z"/>
  <path d="M11.80 19.25 c-0.15 -0.40 -0.60 -0.75 -1.05 -0.75 -0.40 0 -0.75 -0.35 -0.75 -0.75 0 -0.40 0.30 -0.75 0.70 -0.75 0.40 0 1.15 -0.10 1.65 -0.25 0.50 -0.15 0.25 0.10 -0.60 0.50 l-1.50 0.80 1.40 -0.30 c1.10 -0.20 1.35 -0.10 1.35 0.70 0 1.25 -0.80 1.80 -1.20 0.80z"/>
  <path d="M10.25 15.50 c0.15 -0.25 1.05 -0.50 1.90 -0.45 1.55 0.05 1.55 0.05 0.35 0.45 -1.80 0.55 -2.60 0.55 -2.25 0z"/>
  <path d="M34.80 13.95 c0.60 -0.65 1 -0.80 1.10 -0.45 0.15 0.35 -0.10 0.80 -0.45 1.05 -1.25 0.80 -1.60 0.45 -0.65 -0.60z"/>
  <path d="M32.80 12.90 c2.05 -2.30 2.90 -2.90 3.15 -2.35 0.15 0.55 -3.40 3.90 -4.15 3.95 -0.30 0 0.15 -0.70 1 -1.60z"/>
  <path d="M13.50 13 c-0.65 -0.45 -0.65 -0.55 0 -1 0.40 -0.25 1.20 -0.50 1.75 -0.50 0.55 0 1.85 -0.80 2.90 -1.75 1.05 -0.95 2.35 -1.75 2.90 -1.75 1.60 0 1.10 0.90 -1.15 2.05 -1.20 0.60 -2.85 1.60 -3.75 2.25 -1.80 1.40 -1.65 1.35 -2.65 0.70z"/>
  <path d="M13 10.75 c0 -0.50 0.50 -0.75 1.35 -0.75 1.30 0 1.30 0.05 0.35 0.75 -1.25 0.95 -1.70 0.95 -1.70 0z"/>
  <path d="M27.30 9.25 c1.30 -1.70 4.20 -4.15 4.20 -3.55 0 0.30 -5.05 5.30 -5.35 5.30 -0.10 0 0.40 -0.80 1.15 -1.75z"/>
  <path d="M37 9.75 c0 -0.35 0.45 -0.75 1 -0.90 0.60 -0.15 1 0 1 0.40 0 0.35 -0.45 0.75 -1 0.90 -0.60 0.15 -1 0 -1 -0.40z"/>
  <path d="M12.85 6.10 c-1.05 -1.15 -1.10 -2.10 -0.10 -2.10 0.65 0 1.75 1.80 1.75 2.80 0 0.50 -0.90 0.15 -1.65 -0.70z"/>
  <path d="M21 4.95 c0 -0.85 4.15 -3.15 5.10 -2.85 0.35 0.15 -0.25 0.80 -1.50 1.60 -2.85 1.80 -3.60 2.05 -3.60 1.25z"/>
 </g>
 <g fill="#607381">
  <path d="M11 39.40 c0.05 -1.50 4.20 -4.85 5.65 -4.55 0.45 0.15 0.85 0 0.85 -0.30 0 -0.30 0.40 -0.55 0.90 -0.55 0.55 0 1.60 -0.55 2.40 -1.25 0.80 -0.70 1.70 -1.25 2 -1.25 0.30 0 0.85 -0.35 1.20 -0.75 0.35 -0.40 0.85 -0.75 1.10 -0.75 0.75 0 -0.05 2.60 -1 3.35 -0.65 0.50 -0.45 0.50 0.65 -0.05 1.95 -0.95 3.65 -2.25 3 -2.30 -0.30 0 -0.80 0.25 -1.15 0.60 -0.45 0.45 -0.60 0.30 -0.60 -0.75 0 -0.85 0.35 -1.50 0.90 -1.70 0.45 -0.15 1.35 -0.75 1.95 -1.30 1.60 -1.40 2.05 -0.65 0.70 1.15 -1.35 1.90 -1 1.95 0.70 0.15 l1.25 -1.40 0 1.40 c0 0.85 -0.25 1.35 -0.75 1.35 -0.40 0 -0.75 0.45 -0.75 1 0 0.55 -0.35 1 -0.75 1 -0.40 0 -0.75 0.35 -0.75 0.75 0 0.45 -0.45 0.75 -1.25 0.75 -0.70 0 -1.25 0.30 -1.25 0.65 -0.05 0.65 -3.10 2.35 -4.25 2.35 -0.40 0 -0.75 0.20 -0.75 0.40 0 0.50 -4.25 2.60 -5.30 2.60 -1.40 0 -0.50 -1.70 1.55 -2.85 1.10 -0.60 1.80 -1.15 1.55 -1.15 -0.25 0 -1.45 0.55 -2.60 1.25 -1.45 0.85 -2.05 1.50 -1.90 2 0.25 0.60 -0.10 0.75 -1.50 0.75 -1.10 0 -1.80 -0.25 -1.80 -0.60z m10.20 -4.15 c0.80 -0.60 0.85 -0.75 0.20 -0.75 -0.40 0 -1.05 0.35 -1.40 0.75 -0.80 0.95 -0.05 0.95 1.20 0z"/>
  <path d="M9 24.25 c0 -0.40 0.25 -0.75 0.50 -0.75 0.30 0 0.50 0.35 0.50 0.75 0 0.40 -0.20 0.75 -0.50 0.75 -0.25 0 -0.50 -0.35 -0.50 -0.75z"/>
  <path d="M11.50 24 c-0.80 -0.65 -1 -1 -0.50 -0.95 0.80 0 2.50 1.10 2.50 1.65 0 0.55 -0.70 0.30 -2 -0.70z"/>
  <path d="M14.35 20.20 c0.70 -0.70 1.40 -1.10 1.60 -0.95 0.30 0.35 -1.75 2.25 -2.50 2.25 -0.20 0 0.15 -0.60 0.90 -1.30z"/>
  <path d="M5.50 18.95 c1.60 -1.35 1.60 -1.45 0.45 -1 -1.40 0.50 -1.95 0.30 -1.95 -0.65 0 -0.30 0.25 -0.20 0.50 0.20 0.30 0.50 0.50 0.55 0.50 0.15 0 -0.35 0.55 -0.65 1.25 -0.65 0.90 0 1.25 0.25 1.25 1 0 0.55 -0.25 1 -0.55 1 -0.30 0 -0.45 0.30 -0.30 0.70 0.20 0.45 -0.20 0.65 -1.30 0.70 l-1.60 0 1.75 -1.45z"/>
  <path d="M10.60 18.50 c-0.60 -0.25 -1.45 -0.35 -1.85 -0.20 -0.55 0.25 -0.75 -0.05 -0.75 -1.20 0 -1.20 0.35 -1.70 1.60 -2.30 0.85 -0.45 2.05 -0.80 2.70 -0.80 0.65 0 1.30 -0.25 1.50 -0.60 0.25 -0.40 0.10 -0.45 -0.45 -0.25 -0.65 0.25 -0.85 0.05 -0.85 -0.90 0 -1.30 1.15 -1.75 1.75 -0.70 0.20 0.30 0.65 0.40 1.05 0.25 0.90 -0.35 0.90 -0.05 -0.10 1.45 -0.45 0.70 -1.15 1.25 -1.50 1.25 -0.40 0 -0.70 0.20 -0.70 0.45 0 0.25 -0.65 0.60 -1.50 0.80 -1.60 0.35 -2.05 1.25 -0.60 1.25 0.75 0 0.75 0.10 0.10 0.55 -0.60 0.40 -0.45 0.45 0.65 0.25 1 -0.25 1.35 -0.15 1.35 0.45 0 0.85 -0.70 0.90 -2.40 0.25z"/>
  <path d="M18.10 15.45 c0.10 -0.30 1.15 -1.10 2.30 -1.70 2.35 -1.25 2.15 -2.05 -0.35 -1.20 -2.10 0.75 -3.20 0.25 -1.30 -0.60 0.85 -0.35 1.65 -0.90 1.85 -1.20 0.25 -0.30 0.40 -0.25 0.40 0.15 0 0.30 0.45 0.60 1 0.60 0.80 0 1 0.35 1 1.75 0 1.20 -0.25 1.75 -0.75 1.75 -0.40 0 -0.75 0.25 -0.75 0.50 0 0.30 -0.80 0.50 -1.80 0.50 -1.10 0 -1.70 -0.20 -1.60 -0.55z"/>
  <path d="M17.65 10.25 c0.75 -0.65 1.95 -1.85 2.65 -2.60 0.85 -0.90 1.20 -1.10 1 -0.50 -0.15 0.45 -0.05 0.85 0.20 0.85 1.20 0 0.30 0.95 -2.05 2.20 -3.15 1.60 -3.60 1.65 -1.80 0.05z"/>
  <path d="M15.75 9.50 c1.75 -2.20 2.70 -3 3.50 -3 0.75 0 -0.75 1.50 -3.50 3.50 -1 0.75 -1 0.75 0 -0.50z"/>
  <path d="M13.70 8.30 c-0.10 -1.75 -2.25 -4.40 -3.30 -4.15 -0.55 0.15 -0.90 0 -0.90 -0.45 0 -0.40 0.30 -0.70 0.70 -0.70 0.95 0 3.35 1.30 3.40 1.80 0 0.25 0.35 0.90 0.70 1.45 0.85 1.20 0.90 3.25 0.10 3.25 -0.35 0 -0.70 -0.55 -0.70 -1.20z"/>
  <path d="M29.50 4.55 c0 -0.65 1.40 -1.65 2.05 -1.45 0.30 0.10 0 0.60 -0.75 1.05 -0.70 0.50 -1.30 0.65 -1.30 0.40z"/>
 </g>
 <g fill="#797e7b">
  <path d="M11 39.75 c0 -1.05 1.20 -2.25 2.25 -2.25 1.95 0 2.75 -0.55 2.75 -1.80 0 -1 0.25 -1.20 1.50 -1.20 0.95 0 1.50 -0.25 1.50 -0.70 0 -0.65 5.75 -3.90 6.15 -3.45 0.10 0.10 0.10 0.65 0 1.30 -0.15 0.80 -1.35 1.65 -4.70 3.30 -4.05 1.95 -5.75 3.10 -4.60 3.05 0.20 -0.05 2.30 -1.05 4.65 -2.25 2.35 -1.25 4.35 -2 4.40 -1.75 0.30 0.80 2.10 0.55 2.10 -0.25 0 -0.40 -0.25 -0.75 -0.50 -0.75 -0.30 0 0.20 -0.65 1.10 -1.45 1.15 -1 1.75 -1.30 2 -0.90 0.35 0.55 0.60 0.10 0.45 -0.80 -0.05 -0.25 0.50 -1.10 1.20 -1.95 0.95 -1.10 1.25 -1.90 1 -2.75 -0.20 -0.80 -0.05 -1.15 0.50 -1.15 0.40 0 0.75 -0.20 0.75 -0.50 0 -0.25 -0.40 -0.50 -0.85 -0.50 -0.50 0 -1.40 -0.80 -2 -1.75 -0.65 -0.95 -1.65 -2 -2.25 -2.30 -0.95 -0.50 -0.85 -0.30 0.50 1.25 0.85 1 1.60 2 1.60 2.20 0 0.20 -0.40 -0.15 -0.90 -0.70 -0.45 -0.60 -1.35 -1.35 -1.95 -1.65 -0.65 -0.35 -1.15 -0.90 -1.15 -1.25 0 -0.60 -3.05 -1.80 -4.70 -1.80 -1.15 0 -1.10 -3.30 0.10 -3.95 0.80 -0.45 0.80 -0.50 0 -0.80 -0.50 -0.20 -0.90 -0.80 -0.90 -1.30 0 -1.15 0.35 -1.20 1.35 -0.20 0.40 0.40 0.90 0.65 1.15 0.50 0.20 -0.15 0.65 0.10 1 0.50 0.35 0.40 0.95 0.75 1.35 0.75 0.35 0 0.90 0.50 1.15 1.10 0.25 0.65 0.45 0.85 0.45 0.55 0.05 -0.75 1.55 -0.90 1.55 -0.15 0 0.30 0.40 0.50 0.90 0.50 0.90 0.05 4.10 2.70 4.10 3.45 0 0.25 0.30 0.60 0.65 0.70 0.45 0.20 0.40 0.40 -0.15 0.80 -0.40 0.30 -0.50 0.55 -0.20 0.55 0.25 0 0.75 -0.25 1.05 -0.55 1.10 -1.10 2.20 0.70 1.95 3.15 -0.15 1.20 -0.25 2.30 -0.25 2.55 -0.05 0.20 -0.60 0.35 -1.30 0.35 -0.90 0 -1.25 0.25 -1.25 0.95 0 0.55 -0.40 1.10 -0.85 1.20 -0.70 0.20 -0.60 0.25 0.25 0.30 2.55 0.10 0.20 6.55 -2.40 6.55 -0.50 0 -1 0.30 -1.15 0.70 -0.15 0.40 -1.15 1 -2.20 1.35 -2.70 0.85 -4.15 1.90 -3.80 2.75 0.40 1.05 -1.85 0.90 -2.65 -0.15 -0.65 -0.85 -0.65 -0.85 -0.70 0 0 0.70 -0.50 0.85 -3.05 0.85 -2.80 0 -3 -0.10 -2.70 -1 0.25 -0.70 0.10 -1 -0.45 -1 -0.45 0 -0.80 0.40 -0.80 0.90 0 0.65 -0.45 0.90 -1.50 1 -0.80 0.05 -1.50 0 -1.50 -0.15z m20.70 -6.65 c0.20 -0.45 -0.20 -0.35 -1.20 0.25 -0.85 0.45 -1.50 1.15 -1.50 1.55 0 0.75 2.30 -0.75 2.70 -1.80z"/>
  <path d="M26.10 30.75 c0.15 -1.30 0.35 -1.50 1.90 -1.65 1.70 -0.20 1.70 -0.20 0.80 0.85 -0.55 0.60 -1.05 0.95 -1.20 0.80 -0.15 -0.10 -0.55 0.15 -0.95 0.65 -0.60 0.75 -0.65 0.70 -0.55 -0.65z"/>
  <path d="M36 27.75 c0 -2.05 1 -2.35 1.80 -0.55 0.40 0.90 0.40 1.40 0.05 1.75 -1.10 1.10 -1.85 0.60 -1.85 -1.20z"/>
  <path d="M29.50 27.50 c0 -0.55 0.35 -1 0.75 -1 0.65 0 0.70 0.20 0.25 1 -0.30 0.55 -0.65 1 -0.75 1 -0.15 0 -0.25 -0.45 -0.25 -1z"/>
  <path d="M8.50 21.55 c0 -0.30 0.20 -0.55 0.45 -0.55 0.20 0 1 -0.55 1.75 -1.25 1.15 -1.05 1.30 -1.10 1.30 -0.30 0 1.05 -0.75 1.80 -2.35 2.25 -0.70 0.25 -1.15 0.15 -1.15 -0.15z"/>
  <path d="M5.75 18.75 c1.35 -1.15 1.40 -1.20 0.30 -0.85 -1.50 0.55 -3.65 0.15 -3.40 -0.60 0.10 -0.30 1.25 -0.70 2.60 -0.90 1.30 -0.20 2.65 -0.60 2.90 -0.85 0.60 -0.60 2.85 -0.75 2.85 -0.25 0 0.20 -0.40 0.65 -0.85 1 -0.80 0.60 -0.80 0.65 -0.10 0.70 0.45 0 0.80 0.35 0.80 0.75 0 0.45 -0.30 0.70 -0.70 0.55 -0.35 -0.15 -1 -0.15 -1.45 0.05 -0.65 0.25 -0.65 0.35 -0.10 0.75 0.40 0.25 0.15 0.30 -0.70 0.10 -0.90 -0.20 -1.40 -0.10 -1.40 0.25 0 0.30 -0.50 0.55 -1.10 0.55 -1.10 0 -1.05 -0.05 0.35 -1.25z"/>
  <path d="M35.50 13.70 c0 -0.55 1.70 -1.65 2.45 -1.70 0.55 0 0.50 0.25 -0.20 1 -0.85 0.95 -2.25 1.35 -2.25 0.70z"/>
  <path d="M13.70 11.30 c-0.40 -1.05 -0.05 -2.45 0.70 -2.70 0.30 -0.10 0.60 0.20 0.60 0.75 0 0.65 0.45 0.40 1.90 -1.15 2.50 -2.75 3.60 -3.55 3.60 -2.60 0 0.40 -1.45 1.80 -3.20 3.15 -1.80 1.35 -3.15 2.60 -3 2.85 0.15 0.20 0.15 0.40 -0.05 0.40 -0.15 0 -0.40 -0.30 -0.55 -0.70z"/>
  <path d="M35.50 10.55 c0 -0.50 3.15 -2.10 3.50 -1.75 0.30 0.35 -2.10 2.15 -2.85 2.20 -0.35 0 -0.65 -0.20 -0.65 -0.45z"/>
  <path d="M19 9.50 c0 -0.30 0.35 -0.65 0.75 -0.80 0.40 -0.20 0.65 -0.50 0.50 -0.70 -0.15 -0.20 0.15 -0.70 0.60 -1.05 0.75 -0.60 0.80 -0.60 0.50 0.25 -0.30 0.70 -0.20 0.85 0.40 0.60 0.40 -0.15 1.10 -0.45 1.50 -0.60 1.35 -0.55 0.80 0.75 -0.60 1.45 -2.25 1.15 -3.65 1.50 -3.65 0.85z"/>
  <path d="M26.50 6.50 c1.30 -1.80 2 -2.30 2 -1.35 0 0.70 -2 2.85 -2.70 2.85 -0.20 0 0.10 -0.65 0.70 -1.50z"/>
 </g>
 <g fill="#ae8c3e">
  <path d="M9 15.65 c0 -0.25 0.60 -0.80 1.40 -1.20 1.40 -0.75 2.10 -1.40 2.10 -2.10 0 -0.25 -0.80 0.05 -1.75 0.65 -1.45 0.90 -1.75 0.95 -1.75 0.30 0 -0.45 0.35 -0.80 0.75 -0.80 0.35 0 0.90 -0.30 1.10 -0.70 0.20 -0.35 1.20 -0.85 2.15 -1 1.65 -0.35 1.70 -0.30 0.75 0.45 -0.70 0.60 -0.80 0.80 -0.25 0.75 2.30 -0.30 2.55 0.35 0.90 2.20 -1.15 1.25 -5.40 2.35 -5.40 1.45z"/>
 </g>
 <g fill="#9f6b73">
  <path d="M4.50 20.40 c0 -0.45 0.85 -1.35 1.90 -1.95 1 -0.65 1.90 -1.30 2 -1.50 0.05 -0.15 0.70 -0.20 1.35 -0.05 0.70 0.10 1.10 0.45 0.90 0.75 -0.20 0.30 0.15 0.40 1.05 0.15 1.05 -0.25 1.30 -0.15 1.30 0.60 0 1.10 -0.95 2.10 -1.95 2.10 -0.60 0 -0.60 -0.15 -0.15 -0.60 0.85 -0.85 0.75 -1.25 -0.40 -1.55 -1.45 -0.40 -4.10 0.70 -3.75 1.55 0.15 0.45 0 0.60 -0.45 0.45 -0.35 -0.15 -0.95 0 -1.25 0.30 -0.40 0.40 -0.55 0.35 -0.55 -0.25z"/>
 </g>
 <g fill="#7d8691">
  <path d="M22 38.65 c0 -1.85 1.35 -2.75 3.80 -2.45 2.05 0.20 2.20 0.15 2.20 -1 0 -0.65 0.25 -1.20 0.50 -1.20 0.30 0 0.50 -0.35 0.50 -0.75 0 -0.45 0.45 -0.75 1.15 -0.75 1.05 0.05 1.05 0.10 -0.35 1.20 -0.75 0.65 -1.20 1.30 -0.95 1.45 0.45 0.30 1.15 -0.30 3.65 -3.05 0.60 -0.65 0.95 -1.55 0.85 -2 -0.20 -0.70 -0.30 -0.65 -0.60 0.25 -0.20 0.65 -0.60 0.95 -1.05 0.80 -0.40 -0.15 -0.70 0 -0.70 0.30 0 0.30 -0.85 0.55 -1.85 0.55 l-1.90 0 2.05 -1.90 c1.15 -1.05 2.30 -2.35 2.60 -2.90 0.50 -0.85 0.55 -0.85 0.60 -0.05 0 0.60 0.40 0.85 1.30 0.85 1.30 0 1.35 -0.05 1 -2.30 -0.15 -1.30 -0.30 -2.65 -0.30 -3 0 -0.40 -0.35 -0.70 -0.75 -0.70 -0.50 0 -0.75 -0.50 -0.75 -1.55 0 -1.85 -0.85 -3.60 -1.60 -3.15 -0.35 0.20 -0.30 0.45 0.15 0.75 0.55 0.35 0.50 0.45 -0.15 0.45 -1.10 0 -1.15 0.65 -0.15 1.50 0.45 0.35 0.75 1.40 0.70 2.45 l-0.05 1.80 -0.40 -1.45 c-0.45 -1.50 -2.85 -4.30 -3.65 -4.30 -0.25 0 0.25 0.80 1.10 1.75 1.75 2 2.15 3.10 0.50 1.30 -0.60 -0.65 -2 -1.60 -3.15 -2.10 -1.35 -0.60 -1.70 -0.95 -1.05 -0.95 1.75 -0.05 -0.20 -0.85 -4.30 -1.80 -3.60 -0.80 -5.60 -1.70 -3.75 -1.70 1.40 0 5.40 -2.10 4.90 -2.60 -0.25 -0.25 -1.75 0.05 -3.40 0.55 -2.90 0.95 -2.95 0.95 -1.75 0 0.65 -0.50 1.45 -0.95 1.85 -0.95 0.35 0 1.10 -0.50 1.70 -1.10 0.95 -1.05 1.05 -1.05 1.65 -0.15 0.40 0.50 0.95 0.75 1.20 0.60 0.30 -0.20 0.80 0 1.15 0.40 0.35 0.40 0.90 0.75 1.30 0.75 0.35 0 0.85 0.35 1.10 0.80 0.40 0.75 0.50 0.75 0.75 0 0.45 -1.15 1.35 -1 1.35 0.20 0 0.60 0.35 1 0.85 1 0.45 0 1.50 0.60 2.30 1.40 1.05 0.95 1.55 1.15 1.70 0.70 0.20 -0.50 0.40 -0.50 0.95 -0.05 0.90 0.75 0.90 1.70 -0.10 2.65 -0.90 0.95 -0.20 1.10 0.75 0.20 0.55 -0.50 0.70 -0.50 0.90 0 0.15 0.30 0.55 0.60 1 0.60 0.55 0 0.60 0.30 0.30 1.15 -0.55 1.60 -0.40 6.50 0.25 6.75 0.40 0.10 0.40 0.45 0 1.10 -0.30 0.50 -0.85 0.80 -1.25 0.65 -0.35 -0.15 -1.10 0.55 -1.70 1.60 -0.70 1.20 -1.35 1.70 -1.80 1.50 -0.55 -0.15 -0.65 -0.05 -0.50 0.50 0.20 0.45 -0.40 1.15 -1.80 2 -1.15 0.65 -1.80 1.25 -1.45 1.25 0.95 0 4.60 -1.95 4.60 -2.50 0 -0.25 0.65 -0.90 1.45 -1.45 l1.45 -1.05 -0.25 1.05 c-0.30 1.10 -3.95 3.65 -7.95 5.55 -1.35 0.65 -2.60 1.30 -2.75 1.55 -0.15 0.20 -1.10 0.30 -2.10 0.25 -1.50 -0.15 -1.85 -0.35 -1.85 -1.25z m4 -0.40 c1.60 -0.80 1.90 -1.25 0.90 -1.25 -0.70 0 -3.40 1.95 -2.75 2 0.20 0 1.05 -0.35 1.85 -0.75z"/>
  <path d="M11.50 38.65 c0 -0.55 0.60 -1.30 1.65 -2.10 0.75 -0.60 0.85 -0.55 0.85 0.90 0 1.30 -0.20 1.55 -1.25 1.55 -0.70 0 -1.25 -0.15 -1.25 -0.35z"/>
  <path d="M24 34 c2.15 -1.50 2.50 -1.55 2.50 -0.50 0 0.80 -0.30 1 -1.60 1 -1.30 0 -1.50 -0.15 -0.90 -0.50z"/>
  <path d="M23.35 32.65 c-0.70 -0.65 -0.30 -1.65 0.65 -1.65 0.65 0 1 0.35 1 1 0 0.95 -1 1.35 -1.65 0.65z"/>
  <path d="M10 31.80 c0 -0.40 0.65 -1.25 1.45 -1.90 2 -1.75 2.70 -3.15 2.05 -4.35 -0.75 -1.40 -0.65 -1.65 0.50 -1.05 1.65 0.90 1.25 2.85 -1 5.10 -1.10 1.10 -2 2.20 -2 2.45 0 0.25 -0.20 0.45 -0.50 0.45 -0.25 0 -0.50 -0.30 -0.50 -0.70z"/>
  <path d="M27.50 29.80 c0 -0.40 0.50 -1.30 1.15 -1.95 0.60 -0.65 1.35 -1.60 1.65 -2.15 0.35 -0.50 0.75 -0.80 0.95 -0.60 0.50 0.45 -2.25 5 -3.10 5.30 -0.35 0.10 -0.65 -0.15 -0.65 -0.60z"/>
  <path d="M8.85 24.50 c-0.15 -0.60 0 -1 0.40 -1 0.35 0 0.75 0.45 0.90 1 0.15 0.60 0 1 -0.40 1 -0.35 0 -0.75 -0.45 -0.90 -1z"/>
  <path d="M7 22.50 c0 -0.25 0.35 -0.50 0.70 -0.50 0.40 0 1.35 -0.55 2.10 -1.25 1.70 -1.55 3.35 -1.80 1.95 -0.25 -0.50 0.55 -1.20 1 -1.50 1 -0.35 0 -0.90 0.35 -1.25 0.75 -0.70 0.85 -2 1 -2 0.25z"/>
  <path d="M4 20.50 c0 -0.25 1.05 -1.20 2.40 -2.05 1.30 -0.85 1.95 -1.40 1.50 -1.25 -0.50 0.15 -0.90 0.05 -0.90 -0.20 0 -0.55 0.75 -0.60 2.40 -0.20 1.60 0.45 1.35 0.95 -0.90 1.70 -1.30 0.40 -1.95 0.90 -1.80 1.30 0.15 0.40 0 0.55 -0.40 0.40 -0.40 -0.15 -0.85 -0.05 -1.05 0.25 -0.40 0.70 -1.25 0.70 -1.25 0.05z"/>
  <path d="M12.50 14.85 c0 -0.35 0.45 -0.90 1.05 -1.25 0.60 -0.35 0.90 -0.80 0.75 -0.95 -0.15 -0.15 -0.60 0 -1.05 0.35 -0.45 0.40 -0.75 0.40 -0.75 0.10 0 -0.70 0.80 -1.15 2.30 -1.35 0.65 -0.05 1.60 -0.45 2.10 -0.85 1.35 -1.20 2.10 -1.50 2.10 -0.95 0 0.30 -0.30 0.55 -0.65 0.55 -0.35 0 -1.65 1.15 -2.85 2.50 -2.25 2.55 -3 3 -3 1.85z"/>
  <path d="M12 11.50 c0 -0.25 0.20 -0.50 0.40 -0.50 0.25 0 0.70 -0.55 1 -1.25 0.30 -0.70 0.80 -1.25 1.10 -1.25 0.95 0 0.50 1.95 -0.60 2.70 -1.30 0.90 -1.90 1 -1.90 0.30z"/>
  <path d="M24.50 10.30 c0 -0.65 1.45 -3.15 2.20 -3.75 1.15 -0.95 1 -0.35 -0.50 1.80 -1.45 2.15 -1.70 2.45 -1.70 1.95z"/>
  <path d="M37 10.05 c0 -0.30 0.45 -0.75 1 -1.05 0.65 -0.35 1 -0.35 1 -0.05 0 0.30 -0.45 0.75 -1 1.05 -0.65 0.35 -1 0.35 -1 0.05z"/>
  <path d="M16.50 8.60 c0.65 -0.90 1.50 -1.60 1.85 -1.60 0.95 0 0.45 0.75 -1.45 2.05 l-1.55 1.15 1.15 -1.60z"/>
  <path d="M19.50 9.25 c0 -0.40 0.40 -0.75 0.90 -0.75 0.65 0 0.70 -0.10 0.20 -0.45 -0.45 -0.25 -0.15 -0.40 0.85 -0.35 1.90 0.05 1.75 0.80 -0.35 1.65 -1.40 0.55 -1.60 0.55 -1.60 -0.10z"/>
  <path d="M29 7.65 c0 -0.50 2 -1.80 2.30 -1.50 0.15 0.10 -0.35 0.60 -1.05 1.05 -0.70 0.45 -1.25 0.65 -1.25 0.45z"/>
  <path d="M12.15 4.70 c-0.20 -0.60 -0.70 -0.70 -1.70 -0.50 -1.50 0.30 -2.05 -0.50 -0.75 -1 0.85 -0.30 3.80 1.10 3.80 1.80 0 0.80 -1 0.55 -1.35 -0.30z"/>
  <path d="M22.50 4 c0 -0.40 2.55 -2 3.25 -2 0.80 0 0.05 1.10 -1.25 1.75 -1.70 0.90 -2 0.90 -2 0.25z"/>
 </g>
 <g fill="#6396a8">
  <path d="M12 38.90 c0 -1.75 2.55 -3.85 4.30 -3.50 0.65 0.10 1.20 0.30 1.20 0.45 0 0.45 -2.25 2.10 -2.85 2.15 -0.35 0 -0.65 0.50 -0.65 1.15 0 0.90 -0.10 0.95 -0.50 0.35 -0.45 -0.65 -0.55 -0.65 -1 0 -0.40 0.60 -0.50 0.45 -0.50 -0.60z"/>
  <path d="M15 39.55 c0 -0.60 1.45 -2.05 2.05 -2.05 0.70 0 0.55 0.40 -0.55 1.50 -1.10 1.10 -1.50 1.25 -1.50 0.55z"/>
  <path d="M20 36.15 c0.40 -0.15 1.05 -0.50 1.40 -0.80 0.40 -0.35 0.60 -0.25 0.60 0.35 0 0.55 -0.40 0.80 -1.35 0.75 -0.80 0 -1.10 -0.15 -0.65 -0.30z"/>
  <path d="M18.50 34.50 c0 -1.40 0.15 -1.50 1.75 -1.50 0.95 0 1.75 0.25 1.75 0.50 0 0.30 -0.35 0.50 -0.75 0.50 -0.40 0 -0.75 0.20 -0.75 0.50 0 0.25 -0.45 0.70 -1 1 -0.90 0.50 -1 0.40 -1 -1z"/>
  <path d="M10.35 32.65 c-0.50 -0.45 -0.40 -1.65 0.10 -1.65 0.25 0 0.55 0.45 0.70 1 0.25 1 -0.15 1.30 -0.80 0.65z"/>
  <path d="M23.60 31.65 c0.10 -0.50 0.55 -0.95 1 -1.05 0.60 -0.10 0.75 0.10 0.55 0.85 -0.35 1.25 -1.80 1.40 -1.55 0.20z"/>
  <path d="M26 30.90 c0 -0.75 0.25 -1.50 0.50 -1.65 0.65 -0.40 0.65 1.25 0 2.25 -0.40 0.60 -0.50 0.45 -0.50 -0.60z"/>
  <path d="M28.15 30.65 c-1.45 -0.55 -0.05 -3.10 1.75 -3.15 0.45 0 0.35 0.45 -0.40 1.50 -0.60 0.85 -0.85 1.50 -0.55 1.50 0.25 0 0.85 -0.50 1.25 -1.10 l0.80 -1.10 0 1.35 c0 1.10 -0.20 1.35 -1.10 1.30 -0.65 0 -1.45 -0.15 -1.75 -0.30z"/>
  <path d="M30 26.50 c0 -1.25 0.80 -2.20 1.25 -1.50 0.20 0.35 0 0.95 -0.45 1.40 -0.65 0.70 -0.80 0.70 -0.80 0.10z"/>
  <path d="M13.05 25.25 c-0.65 -0.70 -1.35 -1.25 -1.60 -1.25 -0.25 0 -0.45 -0.20 -0.45 -0.50 0 -0.25 0.80 -0.10 1.75 0.35 1.05 0.50 1.75 1.20 1.75 1.75 0 1.15 0 1.15 -1.45 -0.35z"/>
  <path d="M32 24.50 c-0.45 -0.80 -0.40 -1 0.25 -1 0.40 0 0.75 0.45 0.75 1 0 0.55 -0.10 1 -0.25 1 -0.10 0 -0.45 -0.45 -0.75 -1z"/>
  <path d="M20 14.50 c0 -0.30 0.70 -0.85 1.55 -1.20 1.95 -0.80 1.10 -1.50 -1.20 -1 l-1.60 0.35 1.35 -1.35 c1.30 -1.35 1.35 -1.35 2.30 -0.40 0.50 0.50 0.95 1.60 0.95 2.40 0 1.35 -0.20 1.50 -1.70 1.60 -0.90 0.10 -1.65 -0.10 -1.65 -0.40z"/>
  <path d="M19 9.55 c0 -0.30 0.10 -0.55 0.20 -0.55 0.10 0 1 -0.35 1.95 -0.75 1.50 -0.65 1.75 -0.65 1.55 -0.05 -0.15 0.40 -0.65 0.80 -1.10 0.95 -0.45 0.15 -1.25 0.40 -1.70 0.60 -0.55 0.20 -0.90 0.15 -0.90 -0.20z"/>
  <path d="M13.25 6.85 c-0.55 -1.15 -1.05 -2.25 -1.15 -2.45 -0.10 -0.25 0.05 -0.40 0.30 -0.40 0.65 0 2.60 3.15 2.60 4.20 0 1.40 -0.70 0.85 -1.75 -1.35z"/>
  <path d="M19.50 6.25 c0 -0.80 1.10 -1.50 1.95 -1.15 0.25 0.05 -0.10 0.55 -0.75 1.05 -1.05 0.80 -1.20 0.80 -1.20 0.10z"/>
 </g>
 <g fill="#959a8e">
  <path d="M15.60 39.15 c0.10 -0.50 1.30 -1.50 2.75 -2.20 1.45 -0.75 3.65 -1.90 4.90 -2.60 1.25 -0.70 2.25 -1.05 2.25 -0.80 0 0.25 0.25 0.45 0.50 0.45 0.30 0 0.50 -0.30 0.50 -0.60 0 -0.35 1.05 -1.65 2.40 -2.90 1.30 -1.25 2.75 -2.80 3.15 -3.45 0.85 -1.35 0.90 -1.05 -1.30 -5.55 -0.50 -1.10 -0.55 -1.50 -0.10 -1.50 0.35 0 0.90 -0.45 1.25 -1 0.35 -0.55 1.15 -1 1.85 -1 1.25 0 1.65 0.70 0.75 1.25 -1 0.60 0 1.15 1.75 1 1.85 -0.15 2.05 0.05 1.25 1.25 -0.35 0.60 -0.75 0.65 -1.95 0.15 -1.40 -0.50 -1.50 -0.50 -1.05 0.35 0.30 0.60 0.85 0.80 1.50 0.65 0.55 -0.15 1 0 1 0.30 0 0.25 -0.35 0.40 -0.75 0.25 -0.40 -0.20 -0.75 -0.05 -0.75 0.25 0 0.30 0.35 0.55 0.75 0.55 0.80 0 1.05 1.25 0.30 1.70 -0.25 0.15 -0.60 1.10 -0.75 2.05 -0.30 1.45 -0.55 1.75 -1.60 1.75 -0.85 0 -1.35 0.40 -1.70 1.20 -0.25 0.65 -1.25 1.85 -2.20 2.60 -0.95 0.75 -1.60 1.60 -1.45 1.80 0.10 0.25 0.55 0.20 0.95 -0.15 0.40 -0.30 0.70 -0.40 0.70 -0.20 0 0.20 -0.40 0.70 -0.85 1.05 -0.85 0.65 -0.85 0.65 0.10 0.70 0.95 0.05 0.95 0.10 -0.20 1 -1.45 1.25 -3.50 1.40 -2.55 0.25 0.40 -0.50 0.45 -0.75 0.10 -0.75 -0.95 0 -3.10 1.15 -3.10 1.65 0 0.25 -0.65 0.35 -1.50 0.20 -1.05 -0.25 -1.50 -0.15 -1.50 0.35 0 0.40 -0.70 0.65 -2 0.70 -2.20 0.10 -2.65 -0.65 -0.85 -1.40 0.85 -0.35 0.90 -0.45 0.25 -0.45 -0.50 -0.05 -1.35 0.40 -1.95 1 -0.95 0.95 -1.05 0.95 -0.85 0.10z"/>
  <path d="M21.20 33.25 c1.20 -0.90 1.95 -1 1.70 -0.10 -0.15 0.30 -0.75 0.65 -1.45 0.75 -1.15 0.10 -1.15 0.10 -0.25 -0.65z"/>
  <path d="M31.50 33.30 c0 -0.50 3.05 -3.40 3.35 -3.15 0.55 0.60 -1.15 3.10 -2.25 3.25 -0.60 0.10 -1.10 0.05 -1.10 -0.10z"/>
  <path d="M29.95 26.75 c0.40 -1.20 0.90 -1.95 1.10 -1.65 0.20 0.25 0 1.15 -0.40 1.95 -1.15 2.30 -1.60 2.15 -0.70 -0.30z"/>
  <path d="M6 18.75 c0 -0.10 0.60 -0.60 1.40 -1 0.75 -0.45 0.90 -0.65 0.35 -0.50 -2.35 0.80 -2.75 0.85 -2.75 0.20 0 -0.50 -0.15 -0.50 -0.60 -0.05 -0.80 0.80 -2.05 0.75 -1.75 0 0.10 -0.35 0.85 -0.65 1.65 -0.70 0.80 -0.05 2.55 -0.55 3.90 -1.15 1.35 -0.65 3.05 -1.25 3.75 -1.35 1.35 -0.25 3.25 -1.70 2.20 -1.70 -0.35 0 -0.75 0.25 -0.90 0.50 -0.15 0.30 -0.60 0.50 -0.90 0.50 -0.35 -0.05 -0.05 -0.50 0.60 -1.05 0.85 -0.70 1.30 -0.80 1.55 -0.40 0.30 0.40 0.45 0.40 0.70 0 0.20 -0.30 0.60 -0.55 0.90 -0.55 0.30 0 0 0.50 -0.70 1.15 -0.65 0.60 -1.35 1.50 -1.55 2 -0.15 0.45 -0.75 0.85 -1.30 0.85 -0.55 0 -1.60 0.30 -2.35 0.60 l-1.35 0.65 1.20 0.30 c1.15 0.30 1.15 0.35 0.20 0.65 -0.55 0.20 -1.40 0.60 -1.85 0.85 -0.95 0.45 -2.40 0.60 -2.40 0.20z"/>
  <path d="M24 17.25 c-0.70 -0.40 -1.75 -0.70 -2.35 -0.75 -1.60 0 -1.65 -2.75 -0.10 -3.15 1.20 -0.35 3 1 2.60 1.95 -0.15 0.40 -0.05 0.70 0.25 0.70 0.25 0 0.60 -0.35 0.80 -0.75 0.50 -1.35 1.10 -0.80 1.10 1 0 1.90 -0.40 2.10 -2.30 1z"/>
  <path d="M7.50 13.60 c0 -0.50 1.10 -1.60 1.60 -1.60 0.20 0 0.40 0.45 0.40 1 0 0.65 -0.35 1 -1 1 -0.55 0 -1 -0.20 -1 -0.40z"/>
  <path d="M10.85 12 c0.15 -0.55 0.70 -1 1.20 -1 0.60 0 1.15 -0.50 1.45 -1.25 0.60 -1.55 1.65 -1.65 1.40 -0.15 -0.10 0.70 -0.90 1.55 -2.25 2.30 -2 1.10 -2.05 1.10 -1.80 0.10z"/>
  <path d="M22.75 12.55 c-0.30 -0.25 -0.95 -0.55 -1.50 -0.70 -0.55 -0.15 -0.20 -0.25 0.90 -0.30 1.35 -0.05 1.85 0.15 1.85 0.70 0 0.85 -0.55 1 -1.25 0.30z"/>
 </g>
 <g fill="#8798a5">
  <path d="M20 36.10 c0.95 -0.45 1.85 -0.80 2 -0.80 0.15 -0.05 0.50 -0.20 0.75 -0.40 0.30 -0.20 0.60 0.15 0.65 0.85 0.10 1.10 -0.10 1.20 -2.55 1.15 l-2.60 -0.05 1.75 -0.75z"/>
  <path d="M15.15 35.25 c1.80 -1.60 2.35 -1.55 2.35 0 0 1.10 -0.20 1.25 -1.85 1.25 l-1.90 -0.05 1.40 -1.20z"/>
  <path d="M18 34.75 c0 -1.30 1.25 -2.20 5.10 -3.55 1.90 -0.65 1.95 -0.65 1.80 0.45 -0.10 0.60 -0.50 1.10 -0.90 1.10 -0.40 0 -0.95 0.30 -1.15 0.65 -0.20 0.30 -0.80 0.60 -1.25 0.60 -0.50 0 -1.25 0.45 -1.75 1 -1.15 1.35 -1.85 1.25 -1.85 -0.25z"/>
  <path d="M24 34.25 c0 -0.15 0.85 -0.80 1.90 -1.45 1 -0.70 2.45 -1.75 3.25 -2.30 l1.35 -1.10 0 1.60 c0 1.35 -0.15 1.55 -1.10 1.40 -0.85 -0.10 -1.20 0.15 -1.30 1 -0.15 0.90 -0.50 1.10 -2.15 1.10 -1.05 0 -1.95 -0.10 -1.95 -0.25z"/>
  <path d="M26.05 30.90 c-0.05 -1.05 0.30 -1.55 1.45 -2.15 1.45 -0.75 1.50 -0.75 1.50 0.25 0 0.60 -0.45 1.20 -1.20 1.50 -0.65 0.25 -1.30 0.75 -1.45 1.10 -0.15 0.35 -0.30 0.05 -0.30 -0.70z"/>
  <path d="M30.10 25.95 c0.35 -1.05 0.65 -1.35 0.90 -0.90 0.25 0.35 0.15 1 -0.15 1.55 -0.90 1.40 -1.35 1.05 -0.75 -0.65z"/>
  <path d="M13.30 25.25 c-0.45 -0.70 -0.60 -1.25 -0.35 -1.25 0.60 0 2.05 1.45 2.05 2.05 0 0.85 -0.90 0.45 -1.70 -0.80z"/>
  <path d="M9.35 25.65 c-0.20 -0.15 -0.35 -0.80 -0.35 -1.35 0.05 -1.05 0.05 -1.05 0.75 -0.10 0.40 0.55 0.75 1.15 0.75 1.40 0 0.50 -0.70 0.55 -1.15 0.05z"/>
  <path d="M9.50 21.30 c0 -0.15 0.65 -0.90 1.45 -1.70 1.05 -1.05 1.55 -1.25 1.75 -0.80 0.15 0.35 -0.35 1.10 -1.05 1.70 -1.20 0.95 -2.15 1.30 -2.15 0.80z"/>
  <path d="M14.55 20.05 c1.30 -1.75 1.45 -1.85 1.45 -0.85 0 0.35 -0.60 1.05 -1.30 1.55 l-1.30 0.85 1.15 -1.55z"/>
  <path d="M26.50 19.25 c-0.70 -0.40 -1.05 -0.70 -0.80 -0.75 0.30 0 0.05 -0.35 -0.50 -0.75 -0.90 -0.65 -0.85 -0.70 0.95 -0.75 1.30 0 1.85 0.20 1.85 0.75 0 0.40 -0.40 0.75 -0.85 0.75 -0.75 0 -0.70 0.10 0.15 0.75 1.20 0.90 0.80 0.95 -0.80 0z"/>
  <path d="M33.50 18.15 c0 -0.50 0.20 -1.20 0.45 -1.55 0.55 -0.90 1.70 0.50 1.25 1.60 -0.40 1.05 -1.70 1.05 -1.70 -0.05z"/>
  <path d="M9 17.50 c0 -0.25 0.45 -0.50 1.05 -0.50 0.55 0 0.85 0.25 0.70 0.50 -0.15 0.30 -0.65 0.50 -1.05 0.50 -0.40 0 -0.70 -0.20 -0.70 -0.50z"/>
  <path d="M19.40 16.35 c-2.25 -0.60 -2.55 -1.60 -0.40 -1.20 1.15 0.25 1.40 0.15 1.20 -0.40 -0.40 -0.95 0.90 -1.45 2.55 -1.05 1 0.25 1.25 0.65 1.25 1.80 0 1.30 -0.15 1.50 -1.35 1.45 -0.80 -0.05 -2.25 -0.30 -3.25 -0.60z m3.70 -1.10 c0 -0.25 -0.25 -0.55 -0.50 -0.65 -0.25 -0.05 -0.45 0.20 -0.45 0.65 0 0.45 0.20 0.70 0.45 0.65 0.25 -0.10 0.50 -0.40 0.50 -0.65z"/>
  <path d="M9 15.90 c0 -0.20 0.45 -0.40 1 -0.40 0.55 0 1 -0.35 1 -0.75 0 -0.40 0.30 -0.60 0.65 -0.45 0.40 0.15 1.25 -0.20 1.90 -0.75 0.65 -0.55 0.95 -1 0.60 -1.05 -0.30 0 -0.75 0.25 -0.90 0.50 -0.15 0.30 -0.55 0.50 -0.85 0.50 -0.35 0 -0.35 -0.20 0.05 -0.65 0.30 -0.40 0.40 -0.85 0.20 -1.05 -0.20 -0.20 0.20 -0.15 0.90 0.15 0.95 0.35 1.50 0.30 1.90 -0.10 0.95 -0.95 0.60 -0.10 -0.70 1.65 -0.90 1.20 -1.90 1.85 -3.50 2.30 -1.25 0.30 -2.25 0.35 -2.25 0.10z"/>
  <path d="M34.50 14.55 c0 -0.50 1.95 -2.05 2.60 -2.05 0.95 0 0.30 1.05 -1.10 1.75 -0.80 0.45 -1.50 0.55 -1.50 0.30z"/>
  <path d="M8.50 12.70 c0 -0.60 1.70 -1.65 2.65 -1.70 1.05 0 1.15 1.30 0.05 1.70 -1.05 0.40 -2.70 0.40 -2.70 0z"/>
  <path d="M23.50 3.45 c0 -0.50 2 -1.60 2.35 -1.25 0.15 0.10 0.10 0.45 -0.05 0.70 -0.40 0.65 -2.30 1.10 -2.30 0.55z"/>
 </g>
 <g fill="#a0a4a3">
  <path d="M15 39.60 c0 -1.30 7.05 -4.90 8.25 -4.25 0.25 0.20 0.35 0.15 0.15 -0.10 -0.40 -0.40 1.30 -1.90 2.60 -2.35 0.40 -0.15 1 0.05 1.25 0.40 0.40 0.55 0.75 0.50 1.75 -0.30 l1.25 -1 -1.40 0 -1.45 0 2.25 -2.10 c2.60 -2.50 2.95 -3.25 3.10 -6.90 0.05 -1.50 0 -2.45 -0.10 -2.10 -0.40 1 -1.35 0.70 -2.95 -0.95 -1.10 -1.15 -1.80 -1.45 -2.80 -1.35 -0.75 0.15 -1.25 0.05 -1.15 -0.15 0.30 -0.40 -2.15 -1.45 -3.80 -1.70 -2.15 -0.25 -3.95 -0.85 -3.95 -1.30 0 -0.60 0.35 -0.55 1.60 0.10 0.90 0.50 1 0.45 0.80 -0.45 -0.25 -0.80 0.05 -1.15 1.15 -1.55 0.90 -0.30 1.45 -0.30 1.45 0 0 0.25 0.35 0.45 0.80 0.45 0.55 0 0.65 0.30 0.45 0.95 -0.15 0.55 -0.05 1.10 0.20 1.25 0.30 0.20 0.65 -0.45 0.85 -1.45 0.45 -2.55 1.40 -2.20 1.05 0.40 l-0.30 2.10 0.85 -1.95 c0.75 -1.70 0.95 -1.80 1.55 -1.15 0.40 0.50 0.50 1.35 0.30 2.35 -0.45 2.05 0.05 1.90 1 -0.30 l0.75 -1.85 1.25 1.35 c1.30 1.40 2.05 1.65 2.35 0.70 0.15 -0.40 0.45 -0.20 0.85 0.45 0.50 0.95 0.40 1.30 -0.40 2.10 -1.10 1.10 -0.65 1.45 1.85 1.35 1.25 -0.05 1.55 0.10 1.30 0.70 -0.15 0.40 -0.45 1.15 -0.55 1.60 -0.20 0.65 -0.45 0.75 -1.15 0.40 -0.75 -0.40 -0.85 -0.30 -0.65 0.45 0.15 0.65 0.50 0.90 1.05 0.70 0.60 -0.25 0.70 -0.05 0.50 0.75 -0.20 0.60 -0.10 1.10 0.15 1.10 0.25 0 0.45 0.45 0.45 1 0 0.55 0.25 1 0.55 1 0.40 0 0.35 0.25 -0.05 0.75 -0.35 0.45 -0.75 0.65 -0.90 0.50 -0.40 -0.35 -2.60 1.80 -2.60 2.55 0 0.75 -3.45 3.70 -4.35 3.70 -0.30 0 -0.75 0.25 -0.95 0.55 -0.35 0.60 0.95 0.50 3.05 -0.30 0.55 -0.15 -0.10 0.35 -1.50 1.15 -1.35 0.85 -3.15 1.70 -4 1.85 l-1.50 0.35 1.70 -1.30 c0.95 -0.70 1.60 -1.30 1.40 -1.30 -0.95 0 -3.90 1.55 -4.95 2.60 -1 1 -1.15 1.05 -1.30 0.25 -0.20 -1.05 -1.10 -1.15 -1.10 -0.10 0 0.40 -0.20 0.75 -0.50 0.75 -0.60 0 -0.60 0.10 -0.05 -1.80 l0.45 -1.60 -1.35 0.70 c-0.70 0.40 -1.60 0.70 -1.90 0.70 -0.35 0 -0.90 0.45 -1.25 1 -0.65 1 -1.40 1.35 -1.40 0.60z m9.15 -2.90 c-0.15 -0.45 -0.45 -0.60 -0.60 -0.35 -0.15 0.20 -0.50 0.55 -0.75 0.80 -0.25 0.20 0 0.35 0.60 0.35 0.75 0 1 -0.20 0.75 -0.80z m6.40 -2.40 c0.65 -0.65 1.95 -2 2.80 -2.95 1.50 -1.60 1.55 -1.75 0.65 -2 -0.80 -0.20 -1.20 0.10 -1.70 1.40 -0.40 0.90 -1.40 2.15 -2.25 2.80 -1.50 1.10 -2 1.95 -1.10 1.95 0.20 0 0.95 -0.55 1.60 -1.20z m3.70 -9.10 c-0.30 -1.50 -0.35 -1.50 -0.70 -0.20 -0.20 0.70 -0.25 1.70 -0.15 2.20 0.25 0.95 0.30 0.95 0.65 -0.05 0.20 -0.60 0.30 -1.45 0.20 -1.95z m-11.15 -9.95 c0 -0.25 -0.25 -0.55 -0.55 -0.65 -0.30 -0.10 -0.55 0.20 -0.55 0.65 0 0.45 0.25 0.75 0.55 0.65 0.30 -0.10 0.55 -0.40 0.55 -0.65z"/>
  <path d="M18.30 39.25 c-0.15 -0.45 0 -0.75 0.45 -0.75 0.40 0 0.75 0.35 0.75 0.75 0 0.40 -0.20 0.75 -0.45 0.75 -0.25 0 -0.55 -0.35 -0.75 -0.75z"/>
  <path d="M16 36.25 c0 -0.35 0.80 -0.95 1.75 -1.30 1 -0.35 1.75 -1 1.75 -1.45 0 -0.90 3.65 -2.60 4.75 -2.20 1.15 0.45 0.60 1.50 -0.70 1.30 -0.70 -0.10 -1 0.05 -0.95 0.50 0.10 0.35 -0.30 0.65 -0.95 0.65 -0.60 0 -1.50 0.50 -2 1.05 -1.30 1.45 -3.65 2.40 -3.65 1.45z"/>
  <path d="M34.50 34.20 c0 -0.55 0.45 -1.25 1 -1.60 0.80 -0.50 1 -0.50 1 0.05 0 0.40 -0.45 1.10 -1 1.60 -0.95 0.90 -1 0.85 -1 -0.05z"/>
  <path d="M26.10 30.20 c0.10 -0.40 0.40 -0.80 0.65 -0.85 0.80 -0.15 2.30 -1.50 3.35 -3.10 l1 -1.50 -0.35 1.45 c-0.40 1.90 -2.30 4.40 -3.10 4.10 -0.35 -0.15 -0.65 -0.05 -0.65 0.20 0 0.30 -0.25 0.50 -0.55 0.50 -0.30 0 -0.45 -0.35 -0.35 -0.80z"/>
  <path d="M27.30 19.75 c-0.55 -0.40 -0.75 -0.75 -0.50 -0.75 0.30 0 0.95 0.35 1.50 0.75 0.50 0.40 0.75 0.70 0.45 0.70 -0.25 0 -0.95 -0.30 -1.45 -0.70z"/>
  <path d="M3.10 17.40 c0.15 -0.35 0.65 -0.75 1.20 -0.85 0.80 -0.15 0.85 -0.05 0.25 0.65 -0.80 0.95 -1.70 1.05 -1.45 0.20z"/>
  <path d="M5 17.80 c0 -0.10 0.35 -0.45 0.75 -0.80 0.60 -0.50 0.75 -0.50 0.75 0.20 0 0.45 -0.35 0.80 -0.75 0.80 -0.40 0 -0.75 -0.10 -0.75 -0.20z"/>
  <path d="M8.75 17.50 c0.15 -0.25 0.65 -0.50 1.05 -0.50 0.40 0 0.70 0.25 0.70 0.50 0 0.30 -0.45 0.50 -1.05 0.50 -0.55 0 -0.85 -0.20 -0.70 -0.50z"/>
  <path d="M7.80 13.25 c0.30 -0.70 1.75 -1.75 2.40 -1.75 0.70 0 0.25 1.90 -0.50 2.20 -1.40 0.55 -2.20 0.35 -1.90 -0.45z"/>
  <path d="M18.50 12.60 c0 -0.20 0.70 -0.75 1.55 -1.25 1.20 -0.65 1.75 -0.75 2.25 -0.30 0.40 0.35 0.85 0.45 1.05 0.30 0.35 -0.40 1.65 0.55 1.65 1.20 0 0.65 -1.35 0.55 -2.45 -0.10 -0.65 -0.45 -1.30 -0.45 -2.50 -0.05 -0.85 0.30 -1.55 0.40 -1.55 0.20z"/>
  <path d="M13.65 9.25 c0.55 -1.90 1.35 -2.35 1.35 -0.80 0 1.45 -0.55 2.55 -1.25 2.55 -0.50 0 -0.55 -0.35 -0.10 -1.75z"/>
  <path d="M16.50 8.70 c0.95 -1.35 5.40 -5.20 6.05 -5.20 0.90 0 0.40 0.90 -1.15 2.10 -5.50 4.10 -5.60 4.15 -4.90 3.10z"/>
  <path d="M26.80 6.30 c0.75 -1.20 4.15 -3.55 4.50 -3.15 0.25 0.20 -4.55 4.35 -5.05 4.35 -0.15 0 0.10 -0.55 0.55 -1.20z"/>
  <path d="M23.50 3.50 c0 -0.45 1.55 -1.50 2.20 -1.50 0.80 0 0.15 0.90 -0.95 1.40 -0.70 0.35 -1.25 0.40 -1.25 0.10z"/>
 </g>
 <g fill="#8fa6bc">
  <path d="M13.50 27.70 c0.65 -1.70 0.70 -1.55 -1.10 -3.25 l-1.65 -1.55 1.70 0.95 c2.40 1.30 2.90 2.30 2.05 3.85 -0.85 1.70 -1.60 1.70 -1 0z"/>
  <path d="M9.35 25.65 c-0.20 -0.15 -0.35 -0.75 -0.35 -1.35 0 -1 0 -1 0.75 0 0.40 0.50 0.75 1.10 0.75 1.35 0 0.45 -0.70 0.45 -1.15 0z"/>
  <path d="M7 22.50 c0 -0.25 0.90 -0.95 2 -1.50 1.10 -0.55 2.30 -1.45 2.60 -2 0.75 -1.15 1.40 -1.30 1.40 -0.30 0 0.40 -1.15 1.50 -2.50 2.50 -2.55 1.85 -3.50 2.20 -3.50 1.30z"/>
  <path d="M14.50 20.10 c1.30 -1.75 1.50 -1.90 1.50 -0.95 0 0.30 -0.60 1.05 -1.35 1.55 l-1.30 0.95 1.15 -1.55z"/>
  <path d="M34.70 21.10 c0.40 -0.70 3.35 -1.05 3.15 -0.40 -0.10 0.30 -0.90 0.60 -1.80 0.70 -0.95 0.10 -1.55 -0.05 -1.35 -0.30z"/>
  <path d="M29.60 19.85 c-1.30 -1.35 -1.40 -1.85 -0.35 -1.85 0.80 0 1.90 1.75 1.65 2.55 -0.10 0.30 -0.65 0 -1.30 -0.70z"/>
  <path d="M25.25 17.75 l-1.50 -0.70 1.95 0.10 c1.10 0.05 2.05 0.40 2.20 0.75 0.25 0.80 -0.75 0.75 -2.65 -0.15z"/>
  <path d="M9 15.80 c0 -0.90 2.20 -1.80 3.05 -1.30 0.80 0.55 0.65 0.70 -1.40 1.40 -1.30 0.45 -1.65 0.40 -1.65 -0.10z"/>
  <path d="M18.60 16 c-2.15 -0.50 -2.80 -1.20 -0.85 -0.90 0.85 0.15 1.85 0.35 2.25 0.45 0.50 0.15 0.70 -0.10 0.60 -0.65 -0.10 -0.50 0.10 -0.90 0.40 -0.90 0.25 0 0.50 0.55 0.50 1.25 0 1.30 -0.25 1.40 -2.90 0.75z"/>
  <path d="M13 14.70 c0 -0.35 0.35 -0.70 0.75 -0.90 0.40 -0.15 0.75 -0.50 0.75 -0.85 0 -0.30 -0.35 -0.45 -0.75 -0.25 -0.40 0.15 -0.75 0.05 -0.75 -0.25 0 -0.30 0.40 -0.45 0.90 -0.35 0.50 0.05 1.50 -0.25 2.25 -0.75 0.75 -0.50 1.35 -0.65 1.35 -0.35 0 0.25 -0.20 0.50 -0.45 0.50 -0.30 0 -1.30 0.85 -2.25 1.90 -1 1 -1.80 1.60 -1.80 1.30z"/>
  <path d="M34.50 14.55 c0 -0.40 2.15 -2.05 2.75 -2.05 0.80 0 0.05 1.10 -1.25 1.75 -0.80 0.45 -1.50 0.55 -1.50 0.30z"/>
  <path d="M32.75 13 c0.50 -0.55 1.15 -1 1.40 -1 0.30 0 0.10 0.45 -0.40 1 -0.50 0.55 -1.15 1 -1.40 1 -0.30 0 -0.10 -0.45 0.40 -1z"/>
  <path d="M27.70 8.90 c0.80 -1.25 3.25 -3.20 3.50 -2.80 0.05 0.10 -0.90 1.05 -2.15 2.15 -1.75 1.60 -2.05 1.75 -1.35 0.65z"/>
  <path d="M12.80 5.75 c-0.55 -0.80 -0.60 -1.25 -0.25 -1.25 0.60 0 1.90 1.45 1.95 2.15 0 0.80 -0.90 0.30 -1.70 -0.90z"/>
  <path d="M29 4.70 c0 -0.40 1.60 -1.65 2.15 -1.70 0.25 0 0.25 0.20 0.10 0.50 -0.40 0.65 -2.25 1.65 -2.25 1.20z"/>
  <path d="M9.30 4.15 c-0.15 -0.15 -0.15 -0.50 0 -0.70 0.35 -0.60 1.70 -0.55 1.70 0 0 0.55 -1.30 1.10 -1.70 0.70z"/>
 </g>
 <g fill="#afafaa">
  <path d="M15.50 39.50 c0 -1.10 1 -2 2.25 -1.95 0.95 0 0.95 0.05 -0.10 0.45 -0.60 0.25 -1.30 0.85 -1.60 1.35 -0.40 0.70 -0.50 0.75 -0.55 0.15z"/>
  <path d="M17 39.55 c0 -0.45 1.20 -1.05 2.05 -1.05 0.25 0 0.45 0.35 0.45 0.75 0 0.45 -0.45 0.75 -1.25 0.75 -0.70 0 -1.25 -0.20 -1.25 -0.45z"/>
  <path d="M22 39 c0 -0.25 -0.35 -0.50 -0.75 -0.50 -0.40 0 -0.75 -0.35 -0.75 -0.80 0 -0.40 -0.20 -0.60 -0.50 -0.45 -0.25 0.15 -0.50 0.05 -0.50 -0.25 0 -0.35 0.35 -0.50 0.75 -0.30 0.40 0.15 0.90 -0.05 1.15 -0.50 0.20 -0.40 0.95 -0.80 1.60 -0.95 0.70 -0.15 1.30 -0.45 1.40 -0.75 0.10 -0.25 0.75 -0.50 1.40 -0.50 0.70 0 1.20 -0.30 1.20 -0.70 0 -0.40 0.35 -0.85 0.80 -1 0.50 -0.20 0.65 -0.10 0.40 0.35 -0.25 0.45 -0.20 0.45 0.35 0 0.35 -0.35 1.20 -0.65 1.95 -0.65 l1.25 0.05 -1.65 1.40 c-1 0.85 -1.50 1.70 -1.35 2.15 0.20 0.50 -0.30 0.90 -1.85 1.35 -1.20 0.35 -2.55 1.10 -3.05 1.60 -0.95 1.05 -1.85 1.25 -1.85 0.45z m2.90 -1.80 c0.70 -0.20 1.10 -0.70 1.10 -1.35 0 -1 -0.05 -1 -0.65 -0.10 -0.40 0.50 -0.90 0.80 -1.15 0.65 -0.25 -0.15 -0.75 0 -1.10 0.40 -0.75 0.80 -0.20 0.90 1.80 0.40z"/>
  <path d="M26.40 38.45 c0.60 -0.35 1.10 -0.80 1.10 -1.05 0 -0.20 0.40 -0.40 0.90 -0.40 0.50 0 2 -0.55 3.25 -1.20 1.30 -0.65 2.35 -1.05 2.35 -0.85 0 0.40 -6 3.45 -7.50 3.80 -1.25 0.25 -1.25 0.25 -0.10 -0.30z"/>
  <path d="M31.50 34 c0 -0.30 0.60 -1.15 1.35 -1.90 1.70 -1.70 2.30 -0.60 0.60 1.20 -1.20 1.25 -1.95 1.55 -1.95 0.70z"/>
  <path d="M34 33.75 c0 -0.10 0.45 -0.45 1 -0.75 0.80 -0.45 1 -0.40 1 0.25 0 0.40 -0.45 0.75 -1 0.75 -0.55 0 -1 -0.10 -1 -0.25z"/>
  <path d="M34.75 30 c0.25 -0.45 -0.75 -0.75 -1.85 -0.55 -0.55 0.10 -0.50 -1.55 0.10 -2.45 0.40 -0.60 0.50 -0.60 0.50 0.25 0.05 0.85 0.15 0.85 0.60 -0.25 0.45 -1.05 0.60 -1.10 0.75 -0.35 0.30 1.05 1 1.10 1.25 0.05 0.10 -0.65 0.35 -0.55 1.25 0.45 l1.10 1.30 -2 1.05 c-1.10 0.55 -1.90 0.80 -1.70 0.50z"/>
  <path d="M32.75 23.75 c-1.25 -0.55 -1.35 -0.70 -0.60 -1 0.45 -0.20 0.80 -0.85 0.80 -1.45 -0.05 -0.80 -0.10 -0.85 -0.30 -0.15 -0.10 0.45 -0.45 0.85 -0.75 0.85 -0.50 0 -0.40 -1.15 0.40 -3.85 0.20 -0.70 0.10 -1.15 -0.20 -1.15 -0.75 0 -1.75 1.90 -1.35 2.50 0.45 0.75 -1.05 0.60 -1.70 -0.20 -0.50 -0.60 -0.15 -1.85 1.35 -4.25 0.05 -0.15 0.65 0.30 1.35 0.95 0.75 0.70 1.50 1 2.05 0.80 0.50 -0.20 1.05 -0.05 1.25 0.30 0.50 0.75 -0.45 2.55 -1.10 2.10 -0.70 -0.40 0.05 2.40 0.90 3.20 0.80 0.85 0.85 2.10 0.05 2.05 -0.35 0 -1.30 -0.35 -2.15 -0.70z"/>
  <path d="M7 22.50 c0 -0.25 0.90 -0.95 1.95 -1.50 1.10 -0.55 2.35 -1.50 2.75 -2.10 0.45 -0.60 0.90 -0.95 1.05 -0.80 0.55 0.55 -0.35 1.75 -2.25 2.95 -1.10 0.65 -2 1.35 -2 1.60 0 0.55 -1.50 0.45 -1.50 -0.15z"/>
  <path d="M35.25 22 c-0.95 -1.05 -0.90 -1.10 1.65 -1.65 1.30 -0.30 1.30 -0.30 0.50 1.40 -0.70 1.50 -0.95 1.55 -2.15 0.25z"/>
  <path d="M5.90 20.15 c-1.25 -0.30 -1.10 -0.75 0.50 -1.85 0.75 -0.45 0.95 -0.75 0.50 -0.60 -0.50 0.15 -0.90 0.05 -0.90 -0.20 0 -0.25 0.80 -0.40 1.75 -0.35 2.15 0.10 2.20 0.55 0.25 1.45 -0.85 0.35 -1.40 0.90 -1.25 1.25 0.10 0.35 0.15 0.60 0.10 0.60 -0.05 -0.05 -0.50 -0.15 -0.95 -0.30z"/>
  <path d="M24.65 17.60 c-1.20 -0.45 -2.15 -1 -2.15 -1.25 0 -0.45 1.90 -0.25 3.60 0.40 0.60 0.25 0.90 -0.05 1.15 -1.25 0.50 -2.25 1.50 -1.10 1.05 1.20 -0.40 2 -0.65 2.05 -3.65 0.90z"/>
  <path d="M20.70 14.90 c0.05 -0.70 0.45 -1.20 1 -1.30 0.70 -0.15 0.85 0 0.60 0.65 -0.15 0.45 -0.30 1.05 -0.30 1.30 0 0.25 -0.30 0.45 -0.70 0.45 -0.35 0 -0.65 -0.50 -0.60 -1.10z"/>
  <path d="M7.75 13.40 c0.15 -0.35 0.75 -0.95 1.30 -1.30 0.95 -0.60 1 -0.55 0.85 0.50 -0.10 0.75 -0.55 1.20 -1.25 1.30 -0.80 0.10 -1.05 -0.05 -0.90 -0.50z"/>
  <path d="M12.65 12.60 c0.05 -0.65 0.35 -0.90 0.95 -0.70 0.55 0.10 0.85 0.25 0.80 0.30 -0.10 0.05 -0.55 0.35 -1 0.75 -0.75 0.55 -0.85 0.50 -0.75 -0.35z"/>
  <path d="M22.90 12.30 c-0.80 -0.25 -1.40 -0.75 -1.40 -1.10 0 -0.45 0.45 -0.40 1.65 0.15 2 1 2 1 1.50 1.25 -0.20 0.15 -1 0 -1.75 -0.30z"/>
  <path d="M35 11.25 c0 -0.60 2.35 -2.25 3.25 -2.25 0.75 0 0.05 0.85 -1.50 1.90 -1.35 0.85 -1.75 0.95 -1.75 0.35z"/>
 </g>
 <g fill="#e5be65">
  <path d="M8.50 16.05 c0 -0.65 2.55 -2 3.35 -1.70 0.35 0.10 1.10 -0.05 1.75 -0.40 1.15 -0.60 1.15 -0.60 0.25 0.40 -0.50 0.60 -1.50 1.15 -2.25 1.30 -0.75 0.10 -1.75 0.40 -2.20 0.60 -0.55 0.20 -0.90 0.15 -0.90 -0.20z"/>
  <path d="M8.50 13.50 c0 -0.25 0.20 -0.50 0.50 -0.50 0.25 0 0.90 -0.50 1.45 -1.10 0.95 -0.95 1.15 -1 2.30 -0.40 0.95 0.50 1.10 0.80 0.70 1.35 -0.30 0.35 -0.80 0.65 -1.05 0.65 -0.30 0 -0.25 -0.35 0.10 -0.75 0.85 -1.05 0.05 -0.95 -1.75 0.25 -1.70 1.10 -2.25 1.25 -2.25 0.50z"/>
 </g>
 <g fill="#a6b9c2">
  <path d="M11 39.40 c0 -1.20 4.45 -4.60 8.80 -6.70 2.55 -1.20 4.75 -2.20 4.90 -2.20 0.20 0 0.30 0.50 0.20 1.15 -0.10 0.85 -0.45 1.05 -1.45 0.95 -0.95 -0.10 -1.80 0.30 -2.90 1.40 -2.15 2.20 -6.10 4.15 -6.70 3.35 -0.25 -0.35 -0.30 -0.15 -0.10 0.55 0.25 0.80 0.10 1.10 -0.45 1.10 -0.45 0 -0.80 0.25 -0.80 0.50 0 0.30 -0.35 0.50 -0.75 0.50 -0.40 0 -0.75 -0.25 -0.75 -0.60z"/>
  <path d="M15.85 38.45 c0.90 -0.90 4.65 -2.45 4.65 -1.90 0 0.25 -0.60 0.70 -1.35 0.95 -0.80 0.30 -1.80 0.75 -2.25 1 -1.20 0.65 -1.75 0.65 -1.05 -0.05z"/>
  <path d="M28 37.80 c0 -0.35 0.80 -0.85 1.75 -1.15 0.95 -0.30 1.75 -0.50 1.75 -0.40 0 0.10 -0.80 0.60 -1.75 1.20 -1.25 0.70 -1.75 0.85 -1.75 0.35z"/>
  <path d="M27.10 32.05 c2.40 -1.85 3.20 -2.20 3.35 -1.60 0.10 0.40 -0.10 0.85 -0.40 0.95 -0.30 0.10 -0.55 0.60 -0.55 1.15 0 0.75 -0.35 0.95 -1.75 0.95 -0.95 0 -1.75 0.25 -1.75 0.50 0 0.30 -0.45 0.50 -1.05 0.50 -0.70 0 -0.15 -0.65 2.15 -2.45z"/>
  <path d="M26 30.65 c0 -0.65 0.20 -1.15 0.50 -1.15 0.85 0 3.05 -2.20 3.75 -3.75 0.60 -1.30 0.65 -1.35 0.70 -0.40 0.05 0.60 -0.35 1.45 -0.80 1.95 -0.50 0.50 -0.85 1 -0.80 1.15 0.15 0.55 -0.60 1.45 -1.35 1.65 -0.40 0.10 -1 0.50 -1.35 0.90 -0.55 0.65 -0.60 0.60 -0.65 -0.35z"/>
  <path d="M12 29.35 c0.95 -0.85 1.85 -1.40 1.95 -1.15 0.25 0.55 -2.25 2.80 -3.10 2.80 -0.35 0 0.20 -0.75 1.15 -1.65z"/>
  <path d="M36 21.50 c0 -0.25 0.50 -0.70 1.10 -1.05 0.90 -0.50 1 -0.45 0.75 0.30 -0.20 0.45 -0.35 0.95 -0.35 1.05 0 0.10 -0.35 0.20 -0.75 0.20 -0.40 0 -0.75 -0.20 -0.75 -0.50z"/>
  <path d="M8.75 17.50 c0.15 -0.25 0.65 -0.50 1.05 -0.50 0.40 0 0.60 0.25 0.45 0.50 -0.15 0.30 -0.65 0.50 -1.05 0.50 -0.40 0 -0.60 -0.20 -0.45 -0.50z"/>
  <path d="M22.10 16.75 c-1.20 -0.30 -1.95 -0.70 -1.75 -0.95 0.20 -0.20 0.40 -0.75 0.40 -1.20 0 -0.45 0.35 -0.90 0.80 -1 0.65 -0.10 0.75 0.15 0.60 1.15 -0.20 1 -0.05 1.25 0.75 1.25 0.90 0 2 0.85 1.55 1.20 -0.10 0.05 -1.15 -0.15 -2.35 -0.45z"/>
  <path d="M8.50 16 c0 -0.25 0.50 -0.50 1.15 -0.50 0.90 0 0.95 0.10 0.35 0.50 -0.95 0.65 -1.50 0.65 -1.50 0z"/>
  <path d="M36.50 13.40 c0 -0.45 0.35 -0.95 0.80 -1.10 1.25 -0.50 1.35 -0.05 0.20 0.95 -0.85 0.75 -1 0.80 -1 0.15z"/>
  <path d="M10.10 12.40 c0.15 -1.15 1.70 -1.80 2.45 -1.05 0.20 0.20 -0.25 0.80 -1.10 1.25 -1.50 0.90 -1.50 0.90 -1.35 -0.20z"/>
  <path d="M16.50 13.30 c0 -0.10 1 -0.65 2.25 -1.25 1.25 -0.60 2.25 -1.30 2.25 -1.65 0 -0.30 0.35 -0.20 0.90 0.25 0.50 0.50 1.20 0.85 1.50 0.85 0.35 0 0.60 0.20 0.60 0.40 0 0.25 -0.65 0.35 -1.50 0.20 -0.80 -0.10 -2.40 0.15 -3.50 0.60 -2.10 0.85 -2.50 0.95 -2.50 0.60z"/>
  <path d="M17.75 10.25 c1.10 -0.95 2.60 -1.85 3.35 -2 0.75 -0.20 1.50 -0.55 1.65 -0.80 0.40 -0.60 1.25 -0.60 1.25 0 0 0.25 -1.85 1.35 -4.10 2.50 l-4.15 2.05 2 -1.75z"/>
  <path d="M14 10.75 c-0.30 -2.40 -0.25 -4.25 0.05 -4.25 0.75 0 1.10 2.50 0.55 3.65 -0.30 0.60 -0.55 0.90 -0.60 0.60z"/>
  <path d="M16.50 8.75 c0.70 -0.85 1.50 -1.65 1.75 -1.85 0.30 -0.15 1.30 -1 2.25 -1.85 1.70 -1.50 3 -2 3 -1.15 0 0.25 -0.85 0.90 -1.85 1.50 -1.05 0.60 -2.90 1.95 -4.15 2.95 -2 1.65 -2.10 1.70 -1 0.40z"/>
  <path d="M24 3.05 c0 -0.25 0.45 -0.55 1 -0.70 1.20 -0.30 1.35 0.40 0.20 0.85 -1.05 0.40 -1.20 0.40 -1.20 -0.15z"/>
 </g>
 <g fill="#b9bfb3">
  <path d="M17 39.55 c0 -0.45 1.15 -1.05 2.05 -1.05 0.20 0 0.30 0.35 0.15 0.75 -0.35 0.80 -2.20 1.05 -2.20 0.30z"/>
  <path d="M22 38.75 c-0.35 -0.40 -0.85 -0.60 -1.15 -0.40 -0.30 0.20 -0.40 -0.10 -0.20 -0.80 0.20 -0.80 0.10 -1 -0.30 -0.65 -0.75 0.60 -3.85 1.65 -3.85 1.30 0 -0.15 1.30 -0.85 2.90 -1.55 2.65 -1.20 8 -4.40 8.60 -5.10 0.15 -0.15 0.90 -0.85 1.70 -1.55 1.15 -1 1.40 -1.05 1.15 -0.35 -0.20 0.55 -0.15 0.80 0.15 0.60 0.30 -0.20 0.45 -0.60 0.40 -0.90 -0.05 -0.35 0.30 -1.35 0.75 -2.25 0.80 -1.50 0.80 -1.75 0.10 -2.75 -0.70 -1 -0.70 -1.15 0.25 -1.85 0.70 -0.55 0.85 -0.95 0.50 -1.50 -0.40 -0.65 -0.50 -0.60 -0.50 0.15 0 1.25 -0.60 1.05 -2.50 -0.90 -1.60 -1.65 -1.65 -1.80 -0.85 -2.65 0.45 -0.50 0.85 -1.30 0.85 -1.75 0 -1 0.55 -1.10 1.40 -0.25 0.85 0.85 0.75 1.40 -0.20 1.40 -0.55 0 -0.70 0.40 -0.60 1.35 0.15 1.40 1.40 2.25 1.40 0.95 0 -0.45 0.20 -0.80 0.50 -0.80 0.25 0 0.35 -0.30 0.20 -0.70 -0.30 -0.80 1.50 -1.40 2.20 -0.70 0.65 0.65 0.20 1.90 -0.70 1.90 -1 0 -0.85 1.90 0.30 3.35 1 1.30 0.90 2.40 -0.25 1.95 -0.80 -0.30 -1.25 1.60 -0.70 3 0.35 0.85 0.40 0.85 0.40 0.10 0.05 -1.10 1.05 -1.20 1.05 -0.15 0 0.95 0.45 0.95 1.20 0.05 0.45 -0.55 0.70 -0.50 1.45 0.30 0.85 0.90 0.85 0.95 0 1.20 -0.50 0.15 -1.30 0.50 -1.75 0.75 -0.55 0.30 -0.90 0.30 -0.90 0 0 -0.25 -0.45 -0.45 -1.05 -0.40 -0.65 0.05 -1.30 0.65 -1.70 1.70 -0.40 0.95 -1.40 2.05 -2.25 2.55 -0.90 0.55 -1.50 1.25 -1.50 1.90 0 0.60 -0.35 1.25 -0.80 1.40 -1.10 0.40 -1.05 0.45 -1.40 -0.80 -0.25 -1.10 -0.30 -1.10 -0.95 -0.20 -0.40 0.55 -0.95 0.80 -1.20 0.65 -0.30 -0.20 -0.80 0 -1.15 0.40 -0.50 0.60 -0.45 0.75 0.20 0.75 1 0 1.05 1.30 0.10 1.65 -0.40 0.15 -1 -0.05 -1.30 -0.40z"/>
  <path d="M26.95 37.95 c1.20 -1.15 3 -1.35 2.10 -0.25 -0.30 0.40 -1.15 0.80 -1.85 0.95 -1.25 0.20 -1.25 0.20 -0.25 -0.70z"/>
  <path d="M15 36.25 c0 -1.45 2.30 -2.50 4 -1.85 1.15 0.45 1.10 0.50 -1.40 1.70 l-2.60 1.25 0 -1.10z"/>
  <path d="M32.05 33.50 c-0.05 -0.85 0.85 -2 1.55 -2 0.20 0 0.40 0.25 0.40 0.50 0 0.30 -0.30 0.50 -0.70 0.50 -0.40 0 -0.85 0.40 -0.95 0.90 -0.20 0.65 -0.25 0.65 -0.30 0.10z"/>
  <path d="M27.50 30.15 c0 -0.35 0.25 -0.65 0.50 -0.65 0.30 0 0.50 -0.25 0.50 -0.55 0 -0.70 1.45 -2.15 1.80 -1.80 0.15 0.15 -0.40 1 -1.25 1.95 -0.85 0.90 -1.55 1.35 -1.55 1.05z"/>
  <path d="M35.50 22.25 c-0.30 -0.40 -0.50 -1 -0.35 -1.35 0.20 -0.40 0.30 -0.35 0.30 0.25 0.05 0.45 0.40 0.85 0.80 0.85 0.40 0 0.75 0.25 0.75 0.50 0 0.75 -0.80 0.60 -1.50 -0.25z"/>
  <path d="M6.25 18.55 c1.85 -1.15 3.75 -1.75 3.75 -1.20 0 0.40 -3.85 2.15 -4.75 2.15 -0.30 0 0.20 -0.45 1 -0.95z"/>
  <path d="M5.25 17.50 c0.55 -0.85 4.25 -2.55 5.15 -2.40 0.55 0.15 -0.05 0.70 -1.75 1.55 -2.75 1.40 -3.95 1.70 -3.40 0.85z"/>
  <path d="M24.40 17.40 c-1.65 -0.60 -1.90 -1.60 -0.25 -1.10 0.60 0.15 1.40 0.55 1.70 0.80 0.45 0.35 0.80 0.15 1.20 -0.80 0.75 -1.60 1.70 -1.75 1.25 -0.15 -0.15 0.60 -0.30 1.25 -0.30 1.50 0 0.50 -1.95 0.40 -3.60 -0.25z"/>
  <path d="M20.40 15.90 c0.35 -0.35 0.60 -1 0.60 -1.50 0 -0.50 0.30 -0.90 0.65 -0.90 0.45 0 0.60 0.50 0.45 1.50 -0.15 1.10 -0.50 1.50 -1.25 1.50 -0.80 0 -0.90 -0.15 -0.45 -0.60z"/>
  <path d="M8.90 12.50 c1.60 -1.50 3.30 -1.95 3.85 -1 0.15 0.30 0.05 0.50 -0.25 0.50 -0.35 0 -1.15 0.45 -1.85 1 -0.70 0.55 -1.75 1 -2.35 1 -0.95 -0.05 -0.90 -0.20 0.60 -1.50z"/>
  <path d="M13.55 9.95 c0.30 -0.60 0.40 -1.50 0.30 -2.05 -0.15 -0.55 -0.05 -0.90 0.25 -0.80 1.25 0.45 0.90 3.90 -0.40 3.90 -0.60 0 -0.65 -0.20 -0.15 -1.05z"/>
  <path d="M27.05 6.15 c0.90 -1.20 2.15 -2.10 2.40 -1.85 0.30 0.30 -2 2.70 -2.60 2.70 -0.25 0 -0.15 -0.40 0.20 -0.85z"/>
 </g>
 <g fill="#a2cbde">
  <path d="M11.50 38.95 c0 -0.55 3.50 -3.95 4.15 -3.95 0.20 0 0.35 0.45 0.35 1 0 0.60 -0.75 1.45 -2 2.25 -2.20 1.40 -2.50 1.50 -2.50 0.70z"/>
  <path d="M10.65 32.65 c-1.15 -0.45 -0.70 -1.55 1.10 -2.95 2.50 -1.90 2.80 -3.55 0.95 -5 -1.20 -1 -1.25 -1.10 -0.35 -0.90 0.60 0.15 1.50 0.75 1.95 1.25 0.80 0.90 0.80 1.10 0.05 2.70 -0.45 0.95 -1.40 2.10 -2.10 2.55 -0.90 0.55 -1.25 1.20 -1.10 1.80 0.15 0.50 0.20 0.90 0.20 0.85 -0.05 0 -0.40 -0.15 -0.70 -0.30z"/>
  <path d="M20.40 16.15 c0.30 -0.10 0.60 -0.85 0.60 -1.55 0 -1.05 0.10 -1.20 0.50 -0.60 0.90 1.35 0.60 2.50 -0.60 2.45 -0.65 0 -0.85 -0.15 -0.50 -0.30z"/>
  <path d="M18.70 12.30 c0.55 -0.45 1.30 -0.80 1.65 -0.80 0.35 0 0.65 -0.40 0.65 -0.85 0.05 -0.85 0.05 -0.85 0.70 0 0.35 0.45 0.95 0.90 1.35 0.90 0.40 0.05 -0.20 0.25 -1.30 0.45 -1.10 0.20 -2.45 0.50 -3 0.70 -1 0.40 -1 0.35 -0.05 -0.40z"/>
  <path d="M19.60 9.40 c0.25 -0.70 3.40 -2.10 3.40 -1.50 0 0.25 -0.80 0.80 -1.80 1.25 -1.20 0.60 -1.75 0.70 -1.60 0.25z"/>
  <path d="M14 8.65 c0 -0.50 -0.45 -1.65 -1 -2.50 -0.90 -1.45 -0.90 -1.65 -0.15 -1.65 0.45 0 0.65 0.15 0.50 0.35 -0.20 0.15 0 0.55 0.40 0.85 0.80 0.60 1.40 3.80 0.70 3.80 -0.25 0 -0.45 -0.40 -0.45 -0.85z"/>
 </g>
 <g fill="#bcc9ce">
  <path d="M11 39.75 c0 -0.15 0.35 -0.85 0.85 -1.55 0.60 -0.95 0.90 -1.10 1.20 -0.60 0.35 0.50 0.60 0.45 1.30 -0.30 0.85 -0.90 0.85 -0.95 -0.05 -0.60 -0.95 0.30 -0.95 0.30 -0.20 -0.55 0.45 -0.50 1.60 -1.30 2.50 -1.75 2.25 -1.15 8.05 -3.90 8.25 -3.90 0.10 0 0.15 0.45 0.15 1 0 0.80 -0.35 1 -1.55 1 -1.85 0 -3.45 0.80 -3.45 1.75 0 0.90 -1.85 1.90 -2.80 1.55 -0.40 -0.15 -0.65 -0.10 -0.50 0.10 0.15 0.25 -0.75 1.05 -1.95 1.85 -1.25 0.75 -2.25 1.60 -2.25 1.80 0 0.25 -0.35 0.45 -0.75 0.45 -0.40 0 -0.75 -0.10 -0.75 -0.25z"/>
  <path d="M17 39.50 c0 -0.25 0.45 -0.50 1.05 -0.50 0.55 0 0.85 0.25 0.70 0.50 -0.15 0.30 -0.65 0.50 -1.05 0.50 -0.40 0 -0.70 -0.20 -0.70 -0.50z"/>
  <path d="M15.50 38.75 c0 -0.30 3.80 -2.25 4.35 -2.25 0.20 0 -0.60 0.55 -1.80 1.25 -2.20 1.30 -2.55 1.40 -2.55 1z"/>
  <path d="M27 38 c0.70 -0.55 1.55 -1 1.90 -1 1.15 0 3.80 -1.60 5.20 -3.05 1.60 -1.70 2.70 -2 1.90 -0.45 -0.55 1 -6.50 4.35 -9 5.10 l-1.25 0.35 1.25 -0.95z"/>
  <path d="M25.70 33.35 c0.50 -0.35 1.60 -1.20 2.45 -1.95 1.60 -1.45 2.55 -1.55 1.15 -0.15 -1 1.05 -1.05 1.60 -0.05 0.75 0.60 -0.50 0.75 -0.45 0.75 0.25 0 0.65 -0.30 0.80 -1.20 0.55 -0.80 -0.20 -1.50 0 -2 0.45 -0.40 0.40 -1.05 0.75 -1.40 0.70 -0.40 0 -0.30 -0.25 0.30 -0.60z"/>
  <path d="M32.40 33.65 c0.30 -0.10 0.60 -0.65 0.60 -1.20 0 -0.50 0.25 -0.95 0.50 -0.95 0.30 0 0.50 0.30 0.50 0.65 0 0.80 -1 1.85 -1.70 1.80 -0.30 0 -0.25 -0.15 0.10 -0.30z"/>
  <path d="M27.50 29.90 c0 -0.45 0.35 -1.10 0.85 -1.45 0.45 -0.40 1.20 -1.35 1.75 -2.20 0.50 -0.80 0.90 -1.20 0.90 -0.85 0 1 -1.30 3.25 -2.45 4.30 -0.85 0.80 -1.05 0.80 -1.05 0.20z"/>
  <path d="M36 28 c0 -0.55 0.25 -1 0.50 -1 0.30 0 0.50 0.25 0.50 0.50 0 0.30 0.35 0.50 0.80 0.50 0.40 0 0.60 0.25 0.45 0.50 -0.60 0.95 -2.25 0.55 -2.25 -0.50z"/>
  <path d="M7.95 22 c1.55 -1.30 2.55 -1.30 1.15 0 -0.60 0.55 -1.35 1 -1.70 1 -0.35 -0.05 -0.10 -0.45 0.55 -1z"/>
  <path d="M35.85 22.65 c-0.80 -0.75 -0.30 -1.95 0.90 -2.05 1.15 -0.10 1.20 0 0.65 1.15 -0.55 1.30 -0.95 1.50 -1.55 0.90z"/>
  <path d="M4 20.50 c0 -0.60 3.30 -2.75 4.90 -3.25 1.80 -0.50 1.25 0.50 -0.65 1.20 -0.95 0.35 -1.75 0.85 -1.75 1.10 0 0.25 -0.35 0.45 -0.75 0.45 -0.40 0 -0.75 0.25 -0.75 0.50 0 0.30 -0.20 0.50 -0.50 0.50 -0.25 0 -0.50 -0.20 -0.50 -0.50z"/>
  <path d="M33.10 19.10 c0.30 -1.50 -1.75 -2.80 -2.25 -1.45 -0.15 0.30 -0.30 -0.15 -0.30 -1.10 l-0.05 -1.70 1.20 1.15 c0.70 0.60 1.60 1 2 0.85 0.85 -0.35 1.90 0.70 1.40 1.45 -0.40 0.65 -2.10 1.30 -2 0.80z"/>
  <path d="M2.50 17.55 c0 -0.50 1.50 -1.20 1.85 -0.85 0.15 0.15 0.10 0.45 -0.10 0.75 -0.40 0.65 -1.75 0.75 -1.75 0.10z"/>
  <path d="M5.50 17.50 c0 -0.55 2.30 -1.65 6.15 -2.90 2.75 -0.90 2.85 -0.90 2.05 -0.05 -0.50 0.55 -1.25 0.95 -1.75 0.95 -0.50 0 -2.15 0.55 -3.70 1.20 -1.50 0.70 -2.75 1.05 -2.75 0.80z"/>
  <path d="M20.60 15.80 c0.65 -0.70 1.40 -0.60 1.40 0.25 0 0.25 -0.45 0.45 -1 0.45 -0.85 0 -0.95 -0.10 -0.40 -0.70z"/>
  <path d="M35 14.10 c0 -0.20 0.70 -0.80 1.50 -1.25 1.45 -0.90 2.15 -0.45 0.90 0.50 -0.95 0.75 -2.40 1.15 -2.40 0.75z"/>
  <path d="M10.50 12 c0 -0.65 0.35 -1 1 -1 0.55 0 1 0.15 1 0.40 0 0.20 -0.45 0.65 -1 1 -0.90 0.55 -1 0.50 -1 -0.40z"/>
  <path d="M19 12.20 c0.95 -0.45 1.85 -1 2 -1.20 0.15 -0.25 0.65 -0.10 1.15 0.25 0.80 0.60 0.75 0.65 -0.75 0.90 -0.90 0.15 -2.20 0.40 -2.90 0.55 -0.80 0.20 -0.60 0 0.50 -0.50z"/>
  <path d="M34.55 11.20 c0.80 -1 3.45 -2.35 3.85 -2 0.15 0.15 0.15 0.35 0.05 0.45 -0.10 0.05 -0.90 0.60 -1.80 1.25 -1.90 1.30 -3.10 1.50 -2.10 0.30z"/>
  <path d="M13.70 9.25 c0.40 -1.35 0.60 -1.55 0.85 -0.85 0.35 0.90 -0.30 2.60 -1 2.60 -0.20 0 -0.15 -0.80 0.15 -1.75z"/>
  <path d="M9.50 3.70 c0 -0.75 1.30 -0.95 1.70 -0.25 0.15 0.25 -0.15 0.55 -0.70 0.70 -0.65 0.15 -1 0 -1 -0.45z"/>
  <path d="M22.50 4 c0 -0.60 1.70 -1.50 2.85 -1.50 0.65 0 0.40 0.30 -0.75 1 -1.85 1.15 -2.10 1.20 -2.10 0.50z"/>
 </g>
 <g fill="#ccd0c0">
  <path d="M17 39.50 c0 -0.25 0.45 -0.50 1 -0.50 0.55 0 1 0.25 1 0.50 0 0.30 -0.45 0.50 -1 0.50 -0.55 0 -1 -0.20 -1 -0.50z"/>
  <path d="M21.25 38.25 c-0.95 -0.75 -0.95 -0.75 0.10 -1.80 1.15 -1.20 2.60 -0.85 1.60 0.35 -0.45 0.55 -0.40 0.70 0.30 0.70 1 0 0.75 1.20 -0.30 1.35 -0.40 0.10 -1.15 -0.20 -1.70 -0.60z"/>
  <path d="M27 38.30 c0 -0.10 0.35 -0.45 0.75 -0.80 0.60 -0.50 0.75 -0.50 0.75 0.20 0 0.45 -0.35 0.80 -0.75 0.80 -0.40 0 -0.75 -0.10 -0.75 -0.20z"/>
  <path d="M26.20 35.30 c-0.30 -1.45 -0.35 -1.50 -0.75 -0.40 -0.50 1.30 -1.45 1.45 -1.45 0.20 0 -0.50 0.75 -1.30 1.65 -1.80 0.85 -0.50 2.20 -1.50 3 -2.20 0.75 -0.70 1.35 -1.10 1.35 -0.85 0 0.20 -0.70 1.05 -1.60 1.85 -0.85 0.75 -1.40 1.40 -1.15 1.40 0.75 0 3.70 -3.05 3.55 -3.70 -0.10 -0.30 -0.05 -0.40 0.05 -0.15 0.45 0.75 1.20 0.30 0.95 -0.55 -0.20 -0.50 0.05 -1.35 0.45 -1.90 0.70 -0.90 0.70 -0.90 0.75 0.35 0 2.10 -1.30 4.60 -2.95 5.70 -0.95 0.60 -1.55 1.45 -1.55 2.05 0 0.65 -0.40 1.20 -0.95 1.35 -0.80 0.20 -1.05 -0.10 -1.35 -1.35z"/>
  <path d="M33.60 34.55 c0.85 -1.35 2.40 -2.25 2.40 -1.35 0 0.75 -0.80 1.50 -2.10 1.95 -0.75 0.25 -0.80 0.15 -0.30 -0.60z"/>
  <path d="M32.25 33.50 c-0.35 -0.60 0.55 -2 1.30 -2 0.70 0 0.50 1.30 -0.25 1.95 -0.50 0.45 -0.80 0.45 -1.05 0.05z"/>
  <path d="M28 29.40 c0 -0.45 0.35 -0.95 0.80 -1.10 1.25 -0.50 1.35 -0.05 0.20 0.95 -0.85 0.75 -1 0.80 -1 0.15z"/>
  <path d="M33.50 29.05 c0 -0.90 0.60 -2.05 1.05 -2.05 0.75 0 0.50 1.85 -0.30 2.20 -0.40 0.15 -0.75 0.05 -0.75 -0.15z"/>
  <path d="M35.50 28.85 c0 -0.35 0.25 -0.95 0.50 -1.35 0.45 -0.65 0.55 -0.65 1 0 0.70 1.10 0.60 1.35 -0.50 1.65 -0.60 0.15 -1 0 -1 -0.30z"/>
  <path d="M32.35 24.50 c-0.55 -0.80 -0.65 -1.30 -0.30 -1.45 0.80 -0.25 1.55 0.70 1.35 1.75 -0.15 0.85 -0.25 0.80 -1.05 -0.30z"/>
  <path d="M33.60 23.45 c-0.75 -1.20 -0.50 -1.70 0.65 -1.30 0.75 0.30 1.10 2.35 0.35 2.35 -0.20 0 -0.65 -0.45 -1 -1.05z"/>
  <path d="M35.60 22.40 c-1 -1 -0.65 -1.75 0.85 -1.80 1.35 -0.05 1.40 0.05 0.85 1.20 -0.65 1.35 -0.85 1.45 -1.70 0.60z"/>
  <path d="M30.20 20.35 l-1.55 -1.60 1 -1.90 c0.90 -1.70 1.05 -1.85 1.75 -1.15 0.65 0.65 0.65 0.80 -0.10 1.55 -1 1.05 -1.05 2.75 -0.05 2.75 0.40 0 0.75 0.10 0.75 0.20 0 0.10 0.15 0.55 0.30 1 0.50 1.30 -0.45 0.90 -2.10 -0.85z"/>
  <path d="M32.15 19.75 c-0.15 -0.45 -0.15 -0.90 0 -1.05 0.45 -0.45 1.35 0.30 1.35 1.10 0 0.95 -0.95 0.90 -1.35 -0.05z"/>
  <path d="M5.90 18.70 c0.65 -0.45 1.30 -0.65 1.50 -0.45 0.40 0.40 -0.85 1.25 -1.90 1.25 -0.45 0 -0.30 -0.30 0.40 -0.80z"/>
  <path d="M33.10 18.40 c-0.85 -0.85 -0.75 -1.25 0.40 -1.55 0.55 -0.15 0.90 0 0.85 0.35 -0.05 0.30 0.15 0.50 0.50 0.45 0.35 -0.10 0.50 0.20 0.35 0.60 -0.35 0.90 -1.30 0.95 -2.10 0.15z"/>
  <path d="M5.50 17.50 c0 -0.50 4.05 -2.50 5.10 -2.50 0.75 0 -0.75 1 -3.20 2.15 -1.05 0.45 -1.90 0.60 -1.90 0.35z"/>
  <path d="M24.65 17.40 c-0.90 -0.30 -1.65 -0.75 -1.65 -0.95 0 -0.60 0.15 -0.55 1.80 0.30 1.25 0.65 1.50 0.65 2.30 -0.10 0.85 -0.75 0.90 -0.75 0.90 0.25 0 1.20 -0.75 1.30 -3.35 0.50z"/>
  <path d="M35 14.10 c0 -0.20 0.70 -0.75 1.50 -1.20 1.45 -0.85 2.10 -0.50 0.90 0.45 -0.95 0.70 -2.40 1.20 -2.40 0.75z"/>
  <path d="M22.75 12 c-0.95 -0.40 -0.95 -0.45 0.10 -0.45 0.60 -0.05 1.25 0.20 1.40 0.45 0.35 0.60 -0.10 0.60 -1.50 0z"/>
 </g>
 <g fill="#c4d5e8">
  <path d="M13.75 36.50 c0.75 -1.20 5.75 -3.85 5.75 -3.05 0 0.25 -1.35 1.15 -3.05 2.05 -1.70 0.85 -2.90 1.35 -2.70 1z"/>
  <path d="M30.50 36.85 c0.70 -0.75 4 -2.80 4 -2.45 0 0.25 -0.95 0.95 -2.10 1.60 -1.20 0.65 -2.05 1 -1.90 0.85z"/>
  <path d="M10 31.55 c0 -0.25 0.80 -1.05 1.75 -1.75 1.95 -1.50 2.70 -3.40 1.75 -4.55 -0.35 -0.40 -0.40 -0.75 -0.10 -0.75 0.25 0 0.75 0.30 1.05 0.70 0.85 1 -0.15 3.20 -2.30 5.15 -1.90 1.75 -2.15 1.90 -2.15 1.20z"/>
  <path d="M9.35 25.70 c-0.20 -0.20 -0.35 -0.85 -0.35 -1.40 0.05 -0.95 0.05 -1 0.55 -0.15 0.55 0.95 0.40 2.15 -0.20 1.55z"/>
  <path d="M7.50 22.25 c0.35 -0.40 0.85 -0.75 1.10 -0.75 0.30 0 0.25 0.35 -0.10 0.75 -0.35 0.40 -0.85 0.75 -1.10 0.75 -0.30 0 -0.25 -0.35 0.10 -0.75z"/>
  <path d="M36 22.10 c0 -0.50 1.10 -1.60 1.60 -1.60 0.25 0 0.15 0.45 -0.20 1 -0.65 1 -1.40 1.35 -1.40 0.60z"/>
  <path d="M4.55 20.65 c-0.05 -0.95 1.75 -2.45 3.70 -3 2.30 -0.70 2.25 -0.05 0 0.80 -0.95 0.35 -1.75 0.85 -1.75 1.10 0 0.25 -0.30 0.45 -0.70 0.45 -0.40 0 -0.85 0.30 -0.95 0.65 -0.20 0.45 -0.30 0.45 -0.30 0z"/>
  <path d="M10.50 20.75 c0 -0.30 1.90 -2.25 2.25 -2.25 0.10 0 0.10 0.30 -0.05 0.65 -0.20 0.65 -2.20 2.05 -2.20 1.60z"/>
  <path d="M33.50 17.95 c0 -0.85 0.15 -0.95 0.65 -0.50 0.40 0.30 0.85 0.40 1.05 0.20 0.20 -0.20 0.20 0 0 0.50 -0.45 1.20 -1.70 1.05 -1.70 -0.20z"/>
  <path d="M34.80 14.30 c0.15 -0.40 0.65 -0.85 1.05 -1 1.30 -0.50 1.25 0 -0.05 0.90 -1 0.65 -1.20 0.65 -1 0.10z"/>
  <path d="M33.30 12.45 c1.35 -1.50 4.65 -3.55 5.35 -3.30 0.35 0.10 0.05 0.50 -0.65 0.85 -0.70 0.35 -2.05 1.30 -3.05 2.05 -2.15 1.70 -3 1.90 -1.65 0.40z"/>
  <path d="M16.25 11.50 c0.45 -0.75 3.75 -2.80 6 -3.70 3.15 -1.35 1.70 0 -2.40 2.15 -2.15 1.15 -3.75 1.80 -3.60 1.55z"/>
  <path d="M25 9.20 c0 -0.90 3.55 -4.70 5.20 -5.50 1.25 -0.65 1 -0.35 -1.05 1.55 -1.45 1.25 -3 2.80 -3.40 3.40 -0.40 0.60 -0.75 0.85 -0.75 0.55z"/>
  <path d="M28 8.60 c0 -0.25 0.75 -0.95 1.65 -1.60 l1.60 -1.15 -1.45 1.55 c-1.55 1.70 -1.80 1.85 -1.80 1.20z"/>
  <path d="M13.30 6.30 c-0.65 -1 -0.65 -1.20 -0.10 -1 0.40 0.15 0.85 0.65 1 1.05 0.50 1.30 0 1.25 -0.90 -0.05z"/>
  <path d="M21.60 4.40 c0.25 -0.70 3.40 -2.10 3.40 -1.50 0 0.40 -2.65 2.10 -3.25 2.10 -0.20 0 -0.25 -0.25 -0.15 -0.60z"/>
  <path d="M9.50 4 c0 -0.75 1.05 -1.15 1.60 -0.60 0.30 0.30 0.10 0.55 -0.55 0.75 -0.60 0.15 -1.05 0.05 -1.05 -0.15z"/>
 </g>
 <g fill="#dce0d1">
  <path d="M17.25 39.50 c0.15 -0.25 0.65 -0.50 1.05 -0.50 0.40 0 0.70 0.25 0.70 0.50 0 0.30 -0.45 0.50 -1.05 0.50 -0.55 0 -0.85 -0.20 -0.70 -0.50z"/>
  <path d="M21.60 38.20 c-0.85 -0.90 -0.45 -2.20 0.65 -2.20 0.60 0 0.75 0.30 0.50 1.10 -0.30 0.85 -0.20 1 0.50 0.75 0.55 -0.25 0.75 -0.15 0.65 0.25 -0.35 0.95 -1.55 1 -2.30 0.10z"/>
  <path d="M26.30 35.25 c-0.35 -1.35 -1.45 -1.75 -1.20 -0.45 0.10 0.50 -0.15 0.95 -0.45 1.05 -0.35 0.15 -0.65 -0.10 -0.65 -0.50 0 -0.90 1.30 -2.05 1.90 -1.65 0.80 0.50 3.50 -0.70 3.75 -1.70 0.10 -0.50 0.70 -1.15 1.30 -1.45 0.90 -0.50 1.05 -0.45 1.05 0.45 0 0.55 -0.40 1.20 -0.85 1.35 -1.35 0.50 -2.65 2.05 -2.65 3.15 0 1.50 -1.80 1.30 -2.20 -0.25z"/>
  <path d="M34 34.30 c0 -0.10 0.35 -0.45 0.75 -0.80 0.60 -0.50 0.75 -0.50 0.75 0.20 0 0.45 -0.35 0.80 -0.75 0.80 -0.40 0 -0.75 -0.10 -0.75 -0.20z"/>
  <path d="M32 33.25 c0 -0.40 0.45 -0.95 1 -1.25 0.75 -0.40 1 -0.40 1 0.15 0 0.70 -0.95 1.85 -1.60 1.85 -0.20 0 -0.40 -0.35 -0.40 -0.75z"/>
  <path d="M27.95 31.80 c1.35 -1.45 1.65 -1.60 1.25 -0.65 -0.10 0.35 -0.70 0.95 -1.35 1.30 -1.05 0.65 -1.05 0.60 0.10 -0.65z"/>
  <path d="M28 29.60 c0 -0.35 0.25 -0.60 0.50 -0.60 0.30 0 0.50 -0.35 0.50 -0.75 0 -0.40 0.25 -0.75 0.50 -0.75 0.80 0 0.60 0.75 -0.50 1.75 -0.55 0.50 -1 0.65 -1 0.35z"/>
  <path d="M31.80 29.05 c-0.20 -0.30 -0.05 -1.05 0.30 -1.65 l0.65 -1.15 0.15 1.20 c0.20 1.30 -0.60 2.45 -1.10 1.60z"/>
  <path d="M34 28.30 c0 -0.40 0.25 -0.90 0.50 -1.05 0.30 -0.15 0.50 0.15 0.50 0.70 0 0.60 -0.20 1.05 -0.50 1.05 -0.25 0 -0.50 -0.30 -0.50 -0.70z"/>
  <path d="M35.85 28 c0.30 -1.20 0.95 -1.30 1.35 -0.20 0.45 1.15 0.40 1.20 -0.65 1.20 -0.70 0 -0.90 -0.25 -0.70 -1z"/>
  <path d="M32.15 24.25 c-0.40 -1.10 0.30 -1.65 0.85 -0.75 0.65 1 0.60 1.50 0 1.50 -0.30 0 -0.65 -0.35 -0.85 -0.75z"/>
  <path d="M34.05 23.60 c-0.70 -1.35 -0.60 -1.75 0.40 -1.15 0.35 0.25 0.55 0.85 0.45 1.35 -0.20 0.85 -0.25 0.85 -0.85 -0.20z"/>
  <path d="M35.65 22.25 c-0.90 -1 -0.85 -2.05 0 -1.30 0.50 0.40 0.85 0.35 1.35 -0.10 0.50 -0.50 0.60 -0.45 0.30 0.30 -0.15 0.50 -0.30 1.15 -0.30 1.40 0 0.65 -0.65 0.50 -1.35 -0.30z"/>
  <path d="M30.10 20.15 c-1.15 -1.30 -1.15 -1.35 -0.35 -3.20 0.70 -1.45 1 -1.75 1.50 -1.30 0.50 0.50 0.50 0.80 -0.05 1.60 -0.40 0.55 -0.70 1.35 -0.70 1.85 0 1 1.30 1.25 1.65 0.30 0.20 -0.50 0.35 -0.50 0.90 0 0.55 0.50 0.50 0.60 -0.25 0.60 -0.60 0 -0.80 0.25 -0.60 0.75 0.45 1.20 -0.85 0.85 -2.10 -0.60z"/>
  <path d="M5 19.60 c0 -0.45 1.45 -1.30 3.65 -2.10 2.05 -0.75 1.60 -0.05 -0.65 0.95 -1.10 0.50 -1.85 1.05 -1.65 1.20 0.15 0.20 -0.05 0.35 -0.50 0.35 -0.45 0 -0.85 -0.20 -0.85 -0.40z"/>
  <path d="M33 18 c-0.40 -0.75 -0.40 -1 0.15 -1 0.70 0 1.85 0.95 1.85 1.60 0 0.80 -1.50 0.35 -2 -0.60z"/>
  <path d="M5.50 17.30 c0 -0.40 3.10 -1.80 3.95 -1.80 0.45 0 -0.05 0.45 -1.10 1 -1.75 0.95 -2.85 1.25 -2.85 0.80z"/>
  <path d="M13.50 9.95 c0.35 -0.55 0.70 -0.90 0.85 -0.75 0.40 0.40 -0.25 1.80 -0.85 1.80 -0.35 0 -0.35 -0.30 0 -1.05z"/>
  <path d="M21.60 4.45 c0.25 -0.75 3.40 -2.20 3.40 -1.55 0 0.35 -1 1 -3.20 2 -0.25 0.15 -0.35 -0.05 -0.20 -0.45z"/>
 </g>
 <g fill="#d4eaf2">
  <path d="M11 39.75 c0 -0.15 0.35 -0.85 0.85 -1.55 0.55 -0.90 0.90 -1.10 1.20 -0.65 0.30 0.50 0.55 0.50 1.15 -0.05 0.45 -0.35 0.95 -0.50 1.10 -0.40 0.15 0.15 -0.45 0.60 -1.25 0.95 -0.85 0.40 -1.55 1 -1.55 1.30 0 0.35 -0.35 0.65 -0.75 0.65 -0.40 0 -0.75 -0.10 -0.75 -0.25z"/>
  <path d="M14.50 35.95 c1.70 -1.45 6.05 -3.60 5.70 -2.85 -0.10 0.35 -1.75 1.40 -3.60 2.30 -2.50 1.20 -3.05 1.35 -2.10 0.55z"/>
  <path d="M22.70 31.45 c2.40 -1.15 2.40 -1.15 2.20 -0.15 -0.10 0.55 -0.80 0.85 -2.15 1 l-2 0.15 1.95 -1z"/>
  <path d="M11.90 29.55 c2.10 -1.95 2.60 -3.35 1.50 -4.45 -0.45 -0.45 -0.45 -0.60 0 -0.60 0.30 0 0.80 0.40 1.05 0.90 0.60 1.15 -0.45 3.40 -2.35 4.95 -2.30 1.90 -2.45 1.25 -0.20 -0.80z"/>
  <path d="M28 29.30 c0 -0.45 0.20 -0.80 0.40 -0.80 0.25 0 0.85 -0.80 1.35 -1.75 1.20 -2.15 1.50 -1.95 0.55 0.35 -0.90 2.10 -2.30 3.45 -2.30 2.20z"/>
  <path d="M4 20.70 c0 -0.75 2.15 -2.20 4.70 -3.20 2.05 -0.75 1.50 -0.05 -0.70 0.95 -1.10 0.50 -1.85 1.05 -1.65 1.20 0.15 0.20 -0.05 0.35 -0.50 0.35 -0.45 0 -0.85 0.25 -0.85 0.50 0 0.30 -0.20 0.50 -0.50 0.50 -0.25 0 -0.50 -0.15 -0.50 -0.30z"/>
  <path d="M3 17.25 c0.35 -0.40 0.85 -0.75 1.10 -0.75 0.30 0 0.25 0.35 -0.10 0.75 -0.35 0.40 -0.85 0.75 -1.10 0.75 -0.30 0 -0.25 -0.35 0.10 -0.75z"/>
  <path d="M6 17 c0.40 -0.25 1.10 -0.50 1.50 -0.50 0.65 0 0.65 0.05 0 0.50 -0.40 0.25 -1.10 0.50 -1.50 0.50 -0.65 0 -0.65 -0.05 0 -0.50z"/>
  <path d="M36.50 13 c0.70 -0.50 1.35 -0.80 1.50 -0.65 0.30 0.30 -1.50 1.65 -2.20 1.65 -0.30 0 0 -0.45 0.70 -1z"/>
  <path d="M33.95 11.80 c0.70 -0.70 1.30 -1.20 1.45 -1.10 0.35 0.40 -0.40 1.25 -1.55 1.85 -1.05 0.55 -1.05 0.50 0.10 -0.75z"/>
  <path d="M21.35 11.65 c-0.65 -0.60 -0.35 -1.30 0.30 -0.75 0.30 0.25 1.05 0.60 1.60 0.75 0.80 0.20 0.75 0.25 -0.30 0.30 -0.70 0 -1.45 -0.10 -1.60 -0.30z"/>
  <path d="M13.75 9.30 c0.25 -1.30 0.10 -2.15 -0.50 -3.20 l-0.90 -1.35 1.05 0.95 c1.20 1.05 1.55 4.45 0.55 5.05 -0.35 0.25 -0.40 -0.25 -0.20 -1.45z"/>
  <path d="M18.75 9.75 c0.85 -0.70 1.65 -1.25 1.85 -1.25 0.20 0 0.25 -0.40 0.10 -0.85 -0.20 -0.55 -0.15 -0.70 0.15 -0.35 0.20 0.30 0.75 0.65 1.15 0.80 0.45 0.15 -0.35 0.75 -2 1.55 l-2.75 1.35 1.50 -1.25z"/>
  <path d="M18.85 6.80 c0.55 -0.90 3.20 -3.05 4.30 -3.45 1.65 -0.60 0.80 0.40 -1.95 2.25 -1.50 1.05 -2.55 1.60 -2.35 1.20z"/>
  <path d="M27.50 5.75 c0.70 -0.75 1.95 -1.70 2.75 -2.10 1.50 -0.75 1.50 -0.75 -0.25 0.80 -0.95 0.85 -2.20 1.80 -2.75 2.10 -0.80 0.45 -0.75 0.30 0.25 -0.80z"/>
 </g>
 <g fill="#f4f9e6">
  <path d="M22 38.50 c0 -0.25 0.45 -0.50 1.05 -0.50 0.55 0 0.85 0.25 0.70 0.50 -0.15 0.30 -0.65 0.50 -1.05 0.50 -0.40 0 -0.70 -0.20 -0.70 -0.50z"/>
  <path d="M21 37.50 c0 -0.25 0.45 -0.70 1 -1 1.10 -0.60 1.35 -0.05 0.40 0.90 -0.70 0.70 -1.40 0.80 -1.40 0.10z"/>
  <path d="M27.75 37.50 c0.15 -0.25 0.80 -0.50 1.40 -0.50 0.90 0 0.95 0.10 0.35 0.50 -1 0.65 -2.15 0.65 -1.75 0z"/>
  <path d="M26.75 35.50 c-0.20 -0.60 -0.25 -1.10 -0.15 -1.15 0.05 -0.05 0.65 -0.40 1.25 -0.70 1.50 -0.85 2.60 -0.85 1.45 0 -0.45 0.35 -0.90 1.05 -1 1.60 -0.20 1.35 -1.15 1.50 -1.55 0.25z"/>
  <path d="M34.20 34.05 c0.85 -0.85 1.70 -1.55 1.95 -1.55 0.85 0 -0.95 2.15 -2.20 2.60 -1.15 0.45 -1.15 0.40 0.25 -1.05z"/>
  <path d="M32.20 33.20 c0.15 -0.45 0.30 -0.90 0.30 -1 0 -0.10 0.35 -0.20 0.75 -0.20 0.65 0 0.70 0.20 0.25 1 -0.65 1.20 -1.75 1.35 -1.30 0.20z"/>
  <path d="M30 31.85 c0 -0.35 0.45 -0.90 1 -1.25 0.80 -0.50 1 -0.50 1 0.05 0 0.70 -1 1.85 -1.60 1.85 -0.20 0 -0.40 -0.30 -0.40 -0.65z"/>
  <path d="M32 28.05 c0 -0.55 0.25 -1.15 0.50 -1.30 0.30 -0.20 0.50 0.25 0.50 0.95 0 0.70 -0.20 1.30 -0.50 1.30 -0.25 0 -0.50 -0.45 -0.50 -0.95z"/>
  <path d="M34 28.25 c0 -0.40 0.25 -0.75 0.50 -0.75 0.30 0 0.50 0.35 0.50 0.75 0 0.40 -0.20 0.75 -0.50 0.75 -0.25 0 -0.50 -0.35 -0.50 -0.75z"/>
  <path d="M36 28.25 c0 -0.40 0.25 -0.75 0.50 -0.75 0.30 0 0.50 0.35 0.50 0.75 0 0.40 -0.20 0.75 -0.50 0.75 -0.25 0 -0.50 -0.35 -0.50 -0.75z"/>
  <path d="M32.35 24.65 c-0.50 -0.45 -0.40 -1.65 0.10 -1.65 0.25 0 0.55 0.45 0.70 1 0.25 1 -0.15 1.30 -0.80 0.65z"/>
  <path d="M33.80 23.20 c-0.45 -1.20 -0.35 -1.40 0.45 -0.70 0.85 0.70 1 1.50 0.30 1.50 -0.25 0 -0.60 -0.35 -0.75 -0.80z"/>
  <path d="M30.10 19.95 c-1 -1.20 -1.10 -1.60 -0.60 -2.20 0.95 -1.15 1.40 -0.90 1.10 0.55 -0.15 0.90 0 1.50 0.60 1.80 0.45 0.25 0.80 0.65 0.80 0.90 0 0.90 -0.75 0.45 -1.90 -1.05z"/>
  <path d="M33.50 18.25 c-0.35 -0.45 -0.55 -0.90 -0.40 -1 0.15 -0.15 0.55 0.05 0.90 0.50 0.35 0.45 0.55 0.90 0.40 1 -0.15 0.15 -0.55 -0.05 -0.90 -0.50z"/>
  <path d="M5.75 17 c0.15 -0.25 0.80 -0.50 1.40 -0.50 0.90 0 0.95 0.10 0.35 0.50 -1 0.65 -2.15 0.65 -1.75 0z"/>
  <path d="M8.50 13.20 c0 -0.75 1.50 -1.70 2.80 -1.70 0.80 0 0.80 0.05 0 0.95 -1.10 1.20 -2.80 1.70 -2.80 0.75z"/>
 </g>
 <g fill="#f1f9fd">
  <path d="M11.75 39 c0.45 -1.55 1.25 -2.50 1.25 -1.45 0 0.35 -0.40 1.15 -0.80 1.70 -0.80 0.95 -0.80 0.95 -0.45 -0.25z"/>
  <path d="M27.50 37.75 c0.35 -0.40 1.10 -0.75 1.65 -0.75 1 0 1 0 0.05 0.75 -1.35 1 -2.55 1 -1.70 0z"/>
  <path d="M21 37.55 c0 -0.65 1.45 -1.75 1.85 -1.40 0.35 0.40 -0.75 1.85 -1.40 1.85 -0.25 0 -0.45 -0.20 -0.45 -0.45z"/>
  <path d="M34.30 33.95 c0.75 -0.80 1.60 -1.45 1.80 -1.45 0.75 0 -1.30 2.40 -2.30 2.70 -0.75 0.20 -0.65 -0.10 0.50 -1.25z"/>
  <path d="M10 31.65 c0 -0.65 1.45 -1.90 1.75 -1.55 0.15 0.15 -0.20 0.65 -0.75 1.15 -0.55 0.50 -1 0.65 -1 0.40z"/>
  <path d="M28 29.35 c0 -0.35 0.45 -0.90 1 -1.25 1 -0.60 1.05 -0.60 0.20 0.65 -0.90 1.40 -1.20 1.55 -1.20 0.60z"/>
  <path d="M7.60 22.50 c0.10 -0.30 1.15 -1.15 2.40 -1.85 1.35 -0.80 2 -1 1.60 -0.50 -0.90 1.05 -4.25 3.05 -4 2.35z"/>
  <path d="M4.75 20 c0.50 -0.55 1.15 -0.80 1.45 -0.60 0.35 0.20 0.25 0.40 -0.30 0.50 -0.50 0.10 -0.90 0.40 -0.90 0.65 0 0.25 -0.25 0.45 -0.60 0.45 -0.30 0 -0.15 -0.40 0.35 -1z"/>
  <path d="M35 14.30 c0 -0.10 0.70 -0.70 1.50 -1.30 0.85 -0.60 1.50 -0.90 1.50 -0.65 0 0.25 -0.65 0.85 -1.50 1.30 -0.80 0.50 -1.50 0.80 -1.50 0.65z"/>
  <path d="M7.50 13.80 c0 -0.15 0.80 -0.85 1.75 -1.60 1.15 -0.85 2.05 -1.20 2.60 -0.95 0.75 0.25 0.55 0.55 -1.10 1.55 -1.85 1.10 -3.25 1.55 -3.25 1z"/>
  <path d="M34 11.95 c0 -0.55 3.90 -3.05 4.45 -2.85 0.20 0.10 -0.70 0.85 -2.05 1.75 -1.30 0.85 -2.40 1.35 -2.40 1.10z"/>
  <path d="M17.50 10.80 c0 -0.35 3.85 -2.65 4.90 -2.90 1.85 -0.50 1.25 0 -1.90 1.55 -1.65 0.85 -3 1.45 -3 1.35z"/>
  <path d="M18 7.30 c1.80 -1.95 6.20 -4.80 7.45 -4.80 0.40 0 -0.60 0.80 -2.25 1.80 -1.60 0.95 -3.40 2.15 -3.95 2.65 -2.30 1.95 -2.90 2.15 -1.25 0.35z"/>
  <path d="M27.50 5.80 c0.70 -0.75 1.70 -1.65 2.25 -1.95 0.90 -0.45 0.95 -0.45 0.30 0.35 -0.40 0.45 -1.40 1.35 -2.25 1.90 l-1.55 1.10 1.25 -1.40z"/>
 </g>
</svg>