<?xml version="1.0" encoding="utf-8"?>
<!DOCTYPE svg PUBLIC "-//W3C//DTD SVG 1.0//EN" "http://www.w3.org/TR/2001/REC-SVG-20010904/DTD/svg10.dtd">
<svg version="1.0" xmlns="http://www.w3.org/2000/svg" width="40px" height="40px" viewBox="0 0 40 40" preserveAspectRatio="xMidYMid meet">
 <g fill="#0c0308">
  <path d="M32.45 31.40 c-0.05 -1.45 -0.15 -2.25 -0.30 -1.75 -0.15 0.60 -0.75 0.85 -1.95 0.85 -1.60 0 -1.70 -0.10 -1.70 -1.75 0 -1.20 0.25 -1.75 0.75 -1.75 0.50 0 0.75 -0.50 0.75 -1.50 0 -1.35 0.15 -1.50 1.70 -1.50 0.95 0 1.80 0.30 1.95 0.65 0.15 0.45 0.45 0.35 1.20 -0.25 0.55 -0.50 1.70 -0.90 2.55 -0.90 1.25 0 1.60 0.20 1.60 1 0 0.55 0.25 1 0.50 1 0.35 0 0.50 1.25 0.40 3.40 l-0.15 3.35 -1.85 0.15 c-1.25 0.10 -1.90 0.40 -1.90 0.90 0 0.45 -0.55 0.70 -1.75 0.70 l-1.75 0 -0.05 -2.60z"/>
  <path d="M12.35 24.50 c-1.45 -1.70 -1.05 -2.35 1.65 -2.95 4.40 -0.95 5 -0.80 5 1.15 0 1.65 -0.10 1.75 -2.50 2.25 -3.25 0.70 -3.15 0.70 -4.15 -0.45z"/>
  <path d="M37.50 21.75 c0 -1 -0.25 -1.25 -1.20 -1.25 -1.55 0 -2.80 -1.70 -2.80 -3.85 0 -1.50 0.15 -1.65 1.55 -1.65 1.75 0 3.40 1.60 3.45 3.40 0 0.65 0.30 1.10 0.75 1.10 0.50 0 0.75 0.55 0.75 1.75 0 1.55 -0.15 1.75 -1.25 1.75 -1 0 -1.25 -0.25 -1.25 -1.25z"/>
  <path d="M6 17.15 c0 -0.65 0.25 -1.15 0.50 -1.15 0.65 0 0.65 0.55 0 1.50 -0.40 0.60 -0.50 0.55 -0.50 -0.35z"/>
  <path d="M9.65 14.65 c0.25 -1.35 -1.35 -4.65 -2.25 -4.65 -0.25 0 -0.40 -0.20 -0.40 -0.50 0 -0.25 0.70 -0.50 1.50 -0.50 1.40 0 1.50 0.15 1.55 1.90 0.05 1.55 0.10 1.65 0.40 0.65 0.50 -1.85 4.40 -4.50 6.70 -4.50 1.85 -0.05 1.85 -0.05 1.85 1.90 0 1.80 -0.20 2.10 -2.70 3.75 -1.50 1 -3.20 1.80 -3.75 1.80 -0.60 0 -1.05 0.30 -1.05 0.75 0 0.45 -0.45 0.75 -1.05 0.75 -0.90 0 -1 -0.20 -0.80 -1.35z"/>
  <path d="M30.50 8.75 c0 -2.30 1.30 -3.75 3.35 -3.75 1.60 0 1.65 0.05 1.65 2.15 0 2.65 -0.65 3.35 -3.10 3.35 -1.85 0 -1.90 -0.05 -1.90 -1.75z"/>
  <path d="M0 7.70 c0 -0.15 0.25 -0.75 0.55 -1.30 0.40 -0.70 0.40 -1.15 0 -1.55 -0.95 -0.95 -0.60 -1.85 0.70 -1.85 1.15 0 1.25 0.15 1.25 2.50 0 2.35 -0.10 2.50 -1.25 2.50 -0.70 0 -1.25 -0.15 -1.25 -0.30z"/>
  <path d="M25.50 6.25 c0 -1.65 0.10 -1.75 1.75 -1.75 1.65 0 1.75 0.10 1.75 1.75 0 1.65 -0.10 1.75 -1.75 1.75 -1.65 0 -1.75 -0.10 -1.75 -1.75z"/>
  <path d="M6 5.80 c0 -1.40 0.30 -1.90 1.70 -2.75 0.90 -0.60 2 -1.05 2.45 -1.05 0.40 0 0.85 -0.35 1.05 -0.75 0.15 -0.45 0.95 -0.75 2.05 -0.75 1.40 0 1.75 0.20 1.75 1 0 0.55 0.35 1 0.75 1 0.50 0 0.75 0.55 0.75 1.75 0 2.20 -1.30 3 -4.30 2.55 -1.20 -0.15 -2.30 -0.05 -2.45 0.20 -0.15 0.30 -1.10 0.50 -2.05 0.50 -1.60 0 -1.70 -0.10 -1.70 -1.70z"/>
  <path d="M21.15 3.25 c-0.35 -0.40 -0.65 -1.30 -0.65 -2 0 -1.20 0.10 -1.25 3.25 -1.25 3.15 0 3.25 0.05 3.25 1.25 0 0.90 -0.25 1.25 -1 1.25 -0.55 0 -1 0.35 -1 0.75 0 1 -3 1 -3.85 0z"/>
  <path d="M33.50 3 c0 -0.25 -0.65 -0.50 -1.50 -0.50 -1.25 0 -1.50 -0.20 -1.50 -1.20 0 -1.15 0.15 -1.20 3.75 -1.25 3.10 -0.05 3.75 0.10 3.75 0.75 0 1.70 -1 2.70 -2.75 2.70 -0.95 0 -1.75 -0.20 -1.75 -0.50z"/>
 </g>
 <g fill="#3c0201">
  <path d="M25.90 38.65 c1.55 -1.30 1.65 -1.50 1.10 -2.90 -1.10 -2.90 -1.75 -4.25 -2.10 -4.25 -0.25 0 -0.40 -0.50 -0.40 -1.15 0 -1.45 2.45 -3.85 3.90 -3.85 0.75 0 1.10 -0.30 1.10 -1 0 -0.55 0.20 -1 0.45 -1 0.25 0 1.15 -0.65 2.05 -1.50 0.85 -0.80 2.35 -1.75 3.30 -2.10 0.95 -0.30 1.70 -0.80 1.70 -1 0 -0.20 0.70 -0.40 1.50 -0.40 1.50 0 2.15 1.15 0.90 1.65 -0.50 0.20 -0.50 0.30 0 0.30 0.45 0.05 0.60 1.50 0.60 5.45 l0 5.35 -2 1.15 c-1.80 1 -2 1.30 -2 3.10 0 1.10 -0.20 2 -0.50 2 -0.25 0 -0.50 0.35 -0.50 0.75 0 0.55 -0.60 0.75 -2.50 0.75 -1.45 0 -2.50 -0.25 -2.50 -0.55 0 -0.30 -0.40 -0.40 -0.85 -0.30 -0.50 0.15 -1.80 0.40 -2.90 0.60 l-2 0.30 1.65 -1.40z"/>
 </g>
 <g fill="#0e1422">
  <path d="M25.90 32.40 c-0.65 -0.95 -1.20 -1.15 -3.60 -1.15 -2.55 0 -2.80 -0.10 -2.80 -1.10 0 -0.65 0.20 -1.15 0.40 -1.15 0.90 0 6.80 -4.15 6.25 -4.35 -0.35 -0.15 -0.65 -1 -0.65 -1.95 0 -1.60 0.10 -1.70 1.75 -1.70 1.30 0 1.75 0.20 1.75 0.85 0 0.65 0.15 0.70 0.60 0.25 0.35 -0.35 1.30 -0.60 2.20 -0.60 1.30 0 1.65 0.25 1.80 1.20 0.15 0.70 -0.10 1.60 -0.55 2.10 -0.75 0.85 -0.75 0.85 0.15 0.20 0.80 -0.65 0.90 -0.60 0.75 0.25 -0.15 0.55 -0.85 1.30 -1.60 1.65 -0.80 0.40 -1.35 1.05 -1.35 1.65 0 0.50 -0.25 0.95 -0.55 0.95 -0.25 0 -0.35 -0.25 -0.15 -0.60 0.20 -0.35 0.15 -0.40 -0.20 -0.20 -0.35 0.20 -0.60 0.70 -0.60 1.10 0 0.35 -0.45 0.95 -1 1.30 -0.55 0.35 -1 1.05 -1 1.50 0 1.25 -0.75 1.10 -1.60 -0.20z m1.90 -3 l1.45 -1.65 -1.60 1.45 c-1.55 1.40 -1.90 1.80 -1.50 1.80 0.10 0 0.80 -0.75 1.65 -1.60z"/>
  <path d="M16.65 30.30 c-0.30 -0.40 -0.65 -1.55 -0.75 -2.60 -0.15 -1.75 -0.25 -1.95 -1.50 -1.85 -0.95 0.05 -1.45 -0.20 -1.65 -0.90 -0.20 -0.50 -0.60 -0.95 -1 -0.95 -0.35 0 -1.05 -0.70 -1.45 -1.55 l-0.80 -1.60 2.30 0.35 c1.30 0.15 2.75 0.30 3.25 0.30 1.20 0 1.25 1.50 0.10 1.55 -0.50 0 -0.10 0.30 0.85 0.65 1.75 0.65 1.75 0.65 1.90 3.95 0.15 3.35 -0.10 3.90 -1.25 2.65z"/>
  <path d="M36.20 23.05 c0.15 -0.25 -0.15 -1 -0.70 -1.70 -0.55 -0.70 -1 -1.50 -1 -1.80 0 -0.30 -0.20 -0.55 -0.50 -0.55 -0.60 0 -2 -4.70 -2 -6.85 0 -1.60 -0.05 -1.65 -2 -1.65 -1.90 0 -2 -0.10 -2 -1.50 0 -1.30 -0.20 -1.50 -1.35 -1.50 -1 0 -1.70 -0.45 -2.40 -1.50 -0.55 -0.80 -1.20 -1.50 -1.40 -1.50 -0.90 0 -1.85 -1.50 -1.85 -2.95 0 -1.45 0.10 -1.55 1.95 -1.55 1.10 0 2.10 0.25 2.20 0.65 0.20 0.50 0.30 0.50 0.30 0 0.10 -1.10 1.55 -0.70 1.55 0.40 0 0.55 0.35 1.35 0.75 1.75 0.40 0.45 0.75 1.40 0.75 2.20 0 1.20 0.20 1.40 1.70 1.60 l1.75 0.20 0.30 -2.55 c0.55 -4.20 0.55 -4.25 3 -4.15 1.95 0.05 2.20 0.20 2.45 1.55 0.50 2.40 0.35 3.35 -0.55 4.25 -0.80 0.80 -0.70 0.85 1 1 1.70 0.15 1.85 0.25 1.85 1.80 0 1.95 -0.75 2.80 -2.60 2.80 -1.15 0 -1.40 0.20 -1.40 1.25 0 1.05 0.25 1.25 1.50 1.25 1.80 0 2.50 1.15 2.50 4.20 0 1.60 -0.25 2.40 -0.85 2.75 -0.50 0.30 -0.60 0.55 -0.25 0.55 0.30 0 0.60 0.45 0.60 1 0 0.80 -0.35 1 -1.80 1 -0.95 0 -1.65 -0.20 -1.50 -0.45z m-2.80 -14.65 c0.35 -0.35 0.60 -0.95 0.60 -1.35 0 -0.55 -0.25 -0.45 -1 0.35 -0.55 0.60 -1 1.20 -1 1.35 0 0.45 0.80 0.25 1.40 -0.35z"/>
  <path d="M7.90 19.15 c0.55 -0.80 1.15 -2.15 1.35 -3 0.45 -2.25 1.75 -2.20 1.75 0.10 0 0.95 -0.20 1.75 -0.50 1.75 -0.25 0 -0.50 0.55 -0.50 1.25 0 1.05 -0.25 1.25 -1.55 1.25 l-1.50 0 0.95 -1.35z"/>
  <path d="M5.80 16.65 c-0.15 -0.50 -0.45 -1.20 -0.60 -1.50 -0.15 -0.35 0.05 -0.65 0.45 -0.65 0.85 0 1.55 2 0.90 2.65 -0.25 0.25 -0.55 0 -0.75 -0.50z"/>
  <path d="M0.15 11 c0 -2.25 0.20 -4.15 0.45 -4.30 0.20 -0.15 0.40 -0.65 0.40 -1.15 0 -2.05 6 -4.25 6.65 -2.40 0.15 0.40 0.50 0.30 1.15 -0.45 1.75 -1.90 3.40 -2.70 5.50 -2.70 1.90 0 2.10 0.10 2.40 1.55 0.50 2.60 0.35 3.95 -0.45 3.95 -0.40 0 -0.75 0.25 -0.75 0.60 0 0.30 -0.35 1 -0.85 1.50 -0.75 0.85 -0.75 0.90 0.25 0.90 0.65 0 1.10 -0.30 1.10 -0.75 0 -0.50 0.55 -0.75 1.75 -0.75 1.65 0 1.75 0.10 1.75 1.75 0 1.65 -0.10 1.75 -1.75 1.75 -1.20 0 -1.75 0.25 -1.75 0.75 0 0.40 -0.30 0.75 -0.70 0.75 -0.40 0 -0.80 0.25 -0.90 0.55 -0.10 0.30 -0.60 0.50 -1.10 0.40 -0.70 -0.15 -0.30 -0.60 1.65 -1.85 2.15 -1.40 3.20 -2.60 2.35 -2.60 -0.60 0 -4.90 3.20 -5.15 3.80 -0.35 0.95 -1.15 0.90 -1.15 -0.05 0 -0.45 -0.45 -0.75 -1.20 -0.75 -1.20 0 -1.80 -0.80 -1.80 -2.55 0 -0.60 -0.35 -0.95 -1 -0.95 -0.70 0 -1 0.35 -1 1.20 0 0.65 0.25 1.30 0.55 1.40 0.85 0.30 0.05 3.40 -0.85 3.40 -0.45 0 -0.70 -0.55 -0.70 -1.35 -0.05 -1.25 -0.10 -1.30 -0.70 -0.50 -0.35 0.45 -0.90 0.85 -1.20 0.85 -0.30 0 -0.65 0.40 -0.75 0.90 -0.15 0.45 -0.30 0.05 -0.35 -0.90 l-0.10 -1.75 -0.50 1.90 c-0.80 3 -1.30 2.15 -1.25 -2.15z"/>
 </g>
 <g fill="#5b0605">
  <path d="M25 39.60 c0 -1.10 7.10 -3.40 8.75 -2.80 0.40 0.15 0.75 0.05 0.75 -0.25 0 -0.95 -2.25 -1.15 -4.50 -0.35 -1.20 0.40 -2.25 0.70 -2.30 0.65 -0.20 -0.30 -1.70 -4.70 -1.80 -5.35 -0.10 -0.45 0.05 -0.80 0.25 -0.85 0.70 -0.10 3.35 -2.75 3.10 -3.15 -0.35 -0.55 1.25 -2.50 2.10 -2.50 0.65 0 0.70 0.10 0.10 0.85 -0.40 0.50 0.15 0.30 1.15 -0.50 1 -0.75 2.05 -1.35 2.35 -1.35 0.95 0 2.80 -2.20 2.65 -3.10 -0.10 -0.65 0.15 -0.90 1.10 -0.90 0.70 0 1.30 0.25 1.30 0.50 0 0.30 -0.40 0.50 -0.85 0.50 -0.85 0.05 -0.85 0.05 0 0.55 1.15 0.65 1.15 2.45 -0.05 2.45 -1.15 0 -3.10 1.40 -3.10 2.15 0 0.35 0.30 1 0.70 1.45 0.75 1.05 2.90 0.70 2.45 -0.45 -0.20 -0.50 -0.45 -0.55 -0.80 -0.20 -0.75 0.75 -1.35 0.70 -1.35 -0.15 0 -0.70 1.80 -2.30 2.60 -2.30 0.25 0 0.40 3.50 0.40 7.75 l0 7.75 -7.50 0 c-4.10 0 -7.50 -0.15 -7.50 -0.40z m5.30 -5.65 c0.60 -0.60 1.80 -1.05 2.75 -1.05 1.75 -0.05 5.95 -2.15 5.95 -2.95 0 -0.55 -0.15 -0.55 -1.75 0.05 -1.05 0.40 -1.65 0.30 -2.80 -0.35 -1.45 -0.85 -1.90 -1.65 -1 -1.65 0.30 0 0.65 0.25 0.80 0.50 0.40 0.65 1.75 0.65 1.75 0 0 -0.25 -0.35 -0.50 -0.75 -0.50 -0.40 0 -0.75 -0.45 -0.75 -1 0 -1.45 -0.95 -1.25 -1.55 0.35 -0.40 1.10 -0.30 1.50 0.60 2.50 0.65 0.60 1.45 1.15 1.80 1.15 0.40 0 0.55 0.25 0.40 0.55 -0.20 0.30 -1.40 0.45 -2.70 0.35 -2 -0.15 -2.35 0 -2.80 1 -0.25 0.60 -0.90 1.10 -1.35 1.10 -0.50 0 -0.90 0.25 -0.90 0.50 0 0.85 1.10 0.55 2.30 -0.55z m-0.05 -4.20 c0.05 -0.70 -0.10 -1.10 -0.25 -0.95 -0.15 0.15 -0.25 0.80 -0.25 1.45 -0.05 0.70 0.10 1.10 0.25 0.95 0.15 -0.15 0.25 -0.80 0.25 -1.45z"/>
 </g>
 <g fill="#1b2636">
  <path d="M26 31.85 c0 -0.35 0.80 -1.40 1.75 -2.35 0.95 -0.90 1.60 -1.85 1.45 -2.05 -0.10 -0.20 0.45 -1.15 1.30 -2.10 2.15 -2.45 1.85 -2.80 -0.50 -0.65 -2.15 1.95 -2.75 2.20 -2.30 1.05 0.20 -0.55 -0.05 -0.75 -0.90 -0.75 -1.55 0 -1.80 -1.85 -1.45 -11 0.20 -5.10 0.15 -7 -0.30 -7 -0.30 0 -0.55 -0.35 -0.55 -0.75 0 -0.40 -0.35 -0.75 -0.80 -0.75 -0.45 0 -1.05 -0.65 -1.35 -1.50 -0.35 -0.90 -0.95 -1.50 -1.45 -1.50 -0.65 0 -0.90 -0.40 -0.90 -1.25 0 -1.10 0.20 -1.25 1.65 -1.25 0.90 0 2.10 0.35 2.65 0.75 1.25 0.95 1.70 0.95 1.70 0 0 -0.60 0.70 -0.75 3.30 -0.75 2.45 0 3.15 0.15 2.90 0.60 -0.30 0.50 -0.25 0.50 0.40 0.05 0.90 -0.75 5 -0.70 5.50 0.05 0.20 0.30 0.40 1.25 0.40 2.15 0 0.85 0.25 1.65 0.50 1.75 0.30 0.10 0.65 1.35 0.85 2.80 0.25 2.20 0.15 2.60 -0.55 2.60 -0.45 0 -0.80 0.40 -0.80 0.95 0 0.70 -0.40 1.05 -1.35 1.15 -2.10 0.25 -2.05 1.40 0.05 1.40 1.65 0 1.80 0.10 1.80 1.50 0 0.85 0.25 1.50 0.50 1.50 0.30 0 0.50 1 0.50 2.25 0 1.65 -0.20 2.25 -0.75 2.25 -0.50 0 -0.75 0.50 -0.75 1.50 0 1.35 -0.15 1.50 -1.65 1.50 -1.55 0 -1.65 -0.15 -1.75 -1.75 -0.10 -1.55 0 -1.75 1.10 -1.75 1.85 0 1.85 -0.50 -0.10 -3 -1 -1.25 -1.60 -1.80 -1.35 -1.25 0.20 0.55 0.50 1.60 0.65 2.40 0.20 1.25 0.10 1.35 -1.60 1.35 l-1.80 0 0 -2.75 c0 -2.60 -0.05 -2.75 -1.25 -2.75 -1.10 0 -1.25 -0.20 -1.25 -1.75 0 -1.55 0.15 -1.75 1.25 -1.75 0.70 0 1.25 -0.20 1.25 -0.50 0 -0.25 -0.65 -0.50 -1.45 -0.50 l-1.45 0 -0.20 4.90 c-0.20 5.70 0.05 9.60 0.60 9.60 0.25 0 0.50 -0.85 0.60 -1.85 0.15 -1.80 0.25 -1.90 2.05 -2.05 l1.90 -0.15 -0.15 1.90 c-0.10 1.45 -0.40 1.95 -1.15 2.05 -0.55 0.05 -1.25 0.70 -1.60 1.35 -0.30 0.70 -0.35 1.15 -0.10 0.95 0.25 -0.15 0.45 0.30 0.45 0.95 0 0.70 -0.30 1.25 -0.60 1.20 -1.75 -0.05 -2.40 0.25 -2.40 1.05 0 0.90 -1.45 2.60 -2.15 2.60 -0.20 0 -0.35 -0.30 -0.35 -0.65z m8.20 -19.05 c-0.15 -1.05 -0.40 -1.75 -0.55 -1.60 -0.10 0.10 -0.05 1 0.15 2 0.15 1.05 0.40 1.75 0.55 1.60 0.10 -0.10 0.05 -1 -0.15 -2z m0.20 -6.20 l1.10 -2.35 -1.25 1.50 c-0.70 0.85 -1.65 1.90 -2.10 2.40 -0.75 0.80 -0.75 0.85 0.15 0.85 0.65 0 1.30 -0.75 2.10 -2.40z m-7.50 -1.30 c-0.30 -0.70 -0.85 -1.35 -1.20 -1.50 -0.45 -0.15 -0.25 0.35 0.40 1.20 1.30 1.80 1.55 1.90 0.80 0.30z m5.45 0.50 c0.10 -0.10 0.05 -0.50 -0.10 -0.90 -0.45 -1.15 -3.25 -0.55 -3.25 0.70 0 0.90 0.25 1 1.60 0.70 0.85 -0.15 1.65 -0.40 1.75 -0.50z m3.65 -4.30 c0 -0.90 -0.95 -0.55 -1.50 0.55 -0.55 0.95 -0.50 1 0.45 0.45 0.60 -0.30 1.05 -0.75 1.05 -1z"/>
  <path d="M17.90 31.15 c-0.50 -0.10 -0.90 -0.55 -0.90 -0.95 0 -0.50 0.65 -0.70 2.25 -0.70 2.35 0 2.90 0.60 1.30 1.50 -1 0.50 -1.25 0.55 -2.65 0.15z"/>
  <path d="M25 30.60 c0 -0.55 1.10 -1.60 1.60 -1.60 0.25 0 0.20 0.45 -0.10 1 -0.55 1 -1.50 1.40 -1.50 0.60z"/>
  <path d="M23.50 29.25 c0 -0.65 1.55 -1.80 2.05 -1.65 0.35 0.10 0 0.60 -0.75 1.05 -0.70 0.50 -1.30 0.75 -1.30 0.60z"/>
  <path d="M13 25.25 c-0.80 -0.95 -0.70 -1 1.50 -1.70 1.60 -0.50 1.60 -0.50 0.25 -0.35 -0.80 0.10 -2 0.35 -2.60 0.55 -0.80 0.25 -1.15 0.15 -1.15 -0.30 0 -1.40 0.85 -1.85 4.15 -2.20 l3.35 -0.35 0 1.80 c0 1.70 -0.10 1.80 -1.60 1.80 -0.85 0 -1.95 0.35 -2.40 0.75 -0.75 0.70 -0.90 0.70 -1.50 0z"/>
  <path d="M0.65 22.25 c-0.75 -0.80 -0.85 -2.75 -0.20 -2.75 0.25 0 0.55 0.40 0.70 0.90 0.10 0.45 0.40 1.25 0.60 1.75 0.45 1 -0.25 1.10 -1.10 0.10z"/>
  <path d="M8.60 21.45 c-2.05 -0.60 -1.85 -1.65 0.30 -1.85 1.40 -0.15 1.60 0 1.60 1.10 0 0.70 -0.05 1.30 -0.10 1.25 -0.10 0 -0.90 -0.25 -1.80 -0.50z"/>
  <path d="M4.40 20 c-0.20 -0.40 -0.50 -1.40 -0.70 -2.25 -0.35 -1.35 -0.40 -1.40 -0.60 -0.35 -0.35 2.20 -1.10 0.50 -1.10 -2.65 0 -2.70 0.20 -3.40 1.30 -4.75 0.75 -0.85 1.20 -1.65 1.10 -1.80 -0.35 -0.30 -2.90 3.45 -2.90 4.25 0 0.35 -0.20 0.50 -0.45 0.35 -0.75 -0.50 -1.25 -5.30 -0.60 -5.95 0.70 -0.70 0.70 -2.35 0.05 -2.35 -0.25 0 -0.50 -0.45 -0.50 -1 0 -0.75 0.35 -1 1.25 -1 0.90 0 1.25 -0.25 1.25 -1 0 -0.80 0.35 -1 1.75 -1 0.95 0 1.75 0.25 1.75 0.50 0 0.30 0.55 0.50 1.25 0.50 0.80 0 1.25 -0.30 1.25 -0.75 0 -0.50 0.55 -0.75 1.75 -0.75 1.60 0 1.75 0.15 1.75 1.40 0 1 -0.45 1.65 -1.75 2.50 -0.95 0.60 -1.95 1.10 -2.20 1.10 -0.25 0 -0.75 0.35 -1.10 0.80 -0.60 0.70 -0.45 0.70 1.30 -0.05 1.10 -0.45 2.20 -1 2.45 -1.30 0.30 -0.25 1.15 -0.45 1.90 -0.45 1 0 1.40 -0.25 1.40 -0.90 0 -0.50 0.30 -1.20 0.65 -1.55 0.50 -0.55 0.45 -0.65 -0.25 -0.40 -0.60 0.20 -0.90 0.05 -0.90 -0.40 0 -0.50 0.55 -0.75 1.75 -0.75 0.95 0 1.75 0.25 1.75 0.50 0 0.30 0.45 0.50 1.05 0.50 0.85 0 1 0.25 0.85 1.90 -0.15 1.80 -0.20 1.85 -2.20 2 -1.90 0.15 -2.10 0.30 -2.30 1.65 -0.20 1.25 -0.05 1.45 0.95 1.45 0.65 0 1.15 -0.20 1.15 -0.50 0 -0.25 0.80 -0.50 1.75 -0.50 1.65 0 1.75 0.10 1.75 1.75 0 1.60 -0.10 1.75 -1.50 1.75 -0.80 0 -1.50 0.25 -1.50 0.50 0 0.30 -0.45 0.50 -0.95 0.50 -0.70 0 -1.05 0.40 -1.15 1.40 -0.10 1.05 -0.50 1.45 -1.75 1.85 -0.90 0.25 -1.65 0.75 -1.65 1.10 0 0.35 -0.50 0.65 -1.05 0.65 -0.95 0 -1.05 -0.20 -0.75 -1.55 0.25 -1.25 0 -2.10 -1.05 -3.75 -1.35 -2.10 -2.15 -2.75 -2.15 -1.70 0 0.30 -0.45 0.50 -1 0.50 -0.55 0 -1 0.25 -1 0.50 0 0.30 0.25 0.50 0.50 0.50 0.30 0 0.50 0.55 0.50 1.25 0 0.70 0.20 1.25 0.45 1.25 0.55 0 1 3.45 0.50 3.75 -0.20 0.15 -0.50 -0.25 -0.70 -0.90 -0.30 -0.85 -0.45 -0.50 -0.75 1.65 -0.15 1.50 -0.45 2.40 -0.60 2z m12.35 -10.20 c1.05 -0.90 1.25 -1.25 0.70 -1.30 -0.45 0 -1.10 0.35 -1.45 0.75 -0.35 0.40 -0.90 0.75 -1.20 0.75 -0.75 0 -2.80 1.85 -2.80 2.50 0 0.55 2.60 -0.95 4.75 -2.70z m-11.65 -4.85 c0.90 -0.75 0.85 -0.80 -0.60 -0.85 -1.10 0 -1.50 0.20 -1.50 0.85 0 0.45 -0.30 1.15 -0.60 1.50 -0.85 0.90 1.40 -0.35 2.70 -1.50z m10.15 -1.35 c-0.35 -0.35 -1.70 0.90 -2.35 2.10 -0.40 0.80 -0.15 0.70 1.05 -0.40 0.85 -0.80 1.45 -1.60 1.30 -1.70z"/>
 </g>
 <g fill="#7e0201">
  <path d="M25 39.55 c0 -0.50 2.90 -1.65 6.15 -2.50 2.60 -0.65 2.25 0.40 -0.45 1.40 -1.05 0.45 -2 0.95 -2.10 1.15 -0.25 0.55 -3.60 0.50 -3.60 -0.05z"/>
  <path d="M26.50 33.70 c-0.75 -1.95 -0.65 -2.35 1.50 -4.45 1.05 -1.05 1.80 -2.15 1.65 -2.40 -0.20 -0.30 0 -0.40 0.40 -0.25 0.40 0.15 1.50 -0.40 2.45 -1.20 l1.75 -1.50 -1.85 1.30 c-1.45 1.05 -1.90 1.15 -1.90 0.60 0 -0.45 0.45 -1.05 1 -1.40 0.55 -0.35 1 -0.90 1 -1.25 0 -0.35 0.35 -0.65 0.75 -0.65 0.40 0 0.75 -0.15 0.75 -0.35 0 -0.70 3.05 -2.15 4.55 -2.15 1.50 0 2.10 1 0.60 1 -0.85 0.05 -0.85 0.05 0 0.70 1.20 0.95 1.10 2.30 -0.25 2.30 -0.60 0 -1.60 0.50 -2.20 1.05 -0.90 0.85 -1.05 1.30 -0.65 2 0.40 0.80 0.30 0.95 -0.55 0.95 -0.75 0 -1 -0.35 -1 -1.25 0 -1.70 -0.75 -1.55 -1.50 0.30 -0.75 1.80 -0.30 2.90 1.40 3.70 1.80 0.80 1.25 1.15 -1.65 1.05 -1.50 0 -2.75 -0.05 -2.75 -0.05 0 0 0.20 -0.75 0.45 -1.65 0.25 -0.85 0.30 -1.60 0.10 -1.60 -0.80 0 -1.30 1.25 -1.30 3.10 0 1.20 -0.25 1.90 -0.60 1.90 -0.35 0 -0.65 0.35 -0.65 0.75 0 1.20 -1 0.85 -1.50 -0.55z"/>
 </g>
 <g fill="#283449">
  <path d="M23.50 28 c0 -1.40 0.15 -1.50 1.75 -1.50 2.20 0 2.20 0.45 0 1.90 l-1.75 1.10 0 -1.50z"/>
  <path d="M16.10 27.15 c0.15 -1.25 0 -1.40 -1.35 -1.40 -1 -0.05 -1.55 -0.30 -1.65 -0.90 -0.15 -0.65 0.20 -0.85 1.35 -0.85 1.40 0 1.55 -0.15 1.55 -1.50 0 -1.40 0.15 -1.50 1.75 -1.50 l1.75 0 0 3.45 c0 3.15 -0.10 3.45 -1.10 3.75 -2.10 0.55 -2.50 0.35 -2.30 -1.05z"/>
  <path d="M29.40 27.80 c0.15 -0.30 0.35 -0.85 0.40 -1.20 0.05 -0.30 0.70 -1.30 1.40 -2.15 0.70 -0.85 1.30 -1.75 1.30 -2.10 0 -0.30 -0.75 0.35 -1.70 1.45 -1.50 1.75 -1.95 2 -3.45 1.80 -1.65 -0.20 -1.75 -0.30 -2.05 -2.45 -0.15 -1.25 -0.30 -5.50 -0.30 -9.40 0 -5.90 -0.15 -7.20 -0.75 -7.45 -0.40 -0.15 -0.75 -0.85 -0.75 -1.55 0 -0.90 -0.25 -1.25 -1 -1.25 -1 0 -1.30 -1.10 -0.70 -2.70 0.40 -1.05 2.20 -1 3 0.10 0.65 0.80 0.65 0.80 0.70 -0.10 0 -0.85 0.30 -0.90 3.05 -0.60 3.90 0.45 4.35 0.65 4.55 1.95 0.25 1.75 1.65 1.55 2.70 -0.40 1.15 -2.20 2.40 -2.10 2.60 0.15 0.10 1 0.45 1.60 0.90 1.60 1.15 0 0.75 4.60 -0.35 4.80 -0.50 0.05 -1.35 0.60 -2 1.25 -0.80 0.80 -0.85 1.05 -0.30 0.80 0.60 -0.25 0.85 -0.05 0.85 0.65 0 0.55 0.20 1 0.50 1 0.25 0 0.60 1.35 0.80 3 0.20 1.65 0.55 3 0.75 3 0.25 0 0.45 0.60 0.45 1.40 -0.05 1.15 -0.45 1.55 -2.65 2.55 -2.90 1.40 -3.95 2.25 -3.45 2.80 0.20 0.25 0.10 0.25 -0.25 0.05 -0.30 -0.15 -1.20 0.30 -2 1 -0.75 0.75 -1 1.05 -0.50 0.70 0.75 -0.55 0.85 -0.45 0.85 0.60 0 1.05 -0.25 1.25 -1.50 1.25 -0.90 0 -1.35 -0.20 -1.10 -0.55z m0.55 -6.30 c0.65 -0.45 2.05 -4.45 2 -5.65 -0.05 -0.85 -0.15 -0.75 -0.40 0.40 -0.25 1.20 -0.60 1.55 -1.75 1.65 -1.30 0.15 -1.40 0.30 -1.10 1.70 0.15 0.85 0.35 2.25 0.35 3.10 0.10 1.35 0.10 1.40 0.30 0.30 0.15 -0.70 0.40 -1.35 0.60 -1.50z m7.20 -2.60 c-1.60 -1.80 -2.75 -4.40 -2.85 -6.50 0 -1.05 -0.25 -1.90 -0.45 -1.90 -0.60 0 -0.10 4.10 0.65 5.55 1.15 2.15 2.55 3.95 3.10 3.95 0.35 0 0.10 -0.50 -0.45 -1.10z m1.15 -1.75 c-0.70 -1.30 -1.25 -2.25 -1.30 -2 0 0.60 2.10 4.90 2.35 4.65 0.10 -0.10 -0.35 -1.30 -1.05 -2.65z m-8.95 -5.50 c-0.15 -0.50 -0.25 -0.10 -0.25 0.85 0 0.95 0.10 1.35 0.25 0.90 0.10 -0.50 0.10 -1.30 0 -1.75z m-2 -2.50 c-0.15 -0.50 -0.25 -0.10 -0.25 0.85 0 0.95 0.10 1.35 0.25 0.90 0.10 -0.50 0.10 -1.30 0 -1.75z m6.60 -0.50 c-0.15 -1.05 0.20 -1.80 1.55 -3.25 0.85 -0.85 1.50 -1.90 1.50 -2.35 0 -0.45 -0.65 0 -1.60 1.20 -0.90 1.10 -2.15 2.50 -2.75 3.15 -1.45 1.45 -1.45 1.60 0.10 1.60 0.70 0 1.20 -0.15 1.20 -0.35z m-6.15 -4.30 c-0.10 -0.35 -0.25 -0.25 -0.25 0.25 -0.05 0.70 -0.30 0.65 -1.40 -0.45 -3 -2.75 -4.30 -3.20 -1.65 -0.55 2.10 2.15 2.85 2.60 3.15 2.05 0.25 -0.35 0.30 -0.95 0.15 -1.30z"/>
  <path d="M10.95 23.75 c-0.05 -0.15 -0.10 -0.55 -0.15 -0.85 0 -0.35 -0.80 -1 -1.65 -1.40 -2.10 -0.95 -2.15 -2 -0.10 -2 2.45 0 3.45 0.80 3.45 2.75 0 1.20 -0.25 1.75 -0.75 1.75 -0.40 0 -0.80 -0.10 -0.80 -0.25z"/>
  <path d="M1 22.25 c0 -0.40 -0.25 -0.75 -0.60 -0.75 -0.30 0 -0.40 -0.15 -0.25 -0.30 0.40 -0.40 1.85 0.70 1.85 1.35 0 0.25 -0.20 0.45 -0.50 0.45 -0.25 0 -0.50 -0.35 -0.50 -0.75z"/>
  <path d="M37.90 22.40 c0.85 -0.40 1.30 -0.40 1.70 0 0.45 0.45 0.20 0.60 -1.10 0.55 -1.65 0 -1.70 -0.05 -0.60 -0.55z"/>
  <path d="M2.30 15.95 c-0.45 -3.30 -0.20 -4.40 1.55 -6.45 0.70 -0.85 1.15 -1.65 1 -1.80 -0.10 -0.15 -0.95 0.70 -1.80 1.90 l-1.55 2.10 0 -1.95 c0 -1.30 0.35 -2.35 1.15 -3.20 l1.10 -1.30 -1.25 1 c-0.70 0.55 -1.40 1.25 -1.60 1.50 -0.50 0.65 -0.50 0.30 0.05 -1.65 0.40 -1.30 0.35 -1.70 -0.25 -1.95 -0.45 -0.15 -0.70 -0.95 -0.70 -2.20 l0 -1.95 5.75 0 c3.50 0 5.75 0.20 5.75 0.50 0 0.30 0.35 0.50 0.75 0.50 0.40 0 0.75 -0.20 0.75 -0.50 0 -0.25 0.90 -0.50 2 -0.50 1.45 0 2 0.20 2 0.75 0 0.40 0.45 0.75 1 0.75 0.85 0 1 0.35 1 2.20 l0 2.20 -2.20 0.30 c-1.80 0.30 -2.25 0.55 -2.45 1.55 -0.10 0.70 0 1.25 0.20 1.25 0.85 0 0.40 0.85 -0.75 1.50 -1.20 0.60 -2.05 1.90 -1.60 2.35 0.15 0.15 1.05 -0.35 2 -1.10 l1.80 -1.35 0 1.55 0 1.60 -2.75 -0.10 c-1.95 -0.10 -2.75 -0.30 -2.75 -0.80 0 -0.35 -0.35 -0.65 -0.75 -0.65 -0.45 0 -1.05 -0.55 -1.35 -1.25 -0.35 -0.80 -0.95 -1.25 -1.65 -1.25 -1.05 0 -1.15 0.30 -1.35 3.30 -0.15 2.15 -0.45 3.45 -0.95 3.70 -0.50 0.35 -0.80 0.20 -1 -0.65 -0.25 -0.85 -0.35 -0.65 -0.50 0.90 -0.25 2 -0.25 2 -0.65 -0.80z m11.40 -10.30 c0.85 -0.95 2.05 -1.95 2.70 -2.20 0.70 -0.25 1.10 -0.60 0.95 -0.75 -0.35 -0.40 -2.95 1 -3.90 2.10 -0.45 0.55 -1.30 1.85 -1.90 2.95 -0.75 1.35 -0.80 1.60 -0.20 0.85 0.50 -0.65 1.55 -1.95 2.35 -2.95z m-1.85 -2 c1.70 -1.20 3.25 -2.40 3.45 -2.75 0.40 -0.65 0.10 -0.50 -3.95 2.20 -1.60 1.05 -3.10 1.90 -3.30 1.90 -0.20 0 -0.80 0.45 -1.35 1.05 -0.95 1.05 -0.95 1.05 0.55 0.40 0.85 -0.35 2.90 -1.60 4.60 -2.80z m-6.10 1.40 c-0.15 -0.10 0.05 -0.55 0.40 -0.95 0.50 -0.65 0.45 -0.70 -0.50 -0.20 -1.50 0.80 -1.75 1.40 -0.65 1.40 0.55 0 0.85 -0.10 0.75 -0.25z"/>
  <path d="M33.50 1.90 c0 -0.95 1.25 -2.05 2 -1.80 0.30 0.10 0 0.70 -0.70 1.35 -1 0.95 -1.30 1.05 -1.30 0.45z"/>
 </g>
 <g fill="#a70201">
  <path d="M25.70 39.25 c1.15 -0.85 6.15 -2.40 6.95 -2.10 0.35 0.10 -0.65 0.60 -2.15 1.10 -1.50 0.45 -2.95 1.05 -3.20 1.30 -0.30 0.25 -0.95 0.45 -1.50 0.45 -1.05 -0.05 -1.05 -0.05 -0.10 -0.75z"/>
  <path d="M26.85 34.30 c-0.20 -0.50 -0.05 -0.95 0.40 -1.10 0.40 -0.20 0.75 -0.80 0.75 -1.40 -0.05 -1 -0.10 -1 -0.70 -0.15 -0.80 1 -1.30 1.10 -1.30 0.20 0 -0.35 0.90 -1.50 2 -2.60 1.05 -1.05 1.85 -2.10 1.70 -2.30 -0.40 -0.70 4.55 -5.45 5.70 -5.45 0.60 0 1.10 -0.20 1.10 -0.50 0 -0.25 0.85 -0.50 1.90 -0.45 1.35 0.05 1.55 0.15 0.75 0.35 -1.30 0.40 -9.20 5.70 -8.90 6 0.10 0.15 1.30 -0.55 2.60 -1.55 3.20 -2.30 5.60 -3.50 6.45 -3.15 1.15 0.45 0.80 1.20 -0.75 1.55 -1.95 0.40 -3.25 1.90 -2.80 3.20 0.20 0.60 0.10 1.05 -0.20 1.05 -0.30 0 -0.55 -0.65 -0.55 -1.50 0 -2.55 -1.70 -1.50 -2.30 1.35 -0.25 1.25 -0.05 1.70 1.10 2.60 1.65 1.30 1.40 1.70 -0.65 1.10 -1 -0.30 -1.75 -0.25 -2.10 0.10 -0.85 0.85 -1.05 0.20 -0.55 -1.65 0.25 -0.95 0.35 -1.80 0.25 -1.95 -0.50 -0.45 -1.60 1.65 -1.65 3.10 0 0.85 -0.25 1.65 -0.50 1.80 -0.25 0.15 -0.65 0.70 -0.95 1.25 -0.45 0.80 -0.55 0.85 -0.80 0.10z"/>
 </g>
 <g fill="#0b496a">
  <path d="M26 31.60 c0 -0.25 0.45 -0.85 1 -1.35 1.15 -1.05 1.40 -0.10 0.30 1.05 -0.80 0.80 -1.30 0.90 -1.30 0.30z"/>
  <path d="M29.50 28 c0.40 -0.25 0.55 -0.60 0.40 -0.80 -0.45 -0.40 1 -2.50 3.35 -4.95 0.95 -0.95 1.75 -2 1.75 -2.25 0 -0.65 1.85 -0.65 2.25 0 0.15 0.30 0.55 0.50 0.85 0.50 0.35 0 0.30 -0.30 -0.10 -0.75 -0.85 -1 0.30 -1.05 1.30 -0.05 0.90 0.95 0.90 1.30 -0.10 1.30 -0.80 0 -9.30 5.60 -8.95 5.90 0.10 0.10 1.05 -0.30 2.10 -0.95 1.70 -1.05 1.80 -1.05 1.05 -0.15 -0.50 0.60 -0.90 1.30 -0.90 1.60 0 0.35 -0.15 0.60 -0.35 0.65 -0.25 0 -1.05 0.10 -1.90 0.20 -1.05 0.15 -1.25 0.05 -0.75 -0.25z"/>
  <path d="M28 25.50 c0 -0.25 0.20 -0.50 0.45 -0.50 0.25 0 0.55 -0.45 0.70 -1 0.15 -0.55 0.60 -1 1.05 -1 1.10 0 1 0.65 -0.35 1.90 -1.25 1.20 -1.85 1.40 -1.85 0.60z"/>
 </g>
 <g fill="#3a4355">
  <path d="M18.25 31.15 c-0.60 -0.10 -1.35 -0.65 -1.70 -1.25 -0.65 -1 -0.60 -1.05 1.40 -0.75 1.15 0.15 2.05 0.05 2.05 -0.20 0 -0.25 0.45 -0.45 1 -0.45 0.55 0 1 -0.20 1 -0.50 0 -0.25 0.70 -0.50 1.50 -0.50 1.15 0 1.50 -0.20 1.50 -1 0 -0.55 0.25 -1 0.50 -1 0.30 0 0.50 -0.55 0.50 -1.25 0 -0.70 -0.25 -1.25 -0.55 -1.25 -0.65 0 -0.45 -11.65 0.20 -12.30 0.65 -0.65 0.85 0.05 1 3.40 0.05 1.80 0.25 3.20 0.40 3.10 0.45 -0.25 0.40 -8.30 -0.10 -9.45 -0.30 -0.80 -0.40 -0.70 -0.40 0.65 -0.05 2.20 -1.05 2.05 -1.05 -0.15 0 -1.55 0.15 -1.75 1.25 -1.75 2 0 1.45 -1.15 -1.75 -3.45 -3.25 -2.35 -3.65 -3.05 -1.85 -3.05 0.75 0 1.40 0.45 1.75 1.15 l0.55 1.10 0 -1.15 c0.05 -1.05 0.25 -1.10 3.30 -1.05 3.50 0.10 3.95 0.45 2.05 1.70 -0.95 0.65 -1.45 0.70 -2.25 0.30 -0.55 -0.30 -1.15 -0.55 -1.40 -0.55 -0.20 0.05 0.20 0.35 0.95 0.75 1.55 0.90 3.25 0.40 4.40 -1.20 0.45 -0.65 1.25 -1.05 2.20 -1.05 l1.50 0 -1.45 1.50 c-1.45 1.50 -1.45 2.35 0 1.80 0.45 -0.15 1.10 -1 1.40 -1.80 0.45 -1.25 0.85 -1.50 2.20 -1.50 l1.65 0 0 4.75 c0 2.60 -0.20 4.75 -0.45 4.75 -0.90 0 -1.15 2.90 -0.35 4.45 0.85 1.60 1.10 5.05 0.40 5.05 -0.25 0 -0.85 -0.90 -1.35 -2 -0.50 -1.10 -1 -1.90 -1.15 -1.75 -0.30 0.30 1.25 3.55 2.20 4.50 1.35 1.30 0.30 1.50 -1.10 0.20 -2.75 -2.55 -5.10 -8.50 -3.60 -9.10 0.40 -0.15 0.30 -0.30 -0.20 -0.30 -0.80 -0.05 -0.90 0.45 -0.90 3.95 0 6.35 -1.65 9.30 -7.35 13.15 -3.85 2.60 -6.45 3.75 -7.90 3.50z m12.75 -10.15 c0 -0.65 -0.35 -1 -0.95 -1 -0.70 0 -0.90 0.25 -0.70 1 0.15 0.55 0.60 1 0.95 1 0.40 0 0.70 -0.45 0.70 -1z m1 -9 c0 -0.50 -0.20 -1.10 -0.50 -1.25 -0.30 -0.20 -0.50 0.35 -0.50 1.25 0 0.90 0.20 1.45 0.50 1.25 0.30 -0.15 0.50 -0.75 0.50 -1.25z m6.05 -2.85 l1.20 -1.40 -1.25 1.05 c-0.70 0.60 -1.60 1.20 -2 1.35 -0.65 0.25 -0.65 0.30 0.05 0.30 0.40 0.05 1.30 -0.55 2 -1.30z m-4.15 -1.35 c0.40 -0.90 0.80 -1.05 2.20 -0.90 1.15 0.10 1.90 -0.10 2.35 -0.60 1 -1.15 0.30 -1.55 -1.05 -0.60 -1.80 1.25 -2.80 1.05 -1.50 -0.35 0.60 -0.65 1.10 -1.70 1.10 -2.30 0 -1 -0.25 -0.85 -1.75 1.05 -1 1.15 -2.20 2.70 -2.75 3.30 -0.55 0.65 -1 1.35 -1 1.60 0 0.85 1.90 -0.10 2.40 -1.20z"/>
  <path d="M31.15 24.95 c1.75 -2.30 3.50 -6.35 3.15 -7.25 -0.45 -1.20 0.40 -0.70 2.15 1.35 1.80 2.10 1.85 2.90 0.10 1.95 -0.60 -0.30 -1.05 -0.35 -1.05 -0.05 0 0.25 0.40 0.55 0.90 0.70 0.75 0.15 0.75 0.25 -0.15 0.60 -0.55 0.25 -1.10 0.55 -1.25 0.70 -0.30 0.40 -3.50 2.75 -4.45 3.30 -0.40 0.25 -0.15 -0.35 0.60 -1.30z"/>
  <path d="M13 24.75 c0 -0.40 0.75 -0.95 1.65 -1.25 l1.60 -0.50 -1.85 0.15 c-1.30 0.10 -1.90 -0.05 -1.90 -0.50 0 -0.35 0.45 -0.65 1 -0.65 0.55 0 1 -0.20 1 -0.50 0 -0.25 0.80 -0.50 1.75 -0.50 1.85 0 2.50 1.25 0.90 1.65 -0.85 0.20 -0.85 0.25 0 0.30 1.55 0.10 1 1.90 -0.70 2.25 -2.45 0.50 -3.45 0.35 -3.45 -0.45z"/>
  <path d="M1 22.30 c0 -0.45 -0.20 -0.80 -0.50 -0.80 -0.25 0 -0.50 -0.20 -0.50 -0.50 0 -0.80 0.70 -0.55 1.35 0.50 0.40 0.60 0.45 1.05 0.15 1.25 -0.30 0.15 -0.50 -0.05 -0.50 -0.45z"/>
  <path d="M10.80 22.25 c-0.15 -0.40 -0.85 -0.85 -1.55 -1.05 -1.95 -0.50 -1.60 -1.70 0.50 -1.70 1.65 0 1.75 0.10 1.75 1.75 0 1.85 -0.20 2.20 -0.70 1z"/>
  <path d="M4.25 19.25 c-0.30 -0.80 -0.45 -2.85 -0.45 -4.50 0.05 -2.25 -0.05 -2.60 -0.30 -1.50 -0.20 0.85 -0.45 2.30 -0.50 3.25 -0.10 1.65 -0.15 1.65 -0.50 0.50 -1 -3.05 -0.60 -4.85 1.65 -7.60 2.20 -2.70 4.10 -3.80 3.60 -2.05 -0.20 0.60 -0.10 0.55 0.30 -0.20 0.30 -0.60 2.10 -2.15 4 -3.45 1.90 -1.30 3.45 -2.55 3.45 -2.80 0 -0.25 -0.40 -0.20 -0.85 0.05 -1.95 1.15 -7.65 4.85 -9.10 5.95 l-1.55 1.15 0 -1.20 c0 -0.80 0.60 -1.60 1.85 -2.50 1.05 -0.75 1.70 -1.35 1.50 -1.35 -0.55 0 -5.05 3.10 -5.25 3.60 -0.40 1 -1.20 0.25 -0.95 -0.90 0.15 -0.80 0 -1.40 -0.45 -1.55 -0.40 -0.15 -0.70 -0.95 -0.70 -1.90 0 -2 1.05 -2.50 4.25 -2 1.45 0.20 2.25 0.60 2.40 1.15 0.15 0.60 0.25 0.55 0.30 -0.25 0.05 -1.10 0.20 -1.15 4.95 -1.15 6.55 0 7.10 0.20 7.10 2.30 0 0.95 -0.20 1.70 -0.50 1.70 -0.25 0 -0.50 0.35 -0.50 0.75 0 0.45 -0.45 0.75 -1.20 0.75 -0.65 0 -1.45 0.35 -1.80 0.75 -0.70 0.80 -2 1 -2 0.30 0 -0.25 0.80 -1.05 1.75 -1.75 0.95 -0.75 1.75 -1.10 1.75 -0.85 0 0.30 0.25 0.55 0.50 0.55 0.30 0 0.50 -0.45 0.50 -1 0 -0.55 -0.10 -1 -0.25 -1 -0.90 0 -3.35 1.70 -4.50 3.10 -0.85 1.05 -1.45 1.40 -1.60 1.05 -0.10 -0.35 -0.55 -0.65 -0.95 -0.65 -0.90 0 -0.95 2.50 -0.05 2.50 0.35 0.05 0.25 0.30 -0.30 0.70 -0.50 0.40 -0.75 0.80 -0.50 0.95 0.55 0.30 2.65 -0.50 2.65 -1.05 0 -0.20 0.75 -0.40 1.70 -0.40 0.90 0 2.05 -0.40 2.50 -0.85 0.50 -0.45 1.65 -0.85 2.60 -0.85 1.60 0 1.70 0.10 1.70 1.75 0 1.40 -0.20 1.80 -1.20 2.05 -0.70 0.15 -1.35 0.60 -1.50 1 -0.15 0.40 -1 0.70 -2.05 0.70 -1.55 0 -1.75 0.15 -1.75 1.25 0 1 -0.25 1.25 -1.25 1.25 -0.90 0 -1.25 0.25 -1.25 1 0 0.70 -0.35 1 -1.20 1 -1.10 0 -1.15 -0.10 -0.65 -1.90 0.45 -1.70 0.35 -2.10 -0.65 -3.50 -0.65 -0.90 -1.35 -1.60 -1.55 -1.60 -0.45 0 -0.95 2.65 -1 5.45 0 1.25 -0.15 1.95 -0.30 1.55 -0.70 -2.15 -0.90 -2 -1.15 0.75 -0.25 2.80 -0.30 2.90 -0.75 1.50z m12.10 -9.05 c1.45 -1.10 1.90 -1.70 1.30 -1.65 -1.50 0.05 -5.25 2.60 -5.70 3.90 -0.45 1.15 -0.45 1.15 0.85 0.30 0.75 -0.50 2.35 -1.65 3.55 -2.55z"/>
  <path d="M1 11.90 c0 -0.80 -0.20 -1.40 -0.50 -1.40 -0.25 0 -0.50 -0.80 -0.50 -1.75 0 -0.95 0.25 -1.75 0.55 -1.75 0.30 0 0.40 0.35 0.25 0.80 -0.25 0.70 -0.20 0.75 0.40 0.25 0.55 -0.45 0.70 -0.30 0.90 0.85 0.10 0.75 -0.10 2.05 -0.45 2.90 l-0.60 1.45 -0.05 -1.35z"/>
  <path d="M21 2.50 c0 -0.25 -0.35 -0.50 -0.75 -0.50 -0.40 0 -0.75 -0.45 -0.75 -1 0 -1.50 1.55 -1.20 2.90 0.55 l1.20 1.45 -1.30 0 c-0.70 0 -1.30 -0.20 -1.30 -0.50z"/>
 </g>
 <g fill="#e50402">
  <path d="M26 31.95 c0 -0.95 3.50 -4.25 6.15 -5.90 l1.85 -1.15 -1.05 1.85 -1.10 1.80 1.45 1.55 1.45 1.50 -1.75 -0.35 c-2 -0.40 -2.60 -1.10 -2.20 -2.35 0.40 -1.35 -0.05 -1.10 -2.50 1.45 -1.40 1.40 -2.30 2.05 -2.30 1.60z"/>
  <path d="M31.05 25.05 c0.65 -0.90 1.60 -1.55 2.15 -1.55 1 0 1 0.10 -0.20 1.05 -0.70 0.55 -1.65 1.20 -2.15 1.50 -0.80 0.45 -0.75 0.25 0.20 -1z"/>
 </g>
 <g fill="#455269">
  <path d="M16.90 30.15 c-1.40 -1.55 -1 -4.35 0.45 -3.80 0.55 0.20 0.70 0.10 0.45 -0.25 -0.20 -0.35 -1 -0.60 -1.80 -0.60 -0.75 0 -1.55 -0.30 -1.65 -0.60 -0.20 -0.50 -0.30 -0.50 -0.30 0 -0.05 0.85 -1.05 0.75 -1.05 -0.10 0 -1 3.80 -1.85 5.30 -1.20 0.90 0.45 1.20 0.95 1.20 2.20 0 0.90 -0.30 1.95 -0.70 2.35 -0.40 0.35 -0.80 1.20 -0.90 1.85 -0.15 1.10 -0.15 1.10 -1 0.15z"/>
  <path d="M21 29.30 c0 -1.15 0.20 -1.30 1.75 -1.30 2.65 0 2.30 0.65 -1.35 2.40 -0.25 0.10 -0.40 -0.40 -0.40 -1.10z"/>
  <path d="M25.80 26.20 c-0.15 -0.45 -0.45 -2 -0.60 -3.50 -0.30 -2.25 -0.20 -2.70 0.45 -2.70 0.55 0 0.90 0.65 1.15 1.90 0.55 3.10 1.30 3.70 0.95 0.75 -0.25 -2.45 -0.20 -2.65 0.75 -2.65 0.85 0 1 0.30 1 2.40 0 1.90 -0.25 2.65 -1.15 3.50 -1.40 1.30 -2.15 1.40 -2.55 0.30z"/>
  <path d="M32.25 23.45 c0.95 -1.40 1.75 -2.85 1.75 -3.25 0 -1.05 0.85 -0.85 1.15 0.30 0.15 0.55 0.65 1 1.10 1 0.70 0 0.60 -0.30 -0.45 -1.55 -2 -2.35 -1.55 -3.20 0.50 -0.95 1 1.10 1.75 2.10 1.65 2.15 -1.40 1.05 -7.05 4.85 -7.25 4.85 -0.10 0 0.55 -1.15 1.55 -2.55z"/>
  <path d="M11 23.10 c0 -1.25 -0.95 -2.10 -2.35 -2.10 -1.20 0 -1.60 -1.15 -0.60 -1.75 0.30 -0.20 1.50 -0.20 2.75 0 1.90 0.25 2.20 0.45 2.20 1.55 0 0.65 0.25 1.20 0.50 1.20 0.30 0 0.50 -0.20 0.50 -0.50 0 -0.25 0.80 -0.50 1.75 -0.50 2.45 0 2.35 1.35 -0.10 1.75 -1.05 0.15 -2.30 0.50 -2.75 0.80 -1.30 0.70 -1.90 0.55 -1.90 -0.45z"/>
  <path d="M30 22.35 c0 -1.55 0.20 -1.85 1.05 -1.85 0.55 0 0.85 -0.20 0.70 -0.50 -0.15 -0.25 -1.20 -0.50 -2.30 -0.50 l-1.95 0 0 -4.25 c0 -3.85 0.10 -4.25 0.95 -4.25 0.55 0 1.30 -0.15 1.75 -0.30 1.20 -0.45 1.05 2.55 -0.15 3.75 -1.05 1.05 -2 3.40 -1.15 2.85 0.30 -0.15 1.10 -1.30 1.85 -2.55 1 -1.70 1.25 -2.65 1 -3.75 -0.30 -1.30 -0.15 -1.55 0.95 -2 0.70 -0.25 1.30 -0.70 1.30 -1 0 -0.25 0.90 -0.65 2 -0.80 1.10 -0.20 2.25 -0.65 2.55 -1 0.90 -1.10 1.45 -0.80 1.45 0.75 0 0.90 -0.30 1.55 -0.80 1.75 -0.75 0.30 -0.75 0.20 -0.15 -0.55 0.40 -0.45 -0.15 -0.25 -1.15 0.55 -1 0.75 -2.45 1.55 -3.25 1.75 -1.40 0.35 -1.40 0.40 -1.30 3.85 0.15 3.85 -0.85 7.60 -2.35 8.95 -1 0.90 -1 0.85 -1 -0.90z"/>
  <path d="M0.65 21.70 c-0.75 -0.75 -0.85 -2.20 -0.20 -2.20 0.35 0 1.15 2.55 0.90 2.80 -0.05 0.05 -0.40 -0.20 -0.70 -0.60z"/>
  <path d="M36.85 18.30 c-1.45 -1.90 -3.25 -6.55 -2.75 -7.05 0.10 -0.10 0.75 -0.30 1.55 -0.50 1.05 -0.30 1.35 -0.20 1.35 0.45 0 0.45 -0.40 0.80 -1 0.80 -0.55 0 -1 0.25 -1 0.50 0 0.30 0.35 0.50 0.75 0.50 0.40 0 0.85 0.70 1.05 1.85 0.20 1 0.80 2.60 1.35 3.50 1.50 2.55 0.65 2.50 -1.30 -0.05z"/>
  <path d="M4.30 19 c-0.25 -0.70 -0.45 -2.70 -0.45 -4.50 0 -2.40 -0.05 -2.85 -0.35 -1.75 -0.20 0.85 -0.45 2.40 -0.50 3.50 -0.10 1.95 -0.15 1.95 -0.45 0.50 -0.55 -2.15 -0.10 -5.40 0.70 -6.05 0.40 -0.30 0.75 -0.75 0.75 -1.05 0 -0.55 2.65 -3.15 3.20 -3.15 0.20 0 0.25 0.50 0.05 1.15 -0.25 1.05 -0.25 1.05 0.35 0.15 1.10 -1.65 3.10 -3.40 3.30 -2.85 0.20 0.60 1.60 -0.55 1.60 -1.30 0 -0.20 0.80 -0.90 1.75 -1.55 0.95 -0.60 1.75 -1.35 1.75 -1.60 0 -0.30 0.45 -0.50 1 -0.50 1.90 0 1.10 1.70 -1.55 3.15 -1.50 0.90 -2.70 1.95 -3 2.75 -0.80 2.05 -2.50 3.65 -3.55 3.30 -0.50 -0.15 -0.90 0 -0.90 0.30 0 0.30 -0.20 0.45 -0.45 0.30 -0.50 -0.35 -1.05 2 -1.05 4.65 -0.05 1.65 -0.10 1.70 -0.65 0.80 -0.50 -0.90 -0.65 -0.65 -0.85 2 -0.20 2.55 -0.30 2.80 -0.70 1.75z"/>
  <path d="M9.15 16.90 c0.95 -2.30 1.85 -2.40 1.85 -0.20 0 1.60 -0.15 1.80 -1.25 1.80 -1.20 0 -1.25 -0.05 -0.60 -1.60z"/>
  <path d="M25 15.25 c0 -2.45 1.15 -3.20 1.65 -1.15 0.40 1.55 -0.10 3.40 -0.95 3.40 -0.50 0 -0.70 -0.65 -0.70 -2.25z"/>
  <path d="M37.60 15.25 c-0.80 -1.70 -0.75 -2.25 0.15 -2.25 0.50 0 0.75 0.55 0.75 1.75 0 2.10 -0.15 2.15 -0.90 0.50z"/>
  <path d="M0 11.15 c0 -1.40 0.40 -2.25 1.60 -3.50 0.90 -0.90 1.35 -1.65 1.05 -1.65 -0.30 0 -0.65 0.30 -0.80 0.65 -0.10 0.30 -0.40 0.45 -0.60 0.25 -0.60 -0.60 0.15 -1.90 1.15 -1.90 0.65 0 0.90 0.45 1 1.75 0.10 1 -0.10 1.75 -0.40 1.75 -0.30 0 -0.50 0.30 -0.45 0.65 0.15 1.05 -1.25 3.85 -1.90 3.85 -0.40 0 -0.65 -0.70 -0.65 -1.85z"/>
  <path d="M9.60 12.40 c-1.05 -1.05 -0.70 -2.30 0.60 -2.15 1 0.15 1.35 -0.20 2.05 -2.05 0.90 -2.40 3.20 -4.40 4.45 -3.90 0.55 0.20 0.80 0.05 0.80 -0.50 0 -0.45 0.35 -0.80 0.75 -0.80 0.50 0 0.75 0.55 0.75 1.75 0 1.55 0.15 1.75 1.30 1.75 1.15 0 1.25 0.15 1.10 1.85 -0.15 1.85 -0.20 1.90 -2.65 2.25 -1.35 0.20 -2.55 0.25 -2.65 0.15 -0.10 -0.10 0.55 -0.65 1.45 -1.20 1.45 -0.90 1.55 -1.05 0.65 -1.05 -0.60 0 -2.05 0.55 -3.25 1.20 -1.20 0.70 -2.40 1.10 -2.65 0.95 -0.30 -0.20 -0.40 -0.15 -0.20 0.10 0.50 0.50 -0.50 2.25 -1.25 2.25 -0.35 0 -0.90 -0.25 -1.25 -0.60z"/>
  <path d="M30 8.75 c0 -0.80 -0.20 -1.20 -0.55 -1 -0.30 0.20 -0.40 0.65 -0.25 1.05 0.15 0.45 -0.05 0.70 -0.65 0.70 -0.60 0 -1.10 -0.50 -1.35 -1.35 -0.25 -1.05 -0.40 -1.20 -0.55 -0.50 -0.40 1.50 -1.65 1 -1.65 -0.65 0 -1.95 -1.30 -3.35 -3.25 -3.60 -1.30 -0.15 -1.50 -0.40 -1.65 -1.75 -0.10 -0.90 0 -1.65 0.25 -1.65 0.20 0 1.90 1.50 3.75 3.35 1.90 1.85 3.40 3.05 3.40 2.70 0 -0.65 -4.45 -5.05 -5.10 -5.05 -0.25 0 -0.40 -0.20 -0.40 -0.50 0 -0.95 1.90 -0.50 2.65 0.60 l0.80 1.15 0 -1.10 c0.05 -1 0.20 -1.05 1.35 -0.65 1.75 0.70 4.70 0.65 4.70 -0.10 0 -0.30 0.15 -0.40 0.30 -0.25 0.20 0.20 0.05 0.70 -0.35 1.15 -0.50 0.60 -1.20 0.75 -2.70 0.55 -1.65 -0.25 -1.80 -0.20 -1 0.25 1.35 0.75 1.75 1.40 1.75 3.05 0 0.75 0.15 1.35 0.40 1.35 0.20 0 0.30 -0.90 0.20 -2 -0.15 -1.55 -0.05 -2 0.55 -2 0.45 0 1.20 -0.55 1.75 -1.25 0.95 -1.15 3.10 -1.75 3.10 -0.85 0 0.25 -0.55 0.95 -1.25 1.60 -0.90 0.85 -1.10 1.30 -0.65 1.55 0.75 0.50 1.75 -0.30 2.70 -2.15 0.55 -1.05 1.10 -1.40 2.20 -1.40 0.85 0 1.50 0.25 1.50 0.50 0 0.30 -0.20 0.50 -0.50 0.50 -0.25 0 -0.50 0.45 -0.50 1.05 0 0.55 0.25 0.85 0.50 0.70 0.30 -0.15 0.50 -0.05 0.50 0.30 0 0.75 -1.20 1.70 -3.75 2.95 -1.95 0.95 -1.95 0.95 -0.85 0 1.15 -0.95 2.45 -3.80 1.95 -4.30 -0.15 -0.15 -1.35 1.20 -2.65 3 -1.35 1.80 -2.50 3.15 -2.60 3.05 -0.15 -0.10 -0.40 -0.95 -0.65 -1.85 -0.35 -1.40 -0.40 -1.25 -0.30 1.05 0.05 1.80 -0.10 2.80 -0.50 2.90 -0.40 0.15 -0.65 -0.25 -0.65 -1.10z"/>
  <path d="M6.80 5.25 c0.20 -0.45 0 -0.75 -0.35 -0.75 -0.50 -0.05 -0.40 -0.25 0.25 -0.75 0.90 -0.65 0.90 -0.70 -0.15 -0.60 -0.55 0.05 -1.05 0.25 -1.05 0.45 0 0.20 -1.25 0.35 -2.75 0.25 l-2.80 -0.10 0.15 -1.75 c0.10 -1.40 0.40 -1.80 1.30 -1.90 1.25 -0.20 1.45 0.50 0.35 1.40 -0.40 0.35 -0.75 0.80 -0.75 1.05 0 0.25 0.45 0 1 -0.55 0.55 -0.55 1 -1.20 1 -1.50 0 -0.30 2.10 -0.45 5.25 -0.40 4.75 0.10 5.25 0.20 5.25 1 0 0.65 -0.50 1 -1.50 1.25 -0.80 0.15 -1.50 0.45 -1.50 0.65 0 0.20 -0.90 0.95 -2 1.70 -1.25 0.85 -1.85 1.05 -1.70 0.55z m-2.05 -3.05 c0.85 -0.70 1.05 -1.05 0.50 -0.75 -1.50 0.70 -3.05 2 -2.50 2.05 0.30 0 1.20 -0.60 2 -1.30z m5.75 -0.70 c0.65 -0.45 0.65 -0.50 0 -0.50 -0.40 0 -1.10 0.25 -1.50 0.50 -0.65 0.45 -0.65 0.50 0 0.50 0.40 0 1.10 -0.25 1.50 -0.50z"/>
 </g>
 <g fill="#2c6689">
  <path d="M31.75 24.25 c2.40 -3 2.80 -3.30 3.50 -2.75 0.35 0.30 1 0.20 1.65 -0.30 0.60 -0.40 1.10 -0.60 1.10 -0.35 0 0.20 -1.30 1.25 -2.90 2.30 -1.55 1.05 -3.40 2.25 -4.10 2.75 -0.95 0.65 -0.80 0.25 0.75 -1.65z"/>
 </g>
 <g fill="#576072">
  <path d="M19 22.90 c0 -2.55 0.25 -5.65 0.55 -6.90 0.70 -3.05 -0.10 -4.50 -2.45 -4.50 -1.55 0 -1.65 -0.10 -1.05 -0.85 0.40 -0.45 1.45 -1.10 2.35 -1.50 0.85 -0.35 1.60 -0.70 1.60 -0.80 0 -0.45 -3.15 0.15 -4.20 0.80 -1.85 1.25 -3.30 1.10 -3.30 -0.25 0.05 -1.20 1.45 -4.10 1.50 -3 0 1 1 0.70 1 -0.35 0 -1.30 0.85 -1.80 1.75 -1.05 0.65 0.55 0.75 0.35 0.75 -0.90 0 -1.20 -0.20 -1.50 -0.75 -1.30 -0.50 0.20 -0.75 0 -0.75 -0.70 0 -0.80 0.45 -1 2.30 -1.25 2.30 -0.25 2.40 -0.15 5.25 2.55 2.25 2.10 2.95 3.15 2.95 4.20 0 0.75 -0.20 1.40 -0.50 1.40 -0.25 0 -0.50 -0.65 -0.50 -1.50 0 -0.80 -0.20 -1.50 -0.50 -1.50 -0.25 0 -0.50 -0.35 -0.50 -0.75 0 -0.50 -0.55 -0.75 -1.75 -0.75 -1.20 0 -1.75 -0.25 -1.75 -0.75 0 -0.40 -0.35 -0.75 -0.75 -0.75 -0.40 0 -0.75 0.35 -0.75 0.75 0 0.40 -0.20 0.75 -0.50 0.75 -0.25 0 -0.50 0.55 -0.50 1.25 0 1 0.25 1.25 1.25 1.25 1 0 1.25 0.25 1.25 1.25 0 0.75 0.30 1.25 0.75 1.25 1.30 0 1.85 1.90 1.55 5.40 -0.15 1.85 -0.45 5.55 -0.60 8.25 l-0.30 4.85 -1.70 0 -1.70 0 0 -4.60z"/>
  <path d="M25.30 25.45 c-0.45 -2.40 -0.35 -4.95 0.20 -4.95 0.30 0 0.55 -0.95 0.55 -2.10 0.05 -1.45 0.20 -0.90 0.50 1.75 0.70 6.50 1.45 6.40 1.15 -0.15 -0.20 -3.15 -0.10 -6.95 0.15 -8.35 0.40 -2.10 0.35 -2.75 -0.20 -3.25 -0.40 -0.30 -0.60 -1.05 -0.45 -1.65 0.15 -0.60 -0.05 -1.50 -0.40 -2.05 -0.40 -0.55 -0.85 -1.85 -1.05 -2.85 -0.35 -1.75 -0.30 -1.85 0.90 -1.85 0.70 0 1.40 0.30 1.50 0.65 0.20 0.45 0.30 0.45 0.30 0 0.05 -0.75 3.55 -0.90 3.55 -0.20 0 1 -1.55 1.65 -3.30 1.40 l-1.75 -0.30 1.25 1 c0.85 0.70 1.30 1.50 1.30 2.45 0 0.80 0.25 1.60 0.55 1.75 0.35 0.25 0.40 -0.25 0.15 -1.45 -0.30 -1.70 -0.15 -2 1.60 -3.55 1.85 -1.60 3.70 -2.30 3.70 -1.30 0 0.25 -0.55 0.80 -1.20 1.25 -1.05 0.65 -1.20 1.05 -0.95 2.45 0.15 1 0 2.25 -0.40 2.90 -0.60 1.15 -0.65 1.10 -1.25 -1.30 l-0.65 -2.50 0.10 3.20 c0.05 2.20 -0.10 3.30 -0.50 3.40 -0.40 0.15 -0.65 -0.25 -0.65 -1.05 0 -0.70 -0.25 -1.30 -0.55 -1.30 -0.35 0 -0.45 0.45 -0.25 1.10 0.15 0.65 0.30 1.40 0.30 1.75 0 0.35 0.35 0.50 0.75 0.35 0.55 -0.25 0.75 0.05 0.75 1.05 0 1.75 -0.85 3.25 -1.70 2.95 -0.50 -0.20 -0.75 0.30 -0.90 1.60 l-0.20 1.85 1.40 -1.60 c0.75 -0.85 1.40 -1.25 1.40 -0.90 0 0.35 -0.25 0.90 -0.55 1.20 -0.30 0.30 -0.45 0.85 -0.30 1.25 0.40 1.05 1.25 -1.65 1.65 -5.20 0.40 -3.70 1.70 -5.25 4.55 -5.60 1 -0.10 2.10 -0.55 2.40 -1 1 -1.30 1.25 -0.95 1.25 1.70 0 1.40 -0.20 2.50 -0.50 2.50 -0.25 0 -0.60 0.80 -0.80 1.75 -0.35 1.85 -1.45 2.35 -1.85 0.90 -0.20 -0.75 -0.25 -0.80 -0.30 -0.10 -0.05 0.95 -2.05 1.70 -2.05 0.80 0 -0.35 -0.15 -1.10 -0.30 -1.70 -0.25 -0.85 -0.05 -1.10 1.20 -1.35 0.80 -0.20 2.10 -1.05 2.90 -1.90 l1.45 -1.55 -1.75 1.25 c-0.95 0.70 -2.40 1.50 -3.25 1.75 l-1.50 0.50 -0.05 4.20 c0 2.95 -0.30 4.75 -0.90 6.10 -1.20 2.45 -1.80 2.75 -1.80 0.90 0 -1.25 -0.20 -1.55 -1.05 -1.55 -1 0 -1.05 0.20 -0.70 2.30 0.25 1.80 0.15 2.50 -0.55 3.25 -1.30 1.45 -2.50 1.20 -2.90 -0.60z"/>
  <path d="M13 24.80 c0 -0.70 2.80 -1.65 3.35 -1.10 0.15 0.15 0.15 0.60 0 1.05 -0.40 1 -3.35 1.05 -3.35 0.05z"/>
  <path d="M32.60 23.05 c1.55 -2.30 1.70 -2.40 2.60 -1.60 0.90 0.80 0.90 0.80 -0.15 0.95 -0.55 0.10 -1.05 0.40 -1.05 0.70 0 0.55 -2 2.35 -2.65 2.40 -0.20 0 0.40 -1.10 1.25 -2.45z"/>
  <path d="M11.10 22.30 c0.20 -1.05 0.05 -1.30 -0.80 -1.35 -0.55 -0.05 -1.25 -0.05 -1.50 0 -1.05 0.20 -1.15 -1.20 -0.20 -2.75 1.20 -2 1.90 -2.20 1.90 -0.45 0 1 0.25 1.25 1.25 1.25 1.05 0 1.25 0.25 1.25 1.50 0 1.40 0.15 1.50 1.90 1.50 2.30 0.05 1.30 0.75 -1.85 1.25 -2.15 0.35 -2.20 0.35 -1.95 -0.95z"/>
  <path d="M0.60 21.50 c-0.85 -1.40 -0.85 -12.30 0.05 -12.65 0.45 -0.20 0.40 -0.40 -0.15 -0.85 -0.65 -0.45 -0.60 -0.50 0.25 -0.40 0.55 0.10 1.15 0.60 1.35 1.15 0.30 0.75 0.35 0.65 0.20 -0.40 -0.15 -1.20 0.25 -1.65 2.90 -3.50 4.35 -3.05 7.55 -4.85 8.75 -4.85 0.60 0 1.05 0.15 1.05 0.40 0 0.70 -3.45 2.60 -4.25 2.30 -0.45 -0.20 -0.75 -0.05 -0.75 0.45 0 0.85 -1 1.35 -2.65 1.35 -0.85 0 -0.95 0.10 -0.40 0.45 0.60 0.40 0.45 0.65 -0.75 1.35 -0.80 0.45 -2.25 1.85 -3.20 3.15 -1.75 2.30 -1.75 2.30 -1.75 7.65 0 3 0 5.40 0 5.40 0 0 -0.30 -0.45 -0.65 -1z"/>
  <path d="M37.30 18.85 c-1.30 -1.70 -1.70 -3.35 -0.85 -3.35 0.50 0 2.70 4.50 2.40 4.85 -0.15 0.10 -0.85 -0.55 -1.55 -1.50z"/>
  <path d="M38.55 17.40 c-0.60 -1.75 -0.45 -2.15 0.70 -1.75 0.80 0.35 1.10 3.35 0.30 3.35 -0.25 0 -0.70 -0.70 -1 -1.60z"/>
  <path d="M3.90 14.45 l-0.15 -3.20 -0.55 2.75 -0.60 2.75 -0.05 -2.75 c-0.05 -2.55 0.10 -2.95 2 -5.10 2.20 -2.60 3.20 -3.05 2.70 -1.25 -0.30 1.05 -0.25 1.05 0.80 -0.15 0.70 -0.80 1.15 -1.05 1.30 -0.60 0.40 1.10 1.15 0.65 1.15 -0.75 0 -1.05 0.50 -1.75 1.95 -2.75 1.10 -0.80 2.10 -1.40 2.25 -1.40 0.75 0 0.20 1.20 -0.95 2.10 -0.70 0.55 -1.25 1.30 -1.25 1.65 0 0.35 -0.75 1.50 -1.70 2.50 -1.35 1.40 -1.55 1.85 -0.95 2.10 0.60 0.25 0.60 0.35 0.05 0.70 -0.40 0.25 -1.05 0.05 -1.70 -0.60 l-1.05 -1 -0.35 1.60 c-0.15 0.85 -0.30 2.60 -0.35 3.90 l-0.05 2.30 -0.50 -1.75 -0.55 -1.75 -0.35 1.65 c-0.60 2.70 -0.95 2.40 -1.10 -0.95z"/>
  <path d="M10 13.75 c0 -1.40 0.20 -1.75 1 -1.75 0.65 0 0.90 0.25 0.70 0.75 -0.35 0.90 0.35 1 1.20 0.15 0.45 -0.45 0.60 -0.25 0.60 1 0 1.50 -0.10 1.60 -1.75 1.60 -1.65 0 -1.75 -0.10 -1.75 -1.75z"/>
  <path d="M1 6.60 c0 -1.25 0.75 -2.25 2.85 -3.65 2.20 -1.50 2.25 -1.55 2.05 -0.40 -0.15 1.15 -4.90 5.05 -4.90 4.05z"/>
  <path d="M0 2.80 c0 -0.80 0.30 -1.30 0.75 -1.30 0.40 0 0.75 -0.35 0.75 -0.75 0 -0.40 0.25 -0.75 0.50 -0.75 0.75 0 0.60 0.80 -0.25 1.50 -0.40 0.35 -0.75 0.85 -0.75 1.15 0 0.25 0.45 0.10 1 -0.40 0.55 -0.50 1 -1.20 1 -1.60 0 -0.35 0.45 -0.65 1 -0.65 0.55 0 1 0.30 1 0.65 0 0.75 -2.25 2.55 -3.90 3.05 -0.95 0.30 -1.10 0.20 -1.10 -0.90z"/>
  <path d="M23.60 1.95 c-1.85 -1.65 -1.95 -1.95 -0.70 -1.95 0.80 0 2.95 2.80 2.50 3.25 -0.05 0.10 -0.90 -0.50 -1.80 -1.30z"/>
  <path d="M6.50 1.50 c0 -1.45 0.05 -1.50 2.55 -1.50 1.55 0 2.40 0.20 2.20 0.50 -0.15 0.30 -0.60 0.50 -0.95 0.50 -0.35 0 -1.25 0.45 -1.95 1 -1.65 1.30 -1.85 1.25 -1.85 -0.50z"/>
  <path d="M37.50 2.05 c0 -0.60 0.30 -1.05 0.80 -1.05 0.45 0 0.70 0.35 0.60 0.85 -0.25 1.25 -1.40 1.40 -1.40 0.20z"/>
 </g>
 <g fill="#606c83">
  <path d="M19.30 29.75 c-0.25 -0.90 -0.65 -1.25 -1.55 -1.25 -0.95 0 -1.25 -0.25 -1.25 -1.05 0 -0.55 0.20 -0.90 0.45 -0.70 0.25 0.15 0.65 0 0.85 -0.30 0.50 -0.85 -0.80 -1.40 -2.65 -1.15 -2.55 0.30 -2.05 -1 0.75 -1.95 l2.35 -0.80 -2.50 0.10 c-1.35 0.05 -2.80 0.40 -3.15 0.75 -1.20 1.10 -1.75 0.70 -1.35 -1.20 l0.30 -1.80 -2.25 0.30 c-2.60 0.40 -2.75 0.10 -1.05 -1.80 1.15 -1.30 3.25 -1.95 3.25 -0.95 0 0.25 0.45 0.55 1 0.70 0.60 0.15 1 0.70 1 1.35 0 1 0.20 1.10 1.55 0.80 0.85 -0.15 1.95 -0.30 2.40 -0.30 1.05 0 2.50 -6.75 1.60 -7.65 -0.35 -0.35 -0.60 -0.25 -0.80 0.45 -0.95 2.95 -1.20 3.20 -3 3.20 l-1.80 0 0.15 -2.10 c0.15 -2.20 0.55 -2.60 5.70 -5.70 0.80 -0.50 0.65 -0.55 -0.90 -0.45 -1.05 0.10 -2.50 0.65 -3.20 1.20 -0.75 0.60 -1.65 1.05 -2 1.05 -1.15 0 -1.30 -1.85 -0.30 -3.50 1.20 -1.95 3.20 -3.45 3.50 -2.60 0.35 1.10 1 0.60 1.20 -0.90 0.15 -0.85 0.15 -1.50 0.05 -1.50 -0.10 0 -1 0.45 -2.05 0.95 -1.75 0.90 -4.15 3.05 -3.40 3.05 0.20 0 -0.10 0.65 -0.70 1.50 -0.60 0.85 -1.50 1.50 -2.15 1.50 -1.05 0 -1.05 0 0.15 1.20 0.70 0.65 1.55 1.05 1.95 0.90 0.50 -0.20 0.60 0.10 0.30 1.45 -0.35 1.50 -0.30 1.60 0.45 1 0.70 -0.60 0.80 -0.50 0.80 0.65 0 1.10 -0.20 1.30 -1.50 1.30 -1.25 0 -1.50 -0.20 -1.50 -1.20 0 -1.30 -1.80 -4.80 -2.50 -4.80 -0.55 0 -1 1.90 -1.05 4.75 -0.05 1.40 -0.15 2.05 -0.30 1.50 -0.45 -1.85 -1.15 -2 -1.20 -0.20 0 1.40 -0.10 1.50 -0.45 0.70 -0.25 -0.55 -0.45 -2 -0.50 -3.25 l-0.10 -2.25 -0.65 2 -0.65 2 -0.05 -1.65 c-0.05 -1.25 0.45 -2.25 1.70 -3.85 2.05 -2.45 3.25 -3.20 2.90 -1.70 -0.35 1.35 0.60 1.20 1.25 -0.25 0.25 -0.65 2.35 -2.55 4.60 -4.25 5.35 -4 6.25 -4.05 10.40 -0.20 l3.10 2.80 0 8.35 c0 8.45 0.30 11.50 1.05 11.50 0.40 0 0.15 -14.30 -0.30 -17.10 -0.10 -0.75 0 -1.50 0.25 -1.65 0.25 -0.15 0.05 -1 -0.50 -1.90 -0.50 -0.90 -1.05 -2.35 -1.25 -3.20 -0.30 -1.55 -0.25 -1.65 0.95 -1.65 0.70 0 1.30 0.25 1.30 0.50 0 0.30 0.30 0.50 0.65 0.45 1.50 -0.20 2.90 0.10 2.60 0.55 -0.45 0.70 -3.10 0.60 -3.40 -0.10 -0.20 -0.50 -0.35 -0.50 -0.90 0 -0.55 0.50 -0.50 0.60 0.20 0.60 1.50 0 2.50 2.25 2.15 4.85 -0.15 1.30 -0.60 2.50 -0.95 2.75 -0.40 0.25 -0.35 0.40 0.30 0.40 0.45 0 0.85 0.35 0.85 0.75 0 0.45 0.30 0.60 0.75 0.45 1 -0.40 1 1.25 0 2.60 -0.70 0.90 -0.70 0.90 -0.40 -0.15 0.15 -0.65 0.05 -1.15 -0.25 -1.15 -0.30 0 -0.70 0.85 -0.85 1.90 -0.20 1 -0.45 2.25 -0.60 2.75 -0.30 1.15 0.25 1.05 1.40 -0.25 l0.95 -1.15 -0.35 1.70 c-0.20 1.25 -0.15 1.60 0.25 1.35 0.35 -0.20 0.60 -0.80 0.60 -1.30 0 -0.50 0.20 -1.05 0.40 -1.20 0.20 -0.10 0.45 -1.65 0.50 -3.40 0.10 -2.75 0.30 -3.30 1.50 -4.25 0.75 -0.60 1.95 -1.10 2.65 -1.15 0.75 0 1.90 -0.45 2.65 -1.05 0.95 -0.75 1.30 -0.85 1.30 -0.30 0 0.85 -3.65 3.85 -4.70 3.85 -2.10 0 -2.30 0.45 -2.30 5.05 0 5.30 -0.75 7.20 -4.10 10.25 -2.10 1.90 -7.95 5.70 -8.85 5.70 -0.25 0 -0.60 -0.55 -0.75 -1.25z m1.55 -6.85 c-0.10 -0.65 -0.20 -0.15 -0.20 1.10 0 1.25 0.10 1.75 0.20 1.15 0.10 -0.65 0.10 -1.65 0 -2.25z"/>
  <path d="M32.80 23 c1.45 -2.20 1.80 -2.35 2.65 -1.30 0.45 0.50 0.15 0.95 -1.45 2 -1.10 0.70 -2.10 1.30 -2.25 1.30 -0.15 0 0.35 -0.90 1.05 -2z"/>
  <path d="M0 17.25 c0 -2.05 0.20 -3.75 0.40 -3.75 0.25 0 0.45 1.70 0.45 3.75 0.05 2.05 -0.15 3.75 -0.40 3.75 -0.25 0 -0.45 -1.70 -0.45 -3.75z"/>
  <path d="M34.60 13.65 c-0.30 -1.30 -0.50 -2.45 -0.45 -2.50 0.05 -0.05 0.70 -0.15 1.40 -0.25 0.70 -0.10 1.90 -0.85 2.65 -1.60 1.65 -1.80 2.15 -1.40 1.40 1.15 -0.35 1.05 -0.60 2.75 -0.60 3.75 0 2.95 -1.35 2.20 -2.10 -1.20 -0.30 -1.55 -0.35 -1.50 -0.20 0.65 0.15 2 0.05 2.35 -0.70 2.35 -0.70 0 -1.05 -0.60 -1.40 -2.35z"/>
  <path d="M30 8.55 c0 -0.85 0.20 -1.60 0.45 -1.75 0.50 -0.30 1 1.65 0.65 2.60 -0.35 1.15 -1.10 0.60 -1.10 -0.85z"/>
  <path d="M31.75 5.20 c-0.20 -1.85 -0.15 -3 0.25 -3.45 0.80 -0.95 1.60 -0.45 1.25 0.75 -0.20 0.55 0 1.10 0.50 1.40 0.75 0.40 0.70 0.60 -0.25 2.25 -0.60 1 -1.15 1.85 -1.25 1.85 -0.05 0 -0.30 -1.25 -0.50 -2.80z"/>
  <path d="M4.50 6.50 c0 -0.75 0.35 -1 1.40 -1.05 1.15 0 1.20 -0.05 0.35 -0.40 -0.85 -0.35 -0.70 -0.60 1.50 -1.95 1.40 -0.90 3 -1.60 3.65 -1.60 0.60 0 1.10 -0.20 1.10 -0.45 0 -0.25 0.55 -0.55 1.25 -0.65 1.80 -0.35 1.50 0.15 -0.85 1.60 -1.15 0.70 -3.50 2.20 -5.25 3.35 -2.75 1.90 -3.15 2 -3.15 1.15z"/>
  <path d="M1.55 5.05 c0.35 -0.50 1 -1.15 1.50 -1.50 0.80 -0.45 0.95 -0.40 0.95 0.45 0 0.90 -1.30 2 -2.45 2 -0.40 0 -0.40 -0.30 0 -0.95z"/>
  <path d="M36.70 5.25 c0.20 -0.55 0.50 -1.60 0.65 -2.40 0.30 -1.40 1 -2.20 1.50 -1.70 0.40 0.45 -0.85 3.70 -1.70 4.45 -0.75 0.55 -0.80 0.55 -0.45 -0.35z"/>
  <path d="M4.50 3.55 c0 -1.30 2.10 -3.05 3.65 -3.05 0.75 0 1.35 0.25 1.35 0.50 0 0.30 -0.35 0.50 -0.75 0.50 -0.40 0 -0.75 0.20 -0.75 0.45 0 0.25 -0.80 0.90 -1.75 1.50 -1.65 0.95 -1.75 0.95 -1.75 0.10z"/>
  <path d="M0 3 c0 -0.55 0.25 -1 0.50 -1 0.30 0 0.50 0.45 0.50 1 0 0.55 -0.20 1 -0.50 1 -0.25 0 -0.50 -0.45 -0.50 -1z"/>
  <path d="M1.60 3.05 c0.10 -0.35 0.35 -0.60 0.55 -0.60 0.60 0.05 0.45 0.75 -0.15 1 -0.35 0.10 -0.55 -0.10 -0.40 -0.40z"/>
  <path d="M24 2.25 c-0.95 -1 -1 -1.25 -0.35 -1.25 0.45 0 1.05 0.45 1.35 1.05 0.85 1.55 0.35 1.65 -1 0.20z"/>
 </g>
 <g fill="#6e7b91">
  <path d="M19 29 c0 -1.10 -0.20 -2 -0.45 -2 -0.25 0 -0.55 -0.40 -0.65 -0.85 -0.15 -0.70 -0.65 -0.90 -2.35 -0.90 -3.15 0 -3.20 -1.05 -0.05 -1.50 1.65 -0.25 2.50 -0.60 2.50 -1.05 0 -0.80 -1 -0.65 -4.75 0.60 -1.05 0.35 -2.05 0.55 -2.15 0.45 -0.10 -0.10 0.05 -0.90 0.35 -1.75 0.45 -1.40 0.40 -1.65 -0.45 -1.85 -0.55 -0.15 -1 -0.50 -1 -0.80 0 -0.30 -0.35 -0.05 -0.80 0.55 -0.40 0.60 -1.10 1.10 -1.50 1.10 -0.95 0 -0.90 -0.50 0.25 -1.70 0.55 -0.60 1.25 -2.10 1.60 -3.40 0.65 -2.45 0.50 -3.15 -1.30 -5.60 -0.95 -1.25 -1.30 -0.85 -1.60 1.95 -0.30 2.65 -1.15 3.05 -1.15 0.50 0 -2 0.90 -4.25 1.75 -4.25 0.30 0 0.90 -0.60 1.25 -1.30 0.90 -1.65 7.30 -6.30 8.40 -6.10 0.55 0.10 -0.50 1.10 -3 2.85 -2.15 1.45 -3.90 2.90 -3.90 3.20 0 0.25 0.40 0.15 0.90 -0.30 1.45 -1.35 1.75 -1 0.60 0.65 -0.60 0.85 -1.50 1.50 -2.10 1.50 -1.05 0 -1.05 0 0.10 1.25 0.65 0.70 1.50 1.15 1.85 1.05 0.80 -0.30 0.85 0.40 0.15 1.75 -0.75 1.35 -0.35 1.20 2.30 -0.80 2.75 -2.10 4.50 -3.10 4 -2.30 -0.25 0.35 0.10 0.55 0.85 0.55 0.65 0 1.70 0.55 2.30 1.20 1.05 1.15 1.10 1.30 0.40 3.35 -0.40 1.20 -0.90 2.95 -1.10 3.85 -0.40 2 -1.75 2.15 -1.75 0.20 0 -0.75 0.30 -2.55 0.70 -4 0.50 -2 0.50 -2.60 0.05 -2.60 -0.35 0 -0.75 0.70 -0.90 1.50 -0.20 0.85 -0.60 1.50 -1 1.50 -0.35 0 -0.90 0.70 -1.20 1.50 -0.35 0.95 -0.90 1.50 -1.55 1.50 -0.75 0 -0.90 0.25 -0.70 1.25 0.20 1.15 0.40 1.25 3.10 1.25 2.80 0 2.90 0.05 3.20 1.55 0.15 0.85 0.30 2.40 0.35 3.40 0.05 3.70 0.35 3.80 4.20 1.40 3.25 -1.95 3.50 -2.25 3.35 -3.70 -0.10 -0.85 0.10 -1.70 0.45 -1.95 0.45 -0.25 0.50 0.05 0.30 1.35 l-0.35 1.70 1 -1.25 c0.50 -0.70 1.35 -2 1.85 -2.90 0.75 -1.40 0.80 -1.70 0.15 -2.10 -0.60 -0.35 -0.60 -0.60 0 -1.70 0.95 -1.80 1.50 -1.60 1.50 0.45 0 4.05 -3 7.90 -9.10 11.65 -4.30 2.65 -4.90 2.70 -4.90 0.10z"/>
  <path d="M32.65 23.60 c0.50 -0.50 0.85 -1.20 0.85 -1.50 0 -0.95 1 -1.20 1.75 -0.40 0.65 0.65 0.55 0.85 -0.95 1.75 -2.05 1.30 -2.70 1.35 -1.65 0.15z"/>
  <path d="M25.85 23.65 c-0.45 -0.45 -0.35 -6.65 0.10 -7.90 0.25 -0.60 0.40 0.90 0.40 3.65 0 2.50 -0.05 4.60 -0.10 4.60 -0.05 0 -0.25 -0.15 -0.40 -0.35z"/>
  <path d="M0 17 c0 -2.20 0.15 -4 0.40 -4 0.20 0 0.35 1.80 0.40 4 0 2.20 -0.15 4 -0.40 4 -0.20 0 -0.40 -1.80 -0.40 -4z"/>
  <path d="M36.85 18.25 c-1.55 -2 -1.70 -2.50 -1.45 -4.50 0.20 -2.05 0.15 -2.25 -0.65 -1.90 -0.65 0.20 -0.80 0.15 -0.55 -0.25 0.20 -0.35 0.80 -0.60 1.35 -0.60 0.75 0 0.95 0.35 0.95 1.75 0 1 0.35 2.55 0.70 3.50 0.40 0.95 0.65 1.75 0.50 1.75 -0.15 0 0.10 0.35 0.50 0.80 0.75 0.75 1.05 1.70 0.55 1.70 -0.10 0 -0.95 -1 -1.90 -2.25z"/>
  <path d="M4.20 18.75 c-0.20 -0.40 -0.20 -2.45 -0.10 -4.50 0.20 -4.05 -0.40 -4.35 -1.05 -0.45 l-0.45 2.45 0 -2.50 c-0.05 -2.15 0.15 -2.75 1.55 -4.30 2.75 -3.05 4.60 -4.05 2.10 -1.15 -1 1.20 -1.25 2.05 -1.35 4.70 -0.05 1.80 -0.05 4 0.05 4.90 0.10 1.70 -0.30 2.10 -0.75 0.85z"/>
  <path d="M27.40 12.60 c-0.10 -3.15 0 -5.80 0.20 -5.90 0.20 -0.15 -0.05 -0.95 -0.60 -1.85 -0.50 -0.90 -1.05 -2.35 -1.25 -3.25 -0.30 -1.40 -0.20 -1.60 0.70 -1.60 0.60 0 1.05 0.25 1.05 0.50 0 0.30 -0.20 0.50 -0.50 0.50 -0.25 0 -0.50 0.25 -0.50 0.50 0 0.30 0.30 0.50 0.70 0.50 1.35 0 2 1.60 2.10 5.30 0.10 3.15 0 3.70 -0.70 3.75 -0.55 0 -0.60 0.10 -0.20 0.30 0.45 0.15 0.55 0.95 0.30 2.80 -0.60 4.80 -1.15 4.20 -1.30 -1.55z"/>
  <path d="M38.45 16.95 c-1.70 -3.25 -1.45 -7.10 0.55 -8.35 1 -0.60 1 -0.50 1 4.40 0 5 -0.40 6.05 -1.55 3.95z"/>
  <path d="M29.90 13.05 c0.10 -0.85 0.40 -1.70 0.65 -1.85 0.70 -0.40 0.50 1.50 -0.20 2.55 -0.65 0.80 -0.70 0.75 -0.45 -0.70z"/>
  <path d="M32.15 11.95 c0.10 -1.75 0.40 -2.70 0.90 -2.85 0.40 -0.15 0.90 -0.55 1.10 -0.90 0.20 -0.40 1.15 -0.70 2 -0.70 0.90 0 2.15 -0.35 2.75 -0.80 1.90 -1.35 1.20 0.05 -0.90 1.75 -1.10 0.90 -2.40 1.55 -2.90 1.45 -1.40 -0.20 -2.10 0.55 -2.10 2.35 0 0.95 -0.20 1.85 -0.50 2 -0.30 0.20 -0.45 -0.70 -0.35 -2.30z m3.85 -3.20 c0.35 -0.40 0.40 -0.75 0.10 -0.75 -0.25 0 -0.75 0.35 -1.10 0.75 -0.35 0.40 -0.40 0.75 -0.10 0.75 0.25 0 0.75 -0.35 1.10 -0.75z"/>
  <path d="M26.10 10.50 c0 -0.95 0.10 -1.35 0.25 -0.85 0.10 0.45 0.10 1.25 0 1.75 -0.15 0.45 -0.25 0.05 -0.25 -0.90z"/>
  <path d="M1.80 10.35 c0.15 -0.45 -0.05 -0.85 -0.55 -0.95 -0.75 -0.15 -0.75 -0.30 0.20 -1.50 0.60 -0.70 1.45 -1.25 1.90 -1.20 0.50 0.10 0.60 0.05 0.20 -0.05 -0.40 -0.15 -0.10 -0.60 1 -1.30 0.90 -0.60 2.15 -1.45 2.75 -1.85 4.20 -2.85 7.70 -4.25 7.70 -3.10 0 0.35 -2 1.65 -4.75 3.05 -1.95 1.05 -3.50 2.25 -6.40 5.25 -1.30 1.35 -2.25 2.10 -2.05 1.65z"/>
  <path d="M12.30 9.70 c-0.35 -0.95 0.70 -3.10 2.35 -4.60 0.95 -0.90 1.30 -1 1.75 -0.50 0.40 0.55 0.20 0.85 -0.90 1.30 -1.40 0.65 -2.40 2.35 -1.80 3 0.20 0.15 1 -0.10 1.75 -0.55 1.50 -0.90 4.95 -1.25 3.60 -0.40 -0.40 0.25 -1 0.35 -1.35 0.20 -0.40 -0.15 -1.40 0.35 -2.25 1.05 -1.75 1.50 -2.70 1.65 -3.15 0.50z"/>
  <path d="M30 8.90 c0 -0.65 0.25 -1.50 0.50 -1.90 0.35 -0.55 0.50 -0.25 0.50 1.15 0 1 -0.20 1.85 -0.50 1.85 -0.25 0 -0.50 -0.50 -0.50 -1.10z"/>
  <path d="M0 7.50 c0 -0.25 0.25 -0.50 0.50 -0.50 0.30 0 0.50 -0.30 0.50 -0.60 0 -0.35 1.40 -1.95 3.10 -3.50 2.80 -2.60 3.30 -2.90 5.30 -2.90 2.30 0 2.45 0.65 0.25 1.25 -1.35 0.30 -5.15 2.95 -7.75 5.40 -1.60 1.45 -1.90 1.60 -1.90 0.85z"/>
  <path d="M32 6.85 c0 -1.35 0.95 -2.85 1.80 -2.85 0.80 0 0.50 0.80 -1 2.75 -0.70 0.90 -0.75 0.95 -0.80 0.10z"/>
  <path d="M24.70 5.10 c-0.85 -0.75 -2.35 -2.05 -3.35 -2.90 -1 -0.85 -1.70 -1.70 -1.50 -1.85 0.30 -0.35 6 4.55 6.35 5.50 0.35 0.85 0.30 0.85 -1.50 -0.75z"/>
  <path d="M18.10 3.50 c0 -0.95 0.10 -1.35 0.25 -0.85 0.10 0.45 0.10 1.25 0 1.75 -0.15 0.45 -0.25 0.05 -0.25 -0.90z"/>
  <path d="M37.15 4.20 c0.15 -0.55 0.40 -1.45 0.60 -2.10 0.20 -0.60 0.50 -1 0.75 -0.85 0.25 0.15 0.20 0.95 -0.10 1.75 -0.55 1.65 -1.65 2.70 -1.25 1.20z"/>
  <path d="M0 2.50 c0 -1.15 0.25 -1.50 0.95 -1.50 0.90 0 0.95 0.10 0.25 1.50 -0.45 0.85 -0.85 1.50 -1 1.50 -0.10 0 -0.20 -0.65 -0.20 -1.50z"/>
  <path d="M31.80 3.15 c-0.40 -0.95 1.70 -3.15 2.95 -3.15 1.05 0 1 0.10 -0.95 2.15 -1.40 1.50 -1.75 1.70 -2 1z"/>
  <path d="M1.50 3.25 c0 -0.95 2.35 -3.25 3.35 -3.25 1.65 0 1.40 0.55 -0.75 2 -2.20 1.50 -2.60 1.70 -2.60 1.25z"/>
  <path d="M23.25 1.50 c-1.30 -1.35 -1.35 -1.50 -0.45 -1.50 0.55 0 1.35 0.65 1.85 1.50 0.50 0.85 0.70 1.50 0.45 1.50 -0.20 0 -1.05 -0.65 -1.85 -1.50z"/>
  <path d="M28 1.50 c0 -0.25 0.70 -0.50 1.50 -0.50 0.85 0 1.50 0.25 1.50 0.50 0 0.30 -0.65 0.50 -1.50 0.50 -0.80 0 -1.50 -0.20 -1.50 -0.50z"/>
 </g>
 <g fill="#7e8a9f">
  <path d="M17.10 30.40 c-0.35 -0.35 -0.60 -1.35 -0.60 -2.25 0 -1.25 0.20 -1.55 0.75 -1.35 0.50 0.20 0.75 0 0.75 -0.75 0 -0.90 -0.35 -1.20 -1.50 -1.15 -0.15 0 -1 0.15 -1.85 0.35 -1.30 0.25 -1.65 0.15 -1.65 -0.40 0 -0.55 0.80 -0.90 2.75 -1.10 2.55 -0.35 3.35 -0.80 2.35 -1.45 -0.50 -0.30 -5.25 0.70 -5.80 1.25 -0.75 0.70 -1.30 0.55 -1.30 -0.30 0 -0.40 0.20 -0.75 0.45 -0.75 1 0 0.95 -2 -0.10 -2.75 -0.75 -0.50 -0.85 -0.90 -0.50 -1.35 0.30 -0.35 0.35 -1.05 0.20 -1.60 -0.30 -0.75 -0.50 -0.50 -0.95 1.10 -0.60 1.90 -1.85 3.50 -2.40 3 -0.10 -0.15 0.35 -1.40 1.05 -2.80 1.50 -3.05 1.55 -4.50 0.20 -6.80 -1.25 -2.10 -1.85 -2.25 -2.20 -0.55 -0.15 0.70 -0.40 1.85 -0.60 2.65 l-0.35 1.35 -0.20 -1.25 c-0.30 -1.70 0.80 -5 1.65 -5 0.40 0 1.05 -0.65 1.45 -1.40 0.75 -1.45 6.75 -5.85 7.25 -5.30 0.15 0.15 -0.15 0.60 -0.70 0.95 -3.45 2.40 -4.95 3.65 -5.85 4.90 l-1.05 1.45 1.05 1.30 c0.55 0.75 1.35 1.30 1.80 1.20 0.65 -0.10 0.70 0.10 0.30 1.15 -0.45 1.20 0.10 1.80 0.75 0.80 0.35 -0.60 4.65 -3.55 5.15 -3.55 0.15 0 0.05 0.25 -0.30 0.60 -0.35 0.35 -0.60 0.95 -0.60 1.35 0 0.45 -0.60 1.45 -1.30 2.25 -1.10 1.25 -1.45 1.40 -2.25 0.90 -1.20 -0.75 -1.20 -0.35 0 0.85 0.90 0.90 0.95 0.90 2.50 -1.10 0.85 -1.10 1.55 -2.40 1.55 -2.90 0 -1.15 2 -1.55 3.35 -0.65 1.35 0.85 1.40 1 0.35 5.30 -0.65 2.60 -0.75 4.45 -0.45 8.10 0.20 2.70 0.55 4.80 0.85 4.80 0.95 0 6.45 -3.60 8.20 -5.35 0.95 -0.90 1.70 -1.45 1.70 -1.20 0 0.75 -4.15 4.15 -7.55 6.20 -3.25 1.90 -5.30 2.30 -6.35 1.25z"/>
  <path d="M31.50 24.80 c1.30 -1.45 3.90 -3.05 4.30 -2.65 0.10 0.10 -0.75 0.85 -1.90 1.65 -3.35 2.30 -3.75 2.45 -2.40 1z"/>
  <path d="M0 19.75 c0 -0.40 0.25 -0.75 0.50 -0.75 0.30 0 0.50 0.35 0.50 0.75 0 0.40 -0.20 0.75 -0.50 0.75 -0.25 0 -0.50 -0.35 -0.50 -0.75z"/>
  <path d="M37.50 19.25 c-0.30 -0.35 -0.65 -1.05 -0.70 -1.50 -0.05 -0.45 -0.50 -1.20 -0.95 -1.75 -0.90 -1.05 -1.90 -4.30 -1.45 -4.70 0.15 -0.15 0.70 -0.30 1.20 -0.30 0.70 0 0.90 0.40 0.90 1.90 0 1 0.55 3.05 1.25 4.50 1.15 2.50 1.05 3.40 -0.25 1.85z"/>
  <path d="M4.15 14.40 c0.25 -5.30 0.45 -6.05 2.15 -7.15 1.55 -1 1.50 -0.75 -0.05 0.95 -1.15 1.25 -1.25 1.75 -1.25 6.10 0 3.10 -0.20 4.70 -0.55 4.70 -0.40 0 -0.50 -1.45 -0.30 -4.60z"/>
  <path d="M38.30 16.35 c-1.10 -2.95 -1 -3.30 0.45 -1.75 1.20 1.30 1.75 3.90 0.80 3.90 -0.20 0 -0.80 -0.95 -1.25 -2.15z"/>
  <path d="M27.55 15.90 c0 -1.35 0.20 -2.40 0.45 -2.40 0.55 0 0.55 1.05 0 3.25 -0.35 1.35 -0.40 1.25 -0.45 -0.85z"/>
  <path d="M2.50 13.35 c0 -1.25 0.20 -2.45 0.50 -2.60 0.30 -0.20 0.35 0.55 0.15 2.10 -0.40 3.15 -0.65 3.35 -0.65 0.50z"/>
  <path d="M0 14.05 c0 -0.60 0.25 -1.05 0.50 -1.05 0.30 0 0.50 0.30 0.50 0.70 0 0.40 -0.20 0.90 -0.50 1.05 -0.25 0.15 -0.50 -0.15 -0.50 -0.70z"/>
  <path d="M30 12.65 c0 -0.90 0.25 -1.65 0.50 -1.65 0.65 0 0.65 1.50 0 2.50 -0.35 0.55 -0.50 0.35 -0.50 -0.85z"/>
  <path d="M38.35 12.55 c-1.10 -1.90 -1.05 -2.30 0.25 -3.55 1.30 -1.20 1.70 -1 0.80 0.45 -0.50 0.80 -0.50 1.15 0 1.65 0.65 0.65 0.85 2.90 0.20 2.90 -0.20 0 -0.75 -0.65 -1.25 -1.45z"/>
  <path d="M27.40 10 c-0.05 -1.65 0.05 -3.05 0.30 -3.15 0.30 -0.10 0 -0.95 -0.60 -1.95 -1.30 -2.05 -1.50 -4.90 -0.35 -4.90 0.40 0 0.75 0.25 0.75 0.50 0 0.30 -0.20 0.50 -0.50 0.50 -1 0 -0.50 0.85 0.90 1.50 0.75 0.35 1.10 0.75 0.75 0.85 -0.90 0.30 -0.80 1.65 0.05 1.65 0.55 0 0.65 0.75 0.55 3.40 -0.20 4.65 -0.15 4.60 -0.95 4.60 -0.50 0 -0.75 -0.85 -0.90 -3z"/>
  <path d="M1.05 10.40 c-0.05 -2 0.15 -2.50 1.50 -3.65 0.90 -0.70 1.90 -1.20 2.25 -1.05 0.40 0.15 0.70 -0.05 0.70 -0.40 0 -0.90 3.50 -3 3.50 -2.15 0.05 0.35 0.50 0.05 1.05 -0.60 1.10 -1.30 3.15 -2.55 4.25 -2.55 1.05 0 0.85 0.75 -0.40 1.40 -1.30 0.65 -1.90 1.05 -5.95 3.70 -2.70 1.75 -5.95 5.20 -6.60 6.90 -0.15 0.40 -0.30 -0.30 -0.30 -1.60z"/>
  <path d="M12.50 9.20 c0 -1.10 0.10 -1.20 0.75 -0.70 0.40 0.35 1.20 0.45 1.85 0.25 1 -0.30 1.05 -0.25 0.40 0.40 -0.40 0.40 -1.25 0.90 -1.85 1.10 -1 0.25 -1.15 0.15 -1.15 -1.05z"/>
  <path d="M30 8.80 c0 -0.70 0.25 -1.40 0.50 -1.55 0.30 -0.20 0.50 0.35 0.50 1.20 0 0.85 -0.20 1.55 -0.50 1.55 -0.25 0 -0.50 -0.55 -0.50 -1.20z"/>
  <path d="M36.40 8.50 c0.90 -0.85 1.90 -1.50 2.25 -1.50 0.30 0 -0.15 0.70 -1.05 1.50 -0.90 0.85 -1.90 1.50 -2.25 1.50 -0.30 0 0.15 -0.70 1.05 -1.50z"/>
  <path d="M10.25 7.50 c0.80 -0.80 1.65 -1.50 1.85 -1.50 0.25 0 -0.05 0.70 -0.70 1.50 -0.60 0.85 -1.45 1.50 -1.85 1.50 -0.50 0 -0.30 -0.45 0.70 -1.50z"/>
  <path d="M0 7.50 c0 -0.25 0.20 -0.50 0.45 -0.50 0.25 0 0.60 -0.45 0.80 -0.95 0.15 -0.55 1.40 -1.85 2.75 -2.85 1.40 -1.05 2.50 -2.20 2.50 -2.60 0 -0.75 2.10 -0.65 2.35 0.15 0.05 0.30 -0.70 1.05 -1.70 1.75 -1.05 0.70 -3.05 2.20 -4.50 3.40 -1.45 1.15 -2.65 1.90 -2.65 1.60z"/>
  <path d="M32.60 6 c0.45 -1.35 1.40 -2.50 1.40 -1.75 0 0.45 -1.50 3.25 -1.75 3.25 -0.10 0 0.05 -0.70 0.35 -1.50z"/>
  <path d="M1.50 3.25 c0 -0.15 0.50 -0.95 1.10 -1.75 0.70 -1 1.50 -1.50 2.35 -1.50 1.25 0 1.25 0.05 -0.70 1.75 -1.90 1.60 -2.75 2.10 -2.75 1.50z"/>
  <path d="M23.50 1.75 c-0.65 -0.70 -1.05 -1.35 -0.90 -1.50 0.10 -0.15 0.75 0.30 1.40 1 0.65 0.70 1.05 1.35 0.90 1.50 -0.10 0.15 -0.75 -0.30 -1.40 -1z"/>
  <path d="M0 1.25 c0 -1 0.25 -1.25 1.25 -1.25 1.50 0 1.60 0.55 0.35 1.65 -1.25 1.15 -1.60 1.05 -1.60 -0.40z"/>
  <path d="M32.65 1.80 c0.45 -0.35 0.85 -0.90 0.85 -1.25 0 -0.30 0.50 -0.55 1.10 -0.55 1 0 1 0.05 0.20 0.95 -0.50 0.50 -1.35 1.05 -1.95 1.25 -1 0.25 -1 0.20 -0.20 -0.40z"/>
  <path d="M28.25 1.50 c-0.20 -0.30 0.35 -0.50 1.25 -0.50 0.90 0 1.45 0.20 1.25 0.50 -0.15 0.30 -0.75 0.50 -1.25 0.50 -0.50 0 -1.10 -0.20 -1.25 -0.50z"/>
 </g>
 <g fill="#5a9cc1">
  <path d="M31 25.25 c0.85 -1.05 4.50 -3.40 4.80 -3.10 0.20 0.15 -2.40 2.10 -4.80 3.55 -0.65 0.45 -0.65 0.40 0 -0.45z"/>
 </g>
 <g fill="#909db1">
  <path d="M17.10 30.40 c-0.35 -0.35 -0.60 -1.30 -0.55 -2.10 l0.05 -1.55 0.70 1.70 c0.70 1.55 0.90 1.65 2.75 1.45 1.75 -0.15 1.90 -0.10 1.15 0.45 -1.10 0.80 -3.30 0.85 -4.10 0.05z"/>
  <path d="M13.75 24.50 c-1 -0.40 -0.95 -0.45 0.05 -0.45 0.60 -0.05 1.80 -0.20 2.65 -0.35 1.35 -0.30 1.50 -0.20 1.25 0.55 -0.25 0.60 -0.45 0.65 -0.70 0.25 -0.25 -0.45 -0.45 -0.45 -0.70 -0.05 -0.40 0.65 -1.15 0.65 -2.55 0.05z"/>
  <path d="M11.10 23.45 c0.20 -0.70 5.65 -2.10 6.65 -1.75 0.30 0.10 -0.40 0.35 -1.50 0.50 -1.10 0.20 -2.55 0.60 -3.25 0.95 -0.70 0.30 -1.45 0.65 -1.70 0.75 -0.25 0.15 -0.30 -0.10 -0.20 -0.45z"/>
  <path d="M7.85 19.65 c2.40 -3.55 2.70 -5.70 1.10 -8.35 -1.25 -2.15 -1.85 -2.25 -2.25 -0.40 -0.55 2.65 -1.25 3.50 -0.95 1.15 0.15 -1.20 0.40 -2.40 0.55 -2.65 0.50 -0.80 1.65 -0.40 2.90 1.15 0.75 0.90 1.55 1.35 1.85 1.15 0.45 -0.25 0.50 0 0.25 0.85 -0.20 0.65 -0.60 2.15 -0.80 3.30 -0.60 2.85 -1.85 5.15 -2.80 5.15 -0.65 0 -0.65 -0.20 0.15 -1.35z"/>
  <path d="M37.40 18.90 c-0.50 -0.60 -0.90 -1.80 -0.85 -2.65 0 -0.80 0.15 -1.15 0.30 -0.75 0.15 0.40 0.70 1.60 1.25 2.65 1 2.05 0.65 2.45 -0.70 0.75z"/>
  <path d="M4.05 15.90 c0.05 -1.75 0.25 -3.70 0.45 -4.40 0.25 -0.80 0.40 0.30 0.35 3.15 -0.05 2.40 -0.25 4.35 -0.45 4.35 -0.20 0 -0.40 -1.40 -0.35 -3.10z"/>
  <path d="M38.70 17.05 c-0.50 -1.25 -0.45 -1.40 0.35 -1.20 0.60 0.15 0.95 0.70 0.95 1.45 0 1.65 -0.65 1.50 -1.30 -0.25z"/>
  <path d="M27.55 11.90 c-0.05 -3.20 0.15 -4.90 0.50 -4.90 0.30 0 0.10 -0.60 -0.45 -1.35 -2.10 -3.05 -1.75 -4.70 0.70 -2.95 0.85 0.65 0.95 1.25 0.85 5.15 -0.05 2.40 -0.45 5.40 -0.80 6.65 l-0.75 2.25 -0.05 -4.85z"/>
  <path d="M13.50 15.50 c-0.50 -2.40 -0.30 -2.80 1.70 -4.20 1.10 -0.80 1.75 -1.10 1.40 -0.65 -0.40 0.45 -0.55 1.05 -0.40 1.30 0.20 0.30 -0.35 1.25 -1.15 2.15 -0.85 0.90 -1.55 1.55 -1.55 1.40z"/>
  <path d="M0 12.55 c0 -1.45 0.25 -2.05 0.90 -2.20 0.80 -0.20 0.80 -0.25 -0.05 -0.30 -0.80 -0.05 -0.80 -0.15 -0.05 -1.30 0.45 -0.65 1.95 -2.05 3.40 -3.05 1.40 -1.05 2.25 -1.50 1.85 -1.05 -0.60 0.75 -0.55 0.85 0.20 0.85 0.65 0 0.40 0.40 -0.85 1.40 -2.15 1.60 -3.80 4.10 -4.25 6.10 -0.40 2.15 -1.15 1.85 -1.15 -0.45z"/>
  <path d="M2.50 13.05 c0 -0.85 0.20 -1.60 0.40 -1.75 0.20 -0.10 0.30 0.55 0.20 1.50 -0.25 2.10 -0.60 2.25 -0.60 0.25z"/>
  <path d="M34.80 13.70 c-0.60 -1.60 -0.30 -2.70 0.70 -2.70 0.80 0 1 0.35 1 1.75 0 1.85 -1.10 2.45 -1.70 0.95z"/>
  <path d="M30.05 12.40 c-0.05 -0.80 0.20 -1.40 0.45 -1.40 0.60 0 0.60 0.40 0 1.75 -0.40 0.90 -0.45 0.85 -0.45 -0.35z"/>
  <path d="M38.20 11.70 c-0.80 -1.20 -0.80 -1.30 0.10 -2.25 1 -0.95 1 -0.95 0.80 0.80 -0.15 1.05 0 1.75 0.35 1.75 0.30 0 0.55 0.25 0.55 0.50 0 0.95 -0.95 0.50 -1.80 -0.80z"/>
  <path d="M13 10.05 c0 -0.25 -0.15 -0.90 -0.30 -1.40 -0.20 -0.55 -0.15 -0.70 0.15 -0.35 0.20 0.35 0.95 0.70 1.65 0.75 l1.20 0.20 -1.35 0.60 c-0.75 0.35 -1.35 0.45 -1.35 0.20z"/>
  <path d="M4.50 9.65 c0 -0.25 0.60 -1 1.40 -1.70 l1.35 -1.20 -1.25 1.50 c-0.70 0.85 -1.30 1.60 -1.35 1.70 -0.10 0.10 -0.15 0 -0.15 -0.30z"/>
  <path d="M30.15 9.20 c-0.15 -0.40 -0.05 -1 0.30 -1.35 0.40 -0.40 0.55 -0.20 0.55 0.80 0 1.50 -0.35 1.75 -0.85 0.55z"/>
  <path d="M36 8.95 c2.15 -1.70 3.30 -2.10 1.60 -0.50 -0.90 0.85 -1.90 1.55 -2.25 1.55 -0.30 0 -0.05 -0.45 0.65 -1.05z"/>
  <path d="M9.50 8.60 c0 -0.25 0.55 -0.95 1.25 -1.60 1.45 -1.35 1.60 -1.05 0.45 0.75 -0.80 1.20 -1.70 1.65 -1.70 0.85z"/>
  <path d="M4.15 3.20 c3.10 -2.95 3.60 -3.25 5.25 -3.10 l1.85 0.15 -2.25 1.10 c-1.25 0.65 -3.35 2.05 -4.75 3.15 -3.85 3.05 -3.90 2.35 -0.10 -1.30z"/>
  <path d="M8 4.55 c0 -0.25 0.30 -0.60 0.65 -0.70 0.45 -0.20 0.45 -0.30 -0.05 -0.30 -0.70 -0.05 -0.35 -1.05 0.40 -1.05 0.85 0 0.85 1.35 -0.05 1.90 -0.50 0.35 -0.95 0.40 -0.95 0.15z"/>
  <path d="M1.50 3.15 c0.05 -0.95 2.55 -3.15 3.60 -3.15 1.10 0.05 1.10 0.10 -0.35 1.30 -1.90 1.55 -3.25 2.35 -3.25 1.85z"/>
  <path d="M10.80 2.20 c-0.20 -0.55 0.05 -0.90 0.70 -1.05 0.55 -0.15 1 -0.45 1 -0.70 0 -0.25 0.60 -0.45 1.40 -0.45 l1.35 0.05 -1.25 0.95 c-0.70 0.55 -1.50 1.20 -1.85 1.50 -0.80 0.65 -1 0.65 -1.35 -0.30z"/>
  <path d="M0 1.50 c0 -0.75 0.35 -1 1.25 -1 l1.25 0 -1 1 c-0.55 0.55 -1.10 1 -1.25 1 -0.15 0 -0.25 -0.45 -0.25 -1z"/>
  <path d="M26 0.50 c0 -0.25 0.35 -0.50 0.75 -0.50 0.40 0 0.75 0.25 0.75 0.50 0 0.30 -0.35 0.50 -0.75 0.50 -0.40 0 -0.75 -0.20 -0.75 -0.50z"/>
 </g>
 <g fill="#a7b1c1">
  <path d="M17.65 30.50 c-0.85 -0.35 -1.15 -0.85 -1.10 -1.85 l0 -1.40 0.50 1.25 c0.65 1.60 1.45 2.05 2.95 1.75 0.95 -0.20 1.05 -0.15 0.50 0.25 -0.90 0.60 -1.40 0.60 -2.85 0z"/>
  <path d="M13 24.80 c0 -0.55 0.45 -0.80 1.50 -0.80 0.85 0 1.50 0.25 1.50 0.50 0 0.30 -0.30 0.50 -0.70 0.50 -0.40 0 -1.05 0.15 -1.50 0.30 -0.55 0.20 -0.80 0.05 -0.80 -0.50z"/>
  <path d="M7.50 20.75 c0 -0.60 1.70 -3.25 2.10 -3.25 0.60 0 -0.80 3.15 -1.50 3.40 -0.35 0.10 -0.60 0.05 -0.60 -0.15z"/>
  <path d="M37.75 19.30 c-1.70 -1.85 -2.70 -3.85 -3 -5.95 -0.35 -2.15 -0.30 -2.35 0.70 -2.35 0.65 0 0.95 0.25 0.75 0.70 -0.15 0.40 0.30 2.35 1 4.35 1.30 3.80 1.40 4.25 0.55 3.25z"/>
  <path d="M4.35 18.65 c-0.20 -0.15 -0.35 -0.80 -0.30 -1.35 0 -0.95 0.05 -0.95 0.50 0.15 0.50 1.20 0.40 1.80 -0.20 1.20z"/>
  <path d="M4.10 14.75 c0 -0.80 0.20 -2.05 0.40 -2.75 0.35 -1.15 0.40 -1.10 0.40 0.50 0 0.95 -0.15 2.20 -0.40 2.75 -0.35 0.85 -0.45 0.75 -0.40 -0.50z"/>
  <path d="M10.25 14.50 c0.15 -0.95 0.50 -1.95 0.75 -2.20 0.35 -0.35 0.35 -0.05 0.05 0.95 -0.85 2.70 -1.05 3.05 -0.80 1.25z"/>
  <path d="M27.55 14.60 c-0.05 -0.90 0.30 -2 0.70 -2.45 0.70 -0.70 0.75 -0.65 0.45 0.65 -0.20 0.80 -0.55 1.90 -0.75 2.45 -0.30 0.80 -0.40 0.70 -0.40 -0.65z"/>
  <path d="M13.60 13.85 c0.10 -0.75 0.70 -1.70 1.30 -2.15 1 -0.70 1.10 -0.70 1.10 0.20 0 0.50 -0.60 1.45 -1.30 2.15 l-1.25 1.20 0.15 -1.40z"/>
  <path d="M0.10 11.90 c0.05 -2.50 1.10 -4.10 4.25 -6.35 2.10 -1.50 4.15 -2.05 4.15 -1.05 0 0.30 -0.35 0.50 -0.75 0.50 -0.40 0 -0.75 0.15 -0.75 0.40 0 0.20 -0.70 0.80 -1.50 1.35 -1.70 1.10 -4.50 5.10 -4.50 6.40 0 0.50 -0.20 0.85 -0.45 0.85 -0.30 0 -0.45 -0.95 -0.45 -2.10z"/>
  <path d="M5.55 13 c0.05 -0.40 0.25 -1.30 0.45 -2 l0.40 -1.25 0.05 1.25 c0 0.70 -0.20 1.60 -0.45 2 -0.45 0.65 -0.50 0.65 -0.45 0z"/>
  <path d="M30 12.40 c0 -0.80 0.25 -1.40 0.50 -1.40 0.65 0 0.65 1 0 2 -0.40 0.60 -0.50 0.45 -0.50 -0.60z"/>
  <path d="M9.15 11.40 c-1.15 -1.50 -1.20 -2.05 -0.10 -1.05 0.60 0.60 1 1.25 0.85 1.40 -0.15 0.15 -0.50 0 -0.75 -0.35z"/>
  <path d="M38.05 11.05 c-0.40 -0.65 -0.35 -1.10 0.10 -1.45 0.45 -0.40 0.60 -0.15 0.65 0.95 0.05 1.70 -0.10 1.80 -0.75 0.50z"/>
  <path d="M28.55 10.40 c0 -0.50 -0.25 -0.90 -0.55 -0.90 -0.25 0 -0.50 -0.60 -0.50 -1.30 0 -0.95 0.20 -1.25 0.70 -1.05 0.45 0.20 0.25 -0.40 -0.50 -1.50 -1.35 -2 -1.35 -2.90 0.05 -2.90 1.25 0 1.85 2.75 1.30 6.05 -0.25 1.35 -0.45 2.05 -0.50 1.60z"/>
  <path d="M13 10.05 c0 -0.40 2.05 -1.15 2.35 -0.85 0.10 0.05 -0.40 0.40 -1.10 0.70 -0.70 0.30 -1.25 0.40 -1.25 0.15z"/>
  <path d="M30.35 9.65 c-0.15 -0.25 -0.05 -0.85 0.20 -1.40 0.35 -0.85 0.40 -0.85 0.40 0.40 0.05 1.35 -0.20 1.70 -0.60 1z"/>
  <path d="M9.95 8.10 c0.60 -1.10 2.05 -2.40 2.05 -1.80 -0.05 0.55 -1.80 2.70 -2.20 2.70 -0.20 0 -0.10 -0.40 0.15 -0.90z"/>
  <path d="M3.25 4.30 c1.40 -1.20 2.65 -2.10 2.90 -1.95 0.60 0.35 0 0.95 -2.45 2.60 -3.20 2.20 -3.35 1.90 -0.45 -0.65z"/>
  <path d="M1.50 3.25 c0 -0.20 0.60 -1.05 1.30 -1.90 1.20 -1.45 1.30 -1.45 1.10 -0.40 -0.15 1.05 -2.40 3.20 -2.40 2.30z"/>
  <path d="M9.30 3.10 c-0.75 -0.15 -0.65 -0.35 0.65 -1.15 0.85 -0.50 1.90 -0.95 2.30 -0.95 0.40 0 0.75 -0.20 0.75 -0.50 0 -0.25 0.50 -0.50 1.15 -0.50 1.10 0.05 1.10 0.05 0.10 0.80 -0.55 0.40 -1.35 1 -1.75 1.35 -1.10 0.90 -2.10 1.20 -3.20 0.95z"/>
  <path d="M0.10 1.45 c0.10 -0.80 0.55 -1.25 1.30 -1.35 1.45 -0.20 1.40 0.40 -0.20 1.60 -1.30 0.90 -1.30 0.90 -1.10 -0.25z"/>
  <path d="M7 0.95 c0 -0.75 0.35 -0.95 1.75 -0.95 0.95 0 1.75 0.20 1.75 0.40 0 0.25 -0.80 0.65 -1.75 0.95 -1.60 0.50 -1.75 0.45 -1.75 -0.40z"/>
 </g>
 <g fill="#b2c1d8">
  <path d="M16.70 29.25 c-0.15 -0.65 -0.20 -1.50 -0.05 -1.85 0.15 -0.35 0.30 -0.10 0.30 0.65 0.05 0.70 0.30 1.50 0.65 1.85 0.45 0.45 0.45 0.60 0 0.60 -0.30 0 -0.70 -0.55 -0.90 -1.25z"/>
  <path d="M13.10 24.90 c0.15 -0.35 0.85 -0.70 1.60 -0.80 0.95 -0.10 1.30 0 1.05 0.35 -0.15 0.30 -0.50 0.45 -0.75 0.30 -0.25 -0.15 -0.55 -0.05 -0.75 0.25 -0.45 0.70 -1.35 0.60 -1.15 -0.10z"/>
  <path d="M7.50 20.60 c0 -0.20 0.25 -0.65 0.50 -0.90 0.30 -0.30 1 -1.65 1.55 -3 0.80 -1.95 0.95 -2.10 0.75 -0.85 -0.35 2.25 -1.65 5.15 -2.25 5.15 -0.30 0 -0.55 -0.20 -0.55 -0.40z"/>
  <path d="M4.15 16.25 c0 -1.35 0.10 -1.90 0.20 -1.10 0.10 0.75 0.10 1.85 0 2.50 -0.10 0.60 -0.20 0 -0.20 -1.40z"/>
  <path d="M27.55 13.15 c-0.05 -2.05 0.10 -2.65 0.70 -2.65 0.90 0 0.90 1.15 0 3.50 l-0.65 1.75 -0.05 -2.60z"/>
  <path d="M34.85 13.65 c-0.20 -1.05 -0.10 -2.10 0.15 -2.35 0.65 -0.65 0.85 -0.40 1.25 2.10 0.25 1.65 0.20 2.10 -0.40 2.10 -0.45 0 -0.85 -0.70 -1 -1.85z"/>
  <path d="M13.70 13.80 c0.10 -0.75 0.65 -1.70 1.20 -2.10 1 -0.70 1.10 -0.70 1.10 0.20 0 0.50 -0.55 1.45 -1.20 2.05 l-1.25 1.15 0.15 -1.30z"/>
  <path d="M0 11.75 c0 -1.45 0.20 -1.75 1.05 -1.75 0.80 0 0.95 0.20 0.70 0.90 -0.20 0.45 -0.50 1.25 -0.60 1.75 -0.45 1.50 -1.15 0.95 -1.15 -0.90z"/>
  <path d="M9 11.25 c-0.35 -0.45 -0.55 -0.90 -0.40 -1 0.15 -0.15 0.55 0.05 0.90 0.50 0.35 0.45 0.55 0.90 0.40 1 -0.15 0.15 -0.55 -0.05 -0.90 -0.50z"/>
  <path d="M2 7.65 c0 -0.20 0.45 -0.70 1.05 -1.05 0.90 -0.60 1 -0.55 0.85 0.25 -0.15 0.85 -1.90 1.60 -1.90 0.80z"/>
  <path d="M1.50 6 c0 -0.25 0.50 -0.75 1.15 -1.05 0.60 -0.30 1.60 -1.20 2.25 -2 0.65 -0.80 1.50 -1.45 1.95 -1.45 0.65 0 0.65 0.15 0.15 0.75 -1 1.20 -5.50 4.30 -5.50 3.75z"/>
  <path d="M5.95 4.45 c1.30 -1.05 1.85 -0.95 1.40 0.30 -0.20 0.40 -0.85 0.75 -1.45 0.75 l-1.15 -0.05 1.20 -1z"/>
  <path d="M26.90 4.40 c-0.30 -0.85 0.70 -1.85 1.45 -1.55 1.05 0.40 0.80 2.15 -0.30 2.15 -0.55 0 -1.05 -0.30 -1.15 -0.60z"/>
 </g>
 <g fill="#cecfd0">
  <path d="M37.75 19.10 c-0.95 -0.65 -2.75 -3.50 -2.75 -4.30 0 -0.45 0.35 -0.80 0.75 -0.80 0.40 0 0.75 0.30 0.75 0.65 0 0.30 0.30 1.15 0.65 1.85 0.75 1.40 1.40 3 1.20 3 -0.05 0 -0.35 -0.20 -0.60 -0.40z"/>
  <path d="M27.55 13.65 c-0.05 -0.85 0.25 -1.70 0.60 -1.85 0.50 -0.25 0.50 -0.35 0 -0.60 -0.35 -0.15 -0.65 -1.20 -0.65 -2.30 0 -1.75 0.10 -1.95 0.75 -1.40 0.90 0.75 0.90 3.60 0 6 l-0.65 1.75 -0.05 -1.60z"/>
  <path d="M30 12.15 c0 -0.65 0.25 -1.15 0.50 -1.15 0.65 0 0.65 0.55 0 1.50 -0.40 0.60 -0.50 0.55 -0.50 -0.35z"/>
  <path d="M1.50 9.35 c0 -1.80 3.10 -4.40 9 -7.65 0.95 -0.50 1.85 -1.10 1.90 -1.30 0.25 -0.50 2.10 -0.50 2.10 0 0 0.40 -6.30 4.60 -6.90 4.60 -0.25 0 -1.70 1.25 -3.25 2.80 -2.65 2.65 -2.85 2.75 -2.85 1.55z"/>
  <path d="M10.45 7.65 c0.60 -1.20 1.55 -1.95 1.55 -1.25 0 0.25 -0.50 0.85 -1.05 1.40 -1.10 0.95 -1.10 0.95 -0.50 -0.15z"/>
  <path d="M27.50 5.40 c-0.90 -1.55 -0.95 -1.65 -0.10 -1.95 1.10 -0.40 1.40 -0.10 1.75 1.95 0.40 2.05 -0.40 2.05 -1.65 0z"/>
  <path d="M4.70 3.20 c1.25 -1.35 2.30 -2.60 2.30 -2.80 0 -0.25 0.80 -0.40 1.75 -0.40 0.95 0 1.75 0.25 1.75 0.50 0 0.30 -0.40 0.50 -0.95 0.50 -0.50 0 -1.50 0.45 -2.20 1 -0.70 0.55 -1.50 1 -1.75 1 -0.25 0 -0.60 0.30 -0.75 0.70 -0.15 0.40 -0.80 1 -1.40 1.30 -0.60 0.35 -0.05 -0.50 1.25 -1.80z"/>
  <path d="M3 2.10 c0 -0.50 1.65 -2.10 2.15 -2.10 0.70 0 0.25 0.80 -0.90 1.65 -0.70 0.50 -1.25 0.70 -1.25 0.45z"/>
 </g>
 <g fill="#cedbef">
  <path d="M13.25 25 c-0.15 -0.25 0.05 -0.65 0.50 -0.80 1.10 -0.45 1.45 0.05 0.55 0.75 -0.50 0.40 -0.80 0.45 -1.05 0.05z"/>
  <path d="M7.50 20.80 c0 -0.10 0.55 -1.20 1.25 -2.35 1.40 -2.50 1.70 -1.90 0.40 0.80 -0.70 1.45 -1.65 2.35 -1.65 1.55z"/>
  <path d="M35.60 16.15 c-0.30 -0.80 -0.70 -2.20 -0.85 -3.15 -0.30 -1.55 -0.25 -1.65 0.40 -1 0.40 0.40 1.05 1.80 1.50 3.15 0.65 1.90 0.65 2.35 0.15 2.35 -0.40 0 -0.90 -0.60 -1.20 -1.35z"/>
  <path d="M27.50 12.50 c0 -0.55 0.30 -1 0.70 -1 0.45 0 0.60 0.35 0.45 1 -0.15 0.55 -0.45 1 -0.70 1 -0.25 0 -0.45 -0.45 -0.45 -1z"/>
  <path d="M0.35 12.70 c-0.80 -0.80 -0.35 -2.20 0.70 -2.20 0.80 0 0.95 0.15 0.60 0.65 -0.30 0.30 -0.60 0.90 -0.70 1.25 -0.15 0.35 -0.40 0.50 -0.60 0.30z"/>
  <path d="M27.50 7.70 c0 -0.70 0.15 -0.70 0.75 -0.20 0.40 0.35 0.75 0.70 0.75 0.80 0 0.10 -0.35 0.20 -0.75 0.20 -0.40 0 -0.75 -0.35 -0.75 -0.80z"/>
  <path d="M3.75 6.20 c1.70 -1.30 2.75 -1.80 2.75 -1.25 0 0.65 -2.05 2.05 -3 2.05 -0.55 -0.05 -0.50 -0.20 0.25 -0.80z"/>
  <path d="M28 6.05 c-0.30 -0.60 -0.35 -1.40 -0.05 -2.15 0.50 -1.25 0.70 -0.95 1.25 1.75 0.35 1.55 -0.40 1.80 -1.20 0.40z"/>
  <path d="M2 2.65 c0.05 -0.80 1.95 -2.65 2.70 -2.65 1.10 0 1 0.35 -0.55 1.75 -1.45 1.25 -2.15 1.55 -2.15 0.90z"/>
  <path d="M0.50 1 c0 -0.70 0.35 -1 1.10 -1 1 0 1.05 0.05 0.15 1 -0.50 0.55 -1 1 -1.10 1 -0.05 0 -0.15 -0.45 -0.15 -1z"/>
 </g>
 <g fill="#f0f3f5">
  <path d="M37.15 18.40 c-1.25 -1.40 -2.15 -3.10 -2.15 -4.10 0 -1.45 0.85 -0.80 1.75 1.35 0.50 1.15 1.10 2.50 1.30 3 0.55 1.15 0.35 1.10 -0.90 -0.25z"/>
  <path d="M27.60 10.40 c0.05 -2.75 0.20 -3.25 0.75 -2.85 0.90 0.75 0.85 4 -0.10 5.25 -0.65 0.85 -0.70 0.65 -0.65 -2.40z"/>
  <path d="M0 11.25 c0 -1.70 2.45 -4.25 6.65 -7 2.45 -1.60 4.90 -3 5.40 -3.10 0.55 -0.15 0.95 -0.45 0.95 -0.70 0 -0.25 0.35 -0.45 0.75 -0.45 1.45 0 0.70 0.80 -2.85 3 -5.30 3.20 -6.80 4.40 -8.45 6.85 -1.55 2.20 -2.45 2.75 -2.45 1.40z"/>
  <path d="M28 6.05 c-0.65 -1.30 -0.65 -1.55 0.25 -1.55 0.45 0 0.75 0.45 0.75 1.25 0 1.50 -0.30 1.60 -1 0.30z"/>
  <path d="M2 2.65 c0.05 -0.80 1.95 -2.65 2.75 -2.65 0.45 0 0.70 0.20 0.50 0.50 -0.45 0.75 -3.25 2.60 -3.25 2.15z"/>
  <path d="M0 1 c0 -0.65 0.35 -1 1 -1 1.15 0 1.30 0.50 0.40 1.40 -0.90 0.90 -1.40 0.75 -1.40 -0.40z"/>
  <path d="M7 0.75 c0 -0.55 0.55 -0.75 1.85 -0.75 2.05 0 1.75 0.65 -0.45 1.20 -1.05 0.25 -1.40 0.15 -1.40 -0.45z"/>
 </g>
</svg>