<?xml version="1.0" encoding="utf-8"?>
<!DOCTYPE svg PUBLIC "-//W3C//DTD SVG 1.0//EN" "http://www.w3.org/TR/2001/REC-SVG-20010904/DTD/svg10.dtd">
<svg version="1.0" xmlns="http://www.w3.org/2000/svg" width="40px" height="40px" viewBox="0 0 40 40" preserveAspectRatio="xMidYMid meet">
 <g fill="#070b10">
  <path d="M21 32.35 c0 -1.35 0.40 -2 1.80 -3.15 3.70 -2.95 4.55 -3.95 4.85 -5.80 0.15 -1.05 0.10 -1.90 -0.20 -1.90 -0.25 0 -0.45 0.25 -0.45 0.50 0 0.30 -1.25 0.50 -2.75 0.50 l-2.75 0 0 -2 0 -2 2.65 -0.05 c1.40 -0.05 2.15 -0.15 1.60 -0.30 -0.55 -0.15 -1.25 -0.50 -1.50 -0.90 -0.30 -0.35 -1.55 -0.80 -2.75 -0.95 -3.80 -0.60 -4 -0.75 -4 -2.45 0.05 -1.25 0.40 -1.85 1.80 -2.70 2.45 -1.55 3.90 -1.45 5.70 0.40 0.80 0.90 1.50 1.35 1.50 1 0 -0.30 0.75 -0.55 1.70 -0.55 1.35 0 1.80 0.25 2.25 1.40 0.80 1.90 1.55 6.85 1.55 10.25 0 2.55 0.10 2.85 1.05 2.85 0.90 0 1 0.25 0.85 2.15 -0.15 2.05 -0.20 2.10 -2 2.25 -1.45 0.10 -1.90 -0.05 -1.90 -0.60 0 -0.60 -0.60 -0.35 -2.35 0.85 -1.35 0.85 -2.60 1.90 -2.80 2.25 -0.20 0.30 -1.20 0.60 -2.10 0.60 -1.65 0 -1.75 -0.10 -1.75 -1.65z"/>
  <path d="M5 24.75 l0 -3.25 1.75 0 1.75 0 0 3.25 0 3.25 -1.75 0 -1.75 0 0 -3.25z"/>
  <path d="M11.15 24.65 c-0.60 -2.95 -0.45 -7.25 0.35 -9 0.60 -1.40 1 -1.65 2.35 -1.65 1.60 0 1.65 0.10 1.65 2 0 1.95 0.05 2 1.75 2 1.65 0 1.75 0.10 1.75 1.75 0 1.70 -0.05 1.75 -2 1.75 -1.45 0 -2 -0.20 -2 -0.75 0 -0.40 -0.20 -0.75 -0.45 -0.75 -0.25 0 -0.25 0.80 0 1.90 0.25 1 0.45 2.45 0.45 3.25 0 1.20 -0.15 1.35 -1.75 1.35 -1.55 0 -1.75 -0.15 -2.10 -1.85z"/>
 </g>
 <g fill="#251813">
  <path d="M10.15 39.05 c-1.55 -1.30 -1.45 -1.55 0.60 -1.55 1.55 0 1.75 0.15 1.75 1.25 0 1.50 -0.80 1.55 -2.35 0.30z"/>
  <path d="M23 38.25 c0 -1.20 -0.25 -1.75 -0.75 -1.75 -0.40 0 -0.75 -0.45 -0.75 -1 0 -0.55 -0.25 -1 -0.55 -1 -0.35 0 -0.50 -0.85 -0.35 -2.25 0.15 -2.05 0.05 -2.25 -0.95 -2.25 -1 0 -1.15 -0.25 -1.15 -1.75 l0 -1.75 2.50 0 c1.90 0 2.50 0.20 2.50 0.75 0 1.35 1.75 0.80 2.45 -0.75 0.55 -1.30 0.90 -1.50 2.35 -1.40 1.50 0.10 1.70 0.25 1.70 1.55 0 1.95 -0.85 3.35 -2 3.35 -0.55 0 -1 0.35 -1 0.75 0 0.45 -0.50 0.75 -1.30 0.75 -1.15 0 -1.25 0.15 -0.95 1.50 0.25 1.15 0.15 1.50 -0.45 1.50 -1 0 -1.05 1.50 -0.05 2.80 1.05 1.40 0.95 2.70 -0.25 2.70 -0.80 0 -1 -0.35 -1 -1.75z m3.90 -9.10 c0.85 -0.65 1.60 -1.40 1.60 -1.65 0 -0.25 -0.50 0.05 -1.10 0.65 -0.65 0.60 -1.70 1.50 -2.40 2 -0.70 0.50 -0.90 0.75 -0.50 0.55 0.40 -0.20 1.50 -0.90 2.40 -1.55z"/>
  <path d="M8 37 c0 -0.25 -0.30 -0.50 -0.70 -0.50 -0.60 0 -1.30 -1 -1.30 -1.80 0 -0.10 0.55 -0.20 1.25 -0.20 1.05 0 1.25 0.25 1.25 1.50 0 0.85 -0.10 1.50 -0.25 1.50 -0.15 0 -0.25 -0.20 -0.25 -0.50z"/>
  <path d="M7.50 26.75 c0 -1.65 0.10 -1.75 1.75 -1.75 1.65 0 1.75 0.10 1.75 1.75 0 1.65 -0.10 1.75 -1.75 1.75 -1.65 0 -1.75 -0.10 -1.75 -1.75z"/>
  <path d="M21.20 23.35 c-0.15 -0.40 -0.85 -0.55 -2.05 -0.45 -1.35 0.15 -2 0 -2.50 -0.70 -0.55 -0.75 -0.65 -0.75 -0.65 -0.10 0 0.45 -0.50 0.90 -1.10 1.10 -1.65 0.40 -1.80 0.40 -2.05 -0.55 -0.20 -0.85 -0.25 -0.85 -0.30 0 0 0.45 -0.40 0.85 -0.80 0.85 -0.65 0 -0.75 -0.65 -0.65 -3.60 0.15 -4 -0.15 -3.70 3.80 -3.85 0.90 -0.05 1.10 -0.35 1.10 -1.55 0 -1.25 0.20 -1.50 1.20 -1.50 1.75 0 2.80 -0.50 2.80 -1.30 0 -0.45 0.60 -0.70 1.75 -0.70 1.20 0 1.75 0.25 1.75 0.70 0 0.40 0.45 0.90 1 1.05 0.70 0.20 1 0.75 1 1.75 0 1.45 0.60 2.25 1.20 1.65 0.15 -0.15 0.05 -0.60 -0.25 -1 -0.45 -0.50 -0.30 -0.65 0.70 -0.65 0.95 0 1.30 0.35 1.55 1.40 1.20 4.70 1.30 5 1.05 2.50 -0.15 -1.80 -0.05 -2.40 0.45 -2.40 0.70 0 1.30 3 1.30 6.30 0 2.20 -1 2.25 -1.05 0.10 l-0.05 -1.65 -0.55 1.65 c-0.55 1.75 -0.70 1.75 -3.95 0.80 -0.50 -0.15 -0.90 -0.05 -0.90 0.25 0 0.80 -3.50 0.70 -3.80 -0.10z m4.30 -2.85 c0 -0.25 -0.55 -0.50 -1.25 -0.50 -0.70 0 -1.25 0.25 -1.25 0.50 0 0.30 0.55 0.50 1.25 0.50 0.70 0 1.25 -0.20 1.25 -0.50z m-2.15 -7.65 l-1.10 -1.10 -1.55 1 c-1 0.65 -1.35 1.15 -1 1.35 0.30 0.20 0.90 -0.10 1.30 -0.65 0.80 -1 0.80 -1 1.50 0.25 0.50 0.95 0.85 1.15 1.30 0.75 0.50 -0.40 0.35 -0.75 -0.45 -1.60z"/>
 </g>
 <g fill="#10212f">
  <path d="M4.75 33.65 c-1.90 -2.25 -2 -2.55 -2 -5.65 0 -3.25 1.05 -7.50 1.85 -7.50 0.20 0 0.40 -0.45 0.40 -1 0 -0.80 0.35 -1 1.75 -1 l1.75 0 0 4.50 0 4.50 -2 0 c-1.80 0 -2 0.15 -2 1.20 0 0.70 0.25 1.40 0.50 1.55 0.30 0.15 0.50 0.75 0.50 1.30 0 0.60 0.35 0.95 1 0.95 0.80 0 1 0.35 1 1.75 0 0.95 -0.15 1.75 -0.35 1.75 -0.25 -0.05 -1.30 -1.10 -2.40 -2.35z"/>
  <path d="M21.30 34.90 c-0.45 -1.80 -0.35 -3.90 0.20 -3.90 0.30 0 0.50 -0.30 0.50 -0.60 0 -0.35 1.05 -1.25 2.30 -2 1.20 -0.75 2.35 -1.75 2.50 -2.25 0.65 -1.95 1.40 -3.15 2.05 -3.15 0.45 0 0.60 0.40 0.40 1.40 -0.15 0.75 -0.10 1.05 0.05 0.70 0.15 -0.30 0.50 -0.50 0.75 -0.30 0.40 0.25 0.70 -1.35 0.45 -2.55 -0.05 -0.25 -0.30 -1.85 -0.55 -3.45 -0.30 -1.65 -0.75 -3.35 -1 -3.75 -0.40 -0.60 -0.40 -0.30 -0.20 0.95 0.90 4.60 0.90 4.35 0.05 3.30 -0.65 -0.80 -0.80 -0.85 -0.80 -0.20 0 0.40 0.45 1.15 1 1.65 0.55 0.50 0.85 1.10 0.70 1.30 -0.45 0.80 -1.20 0.45 -1.20 -0.50 0 -0.55 -0.45 -1.15 -1 -1.30 -1.25 -0.40 -1.85 -2.50 -0.95 -3.55 0.50 -0.60 0.45 -0.90 -0.20 -1.60 -0.80 -0.75 -0.85 -0.75 -0.85 0.05 0 0.50 -0.40 0.85 -1 0.85 -1.10 0 -1.20 -0.20 -0.60 -1.40 0.30 -0.60 0.10 -1.15 -0.65 -1.85 l-1.05 -1 -1.65 1.10 c-0.95 0.65 -1.45 1.15 -1.10 1.15 0.85 0 0.65 1.85 -0.25 2.20 -0.45 0.15 -1.25 0.30 -1.80 0.30 -0.60 0 -1.35 0.40 -1.70 0.90 -0.50 0.70 -0.80 0.75 -1.60 0.25 -1.10 -0.65 -1.60 -0.40 -1.60 0.90 0 0.55 0.25 0.80 0.70 0.65 0.65 -0.25 1.30 2.55 1.30 5.90 0 1.40 -0.10 1.45 -2.10 1.30 l-2.15 -0.15 0.15 -4.50 c0.10 -3 0.45 -5.15 1.10 -6.60 0.95 -2.10 0.95 -2.15 -0.05 -2.15 -0.50 0 -0.95 -0.35 -0.95 -0.75 0 -0.40 -0.20 -0.75 -0.50 -0.75 -0.25 0 -0.50 0.70 -0.50 1.50 0 1.25 -0.20 1.50 -1.25 1.50 -0.70 0 -1.25 -0.15 -1.25 -0.30 0 -0.60 3.35 -5.40 4.45 -6.40 0.95 -0.85 1.05 -0.85 1.05 -0.15 0 0.55 0.40 0.85 1.25 0.85 0.85 0 1.25 0.30 1.25 0.85 0 0.65 0.30 0.55 1.40 -0.50 0.95 -0.90 1.95 -1.35 3 -1.35 1.35 0 1.60 0.20 1.60 1.25 0 1.10 0.20 1.25 1.70 1.25 1.20 0 1.80 0.25 1.95 0.85 0.20 0.70 0.25 0.60 0.30 -0.20 0.05 -0.80 0.35 -1.15 1.05 -1.15 0.55 0 1 -0.20 1 -0.50 0 -0.90 3.30 -0.55 4.15 0.40 0.95 1.05 1.15 3.90 0.30 4.20 -0.40 0.15 -0.45 0.75 -0.20 1.80 0.25 1.25 0.60 1.60 1.50 1.60 1.05 0 1.20 0.30 1.50 3 l0.35 3 1.70 0 c1.65 0 1.70 0.05 1.70 1.95 0 1.10 0.25 2.05 0.60 2.15 0.50 0.20 0.40 0.90 -0.25 3.10 -1.25 3.90 -3.85 6.45 -3.85 3.75 0 -0.75 -0.20 -0.95 -0.80 -0.75 -0.45 0.15 -1.40 0.35 -2.10 0.35 -0.85 0.05 -1.05 0.15 -0.45 0.30 1 0.25 1.15 2.15 0.15 2.15 -0.35 0 -1.65 -0.35 -2.80 -0.75 -1.15 -0.40 -2.90 -0.75 -3.80 -0.75 -1.30 0 -1.60 0.20 -1.40 0.75 0.20 0.50 0 0.75 -0.70 0.75 -0.60 0 -1.10 -0.45 -1.30 -1.10z m5.60 -5.75 c0.85 -0.65 1.60 -1.60 1.60 -2.05 0 -0.60 -0.30 -0.45 -0.90 0.55 -0.45 0.75 -1.20 1.50 -1.65 1.60 -0.50 0.15 -1.15 0.65 -1.55 1.10 -0.55 0.70 -0.55 0.80 0.10 0.40 0.40 -0.20 1.50 -0.95 2.40 -1.60z m-13.90 -7.40 c0 -0.95 -0.20 -1.75 -0.40 -1.75 -0.20 0 -0.30 0.80 -0.20 1.75 0.10 0.95 0.30 1.75 0.40 1.75 0.10 0 0.20 -0.80 0.20 -1.75z"/>
  <path d="M37 20.25 c0 -2 1.20 -2.45 1.70 -0.60 0.50 1.85 0.35 2.35 -0.70 2.35 -0.80 0 -1 -0.35 -1 -1.75z"/>
  <path d="M35.50 16.75 c0 -0.70 -0.20 -1.25 -0.50 -1.25 -0.25 0 -0.50 -0.65 -0.50 -1.50 0 -1.15 -0.20 -1.50 -1 -1.50 -0.80 0 -1 -0.35 -1 -1.80 0 -2.10 0.55 -1.90 2.40 0.95 1.20 1.90 3.10 5.65 3.10 6.15 0 0.10 -0.55 0.20 -1.25 0.20 -1 0 -1.25 -0.25 -1.25 -1.25z"/>
  <path d="M20.85 13.95 c0.15 -0.55 0.45 -0.95 0.70 -0.95 0.20 0 0.65 0.40 0.90 0.95 0.45 0.80 0.35 0.95 -0.65 0.95 -0.90 0 -1.10 -0.25 -0.95 -0.95z"/>
  <path d="M27.15 6.50 c-0.15 -0.55 -0.60 -1 -0.95 -1 -0.40 0 -0.70 -0.50 -0.70 -1.15 0 -0.85 -0.45 -1.25 -2 -1.75 -1.10 -0.30 -2.65 -0.60 -3.50 -0.60 -1.40 0 -1.45 -0.10 -0.90 -1 0.40 -0.60 1.20 -1 1.95 -1 1.60 0 4.45 0.95 4.45 1.50 0 0.20 1.30 1.65 2.85 3.20 l2.80 2.80 -1.85 0 c-1.45 0 -1.95 -0.20 -2.15 -1z"/>
  <path d="M13.75 5.50 c0.15 -0.25 0.95 -0.95 1.75 -1.50 l1.50 -1.05 0 1.50 c0 1.45 -0.15 1.55 -1.80 1.55 -1 0 -1.65 -0.20 -1.45 -0.50z"/>
 </g>
 <g fill="#432a13">
  <path d="M10.75 39.50 c-0.25 -0.25 -1.45 -1.30 -2.60 -2.35 -1.20 -1 -2.15 -2.15 -2.15 -2.45 0 -0.35 -0.30 -0.75 -0.60 -0.85 -0.35 -0.15 -0.05 -0.30 0.70 -0.30 1.75 -0.05 3.10 -0.60 2.50 -1 -0.30 -0.15 -0.65 -1.80 -0.85 -3.65 l-0.35 -3.40 1.55 0 c1.20 0 1.55 -0.20 1.55 -1 0 -1.15 0.75 -1.35 1.20 -0.25 0.15 0.40 0.60 0.75 1 0.75 0.50 0 0.65 -0.30 0.50 -0.75 -0.20 -0.40 -0.05 -0.75 0.25 -0.75 0.30 0 0.55 0.25 0.55 0.50 0 0.30 0.25 0.50 0.55 0.50 0.85 0 1.90 1.60 1.95 2.90 0 0.75 0.30 1.10 1 1.10 0.75 0 1 -0.35 1 -1.25 0 -1.10 0.20 -1.25 2 -1.25 1.10 0 2 0.25 2 0.50 0 0.30 1.25 0.50 2.75 0.50 2.65 0 2.75 0.05 2.15 1 -0.35 0.55 -1 1.15 -1.40 1.25 -1.35 0.50 -4.20 3.20 -3.80 3.60 0.25 0.25 0.55 0.10 0.65 -0.20 0.15 -0.35 0.70 -0.65 1.25 -0.65 0.70 0 0.90 0.25 0.70 0.80 -0.15 0.45 -0.30 1 -0.30 1.25 0 0.20 -0.35 0.30 -0.80 0.10 -0.65 -0.25 -0.75 -0.10 -0.45 0.90 0.20 0.65 0.70 1.80 1.05 2.55 0.40 0.75 0.70 1.60 0.70 1.90 0 0.80 -2.10 0.40 -2.50 -0.50 -0.20 -0.40 -0.70 -1.40 -1.05 -2.25 -0.40 -0.80 -1 -1.70 -1.30 -1.90 -0.35 -0.20 -0.65 -0.85 -0.65 -1.35 0 -0.90 -0.35 -1 -3 -1 -1.65 0 -3 0.20 -3 0.50 0 0.30 -0.50 0.50 -1.10 0.55 -1.05 0.05 -1 0.10 0.25 0.55 0.75 0.25 1.35 0.85 1.35 1.30 0 0.50 0.15 1.70 0.30 2.75 0.35 1.85 0.30 1.85 -1.35 1.85 -0.95 -0.05 -1.90 -0.25 -2.20 -0.50z"/>
  <path d="M28.15 22.45 c0.35 -1.35 -0.05 -2.45 -0.95 -2.45 -0.40 0 -0.70 -0.25 -0.70 -0.55 0 -0.25 -0.20 -0.35 -0.50 -0.20 -0.30 0.20 -0.50 -0.30 -0.50 -1.15 0 -1.10 0.30 -1.55 1.15 -1.80 1.30 -0.35 2.85 1.20 2.85 2.90 -0.05 1 -0.05 1.05 -0.75 0.10 -0.40 -0.55 -0.85 -0.85 -1 -0.70 -0.15 0.15 0.25 0.90 0.90 1.70 1.25 1.55 1.25 3.20 0 3.20 -0.55 0 -0.70 -0.30 -0.50 -1.05z"/>
  <path d="M30.50 21.90 c0 -0.90 -0.20 -2.50 -0.45 -3.50 -0.35 -1.45 -0.30 -1.90 0.20 -1.90 0.35 0 0.75 1 0.95 2.65 0.40 3.60 0.40 4.35 -0.20 4.35 -0.25 0 -0.50 -0.75 -0.50 -1.60z"/>
  <path d="M13 21.25 c0 -0.70 -0.20 -1.25 -0.50 -1.25 -0.25 0 -0.50 0.45 -0.50 1.05 0 0.55 -0.20 0.85 -0.50 0.70 -0.85 -0.50 -0.60 -3.75 0.25 -3.75 0.40 0 0.70 0.25 0.65 0.60 -0.10 0.40 0.40 0.55 1.50 0.45 1.85 -0.15 3.10 0.65 3.10 1.95 0 0.85 -1.30 1.50 -3.10 1.50 -0.65 0 -0.90 -0.40 -0.90 -1.25z"/>
  <path d="M19.65 20.95 c1.05 -0.60 1.15 -1.55 0.10 -1.15 -0.40 0.20 -0.75 0.05 -0.75 -0.25 0 -0.30 -0.35 -0.55 -0.75 -0.55 -0.40 0 -0.75 -0.45 -0.75 -1 0 -0.75 -0.35 -1 -1.25 -1 -0.90 0 -1.25 -0.25 -1.25 -0.95 0 -1.75 0.60 -2.55 1.80 -2.55 0.65 0 1.20 -0.20 1.20 -0.50 0 -0.25 0.35 -0.50 0.75 -0.50 0.40 0 0.75 -0.20 0.75 -0.50 0 -0.25 0.50 -0.50 1.15 -0.50 1.10 0.05 1.10 0.05 -0.25 1.15 -1.15 0.95 -1.20 1.20 -0.55 1.80 0.60 0.55 0.75 0.50 1 -0.40 0.35 -1.40 1.05 -1.30 1.75 0.25 0.55 1.15 0.65 1.20 1.20 0.45 0.65 -0.90 1.70 -0.65 1.70 0.40 0 1.30 -1.05 4.35 -1.50 4.35 -0.30 0 -0.50 -0.60 -0.50 -1.35 0 -1.10 -0.10 -1.25 -0.50 -0.65 -0.25 0.40 -0.50 1.50 -0.50 2.40 0 1.50 -0.10 1.60 -1.85 1.60 -1.55 -0.05 -1.75 -0.15 -1 -0.55z"/>
  <path d="M25.80 14.55 c-0.50 -0.55 -1.35 -1.15 -1.85 -1.30 -0.55 -0.20 -0.95 -0.70 -0.90 -1.15 0 -0.55 0.15 -0.60 0.30 -0.20 0.10 0.30 0.90 0.60 1.70 0.60 1.50 0 2.15 0.80 1.85 2.30 -0.15 0.70 -0.25 0.70 -1.10 -0.25z"/>
 </g>
 <g fill="#362d2c">
  <path d="M12.75 39.55 c0.15 -0.25 -0.15 -0.60 -0.60 -0.70 -0.50 -0.15 -0.15 -0.25 0.75 -0.30 1.10 -0.05 1.60 0.20 1.60 0.70 0 0.40 -0.45 0.75 -1.05 0.75 -0.55 0 -0.90 -0.20 -0.70 -0.45z"/>
  <path d="M5.65 34.25 c-0.35 -0.40 -0.65 -1.15 -0.65 -1.75 0 -0.80 0.30 -1 1.75 -1 1.65 0 1.75 0.10 1.75 1.75 0 1.50 -0.15 1.75 -1.10 1.75 -0.65 -0.05 -1.45 -0.35 -1.75 -0.75z"/>
  <path d="M18 27.75 l0 -1.75 3 0 c2.85 0 3 0.05 3 1.25 0 0.70 -0.30 1.25 -0.60 1.25 -0.45 0 -0.40 0.20 0.10 0.50 0.55 0.35 -0.15 0.50 -2.35 0.50 l-3.15 0 0 -1.75z m3.50 0.25 c-0.95 -0.65 -1.50 -0.65 -1.50 0 0 0.30 0.50 0.50 1.15 0.50 0.90 0 0.95 -0.10 0.35 -0.50z"/>
  <path d="M5.65 28.30 c-0.85 -0.40 -1.15 -1 -1.15 -2.15 0 -1.95 1.20 -2.25 1.75 -0.50 0.30 0.95 0.45 0.75 0.90 -1.25 0.50 -2.30 0.60 -2.40 2.20 -2.40 0.90 0 1.65 0.25 1.65 0.55 0 0.25 0.25 0.35 0.60 0.15 0.35 -0.20 0.40 -0.15 0.20 0.25 -0.50 0.80 0.15 2.55 0.85 2.25 0.40 -0.15 0.55 -1.05 0.40 -2.55 -0.15 -2.15 -0.10 -2.30 0.65 -1.70 0.45 0.35 0.80 0.45 0.80 0.15 0 -0.25 -0.35 -0.60 -0.75 -0.80 -1.20 -0.45 -0.85 -1.30 0.50 -1.30 1.35 0 3.15 0.85 4 1.90 0.45 0.55 0.75 0.50 1.75 -0.35 l1.25 -1.05 -1.60 0.30 c-1.10 0.20 -1.65 0.15 -1.65 -0.25 0 -0.30 -0.35 -0.55 -0.75 -0.55 -0.40 0 -0.75 -0.30 -0.75 -0.70 0 -0.45 -0.40 -0.60 -1.20 -0.45 -1.65 0.35 -1.90 -0.40 -0.80 -2.25 0.60 -1 1.40 -1.60 2.05 -1.60 0.95 0 1 0.10 0.40 0.85 -0.50 0.55 -0.50 0.70 -0.05 0.45 0.30 -0.20 0.60 -0.10 0.60 0.15 0 0.30 0.35 0.55 0.75 0.55 0.45 0 0.75 -0.45 0.75 -1.05 0 -0.90 0.15 -0.95 0.75 -0.45 0.60 0.50 0.80 0.45 1.05 -0.20 0.15 -0.45 0.60 -0.80 1 -0.80 0.90 0 0.95 2.80 0.10 3.20 -0.50 0.25 -0.50 0.35 0 0.60 0.35 0.15 0.60 1.20 0.60 2.45 0 2.25 0.65 3.35 1.20 2 0.30 -0.90 2.85 -1 3.70 -0.15 0.30 0.30 0.70 0.45 0.90 0.25 0.15 -0.15 -0.25 -0.85 -0.90 -1.50 -0.85 -0.85 -1.45 -1.10 -1.95 -0.80 -1.25 0.75 -1.95 0.50 -1.95 -0.80 0 -0.70 0.25 -1.25 0.50 -1.25 0.30 0 0.50 -0.55 0.50 -1.25 0 -0.70 0.25 -1.25 0.50 -1.25 0.30 0 0.50 0.35 0.50 0.75 0 0.40 0.35 0.75 0.80 0.75 0.50 0 0.70 -0.30 0.50 -0.75 -0.15 -0.40 0 -0.75 0.35 -0.75 0.60 0 2.35 3.45 2.35 4.65 0 0.30 -0.55 -0.05 -1.25 -0.85 -1.60 -1.90 -1.60 -1.15 0 1 1.30 1.65 1.45 2.60 0.95 4.60 -0.35 1.25 -1.70 1.55 -1.70 0.35 0 -0.40 -0.20 -0.75 -0.50 -0.75 -0.25 0 -0.50 -0.40 -0.50 -0.85 0 -0.75 -0.15 -0.70 -0.90 0.25 -0.85 1.10 -1.10 1.15 -4.75 0.80 -2.10 -0.20 -3.85 -0.55 -3.85 -0.75 0 -0.25 -0.45 -0.45 -1 -0.45 -0.85 0 -1 0.35 -1 2.15 0 2.05 -0.05 2.15 -1.55 2.25 -0.85 0.05 -1.90 -0.15 -2.25 -0.45 -0.55 -0.45 -0.70 -0.30 -0.70 0.75 0 1.20 -0.15 1.30 -1.85 1.25 -1.05 -0.05 -2.40 -0.30 -3 -0.65z"/>
  <path d="M30.60 23.20 c-0.05 -1.40 -0.25 -3.35 -0.40 -4.25 -0.25 -1.30 -0.20 -1.55 0.25 -1.15 0.40 0.35 0.55 1.85 0.40 4.25 -0.10 2.80 -0.20 3.05 -0.25 1.15z"/>
  <path d="M10.50 19.50 c0 -1.45 0.20 -2 0.75 -2 0.40 0 0.75 -0.45 0.75 -1 0 -0.55 0.35 -1 0.75 -1 0.65 0 0.70 0.20 0.25 1.05 -0.50 0.90 -0.75 1.95 -0.95 4.35 0 0.30 -0.40 0.60 -0.80 0.60 -0.55 0 -0.75 -0.55 -0.75 -2z"/>
  <path d="M20.50 9.25 c0 -1.65 0.10 -1.75 1.75 -1.75 1.65 0 1.75 0.10 1.75 1.75 0 1.65 -0.10 1.75 -1.75 1.75 -1.65 0 -1.75 -0.10 -1.75 -1.75z"/>
 </g>
 <g fill="#1b384d">
  <path d="M29.25 35.40 c-0.80 -0.25 -1.85 -0.60 -2.25 -0.75 -0.40 -0.15 -1.65 -0.35 -2.75 -0.40 -1.10 -0.05 -2.20 -0.15 -2.45 -0.20 -0.30 0 0 -0.50 0.55 -1 0.65 -0.65 1.95 -1.05 3.45 -1.15 2.30 -0.15 2.50 -0.25 3.40 -2.15 2 -4.20 1.50 -12.30 -1 -16.60 -1.55 -2.65 -2 -2.80 -0.90 -0.25 0.45 1 0.90 2.20 0.95 2.60 0.05 0.40 0.35 1.40 0.70 2.15 0.80 1.95 0.65 2.30 -0.40 1 -0.50 -0.55 -1.45 -1.15 -2.10 -1.25 -0.70 -0.10 -1.25 -0.55 -1.40 -1.15 -0.10 -0.55 -0.40 -1.15 -0.75 -1.35 -0.40 -0.30 -0.35 -0.40 0.10 -0.40 0.35 0 0.85 0.60 1.15 1.35 0.35 1 0.65 1.15 1.05 0.75 0.45 -0.45 0.30 -0.90 -0.60 -1.85 -0.65 -0.65 -1.55 -1.35 -2.10 -1.55 -0.50 -0.15 -0.90 -0.55 -0.90 -0.95 0 -0.35 -0.40 -0.80 -0.85 -0.90 -0.50 -0.15 -0.15 -0.25 0.75 -0.30 2 -0.05 2.10 -1 0.35 -3.25 -0.80 -1.05 -1.25 -2.30 -1.25 -3.45 0 -1.75 -0.10 -1.85 -1.70 -1.85 -1.65 0 -1.70 0.10 -2 2.35 -0.20 1.35 -0.45 2.80 -0.60 3.30 -0.20 0.60 0 0.85 0.65 0.85 0.70 0.05 0.40 0.50 -1.15 1.90 -3.05 2.80 -4.70 6 -5.25 10.20 -0.40 3.25 -0.35 3.75 0.40 4.30 0.80 0.60 0.65 0.65 -1.20 0.50 -1.45 -0.10 -2.20 0.05 -2.40 0.50 -0.15 0.35 -0.55 0.50 -0.85 0.35 -0.35 -0.20 -0.20 0.05 0.30 0.45 0.95 0.75 0.90 0.80 -0.85 0.80 -1.70 0 -1.85 -0.10 -1.85 -1.45 0 -0.80 -0.25 -1.55 -0.50 -1.65 -0.95 -0.30 -0.80 -5.50 0.25 -7.65 2.45 -5.20 6.75 -10.30 12.55 -15.05 2.35 -1.95 2.65 -2.05 4.60 -1.70 1.75 0.30 2.85 1.15 7.25 5.55 4.15 4.20 5.55 5.95 7 8.95 1.95 4.10 2.85 7.50 1.90 7.50 -0.75 0 -0.70 3.85 0.05 4.10 0.45 0.15 0.40 0.80 -0.10 2.70 -0.85 3.20 -1.70 4.55 -3.65 5.70 -1.75 1.10 -3.30 1.20 -5.60 0.40z m3.55 -3.90 c0.85 -0.30 1.75 -1.15 2.15 -2.05 0.85 -1.90 0.45 -2.40 -0.60 -0.80 -0.45 0.70 -1.25 1.35 -1.80 1.50 -0.90 0.20 -0.95 0.10 -0.50 -0.70 0.30 -0.55 0.60 -2.60 0.75 -4.60 l0.20 -3.60 -0.70 3.70 c-0.40 2.05 -1.20 4.35 -1.75 5.10 -0.60 0.80 -1.05 1.55 -1.05 1.70 0 0.40 1.75 0.30 3.30 -0.25z m-25.85 -8.35 c-0.05 -3.35 -0.10 -3.35 -0.50 -1.15 -0.55 3.15 -0.55 4.50 0.05 4.50 0.30 0 0.45 -1.40 0.45 -3.35z m29.05 -5.90 c0 -0.75 -0.30 -1.25 -0.70 -1.25 -0.40 0 -0.85 -0.60 -0.95 -1.35 -0.10 -0.80 -0.25 -0.20 -0.30 1.25 -0.05 2.30 0.05 2.60 0.95 2.60 0.75 0 1 -0.35 1 -1.25z"/>
  <path d="M4.80 33.40 l-1.90 -2.15 1.35 -0.15 c1.80 -0.25 2.55 0.55 2.65 2.65 0.05 0.95 0 1.75 -0.05 1.75 -0.10 0 -1 -0.95 -2.05 -2.10z"/>
  <path d="M21.50 31.60 c0 -0.85 0.30 -1.10 1.35 -1.10 0.70 0 1.20 0.05 1.10 0.15 -0.10 0.05 -0.70 0.55 -1.30 1.05 -1.15 0.95 -1.15 0.95 -1.15 -0.10z"/>
  <path d="M2.50 28.65 c0 -1.70 0.60 -3.15 1.30 -3.15 0.50 0 0.70 0.65 0.70 2 0 1.65 -0.15 2 -1 2 -0.60 0 -1 -0.35 -1 -0.85z"/>
  <path d="M13.15 22.25 c0 -1.10 0.10 -1.50 0.20 -0.85 0.10 0.60 0.10 1.50 0 2 -0.15 0.45 -0.25 -0.05 -0.20 -1.15z"/>
  <path d="M26 22.50 c0 -1.65 0.55 -1.90 1.50 -0.75 0.80 1 1.50 0.95 1.50 -0.10 0 -0.45 0.15 -0.70 0.30 -0.50 0.20 0.15 0.20 0.90 0 1.60 -0.25 1 -0.65 1.25 -1.80 1.25 -1.35 0 -1.50 -0.15 -1.50 -1.50z"/>
  <path d="M14 17.20 c0 -1.10 2.25 -4.75 3.75 -6.20 l1.25 -1.15 0 1.05 c0 0.65 0.30 1.10 0.75 1.10 1 0 0.95 0.80 -0.05 1.20 -0.75 0.30 -0.75 0.40 0.05 1.30 0.85 0.90 0.80 0.95 -0.45 1.30 -0.70 0.15 -1.30 0.45 -1.30 0.65 0 0.50 -2.30 1.55 -3.25 1.55 -0.40 0 -0.75 -0.35 -0.75 -0.80z"/>
 </g>
 <g fill="#5c3f2a">
  <path d="M13.20 39.50 c-0.25 -0.25 -1.05 -0.55 -1.70 -0.65 -1.85 -0.30 -1.95 -1.85 -0.15 -1.85 2.60 0 3.65 0.55 3.65 1.80 0 1.25 -0.90 1.60 -1.80 0.70z"/>
  <path d="M23 38.75 c0 -1.50 0.75 -1.65 1.50 -0.30 0.70 1.35 0.65 1.55 -0.50 1.55 -0.75 0 -1 -0.35 -1 -1.25z"/>
  <path d="M7 35.45 c0 -0.30 -0.55 -1 -1.25 -1.55 -1.55 -1.20 -1.70 -2.90 -0.25 -2.90 0.75 0 1 -0.35 1 -1.25 0 -0.70 -0.20 -1.25 -0.50 -1.25 -0.25 0 -0.45 -0.85 -0.45 -1.85 0.05 -1.05 0.15 -1.55 0.25 -1.15 0.15 0.40 0.85 1.05 1.55 1.40 1.65 0.75 2.15 0.75 2.15 0.05 0 -0.30 -0.30 -0.45 -0.70 -0.30 -0.65 0.25 -2.20 -0.95 -1.75 -1.35 0.10 -0.10 1.20 -0.30 2.40 -0.35 1.90 -0.15 2.40 0.05 3.95 1.55 1.40 1.40 1.55 1.50 0.90 0.45 -0.45 -0.75 -0.95 -2.55 -1.15 -4 -0.30 -2.40 -0.25 -2.65 0.45 -2.05 0.45 0.35 1.15 0.50 1.60 0.30 1.30 -0.50 0.90 -1.20 -0.70 -1.20 -0.80 0 -1.50 -0.20 -1.50 -0.40 0 -0.25 0.70 -0.45 1.50 -0.50 0.85 0 1.50 0.20 1.50 0.45 0 0.25 0.30 0.45 0.65 0.45 0.40 0 1 0.55 1.35 1.25 0.70 1.35 1.25 1.55 1.75 0.75 0.45 -0.75 1.80 -0.60 2.80 0.30 0.80 0.70 0.90 0.70 1.45 -0.25 0.65 -1.25 2.90 -1.45 3.30 -0.30 0.40 1 1.55 0.95 1.90 -0.10 0.10 -0.50 0.10 0.25 -0.05 1.60 -0.40 3.20 -1.15 4.35 -5 7.25 -1.70 1.30 -3 2.50 -2.80 2.70 0.20 0.15 0.85 -0.05 1.50 -0.50 0.65 -0.40 1.60 -0.65 2.05 -0.55 0.60 0.15 0.50 0.25 -0.25 0.30 -0.65 0.05 -1.15 0.35 -1.15 0.80 0 0.50 -0.55 0.75 -1.75 0.75 -0.95 0 -1.75 -0.20 -1.75 -0.50 0 -0.25 -0.80 -0.50 -1.75 -0.50 -1.65 0 -1.75 -0.10 -1.75 -1.75 0 -0.95 0.25 -1.75 0.50 -1.75 0.30 0 0.50 -0.80 0.50 -1.80 l0 -1.85 3.15 0.35 c1.70 0.20 3.20 0.60 3.25 0.85 0.40 1.05 2 0.40 2.25 -0.90 0.15 -0.80 0.20 -1.45 0.15 -1.55 -0.10 -0.05 -2.20 -0.15 -4.75 -0.15 l-4.55 0 0 -1.50 c0 -1.70 -0.95 -2 -1.05 -0.30 -0.05 0.60 -0.05 2.95 0.05 5.20 0.10 3.40 -0.05 4.20 -0.70 4.45 -0.45 0.15 -0.80 0.85 -0.80 1.50 0 1.05 -0.25 1.20 -1.70 1.20 -0.95 0 -1.85 -0.30 -1.95 -0.60 -0.15 -0.35 -0.30 -0.15 -0.30 0.50 -0.05 0.90 -0.35 1.10 -1.80 1.10 -0.95 0 -1.75 -0.25 -1.75 -0.55z m6.40 -5.90 c-1.30 -1.65 -3.05 -2.75 -1.85 -1.20 0.65 0.90 2.55 2.60 2.85 2.65 0.10 0 -0.35 -0.65 -1 -1.45z m8.85 -1.55 c0.20 -0.30 -0.35 -0.50 -1.25 -0.50 -0.90 0 -1.45 0.20 -1.25 0.50 0.15 0.30 0.75 0.50 1.25 0.50 0.50 0 1.10 -0.20 1.25 -0.50z"/>
  <path d="M30.30 19.30 c-0.20 -1.35 -0.50 -2.75 -0.65 -3.10 -0.15 -0.40 0 -0.70 0.25 -0.70 0.65 0 1.25 2.80 1 4.80 -0.15 1.20 -0.25 1 -0.60 -1z"/>
  <path d="M11.50 18.75 c0 -0.70 0.20 -1.25 0.45 -1.25 0.20 0 0.30 0.55 0.15 1.25 -0.10 0.70 -0.30 1.25 -0.40 1.25 -0.10 0 -0.20 -0.55 -0.20 -1.25z"/>
  <path d="M20.60 19.40 c-0.35 -0.35 -0.60 -1.15 -0.60 -1.85 l-0.05 -1.30 -1 1.40 c-1.15 1.50 -1.95 1.75 -1.95 0.60 0 -0.55 -0.40 -0.65 -1.50 -0.40 -2.45 0.45 -1.90 -1.15 0.80 -2.30 2.05 -0.95 5.75 -1.15 6.50 -0.40 0.45 0.40 -0.50 4.50 -1.10 4.70 -0.25 0.10 -0.75 -0.10 -1.10 -0.45z"/>
  <path d="M23.85 19.15 c-0.55 -0.50 -0.40 -4.15 0.15 -4.15 0.30 0 0.50 0.45 0.50 1 0 1.20 1.60 1.35 2.50 0.25 0.55 -0.70 0.70 -0.65 1.25 0.10 0.35 0.50 0.80 1.45 1 2.15 l0.35 1.25 -1.30 -1.20 c-1 -0.95 -1.30 -1.05 -1.30 -0.45 0 0.45 -0.50 0.90 -1.10 1.10 -1.45 0.35 -1.65 0.35 -2.05 -0.05z"/>
  <path d="M15.30 14.75 c0.20 -0.40 0.80 -0.75 1.40 -0.75 1.05 0.05 1.05 0.05 0.10 0.75 -1.25 0.95 -1.85 0.95 -1.50 0z"/>
 </g>
 <g fill="#6b4d11">
  <path d="M13.40 39.50 c-0.10 -0.30 -0.90 -0.60 -1.80 -0.70 -1.80 -0.25 -4.70 -2.40 -5.55 -4.15 -0.50 -1.15 -0.50 -1.15 2.65 -1.15 4.45 0 4.80 0.20 4.80 2.80 0 1.60 0.20 2.20 0.75 2.20 0.40 0 0.75 0.35 0.75 0.75 0 0.85 -1.30 1.05 -1.60 0.25z"/>
  <path d="M21.70 39.15 c-0.15 -0.50 -0.60 -1.65 -1 -2.55 -0.40 -0.90 -0.70 -1.95 -0.70 -2.35 0 -0.50 -0.55 -0.75 -1.75 -0.75 -1.40 0 -1.75 -0.20 -1.75 -1 0 -0.55 -0.30 -1 -0.70 -1 -0.90 0 -2.30 -2.15 -2.30 -3.55 0 -0.90 0.10 -0.95 0.75 -0.45 0.65 0.55 0.70 0.50 0.45 -0.20 -0.55 -1.40 2.55 -1.05 3.70 0.45 0.70 0.85 1.50 1.25 2.55 1.25 1.40 0 1.55 0.15 1.55 1.45 0 0.85 -0.30 1.55 -0.80 1.75 -0.40 0.15 -0.60 0.50 -0.45 0.80 0.20 0.35 0.60 0.35 1.25 0 1.20 -0.65 2 0.40 0.85 1.10 -0.60 0.30 -0.70 0.70 -0.40 1.30 0.25 0.45 0.75 1.55 1.10 2.35 0.35 0.85 0.75 1.65 0.85 1.90 0.10 0.20 -0.55 0.35 -1.40 0.35 -1 0 -1.60 -0.30 -1.80 -0.85z"/>
  <path d="M6 29.75 c0 -1.65 0.10 -1.75 1.75 -1.75 1.40 0 1.75 0.20 1.75 1 0 0.70 -0.25 0.90 -0.85 0.65 -0.75 -0.25 -0.80 -0.15 -0.25 0.40 0.95 1.05 0.70 1.45 -0.90 1.45 -1.40 0 -1.50 -0.15 -1.50 -1.75z"/>
  <path d="M19.50 15 c0 -0.25 0.35 -0.35 0.75 -0.20 0.45 0.20 0.75 0 0.75 -0.50 0 -1.05 1.30 -1.05 1.70 0 0.45 1.20 0.45 1.20 -1.45 1.20 -0.95 0 -1.75 -0.20 -1.75 -0.50z"/>
 </g>
 <g fill="#454a43">
  <path d="M6.60 34.95 c-0.90 -0.85 -1.45 -1.80 -1.25 -2.10 0.20 -0.30 0.30 -1.50 0.20 -2.70 -0.10 -1.85 0.05 -2.15 0.95 -2.15 0.55 0 1 -0.20 1 -0.45 0 -0.25 0.40 -0.35 0.95 -0.20 0.50 0.15 1.10 -0.05 1.30 -0.35 0.25 -0.40 0 -0.55 -0.80 -0.40 -0.95 0.10 -1.25 -0.10 -1.35 -0.95 -0.15 -1 0.05 -1.15 1.60 -1.15 1.70 0 1.80 0.10 1.80 1.75 0 1.45 -0.20 1.75 -1.10 1.75 -0.85 0 -0.95 0.15 -0.50 0.60 1 1 0.70 1.45 -0.70 1.10 -1.35 -0.35 -1.35 -0.35 -0.40 0.65 1.90 2 2.70 3.20 2.70 3.95 0 0.50 -0.30 0.70 -0.70 0.55 -1.25 -0.50 -1.40 0.30 -0.20 1 1.15 0.60 1.10 0.60 -0.40 0.65 -1.05 0 -2 -0.50 -3.10 -1.55z"/>
  <path d="M23 23.75 c0 -0.15 0.35 -0.85 0.80 -1.50 1 -1.55 2.95 -1.65 3.70 -0.25 0.30 0.55 0.75 0.90 1.05 0.75 0.25 -0.20 0.45 -0.10 0.45 0.15 0 0.30 -0.35 0.65 -0.80 0.80 -0.95 0.35 -5.20 0.40 -5.20 0.05z"/>
  <path d="M14.20 22.95 c-0.35 -0.60 1.85 -2.95 2.75 -2.95 0.60 0 1.55 1.65 1.55 2.70 0 0.60 -0.50 0.80 -1.95 0.80 -1.10 0 -2.15 -0.25 -2.35 -0.55z"/>
  <path d="M26.25 18 c-0.20 -0.30 0.05 -1 0.50 -1.50 0.75 -0.85 0.75 -0.95 -0.10 -1.45 -0.80 -0.50 -0.80 -0.55 0.30 -0.45 0.80 0.10 1.25 0.50 1.30 1.15 0.10 0.55 0.30 1.40 0.50 1.90 0.20 0.50 0.15 0.85 -0.15 0.85 -0.30 0 -0.65 -0.30 -0.75 -0.60 -0.20 -0.50 -0.40 -0.50 -0.75 0.05 -0.35 0.50 -0.55 0.50 -0.85 0.05z"/>
  <path d="M17 15.60 c0 -0.20 0.45 -0.65 1.05 -1 0.80 -0.50 1.20 -0.50 1.75 -0.05 1.15 0.95 0.80 1.45 -1.05 1.45 -0.95 0 -1.75 -0.15 -1.75 -0.40z"/>
  <path d="M17 13.50 c0 -0.80 0.35 -1 1.85 -1 2.05 0 2.05 0.05 -0.20 1.20 -1.60 0.80 -1.65 0.80 -1.65 -0.20z"/>
  <path d="M23.15 12.20 c-0.15 -0.45 -0.65 -0.70 -1.20 -0.55 -0.75 0.20 -0.95 0 -0.95 -0.95 0 -1.05 0.25 -1.20 1.75 -1.20 1.65 0 1.75 0.10 1.75 1.75 0 1.80 -0.80 2.35 -1.35 0.95z"/>
 </g>
 <g fill="#29506b">
  <path d="M29.55 35.40 c-0.90 -0.25 -2.25 -0.80 -2.90 -1.25 -1.05 -0.70 -1.50 -0.75 -3 -0.20 -2.15 0.80 -2.55 0.45 -1.10 -0.90 0.80 -0.75 1.80 -1.05 3.45 -1.05 2.05 0 2.40 -0.15 3 -1.35 1.25 -2.75 2.30 -7.45 1.95 -8.70 -0.20 -0.65 -0.70 -2.70 -1.15 -4.60 -0.40 -1.90 -1.35 -4.15 -2.10 -5.10 -1.80 -2.40 -2.05 -1.90 -0.45 0.90 0.80 1.50 1.05 2.40 0.70 2.60 -0.35 0.25 -0.20 0.70 0.35 1.30 0.50 0.55 0.60 0.95 0.30 0.95 -0.35 0 -0.60 -0.20 -0.60 -0.50 0 -0.25 -0.35 -0.50 -0.80 -0.50 -0.65 0 -0.70 -0.15 -0.25 -0.65 0.40 -0.50 0.20 -0.95 -1 -1.80 -0.85 -0.65 -1.40 -1.25 -1.25 -1.40 0.15 -0.15 -0.20 -0.70 -0.80 -1.25 -0.95 -0.80 -1.15 -0.85 -2.10 -0.15 -1.45 1 -6.25 3.75 -6.55 3.75 -0.45 0 0.55 -1.70 2.55 -4.30 l1.85 -2.40 -2.10 1.65 c-2.45 1.95 -4.10 4.40 -5.20 7.60 -0.90 2.60 -1.20 5.95 -0.65 6.85 0.25 0.40 -0.05 0.60 -0.85 0.60 -0.70 0 -1.50 0.35 -1.85 0.75 -0.50 0.60 -0.80 0.65 -1.40 0.15 -0.55 -0.50 -0.65 -1.35 -0.45 -4.20 0.20 -1.95 0.45 -4 0.60 -4.50 0.15 -0.50 -0.05 -0.25 -0.45 0.60 -0.45 0.90 -0.90 3.05 -1.10 4.80 l-0.30 3.25 1.90 0.80 1.95 0.85 -2 -0.15 c-1.85 -0.10 -2 -0.20 -2.30 -1.85 -0.20 -0.95 -0.35 -1.45 -0.40 -1.10 -0.05 0.85 -2.05 0.75 -2.05 -0.10 0 -1.15 1.50 -4.30 2.05 -4.30 0.35 0 0.40 -0.55 0.20 -1.45 -0.35 -1.70 0.90 -4.05 2.10 -4.05 0.50 0 0.65 -0.30 0.45 -0.80 -0.40 -1.10 1.70 -4.30 2.65 -3.95 0.40 0.15 0.55 0 0.40 -0.40 -0.35 -0.90 1.05 -2.50 5.40 -6.15 1.95 -1.60 3.60 -3.10 3.75 -3.25 0.15 -0.15 1.20 -0.05 2.40 0.15 2.80 0.60 2.90 1.90 0.10 1.90 -1.10 0 -2 0.25 -2 0.50 0 0.30 -0.45 0.50 -1 0.50 -0.80 0 -1 0.35 -1 1.75 0 1.50 0.15 1.75 1.20 1.75 0.65 0 1.55 0.15 2 0.30 0.65 0.25 0.80 -0.10 0.80 -2 0 -2.30 0 -2.30 1.75 -2.30 1.30 0 2.25 0.45 3.60 1.65 6.35 5.75 7.70 7.50 9.85 12.85 1.80 4.45 1.15 13.60 -1.10 16.15 -0.85 0.95 -3.80 2.40 -4.80 2.30 -0.30 0 -1.30 -0.25 -2.25 -0.55z m7.45 -4.45 c0 -0.85 -0.40 -0.45 -1.45 1.45 l-1.10 1.85 1.30 -1.40 c0.70 -0.75 1.25 -1.60 1.25 -1.90z m-1.90 -1.35 c1.25 -2.30 1.50 -4.55 0.75 -7.35 l-0.70 -2.50 0.05 3.60 c0.05 2.90 -0.15 3.85 -1 4.95 -1.25 1.75 -2.55 2.30 -1.75 0.80 0.60 -1.15 0.65 -8.20 0.05 -10.10 -0.25 -0.85 -0.40 0.15 -0.45 3.05 -0.05 4.70 -0.65 7.10 -2.15 8.80 -0.95 1 -0.95 1.05 -0.05 1.25 1.70 0.40 4.35 -0.90 5.25 -2.50z m-24.90 -6.70 c0.15 -0.65 0.30 -1.35 0.30 -1.65 -0.05 -0.75 -1.50 1.35 -1.50 2.10 0 1.10 0.85 0.75 1.20 -0.45z m2.05 -9.90 c0.40 -0.45 0.60 -1 0.40 -1.15 -0.15 -0.20 0.25 -1 0.95 -1.75 0.70 -0.75 1.70 -2 2.20 -2.85 0.70 -1.15 0.40 -0.95 -1.25 0.75 -1.15 1.25 -2.90 3.90 -3.85 5.90 -1.90 4.10 -2.30 6.20 -0.45 2.40 0.70 -1.35 1.60 -2.85 2 -3.30z m19.30 0.05 c-0.30 -0.50 -1.35 -1.70 -2.35 -2.65 -1 -0.90 -2.70 -2.75 -3.75 -4.05 -1.10 -1.35 -1.95 -2.25 -1.95 -2 0 0.55 7.85 9.55 8.40 9.65 0.05 0 -0.10 -0.45 -0.35 -0.95z"/>
  <path d="M4.65 32.90 c-1.80 -1.95 -2.30 -3.30 -1.85 -5.10 0.45 -1.85 1.70 -1.70 1.70 0.20 0 1.05 0.25 1.50 0.80 1.50 1.10 0 2.15 1.45 2.20 2.95 0 1.05 -0.10 1.10 -0.85 0.50 -0.75 -0.55 -0.70 -0.50 0.05 0.45 1.55 1.80 -0.25 1.35 -2.05 -0.50z"/>
  <path d="M21.60 31.40 c0.15 -0.35 0.65 -0.75 1.20 -0.85 0.80 -0.15 0.85 -0.05 0.25 0.65 -0.80 0.95 -1.70 1.05 -1.45 0.20z"/>
  <path d="M25 23.70 c0 -0.20 0.40 -0.65 0.90 -1 0.80 -0.65 0.80 -0.65 -0.10 -0.70 -0.80 0 -0.85 -0.15 -0.40 -0.60 0.45 -0.45 0.85 -0.35 1.75 0.50 0.65 0.60 1.35 0.95 1.50 0.75 0.20 -0.15 0.35 0.05 0.35 0.50 0 0.65 -0.45 0.85 -2 0.85 -1.10 0 -2 -0.15 -2 -0.30z"/>
  <path d="M14 16.90 c0 -0.25 0.40 -0.55 0.90 -0.70 0.45 -0.15 1.70 -0.70 2.70 -1.25 1.25 -0.65 1.95 -0.80 2.15 -0.45 0.20 0.30 0.25 0.60 0.20 0.65 -0.10 0.10 -0.60 0.45 -1.10 0.80 -1.05 0.85 -4.85 1.60 -4.85 0.95z"/>
  <path d="M24.50 15.45 c0 -0.55 0.25 -0.85 0.50 -0.70 0.30 0.15 0.50 0.65 0.50 1.05 0 0.40 -0.20 0.70 -0.50 0.70 -0.25 0 -0.50 -0.45 -0.50 -1.05z"/>
 </g>
 <g fill="#6b5039">
  <path d="M5.85 34.10 l-1.90 -1.95 0.60 -3.55 c0.35 -2 0.80 -3.60 1 -3.60 0.25 0 0.45 0.30 0.45 0.70 0 0.35 0.65 0.95 1.45 1.30 1.55 0.60 2.80 0.30 2.25 -0.55 -0.20 -0.30 -0.50 -0.30 -0.95 0.05 -0.45 0.40 -0.70 0.30 -0.95 -0.30 -0.45 -1.20 -0.40 -1.30 0.65 -0.95 0.70 0.20 1 -0.05 1.25 -1 0.35 -1.30 1.30 -1.75 1.30 -0.60 0 0.40 0.55 1.20 1.20 1.80 1.30 1.25 1.30 3.60 0 2.50 -0.40 -0.35 -0.85 -0.50 -0.95 -0.35 -0.40 0.40 0.95 2.90 1.60 2.90 0.85 0 1.65 1.65 1.65 3.45 0 1.45 -0.15 1.55 -1.75 1.55 -1.25 0 -1.85 -0.30 -2.30 -1.10 -0.40 -0.70 -0.70 -0.90 -0.80 -0.55 -0.25 0.75 -2.60 -0.30 -4.20 -1.90 -0.50 -0.50 -0.95 -0.75 -0.95 -0.45 0 0.25 1 1.15 2.20 2 2.65 1.80 3.20 2.50 1.95 2.50 -0.55 0 -1.80 -0.85 -2.80 -1.90z m6.35 -2.15 c-1.20 -1.35 -3.55 -2.55 -4.55 -2.35 -0.70 0.15 -0.70 0.25 0.10 0.90 0.85 0.65 0.90 0.65 0.55 0 -0.20 -0.40 0 -0.30 0.40 0.20 0.45 0.55 1.30 1 1.90 1.05 0.60 0.05 1.35 0.45 1.60 0.90 0.30 0.45 0.60 0.70 0.75 0.60 0.10 -0.15 -0.20 -0.70 -0.75 -1.30z"/>
  <path d="M20.50 34.75 c0 -1.10 -0.20 -1.25 -1.75 -1.25 -1.60 0 -1.75 -0.10 -1.75 -1.45 0 -0.85 0.20 -1.60 0.45 -1.75 0.25 -0.15 0.30 -1.30 0.15 -2.55 l-0.25 -2.25 3.10 0 c3.50 0 4.55 0.65 4.55 2.85 0 1.05 -0.50 1.75 -1.95 2.85 -1.25 0.90 -1.85 1.70 -1.70 2.15 0.15 0.40 0.45 0.50 0.60 0.25 0.15 -0.25 0.85 -0.60 1.55 -0.80 l1.25 -0.35 -1.30 1.15 c-0.70 0.65 -1.20 1.45 -1.05 1.80 0.10 0.35 -0.25 0.60 -0.85 0.60 -0.80 0 -1.05 -0.30 -1.05 -1.25z m1.50 -4.25 c0 -0.65 -0.55 -0.65 -1.50 0 -0.60 0.40 -0.55 0.50 0.40 0.50 0.60 0 1.10 -0.20 1.10 -0.50z m-0.30 -1.80 c1.40 -0.55 0.85 -1.20 -1.05 -1.20 -1.75 0 -1.80 0.05 -0.85 0.75 1.15 0.85 0.95 0.80 1.90 0.45z"/>
  <path d="M14.25 26.50 c-0.20 -0.30 -0.40 -1.10 -0.55 -1.75 -0.15 -1 0 -1.25 0.80 -1.25 0.80 0 1 0.35 1 1.75 0 1.70 -0.60 2.30 -1.25 1.25z"/>
  <path d="M17.15 24.10 c-0.70 -0.50 -1.20 -2.10 -0.65 -2.10 0.30 0 0.50 -0.35 0.50 -0.75 0 -1.20 0.95 -0.85 1.30 0.50 0.30 1.25 0.30 1.25 1.80 0.35 1.40 -0.80 1.50 -0.80 2.20 0.15 0.70 0.90 0.80 0.90 1.35 0.20 0.75 -1 2.85 -1.75 2.85 -1 0 0.30 -0.45 0.55 -1.05 0.55 -0.60 0 -0.85 0.20 -0.70 0.55 0.20 0.30 0.65 0.40 1.05 0.25 0.45 -0.15 0.70 0.05 0.70 0.70 0 0.85 -0.40 0.95 -4.40 0.95 -2.45 -0.05 -4.65 -0.20 -4.95 -0.35z"/>
  <path d="M27 23.55 c0 -0.70 0.30 -0.95 1 -0.90 0.60 0.05 1 0.40 1 0.95 0 0.55 -0.35 0.90 -1 0.90 -0.65 0 -1 -0.35 -1 -0.95z"/>
  <path d="M20.50 19.05 c-0.70 -1.40 -0.65 -1.55 0.75 -1.55 1.30 0 1.45 0.35 0.95 1.70 -0.40 1.05 -1.05 1 -1.70 -0.15z"/>
  <path d="M23.60 16.85 c0.20 -2.40 1.20 -2.95 1.90 -1.10 0.45 1.15 0.65 1.25 1.30 0.70 0.70 -0.60 0.65 -0.80 -0.60 -1.80 -1.40 -1.10 -1.40 -1.15 -0.30 -1.15 0.65 0 1.10 0.30 1.10 0.75 0 0.40 0.25 0.75 0.55 0.75 0.30 0 0.45 0.30 0.30 0.65 -0.10 0.30 0.10 1 0.55 1.50 0.40 0.45 0.60 1 0.40 1.20 -0.20 0.20 -0.55 0.05 -0.85 -0.35 -0.40 -0.65 -0.55 -0.65 -0.95 0.10 -0.30 0.50 -1.10 0.80 -2.05 0.80 -1.45 -0.05 -1.50 -0.15 -1.35 -2.05z"/>
  <path d="M14.10 16.90 c0.30 -0.90 2.90 -1.50 2.90 -0.65 0 0.70 -1.05 1.25 -2.35 1.25 -0.40 0 -0.65 -0.25 -0.55 -0.60z"/>
  <path d="M23.15 12.05 c-0.20 -0.80 -0.45 -0.90 -1.40 -0.55 -1.45 0.55 -1.75 0.25 -1.75 -1.85 0 -1.60 0.05 -1.65 2 -1.65 l2 0 0 2.50 c0 2.55 -0.40 3.25 -0.85 1.55z"/>
 </g>
 <g fill="#915b2e">
  <path d="M13.80 39.60 c-0.15 -0.25 -1.15 -0.70 -2.25 -1.10 -2.45 -0.80 -2.90 -2.30 -0.55 -1.80 1.50 0.25 2.15 -0.50 0.85 -1 -0.45 -0.15 -0.60 -0.80 -0.45 -1.75 0.20 -1.35 0.25 -1.40 0.90 -0.60 0.60 0.80 0.65 0.85 0.70 0.05 0 -0.45 -0.20 -0.95 -0.45 -1.10 -0.25 -0.15 -0.35 -0.75 -0.20 -1.30 0.20 -0.80 0.40 -0.90 0.95 -0.45 1.10 0.90 1.50 0.10 0.50 -1 -0.45 -0.50 -1.05 -1.65 -1.30 -2.60 -0.45 -1.60 -0.35 -1.55 2.85 1.70 1.80 1.85 3.40 3.30 3.50 3.20 0.10 -0.15 -0.90 -1.30 -2.15 -2.65 -1.85 -1.90 -2.50 -3.05 -3 -5.15 -0.35 -1.55 -0.50 -2.90 -0.35 -3.05 0.15 -0.15 0.40 0.05 0.50 0.40 0.20 0.50 0.40 0.50 0.95 0.05 0.60 -0.45 0.70 -0.30 0.70 1 0 2.65 0.75 3.55 3 3.55 1.10 0 2 0.25 2 0.50 0 0.35 0.70 0.45 1.90 0.25 4.70 -0.80 4.60 -0.75 4.60 -2.30 0 -1.10 0.25 -1.45 1 -1.45 1.35 0 1.30 1.55 -0.20 3.90 -1.35 2.20 -2.80 3 -5.55 3.20 -2 0.15 -2 0.15 -1.85 2.05 0.15 1.80 0.15 1.85 -1.60 1.85 -1.50 0 -1.80 -0.20 -1.85 -1.10 0 -0.65 -0.15 -0.85 -0.30 -0.50 -0.10 0.30 -0.50 0.60 -0.90 0.60 -0.80 0 -1.55 4.15 -0.75 4.40 0.80 0.30 0.60 2.60 -0.20 2.60 -0.40 0 -0.85 -0.20 -1 -0.40z m10.20 -10.50 c0 -0.85 -1.85 -1.85 -3.35 -1.85 -0.90 0 -1.65 0.15 -1.65 0.35 0 0.70 1.85 1.35 2.90 1.05 0.65 -0.15 1.10 -0.05 1.10 0.30 0 0.30 0.25 0.55 0.50 0.55 0.30 0 0.50 -0.15 0.50 -0.40z"/>
  <path d="M22.50 38.75 c0 -1.15 0.10 -1.20 1 -0.65 0.55 0.35 1 0.90 1 1.25 0 0.35 -0.45 0.65 -1 0.65 -0.75 0 -1 -0.35 -1 -1.25z"/>
  <path d="M5.50 33.75 c-1 -1.20 -0.25 -1.40 1.05 -0.30 0.95 0.80 1 1 0.40 1.05 -0.45 0 -1.10 -0.35 -1.45 -0.75z"/>
  <path d="M6.65 32.80 c-1.75 -1.15 -2.10 -1.80 -0.95 -1.80 0.40 0 0.85 -0.20 1 -0.45 0.15 -0.20 -0.30 -0.30 -0.95 -0.15 -1.20 0.20 -1.25 0.15 -1.25 -2.60 0 -2.15 0.15 -2.80 0.75 -2.80 0.40 0 0.75 0.30 0.75 0.70 0 0.80 2.90 2.45 3.55 2 0.25 -0.15 0.45 0.35 0.45 1.05 0 1.10 -0.15 1.30 -0.85 1 -0.50 -0.20 -1.45 -0.50 -2.15 -0.65 l-1.25 -0.25 1.40 1.20 c1.05 0.90 1.40 1.60 1.25 2.50 l-0.15 1.30 -1.60 -1.05z"/>
  <path d="M7.50 25.50 c-0.85 -1.60 -0.60 -3 0.50 -3 0.55 0 1 0.35 1 0.75 0 0.40 0.20 0.75 0.45 0.75 0.25 0 0.55 -0.35 0.75 -0.75 0.50 -1.35 1.05 -0.80 1.05 1.15 0 1.75 -0.10 1.85 -1.65 1.95 -1.10 0.05 -1.75 -0.20 -2.10 -0.85z"/>
  <path d="M21.50 23.15 c0.05 -1.55 0.15 -1.75 0.55 -1 0.25 0.45 1.05 0.85 1.70 0.85 0.90 0 1.25 0.25 1.25 1 0 0.80 -0.35 1 -1.75 1 -1.70 0 -1.75 -0.05 -1.75 -1.85z"/>
  <path d="M20.60 18.95 c-0.35 -0.55 -0.50 -1.45 -0.35 -2 0.45 -1.35 -0.50 -1.20 -1.45 0.30 -0.90 1.40 -1.80 1.65 -1.80 0.50 0 -0.55 -0.40 -0.65 -1.55 -0.40 -1.15 0.20 -1.55 0.15 -1.40 -0.30 0.15 -0.35 0.35 -0.55 0.45 -0.50 0.15 0.10 1.30 -0.45 2.55 -1.20 1.75 -1.05 2.40 -1.20 2.85 -0.75 0.45 0.45 0.75 0.40 1.25 -0.30 0.60 -0.80 0.70 -0.80 1.30 -0.10 0.55 0.65 0.55 1.25 0 3.30 -0.35 1.35 -0.75 2.50 -0.90 2.50 -0.20 0 -0.60 -0.45 -0.95 -1.05z"/>
  <path d="M23.50 16.90 c0 -1 0.25 -2 0.50 -2.15 0.30 -0.15 0.50 0.15 0.50 0.70 0 1.05 0.25 1.20 2.45 1.25 0.65 0.05 1.25 0.35 1.35 0.70 0.05 0.35 0 0.40 -0.15 0.10 -0.40 -0.80 -1 -0.60 -1.30 0.50 -0.20 0.75 -0.60 0.95 -1.80 0.85 -1.45 -0.10 -1.55 -0.25 -1.55 -1.95z"/>
  <path d="M15.90 14.65 c0.30 -0.10 0.60 -0.55 0.60 -0.90 0 -0.75 1.10 -1.25 2.65 -1.25 0.85 0 0.60 0.30 -1.10 1.25 -1.15 0.70 -2.30 1.25 -2.50 1.20 -0.15 0 0 -0.15 0.35 -0.30z"/>
 </g>
 <g fill="#376685">
  <path d="M5.40 33.65 c-2.15 -2.25 -2.90 -3.95 -2.55 -5.85 0.20 -1.05 0.55 -1.30 1.30 -1.20 0.75 0.10 1.30 0.80 1.85 2.50 0.45 1.35 1.10 2.45 1.65 2.60 0.45 0.10 0.85 0.70 0.85 1.25 l0 1.10 -1.60 -1.15 c-0.90 -0.65 -1.80 -1.35 -2 -1.65 -0.25 -0.30 -0.40 -0.30 -0.40 0.10 0 0.30 0.90 1.20 2 2 2.05 1.45 2.50 2.15 1.35 2.15 -0.35 0 -1.45 -0.85 -2.45 -1.85z"/>
  <path d="M21.50 34.90 c0.05 -2 2.30 -2.90 7.35 -2.90 5.45 -0.05 6.05 -0.45 7.55 -5.30 0.60 -1.85 -0.45 -8 -1.50 -8.85 -0.40 -0.35 -1.55 -1.95 -2.55 -3.60 -1 -1.65 -2.65 -3.80 -3.70 -4.75 -1.05 -0.95 -2.65 -2.65 -3.55 -3.75 -0.85 -1.10 -1.60 -1.75 -1.60 -1.45 0 0.80 1.65 2.85 5.55 7 1.85 2 3.90 4.85 4.70 6.50 1.25 2.60 1.35 3.25 1.05 6.40 -0.20 1.95 -0.65 3.85 -1 4.25 -0.60 0.55 -0.70 -0.05 -0.70 -4 0 -2.95 -0.25 -5.45 -0.75 -6.70 -0.75 -2 -0.75 -2 -0.50 2.05 0.30 4.45 -0.10 7.70 -0.95 7.70 -0.30 0 -0.40 -0.55 -0.20 -1.35 0.80 -3.55 0.90 -5.25 0.35 -5.60 -0.30 -0.20 -0.70 -1.25 -0.90 -2.35 -0.35 -2.35 -2.35 -6.65 -3.55 -7.50 -1.30 -0.95 -1.25 -0.60 0.20 2 0.70 1.25 1.20 2.65 1.05 3 -0.15 0.40 0.05 1 0.45 1.30 0.40 0.35 0.70 0.90 0.70 1.20 0 0.30 -0.25 0.15 -0.55 -0.35 -0.35 -0.65 -0.85 -0.80 -1.60 -0.55 -1 0.30 -1 0.30 -0.15 -0.60 0.90 -0.85 0.90 -0.90 -0.25 -1.85 -2.55 -2 -3.35 -2.75 -3.55 -3.40 -0.20 -0.55 -0.70 -0.40 -2.20 0.60 -3.50 2.30 -4.80 3.05 -5 2.80 -0.15 -0.10 0.65 -1.30 1.70 -2.65 1.05 -1.35 2.10 -2.80 2.35 -3.20 0.40 -0.65 0.35 -0.65 -0.55 -0.05 -4.60 3.45 -6.85 7.05 -7.70 12.30 -0.50 3 -0.45 3.45 0.35 4.05 0.80 0.60 0.70 0.65 -0.90 0.70 -1 0 -2.10 0.35 -2.45 0.75 -0.35 0.40 -1.10 0.70 -1.70 0.70 -0.95 -0.10 -0.95 -0.10 0.10 -0.30 0.90 -0.20 1.10 -0.45 0.80 -1.05 -0.50 -1.10 -0.55 -3.75 -0.05 -6.85 0.20 -1.45 0.20 -2.25 -0.10 -2 -0.55 0.60 -1.55 5.20 -1.60 7.65 l-0.10 1.85 -0.35 -1.75 c-0.35 -1.55 -0.35 -1.60 -0.45 -0.35 -0.05 1 -0.30 1.35 -1.05 1.35 -1.10 0 -1.25 -0.80 -0.55 -2.60 0.25 -0.65 0.75 -2.15 1.10 -3.40 1.15 -3.90 3.55 -7.50 5.05 -7.50 0.50 0 0.45 -0.15 -0.05 -0.45 -0.95 -0.60 -0.20 -1.80 3.80 -5.55 5.25 -5 6.70 -6.05 7.85 -5.70 0.60 0.20 1.15 0.55 1.20 0.75 0.25 0.65 1.50 0.55 1.80 -0.15 0.25 -0.65 2.80 1.90 2.80 2.80 0 0.80 2.50 3.75 3.65 4.35 0.90 0.50 0.85 0.30 -0.40 -1.10 -0.80 -0.95 -0.30 -0.55 1.15 0.80 4.80 4.55 7.95 11.90 7.45 17.45 -0.40 4.05 -1.15 6.50 -2.60 8.15 -1.05 1.30 -1.45 1.40 -4.75 1.40 -1.95 0 -3.70 -0.25 -3.90 -0.50 -0.20 -0.30 -0.85 -0.80 -1.50 -1.15 -0.95 -0.55 -1.45 -0.55 -2.65 0 -0.80 0.35 -1.35 0.95 -1.20 1.25 0.10 0.35 0 0.65 -0.25 0.65 -0.30 0 -0.50 -0.30 -0.50 -0.60z m14 -1.40 c1.15 -1.15 2 -3.10 2 -4.40 0 -0.45 -0.45 0.05 -0.95 1.15 -1.15 2.55 -1.95 3.20 -4.60 3.70 l-2.20 0.45 2.40 0.05 c1.75 0.05 2.60 -0.20 3.35 -0.95z m-25.25 -10.65 c0.20 -0.85 0.45 -2 0.60 -2.55 0.15 -0.55 0.05 -0.80 -0.25 -0.60 -0.65 0.40 -2.10 4.60 -1.75 5 0.55 0.50 1.05 -0.20 1.40 -1.85z m4.50 -13.60 c1.20 -1.90 2.25 -3.70 2.25 -3.90 0 -0.25 -1.35 1.20 -2.95 3.20 -1.95 2.40 -3.50 4.95 -4.50 7.50 -2.20 5.50 -1.90 5.90 0.75 0.95 1.20 -2.35 3.20 -5.80 4.45 -7.75z m7.80 -2.20 c-0.40 -0.25 -0.85 -1.45 -1 -2.60 l-0.30 -2.20 -1.10 1.25 c-0.65 0.65 -1.15 1.60 -1.15 2.10 0 0.50 -0.30 0.95 -0.60 0.95 -0.75 0.10 2.40 0.80 3.85 0.90 0.80 0 0.85 -0.05 0.30 -0.40z"/>
  <path d="M29.05 31 c0 -0.80 1.10 -2.50 1.65 -2.50 0.60 0 0.30 0.90 -0.70 2.05 -0.65 0.85 -0.95 0.95 -0.95 0.45z"/>
  <path d="M16.50 15.75 c0.35 -0.40 0.80 -0.75 1.05 -0.75 0.25 0 0.30 0.35 0.15 0.75 -0.20 0.40 -0.65 0.75 -1.05 0.75 -0.65 0 -0.65 -0.15 -0.15 -0.75z"/>
  <path d="M23.85 15.70 c-0.40 -0.40 0.05 -1.20 0.65 -1.20 0.20 0 0.50 0.35 0.70 0.75 0.25 0.75 -0.70 1.05 -1.35 0.45z"/>
 </g>
 <g fill="#5e5f66">
  <path d="M21 33.90 c0 -0.95 0.10 -1 0.50 -0.40 0.65 0.95 0.65 1.50 0 1.50 -0.25 0 -0.50 -0.50 -0.50 -1.10z"/>
  <path d="M9.85 34.15 c-0.60 -0.55 -0.40 -2.05 0.35 -2.30 0.35 -0.15 1.25 0.40 1.95 1.20 l1.25 1.45 -1.60 0 c-0.90 0 -1.80 -0.15 -1.95 -0.35z"/>
  <path d="M22 33.50 c0 -0.25 0.20 -0.50 0.45 -0.50 0.25 0 0.90 -0.15 1.40 -0.30 0.80 -0.30 0.80 -0.25 -0.10 0.45 -1.15 0.95 -1.75 1.05 -1.75 0.35z"/>
  <path d="M4.35 32.60 c-0.95 -1.05 -1.15 -2.60 -0.30 -2.60 0.25 0 0.35 0.25 0.20 0.55 -0.20 0.30 0.15 1.05 0.80 1.75 0.60 0.65 0.90 1.20 0.60 1.20 -0.25 0 -0.85 -0.40 -1.30 -0.90z"/>
  <path d="M12.05 31.80 l-1.20 -1.30 1.10 0 c1.10 0 1.80 1 1.45 2 -0.10 0.30 -0.70 0 -1.35 -0.70z"/>
  <path d="M5.65 32.10 c-0.30 -0.20 -0.70 -1.20 -0.90 -2.25 -0.30 -1.65 -0.25 -1.85 0.65 -1.85 0.55 0 1.10 -0.30 1.25 -0.60 0.15 -0.50 0.45 -0.50 1.35 0 1.20 0.75 2.40 0.15 1.75 -0.90 -0.25 -0.40 -0.50 -0.40 -1.05 0.05 -0.45 0.35 -0.70 0.40 -0.70 0.05 0 -0.30 -0.15 -0.85 -0.30 -1.30 -0.20 -0.55 0.10 -0.75 1.25 -0.70 0.85 0.05 1.55 0.20 1.55 0.40 0 0.20 0.45 0.50 1 0.65 0.60 0.15 1 0.70 1 1.35 0 0.95 -0.10 1 -0.75 0.50 -1.25 -1 -1.35 -0.25 -0.20 1.15 l1 1.35 -1.45 0 c-0.80 0 -2.15 -0.35 -3.05 -0.80 -0.90 -0.45 -1.75 -0.65 -1.95 -0.45 -0.20 0.20 -0.05 0.50 0.30 0.60 0.30 0.15 0.45 0.50 0.30 0.75 -0.20 0.30 -0.15 0.45 0.10 0.25 0.45 -0.25 2.55 1 2.15 1.30 -0.50 0.50 -2.75 0.75 -3.30 0.45z"/>
  <path d="M23.65 24.15 c-0.65 -0.10 -1.15 -0.45 -1.15 -0.75 0 -0.30 0.10 -0.45 0.25 -0.30 0.20 0.15 1.20 0.10 2.35 -0.15 2.30 -0.55 3.90 -0.20 3.90 0.85 0 0.70 -2.65 0.90 -5.35 0.35z"/>
  <path d="M14 22.80 c0 -0.35 0.30 -0.90 0.65 -1.20 0.75 -0.65 2.60 0.55 2.10 1.35 -0.45 0.80 -2.75 0.65 -2.75 -0.15z"/>
  <path d="M24 21.95 c0 -0.55 2.20 -0.95 2.65 -0.50 0.25 0.25 -0.25 0.55 -1.10 0.65 -0.85 0.15 -1.55 0.05 -1.55 -0.15z"/>
  <path d="M23.50 17.80 c0 -0.95 0.25 -1.30 1 -1.30 0.75 0 1 0.30 0.95 1.40 0 0.75 -0.15 1.05 -0.30 0.70 -0.20 -0.50 -0.40 -0.50 -0.95 -0.05 -0.55 0.45 -0.70 0.35 -0.70 -0.75z"/>
  <path d="M14.10 16.90 c0.20 -0.60 2.40 -0.95 2.40 -0.35 0 0.35 -1.25 0.95 -2.10 0.95 -0.25 0 -0.40 -0.25 -0.30 -0.60z"/>
  <path d="M19.50 10.95 c0 -1.45 0.10 -1.50 1.45 -1.20 0.90 0.20 1.60 0.10 1.85 -0.30 0.25 -0.45 0.05 -0.55 -0.70 -0.35 -0.75 0.20 -1.10 0.10 -1.10 -0.40 0 -0.45 0.55 -0.70 1.65 -0.70 1.55 0 1.65 0.10 1.70 1.80 0.05 1.60 -0.05 1.75 -1.05 1.50 -0.65 -0.15 -1.55 0.05 -2.10 0.45 -1.40 1.05 -1.70 0.90 -1.70 -0.80z"/>
 </g>
 <g fill="#2b6e9f">
  <path d="M5.55 33.80 c-1.85 -1.90 -2.15 -2.45 -1.90 -3.70 0.15 -0.80 0.05 -1.70 -0.20 -1.95 -0.30 -0.30 -0.45 -1.30 -0.35 -2.20 0.10 -1.45 0.35 -1.70 1.55 -1.85 1.45 -0.20 1.40 -0.40 1.55 4.65 0.05 0.85 0.45 2.05 0.95 2.75 1.25 1.80 1.05 2.20 -0.65 1 -0.80 -0.60 -1.50 -1.45 -1.50 -1.90 0 -0.65 -0.10 -0.70 -0.60 -0.15 -0.55 0.50 -0.25 1 1.50 2.60 1.20 1.05 2.10 2.15 2 2.45 -0.10 0.30 -1.15 -0.45 -2.35 -1.70z"/>
  <path d="M33.45 34.70 c0.95 -0.40 2.05 -0.95 2.40 -1.30 0.45 -0.40 0.65 -0.35 0.65 0.05 0 0.60 -2.95 2.05 -4.10 2.05 -0.35 -0.05 0.10 -0.35 1.05 -0.80z"/>
  <path d="M21.50 34.65 c0 -0.55 1 -2 1 -1.50 0 0.20 0.55 0 1.25 -0.45 0.75 -0.50 1.25 -0.60 1.25 -0.25 0 0.30 -0.30 0.55 -0.65 0.55 -0.35 0 -1.15 0.45 -1.75 1 -0.60 0.60 -1.10 0.85 -1.10 0.65z"/>
  <path d="M28.15 33.65 c-2.85 -0.25 -2.75 -1.15 0.10 -1.15 1.65 0 2.25 0.20 2.25 0.75 0 0.40 -0.05 0.70 -0.10 0.65 -0.10 -0.05 -1.10 -0.15 -2.25 -0.25z"/>
  <path d="M32.50 33 c1 -0.65 2.65 -0.65 2.25 0 -0.15 0.30 -0.90 0.50 -1.65 0.50 -1.05 0 -1.20 -0.10 -0.60 -0.50z"/>
  <path d="M36.20 27.90 c0.15 -0.65 0.30 -1.45 0.30 -1.75 0 -0.35 0.60 -0.65 1.30 -0.65 1 0 1.25 0.20 1 0.80 -0.15 0.45 -0.30 1.25 -0.35 1.85 0 1.05 -0.05 1.05 -0.45 0.10 -0.35 -0.90 -0.40 -0.95 -0.75 -0.10 -0.50 1.25 -1.40 1.05 -1.05 -0.25z"/>
  <path d="M33.50 25.60 c0 -1.50 0.20 -2.10 0.70 -2.10 0.60 0 0.60 0.35 0.20 1.90 -0.70 2.55 -0.90 2.60 -0.90 0.20z"/>
  <path d="M7.80 25.70 c-0.60 -1.50 -0.30 -3.20 0.70 -4.20 0.55 -0.55 1 -1.55 1 -2.25 0 -1 0.25 -1.25 1.25 -1.25 1.35 0 1.50 0.35 0.75 1.50 -0.40 0.65 -0.50 0.65 -0.50 0.05 0 -1.15 -0.75 -0.10 -1.70 2.40 -0.60 1.50 -0.70 2.35 -0.35 2.70 0.35 0.35 0.75 0 1.25 -1.20 0.60 -1.35 0.75 -1.50 0.80 -0.60 0 0.60 -0.55 1.70 -1.25 2.40 -1.50 1.50 -1.55 1.50 -1.95 0.45z"/>
  <path d="M36.50 19.75 c0 -2 1.20 -2.45 1.70 -0.60 0.50 1.85 0.35 2.35 -0.70 2.35 -0.80 0 -1 -0.35 -1 -1.75z"/>
  <path d="M6.50 16.60 c0 -1.30 0.25 -1.75 1 -1.95 0.65 -0.15 1 -0.70 1 -1.45 0 -0.95 0.25 -1.20 1.25 -1.20 0.70 0 1.25 0.10 1.25 0.20 0 0.45 -2.60 5.80 -2.85 5.80 -0.15 0 -0.15 -0.35 0.05 -0.75 0.40 -1.05 -0.55 -0.95 -1.15 0.15 -0.45 0.70 -0.50 0.55 -0.55 -0.80z"/>
  <path d="M31.80 16.40 c-0.45 -1 -0.75 -1.30 -0.75 -0.75 -0.05 1.25 -0.80 1.05 -1.45 -0.40 -0.70 -1.55 -0.80 -3.25 -0.15 -3.25 0.45 0 4.05 5 4.05 5.65 0 0.95 -1.10 0.15 -1.70 -1.25z"/>
  <path d="M16.50 15.75 c0.35 -0.40 0.80 -0.75 1.05 -0.75 0.25 0 0.45 0.35 0.45 0.75 0 0.45 -0.45 0.75 -1.05 0.75 -0.90 0 -0.95 -0.10 -0.45 -0.75z"/>
  <path d="M34.35 15.15 c-0.75 -1.20 -0.85 -1.25 -0.60 -0.25 0.50 1.70 -0.10 1.30 -1.50 -1.10 -0.70 -1.20 -1.60 -2.50 -2 -2.80 -0.40 -0.35 -0.75 -1.05 -0.75 -1.55 0 -0.50 -0.45 -0.95 -1.05 -1.05 -0.60 -0.10 -1.35 -0.55 -1.65 -1.10 -0.80 -1.35 -3.20 -3.70 -3.50 -3.45 -0.10 0.15 -0.10 0.55 0.05 0.95 0.15 0.45 -0.10 0.70 -0.80 0.70 -0.85 0 -1.05 -0.30 -1.05 -1.75 0 -1.65 0.10 -1.75 1.65 -1.75 2.05 0 2.85 0.60 4.55 3.60 1.15 2.05 4.30 4.65 4.30 3.60 0 -0.20 0.45 0.05 1 0.55 0.60 0.50 0.90 1.25 0.80 1.60 -0.15 0.35 0 0.65 0.30 0.65 0.85 0 1.85 1.65 1.90 3.15 0 0.75 -0.15 1.35 -0.40 1.35 -0.20 0 -0.75 -0.60 -1.25 -1.35z"/>
  <path d="M26.45 14.70 c-0.35 -0.40 -1.30 -1.10 -2.10 -1.50 -1.05 -0.55 -1.40 -1.05 -1.20 -1.75 0.20 -0.65 0 -0.95 -0.55 -0.95 -0.75 0 -0.75 -0.10 -0.10 -0.55 0.55 -0.40 0.60 -0.60 0.15 -0.80 -0.35 -0.10 -0.65 -0.70 -0.65 -1.20 0 -0.85 0.30 -1 1.65 -0.85 1.20 0.10 1.65 0.40 1.75 1.30 0.10 0.60 0.40 1.10 0.65 1.10 0.65 0 1.95 1.30 1.95 1.95 0 0.25 -0.75 -0.15 -1.60 -1 -2.45 -2.20 -3.40 -1.80 -1.25 0.55 1.20 1.35 2.85 3.80 2.85 4.25 0 0.55 -0.90 0.25 -1.55 -0.55z"/>
  <path d="M16 14.60 c0 -0.25 0.45 -0.85 1 -1.35 0.75 -0.70 1 -0.75 1 -0.20 0 0.40 -0.45 1 -1 1.35 -0.55 0.35 -1 0.40 -1 0.20z"/>
  <path d="M14 11.20 c0 -0.60 1.70 -3.20 2.10 -3.20 0.20 0 0.40 0.80 0.40 1.75 0 1.55 -0.15 1.75 -1.25 1.75 -0.70 0 -1.25 -0.15 -1.25 -0.30z"/>
  <path d="M11.50 8.90 c0 -0.80 2.55 -3.40 3.35 -3.40 0.80 0 0.30 1.40 -1 2.90 -1.10 1.20 -2.35 1.45 -2.35 0.50z"/>
 </g>
 <g fill="#866c4c">
  <path d="M7.80 36 c-1 -1.10 -1.80 -2.15 -1.80 -2.30 0 -0.25 2.40 1.05 5.65 3 1.25 0.80 1.05 1.30 -0.60 1.30 -1.05 0 -1.95 -0.55 -3.25 -2z"/>
  <path d="M20.50 36 c0 -0.55 -0.20 -1 -0.50 -1 -0.25 0 -0.50 -0.45 -0.50 -1 0 -0.80 -0.35 -1 -1.75 -1 -1.60 0 -1.75 -0.10 -1.75 -1.50 0 -1 -0.25 -1.50 -0.75 -1.50 -0.45 0 -0.75 -0.45 -0.75 -1.10 0.05 -1 0.35 -0.85 2.25 1.25 1.25 1.35 2.25 2.30 2.25 2.15 0 -0.70 -1.95 -3.35 -3.15 -4.30 -0.80 -0.65 -1.35 -1.55 -1.35 -2.30 0 -1.05 0.25 -1.20 1.70 -1.20 0.95 0 1.90 0.25 2.05 0.50 0.15 0.30 1.30 0.50 2.50 0.50 2.80 0 3.75 0.40 3.75 1.55 0 0.60 0.35 0.95 1 0.95 1.55 0 1.15 0.60 -1.75 2.65 l-2.75 1.90 1 1.95 c1.25 2.45 1.25 2.50 -0.25 2.50 -0.90 0 -1.25 -0.25 -1.25 -1z m1.50 -5.50 c0 -0.25 -0.30 -0.50 -0.70 -0.50 -0.40 0 -0.90 0.25 -1.05 0.50 -0.15 0.30 0.15 0.50 0.70 0.50 0.60 0 1.05 -0.20 1.05 -0.50z m2 -1.75 c0 -0.40 -0.35 -0.75 -0.75 -0.75 -0.40 0 -0.75 -0.15 -0.75 -0.35 0 -0.30 -2.50 -0.40 -4 -0.20 -0.10 0.05 0.25 0.40 0.85 0.80 0.70 0.50 1.60 0.65 2.40 0.45 0.75 -0.20 1.25 -0.10 1.25 0.25 0 0.30 0.25 0.55 0.50 0.55 0.30 0 0.50 -0.35 0.50 -0.75z"/>
  <path d="M10.45 35 c-3.25 -1.75 -3.90 -2.40 -3.60 -3.50 0.30 -1.20 0.60 -1.25 2.05 -0.20 0.65 0.45 1.30 0.70 1.45 0.55 0.45 -0.50 2.75 2.60 2.55 3.50 -0.15 0.85 -0.35 0.80 -2.45 -0.35z"/>
  <path d="M11.50 31.25 c-1.15 -1.25 -1.15 -1.25 -0.10 -1.25 0.60 0 1.15 0.40 1.35 1.05 0.50 1.55 0.05 1.60 -1.25 0.20z"/>
  <path d="M7.15 28.85 c-1.35 -0.65 -2.15 -1.35 -2.15 -1.90 0 -0.50 -0.20 -1.05 -0.50 -1.20 -0.85 -0.50 -0.55 -1.25 0.50 -1.25 0.75 0 1 0.35 1 1.25 0 0.90 0.25 1.25 0.95 1.25 0.55 0 1.15 0.25 1.30 0.55 0.20 0.30 0.60 0.40 0.95 0.30 0.30 -0.15 1.05 0.10 1.55 0.50 0.85 0.60 0.90 0.75 0.25 1.15 -1 0.65 -1.35 0.55 -3.85 -0.65z"/>
  <path d="M9.75 26.45 c-0.20 -0.30 -0.65 -0.40 -1.05 -0.25 -0.40 0.15 -0.70 0 -0.70 -0.25 0 -0.35 0.45 -0.45 1.15 -0.25 0.60 0.15 1.40 0.30 1.75 0.30 0.30 0 0.60 0.25 0.60 0.50 0 0.65 -1.35 0.65 -1.75 -0.05z"/>
  <path d="M26.65 25.25 c-1.15 -1.30 -0.75 -2.25 0.85 -2.25 1.60 0 1.65 0.10 1.20 1.90 -0.35 1.25 -1.15 1.40 -2.05 0.35z"/>
  <path d="M14 23 c0 -0.55 0.10 -1 0.20 -1 0.10 0 0.55 -0.15 1 -0.30 0.60 -0.25 0.80 0 0.80 1 0 0.95 -0.25 1.30 -1 1.30 -0.65 0 -1 -0.35 -1 -1z"/>
  <path d="M19.50 23 c0 -0.45 2 -1.75 2.20 -1.40 0.05 0.10 0.40 0.55 0.75 1.05 0.60 0.75 0.50 0.85 -1.15 0.85 -1 0 -1.80 -0.20 -1.80 -0.50z"/>
  <path d="M20.80 19.20 c-0.45 -1.15 -0.35 -2.95 0.20 -4.45 0.40 -1.10 0.65 -1.25 1.25 -0.75 0.65 0.55 0.65 1.35 -0.05 4.90 -0.25 1.30 -0.95 1.45 -1.40 0.30z"/>
  <path d="M25 18.50 c0 -0.25 -0.30 -0.45 -0.60 -0.35 -0.85 0.15 -0.85 -3.25 -0.05 -3.50 0.35 -0.15 0.75 0.35 0.95 1.05 0.30 1.30 1.70 1.85 1.70 0.70 0 -0.30 0.45 -0.15 1 0.35 0.55 0.50 0.90 1.05 0.75 1.20 -0.20 0.15 -0.50 -0.05 -0.75 -0.45 -0.35 -0.60 -0.60 -0.55 -1.40 0.40 -1.05 1.20 -1.60 1.40 -1.60 0.60z"/>
  <path d="M18.10 15.70 c0.10 -0.55 0.55 -1 1.10 -1.10 0.65 -0.15 0.85 0.05 0.70 0.70 -0.10 0.55 -0.55 1 -1.10 1.10 -0.65 0.15 -0.85 -0.05 -0.70 -0.70z"/>
  <path d="M26.70 14.75 c-0.50 -0.40 -0.70 -0.70 -0.45 -0.75 0.75 0 2 0.90 1.70 1.20 -0.15 0.15 -0.70 -0.05 -1.25 -0.45z"/>
  <path d="M20 11.20 c0 -1.40 0.10 -1.50 1.75 -1.50 1.60 0.05 1.75 0.15 1.70 1.55 -0.05 0.85 -0.15 1.15 -0.30 0.60 -0.25 -1 -1.60 -0.95 -2.50 0.15 -0.50 0.65 -0.60 0.50 -0.65 -0.80z"/>
 </g>
 <g fill="#ac7d2f">
  <path d="M21.30 38.45 c-0.40 -2.05 -0.40 -3.95 0 -3.95 0.60 0 1.65 1.70 1.70 2.65 0 0.50 0.30 1 0.70 1.15 1.10 0.40 0.35 1.70 -0.95 1.70 -0.85 0 -1.20 -0.35 -1.45 -1.55z"/>
  <path d="M8.45 36.65 c-0.70 -0.80 -1.55 -1.80 -1.95 -2.30 -0.60 -0.85 -0.60 -0.85 0.65 -0.30 0.75 0.35 1.35 0.75 1.35 0.95 0 0.20 0.70 0.65 1.50 1 0.85 0.35 1.50 0.95 1.50 1.30 0 1.15 -1.75 0.80 -3.05 -0.65z"/>
  <path d="M19 33 c0 -0.55 -0.60 -1.95 -1.30 -3.05 -0.70 -1.15 -1.15 -2.35 -1 -2.75 0.30 -0.80 3.80 -1 3.80 -0.15 0 0.25 -0.20 0.35 -0.50 0.20 -0.25 -0.15 -0.75 -0.15 -1.05 0 -0.90 0.60 1.50 1.90 2.85 1.55 0.85 -0.25 1.20 -0.10 1.20 0.45 0 0.40 0.25 0.75 0.55 0.75 0.35 0 0.45 -0.50 0.35 -1.25 -0.25 -1.15 -0.10 -1.25 1.40 -1.25 2.80 0 2.45 0.50 -3.15 4 -0.75 0.45 -1.10 1.10 -0.95 1.65 0.15 0.65 -0.10 0.85 -1 0.85 -0.85 0 -1.20 -0.30 -1.20 -1z m3 -2.50 c0 -0.25 -0.45 -0.50 -1 -0.50 -0.55 0 -1 0.25 -1 0.50 0 0.30 0.45 0.50 1 0.50 0.55 0 1 -0.20 1 -0.50z"/>
  <path d="M4.90 27.50 c-0.10 -1.45 0 -2 0.50 -2 0.35 0 0.50 0.25 0.35 0.50 -0.15 0.30 0.25 0.70 0.95 1 1.55 0.60 1.85 2.25 0.30 1.75 -0.55 -0.20 -1 -0.10 -1 0.20 0 0.30 -0.20 0.55 -0.45 0.55 -0.25 0 -0.55 -0.90 -0.65 -2z"/>
  <path d="M10.30 26.75 c-0.75 -0.40 -1.60 -0.65 -1.80 -0.50 -0.45 0.30 -1.20 -2.25 -0.75 -2.65 0.15 -0.15 0.60 0.15 0.95 0.70 0.70 0.90 0.75 0.90 1.05 0.10 0.35 -0.85 1.40 -1.30 1.15 -0.50 -0.10 0.20 0.65 1.10 1.60 2 1.70 1.55 1.75 1.55 0.50 1.60 -0.70 0 -1.90 -0.35 -2.70 -0.75z"/>
  <path d="M25 18.50 c0 -0.25 -0.35 -0.50 -0.75 -0.50 -0.85 0 -1 -1.85 -0.25 -3 0.40 -0.65 0.50 -0.65 0.50 0.10 0 0.45 0.50 1.20 1.05 1.60 0.65 0.45 0.95 1.05 0.80 1.50 -0.35 0.90 -1.35 1.10 -1.35 0.30z"/>
  <path d="M17 17.45 c0 -0.35 -0.50 -0.45 -1.25 -0.25 -1.40 0.35 -1.75 -0.40 -0.35 -0.90 0.45 -0.20 1.50 -0.70 2.25 -1.10 1.95 -1.10 2.80 -0.25 1.55 1.50 -1 1.30 -2.20 1.75 -2.20 0.75z"/>
  <path d="M20.75 15.90 c0.40 -2.25 0.80 -2.70 1.50 -1.75 0.90 1.20 0.35 3.35 -0.80 3.35 -0.80 0 -0.90 -0.25 -0.70 -1.60z"/>
 </g>
 <g fill="#447d9f">
  <path d="M6.95 34.70 l-1.20 -1.30 1.40 0.65 c0.75 0.35 1.35 0.90 1.35 1.30 0 0.90 -0.15 0.85 -1.55 -0.65z"/>
  <path d="M30.90 35.15 c0.60 -0.10 1.50 -0.10 2 0 0.45 0.15 -0.05 0.25 -1.15 0.20 -1.10 0 -1.50 -0.10 -0.85 -0.20z"/>
  <path d="M35.15 34 c0.70 -0.55 1.60 -2.05 2.05 -3.35 1.25 -3.70 0.90 -4.20 -0.65 -0.85 -0.80 1.70 -1.70 3.25 -2.10 3.45 -0.80 0.50 -5.40 0.55 -8.65 0.05 -3.55 -0.55 -1.95 -1.30 2.75 -1.20 5.05 0.05 5.75 -0.25 7.05 -3 1.85 -4 1 -11.65 -1.60 -14.65 l-1.05 -1.20 0.55 1.15 c0.35 0.65 0.45 1.30 0.35 1.45 -0.15 0.15 -0.65 -0.50 -1.10 -1.45 -0.50 -0.90 -2.40 -3.20 -4.20 -5.15 -1.85 -1.90 -3.75 -4.05 -4.20 -4.70 -0.45 -0.70 -0.95 -1.10 -1.15 -0.90 -0.50 0.50 1.55 3.40 4.50 6.35 1.55 1.50 2.80 3 2.80 3.35 0 0.35 0.20 0.65 0.45 0.65 0.70 0 2.95 4.10 3.60 6.60 0.50 1.85 0.50 2.60 -0.15 4.15 l-0.75 1.90 -0.30 -3.45 c-0.20 -1.90 -0.80 -4.70 -1.35 -6.20 -0.90 -2.45 -0.95 -2.50 -0.65 -0.75 0.65 3.60 0.40 10.85 -0.50 12.90 -1.25 2.85 -1.80 2.20 -0.75 -0.90 1.15 -3.45 1.20 -5.15 0.30 -9.50 -1.10 -5.15 -2.95 -8.15 -6.10 -9.85 -1.15 -0.65 -0.90 -0.15 1.85 3.50 1.10 1.45 1.90 2.75 1.75 2.85 -0.15 0.15 -1.10 -0.40 -2.15 -1.25 -1.05 -0.80 -2.10 -1.50 -2.30 -1.50 -0.25 0 -0.45 -0.35 -0.45 -0.75 0 -0.40 -0.45 -0.75 -1 -0.75 -0.55 0 -1 0.20 -1 0.45 0 0.60 -4.10 3.10 -4.45 2.75 -0.15 -0.10 0.45 -0.95 1.30 -1.85 1.60 -1.65 2.60 -3.85 1.75 -3.85 -0.25 0 -1.80 1.40 -3.45 3.15 -2.65 2.85 -3.40 4 -4.35 7 -0.15 0.50 -0.50 0.80 -0.75 0.60 -0.70 -0.40 -2.65 4.20 -2.30 5.35 0.45 1.30 -0.30 2.35 -0.80 1.10 -0.55 -1.40 -0.55 -3.70 0.05 -3.70 0.30 0 0.50 -0.30 0.50 -0.60 0 -1.10 2.45 -5.95 4.50 -8.95 1.85 -2.75 4.50 -7.55 4.50 -8.25 0 -0.20 -0.55 0.25 -1.25 1 -0.70 0.75 -1.25 1.55 -1.25 1.75 0 0.25 -0.35 0.70 -0.75 1.05 -1.50 1.25 -4.25 6 -5.50 9.55 -0.85 2.40 -1.20 3 -1 1.80 0.15 -1.05 0.45 -2.30 0.60 -2.75 0.30 -0.70 0.20 -0.75 -0.40 -0.25 -0.95 0.80 -2.10 5.25 -2.05 8 0.05 3.80 0.10 3.95 0.50 3.25 0.25 -0.35 0.80 -0.50 1.25 -0.30 0.65 0.20 0.70 0.45 0.20 0.95 -0.30 0.35 -0.90 0.50 -1.20 0.40 -0.35 -0.15 -0.65 0.10 -0.65 0.55 0 0.45 0.35 0.95 0.75 1.10 1 0.40 0.95 1.05 -0.10 1.35 -0.70 0.20 -0.65 0.25 0.20 0.30 1.10 0.05 2 0.90 1.50 1.40 -0.15 0.15 -0.95 -0.20 -1.80 -0.80 -1.35 -0.95 -1.50 -1.40 -1.65 -3.95 -0.15 -2.90 -0.90 -3.65 -1.50 -1.50 -0.25 1.05 -0.30 1 -0.35 -0.30 -0.05 -0.80 0.45 -3.05 1 -5 2.45 -8.05 6.40 -13.50 14.25 -19.55 1.70 -1.30 2.25 -1.45 4.40 -1.25 2.35 0.25 2.45 0.30 4.05 3.20 0.90 1.65 2.40 3.60 3.30 4.40 1.80 1.45 2.70 1.80 2.20 0.80 -0.20 -0.35 0.35 0.10 1.15 1 3.50 3.95 6.10 11.95 5.30 16.50 -0.55 3.45 -1.80 6.60 -2.85 7.35 -1.60 1.10 -2.20 0.90 -0.70 -0.25z m-12.15 -24.50 c0 -0.25 -0.30 -0.50 -0.70 -0.50 -0.40 0 -0.90 0.25 -1.05 0.50 -0.15 0.30 0.15 0.50 0.70 0.50 0.60 0 1.05 -0.20 1.05 -0.50z"/>
  <path d="M9.50 25.65 c0.05 -0.50 0.35 -1.45 0.75 -2.15 l0.70 -1.25 -0.05 1.50 c-0.15 1.70 -1.40 3.50 -1.40 1.90z"/>
  <path d="M17.70 15.25 c1.10 -0.85 1.80 -0.95 1.80 -0.30 0 0.50 -1.20 1.05 -2.15 1.05 -0.35 0 -0.15 -0.35 0.35 -0.75z"/>
 </g>
 <g fill="#798173">
  <path d="M7.60 35.40 c-0.35 -0.35 -0.60 -0.75 -0.60 -1 0 -0.60 1.40 0.10 1.70 0.90 0.35 0.85 -0.30 0.90 -1.10 0.10z"/>
  <path d="M6.85 32.75 c-1.75 -1.20 -2.50 -2.75 -1.30 -2.75 0.80 0 3.95 1.55 3.90 1.95 0 0.15 -0.20 0.70 -0.35 1.20 -0.35 0.80 -0.50 0.75 -2.25 -0.40z"/>
  <path d="M9.50 25.30 c0 -1.20 0.75 -1.30 1.65 -0.25 0.80 0.90 0.80 0.95 -0.40 0.95 -0.75 0 -1.25 -0.30 -1.25 -0.70z"/>
  <path d="M14 23.05 c0 -0.75 1.35 -1.60 2.15 -1.25 0.50 0.15 0.85 -0.05 1 -0.65 0.15 -0.50 0.25 -0.20 0.30 0.75 0.05 1.50 -0.05 1.60 -1.70 1.60 -0.95 0 -1.75 -0.20 -1.75 -0.45z"/>
  <path d="M24.40 23.15 c0.60 -0.10 1.60 -0.10 2.25 0 0.60 0.10 0.10 0.20 -1.15 0.20 -1.25 0 -1.75 -0.10 -1.10 -0.20z"/>
  <path d="M25.15 21.45 c0.70 -0.40 1.10 -0.40 1.50 0 0.40 0.40 0.15 0.55 -0.90 0.55 -1.30 -0.05 -1.40 -0.10 -0.60 -0.55z"/>
  <path d="M14 17 c0 -0.25 0.45 -0.50 1.05 -0.50 0.55 0 0.85 0.25 0.70 0.50 -0.15 0.30 -0.65 0.50 -1.05 0.50 -0.40 0 -0.70 -0.20 -0.70 -0.50z"/>
  <path d="M23.25 12 c-0.15 -0.25 -0.20 -0.70 -0.05 -0.95 0.45 -0.70 -0.20 -1.95 -1.10 -2.20 -0.80 -0.20 -0.80 -0.25 0 -0.30 0.95 -0.05 2.40 1.75 2.40 3.05 0 0.95 -0.75 1.20 -1.25 0.40z"/>
  <path d="M19.60 11.15 c0.15 -0.95 3.40 -1.60 3.40 -0.70 0 0.30 -0.45 0.55 -0.95 0.55 -0.55 0 -1.15 0.25 -1.30 0.50 -0.50 0.80 -1.35 0.55 -1.15 -0.35z"/>
 </g>
 <g fill="#9a8266">
  <path d="M8.30 36.15 c-0.85 -0.85 -1.15 -1.45 -0.80 -1.55 0.35 -0.15 0.75 0 0.95 0.25 0.15 0.30 0.80 0.75 1.45 1.10 0.60 0.30 1.10 0.80 1.10 1.05 0 0.95 -1.35 0.50 -2.70 -0.85z"/>
  <path d="M20 35.25 c0 -0.40 -0.20 -0.75 -0.50 -0.75 -0.25 0 -0.50 -0.60 -0.50 -1.35 0 -0.80 -0.35 -1.85 -0.75 -2.35 -0.95 -1.25 -0.95 -1.80 0 -1.80 0.40 0 0.75 0.45 0.75 0.95 0 0.75 0.40 1.05 1.90 1.20 1.60 0.15 1.70 0.25 0.75 0.60 -0.95 0.30 -1.05 0.50 -0.60 1.35 0.40 0.75 0.65 0.85 0.95 0.40 0.25 -0.45 0.45 -0.45 0.70 -0.05 0.20 0.30 0.10 0.55 -0.25 0.55 -0.30 0 -0.45 0.40 -0.30 1 0.20 0.80 0 1 -0.95 1 -0.75 0 -1.20 -0.30 -1.20 -0.75z"/>
  <path d="M8.90 34.10 c-0.85 -0.55 -1.40 -1.30 -1.40 -1.95 0 -0.65 0.15 -1.15 0.30 -1.15 0.60 0 5.70 3.25 5.70 3.60 0 0.70 -3.20 0.35 -4.60 -0.50z"/>
  <path d="M12.25 31.95 c-0.80 -0.85 -2.45 -2 -3.60 -2.55 -1.20 -0.50 -2.15 -1.30 -2.15 -1.75 0 -0.50 0.25 -0.65 0.90 -0.40 0.45 0.20 1.55 0.55 2.40 0.80 2.05 0.60 4.35 3.05 4.10 4.45 -0.15 1.05 -0.20 1 -1.65 -0.55z"/>
  <path d="M5.50 31.75 c-0.45 -0.55 -0.50 -0.95 -0.10 -1.35 0.70 -0.70 1.60 -0.05 1.60 1.15 0 1.15 -0.65 1.25 -1.50 0.20z"/>
  <path d="M15.50 30.70 c0 -1.95 0.45 -1.90 2 0.30 l1.05 1.50 -1.50 0 c-1.45 0 -1.55 -0.15 -1.55 -1.80z"/>
  <path d="M13.25 29 c-0.80 -0.90 -2 -1.80 -2.60 -2.05 -0.70 -0.25 -1.15 -0.85 -1.15 -1.45 0 -1.10 0.65 -1.30 1.65 -0.50 3.25 2.55 3.95 3.35 3.75 4.45 -0.15 1.10 -0.20 1.10 -1.65 -0.45z"/>
  <path d="M7.80 25.20 c-0.45 -1.20 -0.35 -2.20 0.25 -2.20 0.25 0 0.40 0.20 0.20 0.45 -0.15 0.25 -0.05 0.60 0.25 0.80 0.60 0.40 0.65 1.75 0.05 1.75 -0.25 0 -0.60 -0.35 -0.75 -0.80z"/>
  <path d="M16.50 23.80 c0 -0.45 -0.20 -0.80 -0.50 -0.80 -0.25 0 -0.50 -0.20 -0.50 -0.50 0 -0.25 0.30 -0.50 0.70 -0.50 0.40 0 0.80 -0.40 0.95 -0.85 0.15 -0.70 0.30 -0.60 0.75 0.50 0.65 1.60 0.60 1.55 2.40 0.65 1.25 -0.65 1.45 -0.65 2 0.10 0.80 1.10 0.05 1.55 -3.30 1.95 -2.10 0.25 -2.50 0.15 -2.50 -0.55z"/>
  <path d="M21.10 19.40 c-0.85 -0.85 -0.75 -2.90 0.10 -2.90 0.40 0 0.85 -0.50 0.95 -1.10 0.10 -0.65 0.25 -0.25 0.25 0.85 0.05 2.70 -0.45 4 -1.30 3.15z"/>
  <path d="M25 18.25 c0 -0.45 -0.30 -0.60 -0.75 -0.45 -0.50 0.20 -0.75 0 -0.75 -0.70 0 -2.35 1.30 -3.55 1.60 -1.45 0.10 0.80 0.50 1.10 1.40 1.10 1.50 0 2.50 0.60 2.50 1.40 0 0.35 -0.35 0.15 -0.75 -0.40 -0.75 -0.95 -0.75 -0.95 -1.55 0.15 -0.85 1.25 -1.70 1.45 -1.70 0.35z"/>
  <path d="M16.85 17 c-0.20 -0.80 0 -1 1 -1 0.90 0 1.20 0.25 1.05 0.85 -0.25 1.30 -1.70 1.40 -2.05 0.15z"/>
  <path d="M14.25 17 c0.15 -0.25 0.65 -0.50 1.05 -0.50 0.40 0 0.60 0.25 0.45 0.50 -0.15 0.30 -0.65 0.50 -1.05 0.50 -0.40 0 -0.60 -0.20 -0.45 -0.50z"/>
  <path d="M19.60 11.45 c0.10 -0.75 0.55 -1.15 1.55 -1.25 0.75 -0.05 1.35 0.10 1.35 0.35 0 0.25 -0.35 0.45 -0.75 0.45 -0.45 0 -0.90 0.35 -1.05 0.75 -0.45 1.15 -1.30 0.90 -1.10 -0.30z"/>
 </g>
 <g fill="#528baa">
  <path d="M25 33 c-2.05 -0.60 0.05 -1.20 2.95 -0.80 2.25 0.30 7.90 -0.50 7.40 -1.05 -0.15 -0.10 0.20 -1.50 0.75 -3.05 0.70 -2.10 0.90 -3.65 0.75 -5.90 -0.30 -3.85 -2.30 -8.50 -3.95 -9.15 -1.65 -0.60 -7.85 -7.30 -8.70 -9.35 -0.55 -1.35 -1 -1.70 -2.15 -1.70 -1.60 0 -2.50 0.90 -3.75 3.85 -0.90 2.05 -0.75 3.40 0.35 2.85 0.35 -0.15 -0.60 0.80 -2 2.15 -1.60 1.45 -3.10 3.50 -3.90 5.15 -0.65 1.50 -1.25 2.40 -1.30 2 0 -0.40 -0.75 0.70 -1.65 2.50 -1.15 2.30 -1.50 3.45 -1.15 3.90 0.35 0.45 0.30 0.85 -0.10 1.25 -0.50 0.45 -0.55 0.40 -0.25 -0.35 0.25 -0.65 0.20 -0.85 -0.20 -0.60 -0.40 0.25 -0.60 -0.05 -0.60 -0.90 0 -0.70 0.25 -1.30 0.50 -1.30 0.30 0 0.50 -0.25 0.50 -0.55 0 -1.20 2.80 -6.85 5.05 -10.20 3.85 -5.75 4.85 -8.20 3.10 -7.50 -0.50 0.15 0 -0.50 1.10 -1.45 1.85 -1.65 2.25 -1.80 4.75 -1.65 l2.75 0.10 0.65 2.15 c0.50 1.50 1.55 2.90 3.75 4.85 1.85 1.70 3.15 2.55 3.35 2.20 0.40 -0.55 1.95 1.70 3.95 5.80 1.05 2.15 1.25 3.30 1.35 8 0.10 3.30 0 4.80 -0.25 3.75 l-0.35 -1.75 -0.60 2.10 c-0.35 1.15 -1.20 2.80 -1.90 3.65 -1.25 1.45 -1.45 1.50 -5.10 1.45 -2.15 -0.05 -4.40 -0.20 -5.10 -0.45z"/>
  <path d="M29.70 29.65 c1.50 -3 1.70 -6.55 0.70 -11.25 -0.80 -3.60 -2.50 -7.30 -3.80 -8.25 -0.45 -0.35 -0.60 -0.65 -0.30 -0.65 0.25 0 1.20 0.70 2.05 1.50 2.35 2.15 3.90 7.85 3.45 12.90 -0.30 3.60 -1.45 7.10 -2.35 7.10 -0.25 0 -0.15 -0.60 0.25 -1.35z"/>
  <path d="M4.75 25.95 c-0.25 -1.50 -0.50 -1.90 -0.80 -1.40 -0.60 0.85 0 -2.90 0.60 -4.15 0.25 -0.45 0.45 -1.15 0.45 -1.60 0 -0.80 3.35 -6.65 4.10 -7.10 0.30 -0.20 0.25 0.20 -0.10 0.80 -1.20 2.20 -0.15 1.40 1.25 -1 1.30 -2.20 2.55 -3.35 3.05 -2.85 0.10 0.10 -0.20 0.65 -0.70 1.25 -0.55 0.60 -1.50 2.10 -2.15 3.30 -0.65 1.25 -1.55 2.35 -2 2.45 -1.20 0.30 -2.40 4.55 -2.55 8.75 -0.10 4 -0.65 4.70 -1.15 1.55z"/>
  <path d="M33.25 21.15 c-0.20 -1.05 -0.65 -2.85 -1 -4 -0.40 -1.20 -0.60 -2.15 -0.45 -2.15 0.55 0 2.70 5.35 2.70 6.65 0 2 -0.90 1.65 -1.25 -0.50z"/>
  <path d="M18.25 12 c1.85 -1.90 3.15 -2.10 2.50 -0.40 -0.25 0.65 -3.25 2.40 -4.10 2.40 -0.20 0 0.55 -0.90 1.60 -2z"/>
  <path d="M24.25 12.80 c-0.75 -0.60 -1.25 -1.40 -1.10 -1.65 0.50 -0.80 -0.15 -2.15 -1 -2.15 -0.40 0 -0.55 -0.25 -0.40 -0.50 0.25 -0.40 0.55 -0.35 1.05 0 0.75 0.65 3.30 5.05 3.05 5.30 -0.05 0.10 -0.80 -0.35 -1.60 -1z"/>
  <path d="M23.05 6.70 c-0.30 -0.70 -0.50 -1.85 -0.50 -2.60 0.05 -1.05 0.10 -1.10 0.30 -0.35 0.15 0.55 0.40 1.25 0.65 1.50 0.65 0.95 0.95 2.20 0.55 2.45 -0.20 0.15 -0.65 -0.30 -1 -1z"/>
 </g>
 <g fill="#b7844c">
  <path d="M14 39.50 c0 -0.25 -0.35 -0.50 -0.75 -0.50 -0.40 0 -0.75 -0.35 -0.75 -0.75 0 -0.50 0.55 -0.75 1.75 -0.75 1.55 0 1.75 0.15 1.75 1.25 0 0.90 -0.25 1.25 -1 1.25 -0.55 0 -1 -0.20 -1 -0.50z"/>
  <path d="M9.55 34.35 c-2.90 -1.50 -4.85 -3.25 -4.15 -3.95 0.60 -0.60 3.50 0.80 3.95 1.90 0.15 0.35 0.70 0.70 1.20 0.70 0.55 0 1.10 0.35 1.25 0.75 0.60 1.50 -0.10 1.70 -2.25 0.60z"/>
  <path d="M20.50 31.50 c0 -0.25 0.30 -0.50 0.70 -0.50 0.40 0 0.90 -0.20 1.05 -0.50 0.20 -0.30 -0.35 -0.50 -1.20 -0.50 -1.05 0 -1.55 0.25 -1.55 0.75 0 1.10 -0.90 0.90 -1.55 -0.35 -0.30 -0.65 -1.35 -1.85 -2.25 -2.70 -1.95 -1.80 -2.35 -4.20 -0.75 -4.20 0.55 0 1.05 0.20 1.15 0.50 0.10 0.25 1.45 0.60 3.05 0.80 2.85 0.35 2.85 0.35 2.85 -1 0 -0.95 0.20 -1.25 0.65 -0.95 0.30 0.20 1.10 0.30 1.75 0.20 0.85 -0.10 1.10 0.15 1.10 0.90 0 0.60 -0.30 1.05 -0.75 1.05 -0.45 0 -0.60 0.30 -0.45 0.75 0.45 1.15 1.55 0.90 1.90 -0.50 0.35 -1.45 2.30 -1.80 2.30 -0.45 0 1.10 -1.95 4.20 -2.60 4.20 -0.30 0 -1.30 0.70 -2.25 1.50 -1.65 1.50 -3.15 1.95 -3.15 1z m3.50 -2.45 c0 -1.10 -1.05 -1.65 -3.40 -1.80 -1.70 -0.10 -3.10 0.90 -2.10 1.50 0.25 0.15 0.50 0.05 0.50 -0.30 0 -0.40 0.20 -0.40 0.75 0.05 0.40 0.35 1.25 0.50 2 0.30 0.90 -0.25 1.25 -0.10 1.25 0.45 0 0.40 0.25 0.75 0.50 0.75 0.30 0 0.50 -0.45 0.50 -0.95z"/>
  <path d="M16 30.75 c0 -0.40 -0.25 -0.75 -0.50 -0.75 -0.85 0 -3 -2.40 -3 -3.35 0 -0.65 0.50 -0.35 2.05 1.10 2.55 2.50 3.30 3.75 2.20 3.75 -0.40 0 -0.75 -0.35 -0.75 -0.75z"/>
  <path d="M9.25 29.70 c-0.80 -0.45 -2.05 -0.85 -2.75 -0.90 -0.85 -0.10 -1.30 -0.50 -1.40 -1.25 -0.10 -0.55 0.05 -1.05 0.35 -1.05 0.30 0 0.55 0.40 0.55 0.90 0 0.70 0.10 0.75 0.50 0.10 0.35 -0.60 0.60 -0.60 1.10 -0.10 0.30 0.30 1.10 0.60 1.75 0.60 1.15 0 1.90 0.95 1.55 2 -0.10 0.30 -0.75 0.20 -1.65 -0.30z"/>
  <path d="M9.75 25.85 c-0.20 -0.50 -0.25 -1.05 -0.05 -1.20 0.50 -0.50 0.90 0.20 0.65 1.20 -0.20 0.85 -0.20 0.85 -0.60 0z"/>
  <path d="M20.70 18.75 c-0.40 -1 0.20 -3.20 1.05 -4.10 0.65 -0.65 0.75 -0.50 0.75 0.95 0 3.20 -1.10 5.05 -1.80 3.15z"/>
  <path d="M25.20 18.30 c-0.15 -0.45 -0.50 -0.70 -0.70 -0.55 -0.45 0.25 -0.90 -1.75 -0.60 -2.65 0.30 -0.95 1.10 -0.70 1.10 0.35 0 0.50 0.50 1.25 1.05 1.65 0.95 0.60 1 0.75 0.25 1.35 -0.65 0.55 -0.85 0.55 -1.10 -0.15z"/>
  <path d="M17 17 c-0.45 -0.80 -0.30 -1.10 0.75 -1.80 1.80 -1.15 2.65 -0.30 1.50 1.50 -1.05 1.55 -1.55 1.65 -2.25 0.30z"/>
 </g>
 <g fill="#689eba">
  <path d="M27 33.05 l-3.25 -0.30 4.90 -0.30 c3.95 -0.20 5.05 -0.45 5.80 -1.20 1.30 -1.45 2.55 -4.90 2.90 -8.25 0.25 -2.45 0.10 -3.30 -1.05 -5.80 -0.75 -1.65 -1.85 -3.50 -2.45 -4.15 -1.05 -1.10 -1.05 -1.15 -0.10 -1 0.65 0.15 1.60 1.40 2.75 3.65 1.60 3.20 1.75 3.85 1.80 8.50 0.10 3.35 0 4.40 -0.25 3.05 l-0.35 -2 -0.40 1.50 c-0.95 3.75 -1.45 4.80 -2.65 5.75 -1.30 1.05 -1.80 1.05 -7.65 0.55z"/>
  <path d="M29.80 29.45 c1.80 -3.55 1.40 -10.90 -0.85 -15.65 -1.20 -2.55 -1.20 -3.20 0 -2.10 0.55 0.50 1.45 2.70 2.05 4.95 0.85 3.20 1.05 4.70 0.75 7.30 -0.35 3.50 -1.25 6.20 -2.25 6.80 -0.30 0.20 -0.20 -0.40 0.30 -1.30z"/>
  <path d="M4.80 23.90 c-0.40 -2.45 0.05 -4.55 1.90 -8.30 1.40 -2.85 1.60 -1.90 0.30 1.85 -0.55 1.65 -1 3.75 -1.05 4.65 -0.05 0.90 -0.20 2.20 -0.40 2.90 -0.35 1.10 -0.45 0.95 -0.75 -1.10z"/>
  <path d="M9 20.70 c0 -0.85 3.10 -6.80 4.70 -8.80 0.80 -1.10 1.85 -1.90 2.40 -1.90 0.90 0 0.70 0.35 -1 2.20 -1.10 1.15 -2.15 2.65 -2.35 3.25 -0.15 0.55 -0.50 1.05 -0.75 1.05 -0.30 0 -1.05 1.05 -1.70 2.40 -0.70 1.30 -1.25 2.10 -1.30 1.80z"/>
  <path d="M33.35 20.50 c-0.15 -0.40 -0.40 -1.40 -0.55 -2.25 l-0.30 -1.50 0.80 1.40 c0.40 0.80 0.65 1.80 0.55 2.25 -0.15 0.70 -0.25 0.75 -0.50 0.10z"/>
  <path d="M9.50 13.60 c0 -0.85 2.10 -4 2.85 -4.30 0.30 -0.15 -0.10 0.80 -0.95 2.10 -2 2.95 -1.90 2.85 -1.90 2.20z"/>
  <path d="M18.35 12.45 c0.90 -0.90 1.75 -1.50 1.95 -1.35 0.50 0.50 -0.25 1.35 -1.95 2.20 l-1.60 0.80 1.60 -1.65z"/>
  <path d="M24.15 12.65 c-0.35 -0.15 -0.65 -0.60 -0.65 -1.05 0 -0.75 0.10 -0.75 0.85 0.05 0.90 0.90 0.80 1.35 -0.20 1z"/>
  <path d="M29.45 9.70 c-0.65 -0.70 -0.85 -1.15 -0.45 -0.95 0.65 0.25 2.30 2.25 1.85 2.25 -0.10 0 -0.70 -0.55 -1.40 -1.30z"/>
  <path d="M18.50 2.25 c0.65 -0.70 1.60 -1.25 2.15 -1.25 0.75 0 0.70 0.20 -0.55 1.25 -0.85 0.70 -1.80 1.25 -2.15 1.25 -0.35 0 -0.15 -0.50 0.55 -1.25z"/>
 </g>
 <g fill="#ca9864">
  <path d="M14.50 39.60 c0 -0.20 -1 -0.65 -2.20 -1.05 -1.20 -0.35 -2.90 -1.30 -3.75 -2.15 -1.60 -1.60 -1.75 -2.65 -0.20 -1.35 1 0.85 3.40 1.95 4.25 1.95 0.30 0 0.10 -0.50 -0.50 -1.15 -1.15 -1.25 -0.80 -2.60 0.55 -2.05 0.90 0.30 1.20 -0.55 0.35 -1.05 -0.25 -0.15 -0.35 -0.60 -0.15 -1 0.15 -0.40 0 -0.75 -0.30 -0.75 -0.30 0 -0.55 -0.40 -0.55 -0.85 0 -0.70 0.20 -0.60 1.25 0.35 0.70 0.65 1.40 1.05 1.55 0.85 0.50 -0.45 -2.35 -3.90 -3.65 -4.40 -1.15 -0.45 -2.05 -1.75 -1.50 -2.25 0.45 -0.50 2.85 1.40 2.85 2.25 0 0.60 0.10 0.65 0.45 0.15 0.30 -0.50 1.10 0.10 3 2.25 2.05 2.30 2.45 2.95 1.75 3.10 -1.15 0.20 -2.20 1.30 -2.20 2.25 0 0.40 -0.20 0.90 -0.50 1.05 -0.90 0.55 -0.55 1.75 0.50 1.75 0.75 0 1 0.35 1 1.25 0 0.90 -0.25 1.25 -1 1.25 -0.55 0 -1 -0.20 -1 -0.40z"/>
  <path d="M22 38.75 c0 -1.45 0.40 -1.60 1.30 -0.35 0.95 1.20 0.85 1.60 -0.30 1.60 -0.75 0 -1 -0.35 -1 -1.25z"/>
  <path d="M7.65 33.10 c-2.20 -1.40 -2.80 -2.60 -1.35 -2.60 1.40 0 4.20 2 4.20 3.05 0 1.25 -0.35 1.20 -2.85 -0.45z"/>
  <path d="M18.80 31.75 c-0.45 -0.65 -0.80 -1.45 -0.80 -1.70 0 -0.30 -0.80 -1.35 -1.80 -2.35 -1.40 -1.40 -1.85 -2.25 -1.90 -3.65 -0.05 -1.55 0.10 -1.80 1.20 -1.95 0.70 -0.10 1.55 -0.45 1.90 -0.70 0.45 -0.40 0.60 -0.25 0.60 0.55 0 0.75 -0.30 1.05 -1.05 1.05 -0.60 0 -0.95 0.25 -0.80 0.65 0.15 0.40 1.05 0.55 2.75 0.45 1.65 -0.15 2.60 0 2.60 0.35 0 0.30 0.65 0.55 1.45 0.55 0.80 0 1.55 0.25 1.65 0.60 0.15 0.40 0.45 0.40 1.20 0 0.50 -0.30 0.65 -0.60 0.35 -0.60 -0.90 0 -0.80 -2 0.05 -2 1.30 0 2.30 0.60 2.30 1.35 0 1.30 -1.35 3.40 -3 4.60 -1.55 1.10 -1.60 1.15 -1.25 0.10 0.20 -0.75 0.10 -1.05 -0.40 -1.05 -0.40 0 -0.85 -0.35 -1.05 -0.75 -0.20 -0.65 -0.45 -0.65 -1.25 -0.15 -0.75 0.45 -1.15 0.45 -1.70 0 -0.55 -0.50 -0.85 -0.45 -1.35 0.15 -0.90 1.05 -0.30 1.50 2.15 1.55 1.25 0.05 2.05 0.30 2 0.65 -0.10 0.30 0.10 0.55 0.45 0.55 0.30 0 0.15 0.45 -0.35 1 -0.50 0.55 -1.20 1 -1.60 1 -0.35 0 -0.65 0.25 -0.65 0.50 0 0.90 -0.85 0.50 -1.70 -0.75z m3.70 -1.25 c0 -0.25 -0.65 -0.50 -1.50 -0.50 -0.80 0 -1.50 0.25 -1.50 0.50 0 0.30 0.70 0.50 1.50 0.50 0.85 0 1.50 -0.20 1.50 -0.50z"/>
  <path d="M8.15 29.15 c-0.90 -0.45 -1.65 -1.15 -1.65 -1.50 0 -0.75 0.80 -0.85 1.25 -0.15 0.15 0.30 0.85 0.50 1.55 0.50 0.85 0 1.20 0.25 1.20 1 0 1.20 -0.25 1.20 -2.35 0.15z"/>
  <path d="M5 27.50 c0 -0.95 0.15 -1.05 0.60 -0.60 0.45 0.45 0.45 0.75 0 1.20 -0.45 0.45 -0.60 0.35 -0.60 -0.60z"/>
  <path d="M21.10 16.75 c0.10 -1.50 0.40 -2.75 0.65 -2.80 0.65 0 0.90 1.80 0.50 3.85 -0.50 2.75 -1.30 2 -1.15 -1.05z"/>
  <path d="M25 17.95 c0 -0.25 -0.20 -0.35 -0.50 -0.20 -0.30 0.20 -0.50 -0.30 -0.50 -1.20 0 -0.80 0.25 -1.65 0.50 -1.80 0.30 -0.20 0.50 0.25 0.50 0.95 0 0.80 0.30 1.30 0.75 1.30 0.40 0 0.75 0.35 0.75 0.75 0 0.40 -0.35 0.75 -0.75 0.75 -0.40 0 -0.75 -0.25 -0.75 -0.55z"/>
  <path d="M17.05 17.10 c-0.50 -0.90 -0.40 -1.20 0.70 -1.90 1.95 -1.30 2.75 -0.20 1.10 1.55 -1.25 1.35 -1.25 1.35 -1.80 0.35z"/>
 </g>
 <g fill="#b09a8c">
  <path d="M11.15 35.15 c-0.70 -0.25 -0.90 -2.15 -0.25 -2.15 0.20 0 0.85 0.35 1.40 0.75 0.60 0.40 1.20 0.55 1.40 0.40 0.15 -0.15 0.30 0.05 0.30 0.50 0 0.85 -1.45 1.10 -2.85 0.50z"/>
  <path d="M20.30 33.95 c-0.50 -2.45 -0.35 -2.90 0.70 -2.80 1.15 0.05 1.40 0.85 0.25 0.85 -0.95 0 -0.95 0.45 0 1.70 0.95 1.25 0.95 1.80 0.05 1.80 -0.35 0 -0.80 -0.70 -1 -1.55z"/>
  <path d="M13 32.75 c-0.50 -0.60 -0.50 -0.75 0.20 -0.75 0.45 0 0.80 0.35 0.80 0.75 0 0.40 -0.10 0.75 -0.20 0.75 -0.10 0 -0.45 -0.35 -0.80 -0.75z"/>
  <path d="M6.65 32.15 c-1.50 -1 -1.45 -1.75 0.05 -1.45 1.35 0.25 3.30 1.35 3.30 1.90 0 0.70 -2.20 0.40 -3.35 -0.45z"/>
  <path d="M10.10 30.10 c-0.90 -0.75 -1.60 -1.50 -1.60 -1.70 0 -0.95 1.90 -0.25 3.75 1.35 1.90 1.65 1.95 1.70 0.75 1.70 -0.70 0 -2 -0.60 -2.90 -1.35z"/>
  <path d="M13.30 28.55 c-0.50 -0.55 -0.80 -1.35 -0.70 -1.80 0.10 -0.65 0.55 -0.40 1.85 0.95 1.55 1.60 1.60 1.80 0.75 1.80 -0.60 0 -1.45 -0.45 -1.90 -0.95z"/>
  <path d="M16.85 28.25 c-1.20 -1.65 -0.10 -1.65 1.45 0 0.95 1.05 1 1.25 0.30 1.25 -0.45 0 -1.25 -0.60 -1.75 -1.25z"/>
  <path d="M20.35 27.15 c-0.85 -0.80 -0.25 -1.65 1.15 -1.65 1.70 0 1.90 0.35 0.65 1.30 -1.05 0.75 -1.35 0.85 -1.80 0.35z"/>
  <path d="M17.25 26.50 c-0.20 -0.35 -0.80 -0.50 -1.30 -0.35 -0.55 0.15 -0.95 0.05 -0.95 -0.20 0 -0.25 0.90 -0.45 2.05 -0.45 1.35 0 1.95 0.20 1.85 0.60 -0.30 0.85 -1.25 1.05 -1.65 0.40z"/>
  <path d="M16.40 24.15 c-1.50 -0.15 -1.90 -0.45 -1.90 -1.20 0 -0.60 0.35 -0.95 0.95 -0.95 0.55 0 1.30 -0.15 1.75 -0.30 0.55 -0.20 0.80 -0.05 0.80 0.50 0 0.95 0.50 1 2.20 0.25 1 -0.45 1.45 -0.40 2.50 0.35 0.70 0.55 1.30 1.10 1.30 1.35 0 0.35 -4.10 0.35 -7.60 0z"/>
 </g>
 <g fill="#d8ae52">
  <path d="M20.80 37.70 c-0.45 -1.25 -0.35 -3.70 0.20 -3.70 0.55 0 2 2.65 2 3.75 0 1 -1.80 1 -2.20 -0.05z"/>
  <path d="M8.60 36.50 c-0.60 -0.60 -1.10 -1.25 -1.10 -1.55 0 -0.70 2.45 1.20 2.50 1.95 0 0.80 -0.15 0.75 -1.40 -0.40z"/>
  <path d="M6.75 32.25 c-1.70 -1.40 -1.50 -2 0.45 -1.30 0.80 0.35 1.30 0.90 1.30 1.55 0 1.20 0.10 1.25 -1.75 -0.25z"/>
  <path d="M18.70 32.70 c0.30 -0.80 -0.75 -3.30 -2.15 -4.90 -0.70 -0.85 -0.60 -0.85 0.80 0.10 0.85 0.60 2.10 1.10 2.75 1.10 0.60 0 1.50 0.25 1.90 0.50 0.55 0.35 0.35 0.50 -0.85 0.50 -0.90 0 -1.65 0.25 -1.65 0.50 0 0.45 1.05 0.70 2.25 0.55 0.30 -0.05 0.10 0.25 -0.45 0.65 -0.50 0.40 -0.75 0.95 -0.55 1.25 0.20 0.35 -0.20 0.55 -1 0.55 -1.05 0 -1.30 -0.20 -1.05 -0.80z"/>
  <path d="M7.20 28.30 c-0.50 -0.40 -0.75 -0.90 -0.55 -1.10 0.20 -0.20 0.75 0 1.20 0.45 1.10 1.05 0.60 1.55 -0.65 0.65z"/>
  <path d="M24.75 28 c-0.15 -0.25 0.15 -0.50 0.75 -0.50 0.60 0 0.90 0.25 0.75 0.50 -0.15 0.30 -0.50 0.50 -0.75 0.50 -0.25 0 -0.60 -0.20 -0.75 -0.50z"/>
  <path d="M10.90 26.70 c-1.40 -0.70 -1.70 -1.25 -1.10 -1.85 0.30 -0.30 3.55 1.45 4 2.20 0.40 0.70 -1.40 0.50 -2.90 -0.35z"/>
  <path d="M17.20 26.45 c-0.15 -0.30 -0.70 -0.45 -1.20 -0.30 -0.85 0.20 -2.20 -1.30 -1.65 -1.85 0.20 -0.15 1.30 -0.30 2.50 -0.30 2.35 0 3.25 0.95 2.15 2.25 -0.75 0.90 -1.30 0.95 -1.80 0.20z"/>
  <path d="M21 18.50 c0 -0.55 0.25 -1 0.50 -1 0.30 0 0.50 0.45 0.50 1 0 0.55 -0.20 1 -0.50 1 -0.25 0 -0.50 -0.45 -0.50 -1z"/>
  <path d="M17.05 17.10 c-0.60 -1.10 -0.30 -1.60 1.05 -1.60 0.50 0 0.90 -0.25 0.90 -0.60 0 -0.45 0.15 -0.45 0.55 -0.05 0.35 0.35 0.15 0.90 -0.75 1.85 -1.20 1.30 -1.25 1.35 -1.75 0.40z"/>
 </g>
 <g fill="#ccaa8b">
  <path d="M15 39.60 c0 -0.20 -1.05 -0.70 -2.30 -1.05 -2.35 -0.70 -5.20 -2.70 -5.20 -3.65 0 -0.30 0.40 -0.20 0.90 0.20 1.15 1 4.05 2.10 4.45 1.70 0.40 -0.35 0.50 -0.25 -2.95 -2.45 -1.60 -1 -2.90 -2.20 -2.90 -2.60 0 -1.10 0.45 -0.95 3.50 0.95 1.50 0.95 2.90 1.60 3.10 1.50 0.65 -0.40 -1.20 -2.50 -3.70 -4.25 -1.35 -0.85 -2.40 -1.80 -2.40 -2 0 -0.80 3.20 0.60 5.30 2.30 1.25 1.05 2.20 1.55 2.20 1.15 0 -1 -2.85 -4.30 -4 -4.65 -0.60 -0.20 -1 -0.75 -1 -1.35 0 -1 0.05 -1 0.90 -0.25 0.50 0.50 1.15 0.85 1.45 0.85 0.25 0 1.80 1.45 3.45 3.20 1.60 1.80 3 3.15 3.10 3.05 0.25 -0.25 -1.35 -3.30 -2.35 -4.45 -0.80 -0.95 -0.75 -0.95 0.50 -0.10 1.25 0.80 3.95 5.05 3.95 6.25 0 0.30 -0.75 0.55 -1.70 0.55 -1.40 0 -1.75 -0.20 -2 -1.25 -0.45 -1.80 -1.80 -1.60 -1.80 0.25 0 1 -0.25 1.50 -0.75 1.50 -0.40 0 -0.75 0.40 -0.75 0.90 0 0.70 0.35 0.85 2 0.70 2 -0.20 2 -0.20 2 1.60 0 1.65 -0.10 1.80 -1.50 1.80 -0.80 0 -1.50 -0.20 -1.50 -0.40z"/>
  <path d="M22.50 39.25 c0 -0.40 0.20 -0.75 0.45 -0.75 0.25 0 0.55 0.35 0.75 0.75 0.15 0.45 0 0.75 -0.45 0.75 -0.40 0 -0.75 -0.35 -0.75 -0.75z"/>
  <path d="M20 29.50 c0 -0.25 0.55 -0.50 1.25 -0.50 0.70 0 1.25 0.25 1.25 0.50 0 0.30 -0.55 0.50 -1.25 0.50 -0.70 0 -1.25 -0.20 -1.25 -0.50z"/>
  <path d="M24.25 27.85 c-0.55 -0.35 -1.15 -0.80 -1.30 -1.05 -0.20 -0.20 -0.80 -0.15 -1.40 0.15 -0.90 0.50 -1.10 0.45 -1.45 -0.45 -0.35 -1 -0.45 -1 -1.05 -0.30 -0.60 0.75 -0.80 0.65 -1.85 -0.80 -0.85 -1.10 -1.20 -1.35 -1.20 -0.75 0 0.80 -1 1.15 -1.60 0.55 -0.60 -0.55 0.45 -2.95 1.25 -2.80 0.40 0.05 0.90 -0.10 1.10 -0.40 0.45 -0.75 1.25 -0.60 1.25 0.25 0 0.55 0.45 0.75 1.50 0.65 0.85 -0.05 1.50 -0.30 1.50 -0.55 0 -0.20 0.45 -0.05 1.05 0.35 0.65 0.45 1.65 0.60 2.70 0.45 2.15 -0.35 3.75 0.50 3.40 1.85 -0.30 1.05 -1.40 1.35 -1.90 0.50 -0.50 -0.80 -2.75 -0.60 -2.75 0.25 0 0.50 0.55 0.75 1.75 0.75 1.85 0 2.15 0.40 1.15 1.40 -0.70 0.70 -0.85 0.70 -2.15 -0.05z"/>
  <path d="M17.35 17.65 c-0.75 -0.70 -0.30 -1.70 0.95 -2.20 1.80 -0.65 2 -0.30 0.55 1.25 -0.65 0.70 -1.35 1.15 -1.50 0.95z"/>
  <path d="M21 16 c0 -1.55 0.15 -1.90 0.75 -1.70 0.80 0.35 0.90 0.85 0.45 2.60 -0.50 1.80 -1.20 1.25 -1.20 -0.90z"/>
 </g>
 <g fill="#88b8d2">
  <path d="M30.50 33.05 c0 -0.30 0.65 -0.55 1.40 -0.55 1.65 0 3.20 -1.45 4.30 -4 0.45 -1 0.75 -1.35 0.80 -0.85 0 1.80 -1.95 4.80 -3.40 5.15 -0.75 0.15 -1.75 0.40 -2.20 0.55 -0.50 0.10 -0.90 0 -0.90 -0.30z"/>
  <path d="M30.25 28.75 c0.40 -1.10 0.70 -2.55 0.75 -3.20 0 -0.65 0.15 -1.10 0.30 -0.90 0.45 0.45 -0.30 4.15 -1.05 5.20 -0.60 0.75 -0.60 0.55 0 -1.10z"/>
  <path d="M29.75 15.35 c-1.40 -3.70 -1.40 -3.70 -0.50 -2.60 0.75 0.95 2 4.70 1.65 5.05 -0.10 0.05 -0.60 -1 -1.15 -2.45z"/>
  <path d="M12.05 14.30 c1.15 -2 2.35 -3.10 2.80 -2.60 0.20 0.15 -0.30 0.95 -1 1.70 -0.75 0.80 -1.35 1.65 -1.35 2 0 0.35 -0.35 0.60 -0.75 0.60 -0.55 0 -0.50 -0.35 0.30 -1.70z"/>
 </g>
 <g fill="#dfb681">
  <path d="M15 39.50 c0 -0.25 -0.55 -0.60 -1.25 -0.80 -1.95 -0.50 -1.55 -1.70 0.50 -1.70 1.60 0 1.75 0.10 1.75 1.50 0 0.85 -0.20 1.50 -0.50 1.50 -0.25 0 -0.50 -0.20 -0.50 -0.50z"/>
  <path d="M17 39.25 c0 -0.45 0.45 -0.75 1.25 -0.75 0.80 0 1.25 0.30 1.25 0.75 0 0.45 -0.45 0.75 -1.25 0.75 -0.80 0 -1.25 -0.30 -1.25 -0.75z"/>
  <path d="M21.30 39.20 c-0.50 -1.25 -0.35 -3.70 0.25 -3.70 0.50 0 1.95 2.95 1.95 4 0 0.80 -1.85 0.60 -2.20 -0.30z"/>
  <path d="M8.90 36.45 l-1.65 -1.50 2.15 1.05 c1.15 0.55 2.10 1.25 2.10 1.50 0 0.90 -0.95 0.50 -2.60 -1.05z"/>
  <path d="M11.75 35.40 c-3.65 -2.10 -4.70 -2.95 -4.40 -3.65 0.25 -0.70 0.40 -0.70 1.35 0 1.90 1.35 4.65 2.70 5 2.40 0.15 -0.15 0.15 -0.85 -0.05 -1.55 -0.25 -1.05 -0.15 -1.20 0.60 -0.95 0.70 0.30 0.85 0.15 0.65 -0.90 -0.20 -0.95 -0.05 -1.25 0.60 -1.25 0.50 0 1.05 0.35 1.20 0.80 0.55 1.40 0.30 2.70 -0.45 2.70 -0.50 0 -0.75 0.50 -0.75 1.50 0 1.30 -0.20 1.50 -1.35 1.50 -0.80 0 -1.85 -0.30 -2.40 -0.60z"/>
  <path d="M18.50 33.20 c0 -0.40 0.25 -0.60 0.50 -0.45 0.90 0.55 0.55 -0.65 -0.75 -2.55 -0.70 -1 -1.15 -1.95 -1 -2.10 0.40 -0.40 0.95 0.30 2.70 3.30 l1.50 2.60 -1.45 0 c-1.05 0 -1.50 -0.25 -1.50 -0.80z"/>
  <path d="M7.65 28.65 c-0.35 -0.10 -0.65 -0.55 -0.65 -0.95 0 -0.60 0.20 -0.60 1 -0.10 1.55 1 1.30 1.75 -0.35 1.05z"/>
  <path d="M24.50 27.85 c-0.70 -0.30 -1.40 -0.80 -1.60 -1.10 -0.25 -0.35 -0.70 -0.30 -1.40 0.15 -0.85 0.50 -1.05 0.50 -1.35 -0.20 -0.15 -0.45 0 -1 0.40 -1.20 0.35 -0.25 0.55 -0.55 0.40 -0.75 -0.15 -0.15 -0.90 0.30 -1.60 0.95 -1 0.90 -1.35 1.05 -1.55 0.50 -0.15 -0.40 -0.95 -0.70 -1.80 -0.70 -1.35 0 -1.50 -0.15 -1.50 -1.50 0 -1.15 0.20 -1.50 1 -1.50 0.55 0 1 0.25 1 0.50 0 0.30 0.45 0.50 1 0.50 0.55 0 1 0.25 1 0.50 0 0.30 0.25 0.50 0.50 0.50 0.30 0 0.50 -0.35 0.50 -0.75 0 -1.40 2.95 -0.90 4.50 0.75 l1.40 1.50 0.30 -1.30 c0.45 -1.65 2 -1.45 2.20 0.30 0.10 0.85 -0.25 1.65 -1 2.35 -0.95 0.85 -1.35 0.95 -2.40 0.50z"/>
  <path d="M11.15 26.80 c-0.65 -0.30 -1.15 -0.85 -1.15 -1.20 0 -0.50 0.35 -0.45 1.50 0.15 0.85 0.45 1.50 1 1.50 1.25 0 0.60 -0.40 0.55 -1.85 -0.20z"/>
  <path d="M21.40 19.25 c-0.15 -0.30 -0.30 -1.60 -0.30 -2.90 0 -1.70 0.20 -2.35 0.70 -2.35 0.75 0 0.85 0.75 0.30 3.75 -0.20 1.10 -0.50 1.75 -0.70 1.50z"/>
  <path d="M25.10 17.95 c0.10 -0.35 0.50 -0.75 0.85 -0.85 0.40 -0.15 0.60 0.05 0.45 0.45 -0.10 0.35 -0.50 0.75 -0.85 0.85 -0.40 0.15 -0.60 -0.05 -0.45 -0.45z"/>
  <path d="M17.20 16.95 c-0.40 -0.70 0.55 -1.65 1.25 -1.25 0.55 0.35 0.20 1.80 -0.45 1.80 -0.25 0 -0.60 -0.25 -0.80 -0.55z"/>
  <path d="M24 16.30 c0 -0.70 0.25 -1.30 0.50 -1.30 0.30 0 0.50 0.45 0.50 0.95 0 0.55 -0.20 1.15 -0.50 1.30 -0.30 0.20 -0.50 -0.25 -0.50 -0.95z"/>
 </g>
 <g fill="#e1bf9b">
  <path d="M14.85 39.35 c-0.15 -0.40 -1.15 -0.85 -2.20 -1 -1.20 -0.20 -2.45 -0.85 -3.20 -1.65 l-1.20 -1.35 1.60 0.85 c3.70 1.85 4.20 0.55 0.65 -1.65 -2.25 -1.40 -3.45 -2.75 -2.95 -3.30 0.15 -0.10 1.45 0.60 2.95 1.55 1.50 0.95 2.90 1.70 3.10 1.70 0.70 0 0.45 -1.35 -0.35 -2 -0.40 -0.35 -0.75 -0.95 -0.75 -1.30 0 -0.60 0.20 -0.60 1.15 0.05 1.40 0.90 2 0.50 1.30 -0.85 -1.10 -2.10 -0.05 -1.90 2.20 0.40 2.55 2.65 3.10 2.35 1.10 -0.60 -1.40 -2.05 -1.25 -3.10 0.15 -1.20 2.25 3.15 4.10 7.15 4.10 8.95 0 1.25 -0.20 1.45 -1.60 1.70 -3.40 0.50 -5.80 0.40 -6.05 -0.30z m1.90 -5.35 c-0.15 -0.25 -0.75 -0.50 -1.30 -0.50 -0.50 0 -0.95 0.25 -0.95 0.50 0 0.30 0.60 0.50 1.30 0.50 0.70 0 1.15 -0.20 0.95 -0.50z"/>
  <path d="M9.50 29.60 c-2.45 -1.35 -2.50 -2.20 -0.05 -1.25 1.15 0.45 2.05 1.10 2.05 1.50 0 0.80 0.05 0.85 -2 -0.25z"/>
  <path d="M20 29.60 c0 -0.20 0.45 -0.40 1 -0.45 0.55 -0.05 0.90 0.10 0.75 0.40 -0.35 0.55 -1.75 0.60 -1.75 0.05z"/>
  <path d="M24.50 27.65 c-0.40 -0.15 -1.35 -0.95 -2.05 -1.80 -1.25 -1.50 -1.30 -1.50 -2.50 -0.70 -1.45 1.05 -1.95 1.05 -1.95 0.15 0 -0.40 -0.50 -0.80 -1.10 -0.90 -0.65 -0.10 -1.20 -0.50 -1.30 -0.95 -0.20 -1.15 1.75 -1.60 2.35 -0.55 0.40 0.70 0.55 0.70 1.80 -0.10 1.25 -0.80 1.40 -0.80 2.25 -0.05 0.65 0.55 1.40 0.70 2.85 0.45 2.70 -0.40 3.45 0.50 2.40 3 -0.75 1.75 -1.20 2 -2.75 1.45z"/>
  <path d="M11.15 26.65 c-1.55 -1.05 -1.45 -1.70 0.10 -1 0.70 0.35 1.25 0.90 1.25 1.25 0 0.75 0 0.75 -1.35 -0.25z"/>
  <path d="M20.35 27.15 c-0.20 -0.15 -0.35 -0.60 -0.35 -1 0 -0.75 1.30 -0.90 1.70 -0.20 0.35 0.55 -0.90 1.65 -1.35 1.20z"/>
  <path d="M21.40 18.75 c-0.45 -0.80 -0.30 -4.75 0.20 -4.75 0.25 0 0.55 0.30 0.70 0.65 0.30 0.85 -0.50 4.75 -0.90 4.10z"/>
  <path d="M17.25 17 c-0.20 -0.30 -0.15 -0.80 0.15 -1.10 0.30 -0.30 0.60 -0.30 0.85 0.10 0.20 0.30 0.15 0.80 -0.15 1.10 -0.30 0.30 -0.60 0.30 -0.85 -0.10z"/>
 </g>
 <g fill="#edcda9">
  <path d="M14.85 39.30 c-0.15 -0.35 -1.05 -0.80 -2 -1 -1 -0.20 -2.30 -0.80 -2.95 -1.30 l-1.15 -1 2.15 0.80 c1.20 0.45 2.25 0.70 2.40 0.55 0.30 -0.30 -0.30 -0.90 -4.05 -4.05 -2.70 -2.30 -2.05 -2.65 1 -0.55 2.45 1.70 3.75 2.15 3.75 1.35 0 -0.75 -1.25 -3.10 -1.65 -3.10 -0.20 0 -1.40 -0.70 -2.75 -1.55 -1.30 -0.85 -1.95 -1.40 -1.45 -1.25 0.50 0.15 1.25 0.30 1.65 0.30 0.40 0 1.55 0.80 2.65 1.75 1.95 1.75 3.05 2.20 3.05 1.25 0 -0.30 -1.05 -1.65 -2.30 -3 -1.45 -1.55 -2.05 -2.50 -1.60 -2.50 0.45 0 2.25 1.60 4.10 3.50 1.80 1.95 3.40 3.50 3.55 3.50 0.55 0 0.20 -1.10 -1 -3 -0.70 -1.10 -1.10 -2 -0.90 -2 0.45 0 2.65 3.10 2.65 3.70 0 0.20 0.40 1 0.95 1.70 1.10 1.60 2.60 5.90 2.15 6.30 -0.60 0.65 -3.35 0.25 -4.30 -0.60 -1.35 -1.20 -3.80 -2.20 -3.80 -1.60 0 0.25 0.45 0.70 1 1 0.55 0.30 1 0.75 1 1 0 0.75 -1.85 0.60 -2.15 -0.20z m6.15 -1.50 c0 -0.15 -0.55 -0.85 -1.25 -1.60 -1.40 -1.55 -1.65 -1.25 -0.45 0.55 0.70 1.10 1.70 1.70 1.70 1.05z"/>
  <path d="M20.10 26.45 c0.10 -0.30 0.40 -0.50 0.65 -0.50 0.25 0 0.55 0.20 0.65 0.50 0.10 0.30 -0.20 0.55 -0.65 0.55 -0.45 0 -0.75 -0.25 -0.65 -0.55z"/>
  <path d="M22.30 25.40 l-1.25 -1.60 -1.30 1.20 c-1.10 1.05 -1.45 1.10 -2.25 0.60 -0.55 -0.35 -1.45 -0.60 -2.05 -0.60 -0.75 0 -0.95 -0.20 -0.75 -0.80 0.15 -0.45 0.30 -1 0.30 -1.25 0 -0.60 2.15 -0.60 2.80 0.05 0.30 0.30 1.05 0.30 2.05 -0.10 1.40 -0.50 1.75 -0.45 2.65 0.35 0.80 0.70 1.15 0.80 1.60 0.35 0.85 -0.85 2.40 -0.75 2.75 0.20 0.20 0.50 -0.20 1.20 -1.15 2 -0.80 0.65 -1.60 1.15 -1.80 1.20 -0.20 0 -0.90 -0.70 -1.60 -1.60z"/>
  <path d="M21.45 16.85 c-0.10 -1.35 -0.05 -2.55 0.15 -2.65 0.65 -0.45 0.85 0.70 0.45 2.85 l-0.40 2.20 -0.20 -2.40z"/>
  <path d="M17.30 17.15 c-0.55 -0.55 -0.30 -1.15 0.45 -1.15 0.40 0 0.75 0.20 0.75 0.45 0 0.65 -0.80 1.10 -1.20 0.70z"/>
  <path d="M24 16.05 c0 -0.60 0.25 -1.05 0.50 -1.05 0.30 0 0.50 0.30 0.50 0.70 0 0.40 -0.20 0.90 -0.50 1.05 -0.25 0.15 -0.50 -0.15 -0.50 -0.70z"/>
 </g>
 <g fill="#f5dec0">
  <path d="M15.25 39.20 c-0.30 -0.45 -1.10 -0.90 -1.75 -1 -1.55 -0.15 -4.20 -1.15 -3.95 -1.45 0.15 -0.10 1.15 0.10 2.20 0.50 1.10 0.35 2.10 0.55 2.20 0.45 0.15 -0.10 -0.50 -0.95 -1.35 -1.85 -1.90 -1.95 -2.10 -2.80 -0.35 -1.65 1.55 1 1.75 1 1.75 -0.15 0 -0.55 -1.15 -2 -2.55 -3.25 -1.40 -1.25 -2.40 -2.30 -2.20 -2.30 0.70 0 2.55 1.20 4.05 2.60 1.10 1 1.70 1.30 1.95 0.90 0.50 -0.85 -1.20 -3.85 -2.60 -4.45 -1.10 -0.50 -1.60 -1.55 -0.70 -1.55 0.25 0 1.95 1.60 3.80 3.55 1.80 1.95 3.45 3.40 3.60 3.25 0.35 -0.35 -0.70 -2.60 -1.80 -3.90 -0.40 -0.50 -0.50 -0.90 -0.25 -0.90 1.15 0 6.70 11.20 5.90 11.95 -0.15 0.15 -0.70 0 -1.20 -0.35 -0.60 -0.35 -1 -0.40 -1 -0.10 0 1 -1.30 0.45 -2.10 -0.85 -0.45 -0.80 -1.40 -1.95 -2.10 -2.60 l-1.25 -1.20 -0.55 1.40 c-0.45 1.20 -0.40 1.50 0.50 2.10 0.55 0.40 1 0.90 1 1.20 0 0.70 -0.70 0.55 -1.25 -0.35z m3.95 -4.20 c-1.80 -1.90 -3.20 -2.60 -3.20 -1.50 0 0.30 1.05 1.55 2.40 2.80 2.95 2.80 3.60 1.75 0.80 -1.30z"/>
  <path d="M8.65 32.90 c-1.20 -1.60 -1.30 -2 -0.30 -1.50 0.55 0.30 1.25 0.90 1.65 1.30 0.50 0.65 0.50 0.80 -0.15 0.80 -0.40 0 -0.95 -0.30 -1.20 -0.60z"/>
  <path d="M22.50 25 l-1.55 -1.65 -1.35 1.25 c-0.90 0.90 -1.60 1.15 -2.10 0.90 -0.40 -0.25 -1.15 -0.55 -1.60 -0.70 -0.55 -0.15 -0.75 -0.60 -0.55 -1.25 0.30 -1.25 1.90 -1.40 2.35 -0.25 0.25 0.70 0.45 0.65 1.75 -0.10 1.35 -0.80 1.55 -0.80 2.75 -0.05 1 0.65 1.55 0.75 2.60 0.35 2.45 -0.95 2.60 0.25 0.35 2.20 -1.10 0.95 -1.15 0.90 -2.65 -0.70z"/>
  <path d="M24 16.15 c0 -0.65 0.25 -1.15 0.50 -1.15 0.65 0 0.65 0.55 0 1.50 -0.40 0.60 -0.50 0.55 -0.50 -0.35z"/>
 </g>
</svg>