<?xml version="1.0" encoding="utf-8"?>
<!DOCTYPE svg PUBLIC "-//W3C//DTD SVG 1.0//EN" "http://www.w3.org/TR/2001/REC-SVG-20010904/DTD/svg10.dtd">
<svg version="1.0" xmlns="http://www.w3.org/2000/svg" width="40px" height="40px" viewBox="0 0 40 40" preserveAspectRatio="xMidYMid meet">
 <g fill="#200d0c">
  <path d="M22.50 37.50 c0 -0.80 -0.20 -1.50 -0.50 -1.50 -0.25 0 -0.50 -0.45 -0.50 -1 0 -0.55 -0.25 -1 -0.55 -1 -0.35 0 -0.50 -0.75 -0.35 -2 0.15 -1.65 0 -2 -0.70 -2 -0.70 0 -0.90 -0.40 -0.90 -1.75 0 -1.75 0 -1.75 2.25 -1.75 1.90 0 2.25 0.15 2.25 1 0 0.85 0.15 0.90 0.90 0.45 0.85 -0.55 3.30 -3.95 3 -4.20 -0.60 -0.50 -2.40 -0.70 -2.40 -0.30 0 0.30 -0.80 0.55 -1.75 0.55 -1.20 0 -1.75 -0.25 -1.75 -0.75 0 -0.55 -0.55 -0.75 -1.95 -0.75 -1.10 0 -2.10 -0.30 -2.25 -0.60 -0.25 -0.50 -0.35 -0.50 -0.60 0 -0.15 0.30 -0.60 0.60 -1 0.60 -0.45 0 -0.70 0.55 -0.70 1.45 0 2.40 -0.45 3.05 -2.20 3.05 -2.95 0 -3.40 -1.65 -2.10 -8.35 0.95 -4.95 3.30 -8.35 5.95 -8.55 1.40 -0.10 1.85 0.05 1.85 0.60 0 1 0.80 1.05 1.20 0.05 0.40 -1.10 4.10 -1 4.80 0.15 0.40 0.60 0.65 0.65 0.80 0.25 0.15 -0.35 1.05 -0.65 1.95 -0.65 1.50 0 1.75 0.25 2.90 2.65 0.65 1.45 1.40 4 1.60 5.75 0.30 2.85 0.45 3.10 1.55 3.10 1.10 0 1.20 0.20 1.20 2.25 0 2.05 0.10 2.25 1.25 2.25 1.10 0 1.25 0.20 1.25 1.65 -0.05 1 -0.55 2.20 -1.40 3.15 -1.30 1.55 -1.55 1.60 -5.75 1.75 -2.55 0.15 -4.55 0.45 -4.75 0.75 -0.20 0.35 -0.75 0.65 -1.20 0.75 -0.80 0.20 -0.80 0.35 -0.25 1.45 1.40 2.65 1.40 3 0.10 3 -1.05 0 -1.25 -0.25 -1.25 -1.50z m-1.50 -19.50 c0 -0.25 0.75 -0.55 1.65 -0.55 1.50 -0.10 1.50 -0.10 0.25 -0.30 -0.80 -0.10 -1.40 -0.45 -1.40 -0.70 0 -0.25 -0.70 -0.45 -1.50 -0.45 -1.10 0 -1.65 -0.30 -1.95 -1.10 l-0.40 -1.10 -0.60 1.10 c-0.50 0.90 -0.45 1.25 0.05 1.75 1.75 1.60 3.90 2.35 3.90 1.35z"/>
  <path d="M3.60 32.40 c-0.95 -0.95 -0.75 -2.40 0.40 -2.40 0.80 0 1 0.35 1 1.50 0 1.60 -0.45 1.85 -1.40 0.90z"/>
  <path d="M8.50 30.75 c0 -1.65 0.10 -1.75 1.75 -1.75 1.65 0 1.75 0.10 1.75 1.75 0 1.65 -0.10 1.75 -1.75 1.75 -1.65 0 -1.75 -0.10 -1.75 -1.75z"/>
  <path d="M4.80 27.20 c-0.40 -1 -0.40 -3.40 0 -5.80 0.30 -1.75 0.45 -1.90 2 -1.90 l1.70 0 0 4.25 0 4.25 -1.70 0 c-1.10 0 -1.80 -0.30 -2 -0.80z"/>
  <path d="M21.40 2.15 c-1 -0.15 -1.40 -0.50 -1.40 -1.20 0 -1.35 3.40 -1.35 4.90 0.05 0.60 0.60 1.10 1.15 1.10 1.25 0 0.30 -2.55 0.20 -4.60 -0.10z"/>
 </g>
 <g fill="#431716">
  <path d="M5.65 34.50 c-0.45 -0.80 -1.05 -1.50 -1.25 -1.50 -0.20 0 -0.80 -0.90 -1.35 -1.95 -1.05 -2.25 -0.90 -3.85 1 -10.15 2.05 -6.95 7.05 -13.90 12.85 -17.85 l1.60 -1.10 0 1.50 c0 1.05 -0.25 1.55 -0.75 1.55 -0.50 0 -0.75 0.50 -0.75 1.50 0 1.40 0.15 1.50 1.75 1.50 1.60 0 1.75 0.10 1.75 1.50 0 1.45 0.10 1.50 2.30 1.50 2.25 0 2.30 -0.05 2 -1.35 -0.20 -0.70 -0.90 -1.75 -1.60 -2.25 -1.50 -1.20 -1.70 -4.20 -0.30 -4.50 0.45 -0.15 -0.10 -0.40 -1.30 -0.60 -1.60 -0.30 -2.10 -0.60 -2 -1.20 0.10 -0.60 0.75 -0.85 2.30 -0.95 1.15 -0.05 2.10 0.15 2.10 0.40 0 0.25 0.30 0.45 0.65 0.45 0.30 0 1.05 0.70 1.60 1.55 0.55 0.80 2 2.30 3.20 3.30 1.75 1.50 2.05 1.90 1.35 2.15 -0.75 0.25 -0.70 0.45 0.45 1.50 1.05 1 1.25 1.05 1.25 0.30 0 -2.10 3.25 2.50 5.20 7.35 1.55 3.95 1.65 4.85 0.30 4.85 -0.75 0 -1.05 -0.45 -1.30 -2 -0.20 -1.10 -0.50 -2 -0.75 -2 -0.25 0 -0.45 -0.55 -0.45 -1.25 0 -0.70 -0.20 -1.25 -0.50 -1.25 -0.25 0 -0.50 -0.45 -0.50 -1 0 -0.55 -0.20 -1 -0.50 -1 -0.25 0 -0.50 0.45 -0.50 1 0 0.65 -0.35 1 -1 1 -0.55 0 -1 0.35 -1 0.75 0 0.45 0.45 0.75 1.20 0.75 1.20 0 1.80 1.40 1.80 4.30 0 0.90 0.30 1.15 1.65 1.30 1.45 0.15 1.60 0.35 1.75 1.90 0.10 0.95 0.45 1.90 0.75 2.10 0.70 0.40 -0.25 4.45 -1.45 6.30 -1.70 2.60 -5.85 3.85 -8.25 2.55 -0.55 -0.30 -2.15 -0.70 -3.50 -0.90 -2 -0.35 -2.45 -0.30 -2.25 0.25 0.15 0.40 -0.05 0.70 -0.45 0.70 -0.40 0 -0.75 -0.20 -0.75 -0.50 0 -0.25 -0.35 -0.50 -0.75 -0.50 -0.85 0 -1.10 -3.30 -0.25 -3.60 0.30 -0.10 0.55 -1 0.60 -2.05 0.05 -1.75 0.15 -1.85 1.65 -1.85 1.45 0 1.65 0.20 1.85 1.55 0.20 1.35 0 1.70 -1.45 2.55 -0.95 0.55 -1.60 1.10 -1.50 1.25 0.35 0.35 2.85 -0.45 2.85 -0.90 0 -0.25 0.65 -0.30 1.45 -0.15 1.35 0.30 1.55 0.15 2.60 -2.10 1.25 -2.80 1.95 -8.70 1 -8.70 -0.35 0 -0.55 0.40 -0.50 0.90 0.20 2 -0.20 2.20 -0.80 0.35 -0.40 -1.10 -0.70 -1.70 -0.70 -1.35 -0.05 0.45 -0.40 0.55 -1.05 0.35 -0.80 -0.25 -1 -0.10 -1 0.95 0 1.15 -0.20 1.30 -1.75 1.30 -1.55 0 -1.75 -0.15 -1.75 -1.25 0 -0.80 0.30 -1.25 0.80 -1.25 0.40 0 0.65 0.20 0.50 0.45 -0.20 0.25 0.20 0.35 0.80 0.15 l1.10 -0.25 -1.10 -0.50 c-0.60 -0.30 -1.10 -0.70 -1.10 -0.95 0 -0.20 -0.20 -0.40 -0.50 -0.40 -0.25 0 -0.50 0.35 -0.50 0.75 0 0.40 -0.35 0.75 -0.75 0.75 -0.50 0 -0.75 -0.50 -0.75 -1.35 0 -2.30 0.55 -3.65 1.45 -3.65 0.80 0 2.90 -1.95 2.15 -2.05 -0.20 0 -0.75 -0.10 -1.25 -0.20 -0.70 -0.15 -0.80 0.05 -0.55 0.85 0.20 0.70 0.10 0.90 -0.25 0.70 -0.30 -0.20 -1.05 0 -1.65 0.40 -0.60 0.45 -1.75 0.80 -2.50 0.80 -0.90 0 -1.40 0.25 -1.40 0.75 0 0.40 -0.35 0.75 -0.75 0.75 -0.40 0 -0.75 0.25 -0.75 0.50 0 0.30 0.90 0.50 1.95 0.50 1.90 0 1.95 0.05 1.90 1.75 l-0.05 1.75 -2.65 0 c-2.60 0 -2.65 0 -2.65 1.50 0 1.15 0.20 1.50 1 1.50 0.80 0 1 0.35 1 1.75 0 1.65 -0.10 1.75 -1.75 1.75 -1.50 0 -1.75 -0.15 -1.75 -1.20 0 -0.80 -0.35 -1.25 -1.10 -1.45 -0.65 -0.10 -1.55 -0.40 -2 -0.60 -0.75 -0.30 -0.90 -0.10 -0.90 0.95 0 1.15 -0.20 1.30 -1.70 1.30 -1.40 0 -1.75 -0.20 -1.90 -1.10 -0.10 -0.65 -0.30 -0.10 -0.45 1.25 -0.20 2.15 -0.10 2.35 0.90 2.35 0.80 0 1.15 0.30 1.15 0.95 0 0.55 0.25 1.15 0.50 1.30 0.65 0.40 0.65 3.75 0.05 3.75 -0.30 0 -0.90 -0.65 -1.40 -1.50z m27.60 -3.50 c0.15 -0.25 -0.15 -0.50 -0.75 -0.50 -0.85 0 -0.95 -0.15 -0.50 -0.95 0.25 -0.55 0.50 -1.75 0.45 -2.65 0 -1.55 -0.05 -1.50 -0.65 0.70 -0.35 1.30 -0.90 2.70 -1.30 3.10 -0.55 0.70 -0.40 0.80 0.90 0.80 0.85 0 1.70 -0.20 1.85 -0.50z m-26.30 -8.15 c-0.05 -2 -0.10 -2 -0.45 -0.60 -0.55 2.20 -0.55 3.35 0 3 0.30 -0.15 0.45 -1.25 0.45 -2.40z m6.05 -0.15 c-0.20 -0.90 -0.30 -1.75 -0.15 -1.85 0.10 -0.15 0 -0.40 -0.25 -0.55 -0.75 -0.45 -1.25 3.70 -0.55 4.55 0.90 1.05 1.40 -0.10 0.95 -2.15z m-3 -3.20 c0 -0.55 -0.20 -1 -0.50 -1 -0.25 0 -0.50 0.45 -0.50 1 0 0.55 0.25 1 0.50 1 0.30 0 0.50 -0.45 0.50 -1z m19.45 -3.05 c-0.90 -2.25 -1.15 -1.30 -0.40 1.35 0.50 1.75 0.75 2.05 0.85 1.25 0.10 -0.65 -0.10 -1.80 -0.45 -2.60z m-15.70 0.05 c0.50 -0.55 0.65 -1 0.35 -1 -0.30 0 -0.80 0.45 -1.10 1 -0.30 0.55 -0.45 1 -0.35 1 0.10 0 0.60 -0.45 1.10 -1z m12.60 -1.35 c-0.80 -0.80 -0.85 -0.80 -0.85 0.15 0 0.55 0.15 1.20 0.35 1.35 0.20 0.20 0.55 0.15 0.85 -0.15 0.35 -0.35 0.25 -0.80 -0.35 -1.35z m-10.50 -1.95 c0.65 -0.95 0.95 -1.60 0.65 -1.45 -0.75 0.45 -2.60 3.25 -2.15 3.25 0.20 -0.05 0.90 -0.85 1.50 -1.80z m5.65 -0.10 c-0.85 -0.30 -2.10 0.35 -1.75 0.90 0.20 0.30 0.65 0.25 1.30 -0.15 0.50 -0.30 0.75 -0.65 0.45 -0.75z"/>
  <path d="M9 31.25 c0 -1.65 0.10 -1.75 1.75 -1.75 1.65 0 1.75 0.10 1.75 1.75 0 1.65 -0.10 1.75 -1.75 1.75 -1.65 0 -1.75 -0.10 -1.75 -1.75z"/>
 </g>
 <g fill="#2e2223">
  <path d="M9.90 38.95 c-1.25 -1.30 -1.15 -1.45 0.85 -1.45 1.55 0 1.75 0.15 1.75 1.25 0 1.50 -1.35 1.65 -2.60 0.20z"/>
  <path d="M22.85 39.65 c-0.55 -0.50 -0.40 -3.65 0.15 -3.65 0.50 0 2 2.60 2 3.50 0 0.55 -1.65 0.70 -2.15 0.15z"/>
  <path d="M6.65 35.90 c-0.20 -0.35 -0.65 -1.15 -1 -1.75 -0.55 -1.05 -0.50 -1.15 0.90 -1.15 1.35 0 1.45 0.15 1.45 1.75 0 1.75 -0.60 2.25 -1.35 1.15z"/>
  <path d="M22.50 30.50 c0 -0.85 -0.35 -1 -2.25 -1 -2.25 0 -2.25 0 -2.25 -1.75 l0 -1.75 3 0 c2.30 0 3 0.15 3 0.70 0 0.50 0.65 0.80 1.90 0.90 l1.85 0.15 -1.65 1.50 c-2.30 2.05 -3.60 2.50 -3.60 1.25z"/>
  <path d="M4.50 26 c0 -2.35 1.05 -2.70 1.85 -0.60 l0.55 1.35 0.05 -1.35 c0.10 -2.20 1.05 -1.60 1.05 0.60 0 1.95 -0.05 2 -1.75 2 -1.70 0 -1.75 -0.05 -1.75 -2z"/>
  <path d="M11.65 27.35 c-0.20 -0.40 -0.80 -0.80 -1.25 -1 -1.05 -0.35 -1.20 -2.45 -0.25 -3.45 0.30 -0.35 0.60 -2 0.65 -3.60 0 -2.15 0.25 -3.10 0.85 -3.55 0.50 -0.35 0.85 -1 0.85 -1.45 0 -0.45 0.40 -0.80 1 -0.80 1.15 0 1.30 0.65 0.30 1.45 -0.95 0.80 -1.40 2.55 -0.55 2.20 0.40 -0.10 0.80 -0.55 0.95 -0.95 0.15 -0.45 0.55 -0.60 0.85 -0.40 0.40 0.25 0.45 0.15 0.25 -0.25 -0.55 -0.85 1 -2.45 2.75 -2.80 0.80 -0.20 1.45 -0.65 1.45 -1 0 -1.45 3.90 -1.75 5.15 -0.35 1.15 1.25 1 4.10 -0.25 4.10 -0.55 0 -0.80 -0.25 -0.65 -0.50 0.20 -0.30 0.05 -0.95 -0.35 -1.40 -0.60 -0.75 -0.55 -0.80 0.25 -0.15 0.45 0.40 1 0.60 1.10 0.45 0.15 -0.10 -0.45 -0.75 -1.30 -1.35 -1.35 -1 -1.60 -1.05 -2.35 -0.40 -0.45 0.40 -1.50 1.05 -2.35 1.50 l-1.50 0.75 1.50 -0.15 c2.30 -0.20 3.50 -0.80 2.65 -1.30 -0.50 -0.35 -0.50 -0.45 0 -0.45 1.05 0 1.30 0.20 1.40 1.50 0.10 0.65 -0.20 1.60 -0.60 2.10 -0.45 0.45 -0.65 1.05 -0.50 1.30 0.35 0.55 3.05 0.25 4.45 -0.50 2.65 -1.40 4.35 2.25 3.10 6.75 -0.45 1.65 -1.35 1.75 -2 0.25 -0.65 -1.45 -1.55 -1.65 -1.90 -0.40 -0.20 0.75 -0.65 1 -2.05 1 -1 0 -1.80 -0.15 -1.80 -0.40 0 -0.20 -1 -0.30 -2.25 -0.20 -1.75 0.15 -2.25 0.05 -2.25 -0.55 0 -0.50 -0.35 -0.65 -0.95 -0.50 -0.85 0.20 -0.95 0.55 -0.70 2.70 l0.30 2.45 -1.80 0 c-1 0 -2 -0.30 -2.20 -0.65z m1.30 -4.80 c-0.20 -1 -0.40 -1.90 -0.40 -2.05 0 -0.10 -0.20 -0.30 -0.45 -0.40 -0.85 -0.25 -1.05 3.55 -0.20 4.55 1.05 1.20 1.60 0.20 1.05 -2.10z m14.85 -1.30 c-0.55 -0.40 -1.20 -0.75 -1.50 -0.75 -0.25 0 -0.05 0.35 0.50 0.75 0.50 0.40 1.20 0.70 1.45 0.70 0.30 0 0.05 -0.30 -0.45 -0.70z m-2.80 -0.25 c0.45 -0.30 0.50 -0.50 0.15 -0.50 -0.35 0 -1.05 -0.50 -1.65 -1.10 l-1 -1.10 0 1.10 c0 0.65 0.30 1.10 0.80 1.10 0.40 0 0.60 0.25 0.45 0.50 -0.40 0.65 0.25 0.65 1.25 0z m-7.25 -1.45 c-0.15 -0.30 -0.70 -0.55 -1.15 -0.55 -0.65 0 -0.65 0.10 0.20 0.70 1.05 0.75 1.50 0.70 0.95 -0.15z"/>
  <path d="M30.65 21.60 c-0.75 -3.20 -0.85 -5.10 -0.20 -5.10 0.60 0 1.20 3.70 0.95 6 -0.15 1.70 -0.20 1.65 -0.75 -0.90z"/>
  <path d="M21 1.30 c0 -0.35 0.45 -0.80 1 -0.95 0.55 -0.15 1 -0.05 1 0.20 0 0.25 0.35 0.45 0.75 0.45 0.40 0 0.75 0.25 0.75 0.50 0 0.30 -0.80 0.50 -1.75 0.50 -1.15 0 -1.75 -0.25 -1.75 -0.70z"/>
 </g>
 <g fill="#462f10">
  <path d="M10.75 39.50 c-4.30 -3.80 -4.95 -4.50 -4.10 -4.50 0.50 0 0.85 -0.40 0.85 -1 0 -0.70 0.35 -1 1.15 -1.05 0.80 -0.05 0.90 -0.10 0.25 -0.30 -0.50 -0.10 -0.90 -0.45 -0.90 -0.70 0 -0.25 -0.35 -0.45 -0.75 -0.45 -0.80 0 -0.95 -1.10 -0.45 -4.10 0.30 -1.75 0.45 -1.90 2 -1.90 1.40 0 1.70 -0.20 1.70 -1.10 0 -0.95 0.10 -1 0.65 -0.35 0.95 1.10 3.65 3.30 3 2.45 -0.30 -0.40 -0.70 -1.70 -0.90 -2.80 -0.30 -2 -0.25 -2.05 1.20 -2.35 0.85 -0.20 1.55 -0.60 1.55 -0.90 0 -0.30 -0.45 -0.45 -1 -0.30 -0.65 0.15 -1 0 -1 -0.45 0 -0.90 1.45 -0.90 2.65 0 1.25 0.95 1.05 1.80 -0.40 1.80 -1.10 0 -1.25 0.20 -1.25 1.65 0.05 0.85 0.40 2.05 0.90 2.60 1 1.25 2.60 1.95 2.60 1.20 0 -0.35 0.75 -0.45 2.15 -0.20 1.15 0.15 3.20 0.30 4.55 0.30 2 -0.05 2.35 0.10 2.10 0.75 -0.15 0.45 -0.30 0.90 -0.30 1 0 0.10 -0.25 0.20 -0.55 0.20 -0.70 0 -4.45 3.05 -4.45 3.65 0 0.25 0.45 0.35 1 0.20 1.05 -0.25 1.50 0.90 0.45 1.25 -0.35 0.10 -0.15 1.15 0.50 2.90 0.60 1.50 1.05 2.80 1.05 2.90 0 0.05 -0.50 0.10 -1.10 0.10 -0.85 0 -1.40 -0.55 -2 -1.95 -0.50 -1 -0.90 -2.25 -0.90 -2.70 0 -0.45 -0.20 -0.85 -0.50 -0.85 -0.25 0 -0.50 -0.30 -0.50 -0.70 0 -0.45 -0.90 -0.75 -2.60 -0.95 -1.40 -0.20 -2.65 -0.25 -2.75 -0.15 -0.10 0.10 -0.35 1.80 -0.50 3.75 -0.30 3.40 -0.35 3.55 -1.60 3.55 -0.70 -0.05 -1.50 -0.25 -1.80 -0.50z m11.45 -11.40 c0.15 -0.25 -0.40 -0.45 -1.25 -0.45 -0.95 0 -1.25 0.15 -0.85 0.45 0.85 0.50 1.75 0.50 2.10 0z"/>
  <path d="M27 22.80 c0 -1 0.20 -1.10 1.30 -0.90 0.85 0.15 1.15 0.45 1 0.95 -0.15 0.40 -0.30 0.85 -0.30 0.95 0 0.10 -0.45 0.20 -1 0.20 -0.70 0 -1 -0.35 -1 -1.20z"/>
  <path d="M21.50 18.40 c0 -1.75 -0.10 -1.90 -1.50 -1.90 -1.45 0 -1.85 0.75 -1.55 2.65 0.05 0.20 -0.40 0.15 -0.95 -0.15 -0.55 -0.30 -1 -0.75 -1 -0.95 0 -0.25 -0.45 -0.35 -1 -0.20 -0.80 0.20 -1 0 -1 -1.05 0 -0.90 0.20 -1.25 0.60 -1 0.35 0.25 0.40 0.15 0.20 -0.25 -0.65 -1 1.20 -2.55 2.90 -2.55 l1.55 0.05 -1.35 0.75 c-0.80 0.40 -1.40 0.85 -1.40 1 0 0.10 0.45 0 1.05 -0.30 0.75 -0.40 1.20 -0.40 1.70 0 0.50 0.40 0.80 0.35 1.15 -0.30 0.60 -1.05 2.10 -0.60 2.10 0.65 0.05 0.85 0.05 0.85 0.75 -0.05 0.90 -1.20 1.90 -0.55 1.55 1 -0.40 1.45 0.95 1.70 2 0.35 0.65 -0.85 0.65 -0.85 0.70 0 0 0.45 0.20 0.85 0.45 0.85 0.25 0 0.55 0.45 0.70 1 0.30 1.15 -0.15 1.30 -1.05 0.40 -0.45 -0.45 -0.75 -0.50 -1 -0.10 -0.45 0.70 -3.55 1.15 -3.90 0.60 -0.15 -0.25 -0.60 -0.05 -1 0.45 -0.60 0.80 -0.65 0.70 -0.70 -0.95z"/>
  <path d="M29.95 17.50 c-0.35 -1.75 -0.20 -2.40 0.35 -1.90 0.15 0.20 0.20 1.05 0.10 2 l-0.15 1.65 -0.30 -1.75z"/>
  <path d="M24.85 13.75 l-1.40 -1.25 1.50 0 c1.30 0 1.55 0.20 1.55 1.25 0 1.50 0.10 1.50 -1.65 0z"/>
 </g>
 <g fill="#5d2223">
  <path d="M29.25 35.30 c-1.10 -0.35 -2.50 -0.90 -3.15 -1.25 -1.30 -0.70 -3.30 -0.25 -2.95 0.65 0.15 0.35 -0.05 0.65 -0.45 0.65 -0.40 0 -0.70 -0.50 -0.70 -1.05 0 -1.25 2 -2.30 4.35 -2.30 2 0 3 -1.35 4 -5.40 0.50 -2.25 0.55 -3.50 0.15 -5.85 -0.80 -4.45 -1.60 -6.85 -2.70 -8.35 -1.35 -1.90 -1.55 -1.40 -0.40 0.95 0.55 1.05 0.85 2.15 0.75 2.50 -0.10 0.30 0.15 1.15 0.65 1.85 0.85 1.35 0.40 1.80 -0.70 0.70 -0.45 -0.45 -0.75 -0.45 -1.20 0 -0.90 0.90 -1.40 0.70 -1.40 -0.60 0 -0.65 -0.35 -1.30 -0.75 -1.50 -0.40 -0.15 -0.75 -0.60 -0.75 -1.05 0 -0.40 0.35 -0.75 0.75 -0.75 0.40 0 0.75 0.45 0.75 0.95 0 1.25 0.75 1.70 1.40 0.90 0.45 -0.50 -0.10 -1.15 -2.20 -2.80 -2.50 -1.95 -2.85 -2.10 -3.60 -1.40 -0.45 0.40 -1.75 1.20 -2.85 1.75 -1.10 0.60 -1.65 1.05 -1.25 1.10 0.45 0 1.05 -0.25 1.40 -0.60 0.45 -0.45 0.75 -0.45 1.20 0 0.50 0.50 0.50 0.75 -0.10 1.10 -0.65 0.40 -0.60 0.50 0.15 0.50 0.45 0 0.85 0.20 0.85 0.45 0 0.20 0.55 0.30 1.25 0.15 1 -0.15 1.25 0 1.25 0.75 0 0.55 -0.35 1.40 -0.75 1.95 -0.75 0.95 -0.75 0.95 -1.75 -0.20 -0.50 -0.65 -0.85 -1.55 -0.70 -2 0.20 -0.50 -0.10 -0.40 -0.70 0.40 -0.55 0.65 -0.90 1.40 -0.75 1.65 0.15 0.25 -0.20 0.20 -0.80 -0.15 -0.60 -0.30 -0.95 -0.75 -0.80 -1 0.15 -0.25 0.05 -0.55 -0.25 -0.75 -0.25 -0.15 -0.50 -0.05 -0.50 0.20 0 0.30 -0.55 0.55 -1.25 0.55 -1.40 0 -1.45 -0.15 -0.70 -1.55 0.25 -0.55 0.75 -0.80 1.05 -0.65 0.35 0.20 0.40 0.15 0.20 -0.20 -0.20 -0.30 0.60 -1.85 1.75 -3.40 2.05 -2.80 2.05 -2.80 0.45 -1.65 -2 1.50 -4.45 5.10 -4.85 7.15 -0.15 0.85 -0.50 1.80 -0.70 2.10 -0.40 0.50 -0.80 3.65 -0.90 7.35 -0.05 1.45 -0.80 1.65 -4 1.05 -1.35 -0.30 -1.55 -0.55 -1.55 -2 0 -1.20 -0.25 -1.70 -1.05 -1.95 -1.25 -0.40 -1.15 -1.35 0.55 -5.85 2.30 -6.15 8.75 -13.90 11.55 -13.90 1.30 0 1.45 0.20 1.45 1.50 0 1.35 0.15 1.50 1.50 1.50 1.15 0 1.50 0.25 1.50 0.95 0 0.65 0.45 1 1.65 1.20 2 0.30 2.25 0.10 1.20 -1.05 -0.50 -0.50 -0.85 -1.30 -0.85 -1.75 0 -0.45 -0.20 -0.85 -0.50 -0.85 -0.25 0 -0.50 -0.80 -0.50 -1.75 0 -1.70 -0.05 -1.75 -2.10 -1.75 l-2.15 0 1.25 -1.20 c1.20 -1.15 1.40 -1.20 3.70 -0.65 1.90 0.40 2.75 0.95 3.75 2.35 0.70 0.95 2.40 2.65 3.75 3.75 3.90 3.15 7.05 8.10 8.35 13.35 0.55 2 0.55 2.60 0.05 2.80 -0.70 0.20 -0.85 4.60 -0.15 4.60 0.70 0 -0.75 4.95 -1.80 6.10 -0.90 1 -3.80 2.45 -4.85 2.35 -0.30 0 -1.45 -0.30 -2.55 -0.65z m3.95 -3.75 c1.75 -0.70 4.05 -6.50 2.85 -7.30 -0.25 -0.10 -0.60 0.50 -0.75 1.45 -0.20 0.95 -0.80 2.30 -1.35 3 -1.20 1.55 -2.25 1.75 -1.45 0.35 0.60 -1.15 0.60 -7.70 0 -9.55 -0.25 -0.85 -0.40 -0.05 -0.40 2.55 0 4 -0.80 7.60 -1.95 8.50 -1.60 1.35 0.40 2 3.05 1z m-26.25 -8.40 c-0.05 -3.15 -0.10 -3.25 -0.50 -1.40 -0.55 2.80 -0.55 4.75 0.05 4.75 0.30 0 0.50 -1.40 0.45 -3.35z m6.95 -13.25 c1.85 -2.30 2.10 -3 0.55 -1.60 -1.20 1.05 -3.45 4.45 -3.40 5.05 0 0.25 0.30 0 0.60 -0.55 0.35 -0.50 1.35 -1.80 2.25 -2.90z m17.60 2.95 c0 -0.05 -1.30 -1.35 -2.85 -2.85 l-2.90 -2.75 2.75 2.90 c2.50 2.65 3 3.10 3 2.70z"/>
  <path d="M3.90 32.15 c-0.40 -0.50 -0.90 -1.30 -1.05 -1.75 -0.25 -0.75 0 -0.90 1.65 -0.90 1.95 0 2 0.05 2 1.75 0 1.35 -0.20 1.75 -0.90 1.75 -0.55 0 -1.30 -0.40 -1.70 -0.85z"/>
  <path d="M20.50 29.20 c0 -0.40 0.20 -0.65 0.45 -0.50 0.25 0.15 0.75 -0.10 1.10 -0.55 0.60 -0.70 0.55 -0.75 -0.45 -0.45 -0.80 0.30 -1.10 0.15 -1.10 -0.40 0 -0.60 0.50 -0.80 1.75 -0.80 1.70 0 1.75 0.05 1.70 1.90 0 1.50 -0.10 1.65 -0.45 0.85 -0.35 -0.85 -0.45 -0.85 -0.45 -0.10 -0.05 1.10 -2.55 1.20 -2.55 0.05z"/>
  <path d="M27 25.90 c0 -2.15 -0.45 -2.35 -3.60 -2 -1.60 0.15 -2.40 0.05 -2.40 -0.35 0 -0.30 -0.55 -0.55 -1.25 -0.55 -1.20 0 -1.20 -0.05 -0.40 -1 1.10 -1.25 1.90 -1.25 3.15 0 0.95 0.95 1 0.95 1.50 0 0.60 -1.15 2.35 -1.30 3.70 -0.25 0.50 0.40 1.15 0.60 1.35 0.45 0.80 -0.45 -0.20 3.60 -1.10 4.55 -0.95 0.95 -0.95 0.95 -0.95 -0.85z"/>
  <path d="M15.70 20.55 l0.05 -1.45 1.40 1 c1.75 1.25 1.70 1.90 -0.10 1.90 -1.25 0 -1.40 -0.20 -1.35 -1.45z"/>
  <path d="M23.50 18.05 c0 -0.85 0.25 -1.55 0.50 -1.55 0.30 0 0.50 0.55 0.50 1.20 0 0.70 -0.20 1.40 -0.50 1.55 -0.30 0.20 -0.50 -0.35 -0.50 -1.20z"/>
 </g>
 <g fill="#4b3b36">
  <path d="M21.50 35.25 c0 -1.45 0.20 -1.75 1 -1.75 0.85 0 0.95 0.15 0.50 0.95 -0.35 0.65 -0.35 1.10 0 1.30 0.85 0.50 0.55 1.25 -0.50 1.25 -0.80 0 -1 -0.35 -1 -1.75z"/>
  <path d="M6.45 35.65 c-0.05 -0.25 -0.05 -0.55 -0.05 -0.75 0.05 -0.15 -0.25 -0.60 -0.65 -0.90 -0.40 -0.35 -0.75 -1.15 -0.75 -1.80 0 -0.95 0.25 -1.20 1.25 -1.20 0.90 0 1.25 -0.25 1.25 -0.95 0 -0.50 -0.35 -1.05 -0.75 -1.25 -1 -0.35 -1 -2.30 0 -2.30 0.45 0 0.75 -0.30 0.70 -0.60 -0.05 -0.35 -0.05 -1.40 0 -2.25 0.05 -1.30 0.25 -1.65 1.05 -1.65 0.60 0 0.85 0.25 0.70 0.70 -0.15 0.40 -0.05 0.85 0.25 1.05 0.35 0.15 0.55 -0.10 0.55 -0.70 0 -0.60 0.25 -1.05 0.50 -1.05 0.30 0 0.50 0.50 0.50 1.05 0 0.60 0.80 1.85 1.75 2.80 0.95 0.95 1.75 1.50 1.75 1.20 0 -0.25 -0.20 -0.65 -0.50 -0.80 -0.75 -0.45 -0.60 -2.35 0.15 -2.15 0.95 0.35 1.05 3.35 0.15 3.70 -1.45 0.55 -3.30 -0.25 -3.35 -1.45 -0.05 -0.65 -0.20 -0.40 -0.40 0.65 -0.30 1.60 -0.15 1.85 1.45 2.75 1.45 0.85 1.80 1.35 1.90 2.90 0.15 1.80 0.15 1.85 -1.60 1.85 -1.25 0 -1.80 0.20 -1.80 0.75 0 0.55 -0.55 0.75 -2 0.75 -1.10 0 -2.05 -0.15 -2.05 -0.35z m5.05 -4.40 c-0.35 -0.40 -1 -0.75 -1.45 -0.75 -0.55 0.05 -0.40 0.25 0.45 0.75 1.60 0.90 1.75 0.90 1 0z"/>
  <path d="M22 30.05 c0 -1.85 0.60 -2.55 2.05 -2.55 1.70 0 2 1.35 0.55 2.65 -1.25 1.15 -2.60 1.10 -2.60 -0.10z"/>
  <path d="M22 24.10 c0 -0.20 -0.90 -0.30 -2 -0.20 -1.85 0.20 -2 0.10 -2 -1.10 0 -0.95 -0.25 -1.30 -1 -1.30 -0.70 0 -1 0.35 -1 1.05 0 0.80 -0.25 1 -1.35 0.85 -1.25 -0.15 -1.40 -0.35 -1.40 -2.15 0 -1.70 0.20 -2.05 1.10 -2.15 1.25 -0.20 4.15 1.75 4.15 2.75 0 0.35 0.25 0.65 0.50 0.65 0.30 0 0.50 -0.20 0.50 -0.45 0 -0.95 2.05 -0.95 2.95 0 0.85 0.95 0.90 0.95 1.80 -0.05 1.10 -1.20 2.55 -1.30 3.15 -0.15 0.30 0.50 0.80 0.70 1.35 0.45 0.65 -0.25 0.80 -0.10 0.55 0.50 -0.15 0.40 -0.30 1 -0.30 1.25 0 0.25 -0.45 0.45 -1 0.45 -0.55 0 -1 -0.20 -1 -0.50 0 -0.25 -0.35 -0.50 -0.75 -0.50 -0.40 0 -0.75 0.25 -0.75 0.50 0 0.30 -0.80 0.50 -1.75 0.50 -0.95 0 -1.75 -0.15 -1.75 -0.40z m-6.80 -2.90 c0.45 -0.15 0.80 -0.65 0.80 -1 0 -0.60 -0.20 -0.60 -1 -0.20 -0.55 0.30 -1 0.75 -1 1 0 0.60 0.15 0.60 1.20 0.20z"/>
  <path d="M30.35 19.55 c-0.20 -1.20 -0.25 -2.30 -0.10 -2.45 0.55 -0.55 0.80 0.40 0.65 2.45 l-0.15 2.20 -0.40 -2.20z"/>
  <path d="M10.50 18.75 c0 -1.25 0.20 -2.25 0.45 -2.25 0.25 0 0.85 -0.15 1.30 -0.35 0.75 -0.25 0.80 -0.15 0.35 0.70 -0.30 0.55 -0.40 1.15 -0.25 1.35 0.40 0.35 -0.85 2.80 -1.45 2.80 -0.20 0 -0.40 -1 -0.40 -2.25z"/>
  <path d="M20.45 18.90 c-0.35 -0.65 -0.60 -1.50 -0.50 -1.90 0.10 -0.55 -0.10 -0.50 -0.90 0.20 -0.60 0.55 -0.95 1.30 -0.85 1.65 0.20 0.55 0.05 0.55 -0.70 0.15 -0.55 -0.30 -0.95 -0.70 -0.95 -0.90 0.15 -0.90 -0.10 -1.30 -0.50 -0.70 -0.20 0.40 -0.95 0.60 -1.60 0.50 l-1.20 -0.15 1.25 -1.25 c0.70 -0.70 1.20 -1.40 1.10 -1.60 -0.05 -0.25 0.15 -0.40 0.45 -0.40 0.30 0 0.65 0.40 0.80 0.95 0.20 0.75 0.60 0.90 2.45 0.65 1.80 -0.20 2.20 -0.10 2.20 0.60 0 0.45 0.35 0.80 0.75 0.80 0.55 0 0.60 0.30 0.30 1.10 -0.55 1.55 -1.35 1.65 -2.10 0.30z"/>
  <path d="M23.50 18.45 c0 -0.60 0.35 -0.95 1 -0.95 0.55 0 1 0.30 1 0.70 0 0.35 -0.45 0.80 -1 0.95 -0.75 0.20 -1 0 -1 -0.70z"/>
  <path d="M27.75 18 c-0.80 -0.90 -0.80 -1 -0.10 -1 0.45 0 1.05 0.45 1.35 1 0.30 0.55 0.35 1 0.10 1 -0.25 0 -0.85 -0.45 -1.35 -1z"/>
  <path d="M23.60 15.65 c0.25 -1.30 1.90 -1.45 1.90 -0.20 0 0.75 -0.30 1.05 -1.05 1.05 -0.70 0 -0.95 -0.25 -0.85 -0.85z"/>
  <path d="M25.50 14 l-1.25 -1 1.40 0 c1 0 1.35 0.25 1.35 1 0 1.20 0.05 1.20 -1.50 0z"/>
 </g>
 <g fill="#5c4818">
  <path d="M12.40 39.45 c-0.10 -0.35 -0.75 -0.65 -1.45 -0.75 -1.70 -0.15 -5.10 -3.30 -4.45 -4.10 0.30 -0.35 0.35 -0.50 0.20 -0.35 -0.60 0.40 -1.70 -0.80 -1.70 -1.80 0 -0.55 0.30 -0.95 0.65 -0.95 0.35 -0.05 0.25 -0.30 -0.25 -0.70 -0.95 -0.70 -1.25 -3.80 -0.40 -3.80 0.30 0 0.55 -0.50 0.55 -1.10 0.05 -0.65 0.15 -0.80 0.25 -0.40 0.15 0.40 0.85 1.05 1.55 1.40 1.65 0.75 2.15 0.75 2.15 0.05 0 -0.30 -0.35 -0.45 -0.75 -0.25 -0.45 0.15 -0.95 -0.15 -1.25 -0.70 -0.45 -0.85 -0.35 -1 0.50 -1 0.55 0 1 0.20 1 0.45 0 0.25 0.95 0.55 2.10 0.75 1.15 0.20 2.55 0.70 3.05 1.15 0.75 0.75 0.85 0.75 0.60 0.05 -0.25 -0.60 0.20 -0.85 2.05 -1.10 3.70 -0.50 4.20 -0.40 4.20 0.70 0 0.70 -0.25 0.90 -0.85 0.70 -0.75 -0.25 -0.75 -0.15 0.05 0.50 0.55 0.45 1.25 0.80 1.60 0.80 0.85 0 1.20 2.40 0.40 2.70 -1.15 0.45 -0.75 1.30 0.60 1.30 1.15 0 1.20 0.05 0.55 1.05 -0.65 0.90 -0.60 1.25 0.45 3.25 0.65 1.25 1.20 2.35 1.20 2.50 0 0.10 -0.65 0.20 -1.40 0.20 -1.15 0 -1.50 -0.30 -2 -1.65 -0.35 -0.90 -0.60 -2.15 -0.60 -2.75 0 -0.60 -0.30 -1.10 -0.70 -1.10 -0.40 0 -0.80 -0.50 -0.90 -1.10 -0.10 -0.95 -0.50 -1.20 -2.10 -1.30 -1.30 -0.10 -2 -0.45 -2.15 -1.05 -0.10 -0.50 -0.90 -1.25 -1.70 -1.75 -1.50 -0.85 -1.95 -0.50 -0.80 0.65 0.50 0.50 0.20 0.60 -1.40 0.45 -1.70 -0.10 -2 0 -2 0.85 0 0.55 0.50 1.20 1.05 1.50 2 1 2.70 1.85 2.70 3.30 0 1.10 0.25 1.45 1 1.45 0.75 0 1 0.35 1 1.25 0 1 -0.25 1.25 -1.20 1.25 -0.65 0 -1.30 -0.25 -1.40 -0.55z"/>
  <path d="M13.30 23.40 c-0.45 -1.70 -0.40 -1.85 0.70 -1.75 0.75 0.05 1 0.40 1 1.45 0 1.70 -1.25 1.90 -1.70 0.30z"/>
  <path d="M23.50 23.75 c0 -0.80 1.70 -2.75 2.40 -2.75 0.85 0 2.20 1.95 1.95 2.75 -0.45 1.05 -4.35 1.05 -4.35 0z"/>
  <path d="M22 18.15 c0 -0.65 0.25 -1.15 0.50 -1.15 0.65 0 0.65 0.55 0 1.50 -0.40 0.60 -0.50 0.55 -0.50 -0.35z"/>
  <path d="M23.65 17.50 c0.20 -0.90 0.35 -1.80 0.35 -2.05 0 -0.95 1.40 -0.40 1.65 0.65 0.25 0.90 0.40 0.95 1.05 0.40 0.65 -0.50 0.80 -0.50 0.80 0.05 0 1.25 -0.75 1.95 -2.50 2.25 -1.65 0.35 -1.65 0.35 -1.35 -1.30z"/>
  <path d="M14.15 16.90 c0.10 -0.35 0.50 -0.60 0.80 -0.50 0.30 0.05 0.60 -0.20 0.60 -0.50 0.05 -0.35 0.10 -1 0.15 -1.40 0 -0.40 0.60 -0.80 1.30 -0.90 1.20 -0.15 1.25 -0.15 0.25 0.60 -0.95 0.70 -0.95 0.75 -0.10 0.80 0.65 0 0.85 0.30 0.75 1.10 -0.10 0.90 -0.50 1.15 -2.05 1.30 -1.40 0.10 -1.90 -0.05 -1.70 -0.50z"/>
 </g>
 <g fill="#742c2d">
  <path d="M30.25 35.50 c-0.80 -0.20 -2.50 -0.85 -3.75 -1.40 l-2.25 -1.05 -1.10 1.05 c-1.10 1.05 -1.15 1.05 -1.15 0.10 0 -1.15 2.05 -2.20 4.35 -2.20 1.35 0 1.85 -0.30 2.65 -1.60 0.95 -1.60 2.30 -6.65 2.05 -7.65 -0.10 -0.25 -0.45 -1.95 -0.80 -3.75 -0.35 -1.80 -0.80 -3.70 -1.05 -4.20 -0.25 -0.70 -0.20 -0.85 0.20 -0.60 0.35 0.20 0.60 0.10 0.60 -0.15 0 -0.30 -0.30 -0.55 -0.65 -0.55 -0.35 0 -1.15 -0.70 -1.80 -1.55 -1.50 -2.05 -1.80 -1.60 -0.55 0.95 0.55 1.10 1 2.50 1 3.05 0 0.55 0.25 1.15 0.50 1.30 0.30 0.15 0.50 0.60 0.45 0.90 0 0.45 -0.10 0.45 -0.30 0 -0.10 -0.35 -0.80 -0.65 -1.50 -0.65 -1.25 0 -1.25 -0.05 -0.45 -0.95 0.85 -0.90 0.80 -1 -1.05 -2.35 -1.05 -0.80 -2.35 -1.85 -2.85 -2.35 -0.90 -0.90 -1 -0.90 -1.55 -0.15 -0.70 0.90 -5.30 3.40 -5.70 3.05 -0.10 -0.15 0.75 -1.40 1.90 -2.80 1.20 -1.35 2.05 -2.60 1.95 -2.75 -0.15 -0.10 -1.15 0.60 -2.30 1.55 -2.40 2.10 -4.85 6.20 -5.30 9 -0.70 4.10 -0.90 4.70 -1.70 4.90 -0.60 0.15 -0.50 0.25 0.30 0.30 0.80 0.05 1.10 0.35 1.10 1.20 0 2.10 -0.70 2.50 -3.25 2.10 -2.10 -0.30 -2.35 -0.25 -2.05 0.50 0.15 0.45 0.30 1.40 0.30 2.05 0 0.70 0.30 1.20 0.70 1.20 0.45 0 0.70 0.60 0.70 1.75 0 1.15 -0.25 1.75 -0.70 1.75 -0.85 0 -0.85 -0.25 -0.20 -1.50 0.35 -0.65 0.35 -1.05 0 -1.25 -0.30 -0.15 -0.50 0.20 -0.50 0.80 l0 1.10 -1.30 -1.20 c-1.90 -1.80 -2.80 -3.80 -2.45 -5.50 0.25 -1.10 0.60 -1.45 1.55 -1.45 1.05 0 1.20 -0.20 1.15 -1.60 -0.10 -1.55 -0.10 -1.55 -0.30 -0.25 -0.15 0.95 -0.50 1.35 -1.25 1.35 -0.90 0 -1 -0.20 -0.70 -1.60 0.20 -0.90 0.55 -1.70 0.80 -1.80 0.30 -0.10 0.50 -0.85 0.50 -1.65 0 -0.80 0.25 -1.45 0.55 -1.45 0.30 0 0.40 -0.35 0.25 -0.80 -0.60 -1.50 4.65 -9.70 6.15 -9.70 0.30 0 0.55 -0.30 0.55 -0.70 0 -0.70 5.10 -5.65 7.35 -7.15 1.35 -0.90 4.65 -0.50 4.65 0.60 0 0.35 0.50 0.85 1.10 1.05 0.65 0.20 1.70 0.95 2.40 1.65 0.70 0.70 2.40 2.35 3.80 3.65 2.85 2.55 5.55 6.60 5.95 8.80 0.10 0.80 0.55 2.25 1 3.25 1.35 3.30 0.40 11.20 -1.65 13.50 -0.75 0.85 -3.85 2.40 -4.55 2.30 -0.15 -0.05 -0.95 -0.25 -1.80 -0.45z m3.70 -1.05 c1.45 -0.50 3.50 -3.20 2.85 -3.80 -0.15 -0.15 -0.55 0.35 -0.90 1.05 -0.30 0.75 -1.40 1.80 -2.35 2.30 -2.05 1.10 -1.90 1.25 0.40 0.45z m-0.15 -3.05 c1.15 -1.30 2 -3.10 2.40 -4.95 0.40 -1.90 -0.55 -7.05 -1.50 -7.90 -0.75 -0.75 -0.75 -0.70 -0.25 0.30 1.15 2.25 0.40 9.05 -1.20 10.60 -0.80 0.75 -0.85 0.70 -0.50 -0.35 0.60 -1.95 0.35 -8.85 -0.35 -10.60 -0.65 -1.60 -0.70 -1.50 -0.50 1.90 0.30 4.80 -0.20 7.65 -1.65 9.80 l-1.20 1.75 1.10 0.20 c2.20 0.45 2.70 0.35 3.65 -0.75z m-24.15 -4.20 c-0.15 -0.40 -0.60 -0.65 -0.95 -0.50 -1.15 0.45 -1.85 -1.65 -1.55 -4.90 0.15 -1.70 0.40 -3.50 0.60 -4.05 0.30 -0.70 0.25 -0.85 -0.10 -0.50 -0.65 0.60 -1.65 5.15 -1.65 7.45 0 1.35 0.30 1.75 1.65 2.45 2.05 1 2.40 1.05 2 0.05z m0.35 -3.80 c0 -0.35 0.15 -1.20 0.30 -1.90 l0.25 -1.25 -0.75 1.25 c-0.90 1.45 -1 2.50 -0.30 2.50 0.30 0 0.50 -0.30 0.50 -0.60z m2.50 -10.65 c0.30 -0.15 0.40 -0.50 0.30 -0.70 -0.15 -0.20 0.35 -1 1.05 -1.85 0.65 -0.80 1.60 -2.10 2 -2.95 0.65 -1.25 0.45 -1.15 -1.30 0.75 -1.10 1.25 -2.80 3.85 -3.75 5.75 -2.35 4.70 -2.80 6.85 -0.55 2.65 0.95 -1.80 1.95 -3.45 2.25 -3.65z m19.15 0.20 c-0.50 -0.85 -1.65 -2.15 -2.60 -2.90 -0.95 -0.70 -2.60 -2.40 -3.65 -3.70 -2.15 -2.75 -2.65 -2.65 -0.55 0.10 1.35 1.80 7.20 8.05 7.55 8.05 0.10 0 -0.25 -0.70 -0.75 -1.55z m-8.65 -4.15 c0 -0.40 0.30 -0.85 0.65 -0.95 0.35 -0.15 0.25 -0.30 -0.25 -0.30 -0.50 -0.05 -0.90 -0.40 -0.90 -0.80 0 -0.40 -0.20 -0.75 -0.50 -0.75 -0.25 0 -0.50 -0.80 -0.50 -1.75 0 -0.95 -0.15 -1.75 -0.35 -1.75 -0.55 0.05 -1.95 2.05 -2.35 3.40 -0.35 1 -0.20 1.10 1.40 1.10 1.60 0 1.80 0.15 1.80 1.25 0 0.70 0.25 1.25 0.50 1.25 0.30 0 0.50 -0.30 0.50 -0.70z"/>
  <path d="M22 30.25 c0 -0.70 0.25 -1.25 0.50 -1.25 0.30 0 0.50 0.25 0.50 0.60 0 0.45 0.15 0.45 0.60 0 0.35 -0.35 0.95 -0.60 1.40 -0.60 0.50 0.05 0.30 0.40 -0.65 1.25 -1.80 1.60 -2.35 1.55 -2.35 0z"/>
  <path d="M26.50 24 c0 -0.25 -0.80 -0.50 -1.80 -0.50 l-1.85 0 1.35 -1.25 c1.65 -1.50 1.50 -1.50 3.30 -0.15 1.85 1.35 1.95 2.40 0.25 2.40 -0.70 0 -1.25 -0.20 -1.25 -0.50z"/>
  <path d="M16 21.25 c0 -1.40 0.15 -1.45 1.55 -0.75 1.40 0.75 1.20 2 -0.30 2 -1 0 -1.25 -0.25 -1.25 -1.25z"/>
  <path d="M20.65 18.75 c-0.35 -0.40 -0.65 -1.10 -0.65 -1.55 0 -0.65 -0.15 -0.70 -0.70 -0.25 -0.55 0.45 -0.75 0.30 -0.90 -0.95 -0.25 -1.70 0.35 -2.45 1.25 -1.55 0.75 0.75 1.35 0.70 1.35 -0.20 0 -0.40 0.25 -0.75 0.50 -0.75 0.30 0 0.50 0.45 0.50 1 0 0.55 0.25 1 0.50 1 0.65 0 0.65 1.80 0 3.05 -0.65 1.10 -1 1.15 -1.85 0.20z"/>
  <path d="M23.90 18.70 c-0.60 -0.55 -0.45 -3.60 0.15 -4 0.30 -0.15 0.80 -0.05 1.10 0.25 0.40 0.40 0.40 0.55 0 0.55 -0.35 0 -0.65 0.80 -0.75 1.80 -0.10 1 -0.30 1.60 -0.50 1.40z"/>
  <path d="M14.10 17.20 c0.10 -0.40 0.30 -0.70 0.45 -0.60 0.20 0.10 0.80 -0.30 1.40 -0.80 1.25 -1.15 2.05 -0.70 0.85 0.45 -0.45 0.45 -0.80 1.05 -0.80 1.30 0 0.25 -0.45 0.45 -1.05 0.45 -0.65 0 -0.95 -0.25 -0.85 -0.80z"/>
 </g>
 <g fill="#903135">
  <path d="M30.75 35.50 c-0.80 -0.20 -2.50 -0.80 -3.70 -1.40 -2.85 -1.40 -3.25 -1.40 -4.05 0.15 -0.35 0.70 -0.85 1.25 -1.10 1.25 -0.20 0 -0.40 -0.55 -0.40 -1.25 0 -0.85 0.25 -1.25 0.90 -1.25 0.50 0 1.15 -0.25 1.40 -0.50 0.45 -0.45 6 -0.80 7.45 -0.50 2.20 0.50 4.25 -1.50 5 -4.90 0.25 -1.25 0.60 -1.60 1.55 -1.60 1.15 0 1.20 0.10 0.90 2.15 -0.45 2.95 -1.90 6.15 -3.10 6.80 -2.05 1.10 -3.40 1.40 -4.85 1.05z m3.80 -1.30 c0.85 -0.40 1.85 -1.50 2.25 -2.45 1.05 -2.50 0.85 -3.85 -0.25 -1.50 -1.20 2.65 -2.30 3.55 -5.05 4.15 l-2.25 0.50 1.90 0.05 c1.05 0.05 2.60 -0.30 3.40 -0.75z"/>
  <path d="M5.25 33.65 c-2.50 -3 -2.75 -3.80 -2.20 -7.35 0.50 -3.70 1.55 -7.10 3.05 -10.15 1 -2 1.90 -2.80 1.90 -1.65 0 0.30 0.35 0.50 0.75 0.50 0.40 0 0.75 0.20 0.75 0.45 0 0.25 -0.35 1.40 -0.75 2.55 -1.45 4.05 -0.75 3.65 1.40 -0.80 1.20 -2.45 2.55 -4.75 3 -5.15 0.50 -0.35 0.85 -0.90 0.85 -1.15 0 -0.25 0.60 -1.30 1.30 -2.30 l1.25 -1.85 -0.35 1.90 c-0.20 1.30 -0.15 1.85 0.30 1.85 0.35 0 -0.15 0.85 -1.05 1.90 -1.50 1.65 -2.75 4 -3.65 6.75 -0.15 0.50 -0.50 0.80 -0.80 0.60 -0.50 -0.30 -2 2.25 -2 3.50 0 1.35 1 0.80 1.35 -0.75 0.15 -0.80 0.50 -1.50 0.75 -1.50 0.25 0 0.35 0.65 0.15 1.50 -0.20 0.95 -0.10 1.80 0.25 2.25 0.50 0.65 0.40 0.75 -0.70 0.75 -0.70 0 -1.30 0.25 -1.30 0.50 0 0.30 -0.35 0.50 -0.75 0.50 -0.40 0 -0.75 -0.35 -0.75 -0.75 0 -0.40 -0.25 -0.75 -0.55 -0.75 -0.50 0 -0.35 -2.80 0.35 -6.60 0.50 -2.55 -0.55 -1.45 -1.20 1.25 -0.75 3.25 -0.80 6.85 -0.05 6.85 0.25 0 0.35 0.25 0.20 0.50 -0.15 0.30 0.05 0.50 0.45 0.50 0.45 0 0.80 0.35 0.80 0.75 0 0.40 -0.25 0.75 -0.60 0.75 -0.45 0 -0.45 0.15 0 0.60 0.85 0.85 0.75 1.40 -0.25 1.40 -0.65 0 -0.70 0.15 -0.25 0.60 0.70 0.70 0.80 1.60 0.15 1.20 -0.25 -0.15 -0.55 0.05 -0.75 0.45 -0.15 0.40 -0.05 0.85 0.20 1 0.20 0.15 0.55 -0.05 0.65 -0.35 0.15 -0.35 0.30 -0.15 0.30 0.50 0.05 1.50 -0.45 1.35 -2.20 -0.75z m-0.55 -3.50 c-0.45 -2.60 -0.70 -2.70 -0.70 -0.25 0 1.15 0.25 2.10 0.50 2.10 0.35 0 0.40 -0.70 0.20 -1.85z"/>
  <path d="M33.15 24.40 c-0.05 -3.05 -0.35 -5.30 -0.90 -6.60 -0.45 -1.05 -0.95 -1.80 -1.05 -1.65 -0.15 0.15 -0.05 0.70 0.25 1.25 0.75 1.45 0.70 2.60 -0.20 2.60 -0.45 0 -0.85 -0.70 -1.05 -1.85 -0.45 -2.55 -2.50 -6.70 -3.85 -7.75 l-1.10 -0.90 1.15 0 c0.65 0 1.10 0.30 1.10 0.75 0 0.40 0.25 0.75 0.50 0.75 0.30 0 0.50 0.50 0.50 1.15 0 0.85 0.10 0.95 0.50 0.35 0.70 -1.10 2.25 0.60 4.35 4.80 1.65 3.40 1.75 3.85 1.45 6.85 -0.20 1.80 -0.65 3.60 -0.95 4.05 -0.50 0.65 -0.60 -0.10 -0.70 -3.80z"/>
  <path d="M31.65 23 c0 -1.50 0.10 -2.15 0.20 -1.35 0.10 0.75 0.10 1.95 0 2.75 -0.10 0.75 -0.20 0.10 -0.20 -1.40z"/>
  <path d="M36.45 22.65 c-0.05 -0.25 -0.15 -0.85 -0.20 -1.40 -0.20 -1.70 -1.20 -4.95 -1.80 -5.75 -0.40 -0.55 -0.45 -0.40 -0.20 0.75 0.30 1.45 0.30 1.45 -0.45 0.50 -0.40 -0.55 -0.80 -1.25 -0.80 -1.60 0 -0.70 -3.30 -4.90 -5.40 -6.90 -0.90 -0.80 -1.60 -1.70 -1.60 -1.90 0 -0.55 -2.05 -2.30 -2.70 -2.35 -0.25 0 -0.15 0.35 0.20 0.75 0.55 0.65 0.40 0.75 -0.70 0.75 -1.15 0 -1.30 -0.20 -1.30 -1.75 0 -1.50 0.15 -1.75 1.20 -1.75 0.65 0 1.35 -0.30 1.50 -0.60 0.25 -0.65 2.80 1.90 2.80 2.80 0 0.90 3.65 4.90 4 4.35 0.70 -1.15 2.20 1.40 2.05 3.50 -0.10 1.50 0.05 1.95 0.65 1.95 0.45 0 0.80 -0.20 0.80 -0.50 0 -2.05 2.90 2.40 3.70 5.65 0.40 1.75 -0.10 3.85 -1 3.85 -0.40 0 -0.75 -0.15 -0.75 -0.35z"/>
  <path d="M14 17.30 c0 -0.35 0.40 -0.80 0.90 -1 0.45 -0.15 1.60 -0.75 2.55 -1.30 1.20 -0.75 1.85 -0.90 2.20 -0.55 0.40 0.40 0.20 0.55 -0.55 0.55 -0.65 0 -1.10 0.30 -1.10 0.75 0 0.40 -0.45 0.75 -1 0.75 -0.55 0 -1 0.35 -1 0.75 0 0.40 -0.45 0.75 -1 0.75 -0.55 0 -1 -0.30 -1 -0.70z"/>
  <path d="M27.35 17.15 c-0.45 -0.10 -0.75 -0.45 -0.60 -0.70 0.45 -0.70 1.10 -0.55 1.45 0.30 0.15 0.40 0.20 0.70 0.15 0.70 -0.05 -0.05 -0.50 -0.15 -1 -0.30z"/>
  <path d="M26 14.25 c-0.65 -0.70 -1.45 -1.25 -1.80 -1.25 -0.30 0 -0.95 -0.50 -1.40 -1.10 -0.70 -1 -0.85 -1.05 -1.40 -0.40 -0.70 0.90 -5.45 3.60 -5.75 3.35 -0.10 -0.10 0.65 -1.15 1.65 -2.30 1.65 -1.90 2 -2.05 4.25 -2.05 1.60 0 2.45 -0.20 2.45 -0.60 0 -0.90 1.75 1 2.95 3.25 0.60 1.05 1.05 2 1.05 2.10 0 0.60 -0.95 0.15 -2 -1z"/>
  <path d="M10 13.45 c0 -0.85 1.30 -2.85 1.65 -2.45 0.10 0.15 -0.20 0.95 -0.70 1.75 -0.55 0.85 -0.95 1.15 -0.95 0.70z"/>
  <path d="M12.15 9.65 c-1.25 -0.45 -0.65 -1.55 2.15 -4.10 3.40 -3.10 4.70 -3.30 4.70 -0.80 0 1.55 -0.15 1.75 -1.25 1.75 -1.10 0 -1.20 -0.15 -0.75 -1.25 0.70 -1.85 0.35 -1.55 -1.40 1.20 -1.85 2.80 -2.60 3.50 -3.45 3.20z"/>
 </g>
 <g fill="#6a513b">
  <path d="M13.55 39.65 c-0.05 -0.30 -0.75 -0.70 -1.55 -0.90 -1.05 -0.25 -1.60 -0.70 -1.80 -1.55 -0.20 -0.85 -0.65 -1.20 -1.45 -1.20 -0.65 0 -1.55 -0.35 -1.95 -0.80 -0.90 -0.85 -1.05 -1.40 -0.30 -0.95 0.30 0.15 0.50 0.05 0.50 -0.30 0 -0.40 0.40 -0.25 1.15 0.35 1.70 1.45 4.35 2.85 4.35 2.25 0 -0.30 -0.15 -0.55 -0.40 -0.55 -0.20 0 -1.55 -0.75 -2.95 -1.70 -1.70 -1.10 -2.70 -1.50 -2.85 -1.15 -0.15 0.35 -0.10 -0.60 0.05 -2 0.25 -2.15 0.15 -2.65 -0.50 -2.65 -0.50 0 -0.80 -0.60 -0.95 -1.75 -0.20 -1.80 0.25 -2.30 0.95 -1.05 0.35 0.55 3.20 2.30 3.80 2.30 0.10 0 0.20 -0.35 0.20 -0.80 0 -0.50 -0.35 -0.70 -0.95 -0.55 -0.70 0.20 -0.90 0 -0.90 -0.90 0 -0.80 0.35 -1.25 1.30 -1.45 1.30 -0.35 3.05 1 7.95 5.95 l1 1.05 -0.75 -1.05 c-0.40 -0.55 -1.50 -1.75 -2.35 -2.65 -1.10 -1.10 -1.65 -2.15 -1.65 -3.10 0 -0.75 -0.15 -1.80 -0.35 -2.30 -0.25 -0.65 -0.15 -0.80 0.45 -0.55 0.45 0.15 1.30 -0.20 1.95 -0.80 0.75 -0.70 1.20 -0.85 1.35 -0.45 0.10 0.35 0.50 0.60 0.90 0.60 0.40 0 0.70 0.35 0.70 0.75 0 0.90 1.30 1 1.65 0.15 0.15 -0.35 0.30 0.10 0.30 1 0.05 1.50 -0.05 1.60 -1.70 1.60 -1.60 0 -1.75 -0.10 -1.75 -1.50 0 -1 -0.25 -1.50 -0.75 -1.50 -0.55 0 -0.75 0.55 -0.75 2 0 1.10 0.25 2 0.50 2 0.30 0 0.50 0.35 0.50 0.75 0 0.40 0.25 0.75 0.50 0.75 0.30 0 0.50 -0.35 0.50 -0.80 0 -0.75 0.45 -0.80 3.40 -0.50 1.85 0.20 3.55 0.55 3.80 0.80 0.25 0.25 0.70 0.15 1.10 -0.25 0.85 -0.85 0.90 -1.60 0.10 -1.90 -0.50 -0.15 -0.50 -0.45 -0.05 -1.25 0.50 -0.80 0.50 -1.10 0 -1.25 -0.35 -0.10 -0.45 -0.40 -0.25 -0.60 0.55 -0.55 3.35 1.85 3.35 2.95 0.05 1.70 -1.85 4.10 -5.05 6.35 -1.75 1.20 -3.20 2.35 -3.30 2.55 -0.30 0.70 -3.60 0.45 -3.60 -0.25 0 -0.45 -0.50 -0.60 -1.55 -0.45 -1.50 0.20 -1.50 0.20 -1.20 2.80 0.20 1.40 0.10 3.10 -0.20 3.80 -0.25 0.70 -0.50 1 -0.50 0.65z m-1.55 -7.65 c-0.65 -0.90 -1.50 -1.50 -2.15 -1.50 -0.95 0 -0.90 0.10 0.45 0.95 0.90 0.55 1.75 1.20 1.90 1.50 0.20 0.30 0.45 0.55 0.60 0.55 0.15 0 -0.20 -0.65 -0.80 -1.50z m1.10 -3.10 c-0.85 -0.90 -1.75 -1.40 -1.95 -1.20 -0.20 0.20 0.35 1.05 1.25 1.90 2.20 1.90 2.80 1.35 0.70 -0.70z m9.40 -0.85 c0 -0.20 -0.85 -0.40 -1.85 -0.40 -1.80 -0.05 -1.85 -0.05 -0.65 0.60 1.15 0.60 2.50 0.50 2.50 -0.20z"/>
  <path d="M20.60 18.95 c-0.35 -0.55 -0.50 -1.50 -0.35 -2.10 0.25 -0.90 0.05 -0.85 -1.20 0.55 -0.85 0.85 -1.65 1.60 -1.75 1.60 -0.10 0 -0.35 -0.50 -0.55 -1.10 -0.20 -0.70 -0.40 -0.90 -0.60 -0.50 -0.30 0.75 -2.30 0.80 -2.05 0.05 0.35 -1.05 4.50 -3.05 5.75 -2.75 0.80 0.25 1.15 0.10 1.15 -0.45 0 -1.20 1.45 -0.85 1.80 0.45 0.30 1.25 -0.60 5.30 -1.20 5.30 -0.20 0 -0.65 -0.45 -1 -1.05z"/>
  <path d="M23.70 18.30 c-0.15 -0.40 -0.20 -1.35 -0.10 -2.15 0.20 -1.70 1.60 -1.90 1.80 -0.25 0.20 1.25 0.60 1.40 1.50 0.50 0.45 -0.45 0.75 -0.40 1.35 0.40 0.40 0.50 0.75 1.10 0.75 1.35 0 0.55 -0.90 0.40 -1.30 -0.20 -0.25 -0.40 -0.50 -0.30 -0.80 0.25 -0.55 1 -2.85 1.05 -3.20 0.10z"/>
  <path d="M26.50 14.50 c-0.70 -0.55 -0.95 -1 -0.60 -1 0.70 0 2.35 1.40 2.05 1.75 -0.15 0.10 -0.75 -0.25 -1.45 -0.75z"/>
 </g>
 <g fill="#7e5c1d">
  <path d="M13.10 39.25 c-0.35 -0.40 -1.30 -0.75 -2.05 -0.75 -1 0 -1.70 -0.40 -2.25 -1.25 -0.45 -0.70 -1.15 -1.25 -1.50 -1.25 -0.40 0 -0.80 -0.40 -0.90 -0.90 -0.30 -1.05 0.90 -1.30 2.10 -0.40 1.10 0.80 3.85 2.30 4.25 2.30 0.20 0 0.10 -0.35 -0.25 -0.75 -0.35 -0.40 -0.90 -0.75 -1.25 -0.75 -0.30 0 -1 -0.45 -1.50 -1 -0.90 -1 -0.85 -1 0.90 -1 1.30 0 1.85 0.20 1.85 0.75 0 0.40 0.25 0.75 0.50 0.75 0.30 0 0.50 0.55 0.50 1.25 0 0.90 0.25 1.25 1 1.25 0.75 0 1 0.35 1 1.25 0 1.40 -1.35 1.70 -2.40 0.50z"/>
  <path d="M22.10 39.40 c-0.35 -0.35 -0.60 -1.10 -0.60 -1.75 0 -0.65 -0.20 -1.15 -0.50 -1.15 -0.25 0 -0.50 -0.80 -0.50 -1.75 0 -1.55 0.15 -1.75 1.30 -1.75 1.15 0 1.25 0.15 1 1.30 -0.25 0.85 -0.05 1.75 0.45 2.50 0.40 0.65 0.60 1.20 0.40 1.20 -0.25 0 0 0.25 0.50 0.55 0.45 0.25 0.85 0.70 0.85 0.95 0 0.70 -2.20 0.60 -2.90 -0.10z"/>
  <path d="M5 29.25 c0 -1.65 0.10 -1.75 1.75 -1.75 1.20 0 1.75 0.25 1.75 0.75 0 0.40 -0.40 0.75 -0.85 0.75 -0.65 0 -0.70 0.15 -0.25 0.60 0.95 0.95 0.70 1.40 -0.90 1.40 -1.40 0 -1.50 -0.15 -1.50 -1.75z"/>
  <path d="M14.15 29.65 c-0.35 -0.10 -0.65 -0.80 -0.65 -1.45 0 -1.05 -0.25 -1.20 -1.75 -1.20 -1.60 0 -1.75 -0.10 -1.75 -1.50 0 -0.80 0.15 -1.50 0.30 -1.50 0.15 0 1.30 0.95 2.50 2.15 1.25 1.15 2.60 2.30 3 2.50 1.60 0.90 0.20 1.75 -1.65 1z"/>
  <path d="M17 29.30 c0 -0.40 -0.40 -0.85 -0.90 -1 -0.95 -0.30 -2.90 -3.20 -2.45 -3.65 0.15 -0.15 0.10 -0.75 -0.15 -1.40 -0.35 -0.90 -0.25 -1.20 0.50 -1.40 0.95 -0.25 1.50 0.80 1.50 2.95 0 0.75 0.40 1.20 1.25 1.40 1.05 0.25 1.25 0.60 1.25 2.05 0 0.95 -0.20 1.75 -0.50 1.75 -0.25 0 -0.50 -0.30 -0.50 -0.70z"/>
  <path d="M23.20 27.95 c-0.15 -0.30 -0.85 -0.40 -1.50 -0.25 -1.05 0.30 -1.20 0.15 -1.20 -0.95 0 -1.10 0.20 -1.25 1.75 -1.25 1.60 0 1.75 0.10 1.75 1.50 0 1.60 -0.20 1.85 -0.80 0.95z"/>
  <path d="M26 26.75 c0 -1.60 0.10 -1.75 1.50 -1.75 l1.50 0 -1.10 1.75 c-1.45 2.20 -1.90 2.20 -1.90 0z"/>
  <path d="M24.40 18.65 c-1 -0.25 -1.20 -2.40 -0.40 -3.65 0.40 -0.60 0.50 -0.55 0.50 0.35 0 1.20 1.90 2.15 2.45 1.20 0.25 -0.40 0.70 -0.20 1.35 0.50 0.95 1.05 0.95 1.10 -0.10 0.75 -0.70 -0.20 -1.40 -0.05 -1.85 0.45 -0.45 0.40 -0.85 0.70 -0.95 0.70 -0.10 -0.05 -0.55 -0.15 -1 -0.30z"/>
  <path d="M17.05 17.90 c-0.05 -1 -0.80 -1.20 -1.30 -0.40 -0.40 0.65 -1.75 0.65 -1.75 0.05 0 -0.25 1.15 -1.15 2.55 -2.05 2 -1.20 2.70 -1.40 3.25 -0.95 1.10 0.90 0.80 1.45 -0.75 1.45 -1.25 0 -1.50 0.25 -1.70 1.40 -0.10 0.75 -0.25 0.95 -0.30 0.50z"/>
  <path d="M21.90 16.60 c-0.60 -0.10 -0.90 -0.65 -0.90 -1.65 0 -1.60 0.55 -1.85 1.50 -0.75 0.85 1.05 0.45 2.60 -0.60 2.40z"/>
  <path d="M17.10 13.40 c0.15 -0.35 0.90 -0.70 1.70 -0.80 l1.45 -0.15 -1.45 0.80 c-1.70 0.90 -1.95 0.95 -1.70 0.15z"/>
 </g>
 <g fill="#924243">
  <path d="M6.20 34.40 c-0.20 -0.35 -0.15 -0.40 0.20 -0.20 0.35 0.20 0.60 0.10 0.60 -0.20 0 -0.30 0.25 -0.40 0.50 -0.25 0.30 0.15 0.50 0.50 0.50 0.80 0 0.65 -1.35 0.55 -1.80 -0.15z"/>
  <path d="M34.95 34.20 c1.25 -0.90 3.05 -4.70 3 -6.35 0 -1.05 -0.05 -1 -0.55 0.15 -2.25 5.30 -2.95 5.90 -7.15 6.05 -2.95 0.10 -7.40 -1.10 -6.35 -1.70 0.25 -0.20 2.45 -0.30 4.85 -0.30 3.85 0.05 4.50 -0.10 5.55 -1.10 1.65 -1.55 2.75 -5.35 2.20 -7.65 -0.20 -0.95 -0.25 -1.85 -0.15 -2 0.35 -0.30 -1.35 -5.40 -2 -6.05 -0.30 -0.35 -0.35 0 -0.15 1 0.25 1.10 -0.05 0.80 -1.20 -1.25 -0.85 -1.50 -2.85 -4.10 -4.40 -5.75 -4.65 -4.85 -4.95 -5.25 -4.10 -5.75 0.60 -0.40 0.50 -0.50 -0.35 -0.50 -0.80 0 -1.15 -0.30 -1.15 -1 0 -0.65 0.35 -1 1 -1 0.65 0 1.45 0.85 2.50 2.65 1.90 3.35 3.80 5.35 5 5.35 2.15 0 6.15 7.30 7 12.85 1 6.15 -1.25 13.15 -4.20 13.15 -0.30 0 0 -0.35 0.65 -0.80z"/>
  <path d="M22 33.75 c0 -0.40 0.25 -0.75 0.50 -0.75 0.30 0 0.50 0.35 0.50 0.75 0 0.40 -0.20 0.75 -0.50 0.75 -0.25 0 -0.50 -0.35 -0.50 -0.75z"/>
  <path d="M5.35 33.15 c-0.20 -0.15 -0.35 -1.95 -0.35 -4 0 -4.05 -0.70 -4.85 -1.25 -1.40 -0.15 1.25 -0.50 2.15 -0.70 2.05 -0.90 -0.55 1.50 -11.30 2.50 -11.30 0.20 0 0.55 -0.80 0.75 -1.75 0.45 -2.50 3.60 -7.10 7.05 -10.25 4.25 -3.90 6.60 -5.75 7.15 -5.70 0.30 0.05 0.85 0.10 1.25 0.15 1.45 0.10 0.75 1.50 -0.95 1.80 -1.40 0.30 -1.75 0.60 -2 1.85 -0.45 2.35 -0.40 2.40 1.45 2.40 1.65 0 1.75 -0.10 1.75 -1.75 0 -2.15 0.50 -2.20 1.70 -0.25 0.50 0.85 2.55 3.35 4.65 5.55 5.50 5.90 7.50 10.95 6 15.20 l-0.70 1.95 -0.30 -3.95 c-0.30 -3.95 -1.80 -9.60 -2.25 -8.35 -0.10 0.35 0.05 1.35 0.35 2.20 0.70 1.95 0.70 6.15 0 9.30 -0.55 2.65 -1.65 4.60 -2.25 4 -0.20 -0.20 -0.10 -0.65 0.20 -1 0.30 -0.35 0.85 -2.05 1.25 -3.75 0.60 -2.65 0.60 -3.50 0.05 -5.75 -0.40 -1.45 -0.70 -3.05 -0.70 -3.60 0 -1.95 -3.70 -7.25 -5.10 -7.30 -0.20 0 0.40 1.25 1.40 2.80 1 1.55 1.70 2.85 1.60 2.95 -0.10 0.15 -1.50 -0.80 -3.10 -2.05 l-2.90 -2.30 -1.05 1 c-0.60 0.55 -1.75 1.20 -2.60 1.40 l-1.45 0.35 1.90 -2.55 c2.30 -3.15 1.50 -3.35 -1.65 -0.50 -2.20 2 -5.95 7.40 -5.15 7.40 0.20 0 0 0.30 -0.45 0.65 -0.95 0.75 -2.45 3.50 -2.45 4.60 0 0.40 0.35 0.75 0.75 0.75 1.10 0 2.60 1.70 2.30 2.55 -0.40 0.90 -1.65 0.90 -2.40 -0.05 -0.35 -0.40 -0.65 -0.50 -0.65 -0.25 -0.05 0.75 -1.45 -1.90 -1.50 -2.80 0 -1.05 3.20 -7.60 5.15 -10.40 2.05 -3 5 -8.60 4.70 -8.90 -0.15 -0.15 -0.60 0.40 -1.05 1.20 -0.40 0.75 -1.75 2.65 -3 4.15 -1.95 2.35 -4.55 7.70 -5.50 11.25 -0.15 0.55 -0.15 -0.25 0 -1.75 0.30 -3.05 -0.30 -2.95 -1.20 0.25 -0.50 1.85 -0.75 4.70 -0.65 6.90 0.05 0.45 0.45 0.85 0.95 0.90 0.55 0.05 0.45 0.20 -0.40 0.45 -0.95 0.30 -0.60 0.40 1.40 0.40 1.45 -0.05 2.95 0.25 3.25 0.60 0.45 0.45 0 0.55 -2.30 0.40 -1.55 -0.05 -2.85 0 -2.85 0.25 0 0.20 0.35 0.35 0.75 0.35 0.35 0 0.90 0.35 1.15 0.80 0.65 1.15 0.15 2.80 -0.70 2.50 -0.40 -0.15 -0.70 -0.05 -0.70 0.20 0 0.55 -0.65 0.65 -1.15 0.15z m9.65 -26.65 c0 -0.75 -0.25 -0.60 -1.30 0.55 -0.95 1.10 -0.95 1.10 0.20 0.50 0.60 -0.30 1.10 -0.80 1.10 -1.05z"/>
  <path d="M15.50 21.90 c0 -0.35 0.20 -0.95 0.45 -1.30 0.35 -0.60 0.60 -0.60 1.50 -0.05 1.55 1 1.30 1.95 -0.45 1.95 -0.85 0 -1.50 -0.25 -1.50 -0.60z"/>
 </g>
 <g fill="#72703f">
  <path d="M21.25 38.05 c-0.20 -1.10 -0.65 -2.25 -1.05 -2.60 -0.40 -0.30 -0.70 -1.10 -0.70 -1.75 0 -0.65 -0.20 -1.20 -0.45 -1.20 -0.20 0 -0.40 -0.85 -0.35 -1.85 0.05 -1.85 0.10 -1.90 1.90 -1.90 1.70 0 1.90 0.15 1.90 1.20 0 0.70 -0.35 1.65 -0.85 2.15 -0.75 0.85 -0.75 0.90 0.25 0.90 0.65 0 1.10 0.30 1.10 0.75 0 0.40 -0.20 0.75 -0.45 0.75 -0.65 0 1 4.05 1.80 4.35 1.25 0.50 0.65 1.15 -1.05 1.15 -1.60 0 -1.75 -0.15 -2.05 -1.95z"/>
  <path d="M8.65 36.95 c-0.50 -0.80 -1.15 -1.45 -1.45 -1.45 -0.35 0 -0.75 -0.35 -0.90 -0.80 -0.15 -0.40 -0.10 -0.60 0.20 -0.45 0.30 0.15 0.50 0.05 0.50 -0.30 0 -0.35 0.50 -0.15 1.15 0.45 0.65 0.60 1.35 1.10 1.65 1.10 0.70 0.05 2.90 2 2.55 2.30 -0.15 0.15 -0.85 0.35 -1.55 0.40 -1 0.15 -1.55 -0.20 -2.15 -1.25z"/>
  <path d="M9.50 34.30 c-2 -1.25 -2.90 -1.60 -3.35 -1.20 -0.50 0.40 -0.65 0.30 -0.65 -0.30 0 -0.50 0.45 -0.80 1.40 -0.85 1.35 -0.10 1.35 -0.10 0.10 -0.30 -1.60 -0.30 -2 -0.95 -2 -3.30 0 -1.75 0.10 -1.90 1.15 -1.60 5.20 1.55 6.10 2.10 6.25 4.05 l0.10 1.40 -1.10 -1 c-1.10 -0.95 -2.70 -1.80 -4.50 -2.40 -0.60 -0.15 -0.90 0 -0.90 0.50 0 0.50 0.30 0.70 0.75 0.50 0.45 -0.15 0.95 0.15 1.25 0.70 0.30 0.55 0.95 1 1.40 1 1.45 0 2.65 1.15 2.90 2.90 0.15 0.85 0.20 1.60 0.10 1.60 -0.10 0 -1.40 -0.75 -2.90 -1.70z"/>
  <path d="M14.60 30.40 c-0.35 -0.35 -0.60 -1.15 -0.60 -1.80 0 -1.05 0.05 -1.10 1.05 -0.40 0.55 0.40 1.35 1.20 1.75 1.75 0.70 1 0.65 1.05 -0.40 1.05 -0.65 0 -1.45 -0.25 -1.80 -0.60z"/>
  <path d="M17 29.30 c0 -0.35 -0.50 -1.05 -1.10 -1.50 l-1.15 -0.80 1.50 0.10 c1.25 0.15 1.55 0.40 1.65 1.55 0.10 0.75 -0.05 1.35 -0.35 1.35 -0.30 0 -0.55 -0.30 -0.55 -0.70z"/>
  <path d="M10.75 27.05 c-1.05 -0.65 -1.70 -0.75 -2.10 -0.40 -0.45 0.35 -0.65 0.25 -0.65 -0.30 0 -0.40 -0.15 -1.45 -0.30 -2.30 -0.25 -1.20 -0.15 -1.55 0.45 -1.55 0.50 0 0.70 0.30 0.55 0.70 -0.20 0.50 0.10 0.80 0.90 0.90 0.85 0.10 1.15 0.45 1.10 1.30 0 0.75 0.25 1.10 0.90 1.10 0.50 0 0.90 0.35 0.90 0.75 0 0.90 0.15 0.90 -1.75 -0.20z"/>
  <path d="M13.75 23.95 c-0.25 -1.20 -0.15 -1.70 0.40 -2.05 0.45 -0.25 1.20 -0.80 1.65 -1.30 0.65 -0.60 0.95 -0.65 1.10 -0.20 0.10 0.30 0.50 0.60 0.90 0.60 0.40 0 0.70 0.50 0.70 1.25 0 1.05 -0.25 1.25 -1.50 1.25 -1.15 0 -1.50 0.20 -1.50 1 0 1.60 -1.40 1.15 -1.75 -0.55z"/>
  <path d="M22.50 23.50 c0 -0.65 0.25 -0.90 0.75 -0.70 0.40 0.20 0.75 0.10 0.75 -0.15 0 -0.20 0.45 -0.70 1.05 -1.05 0.80 -0.50 1.20 -0.50 1.75 -0.05 0.35 0.30 0.55 0.75 0.40 1 -0.15 0.25 0 0.40 0.35 0.35 0.35 -0.10 0.75 0.25 0.85 0.75 0.15 0.75 -0.25 0.85 -2.85 0.85 -2.70 0 -3.05 -0.10 -3.05 -1z"/>
  <path d="M24.75 18.50 c-0.20 -0.30 -0.55 -0.40 -0.80 -0.25 -0.25 0.20 -0.45 -0.25 -0.45 -0.95 0 -0.95 0.25 -1.30 1 -1.30 0.80 0 1 0.35 1 1.50 0 1.55 -0.20 1.85 -0.75 1z"/>
  <path d="M17 17.75 c0 -0.40 -0.35 -0.75 -0.75 -0.75 -0.40 0 -0.75 0.25 -0.75 0.50 0 0.30 -0.35 0.50 -0.75 0.50 -0.40 0 -0.75 -0.20 -0.75 -0.40 0 -0.55 2.50 -2.40 3.90 -2.80 0.90 -0.30 1.10 -0.20 1.10 0.65 0 0.60 -0.45 1.50 -1 2.05 -0.80 0.80 -1 0.85 -1 0.25z"/>
  <path d="M22.05 17.40 c-0.05 -0.80 0.20 -1.40 0.45 -1.40 0.60 0 0.60 0.40 0 1.75 -0.40 0.90 -0.45 0.85 -0.45 -0.35z"/>
 </g>
 <g fill="#585970">
  <path d="M6.80 35.20 c-1 -0.95 -1 -0.95 0.20 -1.05 0.70 -0.05 1 0.20 1 0.90 0 1.15 -0.20 1.20 -1.20 0.15z"/>
  <path d="M9.50 33.10 c0 -1.15 1.55 -1.15 2.70 0.05 0.80 0.80 0.75 0.85 -0.90 0.85 -1.40 0 -1.80 -0.20 -1.80 -0.90z"/>
  <path d="M5.30 32.75 c-0.15 -0.45 -0.30 -1.65 -0.30 -2.65 0.05 -1.65 0.10 -1.75 0.70 -0.95 0.35 0.45 1.05 0.85 1.50 0.85 0.55 0 0.80 0.45 0.80 1.55 0 1.10 -0.20 1.50 -0.70 1.30 -0.35 -0.15 -0.90 -0.05 -1.15 0.20 -0.35 0.35 -0.65 0.25 -0.85 -0.30z"/>
  <path d="M11.85 31.75 c-0.85 -1.20 -0.85 -1.25 0.15 -1.25 0.75 0 1 0.30 1 1.25 0 1.50 -0.05 1.50 -1.15 0z"/>
  <path d="M19 28.75 c0 -0.60 0.20 -0.65 1.25 -0.15 0.95 0.40 1.40 0.40 2 -0.10 0.60 -0.50 0.75 -0.50 0.75 0.20 0 0.60 -0.50 0.80 -2 0.80 -1.45 0 -2 -0.20 -2 -0.75z"/>
  <path d="M6.70 28.30 c-0.50 -1.25 -0.05 -1.40 1.85 -0.60 0.95 0.45 1.30 0.75 0.85 0.80 -0.45 0 -1.15 0.15 -1.60 0.30 -0.50 0.20 -0.90 0 -1.10 -0.50z"/>
  <path d="M19.90 27.30 c-1.35 -1 -1.10 -1.30 1.10 -1.30 1.50 0 2 0.20 2 0.80 0 0.40 -0.20 0.65 -0.45 0.45 -0.25 -0.15 -0.60 -0.05 -0.80 0.25 -0.40 0.65 -0.80 0.60 -1.85 -0.20z"/>
  <path d="M7.90 25.55 c-0.20 -1.45 -0.10 -1.55 1.05 -1.40 1 0.15 1.35 0.50 1.45 1.60 0.15 1.20 0.05 1.35 -0.50 0.85 -0.50 -0.40 -0.90 -0.40 -1.25 -0.05 -0.35 0.35 -0.60 0.05 -0.75 -1z"/>
  <path d="M27 24.75 c0 -0.40 -0.35 -0.75 -0.75 -0.75 -1.15 0 -0.90 -0.90 0.40 -1.15 l1.10 -0.20 -1.10 -0.40 c-0.65 -0.20 -1.15 -0.55 -1.15 -0.80 0 -0.75 0.65 -0.50 2.15 0.80 1.60 1.45 1.85 3.25 0.35 3.25 -0.55 0 -1 -0.35 -1 -0.75z"/>
  <path d="M13.50 22.85 c0 -0.35 0.50 -0.90 1.05 -1.30 0.90 -0.55 1.15 -0.55 1.55 0.05 0.35 0.50 0.55 0.50 0.75 0.05 0.40 -1 1.65 -0.75 1.65 0.35 0 0.65 0.25 0.90 0.75 0.70 0.40 -0.20 0.75 -0.05 0.75 0.25 0 0.35 -1.20 0.55 -3.25 0.55 -2.30 0 -3.25 -0.20 -3.25 -0.65z"/>
  <path d="M17.65 15.85 c-0.45 -0.75 1.40 -2 2.05 -1.35 0.75 0.75 1.20 0.60 1.45 -0.35 0.15 -0.50 0.25 -0.20 0.30 0.65 0.05 1.40 -0.10 1.50 -1.70 1.55 -0.95 0.05 -1.90 -0.20 -2.10 -0.50z"/>
  <path d="M17.50 13.30 c0 -0.50 0.40 -0.80 1.10 -0.80 0.60 0 0.95 0.05 0.85 0.15 -0.10 0.05 -0.60 0.45 -1.05 0.80 -0.75 0.60 -0.90 0.55 -0.90 -0.15z"/>
 </g>
 <g fill="#a65c29">
  <path d="M9.50 36.50 c0 -0.65 0.55 -0.65 1.50 0 0.60 0.40 0.55 0.50 -0.35 0.50 -0.65 0 -1.15 -0.20 -1.15 -0.50z"/>
  <path d="M20.50 35.50 c0 -1.40 -0.15 -1.50 -1.70 -1.50 -0.95 0 -1.90 -0.20 -2.05 -0.50 -0.60 -1 -1.75 -0.50 -1.75 0.75 0 0.90 -0.25 1.25 -1 1.25 -0.55 0 -1 0.20 -1 0.50 0 0.25 -0.80 0 -1.75 -0.55 -1.80 -1.10 -2.30 -1.95 -1.05 -1.95 0.40 0 0.85 -0.30 1 -0.60 0.25 -0.50 0.35 -0.50 0.60 0 0.15 0.30 0.50 0.60 0.80 0.60 0.30 0 0.20 -0.50 -0.25 -1.15 -0.60 -0.90 -0.60 -1.20 -0.05 -1.75 0.40 -0.35 0.75 -0.40 0.95 -0.10 0.15 0.30 0.65 0.50 1.10 0.50 0.60 0 0.65 -0.15 0.20 -0.70 -0.50 -0.55 -0.40 -0.75 0.30 -0.90 0.50 -0.15 1.60 0.40 2.60 1.30 1.30 1.20 1.50 1.30 1 0.45 -0.40 -0.65 -0.85 -1.15 -1.05 -1.15 -0.25 0 -0.40 -0.30 -0.40 -0.65 0 -0.35 -0.65 -1.15 -1.50 -1.75 -1.75 -1.30 -2.05 -3.10 -0.50 -3.10 0.80 0 1 0.35 1 1.50 0 1 0.25 1.50 0.75 1.50 0.45 0 0.75 -0.45 0.75 -1.25 0 -1.10 0.20 -1.25 2 -1.25 1.80 0 2 0.10 2 1.30 0 1.15 -0.15 1.25 -1.25 1 -1.55 -0.40 -1.65 0.35 -0.15 1.30 0.75 0.50 0.95 0.95 0.65 1.45 -0.60 0.90 -0.35 3.10 0.40 3.55 0.25 0.15 0.85 0.20 1.30 0.05 0.60 -0.20 0.65 -0.15 0.15 0.20 -0.45 0.35 -0.50 0.80 -0.15 1.80 0.50 1.25 0.40 1.35 -0.70 1.35 -1.05 0 -1.25 -0.25 -1.25 -1.50z"/>
  <path d="M22 30 c0 -0.80 0.25 -1.50 0.50 -1.50 0.30 0 0.50 0.35 0.50 0.75 0 1.35 0.85 0.80 1.30 -0.85 0.35 -1.15 0.85 -1.70 1.60 -1.80 0.90 -0.15 1.10 -0.50 1.10 -1.90 0 -1.85 1.20 -2.40 1.75 -0.75 0.30 1.05 -2.05 5.05 -3.05 5.05 -0.30 0 -0.85 0.35 -1.20 0.80 -0.40 0.40 -1.10 1 -1.60 1.25 -0.80 0.40 -0.90 0.30 -0.90 -1.05z"/>
  <path d="M5 27.20 c0.05 -1.65 0.15 -1.80 0.65 -1.15 0.35 0.40 1 0.90 1.50 1.10 0.45 0.15 0.85 0.65 0.85 1.10 0 0.85 -0.80 1 -1.25 0.25 -0.25 -0.40 -0.55 -0.35 -1.05 0.05 -0.60 0.45 -0.70 0.25 -0.70 -1.35z"/>
  <path d="M12.50 26.90 c0 -1 0.05 -1.05 1 -0.15 0.55 0.50 1 1 1 1.10 0 0.05 -0.45 0.15 -1 0.15 -0.70 0 -1 -0.35 -1 -1.10z"/>
  <path d="M13.85 23.65 c-0.70 -0.65 -0.30 -1.65 0.65 -1.65 0.65 0 1 0.35 1 1 0 0.95 -1 1.35 -1.65 0.65z"/>
  <path d="M20.60 18.95 c-0.35 -0.55 -0.50 -1.45 -0.35 -2 0.45 -1.35 -0.50 -1.20 -1.45 0.30 -0.90 1.40 -1.80 1.65 -1.80 0.55 0 -0.40 -0.30 -0.85 -0.60 -1 -0.45 -0.15 -0.40 -0.45 0.30 -1 0.50 -0.40 1.15 -0.65 1.35 -0.50 0.25 0.15 0.45 0 0.45 -0.30 0 -0.30 0.50 -0.40 1.25 -0.20 0.95 0.25 1.25 0.10 1.25 -0.50 0 -1.15 0.85 -1 1.55 0.25 0.40 0.80 0.40 1.60 -0.05 3.25 -0.70 2.45 -1 2.65 -1.90 1.15z"/>
  <path d="M24.25 18 c-0.65 -0.70 -0.75 -1.30 -0.50 -2.35 l0.40 -1.40 0.30 1.30 c0.25 1.15 0.55 1.30 1.90 1.20 1.60 -0.15 3.15 0.90 2.45 1.60 -0.20 0.20 -0.55 0.05 -0.85 -0.35 -0.40 -0.65 -0.55 -0.65 -1 0.15 -0.65 1.10 -1.60 1.10 -2.70 -0.15z"/>
  <path d="M14.55 17.55 c-0.50 -0.30 -0.50 -0.50 -0.05 -0.80 0.65 -0.40 1.20 -0.05 0.95 0.70 -0.15 0.30 -0.50 0.35 -0.90 0.10z"/>
  <path d="M23.20 11.95 c-0.15 -0.30 0.05 -0.90 0.50 -1.35 0.75 -0.75 0.80 -0.70 0.80 0.55 0 1.35 -0.65 1.80 -1.30 0.80z"/>
  <path d="M21.20 9.75 c0 -0.75 0.35 -1.25 0.80 -1.25 0.45 0 0.80 0.50 0.80 1.25 0.05 0.90 -0.15 1.25 -0.80 1.25 -0.65 0 -0.85 -0.35 -0.80 -1.25z"/>
 </g>
 <g fill="#a94c4f">
  <path d="M34.85 34.40 c0.65 -0.30 1.50 -1.40 2 -2.45 0.90 -2.15 1.45 -2.35 0.70 -0.30 -0.60 1.60 -2.30 3.35 -3.15 3.30 -0.35 0 -0.15 -0.25 0.45 -0.55z"/>
  <path d="M29.75 33.55 c-0.55 -0.25 -1.20 -0.30 -1.40 -0.20 -0.65 0.35 -4.40 -0.40 -4.10 -0.85 0.15 -0.20 2.30 -0.35 4.80 -0.30 4.45 0.05 4.60 0 5.70 -1.40 0.65 -0.80 1.40 -2.45 1.70 -3.60 0.70 -2.70 0.70 -7.05 0.05 -7.45 -0.25 -0.15 -0.50 -0.65 -0.50 -1.05 0 -1.20 -2.10 -5.20 -2.70 -5.20 -0.65 0 -7.55 -6.90 -8.95 -8.95 -0.45 -0.70 -0.95 -1.10 -1.15 -0.95 -0.50 0.55 1.40 3.60 4 6.30 2.95 3.05 3.30 3.65 4 6.35 0.75 2.95 0.65 10.60 -0.15 11.35 -0.50 0.55 -0.55 0.20 -0.25 -1.80 0.45 -3.30 0.45 -3.25 0 -5.55 -1.15 -6 -3.05 -9.55 -5.85 -11 -1.65 -0.90 -2.45 -0.65 -2.45 0.80 0 0.50 -0.35 0.95 -0.75 0.95 -0.40 0 -0.75 0.20 -0.75 0.45 0 0.50 -4.45 3.25 -4.75 2.95 -0.40 -0.40 4.35 -4.90 4.85 -4.60 0.30 0.20 0.45 0.05 0.30 -0.35 -0.50 -1.50 -2.30 -1 -4.85 1.35 -1.40 1.30 -2.55 2.55 -2.55 2.80 0 0.20 -0.55 1.25 -1.20 2.30 -0.60 1 -1.25 2.10 -1.35 2.35 -0.10 0.30 -0.35 0.45 -0.50 0.40 -0.50 -0.15 -2.55 4.80 -2.20 5.35 0.15 0.25 0.65 0.30 1.05 0.15 0.70 -0.25 0.75 -0.15 0.20 0.80 -0.70 1.40 -1.60 1.15 -2.25 -0.70 -0.35 -1.05 -0.35 -1.45 0.15 -1.60 0.30 -0.15 0.60 -0.60 0.60 -1.05 0 -0.95 3.20 -7.30 4.75 -9.35 1.75 -2.35 4.45 -7.70 4.05 -8.10 -0.20 -0.20 -0.50 -0.15 -0.70 0.15 -0.20 0.25 -1.30 1.20 -2.45 2.15 -2.30 1.75 -2.90 3 -1.05 2 1.15 -0.60 1.15 -0.60 0.20 0.45 -0.50 0.60 -1.90 2.90 -3.10 5.20 -1.30 2.40 -2.10 3.50 -1.90 2.65 0.30 -1.40 0.25 -1.45 -0.40 -0.50 -1.05 1.55 -1.80 4.25 -1.95 7 -0.10 3.60 0 4.25 0.65 4.15 0.30 -0.10 0.70 0.30 0.80 0.85 0.20 0.80 0.10 0.85 -0.50 0.35 -0.90 -0.75 -1.35 -0.35 -1.05 0.90 0.15 0.55 0.55 0.80 0.95 0.65 0.40 -0.15 0.70 0 0.70 0.25 0 0.30 -0.50 0.65 -1.15 0.75 l-1.10 0.20 1.15 0.10 c0.60 0 1.10 0.40 1.10 0.80 0 0.55 -0.30 0.60 -1.10 0.30 -1 -0.35 -1.15 -0.80 -1.30 -3.35 -0.20 -4.15 -0.55 -4.85 -1.40 -2.70 l-0.70 1.75 0.25 -2.25 c0.40 -3.05 1.95 -8 3.35 -10.60 1.80 -3.35 2.95 -4.90 3.40 -4.65 0.25 0.15 0.60 0 0.80 -0.30 0.20 -0.40 0.15 -0.45 -0.20 -0.25 -1.60 0.95 -0.30 -0.85 2.30 -3.25 5.65 -5.20 7.10 -6.15 9.05 -6.05 3 0.25 3.40 0.55 4.70 3.30 0.80 1.65 2.20 3.40 3.80 4.75 1.40 1.20 2.40 1.80 2.25 1.35 -1.10 -2.85 2.35 1.95 4.30 5.95 1 2.10 1.20 3.40 1.30 8 0.10 3.35 0 4.90 -0.25 4 -0.45 -1.65 -0.30 -1.75 -1.65 1.85 -1 2.70 -4.30 4.40 -6.65 3.45z"/>
  <path d="M33.35 23 c-0.20 -2.05 -0.70 -4.75 -1.10 -5.95 -1.25 -3.40 -0.55 -2.90 1.15 0.85 1.45 3.30 1.50 3.55 0.90 6.15 l-0.60 2.70 -0.35 -3.75z"/>
  <path d="M20.70 19.15 c-0.65 -1.15 -0.35 -2.65 0.60 -2.65 0.45 0 0.70 0.55 0.70 1.75 0 1.90 -0.45 2.25 -1.30 0.90z"/>
  <path d="M17 15.50 c1.35 -1.05 2.50 -1.30 2.50 -0.50 0 0.30 -0.05 0.50 -0.15 0.50 -0.05 0 -0.90 0.20 -1.85 0.50 l-1.75 0.50 1.25 -1z"/>
  <path d="M25.15 13.40 c-2.35 -1.60 -2.50 -1.95 -1.40 -2.90 0.60 -0.50 0.80 -0.45 1.05 0.30 0.20 0.55 0.90 1.55 1.60 2.30 1.80 1.95 1.25 2.05 -1.25 0.30z"/>
 </g>
 <g fill="#7e6366">
  <path d="M7.30 35.70 c-0.80 -0.55 -0.85 -0.85 -0.40 -1.30 0.75 -0.75 1.80 0.10 1.50 1.25 -0.15 0.70 -0.25 0.70 -1.10 0.05z"/>
  <path d="M6.65 32.70 c-1.95 -0.85 -2.15 -1.95 -0.40 -2.40 0.85 -0.20 1.55 0 2.25 0.70 0.85 0.85 0.85 1 0.20 1 -0.50 0 -0.70 0.30 -0.50 0.75 0.15 0.40 0.20 0.75 0.15 0.70 -0.05 0 -0.85 -0.35 -1.70 -0.75z"/>
  <path d="M8 29.20 l-1.25 -0.70 1.40 0 c0.85 0 1.35 0.25 1.35 0.75 0 0.40 -0.05 0.75 -0.10 0.70 -0.10 -0.05 -0.70 -0.35 -1.40 -0.75z"/>
  <path d="M21 29.60 c0 -0.20 0.45 -0.65 1 -1 0.90 -0.55 1 -0.50 1 0.40 0 0.65 -0.35 1 -1 1 -0.55 0 -1 -0.15 -1 -0.40z"/>
  <path d="M24 29.40 c0 -0.95 -1.55 -2.35 -2.30 -2.05 -0.40 0.15 -0.70 0 -0.70 -0.30 0 -0.30 0.80 -0.55 1.75 -0.55 1.65 0 1.75 0.10 1.75 1.75 0 0.95 -0.10 1.75 -0.25 1.75 -0.15 0 -0.25 -0.25 -0.25 -0.60z"/>
  <path d="M8.35 25.65 c-0.70 -0.70 -0.30 -1.60 0.65 -1.50 0.60 0.05 1 0.40 1 0.95 0 0.90 -1 1.20 -1.65 0.55z"/>
  <path d="M26.40 24.65 c-0.70 -1.15 -0.90 -1.20 -0.90 -0.45 0 0.85 -0.30 0.90 -2.60 0.60 -1.45 -0.15 -3.20 -0.30 -3.90 -0.30 -1.95 0 -2.70 -0.70 -2.30 -2.20 0.40 -1.60 1 -1.65 1.60 -0.25 0.45 1 0.55 1 1.30 0.25 1.05 -1 2.10 -1 2.95 0 0.45 0.55 1.35 0.75 3.05 0.65 2.65 -0.15 3.45 0.45 3.05 2.10 -0.35 1.35 -1.30 1.15 -2.25 -0.40z"/>
  <path d="M13.75 23.50 c-0.45 -0.75 0.20 -1.50 1.30 -1.50 0.60 0 0.95 0.35 0.95 1 0 1.05 -1.65 1.45 -2.25 0.50z"/>
  <path d="M25.40 21.40 c0.45 -0.45 0.75 -0.45 1.20 0 0.45 0.45 0.35 0.60 -0.60 0.60 -0.95 0 -1.05 -0.15 -0.60 -0.60z"/>
  <path d="M27.80 17.65 c-0.30 -0.75 -0.40 -0.75 -0.80 -0.15 -0.30 0.45 -0.50 0.50 -0.50 0.15 0 -0.95 1 -1.30 1.75 -0.65 0.85 0.70 1 1.50 0.30 1.50 -0.25 0 -0.60 -0.40 -0.75 -0.85z"/>
  <path d="M21 14.50 c0 -0.55 0.20 -1 0.50 -1 0.25 0 0.70 0.45 1 1 0.45 0.85 0.40 1 -0.50 1 -0.65 0 -1 -0.35 -1 -1z"/>
  <path d="M19.50 11.75 c0 -0.40 0.30 -0.75 0.70 -0.75 0.40 0 0.90 -0.45 1.05 -1 0.40 -1.30 1.25 -1.30 1.25 0 0 0.55 -0.35 1 -0.75 1 -0.45 0 -0.90 0.35 -1.05 0.75 -0.20 0.40 -0.50 0.75 -0.75 0.75 -0.25 0 -0.45 -0.35 -0.45 -0.75z"/>
 </g>
 <g fill="#9b7646">
  <path d="M14 39.60 c0 -0.25 -0.95 -0.75 -2.10 -1.10 -2.70 -0.80 -5.45 -3.10 -4.85 -4.05 0.30 -0.55 0.65 -0.45 1.55 0.40 1.60 1.45 3.10 2.15 4.60 2.15 1.10 0 1.30 0.20 1.30 1.50 0 0.85 -0.10 1.50 -0.25 1.50 -0.15 0 -0.25 -0.20 -0.25 -0.40z"/>
  <path d="M8.70 33.90 c-1.05 -0.75 -1.55 -1.50 -1.55 -2.40 l0 -1.35 1.85 1.30 c1.20 0.85 1.85 1.70 1.85 2.45 0.05 1.35 -0.15 1.35 -2.15 0z"/>
  <path d="M19.35 33.30 c-0.15 -0.35 -0.40 -1.70 -0.60 -2.95 -0.35 -2.10 -0.50 -2.30 -1.95 -2.45 -1.30 -0.10 -1.60 -0.40 -1.70 -1.50 -0.10 -0.80 -0.35 -1.40 -0.55 -1.40 -0.75 0 -1.05 -2.20 -0.40 -2.60 1 -0.65 1.35 -0.45 1.35 0.85 0 1.05 0.25 1.25 1.45 1.25 1.30 0 1.45 0.20 1.75 2.20 0.35 2.15 0.35 2.15 2.30 2.05 2.50 -0.15 3.10 1.35 1.20 2.90 -0.70 0.55 -1.15 1.30 -1 1.65 0.15 0.45 -0.10 0.70 -0.65 0.70 -0.50 0 -1.05 -0.30 -1.20 -0.70z m2.65 -2.80 c0 -0.25 -0.30 -0.50 -0.70 -0.50 -0.40 0 -0.90 0.25 -1.05 0.50 -0.15 0.30 0.15 0.50 0.70 0.50 0.60 0 1.05 -0.20 1.05 -0.50z"/>
  <path d="M8.40 29.30 c-2.20 -1.10 -2.45 -1.15 -2.90 -0.40 -0.35 0.65 -0.45 0.45 -0.50 -1 0 -1.05 0.25 -1.90 0.50 -1.90 0.30 0 0.50 0.35 0.50 0.80 0 0.40 0.20 0.65 0.40 0.50 0.50 -0.30 4.65 1.05 5.35 1.75 0.25 0.30 0.10 0.45 -0.45 0.45 -0.45 0 -0.70 0.25 -0.55 0.50 0.45 0.70 0.30 0.65 -2.35 -0.70z"/>
  <path d="M24 29.35 c0 -1.10 -1.50 -2.10 -2.95 -2 -0.70 0.10 -1 0 -0.65 -0.15 0.30 -0.15 0.60 -0.60 0.60 -1 0 -0.95 3.20 -0.95 4 0.05 0.35 0.40 1.05 0.75 1.60 0.75 1.20 0 0.85 0.60 -1.10 2 -1.15 0.80 -1.50 0.90 -1.50 0.35z"/>
  <path d="M12.75 28.50 c-0.60 -0.55 -1.80 -1.45 -2.75 -1.95 -1.95 -1 -2.30 -2.10 -0.75 -2.35 1.50 -0.20 4.90 2.85 4.65 4.25 l-0.15 1.10 -1 -1.05z"/>
  <path d="M26 23.95 c0 -0.75 0.25 -1 1.10 -0.85 1.70 0.25 1.85 1.90 0.20 1.90 -1 0 -1.30 -0.25 -1.30 -1.05z"/>
  <path d="M20.80 19.20 c-0.45 -1.10 -0.40 -1.20 0.60 -1.25 0.50 0 0.60 -0.15 0.25 -0.30 -0.90 -0.35 -0.85 -3.65 0.05 -3.65 1.05 0 1.25 1.10 0.65 3.65 -0.55 2.45 -1.05 2.90 -1.55 1.55z"/>
  <path d="M24.25 18 c-0.60 -0.65 -0.75 -1.35 -0.55 -2.25 0.40 -1.60 1.10 -1.60 1.50 0.05 0.30 1.05 0.55 1.25 1.40 1 1.15 -0.25 2.40 0.45 2.40 1.35 0 0.25 -0.40 0.15 -0.90 -0.30 -0.80 -0.75 -0.95 -0.75 -1.50 0.15 -0.75 1.25 -1.20 1.25 -2.35 0z"/>
  <path d="M16.25 16.50 c-0.15 -0.20 0.35 -0.75 1.05 -1.25 1.35 -0.90 2.90 -0.65 2.60 0.35 -0.25 0.70 -3.30 1.45 -3.65 0.90z"/>
 </g>
 <g fill="#57a16f">
  <path d="M9 37.25 c-0.30 -0.40 -0.50 -0.95 -0.40 -1.20 0.20 -0.60 3.40 0.70 3.40 1.45 0 0.75 -2.30 0.60 -3 -0.25z"/>
  <path d="M10.50 34.85 c-1.45 -0.70 -2.15 -3.20 -0.75 -2.65 0.45 0.15 1.15 0.30 1.50 0.30 0.85 0 1.35 1.40 0.85 2.25 -0.30 0.60 -0.60 0.60 -1.60 0.10z"/>
  <path d="M20.50 33.65 l0 -1.90 0.75 1.45 c0.95 1.80 0.95 2.30 0 2.30 -0.55 0 -0.75 -0.55 -0.75 -1.85z"/>
  <path d="M5 28.25 c0 -0.95 0.20 -1.75 0.50 -1.75 0.25 0 0.45 0.80 0.35 1.75 -0.15 2.25 -0.85 2.25 -0.85 0z"/>
  <path d="M8.80 29.20 c-0.20 -0.45 -0.20 -0.95 -0.05 -1.10 0.40 -0.45 2.90 0.60 3.15 1.30 0.30 0.95 -2.75 0.75 -3.10 -0.20z"/>
  <path d="M6.75 28.35 c-0.20 -0.50 -0.25 -1.05 -0.05 -1.20 0.50 -0.50 0.90 0.20 0.65 1.20 -0.20 0.85 -0.20 0.85 -0.60 0z"/>
  <path d="M10 26.45 c-2 -1.10 -2.25 -2.10 -0.60 -2.20 0.85 -0.05 1.10 0.20 1.10 1.10 0 0.70 0.30 1.15 0.75 1.15 0.40 0 0.75 0.25 0.75 0.50 0 0.60 0.10 0.65 -2 -0.55z"/>
  <path d="M16.55 16.80 c-0.50 -0.60 -0.40 -0.85 0.40 -1.25 1.40 -0.75 1.55 -0.70 1.55 0.70 0 1.40 -1.05 1.65 -1.95 0.55z"/>
  <path d="M21.50 10.25 c0 -0.40 0.25 -0.75 0.50 -0.75 0.30 0 0.50 0.35 0.50 0.75 0 0.40 -0.20 0.75 -0.50 0.75 -0.25 0 -0.50 -0.35 -0.50 -0.75z"/>
 </g>
 <g fill="#bc8435">
  <path d="M8.50 36.75 c-1.25 -1.35 -0.80 -1.60 1.25 -0.65 1.30 0.60 1.75 1.90 0.60 1.90 -0.40 0 -1.20 -0.55 -1.85 -1.25z"/>
  <path d="M11 35.10 c-0.40 -0.20 -1.65 -0.95 -2.75 -1.60 -1.10 -0.70 -2.20 -1.25 -2.50 -1.25 -0.25 0 -0.55 -1.30 -0.65 -2.85 -0.10 -1.95 0.05 -2.90 0.45 -2.90 0.35 0 0.45 0.45 0.25 1.20 -0.35 1.45 0.10 2.90 0.80 2.50 0.60 -0.35 2.40 1.25 2.40 2.15 0 0.40 0.60 0.65 1.50 0.65 1.25 0 1.50 0.20 1.50 1.25 0 0.70 -0.05 1.25 -0.10 1.20 -0.10 0 -0.50 -0.20 -0.90 -0.35z"/>
  <path d="M18.95 33.40 c-0.05 -0.35 -0.10 -0.85 -0.15 -1.15 -0.15 -1.05 -1.50 -3.05 -3.10 -4.55 -2 -1.85 -2.35 -4.20 -0.70 -4.20 0.55 0 1 0.35 1 0.75 0 0.50 0.50 0.75 1.50 0.75 0.85 0 1.50 0.25 1.50 0.50 0 0.30 0.35 0.50 0.75 0.50 0.40 0 0.75 0.40 0.70 0.90 0 0.50 -0.15 0.60 -0.30 0.25 -0.40 -1.10 -1.15 -0.70 -1.15 0.55 0 1.10 0.20 1.20 2 1.10 1.10 -0.10 2 0 2 0.25 0 0.20 0.10 0.70 0.25 1.05 0.20 0.45 -0.25 1 -1 1.40 -0.90 0.45 -1.25 1 -1.10 1.60 0.20 0.70 -0.05 0.90 -0.95 0.90 -0.65 0 -1.25 -0.30 -1.25 -0.60z m3.15 -3.30 c-0.95 -0.30 -2.20 0.30 -1.85 0.90 0.20 0.35 0.70 0.30 1.40 -0.10 0.70 -0.35 0.85 -0.65 0.45 -0.80z"/>
  <path d="M6.65 28.25 c-0.15 -0.45 -0.15 -0.90 -0.05 -1.05 0.45 -0.45 1.90 0.40 1.90 1.10 0 0.95 -1.45 0.90 -1.85 -0.05z"/>
  <path d="M12.50 26.70 c0 -0.70 0.15 -0.70 0.75 -0.20 0.40 0.35 0.75 0.70 0.75 0.80 0 0.10 -0.35 0.20 -0.75 0.20 -0.40 0 -0.75 -0.35 -0.75 -0.80z"/>
  <path d="M26.50 25.75 c0 -1.40 0.20 -1.75 1 -1.75 1.15 0 1.30 1.30 0.30 2.65 -1 1.25 -1.30 1.05 -1.30 -0.90z"/>
  <path d="M9.90 26.30 c-1.10 -0.80 -1.15 -1.60 -0.15 -2 0.85 -0.30 1.45 0.65 1.15 1.90 -0.10 0.60 -0.30 0.60 -1 0.10z"/>
  <path d="M16.70 17.30 c-0.45 -0.95 -0.40 -1.25 0.40 -1.75 0.70 -0.45 0.90 -0.40 0.90 0.20 0 0.40 0.25 0.75 0.50 0.75 0.30 0 0.25 0.40 -0.10 1 -0.80 1.30 -1.05 1.25 -1.70 -0.20z"/>
 </g>
 <g fill="#b76465">
  <path d="M27 33 c-4 -0.40 -3.50 -0.60 2 -0.70 2.35 0 4.55 -0.25 4.95 -0.50 0.35 -0.25 1.20 -1.60 1.85 -3 1.10 -2.35 1.20 -2.45 1.20 -1.05 0 1.70 -2.15 5.25 -3.20 5.25 -0.35 0 -1.30 0.10 -2.10 0.20 -0.80 0.10 -2.90 0 -4.70 -0.20z"/>
  <path d="M5 28.75 c0 -1.70 0.20 -2.75 0.55 -2.75 0.35 0 0.45 0.55 0.30 1.50 -0.40 1.85 0 3 0.95 2.65 0.40 -0.15 0.70 0.05 0.70 0.55 0 0.50 -0.45 0.80 -1.25 0.80 -1.20 0 -1.25 -0.15 -1.25 -2.75z"/>
  <path d="M29.80 29.40 c1.45 -2.75 1.50 -8.65 0.20 -12.70 -0.60 -1.90 -1.25 -3.65 -1.45 -3.95 -0.25 -0.25 -0.55 -0.95 -0.75 -1.45 -0.30 -0.80 -0.20 -0.85 0.50 -0.30 1.15 1 2.45 3.85 3.20 7.20 1 4.35 -0.40 12.80 -2.15 12.80 -0.20 0 0 -0.75 0.45 -1.60z"/>
  <path d="M21.90 30.15 c-0.75 -0.20 -1.30 -1.15 -0.70 -1.15 0.10 0 0.60 -0.15 1.10 -0.35 0.65 -0.25 0.80 -0.15 0.55 0.50 -0.15 0.40 -0.05 0.90 0.30 1.05 0.75 0.30 -0.10 0.25 -1.25 -0.05z"/>
  <path d="M24 29.10 c0 -0.50 -0.25 -1.15 -0.60 -1.50 -0.45 -0.45 -0.40 -0.60 0.25 -0.60 0.60 0 0.85 0.40 0.85 1.50 0 0.85 -0.10 1.50 -0.25 1.50 -0.15 0 -0.25 -0.40 -0.25 -0.90z"/>
  <path d="M38 27.80 c0 -0.70 -0.20 -1.35 -0.45 -1.55 -0.25 -0.15 -0.35 -1.05 -0.20 -2 0.50 -2.95 -1.80 -9.90 -3.85 -11.65 -0.65 -0.55 -0.60 -0.60 0.25 -0.50 0.65 0.10 1.60 1.25 2.70 3.40 1.50 2.90 1.70 3.80 1.95 8.40 0.10 2.80 0.10 5.10 -0.10 5.10 -0.15 0 -0.30 -0.55 -0.30 -1.20z"/>
  <path d="M15.90 27.95 c-0.50 -0.25 -0.90 -1.05 -0.90 -1.70 0 -1.10 0.25 -1.25 1.75 -1.25 1.65 0 1.75 0.10 1.75 1.75 0 1.85 -0.85 2.25 -2.60 1.20z"/>
  <path d="M9.35 25.65 c-0.55 -0.50 -0.40 -1 0.35 -1.30 0.40 -0.15 1.10 0.15 1.60 0.70 0.80 0.90 0.80 0.95 -0.40 0.95 -0.65 0 -1.40 -0.15 -1.55 -0.35z"/>
  <path d="M4.85 24.70 c-1.05 -1.70 0.95 -9.05 2.60 -9.60 0.45 -0.15 0.45 0.20 -0.15 1.25 -0.40 0.85 -0.90 2.70 -1.10 4.20 -0.40 3.20 -0.90 4.80 -1.35 4.15z"/>
  <path d="M20.50 23 c0 -0.55 0.35 -1 0.75 -1 0.45 0 1.25 0.45 1.85 1 l1.10 1 -1.85 0 c-1.50 0 -1.85 -0.20 -1.85 -1z"/>
  <path d="M33.65 21.40 c-0.50 -0.60 -1.25 -4.40 -0.90 -4.40 0.25 0 1.75 4.65 1.55 4.85 -0.10 0.10 -0.40 -0.10 -0.65 -0.45z"/>
  <path d="M9 20.65 c0 -0.75 3.25 -6.95 4.75 -9 0.85 -1.15 1.75 -2.05 2 -1.95 0.30 0.10 0.95 -0.05 1.50 -0.35 0.55 -0.25 -0.05 0.65 -1.35 2 -1.35 1.35 -2.40 2.65 -2.40 2.90 0 0.30 -0.80 1.50 -1.75 2.70 -0.95 1.20 -1.75 2.50 -1.75 2.85 0 0.35 -0.20 0.80 -0.50 0.95 -0.25 0.15 -0.50 0.15 -0.50 -0.10z"/>
  <path d="M20.50 16.80 c0 -1.35 1 -3.35 1.50 -3.05 0.25 0.15 0.50 1.10 0.50 2.05 0 1.35 -0.20 1.70 -1 1.70 -0.55 0 -1 -0.30 -1 -0.70z"/>
  <path d="M19 16.10 c0 -0.35 -0.40 -0.60 -0.85 -0.60 -0.85 -0.05 -0.85 -0.05 0 -0.55 1.25 -0.70 2.40 0.20 1.45 1.15 -0.45 0.45 -0.60 0.45 -0.60 0z"/>
  <path d="M9.50 13.75 c0 -0.95 2.20 -4.30 3.15 -4.80 l1.10 -0.60 -1.05 1.20 c-0.60 0.65 -1.45 1.95 -1.90 2.85 -0.75 1.45 -1.30 2.05 -1.30 1.35z"/>
  <path d="M17 13.70 c0 -0.45 2.75 -2.65 3.35 -2.70 1.15 0 0.10 1.35 -1.60 2.15 -0.95 0.45 -1.75 0.70 -1.75 0.55z"/>
  <path d="M23.85 12.65 c-0.20 -0.15 -0.35 -0.65 -0.35 -1.05 0 -0.60 0.15 -0.60 0.75 -0.10 0.40 0.35 0.75 0.80 0.75 1.05 0 0.55 -0.70 0.60 -1.15 0.10z"/>
  <path d="M29.70 9.90 c-1.05 -1.15 -1.50 -1.80 -0.95 -1.40 1.45 1 3.40 3.05 3.15 3.25 -0.10 0.15 -1.10 -0.70 -2.20 -1.85z"/>
  <path d="M18.20 3.40 c0.20 -1.55 1.40 -2.40 3.25 -2.35 1.65 0.10 1.70 0.10 0.30 0.30 -0.85 0.10 -2 0.80 -2.60 1.50 -0.70 0.85 -1.05 1.05 -0.95 0.55z"/>
 </g>
 <g fill="#9e8c63">
  <path d="M10.80 38.15 c-0.55 -0.15 -1.65 -0.90 -2.50 -1.70 -1.15 -1.05 -1.40 -1.55 -0.95 -2 0.40 -0.40 0.70 -0.30 1.10 0.50 0.30 0.55 1.45 1.30 2.55 1.60 2.90 0.90 2.70 2.35 -0.20 1.60z"/>
  <path d="M21 37.25 c0 -0.70 -0.20 -1.25 -0.50 -1.25 -0.25 0 -0.50 -0.80 -0.50 -1.75 0 -2.35 0.70 -2.20 1.95 0.50 1.30 2.80 1.35 3.75 0.05 3.75 -0.75 0 -1 -0.35 -1 -1.25z"/>
  <path d="M12 35.75 c-0.50 -0.60 -0.50 -0.75 0.20 -0.75 0.45 0 0.80 0.35 0.80 0.75 0 0.40 -0.10 0.75 -0.20 0.75 -0.10 0 -0.45 -0.35 -0.80 -0.75z"/>
  <path d="M7.85 32.95 c-1 -0.85 -1.85 -1.25 -1.85 -0.95 0 0.30 -0.20 0.40 -0.50 0.25 -0.25 -0.15 -0.50 -0.75 -0.50 -1.25 0 -1.50 2.70 -1.10 2.90 0.45 0.15 0.85 0.45 1.10 1.15 0.90 0.50 -0.15 1.05 -0.05 1.20 0.20 0.15 0.20 0.55 0.30 0.90 0.15 0.35 -0.10 0.90 0.25 1.25 0.80 0.55 0.95 0.50 1 -1.05 1 -1.10 0 -2.25 -0.50 -3.50 -1.55z"/>
  <path d="M12 31.75 c-0.50 -0.60 -0.50 -0.75 0.20 -0.75 0.45 0 0.80 0.35 0.80 0.75 0 0.40 -0.10 0.75 -0.20 0.75 -0.10 0 -0.45 -0.35 -0.80 -0.75z"/>
  <path d="M15.50 30.70 c0 -1.95 0.45 -1.90 2 0.30 l1.05 1.50 -1.50 0 c-1.45 0 -1.55 -0.15 -1.55 -1.80z"/>
  <path d="M18.20 30.75 c-0.95 -1.45 -0.90 -1.60 0.55 -1.75 1.85 -0.20 3 0 3.95 0.75 1 0.75 1 0.75 0 1.50 -1.55 1.15 -3.55 0.95 -4.50 -0.50z m3.60 0 c0.90 -0.70 0.85 -0.75 -0.60 -0.65 -1.10 0.05 -1.50 0.30 -1.35 0.75 0.35 0.85 0.75 0.80 1.95 -0.10z"/>
  <path d="M9.70 29.75 c-0.50 -0.40 -1.30 -0.75 -1.75 -0.75 -0.75 0 -1.75 -1.40 -1.30 -1.80 0.30 -0.35 4.90 1.65 5.70 2.45 0.80 0.80 0.80 0.85 -0.40 0.85 -0.70 0 -1.70 -0.35 -2.25 -0.75z"/>
  <path d="M13.15 28.95 c-0.85 -0.95 -2.15 -2.10 -2.85 -2.60 -0.70 -0.50 -1.30 -1.10 -1.30 -1.35 0 -1.10 2 -0.40 4 1.40 1.55 1.35 2.05 2.15 1.95 3.05 -0.20 1.15 -0.20 1.15 -1.80 -0.50z"/>
  <path d="M24 29.30 c0 -0.40 -0.15 -1.05 -0.30 -1.50 -0.20 -0.60 0 -0.80 0.75 -0.80 0.60 0 1.05 -0.30 1.05 -0.75 0 -0.45 0.50 -0.75 1.30 -0.75 1 0 1.25 0.20 1 0.80 -0.15 0.45 -0.30 0.85 -0.30 0.95 0 0.05 -0.80 0.75 -1.75 1.45 -1.25 1 -1.75 1.15 -1.75 0.60z"/>
  <path d="M5 27.30 c0 -0.40 0.25 -0.90 0.50 -1.05 0.30 -0.15 0.50 0.15 0.50 0.70 0 0.60 -0.20 1.05 -0.50 1.05 -0.25 0 -0.50 -0.30 -0.50 -0.70z"/>
  <path d="M15.50 22.50 c0 -0.25 0.35 -0.50 0.75 -0.50 0.40 0 0.75 -0.20 0.75 -0.50 0 -0.90 0.90 -0.50 1.15 0.50 0.20 0.85 0 1 -1.20 1 -0.80 0 -1.45 -0.20 -1.45 -0.50z"/>
  <path d="M24.55 17.80 c-0.35 -0.60 -0.55 -1.70 -0.40 -2.35 0.20 -1.10 0.20 -1.05 0.30 0.25 0.05 1.35 0.15 1.40 1.75 1.15 1.65 -0.25 2.80 0.30 2.80 1.40 0 0.25 -0.35 0.05 -0.75 -0.50 -0.75 -0.95 -0.75 -0.95 -1.55 0.15 -0.95 1.40 -1.40 1.40 -2.15 -0.10z"/>
  <path d="M21 15.55 c0 -1.75 0.75 -2.40 1.40 -1.25 0.60 1.10 0.20 2.70 -0.70 2.70 -0.45 0 -0.70 -0.55 -0.70 -1.45z"/>
 </g>
 <g fill="#837c95">
  <path d="M10 33.60 c0 -1.15 1.50 -1.15 2.65 0 0.80 0.85 0.75 0.90 -0.90 0.90 -1.35 0 -1.75 -0.20 -1.75 -0.90z"/>
  <path d="M12.25 32 c-0.90 -0.95 -0.85 -1 0.15 -1 0.75 0 1.10 0.30 1.10 1 0 0.55 -0.10 1 -0.15 1 -0.10 0 -0.60 -0.45 -1.10 -1z"/>
  <path d="M5.35 32.15 c-0.55 -0.50 -0.40 -2.15 0.15 -2.15 0.30 0 0.50 0.55 0.50 1.25 0 1.30 -0.10 1.45 -0.65 0.90z"/>
  <path d="M6.85 32.15 c-0.50 -0.45 -0.45 -2.15 0.05 -2.15 0.25 0 0.95 0.55 1.60 1.25 l1.15 1.25 -1.25 0 c-0.65 0 -1.40 -0.15 -1.55 -0.35z"/>
  <path d="M9 29.60 c0 -0.35 -0.50 -0.65 -1.10 -0.65 -0.95 -0.05 -1 -0.10 -0.20 -0.30 1 -0.25 2.20 0.60 1.65 1.20 -0.20 0.15 -0.35 0.05 -0.35 -0.25z"/>
  <path d="M5 27.90 c0 -0.80 0.25 -1.40 0.50 -1.40 0.65 0 0.65 1 0 2 -0.40 0.60 -0.50 0.45 -0.50 -0.60z"/>
  <path d="M18.50 26.65 c0 -1.05 0.25 -1.15 2.50 -1.15 2.05 0 2.50 0.15 2.50 0.90 0 1.05 -3 1.45 -3.60 0.45 -0.30 -0.45 -0.50 -0.40 -0.90 0.15 -0.40 0.60 -0.50 0.55 -0.50 -0.35z"/>
  <path d="M26.50 24.50 c0 -0.55 -0.35 -1 -0.75 -1 -0.40 0 -0.75 0.35 -0.75 0.75 0 0.50 -0.55 0.75 -1.75 0.75 -0.95 0 -1.75 -0.20 -1.75 -0.50 0 -0.25 -0.65 -0.50 -1.50 -0.50 -0.80 0 -1.50 -0.20 -1.50 -0.50 0 -0.25 -0.35 -0.50 -0.75 -0.50 -0.40 0 -0.75 0.25 -0.75 0.50 0 0.30 -0.70 0.50 -1.55 0.50 -1.20 0 -1.50 -0.20 -1.35 -0.85 0.10 -0.50 0.70 -1 1.40 -1.05 0.70 -0.10 1.55 -0.45 1.90 -0.70 0.45 -0.40 0.60 -0.30 0.60 0.25 0 1.15 0.80 1.45 1.95 0.75 0.80 -0.50 1.25 -0.45 2.30 0.10 0.75 0.40 2 0.65 2.80 0.60 0.80 -0.10 1.90 -0.05 2.45 0.15 1.35 0.40 1.35 2.25 0 2.25 -0.65 0 -1 -0.35 -1 -1z"/>
 </g>
 <g fill="#cd9451">
  <path d="M14 39.50 c0 -0.25 -0.90 -0.75 -2 -1.05 -1.10 -0.35 -2.40 -1.05 -2.85 -1.60 -0.90 -1 -0.85 -1 0.35 -0.65 0.70 0.20 1.95 0.50 2.75 0.60 3.50 0.55 3.75 0.70 3.75 1.95 0 0.90 -0.25 1.25 -1 1.25 -0.55 0 -1 -0.20 -1 -0.50z"/>
  <path d="M22.50 38.75 l0 -1.25 1 1 c0.55 0.55 1 1.10 1 1.25 0 0.15 -0.45 0.25 -1 0.25 -0.75 0 -1 -0.35 -1 -1.25z"/>
  <path d="M19 33.25 c0 -1.55 -1.20 -3.55 -3.05 -5.25 -0.95 -0.80 -1.55 -1.95 -1.75 -3.30 -0.25 -1.80 -0.20 -2.10 0.75 -2.35 0.80 -0.20 1.05 -0.05 1.05 0.65 0 0.70 0.55 0.95 2.40 1.20 1.30 0.20 2.75 0.45 3.25 0.60 0.60 0.20 0.85 0 0.85 -0.70 0 -0.85 0.35 -0.95 2.50 -0.90 3.10 0.10 3.90 0.80 3.10 2.55 -0.70 1.50 -1.60 1.65 -1.60 0.25 0 -0.65 -0.35 -1 -1 -1 -0.55 0 -1 0.25 -1 0.50 0 0.30 0.20 0.50 0.45 0.50 1.05 0 1.10 2 0.10 3.10 -1.05 1.10 -1.05 1.10 -1.05 0.05 0 -1.25 -1.15 -2.25 -2.35 -2.05 -0.50 0.05 -1.20 -0.05 -1.60 -0.30 -0.40 -0.25 -0.80 -0.15 -1.10 0.25 -0.85 1.40 -0.45 1.85 1.55 1.80 2.35 -0.05 2.75 0.80 0.55 1.15 -1.15 0.20 -1.40 0.40 -1.10 0.95 0.40 0.60 0.65 0.60 1.75 -0.10 1.45 -1 1.80 -1.05 1.80 -0.35 0 0.30 -0.35 0.50 -0.75 0.50 -0.40 0 -0.75 0.25 -0.75 0.50 0 0.30 -0.35 0.50 -0.75 0.50 -0.60 0 -0.65 0.20 -0.25 0.95 0.70 1.40 0.65 1.55 -0.75 1.55 -1 0 -1.25 -0.25 -1.25 -1.25z"/>
  <path d="M7.35 32.60 c-1.10 -1.20 -1.05 -1.60 0.15 -1.60 0.75 0 1 0.35 1 1.25 0 1.50 -0.10 1.50 -1.15 0.35z"/>
  <path d="M16 30.50 c0 -0.65 -0.35 -1 -0.90 -1 -1.20 0 -2.10 -0.95 -2.10 -2.20 0 -0.85 0.25 -0.75 1.80 0.75 2.30 2.20 3 3.45 1.95 3.45 -0.40 0 -0.75 -0.45 -0.75 -1z"/>
  <path d="M5.10 27.90 c0.05 -0.80 0.30 -1.40 0.50 -1.40 0.55 0 0.50 1.10 -0.10 2 -0.40 0.55 -0.45 0.45 -0.40 -0.60z"/>
  <path d="M6.80 28.20 c-0.20 -0.45 -0.20 -0.95 -0.05 -1.10 0.30 -0.30 1.75 0.90 1.75 1.45 0 0.80 -1.40 0.50 -1.70 -0.35z"/>
  <path d="M20.75 18.95 c-0.20 -0.30 -0.20 -1.50 0 -2.75 0.25 -1.90 0.40 -2.10 1.05 -1.50 0.75 0.80 0.85 1.85 0.40 3.70 -0.35 1.20 -0.95 1.45 -1.45 0.55z"/>
  <path d="M24.80 18.05 c-0.90 -0.95 -1.05 -2.05 -0.35 -2.05 0.30 0 0.65 0.25 0.85 0.55 0.15 0.30 0.75 0.45 1.25 0.30 0.75 -0.20 0.85 -0.10 0.45 0.65 -0.75 1.45 -1.30 1.55 -2.20 0.55z"/>
  <path d="M16.75 17.15 c-0.30 -0.85 1.25 -2.65 2.30 -2.65 1 0 0.95 1.20 -0.10 2.30 -1.35 1.45 -1.75 1.50 -2.20 0.35z"/>
 </g>
 <g fill="#c87c7d">
  <path d="M31.70 32.45 c2.40 -0.55 3.10 -1.10 4.35 -3.40 1 -1.80 1 -1.80 0.70 -0.30 -0.20 0.85 -0.90 2.10 -1.65 2.90 -1 1.05 -1.70 1.35 -3.30 1.30 l-2.05 -0.05 1.95 -0.45z"/>
  <path d="M29.70 29.85 c0.55 -0.75 1.05 -2.70 1.20 -4.60 0.10 -1.80 0.45 -3.25 0.65 -3.25 1 0 -0.70 7.60 -1.90 8.55 -0.70 0.60 -0.70 0.50 0.05 -0.70z"/>
  <path d="M18 29.55 c0 -0.55 -0.25 -1.05 -0.55 -1.05 -0.65 0 -1.60 -0.95 -2.35 -2.35 -0.85 -1.55 -0.80 -1.65 1.15 -1.65 1.70 0 1.80 0.05 1.65 1.65 -0.15 2.30 0.35 2.80 2.60 2.70 1.35 -0.10 2 0.10 2 0.50 0 0.35 -0.50 0.65 -1.10 0.65 -0.65 0 -1.65 0.15 -2.25 0.30 -0.95 0.25 -1.15 0.10 -1.15 -0.75z"/>
  <path d="M30.55 18.20 c-0.35 -1.60 -1 -3.60 -1.40 -4.35 -0.90 -1.80 -0.55 -2.30 0.45 -0.75 0.90 1.35 2.15 6.45 1.80 7.40 -0.10 0.35 -0.50 -0.65 -0.85 -2.30z"/>
  <path d="M5 19.55 c0 -0.70 1.40 -3.55 1.75 -3.55 0.25 0 -1.10 3.50 -1.50 3.95 -0.15 0.10 -0.25 -0.05 -0.25 -0.40z"/>
  <path d="M20.85 19.15 c-0.10 -0.25 -0.15 -1.05 -0.05 -1.90 0.05 -0.80 0.15 -1.80 0.15 -2.10 0.05 -0.35 0.40 -0.65 0.85 -0.65 0.65 0 0.75 0.40 0.50 2.15 -0.15 1.15 -0.25 2.25 -0.25 2.50 -0.05 0.20 -0.25 0.35 -0.50 0.35 -0.30 0 -0.60 -0.15 -0.70 -0.35z"/>
  <path d="M11.95 14.65 c0.50 -1.05 1.60 -2.45 2.35 -3.15 l1.35 -1.25 -1.15 2 c-2.10 3.55 -2.60 4.25 -3.05 4.25 -0.25 0 -0.05 -0.85 0.50 -1.85z"/>
 </g>
 <g fill="#bd9c80">
  <path d="M22.50 39.25 c0 -0.40 0.20 -0.75 0.45 -0.75 0.25 0 0.70 0.35 1.05 0.75 0.50 0.65 0.45 0.75 -0.45 0.75 -0.60 0 -1.05 -0.30 -1.05 -0.75z"/>
  <path d="M9.65 37.20 c-1.20 -0.70 -2.15 -1.55 -2.15 -1.95 0 -0.55 0.50 -0.40 1.80 0.50 2.10 1.40 4.25 1.75 3.20 0.50 -0.30 -0.40 -1.55 -1.30 -2.80 -2 -2.55 -1.50 -3.80 -3.25 -2.30 -3.25 0.50 0 1.10 0.20 1.35 0.45 0.95 0.90 4.35 2.60 4.65 2.30 0.40 -0.40 -2.95 -3.75 -3.75 -3.75 -0.35 0 -0.65 -0.20 -0.65 -0.50 0 -0.25 -0.45 -0.50 -0.95 -0.50 -0.50 0 -1.05 -0.35 -1.20 -0.75 -0.35 -0.80 0.40 -1.50 0.85 -0.80 0.15 0.20 0.95 0.55 1.75 0.70 0.80 0.20 2.30 1 3.30 1.90 0.95 0.85 1.90 1.45 2.05 1.30 0.50 -0.45 -1.90 -3.30 -3.65 -4.35 -1.55 -0.90 -2.25 -2.50 -1.15 -2.50 0.75 0 1.80 0.85 5.45 4.50 2.85 2.85 3.10 3.25 2.15 3.40 -0.60 0.10 -1.10 0.40 -1.10 0.65 0 0.25 -0.30 0.45 -0.70 0.45 -0.85 0 -1.30 1.05 -1.30 3 0 2.35 -1.75 2.60 -4.85 0.70z"/>
  <path d="M20.50 35.55 c0 -1.45 -0.35 -2.40 -1.25 -3.35 -0.70 -0.75 -1.25 -1.60 -1.25 -1.90 0 -0.30 -0.55 -1.15 -1.20 -1.85 -3 -3.25 -3.30 -5.40 -0.85 -6.30 1.45 -0.55 1.80 -0.55 2.25 0.15 0.50 0.65 0.80 0.70 1.95 0.15 1.95 -0.90 3.35 0.50 3.35 3.25 0 1.35 -0.15 1.80 -0.45 1.35 -0.30 -0.50 -0.65 -0.55 -1.45 -0.10 -0.85 0.45 -1.15 0.40 -1.60 -0.30 -0.40 -0.65 -0.65 -0.70 -0.80 -0.25 -0.40 0.85 -1.65 0.75 -2 -0.15 -0.40 -0.95 -1.20 -0.95 -1.20 0 0 0.40 0.35 0.75 0.75 0.75 0.40 0 0.95 0.45 1.25 1 0.40 0.75 1.05 1 2.50 1 1.10 0 2 0.25 2 0.50 0 0.30 -0.65 0.50 -1.50 0.50 -0.80 0 -1.50 0.10 -1.50 0.25 0 0.10 0.55 1.25 1.25 2.45 0.70 1.25 1.50 2.85 1.75 3.55 0.45 1.15 0.35 1.25 -0.75 1.25 -1.10 0 -1.25 -0.20 -1.25 -1.95z"/>
  <path d="M5.35 31.70 c-0.20 -0.20 -0.35 -0.70 -0.35 -1.15 0 -0.55 0.15 -0.60 0.55 -0.20 0.30 0.30 0.50 0.80 0.35 1.15 -0.10 0.30 -0.35 0.40 -0.55 0.20z"/>
  <path d="M5.15 27.50 c0.05 -0.55 0.25 -1 0.45 -1 0.55 0 0.50 1.40 -0.05 1.75 -0.30 0.15 -0.45 -0.20 -0.40 -0.75z"/>
  <path d="M26.50 24.75 c0 -1.80 0.50 -2.20 1.40 -1.10 0.70 0.85 0.20 2.85 -0.70 2.85 -0.45 0 -0.70 -0.60 -0.70 -1.75z"/>
  <path d="M21 17.75 c0 -1.20 0.25 -1.75 0.75 -1.75 0.50 0 0.70 0.35 0.55 1.15 -0.15 0.60 -0.25 1.40 -0.25 1.75 -0.10 1.45 -1.05 0.45 -1.05 -1.15z"/>
  <path d="M25 17.65 c0 -0.60 0.40 -0.90 1.25 -0.90 1.50 0 1.45 -0.05 0.45 0.95 -1 1.05 -1.70 1 -1.70 -0.05z"/>
  <path d="M16.75 16.50 c-0.35 -0.60 2.05 -2.20 2.70 -1.75 0.75 0.45 -0.50 2.25 -1.55 2.25 -0.45 0 -0.95 -0.20 -1.15 -0.50z"/>
 </g>
 <g fill="#dca86f">
  <path d="M14.50 39.50 c0 -0.25 -0.55 -0.60 -1.25 -0.80 -1.35 -0.35 -1.75 -1.70 -0.50 -1.70 1.20 0 0.85 -0.75 -0.60 -1.55 -2.55 -1.30 -5.05 -3.05 -5.35 -3.70 -0.35 -0.95 1.20 -0.60 1.95 0.40 0.35 0.45 1.20 0.85 1.95 0.85 0.70 0 1.30 0.25 1.30 0.50 0 0.30 0.35 0.50 0.80 0.50 0.45 0 0.70 -0.40 0.65 -0.85 -0.20 -2 0 -2.30 0.90 -1.60 0.75 0.65 0.80 0.55 0.45 -0.70 -0.30 -1.30 -0.20 -1.40 0.80 -1.25 0.90 0.10 1.20 0.50 1.30 1.80 0.10 1.20 -0.05 1.60 -0.60 1.60 -0.50 0 -0.80 0.45 -0.80 1.25 0 0.80 0.30 1.25 0.75 1.25 0.40 0 0.75 0.25 0.75 0.50 0 0.30 0.35 0.50 0.75 0.50 0.40 0 0.75 0.45 0.75 1 0 0.55 0.25 1 0.50 1 0.30 0 0.50 0.35 0.50 0.75 0 0.55 -0.60 0.75 -2.50 0.75 -1.35 0 -2.50 -0.20 -2.50 -0.50z"/>
  <path d="M22 38.75 c0 -1.55 0.50 -1.55 1.55 -0.10 0.80 1.10 0.80 1.15 -0.35 1.25 -0.95 0.05 -1.20 -0.15 -1.20 -1.15z"/>
  <path d="M8.15 36.15 c-0.35 -0.10 -0.65 -0.60 -0.65 -1.05 0 -0.70 0.05 -0.70 0.65 0 0.30 0.45 0.95 0.90 1.35 1.05 0.65 0.25 0.65 0.25 0 0.25 -0.40 0 -1.05 -0.10 -1.35 -0.25z"/>
  <path d="M18.70 32.70 c0.30 -0.85 -1.30 -4.40 -2.35 -5.05 -1.15 -0.75 -2.35 -3.10 -2 -4 0.60 -1.70 1.95 -2.15 2.30 -0.75 0.20 0.65 0.25 0.55 0.30 -0.25 0 -0.65 0.25 -1.15 0.55 -1.15 0.25 0 0.45 0.30 0.35 0.65 -0.10 0.65 0.70 0.75 6.40 0.95 3.40 0.15 3.50 0.20 3.65 1.50 0.20 1.50 -1.15 3.90 -2.20 3.90 -0.40 0 -0.70 0.25 -0.70 0.50 0 0.30 -0.25 0.50 -0.55 0.50 -0.25 0 -0.40 -0.20 -0.25 -0.45 0.15 -0.20 -0.15 -0.90 -0.70 -1.50 -0.75 -0.90 -1.10 -1 -1.95 -0.60 -0.80 0.45 -1.05 0.35 -1.30 -0.50 -0.35 -1 -0.35 -1 -1.35 -0.10 -0.95 0.85 -1 0.85 -1.65 -0.05 -0.40 -0.50 -0.95 -0.75 -1.25 -0.55 -0.60 0.40 0.95 2.30 1.60 1.95 0.20 -0.15 0.45 0.20 0.65 0.75 0.25 0.80 0.60 0.90 2.25 0.70 1.10 -0.15 2 -0.10 2 0.15 0 0.25 -0.60 0.50 -1.30 0.50 -1.60 0.10 -2 0.50 -1.35 1.30 0.25 0.35 0.65 1.05 0.80 1.55 0.25 0.65 0.05 0.85 -0.95 0.85 -1 0 -1.25 -0.20 -1 -0.80z"/>
  <path d="M6.95 28.20 c-0.60 -0.70 -0.55 -0.80 0.25 -0.65 0.55 0.10 1.05 0.50 1.20 0.85 0.25 0.85 -0.65 0.75 -1.45 -0.20z"/>
  <path d="M14 28.50 c0 -0.25 -1 -0.90 -2.25 -1.45 -1.30 -0.55 -2.25 -1.35 -2.25 -1.75 0 -1 0.20 -1 1.90 0.05 2 1.25 4.20 3.65 3.30 3.65 -0.40 0 -0.70 -0.20 -0.70 -0.50z"/>
  <path d="M21 16.70 c0 -2.50 0.10 -2.70 0.75 -2 0.55 0.55 0.70 1.30 0.45 2.75 -0.45 2.95 -1.20 2.50 -1.20 -0.75z"/>
  <path d="M24.65 17.75 c-0.75 -0.85 -0.85 -3.25 -0.15 -3.25 0.30 0 0.50 0.45 0.50 1 0 0.50 0.35 1.15 0.80 1.40 0.45 0.25 0.70 0.70 0.50 1.05 -0.45 0.70 -0.90 0.65 -1.65 -0.20z"/>
  <path d="M17.10 17.15 c-0.65 -1.20 0.10 -2.25 1.30 -1.80 0.50 0.20 0.65 0.10 0.40 -0.25 -0.20 -0.35 -0.15 -0.60 0.15 -0.60 1 0 0.95 0.85 -0.15 2.25 -1.15 1.40 -1.20 1.40 -1.70 0.40z"/>
 </g>
 <g fill="#d69695">
  <path d="M10.65 34.65 c-0.35 -0.10 -0.65 -0.65 -0.65 -1.20 0 -1.05 1.15 -0.80 2.70 0.65 0.95 0.90 0.95 0.90 -0.25 0.85 -0.65 0 -1.50 -0.15 -1.80 -0.30z"/>
  <path d="M16 31.75 c0 -2.10 0.30 -2.15 1.60 -0.45 0.55 0.70 1.10 1.15 1.25 1 0.35 -0.30 -1.30 -3.35 -2.50 -4.65 -1.20 -1.35 -0.90 -1.50 0.50 -0.25 1.65 1.45 2.65 3.25 2.65 4.70 0 1.25 -0.15 1.40 -1.75 1.40 -1.65 0 -1.75 -0.10 -1.75 -1.75z"/>
  <path d="M7.35 32.30 c-0.15 -0.40 -0.15 -0.80 0 -0.95 0.30 -0.35 2.15 0.75 2.15 1.25 0 0.70 -1.90 0.40 -2.15 -0.30z"/>
  <path d="M34.60 31.15 c0.70 -0.80 1.40 -1.85 1.60 -2.35 0.15 -0.50 0.45 -0.80 0.65 -0.65 0.40 0.45 -2.25 4.35 -2.95 4.35 -0.30 0 0 -0.60 0.70 -1.35z"/>
  <path d="M19.75 29.50 c-0.15 -0.25 0.15 -0.50 0.75 -0.50 0.60 0 0.90 0.25 0.75 0.50 -0.15 0.30 -0.50 0.50 -0.75 0.50 -0.25 0 -0.60 -0.20 -0.75 -0.50z"/>
  <path d="M17 25.75 c-0.70 -0.80 -0.50 -0.90 0.70 -0.45 0.45 0.15 0.80 0.50 0.80 0.75 0 0.70 -0.80 0.55 -1.50 -0.30z"/>
  <path d="M22 23.95 c0 -1.45 0.05 -1.50 1.10 -0.75 0.80 0.55 1.25 0.65 1.75 0.20 0.50 -0.40 0.65 -0.25 0.65 0.80 0 1.15 -0.20 1.30 -1.75 1.30 -1.60 0 -1.75 -0.10 -1.75 -1.55z"/>
  <path d="M14.50 23.75 c0.35 -0.40 0.45 -0.75 0.20 -0.75 -0.65 -0.05 0.80 -0.80 2.30 -1.25 0.70 -0.20 1.10 -0.20 0.90 0 -0.20 0.25 -0.15 0.70 0.15 1.10 0.45 0.50 0.35 0.65 -0.50 0.65 -0.55 0 -1.05 0.25 -1.05 0.50 0 0.30 -0.60 0.50 -1.30 0.50 -1.10 0 -1.25 -0.10 -0.70 -0.75z"/>
  <path d="M17.10 16.15 c0.10 -0.50 0.50 -0.85 0.90 -0.75 0.35 0.10 0.85 -0.15 1.05 -0.50 0.35 -0.50 0.45 -0.50 0.45 0.15 0 0.95 -0.95 1.95 -1.90 1.95 -0.40 0 -0.60 -0.35 -0.50 -0.85z"/>
  <path d="M29.60 14.40 c-0.50 -1.50 -0.50 -1.55 0.15 -0.70 0.65 0.85 1.05 2.30 0.60 2.30 -0.05 0 -0.40 -0.75 -0.75 -1.60z"/>
  <path d="M12 15.35 c0 -0.80 1.45 -3.20 2.35 -3.90 0.80 -0.65 0.80 -0.60 -0.05 0.80 -1.65 2.60 -2.30 3.50 -2.30 3.10z"/>
  <path d="M21.10 14.70 c0.20 -1.05 1.10 -1.15 1.30 -0.05 0.10 0.50 -0.15 0.85 -0.65 0.85 -0.50 0 -0.75 -0.30 -0.65 -0.80z"/>
 </g>
 <g fill="#bcb29f">
  <path d="M21.50 38.50 c0 -1 0.25 -1.50 0.75 -1.50 0.40 0 0.75 0.15 0.75 0.40 0 0.20 0.15 0.85 0.30 1.50 0.25 0.90 0.10 1.10 -0.75 1.10 -0.85 0 -1.05 -0.30 -1.05 -1.50z"/>
  <path d="M10.75 37.75 c-1.65 -0.75 -3.25 -1.95 -3.25 -2.40 0 -0.15 0.90 0.15 2 0.70 1.05 0.50 2.20 0.95 2.50 0.95 0.25 0 0.50 0.35 0.50 0.75 0 0.90 0.10 0.90 -1.75 0z"/>
  <path d="M19.50 34.25 c0 -1 -0.25 -1.25 -1.25 -1.25 -0.70 0 -1.25 -0.20 -1.25 -0.50 0 -0.25 -0.45 -0.50 -1.05 -0.50 -0.55 0 -0.90 -0.20 -0.75 -0.45 0.35 -0.55 -3 -4.40 -4.20 -4.80 -0.60 -0.20 -1 -0.75 -1 -1.40 0.05 -1 0.10 -1.05 0.70 -0.20 0.35 0.45 0.95 0.85 1.30 0.85 0.55 0 3.80 3.10 5.95 5.75 1.10 1.40 1.15 0.45 0.05 -1.70 -0.55 -1.15 -0.85 -2.05 -0.65 -2.05 0.40 0 4.65 6.55 4.65 7.20 0 0.15 -0.55 0.30 -1.25 0.30 -1 0 -1.25 -0.25 -1.25 -1.25z"/>
  <path d="M9 33.60 c-1.80 -1.45 -1.10 -2.30 0.95 -1.20 0.95 0.50 1.85 1.20 1.95 1.50 0.30 0.90 -1.65 0.70 -2.90 -0.30z"/>
  <path d="M9.65 29.70 c-0.90 -0.45 -1.65 -1 -1.65 -1.25 0 -0.90 2 -0.40 3.35 0.80 1.65 1.45 0.75 1.65 -1.70 0.45z"/>
  <path d="M20.15 26.70 c-0.35 -0.95 0.10 -1.40 1.10 -1.05 0.95 0.40 0.95 1.15 0 1.55 -0.45 0.15 -0.90 -0.05 -1.10 -0.50z"/>
  <path d="M21.45 24.90 c-0.25 -0.50 -0.95 -0.90 -1.45 -0.90 -1.25 0 -1.30 -0.75 -0.10 -1.30 1.15 -0.50 2.15 -0.30 3.20 0.65 0.45 0.40 1.10 0.60 1.35 0.40 0.30 -0.15 0.55 0.10 0.55 0.65 0 1.40 -2.85 1.80 -3.55 0.50z"/>
  <path d="M14.95 23.05 c0.70 -1.30 2.30 -1.60 2.95 -0.55 0.70 1.15 0.30 1.50 -1.75 1.50 -1.50 0 -1.65 -0.10 -1.20 -0.95z"/>
  <path d="M24.80 17.20 c-0.20 -0.70 -0.25 -1.45 -0.05 -1.60 0.15 -0.15 0.25 0.10 0.25 0.55 0 0.50 0.35 0.85 0.80 0.85 0.45 0 0.70 0.25 0.60 0.60 -0.40 1.15 -1.30 0.95 -1.60 -0.40z"/>
 </g>
 <g fill="#e5b98e">
  <path d="M14.35 39.35 c-0.15 -0.40 -1.05 -0.85 -2.05 -1.05 -1 -0.20 -2.40 -0.90 -3.15 -1.55 -1.30 -1.10 -1.30 -1.20 -0.25 -0.90 0.60 0.15 1.10 0.45 1.10 0.70 0 0.25 0.80 0.45 1.75 0.45 0.95 0 1.75 -0.20 1.75 -0.40 0 -0.25 -1.35 -1.15 -3 -2.10 -2.75 -1.55 -4.20 -3 -2.95 -3 0.25 0 1.70 0.65 3.20 1.50 2.95 1.65 3.80 1.35 2.20 -0.70 -1.40 -1.75 -1 -2.65 0.60 -1.35 1.70 1.35 2.20 0.80 0.90 -1.05 -0.55 -0.75 -0.95 -1.65 -0.85 -1.95 0.20 -0.55 1.25 0.40 3.55 3 1.85 2.10 2.35 1.60 0.90 -0.95 -1.15 -2.10 -0.80 -2.80 0.45 -0.85 1.40 2.15 4.50 8.45 4.50 9.10 0 1.05 -0.85 1.35 -4.75 1.60 -2.85 0.20 -3.65 0.10 -3.90 -0.50z"/>
  <path d="M20 29.50 c0 -0.25 0.60 -0.50 1.40 -0.45 1.20 0 1.25 0.05 0.35 0.45 -1.35 0.60 -1.75 0.60 -1.75 0z"/>
  <path d="M8.15 28.95 c-0.65 -0.25 -1.15 -0.65 -1.15 -0.95 0 -0.50 1.80 -0.25 2.45 0.30 0.60 0.50 -0.35 1 -1.30 0.65z"/>
  <path d="M24.90 27.65 c-0.75 -0.10 -1.95 -0.90 -2.65 -1.75 -0.70 -0.85 -1.40 -1.40 -1.55 -1.30 -0.10 0.15 0.10 0.55 0.55 0.90 1.05 0.85 0.95 1.50 -0.25 1.50 -0.55 0 -1 -0.35 -1 -0.75 0 -0.65 -0.15 -0.65 -0.95 -0.15 -0.85 0.50 -1.20 0.45 -2.10 -0.35 -0.80 -0.70 -1.15 -0.80 -1.30 -0.40 -0.20 0.50 -0.40 0.45 -0.95 -0.10 -1.55 -1.55 1.65 -4 3.30 -2.50 0.50 0.45 1 0.55 1.50 0.25 1.15 -0.75 2.60 -0.60 3.25 0.35 0.55 0.75 0.80 0.80 1.90 0.20 1.55 -0.80 3.35 -0.30 3.35 0.95 0 1.10 -1.05 3.55 -1.45 3.45 -0.15 -0.05 -0.90 -0.20 -1.65 -0.30z"/>
  <path d="M10.65 26.65 c-0.75 -0.30 -0.85 -1.65 -0.15 -1.65 0.30 0 0.50 0.25 0.50 0.50 0 0.30 0.35 0.50 0.75 0.50 0.40 0 0.75 0.25 0.75 0.50 0 0.50 -0.80 0.60 -1.85 0.15z"/>
  <path d="M21 16.50 c0 -2 0.15 -2.50 0.80 -2.50 0.70 0 0.75 0.35 0.50 1.90 -0.15 1 -0.30 2.15 -0.30 2.50 0 0.30 -0.20 0.60 -0.50 0.60 -0.25 0 -0.50 -1.10 -0.50 -2.50z"/>
  <path d="M25 17.75 c0 -0.40 -0.20 -0.75 -0.50 -0.75 -0.25 0 -0.50 -0.45 -0.50 -0.95 0 -0.55 0.25 -1.15 0.50 -1.30 0.30 -0.15 0.50 0.25 0.50 0.90 0 0.70 0.35 1.40 0.80 1.55 0.40 0.15 0.60 0.50 0.45 0.80 -0.45 0.75 -1.25 0.60 -1.25 -0.25z"/>
  <path d="M17 16.55 c0 -0.60 0.45 -1 1.25 -1.15 1.50 -0.30 1.60 0.15 0.35 1.25 -1.20 1.10 -1.60 1.05 -1.60 -0.10z"/>
 </g>
 <g fill="#e6c7a7">
  <path d="M15.10 39.25 c-0.35 -0.40 -1.10 -0.75 -1.65 -0.75 -1.10 0 -4.70 -1.70 -5.15 -2.45 -0.15 -0.25 0.15 -0.35 0.70 -0.20 0.55 0.15 1 0.45 1 0.70 0 0.25 0.70 0.45 1.50 0.45 0.85 0 1.50 -0.20 1.50 -0.45 0 -0.55 -2.65 -2.55 -3.35 -2.55 -0.65 0 -2.40 -1.95 -2.05 -2.30 0.30 -0.30 4.25 1.70 4.70 2.35 0.40 0.70 1.70 0.55 1.70 -0.20 0 -0.90 -2.85 -3.45 -5.10 -4.60 -2.10 -1.05 -2.55 -2 -0.75 -1.45 1.95 0.60 3.65 1.60 4.90 2.90 1.15 1.25 2.45 1.70 2.45 0.90 0 -0.75 -3.50 -4.55 -4.50 -4.85 -0.55 -0.20 -1 -0.60 -1 -1 0 -1.30 2.85 0.65 6 4.10 1.65 1.80 3.10 3.20 3.25 3.10 0.10 -0.15 -0.30 -1.30 -0.95 -2.60 -1.80 -3.55 -0.80 -2.85 1.45 1.05 2.15 3.60 3.85 7.85 3.35 8.30 -0.40 0.45 -4.10 0.35 -4.10 -0.10 0 -0.20 -0.70 -1.25 -1.60 -2.30 -1.55 -1.90 -1.60 -1.90 -2 -0.80 -0.30 0.90 -0.20 1.30 0.60 1.85 0.55 0.40 1 0.90 1 1.20 0 0.70 -1.15 0.50 -1.90 -0.30z m5.05 -2.60 c-0.85 -1.40 -2.60 -3.10 -3.20 -3.15 -0.20 0 0.45 0.80 1.35 1.80 0.95 0.95 1.70 2 1.70 2.25 0 0.25 0.25 0.45 0.50 0.45 0.30 0 0.15 -0.60 -0.35 -1.35z"/>
  <path d="M25 27.15 c-0.70 -0.10 -1.85 -0.90 -2.60 -1.75 -1.45 -1.65 -2.55 -1.55 -1.50 0.10 0.80 1.30 0.75 1.50 -0.20 1.50 -0.50 0 -0.70 -0.30 -0.50 -0.75 0.35 -0.90 -0.75 -1 -1.65 -0.10 -0.50 0.50 -0.75 0.45 -1.25 -0.25 -0.35 -0.50 -1.15 -0.90 -1.80 -0.90 -0.80 0 -1 -0.20 -0.80 -0.80 0.15 -0.45 0.30 -0.95 0.30 -1.20 0 -0.80 2.25 -1 2.80 -0.25 0.45 0.60 0.80 0.60 2.10 0.15 1.30 -0.50 1.70 -0.45 2.50 0.25 1 0.95 2.60 1.15 2.60 0.35 0 -0.70 1.10 -0.60 2.20 0.25 0.80 0.60 0.85 0.85 0.25 2.20 -0.40 0.85 -0.80 1.50 -0.95 1.50 -0.15 -0.05 -0.80 -0.20 -1.50 -0.30z m1.85 -1.95 c-0.45 -0.45 -1.40 0.30 -1.05 0.90 0.20 0.30 0.50 0.30 0.85 -0.05 0.30 -0.30 0.40 -0.65 0.20 -0.85z"/>
  <path d="M21.15 16.25 c0.10 -2.10 0.45 -2.75 1.05 -1.85 0.40 0.65 -0.25 4.10 -0.75 4.10 -0.20 0 -0.35 -1 -0.30 -2.25z"/>
  <path d="M17 16.25 c0 -0.40 0.35 -0.75 0.75 -0.75 0.40 0 0.75 0.35 0.75 0.75 0 0.40 -0.35 0.75 -0.75 0.75 -0.40 0 -0.75 -0.35 -0.75 -0.75z"/>
  <path d="M24 16.05 c0 -0.60 0.25 -1.05 0.50 -1.05 0.30 0 0.50 0.30 0.50 0.70 0 0.40 -0.20 0.90 -0.50 1.05 -0.25 0.15 -0.50 -0.15 -0.50 -0.70z"/>
 </g>
 <g fill="#f4ddc1">
  <path d="M18.60 38.50 c-0.75 -0.95 -1.45 -1.35 -2 -1.20 -0.70 0.25 -0.70 0.20 -0.15 -0.20 0.60 -0.45 0.60 -0.65 0.10 -1.30 -1 -1.15 -1.40 -1 -1.65 0.70 -0.15 0.95 0 1.55 0.50 1.75 0.40 0.15 0.60 0.40 0.45 0.60 -0.20 0.15 -0.65 0 -1.10 -0.35 -0.40 -0.35 -1.55 -0.70 -2.55 -0.75 -0.95 -0.05 -2 -0.35 -2.35 -0.70 -0.45 -0.50 -0.30 -0.50 0.80 -0.10 3.70 1.40 3.70 0.30 0.05 -2.65 -3.05 -2.55 -3.05 -2.95 0.05 -1.05 3.95 2.40 4.45 0.95 0.90 -2.50 -2.80 -2.65 -2.45 -3 0.55 -0.50 1.20 0.95 2.40 1.75 2.75 1.75 0.70 0 0.70 -1.15 -0.05 -1.90 -0.30 -0.30 -0.45 -0.75 -0.25 -0.90 0.45 -0.45 2.35 1.25 2.35 2.10 0 0.70 1.90 1.95 2.35 1.55 0.10 -0.15 -0.15 -0.95 -0.60 -1.85 -0.45 -0.90 -0.70 -1.70 -0.55 -1.85 0.15 -0.15 0.50 0.30 0.75 1 0.30 0.70 1.10 2.25 1.85 3.40 0.70 1.15 1.50 2.70 1.70 3.40 0.20 0.70 0.55 1.70 0.75 2.20 0.25 0.65 0.10 0.85 -0.65 0.85 -0.55 0 -1.15 -0.30 -1.25 -0.60 -0.20 -0.50 -0.30 -0.50 -0.30 0 -0.10 1.05 -1.25 0.60 -2.45 -0.90z m2.40 -0.85 c0 -0.60 -2.55 -3.65 -3.55 -4.20 -1.75 -0.90 -1.55 -0.20 0.70 2.15 2 2.20 2.85 2.80 2.85 2.05z"/>
  <path d="M12.05 27.20 c-1.35 -0.95 -1.50 -1.20 -0.70 -1.20 0.55 0 1.50 0.55 2.15 1.25 1.45 1.55 0.80 1.55 -1.45 -0.05z"/>
  <path d="M22.25 24.90 c-1.10 -1.40 -1.35 -1.55 -1.90 -0.90 -1.50 1.85 -2.15 2.05 -3.80 1.20 -1 -0.50 -1.55 -1.10 -1.45 -1.65 0.20 -1.10 2.05 -1.30 2.90 -0.30 0.60 0.70 0.75 0.70 1.55 -0.05 0.90 -0.80 1.05 -0.80 2.70 0.10 1.45 0.75 1.95 0.80 2.70 0.35 0.75 -0.50 1.10 -0.45 1.50 0.05 0.40 0.45 0.15 0.90 -0.95 1.70 -0.80 0.60 -1.55 1.10 -1.70 1.10 -0.10 0 -0.80 -0.75 -1.55 -1.60z"/>
  <path d="M21.40 15.95 c0.15 -1.20 0.40 -1.85 0.65 -1.60 0.50 0.50 0.05 3.65 -0.50 3.65 -0.20 0 -0.25 -0.90 -0.15 -2.05z"/>
 </g>
</svg>