<?xml version="1.0" encoding="utf-8"?>
<!DOCTYPE svg PUBLIC "-//W3C//DTD SVG 1.0//EN" "http://www.w3.org/TR/2001/REC-SVG-20010904/DTD/svg10.dtd">
<svg version="1.0" xmlns="http://www.w3.org/2000/svg" width="40px" height="40px" viewBox="0 0 40 40" preserveAspectRatio="xMidYMid meet">
 <g fill="#090d2b">
  <path d="M27.50 39.65 c0 -0.55 3.20 -5.10 3.65 -5.15 0.20 0 0.35 0.80 0.35 1.75 0 1.40 -0.20 1.75 -1 1.75 -0.65 0 -1 0.35 -1 1 0 0.65 -0.35 1 -1 1 -0.55 0 -1 -0.15 -1 -0.35z"/>
  <path d="M37.50 39.50 c0 -0.25 -0.35 -0.50 -0.75 -0.50 -0.35 0 -0.90 -0.30 -1.10 -0.65 -0.20 -0.40 -0.80 -0.80 -1.25 -1 -0.65 -0.20 -0.90 -0.85 -0.90 -2.10 0 -1.60 0.10 -1.75 1.50 -1.75 1 0 1.50 -0.25 1.50 -0.75 0 -0.50 0.55 -0.75 1.75 -0.75 l1.75 0 0 4 c0 3.95 0 4 -1.25 4 -0.70 0 -1.25 -0.20 -1.25 -0.50z"/>
  <path d="M24.50 34.55 c0 -0.55 0.15 -1.05 0.40 -1.15 0.20 -0.05 0.75 -0.90 1.30 -1.85 l0.90 -1.65 -1.10 0.35 c-0.95 0.30 -1.05 0.20 -0.90 -0.85 0.10 -0.95 0.50 -1.20 2.05 -1.30 l1.85 -0.15 0 2.35 c0 1.90 -0.25 2.70 -1.35 3.80 -1.55 1.65 -3.15 1.85 -3.15 0.45z"/>
  <path d="M32.85 31.65 c-0.20 -0.15 -0.35 -1.10 -0.35 -2 0 -1.65 0.05 -1.70 1.90 -1.55 1.75 0.15 1.85 0.25 2 2.05 0.15 1.80 0.10 1.85 -1.55 1.85 -0.90 0 -1.85 -0.15 -2 -0.35z"/>
  <path d="M12 27.25 c0 -1.65 -0.10 -1.75 -1.75 -1.75 -1.65 0 -1.75 -0.10 -1.75 -1.75 0 -1.65 0.10 -1.75 1.75 -1.75 1.65 0 1.75 0.10 1.75 1.75 0 1.65 0.10 1.75 1.75 1.75 1.55 0 1.75 -0.15 1.75 -1.25 0 -1.05 -0.25 -1.25 -1.50 -1.25 -1.15 0 -1.50 -0.20 -1.50 -1 0 -0.55 -0.35 -1 -0.75 -1 -1.05 0 -1 -3.20 0.05 -4.20 0.40 -0.45 1.55 -0.80 2.45 -0.80 l1.70 0 0.15 3.40 0.15 3.35 0.45 -2.60 0.45 -2.65 1.90 0 c1.75 0 1.95 0.15 1.95 1.25 0 0.80 0.30 1.25 0.75 1.25 1.25 0 0.85 1.35 -0.50 1.70 -0.70 0.20 -1.50 0.20 -1.70 0.10 -0.70 -0.45 -2.15 1.60 -2.15 2.95 0 0.90 -0.30 1.25 -0.95 1.25 -0.65 0 -0.95 0.35 -0.95 1.05 0 0.80 -0.25 1 -1 0.80 -0.65 -0.15 -1 0 -1 0.45 0 0.40 -0.35 0.70 -0.75 0.70 -0.50 0 -0.75 -0.55 -0.75 -1.75z"/>
  <path d="M34.10 26.30 c2.05 -1.80 3.05 -4.15 2.75 -6.45 -0.25 -1.65 -0.10 -2 0.70 -2.20 1.20 -0.35 1.25 -2.15 0.05 -2.15 -0.50 0 -1.15 -0.25 -1.40 -0.50 -0.30 -0.30 -1.25 -0.60 -2.10 -0.65 -1.50 -0.10 -1.60 -0.25 -1.60 -1.95 0 -1.85 0.05 -1.90 1.70 -1.90 0.95 0 2.30 0.20 3 0.50 1.10 0.40 1.30 0.80 1.30 2.50 0 1.45 0.20 2 0.75 2 0.60 0 0.75 0.65 0.75 2.75 0 2.10 -0.15 2.75 -0.75 2.75 -0.50 0 -0.75 0.50 -0.75 1.45 0 1.95 -0.45 3.05 -1.30 3.05 -0.40 0 -0.70 0.45 -0.70 1 0 0.85 -0.35 1 -1.85 1 l-1.90 -0.05 1.35 -1.15z"/>
  <path d="M16.85 10.10 c-0.95 -1.05 -1.10 -1.90 -0.35 -2.35 0.50 -0.30 1.65 2.05 1.40 2.85 -0.10 0.25 -0.55 0.05 -1.05 -0.50z"/>
  <path d="M25 8.05 c0 -0.25 0.30 -0.60 0.65 -0.75 0.60 -0.25 -0.35 -1.25 -2.10 -2.30 -0.65 -0.35 -0.60 -0.50 0.05 -1.20 1.10 -1.05 1.40 -1 1.40 0.20 0 0.80 0.35 1 1.50 1 1.40 0 1.50 0.15 1.50 1.75 0 1.60 -0.10 1.75 -1.50 1.75 -0.80 0 -1.50 -0.20 -1.50 -0.45z"/>
 </g>
 <g fill="#1e252f">
  <path d="M0.65 39.25 c-0.40 -0.40 -0.65 -2 -0.65 -3.75 0 -2.85 0.05 -3 1.25 -3 1.15 0 1.25 0.20 1.25 2 0 1.10 0.25 2 0.50 2 0.30 0 0.50 0.80 0.50 1.75 0 1.50 -0.15 1.75 -1.10 1.75 -0.65 -0.05 -1.45 -0.35 -1.75 -0.75z"/>
  <path d="M4.65 37.50 c0.35 -3.05 0.60 -3.50 1.90 -3.50 1 0 1.25 0.95 0.50 2.40 -0.25 0.45 -0.70 1.45 -1.10 2.25 -1 2.15 -1.60 1.65 -1.30 -1.15z"/>
  <path d="M21 38.80 c0 -1.25 1.35 -3.65 2.25 -3.95 1.15 -0.45 0.90 0.45 -0.75 2.75 -0.95 1.25 -1.50 1.75 -1.50 1.20z"/>
  <path d="M34.60 37.40 c-0.35 -0.35 -0.60 -1.35 -0.60 -2.25 0 -1.55 0.10 -1.65 1.65 -1.65 2.20 0.05 3.35 1.05 3.35 2.95 0 1.45 -0.10 1.55 -1.90 1.55 -1.05 0 -2.15 -0.25 -2.50 -0.60z"/>
  <path d="M30.95 34.35 c0.40 -0.55 0.35 -0.90 -0.35 -1.55 -0.90 -0.75 -1 -0.75 -1.85 0.20 -0.55 0.60 -1.55 1 -2.60 1 l-1.65 0 1.10 -1.75 c1.05 -1.60 1.35 -1.75 3.70 -1.75 2.95 0 3.70 0.60 3.70 2.85 0 1.45 -0.15 1.65 -1.30 1.65 -1.05 0 -1.20 -0.15 -0.75 -0.65z"/>
  <path d="M19.90 34.20 c-0.50 -0.50 0.55 -3 1.75 -4.10 0.60 -0.60 2 -1.35 3.05 -1.70 2.10 -0.70 3 -1.90 1.45 -1.90 -0.50 0 -1.55 0.35 -2.35 0.75 -2.15 1.15 -2.70 0.85 -1.15 -0.50 1.65 -1.45 3.95 -2.20 4.25 -1.35 0.10 0.35 0.50 0.60 0.90 0.60 0.45 0 0.70 0.55 0.70 1.75 0 1.55 -0.15 1.75 -1.25 1.75 -0.70 0 -1.25 0.25 -1.25 0.50 0 0.30 -0.65 0.50 -1.40 0.50 -1.40 0 -2.90 1.25 -3.95 3.15 -0.25 0.50 -0.60 0.75 -0.75 0.55z"/>
  <path d="M38.50 32.75 c0 -0.80 0.30 -1.25 0.75 -1.25 0.45 0 0.75 0.45 0.75 1.25 0 0.80 -0.30 1.25 -0.75 1.25 -0.45 0 -0.75 -0.45 -0.75 -1.25z"/>
  <path d="M10.45 31.95 c1.65 -1.60 2.05 -2.75 0.85 -2.30 -0.50 0.20 -0.65 0.05 -0.45 -0.45 0.15 -0.35 0.80 -0.70 1.45 -0.70 1.05 0 1.10 0.10 0.60 1.50 -0.50 1.45 -2.55 3.50 -3.50 3.50 -0.25 0 0.20 -0.70 1.05 -1.55z"/>
  <path d="M0 29.55 c0 -1.25 0.25 -1.50 1.80 -1.75 0.95 -0.20 2.20 -0.80 2.75 -1.35 0.50 -0.50 1.35 -0.95 1.85 -0.95 1.20 0 1.70 -0.50 1.15 -1.20 -1 -1.35 -1 -2.95 0.10 -3.85 0.60 -0.50 1.45 -0.90 1.90 -0.95 0.45 0 1.35 -1.40 2.35 -3.60 1.50 -3.30 1.55 -3.65 0.85 -4.75 -0.40 -0.60 -1.65 -1.60 -2.75 -2.15 -1.10 -0.55 -2 -1.20 -2 -1.45 0 -0.65 4.90 1.20 6.05 2.25 1.05 0.95 1.20 0.65 0.45 -0.85 -0.30 -0.55 -0.35 -0.95 -0.05 -0.95 0.80 0 1.55 2.95 1.05 4.20 -0.20 0.60 -0.25 1.40 -0.10 1.65 0.55 0.85 3.70 1.25 5.25 0.70 1.25 -0.50 1.35 -0.45 1.35 0.70 0 1 -0.30 1.25 -2.20 1.50 -1.20 0.20 -2.65 0.20 -3.25 0.05 -0.60 -0.15 -1.50 -0.45 -2.05 -0.60 -0.75 -0.20 -1 -0.05 -1 0.65 0 0.55 -0.45 1.45 -1 2.05 -0.55 0.60 -1 1.40 -1 1.75 0 0.40 -0.45 0.85 -1 1 -0.75 0.20 -1 0.70 -1 1.95 0 3.15 -0.45 3.90 -2.25 3.90 -1.20 0 -1.70 0.25 -1.90 1 -0.15 0.70 -0.70 1 -1.55 1 -0.75 0 -1.45 0.35 -1.60 0.75 -0.20 0.40 -0.75 0.75 -1.25 0.75 -0.70 0 -0.95 -0.35 -0.95 -1.45z"/>
  <path d="M18.80 29.30 c-0.45 -0.70 -1.25 -1.30 -1.75 -1.30 -1.05 0 -1.55 -0.95 -1.55 -3.05 0 -1.15 0.25 -1.45 1.05 -1.45 0.55 0 0.90 0.20 0.70 0.45 -0.50 0.85 0.90 3.05 2.10 3.35 1.15 0.30 1.50 1.40 0.70 2.60 -0.30 0.50 -0.60 0.35 -1.25 -0.60z"/>
  <path d="M29.85 28.15 c-0.20 -0.15 -0.35 -0.95 -0.35 -1.75 l0 -1.45 1.45 1 c0.80 0.60 1.70 1.05 2 1.05 0.30 0 0.55 0.35 0.55 0.75 0 0.50 -0.50 0.75 -1.65 0.75 -0.95 0 -1.85 -0.15 -2 -0.35z"/>
  <path d="M13 21.25 c0 -1.65 0.10 -1.75 1.75 -1.75 1.65 0 1.75 0.10 1.75 1.75 0 1.65 -0.10 1.75 -1.75 1.75 -1.65 0 -1.75 -0.10 -1.75 -1.75z"/>
  <path d="M23 19.50 c0 -1.35 0.15 -1.50 1.50 -1.50 1.85 0 1.85 0.30 0.20 1.80 -1.60 1.55 -1.70 1.50 -1.70 -0.30z"/>
  <path d="M21.15 13.15 c-0.35 -0.10 -0.65 -0.55 -0.65 -0.95 0 -0.40 -0.50 -0.70 -1.10 -0.70 -1.05 0 -3.40 -2.15 -3.40 -3.05 0 -0.90 1.10 -0.95 1.35 -0.05 0.15 0.60 0.80 1.10 1.80 1.30 0.85 0.15 1.95 0.70 2.45 1.15 0.85 0.75 1 0.75 1.45 0.15 0.25 -0.40 0.35 -1 0.25 -1.30 -0.30 -0.80 0.25 -1.40 1.90 -2.10 l1.45 -0.65 -1.50 -0.95 c-2 -1.20 -2.50 -2 -1.20 -2 0.80 0 1.05 -0.30 1.05 -1.25 0 -1.25 0.05 -1.25 1.25 -0.45 0.70 0.45 1.25 1.05 1.25 1.40 0 1.10 0.85 1.85 1.65 1.50 0.75 -0.25 0.65 -0.55 -0.65 -1.85 -1.70 -1.75 -1.80 -2 -0.75 -2.85 1.05 -0.85 1.75 -0.15 1.75 1.80 0 0.95 0.25 1.70 0.50 1.70 0.30 0 0.50 -0.95 0.50 -2.10 0 -2 0 -2.05 1 -1.15 0.55 0.50 1 1.55 1 2.35 0 0.90 0.25 1.40 0.75 1.40 0.40 0 0.75 0.35 0.75 0.75 0 0.50 -0.50 0.75 -1.50 0.75 -0.80 0 -1.50 0.25 -1.50 0.55 0 0.35 -0.75 0.50 -2 0.35 -1.90 -0.15 -2 -0.10 -2 1.20 0 1.05 -0.25 1.40 -1 1.40 -0.75 0 -1 0.35 -1 1.30 0 2.10 -1.80 3.20 -3.85 2.35z"/>
  <path d="M18.50 5 c0 -1.10 1 -1.30 2.55 -0.50 1.50 0.80 1.15 1.50 -0.80 1.50 -1.40 0 -1.75 -0.20 -1.75 -1z"/>
  <path d="M35.50 3.75 c0 -0.90 -0.25 -1.25 -1 -1.25 -1.10 0 -1.30 -1 -0.40 -1.90 0.85 -0.85 1.90 -0.75 1.90 0.15 0 0.40 0.45 0.75 1 0.75 1.15 0 1.20 0.30 0.40 2.15 -0.80 1.70 -1.90 1.75 -1.90 0.10z"/>
 </g>
 <g fill="#161a43">
  <path d="M27.85 39.15 c0.15 -0.50 0.65 -1.35 1.15 -1.90 1.95 -2.40 2.60 -3.80 1.95 -4.55 -0.85 -1.05 -1.35 -0.90 -2.80 0.80 -1.30 1.60 -3.15 2 -3.15 0.75 0 -0.45 0.55 -1.65 1.25 -2.75 1.20 -1.90 1.10 -2.65 -0.15 -1.40 -0.45 0.45 -0.60 0.30 -0.60 -0.70 0 -0.90 0.35 -1.35 1.15 -1.60 2.05 -0.55 2.85 -0.35 2.85 0.70 0 0.80 0.35 1 1.50 1 1.25 0 1.50 -0.20 1.50 -1.15 0 -0.75 0.45 -1.45 1.25 -1.85 0.70 -0.35 1.65 -1.25 2.10 -1.95 1 -1.55 1.70 -5.45 1 -5.70 -0.30 -0.10 -0.30 -0.50 0.05 -1.15 0.40 -0.80 0.40 -1.30 -0.15 -2.05 -1.75 -2.50 -6.55 -1.25 -10.65 2.75 -2.60 2.50 -6.15 4.20 -6.50 3.05 -0.25 -0.70 -2.05 1.45 -2.40 2.90 -0.20 0.65 -0.50 1.15 -0.75 1.15 -0.25 0 -0.45 0.55 -0.45 1.25 0 0.90 -0.25 1.25 -0.95 1.25 -0.55 0 -1.10 -0.30 -1.20 -0.60 -0.15 -0.40 -0.30 -0.30 -0.30 0.25 -0.10 1.45 -1.05 0.95 -1.05 -0.60 0 -1.40 -0.05 -1.40 -2.30 -1.15 l-2.25 0.25 0.15 -2.20 c0.10 -1.85 0.35 -2.25 1.30 -2.35 0.80 -0.15 1.10 -0.50 1.10 -1.50 0 -0.85 0.55 -1.90 1.50 -2.75 1.45 -1.35 1.65 -1.40 4.85 -1.05 1.90 0.15 3.60 0.60 3.80 0.90 0.30 0.40 0.50 0.40 0.70 -0.05 0.10 -0.35 0.80 -0.65 1.45 -0.65 1.05 0 1.20 -0.25 1.20 -1.75 0 -1.65 0.10 -1.75 1.75 -1.75 1.20 0 1.75 -0.25 1.75 -0.75 0 -0.55 0.55 -0.75 1.95 -0.75 1.10 0 2.15 -0.20 2.30 -0.50 0.45 -0.70 5.30 -0.60 6.85 0.10 l1.35 0.65 0 6.60 0.05 6.65 -1.25 0 c-0.80 0 -1.25 0.30 -1.25 0.75 0 0.40 -0.35 0.75 -0.75 0.75 -0.40 0 -0.75 0.30 -0.75 0.65 0 0.85 1.45 2.80 1.50 2 0 -0.35 0.55 -0.65 1.25 -0.65 1.20 0 1.25 0.10 1.20 2.80 -0.05 1.60 -0.40 3.10 -0.80 3.50 -0.65 0.60 -0.60 0.75 0.05 1 0.95 0.35 1.05 2 0.20 2.35 -0.50 0.20 -0.50 0.30 0 0.30 0.30 0.05 0.60 0.40 0.60 0.80 0 0.50 -0.50 0.75 -1.70 0.75 -1.95 0 -5.05 -2.60 -5.45 -4.55 -0.20 -1.15 -0.20 -1.15 -0.30 -0.05 -0.05 0.80 -0.35 1.10 -1.30 1.10 -1.10 0 -1.25 0.20 -1.25 1.75 0 1.55 -0.15 1.75 -1.25 1.75 -0.95 0 -1.15 -0.20 -0.90 -0.85z m9.40 -2.90 c-0.80 -0.70 -1.70 -1.25 -2 -1.25 -0.25 0 0.20 0.55 1 1.25 0.85 0.65 1.75 1.20 2 1.20 0.30 0 -0.15 -0.55 -1 -1.20z m-23.25 -17.80 c0.55 -0.95 0.50 -1 -0.45 -0.45 -1.10 0.55 -1.45 1.50 -0.55 1.50 0.25 0 0.70 -0.45 1 -1.05z"/>
  <path d="M23.50 10.25 c0 -0.40 -0.45 -0.95 -1 -1.25 -0.55 -0.30 -1 -0.75 -1 -0.95 0 -0.75 1.65 -1.10 2.05 -0.50 0.20 0.35 0.80 0.45 1.40 0.30 0.80 -0.20 1.05 -0.05 1.05 0.75 0 1.05 -1.10 2.40 -1.95 2.40 -0.30 0 -0.55 -0.35 -0.55 -0.75z"/>
  <path d="M32.50 5.25 c0 -0.40 0.35 -0.75 0.80 -0.75 0.55 0 0.75 -0.30 0.55 -1 -0.20 -0.80 0 -1 0.95 -1 1.05 0 1.20 0.25 1.20 1.75 0 1.65 -0.10 1.75 -1.75 1.75 -1.20 0 -1.75 -0.25 -1.75 -0.75z"/>
  <path d="M27.35 1.65 c-0.55 -0.50 0.65 -1.65 1.70 -1.65 0.60 0 0.95 0.35 0.95 1 0 0.70 -0.35 1 -1.15 1 -0.65 0 -1.35 -0.15 -1.50 -0.35z"/>
 </g>
 <g fill="#1b1d5c">
  <path d="M28 39.35 c0 -0.35 0.60 -1.45 1.30 -2.40 0.70 -0.95 1.45 -2.05 1.70 -2.45 0.45 -0.65 0.55 -0.65 1.05 0 0.40 0.55 0.60 0.60 0.80 0.15 0.30 -0.75 3.65 -0.85 3.65 -0.15 0 0.30 0.55 0.75 1.25 1 0.70 0.25 1.25 0.85 1.25 1.25 0 0.65 -0.35 0.55 -1.65 -0.45 -2.45 -1.90 -3.25 -1.60 -1.15 0.40 1 0.90 1.80 2 1.80 2.35 0 0.55 0.10 0.55 0.55 -0.05 0.45 -0.65 0.50 -0.65 0.30 0 -0.25 1.10 -3.90 1.30 -4.45 0.30 -0.55 -1 -2.40 -1.05 -2.40 -0.05 0 0.55 -0.55 0.75 -2 0.75 -1.30 0 -2 -0.20 -2 -0.65z"/>
  <path d="M36.50 32.30 c0 -0.35 -0.35 -0.95 -0.75 -1.30 -0.40 -0.35 -0.75 -1.25 -0.75 -2.05 0 -0.95 0.25 -1.45 0.75 -1.45 0.40 0 0.80 -0.50 0.85 -1.10 0.05 -0.65 0.15 -1.60 0.20 -2.15 0.05 -0.55 0.10 -1.75 0.15 -2.60 0.05 -1.50 0.20 -1.65 1.55 -1.65 1.75 0 2 0.85 0.40 1.15 l-1.15 0.20 1.15 0.40 c1.20 0.40 1.45 1.05 0.50 1.40 -0.50 0.20 -0.50 0.30 0 0.30 0.40 0.05 0.60 1.05 0.60 3.25 0 2.10 -0.20 3.30 -0.60 3.45 -0.50 0.20 -0.50 0.30 0 0.30 0.30 0.05 0.60 0.40 0.60 0.85 0 0.55 -0.25 0.70 -0.80 0.50 -0.70 -0.25 -0.75 -0.20 -0.20 0.45 0.55 0.65 0.40 0.75 -0.95 0.75 -1 0 -1.55 -0.25 -1.55 -0.70z"/>
  <path d="M16.20 21.90 c0.15 -1.45 0.30 -3.40 0.30 -4.25 0 -1.55 0.10 -1.65 1.75 -1.65 1.55 0 1.75 0.15 1.75 1.25 0 0.70 0.15 1.25 0.30 1.25 0.45 0 1.70 -1.40 1.70 -1.90 0 -0.25 0.65 -0.60 1.45 -0.75 0.85 -0.20 1.50 -0.70 1.70 -1.30 0.15 -0.65 0.65 -1.05 1.30 -1.05 0.60 0 1.05 -0.30 1.05 -0.75 0 -0.45 0.45 -0.75 1.20 -0.75 0.65 0 1.30 -0.25 1.40 -0.60 0.25 -0.70 5.65 -1.15 8.15 -0.70 1.75 0.35 1.75 0.35 1.75 3.05 0 1.50 -0.20 2.75 -0.50 2.75 -0.60 0 -1.55 -1.75 -1.35 -2.60 0.10 -0.35 0.10 -0.50 0 -0.25 -0.40 0.70 -1.05 0.35 -1.40 -0.75 -0.35 -1.10 -0.35 -1.10 -0.60 -0.15 -0.40 1.70 -1.15 2.05 -1.15 0.60 0 -1.35 -1.10 -1.90 -1.75 -0.85 -0.15 0.25 -0.75 0.50 -1.30 0.50 -0.50 0 -0.95 0.25 -0.95 0.50 0 0.65 1.35 0.65 1.75 0 0.35 -0.60 1.25 -0.65 1.25 -0.10 0 0.25 -1.25 0.85 -2.75 1.40 -2 0.65 -3.40 1.60 -5 3.30 -1.25 1.35 -2.25 2.25 -2.25 2.10 0 -0.20 -0.40 0 -0.85 0.40 -1.25 1.10 -3.45 0.90 -3.25 -0.25 0.15 -0.85 -1.25 -2.70 -1.70 -2.20 -0.15 0.10 0 0.80 0.35 1.45 0.45 1.05 0.35 1.55 -0.65 3.10 -0.60 0.95 -1.35 1.80 -1.60 1.80 -0.25 0 -0.30 -1.20 -0.10 -2.60z"/>
  <path d="M36.50 18.55 c0 -0.25 0.35 -0.70 0.75 -1.05 0.70 -0.60 0.65 -0.80 -0.30 -1.80 -0.60 -0.65 -1 -1.35 -0.80 -1.50 0.45 -0.50 1.35 0.30 1.85 1.60 0.25 0.65 0.80 1.20 1.25 1.20 1.15 0 0.90 1.35 -0.35 1.70 -1.60 0.40 -2.40 0.35 -2.40 -0.15z"/>
 </g>
 <g fill="#2c374a">
  <path d="M1.55 38.85 c0.45 -0.90 0.45 -1 -0.10 -0.45 -0.35 0.30 -0.85 0.60 -1.05 0.60 -0.65 0 -0.45 -1.40 0.25 -1.65 0.50 -0.20 0.50 -0.30 0 -0.30 -0.80 -0.05 -0.85 -1.65 -0.05 -2.45 0.45 -0.45 0.45 -0.60 0 -0.60 -0.35 0 -0.60 -0.45 -0.60 -1 0 -0.80 0.35 -1 1.50 -1 1 0 1.50 0.25 1.50 0.75 0 0.45 0.45 0.75 1.05 0.75 1 0 1.05 0.20 0.80 2.50 -0.25 1.95 -0.15 2.50 0.40 2.50 0.40 0 0.60 0.30 0.45 0.70 -0.15 0.40 -1.10 0.70 -2.50 0.70 -2.15 0.05 -2.20 0 -1.65 -1.05z"/>
  <path d="M21 39.15 c0 -1.65 1.60 -4.10 3.15 -4.80 0.75 -0.30 1.35 -0.85 1.35 -1.15 0 -0.30 0.55 -1.40 1.25 -2.40 1.20 -1.75 1 -2.55 -0.30 -1 -0.35 0.45 -1.05 0.65 -1.70 0.50 -1.10 -0.30 -2.70 0.85 -3.70 2.55 -0.80 1.50 -1.15 0.35 -0.35 -1.20 0.95 -1.85 1.55 -2.30 4.20 -3.15 2.30 -0.70 2.85 -2 0.85 -2 -1.40 0 -1.70 -0.75 -0.45 -1.20 1.75 -0.65 2.70 -0.35 2.70 0.95 0 0.90 0.25 1.25 1 1.25 0.55 0 1 0.35 1 0.75 0 0.40 0.45 0.75 1 0.75 0.65 0 1 -0.35 1 -1 0 -0.85 0.35 -1 2 -1 1.45 0 2 0.20 2 0.75 0 0.40 0.25 0.75 0.55 0.75 0.25 0 0.40 0.20 0.20 0.45 -0.15 0.25 0.20 0.80 0.75 1.20 0.55 0.35 0.90 0.80 0.75 0.95 -0.15 0.15 0.20 0.65 0.75 1.15 1.20 1.10 1.35 3.75 0.25 3.75 -0.40 0 -0.75 0.25 -0.75 0.50 0 1.10 -3.55 -1.85 -4.45 -3.75 -0.65 -1.30 -1 -1.65 -1.05 -1.05 0 0.95 0 0.95 -1.10 0 -0.70 -0.60 -0.90 -0.65 -0.50 -0.15 0.80 1.05 0.25 1.55 -0.95 0.80 -0.80 -0.50 -1.05 -0.40 -1.70 0.55 -0.45 0.60 -1.25 1.10 -1.80 1.10 -0.50 0 -0.95 0.30 -0.95 0.65 0 0.30 -0.75 0.95 -1.65 1.35 -0.90 0.45 -2 1.50 -2.45 2.50 -0.70 1.40 -0.90 1.50 -0.90 0.65z m14.40 -8.70 c-0.65 -0.90 -1.20 -1.25 -1.35 -0.90 -0.10 0.35 0.30 1.05 0.95 1.55 1.60 1.30 1.70 1.10 0.40 -0.65z"/>
  <path d="M37 39.25 c0 -0.90 0.80 -1 1.15 -0.10 0.20 0.50 0.30 0.50 0.30 0 0.05 -0.90 1.05 -0.80 1.05 0.10 0 0.45 -0.45 0.75 -1.25 0.75 -0.80 0 -1.25 -0.30 -1.25 -0.75z"/>
  <path d="M5.50 35 c0 -1.10 0.15 -2 0.40 -2 0.20 0 0.65 -0.65 1 -1.50 0.50 -1.05 1.05 -1.50 1.90 -1.50 1 0 1.20 -0.25 1.20 -1.55 0 -1.50 -0.10 -1.55 -1.55 -1.25 -0.85 0.15 -2 0.85 -2.55 1.55 -0.55 0.70 -1.50 1.25 -2.20 1.25 -0.75 0 -1.20 0.30 -1.20 0.75 0 0.45 -0.50 0.75 -1.30 0.75 -1.10 0 -1.25 -0.20 -1.10 -1.35 0.15 -1.60 0.70 -2.15 2.20 -2.15 0.55 0 1.55 -0.55 2.20 -1.25 0.70 -0.75 1.50 -1.15 2.05 -1 0.50 0.20 0.95 -0.05 1.15 -0.60 0.20 -0.50 0.10 -0.95 -0.15 -1.05 -0.30 -0.10 -0.55 -0.65 -0.55 -1.20 0 -0.80 0.25 -0.95 1.25 -0.80 0.70 0.15 1.25 0.05 1.25 -0.15 0 -0.25 -0.20 -0.45 -0.50 -0.45 -0.25 0 -0.50 -0.35 -0.50 -0.75 0 -0.40 0.25 -0.75 0.55 -0.75 0.75 0 3.05 -2.45 2.75 -2.95 -0.15 -0.20 0.20 -1.20 0.70 -2.20 1.35 -2.45 1.25 -3.05 -0.50 -4.50 -0.85 -0.70 -1.50 -1.40 -1.50 -1.55 0 -0.80 2.20 -0.15 3.25 0.90 1 1.05 1.25 1.10 1.40 0.40 0.15 -0.50 0.25 0.30 0.30 1.75 0.05 2.95 0.35 3.30 3.10 3.25 1.60 -0.05 1.95 0.15 1.95 0.95 0 0.70 -0.35 0.95 -1.45 0.95 -1.40 0 -1.45 0.10 -1.05 1.45 0.30 1.05 0.20 1.75 -0.30 2.40 -0.70 0.95 -0.90 3.50 -0.40 4.90 0.20 0.40 0.95 1.10 1.70 1.50 1.05 0.55 1.35 1 1.15 1.75 -0.25 0.95 -0.30 0.95 -1.75 -0.25 -0.80 -0.70 -1.80 -1.25 -2.20 -1.25 -0.40 0 -0.70 -0.40 -0.70 -0.95 0 -1.15 -2.95 -1.95 -3.60 -0.95 -0.65 1.05 -0.45 1.40 0.60 1.40 1.25 0 1.25 1 0 3.45 -0.95 1.85 -2 2.70 -3.50 2.75 -0.40 0.05 -1.15 0.90 -1.70 1.95 -1.25 2.40 -1.80 2.35 -1.80 -0.15z m5.75 -3.85 c0.45 -0.65 0.70 -1.40 0.50 -1.55 -0.35 -0.40 -2.75 2.15 -2.75 2.90 0 0.80 1.40 -0.05 2.25 -1.35z m-0.25 -7.75 c0 -0.65 -1.15 -0.25 -1.40 0.50 -0.10 0.35 0.10 0.50 0.60 0.30 0.45 -0.15 0.80 -0.55 0.80 -0.80z m5.10 -3.25 c0.40 -0.50 -0.25 -0.30 -1.60 0.50 -1.25 0.70 -2.30 1.55 -2.40 1.85 -0.25 0.70 3.10 -1.30 4 -2.35z m-1.65 -1.45 c0.30 -0.65 0.35 -1.20 0.15 -1.20 -0.75 0 -2.60 1.60 -2.60 2.25 0 1.05 1.80 0.30 2.45 -1.05z"/>
  <path d="M21.50 20.75 c0 -0.45 -0.20 -0.70 -0.45 -0.50 -0.25 0.15 -0.60 0.05 -0.80 -0.25 -0.20 -0.30 0.30 -0.50 1.25 -0.50 1.20 0 1.55 0.20 1.40 0.85 -0.20 1.10 -1.40 1.45 -1.40 0.40z"/>
  <path d="M24 19.90 c0 -0.45 0.25 -1 0.55 -1.15 0.85 -0.55 0.90 -0.10 0.15 0.95 -0.60 0.85 -0.70 0.85 -0.70 0.20z"/>
  <path d="M21.50 14.20 c0.55 -0.65 0.50 -0.80 -0.40 -1.05 -0.60 -0.15 -1.10 -0.60 -1.10 -0.95 0 -0.40 -0.45 -0.70 -0.95 -0.70 -1.15 0 -3.20 -2.40 -2.70 -3.15 0.20 -0.30 0.50 -0.20 0.90 0.30 0.30 0.45 1.15 0.95 1.90 1.10 0.80 0.20 1.35 0.70 1.35 1.20 0 0.65 0.10 0.65 0.45 0.10 0.35 -0.55 0.50 -0.50 0.90 0.15 0.45 0.80 0.55 0.80 1.10 0.10 0.40 -0.50 0.55 -1.30 0.30 -2.15 -0.20 -0.95 -0.45 -1.15 -0.70 -0.70 -0.30 0.45 -0.55 0.50 -0.75 0.10 -0.20 -0.30 -0.75 -0.55 -1.25 -0.55 -0.50 0 -1.30 -0.55 -1.70 -1.20 -0.45 -0.65 -1.40 -1.35 -2.20 -1.50 -2 -0.50 -3.65 -1.70 -3.65 -2.60 0 -0.65 0.25 -0.60 1.30 0.25 0.75 0.60 2 1.05 2.75 1.05 0.90 0 1.45 0.25 1.45 0.70 0 0.80 2.90 1.40 3.15 0.65 0.10 -0.30 0.60 -0.25 1.30 0.10 0.70 0.40 1 0.90 0.85 1.40 -0.50 1.30 0.20 1.75 1.50 0.90 1.20 -0.75 1.20 -0.75 1.20 0.75 0 1.15 -0.20 1.50 -1 1.50 -0.80 0 -1 0.35 -1 1.75 0 0.95 -0.20 1.75 -0.50 1.75 -0.25 0 -0.50 0.35 -0.50 0.75 0 0.50 -0.50 0.75 -1.30 0.75 -1.15 0 -1.25 -0.10 -0.70 -0.80z"/>
  <path d="M25.85 14.65 c-0.20 -0.15 -0.35 -0.95 -0.35 -1.75 0 -1.25 0.15 -1.40 1.75 -1.40 1.65 0 1.75 0.10 1.75 1.75 0 1.60 -0.15 1.75 -1.40 1.75 -0.80 0 -1.60 -0.15 -1.75 -0.35z"/>
  <path d="M24.25 5.25 c-0.80 -0.65 -1.20 -1.20 -0.85 -1.25 1.05 0 0.65 -1 -0.65 -1.60 -1.40 -0.60 -1.65 -1.40 -0.50 -1.40 0.40 0 0.75 -0.20 0.75 -0.40 0 -0.20 0.70 -0.45 1.55 -0.50 1.30 -0.10 1.50 0 1.20 0.85 -0.20 0.70 0 1.20 0.70 1.65 1.20 0.75 1.40 2.40 0.35 2.40 -0.40 0 -0.80 0.35 -0.90 0.75 -0.10 0.60 -0.45 0.50 -1.65 -0.50z"/>
  <path d="M30.50 5.80 c0 -0.40 -0.40 -1.05 -0.90 -1.40 -0.45 -0.35 -1.25 -1.25 -1.75 -2 -0.80 -1.30 -0.80 -1.40 0.10 -1.90 1.55 -0.80 2.95 -0.60 3.80 0.65 0.75 1.05 0.70 1.10 -0.35 1.45 l-1.15 0.30 1.20 0.05 c0.80 0.05 1.05 0.25 0.85 0.80 -0.20 0.55 0.05 0.75 0.95 0.75 0.90 0 1.15 -0.20 0.95 -0.75 -0.20 -0.50 0 -0.75 0.75 -0.75 0.85 0 1 -0.20 0.75 -1.50 -0.30 -1.30 -0.20 -1.50 0.75 -1.50 1.15 0 2.15 2.55 1.15 2.90 -0.35 0.10 -0.60 0.50 -0.60 0.90 0 0.40 -0.20 0.70 -0.50 0.70 -0.25 0 -0.50 0.45 -0.50 1 0 0.90 -0.35 1 -2.75 1 -2.05 0 -2.75 -0.20 -2.75 -0.70z"/>
  <path d="M38.50 4.40 c0 -1.25 0.60 -2.90 1.05 -2.90 0.25 0 0.45 0.80 0.45 1.75 0 1.20 -0.25 1.75 -0.75 1.75 -0.40 0 -0.75 -0.30 -0.75 -0.60z"/>
 </g>
 <g fill="#262c6a">
  <path d="M28 39.55 c0 -1.20 0.70 -2.05 1.70 -2.10 0.55 0 0.80 -0.15 0.45 -0.25 -0.40 -0.20 -0.25 -0.80 0.45 -2 0.55 -0.95 0.90 -1.90 0.70 -2.05 -0.60 -0.60 0.85 -1.65 2.25 -1.65 1 0 1.45 0.25 1.45 0.80 0 0.90 1.15 2.20 2 2.20 0.30 0 0.80 0.55 1.10 1.25 0.30 0.70 0.85 1.25 1.25 1.25 0.35 0 0.65 0.25 0.65 0.50 0 0.80 -0.50 0.60 -2.35 -1 -1.65 -1.50 -3.15 -1.95 -3.15 -1 0 0.30 0.30 0.50 0.70 0.50 0.40 0 0.90 0.20 1.05 0.50 0.20 0.30 -0.35 0.40 -1.35 0.25 -1.55 -0.25 -1.50 -0.20 0.30 0.35 2 0.65 3.30 2.05 2.65 2.75 -0.25 0.20 -0.65 0.05 -0.90 -0.35 -0.40 -0.55 -0.60 -0.60 -0.80 -0.10 -0.15 0.35 -1.15 0.60 -2.60 0.60 -1.30 0 -2.65 -0.30 -3 -0.60 -0.55 -0.50 -0.70 -0.50 -0.90 0 -0.25 0.70 -1.65 0.85 -1.65 0.15z"/>
  <path d="M38.50 39.25 c0 -0.40 0.35 -0.75 0.75 -0.75 0.40 0 0.75 0.35 0.75 0.75 0 0.40 -0.35 0.75 -0.75 0.75 -0.40 0 -0.75 -0.35 -0.75 -0.75z"/>
  <path d="M24.50 34.60 c0 -0.90 1.45 -2.60 2.20 -2.60 0.25 0 0.25 0.40 0.10 0.85 -0.30 0.75 -0.20 0.75 0.70 -0.10 0.85 -0.75 1 -0.80 1 -0.10 0 0.90 -2.30 2.85 -3.30 2.85 -0.40 0 -0.70 -0.40 -0.70 -0.90z"/>
  <path d="M37.10 32.10 c-4 -4.15 -4.35 -5.10 -2.20 -6.15 0.75 -0.40 1.40 -1.15 1.50 -1.70 0.10 -0.55 0.30 -1.75 0.45 -2.60 0.20 -1.30 0.50 -1.65 1.45 -1.65 0.60 0 1.30 0.25 1.45 0.50 0.15 0.30 -0.15 0.50 -0.70 0.50 -0.60 0 -1.05 0.25 -1.05 0.50 0 0.30 0.20 0.50 0.45 0.50 0.25 0 0.35 0.45 0.20 1 -0.15 0.60 0.05 1.10 0.55 1.30 0.50 0.20 0.80 0.90 0.80 1.80 0 1.25 -0.15 1.45 -1 1.25 -0.55 -0.15 -1 -0.05 -1 0.20 0 0.25 0.45 0.45 1 0.45 1.35 0 1.30 1.35 -0.10 2.45 l-1.05 0.90 1.05 1.05 c0.90 0.90 0.95 1.10 0.30 1.10 -0.40 0 -1.40 -0.65 -2.10 -1.40z"/>
  <path d="M14.50 26.50 c0 -0.85 0.35 -2.10 0.80 -2.75 0.80 -1.20 0.80 -1.25 -0.50 -1.25 l-1.35 0 1.80 -1.55 c2.15 -1.90 1.95 -2.60 -0.25 -0.75 -0.95 0.75 -2.20 1.30 -3.05 1.30 -1.40 0 -1.50 -0.10 -1.35 -1.60 0.10 -1.30 0.40 -1.70 1.40 -1.80 1.05 -0.15 1.10 -0.10 0.55 0.60 -0.60 0.70 -0.55 0.80 0.25 0.80 1.25 -0.05 3.05 -1.55 3.30 -2.80 0.20 -1.10 3.05 -1.60 4.10 -0.75 1.10 0.95 3.30 -0.45 3.30 -2.05 0 -1.30 0.15 -1.40 2 -1.40 1.45 0 2 -0.20 2 -0.75 0 -0.40 0.35 -0.75 0.75 -0.75 0.40 0 0.75 -0.45 0.75 -1 0 -0.80 0.35 -1 1.70 -1 0.95 0 1.90 0.25 2.05 0.50 0.15 0.30 1.30 0.50 2.50 0.50 2.80 0 4.75 0.85 4.75 2.15 0 0.75 -0.25 0.90 -1.10 0.65 -2.80 -0.85 -5.35 -0.90 -6.90 -0.15 -0.85 0.45 -1.90 0.65 -2.30 0.50 -0.45 -0.15 -0.70 0.05 -0.70 0.75 0 0.65 -0.45 1.05 -1.35 1.25 -0.80 0.15 -1.60 0.75 -1.90 1.45 -0.25 0.65 -0.90 1.15 -1.40 1.15 -1.10 0 -1.80 1.05 -1.50 2.30 0.20 0.65 0 0.95 -0.55 0.95 -0.45 0 -0.80 -0.20 -0.80 -0.50 0 -0.30 -0.20 -0.45 -0.45 -0.40 -0.25 0.10 -1.05 -0.50 -1.80 -1.35 l-1.30 -1.50 0.20 2.25 c0.15 1.50 0 2.60 -0.45 3.25 -0.90 1.25 -0.90 2.95 0.05 3.75 1.25 1.05 0.85 1.50 -1.25 1.50 -1.90 0 -2 -0.10 -2 -1.50z"/>
  <path d="M24 19.55 c0 -0.50 1.95 -1.80 2.25 -1.45 0.10 0.10 -0.40 0.55 -1.05 1.05 -0.65 0.50 -1.20 0.65 -1.20 0.40z"/>
  <path d="M38.85 15.30 c-0.30 -0.75 0.05 -1.30 0.75 -1.30 0.20 0 0.40 0.45 0.40 1 0 1.15 -0.75 1.35 -1.15 0.30z"/>
  <path d="M21.60 8.40 c-0.35 -0.35 -0.90 -0.65 -1.25 -0.65 -0.30 0 -0.65 -0.40 -0.75 -0.85 -0.15 -0.75 0.20 -0.90 1.60 -0.90 1.65 0 1.80 0.10 1.80 1.50 0 1.60 -0.45 1.85 -1.40 0.90z"/>
  <path d="M34 6.65 c-4 -0.25 -5.25 -0.60 -4.60 -1.25 0.45 -0.45 0.30 -0.90 -0.50 -1.75 l-1.05 -1.15 1.70 0 c2.10 0 3.10 0.60 2.70 1.60 -0.25 0.60 0 0.80 0.95 0.70 1 -0.05 1.20 -0.25 1 -0.90 -0.20 -0.70 0 -0.90 1 -0.90 0.80 0 1.35 0.35 1.55 1 0.35 1.15 1.75 1.35 1.75 0.25 0 -0.40 0.35 -0.75 0.75 -0.75 0.50 0 0.75 0.55 0.75 1.75 0 1.95 0.65 1.80 -6 1.40z"/>
 </g>
 <g fill="#364466">
  <path d="M1.50 39.75 c0 -0.20 0.35 -1 0.80 -1.80 0.40 -0.85 0.65 -1.65 0.50 -1.80 -0.15 -0.15 -0.50 0.30 -0.75 1 -0.55 1.40 -1.45 2.15 -1.95 1.60 -0.15 -0.15 0 -0.55 0.40 -0.80 0.55 -0.40 0.60 -0.60 0.15 -0.80 -0.75 -0.25 -0.90 -2.15 -0.20 -2.15 0.25 0 0.55 -0.35 0.70 -0.70 0.20 -0.50 0.05 -0.65 -0.45 -0.45 -0.55 0.20 -0.70 -0.20 -0.70 -1.80 0 -1.15 0.25 -2.05 0.50 -2.05 0.30 0 0.50 -0.35 0.50 -0.75 0 -0.45 0.45 -0.75 1.25 -0.75 0.75 0 1.60 -0.55 2.30 -1.45 0.70 -0.95 1.35 -1.35 2 -1.20 1.15 0.30 1.80 -1.05 0.95 -2.10 -0.75 -0.95 -0.25 -1.75 1.20 -1.75 0.90 0 1.20 -0.40 1.60 -1.85 0.30 -1.35 0.75 -1.95 1.50 -2.05 0.70 -0.10 1.25 -0.70 1.55 -1.75 0.35 -1.30 0.70 -1.60 1.70 -1.50 3.90 0.30 4.95 0.45 5.25 0.80 0.65 0.65 1.20 0.35 1.20 -0.70 0 -0.60 0.40 -1.15 1 -1.30 0.55 -0.15 1 -0.55 1 -0.90 0 -0.35 0.30 -0.80 0.65 -0.90 0.40 -0.20 0.30 -0.30 -0.20 -0.30 -0.60 -0.05 -0.75 -0.40 -0.55 -1.30 0.15 -0.90 0 -1.25 -0.60 -1.25 -0.45 0 -0.95 -0.35 -1.15 -0.80 -0.15 -0.40 -0.60 -0.65 -0.95 -0.50 -0.40 0.15 -0.70 -0.05 -0.70 -0.45 0 -0.40 0.45 -0.75 1 -0.75 0.60 0 1 -0.35 1 -0.85 0 -0.75 0.10 -0.75 0.95 0.05 0.55 0.50 0.85 1.20 0.75 1.55 -0.45 1.05 0.80 1.40 1.80 0.50 0.90 -0.85 0.90 -0.90 -0.40 -2.05 l-1.35 -1.15 1.90 -0.05 c1.30 0 1.85 0.20 1.85 0.70 0 0.50 0.65 0.80 1.90 0.90 1.35 0.10 2 0.45 2.35 1.30 0.40 0.95 0.85 1.10 3.10 1.10 l2.65 0 0 1.70 c0 1.65 -0.05 1.70 -2.10 1.70 -1.20 0 -2.55 0.15 -3 0.35 -0.65 0.25 -0.90 0.15 -0.90 -0.40 0 -0.45 -0.25 -0.95 -0.50 -1.10 -0.35 -0.20 -0.45 0.10 -0.25 0.90 0.35 1.35 -0.45 2.25 -1.05 1.25 -0.30 -0.45 -0.50 -0.25 -0.70 0.60 -0.20 0.90 -0.70 1.30 -1.65 1.40 -0.75 0.10 -1.35 -0.05 -1.35 -0.35 0 -0.30 -0.25 -0.55 -0.60 -0.55 -0.45 0 -0.45 0.15 0 0.60 0.90 0.90 0.75 2.10 -0.40 2.80 -0.70 0.40 -1 0.45 -1 0.05 0 -0.30 -0.65 0.15 -1.45 1 -1.40 1.50 -2.55 2 -2.55 1.15 0 -0.20 0.25 -0.65 0.60 -1 0.45 -0.45 0.45 -0.60 0 -0.60 -0.35 0 -0.60 0.25 -0.60 0.50 0 0.95 -0.90 0.50 -1.15 -0.55 -0.45 -1.65 -1.35 -0.60 -1 1.10 0.45 2.25 -1.80 8.95 -3 8.95 -0.70 0 -0.85 -0.25 -0.65 -1.10 0.20 -0.75 0.05 -0.60 -0.45 0.35 -0.40 0.85 -0.70 1.80 -0.75 2.15 0 0.90 -1 0.75 -1 -0.15 0 -1.60 -4.75 4.75 -5.30 7.05 -0.60 2.65 -1.55 3.70 -3.45 3.70 -0.95 0 -1.75 -0.10 -1.75 -0.25z m5.60 -7.85 c0.15 -1.95 0.30 -2.15 1.55 -2.30 1.05 -0.15 1.35 -0.45 1.35 -1.40 0 -0.75 -0.30 -1.20 -0.75 -1.20 -0.40 0 -0.75 0.25 -0.75 0.50 0 0.30 -0.65 0.50 -1.50 0.50 -1.15 0 -1.50 0.20 -1.50 1 0 0.65 -0.35 1 -1 1 -0.80 0 -1 0.35 -1 1.50 0 1 0.25 1.50 0.75 1.50 0.40 0 0.75 0.25 0.75 0.50 0 0.30 0.45 0.50 0.95 0.50 0.80 0 1 -0.40 1.15 -2.10z m6.45 -9.65 c2.90 -1.95 4.20 -3.25 3.20 -3.25 -0.45 0 -4.75 3.20 -4.75 3.55 0 0.20 -0.50 0.45 -1.10 0.55 -0.80 0.10 -1.20 0.55 -1.25 1.40 -0.05 0.70 0 0.95 0.15 0.65 0.15 -0.35 1.85 -1.65 3.75 -2.90z m1 -3.85 c0.30 -0.55 0.45 -1.10 0.30 -1.20 -0.25 -0.30 -2.85 1.75 -2.85 2.30 0 0.75 2 -0.10 2.55 -1.10z m13.10 -9.40 c-0.15 -0.55 -0.70 -1 -1.20 -1 -0.60 0 -0.95 0.35 -0.95 1 0 0.70 0.35 1 1.20 1 0.95 0 1.15 -0.20 0.95 -1z"/>
  <path d="M38.15 36.90 c-1.30 -1.55 -1 -2.85 0.60 -2.50 1.05 0.20 1.25 0.50 1.25 1.90 0 2 -0.45 2.15 -1.85 0.60z"/>
  <path d="M24 35.05 c0 -0.60 3.35 -5.10 4.20 -5.65 0.35 -0.25 0.25 -0.40 -0.30 -0.40 -0.45 0 -1.20 0.35 -1.65 0.80 -0.80 0.85 -2.25 0.65 -2.25 -0.35 0 -0.30 0.70 -0.80 1.50 -1.10 1.40 -0.55 1.90 -1.30 1.20 -2 -0.15 -0.15 -0.85 -0.10 -1.50 0.15 -0.90 0.35 -1.20 0.30 -1.20 -0.20 0 -1.35 5.45 -1.85 6.50 -0.55 0.35 0.40 0.50 1.30 0.40 1.95 -0.20 1 0 1.30 0.95 1.55 0.70 0.15 1.85 0.85 2.55 1.55 0.75 0.70 1.75 1.50 2.30 1.80 0.75 0.40 0.70 0.20 -0.30 -1.15 -0.70 -0.95 -1.15 -2 -1.05 -2.30 0.30 -0.90 1.15 -0.80 1.15 0.10 0 0.40 0.35 0.75 0.80 0.75 0.50 0 0.70 -0.30 0.50 -0.75 -0.15 -0.45 0 -0.75 0.45 -0.75 0.40 0 0.75 0.45 0.75 1 0 0.55 -0.20 1 -0.50 1 -0.80 0 -0.55 0.95 0.55 2.05 1.10 1.10 0.95 2 -0.20 1.05 -0.80 -0.70 -2.85 -0.20 -2.85 0.65 0 0.75 -2.95 1.40 -4.15 0.95 -0.45 -0.15 -0.65 -0.60 -0.50 -1 0.15 -0.40 -0.15 -1.20 -0.60 -1.70 -0.90 -1 -0.95 -1 -2.30 0.60 -0.75 0.90 -1.50 1.50 -1.65 1.35 -0.20 -0.20 0.30 -1.05 1.05 -1.95 1.20 -1.40 1.20 -1.55 0.30 -1.10 -1 0.55 -1.80 2.05 -1.90 3.35 0 0.70 -2.25 0.95 -2.25 0.30z m8.40 -3 c-0.65 -0.85 -1.35 -1.50 -1.60 -1.50 -0.30 -0.05 0.15 0.65 0.95 1.45 1.85 1.90 2.15 1.95 0.65 0.05z"/>
  <path d="M18.30 28.70 c-1.60 -1.40 -1.40 -2.15 0.35 -1.35 0.60 0.30 1.15 1 1.20 1.60 0.10 1.30 0.20 1.30 -1.55 -0.25z"/>
  <path d="M36 7.20 c-0.70 -0.35 -1.85 -0.70 -2.60 -0.70 -0.85 0 -1.40 -0.25 -1.40 -0.70 0 -0.85 1.25 -1.35 2.35 -0.95 0.80 0.30 0.80 0.25 0 -0.85 -1.15 -1.65 -1.10 -3 0.15 -3 0.75 0 1 0.35 1 1.25 0 0.80 0.30 1.25 0.75 1.25 0.40 0 0.75 0.30 0.75 0.70 0 0.40 0.35 0.85 0.80 1 1.05 0.40 1.05 0.45 1 -0.75 -0.05 -0.60 0.25 -1.20 0.60 -1.30 0.40 -0.15 0.60 0.50 0.60 2.30 0 2.45 -0.05 2.55 -1.35 2.50 -0.80 -0.05 -1.95 -0.35 -2.65 -0.75z"/>
  <path d="M13.95 3.95 c-0.55 -0.55 -0.90 -1.15 -0.80 -1.30 0.35 -0.30 2.85 1.35 2.85 1.90 0 0.75 -0.95 0.50 -2.05 -0.60z"/>
  <path d="M27.75 2 c-0.40 -0.65 0.65 -2 1.55 -2 0.40 0 0.70 0.50 0.70 1.25 0 0.90 -0.25 1.25 -0.95 1.25 -0.55 0 -1.15 -0.25 -1.30 -0.50z"/>
 </g>
 <g fill="#384085">
  <path d="M28 39.30 c0 -0.40 0.80 -1.65 1.80 -2.85 1.10 -1.30 1.70 -2.50 1.55 -3.05 -0.30 -1.10 0.05 -1.10 1.35 -0.15 1.35 1 2.10 0.95 1.25 -0.10 -0.65 -0.75 -0.60 -0.75 0.45 -0.20 1.65 0.90 1.35 1.95 -0.65 2.35 -0.95 0.15 -1.75 0.45 -1.75 0.65 0.05 0.15 0.70 1.05 1.45 1.95 1.15 1.30 1.50 1.50 1.70 0.90 0.20 -0.50 0.05 -0.80 -0.40 -0.80 -0.40 0 -0.75 -0.20 -0.75 -0.50 0 -0.60 0.25 -0.65 1.40 -0.05 0.45 0.25 1.25 0.60 1.75 0.75 0.90 0.30 1.20 1.80 0.35 1.80 -0.25 0 -0.50 -0.35 -0.50 -0.75 0 -0.40 -0.30 -0.75 -0.70 -0.75 -0.40 0 -0.80 0.35 -1 0.75 -0.30 0.85 -4.30 1.10 -4.30 0.25 0 -0.25 -0.45 -0.50 -1 -0.50 -0.55 0 -1 0.25 -1 0.50 0 0.30 -0.20 0.50 -0.50 0.50 -0.25 0 -0.50 -0.30 -0.50 -0.70z"/>
  <path d="M24.50 34.60 c0 -1.10 0.95 -2.10 1.95 -2.10 0.60 0 0.60 0.15 0.15 0.60 -1.20 1.20 -0.60 1.55 0.65 0.40 0.70 -0.65 1.25 -0.90 1.25 -0.60 0 0.60 -2.85 2.60 -3.60 2.60 -0.25 0 -0.40 -0.40 -0.40 -0.90z"/>
  <path d="M35.75 30.50 c-0.95 -1.20 -1.90 -1.95 -2.60 -2 -1.30 0 -1.60 -1.50 -0.35 -1.50 0.45 0 1.60 -0.80 2.50 -1.80 1.25 -1.30 1.70 -2.25 1.70 -3.50 0 -1.55 0.10 -1.70 1.50 -1.70 0.85 0 1.50 0.25 1.50 0.50 0 0.30 -0.55 0.50 -1.25 0.50 -0.70 0 -1.25 0.25 -1.25 0.50 0 0.30 0.25 0.50 0.55 0.50 0.25 0 0.45 0.40 0.40 0.90 -0.20 2 0.10 3.10 0.80 3.10 0.40 0 0.75 0.25 0.75 0.50 0 0.30 -0.55 0.50 -1.25 0.50 -1.35 0 -1.70 0.75 -0.50 1.20 0.85 0.30 1.05 2.30 0.20 2.30 -0.30 0 -0.45 0.45 -0.30 1 0.40 1.60 -0.75 1.10 -2.40 -1z m1.85 -1.60 c-0.30 -0.30 -0.75 -0.45 -0.90 -0.25 -0.20 0.15 -0.20 0.70 0 1.15 0.25 0.65 0.45 0.75 0.90 0.30 0.45 -0.45 0.45 -0.75 0 -1.20z"/>
  <path d="M17.40 28.15 c-0.50 -0.15 -0.90 -0.55 -0.90 -0.90 0 -1.15 0.80 -1.30 1.70 -0.30 0.95 1 0.60 1.50 -0.80 1.20z"/>
  <path d="M14.50 27.55 c0 -0.90 2.05 -6.85 2.75 -8.05 0.75 -1.25 0.80 -1.25 0.60 0.75 -0.35 2.95 -2 7.75 -2.70 7.75 -0.35 0 -0.65 -0.20 -0.65 -0.45z"/>
  <path d="M14 22.50 c0 -0.25 0.45 -0.70 0.95 -0.95 0.80 -0.45 0.90 -0.40 0.70 0.45 -0.25 1 -1.65 1.45 -1.65 0.50z"/>
  <path d="M19.35 18.40 c-0.40 -0.85 -1.40 -1.85 -2.20 -2.20 l-1.40 -0.60 1.90 -0.05 c1.35 -0.05 1.85 0.15 1.85 0.70 0 0.45 0.45 0.75 1.25 0.75 0.90 0 1.25 -0.25 1.25 -1 0 -1.10 0.75 -1.35 1.15 -0.35 0.20 0.50 0.30 0.50 0.30 0 0.05 -0.90 2 -0.80 2.40 0.10 0.15 0.45 -0.10 1.10 -0.65 1.50 -0.55 0.35 -1 0.45 -1.10 0.20 -0.30 -0.70 -1.10 -0.55 -1.10 0.25 0 0.70 -1.80 2.30 -2.55 2.30 -0.20 0 -0.65 -0.70 -1.10 -1.60z"/>
  <path d="M16 18 c0 -0.70 0.35 -1 1.10 -1 1 0 1.05 0.05 0.15 1 -0.50 0.55 -1 1 -1.10 1 -0.05 0 -0.15 -0.45 -0.15 -1z"/>
  <path d="M37.10 18.15 c0.10 -0.55 0.70 -0.95 1.55 -1.05 1.10 -0.15 1.35 0.05 1.35 0.85 0 0.85 -0.30 1.05 -1.55 1.05 -1.20 0 -1.50 -0.20 -1.35 -0.85z"/>
  <path d="M25.80 14.15 c-0.20 -0.50 0.05 -1.15 0.70 -1.75 0.55 -0.50 1 -1.15 1 -1.40 0 -0.30 0.55 -0.50 1.20 -0.50 0.70 0 1.40 -0.20 1.55 -0.50 0.15 -0.25 1.40 -0.50 2.80 -0.50 1.35 0 2.45 -0.20 2.45 -0.50 0 -0.55 2.45 -0.70 3.70 -0.20 0.50 0.20 0.80 0.90 0.80 2.05 0 1.70 -0.05 1.75 -1.60 1.45 -0.90 -0.20 -2.05 -0.35 -2.50 -0.35 -0.50 0 -1.20 -0.50 -1.65 -1.10 -0.40 -0.55 -0.90 -0.85 -1.10 -0.65 -0.20 0.20 -0.05 0.55 0.30 0.75 0.55 0.35 0.45 0.55 -0.45 1.05 -0.60 0.30 -1.15 0.50 -1.20 0.40 -0.05 -0.10 -0.40 -0.70 -0.70 -1.40 -0.60 -1.20 -0.60 -1.20 -0.45 0.40 0.20 2 -0.35 2.45 -1.30 1.10 -0.35 -0.55 -0.85 -0.85 -1 -0.65 -0.20 0.15 -0.10 0.60 0.20 0.95 0.30 0.40 0.45 1.05 0.25 1.45 -0.35 1 -2.60 0.95 -3 -0.10z"/>
  <path d="M25.75 7.50 c0.80 -0.90 0.80 -1 0.05 -1.30 -1.70 -0.65 -0.80 -1.35 1.45 -1.05 2.45 0.35 3.40 -0.30 1.95 -1.40 -0.85 -0.65 -0.75 -0.70 1.20 -0.75 2.15 0 2.55 0.35 1.50 1.40 -0.45 0.45 -0.40 0.60 0.25 0.60 0.45 0 0.85 0.35 0.85 0.75 0 0.55 -0.60 0.75 -2.25 0.75 -1.90 0 -2.25 0.15 -2.25 1 0 0.80 -0.35 1 -1.85 1 -1.75 0 -1.80 0 -0.90 -1z"/>
  <path d="M33.50 5.75 c0 -0.40 0.40 -0.75 0.85 -0.75 0.65 0 0.70 -0.15 0.25 -0.60 -1 -1 -0.70 -1.40 0.95 -1.40 1.40 0 1.55 0.15 1.35 1.25 -0.15 0.65 -0.05 1.10 0.15 0.95 0.25 -0.15 0.45 0.10 0.45 0.50 0 0.60 -0.50 0.80 -2 0.80 -1.45 0 -2 -0.20 -2 -0.75z"/>
 </g>
 <g fill="#465870">
  <path d="M1.50 39.85 c0 -0.10 0.45 -1.10 1 -2.25 1.35 -2.75 1.25 -3.30 -0.25 -1.85 -1.45 1.50 -2.25 1.60 -2.25 0.25 0 -0.55 0.15 -1 0.40 -1 0.20 0 0.65 -0.50 1.05 -1.10 0.50 -0.90 0.55 -1 0 -0.50 -1.10 1 -1.45 0.70 -1.45 -1.35 0 -1.75 0.10 -1.95 1.15 -1.75 0.60 0.10 0.80 0.10 0.50 -0.10 -1.20 -0.55 -0.70 -1.70 0.75 -1.70 1 0 1.60 -0.40 2.30 -1.55 0.65 -1.10 1.05 -1.35 1.50 -1 0.50 0.40 0.90 0.25 1.55 -0.45 0.70 -0.80 1 -0.85 1.30 -0.40 0.35 0.50 0.55 0.50 1.05 -0.15 1 -1.20 4.90 -3.65 5.25 -3.30 0.15 0.20 -0.30 1.75 -1 3.45 -0.75 1.75 -1.35 3.50 -1.35 3.95 0 0.45 -0.45 1.35 -1.05 2 -0.95 1.15 -1 1.15 -0.50 0.10 0.70 -1.35 0.70 -4.65 0.05 -4.65 -0.25 0 -0.35 0.65 -0.20 1.45 0.25 1.20 0.05 1.65 -1.25 2.60 -0.85 0.60 -1.55 1.40 -1.55 1.70 0 0.25 -0.55 1.30 -1.15 2.25 -0.65 0.95 -1.10 2 -1 2.35 0.45 1.25 -1.50 3.10 -3.20 3.15 -0.90 0 -1.65 -0.05 -1.65 -0.15z m5.50 -9.75 c0 -0.25 0.55 -0.75 1.25 -1.10 0.70 -0.35 1.25 -0.90 1.25 -1.20 0 -0.30 -0.25 -0.25 -0.60 0.10 -0.35 0.35 -0.95 0.60 -1.40 0.60 -0.40 0 -1.15 0.45 -1.65 1 -0.80 0.95 -0.80 1 0.15 1 0.55 0 1 -0.20 1 -0.40z"/>
  <path d="M0 38.60 c0 -0.20 0.45 -0.65 1 -1 1.10 -0.65 1.35 -0.15 0.40 0.80 -0.70 0.70 -1.40 0.80 -1.40 0.20z"/>
  <path d="M21 38.30 c0 -0.65 5 -6.60 6.20 -7.40 0.35 -0.25 0.35 -0.40 0.05 -0.40 -0.25 0 0.05 -0.35 0.75 -0.75 l1.25 -0.70 -1.30 -0.05 c-0.75 0 -1.60 0.35 -1.95 0.75 -0.35 0.45 -1 0.65 -1.35 0.50 -1.15 -0.40 -2.55 0.65 -3.60 2.65 -0.80 1.40 -1 1.60 -1.05 0.80 0 -1.95 2.10 -4.30 4.65 -5.10 2.20 -0.70 2.95 -1.65 1.85 -2.35 -0.25 -0.15 -1.40 0.20 -2.55 0.75 -2.50 1.30 -2.45 0.25 0.05 -1.10 2.35 -1.25 5.60 -1.20 6.75 0.10 0.60 0.65 1.45 1 2.20 0.90 1.25 -0.15 3.05 1.10 3.05 2.05 0 0.25 0.90 1.40 2 2.55 1.15 1.20 1.95 2.25 1.80 2.35 -0.40 0.40 -2.50 -1.35 -4.05 -3.35 -1.55 -2 -2.25 -2.45 -2.25 -1.45 0 0.70 5.30 5.95 6 5.95 0.30 0 0.50 0.70 0.50 1.50 0 0.85 -0.20 1.50 -0.50 1.50 -0.25 0 -0.50 -0.15 -0.50 -0.35 0 -0.70 -3.25 -2.65 -4.35 -2.65 -0.55 0 -1.90 -0.80 -2.95 -1.75 -2.20 -1.95 -1.85 -2.40 0.40 -0.50 2.20 1.85 2.85 1.50 0.90 -0.50 -0.95 -0.95 -1.95 -1.70 -2.25 -1.70 -0.25 0 -1.15 0.90 -1.90 2 -0.80 1.15 -1.55 1.95 -1.70 1.80 -0.15 -0.15 0.25 -1 0.85 -1.80 0.60 -0.85 0.85 -1.55 0.55 -1.55 -0.60 0 -2.55 2.65 -2.55 3.50 0 0.30 -0.70 0.80 -1.50 1.10 -0.85 0.25 -1.85 1.15 -2.30 1.95 -0.80 1.60 -1.20 1.85 -1.20 0.75z"/>
  <path d="M18.15 28.35 c-0.65 -0.25 -1.15 -0.80 -1.15 -1.20 0 -0.90 0.50 -0.80 1.95 0.30 1.35 1.05 0.85 1.65 -0.80 0.90z"/>
  <path d="M14.50 27.55 c0 -0.25 0.45 -1.95 1.05 -3.85 0.65 -2.15 1.20 -3.15 1.45 -2.70 0.45 0.70 -0.20 3.40 -1 4.20 -0.25 0.25 -0.50 1 -0.50 1.65 0 0.65 -0.20 1.15 -0.50 1.15 -0.25 0 -0.50 -0.20 -0.50 -0.45z"/>
  <path d="M8 23.25 c0 -0.40 -0.20 -0.75 -0.50 -0.75 -1.60 0 0.50 -2.45 2.15 -2.50 0.45 0 0.85 -0.30 0.85 -0.60 0 -0.35 0.35 -1.10 0.80 -1.65 0.60 -0.85 0.80 -0.90 1.20 -0.25 0.30 0.50 0.20 1 -0.30 1.55 -1.15 1.25 -0.80 1.55 0.80 0.70 0.80 -0.40 1.70 -1.20 2 -1.75 0.60 -1.10 2.70 -1.40 2.40 -0.35 -0.30 0.85 -5.30 4.70 -7.35 5.60 -2.05 0.90 -2.05 0.90 -2.05 0z"/>
  <path d="M20.85 18.55 c0.15 -0.60 0.05 -1.05 -0.25 -1.05 -0.30 0 -0.60 0.40 -0.75 0.90 -0.15 0.70 -0.30 0.60 -0.75 -0.45 -0.70 -1.70 -2.85 -2.30 -4.15 -1.20 -1.45 1.40 -2.10 0.45 -1.75 -2.55 0.35 -3 -0.05 -3.65 -3.20 -5.35 -0.90 -0.50 -1.55 -1 -1.40 -1.10 0.45 -0.45 4 1 5.15 2.10 1.05 1.10 1.20 1.15 1.45 0.30 0.10 -0.50 0.20 0.35 0.15 1.85 l-0.10 2.70 1.75 0.35 c1.10 0.25 2.30 0.10 3.35 -0.30 1.85 -0.80 2.20 -1.75 0.65 -1.75 -0.80 0 -1 -0.35 -1 -1.50 0 -1.80 0.65 -1.90 1.75 -0.35 0.65 0.95 0.85 1 1.25 0.35 0.30 -0.50 0.50 -0.55 0.50 -0.10 0 0.30 0.25 0.60 0.50 0.60 0.30 0 0.50 -0.55 0.50 -1.25 0 -0.95 0.25 -1.25 1.15 -1.30 1.05 -0.05 1.05 -0.05 -0.10 -0.40 l-1.25 -0.35 1.35 -1 1.30 -1.05 -1.10 -0.55 c-0.60 -0.30 -0.80 -0.55 -0.45 -0.55 0.30 -0.05 0.60 -0.50 0.60 -1 0 -1.55 0.95 -1.75 1.50 -0.30 0.45 1.15 0.70 1.30 2.05 1 0.85 -0.20 2.70 -0.35 4.10 -0.35 2.20 0 2.40 -0.05 1.35 -0.45 -0.90 -0.35 -1.05 -0.60 -0.55 -0.90 0.50 -0.35 0.45 -0.45 -0.15 -0.70 -1 -0.40 -1 -1.20 -0.10 -2.15 1.05 -1.05 2.30 -0.85 2.30 0.30 0 0.55 -0.20 1 -0.50 1 -0.25 0 -0.50 0.25 -0.50 0.50 0 0.30 0.35 0.50 0.80 0.50 0.60 0 0.75 0.35 0.60 1.20 -0.15 0.80 -0.05 1.15 0.35 1 0.35 -0.15 0.75 0.10 0.95 0.55 0.15 0.50 0.60 0.75 1.05 0.55 0.40 -0.15 0.75 0 0.75 0.35 0 0.45 -1.50 0.55 -6 0.40 -5.90 -0.15 -6 -0.15 -6 0.95 0 0.95 0.10 1 0.75 0.50 0.60 -0.50 0.80 -0.40 1.25 0.75 0.25 0.70 0.50 1.90 0.50 2.60 0 1.25 0 1.30 -1 0.40 -1.05 -0.95 -1.15 -0.85 -1.10 1.25 0.05 0.80 -0.05 0.95 -0.20 0.40 -0.15 -0.50 -0.50 -0.90 -0.80 -0.90 -0.25 0 -0.40 0.35 -0.25 0.75 0.45 1.10 -0.65 1.45 -1.40 0.45 -0.60 -0.80 -0.70 -0.80 -0.75 -0.20 0 0.45 0.25 1.05 0.55 1.35 0.75 0.75 0.10 1.75 -1.10 1.55 -0.65 -0.10 -1.20 0.30 -1.60 1.10 -0.80 1.60 -2.40 2 -2 0.55z"/>
  <path d="M31.60 11.25 c-0.35 -0.40 -0.85 -1.30 -1.10 -2 -0.40 -1.10 -0.35 -1.25 0.65 -1.25 0.60 0 2.30 -0.15 3.75 -0.35 l2.65 -0.30 -0.15 2.10 c-0.15 2 -1.40 3.05 -1.40 1.20 -0.05 -0.80 -0.10 -0.80 -0.75 0.05 -0.65 0.85 -0.75 0.85 -1.05 0.15 -0.45 -1.15 -1.20 -1.05 -1.20 0.15 0 1.15 -0.50 1.25 -1.40 0.25z"/>
  <path d="M17.35 10.60 c-0.45 -0.50 -0.85 -1.35 -0.85 -1.85 0 -0.70 0.20 -0.65 1.05 0.45 1.20 1.55 1.05 2.80 -0.20 1.40z"/>
  <path d="M21.40 7.95 c-0.85 -0.90 -0.85 -0.95 0.55 -0.95 1 0 1.50 0.30 1.70 1 0.35 1.30 -1.05 1.30 -2.25 -0.05z"/>
  <path d="M17.80 5.75 c-0.55 -0.40 -1.35 -0.75 -1.80 -0.75 -0.45 0 -1.35 -0.55 -2 -1.25 -1.30 -1.35 -0.85 -1.65 0.70 -0.50 0.55 0.40 1.75 0.75 2.65 0.75 1.45 0 1.65 0.15 1.65 1.25 0 1.45 0.05 1.45 -1.20 0.50z"/>
  <path d="M19.50 5.25 c0 -1.20 0.05 -1.25 1.60 -0.60 2.30 0.95 2.40 1.85 0.20 1.85 -1.60 0 -1.80 -0.15 -1.80 -1.25z"/>
  <path d="M28.75 3.30 c-1.60 -1.60 -1.60 -2.30 0 -2.30 1 0 1.25 0.25 1.30 1.40 0.05 1.20 0.10 1.15 0.40 -0.35 0.30 -1.65 0.35 -1.70 1.20 -0.85 0.50 0.50 0.85 1.40 0.75 2 -0.20 1.55 -2.10 1.60 -3.65 0.10z"/>
  <path d="M39 2.50 c0 -0.55 0.25 -1 0.50 -1 0.30 0 0.50 0.45 0.50 1 0 0.55 -0.20 1 -0.50 1 -0.25 0 -0.50 -0.45 -0.50 -1z"/>
 </g>
 <g fill="#526985">
  <path d="M2.30 38.40 c0.45 -0.90 1.05 -2.05 1.25 -2.50 0.90 -1.80 0.40 -1.95 -1.40 -0.35 -1.60 1.35 -1.95 1.50 -2.05 0.75 -0.10 -0.45 0.40 -1.30 1.10 -1.85 0.70 -0.55 1.30 -1.30 1.30 -1.60 0 -0.40 -0.20 -0.35 -0.60 0.05 -1 1 -1.90 0.70 -1.90 -0.65 0 -0.75 0.30 -1.25 0.70 -1.25 0.35 0 1 -0.40 1.35 -0.85 0.50 -0.55 0.50 -0.70 0.10 -0.45 -0.40 0.20 -0.65 0.05 -0.65 -0.45 0 -0.45 0.25 -0.65 0.50 -0.50 0.90 0.55 2.35 -0.25 2.95 -1.60 0.50 -1.10 0.70 -1.20 1.10 -0.60 0.40 0.55 0.70 0.45 1.70 -0.80 1 -1.20 1.25 -1.30 1.25 -0.60 0 0.60 0.20 0.80 0.65 0.50 0.30 -0.20 1.10 -0.30 1.75 -0.20 0.60 0.05 1.10 -0.10 1.10 -0.40 0 -0.30 -0.35 -0.55 -0.85 -0.55 -0.45 0 0.15 -0.65 1.40 -1.45 1.20 -0.85 2.25 -1.45 2.30 -1.40 0.15 0.15 -1 3.45 -1.45 4.10 -0.15 0.30 -0.60 1.50 -0.95 2.75 l-0.65 2.25 -0.30 -1.75 c-0.25 -1.70 -0.30 -1.70 -0.65 -0.45 -0.15 0.70 -0.90 1.55 -1.60 1.95 -0.70 0.35 -1.25 0.95 -1.25 1.30 0 0.35 -0.55 1.50 -1.25 2.50 -0.70 1 -1.25 2.30 -1.25 2.90 -0.05 1.70 -1.20 2.80 -2.95 2.80 l-1.60 0 0.85 -1.60z m5.25 -8.40 c0.25 0 0.45 -0.20 0.45 -0.50 0 -0.25 -0.55 -0.50 -1.25 -0.50 -0.80 0 -1.25 0.30 -1.25 0.80 0 0.55 0.25 0.70 0.80 0.50 0.45 -0.15 1 -0.30 1.25 -0.30z"/>
  <path d="M21 38.75 c0 -0.80 1.60 -3.15 2.95 -4.40 0.85 -0.80 1.90 -2.10 2.40 -2.90 0.50 -0.80 1.25 -1.60 1.75 -1.75 1.05 -0.30 1.20 -1.20 0.25 -1.20 -0.35 0 -1.15 0.35 -1.75 0.80 -1 0.65 -1.10 0.65 -1.10 0 0 -0.40 0.45 -1 1 -1.30 0.55 -0.30 0.85 -0.80 0.70 -1.25 -0.40 -1 -1.10 -0.95 -3.35 0.25 -2.10 1.10 -2.40 0.90 -0.70 -0.50 0.60 -0.50 2.30 -1.10 3.75 -1.30 2.45 -0.30 2.80 -0.20 4.10 1.05 1.15 1.10 1.55 1.25 2.40 0.80 0.60 -0.30 1.45 -0.55 1.95 -0.55 0.75 0 0.80 0.10 0.15 0.55 -0.55 0.40 -0.60 0.60 -0.10 0.80 0.30 0.10 0.60 0.50 0.60 0.90 0 0.35 0.90 1.60 2 2.75 1.10 1.20 1.90 2.25 1.75 2.40 -0.15 0.15 -1.50 -1 -3 -2.55 -1.50 -1.55 -2.85 -2.85 -3 -2.85 -0.80 0 0 1.55 1.75 3.25 1.10 1.05 2 2.25 2 2.60 0 0.35 0.55 0.65 1.25 0.65 0.90 0 1.25 0.25 1.25 1 0 0.55 -0.30 1 -0.70 1 -0.35 0 -1.25 -0.45 -1.95 -1 -0.70 -0.55 -1.80 -1 -2.45 -1 -0.60 0 -1.45 -0.20 -1.85 -0.45 -0.50 -0.35 -0.95 -0.20 -1.40 0.35 -0.60 0.75 -0.65 0.70 -0.35 -0.45 0.15 -0.75 0.05 -1.50 -0.25 -1.65 -0.30 -0.20 -0.55 -0.60 -0.55 -0.85 0 -0.30 0.70 0.05 1.55 0.75 0.85 0.70 1.90 1.30 2.35 1.30 0.60 0 0.35 -0.40 -0.75 -1.30 -0.90 -0.70 -1.65 -1.60 -1.65 -2.05 0 -0.55 -0.25 -0.65 -0.85 -0.40 -0.50 0.20 -1.40 0.50 -2.05 0.60 -1.25 0.30 -3.10 2.35 -3.10 3.50 0 0.40 -0.70 0.95 -1.50 1.25 -0.85 0.25 -1.85 1.15 -2.30 1.95 -0.65 1.35 -1.20 1.85 -1.20 1.20z m8.60 -12.35 c-0.45 -0.45 -0.75 -0.45 -1.20 0 -0.45 0.45 -0.35 0.60 0.60 0.60 0.95 0 1.05 -0.15 0.60 -0.60z"/>
  <path d="M27.80 32.75 c0.45 -0.70 0.95 -1.20 1.05 -1.05 0.35 0.35 -0.80 2.30 -1.40 2.30 -0.25 0 -0.10 -0.55 0.35 -1.25z"/>
  <path d="M21.50 30.70 c0 -0.75 1.50 -1.70 2.70 -1.70 1.30 0 0.85 0.70 -0.95 1.55 -1.40 0.65 -1.75 0.70 -1.75 0.15z"/>
  <path d="M17.90 28.15 c-0.50 -0.10 -0.90 -0.55 -0.90 -0.95 0 -1 0.70 -0.85 1.75 0.30 0.90 1 0.80 1.10 -0.85 0.65z"/>
  <path d="M14.50 27.55 c0 -1.05 1.70 -5.55 2.10 -5.55 0.60 0 0.50 0.85 -0.45 3.55 -0.80 2.15 -1.65 3.25 -1.65 2z"/>
  <path d="M7.25 23.50 c-0.20 -0.30 0.25 -0.50 1.05 -0.50 1.20 0 1.30 -0.15 1.05 -1.45 -0.30 -1.45 -0.25 -1.50 1.70 -1.40 1.65 0.05 2.25 -0.20 3.50 -1.55 1.60 -1.70 2.45 -2.05 2.45 -0.90 0 0.40 -0.90 1.35 -2.05 2.15 -1.15 0.75 -2.40 1.80 -2.85 2.30 -0.45 0.45 -1.20 0.85 -1.70 0.85 -0.45 0 -1 0.25 -1.15 0.50 -0.15 0.30 -0.60 0.50 -1 0.50 -0.40 0 -0.85 -0.20 -1 -0.50z"/>
  <path d="M17 19.95 c0.35 -0.55 0.70 -0.90 0.85 -0.75 0.40 0.40 -0.25 1.80 -0.85 1.80 -0.35 0 -0.35 -0.30 0 -1.05z"/>
  <path d="M10.85 19.70 c-0.25 -0.30 0.60 -2.70 1.15 -3.20 0.15 -0.15 0.60 -1.20 0.95 -2.35 0.60 -1.85 0.60 -2.25 -0.15 -3.40 -0.65 -1 -0.70 -1.25 -0.10 -1.25 0.35 0 0.95 0.35 1.30 0.75 0.35 0.40 0.80 0.60 1.05 0.45 0.55 -0.35 0.60 1.10 0 3.05 -0.40 1.50 -0.40 1.50 1.65 1.45 3.75 -0.10 4.15 -0.20 5.20 -1.15 0.60 -0.50 1.10 -1.30 1.10 -1.75 0 -0.45 0.35 -0.80 0.75 -0.80 0.90 0 0.95 -0.70 0.25 -2.05 -0.40 -0.70 -0.35 -0.95 0.10 -0.95 0.80 0 3.35 -1.95 2.60 -2 -0.35 0 -0.45 -0.55 -0.30 -1.25 0.10 -0.75 0 -1.25 -0.35 -1.25 -0.30 0 -0.55 0.45 -0.55 1 0 0.85 -0.15 0.90 -0.90 0.45 -0.60 -0.40 -0.90 -1.30 -1 -3 -0.10 -2.15 0 -2.45 0.90 -2.45 0.65 0 1 0.35 1 0.90 0 0.55 0.45 1.35 1 1.85 0.55 0.50 1 1.35 1 1.90 0 0.80 0.25 0.95 1.50 0.70 1.15 -0.25 1.65 -0.05 2.40 0.90 1.30 1.65 2.05 1.60 1.70 -0.05 -0.20 -1.25 -0.15 -1.30 1.10 -1.10 1.60 0.30 2.25 -0.35 0.75 -0.75 -1 -0.25 -1 -0.35 -0.25 -1.10 0.45 -0.45 0.80 -1.35 0.80 -2.05 0 -1.35 1.05 -1.60 2 -0.45 0.50 0.60 0.45 1.10 -0.20 2.45 -0.45 0.95 -0.80 1.80 -0.80 1.90 0 0.10 0.80 0.50 1.75 0.90 1.40 0.55 1.75 0.95 1.75 2.10 0 1.15 -0.20 1.40 -1.30 1.40 -0.85 0 -1.40 0.30 -1.55 1 -0.40 1.45 -1.15 1.20 -1.20 -0.35 l-0.05 -1.40 -0.65 1.50 c-0.70 1.45 -0.75 1.45 -1.05 0.40 -0.45 -1.65 -1.90 -1.55 -1.50 0.10 0.20 0.70 0.20 1.25 0 1.25 -0.50 0 -1.55 -1.30 -1.90 -2.35 -0.20 -0.60 -0.70 -1.35 -1.20 -1.75 -0.75 -0.55 -0.75 -0.55 -0.30 0.10 0.75 1 1.70 5 1.20 5 -0.25 0 -0.90 -0.60 -1.45 -1.35 -1 -1.35 -1 -1.35 -1.05 -0.25 0 0.60 -0.20 1.10 -0.50 1.10 -0.25 0 -0.50 -0.35 -0.50 -0.75 0 -0.40 -0.20 -0.75 -0.50 -0.75 -0.70 0 -0.60 0.85 0.30 2.20 0.55 0.90 0.60 1.30 0.15 1.55 -0.30 0.25 -0.80 0.05 -1.05 -0.45 -0.85 -1.45 -1.45 -0.85 -0.65 0.70 0.70 1.35 0.70 1.55 0.05 1.80 -0.40 0.15 -1 0.15 -1.25 0 -0.30 -0.20 -0.75 0.20 -1.10 0.80 -1.10 2.10 -2.45 2.50 -2.05 0.65 0.25 -1.55 -0.30 -1.65 -0.85 -0.15 -0.40 1.10 -0.40 1.05 -1.10 -0.35 -0.80 -1.65 -3.10 -2.30 -4.10 -1.15 -1.45 1.60 -3.70 3.40 -4 3.10z"/>
  <path d="M18.85 12.15 c-0.65 -0.75 -0.65 -1 -0.05 -1.50 0.95 -0.90 2.10 -0.80 2.60 0.25 1.05 1.95 -1 2.95 -2.55 1.25z"/>
  <path d="M16.65 9.25 c-0.45 -1.20 0.05 -1.35 0.75 -0.25 0.40 0.65 0.40 1 0.10 1 -0.30 0 -0.65 -0.35 -0.85 -0.75z"/>
  <path d="M18.40 6.15 l-1.55 -1.60 1.25 -0.30 c0.80 -0.20 2 0.05 3.15 0.60 2.05 0.95 2.90 2.15 1.55 2.15 -0.45 0 -0.80 0.20 -0.80 0.40 0 0.95 -2.15 0.25 -3.60 -1.25z"/>
  <path d="M14.15 3.70 l-1.40 -1.30 1.65 0.90 c0.85 0.50 1.60 1.10 1.60 1.30 0 0.65 -0.35 0.45 -1.85 -0.90z"/>
  <path d="M38.80 4.60 c-0.35 -0.60 0.25 -2.60 0.75 -2.60 0.25 0 0.45 0.70 0.45 1.50 0 1.40 -0.65 2 -1.20 1.10z"/>
  <path d="M30.20 4.05 c0.55 -0.90 -0.30 -2.05 -1.50 -2.05 -1.40 0 -1.50 -0.30 -0.50 -1.30 1.35 -1.30 3.15 -0.65 3.95 1.45 0.45 1.25 -0.10 2.35 -1.25 2.35 -0.50 0 -0.85 -0.20 -0.70 -0.45z"/>
 </g>
 <g fill="#4d57a1">
  <path d="M30.80 38.90 c-0.45 -0.25 -1.20 -0.35 -1.60 -0.20 -1.15 0.45 -0.80 -0.40 1 -2.75 1.30 -1.60 1.60 -2.35 1.20 -2.80 -0.90 -1.15 0.40 -0.70 1.40 0.45 0.80 0.90 0.85 1.05 0.10 0.75 -1.60 -0.55 -1.65 1.55 -0.10 3.20 0.75 0.80 1.10 1.45 0.80 1.45 -0.35 0 -0.60 -0.30 -0.60 -0.60 -0.05 -0.40 -0.25 -0.35 -0.65 0.20 -0.50 0.60 -0.85 0.70 -1.55 0.30z"/>
  <path d="M36.65 31.20 c-0.55 -1.50 -2.75 -3.35 -3.15 -2.70 -0.30 0.45 -0.45 0.45 -0.75 0 -0.20 -0.35 0.45 -1.25 1.65 -2.30 1.15 -0.95 2.20 -2.15 2.35 -2.70 0.50 -1.60 1.25 -1.15 1.25 0.75 0 1.40 0.20 1.75 1 1.75 0.55 0 1 0.25 1 0.55 0 0.35 -0.65 0.45 -1.85 0.25 -1.90 -0.30 -4.05 0.50 -2.75 1.05 0.30 0.10 0.60 0.50 0.60 0.85 0 0.35 0.45 1.05 1 1.55 0.55 0.50 1 1.10 1 1.35 0 0.70 -1 0.45 -1.35 -0.40z"/>
  <path d="M38 29.50 c0 -0.95 0.15 -1.05 0.60 -0.60 0.45 0.45 0.45 0.75 0 1.20 -0.45 0.45 -0.60 0.35 -0.60 -0.60z"/>
  <path d="M4.50 28.30 c0 -1 1.30 -2 1.75 -1.30 0.25 0.40 0.55 0.25 1.05 -0.35 0.60 -0.80 0.65 -0.75 0.70 0.75 0 1.50 -0.10 1.60 -1.75 1.60 -1.15 0 -1.75 -0.25 -1.75 -0.70z"/>
  <path d="M17.90 28.15 c-0.50 -0.10 -0.90 -0.55 -0.90 -0.95 0 -0.60 0.20 -0.60 1 -0.20 0.55 0.30 1 0.75 1 1 0 0.30 -0.05 0.45 -0.10 0.45 -0.10 -0.05 -0.55 -0.15 -1 -0.30z"/>
  <path d="M14.50 27.75 c0 -0.70 1.45 -5.15 2.40 -7.25 1.30 -3.05 1.25 -0.65 -0.10 3.10 -1.20 3.35 -2.30 5.30 -2.30 4.15z"/>
  <path d="M13.50 23.10 c0 -0.20 0.50 -0.65 1.05 -1.05 0.95 -0.55 1.05 -0.55 0.75 0.20 -0.15 0.45 -0.30 0.95 -0.30 1.05 0 0.10 -0.35 0.20 -0.75 0.20 -0.40 0 -0.75 -0.15 -0.75 -0.40z"/>
  <path d="M37.65 20.15 c0.45 -0.10 1.25 -0.10 1.75 0 0.45 0.15 0.05 0.25 -0.90 0.25 -0.95 0 -1.35 -0.10 -0.85 -0.25z"/>
  <path d="M21 18.20 c0.30 -0.70 0.50 -1.80 0.50 -2.45 0 -0.95 0.30 -1.20 1.70 -1.35 1.45 -0.15 1.85 0 2.25 0.95 0.45 0.95 0.40 1.25 -0.20 1.45 -0.40 0.15 -0.90 0.15 -1.15 0 -0.25 -0.15 -0.95 0.40 -1.55 1.20 -1.35 1.85 -2.20 2 -1.55 0.20z m3.20 -2.45 c-0.20 -0.40 -0.60 -0.75 -1 -0.75 -1 0 -0.85 0.90 0.20 1.15 0.45 0.15 0.90 0.25 0.95 0.30 0.05 0 0 -0.30 -0.15 -0.70z"/>
  <path d="M37.45 17.80 c0.35 -0.40 1.05 -0.60 1.55 -0.45 1.55 0.40 1.15 1.15 -0.55 1.15 -1.30 0 -1.45 -0.15 -1 -0.70z"/>
  <path d="M26 14.25 c0 -0.40 -0.25 -0.75 -0.60 -0.75 -0.45 0 -0.45 -0.15 0.05 -0.60 0.50 -0.55 0.75 -0.45 1.30 0.30 0.70 0.95 0.60 1.80 -0.30 1.80 -0.25 0 -0.45 -0.35 -0.45 -0.75z"/>
  <path d="M29.50 12.25 c-0.45 -0.50 -0.45 -1.10 -0.10 -2.10 0.50 -1.30 0.50 -1.30 0.55 -0.25 0.05 0.65 0.30 1.60 0.55 2.15 0.60 1.10 -0.10 1.30 -1 0.20z"/>
  <path d="M37.15 11.85 c-0.85 -0.35 -1.15 -0.95 -1.15 -2.20 0 -1.60 0.05 -1.65 2 -1.65 1.80 0 2 0.15 2 1.25 0 0.70 -0.20 1.25 -0.40 1.25 -0.25 0 -0.65 0.40 -0.90 0.95 -0.35 0.75 -0.65 0.85 -1.55 0.40z"/>
  <path d="M34.35 11.15 c-0.55 -0.50 -0.40 -2.15 0.15 -2.15 0.30 0 0.50 0.55 0.50 1.25 0 1.30 -0.10 1.45 -0.65 0.90z"/>
  <path d="M30.85 10 c-0.20 -0.75 0 -1 0.70 -1 0.85 0 0.90 0.15 0.45 1 -0.30 0.55 -0.60 1 -0.70 1 -0.10 0 -0.30 -0.45 -0.45 -1z"/>
  <path d="M23.80 9.75 c0.20 -0.45 0 -0.75 -0.45 -0.75 -0.40 0 -1 -0.35 -1.35 -0.75 -0.35 -0.40 -1.05 -0.75 -1.55 -0.75 -0.60 0 -0.95 -0.35 -0.95 -1 0 -0.80 0.35 -1 1.70 -1 1.50 0 1.75 0.20 2.05 1.50 0.40 1.75 1.65 2 2.95 0.60 0.75 -0.90 0.75 -0.95 -0.45 -1.50 -1.70 -0.80 -1.60 -1.60 0.20 -1.60 1.45 0 2.05 0.70 2.05 2.55 0 0.60 -0.35 0.95 -1 0.95 -0.75 0 -1 0.35 -1 1.25 0 1 -0.25 1.25 -1.25 1.25 -0.90 0 -1.15 -0.20 -0.95 -0.75z"/>
  <path d="M34 6.50 c0 -0.25 -1.15 -0.50 -2.55 -0.50 -1.35 0 -2.40 -0.20 -2.25 -0.45 0.15 -0.25 1.45 -0.40 2.90 -0.35 2.10 0.05 2.65 0.25 2.80 0.95 0.10 0.45 -0.05 0.85 -0.35 0.85 -0.30 0 -0.55 -0.20 -0.55 -0.50z"/>
  <path d="M35.85 6.65 c-0.10 -0.25 -0.15 -0.75 -0.10 -1.25 0.10 -0.45 -0.25 -0.90 -0.80 -1.05 -1.60 -0.45 -1.15 -1.85 0.60 -1.85 1.45 0 1.50 0.10 1.20 1.50 -0.25 1.15 -0.15 1.50 0.45 1.50 0.45 0 0.80 0.35 0.80 0.75 0 0.75 -1.75 1.05 -2.15 0.40z"/>
  <path d="M28.95 3.45 c-1.25 -1.25 -1.05 -2.65 0.45 -2.85 1.60 -0.25 2.60 0.75 2.60 2.45 0 1.80 -1.45 2 -3.05 0.40z"/>
  <path d="M22 1.70 c0 -0.15 0.30 -0.60 0.70 -1 1.05 -1.05 2.30 -0.85 2.30 0.30 0 0.80 -0.35 1 -1.50 1 -0.80 0 -1.50 -0.15 -1.50 -0.30z"/>
 </g>
 <g fill="#5a7198">
  <path d="M4.50 39.85 c0 -0.25 0.25 -0.85 0.50 -1.35 0.40 -0.75 0.35 -0.90 -0.15 -0.70 -1.15 0.45 -2 -1.05 -1.25 -2.25 0.90 -1.50 0.10 -1.90 -1.05 -0.50 -0.75 0.90 -1 1 -1.05 0.40 0 -0.40 0.45 -1.25 1 -1.85 0.55 -0.60 1 -1.40 1 -1.80 0 -0.40 0.30 -0.85 0.65 -0.95 0.30 -0.15 -0.15 -0.15 -1.10 0 l-1.70 0.30 2.20 -2.30 c1.50 -1.50 2.30 -2.05 2.60 -1.70 0.25 0.45 0.50 0.40 0.85 -0.15 1.40 -2.20 1.50 -2.25 1.90 -1.60 0.35 0.50 0.55 0.50 1.05 -0.10 0.60 -0.70 4.70 -3.30 5.20 -3.30 0.15 0 -0.25 1.40 -0.90 3.15 -0.65 1.70 -1.35 3.55 -1.55 4.10 -0.30 0.85 -0.45 0.70 -0.70 -0.75 -0.20 -0.95 -0.40 -1.35 -0.45 -0.80 0 0.50 -0.85 1.70 -1.85 2.60 -0.95 0.95 -1.65 1.70 -1.45 1.70 0.15 0 0.05 0.45 -0.30 1.05 l-0.55 1.05 -0.70 -1.05 c-1.10 -1.55 -1.75 -1.25 -0.90 0.45 0.60 1.10 0.60 1.70 0.20 2.50 -0.30 0.55 -0.40 1.25 -0.25 1.50 0.15 0.30 -0.05 1 -0.45 1.60 -0.45 0.60 -0.80 0.95 -0.80 0.75z"/>
  <path d="M36.65 35.55 c-1.20 -1 -1.50 -2.30 -0.65 -2.80 0.30 -0.15 0.70 0.25 1 1 0.25 0.70 0.85 1.40 1.25 1.55 0.40 0.20 0.75 0.50 0.75 0.75 0 0.75 -1.20 0.50 -2.35 -0.50z"/>
  <path d="M24 35.20 c0 -0.55 2.05 -3.20 2.50 -3.20 0.55 0 -0.50 2.60 -1.25 3.10 -0.60 0.45 -1.25 0.50 -1.25 0.10z"/>
  <path d="M33.25 34.50 c-1.20 -0.45 -2.60 -2 -1.85 -2 0.25 0 0.75 0.35 1.10 0.75 0.35 0.40 0.95 0.75 1.30 0.75 0.40 0 0.70 0.25 0.70 0.50 0 0.30 -0.05 0.50 -0.10 0.45 -0.10 0 -0.60 -0.20 -1.15 -0.45z"/>
  <path d="M37.10 31.85 c-0.60 -0.65 -1.10 -1.50 -1.10 -1.90 0.05 -0.75 2.50 1.75 2.50 2.60 0 0.65 -0.20 0.55 -1.40 -0.70z"/>
  <path d="M27.25 27.60 c0.35 -1.40 -0.60 -1.85 -2.45 -1.10 -1.05 0.40 -1.35 0.35 -1.20 -0.10 0.15 -0.40 1.50 -0.80 3.20 -1 2.60 -0.25 3.10 -0.20 4.10 0.75 0.65 0.60 1.80 1.10 2.50 1.10 0.95 0 1.40 0.30 1.50 1 0.15 0.85 0.05 0.90 -0.40 0.25 -0.45 -0.55 -0.65 -0.60 -0.85 -0.10 -0.30 0.70 -2.15 0.80 -2.15 0.10 0 -0.75 -1.90 -2.50 -2.75 -2.50 -1.20 0 -0.85 0.95 0.50 1.30 1.90 0.45 1.55 1.55 -0.50 1.50 -1.60 -0.05 -1.75 -0.15 -1.50 -1.20z"/>
  <path d="M17.70 27.80 c-0.50 -0.40 -0.80 -0.85 -0.65 -1 0.15 -0.15 0.70 0.05 1.25 0.40 0.50 0.40 0.80 0.85 0.65 1 -0.15 0.15 -0.70 -0.05 -1.25 -0.40z"/>
  <path d="M14.50 27.60 c0 -0.35 0.35 -1.45 0.75 -2.45 0.40 -0.95 0.75 -2.15 0.75 -2.65 0 -1 1.95 -3.60 2 -2.65 0 0.35 -0.45 1.60 -0.95 2.75 -0.55 1.20 -1.30 2.95 -1.75 3.90 -0.45 0.95 -0.80 1.45 -0.80 1.10z"/>
  <path d="M10 22.50 c0.40 -0.25 1.10 -0.50 1.50 -0.50 0.65 0 0.65 0.05 0 0.50 -0.40 0.25 -1.10 0.50 -1.50 0.50 -0.65 0 -0.65 -0.05 0 -0.50z"/>
  <path d="M21 18.50 c0 -0.70 0.35 -1 1.10 -1 1 0 1.05 0.05 0.15 1 -0.50 0.55 -1 1 -1.10 1 -0.05 0 -0.15 -0.45 -0.15 -1z"/>
  <path d="M24.25 16 c-0.30 -0.85 -0.60 -1 -2.15 -0.75 -1.65 0.30 -1.75 0.25 -0.95 -0.40 1.05 -0.85 1.10 -1.85 0.10 -1.85 -0.40 0 -0.75 -0.30 -0.75 -0.70 0 -0.50 0.55 -0.70 1.75 -0.65 1.50 0.05 1.75 0.25 1.75 1.20 0 0.65 0.45 1.60 1 2.15 0.60 0.60 0.90 1.25 0.75 1.50 -0.50 0.80 -1.15 0.55 -1.50 -0.50z"/>
  <path d="M15.50 15.50 c0 -0.25 0.30 -0.50 0.70 -0.50 0.40 0 0.90 0.25 1.05 0.50 0.15 0.30 -0.15 0.50 -0.70 0.50 -0.60 0 -1.05 -0.20 -1.05 -0.50z"/>
  <path d="M26 14.15 c-0.40 -0.50 -0.70 -1.40 -0.60 -2 0.15 -0.90 -0.10 -1.15 -0.85 -1.15 -1.55 0 -1.30 -0.85 0.80 -2.75 1.70 -1.55 1.75 -1.75 0.90 -2.05 -1.55 -0.55 -2.70 -1.75 -2.45 -2.45 0.15 -0.40 -0.30 -1.05 -1.05 -1.55 l-1.30 -0.85 1.55 -0.75 c1.35 -0.65 1.65 -0.65 2 -0.10 0.25 0.40 0.35 0.85 0.20 1.05 -0.10 0.20 0 0.50 0.30 0.70 0.25 0.15 0.50 0.75 0.50 1.30 0 0.50 0.25 0.95 0.50 0.95 0.70 0 2.65 2 2.30 2.40 -0.15 0.15 0 0.75 0.35 1.30 0.40 0.60 0.85 1.95 1.05 3 0.35 1.85 0.35 1.90 -0.50 1.10 -0.45 -0.50 -0.85 -1.55 -0.80 -2.35 0.05 -1.20 -0.15 -1.45 -1.15 -1.45 -0.90 0 -1.20 0.35 -1.45 1.80 -0.25 1.10 -0.15 2.05 0.20 2.45 0.35 0.40 0.50 1.05 0.40 1.50 -0.15 0.70 -0.25 0.70 -0.90 -0.10z"/>
  <path d="M26.85 11.55 c-0.15 -0.60 0.05 -1.10 0.45 -1.25 0.50 -0.20 0.70 0.10 0.70 0.95 0 1.50 -0.80 1.65 -1.15 0.30z"/>
  <path d="M17.55 10.70 c-1.30 -1.65 -1.40 -2.65 -0.15 -1.55 0.50 0.50 1.20 0.85 1.50 0.85 0.35 0 0.60 0.30 0.60 0.70 0 1.35 -0.90 1.35 -1.95 0z"/>
  <path d="M34.25 10.15 c-0.40 -1.30 -1.65 -1.55 -2.05 -0.40 -0.45 1.15 -1.05 0.90 -1.65 -0.75 -0.45 -1.40 -0.40 -1.50 0.75 -1.50 0.65 0 1.20 0.25 1.20 0.50 0 0.30 0.25 0.50 0.50 0.50 0.30 0 0.50 -0.35 0.50 -0.75 0 -0.90 1.45 -1 1.75 -0.10 0.15 0.30 0.05 1.30 -0.20 2.10 -0.45 1.45 -0.50 1.45 -0.80 0.40z"/>
  <path d="M37.75 10.10 c-0.25 -0.60 -0.45 -0.65 -0.60 -0.20 -0.55 1.40 -1.15 0.40 -1.15 -1.90 0 -2.10 0.15 -2.50 0.90 -2.50 0.50 0 1.25 0.55 1.60 1.25 0.35 0.70 0.85 1.25 1.10 1.25 0.70 0 0.45 0.95 -0.55 1.95 -0.90 0.90 -1 0.90 -1.30 0.15z"/>
  <path d="M22.35 8.65 c-0.60 -0.55 -0.35 -1.65 0.35 -1.65 0.35 0 0.80 0.45 0.95 1 0.25 0.95 -0.60 1.40 -1.30 0.65z"/>
  <path d="M18.55 6.25 c-0.65 -0.70 -1.55 -1.25 -2 -1.25 -0.50 0 -1.30 -0.30 -1.80 -0.70 -0.80 -0.60 -0.60 -0.65 1.80 -0.45 3.15 0.30 3.60 0.60 3.35 2.30 l-0.15 1.30 -1.20 -1.20z"/>
  <path d="M35.15 4.30 c-1.45 -0.65 -1.80 -2.30 -0.80 -3.40 1.15 -1.30 2 -1.10 2.55 0.50 0.70 2 -0.25 3.55 -1.75 2.90z"/>
  <path d="M38.90 4.70 c-0.40 -0.40 0.15 -2.20 0.65 -2.20 0.25 0 0.45 0.55 0.45 1.25 0 1.20 -0.50 1.60 -1.10 0.95z"/>
  <path d="M28.25 2.70 c-0.80 -1.20 -0.80 -1.30 0.10 -2 0.50 -0.35 1.20 -0.70 1.60 -0.70 0.95 0 2 1.50 2.05 2.90 0 1.65 -2.60 1.55 -3.75 -0.20z"/>
 </g>
 <g fill="#63809f">
  <path d="M37.55 36.20 c-1.25 -0.95 -2.45 -1.65 -2.75 -1.55 -0.70 0.25 -2.95 -0.85 -3.75 -1.85 -0.95 -1.15 -0.05 -0.95 1.25 0.25 0.65 0.60 1.60 0.95 2.30 0.85 1.05 -0.15 1 -0.25 -0.70 -1.25 -1.40 -0.80 -1.80 -1.35 -1.55 -1.95 0.25 -0.70 0.10 -0.80 -1.15 -0.50 -0.80 0.20 -1.75 0.35 -2.10 0.40 -0.35 0.05 -1.20 0.75 -1.90 1.60 -1.25 1.45 -1.30 1.45 -1.10 0.30 0.10 -0.75 0.80 -1.65 1.75 -2.25 0.90 -0.55 1.60 -1.15 1.65 -1.35 0 -0.70 -1.75 -0.40 -2.95 0.45 -1.25 0.85 -4.15 1.20 -3.90 0.45 0.05 -0.20 1 -0.70 2.05 -1.05 2.65 -0.95 3.30 -1.65 2.15 -2.45 -0.80 -0.60 -0.80 -0.70 -0.05 -1 1.50 -0.60 2.75 -0.30 4.10 0.95 0.90 0.90 1.70 1.20 2.45 1 0.90 -0.20 1.50 0.25 3.20 2.50 1.15 1.55 1.95 2.90 1.85 3.05 -0.30 0.30 -3.90 -3.75 -3.90 -4.40 0 -0.20 -0.20 -0.40 -0.50 -0.40 -1.15 0 -0.40 2.20 1.25 3.65 0.95 0.85 1.75 1.95 1.75 2.45 0 0.65 0.50 1 1.50 1.25 1.15 0.20 1.50 0.55 1.50 1.45 0 0.65 -0.05 1.20 -0.10 1.15 -0.10 0 -1.15 -0.80 -2.35 -1.75z m-7.35 -9.45 c-0.30 -0.80 -2.20 -1.05 -2.20 -0.35 0 0.70 0.60 1.10 1.55 1.10 0.60 0 0.80 -0.25 0.65 -0.75z"/>
  <path d="M3.50 36.70 c0 -0.50 1.40 -1.70 2 -1.70 0.95 0 0.30 1.10 -0.90 1.55 -0.60 0.25 -1.10 0.30 -1.10 0.15z"/>
  <path d="M0 36.05 c0 -0.25 0.20 -0.55 0.40 -0.65 0.20 -0.05 1.05 -1.05 1.85 -2.10 1.30 -1.70 1.35 -1.90 0.40 -1.40 -0.60 0.35 -1.25 0.85 -1.40 1.10 -0.35 0.60 -1.25 0.65 -1.25 0.10 0 -0.65 3.15 -3.95 4.15 -4.25 0.45 -0.20 0.85 -0.55 0.85 -0.85 0 -0.30 0.30 -0.50 0.65 -0.40 1 0.20 2.75 -1.20 2.50 -2.05 -0.20 -0.65 -0.15 -0.65 0.25 -0.15 0.35 0.55 0.95 0.35 2.90 -1 3.80 -2.65 3.90 -2.70 3.55 -1.60 -0.15 0.50 -0.85 2.55 -1.55 4.45 -1.10 2.95 -1.30 3.20 -1.15 1.65 0.10 -1.05 0 -1.90 -0.15 -1.90 -0.65 0 -1.40 1.15 -1.20 1.75 0.15 0.35 0 0.80 -0.35 1.05 -0.45 0.25 -0.50 0.10 -0.30 -0.45 0.15 -0.50 0.10 -0.85 -0.20 -0.85 -0.25 0 -0.60 0.40 -0.75 0.90 -0.15 0.45 -0.45 1.30 -0.70 1.85 -0.25 0.55 -0.55 1.45 -0.75 2 -0.35 0.95 -0.35 0.95 -0.90 -0.10 -0.25 -0.65 -0.80 -1.15 -1.20 -1.15 -0.80 0 -0.85 0.85 0 1.15 0.85 0.40 -0.65 1.45 -1.60 1.10 -0.35 -0.15 -1.10 0.30 -1.65 1 -0.95 1.20 -2.40 1.70 -2.40 0.80z"/>
  <path d="M14.50 27.55 c0 -0.85 0.60 -2.05 1 -2.05 0.50 0 0.05 1.90 -0.55 2.30 -0.25 0.15 -0.45 0.05 -0.45 -0.25z"/>
  <path d="M8.25 23.50 c0.95 -0.40 0.95 -0.45 -0.10 -0.45 -1.30 -0.05 -1.70 -2.05 -0.40 -2.05 0.40 0 0.75 -0.30 0.75 -0.60 0 -0.45 0.20 -0.40 0.50 0.10 0.25 0.40 0.50 0.50 0.50 0.15 0 -0.30 0.75 -0.55 1.75 -0.50 1.25 0.05 2.15 -0.35 3.20 -1.35 0.80 -0.80 1.75 -1.30 2.05 -1.20 0.50 0.15 -1.80 2.45 -4.25 4.35 -0.95 0.70 -3.90 2.05 -4.45 2 -0.30 0 -0.10 -0.20 0.45 -0.45z"/>
  <path d="M11 19.30 c0 -0.50 0.55 -2.10 1.25 -3.60 0.70 -1.50 1.25 -3.45 1.25 -4.30 l0 -1.60 1.05 1.15 c1 1.10 1.05 1.25 0.30 3.05 -0.55 1.40 -0.60 2 -0.15 2.20 0.35 0.15 0.20 0.45 -0.40 0.85 -0.55 0.35 -1.50 1.15 -2.15 1.85 -0.95 1 -1.15 1.10 -1.15 0.40z"/>
  <path d="M21 18 c0 -0.55 -0.20 -1 -0.50 -1 -0.25 0 -0.50 0.35 -0.50 0.75 0 0.40 -0.20 0.75 -0.50 0.75 -0.25 0 -0.50 -0.45 -0.50 -0.95 0 -0.55 -0.25 -1.15 -0.60 -1.35 -0.30 -0.20 0.35 -0.70 1.60 -1.15 2.75 -1 3.05 -1.85 0.80 -2.25 -1.65 -0.30 -4.35 -2.85 -4.30 -4.10 0 -0.25 0.25 -0.05 0.55 0.45 0.30 0.50 1.10 0.85 1.95 0.85 0.85 0 1.90 0.45 2.55 1.15 0.70 0.70 1.15 0.90 1.30 0.50 0.45 -1.25 2.25 -3.15 2.70 -2.90 0.25 0.20 0.45 -0.05 0.45 -0.50 0 -0.40 0.35 -0.90 0.75 -1.05 0.95 -0.40 0.45 -1.20 -0.70 -1.20 -1.15 0 -2.85 -1.80 -2 -2.10 0.65 -0.20 0.30 -0.65 -1.80 -2.15 -1 -0.70 -1 -0.70 0.15 -0.75 0.60 0 1.10 -0.20 1.10 -0.50 0 -0.25 0.35 -0.50 0.75 -0.50 0.45 0 0.75 0.45 0.75 1.25 0 0.75 0.30 1.25 0.70 1.25 0.40 0 0.90 0.25 1.10 0.60 0.25 0.35 0.10 0.45 -0.35 0.20 -0.40 -0.20 -0.30 -0.05 0.20 0.35 0.45 0.40 0.85 0.95 0.85 1.25 0 0.85 0.95 1.25 1.65 0.70 0.35 -0.25 1.70 -0.45 3.05 -0.40 2.25 0.05 2.50 0.15 2.85 1.40 0.45 1.75 -0.25 4.60 -0.80 3.30 -0.45 -1.15 -1.55 -1.15 -2.20 -0.05 -0.25 0.50 -0.55 0.80 -0.65 0.65 -0.10 -0.15 -0.50 -0.90 -0.90 -1.70 -0.40 -0.80 -1.10 -1.60 -1.50 -1.70 -0.60 -0.20 -0.60 -0.05 0.05 0.95 0.45 0.65 0.95 2.10 1.15 3.20 l0.35 2 -1.30 -1.85 c-0.70 -1.05 -1.35 -1.90 -1.45 -1.90 -0.05 0 -0.05 0.75 0.05 1.65 l0.20 1.60 -1 -1.25 c-0.85 -1.05 -1.05 -1.10 -1.05 -0.35 0 0.45 0.25 1.30 0.60 1.85 0.80 1.25 0.15 1.85 -0.90 0.80 -1.10 -1.10 -1.40 -0.75 -0.65 0.90 0.70 1.55 0.15 2.45 -0.75 1.15 -1 -1.30 -1.85 -1.05 -1.50 0.40 0.30 1.25 -0.45 2.75 -1.35 2.75 -0.25 0 -0.45 -0.45 -0.45 -1z"/>
  <path d="M15.50 15.50 c0 -0.25 0.35 -0.50 0.75 -0.50 0.40 0 0.75 0.25 0.75 0.50 0 0.30 -0.35 0.50 -0.75 0.50 -0.40 0 -0.75 -0.20 -0.75 -0.50z"/>
  <path d="M35.90 8.20 c-0.20 -2.95 0.70 -3.40 2.65 -1.30 1.65 1.75 1.75 2.10 0.70 2.10 -0.40 0 -0.75 0.25 -0.75 0.60 0 0.30 -0.35 0.15 -0.75 -0.40 -0.65 -0.85 -0.70 -0.85 -0.75 -0.10 0 1.95 -0.90 1.20 -1.10 -0.90z"/>
  <path d="M22 8.25 c-0.75 -0.90 -0.45 -2.50 0.50 -2.50 0.50 0 0.80 0.60 0.90 1.65 0.15 1.70 -0.40 2.05 -1.40 0.85z"/>
  <path d="M18.85 6.40 c-0.15 -0.45 -1.20 -1.10 -2.30 -1.45 -1.15 -0.35 -2.45 -1.05 -2.90 -1.60 -0.90 -1 -0.90 -1 0.55 -0.10 0.80 0.55 2.35 1 3.50 1.05 1.10 0.05 2.35 0.10 2.70 0.15 0.85 0.05 0.75 1.55 -0.10 1.55 -0.40 0 -0.80 0.25 -0.90 0.60 -0.15 0.40 -0.35 0.30 -0.55 -0.20z"/>
  <path d="M36 4.70 c0 -0.35 -0.45 -0.70 -1 -0.85 -1.75 -0.45 -0.85 -3.85 1 -3.85 0.60 0 2 1.20 2 1.70 0 0.15 -0.45 1 -1 1.90 -0.55 0.90 -1 1.40 -1 1.10z"/>
  <path d="M30 4.10 c-0.80 -0.25 -2.45 -2.10 -2.50 -2.70 0 -0.25 0.30 -0.40 0.70 -0.40 0.40 0 0.85 -0.30 0.95 -0.60 0.15 -0.35 0.30 -0.05 0.30 0.70 0.05 0.75 0.30 1.50 0.65 1.70 0.40 0.25 0.45 0.10 0.25 -0.45 -0.25 -0.60 -0.05 -0.85 0.65 -0.85 0.70 0 1 0.35 1 1.20 0 1.25 -0.75 1.80 -2 1.40z"/>
  <path d="M39 3.05 c0 -0.55 0.25 -1.15 0.50 -1.30 0.30 -0.20 0.50 0.25 0.50 0.95 0 0.70 -0.20 1.30 -0.50 1.30 -0.25 0 -0.50 -0.45 -0.50 -0.95z"/>
 </g>
 <g fill="#6077ba">
  <path d="M4.15 33.25 c-0.40 -1.15 0.20 -1.50 1.10 -0.60 0.95 1 0.95 1.35 0 1.35 -0.45 0 -0.90 -0.35 -1.10 -0.75z"/>
  <path d="M7 32.95 c0 -0.45 -0.60 -1.05 -1.30 -1.40 -1.75 -0.80 -1.25 -1.75 1 -1.95 l1.90 -0.15 -0.35 1.65 c-0.40 1.80 -1.25 3.10 -1.25 1.85z m1 -2.50 c0 -0.70 -0.80 -0.55 -1.45 0.25 -0.50 0.60 -0.40 0.65 0.40 0.45 0.60 -0.15 1.05 -0.45 1.05 -0.70z"/>
  <path d="M12.10 29 c0 -0.95 0.10 -1.35 0.25 -0.85 0.10 0.45 0.10 1.25 0 1.75 -0.15 0.45 -0.25 0.05 -0.25 -0.90z"/>
  <path d="M34.95 29.15 c-0.70 -0.90 -1.15 -1.15 -1.30 -0.75 -0.30 0.80 -1.15 0.75 -1.15 -0.10 0 -1.90 2.80 -0.85 3.65 1.35 0.45 1.20 0.10 1.05 -1.20 -0.50z"/>
  <path d="M9 27.70 c0 -0.40 0.45 -0.70 1 -0.70 0.55 0 1 0.20 1 0.45 0 0.25 -0.45 0.55 -1 0.70 -0.65 0.15 -1 0 -1 -0.45z"/>
  <path d="M35.80 25.25 c0.45 -0.70 0.95 -1.20 1.05 -1.05 0.30 0.30 -1 2.30 -1.50 2.30 -0.20 0 0 -0.55 0.45 -1.25z"/>
  <path d="M15.25 25.15 c0.20 -0.50 0.50 -1.45 0.60 -2.15 0.15 -0.70 0.70 -1.85 1.25 -2.50 1.05 -1.35 1.05 -1.20 -0.40 2.90 -0.50 1.40 -1.15 2.60 -1.35 2.60 -0.25 0 -0.30 -0.40 -0.10 -0.85z"/>
  <path d="M29.60 12 c-0.70 -1.15 -0.75 -1.50 -0.15 -1.50 0.40 0 1.20 2.05 0.90 2.35 -0.10 0.05 -0.40 -0.35 -0.75 -0.85z"/>
  <path d="M36.05 8.90 c-0.05 -1.65 0.10 -1.90 1.10 -1.90 1.10 0.05 2.85 1.05 2.85 1.70 0 0.15 -0.35 0.30 -0.75 0.30 -0.40 0 -0.75 0.30 -0.75 0.65 0 0.40 -0.15 0.35 -0.45 -0.15 -0.30 -0.40 -0.35 -0.90 -0.25 -1.10 0.15 -0.20 0.05 -0.40 -0.15 -0.40 -0.25 0 -0.70 0.60 -1 1.40 -0.55 1.35 -0.55 1.35 -0.60 -0.50z"/>
  <path d="M21.90 8.15 c-0.35 -0.50 -1.10 -0.90 -1.65 -0.90 -0.55 0 -1.05 -0.40 -1.15 -0.85 -0.15 -0.70 0.15 -0.90 1.50 -0.90 2.20 0 2.80 0.45 2.80 2.15 -0.05 1.55 -0.55 1.75 -1.50 0.50z"/>
  <path d="M26.25 7.50 c0.15 -0.25 0.70 -0.50 1.15 -0.55 0.60 0 0.45 -0.20 -0.40 -0.60 -1.55 -0.70 -2.50 -1.60 -2.50 -2.30 0 -0.30 -0.45 -1 -1 -1.55 l-1 -1 1.15 0 c1.40 0 2.35 0.85 2.35 2.10 0 0.50 0.35 0.90 0.75 0.90 0.40 0 0.75 0.35 0.75 0.75 0 0.80 1.05 1 1.70 0.40 0.20 -0.25 1.05 -0.40 1.85 -0.40 0.80 0 1.45 0.15 1.45 0.40 0 0.20 -0.60 0.35 -1.30 0.35 -1.30 0 -2.90 1.15 -2.35 1.70 0.20 0.15 -0.40 0.30 -1.30 0.30 -0.95 0 -1.50 -0.20 -1.30 -0.50z"/>
  <path d="M15.40 4.65 c-0.50 -0.10 -0.90 -0.45 -0.90 -0.70 0 -0.30 0.25 -0.35 0.55 -0.20 0.30 0.20 1.15 0.55 1.85 0.75 0.95 0.30 1.05 0.40 0.35 0.40 -0.55 0 -1.40 -0.10 -1.85 -0.25z"/>
  <path d="M36 4.40 c0 -0.55 -0.25 -0.75 -0.70 -0.60 -0.45 0.15 -0.95 -0.20 -1.30 -0.85 -0.55 -0.95 -0.50 -1.25 0.30 -1.80 1.65 -1.20 2.70 -0.85 2.70 1 0 0.85 -0.25 1.95 -0.50 2.35 -0.40 0.65 -0.50 0.65 -0.50 -0.10z"/>
  <path d="M29.85 4.10 c-0.45 -0.10 -1.20 -0.85 -1.60 -1.65 -0.70 -1.30 -0.70 -1.45 0 -1.45 0.40 0 0.75 -0.20 0.75 -0.50 0 -0.80 1.60 -0.55 2.30 0.40 1.45 1.85 0.65 3.70 -1.45 3.20z"/>
 </g>
 <g fill="#7e8390">
  <path d="M21.75 37 c0.45 -0.80 1 -1.50 1.30 -1.50 0.30 0 0.05 0.70 -0.55 1.50 -0.60 0.85 -1.15 1.50 -1.30 1.50 -0.10 0 0.10 -0.65 0.55 -1.50z"/>
  <path d="M38.50 36.90 c-0.70 -0.55 -1.70 -1.30 -2.20 -1.70 -0.55 -0.35 -0.85 -0.80 -0.75 -0.95 0.15 -0.10 1 0.30 1.95 1 0.90 0.65 1.85 1.30 2.15 1.40 0.25 0.05 0.40 0.40 0.30 0.70 -0.15 0.35 -0.65 0.20 -1.45 -0.45z"/>
  <path d="M0 36.10 c0 -0.20 0.45 -0.65 1 -1 1.10 -0.65 1.35 -0.15 0.40 0.80 -0.70 0.70 -1.40 0.80 -1.40 0.20z"/>
  <path d="M32.85 34.20 c-0.80 -0.45 -1.35 -0.85 -1.25 -1 0.30 -0.30 2.90 1 2.90 1.45 0 0.45 0 0.45 -1.65 -0.45z"/>
  <path d="M20 33.45 c0 -0.85 1.30 -2.85 1.65 -2.45 0.10 0.15 -0.20 0.95 -0.70 1.75 -0.55 0.85 -0.95 1.15 -0.95 0.70z"/>
  <path d="M3 32.75 c0 -0.40 0.35 -0.75 0.75 -0.75 0.40 0 0.75 0.35 0.75 0.75 0 0.40 -0.35 0.75 -0.75 0.75 -0.40 0 -0.75 -0.35 -0.75 -0.75z"/>
  <path d="M26 32 c0.55 -0.80 1.25 -1.60 1.50 -1.75 0.85 -0.50 0.50 0.95 -0.45 2.15 -1.40 1.65 -2.30 1.35 -1.05 -0.40z"/>
  <path d="M0 32.15 c0.05 -1.05 3.15 -2.65 4.10 -2.10 0.35 0.20 0.50 0.50 0.40 0.60 -1.30 1.05 -3.50 2.35 -3.95 2.35 -0.30 0 -0.55 -0.40 -0.55 -0.85z"/>
  <path d="M11.30 31.50 c0.70 -0.95 1.25 -5 0.70 -5 -0.25 0 -0.70 0.40 -0.95 0.90 -0.45 0.75 -0.50 0.75 -0.55 -0.25 0 -0.65 0.20 -1.15 0.45 -1.15 0.25 0 0.60 -0.40 0.80 -0.85 0.30 -0.95 2.65 -2.90 3.05 -2.50 0.10 0.10 -0.20 1.20 -0.70 2.40 -0.55 1.20 -1.10 3 -1.30 4 -0.15 1.05 -0.70 2.15 -1.20 2.50 -0.75 0.60 -0.75 0.60 -0.30 -0.05z"/>
  <path d="M23.05 26.70 c0.75 -0.70 1.70 -1.20 2.15 -1.10 0.50 0.10 0.05 0.55 -1.35 1.30 l-2.10 1.15 1.30 -1.35z"/>
  <path d="M14.50 27.35 c0 -0.20 0.35 -1.20 0.75 -2.20 0.40 -0.95 0.75 -2.15 0.75 -2.60 0.05 -0.90 1.35 -2.85 1.70 -2.50 0.10 0.10 -0.20 1.10 -0.70 2.20 -0.55 1.10 -0.95 2.35 -1 2.80 0 0.75 -1.45 3.05 -1.50 2.30z"/>
  <path d="M7.35 23.65 c-0.65 -0.60 -0.35 -1.95 0.65 -2.80 1.15 -0.95 2.30 -1.10 2.75 -0.35 0.40 0.65 2 -0.15 3.85 -1.90 0.75 -0.70 1.55 -1.10 1.75 -0.90 0.55 0.55 -3.20 3.75 -6.30 5.45 -1.80 0.95 -2.20 1 -2.70 0.50z"/>
  <path d="M11 19 c0 -1 1.45 -4 1.90 -4 0.25 0 0.60 0.50 0.70 1.15 0.15 0.75 -0.20 1.45 -1.20 2.25 -0.75 0.65 -1.40 0.95 -1.40 0.60z"/>
 </g>
 <g fill="#6f94ac">
  <path d="M37.40 36.10 c-1.05 -0.75 -1.85 -1.55 -1.90 -1.80 0 -0.25 0.50 -0.05 1.15 0.40 0.60 0.45 1.60 1.05 2.25 1.40 0.60 0.30 1.10 0.75 1.10 1 0 0.65 -0.60 0.40 -2.60 -1z"/>
  <path d="M24.15 34.20 c1.30 -1.25 2.35 -2.50 2.35 -2.70 0 -0.50 3.80 -2.50 4.75 -2.50 0.40 0 0.75 -0.20 0.75 -0.45 0 -0.50 -4.15 -0.35 -5 0.20 -0.65 0.40 -0.65 -0.40 0.05 -1.10 0.35 -0.35 1.05 -0.40 2 -0.15 0.80 0.25 1.55 0.25 1.70 0 0.40 -0.65 -1.05 -1.55 -2.35 -1.45 -0.60 0.05 -1.60 0.05 -2.15 0 l-1 -0.10 1 -0.45 c1.80 -0.75 3.20 -0.50 4.50 0.80 0.85 0.85 1.65 1.20 2.25 1.05 0.75 -0.20 1.50 0.40 2.90 2.05 2.75 3.30 3.15 4.25 0.70 1.60 -1.15 -1.25 -2.05 -2.40 -2.10 -2.60 0 -0.25 -0.20 -0.40 -0.50 -0.40 -1.15 0 -0.40 2.20 1.25 3.70 2.10 1.95 2.25 2.50 0.40 1.70 -2.10 -0.90 -3.10 -1.90 -2.80 -2.75 0.25 -0.70 0 -0.75 -1.90 -0.45 -2.35 0.40 -3.65 1.30 -4.75 3.40 -0.55 1.10 -3.10 2.90 -4.10 2.90 -0.15 0 0.80 -1.05 2.05 -2.30z"/>
  <path d="M31.20 32.90 l-0.95 -1.05 1.40 0.90 c1.40 0.90 1.65 1.25 0.95 1.25 -0.25 0 -0.85 -0.50 -1.40 -1.10z"/>
  <path d="M22 30.30 c0 -0.45 0.05 -0.80 0.15 -0.80 0.05 0 0.85 -0.20 1.75 -0.45 1.30 -0.40 1.60 -0.35 1.60 0.30 0 0.45 -0.30 0.65 -0.70 0.50 -0.35 -0.15 -1.15 0.05 -1.75 0.45 -0.95 0.70 -1.05 0.65 -1.05 0z"/>
  <path d="M9 27.50 c0 -1.15 1.45 -2.75 2.90 -3.20 0.55 -0.20 1.30 -0.65 1.60 -1.05 0.90 -1.10 1.60 -0.90 1 0.25 -0.30 0.55 -0.85 1 -1.25 1 -0.40 0 -0.75 0.35 -0.75 0.75 0 0.85 -1.45 2.45 -2.65 2.90 -0.60 0.25 -0.85 0.05 -0.85 -0.65z"/>
  <path d="M7.35 23.65 c-0.20 -0.15 -0.35 -0.70 -0.35 -1.20 0 -0.65 0.50 -1 1.90 -1.20 2.80 -0.50 4.75 -1.35 6 -2.70 0.60 -0.65 1.25 -1.05 1.45 -0.85 0.50 0.50 -1.75 2.55 -5.05 4.50 -3.15 1.90 -3.45 2 -3.95 1.45z"/>
  <path d="M21.25 17.85 c-0.45 -1.65 -1.10 -1.75 -1.35 -0.20 -0.15 1 -0.20 1 -0.95 -0.45 l-0.80 -1.60 1.90 -0.55 c1.60 -0.50 2.10 -1 2.95 -2.95 1.05 -2.30 3.30 -5.10 4.10 -5.10 0.25 0 0.90 -0.40 1.40 -0.90 0.90 -0.80 2.65 -1 5.90 -0.65 0.75 0.05 0.85 4.55 0.10 4.55 -0.25 0 -0.50 -0.45 -0.50 -1 0 -0.90 -0.10 -0.95 -1 -0.40 -0.55 0.35 -1 0.90 -1 1.25 0 0.35 -0.20 0.65 -0.50 0.65 -0.25 0 -0.50 -0.40 -0.50 -0.90 0 -0.95 -1.45 -2.60 -2.20 -2.60 -0.25 0 -0.05 0.60 0.40 1.30 0.50 0.70 0.80 1.85 0.70 2.60 l-0.20 1.35 -0.55 -1.35 c-0.85 -1.95 -1.70 -2.25 -1.35 -0.40 0.20 0.95 0.10 1.50 -0.25 1.50 -0.30 0 -0.55 -0.35 -0.55 -0.75 0 -0.40 -0.20 -0.75 -0.45 -0.75 -0.90 0 -1 0.80 -0.25 2.25 0.90 1.75 0.45 2.35 -0.60 0.80 -0.55 -0.80 -1 -0.95 -1.35 -0.60 -0.35 0.35 -0.35 0.70 0 1.15 0.25 0.35 0.65 1.10 0.85 1.60 0.30 0.95 0.30 0.95 -0.60 0.15 -1 -0.95 -2.60 -1.15 -2.60 -0.35 0 0.30 0.25 0.50 0.50 0.50 0.70 0 0.60 1.15 -0.20 2.30 -0.70 0.90 -0.75 0.90 -1.05 -0.45z"/>
  <path d="M12 17.30 c0 -1.90 0.50 -2.80 1.70 -2.85 0.75 0 0.85 -0.10 0.30 -0.35 -0.40 -0.20 -0.75 -1 -0.75 -1.85 0 -1.45 -0.10 -1.55 -4.05 -4.10 -0.55 -0.35 0.10 -0.25 1.45 0.20 3.70 1.20 5.50 4.35 3.70 6.55 -0.40 0.50 -0.35 0.80 0.15 1.10 0.40 0.25 0.60 0.55 0.50 0.60 -0.15 0.10 -0.85 0.60 -1.60 1.05 -1.40 0.85 -1.40 0.85 -1.40 -0.35z"/>
  <path d="M19.45 12.50 c-0.45 -0.25 -1.15 -1 -1.60 -1.65 -0.75 -1.15 -0.70 -1.15 0.85 -0.95 1.70 0.25 3.30 1.40 3.30 2.45 0 0.75 -1.35 0.85 -2.55 0.15z"/>
  <path d="M36 8.05 c0 -2.45 1 -2.75 2.80 -0.75 1.45 1.55 1.45 1.70 0.20 1.70 -0.55 0 -1 -0.20 -1 -0.50 0 -0.25 -0.20 -0.50 -0.50 -0.50 -0.25 0 -0.50 0.30 -0.50 0.70 0 0.40 -0.20 0.90 -0.50 1.05 -0.30 0.20 -0.50 -0.50 -0.50 -1.70z"/>
  <path d="M19 5.50 c0 -1.10 1 -1.30 2.55 -0.50 1.50 0.80 1.15 1.50 -0.80 1.50 -1.40 0 -1.75 -0.20 -1.75 -1z"/>
  <path d="M25.50 5.25 c0 -0.40 -0.20 -0.75 -0.50 -0.75 -0.25 0 -0.50 -0.30 -0.50 -0.70 0 -0.40 -0.60 -1.20 -1.35 -1.75 -0.80 -0.60 -1 -0.90 -0.50 -0.75 0.55 0.20 0.85 0.05 0.85 -0.50 0 -0.50 0.40 -0.80 1.05 -0.80 0.80 0 1 0.25 0.80 1 -0.15 0.65 0.15 1.20 0.95 1.75 1.55 1 1.65 3.25 0.20 3.25 -0.55 0 -1 -0.35 -1 -0.75z"/>
  <path d="M35.85 3.80 c-0.20 -0.45 -0.15 -1.15 0 -1.65 0.20 -0.55 0.15 -0.70 -0.25 -0.45 -0.35 0.20 -0.60 0.80 -0.60 1.35 0 0.55 -0.20 0.85 -0.50 0.70 -0.25 -0.15 -0.50 -0.85 -0.50 -1.55 0 -1.05 0.25 -1.20 1.75 -1.20 1.95 0 2.35 1 1.10 2.70 -0.60 0.85 -0.70 0.85 -1 0.10z"/>
  <path d="M28.25 2.50 c-0.50 -1 -0.60 -1.50 -0.20 -1.50 0.30 0 0.65 0.45 0.80 0.95 0.25 0.90 1.55 1.80 2 1.40 0.10 -0.10 -0.30 -0.75 -0.85 -1.50 -1.20 -1.55 -1.25 -1.85 -0.20 -1.85 1.10 0 2.15 1.45 2.20 2.90 0 0.90 -0.25 1.10 -1.50 1.10 -1.15 0 -1.65 -0.35 -2.25 -1.50z"/>
 </g>
 <g fill="#8b9aae">
  <path d="M21.50 37.60 c0 -0.55 5.20 -6.10 5.70 -6.10 0.65 0 -1.85 3.50 -2.70 3.75 -0.55 0.15 -1.45 0.90 -2 1.60 -0.55 0.70 -1 1.05 -1 0.75z"/>
  <path d="M37.25 35.70 c-0.95 -0.75 -1.10 -1.05 -0.45 -0.75 0.90 0.45 2.60 2.05 2.15 2.05 -0.10 0 -0.85 -0.60 -1.70 -1.30z"/>
  <path d="M0.50 36.20 c0 -0.30 0.55 -1.05 1.25 -1.70 0.70 -0.65 1.25 -1.45 1.25 -1.85 0 -0.35 0.45 -0.65 1 -0.65 0.55 0 1 0.10 1 0.20 0 0.10 0.15 0.60 0.35 1.10 0.25 0.70 0.15 0.80 -0.60 0.50 -0.65 -0.25 -1.40 0.15 -2.60 1.30 -0.90 0.85 -1.65 1.35 -1.65 1.10z"/>
  <path d="M20.25 33 c0.45 -1.65 1.65 -3.50 2.25 -3.50 0.65 0 0.65 0.85 -0.05 1.30 -0.30 0.15 -1 1 -1.55 1.90 -0.85 1.35 -0.95 1.40 -0.65 0.30z"/>
  <path d="M0 32.50 c0 -0.55 0.20 -1 0.45 -1 0.20 0 1.40 -0.80 2.60 -1.75 1.20 -0.95 2.50 -1.75 2.85 -1.75 0.35 0 1 -0.35 1.40 -0.75 0.45 -0.40 1.45 -0.75 2.25 -0.75 1.05 0 1.45 -0.25 1.45 -0.85 0 -0.50 0.85 -1.40 1.95 -2 l1.95 -1.10 -1.10 2.75 c-0.55 1.50 -1.10 2.40 -1.20 1.95 -0.10 -0.40 -0.30 -0.75 -0.40 -0.75 -0.65 0 -3.20 2.30 -3.20 2.85 0 0.35 -0.20 1.05 -0.45 1.55 -0.25 0.45 -0.65 1.30 -0.85 1.85 -0.35 0.95 -0.40 0.95 -0.60 -0.20 -0.10 -0.65 0.10 -1.35 0.45 -1.60 0.40 -0.20 0.50 -0.55 0.30 -0.75 -0.20 -0.20 -0.75 0 -1.25 0.45 -0.50 0.45 -1.35 0.70 -1.90 0.55 -0.65 -0.20 -1.60 0.20 -2.55 1 -1.85 1.55 -2.15 1.60 -2.15 0.30z"/>
  <path d="M32.30 29.60 c-0.75 -0.15 -0.80 -0.30 -0.25 -0.65 0.60 -0.35 0.60 -0.50 0.05 -0.90 -0.50 -0.30 -0.35 -0.50 0.60 -0.65 0.75 -0.15 1.45 -0.05 1.60 0.15 0.15 0.25 0.05 0.45 -0.25 0.45 -0.25 0 -0.55 0.40 -0.65 0.90 -0.10 0.55 -0.50 0.80 -1.10 0.70z"/>
  <path d="M15.30 25.75 c0.15 -0.55 0.40 -1.60 0.55 -2.40 0.15 -0.75 0.50 -1.50 0.75 -1.65 0.60 -0.35 0.15 1.25 -0.90 3.55 -0.40 0.85 -0.60 1.05 -0.40 0.50z"/>
  <path d="M26.55 26.05 c-0.50 -0.30 -0.25 -0.55 0.90 -0.80 1.45 -0.30 2.55 -0.05 2 0.45 -0.60 0.50 -2.30 0.70 -2.90 0.35z"/>
  <path d="M7.50 23.60 c0 -0.30 -0.15 -0.85 -0.30 -1.30 -0.20 -0.50 -0.05 -0.80 0.45 -0.80 0.40 0 0.90 -0.30 1.05 -0.60 0.15 -0.35 0.20 0.10 0.15 1.05 -0.05 0.95 -0.40 1.80 -0.70 1.95 -0.35 0.10 -0.65 -0.05 -0.65 -0.30z"/>
  <path d="M12 16.25 c0 -0.70 1.60 -3.25 2 -3.25 0.65 0 0.65 1.30 0 2.55 -0.50 0.85 -2 1.40 -2 0.70z"/>
  <path d="M12.25 9.95 c-0.20 -0.30 -0.85 -0.70 -1.45 -0.95 -1 -0.40 -1 -0.45 -0.05 -0.45 1 0 2.75 1 2.75 1.65 0 0.50 -0.90 0.35 -1.25 -0.25z"/>
  <path d="M36 3.25 c0 -0.90 0.25 -1.25 1 -1.25 1 0 1 0.05 0.20 1.25 -0.45 0.70 -0.90 1.25 -1 1.25 -0.10 0 -0.20 -0.55 -0.20 -1.25z"/>
 </g>
 <g fill="#7599ca">
  <path d="M5 31 c0 -0.30 -0.35 -0.50 -0.80 -0.40 -1.45 0.25 -1.30 -0.90 0.15 -1.55 1.95 -0.90 2.20 -1.05 5.20 -3.10 1.50 -1 3.20 -2 3.85 -2.20 l1.10 -0.30 -0.80 2.15 c-1 2.45 -1.50 3.20 -1.05 1.50 0.25 -1.15 0.25 -1.15 -0.80 -0.35 -0.60 0.40 -1.50 0.90 -1.95 1.10 -0.55 0.15 -0.90 0.75 -0.90 1.45 0 1.05 -0.20 1.15 -1.25 0.90 -0.90 -0.20 -1.35 -0.05 -1.55 0.50 -0.35 0.90 -1.20 1.10 -1.20 0.30z"/>
  <path d="M32.10 28.25 c-0.50 -0.60 -0.50 -0.75 0.10 -0.75 0.35 0 0.80 0.35 1 0.75 0.35 0.95 -0.25 0.95 -1.10 0z"/>
  <path d="M29.40 26.15 c-0.50 -0.10 -0.90 -0.45 -0.90 -0.70 0 -0.70 0.80 -0.55 1.50 0.30 0.35 0.40 0.55 0.70 0.45 0.70 -0.10 -0.05 -0.60 -0.15 -1.05 -0.30z"/>
  <path d="M8.70 21.75 c-0.15 -0.40 -0.15 -0.95 0.05 -1.25 0.40 -0.65 2.25 -0.65 2.25 0 0 0.25 0.35 0.35 0.75 0.20 0.90 -0.35 1 0.35 0.15 1.20 -0.85 0.85 -2.85 0.75 -3.20 -0.15z"/>
  <path d="M17.90 10.80 l-0.80 -1.15 1.80 0.30 c1.20 0.20 1.90 0.60 2 1.20 0.25 1.30 -1.95 1.05 -3 -0.35z"/>
  <path d="M22 8 c-0.40 -0.70 -0.85 -0.95 -1.50 -0.75 -0.65 0.20 -1.10 -0.05 -1.50 -0.75 -0.30 -0.60 -1.05 -1.25 -1.65 -1.50 -0.95 -0.35 -0.80 -0.45 0.80 -0.45 1.05 -0.05 2.65 0.25 3.60 0.65 1.40 0.60 1.70 0.95 1.65 2.25 -0.05 1.80 -0.65 2 -1.40 0.55z"/>
  <path d="M27.75 6.70 c0.45 -0.45 0.95 -0.65 1.15 -0.50 0.15 0.20 0 0.55 -0.40 0.80 -1.20 0.75 -1.65 0.55 -0.75 -0.30z"/>
  <path d="M25.10 5.40 c-0.35 -0.35 -0.60 -1 -0.60 -1.45 0 -0.50 -0.50 -1.25 -1.10 -1.65 -0.60 -0.45 -0.85 -0.80 -0.50 -0.80 0.30 0 0.60 -0.35 0.60 -0.75 0 -0.40 0.45 -0.75 1.05 -0.75 0.75 0 0.95 0.25 0.75 0.90 -0.20 0.60 0.15 1.30 0.95 2 1.45 1.30 1.70 3.10 0.35 3.10 -0.50 0 -1.15 -0.25 -1.50 -0.60z"/>
  <path d="M39 3.80 c0 -0.70 0.25 -1.40 0.50 -1.55 0.30 -0.20 0.50 0.35 0.50 1.20 0 0.85 -0.20 1.55 -0.50 1.55 -0.25 0 -0.50 -0.55 -0.50 -1.20z"/>
  <path d="M13.95 3.65 c-0.65 -0.75 -0.60 -0.75 0.55 -0.15 1.70 0.85 1.80 1 0.90 1 -0.45 0 -1.10 -0.35 -1.45 -0.85z"/>
  <path d="M28.40 2.50 c-0.45 -0.85 -0.65 -1.50 -0.35 -1.50 0.25 0 0.65 0.40 0.80 0.90 0.35 0.85 1.10 1.60 1.80 1.60 0.70 0 0.35 -1 -0.65 -1.85 -1.20 -1 -1.30 -1.65 -0.30 -1.65 0.90 0 2.30 1.90 2.30 3.10 0 1.60 -2.60 1.15 -3.60 -0.60z"/>
  <path d="M34.15 3 c-0.45 -1 -0.35 -1.40 0.40 -2.10 1.30 -1.25 2.40 -1.10 2.75 0.40 0.20 0.85 0.05 1.55 -0.50 2.10 -0.75 0.75 -0.80 0.70 -0.80 -0.65 0 -1.55 -0.75 -1.25 -1.15 0.50 -0.20 0.90 -0.25 0.90 -0.70 -0.25z"/>
 </g>
 <g fill="#85aebe">
  <path d="M22.50 36.20 c0 -0.15 0.75 -1 1.65 -1.85 0.90 -0.90 2.05 -2.20 2.60 -2.95 0.65 -0.90 1.75 -1.55 3.35 -1.95 2.40 -0.65 2.95 -1.15 1.80 -1.60 -0.40 -0.20 -0.35 -0.30 0.15 -0.30 0.45 -0.05 1 0.30 1.15 0.75 0.45 1.15 0.35 1.80 -0.20 1.45 -0.95 -0.60 -4.55 0.95 -6 2.60 -0.85 0.95 -1.50 1.85 -1.50 2.05 0 0.20 -0.70 0.75 -1.50 1.20 -0.85 0.45 -1.50 0.75 -1.50 0.60z"/>
  <path d="M0 32.05 c0 -0.50 1.50 -1.20 1.85 -0.85 0.15 0.15 0.10 0.45 -0.10 0.75 -0.40 0.65 -1.75 0.75 -1.75 0.10z"/>
  <path d="M21.50 30.50 c0.30 -0.50 1.35 -1.20 2.40 -1.45 1 -0.30 2.35 -0.85 2.95 -1.30 0.70 -0.50 1.20 -0.55 1.40 -0.25 0.15 0.25 -0.25 0.75 -0.95 1.10 -0.70 0.30 -1.30 0.75 -1.30 1.05 0 0.25 -0.55 0.35 -1.20 0.15 -0.80 -0.20 -1.45 0 -2.05 0.70 -1.15 1.30 -1.95 1.30 -1.25 0z"/>
  <path d="M23.35 26.60 c1.25 -1.10 5.60 -1.85 6.35 -1.10 0.50 0.50 -1.15 0.75 -3.30 0.55 -0.45 -0.05 -1.60 0.25 -2.50 0.70 -1.65 0.80 -1.65 0.80 -0.55 -0.15z"/>
  <path d="M12.90 25.90 c0.25 -1.05 0.20 -1.10 -0.55 -0.45 -0.75 0.60 -0.85 0.55 -0.85 -0.15 0 -0.45 0.60 -1.05 1.30 -1.30 1.75 -0.70 1.70 -0.70 1.10 1 -0.60 1.80 -1.45 2.50 -1 0.90z"/>
  <path d="M7.50 23 c0 -0.60 0.45 -1.50 1 -2.10 0.80 -0.85 1.10 -0.95 1.70 -0.45 0.60 0.50 1.05 0.45 2.40 -0.25 0.90 -0.45 2.05 -1.15 2.55 -1.60 0.45 -0.40 0.85 -0.55 0.85 -0.25 0 0.75 -7.25 5.65 -8.35 5.65 -0.10 0 -0.15 -0.45 -0.15 -1z"/>
  <path d="M12 17.35 c0 -0.65 0.45 -2.05 0.95 -3.15 0.90 -1.75 0.90 -2.05 0.20 -3.10 -1 -1.65 -0.30 -2.10 0.85 -0.60 1.15 1.50 1.25 3.40 0.25 4.70 -0.40 0.55 -0.55 1.10 -0.30 1.25 0.25 0.15 -0.10 0.70 -0.75 1.20 -1.20 0.90 -1.20 0.90 -1.20 -0.30z"/>
  <path d="M19.30 16.15 c-0.40 -0.40 3 -2.15 4.15 -2.15 0.45 0.05 0.10 0.35 -0.75 0.70 -0.90 0.40 -1.75 0.95 -1.90 1.25 -0.40 0.65 -1 0.70 -1.50 0.20z"/>
  <path d="M23 12.30 c0 -0.85 2.95 -4.60 3.95 -5.05 1 -0.40 2.40 1.15 2.80 3 l0.30 1.50 -0.80 -1.35 c-0.45 -0.80 -1.05 -1.40 -1.35 -1.40 -0.90 0 -3.90 2.50 -3.90 3.30 0 0.35 -0.20 0.70 -0.50 0.70 -0.25 0 -0.50 -0.30 -0.50 -0.70z"/>
  <path d="M19.25 12.10 c-0.25 -0.20 -0.75 -0.70 -1.10 -1.10 -0.45 -0.65 -0.30 -0.75 0.95 -0.75 1.05 0 1.75 0.35 2.30 1.15 0.70 1.05 0.65 1.10 -0.45 1.10 -0.65 0 -1.40 -0.20 -1.70 -0.40z"/>
  <path d="M30.70 8.55 c-0.50 -0.85 -1.30 -1.55 -1.80 -1.55 -1.30 0 -1.10 -0.95 0.25 -1.20 3.60 -0.75 3.70 -0.70 3.75 0.85 0 0.85 -0.25 1.95 -0.65 2.45 -0.60 0.95 -0.70 0.90 -1.55 -0.55z"/>
  <path d="M10.15 8.75 c-0.90 -0.40 -1.65 -0.80 -1.65 -0.95 0 -0.30 2.55 0.70 3.25 1.30 0.65 0.55 0.25 0.50 -1.60 -0.35z"/>
  <path d="M34.45 9.25 c-0.15 -0.25 -0.45 -1.10 -0.65 -1.85 -0.30 -1.40 0.50 -2.50 1 -1.20 0.35 0.95 0.05 3.70 -0.35 3.05z"/>
  <path d="M36 7.45 c0 -0.85 0.20 -1.40 0.50 -1.20 0.30 0.15 0.50 0.85 0.50 1.55 0 0.65 -0.20 1.20 -0.50 1.20 -0.25 0 -0.50 -0.70 -0.50 -1.55z"/>
  <path d="M19.25 6.95 c-0.20 -0.30 -0.25 -0.65 -0.10 -0.80 0.35 -0.35 1.35 0.30 1.35 0.90 0 0.60 -0.85 0.60 -1.25 -0.10z"/>
  <path d="M20.65 6.25 c-0.60 -0.70 -0.90 -1.35 -0.75 -1.45 0.65 -0.40 3.70 1.20 3.50 1.80 -0.40 1.10 -1.60 0.95 -2.75 -0.35z"/>
  <path d="M25.20 4.25 c-0.50 -1.90 -0.05 -2.40 1.20 -1.25 1.35 1.30 1.45 2.50 0.10 2.50 -0.65 0 -1.10 -0.45 -1.30 -1.25z"/>
  <path d="M31 3.30 c0 -0.35 -0.45 -1.25 -1.05 -2 -0.75 -0.95 -0.85 -1.30 -0.30 -1.30 0.40 0 1.05 0.40 1.50 0.90 0.95 1 1.15 3.10 0.35 3.10 -0.25 0 -0.50 -0.30 -0.50 -0.70z"/>
  <path d="M36 2.35 c0 -2 0.50 -2.30 1.50 -1.05 0.55 0.65 0.50 0.95 -0.40 1.85 l-1.10 1.05 0 -1.85z"/>
 </g>
 <g fill="#a9acb6">
  <path d="M21.50 37.70 c0.05 -0.65 1.45 -2.40 1.70 -2.15 0.10 0.10 -0.20 0.75 -0.75 1.40 -0.50 0.65 -0.95 0.95 -0.95 0.75z"/>
  <path d="M0.20 32.05 c0.45 -0.75 4.90 -3.55 5.60 -3.55 0.35 0 1.25 -0.55 2 -1.25 1.60 -1.50 2.70 -1.60 2.70 -0.25 0 0.55 -0.30 1 -0.70 1 -0.35 0 -0.80 0.50 -0.95 1.10 -0.20 0.60 -0.45 0.95 -0.65 0.75 -0.20 -0.20 -0.90 0 -1.55 0.40 -0.65 0.45 -1.40 0.65 -1.65 0.50 -0.30 -0.20 -1.25 0.15 -2.20 0.70 -1.75 1.10 -3.05 1.40 -2.60 0.60z"/>
  <path d="M20.50 32.25 c0.05 -0.85 1.45 -2.45 1.85 -2.05 0.20 0.15 -0.15 0.80 -0.75 1.45 -0.60 0.60 -1.10 0.85 -1.10 0.60z"/>
  <path d="M12.55 28.10 c0 -0.65 0.20 -1.60 0.45 -2.15 0.75 -1.35 -0.25 -1.25 -1.25 0.20 l-0.80 1.10 0.15 -1.20 c0.10 -0.75 0.75 -1.55 1.80 -2.10 1.85 -1.05 1.85 -1.10 0.90 1.40 -0.40 1.05 -0.85 2.35 -0.95 2.90 -0.20 0.85 -0.25 0.85 -0.30 -0.15z"/>
  <path d="M7.70 23.30 c-0.40 -1.10 -0.05 -1.40 1.30 -1.20 l1.10 0.15 -1.05 0.95 c-0.95 0.85 -1.05 0.85 -1.35 0.10z"/>
  <path d="M16 22.70 c0 -0.25 0.35 -0.95 0.75 -1.50 0.40 -0.50 0.75 -0.70 0.75 -0.40 0 0.25 -0.35 0.95 -0.75 1.50 -0.40 0.50 -0.75 0.70 -0.75 0.40z"/>
  <path d="M11.50 17.65 c1.10 -3.05 2.70 -5.65 3.15 -5.20 0.25 0.25 0.10 1.05 -0.35 1.95 -0.45 0.85 -0.80 1.85 -0.80 2.25 0 0.70 -1.50 2.35 -2.15 2.35 -0.20 0 -0.10 -0.60 0.15 -1.35z"/>
 </g>
 <g fill="#88abd9">
  <path d="M1.50 31.50 c0 -0.40 1.65 -1.60 4.60 -3.25 0.50 -0.30 2.10 -1.35 3.65 -2.45 1.85 -1.30 3 -1.80 3.60 -1.55 0.80 0.30 0.80 0.40 -0.15 0.75 -0.55 0.20 -1.40 1 -1.90 1.75 -0.60 0.95 -1.20 1.25 -1.85 1.10 -0.75 -0.20 -0.95 -0.05 -0.75 0.55 0.15 0.45 0.05 1.20 -0.20 1.60 -0.25 0.40 -0.50 0.50 -0.50 0.15 0 -0.30 -0.45 -0.45 -1 -0.30 -0.55 0.15 -1 0.50 -1 0.75 0 0.30 -0.35 0.35 -0.80 0.20 -0.40 -0.15 -1.40 0.05 -2.25 0.45 -0.80 0.45 -1.45 0.55 -1.45 0.25z"/>
  <path d="M23.70 26.25 c0.55 -0.40 1.45 -0.75 2 -0.75 1.25 0 0.95 0.20 -1.20 0.90 -1.60 0.55 -1.65 0.50 -0.80 -0.15z"/>
  <path d="M8.50 21.80 c0 -0.35 0.35 -0.95 0.75 -1.30 0.60 -0.50 0.80 -0.45 1.05 0.20 0.20 0.50 0.65 0.75 1 0.60 0.35 -0.15 0.55 0 0.40 0.35 -0.35 0.90 -3.20 1.05 -3.20 0.15z"/>
  <path d="M18.60 11.35 l-1.05 -1.15 1.35 0.10 c0.75 0.05 1.50 0.15 1.70 0.15 0.55 0.10 0.20 2.05 -0.35 2.05 -0.35 0 -1.05 -0.50 -1.65 -1.15z"/>
  <path d="M22 8.05 c0 -0.25 -0.70 -1.15 -1.55 -2 -1.70 -1.75 -1.35 -1.95 1.25 -0.75 1.25 0.65 1.65 1.15 1.60 2 -0.05 1.10 -1.30 1.80 -1.30 0.75z"/>
  <path d="M19.30 6.70 c-0.20 -0.50 -0.05 -0.70 0.30 -0.60 0.75 0.25 1.15 1.40 0.50 1.40 -0.25 0 -0.65 -0.35 -0.80 -0.80z"/>
  <path d="M25.15 5.20 c0.20 -0.20 -0.10 -0.95 -0.55 -1.65 -1 -1.45 -0.90 -3.05 0.15 -3.05 0.40 0 0.60 0.30 0.45 0.65 -0.10 0.35 0.20 1.10 0.80 1.60 1.35 1.25 1.30 2.75 -0.10 2.75 -0.60 0 -0.90 -0.15 -0.75 -0.30z"/>
  <path d="M36.05 2.20 c0.05 -1.35 0.20 -1.90 0.30 -1.20 0.15 0.70 0.45 1.35 0.65 1.50 0.25 0.15 0.10 0.70 -0.30 1.20 -0.65 0.90 -0.70 0.75 -0.65 -1.50z"/>
  <path d="M39 3.50 c0 -0.55 0.25 -1 0.50 -1 0.30 0 0.50 0.45 0.50 1 0 0.55 -0.20 1 -0.50 1 -0.25 0 -0.50 -0.45 -0.50 -1z"/>
  <path d="M31 3.15 c0 -0.45 -0.50 -1.35 -1.10 -2 -0.65 -0.70 -0.85 -1.15 -0.40 -1.15 0.35 0 1.05 0.50 1.55 1.10 1 1.15 1.30 2.90 0.45 2.90 -0.25 0 -0.50 -0.40 -0.50 -0.85z"/>
  <path d="M34.25 2.95 c-0.20 -0.60 -0.15 -1.25 0.10 -1.50 0.30 -0.30 0.50 0.05 0.55 1.05 0.05 1.75 -0.20 1.95 -0.65 0.45z"/>
 </g>
 <g fill="#9ebfd2">
  <path d="M22 36.85 c0 -0.15 0.95 -1.30 2.15 -2.50 1.15 -1.20 2.45 -2.65 2.85 -3.25 0.40 -0.55 1.55 -1.15 2.50 -1.35 l1.75 -0.30 -1.50 0.70 c-0.80 0.40 -2.30 1.60 -3.25 2.65 -2.15 2.35 -4.50 4.50 -4.50 4.05z"/>
  <path d="M1 32.05 c0 -0.55 1.45 -1.75 3.50 -2.85 0.95 -0.50 2.15 -1.25 2.60 -1.65 0.75 -0.60 0.90 -0.55 1.20 0.20 0.25 0.60 0.05 1.10 -0.60 1.55 -0.50 0.35 -1.25 0.90 -1.60 1.20 -0.35 0.30 -0.85 0.40 -1.10 0.25 -0.30 -0.20 -1.30 0.15 -2.25 0.70 -0.95 0.55 -1.75 0.85 -1.75 0.60z"/>
  <path d="M21.05 31.40 c0.30 -0.75 0.90 -1.50 1.35 -1.65 1.30 -0.50 1.15 0 -0.45 1.55 l-1.55 1.45 0.65 -1.35z"/>
  <path d="M24.50 29.60 c0 -0.55 3.45 -2.30 3.80 -1.95 0.20 0.15 -0.25 0.60 -1 0.90 -0.70 0.35 -1.30 0.80 -1.30 1.05 0 0.20 -0.35 0.40 -0.75 0.40 -0.40 0 -0.75 -0.15 -0.75 -0.40z"/>
  <path d="M9 27.10 c0 -0.50 0.70 -1.30 1.50 -1.75 1.70 -1.05 1.80 -0.90 0.75 1.15 -0.85 1.65 -2.25 2 -2.25 0.60z"/>
  <path d="M23.65 26.40 c0.55 -0.50 1.45 -0.90 2.05 -0.85 0.85 0.05 0.80 0.10 -0.35 0.45 -0.80 0.25 -1.70 0.60 -2.05 0.85 -0.30 0.20 -0.15 0 0.35 -0.45z"/>
  <path d="M27 25.80 c0 -0.40 2.55 -0.65 2.80 -0.25 0.15 0.25 -0.45 0.45 -1.25 0.45 -0.85 0 -1.55 -0.10 -1.55 -0.20z"/>
  <path d="M7.50 23 c0 -0.25 0.50 -1.05 1.10 -1.75 1 -1.15 1.10 -1.15 1.70 -0.35 0.55 0.80 0.65 0.80 1.65 -0.10 0.60 -0.55 1.05 -0.75 1.05 -0.50 0 0.25 -0.45 0.85 -1 1.35 -0.55 0.45 -1 0.70 -1 0.55 0 -0.20 -0.55 0.05 -1.25 0.50 -1.40 0.90 -2.25 1.05 -2.25 0.30z"/>
  <path d="M11 19.45 c0 -0.45 1.35 -3.80 2.25 -5.60 l1 -1.95 -1.90 -1.70 c-2 -1.85 -2.05 -2 -0.10 -1.10 0.75 0.30 1.65 1.35 2 2.30 0.65 1.45 0.65 1.85 0 3.10 -0.40 0.80 -0.75 1.75 -0.75 2.15 0 0.35 -0.55 1.20 -1.25 1.85 -0.70 0.65 -1.25 1.10 -1.25 0.95z"/>
  <path d="M19.05 11.80 c-0.45 -0.55 -0.40 -0.75 0.25 -1 1.15 -0.45 1.70 -0.35 1.70 0.25 0 0.25 -0.30 0.35 -0.60 0.15 -0.45 -0.25 -0.45 -0.10 0.05 0.45 0.55 0.75 0.55 0.85 -0.10 0.85 -0.40 0 -1 -0.30 -1.30 -0.70z"/>
  <path d="M21 6.25 c-1.90 -1.95 -1.80 -2.10 0.75 -0.90 1.85 0.90 1.95 1.05 1.35 2 -0.30 0.45 -0.90 0.15 -2.10 -1.10z"/>
  <path d="M25.95 4.70 c-1.95 -2.25 -2.55 -4.70 -1.15 -4.70 0.55 0 0.70 0.25 0.50 0.85 -0.20 0.50 0.10 1.25 0.75 1.95 0.55 0.60 0.95 1.50 0.85 1.95 -0.15 0.80 -0.20 0.80 -0.95 -0.05z"/>
  <path d="M39 3.75 c0 -0.40 0.25 -0.75 0.50 -0.75 0.30 0 0.50 0.35 0.50 0.75 0 0.40 -0.20 0.75 -0.50 0.75 -0.25 0 -0.50 -0.35 -0.50 -0.75z"/>
  <path d="M31.10 2.90 c-0.30 -0.70 -0.80 -1.45 -1.10 -1.65 -0.25 -0.15 -0.40 -0.55 -0.25 -0.80 0.55 -0.85 2.35 1.40 2.15 2.65 l-0.20 1.15 -0.60 -1.35z"/>
  <path d="M36 2.80 c0 -0.95 0.25 -1.30 1 -1.30 0.85 0 0.95 0.15 0.50 0.95 -0.80 1.60 -1.50 1.70 -1.50 0.35z"/>
 </g>
 <g fill="#acd0df">
  <path d="M24.60 34.10 c0.65 -0.75 1.60 -1.95 2.05 -2.70 0.50 -0.80 1.25 -1.40 1.70 -1.40 0.55 0 0.45 0.25 -0.45 1 -0.70 0.50 -1.55 1.65 -1.85 2.45 -0.35 0.80 -1.10 1.60 -1.65 1.70 -0.95 0.25 -0.95 0.20 0.20 -1.05z"/>
  <path d="M20.90 31.70 c0.60 -1.15 2 -2.45 2.30 -2.15 0.10 0.10 -0.50 0.85 -1.35 1.70 -1 1 -1.35 1.15 -0.95 0.45z"/>
  <path d="M24.80 29.60 c-0.15 -0.25 0.50 -0.80 1.45 -1.25 0.95 -0.45 1.75 -0.60 1.75 -0.35 0 0.30 -0.25 0.50 -0.60 0.50 -0.30 0 -0.95 0.35 -1.45 0.80 -0.45 0.40 -1 0.55 -1.15 0.30z"/>
  <path d="M7 28.85 c0 -0.95 0.80 -1.55 1.20 -0.90 0.15 0.25 -0.05 0.70 -0.45 1.05 -0.60 0.50 -0.75 0.50 -0.75 -0.15z"/>
  <path d="M7.50 23.15 c0.05 -0.25 0.50 -0.95 1.05 -1.60 0.80 -0.95 1.10 -1.10 1.45 -0.60 0.45 0.75 0.75 0.65 3.45 -1 1.20 -0.70 1.55 -0.80 1.10 -0.25 -0.70 0.80 -5.90 3.80 -6.65 3.80 -0.20 0 -0.40 -0.15 -0.40 -0.35z"/>
  <path d="M12.20 16.25 c0.70 -1.50 1.45 -3.10 1.75 -3.60 0.50 -0.85 0.50 -0.85 0.55 0.10 0 1.35 -1.10 4.45 -1.95 5.45 -1.35 1.60 -1.50 0.75 -0.35 -1.95z"/>
  <path d="M21.30 6.20 c-0.20 -0.55 -0.05 -0.70 0.55 -0.60 0.45 0.10 0.90 0.45 1.05 0.80 0.30 0.90 -1.25 0.75 -1.60 -0.20z"/>
  <path d="M25.60 3.95 c-0.35 -0.60 -0.55 -1.15 -0.40 -1.30 0.40 -0.45 1.80 0.85 1.80 1.65 0 1 -0.65 0.85 -1.40 -0.35z"/>
  <path d="M30.85 2.40 c-0.35 -1.25 -0.15 -1.65 0.60 -1.15 0.65 0.40 0.75 2.25 0.10 2.25 -0.25 0 -0.55 -0.50 -0.70 -1.10z"/>
  <path d="M36 1.75 c0 -1.95 0.45 -2.20 1.35 -0.75 0.50 0.75 0.50 1.10 -0.15 1.75 -1.10 1.05 -1.20 0.95 -1.20 -1z"/>
 </g>
 <g fill="#c8e6ed">
  <path d="M25.05 34.35 c-0.05 -0.65 2.55 -4.35 3.05 -4.35 0.25 0 -0.05 0.65 -0.70 1.45 -0.60 0.75 -1.40 1.85 -1.75 2.35 -0.30 0.55 -0.60 0.80 -0.60 0.55z"/>
  <path d="M25 29.55 c0 -0.30 0.70 -0.85 1.50 -1.30 0.85 -0.45 1.50 -0.70 1.50 -0.60 0 0.10 -0.65 0.65 -1.50 1.25 -0.80 0.65 -1.50 0.90 -1.50 0.65z"/>
  <path d="M11.40 18.15 c0.25 -0.50 0.95 -1.90 1.55 -3.15 1 -2.20 1.05 -1.95 0.30 1.75 -0.15 0.65 -0.70 1.45 -1.30 1.75 -0.85 0.50 -0.95 0.45 -0.55 -0.35z"/>
  <path d="M36.30 2.60 c-0.15 -0.30 -0.10 -1.05 0.15 -1.65 l0.40 -1.20 0.40 1.20 c0.35 1.20 -0.40 2.55 -0.95 1.65z"/>
 </g>
</svg>