<?xml version="1.0" encoding="utf-8"?>
<!DOCTYPE svg PUBLIC "-//W3C//DTD SVG 1.0//EN" "http://www.w3.org/TR/2001/REC-SVG-20010904/DTD/svg10.dtd">
<svg version="1.0" xmlns="http://www.w3.org/2000/svg" width="40px" height="40px" viewBox="0 0 40 40" preserveAspectRatio="xMidYMid meet">
 <g fill="#080402">
  <path d="M9.50 38.25 c0 -1.65 0.10 -1.75 1.75 -1.75 1.65 0 1.75 0.10 1.75 1.75 0 1.65 -0.10 1.75 -1.75 1.75 -1.65 0 -1.75 -0.10 -1.75 -1.75z"/>
  <path d="M20.50 29.70 c0 -1.35 0.25 -1.85 1 -2.05 0.55 -0.15 1 -0.55 1 -0.90 0 -1.10 1.40 -1.80 3.20 -1.65 l1.80 0.15 -0.75 1.45 c-0.40 0.75 -0.75 1.75 -0.75 2.10 0 0.40 -0.35 0.70 -0.75 0.70 -0.40 0 -0.75 0.45 -0.75 1 0 0.85 -0.35 1 -2 1 -1.95 0 -2 -0.05 -2 -1.80z"/>
  <path d="M5.35 23.15 c-0.20 -0.15 -0.35 -1.05 -0.35 -2 0 -1.60 0.05 -1.65 2 -1.65 l2 0 0 2 c0 1.95 -0.05 2 -1.65 2 -0.95 0 -1.85 -0.15 -2 -0.35z"/>
  <path d="M30.50 13.80 c0 -1.90 1.10 -2.55 1.70 -1 0.20 0.50 0.60 0.70 1.10 0.50 0.60 -0.20 0.75 0 0.60 0.85 -0.10 0.85 -0.55 1.15 -1.75 1.25 -1.60 0.15 -1.65 0.10 -1.65 -1.60z"/>
 </g>
 <g fill="#212317">
  <path d="M37.50 39.50 c0 -0.25 0.55 -0.50 1.25 -0.50 0.70 0 1.25 0.25 1.25 0.50 0 0.30 -0.55 0.50 -1.25 0.50 -0.70 0 -1.25 -0.20 -1.25 -0.50z"/>
  <path d="M31 36.75 c0 -1.50 0.15 -1.50 2.05 -0.40 1.90 1.15 1.85 1.65 -0.30 1.65 -1.55 0 -1.75 -0.15 -1.75 -1.25z"/>
  <path d="M19.50 30.75 c0 -1.25 0.25 -1.90 0.90 -2.10 0.45 -0.20 1.20 -0.75 1.65 -1.25 1.40 -1.55 3.95 -1 3.95 0.90 0 1.95 -2.50 4.20 -4.70 4.20 -1.75 0 -1.80 -0.05 -1.80 -1.75z"/>
  <path d="M10.15 25.70 c-0.35 -0.15 -0.65 -0.70 -0.65 -1.25 0 -0.75 -0.35 -0.95 -1.75 -0.95 -1.70 0 -1.75 -0.05 -1.75 -1.90 0 -2.55 1.25 -3.70 3.80 -3.50 1.60 0.10 2.15 0.50 3.30 2.15 1 1.40 1.35 2.50 1.25 3.75 -0.10 1.60 -0.25 1.75 -1.85 1.85 -0.95 0.05 -2.05 0 -2.35 -0.15z"/>
  <path d="M20.30 24.70 c-1.25 -3.25 1.35 -6.70 5.10 -6.70 1.90 0 3.10 1.40 3.10 3.70 l0 1.90 -2.10 -0.20 c-1.90 -0.10 -2.15 0 -2.30 1 -0.15 0.90 -0.50 1.10 -1.85 1.10 -1.05 0 -1.75 -0.30 -1.95 -0.80z"/>
  <path d="M0.25 23.50 c-0.40 -0.70 0.15 -1.50 1.05 -1.50 0.40 0 0.70 0.45 0.70 1 0 1.05 -1.20 1.40 -1.75 0.50z"/>
  <path d="M31 20.50 c0 -0.55 0.35 -1 0.75 -1 0.40 0 0.75 0.30 0.75 0.70 0 0.40 -0.35 0.80 -0.75 1 -0.50 0.20 -0.75 -0.05 -0.75 -0.70z"/>
  <path d="M31.25 17.45 c-0.90 -0.95 -1 -0.95 -1.35 -0.10 -0.25 0.70 -0.35 0.60 -0.35 -0.45 -0.05 -1.25 0.10 -1.40 1.65 -1.40 1.50 0 1.65 0.10 1.60 1.50 -0.05 1.75 -0.20 1.80 -1.55 0.45z"/>
  <path d="M0 15.50 c0 -0.55 0.25 -1 0.50 -1 0.30 0 0.50 -0.35 0.50 -0.75 0 -1 0.80 -0.95 1.20 0 0.35 0.95 -0.70 2.75 -1.55 2.75 -0.35 0 -0.65 -0.45 -0.65 -1z"/>
  <path d="M30.50 13.25 c0 -1.20 0.25 -1.75 0.75 -1.75 0.65 0 1 0.95 0.80 2.15 -0.05 0.20 0.40 0.15 0.95 -0.15 0.85 -0.45 1 -0.40 1 0.50 0 0.80 -0.30 1 -1.75 1 -1.65 0 -1.75 -0.10 -1.75 -1.75z"/>
  <path d="M0 9 c0 -0.65 0.35 -1 1 -1 0.55 0 1 0.15 1 0.40 0 0.20 -0.45 0.65 -1 1 -0.90 0.55 -1 0.50 -1 -0.40z"/>
 </g>
 <g fill="#3a2e20">
  <path d="M0 38.90 c0 -0.75 0.45 -1.35 1.25 -1.75 1.20 -0.55 1.25 -0.50 1.25 1.15 0 1.50 -0.15 1.70 -1.25 1.70 -0.95 0 -1.25 -0.25 -1.25 -1.10z"/>
  <path d="M4.50 38.50 c0 -1.05 -0.25 -1.50 -0.80 -1.50 -1.35 0 -0.45 -1.20 1.35 -1.85 0.95 -0.35 2.55 -0.60 3.60 -0.60 1.60 -0.05 1.85 -0.20 1.85 -1.20 0 -0.65 -0.20 -1.35 -0.45 -1.65 -0.35 -0.35 -2.05 -4.95 -2.05 -5.55 0 -0.10 0.45 -0.15 1 -0.15 0.85 0 1 -0.30 0.95 -2.10 -0.05 -1.20 -0.20 -1.65 -0.30 -1 -0.15 0.70 -0.60 1.10 -1.20 1.10 -0.50 0 -0.95 0.35 -0.95 0.75 0 0.65 -0.15 0.65 -1 0.15 -1.30 -0.85 -1.95 -3.10 -2.35 -8.50 -0.30 -4.10 -0.35 -4.35 -1.25 -3.85 -0.60 0.30 -0.85 0.85 -0.70 1.30 0.20 0.45 0.10 1.05 -0.20 1.40 -0.30 0.35 -0.35 1.05 -0.10 1.75 0.60 1.60 0.15 4 -0.75 4 -0.50 0 -0.70 -0.35 -0.50 -1 0.15 -0.55 0.05 -1 -0.20 -1 -0.25 0 -0.45 -0.90 -0.45 -2 0 -1.10 0.20 -2 0.45 -2 0.75 0 1 -1.90 0.25 -2.20 -0.40 -0.15 -0.70 -0.70 -0.70 -1.20 0 -0.75 0.30 -0.90 1.55 -0.70 1.30 0.20 1.50 0.10 1.35 -0.70 -0.15 -0.70 -0.60 -0.90 -1.55 -0.85 -1.05 0.05 -1.35 -0.15 -1.35 -0.90 0 -0.85 0.20 -1 1.45 -0.70 1.30 0.30 1.50 0.15 1.80 -1.20 0.20 -0.85 0.65 -1.55 1.05 -1.55 1.10 0 0.95 4.30 -0.15 4.95 -0.85 0.50 -0.85 0.50 0 0.55 0.50 0 0.85 0.40 0.85 1 0 0.55 0.25 1 0.50 1 0.30 0 0.50 1.25 0.50 2.75 l0 2.75 2.25 0 c1.90 0 2.25 0.15 2.25 1 0 0.75 0.35 1 1.25 1 0.70 0 1.75 0.50 2.30 1.05 0.95 0.95 1.05 1.45 0.75 4.25 -0.30 3.15 -0.30 3.20 0.90 3.20 0.70 0 1.45 0.40 1.75 0.90 0.45 0.75 0.65 0.70 2.30 -0.90 1.75 -1.70 1.80 -1.75 0.65 -2 -0.95 -0.25 -1.15 -0.65 -1.30 -2.70 -0.15 -2.20 0 -2.50 1.70 -4.15 1.75 -1.60 2.05 -1.70 4.65 -1.55 l2.80 0.15 0.15 -2.60 c0.10 -1.90 0.35 -2.65 0.90 -2.65 0.40 0 0.70 -0.45 0.70 -1.05 0 -1.20 2.10 -3.35 2.40 -2.50 0.10 0.30 0.45 0.55 0.75 0.55 0.35 0 1 0.60 1.55 1.30 0.75 1.10 0.80 1.40 0.25 1.75 -0.40 0.25 -0.50 0.45 -0.25 0.45 0.25 0 -0.05 0.55 -0.70 1.25 -1.10 1.15 -1.30 1.95 -1.45 4.90 -0.05 0.45 -0.40 0.85 -0.85 0.85 -0.80 0 -0.80 -0.10 0.15 -2.35 0.10 -0.30 -0.20 -0.80 -0.75 -1.10 -0.90 -0.50 -1 -0.30 -1.35 2.70 -0.20 2.25 -0.70 3.70 -1.45 4.65 -2.15 2.70 -2.40 3.70 -1.55 5.75 l0.80 1.90 -1.40 -0.15 c-1.85 -0.20 -3.40 1.65 -3.25 3.85 0.10 0.85 -0.05 2.15 -0.35 2.90 -0.45 1.10 -0.85 1.35 -2.30 1.35 -1.65 0 -1.75 -0.10 -1.75 -1.75 l0 -1.75 -2.50 0 -2.50 0 0 1.75 0 1.75 -4.50 0 -4.50 0 0 -1.50z m18.25 -8.50 c0.50 -0.55 0.70 -1 0.40 -1 -0.25 0 -0.90 0.45 -1.40 1 -0.50 0.55 -0.70 1 -0.40 1 0.25 0 0.90 -0.45 1.40 -1z m2.20 -5.70 c0.85 -1.55 0.20 -2.85 -0.80 -1.55 -0.70 1.05 -0.90 2.75 -0.25 2.75 0.25 0 0.70 -0.55 1.05 -1.20z m-13 -2 c-1.55 -2.65 -2.30 -3.10 -3.35 -2.10 -0.50 0.45 -1.25 0.80 -1.60 0.80 -0.55 0 -0.60 0.10 -0.05 0.65 0.50 0.50 0.70 0.45 1.10 -0.25 0.30 -0.50 0.75 -0.90 1.10 -0.90 0.80 0.05 2.50 2.40 2.10 2.95 -0.15 0.25 0.05 0.55 0.35 0.70 1.25 0.40 1.35 -0.20 0.35 -1.85z m11.60 -0.90 c0.50 -0.50 1.25 -0.90 1.65 -0.90 0.40 0 1 0.40 1.25 0.90 0.30 0.45 0.55 0.65 0.55 0.40 0 -0.25 -0.35 -0.90 -0.80 -1.35 -0.65 -0.75 -1.05 -0.80 -1.90 -0.40 -1.55 0.80 -2.75 2.50 -2.40 3.40 0.25 0.65 0.35 0.60 0.50 -0.20 0.10 -0.55 0.60 -1.40 1.15 -1.85z m10.35 -8.55 c0.55 -0.40 0.55 -0.60 0 -0.90 -1.20 -0.80 -1.90 -0.45 -1.90 0.85 0 1.25 0.30 1.25 1.90 0.05z"/>
  <path d="M35.50 39.05 c0 -0.95 0.10 -0.95 2.25 -0.20 1.25 0.40 2.25 0.85 2.25 0.95 0 0.10 -1 0.20 -2.25 0.20 -1.90 0 -2.25 -0.15 -2.25 -0.95z"/>
  <path d="M30.80 23.65 c-0.60 -0.60 -0.30 -1.65 0.45 -1.65 0.40 0 0.75 0.30 0.75 0.70 0 0.85 -0.70 1.40 -1.20 0.95z"/>
  <path d="M21 5.30 c0 -0.95 0.20 -1.15 0.95 -0.95 0.50 0.10 2.05 -0.35 3.45 -1.05 1.40 -0.70 2.70 -1.30 2.85 -1.30 0.15 0 0.25 0.55 0.25 1.25 0 0.90 -0.25 1.25 -1 1.25 -0.55 0 -1 0.20 -1 0.40 0 0.65 -2.40 1.60 -4 1.60 -1.25 0 -1.50 -0.20 -1.50 -1.20z"/>
  <path d="M12 4.05 l0 -1.40 1.75 0.80 c2.25 1.05 2.25 2.05 0 2.05 -1.60 0 -1.75 -0.15 -1.75 -1.45z"/>
  <path d="M4 2.90 c0 -1.50 0.65 -2.90 1.30 -2.90 0.45 0 0.70 0.60 0.70 1.75 0 1.40 -0.20 1.75 -1 1.75 -0.55 0 -1 -0.30 -1 -0.60z"/>
  <path d="M29 1.70 c0 -0.15 0.30 -0.60 0.70 -1 1.05 -1.05 2.30 -0.85 2.30 0.30 0 0.80 -0.35 1 -1.50 1 -0.80 0 -1.50 -0.15 -1.50 -0.30z"/>
 </g>
 <g fill="#503e2b">
  <path d="M3.85 37.90 c-0.15 -1.20 -0.20 -2.20 -0.10 -2.30 0.10 -0.10 1.40 -0.30 2.90 -0.45 l2.70 -0.25 0.35 1.65 c0.15 0.90 0.70 2.05 1.15 2.55 0.75 0.85 0.65 0.90 -2.95 0.90 l-3.75 0 -0.30 -2.10z m4.55 0.25 c-0.50 -0.10 -1.30 -0.10 -1.75 0 -0.50 0.15 -0.10 0.25 0.85 0.25 0.95 0 1.35 -0.10 0.90 -0.25z"/>
  <path d="M12 38.55 c0 -0.80 -0.25 -2.10 -0.50 -2.85 -0.60 -1.50 -0.30 -2.20 0.60 -1.30 0.35 0.35 2 0.60 3.70 0.60 3.35 0 3.30 0.05 9.10 -6.80 1.15 -1.40 1.55 -1.65 1.35 -0.90 -0.15 0.60 -0.05 1.65 0.20 2.40 0.45 1.15 0.40 1.30 -0.45 1.30 -0.55 0 -1 0.30 -1 0.70 0 0.35 -0.35 0.95 -0.75 1.30 -0.45 0.35 -0.75 1.45 -0.75 2.55 0 1 -0.35 2.20 -0.75 2.65 -0.40 0.40 -0.75 0.95 -0.75 1.25 0 0.30 -0.90 0.55 -2 0.55 -1.80 0 -2 -0.10 -2 -1.25 0 -1.10 -0.20 -1.25 -2 -1.25 -1.80 0 -2 0.15 -2 1.25 0 0.90 -0.25 1.25 -1 1.25 -0.75 0 -1 -0.35 -1 -1.45z"/>
  <path d="M9.75 30.85 c-1.05 -2.55 -0.90 -2.95 0.30 -0.70 0.55 1.10 0.90 2.05 0.75 2.20 -0.15 0.20 -0.65 -0.50 -1.05 -1.50z"/>
  <path d="M13.90 31.35 c-0.50 -0.40 -0.90 -1.55 -1 -2.90 -0.20 -2.20 -0.20 -2.20 -0.60 -0.60 l-0.40 1.60 -1.60 -1.10 c-3.50 -2.40 -5.80 -5.90 -5.80 -8.85 0 -1.40 0.10 -1.45 3.35 -1.80 l3.35 -0.35 1.60 1.85 c0.90 1 2 1.80 2.65 1.80 0.85 0 1.05 0.30 1.05 1.70 0 0.90 -0.35 1.95 -0.75 2.30 -0.40 0.35 -0.75 1.25 -0.75 2.05 0 1.40 0.05 1.45 2.75 1.45 2.25 0 2.75 0.15 2.75 0.85 0 0.75 0.10 0.75 0.90 -0.15 0.50 -0.50 1.05 -1.35 1.25 -1.80 0.25 -0.75 0.05 -0.90 -1.15 -0.90 -0.85 0 -1.50 -0.20 -1.50 -0.45 0 -0.25 -0.45 -0.55 -0.95 -0.70 -0.75 -0.20 -1.05 -0.85 -1.30 -3.05 -0.45 -3.65 -0.20 -4.30 2 -4.30 1.30 0 1.75 0.20 1.80 0.90 0 0.65 0.10 0.70 0.30 0.10 0.45 -1.15 1.20 -1.50 3.30 -1.50 1.20 0 2 0.25 2.15 0.75 0.20 0.40 0.60 0.75 1 0.75 0.45 0 0.70 0.60 0.70 1.75 0 1.65 -0.10 1.75 -1.75 1.75 -0.95 0 -1.75 -0.20 -1.75 -0.50 0 -0.25 -0.35 -0.50 -0.75 -0.50 -0.50 0 -0.75 0.50 -0.75 1.50 0 1.15 0.20 1.50 1 1.50 0.55 0 1 -0.35 1 -0.75 0 -0.50 0.50 -0.75 1.50 -0.75 1.35 0 1.45 0.10 0.95 0.90 -0.30 0.50 -1.40 1.45 -2.40 2.10 -1 0.65 -2.95 2.30 -4.40 3.60 -2.25 2.10 -2.80 2.40 -4 2.10 -0.75 -0.20 -1.60 -0.65 -1.80 -1.05 -0.55 -0.85 -1.40 -0.35 -1 0.60 0.30 0.90 0.15 0.90 -0.95 0.10z m-4.10 -8.75 c-0.75 -0.75 -0.80 -0.70 -0.80 0.75 0 0.85 0.30 1.65 0.65 1.80 0.90 0.30 1.05 -1.65 0.15 -2.55z m3.70 1.40 c0 -0.25 -0.80 -1.30 -1.80 -2.45 -1.55 -1.70 -2.05 -1.95 -3.50 -1.85 -2.10 0.20 -2.40 0.45 -1.95 1.75 0.35 1.20 1.75 1.40 1.75 0.30 0 -1.35 1.50 -1.45 2.40 -0.20 0.45 0.65 0.85 1.50 0.85 1.85 0 0.35 0.35 0.85 0.75 1.10 0.75 0.45 1.50 0.25 1.50 -0.50z m9 -0.95 c0 -0.95 1.70 -2.55 2.75 -2.55 0.40 0 0.90 0.40 1.20 0.85 0.25 0.50 0.65 0.70 0.90 0.50 0.45 -0.50 -1.60 -2.35 -2.60 -2.35 -0.40 0 -1.50 0.75 -2.45 1.70 -1.70 1.60 -2.20 2.75 -1.45 3.45 0.45 0.50 1.65 -0.65 1.65 -1.60z"/>
  <path d="M0.35 23.30 c-0.35 -0.80 0.05 -1.30 1 -1.30 0.35 0 0.65 0.45 0.65 1 0 1.15 -1.25 1.35 -1.65 0.30z"/>
  <path d="M30.75 23.50 c-0.35 -0.60 0.10 -1.50 0.80 -1.50 0.60 0 0.60 1.35 0 1.75 -0.25 0.15 -0.60 0.05 -0.80 -0.25z"/>
  <path d="M0.80 17 c0.10 -2.20 -0.05 -4.10 -0.30 -4.25 -0.95 -0.55 -0.55 -1.90 0.45 -1.60 1.30 0.30 2.25 -0.40 1.85 -1.40 -0.20 -0.60 -0.70 -0.80 -1.55 -0.65 -0.85 0.20 -1.25 0.05 -1.25 -0.45 0 -0.60 0.45 -0.70 2.15 -0.45 1.15 0.15 2.25 0.25 2.50 0.25 0.20 0.05 0.35 0.40 0.35 0.80 0 0.40 0.45 0.75 1 0.75 0.80 0 1 0.35 1 1.75 0 0.95 -0.20 1.75 -0.50 1.75 -0.25 0 -0.50 0.45 -0.50 1 0 1.75 -1.45 1.15 -1.80 -0.75 -0.15 -0.95 -0.50 -1.75 -0.70 -1.75 -0.65 0 -1.60 1.45 -1.25 2 0.15 0.25 0.15 0.80 -0.10 1.15 -0.20 0.30 -0.30 1.80 -0.20 3.25 0.10 2.05 0 2.60 -0.60 2.60 -0.60 0 -0.70 -0.70 -0.55 -4z"/>
  <path d="M31 20.50 c0 -0.30 0.25 -0.95 0.60 -1.50 0.50 -0.80 0.45 -1.15 -0.50 -2.15 -1.20 -1.30 -1.40 -1.85 -0.55 -1.85 0.25 0 0.35 0.30 0.15 0.65 -0.20 0.30 0.20 0 0.95 -0.75 0.80 -0.90 1.60 -1.30 2.10 -1.10 0.70 0.30 0.70 0.45 -0.20 1.30 -0.80 0.70 -1.05 1.55 -1.05 3.40 0 1.90 -0.20 2.50 -0.75 2.50 -0.40 0 -0.75 -0.25 -0.75 -0.50z"/>
  <path d="M30 13.80 c0 -0.50 0.45 -0.80 1.05 -0.80 1.20 0 1.05 1.15 -0.20 1.40 -0.50 0.10 -0.85 -0.15 -0.85 -0.60z"/>
  <path d="M3.50 5.90 c0 -1.50 0.65 -2.90 1.30 -2.90 0.45 0 0.70 0.60 0.70 1.75 0 1.40 -0.20 1.75 -1 1.75 -0.55 0 -1 -0.30 -1 -0.60z"/>
  <path d="M19.50 5 c0 -1.10 1 -1.30 2.55 -0.50 1.50 0.80 1.15 1.50 -0.80 1.50 -1.40 0 -1.75 -0.20 -1.75 -1z"/>
  <path d="M24 4.60 c0 -0.25 0.60 -0.75 1.40 -1.10 0.75 -0.40 1.95 -1.15 2.75 -1.65 l1.35 -0.90 0 1.50 c0 1.20 -0.20 1.55 -1 1.55 -0.55 0 -1 0.25 -1 0.50 0 0.30 -0.80 0.50 -1.75 0.50 -0.95 0 -1.75 -0.20 -1.75 -0.40z"/>
  <path d="M7.50 1.40 c0 -0.90 0.20 -1.40 0.40 -1.15 0.20 0.30 0.95 0.80 1.75 1.10 1.90 0.85 1.70 1.65 -0.40 1.65 -1.65 0 -1.75 -0.10 -1.75 -1.60z"/>
 </g>
 <g fill="#39592f">
  <path d="M21.65 24.95 c0.45 -0.25 0.85 -1 0.85 -1.60 0 -2.05 3.15 -3.80 3.80 -2.10 0.20 0.40 0.50 0.75 0.75 0.75 0.80 0 0.45 -1.10 -0.65 -2.05 l-1.15 -1 1.25 0.15 c1.10 0.15 1.25 0.45 1.40 2.30 0.10 1.25 -0.05 2.10 -0.35 2.10 -0.30 0 -0.55 0.30 -0.55 0.70 0 0.70 -2.15 1.30 -4.70 1.30 -1.30 -0.05 -1.40 -0.10 -0.65 -0.55z"/>
  <path d="M8.40 24.65 c-0.80 -0.10 -1.40 -0.40 -1.40 -0.60 0 -0.90 1.60 -3.55 2.15 -3.55 0.65 0 2.10 1.90 2.10 2.75 0 0.30 0.20 0.80 0.40 1.15 0.40 0.60 -0.35 0.70 -3.25 0.25z"/>
  <path d="M11.35 20.75 c-0.80 -1.05 -1.15 -1.75 -0.75 -1.75 0.80 0.05 2.55 2.35 2.30 3 -0.10 0.30 -0.80 -0.30 -1.55 -1.25z"/>
  <path d="M21 21.40 c0 -0.85 1.90 -2.50 2.70 -2.30 0.30 0.10 -0.15 0.80 -1.05 1.55 -1.05 0.90 -1.65 1.20 -1.65 0.75z"/>
  <path d="M7 19.50 c0 -0.25 0.50 -0.50 1.15 -0.50 0.90 0 0.95 0.10 0.35 0.50 -0.95 0.65 -1.50 0.65 -1.50 0z"/>
 </g>
 <g fill="#5a4a3b">
  <path d="M3.50 39.60 c0 -0.20 -0.80 -0.30 -1.75 -0.20 -0.95 0.10 -1.75 0.05 -1.75 -0.15 0 -0.75 3.45 -3.75 4.35 -3.75 0.50 0 1.70 -0.15 2.65 -0.30 1.60 -0.25 1.80 -0.15 2.35 1.30 l0.60 1.65 -2.20 -0.35 c-1.25 -0.15 -2.25 -0.10 -2.25 0.15 0 0.55 1.80 1.05 3.85 1.05 0.85 0 1.75 0.25 1.90 0.50 0.20 0.30 -1.15 0.50 -3.70 0.50 -2.25 0 -4.05 -0.20 -4.05 -0.40z"/>
  <path d="M12.10 38.90 c0.05 -0.65 -0.10 -1.90 -0.30 -2.75 l-0.40 -1.65 1.70 0.70 c1.95 0.85 4.95 0.70 6.30 -0.30 1.25 -0.90 4.10 -4.15 4.10 -4.75 0 -0.25 0.65 -1.20 1.40 -2.15 l1.45 -1.70 -0.05 1.85 c-0.05 1 -0.20 1.85 -0.40 1.85 -0.25 0 -0.40 0.35 -0.40 0.75 0 0.40 -0.35 0.75 -0.75 0.75 -0.45 0 -0.75 0.45 -0.75 1.05 0 1.40 -1.15 2.45 -2.75 2.45 -1.10 0 -1.30 0.20 -1.10 1 0.15 0.55 0 1.70 -0.30 2.50 -0.50 1.35 -0.80 1.50 -2.70 1.50 -1.95 0 -2.15 -0.10 -2.15 -1.25 0 -0.70 -0.20 -1.25 -0.50 -1.25 -0.25 0 -0.50 0.55 -0.50 1.25 0 0.90 -0.25 1.25 -1 1.25 -0.70 0 -0.95 -0.30 -0.90 -1.10z"/>
  <path d="M20 39.75 c0 -0.70 1.60 -3.25 2 -3.25 0.30 0 0.50 0.80 0.50 1.75 0 1.55 -0.15 1.75 -1.25 1.75 -0.70 0 -1.25 -0.10 -1.25 -0.25z"/>
  <path d="M30 37.50 c0 -1.35 0.10 -2.50 0.30 -2.50 0.15 0 1.15 0.50 2.20 1.15 1.55 0.85 2 1.40 2 2.50 0 1.25 -0.15 1.35 -2.25 1.35 l-2.25 0 0 -2.50z"/>
  <path d="M37 39.50 c0 -0.25 0.45 -0.50 1 -0.50 0.55 0 1 0.25 1 0.50 0 0.30 -0.45 0.50 -1 0.50 -0.55 0 -1 -0.20 -1 -0.50z"/>
  <path d="M26 32.25 c0 -2.20 0.45 -2.20 1.90 0 l1.10 1.75 -1.50 0 c-1.40 0 -1.50 -0.15 -1.50 -1.75z"/>
  <path d="M13.70 30.90 c-0.70 -1.10 -0.20 -6.60 0.70 -7.60 0.80 -0.90 0.80 -0.95 -0.10 -0.65 -0.90 0.35 -2.30 -0.35 -2.30 -1.20 0 -0.20 0.45 -0.50 0.95 -0.70 0.65 -0.20 1.05 -0.85 1.15 -1.90 0.15 -1.45 0.30 -1.60 2.05 -1.75 1.05 -0.10 1.85 0.05 1.85 0.35 0 0.30 0.70 0.55 1.50 0.55 1.25 0 1.50 0.20 1.50 1.20 0 0.65 0.30 1.35 0.65 1.45 0.40 0.15 0.10 0.65 -0.80 1.45 -1.45 1.15 -1.45 1.15 -0.40 2.10 0.55 0.50 1.25 0.75 1.50 0.55 0.35 -0.15 0.55 0.10 0.55 0.70 0 0.85 -0.30 1.05 -1.75 1.05 -1.40 0 -1.75 -0.20 -1.75 -1 0 -0.55 -0.20 -1 -0.50 -1 -0.25 0 -0.50 -0.55 -0.50 -1.25 0 -0.70 -0.20 -1.25 -0.50 -1.25 -0.25 0 -0.50 0.45 -0.50 1 0 0.55 -0.35 1 -0.75 1 -0.50 0 -0.75 0.50 -0.75 1.50 0 1 -0.25 1.50 -0.75 1.50 -1 0 -0.95 0.30 0.40 1.65 l1.10 1.10 -1.15 0.15 c-0.80 0.10 -1.10 0.40 -0.90 0.90 0.30 0.85 0 0.95 -0.50 0.10z"/>
  <path d="M16.50 30 c0 -1.40 0.15 -1.50 1.75 -1.50 1.60 0 1.75 0.10 1.75 1.50 0 1.20 -0.20 1.50 -1.05 1.50 -0.95 0 -1 -0.10 -0.40 -0.85 0.65 -0.85 0.65 -0.85 -0.35 0 -1.40 1.20 -1.70 1.10 -1.70 -0.65z"/>
  <path d="M22 28.60 c0 -0.35 0.25 -0.60 0.50 -0.60 0.30 0 0.50 -0.25 0.50 -0.55 0 -0.90 1.40 -1.95 2.60 -1.95 1.10 0.05 1.10 0.05 0.15 0.60 -0.55 0.30 -1.60 1.10 -2.35 1.80 -0.80 0.70 -1.40 1 -1.40 0.70z"/>
  <path d="M9.75 27.50 c-0.20 -0.30 -0.50 -0.40 -0.70 -0.25 -0.65 0.35 -2.25 -3.05 -1.90 -3.95 0.20 -0.50 0.55 -0.70 0.85 -0.55 0.25 0.15 0.50 -0.15 0.50 -0.75 0 -0.60 0.25 -0.90 0.50 -0.75 0.80 0.50 0.60 3.25 -0.25 3.25 -0.40 0 -0.75 0.25 -0.75 0.50 0 0.95 2.05 0.50 2.40 -0.55 l0.40 -1 0.95 1.05 c0.80 0.90 0.85 1.15 0.25 2.25 -0.70 1.30 -1.70 1.65 -2.25 0.75z"/>
  <path d="M5.45 23.20 c-0.60 -1.45 -1.50 -10.65 -1.10 -11.30 0.35 -0.60 -0.60 -0.45 -1.25 0.20 -0.45 0.45 -0.60 0.40 -0.60 -0.25 0 -0.45 0.25 -0.85 0.50 -0.85 0.30 0 0.50 -0.40 0.40 -0.85 -0.10 -0.75 0.30 -0.95 2 -1.05 l2.15 -0.15 -0.10 2.90 c-0.10 3.55 0.65 5.65 2.05 5.65 0.65 0 1 0.35 1 0.90 0 0.90 -0.70 1.10 -3.60 1.15 -1.15 0 -1.40 0.20 -1.40 1.25 0 0.70 0.25 1.70 0.55 2.30 0.30 0.55 0.40 1.10 0.25 1.25 -0.15 0.15 -0.55 -0.35 -0.85 -1.15z"/>
  <path d="M27.50 21.50 c0 -0.30 -0.60 -1.10 -1.35 -1.75 l-1.40 -1.20 1.60 -0.05 c1.95 0 2.25 -0.75 2.25 -5.80 -0.05 -3.35 0.05 -3.70 0.95 -3.70 0.50 0 0.95 -0.35 0.95 -0.75 0 -0.40 0.45 -0.75 1 -0.75 0.70 0 1 0.35 1 1.20 0 0.65 0.35 1.30 0.75 1.50 0.40 0.15 0.75 0.50 0.75 0.85 0 0.30 -0.30 0.45 -0.70 0.30 -1 -0.40 -1.75 0.70 -1.25 1.90 0.65 1.70 0.50 3.75 -0.25 3.75 -1.10 0 -1.40 -0.80 -0.55 -1.50 1.10 -0.90 0.90 -1.45 -0.35 -1.10 -0.65 0.15 -0.85 0.35 -0.50 0.50 0.40 0.10 0.50 0.40 0.20 0.75 -0.25 0.35 -0.60 1.55 -0.75 2.70 -0.15 1.15 -0.60 2.45 -1 2.90 -0.90 0.90 -1.35 0.95 -1.35 0.25z"/>
  <path d="M20.50 5.25 c0 -1.10 0.15 -1.15 1.15 -0.80 0.70 0.30 1.50 0.30 1.90 0 1.15 -0.70 1.45 -0.55 1.45 0.80 0 1.15 -0.20 1.25 -2.25 1.25 -2.05 0 -2.25 -0.10 -2.25 -1.25z"/>
  <path d="M30.50 3.75 c0 -2 1.20 -2.45 1.70 -0.60 0.50 1.85 0.35 2.35 -0.70 2.35 -0.80 0 -1 -0.35 -1 -1.75z"/>
  <path d="M10.50 4 c0 -0.25 -0.45 -0.50 -1 -0.50 -0.55 0 -1 -0.35 -1 -0.75 0 -0.45 -0.45 -0.75 -1.25 -0.75 -0.90 0 -1.25 0.25 -1.25 1 0 0.65 -0.35 1 -1 1 -1.05 0 -1.20 -0.50 -0.70 -2.35 0.30 -1.15 3.10 -2.15 3.65 -1.25 0.15 0.25 1.30 0.90 2.55 1.45 1.25 0.55 2.55 1.35 2.95 1.80 0.60 0.75 0.50 0.85 -1.15 0.85 -1 0 -1.80 -0.20 -1.80 -0.50z"/>
 </g>
 <g fill="#69543f">
  <path d="M0.05 39.40 c0 -0.35 0.90 -1.40 2.05 -2.25 1.95 -1.60 2.95 -2.05 2.85 -1.25 -0.30 1.80 0.15 2.65 1.55 2.95 3.05 0.60 1.95 1.15 -2.20 1.15 -3.10 0 -4.30 -0.15 -4.25 -0.60z"/>
  <path d="M14.45 38.90 c0 -0.65 -0.15 -0.85 -0.30 -0.50 -0.50 1.25 -1.60 0.55 -1.95 -1.15 -0.40 -2.15 -0.15 -2.50 1.20 -1.80 0.60 0.30 1.90 0.55 3 0.55 1.65 0 2.35 -0.35 4.20 -2.10 1.20 -1.20 2.75 -3.10 3.40 -4.25 0.65 -1.20 1.35 -2.15 1.60 -2.15 0.85 0 0.40 3.90 -0.60 5.15 -0.55 0.70 -1 1.85 -1 2.55 0 0.70 -0.20 1.30 -0.50 1.30 -0.25 0 -0.50 0.55 -0.50 1.25 0 0.80 -0.30 1.25 -0.75 1.25 -0.40 0 -0.75 0.25 -0.75 0.50 0 0.30 -0.35 0.50 -0.75 0.50 -0.60 0 -0.55 -0.40 0.30 -2.30 1.35 -3.20 0.85 -3.35 -0.60 -0.25 -1.20 2.50 -1.20 2.50 -3.55 2.55 -2.15 0 -2.40 -0.10 -2.45 -1.10z"/>
  <path d="M29.35 39.65 c-0.20 -0.15 -0.35 -1.05 -0.35 -2 0 -1.50 0.15 -1.65 1.50 -1.65 2.40 0 4.50 1.30 4.50 2.75 0 0.90 -0.25 1.25 -1 1.25 -0.65 0 -1 -0.35 -1 -1 0 -0.55 -0.35 -1 -0.75 -1 -0.40 0 -0.75 0.45 -0.75 1 0 1 -1.40 1.40 -2.15 0.65z"/>
  <path d="M6.55 36.80 c-0.45 -0.55 -0.40 -0.75 0.25 -1 1.15 -0.45 1.20 -0.40 1.20 0.70 0 1.15 -0.65 1.30 -1.45 0.30z"/>
  <path d="M16.20 30.75 c-0.20 -0.40 -0.90 -0.75 -1.55 -0.75 -1.25 0 -1.30 -0.05 -1 -3.05 0.15 -1.90 0.60 -3.40 1.15 -4 0.90 -1 0.90 -1 -0.50 -0.65 -1.20 0.30 -1.60 0.05 -2.90 -1.50 -1.25 -1.55 -1.75 -1.80 -2.90 -1.55 -1.25 0.25 -1.40 0.10 -2.20 -2 -0.50 -1.25 -1.10 -2.25 -1.35 -2.25 -0.75 0 -0.50 -1.85 0.30 -2.20 0.75 -0.25 1.10 -2.30 0.40 -2.30 -0.25 0 -1.25 0.65 -2.25 1.45 -1.35 1 -1.70 1.55 -1.30 1.95 0.40 0.40 0.40 0.75 -0.05 1.30 -0.35 0.40 -0.50 1.20 -0.30 1.80 0.20 0.55 0.10 1 -0.20 1 -0.35 0 -0.55 -1.15 -0.55 -2.75 0 -1.50 -0.20 -2.75 -0.50 -2.75 -0.25 0 -0.50 -0.20 -0.50 -0.50 0 -0.25 0.50 -0.50 1.15 -0.50 0.60 0 1.45 -0.20 1.85 -0.50 0.60 -0.35 0.60 -0.60 -0.20 -1.45 -0.70 -0.80 -1.15 -0.90 -1.85 -0.50 -0.75 0.40 -0.95 0.30 -0.95 -0.35 0 -0.65 0.35 -0.75 1.55 -0.60 1.25 0.20 1.65 0.05 1.85 -0.70 0.30 -1.20 1.60 -1.15 1.60 0.10 0 0.75 0.35 1 1.30 1 1.45 0 2.40 0.80 2.90 2.35 0.25 0.80 0.80 1.15 2.20 1.25 1.75 0.15 1.85 0.25 2.30 2.50 l0.45 2.35 3.95 0.35 3.90 0.35 0 1.55 c0 1.80 -0.40 2.50 -1.60 2.95 -1.10 0.40 -1.10 0.80 -0.15 2.05 0.65 0.85 0.90 0.90 2 0.30 0.95 -0.50 1.10 -0.80 0.70 -1.35 -0.45 -0.50 -0.30 -0.65 0.75 -0.65 1.15 0 1.30 0.20 1.30 1.75 0 1.45 -0.20 1.75 -1.10 1.80 -0.95 0.05 -1 0.10 -0.20 0.30 0.80 0.20 0.55 0.60 -1.50 2.70 -2.35 2.40 -4.10 3.25 -3.50 1.70 0.15 -0.40 0.05 -0.75 -0.15 -0.75 -0.25 0 -0.55 0.35 -0.75 0.75 -0.15 0.40 -0.50 0.75 -0.80 0.75 -0.30 0 -0.65 -0.35 -0.80 -0.75z m3.90 -2.60 c0.10 -0.55 -0.45 -1.50 -1.35 -2.25 -1.50 -1.40 -1.50 -1.40 -2.35 -0.35 -1 1.20 -0.65 2.45 0.65 2.45 0.50 0 0.95 0.25 0.95 0.50 0 0.90 1.90 0.55 2.10 -0.35z m-0.10 -8.20 c0 -0.25 -0.35 -0.45 -0.75 -0.45 -0.75 0 -1 0.60 -0.45 1.15 0.40 0.40 1.20 -0.05 1.20 -0.70z m-3.50 -0.55 c0 -0.80 -0.15 -0.95 -0.55 -0.55 -0.30 0.30 -0.40 0.80 -0.25 1.10 0.55 0.85 0.80 0.65 0.80 -0.55z"/>
  <path d="M8.25 26.25 c-1.35 -1.30 -1.65 -3.25 -0.55 -3.25 0.40 0 0.85 -0.40 0.95 -0.85 0.15 -0.55 0.25 -0.30 0.35 0.60 0.05 1.30 0.15 1.35 0.45 0.50 0.25 -0.55 0.30 -1.20 0.15 -1.45 -0.15 -0.25 0 -0.30 0.30 -0.10 0.30 0.20 0.95 1.10 1.40 2.05 1.55 3.30 -0.55 5.05 -3.05 2.50z"/>
  <path d="M25.40 22.50 c-0.15 -0.80 -0.05 -1.50 0.20 -1.50 0.20 0 0.40 0.25 0.40 0.50 0 0.30 0.35 0.50 0.75 0.50 0.40 0 0.75 -0.30 0.75 -0.70 0 -0.85 -2.35 -2.45 -3 -2.05 -0.30 0.15 -0.50 -0.15 -0.50 -0.70 0 -0.85 0.30 -1.05 1.50 -1.05 2.30 0 4 1.35 4 3.10 0 2.25 -0.85 3.40 -2.45 3.40 -1.20 0 -1.45 -0.25 -1.65 -1.50z"/>
  <path d="M28.30 13.15 c0.20 -2.45 0.40 -4.45 0.45 -4.55 0.05 -0.10 0.95 -0.30 1.95 -0.45 1.80 -0.30 1.85 -0.25 1.50 1.05 -0.25 1.05 -0.15 1.25 0.50 1 0.55 -0.20 0.80 -0.05 0.80 0.50 0 0.45 -0.30 0.65 -0.65 0.50 -0.40 -0.15 -1 0.10 -1.35 0.55 -0.45 0.55 -0.45 0.75 0 0.75 0.30 0 0.50 0.40 0.40 0.90 -0.10 0.45 -0.50 0.85 -0.90 0.85 -0.50 0 -0.80 0.60 -0.90 1.65 -0.15 1.20 -0.40 1.60 -1.15 1.60 -0.95 0 -1 -0.25 -0.65 -4.35z"/>
  <path d="M31 16.35 c0 -0.40 0.60 -1.35 1.40 -2.10 1.15 -1.20 1.35 -1.25 1.55 -0.50 0.05 0.50 -0.20 1.10 -0.60 1.35 -0.45 0.25 -1.15 0.75 -1.60 1.20 -0.60 0.65 -0.75 0.65 -0.75 0.05z"/>
  <path d="M12.50 4.40 c0 -1.25 0.15 -1.45 0.60 -1 0.35 0.35 1.10 0.60 1.75 0.60 0.80 0 1.15 0.30 1.15 1 0 0.80 -0.35 1 -1.75 1 -1.65 0 -1.75 -0.10 -1.75 -1.60z"/>
  <path d="M4 3.90 c0 -1.45 0.65 -2.90 1.25 -2.90 0.35 0 0.75 -0.30 0.90 -0.60 0.15 -0.50 0.55 -0.45 1.65 0.20 2.05 1.20 2.05 1.90 0 1.90 -1.45 0 -1.80 0.20 -1.80 1 0 0.65 -0.35 1 -1 1 -0.55 0 -1 -0.30 -1 -0.60z"/>
 </g>
 <g fill="#755f46">
  <path d="M0.15 39.40 c0.10 -0.35 0.75 -0.65 1.40 -0.60 0.65 0.05 1.50 -0.35 1.85 -0.85 0.85 -1.20 1.40 -1.20 1.75 0.05 0.15 0.60 0.70 1 1.25 1 0.60 0 1.20 0.25 1.35 0.50 0.20 0.30 -1.20 0.50 -3.75 0.50 -3.05 0 -4.05 -0.15 -3.85 -0.60z"/>
  <path d="M12.65 37.65 c-0.30 -1.35 -0.50 -2.45 -0.45 -2.50 0.05 -0.10 0.95 0.30 1.95 0.85 1 0.55 2.20 1 2.70 1 0.70 0 0.70 0.10 -0.10 1 -0.55 0.60 -0.65 1 -0.30 1 0.30 0 1.05 -0.80 1.60 -1.75 0.60 -1 1.45 -1.75 2 -1.75 1.15 0 1.20 0.50 0.20 1.80 -0.40 0.50 -0.75 1.35 -0.75 1.85 0 0.70 -0.50 0.85 -3.15 0.85 l-3.10 0 -0.60 -2.35z"/>
  <path d="M20.50 39.60 c0 -0.25 0.35 -1.25 0.75 -2.15 l0.70 -1.70 0.05 1.40 c0 0.80 -0.35 1.75 -0.75 2.15 -0.40 0.45 -0.75 0.55 -0.75 0.30z"/>
  <path d="M28.60 39.40 c-0.35 -0.35 -0.60 -1.35 -0.60 -2.25 0 -1.50 0.15 -1.65 1.45 -1.65 2.10 0 3.05 0.45 3.05 1.50 0 0.65 -0.30 0.85 -0.95 0.65 -0.75 -0.20 -0.90 0 -0.70 1.05 0.20 1.05 0.05 1.30 -0.70 1.30 -0.50 0 -1.20 -0.25 -1.55 -0.60z"/>
  <path d="M22.95 31.75 c0.85 -1 1.55 -2.10 1.55 -2.45 0 -0.35 0.45 -1.20 1.05 -1.85 l1.05 -1.20 -0.35 1.35 c-0.20 0.70 -0.10 1.75 0.20 2.35 0.80 1.45 -1.20 3.55 -3.45 3.55 l-1.60 0 1.55 -1.75z"/>
  <path d="M16.20 30.20 c0.20 -0.60 0.10 -0.75 -0.45 -0.50 -1.80 0.65 -2.35 -3.80 -0.75 -5.85 0.55 -0.70 1 -1.60 1 -2.05 0 -0.40 0.35 -0.95 0.75 -1.15 0.65 -0.40 0.65 -0.60 0.10 -1.35 -0.90 -1.25 -1.95 -0.60 -1.55 0.95 0.25 1 0.05 1.35 -1.05 1.75 -1.60 0.60 -1.90 0.45 -2 -1.15 -0.10 -0.60 -0.40 -1.05 -0.70 -1 -0.30 0.10 -0.55 -0.10 -0.55 -0.35 0 -0.30 -0.70 -0.50 -1.50 -0.50 -1.80 0 -2.50 -1.20 -1.35 -2.40 0.65 -0.65 1.15 -0.70 2.60 -0.25 1.75 0.55 1.75 0.55 1.45 -0.75 -0.50 -2.10 -0.70 -2.20 -2.20 -1.10 -2 1.40 -2.40 1.25 -2.30 -0.90 0.05 -2.55 -1.20 -3.90 -2.80 -3.05 -0.60 0.35 -1.50 1.05 -1.95 1.65 -0.70 0.85 -1 0.90 -2 0.45 l-1.20 -0.60 1.15 0 c1.75 -0.05 2.75 -1.30 2.10 -2.55 -0.35 -0.65 -0.35 -1 0 -1 0.25 0 0.50 -0.60 0.50 -1.35 0 -2.15 0.55 -3.65 1.30 -3.65 0.50 0 0.70 0.65 0.70 2.10 0 1.65 0.15 1.95 0.60 1.50 0.35 -0.35 1.25 -0.60 2 -0.60 0.75 0 1.40 -0.20 1.40 -0.50 0 -0.25 0.80 -0.50 1.75 -0.50 1.20 0 1.75 -0.25 1.75 -0.75 0 -0.50 -0.55 -0.75 -1.75 -0.75 -1.55 0 -1.75 -0.15 -1.75 -1.25 0 -1.40 0.75 -1.30 3.25 0.45 0.80 0.55 2 0.95 2.60 0.90 0.90 -0.15 1.15 0.10 1.15 0.85 0 0.85 -0.30 1.05 -1.75 1.05 -1.60 0 -1.75 0.15 -1.75 1.45 0 0.80 -0.30 1.55 -0.60 1.65 -0.65 0.25 -0.50 0.55 1.65 5 0.25 0.50 0.45 1.30 0.45 1.80 0 0.85 0.60 1 5.40 1.30 2.95 0.15 5.95 0.45 6.75 0.60 1.30 0.30 1.35 0.20 1.35 -1.50 0 -1.40 0.20 -1.80 0.90 -1.80 1.30 0 1.50 3.50 0.20 3.55 -0.50 0 -0.60 0.15 -0.20 0.30 0.70 0.30 0.80 2.60 0.10 4.35 -0.60 1.65 -3 1.90 -3 0.30 0 -0.70 0.30 -1 0.85 -0.90 1.40 0.25 1.30 -1.40 -0.10 -2.30 -1.50 -1 -2.45 -0.80 -4.45 0.95 -0.80 0.70 -1.85 1.25 -2.35 1.25 -0.80 0 -0.85 -0.10 -0.15 -1.35 0.60 -1.25 0.60 -1.40 -0.10 -1.55 -0.45 -0.10 -1 0 -1.25 0.25 -0.65 0.65 0.40 3.85 1.70 5.10 1.05 0.95 1.25 1 1.85 0.30 0.35 -0.40 0.80 -0.60 1.05 -0.45 0.65 0.40 0.55 -0.50 -0.15 -1.20 -0.45 -0.45 -0.35 -0.60 0.50 -0.60 0.85 0 1.10 0.30 1.10 1.20 0 0.95 0.30 1.25 1.30 1.40 1.25 0.15 1.20 0.25 -1.15 1.75 -1.40 0.90 -2.90 2.20 -3.35 2.90 -0.45 0.70 -1.05 1.25 -1.30 1.25 -0.60 0 -0.65 -2.85 -0.05 -3.10 0.65 -0.25 0.05 -3.40 -0.65 -3.40 -0.90 0 -3.35 2.90 -2.80 3.25 0.70 0.40 0.65 3.25 -0.05 3.25 -0.30 0 -0.40 -0.35 -0.25 -0.80z"/>
  <path d="M9.75 26 c-0.20 -0.30 -0.55 -0.40 -0.80 -0.20 -0.80 0.45 -1.85 -0.75 -1.60 -1.75 0.40 -1.55 3.65 -2.15 3.65 -0.65 0 0.50 0.25 1.15 0.55 1.45 0.30 0.30 0.40 0.80 0.25 1.10 -0.45 0.70 -1.65 0.70 -2.05 0.05z"/>
  <path d="M30.75 23.50 c-0.20 -0.30 -0.15 -0.80 0.15 -1.10 0.65 -0.65 1.15 0.20 0.65 1.05 -0.35 0.50 -0.50 0.50 -0.80 0.05z"/>
  <path d="M1 20 c0 -0.55 0.20 -1 0.40 -1 0.20 0 0.40 0.45 0.45 1 0.05 0.55 -0.10 1 -0.40 1 -0.25 0 -0.45 -0.45 -0.45 -1z"/>
  <path d="M1 14.55 c0 -0.70 0.25 -0.95 0.75 -0.70 0.85 0.30 0.75 1.25 -0.15 1.55 -0.35 0.10 -0.60 -0.25 -0.60 -0.85z"/>
  <path d="M28.50 11 c0 -2.80 0.10 -3.05 1.30 -3.50 0.70 -0.30 1.60 -0.50 2 -0.50 1.20 0 0.65 2.15 -0.70 2.75 -1.15 0.50 -1.30 2.10 -0.15 1.85 0.35 -0.05 0.50 0.10 0.35 0.35 -0.20 0.25 -0.10 0.60 0.20 0.80 1.05 0.65 0.45 1.25 -1.25 1.25 l-1.75 0 0 -3z"/>
  <path d="M32.55 11.25 c-1.60 -0.55 -1.65 -0.60 -0.50 -0.90 0.75 -0.20 1.45 -0.05 1.90 0.40 1 1 0.60 1.15 -1.40 0.50z"/>
  <path d="M0 8.50 c0 -0.25 0.50 -0.50 1.15 -0.50 0.90 0 0.95 0.10 0.35 0.50 -0.95 0.65 -1.50 0.65 -1.50 0z"/>
  <path d="M22.50 6.50 c0 -0.25 -0.80 -0.50 -1.75 -0.50 -1.40 0 -1.75 -0.20 -1.75 -1 0 -1.10 0.85 -1.25 2.70 -0.45 0.95 0.45 1.45 0.40 2.35 -0.25 1.65 -1.15 1.95 -1 1.95 0.95 0 1.65 -0.10 1.75 -1.75 1.75 -0.95 0 -1.75 -0.20 -1.75 -0.50z"/>
 </g>
 <g fill="#8a6730">
  <path d="M30.85 23.65 c-0.15 -0.25 -0.10 -0.75 0.10 -1.10 0.25 -0.35 0.55 -0.45 0.70 -0.20 0.15 0.25 0.10 0.75 -0.10 1.10 -0.25 0.35 -0.55 0.45 -0.70 0.20z"/>
  <path d="M1 19.30 c0 -1 0.25 -1.80 0.50 -1.80 0.60 0 0.50 2.95 -0.10 3.30 -0.20 0.15 -0.40 -0.55 -0.40 -1.50z"/>
  <path d="M31 20.40 c0 -0.35 0.35 -1.05 0.70 -1.50 0.60 -0.80 0.65 -0.75 0.70 0.60 0 1 -0.20 1.50 -0.70 1.50 -0.40 0 -0.70 -0.30 -0.70 -0.60z"/>
  <path d="M1 14.75 c0 -0.40 0.35 -0.75 0.75 -0.75 0.45 0 0.60 0.30 0.45 0.75 -0.20 0.40 -0.50 0.75 -0.75 0.75 -0.25 0 -0.45 -0.35 -0.45 -0.75z"/>
  <path d="M28.50 13.25 c0 -1.65 0.20 -2.25 0.75 -2.25 0.40 0 0.75 0.30 0.75 0.70 0 0.35 0.45 0.80 1 0.95 0.55 0.15 1 0.50 1 0.80 0 0.30 -0.45 0.55 -1 0.55 -0.55 0 -1 0.35 -1 0.75 0 0.40 -0.35 0.75 -0.75 0.75 -0.55 0 -0.75 -0.60 -0.75 -2.25z"/>
  <path d="M33 13.75 l1.65 -1.75 -1.60 -0.65 c-1.45 -0.60 -1.55 -0.75 -0.65 -0.95 0.70 -0.20 1.40 0.10 2.10 0.85 0.90 0.95 1 1.35 0.55 2.20 -0.60 1.10 -2.05 2.05 -3.10 2.05 -0.35 0 0.10 -0.80 1.05 -1.75z"/>
  <path d="M0.65 12.65 c-0.35 -0.10 -0.65 -0.60 -0.65 -1 0 -0.50 0.30 -0.65 0.80 -0.45 1.15 0.45 2.70 -0.10 2.70 -1 0 -0.40 0.35 -0.70 0.80 -0.70 0.55 0 0.45 0.40 -0.60 1.75 -1.30 1.70 -1.80 1.95 -3.05 1.40z"/>
 </g>
 <g fill="#83674f">
  <path d="M3.70 39.20 c0.15 -0.45 0.30 -1.05 0.30 -1.35 0 -0.45 0.10 -0.45 0.40 -0.05 0.20 0.35 1.15 0.95 2.10 1.35 l1.75 0.75 -2.45 0.05 c-2 0.05 -2.35 -0.10 -2.10 -0.75z"/>
  <path d="M12.35 37.90 c0.35 -2.65 0.35 -2.60 1.55 -1.95 0.60 0.30 1.60 0.55 2.30 0.55 0.70 0 1.30 0.20 1.30 0.40 0 0.75 -1.90 2.20 -2.45 1.85 -0.30 -0.15 -0.55 0.05 -0.55 0.45 0 0.50 -0.45 0.80 -1.20 0.80 -1.15 0 -1.20 -0.15 -0.95 -2.10z"/>
  <path d="M17.80 37.80 c0.65 -1.20 2.45 -3.30 3.95 -4.70 1.50 -1.40 2.75 -2.80 2.75 -3.10 0 -0.30 0.25 -0.40 0.55 -0.20 0.40 0.20 0.45 -0.05 0.25 -0.85 -0.35 -1.15 -0.35 -1.15 0.40 -0.25 1.20 1.45 0.85 3.80 -0.50 3.80 -0.35 0 -0.80 0.80 -0.95 1.90 -0.60 3.25 -0.75 3.60 -2.05 3.60 -1.20 0 -1.20 0 -0.45 -1.85 l0.75 -1.90 -1.25 1.50 c-0.65 0.80 -1.50 2.10 -1.80 2.85 -0.40 0.95 -0.95 1.40 -1.75 1.40 l-1.15 0 1.25 -2.20z"/>
  <path d="M27.85 39.65 c-0.70 -0.20 -0.85 -0.65 -0.75 -2.30 0.15 -2 0.25 -2.10 1.85 -2.25 0.95 -0.10 1.85 0 2 0.25 0.15 0.20 1.15 0.80 2.20 1.25 1.40 0.70 1.85 1.20 1.85 2.15 0 0.80 -0.30 1.25 -0.75 1.25 -0.40 0 -0.75 -0.35 -0.75 -0.75 0 -0.40 -0.65 -1.05 -1.50 -1.50 -2 -1.05 -2.85 -1 -1.90 0.15 1.40 1.60 0.35 2.45 -2.25 1.75z"/>
  <path d="M18.80 30.75 c0.20 -0.40 0.05 -0.75 -0.25 -0.75 -0.30 0 -0.55 0.25 -0.55 0.50 0 0.30 -0.45 0.50 -1.05 0.50 -0.75 0 -0.95 -0.25 -0.75 -0.75 0.15 -0.45 0 -0.75 -0.50 -0.75 -0.90 0 -1.85 -2.30 -1.40 -3.60 0.15 -0.55 0.40 -0.85 0.60 -0.70 0.50 0.50 1.85 -1.90 1.70 -3.05 -0.25 -1.70 0.50 -1.40 2.55 1.10 2.10 2.50 2.20 2.55 3.55 1.50 0.75 -0.55 0.85 -0.85 0.35 -1.45 -0.70 -0.85 0 -1.45 1.15 -1 0.55 0.20 0.80 0.05 0.80 -0.50 0 -1 0.35 -1 1.30 -0.05 1.10 1.10 1.70 0.95 1.70 -0.40 0 -0.80 -0.45 -1.40 -1.25 -1.75 -1.90 -0.85 -2.40 -0.75 -4 0.90 -0.80 0.85 -1.85 1.50 -2.35 1.50 -1.10 0 -1.10 -0.15 -0.15 -2.05 l0.80 -1.50 -1.40 0.35 c-0.75 0.20 -1.55 0.60 -1.75 0.90 -0.20 0.30 -0.45 0.20 -0.70 -0.35 -0.15 -0.45 -0.75 -0.85 -1.25 -0.85 -0.70 0 -0.95 0.35 -0.95 1.40 0 1.05 -0.35 1.60 -1.30 2.05 -1.20 0.55 -1.30 0.50 -1.05 -0.45 0.20 -0.70 -0.15 -1.30 -1.20 -2 -0.80 -0.60 -1.70 -1 -2.05 -0.95 -1.95 0.25 -2.60 -0.85 -1.15 -2.05 0.55 -0.45 1.10 -0.45 2.45 0.05 2 0.75 2.60 0.45 1.90 -0.90 -0.30 -0.50 -0.75 -1.55 -1.10 -2.40 -0.40 -0.95 -0.70 -1.25 -0.90 -0.80 -0.30 0.90 -1.70 2.55 -2.20 2.55 -0.20 0 -0.20 -0.80 -0.05 -1.75 0.15 -1.05 0.05 -2.05 -0.30 -2.45 -0.45 -0.55 -0.45 -1 -0.10 -1.75 0.55 -0.95 0.50 -0.95 -1.10 -0.20 -0.85 0.45 -2 1.15 -2.45 1.55 -0.85 0.70 -0.90 0.60 -0.85 -1.45 0.05 -3.65 0.95 -7.45 1.75 -7.45 0.40 0 0.70 0.45 0.70 1 0 0.55 0.20 1 0.40 1 0.25 0 0.70 0.55 1 1.25 0.65 1.40 1.85 1.65 2.30 0.50 0.15 -0.45 0.95 -0.75 2.05 -0.75 1.70 0 1.75 0.05 1.75 2 0 1.10 -0.20 2 -0.50 2 -0.25 0 -0.50 0.35 -0.50 0.75 0 0.40 -0.20 0.75 -0.40 0.75 -0.20 0 -0.30 0.80 -0.20 1.75 0.15 1.25 0.45 1.75 1.10 1.75 0.55 0 1 0.50 1.20 1.50 0.30 1.60 0.85 1.75 6.70 1.50 1.80 -0.05 2.10 0.05 2.10 0.95 0 0.60 0.25 1.05 0.50 1.05 0.30 0 0.50 -0.35 0.50 -0.75 0 -0.55 0.55 -0.75 2 -0.75 l2 0 0 -2 c0 -1.70 0.15 -2 1 -2 0.95 0 1 0.25 0.80 4.15 -0.30 4.75 -0.70 6.15 -2.35 7.65 -1.40 1.25 -4.50 2.95 -5.10 2.80 -0.25 -0.05 -0.30 0.05 -0.15 0.30 0.30 0.50 -2.40 3.60 -3.15 3.60 -0.30 0 -0.40 -0.35 -0.25 -0.75z m0.40 -4.10 c-0.45 -1.80 -0.60 -1.95 -1 -0.95 -0.35 1 0.05 2.30 0.80 2.30 0.30 0 0.40 -0.55 0.20 -1.35z"/>
  <path d="M10 25.75 c-0.30 -0.35 -1 -0.55 -1.50 -0.40 -0.80 0.20 -1 0 -1 -1.05 0 -0.70 0.25 -1.30 0.50 -1.30 0.30 0 0.50 -0.35 0.50 -0.75 0 -0.40 0.25 -0.75 0.50 -0.75 0.30 0 0.50 0.25 0.50 0.50 0 0.30 0.35 0.50 0.80 0.50 0.55 0 0.75 0.30 0.55 0.95 -0.15 0.60 0.05 1.10 0.45 1.25 0.40 0.15 0.70 0.50 0.70 0.75 0 0.80 -1.40 1 -2 0.30z"/>
  <path d="M29.15 11.15 c-1.25 -0.45 -0.65 -4.65 0.65 -4.65 0.75 0 0.90 -1.35 0.40 -2.70 -0.15 -0.45 -0.85 -0.80 -1.50 -0.80 -1 0 -1.20 0.25 -1.20 1.45 0 2.45 -0.45 3.05 -2.25 3.05 -4.10 0 -4.35 -1.70 -0.60 -3.50 1.45 -0.65 3.40 -1.85 4.35 -2.60 0.95 -0.80 2 -1.40 2.30 -1.40 0.40 0 0.75 1.50 0.95 3.95 0.30 3.25 0.20 4.20 -0.45 5.15 -0.50 0.70 -0.80 0.85 -0.80 0.40 0 -0.90 -0.85 -0.10 -1.10 1.05 -0.05 0.45 -0.45 0.70 -0.75 0.60z"/>
 </g>
 <g fill="#67994f">
  <path d="M9.40 24.90 c-1.45 -0.50 -1.55 -0.80 -1 -2.80 0.35 -1.05 0.40 -1.10 1.50 -0.35 1.15 0.85 1.50 2.25 0.55 2.25 -0.40 0 -0.40 0.25 0.05 0.75 0.70 0.85 0.75 0.85 -1.10 0.15z"/>
  <path d="M23.65 24.65 c0.20 -0.15 0 -0.70 -0.45 -1.20 -0.70 -0.80 -0.65 -0.90 0.80 -1.60 1.45 -0.75 1.60 -0.75 2.40 0.10 1.10 1.15 1.30 2.10 0.50 2.60 -0.75 0.50 -3.70 0.60 -3.25 0.10z"/>
 </g>
 <g fill="#88765f">
  <path d="M0 39.50 c0 -0.25 0.35 -0.50 0.75 -0.50 0.40 0 0.75 0.25 0.75 0.50 0 0.30 -0.35 0.50 -0.75 0.50 -0.40 0 -0.75 -0.20 -0.75 -0.50z"/>
  <path d="M3.85 38.95 c0.20 -0.70 0.45 -0.85 0.80 -0.50 0.30 0.30 0.95 0.55 1.40 0.55 0.50 0 1.05 0.25 1.20 0.50 0.20 0.30 -0.50 0.50 -1.65 0.50 -1.80 0 -2 -0.10 -1.75 -1.05z"/>
  <path d="M12.40 39.15 c0.25 -0.50 0.35 -1.20 0.25 -1.50 -0.15 -0.40 0.20 -0.65 0.85 -0.65 0.90 0 1.05 0.20 0.80 1.15 -0.15 0.60 -0.30 1.25 -0.30 1.50 0 0.20 -0.45 0.35 -1 0.35 -0.80 0 -0.95 -0.20 -0.60 -0.85z"/>
  <path d="M20.50 39.50 c0 -0.95 1.50 -3.50 2.05 -3.50 0.30 0 0.45 0.80 0.35 1.90 -0.10 1.50 -0.35 1.90 -1.25 2 -0.65 0.10 -1.15 -0.10 -1.15 -0.40z"/>
  <path d="M25 38.75 c0 -0.70 0.25 -1.25 0.50 -1.25 0.30 0 0.50 -0.90 0.50 -2 0 -1.90 -0.10 -2 -1.45 -2 -2.10 0 -2.20 -0.55 -0.50 -2.35 0.85 -0.95 1.30 -1.90 1.15 -2.35 -0.55 -1.40 0.25 -0.85 1.05 0.70 0.40 0.80 0.75 2 0.75 2.75 0 0.90 0.25 1.25 1 1.25 0.50 0 1.15 0.30 1.35 0.65 0.20 0.35 1.45 1.15 2.75 1.85 3.40 1.75 3.95 2.25 3.60 3.20 -0.45 1.15 -2.20 1.05 -2.20 -0.15 0 -0.70 -0.65 -1.15 -2.20 -1.70 -1.25 -0.40 -2.35 -0.65 -2.50 -0.45 -0.55 0.50 -0.30 1 0.70 1.25 0.55 0.15 1 0.60 1 1.05 0 0.65 -0.55 0.80 -2.75 0.80 -2.60 0 -2.75 -0.05 -2.75 -1.25z"/>
  <path d="M36.50 39.30 c0 -0.45 0.35 -0.60 1 -0.45 1.55 0.40 1.70 1.15 0.30 1.15 -0.80 0 -1.30 -0.30 -1.30 -0.70z"/>
  <path d="M19 38.25 c0 -1.25 0.75 -2.45 1.35 -2.20 0.30 0.10 0.10 0.90 -0.40 1.70 -0.80 1.25 -0.95 1.30 -0.95 0.50z"/>
  <path d="M24.05 25.65 c-0.35 -0.40 -0.50 -0.85 -0.35 -1 0.15 -0.15 0.05 -0.60 -0.30 -1 -0.40 -0.50 -0.40 -0.85 0 -1.25 0.45 -0.45 0.60 -0.40 0.60 0.25 0 0.45 0.30 0.85 0.70 0.85 1 0 1.45 -0.85 0.70 -1.15 -0.35 -0.10 -0.50 -0.40 -0.30 -0.60 0.20 -0.20 0.80 -0.05 1.35 0.35 0.60 0.40 0.90 0.90 0.70 1.05 -0.15 0.20 -0.10 0.35 0.20 0.35 0.60 0 1.15 -1.65 1.15 -3.60 0 -0.90 -0.25 -1.40 -0.75 -1.40 -0.40 0 -0.75 -0.35 -0.75 -0.75 0 -0.40 0.25 -0.75 0.50 -0.75 0.30 0 0.50 -0.45 0.50 -1 0 -1.40 1.35 -1.25 1.70 0.15 0.40 1.65 -0.55 6.95 -1.30 7.45 -0.35 0.20 -0.95 0.40 -1.25 0.40 -0.35 0 -0.65 0.40 -0.65 0.95 0 1.20 -1.55 1.65 -2.45 0.70z"/>
  <path d="M8.65 24.65 c-0.70 -0.25 -0.90 -1.65 -0.25 -1.65 0.25 0 0.85 0.45 1.35 1 0.90 1 0.40 1.30 -1.10 0.65z"/>
  <path d="M12.70 20.55 c-0.50 -0.85 -1.10 -1.55 -1.30 -1.55 -0.20 0 -0.40 -0.45 -0.40 -0.95 0 -0.70 0.25 -0.90 1 -0.70 1.25 0.35 1.25 -0.20 0 -3.05 -0.85 -2 -2 -3.05 -2 -1.90 0 0.20 -0.50 0.90 -1.05 1.60 -1 1.20 -1 1.25 -0.45 0.05 0.35 -0.65 0.50 -1.70 0.35 -2.35 -0.10 -0.65 -0.05 -1.20 0.15 -1.20 0.50 0 3.15 -4.05 2.80 -4.35 -0.10 -0.15 -0.55 0.40 -1 1.20 -0.40 0.80 -1.10 1.75 -1.50 2.10 -0.70 0.60 -0.80 0.50 -0.80 -0.70 0 -1.15 -0.10 -1.30 -0.75 -0.75 -0.85 0.70 -1 0.65 -1.40 -0.75 -0.50 -1.50 3.75 -3.50 6.45 -3.05 1.05 0.20 2.80 0.45 3.85 0.60 1.70 0.30 1.85 0.40 1.85 2 0 1.45 -0.15 1.70 -1.15 1.70 -0.65 0 -1.70 0.55 -2.35 1.25 -0.95 1.05 -1.05 1.25 -0.35 1.25 0.50 0 0.85 0.40 0.85 0.95 0 0.50 0.25 1.60 0.55 2.50 0.55 1.55 0.60 1.55 4 1.55 l3.45 0 0 1.75 c0 1.25 -0.20 1.75 -0.80 1.75 -0.40 0 -0.65 0.20 -0.45 0.45 0.15 0.25 -0.10 0.85 -0.55 1.30 -1.30 1.30 -2.15 0.10 -1.15 -1.65 l0.75 -1.35 -3.25 0 c-3.25 0 -3.30 0 -3.15 1.30 0.05 0.75 -0.20 1.60 -0.60 1.90 -0.60 0.50 -0.90 0.30 -1.60 -0.90z"/>
  <path d="M28 12.15 c0 -1.35 0.15 -3.25 0.30 -4.25 0.30 -1.80 0.40 -1.90 2.25 -1.90 2.10 0 2.25 0.25 1.40 2.20 -0.35 0.70 -0.85 1.10 -1.25 0.95 -0.55 -0.20 -0.70 0.35 -0.70 2.55 0 2.45 -0.10 2.80 -1 2.80 -0.85 0 -1 -0.35 -1 -2.35z"/>
  <path d="M4.40 8.15 c-1.10 -0.30 -1.20 -2.15 -0.10 -2.15 0.40 0 0.60 0.25 0.45 0.50 -0.15 0.30 0.05 0.50 0.45 0.50 0.45 0 0.80 0.35 0.80 0.75 0 0.75 -0.10 0.80 -1.60 0.40z"/>
  <path d="M25.75 5.05 c0.15 -0.25 0 -0.65 -0.30 -0.85 -0.40 -0.20 -0.20 -0.55 0.60 -1 0.65 -0.35 1.35 -0.65 1.60 -0.70 0.70 0 0.35 2.40 -0.45 2.70 -1.15 0.45 -1.80 0.35 -1.45 -0.15z"/>
 </g>
 <g fill="#987456">
  <path d="M12.60 37.75 c-0.05 -2.15 0.25 -2.70 1.10 -1.85 0.20 0.20 1.10 0.60 1.95 0.95 l1.60 0.55 -1.60 0.65 c-0.90 0.40 -1.65 0.95 -1.65 1.30 0 0.35 -0.30 0.65 -0.65 0.65 -0.40 0 -0.65 -0.80 -0.75 -2.25z"/>
  <path d="M26.50 36.25 c0 -1.65 0.10 -1.75 1.75 -1.75 1.40 0 1.75 0.20 1.75 1 0 0.55 -0.30 1 -0.70 1 -0.40 0 -0.80 0.35 -1 0.75 -0.55 1.50 -1.80 0.85 -1.80 -1z"/>
  <path d="M18.50 37 c0 -0.70 3.05 -3.65 3.40 -3.30 0.10 0.15 -0.20 1 -0.75 1.90 -0.95 1.65 -2.65 2.50 -2.65 1.40z"/>
  <path d="M16.75 30.05 c0.15 -0.55 0.10 -1.10 -0.10 -1.20 -0.75 -0.50 -0.70 -3.45 0.10 -4.65 0.40 -0.65 0.60 -1.55 0.40 -2.05 -0.20 -0.60 0.20 -0.45 1.30 0.60 3 2.75 3.90 5.85 2.15 7.40 -0.50 0.50 -1.10 0.85 -1.25 0.85 -0.20 0 -0.35 -0.35 -0.35 -0.85 0 -0.75 -0.05 -0.75 -0.90 0 -1.25 1.10 -1.75 1.05 -1.35 -0.10z m2.70 -4.70 c0.05 -0.25 -0.15 -0.25 -0.45 -0.10 -0.25 0.15 -0.50 0.80 -0.45 1.40 0 1.05 0.05 1.05 0.45 0.10 0.25 -0.55 0.45 -1.20 0.45 -1.40z"/>
  <path d="M22.55 26.40 c-0.70 -1.15 -0.70 -1.55 0.05 -1.30 0.30 0.10 1.25 -0.45 2.10 -1.20 1.45 -1.35 3.20 -1.95 2.55 -0.90 -0.15 0.30 -0.10 0.50 0.15 0.50 0.60 0 1.65 -3.50 1.25 -4.20 -0.20 -0.35 -0.10 -0.35 0.30 0 0.90 0.80 0.20 3.90 -1.15 5.15 -0.65 0.60 -1.95 1.50 -2.90 2 -1.70 0.85 -1.80 0.85 -2.35 -0.05z"/>
  <path d="M9.40 24.90 c-0.80 -0.25 -1.40 -0.80 -1.40 -1.20 0 -0.85 1.40 -0.25 2.50 1 0.70 0.90 0.75 0.90 -1.10 0.20z"/>
  <path d="M11.80 19.50 c-1.90 -2 -2.80 -2.45 -2.80 -1.50 0 0.25 -0.35 0.35 -0.75 0.15 -0.70 -0.25 -0.70 -0.35 0.05 -1.20 0.75 -0.85 0.90 -0.85 3.50 0.45 2.60 1.25 3.60 2.50 2.95 3.60 -0.50 0.80 -0.90 0.60 -2.95 -1.50z"/>
  <path d="M20 20.80 c0 -0.35 0.45 -1.25 1.05 -2 l1.05 -1.30 -1.25 0.45 c-1.40 0.55 -3.85 -0.30 -3.85 -1.25 0 -0.75 7.05 -1.45 7.45 -0.75 0.20 0.25 1.45 0.55 2.80 0.65 1.90 0.10 2.55 0.35 2.65 1.05 0.15 0.70 -0.20 0.85 -1.90 0.85 -2.30 0 -5.45 1.25 -5.85 2.35 -0.35 0.85 -2.15 0.85 -2.15 -0.05z"/>
  <path d="M33.45 13.55 c0.35 -0.25 0.85 -0.75 1.10 -1.10 0.30 -0.50 0.45 -0.40 0.45 0.45 0 0.80 -0.30 1.10 -1.10 1.10 -0.85 0 -0.95 -0.15 -0.45 -0.45z"/>
  <path d="M0.65 12.65 c-1.30 -0.50 -0.60 -1.15 1.15 -1.15 1.55 0 1.75 0.10 1.20 0.75 -0.65 0.75 -1.25 0.85 -2.35 0.40z"/>
  <path d="M29.55 8.15 c-0.05 -2.25 -1.05 -3.60 -1.05 -1.45 0 1.20 -0.15 1.30 -2.25 1.30 -2.05 0 -2.25 -0.10 -2.25 -1.25 0 -0.90 0.20 -1.15 0.75 -0.95 0.70 0.30 0.95 -0.25 0.80 -1.55 0 -0.30 1.05 -1.20 2.45 -2 1.35 -0.85 2.50 -1.65 2.50 -1.85 0 -0.25 0.20 -0.40 0.40 -0.40 0.60 0 1.75 6.25 1.35 7.45 -0.30 1.05 -1.25 1.45 -1.25 0.55 0 -1.15 -0.95 -0.40 -1.15 0.90 -0.15 0.95 -0.20 0.75 -0.30 -0.75z"/>
  <path d="M13.95 7.80 c0.35 -0.40 1.10 -0.85 1.70 -0.95 0.85 -0.15 0.80 -0.20 -0.20 -0.15 -0.75 0 -1.70 -0.30 -2.20 -0.70 -0.75 -0.65 -1.15 -0.55 -3.30 0.65 -1.35 0.75 -2.65 1.35 -2.90 1.35 -0.25 0 -0.70 -0.70 -1.10 -1.60 -0.55 -1.35 -0.70 -1.40 -0.95 -0.60 -0.25 0.65 -0.10 1.05 0.40 1.25 0.70 0.25 0.70 0.30 0 0.55 -1.55 0.65 -1.85 -0.20 -1.25 -4 0.55 -3.45 0.60 -3.60 1.95 -3.60 0.75 0 1.40 0.25 1.40 0.50 0 0.30 0.35 0.50 0.80 0.50 0.65 0 0.75 0.35 0.50 1.75 -0.30 1.60 -0.25 1.75 0.85 1.75 0.75 0 1.40 -0.40 1.65 -1.05 0.50 -1.05 0.50 -1.05 1.70 -0.05 0.90 0.70 1.70 0.90 3.30 0.70 1.20 -0.10 2.95 -0.05 3.95 0.10 1.75 0.35 1.80 0.45 1.65 2.20 l-0.15 1.85 -4.20 0.15 c-3.65 0.10 -4.15 0.05 -3.60 -0.60z"/>
 </g>
 <g fill="#a28366">
  <path d="M4.50 39.50 c0 -0.25 0.30 -0.50 0.70 -0.50 0.40 0 0.90 0.25 1.05 0.50 0.15 0.30 -0.15 0.50 -0.70 0.50 -0.60 0 -1.05 -0.20 -1.05 -0.50z"/>
  <path d="M12.50 39.55 c0 -0.85 0.90 -1.05 1.20 -0.30 0.15 0.45 0 0.75 -0.45 0.75 -0.40 0 -0.75 -0.20 -0.75 -0.45z"/>
  <path d="M17 39.75 c0 -1.60 6.40 -8.35 7.55 -8 0.70 0.25 0.90 -0.05 1.05 -1.35 l0.15 -1.65 0.90 1.65 c0.50 0.90 0.75 1.85 0.60 2.10 -0.15 0.30 0.05 0.50 0.50 0.50 0.40 0 0.90 0.35 1.05 0.75 0.20 0.40 1.05 1.10 2 1.55 0.95 0.45 1.70 1.15 1.70 1.50 0 0.85 0.20 0.85 -2.20 0 -1.05 -0.35 -2.10 -0.95 -2.35 -1.35 -0.30 -0.45 -0.45 -0.50 -0.45 -0.10 0 0.30 0.25 0.75 0.50 0.90 0.75 0.50 0.60 1.10 -0.70 2.45 -0.95 1.05 -1.60 1.30 -3.75 1.30 -2.90 0 -3.05 -0.25 -1.75 -3.50 1.30 -3.20 0.45 -2.90 -1.40 0.45 -1.05 1.90 -1.95 3.05 -2.50 3.05 -0.50 0 -0.90 -0.10 -0.90 -0.25z"/>
  <path d="M36 39.25 c0 -0.95 0.55 -0.95 1.80 0 0.90 0.70 0.90 0.70 -0.40 0.75 -0.90 0 -1.40 -0.25 -1.40 -0.75z"/>
  <path d="M13 36.95 c0 -0.80 0.20 -0.95 0.90 -0.70 0.45 0.20 1.35 0.50 1.95 0.60 1.65 0.40 0.85 1.15 -1.15 1.15 -1.40 0 -1.70 -0.20 -1.70 -1.05z"/>
  <path d="M19.50 30.40 c0 -0.50 -0.50 -0.90 -1.10 -1 -1.50 -0.20 -2.35 -3.40 -1.40 -5.20 0.85 -1.50 1.25 -1.50 2.75 0 1 1 1.20 1.65 1.05 3.50 -0.05 1.25 -0.40 2.60 -0.70 2.90 -0.45 0.45 -0.60 0.40 -0.60 -0.20z"/>
  <path d="M23.40 26.40 c0.35 -0.35 0.60 -1 0.60 -1.45 0 -1 2.80 -2.20 3.30 -1.40 0.15 0.30 0.60 0.15 1.05 -0.40 0.70 -0.80 0.70 -0.80 0.05 0.35 -0.40 0.65 -1.65 1.70 -2.70 2.35 -2.15 1.20 -3.25 1.50 -2.30 0.55z"/>
  <path d="M0.85 23.65 c-0.65 -0.60 -0.35 -1.65 0.40 -1.65 0.40 0 0.75 0.45 0.75 1 0 1 -0.55 1.30 -1.15 0.65z"/>
  <path d="M9.50 23 c-0.40 -0.25 -0.55 -0.60 -0.35 -0.80 0.20 -0.20 0.65 -0.10 0.95 0.20 0.75 0.75 0.35 1.20 -0.60 0.60z"/>
  <path d="M11.85 19.20 c-1.05 -1.20 -1.75 -2.20 -1.50 -2.20 1.20 0.10 3.90 1.90 4.05 2.70 0.40 1.85 -0.70 1.65 -2.55 -0.50z"/>
  <path d="M20 20.85 c0 -0.35 0.75 -1.40 1.65 -2.35 0.95 -1 1.20 -1.45 0.60 -1.15 -0.55 0.30 -2.35 0.50 -3.95 0.45 -2.80 -0.10 -3.05 -0.20 -3.60 -1.55 -0.35 -0.85 -0.70 -2.05 -0.70 -2.75 -0.05 -1.10 -0.15 -1.05 -0.70 0.50 l-0.65 1.75 -0.60 -1.80 c-1.25 -3.85 1 -6.80 5.45 -7.10 2.50 -0.15 2.75 -0.25 2.65 -1.25 -0.15 -1.40 0.85 -1.40 3.80 -0.10 2.85 1.30 3.20 1.25 2.40 -0.35 -0.70 -1.30 -0.65 -1.40 1.35 -2.75 2.50 -1.70 2.90 -1.75 2.55 -0.25 -0.15 0.60 0.05 1.80 0.45 2.60 l0.80 1.50 0.05 -1.75 0.05 -1.75 0.40 1.45 c0.25 0.80 0.30 2.10 0.15 2.85 -0.20 1.20 -0.40 1.35 -1 0.90 -0.35 -0.35 -0.80 -0.45 -0.95 -0.35 -0.15 0.15 -0.30 2.60 -0.40 5.45 l-0.15 5.15 -2.25 -0.15 c-1.95 -0.10 -2.45 0.10 -4.20 1.65 -2.05 1.85 -3.20 2.25 -3.20 1.15z m2.65 -6.25 c1.40 -0.15 1.85 -0.45 1.85 -1.15 0 -0.75 0.35 -0.95 1.75 -0.95 1.10 0 1.75 -0.25 1.75 -0.65 0 -0.80 -4.40 -3.95 -4.60 -3.30 -0.10 0.25 -1.95 0.65 -4.10 0.95 -2.20 0.25 -4.05 0.60 -4.15 0.70 -0.15 0.10 0.70 0.35 1.80 0.55 2.05 0.35 2.05 0.35 2.05 2.60 0 1.95 0.10 2.20 0.90 1.85 0.45 -0.20 1.70 -0.45 2.75 -0.60z"/>
  <path d="M31 16.35 c0 -0.40 0.45 -1.10 1 -1.60 1.05 -0.95 1.20 -0.75 0.70 1.15 -0.35 1.20 -1.70 1.55 -1.70 0.45z"/>
  <path d="M10.50 9.70 c0 -0.15 0.45 -0.85 1 -1.55 0.60 -0.75 1 -1 1 -0.60 0 0.40 -0.45 1.10 -1 1.60 -0.55 0.45 -1 0.70 -1 0.55z"/>
  <path d="M6.40 6.75 c-0.45 -0.95 -0.40 -1.70 0.10 -3.30 0.40 -1.15 0.95 -2.15 1.25 -2.25 0.35 -0.15 1.75 0.35 3.15 1.05 1.80 0.90 2.45 1.50 2.25 2.05 -0.30 0.80 -2.85 2.30 -3.25 1.95 -0.15 -0.15 -0.65 0.20 -1.15 0.75 -1.20 1.30 -1.65 1.25 -2.35 -0.25z"/>
  <path d="M4.55 1.65 c-0.05 -1.50 0.10 -1.65 1.45 -1.65 0.85 0 1.50 0.25 1.50 0.55 0 0.30 -0.40 0.40 -0.95 0.20 -0.70 -0.20 -1.10 0.05 -1.45 1.10 l-0.50 1.40 -0.05 -1.60z"/>
  <path d="M30.85 1.30 c-0.20 -0.50 -0.25 -1.05 -0.10 -1.20 0.45 -0.45 0.85 0.30 0.65 1.25 -0.15 0.85 -0.20 0.85 -0.55 -0.05z"/>
 </g>
 <g fill="#82b561">
  <path d="M24 24.55 c0 -0.50 2.50 -1.25 2.90 -0.80 0.15 0.15 -0.10 0.25 -0.55 0.25 -0.45 0 -0.85 0.25 -0.85 0.50 0 0.30 -0.35 0.50 -0.75 0.50 -0.40 0 -0.75 -0.20 -0.75 -0.45z"/>
  <path d="M9.30 22.70 c-1.10 -1.05 -1 -1.35 0.20 -0.70 0.55 0.30 1 0.75 1 1 0 0.70 -0.30 0.60 -1.20 -0.30z"/>
 </g>
 <g fill="#c19549">
  <path d="M0.75 23.50 c-0.35 -0.60 0.10 -1.50 0.80 -1.50 0.25 0 0.45 0.45 0.45 1 0 1.05 -0.75 1.35 -1.25 0.50z"/>
  <path d="M31 20.25 c0 -0.40 0.35 -0.75 0.75 -0.75 0.40 0 0.75 0.35 0.75 0.75 0 0.40 -0.35 0.75 -0.75 0.75 -0.40 0 -0.75 -0.35 -0.75 -0.75z"/>
  <path d="M1 17.70 c0 -0.70 0.20 -1.15 0.50 -0.95 0.30 0.15 0.50 0.75 0.50 1.30 0 0.50 -0.20 0.95 -0.50 0.95 -0.25 0 -0.50 -0.60 -0.50 -1.30z"/>
  <path d="M31 16.45 c0 -0.95 3.70 -4.15 3.95 -3.40 0.10 0.35 -0.40 1.10 -1.15 1.70 -0.70 0.55 -1.30 1.30 -1.30 1.65 0 0.35 -0.35 0.60 -0.75 0.60 -0.40 0 -0.75 -0.25 -0.75 -0.55z"/>
  <path d="M1 14.75 c0 -0.40 0.25 -0.75 0.50 -0.75 0.30 0 0.50 0.35 0.50 0.75 0 0.40 -0.20 0.75 -0.50 0.75 -0.25 0 -0.50 -0.35 -0.50 -0.75z"/>
  <path d="M29 13.35 c0 -1.30 0.20 -2.35 0.45 -2.35 0.40 0 0.15 3.95 -0.25 4.45 -0.10 0.10 -0.20 -0.85 -0.20 -2.10z"/>
  <path d="M30.50 13.25 c0 -0.45 0.30 -0.60 0.75 -0.45 0.40 0.20 0.60 0.50 0.45 0.75 -0.40 0.70 -1.20 0.50 -1.20 -0.30z"/>
  <path d="M0.50 12.25 c-0.55 -0.65 -0.40 -0.75 1 -0.75 1.05 0 1.50 0.20 1.40 0.65 -0.35 0.90 -1.65 1 -2.40 0.10z"/>
 </g>
 <g fill="#b09276">
  <path d="M18.05 38.05 c1.15 -2.05 3.95 -5.10 3.95 -4.25 -0.05 1.10 -3.40 5.95 -4.20 6.10 -0.85 0.20 -0.80 0 0.25 -1.85z"/>
  <path d="M23.50 39.70 c0 -0.15 0.65 -0.50 1.45 -0.75 0.80 -0.30 1.60 -0.85 1.75 -1.30 0.25 -0.65 0.20 -0.70 -0.45 -0.15 -0.40 0.35 -1.20 0.50 -1.75 0.35 -0.55 -0.15 -1.15 -0.05 -1.30 0.20 -0.15 0.25 -0.60 0.45 -1 0.45 -0.55 0 -0.60 -0.20 -0.25 -0.95 0.30 -0.50 0.40 -1.05 0.20 -1.20 -0.15 -0.20 0 -0.65 0.30 -1.05 0.35 -0.40 0.50 -1.20 0.35 -1.70 -0.20 -0.60 -0.05 -1.10 0.40 -1.25 0.85 -0.35 1.40 0.80 0.95 2.05 -0.25 0.70 -0.15 0.65 0.50 -0.15 0.45 -0.55 0.85 -1.75 0.85 -2.60 0 -2.15 0.45 -2.05 2.15 0.40 1.25 1.80 3.95 3.80 9.15 6.80 l1.95 1.10 -2.35 0.05 c-1.75 0 -2.40 -0.20 -2.40 -0.70 0 -0.85 -3.15 -2.80 -4.50 -2.80 -0.55 0 -1.20 -0.45 -1.50 -1.05 -0.35 -0.55 -0.70 -0.90 -0.85 -0.75 -0.15 0.15 0.05 0.80 0.50 1.45 0.75 1.15 0.70 1.30 -0.60 2.55 -1.15 1.15 -3.55 1.80 -3.55 1z"/>
  <path d="M17.35 28.65 c-0.60 -0.60 -0.35 -4.50 0.30 -5.10 0.85 -0.70 2.85 1.05 2.85 2.50 0 2.20 -1.95 3.80 -3.15 2.60z"/>
  <path d="M24 25.25 c0 -1.25 0.15 -1.35 3.10 -1.45 1.05 -0.05 1.25 0.05 0.80 0.60 -0.55 0.65 -3.05 2.10 -3.65 2.10 -0.15 0 -0.25 -0.55 -0.25 -1.25z"/>
  <path d="M12.65 19.85 c-0.60 -0.85 -1 -1.65 -0.90 -1.75 0.40 -0.40 2.75 1.40 2.75 2.15 0 1.30 -0.75 1.15 -1.85 -0.40z"/>
  <path d="M20 21.05 c0 -0.80 2.05 -3.05 2.80 -3.05 1.05 0 0.85 1.20 -0.45 2.40 -1.20 1.10 -2.35 1.45 -2.35 0.65z"/>
  <path d="M16 16.25 c0 -0.60 0.35 -1.40 0.75 -1.75 0.80 -0.70 1.05 -2.25 0.25 -1.75 -0.25 0.15 -0.90 0 -1.40 -0.30 -1.25 -0.80 -2.60 -0.25 -2.60 1.05 0 0.60 -0.20 0.90 -0.50 0.75 -1.40 -0.85 -0.10 -5.75 1.55 -5.75 0.80 0 0.90 -0.05 2.60 -0.75 0.90 -0.35 1.95 -0.50 2.30 -0.30 0.70 0.45 3.05 0.15 3.05 -0.40 0 -0.20 -0.35 -0.85 -0.80 -1.45 -0.40 -0.60 -0.60 -1.10 -0.45 -1.10 1.65 0 8.25 4.45 8.80 5.95 0.15 0.45 0.20 1.75 0.05 2.95 -0.20 1.80 -0.35 2.10 -1.40 2.10 -0.75 0 -1.20 -0.30 -1.20 -0.75 0 -1.15 -0.90 -0.90 -1.10 0.30 -0.20 1.50 -1.75 2.45 -2.35 1.50 -0.40 -0.60 -0.65 -0.60 -1.65 0.05 -0.60 0.40 -2.20 0.75 -3.50 0.80 -2.20 0 -2.40 -0.10 -2.40 -1.15z m4 -5.75 c-0.40 -0.25 -1.20 -0.45 -1.75 -0.45 -0.80 0.05 -0.80 0.10 0.25 0.45 1.75 0.55 2.40 0.55 1.50 0z"/>
  <path d="M6.15 6.25 c-0.15 -0.50 0.20 -1.85 0.75 -3.05 l1.05 -2.15 1.90 0.75 c3.80 1.60 3.85 1.65 2.55 2.65 -1 0.85 -1.20 0.85 -1.65 0.20 -0.85 -1.15 -2.50 -0.60 -2.50 0.85 0 1.45 -1.60 2 -2.10 0.75z"/>
  <path d="M29.50 6.20 c0 -0.40 -0.80 -1.10 -1.75 -1.50 -0.95 -0.40 -1.75 -0.80 -1.75 -0.90 0 -0.10 0.70 -0.65 1.60 -1.20 l1.60 -1.05 0.70 1.85 c1.25 3.40 1.25 3.60 0.40 3.60 -0.45 0 -0.80 -0.35 -0.80 -0.80z"/>
 </g>
 <g fill="#c0a387">
  <path d="M18.25 37.85 c1.30 -2.30 3.25 -4.40 3.25 -3.50 0 0.80 -3.15 5.30 -3.85 5.55 -0.35 0.10 -0.05 -0.80 0.60 -2.05z"/>
  <path d="M26.10 38.35 c0.90 -0.95 1.75 -1.50 1.80 -1.25 0.25 0.50 -2.20 2.90 -2.95 2.90 -0.25 0 0.25 -0.75 1.15 -1.65z"/>
  <path d="M34.50 39.25 c0 -0.45 -1.25 -1.40 -3.05 -2.25 -1.65 -0.75 -3.35 -1.85 -3.70 -2.35 -0.65 -0.80 -0.70 -0.85 -0.75 -0.05 0 0.50 -0.30 0.75 -0.65 0.65 -0.40 -0.20 -0.65 -1.35 -0.70 -3.25 0 -1.65 0.05 -3 0.10 -3 0.10 0 0.55 0.75 1 1.65 1.35 2.80 3.10 4.35 8.10 7.15 1.45 0.80 2.65 1.60 2.65 1.85 0 0.20 -0.65 0.35 -1.50 0.35 -1 0 -1.50 -0.25 -1.50 -0.75z"/>
  <path d="M17.50 26.30 c0 -2.50 0.70 -3.30 1.90 -2.15 0.55 0.60 0.65 0.95 0.20 1.50 -0.30 0.35 -0.45 1.15 -0.25 1.75 0.20 0.90 0.05 1.10 -0.80 1.10 -0.90 0 -1.05 -0.30 -1.05 -2.20z"/>
  <path d="M24.30 25.25 c-0.20 -0.50 0.10 -0.95 0.85 -1.20 1.40 -0.55 2.20 0.15 1.35 1.20 -0.80 0.95 -1.80 0.95 -2.20 0z"/>
  <path d="M20.25 21.05 c-0.30 -0.50 1.60 -2.55 2.35 -2.55 0.75 0 0.40 1.35 -0.50 2.15 -1.05 0.95 -1.40 1.05 -1.85 0.40z"/>
  <path d="M13.15 20.35 c-1.10 -1.35 -1.20 -1.85 -0.45 -1.85 0.90 0 2 1.80 1.35 2.20 -0.25 0.15 -0.65 0 -0.90 -0.35z"/>
  <path d="M23.20 15.35 c-0.60 -0.60 -1.20 -1.50 -1.40 -2.05 -0.30 -0.85 -0.40 -0.85 -1.55 -0.10 -1.15 0.75 -1.25 0.75 -1.95 -0.25 -0.40 -0.60 -0.95 -0.90 -1.30 -0.70 -0.30 0.20 -0.85 0.10 -1.20 -0.20 -0.45 -0.40 -1.10 -0.40 -2 -0.05 -1.10 0.40 -1.30 0.35 -1.30 -0.45 0 -1.80 0.60 -2.55 2 -2.55 0.80 0 1.60 -0.25 1.75 -0.50 0.40 -0.65 4.15 -0.10 5.60 0.80 0.90 0.55 1.10 0.55 1.40 -0.20 0.35 -0.75 0.40 -0.75 0.70 0.15 0.20 0.55 0.75 1.85 1.30 2.85 0.75 1.55 0.80 2.10 0.35 3.15 -0.70 1.50 -1.05 1.50 -2.40 0.10z"/>
  <path d="M6.65 5.95 c-0.40 -0.55 -0.30 -1.15 0.50 -2.80 l1.10 -2.10 2.05 0.90 c2.85 1.30 3 1.85 0.50 1.65 -2.20 -0.20 -3.05 0.35 -3.35 2.10 -0.15 0.80 -0.30 0.85 -0.80 0.25z"/>
  <path d="M29.45 5.70 c-0.35 -0.45 -1.20 -1 -1.85 -1.25 -1 -0.40 -1.10 -0.60 -0.60 -1.20 0.90 -1.05 1.75 -0.95 2.60 0.40 1.55 2.40 1.45 3.95 -0.15 2.05z"/>
 </g>
 <g fill="#d6b076">
  <path d="M25 39.75 c0 -0.40 2.60 -2.80 2.85 -2.60 0.10 0.15 -0.40 0.85 -1.10 1.55 -1.25 1.25 -1.75 1.55 -1.75 1.05z"/>
  <path d="M27.75 34.65 c-0.70 -1.05 -0.70 -1.15 0.15 -1.15 0.85 0 2.60 1.40 2.60 2.15 0 0.75 -2.10 0 -2.75 -1z"/>
  <path d="M0.75 23.50 c-0.40 -0.65 0.20 -1.60 0.80 -1.25 0.60 0.40 0.60 1.75 0 1.75 -0.30 0 -0.65 -0.20 -0.80 -0.50z"/>
 </g>
 <g fill="#f6bd62">
  <path d="M0.85 23.30 c-0.30 -0.80 0.10 -1.40 0.70 -1 0.60 0.35 0.55 1.70 0 1.70 -0.25 0 -0.55 -0.30 -0.70 -0.70z"/>
  <path d="M31.10 20.55 c0.20 -0.65 0.90 -0.80 0.95 -0.20 0 0.20 -0.25 0.45 -0.55 0.60 -0.35 0.10 -0.55 -0.10 -0.40 -0.40z"/>
  <path d="M1.35 18.70 c-0.20 -0.20 -0.35 -0.70 -0.35 -1.15 0 -0.55 0.15 -0.60 0.55 -0.20 0.30 0.30 0.50 0.80 0.35 1.15 -0.10 0.30 -0.35 0.40 -0.55 0.20z"/>
  <path d="M31 16.65 c0.05 -0.50 1.50 -2.25 2.65 -3.10 0.75 -0.60 0.85 -0.55 0.85 0.20 0 0.45 -0.45 0.95 -1 1.10 -0.55 0.15 -1 0.70 -1 1.20 0 0.55 -0.35 0.95 -0.75 0.95 -0.40 0 -0.75 -0.15 -0.75 -0.35z"/>
  <path d="M1.10 12.40 c0.15 -0.35 0.65 -0.75 1.20 -0.85 0.80 -0.15 0.85 -0.05 0.25 0.65 -0.80 0.95 -1.70 1.05 -1.45 0.20z"/>
 </g>
 <g fill="#cfb295">
  <path d="M17.50 39.60 c0 -0.65 3.05 -4.75 3.30 -4.45 0.30 0.30 -2 4.10 -2.80 4.60 -0.25 0.15 -0.50 0.10 -0.50 -0.15z"/>
  <path d="M35.50 39.40 c0 -0.35 -1.75 -1.55 -3.85 -2.65 -2.10 -1.10 -4.25 -2.55 -4.75 -3.25 -1.10 -1.60 -1.70 -4 -0.95 -4 0.30 0 0.55 0.35 0.55 0.75 0 1.30 3.55 4.75 7.10 6.80 3.30 1.95 4.20 2.95 2.65 2.95 -0.40 0 -0.75 -0.30 -0.75 -0.60z"/>
  <path d="M18 25 c0 -1.50 0.65 -2 1.25 -1 0.40 0.65 -0.20 2.50 -0.80 2.50 -0.25 0 -0.45 -0.65 -0.45 -1.50z"/>
  <path d="M20.50 20.75 c0 -0.40 0.45 -0.95 1 -1.25 1.15 -0.60 1.25 -0.35 0.50 1.05 -0.65 1.10 -1.50 1.25 -1.50 0.20z"/>
  <path d="M22.15 13 c-1.95 -2.15 -2.45 -2.40 -3.70 -2.15 -1.30 0.25 -1.45 0.15 -1.45 -1 0 -1.20 0.15 -1.25 1.90 -1.05 2.45 0.35 4.10 1.20 4.10 2.10 0 0.40 0.30 0.60 0.75 0.40 0.90 -0.30 1.75 1.10 1.75 2.90 0 1.90 -0.85 1.60 -3.35 -1.20z"/>
  <path d="M13.70 11.05 c1.05 -1.15 1.30 -1.30 1.30 -0.55 0 0.25 -0.50 0.75 -1.10 1.05 -1.15 0.60 -1.15 0.60 -0.20 -0.50z"/>
  <path d="M28.65 4.75 c-1.55 -1.10 -1.70 -1.75 -0.35 -1.75 0.65 0 2.55 2.35 2.15 2.70 -0.10 0.05 -0.90 -0.35 -1.80 -0.95z"/>
  <path d="M8.90 3.15 c-0.95 -0.25 -1.25 -1.65 -0.40 -1.65 0.75 0 4 1.40 4 1.70 0 0.35 -2.30 0.30 -3.60 -0.05z"/>
 </g>
 <g fill="#e0bfa1">
  <path d="M18 38.70 c0 -0.55 2.10 -3.25 2.35 -3 0.30 0.30 -1.45 3.30 -1.95 3.30 -0.20 0 -0.40 -0.15 -0.40 -0.30z"/>
  <path d="M30.85 36.30 c-3.15 -1.70 -5.05 -3.75 -4.75 -5.15 0.10 -0.70 0.40 -0.50 1.20 0.80 0.60 0.90 2.50 2.65 4.20 3.85 3.70 2.55 3.45 2.75 -0.65 0.50z"/>
  <path d="M18 25.05 c0 -0.60 0.25 -1.05 0.50 -1.05 0.30 0 0.50 0.30 0.50 0.70 0 0.40 -0.20 0.90 -0.50 1.05 -0.25 0.15 -0.50 -0.15 -0.50 -0.70z"/>
  <path d="M23.50 14.05 c-0.75 -1.45 -0.60 -2.05 0.45 -2.05 0.95 0 1.55 0.90 1.55 2.30 0 1.05 -1.40 0.85 -2 -0.25z"/>
  <path d="M20.80 10.95 c-0.55 -0.80 -0.65 -1.25 -0.25 -1.40 0.85 -0.25 1.95 1.10 1.50 1.90 -0.35 0.50 -0.60 0.40 -1.25 -0.50z"/>
  <path d="M29.05 4.80 c-0.40 -0.45 -0.55 -0.95 -0.35 -1.15 0.45 -0.45 1.45 0.65 1.20 1.35 -0.10 0.40 -0.40 0.35 -0.85 -0.20z"/>
  <path d="M8.50 2.25 c-0.85 -1 0.25 -1 2 0 l1.25 0.70 -1.30 0.05 c-0.75 0 -1.60 -0.35 -1.95 -0.75z"/>
 </g>
 <g fill="#fff177">
  <path d="M33.50 13.75 c1.35 -1.45 1.85 -1.35 1 0.20 -0.30 0.60 -0.90 1.05 -1.35 1.05 -0.65 0 -0.60 -0.25 0.35 -1.25z"/>
 </g>
 <g fill="#f5d5b5">
  <path d="M30.25 35.65 c-2.20 -1.15 -4.25 -3.50 -4.25 -4.75 0.05 -0.95 0.20 -0.85 1 0.65 0.50 0.95 1.85 2.40 2.95 3.20 2.75 1.85 2.85 2.30 0.30 0.90z"/>
  <path d="M9.25 2.50 c-0.15 -0.25 0.05 -0.50 0.45 -0.50 0.40 0 0.90 0.25 1.05 0.50 0.15 0.30 -0.05 0.50 -0.45 0.50 -0.40 0 -0.90 -0.20 -1.05 -0.50z"/>
 </g>
</svg>