<?xml version="1.0" encoding="utf-8"?>
<!DOCTYPE svg PUBLIC "-//W3C//DTD SVG 1.0//EN" "http://www.w3.org/TR/2001/REC-SVG-20010904/DTD/svg10.dtd">
<svg version="1.0" xmlns="http://www.w3.org/2000/svg" width="100px" height="100px" viewBox="0 0 100 100" preserveAspectRatio="xMidYMid meet">
 <g fill="#000000">
  <path d="M56.10 84.50 c-0.30 -0.55 -0.60 -1.45 -0.60 -2 0 -0.80 0.35 -1 1.75 -1 1.20 0 1.75 0.25 1.75 0.75 0 0.40 0.25 0.75 0.50 0.75 0.30 0 0.50 0.55 0.50 1.25 0 1.10 -0.20 1.25 -1.65 1.25 -1.05 0 -1.80 -0.35 -2.25 -1z"/>
  <path d="M41.75 68.05 c0.15 -0.30 -0.10 -0.70 -0.55 -0.95 -0.55 -0.30 -0.70 -0.95 -0.60 -2.15 0.15 -1.55 0.30 -1.70 1.85 -1.85 2.05 -0.20 2.55 0.40 2.55 3.30 0 2.10 0 2.10 -1.80 2.10 -0.95 0 -1.65 -0.20 -1.45 -0.45z"/>
  <path d="M7 64.40 c0 -2.85 0.95 -5.40 1.95 -5.40 1.15 0 1.45 0.75 1.85 4.30 l0.35 2.70 -2.10 0 c-2 0 -2.05 -0.05 -2.05 -1.60z"/>
  <path d="M30 47.25 c0 -1.65 0.10 -1.75 1.75 -1.75 1.65 0 1.75 0.10 1.75 1.75 0 1.65 -0.10 1.75 -1.75 1.75 -1.65 0 -1.75 -0.10 -1.75 -1.75z"/>
 </g>
 <g fill="#23160f">
  <path d="M62 89.75 c0 -1.50 -0.15 -1.75 -1.20 -1.75 -0.75 0 -1.30 -0.35 -1.45 -1 -0.15 -0.55 -0.70 -1 -1.25 -1 -1.65 0 -3.60 -3.40 -3.60 -6.35 0 -1.60 0.25 -2.65 0.65 -2.80 0.30 -0.15 0.10 -0.30 -0.50 -0.30 -0.95 -0.05 -1.15 -0.35 -1.15 -1.80 0 -1.65 0.10 -1.75 1.75 -1.75 1 0 1.85 -0.30 1.95 -0.60 0.10 -0.35 0.45 -1.95 0.80 -3.50 0.35 -1.90 0.80 -2.90 1.30 -2.90 0.40 0 0.70 -0.45 0.70 -1 0 -0.55 0.25 -1 0.50 -1 0.30 0 0.50 -1.60 0.50 -3.75 0 -3.35 0.15 -3.95 1.25 -5.05 0.65 -0.65 1.45 -1.65 1.75 -2.20 0.35 -0.70 1.05 -1 2.20 -1 1.10 0 1.80 -0.30 2 -0.80 0.35 -0.90 2.60 -0.75 2.40 0.20 -0.05 0.40 0.90 0.60 3.40 0.60 1.90 0 3.50 0.20 3.50 0.50 0 0.25 0.70 1.15 1.50 2 0.85 0.85 1.50 1.85 1.50 2.25 0 0.35 0.15 1.05 0.30 1.50 0.30 0.70 0 0.80 -2.85 0.45 -1.75 -0.15 -3.40 -0.50 -3.65 -0.70 -0.20 -0.25 -1.15 -0.10 -2.10 0.30 -0.90 0.40 -2.35 0.70 -3.20 0.70 -1.35 0 -1.50 -0.15 -1.50 -1.60 0 -1.25 -0.15 -1.45 -0.50 -0.90 -0.25 0.40 -0.50 1.35 -0.50 2.10 0 0.75 -0.20 1.50 -0.50 1.65 -0.25 0.15 -0.50 0.95 -0.50 1.70 0 0.80 -0.35 1.75 -0.80 2.10 -1.05 0.85 -0.75 6.40 0.75 14.45 1.25 6.80 1.40 11.50 0.35 11.50 -0.80 0 -1.30 -1.50 -1.30 -4.25 0 -1.10 -0.35 -3.80 -0.75 -6 -0.40 -2.20 -0.95 -5.55 -1.25 -7.50 -0.90 -5.80 -2.05 -5.70 -3.30 0.30 -0.85 4 -0.70 10.05 0.25 10.35 0.30 0.10 1.10 1.35 1.80 2.75 0.65 1.45 1.80 3.20 2.50 3.95 1.60 1.75 1.55 1.90 -0.25 1.90 -1.40 0 -1.50 -0.15 -1.50 -1.75z"/>
  <path d="M48.70 86.75 c-0.90 -2.20 -0.90 -3.25 0.05 -3.25 0.95 0 1.75 1.55 1.75 3.45 0 2.05 -0.90 1.95 -1.80 -0.20z"/>
  <path d="M41.10 82.25 c-0.80 -1.70 -0.75 -3.25 0.05 -3.25 0.60 0 1.85 2.60 1.85 3.90 0 1.10 -1.35 0.60 -1.90 -0.65z"/>
  <path d="M47.50 82.05 c0 -0.50 -0.35 -1.75 -0.75 -2.70 -0.40 -1 -0.75 -2.15 -0.75 -2.60 0 -1.10 2 -0.95 2.05 0.15 0 0.45 0.20 2.05 0.40 3.50 0.30 2 0.20 2.60 -0.30 2.60 -0.35 0 -0.65 -0.40 -0.65 -0.95z"/>
  <path d="M7.80 74.90 c-0.50 -1.90 -0.35 -2.40 0.70 -2.40 0.80 0 1 0.35 1 1.75 0 2 -1.20 2.45 -1.70 0.65z"/>
  <path d="M15 71.20 c0 -1.05 0.25 -1.20 1.75 -1.20 1.10 0 1.75 0.25 1.75 0.65 0 0.40 -0.80 0.90 -1.75 1.20 -1.65 0.55 -1.75 0.50 -1.75 -0.65z"/>
  <path d="M74.20 70.75 c-0.30 -0.70 -0.25 -1.50 0.60 -6.85 0.30 -2.30 0.40 -2.40 1.95 -2.40 2.25 0 3.25 1.30 3.25 4.25 0 3.45 -1.50 5.75 -3.80 5.75 -1.10 0 -1.85 -0.30 -2 -0.75z"/>
  <path d="M42 68.55 c0 -0.50 -0.35 -1.20 -0.80 -1.55 -0.50 -0.45 -0.70 -1.30 -0.60 -2.45 0.15 -1.55 0.35 -1.80 1.55 -1.95 1.35 -0.15 1.95 -1.10 0.65 -1.10 -0.75 0 -1.30 -1.50 -1.30 -3.60 0 -1.25 0.20 -1.40 1.70 -1.40 1.50 0 1.75 0.20 2.05 1.50 0.25 1.05 0.65 1.50 1.30 1.50 0.80 0 0.95 0.35 0.95 2 0 1.75 -0.15 2 -1.15 2 -1.10 0 -1.15 0.15 -0.95 3 l0.20 3 -1.80 0 c-1.45 0 -1.80 -0.20 -1.80 -0.95z m1.25 -3.05 c-0.25 -0.75 -0.50 -0.95 -0.85 -0.60 -0.35 0.35 -0.30 0.75 0.15 1.25 0.90 0.95 1.15 0.70 0.70 -0.65z"/>
  <path d="M66.80 67.45 c-0.15 -0.85 -0.30 -2.20 -0.30 -3 0 -1.35 0.15 -1.45 2 -1.45 l2 0 0 3 0 3 -1.70 0 c-1.50 0 -1.70 -0.20 -2 -1.55z"/>
  <path d="M29 61.05 c-0.25 -0.55 -0.50 -1.65 -0.50 -2.50 0 -1.30 0.20 -1.55 1.20 -1.55 0.80 0 1.30 -0.35 1.50 -1.10 0.60 -2.25 0.30 -3.85 -0.70 -4.40 -0.90 -0.50 -1 -0.40 -1 1.25 0 1.80 -0.05 1.80 -1.85 1.65 l-1.90 -0.15 -0.15 -3.85 -0.15 -3.90 1.80 0 c1.40 0 1.75 -0.20 1.75 -1 0 -0.80 -0.35 -1 -1.50 -1 -1.40 0 -1.50 -0.15 -1.50 -1.75 0 -1.65 0.10 -1.75 1.75 -1.75 1.65 0 1.75 0.10 1.75 1.65 l0.05 1.60 0.70 -1.65 c0.80 -1.80 2.40 -2.60 5.35 -2.60 l2 0 -0.25 2.40 c-0.30 2.95 -1.80 8.25 -2.45 8.65 -0.25 0.20 -0.15 0.45 0.30 0.60 1.05 0.40 3.30 5 3.30 6.85 0 1.35 -0.15 1.50 -1.70 1.50 -0.90 0 -2.25 0.45 -2.95 1 -1.65 1.30 -4.15 1.30 -4.85 0.05z"/>
  <path d="M8.75 57.15 c0.10 -1.30 0.80 -2.65 1.30 -2.65 0.25 0 0.45 0.80 0.45 1.75 0 1.35 -0.20 1.75 -0.95 1.75 -0.55 0 -0.90 -0.30 -0.80 -0.85z"/>
  <path d="M44.75 51.70 c-2.10 -1.15 -2.75 -2.10 -2.75 -4.30 0 -3.15 1.45 -4.15 6.50 -4.60 2.35 -0.20 4.35 -0.15 4.60 0.10 0.25 0.25 0.30 2.05 0.10 4.05 -0.30 3.50 -0.35 3.55 -1.75 3.55 -1.10 0 -1.45 0.25 -1.45 1 0 0.85 -0.35 1 -1.85 1 -1.05 -0.05 -2.55 -0.40 -3.40 -0.80z"/>
  <path d="M67.10 49.40 c-0.35 -0.35 -0.60 -1.25 -0.60 -2.05 l0 -1.40 1.50 1.05 c0.85 0.60 1.75 1.50 2 2.05 0.45 0.85 0.35 0.95 -0.90 0.95 -0.75 0 -1.65 -0.25 -2 -0.60z"/>
  <path d="M59.50 38.75 c0 -2.45 1.15 -3.20 1.70 -1.10 0.60 2.20 0.35 3.35 -0.70 3.35 -0.85 0 -1 -0.35 -1 -2.25z"/>
  <path d="M39 30.20 c-1.25 -0.95 -2.45 -1.90 -2.75 -2.10 -0.25 -0.20 -2.35 -1.80 -4.60 -3.50 -2.30 -1.75 -4.15 -3.30 -4.15 -3.50 0 -0.20 -0.60 -0.75 -1.35 -1.20 -0.80 -0.45 -3 -2.30 -5 -4.05 -1.95 -1.80 -4.05 -3.40 -4.60 -3.60 -0.75 -0.20 -1.05 -0.75 -1.05 -1.80 l0 -1.45 2.10 1.05 c3 1.50 6.45 4.05 11.70 8.75 6.30 5.55 10.10 8.45 13.75 10.35 4.10 2.10 4.35 2.85 0.85 2.80 -2.20 0 -3 -0.30 -4.90 -1.75z"/>
 </g>
 <g fill="#2f170f">
  <path d="M64 93.25 c0 -0.40 -0.35 -0.75 -0.75 -0.75 -0.40 0 -0.75 -0.35 -0.75 -0.75 0 -0.40 -0.20 -0.75 -0.50 -0.75 -0.25 0 -0.50 -0.40 -0.55 -0.85 0 -0.85 -0.05 -0.85 -0.40 0 -0.30 0.90 -0.35 0.90 -1.15 0 -3.10 -3.55 -9.20 -14.70 -9.70 -17.85 -0.55 -3.30 -0.75 -3.80 -1.50 -3.80 -0.45 0 -0.90 0.45 -1.05 0.95 -0.15 0.60 -0.95 1.15 -2.05 1.45 l-1.85 0.50 1.90 0.05 c1.55 0.05 1.85 0.25 1.85 1.10 0 0.75 -0.25 0.95 -0.75 0.75 -0.40 -0.15 -0.75 -0.05 -0.75 0.20 0 0.30 0.35 0.50 0.75 0.50 0.40 0 0.75 0.35 0.75 0.75 0 1.25 -1.90 0.90 -2.15 -0.35 -0.40 -2 -0.30 3.75 0.10 6.50 0.20 1.40 0.30 2.60 0.25 2.60 -0.05 0 -0.60 -0.95 -1.25 -2.10 -0.85 -1.70 -1.10 -2.95 -1.10 -6 0 -2.15 -0.15 -3.90 -0.35 -3.90 -0.40 0 -1.20 -2.20 -1.20 -3.50 -0.05 -0.40 -0.60 -0.85 -1.30 -0.90 -1 -0.15 -1.15 -0.05 -0.60 0.45 0.90 0.95 0.75 1.95 -0.35 1.95 -0.75 0 -1.05 -0.50 -1.30 -2 -0.20 -1.05 -0.20 -2.40 0 -3 0.20 -0.55 0.20 -1.65 0 -2.40 -0.25 -1.25 -0.50 -1.40 -2.25 -1.35 -1.40 0 -2.10 0.25 -2.25 0.80 -0.15 0.45 -0.85 1.30 -1.50 1.95 l-1.25 1.15 0 -1.30 c0 -0.95 -0.25 -1.35 -0.90 -1.35 -1.05 0 -3.60 -5.05 -3.60 -7.10 0 -1.20 0.20 -1.40 1.45 -1.40 1.25 0 1.45 -0.20 1.75 -2 0.30 -2.05 0.75 -2.35 2.25 -1.55 0.75 0.40 0.80 0.25 0.65 -1.20 -0.10 -0.90 0.05 -2.15 0.40 -2.75 0.40 -0.75 0.40 -1 0.05 -0.80 -0.95 0.60 -0.60 -0.45 0.45 -1.35 0.55 -0.45 1.10 -0.85 1.20 -0.85 0.10 0 -0.15 1.10 -0.55 2.50 -0.40 1.35 -0.65 2.90 -0.55 3.35 0.10 0.50 0.55 -0.45 1 -2.10 0.45 -1.65 1 -3.50 1.15 -4.10 0.40 -1.30 -0.55 -1.55 -2.30 -0.65 -1.05 0.60 -3.05 4.40 -2.65 5.05 0.15 0.25 -0.30 0.45 -1 0.45 -0.95 0 -1.30 -0.25 -1.30 -1 0 -0.80 -0.35 -1 -1.50 -1 -1.40 0 -1.50 -0.15 -1.50 -1.70 0 -0.95 0.25 -1.90 0.50 -2.05 0.30 -0.15 0.50 -0.75 0.50 -1.30 0 -1.05 1.40 -1.25 4.60 -0.50 1 0.25 1.95 0.30 2.10 0.20 0.40 -0.40 -10.70 -7.65 -14.85 -9.70 -2.15 -1.05 -4.65 -2.55 -5.60 -3.30 -0.90 -0.75 -3 -2.50 -4.65 -3.85 -3.70 -3 -6.20 -7.25 -5.85 -10.05 0.15 -1.20 0 -2.05 -0.50 -2.55 -1.45 -1.45 -1.15 -1.65 4.25 -2.90 0.65 -0.15 2.10 -0.05 3.25 0.20 1.10 0.25 3.05 0.60 4.30 0.75 1.45 0.20 2.90 0.80 3.75 1.50 l1.45 1.25 -1.75 0 c-0.95 0 -2.85 -0.35 -4.20 -0.75 -1.35 -0.40 -3.55 -0.75 -4.90 -0.75 l-2.40 0 0 2.20 c0 1.35 0.45 3.15 1.10 4.45 1.70 3.30 8.40 9.05 13.65 11.75 2.80 1.40 11.55 6.85 15.80 9.75 1.70 1.15 1.85 1.55 2.20 4.30 0.25 2.30 0.15 3.35 -0.35 4.20 -0.85 1.25 -0.70 9.95 0.10 10.25 0.30 0.10 0.50 0.75 0.50 1.40 0 0.75 0.30 1.20 0.75 1.20 0.55 0 0.75 0.60 0.75 2.25 0 1.25 0.20 2.25 0.45 2.25 0.45 0 1.05 -2.90 1.05 -5.35 0 -1.55 0.10 -1.65 1.75 -1.65 1.50 0 1.75 0.15 1.75 1.20 0 0.95 0.20 1.10 1.25 0.90 3.20 -0.60 5.50 1.90 5.15 5.60 -0.15 1.40 -0.35 1.55 -2 1.70 -1.60 0.15 -1.90 0 -1.90 -0.85 0 -0.55 -0.60 -1.45 -1.35 -2.05 -1.10 -0.85 -1.20 -1.15 -0.65 -1.50 0.40 -0.25 0.55 -0.60 0.35 -0.80 -0.20 -0.20 -0.60 -0.15 -0.90 0.15 -0.40 0.40 -0.40 1.10 0.05 2.50 0.35 1.05 0.70 2.20 0.80 2.55 0.20 0.65 1.95 0.80 6.85 0.60 l2.85 -0.10 0 2.85 0 2.80 1.85 -0.35 1.80 -0.35 -0.30 1.65 c-0.20 0.90 -0.35 1.85 -0.35 2.10 0 0.30 -0.35 0.20 -0.85 -0.15 -0.75 -0.65 -0.75 -0.60 -0.25 0.40 0.85 1.50 0.75 1.80 -0.40 1.50 -0.55 -0.15 -1 -0.05 -1 0.20 0 0.25 -0.40 0.45 -0.85 0.50 -0.55 0 -0.65 0.15 -0.25 0.30 0.30 0.10 0.60 0.55 0.60 0.95 0 0.40 0.20 1.10 0.45 1.60 0.25 0.45 0.70 1.50 1 2.25 0.45 1.15 0.70 1.30 1.50 0.85 1.40 -0.70 1.55 -0.65 2.20 0.90 0.85 1.95 3.40 5.60 3.90 5.60 0.75 0 0.50 -4.45 -0.60 -10.50 -0.55 -3.15 -1.15 -6.70 -1.30 -7.90 l-0.30 -2.10 2.85 0.30 c1.95 0.25 2.80 0.15 2.80 -0.25 0 -0.30 -0.20 -0.55 -0.45 -0.55 -0.25 0 -0.60 -0.85 -0.75 -1.85 -0.65 -3.50 -0.75 -3.65 -2.60 -3.65 -1.85 0 -2.15 -0.50 -0.95 -1.50 0.40 -0.35 0.75 -1.20 0.75 -1.95 0 -0.75 0.20 -1.55 0.50 -1.85 0.25 -0.25 0.35 -1 0.15 -1.60 -0.25 -1.10 -0.35 -1.10 -1.20 -0.30 -0.90 0.80 -0.95 0.80 -0.95 -0.75 0 -3.60 1.95 -5.05 6.95 -5.05 l1.70 0 -0.95 1.05 c-0.95 1.10 -0.95 1.10 0.05 0.55 0.55 -0.30 2.05 -0.70 3.40 -0.85 1.90 -0.25 2.35 -0.50 2.35 -1.30 0 -0.75 0.35 -0.95 1.85 -0.95 l1.80 0 -1.05 1.15 c-0.60 0.65 -1.10 1.30 -1.10 1.50 0 0.65 2.40 0.35 3 -0.40 0.80 -1 3.50 -1 3.50 0 0 0.40 -0.70 0.85 -1.75 1.05 -2.05 0.35 -2.90 1.55 -2.15 2.90 0.25 0.45 0.35 1 0.20 1.15 -0.15 0.20 -0.30 0.05 -0.30 -0.25 0 -0.35 -0.25 -0.60 -0.60 -0.60 -0.30 0 -0.05 0.55 0.55 1.20 0.90 0.95 1.25 2.20 1.65 5.30 0.60 5 0.35 6.10 -1.85 8.30 -0.95 0.95 -1.75 2.10 -1.75 2.50 0 0.60 -0.30 0.75 -1.25 0.50 -1.20 -0.30 -1.25 -0.20 -1.25 1.95 0 1.25 -0.20 2.25 -0.50 2.25 -0.25 0 -0.50 0.70 -0.50 1.50 0 0.95 -0.25 1.50 -0.70 1.50 -0.40 0 -0.85 0.30 -1 0.65 -0.15 0.35 -1.15 -0.40 -2.65 -2.05 -1.30 -1.40 -2.60 -2.60 -2.80 -2.60 -0.20 0 -0.25 0.80 -0.05 1.75 0.15 0.95 0.10 1.75 -0.10 1.75 -0.25 0 -0.45 1.95 -0.50 4.40 -0.05 6.30 -0.60 9.10 -1.75 9.10 -0.55 0 -0.95 -0.35 -0.95 -0.75z m7.95 -17.95 c-0.05 -0.85 -0.15 -1.15 -0.30 -0.65 -0.10 0.45 -0.55 0.85 -0.95 0.85 -0.40 0 -0.70 0.45 -0.70 0.95 0 0.70 0.25 0.90 1 0.70 0.75 -0.20 1 -0.65 0.95 -1.85z m5.50 -7 c1.30 -2.10 1.35 -3.40 0.05 -4.55 -1 -0.90 -1 -0.85 -1 0.65 0 0.85 -0.25 2.15 -0.50 2.90 -0.50 1.25 -0.40 2.70 0.20 2.70 0.10 0 0.70 -0.75 1.25 -1.70z m-34.15 -3.15 c-0.60 -1.15 -0.80 -1.25 -1.05 -0.55 -0.20 0.50 0.05 1.35 0.60 2.10 1.15 1.55 1.50 0.40 0.45 -1.55z m25.50 -0.55 c-0.55 -0.50 -0.70 0.15 -0.40 1.65 l0.35 1.50 0.15 -1.40 c0.10 -0.80 0.05 -1.55 -0.10 -1.75z m3.90 -3.35 c0.15 -0.40 0.60 -0.75 1.05 -0.75 1 0 0.95 -1.45 -0.05 -1.85 -0.85 -0.30 -2.65 1.50 -2.70 2.75 0 0.85 1.35 0.75 1.70 -0.15z m-39.30 -2.60 c0.10 -0.05 -0.05 -0.50 -0.35 -1 -0.45 -0.75 -0.50 -0.80 -0.55 -0.10 0 0.95 -1.30 1.65 -2.10 1.15 -0.25 -0.20 -0.25 0.20 0.10 0.80 0.55 1.05 0.60 1.05 1.65 0.15 0.60 -0.50 1.20 -0.95 1.25 -1z m2.35 -2.60 c-1.35 -2.70 -2 -3.35 -2.50 -2.55 -0.15 0.25 -0.10 0.50 0.15 0.50 0.30 0 0.65 0.55 0.80 1.25 0.30 1.15 1.95 3.25 2.55 3.25 0.15 0 -0.30 -1.10 -1 -2.45z m36.85 -0.40 c0.75 -0.70 1 -0.65 2.40 0.35 1.90 1.35 2.35 1.05 1.50 -1 -0.80 -1.85 -2.10 -1.95 -5.05 -0.30 -2.45 1.40 -3.25 3.05 -1.05 2.25 0.75 -0.30 1.75 -0.85 2.20 -1.30z"/>
  <path d="M50.85 91.65 c-0.65 -0.60 -0.35 -1.65 0.40 -1.65 0.40 0 0.75 0.45 0.75 1 0 1 -0.55 1.30 -1.15 0.65z"/>
  <path d="M49.50 87.25 c0 -1.95 0.70 -2.30 1.50 -0.80 0.80 1.55 0.60 2.55 -0.50 2.55 -0.80 0 -1 -0.35 -1 -1.75z"/>
  <path d="M57.05 81.90 c-0.50 -1.30 -0.30 -1.90 0.65 -1.90 0.70 0 1.45 1.90 1 2.60 -0.45 0.75 -1.25 0.40 -1.65 -0.70z"/>
  <path d="M8.50 76.80 c0 -2 0.95 -2.95 2.70 -2.70 l1.25 0.15 -1.60 2.10 c-0.90 1.15 -1.75 2.10 -1.95 2.15 -0.25 0 -0.40 -0.75 -0.40 -1.70z"/>
  <path d="M38.80 74.40 c-0.45 -1.80 -0.35 -2.40 0.40 -2.40 0.40 0 0.75 0.70 0.90 1.75 0.25 2 -0.80 2.50 -1.30 0.65z"/>
  <path d="M14.50 71.60 c0 -1.25 0.25 -1.45 2.25 -2 3 -0.80 4.75 -0.75 4.75 0.10 0 0.40 -1 0.95 -2.35 1.30 -1.35 0.35 -2.90 0.95 -3.50 1.35 -1.10 0.65 -1.15 0.60 -1.15 -0.75z"/>
  <path d="M7.30 71.40 c-0.55 -2.10 -0.35 -2.90 0.70 -2.90 0.55 0 1 -0.20 1 -0.50 0 -0.25 -0.45 -0.50 -1 -0.50 -0.85 0 -1 -0.35 -1 -2 0 -1.10 0.25 -2 0.50 -2 0.30 0 0.50 0.25 0.50 0.50 0 0.30 0.35 0.50 0.80 0.50 0.50 0 0.70 0.30 0.50 0.75 -0.20 0.60 0.15 0.75 1.45 0.75 1.65 0 1.75 0.10 1.75 1.75 0 1.65 -0.10 1.75 -1.75 1.75 -1.60 0 -1.75 0.10 -1.75 1.50 0 1.80 -1.25 2.05 -1.70 0.40z"/>
  <path d="M58 68.50 c0 -1.85 -0.15 -2.05 -1.50 -2.30 -1.30 -0.30 -1.50 -0.55 -1.50 -1.90 0 -0.90 0.25 -1.85 0.60 -2.20 1.10 -1.10 3.40 -0.70 4.95 0.85 1.20 1.20 1.40 1.75 1.15 3 -0.20 0.85 -0.60 1.55 -0.95 1.55 -0.40 0 -0.80 0.70 -1 1.50 -0.50 2.30 -1.75 1.95 -1.75 -0.50z"/>
  <path d="M62 68.40 c0 -1.50 0.65 -2.90 1.30 -2.90 0.45 0 0.70 0.60 0.70 1.75 0 1.40 -0.20 1.75 -1 1.75 -0.55 0 -1 -0.30 -1 -0.60z"/>
  <path d="M95 53.50 c0 -1.15 1.75 -1.40 2.15 -0.30 0.35 0.90 -0.05 1.30 -1.25 1.30 -0.55 0 -0.90 -0.35 -0.90 -1z"/>
  <path d="M89.40 52.95 c-1.45 -0.80 -1.05 -1.45 0.85 -1.45 1.40 0 1.75 0.20 1.75 1 0 1.10 -1.20 1.30 -2.60 0.45z"/>
  <path d="M93.50 51.50 c0 -0.30 -1.65 -0.50 -4 -0.50 -3.20 0 -4 -0.15 -4 -0.75 0 -2.20 10.15 -1.15 10.90 1.15 0.10 0.40 -0.35 0.60 -1.35 0.60 -0.85 0 -1.55 -0.20 -1.55 -0.50z"/>
  <path d="M50.35 50.15 c-0.60 -0.55 -0.40 -1.15 0.40 -1.15 1.25 0 0.85 -0.90 -0.75 -1.60 -1.80 -0.75 -1.80 -2.10 0 -2.15 0.70 0 1.30 -0.20 1.35 -0.50 0.15 -0.60 -4.60 -0.25 -6.45 0.50 -0.75 0.30 -0.90 0.05 -0.90 -1.40 l0 -1.75 4.90 0.05 4.85 0.10 0.15 1.65 c0.10 1.20 0.40 1.60 1.15 1.60 0.75 0 0.95 0.35 0.95 1.70 0 0.95 -0.35 2.10 -0.80 2.50 -0.75 0.80 -4.20 1.10 -4.85 0.45z"/>
  <path d="M68 48.95 c0 -1.45 0.10 -1.50 0.90 -0.90 1.95 1.55 2.10 2.45 0.35 2.45 -1.05 0 -1.25 -0.25 -1.25 -1.55z"/>
  <path d="M61.65 47.65 c0.15 -1.05 0.40 -2.40 0.60 -3 0.30 -0.90 0.15 -1.15 -0.45 -1.15 -0.45 0 -0.80 -0.35 -0.80 -0.75 0 -0.45 -0.70 -0.80 -1.85 -1 -3.50 -0.55 -4.15 -1.05 -4.15 -3 0 -1.60 0.15 -1.75 1.45 -1.75 3.15 0 4.45 0.55 4.75 2 0.15 0.80 1.25 2.45 2.50 3.65 1.40 1.45 2.15 2.60 2.05 3.20 -0.75 3.75 -0.70 3.65 -2.55 3.65 -1.80 0 -1.80 0 -1.55 -1.85z"/>
  <path d="M85 46.20 c0 -1 -0.25 -1.20 -1.50 -1.20 -1.90 0 -1.90 -0.55 -0.05 -1.65 1.90 -1.10 2.05 -1.10 2.05 0.35 0 1.10 0.10 1.15 2.15 0.75 3.65 -0.70 4.85 -0.55 4.85 0.55 0 0.75 -0.35 1 -1.40 1 -0.80 0 -2.50 0.30 -3.75 0.70 -2.35 0.70 -2.35 0.70 -2.35 -0.50z"/>
  <path d="M16 45.85 c0 -0.60 5.85 -4.85 6.65 -4.85 0.20 0 0.35 0.55 0.35 1.25 0 1 -0.25 1.25 -1.25 1.25 -0.80 0 -1.25 0.30 -1.25 0.80 0 0.40 -0.30 1.10 -0.70 1.50 -0.90 0.90 -3.80 0.95 -3.80 0.05z"/>
  <path d="M93.50 45.45 c0 -0.75 0.35 -0.95 1.60 -0.95 1.50 0 1.55 -0.05 0.60 -0.75 -0.55 -0.45 -2.10 -0.70 -3.80 -0.75 -2.25 0 -2.90 -0.15 -2.90 -0.75 0 -0.40 0.30 -0.80 0.65 -0.80 2.90 -0.30 5.80 -0.25 6.65 0.05 1.10 0.45 3 3.85 2.45 4.40 -0.15 0.15 -1.40 0.35 -2.75 0.40 -2.15 0.05 -2.50 -0.10 -2.50 -0.85z"/>
  <path d="M47.25 34.70 c-1.35 -0.65 -2.70 -1.45 -2.95 -1.70 -0.30 -0.30 -1 -0.50 -1.65 -0.50 -0.65 0 -1.15 -0.20 -1.15 -0.50 0 -0.25 -0.25 -0.50 -0.55 -0.50 -0.55 0 -4.10 -2.50 -4.35 -3.10 -0.10 -0.25 -0.50 -0.40 -0.85 -0.40 -0.40 0 -1.10 -0.50 -1.60 -1.15 -0.50 -0.65 -1.30 -1.30 -1.75 -1.50 -0.50 -0.15 -0.90 -0.65 -0.90 -1.10 0 -0.40 -0.45 -0.75 -1 -0.75 -0.75 0 -1 -0.35 -1 -1.25 0 -1 -0.25 -1.25 -1.25 -1.25 -1.05 0 -1.25 -0.25 -1.25 -1.50 0 -1.40 0.10 -1.45 1 -0.90 0.55 0.35 1 0.80 1 1 0 0.20 1.85 1.75 4.15 3.50 2.25 1.70 4.35 3.30 4.60 3.50 2.55 2.05 5.20 3.60 6.25 3.70 0.70 0 1.65 0.20 2.15 0.45 0.50 0.20 1 0.25 1.15 0.10 0.20 -0.15 -0.50 -2.40 -1.50 -4.95 -2.10 -5.50 -3.05 -11.60 -2 -13.15 0.40 -0.55 0.70 -2.15 0.70 -3.60 0 -2.80 0.85 -4.15 2.55 -4.15 0.55 0 1.50 -0.35 2.15 -0.75 1.45 -0.95 3.35 -0.60 4.20 0.80 0.55 0.85 0.45 0.95 -1.05 0.95 -1.20 0 -2.20 0.50 -3.50 1.65 -1.65 1.45 -1.85 1.85 -1.85 4.10 0 3.80 0.55 8.95 1 9.50 0.20 0.30 0.75 1.95 1.20 3.75 0.60 2.20 1.35 3.75 2.40 4.85 1.10 1.15 1.60 2.20 1.75 3.85 l0.30 2.30 -1.95 -0.05 c-1.10 0 -3.05 -0.55 -4.45 -1.25z"/>
 </g>
 <g fill="#291c12">
  <path d="M48.10 84.55 c-0.35 -1.05 -0.60 -2.35 -0.60 -2.90 0 -0.60 -0.35 -1.85 -0.75 -2.80 -1 -2.40 -1 -4.85 0 -4.85 0.90 0 1.25 1.30 1.45 5.05 0.05 1.60 0.50 3.30 0.95 3.95 1 1.45 1.10 3.50 0.20 3.50 -0.40 0 -0.95 -0.85 -1.25 -1.95z"/>
  <path d="M54.75 82 c-0.40 -0.80 -0.75 -1.80 -0.75 -2.25 0 -0.45 -0.35 -1.30 -0.80 -2 -0.40 -0.65 -0.70 -1.90 -0.60 -2.85 l0.15 -1.65 3.10 -0.15 c2.90 -0.15 3.05 -0.10 2.80 0.90 -0.15 0.55 -0.60 1 -1 1 -0.55 0 -0.60 0.20 -0.10 1.15 0.35 0.60 0.55 1.15 0.50 1.25 -0.05 0.05 0.05 1.15 0.25 2.40 0.40 2.75 -0.45 4.15 -1.25 2.05 -0.30 -0.75 -0.60 -1.35 -0.70 -1.35 -0.30 0 -0.05 1.75 0.35 2.40 0.20 0.35 0.05 0.60 -0.40 0.60 -0.45 0 -1.10 -0.65 -1.55 -1.50z"/>
  <path d="M40.30 80.40 c-0.75 -1.75 -0.55 -2.90 0.45 -2.90 0.65 0 1.25 1.50 1.25 3.40 0 1.60 -0.95 1.35 -1.70 -0.50z"/>
  <path d="M72.50 81.30 c0 -0.40 -0.55 -0.85 -1.25 -1 -1 -0.25 -1.25 -0.65 -1.25 -1.80 0 -1.20 -0.25 -1.45 -1.35 -1.60 -1.20 -0.15 -1.50 -0.50 -1.95 -2.35 -0.30 -1.25 -0.80 -2.35 -1.10 -2.45 -1.45 -0.45 -0.35 -1.10 1.95 -1.10 3.15 0 4.45 0.65 4.45 2.25 0 1.05 0.25 1.25 1.55 1.25 1.55 0 1.55 0 1.35 2.50 -0.05 1.40 0.05 2.55 0.30 2.65 0.55 0.20 -1.45 2.35 -2.20 2.35 -0.25 0 -0.50 -0.30 -0.50 -0.70z"/>
  <path d="M8.50 78 c0 -0.55 0.35 -1 0.75 -1 0.65 0 0.70 0.20 0.25 1 -0.30 0.55 -0.65 1 -0.75 1 -0.15 0 -0.25 -0.45 -0.25 -1z"/>
  <path d="M7.80 74.40 c-0.50 -1.90 -0.35 -2.40 0.70 -2.40 0.80 0 1 0.35 1 1.75 0 2 -1.20 2.45 -1.70 0.65z"/>
  <path d="M13 72.55 c0 -1.45 0.15 -1.55 1.80 -1.55 1.95 0 1.90 0.45 -0.30 2 l-1.50 1.05 0 -1.50z"/>
  <path d="M38.50 69.65 c0 -0.80 -0.15 -1.90 -0.30 -2.55 -0.30 -1.10 -0.20 -1.15 1.60 -0.95 3.10 0.35 3.70 0.75 3.70 2.65 0 0.95 -0.15 1.70 -0.30 1.70 -0.45 0 -1.65 -1.65 -1.70 -2.25 0 -0.25 0.25 -0.15 0.50 0.25 0.40 0.65 0.50 0.60 0.50 -0.15 0 -0.50 -0.30 -1 -0.60 -1.10 -1.55 -0.50 -2.55 -0.45 -2.80 0.20 -0.15 0.40 0 0.55 0.30 0.35 0.80 -0.45 1.20 0.45 0.80 1.95 -0.40 1.70 -1.70 1.65 -1.70 -0.10z"/>
  <path d="M14.90 69.80 c-1.10 -0.85 -1.20 -3.70 -0.15 -4.10 0.45 -0.20 2.25 -0.15 4 0.05 3.15 0.30 3.25 0.35 3.25 1.75 0 2.65 -0.40 3 -3.45 3 -1.55 0 -3.20 -0.35 -3.65 -0.70z"/>
  <path d="M25.50 68.70 c0 -1.05 0.25 -1.20 1.85 -1.20 1.75 0 1.80 0.05 0.95 0.95 -0.50 0.50 -1.30 1.05 -1.85 1.20 -0.75 0.20 -0.95 0 -0.95 -0.95z"/>
  <path d="M67.50 69 c0 -0.55 -0.20 -1 -0.50 -1 -0.30 0 -0.50 -1.50 -0.50 -3.50 0 -2 0.20 -3.50 0.50 -3.50 0.30 0 0.55 0.60 0.55 1.40 0.05 0.95 0.15 1.05 0.30 0.40 0.20 -0.75 0.35 -0.80 0.70 -0.25 0.30 0.55 0.45 0.40 0.45 -0.40 0 -1.85 0.85 -1.30 1.60 1 0.55 1.50 1.05 2.15 1.85 2.25 0.75 0.10 1.05 0.45 0.85 0.90 -0.35 1 0.55 0.90 1.10 -0.10 0.55 -1 1.60 -0.50 1.60 0.70 -0.05 1.70 -1.35 2.75 -3.20 2.50 -1.05 -0.10 -1.80 0 -1.80 0.35 0 0.25 -0.35 0.05 -0.75 -0.45 -0.65 -0.85 -0.75 -0.90 -0.75 -0.15 0 0.50 -0.40 0.85 -1 0.85 -0.65 0 -1 -0.35 -1 -1z m1.30 -4.40 c-0.60 -0.55 -0.80 0.30 -0.45 1.95 l0.40 1.70 0.15 -1.65 c0.10 -0.95 0.05 -1.80 -0.10 -2z"/>
  <path d="M44.20 67.65 c-0.15 -0.80 -0.50 -1.95 -0.80 -2.65 -0.45 -1.15 -0.55 -1.15 -1.10 -0.35 -0.35 0.45 -0.80 0.85 -1 0.85 -0.55 0 -0.30 -3 0.30 -4 0.50 -0.80 0.45 -1.25 -0.25 -2.45 -0.45 -0.80 -0.85 -2.15 -0.85 -3 0 -1.45 0.10 -1.55 1.95 -1.55 1.10 0 2.15 0.25 2.35 0.55 0.20 0.40 0.45 0.35 0.75 -0.10 0.90 -1.45 0.40 -2.35 -1.90 -3.55 -2.10 -1.05 -2.40 -1.45 -2.55 -2.95 -0.10 -1.30 0.25 -2.25 1.40 -3.85 1.35 -1.85 1.75 -2.10 3.45 -2.10 2.25 0 3.15 0.85 1.75 1.70 -0.95 0.50 -1.20 0.60 -2.20 0.75 -0.85 0.10 -2.05 2.40 -1.70 3.25 0.25 0.70 3.60 2.80 4.45 2.80 0.15 0 0.15 -0.50 0 -1.10 -0.30 -1.10 -0.15 -1.15 2.50 -1.15 2.20 0 2.75 0.15 2.75 0.80 0 0.50 -0.55 0.95 -1.50 1.15 -1.30 0.25 -1.50 0.50 -1.50 1.85 0 1.75 -0.95 5.45 -1.60 6.20 -0.20 0.25 -0.40 0.90 -0.40 1.40 0 0.65 -0.25 0.85 -0.75 0.70 -0.40 -0.20 -0.85 -0.10 -1 0.10 -0.15 0.25 0.10 0.55 0.50 0.75 0.85 0.30 1.05 1.30 0.25 1.30 -0.25 0 -1 0.50 -1.60 1.10 -0.80 0.80 -1.05 1.60 -0.95 3 0.15 2.20 -0.30 2.55 -0.75 0.55z"/>
  <path d="M59.05 68.35 c0 -0.50 -0.40 -1.25 -0.75 -1.65 -0.60 -0.55 -0.70 -1.90 -0.50 -6.55 0.10 -3.15 0.35 -6 0.50 -6.20 0.35 -0.60 3.70 -0.55 3.70 0.05 0 0.30 0.55 0.50 1.25 0.50 1.50 0 1.55 0.30 0.25 2.25 -1.25 1.90 -1.45 6.75 -0.25 5.75 0.40 -0.35 0.75 -0.45 0.75 -0.20 0 0.55 1.45 -1.45 1.50 -2 0 -0.30 -0.35 -0.05 -0.75 0.50 -0.70 0.90 -0.70 0.90 -0.75 -0.40 0 -0.75 0.40 -1.55 0.90 -1.85 0.70 -0.45 0.75 -0.60 0.15 -1 -0.45 -0.30 -0.55 -0.75 -0.30 -1.35 0.40 -0.90 0.40 -0.90 0.60 -0.05 0.15 0.45 0.45 0.85 0.75 0.85 0.35 0 0.45 0.95 0.20 2.70 -0.40 3.40 -0.70 4.30 -1.60 4.30 -0.45 0 -0.70 0.55 -0.70 1.50 0 0.85 -0.20 1.50 -0.50 1.50 -0.25 0 -0.50 0.45 -0.50 1 0 0.55 -0.25 1 -0.50 1 -0.35 0 -0.40 -0.65 -0.20 -1.75 0.20 -1.15 0.10 -1.75 -0.25 -1.75 -0.30 0 -0.55 0.45 -0.55 1 0 0.65 -0.35 1 -0.95 1 -0.55 0 -1.10 0.40 -1.20 0.90 -0.20 0.80 -0.25 0.80 -0.30 -0.05z"/>
  <path d="M77.95 67.25 c0.65 -1.25 0.85 -1.45 1.15 -0.80 0.50 1.25 0.50 1.35 -0.75 1.90 l-1.15 0.55 0.75 -1.65z"/>
  <path d="M7.95 67.40 c-0.35 -0.65 -0.70 -1.65 -0.75 -2.30 -0.10 -0.95 0.05 -1.05 1.05 -0.80 1.10 0.25 1.15 0.20 0.75 -1.55 -0.50 -2.15 -1.25 -3.15 -0.90 -1.10 0.15 0.75 0.05 1.35 -0.15 1.35 -0.70 0 -0.55 -2.35 0.25 -4.25 0.40 -0.95 0.65 -1.75 0.50 -1.75 -0.15 0 0.90 -2.25 2.35 -5.05 2.65 -5.05 5 -7.75 6.30 -7.25 0.40 0.15 0.55 0.05 0.40 -0.20 -0.15 -0.30 -0.05 -0.50 0.30 -0.50 0.30 0 0.85 -0.35 1.15 -0.75 0.40 -0.60 0.55 1.10 0.55 6.75 l0 7.50 -2.05 0 -2.10 0 -0.35 -2.75 c-0.15 -1.55 -0.20 -3.50 0 -4.40 0.25 -1.40 0.10 -1.25 -1.30 1.15 -0.90 1.50 -1.80 2.85 -1.95 3 -0.15 0.15 -0.60 1.25 -1 2.40 -0.60 1.85 -0.60 2.65 -0.05 5 0.40 1.60 0.80 3.70 0.90 4.75 0.25 1.85 0.25 1.85 -1.55 1.85 -1.30 0 -1.90 -0.30 -2.35 -1.10z"/>
  <path d="M30 61.45 c0 -0.30 -0.55 -1 -1.25 -1.55 -0.70 -0.55 -1.25 -1.35 -1.25 -1.85 0 -0.50 -0.45 -1.40 -0.95 -2 -1.30 -1.50 -1.80 -5.70 -1.25 -10.20 l0.45 -3.60 2.20 -0.05 c1.25 0 2.35 -0.30 2.45 -0.60 0.20 -0.65 3.60 -0.85 3.60 -0.20 0 0.20 -0.80 0.85 -1.75 1.50 -0.95 0.60 -1.75 1.40 -1.75 1.70 0 0.35 0.35 0.15 0.75 -0.40 0.70 -0.90 0.75 -0.90 0.30 0.30 -0.25 0.70 -0.70 1.20 -1 1.10 -0.45 -0.10 -0.45 0.15 -0.05 0.85 0.30 0.55 0.50 1.20 0.45 1.40 -0.20 1.05 0.15 1.65 1.20 2.20 1 0.55 1.05 0.55 0.40 -0.20 -0.90 -1.15 -0.30 -4.90 0.95 -6 1.45 -1.20 1.50 -1.10 0.70 1.45 -0.45 1.50 -0.60 3.30 -0.40 4.95 0.35 2.75 -0.20 3.80 -1.30 2.50 -1.05 -1.25 -1.50 -0.35 -0.70 1.50 0.40 0.95 0.70 2.25 0.70 2.95 0 1.40 -1.30 2.10 -2.35 1.20 -0.60 -0.50 -0.60 -0.40 -0.10 0.75 0.50 1.10 0.80 1.25 2 1 1.25 -0.25 1.45 -0.10 1.45 0.80 0 0.85 -0.30 1.05 -1.75 1.05 -0.95 0 -1.75 -0.25 -1.75 -0.55z m-2.45 -10.10 c-0.40 -0.40 -0.55 -0.35 -0.55 0.20 0 1 0.65 1.70 0.90 0.95 0.15 -0.35 -0.05 -0.85 -0.35 -1.15z"/>
  <path d="M33.90 58.90 c-0.65 -2.25 -0.90 -4.90 -0.40 -4.90 0.15 0 0.65 1 1.15 2.25 0.55 1.25 1.15 2.10 1.40 1.95 0.25 -0.15 0.45 0 0.45 0.35 0 0.35 0.10 0.50 0.25 0.40 0.10 -0.15 -0.25 -1.45 -0.80 -2.90 -0.55 -1.50 -0.90 -2.80 -0.75 -2.90 0.10 -0.10 0.35 0.25 0.55 0.80 0.15 0.60 0.75 1.05 1.30 1.05 0.80 0 0.95 0.35 0.95 2.50 0 1.90 -0.20 2.50 -0.75 2.50 -0.40 0 -0.75 0.25 -0.75 0.50 0 0.30 -0.45 0.50 -1 0.50 -0.70 0 -1.15 -0.55 -1.60 -2.10z"/>
  <path d="M78.50 58 c0 -0.25 -0.35 -0.50 -0.75 -0.50 -0.40 0 -0.80 -0.50 -0.85 -1.10 -0.10 -1.85 -0.15 -2.10 -0.60 -2.80 -0.30 -0.50 0.05 -0.65 1.50 -0.50 1.55 0.10 1.95 0.35 1.95 1.15 0 0.55 0.20 1.30 0.40 1.65 0.25 0.30 0.25 0.85 0.05 1.15 -0.15 0.30 0 0.75 0.35 1 0.50 0.30 0.30 0.45 -0.65 0.45 -0.80 0 -1.40 -0.20 -1.40 -0.50z"/>
  <path d="M69.75 53 c0.50 -0.55 1.30 -1 1.85 -1 0.55 0 0.90 0.35 0.90 1 0 0.80 -0.35 1 -1.85 1 -1.75 0 -1.80 0 -0.90 -1z"/>
  <path d="M69 51 c0 -0.95 0.25 -1.50 0.70 -1.50 0.90 0 1.35 1.75 0.65 2.45 -0.90 0.90 -1.35 0.60 -1.35 -0.95z"/>
  <path d="M76.50 50.55 c0 -1.40 0.35 -2.25 1.40 -3.30 l1.35 -1.35 0.30 1.65 c0.20 1.35 0.05 1.90 -0.90 2.80 -0.65 0.60 -1.15 1.35 -1.15 1.65 0 0.25 -0.20 0.50 -0.50 0.50 -0.25 0 -0.50 -0.85 -0.50 -1.95z"/>
  <path d="M83 51 c0 -0.60 1.65 -1.50 2.70 -1.50 0.45 0 0.80 0.45 0.80 1 0 0.80 -0.35 1 -1.75 1 -0.95 0 -1.75 -0.20 -1.75 -0.50z"/>
  <path d="M34.85 49.20 c-0.20 -0.20 -0.35 -0.70 -0.35 -1.15 0 -0.55 0.15 -0.60 0.55 -0.20 0.30 0.30 0.50 0.80 0.35 1.15 -0.10 0.30 -0.35 0.40 -0.55 0.20z"/>
  <path d="M35.15 47.25 c-0.75 -0.85 -0.85 -1.45 -0.20 -1 0.25 0.15 0.85 -0.20 1.25 -0.85 0.70 -0.95 0.70 -1.15 -0.10 -1.70 -0.55 -0.40 -0.60 -0.65 -0.20 -0.70 0.30 0 0.60 -0.35 0.60 -0.75 0 -0.40 0.25 -0.75 0.50 -0.75 0.70 0 0.65 2.10 -0.10 4.50 -0.70 2.20 -0.85 2.30 -1.75 1.25z"/>
  <path d="M49.65 47.50 c-1.55 -0.65 -1.50 -2 0.10 -2 0.80 0 1.25 0.30 1.25 0.75 0 0.45 0.50 0.75 1.30 0.75 0.70 0 1.15 0.20 0.95 0.50 -0.35 0.60 -2.10 0.60 -3.60 0z"/>
  <path d="M92.40 46.15 c-1.80 -0.45 -1 -1.65 1.10 -1.65 1.45 0 2 0.20 2 0.75 0 0.40 -0.20 0.75 -0.45 0.75 -0.25 0 -0.75 0.10 -1.15 0.20 -0.35 0.10 -1.05 0.10 -1.50 -0.05z"/>
  <path d="M24.50 40.80 c0 -0.65 1.40 -1.30 2.90 -1.30 0.30 0 0.60 0.45 0.60 1 0 0.80 -0.35 1 -1.75 1 -1.15 0 -1.75 -0.25 -1.75 -0.70z"/>
  <path d="M20.10 15.20 c-0.35 -0.40 -0.60 -1.40 -0.50 -2.25 l0.15 -1.50 2.25 2.25 2.20 2.30 -1.70 0 c-0.95 -0.05 -2.05 -0.35 -2.40 -0.80z"/>
 </g>
 <g fill="#362718">
  <path d="M63.45 94.40 c-1.30 -1.40 -4.95 -6.15 -6.10 -8 -0.90 -1.40 -0.80 -1.55 1.35 -2.40 1.20 -0.45 1.40 -0.35 1.80 0.80 0.30 0.70 1.20 2.25 2.05 3.50 0.80 1.20 1.25 2.20 0.95 2.20 -0.25 0 -0.50 0.60 -0.50 1.30 0 1.15 0.15 1.25 1.45 0.95 1.20 -0.25 1.45 -0.10 1.70 0.80 0.60 2.20 -0.95 2.65 -2.70 0.85z"/>
  <path d="M50.35 90.65 c-0.15 -0.50 -0.85 -2.45 -1.55 -4.40 -0.70 -1.90 -1.30 -3.95 -1.30 -4.50 0 -0.55 -0.45 -2.20 -1 -3.65 -1.25 -3.25 -1.25 -4.10 -0.05 -4.10 0.75 0 1.05 0.50 1.35 2.15 0.20 1.15 0.30 2.85 0.30 3.80 -0.05 1.05 0.35 2.25 1.10 3.25 1.10 1.40 2.80 6.10 2.80 7.65 0 0.95 -1.35 0.80 -1.65 -0.20z"/>
  <path d="M41.60 83 c-1.30 -2.05 -1.35 -2.50 -0.35 -2.50 0.95 0 1.85 1.75 1.65 3.15 -0.15 1 -0.30 0.95 -1.30 -0.65z"/>
  <path d="M54.30 81.05 c-1.25 -2.60 -1.40 -3.30 -1.10 -5.75 0.35 -2.75 0.40 -2.80 2.05 -2.80 1.25 0 1.70 -0.25 1.95 -1.10 0.55 -2.10 0.35 -3.40 -0.45 -3.10 -0.40 0.20 -0.75 0.60 -0.75 1 0 0.40 -0.45 0.70 -1 0.70 -0.55 0 -1 -0.35 -1 -0.75 0 -0.40 -0.35 -0.75 -0.75 -0.75 -0.40 0 -0.75 -0.45 -0.75 -1 0 -0.55 0.25 -1 0.50 -1 0.30 0 0.50 -0.25 0.50 -0.55 0 -1.10 2.20 -4.95 2.80 -4.95 0.35 0 0.65 -1.15 0.80 -3.15 0.25 -3.95 1.45 -5.80 3.80 -5.85 1.05 0 1.60 0.25 1.60 0.70 0 0.35 0.50 1.05 1.15 1.50 l1.10 0.75 -1.05 0.95 c-0.60 0.50 -1.25 1.45 -1.40 2.15 -0.75 2.55 -1.35 3.35 -2.45 3.05 -0.90 -0.20 -0.95 -0.10 -0.65 1.15 0.25 0.90 0.15 1.55 -0.25 1.75 -0.40 0.30 -0.25 0.70 0.50 1.45 1.10 1.10 1.35 2.05 0.55 2.05 -0.25 0 -0.50 0.55 -0.50 1.25 0 0.65 -0.25 2.35 -0.55 3.70 -0.50 2.50 -1.10 2.90 -2.70 1.95 -0.65 -0.40 -2.75 0.40 -2.75 1.05 0 0.30 0.40 0.75 0.95 1 0.65 0.35 1.05 1.35 1.30 3.30 0.15 1.50 0.55 2.85 0.80 3.05 0.50 0.30 0.15 1.20 -0.50 1.20 -0.20 0 -1 -1.30 -1.75 -2.95z m3.70 -17.35 c0 -0.70 -0.15 -0.70 -0.75 -0.20 -0.40 0.35 -0.75 0.70 -0.75 0.80 0 0.10 0.35 0.20 0.75 0.20 0.40 0 0.75 -0.35 0.75 -0.80z m3 -4.75 c0 -0.25 -0.30 -0.45 -0.65 -0.45 -0.35 0 -0.65 0.45 -0.65 0.95 0 0.75 0.15 0.85 0.65 0.45 0.35 -0.30 0.65 -0.70 0.65 -0.95z"/>
  <path d="M57.25 82.40 c-1.80 -5.75 -1.90 -7.95 -0.30 -6.90 0.50 0.30 0.70 1.25 0.60 3.20 -0.05 1.70 0.10 2.80 0.40 2.80 0.30 0 0.55 0.35 0.55 0.75 0 0.90 -0.95 1 -1.25 0.15z"/>
  <path d="M44.35 80.65 c-1.05 -1.95 -1.10 -3.15 -0.10 -3.15 0.40 0 0.85 0.70 1.05 1.70 0.45 2.60 0 3.30 -0.95 1.45z"/>
  <path d="M70.85 80.45 c-0.75 -0.85 -1.35 -1.80 -1.35 -2.15 0 -0.30 -0.75 -0.95 -1.65 -1.45 -1.40 -0.75 -1.65 -1.15 -1.45 -2.30 0.15 -1.10 0.40 -1.40 1.15 -1.20 0.55 0.15 1 0.75 1 1.35 0.05 0.85 0.10 0.85 0.30 0.20 0.10 -0.50 0.60 -0.90 1.05 -0.90 1.80 0 -0.75 -1.55 -2.85 -1.75 l-2.10 -0.20 0.30 1.60 c0.25 1.20 0.20 1.40 -0.20 0.85 -0.30 -0.40 -0.55 -1.50 -0.55 -2.35 0 -1.50 0.15 -1.65 1.55 -1.65 1.30 0 1.45 -0.10 1 -0.70 -0.35 -0.40 -0.75 -2 -0.90 -3.50 -0.45 -4.55 -1.30 -3.65 -1.90 2.10 -0.35 3.15 -1.35 4.20 -1.90 2 -0.55 -2 0.25 -7.45 1.10 -7.80 0.90 -0.35 2 -1.60 2.05 -2.35 0 -0.25 -0.25 -0.15 -0.50 0.25 -0.40 0.60 -0.50 0.55 -0.50 -0.30 0 -0.55 0.30 -1.30 0.65 -1.65 0.50 -0.55 0.50 -0.70 0 -0.90 -0.35 -0.15 -0.65 -0.60 -0.60 -1.05 0 -0.55 0.10 -0.60 0.30 -0.20 0.35 0.85 1.65 0.75 1.65 -0.15 0 -0.40 0.25 -0.75 0.50 -0.75 0.30 0 0.50 -0.35 0.50 -0.75 0 -0.40 -0.30 -0.75 -0.60 -0.75 -0.45 0 -0.40 -0.20 0.10 -0.50 0.50 -0.30 0.55 -0.50 0.15 -0.50 -0.35 0 -0.65 -0.55 -0.65 -1.25 0 -0.90 0.25 -1.25 1 -1.25 0.65 0 1 -0.35 1 -1 0 -1.20 0.65 -1.30 1.50 -0.30 0.95 1.20 0.40 2.95 -1 3.35 -1.05 0.30 -0.90 0.50 0.25 0.45 0.15 -0.05 0.65 0.30 1.10 0.75 0.70 0.75 0.70 0.85 -0.15 1.50 -0.55 0.40 -1.05 0.75 -1.20 0.75 -0.80 0.05 -1.60 4.75 -1.25 7.35 0.35 2.95 1.70 6.65 2.35 6.65 0.25 0 0.40 0.30 0.40 0.65 0 0.35 1.15 1.15 2.50 1.75 2.95 1.30 3 1.30 3 0.40 0 -0.65 1 -1.30 2 -1.30 0.60 0 -0.70 4.20 -1.70 5.75 -0.45 0.65 -0.80 1.55 -0.80 1.95 0 0.85 -1.90 2.80 -2.75 2.80 -0.30 0 -1.15 -0.70 -1.90 -1.55z m3.15 -4.95 c0 -0.15 -0.55 0.45 -1.20 1.25 -0.90 1.10 -1.05 1.65 -0.65 2.15 0.40 0.50 0.65 0.20 1.15 -1.25 0.40 -1.05 0.70 -2 0.70 -2.15z"/>
  <path d="M39.30 77.40 c-0.15 -0.35 -0.35 -1.60 -0.45 -2.75 -0.20 -1.65 -0.10 -2.15 0.45 -2.15 0.40 0 0.70 0.40 0.70 0.95 0 0.50 0.35 1.75 0.75 2.75 0.75 1.75 0.70 1.80 -0.25 1.80 -0.55 0 -1.10 -0.30 -1.20 -0.60z"/>
  <path d="M8.05 75 c-0.75 -3.35 -0.70 -3.50 0.40 -3.50 0.60 0 1.05 0.40 1.15 0.95 0.15 0.90 0.25 0.90 1.15 0.25 0.95 -0.70 0.95 -0.75 -0.65 -2.25 -0.85 -0.80 -1.60 -1.70 -1.60 -2 0 -0.25 -0.35 -0.45 -0.70 -0.45 -0.55 0 -0.75 -0.55 -0.65 -2 0.05 -1.10 0.20 -2 0.40 -2 0.20 0 0.95 0.75 1.70 1.65 1.20 1.50 1.25 1.50 0.80 0.25 -0.25 -0.70 -0.75 -2.65 -1.05 -4.30 -0.65 -3.60 -0.05 -5.70 3 -10.95 2.60 -4.45 3.55 -5.60 4.75 -5.80 0.55 -0.05 1.30 -0.30 1.65 -0.50 0.35 -0.25 0.60 -0.20 0.60 0.10 0 0.30 0.35 0.55 0.75 0.55 0.60 0 0.70 0.85 0.40 5.40 -0.30 5.65 0.40 11.75 1.65 14.20 0.40 0.75 0.70 1.90 0.70 2.65 0 1.45 0 1.45 2.35 0.50 0.95 -0.40 2.20 -0.75 2.70 -0.75 0.70 0 0.95 -0.35 0.95 -1.25 0 -0.70 0.25 -1.25 0.50 -1.25 0.30 0 0.50 -0.35 0.50 -0.75 0 -0.50 0.50 -0.75 1.50 -0.75 l1.55 0 -1.45 2.15 c-2.55 3.65 -5.15 5.25 -8.60 5.25 -4.10 0 -9.35 2.60 -11.95 5.90 -1.40 1.75 -1.90 1.50 -2.50 -1.30z m12.10 -6.70 c0.20 -0.50 -0.30 -0.75 -1.80 -0.95 -2.50 -0.35 -3.25 0 -2 0.95 1.15 0.85 3.45 0.90 3.80 0z m-1.90 -12.85 c-0.20 -0.30 -0.35 -2.25 -0.40 -4.35 l0 -3.85 -0.60 2.50 c-0.70 3.10 -0.45 6.25 0.60 6.25 0.40 0 0.55 -0.25 0.40 -0.55z"/>
  <path d="M44.60 75.90 c-0.05 -0.85 -0.40 -1.40 -0.85 -1.40 -0.75 0 -1.20 -1.75 -1.40 -5.20 -0.10 -1.70 -0.30 -2.05 -1.45 -2.35 -1.55 -0.40 -2.50 0.40 -1.25 1.10 0.45 0.30 0.65 0.85 0.50 1.45 -0.35 1.25 -1.65 1.30 -1.65 0.05 0 -0.50 -0.15 -1.65 -0.30 -2.50 -0.30 -1.35 -0.15 -1.65 0.65 -1.85 0.60 -0.20 1.30 -1.15 1.85 -2.65 0.80 -2.20 0.80 -2.45 -0.05 -4.05 -1.05 -2 -1.15 -7.45 -0.20 -10.75 0.80 -2.85 3.05 -5.25 4.95 -5.25 1.05 0 1.55 0.30 1.75 1 0.25 1.05 -0.35 1.35 -0.95 0.45 -0.15 -0.30 -1 0.45 -2 1.85 l-1.75 2.40 1.15 0.90 c0.65 0.50 1.60 1.05 2.15 1.20 1.85 0.60 2.10 1.10 1.75 3.55 -0.20 1.35 -0.55 2.85 -0.75 3.40 -0.35 0.85 -0.30 0.90 0.30 0.40 1 -0.80 2.10 -5.30 1.75 -7 -0.30 -1.30 -0.20 -1.40 1.30 -1.50 2.55 -0.20 3.75 -0.60 4.05 -1.35 0.25 -0.55 0 -0.60 -1.20 -0.15 -1.20 0.45 -1.75 0.45 -2.80 -0.15 -2.05 -1.15 -2 -2 0.05 -2 1.15 0 1.95 -0.30 2.25 -0.85 0.40 -0.75 0.50 -0.75 0.55 -0.15 0 0.60 0.45 0.75 2 0.60 2 -0.20 2 -0.20 2 1.50 0 2.10 -1.65 3.70 -4.20 4.20 -1.60 0.30 -1.80 0.50 -1.80 1.90 0 0.85 -0.45 2.75 -1 4.20 -0.55 1.45 -1 3.05 -1 3.60 0 1 -0.05 1 -1.50 0.25 -0.80 -0.40 -1.60 -0.75 -1.75 -0.75 -0.15 0 -0.45 0 -0.65 0 -0.25 0 -0.80 -0.90 -1.25 -2 -0.40 -1.10 -1 -2 -1.35 -2 -0.35 0 -0.40 0.30 -0.05 0.90 0.70 1.30 1.25 5.65 0.75 6.05 -0.25 0.15 -0.75 0.90 -1.05 1.60 -0.45 1.10 -0.40 1.45 0.35 2.25 1.20 1.15 2.65 6.65 2.35 8.85 -0.15 1.45 -0.20 1.45 -0.25 0.25z"/>
  <path d="M50.75 74 c-0.20 -0.30 -0.40 -1.10 -0.55 -1.75 -0.15 -1 0 -1.25 0.80 -1.25 0.80 0 1 0.35 1 1.75 0 1.70 -0.60 2.30 -1.25 1.25z"/>
  <path d="M45.50 72 c0 -0.65 0.35 -1 1 -1 0.65 0 1 0.35 1 1 0 0.65 -0.35 1 -1 1 -0.65 0 -1 -0.35 -1 -1z"/>
  <path d="M70.75 69.95 c-0.70 -0.90 -1.20 -1.90 -1.05 -2.25 0.15 -0.40 0 -1.55 -0.35 -2.55 -0.65 -1.95 -0.60 -4.65 0.10 -4.65 0.20 0 0.75 0.90 1.20 2.05 0.50 1.25 1.20 2.15 1.85 2.30 0.85 0.25 1 0.55 0.75 1.85 -0.30 1.45 -0.25 1.50 0.50 0.60 0.40 -0.55 0.75 -1.30 0.75 -1.65 0 -0.35 0.35 -0.65 0.75 -0.65 0.45 0 0.75 0.45 0.75 1.10 0 1.45 -2.35 5.40 -3.25 5.40 -0.35 0 -1.25 -0.70 -2 -1.55z"/>
  <path d="M44.10 67.25 c-0.35 -1.35 -0.70 -2.80 -0.75 -3.15 -0.05 -0.40 0.75 -1.15 1.75 -1.75 1.80 -1.05 1.85 -1.05 2.85 -0.15 0.60 0.55 1.05 1.40 1.05 1.90 0 0.55 0.20 0.85 0.50 0.65 0.25 -0.15 0.35 -0.60 0.15 -1 -0.15 -0.50 0.10 -0.75 0.80 -0.75 0.85 0 1.05 0.30 1.05 1.75 0 0.95 -0.20 1.75 -0.50 1.75 -0.25 0 -0.50 0.70 -0.50 1.60 0 1.25 -0.15 1.45 -0.60 1 -0.80 -0.80 -2.25 -0.75 -2.55 0.05 -0.15 0.30 -0.30 -0.10 -0.30 -1 -0.05 -0.85 0.20 -1.65 0.50 -1.75 0.30 -0.10 0.45 -0.80 0.35 -1.60 l-0.15 -1.40 -1.35 1.05 c-1 0.80 -1.40 1.60 -1.50 3.20 l-0.15 2.10 -0.65 -2.50z"/>
  <path d="M78.60 66.35 c0.60 -2.75 0.80 -2.80 0.70 -0.40 0 1.15 -0.30 2.15 -0.60 2.25 -0.40 0.15 -0.45 -0.35 -0.10 -1.85z"/>
  <path d="M27.50 60.75 c0 -1.55 0.15 -1.75 1.25 -1.75 1.20 0 2.25 1.25 2.25 2.70 0 0.60 -0.50 0.80 -1.75 0.80 -1.65 0 -1.75 -0.10 -1.75 -1.75z"/>
  <path d="M38.35 61.45 c-0.25 -0.85 -0.55 -1 -1.75 -0.75 -1.65 0.40 -2.05 0 -3.05 -2.85 -0.70 -2.15 -0.50 -2.85 0.50 -1.60 2.90 3.50 3.40 3.45 1.95 -0.20 -0.80 -2.05 -0.90 -2.80 -0.45 -3.65 0.40 -0.75 0.40 -1.10 -0.05 -1.40 -0.35 -0.20 -0.50 -0.60 -0.30 -0.90 0.15 -0.30 0.10 -0.65 -0.20 -0.85 -0.25 -0.15 -0.50 -0.65 -0.50 -1.05 0 -0.40 0.25 -0.60 0.50 -0.45 0.30 0.15 0.50 0.05 0.50 -0.20 0 -0.30 -0.20 -0.55 -0.50 -0.55 -0.25 0 0.15 -0.60 0.85 -1.30 0.85 -0.85 1.10 -1.40 0.75 -1.65 -0.75 -0.45 -0.15 -2.55 0.70 -2.55 0.55 0 0.70 1.35 0.70 6.95 0 6.20 -0.10 7 -0.85 7.20 -0.75 0.20 -0.70 0.25 0.15 0.30 1.20 0.05 2.70 2.85 2.70 5.05 0 1.75 -1.25 2.05 -1.65 0.45z"/>
  <path d="M77.50 56.65 c-0.55 -0.75 -0.90 -1.65 -0.80 -2 0.40 -0.95 -1.60 -1.60 -3.30 -1.10 -1.20 0.30 -1.40 0.25 -1.40 -0.60 0 -0.55 0.35 -0.95 0.90 -0.95 0.45 0 2.05 -1.35 3.55 -3 1.45 -1.65 3.45 -3.40 4.35 -3.95 1.70 -1 1.70 -1 1.70 0 0 0.80 0.15 0.90 0.95 0.45 0.55 -0.25 1.65 -0.50 2.50 -0.50 0.85 0 1.55 -0.20 1.55 -0.45 0 -0.25 -1 -0.30 -2.25 -0.15 -1.35 0.15 -2.25 0.05 -2.25 -0.30 0 -1.20 6.75 -3.20 9.15 -2.70 1.80 0.35 0.80 1.45 -1.75 1.95 l-2.65 0.50 2.15 0.10 c1.70 0.05 2.10 0.25 2.10 0.95 0 0.75 -0.40 0.95 -1.80 1 -3.40 0.15 -12.70 4.40 -12.70 5.85 0 1.20 1.05 1.40 2.40 0.40 2.20 -1.55 3.10 -1.75 3.10 -0.65 0 0.65 -0.45 1.10 -1.25 1.30 -1.70 0.40 -2.55 2 -1.65 3.10 0.60 0.80 0.55 0.80 -0.35 0.05 -1.90 -1.55 -2.50 -1.60 -1.10 -0.10 0.75 0.80 1.35 1.60 1.35 1.80 0 0.85 -1.50 0.25 -2.50 -1z"/>
  <path d="M25.55 55.65 c-0.70 -1.45 -1.10 -7.65 -0.65 -10.75 l0.45 -2.90 -1.45 0 c-1.55 0 -1.85 -0.75 -0.50 -1.40 1.75 -0.95 4.05 -1.05 5.45 -0.35 0.75 0.40 2.15 0.75 3.05 0.75 2 0 2.05 0.50 0.05 1.95 -0.85 0.65 -1.40 1.45 -1.25 1.80 0.15 0.40 -0.15 0.85 -0.75 1 -0.50 0.20 -0.95 0.75 -0.95 1.35 0 0.55 -0.25 0.90 -0.60 0.75 -0.70 -0.20 -0.75 -1.30 -0.25 -3.85 0.40 -1.80 -0.50 -2.05 -0.95 -0.25 -0.45 1.85 -0.50 7.80 -0.05 9.40 0.20 0.75 0.75 1.35 1.25 1.40 0.45 0 0.60 0.15 0.25 0.25 -0.35 0.15 -0.45 0.60 -0.30 1 0.40 1.05 -2.20 0.90 -2.80 -0.15z"/>
  <path d="M93.25 54 c-0.55 -0.20 -2.05 -0.70 -3.35 -1 -1.35 -0.35 -2.40 -0.90 -2.40 -1.20 0 -0.35 -0.70 -0.50 -2 -0.40 -2.50 0.25 -2.80 -1 -0.35 -1.70 1.95 -0.60 3.35 -0.35 3.35 0.60 0 0.40 0.45 0.70 0.95 0.70 0.55 0 1.30 0.15 1.75 0.30 0.60 0.20 0.80 0 0.80 -0.75 0 -1.25 0.95 -1.35 2.95 -0.30 1.75 0.90 2.90 3.50 1.70 3.95 -1 0.40 -2.20 0.30 -3.40 -0.20z"/>
  <path d="M32.25 49.50 c-0.20 -0.35 -0.10 -0.80 0.25 -1 0.35 -0.20 0.50 -1.15 0.45 -2.15 -0.10 -1 0.05 -2 0.25 -2.20 0.25 -0.20 0.30 -0.10 0.10 0.25 -0.20 0.30 -0.10 0.60 0.20 0.60 0.40 0 0.50 0.65 0.25 2.15 -0.40 2.35 -0.95 3.25 -1.50 2.35z"/>
  <path d="M95.40 46.15 c-1.35 -0.35 -1.10 -1.65 0.30 -1.65 0.65 0 1.30 -0.30 1.45 -0.60 0.30 -0.75 1.90 1.05 1.65 1.85 -0.15 0.55 -2.05 0.80 -3.40 0.40z"/>
  <path d="M59.60 40.75 c0.05 -1.05 0.35 -1.75 0.75 -1.75 0.35 0 0.65 0.25 0.65 0.60 0 0.30 0.50 1.10 1.10 1.75 l1.05 1.15 -1.85 0 c-1.80 0 -1.85 -0.05 -1.70 -1.75z"/>
 </g>
 <g fill="#432821">
  <path d="M63.20 93.85 c-1.65 -1.50 -1.75 -1.75 -1.40 -3.60 l0.35 -1.95 1.15 1.40 c2 2.30 2.30 1.35 1.90 -6.15 -0.25 -5.95 -0.20 -7 0.50 -7.65 0.45 -0.45 0.80 -1.05 0.80 -1.35 0 -0.95 0.95 -0.60 1.55 0.55 l0.60 1.15 0.50 -1.15 c0.65 -1.40 1.05 -1.40 2.45 0 0.95 0.95 1 1.10 0.20 1.65 -0.90 0.70 -0.65 2 0.50 2.45 0.40 0.15 0.70 0.20 0.70 0.15 0 -0.05 0.35 -1 0.70 -2.10 l0.70 -2 -2.05 -1 c-1.15 -0.60 -2.30 -1.55 -2.60 -2.20 -0.25 -0.60 -1 -1.20 -1.60 -1.40 -0.90 -0.20 -1.15 -0.60 -1.15 -1.95 0 -2.25 0.55 -2.15 1.95 0.35 1.15 2.05 4.05 3.85 5.10 3.15 0.30 -0.15 1.40 -0.35 2.45 -0.40 l1.90 -0.10 -1.20 3.20 c-1.65 4.40 -2.30 5.65 -3.30 6.30 -1.10 0.70 -3.05 -0.35 -4.50 -2.45 -0.60 -0.90 -1.50 -1.90 -2.05 -2.25 -0.90 -0.55 -0.95 -0.50 -0.60 0.85 0.55 1.90 0.30 9.40 -0.35 11.90 -0.30 1.10 -0.50 2.95 -0.45 4.15 0.05 1.15 -0.15 2.10 -0.45 2.10 -0.30 0 -1.30 -0.75 -2.30 -1.65z"/>
  <path d="M50.25 90 c-0.40 -0.80 -1 -2.05 -1.25 -2.75 -0.40 -1.10 -0.35 -1.25 0.50 -1.25 1.05 0 1.60 0.95 2.25 3.90 0.45 2.05 -0.45 2.15 -1.50 0.10z"/>
  <path d="M59 87.05 c0 -0.25 -0.45 -0.55 -1 -0.70 -1.45 -0.40 -1.20 -1.55 0.45 -2.15 1.35 -0.55 1.50 -0.45 2.25 1.15 1.05 2.15 1.05 2.15 -0.45 2.15 -0.70 0 -1.25 -0.20 -1.25 -0.45z"/>
  <path d="M47.70 82.15 c-0.20 -1.05 -0.55 -2.30 -0.80 -2.75 -0.25 -0.50 -0.60 -1.90 -0.85 -3.15 -0.35 -2 -0.30 -2.30 0.40 -2.15 0.90 0.20 1.40 2.05 1.50 5.40 0 1.25 0.40 2.80 0.85 3.40 0.65 0.95 0.65 1.10 0 1.10 -0.50 0 -0.90 -0.70 -1.10 -1.85z"/>
  <path d="M53.15 79.05 c-1.45 -2.80 -2.70 -6 -2.90 -7.35 -0.40 -2.60 -1.05 -3.85 -1.80 -3.40 -0.25 0.15 -0.45 -0.10 -0.45 -0.50 0 -0.45 -0.20 -0.80 -0.50 -0.80 -0.25 0 -0.50 -0.55 -0.50 -1.20 0 -0.70 -0.20 -1.40 -0.50 -1.55 -0.85 -0.55 -0.55 -2.25 0.40 -2.25 1.15 0 2.10 0.95 2.10 2.10 0 0.50 0.25 0.90 0.55 0.90 0.30 0 0.40 -0.35 0.25 -0.80 -0.15 -0.45 -0.30 -1 -0.30 -1.25 0 -0.25 -0.45 -0.90 -1 -1.45 l-1 -1 1.75 0 c1.45 0 1.80 0.20 2.05 1.30 0.20 0.70 0.20 2.05 0.05 3 -0.15 0.95 -0.10 1.70 0.20 1.70 0.90 0 2.95 -1.60 2.95 -2.30 0 -0.40 0.35 -0.85 0.75 -1 0.40 -0.20 0.75 -0.75 0.75 -1.25 0 -1.55 2.30 -1.25 2.70 0.30 0.45 1.75 -0.25 2.75 -0.80 1.25 l-0.45 -1.20 -0.90 1.50 c-1 1.70 -1.60 3.20 -1.25 3.20 0.10 0 0.45 -0.60 0.70 -1.30 0.45 -1.10 0.70 -1.25 1.90 -0.95 2.45 0.60 3.50 2.30 1.80 2.95 -0.45 0.20 -0.70 0.65 -0.50 1.05 0.20 0.50 -0.05 0.75 -0.70 0.75 -0.55 0 -1 -0.25 -1 -0.50 0 -0.30 -0.40 -0.25 -1 0.10 -0.75 0.50 -1 1.20 -1 2.70 0 1.55 -0.25 2.25 -1.05 2.75 -0.95 0.65 -1 0.80 -0.30 2.20 0.75 1.50 2.35 6.20 2.35 6.90 0 1.25 -1.10 -0.25 -3.35 -4.60z m0.85 -9.20 c0.35 -1.60 0.30 -1.70 -0.70 -1.45 -1 0.25 -1.80 1 -1.80 1.70 0 0.20 0.35 0.25 0.75 0.10 0.55 -0.20 0.75 0 0.75 0.85 0 1.50 0.50 0.90 1 -1.20z"/>
  <path d="M57.25 82.40 c-0.10 -0.35 -0.55 -1.95 -0.95 -3.55 -0.65 -2.55 -0.65 -2.95 0 -3.20 0.40 -0.15 0.85 -0.15 1.05 0 0.35 0.40 1.10 4.20 1.15 6 0 1.35 -0.85 1.90 -1.25 0.75z"/>
  <path d="M44.15 80.25 c-0.35 -0.80 -0.85 -3.65 -1.15 -6.25 -0.30 -2.60 -0.65 -5.40 -0.75 -6.25 l-0.25 -1.50 1.05 1.65 c0.60 0.90 1.15 1.55 1.30 1.45 0.10 -0.15 -0.05 -1.25 -0.35 -2.55 -0.55 -2.50 -0.35 -3.30 0.70 -3.30 0.80 0 1.30 2.20 1.30 5.70 0 1.45 0.25 2.85 0.60 3.20 0.45 0.45 0.35 0.60 -0.50 0.60 -1 0 -1.05 0.25 -1.20 4.40 -0.15 3.95 -0.20 4.20 -0.75 2.85z"/>
  <path d="M39.75 78.75 c-0.85 -2 -1.25 -10 -0.50 -10 0.30 0 0.50 1.35 0.55 3 0 1.75 0.35 3.65 0.85 4.60 0.95 1.80 1.15 4.15 0.30 4.15 -0.25 0 -0.85 -0.80 -1.20 -1.75z"/>
  <path d="M8.50 77 c0 -1.25 0.20 -1.50 1.25 -1.50 1.20 0 1.20 0 0.35 1.50 -1.10 1.90 -1.60 1.90 -1.60 0z"/>
  <path d="M63.75 74.35 c-0.45 -1.05 -0.95 -2.60 -1.10 -3.45 -0.30 -1.55 -0.30 -1.55 1.35 -1.25 0.90 0.20 1.80 0.35 2.05 0.35 0.25 0 0.45 0.45 0.45 1 0 0.60 -0.35 1 -0.80 1 -0.60 0 -0.70 0.35 -0.50 1.40 0.15 0.75 0.10 1.70 -0.20 2.10 -0.35 0.60 -0.60 0.35 -1.25 -1.15z"/>
  <path d="M12 72.75 c0 -0.90 0.25 -1.25 1 -1.25 0.55 0 1 -0.30 1 -0.70 0 -0.50 0.80 -0.85 2.40 -1.05 1.30 -0.15 2.85 -0.40 3.50 -0.55 0.70 -0.15 1.10 0 1.10 0.45 0 0.45 -1.20 1.05 -3.10 1.60 -1.75 0.45 -3.55 1.30 -4.05 1.80 -1.20 1.30 -1.85 1.20 -1.85 -0.30z"/>
  <path d="M7.20 69.80 c-0.35 -2.15 0.20 -4.90 0.95 -4.65 0.35 0.10 0.65 1.50 0.75 3.25 0.10 2.50 0 3.10 -0.60 3.10 -0.45 0 -0.90 -0.65 -1.10 -1.70z"/>
  <path d="M71 70.25 c-0.65 -0.70 -1.05 -1.40 -0.85 -1.55 0.50 -0.50 3.10 1 3.25 1.95 0.25 1.25 -1.05 1.05 -2.40 -0.40z"/>
  <path d="M22 69.50 c0 -0.80 0.35 -1 1.75 -1 1.95 0 2.30 0.70 0.80 1.50 -1.55 0.80 -2.55 0.60 -2.55 -0.50z"/>
  <path d="M74.75 65.50 c0.20 -3.45 0.15 -3.65 -0.55 -2.75 -0.40 0.55 -1.20 0.95 -1.70 0.85 -1.30 -0.20 -1.30 0.90 0 1.25 0.95 0.25 1.30 1.15 0.70 1.80 -0.40 0.35 -3.30 -1.05 -3.80 -1.85 -1.30 -1.90 0.55 -7.40 2.55 -7.70 0.70 -0.10 1.05 -0.50 0.95 -1 -0.20 -1.30 1.10 -1 2.20 0.45 1.35 1.80 1.50 8.95 0.20 11.20 -0.85 1.50 -0.85 1.50 -0.55 -2.25z"/>
  <path d="M80.90 68.25 c-0.35 -0.40 0.15 -2.70 0.65 -3.05 0.55 -0.35 0.60 1.80 0.05 2.70 -0.25 0.35 -0.55 0.50 -0.70 0.35z"/>
  <path d="M38.25 67.05 c-0.50 -0.90 0.25 -3.55 1.05 -3.55 0.40 0 0.70 0.35 0.70 0.75 0 0.40 0.35 0.75 0.75 0.75 0.40 0 0.75 0.35 0.75 0.75 0 0.40 -0.40 0.75 -0.90 0.75 -0.50 0 -1.15 0.25 -1.45 0.55 -0.40 0.40 -0.65 0.40 -0.90 0z"/>
  <path d="M29.20 64.30 c0.15 -1.50 0.10 -2.80 -0.10 -2.90 -1.50 -0.60 -4 -7.90 -2.70 -7.90 0.45 0 2.30 2.75 3.40 5.15 0.80 1.70 1.05 1.85 2.30 1.60 1.10 -0.25 1.40 -0.15 1.40 0.50 0 0.95 -3.55 6.20 -4.20 6.25 -0.25 0 -0.30 -1.20 -0.10 -2.70z"/>
  <path d="M41.40 61.40 c-0.10 -1.40 -0.40 -1.70 -1.50 -1.80 -1.25 -0.15 -1.40 -0.40 -1.40 -1.95 0 -1.10 0.35 -2.05 0.90 -2.45 1.10 -0.85 2.10 -0.90 2.10 -0.05 0 0.30 0.35 1.25 0.75 2 0.40 0.80 0.75 2.15 0.85 3 0.20 2.90 -1.40 4.05 -1.70 1.25z"/>
  <path d="M64.50 62 c1.05 -1.05 1.45 -4.50 0.50 -4.50 -0.95 0 -0.50 -1.40 0.95 -2.95 1.15 -1.20 1.25 -1.55 0.60 -1.55 -0.45 0 -1.25 0.70 -1.70 1.50 -1.05 1.70 -1.65 1.85 -3.25 0.70 -0.90 -0.60 -1.30 -0.65 -1.85 -0.20 -0.65 0.55 -0.75 0.35 -0.75 -0.95 0 -0.85 0.25 -1.55 0.50 -1.55 0.30 0 0.50 -0.95 0.50 -2.10 0 -1.25 0.40 -2.85 1 -3.75 0.65 -1.15 0.90 -2.10 0.70 -3.15 -0.30 -1.35 -0.50 -1.50 -2.25 -1.50 -1.05 0 -3.05 -0.45 -4.45 -1 -1.40 -0.55 -3.55 -1 -4.80 -1 -2.05 0 -2.60 -0.25 -5.60 -2.95 -3.65 -3.20 -9.95 -7.90 -16.45 -12.35 -2.30 -1.50 -4.40 -3.20 -4.65 -3.75 -0.30 -0.50 -0.80 -0.95 -1.15 -0.95 -0.30 0 -2.60 -2 -5.10 -4.45 l-4.50 -4.45 -3.30 -0.25 -3.25 -0.30 0.30 2.35 c0.20 1.30 0.80 3.25 1.35 4.35 1.70 3.25 8.20 8.35 14.95 11.70 2.20 1.10 5.10 2.90 6.40 3.95 1.35 1.10 3.10 2.35 4 2.75 0.85 0.40 2.20 1.05 2.95 1.40 0.80 0.35 1.75 1.30 2.15 2.05 0.80 1.55 0.95 5.55 0.20 6.90 -0.30 0.55 -0.55 3.45 -0.55 6.50 -0.05 3 -0.25 5.50 -0.50 5.50 -0.75 0 -2.25 -3.50 -1.65 -3.90 0.30 -0.20 0.50 -1.90 0.50 -3.75 0 -1.90 -0.15 -3.10 -0.40 -2.75 -0.25 0.45 -0.40 0.35 -0.40 -0.35 0.05 -0.55 0.30 -1.40 0.65 -1.85 0.40 -0.45 0.55 -1.60 0.45 -2.65 -0.15 -1.45 -0.65 -2.10 -2.05 -3.10 -4.25 -2.90 -13 -8.35 -15.80 -9.75 -5.25 -2.70 -11.95 -8.45 -13.65 -11.75 -0.60 -1.20 -1.10 -3.05 -1.10 -4.10 0 -1.15 -0.40 -2.40 -1 -3.15 l-0.95 -1.25 1.85 -0.85 c1.65 -0.75 2.45 -0.80 6.05 -0.35 5 0.65 8.90 2.30 11.75 5.05 1.10 1.10 3.10 2.85 4.40 3.85 1.25 1.05 4.20 3.50 6.50 5.40 5.65 4.80 10.60 8.25 11.85 8.25 0.55 0 1.10 0.20 1.25 0.45 0.25 0.40 5.50 3.05 6.05 3.05 0.55 0 -0.50 -1.85 -1.80 -3.25 -0.90 -0.95 -1.70 -2.70 -2.25 -4.75 -0.45 -1.80 -1.10 -3.60 -1.50 -4.05 -0.70 -0.75 -0.75 -1.80 -0.75 -10.45 l0 -4.25 2.15 -1.85 c4.30 -3.80 6.75 -1.70 8.60 7.30 0.45 2.15 1.15 4.70 1.55 5.65 0.40 1 0.75 2.55 0.75 3.45 0 0.95 0.45 2.85 1 4.30 0.70 1.80 1.10 4.45 1.30 8.40 0.20 4.25 0.45 5.85 1 6.15 0.40 0.25 2.45 2.20 4.60 4.45 2.80 2.95 3.85 4.35 3.85 5.30 0 1.10 -0.25 1.35 -1.10 1.30 -1.25 -0.05 -1.55 0.55 -0.50 0.95 0.35 0.15 1.05 -0.05 1.60 -0.45 1.05 -0.80 3.75 -0.95 3.75 -0.25 0 0.70 -3.20 2.55 -4.35 2.55 -1.55 0 -2 0.90 -2.40 4.65 l-0.35 3.35 -1.70 0 -1.70 0 1 -1z m2 -11.50 c0.60 -0.35 0.60 -0.60 0.15 -1.05 -0.45 -0.45 -0.80 -0.45 -1.40 0.05 -1.45 1.20 -0.45 2.10 1.25 1z m-6.75 -10.95 c-0.30 -0.20 -1.15 -0.55 -2 -0.75 -1.40 -0.30 -1.45 -0.25 -0.55 0.45 1.05 0.80 3.35 1.10 2.55 0.30z m-1.95 -7.40 c-0.20 -1.05 -0.80 -3.35 -1.30 -5.15 -1.30 -4.50 -3 -12.05 -3 -13.50 -0.05 -0.70 -0.45 -2.05 -0.90 -3 -0.70 -1.40 -1.20 -1.80 -2.50 -1.90 -1.45 -0.15 -1.70 0 -2.40 1.70 -0.70 1.70 -0.70 2.15 0 4.70 0.45 1.55 0.80 3.35 0.80 4 0 1.15 1.60 5.60 3.60 10.15 0.90 1.95 1.30 2.35 2.45 2.35 0.85 0 1.60 0.40 2.15 1.25 1.15 1.75 1.45 1.55 1.10 -0.60z"/>
  <path d="M77.55 60.85 c-0.70 -2 -1.05 -6.35 -0.55 -6.35 0.70 0 4.05 4.05 3.75 4.50 -0.20 0.30 -0.55 0.40 -0.85 0.20 -0.25 -0.15 -0.45 0.10 -0.35 0.60 0.15 1.15 -0.50 2.70 -1.05 2.70 -0.25 0 -0.65 -0.75 -0.95 -1.65z"/>
  <path d="M34.45 60.15 c-0.05 -0.25 -0.05 -0.60 0 -0.80 0.05 -0.20 -0.25 -0.90 -0.70 -1.50 -1.50 -2.15 -0.70 -2.30 1.30 -0.30 1.60 1.60 1.90 2.15 1.40 2.50 -0.85 0.55 -1.95 0.60 -2 0.10z"/>
  <path d="M9.95 57.55 c0.35 -0.25 0.55 -0.70 0.35 -1 -0.40 -0.60 0.50 -2.55 1.20 -2.55 0.30 0 0.50 0.90 0.50 2 0 1.85 -0.10 2 -1.35 2 -1 0 -1.20 -0.15 -0.70 -0.45z"/>
  <path d="M77.90 54.45 c-0.50 -0.25 -0.90 -0.80 -0.90 -1.15 0 -0.45 -0.45 -0.60 -1.25 -0.40 -1 0.15 -1.25 0 -1.25 -0.75 0 -1.35 1 -2.15 2.70 -2.15 1.15 0 1.35 0.15 0.90 0.60 -0.85 0.85 -0.75 2.40 0.20 2.40 0.45 0 1.35 -0.45 2.05 -1 0.70 -0.55 1.70 -1 2.20 -1 1.55 0 1.10 1.40 -0.55 1.75 -0.85 0.20 -1.75 0.75 -2 1.30 -0.60 1.10 -0.90 1.15 -2.10 0.40z"/>
  <path d="M94.50 53.50 c0 -0.75 0.35 -1 1.30 -1 1 0 1.25 0.20 1 0.80 -0.15 0.45 -0.30 0.90 -0.30 1 0 0.10 -0.45 0.20 -1 0.20 -0.65 0 -1 -0.35 -1 -1z"/>
  <path d="M50 50.25 c0 -0.40 0.70 -0.85 1.70 -1.05 0.95 -0.15 2.25 -0.85 2.90 -1.55 l1.15 -1.30 -1.65 0.85 c-0.90 0.50 -2.05 0.75 -2.50 0.65 -0.60 -0.15 -0.50 -0.25 0.30 -0.30 0.75 -0.05 1.10 -0.35 1.10 -1.05 0 -0.55 -0.20 -1 -0.50 -1 -0.25 0 -0.35 -0.30 -0.20 -0.70 0.40 -1.05 -0.30 -1.25 -3.05 -0.80 -1.45 0.25 -2.70 0.20 -3 -0.05 -0.30 -0.30 -1 0.15 -1.85 1.15 l-1.40 1.65 0 -1.75 c0 -2.65 0.50 -3.05 3.55 -3.05 1.50 0 3.70 0 4.95 -0.10 2.20 -0.10 2.25 -0.05 2.40 1.55 0.15 1.30 0.35 1.60 1.40 1.60 1.05 0 1.20 0.25 1.20 1.75 0 1.40 -0.20 1.75 -1 1.75 -0.75 0 -1 0.35 -1 1.25 0 1.15 -0.20 1.25 -2.25 1.25 -1.65 0 -2.25 -0.20 -2.25 -0.75z"/>
  <path d="M15 49.75 c0 -0.40 -0.20 -0.75 -0.45 -0.75 -0.25 0 0 -0.90 0.60 -2 0.65 -1.15 1.45 -2 1.95 -2 0.50 0 1.15 -0.45 1.50 -1 0.60 -0.90 4.35 -3.50 5.10 -3.50 0.15 0 0.30 0.55 0.30 1.25 0 1 -0.25 1.25 -1.25 1.25 -0.70 0 -1.25 0.25 -1.25 0.55 0 0.75 -2.05 3.55 -2.35 3.25 -0.60 -0.60 -2.10 0.80 -2.40 2.20 -0.35 1.50 -1.75 2.15 -1.75 0.75z"/>
  <path d="M32.25 49.45 c-0.70 -1.05 0.25 -4.95 1.35 -5.50 0.95 -0.50 1 -0.45 0.70 0.60 -0.15 0.65 -0.45 2.05 -0.60 3.10 -0.35 2 -0.90 2.70 -1.45 1.80z"/>
  <path d="M85.50 45.50 c0 -0.80 0.35 -1 1.75 -1 2 0 2.45 1.20 0.65 1.70 -1.90 0.50 -2.40 0.35 -2.40 -0.70z"/>
  <path d="M28.15 45.20 c-0.15 -0.45 -0.05 -1.25 0.25 -1.75 0.40 -0.60 0.40 -1 0.05 -1.25 -0.60 -0.35 -0.55 -0.35 -1.40 1.05 -0.55 0.90 -0.60 0.90 -0.40 -0.35 0.15 -0.95 0 -1.40 -0.45 -1.40 -1.05 0 -0.85 -1.50 0.20 -1.55 2.15 -0.20 5.35 0.20 6.80 0.80 l1.55 0.70 -1.85 0.75 c-1.05 0.45 -2.05 0.80 -2.30 0.80 -0.20 0 -0.40 0.60 -0.35 1.35 0 1.60 -1.55 2.25 -2.10 0.85z"/>
  <path d="M81.65 44.75 c1.80 -1.60 2.35 -1.55 2.35 0 0 1.10 -0.20 1.25 -1.85 1.25 l-1.90 -0.05 1.40 -1.20z"/>
  <path d="M93 45 c0 -0.80 0.35 -1 1.75 -1 1.40 0 1.75 0.20 1.75 1 0 0.80 -0.35 1 -1.75 1 -1.40 0 -1.75 -0.20 -1.75 -1z"/>
 </g>
 <g fill="#6a390e">
  <path d="M63.55 94.15 c-1.45 -1.45 -4.10 -4.80 -5.75 -7.35 -0.90 -1.40 -0.90 -1.50 0 -2.15 1.25 -0.90 2.15 -0.80 2.55 0.25 0.55 1.40 3.75 6.10 4.20 6.10 0.25 0 0.75 -0.60 1.20 -1.35 0.75 -1.35 0.75 -1.35 0.40 -0.15 -0.20 0.70 -0.30 2.30 -0.25 3.65 0 1.30 -0.15 2.35 -0.40 2.35 -0.30 0 -1.15 -0.60 -1.95 -1.35z"/>
  <path d="M49.85 88.85 c-0.65 -1.45 -1.35 -3.55 -1.55 -4.60 l-0.30 -2 1.20 1.45 c0.65 0.80 1.55 2.75 2 4.30 0.95 3.30 0.95 3.50 0.35 3.50 -0.25 0 -1 -1.20 -1.70 -2.65z"/>
  <path d="M42.10 83.40 c-0.80 -0.80 -0.75 -1.40 0.15 -1.40 0.40 0 0.75 0.45 0.75 1 0 1.15 -0.10 1.20 -0.90 0.40z"/>
  <path d="M53.35 79.40 c-1.30 -2.55 -2.50 -5.45 -2.65 -6.40 l-0.30 -1.75 1.20 1.25 c0.70 0.70 2.05 3.45 3.05 6.10 2 5.35 2.05 5.40 1.45 5.40 -0.20 0 -1.45 -2.10 -2.75 -4.60z"/>
  <path d="M69.80 78.90 c-1.60 -1.70 -2.80 -3.50 -2.75 -4.10 0 -1.05 0 -1.05 0.80 0.10 0.90 1.25 1.65 1.45 1.65 0.35 0 -0.90 1.05 -1 1.90 -0.15 0.85 0.85 0.75 1.80 -0.20 2 -0.65 0.10 -0.55 0.45 0.60 1.65 l1.40 1.50 0.30 -1.25 c1.05 -3.95 1.05 -3.90 -0.10 -4.30 -0.65 -0.15 -1.80 -0.80 -2.60 -1.35 -0.85 -0.60 -2.55 -1.20 -3.80 -1.35 -2.10 -0.25 -2.35 -0.20 -2.10 0.60 0.15 0.55 -0.05 0.90 -0.50 0.90 -1.10 0 -2.80 -5.30 -2 -6.10 0.35 -0.35 0.60 -1.45 0.60 -2.45 0 -1.40 0.30 -2.05 1.20 -2.60 0.85 -0.60 1.25 -1.40 1.40 -2.95 0.15 -1.20 0 -2.30 -0.25 -2.45 -0.90 -0.65 1.60 -3.45 3.05 -3.45 0.75 0 1.80 -0.35 2.30 -0.75 0.55 -0.40 1.50 -0.75 2.10 -0.75 0.75 0 1.90 -0.90 3.30 -2.50 2.85 -3.35 8.25 -6.80 11.80 -7.55 2.05 -0.40 2.85 -0.40 3 0 0.25 0.70 3.60 0.75 3.60 0.05 0 -0.80 1.80 -0.55 2.65 0.40 0.40 0.45 0.95 1.45 1.10 2.20 l0.35 1.40 -5.40 -0.10 c-5.10 -0.10 -5.70 0 -9.30 1.55 -2.10 0.90 -4.80 2.45 -6 3.50 -1.20 1.05 -2.85 2 -3.70 2.20 -0.85 0.15 -2.45 0.90 -3.60 1.65 -2.65 1.75 -3.30 3.60 -3 8.75 0.40 6.50 3 9.35 8.05 8.75 1.30 -0.15 2.35 -0.10 2.35 0.05 0 0.35 -1.70 4.25 -2.55 5.75 -0.25 0.50 -0.45 1.20 -0.45 1.55 0 0.65 -1.55 2.35 -2.10 2.35 -0.20 0 -1.55 -1.40 -3.10 -3.10z"/>
  <path d="M44.05 79.40 c-0.80 -2.60 -1.65 -9.35 -1.25 -9.95 0.20 -0.40 0.55 -0.15 1 0.60 0.65 1.20 0.65 1.15 0.70 -0.55 0 -0.95 -0.25 -2.55 -0.50 -3.50 -0.45 -1.60 -0.40 -1.85 0.75 -2.85 0.75 -0.65 1.60 -1.15 2 -1.15 0.95 0 2.25 1.95 1.90 2.90 -0.20 0.50 -0.05 0.65 0.40 0.50 1.45 -0.50 1.10 -2.40 -0.85 -4.15 -1.40 -1.30 -1.70 -1.85 -1.30 -2.35 1 -1.20 2.65 -6.35 2.50 -7.75 -0.15 -1.30 0 -1.40 1.65 -1.55 1.25 -0.10 2.25 -0.65 3.25 -1.70 1.50 -1.55 1.40 -1.60 -0.90 -0.45 -1.10 0.55 -1.65 0.55 -2.90 0.05 -2.05 -0.85 -1.95 -1.90 0.10 -1.75 1.15 0.10 1.90 -0.20 2.50 -0.90 1.25 -1.40 1.10 -1.85 -0.50 -1.85 -1.85 0 -2.60 -0.85 -2.60 -2.85 0 -1.60 0.05 -1.65 2.25 -1.65 2.25 0 2.25 0 2.25 1.75 0 1.60 0.15 1.75 1.45 1.75 1.05 0 1.50 0.30 1.75 1.15 0.55 2.05 0.25 5.60 -0.60 7.35 -0.80 1.60 -1.05 1.75 -3 1.75 -1.55 0 -2.20 0.20 -2.40 0.90 -0.15 0.45 -0.45 0.85 -0.70 0.85 -0.20 0 -0.50 0.70 -0.60 1.50 -0.20 1.35 -0.05 1.55 1.55 2 3.35 0.95 5.05 0.50 5.05 -1.30 0 -0.65 0.15 -1.20 0.40 -1.20 0.35 0 1 -1.75 2.05 -5.85 0.50 -1.80 0.80 -2.15 1.80 -2.15 0.75 0 1.30 -0.35 1.50 -1 0.20 -0.65 0.75 -1 1.65 -1 1.05 0 1.85 0.60 3.50 2.70 2.70 3.50 2.70 4.10 -0.10 4.50 -1.55 0.25 -2.35 0.65 -2.55 1.25 -0.50 1.60 -1.90 2.50 -3.10 2 -0.65 -0.20 -1.15 -0.80 -1.15 -1.25 0 -0.60 -0.30 -0.45 -1.10 0.60 -0.75 0.95 -1.15 2.15 -1.20 3.70 -0.10 3.60 -0.15 4 -0.85 4 -0.35 0 -1.05 0.85 -1.60 1.90 -1.45 2.85 -2.25 3.60 -3.85 3.60 -1 0 -1.55 0.30 -1.90 1.15 -0.30 0.75 -0.45 0.85 -0.45 0.30 -0.05 -0.95 -1.15 -1.50 -1.95 -1 -0.30 0.15 -0.60 1.20 -0.70 2.30 -0.10 1.60 -0.35 2 -1.40 2.25 -1.20 0.30 -1.25 0.40 -1.15 4.15 0.05 2.10 0 3.85 -0.10 3.85 -0.10 0 -0.40 -0.75 -0.70 -1.60z m20.45 -32.90 c0 -1.05 -0.85 -0.40 -1.90 1.45 -1.60 2.80 -1.35 3.55 0.40 1.15 0.85 -1.15 1.50 -2.30 1.50 -2.60z"/>
  <path d="M8.70 78.20 c0.15 -0.30 -0.05 -1.75 -0.45 -3.25 -0.90 -3.25 -0.95 -5.95 -0.20 -5.95 0.40 0 0.40 -0.20 0.10 -0.60 -0.60 -0.80 -1.20 -4.40 -0.75 -4.40 0.20 0 0.90 0.80 1.60 1.80 2 2.80 4.15 4.75 5 4.40 0.40 -0.15 1.95 -0.40 3.35 -0.55 3.45 -0.35 4.05 -1.10 3 -3.55 -1.10 -2.50 -1.85 -7.05 -1.85 -11.20 0 -3.05 0.10 -3.40 1 -3.40 0.55 0 1 0.35 1 0.75 0 0.50 0.50 0.75 1.55 0.75 1.45 0 1.50 0.10 1.35 1.90 -0.15 1.55 -0.35 1.85 -1.45 2 l-1.25 0.15 0.40 3.35 c0.25 1.85 0.80 3.85 1.20 4.45 0.40 0.60 0.70 1.60 0.70 2.15 0 0.95 0.20 1.05 1.60 0.75 1.55 -0.35 3.65 -2.25 2.95 -2.75 -0.20 -0.15 -0.60 -1.70 -1 -3.50 -0.35 -1.80 -0.95 -3.90 -1.35 -4.70 -0.45 -1 -0.70 -3.15 -0.70 -6.75 0 -6.35 0.55 -8.80 2.15 -9.25 2 -0.55 3.35 -0.30 4.45 0.70 l1.10 1 -1.15 0 c-0.60 0 -1.05 0.30 -1 0.60 0.20 1.55 -0.10 2.40 -0.80 2.40 -0.85 0 -1 -1.75 -0.20 -2.30 0.55 -0.30 -0.25 -1.15 -1.10 -1.20 -0.80 0 -1.55 3.40 -1.55 6.95 0 3.65 0.15 4.25 1.90 7.40 2.55 4.60 2.65 4.70 3.70 4.15 1.35 -0.70 1.60 0.50 0.40 1.80 -0.50 0.55 -1.45 2.05 -2.05 3.25 -1.40 2.75 -4.35 4.35 -9.30 5 -5.40 0.65 -7.50 1.85 -11.25 6.45 -0.75 0.95 -1.30 1.50 -1.10 1.20z m2.30 -6.40 c0 -0.10 -0.35 -0.45 -0.75 -0.80 -0.60 -0.50 -0.75 -0.50 -0.75 0.20 0 0.45 0.35 0.80 0.75 0.80 0.40 0 0.75 -0.10 0.75 -0.20z"/>
  <path d="M65.85 77.70 c-0.20 -0.20 -0.35 -0.70 -0.35 -1.15 0 -0.55 0.15 -0.60 0.55 -0.20 0.30 0.30 0.50 0.80 0.35 1.15 -0.10 0.30 -0.35 0.40 -0.55 0.20z"/>
  <path d="M53.75 71.55 c0.20 -1.55 0.75 -3.25 1.20 -3.80 0.50 -0.55 1.05 -1.40 1.20 -1.85 0.40 -1.15 1.80 -1.15 3.30 -0.05 1.10 0.75 1.15 0.85 0.30 1.45 -0.50 0.40 -0.75 1 -0.55 1.45 0.15 0.40 0 1.85 -0.30 3.20 l-0.55 2.45 -2.45 -0.05 -2.50 -0.05 0.35 -2.75z"/>
  <path d="M70.80 69.90 c-0.45 -0.60 -0.70 -1.20 -0.60 -1.30 0.35 -0.30 3.30 1.40 3.30 1.90 0 0.95 -1.95 0.50 -2.70 -0.60z"/>
  <path d="M12.10 68.40 c-0.25 -0.35 -0.65 -1.20 -0.85 -1.90 -0.35 -1.25 -0.35 -1.25 1.20 0.20 0.85 0.85 1.55 1.65 1.55 1.90 0 0.65 -1.30 0.45 -1.90 -0.20z"/>
  <path d="M38.25 66.60 c-0.45 -0.50 -0.25 -1.05 0.80 -2 0.90 -0.90 0.95 -1.05 0.25 -1.75 -0.45 -0.45 -0.80 -1 -0.80 -1.25 0 -0.25 -0.55 -1.70 -1.20 -3.15 -1.15 -2.60 -1.15 -2.95 -0.75 -8.45 0.65 -7.75 0.65 -8.55 0.20 -9.90 -0.35 -1 -0.20 -1.10 1.55 -1.10 1.10 0 2.70 0.45 3.60 1 0.90 0.55 2 1 2.50 1 1.60 0 3.05 2.50 1.50 2.50 -0.35 0 -1.35 1.10 -2.25 2.40 -1.65 2.40 -2.75 6.95 -2.25 9.35 0.15 0.85 -0.05 1.35 -0.60 1.55 -1.20 0.45 -1 1.15 0.25 0.85 2.05 -0.55 2.55 2.40 1.10 6.45 -0.65 1.90 -1.05 2.35 -2.25 2.50 -0.75 0.15 -1.50 0.10 -1.65 0z m1.75 -16.45 c0 -0.25 -0.35 -0.85 -0.75 -1.35 -0.75 -1 -0.75 -1 -0.75 0 0 0.60 0.15 1.20 0.35 1.35 0.45 0.45 1.15 0.45 1.15 0z"/>
  <path d="M70.70 61.30 c-0.65 -1.05 -0.70 -1.45 -0.10 -2.60 0.80 -1.70 1.90 -2.15 1.90 -0.80 0 0.60 0.35 1.40 0.80 1.80 1 1 0.45 2.80 -0.80 2.80 -0.55 0 -1.35 -0.55 -1.80 -1.20z"/>
  <path d="M34.50 59.30 c0 -0.70 -0.20 -1.40 -0.50 -1.55 -0.25 -0.15 -0.50 -0.60 -0.50 -0.90 0 -0.35 0.25 -0.20 0.55 0.30 0.30 0.50 1.10 1.10 1.75 1.35 1.60 0.65 1.60 2 -0.05 2 -1 0 -1.25 -0.25 -1.25 -1.20z"/>
  <path d="M9.70 57.95 c-0.15 -0.25 0 -0.45 0.25 -0.45 0.30 0 0.55 -0.50 0.55 -1.15 0 -2.40 2.60 -6.60 6.45 -10.35 2.10 -2.10 4.40 -4.20 5.20 -4.65 l1.35 -0.85 0 1.50 c0 0.80 -0.20 1.50 -0.40 1.50 -0.25 0 -0.90 0.45 -1.50 1 -0.85 0.85 -1.10 1.60 -1.10 3.75 0 2.45 -0.10 2.75 -1.05 2.75 -0.95 0 -1.05 -0.25 -0.90 -2.20 0.20 -1.95 0.10 -2.15 -0.65 -1.75 -0.50 0.25 -1.05 1.10 -1.20 1.85 -0.20 0.75 -0.85 2.05 -1.50 2.85 -0.60 0.85 -1.60 2.55 -2.20 3.80 -1 2.20 -2.65 3.40 -3.30 2.40z"/>
  <path d="M77.90 54.45 c-1.30 -0.70 -1.10 -1.45 0.30 -1.45 0.70 0 1.55 -0.30 1.90 -0.70 1.75 -1.75 7.40 -3.55 7.40 -2.35 0 0.30 0.80 0.55 1.75 0.55 0.95 0 1.75 -0.20 1.75 -0.50 0 -1.40 4.60 0.10 5.50 1.80 0.60 1.05 0.55 1.35 -0.10 2 -0.70 0.70 -1 0.70 -3.20 -0.10 -1.35 -0.45 -4.50 -0.95 -7.05 -1.10 -4.45 -0.20 -4.65 -0.20 -5.80 1.10 -1.35 1.45 -1.30 1.45 -2.45 0.75z"/>
  <path d="M59.90 43.15 c-0.55 -0.15 -0.90 -0.70 -0.90 -1.45 0 -1.70 1.55 -1.55 3.60 0.30 l1.65 1.45 -1.75 0 c-0.95 -0.05 -2.15 -0.15 -2.60 -0.30z"/>
 </g>
 <g fill="#623226">
  <path d="M61.35 90.60 c-0.75 -0.75 -1.35 -1.95 -1.35 -2.65 l0.05 -1.20 1.10 1.30 c3.15 3.75 3.25 3.95 2.20 3.95 -0.35 0 -1.25 -0.65 -2 -1.40z"/>
  <path d="M65.65 83 c-0.05 -3.85 0.05 -7 0.15 -7 0.10 0 0.50 0.75 0.85 1.65 0.50 1.15 0.55 2.95 0.30 6.50 -0.50 7.45 -1.20 6.80 -1.30 -1.15z"/>
  <path d="M55.35 83.35 c-0.15 -0.40 -0.10 -0.95 0.15 -1.30 0.25 -0.45 0.45 -0.35 0.65 0.40 0.30 1.15 -0.40 1.95 -0.80 0.90z"/>
  <path d="M71.15 79.50 c-0.15 -0.55 -0.40 -0.90 -0.60 -0.80 -0.40 0.30 -1.75 -0.80 -1.90 -1.55 -0.10 -0.30 0.30 -0.55 0.85 -0.50 0.50 0.05 0.90 0.20 0.85 0.35 -0.20 0.55 2.05 2.95 2.40 2.60 0.25 -0.20 0.25 -0.05 0.05 0.30 -0.55 0.90 -1.35 0.75 -1.65 -0.40z"/>
  <path d="M73.50 79.40 c0 -0.65 0.35 -1.55 0.70 -2.05 0.40 -0.50 0.60 -1.55 0.45 -2.40 -0.15 -1.10 0 -1.45 0.55 -1.45 0.45 0 0.80 0.35 0.80 0.80 0 0.40 0.25 0.60 0.50 0.45 0.30 -0.15 0.50 -0.10 0.50 0.20 0 0.25 -0.20 0.60 -0.45 0.75 -0.20 0.15 -0.70 1.30 -1.05 2.55 -0.65 2.35 -2 3.10 -2 1.15z"/>
  <path d="M63.60 73.10 c-0.40 -1.20 -0.35 -1.60 0.20 -1.80 0.85 -0.35 1.55 2.05 0.85 2.75 -0.35 0.35 -0.70 0.05 -1.05 -0.95z"/>
  <path d="M18.85 70.25 c0.35 -0.95 1.65 -1.35 1.65 -0.55 0 0.40 -0.45 0.80 -0.95 0.95 -0.65 0.15 -0.90 0.05 -0.70 -0.40z"/>
  <path d="M44.40 67.65 c-0.30 -1.40 0.10 -2.65 0.90 -2.65 0.45 0 0.70 0.55 0.70 1.75 0 1.85 -1.20 2.50 -1.60 0.90z"/>
  <path d="M50.25 67.50 l-1.50 -0.40 1.65 -0.05 c0.85 0 1.60 0.20 1.60 0.45 0 0.30 -0.05 0.45 -0.10 0.45 -0.10 -0.05 -0.80 -0.25 -1.65 -0.45z"/>
  <path d="M56.45 66.40 c-0.30 -0.65 -0.40 -1 -0.20 -0.80 0.20 0.20 0.75 0.15 1.25 -0.10 0.60 -0.30 1.15 -0.25 1.80 0.25 1.10 0.75 0.95 1 -0.90 1.45 -1.10 0.25 -1.50 0.10 -1.95 -0.80z"/>
  <path d="M38.80 66.45 c0.15 -0.25 0.05 -0.45 -0.20 -0.45 -0.30 0 -0.40 -0.45 -0.25 -1 0.30 -1.20 1.40 -1.30 1.85 -0.20 0.50 1.25 0.35 1.55 -0.70 1.85 -0.55 0.15 -0.90 0.05 -0.70 -0.20z"/>
  <path d="M46.50 65.60 c0 -0.55 -0.40 -1.25 -0.85 -1.55 -0.70 -0.40 -0.75 -0.60 -0.20 -1.25 0.75 -0.90 1.80 -1.10 1.25 -0.20 -0.25 0.40 -0.10 0.45 0.60 0.20 0.50 -0.20 0.75 -0.20 0.60 0 -0.20 0.20 -0.20 0.70 0.05 1.15 0.30 0.55 0.10 1.10 -0.50 1.75 -0.95 0.95 -0.95 0.95 -0.95 -0.10z"/>
  <path d="M70.80 61.40 c-0.95 -1.30 -1.05 -2.10 -0.20 -1.60 0.35 0.25 0.45 0 0.30 -0.70 -0.20 -0.65 0 -1.30 0.45 -1.70 0.65 -0.50 0.95 -0.40 1.70 0.55 1 1.20 1.20 2.40 0.65 3.75 -0.45 1.15 -2 1 -2.90 -0.30z"/>
  <path d="M77.30 59.75 c-0.40 -1.60 0.15 -3.85 0.90 -3.60 0.30 0.10 0.60 1.25 0.70 2.50 0.10 1.80 0 2.35 -0.55 2.35 -0.40 0 -0.90 -0.55 -1.05 -1.25z"/>
  <path d="M94 52.15 c0 -1.25 0.05 -1.30 1 -0.40 1.05 0.95 0.90 1.75 -0.30 1.75 -0.45 0 -0.70 -0.50 -0.70 -1.35z"/>
  <path d="M83.10 51.50 c0.20 -1.10 3.90 -1.35 3.90 -0.30 0 0.80 -0.15 0.85 -2.65 1 -1 0.05 -1.35 -0.10 -1.25 -0.70z"/>
  <path d="M59.50 50.50 c0 -2.50 1 -4 2.60 -4 1.30 0 1.35 0.10 0.80 1 -0.35 0.55 -0.80 1 -1.05 1 -0.20 0 -0.25 0.25 -0.10 0.50 0.15 0.30 0.05 0.50 -0.30 0.50 -0.35 0 -0.45 0.15 -0.30 0.30 0.40 0.45 -0.55 2.20 -1.15 2.20 -0.30 0 -0.50 -0.65 -0.50 -1.50z"/>
  <path d="M51.15 47.45 c-0.65 -0.25 -1.15 -0.60 -1.15 -0.80 0 -0.25 0.50 -0.65 1.15 -0.90 1.25 -0.55 1.60 -2.65 0.35 -2.25 -1.45 0.45 -6.50 0.20 -7.10 -0.40 -0.35 -0.35 -1 -0.60 -1.50 -0.60 -0.50 0 -1.60 -0.45 -2.50 -1 -1.75 -1.05 -2.65 -1.30 -2.15 -0.55 0.15 0.25 0.05 0.60 -0.20 0.80 -0.30 0.15 -0.85 -0.35 -1.25 -1.15 -0.40 -0.75 -1.35 -1.70 -2.15 -2.05 -0.75 -0.35 -2.10 -1 -2.95 -1.40 -0.90 -0.40 -2.65 -1.65 -4 -2.75 -1.30 -1.05 -4.20 -2.85 -6.40 -3.95 -4.35 -2.15 -7.20 -4.05 -11.30 -7.50 -2.90 -2.45 -5.75 -7.35 -5.30 -9.10 0.15 -0.55 -0.15 -1.70 -0.60 -2.50 -0.80 -1.35 -0.80 -1.45 0.15 -2.20 0.70 -0.50 1.55 -0.65 3 -0.40 1.10 0.20 2.95 0.30 4.10 0.30 1.55 -0.05 2.40 0.25 3.50 1.15 l1.40 1.25 -4 0.05 c-3.15 0 -3.80 0.15 -3.05 0.55 1.45 0.90 3.65 3.55 4.60 5.55 0.45 1.05 1.30 2 1.85 2.20 0.55 0.15 1.85 1.15 2.85 2.15 3.10 3 5.65 4.85 9 6.55 1.80 0.90 5.15 2.90 7.50 4.45 4.15 2.80 7.50 4.40 7.50 3.60 0 -0.25 -0.35 -0.70 -0.75 -1.05 -0.40 -0.35 -0.75 -0.95 -0.75 -1.30 0 -0.40 -0.25 -0.70 -0.55 -0.70 -0.30 0 -1.20 -0.45 -2 -1.05 -1.05 -0.75 -1.45 -1.45 -1.45 -2.50 l0 -1.50 2.30 1.65 c1.30 0.90 4.10 3.15 6.25 5.05 4.05 3.45 5.60 4 6.75 2.50 0.65 -0.85 0.75 -0.85 1.55 0.15 0.95 1.15 4.55 2.70 6.20 2.70 0.55 0 0.85 0.25 0.70 0.50 -0.15 0.30 0.05 0.50 0.45 0.50 0.40 0 0.90 0.25 1.10 0.55 0.25 0.45 -0.50 0.50 -2.60 0.35 -1.60 -0.15 -3 -0.50 -3.10 -0.80 -0.10 -0.35 -0.70 -0.60 -1.30 -0.60 -1.05 0 -1.10 0.15 -0.80 2.60 0.35 2.65 0.05 3.40 -1.50 4 -0.40 0.15 -1.25 0.10 -1.85 -0.15z m1.85 -6.70 c0 -0.40 -0.35 -0.75 -0.80 -0.75 -0.70 0 -0.70 0.15 -0.20 0.75 0.35 0.40 0.70 0.75 0.80 0.75 0.10 0 0.20 -0.35 0.20 -0.75z"/>
  <path d="M28.65 44.50 c-0.05 -0.55 0.15 -1 0.40 -1 0.30 0 0.35 0.25 0.20 0.50 -0.15 0.30 -0.05 0.50 0.20 0.50 0.30 0 0.55 0.25 0.55 0.50 0 0.95 -1.30 0.50 -1.35 -0.50z"/>
  <path d="M95.25 44.50 c-0.85 -0.35 -0.85 -0.45 -0.10 -0.45 0.50 -0.05 0.85 -0.45 0.85 -1.05 0 -0.55 0.20 -1 0.40 -1 0.55 0 1.60 1.10 1.60 1.70 0 0.25 -0.15 0.30 -0.35 0.15 -0.15 -0.20 -0.55 0 -0.85 0.35 -0.35 0.45 -0.90 0.55 -1.55 0.30z"/>
  <path d="M38 43.05 c0 -0.80 1.40 -1 1.70 -0.25 0.20 0.45 -0.05 0.70 -0.70 0.70 -0.55 0 -1 -0.20 -1 -0.45z"/>
  <path d="M28.85 42.25 c-1.25 -0.90 -1.05 -1.25 0.90 -1.25 1.15 0 1.75 0.25 1.75 0.70 0 0.95 -1.65 1.30 -2.65 0.55z"/>
  <path d="M58.25 37.75 c-1.15 -1.10 -2.55 -2.65 -3.20 -3.50 l-1.10 -1.50 0.30 1.40 c0.15 0.75 0.05 1.35 -0.20 1.35 -0.70 0 -3.40 -4.30 -4.35 -6.95 -0.45 -1.25 -1.25 -3.30 -1.75 -4.50 -0.55 -1.20 -0.95 -2.80 -0.95 -3.55 0 -0.75 -0.35 -2.45 -0.75 -3.80 -0.95 -3.15 -0.95 -5.75 0 -8.05 0.95 -2.25 1.60 -2.75 2.85 -2 0.80 0.50 1.10 0.40 1.85 -0.55 0.70 -0.95 0.95 -1.05 1.35 -0.50 1 1.25 2.70 5.40 2.70 6.50 0 1.45 1.75 9.20 3.10 13.65 0.60 1.95 1.10 4.80 1.20 6.35 0.05 1.55 0.40 3.30 0.70 3.90 0.30 0.55 0.50 1.65 0.40 2.40 l-0.15 1.35 -2 -2z"/>
  <path d="M27.95 26.70 c-4.95 -4.20 -6.95 -6.70 -6.95 -8.60 l0 -1.75 1.15 1.05 c0.65 0.60 1.40 1.10 1.75 1.10 0.30 0 0.80 0.45 1.10 0.95 0.25 0.55 2.35 2.25 4.65 3.75 7.30 4.95 7.85 5.80 3.70 5.80 -2.45 0 -2.90 -0.20 -5.40 -2.30z"/>
 </g>
 <g fill="#734312">
  <path d="M50.60 89.90 c-0.70 -0.70 -0.80 -1.40 -0.15 -1.40 0.25 0 0.55 0.45 0.70 1 0.30 1.15 0.25 1.20 -0.55 0.40z"/>
  <path d="M58.85 87.55 c-1 -1.20 -1.25 -1.85 -0.85 -2.25 0.80 -0.80 2.65 1.30 2.40 2.75 -0.15 1.10 -0.20 1.10 -1.55 -0.50z"/>
  <path d="M49 87.05 c-0.50 -0.95 -0.75 -3.45 -0.25 -3 0.10 0.15 0.55 1.10 1 2.10 0.80 1.90 0.20 2.60 -0.75 0.90z"/>
  <path d="M41.30 82.25 c-0.80 -1.20 -0.75 -1.25 0.15 -1.25 0.50 0 1.10 0.35 1.25 0.80 0.80 2 -0.15 2.35 -1.40 0.45z"/>
  <path d="M70 78.70 c-0.85 -1 -1.45 -1.95 -1.30 -2.10 0.35 -0.30 2.70 1.80 3.35 3.05 0.85 1.50 -0.35 0.95 -2.05 -0.95z"/>
  <path d="M74.75 76 c0.10 -0.55 -0.05 -1.10 -0.30 -1.25 -0.65 -0.40 -0.05 -1.25 0.85 -1.25 0.45 0 0.70 0.55 0.70 1.75 0 1.20 -0.25 1.75 -0.70 1.75 -0.45 0 -0.65 -0.35 -0.55 -1z"/>
  <path d="M9.80 74.25 c-0.15 -0.40 -0.55 -0.70 -0.90 -0.65 -0.75 0.20 -1.65 -5 -1.20 -6.90 0.35 -1.30 0.35 -1.30 2.95 1.45 2.15 2.35 2.80 2.75 3.85 2.55 1.05 -0.25 0.80 0.10 -1.25 2 -2.80 2.50 -3 2.65 -3.45 1.55z"/>
  <path d="M54 72.80 c0 -1.60 1.40 -4.80 2.25 -5.10 0.35 -0.15 0.55 -0.60 0.45 -0.95 -0.35 -0.90 0.60 -1.40 2.10 -1.05 1.30 0.35 1.70 1.80 0.45 1.80 -0.50 0 -0.75 0.50 -0.75 1.40 0 0.75 -0.25 2.20 -0.55 3.25 -0.45 1.70 -0.65 1.85 -2.20 1.85 -1.50 0 -1.75 -0.15 -1.75 -1.20z"/>
  <path d="M45.25 69.75 c0.25 -1.90 0.20 -2.75 -0.20 -2.75 -0.70 0 -0.70 -2.25 -0.05 -3.55 0.65 -1.15 1.20 -1.20 2.25 -0.15 0.50 0.50 0.65 1.15 0.45 1.65 -0.30 0.70 -0.45 2.05 -0.65 6.45 -0.05 0.75 -0.35 1.10 -1.10 1.10 -0.95 0 -1 -0.20 -0.70 -2.75z"/>
  <path d="M67.05 71.65 c-0.75 -0.15 -1 -0.35 -0.60 -0.60 0.45 -0.30 0.35 -0.85 -0.25 -2.35 -0.65 -1.55 -0.75 -2.75 -0.50 -5.70 0.50 -5 0.45 -5.60 -0.25 -6.05 -0.45 -0.25 -0.30 -0.70 0.60 -1.65 0.65 -0.70 1.50 -1.30 1.85 -1.30 0.30 0 1.45 -0.45 2.45 -1 1 -0.55 1.95 -0.85 2.10 -0.65 0.15 0.15 0 0.40 -0.30 0.50 -0.35 0.15 -0.65 0.50 -0.65 0.80 0 0.35 -0.70 1 -1.50 1.45 -1.85 1.05 -3.15 3.85 -3.10 6.70 0.10 3.05 1 6.65 2.10 8.25 1.50 2.05 1.30 2.20 -1.95 1.60z"/>
  <path d="M21.50 68.55 c0 -0.60 -0.30 -1.60 -0.70 -2.20 -1 -1.50 -1.90 -8.55 -1.95 -15.05 l-0.05 -5.45 -1.25 1.50 c-0.70 0.85 -1.90 2.20 -2.65 3.10 -1.65 2 -2.70 2.05 -1.50 0.05 1.90 -3.10 9.20 -10 10.55 -10 0.30 0 0.55 0.60 0.55 1.30 0 0.95 -0.35 1.40 -1.50 1.85 -1.70 0.65 -1.80 0.85 -2.25 5.10 l-0.35 3 1.70 -1.60 c0.95 -0.90 2.20 -1.65 2.80 -1.65 0.90 0 1.10 0.30 1.20 1.65 0.15 3.25 0.25 4.15 0.75 5.35 0.30 0.70 0.70 2.05 0.90 3 0.20 0.95 0.70 2.20 1.05 2.75 0.80 1.15 0.90 1.95 0.20 1.50 -0.25 -0.15 -0.50 -0.10 -0.50 0.15 0 0.30 0.35 0.60 0.75 0.80 1.25 0.45 0.85 2.50 -0.75 4.05 -1.15 1.10 -2.05 1.45 -4.25 1.65 -2.55 0.20 -2.75 0.15 -2.75 -0.85z"/>
  <path d="M50.40 67.65 c-0.80 -0.10 -1.40 -0.40 -1.40 -0.60 0 -0.65 1.20 -1.55 2.10 -1.55 0.50 0 0.90 -0.20 0.90 -0.50 0 -0.25 -0.20 -0.50 -0.45 -0.50 -0.30 0 -0.45 -0.45 -0.40 -1 0.05 -0.55 0.25 -1 0.50 -1 0.25 0 0.35 0.30 0.20 0.70 -0.15 0.40 0.10 1 0.50 1.40 0.70 0.55 0.80 0.55 0.55 -0.15 -0.45 -1.15 0.35 -2.15 1.35 -1.75 0.70 0.25 0.80 0.70 0.55 1.95 -0.25 1.45 -1.95 3.45 -2.75 3.30 -0.15 -0.05 -0.90 -0.20 -1.65 -0.30z"/>
  <path d="M38.85 66.20 c-0.45 -0.45 -0.45 -5.40 0 -5.85 0.15 -0.20 0.60 -0.10 1 0.20 0.50 0.45 0.65 0.30 0.65 -0.70 0 -1.40 0.85 -2.20 1.55 -1.50 0.25 0.25 0.60 1.20 0.75 2.10 0.35 1.55 0.25 1.65 -0.75 1.30 -1.05 -0.30 -1.10 -0.25 -0.55 0.70 0.95 1.85 -1.30 5.05 -2.65 3.75z"/>
  <path d="M71.80 61.20 c-1.05 -1 -0.85 -3.40 0.25 -3.60 0.60 -0.10 0.95 0.35 1.15 1.70 0.45 2.20 -0.20 3.10 -1.40 1.90z"/>
  <path d="M34.80 59.75 c-0.20 -0.60 -0.05 -0.80 0.70 -0.65 1.20 0.15 1.40 1.10 0.35 1.30 -0.40 0.10 -0.85 -0.20 -1.05 -0.65z"/>
  <path d="M47.85 59.15 c-0.30 -0.50 1.15 -5.25 2.35 -7.60 0.85 -1.55 2.85 -2.15 3.55 -1.05 0.20 0.30 0.55 0.40 0.80 0.20 0.65 -0.35 1.95 -3.60 1.95 -4.75 0 -1.10 -0.90 -1.25 -1.30 -0.25 -0.15 0.35 -1 1.05 -1.90 1.55 -1.55 0.85 -1.70 0.85 -3.10 -0.05 l-1.40 -0.95 1.45 -0.15 c2.05 -0.25 2.30 -0.55 2.50 -3.55 0.15 -1.95 0.05 -2.55 -0.55 -2.55 -0.40 0 -0.70 -0.20 -0.70 -0.50 0 -0.25 0.90 -0.50 2 -0.50 1.75 0 2 0.15 2 1.15 0 0.70 0.50 1.45 1.45 2 1.90 1.15 3.05 1.10 3.05 -0.10 0 -0.90 0.15 -0.95 1.45 -0.50 0.80 0.30 1.95 1.10 2.60 1.80 l1.20 1.25 -2.10 -0.20 c-1.80 -0.15 -2.15 -0.05 -2.15 0.70 0 0.65 0.40 0.90 1.25 0.90 1.55 0 1.55 0.25 0.05 2 -0.65 0.80 -1.35 2.30 -1.55 3.30 -0.15 1.05 -0.75 2.75 -1.30 3.80 -0.50 1 -0.95 2.30 -0.95 2.85 0 0.50 -0.35 1.10 -0.80 1.25 -1.15 0.45 -5.25 0.35 -7.05 -0.15 -0.95 -0.30 -1.75 -0.25 -2.05 0.05 -0.25 0.25 -0.60 0.30 -0.75 0.05z m9.50 -4.60 c0.65 -1.60 1.30 -3.60 1.45 -4.50 0.20 -0.85 0.65 -1.55 1 -1.55 0.40 0 0.70 -0.35 0.70 -0.75 0 -0.40 -0.45 -0.75 -1 -0.75 -0.55 0 -1 0.25 -1 0.60 0 0.30 -0.50 1.65 -1.05 2.95 -1.10 2.40 -2.50 3.45 -4.70 3.45 -1.30 0 -2.65 1.80 -1.90 2.50 0.45 0.45 2.15 0.85 4.15 0.90 1.10 0.10 1.40 -0.30 2.35 -2.85z"/>
  <path d="M37.30 57.90 c-1.15 -1.65 -1 -2.75 0.45 -3 1.15 -0.25 1.25 -0.10 1.25 1.65 0 2.30 -0.65 2.85 -1.70 1.35z"/>
  <path d="M39.80 54.25 c-0.50 -0.40 -1.15 -0.60 -1.45 -0.40 -0.30 0.15 -0.35 0.05 -0.15 -0.30 0.20 -0.30 -0.10 -1.15 -0.65 -1.85 -1.20 -1.50 -1.30 -2.55 -0.45 -4.55 0.30 -0.75 0.55 -1.55 0.50 -1.75 -0.05 -0.15 0.55 0 1.35 0.40 2.20 1.10 2.75 2.65 2.25 6.15 -0.40 2.80 -0.50 2.95 -1.40 2.30z"/>
  <path d="M77.75 54.05 c-0.15 -0.25 0.20 -0.65 0.80 -0.80 1.15 -0.40 1.70 -0.05 1.20 0.70 -0.40 0.65 -1.60 0.70 -2 0.10z"/>
  <path d="M92 52.85 c-0.95 -0.25 -3.40 -0.55 -5.35 -0.55 -2.65 -0.05 -3.65 -0.25 -3.65 -0.70 0 -1.20 3.35 -2.15 7 -1.95 2.90 0.15 3.60 0.40 4.45 1.40 1.95 2.30 1.15 2.90 -2.45 1.80z"/>
  <path d="M67.95 51.15 c-0.40 -0.50 -1.35 -1.85 -2.10 -3 -1.25 -1.95 -1.25 -2.15 -0.45 -2.15 1.20 0 3.85 2.90 4.30 4.65 0.40 1.60 -0.60 1.85 -1.75 0.50z"/>
  <path d="M76.45 49.60 c1.25 -2.35 7.05 -6.10 11.15 -7.30 3.35 -0.95 4.70 -1 5.10 -0.15 0.25 0.45 0.35 0.45 0.60 0 0.40 -0.90 2.25 -0.80 3.55 0.10 1.05 0.75 1.05 0.85 0.30 1.70 -0.65 0.80 -1.05 0.85 -2.05 0.50 -2.30 -0.85 -8.35 0.85 -14.60 4.10 -4.30 2.20 -4.75 2.35 -4.05 1.05z"/>
  <path d="M24.50 45.30 c0 -0.90 0.25 -2.35 0.55 -3.25 0.45 -1.35 0.80 -1.55 2.25 -1.55 1.90 0 2.40 1.20 0.70 1.65 -0.65 0.15 -1.15 1 -1.55 2.55 -0.70 2.75 -1.95 3.15 -1.95 0.60z"/>
  <path d="M39.40 45.45 c-1.50 -1.15 -1.85 -2.70 -0.65 -3.15 0.50 -0.15 0.85 0.10 1 0.85 0.25 0.95 0.60 1.10 2.30 1 2.25 -0.10 2.50 0.40 0.70 1.55 -1.55 1 -1.70 1 -3.35 -0.25z"/>
 </g>
 <g fill="#663e34">
  <path d="M60 88.90 c-1.50 -2.05 -1.90 -3.40 -1 -3.40 0.55 0 3.50 4.20 3.50 4.95 0 1.10 -1.05 0.50 -2.50 -1.55z"/>
  <path d="M49.55 88.10 c-0.60 -1.20 -1 -2.45 -0.90 -2.75 0.10 -0.35 0.70 0.35 1.30 1.55 0.60 1.20 1 2.45 0.90 2.75 -0.10 0.35 -0.70 -0.35 -1.30 -1.55z"/>
  <path d="M66.40 85.70 c-0.20 -0.30 -0.35 -2.45 -0.35 -4.75 0 -3.70 0.10 -4.05 0.65 -2.95 0.65 1.30 0.35 8.75 -0.30 7.70z"/>
  <path d="M41.35 82.10 c-0.95 -1.05 -2.65 -6.45 -2.20 -6.95 0.60 -0.60 1.35 0.55 2.55 4.05 1.20 3.35 1.05 4.50 -0.35 2.90z"/>
  <path d="M57.05 80.90 c-0.90 -2.95 -1.20 -5.40 -0.60 -5.40 0.50 0 1.05 1.65 1.80 5.40 0.20 0.95 0.15 1.60 -0.15 1.60 -0.30 0 -0.75 -0.75 -1.05 -1.60z"/>
  <path d="M73.75 79 c0.05 -0.80 0.35 -1.75 0.65 -2.15 0.35 -0.40 0.45 -0.85 0.25 -1 -0.15 -0.20 0.05 -0.35 0.50 -0.35 1 0 1.10 1.05 0.25 3.35 -0.75 2.05 -1.75 2.15 -1.65 0.15z"/>
  <path d="M46.60 78.05 c-0.70 -2.05 -0.80 -3.55 -0.10 -3.55 0.65 0 1.10 2 0.90 3.80 l-0.15 1.45 -0.65 -1.70z"/>
  <path d="M38.80 71.70 c-0.30 -2.35 -0.10 -3.20 0.75 -3.20 0.55 0 0.60 4.85 0 5.20 -0.20 0.15 -0.55 -0.75 -0.75 -2z"/>
  <path d="M58 66.50 c0 -1.15 1.10 -1.35 1.95 -0.35 0.65 0.80 0.25 1.35 -1.05 1.35 -0.55 0 -0.90 -0.35 -0.90 -1z"/>
  <path d="M45.75 64.95 c-0.45 -1.95 0.25 -2.70 1.50 -1.75 0.90 0.65 0.90 0.85 0.30 2 -0.95 1.70 -1.40 1.65 -1.80 -0.25z"/>
  <path d="M71.85 60.55 c-0.85 -1.70 -0.65 -3.05 0.45 -3.05 0.65 0 1.70 1.45 1.70 2.35 0 0.25 -0.30 0.85 -0.65 1.40 -0.65 0.85 -0.75 0.80 -1.50 -0.70z"/>
  <path d="M77.80 61.20 c-0.45 -1.20 -0.35 -5.20 0.15 -5.20 0.95 0 1.50 1.40 1.30 3.30 -0.10 1.05 -0.20 2.10 -0.20 2.35 -0.05 0.65 -0.95 0.35 -1.25 -0.45z"/>
  <path d="M65.90 57.15 c-1.15 -0.30 -1.10 -0.45 0.15 -2.20 1.10 -1.55 2.95 -1.95 2.95 -0.70 0 0.90 -1.45 3.30 -1.95 3.20 -0.15 -0.05 -0.70 -0.15 -1.15 -0.30z"/>
  <path d="M73.75 56.50 c-0.50 -0.55 -0.65 -1 -0.40 -1 0.65 0 1.90 1.45 1.55 1.75 -0.15 0.15 -0.65 -0.20 -1.15 -0.75z"/>
  <path d="M67.10 49.55 c-2.45 -3.80 -2.80 -3.95 -4.60 -2 l-1.50 1.65 0 -1.75 c0 -0.95 0.20 -1.95 0.45 -2.25 0.25 -0.25 0.55 -1.10 0.65 -1.95 l0.15 -1.50 2.25 2.25 c3.45 3.40 5.50 6.05 5.50 7.10 0 1.65 -1.30 0.95 -2.90 -1.55z"/>
  <path d="M32.25 49 c-0.50 -0.80 0.30 -3.90 1.15 -4.60 0.70 -0.60 0.75 -0.40 0.45 1.35 -0.20 1.10 -0.35 2.40 -0.35 2.90 0 0.90 -0.75 1.15 -1.25 0.35z"/>
  <path d="M52.70 46.80 c-0.25 -0.30 -0.35 -1.10 -0.15 -1.80 0.15 -0.70 0.20 -1.75 0.10 -2.35 -0.20 -0.85 -0.05 -1.15 0.55 -1.15 1.45 0 0.85 -0.90 -1.05 -1.55 -1.80 -0.55 -1.80 -0.60 -0.65 -1.20 1 -0.55 1.70 -0.40 5.15 0.95 4.50 1.75 5.50 2.80 2.65 2.80 -1.45 0 -1.80 0.20 -1.80 1 0 1.20 -0.20 1.25 -1.75 0.20 -1.20 -0.80 -1.20 -0.80 -0.95 0.90 0.20 1.25 0.05 1.80 -0.65 2.20 -0.65 0.40 -1.05 0.40 -1.45 0z"/>
  <path d="M95 43 c0 -1.15 1.55 -1.35 2.45 -0.30 0.45 0.55 0.40 0.75 -0.25 1 -1.45 0.55 -2.20 0.30 -2.20 -0.70z"/>
  <path d="M26 42.95 c0 -0.70 -0.40 -0.80 -2.30 -0.55 l-2.35 0.25 1.20 -1.20 c1 -1 1.75 -1.20 4.60 -1.30 3.35 -0.05 6.35 0.55 6.35 1.35 0 0.65 -2.85 1.10 -4.55 0.75 -1.15 -0.25 -1.70 -0.15 -2.20 0.60 -0.60 0.75 -0.70 0.80 -0.75 0.10z"/>
  <path d="M47 39.75 c-1.25 -0.70 -3.10 -1.25 -4.25 -1.30 -1.10 0 -2.70 -0.30 -3.55 -0.60 -1.90 -0.70 -10.65 -6.45 -10.70 -6.95 0 -0.25 0.60 -0.40 1.40 -0.40 l1.35 -0.05 -1.10 -0.85 c-0.60 -0.45 -2.60 -1.95 -4.45 -3.35 -1.85 -1.35 -4.10 -3.20 -4.90 -4 -0.85 -0.85 -2.35 -2.15 -3.30 -2.85 -0.95 -0.70 -2.25 -1.80 -2.85 -2.35 l-1.15 -1.10 0 1.80 c0 1.55 0.15 1.75 1.25 1.75 1 0 1.25 0.25 1.25 1.25 0 1.05 0.25 1.25 1.50 1.25 1.35 0 1.50 0.15 1.50 1.50 0 1.90 -0.65 1.90 -1.95 0.05 -0.55 -0.75 -1.70 -1.70 -2.50 -2 -0.85 -0.40 -1.75 -1.35 -2.25 -2.50 -0.90 -1.90 -4.05 -5.55 -4.80 -5.55 -0.50 0 -3.70 -3 -3.45 -3.15 1.85 -1.15 2.90 -1.40 3.85 -0.90 0.55 0.30 2.35 0.55 4 0.55 l2.90 0 4 4.15 c2.15 2.30 4.70 5.05 5.60 6.15 0.95 1.05 3.05 3.15 4.75 4.60 2.45 2.10 3.40 2.60 4.65 2.50 1.10 -0.05 2.15 0.35 3.45 1.40 1.05 0.80 2.55 1.95 3.35 2.55 0.80 0.60 1.85 1.55 2.25 2.10 0.40 0.60 0.95 0.95 1.20 0.80 0.25 -0.15 0.35 0 0.20 0.35 -0.15 0.35 0.95 1.65 2.50 2.90 1.50 1.25 2.75 2.55 2.75 2.90 0 0.75 0.20 0.80 -2.50 -0.65z"/>
  <path d="M59.05 38.05 c-0.85 -0.85 -2.55 -4.10 -2.55 -4.85 0 -0.10 0.30 -0.15 0.65 -0.10 0.40 0.10 0.60 -0.50 0.65 -1.70 0.05 -2.60 0.55 -2.85 1.10 -0.60 1.95 8.05 2 9.10 0.15 7.25z"/>
  <path d="M51.65 31.45 c-1.55 -1.85 -5.15 -14 -5.15 -17.30 0 -1.55 0.05 -1.55 1.55 -1.15 1.75 0.50 2.95 1.40 2.95 2.10 0 0.30 -0.55 0.15 -1.25 -0.30 -1.25 -0.80 -1.25 -0.80 -1.25 0.85 0 1.90 0.85 3.20 2.25 3.45 1.25 0.20 2.40 2.35 1.70 3.20 -0.25 0.35 -0.95 0.50 -1.45 0.35 -1.25 -0.35 -1.25 -0.50 0.30 4.35 1.30 4.10 1.40 5.70 0.35 4.45z"/>
  <path d="M55.90 23 c-0.20 -0.40 -0.45 -1.65 -0.65 -2.75 l-0.30 -2 0.80 1.50 c0.45 0.80 0.70 2.05 0.60 2.75 -0.10 0.85 -0.25 1 -0.45 0.50z"/>
  <path d="M52.50 13.75 c-0.75 -2.20 -0.90 -7.20 -0.25 -7.25 0.60 -0.05 1.65 4.05 1.70 6.90 0.05 2.55 -0.65 2.75 -1.45 0.35z"/>
 </g>
 <g fill="#aa6113">
  <path d="M41.35 82 c-0.95 -1.40 -1.05 -2 -0.35 -2 0.60 0 1.60 1.90 1.40 2.60 -0.15 0.35 -0.60 0.05 -1.05 -0.60z"/>
  <path d="M39.50 76.40 c0.05 -1.55 0.05 -1.60 0.75 -0.70 0.95 1.25 0.95 2.30 0 2.30 -0.50 0 -0.75 -0.50 -0.75 -1.60z"/>
  <path d="M54.25 73.35 c-0.80 -2.05 2.45 -5.85 3.80 -4.50 0.60 0.60 0.15 2.65 -0.60 2.65 -0.25 0 -0.45 0.45 -0.45 1 0 0.55 -0.20 1 -0.50 1 -0.25 0 -0.50 -0.25 -0.50 -0.60 0 -0.30 -0.30 -0.15 -0.70 0.40 -0.70 0.90 -0.75 0.90 -1.05 0.05z"/>
  <path d="M45.35 72.15 c-0.20 -0.15 -0.35 -0.85 -0.35 -1.50 0 -0.80 0.30 -1.15 1 -1.15 1 0 1.25 0.75 0.70 2.20 -0.35 0.85 -0.80 1 -1.35 0.45z"/>
  <path d="M67.05 70 c-1.05 -1.75 -1.80 -6.95 -1.15 -7.60 0.25 -0.25 0.75 0.90 1.10 2.70 0.35 1.75 0.95 3.75 1.30 4.50 1 1.95 -0.05 2.30 -1.25 0.40z"/>
  <path d="M8.40 68.40 c-0.15 -0.35 -0.15 -0.95 -0.05 -1.30 0.30 -0.80 1.65 0.20 1.65 1.20 0 0.85 -1.30 0.90 -1.60 0.10z"/>
  <path d="M24.85 68.20 c-0.25 -0.25 3.80 -3.70 4.35 -3.70 0.10 0 0.10 0.45 -0.05 1 -0.30 1.05 -3.80 3.20 -4.30 2.70z"/>
  <path d="M44.50 66.80 c0 -0.35 0.35 -1.50 0.80 -2.55 0.70 -1.70 0.85 -1.80 1.50 -1.15 0.55 0.55 0.70 1.25 0.45 2.60 -0.30 1.45 -0.60 1.80 -1.55 1.80 -0.70 0 -1.20 -0.30 -1.20 -0.70z"/>
  <path d="M57.35 67.15 c-0.20 -0.15 -0.35 -0.60 -0.35 -1 0 -1.05 1.85 -0.75 2.15 0.35 0.20 0.70 0 1 -0.60 1 -0.50 0 -1.05 -0.15 -1.20 -0.35z"/>
  <path d="M38.85 64.70 c-0.15 -0.95 -0.15 -2.20 0.05 -2.70 0.35 -0.90 0.40 -0.90 1.60 0 1.20 0.90 1.20 0.95 0.35 2.70 -1.05 2.25 -1.65 2.30 -2 0z"/>
  <path d="M41.35 61.10 c-0.90 -1 -1.15 -2.60 -0.40 -2.60 0.60 0 2.05 2 2.05 2.85 0 0.90 -0.70 0.80 -1.65 -0.25z"/>
  <path d="M71.80 61.05 c-0.90 -1 -1 -1.95 -0.35 -3 0.70 -1.10 2.05 0.20 2.05 2 0 1.80 -0.65 2.15 -1.70 1z"/>
  <path d="M51.75 58.75 c-0.25 -0.10 -1.10 -0.30 -1.85 -0.45 -1.65 -0.35 -1.75 -1.35 -0.60 -4.30 0.65 -1.65 1 -1.95 1.80 -1.70 2.40 0.75 4.40 -1.35 6.05 -6.40 0.20 -0.55 0.70 -0.80 1.35 -0.65 0.55 0.10 1 0 1 -0.30 0 -0.25 -0.65 -0.45 -1.45 -0.45 -2.05 0 -2.35 -0.80 -0.50 -1.20 2.70 -0.50 3.85 -0.35 5.15 0.80 l1.30 1.15 -1.70 2.50 c-0.90 1.40 -1.80 3.20 -2 4 -0.20 0.85 -0.85 2.80 -1.45 4.35 l-1.10 2.90 -2.75 -0.05 c-1.50 0 -2.95 -0.10 -3.25 -0.20z m0.95 -2.55 c1.25 -0.50 0.95 -1.70 -0.40 -1.70 -0.75 0 -1.30 0.35 -1.45 1 -0.25 1.05 0.35 1.25 1.85 0.70z"/>
  <path d="M66.75 55.90 c0.45 -2.05 0.60 -2.20 2.90 -2.60 2.35 -0.45 2.45 0.40 0.15 1.75 -0.95 0.55 -1.85 1.30 -2 1.70 -0.55 1.50 -1.40 0.80 -1.05 -0.85z"/>
  <path d="M19 54.10 c0 -1.75 1.85 -3.60 3.60 -3.60 1.30 0 1.30 -0.10 1.50 -3.75 0.15 -3.30 0.05 -3.75 -0.70 -3.75 -0.50 0 -0.90 0.35 -0.90 0.75 0 0.40 -0.20 0.75 -0.50 0.75 -0.25 0 -0.50 0.55 -0.50 1.20 0 2.70 -0.60 4.30 -1.60 4.30 -0.90 0 -1 -0.20 -0.70 -2.25 0.40 -2.55 0.15 -2.70 -1.65 -1.10 -0.80 0.75 -0.65 0.40 0.50 -1.05 1.60 -2.05 5.50 -5.10 6.45 -5.10 0.25 0 0.55 0.40 0.65 0.90 0.20 0.65 0.25 0.55 0.30 -0.25 0.05 -0.95 0.35 -1.15 1.80 -1.15 1.40 0 1.75 0.20 1.75 1 0 0.65 -0.25 0.90 -0.75 0.70 -1 -0.40 -2.25 2.60 -2.25 5.50 0 2.05 -0.20 2.45 -2.80 4.90 -3.80 3.60 -4.20 3.80 -4.20 2z"/>
  <path d="M38.60 52 c-1.30 -1.50 -1.65 -2.30 -1.50 -3.60 0.15 -1.85 1 -2.05 1.40 -0.30 0.20 0.80 0.40 0.95 0.70 0.50 0.20 -0.30 0.85 -0.60 1.40 -0.60 0.95 0 1 0.20 0.70 2.30 -0.15 1.30 -0.30 2.65 -0.30 3 0 1.10 -0.65 0.75 -2.40 -1.30z"/>
  <path d="M94.25 53.25 c-0.25 -0.05 -1.80 -0.55 -3.40 -1 -1.60 -0.45 -3.25 -1.20 -3.70 -1.70 -0.80 -0.75 -0.65 -0.80 1.80 -0.95 2.20 -0.15 3 0.10 4.60 1.15 2.30 1.50 2.75 3.15 0.70 2.50z"/>
  <path d="M78 48.60 c0 -0.70 3.35 -3.25 5.50 -4.25 6.10 -2.85 13 -3.65 13 -1.60 0 0.85 -1.15 1.25 -3.60 1.25 -2.10 0 -8.45 2 -11.10 3.50 -2.05 1.20 -3.80 1.70 -3.80 1.10z"/>
  <path d="M50.65 47.25 c-0.85 -0.70 -0.85 -0.70 0.15 -0.75 0.60 0 1.40 -0.50 1.80 -1.10 0.70 -1.05 0.80 -1.05 1.55 -0.30 0.75 0.70 0.75 0.85 -0.05 1.50 -1.35 1.20 -2.45 1.40 -3.45 0.65z"/>
 </g>
 <g fill="#96513d">
  <path d="M60.10 89 c-0.35 -0.70 -0.95 -1.75 -1.40 -2.35 -0.70 -1 -0.70 -1.15 -0.05 -1.15 1.05 0 2.45 2.35 2.20 3.65 -0.15 1.10 -0.20 1.10 -0.75 -0.15z"/>
  <path d="M50.05 88.95 c-0.05 -0.20 -0.40 -1.15 -0.80 -2.15 -0.40 -1 -0.65 -1.80 -0.50 -1.80 0.45 0 1.80 3.10 1.55 3.65 -0.10 0.35 -0.25 0.45 -0.25 0.30z"/>
  <path d="M41.30 81.75 c-1.20 -1.20 -2.10 -4.65 -1.40 -5.35 0.40 -0.40 0.65 -0.40 0.85 0.15 0.45 1.15 1.60 5.95 1.45 5.95 -0.05 0 -0.50 -0.35 -0.90 -0.75z"/>
  <path d="M46.55 77.45 c-0.70 -1.95 -0.70 -2.85 -0.10 -2.15 0.50 0.50 1.25 3.70 0.90 3.70 -0.15 0 -0.50 -0.70 -0.80 -1.55z"/>
  <path d="M56 73 c0 -0.25 -0.35 -0.50 -0.75 -0.50 -1.05 0 -0.95 -1.45 0.15 -1.85 0.45 -0.20 1.15 -0.65 1.50 -1 0.80 -0.75 1.60 -0.85 1.60 -0.15 0 0.80 -1.65 4 -2.10 4 -0.20 0 -0.40 -0.20 -0.40 -0.50z"/>
  <path d="M45.30 72.10 c-0.20 -0.30 -0.50 -1.70 -0.65 -3.10 -0.25 -2 -0.10 -2.70 0.60 -3.50 0.45 -0.50 0.75 -1.30 0.60 -1.70 -0.40 -1 0.15 -1.40 1 -0.75 0.70 0.60 0.90 2.45 0.25 2.45 -0.20 0 -0.35 1.25 -0.35 2.80 0.05 2.80 -0.75 4.90 -1.45 3.80z"/>
  <path d="M57.35 66.50 c-0.25 -0.90 -0.10 -1.05 1.05 -0.90 1.60 0.20 1.85 1.60 0.30 1.80 -0.75 0.10 -1.15 -0.15 -1.35 -0.90z"/>
  <path d="M39 65.50 c0 -0.55 0.35 -1 0.75 -1 0.85 0 0.90 0.10 0.45 1.20 -0.45 1.15 -1.20 1 -1.20 -0.20z"/>
  <path d="M41.85 61.45 c-0.45 -0.30 -0.85 -0.70 -0.85 -0.95 0 -0.80 1.50 -0.55 1.85 0.25 0.40 1.05 0.05 1.25 -1 0.70z"/>
  <path d="M72.15 61.05 c-0.15 -0.55 -0.50 -0.90 -0.80 -0.70 -0.45 0.30 -0.10 -2.30 0.45 -2.80 0.50 -0.50 1.70 1.25 1.70 2.50 0 1.70 -0.95 2.45 -1.35 1z"/>
  <path d="M77.75 59.95 c-0.40 -1.70 0.05 -2.55 0.75 -1.45 0.60 0.95 0.65 3 0.05 3 -0.25 0 -0.60 -0.70 -0.80 -1.55z"/>
  <path d="M66.95 55.10 c0.30 -1 0.70 -1.35 1.60 -1.40 0.65 0 1.50 -0.15 1.85 -0.40 0.35 -0.20 0.60 -0.10 0.60 0.30 0 0.35 -1 1.15 -2.20 1.75 l-2.20 1.10 0.35 -1.35z"/>
  <path d="M93.35 52.70 c-1.05 -0.40 -2.40 -0.75 -3 -0.85 -0.60 -0.05 -1.40 -0.30 -1.80 -0.55 -0.55 -0.35 -0.45 -0.55 0.45 -1.05 1.45 -0.75 4.30 -0.20 5.65 1.15 1.45 1.50 0.90 2.05 -1.30 1.30z"/>
  <path d="M66.50 48.65 c-1.20 -1.60 -2.25 -3 -2.35 -3.15 -0.15 -0.15 -0.45 0.15 -0.70 0.65 -0.50 0.80 -0.60 0.80 -2 -0.40 -1 -0.80 -2.15 -1.25 -3.20 -1.25 -1.20 0 -1.90 -0.30 -2.25 -1 -0.75 -1.40 -1.55 -0.80 -1.20 0.90 0.30 1.55 -0.70 2.80 -2.05 2.50 -0.70 -0.15 -0.65 -0.35 0.20 -2.05 0.50 -1 0.75 -2 0.50 -2.15 -0.70 -0.40 -0.50 -1.20 0.30 -1.20 0.40 0 0.60 -0.30 0.45 -0.70 -0.20 -0.55 0.10 -0.70 1.40 -0.60 3.60 0.35 6.05 1.40 8.55 3.70 2.30 2.15 5.35 6.25 5.35 7.20 0 1.05 -1.05 0.15 -3 -2.45z"/>
  <path d="M32.35 48.90 c-0.35 -1 0.65 -4.40 1.25 -4.40 0.45 0 0.15 2.25 -0.60 4.20 -0.30 0.80 -0.40 0.85 -0.65 0.20z"/>
  <path d="M88 43.60 c0 -0.25 0.55 -0.75 1.25 -1.10 2.20 -1.20 8.55 -0.70 8.10 0.65 -0.20 0.70 -9.35 1.10 -9.35 0.45z"/>
  <path d="M26.55 42.70 c-0.05 -0.40 -0.85 -0.50 -2.40 -0.35 l-2.40 0.25 1.20 -1.15 c0.90 -0.85 1.95 -1.20 4.15 -1.35 2.85 -0.20 5.90 0.55 5.90 1.45 0 0.70 -2.85 0.80 -4.85 0.20 -0.80 -0.25 -1.10 -0.10 -1.30 0.60 -0.15 0.50 -0.25 0.65 -0.30 0.35z"/>
  <path d="M38.20 36.75 c-0.80 -0.30 -2.70 -1.40 -4.20 -2.35 -1.50 -1 -4.65 -2.70 -7 -3.90 -4.30 -2.15 -6.35 -3.65 -10.30 -7.40 -1.25 -1.15 -2.55 -2.10 -2.90 -2.10 -0.40 0 -0.95 -0.75 -1.35 -1.60 -0.35 -0.90 -1.05 -2.25 -1.55 -3 -1.45 -2.10 -1.20 -2.90 1 -2.90 1.35 0 2.30 0.40 3.60 1.55 0.95 0.85 2.55 2.10 3.50 2.85 0.95 0.70 2.45 2 3.30 2.85 0.80 0.80 3.05 2.65 4.90 4 1.85 1.40 4.75 3.55 6.40 4.90 3.10 2.40 3.40 2.50 5.15 2.40 0.60 -0.05 1.60 0.50 2.25 1.25 l1.25 1.35 -1.85 -1.10 c-2.45 -1.45 -3 -0.50 -0.90 1.70 1.80 1.85 1.20 2.55 -1.30 1.50z"/>
  <path d="M51.15 30.25 c-1.75 -3.15 -4.65 -13.20 -4.65 -16.10 0 -2.10 1.15 -1 1.75 1.65 0.30 1.35 0.85 2.95 1.15 3.55 0.35 0.60 0.60 1.75 0.60 2.55 0 0.80 0.45 2.90 1 4.65 1.10 3.40 1.15 5.55 0.15 3.70z"/>
 </g>
 <g fill="#af6a11">
  <path d="M40 78.75 c-0.40 -1.25 -0.45 -2 -0.10 -2.35 0.35 -0.35 0.70 0.10 1.10 1.35 0.40 1.25 0.45 2 0.10 2.35 -0.35 0.35 -0.70 -0.10 -1.10 -1.35z"/>
  <path d="M45.35 71.80 c-0.20 -0.50 -0.35 -2.10 -0.35 -3.60 0 -2 0.20 -2.80 0.80 -3.05 0.40 -0.15 0.65 -0.60 0.50 -1 -0.20 -0.45 -0.05 -0.65 0.30 -0.50 0.35 0.10 0.55 0.55 0.45 0.90 -0.10 0.40 -0.15 1.95 -0.10 3.45 0.10 3 -0.95 5.50 -1.60 3.80z"/>
  <path d="M54.50 71.90 c0 -1 0.60 -1.60 2.20 -2.30 1.70 -0.75 1.85 -0.65 1.45 0.85 -0.40 1.55 -3.65 2.80 -3.65 1.45z"/>
  <path d="M66.75 68.85 c-0.40 -1 -0.75 -2.80 -0.70 -3.95 0.05 -2 0.10 -1.95 1 1.60 1 4.10 0.90 5.15 -0.30 2.35z"/>
  <path d="M57.50 66.45 c0 -1.05 0.05 -1.10 1.20 -0.65 1.10 0.40 1 1.05 -0.20 1.35 -0.75 0.20 -1 0 -1 -0.70z"/>
  <path d="M39 64.55 c0 -1.75 1.30 -3.10 1.80 -1.80 0.40 0.95 -0.55 3.25 -1.30 3.25 -0.25 0 -0.50 -0.65 -0.50 -1.45z"/>
  <path d="M41 60.55 c-0.65 -1.30 -0.65 -1.55 0.25 -1.55 0.60 0 1.75 1.40 1.75 2.20 0 0.70 -1.50 0.20 -2 -0.65z"/>
  <path d="M71.80 60.40 c-0.45 -1.80 -0.35 -2.40 0.40 -2.40 0.65 0 1.30 1.40 1.30 2.90 0 1.05 -1.35 0.65 -1.70 -0.50z"/>
  <path d="M78.05 59.65 c0 -1.25 0.05 -1.30 0.45 -0.40 0.60 1.35 0.60 1.75 0 1.75 -0.25 0 -0.50 -0.60 -0.45 -1.35z"/>
  <path d="M49.55 57.95 c-1.20 -0.50 -1.20 -1.10 -0.05 -4.25 0.40 -1 0.75 -1.25 1.60 -1.05 0.60 0.15 1.85 -0.05 2.80 -0.40 l1.70 -0.75 -0.20 1.50 c-0.25 1.80 0.70 2.95 1.80 2.05 0.95 -0.80 1.35 0 1 1.90 -0.35 1.65 -1.10 1.90 -2.80 1 -0.70 -0.40 -1.15 -0.40 -1.55 0 -0.65 0.65 -2.65 0.65 -4.30 0z"/>
  <path d="M68.25 54.90 c0.40 -1 2.75 -2 2.75 -1.15 0 0.35 -0.40 0.75 -0.85 0.95 -0.50 0.15 -1.20 0.45 -1.55 0.60 -0.35 0.15 -0.50 0 -0.35 -0.40z"/>
  <path d="M19.35 54.15 c-0.50 -0.50 -0.40 -4.65 0.15 -6.60 0.30 -1.20 0.30 -1.95 -0.05 -2.35 -0.70 -0.85 1.05 -2.55 4.15 -4.05 1.70 -0.80 2.70 -1 4.80 -0.80 1.40 0.15 2.60 0.50 2.60 0.75 0 0.25 -0.60 0.35 -1.35 0.20 -0.80 -0.15 -1.65 -0.15 -1.95 0.10 -1 0.70 -2.20 4.05 -2.20 6.25 0 2.10 -0.20 2.40 -2.70 4.55 -2.90 2.45 -2.95 2.50 -3.45 1.95z"/>
  <path d="M91.15 52.10 c-3 -1 -3.85 -1.60 -2.10 -1.60 0.65 0 1.65 -0.15 2.25 -0.30 0.60 -0.15 1.35 0.05 1.85 0.50 0.40 0.45 1 0.80 1.25 0.80 0.30 0 0.60 0.35 0.80 0.75 0.35 0.95 -0.65 0.90 -4.05 -0.15z"/>
  <path d="M40.15 51 c0.25 -1.50 0.60 -1.60 0.75 -0.25 0.05 0.70 -0.15 1.25 -0.40 1.25 -0.25 0 -0.45 -0.45 -0.35 -1z"/>
  <path d="M66.25 48 c-0.50 -0.55 -0.80 -1.10 -0.65 -1.25 0.15 -0.15 0.65 0.20 1.15 0.75 0.50 0.55 0.80 1.10 0.65 1.25 -0.15 0.15 -0.65 -0.20 -1.15 -0.75z"/>
  <path d="M52.60 45.75 c1.35 -2.05 1.90 -2.20 1.90 -0.50 0 0.70 -0.40 1.45 -0.95 1.75 -1.80 0.90 -2.05 0.50 -0.95 -1.25z"/>
  <path d="M80.70 46.20 c0.80 -0.70 1.70 -1.15 2.10 -1 0.35 0.15 0.90 -0.05 1.20 -0.45 1.70 -2.05 13.50 -3.30 12.25 -1.30 -0.10 0.25 -1.55 0.45 -3.15 0.45 -2.65 0.05 -9.60 2.05 -10.80 3.20 -0.30 0.20 -1.05 0.40 -1.75 0.40 l-1.30 -0.05 1.45 -1.25z"/>
  <path d="M61.35 45.70 c-0.95 -0.80 -1.15 -1.20 -0.65 -1.20 0.50 0 0.65 -0.30 0.50 -0.75 -0.40 -1.05 0.45 -0.95 1.50 0.20 0.55 0.60 0.70 1.25 0.45 1.95 -0.40 1 -0.40 1 -1.80 -0.20z"/>
  <path d="M59.25 43.60 c-0.50 -0.35 -1 -2.60 -0.55 -2.60 0.50 0 1.80 1.60 1.80 2.30 0 0.75 -0.45 0.90 -1.25 0.30z"/>
 </g>
</svg>