<?xml version="1.0" encoding="utf-8"?>
<!DOCTYPE svg PUBLIC "-//W3C//DTD SVG 1.0//EN" "http://www.w3.org/TR/2001/REC-SVG-20010904/DTD/svg10.dtd">
<svg version="1.0" xmlns="http://www.w3.org/2000/svg" width="100px" height="100px" viewBox="0 0 100 100" preserveAspectRatio="xMidYMid meet">
 <g fill="#000000">
  <path d="M50 85.50 c0 -0.90 0.30 -1.65 0.75 -1.85 1.15 -0.40 1.40 0.05 1 1.80 -0.45 2.05 -1.75 2.05 -1.75 0.05z"/>
  <path d="M39.65 84.70 c-0.20 -0.50 0.05 -1.10 0.50 -1.45 0.50 -0.35 0.85 -0.85 0.85 -1.20 0 -0.85 2.50 -0.65 2.80 0.20 0.20 0.40 0.15 1.30 0 2 -0.25 1.05 -0.60 1.25 -2.10 1.25 -1.15 0 -1.85 -0.30 -2.05 -0.80z"/>
  <path d="M51.55 80.15 c0.20 -1.35 0.40 -2.80 0.40 -3.25 0.05 -0.55 0.45 -0.90 1.05 -0.90 1.20 0 1.25 0.25 0.15 3.75 -1.10 3.50 -2.15 3.75 -1.60 0.40z"/>
  <path d="M21.50 67.50 l0 -2.50 1.70 0 c1.90 0 2.30 0.60 2.30 3.30 0 1.65 -0.05 1.70 -2 1.70 l-2 0 0 -2.50z"/>
  <path d="M54.50 66.95 c0 -2.55 0.80 -3.45 3 -3.45 1.95 0 2 0.05 2 1.75 0 0.95 -0.20 1.75 -0.50 1.75 -0.25 0 -0.50 0.35 -0.50 0.75 0 0.55 -0.55 0.75 -2 0.75 -1.90 0 -2 -0.10 -2 -1.55z"/>
  <path d="M63 57 c0 -1.95 0.05 -2 1.75 -2 1.70 0 1.75 0.05 1.75 2 0 1.95 -0.05 2 -1.75 2 -1.70 0 -1.75 -0.05 -1.75 -2z"/>
  <path d="M26 57 c-0.40 -0.25 -1.25 -0.50 -1.90 -0.50 -1.05 0 -1.15 -0.20 -1 -1.85 0.15 -1.90 0.20 -1.90 2.50 -2.05 1.45 -0.10 2.95 0.15 3.85 0.65 1.30 0.65 1.55 1.10 1.55 2.50 0 1.70 -0.05 1.75 -2.10 1.75 -1.20 0 -2.50 -0.25 -2.90 -0.50z"/>
  <path d="M48.10 48.50 c0.10 -1.40 0 -2 -0.45 -2 -0.40 0 -0.65 -0.65 -0.65 -1.75 l0 -1.75 3 0 3 0 0 1.75 c0 0.95 -0.20 1.75 -0.50 1.75 -0.25 0 -0.50 0.90 -0.50 2 l0 2 -2.05 0 -2.05 0 0.20 -2z"/>
  <path d="M64.05 47.65 c-0.30 -1.05 -0.55 -2.65 -0.55 -3.50 0 -1.55 0.10 -1.65 1.65 -1.65 1.55 0 1.70 0.15 2.25 2.25 0.35 1.25 0.60 2.80 0.60 3.50 0 1.10 -0.20 1.25 -1.75 1.25 -1.55 0 -1.75 -0.15 -2.20 -1.85z"/>
 </g>
 <g fill="#291f10">
  <path d="M33.60 89.90 c-0.65 -2.15 -0.75 -3.35 -0.75 -8.50 0 -2.45 -0.15 -4.40 -0.35 -4.40 -0.20 0 -1 0.80 -1.70 1.75 -1.10 1.45 -1.65 1.75 -3.20 1.75 -1 0 -2.10 -0.20 -2.35 -0.40 -0.65 -0.45 -1.85 -3.15 -1.55 -3.45 0.10 -0.10 1.50 -0.35 3.05 -0.50 2.10 -0.25 2.95 -0.15 3.25 0.40 0.25 0.35 0.65 0.50 0.85 0.25 0.20 -0.25 0.10 -0.55 -0.20 -0.65 -0.40 -0.15 -0.65 -1.15 -0.65 -2.65 0 -2.60 0.40 -3 3.05 -3 1.45 0 1.45 0 1.40 2.75 -0.15 4.10 0.30 3.80 1.05 -0.60 0.85 -5.15 0.70 -8.20 -0.50 -9 -0.55 -0.40 -1 -1.45 -1.15 -2.55 -0.10 -1 -0.20 -0.15 -0.25 1.95 -0.05 2.10 -0.35 4.50 -0.65 5.40 -0.45 1.35 -0.80 1.55 -2.30 1.55 l-1.75 0 0.25 -3.35 c0.15 -1.90 0.45 -4 0.60 -4.75 0.30 -1.05 0.05 -1.60 -1 -2.65 -1.20 -1.25 -1.50 -1.35 -4.15 -1 -1.55 0.20 -2.90 0.55 -3 0.80 -0.10 0.25 -0.85 0.45 -1.65 0.45 -1.25 0 -1.40 -0.15 -1.05 -0.85 0.30 -0.50 0.65 -1.85 0.85 -3.05 0.20 -1.35 0.65 -2.25 1.15 -2.40 0.50 -0.15 1.25 -0.45 1.70 -0.70 0.45 -0.25 2.20 -0.50 3.90 -0.55 2.60 -0.10 3 -0.20 2.75 -0.95 -0.20 -0.65 0.85 -2.05 3.50 -4.75 l3.75 -3.85 0 1.80 c0 1.65 -0.10 1.80 -1.50 1.80 -1.35 0 -1.50 0.15 -1.50 1.45 0 0.80 -0.35 1.85 -0.80 2.25 -0.95 0.95 -0.50 1.80 0.95 1.80 1.60 0 4.75 3.60 5.45 6.25 0.50 1.85 0.80 2.25 1.80 2.25 1.15 0 1.15 0.10 1.10 4.15 0 2.25 0.10 5.15 0.30 6.50 0.35 2.35 0.35 2.35 2.20 2.35 2.05 0 2.50 0.55 2.50 3.05 0 0.95 -0.25 1.45 -0.75 1.45 -0.55 0 -0.75 0.60 -0.75 2.35 0 2.85 -2 6.15 -3.70 6.10 -2 -0.05 -2.70 -0.60 -2.25 -1.80 0.45 -1.20 1.20 -1.50 1.70 -0.65 0.15 0.30 0.60 0.50 0.90 0.50 0.40 -0.05 0.35 -0.25 -0.15 -0.65 -0.55 -0.45 -0.75 -1.85 -0.85 -5.85 -0.05 -5.50 -0.95 -9.25 -2.20 -9.25 -0.40 0 -0.85 0.90 -1.05 2.25 -0.25 1.25 -0.85 4.60 -1.40 7.50 -0.95 5.30 -1.65 12.50 -1.20 12.50 0.15 0 0.80 -0.60 1.45 -1.35 l1.20 -1.40 0.05 1.90 c0 1.85 -0.05 1.85 -1.95 1.85 -1.80 0 -2 -0.15 -2.45 -1.60z m-4.85 -34.70 c-1.40 -1.05 -3.25 -1.40 -3.90 -0.75 -0.40 0.40 -0.25 0.55 0.70 0.55 0.65 0 1.55 0.25 1.95 0.50 0.40 0.25 1.10 0.50 1.50 0.50 0.55 -0.05 0.50 -0.20 -0.25 -0.80z"/>
  <path d="M49.50 87 c0 -0.85 0.45 -2.50 1 -3.60 0.55 -1.15 1 -2.85 1 -3.80 0 -1.40 0.10 -1.55 0.70 -1 0.75 0.80 0.40 4.05 -0.80 7.60 -0.85 2.50 -1.90 2.95 -1.90 0.80z"/>
  <path d="M58.10 79.30 c0.75 -2.30 2 -2.45 1.80 -0.15 -0.10 1.20 -0.40 1.65 -1.25 1.75 -1 0.15 -1.05 0.05 -0.55 -1.60z"/>
  <path d="M90 76.80 c0 -2.60 0.60 -4.30 1.55 -4.30 1.10 0 1.15 0.30 0.40 3.30 -0.60 2.35 -1.95 3.05 -1.95 1z"/>
  <path d="M52.50 74.55 c0.25 -0.55 0.35 -1.35 0.20 -1.75 -0.25 -0.65 0.05 -0.80 1.50 -0.80 1.70 0 1.80 0.05 1.80 1.75 0 1.70 -0.05 1.75 -2 1.75 -1.85 0 -2 -0.10 -1.50 -0.95z"/>
  <path d="M85 72.95 c-1.20 -0.80 -2.50 -1.45 -2.85 -1.45 -0.35 0 -0.65 -0.20 -0.65 -0.45 0 -0.25 -0.65 -0.55 -1.50 -0.70 -1.35 -0.30 -1.50 -0.55 -1.50 -2.10 0 -1.70 0.05 -1.75 1.95 -1.75 2.80 0 3.55 0.40 3.55 1.95 0 1.05 0.40 1.55 1.75 2.20 1.45 0.70 1.75 1.10 1.75 2.35 0 0.80 -0.05 1.50 -0.10 1.45 -0.10 0 -1.15 -0.70 -2.40 -1.50z"/>
  <path d="M21.50 71.45 c0 -0.55 -0.35 -1.35 -0.75 -1.75 -0.50 -0.50 -0.75 -1.75 -0.75 -3.60 0.05 -3.45 1.15 -5.10 3.40 -5.10 1.30 0 1.55 0.20 1.75 1.65 0.75 4.35 0.95 6.50 0.65 8.10 -0.35 1.65 -0.45 1.75 -2.30 1.75 -1.70 0 -2 -0.15 -2 -1.05z m2.50 -3.30 c0 -0.25 -0.25 -0.75 -0.50 -1.15 -0.40 -0.60 -0.50 -0.55 -0.50 0.40 0 0.60 0.25 1.10 0.50 1.10 0.30 0 0.50 -0.15 0.50 -0.35z"/>
  <path d="M59.70 68.50 c0.35 -1.90 -1 -2.15 -1.50 -0.25 -0.25 1.05 -0.60 1.25 -2 1.25 l-1.70 0 0 -2.50 c0 -1.95 -0.20 -2.65 -1 -3.10 -1.40 -0.90 -1.45 -4.90 -0.05 -4.90 0.60 0 1.05 -0.45 1.25 -1.25 0.25 -1.05 0.60 -1.25 2.05 -1.25 l1.75 0 -0.05 3.10 c-0.05 1.90 0.15 3.20 0.50 3.30 0.30 0.10 0.55 0.60 0.55 1.15 0 0.70 0.35 0.95 1.30 0.95 1.25 0 1.30 0.10 1 1.90 -0.15 1 -0.30 2.15 -0.30 2.50 0 0.30 -0.50 0.60 -1.05 0.60 -0.95 0 -1.05 -0.20 -0.75 -1.50z m-2.40 -2.20 c0.80 -0.85 0.90 -1.30 0.20 -1.30 -0.25 0 -0.70 0.45 -1 1 -0.60 1.15 -0.25 1.30 0.80 0.30z"/>
  <path d="M88 66.95 c0 -0.85 0.30 -2.25 0.70 -3.10 0.40 -0.90 0.80 -2.15 0.95 -2.80 0.35 -1.40 -0.65 -6.05 -1.25 -6.05 -0.20 0 -0.40 -0.80 -0.40 -1.75 0 -5.15 3.70 2.55 4.70 9.85 0.50 3.30 -0.70 5.40 -3.05 5.40 -1.50 0 -1.65 -0.15 -1.65 -1.55z"/>
  <path d="M66 60.70 c-0.70 -0.35 -2 -0.70 -2.85 -0.70 -1.50 0 -1.65 -0.15 -1.65 -1.60 0 -0.85 0.70 -2.75 1.50 -4.25 1.75 -3.10 1.80 -3.45 0.50 -7.35 -1.25 -3.75 -1.30 -6.70 -0.10 -7.15 0.45 -0.20 1.15 -0.75 1.50 -1.25 0.35 -0.50 1.10 -0.90 1.65 -0.90 0.50 0 0.95 -0.35 0.95 -0.75 0 -0.40 0.75 -1.10 1.65 -1.55 0.85 -0.45 3.40 -1.95 5.65 -3.25 2.25 -1.35 4.45 -2.45 4.90 -2.45 0.45 0 0.80 -0.20 0.80 -0.45 0 -0.25 0.40 -0.60 0.95 -0.80 1 -0.30 4.75 -3.15 9.15 -6.90 3.25 -2.80 5.40 -6.45 5.40 -9.30 0 -1.80 -0.10 -1.95 -1.75 -2.25 -3.95 -0.75 -10.85 1.50 -12.50 4.05 -0.45 0.65 -1.20 1.15 -1.70 1.15 -0.55 0 -1.50 0.60 -2.15 1.35 -0.60 0.80 -2.15 2.20 -3.40 3.15 -1.25 0.95 -3.05 2.55 -4 3.50 -0.95 1 -2.65 2.35 -3.75 3 -1.10 0.65 -2.40 1.75 -2.90 2.35 -0.50 0.65 -1.20 1.15 -1.55 1.15 -0.35 0 -1.25 0.65 -2 1.45 -1.35 1.45 -1.90 1.55 -8.40 2.40 l-2.40 0.30 0 -1.85 c0 -1.15 0.25 -1.95 0.75 -2.10 0.40 -0.20 1.25 -1.90 1.80 -3.90 0.60 -1.95 1.25 -3.75 1.45 -4.05 0.20 -0.25 0.65 -2.05 1 -3.90 0.45 -2.55 0.50 -3.55 0.05 -4 -0.30 -0.30 -0.55 -1.60 -0.55 -2.85 0 -2.35 -1.15 -4 -2.75 -4 -0.45 0 -0.90 -0.35 -1.05 -0.75 -0.25 -0.60 -0.75 -0.70 -2 -0.45 -1.45 0.25 -1.65 0.15 -1.55 -0.70 0.10 -1.40 2.95 -1.95 4.45 -0.85 0.65 0.40 1.60 0.75 2.25 0.75 1.45 0 2.65 1.80 2.65 4 0 0.95 0.35 2.40 0.75 3.20 0.75 1.45 0.75 1.70 -0.45 8.30 -0.10 0.70 -0.80 2.90 -1.50 4.90 -1.45 4.15 -1.65 5.50 -0.65 4.75 0.30 -0.30 1.20 -0.65 2 -0.85 1.60 -0.40 8.85 -5.50 12.55 -8.80 4.65 -4.25 11.40 -9.50 13.45 -10.55 3 -1.55 10.35 -2.55 13.55 -1.85 3.25 0.70 3.65 1.10 2.85 2.60 -0.45 0.75 -0.55 1.90 -0.35 3 0.30 1.45 0.15 2.10 -0.65 3.15 -0.60 0.70 -1.05 1.70 -1.05 2.15 0 0.50 -0.85 1.60 -1.85 2.45 -1.05 0.85 -2.35 2 -2.90 2.50 -2.15 2.05 -5.95 4.65 -8.65 6 -1.55 0.75 -3.95 2.10 -5.35 2.95 -1.35 0.85 -3.60 2.25 -5 3.05 -1.35 0.80 -2.90 1.90 -3.40 2.40 -0.80 0.80 -0.85 0.90 -0.15 1.05 0.55 0.15 0.80 0.80 0.85 2.25 0.05 1.15 0.15 1.70 0.30 1.20 0.20 -0.70 0.65 -0.85 2.05 -0.75 l1.85 0.15 0.40 4.15 c0.20 2.25 0.20 5.05 0 6.25 -0.40 2.10 -0.45 2.10 -2.80 2.25 -1.65 0.10 -2.35 0.35 -2.35 0.90 0 0.35 0.45 0.70 1 0.70 0.80 0 1 0.35 1 1.55 0 2.40 -0.80 3.45 -2.65 3.40 -0.90 -0.05 -2.15 -0.35 -2.85 -0.75z"/>
  <path d="M50.05 54.80 c-0.30 -1.25 -0.55 -2.70 -0.55 -3.25 0 -0.75 -0.45 -1.05 -2 -1.30 -1.75 -0.30 -2 -0.50 -1.95 -1.65 0 -1.95 0.75 -6.05 1.10 -6.40 0.15 -0.20 2.45 -0.05 5.10 0.30 4.60 0.65 4.80 0.75 5.75 2.35 1.80 3.10 1.05 5.35 -2.35 7.10 -0.95 0.50 -1.15 1 -1.15 2.80 0 2.20 0 2.25 -1.70 2.25 -1.55 0 -1.70 -0.15 -2.25 -2.20z"/>
  <path d="M85.30 49.70 c-0.15 -0.45 -0.30 -1.45 -0.30 -2.30 0 -1.35 0.10 -1.45 0.80 -0.85 0.70 0.60 2.20 3.05 2.20 3.70 0 0.65 -2.40 0.15 -2.70 -0.55z"/>
  <path d="M80.50 47.75 c0 -1.65 0.10 -1.75 1.75 -1.75 1.65 0 1.75 0.10 1.75 1.75 0 1.65 -0.10 1.75 -1.75 1.75 -1.65 0 -1.75 -0.10 -1.75 -1.75z"/>
  <path d="M2.30 42.75 c0.45 -0.70 1.15 -1.25 1.50 -1.25 0.40 0 0.70 0.50 0.70 1.25 0 1.05 -0.25 1.25 -1.50 1.25 -1.50 0 -1.50 0 -0.70 -1.25z"/>
  <path d="M74 41 c0 -1.05 0.50 -1.20 2.40 -0.70 1.80 0.50 1.35 1.70 -0.65 1.70 -1.40 0 -1.75 -0.20 -1.75 -1z"/>
  <path d="M37.90 40.90 c0.35 -0.35 0.60 -1.15 0.60 -1.85 0.05 -1.25 1 -3.05 1.70 -3.05 0.15 0 0.30 1.25 0.30 2.75 l0 2.75 -1.60 0 c-1.25 0 -1.45 -0.15 -1 -0.60z"/>
 </g>
 <g fill="#332814">
  <path d="M34 94.60 c0 -0.50 0.25 -1.15 0.60 -1.50 0.35 -0.35 0.40 -0.60 0.10 -0.60 -1 0 -1.80 -4.90 -1.50 -8.90 0.15 -2.10 0.15 -4.60 -0.10 -5.55 l-0.35 -1.70 -2.40 2.85 c-1.35 1.55 -2.85 2.80 -3.30 2.80 -1.10 0 -2.55 -1.55 -2.55 -2.65 0 -0.45 -0.45 -1.55 -1 -2.45 -0.55 -0.90 -1.25 -2.45 -1.50 -3.45 -0.30 -1.05 -1.05 -2.20 -1.80 -2.65 -1.85 -1.25 -2.25 -2.85 -1.85 -7.60 0.30 -3.90 0.45 -4.40 2.05 -6.20 1.85 -2.15 2.85 -2.60 2.35 -1.05 -0.25 0.80 -0.10 0.90 0.75 0.70 0.55 -0.15 1.15 -0.45 1.30 -0.70 0.15 -0.25 0.85 -0.45 1.60 -0.45 1.05 0 1.20 0.10 0.60 0.50 -0.60 0.40 -0.50 0.50 0.40 0.50 1.80 0 3.10 0.90 3.90 2.65 l0.75 1.60 -0.30 -2 c-0.15 -1.10 -0.75 -2.40 -1.35 -2.85 -1 -0.90 -0.95 -0.90 0.65 -0.60 1.25 0.25 1.55 0.20 1.20 -0.20 -0.30 -0.30 -1.55 -0.70 -2.75 -0.80 -1.25 -0.15 -2.80 -0.40 -3.45 -0.60 -0.85 -0.25 -1.40 -0.10 -1.85 0.50 -0.35 0.50 -0.90 0.75 -1.20 0.55 -0.35 -0.20 -1.25 0.25 -2.10 1.05 l-1.50 1.45 0.35 -1.85 c0.35 -1.80 0.30 -1.85 -1.65 -2.40 -1.10 -0.25 -2.65 -0.85 -3.45 -1.25 -0.75 -0.40 -2.70 -0.75 -4.30 -0.75 -2.50 0 -2.90 -0.10 -2.75 -0.85 0.30 -1.40 6.35 -1.15 9.80 0.35 1.40 0.60 2.60 1.30 2.60 1.55 0 0.25 0.55 0.45 1.25 0.45 0.70 0 1.25 -0.20 1.25 -0.45 0 -0.95 -4.05 -3.40 -7.50 -4.60 -3.65 -1.20 -4.65 -2.45 -2 -2.45 2.45 0 1.70 -0.75 -1.40 -1.40 -3.20 -0.65 -5.25 -0.75 -6.95 -0.30 -2.20 0.60 -1.10 1.20 2.10 1.20 2.45 0 3.25 0.15 3.25 0.70 0 0.35 -0.50 0.80 -1.15 1 -1.70 0.45 -7.75 0.35 -8.05 -0.15 -0.45 -0.65 2.30 -4.45 3.40 -4.75 2.90 -0.80 9.35 0.30 12.35 2.05 1.85 1.10 1.85 1.65 -0.05 1.65 -0.80 0 -1.50 0.25 -1.50 0.50 0 0.30 0.55 0.50 1.20 0.50 1.75 0 2.80 0.50 2.80 1.30 0 0.40 0.35 0.70 0.75 0.70 0.40 0 0.75 -0.45 0.75 -1.05 0 -0.90 0.10 -0.95 0.95 -0.35 0.50 0.35 1.75 1.65 2.80 2.90 1.40 1.65 2.25 2.25 3.35 2.30 0.80 0.05 1.70 0.30 2 0.65 1.20 1.15 1.55 0.50 0.40 -0.70 l-1.20 -1.25 2.35 -2.35 2.35 -2.35 0 1.85 c0 1.50 -0.20 1.85 -1 1.85 -1.90 0 -1.05 1.40 1 1.75 1.20 0.20 2.30 0.75 2.75 1.40 0.60 0.85 1.15 1.05 2.95 0.90 2.75 -0.15 3.30 0.65 3.30 4.90 0 2.70 0.10 3.05 1 3.05 0.85 0 1 0.35 1 2 0 1.65 -0.20 2 -0.95 2 -1.10 0 -1.55 0.95 -1.55 3.10 0 2 -1.35 1.70 -2.25 -0.45 -0.60 -1.40 -0.60 -1.75 0.05 -2.40 0.70 -0.65 0.70 -0.75 0 -0.75 -0.80 0 -0.55 -1.45 0.35 -2.05 0.25 -0.20 0.35 -0.65 0.25 -1 -0.15 -0.45 -0.55 -0.05 -1.10 1 -0.70 1.30 -1 1.55 -1.35 1 -0.30 -0.50 -0.45 -0.10 -0.45 1.15 0 1 0.20 1.95 0.45 2.10 0.25 0.20 0.25 1.05 0 2.15 -0.85 3.60 -2.90 15.90 -3.05 18.35 -0.10 1.50 0.05 2.55 0.40 2.65 0.55 0.20 3.05 -3.30 4.25 -5.95 0.55 -1.25 0.65 -1.30 1.75 -0.55 1.15 0.75 1.20 0.70 2 -1.10 0.85 -2.10 0.55 -3.10 -0.35 -1.05 -1 2.15 -1.45 1.50 -1.40 -1.95 0.05 -3.60 0.70 -4.55 2.70 -4.05 0.95 0.25 1.15 0.15 0.95 -0.45 -0.40 -0.95 -1.20 -0.95 -2.55 0 -0.95 0.65 -1.05 0.65 -1.35 -0.40 -0.55 -2.10 -0.35 -2.35 1.60 -2.35 1.85 0 1.90 -0.05 1.70 -1.50 -0.10 -0.80 -0.05 -2.05 0.10 -2.75 0.30 -1.20 0.50 -1.25 4.05 -1.25 3.45 0 3.75 0.10 3.75 1.05 0 0.55 -0.20 0.85 -0.50 0.70 -0.95 -0.60 -1.90 0.75 -1.90 2.55 0 1.65 -2.15 6.60 -4.75 10.80 -0.60 1 -1.65 2.75 -2.30 3.85 -1.20 2 -2.05 2.60 -2.05 1.50 0 -0.30 -0.35 -0.20 -0.75 0.25 -0.85 0.85 -0.95 1.65 -0.25 1.90 0.25 0.10 -0.55 1.45 -1.85 3.05 -2.30 2.85 -4.15 3.70 -4.15 1.95z m-6 -16.35 c0.50 -0.60 0.50 -0.75 -0.20 -0.75 -0.45 0 -0.80 0.35 -0.80 0.75 0 0.40 0.10 0.75 0.20 0.75 0.10 0 0.45 -0.35 0.80 -0.75z m5 -5.85 c0 -0.90 -1.30 0.25 -1.35 1.15 -0.10 1.05 -0.05 1.05 0.60 0.15 0.40 -0.55 0.75 -1.10 0.75 -1.30z m2.65 -2.10 c0.50 -1.30 -0.25 -6.25 -0.95 -6.50 -0.50 -0.20 -0.70 0.15 -0.70 1.10 0 0.75 -0.35 2.25 -0.70 3.35 -0.65 1.80 -0.65 2.05 0.10 2.35 1.35 0.55 1.95 0.45 2.25 -0.30z m-11.40 -2.15 c-0.20 -0.80 -0.45 -2 -0.50 -2.80 -0.10 -1.75 -0.55 -2.15 -1.50 -1.35 -1.10 0.90 -0.95 3.30 0.35 4.50 1.50 1.40 2.10 1.25 1.65 -0.35z m7.70 -3.90 l-0.05 -1.50 -0.65 1.50 c-0.40 0.85 -0.70 2.20 -0.70 3 l0.05 1.50 0.65 -1.50 c0.40 -0.80 0.70 -2.15 0.70 -3z m5.70 -3.10 c0.15 -0.70 0 -2 -0.30 -2.80 -0.50 -1.55 -3.75 -5.35 -4.55 -5.35 -0.20 0 0.30 0.70 1.15 1.60 0.85 0.85 1.50 2.05 1.50 2.60 -0.05 4.25 1.55 7.20 2.20 3.95z m-8.65 -0.20 c0 -0.30 -0.30 -0.80 -0.65 -1.20 -0.55 -0.55 -0.75 -0.50 -1.25 0.25 -0.45 0.70 -0.40 1 0.05 1.15 1.05 0.45 1.85 0.35 1.85 -0.20z"/>
  <path d="M47.90 91.40 c-0.45 -1.25 2.65 -9.40 3.55 -9.40 0.20 0 0.35 -1.30 0.25 -2.85 -0.05 -1.70 0.15 -3.40 0.55 -4.15 0.40 -0.75 0.55 -1.80 0.40 -2.40 -0.20 -0.85 0 -1.05 1.40 -1.20 1.60 -0.15 2.75 -1.40 1.25 -1.40 -1 0 -1.50 -2 -1.10 -4.20 0.25 -1.40 0.15 -1.70 -0.70 -1.95 -0.85 -0.20 -1 0 -1 1.20 0 1.30 -0.15 1.45 -1.75 1.45 -1.95 0 -2 -0.15 -1.45 -4.20 0.25 -1.80 0.55 -2.30 1.25 -2.30 1.15 0 1.15 0.30 -0.05 -3 -0.55 -1.50 -1 -3.45 -1 -4.35 0 -1.45 -0.15 -1.65 -1.85 -1.95 -1.05 -0.20 -2.20 -0.55 -2.50 -0.85 -0.95 -0.70 -0.85 -3.85 0.10 -3.85 0.50 0 0.75 -0.50 0.75 -1.70 0 -2.20 0.60 -2.40 5.80 -2 3.05 0.25 4.20 0.55 4.20 1 0 0.40 0.30 0.70 0.65 0.70 0.95 0 2.35 2.65 2.35 4.45 0 0.90 -0.35 1.70 -0.85 2 -0.75 0.45 -0.70 0.50 0.50 0.55 1.25 0 1.35 0.15 1.35 2.15 0 1.20 -0.35 3.30 -0.75 4.65 -0.45 1.55 -0.65 3.30 -0.45 4.85 0.30 2.05 0.50 2.35 1.50 2.35 0.60 0 1.25 0.15 1.40 0.40 0.10 0.20 0 3.05 -0.30 6.35 -0.55 6.65 -1.85 10.75 -3.40 10.75 -0.85 0 -0.80 -0.40 0.60 -4.35 1.15 -3.40 1.45 -4.90 1.25 -6.85 -0.10 -1.40 -0.05 -3.05 0.20 -3.60 0.30 -0.90 0.20 -1.05 -0.50 -0.85 -0.65 0.15 -1.15 1.30 -1.85 4.05 -0.50 2.10 -0.85 4.05 -0.80 4.30 0.10 0.25 0 1.10 -0.15 1.85 -0.40 1.80 -1.75 1.95 -1.75 0.20 0 -0.70 -0.15 -1.25 -0.40 -1.25 -0.45 0 -2.10 4.50 -2.10 5.70 0 1.25 -1.20 4.80 -1.60 4.80 -0.25 0 -0.40 0.45 -0.40 1 0 1.40 -1.35 4.50 -1.95 4.50 -0.25 0 -0.55 -0.30 -0.65 -0.60z m10.10 -26.35 c0 -0.30 -0.20 -0.55 -0.50 -0.55 -0.60 0 -1.50 1.65 -1.50 2.80 0 0.65 0.20 0.55 1 -0.45 0.55 -0.70 1 -1.50 1 -1.80z m-1.20 -2.85 c-0.15 -0.45 -0.35 -1.40 -0.35 -2.10 -0.05 -0.85 -0.15 -1.05 -0.30 -0.45 -0.10 0.45 -0.65 0.85 -1.20 0.85 -1.20 0 -1.25 0.90 -0.05 1.80 1.20 0.95 2.30 0.90 1.90 -0.10z m-1.10 -8.50 c0.65 -1.65 0.20 -2.10 -1.10 -1.30 -0.35 0.25 -0.50 0.80 -0.30 1.25 0.40 1.05 1 1.10 1.40 0.05z m0.15 -4.85 l1.05 -0.95 -1 -1.65 c-0.70 -1.30 -1.30 -1.70 -2.30 -1.70 -0.75 0.05 -2.30 -0.20 -3.45 -0.45 -1.60 -0.35 -2.15 -0.30 -2.35 0.20 -0.25 0.70 0.75 1.20 2.50 1.20 1.55 0 1.55 0.75 -0.05 1.80 -1.65 1.10 -1.60 1.70 0.25 1.70 1.70 0 1.65 0 1 1.70 l-0.45 1.25 1.85 -1.05 c1 -0.60 2.35 -1.50 2.95 -2.05z"/>
  <path d="M54.20 83.20 c0.15 -0.45 0.30 -1.55 0.30 -2.50 0 -1.35 0.20 -1.70 1 -1.70 0.55 0 1 0.10 1 0.20 0 0.50 -2.10 4.80 -2.35 4.80 -0.15 0 -0.10 -0.35 0.05 -0.80z"/>
  <path d="M88.60 76 c-1.50 -1.65 -3.30 -3.30 -4 -3.70 -1.55 -0.75 -6.60 -2.05 -7.35 -1.85 -0.25 0.05 -1.40 -0.15 -2.60 -0.50 -2.25 -0.60 -4.90 -3.05 -7.40 -6.90 -0.95 -1.40 -1.75 -2.05 -2.55 -2.05 -0.60 0 -1.45 -0.15 -1.85 -0.30 -0.50 -0.20 -0.80 0.25 -1.05 1.50 -0.25 1.20 -0.60 1.80 -1.15 1.80 -0.65 0 -0.75 -0.45 -0.50 -2.70 0.15 -1.45 0.75 -3.60 1.30 -4.70 0.65 -1.30 1.05 -3 1.05 -4.55 0 -1.35 0.20 -3.05 0.50 -3.80 0.40 -1 0.35 -1.35 -0.25 -1.55 -0.55 -0.25 -0.75 -1.15 -0.75 -3.60 0 -2.90 0.15 -3.45 1.35 -4.70 0.75 -0.75 1.50 -1.40 1.75 -1.40 0.55 0 5.45 -3 6.65 -4.05 0.55 -0.50 3.05 -1.95 5.50 -3.30 7.80 -4.15 14.35 -9.50 16.10 -13.10 0.60 -1.25 1.10 -3.25 1.15 -4.45 l0 -2.20 -3.35 0.35 c-3.55 0.35 -8.15 1.65 -8.15 2.35 0 0.20 -0.55 0.40 -1.25 0.40 -0.90 0 -1.25 0.25 -1.25 1 0 1.15 -1.40 2 -3.20 2 -1.05 0 -1.30 0.25 -1.30 1.30 0 0.95 -0.90 2.15 -3.35 4.55 -1.90 1.75 -4 3.50 -4.75 3.90 -0.75 0.40 -1.55 1.05 -1.75 1.40 -0.20 0.30 -1.40 1.25 -2.65 2.10 -1.25 0.80 -3 2.10 -3.90 2.85 -0.95 0.85 -2.25 1.40 -3.10 1.40 -0.80 0 -1.75 0.35 -2.20 0.75 -0.40 0.40 -1 0.75 -1.30 0.75 -0.30 0 -1.40 0.55 -2.40 1.25 -1.05 0.70 -2.55 1.25 -3.45 1.25 -1.40 0 -1.65 0.20 -1.65 1.20 0 1.60 -2.50 3.15 -5.90 3.60 -2.90 0.35 -3.40 1.40 -1.60 3.20 0.60 0.60 1 1.65 1 2.75 0 1.65 -0.10 1.75 -1.70 1.75 -1.95 0 -2.30 -0.40 -2.80 -3.10 -0.35 -1.85 -0.25 -2.10 2.05 -4.60 1.35 -1.50 2.45 -3.15 2.45 -3.65 0 -1.25 1.95 -2.15 4.50 -2.15 1.60 0 2 -0.20 2 -0.90 0 -1.05 1.60 -4.35 2.80 -5.65 2.10 -2.30 4.80 -12.65 4.70 -17.90 -0.05 -3.10 -2.55 -6 -5.10 -6.05 -1.45 0 -1.65 -0.30 -1 -1.35 0.75 -1.20 2.85 -1.25 4.25 -0.15 0.75 0.60 1.70 0.95 2.10 0.80 0.45 -0.15 0.75 0 0.75 0.40 0 0.40 0.35 0.80 0.75 1 0.55 0.20 0.75 1 0.75 2.75 0 1.35 0.25 2.65 0.50 2.80 1 0.60 0.25 8.20 -1 11 -0.30 0.55 -0.90 2.40 -1.45 4.15 -0.55 1.75 -1.40 3.50 -1.90 3.95 -0.85 0.70 -0.85 0.70 0.10 0.40 0.55 -0.15 2.05 -0.45 3.35 -0.60 1.70 -0.20 2.70 -0.70 3.70 -1.70 0.75 -0.80 1.65 -1.45 2 -1.45 0.35 0 1.05 -0.50 1.55 -1.15 0.50 -0.60 1.80 -1.70 2.90 -2.35 1.10 -0.65 2.80 -2 3.75 -3 0.95 -0.95 2.75 -2.55 4 -3.50 1.20 -0.95 2.90 -2.50 3.70 -3.40 0.80 -0.90 1.75 -1.55 2.10 -1.40 0.40 0.15 1.05 -0.25 1.45 -0.85 2.15 -3.30 10.95 -5.30 16.40 -3.80 1.55 0.40 1.85 0.70 1.55 1.35 -0.20 0.45 -0.50 2.10 -0.70 3.60 -0.45 3.80 -2.05 6.50 -5.70 9.60 -4.85 4.15 -7.20 5.75 -12.55 8.75 -2.75 1.55 -6.20 3.45 -7.60 4.25 -1.45 0.80 -2.65 1.80 -2.65 2.20 0 0.40 -0.40 0.70 -0.95 0.70 -0.50 0 -1.25 0.40 -1.60 0.85 -0.65 0.75 -0.60 0.80 0.30 0.40 3.60 -1.55 10.05 -0.40 13.70 2.50 1.20 0.95 2.45 1.75 2.80 1.75 1.65 0 7.65 9.55 8.05 12.85 0.10 0.60 0.40 1.55 0.65 2.10 0.70 1.25 0.70 2.20 0.05 1.80 -0.25 -0.15 -0.60 0.35 -0.75 1.10 -0.20 0.75 -0.55 1.80 -0.80 2.30 -0.90 1.60 -0.10 1.50 0.85 -0.10 0.50 -0.80 1.05 -1.40 1.30 -1.25 0.60 0.35 0.50 3.20 -0.10 3.20 -0.25 0 -0.50 0.30 -0.50 0.70 0 0.40 -0.30 0.85 -0.60 0.95 -0.35 0.15 -0.15 0.30 0.50 0.30 1.15 0.05 1.35 0.80 0.80 2.95 -0.45 1.60 -1.70 1.40 -1.70 -0.25 l0 -1.40 -3.35 0.20 c-1.90 0.15 -2.90 0.30 -2.25 0.45 0.70 0.10 1.10 0.50 1.10 1.15 0 0.65 0.35 0.95 1.15 0.95 1.65 0 3.40 2.05 3.70 4.45 0.15 1.15 0.20 2.05 0.10 2.05 -0.10 0 -1.40 -1.35 -2.85 -3z m-6.60 -7.50 c-0.40 -0.25 -1.10 -0.50 -1.50 -0.50 -0.65 0 -0.65 0.05 0 0.50 0.40 0.25 1.10 0.50 1.50 0.50 0.65 0 0.65 -0.05 0 -0.50z m-4.50 -0.95 c0 -1.40 0.95 -1.95 4.40 -2.35 2.75 -0.30 3.25 -0.20 3.85 0.60 0.75 0.95 0.75 0.95 1.50 -0.05 0.40 -0.55 0.95 -1.25 1.20 -1.55 0.25 -0.35 0.55 -1.90 0.60 -3.50 0.10 -3.25 -0.85 -6 -3.20 -9.70 -1.40 -2.20 -1.45 -2.20 -1.10 -0.65 0.20 0.90 0.05 3.30 -0.30 5.40 l-0.60 3.75 -1.95 0 -2 0 0.10 -4.35 c0.10 -2.45 0.10 -5.90 0.10 -7.75 -0.10 -3.05 -0.20 -3.40 -1.10 -3.40 -0.55 0 -1 -0.20 -1 -0.45 0 -0.25 -0.55 -0.60 -1.25 -0.75 -0.70 -0.20 -1.25 -0.55 -1.25 -0.80 0 -0.30 -0.30 -0.50 -0.70 -0.50 -0.55 0 -0.55 0.50 -0.20 2.65 0.30 1.40 0.40 4.40 0.25 6.60 -0.20 3.25 -0.55 4.55 -1.90 7 -0.85 1.65 -1.90 3.40 -2.30 3.85 -0.55 0.60 -0.60 1.05 -0.20 1.85 0.30 0.55 0.55 1.65 0.55 2.50 0 1.45 0.15 1.55 1.75 1.55 0.95 0 1.75 0.25 1.75 0.50 0 0.30 0.70 0.50 1.50 0.50 1.15 0 1.50 -0.25 1.50 -0.95z m-7.95 -8.65 c0.45 -0.95 0.45 -1.05 -0.10 -0.50 -1 0.95 -1.45 0.75 -1.45 -0.70 0 -1.10 -0.10 -1.25 -0.75 -0.70 -1.05 0.90 -0.95 1.65 0.40 2.30 0.60 0.35 1.15 0.60 1.20 0.65 0.05 0 0.40 -0.45 0.70 -1.05z m-5.25 -0.80 c0.85 -0.50 3.30 -5.60 2.75 -5.60 -0.55 0 -2.05 2 -3.25 4.40 -0.80 1.55 -0.65 1.95 0.50 1.20z m8.85 -6.85 c0.50 -3 -0.25 -3.70 -0.95 -0.95 -0.35 1.35 -0.50 2.60 -0.35 2.85 0.45 0.70 1 -0.15 1.30 -1.90z m-4.50 -1.65 c0.95 -1 0.90 -3.20 -0.10 -5 -0.35 -0.60 -0.45 -1.35 -0.30 -1.60 0.15 -0.30 -0.15 -0.50 -0.70 -0.50 -0.55 0 -1.35 -0.35 -1.80 -0.80 -0.55 -0.60 -0.95 -0.70 -1.35 -0.30 -0.35 0.35 -0.15 1.65 0.60 4.20 0.60 2 1.20 3.95 1.30 4.30 0.25 0.90 1.40 0.75 2.35 -0.30z"/>
  <path d="M66.80 49.45 c-0.80 -2.75 -1.30 -4.95 -1.30 -5.70 0 -0.85 0.05 -0.85 1 0 1.15 1.05 1.90 5.05 1.10 5.85 -0.40 0.40 -0.65 0.35 -0.80 -0.15z"/>
  <path d="M8 52.50 c0 -0.85 0.35 -1 2 -1 2.15 0 2.60 0.65 1.05 1.50 -1.65 0.85 -3.05 0.60 -3.05 -0.50z"/>
  <path d="M3.50 51.55 c0 -0.50 0.95 -1.30 2.15 -1.70 0.65 -0.25 0.85 -0.05 0.85 0.90 0 1.05 -0.25 1.25 -1.50 1.25 -0.80 0 -1.50 -0.20 -1.50 -0.45z"/>
 </g>
 <g fill="#383718">
  <path d="M33.90 95.20 c-0.15 -0.15 -0.20 -1.10 -0.05 -2.15 0.15 -1 0 -2.70 -0.25 -3.70 -0.40 -1.45 -0.40 -1.85 0.15 -1.85 0.40 0 0.75 0.65 0.85 1.60 0.10 0.85 0.40 1.65 0.65 1.70 0.50 0.15 3.85 -4.70 4.45 -6.45 0.15 -0.50 0.50 -0.80 0.70 -0.65 0.25 0.15 1.05 0.50 1.80 0.75 l1.30 0.55 -1.45 2.35 c-0.85 1.35 -2.65 3.70 -4.05 5.30 -2.40 2.65 -3.40 3.30 -4.10 2.55z"/>
  <path d="M48 90.75 c0 -1.65 1.80 -6.35 3.05 -7.95 0.55 -0.70 0.95 -1.70 0.90 -2.15 -0.15 -1.90 0.10 -2.65 0.85 -2.65 0.60 0 0.70 0.25 0.45 0.90 -0.20 0.45 -0.55 1.75 -0.75 2.85 -0.80 4.10 -3.25 10.25 -4.10 10.25 -0.20 0 -0.40 -0.55 -0.40 -1.25z"/>
  <path d="M56.90 84.20 c-0.20 -0.15 0.05 -1.30 0.50 -2.50 0.55 -1.50 1.10 -2.20 1.70 -2.20 0.85 0 0.85 0.10 0.15 1.90 -0.90 2.05 -1.90 3.30 -2.35 2.80z"/>
  <path d="M43.70 82.90 c0.15 -0.65 0.45 -2.15 0.65 -3.40 0.15 -1.25 0.60 -2.45 1 -2.65 0.95 -0.55 0.80 -1.75 -0.25 -2.30 -0.65 -0.35 -1.15 -0.30 -1.50 0.05 -0.35 0.35 -0.60 0.40 -0.60 0.10 0 -0.25 -0.20 -0.10 -0.50 0.30 -0.25 0.40 -0.55 0.60 -0.70 0.45 -0.25 -0.25 -1.05 -3.70 -1.55 -6.45 -0.05 -0.40 -0.30 -1.15 -0.50 -1.65 -0.20 -0.55 -0.10 -1.20 0.35 -1.75 0.40 -0.45 0.70 -1.85 0.65 -3.10 0 -2 -0.10 -2.25 -1.10 -2.10 -0.85 0.10 -1.15 -0.20 -1.40 -1.35 -0.35 -1.65 -4.20 -6.05 -5.25 -6.05 -0.35 0 0.10 0.70 0.95 1.60 1.55 1.60 2 2.90 1 2.90 -0.40 0 -0.40 0.20 -0.10 0.65 0.25 0.30 0.50 1.25 0.55 2.05 0.05 0.80 0.55 1.90 1.15 2.45 0.70 0.65 0.95 1.40 0.80 2.25 -0.15 0.70 0 1.80 0.30 2.50 0.45 0.95 0.30 1.90 -0.65 4.75 -0.65 2 -1.35 3.80 -1.60 4.05 -0.20 0.30 -0.45 1.05 -0.45 1.75 -0.05 1 -0.10 1.10 -0.30 0.35 -0.15 -0.55 -0.55 -1.30 -0.90 -1.65 -0.55 -0.55 -0.80 -0.50 -1.45 0.10 -0.40 0.40 -0.95 0.75 -1.20 0.75 -0.25 0 -0.60 0.45 -0.75 1 -0.15 0.55 -0.60 1 -0.95 1 -0.40 0 -1 0.55 -1.30 1.25 -0.30 0.70 -0.90 1.25 -1.30 1.25 -0.90 0 -2.30 -1.90 -2.30 -3.15 0 -0.50 -0.40 -1.55 -0.95 -2.25 -0.50 -0.75 -1.05 -1.95 -1.20 -2.70 -0.20 -0.70 -0.50 -1.70 -0.70 -2.20 -0.25 -0.65 -0.15 -0.75 0.40 -0.45 0.35 0.25 1.65 0.50 2.80 0.55 l2.15 0.05 -1.30 -1.70 c-1.25 -1.70 -2.30 -5.95 -1.85 -7.70 0.45 -1.55 1.45 -1.05 1.45 0.70 0 1.80 1.15 4.45 2.10 4.75 0.30 0.10 0.60 -0.15 0.60 -0.60 0 -0.45 -0.35 -0.80 -0.75 -0.80 -1.20 0 -0.85 -1.45 0.50 -2.10 0.70 -0.30 1.25 -0.85 1.25 -1.25 0 -0.35 0.35 -0.65 0.75 -0.65 0.40 0 0.75 -0.40 0.80 -0.85 0 -0.75 0.10 -0.75 0.40 0.10 0.25 0.60 0.15 1.80 -0.25 2.95 -0.40 1.05 -0.70 2.20 -0.65 2.50 0.20 1.50 -0.15 2.35 -1.40 3.55 -0.75 0.70 -1.15 1.25 -0.80 1.25 1 0 3.40 -3.30 4.05 -5.60 0.75 -2.70 0.55 -8.50 -0.35 -9.55 -1.65 -2 -7.75 -4.40 -7.80 -3.10 -0.05 0.30 -0.35 1.05 -0.70 1.70 -0.45 0.85 -0.50 1.30 -0.10 1.70 0.70 0.70 0.70 1.35 0.05 1.35 -0.25 0 -0.50 -0.35 -0.50 -0.80 0 -0.70 -0.15 -0.70 -0.75 -0.20 -0.40 0.35 -0.75 1.40 -0.75 2.35 0 0.95 -0.20 1.60 -0.45 1.45 -0.25 -0.15 -0.35 -0.75 -0.20 -1.25 0.15 -0.65 -0.05 -1 -0.70 -1.15 -0.75 -0.15 -0.50 -0.60 1.45 -2.55 2.60 -2.60 2.65 -3.05 0.05 -1.05 -0.90 0.70 -1.65 1.05 -1.65 0.75 0 -0.25 0.25 -0.65 0.50 -0.80 1.05 -0.65 -0.50 -2.25 -2.50 -2.55 -1.10 -0.20 -2 -0.50 -2 -0.75 0 -0.55 -1.85 -0.60 -2.10 -0.05 -0.15 0.50 -5.70 2.10 -8.45 2.45 -1.05 0.15 -2 0 -2.15 -0.30 -0.60 -0.90 1.10 -3.40 2.75 -4.05 1.95 -0.80 4.60 -0.85 4.85 -0.10 0.25 0.80 2.45 0.75 2.75 0 0.15 -0.50 0.90 -0.40 3.10 0.35 1.60 0.50 3.20 1.25 3.55 1.65 0.40 0.35 1.25 0.75 1.90 0.90 2 0.35 1.05 -1.60 -1.50 -3.10 -4.65 -2.70 -7.05 -3.35 -13.20 -3.40 -6.65 -0.05 -7.20 -0.50 -4.40 -3.40 1.60 -1.70 1.75 -1.75 4.90 -1.60 1.80 0.10 3.60 0.25 4 0.35 2.95 0.75 4 1.20 6.45 2.65 2.80 1.70 3.65 2.40 6.75 5.85 1.10 1.25 2.10 1.85 3 1.85 0.70 0 1.30 0.25 1.30 0.50 0 0.30 0.75 0.50 1.65 0.45 1.45 0 1.50 -0.05 0.45 -0.45 -1.45 -0.60 -1.85 -1.65 -1.10 -2.95 0.60 -1.20 1.50 -1.40 1.50 -0.35 0 0.45 0.80 0.80 2.20 1 1.50 0.25 2.30 0.65 2.45 1.20 0.15 0.50 0.25 0.25 0.30 -0.50 0.05 -1.10 -0.20 -1.40 -0.95 -1.40 -0.85 0 -1 -0.35 -1 -2 0 -1.95 0.05 -2 1.75 -2 1.65 0 1.75 0.10 1.75 1.75 0 1.40 0.20 1.75 1 1.75 0.75 0 1 0.35 1 1.25 0 0.70 0.50 1.80 1.15 2.55 1.35 1.55 1.75 2.75 1.80 5.85 0.05 1.90 0.20 2.35 0.95 2.35 0.55 0 1.20 0.85 1.85 2.30 0.55 1.25 1.40 2.50 1.90 2.75 0.75 0.45 0.85 0.20 0.85 -1.80 0 -2.30 0.65 -4.20 1.70 -4.85 0.40 -0.25 0.30 -1.10 -0.35 -2.80 -0.45 -1.40 -0.85 -3.20 -0.85 -4.05 0 -1.40 -0.15 -1.55 -1.65 -1.55 -2.40 0 -4.85 -2.40 -4.85 -4.70 0 -1.75 0.05 -1.80 1.95 -1.80 1.55 0 2.20 0.30 3 1.40 0.65 0.90 1 1.10 1.05 0.60 0 -0.85 3 -1.35 3 -0.50 0 1 -2.50 2.15 -4.05 1.80 -1.30 -0.25 -1.45 -0.20 -1 0.40 0.30 0.40 1.60 0.85 2.85 1.05 2.25 0.30 2.30 0.35 2 1.90 -0.20 1.05 0.05 2.60 0.70 4.30 1.10 3.10 1.25 3.25 2 2.80 0.35 -0.20 0.25 -0.85 -0.45 -1.90 -0.50 -0.90 -1.10 -2.30 -1.25 -3.15 -0.35 -1.50 -0.20 -1.65 2.45 -3.15 1.80 -1 2.65 -1.80 2.45 -2.20 -1.05 -1.85 -2.85 -3.85 -3.50 -3.85 -0.35 0 -0.70 -0.35 -0.70 -0.80 0 -0.55 0.45 -0.70 1.80 -0.60 1.45 0.10 2.10 0.55 3.30 2.20 1.20 1.65 1.60 3 2.20 7.25 0.45 2.85 0.85 5.25 0.95 5.35 0.10 0.10 0.65 -0.10 1.25 -0.40 l1.10 -0.60 -1 -0.95 c-0.85 -0.75 -1.05 -1.60 -1.10 -4.80 -0.05 -2.15 -0.10 -5.45 -0.15 -7.40 l-0.10 -3.50 2 -0.15 c1.90 -0.15 1.95 -0.15 1.10 0.80 -1 1.10 -1.15 4.40 -0.15 4.75 1 0.40 1.30 2.75 0.50 4.30 -0.85 1.60 -0.85 2.30 -0.15 3.45 0.45 0.70 0.25 1.55 -1.10 4.10 -1.30 2.60 -1.65 3.90 -1.70 6.50 -0.15 6.30 -0.20 6.50 -1.05 6.50 -0.65 0 -0.75 -0.35 -0.55 -1.75 0.20 -1.25 0.10 -1.75 -0.35 -1.75 -1.30 0 -1.85 1.45 -2.60 7.05 -0.40 3.15 -1.10 6.30 -1.50 7.05 -0.40 0.70 -0.70 1.65 -0.70 2.10 0 0.45 -0.20 0.80 -0.40 0.80 -0.25 0 -0.20 -1.60 0.05 -3.55 0.30 -2.50 0.30 -3.70 -0.10 -4.10 -0.40 -0.40 -0.55 -0.30 -0.55 0.30 0 0.45 -0.20 0.85 -0.50 0.85 -0.45 0 -0.60 -0.85 -0.45 -2.35 0 -0.25 0.45 -0.35 1 -0.30 0.55 0.10 0.95 -0.15 0.95 -0.65 0 -0.40 -0.30 -0.70 -0.60 -0.65 -1.40 0.15 -1.90 -0.10 -1.90 -1 0 -0.55 0.40 -1.10 0.90 -1.20 0.70 -0.20 0.75 -0.25 0.05 -0.30 -0.45 0 -0.95 -0.50 -1.10 -1.05 -0.15 -0.55 -0.60 -1 -1 -1 -0.85 0 -1.05 0.55 -1.60 3.75 -0.30 1.85 -0.85 3.20 -2.60 6.25 -0.40 0.70 -1.15 2.20 -1.70 3.40 -1.05 2.20 -2.30 2.95 -1.75 1z m-15.65 -4.25 c0.55 -0.65 0.55 -0.85 0.10 -1 -0.35 -0.15 -0.65 -0.80 -0.65 -1.45 0 -0.65 -0.20 -1.20 -0.50 -1.20 -0.25 0 -0.40 1 -0.35 2.25 0.10 2.45 0.35 2.70 1.40 1.40z m6 -4.75 c1.45 0.25 1.15 -0.85 -0.40 -1.45 -1.10 -0.40 -1.75 -0.35 -3.15 0.35 -1.60 0.80 -1.65 0.90 -0.60 1.10 0.60 0.10 1.10 0.55 1.10 0.95 0 0.70 0.15 0.65 1.05 -0.15 0.60 -0.50 1.50 -0.90 2 -0.80z m11.60 -1.75 c-1.45 -0.20 -1.65 -0.40 -1.65 -1.70 0 -1 -0.25 -1.45 -0.80 -1.45 -0.60 0 -0.75 0.30 -0.50 1.15 0.15 0.60 0.30 1.40 0.30 1.75 0 0.40 0.70 0.55 2.15 0.50 1.80 -0.05 1.90 -0.10 0.50 -0.25z m1.85 -2.70 c0 -0.50 -0.20 -0.95 -0.45 -0.95 -0.60 0 -1.15 1.45 -0.75 2.05 0.40 0.70 1.20 0 1.20 -1.10z m9.70 -2.55 c0.75 -1.45 0.75 -1.75 0 -3.70 -0.75 -1.95 -0.75 -2.30 0.25 -5.80 1.20 -4.20 1.25 -4.90 0.55 -4.90 -0.25 0 -0.50 0.45 -0.50 1 0 1.55 -1.65 4.65 -3.15 6 l-1.45 1.20 2.10 1.80 c2 1.75 2.05 1.80 1.30 3.20 -0.60 1.20 -0.65 2.80 -0.05 2.80 0.10 0 0.55 -0.70 0.95 -1.60z m-3 -1.75 c-0.85 -0.90 -1.20 -0.80 -1.20 0.25 0 1.30 0.50 1.65 1.25 0.95 0.45 -0.45 0.45 -0.70 -0.05 -1.20z m-18.70 -0.15 c0 -0.55 -0.35 -1 -0.75 -1 -0.40 0 -0.75 0.45 -0.75 1 0 0.55 0.35 1 0.75 1 0.40 0 0.75 -0.45 0.75 -1z m24.50 -4 c0 -2 -0.65 -2.65 -1.20 -1.25 -0.25 0.75 0.45 3.25 0.95 3.25 0.15 0 0.25 -0.90 0.25 -2z m-19.70 -1.70 c0.40 -0.40 0.70 -1.25 0.65 -1.90 0 -1.05 -0.05 -1.05 -0.40 -0.20 -0.35 0.85 -0.40 0.90 -0.70 0.15 -0.15 -0.45 -0.05 -0.95 0.20 -1.15 0.35 -0.20 0.35 -0.50 0 -0.85 -0.40 -0.40 -0.70 -0.40 -1.15 0.05 -0.35 0.35 -0.40 0.60 -0.10 0.60 0.25 0 0.40 0.90 0.30 2 -0.20 2.15 0.05 2.40 1.20 1.30z m-26.80 -15.30 c0 -0.25 -0.60 -0.50 -1.35 -0.45 l-1.40 0.05 1.25 0.40 c0.70 0.20 1.30 0.40 1.40 0.45 0.05 0.05 0.10 -0.15 0.10 -0.45z m-5.10 -0.85 c-0.75 -0.10 -2.10 -0.10 -3 0 -0.90 0.10 -0.30 0.20 1.35 0.20 1.65 0 2.40 -0.10 1.65 -0.20z"/>
  <path d="M41.95 82.30 c0.30 -0.40 0.65 -2 0.75 -3.60 0.10 -2.35 0.35 -3 1 -3.10 0.65 -0.15 0.85 0.05 0.65 0.75 -0.15 0.50 -0.65 2.20 -1.05 3.80 -0.45 1.55 -1.05 2.85 -1.40 2.85 -0.35 0 -0.35 -0.20 0.05 -0.70z"/>
  <path d="M58.50 78.25 c0 -0.90 1.05 -3.25 1.45 -3.25 0.15 0 0.25 -1 0.15 -2.25 -0.15 -1.85 -0.05 -2.25 0.65 -2.25 0.70 0 0.80 0.40 0.50 2.90 -0.55 4.95 -0.75 5.60 -1.80 5.60 -0.50 0 -0.95 -0.35 -0.95 -0.75z"/>
  <path d="M90 77.20 c-1.65 -3.05 -7.10 -6.25 -11.50 -6.80 -1.70 -0.20 -1.95 -2.60 -0.55 -5.35 0.75 -1.45 1.20 -3.75 1.60 -8.15 0.70 -8.30 0 -13.40 -1.90 -13.40 -0.35 0 -0.65 -0.55 -0.65 -1.25 0 -0.70 0.15 -1.25 0.30 -1.25 0.75 0 3.75 2.15 4.20 3.05 0.30 0.50 0.95 0.95 1.40 0.95 1.05 0 2.85 1.85 4.65 4.75 1.05 1.70 1.90 3.55 4.30 9.65 0.15 0.30 -0.05 0.60 -0.40 0.60 -0.50 0 -0.75 0.70 -0.80 2.20 -0.05 1.40 -0.55 2.95 -1.40 4.30 -1.80 2.90 -0.70 2.35 1.45 -0.70 2 -2.85 2.45 -2.50 2.20 1.75 -0.15 2.55 -0.20 2.70 -1.50 2.70 -0.75 0 -1.75 0.40 -2.20 0.85 -0.75 0.75 -0.75 0.90 -0.05 1.60 1.10 1.10 1.35 1 1.35 -0.45 0 -0.90 0.25 -1.25 1 -1.25 0.60 0 1 0.35 1 0.85 0 1.45 -1.20 6.65 -1.50 6.65 -0.20 0 -0.65 -0.60 -1 -1.30z m-6 -8.70 c1.10 -0.30 1.15 -0.40 0.40 -0.75 -0.50 -0.20 -0.75 -0.60 -0.55 -0.90 0.20 -0.35 0 -0.40 -0.65 -0.10 -0.50 0.20 -1.40 0.45 -2 0.50 -1.35 0.10 -2.30 0.70 -1.95 1.30 0.35 0.55 2.95 0.50 4.75 -0.05z m-1.40 -11.90 c0.10 -0.80 -0.05 -1.65 -0.40 -2 -0.45 -0.40 -0.60 -0.05 -0.60 1.45 -0.05 2.25 0.70 2.65 1 0.55z m0.40 -4.80 c-0.25 -0.25 -0.35 -1.05 -0.20 -1.75 0.10 -0.70 0 -1.65 -0.25 -2.05 -0.90 -1.30 -1.05 -0.25 -0.45 2.70 0.35 1.85 0.70 2.65 0.95 2.20 0.25 -0.35 0.20 -0.85 -0.05 -1.10z"/>
  <path d="M19.65 69.90 c-0.55 -0.65 -1.15 -1.55 -1.30 -2.05 -0.40 -1.05 0.15 -8.35 0.60 -8.35 0.15 0 0.35 1.65 0.40 3.65 0.10 4.60 0.30 6.10 1.10 7.05 1.05 1.25 0.35 0.95 -0.80 -0.30z"/>
  <path d="M21.10 68.65 c-1.05 -1.95 -0.70 -6.65 0.50 -6.65 0.30 0 0.35 0.40 0.15 0.90 -0.70 1.80 -0.85 4 -0.25 5.05 0.30 0.65 0.45 1.25 0.35 1.40 -0.15 0.10 -0.50 -0.20 -0.75 -0.70z"/>
  <path d="M69 65.05 c-0.30 -0.80 -1 -1.85 -1.55 -2.35 -0.50 -0.45 -0.95 -1.30 -0.95 -1.80 0 -0.70 0.30 -0.90 1.35 -0.80 1.20 0.15 1.55 -0.25 3.20 -3.20 1 -1.80 1.95 -4.15 2.15 -5.10 0.20 -1.10 0.65 -1.80 1.05 -1.80 1.05 0 1.05 5.15 0 6.20 -0.40 0.40 -0.75 1.55 -0.75 2.55 0 1.80 -1.30 4.75 -2.10 4.75 -0.20 0 -0.40 0.70 -0.40 1.50 0 1.95 -1.20 2 -2 0.05z"/>
  <path d="M62.70 60.40 c-0.20 -0.30 0.30 -1.10 1.20 -1.85 0.85 -0.70 1.95 -1.95 2.40 -2.80 l0.80 -1.50 -0.35 2 c-0.20 1.10 -0.40 2.40 -0.45 2.90 -0.20 1.60 -2.80 2.55 -3.60 1.25z"/>
  <path d="M28.50 58.65 c0.05 -1.70 0.10 -1.80 0.70 -1.05 0.35 0.50 0.80 0.75 0.95 0.55 0.20 -0.15 0.35 0.30 0.35 1 0 1 -0.25 1.35 -1 1.35 -0.85 0 -1 -0.35 -1 -1.85z"/>
  <path d="M24.20 57.55 c0 -0.50 0.45 -1.20 0.95 -1.50 0.80 -0.55 0.90 -0.45 0.75 0.80 -0.15 1.60 -1.70 2.25 -1.70 0.70z"/>
  <path d="M65 51.50 c0 -0.25 0.30 -0.50 0.70 -0.50 0.40 0 0.90 0.25 1.05 0.50 0.15 0.30 -0.15 0.50 -0.70 0.50 -0.60 0 -1.05 -0.20 -1.05 -0.50z"/>
  <path d="M66.80 49.40 c-1.40 -5 -1.65 -6.45 -0.85 -5.60 0.50 0.45 1.60 6.20 1.20 6.20 -0.10 0 -0.25 -0.30 -0.35 -0.60z"/>
  <path d="M73.25 46.15 c-0.45 -2.65 -0.65 -3.15 -1.20 -3.15 -0.30 0 -0.35 0.75 -0.20 1.75 0.20 1.30 0.10 1.75 -0.40 1.75 -1.15 -0.05 -2.25 -1.15 -2.65 -2.60 -0.15 -0.80 -0.65 -1.40 -1.05 -1.40 -0.40 0 -0.75 -0.20 -0.75 -0.50 0 -0.25 0.55 -0.50 1.20 -0.50 0.70 0 1.40 -0.20 1.55 -0.50 0.15 -0.25 1.20 -0.50 2.30 -0.50 1.65 0 2.05 0.20 2.45 1.30 0.80 2.05 0.65 6.20 -0.25 6.20 -0.45 0 -0.80 -0.70 -1 -1.85z"/>
  <path d="M35.50 43.50 c1.95 -2.75 5 -4.05 5 -2.10 0 1.20 -3.15 3.60 -4.75 3.60 l-1.30 0 1.05 -1.50z"/>
 </g>
 <g fill="#443723">
  <path d="M36.65 93.40 c0.40 -1.20 -0.45 -1.60 -1.10 -0.55 -0.45 0.80 -0.50 0.80 -0.55 -0.20 0 -1.40 1.65 -3.15 3 -3.15 1.40 0 1.25 1.45 -0.35 3.25 -0.70 0.85 -1.15 1.10 -1 0.65z"/>
  <path d="M33.65 88.95 c-0.70 -1.95 -0.95 -9.55 -0.40 -11.60 0.50 -1.85 -0.55 -1.40 -2.40 1.05 -0.75 1.05 -2 2.30 -2.75 2.70 -1.80 1.10 -2.60 0.45 -4 -3.20 l-1.05 -2.90 1.20 0 c1.05 0 1.35 0.35 1.85 2.25 0.35 1.25 0.75 2.25 0.95 2.25 0.15 0 0.70 -0.45 1.20 -1 0.90 -1 0.90 -1.05 0 -1.70 -0.95 -0.70 -0.70 -2.65 0.25 -2.05 0.30 0.20 0.90 0.05 1.30 -0.30 0.40 -0.30 0.90 -0.40 1.10 -0.20 0.20 0.20 0.05 0.50 -0.25 0.60 -0.95 0.35 -0.80 1.15 0.15 1.15 0.45 0 1.15 -0.40 1.50 -0.85 0.40 -0.55 0.65 -0.65 0.70 -0.30 0 0.70 1.55 0.30 2.10 -0.55 0.75 -1.10 0.40 -2.30 -0.65 -2.30 -0.75 0 -1 -0.25 -0.85 -1.10 0.10 -0.95 0.50 -1.20 2.05 -1.30 1 -0.10 1.85 0.05 1.85 0.35 0 0.75 -1.45 5.15 -2 6.15 -0.30 0.50 -0.55 2.50 -0.55 4.50 -0.05 2 -0.20 5.10 -0.40 6.85 l-0.30 3.20 -0.60 -1.70z"/>
  <path d="M48.65 88.65 c0.35 -2.10 0.90 -2.80 2.05 -2.55 0.70 0.15 0.70 0.40 -0.25 2.30 -1.30 2.60 -2.20 2.75 -1.80 0.25z"/>
  <path d="M50.35 84.05 c0.25 -1 1.65 -1.90 1.65 -1.10 0 1 -0.65 2.05 -1.25 2.05 -0.40 0 -0.55 -0.40 -0.40 -0.95z"/>
  <path d="M57 83.10 c0 -1.20 1.20 -2.80 1.90 -2.55 0.40 0.15 0.30 0.70 -0.25 1.85 -0.85 1.75 -1.65 2.10 -1.65 0.70z"/>
  <path d="M43.50 83.15 c0 -0.25 0.35 -0.80 0.70 -1.30 0.35 -0.45 0.55 -1.45 0.40 -2.25 -0.10 -0.75 -0.05 -1.15 0.20 -0.95 0.20 0.20 0.70 -0.15 1.05 -0.75 l0.60 -1.15 0.05 1.35 c0 1.55 -0.95 3.90 -1.60 3.90 -0.20 0 -0.40 0.35 -0.40 0.75 0 0.40 -0.20 0.75 -0.50 0.75 -0.25 0 -0.50 -0.15 -0.50 -0.35z"/>
  <path d="M41.65 80.65 c0.40 -3.25 1.15 -5.15 2.10 -5.15 0.55 0 0.75 0.30 0.55 0.90 -0.10 0.45 -0.60 2.15 -1 3.75 -1 3.55 -2.05 3.85 -1.65 0.50z"/>
  <path d="M52.15 78.65 c0.15 -3.65 0.85 -5.35 1.85 -4.35 0.40 0.40 0.15 1.70 -0.75 4.25 l-1.25 3.70 0.15 -3.60z"/>
  <path d="M89.25 75.90 c-2.15 -2.40 -4.35 -3.80 -7.50 -4.75 -3.45 -1.10 -3.70 -2.15 -0.35 -1.75 3.45 0.35 5.80 1.30 6.35 2.50 0.30 0.70 1.10 1.15 2.35 1.35 1.55 0.30 1.90 0.55 1.90 1.45 0 0.60 -0.30 1.50 -0.65 2 -0.60 0.80 -0.75 0.75 -2.10 -0.80z"/>
  <path d="M55.25 76.05 c-0.15 -0.50 -0.05 -1.45 0.20 -2.10 0.45 -1.05 0.50 -0.95 0.50 0.95 0.05 2.25 -0.20 2.70 -0.70 1.15z"/>
  <path d="M46.80 74.80 c0.20 -0.50 0 -0.65 -0.70 -0.45 -0.75 0.20 -1 -0.10 -1.30 -1.35 -0.45 -2.35 -0.35 -4 0.20 -4 0.30 0 0.50 0.30 0.50 0.70 0 0.75 1.20 1.40 1.70 0.95 0.15 -0.20 0.30 -0.75 0.30 -1.25 0 -0.50 0.25 -0.90 0.50 -0.90 0.30 0 0.50 0.25 0.50 0.55 0 0.25 0.25 0.35 0.50 0.20 0.80 -0.50 0.05 -1.25 -1.25 -1.25 -0.65 0 -1.35 -0.20 -1.50 -0.50 -0.20 -0.30 0.50 -0.50 1.65 -0.50 2.30 0 3.20 1.20 1.75 2.30 -0.50 0.35 -1.05 0.70 -1.25 0.70 -0.25 0 -0.40 0.35 -0.40 0.80 0 0.40 0.15 0.65 0.40 0.55 0.20 -0.15 0.60 0.05 0.90 0.35 0.85 0.95 -0.45 3.80 -1.75 3.80 -0.70 0 -0.95 -0.25 -0.75 -0.70z"/>
  <path d="M26.15 73.80 c0.20 -0.45 -0.05 -0.85 -0.55 -0.95 -0.50 -0.15 -0.25 -0.25 0.55 -0.30 1.65 -0.05 4.85 -2.35 4.85 -3.45 0 -0.40 0.15 -0.65 0.30 -0.45 0.55 0.55 -0.30 3.85 -1 3.85 -0.35 0 -1.05 0.45 -1.55 1 -1.05 1.15 -3 1.40 -2.60 0.30z"/>
  <path d="M60 71 c0 -1.90 0.20 -2.50 0.75 -2.50 0.80 0 1 1.80 0.45 3.90 -0.55 1.95 -1.20 1.20 -1.20 -1.40z"/>
  <path d="M26.20 70.90 c-0.35 -0.55 -0.35 -0.55 1.70 -1.60 2 -1 2.60 -0.70 1.40 0.65 -1.05 1.15 -2.70 1.65 -3.10 0.95z"/>
  <path d="M54 68.25 c0 -1.85 0.20 -3.25 0.50 -3.25 0.30 0 0.50 -0.50 0.55 -1.10 0 -0.65 0.15 -0.85 0.30 -0.50 0.10 0.30 0.55 0.60 0.90 0.60 0.60 0 0.60 0.30 -0.05 1.75 -0.70 1.70 -0.70 3.40 -0.05 4.05 0.20 0.20 0.35 -0.10 0.35 -0.70 0 -0.70 0.30 -1.10 0.80 -1.10 0.60 0 0.75 0.30 0.50 1.15 -0.15 0.60 -0.30 1.40 -0.30 1.75 0 0.30 -0.30 0.60 -0.70 0.60 -0.40 0 -0.85 -0.30 -0.95 -0.60 -0.20 -0.50 -0.30 -0.50 -0.30 0 -0.05 0.30 -0.40 0.60 -0.80 0.60 -0.60 0 -0.75 -0.70 -0.75 -3.25z"/>
  <path d="M91 68.60 c0 -2.55 0.55 -4.10 1.50 -4.10 0.15 0 0.25 1.30 0.20 2.90 -0.10 4.05 -0.10 4.10 -0.95 4.10 -0.60 0 -0.75 -0.65 -0.75 -2.90z"/>
  <path d="M73.40 69.45 c-1.45 -0.80 -1.05 -1.45 0.85 -1.45 1.40 0 1.75 0.20 1.75 1 0 1.10 -1.20 1.30 -2.60 0.45z"/>
  <path d="M40.75 68.95 c0.20 -0.30 -0.05 -0.85 -0.55 -1.20 -0.75 -0.55 -0.85 -0.90 -0.40 -1.60 0.30 -0.50 1.05 -1 1.70 -1.05 1.05 -0.15 1.10 -0.05 0.80 1.40 -0.15 0.90 -0.30 1.95 -0.30 2.30 0 0.40 -0.35 0.70 -0.80 0.70 -0.40 0 -0.60 -0.25 -0.45 -0.55z"/>
  <path d="M70.30 67.05 c-0.50 -0.55 -0.90 -1.30 -1 -1.70 -0.05 -0.40 -0.70 -1.45 -1.45 -2.35 -0.85 -0.95 -1.20 -1.85 -0.95 -2.10 0.65 -0.65 3.10 0.45 3.10 1.35 0 0.45 0.35 1.15 0.75 1.55 0.65 0.65 1.10 4.20 0.60 4.20 -0.10 0 -0.60 -0.45 -1.05 -0.95z"/>
  <path d="M59.90 66.65 c-1.35 -0.35 -1.10 -1.65 0.30 -1.65 1 0 1.80 0.80 1.80 1.80 0 0.25 -0.90 0.20 -2.10 -0.15z"/>
  <path d="M24.35 66.20 c-0.85 -0.85 -0.35 -5.30 0.75 -6.85 0.80 -1.15 0.85 -1.40 0.25 -0.90 -1.20 0.95 -1.55 0.40 -0.75 -1.30 0.40 -0.90 1.10 -1.45 1.90 -1.50 0.70 -0.05 0.95 0 0.65 0.15 -1.05 0.45 -0.70 1.20 0.55 1.20 1.35 0 2.45 1.45 3.25 4.25 0.50 1.80 0.40 2 -1.15 3.55 -0.95 0.95 -2.05 1.70 -2.50 1.70 -1.25 0 -0.95 -1.45 0.45 -2.10 0.70 -0.30 1.25 -0.75 1.25 -1 0 -0.20 -0.45 -0.15 -1.05 0.20 -0.85 0.55 -1.10 0.50 -1.50 -0.20 -0.70 -1.30 -1.60 -1.10 -1.30 0.25 0.30 1.25 -0.25 3.05 -0.80 2.55z"/>
  <path d="M35.30 64.90 c-0.50 -1.90 -0.35 -2.40 0.65 -2.40 1 0 1.50 1.15 1.15 2.65 -0.25 1.20 -1.45 1.05 -1.80 -0.25z"/>
  <path d="M21.05 63.15 c-0.05 -0.85 -0.25 -1.70 -0.50 -1.85 -0.25 -0.15 -0.35 -0.75 -0.20 -1.25 0.15 -0.60 -0.05 -1 -0.55 -1.15 -0.65 -0.10 -0.55 -0.45 0.50 -1.80 0.70 -0.85 1.75 -1.85 2.30 -2.15 0.90 -0.50 0.95 -0.45 0.40 0.55 -0.40 0.80 -0.45 1.25 0 1.75 0.45 0.50 0.25 1.50 -0.70 4.10 -1.05 2.85 -1.25 3.15 -1.25 1.80z"/>
  <path d="M57.75 63.85 c-0.20 -0.50 -0.25 -1.05 -0.05 -1.20 0.50 -0.50 0.90 0.20 0.65 1.20 -0.20 0.85 -0.20 0.85 -0.60 0z"/>
  <path d="M32.55 59.95 c-0.30 -0.90 -0.55 -2.30 -0.55 -3.20 0 -1.50 -0.15 -1.65 -1.95 -1.90 -1.05 -0.10 -2.40 -0.70 -2.95 -1.25 l-1 -1 1.30 -0.25 c0.75 -0.15 1.70 -0.05 2.20 0.20 1.25 0.70 2.25 0.55 2.60 -0.35 0.25 -0.70 0.20 -0.75 -0.45 -0.20 -0.60 0.50 -0.90 0.50 -1.50 0 -1.10 -0.90 -0.55 -2.20 2.15 -5.05 1.85 -1.95 2.65 -2.45 3.95 -2.45 1.35 0 1.65 0.20 1.65 1 0 0.55 0.35 1.15 0.75 1.30 0.50 0.20 0.75 1 0.75 2.20 0 1.90 0 1.90 -1.85 1.85 -1.45 -0.10 -2 -0.35 -2.40 -1.20 -0.55 -1.25 -0.70 -1.35 -1.65 -0.75 -0.80 0.50 -0.25 2.10 0.70 2.10 0.40 0 0.70 0.30 0.70 0.70 0 0.35 0.50 1.25 1.05 2 0.60 0.75 0.90 1.50 0.70 1.70 -0.40 0.45 -2.25 -1.75 -2.25 -2.70 0 -0.55 -0.20 -0.60 -0.95 -0.10 -0.95 0.55 -0.90 0.65 0.50 2.10 1.65 1.70 1.85 2.55 0.65 3 -0.60 0.25 -0.65 0.50 -0.30 0.95 0.70 0.80 0.20 2.85 -0.65 2.85 -0.35 0 -0.90 -0.70 -1.20 -1.55z m4.40 -12.55 c-0.45 -0.80 -0.70 -0.95 -0.85 -0.45 -0.10 0.35 0.10 0.85 0.45 1.10 1 0.65 1.05 0.55 0.40 -0.65z"/>
  <path d="M57.85 59.15 c-0.70 -0.65 -0.30 -1.55 0.75 -1.80 0.90 -0.25 0.95 -0.40 0.40 -1.10 -0.60 -0.75 -0.55 -0.80 0.80 -0.65 1.30 0.15 1.45 0.35 1.60 2.05 0.15 1.80 0.10 1.85 -1.55 1.85 -0.90 0 -1.85 -0.15 -2 -0.35z"/>
  <path d="M62.50 55.25 c0 -1.80 0.25 -2.05 1.45 -1.30 0.60 0.40 0.65 0.70 0.15 1.75 -0.80 1.85 -1.60 1.60 -1.60 -0.45z"/>
  <path d="M20 54.05 c-0.25 -0.55 -1.15 -1.10 -2 -1.30 -0.80 -0.20 -1.50 -0.65 -1.50 -1.05 0 -1.05 1.65 -0.85 3 0.30 0.65 0.60 1.45 0.95 1.75 0.80 0.35 -0.10 0.90 0 1.25 0.20 0.55 0.35 0.55 0.55 0.05 1.20 -0.90 1.05 -1.90 1 -2.55 -0.15z"/>
  <path d="M22.50 51.50 c0 -0.65 0.35 -1 1 -1 0.70 0 1 0.35 1 1.05 0 0.95 -0.10 1 -0.85 0.40 -0.55 -0.50 -0.70 -0.50 -0.45 -0.05 0.20 0.30 0.10 0.60 -0.15 0.60 -0.30 0 -0.55 -0.45 -0.55 -1z"/>
  <path d="M11 50.30 c0 -0.80 1.25 -1.20 2.65 -0.90 1.60 0.40 0.95 1.60 -0.90 1.60 -1.20 0 -1.75 -0.25 -1.75 -0.70z"/>
  <path d="M47.50 50.30 c0 -0.90 1.60 -1.30 2.70 -0.70 1.15 0.65 0.50 1.40 -1.25 1.40 -0.90 0 -1.45 -0.25 -1.45 -0.70z"/>
  <path d="M62 48.75 c0 -1.85 1.20 -2.50 1.60 -0.85 0.30 1.35 -0.10 2.60 -0.90 2.60 -0.45 0 -0.70 -0.55 -0.70 -1.75z"/>
  <path d="M66.80 49.45 c-0.85 -2.80 -1.40 -5.55 -1.15 -5.80 0.20 -0.15 0.65 0 1.05 0.30 1 0.80 1.60 4.95 0.90 5.65 -0.40 0.40 -0.65 0.35 -0.80 -0.15z"/>
  <path d="M18.65 48.70 c-2.15 -1.05 -2.10 -1.70 0.10 -1.70 1.55 0 1.75 0.15 1.75 1.25 0 0.70 -0.05 1.25 -0.10 1.25 -0.10 0 -0.90 -0.40 -1.75 -0.80z"/>
  <path d="M47.15 47.05 c-0.15 -0.55 -0.65 -1.05 -1.20 -1.20 -0.75 -0.20 -0.95 -0.70 -0.95 -2.35 l0 -2.15 2.65 0.35 c1.40 0.15 3.90 0.30 5.50 0.30 l2.85 0 0 1.55 c0 1.20 -0.15 1.45 -0.60 1.05 -0.35 -0.25 -1.75 -0.50 -3.10 -0.55 -1.30 0 -2.80 -0.15 -3.30 -0.30 -0.50 -0.15 -1.10 0 -1.30 0.30 -0.50 0.85 1.15 1.90 2.60 1.65 1.50 -0.25 1.50 0.10 0.10 1.35 -1.50 1.20 -2.95 1.20 -3.25 0z"/>
  <path d="M81.35 46.65 c-0.20 -0.15 -0.35 -0.90 -0.35 -1.60 0.05 -1.10 0.10 -1.15 0.50 -0.45 0.30 0.45 0.90 0.70 1.45 0.55 0.60 -0.15 1 0.10 1.20 0.80 0.20 0.90 0.05 1.05 -1.10 1.05 -0.75 0 -1.55 -0.15 -1.70 -0.35z"/>
  <path d="M2.50 45 c0 -0.85 0.35 -1 2 -1 1.10 0 2 0.25 2 0.50 0 0.30 -0.35 0.50 -0.75 0.50 -0.40 0 -0.75 0.25 -0.75 0.50 0 0.30 -0.55 0.50 -1.25 0.50 -0.90 0 -1.25 -0.25 -1.25 -1z"/>
  <path d="M7 45 c0 -0.80 0.35 -1 1.75 -1 1.25 0 1.75 0.20 1.75 0.80 0 0.55 -0.30 0.70 -1.05 0.45 -0.75 -0.25 -0.95 -0.20 -0.75 0.20 0.20 0.35 -0.05 0.55 -0.65 0.55 -0.70 0 -1.05 -0.30 -1.05 -1z"/>
  <path d="M69.85 45.70 c-0.15 -0.20 -0.10 -0.80 0.20 -1.30 0.65 -1.20 1.75 -0.45 1.30 0.80 -0.35 0.85 -0.95 1.05 -1.50 0.50z"/>
  <path d="M72.70 42.65 c-0.45 -0.75 -0.65 -0.80 -1.35 -0.20 -0.95 0.75 -3.65 0.45 -5.10 -0.65 -0.90 -0.65 -0.85 -0.75 1 -1.25 1.10 -0.30 2.95 -0.55 4.15 -0.55 2.05 0 2.10 0 2.10 1.75 0 2 -0.05 2.05 -0.80 0.90z"/>
  <path d="M62 40.20 c0 -2.25 0 -2.25 2.65 -3.45 1.40 -0.60 3.60 -1.90 4.80 -2.80 3.20 -2.50 6 -4.25 8.55 -5.50 5.45 -2.55 12.45 -8.15 14.10 -11.15 0.45 -0.85 0.85 -2.35 0.90 -3.30 0 -1 0.25 -2.05 0.60 -2.40 0.90 -0.90 0.40 -1.05 -3.25 -0.75 l-3.35 0.30 -4.20 4.15 c-2.30 2.30 -4.40 4.20 -4.65 4.20 -0.25 0 -1.35 0.90 -2.40 2 -1.05 1.10 -2.25 2 -2.60 2 -0.35 0 -0.85 0.45 -1.15 1 -0.30 0.55 -0.85 1 -1.30 1 -0.40 0 -1.25 0.50 -1.90 1.15 -0.65 0.65 -2.35 2 -3.85 3 -4.55 3.20 -5.70 4.05 -9.90 7.55 -3.85 3.20 -4.20 3.40 -6.20 3.20 -1.35 -0.15 -2.90 0.10 -4.25 0.70 -2.25 0.95 -3.95 1.10 -5.30 0.60 -0.95 -0.35 -0.55 -1.20 0.55 -1.20 1.05 0 4.45 -2.15 3.80 -2.35 -0.35 -0.15 -1.50 0.25 -2.70 0.85 l-2.10 1.10 0.40 -2.85 c0.15 -1.55 0.40 -4.05 0.50 -5.60 0.05 -1.50 0.40 -3 0.70 -3.30 0.30 -0.30 0.55 -1.10 0.55 -1.75 0 -0.65 0.25 -1.65 0.60 -2.25 0.30 -0.60 0.55 -1.85 0.55 -2.85 0 -0.95 0.30 -2.30 0.70 -3 0.35 -0.70 0.65 -2.20 0.65 -3.35 0 -1.15 0.20 -2.20 0.45 -2.35 0.20 -0.15 0.70 -1.35 1.05 -2.65 1.25 -5 2.10 -6.15 4.35 -6.15 1.30 0 4.55 3.15 4.95 4.85 0.75 2.95 0.10 11.60 -1.05 14.40 -0.50 1.10 -1.20 3.05 -1.55 4.30 -0.40 1.25 -1.20 2.95 -1.80 3.70 -0.60 0.75 -1.45 2.15 -1.95 3.10 l-0.90 1.70 1.25 -0.75 c0.65 -0.45 1.70 -1.15 2.35 -1.55 0.65 -0.40 1.35 -0.60 1.50 -0.40 0.20 0.15 0.35 0.05 0.35 -0.25 0 -0.60 1.60 -1.25 3.35 -1.30 0.60 -0.05 1.75 -0.65 2.50 -1.35 0.75 -0.70 2.40 -1.90 3.65 -2.70 1.25 -0.85 2.45 -1.80 2.65 -2.10 0.20 -0.35 1 -0.95 1.75 -1.35 0.75 -0.40 3.40 -2.75 5.90 -5.20 2.50 -2.50 5.30 -4.90 6.15 -5.35 0.90 -0.45 1.70 -1.10 1.85 -1.50 0.15 -0.40 1.55 -1.35 3.05 -2.05 2.20 -1.10 3.65 -1.40 7.30 -1.55 2.65 -0.15 5.20 0 6 0.30 l1.40 0.55 -1 1.30 c-0.60 0.80 -1.05 2.10 -1.05 3.15 -0.05 5.15 -6.30 11.40 -17.25 17.20 -2.45 1.35 -4.95 2.80 -5.50 3.30 -1.10 0.95 -6.10 4.05 -6.55 4.05 -0.55 0 -3.95 3.20 -3.80 3.60 0.05 0.20 -0.10 0.40 -0.40 0.40 -0.25 0 -0.50 -1 -0.50 -2.30z m-16.60 -8.70 c0.60 0 1.40 -0.50 1.80 -1.10 1.35 -2.10 4.30 -10 4.30 -11.60 0 -0.85 0.35 -2.50 0.75 -3.70 0.60 -1.70 0.65 -2.60 0.25 -4.15 -0.50 -1.85 -0.65 -1.95 -2.45 -1.95 -1.65 0 -1.95 0.20 -2.70 1.75 -0.45 1 -0.85 2.30 -0.85 2.90 0 0.65 -0.35 2.35 -0.80 3.85 -0.40 1.50 -0.95 3.90 -1.20 5.25 -0.20 1.40 -0.75 3.80 -1.20 5.40 -0.45 1.60 -0.80 3.35 -0.80 3.95 0 1 0.05 1 0.90 0.25 0.50 -0.50 1.40 -0.85 2 -0.85z"/>
 </g>
 <g fill="#614928">
  <path d="M34.25 95 c-0.15 -0.30 -0.15 -0.95 0 -1.50 0.15 -0.50 -0.05 -2.45 -0.50 -4.25 -0.45 -1.80 -0.75 -4.45 -0.70 -5.90 0.10 -1.45 0 -2.90 -0.25 -3.25 -0.25 -0.40 -0.20 -0.90 0.15 -1.25 0.30 -0.30 0.55 -1.10 0.55 -1.80 0 -0.65 0.15 -1.05 0.35 -0.85 0.25 0.20 0.40 3.40 0.40 7.10 0.05 9.40 0.80 9.85 4.70 2.70 0.85 -1.50 1.55 -2.45 1.55 -2.10 0 0.30 0.40 0.60 0.90 0.60 2.10 0 1.80 1 -1.60 5.50 -1.10 1.50 -2.35 3.10 -2.75 3.50 -0.65 0.65 -0.70 0.65 -0.40 -0.10 0.95 -2.45 0.95 -2.55 -0.35 -1.20 -1 1 -1.20 1.55 -0.80 1.80 0.35 0.20 0.45 0.65 0.30 0.95 -0.45 0.70 -1.15 0.70 -1.55 0.05z"/>
  <path d="M48.25 89.90 c0.70 -3.20 1.60 -5.15 2.40 -5.30 1.20 -0.25 1.05 0.80 -0.45 4.10 -1.40 3.10 -2.50 3.75 -1.95 1.20z"/>
  <path d="M43.80 83.55 c-0.20 -0.30 -0.05 -1.05 0.35 -1.65 0.40 -0.65 1.25 -2.75 1.90 -4.75 0.65 -2 1.55 -4.10 2 -4.75 0.85 -1.10 0.90 -1.10 1.25 -0.20 0.25 0.60 0.05 1.55 -0.45 2.40 -0.45 0.85 -0.85 1.75 -0.85 2.05 -0.05 1.15 -3.90 7.45 -4.20 6.90z"/>
  <path d="M41.50 81.95 c0 -1.25 1.60 -5.95 2.05 -5.95 0.60 0 0.60 0 -0.40 3.50 -0.45 1.65 -1 3 -1.25 3 -0.20 0 -0.40 -0.25 -0.40 -0.55z"/>
  <path d="M25.75 81 c-0.80 -0.85 -0.80 -1 -0.10 -1 0.40 0 1.50 -0.60 2.35 -1.35 l1.60 -1.35 -1.15 -0.45 -1.20 -0.40 1.20 -1 c1.40 -1.15 2.15 -1.25 1.75 -0.20 -0.45 1.05 1.25 0.95 2.10 -0.10 0.55 -0.80 0.65 -0.80 0.70 -0.10 0 0.80 -5.25 6.95 -5.95 6.95 -0.20 0 -0.80 -0.45 -1.30 -1z"/>
  <path d="M58.25 79.30 c0.85 -2.85 1.65 -4.30 2.30 -4.30 0.35 0 0.45 0.65 0.20 1.85 -0.45 2.45 -1.60 4.65 -2.45 4.65 -0.60 0 -0.60 -0.35 -0.05 -2.20z"/>
  <path d="M55.25 76.70 c0.20 -4 0.20 -4.10 -0.85 -3.80 -1 0.25 -1.05 0.15 -0.75 -3.05 l0.30 -3.35 -1.85 1.15 c-3.20 2 -3.30 2.05 -2.90 1.40 0.35 -0.55 0.05 -0.75 -2.30 -1.25 -1.05 -0.25 -1.65 -0.90 -2.50 -2.80 -0.75 -1.60 -1.45 -2.50 -2 -2.50 -0.50 0 -0.90 -0.40 -0.95 -0.85 0 -0.50 -0.10 -2.10 -0.20 -3.50 -0.15 -2.35 -0.05 -2.65 0.80 -2.65 0.80 0 0.95 0.35 0.95 2.50 0 2.35 0.10 2.50 1.25 2.50 1.20 0 1.25 0.15 1.25 2.75 0 2.15 0.15 2.75 0.75 2.75 0.45 0 0.90 0.30 1.05 0.70 0.45 1.15 2.20 0.35 2.20 -1 0 -0.65 -0.20 -1.20 -0.50 -1.20 -0.55 0 -0.70 -2.45 -0.20 -3.70 0.15 -0.45 0.60 -0.80 0.95 -0.80 0.35 0 0.75 -0.35 0.95 -0.75 0.25 -0.75 1.85 -1.05 2.45 -0.45 0.45 0.50 -0.60 2.20 -1.35 2.20 -0.85 0 -2 2.70 -1.60 3.75 0.40 1.15 1.45 0.90 1.15 -0.25 -0.15 -0.65 0.10 -1.25 0.80 -1.75 1.40 -1 1.55 -0.95 3.15 0.50 1.15 1.10 1.25 1.40 0.80 2.60 -0.65 1.65 -0.65 4.15 -0.05 4.15 0.25 0 0.45 -0.25 0.45 -0.60 0 -0.40 0.15 -0.45 0.50 -0.10 0.70 0.70 -0.40 9.40 -1.35 10.60 -0.50 0.70 -0.60 0.15 -0.40 -3.20z"/>
  <path d="M24.75 79.10 c0.10 -0.15 -0.25 -1.15 -0.85 -2.30 -0.60 -1.10 -1.15 -2.55 -1.20 -3.15 -0.10 -1.05 0.05 -1.15 2.40 -1.15 1.95 0 2.95 -0.30 4.25 -1.30 0.90 -0.70 1.65 -1.55 1.65 -1.90 0 -0.35 0.40 -1.20 0.95 -1.85 0.75 -0.95 0.90 -1.90 0.80 -4.70 -0.25 -5.10 -1.10 -7.35 -3.05 -7.85 -0.85 -0.20 -1.85 -0.75 -2.20 -1.15 -0.35 -0.40 -1.10 -0.75 -1.65 -0.75 -0.55 0 -1.45 -0.40 -2 -0.85 -0.60 -0.55 -0.85 -0.60 -0.60 -0.20 0.25 0.50 0.20 0.60 -0.15 0.35 -0.35 -0.20 -0.60 -0.65 -0.60 -1 0 -0.35 -1.10 -1.25 -2.50 -2 -2.25 -1.25 -2.50 -1.55 -2.50 -3.10 0 -0.95 0.15 -1.70 0.40 -1.70 0.45 0 2.50 1.40 3.80 2.60 0.90 0.80 0.90 0.90 0.15 0.90 -0.45 0 -0.85 0.35 -0.85 0.75 0 0.50 0.50 0.75 1.40 0.75 0.85 0 1.90 0.50 2.60 1.25 0.65 0.70 1.75 1.25 2.45 1.25 0.70 0 1.75 0.35 2.25 0.75 0.55 0.40 1.50 0.75 2.15 0.75 1.65 0 2.35 1.80 2.55 6.90 0.10 1.20 0.40 1.75 1.30 2.10 1.15 0.40 1.20 0.60 0.95 3.45 -0.20 2.10 -0.10 3.05 0.30 3.05 0.80 0 0.65 1.45 -0.45 3.75 -0.85 1.90 -0.95 1.90 -0.95 0.65 -0.05 -0.80 0.20 -1.40 0.50 -1.40 0.25 0 0.35 -0.20 0.20 -0.50 -0.20 -0.30 -0.65 -0.25 -1.30 0.15 -0.70 0.45 -1.10 0.45 -1.35 0.05 -0.50 -0.80 -2.60 -1.40 -2.60 -0.75 0 0.75 -2.90 3.25 -4.15 3.60 -1.15 0.30 -1.20 0.60 -0.60 3.30 0.30 1.40 0.25 1.60 -0.65 1.50 -0.60 0 -0.95 -0.15 -0.85 -0.25z"/>
  <path d="M52.35 77.40 c0.25 -2.35 0.50 -2.90 1.20 -2.90 0.60 0 0.55 1.50 -0.10 3.45 -0.80 2.20 -1.40 1.90 -1.10 -0.55z"/>
  <path d="M88.10 74.70 c-2.85 -2.85 -5.90 -4.20 -9.60 -4.20 -3.90 0 -9 -2.95 -9 -5.15 0 -0.35 -0.65 -1.45 -1.50 -2.40 -1.55 -1.95 -1.50 -2.60 0.25 -2.15 0.90 0.20 1.25 -0.15 2.25 -2.30 0.65 -1.45 1.75 -3.20 2.35 -3.90 l1.15 -1.35 0 1.60 c0 1.70 -1.40 5.15 -2.10 5.15 -0.20 0 -0.25 -0.35 -0.10 -0.75 0.55 -1.35 -0.25 -0.80 -1.05 0.75 -0.95 1.85 -0.95 2.50 0 1.20 0.65 -0.90 0.70 -0.80 0.75 1.10 0 3.20 0.90 4.50 3.75 5.45 1.60 0.50 2.55 0.60 2.65 0.25 0.10 -0.25 0.40 -0.50 0.65 -0.50 0.30 0 0.40 0.20 0.20 0.45 -0.40 0.70 0.65 1.20 3.50 1.65 1.35 0.20 2.95 0.50 3.50 0.65 0.70 0.20 1.55 -0.25 2.90 -1.55 l1.85 -1.80 0 1.80 c0 1.65 -0.10 1.80 -1.50 1.80 -1.15 0 -1.50 0.25 -1.50 0.95 0 0.75 0.50 1 2.30 1.30 l2.30 0.35 -0.35 1.80 c-0.20 1 -0.50 2 -0.65 2.20 -0.20 0.15 -1.55 -0.90 -3 -2.40z"/>
  <path d="M41.50 73.45 c0 -0.75 0.35 -0.95 1.55 -0.95 1.35 0 1.50 -0.15 1.35 -1.35 -0.15 -1.20 -0.40 -1.40 -2.05 -1.55 -1.10 -0.10 -1.75 -0.35 -1.55 -0.65 0.15 -0.30 -0.05 -0.90 -0.50 -1.40 -0.75 -0.80 -0.75 -0.95 0.15 -1.75 1.30 -1.15 3.25 -0.85 3.45 0.50 0.10 0.60 0.60 1.20 1.15 1.35 0.75 0.20 0.90 0.55 0.70 1.50 -0.20 0.70 -0.10 1.40 0.20 1.55 0.30 0.20 0.55 1.10 0.55 2 0 1.60 0 1.60 -2.50 1.65 -2.15 0.05 -2.50 -0.10 -2.50 -0.90z"/>
  <path d="M60.05 71.25 c0.05 -1.90 0.25 -2.75 0.65 -2.60 0.30 0.10 0.55 0.55 0.50 1 0 0.50 -0.05 1.65 -0.10 2.60 -0.15 2.90 -1.05 1.95 -1.05 -1z"/>
  <path d="M26.50 70.50 c0 -0.50 2.95 -2.20 3.30 -1.90 0.10 0.10 -0.15 0.70 -0.60 1.30 -0.75 1.10 -2.70 1.55 -2.70 0.60z"/>
  <path d="M87 67.75 c0 -0.40 0.35 -0.75 0.80 -0.75 0.70 0 0.70 0.15 0.20 0.75 -0.35 0.40 -0.70 0.75 -0.80 0.75 -0.10 0 -0.20 -0.35 -0.20 -0.75z"/>
  <path d="M60.65 66.65 c-0.90 -0.35 -0.80 -1.65 0.10 -1.65 0.40 0 0.75 0.10 0.75 0.20 0 0.10 0.15 0.55 0.30 1 0.30 0.80 0 0.95 -1.15 0.45z"/>
  <path d="M57.85 63.90 c-1 -2.20 -1.10 -2.85 -0.65 -4.80 0.35 -1.45 0.60 -1.65 1.60 -1.45 1.20 0.20 1.20 0.20 0.40 -1.05 l-0.80 -1.20 1.65 0.20 1.70 0.15 -0.15 -2.60 c-0.20 -2.45 -0.10 -2.65 0.90 -2.65 0.95 0 1.05 0.20 0.85 1.30 -0.10 0.70 0.10 1.55 0.50 1.95 0.60 0.60 0.60 0.95 -0.05 2.50 -0.40 0.95 -1 1.75 -1.25 1.75 -0.30 0 -0.50 0.15 -0.45 0.40 0.05 0.20 -0.10 1.10 -0.30 2 -0.40 1.60 -1.80 2.30 -1.80 0.85 0 -0.40 -0.20 -0.75 -0.50 -0.75 -0.25 0 -0.35 1.05 -0.15 2.50 0.35 2.90 -0.35 3.30 -1.50 0.90z"/>
  <path d="M26.40 62.65 c-0.60 -1.25 -0.35 -3.60 0.50 -4.65 0.85 -1.05 1.10 -1.10 1.80 -0.55 1.05 0.90 1 3.20 -0.05 4.15 -1.35 1.15 -2.05 1.45 -2.25 1.05z"/>
  <path d="M20.95 61.65 c0 -0.25 -0.10 -1.35 -0.20 -2.50 -0.10 -1.20 0 -2.25 0.25 -2.40 0.20 -0.15 0.30 0.25 0.10 0.85 -0.25 1.05 -0.20 1.10 0.60 0.45 1.20 -1 1.55 -0.30 0.85 1.95 -0.50 1.75 -1.50 2.75 -1.60 1.65z"/>
  <path d="M64 59.25 c0 -0.10 0.60 -0.80 1.30 -1.50 0.70 -0.70 1.15 -1 1 -0.65 -0.15 0.35 -0.45 1.05 -0.60 1.55 -0.25 0.75 -1.70 1.25 -1.70 0.60z"/>
  <path d="M50 56.25 c0 -2 1.20 -2.45 1.70 -0.60 0.50 1.85 0.35 2.35 -0.70 2.35 -0.80 0 -1 -0.35 -1 -1.75z"/>
  <path d="M86.15 53.60 c-0.70 -1.55 -1.45 -2.95 -1.65 -3.10 -0.20 -0.15 -0.70 -0.95 -1.15 -1.80 -1.10 -2.20 -2.25 -2.55 -1.95 -0.65 0.20 1.20 0.05 1.45 -0.85 1.45 -0.95 0 -1.05 -0.25 -1.05 -3.60 l0.05 -3.65 1.40 1.65 c0.75 0.85 1.70 1.60 2.10 1.60 1.10 0.05 5.90 7.70 5.95 9.55 0 0.45 -0.35 0.95 -0.75 1.15 -0.55 0.20 -1.10 -0.55 -2.10 -2.60z"/>
  <path d="M35.30 54.40 c-0.45 -0.60 -0.80 -1.40 -0.80 -1.70 0 -0.35 -0.50 -0.45 -1.30 -0.30 -1 0.20 -1.25 0.10 -0.95 -0.40 0.25 -0.45 0.10 -0.50 -0.65 -0.30 -0.55 0.20 -1.15 0.10 -1.35 -0.20 -0.85 -1.40 7.65 -11 9.75 -11 1.30 0 4.60 -1.45 5.80 -2.55 1.05 -0.95 1.05 -0.95 2.35 0.10 l1.35 1.05 4.05 -3.40 c4.20 -3.50 5.35 -4.35 9.90 -7.55 1.50 -1 3.20 -2.35 3.85 -3 0.65 -0.65 1.50 -1.15 1.90 -1.15 0.45 0 1 -0.45 1.30 -1 0.30 -0.55 0.80 -1 1.15 -1 0.35 0 1.55 -0.90 2.60 -2 1.05 -1.10 2.15 -2 2.40 -2 0.25 0 2.40 -1.90 4.70 -4.25 3.10 -3.05 4.70 -4.30 5.90 -4.55 0.95 -0.15 1.90 -0.15 2.15 0 0.25 0.15 1.30 0.05 2.35 -0.25 2.75 -0.75 4.25 -0.25 4.25 1.45 0 0.80 -0.30 1.85 -0.70 2.40 -0.40 0.50 -0.60 1.45 -0.50 2 0.85 3.45 -6.70 11 -15.05 15.05 -2.80 1.35 -5.55 3.10 -8.80 5.60 -1.20 0.90 -3.35 2.15 -4.75 2.80 -1.70 0.75 -2.70 1.55 -2.95 2.30 -0.20 0.65 -0.40 1.35 -0.50 1.60 -0.05 0.20 -0.15 0.60 -0.20 0.85 0 0.30 -0.45 0.50 -0.95 0.50 -0.50 0 -1.15 0.25 -1.45 0.55 -0.30 0.30 -1.35 0.70 -2.30 0.95 -1.40 0.30 -1.95 0.20 -2.55 -0.45 -0.60 -0.65 -1.60 -0.85 -4.55 -0.80 -2.10 0 -3.75 -0.15 -3.75 -0.45 0 -0.25 -0.15 -0.30 -0.35 -0.15 -0.45 0.45 1.85 2.85 2.70 2.85 1.25 0 0.65 1.40 -0.70 1.65 -0.95 0.20 -1.85 -0.05 -2.80 -0.70 -1.95 -1.40 -2.30 -0.80 -0.55 0.85 l1.45 1.35 -1.70 -0.35 c-0.90 -0.15 -1.85 -0.30 -2.10 -0.30 -0.50 0 -0.60 -2.50 -0.15 -3.70 0.15 -0.45 0.60 -0.80 1 -0.80 0.40 0 0.70 -0.50 0.70 -1.30 0 -0.85 -0.20 -1.20 -0.60 -1 -0.35 0.10 -1.50 0.50 -2.50 0.85 -1.05 0.35 -1.90 0.80 -1.90 1.05 0 0.20 -0.45 0.40 -1 0.40 -0.55 0 -1 0.25 -1 0.50 0 0.30 0.20 0.50 0.45 0.50 0.25 0 0.90 0.80 1.50 1.80 0.80 1.30 1.05 2.60 1.05 5.10 -0.05 2.90 -0.10 3.25 -0.70 2.45 -0.65 -0.85 -0.70 -0.80 -0.95 0.15 -0.35 1.40 -2.55 1.35 -3.55 -0.10z m1.85 -6.85 c-0.85 -1.50 -1.65 -2.05 -1.65 -1.10 0 0.55 2.05 3.15 2.30 2.90 0.15 -0.10 -0.15 -0.90 -0.65 -1.80z m36.25 -19.50 c1.55 -0.80 3.15 -1.95 3.50 -2.50 0.35 -0.60 0.95 -1.05 1.35 -1.05 0.40 0 1.85 -1.10 3.20 -2.50 1.35 -1.35 2.70 -2.50 2.95 -2.50 0.25 0 1 -0.95 1.60 -2.10 l1.10 -2.15 -1.65 1.65 c-0.90 0.95 -2.45 2.10 -3.40 2.60 -1 0.50 -3.25 2.40 -5 4.20 -1.70 1.80 -3.35 3.30 -3.60 3.30 -0.30 0 -0.75 0.25 -1.10 0.50 -0.35 0.30 -1.05 0.85 -1.60 1.25 -1.65 1.20 -0.40 0.85 2.65 -0.70z"/>
  <path d="M3.80 53.70 c-1.15 -0.80 -0.35 -2.40 1.70 -3.45 1.45 -0.75 1.50 -0.75 1.50 0.25 0 0.65 0.35 1 1 1 0.55 0 1 -0.20 1 -0.50 0 -0.25 0.80 -0.50 1.75 -0.50 1.35 0 1.75 0.20 1.75 0.90 0 0.50 -0.40 0.90 -0.85 0.90 -0.50 0.05 -2.25 0.50 -3.95 1.05 -2.50 0.80 -3.20 0.90 -3.90 0.35z"/>
  <path d="M20.05 54.15 c-0.10 -1.05 -2.15 -1.80 -4.65 -1.70 -2.05 0.05 -2.40 -0.05 -2.40 -0.90 0 -1.40 2.35 -1.80 4.50 -0.70 2.35 1.15 3.10 1.95 2.85 3.05 -0.15 0.45 -0.25 0.60 -0.30 0.25z"/>
  <path d="M21.50 53.50 c0 -0.25 0.35 -0.50 0.75 -0.50 0.40 0 0.75 0.25 0.75 0.50 0 0.30 -0.35 0.50 -0.75 0.50 -0.40 0 -0.75 -0.20 -0.75 -0.50z"/>
  <path d="M48.50 50.50 c0 -0.65 0.35 -1 0.90 -1 1.20 0 1.60 0.40 1.25 1.30 -0.40 1.10 -2.15 0.85 -2.15 -0.30z"/>
  <path d="M73.50 48.50 c0 -1.65 0.15 -2 1 -2 0.85 0 1 0.35 1 2 0 1.65 -0.15 2 -1 2 -0.85 0 -1 -0.35 -1 -2z"/>
  <path d="M66.85 49.15 c-0.15 -0.25 -0.40 -1.50 -0.60 -2.90 -0.30 -2.20 -0.30 -2.40 0.40 -1.75 0.90 0.90 1.55 4.30 0.90 4.70 -0.25 0.20 -0.60 0.15 -0.70 -0.05z"/>
  <path d="M61.50 45.75 c0 -2.65 1.45 -2.20 1.75 0.55 0.10 0.90 -0.15 1.20 -0.80 1.20 -0.75 0 -0.95 -0.40 -0.95 -1.75z"/>
  <path d="M2.35 44.65 c-0.15 -0.90 0 -1.70 0.50 -2.25 1.05 -1.20 2.15 -1.15 2.15 0.10 0 0.85 0.35 1 2.50 1 2.20 0 2.50 0.15 2.50 1.05 0 0.60 -0.20 0.90 -0.55 0.65 -0.30 -0.15 -0.75 -0.05 -0.95 0.35 -0.35 0.55 -0.65 0.55 -1.65 0 -0.90 -0.50 -1.50 -0.50 -2.25 -0.10 -1.55 0.85 -1.95 0.70 -2.25 -0.80z"/>
  <path d="M70.10 44.70 c0.20 -1.05 1.10 -1.15 1.30 -0.05 0.10 0.50 -0.15 0.85 -0.65 0.85 -0.50 0 -0.75 -0.30 -0.65 -0.80z"/>
  <path d="M68.75 42.50 c-0.15 -0.25 -0.85 -0.50 -1.55 -0.50 -1.85 0 -1.45 -0.75 0.75 -1.40 2.60 -0.80 5.05 -0.30 5.05 1 0 0.80 -0.15 0.90 -0.70 0.45 -0.50 -0.45 -0.75 -0.40 -1 0.20 -0.30 0.85 -2.05 1 -2.55 0.25z"/>
  <path d="M75 42.50 c0 -0.25 -0.35 -0.50 -0.75 -0.50 -0.40 0 -0.75 -0.45 -0.75 -1 0 -1.20 0.90 -1.25 3.25 -0.30 2.35 1 2.35 2.30 0 2.30 -0.95 0 -1.75 -0.20 -1.75 -0.50z"/>
  <path d="M39.70 37.95 c0.15 -0.95 0.40 -2.25 0.50 -2.95 0.50 -3.75 0.95 -6.05 1.65 -8.50 0.40 -1.50 0.90 -3.85 1.10 -5.25 0.20 -1.35 0.50 -2.80 0.75 -3.15 0.20 -0.35 0.70 -2.25 1.05 -4.25 0.75 -4.05 1.80 -7.10 2.70 -8 0.50 -0.45 0.80 -0.35 1.55 0.55 1.10 1.35 1.45 1.35 2.30 0.25 0.65 -0.85 0.75 -0.85 1.45 0.10 1.65 2.10 2.15 6.15 1.20 9.25 -0.30 0.95 -0.65 2.70 -0.75 3.80 -0.25 2.45 -3.25 10.10 -5.10 13.05 -1.65 2.65 -2.85 3.30 -2.35 1.30 0.30 -1.35 0.30 -1.35 -0.70 -0.45 -0.55 0.50 -1.15 1.40 -1.35 1.95 -0.35 1.05 -1.70 2.45 -3.40 3.40 -0.85 0.50 -0.90 0.40 -0.60 -1.10z"/>
 </g>
 <g fill="#6a5d0e">
  <path d="M34.45 95.45 c-0.05 -0.10 -0.10 -1.35 -0.20 -2.80 -0.10 -2.35 0 -2.50 0.85 -2 1 0.65 1.10 1.25 0.40 2.35 -0.25 0.45 -0.25 0.85 0.05 1.05 0.30 0.15 0.20 0.55 -0.30 0.95 -0.40 0.35 -0.80 0.55 -0.80 0.45z"/>
  <path d="M37.35 92.55 c0.85 -1.20 1.50 -3.05 1.85 -5.50 0.40 -2.80 0.70 -3.10 2.45 -2.40 l1.35 0.60 -1 1.65 c-0.55 0.90 -1.25 1.50 -1.50 1.35 -0.25 -0.15 -0.40 0 -0.25 0.35 0.15 0.35 -0.60 1.55 -1.60 2.70 -1.05 1.10 -1.65 1.65 -1.30 1.25z"/>
  <path d="M48 91.10 c0 -0.20 0.35 -0.85 0.75 -1.45 0.40 -0.60 0.60 -1.40 0.45 -1.80 -0.35 -0.90 1.05 -4 2.15 -4.95 0.70 -0.55 0.75 -0.40 0.40 1.10 -0.75 3.45 -3.75 9.15 -3.75 7.10z"/>
  <path d="M57 83.65 c0 -0.40 2.50 -7.75 2.85 -8.35 0.45 -0.70 1.15 0.90 0.85 1.95 -0.80 3.05 -3.70 8.10 -3.70 6.40z"/>
  <path d="M26.15 81.45 c-0.45 -0.45 -0.05 -1.05 1.50 -2.30 1.15 -1 2.30 -2.05 2.50 -2.45 0.20 -0.40 0.65 -0.70 0.95 -0.70 0.30 0 0.85 -0.40 1.20 -0.85 0.35 -0.50 0.70 -0.65 0.70 -0.30 0 0.65 -5.35 7.15 -5.95 7.15 -0.20 0 -0.60 -0.25 -0.90 -0.55z"/>
  <path d="M45 81.05 c0 -0.70 1.90 -4.05 2.30 -4.05 0.45 0 0.15 0.85 -1.05 2.75 -0.65 1.10 -1.25 1.70 -1.25 1.30z"/>
  <path d="M55.30 76.75 c0.15 -2.20 0.40 -4.15 0.50 -4.35 0.15 -0.25 0.05 -0.40 -0.25 -0.40 -0.25 0 -0.55 0.25 -0.65 0.55 -0.10 0.35 -0.65 0.45 -1.25 0.25 -0.85 -0.25 -1.15 -0.80 -1.25 -2.40 l-0.15 -2.10 -2.25 -0.05 c-1.25 -0.05 -2.75 -0.25 -3.35 -0.45 -1.20 -0.40 -3.35 -4.10 -2.95 -5.10 0.20 -0.55 -0.05 -0.65 -0.90 -0.40 -1.15 0.25 -1.20 0.15 -1.40 -2.90 -0.15 -2.30 -0.50 -3.60 -1.25 -4.60 -1.05 -1.35 -1.10 -1.35 -1.65 -0.35 -0.30 0.60 -0.85 1.05 -1.20 1.05 -0.90 0 -2.30 -1.65 -2.30 -2.70 0 -0.65 -0.30 -0.85 -1 -0.65 -0.50 0.15 -1.20 -0.05 -1.50 -0.40 -0.30 -0.40 -0.90 -0.55 -1.30 -0.40 -0.40 0.15 -0.70 0.10 -0.70 -0.05 0 -0.70 1.65 -3.60 2.65 -4.65 1.05 -1.15 3.05 -1.55 3.55 -0.70 0.15 0.25 -0.10 0.40 -0.55 0.35 -0.60 -0.05 -0.85 0.50 -0.95 2.35 -0.10 1.80 0 2.35 0.60 2.35 0.40 0 1.30 0.35 1.95 0.80 1.25 0.80 1.25 0.80 1.25 -0.60 0 -0.80 -0.35 -1.90 -0.75 -2.40 -1.05 -1.40 -0.95 -1.80 0.50 -1.80 0.90 0 1.25 0.25 1.25 1 0 0.55 0.25 1 0.50 1 0.30 0 0.50 0.55 0.50 1.25 0 1.20 0.95 3.80 1.55 4.25 0.20 0.15 0.45 0.95 0.55 1.75 0.15 1.45 0.20 1.50 2.80 1.40 3.85 -0.15 4.15 -0.45 3.05 -3 -0.85 -2.05 -1.05 -2.15 -2.95 -2.15 -1.75 0 -2.15 -0.20 -3 -1.60 -1.05 -1.75 -1.45 -7.40 -0.50 -7.40 0.30 0 0.50 -0.35 0.50 -0.75 0 -0.45 -0.45 -0.75 -1.20 -0.75 -0.65 0 -1.30 0.35 -1.50 0.75 -0.15 0.40 -0.60 0.75 -1.05 0.75 -0.40 0 -0.75 0.25 -0.75 0.50 0 0.30 -0.70 0.50 -1.50 0.50 -1.40 0 -1.50 -0.10 -1 -1 0.30 -0.55 0.85 -1 1.20 -1 0.40 0 0.85 -0.35 1 -0.80 0.20 -0.45 0.45 -0.70 0.65 -0.55 0.15 0.15 1.10 -0.05 2.10 -0.45 1.05 -0.50 3.05 -0.75 4.75 -0.75 1.90 0.05 3.10 -0.15 3.35 -0.55 0.20 -0.35 0.55 -0.45 0.80 -0.20 0.20 0.20 -0.05 0.60 -0.60 0.90 -0.50 0.30 -1.45 1.10 -2.05 1.75 -0.95 1.05 -1.05 1.40 -0.50 2.70 0.50 1.40 0.75 1.50 2.40 1.35 2.15 -0.20 2.40 0.20 0.80 1.30 -1.55 1.10 -2.55 1 -4.05 -0.40 -0.85 -0.80 -1.45 -1.05 -1.65 -0.70 -0.45 0.75 2.75 3.35 4.15 3.40 1.85 0 2.55 0.50 2.30 1.55 -0.30 1.15 1.20 6.35 2.15 7.50 0.60 0.65 0.45 1 -1.05 2.30 -1.85 1.65 -2.30 3.55 -1.05 4.60 0.85 0.70 1.50 -0.05 1.55 -1.70 0 -1.35 1.70 -1.50 3.20 -0.25 1.10 0.95 1.15 1.15 0.50 2.40 -0.40 0.75 -0.90 1.50 -1.20 1.70 -0.30 0.25 -0.25 0.40 0.20 0.40 0.50 0 0.60 0.40 0.40 1.45 -0.35 1.75 0.10 2.35 0.95 1.15 1.10 -1.50 1.20 -0.40 0.40 4.45 -0.95 6.05 -1.80 7.05 -1.40 1.70z"/>
  <path d="M89.45 75.85 c-0.65 -1 -1.45 -1.85 -1.80 -1.85 -0.30 0 -0.95 -0.50 -1.35 -1.05 -1.05 -1.55 -3.70 -3.05 -3.95 -2.30 -0.15 0.40 -0.50 0.35 -1.15 -0.25 -0.90 -0.85 -0.85 -0.90 0.60 -0.90 0.85 0 2.25 0.25 3.10 0.55 1.30 0.45 1.75 0.35 2.95 -0.55 0.75 -0.55 2.10 -2.05 2.90 -3.25 0.85 -1.25 1.60 -2.25 1.75 -2.25 0.45 0 0.05 6.40 -0.55 9.50 -0.85 4.20 -1.15 4.45 -2.50 2.35z"/>
  <path d="M24.25 76.20 c-0.55 -0.40 -1 -1 -1 -1.35 -0.05 -0.35 -0.25 -1 -0.45 -1.50 -0.60 -1.25 -0.35 -1.30 2 -0.90 3.25 0.60 5.70 -1.15 6.90 -4.90 1.80 -5.65 1.25 -10.55 -1.30 -12 -0.80 -0.45 -1.95 -1.20 -2.50 -1.65 -0.60 -0.50 -1.40 -0.90 -1.85 -0.90 -0.45 0 -2.15 -1 -3.80 -2.25 -1.65 -1.25 -3.15 -2.25 -3.40 -2.25 -0.20 0 -1.30 -0.45 -2.50 -0.95 -4.65 -2.10 -10.50 -3.05 -12.45 -2 -0.70 0.35 -1 0.30 -1.25 -0.35 -0.15 -0.45 0 -1 0.40 -1.25 0.50 -0.30 0.55 -0.45 0.05 -0.45 -0.50 0 -0.50 -0.20 0 -1 0.65 -1.05 2.40 -1.40 2.40 -0.50 0 0.70 2.90 0.60 3.10 -0.10 0.35 -0.95 5.75 0.40 8.85 2.25 1.50 0.85 4.10 3 5.75 4.75 1.80 1.80 3.45 3.10 4.10 3.10 0.55 0 1.45 0.35 2 0.75 0.50 0.40 1.45 0.75 2.05 0.75 0.80 0 1 0.25 0.80 1 -0.20 0.65 0 1 0.45 1 0.80 0 1.90 3 1.90 5.20 0 0.90 0.35 1.50 1.20 1.85 1.20 0.55 1.70 2.40 1.90 6.60 0.05 2 -0.90 2.80 -1.85 1.55 -0.70 -0.95 -0.70 -0.95 -0.75 0.10 0 0.90 -0.35 1.10 -2.50 1.30 -1.60 0.15 -2.95 0.65 -3.65 1.30 -0.60 0.55 -1.55 1.10 -2.10 1.20 -0.70 0.15 -0.95 0.55 -0.90 1.30 0.15 1.30 -0.20 1.35 -1.60 0.30z m10.75 -7.70 c0 -0.55 -0.10 -1 -0.25 -1 -0.10 0 -0.45 0.45 -0.75 1 -0.45 0.80 -0.40 1 0.25 1 0.40 0 0.75 -0.45 0.75 -1z"/>
  <path d="M28 76.60 c0 -0.25 0.45 -0.85 1 -1.35 0.80 -0.70 1 -0.75 1 -0.20 0 0.80 -0.95 1.95 -1.60 1.95 -0.20 0 -0.40 -0.20 -0.40 -0.40z"/>
  <path d="M41.10 71.85 c-0.35 -1.50 -0.40 -2.80 -0.15 -3.25 0.30 -0.55 0.20 -1 -0.25 -1.35 -0.85 -0.60 -0.35 -1.50 1.15 -1.95 0.90 -0.30 1.25 -0.05 1.85 1.15 0.45 0.80 1.05 1.55 1.35 1.65 0.35 0.10 0.65 0.75 0.75 1.45 0.05 0.65 0.25 2 0.45 3 l0.35 1.75 -2.45 0 -2.45 0 -0.60 -2.45z"/>
  <path d="M27 70.35 c0 -0.40 0.55 -0.95 1.25 -1.25 1.90 -0.90 2.05 -0.75 0.75 0.65 -1.30 1.40 -2 1.60 -2 0.60z"/>
  <path d="M75.50 69.90 c-4.30 -1.75 -4.40 -1.85 -5.75 -4.65 -0.75 -1.55 -1.80 -3.10 -2.35 -3.45 -0.70 -0.50 -0.80 -0.80 -0.40 -1.05 0.35 -0.20 0.80 -0.10 1 0.25 0.50 0.80 2 0.30 2 -0.70 0 -0.40 0.80 -2.10 1.75 -3.75 1.65 -2.80 1.80 -3.35 1.80 -7.25 0.05 -6 -0.75 -8.25 -2.65 -7.25 -0.55 0.30 -1.35 0.35 -1.80 0.15 -0.45 -0.20 -1.05 -0.30 -1.25 -0.25 -0.25 0.05 -0.35 -0.20 -0.25 -0.55 0.45 -1.25 6.40 -1.90 6.40 -0.70 0 0.40 0.25 0.80 0.60 0.90 0.40 0.15 0.70 1.65 0.80 3.90 0.20 3.70 0.60 4.50 2.25 5.15 0.45 0.15 0.85 0.65 0.85 1.10 0 0.40 0.25 0.75 0.50 0.75 0.55 0 0.70 -5.55 0.20 -7.35 -0.20 -0.65 -0.70 -1.15 -1.15 -1.15 -1.25 -0.05 -2.55 -1.25 -2.55 -2.45 0 -0.55 0.25 -1.05 0.50 -1.05 0.30 0 0.50 0.20 0.50 0.50 0 0.25 0.30 0.35 0.70 0.20 0.45 -0.20 2.20 1.20 4.55 3.65 4.65 4.70 6.25 6.95 6.25 8.70 0 0.75 0.30 1.45 0.60 1.55 0.50 0.20 0.45 0.45 -0.15 1.05 -0.75 0.70 -0.90 0.60 -1.95 -1.70 -0.65 -1.35 -1.60 -2.80 -2.10 -3.30 -0.50 -0.45 -0.90 -1.15 -0.90 -1.60 0 -0.90 -1.35 -3.05 -1.90 -3.05 -0.20 0 -0.35 2.75 -0.30 6.15 0 6.70 -0.70 11.75 -1.95 14.15 -0.70 1.40 -0.75 1.70 -0.10 2.20 1.65 1.35 -1.10 2 -3.75 0.90z m1.85 -4.65 c0.65 -1.20 1.25 -3.40 1.45 -4.85 0.30 -2.60 0.25 -2.65 -1.25 -3.30 -0.85 -0.40 -1.55 -1.05 -1.55 -1.50 -0.05 -2.25 -1.70 2.55 -1.95 5.65 -0.25 3 -0.45 3.55 -1.45 4.05 l-1.15 0.55 1.15 0.40 c0.65 0.20 1.60 0.55 2.15 0.75 0.55 0.25 1.10 0.40 1.25 0.45 0.15 0 0.75 -1 1.35 -2.20z m-6.35 -4.55 c0.60 -0.95 1 -1.85 0.85 -2 -0.20 -0.20 -2.35 3.05 -2.35 3.60 0 0.55 0.50 0.05 1.50 -1.60z"/>
  <path d="M86 68.60 c0 -0.25 0.70 -1.05 1.50 -1.85 1.70 -1.65 2 -1.05 0.45 0.95 -1 1.25 -1.95 1.70 -1.95 0.90z"/>
  <path d="M60 66.60 c-1 -0.10 -1.40 -0.65 -2.10 -2.80 -1.65 -4.95 -0.80 -7.70 1.70 -5.45 0.75 0.70 0.90 0.70 0.90 0.05 0 -0.40 -0.45 -1.15 -1.05 -1.70 -0.60 -0.55 -0.90 -1.30 -0.75 -1.85 0.50 -1.95 -0.65 -6.55 -2.20 -8.65 -1.80 -2.55 -1.85 -2.70 -0.30 -2.70 0.70 0 1.85 -0.55 2.60 -1.25 1.50 -1.40 2.10 -1.50 3.20 -0.60 0.85 0.65 1 1.70 1.15 8 0.05 2.40 0.25 4.35 0.50 4.35 0.95 0 0.15 2.45 -2.95 8.65 -0.55 1.20 -0.55 1.45 0 1.65 0.75 0.30 1.40 2.10 0.90 2.35 -0.20 0.05 -0.90 0.05 -1.60 -0.05z m1.45 -17.40 c0.15 -0.80 0.05 -0.85 -0.65 -0.25 -0.95 0.80 -1.05 1.70 -0.15 1.45 0.30 -0.15 0.70 -0.65 0.80 -1.20z"/>
  <path d="M26.75 61.40 c-0.40 -1.10 0.55 -3.65 1.40 -3.80 0.65 -0.15 0.85 0.20 0.85 1.15 0 2.35 -1.65 4.30 -2.25 2.65z"/>
  <path d="M63 59.85 c0 -0.40 0.55 -0.95 1.25 -1.25 1.15 -0.55 1.25 -0.50 1.25 0.65 0 1 -0.25 1.25 -1.25 1.25 -0.70 0 -1.25 -0.30 -1.25 -0.65z"/>
  <path d="M19.70 53.75 c-0.85 -1.10 -1.40 -1.25 -4.95 -1.40 -2.20 -0.10 -4.35 0 -4.75 0.20 -1.05 0.55 -3.60 1.15 -4.35 1 -0.35 -0.05 -0.65 0.15 -0.65 0.45 0 0.25 -0.40 0.10 -0.90 -0.35 -0.65 -0.65 -0.80 -1.15 -0.50 -1.75 0.85 -1.70 5.05 -3.15 5.50 -1.95 0.10 0.30 1.05 0.30 2.45 0 1.90 -0.40 2.70 -0.35 4.90 0.55 1.45 0.55 3 1.35 3.40 1.75 0.40 0.40 1.25 0.75 1.95 0.75 1.40 0 1.50 0.40 0.35 1.30 -1.20 0.90 -1.30 0.90 -2.45 -0.55z"/>
  <path d="M82 23.50 c0 -0.55 0.35 -1 0.75 -1 0.65 0 0.70 0.20 0.25 1 -0.30 0.55 -0.65 1 -0.75 1 -0.15 0 -0.25 -0.45 -0.25 -1z"/>
  <path d="M49.25 21.10 c0.30 -0.20 0.80 -0.95 1.10 -1.70 0.85 -1.95 1.65 -1.75 1.65 0.35 0 1.65 -0.10 1.75 -1.60 1.75 -0.90 0 -1.40 -0.20 -1.15 -0.40z"/>
 </g>
 <g fill="#756b13">
  <path d="M39.50 88.05 c0 -1.45 1.80 -3.45 2.50 -2.75 0.45 0.45 0.20 0.95 -0.95 2.15 -1.30 1.35 -1.55 1.45 -1.55 0.60z"/>
  <path d="M49.85 87.70 c0.15 -0.45 0.30 -1.20 0.35 -1.75 0.05 -0.55 0.30 -0.95 0.55 -0.95 0.60 0 0.60 0.25 0.05 2.15 -0.25 0.75 -0.60 1.35 -0.85 1.35 -0.25 0 -0.30 -0.35 -0.10 -0.80z"/>
  <path d="M57.50 82.40 c0 -0.90 0.25 -1.40 0.75 -1.40 0.95 0 0.95 0.55 0 1.80 -0.70 0.90 -0.70 0.90 -0.75 -0.40z"/>
  <path d="M27.85 80.15 c-0.35 -0.55 3 -4 3.45 -3.55 0.15 0.20 -0.50 1.15 -1.45 2.20 -0.90 1 -1.85 1.65 -2 1.35z"/>
  <path d="M59 77.60 c0 -0.50 0.35 -1.35 0.75 -1.90 0.65 -0.90 0.70 -0.85 0.75 0.95 0 1.30 -0.20 1.85 -0.75 1.85 -0.40 0 -0.75 -0.40 -0.75 -0.90z"/>
  <path d="M24.35 76.15 c-0.65 -0.60 -0.35 -2.65 0.35 -2.65 0.40 0 0.85 0.15 0.95 0.40 0.30 0.55 -0.95 2.65 -1.30 2.25z"/>
  <path d="M89.20 74.85 c-0.60 -0.60 -2.05 -1.95 -3.25 -3 -1.75 -1.50 -1.90 -1.80 -0.80 -1.30 1.20 0.55 1.50 0.50 2.75 -0.60 0.75 -0.65 1.40 -1.35 1.50 -1.55 0.10 -0.20 0.65 -0.95 1.25 -1.70 l1.05 -1.35 0.40 1.45 c0.25 0.80 0.30 2.55 0.10 3.90 -0.25 1.85 -0.55 2.50 -1.30 2.70 -0.75 0.15 -0.90 0.50 -0.70 1.40 0.40 1.45 0.30 1.45 -1 0.05z"/>
  <path d="M42.65 73.65 c-0.35 -0.15 -0.65 -0.45 -0.65 -0.70 0 -0.30 0.25 -0.35 0.50 -0.20 0.30 0.20 0.10 -0.40 -0.45 -1.25 -0.50 -0.85 -0.80 -2 -0.70 -2.55 0.20 -0.60 -0.10 -1.25 -0.65 -1.70 -1.10 -0.80 -0.95 -1.05 0.90 -1.50 1.15 -0.30 1.50 -0.15 1.90 0.80 0.30 0.65 1 2 1.50 2.95 0.55 0.95 0.95 2.35 1 3.10 0 1.15 -0.20 1.35 -1.35 1.30 -0.80 -0.05 -1.70 -0.15 -2 -0.25z"/>
  <path d="M52.80 72.05 c-0.20 -0.25 -0.20 -0.80 -0.05 -1.15 0.15 -0.40 0.05 -1.35 -0.25 -2.15 -0.40 -1 -0.40 -1.50 0 -1.75 0.35 -0.25 0.40 -0.75 0.05 -1.65 -0.40 -1.05 -0.35 -1.50 0.30 -2.15 0.80 -0.75 0.90 -0.75 1.75 0.30 1 1.25 1.20 3.50 0.35 3.50 -0.40 0 -0.50 0.85 -0.25 2.75 0.30 2.50 0.20 2.75 -0.65 2.75 -0.55 0 -1.10 -0.20 -1.25 -0.45z"/>
  <path d="M30 71.70 c0 -0.15 0.40 -0.90 0.90 -1.60 0.50 -0.75 1.30 -2.90 1.75 -4.85 1.20 -5.15 0.05 -9.10 -3 -10.30 -0.65 -0.25 -1.15 -0.75 -1.15 -1.15 0 -0.40 -0.40 -0.85 -0.85 -0.95 -0.60 -0.15 -0.50 -0.25 0.35 -0.30 0.70 0 1.70 0.30 2.20 0.70 0.55 0.40 1.40 0.75 1.90 0.75 0.95 0 1.25 0.80 1.65 4.75 0.15 1.40 0.40 3.60 0.55 4.90 0.20 1.70 0.05 3.10 -0.60 4.75 -0.50 1.30 -0.80 2.45 -0.75 2.55 0.10 0.10 -0.15 0.40 -0.55 0.60 -0.75 0.50 -2.40 0.60 -2.40 0.15z"/>
  <path d="M71.45 67.60 c-1 -0.80 -1.45 -1.65 -1.45 -2.65 0 -0.95 0.20 -1.40 0.50 -1.20 0.60 0.35 2 -0.60 2 -1.35 0 -0.30 -0.45 -0.40 -1.05 -0.25 -0.95 0.25 -0.95 0.20 -0.30 -0.80 0.80 -1.25 2.55 -6.55 2.65 -8.10 0.05 -0.55 0.10 -1.85 0.15 -2.85 0.10 -2.70 1.50 -2.50 4.70 0.55 l2.55 2.45 -0.60 5.55 c-0.35 3.25 -0.90 6.20 -1.45 7.15 -0.45 0.90 -0.80 1.95 -0.70 2.30 0.05 0.50 -0.60 0.60 -2.75 0.55 -2.15 -0.10 -3.15 -0.40 -4.25 -1.35z m7.70 -12.70 c-0.65 -0.60 -1.30 -0.95 -1.45 -0.75 -0.20 0.20 0.05 0.70 0.60 1.10 1.45 1.10 2.05 0.90 0.85 -0.35z m-2.25 -2 c-0.10 -0.30 -0.50 -0.70 -0.80 -0.80 -0.35 -0.10 -0.50 0.10 -0.30 0.60 0.35 0.90 1.40 1.10 1.10 0.20z"/>
  <path d="M46.05 67.05 c-1.10 -0.70 -0.10 -1.55 1.90 -1.55 1.75 0 3.05 0.70 3.05 1.60 0 0.55 -4.05 0.50 -4.95 -0.05z"/>
  <path d="M59.15 65.90 c-0.85 -1.05 -0.95 -3.20 -0.15 -4.20 0.55 -0.75 0.55 -0.85 0 -0.30 -1.40 1.25 -2.15 0.75 -1.75 -1.25 0.40 -2.30 0.45 -2.30 1.65 -1.95 0.70 0.25 0.90 0.65 0.75 1.35 -0.25 0.90 -0.15 1 0.80 0.70 1.05 -0.30 1.10 -0.25 0.95 2.85 -0.10 2.40 -0.35 3.20 -0.95 3.30 -0.45 0.05 -1.05 -0.15 -1.30 -0.50z"/>
  <path d="M45.50 63.90 c0 -0.90 0.90 -1.70 1.40 -1.20 0.15 0.20 -0.10 0.70 -0.55 1.15 -0.80 0.80 -0.85 0.80 -0.85 0.05z"/>
  <path d="M63.25 60 c-0.15 -0.30 0.05 -0.65 0.50 -0.80 0.95 -0.40 1.50 0 1 0.75 -0.40 0.70 -1.10 0.70 -1.50 0.05z"/>
  <path d="M51.50 59.30 c0 -0.65 -0.20 -0.80 -0.85 -0.55 -0.50 0.25 -2.70 0.45 -4.90 0.45 l-4 0.05 -0.25 -1.50 c-0.15 -0.80 -0.65 -2.25 -1.15 -3.15 -0.50 -0.90 -1 -2.35 -1.10 -3.20 -0.10 -0.80 -0.75 -2.40 -1.50 -3.45 l-1.25 -1.95 1.20 0 c1.05 0 1.25 -0.30 1.40 -1.60 0.15 -1.55 0.30 -1.65 2.80 -2.05 2.10 -0.35 2.60 -0.60 2.60 -1.40 0 -1 0.40 -1.15 1.70 -0.65 0.90 0.35 1.10 1.95 0.30 2.45 -1 0.60 1.40 3.20 3.15 3.35 l1.60 0.15 -1.65 0.90 c-1.75 0.95 -3.20 0.60 -4.50 -1.25 -1.70 -2.40 -2.25 0.75 -0.60 3.50 1 1.65 1.70 2 2.25 1.10 0.15 -0.25 0.75 -0.50 1.30 -0.50 0.70 0 1.30 0.65 2 2.25 1.60 3.60 2.35 6.60 1.90 7.30 -0.35 0.55 -0.45 0.50 -0.45 -0.25z m-2.40 -2.60 c0.70 -0.45 0.45 -2.10 -0.40 -2.40 -0.45 -0.15 -1.35 -0.30 -2.05 -0.30 -1.65 0 -3.90 -2.35 -4.70 -4.90 -0.40 -1.50 -0.90 -2.10 -1.55 -2.10 -0.50 0 -0.90 0.35 -0.90 0.75 0 0.40 0.30 0.75 0.70 0.75 0.45 0 0.80 0.85 1.05 2.50 0.20 1.40 0.55 2.50 0.80 2.50 0.25 0 0.45 0.55 0.45 1.25 0 0.70 0.25 1.25 0.50 1.25 0.30 0 0.50 0.35 0.50 0.80 0 0.70 0.40 0.80 2.60 0.50 1.40 -0.20 2.75 -0.45 3 -0.60z"/>
  <path d="M61.05 58.15 c-0.60 -1.15 0.05 -2.30 1.65 -2.85 0.80 -0.25 0.85 -0.15 0.55 1.05 -0.15 0.80 -0.60 1.70 -1 2.10 -0.55 0.55 -0.75 0.50 -1.20 -0.30z"/>
  <path d="M58.70 51.65 l-0.45 -3.40 1.70 -1.35 c0.90 -0.80 1.85 -1.40 2.10 -1.40 0.25 0 0.65 0.90 0.95 1.95 0.70 2.65 0 4.30 -2.80 6.70 -1.10 0.90 -1.10 0.90 -1.50 -2.50z"/>
  <path d="M20.25 53.95 c-0.50 -0.70 -0.05 -1.05 0.95 -0.65 0.45 0.15 0.65 0.50 0.50 0.75 -0.35 0.60 -1.05 0.55 -1.45 -0.10z"/>
  <path d="M4.50 52.90 c0 -0.35 0.45 -1.20 0.95 -1.85 0.80 -1 1.45 -1.20 4.45 -1.40 2.40 -0.10 4.15 0.05 5.35 0.55 2.65 1.15 2.25 2 -0.75 1.60 -1.65 -0.20 -3 -0.10 -4.15 0.40 -2.75 1.10 -5.85 1.50 -5.85 0.70z"/>
  <path d="M84.05 49.15 c-2.75 -3.10 -3 -3.30 -3.05 -2.05 0 1.05 -0.20 1.25 -1 1.05 -0.65 -0.15 -1 -0.70 -1 -1.45 0 -1.20 -1.55 -3.20 -2.50 -3.20 -0.25 0 -0.50 -0.75 -0.50 -1.60 0 -0.90 0.20 -1.40 0.40 -1.10 0.20 0.25 1.20 0.90 2.25 1.35 1 0.50 1.85 1.10 1.85 1.30 0 0.25 1.10 1.60 2.45 3 2.15 2.25 4.85 6.05 4.35 6.05 -0.10 0 -1.55 -1.50 -3.25 -3.35z"/>
  <path d="M19.75 48.70 c-5.40 -2.95 -9.70 -4.30 -13.55 -4.30 -1.75 0 -3.05 -0.20 -2.90 -0.45 0.15 -0.25 0 -0.45 -0.35 -0.45 -0.35 0 -0.25 -0.40 0.30 -1 0.95 -1.05 2.75 -1.35 2.75 -0.50 0 0.70 1.85 0.65 2.10 -0.05 0.20 -0.60 6.10 0.60 8.15 1.65 3 1.55 8.35 6.50 7.65 7.15 -0.10 0.05 -1.95 -0.85 -4.15 -2.05z"/>
  <path d="M57.55 45.85 c-0.45 -0.55 -0.40 -0.85 0.25 -1.40 0.65 -0.55 0.85 -0.50 1.25 0.10 0.85 1.40 -0.45 2.55 -1.50 1.30z"/>
  <path d="M60.35 44.30 c-0.30 -0.70 0.50 -1.80 1.25 -1.80 0.20 0 0.40 0.45 0.40 0.95 0 1.10 -1.30 1.75 -1.65 0.85z"/>
  <path d="M73 42.75 c-0.40 -0.70 -1 -1.15 -1.35 -1.05 -0.35 0.15 -0.65 -0.05 -0.65 -0.45 0 -0.50 0.55 -0.75 1.75 -0.75 1.65 0 1.75 0.10 1.75 1.75 0 2.05 -0.55 2.25 -1.50 0.50z"/>
 </g>
 <g fill="#958712">
  <path d="M40.10 86.65 c0.20 -1.10 1.90 -1.50 1.90 -0.50 0 0.40 -0.35 0.90 -0.80 1.05 -1.15 0.45 -1.30 0.40 -1.10 -0.55z"/>
  <path d="M57.50 82.40 c0 -1.15 1.85 -5.60 2.45 -5.80 0.80 -0.25 0.65 1.05 -0.40 3.55 -1 2.25 -2.05 3.45 -2.05 2.25z"/>
  <path d="M24.45 76.40 c-0.40 -0.75 -0.20 -2.40 0.30 -2.40 0.40 0 0.50 0.45 0.35 1.25 -0.20 1.10 -0.45 1.55 -0.65 1.15z"/>
  <path d="M43 73.25 c0 -0.45 -0.35 -1.35 -0.80 -2 -0.95 -1.45 -0.50 -3.25 0.80 -3.25 0.65 0 1.35 0.70 2 2 1.50 2.95 1.25 5.05 -0.40 3.40 -0.45 -0.45 -0.60 -0.45 -0.60 0 0 0.35 -0.20 0.60 -0.50 0.60 -0.25 0 -0.50 -0.35 -0.50 -0.75z"/>
  <path d="M87.65 73.15 c-1.10 -0.75 -1.60 -2.15 -0.75 -2.15 0.45 0.05 3.10 2.35 3.10 2.75 0 0.50 -1.25 0.20 -2.35 -0.60z"/>
  <path d="M53.20 71.80 c-0.20 -0.45 -0.20 -1.50 0 -2.35 0.15 -0.80 0 -2.35 -0.35 -3.35 -0.80 -2.25 -0.60 -3.10 0.65 -3.10 1.45 0 2.25 3.30 1.70 6.55 -0.45 2.65 -1.45 3.70 -2 2.25z"/>
  <path d="M31.40 69.90 c0.55 -0.90 1.15 -2.80 1.35 -4.15 0.40 -3.10 1.05 -4.40 1.55 -3.10 0.90 2.35 -1.40 8.85 -3.15 8.85 -0.60 0 -0.55 -0.30 0.25 -1.60z"/>
  <path d="M90.85 69.45 c-1.10 -1.20 -0.95 -2.60 0.30 -2.85 0.70 -0.15 0.85 0.20 0.85 1.85 0 1.15 -0.05 2.05 -0.10 2 -0.10 0 -0.55 -0.50 -1.05 -1z"/>
  <path d="M72.40 67.20 c-1.05 -0.65 -1.90 -1.55 -1.90 -1.95 0 -0.85 0.80 -1 1.25 -0.20 0.20 0.25 1.40 1.15 2.65 1.95 2.05 1.30 2.20 1.50 1.10 1.45 -0.70 0 -2.10 -0.55 -3.10 -1.25z"/>
  <path d="M40.50 66.50 c0 -0.75 0.35 -1 1.25 -1 0.90 0 1.25 0.25 1.25 1 0 0.75 -0.35 1 -1.25 1 -0.90 0 -1.25 -0.25 -1.25 -1z"/>
  <path d="M46.75 67 c-0.20 -0.30 0.35 -0.50 1.35 -0.50 1.25 0 1.45 0.15 0.90 0.50 -0.95 0.65 -1.85 0.65 -2.25 0z"/>
  <path d="M59 65.05 c-0.75 -1.50 -0.60 -2.40 0.60 -3.25 1.45 -1.05 2 -0.55 1.70 1.65 -0.15 1 -0.25 1.95 -0.30 2.20 0 0.75 -1.50 0.30 -2 -0.60z"/>
  <path d="M57 61.40 c0 -1.65 0.70 -2.90 1.55 -2.90 1.25 0 1.25 1.60 0.05 2.65 -1.10 1 -1.60 1.05 -1.60 0.25z"/>
  <path d="M27 59.55 c0 -1.65 0.80 -2.45 1.60 -1.65 0.70 0.70 0.05 3.10 -0.85 3.10 -0.50 0 -0.75 -0.50 -0.75 -1.45z"/>
  <path d="M42 58.35 c0 -0.35 -0.45 -1.50 -1 -2.60 -0.55 -1.05 -1.15 -2.75 -1.30 -3.70 -0.35 -1.90 -1.25 -3.60 -2.85 -5.40 -0.95 -1.10 -0.95 -1.10 0.40 -2.45 1.15 -1.15 1.65 -1.30 3.55 -1.05 1.20 0.10 2.20 0.05 2.20 -0.20 0 -0.25 0.80 -0.45 1.75 -0.45 0.95 0 1.70 0.15 1.70 0.40 -0.20 1.20 0.15 2.60 0.55 2.35 0.30 -0.15 0.65 0.05 0.80 0.50 0.25 0.60 0.70 0.70 1.85 0.45 0.95 -0.20 1.35 -0.15 1.15 0.20 -0.40 0.70 -3.05 1.25 -4.20 0.90 -1.15 -0.40 -2.45 -2.95 -1.65 -3.20 0.30 -0.10 0.40 -0.40 0.25 -0.70 -0.45 -0.70 -2.20 1.10 -2.20 2.30 0.05 1.65 1.75 5.10 3 5.95 0.70 0.50 1.70 0.70 2.50 0.55 1.40 -0.30 1.90 0.35 2.95 4.15 l0.45 1.60 -2.45 0.50 c-3.55 0.75 -7.45 0.70 -7.45 -0.10z m6.70 -1.65 c0.60 -0.25 0.65 -0.50 0.20 -1.50 -0.40 -0.90 -0.95 -1.20 -2.10 -1.20 -2 0 -3.50 -1.05 -4.30 -3 -1.15 -2.80 -1.10 -1.15 0.10 2.45 l1.15 3.55 2.10 0 c1.15 0 2.40 -0.15 2.85 -0.30z m-6.45 -11.65 c0.35 -0.60 -0.60 -1.20 -1.25 -0.80 -0.55 0.35 -0.20 1.25 0.50 1.25 0.25 0 0.55 -0.20 0.75 -0.45z"/>
  <path d="M61.50 57.80 c0 -0.35 0.35 -0.95 0.75 -1.30 0.80 -0.65 1 -0.15 0.45 1.20 -0.40 1 -1.20 1.05 -1.20 0.10z"/>
  <path d="M32.25 57 c-0.20 -0.55 -0.95 -1.35 -1.70 -1.75 -1.20 -0.60 -2.05 -1.65 -2.05 -2.55 0 -0.15 0.45 0 0.95 0.30 0.55 0.25 1.35 0.50 1.85 0.50 1.15 0 2.15 1.45 2.20 3.15 0 1.55 -0.80 1.80 -1.25 0.35z"/>
  <path d="M77.15 52.50 c-2.95 -2.80 -3.15 -3.10 -3.15 -5.20 0 -2.65 -0.70 -4.80 -1.85 -5.70 -0.80 -0.55 -0.80 -0.60 0 -0.60 0.45 0 0.85 -0.25 0.85 -0.55 0 -0.60 3 -0.25 3.50 0.45 0.15 0.20 1.05 0.90 2 1.55 0.95 0.70 2.65 2.25 3.75 3.50 l2 2.25 -1.85 -1.40 -1.85 -1.40 0.30 1.80 c0.25 1.60 0.15 1.80 -0.80 1.80 -0.80 0 -1.05 -0.30 -1.05 -1.35 0 -2.40 -0.55 -3.65 -1.55 -3.65 -0.55 0 -0.95 -0.35 -0.95 -0.75 0 -0.40 -0.25 -0.75 -0.55 -0.75 -0.35 0 -0.45 0.70 -0.25 2 0.15 1.10 0.45 2.90 0.60 4 0.25 1.65 0.50 2 1.40 2 1.50 0 3.30 2 3.30 3.65 0 0.75 -0.15 1.35 -0.35 1.35 -0.25 -0.05 -1.80 -1.35 -3.50 -3z"/>
  <path d="M58.80 52.15 c-0.45 -2.85 -0.35 -4.15 0.30 -4.15 0.30 0 0.95 -0.35 1.45 -0.80 1.40 -1.25 2.45 -0.55 2.45 1.60 0 1.45 -0.35 2.20 -1.75 3.50 -0.90 0.95 -1.80 1.70 -1.90 1.70 -0.10 0 -0.35 -0.85 -0.55 -1.85z"/>
  <path d="M5.50 52.35 c0 -1.65 2.70 -2.95 5.75 -2.75 3.10 0.20 3.35 0.95 0.65 1.85 -6.75 2.15 -6.40 2.10 -6.40 0.90z"/>
  <path d="M32 48.80 c0 -1.35 1.10 -2.45 2.25 -2.20 0.65 0.10 0.60 0.40 -0.35 1.75 -1.35 1.95 -1.90 2.05 -1.90 0.45z"/>
  <path d="M17.75 47.45 c-4.35 -2.10 -8.95 -3.45 -11.75 -3.45 -0.95 0 -2.10 -0.25 -2.50 -0.50 -1.20 -0.80 0.80 -2 3.35 -2 1.90 0 8.05 1.95 11.50 3.60 1.50 0.70 4.35 3.75 3.80 4.05 -0.20 0.10 -2.20 -0.65 -4.40 -1.70z"/>
 </g>
 <g fill="#97753e">
  <path d="M38.85 88.85 c0.35 -1.80 2 -3.70 2.65 -3.05 0.45 0.45 0.25 0.90 -0.70 1.85 -0.70 0.70 -1.30 1.55 -1.30 1.85 0 0.25 -0.20 0.50 -0.45 0.50 -0.20 0 -0.30 -0.50 -0.20 -1.15z"/>
  <path d="M49.50 88.80 c0 -0.55 1.60 -3.85 1.80 -3.70 0.25 0.30 -1.20 3.90 -1.55 3.90 -0.15 0 -0.25 -0.10 -0.25 -0.20z"/>
  <path d="M57.75 81.15 c0.20 -0.50 0.70 -1.90 1.10 -3.15 0.95 -2.75 1.65 -3.60 1.65 -2.05 0 1.70 -1.10 5.05 -1.60 5.05 -0.25 0 -0.30 0.25 -0.15 0.50 0.15 0.30 -0.05 0.50 -0.50 0.50 -0.60 0 -0.75 -0.25 -0.50 -0.85z"/>
  <path d="M52.70 77.50 c0.15 -0.70 0.30 -1.55 0.30 -1.85 0 -0.35 0.25 -0.65 0.50 -0.65 0.75 0 0.55 1.65 -0.35 2.75 -0.75 1 -0.75 0.95 -0.45 -0.25z"/>
  <path d="M24.60 76.40 c-0.70 -0.70 -0.80 -1.40 -0.15 -1.40 0.25 0 0.55 0.45 0.70 1 0.30 1.15 0.25 1.20 -0.55 0.40z"/>
  <path d="M42.60 72.35 c-0.80 -2.25 -0.75 -2.85 0.30 -2.85 1.40 0.05 2.60 1.25 2.60 2.65 0 0.95 -0.20 1.25 -0.75 1.05 -0.40 -0.20 -0.75 -0.05 -0.75 0.25 0 1.15 -0.80 0.50 -1.40 -1.10z"/>
  <path d="M60.40 70.25 c-0.15 -0.70 -0.05 -1.25 0.15 -1.25 0.25 0 0.45 0.55 0.45 1.25 0 0.70 -0.10 1.25 -0.20 1.25 -0.10 0 -0.30 -0.55 -0.40 -1.25z"/>
  <path d="M53.25 68.70 c-0.30 -2.20 0.10 -3.15 1.35 -3.20 0.50 0 0.85 1.55 0.65 3 -0.10 0.70 -0.20 1.55 -0.20 1.90 -0.05 0.30 -0.35 0.60 -0.75 0.60 -0.45 0 -0.80 -0.85 -1.05 -2.30z"/>
  <path d="M40.25 67 c-0.45 -0.75 0.20 -1.50 1.25 -1.50 1.20 0 1.80 1 0.95 1.55 -0.95 0.60 -1.80 0.55 -2.20 -0.05z"/>
  <path d="M59.60 65.90 c-0.90 -0.90 -0.75 -1.40 0.40 -1.40 0.65 0 1 0.35 1 1 0 1.15 -0.50 1.30 -1.40 0.40z"/>
  <path d="M52.65 64.95 c-0.75 -0.75 -0.25 -1.95 0.85 -1.95 0.55 0 0.85 0.35 0.80 1.10 -0.05 1.25 -0.85 1.65 -1.65 0.85z"/>
  <path d="M57.50 61.20 c0 -1 0.85 -2.20 1.60 -2.20 0.75 0 0.40 1.35 -0.60 2.25 -0.95 0.90 -1 0.85 -1 -0.05z"/>
  <path d="M21 60.35 c0 -0.65 0.35 -1.60 0.75 -2.15 0.70 -0.95 0.70 -0.95 0.75 0.05 0 1.50 -0.55 3.25 -1.05 3.25 -0.25 0 -0.45 -0.50 -0.45 -1.15z"/>
  <path d="M26.50 60.05 c0 -1.70 1.35 -3.10 2 -2.10 0.20 0.40 0.30 1.05 0.25 1.50 -0.10 0.45 -0.20 1.10 -0.20 1.45 -0.05 0.30 -0.50 0.60 -1.05 0.60 -0.75 0 -1 -0.35 -1 -1.45z"/>
  <path d="M33.05 56.75 c-0.05 -0.25 -0.95 -0.95 -2.05 -1.45 -1.10 -0.55 -2 -1.30 -2 -1.70 0 -0.60 0.20 -0.55 1.10 0.20 0.60 0.50 0.90 0.65 0.70 0.35 -0.25 -0.45 0 -0.65 0.65 -0.65 1.15 0 2.20 1.65 1.90 2.90 -0.15 0.45 -0.25 0.65 -0.30 0.35z"/>
  <path d="M4.50 52.85 c0 -1.60 4.50 -3.75 6.50 -3.10 0.90 0.30 1.50 1.85 0.65 1.65 -0.25 0 -0.75 0.05 -1.15 0.20 -5.80 2.15 -6 2.20 -6 1.25z"/>
  <path d="M30.50 51.15 c0.10 -1 2 -3.80 4.10 -6.05 2.70 -2.80 5.55 -4.35 9.05 -4.85 2.15 -0.35 2.35 -0.30 2.35 0.70 0 0.55 0.25 1.05 0.60 1.05 0.45 0 0.45 0.15 0.05 0.55 -0.45 0.45 -0.25 1.10 0.70 2.50 1.45 2.20 1.35 2.65 -0.55 2.15 -1.30 -0.30 -2.20 -2.10 -1.60 -3.15 0.60 -0.95 -0.60 -1 -1.45 -0.05 -0.65 0.75 -1.05 0.85 -1.55 0.45 -0.75 -0.60 -3.40 0.60 -4.15 1.90 -0.40 0.75 -0.55 0.75 -1.30 0.15 -0.75 -0.60 -1 -0.50 -2.15 0.90 -0.75 0.85 -1.75 2.15 -2.25 2.85 -0.85 1.20 -1.85 1.70 -1.85 0.90z"/>
  <path d="M39.45 50.20 c-1.05 -1.30 -1.05 -2.50 0.05 -2.55 0.80 -0.05 1 0.25 1 1.65 0 1.95 -0.10 2 -1.05 0.90z"/>
  <path d="M66.85 48.25 c-0.15 -0.80 -0.45 -2 -0.65 -2.60 -0.20 -0.70 -0.10 -1.15 0.20 -1.15 0.65 0 1.30 2.95 1 4.35 -0.15 0.65 -0.30 0.50 -0.55 -0.60z"/>
  <path d="M80 46.25 c0 -0.95 0.10 -1.75 0.20 -1.75 0.10 0 0.30 0.80 0.40 1.75 0.10 0.95 0 1.75 -0.20 1.75 -0.20 0 -0.40 -0.80 -0.40 -1.75z"/>
  <path d="M10.35 44.20 c-0.10 -0.10 -1.65 -0.25 -3.45 -0.25 -3.80 -0.05 -4.85 -0.45 -3.65 -1.45 1.70 -1.40 9.25 -0.60 9.25 1 0 0.40 -1.80 1 -2.15 0.70z"/>
  <path d="M73.10 42.35 c-0.40 -0.45 -1.45 -0.60 -3.30 -0.50 -3.45 0.15 -4 -0.55 -1.05 -1.35 3.05 -0.85 6.60 -0.45 8.35 1 1.35 1.10 1.10 1.50 -0.85 1.50 -1.05 0 -1.75 -0.25 -1.75 -0.60 0 -0.50 -0.10 -0.50 -0.45 0 -0.30 0.55 -0.50 0.50 -0.95 -0.05z"/>
  <path d="M54.75 37 c0.50 -0.55 1 -0.90 1.15 -0.80 0.25 0.30 -1.15 1.80 -1.70 1.80 -0.20 0 0.05 -0.45 0.55 -1z"/>
  <path d="M58.75 37 c-0.40 -0.65 -0.45 -0.60 1.35 -1.35 0.75 -0.35 1.40 -1.05 1.50 -1.70 0.10 -0.70 1.15 -1.80 2.65 -2.85 1.40 -1 2.60 -1.95 2.65 -2.20 0.10 -0.20 0.40 -0.40 0.65 -0.40 0.25 0 0.90 -0.40 1.40 -0.85 1.80 -1.65 2.50 -2.15 3 -2.15 0.25 0 1.90 -1.50 3.60 -3.30 1.75 -1.80 4 -3.70 5 -4.20 0.95 -0.50 2.55 -1.70 3.50 -2.65 2 -2.10 5.60 -3 6.15 -1.60 0.30 0.85 -0.45 2.75 -1.15 2.75 -0.20 0 -0.90 1 -1.50 2.25 -0.60 1.25 -1.35 2.25 -1.65 2.25 -0.25 0 -1.60 1.15 -2.95 2.50 -1.35 1.40 -2.80 2.50 -3.20 2.50 -0.40 0 -1 0.45 -1.35 1.05 -0.35 0.55 -2.45 1.95 -4.65 3.05 -2.20 1.10 -5.65 3.15 -7.70 4.50 -3.80 2.45 -6.65 3.40 -7.30 2.40z"/>
  <path d="M58 34.35 c0 -0.40 0.85 -1.30 1.90 -1.90 2.75 -1.75 3 -1.75 1.45 -0.05 -0.80 0.80 -1.25 1.60 -1 1.70 0.20 0.15 0.10 0.15 -0.30 0.05 -0.35 -0.10 -1 0.10 -1.35 0.40 -0.55 0.45 -0.70 0.40 -0.70 -0.20z"/>
  <path d="M48.15 29.90 c0.15 -0.65 0.65 -2.60 1.15 -4.30 0.70 -2.70 0.75 -3.25 0.15 -3.65 -0.50 -0.30 -0.55 -0.55 -0.15 -0.80 0.90 -0.65 2.70 -4.95 2.70 -6.55 0 -0.85 0.30 -1.60 0.75 -1.80 0.55 -0.20 0.75 0.10 0.75 1.15 0 2.15 -2.35 11.20 -3.75 14.30 -1.20 2.80 -2.10 3.70 -1.60 1.65z"/>
 </g>
 <g fill="#a99b13">
  <path d="M58.25 80.45 c0.45 -0.85 0.95 -1.40 1.10 -1.25 0.40 0.40 -0.85 2.80 -1.45 2.80 -0.25 0 -0.05 -0.70 0.35 -1.55z"/>
  <path d="M59.20 77.20 c0.15 -0.45 0.30 -0.90 0.30 -1 0 -0.10 0.25 -0.20 0.50 -0.20 0.30 0 0.50 0.45 0.50 1 0 0.60 -0.35 1 -0.80 1 -0.55 0 -0.70 -0.25 -0.50 -0.80z"/>
  <path d="M43.90 72.30 c-1.60 -1.25 -1.85 -2.80 -0.45 -2.80 1.30 0 2.15 1.20 1.95 2.70 l-0.15 1.20 -1.35 -1.10z"/>
  <path d="M53.55 71.35 c-0.70 -1.80 -0.70 -3.65 -0.05 -4.90 0.95 -1.70 1.50 -1 1.50 1.95 0 3.55 -0.70 4.95 -1.45 2.95z"/>
  <path d="M32 69.45 c0.35 -0.55 0.70 -1.60 0.80 -2.30 0.15 -0.70 0.45 -2.10 0.65 -3.10 0.45 -1.75 0.45 -1.70 0.50 0.85 0.05 2.65 -1 5.60 -2 5.60 -0.30 0 -0.30 -0.40 0.05 -1.05z"/>
  <path d="M71.95 66.55 c-0.65 -0.55 -1.10 -1.10 -0.95 -1.20 0.15 -0.15 0.95 0.30 1.75 0.95 0.85 0.65 1.25 1.20 0.95 1.20 -0.35 0 -1.10 -0.45 -1.75 -0.95z"/>
  <path d="M59 64.70 c-0.70 -1.75 -0.65 -2.10 0.45 -2.65 1.25 -0.70 1.55 -0.25 1.55 2.05 0 2.25 -1.25 2.65 -2 0.60z"/>
  <path d="M57 61.25 c0 -0.80 1.35 -1.60 1.85 -1.05 0.35 0.35 -0.80 1.80 -1.40 1.80 -0.25 0 -0.45 -0.35 -0.45 -0.75z"/>
  <path d="M42.25 58.35 c-0.45 -1.70 -2.45 -7.30 -3.05 -8.70 -0.80 -1.75 -0.85 -2.15 -0.30 -2.10 1.35 0.25 2.60 -0.15 2.60 -0.80 0 -1.55 0.95 -0.65 2.15 1.95 1.35 2.95 2.75 4.05 4.70 3.65 1.05 -0.20 1.40 0.05 2.20 1.85 1.75 3.80 1.40 4.10 -4.95 4.50 -2.15 0.15 -3.20 0 -3.35 -0.35z m6.75 -3.10 c0 -0.40 -0.35 -0.75 -0.75 -0.75 -0.40 0 -0.75 0.35 -0.75 0.75 0 0.40 0.35 0.75 0.75 0.75 0.40 0 0.75 -0.35 0.75 -0.75z"/>
  <path d="M30.40 55.10 c-0.80 -0.50 -1.40 -1.15 -1.40 -1.50 0 -0.40 0.55 -0.25 1.50 0.50 0.85 0.60 1.50 1.25 1.50 1.50 0 0.50 0.10 0.50 -1.60 -0.50z"/>
  <path d="M77.35 52.35 c-3.10 -2.80 -3.55 -3.85 -1.70 -3.85 1.40 0 2.65 1.25 3 3 0.35 2.05 0.40 -2 0.05 -4.70 -0.20 -1.45 -0.60 -2.30 -1 -2.30 -0.40 0 -0.70 -0.20 -0.70 -0.50 0 -0.25 -0.20 -0.50 -0.50 -0.50 -0.25 0 -0.50 0.90 -0.50 2 0 2.95 -1.25 2.65 -2 -0.50 -0.35 -1.40 -0.80 -2.65 -1.05 -2.80 -0.75 -0.45 -0.50 -1.60 0.45 -1.80 0.95 -0.25 4.80 1.65 6.25 3.05 0.70 0.70 0.95 2 1.20 6.20 0.15 3.05 0.10 5.35 -0.15 5.35 -0.25 -0.05 -1.75 -1.20 -3.35 -2.65z"/>
  <path d="M59.30 52.95 c-0.15 -0.40 -0.30 -1.55 -0.40 -2.55 -0.25 -2.30 0.60 -2.50 1.50 -0.40 0.60 1.25 0.55 1.65 -0.10 2.55 -0.60 0.85 -0.80 0.95 -1 0.40z"/>
  <path d="M4.50 52.85 c0 -0.10 0.70 -0.65 1.55 -1.30 l1.55 -1.15 -0.85 1.30 c-0.50 0.70 -1.20 1.30 -1.55 1.30 -0.40 0 -0.70 -0.05 -0.70 -0.15z"/>
  <path d="M9 51.50 c0 -0.25 0.45 -0.50 1.05 -0.50 0.55 0 0.85 0.25 0.70 0.50 -0.15 0.30 -0.65 0.50 -1.05 0.50 -0.40 0 -0.70 -0.20 -0.70 -0.50z"/>
  <path d="M18.75 47.60 c-2.65 -1.60 -8.95 -3.55 -11.90 -3.70 -4.40 -0.25 -3.20 -1.15 1.40 -1.10 3.45 0 4.50 0.25 7.50 1.70 3.60 1.70 5.25 2.85 5.25 3.60 0 0.60 -0.60 0.50 -2.25 -0.50z"/>
  <path d="M46.40 46.95 c-1.15 -0.65 -1.15 -1.30 0 -1.20 1.10 0.05 2.10 0.65 2.10 1.30 0 0.60 -1 0.55 -2.10 -0.10z"/>
  <path d="M39.75 41.50 c0.15 -0.25 0.65 -0.50 1.05 -0.50 0.40 0 0.60 0.25 0.45 0.50 -0.15 0.30 -0.65 0.50 -1.05 0.50 -0.40 0 -0.60 -0.20 -0.45 -0.50z"/>
 </g>
 <g fill="#afa612">
  <path d="M43.90 72.15 c-1.75 -0.90 -1.85 -2.15 -0.15 -2.15 0.90 0 1.30 0.35 1.55 1.25 0.40 1.65 0.25 1.75 -1.40 0.90z"/>
  <path d="M53.45 70.90 c-0.10 -1.20 -0.10 -3.20 0 -4.25 0.05 -0.35 0.40 -0.65 0.80 -0.65 0.80 0 1 1.70 0.45 4.45 -0.35 1.80 -1.15 2.05 -1.25 0.45z"/>
  <path d="M32.95 67.40 c0.55 -1.75 0.85 -2.25 0.95 -1.55 0.15 0.90 -1.10 4.15 -1.60 4.15 -0.05 0 0.25 -1.15 0.65 -2.60z"/>
  <path d="M59.60 65.40 c-0.35 -0.35 -0.60 -1.25 -0.60 -2.05 0 -1.10 0.20 -1.40 0.90 -1.25 0.60 0.10 0.90 0.70 1 2.05 0.15 1.90 -0.25 2.30 -1.30 1.25z"/>
  <path d="M26.60 60.70 c0.20 -1.05 1.10 -1.15 1.30 -0.05 0.10 0.50 -0.15 0.85 -0.65 0.85 -0.50 0 -0.75 -0.30 -0.65 -0.80z"/>
  <path d="M57 61.10 c0 -0.25 0.45 -0.85 1.05 -1.40 1.05 -0.95 1.05 -0.95 0.90 0.30 -0.20 1.15 -1.95 2.15 -1.95 1.10z"/>
  <path d="M42.05 56.95 c-0.70 -2 -0.70 -1.95 0.15 -1.95 0.40 0 0.80 0.30 0.95 0.65 0.15 0.45 0.40 0.45 1.05 -0.10 0.65 -0.55 0.80 -1.15 0.60 -2.20 -0.25 -1.25 -0.20 -1.40 0.60 -1.05 0.45 0.20 1.70 0.40 2.70 0.35 1.75 -0.05 1.90 0.05 2.60 2.20 0.45 1.25 0.65 2.45 0.55 2.70 -0.45 0.70 -4.75 1.10 -6.05 0.50 -0.75 -0.30 -1.20 -0.35 -1.20 -0.05 0 1.15 -1.45 0.35 -1.95 -1.05z"/>
  <path d="M77.35 52.15 c-2.60 -2.25 -2.75 -2.55 -2.80 -4.80 -0.05 -1.30 -0.50 -3.35 -1.05 -4.45 -0.55 -1.15 -1 -2.15 -1 -2.25 0 -0.10 0.55 -0.15 1.25 -0.15 2.05 0 6.65 3.20 6.65 4.60 0 0.65 0.05 2.90 0.10 5.05 0.05 2.20 -0.05 4.05 -0.15 4.20 -0.15 0.10 -1.50 -0.85 -3 -2.20z"/>
  <path d="M5 52.60 c0 -0.20 0.45 -0.65 1.05 -1 0.95 -0.60 0.95 -0.55 0.45 0.40 -0.50 0.95 -1.50 1.40 -1.50 0.60z"/>
  <path d="M59.60 51 c-0.35 -0.55 -0.60 -1.25 -0.60 -1.60 0.05 -0.35 0.40 0 0.80 0.75 0.90 1.65 0.70 2.30 -0.20 0.85z"/>
  <path d="M17.75 46.80 c-0.55 -0.35 -1.80 -0.85 -2.75 -1.05 -0.95 -0.20 -2.35 -0.70 -3.15 -1.05 -0.75 -0.40 -2.80 -0.80 -4.60 -0.90 -4.60 -0.20 -3.80 -1.05 0.85 -0.95 3.35 0.05 4.40 0.35 7.60 1.85 3.65 1.80 5 2.80 3.70 2.80 -0.40 0 -1.10 -0.30 -1.65 -0.70z"/>
  <path d="M46.40 46.95 c-0.50 -0.25 -0.90 -0.70 -0.90 -0.90 0 -0.70 2.40 0 2.70 0.75 0.30 0.80 -0.55 0.90 -1.80 0.15z"/>
  <path d="M69.25 41 c-0.15 -0.30 0.20 -0.45 0.95 -0.40 0.65 0.05 1.10 0.30 1 0.50 -0.35 0.55 -1.60 0.50 -1.95 -0.10z"/>
 </g>
</svg>