<?xml version="1.0" encoding="UTF-8" standalone="no"?>
<svg
   version="1.0"
   width="37.835903"
   height="40.105556"
   viewBox="0 0 37.835903 40.105556"
   preserveAspectRatio="xMidYMid"
   id="svg1800"
   xmlns="http://www.w3.org/2000/svg"
   xmlns:svg="http://www.w3.org/2000/svg">
  <defs
     id="defs1804" />
  <g
     fill="#200508"
     id="g1204"
     transform="translate(0.05,0.05)">
    <path
       d="m 0.1,38.15 c 0.15,-1.8 0.25,-1.9 2.05,-2.05 2.15,-0.2 3.3,0.8 3.35,2.8 0,1 -0.25,1.1 -2.8,1.1 h -2.75 z"
       id="path1186" />
    <path
       d="m 16.7,34.2 c 0.2,-1.55 0.45,-3.05 0.65,-3.35 0.35,-0.6 5.6,-0.1 6.3,0.6 0.35,0.35 0.35,0.9 -0.1,1.75 -0.4,0.65 -0.5,1.45 -0.35,1.75 0.25,0.35 -0.25,0.55 -1.4,0.55 -1.25,0 -1.8,0.2 -1.8,0.75 C 20,36.8 19.45,37 18.2,37 h -1.85 z"
       id="path1188" />
    <path
       d="m 4.5,34.4 c 0,-0.9 -0.45,-2.3 -1,-3.15 -0.95,-1.45 -1.35,-4.8 -0.7,-6.45 0.4,-1.1 3.7,-1.1 3.7,-0.05 0,0.4 0.25,0.75 0.5,0.75 0.3,0 0.5,-0.55 0.5,-1.25 0,-1.1 0.2,-1.25 2,-1.25 1.75,0 2.15,0.2 3.15,1.9 0.65,1 1.8,2.15 2.55,2.55 1,0.55 1.3,1.1 1.3,2.4 0,1.55 -0.1,1.65 -1.8,1.65 -2,0 -3.7,-0.75 -4.45,-1.95 C 9.8,28.7 9.5,29.5 8.6,34 8.25,35.6 8.05,35.75 6.35,35.9 4.55,36.05 4.5,36 4.5,34.4 Z"
       id="path1190" />
    <path
       d="m 30,29.75 c 0,-0.65 0.2,-0.7 1,-0.25 0.55,0.3 1,0.65 1,0.75 0,0.15 -0.45,0.25 -1,0.25 -0.55,0 -1,-0.35 -1,-0.75 z"
       id="path1192" />
    <path
       d="m 31.1,24 c -0.8,-1.3 -0.75,-2.5 0.05,-2.5 0.4,0 0.9,0.8 1.2,1.75 0.65,2 -0.15,2.5 -1.25,0.75 z"
       id="path1194" />
    <path
       d="m 7,19.5 c 0,-1.95 0.05,-2 1.75,-2 1.6,0 1.75,-0.1 1.75,-1.5 0,-1.35 0.15,-1.5 1.65,-1.5 2.1,0 2.85,0.75 2.85,2.9 v 1.75 L 12.75,18.9 c -2.2,-0.25 -2.25,-0.25 -2.25,1.15 0,1.3 -0.15,1.45 -1.75,1.45 C 7.05,21.5 7,21.45 7,19.5 Z"
       id="path1196" />
    <path
       d="m 17.65,17.5 c -0.15,-0.55 -0.45,-1 -0.7,-1 -0.25,0 -0.45,-0.9 -0.45,-2 0,-1.75 0.15,-2 1.15,-2 1.05,-0.05 1.05,-0.05 0.15,-0.6 -0.7,-0.4 -1.2,-0.4 -1.85,0.05 -0.55,0.3 -2.2,0.55 -3.7,0.55 H 9.5 v -2 c 0,-1.7 0.15,-2 1,-2 0.6,0 1.6,-0.4 2.3,-0.85 1.15,-0.75 1.8,-0.75 5.75,-0.3 2.45,0.35 4.65,0.7 4.95,0.9 0.65,0.4 0.65,4.75 0,4.75 -0.25,0 -0.5,0.45 -0.5,0.95 0,0.55 -0.35,1.3 -0.75,1.75 -0.4,0.4 -0.75,1.2 -0.75,1.75 0,1.5 -3.45,1.55 -3.85,0.05 z"
       id="path1198" />
    <path
       d="m 27.5,15.5 v -3 H 26 c -1.45,0 -1.5,-0.1 -1.5,-2.15 0,-2.7 1.1,-3.85 3.75,-3.85 h 1.9 L 29.9,8.75 c -0.2,1.7 -0.1,2.25 0.4,2.25 0.45,0 0.7,0.55 0.7,1.5 0,1.15 -0.15,1.4 -0.85,1.15 -0.7,-0.25 -0.75,-0.05 -0.5,1.4 0.15,0.95 0.4,2.1 0.6,2.6 0.3,0.7 0.1,0.85 -1.2,0.85 H 27.5 Z"
       id="path1200" />
    <path
       d="m 35.5,10.95 c 0,-0.3 -0.45,-1.1 -1,-1.8 -0.55,-0.7 -1,-1.75 -1,-2.35 0,-0.6 -0.35,-1.55 -0.8,-2.1 -0.6,-0.75 -0.75,-0.8 -0.5,-0.1 0.1,0.45 0.35,1.6 0.45,2.5 0.1,0.9 0.1,1.25 0,0.8 C 32.55,7.4 32,7 31.45,7 30.7,7 30.5,6.65 30.5,5.25 30.5,3.7 30.65,3.5 31.75,3.5 c 0.9,0 1.25,-0.25 1.25,-1 0,-1.6 1.25,-1.15 1.85,0.65 0.55,1.45 1.65,6.9 1.65,7.95 0,0.2 -0.2,0.4 -0.5,0.4 -0.25,0 -0.5,-0.25 -0.5,-0.55 z"
       id="path1202" />
  </g>
  <g
     fill="#0a0840"
     id="g1210"
     transform="translate(0.05,0.05)">
    <path
       d="m 17.65,19.25 c -0.85,-1.8 -1.55,-2.15 -2.5,-1.2 -0.3,0.3 -1.3,0.45 -2.2,0.35 C 11.4,18.25 11.25,18.1 11.1,16.45 11,15 11.2,14.5 12.2,13.85 14.25,12.5 17.6,11.5 20.15,11.5 h 2.35 v 2 c 0,1.1 -0.2,2 -0.4,2 -0.25,0 -0.35,1.25 -0.2,2.75 L 22.1,21 h -1.8 c -1.6,0 -1.9,-0.2 -2.65,-1.75 z"
       id="path1206" />
    <path
       d="m 26.15,17.5 c -0.15,-0.55 -0.6,-1 -0.95,-1 -0.5,0 -0.7,-0.65 -0.7,-1.95 0,-2.4 1.3,-3.55 4.1,-3.55 1.6,0 1.95,0.2 2.2,1.25 0.4,1.6 0.05,2 -0.9,1.1 -0.6,-0.6 -0.7,-0.4 -0.8,1.6 -0.05,1.65 0.05,2.1 0.4,1.55 0.3,-0.45 0.5,-0.5 0.5,-0.15 0,0.3 0.15,0.9 0.3,1.35 0.25,0.65 -0.1,0.8 -1.8,0.8 -1.65,0 -2.15,-0.2 -2.35,-1 z"
       id="path1208" />
  </g>
  <g
     fill="#3c100e"
     id="g1224"
     transform="translate(0.05,0.05)">
    <path
       d="m 0,37.65 c 0,-2.4 0.35,-2.9 3.15,-4.8 C 4,32.3 3.95,32.15 3,30.25 2.45,29.2 2,27.6 1.95,26.75 L 1.9,25.25 1.4,26.65 C 0.65,28.7 0,28.3 0,25.75 0,23.55 0.05,23.5 1.65,23.5 c 1.6,0 1.6,-0.05 1.45,-2 -0.2,-2 -0.2,-2 1.55,-2 C 6.1,19.5 6.4,19.3 6.6,18.25 6.75,17.55 6.65,16.85 6.45,16.7 5.85,16.35 5.9,10.65 6.5,10.25 6.8,10.1 7,9.05 7,7.95 7,6.05 7.05,6 8.75,6 c 1.4,0 1.75,0.2 1.75,1 0,1.25 1.85,1.35 2.75,0.15 C 13.8,6.4 14.3,6.4 18.95,7 21.7,7.35 24,7.85 24,8.1 c 0,0.2 0.55,0.4 1.2,0.4 0.75,0 1.3,-0.35 1.45,-1 0.2,-0.75 0,-1 -0.7,-1 C 25.15,6.5 25,6.15 25,4.2 V 1.95 l 1.9,0.15 c 1.6,0.15 1.85,0.35 2,1.55 0.25,1.9 1.6,1.8 1.6,-0.15 0,-1.4 0.15,-1.5 1.75,-1.5 1.2,0 1.75,0.25 1.75,0.7 0,0.4 0.2,0.8 0.5,0.9 0.55,0.15 2,6.35 2,8.65 C 36.5,13.4 36.35,13.6 36,13 35.75,12.6 35.5,11.75 35.5,11.2 35.5,10.6 35.2,9.85 34.8,9.55 34.4,9.25 33.85,8 33.55,6.75 32.9,4.25 31.65,2.9 32.15,5.3 32.3,6.1 32.35,6.45 32.2,6.15 31.65,4.9 31.05,5.5 31.5,6.8 31.8,7.5 32,8.75 32,9.55 32,10.4 32.25,11 32.65,11 c 0.9,0 1.65,2.75 1.45,5.15 -0.3,3.85 -2.35,1.2 -2.2,-2.9 l 0.05,-1.5 -0.35,1.4 c -0.35,1.4 -0.35,1.4 -1.4,0.45 -0.6,-0.55 -2,-1.1 -3.25,-1.2 -1.2,-0.15 -2.6,-0.4 -3.05,-0.6 -0.7,-0.35 -0.85,-0.05 -1,2.05 -0.15,2.15 -0.3,2.4 -1.45,2.55 -1.35,0.15 -2.75,-1 -2.25,-1.85 0.2,-0.3 0.65,-0.4 1,-0.25 0.35,0.15 0.8,-0.1 0.95,-0.5 0.25,-0.55 0,-0.8 -0.65,-0.8 -0.7,0 -1,-0.35 -1,-1.05 0,-0.9 0.2,-1 1.5,-0.7 1.15,0.25 1.5,0.15 1.5,-0.45 0,-1 -0.35,-1.15 -4,-1.75 -3.35,-0.55 -5,-0.15 -5,1.25 0,0.65 0.15,0.65 1.15,0 0.8,-0.55 1.6,-0.6 2.85,-0.3 l 1.75,0.4 -1.95,0.05 c -1.9,0.05 -1.95,0.05 -1.65,1.8 0.25,1.55 0.1,1.8 -1.55,2.8 -2.45,1.5 -2.4,1.45 -1.6,1.95 0.65,0.4 0.6,0.5 -0.1,0.5 -0.7,0 -0.9,0.4 -0.9,1.75 0,1.65 0.1,1.75 1.65,1.75 1.4,0 1.85,0.3 2.6,1.65 0.55,1.05 0.8,2.35 0.65,3.5 -0.2,1.7 -0.1,1.85 1.65,2.55 1,0.4 1.95,1.1 2.1,1.5 0.4,1 3.15,1.05 3.5,0.15 0.35,-0.9 4.45,-2.05 5.8,-1.6 0.6,0.15 1.05,0.65 1.05,1.1 0,0.6 -0.35,0.7 -1.8,0.45 -1.65,-0.35 -1.75,-0.3 -1.25,0.65 0.75,1.4 0.7,1.65 -0.35,1 -0.75,-0.5 -1.25,-0.4 -2.5,0.55 -0.9,0.65 -1.6,1.45 -1.6,1.8 0,1.05 3.65,3.7 5.05,3.7 0.75,0 1.85,0.45 2.5,1 l 1.2,0.95 -2.1,0.05 C 28.45,40 27.5,39.8 27.5,39.5 27.5,39.25 26.7,39 25.75,39 24.55,39 24,38.75 24,38.25 24,37.45 23.3,37.35 19.55,37.5 17.1,37.6 16.5,37.05 16.5,34.7 16.5,33.25 16.25,33 13.75,32 12.25,31.4 11,30.7 11,30.45 11,30.2 10.65,30 10.25,30 9.4,30 9.2,32.75 10,33.25 c 0.55,0.35 0.65,2.85 0.2,5.2 C 9.9,39.95 9.8,40 7,40 4.5,40 4.1,39.85 3.5,38.75 2.7,37.3 1.95,37.35 1.25,38.9 0.45,40.65 0,40.2 0,37.65 Z M 22.25,33.5 C 22.6,32.95 21.9,32.6 20,32.4 c -0.8,-0.1 -1.25,0.15 -1.4,0.75 -0.15,0.7 0.15,0.85 1.6,0.85 0.95,0 1.9,-0.25 2.05,-0.5 z M 5,27.5 C 5,25.85 4.85,25.45 4.5,26 4.25,26.4 4,27.75 4,29 4,30.65 4.15,31.05 4.5,30.5 4.75,30.1 5,28.75 5,27.5 Z m 2.85,1.2 C 8,27.2 7.9,26.95 7.25,27.2 6.8,27.35 6.3,27.5 6.2,27.5 c -0.35,0 -0.25,0.85 0.3,2.3 0.65,1.65 1.05,1.3 1.35,-1.1 z m 5.8,0.25 C 12.8,28.4 11.6,27.15 11.05,26.2 10.5,25.25 9.8,24.5 9.5,24.5 c -0.75,0 2.55,4.3 3.75,4.95 1.8,0.85 2.05,0.55 0.4,-0.5 z M 28.3,8.1 C 27.85,7.65 26,9.6 26,10.45 26.05,11 26.4,10.85 27.3,9.8 28,9.05 28.45,8.25 28.3,8.1 Z"
       id="path1212" />
    <path
       d="m 21.1,27.15 c 0.15,-1.8 0.25,-1.9 2.05,-2.05 l 1.9,-0.15 -0.15,1.9 c -0.15,1.8 -0.25,1.9 -2.05,2.05 l -1.9,0.15 z"
       id="path1214" />
    <path
       d="m 27,25.25 c 0,-1.55 0.15,-1.75 1.3,-1.75 1.05,0 1.25,0.15 0.95,0.9 -0.2,0.45 -0.5,1.25 -0.6,1.75 -0.5,1.6 -1.65,0.95 -1.65,-0.9 z"
       id="path1216" />
    <path
       d="M 30.35,23.15 C 30.15,23 30,22.3 30,21.65 c 0,-0.9 -0.25,-1.15 -1.25,-1.15 -1.1,0 -1.25,-0.2 -1.25,-1.95 0,-1.7 0.15,-1.9 1,-1.7 0.65,0.15 1,0 1.05,-0.4 0,-0.8 2.45,5.5 2.45,6.45 0,0.65 -1.1,0.85 -1.65,0.25 z"
       id="path1218" />
    <path
       d="M 23.35,20.15 C 23.15,20 23,18.95 23,17.9 23,16 23,16 25,16 h 2 v 2.25 c 0,2.2 0,2.25 -1.65,2.25 -0.95,0 -1.85,-0.15 -2,-0.35 z"
       id="path1220" />
    <path
       d="m 13.6,16.9 c 0.1,-0.3 0.7,-0.9 1.3,-1.3 1,-0.65 1.1,-0.65 1.1,0.1 0,0.45 -0.35,0.8 -0.75,0.8 -0.4,0 -0.75,0.25 -0.75,0.5 0,0.3 -0.25,0.5 -0.55,0.5 -0.3,0 -0.45,-0.25 -0.35,-0.6 z"
       id="path1222" />
  </g>
  <g
     fill="#512213"
     id="g1236"
     transform="translate(0.05,0.05)">
    <path
       d="m 24.5,38.75 c 0,-0.4 -0.45,-0.75 -1,-0.75 -0.8,0 -1,-0.35 -1,-1.7 v -1.75 l 1.65,1.5 c 0.85,0.8 2.1,1.6 2.75,1.75 1.8,0.5 1.35,1.7 -0.65,1.7 -1.2,0 -1.75,-0.25 -1.75,-0.75 z"
       id="path1226" />
    <path
       d="M 16.35,37.15 C 16.15,37 16,36 16,34.95 16,33.5 15.75,33 15,32.75 14.45,32.6 14,32.2 14,31.95 14,31.7 13.45,31.5 12.75,31.5 11.7,31.5 11.5,31.25 11.5,30 c 0,-0.8 -0.15,-1.5 -0.35,-1.5 -0.6,0 -1.65,2.55 -1.65,3.85 0,1.5 -1.95,1.55 -3.3,0.1 l -0.9,-1 -0.4,1 C 4.7,33.05 4.15,33.5 3.65,33.5 3.1,33.5 2.95,33.35 3.3,33.1 4.05,32.6 4.9,30.1 5.25,27.25 5.55,24.95 5.5,24.8 4.75,25.55 4.3,26 3.9,27.1 3.85,28.05 3.8,29 3.55,29.85 3.3,30 2.65,30.35 1.95,27.55 2.3,26.15 2.65,24.75 1.7,24.6 1.25,26 0.7,27.7 0,27.1 0,25 0,23.35 0.2,22.95 1.15,22.75 2.2,22.45 2.3,22.25 2.1,19.2 1.9,16.1 1.9,16 3.05,16 5.05,16 5.4,15.4 5.7,11.75 5.85,9.85 5.85,8.55 5.7,8.9 5.55,9.2 4.55,9.5 3.45,9.5 1.55,9.5 1.5,9.45 1.5,7.85 1.5,5.75 2.8,4.5 4.9,4.5 6.2,4.5 6.5,4.7 6.5,5.65 6.5,6.3 6.65,6.5 6.9,6.15 7.1,5.85 8.65,5.4 10.4,5.2 L 13.5,4.85 13.55,6.3 C 13.6,7.15 13.7,7.4 13.85,6.9 14,6.25 14.6,6 16.05,6 17.1,6 18,6.25 18,6.5 18,6.8 18.55,7 19.25,7 20.4,7 20.5,6.8 20.5,4.75 c 0,-2.2 0,-2.25 1.7,-2.25 1.45,0 1.75,0.2 2.2,1.65 l 0.5,1.6 0.05,-2.1 c 0.05,-2.1 0.1,-2.15 1.7,-2.15 1.4,0 1.95,0.35 3.3,2.25 C 30.85,5 31.7,6 31.9,6 32.05,6 31.95,5.75 31.6,5.4 30.75,4.55 30.85,2.5 31.75,2.5 32.2,2.5 32.5,2.05 32.5,1.25 32.5,0.55 32.65,0 32.8,0 c 0.7,0 1.65,1.8 1.7,3.15 0,0.75 0.2,1.35 0.45,1.35 0.4,0 1.55,5.9 1.55,7.85 0,0.75 -0.1,0.8 -0.5,0.15 C 35.75,12.1 35.5,11.25 35.5,10.65 35.5,10 35.3,9.5 35,9.5 34.75,9.5 34.3,8.55 33.95,7.4 33.65,6.25 33.1,4.85 32.75,4.3 32.15,3.45 32.05,3.55 32.1,5.45 c 0,1.1 0.2,1.9 0.4,1.8 0.25,-0.15 0.6,1.05 0.75,2.6 0.35,2.8 1.6,5.35 3.95,8 1.35,1.6 0.2,1.45 -1.75,-0.2 l -1.6,-1.4 0.3,2.95 c 0.35,3.55 -0.3,3.15 -1.3,-0.8 -0.4,-1.6 -1.3,-3.55 -1.9,-4.35 -1.1,-1.4 -1.35,-1.45 -3.65,-1.2 -1.75,0.2 -2.5,0.1 -2.85,-0.4 C 24.1,11.9 24,12 24,12.85 c 0,0.6 -0.3,1.4 -0.65,1.75 -0.4,0.35 -0.85,1.3 -1.05,2.05 -0.35,1.55 -2.3,1.95 -2.3,0.45 0,-0.5 -0.25,-1.15 -0.55,-1.45 -0.3,-0.3 -0.4,-0.85 -0.2,-1.15 0.3,-0.45 0.45,-0.45 0.75,0 0.5,0.85 1.5,0.15 1.5,-1 0,-0.65 -0.25,-0.85 -0.75,-0.7 C 20.35,13 20,12.9 20,12.6 20,12.35 19.2,12 18.2,11.9 c -1.5,-0.2 -1.95,0 -2.6,1.05 -1.65,2.55 -3.1,3.4 -3.1,1.8 0,-1.2 1.85,-4.6 2.65,-4.9 0.85,-0.3 3.7,0.25 5.2,1.05 1.6,0.85 2.15,0.75 2.15,-0.5 0,-0.9 -0.3,-1.15 -1.35,-1.25 -2,-0.1 -4.65,-0.6 -5.2,-0.95 -0.65,-0.4 -2.45,1.25 -2.45,2.25 0,0.45 -0.45,1.55 -1,2.45 -0.7,1.1 -0.9,2.05 -0.7,2.75 0.5,1.55 1.3,1.9 2.05,0.95 0.55,-0.75 0.6,-0.65 0.65,0.8 0,0.85 -0.2,1.6 -0.5,1.6 -0.3,0 -0.25,0.5 0.1,1.25 0.3,0.7 0.75,1.25 1,1.25 0.2,0 0.4,0.55 0.4,1.25 0,0.8 0.3,1.25 0.75,1.25 1.15,0 1.05,3.85 -0.1,4.15 -0.5,0.15 -0.25,0.25 0.6,0.3 2.55,0.1 5.75,1.85 5.75,3.1 0,1 -0.2,1.05 -1.95,0.75 -1.85,-0.3 -2,-0.25 -2.3,1.2 -0.35,1.65 -0.05,2.5 1.05,2.5 0.4,0 0.7,0.35 0.7,0.75 0,0.5 -0.5,0.75 -1.65,0.75 -0.95,0 -1.85,-0.15 -2,-0.35 z m -8.2,-7.5 c 0.3,-2.4 -0.6,-3.6 -1.75,-2.3 -0.65,0.8 -0.65,1.1 -0.1,2.55 0.9,2.1 1.55,2.05 1.85,-0.25 z M 18.5,31.3 c 0,-0.15 -1.2,-0.8 -2.7,-1.45 C 14.15,29.1 12.6,27.9 11.7,26.7 10.2,24.65 9.5,24 8.85,24 c -0.2,0 0.4,1.05 1.3,2.4 1.15,1.65 2.45,2.75 4.35,3.7 2.55,1.25 4,1.7 4,1.2 z m -4.3,-7.25 c -0.9,-1.5 -1.7,-2 -1.7,-1.1 0,0.6 2.05,3.15 2.35,2.85 C 15,25.7 14.7,24.9 14.2,24.05 Z m -6.7,-0.2 c 0,-0.1 -0.75,-0.8 -1.6,-1.65 L 4.25,20.75 5.7,22.4 c 1.4,1.5 1.8,1.85 1.8,1.45 z m 2.2,-4.1 C 9.4,18.95 8,18.7 8,19.4 c 0,0.65 0.55,1.1 1.3,1.1 0.4,0 0.55,-0.3 0.4,-0.75 z M 9.3,15.25 C 8.85,14.2 8.5,12.95 8.5,12.4 8.5,11.9 8.3,11.6 8,11.75 7.15,12.3 7.45,14.55 8.65,16 c 1.4,1.75 1.6,1.55 0.65,-0.75 z m 2.6,-5.15 c 0.3,-0.9 -0.75,-0.7 -1.1,0.2 -0.2,0.5 -0.05,0.7 0.3,0.6 0.3,-0.1 0.7,-0.5 0.8,-0.8 z M 27.6,9.75 c 1.2,-1.5 1.9,-1.6 1.9,-0.25 0,0.55 0.25,1 0.55,1 C 30.8,10.5 30.2,8 29.2,7 28.7,6.45 28.5,6.45 28.5,6.95 c 0,0.35 -0.7,1.2 -1.5,1.9 -0.85,0.65 -1.4,1.45 -1.2,1.7 0.4,0.7 0.7,0.55 1.8,-0.8 z"
       id="path1228" />
    <path
       d="m 24,30.8 c 0,-1.5 -0.15,-1.75 -1.35,-1.9 -1.2,-0.15 -1.4,-0.4 -1.55,-1.95 -0.15,-1.5 0.05,-1.85 1.15,-2.35 1.75,-0.8 4.75,-0.75 4.8,0.05 0.1,1.2 0.9,-3.45 0.9,-5.5 0.05,-2.2 1,-3.1 1.1,-1 0.05,1.05 0.05,1.05 0.4,-0.15 0.2,-0.7 0.45,-1 0.65,-0.75 0.3,0.55 1.45,4 1.6,4.9 0.05,0.35 0.5,1.35 1,2.25 1.2,2.35 0.7,2.55 -0.95,0.4 -0.75,-1 -1.5,-1.8 -1.7,-1.8 -0.5,0 -1.55,2.6 -1.55,3.85 0,0.8 0.5,1.5 1.5,2.05 2.15,1.25 1.85,1.75 -0.8,1.35 -2.25,-0.3 -2.3,-0.3 -1.9,0.85 0.3,1.05 0.25,1.1 -0.55,0.4 C 26,30.85 25.8,30.9 25.25,31.65 24.35,32.9 24,32.7 24,30.8 Z"
       id="path1230" />
    <path
       d="M 23,18.75 C 23,17.1 23.1,17 24.75,17 c 1.65,0 1.75,0.1 1.75,1.75 0,1.65 -0.1,1.75 -1.75,1.75 C 23.1,20.5 23,20.4 23,18.75 Z"
       id="path1232" />
    <path
       d="M 12,2.75 C 12,1.1 12.1,1 13.75,1 15.4,1 15.5,1.1 15.5,2.75 15.5,4.4 15.4,4.5 13.75,4.5 12.1,4.5 12,4.4 12,2.75 Z"
       id="path1234" />
  </g>
  <g
     fill="#710718"
     id="g1242"
     transform="translate(0.05,0.05)">
    <path
       d="M 4.75,38.5 C 3.75,36.55 2.3,35.8 1,36.5 0.2,36.95 0,36.9 0,36.25 0,35.35 1.5,33.5 2.25,33.5 c 1.15,0 1.9,-1 2.5,-3.25 l 0.6,-2.35 0.85,1.75 c 1.05,2.3 1.8,2.75 1.8,1.1 0,-0.75 0.2,-1.2 0.5,-1 0.3,0.15 0.5,0.95 0.5,1.7 0,0.9 0.3,1.55 0.9,1.75 0.45,0.15 2.1,0.95 3.6,1.8 3.2,1.85 5.1,1.8 7.25,-0.2 1.75,-1.65 2.45,-1.65 2.15,-0.05 -0.15,0.8 -0.05,1.25 0.35,1.25 0.35,0 1.15,0.45 1.85,0.95 0.65,0.55 1.85,1.05 2.65,1.15 0.95,0.1 1.55,0.5 1.65,1.05 C 29.55,39.9 29.1,40 25.05,40 20.55,40 20.5,40 20.5,38.75 20.5,37.95 20.2,37.5 19.75,37.5 19.3,37.5 19,37.95 19,38.75 V 40 h -6.75 -6.7 z m 3.3,-0.2 C 7.6,37.8 7.65,37.5 8.25,37 9.4,36.05 9.2,35.35 7,33.25 5.7,32 5,31.55 5,32.05 c 0,0.45 -0.45,1.2 -1,1.7 -1.15,1.05 -0.85,1.6 2.2,3.85 2.15,1.55 2.75,1.75 1.85,0.7 z"
       id="path1238" />
    <path
       d="m 22.25,32.5 c -1.5,-0.4 -1.5,-0.4 0.4,-0.45 1,0 1.85,0.2 1.85,0.45 0,0.55 -0.1,0.55 -2.25,0 z"
       id="path1240" />
  </g>
  <g
     fill="#282761"
     id="g1250"
     transform="translate(0.05,0.05)">
    <path
       d="m 16,20.55 c 0,-0.8 -0.4,-1 -1.85,-1.15 -1.35,-0.1 -1.95,-0.4 -2.05,-1 -0.1,-0.55 0.15,-0.9 0.6,-0.9 0.45,0 0.8,-0.2 0.8,-0.5 0,-0.25 0.55,-0.85 1.25,-1.3 1.1,-0.7 1.5,-0.75 2.5,-0.2 0.65,0.35 1.45,1.3 1.8,2.1 0.3,0.75 0.8,1.55 1,1.7 0.75,0.45 0.25,-3 -0.5,-3.6 -0.4,-0.3 -0.55,-0.8 -0.35,-1.15 0.3,-0.45 0.6,-0.35 1.1,0.3 0.45,0.6 0.65,0.65 0.7,0.25 0,-0.35 0.25,-0.5 0.5,-0.35 0.55,0.35 0.65,2.85 0.2,5.2 -0.3,1.5 -0.4,1.55 -3,1.55 -2.35,0 -2.7,-0.15 -2.7,-0.95 z"
       id="path1244" />
    <path
       d="m 25.7,17.65 c -0.2,-1.55 -0.15,-3.6 0.1,-4.6 0.4,-1.55 0.65,-1.8 2.1,-1.95 2.1,-0.2 2.05,0.55 -0.15,1.85 -1.8,1.05 -2.5,2.45 -0.85,1.8 1.9,-0.8 2.75,-0.9 2.4,-0.35 -0.2,0.35 -0.7,0.6 -1.1,0.6 -0.9,0 -0.9,1.3 0,1.85 0.35,0.2 0.85,1.15 1.05,2.05 0.3,1.55 0.3,1.6 -1.4,1.6 h -1.8 z"
       id="path1246" />
    <path
       d="m 12.5,15.25 c 0,-0.1 0.25,-0.75 0.55,-1.45 0.7,-1.55 2.7,-2.05 5.85,-1.5 2,0.3 2.15,0.4 1.1,0.7 -4.05,1 -6,1.65 -6,2.05 0,0.25 -0.35,0.45 -0.75,0.45 -0.4,0 -0.75,-0.1 -0.75,-0.25 z"
       id="path1248" />
  </g>
  <g
     fill="#693623"
     id="g1262"
     transform="translate(0.05,0.05)">
    <path
       d="m 16,35.2 c 0,-2.35 0.8,-3.7 2.2,-3.7 0.65,0 0.65,0.2 0,1.75 -0.8,1.9 -0.6,2.75 0.6,2.75 0.4,0 0.7,0.35 0.7,0.75 0,0.5 -0.55,0.75 -1.75,0.75 C 16,37.5 16,37.5 16,35.2 Z"
       id="path1252" />
    <path
       d="M 22.5,32.55 C 21.8,32.4 20.6,31.9 19.75,31.45 18.95,31 17.45,30.4 16.5,30.05 c -2.2,-0.7 -5,-3 -4.1,-3.35 0.85,-0.4 0.75,-1.2 -0.2,-1.2 -0.45,0 -1.35,-0.45 -2.05,-1 -0.7,-0.55 -1.65,-1 -2.15,-1 -1.15,0 -2.95,-2 -3.8,-4.35 L 3.45,17.25 3.7,19.2 c 0.3,2.2 2.85,5.3 4.4,5.3 0.45,0 1.2,0.6 1.6,1.4 0.95,1.8 3.2,3.8 5.15,4.6 2,0.75 1.7,1.5 -0.6,1.5 -1.2,0 -1.75,-0.25 -1.9,-0.85 -0.15,-0.65 -0.25,-0.6 -0.3,0.25 -0.05,1.05 -0.25,1.15 -1.9,1 C 8.5,32.25 8.25,32.05 8.1,30.85 8,30.05 8.2,29.1 8.55,28.7 9,28.15 8.95,27.8 8.25,27 7.4,26.05 7.3,26.05 6.4,26.85 5.55,27.6 5.5,27.6 5.8,26.1 6.05,24.9 5.95,24.5 5.4,24.5 4.4,24.5 3.5,26.6 3.5,28.9 3.45,30.5 3.4,30.6 2.9,29.8 2.6,29.25 2.5,27.85 2.65,26.45 2.95,24.1 2.9,24 2,24.5 1.45,24.8 1,25.35 1,25.75 1,26.15 0.8,26.5 0.5,26.5 0.2,26.5 0,21.75 0,13.25 V 0 H 1.75 C 3.4,0 3.5,0.1 3.5,1.7 3.5,3.15 3.65,3.35 4.5,3.15 5.05,3 5.5,2.55 5.5,2.2 5.5,1.75 6.1,1.5 7.25,1.5 8.9,1.5 9,1.6 9,3.25 9,4.55 8.8,5 8.15,5 7.7,5 7.45,5.15 7.6,5.3 7.75,5.45 8.7,5.4 9.7,5.25 11.4,4.9 11.5,4.75 11.5,3.05 11.5,0.7 12.2,0 14.6,0 c 1.8,0 1.9,0.05 1.9,1.65 0,0.9 -0.35,2.15 -0.8,2.75 C 14.95,5.45 15,5.5 16.45,5.5 17.3,5.5 18,5.75 18,6 c 0,0.3 0.45,0.5 1,0.5 0.8,0 1,-0.35 1,-1.7 0,-1.8 0.6,-2.3 2.8,-2.3 0.85,0 1.2,-0.3 1.2,-1 0,-0.85 0.35,-1 2.05,-1 1.6,0 2.1,0.2 2.3,1 0.15,0.55 0.45,1 0.65,1 0.25,0 0.55,0.5 0.65,1.15 0.2,0.95 0.2,0.9 0.3,-0.25 0,-0.9 0.35,-1.4 0.8,-1.4 0.4,0 0.75,-0.45 0.75,-1 0,-0.65 0.35,-1 0.95,-1 1.25,0 2.8,4 3.55,8.95 0.6,4.25 0.4,5.15 -0.4,1.65 C 35,7.95 32.4,3 32.1,3.9 32,4.25 32.15,5.2 32.45,6.1 32.7,7 33.1,9 33.25,10.5 c 0.2,1.5 0.7,3.1 1.05,3.55 0.7,0.8 0.5,2.45 -0.35,2.45 -0.2,0 -0.3,1.2 -0.15,2.65 l 0.2,2.6 -0.75,-2.25 c -0.4,-1.25 -0.75,-2.75 -0.75,-3.35 0,-0.6 -0.2,-1.2 -0.5,-1.4 -0.25,-0.15 -0.3,-0.65 -0.15,-1.1 0.25,-0.6 0.1,-0.75 -0.45,-0.5 -0.55,0.2 -0.9,-0.05 -1.1,-0.8 -0.3,-1.15 0.2,-2 0.55,-0.95 0.15,0.3 0.45,0.6 0.7,0.6 0.75,0 -1.1,-4.05 -3,-6.65 -1.5,-2 -1.85,-2.25 -1.95,-1.4 -0.1,0.55 0.35,1.5 0.95,2.1 l 1.1,1.1 -1.55,1.4 c -1,0.95 -1.45,1.75 -1.25,2.3 0.25,0.65 0.55,0.5 1.6,-0.8 C 29.15,8 29.6,8.1 29.4,10.4 l -0.15,1.85 -2.55,0.15 c -2.35,0.15 -2.6,0.25 -2.85,1.5 -0.45,2.25 -3.35,4.9 -3.35,3.05 0,-0.35 -0.4,-0.9 -0.85,-1.25 -0.5,-0.35 -0.75,-0.8 -0.55,-1 0.2,-0.2 0.7,-0.1 1.05,0.25 0.55,0.45 0.85,0.15 1.5,-1.35 1.6,-3.7 1.9,-5.8 1.15,-7.9 L 22.05,3.75 V 6.7 C 22,9.5 21.95,9.6 20.9,9.25 20.25,9.05 19.1,8.8 18.25,8.65 17.45,8.5 16.6,8.15 16.4,7.85 16.2,7.5 15.8,7.55 15.3,7.95 14.6,8.55 14.5,8.4 14.45,6.95 14.35,5.3 14.35,5.3 14.05,7.25 13.8,8.85 13.5,9.3 12.6,9.4 11.5,9.55 11.45,9.45 11.75,7.9 12,6.8 11.95,6.4 11.6,6.75 11.3,7.05 11.05,8.05 11,9 c -0.15,2.5 -0.05,2.85 0.55,1.9 0.25,-0.5 0.85,-0.9 1.25,-0.9 0.9,0 0.55,1.75 -0.6,3.05 -0.75,0.85 -0.9,2.85 -0.3,3.75 0.6,0.95 2.5,1.15 2.4,0.3 0,-0.4 0.25,-0.85 0.65,-1 0.55,-0.2 0.65,0.3 0.35,2.6 -0.25,2.15 -0.15,3.05 0.4,3.55 0.4,0.4 0.95,2.25 1.3,4.15 l 0.55,3.4 1.65,-0.2 c 0.95,-0.1 2.2,0.1 2.85,0.4 0.85,0.5 1.2,0.5 1.35,0.05 0.1,-0.3 0.5,-0.9 0.95,-1.3 C 25,28.1 25,28 24.3,28 c -1.15,0 -1,-0.75 0.35,-1.7 l 1.1,-0.85 -1.1,0.3 C 23.8,26 23.5,25.85 23.5,25.3 c 0,-0.55 0.5,-0.8 1.65,-0.8 1.45,0 1.75,-0.2 2.2,-1.6 l 0.5,-1.65 H 25.8 c -2,0 -2.05,-0.05 -2.2,-1.85 -0.1,-1.1 0.05,-1.9 0.35,-1.9 0.3,0 0.55,0.35 0.55,0.75 0,0.4 0.25,0.75 0.5,0.75 0.3,0 0.5,-0.3 0.5,-0.7 0,-0.4 0.7,-0.8 1.55,-0.9 1.25,-0.2 1.65,-0.05 1.85,0.7 0.2,0.75 0.35,0.8 0.65,0.35 0.5,-0.85 0.4,-0.95 2.3,3.8 l 1.6,4 -1.9,-2.05 -1.9,-2 -0.85,2.5 -0.8,2.55 1.85,1.6 c 1.05,0.9 1.6,1.65 1.2,1.65 -1.35,0 -4.5,-1.15 -4.25,-1.55 0.15,-0.25 0.15,-0.45 0,-0.45 -0.15,0 -0.7,1 -1.25,2.25 -0.55,1.25 -1.2,2.2 -1.4,2.2 -0.2,-0.05 -0.95,-0.2 -1.65,-0.4 z m -8.95,-9.4 C 10.05,18.2 8.25,13 8.75,9 9.05,6.85 9,6.8 8.35,8 c -0.4,0.7 -0.85,2.55 -1,4.1 -0.25,2.4 -0.15,3 0.6,3.5 1.1,0.8 2.75,3.9 2.1,3.9 C 9.8,19.5 9.4,19.3 9.25,19 8.8,18.25 8.15,18.4 7.8,19.3 c -0.35,0.9 0.95,2.5 1.45,1.7 0.6,-0.95 1.7,-0.5 2.45,0.95 0.95,1.85 3.35,4.65 3.65,4.35 0.15,-0.15 -0.65,-1.55 -1.8,-3.15 z m -6.4,-5.3 c 1,-0.15 1.05,-0.2 0.15,-0.6 -1,-0.45 -1.8,0.4 -1.75,1.75 0.05,0.55 0.1,0.55 0.3,-0.1 0.1,-0.45 0.7,-0.95 1.3,-1.05 z"
       id="path1254" />
    <path
       d="m 16.5,20.25 c 0,-1.6 0.15,-1.75 1.45,-1.75 1.05,0 1.5,0.3 1.75,1.15 C 20.25,21.7 20.05,22 18.25,22 16.6,22 16.5,21.9 16.5,20.25 Z"
       id="path1256" />
    <path
       d="m 36.25,18 c -0.5,-0.55 -0.8,-1.1 -0.65,-1.25 0.15,-0.15 0.65,0.2 1.15,0.75 0.5,0.55 0.8,1.1 0.65,1.25 -0.15,0.15 -0.65,-0.2 -1.15,-0.75 z"
       id="path1258" />
    <path
       d="m 12.5,15.15 c 0.05,-0.2 0.55,-1.4 1.15,-2.65 0.9,-1.85 1.35,-2.3 2.65,-2.4 2,-0.2 5.35,1.15 5.05,2 -0.2,0.7 -2.05,0.8 -3.45,0.15 C 17.25,12 17,12.1 17,12.7 c 0,0.45 -0.85,1.15 -1.85,1.65 -1.05,0.45 -2.05,0.95 -2.25,1.05 -0.25,0.1 -0.4,0 -0.4,-0.25 z"
       id="path1260" />
  </g>
  <g
     fill="#a30c18"
     id="g1270"
     transform="translate(0.05,0.05)">
    <path
       d="M 5.95,39.15 C 3.8,36.6 3.8,36.4 5.85,37.8 7,38.6 7.95,39.4 8,39.65 8,40.35 6.65,40 5.95,39.15 Z"
       id="path1264" />
    <path
       d="m 15.5,39.55 c 0,-0.25 0.5,-0.6 1.15,-0.8 0.95,-0.3 0.8,-0.4 -1.05,-0.8 C 11.25,37.1 4.45,31.6 5.25,29.6 c 0.25,-0.7 0.45,-0.55 1,0.8 0.8,1.85 1.6,2.1 1.85,0.5 0.15,-1.05 0.25,-0.95 1.05,0.6 0.95,2 4.6,3.85 7,3.6 0.75,-0.1 1.35,0.1 1.35,0.35 0,1 2.75,0.6 3.4,-0.45 0.7,-1.15 2.1,-1.35 2.1,-0.3 0,0.9 3.2,3.3 4.45,3.3 1.5,0 2.55,0.55 2.55,1.3 0,0.85 -1.1,0.9 -1.9,0.1 -0.45,-0.45 -0.6,-0.45 -0.6,0 0,0.35 -0.45,0.6 -1.05,0.6 -0.6,0 -0.85,-0.2 -0.7,-0.55 0.35,-0.55 -1.1,-1.9 -2.05,-1.95 -0.3,0 -0.85,0.55 -1.2,1.25 C 21.9,39.9 21.55,40 18.65,40 16.9,40 15.5,39.8 15.5,39.55 Z"
       id="path1266" />
    <path
       d="M 2,35.25 C 1.7,34.85 1.55,34.3 1.75,34 c 0.55,-0.85 1.1,-0.55 1.35,0.75 0.3,1.4 -0.15,1.6 -1.1,0.5 z"
       id="path1268" />
  </g>
  <g
     fill="#884324"
     id="g1292"
     transform="translate(0.05,0.05)">
    <path
       d="M 28.15,39.3 C 26.8,38.7 26.65,38 27.8,38 c 1.05,0 2.7,0.9 2.7,1.5 0,0.6 -0.9,0.55 -2.35,-0.2 z"
       id="path1272" />
    <path
       d="M 16.5,33.8 C 16.5,33.45 16,33 15.4,32.85 14.75,32.7 13.75,32.4 13.15,32.25 12.3,32 12,32.1 12,32.65 12,33.4 8.75,34.25 7.9,33.7 7.5,33.45 7.85,30.25 8.35,29.35 8.45,29.15 9,29.5 9.5,30.1 c 0.9,1.1 0.95,1.1 0.95,0.15 0,-0.55 -0.65,-1.8 -1.45,-2.75 -1.5,-1.7 -1.95,-3 -1,-3 0.25,0 1.2,1 2.1,2.25 1.6,2.15 5.75,4.75 7.6,4.75 0.95,0 1,0.65 0.3,2.05 -0.6,1.1 -1.5,1.25 -1.5,0.25 z"
       id="path1274" />
    <path
       d="M 17.45,30.35 C 13.9,28.85 12.6,27.95 11.4,26 10.9,25.1 9.8,24.15 9,23.85 8.15,23.55 7.5,23.1 7.5,22.9 7.5,22.7 7.2,22.5 6.8,22.5 5.9,22.5 4,19.5 4,18.05 4,14.8 6.55,14 8.7,16.55 10.65,18.8 10.2,20.15 8.25,18 7.3,16.95 6,16.65 6,17.5 6,17.8 6.45,18 7.05,18 7.85,18 8,18.2 7.75,19 7.6,19.5 7.7,20.45 8,21 c 0.55,1.05 0.6,1.05 1.55,0.2 1.05,-0.95 1.05,-0.95 1.85,0.6 0.85,1.65 4.1,5.35 4.1,4.7 0,-0.35 -0.4,-1.45 -0.95,-2.45 -1.15,-2.2 -2.3,-5.95 -1.95,-6.3 0.7,-0.7 1.9,0.5 1.9,1.8 0,0.8 0.25,1.45 0.5,1.45 0.3,0 0.5,0.75 0.5,1.7 0,1.3 0.25,1.8 1,2.05 0.75,0.25 1,0.75 1,2 0,1.45 0.2,1.7 1.5,2 1.15,0.25 1.5,0.6 1.5,1.55 0,0.65 -0.05,1.2 -0.1,1.2 -0.1,0 -1.4,-0.55 -2.95,-1.15 z"
       id="path1276" />
    <path
       d="M 28.9,29.9 C 27.85,29.6 27,29.1 27,28.75 c 0,-1.15 1,-1.4 1.9,-0.55 0.45,0.5 1.3,1.15 1.85,1.55 1.15,0.8 0.75,0.85 -1.85,0.15 z"
       id="path1278" />
    <path
       d="M 25.5,28.9 C 25.5,28 25.25,27.5 24.75,27.5 24.35,27.5 24,27.3 24,27 c 0,-0.25 0.35,-0.5 0.75,-0.5 0.4,0 0.75,-0.25 0.75,-0.55 0,-0.3 -0.35,-0.45 -0.75,-0.25 C 24.25,25.9 24,25.65 24,25 c 0,-0.8 0.35,-1 1.75,-1 1.4,0 1.75,-0.2 1.75,-1 0,-0.8 -0.35,-1 -1.75,-1 -1.4,0 -1.75,-0.2 -1.75,-1 0,-0.55 -0.35,-1 -0.75,-1 -0.5,0 -0.75,-0.55 -0.75,-1.75 0,-1.65 0.1,-1.75 1.75,-1.75 1.4,0 1.75,0.2 1.75,1 0,0.55 0.35,1 0.75,1 0.45,0 0.75,0.45 0.75,1.25 0,2 1,1.45 1.05,-0.6 l 0.05,-1.9 0.5,1.75 c 0.8,2.75 0.2,5.1 -2.35,9.25 -1.2,1.95 -1.25,1.95 -1.25,0.65 z m 0.15,-10.3 c -0.3,-1.2 -1.15,-1.5 -1.15,-0.45 0,0.65 1.05,1.95 1.3,1.7 0.1,-0.1 0.05,-0.65 -0.15,-1.25 z"
       id="path1280" />
    <path
       d="m 31.3,23.75 c -1,-1.3 -1.3,-2.2 -1.2,-3.55 0.15,-1.75 0.2,-1.65 1.45,1.75 0.75,1.95 1.3,3.55 1.2,3.55 -0.05,0 -0.75,-0.8 -1.45,-1.75 z"
       id="path1282" />
    <path
       d="M 11.3,19.4 C 9.9,17.25 8.5,10.95 8.95,8.9 9.55,6.4 8.8,6.5 7.4,9.05 6.5,10.6 5.6,11.4 3.55,12.3 2.05,12.95 0.75,13.45 0.7,13.35 0.6,13.25 1.5,11.7 2.7,9.9 6,4.95 6.4,3.9 3.9,6.5 2.7,7.75 1.35,9.3 0.9,10 L 0.05,11.25 V 8.65 C 0,7.05 0.25,5.95 0.65,5.8 1.1,5.55 1.1,5.45 0.65,5.2 -0.35,4.75 -0.1,2.8 1.15,1.35 2.5,-0.25 3.9,-0.4 4.4,1.05 l 0.4,1 0.9,-1 C 6.3,0.4 7.25,0 8.35,0 9.95,0 10,0.05 10,2 10,3.35 9.7,4.1 9.15,4.45 8.4,4.9 8.4,4.95 9.05,5 9.5,5 10.25,4 10.85,2.5 L 11.9,0 h 2.8 c 3.1,0 3.4,0.4 2.05,3 C 16,4.5 16,4.5 17.35,4.5 19.75,4.5 21,3.95 21,2.95 21,2.25 21.35,2 22.25,2 23.15,2 23.5,1.75 23.5,1 23.5,0.15 23.85,0 25.75,0 27.4,0 28,0.2 28,0.75 28,1.15 28.25,1.5 28.5,1.5 28.8,1.5 29,1.85 29,2.25 29,2.65 29.25,3 29.5,3 29.8,3 30,2.65 30,2.25 30,1.7 30.55,1.5 32,1.5 c 1.45,0 2,0.2 2,0.75 0,0.45 0.3,1.3 0.7,1.9 0.35,0.6 0.85,2.1 1,3.35 l 0.35,2.25 -1.3,-2.5 C 32.5,3 30.85,2.05 32.2,5.8 c 0.35,1.1 0.85,3.35 1.05,5.1 0.2,1.7 0.55,3.1 0.8,3.1 0.2,0 0.65,0.45 0.95,1.05 0.5,0.85 0.4,1.05 -0.5,1.3 -0.85,0.2 -1.05,0.6 -0.85,1.45 0.1,0.65 0,1.2 -0.2,1.2 -0.5,0 -0.5,-0.15 -0.7,-3.6 C 32.6,12.6 30.8,7.75 29.25,6 28.65,5.3 27.75,4.15 27.25,3.4 26.8,2.6 26.2,2 26,2 c -0.55,0 0.55,3.05 1.4,3.9 0.9,1 0.75,2 -0.4,2.6 -0.8,0.45 -1,0.4 -1.05,-0.35 -0.05,-1.7 -0.9,0.95 -0.9,3 C 25,13.75 24.25,15 22.7,15 c -1.05,0 -1.25,-0.2 -0.95,-0.85 1.1,-2.7 1.7,-6.1 1.45,-8.05 -0.45,-2.9 -1.45,-2.45 -1.45,0.65 0,2.5 -0.7,3.3 -1.8,2.15 C 19.6,8.5 18.7,8.3 17.9,8.4 16.85,8.55 16.5,8.4 16.5,7.75 16.5,7.05 16.25,7.15 14.95,8.2 12.8,10 11.8,9.95 12.2,8 12.4,6.95 12.3,6.5 11.8,6.5 c -0.8,0 -1.45,4.5 -0.75,5.2 0.3,0.3 0.45,0.2 0.45,-0.3 0,-0.75 1.4,-1.65 1.85,-1.25 0.3,0.35 -0.95,2.85 -1.45,2.85 -0.55,0 -0.5,3.35 0.1,5.45 0.6,2.15 0.35,2.5 -0.7,0.95 z M 14.75,1.6 C 14.35,1.2 13,2.6 13,3.45 13.05,4.05 13.25,4 14.05,3.05 14.6,2.4 14.9,1.75 14.75,1.6 Z"
       id="path1284" />
    <path
       d="m 12.5,15.15 c 0,-0.2 0.7,-1.05 1.6,-1.8 0.9,-0.8 1.25,-1.3 0.8,-1.15 -1.1,0.35 -1.2,-0.8 -0.2,-1.65 1.15,-0.95 3.3,-0.15 3.3,1.25 0,0.9 -0.55,1.4 -2.35,2.3 -1.35,0.6 -2.55,1.2 -2.75,1.3 -0.25,0.1 -0.4,0 -0.4,-0.25 z"
       id="path1286" />
    <path
       d="m 18.5,12 c 0,-1.1 1.25,-1.35 2.5,-0.5 0.65,0.45 0.65,0.55 0,1 -1.25,0.85 -2.5,0.6 -2.5,-0.5 z"
       id="path1288" />
    <path
       d="m 27.15,11.8 c -0.4,-0.5 -0.3,-1 0.65,-2.1 1.2,-1.5 1.25,-1.45 1.4,1.05 0.05,1.65 -1.05,2.2 -2.05,1.05 z"
       id="path1290" />
  </g>
  <g
     fill="#2e4892"
     id="g1298"
     transform="translate(0.05,0.05)">
    <path
       d="m 16.5,20.5 c 0,-0.55 -0.2,-1 -0.5,-1 -0.25,0 -0.5,-0.45 -0.5,-1 0,-0.55 -0.35,-1 -0.75,-1 -0.9,0 -0.95,-0.6 -0.15,-1.4 0.75,-0.75 2.4,-0.8 2.4,-0.1 0,0.3 0.55,1 1.25,1.6 0.7,0.6 1.25,1.4 1.25,1.85 0,1.15 0.9,0 1.15,-1.45 0.1,-0.7 0.25,-0.25 0.3,1.15 L 21,21.5 h -2.25 c -1.9,0 -2.25,-0.15 -2.25,-1 z"
       id="path1294" />
    <path
       d="m 25.75,18.35 c -0.45,-3.4 -0.2,-4.95 0.75,-5.25 0.65,-0.25 0.65,-0.15 0.05,0.6 -0.95,1.1 -0.35,1.6 1.2,0.9 0.75,-0.35 1.25,-0.4 1.25,-0.1 0,0.3 -0.3,0.5 -0.7,0.5 -0.4,0 -0.85,0.2 -1,0.45 -0.4,0.65 0.2,2.1 0.7,1.8 0.55,-0.35 0.8,0.1 1.25,2.15 0.3,1.55 0.3,1.6 -1.4,1.6 -1.75,0 -1.8,0 -2.1,-2.65 z"
       id="path1296" />
  </g>
  <g
     fill="#b14425"
     id="g1324"
     transform="translate(0.05,0.05)">
    <path
       d="M 28.75,39.5 C 28.6,39.25 28,39 27.45,39 c -0.5,0 -0.95,-0.2 -0.95,-0.5 0,-0.25 0.3,-0.5 0.7,-0.5 1.15,0 3.8,1.1 3.8,1.55 0,0.6 -1.85,0.55 -2.25,-0.05 z"
       id="path1300" />
    <path
       d="m 17.9,37.5 c -0.3,-1 -0.5,-1.1 -1,-0.6 -1,1 -1.9,0.7 -1.9,-0.65 0,-0.95 0.25,-1.25 1.05,-1.25 1.4,0 2.55,1.25 2.35,2.6 -0.15,1.15 -0.2,1.15 -0.5,-0.1 z"
       id="path1302" />
    <path
       d="M 28.65,29.65 C 28,29.55 27.5,29.1 27.5,28.7 c 0,-0.95 0.5,-0.85 2,0.3 1.25,1 1.2,1.05 -0.85,0.65 z"
       id="path1304" />
    <path
       d="M 9.5,27.9 C 7.55,25.5 7.35,25 8.2,25 c 0.65,0 3.3,3.4 3.3,4.25 0,0.65 -0.85,0.05 -2,-1.35 z"
       id="path1306" />
    <path
       d="M 26,28.15 C 26,27.5 26.25,27 26.5,27 c 0.65,0 0.65,0.55 0,1.5 -0.4,0.6 -0.5,0.55 -0.5,-0.35 z"
       id="path1308" />
    <path
       d="m 31.35,23.6 c -0.5,-0.5 -0.85,-1.35 -0.85,-1.85 0,-1.15 0.6,-0.55 1.4,1.4 0.7,1.6 0.55,1.7 -0.55,0.45 z"
       id="path1310" />
    <path
       d="m 11.3,19.1 c -0.15,-0.25 -0.5,-1.05 -0.75,-1.8 -0.4,-1 -0.35,-1.3 0.15,-1.3 0.4,0 0.8,0.7 0.95,1.65 0.25,1.7 0.15,2.2 -0.35,1.45 z"
       id="path1312" />
    <path
       d="m 15.8,11.9 c 0.25,-0.4 0.1,-0.45 -0.5,-0.25 -0.65,0.25 -0.85,0.1 -0.7,-0.5 0.25,-1.5 1.8,-1.4 1.8,0.1 0,0.7 -0.25,1.25 -0.5,1.25 -0.25,0 -0.3,-0.25 -0.1,-0.6 z"
       id="path1314" />
    <path
       d="M 6.6,7.15 C 6.75,5.35 6.85,5.25 8.55,5.1 9.9,5 10.45,4.65 10.65,3.95 10.8,3.45 11.3,3 11.75,3 c 0.6,0 0.75,0.25 0.45,1.1 -0.35,1.1 -0.3,1.1 1,0.25 L 14.5,3.5 v 1.45 c 0,3.1 -1.6,4.25 -2.25,1.7 L 11.9,5.25 11.1,6.95 C 10,9.2 8.85,9.65 9.25,7.65 L 9.55,6.25 8.3,7.65 C 6.65,9.45 6.4,9.35 6.6,7.15 Z"
       id="path1316" />
    <path
       d="M 23.55,7.15 C 23.5,6.35 23.45,5.25 23.4,4.65 23.4,3.35 23,3.2 22.05,4.15 21.55,4.65 21.45,4.4 21.6,3 c 0.15,-1.5 0.35,-1.75 1.6,-1.9 1.9,-0.25 2.3,0.5 2.3,4.3 0,2.7 -0.1,3.1 -0.95,3.1 -0.65,0 -0.95,-0.4 -1,-1.35 z"
       id="path1318" />
    <path
       d="M 17.35,7 C 17.65,5.9 17,5.7 16.1,6.6 15.65,7.05 15.5,6.85 15.5,5.6 15.5,4.05 15.6,4 17.5,4 h 2 v 2 c 0,1.8 -0.15,2 -1.2,2 -0.95,0 -1.15,-0.2 -0.95,-1 z"
       id="path1320" />
    <path
       d="M 29.85,6.2 28.4,4.5 h 1.3 C 30.75,4.5 31,4.25 31,3.2 31,2.05 31.15,1.95 32.65,2.1 34.1,2.25 34.25,2.4 34.4,4 L 34.5,5.75 33.3,4.4 C 32.6,3.6 31.95,3 31.8,3 31.65,3 31.7,4.15 31.85,5.5 32,6.9 31.95,8 31.7,7.95 31.45,7.95 30.6,7.15 29.85,6.2 Z"
       id="path1322" />
  </g>
  <g
     fill="#db242a"
     id="g1330"
     transform="translate(0.05,0.05)">
    <path
       d="m 16,39.55 c 0,-0.25 0.45,-0.55 1,-0.7 1.1,-0.3 1.35,-1.6 0.45,-2.15 -0.3,-0.15 -0.75,-0.05 -0.95,0.25 -0.45,0.75 -2.45,0.3 -5.55,-1.25 C 7.9,34.15 7.25,33.4 8.1,32.05 8.85,30.8 9.3,30.75 9.65,31.7 c 0.45,1.1 4.7,3.45 6.25,3.4 0.75,0 1.45,0.2 1.6,0.4 0.15,0.2 0.75,0.5 1.3,0.7 0.8,0.25 1.35,0 2.1,-0.95 1.1,-1.4 1.6,-1.6 1.6,-0.6 0.05,0.9 3.4,3.05 5.85,3.75 2.15,0.65 3.35,1.6 1.95,1.6 -0.4,0 -0.9,-0.2 -1.05,-0.5 -0.15,-0.25 -0.7,-0.5 -1.2,-0.5 -0.45,0 -1.8,-0.45 -2.95,-1 -2.75,-1.35 -3.35,-1.25 -5,0.5 -1.4,1.4 -4.1,2.1 -4.1,1.05 z"
       id="path1326" />
    <path
       d="M 5.2,30.95 C 5.05,30.65 5.1,30.2 5.4,29.9 5.7,29.6 5.95,29.8 6.15,30.45 6.4,31.55 5.8,31.9 5.2,30.95 Z"
       id="path1328" />
  </g>
  <g
     fill="#9f5a33"
     id="g1362"
     transform="translate(0.05,0.05)">
    <path
       d="M 8.55,33.8 C 8.15,33.3 8.1,32.55 8.4,31.4 c 0.4,-1.55 0.45,-1.55 0.8,-0.5 0.55,1.65 1.3,1.35 1.3,-0.6 0,-0.95 -0.45,-2.25 -1.05,-3 -0.6,-0.75 -0.9,-1.5 -0.7,-1.7 0.2,-0.2 0.6,0.05 0.95,0.6 1.8,3 3.4,4.1 8.15,5.55 0.35,0.15 0.5,0.55 0.35,1 -0.35,0.8 -3,1.05 -3.3,0.3 -0.05,-0.25 -0.7,-0.55 -1.4,-0.65 -1,-0.1 -1.3,0.1 -1.4,1 -0.15,0.85 -0.5,1.1 -1.55,1.1 -0.8,0 -1.7,-0.3 -2,-0.7 z"
       id="path1332" />
    <path
       d="m 16.75,29.95 c -3.1,-1.2 -3.65,-1.65 -5.4,-4.3 -0.95,-1.5 -1.7,-2.15 -2.5,-2.15 -1.95,0 -3.2,-1.65 -3.55,-4.7 -0.2,-1.55 -0.25,-3 -0.05,-3.3 0.5,-0.85 1.75,-0.55 3,0.75 1.6,1.6 1.6,2.5 0,1.45 C 7,16.85 5.2,17.1 5.75,18 c 0.2,0.3 0.55,0.4 0.8,0.25 0.85,-0.55 1.5,0.25 0.95,1.2 -0.35,0.7 -0.2,1.2 0.75,2.05 1,0.95 1.25,1 1.25,0.35 0,-1.8 1,-1.15 3.5,2.2 1.45,1.9 2.7,3.4 2.85,3.3 0.1,-0.15 -0.25,-1.2 -0.85,-2.4 -1.25,-2.4 -2.7,-6.95 -2.35,-7.3 0.15,-0.1 0.75,0 1.3,0.3 0.75,0.4 1.1,1.25 1.35,3.05 0.2,1.65 0.55,2.5 1,2.5 0.4,0 0.7,0.45 0.7,1 0,0.55 0.2,1 0.5,1 0.25,0 0.65,0.6 0.8,1.4 0.2,0.75 0.55,1.5 0.8,1.65 0.3,0.2 0.4,0.75 0.3,1.35 -0.15,1 -0.15,1 -2.65,0.05 z"
       id="path1334" />
    <path
       d="m 24.5,28.85 c 0,-1.9 0.75,-2.85 2.3,-2.85 h 1.15 l -1.3,2.25 C 25.2,30.9 24.5,31.1 24.5,28.85 Z"
       id="path1336" />
    <path
       d="M 29.75,29.7 C 28.2,28.9 27.05,28 27.6,28 c 0.45,0 3.9,2.05 3.9,2.3 0,0.3 -0.1,0.25 -1.75,-0.6 z"
       id="path1338" />
    <path
       d="M 31.55,23.8 C 30.6,22.35 29.45,18.35 30.1,19 c 0.35,0.3 2.85,6.5 2.65,6.5 -0.1,0 -0.65,-0.75 -1.2,-1.7 z"
       id="path1340" />
    <path
       d="m 22.5,22.05 c 0,-2.1 0.15,-2.45 1.15,-2.75 0.7,-0.2 1.3,0 1.75,0.55 0.55,0.8 0.6,0.8 0.6,0 0,-0.45 0.35,-0.85 0.75,-0.85 0.8,0 0.95,1.35 0.45,3.95 -0.3,1.45 -0.45,1.55 -2.5,1.55 h -2.2 z"
       id="path1342" />
    <path
       d="m 28.5,20.7 c 0,-1.05 0.2,-1.65 0.5,-1.45 0.3,0.15 0.5,0.95 0.5,1.8 0,0.8 -0.2,1.45 -0.5,1.45 -0.25,0 -0.5,-0.8 -0.5,-1.8 z"
       id="path1344" />
    <path
       d="M 33.2,18.8 C 33.05,17.85 33.05,16.85 33.25,16.55 33.4,16.25 32.9,13.9 32.05,11.35 31,8 30.1,6.15 28.9,4.95 28,4 26.85,2.7 26.35,2.05 c -1.2,-1.5 -1.65,-1 -0.6,0.65 0.6,0.9 0.8,1.8 0.55,2.95 -0.2,1.15 -0.15,1.4 0.2,0.85 0.45,-0.65 0.55,-0.65 1,0 0.7,1.05 0.6,1.4 -0.45,2 -0.7,0.35 -1.05,0.3 -1.2,-0.15 -0.15,-0.3 -0.3,0.1 -0.3,1 -0.05,2.25 0.65,2.4 2.15,0.55 1.2,-1.5 1.3,-1.55 1.3,-0.5 0,0.65 -0.3,1.1 -0.75,1.1 -0.45,0 -0.75,0.45 -0.75,1.2 0,1.5 -0.3,1.7 -3.25,2.15 l -2.35,0.3 0.8,-1.25 c 0.45,-0.65 0.65,-1.4 0.45,-1.6 C 22.95,11.1 23.1,10.75 23.5,10.5 23.95,10.2 24,10 23.65,10 23.25,10 23.2,9.55 23.5,8.55 23.7,7.8 23.8,6.55 23.65,5.85 23.45,4.8 23.6,4.55 24.55,4.4 l 1.2,-0.15 -1.1,-1 C 24,2.7 23.5,1.75 23.5,1.15 23.5,0.15 23.75,0 25.3,0 27.7,0 29,0.8 29,2.25 29,2.95 29.25,3.5 29.5,3.5 29.8,3.5 30,2.95 30,2.25 30,1.15 30.2,1 31.75,1 c 1.6,0 1.75,0.1 1.75,1.5 0,0.95 0.25,1.5 0.7,1.5 0.7,0 1.3,1.5 1.25,3.25 0,0.75 -0.15,0.65 -0.7,-0.5 -1,-2.15 -2.6,-4.05 -3.05,-3.6 -0.2,0.2 -0.05,1.45 0.4,2.75 0.45,1.3 0.95,3.65 1.15,5.2 0.2,1.6 0.6,3.05 0.9,3.25 0.9,0.6 2.45,3.15 1.9,3.15 -0.25,0 -0.65,-0.2 -0.8,-0.5 -0.15,-0.25 -0.65,-0.5 -1.05,-0.5 -0.65,0 -0.7,0.4 -0.45,2 0.4,2.45 -0.05,2.7 -0.55,0.3 z"
       id="path1346" />
    <path
       d="M 10.6,17.25 C 10,15.75 9.4,13.4 9.2,12 8.9,9.9 9,9.5 9.7,9.5 10.15,9.5 10.5,9.15 10.5,8.75 10.5,8.35 10.25,8 9.95,8 9.55,8 9.45,7.25 9.65,5.75 9.8,4.15 9.7,3.55 9.3,3.75 9,3.9 8.35,4.15 7.9,4.3 6.9,4.65 6.65,6.8 7.55,7.1 9,7.6 5.25,11.45 2.6,12.25 1.6,12.55 1.7,12.2 3.8,8.65 5.05,6.5 6.65,4.15 7.4,3.4 8.1,2.65 8.55,1.9 8.4,1.75 8.15,1.45 2.8,6.95 1.1,9.25 L 0.05,10.75 0,9.15 C 0,8.3 0.2,7.4 0.5,7.25 1.15,6.85 1.15,5 0.5,5 0.25,5 0,4.55 0,4 0,3.45 0.15,3 0.4,3 0.6,3 1.2,2.3 1.75,1.5 2.75,0 5,-0.6 5,0.6 5,1.05 5.15,1.05 5.6,0.6 5.95,0.25 7.15,0 8.35,0 c 2.1,0 2.15,0 2.15,1.75 0,1.4 0.2,1.75 1,1.75 0.95,0 1,0.1 0.25,1.8 -0.9,2.15 -1,5.2 -0.35,10.45 0.3,2.2 0.45,4.05 0.35,4.15 -0.05,0.05 -0.6,-1.1 -1.15,-2.65 z M 4.3,4.5 C 4.7,4.5 5,4.3 5,4 5,3.75 4.8,3.5 4.6,3.5 4,3.5 3,4.6 3.05,5.25 3.05,5.5 3.2,5.45 3.35,5.15 3.45,4.8 3.9,4.5 4.3,4.5 Z M 3,2.4 C 3,2.2 2.55,2.25 2,2.6 1.45,2.95 1,3.55 1,3.95 1,4.5 1.25,4.45 2,3.75 2.55,3.25 3,2.65 3,2.4 Z"
       id="path1348" />
    <path
       d="m 12.5,15.3 c 0,-0.15 0.95,-1.15 2.15,-2.3 1.25,-1.25 1.65,-1.85 1,-1.55 -1.2,0.6 -1.45,0.3 -0.75,-0.85 0.3,-0.4 0.95,-0.5 2,-0.3 2.15,0.45 2.15,1.85 0,2.75 -0.9,0.35 -2.1,1.05 -2.6,1.55 -0.9,0.85 -1.8,1.2 -1.8,0.7 z"
       id="path1350" />
    <path
       d="m 11.5,12.25 c 0,-0.4 0.35,-0.75 0.8,-0.75 0.7,0 0.7,0.15 0.2,0.75 -0.35,0.4 -0.7,0.75 -0.8,0.75 -0.1,0 -0.2,-0.35 -0.2,-0.75 z"
       id="path1352" />
    <path
       d="m 12.3,7.65 c 0.4,-2.3 1.15,-3.9 1.2,-2.5 C 13.5,5.7 13.9,6 14.75,6 15.45,6 16,5.8 16,5.5 16,5.25 17.25,5 18.8,5 h 2.85 L 20.4,6.65 C 19.65,7.6 18.6,8.3 17.8,8.4 16.45,8.55 16.45,8.55 17.3,7.25 18.7,5.1 17.6,5.2 15.45,7.4 c -2.6,2.7 -3.6,2.8 -3.15,0.25 z"
       id="path1354" />
    <path
       d="m 20.05,9.05 c -0.6,-0.4 -0.6,-0.6 -0.1,-1.25 0.95,-1.15 1.55,-1 1.55,0.45 0,1.35 -0.3,1.5 -1.45,0.8 z"
       id="path1356" />
    <path
       d="M 14.5,3.25 C 14.5,2.15 16.2,0 17,0 c 1.1,0 1.3,1 0.5,2.55 -0.45,0.85 -3,1.4 -3,0.7 z"
       id="path1358" />
    <path
       d="m 13,1 c 0,-0.65 0.35,-1 1,-1 0.55,0 1,0.15 1,0.4 0,0.2 -0.45,0.65 -1,1 C 13.1,1.95 13,1.9 13,1 Z"
       id="path1360" />
  </g>
  <g
     fill="#9b6b51"
     id="g1404"
     transform="translate(0.05,0.05)">
    <path
       d="m 15.5,36.3 c 0,-0.3 0.15,-1.4 0.3,-2.4 0.3,-1.55 0.55,-1.9 1.5,-1.9 1.05,0 1.15,0.15 0.7,1.3 -0.7,1.8 -0.6,2.7 0.25,2.7 0.4,0 0.75,0.2 0.75,0.4 0,0.2 -0.8,0.4 -1.75,0.4 -0.95,0 -1.75,-0.25 -1.75,-0.5 z"
       id="path1364" />
    <path
       d="m 9.4,34.45 c -1.2,-0.7 -1.15,-1.95 0.05,-1.6 0.75,0.2 1,-0.15 1.25,-1.6 0.5,-2.6 1.5,-1.9 1.7,1.15 0.15,2.45 0.1,2.6 -1,2.6 -0.65,0 -1.55,-0.25 -2,-0.55 z"
       id="path1366" />
    <path
       d="M 21.25,31.75 C 20.15,31.35 19.2,31 19.1,31 c -0.1,0 0,-0.2 0.15,-0.5 0.15,-0.25 1.2,-0.5 2.3,-0.5 1.05,0 1.95,-0.2 1.95,-0.5 0,-0.25 -0.65,-0.5 -1.5,-0.5 -1.35,0 -1.5,-0.15 -1.5,-1.55 0,-2.3 1.7,-3.6 4.35,-3.3 1.95,0.2 2.05,0.15 2.35,-1.3 0.45,-2.1 0.4,-2.35 -0.4,-2.35 -0.4,0 -0.85,-0.65 -1.05,-1.5 -0.35,-1.5 -0.95,-1.9 -1.45,-1.05 -0.15,0.25 0.05,0.7 0.45,1.05 1.15,0.95 0.9,1.5 -0.75,1.5 -1.4,0 -1.5,-0.15 -1.5,-1.75 V 17 H 25 c 2.35,0 2.5,0.1 2.5,1.25 0,0.95 0.25,1.25 0.9,1.15 0.7,-0.15 0.85,0.2 0.75,2.25 -0.05,1.4 -0.5,3 -1.1,4 -0.55,0.85 -1.6,2.8 -2.25,4.25 -1.35,2.8 -1.55,2.9 -4.55,1.85 z m 3.2,-5.05 c 0.9,-0.45 1.5,-0.9 1.35,-1.05 -0.4,-0.4 -3.3,0.9 -3.3,1.4 0,0.6 0.1,0.6 1.95,-0.35 z"
       id="path1368" />
    <path
       d="m 14,26.9 c 0,-1 0.05,-1.05 1,-0.15 0.55,0.5 1,1 1,1.1 0,0.05 -0.45,0.15 -1,0.15 -0.7,0 -1,-0.35 -1,-1.1 z"
       id="path1370" />
    <path
       d="m 15.4,25.6 c -0.75,-1.35 -1.55,-3.4 -1.9,-4.55 -0.3,-1.15 -0.7,-2.45 -0.85,-2.9 -0.25,-0.6 -0.05,-0.7 0.85,-0.4 0.75,0.25 1,0.2 0.8,-0.2 -0.2,-0.3 -0.25,-0.75 -0.05,-1.05 0.4,-0.65 1.75,-0.05 1.75,0.75 0,0.4 0.6,0.75 1.35,0.85 1.45,0.15 2.25,1.4 0.9,1.4 -0.45,0 -0.7,0.2 -0.5,0.5 0.2,0.3 0.75,0.3 1.5,0 1.15,-0.45 1.25,-0.35 1.25,0.85 0,1.25 -0.1,1.25 -2.25,1.05 -2.2,-0.25 -2.25,-0.25 -2.25,1.15 0,0.95 0.25,1.45 0.75,1.45 0.5,0 0.75,0.55 0.75,1.75 0,0.95 -0.2,1.75 -0.4,1.75 -0.2,0 -1,-1.1 -1.7,-2.4 z"
       id="path1372" />
    <path
       d="M 6.15,22.1 C 4.15,20.1 3.6,17.9 4.7,16.25 5.15,15.55 5.85,15 6.3,15 c 0.9,0 3.2,2.2 3.2,3.1 0,0.45 -0.15,0.5 -0.4,0.1 C 8.35,17.05 6.65,16.5 6.05,17.2 5.4,18 5.85,18.55 6.9,18.15 7.5,17.9 7.6,18.1 7.35,19 7.2,19.65 7.3,20.6 7.55,21.1 7.85,21.65 8,22.4 7.9,22.85 7.8,23.5 7.4,23.35 6.15,22.1 Z"
       id="path1374" />
    <path
       d="M 10.25,15.95 C 9.8,14.6 9.35,11.75 9.25,9.7 9.15,6.35 9.2,6 10.1,6 c 0.85,0 0.95,0.35 0.85,2.9 -0.05,1.55 0.1,4.35 0.3,6.25 0.2,1.85 0.25,3.35 0.1,3.35 -0.15,0 -0.65,-1.15 -1.1,-2.55 z"
       id="path1376" />
    <path
       d="m 35.75,17.5 c -0.5,-0.55 -1.2,-1 -1.6,-1 -0.35,0 -0.65,-0.45 -0.65,-1 0,-0.55 0.35,-1 0.75,-1 0.4,0 0.75,0.25 0.75,0.6 0,0.3 0.5,1.1 1.1,1.75 0.6,0.65 0.95,1.25 0.8,1.4 -0.1,0.15 -0.65,-0.2 -1.15,-0.75 z"
       id="path1378" />
    <path
       d="m 21.05,15.15 c 0.35,-0.5 1,-1.3 1.4,-1.8 0.45,-0.55 0.8,-1.65 0.85,-2.5 0.05,-0.9 0.3,-2.55 0.6,-3.7 C 24.4,4.85 24.15,2.35 23.45,2.8 23.2,2.95 23,2.35 23,1.55 23,0.35 23.2,0 24,0 c 0.55,0 1,0.35 1,0.75 0,0.45 0.35,1.35 0.8,2 0.55,0.8 0.7,1.8 0.55,2.75 -0.25,1.1 -0.15,1.4 0.35,1.2 1.3,-0.5 1.35,0.8 0.05,1.9 -0.95,0.85 -1.25,1.5 -1.15,2.65 0.1,1.25 -0.05,1.55 -0.95,1.65 -0.9,0.15 -1.15,0.5 -1.15,1.65 0,1.3 -0.15,1.45 -1.55,1.45 -1.4,0 -1.5,-0.1 -0.9,-0.85 z"
       id="path1380" />
    <path
       d="m 13.25,14.5 c 0.5,-0.55 1,-0.9 1.15,-0.75 0.35,0.3 -0.9,1.75 -1.55,1.75 -0.25,0 -0.1,-0.45 0.4,-1 z"
       id="path1382" />
    <path
       d="m 18,12.2 c 0,-0.95 0.25,-1.2 1.2,-1.2 0.65,0 1.45,0.3 1.75,0.65 0.4,0.55 0.15,0.8 -1.2,1.2 C 18.1,13.4 18,13.35 18,12.2 Z"
       id="path1384" />
    <path
       d="m 11.5,12.05 c 0,-0.55 0.25,-1.15 0.5,-1.3 0.3,-0.15 0.5,0.15 0.5,0.7 0,0.55 -0.2,1.15 -0.5,1.3 -0.25,0.15 -0.5,-0.15 -0.5,-0.7 z"
       id="path1386" />
    <path
       d="M 4,10.75 C 4.3,10.35 4.45,9.8 4.25,9.55 3.85,8.85 5.8,5.05 7.65,3.15 8.5,2.25 9,1.35 8.8,1.15 8.6,0.9 7.55,1.75 6.45,3 5.4,4.25 4.5,4.95 4.5,4.65 4.5,4.3 4.05,4 3.5,4 2.7,4 2.6,4.2 2.95,5.1 3.25,5.95 3.05,6.65 2.1,7.85 0.7,9.75 0,9.95 0,8.5 0,7.95 0.2,7.5 0.45,7.5 0.7,7.5 1.1,6.75 1.3,5.9 1.45,5 2.05,3.7 2.55,3.05 3.1,2.4 3.5,1.45 3.5,0.95 c 0,-1.4 1.9,-1.25 2.15,0.2 l 0.2,1.1 0.1,-1.1 C 6,0.05 6.2,0 9.5,0 11.45,0 13,0.2 13,0.5 c 0,0.25 0.4,0.3 0.9,0.15 0.75,-0.3 0.75,-0.25 0.15,0.5 C 13.7,1.6 13.1,2 12.75,2 12.1,2 8,5.85 8.05,6.4 8.2,7.45 7.85,8.15 6.25,9.75 4.5,11.45 2.75,12.3 4,10.75 Z"
       id="path1388" />
    <path
       d="M 31.3,8.7 C 30.8,7.35 30.95,6 31.7,6 32.35,6 33,7.4 33,8.9 33,9.8 31.65,9.65 31.3,8.7 Z"
       id="path1390" />
    <path
       d="M 20,8.25 C 20.35,7.85 20.8,7.5 21.05,7.5 21.3,7.5 21.5,7.85 21.5,8.25 21.5,8.7 21.05,9 20.45,9 19.55,9 19.5,8.9 20,8.25 Z"
       id="path1392" />
    <path
       d="m 17.5,7.9 c 0,-1.2 0.85,-2 1.95,-1.8 l 1.1,0.15 -1.05,1.15 c -1.15,1.2 -2,1.45 -2,0.5 z"
       id="path1394" />
    <path
       d="M 35.05,6.65 C 35,6.3 34.5,5.5 33.9,4.8 31.85,2.6 31.5,2.05 31.5,1 c 0,-0.75 0.25,-1 0.85,-0.9 0.95,0.2 3.4,5.55 2.95,6.55 -0.15,0.45 -0.25,0.45 -0.25,0 z"
       id="path1396" />
    <path
       d="M 0,3.75 C 0,3.35 0.25,3 0.5,3 0.8,3 1,3.35 1,3.75 1,4.15 0.8,4.5 0.5,4.5 0.25,4.5 0,4.15 0,3.75 Z"
       id="path1398" />
    <path
       d="m 15.05,2.25 c 1.8,-2.5 2.95,-2.9 2.95,-1 0,0.7 -0.2,1.25 -0.45,1.25 -0.25,0 -0.55,0.45 -0.7,1 -0.2,0.75 -0.7,1 -1.85,1 h -1.55 z"
       id="path1400" />
    <path
       d="M 27.5,3.4 C 27.5,3.1 27,2.3 26.4,1.65 25.8,1 25.5,0.35 25.65,0.15 26.15,-0.3 28,2 28,3.1 28,3.6 27.9,4 27.75,4 27.6,4 27.5,3.75 27.5,3.4 Z"
       id="path1402" />
  </g>
  <g
     fill="#c36f41"
     id="g1450"
     transform="translate(0.05,0.05)">
    <path
       d="M 8.5,33.75 C 8.15,33.3 8,32.85 8.15,32.7 8.5,32.3 10.5,33.4 10.5,34 c 0,0.75 -1.3,0.6 -2,-0.25 z"
       id="path1406" />
    <path
       d="m 11,31.15 c 0,-2.2 0.05,-2.25 0.9,-1.5 0.5,0.5 1.2,0.85 1.5,0.85 1.2,0 4.6,1.75 4.6,2.35 0,0.45 -1,0.65 -3.5,0.65 H 11 Z"
       id="path1408" />
    <path
       d="M 15.9,29.45 C 15.4,29.2 15,28.5 15,27.9 c 0,-1.05 0,-1.05 1.05,-0.1 1.1,0.95 1.1,0.95 0.5,-0.15 -0.75,-1.5 -0.7,-1.65 0.7,-1.65 1.1,0 1.25,0.2 1.25,1.7 0,1.1 -0.3,1.8 -0.8,2 -0.95,0.35 -0.75,0.4 -1.8,-0.25 z"
       id="path1410" />
    <path
       d="m 12.95,27.7 c -1.5,-1.7 -3.5,-6.1 -2.9,-6.45 0.3,-0.2 0.55,-0.25 0.6,-0.2 0.05,0.1 0.85,1.25 1.75,2.6 1.1,1.55 1.6,2.8 1.5,3.65 -0.15,1.25 -0.2,1.3 -0.95,0.4 z"
       id="path1412" />
    <path
       d="M 9.1,26.9 C 8.4,26.2 8.3,25.5 8.95,25.5 c 0.45,0 1.2,1.5 0.9,1.8 C 9.75,27.4 9.4,27.2 9.1,26.9 Z"
       id="path1414" />
    <path
       d="m 25.3,26.2 c 0.9,-0.75 0.9,-0.75 -0.35,-0.55 -1.75,0.25 -2.45,-0.7 -2.45,-3.5 0,-3.1 0.45,-4.65 1.3,-4.65 0.4,0 0.55,0.3 0.4,0.75 -0.2,0.4 -0.05,0.75 0.25,0.75 0.35,0 0.8,0.5 1.1,1.15 0.4,0.9 0.45,0.8 0.25,-0.75 -0.15,-1.05 0,-1.9 0.25,-1.9 0.85,0 1.45,2.5 1.45,6.05 V 27 h -1.6 c -1.5,0 -1.55,-0.05 -0.6,-0.8 z m 0.2,-3.5 c 0,-0.15 -0.35,-0.6 -0.75,-1 C 24.1,21 24,21.05 24,21.95 c 0,0.6 0.3,1.05 0.75,1.05 0.4,0 0.75,-0.15 0.75,-0.3 z"
       id="path1416" />
    <path
       d="m 6.6,22.35 c -1.45,-1.5 -1.45,-3.65 -0.05,-4 0.9,-0.25 1,-0.1 0.75,0.85 -0.2,0.75 0.05,1.6 0.7,2.4 0.85,1.15 0.9,1.9 0,1.9 -0.2,0 -0.8,-0.5 -1.4,-1.15 z"
       id="path1418" />
    <path
       d="M 8.05,17.45 C 6.95,16.55 6.95,16.5 7.9,16.5 c 0.55,0 1.15,0.35 1.3,0.8 0.45,1.2 0.2,1.25 -1.15,0.15 z"
       id="path1420" />
    <path
       d="M 10.4,16.15 C 9.25,13.25 8.75,8.5 9.6,8.5 c 0.5,0 0.9,1.3 1.35,4.55 0.35,2.5 0.55,4.65 0.4,4.75 -0.1,0.15 -0.55,-0.6 -0.95,-1.65 z"
       id="path1422" />
    <path
       d="M 34.55,16.05 C 34.2,15.8 34,15.3 34.1,14.95 c 0.15,-0.5 0.4,-0.35 0.85,0.45 0.65,1.2 0.6,1.3 -0.4,0.65 z"
       id="path1424" />
    <path
       d="M 31.95,10.2 C 31.05,7.3 30.35,6.1 29.2,5.15 27.25,3.7 26.65,2 28.05,2 28.65,2 29,1.65 29,1 c 0,-0.8 0.35,-1 1.75,-1 1.4,0 1.75,0.2 1.75,1 0,0.8 -0.35,1 -1.55,1 h -1.6 l 1.25,1.15 c 1.25,1.15 2,3.6 2.65,8.5 0.15,1.3 0.25,2.35 0.15,2.35 -0.1,0 -0.75,-1.7 -1.45,-3.8 z"
       id="path1426" />
    <path
       d="m 11.5,12.1 c 0,-0.55 0.35,-1.25 0.75,-1.6 0.6,-0.5 0.75,-0.45 0.75,0.4 0,0.55 -0.35,1.25 -0.75,1.6 -0.6,0.5 -0.75,0.45 -0.75,-0.4 z"
       id="path1428" />
    <path
       d="m 16,11.75 c 1.25,-1.35 2.5,-1.55 4.05,-0.75 1.65,0.9 1.1,1.6 -1.05,1.4 -1.1,-0.1 -2,0 -2,0.2 0,0.25 -0.5,0.4 -1.1,0.4 h -1.05 z"
       id="path1430" />
    <path
       d="m 23.5,12.05 c 0,-0.3 0.25,-0.65 0.5,-0.8 0.3,-0.15 0.5,-0.55 0.5,-0.85 0,-0.35 -0.3,-0.3 -0.75,0.1 -0.9,0.75 -1.05,-0.05 -0.25,-1.55 0.85,-1.55 1.3,-1.1 1.4,1.3 0.05,1.7 -0.1,2.25 -0.65,2.25 -0.4,0 -0.75,-0.2 -0.75,-0.45 z"
       id="path1432" />
    <path
       d="M 4,11.35 C 4,11.25 4.55,10.45 5.25,9.5 6.65,7.6 6.9,6.55 5.75,7.5 5.15,8 5,8 5,7.5 5,6.55 6.5,4.35 7.8,3.35 L 9,2.45 8.65,4.05 c -0.2,1.05 -0.1,1.7 0.4,2 C 9.5,6.3 9.55,6.5 9.15,6.5 8.85,6.5 8.1,7.25 7.55,8.2 6.7,9.6 4,12 4,11.35 Z"
       id="path1434" />
    <path
       d="m 27.6,10 c 0.35,-0.55 0.8,-1 1,-1 0.25,0 0.4,0.45 0.4,1 0,0.65 -0.35,1 -1,1 -0.9,0 -0.95,-0.1 -0.4,-1 z"
       id="path1436" />
    <path
       d="M 0,9.25 C 0,8.7 0.35,7.8 0.75,7.3 1.15,6.75 1.5,5.85 1.5,5.25 1.5,3.65 5.35,0 7.1,0 7.85,0 8.5,0.1 8.5,0.25 8.5,0.55 7.3,2 4.05,5.7 -0.25,10.6 0,10.35 0,9.25 Z"
       id="path1438" />
    <path
       d="M 12.4,9.2 C 11.75,8.6 13,4.75 14.2,3.6 L 15.5,2.25 V 4.1 c 0,1 -0.2,2 -0.5,2.15 C 14.75,6.4 14.5,7 14.5,7.5 c 0,0.95 -1.6,2.25 -2.1,1.7 z"
       id="path1440" />
    <path
       d="M 20.1,8.4 C 20.4,7.5 21.5,7.35 21.5,8.2 21.5,8.65 21.15,9 20.7,9 20.25,9 20,8.75 20.1,8.4 Z"
       id="path1442" />
    <path
       d="M 17.85,6.5 C 18.15,5.4 17.5,5.2 16.6,6.1 16.15,6.55 16,6.35 16,5.2 c 0,-1.05 0.5,-2 1.65,-3.1 1.4,-1.35 2,-1.6 4.15,-1.6 2.2,0 2.6,0.15 3.3,1.4 0.95,1.6 0.7,5.6 -0.35,5.6 -0.8,0 -1.35,-2.1 -1,-3.9 0.3,-1.2 0.05,-1.05 -2.1,1.3 -2.5,2.7 -4.3,3.45 -3.8,1.6 z"
       id="path1444" />
    <path
       d="M 10,5.05 C 10,2.8 10.5,2 11.8,2 13.25,2 13.25,2.05 12,4.5 10.8,6.85 10,7.05 10,5.05 Z"
       id="path1446" />
    <path
       d="M 32.95,3.95 31.85,2.4 33,2.6 c 0.65,0.05 1.3,0.65 1.55,1.25 0.65,1.75 -0.35,1.8 -1.6,0.1 z"
       id="path1448" />
  </g>
  <g
     fill="#726f99"
     id="g1460"
     transform="translate(0.05,0.05)">
    <path
       d="M 17.15,21.15 C 15.9,21 15.5,20.7 15.5,19.95 15.5,19.25 15.15,19 14.25,19 13.55,19 13,18.75 13,18.45 c 0,-0.3 0.35,-0.4 0.8,-0.25 0.6,0.2 0.7,0.05 0.45,-0.65 -0.2,-0.7 0,-1.15 0.7,-1.5 1.5,-0.85 2.05,-0.65 2.05,0.65 0,0.75 0.35,1.3 1,1.45 1.35,0.35 1.25,1.35 -0.1,1.35 -1,0.05 -1.05,0.1 -0.3,0.55 1.05,0.6 2.9,-0.2 2.9,-1.3 0,-0.4 0.35,-0.75 0.75,-0.75 0.5,0 0.75,0.55 0.75,1.75 0,1.9 -0.25,1.95 -4.85,1.4 z"
       id="path1452" />
    <path
       d="M 26.7,20.6 C 26.4,20.4 25.95,19.5 25.75,18.65 25.6,17.7 25.1,17 24.7,17 24.25,17 24,16.4 24,15.2 c 0,-1.95 0.8,-3.85 1.5,-3.45 0.25,0.15 0.55,0.05 0.75,-0.25 0.5,-0.8 2.75,-0.6 2.75,0.25 0,0.4 -0.3,0.75 -0.65,0.75 -1.1,0 -2.7,2 -2,2.4 0.35,0.2 0.75,1.35 0.95,2.5 0.25,1.45 0.55,2.05 1,1.9 0.5,-0.2 1.2,0.65 1.2,1.5 0,0.35 -2.2,0.2 -2.8,-0.2 z"
       id="path1454" />
    <path
       d="m 20.5,16.3 c 0,-0.4 0.25,-0.9 0.5,-1.05 0.3,-0.15 0.5,0.05 0.5,0.45 0,0.4 -0.2,0.9 -0.5,1.05 -0.25,0.15 -0.5,-0.05 -0.5,-0.45 z"
       id="path1456" />
    <path
       d="m 13,15.3 c 0,-0.2 0.8,-1.1 1.75,-2.05 1.3,-1.35 2.15,-1.75 3.55,-1.75 2.55,0 1.95,1.05 -1.25,2.1 -1.45,0.5 -2.95,1.15 -3.35,1.45 -0.4,0.3 -0.7,0.4 -0.7,0.25 z"
       id="path1458" />
  </g>
  <g
     fill="#ca8752"
     id="g1496"
     transform="translate(0.05,0.05)">
    <path
       d="M 11.65,35.75 C 10.25,35 8.8,34.1 8.4,33.65 c -0.6,-0.75 -0.5,-0.8 1,-0.5 1.55,0.3 1.6,0.25 1.6,-1.25 0,-1.5 0.05,-1.55 0.85,-0.8 0.7,0.75 0.9,0.75 1.35,0.15 0.5,-0.65 0.75,-0.65 2,0 0.75,0.4 1.75,0.75 2.15,0.75 0.55,0 0.6,0.4 0.35,1.9 -0.65,3.5 -1.9,3.9 -6.05,1.85 z"
       id="path1462" />
    <path
       d="m 16.6,29.75 c -3.55,-1.7 -3.7,-1.8 -5.15,-5.05 -0.85,-1.8 -1.4,-3.4 -1.3,-3.55 0.15,-0.1 0.95,0.75 1.75,1.95 1.55,2.2 5.1,5.85 5.1,5.25 0,-0.2 -0.55,-1.2 -1.15,-2.25 C 14.65,24.2 13,19.85 13,18.6 c 0,-0.4 0.3,-0.6 0.75,-0.4 0.5,0.2 0.75,-0.05 0.75,-0.7 0,-1.25 0.6,-1.25 1.65,-0.1 0.95,1.05 1.15,4.1 0.3,4.1 -0.8,0 0,2 1.35,3.45 0.7,0.7 1.5,1.9 1.85,2.7 0.3,0.75 0.75,1.35 0.95,1.35 0.25,0 0.4,0.55 0.4,1.25 0,0.7 -0.15,1.25 -0.35,1.2 -0.25,0 -2.05,-0.8 -4.05,-1.7 z"
       id="path1464" />
    <path
       d="m 22,29.25 c 0,-1.4 0.2,-1.75 0.95,-1.75 0.55,0 1.15,-0.2 1.3,-0.5 C 24.85,26 26,26.5 26,27.8 26,29.9 25.1,31 23.5,31 22.1,31 22,30.85 22,29.25 Z"
       id="path1466" />
    <path
       d="m 24,24.1 c 0,-0.2 0.5,-0.65 1.05,-1 0.9,-0.6 1.05,-1.05 0.85,-3.1 l -0.25,-2.4 1.25,1.15 c 1.1,1 1.2,1.4 0.9,3.45 -0.35,2.2 -0.4,2.3 -2.1,2.3 -0.95,0 -1.7,-0.15 -1.7,-0.4 z"
       id="path1468" />
    <path
       d="M 6.05,21.75 C 4.6,20.05 3.85,17 4.95,17 5.2,17 5.5,16.55 5.65,16 6,14.7 6.55,14.75 8.2,16.25 c 1.7,1.55 1.7,2.65 0,1.3 -1.05,-0.8 -1.5,-0.9 -2,-0.5 -1,0.85 -0.85,1.45 0.35,1.45 0.8,0 0.95,0.2 0.7,1.05 -0.2,0.65 0,1.35 0.55,2 0.6,0.65 0.7,1.15 0.35,1.5 -0.35,0.35 -1,-0.05 -2.1,-1.3 z"
       id="path1470" />
    <path
       d="m 22.85,22.15 c -0.2,-0.15 -0.35,-1.3 -0.35,-2.5 0,-1.8 0.15,-2.15 1,-2.15 0.6,0 0.85,0.25 0.7,0.65 -0.15,0.4 0.1,1 0.55,1.35 0.95,0.8 1,1.7 0,1.3 -0.5,-0.2 -0.75,0.05 -0.75,0.7 0,1 -0.55,1.3 -1.15,0.65 z"
       id="path1472" />
    <path
       d="M 9.95,13.9 C 9.65,12.7 9.35,10.55 9.35,9.15 9.35,6.4 9.05,6 8,7.25 7.2,8.2 6.5,8.2 6.5,7.25 6.5,6.85 6.25,6.5 5.95,6.5 5.6,6.5 5.65,6.1 6.15,5.4 6.55,4.75 7.15,4.3 7.45,4.35 7.75,4.45 8,4.2 8,3.85 8.05,2.35 9.9,1 12,1 h 2.05 L 12.4,3.4 c -1.6,2.3 -1.65,2.45 -1.6,7.5 0.05,2.8 0,5.1 -0.1,5.1 -0.1,0 -0.4,-0.95 -0.75,-2.1 z"
       id="path1474" />
    <path
       d="m 13,15.1 c 0,-0.2 1,-1.35 2.2,-2.55 1.95,-1.9 2.4,-2.1 3.75,-1.8 2.75,0.6 2.7,1.9 -0.05,1.9 -0.9,0 -1.75,0.15 -1.9,0.3 -0.5,0.65 -4,2.5 -4,2.15 z"
       id="path1476" />
    <path
       d="m 23.9,12.85 c -0.1,-0.6 0.2,-1.8 0.7,-2.6 l 0.9,-1.5 v 1.7 1.75 L 27.25,10.5 29,8.8 v 1.85 c 0,1.5 -0.2,1.85 -0.95,1.85 -0.5,0 -1.2,0.35 -1.55,0.75 -0.95,1.15 -2.35,0.9 -2.6,-0.4 z"
       id="path1478" />
    <path
       d="M 32.1,10.15 C 30.9,6.65 30.8,6 31.65,6 c 0.55,0 0.9,0.7 1.1,2.2 0.5,3.15 0.15,4.25 -0.65,1.95 z"
       id="path1480" />
    <path
       d="M 4.5,10.65 C 4.5,10 5.95,8.75 6.25,9.1 6.4,9.25 6.05,9.75 5.5,10.25 c -0.55,0.5 -1,0.65 -1,0.4 z"
       id="path1482" />
    <path
       d="M 23.7,8.9 C 23.9,8 24.25,7.2 24.5,7.1 25.2,6.85 25.15,5 24.45,5 24.05,5 24,4.45 24.2,3.4 24.5,1.85 24.5,1.85 23.5,2.75 c -0.95,0.9 -1,0.85 -1,-0.15 0,-0.85 0.3,-1.1 1.25,-1.1 2.35,0 3,3.6 1.25,7 -1.25,2.4 -1.75,2.55 -1.3,0.4 z"
       id="path1484" />
    <path
       d="M 0.7,8.25 C 0.9,7.7 1.2,6.6 1.35,5.85 1.5,5.05 1.95,4.3 2.3,4.15 2.6,4.05 3.05,3.4 3.2,2.7 3.45,1.7 3.85,1.5 5.3,1.5 h 1.75 l -1,1.4 C 4.25,5.35 0.35,9.25 0.7,8.25 Z"
       id="path1486" />
    <path
       d="M 12.8,7.15 C 13,6.1 13.95,4.1 14.95,2.65 16.35,0.6 17.05,0.05 18.15,0 18.9,0 19.5,0.2 19.5,0.45 19.5,0.7 20,1 20.6,1.1 21.25,1.2 21.8,1.65 21.9,2.15 22.2,3.7 21.55,5.5 20.65,5.5 20.2,5.5 20,5.65 20.15,5.85 20.7,6.35 18.95,8 17.95,8 17.1,8 17.2,7.7 18.5,5.55 19.35,4.2 20.4,2.95 20.85,2.8 21.3,2.6 21.5,2.35 21.3,2.15 21.15,1.95 19.95,2.8 18.75,4 17.1,5.65 16.5,6 16.5,5.3 16.5,4.55 16.4,4.55 15.85,5.1 15.45,5.45 14.95,6.45 14.65,7.25 14.4,8.1 13.8,8.85 13.3,8.9 12.55,9.05 12.5,8.8 12.8,7.15 Z"
       id="path1488" />
    <path
       d="m 20.1,8.45 c 0.1,-0.3 0.4,-0.5 0.65,-0.5 0.25,0 0.55,0.2 0.65,0.5 C 21.5,8.75 21.2,9 20.75,9 20.3,9 20,8.75 20.1,8.45 Z"
       id="path1490" />
    <path
       d="M 25.85,8.65 C 25.4,7.95 26.95,6.25 27.5,6.8 27.85,7.15 27.7,7.6 27.05,8.2 26.55,8.65 26,8.9 25.85,8.65 Z"
       id="path1492" />
    <path
       d="M 32.65,3.6 C 31.7,2.45 31.55,2.4 31.5,3.2 c 0,0.65 -0.25,0.85 -1,0.65 C 30,3.7 29.45,3.85 29.3,4.2 29.2,4.5 28.3,3.85 27.35,2.75 26.4,1.65 25.65,0.7 25.65,0.65 25.7,0.6 27.4,0.45 29.4,0.25 L 33,-0.05 33.3,1.5 C 33.5,2.3 33.8,3 34,3 c 0.2,0 0.5,0.45 0.65,1 0.35,1.4 -0.7,1.2 -2,-0.4 z"
       id="path1494" />
  </g>
  <g
     fill="#bc8e73"
     id="g1528"
     transform="translate(0.05,0.05)">
    <path
       d="m 19.25,37 c 1,-1.1 1.55,-1 1.1,0.25 -0.2,0.4 -0.7,0.75 -1.15,0.75 -0.8,0 -0.8,-0.1 0.05,-1 z"
       id="path1498" />
    <path
       d="m 16,35.8 c 0,-0.8 0.25,-1.3 0.75,-1.3 0.4,0 0.75,0.35 0.75,0.75 0,0.4 0.35,0.75 0.75,0.75 0.4,0 0.75,0.25 0.75,0.5 0,0.65 -0.85,0.65 -1.25,0 C 17.5,36.1 17.2,36.15 16.7,36.55 16.15,37 16,36.9 16,35.8 Z"
       id="path1500" />
    <path
       d="M 20.15,31.15 C 18.2,30.2 18,29.5 19.75,29.5 20.85,29.5 21,29.3 21,27.75 21,26.3 21.2,26 22.05,26 c 0.95,0 1,0.1 0.4,0.85 -0.65,0.75 -0.55,0.8 0.7,0.55 0.75,-0.15 1.35,-0.1 1.35,0.05 -0.05,0.6 -1.35,2.05 -1.9,2.05 -0.3,0 -0.6,0.55 -0.7,1.25 -0.15,1.2 -0.2,1.2 -1.75,0.4 z"
       id="path1502" />
    <path
       d="m 25.5,27.65 c 0,-0.5 0.4,-1.85 0.85,-3.05 0.65,-1.7 0.7,-2.25 0.2,-2.55 C 26.2,21.85 26,21.45 26.1,21.2 26.15,20.95 26.05,20 25.85,19.15 c -0.35,-1.85 -1.3,-2.2 -1.7,-0.65 -0.15,0.55 -0.6,1 -0.95,1 -0.4,0 -0.7,-0.45 -0.7,-1 0,-0.65 -0.35,-1 -1,-1 -1.5,0 -1.2,-1.25 0.95,-4.15 1.05,-1.45 2.3,-3.3 2.75,-4.2 0.85,-1.7 1.7,-2.45 2.15,-1.95 0.2,0.15 -0.2,0.85 -0.8,1.5 -0.8,0.85 -1.1,1.65 -0.95,2.75 0.05,0.9 -0.1,1.75 -0.4,1.95 -0.3,0.2 -0.65,0.75 -0.85,1.25 -0.25,0.7 -0.05,0.85 1.15,0.85 1.5,0 1.85,0.65 1.55,2.9 -0.05,0.3 0.5,0.85 1.2,1.1 0.7,0.25 1.25,0.65 1.25,0.85 -0.05,1.55 -1.2,4.95 -2.15,6.4 -1.2,1.9 -1.85,2.2 -1.85,0.9 z"
       id="path1504" />
    <path
       d="m 6.75,22.5 c -0.75,-0.85 -0.8,-1 -0.15,-1 0.95,0 2.1,1.3 1.5,1.7 -0.25,0.15 -0.85,-0.15 -1.35,-0.7 z"
       id="path1506" />
    <path
       d="m 16,20.25 c 0,-1.6 0.1,-1.75 1.5,-1.75 0.85,0 1.5,0.25 1.5,0.55 0,0.3 -0.45,0.45 -1,0.3 -1.15,-0.3 -1.4,0.4 -0.3,0.8 1.1,0.45 2.7,-0.15 2.95,-1.1 0.15,-0.45 0.25,0.05 0.3,1.1 L 21,22 H 18.5 16 Z"
       id="path1508" />
    <path
       d="m 4.4,19.15 c -0.55,-2.7 1.2,-4.7 3.1,-3.55 1.2,0.75 1.35,1.65 0.2,1.2 -1.25,-0.45 -2.25,0.6 -1.9,2 C 6.05,19.7 5.9,20 5.35,20 4.9,20 4.5,19.6 4.4,19.15 Z"
       id="path1510" />
    <path
       d="m 13,15.2 c 0,-0.15 1,-1.25 2.2,-2.45 2.1,-2.05 2.35,-2.15 3.9,-1.7 0.9,0.25 1.7,0.45 1.75,0.45 0.1,0 0.15,0.2 0.15,0.45 0,0.2 -1.05,0.7 -2.35,1.05 -1.35,0.35 -3.15,1.05 -4,1.55 -0.9,0.5 -1.65,0.8 -1.65,0.65 z"
       id="path1512" />
    <path
       d="M 9.55,11.4 C 9.55,10.75 9.5,9.3 9.55,8.15 9.55,7 9.3,5.95 9,5.75 8.75,5.6 8.5,5.75 8.5,6.1 c 0,0.8 -2.9,4.4 -3.55,4.4 -0.25,0 0,-0.65 0.6,-1.45 C 6.25,8.1 6.55,7.2 6.35,6.4 6.1,5.5 6.5,4.75 8.05,3.15 9.1,2 10.45,0.8 10.95,0.5 12,-0.05 14.5,-0.2 14.5,0.3 c 0,0.65 -3.35,4.35 -4.25,4.75 -0.95,0.35 -0.95,0.4 0.1,0.4 1,0.05 1.05,0.2 0.55,1.55 -0.25,0.85 -0.4,2.4 -0.3,3.5 0.1,1.3 -0.05,2 -0.4,2 -0.35,0 -0.6,-0.5 -0.65,-1.1 z"
       id="path1514" />
    <path
       d="m 27,11.45 c 0,-0.7 0.25,-0.95 0.85,-0.85 1.3,0.25 1.45,1.9 0.2,1.9 C 27.3,12.5 27,12.2 27,11.45 Z"
       id="path1516" />
    <path
       d="M 23.7,9.2 C 23.85,8.75 24,7.65 24,6.7 24,5.35 24.2,5 25,5 c 1.2,0 1.25,0.9 0.15,3.25 -0.8,1.7 -2.05,2.55 -1.45,0.95 z"
       id="path1518" />
    <path
       d="M 31.3,7.45 C 30.6,6 30,4.4 30,3.85 30,3.25 29.7,3 29.15,3.1 28.35,3.25 25.5,1.15 25.5,0.4 25.5,0.15 26.6,0 27.95,0 30,0 30.5,0.2 30.75,1 30.9,1.55 30.9,2.2 30.75,2.5 30.6,2.75 30.65,3 30.9,3 31.45,3 33.3,9.4 32.85,9.8 32.7,10 32,8.9 31.3,7.45 Z"
       id="path1520" />
    <path
       d="M 1.2,7 C 1.35,6.05 1.75,5.15 2.05,4.95 2.35,4.8 2.6,4.5 2.55,4.35 2.55,4.15 2.95,3.1 3.4,2 4.2,0.1 4.35,0 6.4,0 c 1.15,0 2.1,0.15 2.1,0.4 0,0.2 -0.9,1 -2,1.8 -1.1,0.85 -2,1.75 -2,2.1 0,0.3 -0.55,1 -1.25,1.5 C 2.55,6.3 2,7 2,7.35 2,7.65 1.75,8.1 1.4,8.3 1,8.55 0.95,8.2 1.2,7 Z"
       id="path1522" />
    <path
       d="m 19.5,5.8 c 0,-0.85 0.5,-2 1.1,-2.65 1.2,-1.3 0.65,-1.55 -0.9,-0.4 -0.5,0.4 -1.9,0.75 -3.1,0.75 H 14.5 L 15.6,1.75 C 16.75,0 16.75,0 20.5,0 24.1,0 24.3,0.05 24.9,1.4 26.15,3.9 26.15,4 25.1,4 24.3,4 24.15,3.75 24.35,2.9 24.5,2.05 23.9,2.45 22.05,4.5 19.55,7.25 19.5,7.25 19.5,5.8 Z"
       id="path1524" />
    <path
       d="M 33.1,3.85 C 32.5,3.2 32,2.1 32,1.35 32,-1.1 33.15,0 34.5,3.65 35.1,5.3 34.55,5.4 33.1,3.85 Z"
       id="path1526" />
  </g>
  <g
     fill="#5c92cf"
     id="g1534"
     transform="translate(0.05,0.05)">
    <path
       d="m 15.85,20.65 c -0.2,-0.15 -0.35,-1.2 -0.35,-2.25 0,-1.35 0.2,-1.9 0.75,-1.9 0.4,0 0.75,0.3 0.75,0.7 0,0.35 0.45,0.8 1,0.95 0.55,0.15 1,0.55 1,0.85 0,0.4 -0.4,0.5 -1.05,0.35 -0.65,-0.15 -0.95,-0.05 -0.8,0.3 0.1,0.35 0.9,0.55 1.8,0.55 0.85,-0.05 1.55,0.1 1.55,0.35 0,0.5 -4.15,0.6 -4.65,0.1 z"
       id="path1530" />
    <path
       d="M 25.6,17.85 C 24.9,15.85 24.8,14 25.5,14 c 0.25,0 0.35,0.35 0.2,0.75 -0.2,0.45 0,0.75 0.5,0.75 0.45,0 0.8,0.4 0.85,0.9 0,0.45 0.1,1.35 0.15,2 0.2,1.7 -0.9,1.3 -1.6,-0.55 z"
       id="path1532" />
  </g>
  <g
     fill="#f36f63"
     id="g1544"
     transform="translate(0.05,0.05)">
    <path
       d="m 29.25,39.25 c -0.8,-0.4 -1.15,-0.7 -0.7,-0.75 0.4,0 1.2,0.35 1.75,0.75 1.15,0.9 0.9,0.9 -1.05,0 z"
       id="path1536" />
    <path
       d="m 19.35,36.95 c 1.45,-1.45 2.75,-2.5 2.95,-2.3 0.5,0.5 -2.2,3.25 -4.05,4.2 -1.25,0.6 -1.05,0.3 1.1,-1.9 z"
       id="path1538" />
    <path
       d="m 23.95,37 c -1.55,-1.25 -0.6,-1.3 1.05,0 0.7,0.55 1,1 0.7,1 -0.35,0 -1.1,-0.45 -1.75,-1 z"
       id="path1540" />
    <path
       d="M 12.6,36.25 C 10.45,35.3 7.85,33.45 8.2,33.15 8.35,33 9,33.2 9.7,33.65 c 1.3,0.9 1.9,0.65 1.45,-0.5 -0.25,-0.6 -0.1,-0.65 0.65,-0.25 0.55,0.3 1.4,0.95 1.9,1.55 0.65,0.75 1.3,0.95 2.35,0.7 1.5,-0.3 1.85,0.25 0.85,1.25 -0.8,0.8 -2.25,0.75 -4.3,-0.15 z"
       id="path1542" />
  </g>
  <g
     fill="#e19d66"
     id="g1586"
     transform="translate(0.05,0.05)">
    <path
       d="m 13.75,36.3 c -2.4,-0.9 -2.6,-1.15 -2.65,-3.35 -0.1,-1.8 0,-2 0.65,-1.45 0.4,0.35 1.2,1.4 1.8,2.35 1.25,1.95 1.8,1.95 3.3,-0.3 l 1.1,-1.6 -0.3,1.9 c -0.15,1.05 -0.6,2.2 -1.05,2.55 -0.9,0.7 -0.8,0.7 -2.85,-0.1 z"
       id="path1546" />
    <path
       d="M 16.55,29.45 C 14.8,28.65 13.45,27.85 13.65,27.7 13.8,27.55 13.5,27 12.95,26.45 12.45,25.95 12,25.1 12,24.65 12.05,24 12.4,24.2 13.5,25.5 c 0.85,0.95 1.5,2.05 1.5,2.45 0,0.4 0.15,0.55 0.3,0.4 0.2,-0.15 0.8,0 1.4,0.4 1.9,1.35 1.85,0.75 -0.1,-2 -1.1,-1.5 -2.15,-3.6 -2.35,-4.65 -0.2,-1 -0.55,-2.15 -0.85,-2.45 -0.65,-0.8 0.6,-0.9 1.5,-0.15 0.45,0.35 0.45,0.35 0.1,-0.1 -0.95,-1.1 -0.6,-2.5 0.6,-2.3 0.85,0.1 1.2,0.75 1.9,3.7 0.45,1.95 1.3,4.5 1.9,5.65 1.05,2.05 1.45,4.55 0.75,4.55 -0.25,-0.05 -1.85,-0.7 -3.6,-1.55 z"
       id="path1548" />
    <path
       d="m 22,28.7 c 0,-0.7 0.2,-1.15 0.45,-1 0.2,0.15 0.85,-0.05 1.35,-0.45 1.45,-1.1 1.7,-0.9 1.7,1 C 25.5,29.9 25.4,30 23.75,30 22.2,30 22,29.85 22,28.7 Z"
       id="path1550" />
    <path
       d="M 23.3,22.7 C 22.85,19.4 22.9,18 23.5,18 c 0.3,0 0.5,1.25 0.5,2.75 0,1.5 0.15,2.75 0.4,2.75 1.2,-0.05 1.75,-1.1 1.75,-3.35 0,-1.3 0.1,-2 0.2,-1.5 0.15,0.45 0.55,0.85 0.95,0.85 0.45,0 0.7,0.55 0.7,1.75 0,0.95 -0.2,1.75 -0.5,1.75 -0.25,0 -0.5,0.45 -0.5,1 0,0.8 -0.35,1 -1.7,1 -1.6,0 -1.7,-0.1 -2,-2.3 z"
       id="path1552" />
    <path
       d="M 5.75,21.45 C 4.95,20.45 4.5,19.4 4.6,18.6 4.75,17.15 5.95,16.45 5.8,17.85 5.75,18.5 6.05,18.7 6.7,18.6 7.55,18.45 7.6,18.55 7.05,19.2 6.5,19.85 6.6,20.2 7.5,21.5 9,23.6 7.55,23.55 5.75,21.45 Z"
       id="path1554" />
    <path
       d="M 7.3,16.75 C 6.2,15.9 6.45,15.3 7.65,15.8 c 0.8,0.3 1.6,1.7 0.95,1.7 -0.2,0 -0.8,-0.35 -1.3,-0.75 z"
       id="path1556" />
    <path
       d="M 10.1,13.75 C 9.75,12.55 9.7,11.6 10,11.3 c 0.55,-0.55 1.15,1.6 0.9,3.25 -0.15,1 -0.3,0.9 -0.8,-0.8 z"
       id="path1558" />
    <path
       d="m 14.25,13.8 c 0.85,-0.65 1.6,-1.1 1.75,-0.95 0.3,0.25 -2.05,2.1 -2.75,2.15 -0.25,0 0.2,-0.55 1,-1.2 z"
       id="path1560" />
    <path
       d="m 17.65,12.65 c -0.8,-0.3 -0.85,-1.45 -0.1,-1.9 0.6,-0.4 3.45,0.7 3.45,1.3 0,0.25 -0.3,0.45 -0.7,0.45 -0.4,0 -1,0.1 -1.4,0.2 -0.35,0.15 -0.95,0.1 -1.25,-0.05 z"
       id="path1562" />
    <path
       d="M 27,11.6 C 27,11.1 27.4,10.25 27.95,9.8 28.85,9 28.9,9 28.8,10.6 28.7,12.45 27,13.4 27,11.6 Z"
       id="path1564" />
    <path
       d="m 24.5,11.15 c 0,-0.25 0.25,-0.75 0.5,-1.15 0.4,-0.6 0.5,-0.55 0.5,0.4 0,0.6 -0.2,1.1 -0.5,1.1 -0.25,0 -0.5,-0.15 -0.5,-0.35 z"
       id="path1566" />
    <path
       d="m 32.55,10.95 c -0.1,-1.55 -2.1,-5.4 -3.1,-6.15 -0.6,-0.4 -1.35,-1.3 -1.7,-2 -0.6,-1.15 -0.6,-1.3 0.1,-1.3 0.45,0 1.2,-0.35 1.65,-0.75 0.8,-0.7 0.9,-0.65 1.35,0.6 1.05,2.8 2.25,8.55 2,9.45 -0.2,0.75 -0.25,0.75 -0.3,0.15 z"
       id="path1568" />
    <path
       d="M 6,8.85 C 6.9,7.35 7,6.85 6.5,6.25 5.75,5.35 6.75,3.8 7.85,4.2 8.2,4.35 8.5,4.25 8.5,4 8.5,3.7 8.75,3.5 9.05,3.5 9.4,3.5 10.4,2.65 11.3,1.65 12.85,-0.1 12.95,-0.15 13,0.9 13,1.55 12.65,2.7 12.25,3.5 11.65,4.65 11.15,5 10,5 8.9,5 8.5,5.25 8.5,5.9 8.5,6.4 7.7,7.7 6.7,8.8 l -1.8,1.95 z"
       id="path1570" />
    <path
       d="M 9.35,9.9 C 9.1,9 9.5,7.5 10.05,7.5 c 0.25,0 0.45,0.7 0.45,1.5 0,1.5 -0.75,2.05 -1.15,0.9 z"
       id="path1572" />
    <path
       d="M 23.85,7.6 C 24.3,2.65 24.5,1.9 25.3,2.5 c 0.9,0.8 0.9,3.05 0,5.2 -1.1,2.6 -1.7,2.6 -1.45,-0.1 z"
       id="path1574" />
    <path
       d="m 12.8,7.4 c 0.35,-1.8 1.3,-3.55 2.85,-5.25 1.3,-1.45 2,-1.45 1.55,-0.05 -0.3,0.95 -0.2,1.05 0.35,0.55 0.4,-0.35 1,-0.4 1.4,-0.2 0.45,0.3 -0.15,1.25 -2.2,3.5 -3.25,3.5 -4.4,3.9 -3.95,1.45 z"
       id="path1576" />
    <path
       d="M 1.3,6.65 C 1.6,4.9 3.2,2.5 4,2.5 4.9,2.5 4.25,5.1 3.2,5.95 2.55,6.45 2,7.15 2,7.4 2,7.7 1.75,8.1 1.45,8.25 1.1,8.5 1.05,8 1.3,6.65 Z"
       id="path1578" />
    <path
       d="M 17,8.05 C 17,7.8 17.35,7.35 17.75,7 18.15,6.65 18.5,6.1 18.5,5.8 18.5,5.45 19.05,4.65 19.75,4 L 21,2.85 V 4.3 c 0,1 -0.5,1.95 -1.4,2.85 C 18.2,8.5 17,8.9 17,8.05 Z"
       id="path1580" />
    <path
       d="m 33.2,3.9 c -1.35,-1.45 -2.35,-3.4 -2,-3.75 0.9,-0.9 3.55,2.5 3.2,4.2 C 34.3,4.9 34,4.85 33.2,3.9 Z"
       id="path1582" />
    <path
       d="M 22,3.2 C 22,2.2 22.85,1 23.6,1 24.35,1 24,2.35 23,3.25 22.05,4.15 22,4.1 22,3.2 Z"
       id="path1584" />
  </g>
  <g
     fill="#d8ab88"
     id="g1626"
     transform="translate(0.05,0.05)">
    <path
       d="M 13.5,36.35 C 11.75,35.75 11.15,34.65 11.05,32 v -1.25 l 0.95,1.2 c 0.55,0.65 1,1.45 1,1.75 0,0.35 0.55,0.95 1.25,1.3 1.1,0.6 1.3,0.55 2.2,-0.55 l 1,-1.2 0.05,1.35 c 0,1.15 -1.25,2.55 -2.1,2.35 -0.1,0 -0.95,-0.25 -1.9,-0.6 z"
       id="path1588" />
    <path
       d="M 22.9,32.15 C 21.95,31.9 21.65,30.5 22.5,30.5 c 0.3,0 0.5,-0.2 0.5,-0.5 0,-0.25 -0.35,-0.5 -0.75,-0.5 -0.5,0 -0.75,-0.55 -0.75,-1.75 0,-1.2 0.25,-1.75 0.75,-1.75 0.45,0 0.75,-0.45 0.75,-1.25 0,-1.1 0.2,-1.25 1.7,-1.25 1.6,0 1.7,0.1 1.9,1.9 0.2,1.3 -0.1,2.6 -1.05,4.5 -0.7,1.4 -1.4,2.55 -1.55,2.55 -0.15,-0.05 -0.65,-0.15 -1.1,-0.3 z m 1.35,-4.05 c -0.2,-0.5 0.1,-1.15 0.85,-1.65 0.6,-0.5 1,-1.05 0.8,-1.25 -0.5,-0.45 -3.7,1.5 -3.4,2.1 0.15,0.25 0.4,0.4 0.65,0.35 0.2,-0.1 0.35,0.3 0.35,0.9 0,0.6 0.2,0.85 0.55,0.7 0.3,-0.2 0.4,-0.7 0.2,-1.15 z"
       id="path1590" />
    <path
       d="M 18,28.15 C 17.6,27.35 17.2,26.6 17.1,26.4 17,26.15 17.5,26 18.2,26 c 1.15,0 1.3,0.2 1.3,1.75 0,2.1 -0.6,2.25 -1.5,0.4 z"
       id="path1592" />
    <path
       d="m 16.25,23.65 c -0.15,-0.75 -0.6,-1.55 -0.9,-1.75 -0.45,-0.3 -0.45,-0.6 0,-1.3 0.45,-0.75 0.45,-1.1 0,-1.55 -0.4,-0.4 -0.3,-0.55 0.45,-0.55 1.1,0 2.2,2.6 2.2,5.2 0,1.75 -1.3,1.7 -1.75,-0.05 z"
       id="path1594" />
    <path
       d="m 27,22.75 c 0,-1.4 0.2,-1.75 1,-1.75 1.05,0 1.2,0.5 0.7,2.4 -0.5,1.8 -1.7,1.35 -1.7,-0.65 z"
       id="path1596" />
    <path
       d="M 5.8,21.45 C 4.5,19.9 4.1,17.4 4.95,16.1 5.45,15.3 7.6,15.5 7.9,16.4 8,16.75 7.8,16.9 7.35,16.75 6,16.2 5.4,17.7 6.25,19.65 c 0.4,1 0.95,1.9 1.25,2.1 0.25,0.15 0.5,0.5 0.5,0.8 0,0.9 -0.9,0.45 -2.2,-1.1 z"
       id="path1598" />
    <path
       d="M 10.4,14.2 C 10.15,14 10,13.15 10,12.3 c 0.05,-1.3 0.1,-1.4 0.55,-0.65 0.55,0.95 0.4,3.15 -0.15,2.55 z"
       id="path1600" />
    <path
       d="m 23.5,13.4 c 0,-1.2 2.75,-5.9 3.45,-5.9 0.5,0 0.4,0.35 -0.35,1.15 C 25.3,10 25,13.05 26.25,12 26.85,11.5 27,11.5 27,12.1 c 0,0.4 -0.25,0.95 -0.6,1.3 -0.8,0.8 -2.9,0.75 -2.9,0 z"
       id="path1602" />
    <path
       d="m 16.05,12.15 c 1.55,-2 2.45,-2.15 2.45,-0.4 0,1.05 -0.25,1.25 -1.55,1.25 -1.45,0 -1.5,-0.1 -0.9,-0.85 z"
       id="path1604" />
    <path
       d="M 9.9,10.2 C 9.65,10 9.5,8.95 9.5,7.8 v -2 L 7.7,7.55 C 5.95,9.25 5.95,9.25 6.55,7.85 7.1,6.7 7.05,6.35 6.55,6 5.6,5.45 7.6,3.5 9.15,3.5 9.85,3.5 10.65,2.9 11.4,1.75 12.1,0.65 12.9,0 13.55,0 c 1,0 1.05,0.05 0.25,1.15 -1.4,1.9 -3,5.5 -3.25,7.5 C 10.4,9.75 10.1,10.4 9.9,10.2 Z"
       id="path1606" />
    <path
       d="M 24,8.4 C 24,7.5 24.25,7 24.75,7 c 0.95,0 0.95,0.55 0,1.8 -0.7,0.9 -0.7,0.9 -0.75,-0.4 z"
       id="path1608" />
    <path
       d="M 14,6.35 C 14,4.5 14.3,3.7 15.45,2.4 16.25,1.5 17.1,0.9 17.3,1.1 c 0.2,0.25 -0.05,0.85 -0.55,1.4 -1.6,1.75 0,1.1 1.75,-0.75 1.6,-1.65 3,-2.25 3,-1.35 0,0.7 -3.25,3.6 -4,3.6 -0.5,0 -0.55,0.15 -0.15,0.4 0.35,0.25 -0.1,1 -1.4,2.35 L 14,8.7 Z"
       id="path1610" />
    <path
       d="m 17.5,7.5 c 0.3,-0.55 1,-1 1.6,-1 1,0 1.05,0.05 0.15,1 -0.5,0.55 -1.2,1 -1.6,1 -0.55,0 -0.55,-0.2 -0.15,-1 z"
       id="path1612" />
    <path
       d="M 31.5,7.25 C 31.2,6.5 30.85,5.65 30.7,5.45 30.55,5.2 30.75,5 31.2,5 c 0.4,0 0.85,0.65 1.05,1.55 0.45,2 -0.05,2.5 -0.75,0.7 z"
       id="path1614" />
    <path
       d="M 1.85,5.15 C 1.7,4.95 2.25,3.95 3.05,3 4.3,1.55 4.5,1.45 4.5,2.3 4.5,2.85 4.35,3.5 4.15,3.7 3.9,3.9 3.75,4.35 3.75,4.65 c 0,0.7 -1.55,1.1 -1.9,0.5 z"
       id="path1616" />
    <path
       d="M 20.15,4.75 C 19.65,4.2 19.85,3.8 21.35,2.55 24.4,0 25.1,0.85 22.4,3.75 21,5.2 20.65,5.35 20.15,4.75 Z"
       id="path1618" />
    <path
       d="M 24.4,3.2 C 24.6,2 24.7,2 25.45,2.75 26.15,3.45 26.15,3.6 25.5,4 24.35,4.75 24.1,4.6 24.4,3.2 Z"
       id="path1620" />
    <path
       d="M 29.15,3 C 29.35,2.15 29.25,2 28.5,2.25 28,2.4 27.45,2.3 27.25,2 27.1,1.75 27.35,1.5 27.8,1.5 c 0.5,0 1.25,-0.35 1.75,-0.8 0.8,-0.7 0.9,-0.65 1.2,0.85 0.25,1.1 0.15,1.7 -0.3,2 -1.15,0.7 -1.6,0.5 -1.3,-0.55 z"
       id="path1622" />
    <path
       d="M 31.5,1.55 C 30.8,0.2 30.85,0 32,0 c 0.75,0 1,0.35 1,1.25 0,1.5 -0.75,1.65 -1.5,0.3 z"
       id="path1624" />
  </g>
  <g
     fill="#f5bc8d"
     id="g1660"
     transform="translate(0.05,0.05)">
    <path
       d="m 13.75,36.3 c -1.75,-0.5 -2,-0.8 -2.3,-2.45 -0.4,-2.5 0.2,-2.75 1.5,-0.6 1.25,2.1 2.5,2.75 3.15,1.6 0.6,-1.1 1.4,-1.1 1.4,0.05 0,1.45 -1.5,2 -3.75,1.4 z"
       id="path1628" />
    <path
       d="m 18,28 c -0.8,-1.65 -1.5,-3.4 -1.5,-3.85 0,-0.5 -0.35,-1.45 -0.8,-2.1 -0.65,-0.9 -0.7,-1.25 -0.2,-1.55 0.35,-0.2 0.45,-0.65 0.3,-0.95 -0.2,-0.3 0,-0.55 0.4,-0.55 0.45,0 0.8,0.45 0.8,1 0,0.55 0.25,1 0.5,1 0.3,0 0.5,0.4 0.5,0.9 0,0.45 0.55,2.05 1.25,3.5 1.25,2.75 1.65,5.6 0.75,5.6 -0.25,0 -1.15,-1.35 -2,-3 z"
       id="path1630" />
    <path
       d="m 22.5,29.5 c 0,-0.8 0.25,-1.5 0.5,-1.5 0.3,0 0.5,0.35 0.5,0.8 0,0.4 0.25,0.6 0.5,0.45 0.3,-0.2 0.4,-0.75 0.25,-1.25 -0.2,-0.65 0.05,-1.1 0.75,-1.5 1.6,-0.85 1.2,-1.5 -0.85,-1.35 l -1.9,0.1 -0.15,-3.1 C 21.95,19.25 22.05,19 23,19 c 0.85,0 1,0.3 1,2.3 0,1.9 0.15,2.25 0.85,2.1 0.5,-0.1 1.05,-0.9 1.35,-1.8 0.25,-0.85 0.75,-1.6 1.1,-1.6 0.85,0 1,5.75 0.15,6.3 -0.3,0.15 -1,1.3 -1.55,2.5 C 25.15,30.55 24.7,31 23.75,31 22.7,31 22.5,30.75 22.5,29.5 Z"
       id="path1632" />
    <path
       d="M 6.3,21.85 C 5,20.55 4.6,19.5 5.4,19.5 c 0.55,0 2.75,3 2.4,3.35 C 7.7,23 7,22.55 6.3,21.85 Z"
       id="path1634" />
    <path
       d="m 5.5,16.65 c 0,-1.4 1.55,-1.55 2.55,-0.35 0.6,0.75 0.55,0.8 -0.5,0.45 -0.8,-0.25 -1.3,-0.15 -1.6,0.3 -0.3,0.5 -0.45,0.4 -0.45,-0.4 z"
       id="path1636" />
    <path
       d="M 10.35,14.35 C 10.15,13.85 10,13.05 10,12.6 c 0.05,-0.75 0.1,-0.75 0.55,0.05 0.3,0.5 0.45,1.25 0.35,1.75 -0.15,0.8 -0.2,0.75 -0.55,-0.05 z"
       id="path1638" />
    <path
       d="m 23.5,13.5 c 0,-0.55 0.45,-1.7 1.05,-2.6 L 25.6,9.25 25.4,10.9 c -0.3,2 0,2 1.65,0.05 l 1.3,-1.6 0.25,1.35 c 0.25,1.1 0.05,1.45 -0.95,1.85 -0.65,0.25 -1.3,0.8 -1.45,1.2 -0.45,1.15 -2.7,0.95 -2.7,-0.25 z"
       id="path1640" />
    <path
       d="m 16.05,12.25 1.8,-1.85 1.65,0.85 c 1.85,0.95 1.75,1.3 -0.55,1.35 -0.95,0.05 -1.8,0.2 -1.95,0.4 -0.15,0.2 -0.8,0.55 -1.5,0.75 -1.15,0.3 -1.1,0.2 0.55,-1.5 z"
       id="path1642" />
    <path
       d="M 9.5,7.9 V 5.8 L 7.95,7.3 C 6.6,8.55 6.45,8.6 6.95,7.6 7.45,6.7 7.4,6.45 6.8,6.2 5.65,5.75 6.75,4 8.2,4 8.85,4 10.15,3.25 11.15,2.25 12.9,0.55 14,0.05 14,0.95 14,1.2 13.7,1.65 13.3,1.95 12.2,2.9 10.5,6.85 10.5,8.5 10.5,9.3 10.3,10 10,10 9.75,10 9.5,9.05 9.5,7.9 Z"
       id="path1644" />
    <path
       d="m 24.15,6.35 c 0.2,-3.6 0.45,-4.15 1.35,-3.6 0.85,0.5 0.35,4.3 -0.7,5.8 C 24,9.7 24,9.65 24.15,6.35 Z"
       id="path1646" />
    <path
       d="M 26,8 C 26.55,7 27.5,6.6 27.5,7.4 27.5,7.95 26.4,9 25.9,9 25.65,9 25.7,8.55 26,8 Z"
       id="path1648" />
    <path
       d="M 31.55,7.4 C 31.25,6.55 30.5,5.3 29.95,4.7 29.25,3.95 29.05,3.25 29.3,2.3 c 0.65,-2.6 1.65,-1.35 2.65,3.35 0.7,3.25 0.45,4.3 -0.4,1.75 z"
       id="path1650" />
    <path
       d="M 13.5,6.85 C 13.5,5.8 14,4.5 14.9,3.35 16.35,1.4 17.35,0.85 16.5,2.5 15.8,3.85 16.25,3.75 18.25,2.2 21.35,-0.15 21,1.2 17.55,4.9 15.7,6.85 14,8.5 13.85,8.5 13.65,8.5 13.5,7.75 13.5,6.85 Z"
       id="path1652" />
    <path
       d="M 17.85,6.9 C 18.9,5.05 21.55,2.25 23,1.5 c 1.35,-0.75 1.25,-0.1 -0.4,2 -3.55,4.55 -6.65,6.75 -4.75,3.4 z"
       id="path1654" />
    <path
       d="M 1.5,5.5 C 1.5,5 1.85,4.35 2.3,3.95 2.95,3.45 3.15,3.45 3.5,4 4.05,4.9 3.6,5.85 2.45,6.15 1.8,6.35 1.5,6.15 1.5,5.5 Z"
       id="path1656" />
    <path
       d="M 32.6,3.15 C 31.1,0.95 30.9,0 31.9,0 c 0.85,0 2.6,2.75 2.6,4 0,0.95 -0.95,0.5 -1.9,-0.85 z"
       id="path1658" />
  </g>
  <g
     fill="#d6bfb2"
     id="g1686"
     transform="translate(0.05,0.05)">
    <path
       d="m 15.5,36.1 c 0,-0.25 0.45,-0.85 1,-1.35 0.95,-0.9 1,-0.85 1,0.1 0,0.6 -0.35,1.2 -0.8,1.35 -1.05,0.4 -1.2,0.4 -1.2,-0.1 z"
       id="path1662" />
    <path
       d="M 20.9,31.45 C 19.5,30.65 19.85,30 21.65,30 c 0.9,0 2.15,-0.35 2.75,-0.8 1.55,-1.05 1.7,-0.75 0.75,1.2 -0.8,1.7 -2.45,2.1 -4.25,1.05 z"
       id="path1664" />
    <path
       d="m 20.5,27.25 c 0,-2.05 0.1,-2.25 1.2,-2.25 0.65,0 1.95,-0.15 2.85,-0.3 l 1.7,-0.3 -1.5,0.85 c -0.8,0.45 -1.8,1.1 -2.2,1.5 -0.65,0.6 -0.6,0.75 0.1,1.05 1.45,0.55 1,1.7 -0.65,1.7 -1.45,0 -1.5,-0.1 -1.5,-2.25 z"
       id="path1666" />
    <path
       d="m 24.35,27.7 c -0.15,-0.2 0.4,-1 1.25,-1.8 1.75,-1.65 2.3,-1.5 1.6,0.5 -0.45,1.3 -2.1,2.05 -2.85,1.3 z"
       id="path1668" />
    <path
       d="m 15.35,21.65 c -0.2,-0.15 -0.1,-0.6 0.2,-1 0.45,-0.5 0.4,-0.9 -0.25,-1.55 -1.1,-1.25 -1.05,-2.6 0.2,-2.6 0.7,0 1.05,0.45 1.3,1.75 0.15,0.95 0.55,1.9 0.8,2.05 0.8,0.5 2.9,-0.3 2.9,-1.05 0,-0.4 0.25,-0.75 0.5,-0.75 0.3,0 0.5,0.8 0.5,1.75 V 22 H 18.6 C 17,22 15.5,21.85 15.35,21.65 Z"
       id="path1670" />
    <path
       d="M 26.05,19.2 C 25.6,17.5 25.25,17 24.75,17.2 24.3,17.35 24,17.15 24,16.75 24,16.25 24.5,16 25.5,16 c 1.35,0 1.5,0.15 1.5,1.45 0,0.85 0.25,1.65 0.5,1.8 0.75,0.45 0.6,2.25 -0.2,2.25 -0.4,0 -0.9,-0.95 -1.25,-2.3 z"
       id="path1672" />
    <path
       d="m 4.5,17.8 c 0,-1.5 1.2,-2.55 2.35,-2.05 0.85,0.4 0.85,0.4 0.05,0.6 -0.5,0.15 -1.05,0.75 -1.2,1.45 -0.4,1.55 -1.2,1.55 -1.2,0 z"
       id="path1674" />
    <path
       d="m 20.5,17.15 c 0,-0.45 0.55,-1.5 1.2,-2.35 0.65,-0.85 1.8,-2.45 2.55,-3.55 l 1.4,-2 -0.35,2 c -0.15,1.1 -0.3,2.3 -0.3,2.65 0,0.3 -0.35,0.6 -0.75,0.6 -0.4,0 -0.75,0.45 -0.75,1 0,0.55 -0.2,1 -0.5,1 -0.25,0 -0.5,0.35 -0.5,0.75 0,0.4 -0.45,0.75 -1,0.75 -0.6,0 -1,-0.35 -1,-0.85 z"
       id="path1676" />
    <path
       d="m 17,12.2 c 0,-1.1 0.2,-1.25 1.35,-1.1 1.8,0.2 1.95,1.1 0.4,1.8 C 17,13.7 17,13.7 17,12.2 Z"
       id="path1678" />
    <path
       d="m 25.8,8.3 c 0.15,-0.45 0.55,-0.8 0.8,-0.8 0.65,0 0.25,1.15 -0.5,1.4 C 25.75,9 25.6,8.8 25.8,8.3 Z"
       id="path1680" />
    <path
       d="m 18.5,7.1 c 0,-1.25 2.8,-4.6 3.85,-4.6 0.5,0 0.25,0.65 -0.8,2.15 -0.8,1.2 -1.8,2.45 -2.25,2.8 -0.7,0.6 -0.8,0.5 -0.8,-0.35 z"
       id="path1682" />
    <path
       d="M 32.9,3.4 C 31.1,0.6 30.9,0 31.9,0 c 0.85,0 2.6,2.7 2.6,4 0,0.85 -0.85,0.55 -1.6,-0.6 z"
       id="path1684" />
  </g>
  <g
     fill="#fad9ae"
     id="g1720"
     transform="translate(0.05,0.05)">
    <path
       d="m 16,35.25 c 1.35,-1.45 1.85,-1.35 1,0.2 -0.3,0.6 -0.9,1.05 -1.35,1.05 -0.65,0 -0.6,-0.25 0.35,-1.25 z"
       id="path1688" />
    <path
       d="M 12.15,35.4 C 11.5,34.55 11.05,32 11.55,32 c 0.2,0 0.8,0.6 1.35,1.4 1.65,2.4 1.7,2.6 0.7,2.6 -0.55,0 -1.2,-0.3 -1.45,-0.6 z"
       id="path1690" />
    <path
       d="M 19.95,30.9 C 19.1,30.15 16.5,24.55 16.5,23.35 c 0,-0.4 -0.35,-1 -0.75,-1.35 -0.55,-0.45 -0.6,-0.8 -0.2,-1.3 0.35,-0.45 0.3,-1 -0.3,-1.9 -0.85,-1.3 -0.85,-1.3 0.5,-1.3 1.2,0 1.35,0.15 1.1,1.3 -0.15,0.8 0,1.4 0.45,1.55 0.35,0.1 0.8,0.95 1,1.8 0.15,0.9 0.95,2.85 1.7,4.35 l 1.4,2.75 -0.25,-2.35 c -0.2,-1.6 -0.1,-2.4 0.3,-2.4 C 21.8,24.5 22,23.35 22,21.25 22,18.3 22.1,18 23.05,18 c 0.95,0 1,0.2 0.7,2.7 -0.25,1.7 -0.15,2.8 0.2,3 0.65,0.4 2.55,-1.4 2.55,-2.45 0,-0.45 0.5,-0.75 1.3,-0.75 1.25,0 1.25,0.1 0.95,2.1 -0.2,1.2 -1.3,3.65 -2.4,5.5 -1.9,3.2 -2.1,3.4 -3.85,3.4 -1,0 -2.15,-0.3 -2.55,-0.6 z m 4.8,-1.9 c 0.2,-0.3 0.05,-0.9 -0.3,-1.3 -0.5,-0.6 -0.45,-0.8 0.45,-1 0.9,-0.25 1.9,-1.6 1.45,-2 -0.05,-0.1 -1.1,0.35 -2.25,0.9 -2.05,1.05 -2.8,2.4 -1.35,2.4 0.4,0 0.75,0.35 0.75,0.75 0,0.85 0.8,1 1.25,0.25 z"
       id="path1692" />
    <path
       d="M 5.5,21 C 3.8,18.6 5.05,14.55 7.05,15.8 7.5,16.05 7.35,16.3 6.6,16.55 5.25,17.05 5.2,17.95 6.45,20.5 7.6,22.85 7,23.15 5.5,21 Z"
       id="path1694" />
    <path
       d="M 23.75,13.5 C 23.4,12.45 24.2,11 25.1,11 c 0.25,0 0.3,0.5 0.1,1.15 -0.3,1.05 -0.25,1 1.15,-0.25 1.75,-1.65 2.15,-1.75 2.15,-0.4 0,0.55 -0.35,1 -0.75,1 -0.4,0 -1,0.45 -1.35,1 -0.85,1.3 -2.25,1.3 -2.65,0 z"
       id="path1696" />
    <path
       d="m 15.75,12.5 c 0.5,-0.55 1,-1 1.1,-1 0.05,0 0.15,0.45 0.15,1 0,0.7 -0.35,1 -1.1,1 -1,0 -1.05,-0.05 -0.15,-1 z"
       id="path1698" />
    <path
       d="m 17.5,12.05 c 0,-1.15 1.65,-1.5 2.25,-0.5 0.4,0.65 0.3,0.75 -1.1,1.15 C 17.7,13 17.5,12.85 17.5,12.05 Z"
       id="path1700" />
    <path
       d="M 24.35,7.25 C 24.5,6.55 24.9,6 25.3,6 25.8,6 25.85,6.3 25.55,7.1 25,8.65 24.1,8.8 24.35,7.25 Z"
       id="path1702" />
    <path
       d="M 9.7,6.75 C 10.05,5.4 9.55,5.15 8.6,6.1 8.2,6.5 7.85,6.5 7.3,6 6.3,5.2 6.75,4.5 8.25,4.5 9.05,4.5 9.9,3.9 10.8,2.75 11.5,1.8 12.45,1 12.8,1 13.6,1 13.75,1.8 12.95,2.25 12.7,2.45 11.9,3.8 11.25,5.3 10,8.1 9.15,8.9 9.7,6.75 Z"
       id="path1704" />
    <path
       d="M 14.1,6.25 C 14.2,4.7 14.5,4.2 15.25,4.1 15.8,4 16.7,3.5 17.25,3 17.8,2.5 18.8,1.85 19.45,1.5 20.6,0.9 20.6,1 19.15,2.8 18.3,3.85 16.75,5.55 15.75,6.5 l -1.8,1.75 z"
       id="path1706" />
    <path
       d="M 18.35,6.45 C 18.85,5.6 19.55,4.7 19.9,4.35 20.45,3.95 20.5,4.1 20.2,5.3 19.8,7.1 19.1,8 18.15,8 17.6,8 17.6,7.7 18.35,6.45 Z"
       id="path1708" />
    <path
       d="m 30.65,5.5 c -1.2,-1.45 -1.5,-3.7 -0.7,-4.25 0.3,-0.15 0.7,0.1 0.95,0.6 0.5,0.9 1.35,5.15 1,5.1 -0.05,0 -0.65,-0.65 -1.25,-1.45 z"
       id="path1710" />
    <path
       d="M 1.8,5.6 C 1.45,5 2.9,3.7 3.35,4.2 3.55,4.35 3.35,4.9 2.9,5.3 2.45,5.8 2,5.9 1.8,5.6 Z"
       id="path1712" />
    <path
       d="m 24.5,3.45 c 0,-1.2 1.15,-1.05 1.4,0.2 0.1,0.5 -0.15,0.85 -0.6,0.85 -0.5,0 -0.8,-0.45 -0.8,-1.05 z"
       id="path1714" />
    <path
       d="M 32.9,3.4 C 31.15,0.7 30.9,0 31.8,0 c 0.45,0 0.9,0.45 1.05,1 0.15,0.55 0.45,1 0.65,1 0.2,0 0.5,0.55 0.6,1.25 0.3,1.55 -0.25,1.6 -1.2,0.15 z"
       id="path1716" />
    <path
       d="M 21.9,2.4 C 22.5,1.8 23.1,1.45 23.3,1.65 23.8,2.15 22.5,3.5 21.6,3.5 20.95,3.5 21,3.3 21.9,2.4 Z"
       id="path1718" />
  </g>
  <g
     fill="#e0d5d4"
     id="g1742"
     transform="translate(0.05,0.05)">
    <path
       d="m 24.5,27 c 0,-0.25 0.3,-0.5 0.7,-0.5 0.4,0 0.85,-0.35 1,-0.8 0.45,-1.2 0.4,-1.3 -0.7,-0.95 -0.55,0.2 -1,0.1 -1,-0.2 0,-0.3 0.8,-0.55 1.75,-0.55 1.95,0 2.2,0.65 0.95,2.4 -0.75,1.1 -2.7,1.55 -2.7,0.6 z"
       id="path1722" />
    <path
       d="m 16.2,20.55 c 0.15,-0.25 0.75,-0.35 1.3,-0.2 1.4,0.35 1.25,0.65 -0.3,0.65 -0.7,0 -1.15,-0.2 -1,-0.45 z"
       id="path1724" />
    <path
       d="m 19.65,20.45 c 0.5,-0.3 0.85,-1.1 0.85,-2 0,-1.7 0.8,-3.45 1.5,-3.45 0.3,0 0.5,1.35 0.5,3 v 3 h -1.85 c -1.55,-0.05 -1.75,-0.15 -1,-0.55 z"
       id="path1726" />
    <path
       d="m 26.15,19.15 c -0.3,-1.3 -0.7,-1.9 -1.3,-1.85 -0.7,0.1 -0.85,-0.35 -0.85,-2.4 0,-2.2 0.1,-2.45 0.95,-2.15 0.65,0.2 1.2,-0.1 1.8,-1.05 0.65,-1.05 0.95,-1.2 1.3,-0.65 0.65,1 0.55,1.45 -0.3,1.45 -0.4,0 -1.1,0.6 -1.6,1.3 -0.8,1.2 -0.8,1.35 0,1.8 0.5,0.25 0.85,1.05 0.85,1.95 0,1.1 0.3,1.6 1,1.8 1.4,0.4 1.25,1.65 -0.2,1.65 -0.95,0 -1.3,-0.35 -1.65,-1.85 z"
       id="path1728" />
    <path
       d="M 4.85,19.65 C 4.65,19.5 4.5,18.7 4.5,17.9 c 0,-2.1 1.25,-1.75 1.3,0.35 0,1.7 -0.25,2.1 -0.95,1.4 z"
       id="path1730" />
    <path
       d="m 15.3,18.7 c -1.2,-1.15 -1,-2.2 0.45,-2.2 1.05,0 1.25,0.25 1.25,1.5 0,1.65 -0.55,1.9 -1.7,0.7 z"
       id="path1732" />
    <path
       d="m 15.5,13.1 c 0,-0.85 1.25,-1.6 2.6,-1.6 1.6,0 1.75,0.35 0.55,1.3 -1,0.75 -3.15,0.95 -3.15,0.3 z"
       id="path1734" />
    <path
       d="m 24.5,6.4 c 0,-1.35 0.2,-1.9 0.75,-1.9 0.95,0 0.95,1.5 0,2.8 -0.65,0.9 -0.7,0.85 -0.75,-0.9 z"
       id="path1736" />
    <path
       d="M 19.5,5.7 C 19.5,4.55 21.15,2.8 22,3.1 22.3,3.2 21.85,4.05 21.05,5 19.75,6.55 19.55,6.6 19.5,5.7 Z"
       id="path1738" />
    <path
       d="M 32.6,2.8 C 31.45,1.35 31.15,0 31.95,0 32.65,0 34.1,2.5 33.9,3.4 33.8,4.05 33.5,3.9 32.6,2.8 Z"
       id="path1740" />
  </g>
  <g
     fill="#fef0d1"
     id="g1770"
     transform="translate(0.05,0.05)">
    <path
       d="m 15.5,36.2 c 0,-0.35 1.35,-1.7 1.75,-1.7 0.15,0 0.05,0.45 -0.25,1 -0.5,0.9 -1.5,1.4 -1.5,0.7 z"
       id="path1744" />
    <path
       d="M 12,34.95 C 11.7,34.4 11.5,33.5 11.6,32.9 c 0.15,-0.85 0.35,-0.7 1.5,1.05 1.25,1.9 1.25,2.05 0.4,2.05 -0.55,0 -1.2,-0.45 -1.5,-1.05 z"
       id="path1746" />
    <path
       d="M 20.6,31.15 C 19.9,30.9 17,25.45 17,24.4 c 0,-0.35 -0.35,-1.25 -0.7,-2 -0.85,-1.65 -0.3,-2.2 1.85,-1.95 1.9,0.2 2.85,-0.75 2.85,-2.8 0,-2.25 3.65,-7.65 3.9,-5.75 0.2,1.4 0.5,1.4 1.7,-0.2 0.8,-1 1.15,-1.15 1.45,-0.6 0.3,0.45 -0.05,1.05 -1.05,1.8 -1.45,1.15 -2.05,3.1 -0.95,3.1 0.3,0 0.45,0.3 0.35,0.6 -0.15,0.35 -0.65,0.65 -1.15,0.65 -0.6,0 -1.1,0.5 -1.3,1.25 -0.55,2 -0.5,5.5 0.1,5.5 1.2,0 2.4,-1.1 2.7,-2.5 0.25,-1.05 0.6,-1.5 1.35,-1.5 0.9,0 0.95,0.2 0.65,2.15 -0.2,1.15 -1.25,3.75 -2.35,5.75 -1.85,3.3 -2.1,3.6 -3.55,3.55 -0.9,0 -1.9,-0.15 -2.25,-0.3 z m 4.2,-3.45 c -0.2,-0.8 -0.05,-1.15 0.7,-1.35 0.55,-0.15 1,-0.6 1,-1.05 0,-1 -0.15,-1 -2.5,0.2 -1.75,0.9 -2.75,2.5 -1.55,2.5 0.25,0 0.55,0.5 0.7,1.1 0.25,0.9 0.4,0.95 1.1,0.4 0.5,-0.4 0.7,-1.1 0.55,-1.8 z"
       id="path1748" />
    <path
       d="m 5.3,20.4 c -1.4,-2 -0.75,-4.9 1.1,-4.9 0.5,0 0.4,0.35 -0.35,1.3 -0.65,0.85 -0.9,1.55 -0.6,1.9 0.45,0.6 1.05,2.8 0.8,2.8 C 6.15,21.5 5.7,21 5.3,20.4 Z"
       id="path1750" />
    <path
       d="M 15.65,19.15 C 14.9,18.85 14.8,17 15.5,17 c 0.6,0 1.2,1.25 0.9,1.9 -0.05,0.25 -0.45,0.35 -0.75,0.25 z"
       id="path1752" />
    <path
       d="m 15.5,13.1 c 0,-0.8 1.9,-2.2 2.8,-2 1.5,0.25 1.3,1.25 -0.35,1.85 -1.9,0.65 -2.45,0.7 -2.45,0.15 z"
       id="path1754" />
    <path
       d="m 18.55,6.25 c 1.15,-1.9 4.4,-4.95 4.85,-4.55 0.15,0.2 -0.3,0.95 -1,1.7 -0.65,0.75 -1.75,2.1 -2.35,3 -1.6,2.3 -2.85,2.2 -1.5,-0.15 z"
       id="path1756" />
    <path
       d="M 24.6,5.5 C 24.7,3.9 24.95,2.85 25.25,3 25.95,3.35 25.8,6.9 25.05,7.65 24.55,8.1 24.5,7.65 24.6,5.5 Z"
       id="path1758" />
    <path
       d="M 14.5,6.4 C 14.5,5.6 14.7,5 14.9,5 15.15,5 16.25,4.2 17.4,3.2 20.25,0.75 20.05,1.85 17,5.1 14.6,7.65 14.55,7.7 14.5,6.4 Z"
       id="path1760" />
    <path
       d="M 10,5.75 C 10,4.1 11.8,1 12.75,1 13.25,1 13,1.85 11.95,3.85 10.05,7.4 10,7.5 10,5.75 Z"
       id="path1762" />
    <path
       d="M 30.6,5 C 29.8,3.95 29.55,3.15 29.75,2.45 c 0.3,-0.9 0.45,-0.95 1,-0.4 0.5,0.55 1.5,4.55 1.1,4.4 C 31.8,6.45 31.25,5.8 30.6,5 Z"
       id="path1764" />
    <path
       d="M 7.35,5.7 C 6.9,5.2 7.45,4.5 8.3,4.5 8.7,4.5 9,4.85 9,5.25 9,6 7.95,6.3 7.35,5.7 Z"
       id="path1766" />
    <path
       d="M 32.55,2.7 C 31.45,1.3 31.15,0 32,0 c 0.55,0 2.25,3.4 1.85,3.8 -0.1,0.15 -0.7,-0.35 -1.3,-1.1 z"
       id="path1768" />
  </g>
  <g
     fill="#fcfbee"
     id="g1798"
     transform="translate(0.05,0.05)">
    <path
       d="m 12.6,35.4 c -0.7,-0.7 -0.8,-2.1 -0.1,-1.65 0.7,0.45 1.6,2.25 1.1,2.25 -0.2,0 -0.65,-0.25 -1,-0.6 z"
       id="path1772" />
    <path
       d="m 20.25,30.5 c -1,-1.15 -0.85,-1.2 0.95,-0.5 0.85,0.3 1.75,0.3 2.55,0 1.5,-0.55 1.7,0.2 0.3,1 -1.5,0.75 -2.8,0.6 -3.8,-0.5 z"
       id="path1774" />
    <path
       d="m 25.1,27.9 c -0.4,-0.4 -0.25,-0.85 0.7,-1.75 1.05,-0.95 1.25,-1.5 1.05,-2.8 -0.15,-0.9 -0.45,-2.55 -0.6,-3.75 -0.2,-1.3 -0.7,-2.3 -1.15,-2.5 -0.5,-0.2 -0.85,-0.75 -0.85,-1.2 0,-0.5 -0.2,-0.95 -0.5,-1 -0.6,-0.2 -1.5,1.65 -2.25,4.6 -0.35,1.25 -0.7,2.5 -0.8,2.85 -0.1,0.4 -0.65,0.3 -1.9,-0.25 -2.15,-1.05 -2.25,-1.45 -0.3,-1.5 2.15,-0.05 2.5,-0.4 2.5,-2.75 0.05,-1.7 0.4,-2.5 1.8,-4.1 1.45,-1.6 1.75,-1.75 1.55,-0.9 -0.2,1 -0.15,1.05 0.7,0.6 0.55,-0.25 1.25,-0.95 1.6,-1.45 0.3,-0.55 0.75,-1 0.95,-1 0.8,0 0.35,1 -1.15,2.5 l -1.6,1.55 1.1,1 c 0.55,0.55 1.05,1.55 1.05,2.2 0,0.9 0.25,1.25 1,1.25 1.15,0 1.2,0.25 0.4,3.4 -0.75,3.1 -2.5,5.8 -3.3,5 z"
       id="path1776" />
    <path
       d="m 22,26.05 c 0,-0.5 2.55,-2.05 3.35,-2.05 0.45,0.05 -1.1,1.3 -2.45,2.05 -0.6,0.3 -0.9,0.3 -0.9,0 z"
       id="path1778" />
    <path
       d="m 4.75,18.95 c -0.5,-0.8 0.15,-2.8 1,-3.15 0.95,-0.35 0.95,0.4 0,1.2 -0.45,0.35 -0.65,1.05 -0.5,1.55 0.35,1.05 0,1.25 -0.5,0.4 z"
       id="path1780" />
    <path
       d="M 15.15,18.25 C 15,17.8 15,17.35 15.15,17.2 c 0.45,-0.45 1.35,0.3 1.35,1.1 0,0.95 -0.95,0.9 -1.35,-0.05 z"
       id="path1782" />
    <path
       d="m 16.2,12.9 c -0.4,-0.6 1.1,-1.9 2.2,-1.9 0.35,0 0.6,0.35 0.5,0.8 -0.2,1.05 -2.25,1.85 -2.7,1.1 z"
       id="path1784" />
    <path
       d="M 18.5,7.25 C 18.5,6.45 20.25,4 21.45,3.2 22,2.8 22.5,2.6 22.5,2.85 c 0,0.6 -3.95,5 -4,4.4 z"
       id="path1786" />
    <path
       d="M 24.75,6.4 C 24.3,5.2 24.65,3.35 25.4,3.1 26.1,2.9 26.25,5.35 25.5,6.5 25.1,7.1 25,7.1 24.75,6.4 Z"
       id="path1788" />
    <path
       d="M 10.35,5.7 C 9.9,5.25 11,2.65 12.05,1.7 12.55,1.25 13,0.95 13,1.05 13,1.65 10.55,5.9 10.35,5.7 Z"
       id="path1790" />
    <path
       d="M 16.75,4 C 17.8,2.9 18.8,2.1 18.9,2.25 19.3,2.65 16.35,6 15.6,6 15.05,6 15.45,5.35 16.75,4 Z"
       id="path1792" />
    <path
       d="M 30.6,4.4 C 29.9,3.7 29.8,2 30.5,2 31,2 31.8,4.4 31.4,4.75 31.3,4.9 30.9,4.7 30.6,4.4 Z"
       id="path1794" />
    <path
       d="M 32.55,2.35 C 31.4,0.45 31.25,0 32,0 c 0.55,0 2.25,3.4 1.85,3.8 -0.1,0.15 -0.7,-0.5 -1.3,-1.45 z"
       id="path1796" />
  </g>
</svg>
