<?xml version="1.0" encoding="utf-8"?>
<!DOCTYPE svg PUBLIC "-//W3C//DTD SVG 1.0//EN" "http://www.w3.org/TR/2001/REC-SVG-20010904/DTD/svg10.dtd">
<svg version="1.0" xmlns="http://www.w3.org/2000/svg" width="100px" height="100px" viewBox="0 0 100 100" preserveAspectRatio="xMidYMid meet">
 <g fill="#1a1e32">
  <path d="M32 98.40 c0 -1.50 0.65 -2.90 1.30 -2.90 0.45 0 0.70 0.60 0.70 1.75 0 1.40 -0.20 1.75 -1 1.75 -0.55 0 -1 -0.30 -1 -0.60z"/>
  <path d="M71 92.50 c0 -1.80 0.20 -2.50 0.70 -2.50 0.85 0 1.40 2.10 1 3.75 -0.55 2.30 -1.70 1.50 -1.70 -1.25z"/>
  <path d="M38.05 92.40 c-0.05 -1.05 0.15 -1.90 0.40 -1.90 0.25 0 0.55 -0.45 0.70 -1 0.20 -0.70 0.70 -1 1.75 -1 1.35 0 1.55 -0.20 1.70 -1.60 0.15 -1.55 0.30 -1.65 2.15 -1.80 l2 -0.15 -2.75 2.65 c-1.50 1.45 -3.50 3.55 -4.35 4.65 l-1.60 2 0 -1.85z"/>
  <path d="M69.55 85.65 c-0.30 -2.15 -0.70 -5.80 -0.90 -8.20 -0.30 -4.20 -0.25 -4.30 0.90 -4.60 2.15 -0.60 3.95 -0.40 3.95 0.40 0 0.40 -0.30 0.75 -0.65 0.75 -0.35 0 -1.10 0.30 -1.65 0.70 -0.95 0.70 -1 0.90 -0.40 5.65 0.30 2.70 0.75 5.85 0.95 7.05 0.30 1.90 0.25 2.10 -0.65 2.10 -0.85 0 -1.05 -0.55 -1.55 -3.85z"/>
  <path d="M60.50 84.50 l-1.75 -1.45 1.90 -0.05 c1.75 0 1.85 0.10 1.85 1.50 0 0.85 -0.05 1.50 -0.15 1.50 -0.05 0 -0.90 -0.65 -1.85 -1.50z"/>
  <path d="M48 82.45 c0 -1.20 0.20 -1.45 1.25 -1.45 0.70 0 1.25 -0.20 1.25 -0.50 0 -0.25 0.45 -0.50 1 -0.50 0.55 0 1 -0.20 1 -0.50 0 -0.55 2.45 -0.70 3.70 -0.20 0.80 0.30 1.15 2.70 0.45 2.70 -0.25 -0.05 -0.95 -0.35 -1.65 -0.75 -0.80 -0.40 -1.45 -0.50 -1.80 -0.20 -0.35 0.25 -1.60 1 -2.90 1.65 l-2.30 1.15 0 -1.40z"/>
  <path d="M14.75 80.20 c1.90 -1.70 2 -1.70 2.15 -0.70 0.30 1.90 -0.25 2.50 -2.25 2.50 l-1.90 -0.05 2 -1.75z"/>
  <path d="M32.50 79.50 c-0.75 -2.25 -0.80 -2.25 -4.40 -1.30 -2.55 0.65 -2.60 0.65 -2.60 -0.40 0 -0.90 0.45 -1.20 2.65 -1.70 3.15 -0.75 5.20 -0.75 5.60 -0.10 0.15 0.25 0.45 1.60 0.60 3 0.25 2 0.15 2.50 -0.45 2.50 -0.40 0 -1.05 -0.85 -1.40 -2z"/>
  <path d="M89.35 75.45 c-0.50 -0.30 -1.55 -0.55 -2.35 -0.55 -1.10 -0.05 -1.50 -0.30 -1.50 -1 0 -0.70 0.40 -0.90 1.75 -0.90 0.95 0 1.75 0.20 1.75 0.45 0 0.30 0.95 0.55 2.10 0.65 1.55 0.10 2.20 0.40 2.30 1.05 0.15 0.65 -0.15 0.85 -1.50 0.85 -0.90 0 -2.05 -0.25 -2.55 -0.55z"/>
  <path d="M76.90 74.15 c-0.50 -0.10 -0.90 -0.55 -0.90 -0.95 0 -0.50 0.70 -0.70 2.75 -0.70 2.40 0 2.75 0.10 2.75 1 0 0.85 -0.30 1 -1.85 0.95 -1.05 -0.05 -2.30 -0.15 -2.75 -0.30z"/>
  <path d="M82.50 67.25 c0 -0.40 -0.20 -0.75 -0.50 -0.75 -0.25 0 -0.50 -0.80 -0.50 -1.75 0 -0.95 0.15 -1.75 0.40 -1.75 0.20 0 1.10 1.15 2 2.50 l1.60 2.50 -1.50 0 c-1 0 -1.50 -0.25 -1.50 -0.75z"/>
  <path d="M78.70 59.75 c-0.45 -1.85 0.25 -4.85 1.45 -6.10 0.70 -0.80 1.60 -1.15 2.80 -1.15 l1.80 0 -2.45 2.35 c-2.05 2 -2.35 2.45 -1.85 3.25 0.90 1.45 0.70 2.90 -0.45 2.90 -0.65 0 -1.10 -0.45 -1.30 -1.25z"/>
  <path d="M38.80 59.20 c-0.15 -0.45 -0.30 -1.55 -0.30 -2.50 0 -1.60 0.10 -1.70 1.70 -1.70 1.05 0 1.80 0.30 2 0.75 0.15 0.40 0.85 0.75 1.55 0.75 1.10 0 1.25 0.20 1.25 1.75 l0 1.75 -2.95 0 c-2.20 0 -3 -0.20 -3.25 -0.80z"/>
  <path d="M16.50 56.30 c0 -0.65 1.40 -1.30 2.90 -1.30 0.30 0 0.60 0.45 0.60 1 0 0.80 -0.35 1 -1.75 1 -1.15 0 -1.75 -0.25 -1.75 -0.70z"/>
  <path d="M23.10 52.55 c0.45 -0.80 0.30 -1.15 -1.15 -2.45 l-1.70 -1.55 1.75 -0.05 c2.15 0 3.50 1.35 3.50 3.50 0 1.35 -0.15 1.50 -1.50 1.50 -1.35 0 -1.45 -0.10 -0.90 -0.95z"/>
  <path d="M86 50.50 c0 -1.15 0.20 -1.50 1 -1.50 0.55 0 1 -0.35 1 -0.75 0 -0.50 0.55 -0.75 1.75 -0.75 0.95 0 1.75 0.15 1.75 0.40 -0.05 0.20 -1.25 1.20 -2.75 2.25 l-2.75 1.90 0 -1.55z"/>
  <path d="M92 46.55 c0 -1.45 0.15 -1.55 1.80 -1.55 1.95 0 1.90 0.45 -0.30 2 l-1.50 1.05 0 -1.50z"/>
  <path d="M86 44 c0 -0.25 -0.55 -0.50 -1.25 -0.50 -1 0 -1.25 -0.25 -1.25 -1.30 0 -0.70 0.15 -1.20 0.40 -1.10 0.20 0.10 1.55 0.60 3 1.15 3 1.15 3.45 2.25 0.85 2.25 -0.95 0 -1.75 -0.20 -1.75 -0.50z"/>
  <path d="M12.70 43.30 c-0.40 -1.05 0.15 -1.80 1.35 -1.80 0.75 0 1 0.30 0.85 1.10 -0.20 1.35 -1.75 1.85 -2.20 0.70z"/>
  <path d="M16 42.35 c0 -0.80 0.50 -0.95 5.65 -1.60 2.25 -0.30 2.40 -0.40 2.10 -1.40 -0.20 -0.60 -0.35 -1.50 -0.30 -2.05 0 -0.50 -0.40 -1.85 -0.95 -3 -0.50 -1.10 -1.05 -2.65 -1.20 -3.40 -0.30 -1.20 -0.15 -1.40 0.80 -1.40 0.95 0 1.30 0.50 2.15 3.15 0.90 2.95 1.35 8.90 0.70 9.60 -0.20 0.15 -2.25 0.45 -4.65 0.60 -3.75 0.25 -4.30 0.20 -4.30 -0.50z"/>
  <path d="M75.15 33.40 c0.20 -1.45 0.55 -2.70 0.85 -2.80 0.25 -0.10 0.50 -0.75 0.50 -1.40 0 -0.95 0.25 -1.20 1.30 -1.20 1.05 0 1.25 0.15 0.90 0.90 -0.20 0.45 -0.85 2.25 -1.40 4 -1.35 4 -2.60 4.30 -2.15 0.50z"/>
  <path d="M35.50 24 c0 -1.05 0.50 -1.20 2.40 -0.70 1.80 0.50 1.35 1.70 -0.65 1.70 -1.40 0 -1.75 -0.20 -1.75 -1z"/>
  <path d="M31.50 22.80 c0 -1.15 0.10 -1.20 1.75 -0.65 0.95 0.30 1.75 0.80 1.75 1.20 0 0.40 -0.65 0.65 -1.75 0.65 -1.50 0 -1.75 -0.15 -1.75 -1.20z"/>
  <path d="M22 18.70 c0 -0.70 0.15 -1.20 0.40 -1.10 3.65 1.75 4 2.40 1.35 2.40 -1.55 0 -1.75 -0.15 -1.75 -1.30z"/>
  <path d="M14.60 17.75 l-1.10 -1.75 1.25 0 c0.90 0 1.25 -0.25 1.25 -1 0 -1.35 0.65 -1.25 2.35 0.25 l1.40 1.20 -1.60 0.05 c-1.50 0 -1.65 0.15 -1.65 1.50 0 1.95 -0.50 1.90 -1.90 -0.25z"/>
  <path d="M81.50 17.85 c0 -0.35 0.85 -0.95 1.90 -1.35 1 -0.40 2 -0.80 2.25 -0.90 0.20 -0.10 0.35 0.35 0.35 1.05 0 1.35 -0.80 1.85 -3.05 1.85 -0.85 0 -1.45 -0.25 -1.45 -0.65z"/>
  <path d="M55.50 16.25 c0 -1.40 -0.20 -1.75 -1 -1.75 -0.80 0 -1 -0.35 -1 -1.75 0 -2.35 0.75 -2.20 2.05 0.40 0.60 1.15 1.50 2.70 2.05 3.50 l0.95 1.35 -1.50 0 c-1.45 0 -1.55 -0.15 -1.55 -1.75z"/>
  <path d="M47.50 9.90 c0 -1.50 0.65 -2.90 1.30 -2.90 0.45 0 0.70 0.60 0.70 1.75 0 1.40 -0.20 1.75 -1 1.75 -0.55 0 -1 -0.30 -1 -0.60z"/>
  <path d="M48 4.55 c0 -0.75 1.45 -1.65 2.25 -1.35 1.40 0.50 0.85 1.80 -0.75 1.80 -0.80 0 -1.50 -0.20 -1.50 -0.45z"/>
 </g>
 <g fill="#2f3547">
  <path d="M31.75 99.15 c0.15 -0.50 0.65 -2.40 1.10 -4.25 0.55 -2.40 1 -3.40 1.50 -3.40 0.65 0 0.75 0.50 0.45 2.90 -0.20 1.55 -0.55 2.95 -0.80 3 -0.30 0.10 -0.50 0.75 -0.50 1.40 0 0.90 -0.25 1.20 -1.05 1.20 -0.80 0 -0.95 -0.20 -0.70 -0.85z"/>
  <path d="M36 94.80 c0 -1 0.25 -1.80 0.50 -1.80 0.30 0 0.50 -0.35 0.50 -0.75 0 -0.45 0.35 -0.90 0.75 -1.05 0.40 -0.20 0.75 -0.60 0.75 -1 0 -0.45 0.55 -0.70 1.55 -0.70 l1.50 0 -2.10 3 c-2.95 4.25 -3.45 4.55 -3.45 2.30z"/>
  <path d="M66 90 l-5.10 -5.50 1.70 0 c2.05 0 2.90 0.75 2.90 2.55 0 1.15 0.25 1.40 1.40 1.55 0.95 0.10 1.40 0.45 1.50 1.30 0.10 0.70 0.50 1.10 1.15 1.10 0.75 0 0.95 -0.25 0.75 -0.85 -0.45 -1.45 -1.80 -11 -1.80 -12.65 0 -0.95 0.25 -1.50 0.70 -1.50 0.85 0 1.15 1.15 1.55 5.65 0.20 1.90 0.75 5.10 1.25 7.20 0.85 3.70 0.75 6.15 -0.35 6.50 -0.25 0.10 -2.80 -2.30 -5.65 -5.35z"/>
  <path d="M33.30 88.40 c-0.50 -1.90 -0.35 -2.40 0.70 -2.40 0.80 0 1 0.35 1 1.75 0 2 -1.20 2.45 -1.70 0.65z"/>
  <path d="M43.50 86.05 c0 -1.45 0.15 -1.55 1.80 -1.55 1.95 0 1.90 0.45 -0.30 2 l-1.50 1.05 0 -1.50z"/>
  <path d="M13 82.50 c0 -0.25 1.35 -1.85 3 -3.55 l3 -3.05 0 1.80 c0 1.65 -0.10 1.80 -1.50 1.80 -0.80 0 -1.50 0.25 -1.50 0.50 0 0.30 0.55 0.50 1.25 0.50 1.80 0 1.55 0.95 -0.50 1.80 -2 0.80 -3.75 0.90 -3.75 0.20z"/>
  <path d="M49 81.75 c0 -1.10 0.20 -1.25 1.80 -1.25 2.20 0 2.10 0.90 -0.20 1.85 -1.55 0.65 -1.60 0.60 -1.60 -0.60z"/>
  <path d="M24 78.05 c0 -0.85 0.30 -1.05 1.75 -1.05 0.95 0 1.75 -0.20 1.75 -0.50 0 -0.25 0.80 -0.50 1.75 -0.50 2.65 0 2.25 1.30 -0.60 2 -1.35 0.30 -2.90 0.70 -3.50 0.85 -0.95 0.20 -1.15 0.05 -1.15 -0.80z"/>
  <path d="M88.95 75.20 c-0.95 -0.30 -2.30 -0.45 -3.05 -0.35 -1.20 0.25 -1.40 0.10 -1.40 -0.85 0 -1.10 0.10 -1.10 3 -0.80 2.10 0.25 3 0.20 3 -0.20 0 -0.30 0.70 -0.10 1.50 0.50 0.85 0.60 1.50 1.25 1.50 1.50 0 0.70 -2.80 0.85 -4.55 0.20z"/>
  <path d="M84.40 70.05 c-0.50 -0.50 -0.90 -1.60 -0.90 -2.45 0 -1.35 -0.20 -1.60 -1.20 -1.60 -1.30 0 -1.80 -0.80 -1.80 -3.05 0 -2.15 1.10 -1.75 2.35 0.95 0.65 1.30 1.75 3.05 2.50 3.85 2.85 3.10 2.95 3.25 1.35 3.20 -0.80 0 -1.85 -0.40 -2.30 -0.90z"/>
  <path d="M23.50 68.20 c0 -0.15 0.25 -0.75 0.55 -1.30 0.50 -0.95 0.35 -1.30 -1.60 -3 l-2.20 -1.85 1.90 -0.05 c1.30 0 1.85 0.20 1.85 0.75 0 0.40 0.45 0.75 1 0.75 0.85 0 1 0.35 1 2.50 0 2.35 -0.10 2.50 -1.25 2.50 -0.70 0 -1.25 -0.15 -1.25 -0.30z"/>
  <path d="M17 60.70 c-2.60 -1.20 -3.65 -1.60 -4.90 -1.95 -0.85 -0.25 -1.10 -0.65 -1 -1.40 0.20 -1.50 2.20 -1.75 2.65 -0.40 0.20 0.70 0.75 1.05 1.55 1.05 0.65 0 1.20 0.25 1.20 0.50 0 0.30 0.55 0.50 1.25 0.50 1 0 1.25 0.25 1.25 1.25 0 0.70 -0.05 1.25 -0.10 1.25 -0.10 0 -0.95 -0.40 -1.90 -0.80z"/>
  <path d="M42 59 c0 -0.25 -0.50 -1 -1.10 -1.60 -0.80 -0.80 -1 -0.85 -0.75 -0.25 0.25 0.60 0.05 0.85 -0.65 0.85 -1.05 0 -1.30 -1.50 -0.70 -3.90 0.30 -1.05 0.55 -1.15 3.40 -1 l3.05 0.15 0.15 3.15 0.15 3.10 -1.80 0 c-0.95 0 -1.75 -0.20 -1.75 -0.50z"/>
  <path d="M58.65 55.65 c-1.60 -0.20 -1.65 -0.30 -1.65 -2.45 0 -2 0.10 -2.20 1.25 -2.20 1 0 1.25 -0.25 1.25 -1.25 0 -1.10 0.20 -1.25 1.75 -1.25 1.65 0 1.75 0.10 1.75 1.70 0 1.50 -0.20 1.75 -1.35 1.95 -1.30 0.20 -1.30 0.20 0.25 0.30 1.50 0.05 1.60 0.15 1.60 1.80 0 1.90 -0.25 1.95 -4.85 1.40z"/>
  <path d="M83.50 52 c0 -1.30 0.25 -1.55 1.50 -1.80 0.85 -0.20 1.50 -0.65 1.50 -1 0 -0.45 0.55 -0.70 1.50 -0.70 1.15 0 1.50 -0.20 1.50 -1 0 -0.80 0.35 -1 1.75 -1 2.20 0 2.25 0.70 0.15 1.80 -0.90 0.45 -2.45 1.45 -3.40 2.15 -0.95 0.75 -2.35 1.75 -3.10 2.20 l-1.40 0.85 0 -1.50z"/>
  <path d="M21 49.10 l-2.25 -2.05 1.65 -0.05 c2.05 0 3.20 1.05 3 2.80 l-0.15 1.30 -2.25 -2z"/>
  <path d="M15.25 45.20 c-2.85 -1.90 -3 -2.05 -2.25 -2.95 0.40 -0.45 1.45 -0.75 2.80 -0.75 1.85 0 2.20 0.15 2.20 0.95 0 0.75 -0.40 1.05 -1.60 1.20 l-1.65 0.20 1.65 0.05 c1.35 0.10 1.60 0.30 1.60 1.35 0 1.55 -0.30 1.55 -2.75 -0.05z"/>
  <path d="M94 45.10 c0 -1.25 0.20 -1.60 1 -1.60 0.55 0 1 0.30 1 0.65 0 0.40 -0.45 1.10 -1 1.60 -1 0.90 -1 0.85 -1 -0.65z"/>
  <path d="M84.50 43.50 c0 -0.25 -0.45 -0.50 -1 -0.50 -0.55 0 -1 -0.35 -1 -0.75 0 -0.50 -0.50 -0.75 -1.45 -0.75 -2.35 0 -3.05 -0.50 -3.05 -2.05 0 -1.30 -0.20 -1.45 -1.50 -1.45 l-1.50 0 0 -3 c0 -2.70 0.10 -3 1.05 -3 0.95 0 1 0.20 0.70 1.90 -0.45 2.80 1 4.30 6.60 6.95 2.55 1.20 4.65 2.40 4.65 2.65 0 0.30 -0.80 0.50 -1.75 0.50 -0.95 0 -1.75 -0.20 -1.75 -0.50z"/>
  <path d="M20.50 41.75 c0 -0.40 0.40 -0.80 0.90 -0.85 0.45 0 1.15 -0.10 1.50 -0.10 0.35 -0.05 0.85 -0.40 1.10 -0.80 0.35 -0.55 0.50 -0.35 0.50 0.90 0 1.55 -0.10 1.60 -2 1.60 -1.45 0 -2 -0.20 -2 -0.75z"/>
  <path d="M19.80 27.40 c-2.95 -5.85 -4.80 -9.25 -6 -11 -0.95 -1.50 -0.80 -2.90 0.40 -2.90 0.85 0 1.30 1.05 1.30 3.05 0 1.10 0.25 1.45 1 1.45 0.65 0 1.10 0.45 1.30 1.25 0.15 0.70 0.50 1.25 0.75 1.25 0.25 0 0.45 0.55 0.45 1.25 0 0.80 0.30 1.25 0.75 1.25 0.40 0 0.75 0.45 0.75 1 0 0.55 0.25 1 0.50 1 0.30 0 0.50 0.80 0.50 1.75 0 1.20 0.25 1.75 0.75 1.75 0.50 0 0.75 0.55 0.75 1.75 0 0.95 -0.20 1.75 -0.40 1.75 -0.25 0 -1.50 -2.10 -2.80 -4.60z"/>
  <path d="M77 28.75 c0 -0.95 0.25 -1.75 0.50 -1.75 0.30 0 0.50 -0.35 0.50 -0.75 0 -0.40 0.45 -0.75 1 -0.75 0.80 0 1 -0.35 1 -1.50 0 -1.35 0.15 -1.50 1.50 -1.50 l1.50 0 -2.60 4 c-1.45 2.20 -2.80 4 -3 4 -0.25 0 -0.40 -0.80 -0.40 -1.75z"/>
  <path d="M39.50 24.55 c0 -0.65 0.35 -1.05 0.85 -1.05 0.45 0 1.35 -0.50 2.05 -1.10 l1.15 -1.15 -0.15 2 c-0.15 1.90 -0.25 2 -2 2.15 -1.65 0.15 -1.90 0 -1.90 -0.85z"/>
  <path d="M33 24 c0 -0.25 -0.50 -0.50 -1.10 -0.50 -2.15 0 -3.40 -0.60 -3.40 -1.55 0 -1.20 0.35 -1.20 4.55 0.15 3.75 1.25 4.55 2.40 1.70 2.40 -0.95 0 -1.75 -0.20 -1.75 -0.50z"/>
  <path d="M65 22 c0 -0.85 0.35 -1 2.25 -1 1.90 0 2.25 0.15 2.25 1 0 0.85 -0.35 1 -2.25 1 -1.90 0 -2.25 -0.15 -2.25 -1z"/>
  <path d="M70.50 21.50 c0 -0.60 1.65 -1.50 2.70 -1.50 0.45 0 0.80 0.45 0.80 1 0 0.80 -0.35 1 -1.75 1 -0.95 0 -1.75 -0.20 -1.75 -0.50z"/>
  <path d="M83.50 20.40 c0 -1.25 -0.20 -1.40 -1.75 -1.40 -2.10 0 -2.25 -0.60 -0.35 -1.45 0.75 -0.35 2.20 -1.05 3.20 -1.60 2.35 -1.20 3.40 -1.20 3.40 0 0 1.05 -0.90 1.50 -3.15 1.60 l-1.60 0.10 1.65 0.30 1.65 0.30 -1.50 1.75 -1.50 1.75 -0.05 -1.35z"/>
  <path d="M57.50 19.25 c0 -2.15 0.50 -2.20 1.65 -0.30 1.10 1.90 1.10 2.05 -0.40 2.05 -1.10 0 -1.25 -0.20 -1.25 -1.75z"/>
  <path d="M19.15 18.40 c-0.65 -0.30 -1.15 -0.75 -1.15 -1 0 -0.20 -0.35 -0.40 -0.75 -0.40 -0.50 0 -0.75 -0.50 -0.75 -1.45 l0 -1.45 3.50 2.05 c1.90 1.15 3.50 2.25 3.50 2.50 0 0.55 -3.10 0.35 -4.35 -0.25z"/>
  <path d="M45.65 16.40 c0.95 -2.30 1.85 -2.40 1.85 -0.20 0 1.60 -0.15 1.80 -1.25 1.80 -1.20 0 -1.25 -0.05 -0.60 -1.60z"/>
  <path d="M52.35 11.75 c-0.45 -1 -0.85 -2.35 -0.85 -3 0 -0.75 -0.30 -1.25 -0.70 -1.25 -0.40 0 -0.80 -0.35 -1 -0.75 -0.15 -0.40 -0.60 -0.75 -1.05 -0.75 -1.10 0 -0.95 -1.85 0.20 -2.50 0.55 -0.25 1.10 -0.50 1.25 -0.50 0.25 0 4.10 7.40 4.85 9.40 0.35 0.95 0.25 1.10 -0.70 1.10 -0.85 0 -1.40 -0.50 -2 -1.75z"/>
  <path d="M47 12.45 c0 -1.60 1.20 -4.95 1.80 -4.95 0.75 0 0.90 1.40 0.40 3.95 -0.25 1.05 -0.60 1.55 -1.25 1.55 -0.55 0 -0.95 -0.25 -0.95 -0.55z"/>
 </g>
 <g fill="#163b73">
  <path d="M55.90 81.60 c-1.85 -1.10 -1.75 -1.60 0.35 -1.60 1.55 0 1.75 0.15 1.75 1.25 0 1.45 -0.30 1.50 -2.10 0.35z"/>
  <path d="M32.70 79.25 c-0.15 -0.95 -0.70 -2 -1.15 -2.25 -0.60 -0.35 -0.35 -0.45 1.10 -0.50 l1.85 0 0 2.25 c0 2.80 -1.30 3.15 -1.80 0.50z"/>
  <path d="M69.55 74.40 c-0.05 -1.85 0 -1.90 1.70 -1.90 2.20 0 2.40 1.30 0.30 1.75 -0.85 0.15 -1.60 0.70 -1.70 1.15 -0.15 0.45 -0.25 0 -0.30 -1z"/>
  <path d="M22.15 70.75 c1.35 -2.60 2.70 -4.75 2.90 -4.75 0.25 0 0.45 0.80 0.45 1.75 0 0.95 -0.20 1.75 -0.50 1.75 -0.25 0 -0.50 0.45 -0.50 1 0 0.55 -0.20 1 -0.50 1 -0.25 0 -0.50 0.45 -0.50 1 0 0.55 -0.20 1 -0.50 1 -0.25 0 -0.50 0.45 -0.50 1 0 0.75 -0.35 1 -1.45 1 l-1.45 0 2.55 -4.75z"/>
  <path d="M80 62 c0 -1 -0.25 -1.50 -0.75 -1.50 -0.60 0 -0.75 -0.65 -0.75 -3 l0 -3 1.85 0 1.80 0 -1.05 1.15 c-1.35 1.45 -1.35 1.85 -0.10 4.45 0.55 1.15 1 2.40 1 2.75 0 0.35 -0.45 0.65 -1 0.65 -0.80 0 -1 -0.35 -1 -1.50z"/>
  <path d="M40 60.55 c-0.50 -0.35 -0.75 -1.40 -0.75 -3.65 l0 -3.15 2.90 -0.15 2.90 -0.15 -0.15 3.65 -0.15 3.65 -2 0.15 c-1.10 0.05 -2.35 -0.10 -2.75 -0.35z m4 -4.05 c0 -0.80 -0.15 -1.55 -0.35 -1.65 -0.25 -0.15 -0.40 0.60 -0.40 1.65 0 1.05 0.15 1.80 0.40 1.65 0.20 -0.10 0.35 -0.85 0.35 -1.65z"/>
  <path d="M15.60 56.65 c0.10 -0.50 0.80 -1 1.80 -1.20 1.45 -0.30 1.60 -0.20 1.60 0.85 0 1.05 -0.25 1.20 -1.80 1.20 -1.40 0 -1.75 -0.20 -1.60 -0.85z"/>
  <path d="M58.10 55.60 c-1.10 -0.75 -1.35 -4.40 -0.40 -5.85 0.65 -1 1.25 -1.25 2.75 -1.25 2.60 0 3.15 0.80 2.95 4.35 l-0.15 2.90 -2.25 0.15 c-1.25 0.05 -2.55 -0.10 -2.90 -0.30z"/>
  <path d="M23.75 38.15 c-0.20 -1.05 -0.65 -2.75 -1.05 -3.75 -0.70 -1.90 -0.70 -1.90 0.55 -1.90 1.05 0 1.25 0.25 1.25 1.50 0 0.85 0.25 1.50 0.50 1.50 0.30 0 0.50 1 0.50 2.25 0 2.90 -1.30 3.15 -1.75 0.40z"/>
  <path d="M43.85 20.05 c1 -1.70 2 -3.05 2.25 -3.05 0.20 0 0.40 0.80 0.40 1.75 0 0.95 -0.20 1.75 -0.45 1.75 -0.25 0 -0.55 0.50 -0.65 1.15 -0.10 0.85 -0.55 1.15 -1.75 1.25 l-1.60 0.15 1.80 -3z"/>
 </g>
 <g fill="#354462">
  <path d="M34 97.90 c0 -1.70 0.15 -1.90 1.25 -1.90 1.55 0 1.60 0.55 0 2.35 l-1.20 1.40 -0.05 -1.85z"/>
  <path d="M38 92 c0 -2.40 0.55 -3.10 2.40 -2.90 l1.55 0.15 -1.95 2.25 -1.95 2.25 -0.05 -1.75z"/>
  <path d="M44.10 85.45 c0.10 -1.30 0.40 -1.75 1.20 -1.85 0.60 -0.10 1.20 -0.60 1.35 -1.15 0.20 -0.70 0.70 -0.95 2.05 -0.95 1 0 1.80 0.15 1.80 0.40 0 0.20 -0.85 0.95 -1.90 1.70 -1 0.75 -2.50 1.85 -3.25 2.45 l-1.40 1.10 0.15 -1.70z"/>
  <path d="M61.50 85.25 c-1.25 -1 -3.10 -2.25 -4.10 -2.85 -2.35 -1.35 -2.40 -1.90 -0.15 -1.90 1.40 0 1.75 0.20 1.75 1 0 0.80 0.35 1 1.50 1 0.85 0 1.50 0.20 1.50 0.45 0 0.25 0.45 0.55 1 0.70 0.75 0.20 1 0.70 1 1.80 0 0.85 -0.05 1.55 -0.10 1.55 -0.10 0 -1.15 -0.80 -2.40 -1.75z"/>
  <path d="M69 83.65 c0 -0.50 -0.15 -2.10 -0.30 -3.50 -0.30 -2.20 -0.20 -2.65 0.45 -2.65 0.75 0 1 0.60 1.60 4.90 0.30 1.90 0.25 2.10 -0.70 2.10 -0.65 0 -1.05 -0.30 -1.05 -0.85z"/>
  <path d="M13.10 82.20 c0.10 -0.55 0.55 -1 1.10 -1.10 0.65 -0.15 0.85 0.05 0.70 0.70 -0.10 0.55 -0.55 1 -1.10 1.10 -0.65 0.15 -0.85 -0.05 -0.70 -0.70z"/>
  <path d="M51.10 80.65 c0.15 -1.20 0.40 -1.40 2.05 -1.55 1.60 -0.15 1.85 0 1.85 0.90 0 0.60 -0.20 0.90 -0.50 0.75 -0.25 -0.15 -1 0.05 -1.60 0.45 -1.60 1.15 -2 1 -1.80 -0.55z"/>
  <path d="M32.60 78 c-0.45 -0.75 -0.95 -0.90 -2.10 -0.70 -1.30 0.30 -1.50 0.20 -1.50 -0.75 0 -0.95 0.30 -1.05 2.50 -1.05 l2.50 0 0 1.75 c0 1.95 -0.45 2.20 -1.40 0.75z"/>
  <path d="M68 74.80 c0 -1.85 0.60 -2.30 3.05 -2.30 1.80 0 1.95 1.25 0.20 1.70 -0.80 0.20 -1.25 0.65 -1.25 1.30 0 0.65 -0.35 1 -1 1 -0.80 0 -1 -0.35 -1 -1.70z"/>
  <path d="M79.40 74.15 c-1.65 -0.40 -1 -1.65 0.85 -1.65 1.40 0 1.75 0.20 1.75 1 0 1 -0.70 1.15 -2.60 0.65z"/>
  <path d="M21.60 72.15 c1.75 -3.70 2.40 -4.05 2.40 -1.40 0 1.55 -0.15 1.75 -1.30 1.75 -0.70 0 -1.20 -0.15 -1.10 -0.35z"/>
  <path d="M82 65.70 c0 -1.95 0.45 -1.90 2 0.30 l1.05 1.50 -1.50 0 c-1.45 0 -1.55 -0.15 -1.55 -1.80z"/>
  <path d="M43.05 58.95 c0.70 -0.70 0.95 -1.50 0.85 -2.60 -0.15 -1.40 -0.30 -1.60 -1.50 -1.45 -1.15 0.15 -1.40 -0.05 -1.40 -0.85 0 -0.85 0.30 -1.05 1.75 -1.05 1.65 0 1.75 0.10 1.75 1.75 0 0.95 0.25 1.75 0.50 1.75 0.30 0 0.50 0.80 0.50 1.75 0 1.65 -0.10 1.75 -1.75 1.75 l-1.75 0 1.05 -1.05z"/>
  <path d="M14.50 56.75 c0 -0.40 0.30 -0.80 0.65 -0.80 0.30 -0.05 1.20 -0.15 2 -0.25 1.05 -0.10 1.35 0.05 1.35 0.85 0 0.80 -0.35 0.95 -2 0.95 -1.45 0 -2 -0.20 -2 -0.75z"/>
  <path d="M79 55.75 c0 -1.55 0.15 -1.75 1.25 -1.75 0.85 0 1.25 -0.25 1.25 -0.90 0 -0.50 0.25 -1.15 0.60 -1.50 0.65 -0.65 3.90 -0.85 3.90 -0.20 -0.05 0.20 -1.35 1.35 -3 2.60 -1.65 1.25 -2.95 2.55 -3 2.90 0 0.30 -0.20 0.60 -0.50 0.60 -0.25 0 -0.50 -0.80 -0.50 -1.75z"/>
  <path d="M58.35 56.15 c-0.20 -0.15 -0.35 -0.85 -0.35 -1.50 0 -0.60 -0.20 -1.15 -0.50 -1.15 -0.25 0 -0.50 -0.80 -0.50 -1.75 0 -1.60 0.10 -1.75 1.50 -1.75 0.85 0 1.50 -0.25 1.50 -0.55 0 -0.30 0.80 -0.45 1.90 -0.35 1.85 0.15 1.85 0.15 2 2.55 0.10 1.40 -0.05 2.35 -0.35 2.35 -0.30 0 -0.55 0.55 -0.55 1.25 0 1.15 -0.20 1.25 -2.15 1.25 -1.20 0 -2.35 -0.15 -2.50 -0.35z m3.65 -3.10 c0 -3.10 -1.30 -4 -2.70 -1.95 -1.50 2.10 -0.90 3.15 1.85 3.35 0.60 0.05 0.85 -0.35 0.85 -1.40z"/>
  <path d="M22.95 52.80 l1.10 -1.15 -2.40 -2.10 -2.40 -2.05 1.90 0 c1.70 0 1.85 0.10 1.85 1.50 0 1.25 0.20 1.50 1.25 1.50 1.10 0 1.25 0.20 1.25 1.75 0 1.70 -0.05 1.75 -1.85 1.75 l-1.80 0 1.10 -1.20z"/>
  <path d="M88.50 48.50 c0 -1.40 0.15 -1.50 1.75 -1.50 2.20 0 2.20 0.45 0 1.90 l-1.75 1.10 0 -1.50z"/>
  <path d="M94 44.50 c0 -0.70 0.35 -1 1.05 -1 0.75 0 0.95 0.20 0.75 0.80 -0.15 0.45 -0.30 0.90 -0.30 1 0 0.10 -0.35 0.20 -0.75 0.20 -0.40 0 -0.75 -0.45 -0.75 -1z"/>
  <path d="M12.75 43.05 c-0.40 -0.75 0.60 -1.15 3.30 -1.30 2.15 -0.15 2.45 -0.05 2.45 0.80 0 0.80 -0.35 0.95 -2.70 0.95 -1.50 0 -2.85 -0.20 -3.05 -0.45z"/>
  <path d="M19 42.30 c0 -0.70 1.45 -1.30 3.40 -1.30 0.75 0 1.30 -0.35 1.45 -1 0.45 -1.70 1.65 -1.20 1.65 0.70 0 1.60 -0.10 1.70 -2.30 2 -3.40 0.45 -4.20 0.40 -4.20 -0.40z"/>
  <path d="M80.60 42.05 c-0.40 -0.20 -0.60 -0.90 -0.50 -1.45 l0.15 -1.05 2.15 0.95 c1.15 0.50 2.10 1.20 2.10 1.50 0 0.60 -2.95 0.65 -3.90 0.05z"/>
  <path d="M39 24.45 c0 -0.85 0.25 -1 1.25 -0.85 0.85 0.20 1.45 0 1.75 -0.55 0.35 -0.60 0.45 -0.45 0.50 0.85 0 1.50 -0.10 1.60 -1.75 1.60 -1.45 0 -1.75 -0.20 -1.75 -1.05z"/>
  <path d="M25.90 21.90 c-1.35 -0.55 -2.40 -1.20 -2.40 -1.45 0 -0.25 -0.45 -0.45 -1 -0.45 -0.75 0 -1 -0.35 -1 -1.25 0 -0.70 0.10 -1.25 0.20 -1.25 0.15 0 2.10 0.90 4.35 2 2.30 1.10 4.45 2 4.80 2 0.35 0 0.65 0.35 0.65 0.75 0 1.10 -2.75 0.95 -5.60 -0.35z"/>
  <path d="M75.50 20.35 c0 -0.35 1.15 -1 2.50 -1.45 l2.50 -0.80 0 1.15 c0 0.75 -0.35 1.25 -1.10 1.45 -1.95 0.50 -3.90 0.35 -3.90 -0.35z"/>
  <path d="M56.50 18 c0 -1.15 -0.20 -1.50 -1 -1.50 -0.55 0 -1 -0.20 -1 -0.50 0 -0.25 -0.35 -0.50 -0.75 -0.50 -0.50 0 -0.75 -0.55 -0.75 -1.75 0 -2.55 1.50 -2.35 3 0.40 0.65 1.15 1.60 2.65 2.10 3.30 1.20 1.60 1.15 2.05 -0.35 2.05 -1.05 0 -1.25 -0.25 -1.25 -1.50z"/>
  <path d="M17.35 17.65 c-0.20 -0.15 -0.35 -0.75 -0.35 -1.25 0 -0.65 -0.40 -0.90 -1.35 -0.90 -2.10 0 -3 -0.75 -2.20 -1.70 0.40 -0.45 0.85 -0.80 1.05 -0.80 0.60 0 6.50 4.10 6.50 4.55 0 0.50 -3.15 0.60 -3.65 0.10z"/>
  <path d="M51 7.75 c0 -2.65 0.65 -2.30 2.40 1.40 0.10 0.20 -0.40 0.35 -1.10 0.35 -1.15 0 -1.30 -0.20 -1.30 -1.75z"/>
 </g>
 <g fill="#4e5966">
  <path d="M32 98.90 c0 -1.50 0.65 -2.90 1.30 -2.90 0.45 0 0.70 0.60 0.70 1.75 0 1.40 -0.20 1.75 -1 1.75 -0.55 0 -1 -0.30 -1 -0.60z"/>
  <path d="M35.50 95.25 c0 -0.95 0.20 -1.75 0.40 -1.75 0.20 0 0.65 -0.65 0.95 -1.50 0.45 -1.15 0.90 -1.50 1.85 -1.50 0.70 0 1.30 0.15 1.30 0.35 0 0.55 -3.75 6.15 -4.10 6.15 -0.25 0 -0.40 -0.80 -0.40 -1.75z"/>
  <path d="M33 94.90 c0 -1.50 0.65 -2.90 1.30 -2.90 0.45 0 0.70 0.60 0.70 1.75 0 1.40 -0.20 1.75 -1 1.75 -0.55 0 -1 -0.30 -1 -0.60z"/>
  <path d="M67.55 91.55 c-1.75 -1.95 -3.50 -3.95 -3.90 -4.55 -0.75 -1.05 -0.70 -1.05 0.90 -0.90 1.50 0.15 1.70 0.35 1.85 1.75 0.15 1.30 0.40 1.60 1.50 1.75 0.80 0.10 1.55 0.65 1.95 1.40 0.55 1.10 0.60 0.95 0.30 -1.35 -0.25 -2.20 -0.15 -2.65 0.50 -2.65 1.10 0 2.25 4.95 1.30 5.55 -0.50 0.30 -0.55 0.45 -0.05 0.45 0.30 0 0.60 0.45 0.60 1 0 1.90 -1.75 1 -4.95 -2.45z"/>
  <path d="M33.30 87.90 c-0.60 -2.40 -0.35 -3.90 0.70 -3.90 0.85 0 1 0.35 1 2.50 0 1.80 -0.20 2.50 -0.70 2.50 -0.35 0 -0.80 -0.50 -1 -1.10z"/>
  <path d="M13.25 82.50 c-0.45 -0.75 0.20 -1.50 1.30 -1.50 0.55 0 1.35 -0.35 1.75 -0.75 0.45 -0.40 1.65 -0.90 2.75 -1.05 1.05 -0.20 1.95 -0.50 1.95 -0.75 0 -0.25 0.80 -0.45 1.80 -0.45 2.80 0 1.85 1.05 -2.60 2.80 -4.90 1.95 -6.55 2.35 -6.95 1.70z"/>
  <path d="M27 77 c0 -0.80 0.35 -1 1.75 -1 2 0 2.45 1.20 0.65 1.70 -1.90 0.50 -2.40 0.35 -2.40 -0.70z"/>
  <path d="M89.85 75.45 c-0.50 -0.30 -2.50 -0.60 -4.40 -0.70 -4.75 -0.25 -6.45 -0.65 -6.45 -1.60 0 -0.65 0.60 -0.70 3.95 -0.40 l4 0.35 0.15 -1.55 0.15 -1.50 2.65 2 c1.55 1.20 2.60 2.40 2.60 2.95 0 1.10 -1.20 1.30 -2.65 0.45z"/>
  <path d="M20.60 74.15 c1.75 -3.70 2.40 -4.05 2.40 -1.40 0 1.55 -0.15 1.75 -1.30 1.75 -0.70 0 -1.20 -0.15 -1.10 -0.35z"/>
  <path d="M73 73 c0 -0.85 0.35 -1 2 -1 1.65 0 2 0.15 2 1 0 0.85 -0.35 1 -2 1 -1.65 0 -2 -0.15 -2 -1z"/>
  <path d="M22.60 70.15 c1.75 -3.70 2.40 -4.05 2.40 -1.40 0 1.55 -0.15 1.75 -1.30 1.75 -0.70 0 -1.20 -0.15 -1.10 -0.35z"/>
  <path d="M24.50 66 c0 -0.30 -0.60 -1.10 -1.35 -1.75 l-1.40 -1.20 1.90 -0.05 c1.80 0 1.85 0.05 1.85 1.75 0 0.95 -0.20 1.75 -0.50 1.75 -0.25 0 -0.50 -0.25 -0.50 -0.50z"/>
  <path d="M80.50 63.75 c0 -2.25 1 -2.25 2.05 0 l0.80 1.75 -1.40 0 c-1.30 0 -1.45 -0.15 -1.45 -1.75z"/>
  <path d="M18.40 61.20 c-1.90 -1 -1.75 -1.70 0.35 -1.70 1.55 0 1.75 0.15 1.75 1.25 0 1.45 -0.25 1.50 -2.10 0.45z"/>
  <path d="M79 60.25 c0 -0.70 -0.20 -1.25 -0.50 -1.25 -0.25 0 -0.50 -0.80 -0.50 -1.75 0 -1.50 0.15 -1.75 1.15 -1.75 1 0 1.15 0.20 0.95 1.50 -0.10 0.85 0 1.80 0.25 2.15 0.30 0.30 0.65 1 0.80 1.50 0.25 0.65 0.05 0.85 -0.90 0.85 -1 0 -1.25 -0.25 -1.25 -1.25z"/>
  <path d="M12.65 58.75 c-2.85 -1.20 -1.90 -2.75 1.65 -2.75 1.35 0 1.70 0.20 1.70 1 0 0.55 -0.30 1 -0.70 1 -0.40 0 -0.80 0.30 -0.90 0.70 -0.15 0.60 -0.40 0.65 -1.75 0.05z"/>
  <path d="M38.50 56.55 l0 -2.95 3.30 -0.35 c1.80 -0.20 3.40 -0.20 3.55 -0.05 0.15 0.15 0.40 1.25 0.50 2.55 0.25 2 0.20 2.25 -0.75 2.25 -0.80 0 -1.05 -0.35 -1.20 -1.60 -0.15 -1.50 -0.30 -1.65 -1.75 -1.65 -1.20 0 -1.65 0.25 -1.85 1 -0.40 1.50 -0.40 1.65 0.70 2.75 l1 1 -1.75 0 -1.75 0 0 -2.95z"/>
  <path d="M57.50 55.25 c0 -0.40 -0.20 -0.75 -0.50 -0.75 -0.75 0 -0.60 -4.15 0.15 -5.20 0.50 -0.70 1.25 -0.85 3.60 -0.70 l3 0.15 0.15 3.15 c0.15 3 0.10 3.10 -1.10 3.10 -1.15 0 -1.20 -0.10 -0.75 -1.80 0.80 -2.80 -0.95 -4.25 -2.70 -2.30 -1.20 1.35 -1.05 2.85 0.40 3.60 1.75 0.95 1.55 1.50 -0.50 1.50 -1.20 0 -1.75 -0.25 -1.75 -0.75z"/>
  <path d="M87 49.55 c0 -1.45 0.15 -1.55 1.75 -1.55 1.40 0 1.75 -0.20 1.75 -1 0 -0.70 0.35 -1 1.15 -1 0.90 0 0.95 -0.10 0.35 -0.50 -0.40 -0.25 -1.50 -0.50 -2.35 -0.50 -1.30 0 -1.65 -0.20 -1.65 -0.95 0 -0.90 0.25 -0.95 3.65 -0.70 1.95 0.15 3.80 0.45 4.05 0.70 0.50 0.45 -3 3.95 -3.95 3.95 -0.30 0 -1.50 0.70 -2.65 1.55 l-2.10 1.55 0 -1.55z"/>
  <path d="M18.50 47.25 c-1.80 -1.20 -3.90 -2.70 -4.75 -3.40 -1.40 -1.20 -1.45 -1.30 -0.55 -1.65 0.60 -0.25 1.05 -0.15 1.20 0.20 0.10 0.35 0.60 0.60 1.15 0.60 0.60 0 0.95 0.35 0.95 1 0 0.80 0.35 1 1.75 1 1.20 0 1.75 0.25 1.75 0.75 0 0.40 0.45 0.75 1 0.75 0.80 0 1 0.35 1 1.50 0 0.85 -0.05 1.50 -0.10 1.45 -0.10 0 -1.60 -1 -3.40 -2.20z"/>
  <path d="M75 33.65 c0 -2.65 0.55 -3.65 1.85 -3.65 0.80 0 1.15 0.20 0.95 0.65 -0.10 0.30 -0.50 1.45 -0.85 2.50 -0.70 2.20 -1.95 2.50 -1.95 0.50z"/>
  <path d="M22.50 33.55 c-0.80 -1.55 -0.60 -2.55 0.50 -2.55 0.80 0 1 0.35 1 1.75 0 1.95 -0.70 2.30 -1.50 0.80z"/>
  <path d="M19.85 27.15 c-0.90 -1.90 -2.70 -5.25 -4 -7.50 -1.30 -2.25 -2.35 -4.25 -2.35 -4.40 0 -0.15 0.35 -0.25 0.75 -0.25 0.40 0 0.75 -0.30 0.75 -0.70 0 -0.95 1.70 -0.50 2.80 0.75 0.80 0.90 0.80 0.95 -0.50 0.95 -1.25 0 -1.30 0.05 -0.60 0.80 0.45 0.40 0.80 1.20 0.80 1.75 0 0.50 0.25 0.95 0.50 0.95 0.30 0 0.50 0.55 0.50 1.25 0 0.80 0.30 1.25 0.75 1.25 0.40 0 0.75 0.45 0.75 1 0 0.55 0.25 1 0.50 1 0.30 0 0.50 0.35 0.50 0.80 0 0.40 0.35 1.10 0.75 1.50 0.85 0.85 1.05 4.20 0.25 4.20 -0.25 0 -1.25 -1.50 -2.15 -3.35z"/>
  <path d="M79 25.80 c0 -1.45 0.20 -1.80 1 -1.80 0.80 0 1 -0.35 1 -1.50 0 -1.15 0.20 -1.50 1 -1.50 0.75 0 1 -0.35 1 -1.25 0 -1.05 0.25 -1.25 1.55 -1.25 l1.60 0 -1.35 1.65 c-0.70 0.85 -2.10 2.75 -3.05 4.20 -2.30 3.40 -2.75 3.60 -2.75 1.45z"/>
  <path d="M36.15 25.15 c-0.90 -0.10 -1.65 -0.40 -1.65 -0.70 0 -0.25 -0.80 -0.45 -1.75 -0.45 -1.55 0 -1.75 -0.15 -1.75 -1.25 0 -1.15 0.10 -1.20 1.40 -0.70 1.80 0.75 8.70 1.95 9.20 1.65 0.20 -0.15 0.40 0.20 0.40 0.75 0 0.90 -0.30 1.05 -2.10 0.95 -1.20 0 -2.90 -0.15 -3.75 -0.25z"/>
  <path d="M64 22.05 c0 -0.85 0.40 -0.95 3 -0.90 2.55 0 3 0.15 3 0.95 0 0.75 -0.40 0.90 -3 0.90 -2.60 0 -3 -0.10 -3 -0.95z"/>
  <path d="M58 20.25 c0 -2.05 0.55 -2.25 1.50 -0.50 0.35 0.70 0.85 1.25 1.10 1.25 0.20 0 0.40 0.25 0.40 0.50 0 0.30 -0.65 0.50 -1.50 0.50 -1.40 0 -1.50 -0.15 -1.50 -1.75z"/>
  <path d="M43.65 21.15 c0.10 -0.25 0.65 -1.45 1.25 -2.75 1.30 -2.85 2.10 -3.10 2.10 -0.65 0 0.95 -0.20 1.75 -0.50 1.75 -0.25 0 -0.50 0.45 -0.50 1 0 0.75 -0.35 1 -1.30 1 -0.70 0 -1.15 -0.15 -1.05 -0.35z"/>
  <path d="M73 20.80 c0 -0.65 1.40 -1.30 2.90 -1.30 0.30 0 0.60 0.45 0.60 1 0 0.80 -0.35 1 -1.75 1 -1.15 0 -1.75 -0.25 -1.75 -0.70z"/>
  <path d="M22.50 20 c0 -0.25 -0.45 -0.50 -1 -0.50 -0.75 0 -1 -0.35 -1 -1.25 0 -0.70 0.10 -1.25 0.25 -1.25 0.60 0 5.25 2.75 5.25 3.10 0 0.20 -0.80 0.40 -1.75 0.40 -0.95 0 -1.75 -0.20 -1.75 -0.50z"/>
  <path d="M53.50 15.80 c0 -0.40 -0.15 -0.80 -0.35 -0.90 -0.75 -0.30 -2.15 -3.95 -2.15 -5.40 0 -1.10 0.25 -1.50 0.90 -1.50 0.75 0 2.60 3 5 8.15 0.10 0.20 -0.60 0.35 -1.60 0.35 -1.20 0 -1.80 -0.25 -1.80 -0.70z"/>
  <path d="M47 12.95 c0 -1.60 1.20 -4.95 1.80 -4.95 0.75 0 0.90 1.40 0.40 3.95 -0.25 1.05 -0.60 1.55 -1.25 1.55 -0.55 0 -0.95 -0.25 -0.95 -0.55z"/>
  <path d="M48 5.80 c0 -2.30 2.60 -3.35 3.15 -1.30 0.15 0.65 0 1 -0.45 1 -0.40 0 -0.70 0.25 -0.70 0.50 0 0.30 -0.45 0.50 -1 0.50 -0.55 0 -1 -0.30 -1 -0.70z"/>
 </g>
 <g fill="#5d6f89">
  <path d="M33 98.50 c0 -0.90 0.30 -1.65 0.75 -1.80 0.40 -0.20 0.75 -0.60 0.75 -1 0 -0.40 0.50 -0.70 1.25 -0.70 1.55 0 1.55 0.15 -0.10 2.80 -1.65 2.60 -2.65 2.85 -2.65 0.70z"/>
  <path d="M37.50 91.95 c0 -2 4.55 -6.95 6.35 -6.95 0.80 0 1.15 -0.30 1.15 -1 0 -0.75 0.35 -1 1.25 -1 0.90 0 1.25 -0.25 1.25 -1 0 -0.80 0.35 -1 1.75 -1 2.10 0 2.25 0.70 0.40 1.65 -1.75 0.95 -9.20 7.70 -10.45 9.45 -1.25 1.80 -1.70 1.75 -1.70 -0.15z"/>
  <path d="M69.20 86 c-0.20 -1.10 -0.50 -2 -0.75 -2 -0.50 0 -0.60 -9.50 -0.15 -10.70 0.20 -0.50 0.90 -0.80 2 -0.80 2 0 2.30 1.05 0.55 1.80 -1.15 0.45 -1.15 0.45 -0.60 4.95 0.35 2.50 0.75 5.45 0.95 6.65 0.35 1.90 0.30 2.10 -0.65 2.10 -0.80 0 -1.10 -0.40 -1.35 -2z"/>
  <path d="M60.25 84.20 c-4.25 -3 -6.30 -3.90 -7.35 -3.25 -0.80 0.50 -0.90 0.40 -0.90 -0.95 0 -1.35 0.15 -1.50 1.50 -1.50 1.85 0 4 0.95 4 1.85 0 0.35 0.55 0.65 1.25 0.65 0.90 0 1.25 0.25 1.25 1 0 0.80 0.35 1 1.50 1 1.35 0 1.50 0.15 1.50 1.50 0 0.85 -0.05 1.50 -0.10 1.45 -0.10 0 -1.25 -0.80 -2.65 -1.75z"/>
  <path d="M13.20 82.40 c-0.55 -0.90 1.75 -2.25 3.35 -2 2.45 0.35 1.75 1.40 -1.35 2.10 -1.05 0.25 -1.85 0.20 -2 -0.10z"/>
  <path d="M19.50 80 c0 -0.65 -0.45 -1 -1.50 -1.10 l-1.55 -0.15 1.50 -1.75 1.50 -1.75 0.05 1.65 c0 1.35 0.20 1.60 1.25 1.60 0.70 0 1.25 -0.20 1.25 -0.40 0 -0.55 4.95 -2.10 6.65 -2.10 0.75 0 1.35 -0.20 1.35 -0.50 0 -0.25 0.80 -0.50 1.75 -0.50 1.70 0 1.75 0.05 1.75 1.90 -0.05 1.70 -0.10 1.75 -0.75 0.95 -0.85 -1.15 -1.95 -0.95 -8.60 1.40 -4.25 1.50 -4.65 1.60 -4.65 0.75z"/>
  <path d="M91 74.50 c0 -1.50 0 -1.50 1.25 -0.70 1.50 0.95 1.40 1.90 -0.15 2.10 -0.95 0.15 -1.10 -0.05 -1.10 -1.40z"/>
  <path d="M80.90 74.15 c-1.65 -0.40 -1 -1.65 0.85 -1.65 1.40 0 1.75 0.20 1.75 1 0 1 -0.70 1.15 -2.60 0.65z"/>
  <path d="M83 68.05 c0 -0.50 -0.45 -1.05 -1 -1.20 -0.60 -0.15 -1 -0.70 -1 -1.35 0 -0.60 -0.35 -1.40 -0.75 -1.80 -0.85 -0.85 -1.05 -4.20 -0.25 -4.20 0.30 0 0.90 0.85 1.30 1.90 1.15 2.65 1.25 2.80 3.10 5.35 l1.65 2.25 -1.50 0 c-1.20 0 -1.55 -0.20 -1.55 -0.95z"/>
  <path d="M24.35 66.35 c0.20 -0.90 -0.30 -1.50 -2.55 -3.05 -1.55 -1.05 -2.80 -2.10 -2.80 -2.35 0 -0.65 3.20 -0.55 3.90 0.15 0.35 0.35 0.60 1.10 0.60 1.75 0 0.95 0.25 1.15 1.50 1.15 1.40 0 1.50 0.15 1.50 1.75 0 1.50 -0.15 1.75 -1.20 1.75 -0.95 0 -1.10 -0.20 -0.95 -1.15z"/>
  <path d="M11.35 58.20 c-1 -1 -0.15 -1.60 2.70 -1.90 3 -0.35 7.25 -2 9.15 -3.50 0.95 -0.80 0.95 -0.80 -0.20 -2.05 l-1.15 -1.25 1.80 0 c1.70 0 1.85 0.10 1.85 1.40 0 2.35 -0.55 3.60 -1.55 3.60 -0.55 0 -0.95 0.35 -0.95 0.75 0 0.50 -0.55 0.75 -1.75 0.75 -1.15 0 -1.75 0.25 -1.75 0.70 0 0.45 -0.95 0.80 -2.85 1.05 -1.60 0.15 -3.35 0.45 -3.90 0.55 -0.55 0.15 -1.20 0.10 -1.40 -0.10z"/>
  <path d="M44.10 56.75 c0.05 -1.35 0.30 -1.75 1 -1.75 0.70 0 0.90 0.40 0.90 1.75 0 1.40 -0.20 1.75 -1 1.75 -0.80 0 -0.95 -0.30 -0.90 -1.75z"/>
  <path d="M78 56.75 c0 -1.10 0.25 -1.75 0.65 -1.75 0.35 0 0.85 -0.50 1.10 -1.10 0.30 -0.70 1.05 -1.20 1.90 -1.30 0.95 -0.10 1.35 -0.45 1.35 -1.15 0 -0.60 0.35 -0.95 1 -0.95 0.55 0 1 -0.20 1 -0.50 0 -0.25 0.55 -0.50 1.20 -0.50 0.90 0 1.25 -0.30 1.40 -1.10 0.10 -0.95 0.50 -1.20 2.05 -1.30 1 -0.10 1.85 0.05 1.85 0.25 0 0.50 -3.80 3.35 -6.10 4.65 -2.50 1.40 -5.90 4.90 -5.60 5.70 0.20 0.55 0 0.80 -0.75 0.80 -0.85 0 -1.05 -0.30 -1.05 -1.75z"/>
  <path d="M39.55 54.65 c-0.05 -2.05 0 -2.15 1.40 -2.15 1.95 0 3.05 0.45 3.05 1.25 0 0.70 -2.25 1.45 -3.05 1 -0.25 -0.20 -0.65 0.20 -0.90 0.85 -0.40 1 -0.50 0.85 -0.50 -0.95z"/>
  <path d="M58.10 50 c0.15 -1.70 0.25 -1.75 2.30 -1.90 1.90 -0.15 2.10 -0.05 2.10 1 0 1 -0.25 1.15 -1.75 1.10 -1.15 -0.05 -1.95 0.20 -2.25 0.75 -0.40 0.60 -0.50 0.40 -0.40 -0.95z"/>
  <path d="M92.50 44.90 c0 -0.95 0.25 -1.15 1.50 -1.10 0.85 0 1.50 0.20 1.50 0.35 -0.05 1.15 -0.75 1.85 -1.80 1.85 -0.90 0 -1.20 -0.25 -1.20 -1.10z"/>
  <path d="M85.50 44.55 c0 -0.20 -0.90 -0.55 -2.05 -0.70 -1.15 -0.15 -2.50 -0.75 -3 -1.30 -0.55 -0.55 -1.55 -1.20 -2.20 -1.35 -0.65 -0.15 -1.35 -0.70 -1.50 -1.20 -0.15 -0.50 -0.60 -1.05 -1 -1.20 -1.05 -0.40 -1 -3.80 0 -3.80 0.40 0 0.75 0.30 0.75 0.65 0 1.95 6.85 6.05 12.30 7.40 3.25 0.85 2.90 1.95 -0.55 1.95 -1.50 0 -2.75 -0.20 -2.75 -0.45z"/>
  <path d="M15.50 42.80 c0 -0.65 1.40 -1.30 2.90 -1.30 0.30 0 0.60 0.45 0.60 1 0 0.80 -0.35 1 -1.75 1 -1.15 0 -1.75 -0.25 -1.75 -0.70z"/>
  <path d="M19.50 42.30 c0 -0.65 1.40 -1.30 2.90 -1.30 0.30 0 0.60 0.45 0.60 1 0 0.80 -0.35 1 -1.75 1 -1.15 0 -1.75 -0.25 -1.75 -0.70z"/>
  <path d="M23.15 35.25 c-0.55 -1.65 -0.50 -1.75 0.65 -1.75 1.05 0 1.20 0.25 1.20 1.75 0 1.10 -0.25 1.75 -0.65 1.75 -0.40 0 -0.90 -0.80 -1.20 -1.75z"/>
  <path d="M76 30.75 c0 -1.20 0.25 -1.75 0.75 -1.75 0.45 0 0.75 -0.50 0.75 -1.30 0 -1.80 0.85 -3.20 2 -3.20 0.80 0 1 -0.35 1 -1.50 0 -1.35 0.15 -1.50 1.50 -1.50 l1.55 0 -2.45 3.65 c-1.35 1.95 -2.85 4.45 -3.35 5.50 -1.10 2.30 -1.75 2.35 -1.75 0.10z"/>
  <path d="M36.25 25.20 c-1.90 -0.35 -3.55 -0.90 -3.65 -1.20 -0.10 -0.25 -0.65 -0.50 -1.15 -0.50 -0.55 0 -2 -0.25 -3.25 -0.55 -1.85 -0.50 -2.20 -0.75 -2.20 -1.80 0 -1 0.20 -1.20 0.90 -0.90 2.55 1.05 9.70 3.15 11.80 3.45 2.30 0.35 2.50 0.30 3.85 -1.30 l1.40 -1.65 0.05 1.90 c0 1 -0.20 1.85 -0.50 1.85 -0.25 0 -0.50 0.35 -0.50 0.75 0 0.95 -1.90 0.90 -6.75 -0.05z"/>
  <path d="M69.50 21.85 c0 -0.70 2.15 -1.50 5.65 -2.10 1.60 -0.30 1.85 -0.25 1.85 0.60 0 0.70 -0.60 1.05 -2.65 1.55 -3.40 0.80 -4.85 0.75 -4.85 -0.05z"/>
  <path d="M57 19.90 c0 -0.35 -0.70 -1.10 -1.50 -1.65 -0.80 -0.55 -1.50 -1.30 -1.50 -1.60 0 -0.35 -0.20 -0.65 -0.50 -0.65 -0.25 0 -0.50 -0.45 -0.50 -1 0 -0.55 -0.20 -1 -0.40 -1 -0.55 0 -2.10 -3.30 -2.10 -4.50 0 -1.60 -0.55 -2.50 -1.55 -2.50 -1 0 -1.15 -0.50 -0.65 -2.40 0.20 -0.60 0.70 -1.10 1.20 -1.10 0.65 0 1.75 1.65 3.95 5.90 1.65 3.20 3.70 6.85 4.55 8.10 1.80 2.75 1.85 3 0.25 3 -0.70 0 -1.25 -0.30 -1.25 -0.60z"/>
  <path d="M78.50 19.50 c0 -0.40 2.55 -2 3.25 -2 0.15 0 0.25 0.55 0.25 1.25 0 1.10 -0.20 1.25 -1.75 1.25 -0.95 0 -1.75 -0.20 -1.75 -0.50z"/>
  <path d="M19.10 18.55 c-0.40 -0.20 -0.60 -0.90 -0.50 -1.50 l0.15 -1.05 2.15 1.05 c1.15 0.60 2.10 1.25 2.10 1.50 0 0.55 -3.05 0.60 -3.90 0z"/>
  <path d="M87 16.35 c0 -1 0.25 -1.35 1 -1.35 0.55 0 1 0.20 1 0.40 0 0.25 -0.45 0.85 -1 1.35 -1 0.90 -1 0.85 -1 -0.40z"/>
  <path d="M46.15 15.40 c0.40 -0.90 1 -2.85 1.30 -4.25 0.45 -1.80 0.90 -2.65 1.40 -2.65 0.65 0 0.75 0.45 0.50 2.35 -0.60 4.55 -1.25 6.15 -2.65 6.15 -1.20 0 -1.20 -0.05 -0.55 -1.60z"/>
 </g>
 <g fill="#74899e">
  <path d="M32 99.40 c0 -0.35 0.35 -1.90 0.75 -3.40 0.40 -1.50 0.75 -3.35 0.75 -4.10 0 -1.10 0.25 -1.40 1.05 -1.40 1 0 1.05 0.20 0.80 2.50 -0.20 1.45 -0.10 2.50 0.15 2.50 0.30 0 0.50 -0.65 0.50 -1.50 0 -0.80 0.25 -1.50 0.50 -1.50 0.30 0 0.50 -0.45 0.50 -1 0 -0.75 0.35 -1 1.25 -1 1.05 0 1.25 -0.25 1.25 -1.45 0 -1.05 0.60 -1.95 2.25 -3.50 1.20 -1.10 2.55 -2.05 3 -2.05 0.40 0 0.75 -0.20 0.75 -0.50 0 -0.25 0.55 -0.50 1.25 -0.50 0.90 0 1.25 -0.25 1.25 -0.95 0 -0.70 0.50 -1.05 1.75 -1.25 1.15 -0.25 1.75 -0.65 1.75 -1.15 0 -0.65 0.40 -0.75 2.60 -0.50 1.40 0.20 2.70 0.50 2.85 0.75 0.15 0.25 0.80 0.60 1.45 0.80 0.60 0.20 1.10 0.65 1.10 1 0 0.40 0.70 0.80 1.50 1 1.25 0.25 1.50 0.50 1.50 1.75 l0 1.50 -1.60 -1 c-7.65 -4.80 -7 -4.50 -8.15 -3.50 -0.55 0.50 -1.55 1.10 -2.25 1.30 -1.55 0.50 -7.75 5.50 -9.90 8.05 -1.90 2.25 -6.10 8.60 -6.10 9.25 0 0.25 -0.55 0.45 -1.25 0.45 -0.70 0 -1.25 -0.30 -1.25 -0.60z"/>
  <path d="M70.30 92.40 c-0.90 -4.65 -1.50 -7.20 -1.90 -7.60 -0.70 -0.80 -0.50 -6.80 0.25 -6.80 0.65 0 1.85 2.25 1.80 3.45 0 0.55 -0.15 0.50 -0.45 -0.20 -0.40 -0.95 -0.45 -0.95 -0.45 0.10 -0.05 0.60 0.20 1.15 0.50 1.25 0.25 0.10 0.60 0.75 0.65 1.40 0.10 0.70 0.55 2.80 1 4.65 1.05 4.35 1 4.85 -0.20 4.85 -0.60 0 -1.05 -0.40 -1.20 -1.10z"/>
  <path d="M65.40 89 l-1.40 -1.75 1.30 -0.15 c1.65 -0.20 1.80 -0.05 1.60 1.95 l-0.15 1.70 -1.35 -1.75z"/>
  <path d="M33.30 85.90 c-0.60 -2.40 -0.35 -3.90 0.70 -3.90 0.85 0 1 0.35 1 2.50 0 1.80 -0.20 2.50 -0.70 2.50 -0.35 0 -0.80 -0.50 -1 -1.10z"/>
  <path d="M15.55 79.55 c2.95 -3.20 3.45 -3.50 3.45 -2.15 0 0.70 0.35 0.85 2 0.70 1.10 -0.10 2 -0.40 2 -0.65 0 -0.25 0.80 -0.45 1.75 -0.45 1.05 0 1.75 0.25 1.75 0.65 0 0.70 -10.65 4.85 -12.45 4.85 -1.10 0 -1 -0.25 1.50 -2.95z"/>
  <path d="M32.65 77.95 c-0.50 -1.30 -0.70 -1.45 -1.60 -1 -1.50 0.85 -2.55 0.65 -2.55 -0.40 0 -1.15 0.95 -1.55 3.50 -1.55 2.05 0 2.50 0.55 2.50 3.05 0 1.90 -1.10 1.90 -1.85 -0.10z"/>
  <path d="M68 74.30 c0 -1.50 0.20 -1.70 1.55 -2 0.85 -0.15 3.45 -0.30 5.75 -0.30 3.95 0 4.20 0.05 4.20 1.05 0 0.95 -0.25 1.05 -2.35 0.95 -5.60 -0.30 -7.25 -0.05 -7.50 1 -0.45 1.70 -1.65 1.20 -1.65 -0.70z"/>
  <path d="M90.25 75.40 c-0.50 -0.30 -2.10 -0.60 -3.50 -0.65 -3.75 -0.20 -3.75 -0.20 -3.75 -1 0 -0.55 0.60 -0.75 2.20 -0.75 2 0 2.25 -0.15 2.40 -1.25 l0.15 -1.25 1.65 1.35 c1.30 1 1.55 1.40 1 1.75 -0.45 0.35 -0.35 0.45 0.40 0.25 1.20 -0.25 2.95 0.85 2.45 1.60 -0.40 0.70 -1.75 0.65 -3 -0.05z"/>
  <path d="M21.50 72.75 c0 -0.70 1.60 -3.25 2 -3.25 0.30 0 0.50 0.80 0.50 1.75 0 1.55 -0.15 1.75 -1.25 1.75 -0.70 0 -1.25 -0.10 -1.25 -0.25z"/>
  <path d="M23.50 68.75 c0 -0.20 0.30 -0.95 0.70 -1.70 0.70 -1.35 0.70 -1.45 -1.35 -3.10 -2 -1.70 -3.45 -2.45 -7.45 -4.15 -2.25 -0.90 -2.50 -1.80 -0.50 -1.80 2.10 0 3.60 0.55 3.60 1.30 0 0.45 0.55 0.70 1.50 0.70 1.25 0 1.50 0.20 1.50 1.25 0 1.10 0.20 1.25 1.75 1.25 1.60 0 1.75 0.10 1.75 1.50 0 0.85 0.25 1.50 0.50 1.50 0.30 0 0.50 0.80 0.50 1.75 0 1.55 -0.15 1.75 -1.25 1.75 -0.70 0 -1.25 -0.10 -1.25 -0.25z"/>
  <path d="M82.50 66.70 c0 -1.95 0.45 -1.90 2 0.30 l1.05 1.50 -1.50 0 c-1.45 0 -1.55 -0.15 -1.55 -1.80z"/>
  <path d="M79 60.75 c0 -0.70 -0.20 -1.25 -0.50 -1.25 -0.25 0 -0.50 -0.80 -0.50 -1.75 0 -1.45 0.20 -1.75 1.05 -1.75 0.55 0 0.90 0.20 0.70 0.45 -0.15 0.25 0.20 1.60 0.75 3 l1 2.55 -1.25 0 c-1 0 -1.25 -0.25 -1.25 -1.25z"/>
  <path d="M40.35 61.15 c-0.20 -0.15 -0.35 -0.95 -0.35 -1.75 0 -1.40 0 -1.40 1.25 -0.60 0.65 0.40 1.45 0.65 1.75 0.45 0.85 -0.50 1.45 -2.50 1.15 -3.65 -0.35 -1.40 -3.05 -1.75 -3.80 -0.50 -0.90 1.35 -1.35 1.10 -1.35 -0.80 0 -1.85 0.60 -2.30 3 -2.30 1.90 0 3 0.45 3 1.30 0 0.40 0.25 0.70 0.50 0.70 0.30 0 0.50 1.15 0.50 2.50 0 1.90 -0.20 2.50 -0.75 2.50 -0.45 0 -0.75 0.45 -0.75 1.25 0 1.10 -0.20 1.25 -1.90 1.25 -1.05 0 -2.10 -0.15 -2.25 -0.35z"/>
  <path d="M18.50 55.85 c0 -0.40 0.80 -0.90 1.75 -1.20 1.65 -0.55 1.75 -0.50 1.75 0.65 0 1.05 -0.25 1.20 -1.75 1.20 -1.10 0 -1.75 -0.25 -1.75 -0.65z"/>
  <path d="M58 55.75 c0 -0.40 -0.35 -0.75 -0.75 -0.75 -0.55 0 -0.75 -0.65 -0.75 -2.70 0 -3.50 0.75 -4.30 4.05 -4.30 l2.45 0 0 1.75 0 1.75 -1 -1 c-0.55 -0.55 -1.20 -1 -1.50 -1 -0.75 0 -2.50 1.90 -2.50 2.75 0 1 1.80 2.75 2.80 2.75 0.45 0 1.05 -0.65 1.35 -1.50 0.80 -2.10 1.85 -1.95 1.85 0.25 0 1.55 -0.15 1.75 -1.25 1.75 -0.70 0 -1.25 0.25 -1.25 0.50 0 0.30 -0.80 0.50 -1.75 0.50 -1.20 0 -1.75 -0.25 -1.75 -0.75z"/>
  <path d="M81 53.60 c0 -1.60 1.05 -2.75 3 -3.35 0.70 -0.20 1.80 -1.05 2.50 -1.80 1.35 -1.55 3.30 -2.40 5.40 -2.50 0.75 -0.05 -0.65 -0.35 -3.15 -0.65 -5.10 -0.70 -6.75 -1.15 -6.75 -1.85 0 -0.25 -0.35 -0.45 -0.75 -0.45 -1.20 0 -4.75 -2.05 -5.55 -3.20 -1.55 -2.40 -1.50 -8.80 0.10 -8.80 0.45 0 0.70 -0.50 0.70 -1.45 0 -2.25 0.50 -3.05 1.80 -3.05 1.05 0 1.20 -0.25 1.20 -1.75 0 -1.55 0.15 -1.75 1.25 -1.75 1.55 0 1.55 0.55 0 2.40 -3.20 3.80 -5.40 11.20 -3.50 11.90 0.40 0.15 0.85 0.70 1 1.20 0.15 0.50 0.85 1.05 1.50 1.20 0.65 0.15 1.65 0.80 2.20 1.35 0.60 0.65 1.30 0.95 1.80 0.75 0.45 -0.15 0.65 -0.10 0.50 0.20 -0.20 0.30 0.35 0.50 1.20 0.50 0.85 0 1.55 0.25 1.55 0.55 0 0.25 0.20 0.40 0.40 0.25 0.25 -0.15 1.75 0 3.40 0.25 1.60 0.25 3.50 0.50 4.15 0.45 1.05 0 1.10 0.10 0.50 0.85 -1.15 1.45 -2.60 2.55 -4.20 3.20 -0.80 0.35 -2.05 1.10 -2.75 1.75 -0.70 0.60 -1.95 1.50 -2.80 2.05 -0.90 0.50 -2.30 1.40 -3.15 2.05 l-1.55 1.15 0 -1.45z"/>
  <path d="M19.75 47.75 c-0.80 -0.65 -1.70 -1.20 -1.90 -1.25 -0.85 0 -4.85 -3.10 -4.85 -3.70 0 -0.45 1.15 -0.75 3.65 -1 7.10 -0.65 7.35 -0.75 7.35 -2.50 0 -1.80 -0.40 -3.30 -2.15 -7.90 l-1.30 -3.40 1.20 0 c1 0 1.25 0.25 1.25 1.25 0 0.70 0.20 1.25 0.45 1.25 0.60 0 2 4.70 2.35 8.10 0.40 3.35 -0.30 4.40 -2.90 4.40 -2.15 0 -5.95 1.10 -4.75 1.40 0.45 0.10 0.85 0.50 0.85 0.90 0 0.40 0.50 0.70 1.25 0.70 1.05 0 1.25 0.25 1.25 1.50 0 0.85 -0.05 1.50 -0.10 1.50 -0.10 0 -0.80 -0.55 -1.65 -1.25z"/>
  <path d="M63 28.25 c0 -1.65 0.10 -1.75 1.75 -1.75 1.65 0 1.75 0.10 1.75 1.75 0 1.65 -0.10 1.75 -1.75 1.75 -1.65 0 -1.75 -0.10 -1.75 -1.75z"/>
  <path d="M38 25.65 c-0.70 -0.10 -2.80 -0.50 -4.75 -0.95 -1.90 -0.40 -4 -0.85 -4.60 -1 -0.60 -0.10 -1.40 -0.50 -1.75 -0.85 -0.60 -0.55 -8.10 -4.35 -8.65 -4.35 -0.15 0 -0.25 0.35 -0.25 0.75 0 0.40 0.25 0.75 0.50 0.75 0.30 0 0.50 0.80 0.50 1.80 0 2.45 -0.80 2 -2.70 -1.55 -0.90 -1.65 -2 -3.65 -2.50 -4.40 -1.80 -2.65 1.05 -3.15 4.05 -0.70 3.75 3.15 14.50 7.60 21 8.75 2.40 0.40 2.60 0.40 3.20 -0.75 0.90 -1.65 1.45 -1.45 1.45 0.55 0 2.25 -1.15 2.65 -5.50 1.95z"/>
  <path d="M67 22.30 c0 -0.65 1.40 -1.30 2.90 -1.30 0.30 0 0.60 0.45 0.60 1 0 0.80 -0.35 1 -1.75 1 -1.15 0 -1.75 -0.25 -1.75 -0.70z"/>
  <path d="M71.50 21.35 c0 -0.50 1.05 -1 3.50 -1.55 1.95 -0.40 5.45 -1.70 7.80 -2.80 2.35 -1.10 4.60 -2 5 -2 1.25 0 0.75 1.25 -1.30 3.25 -1.25 1.20 -2 1.65 -2 1.20 0 -0.55 -0.45 -0.70 -1.75 -0.55 -0.95 0.10 -1.75 0.50 -1.75 0.85 0 0.75 -3.25 1.75 -6.85 2.10 -2.15 0.25 -2.65 0.15 -2.65 -0.50z"/>
  <path d="M57.50 20.75 c0 -0.40 -0.35 -0.75 -0.75 -0.75 -0.40 0 -0.75 -0.25 -0.75 -0.50 0 -0.30 -0.55 -1.05 -1.25 -1.70 -0.70 -0.65 -1.25 -1.55 -1.25 -2 0 -1.15 -1.90 -4.85 -3.05 -5.90 -0.50 -0.50 -1.25 -0.90 -1.70 -0.90 -0.90 0 -1.05 -2.20 -0.25 -4.20 0.75 -2 1.80 -1.55 3.20 1.25 1.45 2.80 1.55 3.15 0.80 2.70 -0.75 -0.50 -0.60 0.05 0.95 3.15 0.80 1.55 2.30 3.75 3.35 4.90 1.10 1.15 2.45 2.65 3.05 3.40 l1.05 1.30 -1.70 0 c-1.20 0 -1.70 -0.25 -1.70 -0.75z"/>
  <path d="M45.65 16.90 c0.95 -2.30 1.85 -2.40 1.85 -0.20 0 1.60 -0.15 1.80 -1.25 1.80 -1.20 0 -1.25 -0.05 -0.60 -1.60z"/>
  <path d="M47 13.90 c0 -1.50 0.65 -2.90 1.30 -2.90 0.45 0 0.70 0.60 0.70 1.75 0 1.40 -0.20 1.75 -1 1.75 -0.55 0 -1 -0.30 -1 -0.60z"/>
 </g>
 <g fill="#7bacb8">
  <path d="M32 99.65 c0 -0.25 0.40 -1.95 0.90 -3.90 0.70 -2.85 0.80 -4.60 0.50 -9.50 -0.15 -3.30 -0.45 -6.95 -0.60 -8.10 l-0.30 -2.15 2.15 0 c2.65 0 3.50 0.65 4.35 3.35 l0.65 2.10 1.70 -1.45 c0.90 -0.85 2.15 -1.50 2.65 -1.50 0.55 0 1 -0.20 1 -0.50 0 -0.70 5.55 -0.60 7.15 0.15 0.75 0.30 1.35 0.90 1.35 1.25 0 0.85 -1.85 2.60 -2.75 2.60 -1.25 0 -5.25 3.05 -8.85 6.70 -1.85 1.95 -3.40 3.70 -3.40 3.95 0 0.25 -1.05 2 -2.30 3.90 -1.50 2.20 -2.65 3.45 -3.25 3.45 -0.55 0 -0.95 -0.15 -0.95 -0.35z"/>
  <path d="M69.75 89.50 c-0.20 -1.90 -0.55 -3.50 -0.80 -3.50 -0.25 0 -0.45 -0.55 -0.45 -1.25 0 -0.70 -0.20 -1.25 -0.50 -1.25 -0.25 0 -0.50 -0.90 -0.50 -2 0 -1.65 0.15 -2 1 -2 0.80 0 1 0.35 1 1.70 0 0.95 0.20 1.85 0.45 2 0.20 0.15 0.60 1.10 0.80 2.15 0.95 5.10 1.15 5.95 1.50 6.80 0.30 0.65 0.10 0.85 -0.90 0.85 -1.20 0 -1.25 -0.20 -1.60 -3.50z"/>
  <path d="M65.90 89.50 l-1.40 -1.75 1.30 -0.15 c1.65 -0.20 1.80 -0.05 1.60 1.95 l-0.15 1.70 -1.35 -1.75z"/>
  <path d="M14.50 81.60 c0 -0.50 0.80 -1.60 1.75 -2.45 0.95 -0.85 1.75 -1.40 1.75 -1.15 0 0.20 1 0.25 2.25 0.10 1.70 -0.15 2.25 -0.05 2.25 0.45 0 0.75 -2.20 1.95 -3.60 1.95 -0.50 0 -0.90 0.15 -0.90 0.40 0 0.35 -2.35 1.60 -3.10 1.60 -0.20 0 -0.40 -0.40 -0.40 -0.90z"/>
  <path d="M26 77.20 c0 -1.05 0.25 -1.20 1.75 -1.20 1.10 0 1.75 0.25 1.75 0.65 0 0.40 -0.80 0.90 -1.75 1.20 -1.65 0.55 -1.75 0.50 -1.75 -0.65z"/>
  <path d="M90 75.30 c-3.25 -1.20 -17 -1.95 -20.20 -1.15 -1.40 0.40 -1.40 0.40 -1.15 -1.50 0.80 -5.90 2.75 -10.15 6.25 -13.85 3.25 -3.45 4 -3.20 6.10 2.05 1.50 3.75 2.25 4.90 5.25 7.90 1.95 1.90 4.35 4.15 5.45 4.95 1.45 1.10 1.75 1.55 1.25 1.85 -0.85 0.55 -0.80 0.55 -2.95 -0.25z"/>
  <path d="M22.45 70.80 c0.25 -0.60 0.95 -2.05 1.55 -3.10 l1.05 -1.95 -1.90 -1.65 c-1.05 -0.95 -2.85 -2.10 -4 -2.65 -1.20 -0.55 -2.15 -1.20 -2.15 -1.45 0 -0.30 -0.55 -0.50 -1.25 -0.50 -0.65 0 -1.80 -0.25 -2.50 -0.60 -1.45 -0.65 -1.70 -2.40 -0.35 -2.40 0.45 0 1.70 -0.15 2.75 -0.30 1.75 -0.30 1.85 -0.25 1.85 1 0 1.25 0.15 1.35 1.65 1.20 1.50 -0.15 1.60 -0.25 1.45 -1.90 -0.10 -1.50 0.10 -1.90 1.55 -2.85 0.90 -0.65 2.25 -1.15 3 -1.15 l1.35 0 0 7.75 c0 6.55 -0.10 7.75 -0.75 7.75 -0.45 0 -0.75 0.45 -0.75 1.20 0 1.95 -0.55 2.80 -1.80 2.80 -1.05 0 -1.10 -0.15 -0.75 -1.20z"/>
  <path d="M39 58.75 c0 -2.15 0.35 -2.15 2.15 0.05 l1.45 1.70 -1.80 0 c-1.70 0 -1.80 -0.05 -1.80 -1.75z"/>
  <path d="M83 51.45 c0 -1.35 0.10 -1.45 2 -1.45 1.10 0 2 0.20 2 0.50 0 0.25 -0.90 0.90 -2 1.45 l-2 0.95 0 -1.45z"/>
  <path d="M88 48 c0 -1.45 0.75 -2 2.80 -2 0.85 0 1.20 -0.30 1.20 -1 0 -0.85 0.30 -1 1.75 -0.85 1.90 0.10 2.05 0.80 0.35 1.60 -0.60 0.25 -1.10 0.75 -1.10 1.10 0 0.35 -0.30 0.65 -0.65 0.65 -0.35 0 -1.45 0.45 -2.50 0.95 l-1.85 0.95 0 -1.40z"/>
  <path d="M18.65 46.95 c-2.10 -1.35 -2.10 -1.95 0.10 -1.95 1.60 0 1.75 0.10 1.75 1.50 0 0.85 -0.05 1.50 -0.10 1.50 -0.10 0 -0.90 -0.50 -1.75 -1.05z"/>
  <path d="M15.50 43.30 c0 -0.65 1.40 -1.30 2.90 -1.30 0.30 0 0.60 0.45 0.60 1 0 0.80 -0.35 1 -1.75 1 -1.15 0 -1.75 -0.25 -1.75 -0.70z"/>
  <path d="M79.50 42.50 c0 -0.25 -0.35 -0.50 -0.75 -0.50 -0.45 0 -0.75 -0.45 -0.75 -1.25 0 -1.05 -0.25 -1.25 -1.50 -1.25 -1.40 0 -1.50 -0.15 -1.50 -1.75 0 -2.20 1 -2.30 2 -0.15 0.50 1 1.65 2.10 3.25 2.95 3.10 1.70 3.40 2.45 1.05 2.45 -1 0 -1.80 -0.20 -1.80 -0.50z"/>
  <path d="M24.30 39.70 c-0.15 -0.45 -0.30 -1.30 -0.30 -2 0 -2.30 -6.65 -16.85 -9.80 -21.45 -0.85 -1.15 -0.90 -2.75 -0.20 -2.75 0.80 0 3.65 1.55 4.25 2.30 0.30 0.35 3.20 1.95 6.50 3.60 5.55 2.75 11.45 4.60 14.65 4.60 1 0 1.10 0.25 1.10 2.25 0 2.05 -0.10 2.25 -1.20 2.25 -0.70 0 -1.40 0.25 -1.55 0.50 -0.15 0.30 -1.25 0.50 -2.45 0.50 l-2.10 0 0.20 3.25 c0.25 3.55 -0.70 6.35 -2.40 7.25 -1.55 0.85 -6.35 0.65 -6.70 -0.30z"/>
  <path d="M73.70 34.65 c-1.15 -3.50 -1.10 -3.50 -4.15 -3.80 -1.90 -0.15 -3.60 -0.70 -4.95 -1.55 -3.25 -2.05 -4.10 -3.20 -4.10 -5.65 l0 -2.15 2.95 0 c2.90 0 3 0.05 3.15 1.40 0.15 1.30 0.25 1.35 2.75 1.30 3.25 -0.10 5.95 -1.55 5.75 -3.05 -0.15 -1 0.55 -1.35 3.40 -1.90 0.15 0 0.80 -0.35 1.50 -0.75 1.35 -0.80 6.25 -2.90 7.65 -3.35 1.25 -0.40 1.10 1.10 -0.25 2.20 -1.30 1.05 -4.35 4.70 -7 8.40 -1.80 2.55 -3.45 5.95 -4.05 8.40 -0.40 1.55 -2.20 1.90 -2.65 0.50z"/>
  <path d="M42 23.55 c0 -0.30 0.55 -1.15 1.25 -1.90 l1.20 -1.40 0.05 1.90 c0 1.65 -0.15 1.85 -1.25 1.85 -0.70 0 -1.25 -0.20 -1.25 -0.45z"/>
  <path d="M51.50 13 c-1.20 -2.50 -1.95 -3.50 -2.65 -3.50 -0.80 0 -0.85 -0.30 -0.60 -2.35 0.45 -3.25 0.60 -3.65 1.50 -3.65 0.50 0 0.75 0.50 0.75 1.40 0.05 0.75 1.25 3.65 2.70 6.50 l2.65 5.10 -1.35 0 c-1.15 0 -1.55 -0.45 -3 -3.50z"/>
  <path d="M47.15 13.25 c0.30 -0.95 0.80 -1.75 1.20 -1.75 0.40 0 0.65 0.65 0.65 1.75 0 1.50 -0.15 1.75 -1.20 1.75 -1.15 0 -1.20 -0.10 -0.65 -1.75z"/>
 </g>
 <g fill="#8eabaf">
  <path d="M32.75 98.55 c-0.35 -1.10 0.15 -3.55 0.75 -3.55 0.25 0 0.35 0.80 0.30 1.75 -0.10 0.95 0.05 1.75 0.25 1.75 0.25 0 0.45 -0.30 0.45 -0.65 0 -0.40 0.55 -1.15 1.20 -1.80 0.60 -0.60 1.45 -2 1.85 -3.15 0.35 -1.15 1.50 -2.90 2.45 -3.85 3.10 -3.10 5.55 -5.10 5.95 -4.85 0.20 0.15 1.05 -0.40 1.80 -1.20 0.80 -0.85 1.80 -1.50 2.30 -1.50 0.45 0 1.05 -0.30 1.35 -0.65 0.40 -0.50 0.20 -0.80 -0.95 -1.30 -2.05 -0.90 -1.80 -1.55 0.60 -1.55 1.95 0 2 0.05 1.85 1.60 -0.10 1.20 -0.50 1.70 -1.65 2.10 -3.95 1.45 -11.15 7.90 -13.25 11.85 -1.30 2.55 -3.90 5.95 -4.50 5.95 -0.25 0 -0.55 -0.45 -0.75 -0.95z"/>
  <path d="M33.60 91.25 c-0.05 -1.25 0.10 -2.25 0.40 -2.25 0.25 0 0.50 1 0.50 2.25 0 1.25 -0.20 2.25 -0.40 2.25 -0.25 0 -0.50 -1 -0.50 -2.25z"/>
  <path d="M38.55 85.30 c-0.35 -0.40 -0.55 -1.05 -0.45 -1.40 0.30 -0.90 -1.35 -5.45 -2.15 -5.95 -0.50 -0.30 -0.10 -0.45 1.10 -0.45 1.65 0 1.85 0.15 2.15 1.55 0.15 0.85 0.30 2.10 0.30 2.75 0 0.75 0.30 1.20 0.75 1.20 1 0 0.95 0.65 -0.15 2 -0.80 1 -0.95 1 -1.55 0.30z"/>
  <path d="M33.30 83.90 c-0.45 -1.70 -0.35 -4.90 0.15 -4.90 0.20 0 0.55 0.95 0.70 2.15 0.15 1.20 0.45 2.55 0.65 3 0.20 0.55 0.05 0.85 -0.45 0.85 -0.40 0 -0.85 -0.50 -1.05 -1.10z"/>
  <path d="M43.50 79.25 c0 -1.15 0.20 -1.25 2.25 -1.25 1.25 0 2.25 0.25 2.25 0.50 0 0.30 -0.30 0.50 -0.70 0.50 -0.40 0 -0.80 0.20 -0.90 0.40 -0.05 0.25 -0.75 0.60 -1.50 0.80 -1.25 0.30 -1.40 0.20 -1.40 -0.95z"/>
  <path d="M90 75.25 c-0.95 -0.35 -2.65 -0.70 -3.80 -0.70 -3.85 -0.10 -8.20 -0.70 -8.20 -1.15 0 -0.45 7.50 -0.30 9 0.20 5.60 1.85 5.70 1.85 3 -0.65 l-2.25 -2.05 2.50 1.70 c3.55 2.40 3.35 4.05 -0.25 2.65z"/>
  <path d="M68 72.80 c0 -1.65 0.10 -1.80 1.50 -1.80 1.40 0 1.50 0.10 1 1 -0.45 0.85 -0.40 1 0.60 1 1.50 0 0.55 0.80 -1.45 1.25 -1.60 0.30 -1.65 0.30 -1.65 -1.45z"/>
  <path d="M72.75 73.50 c0.15 -0.25 0.80 -0.50 1.40 -0.50 0.90 0 0.95 0.10 0.35 0.50 -1 0.65 -2.15 0.65 -1.75 0z"/>
  <path d="M70 67.30 c0 -1.60 0.15 -1.80 1.25 -1.80 1.20 0 1.25 0.05 0.60 1.60 -0.95 2.30 -1.85 2.40 -1.85 0.20z"/>
  <path d="M83.35 66.65 c-1 -1 -1.85 -2.05 -1.85 -2.30 0 -0.25 -0.60 -1.80 -1.30 -3.40 -0.95 -2.05 -1.50 -2.80 -2.05 -2.60 -0.55 0.20 -0.70 0 -0.55 -0.65 0.10 -0.50 0.50 -1 0.90 -1.10 0.50 -0.05 1.20 1.10 2.25 3.70 0.85 2.10 2.25 4.85 3.15 6 2 2.70 1.85 2.80 -0.55 0.35z"/>
  <path d="M22.95 63.90 c-2.10 -1.50 -2.10 -2.55 0 -1.45 1.90 1.05 2.05 0.70 2.05 -3.95 0 -4.55 -0.40 -5.40 -1.90 -3.90 -0.45 0.45 -0.60 0.40 -0.60 -0.30 0 -1.10 1.35 -2.25 2.65 -2.30 0.45 0 0.85 0.30 0.85 0.70 0 0.40 0.25 0.80 0.55 0.90 0.70 0.25 1.15 5.65 0.75 9.10 -0.45 3.35 -1.10 3.55 -4.35 1.20z"/>
  <path d="M17.65 60.70 c-2.15 -1.05 -2.10 -1.70 0.10 -1.70 1.55 0 1.75 0.15 1.75 1.25 0 0.70 -0.05 1.25 -0.10 1.25 -0.10 0 -0.90 -0.40 -1.75 -0.80z"/>
  <path d="M40.40 60.15 l-1.90 -0.20 0 -3.25 c0 -3.95 0.60 -4.70 3.70 -4.70 1.70 0 2.30 0.20 2.30 0.75 0 0.40 0.35 0.75 0.75 0.75 0.85 0 0.90 0.55 0.45 4.40 -0.35 2.90 -0.15 2.80 -5.30 2.25z m3.25 -1.60 c1.10 -1.90 1.05 -2.85 -0.15 -4.05 -1.20 -1.20 -1.70 -1.25 -2.70 -0.20 -1.15 1.10 -1 3.50 0.30 4.70 1.40 1.30 1.50 1.30 2.55 -0.45z"/>
  <path d="M17 56.70 c0 -0.60 1.70 -1.65 2.65 -1.70 0.50 0 0.85 0.35 0.85 1 0 0.80 -0.35 1 -1.75 1 -0.95 0 -1.75 -0.15 -1.75 -0.30z"/>
  <path d="M58.50 56.55 c0 -0.25 -0.45 -0.55 -1 -0.70 -0.85 -0.20 -1 -0.70 -1 -3.35 0 -4.15 0.60 -4.70 4.50 -4.25 l3 0.35 0 1.70 c0 1.95 -1 2.30 -1.75 0.60 -1 -2.30 -4.25 -1.25 -4.25 1.30 0 1.30 1.45 2.80 2.65 2.80 0.45 0 1.10 -0.45 1.45 -1 0.95 -1.45 1.40 -1.25 1.40 0.70 0 1.30 -0.25 1.75 -1.10 2 -1.70 0.45 -3.90 0.35 -3.90 -0.15z"/>
  <path d="M19.60 47.50 c-0.60 -0.55 -1.20 -1 -1.40 -1 -0.90 0 -5.20 -3.20 -5.20 -3.85 0 -0.50 0.30 -0.65 0.80 -0.45 0.45 0.15 1 0.30 1.25 0.30 0.25 0 0.45 0.35 0.45 0.75 0 0.50 0.50 0.75 1.50 0.75 1 0 1.50 0.25 1.50 0.75 0 0.45 0.45 0.75 1.25 0.75 1.05 0 1.25 0.25 1.25 1.50 0 1.80 0 1.80 -1.40 0.50z"/>
  <path d="M91 46.50 c0 -0.80 0.35 -1 1.85 -1 1.75 0 1.80 0 0.90 1 -0.50 0.55 -1.30 1 -1.85 1 -0.55 0 -0.90 -0.35 -0.90 -1z"/>
  <path d="M82.75 44.25 c-1.10 -0.40 -2.05 -0.75 -2.10 -0.75 -0.10 0 -0.15 -0.55 -0.15 -1.25 l0 -1.25 1.90 0.80 c1 0.45 2.70 1.05 3.75 1.30 2.35 0.65 2.50 1.90 0.25 1.90 -0.90 -0.05 -2.55 -0.35 -3.65 -0.75z"/>
  <path d="M24.15 39.45 c-0.05 -1.15 -0.50 -3.35 -0.95 -4.90 -0.80 -2.45 -6.45 -14.05 -9 -18.40 -1.30 -2.25 -0.45 -3.05 1.85 -1.85 0.95 0.45 1.95 1.15 2.20 1.50 0.75 0.90 12.25 6.75 13.75 6.95 1.50 0.20 7.50 1.30 8.40 1.55 0.75 0.20 0.80 2.90 0.10 4.25 -0.35 0.55 -1.05 0.95 -1.90 0.95 -0.75 0 -2.15 0.15 -3.15 0.30 l-1.85 0.30 0.25 3.10 c0.30 3.50 -0.35 5.30 -1.85 5.30 -0.70 0 -1 0.35 -1 1.20 0 0.95 -0.30 1.20 -1.85 1.50 -1.05 0.15 -2.60 0.30 -3.40 0.30 -1.45 0 -1.55 -0.10 -1.60 -2.05z m5.35 -0.95 c1.15 -0.60 2.50 -3.25 2.50 -4.85 0 -0.65 -0.45 -2.10 -1.05 -3.25 -0.80 -1.50 -0.90 -2.15 -0.45 -2.40 0.45 -0.30 0.35 -0.55 -0.30 -0.95 -0.80 -0.40 -0.55 -0.50 1.45 -0.55 1.30 0 2.50 0 2.70 -0.05 0.85 -0.05 0.65 1 -0.20 1.20 -0.60 0.15 -0.45 0.25 0.45 0.30 0.75 0 1.50 -0.15 1.65 -0.45 0.15 -0.25 0.85 -0.50 1.55 -0.50 2 0 1.35 -1.65 -0.80 -2.05 -2.50 -0.50 -7.55 -1.85 -8.85 -2.45 -0.65 -0.25 -1.15 -0.35 -1.15 -0.20 0 0.15 1.25 0.85 2.80 1.55 3.30 1.50 3.20 2 -0.30 1.10 -2.90 -0.75 -4.50 -2 -4.50 -3.60 0 -0.80 -0.60 -1.40 -2.40 -2.25 -1.30 -0.60 -2.55 -1.10 -2.80 -1.10 -0.20 0 -1 -0.65 -1.80 -1.45 -1.80 -1.80 -3.50 -2.30 -3.50 -1.10 0 0.50 0.45 1.30 0.95 1.75 0.95 0.90 8.05 14.65 8.05 15.65 0 0.30 0.55 0.90 1.25 1.35 1.10 0.75 1.20 1.05 0.95 2.80 -0.30 2 -0.30 2 1.25 2 0.90 0 2.05 -0.20 2.55 -0.50z"/>
  <path d="M68 31.05 c-4.50 -0.40 -4.85 -0.60 -7.75 -4 -1.55 -1.85 -2.25 -3.10 -2.25 -4.15 0 -1.60 1.20 -3.25 1.75 -2.40 0.15 0.25 1.35 0.50 2.65 0.50 3.05 0 4.60 0.45 4.60 1.30 0 0.50 -0.70 0.70 -2.50 0.70 -2.80 0 -3.15 0.60 -1.45 2.40 2.30 2.50 5.05 3.80 8.10 3.80 1.55 0.05 2.85 0.20 2.85 0.40 0 0.15 0.15 0.65 0.30 1.10 0.35 0.90 0.25 0.90 -6.30 0.35z"/>
  <path d="M77.90 28.40 c0.25 -1.05 2.70 -4.35 5.25 -7.15 0.50 -0.55 1.25 -1.60 1.65 -2.35 0.40 -0.75 1.20 -1.70 1.80 -2.15 l1.15 -0.85 -1.50 0.30 c-1.65 0.35 -0.85 -0.30 1.15 -0.90 0.80 -0.25 1.10 -0.15 1.10 0.40 0 0.40 -0.50 1.15 -1.10 1.65 -1.40 1.10 -6.20 7.05 -8.15 10.05 -1.60 2.40 -1.75 2.55 -1.35 1z"/>
  <path d="M67.50 22.30 c0 -0.65 1.40 -1.30 2.90 -1.30 0.30 0 0.60 0.45 0.60 1 0 0.80 -0.35 1 -1.75 1 -1.15 0 -1.75 -0.25 -1.75 -0.70z"/>
  <path d="M79.50 19.10 c0 -0.35 0.85 -0.90 3.15 -2 0.20 -0.10 0.35 0.10 0.35 0.35 0 0.30 -0.35 0.55 -0.75 0.55 -0.45 0 -0.90 0.35 -1.05 0.75 -0.30 0.80 -1.70 1.05 -1.70 0.35z"/>
 </g>
 <g fill="#96becc">
  <path d="M32 99.80 c0 -0.10 0.40 -1.85 0.95 -3.90 0.75 -3.15 0.85 -4.65 0.50 -10.65 -0.35 -6.60 -0.70 -8.75 -1.35 -8.75 -0.30 0 -1.90 0.50 -6.40 2 -1.65 0.55 -3.50 1 -4.10 1 -0.60 0 -1.10 0.25 -1.10 0.55 0 0.25 -0.20 0.40 -0.45 0.20 -0.55 -0.30 -4.05 1.25 -4.05 1.85 0 0.20 -0.55 0.40 -1.25 0.40 -1.75 0 -1.60 -0.50 0.90 -2.85 2.55 -2.50 4.85 -5.30 6.15 -7.50 0.50 -0.90 1.10 -1.65 1.30 -1.65 0.70 0 0.40 3.40 -0.35 4.20 -0.40 0.40 -0.75 0.95 -0.75 1.25 0 0.30 -0.45 0.55 -1 0.55 -0.55 0 -1 0.25 -1 0.55 0 0.40 0.60 0.45 1.90 0.25 1 -0.20 2.80 -0.50 4 -0.65 1.15 -0.15 2.10 -0.45 2.10 -0.65 0 -1.15 5.60 -2.05 6.25 -1.05 0.15 0.30 1.25 0.65 2.45 0.80 2.10 0.35 2.20 0.45 2.50 2.35 l0.30 1.95 1.35 -1 c1.60 -1.30 5.65 -1.50 5.65 -0.30 0 0.40 -0.35 0.75 -0.80 0.75 -0.45 0 -2.15 1.35 -3.75 3.05 -1.60 1.65 -3.10 2.90 -3.35 2.75 -0.25 -0.15 -0.60 -1.55 -0.75 -3.15 -0.30 -2.90 -1.50 -4.65 -3.15 -4.65 -0.85 0 -0.95 2.85 -0.20 5.60 0.35 1.25 0.35 3.50 -0.05 7.25 -0.80 8.10 -0.80 8.15 -0.45 8.15 0.20 0 0.75 -0.50 1.20 -1.10 0.65 -0.85 0.70 -0.90 0.30 -0.15 -0.85 1.75 -1.85 2.75 -2.70 2.75 -0.45 0 -0.80 -0.10 -0.80 -0.20z"/>
  <path d="M66.35 90 c-2.80 -3.20 -5.60 -5.80 -7.75 -7.15 -4.45 -2.90 -4.90 -3.05 -6.10 -1.85 -0.55 0.55 -1.40 1 -1.85 1 -0.45 0 -1.30 0.40 -1.85 0.95 -1.25 1.10 -3.80 2.75 -3.80 2.45 0 -0.30 4.35 -3.45 5.70 -4.15 1.35 -0.70 1.10 -1.45 -0.65 -1.95 -0.85 -0.25 -1.55 -0.80 -1.55 -1.20 0 -0.60 0.50 -0.70 2.65 -0.40 1.40 0.15 3.10 0.30 3.75 0.30 0.65 0 1.10 0.30 1.10 0.75 0 0.40 0.45 0.75 0.95 0.75 0.55 0 1.30 0.35 1.75 0.75 0.40 0.40 1 0.75 1.30 0.75 0.60 0 0.70 0.10 3.65 2.55 1.35 1.15 1.85 1.95 1.85 3 0 1.15 0.20 1.45 1.10 1.45 0.60 0 1.50 0.40 2.05 0.90 0.95 0.80 0.95 0.80 0.70 -0.15 -1.55 -5.10 -1.90 -7.60 -1.70 -12.40 0.30 -6.15 0.75 -8.65 1.65 -9.40 0.40 -0.30 0.70 -1 0.70 -1.50 0 -0.50 0.20 -1 0.45 -1.15 0.25 -0.15 0.60 -0.90 0.75 -1.60 0.35 -1.40 6.85 -8.20 7.80 -8.20 0.25 0 0.50 -0.30 0.50 -0.65 0 -1.15 7.05 -6.85 8.45 -6.85 0.30 0 0.55 -0.35 0.55 -0.75 0 -0.45 -0.45 -0.75 -1.10 -0.75 -2.15 0 -3.40 -0.60 -3.40 -1.55 0 -1.10 -0.45 -1.10 5.75 -0.25 2.70 0.40 5.15 0.60 5.35 0.50 0.20 -0.15 0.40 -0.05 0.40 0.25 0 0.80 -3 3.05 -4.05 3.05 -0.55 0 -1.95 0.90 -3.05 2 -1.15 1.10 -2.45 2 -2.90 2 -0.85 0 -6 4.95 -6 5.80 0 0.30 0.45 1.45 1 2.60 0.55 1.10 1 2.35 1 2.70 0 0.35 -0.55 -0.55 -1.25 -2 -0.80 -1.70 -1.45 -2.55 -1.80 -2.30 -2.60 1.60 -7.45 9.25 -7.45 11.75 0 0.75 -0.35 1.75 -0.80 2.15 -0.70 0.75 -0.70 0.80 0 0.80 0.45 0 0.80 0.25 0.80 0.50 0 0.30 -0.30 0.50 -0.70 0.50 -1.30 0 -1.25 7.15 0.05 11 0.60 1.80 1.15 3.95 1.15 4.80 0 0.80 0.25 1.75 0.55 2.05 0.75 0.75 0.35 2.85 -0.55 3 -0.40 0.05 -2.75 -2.15 -5.15 -4.85z"/>
  <path d="M89 74.70 c-0.70 -0.45 -0.85 -0.65 -0.35 -0.50 1.95 0.60 3.35 0.90 3.35 0.70 0 -0.10 -1.45 -1.40 -3.25 -2.90 -1.80 -1.50 -3.65 -3.30 -4.05 -4 -0.45 -0.70 0.50 0 2.10 1.55 1.65 1.55 3.70 3.30 4.60 3.90 0.85 0.60 1.60 1.35 1.60 1.60 0 0.70 -2.60 0.50 -4 -0.35z"/>
  <path d="M84.15 74.15 c0.45 -0.10 1.25 -0.10 1.75 0 0.45 0.15 0.05 0.25 -0.90 0.25 -0.95 0 -1.35 -0.10 -0.85 -0.25z"/>
  <path d="M23.10 69.65 c0.10 -0.25 0.65 -1.25 1.15 -2.25 0.95 -1.85 0.95 -1.90 0 -2.65 -3.30 -2.50 -5.20 -3.55 -8.85 -5 -2.30 -0.95 -4.15 -1.95 -4.15 -2.35 0 -0.40 1 -0.75 3 -1 1.65 -0.20 3.70 -0.65 4.50 -0.95 1.90 -0.75 5.25 -2.95 5.25 -3.50 0 -0.20 -1.30 -1.60 -2.85 -3.15 l-2.90 -2.80 1.75 0 c2.70 0.05 5.85 3.25 6.25 6.40 0.20 1.30 0.10 2.90 -0.20 3.60 -0.45 1.10 -0.50 1.15 -0.50 0.20 -0.05 -0.55 -0.35 -1.40 -0.70 -1.90 -0.60 -0.80 -0.70 -0.75 -1.80 0.40 l-1.20 1.25 1.35 0.60 c0.70 0.35 1.30 0.80 1.30 1 0 0.75 -2.65 2.45 -3.90 2.45 -1.70 0 -0.75 1.05 2 2.30 1.20 0.50 2.30 1.10 2.45 1.35 0.15 0.25 0.45 -0.50 0.65 -1.60 0.45 -2.75 1.80 -2.85 1.80 -0.10 0 2.95 -0.55 5.05 -1.30 5.05 -0.45 0 -0.70 0.55 -0.70 1.50 0 1.30 -0.20 1.50 -1.30 1.50 -0.70 0 -1.20 -0.15 -1.10 -0.35z m-7.60 -12.15 c-1 -0.65 -2.15 -0.65 -1.75 0 0.15 0.30 0.80 0.50 1.40 0.50 0.90 0 0.95 -0.10 0.35 -0.50z"/>
  <path d="M43.35 59.10 c0.30 -0.20 0.75 -1 0.90 -1.75 0.50 -2 1.75 -1.75 1.75 0.40 0 1.65 -0.10 1.75 -1.60 1.75 -0.95 0 -1.40 -0.20 -1.05 -0.40z"/>
  <path d="M14.65 44.40 c-2.25 -1.60 -2.05 -2.15 0.75 -2.20 3.50 -0.10 7.75 -0.75 8.45 -1.30 1.20 -0.95 -0.55 -7.20 -3.95 -14.10 -1.30 -2.70 -2.60 -5.20 -2.85 -5.50 -0.80 -0.95 -1.60 -3.40 -1.05 -3.05 0.30 0.15 0.50 0.55 0.50 0.85 0 0.30 0.90 1.95 2 3.70 1.10 1.75 2.60 4.50 3.30 6.05 0.70 1.60 1.85 4.05 2.55 5.45 0.70 1.50 1.15 3.15 1.05 4 -0.15 1.40 -0.10 1.45 1.75 1.30 1.40 -0.10 2.30 -0.60 3.40 -1.75 2.05 -2.25 2.25 -3.45 1 -6.65 -0.55 -1.55 -0.90 -3 -0.75 -3.25 0.15 -0.25 -0.50 -0.80 -1.45 -1.20 -0.90 -0.35 -1.95 -1.05 -2.35 -1.45 -0.55 -0.70 -0.45 -0.80 0.55 -0.85 1 -0.05 0.95 -0.10 -0.30 -0.40 -1.65 -0.35 -2.90 -2.60 -1.90 -3.60 0.65 -0.65 2.65 0.45 2.65 1.50 0 0.55 -0.15 0.55 -0.85 0 -0.80 -0.55 -0.80 -0.55 -0.25 0.05 0.35 0.40 2.25 1.55 4.20 2.50 2 0.95 3.65 2 3.75 2.30 0.10 0.30 -0.55 0.80 -1.45 1.10 -1.40 0.45 -1.20 0.50 1.60 0.25 2.10 -0.15 3.45 -0.55 3.90 -1.05 0.85 -1.10 0.75 -2.10 -0.20 -2.10 -0.40 0 -2.35 -0.35 -4.35 -0.80 -2.60 -0.60 -3.35 -0.95 -2.60 -1.20 0.55 -0.20 2.10 -0.05 3.50 0.30 5.80 1.40 6.05 1.40 7.70 -1.20 2.60 -4.10 4.35 -8.70 5.05 -13.10 0.35 -2.35 0.70 -4.55 0.80 -4.85 0.35 -1.25 1.10 -0.60 1.60 1.35 0.25 1.10 0.30 2 0.10 2 -0.20 0 -0.50 0.95 -0.70 2.15 -0.50 4.20 -0.90 5.85 -1.35 5.85 -0.25 0 -0.45 0.45 -0.45 1 0 0.55 -0.20 1 -0.50 1 -0.25 0 -0.50 0.55 -0.50 1.25 0 0.70 -0.20 1.25 -0.50 1.25 -0.25 0 -0.50 0.45 -0.50 1 0 0.65 -0.35 1 -0.95 1 -0.80 0 -1 0.40 -1.15 1.90 -0.10 1.35 -0.45 2 -1.30 2.35 -0.60 0.25 -1.25 0.90 -1.40 1.35 -0.15 0.50 -0.70 0.90 -1.25 0.90 -0.50 0 -0.95 0.30 -0.95 0.70 0 0.80 -1.45 1.25 -4.25 1.35 -1.10 0 -1.70 0.15 -1.35 0.30 0.75 0.30 0.85 7.15 0.10 7.15 -0.25 0 -0.50 0.30 -0.50 0.65 0 1.15 -1.65 2.25 -4.25 2.85 -1.35 0.30 -2.70 0.75 -3 1 -0.25 0.20 -1.60 0.55 -3 0.75 -3.25 0.45 -5.75 1.20 -5.75 1.80 0 0.70 -0.65 0.55 -2.35 -0.65z"/>
  <path d="M77.80 41.75 c-0.40 -0.40 -0.95 -0.75 -1.20 -0.75 -1.05 0 -3.55 -3.95 -3.85 -6.10 -0.35 -2.20 -0.40 -2.30 -2.40 -2.60 -3.75 -0.60 -5.85 -1.35 -5.85 -2.05 0 -0.35 -0.80 -0.95 -1.75 -1.30 -0.95 -0.35 -1.75 -0.90 -1.75 -1.20 0 -0.30 -0.65 -1.30 -1.50 -2.25 -0.80 -0.95 -1.45 -2.15 -1.50 -2.60 0 -0.45 -0.55 -1.40 -1.25 -2.10 -0.85 -0.85 -1.25 -1.80 -1.25 -3.05 l0 -1.75 1.25 0.80 c0.70 0.45 1.20 0.95 1.10 1.05 -0.15 0.10 0.45 0.95 1.30 1.90 1.50 1.70 1.65 1.75 5.30 1.75 5.45 0 12.05 -1.55 18.15 -4.20 2.90 -1.25 5.45 -2.30 5.60 -2.30 0.15 0 0.30 0.35 0.30 0.80 0 0.50 -0.30 0.65 -0.90 0.50 -0.55 -0.20 -2.20 0.25 -3.75 0.95 -2.05 0.95 -2.90 1.65 -3.25 2.75 -0.80 2.20 -5.90 5.30 -10.05 6.05 -3.95 0.70 -5.55 0.15 -5.55 -1.80 0 -1.05 -0.25 -1.25 -1.50 -1.25 -1.50 0 -2.10 1.05 -1 1.75 0.30 0.15 0.50 0.60 0.50 0.90 0 0.35 -0.80 -0.30 -1.80 -1.40 -2.40 -2.70 -1.55 -1.10 1 1.85 1.15 1.30 2.65 2.60 3.40 2.85 1.90 0.65 1.75 0.40 -0.65 -1.15 -1.10 -0.75 -1.95 -1.50 -1.80 -1.60 0.10 -0.15 1.40 0.55 2.90 1.55 2 1.30 3.20 1.75 4.80 1.75 2.35 0 4.15 1.30 4.15 2.95 0 1.85 0.80 1.50 1.40 -0.60 0.35 -1.15 1.10 -2.65 1.65 -3.35 0.75 -1 0.70 -0.65 -0.35 1.75 -1.60 3.60 -1.75 6.80 -0.45 8.25 0.55 0.60 1.80 1.55 2.85 2.10 1.05 0.60 1.90 1.25 1.90 1.50 0 0.70 -3.40 0.45 -4.20 -0.35z"/>
  <path d="M81.50 23.60 c0.35 -0.65 1 -1.65 1.50 -2.25 0.55 -0.60 1.45 -1.85 2.10 -2.80 0.65 -0.95 1.45 -1.80 1.85 -1.95 0.35 -0.10 -0.30 1 -1.50 2.45 -1.20 1.50 -2.70 3.40 -3.35 4.20 -0.85 1.05 -1 1.15 -0.60 0.35z"/>
  <path d="M13.70 15.25 c-0.35 -0.85 0.15 -1.75 0.95 -1.75 0.40 0 0.40 0.15 0 0.55 -0.30 0.30 -0.45 0.90 -0.30 1.25 0.15 0.40 0.10 0.70 -0.05 0.70 -0.20 0 -0.45 -0.35 -0.60 -0.75z"/>
 </g>
 <g fill="#9bd4e1">
  <path d="M66 89.20 c-2.60 -2.85 -4.85 -5.20 -5.05 -5.20 -0.20 0 -0.70 -0.30 -1.05 -0.60 -0.35 -0.35 -1.65 -1.20 -2.90 -1.85 -1.25 -0.70 -2.40 -1.45 -2.55 -1.70 -0.50 -0.70 -10 -0.70 -11.25 0.05 -0.60 0.30 -1.55 1.45 -2.05 2.45 -1.10 2.05 -2.65 2.85 -2.65 1.35 0 -2.30 -1.25 -6.20 -2 -6.20 -0.40 0 -1.25 -0.15 -1.90 -0.30 -1.10 -0.30 -1.10 -0.20 -0.85 1.85 0.20 1.60 0.15 1.95 -0.20 1.20 -0.25 -0.55 -0.50 -1.60 -0.50 -2.35 -0.05 -1.75 -0.70 -2.10 -2.40 -1.25 -0.75 0.40 -3.40 1.25 -5.90 1.85 -2.45 0.60 -5.25 1.40 -6.20 1.80 -0.90 0.40 -2.25 0.80 -2.90 0.95 -1.30 0.20 -1.55 0.50 4.15 -6 0.70 -0.80 2.35 -3.50 3.60 -6 2.30 -4.40 2.35 -4.60 2.30 -9 0 -2.70 -0.25 -5.10 -0.70 -6 -0.35 -0.80 -0.60 -1.75 -0.55 -2.10 0.10 -0.80 -3.45 -4.05 -6.20 -5.65 -3.25 -1.90 -4.55 -2.85 -4.25 -3.15 0.30 -0.30 1.60 -0.60 7 -1.55 2.80 -0.45 3.25 -0.70 3.55 -1.80 0.20 -0.75 0.35 -0.90 0.40 -0.40 0.10 1.65 5.45 0 6.30 -2 0.25 -0.60 0.65 -1.10 0.85 -1.10 0.55 0 0.50 -3.35 -0.05 -4.40 -0.20 -0.45 -0.55 -1.40 -0.70 -2.10 -0.30 -1.20 -0.25 -1.25 1.85 -1.10 3.85 0.30 8.15 -2.50 5.95 -3.90 -0.75 -0.45 -0.60 -0.50 0.80 -0.40 1.85 0.15 2.30 -0.40 5.05 -6.10 2.65 -5.40 3 -6.60 3.35 -11.35 0.15 -1.75 0.40 -3.15 0.60 -3.15 0.20 0 1.45 2.30 2.80 5.10 2.30 4.65 4.05 7.35 6.70 10.30 0.60 0.60 1.05 1.65 1.05 2.30 0 1.55 3.80 6.20 6.05 7.35 1 0.50 3.30 1.15 5.10 1.50 l3.25 0.60 0.35 2.25 c0.50 3.45 2.70 5.80 7.65 8.25 2.75 1.35 4.90 2.10 6.15 2.10 1.10 0 1.95 0.15 1.95 0.40 0 0.20 0.40 0.35 0.90 0.30 0.45 -0.10 1.50 0 2.30 0.25 1 0.25 1.60 0.15 1.85 -0.30 0.30 -0.40 0.45 -0.45 0.45 -0.10 0 0.30 -0.35 0.85 -0.75 1.20 -0.40 0.35 -0.75 0.45 -0.75 0.20 0 -0.25 -0.35 0.10 -0.80 0.70 -0.40 0.60 -1 1 -1.25 0.80 -0.75 -0.45 -8.35 4.85 -10.60 7.35 -1.40 1.50 -1.85 2.45 -1.70 3.25 0.10 0.65 0 1.05 -0.20 0.90 -0.25 -0.15 -0.45 -0.60 -0.45 -1 0 -1.15 -5.90 4.95 -6.30 6.50 -0.15 0.70 -0.50 1.45 -0.75 1.60 -0.25 0.15 -0.45 0.65 -0.45 1.15 0 0.50 -0.35 1.20 -0.80 1.60 -0.50 0.40 -0.65 1.05 -0.45 1.80 0.15 0.70 0 1.45 -0.40 1.90 -1.15 1.10 -1.10 8.05 0.05 12.10 3.15 11 2.45 11.85 -3.90 4.85z m-10.75 -21.05 c5.45 -1.60 10.85 -6.05 13.35 -10.85 0.85 -1.65 1 -2.65 0.80 -6.05 -0.40 -7.25 -3.90 -12.85 -9.90 -15.85 -2.55 -1.25 -3.10 -1.30 -7.25 -1.05 -7.70 0.45 -10.95 1.80 -16.15 6.70 -1.85 1.75 -2.60 2.90 -3.05 4.75 -0.35 1.35 -0.90 3.10 -1.15 3.85 -0.80 2.05 0.40 6.45 2.70 9.90 2.65 3.90 6.65 6.90 11.60 8.55 4.30 1.45 4.40 1.45 9.05 0.05z"/>
  <path d="M86.75 70.10 c-0.55 -0.50 -1.45 -1.45 -2 -2.10 -0.55 -0.70 0 -0.35 1.15 0.75 1.90 1.75 2.35 2.30 2 2.25 -0.10 -0.05 -0.60 -0.45 -1.15 -0.90z"/>
  <path d="M21.50 58.25 c0 -1 0.25 -1.25 1.25 -1.25 1.50 0 1.70 1.25 0.30 2 -1.40 0.70 -1.55 0.65 -1.55 -0.75z"/>
  <path d="M22.10 31.25 c-0.85 -1.85 -0.70 -2.25 0.20 -0.60 0.45 0.80 0.70 1.55 0.55 1.65 -0.10 0.10 -0.45 -0.35 -0.75 -1.05z"/>
  <path d="M28.50 26.10 c-1.50 -0.70 -3.85 -3.90 -3.30 -4.45 0.10 -0.10 1.55 0.60 3.25 1.60 1.70 1 3.75 2.05 4.55 2.35 0.85 0.25 1.50 0.70 1.50 0.95 0 0.80 -4.15 0.50 -6 -0.45z"/>
  <path d="M65.90 25.60 c-0.95 -0.20 -1.30 -2.10 -0.40 -2.10 1.20 0 0.35 -1 -0.85 -1.05 l-1.40 -0.05 1.25 -0.40 c0.70 -0.20 2.05 -0.40 3 -0.40 1.10 0.05 1.30 0.10 0.65 0.25 -1.40 0.25 -1.50 1.15 -0.20 1.15 0.55 0 1.05 0.25 1.15 0.60 0.15 0.45 0.75 0.45 2.55 -0.05 1.30 -0.40 2.35 -0.85 2.35 -1.10 0 -0.25 0.55 -0.55 1.25 -0.75 0.70 -0.15 1.25 -0.60 1.25 -0.95 0 -0.95 1.05 -1.20 2.40 -0.60 1.45 0.65 1.40 1.25 -0.25 2 -0.80 0.30 -1.50 0.70 -1.65 0.85 -1.45 1.70 -8 3.75 -8 2.55 0 -0.60 -1.85 -0.75 -2.10 -0.15 -0.05 0.20 -0.55 0.30 -1 0.20z"/>
  <path d="M60.35 22.15 c-0.60 -0.60 -0.35 -1.10 0.40 -0.85 0.40 0.20 0.75 0.50 0.75 0.75 0 0.55 -0.70 0.60 -1.15 0.10z"/>
 </g>
 <g fill="#aecdd6">
  <path d="M33.65 86.25 c0 -1.10 0.10 -1.50 0.20 -0.85 0.10 0.60 0.10 1.50 0 2 -0.15 0.45 -0.25 -0.05 -0.20 -1.15z"/>
  <path d="M38.05 80.95 c-0.35 -1.15 -0.50 -2.20 -0.35 -2.35 0.15 -0.15 0.30 0 0.30 0.35 0 0.35 0.20 0.50 0.45 0.30 0.25 -0.15 0.45 0.40 0.45 1.15 -0.05 0.80 0.10 1.70 0.30 2.05 0.20 0.30 0.15 0.55 -0.10 0.55 -0.25 0 -0.70 -0.90 -1.05 -2.05z"/>
  <path d="M33.30 79.95 c-0.50 -2.60 -0.35 -3.45 0.60 -3.45 0.60 0 0.65 0.15 0.25 0.40 -0.45 0.30 -0.55 1.10 -0.35 2.50 0.35 2.45 -0.05 2.85 -0.50 0.55z"/>
  <path d="M45 78.75 c1.40 -0.80 3 -0.95 3 -0.30 0 0.50 -1.75 1.05 -3.25 1.05 -0.90 -0.05 -0.85 -0.10 0.25 -0.75z"/>
  <path d="M22 63 c-0.95 -0.85 -1.30 -1.35 -0.75 -1.05 0.95 0.45 3.15 2.55 2.70 2.55 -0.15 0 -1 -0.70 -1.95 -1.50z"/>
  <path d="M79.75 59.55 c-0.45 -1.10 -0.75 -2.25 -0.60 -2.65 0.20 -0.40 0.30 -0.35 0.30 0.25 0.05 0.50 0.40 1.60 0.85 2.40 0.40 0.85 0.70 1.65 0.55 1.75 -0.10 0.10 -0.60 -0.65 -1.10 -1.75z"/>
  <path d="M41.50 60.20 c0 -0.40 0.25 -0.60 0.55 -0.45 0.25 0.20 1.05 -0.30 1.75 -1.10 l1.20 -1.40 0 1.90 c0 1.80 -0.05 1.85 -1.75 1.85 -1.25 0 -1.75 -0.20 -1.75 -0.80z"/>
  <path d="M75 60.80 c0 -0.55 1.50 -1.95 1.80 -1.70 0.10 0.15 -0.25 0.65 -0.80 1.15 -0.55 0.50 -1 0.75 -1 0.55z"/>
  <path d="M18.30 58.75 c-1.35 -1.05 -0.75 -1.40 2.70 -1.65 3.15 -0.25 3.65 0.15 2.10 1.55 -1.15 1.05 -3.50 1.05 -4.80 0.10z"/>
  <path d="M38 56.50 c0 -1.65 0.15 -2 1 -2 0.85 0 1 0.35 1 2 0 1.65 -0.15 2 -1 2 -0.85 0 -1 -0.35 -1 -2z"/>
  <path d="M57.85 56.65 c-0.20 -0.15 -0.35 -0.75 -0.35 -1.25 0 -0.50 -0.35 -0.90 -0.75 -0.90 -0.55 0 -0.75 -0.55 -0.75 -2 0 -1.65 0.15 -2 1 -2 0.80 0 1 0.35 1 1.75 0 1.25 0.30 1.90 1.15 2.35 2.15 1.20 3.35 0.25 3.35 -2.70 0 -1.60 -0.20 -1.95 -1.25 -2.20 -1.80 -0.45 -1.60 -1.70 0.30 -1.70 2.70 0 3.40 1.55 2.65 6.15 -0.20 1.10 -0.60 1.85 -1 1.85 -0.40 0 -0.70 0.25 -0.70 0.50 0 0.55 -4.15 0.70 -4.65 0.15z"/>
  <path d="M44.50 55.80 c0 -0.40 -0.55 -1.15 -1.25 -1.70 -1.70 -1.35 -1.55 -1.70 0.65 -1.50 1.75 0.15 1.85 0.25 2 2.05 0.10 1.40 0 1.85 -0.60 1.85 -0.45 0 -0.80 -0.30 -0.80 -0.70z"/>
  <path d="M21 54.50 c0.40 -0.30 1.20 -0.80 1.75 -1.10 1 -0.55 1 -0.55 0.05 0.55 -0.55 0.55 -1.30 1.05 -1.75 1.05 -0.70 0 -0.70 -0.10 -0.05 -0.50z"/>
  <path d="M14.35 44.15 c-0.60 -0.55 -0.40 -1 0.55 -1.25 0.60 -0.20 0.90 0.05 0.95 0.65 0.10 0.95 -0.85 1.30 -1.50 0.60z"/>
  <path d="M22 43 c0 -0.30 0.55 -0.40 1.40 -0.20 1.95 0.50 2 0.70 0.20 0.70 -0.90 0 -1.60 -0.25 -1.60 -0.50z"/>
  <path d="M16.65 42.70 c0.40 -0.40 3.35 -0.55 3.35 -0.20 0 0.25 -0.80 0.40 -1.80 0.40 -0.95 0 -1.70 -0.10 -1.55 -0.20z"/>
  <path d="M20.95 42.40 c0.35 -0.50 1.20 -0.90 1.85 -0.90 0.65 0 1.40 -0.40 1.70 -0.85 0.50 -0.80 0.50 -0.80 0.40 0.10 -0.10 0.70 -0.60 1.05 -1.65 1.15 -0.85 0.10 -1.85 0.45 -2.25 0.75 -0.65 0.50 -0.65 0.50 -0.05 -0.25z"/>
  <path d="M23.80 36.40 c-1.95 -6.15 -1.85 -5.80 -1.05 -4.70 0.40 0.55 0.75 1.25 0.75 1.60 0 0.30 0.50 1.15 1.05 1.90 0.85 1.10 1 1.65 0.65 2.85 -0.45 1.45 -0.50 1.40 -1.40 -1.65z"/>
  <path d="M32.15 36.25 c0.60 -0.55 0.65 -1.15 0.25 -2.60 -1.15 -4.65 -1.20 -4.60 0.55 -2.70 1.15 1.20 1.45 1.80 1.05 2.25 -0.25 0.35 -0.35 0.75 -0.20 0.95 0.35 0.35 -1.25 2.85 -1.90 2.85 -0.25 0 -0.15 -0.35 0.25 -0.75z"/>
  <path d="M28.75 26.05 c-1.85 -0.85 -3.80 -3.20 -3.15 -3.85 0.20 -0.15 1.15 0.25 2.25 0.90 1.05 0.65 2.85 1.60 4.05 2.10 1.15 0.55 2.10 1.15 2.10 1.40 0 0.70 -3.20 0.40 -5.25 -0.55z"/>
  <path d="M66.05 25.55 c-0.45 -0.30 -0.55 -0.90 -0.35 -1.70 0.30 -1.25 0.25 -1.30 -2.55 -1.45 -1.55 -0.10 -2.90 -0.35 -3 -0.65 -0.10 -0.30 1.80 -0.50 5 -0.50 2.80 0 5.75 -0.20 6.50 -0.40 0.95 -0.25 1.35 -0.20 1.10 0.15 -0.15 0.25 -0.75 0.50 -1.30 0.50 -0.50 0 -0.95 0.25 -0.95 0.55 0 0.35 0.55 0.40 1.65 0.15 0.85 -0.20 1.90 -0.35 2.20 -0.35 0.35 0 0.75 -0.40 0.90 -0.90 0.30 -0.90 2.35 -1.50 3.25 -0.95 0.90 0.55 -0.20 2 -2.70 3.55 -3.25 2.15 -8 3.10 -9.75 2z m3.95 -3.10 c0 -0.25 -0.65 -0.45 -1.50 -0.45 -0.90 0 -1.50 0.25 -1.50 0.65 0 0.45 0.50 0.60 1.50 0.45 0.85 -0.10 1.50 -0.40 1.50 -0.65z"/>
  <path d="M37.50 24.85 c-1.25 -0.30 -1.90 -0.60 -1.50 -0.70 1.05 -0.25 4.85 0.60 4.25 0.90 -0.30 0.15 -1.50 0.05 -2.75 -0.20z"/>
  <path d="M31.75 23.50 l-1 -0.45 1 0 c0.55 0 1.45 0.20 2 0.45 l1 0.45 -1 0 c-0.55 0 -1.45 -0.20 -2 -0.45z"/>
 </g>
 <g fill="#addced">
  <path d="M65.25 88.50 c-0.80 -0.80 -1.35 -1.55 -1.20 -1.65 0.10 -0.10 0.85 0.55 1.60 1.50 1.80 2.05 1.55 2.15 -0.40 0.15z"/>
  <path d="M38.35 82.40 c-0.15 -1.45 -0.05 -2.85 0.15 -3.10 0.25 -0.25 0.40 0.30 0.40 1.15 -0.05 2.10 0.75 2.95 1.95 2 0.60 -0.50 0.50 -0.20 -0.30 0.95 -0.60 0.85 -1.30 1.60 -1.50 1.60 -0.25 0 -0.55 -1.20 -0.70 -2.60z"/>
  <path d="M15.45 80.30 c0.70 -0.75 1.30 -1.30 1.40 -1.30 0.45 0 -1.20 2 -1.85 2.25 -0.40 0.20 -0.20 -0.25 0.45 -0.95z"/>
  <path d="M39.50 78.75 c0 -1.40 0.30 -1.55 1.25 -0.55 0.50 0.50 0.55 0.80 0.10 1.25 -0.90 0.90 -1.35 0.65 -1.35 -0.70z"/>
  <path d="M45 78.75 c1.35 -0.75 5.05 -1.05 4.20 -0.30 -0.25 0.20 -1.55 0.55 -2.95 0.70 -2.35 0.30 -2.45 0.30 -1.25 -0.40z"/>
  <path d="M19 76.20 c0.40 -0.50 1.10 -1.35 1.55 -1.80 0.45 -0.50 1.30 -2.05 1.95 -3.40 0.65 -1.40 1.35 -2.50 1.55 -2.50 0.20 0 0.10 0.60 -0.30 1.40 -0.80 1.70 -1.35 4.10 -0.95 4.10 0.15 0 0.70 -0.50 1.20 -1.10 0.90 -1.15 0.90 -1.10 0.35 1.30 -0.60 2.65 -1.55 3.40 -2.55 2 -0.65 -0.85 -0.75 -0.85 -2.10 0.05 -1.40 0.90 -1.45 0.90 -0.70 -0.05z"/>
  <path d="M44.70 69.60 c-8.75 -2.95 -14.70 -10.30 -14.70 -18.20 0 -1.30 0.20 -2.85 0.45 -3.50 0.25 -0.65 0.75 -2.25 1.10 -3.60 0.45 -1.85 1.20 -3 3.05 -4.75 5.45 -5.15 8.65 -6.40 17.65 -6.80 5.70 -0.30 5.95 -0.30 8.65 1.10 1.55 0.75 3.65 2.20 4.70 3.20 2.35 2.25 4.90 7.55 5.25 11.15 0.25 2.55 0.20 2.80 -0.70 2.80 -0.75 0 -1.10 -0.60 -1.60 -3.05 -0.40 -1.70 -1.10 -3.95 -1.65 -5 -0.50 -1.05 -0.90 -2.35 -0.90 -2.95 0 -0.55 -0.35 -1 -0.80 -1 -0.40 0 -1.70 -0.65 -2.85 -1.40 -3.75 -2.55 -6.40 -3.30 -10.75 -2.95 -5.75 0.50 -9.15 1.85 -13.35 5.30 -1.35 1.15 -2.85 2.05 -3.30 2.05 -0.60 0 -0.90 0.55 -1.10 2.15 -0.15 1.15 -0.50 3 -0.85 4.10 -1 3.35 -1.15 4.75 -0.55 4.75 0.30 0 0.55 0.45 0.55 1 0 2.60 3 6.95 7.10 10.25 2.65 2.15 3.20 2.40 7.80 3.80 2.85 0.85 3.85 1 4.75 0.55 0.60 -0.30 2.25 -0.90 3.65 -1.30 3.25 -0.90 4.35 -1.55 6.90 -4.10 3.70 -3.65 5.80 -6.85 5.80 -8.95 0 -0.90 0.25 -1.25 1 -1.25 0.85 0 1 0.35 1 2 0 5.35 -6.85 12.40 -14.25 14.70 -4.85 1.50 -7.45 1.45 -12.05 -0.10z"/>
  <path d="M24.75 66.50 c0.40 -0.80 0.95 -2.30 1.20 -3.35 0.35 -1.50 0.50 -1.70 0.80 -1 0.40 1 -1.55 5.85 -2.35 5.85 -0.25 0 -0.10 -0.65 0.35 -1.50z"/>
  <path d="M11.85 58.15 c-0.55 -0.55 -0.40 -1.65 0.25 -1.65 0.30 0 0.40 0.15 0.25 0.35 -0.20 0.15 -0.10 0.60 0.20 1 0.55 0.65 -0.10 0.95 -0.70 0.30z"/>
  <path d="M19.50 55.40 c0.15 -0.10 1.15 -0.75 2.25 -1.35 1.75 -1 1.90 -1 1 -0.15 -0.55 0.55 -1.55 1.15 -2.25 1.35 -0.70 0.20 -1.15 0.25 -1 0.15z"/>
  <path d="M24.65 53.55 c-0.30 -0.50 -0.40 -1.15 -0.15 -1.50 0.25 -0.45 0.50 -0.20 0.70 0.70 0.45 1.70 0.20 2 -0.55 0.80z"/>
  <path d="M14.45 44.05 l-1.70 -1.45 1.40 0.25 c0.75 0.15 1.60 0.70 1.90 1.25 0.80 1.55 0.30 1.50 -1.60 -0.05z"/>
  <path d="M22 43.65 c0 -0.95 0.20 -1.05 1.90 -0.80 2.35 0.35 2.70 0.65 0.80 0.65 -0.85 0 -1.75 0.25 -2.10 0.60 -0.45 0.45 -0.60 0.35 -0.60 -0.45z"/>
  <path d="M19 42.55 c0.40 -0.30 0.90 -0.35 1.10 -0.20 0.25 0.10 0.85 -0.05 1.30 -0.45 0.75 -0.60 0.80 -0.55 0.15 0.25 -0.35 0.45 -1.25 0.85 -2 0.85 -1 0 -1.10 -0.15 -0.55 -0.45z"/>
  <path d="M24 41.25 c0.60 -0.75 0.50 -2.95 -0.30 -5.75 -0.35 -1.10 -0.30 -1.20 0.45 -0.55 0.60 0.45 0.85 1.45 0.85 3.15 0 2.15 0.10 2.45 0.90 2.20 0.60 -0.20 0.50 0 -0.35 0.70 -1.35 1.15 -2.45 1.35 -1.55 0.25z"/>
  <path d="M32.55 35.90 c0.50 -1.15 0.40 -1.85 -0.50 -4.20 -1.25 -3.35 -1.10 -3.95 0.45 -1.50 1.10 1.85 1.60 2.25 1.40 1.20 -0.10 -0.30 0.25 -0.70 0.75 -0.80 0.70 -0.15 0.85 0.20 0.85 1.65 0 1.50 -0.15 1.75 -0.65 1.30 -0.75 -0.60 -1.40 -0.25 -1.05 0.60 0.10 0.35 -0.25 1.15 -0.80 1.85 l-1.05 1.25 0.60 -1.35z"/>
  <path d="M42.75 22.90 c1.05 -1.85 2.70 -5.20 4.25 -8.65 0.60 -1.40 1.05 -3.50 1.45 -7.25 l0.40 -3.25 0.05 3.35 c0.05 1.85 0.35 3.50 0.60 3.65 0.90 0.55 0.60 5.85 -0.50 7.65 -1.25 2.05 -1.50 2 -1.15 -0.25 l0.30 -1.90 -1.25 1.50 c-0.65 0.85 -1.60 2.30 -2 3.25 -0.75 1.60 -2.65 4 -3.15 4 -0.10 0 0.35 -0.95 1 -2.10z"/>
  <path d="M60.20 21.95 c-0.15 -0.25 0.30 -0.45 1 -0.45 1.55 0 1.70 0.30 0.30 0.65 -0.55 0.15 -1.15 0.05 -1.30 -0.20z"/>
 </g>
 <g fill="#c2e3ee">
  <path d="M33.65 82.50 c0 -1.50 0.10 -2.15 0.20 -1.35 0.10 0.75 0.10 1.95 0 2.75 -0.10 0.75 -0.20 0.10 -0.20 -1.40z"/>
  <path d="M39.60 76.65 c0.10 -0.50 0.50 -0.90 0.90 -0.90 0.40 0 0.80 0.40 0.90 0.90 0.10 0.60 -0.15 0.85 -0.90 0.85 -0.75 0 -1 -0.25 -0.90 -0.85z"/>
  <path d="M22 76 c0 -0.60 0.90 -1.95 2 -3 3.20 -3.15 4.75 -2.40 2.25 1.05 -2.20 2.95 -4.25 3.90 -4.25 1.95z"/>
  <path d="M48.40 70.25 c-0.15 -0.15 -1.75 -0.70 -3.55 -1.25 -6.10 -1.70 -13.35 -9.05 -13.35 -13.55 0 -0.95 -0.10 -1.05 -0.50 -0.45 -0.65 1 -0.65 -5.25 0 -6.50 0.25 -0.50 0.55 -1.60 0.60 -2.45 0.05 -0.85 0.30 -1.55 0.55 -1.55 0.25 0 0.30 -0.45 0.10 -0.95 -0.30 -1.05 0.65 -3.05 1.50 -3.05 0.30 0 1.65 -0.90 3 -2.05 3.60 -3 6.85 -4.45 11.65 -5.20 1.90 -0.30 2.10 -0.25 2.10 0.70 0 0.60 -0.30 1.05 -0.65 1.05 -1.85 0 -7.70 2.30 -9.65 3.80 -1.20 0.95 -2.45 1.70 -2.70 1.70 -0.30 0 -0.50 0.25 -0.50 0.55 0 0.30 -0.85 1.90 -1.85 3.55 -1.75 2.85 -1.85 3.20 -1.80 6.95 0.10 4.75 0.80 6.40 4.15 9.85 1.40 1.35 2.50 2.75 2.50 3.05 0 0.30 0.45 0.55 0.95 0.55 0.55 0 1.10 0.20 1.30 0.45 0.15 0.25 1.85 0.95 3.75 1.55 3.55 1.10 7.15 1.10 9.75 0.05 0.55 -0.25 1.95 -0.85 3.15 -1.35 2.50 -1 7.10 -5.70 8.70 -8.85 1.85 -3.70 1.20 -8.60 -2 -14.60 -0.75 -1.35 -1.85 -2.95 -2.50 -3.55 -1.50 -1.35 -5.85 -3.70 -6.85 -3.70 -0.40 0 -0.75 -0.45 -0.75 -1 0 -1.25 1.25 -1.30 4.10 -0.15 4.45 1.75 7.15 4 8.55 7.05 3 6.70 3.55 13.90 1.35 17.80 -3.10 5.60 -8.50 9.85 -13.50 10.65 -0.70 0.10 -1.45 0.40 -1.70 0.70 -0.50 0.45 -5.45 0.65 -5.90 0.20z"/>
  <path d="M39.50 59.25 l0 -1.70 1.35 1.25 c1.60 1.50 2.20 1.35 3.15 -0.70 1 -2.15 2 -2.05 2 0.15 0 1.60 -0.10 1.75 -1.50 1.75 -0.80 0 -1.50 0.25 -1.50 0.50 0 0.30 -0.80 0.50 -1.75 0.50 -1.65 0 -1.75 -0.10 -1.75 -1.75z"/>
  <path d="M19.25 58.45 c-0.45 -0.70 -0.20 -0.90 1.55 -1.20 0.80 -0.15 1.80 -0.05 2.20 0.25 0.65 0.45 0.65 0.55 0 1 -1 0.65 -3.35 0.65 -3.75 -0.05z"/>
  <path d="M22.90 44.65 c-0.50 -0.10 -0.90 -0.70 -0.90 -1.25 0 -0.70 0.25 -0.90 0.80 -0.70 0.45 0.15 1.35 0.30 2 0.30 1.35 0 1.65 1.20 0.40 1.70 -0.85 0.30 -0.95 0.30 -2.30 -0.05z"/>
  <path d="M67.85 34.15 c-1.15 -1.10 0.70 -2.65 1.95 -1.60 0.55 0.45 0.55 0.75 0.15 1.25 -0.60 0.75 -1.55 0.90 -2.10 0.35z"/>
  <path d="M34.60 33.35 c-0.95 -1.25 -1.10 -2.40 -0.35 -2.65 0.95 -0.40 2.25 0.65 2.25 1.80 0 1.10 -1.25 1.65 -1.90 0.85z"/>
  <path d="M28.65 25.75 c-1.35 -0.60 -2.65 -2.05 -2.65 -3 0 -0.45 4.90 2.25 5.55 3.10 0.75 0.90 -0.75 0.85 -2.90 -0.10z"/>
  <path d="M68 24.25 c0 -0.40 0.65 -0.80 1.65 -1 4.65 -0.80 6.90 -0.25 4.30 1.10 -1.75 0.90 -5.95 0.85 -5.95 -0.10z"/>
  <path d="M47 23.50 c0 -0.50 0.20 -2.05 0.45 -3.35 0.25 -1.30 0.75 -3.90 1.10 -5.75 0.35 -1.90 0.80 -3.40 0.95 -3.40 0.60 0 0.95 6.15 0.50 8.60 -0.70 3.55 -3 6.60 -3 3.90z"/>
  <path d="M61.40 21.65 c0.60 -0.10 1.50 -0.10 2 0 0.45 0.15 -0.05 0.25 -1.15 0.20 -1.10 0 -1.50 -0.10 -0.85 -0.20z"/>
 </g>
 <g fill="#d5eef0">
  <path d="M39.50 78 c0 -1.65 0.15 -2 1 -2 0.75 0 1 0.35 1 1.40 0 1.35 -0.75 2.60 -1.60 2.60 -0.20 0 -0.40 -0.90 -0.40 -2z"/>
  <path d="M22.60 75.45 c0.15 -1.15 3.70 -4.35 4.20 -3.85 0.65 0.70 -2.50 4.90 -3.65 4.90 -0.45 0 -0.65 -0.40 -0.55 -1.05z"/>
  <path d="M48.75 69.80 c-0.25 -0.15 -2.10 -0.70 -4 -1.25 -3.80 -1.15 -6.90 -3.35 -10.05 -7.10 -2.50 -3 -2.80 -3.95 -2.85 -9.95 l-0.10 -5.30 2.05 -3.40 c3.95 -6.45 10.20 -9.55 19.30 -9.55 4.35 0 5.10 0.15 7.55 1.40 3.55 1.90 4.85 3.10 6.45 6.10 2.30 4.35 3.10 7.25 3.10 11.50 0 4.80 -0.85 6.75 -4.90 11.10 -2.45 2.65 -3.45 3.30 -8.05 5.20 -1.60 0.65 -7.70 1.55 -8.50 1.25z m-5.05 -10.75 c0.60 -0.65 0.80 -1.60 0.70 -2.85 -0.10 -1.60 -0.40 -2 -1.55 -2.40 -1.05 -0.40 -1.55 -0.30 -2.20 0.35 -1.20 1.20 -1.05 3.80 0.30 4.95 1.45 1.15 1.70 1.15 2.75 -0.05z m17.90 -4.15 c1 -0.85 1.55 -3.85 0.85 -4.70 -0.70 -0.85 -3.15 -0.90 -3.85 -0.05 -1.10 1.35 -1.10 2.70 -0.05 4 1.15 1.50 1.85 1.65 3.05 0.75z"/>
  <path d="M19.30 58.75 c-1.20 -0.90 -1 -1.10 0.95 -1.30 3.40 -0.25 4.30 0.40 2 1.45 -1.60 0.75 -1.80 0.75 -2.95 -0.15z"/>
  <path d="M22.90 44.65 c-0.70 -0.20 -1.30 -1.10 -0.75 -1.15 2.30 -0.45 5.35 -0.45 5.35 -0.05 0 0.25 -0.15 0.60 -0.35 0.70 -0.75 0.45 -3.40 0.75 -4.25 0.50z"/>
  <path d="M68.10 33.15 c0.20 -1.05 1.65 -1.25 1.65 -0.15 0 0.40 -0.40 0.80 -0.90 0.90 -0.70 0.15 -0.90 -0.05 -0.75 -0.75z"/>
  <path d="M34.35 33.15 c-0.60 -0.60 -0.35 -2.15 0.35 -2.15 0.90 0 1.95 1.35 1.55 2 -0.35 0.55 -1.40 0.65 -1.90 0.15z"/>
  <path d="M28.60 25.75 c-1.55 -0.65 -2.55 -2 -1.95 -2.55 0.15 -0.15 1.30 0.30 2.55 1.05 3.40 2 2.95 3.05 -0.60 1.50z"/>
  <path d="M67.10 25.35 c-1.50 -0.85 -0.55 -1.85 1.90 -1.85 0.95 -0.05 2.70 -0.25 3.90 -0.45 3.90 -0.75 3.10 0.70 -1.10 2.15 -2.90 0.95 -3.20 0.95 -4.70 0.15z"/>
  <path d="M47.45 23 c-0.05 -0.40 0 -0.95 0.05 -1.25 0.10 -0.25 0.10 -0.90 0.10 -1.35 0 -0.50 0.35 -0.90 0.80 -0.95 0.45 0 0.60 -0.15 0.35 -0.25 -0.30 -0.10 -0.45 -1.05 -0.35 -2.10 0.20 -2.35 0.55 -3.35 0.95 -2.90 0.55 0.50 0.65 3.75 0.15 4.05 -0.30 0.15 -0.30 0.75 0 1.50 0.40 1 0.25 1.50 -0.75 2.60 -0.85 1 -1.25 1.20 -1.30 0.65z"/>
 </g>
 <g fill="#ecf8f8">
  <path d="M19.85 58.70 c-0.75 -0.75 -0.30 -1.20 1.20 -1.20 1 0 1.45 0.20 1.35 0.65 -0.25 0.70 -2 1.05 -2.55 0.55z"/>
  <path d="M36.35 48.45 c-0.60 -2.25 2.45 -6.45 4.75 -6.45 0.75 0 1.40 0.10 1.40 0.15 0 0.10 -0.85 1.75 -1.90 3.65 -2 3.70 -3.70 4.75 -4.25 2.65z"/>
  <path d="M44.75 39.40 c0.10 -1.65 2.45 -1.65 2.65 0 0.15 0.90 -0.05 1.10 -1.30 1.10 -1.20 0 -1.40 -0.20 -1.35 -1.10z"/>
  <path d="M67.25 25 c-0.40 -0.70 1.90 -1.50 4.30 -1.50 2.40 0 2.50 0.60 0.30 1.40 -2.05 0.75 -4.20 0.80 -4.60 0.10z"/>
 </g>
</svg>