<?xml version="1.0" encoding="utf-8"?>
<!DOCTYPE svg PUBLIC "-//W3C//DTD SVG 1.0//EN" "http://www.w3.org/TR/2001/REC-SVG-20010904/DTD/svg10.dtd">
<svg version="1.0" xmlns="http://www.w3.org/2000/svg" width="40px" height="40px" viewBox="0 0 40 40" preserveAspectRatio="xMidYMid meet">
 <g fill="#02000d">
  <path d="M8.50 39.25 c0 -0.40 0.25 -0.75 0.50 -0.75 0.30 0 0.50 0.35 0.50 0.75 0 0.40 -0.20 0.75 -0.50 0.75 -0.25 0 -0.50 -0.35 -0.50 -0.75z"/>
 </g>
 <g fill="#110033">
  <path d="M3.75 33 c1 -1.10 1.55 -1 1.10 0.25 -0.20 0.40 -0.70 0.75 -1.15 0.75 -0.80 0 -0.80 -0.10 0.05 -1z"/>
  <path d="M26.90 30.15 c-0.80 -0.10 -1.40 -0.45 -1.40 -0.70 0 -0.25 -0.25 -0.45 -0.55 -0.45 -1.15 0 -2.05 -1.55 -1.85 -3.25 0.15 -1.30 0 -1.75 -0.70 -1.90 -0.70 -0.20 -0.90 -0.75 -0.90 -2.25 0 -1.60 0.20 -2.05 1.05 -2.25 1 -0.25 1.05 -0.50 0.70 -4.05 l-0.35 -3.80 1.80 0 c1.45 0 1.80 0.20 1.80 1 0 0.55 0.25 1 0.50 1 0.95 0 0.55 3.05 -0.50 3.90 -1.10 0.90 -2.10 5.05 -1.10 4.40 0.35 -0.20 0.65 -1.10 0.65 -1.95 0.05 -0.90 0.15 -1.20 0.30 -0.70 0.10 0.45 0.45 0.85 0.70 0.85 0.25 0 0.45 0.80 0.45 1.75 0 0.95 0.20 1.75 0.45 1.75 0.25 0 0.55 0.60 0.65 1.35 0.10 1 0.50 1.45 1.40 1.65 1.05 0.20 1.30 0.60 1.40 2.15 0.15 1.80 0.10 1.85 -1.50 1.80 -0.90 -0.05 -2.25 -0.20 -3 -0.30z m-0.15 -4.55 c-0.25 -0.70 -0.35 -0.70 -1.05 0 -0.70 0.70 -0.70 0.90 0.15 1.85 l0.90 1.10 0.15 -1.05 c0.10 -0.60 0.05 -1.45 -0.15 -1.90z"/>
  <path d="M10.85 19.15 c-0.55 -0.55 -0.40 -6 0.25 -8.40 0.55 -2.10 0.75 -2.25 2.20 -2.25 1.95 0 2.15 0.25 2.55 3.45 0.20 1.80 0.05 2.75 -0.55 3.60 -0.45 0.65 -0.80 1.80 -0.80 2.55 0 1.25 -0.20 1.40 -1.65 1.40 -0.95 0 -1.85 -0.15 -2 -0.35z"/>
  <path d="M21.50 9.05 c0 -1.95 0.45 -3.05 1.30 -3.05 0.40 0 0.70 -0.35 0.70 -0.75 0 -0.80 1.80 -1 3.90 -0.45 0.85 0.25 1.10 0.70 1.10 2 0 1.20 -0.25 1.70 -0.75 1.70 -0.40 0 -0.75 0.25 -0.75 0.50 0 0.30 -0.35 0.50 -0.75 0.50 -0.40 0 -0.75 0.25 -0.75 0.50 0 0.30 -0.90 0.50 -2 0.50 -1.90 0 -2 -0.10 -2 -1.45z m4.25 -1.80 c1.50 -1.20 1 -1.70 -0.70 -0.75 -0.95 0.50 -1.80 2 -1.15 2 0.20 0 1.05 -0.55 1.85 -1.25z"/>
  <path d="M15.50 1 c0 -0.80 0.35 -1 1.75 -1 1.40 0 1.75 0.20 1.75 1 0 0.80 -0.35 1 -1.75 1 -1.40 0 -1.75 -0.20 -1.75 -1z"/>
 </g>
 <g fill="#230151">
  <path d="M32.40 39.05 c-1.45 -1.45 -5.40 -4.15 -5.40 -3.65 0 0.25 0.45 0.85 1 1.35 1.35 1.25 0.90 1.50 -0.90 0.55 -1.85 -0.95 -4.20 -3.80 -7.55 -9.15 l-2.55 -4.15 1.45 0 c1.50 0 2.05 0.70 2.05 2.80 0 0.85 0.30 1.20 1 1.20 0.65 0 1.10 0.45 1.30 1.25 0.15 0.70 0.50 1.25 0.75 1.25 0.25 0 0.45 0.45 0.45 1 0 0.85 0.35 1 2 1 1.50 0 2.35 0.35 3.25 1.25 l1.25 1.20 0 -1.20 c0 -1.80 2.05 -1.65 4.10 0.25 l1.65 1.50 -1.50 -0.30 -1.50 -0.30 1.25 1.05 c0.70 0.55 2.20 1.40 3.40 1.85 1.15 0.45 2.10 1.15 2.10 1.50 0 1 -0.50 0.90 -3.55 -0.80 -2.90 -1.60 -3.45 -1.75 -3.45 -1.05 0 0.25 0.55 0.60 1.20 0.75 0.65 0.15 1.30 0.65 1.50 1.05 0.40 1.10 -2.20 0.95 -3.30 -0.20z"/>
  <path d="M9.65 34.15 c-0.85 -1.85 -0.80 -2.15 0.35 -2.15 0.55 0 1 -0.25 1 -0.55 0 -0.25 -0.25 -0.35 -0.55 -0.15 -0.40 0.20 -0.45 -0.05 -0.20 -0.85 0.35 -1.10 0.25 -1.05 -1.45 0.45 -2.15 1.90 -4.75 3.30 -5.20 2.85 -0.20 -0.20 0.20 -0.80 0.90 -1.40 1.75 -1.50 3 -3.40 3 -4.50 0 -0.85 -0.10 -0.85 -1.45 0.10 -2.15 1.55 -2.20 1.30 -0.55 -1.40 1.75 -2.85 1.90 -4.05 0.50 -4.05 -0.75 0 -1 0.35 -1 1.20 0 0.70 -0.20 1.35 -0.40 1.50 -0.70 0.40 -0.60 -4.85 0.10 -7.60 0.40 -1.45 0.50 -2.60 0.25 -2.60 -0.25 0 -0.55 0.55 -0.75 1.25 -0.35 1.40 -0.95 1.60 -1.40 0.50 -0.35 -0.95 0.30 -3.05 2 -6.30 0.35 -0.70 0.55 -1.70 0.45 -2.25 -0.15 -0.65 0.45 -1.50 2.05 -2.80 2.65 -2.25 3.20 -2.35 3.20 -0.65 0 1.10 -0.20 1.25 -1.75 1.25 l-1.75 0 0 2.55 c0 1.40 -0.25 2.95 -0.50 3.50 -0.35 0.65 -0.35 0.95 0 0.95 0.25 0 0.50 0.70 0.50 1.50 0 0.85 0.25 1.50 0.50 1.50 0.30 0 0.50 0.90 0.50 2 0 1.10 0.25 2 0.55 2 0.35 0 0.50 0.85 0.35 2.25 -0.10 1.25 0 2.25 0.20 2.25 0.25 0 0.40 0.65 0.40 1.45 0 1.30 0.20 1.45 2.25 1.75 2.25 0.35 2.25 0.40 2.25 2.35 0 1.05 -0.20 1.95 -0.50 1.95 -0.25 0 -0.50 -0.40 -0.50 -0.85 0 -1.55 -1.10 0.15 -1.45 2.15 -0.35 2.30 -1.10 2.60 -1.90 0.85z"/>
  <path d="M33.90 31.15 c-0.45 -0.50 -1.20 -1.70 -1.65 -2.65 -0.50 -0.95 -1 -1.45 -1.15 -1.10 -0.10 0.35 0.10 0.95 0.40 1.35 0.95 1.15 0.20 2.25 -1.45 2.25 -1 0 -1.50 -0.30 -1.70 -1 -0.15 -0.60 -0.70 -1 -1.30 -1 -0.60 0 -1.05 -0.20 -1.05 -0.50 0 -0.25 0.35 -0.35 0.75 -0.20 0.60 0.25 0.70 0 0.45 -1.35 -0.45 -2.15 -0.40 -2.15 -1.65 -1.40 -0.75 0.50 -0.85 0.80 -0.45 1.30 0.40 0.50 0.25 0.65 -0.55 0.65 -0.85 0 -1.05 -0.30 -1.05 -1.50 0 -1.15 -0.25 -1.50 -0.95 -1.50 -0.75 0 -1.10 -0.55 -1.50 -2.50 -0.75 -3.45 -0.70 -5.05 0.25 -7.30 1.05 -2.60 2.35 -3.70 4.25 -3.70 1.10 0 1.60 0.25 1.80 1 0.15 0.55 0.45 1 0.65 1 0.25 0 0.70 1.55 1 3.45 0.75 4 0.30 7.95 -0.85 8.40 -0.70 0.30 -0.70 0.35 0.15 0.65 1.30 0.50 1.70 -0.30 1.70 -3.35 0 -2.30 0.15 -2.65 1 -2.65 0.80 0 1 -0.35 1 -1.70 0 -0.95 0.30 -2.05 0.70 -2.45 0.65 -0.65 2.30 -7.95 2.30 -10.25 0 -0.65 -0.30 -1.10 -0.75 -1.10 -0.45 0 -0.75 -0.45 -0.75 -1.05 0 -0.75 0.25 -1 1.05 -0.85 1.05 0.15 2.45 3.05 2.45 5.20 0 0.55 0.25 1.25 0.60 1.60 0.30 0.30 0.40 0.75 0.20 0.95 -0.20 0.20 -0.55 0.05 -0.80 -0.30 -0.70 -1.15 -1.45 2.60 -1.35 6.75 0.05 2.05 0.05 3.70 -0.05 3.70 -0.05 0 -0.40 -0.60 -0.70 -1.35 -0.55 -1.30 -0.60 -1.35 -0.75 -0.30 -0.10 0.60 0.35 2 1.05 3.10 1.80 2.85 1.60 3.15 -0.50 0.80 l-1.80 -2 0.30 1.55 c0.15 0.95 -0.05 1.95 -0.50 2.60 -0.65 0.95 -0.60 1.35 0.75 4.35 0.80 1.80 1.40 3.25 1.35 3.25 -0.10 0 -0.50 -0.40 -0.90 -0.85z m-7.90 -10.10 c0 -1.40 0.25 -2.65 0.50 -2.80 0.30 -0.15 0.50 -0.55 0.50 -0.85 0 -1.15 -1.50 0.80 -2.10 2.65 -0.45 1.55 -0.70 1.85 -1.25 1.40 -0.50 -0.45 -0.65 -0.40 -0.65 0.05 0 0.30 0.45 0.70 1 0.85 0.55 0.15 1 0.45 1 0.70 0 0.25 0.25 0.45 0.50 0.45 0.30 0 0.50 -1.10 0.50 -2.45z"/>
  <path d="M14.20 23.10 c-0.20 -0.90 -0.50 -1.60 -0.75 -1.60 -0.20 0 -0.50 -0.50 -0.60 -1.10 -0.20 -1 -0.20 -1 -0.30 0.20 -0.05 1.05 -0.25 1.25 -1.05 1.05 -0.85 -0.25 -1 -0.70 -1 -2.90 0 -1.65 0.25 -2.75 0.65 -2.90 0.45 -0.20 0.45 -0.40 -0.10 -0.75 -0.50 -0.40 -0.60 -1.10 -0.35 -2.95 0.15 -1.30 0.55 -2.45 0.80 -2.55 0.30 -0.10 0.50 -0.60 0.50 -1.10 0 -1.50 1.05 -3.45 2.10 -3.75 0.50 -0.20 0.90 -0.65 0.90 -1.05 0 -0.45 0.55 -0.70 1.70 -0.70 1.50 0 1.70 0.15 1.95 1.65 0.20 1.10 0 1.80 -0.55 2.25 -0.70 0.55 -0.85 1.70 -0.85 7.25 0 6.70 -0.25 7.85 -1.85 9.55 -0.85 0.95 -0.90 0.95 -1.20 -0.60z m-0.25 -9.25 c0.55 -0.70 0.50 -1 -0.25 -3.20 -0.40 -1.10 -1.70 2.85 -1.70 5.15 0 2.25 0.70 2.60 1.05 0.50 0.15 -0.95 0.55 -2.05 0.90 -2.45z"/>
  <path d="M21.50 9.35 c0 -0.45 -0.55 -0.60 -1.85 -0.45 -2.10 0.25 -2.20 0.50 1.20 -3.60 2.75 -3.30 6.35 -4.35 7.85 -2.25 0.70 1 0.80 1 1.85 0.25 1.60 -1.10 1.95 -1 1.95 0.45 0 1.10 -0.20 1.25 -1.75 1.25 -0.95 0 -1.75 -0.20 -1.75 -0.50 0 -0.25 -1 -0.50 -2.25 -0.50 -1.25 0 -2.25 0.25 -2.25 0.50 0 0.30 -0.55 0.50 -1.25 0.50 -0.80 0 -1.25 0.30 -1.25 0.75 0 0.45 0.45 0.75 1.25 0.75 1.25 0 1.25 0.05 0.45 1.25 -0.85 1.30 -0.35 1.70 0.70 0.65 0.45 -0.45 0.60 -0.35 0.60 0.50 0 0.90 -0.30 1.10 -1.75 1.10 -1.10 0 -1.75 -0.25 -1.75 -0.65z"/>
  <path d="M12.80 1.60 c1.35 -1.30 1.95 -1.55 4.15 -1.50 2.35 0 2.55 0.10 2.55 1.20 0 0.95 -0.25 1.20 -1.35 1.20 -0.80 0 -2.65 0.15 -4.15 0.30 l-2.75 0.30 1.55 -1.50z"/>
 </g>
 <g fill="#39204b">
  <path d="M8.50 39.40 c0 -0.45 0.20 -0.95 0.45 -1.10 0.75 -0.50 1.15 -4.45 0.45 -4.85 -0.85 -0.55 0.45 -2.95 1.60 -2.95 0.75 0 0.85 -0.35 0.60 -2.25 -0.25 -2.60 0.75 -3.15 1.80 -0.90 0.95 2.10 0.60 10.50 -0.40 9.90 -0.20 -0.15 -0.25 -1 -0.05 -1.85 0.15 -0.90 0.20 -2.65 0.05 -3.90 l-0.25 -2.25 -1.15 4.25 c-1.10 4.10 -3.05 7.85 -3.10 5.90z"/>
  <path d="M3.50 33.60 c0 -0.50 1.05 -1.60 1.60 -1.60 0.80 0 0.40 0.95 -0.60 1.50 -0.55 0.30 -1 0.35 -1 0.10z"/>
  <path d="M31 24.15 c0 -2.15 0.25 -2.05 0.65 0.25 0.20 0.90 0.10 1.60 -0.15 1.60 -0.30 0 -0.50 -0.80 -0.50 -1.85z"/>
  <path d="M16.80 23.90 c-0.75 -1.10 -0.80 -1.10 -1.50 -0.25 -0.60 0.80 -0.70 0.80 -1 0.05 -0.70 -1.80 -0.35 -2.20 1.95 -2.20 2.25 0 2.25 0 2.25 1.75 0 2 -0.55 2.20 -1.70 0.65z"/>
  <path d="M32 24.05 c0 -0.25 0.35 -0.70 0.75 -1.05 0.80 -0.70 0.90 -0.50 0.45 0.70 -0.30 0.85 -1.20 1.10 -1.20 0.35z"/>
  <path d="M25.85 13.40 c-0.25 -0.90 -0.40 -0.95 -1.05 -0.40 -0.70 0.55 -0.80 0.45 -0.80 -0.70 0 -1.15 0.20 -1.30 1.75 -1.30 1.65 0 1.75 0.10 1.75 1.75 0 2 -1.20 2.45 -1.65 0.65z"/>
 </g>
 <g fill="#2c027c">
  <path d="M32.90 39.60 c-0.05 -0.20 -1.60 -1.55 -3.35 -3 -3.20 -2.65 -4.75 -3.15 -2.55 -0.85 1.95 2.10 0.60 2.05 -1.55 -0.05 -1.85 -1.75 -6.45 -8.10 -6.45 -8.90 0 -0.75 2.55 -0.25 2.85 0.60 0.20 0.45 0.65 1.15 1 1.50 0.35 0.35 0.65 1 0.65 1.40 0 0.40 0.25 0.70 0.50 0.70 0.30 0 0.50 0.35 0.50 0.75 0 0.55 0.55 0.75 2 0.75 1.65 0 2 0.15 2 1 0 0.55 0.25 1 0.50 1 0.80 0 0.55 -2.60 -0.30 -3.25 -0.45 -0.30 -1 -1.75 -1.25 -3.25 -0.50 -3.15 -0.55 -3.25 -1.90 -2.50 -0.95 0.50 -1.05 0.40 -1.05 -1.10 0 -1.10 0.15 -1.45 0.45 -0.95 0.65 1.05 2.35 -0.15 2.70 -1.90 0.40 -1.95 -0.15 -5.15 -0.85 -4.90 -0.30 0.10 -1 1.05 -1.55 2.15 -0.70 1.40 -1 1.70 -1.15 1.10 -0.10 -0.50 0.50 -1.90 1.35 -3.20 0.85 -1.25 1.35 -2.10 1.05 -1.95 -0.30 0.20 -0.50 -0.25 -0.50 -0.95 0 -0.70 -0.20 -1.30 -0.45 -1.30 -0.80 0 -2.30 2.25 -3.05 4.45 -0.80 2.40 -2 2.75 -2 0.60 0 -1.50 0.80 -4.10 1.40 -4.55 0.20 -0.15 0.60 -0.70 0.90 -1.25 0.50 -0.85 1 -1 4 -0.85 1.85 0.05 3.50 0.20 3.60 0.35 0.65 0.65 0.65 4.35 0 5.35 -0.40 0.65 -0.90 2.80 -1.05 4.80 -0.25 3.35 -0.20 3.60 0.70 3.60 0.75 0 0.95 0.35 0.95 1.70 0 0.95 0.25 1.90 0.55 2.10 0.30 0.15 0.40 0.85 0.25 1.45 -0.25 0.95 0.10 1.50 1.70 2.75 1.15 0.90 1.95 1.70 1.85 1.80 -0.10 0.10 -0.95 -0.05 -1.90 -0.30 l-1.70 -0.45 1.25 1 c0.70 0.60 2.55 1.70 4.10 2.50 1.60 0.80 2.90 1.70 2.90 1.95 0 0.60 -0.85 0.65 -1.10 0.15 -0.25 -0.55 -4.80 -2.65 -5.75 -2.65 -0.75 0 -0.75 0.10 0 0.90 0.50 0.50 0.85 1.20 0.85 1.50 0 0.65 -0.85 0.80 -1.10 0.20z"/>
  <path d="M3.80 33.35 c0.15 -0.40 0.90 -1.20 1.70 -1.75 1.75 -1.35 3.05 -4.95 2 -5.60 -0.45 -0.25 -0.55 -1.05 -0.35 -2.45 0.20 -1.55 0.10 -2.05 -0.45 -2.05 -0.40 0 -0.70 -0.50 -0.70 -1.10 0 -0.90 -0.10 -1 -0.45 -0.45 -0.25 0.40 -0.35 1 -0.20 1.35 0.10 0.30 0 0.75 -0.30 0.95 -1 0.60 -1.10 -1 -0.30 -4 0.90 -3.50 0.90 -3.75 0.25 -3.75 -0.30 0 -0.80 0.60 -1.10 1.40 l-0.60 1.35 -0.15 -1.30 c-0.25 -1.50 2.30 -7.40 3.15 -7.45 0.30 0 0.70 1.40 0.85 3.35 0.20 1.90 0.55 3.45 0.85 3.55 0.25 0.10 0.50 0.50 0.50 0.90 0 0.40 0.25 0.70 0.55 0.70 0.35 0 0.45 1.25 0.35 3.60 -0.15 3.40 -0.05 3.70 1 4.15 0.60 0.25 1.10 0.90 1.10 1.35 0 0.50 0.30 0.90 0.70 0.90 0.40 0 0.85 0.40 1 0.90 0.10 0.45 0.35 1.35 0.55 2 0.15 0.60 0.10 1.10 -0.20 1.10 -0.25 0 -0.60 -0.40 -0.70 -0.85 -0.20 -0.85 -0.25 -0.85 -0.30 0 0 0.45 -0.45 0.85 -0.95 0.85 -0.50 0 -1.20 0.30 -1.55 0.65 -0.55 0.50 -0.55 0.40 -0.10 -0.50 0.95 -1.80 0.60 -2.50 -0.50 -1 -1.15 1.55 -6.10 4.30 -5.65 3.20z"/>
  <path d="M14.15 22.70 c-0.15 -0.40 0.20 -1.40 0.80 -2.20 0.90 -1.25 1 -1.90 0.75 -4.25 -0.30 -2.60 -0.25 -2.75 0.75 -2.75 1 0 1.05 0.25 1.05 4.25 0 3.30 -0.15 4.25 -0.70 4.25 -0.40 0 -0.80 0.35 -1 0.75 -0.35 1 -1.25 0.95 -1.65 -0.05z"/>
  <path d="M11.80 20.90 c-0.40 -1.60 -0.40 -3.65 0.05 -3.20 0.40 0.35 0.80 4.30 0.45 4.30 -0.10 0 -0.30 -0.50 -0.50 -1.10z"/>
  <path d="M13 19.75 c0 -0.40 0.25 -0.75 0.50 -0.75 0.30 0 0.50 0.35 0.50 0.75 0 0.40 -0.20 0.75 -0.50 0.75 -0.25 0 -0.50 -0.35 -0.50 -0.75z"/>
  <path d="M32 16.75 c0 -1.65 0.20 -2.25 0.75 -2.25 0.50 0 0.75 -0.55 0.75 -1.75 0 -1.50 -0.15 -1.75 -1.10 -1.75 -2.80 0 -3.40 -0.50 -3.40 -2.70 0.05 -2.80 1.35 -4.30 3.80 -4.30 l1.85 0 -0.35 3.50 c-0.30 3.30 -0.25 3.50 0.75 3.50 0.55 0 0.85 0.20 0.70 0.50 -0.15 0.25 -0.30 1.65 -0.35 3.05 0 1.85 -0.15 2.45 -0.65 2.25 -0.70 -0.25 -1.45 1 -0.95 1.75 0.15 0.25 -0.20 0.45 -0.75 0.45 -0.90 0 -1.05 -0.30 -1.05 -2.25z"/>
  <path d="M15.25 11 c-0.20 -0.80 -0.15 -1.75 0.05 -2.05 0.20 -0.35 0.40 -1.10 0.50 -1.75 0.15 -1.70 -1.15 -0.95 -1.90 1.10 -0.80 2.25 -1.90 2.25 -1.90 -0.05 0 -1.20 0.25 -1.75 0.75 -1.75 0.40 0 0.75 -0.45 0.75 -0.95 0 -1.35 1.85 -2.55 3.85 -2.55 1.55 0 1.65 0.10 1.65 1.65 0 0.95 -0.15 1.85 -0.35 2.05 -0.50 0.45 -1.65 3.90 -1.65 4.95 0 1.45 -1.40 0.95 -1.75 -0.65z"/>
  <path d="M23 9.60 c0 -0.20 0.90 -0.90 2 -1.60 2.20 -1.35 2.45 -1.80 1.15 -2.15 -0.55 -0.15 -0.35 -0.25 0.50 -0.30 1.20 -0.05 1.35 0.10 1.35 1.70 0 1.20 -0.25 1.75 -0.75 1.75 -0.40 0 -0.75 0.25 -0.75 0.50 0 0.30 -0.80 0.50 -1.75 0.50 -0.95 0 -1.75 -0.15 -1.75 -0.40z"/>
  <path d="M35 7.25 c0 -1.20 0.25 -1.75 0.70 -1.75 1.05 0 1.40 0.75 1 2.25 -0.50 1.95 -1.70 1.60 -1.70 -0.50z"/>
  <path d="M6.75 6 c0.15 -0.25 0.95 -0.95 1.75 -1.50 l1.50 -1.05 0 1.50 c0 1.45 -0.15 1.55 -1.80 1.55 -1 0 -1.65 -0.20 -1.45 -0.50z"/>
  <path d="M27 3.50 c0 -1.80 0.10 -1.85 1.70 -0.30 1.65 1.50 1.65 1.80 -0.20 1.80 -1.35 0 -1.50 -0.15 -1.50 -1.50z"/>
  <path d="M12.75 1.75 c1.10 -0.95 2.30 -1.75 2.65 -1.75 0.75 0 2.10 1.20 2.10 1.85 0 0.55 -3.65 1.65 -5.35 1.65 l-1.40 -0.05 2 -1.70z"/>
 </g>
 <g fill="#43046c">
  <path d="M31.40 38 l-1.90 -2 1.80 0 c1.05 0 1.65 0.20 1.45 0.50 -0.15 0.25 0.05 1 0.45 1.60 1.80 2.60 0.65 2.50 -1.80 -0.10z"/>
  <path d="M3.80 33.40 c0.15 -0.45 0.85 -1.20 1.50 -1.65 0.70 -0.45 1.60 -1.60 2.05 -2.50 0.45 -0.95 1.10 -1.75 1.45 -1.75 0.95 0 1.10 1.60 0.30 2.90 -0.90 1.35 -1.85 1.50 -1.10 0.10 0.85 -1.55 0.25 -1.20 -2.25 1.40 -1.25 1.30 -2.15 1.95 -1.95 1.50z"/>
  <path d="M9.85 32.80 c-0.45 -1.10 0.75 -3.70 1.75 -3.95 1.05 -0.30 1.15 0.60 0.30 3 -0.65 1.70 -1.60 2.15 -2.05 0.95z"/>
  <path d="M13.05 30.15 c0 -1.55 0.10 -1.70 0.45 -0.90 0.60 1.40 0.60 2.75 0 2.75 -0.25 0 -0.50 -0.85 -0.45 -1.85z"/>
  <path d="M29 30.25 c0 -0.70 -0.20 -1.25 -0.50 -1.25 -0.25 0 -0.50 0.25 -0.50 0.50 0 0.30 -0.80 0.50 -1.75 0.50 -1.20 0 -1.75 -0.25 -1.75 -0.75 0 -0.40 -0.35 -0.75 -0.75 -0.75 -0.55 0 -0.75 -0.60 -0.75 -2.25 0 -1.85 -0.15 -2.25 -0.95 -2.25 -1.10 0 -1.55 -1.30 -1.55 -4.35 0 -3.25 1.30 -2.85 2 0.60 0.45 2.20 0.75 2.75 1.55 2.75 0.50 0 0.95 0.25 0.95 0.55 0 0.30 0.30 0.45 0.70 0.30 1 -0.40 0.65 1.15 -0.40 1.75 -0.80 0.45 -0.80 0.60 0.25 1.70 1.60 1.70 1.95 1.50 1.65 -0.90 -0.15 -1.20 -0.05 -2.70 0.25 -3.40 0.50 -1.25 0.50 -1.25 0.50 0.30 0.05 0.90 0.35 1.70 0.75 1.85 0.55 0.20 0.75 -0.45 0.90 -3.05 0.10 -1.80 0.45 -3.35 0.75 -3.45 1.75 -0.60 2.70 -2.20 3.15 -5.20 0.85 -5.85 1.05 -6.45 2.05 -6.45 1.10 0 1.15 0.45 0.40 3.25 -0.30 1.10 -0.50 3.05 -0.50 4.40 0 1.30 -0.20 2.35 -0.45 2.35 -0.30 0 -0.50 -0.20 -0.50 -0.50 0 -0.25 -0.20 -0.50 -0.50 -0.50 -0.90 0 -0.55 2.25 0.75 4.80 l1.20 2.45 -1.20 -1.35 c-1.45 -1.70 -1.55 -1.70 -1.95 -0.25 -0.35 1.05 -0.35 1.05 -0.80 0.10 -0.35 -0.80 -0.45 -0.60 -0.45 1 0 1.15 0.60 3.45 1.40 5.40 1.60 3.75 1.20 4.15 -0.50 0.45 -0.60 -1.35 -1.15 -2.05 -1.30 -1.70 -0.15 0.40 0.05 1.30 0.40 2 0.55 1 0.55 1.30 0.05 1.45 -0.30 0.15 -0.50 0.45 -0.30 0.70 0.15 0.25 -0.30 0.45 -1 0.45 -1.05 0 -1.30 -0.25 -1.30 -1.25z m0.80 -2.30 c-0.45 -1.10 -0.75 -1.35 -0.75 -0.80 -0.05 1.05 0.90 3.05 1.25 2.70 0.15 -0.15 -0.10 -1 -0.50 -1.90z"/>
  <path d="M10.80 22.70 c-0.55 -4.05 -0.40 -6.20 0.45 -6.20 0.40 0 0.80 0.30 0.80 0.65 0.05 0.30 0.10 1.15 0.15 1.85 0.10 0.70 0.30 2.30 0.50 3.65 0.30 2.10 0.25 2.35 -0.60 2.35 -0.75 0 -1.05 -0.45 -1.30 -2.30z"/>
  <path d="M7.45 23.65 c-0.05 -0.50 -0.05 -1.30 0 -1.75 0.10 -0.60 -0.15 -0.80 -0.65 -0.60 -0.95 0.35 -1.05 -1 -0.30 -3 0.30 -0.85 0.30 -1.30 0 -1.30 -0.30 0 -0.50 0.45 -0.50 0.95 0 0.55 -0.25 1.15 -0.55 1.30 -0.35 0.25 -0.45 -0.25 -0.35 -1.30 0.15 -1.50 0.35 -1.70 1.70 -1.85 1.50 -0.15 1.55 -0.05 1.90 2.20 0.55 4.05 0.40 6.20 -0.45 6.20 -0.40 0 -0.80 -0.40 -0.80 -0.85z"/>
  <path d="M14.35 23.45 c-0.35 -1.35 0.15 -2.95 0.90 -2.95 0.40 0 0.80 -0.40 0.90 -0.85 0.15 -0.50 0.25 -0.05 0.30 1 0.05 1.20 -0.25 2.15 -0.90 2.80 -0.95 0.95 -0.95 0.95 -1.20 0z"/>
  <path d="M26 13.50 c0 -1.40 0.15 -1.50 1.75 -1.50 1.45 0 1.75 0.20 1.75 1.05 0 0.55 -0.25 0.85 -0.50 0.70 -0.30 -0.20 -0.35 -0.60 -0.20 -0.90 0.20 -0.35 -0.20 0 -0.95 0.80 -1.65 1.70 -1.85 1.70 -1.85 -0.15z"/>
  <path d="M11 11.05 c0 -2.10 0.50 -3.05 1.55 -3.05 1.10 0 1.15 0.55 0.35 2.85 -0.75 2.05 -1.90 2.20 -1.90 0.20z"/>
  <path d="M5.35 8.90 c-0.30 -1.10 0.35 -2.40 1.20 -2.40 0.25 0 0.45 0.80 0.45 1.75 0 2 -1.20 2.45 -1.65 0.65z"/>
  <path d="M17 6.85 c0 -1.55 1.10 -3.85 1.90 -3.85 0.30 0 0.60 -0.20 0.60 -0.50 0 -0.25 -1.05 -0.35 -2.50 -0.15 -2.45 0.30 -2.50 0.25 -2.50 -1.05 0 -0.95 0.25 -1.30 1 -1.30 0.55 0 1 0.25 1 0.50 0 0.30 0.35 0.50 0.75 0.50 0.40 0 0.75 -0.20 0.75 -0.50 0 -0.95 1.75 -0.45 2.60 0.75 0.90 1.15 0.85 1.25 -1 3.95 -2.05 3.05 -2.60 3.40 -2.60 1.65z"/>
  <path d="M34.40 5.40 c-0.20 -1.35 -2.40 -1.95 -2.40 -0.70 0 0.60 -0.50 0.80 -1.75 0.80 -1.45 0 -1.75 -0.20 -1.75 -1.05 0 -0.55 0.20 -0.85 0.50 -0.70 0.25 0.15 1.35 -0.20 2.40 -0.80 2.70 -1.55 4.20 -1.10 4.90 1.55 0.55 1.90 0.50 2 -0.60 2 -0.80 0 -1.20 -0.35 -1.30 -1.10z"/>
  <path d="M21 5.15 c1.85 -2.40 3.15 -2.75 2.90 -0.75 -0.15 1.15 -0.40 1.40 -1.85 1.50 -1.60 0.15 -1.70 0.10 -1.05 -0.75z"/>
  <path d="M9.15 4.25 c1.80 -1.60 2.35 -1.55 2.35 0 0 1.10 -0.20 1.25 -1.85 1.25 l-1.90 -0.05 1.40 -1.20z"/>
 </g>
 <g fill="#400297">
  <path d="M31.65 38.10 c-4.50 -4 -7.35 -5.55 -5.20 -2.75 1.50 1.85 0.85 2.10 -1 0.35 -1.45 -1.35 -6.95 -9.20 -6.95 -9.90 0 -0.15 0.55 -0.30 1.25 -0.30 1.10 0 1.25 0.20 1.25 1.75 0 1.50 0.15 1.75 1.20 1.75 0.85 0 1.35 0.35 1.60 1.15 0.30 1.05 1.05 1.85 1.80 1.85 0.20 0 0.25 -1.05 0.15 -2.35 -0.15 -1.35 -0.15 -2.10 0.05 -1.75 0.15 0.30 0.60 0.60 0.95 0.60 0.45 0 0.65 -0.75 0.65 -2.60 -0.05 -4.15 0.70 -9.55 1.45 -10.75 0.50 -0.70 0.55 -1.15 0.15 -1.40 -0.30 -0.15 -0.35 -0.60 -0.15 -0.90 0.15 -0.35 -0.15 -0.15 -0.75 0.35 -1.10 0.95 -1.10 0.95 -1.10 -0.05 0 -1.35 1.85 -7.15 2.55 -8 0.75 -0.90 3.35 -0.85 4.30 0.10 0.60 0.60 0.70 1.40 0.40 3.50 -0.25 2.10 -0.15 2.75 0.35 2.75 0.45 0 0.65 0.75 0.65 2.50 0.05 2.20 -0.05 2.45 -0.85 2.20 -0.60 -0.15 -0.90 0 -0.90 0.50 0 0.45 -0.35 0.80 -0.75 0.80 -0.45 0 -0.75 -0.45 -0.75 -1.10 0 -1.70 -0.80 -0.50 -1.65 2.60 -1.45 5.10 -1.50 5.50 -0.35 5.50 0.85 0 1 0.35 1 2.25 0 1.25 0.25 2.25 0.50 2.25 0.70 0 0.65 1.35 -0.05 1.60 -0.55 0.20 0.60 1.45 2.80 3.20 1 0.75 0.95 0.75 -0.25 0.50 -0.70 -0.10 -1.75 -0.40 -2.35 -0.55 -0.80 -0.25 -1.15 -0.15 -1.15 0.30 0 0.35 0.15 0.50 0.30 0.30 0.15 -0.15 1.45 0.45 2.85 1.35 1.45 0.90 3.45 2.05 4.50 2.55 1.05 0.50 1.80 0.95 1.70 1.10 -0.30 0.25 -6.05 -2.45 -6.25 -2.95 -0.10 -0.20 -0.65 -0.40 -1.20 -0.40 -0.90 0 -0.90 0.05 -0.20 0.80 0.95 0.95 1.95 2.70 1.70 2.95 -0.10 0.15 -1.15 -0.60 -2.25 -1.65z m-1.10 -8.95 c-0.25 -0.50 -0.65 -1.35 -0.85 -1.90 -0.30 -0.85 -0.40 -0.90 -0.55 -0.15 -0.25 1 0.65 2.90 1.35 2.90 0.35 0 0.35 -0.30 0.05 -0.85z m1.80 -20.25 c0 -0.35 0.20 -1.25 0.40 -2 0.45 -1.70 0 -1.80 -1.30 -0.25 -1.15 1.40 -1.20 2.20 -0.05 2.50 0.45 0.15 0.85 0.25 0.90 0.30 0 0 0.05 -0.25 0.05 -0.55z"/>
  <path d="M9.80 35.20 c0.20 -0.85 0.10 -1.45 -0.30 -1.70 -0.55 -0.35 -0.50 -0.65 0.15 -1.70 0.45 -0.70 0.85 -1.65 0.85 -2.15 -0.05 -0.75 -0.25 -0.65 -1.15 0.50 -1.30 1.55 -2.15 1.80 -1.35 0.40 0.30 -0.60 0.30 -1.10 0.05 -1.30 -0.30 -0.15 -0.30 -0.85 -0.05 -1.75 0.25 -0.90 0.25 -1.60 -0.05 -1.75 -0.25 -0.20 -0.45 -1.50 -0.50 -2.90 0 -1.45 -0.15 -2.30 -0.30 -1.95 -0.40 1.05 -1.15 0.65 -1.15 -0.65 0 -0.70 0.25 -1.25 0.50 -1.25 0.30 0 0.50 -0.45 0.50 -1 0 -0.55 -0.20 -1 -0.50 -1 -0.25 0 -0.50 0.40 -0.50 0.90 0 0.50 -0.20 1.10 -0.45 1.35 -0.25 0.30 -0.55 1.05 -0.70 1.75 l-0.20 1.25 -0.10 -1.25 c0 -0.70 0.25 -2.45 0.65 -3.90 0.55 -2.20 0.55 -2.60 0 -2.60 -0.45 0 -0.70 -0.55 -0.70 -1.50 0 -0.80 0.20 -1.50 0.45 -1.50 0.25 0 0.40 -0.95 0.35 -2.05 -0.05 -1.85 0.20 -2.30 1.95 -3.80 l2 -1.70 0.15 1.30 c0.10 0.85 -0.20 1.80 -0.80 2.45 -1.05 1.10 -1.80 4.70 -1.30 6 0.15 0.45 0.85 0.80 1.50 0.80 1.35 0 1.45 0.65 0.90 5.35 -0.25 1.80 -0.60 2.65 -1.15 2.80 -0.45 0.15 0.15 0.25 1.35 0.30 1.45 0.05 2.10 0.25 2.10 0.75 0 0.40 0.20 0.80 0.45 0.90 0.25 0.10 0.55 1.75 0.70 3.65 0.10 1.95 0.10 2.70 0 1.75 l-0.25 -1.75 -0.70 2 c-0.35 1.10 -0.70 2.50 -0.70 3.15 0 1.40 -0.85 3.10 -1.55 3.10 -0.25 0 -0.35 -0.55 -0.15 -1.30z"/>
  <path d="M24 25.25 c0 -0.50 -0.50 -0.75 -1.50 -0.75 -1.40 0 -1.50 -0.15 -1.50 -1.75 0 -1.95 1.20 -2.50 1.65 -0.75 0.15 0.55 0.65 1 1.10 1 0.75 0 2.25 1.10 2.25 1.70 0 0.15 -0.45 0.50 -1 0.80 -0.80 0.45 -1 0.40 -1 -0.25z"/>
  <path d="M15.20 20.75 c0.85 -0.65 0.90 -1.15 0.65 -4.25 -0.25 -3.15 -0.20 -3.50 0.60 -3.50 0.95 0 1.55 2.50 1.55 6.55 0 1.90 -0.05 1.95 -1.85 1.95 -1.75 -0.05 -1.85 -0.10 -0.95 -0.75z"/>
  <path d="M22 13.75 c0 -1.60 0.10 -1.75 1.50 -1.75 l1.50 0 -1.10 1.75 c-1.45 2.20 -1.90 2.20 -1.90 0z"/>
  <path d="M15.80 9.75 c-0.15 -0.40 0.20 -1.80 0.70 -3.05 1.25 -2.85 0.40 -2.75 -1.75 0.20 -0.80 1.10 -1.65 2.05 -1.85 2.05 -0.25 0.05 -0.40 -0.75 -0.40 -1.70 0 -1.60 0.10 -1.75 1.50 -1.75 1.15 0 1.50 -0.20 1.50 -1 0 -0.80 0.35 -1 1.70 -1 2 0 2.50 1.10 1.40 2.85 -1.50 2.35 -0.20 2.15 1.85 -0.30 3.10 -3.65 6.55 -5.30 6.55 -3.05 0 0.65 -0.35 1 -1 1 -0.55 0 -1 0.25 -1 0.50 0 0.30 -0.55 0.50 -1.25 0.50 -1 0 -1.25 0.25 -1.25 1.25 0 1.05 -0.25 1.25 -1.50 1.25 -1.35 0 -1.50 0.15 -1.50 1.50 0 1.35 -0.15 1.50 -1.70 1.50 -1.05 0 -1.80 -0.30 -2 -0.75z"/>
  <path d="M35 6.50 c0 -2.10 0.65 -2.60 1.45 -1.10 0.65 1.20 0.15 3.10 -0.75 3.10 -0.50 0 -0.70 -0.65 -0.70 -2z"/>
  <path d="M10.50 3.60 c0 -0.25 0.90 -0.90 2 -1.55 1.10 -0.60 2 -1.30 2 -1.60 0 -0.25 0.35 -0.45 0.80 -0.45 0.40 0 0.60 0.25 0.45 0.50 -0.15 0.30 0.15 0.50 0.75 0.50 1.70 0 0.90 1.25 -0.90 1.40 -1 0.10 -1.60 0.45 -1.60 0.90 0 0.45 -0.55 0.70 -1.75 0.70 -0.95 0 -1.75 -0.20 -1.75 -0.40z"/>
  <path d="M18 1.55 c0 -1.45 0.90 -1.80 2.05 -0.75 1.35 1.20 1.20 1.70 -0.55 1.70 -1.15 0 -1.50 -0.25 -1.50 -0.95z"/>
 </g>
 <g fill="#5f0985">
  <path d="M32.10 38.45 c-0.90 -0.85 -1.45 -1.75 -1.30 -2 0.35 -0.60 3.20 -0.55 3.20 0.05 0 0.25 -0.35 0.35 -0.75 0.20 -0.95 -0.40 -0.95 0 0 1.80 0.95 1.90 0.80 1.85 -1.15 -0.05z"/>
  <path d="M9.50 36.60 c0 -0.25 0.35 -1.15 0.80 -2.05 0.80 -1.60 0.55 -2.90 -0.30 -1.55 -0.25 0.40 -0.60 0.55 -0.75 0.40 -0.35 -0.35 1.25 -3.40 1.80 -3.40 0.50 0 0.40 4.15 -0.15 5.65 -0.50 1.25 -1.40 1.90 -1.40 0.95z"/>
  <path d="M13.35 32.35 c-0.20 -0.50 -0.35 -1.55 -0.30 -2.25 l0 -1.35 0.50 1.25 c0.25 0.65 0.40 1.65 0.35 2.25 -0.15 0.95 -0.20 0.95 -0.55 0.10z"/>
  <path d="M29.10 30.95 c-0.35 -0.55 -0.80 -2.15 -0.95 -3.50 -0.25 -2.05 -0.15 -2.45 0.55 -2.45 0.65 0 0.80 -0.55 0.80 -2.75 0 -1.50 0.25 -2.75 0.50 -2.75 0.30 0 0.50 -0.45 0.50 -1 0 -0.75 0.35 -1 1.25 -1 1.05 0 1.25 -0.25 1.25 -1.50 0 -1.15 0.25 -1.50 0.95 -1.50 0.95 0 1.85 1.40 1.25 1.95 -0.20 0.15 -0.45 0 -0.55 -0.30 -0.15 -0.35 -0.45 -0.65 -0.70 -0.65 -0.60 0 -0.55 2.60 0.10 4.30 l0.50 1.40 -1.10 -0.95 c-1.10 -1 -1.10 -1 -0.85 0.10 0.20 0.65 0.10 1.30 -0.15 1.45 -0.25 0.15 -0.45 -0.25 -0.50 -0.90 -0.05 -1.05 -0.10 -1 -0.55 0.30 -0.50 1.35 -0.25 2.70 0.95 5.80 0.25 0.65 0.20 0.65 -0.50 0.05 -0.75 -0.60 -0.85 -0.55 -0.85 0.65 0 0.70 0.25 1.30 0.50 1.30 0.30 0 0.50 0.35 0.50 0.75 0 0.40 -0.20 0.75 -0.40 0.75 -0.40 0 -0.85 -0.80 -2 -3.50 l-0.55 -1.25 0 1.55 c-0.05 1 0.35 1.90 1.20 2.70 0.70 0.65 1.25 1.35 1.25 1.60 0 0.85 -1.80 0.35 -2.40 -0.65z"/>
  <path d="M23.30 27.45 c-0.55 -2.90 -0.35 -4.45 0.60 -4.45 0.45 0 1.15 0.45 1.50 1 0.50 0.85 0.50 1.05 -0.15 1.30 -1.10 0.45 -0.95 1.10 0.55 2.45 l1.35 1.25 -1.75 0 c-1.60 0 -1.80 -0.15 -2.10 -1.55z"/>
  <path d="M10 26.45 c0 -0.55 -0.20 -0.90 -0.45 -0.75 -0.25 0.15 -0.60 -0.05 -0.75 -0.50 -0.50 -1.35 -0.35 -1.70 0.85 -1.70 1.10 0 1.15 -0.15 0.95 -3.25 -0.20 -2.75 -0.10 -3.25 0.60 -3.25 0.45 0 0.80 0.30 0.85 0.65 0.05 1.35 0.35 3.70 0.70 5.75 0.20 1.40 0.15 2.10 -0.20 2.10 -0.30 0 -0.55 0.45 -0.55 1 0 0.65 -0.35 1 -1 1 -0.70 0 -1 -0.35 -1 -1.05z"/>
  <path d="M17.85 25.10 c-0.50 -0.50 -0.85 -1.15 -0.85 -1.45 0 -0.30 -0.30 -0.70 -0.60 -0.80 -0.35 -0.15 0.10 -0.30 1 -0.30 1.50 -0.05 1.60 0.05 1.60 1.70 0 2 -0.05 2.05 -1.15 0.85z"/>
  <path d="M7.75 20.40 l0.25 -2.65 -0.70 2 c-0.55 1.65 -0.75 1.85 -1.05 1.10 -0.20 -0.55 -0.15 -1.15 0.20 -1.50 0.30 -0.30 0.55 -1.05 0.55 -1.70 0 -0.65 0.25 -1.15 0.50 -1.15 0.30 0 0.50 0.30 0.50 0.65 0 0.40 0.20 0.35 0.50 -0.15 0.55 -0.85 0.70 2.95 0.20 4.90 -0.60 2.10 -1.25 1.10 -0.95 -1.50z"/>
  <path d="M6 15.25 c0 -0.40 -0.35 -0.75 -0.80 -0.75 -0.55 0 -0.70 -0.25 -0.50 -0.80 0.15 -0.45 0.45 -1.35 0.60 -2 0.15 -0.65 0.60 -1.20 1 -1.20 0.50 0 0.70 0.75 0.70 2.75 0 1.50 -0.20 2.75 -0.50 2.75 -0.25 0 -0.50 -0.35 -0.50 -0.75z"/>
  <path d="M34 10.75 c0 -1.40 0.20 -1.75 1 -1.75 1.10 0 1.30 1 0.50 2.55 -0.80 1.50 -1.50 1.15 -1.50 -0.80z"/>
  <path d="M17 8.80 c0 -0.65 0.35 -1.50 0.85 -1.85 0.75 -0.65 0.75 -0.60 0.25 0.40 -1 1.80 -0.70 1.90 0.90 0.40 l1.50 -1.45 0 1.85 c0 1.80 -0.05 1.85 -1.75 1.85 -1.50 0 -1.75 -0.15 -1.75 -1.20z"/>
  <path d="M19.10 3.50 c-0.35 -0.55 -1.05 -1 -1.60 -1 -1.45 0 -1.25 -1.15 0.35 -1.85 1.15 -0.55 1.45 -0.50 2.50 0.65 1.15 1.25 1.15 1.35 0.35 2.25 -1.05 1.15 -0.85 1.15 -1.60 -0.05z"/>
  <path d="M31.50 3.30 c0 -0.75 2.25 -1.50 3 -1.05 1.20 0.75 0.45 1.75 -1.25 1.75 -1.15 0 -1.75 -0.25 -1.75 -0.70z"/>
 </g>
 <g fill="#5c2d65">
  <path d="M9.35 37.40 c0.15 -0.90 0.50 -1.70 0.75 -1.80 0.20 -0.10 0.40 -0.60 0.40 -1.10 0 -0.50 0.25 -1.10 0.50 -1.25 0.80 -0.50 0.60 0.95 -0.50 3.45 -1.15 2.70 -1.60 2.95 -1.15 0.70z"/>
  <path d="M9.50 32.50 c0.30 -0.55 0.75 -1 1 -1 0.85 0 0.55 0.75 -0.55 1.40 -0.95 0.60 -0.95 0.55 -0.45 -0.40z"/>
  <path d="M13.30 32.25 c-0.15 -0.45 -0.25 -1.65 -0.25 -2.65 0.10 -1.65 0.10 -1.60 0.45 0.65 0.40 2.65 0.30 3.30 -0.20 2z"/>
  <path d="M11.85 30.15 c-0.55 -0.50 -0.40 -3.65 0.15 -3.65 0.30 0 0.50 0.90 0.50 2 0 2.05 -0.10 2.25 -0.65 1.65z"/>
  <path d="M23.50 25.50 c0 -0.25 -0.45 -0.50 -1 -0.50 -0.80 0 -1 -0.35 -1 -1.75 0 -0.95 0.25 -1.75 0.50 -1.75 0.30 0 0.50 0.35 0.50 0.75 0 0.40 0.40 0.75 0.90 0.75 0.55 0 1.35 0.45 1.85 1 0.80 0.90 0.70 1.25 -0.35 1.05 -0.25 0 -0.40 0.20 -0.40 0.45 0 0.30 -0.20 0.50 -0.50 0.50 -0.25 0 -0.50 -0.20 -0.50 -0.50z"/>
  <path d="M14.30 23.25 c-0.40 -1.05 0.15 -2.20 1.25 -2.80 0.55 -0.25 0.95 -0.80 0.95 -1.20 0 -0.40 0.35 -0.75 0.75 -0.75 0.50 0 0.75 0.50 0.75 1.55 0 1.55 -0.50 2.25 -2.35 3.30 -0.85 0.50 -1.10 0.45 -1.35 -0.10z"/>
  <path d="M25.85 12.90 c-0.25 -0.90 -0.40 -0.95 -1.05 -0.40 -0.70 0.55 -0.80 0.45 -0.80 -0.70 0 -1.25 0.10 -1.30 2.75 -1.30 2.35 0 2.70 0.10 2.40 0.90 -0.45 1.25 -1.70 2.60 -2.40 2.60 -0.35 0 -0.75 -0.50 -0.90 -1.10z"/>
  <path d="M28 4.50 c0 -1.35 0.10 -1.45 0.95 -0.90 0.75 0.45 1.15 0.45 1.75 -0.05 0.70 -0.60 0.80 -0.50 0.80 0.90 0 1.45 -0.10 1.55 -1.75 1.55 -1.60 0 -1.75 -0.10 -1.75 -1.50z"/>
 </g>
 <g fill="#5402b0">
  <path d="M32.20 38.40 c-0.95 -1.20 -6.20 -4.90 -6.95 -4.90 -0.20 0 0 0.55 0.45 1.25 0.85 1.25 0.85 1.30 -0.20 0.65 -0.60 -0.35 -2.65 -2.95 -4.55 -5.75 l-3.45 -5.15 1.50 0 c1.35 0 1.50 0.15 1.50 1.50 0 1.10 0.25 1.50 0.90 1.50 1.05 0 2.60 1.45 2.60 2.40 0 0.35 0.35 0.60 0.75 0.60 0.40 0 0.75 -0.20 0.75 -0.50 0 -0.25 0.75 -0.50 1.70 -0.50 1.30 0 2.35 0.55 4.50 2.35 1.50 1.30 2.70 2.40 2.60 2.50 -0.10 0.10 -0.80 -0.05 -1.55 -0.35 -2.30 -0.90 -2 -0.20 0.85 1.75 2.35 1.60 2.20 1.90 -0.45 0.90 -0.80 -0.30 -0.85 0.95 -0.05 1.75 0.30 0.30 0.45 0.70 0.30 0.85 -0.15 0.15 -0.70 -0.25 -1.20 -0.85z"/>
  <path d="M10.70 34.05 c0.25 -1.40 0.15 -1.60 -0.50 -1.35 -0.65 0.25 -0.70 0.10 -0.40 -0.55 0.50 -1.25 0.60 -7.90 0.10 -6.90 -0.40 0.65 -0.60 0.60 -1.50 -0.20 -0.90 -0.85 -0.95 -1.35 -0.65 -4 0.25 -2 0.15 -3.05 -0.15 -3.05 -0.30 0 -0.60 -0.50 -0.75 -1.10 -0.15 -1.10 -0.20 -1.05 -0.75 0.30 -0.85 1.90 -1.25 1.40 -0.55 -0.65 0.40 -1.15 0.40 -1.75 0 -2.25 -0.45 -0.50 -0.45 -1.35 -0.05 -3.10 0.30 -1.30 0.45 -2.65 0.30 -3 -0.25 -0.70 1.85 -2.85 2.35 -2.35 0.60 0.55 0.40 3.55 -0.25 3.80 -0.35 0.15 -0.05 0.30 0.75 0.30 l1.35 0.05 0 5.50 c0 5.15 0.05 5.50 1 5.50 0.80 0 1 0.35 1 1.50 0 0.85 0.25 1.50 0.55 1.50 0.40 0 0.45 0.55 0.20 1.65 -0.20 0.85 -0.35 2.30 -0.35 3.15 0.05 0.90 -0.25 1.85 -0.65 2.20 -0.45 0.40 -0.65 1.05 -0.45 1.75 0.15 0.65 0.05 1.60 -0.30 2.10 -0.45 0.75 -0.50 0.65 -0.30 -0.80z"/>
  <path d="M27.50 25.50 c0 -1.95 0.05 -2 1.75 -2 1.50 0 1.75 0.15 1.75 1.20 0 0.65 -0.15 1.60 -0.30 2 -0.30 0.75 -0.40 0.75 -1 -0.05 -0.65 -0.85 -0.65 -0.85 -0.70 0 0 0.45 -0.35 0.85 -0.75 0.85 -0.55 0 -0.75 -0.55 -0.75 -2z"/>
  <path d="M6 20.30 c0 -0.40 0.25 -0.90 0.50 -1.05 0.30 -0.15 0.50 0.15 0.50 0.70 0 0.60 -0.20 1.05 -0.50 1.05 -0.25 0 -0.50 -0.30 -0.50 -0.70z"/>
  <path d="M28 20.45 c0 -1.30 1.80 -5.90 3.05 -7.70 1.25 -1.90 2.50 -7.25 1.60 -7.25 -0.15 0 -0.85 0.50 -1.50 1.10 l-1.15 1.05 0 -1.75 c0 -1.15 0.25 -1.90 0.80 -2.10 1.25 -0.50 3.60 -0.35 3.95 0.25 0.20 0.25 0.20 2.05 0 4 -0.25 2.45 -0.55 3.45 -1.05 3.45 -0.45 0 -0.70 0.55 -0.70 1.45 0 0.85 -0.20 1.60 -0.45 1.75 -0.20 0.15 -0.90 1.65 -1.50 3.30 -0.85 2.25 -1.35 3 -2.10 3 -0.50 0 -0.95 -0.25 -0.95 -0.55z"/>
  <path d="M16.30 17.65 c-0.95 -4.90 -0.95 -5.15 0.10 -5.15 0.75 0 1.05 0.45 1.30 2.30 0.15 1.30 0.30 2.75 0.30 3.25 0 1.45 -1.40 1.10 -1.70 -0.40z"/>
  <path d="M20.50 17.05 c0 -0.75 0.25 -2.10 0.55 -3 0.45 -1.25 0.85 -1.55 1.95 -1.55 l1.35 0 -1.15 2.35 c-0.65 1.25 -1.20 2.60 -1.20 3 0 0.35 -0.35 0.65 -0.75 0.65 -0.50 0 -0.75 -0.50 -0.75 -1.45z"/>
  <path d="M33.50 13.75 c0 -1.85 1.20 -2.50 1.60 -0.85 0.30 1.35 -0.10 2.60 -0.90 2.60 -0.45 0 -0.70 -0.55 -0.70 -1.75z"/>
  <path d="M15.50 9.75 c0 -0.40 0.20 -1.15 0.45 -1.65 0.25 -0.45 0.70 -1.45 1.10 -2.20 1.25 -2.75 1.95 -0.65 0.70 2.25 -0.65 1.60 0.90 0.45 2.85 -2.10 1.80 -2.30 4.40 -4.05 6.10 -4.05 1.50 0 2.60 1.80 2.40 4 -0.20 1.95 -0.25 2 -2.05 2 -1.45 -0.05 -1.65 -0.15 -0.90 -0.55 0.45 -0.25 0.85 -0.70 0.85 -0.95 0 -0.95 -1.70 -0.50 -3.10 0.85 -1.10 1.05 -1.40 1.15 -1.40 0.50 0 -0.55 -0.40 -0.85 -1.25 -0.85 -1.10 0 -1.25 0.20 -1.25 1.75 0 1.75 0 1.75 -2.25 1.75 -1.70 0 -2.25 -0.20 -2.25 -0.75z"/>
  <path d="M15 5.25 c0 -0.40 0.35 -0.75 0.80 -0.75 0.70 0 0.70 0.15 0.20 0.75 -0.35 0.40 -0.70 0.75 -0.80 0.75 -0.10 0 -0.20 -0.35 -0.20 -0.75z"/>
  <path d="M9 4.60 c0 -0.55 5.25 -3.60 6.20 -3.60 1.20 0 0.95 1.90 -0.30 2.30 -0.60 0.15 -1.40 0.65 -1.80 1 -0.70 0.75 -4.10 1 -4.10 0.30z"/>
 </g>
 <g fill="#7303ab">
  <path d="M30.60 36.80 c-2 -2.10 -2.70 -3.80 -1.55 -3.80 0.75 0 0.05 -0.90 -1.20 -1.55 -1.10 -0.60 -1.10 -0.60 -0.15 0.50 0.95 1.05 0.95 1.05 -0.30 1.05 -2.05 0 -2.85 -1 -3.20 -4.20 l-0.35 -2.90 1.60 1.55 c0.85 0.85 1.70 1.55 1.90 1.55 0.15 0 0.15 -0.95 0 -2.10 -0.35 -2.50 0.50 -6.40 1.35 -6.40 0.35 0 0.90 -0.80 1.25 -1.75 0.35 -0.95 0.85 -1.75 1.10 -1.75 0.25 0 0.45 -0.55 0.45 -1.20 0 -0.70 0.35 -1.55 0.75 -2 0.40 -0.40 0.75 -1.10 0.75 -1.50 0 -0.45 0.20 -0.80 0.45 -0.80 0.25 0 0.55 -1.10 0.75 -2.50 0.25 -2.05 0.50 -2.50 1.30 -2.50 1.20 0 1.25 0.55 0.20 4 -0.45 1.55 -0.70 3.45 -0.50 4.45 0.20 1.30 0.10 1.55 -0.30 1.15 -1.05 -1.05 -1.40 -0.65 -1.45 1.80 0 1.30 -0.15 2.05 -0.30 1.75 -0.40 -1.10 -1.05 -0.70 -1.70 1.10 -0.35 0.95 -1 1.80 -1.40 1.90 -0.70 0.20 -0.70 0.25 0 0.30 1.05 0.05 1.70 2.40 0.95 3.35 -0.45 0.50 -0.40 1.05 0.15 2.20 0.45 0.80 0.60 1.50 0.40 1.50 -0.45 0 -1.25 -1.55 -1.95 -3.75 -0.50 -1.45 -0.50 -1.45 -0.55 -0.25 -0.05 0.70 -0.20 1.80 -0.40 2.45 -0.20 0.85 -0.15 1.10 0.25 0.85 0.40 -0.25 0.60 0.10 0.65 1.05 0 1.10 0.10 1.20 0.40 0.50 0.30 -0.80 0.60 -0.60 2.05 1.20 1.05 1.30 1.35 2 0.85 1.80 -0.45 -0.20 -1.20 -0.50 -1.60 -0.65 -1.40 -0.55 -0.30 1.05 1.40 2.05 1.30 0.80 1.45 1 0.70 1.15 -0.70 0.15 -0.85 0.50 -0.65 1.40 0.20 0.65 0.25 1.20 0.15 1.20 -0.10 0 -1.10 -1 -2.25 -2.20z"/>
  <path d="M9.50 36 c0 -0.25 0.20 -0.50 0.45 -0.50 0.20 0 0.65 -0.75 0.95 -1.60 0.25 -0.90 0.50 -1.25 0.55 -0.80 0.05 1.20 -0.85 3.40 -1.45 3.40 -0.25 0 -0.50 -0.20 -0.50 -0.50z"/>
  <path d="M9.75 32.20 c0.25 -0.50 0.50 -2.05 0.55 -3.45 0 -1.35 0.10 -4 0.10 -5.85 0.10 -2.60 0.25 -3.40 0.85 -3.40 0.75 0 1.45 2.60 1.35 5 0 0.70 -0.05 2.20 -0.10 3.30 0 1.60 -0.35 2.45 -1.60 3.70 -0.85 0.95 -1.35 1.25 -1.15 0.70z"/>
  <path d="M8.80 24.25 c-0.80 -0.60 -0.90 -1.20 -0.65 -4.85 0.15 -2.30 0.20 -3.70 0.05 -3.15 -0.65 2.25 -1.20 1.85 -1.20 -0.90 0 -1.55 -0.20 -2.85 -0.50 -2.85 -0.25 0 -0.50 0.35 -0.50 0.75 0 0.40 -0.25 0.75 -0.55 0.75 -0.35 0 -0.45 -0.40 -0.20 -1.10 0.20 -0.65 0.45 -2 0.60 -3 0.15 -1.05 0.45 -1.90 0.70 -1.90 0.20 0 0.30 -0.30 0.15 -0.70 -0.25 -0.65 2.90 -3.80 3.80 -3.80 0.30 0 0.50 0.55 0.50 1.25 0 1 -0.25 1.25 -1.25 1.25 -1.05 0 -1.25 0.25 -1.25 1.55 l0 1.55 2.60 -0.35 c2.35 -0.35 2.50 -0.30 2.15 0.55 -0.20 0.55 -0.60 1.90 -0.85 3.10 -0.30 1.25 -0.75 2.10 -1.20 2.10 -0.45 0 -0.70 0.55 -0.70 1.50 0 0.85 -0.45 2 -1 2.60 -1.20 1.30 -1.35 3.90 -0.25 3.90 0.45 0 0.75 0.45 0.75 1.25 0 1.45 0.05 1.45 -1.20 0.50z"/>
  <path d="M20.30 21.15 c-0.15 -1.05 -0.30 -2.65 -0.30 -3.50 0 -1.40 0.20 -1.65 1.15 -1.65 1.05 0 1.10 0.25 1.15 3.50 0.05 3 -0.05 3.50 -0.80 3.50 -0.60 0 -0.95 -0.55 -1.20 -1.85z"/>
  <path d="M27.50 11.05 c0 -2.10 0.50 -3.05 1.55 -3.05 1.15 0 1.20 1.05 0.20 3 -1 1.90 -1.75 1.90 -1.75 0.05z"/>
  <path d="M21.50 9.25 c0 -1.40 0.20 -1.75 1 -1.75 0.70 0 0.90 0.25 0.65 0.80 -0.25 0.65 -0.10 0.75 0.75 0.45 0.95 -0.25 1.10 -0.10 1.10 0.95 0 1.15 -0.20 1.30 -1.75 1.30 -1.65 0 -1.75 -0.10 -1.75 -1.75z"/>
  <path d="M17.50 5.25 c0 -1.60 0.10 -1.75 1.50 -1.75 l1.50 0 -1.10 1.75 c-1.45 2.20 -1.90 2.20 -1.90 0z"/>
  <path d="M30.50 5.35 c0 -1.30 0.20 -1.85 0.75 -1.85 0.40 0 0.75 -0.20 0.75 -0.45 0 -0.70 2.10 -1.05 3.10 -0.50 1.25 0.65 1.20 2.45 -0.10 2.45 -0.65 0 -1 0.35 -1 1 0 0.55 -0.20 1 -0.50 1 -0.25 0 -0.35 -0.30 -0.20 -0.70 0.45 -1.20 -0.70 -1.35 -1.75 -0.20 l-1.05 1.10 0 -1.85z"/>
  <path d="M24 3.50 c0 -0.75 1.95 -1.60 3 -1.25 1.85 0.60 1.15 1.75 -1 1.75 -1.10 0 -2 -0.20 -2 -0.50z"/>
  <path d="M13.50 2.35 c0 -0.85 0.65 -1.05 4.10 -1.55 1.35 -0.15 2.05 0 2.70 0.75 0.80 0.90 0.80 0.95 -0.35 0.95 -0.65 0 -2.40 0.15 -3.80 0.30 -2.25 0.30 -2.65 0.20 -2.65 -0.45z"/>
 </g>
 <g fill="#66358b">
  <path d="M9.20 38.35 c0.15 -0.50 0.30 -1.35 0.30 -1.85 0 -0.50 0.35 -1.05 0.80 -1.20 0.60 -0.25 0.70 -0.05 0.40 0.85 -0.20 0.60 -0.65 1.55 -1.10 2.10 -0.60 0.85 -0.70 0.90 -0.40 0.10z"/>
  <path d="M13.10 30 c0 -0.95 0.10 -1.35 0.25 -0.85 0.10 0.45 0.10 1.25 0 1.75 -0.15 0.45 -0.25 0.05 -0.25 -0.90z"/>
  <path d="M11.50 29.15 c0 -1.20 0.25 -2.15 0.50 -2.15 0.65 0 0.65 2.50 0 3.50 -0.35 0.55 -0.50 0.20 -0.50 -1.35z"/>
  <path d="M22.50 26.25 c0 -1.65 0.10 -1.75 1.80 -1.75 1.05 0 1.65 0.20 1.45 0.50 -0.20 0.30 -0.55 0.40 -0.80 0.25 -0.65 -0.45 -0.55 1.45 0.15 2.15 0.45 0.45 0.25 0.60 -1 0.60 -1.50 0 -1.60 -0.10 -1.60 -1.75z"/>
  <path d="M14.55 23.15 c-0.05 -0.85 0.25 -1.15 0.95 -1.15 0.55 0 1 0.25 1 0.50 0 0.30 -0.30 0.50 -0.70 0.50 -0.40 0 -0.85 0.30 -0.95 0.65 -0.15 0.30 -0.30 0.10 -0.30 -0.50z"/>
  <path d="M34.40 15.50 c-1.10 -1 -1.15 -1.50 -0.20 -1.50 0.35 0 0.80 0.50 0.95 1.10 0.40 1.40 0.30 1.45 -0.75 0.40z"/>
 </g>
 <g fill="#6401d2">
  <path d="M31.20 37.45 c-1.45 -1.60 -7.20 -5.50 -7.20 -4.85 0 0.35 -0.25 0.30 -0.75 -0.10 -0.40 -0.35 -0.75 -0.90 -0.75 -1.25 0 -0.30 -0.45 -1 -1.05 -1.55 -1.10 -1 -4.45 -5.80 -4.45 -6.40 0 -0.15 0.55 -0.30 1.25 -0.30 0.80 0 1.55 0.50 2.10 1.35 0.50 0.75 1.30 1.80 1.80 2.25 0.45 0.50 0.85 1.05 0.85 1.30 0.05 0.50 2.40 2.15 3.25 2.30 0.40 0.05 0.90 0.30 1.10 0.55 0.25 0.20 0.05 0.25 -0.35 0 -0.40 -0.25 -0.20 0.20 0.45 0.90 0.70 0.75 1.45 1.35 1.70 1.35 0.30 0 0.15 -0.40 -0.30 -0.90 -0.90 -1 -1.15 -4.10 -0.35 -4.10 0.30 0 0.50 0.15 0.50 0.40 0 0.20 1.10 1.55 2.45 3 1.85 2 2.20 2.60 1.40 2.35 -0.60 -0.15 -1.55 -0.45 -2.05 -0.60 -1.55 -0.50 -0.45 0.75 2.10 2.40 2.20 1.35 2.25 1.45 0.75 1.15 -1.45 -0.30 -1.55 -0.20 -1.30 0.75 0.35 1.30 0.05 1.35 -1.15 0z"/>
  <path d="M10.50 30.10 c0 -0.75 0 -2.80 0 -4.60 0 -2.50 -0.15 -3 -0.50 -2.15 -0.70 1.75 -2 0.90 -1.95 -1.30 0 -2 0.80 -6.30 0.90 -5 0 0.45 0.40 0.95 0.80 1.15 0.40 0.15 0.75 0.60 0.75 1 0 0.40 0.40 0.95 0.90 1.25 0.65 0.40 0.90 1.30 1 4.40 0.15 4.55 -0.10 5.95 -1.10 6.30 -0.55 0.20 -0.75 -0.05 -0.80 -1.05z"/>
  <path d="M28 20.95 c0 -1.25 0.85 -2.95 1.50 -2.95 0.30 0 0.50 0.90 0.50 2 0 1.65 -0.15 2 -1 2 -0.70 0 -1 -0.35 -1 -1.05z"/>
  <path d="M15 21 c0 -0.25 0.35 -0.50 0.80 -0.50 0.70 0 0.80 -0.40 0.50 -3 -0.30 -2.75 -0.25 -3 0.60 -3 0.80 0 1 0.50 1.30 2.65 0.50 4.35 0.50 4.35 -1.45 4.35 -0.95 0 -1.75 -0.20 -1.75 -0.50z"/>
  <path d="M20 17.55 c0 -2.20 0.50 -3.05 1.80 -3.05 l1.15 0 -0.85 2.25 c-0.95 2.55 -2.10 3 -2.10 0.80z"/>
  <path d="M6.80 14.90 c-0.15 -1.45 -0.40 -3.60 -0.60 -4.75 -0.20 -1.55 -0.15 -2.15 0.30 -2.15 0.35 0 0.50 -0.35 0.35 -0.75 -0.35 -0.85 2.35 -3.25 3.70 -3.25 0.75 0 0.95 0.35 0.95 1.70 0 0.90 -0.30 1.95 -0.65 2.25 -0.40 0.30 -0.60 1.15 -0.45 1.95 0.25 2 -0.80 5.60 -1.65 5.60 -0.40 0 -0.75 0.30 -0.75 0.70 0 0.40 -0.20 0.85 -0.45 1 -0.25 0.20 -0.60 -0.90 -0.75 -2.30z m2.40 -3.20 c0.45 -1.20 0.35 -1.40 -0.45 -0.70 -0.85 0.70 -1 1.50 -0.30 1.50 0.25 0 0.60 -0.35 0.75 -0.80z"/>
  <path d="M32.50 15.35 c0 -1.70 0.15 -1.90 1.10 -1.75 0.65 0.10 1.20 0.55 1.30 1.10 0.15 0.60 -0.05 0.85 -0.50 0.70 -0.35 -0.15 -0.90 0.20 -1.25 0.80 -0.55 0.95 -0.60 0.90 -0.65 -0.85z"/>
  <path d="M30.15 14.90 c0.95 -2.30 1.85 -2.40 1.85 -0.20 0 1.60 -0.15 1.80 -1.25 1.80 -1.20 0 -1.25 -0.05 -0.60 -1.60z"/>
  <path d="M23 12.60 c0 -1.25 -0.20 -1.60 -1 -1.60 -0.85 0 -1 -0.35 -1 -1.95 0 -2.95 1.60 -4.45 5.15 -4.85 2.70 -0.30 2.85 -0.25 2.85 0.75 0 0.75 0.30 1.05 1.20 1.05 1.15 0 1.15 0 0.35 1.75 -0.90 1.90 -2.05 2.30 -2.05 0.75 0 -0.55 -0.20 -1 -0.50 -1 -0.25 0 -0.50 0.45 -0.50 1 0 0.55 -0.30 1 -0.70 1 -0.50 0 -0.65 0.60 -0.50 2.40 0.05 1.30 0.05 1.85 -0.10 1.25 -0.35 -1.40 -0.60 -1.45 -2.05 -0.05 l-1.15 1.05 0 -1.55z m4.25 -6.65 c-0.50 -0.80 -1.55 -0.50 -2.95 0.85 -2.20 2.20 -1.60 2.95 0.95 1.20 1.25 -0.85 2.15 -1.75 2 -2.05z"/>
  <path d="M16 9.75 c0 -0.70 0.35 -2.10 0.75 -3.10 0.90 -2.20 0.65 -2.65 -0.85 -1.35 -1 0.90 -1.05 0.90 -0.75 0.05 0.20 -0.50 0.35 -1.05 0.35 -1.15 0 -0.10 0.80 -0.20 1.75 -0.20 2 0 2.25 0.75 0.90 3.05 -0.95 1.65 -0.45 2.70 0.65 1.25 0.65 -0.90 0.70 -0.85 0.70 0.85 0 1.80 -0.05 1.85 -1.75 1.85 -1.55 0 -1.75 -0.15 -1.75 -1.25z"/>
  <path d="M12 3 c0 -0.60 1.70 -1.50 3.30 -1.80 0.90 -0.15 1.20 0 1.20 0.75 0 0.50 -0.35 1.10 -0.80 1.25 -1.25 0.45 -3.70 0.35 -3.70 -0.20z"/>
 </g>
 <g fill="#8c01b7">
  <path d="M28.15 34.35 c-1.65 -0.95 -3.15 -3.10 -3.15 -4.60 0 -1.15 0.15 -1.30 1.15 -1.10 0.60 0.20 1.35 0.15 1.65 -0.05 0.60 -0.40 0.35 -4.10 -0.30 -4.10 -0.25 0 -0.15 -0.80 0.15 -1.75 0.30 -0.95 0.80 -1.75 1.20 -1.75 0.35 0 0.65 -0.55 0.65 -1.15 0 -1.45 1.55 -3.35 2.70 -3.35 0.45 0 0.80 0.40 0.80 1 0 0.55 -0.20 1 -0.45 1 -0.25 0 -0.75 0.80 -1.10 1.75 -0.35 0.95 -0.95 1.75 -1.30 1.75 -0.35 0 -0.65 0.35 -0.65 0.75 0 0.40 0.30 0.75 0.70 0.75 0.90 0 1.45 2.10 0.65 2.60 -0.45 0.25 -0.45 0.70 0 1.95 0.35 0.90 0.55 1.70 0.50 1.80 -0.25 0.20 -1.15 -1.80 -1.75 -3.85 l-0.50 -1.75 -0.05 2.35 c-0.05 1.95 0.20 2.60 1.45 4 1.55 1.70 2.15 3.60 0.80 2.45 -0.45 -0.40 -0.80 -0.40 -1 -0.10 -0.20 0.25 -0.10 0.60 0.20 0.80 0.80 0.50 0.60 1.25 -0.35 1.25 -0.50 -0.05 -1.40 -0.30 -2 -0.65z m1.10 -1.85 c-0.15 -0.25 -1 -0.95 -1.90 -1.55 l-1.60 -1.10 1.45 1.55 c1.40 1.50 2.75 2.20 2.05 1.10z"/>
  <path d="M20.30 22.15 c-0.50 -3.15 -0.35 -4.65 0.40 -4.65 0.50 0 0.95 0.95 1.30 2.75 0.30 1.55 0.95 2.95 1.40 3.25 0.65 0.35 0.45 0.45 -0.95 0.50 -1.70 0 -1.85 -0.10 -2.15 -1.85z"/>
  <path d="M8.70 16.75 c0.20 -0.70 0.10 -1.25 -0.15 -1.25 -0.25 0 -0.55 0.50 -0.70 1.10 -0.50 1.75 -0.80 0.85 -0.40 -1.10 0.25 -1.30 0.65 -1.80 1.45 -1.90 0.90 -0.15 1.10 0.05 1.10 1.30 0 1.85 -0.45 3.10 -1.10 3.10 -0.30 0 -0.35 -0.55 -0.20 -1.25z"/>
  <path d="M33 14.40 c0 -1.50 0.20 -1.90 0.90 -1.90 0.60 0 0.90 0.45 0.95 1.50 0.05 1 -0.10 1.40 -0.40 1.20 -0.30 -0.20 -0.75 0 -1 0.35 -0.30 0.50 -0.45 0.10 -0.45 -1.15z"/>
  <path d="M23.50 11.90 c0 -1.85 0.05 -1.90 1.75 -1.90 1.65 0 1.75 0.10 1.75 1.75 0 0.95 -0.20 1.75 -0.50 1.75 -0.25 0 -0.50 -0.35 -0.50 -0.75 0 -1 -1 -0.95 -1.80 0.15 -0.60 0.75 -0.65 0.65 -0.70 -1z"/>
  <path d="M9.30 11.25 c0.25 -0.55 -0.05 -0.75 -1.20 -0.75 -0.85 0 -1.65 0.30 -1.75 0.65 -0.15 0.35 -0.30 0.40 -0.30 0.05 -0.05 -0.30 0.40 -1.15 1 -1.90 0.90 -1.15 1.30 -1.30 2.75 -1 1.10 0.20 1.70 0.10 1.70 -0.25 0 -0.30 0.55 -0.55 1.25 -0.55 1 0 1.15 0.20 0.85 0.95 -0.70 1.85 -2.35 3.55 -3.45 3.55 -0.80 0 -1.05 -0.20 -0.85 -0.75z"/>
  <path d="M34 9.75 c0 -1.40 0.20 -1.75 1 -1.75 1.05 0 1.20 0.50 0.70 2.40 -0.50 1.80 -1.70 1.35 -1.70 -0.65z"/>
  <path d="M28 9.25 c0 -1.40 0.20 -1.75 1 -1.75 1.10 0 1.30 1 0.50 2.55 -0.80 1.50 -1.50 1.15 -1.50 -0.80z"/>
  <path d="M17.40 5.40 c0.20 -0.85 0.10 -1 -0.55 -0.75 -0.60 0.25 -0.85 0.05 -0.85 -0.65 0 -0.80 0.35 -1 1.75 -1 1.85 0 2.20 0.70 1.25 2.55 -0.75 1.35 -2 1.25 -1.60 -0.15z"/>
  <path d="M27.50 4.15 l0 -1.80 1.15 1.05 1.20 1.10 0.90 -1 c1.20 -1.30 2.75 -1.30 2.75 0 0 0.75 -0.35 1 -1.25 1 -0.80 0 -1.25 0.30 -1.25 0.75 0 0.50 -0.55 0.75 -1.75 0.75 -1.70 0 -1.75 -0.05 -1.75 -1.85z"/>
 </g>
 <g fill="#8104d4">
  <path d="M30.15 36.15 c-2.20 -2.45 -2.70 -3.45 -1.40 -2.95 1.05 0.40 0.95 -0.30 -0.25 -1.60 -1.20 -1.25 -1.35 -4.10 -0.25 -4.10 0.40 0 0.75 0.35 0.75 0.75 0 0.40 0.90 1.65 2 2.85 1.10 1.20 1.75 2.25 1.45 2.30 -0.25 0.10 -0.80 -0.10 -1.25 -0.40 -0.40 -0.35 -0.90 -0.50 -1.10 -0.25 -0.20 0.20 0.40 1 1.30 1.75 1.05 0.85 1.45 1.50 1.15 1.75 -0.40 0.20 -0.40 0.60 -0.05 1.30 0.90 1.65 -0.15 1 -2.35 -1.40z"/>
  <path d="M24.75 31.55 c-1.30 -0.40 -3.25 -1.70 -3.25 -2.15 0 -0.55 3.10 -0.50 3.90 0.05 1.10 0.65 0.55 2.40 -0.65 2.10z"/>
  <path d="M10.75 28.85 c-0.20 -1.05 -0.25 -2.50 -0.10 -3.30 0.35 -1.65 -0.10 -3.65 -0.65 -3.30 -0.70 0.40 -1.65 -3.25 -1.35 -5.05 0.30 -1.65 -0.30 -2.80 -0.80 -1.60 -0.15 0.40 -0.30 0.25 -0.30 -0.25 -0.05 -0.50 0.50 -1.90 1.20 -3.05 l1.25 -2.15 -1.30 0.25 c-1.05 0.20 -1.25 0.10 -0.95 -0.40 0.30 -0.50 0.20 -0.60 -0.50 -0.30 -0.55 0.20 -0.25 -0.45 0.95 -1.95 1.05 -1.25 1.65 -2.25 1.40 -2.25 -0.25 0 -0.75 0.35 -1.10 0.75 -0.35 0.40 -0.95 0.75 -1.35 0.75 -1.20 0 0.15 -1.35 3.10 -3.25 3.70 -2.35 4.25 -2.45 4.25 -1 0 1 -0.25 1.25 -1.20 1.25 -0.90 0 -1.30 0.35 -1.55 1.35 -0.15 0.75 -0.60 1.55 -0.90 1.75 -0.45 0.30 -0.40 0.50 0.10 0.85 0.55 0.35 0.60 1 0.25 2.90 -0.65 3.90 -0.55 8.10 0.25 8.60 1.10 0.70 1.40 7.95 0.40 9.85 l-0.75 1.45 -0.35 -1.90z"/>
  <path d="M27.30 25.90 c-0.15 -0.65 -0.05 -1.80 0.20 -2.65 0.25 -0.80 0.85 -2.75 1.25 -4.30 0.95 -3.15 3.85 -9.05 4.60 -9.30 0.30 -0.10 0.65 0.80 0.80 1.95 0.10 1.20 0.40 2.55 0.60 3.05 0.30 0.65 0.15 0.80 -0.45 0.55 -0.50 -0.20 -0.80 -0.05 -0.85 0.35 -0.05 0.40 -0.25 0.15 -0.45 -0.55 -0.25 -0.85 -0.40 -0.95 -0.45 -0.35 -0.05 0.45 -0.25 0.85 -0.55 0.85 -0.25 0 -0.50 0.40 -0.50 0.90 0 0.45 -0.40 1.95 -0.85 3.30 -0.70 1.90 -0.75 2.50 -0.25 2.65 0.70 0.25 0.85 3.65 0.10 3.65 -0.25 0 -0.70 -0.40 -0.95 -0.85 -0.45 -0.75 -0.50 -0.70 -0.55 0.50 0 1.65 -1.25 1.85 -1.70 0.25z"/>
  <path d="M17.85 24.65 c-0.20 -0.15 -0.35 -0.95 -0.35 -1.75 0 -1.05 -0.25 -1.40 -1 -1.40 -1.15 0 -1.35 -0.75 -0.30 -1.15 0.45 -0.20 0.60 -0.70 0.45 -1.30 -0.20 -0.85 -0.05 -1.05 1.05 -1.05 1.15 0 1.30 0.20 1.30 1.75 0 1.40 0.20 1.75 1 1.75 0.80 0 1 0.35 1 1.75 0 1.60 -0.15 1.75 -1.40 1.75 -0.80 0 -1.60 -0.15 -1.75 -0.35z"/>
  <path d="M19.60 17.40 c0.15 -1.95 0.30 -2.15 1.60 -2.30 1.25 -0.15 1.40 -0.05 1.05 0.75 -0.20 0.50 -0.50 1.50 -0.65 2.30 -0.15 0.90 -0.50 1.35 -1.20 1.35 -0.80 0 -0.95 -0.30 -0.80 -2.10z"/>
  <path d="M15.80 14.40 c-0.55 -2.20 -0.30 -4.70 0.80 -7 0.65 -1.35 1.40 -2.40 1.75 -2.40 0.85 0 0.80 0.60 -0.10 1.80 -0.40 0.50 -0.70 1.40 -0.70 1.95 0 1.15 -0.40 1.50 3.45 -3.15 1.95 -2.40 5.15 -3.85 6.60 -3.05 1.30 0.70 1.10 1.45 -0.35 1.45 -0.70 0 -1.90 0.55 -2.65 1.25 -0.75 0.70 -1.85 1.25 -2.45 1.25 -1 0 -1.15 0.25 -1.15 1.75 0 1.95 -1.25 3.75 -2.60 3.75 -0.70 0 -0.90 0.40 -0.90 1.75 0 2 -1.20 2.45 -1.70 0.65z"/>
  <path d="M25.70 11.85 c-0.15 -0.40 -0.20 -1.50 -0.10 -2.45 0.15 -1.45 0.35 -1.65 1.80 -1.80 l1.65 -0.15 -0.15 2.40 c-0.15 2.20 -0.25 2.40 -1.55 2.55 -0.85 0.10 -1.45 -0.10 -1.65 -0.55z"/>
  <path d="M29.50 6.25 c0 -1.65 0.10 -1.75 1.70 -1.75 l1.70 0 -1.55 1.75 c-0.85 0.95 -1.60 1.75 -1.70 1.75 -0.10 0 -0.15 -0.80 -0.15 -1.75z"/>
 </g>
 <g fill="#9f04ce">
  <path d="M28.30 34.45 c-1.40 -0.85 -4.80 -4.25 -4.80 -4.85 0 -0.30 -0.45 -0.70 -1 -0.85 -0.75 -0.25 -1 -0.75 -1 -2.05 0 -1.55 0.10 -1.70 1.55 -1.70 1.10 0 1.50 0.20 1.30 0.70 -0.25 0.65 2 3.30 2.80 3.30 0.20 0 0.35 -1.30 0.35 -2.90 0 -2.25 0.25 -3.25 1 -4.10 0.55 -0.65 1.05 -1.75 1.05 -2.45 0.15 -2.90 0.45 -4.05 1.90 -6.85 0.95 -1.80 1.60 -3.90 1.65 -5.30 0.10 -1.70 0.35 -2.40 0.90 -2.45 0.50 0 0.55 -0.10 0.15 -0.30 -1.05 -0.40 -0.80 -2.15 0.30 -2.15 0.60 0 1.15 0.55 1.50 1.55 0.75 2.20 0.70 2.85 -0.30 3.10 -0.80 0.20 -0.80 0.25 -0.05 0.30 0.70 0.05 0.75 0.30 0.45 1.45 -0.25 0.75 -0.75 2.35 -1.10 3.60 -0.35 1.25 -0.95 2.55 -1.30 2.90 -0.35 0.35 -0.65 1 -0.65 1.45 0 0.40 -0.45 1.30 -1 2 -0.75 0.95 -1 2.05 -1 4.20 0 3.05 -0.65 3.85 -1.50 1.85 -0.35 -0.90 -0.45 -0.55 -0.45 1.60 -0.05 2.40 0.15 2.90 1.55 4.35 0.85 0.90 1.45 1.80 1.25 2 -0.20 0.15 -0.70 -0.10 -1.15 -0.65 -0.40 -0.50 -0.65 -0.70 -0.50 -0.35 0.65 1.25 -0.60 1.05 -1.95 -0.35 -1.80 -1.85 -2.55 -1.95 -1.40 -0.20 0.45 0.75 1.60 1.65 2.50 2.05 0.95 0.35 1.55 0.90 1.40 1.15 -0.40 0.65 -1.25 0.60 -2.45 -0.05z"/>
  <path d="M20 23 c0 -0.80 -0.35 -1 -1.50 -1 -1.35 0 -1.45 -0.15 -1.40 -1.75 0.05 -1.50 0.25 -1.75 1.25 -1.75 0.80 0 1.15 -0.30 1.15 -1 0 -0.65 0.35 -1 0.95 -1 0.50 0 0.90 0.30 0.90 0.65 -0.15 1.40 0.80 5.15 1.55 6 0.70 0.80 0.65 0.85 -1.05 0.85 -1.50 0 -1.85 -0.20 -1.85 -1z"/>
  <path d="M10 18.65 c0 -1.75 -0.15 -2.20 -0.50 -1.65 -0.40 0.60 -0.50 0.45 -0.50 -0.60 0 -0.80 -0.20 -1.40 -0.50 -1.40 -0.25 0 -0.50 0.25 -0.50 0.60 0 0.30 -0.15 0.45 -0.30 0.30 -0.15 -0.20 0.30 -1.55 1 -3.05 1.60 -3.30 1.60 -3.35 0.05 -3.35 -0.95 0 -1.15 -0.20 -0.90 -0.85 0.55 -1.50 1.45 -2.10 2.55 -1.80 1.05 0.25 2.60 -0.80 2.60 -1.75 0 -0.25 0.30 -0.75 0.70 -1.05 0.40 -0.35 0.60 -1 0.45 -1.50 -0.15 -0.65 0.10 -1 0.95 -1.20 1.80 -0.50 2.40 -0.40 2.40 0.40 0 0.40 0.45 0.75 1 0.75 1.40 0 1.35 2.15 -0.10 3.50 -1.30 1.20 -1.70 1 -0.90 -0.45 0.95 -1.85 -0.75 -1.25 -2.45 0.85 -0.85 1 -1.85 2.25 -2.30 2.70 -0.40 0.50 -0.85 1.45 -1.05 2.15 -0.15 0.70 -0.60 1.25 -0.95 1.25 -0.40 0 -0.55 0.40 -0.40 1 0.15 0.55 0.60 1 0.95 1 0.55 0 0.70 0.80 0.70 3.25 0 2.90 -0.10 3.25 -1 3.25 -0.85 0 -1 -0.35 -1 -2.35z"/>
  <path d="M27.50 10.65 c0 -2.55 0.55 -3.65 1.75 -3.65 l1.15 0 -0.80 2.50 c-0.85 2.70 -2.10 3.40 -2.10 1.15z"/>
 </g>
 <g fill="#7d02f5">
  <path d="M31 36.60 c-0.40 -0.65 -1.60 -1.60 -2.65 -2.15 -1.05 -0.55 -1.75 -1.20 -1.60 -1.45 0.15 -0.25 -0.90 -1.05 -2.35 -1.80 -1.45 -0.75 -2.80 -1.60 -3 -1.90 -0.15 -0.30 -0.65 -1 -1.10 -1.55 -3.05 -3.85 -3.80 -4.95 -3.80 -5.55 0 -0.35 -0.35 -0.85 -0.80 -1.10 -0.70 -0.40 -0.60 -0.50 0.60 -0.80 0.75 -0.20 1.15 -0.50 0.85 -0.70 -0.30 -0.20 -0.70 -1.75 -0.90 -3.45 -0.30 -2.95 -0.30 -3.15 0.65 -3.15 1.05 0 1.60 1.20 1.60 3.65 0 0.75 0.25 1.35 0.50 1.35 0.30 0 0.50 0.75 0.50 1.65 0 1.30 0.30 1.80 1.25 2.25 0.90 0.45 1.25 0.95 1.25 2.05 0 0.80 0.20 1.60 0.45 1.75 0.20 0.15 0.55 0.95 0.70 1.80 0.25 1.05 0.60 1.50 1.35 1.50 0.55 0 1 0.20 1 0.50 0 0.80 3.05 4 3.85 4 0.40 0 1.40 0.55 2.25 1.25 0.80 0.70 1.25 1.25 1 1.25 -0.30 0 -0.60 0.40 -0.70 0.90 -0.15 0.75 -0.30 0.70 -0.90 -0.30z"/>
  <path d="M31.15 32.50 c-0.60 -0.70 -0.95 -0.80 -1.20 -0.40 -0.60 0.95 -1.95 -0.55 -1.95 -2.15 0 -0.80 0.15 -1.45 0.40 -1.40 0.65 0.10 4.75 4.95 4.15 4.95 -0.30 0 -0.95 -0.45 -1.40 -1z"/>
  <path d="M11.15 28.10 c-0.80 -0.50 -0.20 -5.10 0.65 -5.10 0.50 0 0.70 0.70 0.70 2.45 0 2.55 -0.35 3.25 -1.35 2.65z"/>
  <path d="M9.30 19.90 c-0.55 -2.10 -0.35 -2.90 0.70 -2.90 0.85 0 1 0.35 1 2 0 2.25 -1.15 2.85 -1.70 0.90z"/>
  <path d="M20.70 14.70 c0.20 -1.60 0.70 -3.30 1.15 -3.80 0.75 -0.85 0.70 -0.90 -0.50 -0.90 -1.05 0 -1.40 -0.30 -1.65 -1.35 -0.30 -1.15 0 -1.65 2.30 -3.75 2.85 -2.65 4.65 -3.05 4.90 -1 0.10 0.65 0.50 1.10 1.10 1.10 0.90 0 1.50 1.30 1.50 3.55 0 1.45 -3.45 5.80 -3.50 4.35 0 -1.75 -0.95 -1.30 -2.70 1.35 -2.60 3.90 -3 4 -2.60 0.45z m4.70 -6.70 c2.30 -1.65 2.65 -2.50 1.05 -2.50 -1.05 0 -3.95 2.50 -3.95 3.45 0 0.90 0.70 0.65 2.90 -0.95z"/>
  <path d="M15.80 11.25 c-0.35 -1.40 1.80 -6.75 2.70 -6.75 0.70 0 0.60 1.10 -0.25 2.20 -0.45 0.55 -0.75 2.05 -0.75 3.40 0 2.65 -1.15 3.40 -1.70 1.15z"/>
  <path d="M8.40 8.65 c-0.10 -0.50 0.20 -1.35 0.70 -1.85 0.50 -0.55 0.80 -1.35 0.65 -1.80 -0.20 -0.60 0.45 -1.20 2.20 -2.15 3 -1.65 3.05 -1.65 3.05 -0.10 0 0.90 -0.25 1.25 -1 1.25 -0.70 0 -1 0.35 -1 1.15 0 0.70 -0.70 1.85 -1.75 2.75 -1.95 1.80 -2.60 1.95 -2.85 0.75z"/>
 </g>
 <g fill="#8248ad">
  <path d="M21.30 27.60 c-0.10 -0.20 -0.40 -1.80 -0.60 -3.50 -0.30 -2.75 -0.25 -3.10 0.55 -3.10 0.55 0 0.75 0.25 0.60 0.70 -0.25 0.65 0.75 1.45 1.95 1.55 0.90 0.05 2.25 1.65 1.70 2 -0.25 0.15 -0.50 0.20 -0.50 0.05 0 -0.15 -0.40 0.10 -0.90 0.60 -0.80 0.75 -0.80 0.90 -0.10 1.45 0.65 0.50 0.50 0.60 -0.85 0.65 -0.85 0 -1.70 -0.20 -1.85 -0.40z"/>
  <path d="M14.60 21.95 c0.10 -0.60 0.65 -1.30 1.30 -1.50 1.05 -0.40 1.15 -0.30 1 0.95 -0.10 1 -0.45 1.40 -1.30 1.50 -0.95 0.15 -1.15 0 -1 -0.95z"/>
 </g>
 <g fill="#b2537a">
  <path d="M21.50 27.25 c0 -0.40 -0.20 -0.75 -0.50 -0.75 -0.25 0 -0.50 -0.50 -0.50 -1.15 0 -2 -2.50 -3.45 -2.50 -1.45 -0.05 0.80 -0.10 0.75 -0.75 -0.10 -0.45 -0.60 -1.05 -0.85 -1.75 -0.65 -1.85 0.50 -1.05 -1.75 1 -2.75 0.95 -0.50 1.45 -0.90 1.15 -0.90 -0.35 0 -0.65 -0.20 -0.65 -0.50 0 -0.25 0.70 -0.50 1.50 -0.50 1.40 0 1.50 0.15 1.50 1.80 0 1.55 0.10 1.75 1 1.45 0.70 -0.20 1 -0.10 0.90 0.35 -0.10 0.35 0.55 0.85 1.50 1.10 0.85 0.30 1.60 0.70 1.60 0.95 0 1.05 -1.15 2.40 -1.80 2.15 -1.45 -0.55 -0.65 0.25 0.95 0.95 l1.60 0.70 -2.10 0.05 c-1.60 0 -2.15 -0.20 -2.15 -0.75z"/>
  <path d="M25.90 13.20 c-0.30 -2.15 0.60 -3.70 2.20 -3.70 1.40 0 1.15 2.25 -0.55 4.10 l-1.40 1.60 -0.25 -2z"/>
 </g>
 <g fill="#c38142">
  <path d="M22.10 25.65 c0.15 -1.65 0.35 -1.90 1.50 -2.05 1.15 -0.15 1.30 0 1.05 0.95 -0.15 0.60 -0.75 1.20 -1.30 1.35 -0.95 0.25 -0.95 0.30 -0.10 0.95 0.90 0.60 0.90 0.65 -0.20 0.65 -1 0 -1.10 -0.20 -0.95 -1.85z"/>
  <path d="M25.90 12.70 c-0.20 -1.85 0.40 -2.80 1.15 -1.65 0.35 0.60 0.45 0.55 0.50 -0.05 0 -0.50 0.15 -0.40 0.40 0.25 0.25 0.65 0.15 1.40 -0.35 2.15 -1 1.55 -1.45 1.40 -1.70 -0.70z"/>
 </g>
 <g fill="#9e04f3">
  <path d="M30.25 35.85 c-2.20 -2.35 -5.65 -5.05 -6.85 -5.35 -0.60 -0.15 -1.20 -0.60 -1.40 -1 -0.20 -0.40 -0.60 -1.30 -0.95 -1.90 -0.35 -0.70 -0.45 -1.80 -0.30 -2.70 0.25 -1 0.20 -1.40 -0.15 -1.20 -0.30 0.15 -0.65 0.10 -0.85 -0.20 -0.50 -0.80 -1.75 -0.55 -1.75 0.35 0 0.75 -0.10 0.70 -0.70 -0.15 -0.65 -0.85 -0.65 -1 0.10 -1.25 0.65 -0.25 0.55 -0.45 -0.65 -1.10 l-1.50 -0.80 2 -0.05 c1.75 -0.05 1.85 -0.15 0.90 -0.60 -1.10 -0.55 -1.40 -1.70 -1.95 -7.90 -0.25 -2.65 -0.15 -3.40 0.50 -3.95 0.70 -0.60 0.80 -0.50 0.80 1 l0 1.65 1 -1.10 c0.55 -0.60 1 -1.25 1 -1.50 0 -0.25 0.60 -0.95 1.30 -1.65 l1.35 -1.20 -0.35 1.40 c-0.45 1.85 0.75 3.15 2.15 2.35 0.55 -0.25 1.10 -0.50 1.25 -0.50 0.40 0 -1.70 3.95 -2.25 4.30 -0.25 0.15 -0.35 0.50 -0.15 0.75 0.15 0.25 -0.20 1.30 -0.75 2.25 -1.15 1.90 -1.40 4.45 -0.50 4.95 0.30 0.20 0.40 0.65 0.25 1 -0.15 0.40 0.05 0.95 0.45 1.25 0.40 0.30 0.55 0.90 0.40 1.30 -0.15 0.45 0.10 0.70 0.65 0.70 0.90 0.05 0.90 0.05 0 0.75 -0.90 0.70 -0.90 0.75 0.80 1.45 0.95 0.40 2 1.10 2.40 1.50 0.80 1 1.70 1.05 1.30 0.05 -0.15 -0.45 0 -0.75 0.40 -0.75 0.70 0 2.15 3.80 1.60 4.35 -0.15 0.20 -1.35 -0.65 -2.60 -1.90 -1.75 -1.65 -2.15 -1.90 -1.70 -0.95 0.95 1.85 3.05 4 4 4 1.20 0 2.60 1.75 2.40 2.95 -0.15 0.95 -0.25 0.95 -1.65 -0.60z m-9.75 -22.90 c0 -0.85 -0.15 -0.90 -1 -0.45 -0.70 0.35 -1 1.05 -1 2.15 l0.05 1.60 0.95 -1.20 c0.55 -0.65 1 -1.60 1 -2.10z"/>
  <path d="M10.95 23.40 c-0.30 -1.20 -0.75 -2.25 -0.95 -2.40 -0.25 -0.15 -0.65 -1.90 -0.90 -3.90 -0.45 -3.25 -0.40 -3.90 0.50 -5.90 0.55 -1.25 0.85 -2.40 0.70 -2.55 -0.15 -0.20 -0.30 -0.05 -0.30 0.25 0 0.35 -0.35 0.60 -0.75 0.60 -1.25 0 -0.85 -1.60 0.85 -3.35 1.35 -1.40 1.45 -1.65 0.65 -1.65 -1.15 0 -0.65 -0.55 1.90 -1.95 2.30 -1.30 3.35 -1.35 3.35 -0.15 0 0.90 -2.55 3.60 -3.40 3.60 -0.30 0 -0.60 0.95 -0.75 2.15 -0.15 1.15 -0.50 3.30 -0.85 4.75 -0.35 1.75 -0.40 2.90 -0.10 3.25 0.50 0.60 0.75 1.75 1.40 6.75 0.40 3.25 -0.50 3.55 -1.35 0.50z"/>
  <path d="M27.50 24.40 c0.05 -1.95 0.65 -2.90 2 -2.90 1.20 0 1.35 0.20 1.40 1.75 0.05 1.25 -0.15 1.75 -0.65 1.75 -0.40 0 -0.75 -0.40 -0.75 -0.85 -0.05 -0.85 -0.05 -0.85 -0.55 0 -0.60 1 -1.45 1.15 -1.45 0.25z"/>
  <path d="M28.50 20.20 c0 -1.05 0.90 -2.70 1.50 -2.70 0.30 0 0.50 0.80 0.50 1.75 0 1.40 -0.20 1.75 -1 1.75 -0.55 0 -1 -0.35 -1 -0.80z"/>
  <path d="M25.85 11.70 c-0.20 -0.20 0.20 -0.95 0.85 -1.70 1.40 -1.70 1.25 -4.50 -0.25 -4.50 -0.55 0 -0.95 -0.20 -0.95 -0.50 0 -0.25 -0.35 -0.50 -0.75 -0.50 -0.65 0 -0.70 -0.20 -0.25 -1 0.75 -1.35 3.20 -1.35 4.20 0.05 0.40 0.60 0.95 0.90 1.25 0.70 0.30 -0.15 0.55 0.05 0.55 0.45 0 0.45 -0.20 0.80 -0.50 0.80 -0.25 0 -0.50 0.75 -0.50 1.70 0 0.90 -0.15 2.40 -0.30 3.25 -0.25 1.30 -0.55 1.55 -1.70 1.55 -0.70 0 -1.50 -0.15 -1.65 -0.30z"/>
  <path d="M17.70 5.60 c0.25 -1.50 0.20 -1.65 -0.70 -1.35 -0.55 0.20 -1 0.10 -1 -0.20 0 -0.65 3.30 -0.75 3.70 -0.15 0.15 0.25 -0.30 1.05 -1 1.90 l-1.25 1.45 0.25 -1.65z"/>
 </g>
 <g fill="#ba01ea">
  <path d="M26.15 31.70 c-2.70 -2.65 -4.15 -4.40 -3.75 -4.55 0.35 -0.15 1 -0.10 1.50 0.10 0.45 0.15 0.95 0.30 1 0.25 0.10 -0.05 0.85 0.50 1.60 1.25 l1.40 1.35 -0.25 -3 c-0.30 -3.15 0.85 -8 2.95 -12.45 0.85 -1.80 1.25 -2.15 2.45 -2.15 1.10 0 1.45 0.25 1.45 0.95 0 0.50 -0.35 1.20 -0.75 1.55 -0.40 0.35 -0.75 0.95 -0.75 1.35 0 0.35 -0.45 1.30 -1.05 2.10 -0.70 0.95 -1 2.15 -1.05 3.95 0 1.90 -0.20 2.60 -0.70 2.60 -0.40 0 -0.70 -0.50 -0.75 -1.10 l0 -1.15 -0.50 1.15 c-0.45 1.15 -0.05 4.70 0.80 7.50 0.55 1.70 -0.40 1.35 -2.45 -0.90 -2 -2.25 -2.60 -2.55 -1.75 -0.85 0.90 1.75 3.05 3.85 3.95 3.85 0.95 0 2 0.95 2 1.85 0 1.25 -1 0.60 -5.35 -3.65z"/>
  <path d="M20.80 26.05 c-0.45 -0.70 0.20 -2.05 1 -2.05 0.35 0 0.90 0.45 1.15 0.95 0.40 0.75 0.35 1 -0.25 1.25 -1.10 0.40 -1.60 0.40 -1.90 -0.15z"/>
  <path d="M17.50 21.50 c0 -1.20 1.75 -1.40 2.20 -0.20 0.45 1.15 0.40 1.20 -0.95 1.20 -0.90 0 -1.25 -0.25 -1.25 -1z"/>
  <path d="M9.85 18.10 c-1.05 -1.15 -1.10 -4.30 -0.10 -7.10 0.40 -1.15 0.75 -2.60 0.75 -3.15 0 -1 0 -1 -0.70 -0.05 -0.40 0.50 -0.85 0.80 -1 0.65 -0.20 -0.15 0.15 -0.90 0.75 -1.60 1.10 -1.45 2.95 -1.80 2.95 -0.60 0 0.40 0.35 0.75 0.75 0.75 0.70 0 0.70 0.20 0 1.75 -0.40 1 -1 3.70 -1.30 6 -0.35 2.35 -0.75 4.25 -0.95 4.25 -0.20 0 -0.70 -0.40 -1.15 -0.90z"/>
  <path d="M19 18 c0 -0.25 -0.45 -0.50 -1 -0.50 -0.80 0 -1 -0.35 -1 -1.75 0 -0.95 -0.20 -1.75 -0.50 -1.75 -1.20 0 -0.30 -1.85 1.55 -3.10 2.05 -1.45 3.20 -1.70 4.45 -0.90 0.60 0.35 0.60 0.70 0.10 2.15 -0.35 0.90 -0.60 2 -0.60 2.35 0 0.80 -2.10 4 -2.60 4 -0.25 0 -0.40 -0.20 -0.40 -0.50z m1 -4.55 c0 -0.90 -0.10 -0.95 -0.75 -0.45 -0.75 0.60 -0.60 1.50 0.30 1.50 0.25 0 0.45 -0.50 0.45 -1.05z"/>
  <path d="M26.05 11.80 c-0.45 -0.55 -0.45 -0.80 0 -1.05 0.30 -0.20 0.75 -0.05 1.05 0.30 0.35 0.55 0.40 0.45 0.30 -0.30 -0.05 -0.55 0.05 -1.30 0.25 -1.60 0.65 -1.05 -0.20 -4.10 -1.35 -4.95 -0.90 -0.60 -0.95 -0.80 -0.30 -1.20 1.10 -0.70 1.35 -0.65 2.50 0.60 0.80 0.85 1.15 0.95 1.60 0.50 0.35 -0.35 1.30 -0.60 2.20 -0.60 0.90 0 1.70 -0.30 1.85 -0.60 0.15 -0.50 0.35 -0.50 1 0.05 1 0.80 1.10 2.35 0.25 2.70 -0.40 0.15 -0.30 0.30 0.25 0.30 1 0.05 1.05 0.65 0.25 2.90 -0.60 1.65 -1.90 2.30 -1.90 0.90 0 -0.40 -0.25 -0.75 -0.55 -0.75 -0.35 0 -0.45 -0.60 -0.25 -1.70 0.75 -4.10 -2.55 -1.75 -3.90 2.70 -0.70 2.40 -2.10 3.20 -3.25 1.80z"/>
  <path d="M18 4.70 c0 -0.50 -0.30 -0.70 -0.75 -0.50 -0.40 0.15 -0.75 0.05 -0.75 -0.25 0 -0.30 -0.50 -0.15 -1.10 0.25 -0.60 0.45 -1.75 0.80 -2.50 0.80 -1.20 0 -1.35 -0.10 -0.85 -0.85 1.40 -2.30 5.95 -4.15 5.95 -2.45 0 0.45 0.40 0.80 1 0.80 1.15 0 1.35 1.45 0.40 2.40 -0.85 0.85 -1.40 0.75 -1.40 -0.20z"/>
 </g>
 <g fill="#da01da">
  <path d="M24.80 30.40 c-1 -1.15 -1.80 -2.25 -1.80 -2.50 0 -1 1.05 -0.20 2.70 2.10 2.20 3.05 1.55 3.30 -0.90 0.40z"/>
  <path d="M29.75 17.05 c1.40 -4 2.20 -5.05 3.75 -5.05 1.70 0 1.65 0.10 -0.70 4.40 -1.10 1.95 -1.75 2.60 -2.60 2.60 -1.15 0 -1.15 -0.05 -0.45 -1.95z"/>
  <path d="M27.60 10.25 c-0.05 -0.65 0.10 -1.30 0.35 -1.45 0.25 -0.20 0.25 -1.10 0 -2.15 -0.25 -1.05 -0.45 -2.35 -0.45 -2.85 0 -0.90 0.05 -0.90 1 -0.05 0.90 0.80 1 0.80 2.30 -0.20 1.75 -1.35 2.20 -1.35 2.20 0.20 0 0.75 -0.30 1.25 -0.70 1.25 -0.70 0 -3.30 4.60 -3.30 5.85 0 1.20 -1.30 0.65 -1.40 -0.60z"/>
  <path d="M32.75 10.15 c0.65 -3.15 0.85 -3.65 1.50 -3.65 0.55 0 0.75 0.60 0.75 2.25 0 2.05 -0.10 2.25 -1.20 2.25 -0.90 0 -1.15 -0.25 -1.05 -0.85z"/>
  <path d="M15 3.95 c0 -1.30 0.15 -1.45 1.75 -1.45 2.25 0 2.25 1 0 2.05 l-1.75 0.80 0 -1.40z"/>
  <path d="M19 3.35 c0 -1.35 0.20 -1.85 0.75 -1.85 1.30 0 1.45 1.50 0.30 2.65 l-1.05 1.05 0 -1.85z"/>
 </g>
 <g fill="#d601f7">
  <path d="M23.60 28.95 c-0.35 -0.55 -0.55 -1.20 -0.40 -1.35 0.50 -0.45 1.40 0.75 1.20 1.60 -0.10 0.70 -0.25 0.65 -0.80 -0.25z"/>
  <path d="M27.75 26.35 c-0.45 -1.10 0.45 -5.55 1.80 -8.65 0.80 -1.75 1.25 -2.20 2.20 -2.20 1.20 0 1.30 0.80 0.25 2.25 -1.45 2.05 -3.25 5.85 -3.50 7.50 -0.25 1.55 -0.40 1.80 -0.75 1.10z"/>
  <path d="M9.40 16.70 c-0.40 -0.60 0.20 -4.80 1.10 -7.70 0.65 -2.15 0.65 -2 -0.35 -2 -1.85 0 4.35 -5.35 6.80 -5.80 1.30 -0.30 1.55 -0.15 1.55 0.65 0 0.65 -0.60 1.20 -1.75 1.65 -0.95 0.40 -1.70 0.95 -1.65 1.20 0.10 0.30 -0.35 1.35 -0.95 2.35 -0.60 0.95 -1.50 3.40 -2 5.35 -0.60 2.30 -1.10 3.55 -1.50 3.40 -0.30 -0.15 -0.65 0.15 -0.75 0.60 -0.10 0.55 -0.30 0.65 -0.50 0.30z"/>
  <path d="M17.30 15.90 c-0.50 -1.90 -0.35 -3.75 0.35 -4.30 0.35 -0.35 1.45 -0.65 2.40 -0.70 l1.70 -0.15 -0.15 2.45 c-0.15 2.80 -0.90 4.10 -1.85 3.30 -0.45 -0.40 -0.75 -0.40 -1 0 -0.50 0.85 -1.10 0.60 -1.45 -0.60z"/>
  <path d="M31.50 13.25 c0.25 -0.70 0.80 -1.85 1.20 -2.65 0.35 -0.75 0.70 -2 0.70 -2.80 0 -0.75 0.30 -1.60 0.65 -1.85 0.60 -0.40 0.60 -0.50 0 -0.90 -0.35 -0.25 -1.05 -0.35 -1.50 -0.20 -1.10 0.30 -3 3.30 -3.45 5.55 -0.30 1.40 -0.65 1.90 -1.50 2 -0.85 0.15 -1.10 -0.10 -1.10 -1 0 -0.85 0.15 -0.95 0.45 -0.45 0.25 0.40 0.55 0.45 0.75 0.15 0.15 -0.30 0.10 -0.70 -0.20 -0.85 -0.40 -0.25 -0.35 -0.60 0.10 -1.10 0.75 -0.95 0.60 -2.90 -0.40 -4.45 -1.10 -1.60 0.15 -2.25 1.40 -0.70 l0.90 1.10 1.30 -1.30 c0.85 -0.80 1.90 -1.30 2.80 -1.30 1.20 0 1.60 0.30 2.25 1.85 0.60 1.50 0.65 2.20 0.20 3.45 -0.30 0.85 -0.55 1.95 -0.55 2.50 0 1.75 -1.90 4.20 -3.25 4.20 -1.10 0 -1.20 -0.10 -0.75 -1.25z"/>
  <path d="M18.50 4.80 c0 -0.40 -0.40 -0.85 -0.85 -0.95 -0.50 -0.15 0 -0.25 1.05 -0.30 1.90 -0.05 1.95 -0.05 1.05 0.95 -1.10 1.20 -1.25 1.25 -1.25 0.30z"/>
 </g>
 <g fill="#ba48d9">
  <path d="M21.20 25.90 c-0.60 -1 -0.45 -3.05 0.25 -3.30 0.35 -0.10 0.75 0.25 0.90 0.85 0.15 0.60 0.60 1.05 0.95 1.05 1 0 0.85 0.90 -0.25 1.50 -1.25 0.65 -1.40 0.65 -1.85 -0.10z"/>
  <path d="M16.85 23.15 c-0.90 -1 -0.60 -1.80 0.85 -2.30 1.10 -0.45 2.30 0.45 2.30 1.70 0 0.65 -0.25 0.80 -0.80 0.60 -0.45 -0.15 -0.95 -0.05 -1.15 0.30 -0.25 0.40 -0.60 0.30 -1.20 -0.30z"/>
  <path d="M26.35 12.30 c-0.70 -1.05 -0.70 -1.25 -0.10 -1.50 0.40 -0.15 0.75 -0.05 0.75 0.15 0 0.25 0.45 0.35 1 0.20 1.25 -0.35 1.30 0.45 0.05 1.55 -0.85 0.80 -0.95 0.75 -1.70 -0.40z"/>
  <path d="M27.30 10.05 c-0.15 -0.20 0.15 -0.80 0.65 -1.25 1.05 -0.95 1.75 -0.40 1.25 0.90 -0.35 0.85 -1.45 1.10 -1.90 0.35z"/>
 </g>
 <g fill="#f602f5">
  <path d="M29.25 19.15 c0.15 -0.80 1.20 -3.35 2.30 -5.70 2.30 -5.10 2.70 -8.65 0.85 -8.35 -0.95 0.15 -2.65 2.50 -3.55 5 -0.20 0.50 -0.35 0.55 -0.90 0.05 -0.50 -0.50 -0.50 -0.80 -0.05 -1.25 0.75 -0.75 0.80 -3 0.05 -3.75 -0.35 -0.35 -0.30 -0.60 0.25 -0.80 0.55 -0.20 0.80 -0.05 0.80 0.50 0 0.65 0.35 0.50 1.45 -0.55 3.20 -3.10 6.80 -0.70 5.55 3.60 -0.25 0.75 -0.70 2.25 -1 3.35 -0.75 2.40 -4.85 9.25 -5.60 9.25 -0.30 0 -0.40 -0.55 -0.15 -1.35z"/>
  <path d="M20 14.30 c0 -0.40 0.25 -0.90 0.50 -1.05 0.30 -0.15 0.50 0.15 0.50 0.70 0 0.60 -0.20 1.05 -0.50 1.05 -0.25 0 -0.50 -0.30 -0.50 -0.70z"/>
  <path d="M26.50 12.15 c0 -0.60 0.35 -0.95 1 -0.95 1.25 0 1.15 1.45 -0.15 1.70 -0.55 0.10 -0.85 -0.15 -0.85 -0.75z"/>
  <path d="M10 11.85 c0 -0.40 0.30 -1.75 0.70 -3 0.45 -1.50 0.50 -2.35 0.20 -2.45 -1 -0.35 4.65 -4.85 6.45 -5.20 1.80 -0.35 3.15 0.10 3.50 1.15 0.30 0.80 -1.85 3.05 -2.15 2.30 -0.80 -1.90 -5.05 1.55 -6.20 5.05 -0.55 1.70 -2.50 3.35 -2.50 2.15z"/>
 </g>
 <g fill="#f2b050">
  <path d="M21 24.25 c0 -1.75 0.40 -2.15 1.30 -1.30 0.25 0.25 0.95 0.55 1.60 0.65 1.05 0.15 1.10 0.20 0.35 1.30 -0.45 0.60 -1.35 1.10 -2.05 1.10 -1.05 0 -1.20 -0.25 -1.20 -1.75z"/>
  <path d="M17.50 23.15 c0 -0.40 -0.65 -0.65 -1.50 -0.65 -0.80 0 -1.50 -0.20 -1.50 -0.40 0 -1.70 4.10 -2.25 5 -0.65 0.70 1.40 0.65 1.70 -0.35 1.35 -0.45 -0.20 -1 -0.05 -1.25 0.30 -0.30 0.50 -0.40 0.50 -0.40 0.05z"/>
  <path d="M26.35 12.40 c-0.35 -1.35 -0.25 -1.50 0.85 -1.10 0.45 0.20 0.80 0.65 0.70 1.10 -0.25 1.25 -1.25 1.25 -1.55 0z"/>
 </g>
 <g fill="#e39d90">
  <path d="M21.50 23.95 c-0.75 -1.30 -0.30 -1.80 0.70 -0.80 0.50 0.45 1.20 0.65 1.90 0.45 1.10 -0.25 1.10 -0.25 0.30 0.55 -1.10 1.15 -2.25 1.05 -2.90 -0.20z"/>
  <path d="M14.50 22.60 c0 -1.30 0.65 -1.70 2.85 -1.85 1.20 -0.05 1.85 0.15 2.15 0.80 0.70 1.25 0.60 1.45 -0.30 1.10 -0.45 -0.15 -1 0 -1.20 0.35 -0.35 0.55 -0.55 0.55 -1.20 0.05 -0.65 -0.55 -0.95 -0.55 -1.55 -0.05 -0.65 0.50 -0.75 0.45 -0.75 -0.40z"/>
  <path d="M26.35 12 c-0.20 -0.90 -0.10 -1 0.80 -0.70 1.40 0.40 1.50 0.55 1.10 1.15 -0.50 0.90 -1.60 0.60 -1.90 -0.45z"/>
 </g>
 <g fill="#e579be">
  <path d="M22.50 24.65 c-0.80 -0.30 -1.50 -1.15 -1.50 -1.80 0 -0.20 0.55 -0.05 1.20 0.40 0.70 0.45 1.55 0.65 2.10 0.40 0.90 -0.30 0.90 -0.30 0.10 0.50 -0.45 0.45 -0.90 0.85 -1 0.80 -0.10 0 -0.50 -0.15 -0.90 -0.30z"/>
  <path d="M14.75 22 c-0.15 -0.30 0.20 -0.50 0.85 -0.50 0.65 0 1.45 -0.25 1.75 -0.55 0.75 -0.75 2.15 -0.20 2.15 0.80 0 0.55 -0.55 0.75 -2.20 0.75 -1.25 0 -2.40 -0.20 -2.55 -0.50z"/>
  <path d="M27.50 9.50 c0 -0.25 0.35 -0.50 0.75 -0.50 0.40 0 0.75 0.25 0.75 0.50 0 0.30 -0.35 0.50 -0.75 0.50 -0.40 0 -0.75 -0.20 -0.75 -0.50z"/>
 </g>
 <g fill="#fcd670">
  <path d="M21.45 23.90 c-0.50 -0.95 -0.45 -1 0.35 -0.65 0.55 0.20 1.30 0.40 1.75 0.45 1.15 0.05 0.55 1.30 -0.60 1.30 -0.50 0 -1.15 -0.50 -1.50 -1.10z"/>
  <path d="M16 21.80 c0 -0.90 2 -1.40 2.85 -0.70 1.10 0.90 0.70 1.40 -1.10 1.40 -1.15 0 -1.75 -0.25 -1.75 -0.70z"/>
  <path d="M26.50 12.85 c0 -1 0.25 -1.35 1 -1.35 0.55 0 1 0.20 1 0.40 0 0.25 -0.45 0.85 -1 1.35 -1 0.90 -1 0.85 -1 -0.40z"/>
 </g>
 <g fill="#fbdf98">
  <path d="M14.75 22 c-0.35 -0.55 1.70 -1.15 3.30 -0.90 0.60 0.10 1.20 0.45 1.35 0.80 0.25 0.75 -4.20 0.85 -4.65 0.10z"/>
 </g>
 <g fill="#f4c3e5">
 </g>
</svg>