<?xml version="1.0" encoding="utf-8"?>
<!DOCTYPE svg PUBLIC "-//W3C//DTD SVG 1.0//EN" "http://www.w3.org/TR/2001/REC-SVG-20010904/DTD/svg10.dtd">
<svg version="1.0" xmlns="http://www.w3.org/2000/svg" width="40px" height="40px" viewBox="0 0 40 40" preserveAspectRatio="xMidYMid meet">
 <g fill="#0b0300">
 </g>
 <g fill="#2d1200">
  <path d="M28.25 30.50 c-0.15 -0.25 -0.95 -0.50 -1.70 -0.50 -0.85 0 -1.80 -0.50 -2.45 -1.25 -0.95 -1.05 -1.10 -1.85 -1.10 -5.25 0 -5.30 1 -7.50 3.35 -7.50 1.50 0 1.65 0.15 1.65 1.50 0 0.85 0.25 1.50 0.50 1.50 0.30 0 0.50 0.80 0.50 1.75 0 1.20 -0.25 1.75 -0.75 1.75 -0.40 0 -0.75 0.35 -0.75 0.75 0 0.40 0.20 0.75 0.45 0.75 0.25 0 0.55 0.50 0.65 1.15 0.10 0.70 0.55 1.15 1.30 1.25 0.65 0.10 1.10 0.50 1.10 1.05 0 0.45 0.25 1.10 0.55 1.40 0.95 0.95 0.10 2.15 -1.50 2.15 -0.80 0 -1.65 -0.20 -1.80 -0.50z m-1.70 -4.65 c-0.40 -0.40 -0.70 -0.40 -1.15 0.05 -0.45 0.45 -0.40 0.75 0.40 1.30 0.85 0.65 0.95 0.65 1.10 -0.05 0.10 -0.40 -0.05 -1 -0.35 -1.30z m-0.55 -5.50 c0 -1.20 -0.15 -1.40 -0.50 -0.85 -0.65 1 -0.65 3.15 0 2.75 0.30 -0.15 0.50 -1.05 0.50 -1.90z"/>
  <path d="M11 15.55 c0 -1.90 0.15 -4.15 0.30 -5 0.30 -1.40 0.50 -1.55 2.30 -1.55 l2 0 -0.30 3.15 c-0.60 6.55 -0.70 6.85 -2.60 6.85 l-1.70 0 0 -3.45z"/>
  <path d="M23.50 9.10 c0 -0.20 0.70 -0.80 1.50 -1.30 0.85 -0.45 1.40 -1.10 1.20 -1.35 -0.15 -0.25 -0.90 0 -1.75 0.55 l-1.45 1.05 0 -1.45 c0 -1.60 0.85 -2.10 3.65 -2.10 1.20 0 1.35 0.15 1.35 1.75 0 0.95 -0.20 1.75 -0.50 1.75 -0.25 0 -0.50 0.35 -0.50 0.75 0 0.50 -0.55 0.75 -1.75 0.75 -0.95 0 -1.75 -0.20 -1.75 -0.40z"/>
 </g>
 <g fill="#482000">
  <path d="M32.40 39.05 c-1.20 -1.20 -1.20 -3.55 -0.05 -3.55 1.35 0 7.60 3.20 7.65 3.90 0 0.90 -0.60 0.75 -3.20 -0.70 -1.30 -0.75 -2.45 -1.20 -2.60 -1.05 -0.15 0.15 0.20 0.40 0.75 0.60 0.60 0.15 1.05 0.65 1.05 1.05 0 1 -2.55 0.85 -3.60 -0.25z"/>
  <path d="M25.35 36.15 c-0.20 -0.15 -0.35 -0.95 -0.35 -1.75 0 -1.25 0.15 -1.40 1.75 -1.40 1.55 0 1.75 0.15 1.75 1.30 0 1 -0.20 1.25 -0.80 1 -0.60 -0.20 -0.75 -0.10 -0.50 0.45 0.25 0.75 -1.20 1.10 -1.85 0.40z"/>
  <path d="M25.50 28.75 c0 -1 -0.25 -1.25 -1.25 -1.25 -1.05 0 -1.25 -0.25 -1.25 -1.50 0 -0.80 -0.35 -1.65 -0.75 -1.85 -0.40 -0.25 -1 -1.75 -1.30 -3.30 -0.50 -2.45 -0.45 -3.30 0.25 -5.45 1.10 -3.35 2.05 -4.40 4.10 -4.40 1.60 0 1.70 0.15 2 2 0.20 1.10 0.45 2 0.65 2 0.85 0 1.65 4.55 1.25 7.10 -0.20 1.45 -0.35 3.85 -0.25 5.30 l0.15 2.60 -1.80 0 c-1.60 0 -1.80 -0.15 -1.80 -1.25z m1.60 -2 c-0.10 -0.75 -0.55 -1.25 -1.05 -1.25 -1.45 0 -1.60 0.60 -0.50 1.80 1.30 1.40 1.90 1.20 1.55 -0.55z m-0.95 -6.25 l0.25 -3.25 -0.90 1.75 c-1.10 2.05 -1.25 3.55 -0.40 4.40 0.30 0.30 0.60 0.55 0.65 0.45 0.05 -0.05 0.25 -1.55 0.40 -3.35z"/>
  <path d="M30 23 l0 -3.50 1.70 0 1.70 0 -0.25 2.15 c-0.15 1.15 -0.50 2.50 -0.75 3 -0.25 0.45 -0.30 1.10 -0.15 1.35 0.15 0.30 -0.25 0.50 -0.95 0.50 -1.25 0 -1.30 -0.10 -1.30 -3.50z"/>
  <path d="M13.75 21.90 c-0.85 -2.50 -1.15 -3.10 -1.20 -2.50 -0.05 0.50 -0.30 0.50 -1.05 0.10 -1.75 -0.95 -1.20 -7.75 1.05 -12.60 0.50 -1.15 0.95 -1.40 2.30 -1.40 l1.70 0 -0.05 2.60 c0 1.45 0.10 4.60 0.30 6.95 0.35 4.95 -0.30 7.95 -1.80 7.95 -0.50 0 -1.05 -0.50 -1.25 -1.10z m0.05 -9.75 c0.20 -1 0.15 -1.65 -0.15 -1.65 -0.65 0 -1.15 2.50 -1.10 5.20 l0.05 2.05 0.45 -2 c0.25 -1.10 0.60 -2.75 0.75 -3.60z"/>
  <path d="M21.50 8.75 c0 -1.40 0.20 -1.75 1 -1.75 0.75 0 1 -0.35 1 -1.25 0 -1.15 0.15 -1.25 2.50 -1.25 l2.50 0 0 2 c0 1.90 -0.10 2 -1.50 2 -1.15 0 -1.50 0.20 -1.50 1 0 0.85 -0.35 1 -2 1 -1.95 0 -2 -0.05 -2 -1.75z m4.05 -1.20 c0.65 -0.55 1.05 -1.15 0.85 -1.30 -0.45 -0.45 -2.90 1.05 -2.90 1.75 0 0.75 0.75 0.60 2.05 -0.45z"/>
  <path d="M15 1 c0 -0.85 0.35 -1 2 -1 1.65 0 2 0.15 2 1 0 0.85 -0.35 1 -2 1 -1.65 0 -2 -0.15 -2 -1z"/>
 </g>
 <g fill="#632c01">
  <path d="M32 38.75 c-0.65 -0.70 -2.25 -1.95 -3.50 -2.85 l-2.25 -1.65 0.90 1.45 c0.50 0.75 0.80 1.50 0.65 1.65 -0.40 0.40 -3.15 -1.75 -4.30 -3.35 l-1.05 -1.50 2.55 0 c1.40 0 3 0.25 3.55 0.50 0.75 0.40 0.95 0.35 0.95 -0.25 0 -1.45 2.70 -0.85 4.80 1.05 1.05 0.95 1.60 1.70 1.20 1.55 -3.30 -0.95 -3.30 -0.95 -2.25 -0.10 0.55 0.45 2.30 1.40 3.85 2.15 1.60 0.75 2.90 1.65 2.90 2 0 0.75 0.15 0.80 -3.40 -1.05 -2.85 -1.50 -4.30 -1.60 -2.90 -0.25 0.45 0.45 0.80 1.05 0.80 1.35 0 0.90 -1.20 0.55 -2.50 -0.70z"/>
  <path d="M9.65 34.25 c-0.45 -1 -0.45 -1.55 0.15 -2.65 1.05 -2 0.85 -2.95 -0.30 -1.45 -1.05 1.30 -5.45 4.05 -5.90 3.65 -0.10 -0.15 0.45 -0.90 1.30 -1.65 1.60 -1.45 3.40 -5 2.85 -5.55 -0.15 -0.20 -0.50 0 -0.70 0.35 -0.25 0.35 -0.70 0.50 -1 0.35 -0.40 -0.25 -0.35 -0.70 0.20 -1.45 0.85 -1.20 1 -3.85 0.25 -3.85 -0.25 0 -0.50 -0.50 -0.55 -1.10 -0.05 -1.10 -0.05 -1.10 -0.40 0.05 -0.20 0.70 -0.65 1.35 -1 1.45 -0.75 0.25 -0.60 -1.55 0.40 -5.50 0.55 -2.25 -0.20 -2.60 -1.05 -0.50 l-0.60 1.35 -0.20 -1.60 c-0.10 -1 0.35 -2.60 1.20 -4.35 1.05 -2.15 1.20 -2.90 0.75 -3.45 -0.45 -0.60 -0.30 -0.90 0.70 -1.55 l1.25 -0.80 0 2 c0 1.10 -0.20 2 -0.50 2 -0.25 0 -0.50 0.70 -0.50 1.50 0 0.85 0.25 1.50 0.50 1.50 0.30 0 0.50 0.50 0.50 1.05 0 0.60 0.35 1.35 0.75 1.65 0.60 0.45 1.75 8.05 1.75 11.60 0 0.55 0.45 0.65 1.95 0.40 1.90 -0.30 1.90 -0.30 2.25 1.55 0.25 1.15 0.15 2.10 -0.15 2.40 -0.40 0.40 -0.55 0.20 -0.55 -0.65 0 -1.70 -0.55 -0.90 -1.25 1.85 -0.70 2.75 -1.25 3.15 -2.10 1.40z"/>
  <path d="M19.20 27.50 c-1.55 -2.45 -2.95 -4.50 -3.10 -4.50 -0.15 0 -0.55 0.40 -0.90 0.90 -1.15 1.55 -1.45 -0.70 -0.45 -3.50 0.70 -1.95 0.80 -3.10 0.50 -5.30 -0.25 -1.60 -0.45 -4 -0.45 -5.45 l-0.05 -2.60 -0.80 1.60 c-0.45 0.90 -1 2.35 -1.20 3.25 -0.45 2.20 -1.75 2.15 -1.75 -0.15 0 -0.95 0.25 -1.75 0.50 -1.75 0.30 0 0.50 -0.65 0.50 -1.40 0 -2.15 1.55 -3.70 3.60 -3.50 l1.65 0.15 0 8.10 c0 6.20 0.15 8.15 0.65 8.15 0.30 0 0.60 0.55 0.60 1.25 0 0.75 0.30 1.25 0.70 1.25 0.80 0 1.30 1.05 1.30 2.75 0 0.85 0.30 1.25 1.15 1.35 0.90 0.10 1.15 0.50 1.25 2.05 0.10 1 -0.05 1.85 -0.35 1.85 -0.25 0 -1.75 -2 -3.35 -4.50z"/>
  <path d="M28.50 30.50 c0 -0.55 -0.20 -1 -0.45 -1 -0.25 0 -0.60 -1 -0.75 -2.25 -0.35 -2.10 -0.45 -2.25 -1.60 -1.95 -1.05 0.25 -1.20 0.15 -1.20 -1.10 0.05 -1.35 0.10 -1.40 0.70 -0.55 0.65 0.80 0.75 0.60 1.20 -2.25 l0.45 -3.15 0.15 2.50 c0.10 2.35 0.15 2.40 0.50 0.85 0.25 -1 0.15 -2.30 -0.25 -3.50 l-0.65 -1.85 -1.30 2.75 c-1.15 2.35 -1.35 2.60 -1.60 1.65 -0.20 -0.65 -0.50 -1 -0.80 -0.85 -0.55 0.35 0 2.30 0.80 2.80 0.35 0.25 0.30 0.40 -0.20 0.40 -0.40 0 -1.25 -0.55 -1.85 -1.20 -1.30 -1.35 -1.50 -3.70 -0.55 -6.80 0.50 -1.55 0.90 -2 1.75 -2 0.80 0 1.15 -0.30 1.15 -1 0 -0.80 0.35 -1 1.75 -1 0.95 0 1.75 0.25 1.75 0.50 0 0.30 0.40 0.50 0.95 0.50 1.35 0 1.70 2.45 1.05 7.80 -0.25 2.45 -0.50 4.60 -0.50 4.85 0 0.20 0.80 0.25 1.75 0.15 1 -0.15 1.65 -0.05 1.50 0.25 -0.15 0.25 0.25 1.80 0.90 3.45 1.40 3.45 0.90 3.50 -0.90 0.10 -0.80 -1.60 -1.20 -2 -1.25 -1.30 0 0.55 0.25 1.25 0.55 1.55 0.30 0.30 0.40 1 0.20 1.60 -0.45 1.45 -3.25 1.50 -3.25 0.05z m-4.95 -13.70 c0.25 -0.30 0.45 0 0.45 0.75 0 1.15 0.05 1.15 1.05 -0.40 0.75 -1.20 0.95 -2.05 0.70 -3.15 -0.30 -1.50 -0.40 -1.50 -1.25 -0.75 -1 0.90 -2.55 5.05 -2.05 5.55 0.15 0.15 0.40 -0.10 0.45 -0.65 0.10 -0.50 0.40 -1.10 0.65 -1.35z"/>
  <path d="M10.80 21.80 c-0.30 -2.30 -0.05 -5.30 0.50 -5.30 0.80 0 2.70 2.60 2.70 3.80 0 1.50 -0.70 1.20 -1.20 -0.55 -0.15 -0.55 -0.15 0.30 -0.05 1.90 0.25 2.55 0.15 2.85 -0.70 2.85 -0.75 0 -1 -0.50 -1.25 -2.70z"/>
  <path d="M32 17.70 c0 -1.85 0.20 -2.35 0.95 -2.55 0.75 -0.20 1 -0.85 1.25 -3.30 0.15 -1.70 0.45 -4.15 0.60 -5.45 0.25 -2 0.15 -2.40 -0.50 -2.40 -0.50 0 -0.80 -0.40 -0.80 -1.05 0 -0.75 0.25 -1 1.05 -0.85 0.75 0.10 1.30 0.80 1.80 2.35 0.70 2.15 0.55 4.20 -0.70 7.30 -0.20 0.65 -0.15 0.80 0.30 0.50 0.50 -0.30 0.55 -0.15 0.05 0.75 -0.35 0.70 -0.50 2.35 -0.40 4.20 l0.25 3.05 -0.80 -1.75 -0.75 -1.75 -0.20 1.65 c-0.10 1.20 -0.40 1.60 -1.15 1.60 -0.80 0 -0.95 -0.35 -0.95 -2.30z"/>
  <path d="M21.50 9 c0 -0.75 -0.35 -1 -1.25 -1 -0.70 0 -1.25 -0.20 -1.25 -0.50 0 -0.25 0.20 -0.50 0.40 -0.50 0.25 0 0.75 -0.55 1.10 -1.25 0.80 -1.50 1.50 -1.60 1.50 -0.25 0 0.75 0.35 1 1.25 1 1.25 0 1.25 0.05 0.45 1.25 -1 1.55 -0.70 1.55 1.55 0.15 1.95 -1.30 2.15 -1.70 0.90 -2.05 -0.55 -0.15 -0.35 -0.25 0.50 -0.30 1.20 -0.05 1.35 0.10 1.35 1.70 0 1.60 -0.10 1.75 -1.50 1.75 -0.80 0 -1.50 0.25 -1.50 0.50 0 0.30 -0.80 0.50 -1.75 0.50 -1.40 0 -1.75 -0.20 -1.75 -1z"/>
  <path d="M9.25 4 c0.50 -0.55 1.15 -1 1.45 -1 0.30 0 1.30 -0.65 2.15 -1.45 1.30 -1.20 2 -1.45 4.15 -1.45 2.30 0 2.55 0.10 2.40 1.10 -0.15 0.90 -0.60 1.10 -3.75 1.50 -3.05 0.35 -3.65 0.60 -3.65 1.35 0 0.75 -0.40 0.95 -1.85 0.95 -1.75 0 -1.80 0 -0.90 -1z"/>
  <path d="M26 3 c0 -0.65 0.35 -1 0.90 -1 0.55 0 1.35 0.45 1.85 1 0.90 1 0.85 1 -0.90 1 -1.50 0 -1.85 -0.20 -1.85 -1z"/>
 </g>
 <g fill="#843300">
  <path d="M31.70 38.35 c-3.20 -3.20 -7.40 -5.65 -5.10 -3 2.95 3.45 0.40 2.15 -2.80 -1.40 -1.25 -1.40 -2.30 -2.80 -2.30 -3.05 0 -0.30 -0.55 -1.15 -1.25 -2 -1.60 -1.90 -1.60 -2.50 0.15 -2.30 0.95 0.10 1.40 0.45 1.50 1.30 0.10 0.60 0.50 1.10 0.90 1.10 0.40 0 0.70 0.35 0.70 0.75 0 1.05 1.80 2.75 2.95 2.75 0.65 0 1.05 0.40 1.15 1.15 0.10 0.70 0.55 1.15 1.30 1.25 0.90 0.15 1.10 -0.05 1.10 -1.20 0 -1.60 -1.65 -3.20 -3.35 -3.20 -0.95 0 -1.15 -0.25 -1.15 -1.60 0 -1.25 0.15 -1.45 0.60 -1 0.80 0.80 1.40 0.75 1.40 -0.15 0 -1.35 1.30 -0.80 2.15 0.90 0.80 1.50 0.80 1.50 0.55 0.25 -0.20 -0.80 -0.10 -1.40 0.15 -1.40 0.75 0 1.80 2.35 1.40 3.05 -0.30 0.40 0.25 1.20 1.55 2.30 1.75 1.50 1.85 1.65 0.80 1.65 -0.65 0 -1.60 -0.25 -2.15 -0.50 -0.50 -0.30 -0.95 -0.45 -0.95 -0.30 0 0.30 5.95 3.95 7.65 4.70 1.30 0.55 1.85 1.60 0.85 1.60 -0.25 0 -0.50 -0.20 -0.50 -0.40 0 -0.40 -2.85 -1.80 -5.35 -2.65 -1.30 -0.40 -1.40 -0.10 -0.40 1.25 1.70 2.25 0.60 2.30 -1.55 0.15z"/>
  <path d="M10 34.30 c0 -0.40 -0.25 -0.80 -0.55 -0.90 -0.40 -0.15 -0.35 -0.70 0.25 -1.75 1.25 -2.45 0.95 -2.95 -0.65 -1.20 -1.60 1.75 -2.30 2 -1.70 0.70 0.25 -0.50 0.35 -2.15 0.25 -3.65 -0.05 -1.50 -0.15 -3.75 -0.15 -5 -0.05 -1.25 -0.15 -1.95 -0.30 -1.60 -0.10 0.30 -0.45 0.60 -0.70 0.60 -0.60 0 -0.55 -2.05 0 -3 0.30 -0.40 0.35 -0.90 0.20 -1.15 -0.40 -0.65 -1.65 3.10 -1.35 3.90 0.15 0.35 0.05 0.80 -0.25 1 -1 0.60 -1.10 -1 -0.30 -4 0.40 -1.65 0.75 -3.15 0.75 -3.35 0 -0.90 -1 -0.30 -1.70 1 l-0.75 1.35 -0.05 -1.40 c0 -0.75 0.60 -2.55 1.30 -3.95 0.70 -1.40 1.20 -2.95 1.05 -3.40 -0.20 -0.85 1.20 -2.55 3.80 -4.45 0.75 -0.60 0.85 -0.50 0.85 0.90 0 1.30 -0.20 1.55 -1.20 1.55 -1.05 0 -1.20 0.25 -1.45 3 -0.25 2.35 -0.10 3.55 0.65 5.50 1.15 2.90 1.30 5.30 0.40 5.65 -0.50 0.20 -0.50 0.30 0 0.30 0.30 0.05 0.60 0.55 0.60 1.20 0.05 1.30 1.10 2.85 2 2.85 0.45 0 0.55 0.80 0.40 3 -0.10 1.65 -0.05 3 0.15 3 0.20 0 0.30 0.40 0.20 0.90 -0.10 0.45 -0.20 1.35 -0.20 2 -0.05 1.20 -1.55 1.60 -1.55 0.40z"/>
  <path d="M27 25.25 c0 -0.40 -0.20 -0.75 -0.50 -0.75 -0.25 0 -0.50 -0.25 -0.50 -0.55 0 -0.25 0.20 -0.40 0.45 -0.20 0.90 0.50 1.25 -0.95 1.25 -5.55 0.05 -2.95 -0.15 -4.45 -0.40 -4.15 -0.80 0.75 -1.30 0.55 -1.30 -0.55 0 -2.30 -2.45 0.10 -3.50 3.40 -0.75 2.40 -2 2.85 -2 0.75 0 -2.15 0.55 -3.65 1.30 -3.65 0.40 0 0.70 -0.50 0.70 -1.25 0 -0.80 0.30 -1.25 0.75 -1.25 0.40 0 0.75 -0.20 0.75 -0.50 0 -0.75 3.40 -0.60 3.65 0.15 0.50 1.35 1.55 -0.65 1.40 -2.70 -0.05 -1.10 0.15 -2.35 0.45 -2.75 0.50 -0.60 0.35 -0.70 -0.95 -0.70 -1.40 0 -1.55 -0.15 -1.55 -1.50 0 -1.35 0.10 -1.50 0.95 -1 0.55 0.25 1.15 0.75 1.30 1 0.20 0.30 0.55 0.40 0.80 0.25 0.25 -0.20 0.45 -0.05 0.45 0.20 0 0.30 0.80 0.55 1.75 0.55 l1.75 0 0 3.25 c0 2.55 0.15 3.25 0.75 3.25 0.60 0 0.75 0.70 0.75 3.30 0 2.90 -0.10 3.25 -0.75 2.70 -0.60 -0.50 -0.80 -0.45 -1.05 0.20 -0.55 1.40 -1.20 0.85 -1.20 -0.95 0 -0.95 0.25 -1.75 0.50 -1.75 0.30 0 0.50 -0.35 0.50 -0.80 0 -0.70 -0.15 -0.70 -0.80 -0.15 -1.30 1.05 -2.75 4.35 -3.05 7 -0.15 1.35 -0.50 2.45 -0.70 2.45 -0.25 0 -0.45 0.70 -0.45 1.50 0 1 -0.25 1.50 -0.75 1.50 -0.40 0 -0.75 -0.35 -0.75 -0.75z"/>
  <path d="M24.50 24.15 c0.05 -1.35 0.05 -1.35 0.75 -0.45 0.95 1.25 0.95 1.80 0 1.80 -0.50 0 -0.75 -0.50 -0.75 -1.35z"/>
  <path d="M14.25 23.50 c-0.45 -0.75 1.80 -5.45 2.65 -5.50 0.35 0 0.60 0.65 0.60 1.75 0 1.20 -0.25 1.75 -0.75 1.75 -0.40 0 -0.75 0.30 -0.75 0.70 0 1.05 -1.30 2 -1.75 1.30z"/>
  <path d="M11.80 20.45 c-0.40 -2.15 -0.40 -2.95 0.15 -2.95 0.25 0 0.45 1 0.45 2.25 0 2.65 -0.15 2.85 -0.60 0.70z"/>
  <path d="M24 19.90 c0 -0.65 2.45 -4.90 2.50 -4.35 0 0.50 -2 4.95 -2.25 4.95 -0.15 0 -0.25 -0.30 -0.25 -0.60z"/>
  <path d="M15.80 15.90 c-0.75 -4.90 -0.80 -6.45 -0.30 -7.45 0.85 -1.50 -0.20 -2.45 -1.10 -1 -0.90 1.50 -1.40 1.30 -1.40 -0.50 0 -2.05 2 -3.95 4.10 -3.95 l1.55 0 -0.35 3.05 c-0.15 1.70 -0.55 3.35 -0.80 3.70 -0.30 0.40 -0.40 2 -0.20 4.20 0.30 3.05 0.25 3.55 -0.45 3.55 -0.50 0 -0.90 -0.55 -1.05 -1.60z"/>
  <path d="M23 9.60 c0 -0.40 2.60 -2.10 3.20 -2.10 0.15 0 0.30 0.55 0.30 1.25 0 1.10 -0.20 1.25 -1.75 1.25 -0.95 0 -1.75 -0.20 -1.75 -0.40z"/>
  <path d="M14 2.05 c0 -1.15 0.70 -2.05 1.60 -2.05 0.50 0 0.85 0.20 0.65 0.45 -0.15 0.30 0.20 0.40 0.75 0.30 0.80 -0.15 1 0 0.90 0.65 -0.10 0.60 -0.75 0.90 -2.05 1 -1 0.10 -1.85 -0.05 -1.85 -0.35z"/>
 </g>
 <g fill="#544026">
  <path d="M9.30 38 c0.35 -1.75 0.60 -4.20 0.65 -6.35 0.05 -0.80 0.35 -1.15 1 -1.15 0.80 0 0.90 -0.30 0.65 -2.25 -0.20 -1.80 -0.05 -2.25 0.55 -2.25 1.45 0 2.40 7.40 1.30 10.50 -0.35 1.05 -0.40 1 -0.20 -0.45 0.15 -0.90 0.10 -2.90 -0.10 -4.45 -0.25 -2.40 -0.35 -2.65 -0.80 -1.55 -0.25 0.65 -0.55 1.90 -0.65 2.70 -0.35 2.30 -1.25 4.90 -2.05 6 -0.70 0.90 -0.70 0.85 -0.35 -0.75z"/>
  <path d="M30.50 24.75 c0 -0.95 0.25 -1.75 0.50 -1.75 0.30 0 0.50 0.30 0.50 0.65 0 0.30 0.15 1.10 0.30 1.75 0.25 0.80 0.10 1.10 -0.50 1.10 -0.60 0 -0.80 -0.45 -0.80 -1.75z"/>
  <path d="M32 24.15 c0 -0.65 0.25 -1.15 0.50 -1.15 0.65 0 0.65 0.55 0 1.50 -0.40 0.60 -0.50 0.55 -0.50 -0.35z"/>
  <path d="M21.30 23.40 c-0.15 -0.65 -0.30 -1.75 -0.30 -2.50 0 -1.85 1.35 -1.85 1.75 0.05 0.15 0.80 0.80 1.65 1.50 1.95 1.85 0.85 1.50 1.60 -0.70 1.60 -1.60 0 -2 -0.20 -2.25 -1.10z"/>
  <path d="M30 20.75 c0 -1.70 0.10 -1.75 1.80 -1.75 1.65 0 1.80 0.10 1.50 1.15 -0.15 0.60 -0.30 1.40 -0.30 1.75 0 0.90 -0.90 0.75 -1.15 -0.25 -0.20 -0.85 -0.25 -0.85 -0.30 0 0 0.45 -0.40 0.85 -0.80 0.85 -0.50 0 -0.75 -0.55 -0.75 -1.75z"/>
  <path d="M10.50 17 c0 -1.90 0.20 -2.50 0.75 -2.50 0.40 0 0.75 0.30 0.80 0.65 0 0.30 0.10 1.45 0.25 2.50 0.20 1.60 0.10 1.85 -0.80 1.85 -0.85 0 -1 -0.30 -1 -2.50z"/>
  <path d="M18.55 8.05 c0.35 -0.50 1 -1.15 1.50 -1.50 0.85 -0.50 0.95 -0.40 0.95 0.95 0 1.35 -0.15 1.50 -1.50 1.50 -1.35 0 -1.45 -0.10 -0.95 -0.95z"/>
  <path d="M15 1.15 c0 -0.85 0.15 -1.15 0.40 -0.80 0.40 0.65 1.45 0.65 2.50 0 0.40 -0.30 0.60 -0.05 0.60 0.85 0 1.15 -0.20 1.30 -1.75 1.30 -1.60 0 -1.75 -0.15 -1.75 -1.35z"/>
 </g>
 <g fill="#6d4b06">
  <path d="M9.75 31.65 c0.20 -0.50 0.50 -1.30 0.60 -1.75 0.35 -1.20 1.65 -1.15 1.65 0.05 0 1.65 -0.55 2.55 -1.60 2.55 -0.75 0 -0.90 -0.20 -0.65 -0.85z"/>
  <path d="M29.10 31.25 c-0.30 -0.70 -0.80 -1.25 -1.10 -1.25 -0.30 0 -0.50 -1.20 -0.50 -2.75 0 -2.40 0.10 -2.75 1 -2.75 0.75 0 1 -0.35 1 -1.45 0 -2.85 0.60 -4.55 1.55 -4.55 0.55 0 0.95 -0.35 0.95 -0.75 0 -0.40 0.20 -0.75 0.45 -0.75 0.25 0 0.60 -0.90 0.80 -2 0.25 -1.50 0.55 -2 1.30 -2 0.80 0 0.95 0.35 0.95 2.40 -0.05 2.10 -0.10 2.25 -0.70 1.45 -0.70 -0.90 -0.75 -0.85 -1.05 0.15 -0.20 0.70 0.10 2 0.95 3.65 l1.25 2.60 -1.20 -1.35 c-1.55 -1.80 -1.75 -1.75 -1.75 0.30 0 2.55 -0.90 2.70 -1.15 0.20 l-0.20 -2.15 -0.05 2.15 c-0.05 1.30 0.40 3.30 1.15 5.20 1.60 4 1.55 4.20 -0.25 1.15 -1.10 -1.85 -1.50 -2.20 -1.50 -1.40 0 0.60 0.25 1.25 0.55 1.45 0.30 0.15 0.40 0.80 0.25 1.35 -0.15 0.60 0 1.35 0.30 1.70 0.40 0.50 0.20 0.65 -0.95 0.65 -1.10 0 -1.65 -0.35 -2.05 -1.25z m1.05 -2.60 c-0.95 -2.45 -1.40 -2.80 -0.95 -0.90 0.35 1.35 1.15 2.75 1.60 2.75 0.10 0 -0.20 -0.85 -0.65 -1.85z"/>
  <path d="M23.10 26.50 c0.15 -1.75 0.05 -2 -0.90 -2 -0.80 0 -1.15 -0.40 -1.40 -1.55 -0.95 -4.85 0.60 -7.10 1.70 -2.45 0.45 1.90 0.85 2.50 1.55 2.50 0.50 0 1.15 0.45 1.45 0.95 0.65 1.30 0.65 1.55 -0.25 1.55 -1.05 0 -0.95 0.50 0.35 1.85 l1.05 1.15 -1.85 0 -1.90 0 0.20 -2z"/>
  <path d="M8.50 24.75 c0 -1.65 0.10 -1.75 1.75 -1.75 1.65 0 1.75 0.10 1.75 1.75 0 1.65 -0.10 1.75 -1.75 1.75 -1.65 0 -1.75 -0.10 -1.75 -1.75z"/>
  <path d="M10.50 18.75 c0 -1.65 0.20 -2.25 0.75 -2.25 0.40 0 0.80 0.30 0.80 0.65 0.40 3.45 0.35 3.85 -0.60 3.85 -0.80 0 -0.95 -0.35 -0.95 -2.25z"/>
  <path d="M6 19.50 c0 -0.25 0.40 -0.50 0.90 -0.50 0.45 0 0.65 -0.20 0.35 -0.40 -0.90 -0.65 -0.70 -2.10 0.30 -2.10 0.75 0 0.95 0.35 0.95 1.75 0 1.55 -0.15 1.75 -1.25 1.75 -0.70 0 -1.25 -0.20 -1.25 -0.50z"/>
  <path d="M5 17.80 c0 -0.70 0.25 -1.30 0.50 -1.30 0.30 0 0.50 0.45 0.50 0.95 0 0.55 -0.20 1.15 -0.50 1.30 -0.30 0.20 -0.50 -0.25 -0.50 -0.95z"/>
  <path d="M10.70 12.30 c0.40 -3.65 0.70 -4.30 2.05 -4.30 l1.10 0 -1 3.50 c-0.70 2.25 -1.30 3.50 -1.75 3.50 -0.60 0 -0.65 -0.55 -0.40 -2.70z"/>
  <path d="M34.50 9.25 c0 -1.40 0.20 -1.75 1 -1.75 1.05 0 1.20 0.50 0.70 2.40 -0.50 1.80 -1.70 1.35 -1.70 -0.65z"/>
  <path d="M17 8.80 c0 -0.70 0.25 -1.40 0.50 -1.55 0.30 -0.15 0.50 -1.20 0.50 -2.25 0 -1.40 0.25 -2 0.90 -2.15 0.45 -0.15 0 -0.25 -1 -0.30 -2.25 -0.05 -2.50 -1 -0.55 -1.90 1.85 -0.90 2.25 -0.80 3.30 0.60 0.85 1.20 0.85 1.25 -0.95 3.75 -1.95 2.75 -2.15 4.65 -0.20 2.05 0.70 -0.90 1.80 -2.25 2.50 -2.95 l1.25 -1.35 0.15 1.15 c0.25 1.80 -0.25 2.60 -1.65 2.60 -1.10 0 -1.25 0.20 -1.25 1.75 0 1.65 -0.10 1.75 -1.75 1.75 -1.50 0 -1.75 -0.15 -1.75 -1.20z"/>
  <path d="M27.50 4 c0 -1.70 0.25 -1.85 1.30 -0.75 0.65 0.60 0.95 0.60 2.35 -0.25 2.10 -1.30 3.35 -1.30 3.35 0 0 0.65 -0.35 1 -0.95 1 -0.50 0 -1.05 0.35 -1.25 0.75 -0.20 0.50 -1 0.75 -2.55 0.75 -2.15 0 -2.25 -0.05 -2.25 -1.50z"/>
 </g>
 <g fill="#973f01">
  <path d="M31.95 38.25 c-0.95 -0.95 -1.90 -1.75 -2.15 -1.75 -0.20 0 -1.05 -0.55 -1.90 -1.25 -1.75 -1.50 -2.95 -1.65 -1.65 -0.25 0.50 0.55 0.75 1.15 0.55 1.40 -0.45 0.40 -4.15 -3.55 -4.85 -5.15 -0.25 -0.55 -1.45 -2.35 -2.65 -4 -1.25 -1.65 -2.25 -3.30 -2.25 -3.60 -0.05 -0.80 -1.35 -0.85 -1.85 -0.10 -0.25 0.40 -0.50 0.30 -0.80 -0.30 -0.40 -0.65 -0.25 -1.25 0.55 -2.30 0.60 -0.80 1.05 -2.15 1.05 -3.20 0 -1.40 0.20 -1.75 1 -1.75 0.85 0 1 0.35 1 2.40 0 2.50 -0.30 3.30 -1.50 3.75 -0.40 0.15 0 0.30 0.90 0.30 1.25 0.05 1.60 0.25 1.60 1.05 0 0.55 0.35 1 0.75 1 0.40 0 0.75 0.20 0.75 0.45 0 0.25 0.80 1.30 1.75 2.35 1.05 1.20 1.75 2.45 1.75 3.35 0 1.10 0.20 1.35 1.25 1.35 0.80 0 1.25 -0.30 1.25 -0.75 0 -0.50 0.55 -0.75 1.75 -0.75 1.65 0 1.75 0.10 1.75 1.70 0 1.20 -0.25 1.80 -0.85 1.95 -0.70 0.20 -0.60 0.25 0.25 0.30 0.95 0.05 1.10 -0.20 1.10 -2 l0 -2 2 1.65 c1.10 0.90 2 1.80 2 2.05 0 0.55 -1.75 0.40 -2.40 -0.25 -0.30 -0.30 -0.70 -0.45 -0.85 -0.30 -0.30 0.30 4.75 3.75 6.60 4.45 0.70 0.25 1.20 0.60 1.05 0.70 -0.15 0.15 -1.55 -0.30 -3.10 -1.05 -1.60 -0.70 -3 -1.20 -3.10 -1.05 -0.15 0.15 0.10 0.95 0.55 1.80 1 2 0.80 1.95 -1.30 -0.20z"/>
  <path d="M9.80 35.15 c0.20 -0.75 0.60 -1.75 0.90 -2.15 0.50 -0.65 0.45 -0.65 -0.35 -0.05 -1.25 1 -1.65 0.30 -0.65 -1.15 0.45 -0.70 0.80 -1.65 0.80 -2.15 -0.05 -0.80 -0.15 -0.75 -0.95 0.25 -0.55 0.60 -1.10 1.10 -1.30 1.10 -0.20 0 -0.10 -0.35 0.30 -0.80 0.50 -0.65 0.50 -0.85 0 -1.20 -0.45 -0.25 -0.55 -0.85 -0.35 -1.75 0.20 -0.80 0.10 -1.65 -0.25 -2.05 -0.35 -0.40 -0.60 -1.70 -0.55 -2.85 0 -1.15 -0.10 -1.80 -0.25 -1.45 -0.10 0.30 -0.45 0.50 -0.70 0.30 -0.70 -0.40 -0.55 -2.10 0.25 -2.30 0.60 -0.15 0.60 -0.40 0.05 -1.65 l-0.65 -1.50 -0.05 1.35 c-0.05 0.75 -0.25 1.50 -0.55 1.65 -0.65 0.40 -0.65 -2.05 0 -3.30 0.40 -0.75 0.35 -0.95 -0.20 -0.95 -0.50 0 -0.70 -0.50 -0.70 -1.50 0.05 -0.80 0.25 -1.35 0.45 -1.20 0.20 0.10 0.35 -0.20 0.35 -0.65 -0.05 -0.50 0.10 -1.40 0.30 -2 0.25 -0.80 0.15 -1.15 -0.25 -1.15 -0.35 0 -0.10 -0.55 0.50 -1.20 1.35 -1.45 6.85 -5.30 7.55 -5.30 0.25 0 0.70 -0.40 1 -0.85 0.40 -0.65 0.65 -0.70 0.80 -0.25 0.15 0.30 0.60 0.60 1 0.60 0.40 0 0.70 0.35 0.70 0.75 0 0.45 -0.45 0.75 -1.25 0.75 -0.70 0 -1.25 0.25 -1.25 0.50 0 0.30 -0.65 0.50 -1.50 0.50 -1.15 0 -1.50 0.20 -1.50 1 0 0.65 -0.35 1 -1 1 -0.55 0 -1 0.25 -1 0.60 0 0.30 -0.40 1 -0.85 1.50 -0.50 0.55 -1.15 2.05 -1.45 3.30 -0.65 2.55 -0.40 3.10 1.70 3.10 0.95 0 1.10 0.25 1.10 2.15 0 1.15 -0.25 3 -0.50 4.10 -0.35 1.55 -0.30 2.15 0.35 2.85 0.40 0.45 0.60 1.10 0.35 1.45 -0.20 0.40 -0.15 0.50 0.20 0.25 0.35 -0.20 0.60 -0.05 0.60 0.40 0 0.45 0.40 0.80 0.95 0.80 0.70 0 1.05 0.55 1.40 2.45 0.25 1.40 0.30 2.80 0.10 3.15 -0.30 0.40 -0.45 0.05 -0.45 -1.10 l-0.05 -1.75 -0.65 1.75 c-0.40 0.95 -0.90 2.65 -1.10 3.70 -0.25 1.10 -0.75 2.05 -1.10 2.20 -0.45 0.15 -0.55 -0.20 -0.30 -1.25z"/>
  <path d="M27.25 26.50 c-0.45 -2 0.15 -4.50 1.05 -4.50 0.50 0 0.70 0.75 0.70 3 0 2.25 -0.20 3 -0.70 3 -0.40 0 -0.85 -0.65 -1.05 -1.50z"/>
  <path d="M24.05 25.40 c-0.05 -1.95 0.30 -2.35 1.35 -1.30 0.80 0.80 0.75 1.40 -0.10 1.40 -0.40 0 -0.85 0.40 -0.95 0.90 -0.15 0.45 -0.25 0 -0.30 -1z"/>
  <path d="M28.20 18.45 c0.40 -2.35 1.45 -4.60 3.10 -6.60 1.35 -1.60 1.65 -2.85 0.45 -1.85 -0.40 0.35 -0.75 0.90 -0.75 1.25 0 0.80 -1.90 2.50 -2.35 2.10 -0.15 -0.20 -0.65 -0.05 -1.05 0.25 -0.60 0.55 -0.70 0.35 -0.45 -1.35 0.30 -2.50 1.70 -6.25 2.70 -7.35 0.50 -0.60 1.55 -0.90 2.80 -0.90 l2 0 -0.30 3.30 c-0.10 1.80 -0.50 3.55 -0.80 3.85 -0.30 0.30 -0.55 1.05 -0.55 1.70 0 0.90 0.30 1.15 1.20 1.15 0.95 0 1.10 0.20 0.90 1.25 -0.10 0.70 -0.40 1.15 -0.60 1 -0.25 -0.15 -0.55 0.20 -0.75 0.75 -0.50 1.65 -1.75 1.20 -1.80 -0.60 0 -1.55 -0.05 -1.60 -0.55 -0.50 -0.30 0.60 -0.75 1.10 -1 1.10 -0.20 0 -0.40 0.80 -0.40 1.75 0 1.45 -0.20 1.75 -1.05 1.75 -1 0 -1.05 -0.20 -0.75 -2.05z m4.30 -11.70 c0 -0.95 -0.05 -0.90 -1.10 0.15 -0.95 0.95 -1.05 1.20 -0.40 1.60 0.85 0.50 1.50 -0.20 1.50 -1.75z"/>
  <path d="M22 13.95 c0 -0.85 0.30 -1.85 0.70 -2.25 0.40 -0.40 1.40 -0.70 2.25 -0.70 1.45 0 1.55 0.10 1.50 1.90 -0.05 1.70 -0.10 1.75 -0.40 0.40 l-0.30 -1.40 -1.35 1.35 c-0.80 0.75 -1.40 1.60 -1.40 1.80 0 0.25 -0.20 0.45 -0.50 0.45 -0.25 0 -0.50 -0.70 -0.50 -1.55z"/>
  <path d="M12.50 7.25 c0 -1.15 0.25 -1.75 0.70 -1.75 0.35 0 0.80 -0.45 0.95 -1 0.20 -0.75 0.70 -1 2.10 -1 1.80 0 1.80 0.05 1.65 1.85 -0.10 1 -0.45 1.95 -0.85 2.05 -0.55 0.20 -0.65 -0.10 -0.40 -1.30 l0.30 -1.50 -1.15 1.05 c-0.65 0.60 -1.40 1.60 -1.75 2.25 -0.85 1.60 -1.55 1.35 -1.55 -0.65z"/>
  <path d="M25.50 3 c0 -1.20 1.60 -1.35 2.70 -0.20 1.10 1.10 1.05 1.20 -0.95 1.20 -1.40 0 -1.75 -0.20 -1.75 -1z"/>
 </g>
 <g fill="#885404">
  <path d="M31.85 38.10 c-1.30 -1.45 -1 -2.10 0.90 -2.10 0.95 0 1.75 0.20 1.75 0.45 0 0.25 -0.45 0.35 -1 0.20 -1.15 -0.30 -1.25 0 -0.50 1.40 0.65 1.20 -0.10 1.25 -1.15 0.05z"/>
  <path d="M10.30 34.65 c0.95 -1.90 0.95 -3.25 -0.05 -1.95 -1.15 1.50 -1.45 0.55 -0.45 -1.15 1.10 -1.85 2.35 -2.10 2 -0.40 -0.15 0.60 -0.40 1.95 -0.55 3 -0.20 1.10 -0.55 1.85 -1 1.85 -0.60 0 -0.60 -0.20 0.05 -1.35z"/>
  <path d="M25.50 31.50 c0 -0.80 -0.20 -1.50 -0.50 -1.50 -0.25 0 -0.50 -0.65 -0.50 -1.50 0 -1.80 0.30 -1.85 1.90 -0.35 l1.25 1.10 -0.35 -2.60 c-0.35 -2.60 -0.30 -2.65 0.95 -2.65 1.15 0 1.25 -0.20 1.25 -2.25 0 -1.25 0.15 -2.25 0.40 -2.25 0.45 0 2.10 -3.70 2.10 -4.75 0 -0.40 0.35 -0.75 0.75 -0.75 0.50 0 0.75 -0.50 0.75 -1.35 0 -0.80 0.35 -2.50 0.75 -3.85 1 -3.25 0.95 -4.15 -0.25 -4.55 -1.25 -0.40 -1.35 -2.25 -0.10 -2.25 1.35 0 1.85 0.60 2.50 2.75 0.45 1.65 0.45 2.50 -0.20 4.50 -0.40 1.40 -0.85 3.50 -0.95 4.70 -0.20 2 -0.75 3.55 -0.75 2.10 0 -0.35 -0.20 -0.50 -0.45 -0.30 -0.25 0.15 -0.40 1.15 -0.35 2.25 0.10 1.40 -0.05 2 -0.50 2 -0.40 0 -0.70 0.40 -0.75 0.90 0 0.70 -0.10 0.70 -0.40 -0.15 -0.35 -0.80 -0.45 -0.65 -0.75 1 -0.25 1.50 -0.10 2.60 0.70 4.40 0.60 1.35 1 2.55 0.85 2.65 -0.10 0.15 -0.50 -0.45 -0.85 -1.30 -0.35 -0.80 -0.80 -1.50 -1.05 -1.50 -0.65 0 -0.55 0.35 0.40 2.35 0.70 1.50 0.70 1.80 0.10 2.20 -0.90 0.55 -1.55 0.35 -1.90 -0.60 -0.20 -0.60 -0.10 -0.60 0.60 0 1.10 0.85 1.05 0.60 -0.20 -2 -0.95 -2.10 -1 -2.15 -0.80 -0.55 0.15 1.20 0 1.60 -0.60 1.65 -0.55 0 -0.60 0.10 -0.15 0.30 0.30 0.10 0.60 1 0.60 1.95 0 1.60 -0.10 1.70 -1.75 1.70 -1.60 0 -1.75 -0.10 -1.75 -1.50z"/>
  <path d="M10.65 28.25 c-0.35 -0.40 -0.65 -0.85 -0.65 -1 0 -0.15 -0.40 -0.90 -0.85 -1.60 -0.50 -0.75 -0.80 -1.85 -0.75 -2.50 0.10 -0.65 -0.05 -1.15 -0.35 -1.15 -0.30 0 -0.55 -0.35 -0.55 -0.75 0 -0.45 -0.30 -0.60 -0.75 -0.45 -0.50 0.20 -0.75 0 -0.75 -0.50 0 -0.45 0.35 -0.95 0.75 -1.10 0.45 -0.20 0.65 -0.65 0.50 -1.20 -0.20 -0.70 0 -0.85 1.05 -0.85 1.20 0 1.30 0.10 1.10 2.15 -0.10 1.55 0.05 2.20 0.45 2.20 0.40 0 0.65 -0.65 0.65 -1.50 0 -1.80 1.25 -2.05 1.65 -0.35 1.50 6.25 0.65 11.10 -1.50 8.60z"/>
  <path d="M24 25.75 c0 -0.45 -0.50 -0.75 -1.25 -0.75 -1.10 0 -1.25 -0.20 -1.25 -1.75 0 -0.95 0.25 -1.75 0.50 -1.75 0.30 0 0.50 0.35 0.50 0.75 0 0.45 0.45 0.75 1.15 0.75 0.60 0 1.35 0.40 1.70 0.95 0.45 0.75 0.40 1.05 -0.40 1.70 -0.80 0.70 -0.95 0.75 -0.95 0.10z"/>
  <path d="M6.25 15.40 c-0.20 -0.50 -0.70 -0.90 -1.10 -0.90 -0.55 0 -0.65 -0.30 -0.40 -1.10 1.05 -3.50 1.25 -5.10 0.75 -5.40 -0.30 -0.15 0.15 -0.80 1.05 -1.45 l1.60 -1.20 -0.35 3.70 c-0.50 5.20 -1.05 7.45 -1.55 6.35z"/>
  <path d="M28 9.75 c0 -1.40 0.20 -1.75 1 -1.75 1.10 0 1.30 1 0.50 2.55 -0.80 1.50 -1.50 1.15 -1.50 -0.80z"/>
  <path d="M16.25 8.20 c0.15 -1.30 0.45 -2.70 0.65 -3.15 0.25 -0.70 0.20 -0.70 -0.55 -0.10 -0.75 0.60 -0.85 0.55 -0.85 -0.65 0 -1.15 0.20 -1.30 1.70 -1.30 2.10 0 2.65 1.45 1.45 3.55 -0.95 1.60 -0.50 2.60 0.50 1.25 0.60 -0.80 0.65 -0.70 0.45 0.90 -0.20 1.70 -0.30 1.80 -1.95 1.80 l-1.75 0 0.35 -2.30z"/>
  <path d="M12 8.30 c0 -1.60 0.15 -1.80 1.25 -1.80 1.20 0 1.25 0.05 0.60 1.60 -0.95 2.30 -1.85 2.40 -1.85 0.20z"/>
  <path d="M21.60 4.55 c0.75 -1.25 4.10 -2.80 5.10 -2.40 1.55 0.60 0.90 1.85 -0.95 1.85 -1.20 0 -1.75 0.25 -1.75 0.75 0 0.50 -0.50 0.75 -1.50 0.75 -1.35 0 -1.45 -0.10 -0.90 -0.95z"/>
  <path d="M10.50 3.60 c0 -0.40 2.60 -2.10 3.20 -2.10 0.15 0 0.30 0.55 0.30 1.25 0 1.10 -0.20 1.25 -1.75 1.25 -0.95 0 -1.75 -0.20 -1.75 -0.40z"/>
  <path d="M20.70 3.10 c0.25 -0.45 -0.30 -0.60 -1.90 -0.60 -2.60 0 -3.05 -0.90 -0.95 -1.85 1 -0.50 1.50 -0.50 2 -0.05 1.20 0.95 1.70 2.30 1.05 2.70 -0.35 0.20 -0.40 0.15 -0.20 -0.20z"/>
 </g>
 <g fill="#b14d00">
  <path d="M31.25 37.50 c-0.80 -0.80 -1.65 -1.50 -1.90 -1.50 -0.25 0 -1.10 -0.55 -1.95 -1.25 -1.65 -1.40 -2.90 -1.70 -1.90 -0.50 0.35 0.45 0.55 0.90 0.40 1 -0.40 0.45 -3.40 -2.85 -3.40 -3.70 0 -0.45 -0.60 -1.50 -1.40 -2.30 -1.25 -1.40 -2.90 -3.60 -3.80 -5.10 -0.25 -0.45 0.10 -0.65 1.15 -0.65 0.85 0 1.55 0.25 1.55 0.50 0 0.50 0.40 1.10 1.90 2.75 0.30 0.35 0.60 1.15 0.60 1.70 0 0.65 0.30 1.05 0.80 1.05 0.45 0 1.20 0.50 1.75 1.15 0.80 0.95 0.90 1 0.95 0.20 0 -0.75 0.45 -0.85 3.05 -0.75 1.65 0.05 2.80 0.20 2.50 0.30 -0.75 0.25 0.80 2.50 2.05 2.90 0.65 0.20 0.85 0.45 0.50 0.80 -0.30 0.30 -0.85 0.30 -1.50 -0.05 -2.40 -1.30 -2.10 -0.40 0.40 1.25 3.60 2.40 4.20 3 1.90 1.90 -2.10 -1 -2.90 -0.65 -2 0.80 0.90 1.50 0 1.20 -1.65 -0.50z"/>
  <path d="M9 33.35 c0 -0.20 0.35 -0.95 0.80 -1.60 0.55 -0.85 0.70 -1.80 0.50 -3.10 -0.15 -1.05 -0.10 -2.70 0.15 -3.65 0.40 -1.65 0.45 -1.65 0.50 -0.35 0.05 0.80 0.40 1.75 0.80 2.15 1.25 1.25 0.90 3.05 -1 5.05 -0.95 1 -1.75 1.70 -1.75 1.50z"/>
  <path d="M13 29.80 c0 -1 0.10 -1.80 0.20 -1.80 0.40 0 0.60 3.05 0.20 3.30 -0.20 0.15 -0.40 -0.55 -0.40 -1.50z"/>
  <path d="M8.30 24.65 c-0.70 -0.95 -0.85 -1.80 -0.65 -3.50 0.20 -1.85 -0.05 -2.80 -1.25 -5.20 -1.20 -2.35 -1.40 -3.10 -0.90 -3.70 0.30 -0.40 0.45 -0.95 0.25 -1.20 -0.50 -0.85 0.85 -4.55 1.65 -4.55 0.50 0 0.65 0.50 0.50 2 -0.10 1.10 0.05 2 0.30 2 0.25 0 0.35 1.55 0.20 3.65 -0.15 1.95 -0.15 3.20 -0.05 2.75 0.10 -0.50 0.55 -0.90 1 -0.90 0.65 0 0.75 0.45 0.45 2.95 -0.20 1.65 -0.15 3.10 0.10 3.25 0.45 0.30 0.20 3.20 -0.35 3.50 -0.15 0.10 -0.70 -0.35 -1.25 -1.05z"/>
  <path d="M14.50 23 c0 -0.65 0.35 -1 1 -1 0.55 0 1 0.15 1 0.40 0 0.20 -0.45 0.65 -1 1 -0.90 0.55 -1 0.50 -1 -0.40z"/>
  <path d="M27.70 21.90 c0.20 -0.90 0.45 -2.55 0.65 -3.65 0.15 -1.10 1.10 -3.20 2.05 -4.65 1.65 -2.55 3.05 -7.30 2.35 -8.05 -0.45 -0.40 -2.75 2.30 -2.75 3.25 0 0.40 -0.35 0.70 -0.75 0.70 -0.40 0 -0.75 -0.35 -0.75 -0.75 0 -0.50 -0.50 -0.75 -1.60 -0.75 -1.35 -0.05 -1.50 -0.10 -0.75 -0.55 0.45 -0.25 0.85 -0.70 0.85 -0.95 0 -0.95 -1.70 -0.50 -3.10 0.85 l-1.40 1.35 0 -1.85 c0 -1.60 0.15 -1.85 1.20 -1.85 1.95 0 2.80 -0.55 2.80 -1.75 0 -0.90 0.20 -1.10 0.95 -0.90 0.55 0.15 1.10 0.55 1.25 0.95 0.20 0.50 1.15 0.70 3.30 0.70 2.95 0 3 0 2.95 1.40 0 0.75 -0.20 2.40 -0.40 3.75 -0.30 1.65 -0.20 2.35 0.20 2.35 0.45 0 0.60 1.45 0.30 3.15 -0.10 0.70 -1.55 0.35 -1.55 -0.40 0 -0.40 -0.30 -0.75 -0.60 -0.75 -0.60 0 -3.45 7.95 -3.40 9.40 0 0.30 -0.50 0.60 -1.05 0.60 -0.95 0 -1.05 -0.20 -0.75 -1.60z m2.30 -16.65 c0 -0.40 -0.20 -0.75 -0.50 -0.75 -0.25 0 -0.50 0.35 -0.50 0.75 0 0.40 0.25 0.75 0.50 0.75 0.30 0 0.50 -0.35 0.50 -0.75z"/>
  <path d="M15.45 20.45 c0.85 -0.80 1.05 -1.40 0.85 -2.40 -0.70 -3.10 -0.95 -9.40 -0.35 -9.75 0.30 -0.20 0.55 -0.85 0.55 -1.50 0 -0.60 0.25 -1.35 0.60 -1.70 0.90 -0.90 -0.15 -0.70 -1.20 0.25 -0.85 0.75 -0.90 0.75 -0.90 -0.25 0 -0.95 0.30 -1.10 1.80 -1.10 l1.80 0 -0.40 1.90 c-0.20 1 -0.30 4.95 -0.25 8.75 l0.10 6.85 -1.90 0 -1.85 0 1.15 -1.05z"/>
  <path d="M20.50 17.05 c0 -2.35 1 -4.55 2.05 -4.55 0.65 0 0.95 -0.35 0.95 -1.05 0 -1 0.20 -1.05 2.55 -0.80 1.45 0.20 2.70 0.45 2.85 0.60 0.40 0.35 -1.50 2.85 -2.15 2.85 -0.25 -0.05 -0.60 -0.55 -0.75 -1.20 l-0.30 -1.15 -1.30 1.30 c-0.75 0.75 -1.60 2.25 -1.95 3.40 -0.70 2.35 -1.95 2.75 -1.95 0.60z"/>
  <path d="M11.50 3.10 c0 -0.55 2.75 -2.10 3.70 -2.10 1.05 0 1.05 1.80 0 2.20 -1.15 0.45 -3.70 0.35 -3.70 -0.10z"/>
 </g>
 <g fill="#785932">
  <path d="M9.35 37.40 c0.15 -0.90 0.60 -2 0.95 -2.45 0.40 -0.40 0.70 -1.20 0.75 -1.75 0 -0.50 0.15 -0.65 0.30 -0.35 0.30 0.75 -1.20 5.50 -1.90 5.90 -0.25 0.20 -0.30 -0.40 -0.10 -1.35z"/>
  <path d="M13.25 31.90 c-0.20 -1.55 -0.25 -3.15 -0.10 -3.50 0.10 -0.35 0.40 0.65 0.60 2.20 0.20 1.55 0.25 3.15 0.10 3.50 -0.10 0.35 -0.40 -0.65 -0.60 -2.20z"/>
  <path d="M9.05 33.25 c0 -0.65 1.40 -2.50 1.65 -2.20 0.15 0.10 -0.20 0.75 -0.70 1.45 -0.55 0.70 -1 1.05 -0.95 0.75z"/>
  <path d="M11.50 28.40 c0 -1.05 0.25 -1.90 0.50 -1.90 0.65 0 0.65 2 0 3 -0.35 0.55 -0.50 0.25 -0.50 -1.10z"/>
 </g>
 <g fill="#a27400">
  <path d="M24.85 32.20 c-0.20 -0.20 -0.35 -1 -0.35 -1.80 0 -0.75 -0.20 -1.40 -0.50 -1.40 -0.25 0 -0.50 -0.80 -0.50 -1.75 0 -0.95 0.25 -1.75 0.50 -1.75 0.30 0 0.50 0.25 0.50 0.50 0 0.75 2 2.60 2.95 2.70 0.55 0.10 0.80 0.65 0.80 1.85 0 1.55 -0.15 1.70 -1.50 1.85 -0.85 0.10 -1.70 0 -1.90 -0.20z"/>
  <path d="M29.30 31.20 c-0.15 -0.45 -0.30 -1.25 -0.30 -1.80 0 -0.85 0.15 -0.80 1.25 0.50 0.70 0.85 1.25 1.65 1.25 1.80 0 0.65 -1.90 0.25 -2.20 -0.50z"/>
  <path d="M30.05 27.90 c-0.55 -1.45 -1 -2.25 -1 -1.75 -0.05 0.45 -0.40 0.85 -0.80 0.85 -0.55 0 -0.75 -0.55 -0.75 -2 0 -1.90 0.05 -2 1.65 -2.05 0.85 0 1.30 -0.15 1 -0.30 -0.95 -0.35 -0.80 -3.20 0.25 -4.90 0.50 -0.80 1.10 -2.10 1.25 -2.85 0.20 -0.80 0.60 -1.40 0.85 -1.40 0.30 0 0.50 -0.45 0.50 -1 0 -0.55 0.25 -1 0.50 -1 0.30 0 0.50 -0.65 0.50 -1.45 0 -0.80 0.25 -1.55 0.60 -1.65 0.50 -0.20 0.45 -0.70 0 -2.30 -0.55 -1.75 -0.85 -2.10 -1.85 -2.10 -1.65 0 -1.60 -1.30 0 -1.70 3.25 -0.80 4.60 2.55 3.15 7.55 -0.50 1.70 -0.90 3.25 -0.85 3.50 0.25 1.50 -0.10 2.60 -0.80 2.35 -0.75 -0.30 -1 0.65 -0.80 3.30 0.05 0.90 -0.05 1.05 -0.40 0.55 -0.85 -1.30 -2.20 1.65 -1.95 4.20 0.15 1.25 0.10 2.25 -0.15 2.25 -0.55 0 -0.05 2.50 0.60 3.25 0.60 0.60 0.55 1.25 0 1.25 -0.25 0 -0.95 -1.20 -1.50 -2.60z"/>
  <path d="M11 23.75 c0 -2 1.20 -2.45 1.70 -0.60 0.50 1.85 0.35 2.35 -0.70 2.35 -0.80 0 -1 -0.35 -1 -1.75z"/>
  <path d="M20.30 21.15 c-0.15 -1.05 -0.30 -2.65 -0.30 -3.50 0 -1.40 0.20 -1.65 1.15 -1.65 1.05 0 1.10 0.25 1.15 3.50 0.05 3 -0.05 3.50 -0.80 3.50 -0.60 0 -0.95 -0.55 -1.20 -1.85z"/>
  <path d="M6.85 13.25 c-0.20 -1.40 -0.25 -1.45 -0.60 -0.35 -0.20 0.60 -0.55 1.10 -0.80 1.10 -0.60 0 -0.55 -1.35 0.05 -1.75 0.30 -0.15 0.50 -0.85 0.50 -1.45 0 -1.25 1.10 -1.80 3.65 -1.80 0.75 0 1.50 -0.35 1.65 -0.75 0.20 -0.40 0.85 -0.75 1.50 -0.75 1.15 0 1.20 0.05 0.55 1.65 -0.40 0.85 -0.85 2.45 -1.05 3.50 -0.35 1.80 -1.80 2.70 -1.80 1.10 0 -1.05 -2.35 -0.95 -2.95 0.10 -0.40 0.75 -0.50 0.65 -0.70 -0.60z"/>
  <path d="M16.50 9.05 c0 -0.85 0.25 -1.65 0.50 -1.80 0.30 -0.15 0.50 -1.10 0.50 -2.05 0 -1.30 0.20 -1.70 0.90 -1.70 0.80 -0.05 0.80 -0.05 0 -0.70 -1.20 -0.90 -1.15 -1.60 0.15 -1.95 0.65 -0.15 1.40 0.10 2 0.70 1 1 1 1 -0.30 2.55 -2.50 3 -3.65 6.40 -1.30 3.85 l1.05 -1.15 0 1.85 c0 1.80 -0.05 1.85 -1.75 1.85 -1.60 0 -1.75 -0.10 -1.75 -1.45z"/>
 </g>
 <g fill="#ba6503">
  <path d="M30.70 36.75 c-1.05 -1.25 -2.20 -2.25 -2.55 -2.25 -0.35 0 -0.65 -0.25 -0.65 -0.50 0 -0.30 -0.30 -0.50 -0.60 -0.45 -1.15 0.20 -3.20 -0.95 -4.05 -2.25 l-0.85 -1.30 1.50 0 c1.15 0 1.50 -0.20 1.50 -1 0 -0.75 -0.35 -1 -1.25 -1 -1.10 0 -1.25 -0.20 -1.25 -2 0 -1.90 0.10 -2 1.50 -2 1 0 1.50 0.25 1.50 0.75 0 0.40 -0.20 0.75 -0.50 0.75 -0.95 0 -0.50 1.20 0.85 2.40 l1.40 1.15 0.35 -1.35 c0.25 -0.90 0.15 -1.55 -0.20 -1.75 -0.80 -0.50 0.50 -5.45 1.45 -5.45 0.65 0 0.70 0.55 0.45 3.40 -0.20 1.85 -0.45 3.95 -0.60 4.75 -0.20 1 -0.10 1.35 0.50 1.35 0.45 0 0.80 0.25 0.80 0.50 0 0.30 0.30 0.50 0.65 0.55 0.30 0 1.15 0.70 1.85 1.55 l1.20 1.55 -1.35 -0.35 c-1.85 -0.45 -1.70 -0.05 0.80 1.75 1.90 1.40 1.95 1.50 0.65 1.15 -1.35 -0.35 -1.45 -0.30 -1.10 1 0.15 0.70 0.25 1.30 0.15 1.30 -0.10 0 -1.05 -1 -2.15 -2.25z m-3 -5.45 c-0.80 -0.65 -1.55 -1.15 -1.65 -1.05 -0.10 0.10 0.50 0.75 1.25 1.45 0.80 0.65 1.55 1.15 1.65 1.05 0.10 -0.10 -0.50 -0.75 -1.25 -1.45z"/>
  <path d="M9.50 36.60 c0 -0.25 0.35 -0.85 0.80 -1.40 0.70 -0.85 0.75 -0.85 0.50 -0.05 -0.15 0.50 -0.30 1.15 -0.30 1.40 0 0.25 -0.20 0.45 -0.50 0.45 -0.25 0 -0.50 -0.20 -0.50 -0.40z"/>
  <path d="M9.75 32.15 c0.25 -0.50 0.45 -2.80 0.50 -5.15 0.05 -2.35 -0.05 -3.60 -0.20 -2.75 l-0.30 1.45 -0.90 -1.35 c-0.50 -0.75 -0.85 -2.25 -0.85 -3.55 0 -1.25 -0.20 -2.40 -0.50 -2.55 -0.25 -0.15 -0.50 -1.65 -0.50 -3.30 0 -1.65 -0.20 -2.90 -0.45 -2.75 -0.25 0.15 -0.40 -0.95 -0.30 -2.50 0.15 -3.30 1.35 -4.80 5.75 -7.15 3.40 -1.80 4.50 -1.95 4.50 -0.55 0 0.80 -0.35 1 -1.50 1 -1 0 -1.50 0.25 -1.50 0.75 0 0.40 -0.55 0.85 -1.20 1.05 -1.40 0.35 -3.70 4.20 -2.50 4.20 0.65 0 0.75 0.85 0.60 5.70 -0.15 5.15 -0.10 5.75 0.70 5.95 0.65 0.20 0.90 0.75 0.90 2 0 1 0.25 1.85 0.55 1.95 1 0.35 -0.45 5.75 -1.90 7.20 -0.95 0.95 -1.20 1.05 -0.90 0.35z"/>
  <path d="M29.80 27.40 c-0.45 -1.75 -0.35 -2.40 0.35 -2.40 0.45 0 0.65 0.60 0.65 1.75 -0.05 2 -0.55 2.30 -1 0.65z"/>
  <path d="M14.50 22.55 c0 -0.80 0.30 -1.05 1.25 -1.05 0.80 0 1.25 0.30 1.25 0.75 0 0.40 -0.20 0.75 -0.45 0.75 -0.25 0 -0.80 0.15 -1.25 0.30 -0.60 0.20 -0.80 0 -0.80 -0.75z"/>
  <path d="M6 20.30 c0 -0.40 0.25 -0.90 0.50 -1.05 0.30 -0.15 0.50 0.15 0.50 0.70 0 0.60 -0.20 1.05 -0.50 1.05 -0.25 0 -0.50 -0.30 -0.50 -0.70z"/>
  <path d="M29.30 16.70 c0.65 -1.80 1.65 -3.85 2.20 -4.60 1.35 -1.85 2.15 -6.60 1.10 -6.60 -0.40 0 -1.05 0.40 -1.40 0.85 -0.60 0.80 -0.65 0.70 -0.70 -0.95 0 -1.85 0.05 -1.90 1.95 -1.90 2.40 0 2.70 0.65 2.25 4.85 -0.20 2.20 -0.55 3.15 -1 3.15 -0.45 0 -0.70 0.50 -0.65 1.40 0.10 1.15 0.10 1.20 0.30 0.25 0.10 -0.65 0.55 -1.15 0.95 -1.15 0.55 0 0.65 0.30 0.45 1.05 -0.20 0.65 -0.15 0.95 0.10 0.80 0.30 -0.20 0.40 0.20 0.25 0.95 -0.15 0.90 -0.40 1.10 -0.85 0.70 -0.45 -0.40 -0.75 -0.35 -0.90 0.10 -0.15 0.40 -0.30 0.25 -0.35 -0.35 -0.05 -1 -0.05 -1 -0.75 -0.05 -0.40 0.55 -0.75 1.40 -0.75 1.90 0 0.50 -0.20 0.90 -0.50 0.90 -0.25 0 -0.50 0.45 -0.50 1 0 0.75 -0.35 1 -1.25 1 l-1.20 0 1.25 -3.30z"/>
  <path d="M15.80 14.35 c-0.35 -1.50 0.10 -5.25 0.85 -6.95 0.60 -1.45 2.20 -2.05 1.65 -0.65 -0.15 0.40 -0.45 1.10 -0.65 1.55 -0.55 1.50 0.65 0.50 2.95 -2.30 2.45 -3.05 5.20 -4.40 6.95 -3.50 1.35 0.75 1.20 1.50 -0.30 1.50 -0.75 0 -1.80 0.55 -2.45 1.25 -0.65 0.70 -1.40 1.25 -1.75 1.25 -0.30 0 -0.55 0.25 -0.55 0.55 0 0.30 0.35 0.40 0.80 0.25 0.70 -0.25 0.75 -0.20 0.20 0.45 -1.15 1.40 -0.05 1.45 2 0.05 l2 -1.30 0 1.25 c0 1 0.25 1.25 1.25 1.25 1.20 0 1.25 0.05 0.60 1.60 -0.90 2.15 -1.85 2.40 -1.85 0.45 0 -1.05 -0.25 -1.55 -0.75 -1.55 -0.40 0 -0.75 0.25 -0.75 0.50 0 0.30 -0.80 0.50 -1.75 0.50 -1.60 0 -1.75 -0.10 -1.75 -1.50 0 -1.35 -0.15 -1.50 -1.50 -1.50 -1.40 0 -1.50 0.15 -1.50 1.75 0 1.40 -0.20 1.75 -1 1.75 -0.85 0 -1 0.35 -1 2.25 0 2.45 -1.15 3.20 -1.70 1.10z"/>
 </g>
 <g fill="#d56300">
  <path d="M30.95 36.85 c-0.45 -0.60 -1.70 -1.55 -2.75 -2.10 -2.85 -1.45 -6.35 -4.45 -8.25 -7.15 -0.90 -1.30 -1.95 -2.65 -2.30 -3 -0.60 -0.65 -0.85 -1.35 -0.70 -2.20 0 -0.25 -0.50 -0.40 -1.20 -0.40 -1.55 0 -1.60 -0.75 -0.20 -1.55 0.95 -0.50 1.05 -0.80 0.75 -3.50 -0.30 -2.70 -0.25 -2.95 0.60 -2.95 0.75 0 1.05 0.50 1.30 2.30 0.15 1.30 0.30 3 0.30 3.75 0 1.10 0.25 1.45 1 1.45 0.70 0 1 0.35 1 1.15 0 1.35 2.85 5.80 4.20 6.55 0.55 0.30 1.65 1.30 2.45 2.20 0.80 0.90 1.70 1.55 2.05 1.50 0.30 -0.10 1 0.30 1.55 0.85 0.55 0.55 1.60 1.40 2.25 1.85 1.25 0.85 1.25 0.85 0.15 0.85 -0.80 0.05 -1.05 0.30 -0.85 0.80 0.45 1.10 -0.45 0.85 -1.35 -0.40z"/>
  <path d="M31.45 33.10 c-0.65 -0.55 -1.75 -1.10 -2.50 -1.25 -1.10 -0.30 -1.25 -0.55 -1.05 -2.10 0.10 -1 0.40 -1.75 0.60 -1.65 0.20 0.10 1.45 1.45 2.70 3.05 2.35 2.85 2.45 3.65 0.25 1.95z"/>
  <path d="M11 30.50 c0 -0.40 -0.15 -1.60 -0.30 -2.60 -0.30 -1.75 -0.25 -1.90 0.80 -1.90 1.05 0 1.10 0.15 0.85 2.05 -0.25 2.05 -1.35 3.95 -1.35 2.45z"/>
  <path d="M30.60 29 c-0.35 -0.55 -0.45 -1 -0.20 -1 0.20 0 0.65 0.45 1 1 0.35 0.55 0.45 1 0.20 1 -0.20 0 -0.65 -0.45 -1 -1z"/>
  <path d="M10.60 24.15 c-0.10 -1.80 -1.10 -2.80 -1.10 -1.05 0 1 -0.05 1.05 -0.80 0.30 -1.20 -1.15 -0.50 -5.90 0.80 -5.90 1.10 0 1.70 2.90 1.35 6.25 -0.15 1.75 -0.20 1.80 -0.25 0.40z"/>
  <path d="M28 21 c0 -1.30 1.95 -5.50 2.55 -5.50 0.25 0 0.45 0.80 0.45 1.75 0 0.95 -0.20 1.75 -0.50 1.75 -0.25 0 -0.50 0.70 -0.50 1.50 0 1.15 -0.20 1.50 -1 1.50 -0.65 0 -1 -0.35 -1 -1z"/>
  <path d="M20.50 16.30 c0 -1.60 0.15 -1.80 1.25 -1.80 1.20 0 1.25 0.05 0.60 1.60 -0.95 2.30 -1.85 2.40 -1.85 0.20z"/>
  <path d="M7 14.55 c0 -1.65 -0.20 -3.10 -0.45 -3.25 -0.80 -0.50 -0.30 -3.20 0.75 -4.15 0.55 -0.50 0.70 -0.70 0.35 -0.45 -1.35 0.90 -0.60 -0.65 0.80 -1.65 2.15 -1.55 2.70 -1.35 2.35 0.85 -0.15 1 -0.55 3.85 -0.90 6.25 -0.50 3.55 -0.75 4.30 -1.25 3.80 -0.55 -0.55 -0.65 -0.50 -0.65 0.15 0 0.45 -0.20 1 -0.50 1.15 -0.30 0.20 -0.50 -0.80 -0.50 -2.70z m2.50 -3.70 c0 -1 -1.25 0.05 -1.40 1.20 -0.10 1.15 -0.10 1.15 0.65 0.25 0.40 -0.55 0.75 -1.20 0.75 -1.45z"/>
  <path d="M26 13.30 c0 -1.40 -0.45 -1.65 -1.40 -0.70 -0.45 0.45 -0.60 0.25 -0.60 -1 0 -1.50 0.10 -1.60 1.75 -1.60 1.45 0 1.80 0.20 2.05 1.35 0.35 1.35 -0.20 2.70 -1.20 3.05 -0.35 0.10 -0.60 -0.35 -0.60 -1.10z"/>
  <path d="M15.75 11 c-0.20 -1 -0.10 -1.95 0.40 -2.65 0.80 -1.25 1.40 -3.85 0.90 -3.85 -0.20 0 -0.60 0.25 -0.95 0.60 -0.45 0.45 -0.60 0.35 -0.60 -0.50 0 -0.95 -0.30 -1.10 -1.80 -1.10 -2.20 0 -2.10 -0.90 0.20 -1.85 1.55 -0.65 1.60 -0.60 1.60 0.60 0 1.10 0.20 1.25 1.75 1.25 1.50 0 1.75 0.15 1.75 1.15 0 0.65 -0.35 1.60 -0.75 2.15 -0.40 0.50 -0.75 2 -0.75 3.35 0 2.75 -1.20 3.35 -1.75 0.85z"/>
  <path d="M22 8.25 c0 -0.45 -0.50 -0.75 -1.30 -0.75 l-1.25 0 1.35 -1.80 c2 -2.55 5.20 -4.10 5.20 -2.45 0 0.50 0.50 0.75 1.50 0.75 1.40 0 1.50 0.15 1.50 1.75 0 1.55 -0.15 1.75 -1.30 1.75 -1.10 0 -1.25 -0.10 -0.70 -0.75 0.55 -0.65 0.40 -0.75 -0.65 -0.75 -1.20 0 -3.35 1.65 -3.35 2.60 0 0.20 -0.20 0.40 -0.50 0.40 -0.25 0 -0.50 -0.35 -0.50 -0.75z"/>
 </g>
 <g fill="#bf7f00">
  <path d="M31.10 37 c-0.85 -1.40 -0.80 -1.50 0.80 -1.50 0.90 0 1.15 0.15 0.70 0.40 -0.35 0.25 -0.50 0.80 -0.30 1.25 0.45 1.20 -0.45 1.05 -1.20 -0.15z"/>
  <path d="M28.40 34.15 c-0.35 -0.50 -1.25 -1.20 -2 -1.60 -0.90 -0.45 -1.40 -1.10 -1.40 -1.85 0 -0.60 -0.25 -1.20 -0.55 -1.30 -0.30 -0.10 -0.45 -0.80 -0.35 -1.60 l0.15 -1.45 1.30 1.35 c0.80 0.75 1.65 1.20 2.10 1.05 0.65 -0.30 0.65 -0.50 0.05 -1.75 -0.60 -1.15 -0.60 -1.85 -0.15 -3.70 0.60 -2.50 1.95 -3.20 1.95 -1.05 0 0.80 0.30 1.25 0.80 1.25 0.70 0 0.75 0.35 0.50 2.05 -0.25 1.50 -0.10 2.40 0.45 3.25 0.40 0.65 0.60 1.20 0.40 1.20 -0.65 0 -1.55 -1.75 -1.95 -3.80 l-0.40 -1.95 -0.30 2.50 c-0.30 2.45 0.20 3.75 1.45 3.75 0.55 0 1.55 1.60 1.55 2.55 0 0.40 -0.20 0.40 -0.75 -0.05 -0.60 -0.50 -0.75 -0.50 -0.75 0.10 0 0.40 0.25 0.95 0.60 1.30 0.45 0.45 0.30 0.60 -0.70 0.60 -0.75 0 -1.65 -0.40 -2 -0.85z m1.10 -1.35 c0 -0.10 -0.85 -0.80 -1.85 -1.55 l-1.90 -1.40 1.45 1.55 c1.30 1.40 2.30 2 2.30 1.40z"/>
  <path d="M11 25.60 c0 -0.75 -0.45 -2.20 -1 -3.25 -0.85 -1.55 -0.85 -1.85 -0.25 -1.85 0.40 0 0.75 -0.20 0.75 -0.50 0 -0.25 0.35 -0.50 0.75 -0.50 0.40 0 0.75 0.10 0.75 0.20 0 0.10 0.25 1.35 0.50 2.80 0.55 3 0.30 4.50 -0.80 4.50 -0.45 0 -0.70 -0.50 -0.70 -1.40z"/>
  <path d="M20.25 21.90 c-0.20 -1.20 -0.40 -3.05 -0.45 -4.15 -0.05 -1.80 0.05 -2 1.30 -2.15 1.30 -0.15 1.35 -0.10 0.90 1.25 -0.60 1.70 0.45 6.45 1.40 6.30 0.35 -0.10 0.60 0.10 0.60 0.35 0 0.30 -0.75 0.50 -1.70 0.50 -1.55 0 -1.70 -0.10 -2.05 -2.10z"/>
  <path d="M8.75 16.40 c-0.30 -1 -0.40 -1 -0.60 -0.25 -0.25 0.90 -1.15 1.20 -1.15 0.35 0 -0.30 0.25 -0.95 0.50 -1.50 0.30 -0.55 0.75 -1.45 1 -2 0.30 -0.60 0.40 -1.30 0.20 -1.60 -0.20 -0.35 -0.15 -0.40 0.20 -0.20 0.35 0.20 0.60 0.10 0.60 -0.15 0 -0.75 -2.35 -0.70 -2.60 0.05 -0.15 0.35 -0.35 0.40 -0.50 0.10 -0.20 -0.25 0.35 -1.35 1.15 -2.40 0.90 -1.25 1.45 -1.65 1.45 -1.15 0 0.50 0.40 0.85 1 0.85 1.15 0 1.20 0.80 0.70 5.95 -0.35 3.15 -1.25 4.05 -1.95 1.95z"/>
  <path d="M32.50 16.25 c-0.05 -0.55 -0.20 -0.70 -0.35 -0.35 -0.10 0.30 -0.65 0.60 -1.20 0.60 -1.30 0 -1.20 -0.75 0.65 -4.60 1.90 -3.85 3.10 -4.45 2.80 -1.40 -0.10 1.10 -0.05 2 0.10 2 0.15 0 0.30 0.70 0.35 1.55 0.10 1 -0.10 1.45 -0.50 1.30 -0.35 -0.10 -0.85 0.25 -1.20 0.85 -0.60 1 -0.60 1.05 -0.65 0.05z"/>
  <path d="M28 9.25 c0 -1.40 0.20 -1.75 1 -1.75 1.10 0 1.30 1 0.50 2.55 -0.80 1.50 -1.50 1.15 -1.50 -0.80z"/>
  <path d="M13 6.25 c0 -1.20 0.25 -1.75 0.75 -1.75 0.90 0 1 -1.30 0.15 -1.70 -0.45 -0.15 -0.35 -0.45 0.30 -1 1.40 -1.15 2.80 -1 2.80 0.20 0 0.55 0.25 1 0.50 1 0.30 0 0.45 0.85 0.45 1.90 -0.05 1.15 -0.15 1.40 -0.30 0.75 -0.30 -1.55 -0.80 -1.45 -2.60 0.60 -0.85 0.95 -1.65 1.75 -1.80 1.75 -0.15 0 -0.25 -0.80 -0.25 -1.75z"/>
  <path d="M7 6.60 c0 -0.50 1.10 -1.60 1.60 -1.60 0.75 0 0.40 0.75 -0.60 1.40 -0.55 0.35 -1 0.45 -1 0.20z"/>
  <path d="M20.75 6.20 c0.55 -0.40 1.40 -1 1.90 -1.30 0.80 -0.40 0.90 -0.30 0.75 0.70 -0.10 0.90 -0.50 1.20 -1.90 1.30 -1.70 0.10 -1.70 0.10 -0.75 -0.70z"/>
 </g>
 <g fill="#a97234">
  <path d="M9.70 36.95 c-0.15 -0.30 0 -0.90 0.45 -1.30 0.65 -0.65 0.70 -0.60 0.50 0.55 -0.30 1.45 -0.45 1.55 -0.95 0.75z"/>
  <path d="M27.50 28.75 c0 -1.10 0.25 -1.75 0.65 -1.75 0.40 0 0.90 0.80 1.20 1.75 0.55 1.65 0.50 1.75 -0.65 1.75 -1.05 0 -1.20 -0.25 -1.20 -1.75z"/>
  <path d="M11.35 27.70 c-0.20 -0.20 -0.35 -1.10 -0.35 -2.05 0 -1.15 0.25 -1.65 0.75 -1.65 0.70 0 1 0.90 0.75 2.50 -0.10 1 -0.75 1.60 -1.15 1.20z"/>
  <path d="M23 26 c0 -0.55 -0.20 -1 -0.50 -1 -0.25 0 -0.50 -0.60 -0.50 -1.35 0 -1 0.15 -1.20 0.55 -0.80 0.30 0.30 0.90 0.45 1.30 0.30 0.75 -0.30 1.65 0.60 1.65 1.75 0 0.30 -0.35 0.60 -0.80 0.60 -0.50 0 -0.70 0.30 -0.50 0.75 0.15 0.45 0 0.75 -0.45 0.75 -0.40 0 -0.75 -0.45 -0.75 -1z"/>
  <path d="M17 23.45 c0 -0.35 -0.50 -0.45 -1.25 -0.35 -1.05 0.20 -1.25 0.05 -1.25 -0.90 0 -1 0.25 -1.20 1.50 -1.20 1.35 0 1.50 0.15 1.50 1.50 0 0.85 -0.10 1.50 -0.25 1.50 -0.15 0 -0.25 -0.25 -0.25 -0.55z"/>
  <path d="M26.10 13 c0.05 -0.80 0.25 -1.50 0.50 -1.50 0.20 0 0.40 -0.35 0.40 -0.75 0 -0.45 0.45 -0.75 1.25 -0.75 1.40 0 1.30 0.75 -0.35 3.15 -1.25 1.75 -1.85 1.70 -1.80 -0.15z"/>
  <path d="M8.90 12.40 c0.70 -0.70 0.80 -2.60 0.10 -2.15 -0.25 0.15 -0.90 0.05 -1.35 -0.20 -0.75 -0.40 -0.55 -0.50 1 -0.55 1.80 0 1.85 0.05 1.85 1.75 0 1.45 -0.20 1.75 -1.10 1.75 -0.85 0 -0.95 -0.15 -0.50 -0.60z"/>
  <path d="M34.50 8.25 c0 -1.40 0.20 -1.75 1 -1.75 1.05 0 1.20 0.50 0.70 2.40 -0.50 1.80 -1.70 1.35 -1.70 -0.65z"/>
 </g>
 <g fill="#e18001">
  <path d="M30.70 36.45 c-1.30 -1.60 -6.50 -5.45 -6.90 -5.10 -0.15 0.15 -0.75 -0.25 -1.30 -0.90 -1.50 -1.75 -2.60 -3.95 -2 -3.95 0.25 0 0.50 -0.45 0.50 -1 0 -0.55 0.35 -1 0.75 -1 0.40 0 0.75 -0.20 0.75 -0.50 0 -0.75 2.40 -0.60 2.65 0.15 0.10 0.30 -0.15 0.85 -0.60 1.20 -0.70 0.50 -0.65 0.75 0.65 2.10 1.65 1.70 2.30 1.95 2.30 0.80 0 -0.40 0.35 -0.75 0.75 -0.75 0.40 0 0.75 0.35 0.75 0.75 0 0.40 0.70 1.40 1.50 2.25 1.75 1.75 2.20 3.80 0.55 2.30 -0.55 -0.50 -1 -0.65 -1.10 -0.35 -0.10 0.30 -0.90 -0.15 -1.80 -0.95 -1.90 -1.80 -1.90 -1.80 -2 -0.50 -0.05 0.60 0.20 1 0.65 1 1.10 0 6.35 3.60 5.80 3.95 -0.25 0.15 -0.55 0.60 -0.70 1 -0.15 0.55 -0.45 0.40 -1.20 -0.50z"/>
  <path d="M10.50 25.05 c0 -1.70 -0.20 -3.05 -0.50 -3.05 -0.70 0 -1.45 -3.35 -1.15 -5.25 0.20 -1.15 0.10 -1.75 -0.30 -1.75 -0.30 0 -0.55 0.45 -0.55 1 0 0.55 -0.20 1 -0.50 1 -0.25 0 -0.50 -0.30 -0.50 -0.70 0 -0.40 0.25 -0.90 0.50 -1.05 0.30 -0.15 0.50 -0.70 0.50 -1.20 0 -0.50 0.35 -1.20 0.75 -1.55 0.90 -0.75 1 -2.55 0.15 -2.25 -0.35 0.15 -1 0.05 -1.40 -0.20 -0.60 -0.45 -0.60 -0.60 0.10 -1.40 0.40 -0.50 1.05 -1.40 1.35 -2.05 0.60 -1.10 0.55 -1.15 -0.45 -0.60 -0.60 0.30 -1.20 0.50 -1.30 0.35 -0.55 -0.50 6.30 -4.85 7.65 -4.85 0.35 0 0.65 0.55 0.65 1.25 0 1 -0.25 1.25 -1.20 1.25 -0.85 0 -1.35 0.35 -1.60 1.15 -0.15 0.60 -0.75 1.70 -1.25 2.45 -0.65 0.85 -0.95 2.15 -0.95 3.90 0 1.40 -0.25 3 -0.50 3.55 -0.30 0.55 -0.35 0.95 -0.05 0.95 0.80 0 2.30 5.60 2.30 8.75 0 2.45 -0.15 3 -0.85 3.15 -0.80 0.15 -0.90 -0.25 -0.90 -2.85z"/>
  <path d="M16.85 23.45 c-0.75 -0.80 -1.05 -0.90 -1.65 -0.45 -0.60 0.50 -0.70 0.40 -0.70 -0.70 0 -1.15 0.20 -1.30 1.75 -1.30 1.65 0 1.75 0.10 1.75 1.75 0 0.95 -0.05 1.75 -0.15 1.75 -0.05 0 -0.55 -0.45 -1 -1.05z"/>
  <path d="M28.25 20.65 c0.70 -3.65 2.75 -6.20 2.75 -3.40 0 2.40 -1.20 5.25 -2.20 5.25 -0.80 0 -0.85 -0.25 -0.55 -1.85z"/>
  <path d="M19.50 17.55 c0 -2.35 0.50 -3.05 2.05 -3.05 l1.50 0 -0.90 1.65 c-0.45 0.85 -0.80 1.90 -0.75 2.25 0.10 0.30 -0.30 0.60 -0.90 0.60 -0.75 0 -1 -0.30 -1 -1.45z"/>
  <path d="M31 13.70 c0 -0.60 1.70 -3.20 2.10 -3.20 0.20 0 0.40 0.80 0.40 1.75 0 1.55 -0.15 1.75 -1.25 1.75 -0.70 0 -1.25 -0.15 -1.25 -0.30z"/>
  <path d="M26 10.75 c0 -1.65 0.10 -1.75 1.75 -1.75 1.90 0 2.05 0.30 1.15 2.25 -0.35 0.80 -0.95 1.25 -1.75 1.25 -1 0 -1.15 -0.25 -1.15 -1.75z"/>
  <path d="M16 10.40 c0 -1.90 1.50 -5.35 2.40 -5.40 0.80 0 0.75 0.60 -0.15 1.80 -0.40 0.50 -0.75 1.40 -0.75 1.90 0 0.75 0.40 0.55 1.95 -1 3.05 -3.10 5.65 -5.20 6.40 -5.20 0.40 0 0.65 0.60 0.65 1.80 0 1.05 -0.20 1.65 -0.50 1.45 -0.55 -0.35 -3 1.90 -3 2.80 0 0.30 0.40 0.45 1 0.30 0.80 -0.20 1 0 1 0.95 0 1.10 -0.20 1.20 -2.50 1.20 -1.35 0 -2.50 0.25 -2.50 0.50 0 0.30 -0.90 0.50 -2 0.50 -1.90 0 -2 -0.05 -2 -1.60z"/>
  <path d="M29.50 6.25 c0 -1.65 0.10 -1.75 1.70 -1.75 l1.70 0 -1.55 1.75 c-0.85 0.95 -1.60 1.75 -1.70 1.75 -0.10 0 -0.15 -0.80 -0.15 -1.75z"/>
 </g>
 <g fill="#cc9900">
  <path d="M30.30 35.55 c-0.50 -0.55 -1.90 -1.60 -3.05 -2.30 -2.45 -1.40 -3.75 -3.15 -3.75 -5 0 -1.60 0.85 -1.60 2.60 0.10 l1.40 1.35 0 -3.05 c0 -3.50 0.30 -4.65 1.30 -4.65 0.80 0 0.95 -1.85 0.20 -2.10 -0.80 -0.25 1.85 -6.50 3.50 -8.35 1.55 -1.65 1.95 -3.05 0.95 -3.05 -0.35 0 -0.45 -0.55 -0.30 -1.50 0.75 -3.65 -2.05 -1.65 -3.65 2.65 -0.60 1.65 -1.05 2.15 -2.10 2.25 -1.10 0.15 -1.45 -0.10 -1.70 -1.10 -0.55 -2.25 -0.10 -3 2.20 -3.50 2.45 -0.50 2.70 -1.05 0.60 -1.45 -1.25 -0.30 -1.50 -0.55 -1.50 -1.85 0 -1.65 0.55 -1.90 1.50 -0.75 0.80 0.95 1.70 0.95 2.50 0 0.70 -0.85 2.50 -1 2.50 -0.25 0 0.30 0.55 0.50 1.25 0.50 0.95 0 1.25 0.30 1.50 1.65 0.45 2.25 -1.25 8.80 -2.60 10.25 -0.35 0.35 -0.65 1 -0.65 1.35 0 0.40 -0.45 1.45 -1 2.35 -0.65 1.10 -1 2.55 -1 4.30 0 2.80 -0.25 3.10 -1.30 1.75 -0.60 -0.80 -0.65 -0.65 -0.70 1.15 0 1.15 0.25 2.75 0.55 3.60 0.95 2.75 0.40 3.30 -1.45 1.55 -0.90 -0.85 -1.75 -1.45 -1.90 -1.30 -0.25 0.20 2.15 2.35 4.30 3.85 0.65 0.45 1.05 1.15 0.95 1.70 -0.20 0.85 -0.25 0.85 -1.15 -0.15z"/>
  <path d="M30.60 29 c-0.35 -0.55 -0.60 -1.25 -0.60 -1.60 0.05 -0.35 0.40 0 0.80 0.75 0.90 1.65 0.70 2.30 -0.20 0.85z"/>
  <path d="M20.50 23.30 c0 -0.70 -0.20 -1.40 -0.50 -1.55 -0.25 -0.15 -0.50 -1.20 -0.50 -2.30 0 -3.60 2.30 -1.90 2.65 1.95 0.05 0.65 0.50 1.50 0.95 1.80 1.40 0.85 1.05 1.30 -0.85 1.30 -1.50 0 -1.75 -0.15 -1.75 -1.20z"/>
  <path d="M10 18.25 c0 -0.95 -0.20 -1.75 -0.50 -1.75 -0.25 0 -0.50 -0.30 -0.50 -0.70 0 -0.40 -0.25 -0.80 -0.55 -0.90 -0.85 -0.30 0.10 -1.90 1.10 -1.90 0.60 0 0.95 0.35 0.95 1 0 0.55 0.35 1 0.75 1 0.55 0 0.75 0.60 0.75 2.50 0 2.15 -0.15 2.50 -1 2.50 -0.80 0 -1 -0.35 -1 -1.75z"/>
  <path d="M9.25 11.95 c0.20 -0.25 0.20 -1.10 0 -1.80 -0.20 -0.95 -0.45 -1.15 -0.90 -0.70 -1.15 1.15 -1.40 0.50 -0.35 -0.95 0.75 -1.05 1.50 -1.50 2.50 -1.50 1 0 1.55 -0.30 1.75 -1 0.20 -0.70 0.75 -1 1.80 -1 1.10 0 1.45 -0.25 1.45 -1 0 -0.55 -0.35 -1 -0.75 -1 -1.20 0 -0.90 -1.35 0.40 -1.70 1.75 -0.45 2.35 -0.35 2.35 0.40 0 0.40 0.55 0.85 1.25 1 1.45 0.35 1.55 0.90 0.45 2.55 -1 1.50 -1.70 1.60 -1.70 0.25 0 -2.35 -2.10 -0.55 -4.55 3.90 -1.30 2.45 -1.95 3.10 -2.85 3.10 -0.70 0 -1.05 -0.20 -0.85 -0.55z"/>
 </g>
 <g fill="#f47501">
  <path d="M31.10 36.60 c-1.10 -1.90 -0.60 -2.75 0.90 -1.55 0.70 0.60 1 0.90 0.65 0.75 -0.35 -0.20 -0.65 0.15 -0.75 0.80 l-0.15 1.15 -0.65 -1.15z"/>
  <path d="M26.85 32.80 c-0.20 -0.45 -0.55 -0.75 -0.80 -0.55 -0.25 0.15 -0.80 -0.15 -1.15 -0.60 -0.35 -0.50 -1.30 -1.25 -2.10 -1.65 -0.80 -0.40 -1.40 -0.95 -1.35 -1.20 0.10 -0.25 -0.05 -0.60 -0.30 -0.75 -1 -0.65 -2.15 -2.85 -2.15 -4.05 -0.05 -1.10 -0.10 -1.15 -0.55 -0.35 -0.45 0.80 -0.65 0.75 -2 -0.60 -1.75 -1.75 -1.80 -2.35 -0.40 -2.70 0.85 -0.20 1 -0.55 0.80 -1.45 -0.15 -0.65 -0.45 -2.20 -0.60 -3.50 -0.35 -2.20 -0.25 -2.40 0.65 -2.40 0.85 0 1.10 0.50 1.55 3.15 0.30 1.75 0.55 3.65 0.55 4.25 0 0.75 0.30 1.10 0.95 1.10 0.60 0 1.15 0.55 1.50 1.50 0.40 1.25 0.80 1.50 2.15 1.55 0.90 0 1.35 0.15 1.05 0.30 -0.35 0.10 -0.65 0.60 -0.65 1 0 0.50 -0.30 0.65 -0.80 0.45 -0.40 -0.15 -0.60 -0.10 -0.45 0.20 0.15 0.30 0.75 0.50 1.30 0.50 0.50 0 0.95 0.25 0.95 0.50 0 0.30 -0.45 0.50 -1 0.50 -0.55 0 -1 0.35 -1 0.75 0 0.50 0.50 0.75 1.50 0.75 0.85 0 1.50 0.25 1.50 0.60 0 0.30 0.35 0.95 0.80 1.45 0.45 0.50 0.70 1.20 0.60 1.50 -0.15 0.45 -0.35 0.35 -0.55 -0.25z"/>
  <path d="M10.50 27.50 c0 -0.25 0.45 -0.50 1.05 -0.50 0.55 0 0.85 0.25 0.70 0.50 -0.15 0.30 -0.65 0.50 -1.05 0.50 -0.40 0 -0.70 -0.20 -0.70 -0.50z"/>
  <path d="M9.50 19.25 c0 -0.40 -0.20 -0.75 -0.45 -0.75 -0.25 0 -0.35 -0.45 -0.20 -1 0.45 -1.75 1.65 -1.20 1.65 0.75 0 0.95 -0.20 1.75 -0.50 1.75 -0.25 0 -0.50 -0.35 -0.50 -0.75z"/>
  <path d="M20.50 16.25 c0 -1.45 0.85 -4.40 1.65 -5.60 0.25 -0.40 0.15 -0.65 -0.25 -0.65 -0.35 0 -1.15 -0.55 -1.75 -1.20 -1.10 -1.15 -1.10 -1.15 -0.15 -2.05 0.55 -0.50 1 -0.75 1 -0.55 0 0.25 0.80 -0.30 1.75 -1.15 1.30 -1.15 2.25 -1.55 3.65 -1.55 1.70 0 1.95 0.15 2.55 1.80 0.80 2.25 0.35 5.70 -1 7.40 -0.95 1.20 -2.35 1.90 -1.70 0.80 0.15 -0.25 0.10 -0.85 -0.15 -1.30 -0.45 -0.80 -1 -0.30 -4.45 4.15 l-1.15 1.40 0 -1.50z m4.90 -8.25 c1.15 -0.85 2.10 -1.75 2.10 -2 0 -1 -2.75 0 -3.85 1.35 -2.10 2.60 -1.30 2.85 1.75 0.65z"/>
  <path d="M16 9.30 c0 -0.80 1.55 -3.90 2.20 -4.35 0.20 -0.20 0.10 -0.45 -0.25 -0.60 -0.40 -0.15 -0.20 -0.30 0.45 -0.30 1.35 -0.05 1.35 0.30 0.10 2.20 -0.55 0.85 -1 2 -1 2.65 0 0.65 -0.30 1.10 -0.75 1.10 -0.40 0 -0.75 -0.30 -0.75 -0.70z"/>
  <path d="M8.95 7.35 c0.30 -0.40 0.35 -0.90 0.15 -1.15 -0.20 -0.25 -0.15 -0.30 0.10 -0.10 0.25 0.20 0.75 0 1.10 -0.50 0.60 -0.75 0.65 -0.70 0.70 0.80 0 1.40 -0.15 1.60 -1.30 1.60 -1.05 0 -1.20 -0.15 -0.75 -0.65z"/>
 </g>
 <g fill="#ec9a00">
  <path d="M30.55 35.85 c-1.35 -2.15 -1.05 -3.05 0.50 -1.50 0.65 0.60 0.95 1.50 0.85 2.20 -0.15 1.10 -0.20 1.10 -1.35 -0.70z"/>
  <path d="M26.45 32.45 c-0.95 -0.85 -2.40 -1.80 -3.20 -2.15 -1.25 -0.55 -1.75 -1.25 -2.70 -3.95 -0.65 -1.85 -1.40 -3.35 -1.65 -3.35 -0.30 0 -1.05 -0.55 -1.70 -1.25 -0.80 -0.90 -0.95 -1.25 -0.45 -1.25 0.75 0 0.70 -1.15 -0.30 -5 -0.75 -3 -0.55 -6.30 0.60 -8.20 0.60 -1 0.85 -1.80 0.60 -1.80 -0.20 0 -0.10 -0.20 0.25 -0.45 0.55 -0.35 0.55 -0.45 -0.10 -0.70 -0.45 -0.20 -1.45 0.35 -2.55 1.40 -1.20 1.20 -1.75 1.50 -1.75 0.95 0 -0.70 -0.15 -0.70 -0.75 -0.20 -0.40 0.35 -0.75 1.10 -0.75 1.65 0 0.55 -0.25 1.85 -0.55 2.80 -0.30 1 -0.75 2.45 -1 3.25 -0.30 1.10 -0.25 1.60 0.30 2 0.65 0.45 1.70 5.70 1.75 8.40 0 1.35 -1.35 0.50 -1.65 -1 -0.15 -0.75 -0.60 -2.25 -1.05 -3.35 -0.40 -1.10 -0.75 -2.85 -0.80 -3.85 0 -1.05 -0.25 -1.90 -0.50 -1.90 -0.30 0 0.05 -1.10 0.75 -2.50 1.40 -2.70 1.65 -4.25 0.50 -2.70 -0.65 0.85 -0.70 0.85 -0.75 0.10 0 -0.50 -0.25 -0.90 -0.55 -0.90 -0.30 0 0.15 -0.85 1 -1.85 0.95 -1.10 1.30 -2 1 -2.15 -0.60 -0.40 1.65 -2 2.80 -2 0.40 0 0.75 -0.20 0.75 -0.50 0 -0.25 0.45 -0.50 1 -0.50 0.65 0 1 0.35 1 1 0 0.85 0.35 1 2 1 1.10 0 2 0.10 2 0.30 0 0.15 -0.55 1.10 -1.25 2.10 -1.25 1.85 -1.70 4.60 -0.75 4.60 0.30 0 0.50 -0.50 0.50 -1.10 0 -0.85 0.15 -0.95 0.45 -0.45 0.25 0.40 0.55 0.45 0.75 0.15 0.15 -0.30 0.10 -0.65 -0.20 -0.85 -0.80 -0.50 -0.05 -1.25 0.85 -0.90 0.65 0.25 0.75 0.10 0.45 -0.60 -0.20 -0.55 -0.20 -0.80 0 -0.60 0.40 0.40 4 -2.65 3.80 -3.25 -0.25 -0.85 3.05 -0.35 4.10 0.65 0.90 0.85 1 1.40 0.80 3.85 -0.20 2.45 -0.40 2.85 -1.30 2.90 -0.60 0.05 -1.30 0.20 -1.65 0.40 -0.30 0.20 -0.55 0.15 -0.55 -0.15 0 -0.25 0.35 -0.70 0.85 -0.95 0.75 -0.45 1.05 -3 0.45 -4.05 -0.65 -1 -2.90 -0.90 -4.15 0.15 -0.95 0.85 -1.15 1.35 -0.90 2.45 0.40 1.55 0.70 1.65 2.05 0.60 1.60 -1.20 1.70 -0.85 0.40 1.40 -0.65 1.15 -1.30 2.45 -1.50 2.85 -0.15 0.40 -0.65 1.50 -1.10 2.45 -0.95 1.90 -1.20 4.40 -0.55 4.85 0.25 0.15 0.45 0.75 0.45 1.30 0 0.55 0.40 1.35 0.90 1.70 0.50 0.40 0.60 0.65 0.25 0.70 -0.90 0 -0.80 1 0.10 1 0.40 0 0.75 0.35 0.75 0.75 0 0.45 -0.30 0.60 -0.85 0.40 -0.55 -0.20 -0.70 -0.15 -0.45 0.25 0.20 0.35 0.75 0.60 1.25 0.60 0.45 0 1.70 0.90 2.75 2 2.10 2.20 2.85 2.50 2.45 0.95 -0.15 -0.55 -0.55 -0.90 -0.85 -0.80 -0.35 0.15 -0.65 -0.30 -0.70 -0.95 -0.10 -1.60 1.20 -1.05 1.65 0.70 1.10 4.40 0.70 4.60 -2.20 1.25 -2 -2.35 -2.05 -2.35 -1.40 -0.70 0.30 0.90 1.20 2.20 2 2.80 0.75 0.65 1.35 1.30 1.35 1.45 0 0.65 -0.90 0.20 -2.55 -1.25z m-6.20 -19 c0.20 -0.80 0.55 -1.45 0.85 -1.45 0.30 0 0.40 -0.15 0.25 -0.30 -0.20 -0.20 -0.90 0.05 -1.60 0.50 -0.90 0.60 -1.25 1.25 -1.25 2.35 0 1.30 0.10 1.45 0.70 1 0.40 -0.35 0.90 -1.30 1.05 -2.10z"/>
  <path d="M28.50 20.15 c0.05 -0.95 1.10 -2.65 1.70 -2.65 0.15 0 0.30 0.80 0.30 1.75 0 1.40 -0.20 1.75 -1 1.75 -0.65 0 -1 -0.35 -1 -0.85z"/>
  <path d="M33.50 3.50 c0 -1.20 1.75 -1.40 2.20 -0.20 0.45 1.15 0.40 1.20 -0.95 1.20 -0.90 0 -1.25 -0.25 -1.25 -1z"/>
 </g>
 <g fill="#dbb900">
  <path d="M30.45 35.70 c-0.40 -0.55 -1.30 -1.35 -2 -1.80 -2.20 -1.40 -5.90 -5.40 -5.65 -6.10 0.25 -0.65 2.75 -0.55 2.60 0.15 -0.35 1.70 2.65 5.55 4.35 5.55 0.80 0 1.90 1.80 1.65 2.60 -0.15 0.35 -0.50 0.20 -0.95 -0.40z"/>
  <path d="M27.75 31 c-0.80 -0.80 -1.25 -1.65 -1.10 -1.85 0.20 -0.15 0.35 -0.10 0.35 0.15 0 0.25 0.70 0.90 1.50 1.35 0.85 0.50 1.50 1.10 1.50 1.40 0 0.85 -0.80 0.45 -2.25 -1.05z"/>
  <path d="M27.85 28.65 c-1.30 -1.30 0.65 -9.70 3.70 -15.75 0.80 -1.60 1.45 -3.45 1.45 -4.10 0 -0.70 0.25 -1.85 0.50 -2.60 0.60 -1.60 0.55 -1.75 -0.85 -1.40 -1 0.25 -3.65 4.70 -3.65 6.10 0 0.30 -0.35 0.60 -0.75 0.60 -0.45 0 -0.60 -0.30 -0.45 -0.85 0.25 -0.85 0.25 -0.85 -0.45 -0.05 -0.85 1.10 -1.35 1.15 -1.35 0.15 0 -0.40 0.45 -0.95 0.95 -1.25 0.85 -0.45 0.95 -0.90 0.75 -3.55 l-0.25 -3.05 1.10 0.80 c1 0.70 1.20 0.65 2.35 -0.20 1.40 -1.15 3.75 -1.30 4.45 -0.35 1.45 1.80 0.90 6.45 -1.35 11.10 -0.55 1.15 -1 2.25 -1 2.45 0 0.20 -0.45 0.95 -1 1.65 -0.75 0.95 -1 2.05 -1 4.20 0 1.65 -0.20 2.95 -0.50 2.95 -0.25 0 -0.50 -0.45 -0.50 -1 0 -0.55 -0.20 -1 -0.50 -1 -0.55 0 -0.65 0.75 -0.50 3.65 0.05 1.70 -0.35 2.30 -1.15 1.50z"/>
  <path d="M10 15.50 c0 -1.35 -0.25 -2.50 -0.50 -2.50 -0.30 0 -0.20 -0.75 0.25 -1.80 0.40 -1 0.75 -2.25 0.75 -2.80 0 -0.85 -0.10 -0.90 -0.75 -0.40 -1.10 0.90 -1.35 0.40 -0.45 -0.90 1.10 -1.60 1.70 -1.35 1.70 0.65 0 1.15 0.30 1.90 0.80 2.10 0.60 0.25 0.70 0.80 0.45 2.85 -0.50 4.35 -0.80 5.30 -1.55 5.30 -0.50 0 -0.70 -0.65 -0.70 -2.50z"/>
  <path d="M18.50 5.40 c0 -1.15 -1.20 -1.45 -2.45 -0.60 -0.95 0.70 -1.05 0.65 -1.05 0 0 -0.45 -0.45 -0.80 -1 -0.80 -2.15 0 -0.20 -2.30 2.40 -2.80 1.25 -0.25 1.60 -0.15 1.60 0.50 0 0.45 0.40 0.80 1 0.80 1.20 0 1.30 1.30 0.25 2.70 -0.60 0.80 -0.75 0.85 -0.75 0.20z"/>
 </g>
 <g fill="#f2871b">
  <path d="M22.80 28.65 c-0.20 -0.20 -0.65 -0.40 -0.95 -0.40 -0.35 0 -1 -1.20 -1.55 -2.60 -0.50 -1.45 -1.25 -2.65 -1.60 -2.65 -0.40 0 -0.70 0.25 -0.70 0.60 0 0.85 -1.85 -1 -2.15 -2.15 -0.20 -0.70 0 -0.95 0.75 -0.95 0.70 0 0.90 -0.25 0.70 -0.75 -0.45 -1.30 1.40 0 2.20 1.45 0.35 0.70 1.10 1.30 1.60 1.30 0.50 0 1.05 0.35 1.20 0.75 0.20 0.40 0.85 0.75 1.45 0.75 0.65 0 1.35 0.25 1.50 0.50 0.15 0.30 -0.05 0.50 -0.45 0.50 -0.45 0 -0.80 0.35 -0.80 0.75 0 0.45 -0.30 0.60 -0.75 0.45 -0.40 -0.20 -0.75 -0.05 -0.75 0.25 0 0.30 0.75 0.75 1.65 1 1.15 0.35 1.30 0.45 0.50 0.50 -0.60 0.05 -1.15 0.30 -1.25 0.60 -0.10 0.25 -0.35 0.35 -0.60 0.10z"/>
  <path d="M10.30 18.70 c-0.15 -0.40 -0.45 -0.65 -0.70 -0.50 -0.20 0.10 -0.45 -0.20 -0.45 -0.75 -0.05 -0.65 0.25 -0.95 0.90 -0.95 0.70 0 0.95 0.35 0.95 1.50 0 1.65 -0.25 1.90 -0.70 0.70z"/>
  <path d="M19 18.70 c0 -0.50 -0.30 -0.70 -0.70 -0.55 -0.80 0.30 -1.90 -1.80 -1.50 -2.90 0.20 -0.40 0.10 -0.75 -0.15 -0.75 -0.45 0 -0.50 -0.65 -0.25 -3.65 0.05 -0.50 0.35 -0.75 0.60 -0.60 0.30 0.20 0.35 0.60 0.20 0.90 -0.25 0.40 -0.15 0.40 0.35 0 0.95 -0.90 1.45 -0.80 1.45 0.35 0 0.55 -0.20 1 -0.50 1 -0.70 0 0 4.65 0.80 5.30 0.80 0.65 0.95 1.70 0.20 1.70 -0.25 0 -0.50 -0.35 -0.50 -0.80z"/>
  <path d="M20 16.20 c0 -0.85 0.25 -2.25 0.55 -3.15 0.45 -1.30 0.40 -1.75 -0.20 -2.45 -0.55 -0.60 -0.65 -1.10 -0.35 -1.60 0.35 -0.60 0.60 -0.55 1.60 0.25 0.60 0.55 1.45 1.35 1.80 1.75 0.60 0.65 0.65 0.65 0.40 -0.10 -0.10 -0.45 0.05 -0.95 0.40 -1.05 0.90 -0.35 0.45 1.40 -0.50 2.20 -0.40 0.30 -0.70 1 -0.70 1.50 0 0.50 -0.65 1.65 -1.50 2.55 l-1.45 1.65 -0.05 -1.55z"/>
  <path d="M26.25 12.05 c-0.35 -1.60 0.05 -2.75 0.75 -2.30 0.25 0.15 0.30 0.65 0.15 1.15 -0.20 0.50 -0.10 0.70 0.15 0.45 0.60 -0.55 0.65 -4.95 0.05 -5.70 -0.25 -0.35 -0.95 -0.65 -1.55 -0.70 -1 0 -1.05 -0.05 -0.05 -0.45 0.80 -0.35 0.80 -0.45 0.20 -0.45 -0.45 -0.05 -0.95 -0.35 -1.10 -0.75 -0.45 -1.15 2.75 -0.50 3.80 0.75 0.90 1.10 1.25 5.95 0.40 5.95 -0.20 0 -0.60 0.70 -0.85 1.60 -0.60 2.10 -1.55 2.30 -1.95 0.45z"/>
  <path d="M21.60 8.90 c-0.70 -0.70 -0.80 -1.90 -0.15 -1.90 0.50 0 1.30 1.95 0.95 2.30 -0.10 0.10 -0.50 -0.10 -0.80 -0.40z"/>
  <path d="M9.55 6.65 c0.40 -0.45 1.30 -1.45 2.10 -2.30 l1.35 -1.45 0 1.55 c0 0.85 -0.20 1.55 -0.50 1.55 -0.25 0 -0.50 0.35 -0.50 0.75 0 0.50 -0.50 0.75 -1.55 0.75 -1.40 0 -1.50 -0.10 -0.90 -0.85z"/>
  <path d="M22 6.10 c0 -0.50 1.65 -2.10 2.15 -2.10 0.70 0 0.25 0.80 -0.90 1.65 -0.70 0.50 -1.25 0.70 -1.25 0.45z"/>
  <path d="M18.50 5.05 c0 -0.95 -0.20 -1.15 -1.25 -0.95 -0.70 0.15 -1.25 0.05 -1.25 -0.15 0 -0.25 0.80 -0.45 1.75 -0.45 1.80 0 2.15 0.60 1.25 2 -0.40 0.60 -0.50 0.50 -0.50 -0.45z"/>
 </g>
 <g fill="#f9aa01">
  <path d="M30.50 35.75 c-0.50 -0.60 -0.50 -0.75 0.20 -0.75 0.45 0 0.80 0.35 0.80 0.75 0 0.40 -0.10 0.75 -0.20 0.75 -0.10 0 -0.45 -0.35 -0.80 -0.75z"/>
  <path d="M24.95 31 c-0.65 -0.50 -1.05 -0.95 -0.90 -1 0.15 0 -0.55 -0.95 -1.65 -2.10 -1.05 -1.15 -1.90 -2.25 -1.90 -2.50 0 -0.20 0.85 -0.40 1.90 -0.35 1.50 0.05 1.65 0.10 0.65 0.40 -1.15 0.30 -1.15 0.35 -0.35 1.20 0.50 0.45 1.35 0.85 1.95 0.85 0.75 0 0.90 0.15 0.45 0.40 -0.50 0.35 -0.35 0.85 0.60 2.25 1.40 2.05 1.05 2.40 -0.75 0.85z"/>
  <path d="M27.85 28.65 c-0.55 -0.50 -0.40 -4.50 0.20 -6.95 0.55 -2.20 1.65 -2.95 2.05 -1.30 0.30 1.15 -0.25 3.15 -0.85 3.15 -0.30 0 -0.45 1.15 -0.40 2.70 0.10 2.55 -0.20 3.25 -1 2.40z"/>
  <path d="M19.35 23.10 c-0.25 -0.35 -0.80 -0.55 -1.25 -0.50 -0.55 0.10 -0.90 -0.25 -1 -0.95 -0.15 -0.85 0.10 -1.15 0.80 -1.15 1.25 0 2.25 1.20 2 2.35 -0.15 0.65 -0.30 0.75 -0.55 0.25z"/>
  <path d="M10.20 18.75 c-1.40 -2.10 -1.80 -4.90 -0.95 -6.10 1 -1.35 1.65 -0.35 2.20 3.35 0.55 4 0.15 4.90 -1.25 2.75z"/>
  <path d="M19 18.70 c0 -0.50 -0.30 -0.70 -0.75 -0.50 -0.50 0.20 -0.80 -0.15 -1 -1.10 -0.15 -0.75 -0.50 -2 -0.75 -2.85 -0.50 -1.70 -0.05 -5.10 0.50 -3.55 0.25 0.80 0.45 0.75 1.95 -0.65 1.60 -1.50 1.65 -1.50 2.80 -0.65 1.70 1.20 1.80 1.75 0.70 3.90 -0.50 1.05 -0.95 2.15 -0.95 2.50 0 0.30 -0.35 0.85 -0.75 1.20 -0.40 0.35 -0.75 1.05 -0.75 1.55 0 0.55 -0.20 0.95 -0.50 0.95 -0.25 0 -0.50 -0.35 -0.50 -0.80z m1 -5.35 c0 -0.50 -0.20 -0.75 -0.50 -0.60 -0.25 0.15 -0.50 0.90 -0.50 1.65 0 1.05 0.10 1.20 0.50 0.60 0.25 -0.40 0.50 -1.15 0.50 -1.65z"/>
  <path d="M26.40 12.15 c-0.30 -1.10 0.05 -2.15 0.65 -2.15 0.20 0 0.25 0.35 0.10 0.85 -0.20 0.45 -0.10 0.70 0.15 0.50 0.25 -0.15 0.55 -1.45 0.60 -2.90 0.10 -2.70 -0.75 -4.45 -2.25 -4.45 -1 0 -0.50 -1.20 0.55 -1.40 1.25 -0.25 2.75 1.25 2.45 2.45 -0.20 0.65 0 0.95 0.60 0.95 0.70 0 0.80 0.30 0.50 1.90 -0.80 4.15 -2.75 6.65 -3.35 4.25z"/>
  <path d="M10.50 8.65 c0 -1.05 -0.15 -1.15 -0.70 -0.70 -0.60 0.50 -0.70 0.45 -0.60 -0.20 0.20 -1.25 5.25 -6.25 6.35 -6.25 1.30 0 1.30 2 0 2.35 -0.55 0.15 -1.10 0.55 -1.25 0.95 -0.15 0.40 -0.60 0.70 -1.05 0.70 -0.55 0 -0.75 0.55 -0.75 1.95 0 1.50 -0.20 2 -1 2.20 -0.80 0.20 -1 0 -1 -1z"/>
  <path d="M18.50 5.10 c0 -0.70 0.30 -1.10 0.80 -1.10 0.70 0 0.75 0.15 0.15 0.90 -0.35 0.45 -0.75 0.95 -0.80 1.05 -0.10 0.10 -0.15 -0.25 -0.15 -0.85z"/>
 </g>
 <g fill="#c4934f">
  <path d="M21.90 25.15 c-0.55 -0.15 -0.90 -0.70 -0.90 -1.50 0 -1 0.20 -1.20 0.90 -0.90 0.45 0.20 1.25 0.40 1.75 0.45 1.35 0.15 2 1.45 0.95 1.90 -0.95 0.35 -1.45 0.40 -2.70 0.05z"/>
  <path d="M14.60 21.95 c0.20 -1.60 2.40 -2.05 2.40 -0.50 0 0.60 -0.20 1.05 -0.45 1.05 -0.25 0 -0.85 0.15 -1.30 0.30 -0.65 0.25 -0.80 0.10 -0.65 -0.85z"/>
  <path d="M26.35 12.40 c0.10 -2.40 0.10 -2.40 0.65 -2.40 0.25 0 0.35 0.35 0.20 0.75 -0.20 0.40 -0.05 0.75 0.25 0.75 0.35 0 0.50 -0.60 0.45 -1.30 -0.10 -0.75 0.15 -1.45 0.50 -1.55 1 -0.35 0.70 2.30 -0.45 3.90 -1.30 1.85 -1.70 1.85 -1.60 -0.15z"/>
 </g>
 <g fill="#f4c100">
  <path d="M24.10 29.70 c-1.80 -2 -2 -2.70 -0.70 -2.40 0.85 0.25 3.35 4.20 2.65 4.20 -0.20 0 -1.10 -0.80 -1.95 -1.80z"/>
  <path d="M27.95 28.90 c-0.60 -2.75 -0.20 -6.75 1 -9.65 0.25 -0.55 0.65 -1.60 1 -2.35 0.30 -0.80 0.75 -1.40 1.05 -1.40 0.65 0 0.65 2.65 0.05 3.30 -0.30 0.25 -0.60 1.10 -0.75 1.90 -0.15 0.80 -0.65 1.85 -1.10 2.35 -0.65 0.75 -0.75 1.45 -0.50 3.45 0.20 1.60 0.15 2.50 -0.20 2.50 -0.25 0 -0.50 -0.05 -0.55 -0.10z"/>
  <path d="M21.25 26.45 c-0.50 -0.75 0.15 -1.25 0.80 -0.60 0.35 0.35 0.35 0.65 0.05 0.85 -0.30 0.15 -0.70 0.05 -0.85 -0.25z"/>
  <path d="M21 23.50 c0 -1.15 0.40 -1.25 1.65 -0.30 1.20 0.90 1.05 1.30 -0.40 1.30 -0.90 0 -1.25 -0.25 -1.25 -1z"/>
  <path d="M10.45 16.90 c0 -1.05 -0.05 -1.05 -0.40 -0.20 -0.55 1.50 -1.05 0.25 -0.85 -2.25 0.20 -2.70 0.70 -3.95 1.55 -3.95 0.80 0 1.05 1.75 0.85 5.15 -0.20 2.35 -1.05 3.35 -1.15 1.25z"/>
  <path d="M18.70 17.10 c-0.80 -0.10 -1.15 -0.65 -1.40 -2.10 -0.40 -2.45 0 -3.35 1.75 -4.25 2.65 -1.40 3.15 -1.10 2.75 1.95 -0.50 4.25 -0.85 4.80 -3.10 4.40z"/>
  <path d="M31.60 13.15 c1.75 -3.70 2.40 -4.05 2.40 -1.40 0 1.55 -0.15 1.75 -1.30 1.75 -0.70 0 -1.20 -0.15 -1.10 -0.35z"/>
  <path d="M11.05 9.55 c-0.40 -0.25 -0.55 -0.80 -0.30 -1.50 0.35 -1.10 -0.50 -1.50 -0.90 -0.40 -0.20 0.40 -0.30 0.40 -0.30 -0.15 -0.05 -0.85 3.90 -5 4.80 -5 0.35 0 0.65 -0.20 0.65 -0.45 0 -0.25 0.45 -0.55 1 -0.70 0.80 -0.20 1 0 1 0.95 0 1.05 0.25 1.20 1.85 1.20 1.80 0 1.80 0 0.85 1.05 -0.75 0.85 -1 0.90 -1.10 0.30 -0.10 -0.40 -0.70 -0.90 -1.40 -1.05 -1 -0.25 -1.50 -0.05 -2.35 1.05 -0.60 0.75 -1.10 1.60 -1.10 1.90 -0.05 0.25 -0.25 1.10 -0.45 1.90 -0.40 1.40 -1.05 1.65 -2.25 0.90z"/>
  <path d="M28.15 8.40 c0.05 -1.90 -0.25 -2.90 -1.40 -4.10 l-1.20 -1.30 1.20 0 c0.65 0 1.50 0.45 1.90 1 0.65 0.95 0.75 0.95 1.40 0.20 0.60 -0.75 0.70 -0.75 0.95 0.35 0.20 0.75 -0.05 1.80 -0.70 2.80 -1.05 1.65 -2.20 2.20 -2.15 1.05z"/>
  <path d="M34.50 7.25 c0 -1.25 0.20 -1.75 0.75 -1.75 1.05 0 1.45 1.20 0.75 2.45 -0.80 1.60 -1.50 1.25 -1.50 -0.70z"/>
  <path d="M32.10 3.65 c0.25 -1.35 2.70 -1.45 3.40 -0.20 0.50 1 0.40 1.05 -1.50 1.05 -1.70 0 -2.05 -0.15 -1.90 -0.85z"/>
 </g>
 <g fill="#f1d801">
  <path d="M24.55 30.05 c-1.70 -2.10 -1.95 -2.85 -0.85 -2.20 0.95 0.50 3.40 4.15 2.85 4.15 -0.25 0 -1.15 -0.90 -2 -1.95z"/>
  <path d="M28 23.60 c0 -1.15 2.10 -7.30 3.50 -10.10 2.45 -4.90 2.95 -8.50 1.15 -8.50 -1.15 0 -2.55 2 -3.40 4.90 -0.60 2 -1 2.60 -1.75 2.60 -0.75 0 -1 -0.30 -0.95 -1.35 0.05 -0.85 0.15 -1.05 0.30 -0.50 0.10 0.45 0.45 0.85 0.75 0.85 0.30 0 0.40 -0.50 0.20 -1.20 -0.15 -0.70 -0.05 -1.40 0.25 -1.55 0.55 -0.35 0.15 -3.20 -0.60 -4 -0.70 -0.70 -0.55 -1.25 0.30 -1.25 0.45 0 0.95 0.50 1.20 1.10 0.30 0.90 0.45 0.95 0.70 0.25 0.45 -1.20 2.95 -2.30 4.50 -2 3.35 0.65 2.30 7.50 -2.20 14.65 -0.45 0.70 -1.50 2.50 -2.35 4 -0.90 1.50 -1.60 2.45 -1.60 2.10z"/>
  <path d="M17.70 15.75 c-0.40 -1 0.20 -4.15 0.85 -4.55 0.30 -0.15 0.50 0 0.40 0.35 -0.20 1.80 0.05 2.10 1 1.25 1.15 -1.05 1.80 -0.35 1.35 1.50 -0.20 0.75 -0.70 1.20 -1.30 1.20 -0.55 0 -1 0.25 -1 0.50 0 0.80 -1 0.60 -1.30 -0.25z"/>
  <path d="M10.35 14.30 c-0.85 -0.90 -0.85 -1.90 0.15 -5.25 0.35 -1.20 0.30 -1.85 -0.05 -2.05 -0.60 -0.40 1.95 -3.05 4.65 -4.85 3.35 -2.25 7.60 -0.55 4.95 1.95 -0.80 0.80 -1.25 0.95 -1.40 0.55 -0.45 -1.25 -2.10 -0.60 -3.85 1.45 -1 1.15 -1.80 2.30 -1.80 2.60 0 0.30 -0.40 1.90 -0.90 3.50 -0.85 2.80 -0.95 2.90 -1.75 2.10z"/>
 </g>
 <g fill="#f7a73e">
  <path d="M21.05 26.30 c-0.30 -0.35 -0.40 -1.35 -0.25 -2.15 0.30 -1.45 0.35 -1.50 1.90 -0.95 0.85 0.30 1.60 0.55 1.70 0.60 0.55 0.25 -0.70 1.70 -1.50 1.70 -0.50 0 -0.85 0.20 -0.65 0.45 0.45 0.80 -0.60 1.10 -1.20 0.35z"/>
  <path d="M16.75 23 c-0.20 -0.30 -0.75 -0.40 -1.30 -0.25 -1.10 0.35 -1.30 -0.70 -0.35 -1.65 1.40 -1.40 4.90 -0.05 4.90 1.90 0 0.50 -0.15 0.50 -0.85 -0.05 -0.65 -0.55 -0.85 -0.55 -1 -0.05 -0.30 0.75 -1 0.80 -1.40 0.10z"/>
  <path d="M26.35 12.05 c-0.10 -0.50 -0.05 -1.25 0.20 -1.60 0.35 -0.55 0.45 -0.50 0.45 0.25 0 0.65 0.25 0.80 0.80 0.60 0.60 -0.25 0.75 -0.10 0.50 0.50 -0.15 0.40 -0.30 0.90 -0.30 1 0 0.70 -1.45 0.05 -1.65 -0.75z"/>
 </g>
 <g fill="#f5f000">
  <path d="M24.25 29.50 c-0.50 -0.55 -0.80 -1.10 -0.65 -1.25 0.15 -0.15 0.65 0.20 1.15 0.75 0.50 0.55 0.80 1.10 0.65 1.25 -0.15 0.15 -0.65 -0.20 -1.15 -0.75z"/>
  <path d="M29.80 17.90 c0.40 -1.20 1.40 -3.55 2.20 -5.25 1.55 -3.30 2 -7.25 0.90 -7.95 -0.55 -0.35 -3.35 2.55 -3.40 3.55 -0.05 1.60 -1.15 4.25 -1.75 4.25 -1 0 -0.95 -0.50 0.15 -1.30 0.75 -0.60 0.75 -0.75 0.10 -1.25 -0.55 -0.40 -0.60 -0.60 -0.10 -0.80 0.30 -0.10 0.60 -1 0.60 -1.95 0 -0.95 0.20 -1.65 0.40 -1.55 0.25 0.05 1 -0.55 1.70 -1.40 1.20 -1.35 1.40 -1.40 3.20 -1 1.75 0.45 1.95 0.70 2.10 2.20 0.10 0.90 -0.05 2.25 -0.35 3 -0.30 0.70 -0.60 1.85 -0.75 2.55 -0.10 0.70 -0.40 1.70 -0.60 2.25 -0.55 1.40 -4.30 6.75 -4.80 6.75 -0.20 0 0 -0.95 0.40 -2.10z"/>
  <path d="M11.15 7.50 c0.10 -2.05 0.30 -2.30 3.05 -4.35 3.05 -2.25 4.50 -2.60 6.05 -1.45 0.95 0.70 0.95 0.75 0.10 1.65 -0.55 0.65 -1.30 0.90 -2.30 0.75 -1.20 -0.15 -1.85 0.25 -4.25 2.70 l-2.80 2.90 0.15 -2.20z"/>
 </g>
 <g fill="#f2b869">
  <path d="M22.60 25.15 c-0.35 -0.10 -0.85 -0.70 -1.15 -1.20 -0.50 -0.95 -0.40 -1 1.40 -0.65 1.05 0.20 2 0.40 2.10 0.50 0.20 0.15 -1.25 1.75 -1.55 1.65 -0.10 0 -0.45 -0.15 -0.80 -0.30z"/>
  <path d="M14.65 22.35 c-0.40 -0.70 0.70 -1.50 2.20 -1.60 1.30 -0.10 3.15 0.95 3.15 1.75 0 0.50 -5.05 0.35 -5.35 -0.15z"/>
  <path d="M26.50 12.20 c0 -1.20 0.15 -1.70 0.40 -1.30 0.25 0.35 0.80 0.50 1.30 0.30 0.80 -0.30 0.85 -0.20 0.40 0.65 -0.30 0.55 -0.90 1.25 -1.30 1.65 -0.70 0.55 -0.80 0.40 -0.80 -1.30z"/>
 </g>
 <g fill="#eaff39">
  <path d="M27.50 9.80 c0 -0.15 0.45 -0.75 1.05 -1.35 l1.05 -1.05 -0.20 1.20 c-0.10 0.95 -1.90 2.05 -1.90 1.20z"/>
 </g>
 <g fill="#f7dd84">
  <path d="M22 24.25 c-0.35 -0.45 -0.50 -0.90 -0.35 -1.10 0.40 -0.35 1.85 0.75 1.85 1.40 0 0.70 -0.80 0.55 -1.50 -0.30z"/>
  <path d="M16.15 22.60 c-2.05 -0.30 -1.35 -1.60 0.80 -1.60 2.40 0 3.80 1.30 1.70 1.55 -0.80 0.10 -1.90 0.15 -2.50 0.05z"/>
  <path d="M26.50 13.45 c0 -0.80 1.85 -2.80 2.25 -2.40 0.10 0.15 -0.35 0.90 -1 1.70 -0.85 1.05 -1.20 1.25 -1.25 0.70z"/>
 </g>
 <g fill="#f8efa5">
  <path d="M18.40 22.15 c-0.50 -0.10 -0.90 -0.45 -0.90 -0.70 0 -0.70 0.80 -0.55 1.50 0.30 0.35 0.40 0.55 0.70 0.45 0.70 -0.10 -0.05 -0.60 -0.15 -1.05 -0.30z"/>
  <path d="M27 12.55 c0.50 -1.05 1.50 -1.85 1.50 -1.30 0 0.70 -1.05 2.25 -1.55 2.25 -0.30 0 -0.30 -0.35 0.05 -0.95z"/>
 </g>
</svg>