<?xml version="1.0" encoding="utf-8"?>
<!DOCTYPE svg PUBLIC "-//W3C//DTD SVG 1.0//EN" "http://www.w3.org/TR/2001/REC-SVG-20010904/DTD/svg10.dtd">
<svg version="1.0" xmlns="http://www.w3.org/2000/svg" width="100px" height="100px" viewBox="0 0 100 100" preserveAspectRatio="xMidYMid meet">
 <g fill="#0c0a0d">
  <path d="M19.10 97.15 l0.15 -2.90 3.65 -0.15 c4.70 -0.20 6.05 0.65 6.10 3.80 l0 2.10 -5 0 -5.05 0 0.15 -2.85z"/>
  <path d="M50 97.30 c0 -1.85 0.60 -2.30 3.05 -2.30 1.30 0 1.45 0.15 1.45 1.70 0 1.85 -0.60 2.30 -3.05 2.30 -1.30 0 -1.45 -0.15 -1.45 -1.70z"/>
  <path d="M75.50 96.80 c0 -0.65 -0.20 -1.30 -0.45 -1.40 -0.25 -0.05 -0.65 -1.55 -0.85 -3.25 -0.30 -3 -0.25 -3.15 0.75 -3.15 0.90 0 1.05 0.30 1.05 2 0 1.05 0.45 3.10 1 4.50 l1 2.50 -1.25 0 c-1 0 -1.25 -0.25 -1.25 -1.20z"/>
  <path d="M8 92.95 c0 -1.60 1.20 -4.95 1.80 -4.95 0.75 0 0.90 1.40 0.40 3.95 -0.25 1.05 -0.60 1.55 -1.25 1.55 -0.55 0 -0.95 -0.25 -0.95 -0.55z"/>
  <path d="M17.65 90.70 c-0.90 -0.20 -1.15 -0.60 -1.15 -1.95 0 -2.20 1.25 -3.05 5.15 -3.50 2.50 -0.30 3 -0.25 3.60 0.55 0.80 1.10 1 4 0.25 4.45 -0.65 0.40 -6.50 0.75 -7.85 0.45z"/>
  <path d="M73.80 83 c-0.45 -1.10 -0.80 -2.80 -0.80 -3.75 0 -1.65 0.10 -1.75 1.75 -1.75 1.90 0 2.30 0.65 0.90 1.45 -0.80 0.45 -0.80 0.65 -0.20 2.15 1.25 3.10 1.25 3.90 0.15 3.90 -0.70 0 -1.25 -0.60 -1.80 -2z"/>
  <path d="M15.70 81.15 c-1.10 -0.80 -1.65 -5 -1.45 -11.10 0.20 -6.25 0.90 -9.60 2.90 -14.15 0.95 -2.25 1.15 -2.40 2.90 -2.40 l1.85 0 0.55 3.15 c0.30 1.75 0.55 7.10 0.55 11.90 0 8.10 -0.10 8.85 -1.15 10.70 -1 1.80 -1.35 2 -3.35 2.15 -1.25 0.05 -2.50 -0.05 -2.80 -0.25z"/>
  <path d="M82.50 75.75 c0 -0.80 0.30 -1.25 0.75 -1.25 0.40 0 0.75 -0.20 0.75 -0.50 0 -0.25 0.70 -0.50 1.50 -0.50 2 0 1.90 0.70 -0.35 2.25 -2.35 1.55 -2.65 1.55 -2.65 0z"/>
  <path d="M91.50 67.85 c0 -1.60 0.15 -1.85 1.20 -1.85 0.95 0 1.15 0.20 0.95 0.95 -0.15 0.55 -0.70 1.35 -1.20 1.85 -0.90 0.85 -0.95 0.80 -0.95 -0.95z"/>
  <path d="M10 63.40 c0 -1.50 0.65 -2.90 1.30 -2.90 0.45 0 0.70 0.60 0.70 1.75 0 1.40 -0.20 1.75 -1 1.75 -0.55 0 -1 -0.30 -1 -0.60z"/>
  <path d="M85.50 60.25 c0 -1.35 0.45 -2.20 2 -3.75 1.10 -1.10 2.35 -2 2.75 -2 0.50 0 0.75 -0.50 0.75 -1.50 0 -1.15 -0.20 -1.50 -1 -1.50 -0.55 0 -1 -0.30 -1 -0.70 0 -0.40 -0.25 -0.80 -0.60 -0.90 -0.30 -0.10 -0.65 -1.50 -0.80 -3.05 -0.20 -2.65 -0.15 -2.85 0.85 -2.85 0.90 0 1.05 0.30 1.05 1.90 0 1.20 0.45 2.55 1.30 3.75 2.65 3.90 4.15 8.85 2.70 8.85 -0.30 0 -1.20 0.80 -2.05 1.75 -1.35 1.50 -1.85 1.75 -3.75 1.75 -2.20 0 -2.20 0 -2.20 -1.75z"/>
  <path d="M10.50 58.90 c0 -1.50 0.65 -2.90 1.30 -2.90 0.45 0 0.70 0.60 0.70 1.75 0 1.40 -0.20 1.75 -1 1.75 -0.55 0 -1 -0.30 -1 -0.60z"/>
  <path d="M61.90 49.15 c-1.90 -0.20 -1.90 -0.25 -1.90 -2.45 0 -1.25 0.25 -3.25 0.55 -4.50 0.55 -2.10 0.65 -2.20 2.40 -2.20 3.10 0 4.05 1.35 4.05 5.75 l0 3.75 -1.60 -0.10 c-0.90 -0.05 -2.50 -0.15 -3.50 -0.25z"/>
  <path d="M86 40.25 c0 -2.20 0.45 -2.20 1.90 0 l1.10 1.75 -1.50 0 c-1.40 0 -1.50 -0.15 -1.50 -1.75z"/>
  <path d="M83.50 37.05 c0 -0.55 -0.25 -1.05 -0.55 -1.15 -0.30 -0.10 -0.65 -1.25 -0.80 -2.60 -0.25 -1.95 -0.15 -2.40 0.40 -2.20 0.40 0.15 1.05 1.15 1.45 2.25 0.40 1.05 1.15 2.55 1.65 3.30 l0.85 1.35 -1.50 0 c-1.15 0 -1.50 -0.25 -1.50 -0.95z"/>
  <path d="M18.20 32.15 c0.65 -1.05 1.35 -2.75 1.50 -3.75 0.25 -1.25 0.60 -1.90 1.15 -1.90 0.65 0 0.75 0.45 0.45 2.80 -0.45 3.75 -1 4.70 -2.80 4.70 l-1.50 0 1.20 -1.85z"/>
  <path d="M79.50 29 c0 -0.55 -0.30 -1 -0.70 -1 -0.85 0 -1.30 -1.10 -1.30 -3.05 0 -1.95 0.45 -1.60 2.95 2.05 l2.05 3 -1.50 0 c-1.15 0 -1.50 -0.20 -1.50 -1z"/>
  <path d="M73 20.95 l0 -1.50 1.50 1.05 c2.20 1.55 2.25 2 0.30 2 -1.65 0 -1.80 -0.10 -1.80 -1.55z"/>
  <path d="M24 15.95 c0 -0.30 0.65 -1.20 1.45 -2 1.75 -1.70 3.55 -1.95 3.55 -0.45 0 0.75 -0.35 1 -1.25 1 -0.90 0 -1.25 0.25 -1.25 1 0 0.75 -0.35 1 -1.25 1 -0.70 0 -1.25 -0.25 -1.25 -0.55z"/>
  <path d="M37.50 16.10 c0 -0.35 0.85 -0.90 3.15 -2 0.20 -0.10 0.35 0.40 0.35 1.10 0 1.15 -0.20 1.30 -1.75 1.30 -0.95 0 -1.75 -0.20 -1.75 -0.40z"/>
  <path d="M31.50 14.25 c0 -1.55 0.55 -1.60 2.35 0 l1.40 1.20 -1.85 0.05 c-1.70 0 -1.90 -0.15 -1.90 -1.25z"/>
  <path d="M67.50 13.75 c0 -1.40 0.20 -1.75 1 -1.75 1.05 0 1.20 0.50 0.70 2.40 -0.50 1.80 -1.70 1.35 -1.70 -0.65z"/>
  <path d="M44.50 14.30 c0 -0.40 0.95 -0.90 2.20 -1.25 3 -0.75 3.30 -0.70 3.30 0.40 0 0.65 -0.50 1 -1.55 1.25 -2.55 0.50 -3.95 0.35 -3.95 -0.40z"/>
  <path d="M54.50 12.35 c0 -0.40 0.80 -0.90 1.75 -1.20 1.65 -0.55 1.75 -0.50 1.75 0.65 0 1.05 -0.25 1.20 -1.75 1.20 -1.10 0 -1.75 -0.25 -1.75 -0.65z"/>
  <path d="M68 9.25 c0 -1.40 0.20 -1.75 1 -1.75 1.05 0 1.20 0.50 0.70 2.40 -0.50 1.80 -1.70 1.35 -1.70 -0.65z"/>
  <path d="M60.90 7.60 c0.60 -0.80 1.40 -1.75 1.85 -2.10 0.75 -0.60 0.80 -0.50 0.65 1.30 -0.15 1.80 -0.25 1.95 -1.85 2.10 l-1.65 0.15 1 -1.45z"/>
  <path d="M66.50 3.75 c0 -1.05 1.20 -1.45 2.45 -0.75 1.60 0.80 1.25 1.50 -0.70 1.50 -1.25 0 -1.75 -0.20 -1.75 -0.75z"/>
 </g>
 <g fill="#161317">
  <path d="M6.75 98.40 c0.15 -0.90 0.75 -3.40 1.30 -5.50 0.50 -2.15 0.95 -5.55 0.95 -7.65 0 -3.50 0.05 -3.75 1.05 -3.75 1.05 0 1.10 0.15 0.80 5.10 -0.15 3 -0.50 5.20 -0.80 5.30 -0.30 0.10 -0.55 0.70 -0.55 1.30 0 0.65 -0.25 2.40 -0.55 3.95 -0.50 2.30 -0.80 2.85 -1.55 2.85 -0.85 0 -0.95 -0.25 -0.65 -1.60z"/>
  <path d="M14.70 98.70 c-0.20 -0.70 -0.20 -2.20 -0.05 -3.35 0.20 -1.35 0.05 -2.55 -0.40 -3.35 -0.40 -0.70 -0.70 -2.20 -0.75 -3.35 0 -1.80 0.20 -2.25 1.40 -3 0.75 -0.45 1.45 -0.90 1.55 -1 0.15 -0.10 -0.35 -0.80 -1.10 -1.55 -0.70 -0.75 -1.55 -2.45 -1.90 -3.80 -0.80 -3.20 -0.30 -13.30 1.05 -20.80 0.55 -3.15 1.25 -7.55 1.55 -9.75 0.60 -4.85 1.65 -8.20 3 -9.65 0.75 -0.85 1.55 -1.10 3.45 -1.10 3.30 0 3.70 0.75 3.25 6.45 -0.60 7.25 -0.45 14.70 0.30 16.25 0.50 0.95 1.45 1.65 3.20 2.30 4.15 1.45 5.75 2.20 5.75 2.65 0 0.20 1.35 0.25 3 0.05 2.95 -0.30 3 -0.30 3 0.90 0 0.90 1.05 2.35 3.40 4.80 1.85 1.95 3.60 3.95 3.90 4.40 0.70 1.20 1.70 1.45 1.70 0.50 0 -0.45 0.25 -0.80 0.50 -0.80 0.30 0 0.50 -1.05 0.50 -2.30 l0 -2.35 2.50 0.30 c2.30 0.30 2.50 0.20 2.50 -0.75 0 -1 0.20 -1.05 3.25 -0.75 3.25 0.30 3.25 0.30 3.25 -0.95 0 -1.25 0.05 -1.30 2.90 -1.05 1.55 0.15 4.10 0.50 5.60 0.80 1.50 0.30 4.50 0.60 6.65 0.60 l3.85 0 0 1.90 c0 2.40 -0.40 2.55 -7.35 2.55 -5.10 0 -5.15 0 -5.15 1.20 0 1.80 3.55 2.65 7.75 1.90 4.10 -0.80 5.25 -0.75 5.25 0.10 0 0.50 -1.25 1 -3.80 1.55 -2.75 0.65 -3.70 1.05 -3.50 1.55 0.30 0.75 -1.15 1.70 -2.55 1.70 -0.65 0 -1.35 0.80 -2.05 2.30 -1.10 2.20 -1.15 2.25 -3.25 2.10 l-2.10 -0.15 0.15 -3.35 c0.05 -2.10 -0.10 -3.40 -0.40 -3.40 -0.25 0 -0.50 -0.35 -0.50 -0.75 0 -0.95 -2.30 -1 -3.20 -0.10 -0.35 0.30 -0.75 1.35 -0.95 2.20 -0.20 0.90 -0.80 2.60 -1.35 3.75 -0.55 1.15 -1 2.30 -1 2.60 0 0.25 -0.55 1.05 -1.20 1.75 l-1.25 1.30 3.85 0 3.85 0 0.15 2.70 c0.20 3.05 -0.55 4.15 -4.20 6.30 l-2.15 1.25 -14.50 0 -14.55 0 0 -1.35 c-0.05 -1.40 -2.20 -3.60 -2.85 -2.95 -0.20 0.15 0.10 0.60 0.65 1 0.85 0.65 0.85 0.70 -0.45 0.45 -1 -0.20 -1.35 -0.05 -1.35 0.55 0 0.45 0.25 0.80 0.50 0.80 0.30 0 0.50 0.35 0.50 0.75 0 0.60 -0.85 0.75 -4.75 0.75 -4.65 0 -4.75 0 -5.05 -1.30z m9.55 -10.20 c0.15 -0.30 -0.05 -0.65 -0.45 -0.80 -0.45 -0.15 -0.70 -0.45 -0.60 -0.65 0.15 -0.20 -0.60 -0.25 -1.60 -0.10 -1.65 0.25 -1.70 0.30 -0.45 0.45 0.75 0.10 1.35 0.50 1.35 0.90 0 0.80 1.30 0.95 1.75 0.20z m-3.90 -10.75 c1.05 -1.80 1.15 -2.65 1.15 -9.20 0 -7 -0.70 -13.55 -1.50 -13.55 -0.35 0 -2.05 3.45 -2 4.15 0 0.20 -0.30 1.15 -0.75 2.15 -1.80 4.30 -1.85 17.15 -0.05 18.30 1.05 0.75 2 0.15 3.15 -1.85z"/>
  <path d="M76 98.25 c0 -0.70 -0.20 -1.25 -0.50 -1.25 -0.25 0 -0.50 -0.80 -0.50 -1.75 0 -0.95 -0.20 -1.75 -0.50 -1.75 -0.30 0 -0.50 -1.50 -0.50 -3.50 0 -2 0.20 -3.50 0.50 -3.50 0.30 0 0.50 -0.65 0.50 -1.50 0 -0.95 0.25 -1.50 0.70 -1.50 0.95 0 1.25 1.40 0.70 3 -0.80 2.20 -0.55 6.65 0.55 9.15 1.30 3.05 1.30 3.85 0.05 3.85 -0.75 0 -1 -0.35 -1 -1.25z"/>
  <path d="M9 75.65 c0 -2.15 0.55 -3.65 1.30 -3.65 0.50 0 0.70 0.70 0.70 2.50 0 2.15 -0.15 2.50 -1 2.50 -0.75 0 -1 -0.35 -1 -1.35z"/>
  <path d="M85.15 73.35 c0.25 -1.75 0.15 -2.30 -0.40 -2.55 -1.10 -0.40 -0.95 -3.45 0.15 -4.45 0.50 -0.50 1.65 -0.85 2.50 -0.85 1.45 0 1.60 0.15 1.60 1.50 0 1.40 0.15 1.50 1.80 1.50 1.65 0 1.75 0.10 1.15 0.80 -0.40 0.45 -1.65 1.25 -2.80 1.75 -1.70 0.75 -2.15 1.15 -2.15 2.15 0 0.80 -0.40 1.50 -1.10 1.85 -1 0.55 -1.05 0.50 -0.75 -1.70z"/>
  <path d="M9.50 68.65 c0 -1.70 0.60 -3.15 1.30 -3.15 0.50 0 0.70 0.65 0.70 2 0 1.65 -0.15 2 -1 2 -0.60 0 -1 -0.35 -1 -0.85z"/>
  <path d="M92 66.25 c0 -1.40 0.20 -1.75 1 -1.75 1.10 0 1.30 1 0.50 2.55 -0.80 1.50 -1.50 1.15 -1.50 -0.80z"/>
  <path d="M10 64.15 c0 -1.70 0.60 -3.15 1.30 -3.15 0.50 0 0.70 0.65 0.70 2 0 1.65 -0.15 2 -1 2 -0.60 0 -1 -0.35 -1 -0.85z"/>
  <path d="M84.75 61.15 c-0.45 -1.05 -0.75 -2.80 -0.65 -3.90 0.15 -1.95 0.20 -2 2.30 -2.15 1.75 -0.15 2.25 -0.40 2.85 -1.60 0.40 -0.80 0.75 -2.05 0.75 -2.80 0 -1.30 0.05 -1.35 0.95 -0.50 0.95 0.85 3.05 6.20 3.05 7.65 0 1 -2.55 3.65 -3.55 3.65 -0.45 0 -0.95 0.35 -1.15 0.75 -0.15 0.45 -0.95 0.75 -2.05 0.75 -1.55 0 -1.85 -0.20 -2.50 -1.85z m5.20 -2.40 c0.85 -0.95 1.75 -1.75 2.05 -1.75 0.25 0 0.50 -0.20 0.50 -0.50 0 -1.10 -1.60 -0.40 -3.50 1.50 -2.20 2.20 -2.35 2.50 -1.30 2.50 0.40 0 1.40 -0.80 2.25 -1.75z"/>
  <path d="M10.75 57.90 c0.60 -4.20 0.85 -4.90 1.55 -4.90 0.80 0 0.85 1.10 0.40 4.70 -0.25 1.85 -0.55 2.30 -1.30 2.30 -0.90 0 -0.95 -0.25 -0.65 -2.10z"/>
  <path d="M11.50 50.15 c0 -1.70 0.60 -3.15 1.30 -3.15 0.50 0 0.70 0.65 0.70 2 0 1.65 -0.15 2 -1 2 -0.60 0 -1 -0.35 -1 -0.85z"/>
  <path d="M59 48.30 c0 -1 0.25 -1.80 0.55 -1.80 0.35 0 0.40 -0.70 0.20 -2 -0.20 -1.10 -0.20 -2.65 0 -3.50 0.35 -1.55 0.35 -1.55 3.40 -1.40 l3.10 0.15 0.15 2.15 c0.15 2.10 0.15 2.10 2.15 2.10 1.90 0 1.95 0 1.95 1.90 0 1 -0.20 2.10 -0.40 2.40 -0.40 0.65 -2.70 1.10 -7.70 1.50 l-3.40 0.30 0 -1.80z m7.05 -2.80 c0.90 0 0.40 -1.10 -1.15 -2.55 -1.75 -1.60 -2.40 -1.80 -2.45 -0.80 0 0.30 -0.15 1.05 -0.25 1.60 -0.15 0.55 -0.35 1.65 -0.40 2.40 -0.15 1.35 -0.05 1.40 1.55 1.10 1.15 -0.20 1.65 -0.10 1.70 0.35 0.05 0.35 0.20 0.05 0.30 -0.70 0.10 -0.80 0.45 -1.40 0.70 -1.40z"/>
  <path d="M87.50 47.05 c0 -3.55 -0.60 -6.55 -1.30 -6.55 -0.45 0 -0.70 0.60 -0.70 1.75 0 1.65 -0.10 1.75 -1.75 1.75 -1.65 0 -1.75 -0.10 -1.75 -1.75 0 -1.60 0.15 -1.75 1.45 -1.75 1.40 0 1.40 -0.05 1.20 -2.35 l-0.20 -2.40 1.15 1.35 c2.65 3.05 3.55 5.10 3.65 7.95 0.05 1.55 0.25 3.05 0.45 3.40 0.25 0.35 -0.10 0.55 -0.90 0.55 -1.15 0 -1.30 -0.20 -1.30 -1.95z"/>
  <path d="M13.55 42.90 c0.60 -1.45 1.50 -4 2.05 -5.65 0.60 -1.65 1.55 -3.60 2.20 -4.30 0.80 -0.85 1.65 -3 2.55 -6.65 1.55 -6.35 4.35 -12.25 6.15 -13.15 1.10 -0.55 1.25 -0.50 1.40 0.35 0.20 1.15 -0.95 2.50 -2.10 2.50 -0.60 0 -0.80 0.50 -0.80 1.70 0 0.95 -0.35 2.05 -0.75 2.50 -0.40 0.40 -0.75 1.20 -0.75 1.75 0 0.60 -0.20 1.05 -0.50 1.05 -0.25 0 -0.50 0.50 -0.50 1.15 0 0.60 -0.40 2.85 -0.85 5 -0.80 3.40 -1 3.85 -2 3.85 -0.95 0 -1.15 0.30 -1.15 1.50 0 0.85 -0.20 1.50 -0.45 1.50 -0.20 0 -0.55 0.95 -0.70 2.10 -0.15 1.20 -0.55 2.20 -0.80 2.30 -0.30 0.10 -0.55 0.75 -0.55 1.40 0 0.65 -0.20 1.20 -0.50 1.20 -0.25 0 -0.50 0.55 -0.50 1.25 0 1 -0.25 1.25 -1.25 1.25 l-1.25 0 1.05 -2.60z"/>
  <path d="M25.30 36.95 c-1.70 -2.25 -2.30 -3.50 -2.30 -4.75 0 -1.60 0.10 -1.70 1.75 -1.70 1.55 0 2 0.30 4 3.05 1.60 2.20 2.25 3.55 2.25 4.75 0 1.60 -0.10 1.70 -1.70 1.70 -1.50 0 -2 -0.35 -4 -3.05z"/>
  <path d="M28.60 22.75 c-0.35 -1.25 -0.60 -3.25 -0.60 -4.50 l0 -2.25 1.90 0.05 c1.55 0 2.15 0.35 3.75 2.25 1.30 1.60 1.85 2.75 1.85 3.85 0 1.45 -0.20 1.65 -2 2.25 -3.55 1.10 -4.20 0.90 -4.90 -1.65z"/>
  <path d="M71 20.25 c0 -0.40 -0.45 -0.75 -0.95 -0.75 -1.65 0 -2.55 -1.90 -2.55 -5.35 0 -2.85 0.10 -3.15 1.05 -3.15 1 0 1.05 0.20 0.70 2.30 l-0.35 2.35 2.90 2.65 2.90 2.70 -1.85 0 c-1.30 0 -1.85 -0.20 -1.85 -0.75z"/>
  <path d="M34.90 17.15 c-1.15 -0.20 -1.40 -0.45 -1.40 -1.70 l0 -1.50 1.55 1.10 c1.30 0.90 1.75 1 2.75 0.50 1.65 -0.75 1.70 -0.75 1.70 0.70 0 1.10 -0.20 1.25 -1.60 1.20 -0.90 -0.05 -2.25 -0.20 -3 -0.30z"/>
  <path d="M40.50 14.80 c0 -0.65 1.40 -1.30 2.90 -1.30 0.30 0 0.60 0.45 0.60 1 0 0.80 -0.35 1 -1.75 1 -1.15 0 -1.75 -0.25 -1.75 -0.70z"/>
  <path d="M45 14.30 c0 -0.65 1.40 -1.30 2.90 -1.30 0.30 0 0.60 0.45 0.60 1 0 0.80 -0.35 1 -1.75 1 -1.15 0 -1.75 -0.25 -1.75 -0.70z"/>
  <path d="M29.50 13.50 c0 -1.10 1 -1.30 2.55 -0.50 1.50 0.80 1.15 1.50 -0.80 1.50 -1.40 0 -1.75 -0.20 -1.75 -1z"/>
  <path d="M50 12.80 c0 -0.35 0.50 -0.80 1.15 -1 2.05 -0.55 2.85 -0.35 2.85 0.70 0 0.85 -0.35 1 -2 1 -1.35 0 -2 -0.20 -2 -0.70z"/>
  <path d="M56.15 13.15 c-1.70 -0.30 -1.40 -1.35 0.55 -2.05 0.95 -0.35 2.65 -1.65 3.75 -2.85 2.50 -2.70 4.05 -3 4.05 -0.75 0 1.70 -1.10 3.75 -2.70 5.10 -1 0.85 -3.15 1.05 -5.65 0.55z"/>
  <path d="M68 8.75 c0 -1.40 0.20 -1.75 1 -1.75 1.05 0 1.20 0.50 0.70 2.40 -0.50 1.80 -1.70 1.35 -1.70 -0.65z"/>
  <path d="M67.75 5 c-0.15 -0.25 -0.75 -0.50 -1.30 -0.50 -1.30 0 -1.20 -1.30 0.10 -1.65 1.60 -0.40 3.45 0.45 3.45 1.65 0 1.05 -1.65 1.45 -2.25 0.50z"/>
 </g>
 <g fill="#201b22">
  <path d="M6.70 99.20 c0.15 -0.45 0.30 -1 0.30 -1.25 0 -0.25 0.35 -0.45 0.75 -0.45 0.45 0 0.75 0.45 0.75 1.25 0 0.95 -0.25 1.25 -1.05 1.25 -0.75 0 -0.95 -0.20 -0.75 -0.80z"/>
  <path d="M13.20 92.90 c0.30 -5.30 0.55 -7.30 1.10 -7.70 0.60 -0.50 0.55 -0.90 -0.40 -3 -1.05 -2.20 -1.15 -3.15 -1.10 -9.95 0.05 -4.10 0.35 -8.85 0.65 -10.50 0.30 -1.65 0.85 -5.50 1.30 -8.55 1.50 -11.60 2.95 -15.45 6.25 -16.55 1.55 -0.50 1.75 -0.75 1.55 -2 -0.10 -0.75 -0.20 -2.40 -0.25 -3.65 -0.05 -2.25 -0.05 -2.25 1.75 -2.40 1.70 -0.15 1.95 0.05 3.75 2.50 4.10 5.75 4.20 5.90 4.20 8.70 0 2.50 -0.10 2.70 -1.15 2.70 -1 0 -1.10 0.20 -0.95 2 0.20 2.05 1.60 2.95 1.60 1.05 0 -0.60 0.45 -1.10 1.10 -1.30 0.65 -0.20 2.45 -1 4.05 -1.80 3.55 -1.80 7.25 -2.45 7.90 -1.40 0.25 0.40 0.45 3.30 0.45 6.50 0 5.15 -0.10 5.95 -1.05 7.15 -0.55 0.70 -1.35 1.30 -1.70 1.30 -1.05 0 -2.25 1.45 -2.25 2.75 0 1.75 4.70 10.75 6.85 13.20 l1.90 2.15 -0.15 -2.55 c-0.20 -2.45 -0.15 -2.55 1.10 -2.55 1.05 0 1.30 -0.25 1.30 -1.25 0 -1.15 0.20 -1.25 2.20 -1.25 1.50 0 2.30 -0.25 2.50 -0.75 0.35 -1 4.80 -1 8.10 0 1.35 0.40 5 1.20 8.15 1.75 l5.70 1.05 3.30 -1 c3.40 -1.05 5.05 -2.30 4.65 -3.55 -0.15 -0.40 -0.80 -1.90 -1.40 -3.35 -0.65 -1.40 -1.20 -3.25 -1.20 -4.10 0 -1.60 0.45 -1.85 3.75 -2.15 1.20 -0.10 1.55 -0.40 1.65 -1.50 0.15 -1.20 0.40 -1.40 1.80 -1.40 1.45 0 1.75 0.25 2.45 2 0.80 2.15 0.65 2.55 -0.50 1.15 -0.55 -0.70 -0.75 -0.75 -1 -0.20 -0.15 0.35 -0.90 1.35 -1.65 2.25 -1.40 1.50 -1.40 1.50 -2.45 0.60 -1.45 -1.30 -1.85 -0.10 -0.80 2.40 0.70 1.70 0.90 1.85 1.65 1.25 0.45 -0.40 1.35 -1 2 -1.35 1.05 -0.55 1.10 -0.50 1.10 0.85 0 0.80 -0.35 1.70 -0.75 2.05 -0.40 0.35 -0.75 1.40 -0.75 2.30 0 1.50 0.15 1.70 1.25 1.70 1 0 1.25 -0.25 1.25 -1.25 0 -0.95 0.25 -1.25 1.05 -1.25 0.95 0 1.05 0.20 0.75 1.60 -0.50 2.50 -1.70 3.90 -4.20 5 -1.30 0.60 -2.50 1.25 -2.65 1.55 -0.20 0.25 -0.90 0.35 -1.50 0.20 -0.70 -0.20 -2.25 0.05 -3.70 0.65 -1.35 0.50 -3.80 1.10 -5.35 1.25 -2.90 0.30 -2.90 0.35 -2.90 1.95 0 1.20 0.30 1.80 1.15 2.25 0.60 0.30 0.70 0.50 0.25 0.35 -0.75 -0.20 -0.75 -0.10 -0.10 1.45 0.90 2.25 0.95 2.15 -1.05 2.55 -1.85 0.35 -2.85 1.55 -8.50 10.45 -2.65 4.20 -6.05 6.75 -9 6.75 -1.95 0 -1.50 -1.30 0.90 -2.70 2.80 -1.65 4.20 -3.25 4.15 -4.80 -0.05 -1.10 -0.30 -1.25 -1.80 -1.25 -0.95 0 -2.20 0.20 -2.75 0.50 -0.55 0.25 -1.45 0.40 -2 0.35 -0.85 -0.10 -0.85 -0.05 -0.25 0.35 0.45 0.30 0.50 0.55 0.15 0.55 -0.30 0 -1 0.15 -1.50 0.30 -0.50 0.15 -0.70 0.10 -0.40 -0.15 0.55 -0.45 0.75 -2.65 0.25 -2.65 -0.75 0 -2.10 2 -1.85 2.75 0.35 0.85 -0.50 1 -1.65 0.25 -0.65 -0.40 -0.65 -0.55 -0.05 -0.95 0.35 -0.25 0.55 -0.70 0.35 -1 -0.20 -0.30 -0.10 -0.45 0.30 -0.30 0.75 0.30 5.75 -5.15 5.50 -5.95 -0.10 -0.20 0.25 -0.85 0.70 -1.35 0.45 -0.50 0.65 -1.15 0.45 -1.40 -0.15 -0.30 -0.05 -0.55 0.25 -0.55 0.30 0 0.40 -0.20 0.25 -0.50 -0.15 -0.25 -0.10 -0.50 0.20 -0.50 0.30 0 0.40 -0.35 0.25 -0.75 -0.20 -0.40 -0.10 -0.75 0.20 -0.75 0.25 0 0.50 -0.30 0.45 -0.60 -0.05 -1.60 0.20 -2.45 0.60 -2.20 0.25 0.15 0.60 -0.05 0.75 -0.50 0.25 -0.65 0.75 -0.75 2.30 -0.50 1.10 0.15 2 0.20 2 0.10 0 -0.25 -4.35 -1.50 -8.25 -2.40 l-3 -0.65 -0.15 2 c-0.05 1.10 -0.35 2.10 -0.60 2.15 -0.30 0.10 -0.50 0.50 -0.50 0.85 0 0.85 -1.70 1.40 -2.95 1 -0.55 -0.15 -2.60 -2.20 -4.55 -4.50 -2 -2.35 -3.80 -4.25 -4.10 -4.25 -0.25 0 -0.30 0.25 -0.10 0.60 0.25 0.35 0.15 0.40 -0.25 0.20 -0.35 -0.25 -0.50 -0.50 -0.35 -0.65 0.15 -0.15 -0.25 -0.70 -0.90 -1.20 -1.30 -1.05 -2.05 -1.25 -1.55 -0.45 0.15 0.30 -0.05 0.35 -0.45 0.20 -0.45 -0.15 -0.65 -0.55 -0.45 -0.85 0.15 -0.30 0.05 -0.35 -0.30 -0.15 -0.70 0.45 -2.65 -0.10 -2.30 -0.65 0.10 -0.25 -0.30 -0.30 -0.95 -0.20 -0.65 0.15 -2.10 -0.25 -3.20 -0.80 -2.50 -1.25 -2.60 -1.30 -2.65 -0.15 0 0.45 -0.30 0.10 -0.65 -0.85 -0.35 -0.95 -0.90 -1.85 -1.20 -1.95 -0.35 -0.10 -0.50 -0.40 -0.30 -0.65 0.15 -0.25 0.10 -0.70 -0.10 -1.05 -0.20 -0.35 -0.45 -1.65 -0.55 -2.90 -0.05 -1.25 -0.25 -2.70 -0.35 -3.30 -0.15 -0.55 -0.05 -2.80 0.25 -5 0.25 -2.15 0.65 -5 0.75 -6.25 0.70 -5.95 -3.60 -5.90 -5.50 0 -0.45 1.25 -1 4.20 -1.30 6.55 -0.55 4.50 -0.60 5 -1.75 11.20 -1.15 6.05 -1.50 13.25 -0.80 16.15 1 4.05 4.20 6.15 7.15 4.60 1.10 -0.55 1.10 -0.55 -0.10 0.65 -0.95 0.90 -1.40 1.10 -1.95 0.70 -0.55 -0.40 -0.65 -0.40 -0.40 0 0.35 0.60 -1 1.95 -3.25 3.35 -1.70 1.05 -1.75 1.70 -0.15 4 1.15 1.70 1.15 1.95 0.50 3.50 -0.45 1.05 -0.60 2.45 -0.40 3.55 l0.30 1.80 -1.90 0 -1.90 0 0.35 -7.10z m55.40 -10.65 c0.75 -1.55 1.40 -2.25 2.10 -2.25 0.60 0 1.40 -0.20 1.80 -0.50 0.65 -0.40 0.65 -0.45 0 -0.70 -4.65 -1.50 -6.10 -1.85 -6.65 -1.65 -0.35 0.15 -0.20 0.30 0.30 0.30 0.75 0.05 0.85 0.35 0.65 1.45 -0.25 1.25 -0.45 4.40 -0.35 5.25 0.15 1 1.20 0.10 2.15 -1.90z m-1.70 -8.50 c-1.80 -1.75 -7.40 -2.70 -7.70 -1.35 -0.05 0.35 0 0.40 0.15 0.10 0.40 -0.80 1.65 -0.60 1.65 0.30 0 0.55 0.30 0.70 1 0.45 0.60 -0.20 1 -0.10 1 0.25 0 0.30 0.25 0.40 0.50 0.25 0.30 -0.15 0.50 -0.10 0.50 0.20 0 0.30 0.35 0.40 0.75 0.25 0.40 -0.20 0.75 -0.10 0.75 0.20 0 0.30 0.45 0.40 1.05 0.25 0.85 -0.25 0.90 -0.40 0.35 -0.90z m12 -2.05 c1.60 -0.45 1.35 -1.25 -0.25 -0.90 -1.25 0.20 -7.95 -0.60 -13.15 -1.60 -2.40 -0.45 -1.40 0.55 1.80 1.80 2.45 0.95 9.10 1.35 11.60 0.70z m8.60 -3.55 c0 -1.25 -0.05 -1.30 -1 -0.40 -1.05 0.95 -0.90 1.75 0.30 1.75 0.45 0 0.70 -0.50 0.70 -1.35z m-58.80 -31.10 c-0.95 -1.60 -4.45 -5.70 -3.90 -4.55 0.45 1 4.25 6 4.55 6 0.10 0 -0.15 -0.65 -0.65 -1.45z"/>
  <path d="M7.50 95.45 c0 -1.60 1.20 -4.95 1.80 -4.95 0.75 0 0.90 1.40 0.40 3.95 -0.25 1.05 -0.60 1.55 -1.25 1.55 -0.55 0 -0.95 -0.25 -0.95 -0.55z"/>
  <path d="M74.50 94.25 c0 -1.10 0.25 -1.75 0.65 -1.75 0.40 0 0.90 0.80 1.20 1.75 0.55 1.65 0.50 1.75 -0.65 1.75 -1.05 0 -1.20 -0.25 -1.20 -1.75z"/>
  <path d="M9 89.15 c0 -1.70 0.60 -3.15 1.30 -3.15 0.50 0 0.70 0.65 0.70 2 0 1.65 -0.15 2 -1 2 -0.60 0 -1 -0.35 -1 -0.85z"/>
  <path d="M9.30 83.40 c-0.60 -2.40 -0.35 -3.90 0.70 -3.90 0.85 0 1 0.35 1 2.50 0 1.80 -0.20 2.50 -0.70 2.50 -0.35 0 -0.80 -0.50 -1 -1.10z"/>
  <path d="M9 77.65 c0 -2.15 0.55 -3.65 1.30 -3.65 0.50 0 0.70 0.70 0.70 2.50 0 2.15 -0.15 2.50 -1 2.50 -0.75 0 -1 -0.35 -1 -1.35z"/>
  <path d="M84.50 74.55 c0 -1.30 0.20 -1.55 1.25 -1.55 1.75 0 1.60 0.90 -0.35 2.45 -0.80 0.60 -0.90 0.55 -0.90 -0.90z"/>
  <path d="M33.50 71.75 c0 -0.40 0.35 -0.75 0.75 -0.75 0.40 0 0.75 0.35 0.75 0.75 0 0.40 -0.35 0.75 -0.75 0.75 -0.40 0 -0.75 -0.35 -0.75 -0.75z"/>
  <path d="M28 70.75 c0 -1 0.30 -1.25 1.75 -1.55 0.95 -0.15 2.10 -0.20 2.50 0 0.95 0.35 1 1.80 0 1.80 -0.40 0 -0.75 0.25 -0.75 0.50 0 0.85 -1.40 0.55 -1.65 -0.35 -0.20 -0.85 -0.25 -0.85 -0.30 0 -0.10 1.35 -1.55 1.05 -1.55 -0.40z"/>
  <path d="M9.50 69.40 c0 -1.50 0.65 -2.90 1.30 -2.90 0.45 0 0.70 0.60 0.70 1.75 0 1.40 -0.20 1.75 -1 1.75 -0.55 0 -1 -0.30 -1 -0.60z"/>
  <path d="M10 64.90 c0 -1.50 0.65 -2.90 1.30 -2.90 0.45 0 0.70 0.60 0.70 1.75 0 1.40 -0.20 1.75 -1 1.75 -0.55 0 -1 -0.30 -1 -0.60z"/>
  <path d="M10.70 58.65 c0.70 -4.10 0.90 -4.65 1.60 -4.65 0.80 0 0.85 0.75 0.40 4.20 -0.25 1.85 -0.55 2.30 -1.30 2.30 -0.90 0 -0.95 -0.25 -0.70 -1.85z"/>
  <path d="M11.70 49.65 c0.70 -4.10 0.90 -4.65 1.60 -4.65 0.80 0 0.85 0.75 0.40 4.20 -0.25 1.85 -0.55 2.30 -1.30 2.30 -0.90 0 -0.95 -0.25 -0.70 -1.85z"/>
  <path d="M88.50 49.25 c0 -2.20 0.45 -2.20 1.90 0 l1.10 1.75 -1.50 0 c-1.40 0 -1.50 -0.15 -1.50 -1.75z"/>
  <path d="M55.10 48.80 l-3.65 -1.80 0.15 -2.35 c0.15 -2.40 0.15 -2.40 3.15 -3.90 2.70 -1.35 3.50 -1.50 7.80 -1.50 5.75 0 6.70 0.40 9.50 4.10 1.55 2.10 2 3.05 1.85 4.30 -0.15 1.50 -0.30 1.60 -2.65 2 -1.35 0.20 -4.75 0.50 -7.50 0.65 -4.95 0.25 -5 0.25 -8.65 -1.50z m8.90 -0.65 l1.65 -0.30 -0.30 -2.90 c-0.30 -3.60 -0.55 -3.95 -2.45 -3.95 -0.85 0 -1.40 0.15 -1.25 0.35 0.20 0.15 0.05 0.65 -0.30 1.05 -0.45 0.65 -0.45 0.70 0.05 0.40 0.40 -0.25 0.60 -0.05 0.60 0.65 0 0.55 -0.35 1.20 -0.80 1.45 -0.55 0.30 -0.65 0.55 -0.25 0.80 0.75 0.50 0.70 2.15 -0.05 2.45 -0.95 0.40 1.25 0.40 3.10 0z m4.50 -0.85 c0 -0.10 0.15 -0.55 0.30 -1 0.15 -0.45 0.05 -0.80 -0.30 -0.80 -0.30 0 -0.45 0.20 -0.25 0.45 0.15 0.30 -0.15 0.70 -0.60 1 -0.85 0.50 -0.85 0.50 0 0.55 0.45 0 0.85 -0.10 0.85 -0.20z"/>
  <path d="M81.80 44.45 c-1.80 -2.40 -2.30 -3.45 -2.30 -5 0 -1.95 0 -1.95 1.95 -1.95 3.65 0 4.90 0.50 5.85 2.35 0.70 1.35 0.80 1.85 0.35 2 -0.45 0.15 -0.55 1 -0.35 2.95 l0.35 2.70 -1.80 0 c-1.60 0 -2 -0.30 -4.05 -3.05z"/>
  <path d="M14.65 40.40 c0.95 -2.30 1.85 -2.40 1.85 -0.20 0 1.60 -0.15 1.80 -1.25 1.80 -1.20 0 -1.25 -0.05 -0.60 -1.60z"/>
  <path d="M16 36.75 c0 -1.05 1.25 -3.40 2.20 -4.20 0.70 -0.60 0.80 -0.45 0.80 1.15 0 1 -0.20 1.80 -0.50 1.80 -0.25 0 -0.50 0.45 -0.50 1 0 0.65 -0.35 1 -1 1 -0.55 0 -1 -0.35 -1 -0.75z"/>
  <path d="M33.35 34.10 c-0.75 -0.50 -1.50 -1.30 -1.65 -1.85 -0.20 -0.55 -0.95 -2.35 -1.75 -4 -1.60 -3.40 -2.65 -9 -2.25 -12 0.15 -1.10 0.15 -1.70 0 -1.35 -0.15 0.30 -0.55 0.60 -0.95 0.60 -0.35 0 -0.75 0.70 -0.90 1.50 -0.20 0.90 -0.65 1.50 -1.10 1.50 -0.55 0 -0.75 0.50 -0.75 1.75 0 0.95 -0.20 1.75 -0.50 1.75 -0.25 0 -0.50 0.70 -0.50 1.50 0 1.15 -0.20 1.50 -1 1.50 -0.55 0 -1 -0.35 -1 -0.80 0 -1.15 2.95 -8.30 3.95 -9.50 1.80 -2.20 4.55 -2.90 4.55 -1.20 0 0.55 0.25 1 0.50 1 0.30 0 0.50 -0.45 0.50 -1 0 -1.20 0.95 -0.95 3.70 1.10 1.10 0.75 2.30 1.40 2.65 1.40 0.35 0 0.65 0.35 0.65 0.75 0 0.50 -0.55 0.75 -1.75 0.75 -1.20 0 -1.75 -0.25 -1.75 -0.75 0 -0.40 -0.25 -0.75 -0.50 -0.75 -0.85 0 -0.05 1.10 3.90 5.45 3.25 3.55 3.60 4.20 3.60 6 0 1.65 -0.20 2.05 -0.90 2.05 -1.45 0 -2.10 1.05 -2.10 3.35 0 2.10 -0.05 2.15 -1.60 2.10 -0.90 0 -2.25 -0.40 -3.05 -0.85z m-1.55 -12 c-0.30 1 0.95 0.70 1.35 -0.30 0.25 -0.65 -3.05 -4.55 -3.50 -4.10 -0.20 0.15 0 1.55 0.35 3.10 0.65 2.70 0.70 2.75 1.35 1.60 0.40 -0.65 0.60 -0.75 0.45 -0.30z"/>
  <path d="M39 15.50 c0 -0.65 1.40 -1.35 3.65 -1.75 1.65 -0.30 1.85 -0.25 1.85 0.65 0 0.70 -0.45 1.05 -1.55 1.30 -2.30 0.45 -3.95 0.35 -3.95 -0.20z"/>
  <path d="M57.15 14.15 c-1.45 -0.30 -1.60 -2.45 -0.20 -2.90 1.10 -0.35 3.05 -2.20 5.70 -5.40 2.20 -2.75 3.35 -2.70 3.35 0.15 0 1.10 -0.65 3.15 -1.60 5.05 -1.65 3.20 -1.65 3.20 -3.90 3.25 -1.25 0.05 -2.75 0 -3.35 -0.15z m3.15 -3.05 c0.90 -0.75 2.95 -3.60 2.55 -3.60 -0.05 0 -1.15 1 -2.35 2.25 -2.15 2.20 -2.30 3.10 -0.20 1.35z"/>
  <path d="M67.50 12.25 c0 -1.40 0.20 -1.75 1 -1.75 1.05 0 1.20 0.50 0.70 2.40 -0.50 1.80 -1.70 1.35 -1.70 -0.65z"/>
 </g>
 <g fill="#29222b">
  <path d="M12 97.65 c0 -3.20 0.95 -11.15 1.50 -12.50 0.35 -0.80 0.20 -1.70 -0.40 -3 -1.25 -2.90 -1.10 -15.25 0.30 -25.10 2.15 -14.60 4.05 -20.15 7.10 -20.80 1.60 -0.35 1.75 -0.85 1.20 -3.70 -0.25 -1.05 -0.60 -1.55 -1.25 -1.55 -1 0 -1.15 -0.50 -0.65 -2.40 0.20 -0.70 0.65 -1.10 1.15 -1 0.45 0.10 1.05 -0.30 1.30 -0.85 0.40 -0.70 1.10 -1.05 2.55 -1.15 2.20 -0.15 2.70 0.45 2.70 3.30 0 0.60 0.30 1.10 0.70 1.10 0.40 0 0.85 0.60 1.05 1.35 0.55 2.25 3.05 5 4.75 5.25 l1.50 0.25 -1.25 -1.35 c-0.70 -0.75 -1.25 -1.90 -1.25 -2.65 0 -1 -0.25 -1.35 -0.90 -1.35 -0.55 0 -1.20 -0.55 -1.50 -1.25 -0.70 -1.50 -0.80 -4.75 -0.15 -4.75 0.40 0 2.10 3.20 2.75 5.25 0.15 0.55 0.95 1.40 1.75 1.85 l1.50 0.80 -0.10 -1.90 c-0.05 -2.10 0.80 -3.50 2.20 -3.50 1.55 0 1.10 -0.90 -2.50 -4.90 -1.90 -2.10 -4.10 -4.65 -4.95 -5.60 -1.55 -1.75 -1.55 -1.75 -1.65 -0.50 -0.05 0.70 -0.05 1.55 0 1.90 0.05 0.30 -0.35 0.60 -0.95 0.60 -0.90 0 -1 -0.30 -1 -2.75 0 -2.10 0.15 -2.75 0.75 -2.75 0.40 0 0.75 -0.35 0.75 -0.75 0 -1.25 1.75 -0.85 4.50 1 1.45 0.95 2.85 1.75 3.15 1.75 0.30 0 1.45 -0.45 2.55 -0.95 1.15 -0.55 2.90 -1.15 3.95 -1.30 1.65 -0.30 1.85 -0.25 1.85 0.65 0 0.75 -0.45 1.05 -1.75 1.30 -1.65 0.35 -1.75 0.45 -1.75 2.30 0 2 0 2 -1.90 2 -1.25 0 -2.30 -0.35 -3.05 -1.05 -0.60 -0.60 -1.20 -0.95 -1.35 -0.85 -0.10 0.15 1.85 2.25 4.30 4.75 2.50 2.50 4.50 4.80 4.50 5.10 0 0.30 0.25 0.55 0.50 0.55 0.30 0 0.50 0.30 0.50 0.70 0 0.40 0.45 0.90 1 1.05 0.55 0.15 1 0.70 1 1.15 0 0.45 0.70 1.25 1.50 1.70 0.85 0.45 1.50 1.20 1.50 1.55 0 0.40 0.35 0.85 0.75 1.05 1.30 0.50 0.95 3.95 -0.55 5.45 -1.20 1.25 -1.25 1.40 -0.65 3.20 l0.70 1.90 0.25 -2 c0.25 -1.90 0.45 -2.10 3.75 -3.75 2.95 -1.50 4.10 -1.80 7.50 -1.90 4.75 -0.25 7.75 0.70 7.75 2.35 0 0.65 0.35 1.05 0.90 1.05 0.45 0 2.50 1.80 4.50 3.95 2.85 3.15 3.60 4.30 3.60 5.50 0 1.40 -0.15 1.55 -1.45 1.55 -0.85 0 -2.70 -0.65 -4.15 -1.45 -2.45 -1.35 -2.90 -1.45 -4.90 -1 -1.25 0.30 -4.05 0.45 -6.25 0.35 -3.30 -0.15 -4.55 -0.45 -7.15 -1.80 -1.70 -0.85 -3.10 -1.45 -3.10 -1.25 0 0.20 0.85 1.70 1.85 3.35 1.50 2.50 2.30 3.25 4.35 4.20 5.90 2.75 7.10 3.40 7.70 4.25 0.35 0.45 1.40 1.20 2.25 1.65 0.90 0.45 2.05 1.20 2.60 1.70 0.55 0.50 2.45 1.65 4.25 2.55 3.65 1.90 6.25 2.15 8.90 0.75 2 -1.05 2.10 -2.65 0.35 -5.75 -0.70 -1.15 -1.25 -2.45 -1.25 -2.80 0 -0.40 -0.50 -0.75 -1.10 -0.85 -0.95 -0.10 -1.20 -0.50 -1.30 -2.10 l-0.15 -1.95 2.50 0.30 c1.75 0.20 2.95 0.05 4 -0.45 1.90 -0.95 2.40 -1.70 1.10 -1.70 -0.60 0 -2.25 -1.60 -4.60 -4.50 -2 -2.45 -3.85 -4.50 -4.05 -4.50 -0.20 0 -0.40 -1 -0.40 -2.25 0 -2.40 0.80 -3.25 3.20 -3.25 1.05 0 1.30 -0.25 1.30 -1.25 0 -0.70 0.20 -1.25 0.40 -1.25 0.25 0 1.60 1.90 3 4.20 2.20 3.60 2.60 4.60 2.60 6.70 0 1.85 0.35 2.95 1.30 4.40 1.65 2.40 2.85 5.20 2.25 5.20 -0.25 0 -0.55 -0.35 -0.75 -0.75 -0.45 -1.15 -1.80 -0.90 -1.80 0.35 0 0.60 -0.35 1.45 -0.80 1.95 -0.65 0.70 -1.05 0.80 -1.95 0.35 -0.65 -0.30 -1.45 -0.35 -1.90 -0.10 -0.65 0.40 -0.60 0.80 0.50 3.20 1.45 3.15 2.10 7 1.20 7 -0.35 0 -0.50 0.20 -0.30 0.45 0.35 0.60 -4.85 2.55 -7.75 2.90 -2.55 0.30 -10.40 -0.90 -15.80 -2.40 -4.15 -1.15 -5.45 -1.05 -6.50 0.45 -0.40 0.60 -1 0.95 -1.30 0.80 -0.75 -0.50 -2.90 -0.70 -2.90 -0.30 0.05 1.25 4.60 4.40 5.50 3.85 0.25 -0.15 0.60 0 0.75 0.30 0.20 0.25 0.65 0.40 1.05 0.25 0.35 -0.15 0.80 -0.05 0.95 0.25 0.20 0.25 0.60 0.40 0.90 0.35 0.35 -0.05 1.10 0.15 1.75 0.50 0.60 0.35 1.10 0.50 1.10 0.35 0 -0.15 0.55 0.10 1.25 0.55 0.70 0.45 1.25 0.60 1.25 0.40 0 -0.25 0.20 -0.20 0.40 0.10 0.20 0.30 1.25 0.45 2.45 0.30 1.70 -0.15 2 -0.35 1.50 -0.85 -0.35 -0.35 -0.75 -0.55 -0.95 -0.40 -0.25 0.10 -0.40 -0.15 -0.40 -0.60 0 -0.45 0.30 -0.75 0.65 -0.70 2.10 0.40 7.90 -0.80 10.65 -2.15 3 -1.45 3.15 -1.45 4.40 -0.65 1.55 1.05 1.70 1.75 0.30 1.75 -1.75 0 -4 1.45 -4 2.50 0 0.55 0.35 1 0.75 1 0.40 0 0.75 0.30 0.75 0.70 0 0.50 -1.40 1.05 -4.35 1.70 -2.40 0.55 -4.55 0.90 -4.70 0.80 -0.60 -0.35 0.15 1.95 1.15 3.55 0.50 0.85 0.90 1.65 0.90 1.90 0 0.60 -2.40 0.40 -2.60 -0.25 -0.15 -0.40 -0.55 -0.25 -1.20 0.40 -1.20 1.25 -3.20 4.05 -3.20 4.45 0 0.20 -0.30 0.65 -0.60 1 -1.25 1.35 -1.70 2 -3.10 4.40 -1.60 2.85 -5.90 5.85 -8.30 5.85 -2.05 0 -1.95 -1.25 0.15 -2.30 2.75 -1.45 4.05 -2.65 6.10 -5.95 4.65 -7.35 6.85 -10.25 7.65 -10.25 2.50 -0.05 2.45 -2.55 -0.05 -3.50 -0.90 -0.30 -3.45 -1.35 -5.70 -2.30 -2.30 -0.95 -5.20 -1.85 -6.50 -2 -1.35 -0.15 -3.80 -1 -5.50 -1.85 -1.75 -0.85 -3.25 -1.40 -3.40 -1.25 -0.15 0.15 0 1.30 0.35 2.60 0.65 2.45 0.25 3.25 -1.55 3.30 -2.30 0 -9.15 -10.45 -10.55 -16.15 -0.75 -2.90 0 -5.20 1.80 -5.65 1.60 -0.40 3.20 -2.55 3.15 -4.15 -0.05 -1.05 -0.10 -1.10 -0.30 -0.30 -0.15 0.55 -0.60 1.45 -1 2 l-0.75 1 0.35 -1 c0.45 -1.10 0.45 -1.60 0.35 -4.60 -0.10 -1.95 -0.25 -2.15 -1.35 -2.15 -0.65 0 -2.10 0.45 -3.20 1.05 -1.20 0.60 -3.55 1.20 -5.80 1.40 l-3.80 0.35 0.30 -2 0.25 -2.05 -0.70 1.90 c-0.40 1.05 -0.90 2.10 -1.10 2.25 -0.20 0.20 -0.20 -0.10 0 -0.65 0.25 -0.55 0.65 -2.40 0.95 -4.10 0.50 -2.90 0.65 -3.10 1.70 -2.85 0.95 0.25 1.15 0.10 1.15 -0.95 0 -1.20 -0.55 -2.20 -4.20 -7.25 -2.90 -4 -3.75 -2.25 -1 2.05 0.70 1.05 1.10 2.10 0.90 2.40 -0.15 0.30 0.15 0.65 0.70 0.80 0.55 0.15 1.15 0.60 1.35 1 0.50 1.45 -0.15 1.25 -1.60 -0.35 -1.20 -1.30 -1.65 -1.55 -2.45 -1.15 -0.50 0.25 -1.60 0.80 -2.45 1.20 -2.80 1.35 -4 5.15 -6 19.20 -1.35 9.20 -1.85 15.35 -1.50 18.20 0.30 3.05 1.65 6.45 2.90 7.50 1.25 1 1.05 1.95 -0.60 2.75 l-1.40 0.75 -0.40 6.55 c-0.35 6.45 -0.35 6.50 -1.55 6.50 -1.10 0 -1.20 -0.20 -1.20 -2.35z m34.50 -29.65 c0 -0.25 0.45 -0.50 1 -0.50 0.55 0 1 -0.15 1 -0.30 0 -0.60 -3.15 -4.80 -4.85 -6.50 -3.45 -3.50 -2.70 0.15 1.40 6.70 0.70 1.15 1.45 1.45 1.45 0.60z m21.10 -19.55 c2 -0.30 3.95 -0.65 4.30 -0.75 0.85 -0.25 -2.95 -5.30 -4.70 -6.25 -0.80 -0.40 -2.70 -0.70 -4.65 -0.70 -2.60 0.05 -3.90 0.35 -6.30 1.50 -4.20 2.10 -4.15 2.85 0.30 5 4 1.90 5.40 2.05 11.05 1.20z m-24.30 -5.25 c-0.25 -0.95 -0.50 -1.05 -1.70 -0.70 -0.75 0.20 -2.45 0.95 -3.85 1.65 -1.35 0.65 -2.85 1.35 -3.25 1.50 -0.40 0.15 0.05 0.30 1 0.30 1.20 0.05 2.05 -0.30 2.65 -0.95 0.60 -0.70 1.45 -1 2.85 -1 1.90 0 2 0.05 2.05 1.65 0.10 1.55 0.10 1.60 0.30 0.15 0.15 -0.75 0.10 -1.95 -0.05 -2.60z m41.95 1.25 c-0.45 -0.85 -0.70 -1.65 -0.60 -1.80 0.15 -0.10 -0.15 -0.65 -0.70 -1.20 -0.50 -0.50 -0.95 -1.30 -0.95 -1.70 0 -0.40 -0.45 -0.75 -1 -0.75 -1.45 0 -1.25 0.55 1.30 3.95 2.55 3.35 3.15 3.85 1.95 1.50z"/>
  <path d="M59.70 47.20 c-0.85 -0.70 -0.85 -0.75 -0.05 -0.50 0.50 0.15 1.15 0.30 1.40 0.30 0.25 0 0.45 0.25 0.45 0.50 0 0.70 -0.65 0.60 -1.80 -0.30z"/>
  <path d="M65.50 47.55 c0 -0.45 1.20 -1.05 2.15 -1.05 0.30 0 0.10 0.35 -0.45 0.75 -1.10 0.85 -1.70 0.95 -1.70 0.30z"/>
  <path d="M57.60 45.90 c-0.35 -0.35 -0.60 -0.90 -0.60 -1.25 0 -0.65 1.90 -1.90 2.35 -1.45 0.15 0.10 0.80 0.05 1.45 -0.20 1.05 -0.40 1.20 -0.35 1.20 0.65 0 0.85 -0.50 1.40 -1.75 2 -2.10 1 -1.90 1 -2.65 0.25z"/>
  <path d="M65.50 43.90 c0 -1 0.05 -1.05 1 -0.15 0.55 0.50 1 1 1 1.10 0 0.05 -0.45 0.15 -1 0.15 -0.70 0 -1 -0.35 -1 -1.10z"/>
  <path d="M7 97.90 c0 -1.50 0.65 -2.90 1.30 -2.90 0.45 0 0.70 0.60 0.70 1.75 0 1.40 -0.20 1.75 -1 1.75 -0.55 0 -1 -0.30 -1 -0.60z"/>
  <path d="M75.50 96.70 c0 -2.20 0.90 -2.10 1.85 0.20 0.65 1.55 0.60 1.60 -0.60 1.60 -1.10 0 -1.25 -0.20 -1.25 -1.80z"/>
  <path d="M74 92.25 c0 -2 1.20 -2.45 1.70 -0.60 0.50 1.85 0.35 2.35 -0.70 2.35 -0.80 0 -1 -0.35 -1 -1.75z"/>
  <path d="M9.20 80.80 c-0.40 -2.20 0.20 -4.80 1.10 -4.80 0.55 0 0.70 0.80 0.70 3.25 0 2.50 -0.15 3.25 -0.75 3.25 -0.40 0 -0.85 -0.70 -1.05 -1.70z"/>
  <path d="M88 70.55 c0 -0.30 0.30 -0.55 0.70 -0.55 0.45 0 0.70 -0.45 0.65 -1 -0.05 -0.55 -0.35 -1 -0.70 -1 -0.45 0 -0.65 -0.90 -0.65 -3.10 0 -3.05 0.10 -3.20 2.25 -5.40 1.20 -1.25 2.20 -2.65 2.25 -3.10 0 -1.10 0.80 -1.15 1.20 -0.10 0.50 1.35 0.35 3.20 -0.35 3.20 -0.35 0 -0.85 0.50 -1.10 1.15 -0.35 0.70 -1.10 1.20 -2.25 1.40 -0.95 0.20 -1.35 0.35 -0.85 0.40 0.65 0.05 0.85 0.50 0.85 1.80 0 1.80 0 1.80 1.75 1.45 1.55 -0.25 1.75 -0.20 1.75 0.70 0 1 -2.65 4.10 -3.50 4.10 -0.25 0 -0.75 0.15 -1.20 0.30 -0.45 0.15 -0.80 0.05 -0.80 -0.25z"/>
  <path d="M9.50 69.90 c0 -1.50 0.65 -2.90 1.30 -2.90 0.45 0 0.70 0.60 0.70 1.75 0 1.40 -0.20 1.75 -1 1.75 -0.55 0 -1 -0.30 -1 -0.60z"/>
  <path d="M10 65.40 c0 -1.50 0.65 -2.90 1.30 -2.90 0.45 0 0.70 0.60 0.70 1.75 0 1.40 -0.20 1.75 -1 1.75 -0.55 0 -1 -0.30 -1 -0.60z"/>
  <path d="M10.50 60.40 c0 -1.50 0.65 -2.90 1.30 -2.90 0.45 0 0.70 0.60 0.70 1.75 0 1.40 -0.20 1.75 -1 1.75 -0.55 0 -1 -0.30 -1 -0.60z"/>
  <path d="M11.50 51.65 c0 -1.70 0.60 -3.15 1.30 -3.15 0.50 0 0.70 0.65 0.70 2 0 1.65 -0.15 2 -1 2 -0.60 0 -1 -0.35 -1 -0.85z"/>
  <path d="M12.50 46.20 c0 -1.05 0.90 -2.70 1.50 -2.70 0.30 0 0.50 0.80 0.50 1.75 0 1.40 -0.20 1.75 -1 1.75 -0.55 0 -1 -0.35 -1 -0.80z"/>
  <path d="M81.30 32.70 c-0.45 -1.25 -0.35 -3.70 0.20 -3.70 0.50 0 1.20 1.10 2 3.20 0.45 1.15 0.35 1.30 -0.70 1.30 -0.65 0 -1.35 -0.35 -1.50 -0.80z"/>
  <path d="M61 31.85 c-4.15 -1.40 -7.80 -3.55 -9.85 -5.80 -1.35 -1.40 -1.65 -2.15 -1.65 -3.90 0 -2.10 0.05 -2.15 1.65 -2.15 0.90 0 2.50 0.45 3.50 0.95 l1.85 0.95 0.95 -1.20 c0.70 -0.85 1.45 -1.20 2.75 -1.20 3.35 0 8.95 3.50 10.10 6.30 0.70 1.75 0.95 5.05 0.40 6.40 -0.45 1.20 -5.70 1.05 -9.70 -0.35z"/>
  <path d="M21.50 22.70 c0 -1.05 0.90 -2.70 1.50 -2.70 0.30 0 0.50 0.80 0.50 1.75 0 1.40 -0.20 1.75 -1 1.75 -0.55 0 -1 -0.35 -1 -0.80z"/>
  <path d="M65.85 18.65 c-0.20 -0.15 -0.35 -1.05 -0.35 -1.90 0 -1.40 0.20 -1.65 1.60 -1.95 0.85 -0.15 1.60 -0.25 1.60 -0.20 0.05 0.10 0.40 0.85 0.85 1.65 0.40 0.85 0.70 1.80 0.55 2.15 -0.20 0.60 -3.70 0.85 -4.25 0.25z"/>
  <path d="M45.50 14.35 c0 -0.35 1.15 -1 2.50 -1.45 l2.50 -0.80 0 1.15 c0 0.75 -0.35 1.25 -1.10 1.45 -1.95 0.50 -3.90 0.35 -3.90 -0.35z"/>
  <path d="M56.90 14.40 c-2 -0.70 -1.90 -2.50 0.20 -3.30 1.85 -0.70 2.50 -0.40 1.15 0.60 -0.85 0.60 -0.75 0.65 0.75 0.95 0.85 0.20 1.80 0.25 2 0.10 0.50 -0.30 2.75 -4.70 3.25 -6.25 0.30 -1.05 0 -0.85 -1.75 1 -1.15 1.25 -1.85 1.90 -1.55 1.45 0.30 -0.45 0.40 -0.90 0.25 -1.05 -0.50 -0.55 4.20 -4.90 5.30 -4.90 1 0 1.05 0.15 0.75 2.15 -0.20 1.15 -1.15 3.85 -2.15 6 l-1.80 3.85 -2.55 -0.05 c-1.35 0 -3.10 -0.25 -3.85 -0.55z"/>
  <path d="M51 12.80 c0 -0.65 1.40 -1.30 2.90 -1.30 0.30 0 0.60 0.45 0.60 1 0 0.80 -0.35 1 -1.75 1 -1.15 0 -1.75 -0.25 -1.75 -0.70z"/>
  <path d="M67.50 11.75 c0 -1.40 0.20 -1.75 1 -1.75 1.05 0 1.20 0.50 0.70 2.40 -0.50 1.80 -1.70 1.35 -1.70 -0.65z"/>
 </g>
 <g fill="#342b38">
  <path d="M9 99.50 c0 -0.25 -0.45 -0.50 -1 -0.50 -1.25 0 -1.25 -0.10 0.30 -6.60 0.90 -3.70 1.50 -5.40 2 -5.40 0.40 0 0.70 0.40 0.70 0.85 0 0.70 0.15 0.65 0.80 -0.30 0.85 -1.20 0.85 -1.55 -0.55 -7.80 -0.40 -1.90 -0.75 -4.35 -0.75 -5.35 0 -1.10 -0.25 -1.90 -0.55 -1.90 -0.40 0 -0.50 -0.75 -0.25 -2.35 0.65 -4.90 0.85 -6.95 0.85 -8.15 0 -0.70 0.25 -2.60 0.50 -4.25 0.30 -1.65 0.50 -3.45 0.50 -4 -0.10 -2.15 0.50 -4.20 1.35 -4.40 0.80 -0.20 0.80 -0.25 0 -0.30 -1.20 -0.05 -1.15 -0.90 0.40 -4.90 0.70 -1.85 1.70 -4.75 2.30 -6.40 0.55 -1.65 1.60 -3.80 2.35 -4.75 0.85 -1.05 1.75 -3.40 2.40 -6 3.40 -13.70 7.30 -17.20 13.80 -12.25 l2.20 1.70 1.75 -0.95 c1 -0.50 3.20 -1.20 4.95 -1.50 1.75 -0.30 4.20 -0.90 5.45 -1.25 1.25 -0.40 3.65 -0.85 5.25 -1.05 1.65 -0.15 3.75 -0.75 4.65 -1.25 2.05 -1.15 2.10 -0.25 0.05 1 l-1.50 0.95 1.60 0.55 c2.85 1 3.15 0.80 5.10 -3.35 1 -2.15 1.85 -4.25 1.85 -4.65 -0.05 -0.40 -1.05 0.45 -2.25 1.80 -1.25 1.40 -2.25 2.15 -2.25 1.75 0 -0.40 0.85 -1.70 1.90 -2.90 1.50 -1.70 2.35 -2.25 3.90 -2.45 2.80 -0.35 3.45 0.55 3 4.25 -0.20 1.55 -0.50 4.20 -0.65 5.90 l-0.30 3.05 4.05 3.05 c2.20 1.70 4.50 3.70 5.10 4.45 3.10 4 4.45 6.20 5.55 8.90 0.65 1.65 2.15 4.50 3.30 6.40 1.75 2.75 2.15 3.80 2.15 5.80 0 1.65 0.35 2.95 1.15 4.10 1.90 2.85 3.20 6.40 1.55 4.20 -0.60 -0.80 -0.90 -0.85 -1.60 -0.40 -0.45 0.35 -2.05 1.25 -3.45 2 -1.45 0.75 -2.65 1.50 -2.65 1.70 0 0.20 0.55 1.35 1.25 2.50 0.70 1.20 1.25 2.60 1.25 3.10 0 0.45 0.25 0.85 0.50 0.85 1 0 0.50 2.65 -0.75 3.80 -2.30 2.15 -8.30 3 -10.60 1.55 -0.35 -0.25 -0.65 -0.25 -0.65 -0.05 0 0.20 -0.40 0 -0.90 -0.45 -0.50 -0.50 -1.10 -0.70 -1.25 -0.50 -0.20 0.15 -0.35 0 -0.35 -0.35 0 -0.35 -0.15 -0.55 -0.30 -0.35 -0.15 0.15 -0.55 0.10 -0.90 -0.15 -2.60 -2.15 -3.75 -2.95 -5.15 -3.70 -0.85 -0.45 -1.95 -1.30 -2.35 -1.90 -0.45 -0.60 -0.80 -0.95 -0.80 -0.75 0 0.20 -0.95 -0.25 -2.10 -1 -1.20 -0.70 -2.20 -1.25 -2.30 -1.20 -0.05 0.05 -1.20 -0.40 -2.55 -1.05 -2.05 -1 -2.75 -1.75 -4.85 -5.25 -1.30 -2.25 -2.60 -3.95 -2.80 -3.85 -0.20 0.15 -0.25 -0.15 -0.05 -0.60 0.25 -0.60 0.15 -0.75 -0.30 -0.45 -0.50 0.25 -0.55 0.10 -0.30 -0.70 0.20 -0.75 0.15 -1.05 -0.35 -0.95 -0.35 0.10 -0.60 -0.20 -0.55 -0.60 0.25 -2.20 0.75 -3.80 1.30 -4.25 0.35 -0.25 0.55 -0.85 0.45 -1.35 -0.10 -0.45 0.10 -0.95 0.35 -1.15 0.35 -0.20 0.40 0 0.20 0.55 -0.20 0.60 -0.15 0.75 0.25 0.50 0.95 -0.60 0.70 -1.05 -1.25 -2.45 -1.05 -0.75 -1.65 -1.35 -1.35 -1.35 0.25 0 0.75 0.25 1.10 0.60 0.35 0.35 0.60 0.45 0.60 0.25 0 -0.20 -0.95 -0.95 -2.05 -1.65 -1.45 -0.90 -1.90 -1.40 -1.45 -1.70 0.45 -0.30 0.35 -0.50 -0.45 -0.75 -0.55 -0.15 -1.05 -0.65 -1.05 -1.05 0 -0.40 -0.20 -0.70 -0.50 -0.70 -0.25 0 -0.50 -0.25 -0.50 -0.55 0 -0.35 -1.55 -2.10 -3.45 -4 -1.85 -1.85 -4.70 -4.85 -6.30 -6.65 -1.60 -1.80 -3.05 -3.30 -3.30 -3.30 -0.60 0 -0.20 8.55 0.45 8.95 0.25 0.15 1.20 1.85 2.05 3.75 1.05 2.30 2.50 4.40 4.30 6.20 1.50 1.50 2.75 2.95 2.75 3.15 0 0.65 -1.70 1 -4.55 0.90 -2.50 -0.10 -2.85 -0.25 -4.80 -2.35 -1.15 -1.25 -2 -2.40 -1.90 -2.50 0.15 -0.15 -0.15 -0.55 -0.65 -0.90 -0.70 -0.55 -0.70 -0.70 -0.10 -0.70 0.45 -0.05 0.30 -0.25 -0.35 -0.50 -0.90 -0.35 -1.10 -0.85 -1.05 -2.25 0.05 -1.95 -0.25 -2.55 -1.10 -2 -1.15 0.70 -1.55 2.85 -1 5.60 0.70 3.35 0.35 4.50 -1.55 4.90 -3 0.65 -4.90 6.30 -7 20.80 -0.65 4.55 -1.15 10.25 -1.15 13.95 0 5.75 0.10 6.45 1.35 9.15 1.30 2.90 1.30 2.95 0.35 4.25 -0.70 1 -1.10 3 -1.55 7.75 l-0.65 6.35 -2.15 0 c-1.20 0 -2.15 -0.20 -2.15 -0.50z m75.50 -35.80 c0 -1.25 -1.75 -3.85 -3.40 -5.05 -0.80 -0.60 -2.80 -1.65 -4.40 -2.35 -1.65 -0.65 -4.60 -1.90 -6.60 -2.80 -2.25 -0.95 -4.25 -1.50 -5.25 -1.40 -1.60 0.15 -1.60 0.15 1.60 2.15 1.80 1.10 3.80 2.55 4.50 3.25 1.55 1.55 5.70 4 6.75 4 0.40 0 1.05 0.35 1.50 0.75 0.85 0.85 3.70 2.20 4.70 2.25 0.30 0 0.60 -0.35 0.60 -0.80z m-12.25 -17.40 c-3.30 -3.60 -5.35 -5.45 -6.60 -5.85 -2.65 -0.85 -6.25 -0.30 -10 1.60 -4.45 2.25 -4.50 3.05 -0.05 5.30 4.35 2.20 6.05 2.45 11.25 1.65 l4.30 -0.70 2.80 1.55 c1.55 0.85 2.90 1.60 2.95 1.60 0.10 0.05 -2 -2.30 -4.65 -5.15z m16 1.75 c-0.40 -0.80 -0.90 -1.55 -1.10 -1.65 -0.25 -0.05 -0.75 -0.95 -1.20 -1.90 -0.70 -1.55 -0.75 -1.90 -0.10 -2.85 0.55 -0.85 0.60 -1.30 0.15 -2.10 -0.30 -0.60 -0.75 -1.05 -1 -1.05 -0.60 0 -0.65 0.35 -0.05 1.45 0.30 0.50 0.30 1.15 0 1.60 -0.40 0.60 -0.60 0.55 -1.20 -0.25 -0.40 -0.55 -0.75 -1.50 -0.75 -2.15 0 -1.25 -0.55 -1.45 -2.05 -0.65 -0.95 0.50 -1.35 2 -0.55 2 0.20 0 2.05 2.05 4.05 4.50 3.65 4.50 5.25 5.75 3.80 3.05z m-0.25 -4.80 c0 -0.40 -0.45 -0.75 -1 -0.75 -1 0 -1.30 0.55 -0.65 1.15 0.60 0.65 1.65 0.35 1.65 -0.40z m-24.15 -5.60 c3.75 0.40 2.55 -0.60 -2.80 -2.30 -2.35 -0.75 -4.80 -1.85 -5.45 -2.50 l-1.25 -1.10 0.85 1.60 c0.45 0.90 0.80 2.35 0.80 3.30 l0 1.70 2.65 -0.45 c1.40 -0.30 3.80 -0.40 5.20 -0.25z m-43.05 -3.95 c-0.15 -0.45 -0.30 -1 -0.30 -1.25 0 -0.25 -0.20 -0.45 -0.50 -0.45 -0.25 0 -0.50 0.55 -0.50 1.25 0 0.80 0.30 1.25 0.80 1.25 0.55 0 0.70 -0.25 0.50 -0.80z m48.55 -3.65 c0.20 -0.75 0.10 -1.30 -0.25 -1.45 -0.30 -0.10 -0.40 -0.50 -0.25 -0.90 0.15 -0.45 -0.10 -0.70 -0.65 -0.75 -0.60 0 -0.70 -0.15 -0.30 -0.30 0.50 -0.20 0.40 -0.55 -0.45 -1.45 -0.60 -0.65 -1.30 -1.05 -1.50 -0.90 -0.25 0.15 -0.45 0 -0.45 -0.30 0 -0.25 -1.25 -1.10 -2.75 -1.85 l-2.70 -1.35 -1.05 1.35 c-0.80 1 -1.50 1.35 -2.75 1.35 -0.95 0 -1.80 -0.20 -1.95 -0.45 -0.15 -0.25 -0.95 -0.70 -1.80 -0.95 -3.85 -1.35 0.40 3.65 5.40 6.30 1.70 0.90 3.10 1.50 3.10 1.30 0 -0.15 0.30 -0.10 0.65 0.20 0.35 0.30 1.25 0.65 2.05 0.80 0.80 0.15 1.55 0.35 1.65 0.50 0.15 0.10 1 0.20 1.95 0.15 1.40 -0.10 1.80 -0.35 2.05 -1.30z m-29.35 -12.80 c0 -1.30 -0.70 -1.55 -2 -0.75 -0.65 0.40 -0.60 0.55 0.25 1.20 1.40 1.05 1.75 1 1.75 -0.45z"/>
  <path d="M57.50 99.25 c0 -0.40 1.20 -1.50 2.70 -2.45 1.80 -1.15 3.20 -2.55 4.10 -4.15 0.80 -1.30 1.65 -2.65 1.95 -3 1.50 -1.75 1.75 -2.15 1.75 -2.40 0 -1.10 3.60 -5.05 4.95 -5.50 0.60 -0.15 1.05 -0.50 1.05 -0.75 0 -0.85 -2.95 -3.50 -3.95 -3.50 -0.60 0 -1.05 -0.20 -1.05 -0.45 0 -0.65 1.70 -1.20 1.90 -0.60 0.25 0.75 2.60 0.70 2.60 0 0 -0.35 0.60 -0.45 1.50 -0.35 2 0.30 2.45 -0.50 0.95 -1.65 -1.30 -1 -1.35 -1 2.55 -2 1.25 -0.30 3.05 -0.95 4 -1.40 1.10 -0.55 2.20 -0.75 3 -0.55 0.70 0.20 1.65 0.15 2.15 -0.10 0.50 -0.25 1.15 -0.35 1.50 -0.25 0.35 0.10 0 0.50 -0.75 0.85 -0.85 0.40 -1.40 1.10 -1.50 1.90 -0.25 2.25 -3.15 3.95 -8.25 4.95 -2.55 0.50 -4.65 1.10 -4.65 1.30 0 0.25 0.55 1.40 1.25 2.65 1.40 2.50 1.50 3.65 0.65 6.05 -0.80 2.15 -1.90 2.15 -1.90 0.05 l0 -1.65 -1.25 2 c-0.65 1.10 -1.35 2.65 -1.55 3.50 -0.20 0.80 -0.70 2 -1.10 2.65 -0.70 1.10 -0.70 1.25 0.05 1.70 0.55 0.30 0.85 1.10 0.85 2.15 l0 1.75 -6.75 0 c-5.60 0 -6.75 -0.10 -6.75 -0.75z m22.70 -24 c0.20 -0.55 0 -0.70 -0.85 -0.55 -0.60 0.15 -1.30 0.25 -1.60 0.30 -0.25 0.05 0.05 0.30 0.75 0.50 0.70 0.20 1.30 0.40 1.30 0.45 0.05 0.05 0.20 -0.30 0.40 -0.70z"/>
  <path d="M73 98 c0 -1.40 0.20 -2 0.75 -2 0.55 0 0.65 -0.50 0.40 -2.50 -0.45 -3.80 0.85 -3.30 2.25 0.90 2.05 5.90 2.10 5.60 -0.85 5.60 l-2.55 0 0 -2z"/>
  <path d="M64.50 75.20 c-1.25 -0.70 -2.30 -1.20 -2.35 -1.10 -0.05 0.05 -0.25 0 -0.45 -0.20 -0.65 -0.70 0.65 -0.40 3 0.60 1.25 0.50 2.30 1.20 2.30 1.50 0 0.65 0.10 0.70 -2.50 -0.80z"/>
  <path d="M57.65 73.25 c-1.40 -0.40 -3.80 -1.50 -5.35 -2.50 -1.50 -0.95 -3.10 -1.75 -3.45 -1.75 -0.95 0 -1.50 1.45 -0.90 2.20 0.25 0.30 0.25 1 0 1.55 -0.20 0.55 -0.40 0.70 -0.40 0.35 -0.05 -0.35 -0.25 -0.55 -0.50 -0.40 -1.20 0.75 -7.55 -9.80 -7.55 -12.60 0 -1.50 1.10 -3.10 2.10 -3.10 1.95 0 5.20 3.45 9.65 10.40 1.50 2.30 2.50 3.30 4 3.95 1.10 0.45 2.25 0.85 2.60 0.90 0.30 0 0.75 0.20 0.95 0.40 0.20 0.20 0.80 0.35 1.30 0.35 0.50 0 0.90 0.25 0.90 0.50 0 0.60 -0.10 0.60 -3.35 -0.25z"/>
  <path d="M90 70.05 c0 -0.20 0.35 -0.70 0.75 -1.05 1.15 -0.95 0.90 -1.40 -0.80 -1.60 -1.50 -0.15 -1.55 -0.25 -1.70 -2.85 -0.20 -2.60 -0.10 -2.80 1.75 -4.65 1.10 -1.05 2.20 -1.90 2.45 -1.90 0.30 0 0.35 -0.85 0.20 -1.85 -0.25 -1.60 -0.15 -1.80 0.40 -1.25 1.10 1.05 1.25 9.15 0.25 11.85 -0.75 1.90 -3.30 4.50 -3.30 3.30z"/>
 </g>
 <g fill="#403546">
  <path d="M7.55 99.55 c-0.55 -0.35 -0.55 -0.90 -0.10 -3.10 0.35 -1.45 0.80 -2.80 1.10 -2.95 0.25 -0.20 0.75 -1.70 1.10 -3.40 0.40 -1.90 1 -3.35 1.60 -3.80 0.95 -0.65 0.95 -0.75 -0.40 -2.65 -1.20 -1.75 -1.35 -2.35 -1.35 -6.45 0.05 -6.95 2.55 -30.05 3.55 -32.50 0.30 -0.80 0.90 -2.20 1.30 -3.10 0.40 -0.90 1.15 -2.90 1.65 -4.40 0.55 -1.55 1.65 -3.70 2.50 -4.85 0.80 -1.10 1.50 -2.40 1.50 -2.85 0 -1.75 2.10 -8.65 3.55 -11.70 1.95 -4.10 2.85 -4.90 5.60 -4.90 2.45 -0.05 4.65 1.20 9.70 5.65 1.55 1.35 3.40 2.60 4.10 2.75 0.70 0.10 1.95 0.55 2.70 0.95 0.80 0.40 1.80 0.75 2.20 0.75 0.45 0 2.95 2.15 5.60 4.75 4.65 4.55 5 4.80 9.05 6.10 3.85 1.25 6.50 2.90 6.50 4.05 0 0.90 6.60 6.70 10.10 8.90 1.20 0.75 2.25 1.50 2.40 1.65 0.60 0.70 4.85 2.55 6.20 2.65 2.40 0.25 2.05 1.25 -0.90 2.70 l-2.70 1.30 -3.85 -2.65 c-2.10 -1.45 -5.65 -4.65 -7.90 -7.10 -2.25 -2.45 -4.75 -4.80 -5.60 -5.25 -1.90 -1 -6.55 -0.95 -10.25 0.05 -3.80 1 -5.15 -0.10 -2.95 -2.45 l1 -1.10 -1.10 -2.15 c-2.95 -5.85 -5.10 -8.05 -10.55 -10.85 -2.75 -1.40 -5.15 -3.10 -7.10 -5.05 -1.60 -1.65 -3.70 -3.35 -4.65 -3.90 -1.50 -0.80 -1.75 -0.80 -2.15 -0.15 -0.60 0.95 -0.65 2.75 0 4.70 0.85 2.80 1.75 6.55 1.60 6.95 -0.05 0.20 0.15 0.35 0.45 0.35 0.30 0 0.45 0.35 0.25 0.75 -0.15 0.40 -0.05 0.75 0.25 0.75 0.30 0 0.35 0.25 0.20 0.50 -0.15 0.30 -0.05 0.50 0.25 0.50 0.30 0 0.40 0.20 0.25 0.50 -0.15 0.25 -0.05 0.50 0.20 0.50 0.30 0 0.55 0.25 0.55 0.60 0 0.30 1.15 1.90 2.55 3.50 2.25 2.60 2.40 2.90 1.40 2.90 -1.65 0 -5.80 -4.55 -7.50 -8.15 -1.55 -3.40 -2.60 -8.80 -2.35 -12.35 0.35 -5.75 -2.90 0.10 -5 9 -0.40 1.70 -0.35 3.25 0.20 6.45 0.85 4.75 0.50 5.65 -1.55 4.55 -0.70 -0.35 -1.30 -0.55 -1.40 -0.45 -0.75 0.95 -3.35 6.60 -3.30 7.10 0.15 0.80 -0.45 4.40 -1.40 8.10 -1.10 4.45 -1.95 10.80 -2.45 18.70 -0.30 4.20 0.50 9.85 1.85 13.35 0.55 1.50 0.20 4.50 -0.60 5.50 -0.75 0.90 -2.95 8.15 -2.95 9.70 0 1.20 -0.20 1.50 -1.10 1.50 -0.65 0 -1.45 -0.20 -1.85 -0.45z"/>
  <path d="M65 99.15 c0 -0.50 0.45 -1.55 1 -2.40 2.40 -3.55 3.25 -5 3.25 -5.50 0 -0.25 0.65 -1.80 1.45 -3.35 1 -1.95 1.90 -3 2.90 -3.45 0.90 -0.35 1.35 -0.85 1.20 -1.25 -0.40 -1.05 0.60 -0.80 1.20 0.25 0.80 1.50 0.60 2.95 -0.50 3.90 -0.55 0.50 -1 1.50 -1 2.25 0 0.80 -0.20 1.40 -0.50 1.40 -0.25 0 -0.50 0.90 -0.50 2 0 1.85 0.10 2 1.40 2 1 0 1.50 0.35 2 1.35 0.80 1.80 0.75 2.65 -0.15 2.65 -0.40 0 -0.75 -0.35 -0.75 -0.75 0 -0.40 -0.35 -0.75 -0.75 -0.75 -0.45 0 -0.75 0.45 -0.75 1.25 0 0.90 -0.25 1.25 -1 1.25 -0.80 0 -1 -0.35 -1.05 -1.60 l-0.05 -1.65 -0.45 1.65 c-0.55 1.90 -2.30 2.25 -2.55 0.50 -0.10 -0.65 -0.50 -1.15 -0.90 -1.15 -0.40 0 -0.95 0.50 -1.25 1.15 -0.60 1.30 -2.25 1.50 -2.25 0.25z"/>
  <path d="M67.05 76.45 c-2.75 -1.20 -2.35 -1.85 0.45 -0.75 1.15 0.45 2.20 0.70 2.40 0.60 0.20 -0.10 0.80 0.10 1.35 0.50 0.90 0.65 0.85 0.70 -0.55 0.65 -0.80 0 -2.45 -0.45 -3.65 -1z"/>
  <path d="M86 73.30 c0 -0.80 -0.30 -0.90 -1.75 -0.65 -1 0.15 -1.75 0.10 -1.75 -0.20 0 -0.60 2.50 -1.55 3.30 -1.25 0.30 0.10 0.85 -0.05 1.15 -0.35 0.50 -0.45 0.55 -0.25 0.25 0.90 -0.40 1.85 -1.20 2.85 -1.20 1.55z"/>
  <path d="M56.75 72.65 c-0.90 -0.70 -0.90 -0.75 -0.10 -0.45 0.50 0.15 1.25 0.30 1.65 0.30 0.40 0 0.70 0.25 0.70 0.50 0 0.75 -1.10 0.60 -2.25 -0.35z"/>
  <path d="M88.50 70.55 c0 -0.35 1.45 -1.20 3.25 -2 0.30 -0.10 0.10 0.25 -0.40 0.85 -0.95 1 -2.85 1.80 -2.85 1.15z"/>
  <path d="M47.75 66.05 c-1.70 -1.65 -2.95 -3.25 -2.85 -3.70 0.15 -0.70 0.35 -0.70 1.15 -0.20 1.10 0.65 5.65 6.85 5.05 6.85 -0.20 0 -1.70 -1.35 -3.35 -2.95z"/>
  <path d="M81.10 65.55 c-2 -0.70 -3.85 -1.65 -4.10 -2.05 -0.25 -0.40 -0.50 -0.55 -0.50 -0.35 0 0.60 -5.55 -2.65 -7.05 -4.10 -0.70 -0.75 -3 -2.40 -5.15 -3.75 -2.10 -1.35 -4.05 -2.80 -4.30 -3.30 -0.40 -0.80 -0.05 -0.95 3.25 -1.45 3.70 -0.55 3.75 -0.55 7.85 1.25 2.30 1 5.45 2.35 7.10 3 4.85 2.05 7.80 4.95 7.80 7.65 0 0.60 0.30 1.05 0.75 1.05 0.40 0 0.75 0.35 0.75 0.75 0 0.40 -0.35 0.75 -0.75 0.75 -0.40 0 -0.75 0.30 -0.75 0.70 0 1.20 -1.15 1.15 -4.90 -0.15z"/>
  <path d="M93.05 59.60 c-0.05 -1.70 -0.40 -3.95 -0.80 -4.95 -0.95 -2.20 -0.60 -2.80 0.45 -0.75 1 1.95 1.50 6.05 0.85 7.60 -0.40 1.05 -0.50 0.75 -0.50 -1.90z"/>
  <path d="M89.55 49.95 c-0.85 -1.15 -1.55 -2.50 -1.55 -3 0 -0.45 -0.30 -1 -0.60 -1.10 -0.50 -0.20 -0.50 -0.30 0 -0.30 0.30 -0.05 0.60 -0.40 0.60 -0.80 0 -0.40 0.25 -0.75 0.50 -0.75 0.30 0 0.50 0.70 0.50 1.60 0 0.85 0.60 2.55 1.30 3.75 1.70 2.90 1.20 3.30 -0.75 0.60z"/>
  <path d="M86.80 40.95 c-0.50 -0.85 -0.80 -1.65 -0.65 -1.75 0.30 -0.30 2.35 2.25 2.35 2.85 0 0.90 -0.80 0.40 -1.70 -1.10z"/>
  <path d="M83.05 33.80 c-0.30 -0.80 -0.50 -1.55 -0.35 -1.65 0.35 -0.40 1.40 1.85 1.15 2.50 -0.15 0.35 -0.50 -0.05 -0.80 -0.85z"/>
  <path d="M53.65 21.25 c-1.70 -0.70 -7.15 -4.60 -7.75 -5.45 -0.50 -0.75 0.55 -1.30 2.40 -1.30 2.25 0 8.40 4.90 8.10 6.45 -0.20 1 -0.95 1.10 -2.75 0.30z"/>
  <path d="M56.90 15.75 c-2.20 -2.05 -2.25 -2.25 -0.85 -2.25 1.50 0 3.95 1.90 3.95 3.05 0 1.40 -1 1.15 -3.10 -0.80z"/>
  <path d="M68 13.75 c0 -0.70 -0.20 -1.25 -0.50 -1.25 -0.25 0 -0.50 -0.90 -0.50 -2 0 -1.45 0.20 -2 0.75 -2 0.40 0 0.75 -0.45 0.75 -1 0 -0.55 -0.20 -1 -0.50 -1 -0.25 0 -0.50 -0.60 -0.50 -1.30 0 -1.15 -0.15 -1.30 -1.25 -1.10 -1.40 0.30 -1.70 -0.30 -0.45 -0.80 1.55 -0.60 3.15 -0.30 3.70 0.65 0.55 1.10 -0.40 11.05 -1.10 11.05 -0.20 0 -0.40 -0.55 -0.40 -1.25z"/>
  <path d="M44 14 c0 -0.25 0.65 -0.50 1.45 -0.50 0.80 0 2.10 -0.25 2.80 -0.50 0.75 -0.30 1.60 -0.35 1.85 -0.15 0.30 0.15 -0.55 0.60 -1.90 0.95 -3 0.80 -4.20 0.85 -4.20 0.20z"/>
  <path d="M54.15 12.15 c0.45 -0.10 1.25 -0.10 1.75 0 0.45 0.15 0.05 0.25 -0.90 0.25 -0.95 0 -1.35 -0.10 -0.85 -0.25z"/>
  <path d="M60.50 8.50 c1.30 -1.80 2 -2.30 2 -1.35 0 0.70 -2 2.85 -2.70 2.85 -0.20 0 0.10 -0.65 0.70 -1.50z"/>
 </g>
 <g fill="#49463e">
  <path d="M83.50 41.05 c-0.60 -1.20 -0.65 -3.55 -0.10 -3.55 0.55 0 1.60 2.30 1.60 3.50 0 1.30 -0.80 1.30 -1.50 0.05z"/>
 </g>
 <g fill="#4b3e50">
  <path d="M7.35 97.40 c0.40 -1.45 1.10 -4.45 1.50 -6.65 0.40 -2.20 1 -4.45 1.25 -5 0.40 -0.70 0.35 -1 -0.05 -1.15 -0.65 -0.20 -0.80 -8.60 -0.10 -8.60 0.50 0 1.05 1.70 1.05 3.30 0 0.55 0.55 1.75 1.25 2.70 1.50 2.05 1.70 5.20 0.40 5.90 -0.50 0.30 -1.10 1.70 -1.50 3.65 -1.85 9.10 -1.60 8.45 -3.10 8.45 l-1.40 0 0.70 -2.60z"/>
  <path d="M65.50 99.20 c0 -1.25 3.65 -6.20 4.65 -6.20 1 0 1.15 -0.80 0.25 -1.15 -0.35 -0.15 -0.15 -0.30 0.50 -0.30 0.95 -0.05 1.10 -0.25 0.85 -1.05 -0.25 -0.75 -0.10 -1 0.60 -1 0.55 0 0.70 -0.15 0.35 -0.40 -0.90 -0.55 0.10 -2.55 1.55 -3.10 1.45 -0.55 1.40 -0.50 0.75 -2.20 -0.30 -0.85 -0.30 -1.30 0 -1.30 1 0 1.65 2.65 1.05 4.30 -0.30 0.85 -0.55 2.55 -0.55 3.85 0 1.30 -0.20 2.35 -0.50 2.35 -0.25 0 -0.50 0.35 -0.50 0.75 0 0.40 0.30 0.75 0.70 0.75 0.40 0 1.10 0.70 1.50 1.60 1 1.95 1 2.40 0.05 2.40 -0.40 0 -0.75 -0.30 -0.75 -0.70 0 -1.05 -1.05 -1.55 -1.55 -0.75 -0.25 0.40 -0.45 1.20 -0.45 1.85 0 0.95 -0.25 1.10 -2.05 1.10 l-2.10 0 0.35 -2.05 c0.20 -1.15 0.70 -2.75 1.10 -3.65 0.75 -1.40 0.55 -1.30 -1.75 0.95 -1.45 1.40 -2.70 3 -2.90 3.65 -0.30 1.25 -1.15 1.50 -1.15 0.30z"/>
  <path d="M72.30 78.25 c-0.15 -0.40 -0.90 -0.75 -1.70 -0.75 -0.75 0 -1.85 -0.35 -2.40 -0.80 -0.90 -0.75 -0.90 -0.75 0.50 -0.45 0.75 0.15 2.05 0.45 2.85 0.60 1 0.20 1.45 0.60 1.45 1.20 0 1.15 -0.30 1.20 -0.70 0.20z"/>
  <path d="M9.70 71.90 c0.15 -1.20 0.40 -3.60 0.55 -5.40 0.50 -6.15 1.90 -17.75 2.35 -19.60 0.25 -1.05 0.65 -1.90 0.85 -1.90 0.25 0 0.15 0.95 -0.20 2.15 -0.60 2 -1.50 10.70 -2.05 19.60 -0.35 5.40 -0.65 7.25 -1.25 7.25 -0.30 0 -0.40 -0.85 -0.25 -2.10z"/>
  <path d="M93.05 59.50 c0 -1.85 0.10 -2.05 0.45 -1.10 0.30 0.65 0.30 1.55 0 2.25 -0.35 0.90 -0.45 0.70 -0.45 -1.15z"/>
  <path d="M76.75 59.15 c-0.55 -0.15 -1.20 -0.50 -1.50 -0.75 -0.35 -0.35 -0.10 -0.40 0.75 -0.15 2.60 0.75 3.20 1.50 0.75 0.90z"/>
  <path d="M92.80 55.75 c-0.20 -0.80 -1.35 -2.95 -2.60 -4.75 -1.80 -2.75 -2.20 -3.70 -2.20 -5.65 0 -1.30 0.25 -2.35 0.50 -2.35 0.30 0 0.50 1 0.50 2.25 0 1.60 0.40 2.90 1.50 4.65 1.85 3 3.10 6 2.85 6.75 -0.10 0.35 -0.35 -0.05 -0.55 -0.90z"/>
  <path d="M83.20 53.65 c-0.80 -0.85 -0.80 -0.90 0.35 -1.20 0.65 -0.20 1.90 -0.35 2.70 -0.40 l1.50 0 -1.40 1.20 c-1.65 1.50 -2 1.50 -3.15 0.40z"/>
  <path d="M76.45 48.55 c-1.25 -1.10 -3.25 -3.25 -4.45 -4.80 -1.20 -1.55 -3.15 -3.40 -4.35 -4.10 -2.15 -1.25 -2.40 -1.30 -7.70 -0.95 -5.80 0.40 -6.70 0.05 -4 -1.60 l1.50 -0.90 -1.45 -0.55 c-1 -0.40 -1.85 -1.40 -2.90 -3.45 -0.85 -1.65 -2.10 -3.70 -2.80 -4.65 -0.70 -0.95 -1.20 -1.80 -1.10 -1.95 0.75 -0.75 6.45 5 8.45 8.45 0.85 1.55 1.40 1.95 2.50 1.95 3.85 0 5.80 1.05 11.15 5.95 5.15 4.75 8.65 8.55 7.85 8.55 -0.20 0 -1.45 -0.90 -2.70 -1.95z"/>
  <path d="M86.80 40.95 c-0.50 -0.85 -0.80 -1.65 -0.65 -1.75 0.25 -0.25 2.35 2.45 2.35 3 0 0.80 -0.90 0.15 -1.70 -1.25z"/>
  <path d="M15.65 38.25 c0.30 -0.95 0.70 -1.75 0.95 -1.75 0.50 0 0.50 0.05 -0.15 1.95 -0.75 2.15 -1.50 2 -0.80 -0.20z"/>
  <path d="M21.15 35.90 c-1.35 -1.65 -2.15 -3.95 -1.75 -4.80 0.25 -0.45 0.70 -2.20 1.05 -3.85 0.70 -3.15 1.50 -5.20 1.50 -3.75 0 0.40 -0.20 1.70 -0.45 2.90 -0.40 1.55 -0.30 3.05 0.25 5.70 0.70 3.50 0.45 5.15 -0.60 3.80z"/>
  <path d="M34.30 34.45 c-2.70 -2.45 -5.55 -7.90 -6.30 -11.90 -0.65 -3.45 -0.65 -7.55 0 -7.55 0.30 0 0.50 0.80 0.50 1.75 0 0.95 0.25 1.75 0.50 1.75 0.30 0 0.50 0.65 0.50 1.40 0 0.80 0.30 2.50 0.70 3.75 0.35 1.25 0.55 2.40 0.40 2.55 -0.15 0.20 0 0.30 0.35 0.30 0.40 0 0.55 0.35 0.35 0.75 -0.15 0.40 -0.05 0.75 0.25 0.75 0.30 0 0.35 0.25 0.20 0.50 -0.15 0.30 -0.05 0.50 0.25 0.50 0.30 0 0.40 0.25 0.25 0.50 -0.15 0.30 -0.05 0.50 0.20 0.50 0.30 0 0.55 0.35 0.55 0.75 0 0.45 0.95 1.80 2.05 3 2.75 2.95 2.20 3.45 -0.75 0.70z"/>
  <path d="M81.35 30.45 c-0.50 -0.90 -0.80 -1.70 -0.65 -1.80 0.25 -0.25 2.30 2.35 2.30 2.90 0 0.95 -0.80 0.40 -1.65 -1.10z"/>
  <path d="M36.05 17.65 c-4 -3.65 -4.30 -3.85 -6.65 -3.90 -2.15 -0.05 -2.65 0.15 -3.70 1.40 -0.70 0.80 -1.35 1.40 -1.45 1.25 -0.15 -0.10 0.40 -0.95 1.15 -1.85 1.15 -1.40 1.70 -1.65 3.60 -1.65 1.85 -0.05 2.80 0.30 5.10 1.90 2.70 1.90 7.45 6.70 6.55 6.70 -0.20 0 -2.30 -1.75 -4.60 -3.85z"/>
  <path d="M68.85 17.60 c-0.85 -0.95 -1.15 -2.60 -0.45 -2.60 0.45 0 1.80 2.95 1.50 3.30 -0.15 0.10 -0.60 -0.20 -1.05 -0.70z"/>
  <path d="M38.20 15.75 c0.55 -0.40 1.25 -0.75 1.50 -0.75 0.30 0 0.10 0.35 -0.40 0.75 -0.55 0.40 -1.25 0.75 -1.50 0.75 -0.30 0 -0.10 -0.35 0.40 -0.75z"/>
  <path d="M43.75 14 c0.15 -0.25 0.65 -0.50 1.05 -0.50 0.40 0 0.70 0.25 0.70 0.50 0 0.30 -0.45 0.50 -1.05 0.50 -0.55 0 -0.85 -0.20 -0.70 -0.50z"/>
  <path d="M60.50 9.15 c0 -0.75 2.35 -3.50 2.70 -3.10 0.15 0.15 -0.40 1.05 -1.20 2 -0.80 0.95 -1.45 1.45 -1.50 1.10z"/>
  <path d="M69.05 5.15 c-0.10 -1.05 -1.95 -1.75 -3.05 -1.15 -0.55 0.30 -1 0.35 -1 0.05 0 -0.55 1.25 -1.05 2.80 -1.05 1.25 0 2 1 1.55 2.10 -0.20 0.45 -0.30 0.50 -0.30 0.05z"/>
 </g>
 <g fill="#595548">
  <path d="M83.50 40.75 c-0.30 -0.70 -0.50 -1.80 -0.50 -2.40 l0.05 -1.10 0.95 1.20 c1.10 1.25 1.30 2.80 0.50 3.30 -0.30 0.15 -0.75 -0.30 -1 -1z"/>
  <path d="M85.15 37.95 c-0.60 -1.05 -0.90 -1.95 -0.70 -1.95 0.50 0 2.35 3.40 2 3.70 -0.10 0.10 -0.70 -0.65 -1.30 -1.75z"/>
 </g>
 <g fill="#57485d">
  <path d="M7.25 98.15 c0.20 -1.05 0.75 -3.75 1.30 -6.05 0.70 -3.05 0.95 -6.25 1 -11.75 0.05 -4.20 0.25 -9.15 0.45 -11.10 0.25 -2.85 0.35 -1.95 0.40 4.55 0.10 7.85 0.15 8.10 1.35 9.40 1.50 1.65 1.60 2.85 0.25 3.70 -0.55 0.35 -1 1.05 -1 1.65 0 0.55 -0.35 2.90 -0.85 5.25 -0.65 3.40 -0.95 4.10 -1.50 3.65 -0.50 -0.45 -0.65 -0.25 -0.65 1 0 0.85 -0.25 1.55 -0.50 1.55 -0.35 0 -0.45 -0.70 -0.25 -1.85z"/>
  <path d="M72.25 98.40 c-0.35 -1.95 0.55 -6.45 1.40 -7 0.40 -0.25 0.45 -0.40 0.05 -0.40 -0.35 0 -1.10 0.65 -1.75 1.50 -0.65 0.80 -1.65 1.50 -2.20 1.45 -0.90 0 -0.90 -0.05 0.15 -0.55 0.65 -0.35 1.05 -0.85 0.90 -1.25 -0.15 -0.35 0.05 -0.65 0.50 -0.65 0.50 0 0.70 -0.30 0.55 -0.70 -0.15 -0.40 0.05 -0.85 0.50 -1 0.45 -0.20 0.65 -0.45 0.50 -0.65 -0.50 -0.45 0.60 -2.15 1.40 -2.15 0.40 0 0.75 -0.30 0.75 -0.60 0 -0.45 0.15 -0.45 0.45 0.05 0.55 0.85 0.15 2.15 -0.80 2.70 -0.85 0.55 -0.85 1.55 0.05 1.20 0.50 -0.20 0.75 0.35 1 2.05 0.15 1.30 0.65 3 1.05 3.80 0.90 1.75 0.90 1.80 0.05 1.80 -0.35 0 -0.80 -0.45 -0.95 -1 -0.45 -1.75 -1.75 -1.15 -2.10 1 -0.40 2.40 -1.10 2.60 -1.50 0.40z"/>
  <path d="M72.10 78 c-0.55 -0.90 -0.50 -1 0.40 -1 0.65 0 1 0.35 1 1 0 0.55 -0.15 1 -0.40 1 -0.20 0 -0.65 -0.45 -1 -1z"/>
  <path d="M68.50 77 c-1 -0.65 -0.50 -0.95 1.10 -0.65 0.75 0.15 1.25 0.45 1.10 0.70 -0.35 0.60 -1.25 0.55 -2.20 -0.05z"/>
  <path d="M83 76.15 c0 -0.25 0.65 -0.80 1.45 -1.30 0.95 -0.55 1.55 -1.35 1.65 -2.25 0.10 -1 0.65 -1.60 2.05 -2.30 1.05 -0.50 2.05 -0.80 2.20 -0.60 0.15 0.15 -0.45 0.60 -1.35 1 -1.15 0.45 -1.85 1.20 -2.20 2.35 -0.50 1.50 -3.80 4.20 -3.80 3.10z"/>
  <path d="M92.65 65.90 c0.35 -1.35 0.65 -1.80 0.75 -1.25 0.25 1.20 -0.30 3.35 -0.85 3.35 -0.25 0 -0.20 -0.95 0.10 -2.10z"/>
  <path d="M10.65 63 c0 -1.50 0.10 -2.15 0.20 -1.35 0.10 0.75 0.10 1.95 0 2.75 -0.10 0.75 -0.20 0.10 -0.20 -1.40z"/>
  <path d="M90.20 50.90 c-0.20 -0.35 -0.70 -1.15 -1.10 -1.75 -0.40 -0.65 -0.50 -1.15 -0.30 -1.15 0.25 0 0.95 0.80 1.60 1.75 0.60 0.95 0.90 1.75 0.65 1.75 -0.30 0 -0.65 -0.30 -0.85 -0.60z"/>
  <path d="M12.30 48.30 c0.15 -1.10 0.95 -3.65 1.80 -5.75 0.80 -2.10 1.85 -4.80 2.25 -6.05 0.40 -1.25 1.05 -2.55 1.40 -2.95 0.40 -0.40 -0.20 1.75 -1.35 4.75 -4.65 12.55 -4.45 12.10 -4.10 10z"/>
  <path d="M88 43.70 c0 -0.50 -0.90 -2.40 -2 -4.35 -1.10 -1.90 -1.95 -3.60 -1.85 -3.70 0.15 -0.10 1.25 1.50 2.55 3.50 2.25 3.65 2.80 5.35 1.80 5.35 -0.25 0 -0.50 -0.35 -0.50 -0.80z"/>
  <path d="M84.25 40.50 c-0.20 -0.60 -0.25 -1.20 -0.10 -1.35 0.15 -0.10 0.40 0.25 0.60 0.85 0.20 0.60 0.25 1.20 0.10 1.35 -0.15 0.10 -0.40 -0.25 -0.60 -0.85z"/>
  <path d="M20.25 33.70 c-0.80 -1.75 -0.80 -2 0.25 -6.50 0.60 -2.60 1.25 -4.70 1.45 -4.70 0.25 0 0.10 1.20 -0.30 2.65 -0.70 2.45 -0.60 6.50 0.15 9.25 0.50 1.75 -0.60 1.30 -1.55 -0.70z"/>
  <path d="M82.35 32.40 c-0.65 -1.45 -1.10 -2.75 -1 -2.90 0.30 -0.30 1.25 1.30 2.05 3.45 1 2.75 0.30 2.35 -1.05 -0.55z"/>
  <path d="M33.30 32.85 c-1.40 -1.85 -1.60 -2.35 -0.75 -2.35 0.25 0 0.35 0.25 0.20 0.50 -0.15 0.30 -0.15 0.50 0.10 0.50 0.20 0 0.80 0.70 1.25 1.50 1.15 2 0.75 1.90 -0.80 -0.15z"/>
  <path d="M54.50 32.90 c-0.55 -0.90 -1 -1.85 -1 -2.15 0.05 -0.65 3 2.60 3 3.25 0 1.05 -1.05 0.45 -2 -1.10z"/>
  <path d="M79.90 28.15 c-1.60 -1.90 -2.95 -4.15 -2.50 -4.15 0.30 0 1.05 0.85 1.65 1.90 0.65 1 1.35 2.15 1.60 2.50 0.60 0.90 0.10 0.75 -0.75 -0.25z"/>
  <path d="M29.05 24.90 c-0.30 -0.85 -0.55 -2 -0.55 -2.50 0 -1.65 1.10 -0.70 1.75 1.45 0.50 1.70 0.50 2.15 0 2.35 -0.40 0.15 -0.90 -0.35 -1.20 -1.30z"/>
  <path d="M73.45 21 c-0.95 -0.80 -1.45 -1.45 -1.20 -1.45 0.60 0 3.45 2.40 3.15 2.70 -0.10 0.15 -1 -0.45 -1.95 -1.25z"/>
  <path d="M28 20.50 c0 -0.25 0.35 -0.50 0.75 -0.50 0.40 0 0.75 0.25 0.75 0.50 0 0.30 -0.35 0.50 -0.75 0.50 -0.40 0 -0.75 -0.20 -0.75 -0.50z"/>
  <path d="M22.50 20.40 c0 -0.65 2.05 -4.90 2.50 -5.15 0.55 -0.35 -1.35 4.25 -2.05 5 -0.25 0.25 -0.45 0.30 -0.45 0.15z"/>
  <path d="M69.75 18.25 c-0.85 -0.65 -1.30 -1.35 -1.10 -1.55 0.20 -0.20 1 0.20 1.70 0.95 1.75 1.70 1.30 2.15 -0.60 0.60z"/>
  <path d="M34.65 16.10 c-1.30 -1.05 -2.85 -2.20 -3.40 -2.50 -0.60 -0.35 -0.70 -0.60 -0.30 -0.60 0.65 0 7.05 4.30 7.05 4.80 0 0.60 -1.15 0 -3.35 -1.70z"/>
  <path d="M38.30 15.75 c0.50 -0.40 1.20 -0.70 1.45 -0.70 0.30 0 0.05 0.30 -0.45 0.70 -0.55 0.40 -1.20 0.75 -1.50 0.75 -0.25 0 -0.05 -0.35 0.50 -0.75z"/>
  <path d="M68.20 13.40 c0.90 -7.25 0.90 -8.50 -0.05 -9.50 -0.85 -1 -0.85 -1 0.10 -0.85 0.55 0.15 1.05 0.65 1.15 1.15 0.35 1.75 -0.50 11.30 -1 11.30 -0.25 0 -0.35 -0.90 -0.20 -2.10z"/>
  <path d="M42.50 14.45 c0 -0.25 0.20 -0.45 0.45 -0.45 0.25 0 0.80 -0.15 1.25 -0.30 0.45 -0.15 0.80 -0.10 0.80 0.20 0 0.25 -0.55 0.60 -1.25 0.70 -0.70 0.15 -1.25 0.05 -1.25 -0.15z"/>
  <path d="M48.75 13.10 c0.30 -0.30 2.10 -0.80 4.10 -1.10 5.05 -0.70 5.65 -1 8.70 -4.65 1.45 -1.80 3.20 -3.50 3.85 -3.80 1.60 -0.75 1.35 0 -0.55 1.40 -0.85 0.70 -2.25 2.10 -3.10 3.20 -2.20 2.90 -3.70 3.85 -7.05 4.35 -1.60 0.25 -3.75 0.60 -4.70 0.80 -1.25 0.25 -1.60 0.20 -1.25 -0.20z"/>
 </g>
 <g fill="#625367">
  <path d="M74.80 94.20 c-0.90 -0.85 -0.90 -3.45 -0.05 -3.45 0.45 0 1.45 3.70 1.05 4.10 -0.10 0.10 -0.55 -0.20 -1 -0.65z"/>
  <path d="M72 91.10 c0 -0.20 0.35 -0.85 0.75 -1.40 0.40 -0.60 0.55 -1.20 0.40 -1.40 -0.15 -0.15 -0.05 -0.30 0.30 -0.30 0.35 0 0.45 -0.20 0.30 -0.50 -0.15 -0.25 0.05 -0.50 0.45 -0.50 0.45 0 0.80 -0.35 0.80 -0.75 0 -0.40 0.25 -0.75 0.50 -0.75 0.95 0 0.50 1.85 -1.05 3.90 -1.40 1.95 -2.45 2.65 -2.45 1.70z"/>
  <path d="M73.05 79.45 c-0.65 -1.10 -1.05 -2.15 -0.90 -2.25 0.15 -0.15 1.05 -0.10 2.05 0.05 1.90 0.40 2.50 1.25 0.85 1.25 -0.85 0 -0.90 0.20 -0.55 1.50 0.60 2.10 -0.10 1.85 -1.45 -0.55z"/>
  <path d="M85.40 74.40 c0.25 -0.35 0.60 -1.20 0.70 -1.85 0.10 -0.90 0.85 -1.60 2.80 -2.60 1.40 -0.70 2.60 -1.10 2.60 -0.85 0 0.25 -1 0.85 -2.25 1.40 -1.25 0.55 -2.25 1.20 -2.25 1.50 0 1.45 -0.80 3 -1.60 3 -0.35 0 -0.35 -0.20 0 -0.60z"/>
  <path d="M90.30 51 c-1.05 -1.70 -1.85 -3.15 -1.70 -3.25 0.25 -0.25 3.15 4 3.70 5.40 0.55 1.55 -0.05 0.85 -2 -2.15z"/>
  <path d="M13.55 44.25 c1.60 -4.30 2.20 -5.75 2.55 -5.75 0.45 0 -1.45 5.05 -2.20 5.75 -0.35 0.35 -0.45 0.35 -0.35 0z"/>
  <path d="M87.85 42.65 c-0.15 -0.50 -1 -2.15 -1.85 -3.65 -0.85 -1.50 -1.15 -2.25 -0.65 -1.70 1.85 2.20 3.90 6.20 3.20 6.20 -0.25 0 -0.55 -0.40 -0.70 -0.85z"/>
  <path d="M83.10 33.55 c-0.30 -0.85 -1.25 -2.55 -2.10 -3.80 -0.85 -1.25 -1.35 -2.25 -1.15 -2.25 0.90 0 4.55 6.75 4 7.35 -0.15 0.10 -0.45 -0.50 -0.75 -1.30z"/>
  <path d="M19.80 31.60 c-0.15 -0.25 -0.05 -1.10 0.20 -1.90 0.35 -1.15 0.40 -1.25 0.45 -0.35 0.05 0.60 0.20 1.40 0.35 1.85 0.30 0.80 -0.55 1.15 -1 0.40z"/>
  <path d="M71.75 19.70 c-2.80 -2.10 -4.10 -3.50 -3.65 -3.95 0.10 -0.10 1.75 1.25 3.65 3 1.90 1.80 3.35 3.25 3.25 3.25 -0.15 0 -1.60 -1.05 -3.25 -2.30z"/>
  <path d="M22.60 20 c0.70 -2.15 1.40 -2.35 0.75 -0.25 -0.30 0.95 -0.70 1.75 -0.90 1.75 -0.20 0 -0.15 -0.70 0.15 -1.50z"/>
  <path d="M68.55 10.15 c-0.05 -0.85 0.20 -1.75 0.45 -1.90 0.60 -0.35 0.60 1.10 0 2.50 -0.35 0.85 -0.45 0.75 -0.45 -0.60z"/>
  <path d="M60.05 9.75 c0 -0.70 2.35 -3.50 2.65 -3.20 0.15 0.15 -0.40 1.05 -1.20 2 -0.80 0.95 -1.45 1.50 -1.45 1.20z"/>
 </g>
 <g fill="#6b596f">
  <path d="M75.75 96 c-0.20 -0.80 -0.55 -1.50 -0.80 -1.50 -0.25 0 -0.45 -0.35 -0.45 -0.75 0 -1.05 0.95 -0.95 1.30 0.15 0.15 0.45 0.55 1.45 0.95 2.25 0.60 1.15 0.60 1.35 0 1.35 -0.35 0 -0.80 -0.65 -1 -1.50z"/>
  <path d="M74 91.80 c0 -0.35 0.35 -0.95 0.75 -1.30 0.65 -0.55 0.75 -0.40 0.75 0.70 0 0.80 -0.25 1.30 -0.75 1.30 -0.40 0 -0.75 -0.30 -0.75 -0.70z"/>
  <path d="M72 91 c0 -0.25 0.40 -0.70 0.90 -0.95 0.45 -0.30 0.65 -0.55 0.45 -0.55 -0.25 0 0.05 -0.65 0.60 -1.40 0.55 -0.80 1.15 -2 1.30 -2.75 0.20 -0.75 0.60 -1.20 0.85 -1.05 0.70 0.45 0.05 2.60 -1.65 5.05 -1.40 2 -2.45 2.75 -2.45 1.65z"/>
  <path d="M73.75 80.90 c-0.70 -1.40 -1.20 -2.90 -1.05 -3.35 0.15 -0.60 0.30 -0.55 0.55 0.35 0.20 0.60 0.60 1.10 0.90 1.10 0.30 0 0.40 0.15 0.20 0.30 -0.15 0.20 0.15 1.20 0.70 2.25 0.55 1.10 0.75 1.95 0.50 1.95 -0.30 0 -1.10 -1.15 -1.80 -2.60z"/>
  <path d="M74.50 78.05 c0 -0.25 1.20 -0.60 2.60 -0.80 1.45 -0.20 3.50 -0.65 4.50 -1.05 2.15 -0.75 2.65 -0.10 0.55 0.70 -1.35 0.50 -6.20 1.60 -7.15 1.60 -0.30 0 -0.50 -0.20 -0.50 -0.45z"/>
  <path d="M86 72.35 c0 -0.60 0.80 -1.25 2.15 -1.85 3.95 -1.75 4.55 -2.85 4.90 -8.90 l0.25 -5.35 0.10 5.35 c0.10 5.05 0.05 5.40 -1.15 6.85 -0.70 0.80 -2.05 1.75 -3 2.05 -0.95 0.30 -2.10 1.05 -2.50 1.65 -0.65 0.95 -0.75 0.95 -0.75 0.20z"/>
  <path d="M91.05 52.10 c-0.85 -1.55 -0.65 -2 0.25 -0.70 0.45 0.65 0.70 1.30 0.55 1.45 -0.15 0.10 -0.50 -0.20 -0.80 -0.75z"/>
  <path d="M88.80 48.50 c-0.45 -0.85 -0.65 -1.50 -0.40 -1.50 0.45 0 1.75 2.50 1.45 2.80 -0.10 0.10 -0.55 -0.50 -1.05 -1.30z"/>
  <path d="M13.15 45.15 c0.95 -3 3.80 -9.75 3.85 -9.05 0 1 -3.45 9.90 -3.85 9.90 -0.15 0 -0.15 -0.40 0 -0.85z"/>
  <path d="M87.90 42.70 c-0.45 -1.10 -1.40 -2.90 -2.15 -4.05 -0.70 -1.20 -1.20 -2.15 -1.05 -2.15 0.50 0 4.40 7 4.20 7.55 -0.10 0.30 -0.55 -0.30 -1 -1.35z"/>
  <path d="M80.45 28.65 c-1.60 -1.95 -2.20 -2.85 -1.60 -2.50 0.65 0.40 2.85 3.35 2.50 3.35 -0.10 0 -0.50 -0.40 -0.90 -0.85z"/>
  <path d="M21.70 22.85 c0.35 -1.55 1.75 -4.85 2 -4.85 0.15 0 -0.20 1.35 -0.80 3 -0.95 2.90 -1.80 4.15 -1.20 1.85z"/>
  <path d="M70.20 18.35 c-2.30 -2.10 -2.35 -2.20 -1.95 -4.10 l0.45 -2 0.30 2.25 c0.20 1.80 0.70 2.65 2.25 4.10 1.10 1.05 1.85 1.90 1.65 1.90 -0.15 0 -1.35 -0.95 -2.70 -2.15z"/>
  <path d="M39.20 15.30 c1.05 -0.85 4.15 -1.60 4.60 -1.15 0.20 0.15 -0.65 0.55 -1.80 0.85 -1.15 0.30 -2.45 0.65 -2.90 0.80 -0.70 0.25 -0.65 0.15 0.10 -0.50z"/>
  <path d="M68.55 10 c0 -0.70 0.20 -1.70 0.45 -2.25 0.40 -0.90 0.45 -0.90 0.45 0.25 0 0.70 -0.20 1.70 -0.45 2.25 -0.40 0.90 -0.45 0.90 -0.45 -0.25z"/>
  <path d="M59.55 10.25 c0 -0.60 2.40 -3.45 2.70 -3.15 0.15 0.10 -0.45 1 -1.25 1.95 -0.80 0.95 -1.45 1.50 -1.45 1.20z"/>
 </g>
 <g fill="#726d58">
  <path d="M65.50 45.70 c0 -2.55 0.75 -2.75 2 -0.55 0.70 1.20 0.65 1.40 -0.25 2.05 -1.55 1.15 -1.75 1 -1.75 -1.50z"/>
  <path d="M58.25 46.30 l-1.45 -1.15 1.55 -0.85 c0.90 -0.45 1.70 -0.80 1.90 -0.80 0.35 0 0.25 2.05 -0.15 3.10 -0.35 0.80 -0.50 0.80 -1.85 -0.30z"/>
  <path d="M83.50 40.90 c0 -0.35 -0.15 -1.15 -0.30 -1.75 -0.45 -1.55 0.50 -1.45 1.20 0.10 0.80 1.70 0.75 2.25 -0.15 2.25 -0.40 0 -0.75 -0.30 -0.75 -0.60z"/>
 </g>
 <g fill="#756379">
  <path d="M83.25 75.60 c1.80 -1 2.55 -1.70 2.65 -2.60 0.10 -0.70 0.40 -1.45 0.70 -1.75 0.40 -0.35 0.45 -0.20 0.20 0.40 -0.15 0.50 -0.30 1.35 -0.30 1.85 0 1 -3.70 3.50 -5.05 3.50 -0.40 0 0.45 -0.65 1.80 -1.40z"/>
  <path d="M89.05 70.35 c0.10 -0.10 1 -0.70 1.95 -1.30 l1.75 -1.15 -1.50 1.30 c-0.80 0.70 -1.70 1.30 -1.95 1.30 -0.25 0 -0.35 -0.05 -0.25 -0.15z"/>
  <path d="M92.85 65.75 c0.35 -2.45 0.65 -2.90 0.65 -0.95 0 0.80 -0.25 1.80 -0.50 2.20 -0.30 0.50 -0.35 0.10 -0.15 -1.25z"/>
  <path d="M90.10 50.45 c-0.85 -1.35 -1.60 -2.60 -1.60 -2.80 0 -0.20 0.80 0.80 1.80 2.25 1 1.50 1.70 2.75 1.60 2.85 -0.10 0.10 -0.90 -0.95 -1.80 -2.30z"/>
  <path d="M13.05 45.95 c-0.05 -0.45 3.75 -10.45 4.15 -10.80 0.20 -0.20 -0.25 1.25 -0.95 3.30 -1.45 3.90 -3.15 8 -3.20 7.50z"/>
  <path d="M81.35 30.10 c-0.80 -1.25 -1.05 -2 -0.60 -1.60 0.85 0.70 2.45 3.50 2.15 3.75 -0.10 0.10 -0.80 -0.90 -1.55 -2.15z"/>
  <path d="M69.05 17.20 c-0.60 -0.75 -1.05 -1.70 -1.05 -2.15 0.05 -0.45 0.35 -0.15 0.80 0.70 0.45 0.85 1.15 1.80 1.60 2.15 0.45 0.30 0.55 0.60 0.25 0.60 -0.35 0 -1.05 -0.60 -1.60 -1.30z"/>
  <path d="M68.65 11.75 c0 -1.35 0.10 -1.90 0.20 -1.10 0.10 0.75 0.10 1.85 0 2.50 -0.10 0.60 -0.20 0 -0.20 -1.40z"/>
  <path d="M57.50 11.25 c0.70 -0.35 2.70 -2.25 4.45 -4.20 1.70 -1.95 3.50 -3.55 3.95 -3.55 0.55 0 0.35 0.35 -0.65 1.05 -0.85 0.60 -2.40 2.20 -3.50 3.55 -1.10 1.40 -2.60 2.80 -3.35 3.20 -1.75 0.90 -2.55 0.90 -0.90 -0.05z"/>
 </g>
 <g fill="#827f61">
  <path d="M59.15 46.80 c-1.20 -1.05 -1.30 -1.30 -0.65 -2.05 0.35 -0.45 1.35 -1.15 2.15 -1.60 l1.50 -0.75 -0.30 1.90 c-0.20 1.10 -0.35 2.35 -0.35 2.85 0 1.15 -0.70 1.05 -2.35 -0.35z"/>
  <path d="M66.65 46.65 c-1 -0.35 -0.80 -2.15 0.25 -2.15 0.70 0 0.75 0.10 0.10 0.50 -0.65 0.45 -0.65 0.55 0 0.95 0.80 0.55 0.55 1.05 -0.35 0.70z"/>
  <path d="M83.85 41.15 c-0.20 -0.15 -0.35 -0.90 -0.35 -1.60 0.05 -1.25 0.05 -1.25 0.75 -0.35 1.15 1.50 0.75 3.15 -0.40 1.95z"/>
 </g>
 <g fill="#7e6982">
  <path d="M74.90 87.75 c-0.20 -0.20 -0.10 -0.90 0.15 -1.60 0.35 -0.95 0.20 -1.95 -0.55 -3.95 -1.30 -3.50 -0.80 -3.50 0.80 0 1.10 2.45 1.15 2.90 0.60 4.30 -0.35 0.85 -0.80 1.45 -1 1.25z"/>
  <path d="M81.50 76.75 c0 -0.15 0.90 -0.70 1.95 -1.25 1.10 -0.55 2.25 -1.40 2.50 -1.85 0.40 -0.70 0.50 -0.75 0.50 -0.15 0 0.40 -0.50 1.15 -1.20 1.65 -1.25 0.90 -3.75 2 -3.75 1.60z"/>
  <path d="M13.55 44.25 c0 -0.25 0.30 -1.05 0.70 -1.75 0.40 -0.70 0.70 -1 0.70 -0.75 0 0.30 -0.30 1.05 -0.70 1.75 -0.40 0.70 -0.70 1.05 -0.70 0.75z"/>
  <path d="M81.25 29.90 c-0.80 -1.20 -1.10 -1.90 -0.70 -1.55 0.75 0.60 2.65 3.65 2.30 3.65 -0.10 0 -0.85 -0.95 -1.60 -2.10z"/>
  <path d="M78.50 26 c-0.60 -0.80 -0.90 -1.50 -0.65 -1.50 0.20 0 0.80 0.70 1.25 1.50 1.10 1.95 0.75 1.95 -0.60 0z"/>
  <path d="M75.45 22.70 c-0.35 -0.45 -1.95 -1.80 -3.55 -3.05 -2.85 -2.15 -4.30 -3.95 -3.65 -4.55 0.15 -0.15 0.40 0.20 0.55 0.80 0.20 0.55 2.10 2.45 4.25 4.10 2.15 1.70 3.95 3.15 3.95 3.30 0 0.50 -0.95 0.15 -1.55 -0.60z"/>
  <path d="M59.75 9.55 c1.05 -1.10 2 -2.05 2.10 -2.05 0.55 0 -1.65 2.55 -2.75 3.30 -1.05 0.65 -0.90 0.35 0.65 -1.25z"/>
  <path d="M69.15 7 c0 -1.25 0.10 -1.75 0.20 -1.10 0.10 0.60 0.10 1.60 0 2.25 -0.10 0.60 -0.20 0.10 -0.20 -1.15z"/>
 </g>
 <g fill="#87718c">
  <path d="M76.30 99.20 c-0.15 -0.45 -0.30 -1.35 -0.30 -2.05 0 -1.05 0.15 -1.15 0.70 -0.70 0.90 0.75 1.35 3.55 0.50 3.55 -0.30 0 -0.75 -0.35 -0.90 -0.80z"/>
  <path d="M75.60 85 c0 -0.95 0.10 -1.35 0.25 -0.85 0.10 0.45 0.10 1.25 0 1.75 -0.15 0.45 -0.25 0.05 -0.25 -0.90z"/>
  <path d="M74.80 82.55 c-0.55 -0.85 -1.35 -3.30 -0.95 -2.80 0.60 0.65 1.70 3.25 1.40 3.25 -0.10 0 -0.30 -0.20 -0.45 -0.45z"/>
  <path d="M85.05 74.55 c0.65 -0.55 1.30 -0.85 1.40 -0.75 0.25 0.25 -1.50 1.65 -2.15 1.70 -0.20 0 0.10 -0.45 0.75 -0.95z"/>
  <path d="M75.75 22.90 l-3 -3.10 2.65 2.15 c2.15 1.80 4.10 4.05 3.50 4.05 -0.10 0 -1.50 -1.40 -3.15 -3.10z"/>
  <path d="M70.50 18.45 l-1.75 -1.50 1.90 1.30 c1.65 1.20 2.15 1.75 1.70 1.75 -0.05 0 -0.90 -0.70 -1.85 -1.55z"/>
  <path d="M59 10.40 c0.40 -0.35 1.75 -1.85 2.95 -3.30 1.20 -1.45 2.65 -2.90 3.25 -3.20 0.55 -0.30 -0.40 1 -2.20 2.90 -1.80 1.90 -3.60 3.65 -4 3.85 -0.65 0.35 -0.65 0.35 0 -0.25z"/>
 </g>
 <g fill="#8e8e6c">
  <path d="M59.75 47 c-0.90 -1 -0.70 -3.85 0.25 -3.25 0.30 0.15 0.50 0.10 0.50 -0.15 0 -0.30 0.30 -0.60 0.70 -0.75 0.55 -0.20 0.70 0.05 0.55 1.05 -0.05 0.75 -0.15 1.95 -0.20 2.75 -0.05 1.60 -0.55 1.70 -1.80 0.35z"/>
  <path d="M83.70 40.80 c-0.15 -0.40 -0.20 -1.15 -0.10 -1.60 0.10 -0.70 0.30 -0.60 0.75 0.45 0.40 0.80 0.45 1.45 0.15 1.60 -0.30 0.20 -0.65 -0.05 -0.80 -0.45z"/>
 </g>
 <g fill="#947d96">
  <path d="M75.40 84.25 c-0.15 -0.55 -0.45 -1.45 -0.65 -2 -0.15 -0.55 0.05 -0.35 0.50 0.40 0.45 0.80 0.75 1.65 0.60 2 -0.10 0.30 -0.30 0.15 -0.45 -0.40z"/>
  <path d="M81 76.90 c0.45 -0.40 4.50 -2.40 4.50 -2.20 0 0.35 -2.25 1.65 -3.50 2.05 -0.70 0.20 -1.15 0.25 -1 0.15z"/>
  <path d="M76.95 23.90 c-0.85 -1.20 -0.90 -1.45 -0.30 -0.95 0.90 0.70 2.10 2.55 1.65 2.55 -0.15 0 -0.75 -0.75 -1.35 -1.60z"/>
  <path d="M62.60 6.40 c0.65 -0.85 1.75 -1.90 2.45 -2.35 0.65 -0.45 0.20 0.25 -1.05 1.60 -2.60 2.70 -3.15 3.05 -1.40 0.75z"/>
 </g>
 <g fill="#a58ea2">
 </g>
 <g fill="#afa989">
  <path d="M83.85 40.85 c-0.55 -1.45 -0.45 -2.15 0.20 -1.50 0.30 0.30 0.45 0.95 0.35 1.45 -0.15 0.90 -0.20 0.90 -0.55 0.05z"/>
 </g>
</svg>