<?xml version="1.0" encoding="utf-8"?>
<!DOCTYPE svg PUBLIC "-//W3C//DTD SVG 1.0//EN" "http://www.w3.org/TR/2001/REC-SVG-20010904/DTD/svg10.dtd">
<svg version="1.0" xmlns="http://www.w3.org/2000/svg" width="100px" height="100px" viewBox="0 0 100 100" preserveAspectRatio="xMidYMid meet">
 <g fill="#020102">
  <path d="M49.85 99.30 c-0.15 -0.40 -0.55 -3.40 -0.90 -6.65 -0.45 -4.55 -0.45 -7 -0.05 -10.45 1 -7.50 0.80 -9.10 -1.45 -14.80 -2.45 -6.15 -3.90 -8.90 -4.75 -8.90 -0.35 0 -1.25 0.25 -2.05 0.55 -0.75 0.35 -3.65 0.75 -6.40 0.95 -2.75 0.25 -7.55 0.80 -10.65 1.30 l-5.65 0.95 -2 -2.15 c-1.10 -1.15 -2.45 -2.10 -2.90 -2.10 -1.05 0 -5.05 -4.10 -6.25 -6.40 -0.45 -0.85 -0.80 -2 -0.80 -2.50 0 -0.55 -0.80 -2.15 -1.75 -3.60 -2 -2.95 -2.20 -4.90 -0.75 -6.15 0.55 -0.45 1 -1.15 1 -1.50 0 -0.70 4.95 -4.85 10.35 -8.75 3.85 -2.75 5.15 -4.60 5.60 -7.75 0.45 -3.35 1.05 -4.40 3.65 -6.50 2.60 -2.10 12.65 -7.40 16.25 -8.55 1.75 -0.60 4.60 -0.90 9.05 -0.95 l6.45 -0.10 4.70 2.35 c4.60 2.30 4.80 2.40 7.20 6.25 1.40 2.15 4.45 5.95 6.80 8.45 4.05 4.25 4.45 4.85 5.70 8.75 0.70 2.30 2.15 5.45 3.20 6.95 1.05 1.50 2.85 4.50 4.05 6.65 2.30 4.25 4.50 6.15 9.50 8.15 l2.75 1.15 0.15 2.60 0.15 2.55 -3.25 -0.20 c-2.60 -0.15 -3.55 -0.45 -4.55 -1.40 -1.25 -1.15 -1.25 -1.15 -2 -0.20 -0.40 0.50 -0.75 1.10 -0.75 1.35 0 0.20 -0.80 0.35 -1.75 0.35 -1.70 0 -1.75 -0.05 -1.75 -2.05 0 -1.30 0.35 -2.50 1 -3.30 1.45 -1.85 1.25 -2.90 -1.25 -7.15 -2.10 -3.50 -2.20 -3.65 -2.65 -2.50 -1.30 3.45 -2.20 5.25 -4.60 9.20 -1.40 2.35 -2.90 4.30 -3.30 4.30 -0.40 0 -0.70 0.40 -0.70 0.90 0 2.25 -4.60 4.60 -8.95 4.60 -2.40 0 -3.35 -0.35 -7.05 -2.40 -3.70 -2.10 -4.55 -2.85 -6.50 -5.75 l-2.20 -3.30 -0.65 1.45 c-0.50 1.25 -0.90 1.50 -2.40 1.50 l-1.75 0 0 -3.70 c0 -3.60 0.10 -3.90 3.70 -11.10 4.80 -9.60 5.55 -12.10 5.45 -18.30 l-0.10 -4.90 1.75 0 c1.60 0 1.85 0.20 2.80 2.40 0.60 1.30 1.15 3.40 1.30 4.65 0.25 2.95 -1.05 9 -3.25 14.65 -0.95 2.45 -1.85 5.50 -2 6.85 -0.55 4.55 2.30 8.90 7.80 12.05 2.60 1.50 2.80 1.55 5 0.95 1.25 -0.35 2.65 -0.95 3.10 -1.35 0.40 -0.40 1.05 -0.70 1.35 -0.70 0.35 0 0.60 -0.35 0.60 -0.75 0 -0.40 1.20 -2.95 2.70 -5.65 3.90 -6.95 5.10 -10.70 4.40 -13.35 -1.55 -5.90 -2.75 -7.95 -6.85 -12.25 -3.85 -4.05 -7.75 -9.55 -7.75 -11.05 0 -0.80 -8.90 -5.30 -11.25 -5.75 -0.85 -0.15 -3.90 -0.05 -6.80 0.20 -7.65 0.70 -11.20 2.45 -17.30 8.50 -4.40 4.30 -4.65 4.70 -4.65 6.65 0 1.60 -0.40 2.65 -1.75 4.45 -2.05 2.75 -4.70 5.30 -7.35 6.90 -1.60 1 -1.90 1.45 -1.90 2.90 0 1.55 -0.10 1.70 -1.55 1.70 -1.95 0 -5.45 1 -5.45 1.60 0 0.75 4.40 0.65 5.20 -0.15 0.30 -0.25 1.35 -0.45 2.35 -0.45 2.20 0 2.45 0.45 2.45 4.75 0 2.85 -0.15 3.30 -1.35 4.25 l-1.35 1.05 0.95 1.60 c0.50 0.90 1.50 2.25 2.20 3 1.20 1.30 1.50 1.40 3.70 1.10 1.30 -0.15 4.20 -0.95 6.40 -1.75 6.15 -2.30 12.45 -1.90 12.45 0.80 0 0.70 1.35 0.90 5.85 0.70 1.90 -0.05 2.25 0.10 3.10 1.55 0.55 0.90 1.85 3.90 2.85 6.70 1 2.75 2.70 7.20 3.75 9.90 1.10 2.65 1.95 5.65 1.95 6.60 0 1.65 -0.10 1.75 -1.80 1.75 -1.45 0 -1.85 -0.25 -2.10 -1.10 -0.25 -0.90 -0.40 -0.55 -0.70 1.35 -1.05 7.10 -1.05 8 0.10 11.95 1.15 3.75 1.15 3.80 2.80 3.80 1.50 0 1.70 0.15 1.70 1.25 0 1.20 -0.10 1.25 -3.70 1.25 -2.70 0 -3.75 -0.20 -3.95 -0.70z"/>
  <path d="M79 93.60 c0 -6.05 0.05 -6.50 1.15 -7.50 0.70 -0.65 1.80 -1.10 2.75 -1.10 1.90 0 1.95 0.50 0.85 5.75 -0.40 1.95 -0.75 4.45 -0.75 5.60 0 3.10 -0.35 3.65 -2.30 3.65 l-1.70 0 0 -6.40z"/>
  <path d="M91 98.85 c0 -0.65 0.75 -2.65 1.70 -4.40 0.95 -1.75 2.30 -4.65 3.05 -6.45 1.30 -3.25 2.35 -4.50 3.60 -4.50 0.45 0 0.65 1 0.65 3.65 0 3.15 -0.25 4.15 -2.05 8.25 l-2.10 4.60 -2.40 0 c-2.25 0 -2.45 -0.10 -2.45 -1.15z"/>
  <path d="M86 77.30 c0 -2.70 0.40 -3.30 2.30 -3.30 1.60 0 1.70 0.10 1.70 1.70 0 2.70 -0.40 3.30 -2.30 3.30 -1.60 0 -1.70 -0.10 -1.70 -1.70z"/>
  <path d="M37.85 28.35 c-1 -0.80 -1.50 -1.70 -1.70 -3.25 -0.25 -1.90 -0.10 -2.35 1.10 -3.65 1.95 -2 4.40 -1.95 9.10 0.15 3.40 1.55 3.65 1.75 3.65 3.20 0 1.95 -0.60 2.45 -4.25 3.70 -3.85 1.30 -6.15 1.30 -7.90 -0.15z"/>
 </g>
 <g fill="#3d180b">
  <path d="M79.20 98.15 c0.20 -1.05 0.55 -3.25 0.75 -4.90 l0.40 -3 0.10 4.25 c0.05 2.95 0.20 4 0.55 3.50 0.25 -0.40 0.50 -1.75 0.50 -3 0 -1.25 0.30 -3.65 0.70 -5.40 l0.65 -3.10 -1.20 1.10 -1.25 1.15 0.40 -1.50 c0.50 -1.95 4.70 -10.80 5.55 -11.65 0.35 -0.35 0.65 -1.10 0.65 -1.65 0 -0.75 0.35 -0.95 1.75 -0.95 l1.75 0 0 2.50 c0 1.85 -0.35 3.05 -1.25 4.40 -2 3 -4.75 10.35 -4.50 11.95 0.10 0.75 0.35 2.90 0.50 4.80 l0.30 3.35 -3.35 0 -3.30 0 0.30 -1.85z"/>
  <path d="M91.15 97.90 c0.15 -1.20 0.55 -2.20 0.80 -2.30 0.30 -0.10 0.55 -0.50 0.55 -0.90 0 -0.40 0.35 -0.70 0.75 -0.70 0.50 0 0.75 -0.50 0.75 -1.45 0 -0.80 0.35 -1.80 0.75 -2.25 0.40 -0.40 0.75 -1.05 0.75 -1.45 0 -0.40 0.50 -1.85 1.05 -3.30 0.90 -2.05 1.30 -2.55 2.25 -2.55 1.50 0 1.50 0.20 -0.20 3.80 -0.80 1.60 -2.55 5.25 -3.90 8.05 -2.65 5.50 -4.05 6.70 -3.55 3.05z"/>
  <path d="M93.50 99.80 c0 -0.10 0.55 -1.20 1.25 -2.35 1 -1.75 1.25 -1.95 1.25 -1.05 0 0.60 -0.20 1.10 -0.45 1.10 -0.25 0 -0.60 0.55 -0.75 1.25 -0.20 0.70 -0.55 1.25 -0.80 1.25 -0.30 0 -0.50 -0.10 -0.50 -0.20z"/>
  <path d="M96.50 94 c0 -0.40 2.30 -5.55 2.85 -6.45 0.10 -0.10 0.25 -0.10 0.40 0.05 0.40 0.35 -0.80 3.40 -1.30 3.40 -0.25 0 -0.45 0.45 -0.45 0.95 0 0.55 -0.15 1.30 -0.30 1.75 -0.35 0.90 -1.20 1.10 -1.20 0.30z"/>
  <path d="M52.60 77.55 c-0.35 -1.05 -0.60 -2.55 -0.60 -3.30 0 -1.40 0 -1.40 1 -0.50 0.90 0.85 1 0.85 0.70 0.10 -0.20 -0.60 -0.05 -0.85 0.70 -0.85 0.70 0 1.10 0.55 1.60 2.20 0.30 1.15 0.50 2.70 0.40 3.35 -0.20 1.15 -0.25 1.10 -1 -0.55 l-0.85 -1.75 0.30 1.65 c0.25 1.35 0.10 1.60 -0.70 1.60 -0.70 0 -1.15 -0.55 -1.55 -1.95z"/>
  <path d="M85.50 64 l0 -2.50 1.75 0 1.75 0 0 2.50 0 2.50 -1.75 0 -1.75 0 0 -2.50z"/>
  <path d="M64.75 62.05 c-2.60 -0.35 -7.35 -2.75 -9 -4.55 -0.50 -0.55 -1.45 -1 -2.10 -1 -0.70 0 -1.15 -0.30 -1.15 -0.75 0 -0.40 -0.20 -0.75 -0.50 -0.75 -0.25 0 -0.50 -1.05 -0.50 -2.30 l0 -2.30 2.15 3.15 c1.80 2.65 2.75 3.50 6.35 5.55 2.35 1.30 4.85 2.40 5.60 2.40 1.85 0 5.45 -1.65 6.65 -3.05 l1 -1.20 -1 0.80 c-1.15 0.95 -5.45 2.45 -6.90 2.45 -1.65 0 -7.05 -3.30 -9.15 -5.60 -1.25 -1.35 -2.30 -3.20 -2.90 -5.05 -0.80 -2.55 -0.85 -3.30 -0.30 -6 0.30 -1.70 1.35 -5 2.25 -7.35 0.90 -2.35 2 -6 2.45 -8.15 0.80 -3.60 0.80 -4.05 0.05 -6.30 -1.55 -4.70 -2 -4.55 -2 0.80 -0.05 6.30 -0.85 8.95 -5.55 18.35 -3.05 6.10 -3.70 7.80 -3.65 9.75 0 2.25 0 2.25 0.80 1.20 1.05 -1.55 1.65 -1.45 1.65 0.25 0 2.10 -1.65 5.25 -2.35 4.55 -0.45 -0.45 -0.90 -0.40 -1.85 0.25 -1.65 1.05 -2.80 1 -2.80 -0.05 -0.05 -0.85 -0.05 -0.85 -0.55 0 -0.90 1.55 -1.45 0.90 -1.45 -1.90 0 -2.75 0 -2.75 1.55 -2.75 0.95 0 1.85 0.35 2.25 0.90 0.60 0.75 0.65 0.35 0.70 -2.65 0 -3.20 0.20 -3.95 2.70 -9 2.55 -5.15 2.75 -5.80 3 -10.05 l0.30 -4.60 -3.55 1.25 c-4.55 1.55 -8.60 1.50 -8.85 -0.20 -0.10 -0.75 -0.55 -1.15 -1.50 -1.25 -1.20 -0.15 -1.35 -0.40 -1.50 -2.35 -0.15 -1.80 0.05 -2.40 1.20 -3.60 1.15 -1.20 1.80 -1.45 3.80 -1.45 2.20 0 2.40 0.10 2.40 1.20 0 0.95 -0.20 1.15 -1.05 0.95 -1.35 -0.40 -3.95 2.05 -3.60 3.40 0.15 0.55 0.90 1.45 1.70 2 l1.45 1.05 3.20 -1.10 c3.90 -1.30 5 -2.30 3.10 -2.80 -1.80 -0.45 -1.70 -1.70 0.15 -1.70 2.25 0 3.05 0.50 3.05 1.90 0 1.05 0.15 0.95 1.20 -0.95 0.95 -1.80 1.10 -2.75 0.90 -5.10 l-0.20 -2.85 2.25 0 c2.70 0 3.75 1.15 5.05 5.45 1.05 3.65 1.05 11.60 0 14.70 -0.55 1.70 -0.75 3.70 -0.60 7.05 0.10 4 0.35 4.95 1.30 6.30 0.95 1.30 1.15 2.05 1 4.10 -0.15 2.45 -0.10 2.60 1.70 3.80 1.80 1.15 2.05 1.20 4.15 0.60 2.75 -0.80 4.65 -2.95 7.65 -8.75 2.80 -5.40 5.45 -12.70 4.80 -13.15 -0.75 -0.50 -1.70 -3.45 -1.70 -5.15 0 -2.90 1.30 -1.45 2.75 3 0.80 2.50 1.65 4.45 1.95 4.40 1.90 -0.35 -0.45 7.45 -4.50 14.80 -3.10 5.60 -4.70 7.60 -6.50 8.05 -0.65 0.20 -1.20 0.65 -1.20 1.05 0 0.80 -1.20 0.85 -5.75 0.30z m12.45 -10.65 c3.10 -5.25 4.80 -9.30 4.80 -11.30 -0.05 -0.90 -0.45 -0.10 -1.25 2.30 -1.10 3.25 -3 7.15 -5.85 12 -0.55 0.85 -0.85 1.60 -0.75 1.60 0.15 0 1.50 -2.10 3.05 -4.60z"/>
  <path d="M23.50 60 c0 -0.80 0.35 -1 1.75 -1 2 0 2.45 1.20 0.65 1.70 -1.90 0.50 -2.40 0.35 -2.40 -0.70z"/>
  <path d="M86 58.45 c0 -2 2.10 -6.45 3.05 -6.45 0.80 0 0.50 1.85 -0.55 3.15 -0.55 0.70 -1 1.55 -1 1.95 0.05 0.35 0.60 -0.30 1.30 -1.45 0.70 -1.20 1.55 -2.15 1.90 -2.15 0.35 0 1.35 0.80 2.30 1.75 0.90 0.95 2.30 1.85 3.10 2 2.05 0.45 1.80 1.75 -0.35 1.75 -0.95 0 -1.75 -0.20 -1.75 -0.50 0 -0.25 -0.45 -0.50 -0.95 -0.50 -0.55 0 -1.15 -0.20 -1.30 -0.50 -0.55 -0.95 -1.20 -0.50 -1.80 1.25 -0.55 1.50 -0.85 1.75 -2.30 1.75 -1.60 0 -1.65 -0.05 -1.65 -2.05z"/>
  <path d="M7.50 52.15 c-0.40 -0.80 -0.80 -1.55 -0.90 -1.75 -0.10 -0.25 0.40 -0.40 1.10 -0.40 1.15 0 1.30 0.20 1.30 1.75 0 2.10 -0.60 2.25 -1.50 0.40z"/>
  <path d="M9.05 35.85 c0.10 -0.05 0.60 -0.45 1.10 -0.80 0.70 -0.60 0.85 -0.55 0.85 0.15 0 0.50 -0.40 0.80 -1.10 0.80 -0.60 0 -0.95 -0.05 -0.85 -0.15z"/>
  <path d="M21.45 25.85 c1.75 -2.30 2 -2.90 1.75 -4.45 -0.30 -1.70 -0.15 -1.95 4.60 -6.70 5.10 -5.05 9.30 -7.60 13.85 -8.45 1.65 -0.30 1.85 -0.25 1.85 0.65 0 0.85 -0.40 1.10 -2.25 1.40 -1.25 0.15 -2.25 0.50 -2.25 0.70 0 0.20 -0.90 0.75 -2 1.25 -2.85 1.30 -3.75 2.45 -3.55 4.70 0.10 1.80 0 1.95 -3.05 3.95 -2.40 1.50 -3.55 2.70 -4.60 4.55 -0.90 1.65 -1.70 2.55 -2.30 2.55 -0.50 0 -1.35 0.55 -1.90 1.25 -1.95 2.50 -2.10 1.20 -0.15 -1.40z"/>
  <path d="M75.85 27.65 c-0.20 -0.15 -0.35 -1.10 -0.35 -2.10 l0.05 -1.80 1.45 1.65 c0.85 0.90 1.50 1.85 1.50 2.10 0 0.55 -2.15 0.70 -2.65 0.15z"/>
  <path d="M19 26.75 c0 -0.25 0.35 -0.80 0.80 -1.30 0.45 -0.50 1 -1.65 1.20 -2.55 0.35 -1.45 0.40 -1.50 0.45 -0.35 0.05 0.70 -0.50 2 -1.20 2.95 -0.70 0.95 -1.25 1.50 -1.25 1.25z"/>
  <path d="M38.50 25.55 c0 -0.85 0.60 -2.05 1.05 -2.05 0.25 0 0.40 0.55 0.35 1.25 -0.10 1.15 -1.40 1.85 -1.40 0.80z"/>
  <path d="M68.50 19.25 c0 -0.40 -0.20 -0.75 -0.50 -0.75 -0.25 0 -0.50 -0.25 -0.50 -0.55 0 -0.30 -0.35 -0.85 -0.75 -1.25 -0.40 -0.45 -0.75 -1.30 -0.75 -2 0 -0.70 -0.30 -1.20 -0.70 -1.20 -0.35 0 -1.05 -0.55 -1.60 -1.20 -0.50 -0.70 -1.40 -1.35 -2.05 -1.55 -0.80 -0.20 -1.15 -0.65 -1.15 -1.50 0 -1.60 0.30 -1.55 3.05 0.15 1.60 1.05 2.95 2.65 5.05 6 l2.80 4.60 -1.45 0 c-0.95 0 -1.45 -0.25 -1.45 -0.75z"/>
  <path d="M56.50 8 c0 -0.30 -2.10 -0.50 -5.25 -0.50 -4.15 0 -5.25 -0.15 -5.25 -0.70 0 -2.30 13.10 -1.30 13.90 1.10 0.10 0.40 -0.40 0.60 -1.60 0.60 -1 0 -1.80 -0.20 -1.80 -0.50z"/>
 </g>
 <g fill="#4d1f0e">
  <path d="M83.85 99.15 c-0.15 -0.50 -0.40 -2.95 -0.60 -5.45 -0.30 -4.40 -0.25 -4.70 1.45 -9 1 -2.40 2.35 -5.25 3.05 -6.30 0.70 -1.05 1.25 -2.40 1.20 -3 0 -0.70 -1.20 1.30 -2.90 4.85 -3.15 6.60 -5.45 9.60 -3.55 4.70 0.55 -1.50 1.80 -4.25 2.75 -6.20 0.95 -1.90 1.75 -4.10 1.75 -4.85 0 -1.25 0.20 -1.40 1.70 -1.40 3.05 0 3.15 3.05 0.30 8.75 l-2 4.10 0.95 3.20 c1.05 3.45 2.05 8.45 2.05 10.30 0 1.05 -0.20 1.15 -2.95 1.15 -2.40 0 -3.05 -0.15 -3.20 -0.85z"/>
  <path d="M62.10 61 c-1.45 -0.60 -5 -3 -4.35 -3 0.30 0 1.85 0.80 3.50 1.75 2.90 1.65 3.25 2.20 0.85 1.25z"/>
  <path d="M86 59.55 c0 -1.75 0.95 -4.55 1.55 -4.55 0.25 0 0.45 -0.35 0.45 -0.80 0 -0.40 0.35 -1.10 0.75 -1.50 0.65 -0.70 0.75 -0.65 0.75 0.20 0 0.55 -0.45 1.55 -1 2.25 -0.55 0.70 -1 1.90 -1 2.70 0 1.30 0.10 1.20 1.05 -0.80 1.65 -3.70 1.80 -3.80 4 -1.80 1.05 0.95 2.50 1.85 3.20 2.05 1.75 0.45 1.60 1.70 -0.20 1.70 -2.35 0 -3.05 -0.50 -3.05 -2.05 0 -2.50 -1.40 -1.40 -2.45 1.95 -0.65 1.90 -0.85 2.10 -2.40 2.10 -1.50 0 -1.65 -0.15 -1.65 -1.45z"/>
  <path d="M72.35 58.15 c1.20 -1.30 3.35 -4.30 4.80 -6.70 1.45 -2.45 2.65 -4.20 2.75 -3.95 0.25 0.70 -4.30 8.70 -6.05 10.65 -0.85 0.95 -2.05 1.90 -2.65 2.05 -0.75 0.25 -0.45 -0.30 1.15 -2.05z"/>
  <path d="M63 59.10 c-3.40 -1.75 -4 -2.30 -4 -3.70 0 -0.75 0.25 -1.50 0.50 -1.65 0.80 -0.50 0.60 -1.70 -0.60 -3.30 -1.65 -2.20 -2.15 -11.45 -0.85 -15.70 0.50 -1.65 0.95 -4.30 0.95 -5.85 0 -2.60 0.10 -2.90 1.05 -2.90 1 0 1 0.15 0.70 10.90 -0.20 5.95 -0.15 11.10 0.10 11.35 0.65 0.80 3.80 3.05 5.55 3.95 2.10 1.10 4.20 0.70 6.15 -1.20 0.80 -0.75 1.45 -1.50 1.45 -1.75 0 -0.20 0.40 -0.95 0.90 -1.65 1.45 -2.05 4.60 -10.70 4.60 -12.50 0 -0.90 0.20 -1.60 0.50 -1.60 0.70 0 1.50 1.75 1.50 3.25 0 3.10 -5.60 15.55 -8.75 19.50 -1.25 1.50 -2.35 2.25 -4.35 2.90 -3.35 1.05 -3.30 1.05 -5.40 -0.05z"/>
  <path d="M40.85 56.85 c-0.20 -0.50 -0.35 -1.60 -0.35 -2.40 0 -1.20 0.20 -1.45 1.20 -1.45 0.65 0 1.90 -0.15 2.75 -0.30 1.45 -0.30 1.55 -0.25 1.60 1.10 l0 1.45 0.60 -1.25 c0.55 -1.20 0.55 -1.20 0.75 0.70 0.20 2.25 -0.25 2.90 -1.10 1.70 -0.60 -0.80 -0.70 -0.80 -1.45 0.15 -1.05 1.20 -2.35 1.25 -2.35 0 0 -0.55 -0.15 -1.40 -0.35 -1.90 -0.30 -0.65 -0.45 -0.40 -0.65 1.10 -0.20 1.50 -0.35 1.75 -0.65 1.10z"/>
  <path d="M44.50 47.15 c0 -1.60 0.35 -4 0.75 -5.35 0.45 -1.50 0.75 -4.50 0.75 -7.65 l0 -5.15 -1.75 0 c-0.95 0 -1.75 -0.25 -1.75 -0.55 0 -0.60 3.05 -1.95 4.40 -1.95 2.20 0 5.05 -5.50 5.10 -9.85 0 -1.60 0.10 -1.65 2 -1.65 1.80 0 2 0.15 2 1.20 0 0.95 -0.20 1.15 -1 0.95 -0.90 -0.25 -0.95 -0.05 -0.65 2.30 0.25 2.20 0.10 3 -1 5.20 -1.10 2.15 -1.40 3.50 -1.60 7.85 -0.25 5.15 -0.30 5.35 -3 10.75 -1.50 3.05 -2.75 5.80 -2.75 6.15 0 0.30 -0.35 0.60 -0.75 0.60 -0.60 0 -0.75 -0.65 -0.75 -2.85z"/>
  <path d="M82.05 39.90 c-0.05 -1 0.20 -2 0.45 -2.15 0.60 -0.35 0.60 1.60 0 3 -0.35 0.80 -0.45 0.65 -0.45 -0.85z"/>
  <path d="M40.50 33.25 c0 -1.70 0.05 -1.75 2 -1.75 1.95 0 2 0.05 2 1.75 0 1.70 -0.05 1.75 -2 1.75 -1.95 0 -2 -0.05 -2 -1.75z"/>
  <path d="M34.15 26 c-0.15 -0.50 -0.70 -1.10 -1.20 -1.25 -1.60 -0.50 -0.85 -5.75 0.80 -5.75 0.35 0 0.90 -0.35 1.25 -0.75 1.45 -1.75 7 -0.05 7 2.10 0 1 -0.20 1.10 -1.30 0.85 -0.95 -0.25 -1.60 0 -2.75 1.10 -1.70 1.65 -1.85 2.45 -0.45 3.20 1.60 0.85 1.15 1.50 -1.05 1.50 -1.60 0 -2.10 -0.20 -2.30 -1z"/>
  <path d="M30.45 16.40 c1.75 -1.15 1.40 -1.90 -0.40 -0.90 -1.45 0.75 -1.30 0 0.40 -2.40 1.90 -2.60 2.55 -2.95 2.90 -1.65 0.15 0.60 0.50 1.05 0.75 1.05 0.25 0 0.40 0.80 0.30 1.80 -0.15 1.60 -0.35 1.90 -2.15 2.50 -2.95 1 -3.75 0.85 -1.80 -0.40z"/>
  <path d="M37.10 8.40 c0.15 -0.35 0.95 -0.90 1.80 -1.25 1.55 -0.65 1.60 -0.60 1.60 0.60 0 1.10 -0.20 1.25 -1.80 1.25 -1.15 0 -1.70 -0.20 -1.60 -0.60z"/>
 </g>
 <g fill="#582510">
  <path d="M88.10 98.65 c0.05 -2 -0.60 -5.55 -1.45 -7.90 -1.80 -4.95 -1.75 -5.80 0.80 -10.90 1.30 -2.60 1.95 -4.55 1.75 -5.05 -0.25 -0.60 -1.05 0.75 -2.80 4.55 -1.35 2.95 -2.55 5.50 -2.75 5.65 -0.60 0.55 0.45 -2.75 1.95 -5.95 1 -2.15 1.50 -3.95 1.45 -5.15 -0.10 -1.85 -0.10 -1.90 1.65 -1.90 1 0 1.85 0.15 1.85 0.40 0.30 1.40 0.40 20.15 0.15 23.50 -0.25 3.90 -0.35 4.10 -1.45 4.10 -0.95 0 -1.20 -0.25 -1.15 -1.35z"/>
  <path d="M96 58.50 c0 -0.85 0.35 -1 2 -1 1.65 0 2 0.15 2 1 0 0.85 -0.35 1 -2 1 -1.65 0 -2 -0.15 -2 -1z"/>
  <path d="M64.75 53.65 c-3.40 -2 -5.25 -3.45 -5.60 -4.40 -0.50 -1.55 -0.55 -12.75 0 -15.10 0.25 -1.25 0.75 -2.15 1.15 -2.15 0.55 0 0.70 1.50 0.70 7.65 l0 7.60 1.55 -3 c1.30 -2.55 1.50 -3.55 1.45 -6.55 -0.05 -4.90 0.50 -6.20 2.75 -6.20 2 0 2.40 0.45 4.80 6 1.90 4.40 3.35 6.60 4.10 6.35 0.25 -0.05 1.15 -1.70 1.90 -3.65 1.15 -2.90 1.60 -3.50 2.65 -3.60 0.70 -0.10 1.30 0 1.30 0.15 0 0.80 -4.25 11.10 -5.10 12.35 -0.50 0.70 -0.90 1.45 -0.90 1.65 0 0.20 -0.75 1.05 -1.60 1.95 -1.45 1.35 -2.05 1.60 -4.65 1.70 -2.10 0.05 -3.45 -0.15 -4.50 -0.75z"/>
  <path d="M43.20 48.65 c-0.45 -1.60 -1.55 -4.35 -2.45 -6.15 -1.10 -2.20 -1.75 -4.40 -2 -6.60 l-0.35 -3.35 1.40 -0.35 c1.50 -0.35 2.60 -1.20 6.90 -5.05 1.80 -1.60 2.30 -2.35 1.85 -2.60 -0.50 -0.30 -0.45 -0.50 0.15 -0.70 0.55 -0.25 0.80 -1 0.80 -2.65 0 -1.30 0.25 -3.20 0.60 -4.25 0.55 -1.90 0.65 -1.95 2.75 -1.95 1.80 0 2.15 0.15 2.15 1 0 0.65 -0.25 0.90 -0.75 0.70 -0.55 -0.25 -0.75 0.10 -0.75 1.35 -0.05 4.15 -2.30 8.75 -5.50 11.30 -0.60 0.45 -0.60 0.70 -0.15 1.20 0.40 0.40 0.45 0.95 0.05 1.90 -0.25 0.70 -0.35 2.55 -0.20 4.05 0.20 2 0.05 3.65 -0.70 6 -0.55 1.80 -1 4.55 -1 6.15 0 2.50 -0.10 2.85 -1 2.85 -0.75 0 -1.15 -0.65 -1.80 -2.85z"/>
  <path d="M32.10 27.40 c-1.20 -1.20 -0.70 -4.60 1.30 -8.10 1.75 -3.10 1.95 -3.30 3.65 -3.30 2.15 0 4.45 2.10 4.45 4.10 l0 1.35 -2.20 -1.25 c-1.90 -1.05 -2.25 -1.10 -2.80 -0.45 -0.35 0.40 -0.90 0.75 -1.20 0.75 -0.30 0 -0.55 0.70 -0.60 1.50 -0.05 0.85 0.10 1.50 0.30 1.50 0.20 0 0.50 0.45 0.65 1 0.15 0.55 0.65 1 1.10 1 0.55 0 0.75 0.35 0.65 1.15 -0.15 0.90 -0.50 1.10 -2.40 1.25 -1.30 0.10 -2.50 -0.10 -2.90 -0.50z"/>
  <path d="M32.50 14.75 c0.35 -0.40 0.40 -0.75 0.10 -0.75 -1.05 0 -1.05 -2.20 0 -3.35 0.95 -1 1.10 -1.05 2.20 -0.30 0.85 0.55 1.20 1.25 1.20 2.35 0 2 -0.75 2.80 -2.65 2.80 -1.25 0 -1.40 -0.10 -0.85 -0.75z"/>
 </g>
 <g fill="#5c2d1c">
  <path d="M50.15 98 c0 -1.25 0.10 -1.75 0.20 -1.10 0.10 0.60 0.10 1.60 0 2.25 -0.10 0.60 -0.20 0.10 -0.20 -1.15z"/>
  <path d="M91 98.50 c0 -1.15 -0.20 -1.50 -1 -1.50 -1.05 0 -1.25 -0.80 -0.70 -2.85 0.50 -1.85 1.70 -1.40 1.70 0.60 0 0.95 0.25 1.75 0.50 1.75 0.30 0 0.50 -0.25 0.50 -0.60 0 -0.35 1.30 -3.50 2.85 -7 2.45 -5.55 2.95 -6.40 4 -6.40 1.15 0 1.55 0.90 0.70 1.75 -0.30 0.30 -1.45 2.75 -2.55 5.50 -1.15 2.75 -2.50 5.55 -3 6.25 -0.50 0.75 -1.10 1.90 -1.25 2.65 -0.50 1.85 -1.75 1.75 -1.75 -0.15z"/>
  <path d="M96.90 92.75 c2.40 -5.35 3.90 -7.30 2.05 -2.65 -1.65 4.25 -3.50 7.90 -3.95 7.90 -0.25 0 0.60 -2.35 1.90 -5.25z"/>
  <path d="M51.25 94.50 c-0.20 -0.85 -0.25 -1.70 -0.10 -1.80 0.10 -0.15 0.35 0.50 0.55 1.35 0.40 2.10 0 2.50 -0.45 0.45z"/>
  <path d="M50.60 88.25 c0 -2.20 0.15 -4.55 0.35 -5.25 0.25 -0.70 0.30 0.90 0.20 3.50 -0.30 6.05 -0.55 6.95 -0.55 1.75z"/>
  <path d="M49.10 89 c0 -0.95 0.10 -1.35 0.25 -0.85 0.10 0.45 0.10 1.25 0 1.75 -0.15 0.45 -0.25 0.05 -0.25 -0.90z"/>
  <path d="M81.50 85.80 c0 -1.25 0.20 -1.80 0.75 -1.80 0.45 0 0.75 -0.45 0.75 -1.25 0 -1.60 1 -3.75 1.80 -3.75 1.15 0 1.35 -3.15 0.90 -13.60 -0.25 -5.35 -0.15 -7.40 0.25 -7.40 0.30 0 0.55 -0.35 0.55 -0.75 0 -0.40 0.25 -0.75 0.50 -0.75 0.30 0 0.50 0.75 0.55 1.65 l0 1.60 0.85 -2 c1.40 -3.25 1.90 -3.95 2.80 -3.60 0.85 0.35 1.10 1.85 0.30 1.85 -0.25 0 -0.50 0.35 -0.50 0.75 0 0.40 -0.20 0.75 -0.45 0.75 -0.85 0 -1.55 6.65 -1.05 10 0.70 4.85 0.60 9.05 -0.30 10.50 -0.50 0.85 -0.65 0.90 -0.40 0.25 0.70 -2.10 0.80 -3.20 0.25 -4.10 -0.45 -0.80 -0.50 -0.80 -0.55 -0.05 0 1.25 -5.20 12.05 -6.15 12.85 -0.75 0.60 -0.85 0.50 -0.85 -1.15z"/>
  <path d="M54.50 81 c0 -0.55 -0.35 -1 -0.75 -1 -0.50 0 -0.75 -0.55 -0.75 -1.75 0 -2.20 1.30 -2.40 1.75 -0.25 0.20 0.80 0.55 1.65 0.85 1.80 0.45 0.30 0.30 -0.60 -0.45 -2.65 -0.15 -0.35 0.10 -0.65 0.55 -0.65 0.45 0 0.80 0.40 0.80 1 0 0.55 0.35 1 0.75 1 0.50 0 0.75 0.55 0.75 1.75 0 1.65 -0.10 1.75 -1.75 1.75 -1.40 0 -1.75 -0.20 -1.75 -1z"/>
  <path d="M58.50 59.75 c0 -1.50 0.15 -1.50 2.05 -0.40 1.90 1.15 1.85 1.65 -0.30 1.65 -1.55 0 -1.75 -0.15 -1.75 -1.25z"/>
  <path d="M38 58.25 c0 -1.05 0.25 -1.25 1.50 -1.25 1.55 0 2.05 -0.80 0.75 -1.30 -0.50 -0.20 -0.75 -0.95 -0.75 -2.15 0 -1.60 0.20 -1.90 1.55 -2.40 l1.60 -0.60 -0.35 -4.10 c-0.50 -5.30 0.40 -5.20 2.35 0.35 1.55 4.40 1.55 8.10 0.05 9.75 -1.20 1.30 -1.55 1.20 -1.95 -0.55 -0.45 -2.15 -1.25 -2.35 -1.25 -0.35 0 1.70 -0.90 2.90 -2.60 3.50 -0.70 0.25 -0.90 0.05 -0.90 -0.90z"/>
  <path d="M95.50 58.50 c0 -1.05 0.50 -1.20 2.40 -0.70 1.80 0.50 1.35 1.70 -0.65 1.70 -1.40 0 -1.75 -0.20 -1.75 -1z"/>
  <path d="M73 57.50 c1.55 -2.20 2 -2.25 2 -0.30 0 1.65 -0.10 1.80 -1.55 1.80 l-1.50 0 1.05 -1.50z"/>
  <path d="M46.90 57.15 c-0.50 -0.55 -0.90 -1.15 -0.90 -1.35 0 -0.80 1.65 -3.80 2.05 -3.80 0.50 0 0.50 2.45 0 4.70 -0.30 1.40 -0.30 1.40 -1.15 0.45z"/>
  <path d="M15.05 54.70 c-1.35 -1.75 -1.30 -2.20 0.20 -2.20 1.10 0 1.25 0.20 1.25 1.75 0 0.95 -0.10 1.75 -0.20 1.75 -0.15 0 -0.70 -0.60 -1.25 -1.30z"/>
  <path d="M87.50 55.15 c0 -0.65 0.25 -1.15 0.50 -1.15 0.30 0 0.50 -0.35 0.50 -0.75 0 -0.40 0.25 -0.75 0.50 -0.75 0.80 0 0.55 1.30 -0.50 2.55 l-0.95 1.20 -0.05 -1.10z"/>
  <path d="M95.15 53.25 c-1.40 -0.75 -2.80 -1.60 -3.15 -2 -0.40 -0.50 5.55 2.35 6.45 3.10 0.75 0.60 -1.15 -0.05 -3.30 -1.10z"/>
  <path d="M60.10 48.90 c-0.95 -0.95 -0.75 -2.40 0.40 -2.40 0.80 0 1 0.35 1 1.50 0 1.60 -0.45 1.85 -1.40 0.90z"/>
  <path d="M80.65 44.90 c0.95 -2.30 1.85 -2.40 1.85 -0.20 0 1.60 -0.15 1.80 -1.25 1.80 -1.20 0 -1.25 -0.05 -0.60 -1.60z"/>
  <path d="M4 44.40 c-0.55 -0.90 -1 -2 -0.95 -2.40 0 -0.65 0.05 -0.65 0.30 0 0.15 0.40 0.70 1.50 1.25 2.40 0.55 0.85 0.85 1.60 0.70 1.60 -0.20 0 -0.75 -0.75 -1.30 -1.60z"/>
  <path d="M15.50 42.90 c0 -0.35 -0.20 -0.95 -0.45 -1.35 -0.40 -0.60 -0.60 -0.60 -1.25 -0.10 -0.70 0.60 -0.80 0.50 -0.80 -0.90 0 -1.45 0.15 -1.55 1.70 -1.55 1.85 0 2.30 0.60 2.30 3.05 0 0.95 -0.25 1.45 -0.75 1.45 -0.40 0 -0.75 -0.30 -0.75 -0.60z"/>
  <path d="M59.45 40.40 c-0.05 -1.75 -0.10 -5.75 -0.15 -8.90 -0.10 -6.70 -1.20 -11.25 -3.30 -13.55 -1.50 -1.55 -4 -2.05 -4 -0.70 0 0.40 -0.20 0.75 -0.50 0.75 -0.25 0 -0.50 -0.80 -0.50 -1.75 0 -1.70 0.05 -1.75 1.95 -1.75 2.60 0 3.55 0.40 3.55 1.50 0 0.60 0.45 1 1.15 1.10 2.30 0.30 3.80 7.95 3.80 19.30 0 6.70 -0.05 7.10 -0.95 7.10 -0.90 0 -1 -0.40 -1.05 -3.10z"/>
  <path d="M79.50 37 c0 -1.35 -0.20 -2.50 -0.50 -2.50 -0.25 0 -0.50 -0.70 -0.50 -1.55 0 -0.85 -0.35 -1.85 -0.75 -2.30 -0.45 -0.40 -0.95 -1.40 -1.10 -2.20 -0.15 -0.80 -0.55 -1.45 -0.85 -1.45 -0.75 0 -6.80 -6.10 -6.80 -6.90 0 -0.30 -0.20 -0.60 -0.50 -0.60 -0.25 0 -0.50 -0.35 -0.50 -0.75 0 -0.40 -0.20 -0.75 -0.50 -0.75 -0.25 0 -0.50 -0.80 -0.50 -1.75 0 -1.40 -0.20 -1.75 -1 -1.75 -0.65 0 -1 -0.35 -1 -1 0 -0.55 -0.35 -1 -0.75 -1 -0.50 0 -0.75 -0.50 -0.75 -1.55 0 -1.45 0.10 -1.50 0.90 -0.90 1.25 1 1.90 1.90 3.65 4.95 0.85 1.45 3.30 4.50 5.40 6.75 4.80 5 5.20 5.60 6.75 10.50 1.55 4.85 1.55 5 0.30 6.25 l-1 1 0 -2.50z"/>
  <path d="M82 38.80 c0 -0.40 0.25 -0.90 0.50 -1.05 0.30 -0.15 0.50 0.15 0.50 0.70 0 0.60 -0.20 1.05 -0.50 1.05 -0.25 0 -0.50 -0.30 -0.50 -0.70z"/>
  <path d="M64 35.05 c0 -0.80 0.15 -2.15 0.30 -3 0.30 -1.35 0.55 -1.55 1.90 -1.55 2.05 0 2.80 0.80 2.80 2.85 0 1.95 -0.25 2.05 -1.50 0.55 l-0.90 -1.15 -0.55 1.40 c-0.30 0.80 -0.55 1.65 -0.55 1.90 0 0.25 -0.35 0.45 -0.75 0.45 -0.50 0 -0.75 -0.50 -0.75 -1.45z"/>
  <path d="M39 33.75 c0 -1.50 0.25 -1.85 1.90 -2.70 l1.85 -1 -1.55 -0.05 c-2.85 0 -4.85 -0.65 -5.05 -1.55 -0.25 -0.90 -1.55 -1.45 -3.75 -1.45 -1.30 0 -1.40 -0.15 -1.40 -2 0 -1.80 1.05 -4.75 1.95 -5.50 0.15 -0.15 0.70 -1 1.15 -1.90 l0.90 -1.65 -1.30 1 c-0.75 0.60 -1.85 1.05 -2.50 1.05 -0.75 0 -1.20 0.30 -1.20 0.75 0 0.40 -0.45 0.75 -1 0.75 -0.55 0 -1 0.35 -1 0.75 0 0.35 -0.30 0.90 -0.65 1.10 -0.35 0.20 -0.95 1.15 -1.30 2.05 -0.50 1.15 -1 1.60 -1.85 1.60 -1 0 -1.20 0.25 -1.20 1.50 0 1.35 -0.15 1.50 -1.55 1.50 l-1.50 0 1.05 -1.50 c0.55 -0.80 1.25 -1.60 1.50 -1.75 0.25 -0.15 1.05 -1.40 1.80 -2.75 0.95 -1.80 2.20 -3.05 4.15 -4.35 1.55 -1 3.55 -2.50 4.45 -3.35 l1.65 -1.50 -1.10 -0.85 c-1.55 -1.15 -0.95 -1.80 3.50 -3.85 3 -1.40 4.60 -1.80 7.70 -2 3.60 -0.20 3.85 -0.15 3.85 0.75 0 0.90 -0.45 1.05 -4.25 1.25 -2.85 0.20 -4.45 0.55 -5 1.05 -0.40 0.45 -1.15 0.90 -1.65 1.05 -0.70 0.25 -0.85 0.70 -0.70 2.05 0.10 0.95 -0.05 2.10 -0.40 2.50 -0.50 0.65 -0.40 0.75 0.70 0.75 0.80 0 1.30 0.25 1.30 0.75 0 0.40 0.35 0.75 0.80 0.75 0.45 0 1.70 0.80 2.75 1.75 1.10 0.95 2.20 1.75 2.45 1.75 0.30 0 0.50 0.35 0.50 0.75 0 0.40 0.45 0.75 1.05 0.75 1.70 0 5.45 1.10 5.45 1.60 0 0.25 -0.55 0.95 -1.25 1.60 -0.70 0.65 -1.25 1.50 -1.25 1.95 0 1.05 -4.80 5.30 -7.05 6.20 -1.25 0.50 -1.80 0.95 -1.60 1.45 0.15 0.40 -0.05 0.70 -0.55 0.70 -0.60 0 -0.80 -0.50 -0.80 -1.75z m6.70 -6.90 c3.35 -1.25 4.05 -2.15 1.95 -2.65 -2.60 -0.65 -6.40 -2.80 -8.50 -4.85 -1.20 -1.10 -2.20 -1.95 -2.30 -1.80 -1.20 1.60 -3.45 5.45 -3.70 6.35 -0.40 1.70 1 3.05 2.35 2.20 1.45 -0.90 2.20 -0.75 3.50 0.65 1.45 1.50 2.80 1.55 6.70 0.10z"/>
  <path d="M38.60 25.20 c0.20 -1.05 1.10 -1.15 1.30 -0.05 0.10 0.50 -0.15 0.85 -0.65 0.85 -0.50 0 -0.75 -0.30 -0.65 -0.80z"/>
  <path d="M58.75 9.40 c-0.55 -0.30 -1.15 -0.75 -1.30 -1 -0.15 -0.25 -1.75 -0.55 -3.60 -0.75 -2.15 -0.20 -3.35 -0.50 -3.35 -0.90 0 -0.85 1.60 -1.20 4.10 -0.90 2.40 0.30 8.40 2.95 8.40 3.70 0 0.65 -3.05 0.55 -4.25 -0.15z"/>
 </g>
 <g fill="#6a3219">
  <path d="M89.25 94.40 c0.20 -3.10 0.10 -8 -0.15 -10.85 -0.40 -3.60 -0.35 -5.50 0 -6.30 0.30 -0.65 0.35 -1.80 0.15 -2.60 l-0.35 -1.40 -0.60 1.50 c-0.80 1.90 -1.05 1.20 -1.85 -4.60 -0.75 -5.70 -0.15 -14.65 1.05 -14.65 0.20 0 0.15 1.30 -0.10 2.90 -0.55 3.30 -0.20 11.80 0.55 13.60 0.40 0.95 0.40 0.55 0.15 -1.75 -0.60 -5.05 -0.35 -10.45 0.60 -12.90 1.35 -3.55 1.95 -3.80 4.20 -1.75 1.10 1 2.75 1.90 3.75 2.10 2.40 0.45 2.55 1.80 0.25 1.80 -3 0 -3.90 -0.50 -3.90 -2.05 0 -1.20 -0.20 -1.45 -1.25 -1.45 -1 0 -1.25 0.25 -1.30 1.40 0 0.75 -0.15 3.95 -0.25 7.10 -0.15 4.30 0 6.35 0.60 8.10 0.60 1.90 0.75 4.35 0.60 12.85 l-0.15 10.55 1.20 0 c0.90 0 1.10 0.20 0.80 0.90 -0.20 0.45 -0.45 1.20 -0.60 1.70 -0.15 0.45 -0.75 0.95 -1.30 1.10 -2.40 0.65 -2.40 0.65 -2.10 -5.30z"/>
  <path d="M40.50 52.90 c0 -0.90 0.35 -2.05 0.70 -2.55 1.45 -1.90 -0.95 -8.20 -4.80 -12.60 -1.45 -1.65 -1.90 -2.60 -1.90 -3.95 0 -1.75 0.05 -1.80 1.90 -1.80 1 -0.05 2.65 -0.45 3.60 -1 l1.75 -0.95 -2 -0.05 c-2.05 -0.05 -7.25 -1.15 -8.20 -1.75 -0.90 -0.50 -0.70 -4.25 0.20 -4.25 0.40 0 0.75 0.30 0.75 0.65 0 1.10 1.80 1.80 3.75 1.50 1.55 -0.25 1.80 -0.15 1.65 0.60 -0.30 1.65 2.75 2 6.70 0.70 1.90 -0.60 3.55 -0.95 3.70 -0.80 0.85 0.80 -2.80 4.25 -6.80 6.45 -1.20 0.70 -1.45 1.05 -1.10 1.70 0.25 0.45 0.35 1.25 0.25 1.70 -0.15 0.50 0.50 2.30 1.35 4 1.85 3.65 2.80 8.65 2.05 10.65 -0.30 0.80 -1.05 1.45 -1.80 1.65 -0.85 0.20 -1.20 0.55 -1.05 1 0.15 0.40 0.05 0.70 -0.20 0.70 -0.30 0 -0.50 -0.75 -0.50 -1.60z"/>
  <path d="M60.15 48.90 c-0.20 -0.35 -0.40 -5.45 -0.40 -11.25 0 -9.45 0.10 -10.65 0.80 -10.65 1 0 1.45 2.75 1.45 9.20 0.05 6.20 0.80 4.50 1.20 -2.65 0.20 -3.15 0.45 -5.90 0.60 -6.10 0.15 -0.25 0.95 -0.45 1.80 -0.45 1.20 0 2.20 0.60 4.20 2.50 1.50 1.40 3.45 2.85 4.35 3.25 2.05 0.85 2.60 1.50 3.25 3.75 0.35 1.15 0.55 1.40 0.55 0.70 0.05 -1.10 1.50 -2.70 2.40 -2.70 0.85 0 1.15 2.15 0.50 3.25 -0.35 0.55 -1.15 2.35 -1.85 4 -0.65 1.65 -1.60 3.75 -2.15 4.65 -0.95 1.60 -2.35 2.20 -2.35 0.95 0 -0.35 -0.65 -1.55 -1.40 -2.65 -0.80 -1.05 -2.40 -4.15 -3.60 -6.80 -1.15 -2.70 -2.45 -5.15 -2.75 -5.40 -0.90 -0.75 -1.45 2.70 -1 6.40 0.30 2.65 0.15 3.10 -1.60 6.60 -1.90 3.65 -3.15 4.70 -4 3.40z"/>
  <path d="M78 31.25 c0 -2 1.20 -2.45 1.70 -0.60 0.50 1.85 0.35 2.35 -0.70 2.35 -0.80 0 -1 -0.35 -1 -1.75z"/>
  <path d="M48.90 24.45 c-0.50 -0.25 -0.90 -0.90 -0.90 -1.35 0 -0.45 -1.15 -1.60 -2.50 -2.55 -2.30 -1.50 -2.50 -1.85 -2.50 -3.60 0 -1.80 0.10 -1.95 1.45 -1.95 0.75 0 2 -0.45 2.70 -1 0.70 -0.55 2 -1 2.90 -1 1.80 0 5.95 1.40 5.95 2 0 0.20 0.45 0.50 1 0.65 0.75 0.20 1 0.70 1 2.10 l0 1.85 -2 -1.80 c-1.10 -1 -2.35 -1.80 -2.75 -1.80 -1.10 0 -1.95 2.35 -1.85 5.20 0.05 2.25 -0.50 3.85 -1.35 3.80 -0.15 0 -0.70 -0.25 -1.15 -0.55z"/>
  <path d="M39.05 19 c-2.05 -1.75 -2.30 -1.85 -2.90 -1.10 -0.55 0.75 -0.60 0.60 -0.65 -1 0 -1.80 0.05 -1.90 1.65 -1.90 2.30 0 4.50 2.30 4.25 4.40 l-0.15 1.50 -2.20 -1.90z"/>
  <path d="M34.55 13.50 c0.65 -0.55 1 -0.95 0.70 -0.90 -0.25 0.05 -1 -0.20 -1.65 -0.55 -0.95 -0.50 -1.05 -0.75 -0.55 -1.35 1.10 -1.35 2.30 -1.75 3.65 -1.20 1.05 0.40 1.30 0.80 1.30 2.20 0 1.95 -1 2.80 -3.25 2.80 l-1.35 0 1.15 -1z"/>
  <path d="M37.50 8.45 c0 -0.55 3 -1.95 4.25 -1.95 1.20 0 0.90 1.85 -0.35 2.20 -1.80 0.45 -3.90 0.35 -3.90 -0.25z"/>
 </g>
 <g fill="#793f24">
  <path d="M89.25 99.15 c0.25 -0.50 0.45 -5.85 0.55 -11.90 0.10 -8.50 0 -11.50 -0.55 -13.25 -0.70 -2.20 -0.90 -5.10 -0.80 -12.40 0.05 -3.55 0.90 -6.65 2 -7.30 0.25 -0.20 1.45 0.50 2.55 1.50 1.60 1.45 2.55 1.90 4.50 2.10 2.45 0.20 2.50 0.25 2.50 1.90 0 1.50 -0.15 1.70 -1.35 1.70 -0.80 0 -1.95 -0.45 -2.65 -1 -0.70 -0.55 -1.55 -1 -1.85 -1 -0.35 0 -0.65 -0.15 -0.65 -0.35 0 -0.65 -2.45 -1.60 -2.75 -1.10 -0.15 0.25 -0.05 2.75 0.25 5.55 0.30 2.85 0.60 10.90 0.65 17.95 0.05 7.10 0.25 12.75 0.40 12.65 0.15 -0.10 1.05 -1.85 1.95 -3.95 0.90 -2.05 1.95 -3.75 2.30 -3.75 0.45 0 0.70 -0.60 0.70 -1.75 0 -1.60 0.15 -1.75 1.45 -1.75 l1.45 0 -1.20 2.40 c-3 5.95 -6.20 13.15 -6.20 13.85 0 0.55 -0.50 0.75 -1.80 0.75 -1.55 0 -1.75 -0.15 -1.45 -0.85z"/>
  <path d="M93.60 99.75 c1 -2.45 5.10 -10.70 5.25 -10.55 0.25 0.25 -3.60 8.50 -4.60 9.90 -0.45 0.65 -0.75 0.95 -0.65 0.65z"/>
  <path d="M87.20 75.10 c-0.35 -0.20 -0.55 -2.45 -0.55 -5.85 0 -5.15 0 -5.30 0.40 -2.25 0.20 1.80 0.65 4.20 1 5.40 0.60 2.15 0.20 3.40 -0.85 2.70z"/>
  <path d="M95.55 70.75 c-1.45 -2 -2.05 -3.25 -2.05 -4.50 0 -1.70 0.05 -1.75 1.95 -1.75 1.20 0 2.40 0.40 3.25 1.05 1.20 0.95 1.30 1.35 1.30 4.50 0 3.30 -0.05 3.45 -1.20 3.45 -0.80 0 -1.75 -0.80 -3.25 -2.75z"/>
  <path d="M87.10 58.10 c-0.10 -1.85 1.10 -5.10 1.85 -5.10 0.80 0 0.65 0.70 -0.40 2.10 -0.55 0.65 -1.05 2 -1.20 2.95 l-0.20 1.70 -0.05 -1.65z"/>
  <path d="M40 52.85 c0 -0.90 0.25 -1.90 0.55 -2.20 0.35 -0.35 0.25 -1.50 -0.25 -3.85 -0.75 -3.15 -2.75 -7.75 -2.80 -6.40 0 0.35 -0.70 0.60 -1.75 0.60 l-1.75 0 0 -2.60 c-0.05 -1.45 -0.35 -3.20 -0.75 -3.90 -0.40 -0.70 -0.70 -1.95 -0.75 -2.85 0 -1.35 0.20 -1.60 1.40 -1.80 1.10 -0.15 1.05 -0.20 -0.45 -0.30 -2 -0.05 -2.45 -0.65 -2.45 -3.10 0 -0.95 0.25 -1.45 0.75 -1.45 0.40 0 0.75 0.35 0.75 0.75 0 1 1.15 1.50 5.10 2.25 2.70 0.55 3.90 0.55 5.95 0.10 1.45 -0.35 2.70 -0.50 2.85 -0.35 1.35 1.30 -5.25 5.75 -8.60 5.75 -1 0 -1.80 0.15 -1.80 0.30 0 0.15 0.90 1.30 2 2.60 2.80 3.15 4.90 7.70 5.30 11.45 0.30 2.85 0.25 3.15 -1 4.40 -0.75 0.70 -1.20 1.55 -1.05 1.80 0.20 0.25 -0.05 0.45 -0.45 0.45 -0.55 0 -0.80 -0.50 -0.80 -1.65z"/>
  <path d="M60.40 46.40 c-0.10 -0.35 -0.15 -3.55 -0.10 -7.15 0.15 -10.10 -1.60 -18.95 -4.25 -21.65 -0.80 -0.80 -2.50 -1.80 -3.75 -2.30 -2.20 -0.85 -2.30 -0.85 -3.70 0.20 -0.80 0.60 -2.05 1.15 -2.80 1.15 -0.70 0.05 -1.30 0.25 -1.30 0.40 0 0.15 1.05 1.05 2.40 1.95 2.85 2.10 3.55 2.90 3.60 4.40 0 1.50 -1.75 1.45 -2.75 -0.05 -0.40 -0.65 -1.75 -1.90 -3 -2.80 l-2.25 -1.60 0 1.25 c0 0.70 -0.20 1.30 -0.40 1.30 -0.25 0 -1.40 -1.15 -2.60 -2.55 -2 -2.40 -2.20 -2.50 -2.85 -1.65 -0.60 0.80 -0.65 0.70 -0.65 -0.95 0 -1.75 0.10 -1.85 1.50 -1.85 1.05 0 1.95 0.45 2.75 1.40 l1.20 1.35 0.05 -1.85 c0 -1.70 0.15 -1.90 1.25 -1.90 1 0 1.25 -0.25 1.25 -1.25 0 -1.20 0.15 -1.25 2.70 -1.25 2.15 0 3.45 0.40 6.35 1.85 1.95 1.05 3.70 2.30 3.85 2.75 0.10 0.50 0.55 0.90 0.95 0.90 1.10 0 2.50 3.75 3.45 9.15 0.95 5.25 1.70 6.35 1.70 2.35 l0 -2.50 1.95 0 c1.60 0 2.45 0.40 4.30 2 1.70 1.45 2.75 2 3.95 2 1.85 0 3.50 1.45 4.35 3.90 0.60 1.70 1.45 1.70 1.45 0.05 0 -1.25 0.80 -1.25 1.50 0 0.70 1.35 0.65 2.80 -0.20 3.50 -0.40 0.35 -0.85 1.35 -1 2.30 -0.35 1.70 -2 4.20 -2.50 3.75 -0.10 -0.15 -0.45 -1.70 -0.75 -3.45 -0.60 -3.60 -1.05 -4.35 -3.40 -5.30 -0.90 -0.40 -2.85 -1.85 -4.35 -3.25 -1.50 -1.40 -2.85 -2.35 -3 -2.10 -0.15 0.25 -0.45 3 -0.60 6.15 -0.30 4.70 -0.60 6.20 -1.80 8.80 -1.40 3.05 -2.10 3.80 -2.50 2.55z"/>
  <path d="M76 27.50 c0 -0.65 -0.35 -1 -0.95 -1 -0.50 0 -1.20 -0.35 -1.55 -0.75 -0.35 -0.40 -0.90 -0.75 -1.20 -0.80 -0.30 0 -1.80 -0.85 -3.30 -1.85 l-2.75 -1.90 0 -2.85 c0 -1.55 -0.15 -2.85 -0.35 -2.85 -0.25 0 -0.40 -0.80 -0.40 -1.75 0 -0.95 0.20 -1.75 0.40 -1.75 0.20 0 1.25 1.50 2.35 3.40 1.05 1.85 3.80 5.30 6.10 7.70 2.25 2.35 4.15 4.55 4.15 4.85 0 0.30 -0.55 0.55 -1.25 0.55 -0.90 0 -1.25 -0.25 -1.25 -1z"/>
  <path d="M36.50 26.50 c0 -0.25 0.35 -0.50 0.75 -0.50 0.40 0 0.75 0.25 0.75 0.50 0 0.30 -0.35 0.50 -0.75 0.50 -0.40 0 -0.75 -0.20 -0.75 -0.50z"/>
  <path d="M33 20.25 c0 -1.55 0.15 -1.75 1.25 -1.75 1.50 0 1.50 0.15 0.40 2.05 -1.15 1.90 -1.65 1.85 -1.65 -0.30z"/>
  <path d="M36 12.25 c0.50 -0.60 0.35 -0.85 -0.80 -1.30 l-1.45 -0.55 1.15 -0.90 c1.95 -1.60 6.15 -2.85 10.75 -3.20 4.05 -0.30 4.35 -0.25 4.35 0.65 0 0.70 -0.50 1 -2.30 1.25 -1.30 0.15 -3.10 0.30 -4 0.30 -1.50 0 -1.70 0.15 -1.70 1.25 0 0.95 -0.50 1.45 -2 2.25 -2.40 1.25 -4.95 1.40 -4 0.25z"/>
  <path d="M55.40 8.15 c-1.10 -0.30 -1.20 -2.15 -0.15 -2.15 1.25 0 4.25 1.40 4.25 1.95 0 0.55 -2.45 0.65 -4.10 0.20z"/>
 </g>
 <g fill="#864e31">
  <path d="M89.65 98.15 c0.20 -1.05 0.45 -4.30 0.65 -7.25 0.30 -4.80 0.45 -5.40 1.25 -5.40 0.80 0 0.95 0.40 0.95 2.15 l0.05 2.10 1.25 -1.50 c0.70 -0.80 1.80 -2.55 2.50 -3.85 0.95 -1.90 1.50 -2.40 2.45 -2.40 1.40 0 1.65 1.05 0.50 2 -0.40 0.35 -0.75 0.80 -0.75 1.05 0 0.25 -1.45 3.45 -3.25 7.15 -1.80 3.70 -3.25 6.95 -3.25 7.25 0 0.30 -0.60 0.55 -1.30 0.55 -1.25 0 -1.30 -0.10 -1.05 -1.85z"/>
  <path d="M90.25 79.40 c-0.20 -2.55 -0.45 -6.95 -0.50 -9.75 -0.15 -4.70 -0.10 -5.15 0.75 -5.15 1.05 0 1.25 1.60 1.75 12.90 0.25 6.20 0.20 6.60 -0.70 6.60 -0.80 0 -0.95 -0.55 -1.30 -4.60z"/>
  <path d="M96.80 72.90 c-0.45 -0.60 -0.80 -1.40 -0.80 -1.75 0 -0.35 -0.20 -0.65 -0.50 -0.65 -0.25 0 -0.50 -0.85 -0.50 -1.85 l0.05 -1.90 1.25 1.50 c0.65 0.85 1.80 2.15 2.45 2.95 0.70 0.80 1.25 1.75 1.25 2.10 0 1.15 -2.35 0.80 -3.20 -0.40z"/>
  <path d="M85.50 68.75 c0 -2 1.20 -2.45 1.70 -0.60 0.50 1.85 0.35 2.35 -0.70 2.35 -0.80 0 -1 -0.35 -1 -1.75z"/>
  <path d="M98.25 68 l-1.45 -1.50 1.60 0 c1.45 0 1.60 0.15 1.60 1.50 0 0.85 -0.05 1.50 -0.15 1.50 -0.10 0 -0.80 -0.65 -1.60 -1.50z"/>
  <path d="M89.25 62.40 c-0.60 -2.65 -0.35 -5.40 0.65 -6.95 0.90 -1.50 0.90 -1.50 1.85 -0.45 0.80 0.90 0.80 1 0.10 1 -0.90 0 -1.05 0.85 -0.85 5.40 0.05 2.05 -0.05 2.60 -0.65 2.60 -0.45 0 -0.90 -0.65 -1.10 -1.60z"/>
  <path d="M85.50 59.25 c0 -1.40 0.20 -1.75 1 -1.75 1.05 0 1.20 0.50 0.70 2.40 -0.50 1.80 -1.70 1.35 -1.70 -0.65z"/>
  <path d="M39.65 52.15 c0.25 -2.20 -0.15 -4.15 -1.30 -6.50 -0.40 -0.90 -0.95 -1.15 -2.50 -1.15 l-2 0 0.25 -4.25 c0.15 -2.35 0.10 -4.25 -0.15 -4.25 -0.25 0 -0.45 -0.45 -0.45 -1 0 -0.60 -0.35 -1.55 -0.75 -2.20 -1 -1.50 -1.60 -6.30 -0.85 -6.30 0.30 0 0.75 0.30 0.95 0.70 0.20 0.35 1.30 0.75 2.45 0.90 1.10 0.15 3.10 0.75 4.45 1.35 2.35 1.05 2.40 1.10 1.50 2.05 -1.05 1.15 -5.60 1.40 -6.70 0.40 -0.45 -0.45 -0.40 -0.10 0.15 0.95 0.45 0.90 0.85 2.80 0.85 4.25 0.05 1.45 0.15 2.20 0.30 1.65 0.40 -1.55 0.95 -1.90 2.10 -1.30 2.95 1.60 5.90 13.30 3.80 15.05 -0.45 0.35 -0.70 0.95 -0.55 1.35 0.20 0.40 -0.10 0.65 -0.80 0.65 -0.95 0 -1 -0.20 -0.75 -2.35z"/>
  <path d="M76.80 38.60 c-0.15 -0.85 -0.45 -2.30 -0.60 -3.10 -0.45 -2.45 -2.50 -4.50 -4.45 -4.50 -1.25 0 -2.30 -0.50 -4 -2 -1.25 -1.10 -2.50 -2 -2.80 -2 -0.25 0 -0.45 0.80 -0.45 1.80 0 2.70 -1.05 8.85 -1.60 9.60 -0.80 0.95 -1.85 -0.80 -1.90 -3.15 0 -3 -1.95 -12.70 -2.95 -15 -0.50 -1.10 -1.45 -2.50 -2.10 -3.10 -1.75 -1.60 -7.80 -4.65 -9.25 -4.65 -1.05 0 -1.20 0.15 -0.90 1.25 0.30 1.15 0.15 1.25 -1.25 1.25 -2.25 0 -1.95 1.10 0.85 3.30 3 2.40 4.60 4.20 4.60 5.35 0 1.45 -1.30 0.95 -3.85 -1.40 -2.10 -2 -2.40 -2.15 -2.55 -1.25 -0.30 1.85 -0.90 1.45 -4.35 -2.90 l-1.70 -2.15 -1.15 1.75 c-1.45 2.25 -1.90 2.25 -1.90 0.05 0 -1.55 -0.15 -1.75 -1.35 -1.75 -1.35 0 -1.35 -0.10 1.10 -2.25 1.40 -1.25 3.35 -2.70 4.35 -3.25 2.10 -1.10 2.45 -2 0.90 -2 -0.55 0 -1 -0.20 -1 -0.45 0 -0.60 3.90 -1.60 5.75 -1.45 0.85 0.05 2.80 -0.10 4.40 -0.30 2.65 -0.40 2.85 -0.35 2.85 0.60 0 0.80 -0.45 1.05 -2.35 1.35 -2.10 0.30 -6.65 1.90 -6.65 2.35 0 0.10 1.75 0.15 3.90 0.15 3.50 0.05 4.20 0.25 7.50 1.95 4.80 2.50 6.95 4.55 7.30 6.95 0.75 4.75 0.95 5.55 1.15 5 0.40 -1.15 3.80 -0.75 6.20 0.75 1.20 0.80 2.80 1.60 3.50 1.75 1.55 0.40 5.35 4.05 6.05 5.85 0.30 0.70 0.60 1 0.75 0.65 0.40 -1.10 1.50 -0.70 1.85 0.55 0.20 0.90 0 1.60 -0.80 2.45 -0.65 0.70 -1.50 1.75 -1.95 2.40 l-0.80 1.20 -0.35 -1.65z m-38.70 -25 c1.55 -0.15 1.85 0 2 1 0.15 0.75 0.30 0.40 0.45 -0.95 0.20 -1.80 0.10 -2.15 -0.65 -2.15 -0.50 0 -0.90 0.35 -0.90 0.75 0 0.50 -0.55 0.75 -1.75 0.75 -1.65 0 -1.75 0.10 -1.70 1.65 0.05 1.45 0.10 1.50 0.40 0.35 0.25 -1 0.70 -1.30 2.15 -1.40z"/>
  <path d="M77.50 29.75 c0 -1.35 -0.20 -1.75 -0.85 -1.75 -0.50 0 -1.45 -0.30 -2.15 -0.70 -4.70 -2.55 -7.95 -4.55 -9.15 -5.70 -1.30 -1.20 -1.40 -1.60 -1.20 -3.80 0.15 -1.50 0.55 -2.70 1.05 -3.05 0.45 -0.35 0.80 -0.85 0.80 -1.20 0 -1.15 0.85 -0.50 1.90 1.50 1.30 2.40 1.30 2.50 0.50 2.30 -0.40 -0.05 -0.65 0.40 -0.65 1.15 0 0.95 0.65 1.65 2.75 3.05 1.50 1 2.85 1.80 3 1.80 0.70 -0.20 3.75 2.65 4.80 4.45 1.50 2.50 1.55 3.70 0.20 3.70 -0.80 0 -1 -0.35 -1 -1.75z"/>
  <path d="M62 10.25 c0 -1.55 0.55 -1.60 2.35 0 l1.40 1.20 -1.85 0.05 c-1.70 0 -1.90 -0.15 -1.90 -1.25z"/>
 </g>
 <g fill="#9b4c22">
  <path d="M90.30 73.90 c-0.15 -0.90 -0.20 -2.45 -0.20 -3.40 0.05 -0.95 -0.20 -4 -0.50 -6.70 -0.45 -3.70 -0.50 -5.05 -0.05 -5.35 0.35 -0.20 0.40 -0.45 0.05 -0.65 -0.65 -0.40 -0.20 -2.10 0.70 -2.85 0.50 -0.45 1.15 -0.15 2.80 1.25 1.15 1 2.25 1.80 2.50 1.80 0.25 0 1.30 0.60 2.40 1.30 1.70 1.10 2 1.60 2 3 0 1 -0.25 1.70 -0.60 1.70 -0.45 0 -0.45 0.15 0 0.60 0.65 0.65 0.85 3.90 0.25 3.90 -0.20 0 -1.20 -0.60 -2.25 -1.30 -1.05 -0.75 -2.05 -1.25 -2.15 -1.10 -0.15 0.15 0.60 1.60 1.70 3.20 l2 2.95 -1.25 0.15 c-0.85 0.10 -1.60 -0.30 -2.50 -1.35 -0.70 -0.85 -1.60 -1.55 -1.95 -1.55 -0.65 0 -1.25 2.15 -1.25 4.55 0 2.05 -1.40 1.90 -1.70 -0.15z"/>
  <path d="M88 54.95 c0 -0.45 0.35 -1.10 0.75 -1.45 0.95 -0.80 0.95 0 0 1.30 -0.60 0.80 -0.70 0.80 -0.75 0.15z"/>
  <path d="M33 32.50 c-0.30 -0.60 -0.50 -2.05 -0.40 -3.30 l0.15 -2.30 1 3.30 c0.80 2.45 0.90 3.30 0.40 3.30 -0.35 0 -0.85 -0.45 -1.15 -1z"/>
  <path d="M34.50 31.05 c-0.80 -1.55 -0.60 -2.55 0.50 -2.55 0.55 0 1 0.25 1 0.50 0 0.30 0.30 0.50 0.70 0.50 0.70 0 2.10 1.35 1.75 1.75 -0.15 0.10 -0.95 0.30 -1.80 0.50 -1.25 0.20 -1.70 0.05 -2.15 -0.70z"/>
 </g>
 <g fill="#8c5739">
  <path d="M91.55 91.30 c-0.40 -0.45 -0.70 -3.25 -0.85 -7.25 -0.20 -6.30 -0.20 -6.55 0.80 -6.55 0.90 0 1 0.35 1 2.90 0 4.55 1 5.05 3.95 1.90 1.50 -1.55 3.55 -1.75 3.55 -0.35 0 0.55 -0.25 1.15 -0.50 1.30 -0.30 0.20 -1.05 1.40 -1.75 2.75 -1.25 2.50 -4.25 6 -5.10 6 -0.30 0 -0.80 -0.30 -1.10 -0.70z"/>
  <path d="M86.50 73.75 c0 -2.10 1.20 -2.45 1.70 -0.50 0.40 1.50 0.05 2.25 -1 2.25 -0.45 0 -0.70 -0.55 -0.70 -1.75z"/>
  <path d="M97 72.20 l0 -1.80 1.45 1.20 c1.95 1.50 1.95 2.40 0.05 2.40 -1.40 0 -1.50 -0.15 -1.50 -1.80z"/>
  <path d="M85.50 58.75 c0 -1.40 0.20 -1.75 1 -1.75 1.05 0 1.20 0.50 0.70 2.40 -0.50 1.80 -1.70 1.35 -1.70 -0.65z"/>
  <path d="M39.15 53.25 c-0.35 -0.40 -0.65 -1.50 -0.65 -2.50 0 -2.75 -0.75 -3.75 -2.75 -3.75 l-1.75 0 0 -2.65 c0 -1.55 0.30 -3.05 0.75 -3.65 0.70 -0.90 0.70 -0.85 0.75 0.80 0 1.45 0.10 1.60 0.55 0.90 0.25 -0.50 0.80 -0.90 1.20 -0.90 2.20 0 5.35 8.50 4.10 11.15 -0.65 1.50 -1.30 1.65 -2.20 0.60z"/>
  <path d="M77.10 35.40 c-0.30 -0.30 -0.60 -0.85 -0.60 -1.15 0 -0.95 -4.50 -5.25 -5.90 -5.60 -0.70 -0.15 -2.40 -1 -3.75 -1.80 -2.75 -1.75 -3.35 -1.45 -3.35 1.75 0 2.05 -0.40 3.40 -1 3.40 -0.60 0 -1.90 -4.35 -2.30 -7.50 -0.65 -5.75 -1.65 -7.05 -8 -10.40 -3.50 -1.80 -6.40 -2.40 -8.35 -1.65 -2.85 1.10 -2.20 3.40 1.90 6.65 2.75 2.20 4.60 4.65 3.80 5.10 -0.55 0.35 -2.85 -0.45 -3.30 -1.15 -0.15 -0.30 -0.75 -0.55 -1.35 -0.55 -1.30 0 -3.95 -1.55 -3.80 -2.25 0.05 -0.25 -0.50 -1.15 -1.20 -1.90 -0.75 -0.80 -1.40 -1.90 -1.50 -2.50 -0.10 -0.90 -0.55 -0.50 -2.15 2 -1.10 1.75 -2.15 3.15 -2.35 3.15 -0.25 0 -0.40 -0.80 -0.40 -1.75 0 -1.40 0.20 -1.75 1 -1.75 0.80 0 1 -0.35 1 -1.50 0 -1 0.25 -1.50 0.75 -1.50 0.40 0 0.75 -0.20 0.75 -0.50 0 -0.25 -0.45 -0.50 -1 -0.50 -0.80 0 -1 0.35 -1 1.50 0 1.40 -0.10 1.50 -1.85 1.50 l-1.90 0 2.65 -2.40 c2.40 -2.10 4.20 -3.30 8.70 -5.85 1.75 -0.95 7.80 -2.25 10.65 -2.25 4.65 0 11.65 3.75 13.60 7.25 1.10 1.95 1.10 2 0.20 2.75 -1.80 1.45 -1.75 2.75 0.20 4.45 1 0.85 2.85 2.10 4.15 2.80 5.20 2.75 6.40 3.60 7.20 5.30 1 1.95 2.20 6.30 1.85 6.65 -0.60 0.65 -2.75 0.80 -3.35 0.20z m-0.15 -5.60 c-1.25 -1.45 -1.95 -1.65 -1.95 -0.55 0 0.40 0.30 0.75 0.70 0.75 0.35 0 0.95 0.35 1.30 0.75 0.35 0.45 0.75 0.70 0.85 0.55 0.15 -0.10 -0.30 -0.80 -0.90 -1.50z m-13.35 -14.65 c0.50 -0.45 0.90 -1.50 0.90 -2.50 0 -1.55 -0.10 -1.65 -1.70 -1.65 -0.95 0 -2.05 -0.30 -2.40 -0.65 -0.35 -0.40 -1.30 -0.85 -2.05 -1.05 -0.75 -0.15 -1.35 -0.55 -1.35 -0.80 0 -0.80 -5 -0.55 -8.90 0.45 -2.05 0.55 -3.80 1.10 -4 1.25 -0.15 0.15 0.95 0.30 2.50 0.30 3.10 0 11.35 2.65 13.70 4.40 1.75 1.30 2.10 1.35 3.30 0.25z"/>
  <path d="M32 31.55 c-2.15 -7.30 -0.55 -8.50 1.80 -1.30 l1.55 4.75 -1.15 0 c-1 0 -1.30 -0.50 -2.20 -3.45z"/>
  <path d="M38.50 25.25 c0 -0.40 0.25 -0.75 0.50 -0.75 0.30 0 0.50 0.35 0.50 0.75 0 0.40 -0.20 0.75 -0.50 0.75 -0.25 0 -0.50 -0.35 -0.50 -0.75z"/>
 </g>
 <g fill="#965f3c">
  <path d="M91.80 85.75 c-0.70 -0.70 -1.45 -9.40 -1.25 -14.50 0.05 -1.35 -0.30 -4.95 -0.80 -7.95 -0.65 -4.25 -0.75 -5.70 -0.30 -6.70 0.50 -1.10 0.70 -1.15 1.30 -0.55 0.95 0.95 1.55 3.95 0.85 3.95 -0.60 0 -0.25 3.05 0.45 3.50 0.20 0.15 0.60 1.20 0.90 2.40 0.45 1.55 0.85 2.10 1.55 2.10 0.55 0 1.60 0.80 2.35 1.80 0.75 1 1.80 2.20 2.30 2.65 1.25 1.15 1.10 2.55 -0.30 2.55 -1.20 0 -2.85 -1.35 -2.85 -2.30 0 -0.85 -2 -2.70 -2.85 -2.70 -0.65 0 -0.75 0.65 -0.55 4.70 0.10 2.90 0.45 5 0.85 5.50 0.90 1.05 1.40 1 1.70 -0.20 0.20 -0.70 0.70 -1 1.75 -1 3.85 0 4.15 1.90 0.85 4.95 -1.20 1.10 -2.50 2.05 -2.85 2.10 -0.35 0 -1.05 0.10 -1.55 0.20 -0.45 0.10 -1.15 -0.15 -1.55 -0.50z"/>
  <path d="M98.15 66.35 c-1.40 -2.05 -1.45 -3.15 -0.20 -3.85 1.70 -0.90 1.95 -0.55 2 2.50 0 1.65 -0.15 3 -0.35 3 -0.20 0 -0.85 -0.75 -1.45 -1.65z"/>
  <path d="M39 53.10 c0 -0.25 -1.25 -0.75 -2.75 -1.10 -2.70 -0.65 -2.75 -0.70 -2.75 -2.50 0 -2.50 1.05 -7.50 1.55 -7.50 0.25 0 0.45 0.85 0.50 1.90 0.05 1.55 0.10 1.65 0.40 0.65 l0.35 -1.25 1.60 1.50 c1.60 1.40 3 5.15 2.35 6.25 -0.20 0.25 -0.05 0.45 0.20 0.45 0.30 0 0.55 0.45 0.55 1 0 0.65 -0.35 1 -1 1 -0.55 0 -1 -0.20 -1 -0.40z"/>
  <path d="M33.50 34.75 c0 -1.95 0.70 -2.30 1.50 -0.80 0.80 1.55 0.60 2.55 -0.50 2.55 -0.80 0 -1 -0.35 -1 -1.75z"/>
  <path d="M75.35 32.20 c-1.45 -1.55 -3.60 -3.50 -4.85 -4.35 -1.25 -0.80 -3 -2.20 -3.85 -3 -1.75 -1.60 -2.20 -3.35 -0.90 -3.35 1.15 0 6.75 2.70 8.70 4.20 0.95 0.70 2.05 1.30 2.40 1.30 0.90 0 2 1.85 2.90 4.80 0.95 3.20 0.95 3.20 -0.50 3.20 -0.90 0 -2.05 -0.85 -3.90 -2.80z"/>
  <path d="M45.55 23.45 c-0.65 -0.25 -1.85 -0.95 -2.70 -1.55 -1.35 -0.95 -1.40 -1.10 -0.55 -1.40 0.85 -0.30 0.75 -0.45 -0.60 -1.15 -2.35 -1.20 -3.45 -3.15 -2.75 -4.80 0.60 -1.25 0.55 -1.25 -0.70 0.20 l-1.30 1.50 0.25 -1.85 c0.15 -1.15 0.05 -1.90 -0.30 -1.90 -1.10 0 0.80 -1.50 3.50 -2.80 7.25 -3.40 14.65 -4.10 19.35 -1.90 1.50 0.75 2.75 1.50 2.75 1.75 0 0.25 -0.80 0.45 -1.75 0.45 -1.25 0 -1.75 -0.20 -1.75 -0.80 0 -0.65 -0.40 -0.75 -2.35 -0.50 -1.35 0.15 -3.95 0.40 -5.80 0.55 -1.90 0.20 -3.30 0.45 -3.20 0.55 0.15 0.15 2.60 0.70 5.55 1.20 2.90 0.55 6.30 1.45 7.55 2 2.40 1.10 4.25 0.75 4.25 -0.75 0 -1.20 0.70 -0.85 1.65 0.70 l0.85 1.45 -2.25 2.05 c-1.20 1.10 -2.40 2.05 -2.60 2.05 -0.20 0 -1.65 -0.80 -3.20 -1.75 -3.40 -2.10 -11 -4.75 -13.55 -4.75 -2.30 0 -4.40 0.90 -4.40 1.90 0 1.25 1.85 3.75 4.45 6 1.40 1.20 2.80 2.60 3.05 3.10 0.45 0.90 0.35 1 -0.85 0.95 -0.75 0 -1.95 -0.25 -2.60 -0.50z"/>
 </g>
 <g fill="#ad6739">
  <path d="M93.10 74.75 c-0.30 -0.70 -0.90 -1.25 -1.35 -1.25 -0.60 0 -0.75 -0.60 -0.75 -2.70 0 -1.50 -0.25 -3.35 -0.50 -4.10 -0.85 -2.20 -1.25 -10 -0.55 -10.45 1.10 -0.65 1.50 0.40 2.30 5.90 0.40 3 0.85 5.60 1 5.80 0.10 0.25 0.90 0.55 1.65 0.70 1.05 0.20 1.70 0.80 2.30 2.05 0.45 0.95 1.30 2.10 1.90 2.50 1.25 0.90 1.25 0.90 -0.95 2 -2.40 1.20 -4.40 1.05 -5.05 -0.45z"/>
  <path d="M98 65.75 c-1.30 -2.10 -1 -3.25 0.75 -3.25 1.15 0 1.25 0.15 1.25 2.50 0 1.40 -0.20 2.50 -0.45 2.50 -0.25 0 -0.95 -0.80 -1.55 -1.75z"/>
 </g>
 <g fill="#a26b46">
  <path d="M92.25 82 c-1.65 -1.85 -1.65 -11.50 0 -11.50 0.40 0 0.75 0.35 0.75 0.75 0 0.40 0.25 0.75 0.50 0.75 0.30 0 0.75 0.55 1.10 1.25 0.50 1.15 0.60 1.15 2 0.45 0.80 -0.40 1.90 -0.60 2.40 -0.45 1.15 0.35 1.35 2.25 0.25 2.25 -0.95 0 -0.95 0.55 0 1.80 0.40 0.50 0.75 1.60 0.75 2.40 0 1.30 -0.10 1.40 -1.55 1.20 -1.10 -0.20 -1.65 0 -1.85 0.55 -0.65 1.80 -2.95 2.10 -4.35 0.55z m1.65 -5.25 c-0.30 -0.70 -0.65 -1.20 -0.70 -1.10 -0.30 0.30 0.45 2.35 0.85 2.35 0.25 0 0.15 -0.55 -0.15 -1.25z"/>
  <path d="M98.30 65.90 c-1.10 -1.55 -1 -1.90 0.45 -1.90 1.05 0 1.25 0.25 1.25 1.50 0 1.80 -0.65 1.90 -1.70 0.40z"/>
  <path d="M39 53.55 c0 -0.60 -2.80 -1.55 -4.55 -1.55 -1.25 0 -1.45 -0.20 -1.45 -1.45 0 -2.90 0.60 -4.55 1.60 -4.55 0.85 0 0.95 0.25 0.65 1.90 l-0.30 1.90 2.40 0.60 c2.80 0.75 3.65 1.40 3.65 2.65 0 0.60 -0.35 0.95 -1 0.95 -0.55 0 -1 -0.20 -1 -0.45z"/>
  <path d="M33.50 36.50 c0 -2.20 0.20 -3 0.70 -3 0.80 0 1.30 1.50 1.30 4.15 0 1.50 -0.20 1.85 -1 1.85 -0.90 0 -1 -0.35 -1 -3z"/>
  <path d="M73.25 29.40 c-6.45 -6.30 -6.35 -6.75 0.80 -3.25 4.30 2.05 4.45 2.15 5.15 4.55 1.50 4.80 0 4.45 -5.95 -1.30z"/>
  <path d="M31.30 29.90 c-0.95 -3.65 0.55 -5.50 1.60 -1.95 0.80 2.60 0.75 3.05 -0.35 3.05 -0.55 0 -1.05 -0.45 -1.25 -1.10z"/>
  <path d="M44.65 22.95 c-2.35 -1.15 -3.75 -2.45 -2.60 -2.40 1.30 0 6.65 2.30 6.85 2.85 0.30 0.95 -1.95 0.70 -4.25 -0.45z"/>
  <path d="M36.50 15.35 c0 -1.05 -0.25 -1.35 -1.05 -1.35 -0.90 0 -0.95 -0.15 -0.45 -0.75 0.80 -0.95 3.65 -2.75 4.85 -3 0.50 -0.15 2.20 -0.70 3.75 -1.25 1.55 -0.55 4.85 -1.20 7.25 -1.40 2.40 -0.25 4.75 -0.60 5.20 -0.80 1.30 -0.55 9.05 3.65 10.10 5.55 l0.90 1.60 -1.30 0.85 c-1.75 1.15 -3.50 1.10 -6.40 -0.25 -1.35 -0.60 -5.15 -1.60 -8.45 -2.15 l-6 -1.05 -2.45 1 -2.45 1.05 0.30 -1.30 c0.20 -1.05 0 -0.90 -0.80 0.65 -0.55 1.10 -1.45 2.45 -2 3 -1 0.95 -1 0.95 -1 -0.40z"/>
 </g>
 <g fill="#ab764f">
  <path d="M92.55 79.80 c-0.80 -0.95 -1.60 -6.05 -1.20 -7.85 0.55 -2.85 1.55 -2.35 3.35 1.75 1.30 2.95 1.55 4.55 1 6 -0.40 1 -2.35 1.05 -3.15 0.10z"/>
  <path d="M97.80 78.90 c-0.90 -1.45 -1.50 -3.70 -1.15 -4.55 0.15 -0.45 0.80 -0.60 1.75 -0.45 1.40 0.20 1.45 0.25 1.50 3.15 0.05 3.25 -0.75 3.95 -2.10 1.85z"/>
  <path d="M98.65 66 c-1.45 -1.50 -1.45 -2.35 -0.10 -2.75 1.35 -0.45 1.55 -0.20 1.35 2.05 l-0.15 1.95 -1.10 -1.25z"/>
  <path d="M36.90 52.65 c-0.50 -0.10 -0.90 -0.55 -0.90 -0.95 0 -0.45 -0.55 -0.70 -1.50 -0.70 -1.65 0 -1.80 -0.50 -1.20 -4.10 0.25 -1.45 0.55 -1.90 1.35 -1.90 0.85 0 0.95 0.25 0.65 1.95 -0.15 1.10 -0.45 2.30 -0.60 2.75 -0.25 0.60 0.05 0.80 1.15 0.80 2.05 0 4.50 0.90 4.85 1.80 0.20 0.50 -0.15 0.70 -1.35 0.65 -0.90 -0.05 -2 -0.15 -2.45 -0.30z"/>
  <path d="M33.50 40 c0 -2.65 0.15 -3.50 0.70 -3.50 0.85 0 1.30 1.55 1.30 4.65 0 2 -0.15 2.35 -1 2.35 -0.90 0 -1 -0.35 -1 -3.50z"/>
  <path d="M32.30 33.15 c-0.95 -2.80 -1.05 -5.15 -0.15 -5.15 0.55 0 2.85 5.60 2.85 6.95 0 0.30 -0.45 0.55 -0.95 0.55 -0.70 0 -1.20 -0.65 -1.75 -2.35z"/>
  <path d="M76.20 30.75 c-1.55 -1.55 -0.95 -2.35 1.25 -1.80 0.95 0.25 1.30 0.70 1.30 1.55 0 1.70 -1 1.80 -2.55 0.25z"/>
  <path d="M30.50 25.75 c0 -1.40 0.20 -1.75 1 -1.75 0.80 0 1 0.35 1 1.75 0 1.40 -0.20 1.75 -1 1.75 -0.80 0 -1 -0.35 -1 -1.75z"/>
  <path d="M44.30 22.75 c-2.75 -1.45 -3 -2.45 -0.40 -1.55 2.30 0.85 5.10 2.20 5.10 2.55 0 0.55 -2.90 -0.05 -4.70 -1z"/>
  <path d="M60.15 12.75 c-1.40 -0.70 -2.90 -1.70 -3.40 -2.25 -0.85 -0.95 -0.80 -1 0.95 -1.85 1.75 -0.80 1.90 -0.80 3.70 0.10 1 0.50 2.40 1.40 3 1.95 1.30 1.15 2.60 3.15 1.70 2.60 -0.30 -0.15 -0.65 -0.10 -0.85 0.20 -0.50 0.85 -2.45 0.55 -5.10 -0.75z"/>
  <path d="M38 12.25 c0 -1.20 1.20 -2.20 1.85 -1.55 0.45 0.40 -0.70 2.80 -1.35 2.80 -0.25 0 -0.50 -0.55 -0.50 -1.25z"/>
  <path d="M43.65 10.45 c0.55 -0.35 1.15 -0.35 1.75 0 0.70 0.45 0.55 0.50 -0.90 0.50 -1.45 0 -1.60 -0.05 -0.85 -0.50z"/>
 </g>
 <g fill="#b27d4e">
  <path d="M93.10 79.10 c-1.20 -0.80 -2.25 -7.30 -1.30 -8.25 0.70 -0.70 1.75 0.45 2.70 2.95 1.20 3.30 1.30 5 0.20 5.40 -0.95 0.35 -0.80 0.35 -1.60 -0.10z"/>
  <path d="M98.70 78.60 c-0.75 -0.50 -1.70 -2.35 -1.70 -3.30 0 -0.55 0.45 -0.80 1.50 -0.80 1.45 0 1.50 0.10 1.50 2.25 0 2.25 -0.25 2.60 -1.30 1.85z"/>
  <path d="M98.30 65.40 c-0.90 -1.25 -0.65 -1.90 0.75 -1.90 0.70 0 0.95 0.35 0.95 1.50 0 1.75 -0.65 1.95 -1.70 0.40z"/>
  <path d="M35 51.50 c0 -1.05 0.80 -1.25 2.90 -0.70 1.95 0.55 1.35 1.70 -0.90 1.70 -1.65 0 -2 -0.15 -2 -1z"/>
  <path d="M33.50 46.25 c0 -1.40 0.20 -1.75 1 -1.75 1.05 0 1.20 0.50 0.70 2.40 -0.50 1.80 -1.70 1.35 -1.70 -0.65z"/>
  <path d="M31 28.25 c0 -2 1.20 -2.45 1.70 -0.60 0.50 1.85 0.35 2.35 -0.70 2.35 -0.80 0 -1 -0.35 -1 -1.75z"/>
 </g>
 <g fill="#82758e">
  <path d="M51.70 95.75 c-1.45 -4.65 -1.45 -7.05 -0.05 -18 0.60 -4.90 0.65 -4.95 1.45 -3.75 0.45 0.70 1.05 2.20 1.35 3.30 0.30 1.15 0.90 2.35 1.30 2.70 0.60 0.50 0.55 0.10 -0.25 -1.70 -0.55 -1.30 -2.35 -6 -4.05 -10.45 -1.65 -4.45 -3.55 -9 -4.15 -10.10 l-1.15 -2 1.10 -3 c0.65 -1.65 1.40 -3 1.70 -2.95 0.30 0.05 1 0.10 1.50 0.15 0.60 0 1.55 1.10 2.50 2.75 1.70 3 3.20 4.35 8.10 7 3.70 2.05 5.30 2.20 8.25 0.85 2.35 -1.05 4.60 -3.70 8 -9.30 3.05 -5.05 4.65 -9 4.70 -11.35 0 -1 0.20 -1.95 0.45 -2.15 0.25 -0.15 2.10 2.55 4.05 6 3.30 5.75 3.55 6.45 3.25 8.25 -0.20 1.10 -0.75 2.50 -1.20 3.10 -0.50 0.65 -1.05 2 -1.25 3.05 -0.50 2.80 -1.80 2.50 -1.80 -0.50 0 -1.70 0.35 -2.85 1.30 -4.20 1.20 -1.75 1.25 -2 0.65 -3.65 -0.35 -1 -0.80 -1.80 -0.95 -1.80 -0.15 0 -0.80 -1 -1.50 -2.20 l-1.20 -2.25 -3.90 7.85 c-2.10 4.30 -4.35 8.25 -5 8.80 -0.65 0.50 -2.20 1.45 -3.50 2.10 -2.10 1.05 -2.40 1.40 -2.40 2.75 l0 1.55 -4.40 -0.20 -4.45 -0.20 2.20 4.60 c1.15 2.50 2.15 4.80 2.15 5.10 0 0.30 0.60 0.60 1.40 0.70 1.20 0.15 1.40 0.45 2.15 3.40 0.40 1.80 1 3.70 1.30 4.25 1.10 2.05 2.65 7.50 2.65 9.35 0 1.85 -0.05 1.90 -1.80 1.90 -2.05 0 -2.20 -0.15 -5.40 -5.05 -2.50 -3.80 -6.10 -6.95 -7.90 -6.95 -0.65 0 -1.50 -0.30 -1.85 -0.60 -1.85 -1.80 1.25 9.55 3.50 12.65 0.50 0.75 0.95 2.05 0.95 2.90 0 1.45 -0.15 1.55 -1.70 1.55 -0.95 0 -1.85 -0.30 -2 -0.60 -0.25 -0.50 -0.35 -0.50 -0.60 0 -0.15 0.30 -0.70 0.60 -1.25 0.60 -0.70 0 -1.20 -0.90 -2.25 -4.25z"/>
  <path d="M93.60 99.65 c1.95 -3.95 5.40 -11.35 5.40 -11.70 0 -0.25 0.25 -0.45 0.50 -0.45 1.15 0 0.45 4.05 -1.50 8.20 -1.75 3.80 -2.10 4.30 -3.25 4.30 -0.75 0 -1.25 -0.15 -1.15 -0.35z"/>
  <path d="M78.50 93.50 c0 -5.15 0.05 -5.50 1 -5.50 0.80 0 1 -0.35 1 -1.50 0 -0.85 0.30 -1.65 0.70 -1.80 0.40 -0.15 0.85 -0.80 1 -1.50 0.25 -0.85 0.65 -1.20 1.55 -1.20 1.10 0 1.15 0.10 0.70 1.45 -0.30 0.80 -1.30 2.35 -2.25 3.45 -1.70 2 -1.70 2.05 -1.70 7.05 0 4.70 -0.05 5.05 -1 5.05 -0.95 0 -1 -0.35 -1 -5.50z"/>
  <path d="M49.85 79.75 c0.15 -1.35 0.45 -3.40 0.70 -4.50 0.35 -1.65 0.40 -1.50 0.15 1 -0.10 1.65 -0.45 3.70 -0.70 4.50 -0.35 1.20 -0.40 1 -0.15 -1z"/>
  <path d="M84.50 79.55 c0 -2 0.45 -3.05 1.35 -3.05 0.65 0 0.70 -0.40 0.45 -2.10 -0.95 -6.45 -0.95 -6.90 -0.15 -6.90 0.55 0 0.95 0.85 1.35 2.90 0.30 1.55 0.65 3.15 0.75 3.45 0.30 0.85 -2.55 7.15 -3.25 7.15 -0.25 0 -0.50 -0.65 -0.50 -1.45z"/>
  <path d="M16.85 60.65 c-0.45 -0.55 -0.85 -1.15 -0.85 -1.30 0 -0.20 1.65 -0.35 3.65 -0.35 2.30 0 5.25 -0.45 8.10 -1.25 5.05 -1.40 6.55 -1.55 6.90 -0.60 0.20 0.40 0.40 0.45 0.70 0.10 0.20 -0.30 1.05 -0.80 1.90 -1.20 l1.50 -0.65 -1.20 -0.95 c-0.65 -0.50 -1.45 -0.95 -1.85 -0.95 -0.40 0 -0.70 -0.35 -0.70 -0.80 0 -0.70 0.40 -0.80 2.85 -0.50 1.55 0.20 2.95 0.45 3.05 0.55 0.10 0.10 0.35 1.20 0.45 2.45 0.25 2.10 0.20 2.30 -1.40 3.25 -1.35 0.80 -2.55 1.05 -5.55 1.05 -2.10 0 -5.25 0.30 -7 0.70 -1.75 0.40 -4.60 0.90 -6.40 1.05 -2.85 0.30 -3.40 0.20 -4.15 -0.60z"/>
  <path d="M10.30 55.50 c-1.15 -1.10 -2.55 -2.90 -3.05 -4 -1.20 -2.70 -0.55 -3.50 3 -3.50 3.55 0 5.25 -1.30 5.25 -4 0 -1.05 -0.15 -2.30 -0.30 -2.75 -0.30 -0.70 -0.40 -0.70 -1.25 0.05 -0.65 0.60 -2.05 0.90 -4.45 1.05 -3.75 0.15 -4.50 -0.30 -4.50 -3 0 -1.05 0.35 -1.25 2.65 -1.75 1.40 -0.35 3.15 -0.65 3.85 -0.75 1.15 -0.15 1.10 -0.20 -0.50 -0.65 l-1.75 -0.50 4.30 -2.80 c4.25 -2.75 9.35 -7.85 11.05 -11.05 1.05 -2.05 2.50 -3.35 5.80 -5.30 l2.60 -1.50 0 1.40 c0 1.15 -0.35 1.55 -1.60 2.10 -1.75 0.70 -4.25 3.30 -5.35 5.55 -0.35 0.75 -1 1.40 -1.35 1.40 -0.40 0 -0.70 0.35 -0.70 0.75 0 0.45 -0.35 0.90 -0.75 1.05 -0.40 0.20 -0.75 0.60 -0.75 0.95 0 0.80 -4.15 4.60 -5.90 5.40 -1.80 0.75 -2.10 1.25 -2.10 3.40 0 1.50 0.20 1.90 1.20 2.15 1.25 0.30 1.80 2.10 1.80 5.80 0 1.50 0.40 2.05 2.65 3.95 1.40 1.25 3.15 2.85 3.75 3.65 1.05 1.25 1.40 1.40 3 1.10 1.05 -0.20 2 -0.55 2.15 -0.85 0.20 -0.25 1.35 -0.60 2.65 -0.70 1.75 -0.20 2.30 -0.10 2.30 0.40 0 1.10 -9.05 4.05 -13.25 4.35 -4 0.25 -3.90 0.30 -7.60 -5.05 -1.55 -2.25 -2.65 -3 -2.65 -1.80 0 0.30 0.65 1.50 1.45 2.65 3.25 4.70 2.25 6.40 -1.65 2.80z m1.40 -15.30 c2.30 -0.90 -0.45 -1.60 -3.20 -0.85 l-1.25 0.35 1.50 0.35 c2.15 0.50 2.10 0.50 2.95 0.15z"/>
  <path d="M94.15 52.70 c-2.95 -1.75 -2.70 -2 0.35 -0.40 1.40 0.70 2.50 1.40 2.50 1.50 0 0.45 -0.85 0.10 -2.85 -1.10z"/>
  <path d="M38.50 25.40 c0 -0.35 0.25 -1 0.50 -1.40 0.45 -0.65 0.55 -0.65 0.95 -0.05 0.25 0.40 0.35 1 0.20 1.40 -0.30 0.85 -1.65 0.85 -1.65 0.05z"/>
  <path d="M31 24 c0 -2.35 1 -4 2.35 -4 0.70 0 1.15 0.20 1.05 0.40 -0.05 0.20 -0.60 1.45 -1.15 2.75 -1.15 2.65 -2.25 3.10 -2.25 0.85z"/>
  <path d="M44.65 22.95 c-2 -1 -2.80 -1.95 -1.65 -1.95 1.10 0 4.50 2.05 4.25 2.50 -0.40 0.60 -0.15 0.70 -2.60 -0.55z"/>
 </g>
 <g fill="#8b7f95">
  <path d="M58.15 99.15 c-0.15 -0.50 -0.70 -1.50 -1.20 -2.20 -2.25 -3.20 -4.90 -14.25 -4.95 -20.30 0 -3.65 1.30 -2.85 2.25 1.40 0.20 0.75 1 2 1.85 2.75 1.25 1.15 1.50 1.25 1.20 0.45 -0.25 -0.55 -1.15 -3 -2.10 -5.40 -1.85 -4.75 -2.05 -5.90 -1.10 -5.75 0.35 0.10 1.70 2.75 3 5.90 2.05 4.95 2.70 6.05 4.70 7.75 1.30 1.10 3.35 3.45 4.50 5.25 2.80 4.20 3.60 5.25 4 4.90 0.30 -0.35 -0.80 -4.30 -2.05 -7.15 -0.50 -1.10 -1.25 -3.45 -1.70 -5.25 -0.70 -2.85 -0.95 -3.25 -1.95 -3.25 -0.95 0 -1.40 -0.55 -2.35 -2.75 -0.60 -1.50 -2.05 -4.65 -3.20 -6.95 -1.10 -2.35 -2.05 -4.55 -2.05 -4.90 0 -1.25 1.40 -1.25 3.85 0.05 1.50 0.80 3.20 1.30 4.50 1.30 2.05 0 2.15 -0.05 2.15 -1.50 0 -1.25 0.35 -1.65 2.15 -2.55 1.15 -0.60 2.70 -1.50 3.45 -2 1.80 -1.30 8.75 -15.35 9.20 -18.65 0.40 -2.90 0.30 -3.05 4.65 4.60 2.75 4.90 2.95 5.50 2.60 7.20 -0.25 1 -0.90 2.45 -1.50 3.20 -0.55 0.75 -1.05 1.65 -1.05 2 0 0.40 -0.35 0.70 -0.75 0.70 -0.50 0 -0.75 -0.55 -0.75 -1.75 0 -1.40 0.20 -1.75 1 -1.75 0.85 0 1 -0.35 1 -1.90 0 -1.60 -0.40 -2.30 -2.25 -4.25 -2.40 -2.50 -3.25 -2.90 -3.25 -1.45 0 1.90 -5.90 12.80 -8 14.80 -1.10 1.05 -2.70 2.90 -3.55 4.10 -1.35 1.95 -1.70 2.20 -3.40 2.20 -1.05 0 -2.85 -0.35 -4 -0.75 -1.10 -0.40 -2.05 -0.55 -2.05 -0.40 0 0.90 4.70 8.70 5.50 9.15 0.50 0.25 1.30 1.60 1.75 3 0.45 1.40 1.75 3.70 2.90 5.15 1.15 1.40 2.90 3.95 3.85 5.60 1.50 2.55 2 3 3.40 3.15 1.45 0.15 1.60 0.35 1.60 1.75 0 0.90 0.15 2.45 0.30 3.50 l0.35 1.85 -5.90 0 c-6.90 0 -5.80 0.80 -11.80 -8.65 -3.80 -5.95 -5.05 -7.40 -5.80 -6.70 -0.30 0.35 2.55 9.35 3.65 11.45 0.40 0.75 0.70 1.90 0.70 2.65 0 1.05 -0.20 1.25 -1.50 1.25 -1 0 -1.65 -0.30 -1.85 -0.85z"/>
  <path d="M94.50 99.20 c0 -1.05 0.90 -2.70 1.50 -2.70 0.30 0 0.50 0.80 0.50 1.75 0 1.40 -0.20 1.75 -1 1.75 -0.55 0 -1 -0.35 -1 -0.80z"/>
  <path d="M96.65 93.90 c0.95 -2.30 1.85 -2.40 1.85 -0.20 0 1.60 -0.15 1.80 -1.25 1.80 -1.20 0 -1.25 -0.05 -0.60 -1.60z"/>
  <path d="M98.25 90.65 c0.20 -0.50 0.50 -1.30 0.60 -1.75 0.45 -1.55 1.15 -1 1.15 0.85 0 1.45 -0.20 1.75 -1.05 1.75 -0.80 0 -0.95 -0.20 -0.70 -0.85z"/>
  <path d="M78.50 89.35 c0 -2.30 1.20 -3.85 3.05 -3.85 l1.55 0 -1.55 2.10 c-0.85 1.15 -1.55 2.40 -1.55 2.75 0 0.35 -0.35 0.65 -0.75 0.65 -0.50 0 -0.75 -0.50 -0.75 -1.65z"/>
  <path d="M83 82.50 c0 -2.30 1 -4 2.30 -4 1.05 0 1.10 0.15 0.70 1.25 -1.55 4.10 -3 5.45 -3 2.75z"/>
  <path d="M86 75.80 c0 -0.90 -0.15 -3.05 -0.30 -4.75 -0.30 -2.55 -0.20 -3.05 0.45 -3.05 1.35 0 2.40 6.55 1.35 8.55 -0.80 1.45 -1.50 1.15 -1.50 -0.75z"/>
  <path d="M26.75 59.10 c1 -1.05 5.85 -2.60 8.10 -2.60 0.85 0 1.15 0.30 1.15 1.20 0 1.10 -0.25 1.15 -3.85 1.45 -2.15 0.20 -4.45 0.50 -5.15 0.65 l-1.25 0.35 1 -1.05z"/>
  <path d="M37.50 58.10 c0 -0.45 0.45 -1.15 1 -1.50 0.55 -0.35 1 -0.85 1 -1.20 0 -0.30 -0.15 -0.45 -0.30 -0.25 -0.15 0.15 -0.70 -0.15 -1.25 -0.70 -1.30 -1.30 -4.40 -1.20 -8.70 0.30 -4.50 1.60 -4.90 1.55 -6.50 -0.35 -0.70 -0.85 -2.85 -2.85 -4.70 -4.40 -3.15 -2.60 -3.35 -2.90 -2.70 -3.80 0.45 -0.65 0.60 -1.55 0.40 -2.80 -0.30 -1.70 -0.20 -1.90 0.70 -1.90 0.85 0 1.05 0.30 1.05 1.65 0 1.45 0.40 1.95 3.40 4.20 1.85 1.45 4 3.30 4.80 4.10 1.55 1.60 4.05 2.10 4.45 0.95 0.10 -0.45 1.45 -0.65 4.25 -0.65 2.25 0 4.10 -0.15 4.10 -0.30 0 -0.20 0.45 -0.25 1 -0.10 0.60 0.15 1.20 0.95 1.50 2.10 0.70 2.60 0.65 3.40 -0.50 4.55 -1.25 1.25 -3 1.30 -3 0.10z"/>
  <path d="M7.70 51.75 c-0.45 -0.70 -0.75 -1.35 -0.65 -1.50 0.15 -0.10 0.60 0.50 1.05 1.30 1.05 1.80 0.75 1.95 -0.40 0.20z"/>
  <path d="M33.50 42.25 c0 -2 1.20 -2.45 1.70 -0.60 0.50 1.85 0.35 2.35 -0.70 2.35 -0.80 0 -1 -0.35 -1 -1.75z"/>
  <path d="M7.35 41.65 c-1.25 -0.20 -2.35 -1.65 -2.35 -3.10 0 -0.55 5.15 -1.50 6.70 -1.20 1.10 0.20 1.35 0.10 1.20 -0.40 -0.15 -0.40 -0.85 -0.80 -1.60 -0.95 -1.35 -0.25 -1.35 -0.30 -0.50 -1.05 0.55 -0.45 2.35 -1.65 4.10 -2.65 1.70 -1.05 4.05 -3 5.25 -4.40 1.15 -1.40 2.70 -3.20 3.50 -4.05 0.75 -0.85 1.35 -1.80 1.35 -2.10 0 -0.75 3.45 -4 5.25 -4.90 0.85 -0.45 2.70 -1.80 4.15 -3 2 -1.65 2.95 -2.15 3.90 -1.95 0.65 0.10 1.20 0.35 1.20 0.45 0 0.55 -6.25 10.10 -6.60 10.15 -0.75 0 -0.40 -3.45 0.40 -4.20 0.45 -0.50 0.55 -0.80 0.20 -0.80 -0.85 0 -1.80 1.10 -2.15 2.55 -0.45 1.70 -4.65 6.35 -6.05 6.75 -0.60 0.15 -1.95 1.25 -3 2.50 -1.05 1.20 -2.30 2.20 -2.85 2.20 -0.50 0 -0.95 0.35 -0.95 0.75 0 0.45 -0.45 0.75 -1.25 0.75 -0.80 0 -1.25 0.30 -1.25 0.75 0 0.40 -0.30 0.75 -0.65 0.75 -0.40 0 -0.55 0.70 -0.45 2.20 l0.20 2.25 -1.95 0.20 -1.90 0.20 2.15 0.05 c1.55 0.10 2.10 0.30 2.10 0.90 0 0.40 -0.25 0.60 -0.50 0.45 -0.30 -0.15 -0.85 0.05 -1.30 0.45 -0.75 0.80 -3.10 0.95 -6.35 0.45z"/>
  <path d="M30.50 25.25 c0 -1.40 0.20 -1.75 1 -1.75 0.80 0 0.95 0.30 0.90 1.75 -0.05 1.35 -0.30 1.75 -1 1.75 -0.70 0 -0.90 -0.40 -0.90 -1.75z"/>
  <path d="M43.45 22 c-0.70 -0.55 -0.90 -0.95 -0.55 -1 0.95 0 2.60 0.95 2.60 1.50 0 0.80 -0.80 0.60 -2.05 -0.50z"/>
 </g>
 <g fill="#c1b9c7">
  <path d="M58.65 95.90 c-3.65 -9.50 -4.40 -13.80 -2.40 -13.50 0.55 0.10 1.55 0.20 2.25 0.25 1.35 0.10 2.05 1.05 11.65 15.95 l0.95 1.40 -1.95 0 c-1.85 0 -1.95 -0.10 -3.75 -3.40 -1 -1.85 -2.20 -3.80 -2.60 -4.35 -0.80 -0.95 -0.80 -0.95 -0.35 0.30 0.25 0.70 0.95 2.20 1.50 3.25 0.60 1.05 1.05 2.45 1.05 3.05 0 1.05 -0.25 1.15 -2.40 1.15 l-2.40 0 -1.55 -4.10z"/>
  <path d="M94.70 98.75 c0.20 -0.70 1.40 -3.45 2.70 -6.15 l2.35 -4.85 0.15 2.10 c0.10 1.45 -0.30 3 -1.35 5.40 -0.85 1.85 -1.55 3.70 -1.55 4.05 0 0.40 -0.55 0.70 -1.30 0.70 -1.15 0 -1.25 -0.15 -1 -1.25z"/>
  <path d="M75.90 94.50 c-0.45 -0.30 -1.55 -1.80 -2.45 -3.40 -0.90 -1.55 -2.50 -3.90 -3.55 -5.15 -1.10 -1.30 -2.40 -3.55 -2.95 -5 -0.55 -1.50 -1.55 -3.15 -2.20 -3.70 -1.85 -1.60 -6.25 -10.30 -6.25 -12.40 l0 -1.80 3.15 1.45 c5.20 2.45 5.50 2.40 7.30 -0.15 0.85 -1.25 2.45 -3.10 3.55 -4.15 1.55 -1.45 3.10 -4.10 6.05 -10.05 2.15 -4.45 3.95 -8.35 3.95 -8.60 0 -1.25 0.90 -0.40 1.90 1.90 0.60 1.30 2.05 3.25 3.15 4.30 1.95 1.80 2.05 2 1.75 4.10 -0.25 2.05 -2 5.05 -2.90 5.10 -0.25 0.05 -0.40 -0.45 -0.40 -1.10 0 -0.85 -0.40 -1.25 -1.60 -1.60 -1.25 -0.40 -1.75 -0.90 -2.10 -2.10 -0.55 -1.95 -0.95 -2.05 -1.70 -0.45 -0.40 0.85 -0.40 1.75 0 3.10 0.25 1.05 0.35 3.25 0.15 5.05 -0.30 2.90 -0.50 3.30 -2.35 4.90 -3.10 2.65 -6.85 3.85 -11.30 3.65 l-3.70 -0.15 0.30 1.40 c0.15 0.80 0.95 2.35 1.80 3.50 0.80 1.15 2 3.25 2.70 4.70 0.65 1.40 1.75 2.85 2.40 3.15 0.60 0.35 2.05 1.50 3.20 2.55 l2 2 1.95 -1.55 c1.10 -0.85 2.50 -1.50 3.30 -1.50 0.80 0 1.45 -0.20 1.45 -0.50 0 -0.25 0.55 -0.50 1.25 -0.50 1.25 0 1.25 0 0.50 1.80 -0.40 1 -1.55 2.70 -2.50 3.75 -1.55 1.75 -1.75 2.25 -1.75 4.70 0 1.85 -0.20 2.75 -0.60 2.75 -0.35 0 -1.10 0.10 -1.65 0.25 -0.55 0.15 -1.40 0 -1.85 -0.25z"/>
  <path d="M84.50 79 c0 -2.30 1 -4 2.30 -4 1.05 0 1.10 0.15 0.70 1.25 -1.55 4.10 -3 5.45 -3 2.75z"/>
  <path d="M85.80 72.95 c-0.50 -2.55 -0.35 -3.95 0.40 -3.95 0.40 0 0.90 0.95 1.25 2.20 0.75 3 0.70 3.30 -0.40 3.30 -0.65 0 -1 -0.50 -1.25 -1.55z"/>
  <path d="M85 64 c0 -3.65 0.10 -4 1 -4 0.90 0 1 0.35 1 4 0 3.65 -0.10 4 -1 4 -0.90 0 -1 -0.35 -1 -4z"/>
  <path d="M34 58 c-0.55 -1.05 -0.15 -1.25 3 -1.60 1 -0.10 1.25 -0.45 1.25 -1.60 0 -1.30 -0.15 -1.40 -2.25 -1.55 -1.35 -0.05 -3.60 0.35 -5.70 1.05 l-3.45 1.20 -2.80 -2.65 c-1.55 -1.45 -3.95 -3.50 -5.35 -4.55 -2.35 -1.75 -2.60 -2.10 -2.85 -4.45 -0.35 -2.85 -1.05 -3.85 -1.95 -2.95 -0.90 0.90 -1.95 0.75 -5.20 -0.70 -2.90 -1.30 -2.95 -1.30 -1.70 -2 0.70 -0.35 2.45 -0.65 3.90 -0.70 2.80 0 3.50 -0.85 1.10 -1.30 -0.80 -0.20 -1.50 -0.50 -1.50 -0.70 0 -0.20 1.65 -1.35 3.65 -2.55 1.95 -1.20 4.75 -3.35 6.15 -4.75 1.40 -1.45 3.05 -2.75 3.60 -2.90 1.55 -0.50 5.60 -5.25 5.95 -6.90 0.15 -0.75 0.45 -1.40 0.60 -1.40 0.20 0 2.15 -1.45 4.30 -3.25 6.05 -5.05 6.75 -4.15 2.10 2.70 -1.35 2 -3 4.85 -3.65 6.25 -1.15 2.55 -1.15 2.75 -0.45 5.45 0.40 1.60 1.10 3.65 1.50 4.65 1 2.45 0.95 3.20 -0.25 3.20 -0.75 0 -1 -0.35 -1 -1.25 0 -0.70 -0.20 -1.25 -0.45 -1.25 -0.25 0 -0.85 -1.55 -1.35 -3.45 -1.10 -4.15 -1.25 -4.15 -6.45 0.30 -2.45 2.05 -4.75 3.55 -6.40 4.10 -2.20 0.75 -2.60 1.10 -2.75 2.30 -0.10 0.90 0.10 1.55 0.55 1.85 0.45 0.20 0.90 1.05 1.10 1.85 0.35 1.60 1.90 3.15 5.50 5.55 1.40 0.95 3.60 2.65 4.95 3.85 1.40 1.25 2.75 2.10 3.15 1.90 0.40 -0.15 0.90 -0.25 1.15 -0.25 0.45 0 0.90 -2.45 1.30 -7.10 0.20 -2.35 0.50 -3.40 1 -3.40 1 0 1.35 2.95 0.75 6.25 -0.30 1.60 -0.55 3 -0.55 3.05 0 0.05 0.95 0.25 2.15 0.45 3.05 0.50 3.60 0.95 4.30 3.20 0.95 3.30 -0.55 5.05 -4.40 5.05 -1.50 0 -2.15 -0.25 -2.55 -1z"/>
  <path d="M82.85 40.15 c-0.20 -0.15 -0.35 -0.65 -0.35 -1.05 0 -0.60 0.15 -0.60 0.75 -0.10 0.40 0.35 0.75 0.80 0.75 1.05 0 0.55 -0.70 0.60 -1.15 0.10z"/>
  <path d="M44.10 22.45 c-0.90 -0.60 -1.55 -1.20 -1.40 -1.30 0.25 -0.30 4.80 1.70 4.80 2.05 0 0.65 -1.85 0.20 -3.40 -0.75z"/>
 </g>
 <g fill="#d6d1da">
  <path d="M61.90 96.15 c-2 -4.40 -2.20 -5 -2.80 -8.25 -0.55 -2.80 -0.10 -3.95 1.15 -2.90 1.05 0.85 4.60 6.35 7.25 11.20 l2.10 3.80 -2.95 0 -2.95 0 -1.80 -3.85z"/>
  <path d="M95.25 98.45 c0.40 -1.80 4.05 -9.95 4.50 -9.95 0.15 0 0.25 2.60 0.25 5.75 l0 5.75 -2.55 0 -2.55 0 0.35 -1.55z"/>
  <path d="M72.75 85.45 c-1.10 -1.10 -2.65 -2.35 -3.40 -2.80 -0.90 -0.45 -1.90 -1.70 -2.65 -3.30 -0.70 -1.45 -1.90 -3.55 -2.70 -4.65 -1.35 -1.90 -3.30 -8.55 -2.70 -9.15 0.10 -0.15 1.30 0.15 2.60 0.60 1.30 0.45 3.05 0.85 3.95 0.85 2.40 0 6.75 -1.80 9 -3.75 2.40 -2.05 2.95 -4.50 1.85 -8.30 -0.70 -2.30 -0.65 -2.55 0.35 -4.55 0.60 -1.20 1.50 -2.65 1.95 -3.25 l0.90 -1.15 1.05 2.45 c0.55 1.40 1.05 2.70 1.05 3 0 0.65 1.65 1.55 2.95 1.55 0.55 0 1.10 0.20 1.25 0.40 0.40 0.65 -1.35 4 -2.20 4.25 -0.55 0.20 -0.55 0.25 0.15 0.30 0.90 0.05 1.15 1.70 0.55 3.95 -0.45 1.55 -1.60 1.40 -1.80 -0.25 -0.20 -1.50 -0.20 -1.50 -1.65 2.50 -0.45 1.30 -1.15 2.70 -1.55 3.05 -0.40 0.40 -0.70 0.85 -0.70 1.05 0 0.20 -0.65 0.95 -1.45 1.75 -1 1 -1.50 2.15 -1.75 3.80 -0.15 1.30 -0.10 2.50 0.10 2.65 0.25 0.15 0.55 0.65 0.70 1.10 0.35 0.90 5.05 1.70 5.30 0.90 0.10 -0.25 0.50 -0.45 0.90 -0.45 0.65 0 1 -2 0.80 -4.50 -0.05 -0.40 -0.20 -2.50 -0.40 -4.60 -0.30 -3.40 -0.25 -3.90 0.45 -3.90 0.55 0 0.90 0.60 1.10 1.90 0.15 1 0.50 3.20 0.80 4.85 0.50 3 0.50 3.05 -1.75 7.95 -2.10 4.50 -2.40 4.90 -3.50 4.60 -0.85 -0.20 -1.75 0.15 -3.35 1.45 -1.20 0.95 -2.65 1.75 -3.20 1.75 -0.60 0 -1.95 -0.90 -3 -2.05z"/>
  <path d="M38.30 57.70 c-0.20 -0.45 -0.10 -1.10 0.20 -1.40 0.75 -0.95 -0.80 -2.70 -2.80 -3.10 -0.95 -0.15 -2.75 -0.05 -4 0.30 l-2.25 0.65 -2.35 -2.10 c-1.30 -1.15 -3.70 -3 -5.35 -4.10 -3.30 -2.30 -5.75 -4.45 -5.75 -5 0 -0.20 -0.20 -0.95 -0.50 -1.70 -0.40 -1.05 -0.60 -1.20 -1.40 -0.70 -0.70 0.45 -1.40 0.30 -3.50 -0.75 -1.45 -0.75 -2.50 -1.55 -2.35 -1.80 0.15 -0.30 1.55 -0.50 3.05 -0.50 2.95 0 3.45 -0.50 1.35 -1.45 -1.15 -0.55 -1.25 -0.70 -0.55 -1.35 0.40 -0.40 1.30 -0.85 2 -0.95 3.15 -0.60 5.65 -1.95 9.20 -4.95 2.10 -1.85 4.05 -3.30 4.30 -3.30 0.20 0 1.30 -0.55 2.40 -1.25 1.10 -0.70 2.05 -1.25 2.15 -1.25 0.10 0 0.05 0.75 -0.05 1.70 -0.10 1 0.40 3.45 1.40 6.25 1.50 4.50 1.55 4.85 1.40 11.45 -0.10 3.80 -0.30 7.15 -0.40 7.55 -0.20 0.55 0.40 0.85 2.20 1.10 3 0.50 3.80 1.20 4.15 3.95 0.25 1.75 0.10 2.30 -0.60 2.85 -1.20 0.85 -1.60 0.85 -1.95 -0.15z m-5.35 -11.85 c0 -0.80 -0.30 -1.75 -0.70 -2.15 -1 -1 -0.95 -3.20 0.10 -5.75 0.75 -1.90 0.75 -2.20 0 -3.65 -0.45 -0.85 -0.95 -2.15 -1.15 -2.90 l-0.30 -1.40 -1.35 0.95 c-0.70 0.50 -1.90 1.50 -2.65 2.20 -0.75 0.70 -2.80 2 -4.60 2.85 -1.80 0.90 -3.60 2 -4.05 2.50 -0.70 0.75 -0.65 0.95 0.45 2.15 0.65 0.70 2.50 2.15 4.15 3.15 1.60 1 3.70 2.50 4.75 3.30 1 0.75 2.45 1.75 3.25 2.15 1.35 0.70 1.40 0.70 1.70 -0.65 0.20 -0.75 0.35 -2 0.40 -2.75z"/>
  <path d="M33.75 20 c0.50 -1.60 0.50 -1.60 0 -2.70 -0.60 -1.35 0.55 -3.15 3.25 -5.20 3.40 -2.60 3.20 -0.95 -0.55 4.55 -1.70 2.55 -2.90 4.05 -2.70 3.35z"/>
 </g>
 <g fill="#e2dfe6">
  <path d="M77.60 80.65 c0 -0.25 -0.20 -0.95 -0.55 -1.65 -0.55 -1.25 -0.55 -1.25 -0.30 0.25 0.20 1.15 0.15 1.30 -0.25 0.70 -0.60 -1 -0.95 -7.50 -0.40 -7.15 0.20 0.15 0.40 -0.40 0.40 -1.25 0 -0.95 0.50 -2 1.50 -2.95 0.85 -0.85 1.50 -1.65 1.50 -1.85 0 -0.20 0.30 -0.65 0.70 -1.05 0.40 -0.35 1.10 -1.75 1.55 -3.05 0.50 -1.35 1 -2.75 1.15 -3.15 0.15 -0.40 0.35 -1.20 0.45 -1.75 0.20 -1.15 1.90 -2.75 2.95 -2.75 0.45 0 0.70 0.55 0.70 1.45 0 2.65 -1.05 9.30 -1.60 9.95 -0.40 0.45 -0.30 0.60 0.25 0.60 0.55 0 0.90 0.65 1.10 1.90 0.15 1 0.50 2.75 0.75 3.80 0.35 1.65 0.20 2.45 -1 5.15 -1.60 3.45 -2.10 3.70 -5.40 2.55 -1.40 -0.50 -1.80 -0.50 -1.95 0 -0.25 0.65 -1.70 0.85 -1.55 0.25z m7.75 -9.20 c-0.55 -3.15 -0.70 -3.50 -1 -2.30 -0.40 1.45 -0.25 2.40 0.75 5 0.85 2.20 0.90 1.35 0.25 -2.70z"/>
  <path d="M39.60 56.40 c-0.35 -0.35 -0.60 -0.80 -0.60 -1.10 0 -0.25 -0.40 -0.90 -0.85 -1.40 -0.80 -0.85 -0.75 -0.90 0.20 -0.75 1.45 0.20 2.65 1.30 2.65 2.40 0 1.15 -0.70 1.55 -1.40 0.85z"/>
  <path d="M31.10 52 c-0.60 -0.55 -1.20 -1 -1.40 -1 -0.20 0 -1.50 -0.85 -2.90 -1.90 -1.40 -1.05 -3.85 -2.75 -5.45 -3.80 -4 -2.50 -5.35 -4.05 -5.35 -6.10 0 -0.90 0.25 -1.80 0.50 -1.95 0.30 -0.20 0.35 -0.60 0.20 -0.90 -0.20 -0.35 -0.20 -0.45 0 -0.25 0.45 0.40 7.10 -2.90 8.35 -4.15 1.15 -1.15 6.20 -4.95 6.60 -4.95 0.15 0 0.55 0.95 0.85 2.15 0.30 1.15 0.85 2.70 1.25 3.40 0.45 0.85 0.70 3.05 0.75 6.75 0.05 3 0.10 5.70 0.10 5.95 0.05 0.30 -0.10 1.70 -0.30 3.15 -0.25 2.15 -0.20 2.60 0.45 2.60 0.40 0 0.75 0.25 0.75 0.55 0 0.25 -0.20 0.35 -0.50 0.20 -0.25 -0.15 -0.50 -0.10 -0.50 0.20 0 0.25 0.30 0.60 0.65 0.70 0.35 0.15 0.25 0.30 -0.25 0.30 -0.55 0.05 -0.90 -0.30 -0.90 -0.80 -0.05 -0.85 -0.05 -0.85 -0.55 0 -0.65 1.10 -1 1.10 -2.35 -0.15z m-4.50 -13.25 c0.30 -0.70 0.75 -1.25 1 -1.25 0.20 0 0.40 -0.35 0.40 -0.75 0 -0.40 -0.35 -0.75 -0.75 -0.75 -0.40 0 -0.75 0.40 -0.75 0.85 0 0.45 -0.50 1.35 -1.10 2 -0.90 1 -0.95 1.15 -0.25 1.15 0.50 0 1.15 -0.55 1.45 -1.25z"/>
  <path d="M10.65 38.30 c0 -0.40 0.40 -0.55 0.95 -0.40 0.50 0.10 0.90 0.40 0.90 0.65 0 0.25 -0.40 0.45 -0.90 0.45 -0.50 0 -0.95 -0.30 -0.95 -0.70z"/>
  <path d="M37.80 12.05 c-0.15 -0.25 0.05 -0.60 0.50 -0.75 1 -0.40 1.45 -0.05 0.95 0.65 -0.40 0.65 -1.10 0.70 -1.45 0.10z"/>
 </g>
 <g fill="#eaeaf0">
  <path d="M84.45 77.70 c-0.35 -0.45 -0.70 -1.15 -0.75 -1.60 -0.10 -0.40 -0.40 -0.90 -0.75 -1.10 -0.35 -0.25 -0.45 -0.80 -0.25 -1.25 0.25 -0.75 0.20 -0.80 -0.45 -0.25 -0.65 0.55 -0.75 0.30 -0.75 -1.70 0 -1.60 0.20 -2.25 0.55 -2 0.40 0.20 0.45 0 0.20 -0.75 -0.20 -0.65 -0.10 -1.05 0.25 -1.05 0.35 0 0.50 -0.35 0.30 -0.75 -0.15 -0.40 -0.10 -0.75 0.15 -0.75 0.40 0 1 -1.30 1.35 -3 0.60 -3.15 0.80 -3.80 1.25 -4.25 0.25 -0.25 0.45 -0.85 0.45 -1.35 0 -0.50 0.15 -0.90 0.40 -0.90 0.20 0 0.25 2.10 0.15 4.60 -0.10 2.55 0.10 6.70 0.45 9.20 0.55 4 0.50 4.75 -0.20 6.10 -0.95 1.80 -1.40 1.95 -2.35 0.80z"/>
  <path d="M22.65 43.50 c-0.90 -0.55 -1.65 -1.30 -1.65 -1.70 0 -0.40 0.90 -1.85 2 -3.25 1.25 -1.60 1.70 -2.40 1.10 -2.20 -0.45 0.15 0.05 -0.65 1.10 -1.75 1.10 -1.15 2.15 -1.95 2.40 -1.80 0.20 0.15 0.55 -0.05 0.70 -0.50 0.15 -0.40 0.70 -0.70 1.20 -0.65 0.50 0.05 0.85 0.20 0.70 0.40 -0.10 0.20 0 0.45 0.25 0.55 0.30 0.05 0.60 0.80 0.75 1.55 0.20 1.10 0.10 1.35 -0.50 1.15 -0.50 -0.20 -0.70 0.10 -0.70 0.85 0 0.90 0.10 0.95 0.55 0.35 0.40 -0.60 0.45 -0.55 0.30 0.25 -0.10 0.55 -0.40 0.95 -0.70 0.90 -0.30 -0.05 -0.50 0.25 -0.45 0.75 0 0.45 -0.20 0.80 -0.55 0.75 -0.30 -0.05 -0.70 0.20 -0.85 0.65 -0.15 0.40 -0.10 0.60 0.20 0.45 0.30 -0.15 0.50 -0.05 0.50 0.20 0 0.30 -0.35 0.55 -0.75 0.55 -0.40 0 -0.85 0.70 -1.05 1.75 -0.25 1.50 -0.50 1.75 -1.65 1.75 -0.70 0 -2.05 -0.45 -2.90 -1z"/>
 </g>
</svg>