<?xml version="1.0" encoding="utf-8"?>
<!DOCTYPE svg PUBLIC "-//W3C//DTD SVG 1.0//EN" "http://www.w3.org/TR/2001/REC-SVG-20010904/DTD/svg10.dtd">
<svg version="1.0" xmlns="http://www.w3.org/2000/svg" width="100px" height="100px" viewBox="0 0 100 100" preserveAspectRatio="xMidYMid meet">
 <g fill="#18110c">
  <path d="M14 99.75 c0 -0.35 8.55 -10.75 8.80 -10.75 0.10 0 0.20 0.80 0.20 1.75 0 1.20 -0.25 1.75 -0.70 1.75 -0.40 0 -0.80 0.50 -0.90 1.15 -0.10 0.60 -0.65 1.30 -1.25 1.60 -0.65 0.25 -1.15 0.90 -1.15 1.40 0 0.55 -0.45 1.05 -1 1.20 -0.55 0.15 -1 0.70 -1 1.20 0 0.70 -0.35 0.95 -1.50 0.95 -0.80 0 -1.50 -0.10 -1.50 -0.25z"/>
  <path d="M95.20 99.60 c-0.30 -0.20 -0.85 -1.20 -1.25 -2.20 -0.35 -1.05 -0.85 -1.90 -1.05 -1.90 -0.20 0 -0.40 -0.35 -0.40 -0.75 0 -0.40 -0.20 -0.75 -0.50 -0.75 -0.25 0 -0.50 -0.35 -0.50 -0.75 0 -0.40 -0.15 -0.75 -0.40 -0.75 -0.20 0 -0.75 -0.60 -1.20 -1.35 -0.50 -0.80 -0.90 -1.10 -0.90 -0.75 0 0.35 -0.70 0.60 -1.75 0.60 -1.65 0 -1.75 -0.10 -1.75 -1.75 0 -1.20 -0.25 -1.75 -0.75 -1.75 -0.45 0 -0.75 -0.45 -0.75 -1.05 0 -0.95 0.20 -1.05 1.85 -0.70 2.45 0.45 3.65 1.10 3.65 2 0 0.35 0.40 0.80 0.90 0.95 0.50 0.20 2 2 3.35 4.10 3.20 5.05 3.90 8.45 1.45 6.80z"/>
  <path d="M38 97 c0 -1.95 0.05 -2 1.75 -2 1.70 0 1.75 0.05 1.75 2 0 1.95 -0.05 2 -1.75 2 -1.70 0 -1.75 -0.05 -1.75 -2z"/>
  <path d="M44.85 97.65 c-0.20 -0.15 -0.35 -1.20 -0.35 -2.25 0 -1.95 0 -1.95 1.90 -1.80 1.80 0.15 1.85 0.20 2 2.30 0.15 2.10 0.15 2.10 -1.55 2.10 -0.90 0 -1.85 -0.15 -2 -0.35z"/>
  <path d="M51.50 95 c0 -1.35 -0.15 -1.50 -1.65 -1.50 -0.90 0 -1.90 -0.25 -2.25 -0.60 -0.35 -0.35 -1.50 -0.55 -2.60 -0.45 -2 0.15 -2 0.10 -2 -1.70 0 -1.05 0.30 -1.90 0.70 -2.05 0.50 -0.20 0.60 -0.90 0.40 -2.50 l-0.25 -2.20 1.80 0 c1 0 1.95 0.25 2.10 0.50 0.15 0.30 0.90 0.50 1.55 0.50 1.20 0 1.25 0.15 1.15 2 -0.10 1.10 0.10 2.25 0.45 2.60 0.35 0.35 0.60 1.30 0.60 2.15 l0 1.50 1.60 -1.75 c0.85 -0.95 3 -3.50 4.75 -5.60 2.90 -3.45 3.45 -3.90 4.95 -3.90 1.60 0 1.70 0.10 1.70 1.70 0 1.85 -0.40 2.45 -6.20 8.95 -3 3.35 -3.65 3.85 -5.10 3.85 -1.55 0 -1.70 -0.15 -1.70 -1.50z"/>
  <path d="M24 88.90 c0 -0.35 1.20 -1.15 2.65 -1.75 1.40 -0.60 3.45 -1.45 4.50 -1.85 l1.85 -0.80 0 1.25 c0 1.10 -0.20 1.25 -1.75 1.25 -1.20 0 -1.75 0.25 -1.75 0.75 0 0.40 -0.45 0.75 -1 0.75 -0.55 0 -1 0.25 -1 0.50 0 0.30 -0.80 0.50 -1.75 0.50 -1.05 0 -1.75 -0.25 -1.75 -0.60z"/>
  <path d="M77.15 84.65 c-0.35 -0.10 -0.65 -0.55 -0.65 -0.95 0 -0.45 -0.55 -0.70 -1.70 -0.70 -0.95 0 -2.05 -0.35 -2.50 -0.75 -0.40 -0.40 -1.20 -0.75 -1.75 -0.75 -0.80 0 -1.05 -0.30 -1.05 -1.25 l0 -1.25 2.40 0.95 c5.10 2.05 9.10 4.05 9.10 4.55 0 0.50 -2.70 0.65 -3.85 0.15z"/>
  <path d="M35.50 83.65 c0 -0.25 0.80 -0.90 1.75 -1.55 l1.75 -1.10 0 1.50 c0 1.40 -0.15 1.50 -1.75 1.50 -0.95 0 -1.75 -0.15 -1.75 -0.35z"/>
  <path d="M42 79.05 c0 -0.25 0.35 -0.70 0.75 -1.05 0.40 -0.35 0.75 -0.95 0.75 -1.30 0 -0.40 0.45 -0.70 1 -0.70 0.80 0 1 0.35 1 1.75 0 1.65 -0.10 1.75 -1.75 1.75 -0.95 0 -1.75 -0.20 -1.75 -0.45z"/>
  <path d="M43.30 74.40 c-0.15 -0.65 -0.30 -1.75 -0.30 -2.50 0 -1.25 -0.15 -1.35 -1.50 -1.05 -1.30 0.25 -1.50 0.15 -1.50 -0.80 0 -0.95 0.30 -1.05 2.50 -1.05 l2.50 0 0 3.25 c0 2.45 -0.15 3.25 -0.70 3.25 -0.35 0 -0.80 -0.50 -1 -1.10z"/>
  <path d="M33.35 67.35 c-1.50 -3.15 -3.85 -9.30 -3.85 -10.05 0 -0.45 0.40 -0.80 1 -0.80 0.80 0 1 0.35 1 1.50 0 0.85 0.25 1.50 0.50 1.50 0.30 0 0.50 0.80 0.50 1.75 0 1.20 0.25 1.75 0.75 1.75 0.45 0 0.75 0.45 0.75 1.25 0 0.70 0.25 1.25 0.50 1.25 0.30 0 0.50 0.80 0.50 1.75 0 2.20 -0.65 2.25 -1.65 0.10z"/>
  <path d="M61.80 65.65 c-0.15 -1.05 -0.30 -3.35 -0.30 -5.05 0 -2.70 0.15 -3.25 0.95 -3.45 0.60 -0.15 1.15 -1 1.50 -2.40 0.40 -1.65 0.85 -2.25 2 -2.75 0.80 -0.30 1.85 -1 2.35 -1.55 0.80 -0.90 0.80 -0.95 -0.20 -0.95 -1.05 0 -1.10 -0.25 -1.10 -3.60 0 -3.40 -0.05 -3.50 -0.90 -2.75 -0.50 0.50 -1.65 0.85 -2.50 0.85 l-1.60 0 0.30 -6.50 0.35 -6.50 -1.85 -3.70 c-1.90 -3.85 -4.40 -6.55 -6.60 -7.10 -0.80 -0.20 -3.25 0.30 -6.90 1.50 -6.65 2.10 -9.60 2.25 -15.70 0.80 -2.30 -0.55 -4.25 -1 -4.35 -1 -0.40 0 -1.25 3.75 -1.25 5.40 0 1.60 0 1.60 2.45 1.60 3.05 0 5.05 1.40 5.05 3.50 0 0.80 0.25 1.60 0.50 1.75 0.30 0.15 0.50 1.20 0.50 2.30 0 1.75 -0.15 1.95 -1.25 1.95 -0.75 0 -1.25 0.30 -1.25 0.70 0 0.95 -2.60 1.80 -5.45 1.80 l-2.30 0 -0.10 -7.60 -0.10 -7.60 -1.75 -3.35 c-3.70 -7.05 -4.80 -13.85 -3.10 -19.45 l0.65 -2.25 3.90 -0.15 3.90 -0.15 -0.35 3.45 c-0.30 2.95 -0.20 3.60 0.60 4.60 0.80 1 1.50 1.20 5.15 1.35 2.30 0.10 4.70 0.45 5.30 0.75 0.60 0.30 1.80 0.40 2.75 0.20 0.90 -0.15 2.60 -0.45 3.80 -0.60 1.15 -0.20 2.10 -0.50 2.10 -0.70 0 -0.25 0.95 -0.55 2.15 -0.75 3.30 -0.55 3.60 -0.85 2.10 -2.45 -0.70 -0.75 -1.25 -1.65 -1.25 -2 0 -0.50 -0.80 -0.60 -3.45 -0.40 -1.90 0.10 -4.25 0.10 -5.25 -0.10 -1.60 -0.30 -1.80 -0.50 -1.80 -1.80 l0 -1.50 20.25 0 20.25 0 0.95 1.90 c1.45 2.80 2.45 7.15 3.05 13.25 0.65 6.65 0.35 8.70 -2.80 16.90 -3.85 10.05 -4.30 12.25 -3.90 19.20 0.25 4.30 0.15 6.65 -0.35 8.25 -0.35 1.25 -0.60 2.40 -0.55 2.60 0.15 0.70 -4 3.40 -6 3.90 -1.05 0.30 -2.75 0.75 -3.85 1 -3.65 0.95 -4.40 0.70 -4.75 -1.35z m11.10 -21.50 c1.80 -3.60 2.30 -5.65 1.60 -6.95 -0.75 -1.40 -1.50 -1.10 -4.60 1.70 l-2.05 1.85 1.70 0.25 c1.65 0.25 1.70 0.35 1.85 2.65 0.10 1.30 0.25 2.35 0.35 2.35 0.15 0 0.65 -0.85 1.15 -1.85z m-10.35 -38.15 c0.65 -0.50 0.95 -0.95 0.65 -1 -0.35 0 -1.10 0.45 -1.75 1 -0.65 0.50 -0.95 0.95 -0.65 1 0.35 0 1.10 -0.45 1.75 -1z"/>
  <path d="M46.50 59.25 c0 -0.70 -0.65 -0.75 -6 -0.45 l-6 0.35 0 -1.75 0 -1.75 4.40 -0.60 c2.45 -0.30 6.05 -0.55 8.05 -0.55 l3.60 0 -0.15 2.65 -0.15 2.60 -1.85 0.15 c-1.50 0.15 -1.90 0 -1.90 -0.65z"/>
  <path d="M28.25 53.55 c-0.15 -0.30 -0.60 -1.40 -1 -2.50 -0.70 -2 -0.70 -2.05 0.45 -2.05 1.25 0 1.80 1.05 1.80 3.65 0 1.30 -0.65 1.80 -1.25 0.90z"/>
  <path d="M25 45.90 c-1.25 -2.70 -1.25 -3.90 -0.10 -3.90 1 0 2.10 2.45 2.10 4.65 0 2 -0.90 1.65 -2 -0.75z"/>
  <path d="M44.25 38.25 c-0.15 -1.75 -0.20 -3.45 0 -3.75 0.20 -0.30 -0.20 -0.50 -0.95 -0.50 -1.15 0 -1.30 -0.20 -1.30 -1.75 0 -1.50 0.25 -1.85 2 -2.75 4.10 -2.10 8.40 -1.80 11.50 0.85 1.15 0.95 1.50 1.65 1.50 2.95 0 1.55 -0.15 1.70 -1.50 1.70 -1.35 0 -1.50 0.15 -1.50 1.50 0 1.40 -0.15 1.50 -1.75 1.50 -1.55 0 -1.75 0.15 -1.75 1.25 0 1.45 -1.50 2.25 -4.20 2.25 l-1.70 0 -0.35 -3.25z m7.50 -4.75 c-1.75 -1.15 -2.70 -1.25 -4.60 -0.35 -1.30 0.60 -1.25 0.60 1.60 0.90 1.65 0.15 3.35 0.30 3.75 0.35 0.40 0.05 0.10 -0.35 -0.75 -0.90z"/>
 </g>
 <g fill="#2a140b">
  <path d="M78.50 98.50 c0 -0.80 0.25 -1.50 0.50 -1.50 0.30 0 0.50 -0.30 0.50 -0.60 0 -0.35 0.90 -1.85 2 -3.30 2.35 -3.05 2.55 -3.65 0.65 -1.85 -0.90 0.80 -1.95 1.25 -3 1.25 -1.50 0 -1.65 -0.15 -1.65 -1.50 0 -0.85 0.35 -2.10 0.80 -2.75 0.80 -1.20 0.80 -1.20 -3.25 -3.25 -2.25 -1.10 -4.05 -1.75 -4.05 -1.45 0 1 -1.45 1.95 -2.95 1.95 -1.40 0 -1.55 -0.15 -1.55 -1.65 0 -1.05 0.35 -1.90 1 -2.35 0.55 -0.40 1 -1 1 -1.35 0 -1.35 1.25 -1.05 8.40 2.10 4.15 1.80 7.75 3.25 8.05 3.25 0.30 0 0.55 0.70 0.55 1.50 0 1.35 0.15 1.50 1.50 1.50 2.40 0 2.10 2.35 -0.80 6.20 -1.30 1.65 -2.45 3.35 -2.55 3.70 -0.15 0.30 -0.55 0.60 -0.95 0.60 -0.40 0 -0.70 0.25 -0.70 0.50 0 0.30 -0.80 0.50 -1.75 0.50 -1.60 0 -1.75 -0.10 -1.75 -1.50z"/>
  <path d="M44.50 96.25 c0 -1.65 0.10 -1.75 1.75 -1.75 1.65 0 1.75 0.10 1.75 1.75 0 1.65 -0.10 1.75 -1.75 1.75 -1.65 0 -1.75 -0.10 -1.75 -1.75z"/>
  <path d="M35 92.90 c0 -1.20 0.25 -3.80 0.50 -5.85 0.45 -3.35 0.65 -3.85 2.35 -5.35 1.30 -1.15 2.40 -1.65 3.55 -1.70 1.55 0 1.60 0.05 1.60 2 0 1.95 -0.05 2 -1.70 2 l-1.70 0 -0.55 3.75 c-0.30 2.10 -0.55 4.55 -0.55 5.50 0 1.65 -0.10 1.75 -1.75 1.75 -1.75 0 -1.75 -0.05 -1.75 -2.10z"/>
  <path d="M55.35 92.65 c-0.20 -0.15 -0.35 -0.95 -0.35 -1.75 0 -1.20 0.20 -1.40 1.35 -1.40 l1.30 0 -1.05 1.15 c-0.60 0.65 -1.10 1.35 -1.10 1.60 0 0.25 0.65 -0.30 1.50 -1.25 l1.45 -1.75 0.05 1.90 c0 1.70 -0.10 1.85 -1.40 1.85 -0.80 0 -1.60 -0.15 -1.75 -0.35z"/>
  <path d="M44.10 89.65 c0.15 -1.65 0.30 -1.90 1.55 -2.05 1.25 -0.15 1.40 -0.05 1.10 0.85 -0.20 0.75 -0.10 1.05 0.35 0.95 0.35 -0.10 0.65 0.30 0.65 0.85 0 0.80 -0.40 1.05 -1.90 1.15 l-1.90 0.15 0.15 -1.90z"/>
  <path d="M62.35 84.65 l0.85 -1.40 -1.10 0.95 c-1.10 0.95 -1.10 0.95 -1.10 -0.35 0 -0.75 -0.20 -1.35 -0.50 -1.35 -0.25 0 -0.50 0.45 -0.50 1 0 0.80 -0.35 1 -1.75 1 -1.65 0 -1.75 -0.10 -1.75 -1.75 0 -1.40 0.20 -1.75 1 -1.75 0.60 0 1 -0.35 1 -0.80 0 -0.40 0.35 -1.10 0.75 -1.50 0.40 -0.45 0.75 -1.20 0.75 -1.75 0 -0.55 0.35 -1.10 0.75 -1.25 0.40 -0.20 0.75 -0.65 0.75 -1 0 -0.40 0.30 -0.85 0.65 -1 0.60 -0.20 0.60 -0.85 0.05 -3.85 -0.75 -4.30 -0.90 -13.75 -0.20 -15.55 0.30 -0.85 0.85 -1.30 1.50 -1.30 0.60 0 1.40 -0.35 1.80 -0.75 0.85 -0.85 4.20 -1.05 4.20 -0.25 0 0.30 -0.80 0.90 -1.75 1.35 -1.35 0.65 -1.90 1.30 -2.30 2.85 -0.70 2.55 -0.25 11.80 0.80 16.05 1 4.25 1 4.45 -1.25 6.80 -1.10 1.15 -2 2.20 -2 2.30 0 0.05 0.45 0.15 1 0.15 0.75 0 1 0.35 1 1.45 0 2.35 -0.50 3.05 -2.05 3.05 l-1.45 0 0.85 -1.35z m1.65 -22.95 c0 -2.10 -0.20 -3.15 -0.50 -2.95 -0.50 0.30 -0.60 2.95 -0.15 5.15 0.45 1.95 0.65 1.20 0.65 -2.20z"/>
  <path d="M41.50 62.25 c0 -0.70 -0.20 -1.25 -0.50 -1.25 -0.25 0 -0.50 -0.55 -0.50 -1.25 0 -1.20 -0.10 -1.25 -3.55 -1.25 -3.65 0 -4.95 0.60 -4.95 2.25 0 2.80 -2.85 -2.65 -2.95 -5.60 -0.05 -1 0.20 -1.15 1.65 -1.15 0.95 0 1.90 0.25 2.10 0.55 0.20 0.40 2 0.45 5.95 0.20 4.70 -0.30 5.65 -0.20 5.90 0.40 0.30 0.80 -1.45 1.35 -4.20 1.35 -0.80 0 -1.45 0.20 -1.45 0.40 0 0.45 6.70 0.15 8.75 -0.40 l1.50 -0.40 -1.85 -0.05 c-2.55 -0.05 -2.45 -1.05 0.05 -1.05 2.85 0 3.55 0.40 3.55 2.05 0 2.40 -4.90 6.45 -7.85 6.45 -1.45 0 -1.65 -0.15 -1.65 -1.25z"/>
  <path d="M67.15 50.15 c-0.35 -0.10 -0.65 -1 -0.65 -1.90 0 -1.20 0.25 -1.70 1 -1.90 0.75 -0.20 1 0 1 0.75 0 1.95 1.25 0.55 1.40 -1.60 0.20 -2.50 -0.65 -3.85 -1.20 -1.80 -0.40 1.65 -1.70 1.75 -1.70 0.05 0 -0.70 0.25 -2.25 0.60 -3.50 0.55 -2.05 0.75 -2.25 2.20 -2.25 l1.60 0 0.35 4.20 c0.20 2.60 0.10 4.95 -0.25 6.25 -0.50 1.90 -0.65 2.05 -2.15 2 -0.90 0 -1.90 -0.15 -2.20 -0.30z"/>
  <path d="M61.85 44.65 c-0.20 -0.15 -0.35 -1.05 -0.35 -2 0 -1.50 -0.15 -1.65 -1.45 -1.65 -0.85 0 -1.65 -0.20 -1.80 -0.50 -0.15 -0.25 -1.35 -0.50 -2.65 -0.50 -1.30 0 -2.90 -0.35 -3.60 -0.75 -0.70 -0.40 -1.60 -0.85 -2 -1.05 -1.25 -0.60 -1.45 -1.35 -0.60 -2.05 0.75 -0.55 0.55 -0.60 -1.25 -0.65 -2.30 0 -3.25 0.70 -1.55 1.20 1.75 0.45 0.45 1.30 -2.50 1.65 l-2.60 0.30 0 -1.80 c0 -0.95 0.30 -1.90 0.65 -2.05 0.50 -0.25 0.50 -0.35 0 -0.60 -0.35 -0.15 -0.65 -1.05 -0.65 -2 0 -1.60 0.10 -1.70 1.75 -1.70 0.95 0 1.75 -0.20 1.75 -0.50 0 -0.25 0.80 -0.50 1.75 -0.50 1.20 0 1.75 -0.25 1.75 -0.75 0 -0.50 0.50 -0.75 1.40 -0.75 2.35 0 3.60 0.55 3.60 1.55 0 0.70 0.35 0.95 1.40 0.95 0.80 0 1.85 0.45 2.35 1 0.85 0.95 0.90 0.95 1.80 -0.85 0.55 -1.05 0.95 -2.35 0.95 -2.95 0 -1.55 1.95 -2.15 2.85 -0.90 1 1.40 1.25 3.75 1.10 9.90 -0.20 5.45 -0.15 5.70 0.65 4.95 0.85 -0.75 0.90 -0.70 0.90 1.25 0 2.05 -0.05 2.10 -1.65 2.10 -0.95 0 -1.85 -0.15 -2 -0.35z m-9.35 -11.65 c0 -0.60 -0.35 -1 -0.85 -1 -0.50 0 -1.40 -0.15 -2 -0.30 -0.85 -0.25 -1.15 -0.10 -1.15 0.50 0 0.50 -0.45 0.85 -1.10 0.85 -1.35 0.10 1.60 0.80 3.75 0.90 1.05 0.05 1.35 -0.20 1.35 -0.95z m2.20 -0.55 c-0.50 -0.60 -1.85 -1.50 -3 -2 -2.20 -1 -3.55 -0.85 -6.65 0.75 -2.40 1.25 -1.60 1.50 1 0.30 3 -1.35 4.35 -1.25 6.95 0.45 2.75 1.80 2.90 1.85 1.70 0.50z"/>
  <path d="M73.70 41.40 c0.15 -1.45 0.30 -3.60 0.30 -4.75 0 -1.40 0.20 -2.15 0.65 -2.15 0.75 0 2.35 2.50 2.40 3.85 0 0.65 0.25 0.45 0.70 -0.60 l0.70 -1.50 0.05 1.35 c0.05 3.90 -1.95 8.15 -2.65 5.55 -0.20 -0.85 -0.25 -0.85 -0.30 0 -0.05 0.50 -0.45 0.85 -1.10 0.85 -1 0 -1.05 -0.20 -0.75 -2.60z"/>
  <path d="M25 37 c0 -0.65 0.35 -1 1 -1 0.65 0 1 0.35 1 1 0 0.65 -0.35 1 -1 1 -0.65 0 -1 -0.35 -1 -1z"/>
  <path d="M29.15 33.65 c-0.60 -0.20 -0.95 -2.65 -0.40 -2.65 0.20 0 1 0.35 1.90 0.80 l1.60 0.75 -1.40 -1.25 c-1.25 -1.15 -1.30 -1.30 -0.40 -1.30 1.90 0 2.55 0.55 2.55 2.30 0 1.60 -0.10 1.70 -1.60 1.65 -0.90 0 -1.95 -0.15 -2.25 -0.30z"/>
  <path d="M82.50 24.40 c0 -1.25 0.60 -2.90 1.05 -2.90 0.25 0 0.45 0.80 0.45 1.75 0 1.20 -0.25 1.75 -0.75 1.75 -0.40 0 -0.75 -0.30 -0.75 -0.60z"/>
 </g>
 <g fill="#2e1e14">
  <path d="M76.35 88.70 c-1.30 -0.95 -2.35 -1.95 -2.35 -2.20 0 -0.30 -0.35 -0.50 -0.75 -0.50 -0.40 0 -0.75 -0.45 -0.75 -1 0 -0.55 -0.35 -1 -0.75 -1 -0.40 0 -0.75 0.15 -0.75 0.40 0 0.20 -0.65 1.10 -1.45 2 -1.05 1.15 -1.95 1.60 -3 1.60 -1.40 0 -1.55 -0.15 -1.55 -1.70 0 -2.45 4.20 -7.60 5.50 -6.80 0.55 0.35 0.55 0.55 0.05 1.20 -0.40 0.45 -0.50 0.80 -0.30 0.80 0.20 0 0.65 -0.35 0.95 -0.75 0.50 -0.70 1.30 -0.45 6.45 1.80 3.30 1.50 5.85 2.90 5.85 3.30 0 0.45 -1.50 -0.10 -4.55 -1.65 -2.50 -1.25 -4.65 -2.20 -4.75 -2.10 -0.10 0.15 1.60 1.10 3.80 2.15 2.20 1.10 4 2.15 4 2.45 0 0.25 -0.50 1 -1.10 1.65 -0.60 0.65 -0.95 1.25 -0.80 1.45 0.15 0.15 0.75 -0.25 1.35 -0.85 0.60 -0.65 1.05 -0.95 1.05 -0.70 0 0.25 0.35 0 0.75 -0.55 0.70 -0.90 0.75 -0.85 0.65 0.80 -0.15 1.75 -0.15 1.75 -2.70 1.80 -2.15 0.10 -2.85 -0.15 -4.85 -1.60z"/>
  <path d="M30 86.40 c0.05 -0.35 1.75 -1.45 3.85 -2.40 2.10 -0.95 4.25 -2.20 4.75 -2.70 0.90 -0.95 0.90 -0.95 0.90 1.35 0 1.70 -0.20 2.35 -0.70 2.35 -0.40 0 -0.85 -0.40 -0.95 -0.85 -0.20 -0.70 -0.25 -0.70 -0.30 -0.10 -0.10 1.70 -7.60 4 -7.55 2.35z"/>
  <path d="M45 85.10 c-1.95 -0.95 -3 -2.65 -3 -4.90 0 -1.45 1 -3 1.55 -2.45 0.15 0.10 0.15 -0.55 0.05 -1.50 -0.20 -1.50 -0.05 -1.75 0.80 -1.75 0.90 0 1.15 0.50 1.65 3 0.90 4.75 3.60 6.05 8.70 4.25 2.35 -0.85 3.60 -2.40 5.15 -6.40 1.10 -3 1.40 -8.10 0.65 -11.55 -0.30 -1.35 -0.40 -1.20 -2.25 2.65 -1.30 2.80 -2.50 4.55 -3.85 5.60 -3.20 2.55 -7.30 3.20 -8.80 1.45 -0.50 -0.55 -1.15 -1 -1.50 -1 -0.35 0 -0.65 -0.45 -0.65 -1.05 0 -0.90 -0.20 -1 -2.25 -0.65 -2.05 0.30 -2.25 0.25 -2.25 -0.75 0 -0.80 0.30 -1.05 1.20 -1.05 1.40 0 5.45 -3.05 7.70 -5.80 1.65 -1.95 1.75 -2.95 0.25 -1.60 -2.25 1.95 -6.55 3.85 -9.50 4.20 l-3.15 0.35 0 -1.70 c0 -1.65 0.10 -1.75 3.75 -3.15 2.10 -0.80 3.90 -1.65 4.05 -1.85 0.15 -0.25 -2.25 -0.45 -5.25 -0.45 -3.05 0 -5.55 0.20 -5.55 0.45 0 0.25 0.55 1.70 1.25 3.25 0.70 1.55 1.25 3.05 1.25 3.35 0 0.25 0.55 1 1.25 1.65 1.15 1.10 1.75 3.30 0.85 3.30 -2.05 0 -4.25 -4.05 -7.85 -14.45 -1.20 -3.45 -2.85 -7.85 -3.70 -9.80 -1.70 -3.90 -1.90 -6.25 -0.80 -8.90 0.60 -1.45 1.10 -1.85 2.50 -2.15 2.30 -0.40 2.50 -0.15 1.25 1.45 -1.35 1.70 -1.25 1.90 0.55 1.25 1.25 -0.45 1.50 -0.75 1.30 -1.70 -0.25 -1.40 -0.30 -1.35 1.35 -0.70 0.85 0.30 1.30 0.30 1.30 0 0 -0.95 -2.75 -1.60 -5.65 -1.30 -2.60 0.25 -2.85 0.20 -2.85 -0.70 0 -0.80 0.35 -1 1.75 -1 0.95 0 1.75 0.25 1.75 0.50 0 0.30 0.25 0.50 0.50 0.50 0.80 0 0.60 -1.85 -0.25 -2.20 -0.40 -0.15 -1.45 -0.15 -2.25 0.05 -2 0.35 -2 -0.65 0 -1.10 1.10 -0.25 2.10 -0.05 3.55 0.75 2.50 1.25 3.05 1.05 1.10 -0.50 -1.15 -0.90 -1.85 -1.05 -4 -0.90 l-2.60 0.25 0.30 -2.30 c0.20 -1.85 0 -2.80 -1.05 -4.65 -1.25 -2.35 -1.15 -3.40 0.10 -1.40 0.75 1.25 1.60 1.30 1.60 0.10 0 -0.50 0.30 -1.30 0.65 -1.80 0.60 -0.80 0.95 -0.80 6.20 0.40 3.05 0.70 6.20 1.30 6.95 1.30 0.75 0 3.80 -0.80 6.75 -1.75 5.85 -1.90 9.15 -2.20 11.40 -1 1.75 0.90 3.75 3.20 5.15 5.90 0.90 1.85 0.95 2.10 0.20 2.60 -1.10 0.85 -1 1.40 0.20 1.10 1.35 -0.35 1.30 -0.25 -0.75 1.80 -1.10 1.10 -1.80 2.25 -1.80 3.20 -0.05 0.75 -0.15 2.25 -0.25 3.25 -0.10 1.05 0.05 2 0.30 2.15 0.25 0.15 0.45 -0.85 0.45 -2.35 -0.05 -3.55 0.75 -5.60 2.05 -5.25 0.60 0.15 1.05 -0.05 1.15 -0.60 0.15 -0.45 0.25 -0.15 0.30 0.60 0 0.80 -0.15 1.30 -0.40 1.10 -0.25 -0.15 -0.60 -0.05 -0.80 0.25 -0.20 0.30 -0.55 0.40 -0.80 0.25 -0.25 -0.20 -0.45 0.30 -0.40 1.10 0 1.35 0.05 1.35 0.45 0.25 0.60 -1.40 1.50 -1.40 1.55 0.05 0 0.60 0.15 2.15 0.25 3.50 0.15 1.30 0.05 2.35 -0.20 2.35 -0.50 0 -0.50 2.30 0.05 2.80 0.20 0.20 0.35 0.10 0.35 -0.25 0 -2 7.85 -9.05 10.10 -9.05 0.90 0 2.10 1.65 1.55 2.20 -0.15 0.15 -0.05 0.30 0.25 0.30 0.40 0 0.40 0.40 0 1.50 -0.25 0.85 -0.35 2.10 -0.20 2.75 0.20 0.70 0.10 1.25 -0.15 1.25 -0.30 0 -0.40 0.35 -0.25 0.75 0.40 0.95 -2.75 6.60 -4.70 8.40 -0.80 0.80 -2.25 1.80 -3.15 2.25 -1.50 0.75 -1.75 1.15 -2.20 3.75 -0.60 3.50 -0.40 8.50 0.35 8.05 0.35 -0.25 0.40 0.25 0.20 1.50 -0.20 1 -0.10 3.15 0.25 4.80 0.75 3.95 0.30 6.30 -1.30 6.70 -0.95 0.25 -1.25 0.65 -1.25 1.70 -0.05 2.20 -2.90 5.10 -5.55 5.65 -4.05 0.75 -11 0.55 -12.95 -0.45z m18.50 -7.35 c0.65 -0.70 0.95 -1.25 0.70 -1.25 -0.25 0 -0.05 -0.25 0.45 -0.55 0.45 -0.25 0.85 -0.75 0.85 -1.05 0 -0.35 -0.20 -0.35 -0.65 0.05 -0.40 0.30 -0.85 0.40 -1 0.20 -0.20 -0.15 -0.50 0.15 -0.70 0.65 -0.15 0.50 -0.60 1.15 -1 1.35 -0.70 0.45 -0.90 1.85 -0.25 1.85 0.25 0 0.95 -0.55 1.60 -1.25z m0.60 -18.35 c0.10 -2.85 -0.05 -4.65 -0.30 -4.40 -0.65 0.65 -0.95 6.75 -0.50 10.45 0.40 3.10 0.45 3.15 0.55 1.05 0.10 -1.25 0.20 -4.45 0.25 -7.10z m-16.20 -0.75 c1.05 -0.90 1.60 -1.60 1.30 -1.65 -0.40 0 -5.05 3.65 -6.20 4.90 -0.80 0.85 3.40 -1.90 4.90 -3.25z m0.35 -1.95 c0.95 -0.35 0.95 -0.40 -0.15 -0.60 -1.90 -0.30 -0.95 -1.35 1.40 -1.50 1.35 -0.10 2.30 0.05 2.55 0.45 0.25 0.45 0.50 0.15 0.75 -0.85 0.20 -0.80 0.50 -1.65 0.70 -1.95 0.60 -0.80 2.15 -6.85 2.15 -8.40 0 -0.75 -0.15 -1.50 -0.35 -1.70 -0.15 -0.15 -2.75 -0.30 -5.80 -0.25 -4.35 0 -5.50 -0.10 -5.50 -0.65 0 -0.45 -0.70 -0.75 -1.85 -0.85 -1.85 -0.15 -1.90 -0.20 -2.05 -2.30 -0.10 -1.25 0.10 -2.50 0.45 -2.95 0.35 -0.40 0.60 -1.60 0.50 -2.65 -0.10 -1.75 0 -1.90 2.30 -3 2.65 -1.30 8.55 -2 9.10 -1.10 0.20 0.30 1.10 0.65 2.05 0.70 1.40 0.15 1.80 -0.10 2.55 -1.35 1.65 -2.90 1.65 -3.55 -0.30 -5.45 -2.25 -2.30 -3.25 -2.30 -10.10 -0.05 -6.15 2 -8.25 2.15 -14.40 0.75 -2.50 -0.50 -4.65 -0.80 -4.80 -0.60 -0.20 0.20 -0.45 1.55 -0.55 3 l-0.25 2.60 1.70 0 c2.85 0 4.60 1.25 5.95 4.30 0.70 1.55 1.20 3.70 1.20 4.95 0 2.15 -0.05 2.25 -1.45 2.25 -0.80 0 -1.55 0.30 -1.75 0.75 -0.20 0.55 -1.05 0.75 -3.35 0.75 l-3.05 0 0.35 2.10 c0.20 1.15 0.65 2.40 1 2.75 0.65 0.65 2.45 4.95 3.05 7.40 0.20 0.80 0.65 1.25 1.25 1.25 0.50 0 0.95 0.25 0.95 0.50 0 0.30 2.60 0.55 6.65 0.55 5.45 0.10 6.10 0.15 3.60 0.45 -5 0.65 -11 0.55 -11.70 -0.10 -0.50 -0.55 -0.55 -0.50 -0.30 0.25 0.40 0.95 1.65 1.05 10.15 0.95 2.70 -0.05 4.60 0.10 4.60 0.40 0 0.35 0.30 0.35 0.90 0.05 0.45 -0.25 1.30 -0.65 1.85 -0.85z m21.90 -12.10 c0 -2.60 -0.35 -3.55 -0.95 -2.95 -0.60 0.60 -1 6.85 -0.50 7 0.90 0.35 1.50 -1.25 1.45 -4.05z m-22.40 -5.10 c1.10 -0.40 1.30 -0.75 1.15 -1.75 -0.15 -0.70 0 -1.25 0.30 -1.30 1.30 -0.15 2.60 0.20 3.35 0.85 1.20 1.10 3.60 1.15 3.85 0.10 0.10 -0.60 -0.45 -0.95 -2.40 -1.35 -1.40 -0.30 -3.35 -0.55 -4.25 -0.55 -0.95 0 -1.75 -0.20 -1.75 -0.50 0 -0.65 2.25 -0.65 4.40 -0.05 2.15 0.65 2.20 -0.55 0.10 -1.80 -0.80 -0.45 -1.50 -1.05 -1.50 -1.25 0 -0.65 -1.85 -0.45 -3.75 0.45 -1.85 0.90 -2.35 2.40 -0.85 2.80 0.45 0.15 0.10 0.25 -0.75 0.30 -2.05 0.05 -2.20 1.05 -0.20 1.05 1.85 0 2.40 0.80 1.35 1.95 -1.40 1.55 -1.10 1.85 0.95 1.05z m15.25 -1.80 c0 -0.30 -0.35 -0.70 -0.75 -0.90 -0.50 -0.15 -0.75 0.05 -0.75 0.65 0 0.50 0.35 0.90 0.75 0.90 0.40 0 0.75 -0.30 0.75 -0.65z m-6.20 -3.05 c-0.15 -1 -2.85 -3.30 -5.15 -4.40 -1.85 -0.90 -3.95 -0.50 -7.15 1.25 -2.30 1.25 -0.75 1.30 1.90 0 1.10 -0.55 2.50 -1 3.10 -1 1.35 0 3.50 1.10 4.70 2.45 0.55 0.60 1.25 1.05 1.65 1.05 0.35 0 0.60 0.15 0.60 0.40 -0.10 0.55 0.05 1.10 0.25 1.10 0.10 0 0.15 -0.40 0.10 -0.85z"/>
  <path d="M33.50 50.35 c0 -2.15 -0.10 -2.10 10.65 -3.70 l1.90 -0.25 -0.15 1.90 c-0.20 2.55 -1.25 3.05 -7.50 3.50 l-4.90 0.35 0 -1.80z"/>
  <path d="M75.55 46 c0 -0.95 0.45 -3 0.95 -4.50 l1 -2.75 -0.20 3.05 c-0.10 1.70 -0.55 3.70 -1 4.50 l-0.75 1.45 0 -1.75z"/>
  <path d="M18.55 10.65 c0 -1.55 0.10 -1.70 0.45 -0.90 0.60 1.40 0.60 2.75 0 2.75 -0.25 0 -0.50 -0.85 -0.45 -1.85z"/>
  <path d="M38.25 12.15 c-0.55 -0.15 -1.25 -0.45 -1.50 -0.70 -0.30 -0.20 -2 -0.35 -3.75 -0.25 -1.90 0.10 -3.55 -0.05 -3.95 -0.40 -0.60 -0.45 -0.65 -0.40 -0.35 0.10 0.35 0.55 0.20 0.60 -0.60 0.15 -1.70 -0.90 -2.60 -2.65 -2.60 -4.95 0 -1.45 -0.20 -2.05 -0.55 -1.80 -0.30 0.15 -0.15 -0.25 0.30 -1 0.50 -0.70 0.75 -1.75 0.60 -2.30 -0.25 -0.95 0 -1 7.45 -1 6.30 0 7.70 0.15 7.70 0.70 0 0.40 0.70 0.85 1.50 1.05 1.75 0.40 7.90 -0.20 8.25 -0.75 0.45 -0.70 4 0.85 4.10 1.85 0.15 0.80 0.10 0.80 -0.35 -0.10 -0.45 -0.95 -0.50 -0.95 -0.35 -0.05 0.05 0.55 0.50 1 1.05 1.10 0.50 0.05 1.15 0.35 1.45 0.65 0.80 0.80 1.90 0.65 4.10 -0.45 2.50 -1.25 3.50 -1.25 4.40 0.05 1.75 2.50 -1.15 4.75 -5.60 4.30 -1.50 -0.15 -2.50 -0.10 -2.15 0.10 0.45 0.25 -0.45 0.65 -2.30 1.05 -1.65 0.35 -3.25 0.45 -3.60 0.25 -0.30 -0.20 -0.85 -0.05 -1.25 0.25 -0.40 0.30 -1 0.40 -1.30 0.20 -0.40 -0.20 -0.45 -0.15 -0.25 0.20 0.35 0.55 -0.35 0.75 -2.80 0.75 -0.50 0 -0.90 0.15 -0.90 0.40 0 0.20 -0.40 0.35 -0.85 0.35 -0.50 -0.05 -1.80 0.05 -2.90 0.20 -1.10 0.20 -2.45 0.20 -3 0.05z m18.25 -4.50 c0 -0.60 -0.10 -0.60 -0.75 0.05 -0.40 0.40 -0.75 0.85 -0.75 1 0 0.15 0.35 0.15 0.75 0 0.40 -0.20 0.75 -0.65 0.75 -1.05z m-2.95 -3.40 c-0.75 -1.65 -2.05 -2.40 -2.05 -1.15 0 0.30 0.15 0.40 0.35 0.25 0.15 -0.20 0.70 0.35 1.20 1.15 1.25 2 1.50 1.90 0.50 -0.25z"/>
  <path d="M43.05 0.80 c-1.15 -0.65 -1.05 -0.70 1.50 -0.65 1.50 0.05 2.25 0.15 1.70 0.25 l-1 0.25 1 0.40 c0.85 0.30 0.75 0.40 -0.50 0.40 -0.80 0 -2.05 -0.30 -2.70 -0.65z"/>
 </g>
 <g fill="#35222d">
  <path d="M38 95.25 l0 -4.75 -1.30 0 -1.30 0 0.35 -3.35 c0.40 -4 1.30 -5.65 1.80 -3.35 l0.35 1.45 0.05 -1.40 c0 -0.80 0.25 -1.85 0.55 -2.35 0.55 -1.05 4.95 -4.15 5.05 -3.60 0.25 1.20 0.20 3.10 -0.05 3.10 -0.40 0 -1.45 7 -1.85 12.10 -0.30 3.90 -0.25 4.10 0.55 3.45 0.70 -0.60 0.80 -1.25 0.50 -3.90 -0.20 -2.30 -0.15 -3.35 0.35 -3.95 0.35 -0.45 0.60 -1.70 0.50 -3 -0.10 -2.15 -0.10 -2.20 1.40 -2.20 0.80 0 1.65 0.25 1.80 0.50 0.15 0.30 1.20 0.50 2.30 0.50 l2.05 0 -0.15 2.15 c-0.05 1.15 0.25 2.85 0.65 3.75 0.70 1.55 0.80 1.60 1.55 0.90 0.40 -0.45 1.10 -0.80 1.50 -0.80 0.45 0 0.90 -0.65 1.10 -1.55 0.20 -0.90 0.75 -1.65 1.25 -1.80 0.55 -0.15 1 -0.75 1.10 -1.35 0.10 -0.80 0.55 -1.10 1.80 -1.20 1.30 -0.15 1.60 -0.35 1.60 -1.40 0 -0.65 0.45 -1.65 1.05 -2.25 0.55 -0.55 1.10 -1.55 1.15 -2.20 0.05 -0.65 0.50 -1.70 0.90 -2.35 0.70 -1.10 0.70 -1.50 0.10 -3.90 -0.45 -1.85 -0.65 -5 -0.55 -9.85 0.10 -6.25 0.20 -7.25 1.05 -8 0.50 -0.50 0.80 -0.65 0.65 -0.35 -0.50 0.90 -1.25 8.45 -1 9.85 l0.25 1.25 2.90 -0.95 c3.95 -1.35 6.85 -3.95 7.55 -6.75 0.70 -2.80 1.95 -3 1.90 -0.30 -0.05 4.70 -2.70 7.45 -8.55 8.90 -3.90 0.95 -3.85 0.80 -2.60 6.35 0.70 2.95 1.20 3.95 2.75 5.55 l1.95 1.90 -1 1.35 c-0.50 0.75 -1.30 1.70 -1.75 2.05 -0.65 0.50 -0.75 0.45 -0.75 -0.40 0 -1.45 -1.10 -0.95 -1.90 0.90 -0.40 0.90 -1.05 1.50 -1.65 1.50 -0.60 0 -0.95 0.35 -0.95 1 0 0.80 0.35 1 1.50 1 1.40 0 1.50 0.15 1.50 1.75 0 1.65 -0.10 1.75 -1.75 1.75 -1.55 0 -1.75 -0.15 -1.75 -1.25 0 -1 -0.25 -1.25 -1.25 -1.25 -1.05 0 -1.25 0.25 -1.25 1.40 0 1.60 -0.80 2.60 -2.10 2.60 -0.60 0 -0.90 0.40 -0.90 1.15 0 1.80 -3.45 4.85 -5.45 4.85 l-1.70 0 0.25 -2.25 c0.25 -2.05 0.15 -2.25 -0.75 -2.25 -0.80 0 -0.90 0.15 -0.45 0.60 0.35 0.35 0.60 1.45 0.60 2.50 0 1.85 -0.05 1.90 -1.75 1.90 -0.95 0 -1.75 0.25 -1.75 0.50 0 0.30 -1.65 0.50 -4 0.50 l-4 0 0 -4.75z m20.65 -6.20 c4.15 -4.75 5.15 -6.05 4.65 -6.05 -0.10 0 -1.95 2.10 -4.10 4.65 -2.15 2.50 -4 4.70 -4.15 4.85 -0.15 0.15 -0.75 0.80 -1.30 1.50 -2.50 3.10 1.05 -0.45 4.90 -4.95z m-9.60 1.65 c-1.20 -1.50 -1.35 -2.70 -0.40 -3.70 0.50 -0.60 0.45 -0.60 -0.30 0 -0.85 0.60 -1.05 0.55 -1.95 -0.50 l-1 -1.25 0.85 1.45 c0.80 1.35 0.80 1.45 -0.60 2.95 l-1.40 1.55 1.45 -1.15 1.50 -1.10 1.20 1.55 c0.65 0.80 1.30 1.50 1.40 1.50 0.15 0 -0.20 -0.60 -0.75 -1.30z"/>
  <path d="M15.55 97.75 c0.95 -0.95 1.75 -1.75 1.80 -1.75 0.10 0 0.15 0.80 0.15 1.75 0 1.65 -0.10 1.75 -1.80 1.75 l-1.80 0 1.65 -1.75z"/>
  <path d="M93 95.75 c0 -0.40 -0.20 -0.75 -0.50 -0.75 -0.25 0 -0.50 -0.35 -0.50 -0.75 0 -0.40 -0.20 -0.75 -0.50 -0.75 -0.25 0 -0.50 -0.65 -0.50 -1.50 0 -0.80 -0.25 -1.50 -0.50 -1.50 -1.25 0 -4 2.35 -4.30 3.65 -0.25 1.25 -0.50 1.40 -1.85 1.25 -1.55 -0.15 -1.60 -0.25 -1.60 -2.55 0 -2.10 -0.10 -2.35 -1.10 -2.35 -1.45 0 -1.45 -0.65 0 -1.45 0.65 -0.35 1.40 -1 1.70 -1.50 0.50 -0.80 0 -1.15 -4.40 -3.30 -2.70 -1.35 -4.95 -2.65 -4.95 -2.85 0 -0.40 0.90 -0.10 5.25 1.90 1.65 0.75 4.60 1.85 6.50 2.45 2.20 0.65 3.50 1.35 3.50 1.80 0 0.40 0.40 0.85 0.85 1.05 0.80 0.30 4.60 5.55 5.20 7.15 0.25 0.55 -0.05 0.75 -1 0.75 -0.80 0 -1.30 -0.30 -1.30 -0.75z m-6.95 -4.50 c0.60 -0.80 0.15 -0.50 -1 0.75 -1.10 1.25 -2 2.50 -2 2.75 -0.05 0.55 1.25 -0.95 3 -3.50z"/>
  <path d="M19.35 93.40 c2.45 -3.35 4.35 -5.40 5.10 -5.40 0.45 0 1.85 -0.50 3.05 -1.05 1.25 -0.60 2.85 -1.25 3.60 -1.50 1.25 -0.35 1.40 -0.25 1.40 0.85 0 0.65 -0.20 1.20 -0.50 1.20 -0.25 0 -0.50 0.50 -0.50 1.05 0 1 -0.20 1.05 -2.25 0.85 -1.95 -0.25 -2.25 -0.15 -2.25 0.65 0 0.75 -0.35 0.95 -1.75 0.95 -0.95 0 -1.75 0.25 -1.75 0.50 0 0.30 -0.35 0.50 -0.75 0.50 -0.40 0 -0.75 0.45 -0.75 1 0 0.80 -0.35 1 -1.55 1 -1.15 0 -1.45 -0.15 -1.10 -0.60z"/>
  <path d="M69.50 83.05 c0.65 -1.30 2.15 -1.40 1.90 -0.15 -0.10 0.45 -0.70 0.90 -1.30 1 -1.05 0.15 -1.10 0.05 -0.60 -0.85z"/>
  <path d="M44.90 80.25 c-0.75 -2.35 -0.95 -4.25 -0.45 -4.25 0.70 0 1.20 2 0.95 3.80 -0.15 1.25 -0.20 1.30 -0.50 0.45z"/>
  <path d="M75.70 52.70 c-0.15 -0.95 -0.20 -3.60 -0.10 -5.85 0.20 -3.55 0.65 -5.20 3.40 -12.10 4.10 -10.55 4.40 -12.35 3.35 -21 -0.55 -4.45 -1.25 -7.85 -2.10 -9.95 -1.35 -3.45 -1.45 -3.80 -0.85 -3.80 0.25 0 1.05 1.20 1.75 2.65 1.65 3.25 2.95 10.60 3 16.85 0 4.60 -0.10 5 -2.80 12.05 -4.05 10.55 -4.50 12.75 -4.10 18.35 0.25 3.90 0.20 4.60 -0.45 4.60 -0.45 0 -0.90 -0.65 -1.10 -1.80z"/>
  <path d="M53.25 35.95 c-0.80 -0.25 -3.40 -0.50 -5.75 -0.50 -4.35 -0.05 -5 -0.30 -5 -2.15 0 -0.75 0.15 -0.85 0.55 -0.45 0.45 0.45 0.80 0.35 1.50 -0.30 1.35 -1.25 4.60 -2.25 6.10 -1.85 1.75 0.40 4.45 2.75 4 3.45 -0.15 0.35 -0.10 0.45 0.10 0.20 0.45 -0.35 2.25 1 2.25 1.75 0 0.50 -1.80 0.45 -3.75 -0.15z m-2.85 -2.95 c-0.50 -0.30 -1.25 -0.35 -2 -0.05 -1 0.45 -0.90 0.50 0.85 0.50 1.55 0 1.80 -0.10 1.15 -0.45z"/>
  <path d="M24.50 33.10 c0 -1.75 0.15 -2.05 1.30 -2.30 2.30 -0.60 5.20 0.95 5.20 2.80 0 0.75 -0.40 0.90 -2.10 0.90 -1.20 0 -2.65 0.15 -3.25 0.30 -1.05 0.30 -1.15 0.15 -1.15 -1.70z"/>
  <path d="M42.50 31.50 c0 -0.25 0.35 -0.50 0.75 -0.50 0.40 0 0.75 -0.20 0.75 -0.40 0 -0.70 3.25 -1.60 5.70 -1.60 2.35 0 5.30 1.10 5.30 2 0 0.70 -0.25 0.65 -2.60 -0.55 -2.35 -1.20 -4.15 -1.10 -7.45 0.50 -2.50 1.20 -2.45 1.20 -2.45 0.55z"/>
  <path d="M29.30 29.95 c-0.50 -0.30 -1.80 -0.45 -2.85 -0.30 -1.10 0.15 -1.95 0.05 -1.95 -0.20 0 -0.50 3.65 -0.60 5.40 -0.15 0.60 0.20 1.10 0.50 1.10 0.75 0 0.60 -0.55 0.55 -1.70 -0.10z"/>
  <path d="M25.05 26.40 c0.05 -0.35 0.25 -1.20 0.45 -1.90 0.35 -1.10 0.40 -1.05 0.45 0.65 0.05 1 -0.15 1.85 -0.45 1.85 -0.25 0 -0.50 -0.30 -0.45 -0.60z"/>
  <path d="M21.60 20 c-2 -4.10 -2.70 -6.10 -2.90 -8.30 l-0.25 -2.95 1.45 4.60 c0.80 2.55 2.20 6.10 3.05 7.90 0.90 1.80 1.55 3.50 1.45 3.75 -0.10 0.25 -1.35 -2 -2.80 -5z"/>
 </g>
 <g fill="#472917">
  <path d="M33.50 97.60 c0 -1.30 0.25 -2.65 0.55 -2.95 0.60 -0.60 0.75 -5.05 0.20 -5.60 -0.15 -0.15 -0.90 0.05 -1.65 0.50 -1.20 0.65 -1.45 1.20 -2.10 5.35 l-0.70 4.60 -1.75 0 -1.70 0 0.30 -3.20 c0.15 -1.75 0.55 -4.70 0.90 -6.50 0.50 -2.95 0.70 -3.35 1.90 -3.65 0.70 -0.15 2.80 -1.05 4.70 -2 l3.35 -1.65 0.05 1.60 c0.05 1.50 0.10 1.40 0.75 -0.85 0.65 -2.50 0.65 -2.50 0.45 2.25 -0.15 2.60 -0.40 6.95 -0.55 9.65 l-0.35 4.85 -2.15 0 -2.20 0 0 -2.40z"/>
  <path d="M56 98.50 c0 -1.15 0.20 -1.50 1 -1.50 0.80 0 1 -0.35 1 -1.50 0 -1.25 0.20 -1.50 1.25 -1.50 1.10 0 1.25 -0.20 1.25 -1.75 0 -0.95 0.25 -1.75 0.50 -1.75 0.30 0 0.50 -0.35 0.50 -0.75 0 -0.45 0.35 -0.90 0.75 -1.05 0.40 -0.20 0.75 -0.60 0.75 -1 0 -0.40 0.35 -0.70 0.75 -0.70 0.40 0 0.75 -0.35 0.75 -0.80 0 -0.85 1.15 -2.20 1.85 -2.20 0.25 0 0.85 -0.80 1.30 -1.75 0.45 -0.95 1.15 -1.75 1.60 -1.75 0.40 0 0.75 -0.25 0.75 -0.55 0 -0.25 0.25 -0.35 0.55 -0.20 0.35 0.25 0.20 0.75 -0.45 1.45 -1.75 1.95 -3.20 4.30 -2.50 4.05 0.40 -0.15 1.10 -0.95 1.60 -1.80 0.80 -1.35 1.05 -1.45 2.70 -1.15 2.35 0.45 2.75 0.65 2.40 1.50 -0.15 0.40 -0.05 0.70 0.20 0.70 0.20 0 1.05 0.60 1.85 1.40 0.75 0.75 1.95 1.75 2.65 2.20 1.15 0.75 1.20 0.90 0.55 2 -0.65 1.10 -0.65 1.15 0.30 0.30 1.20 -1.10 1.65 -1.15 1.65 -0.05 0 1.45 -2.45 4.15 -3.80 4.15 -1.05 0 -1.20 0.25 -1.20 1.75 0 1.65 -0.10 1.75 -1.75 1.75 -1.65 0 -1.75 -0.10 -1.75 -1.75 0 -1.55 0.15 -1.75 1.25 -1.75 1.15 0 1.25 -0.20 1.25 -2.10 -0.05 -2.50 -0.60 -3.40 -2.85 -4.55 -2 -1.05 -3.35 -1.05 -4.35 -0.10 -0.40 0.40 -0.95 0.75 -1.25 0.75 -0.30 0 -0.55 0.45 -0.55 1 0 0.55 -0.20 1 -0.50 1 -0.25 0 -0.50 0.35 -0.50 0.75 0 0.45 -0.35 0.90 -0.75 1.05 -0.40 0.20 -0.75 0.60 -0.75 1 0 0.40 -0.50 0.70 -1.25 0.70 -1.10 0 -1.25 0.20 -1.25 1.75 0 1.40 -0.20 1.75 -1 1.75 -0.75 0 -1 0.35 -1 1.25 0 1.10 -0.20 1.25 -1.75 1.25 -1.60 0 -1.75 -0.10 -1.75 -1.50z"/>
  <path d="M72 99.25 c0 -0.45 0.45 -0.75 1.25 -0.75 0.80 0 1.25 0.30 1.25 0.75 0 0.45 -0.45 0.75 -1.25 0.75 -0.80 0 -1.25 -0.30 -1.25 -0.75z"/>
  <path d="M78.50 98.75 c0 -0.75 0.60 -1.90 1.50 -2.75 0.85 -0.80 1.50 -1.70 1.50 -2 0 -0.25 0.45 -0.50 1.05 -0.50 1.05 0 1.05 0.20 -0.65 2.65 -0.55 0.75 -0.80 1.35 -0.55 1.35 0.20 -0.05 1.10 -1 1.90 -2.15 l1.50 -2.10 0.15 1.70 c0.10 0.95 0 1.85 -0.25 2 -0.25 0.15 -0.70 0.90 -1 1.70 -0.55 1.20 -0.90 1.35 -2.90 1.35 -2.10 0 -2.25 -0.10 -2.25 -1.25z"/>
  <path d="M50.50 85.05 c0 -0.20 1.55 -0.55 3.45 -0.75 4.50 -0.40 4.65 -0.45 6.85 -3.20 1 -1.30 1.70 -1.95 1.50 -1.45 -0.15 0.50 -0.30 1.55 -0.30 2.35 0 1 -0.30 1.45 -1.10 1.65 -0.65 0.15 -2.05 0.60 -3.15 1.05 -2.15 0.80 -7.25 1.10 -7.25 0.35z"/>
  <path d="M44.40 84.15 c-0.45 -0.50 -0.95 -1.70 -1.15 -2.65 -0.15 -0.95 -0.45 -2.15 -0.55 -2.60 -0.15 -0.50 -0.05 -0.90 0.20 -0.90 0.25 0 0.60 0.90 0.80 1.95 0.20 1.30 0.75 2.35 1.60 3 1.80 1.40 2.55 1.35 1.05 -0.05 -1.30 -1.20 -2.85 -6.60 -2.85 -9.90 0 -2.20 1.50 -3.45 2.75 -2.20 0.40 0.40 0.75 1 0.75 1.25 0 0.30 0.25 0.35 0.50 0.20 0.30 -0.15 0.50 -0.05 0.50 0.25 0 0.30 0.20 0.40 0.50 0.25 0.25 -0.15 0.95 -0.40 1.50 -0.50 2.60 -0.50 4.75 -3.10 8 -9.70 1.80 -3.60 3.40 -6.55 3.55 -6.55 0.15 0 0.45 2.75 0.70 6.15 0.20 3.35 0.45 6.90 0.55 7.85 0.25 2.40 -2.15 9.60 -3.80 11.45 -1.45 1.55 -4.15 2.55 -6.85 2.55 -1.30 0 -1.65 -0.20 -1.65 -1 0 -0.85 0.35 -1 1.95 -1 1.35 0 2.40 -0.35 3.30 -1.10 1.55 -1.35 4.05 -7.05 4.55 -10.30 l0.35 -2.25 -3 2.95 c-2 1.95 -4.40 3.65 -7.05 4.95 -4.25 2.10 -4.60 2.70 -2.80 4.80 0.40 0.45 0.65 1.50 0.60 2.40 -0.10 1.40 -0.30 1.55 -1.70 1.55 -0.85 0 -1.90 -0.40 -2.30 -0.85z"/>
  <path d="M73.40 81.65 c-1.05 -0.40 -1.90 -0.95 -1.90 -1.20 0 -0.45 3.45 0.85 4.25 1.60 0.65 0.65 -0.20 0.50 -2.35 -0.40z"/>
  <path d="M64.80 72.70 c-0.45 -1.20 -0.35 -2.70 0.20 -2.70 0.30 0 0.50 0.80 0.50 1.75 0 1.90 -0.20 2.20 -0.70 0.95z"/>
  <path d="M42.20 68.25 l0.35 -2.25 -4.65 0.35 -4.70 0.30 -1.35 -3.45 c-0.75 -1.90 -2.25 -5.90 -3.30 -8.95 -1.05 -3 -2.55 -6.95 -3.30 -8.65 -1.05 -2.55 -1.25 -3.60 -0.95 -5.25 0.20 -1.15 0.45 -1.80 0.55 -1.45 0.15 0.30 0.50 0.60 0.90 0.60 0.45 0 0.55 0.60 0.35 2.25 -0.10 1.30 0 2.25 0.25 2.25 0.70 0 1.65 2.30 1.65 4 0 0.95 0.25 1.50 0.70 1.50 0.35 0 0.80 0.45 0.95 1 0.40 1.50 1.75 1.25 1.95 -0.35 0.15 -1.15 0.50 -1.40 2.90 -1.95 3.45 -0.80 5.50 -0.85 5.50 -0.15 0 0.35 0.60 0 1.30 -0.75 0.90 -0.90 1.85 -1.30 3 -1.30 l1.70 0 0 2.65 c0 2.95 0.95 4.35 2.95 4.35 1.40 0 3 -1.85 3.05 -3.50 0 -0.70 0.30 -2.45 0.65 -3.85 0.65 -2.55 0.65 -2.60 -0.50 -2.90 -0.90 -0.20 -1.15 -0.60 -1.15 -1.95 0 -1.50 0.20 -1.70 1.60 -2 2.05 -0.40 3.05 0.45 1.35 1.20 -1.15 0.50 -0.55 0.50 1.50 -0.05 0.40 -0.10 1 0.35 1.40 1.05 0.85 1.55 0.65 4.40 -0.55 9.25 -0.15 0.50 -0.60 1.75 -1.30 3.50 -1.35 3.55 -4.60 9.80 -5.80 11.20 -1.65 1.95 -6.05 5.55 -6.80 5.55 -0.30 0 -0.40 -0.85 -0.20 -2.25z m1 -5.95 c3.30 -1.85 7.30 -5.10 7.30 -5.90 0 -0.30 -3.35 -0.40 -9.45 -0.25 -6.45 0.15 -9.65 0.05 -10 -0.30 -0.65 -0.65 -0.75 0.05 -0.25 1.40 0.25 0.55 0.45 0.65 0.70 0.30 0.20 -0.40 0.75 -0.40 1.95 0 1.25 0.45 3.05 0.45 7.25 0 8.55 -0.85 8.30 -0.90 5.75 1.45 -1.20 1.10 -3.55 2.65 -5.20 3.50 -1.65 0.80 -2.55 1.50 -2.05 1.50 0.55 0 2.35 -0.75 4 -1.70z m-1.10 -12.60 c0.75 -0.15 1.65 -0.60 2 -1.05 0.60 -0.75 0.55 -0.75 -0.45 -0.25 -0.60 0.35 -1.95 0.60 -3 0.65 -1.05 0 -2.80 0.35 -3.90 0.70 l-2 0.70 3 -0.25 c1.65 -0.15 3.60 -0.40 4.35 -0.50z"/>
  <path d="M67 52.45 c0 -0.25 0.65 -1.35 1.50 -2.35 0.80 -1 1.80 -2.75 2.25 -3.80 0.95 -2.30 1.85 -3.30 2.95 -3.30 1.10 0 1 1.15 -0.45 4 -1.85 3.70 -6.25 7.55 -6.25 5.45z"/>
  <path d="M66.85 48.95 c-0.85 -1 -0.75 -2.95 0.15 -2.95 0.30 0 1.05 3.50 0.80 3.85 -0.05 0.05 -0.50 -0.35 -0.95 -0.90z"/>
  <path d="M37.95 41.15 c-0.30 -0.80 -0.65 -2.45 -0.80 -3.75 -0.25 -2.15 -0.15 -2.50 1.60 -4.65 1.20 -1.40 2.45 -2.40 3.35 -2.60 0.75 -0.15 1.40 -0.45 1.40 -0.70 0 -0.25 0.55 -0.45 1.25 -0.45 0.70 0 1.25 -0.20 1.25 -0.50 0 -0.65 6.50 -0.65 7.50 0 1.05 0.65 2.50 -1.80 2.50 -4.30 0 -2.35 -1.15 -3.70 -3.15 -3.70 -1.50 0 -1.95 -1.45 -0.45 -1.60 3.35 -0.25 5.50 0.75 7.10 3.35 0.95 1.50 0.95 1.75 0.25 4.10 -0.40 1.40 -1.35 3.30 -2.15 4.25 l-1.40 1.75 -2.95 -1.45 c-3.30 -1.70 -4.60 -1.65 -8.40 0.10 -1.90 0.90 -2.25 1.25 -1.80 1.80 0.45 0.55 0.75 0.50 1.80 -0.30 1.40 -1.10 2.15 -1.25 2.15 -0.50 0 0.30 -0.45 0.50 -1 0.50 -0.75 0 -1 0.35 -1 1.25 0 0.85 -0.35 1.40 -1.15 1.70 -1.60 0.60 -2.50 1.90 -2.10 2.90 0.30 0.80 0.40 0.75 1.25 -0.35 0.95 -1.25 0.95 -1.25 1.70 -0.25 0.45 0.55 0.80 1.70 0.80 2.55 0 1.50 -0.10 1.60 -2.30 1.90 -4.10 0.55 -4.70 0.40 -5.25 -1.05z"/>
  <path d="M65.85 40.95 c1.15 -1.95 5.25 -5.75 6.70 -6.10 0.75 -0.20 0.40 0.40 -1.45 2.30 -1.40 1.45 -3.05 3.20 -3.75 4 -1.70 1.90 -2.65 1.75 -1.50 -0.20z"/>
  <path d="M31.50 38.75 c0 -2.45 0.20 -2.65 1.60 -1.40 0.85 0.75 0.90 0.75 0.90 -0.15 0 -0.50 -0.65 -2.25 -1.45 -3.80 l-1.40 -2.90 1.40 0 c1.10 0 1.50 0.35 2.15 2 0.80 2 1.05 6.20 0.50 7.70 -0.20 0.50 -0.90 0.80 -2 0.80 -1.70 0 -1.70 -0.05 -1.70 -2.25z"/>
  <path d="M25.60 38.40 c-0.80 -0.80 -0.75 -1.40 0.15 -1.40 0.40 0 0.75 0.45 0.75 1 0 1.15 -0.10 1.20 -0.90 0.40z"/>
  <path d="M30 33.25 c0 -1.15 0.10 -1.20 1 -0.65 1.55 0.95 1.65 1.90 0.25 1.90 -1 0 -1.25 -0.25 -1.25 -1.25z"/>
  <path d="M52.50 32.75 c-1.25 -0.65 -2.90 -1.25 -3.75 -1.25 -1.45 -0.05 -1.45 -0.05 -0.30 -0.55 0.90 -0.35 1.70 -0.20 3.35 0.55 1.15 0.60 2.40 1.40 2.70 1.80 0.80 0.90 0.70 0.90 -2 -0.55z"/>
  <path d="M24.75 28.15 c0.20 -1.05 0.50 -3.20 0.70 -4.75 0.20 -1.60 0.50 -3 0.65 -3.15 0.15 -0.15 1.40 0 2.85 0.30 3 0.65 3.60 1.95 0.80 1.95 -2.05 0 -2.75 1 -2.75 3.95 0 1.15 -0.35 2.30 -0.80 2.75 -1.30 1.35 -1.85 0.95 -1.45 -1.05z"/>
  <path d="M33 22.50 c0 -1.05 0.50 -1.20 2.40 -0.70 1.80 0.50 1.35 1.70 -0.65 1.70 -1.40 0 -1.75 -0.20 -1.75 -1z"/>
  <path d="M40.50 22.90 c0 -0.60 7.45 -3.40 8.90 -3.40 0.35 0 0.60 0.40 0.60 0.90 0 0.95 -2.70 2.10 -4.95 2.10 -0.55 0 -1.05 0.25 -1.05 0.50 0 0.30 -0.80 0.50 -1.75 0.50 -1.05 0 -1.75 -0.25 -1.75 -0.60z"/>
 </g>
 <g fill="#5d2416">
  <path d="M35 93.75 c0 -1.85 1.25 -2.50 1.65 -0.85 0.20 0.80 0.25 0.80 0.30 0 0 -0.50 0.40 -0.90 0.80 -0.90 0.50 0 0.75 0.55 0.75 1.75 0 1.40 -0.20 1.75 -0.95 1.75 -0.55 0 -1.10 -0.40 -1.20 -0.85 -0.20 -0.85 -0.25 -0.85 -0.30 0 -0.10 1.65 -1.05 0.85 -1.05 -0.90z"/>
  <path d="M32.75 64.10 c-0.55 -0.40 -1.90 -3.15 -1.65 -3.40 0.10 -0.05 0.65 0.75 1.25 1.85 0.60 1.05 1.05 1.95 1 1.95 -0.05 0 -0.35 -0.20 -0.60 -0.40z"/>
  <path d="M40.50 64 c0 -0.50 0.70 -0.70 1.95 -0.55 0.40 0.10 0.50 -0.10 0.25 -0.50 -0.20 -0.35 -0.15 -0.50 0.15 -0.30 0.30 0.20 0.65 0 0.85 -0.40 0.30 -0.85 1.30 -1 1.30 -0.20 0 0.25 -0.20 0.35 -0.50 0.20 -0.25 -0.15 -0.50 0 -0.50 0.40 0 0.35 -0.55 0.95 -1.25 1.25 -1.60 0.75 -2.25 0.75 -2.25 0.10z"/>
  <path d="M33.50 62 c-0.55 -0.55 -1 -1.20 -1 -1.50 0 -0.30 1.70 -0.55 3.90 -0.60 l3.85 -0.10 -3.50 -0.15 c-4.90 -0.25 -5.65 -0.80 -1.50 -1.15 l3.50 -0.30 -3.60 -0.10 c-2 -0.05 -3.65 -0.25 -3.65 -0.45 0 -0.25 3.70 -0.40 8.15 -0.40 l8.20 0 -1.55 1.65 c-3.50 3.80 -10.45 5.45 -12.80 3.10z m10.50 -3 c1 -0.30 1.05 -0.40 0.25 -0.40 -0.55 0 -1.65 0.20 -2.50 0.40 -1.35 0.35 -1.35 0.40 -0.25 0.40 0.70 0 1.80 -0.20 2.50 -0.40z"/>
  <path d="M32.05 56.05 c-1 -0.65 -0.30 -1.40 1.65 -1.70 1.95 -0.30 6.90 0.65 7 1.40 0.05 0.65 -7.70 0.90 -8.65 0.30z"/>
 </g>
 <g fill="#50361e">
  <path d="M26.50 98.95 c0 -0.60 0.35 -3.35 0.80 -6.15 0.60 -3.85 1 -5.25 1.80 -5.90 1.35 -1.20 2.25 -1.15 1.20 0.05 -1.25 1.35 -0.80 2.35 0.45 1.15 0.55 -0.50 1.35 -0.85 1.75 -0.75 0.50 0.15 0.55 0.10 0.20 -0.20 -0.30 -0.20 -0.55 -0.80 -0.55 -1.25 0 -0.50 0.15 -0.80 0.25 -0.65 0.15 0.15 0.70 -0.10 1.20 -0.60 0.50 -0.45 0.90 -0.65 0.90 -0.45 0 0.20 0.35 0 0.80 -0.40 1 -1 1.70 -1 1.70 0 0 0.50 -0.30 0.70 -0.70 0.55 -0.40 -0.15 -1.20 0.30 -1.85 1 -0.65 0.75 -0.95 1.20 -0.70 1 0.30 -0.15 0.95 0.05 1.45 0.40 0.75 0.55 0.90 1.45 1 4.60 0 2.15 -0.15 4.25 -0.45 4.65 -0.55 0.85 -0.60 1.05 -0.70 2.75 -0.05 1.25 -0.10 1.25 -4.30 1.25 -4 0 -4.25 -0.05 -4.25 -1.05z"/>
  <path d="M56 98.85 c0 -1.15 2.45 -5 6.85 -10.85 3.15 -4.20 4.45 -5.50 5.35 -5.50 0.70 0 0.55 0.45 -0.70 2.40 -0.85 1.30 -1.15 1.85 -0.60 1.25 0.80 -0.90 1.40 -1.10 3.15 -0.95 2.50 0.15 5.40 1.50 6.35 2.85 0.35 0.55 0.95 0.95 1.35 0.95 0.60 0 0.60 0.25 -0.05 1.75 -1 2.45 -0.90 2.60 0.80 1 l1.50 -1.45 -0.85 2.25 c-0.45 1.20 -1.30 2.90 -1.90 3.70 -0.60 0.85 -1.25 2 -1.45 2.60 -0.35 1.05 -0.55 1.10 -10.05 1.15 l-9.75 0.05 0 -1.20z"/>
  <path d="M36.75 95.30 c0.15 -2.15 0.25 -4.50 0.25 -5.15 0 -0.60 0.25 -1.15 0.50 -1.15 0.75 0 0.55 5.90 -0.30 8.25 -0.65 1.95 -0.70 1.95 -0.45 -1.95z"/>
  <path d="M37.90 84.50 c0.10 -0.80 0.30 -1.50 0.40 -1.50 0.10 0 0.20 0.70 0.20 1.50 0 0.85 -0.20 1.50 -0.40 1.50 -0.25 0 -0.35 -0.65 -0.20 -1.50z"/>
  <path d="M45.10 84.40 c-0.55 -0.65 -1.15 -1.80 -1.30 -2.65 -0.25 -1.25 -0.25 -1.30 0.15 -0.45 0.50 1.10 2.40 2.70 3.25 2.70 0.25 0 0 -0.50 -0.60 -1.15 -0.60 -0.65 -1.20 -1.90 -1.40 -2.85 -0.15 -0.95 -0.55 -2.25 -0.80 -2.85 -0.30 -0.65 -0.40 -1.30 -0.25 -1.50 0.20 -0.15 0.35 0.05 0.35 0.55 0 0.45 0.25 0.70 0.50 0.55 0.30 -0.20 0.35 -0.60 0.15 -0.90 -0.25 -0.45 -0.15 -0.45 0.40 -0.05 0.55 0.45 1.55 0.10 4.55 -1.55 3.55 -2 6.15 -4.20 9.35 -8 0.75 -0.90 1.30 -1.20 1.45 -0.85 0.10 0.35 0.40 0.45 0.70 0.30 0.40 -0.25 0.45 1 0.25 4.10 -0.20 3.40 -0.60 5.25 -1.75 7.90 -2.10 4.90 -2.75 5.40 -7.95 6.15 l-4.40 0.60 4.95 -0.20 c4.10 -0.15 5.20 -0.35 6.50 -1.30 l1.55 -1.10 -1.35 1.40 c-1.50 1.55 -4.10 2.15 -9.95 2.20 -2.80 0.05 -3.45 -0.10 -4.35 -1.05z"/>
  <path d="M35.20 69.50 c-0.80 -0.80 -2.05 -3.10 -2.80 -5.10 -1.65 -4.25 -1.75 -4.85 -0.35 -2.30 0.50 1.05 1.45 2.15 2 2.45 1.35 0.70 5.80 0.20 6.80 -0.80 0.35 -0.40 1.05 -0.55 1.50 -0.40 0.60 0.25 0.70 0.15 0.40 -0.35 -0.25 -0.40 -0.20 -0.55 0.10 -0.35 0.30 0.20 0.65 0 0.85 -0.40 0.30 -0.85 1.30 -1 1.30 -0.20 0 0.25 -0.20 0.35 -0.50 0.20 -0.25 -0.15 -0.50 0 -0.50 0.45 0 0.40 -0.30 0.85 -0.60 0.95 -0.50 0.20 -0.50 0.40 0.10 0.80 0.40 0.25 0.90 0.35 1.15 0.20 0.20 -0.15 0.55 0.20 0.70 0.80 0.15 0.60 0.50 0.90 0.80 0.70 0.35 -0.20 -0.25 0.70 -1.30 1.95 -1.40 1.75 -2.30 2.35 -3.75 2.60 -3.45 0.55 -4.45 0.35 -5.90 -1.20z"/>
  <path d="M40.95 61.20 c1.25 -0.65 2.60 -1.15 3 -1.05 0.50 0.10 0 0.55 -1.30 1.25 -2.95 1.55 -4.40 1.40 -1.70 -0.20z"/>
  <path d="M31.95 58.45 c-0.65 -1.25 -0.45 -1.50 0.95 -1.10 1.25 0.30 1.45 1.40 0.35 1.85 -0.45 0.15 -0.95 -0.15 -1.30 -0.75z"/>
  <path d="M43.50 58.10 c0 -0.60 3.35 -1.40 3.85 -0.90 0.50 0.45 0.10 0.70 -1.95 1.05 -1.25 0.25 -1.90 0.15 -1.90 -0.15z"/>
  <path d="M29 54.65 c-0.65 -1.85 -1.90 -5.05 -2.80 -7.05 -1.65 -3.65 -1.95 -4.70 -1.80 -7.10 0.10 -1.20 0.20 -1.25 3.15 -1.10 2.95 0.20 3 0.15 3.60 -1.35 0.30 -0.85 0.75 -1.55 0.95 -1.55 0.60 0 1.30 1.65 1.05 2.50 -0.20 0.65 -0.15 0.65 0.30 0 1.35 -1.95 -0.40 -6.85 -3.05 -8.50 -1.20 -0.80 -2.20 -1 -3.80 -0.85 -2.05 0.20 -2.15 0.15 -1.85 -0.85 0.15 -0.55 0.50 -2.35 0.70 -3.95 0.20 -1.55 0.60 -3.10 0.90 -3.40 0.80 -0.80 3.55 -0.70 8.60 0.35 l4.40 0.90 5.75 -1.85 c9.50 -3.05 12.35 -2.45 12.65 2.50 0.15 2.80 -0.40 4.95 -1.65 6.55 -0.90 1.15 -0.95 1.15 -3.15 0.40 -3.10 -1.10 -4.55 -1 -8.10 0.60 -3.85 1.75 -4.65 2.65 -3.80 4.05 0.55 0.85 0.50 1.15 -0.20 1.95 -0.45 0.50 -0.85 1.25 -0.90 1.65 0 0.45 -0.20 0.30 -0.50 -0.30 -0.35 -0.80 -0.40 -0.70 -0.15 0.50 0.40 2.20 1 2.55 2.25 1.45 0.65 -0.50 1 -0.70 0.80 -0.45 -0.15 0.30 0.15 0.60 0.70 0.60 0.50 0.05 0.95 -0.10 0.95 -0.40 0 -0.25 -0.20 -0.45 -0.50 -0.45 -0.25 0 -0.50 -0.45 -0.50 -1 0 -1.70 1.95 -1.30 2.35 0.50 0.15 0.85 0.55 1.50 0.95 1.50 1.40 0 3.25 -1.05 3.70 -2.10 0.40 -1.10 0.45 -1.05 0.50 0.35 l0.05 1.50 0.60 -1.25 c0.30 -0.70 0.60 -1.30 0.65 -1.40 0.05 -0.05 0.65 0.15 1.40 0.45 1.60 0.75 1.70 1.70 0.20 2.20 -1.10 0.30 -1.05 0.35 0.50 1.05 1.30 0.55 1.60 1 1.60 2.20 0 0.85 -0.20 1.50 -0.45 1.50 -0.50 0 -0.90 1.50 -1.30 5 -0.15 1.20 -0.60 2.60 -1 3 -0.40 0.45 -0.60 1 -0.40 1.15 0.15 0.20 0 0.40 -0.40 0.45 -0.40 0 -0.90 0.10 -1.20 0.15 -3.05 0.70 -3.95 0.55 -5.25 -0.95 -0.95 -1.15 -1.20 -1.95 -1.10 -3.90 0.05 -2.40 0.05 -2.45 -1.05 -1.65 -0.60 0.40 -1.80 0.75 -2.65 0.75 -2 0 -6.80 1 -7.45 1.60 -0.25 0.25 -0.10 0.40 0.40 0.40 1.15 0 0.55 1.40 -0.80 1.80 -0.60 0.15 -1.60 0.60 -2.20 1 -0.95 0.60 -1.05 0.85 -0.55 2.20 0.30 0.85 0.40 1.65 0.25 1.80 -0.15 0.15 -0.75 -1.25 -1.35 -3.15z m10.50 -18.15 c0 0.60 0.15 0.60 0.80 -0.10 1.20 -1.15 0.40 -2.20 -0.85 -1.10 -0.50 0.45 -0.95 1.10 -0.95 1.40 0 0.30 0.25 0.20 0.50 -0.20 0.40 -0.65 0.50 -0.65 0.50 0z m-0.10 -6.30 c2.75 -1.60 6.60 -2.70 9.60 -2.70 2.70 0 4.10 -0.85 5 -3 0.60 -1.40 0.55 -1.70 -0.35 -2.55 -0.95 -1 -1 -1 -7.45 1.10 -6.40 2.05 -6.45 2.05 -12.30 1.80 -4.40 -0.25 -5.90 -0.15 -5.90 0.30 0.05 1.05 1.25 2.25 2.65 2.65 0.75 0.15 2.10 1.05 3 1.95 2 2 2.95 2.10 5.75 0.45z"/>
  <path d="M25.50 38.25 c-0.50 -0.60 -0.50 -0.75 0.15 -0.75 0.95 0 1.55 0.80 0.90 1.20 -0.25 0.15 -0.70 -0.05 -1.05 -0.45z"/>
  <path d="M30.80 33.75 c-0.15 -0.40 -1 -1.20 -1.90 -1.75 -1.10 -0.65 -1.35 -1 -0.75 -1 0.45 0 1.70 0.80 2.75 1.75 1.25 1.20 1.60 1.75 1.05 1.75 -0.45 0 -0.95 -0.35 -1.15 -0.75z"/>
  <path d="M44.45 32.80 c0.35 -0.40 1.65 -1.05 2.85 -1.50 2 -0.65 2.50 -0.65 3.85 -0.05 0.90 0.35 1.30 0.70 0.95 0.70 -0.35 0.05 -1.10 -0.20 -1.60 -0.45 -0.70 -0.40 -1.65 -0.20 -3.80 0.75 -1.70 0.75 -2.60 0.95 -2.25 0.55z"/>
 </g>
 <g fill="#462b3c">
  <path d="M26 98.50 c0 -1.15 0.20 -1.50 1 -1.50 0.80 0 1 0.35 1 1.50 0 1.15 -0.20 1.50 -1 1.50 -0.80 0 -1 -0.35 -1 -1.50z"/>
  <path d="M73.50 99.40 c0 -2.20 4.95 -8.15 9.20 -11.05 1.65 -1.10 1.65 -1.70 0.05 -2.45 -2.45 -1.10 -1.20 -1.25 2.15 -0.30 4.40 1.35 4.70 1.65 2.80 3.15 -1.60 1.25 -7.70 9.75 -7.70 10.70 0 0.30 -0.45 0.55 -1 0.55 -0.75 0 -1 -0.35 -1 -1.25 0 -0.70 0.45 -1.70 1 -2.25 0.55 -0.55 1 -1.20 1 -1.50 0 -0.25 0.25 -0.50 0.50 -0.50 0.30 0 0.50 -0.35 0.50 -0.75 0 -0.40 0.25 -0.75 0.50 -0.75 0.30 0 0.50 -0.20 0.50 -0.40 0 -0.25 -0.65 -0.35 -1.50 -0.20 -1.20 0.15 -1.50 0.45 -1.50 1.45 0 0.80 -0.35 1.35 -1 1.50 -0.55 0.15 -1 0.60 -1 1 0 1.40 -1.55 3.65 -2.50 3.65 -0.55 0 -1 -0.30 -1 -0.60z m13 -10.55 c0 -0.45 -0.50 -0.60 -1.50 -0.45 -0.80 0.10 -1.50 0.40 -1.50 0.65 0 0.25 0.70 0.45 1.50 0.45 0.90 0 1.50 -0.25 1.50 -0.65z"/>
  <path d="M81 99.60 c0 -0.50 3.35 -5.95 4.85 -7.90 l1.10 -1.45 0.05 1.40 c0 0.85 -0.25 1.35 -0.75 1.35 -0.40 0 -0.75 0.45 -0.75 1 0 0.55 -0.20 1 -0.50 1 -0.25 0 -0.50 0.35 -0.50 0.75 0 0.40 -0.20 0.75 -0.50 0.75 -0.25 0 -0.50 0.35 -0.50 0.75 0 0.40 -0.20 0.75 -0.45 0.75 -0.25 0 -0.55 0.45 -0.70 1 -0.25 0.95 -1.35 1.45 -1.35 0.60z"/>
  <path d="M56.50 97.85 c0 -0.90 0.40 -2.10 0.90 -2.65 0.45 -0.50 1.15 -1.55 1.55 -2.30 0.40 -0.80 1 -1.40 1.40 -1.40 0.35 0 0.65 -0.45 0.65 -1 0 -0.55 0.25 -1 0.50 -1 0.30 0 0.50 -0.30 0.50 -0.70 0 -0.40 0.40 -0.85 0.90 -0.95 0.45 -0.15 0.10 -0.25 -0.75 -0.30 -1.55 -0.05 -1.65 0.05 -1.65 1.70 0 1.60 -0.10 1.75 -1.50 1.75 -1.40 0 -1.50 0.15 -1.50 1.75 0 1.60 -0.10 1.75 -1.55 1.75 -1.80 0 -1.90 0.20 2.85 -5.35 5.15 -6 6.60 -8.10 3.55 -5.15 -2.10 1.95 -2.35 2.10 -2.35 1.10 0 -0.75 0.30 -1.10 1 -1.10 0.75 0 1 -0.35 1 -1.25 0 -0.70 0.25 -1.25 0.50 -1.25 0.30 0 0.50 -0.35 0.50 -0.75 0 -0.40 0.25 -0.75 0.50 -0.75 0.30 0 0.50 -0.45 0.50 -1 0 -0.60 0.35 -1.70 0.75 -2.45 0.55 -1.10 0.60 -1.85 0.25 -3.10 -0.30 -0.95 -0.45 -3.50 -0.45 -5.70 l0.05 -4 0.65 4 c1.10 6.95 1.75 8.80 3.75 10.70 l1.85 1.75 -1.70 2.25 c-5.25 7.25 -6.65 9.25 -9.15 12.95 -1.50 2.25 -2.90 4.10 -3.10 4.10 -0.25 0 -0.40 -0.75 -0.40 -1.65z"/>
  <path d="M49.50 97.25 c0 -1.55 0.15 -1.75 1.30 -1.75 1 0 1.25 0.20 1 0.80 -0.25 0.70 -0.20 0.75 0.45 0.20 0.65 -0.55 0.75 -0.40 0.75 0.95 0 1.45 -0.10 1.55 -1.75 1.55 -1.65 0 -1.75 -0.10 -1.75 -1.75z"/>
  <path d="M36.50 96.40 c0 -2.40 0.50 -3.90 1.30 -3.90 0.50 0 0.70 0.75 0.70 2.75 0 2.40 -0.10 2.75 -1 2.75 -0.80 0 -1 -0.35 -1 -1.60z"/>
  <path d="M46.40 94.80 c-1.55 -1.95 -1.40 -2.30 0.95 -2.30 1.65 0 1.70 0.05 1.55 1.85 -0.20 2.40 -0.85 2.50 -2.50 0.45z"/>
  <path d="M22.50 91.55 c0 -2.10 1.15 -3.80 2.30 -3.35 0.35 0.15 0.80 0.05 0.95 -0.20 0.50 -0.85 1.15 -0.55 1.40 0.65 0.20 1.10 0.20 1.10 0.30 -0.10 0.05 -1.35 1.35 -2.50 2.75 -2.55 0.85 0 0.90 0.10 0.20 0.90 -0.45 0.45 -1 2.10 -1.25 3.60 -0.30 2 -0.65 2.80 -1.30 2.90 -0.60 0.10 -0.85 -0.15 -0.90 -1 l0 -1.15 -0.55 1.15 c-0.40 0.80 -1 1.10 -2.25 1.10 -1.60 0 -1.65 -0.05 -1.65 -1.95z"/>
  <path d="M54 92 c0 -0.70 0.35 -1 1.10 -1 1 0 1.05 0.05 0.15 1 -0.50 0.55 -1 1 -1.10 1 -0.05 0 -0.15 -0.45 -0.15 -1z"/>
  <path d="M37.55 91.55 c-1.15 -0.70 0.60 -10 2.10 -11.15 0.60 -0.50 1.35 -0.90 1.65 -0.90 0.35 0 0.70 -0.35 0.90 -0.75 0.45 -1.25 1.30 -0.85 1.30 0.65 0 1.70 -1.05 4.10 -1.80 4.10 -0.30 0 -0.45 -0.70 -0.35 -1.60 l0.15 -1.65 -0.65 1.75 c-0.40 0.95 -0.55 2.20 -0.40 2.75 0.20 0.85 0.30 0.90 0.45 0.15 0.10 -0.50 0.50 -0.90 0.90 -0.90 0.50 0 0.70 0.60 0.70 2 0 1.65 -0.15 2 -0.95 2 -0.55 0 -1.10 -0.40 -1.20 -0.85 -0.20 -0.85 -0.25 -0.85 -0.30 0 0 0.45 -0.35 0.85 -0.65 0.85 -0.45 0 -0.50 0.15 -0.10 0.40 0.30 0.20 0.70 0.70 0.85 1.10 0.20 0.60 0.30 0.55 0.30 -0.10 0.10 -1.70 1.05 -0.90 1.05 0.85 0 1.85 -1.25 2.50 -1.65 0.90 -0.20 -0.85 -0.25 -0.85 -0.30 0 -0.05 0.90 -0.90 1.10 -2 0.40z"/>
  <path d="M57 88.85 c0 -1.05 0.25 -1.35 1.10 -1.35 1.05 0 1.05 0 0.10 1.15 -0.50 0.60 -1 1.20 -1.05 1.30 -0.10 0.10 -0.15 -0.40 -0.15 -1.10z"/>
  <path d="M88 89.25 c0.35 -0.40 0.95 -0.75 1.30 -0.75 0.40 0 0.70 0.35 0.70 0.75 0 0.50 -0.50 0.75 -1.30 0.75 -1.10 0 -1.25 -0.10 -0.70 -0.75z"/>
  <path d="M65.50 66.15 c0 -0.30 1.40 -1 3.10 -1.65 1.75 -0.65 3.95 -1.90 5.10 -3 l2.05 -1.95 0.05 -8.15 0.05 -8.15 2.90 -7.25 c3.40 -8.65 4.25 -11.45 4.25 -14.60 0 -1.45 0.20 -2.40 0.55 -2.40 1.30 0 0.10 6.20 -2.50 12.95 -1.40 3.70 -3.05 8.40 -3.60 10.50 -0.90 3.45 -0.90 4.25 -0.40 8.30 1.10 8.30 -0.10 12 -4.65 14.30 -2.25 1.15 -6.90 1.85 -6.90 1.10z"/>
  <path d="M53.60 35.90 c-2.15 -0.45 -2.15 -0.45 -1.80 -2.30 0.20 -1 0.40 -1.90 0.45 -1.95 0.25 -0.35 4.25 3.55 4.25 4.15 0 0.80 0.10 0.80 -2.90 0.10z"/>
  <path d="M24.50 33.30 c0 -1 0.10 -1.80 0.20 -1.80 0.10 0 0.55 -0.15 1 -0.30 0.55 -0.20 0.80 -0.05 0.80 0.50 0 0.55 0.45 0.80 1.50 0.80 2.05 0 1.95 1.35 -0.10 1.75 -0.90 0.20 -2.05 0.45 -2.50 0.55 -0.75 0.20 -0.90 -0.05 -0.90 -1.50z"/>
  <path d="M47.50 31.80 c0 -0.80 1.60 -1.30 3 -0.95 1.85 0.50 1.15 1.65 -1 1.65 -1.35 0 -2 -0.20 -2 -0.70z"/>
  <path d="M20.25 17 c-0.60 -1 -1.20 -3.50 -0.80 -3.50 0.20 0 0.65 0.85 0.95 1.85 0.55 1.85 0.50 2.70 -0.15 1.65z"/>
  <path d="M83 16.30 c0 -2.20 -1.50 -9.85 -2.50 -12.70 -0.55 -1.50 -0.90 -2.85 -0.85 -2.95 0.10 -0.05 0.65 0.75 1.25 1.80 1.70 3.05 3.80 15.05 2.60 15.05 -0.25 0 -0.50 -0.55 -0.50 -1.20z"/>
 </g>
 <g fill="#7a2b1d">
  <path d="M35.15 62.70 c-1.05 -0.25 -2.50 -1.55 -2.10 -1.90 0.25 -0.20 11.45 -0.70 11.45 -0.45 0 0.05 -0.90 0.60 -2 1.15 -2.05 1.05 -5.45 1.60 -7.35 1.20z"/>
  <path d="M34.35 59.15 c1.20 -0.10 3.10 -0.10 4.25 0 1.20 0.10 0.25 0.20 -2.10 0.20 -2.35 0 -3.30 -0.10 -2.15 -0.20z"/>
 </g>
 <g fill="#654628">
  <path d="M73.20 81.25 c-0.90 -0.65 -0.90 -0.70 0.20 -0.40 0.60 0.15 1.25 0.45 1.40 0.70 0.40 0.70 -0.50 0.55 -1.60 -0.30z"/>
  <path d="M37.25 70.60 c-1.40 -0.30 -3.10 -1.95 -3.70 -3.65 -0.45 -1.30 -0.40 -1.35 0.60 -0.95 0.60 0.25 1.90 0.55 2.90 0.75 1.30 0.20 1.95 0.65 2.35 1.55 0.35 0.70 0.60 1.35 0.60 1.45 0 0.50 -1.85 1.05 -2.75 0.85z"/>
  <path d="M32 58.50 c-0.50 -0.90 -0.40 -1 1 -1 1.15 0 1.50 0.20 1.50 1 0 0.65 -0.35 1 -1 1 -0.50 0 -1.20 -0.45 -1.50 -1z"/>
  <path d="M38 58.50 c0 -0.90 0.35 -1 3.45 -1 1.90 0 4.20 -0.15 5.10 -0.30 1.15 -0.25 1.55 -0.15 1.20 0.20 -0.45 0.45 -7.45 2.10 -9.05 2.10 -0.40 0 -0.70 -0.45 -0.70 -1z"/>
  <path d="M32.50 48.65 c0 -2.20 2.70 -12.15 3.30 -12.15 0.80 0 1.30 1.55 1 3.10 -1.95 9.75 -2 9.90 -3.15 9.90 -0.75 0 -1.15 -0.30 -1.15 -0.85z"/>
  <path d="M26.65 43.85 c-1.80 -0.95 -2.10 -1.35 -2.15 -2.70 0 -1.55 0.05 -1.60 1.30 -1.15 0.70 0.30 2 0.50 2.95 0.50 1.90 0 3.25 0.40 3.25 1 0 0.55 -2.50 3.50 -2.90 3.45 -0.20 0 -1.30 -0.50 -2.45 -1.10z"/>
  <path d="M44.15 44.25 c-1.15 -0.50 -1.65 -1.05 -1.65 -1.80 0 -1.05 0.15 -1.10 4.40 -0.85 2.45 0.15 4.95 0.55 5.60 0.90 l1.20 0.65 -1.15 0.90 c-1.40 1.15 -6 1.25 -8.40 0.20z"/>
  <path d="M51.25 40.05 c-0.50 -0.85 0.20 -1.55 1.55 -1.55 0.75 0 1.20 0.30 1.20 0.75 0 0.40 -0.20 0.75 -0.45 0.75 -0.25 0 -0.80 0.15 -1.20 0.30 -0.40 0.15 -0.90 0.05 -1.10 -0.25z"/>
  <path d="M43.60 39.40 c-1 -1 -0.70 -1.40 0.85 -1.30 1.10 0.10 1.35 0.30 1.15 1 -0.25 1.05 -1.15 1.15 -2 0.30z"/>
  <path d="M32.85 31.80 c-1.30 -1.25 -3 -2.35 -3.80 -2.55 -2.65 -0.55 -3.85 -5.75 -1.50 -6.50 0.50 -0.15 2.20 -0.05 3.80 0.20 4.65 0.90 6.80 0.65 13.40 -1.45 7 -2.20 9.20 -2.45 10.40 -1.10 1.65 1.85 0.65 6.85 -1.60 8.10 -0.55 0.25 -1.95 0.50 -3.15 0.50 -2.95 0 -5.55 0.75 -9.65 2.75 -5.25 2.55 -5.20 2.55 -7.90 0.05z"/>
 </g>
 <g fill="#52463b">
  <path d="M14 99.75 c0 -0.15 0.90 -1.25 2 -2.35 l2 -2.10 0 1.85 c0 1.30 -0.20 1.85 -0.75 1.85 -0.40 0 -0.75 0.25 -0.75 0.50 0 0.30 -0.55 0.50 -1.25 0.50 -0.70 0 -1.25 -0.10 -1.25 -0.25z"/>
  <path d="M38.50 94.50 c0 -3.65 0.15 -5 0.65 -5 0.45 0 0.55 1.25 0.45 5 -0.10 2.75 -0.40 5 -0.65 5 -0.25 0 -0.45 -2.25 -0.45 -5z"/>
  <path d="M40.10 94.65 c0.15 -4.20 0.30 -4.90 1.05 -5.05 0.75 -0.15 0.85 0.35 0.85 4.85 0 4.75 -0.05 5.05 -1 5.05 -1 0 -1.05 -0.25 -0.90 -4.85z"/>
  <path d="M82 97.70 c0 -0.60 1.70 -3.20 2.10 -3.20 0.20 0 0.40 0.80 0.40 1.75 0 1.55 -0.15 1.75 -1.25 1.75 -0.70 0 -1.25 -0.15 -1.25 -0.30z"/>
  <path d="M81 95.85 c0 -0.85 0.25 -1.35 0.75 -1.35 0.95 0 0.95 0.45 0 1.70 -0.70 0.95 -0.75 0.95 -0.75 -0.35z"/>
  <path d="M46 84.80 c0 -1.15 0.10 -1.20 1.75 -0.65 0.95 0.30 1.75 0.80 1.75 1.20 0 0.40 -0.65 0.65 -1.75 0.65 -1.50 0 -1.75 -0.15 -1.75 -1.20z"/>
  <path d="M53.50 85.30 c0 -0.35 0.50 -0.80 1.15 -1 2.05 -0.55 2.85 -0.35 2.85 0.70 0 0.85 -0.35 1 -2 1 -1.35 0 -2 -0.20 -2 -0.70z"/>
  <path d="M61.05 80.75 c0.90 -1.25 2.05 -2.60 2.55 -3.10 0.85 -0.75 0.90 -0.70 0.90 1.05 0 1.45 -0.20 1.95 -1 2.15 -0.55 0.15 -1 0.70 -1 1.20 0 0.75 -0.35 0.95 -1.55 0.95 l-1.50 0 1.60 -2.25z"/>
  <path d="M64.60 65.50 c0 -0.95 0.10 -1.35 0.25 -0.85 0.10 0.45 0.10 1.25 0 1.75 -0.15 0.45 -0.25 0.05 -0.25 -0.90z"/>
  <path d="M51.25 39.95 c-0.55 -0.85 0.70 -2.35 1.75 -2.10 1.40 0.35 2.35 1.55 1.45 1.85 -1.85 0.55 -2.95 0.65 -3.20 0.25z"/>
  <path d="M43.75 39.30 c-1.25 -0.90 -0.65 -2.10 1.30 -2.50 1.95 -0.40 2.90 0.30 1.95 1.45 -0.45 0.55 -0.80 0.60 -1.30 0.25 -0.50 -0.45 -0.55 -0.35 -0.35 0.45 0.30 1.20 -0.25 1.35 -1.60 0.35z"/>
  <path d="M31.20 38.20 c0.45 -1.80 0.70 -2 1.35 -1.35 0.80 0.80 0.35 2.35 -0.75 2.55 -0.80 0.15 -0.90 0 -0.60 -1.20z"/>
  <path d="M25.55 38.35 c-1.25 -1.25 -0.10 -2.30 2.60 -2.35 1.25 0 1.05 0.65 -0.60 1.85 -1.05 0.80 -1.55 0.95 -2 0.50z"/>
  <path d="M18.65 8.50 c0 -1.25 0.10 -1.75 0.20 -1.10 0.10 0.60 0.10 1.60 0 2.25 -0.10 0.60 -0.20 0.10 -0.20 -1.15z"/>
 </g>
 <g fill="#553e48">
  <path d="M38.50 94.90 c0 -5.65 1.15 -14.25 1.95 -15.05 0.65 -0.65 0.70 -1.20 -0.20 5.90 -0.40 3.30 -0.75 7.85 -0.75 10.15 0 2.40 -0.20 4.10 -0.50 4.10 -0.30 0 -0.50 -2.05 -0.50 -5.10z"/>
  <path d="M40.25 94.40 c0.10 -3.10 0.45 -7.55 0.75 -9.90 1 -6.90 1.90 -8.20 2.80 -4.25 0.40 1.65 0.35 2.25 -0.05 2.25 -0.70 0 -1.75 6.50 -1.75 10.65 0 2.15 0.20 2.85 0.70 2.85 0.40 0 0.90 -0.20 1.05 -0.50 0.15 -0.25 0.05 -0.50 -0.20 -0.50 -0.30 0 -0.55 -0.80 -0.55 -1.75 0 -1.60 0.10 -1.75 1.50 -1.75 0.95 0 1.50 -0.25 1.50 -0.70 0 -1.50 1.15 -1.35 2.50 0.25 0.75 0.95 1.55 1.55 1.70 1.40 0.20 -0.20 -0.25 -1.05 -1 -1.90 -1.35 -1.60 -1.35 -3.05 0.05 -3.05 0.45 0 0.75 0.45 0.75 1.25 0 0.90 0.25 1.25 1 1.25 0.80 0 1 0.35 1 1.75 0 1.65 -0.10 1.75 -1.75 1.75 -1.20 0 -1.75 -0.25 -1.75 -0.75 0 -0.45 -0.45 -0.75 -1.05 -0.75 -0.75 0 -1 0.25 -0.85 1.15 0.10 0.80 0.45 1.05 1.30 0.95 0.95 -0.15 1.10 0.05 1.10 1.50 0 0.90 -0.20 1.90 -0.40 2.15 -0.85 1.20 -3.65 2.25 -6 2.25 l-2.45 0 0.10 -5.60z m4.50 3.25 c1.10 -1.20 1.40 -1.30 2.25 -0.75 1.15 0.70 1.25 0.50 0.40 -1 -1.30 -2.25 -3.25 -3.25 -2.30 -1.15 0.50 1.10 0.40 1.45 -0.85 2.75 -0.80 0.85 -1.30 1.50 -1.10 1.50 0.15 0 0.90 -0.60 1.60 -1.35z"/>
  <path d="M56 99.25 c0 -0.40 0.35 -0.75 0.75 -0.75 0.40 0 0.75 0.35 0.75 0.75 0 0.40 -0.35 0.75 -0.75 0.75 -0.40 0 -0.75 -0.35 -0.75 -0.75z"/>
  <path d="M94 98 c-0.35 -1.10 -0.85 -2 -1.10 -2 -0.20 0 -0.40 -0.35 -0.40 -0.75 0 -0.40 -0.20 -0.75 -0.50 -0.75 -0.25 0 -0.50 -0.55 -0.50 -1.25 0 -0.80 -0.30 -1.25 -0.75 -1.25 -0.40 0 -0.75 -0.35 -0.75 -0.75 0 -0.40 -0.35 -0.75 -0.75 -0.75 -0.45 0 -0.75 0.45 -0.75 1.05 0 0.60 -0.40 1.15 -1 1.30 -0.55 0.15 -1 0.70 -1 1.20 0 0.75 -0.35 0.95 -1.55 0.95 l-1.50 0 1.60 -2.25 c2.60 -3.60 3.75 -4.50 5.05 -3.90 1.40 0.65 5.80 7.40 6.20 9.60 0.30 1.30 0.20 1.55 -0.65 1.55 -0.70 0 -1.20 -0.55 -1.65 -2z"/>
  <path d="M26.50 96.55 c0 -3.50 0.65 -6.05 1.50 -6.05 0.70 0 0.85 0.40 0.70 2.15 -0.30 3.80 -0.70 5.35 -1.45 5.35 -0.50 0 -0.75 -0.50 -0.75 -1.45z"/>
  <path d="M17.35 95.80 c5.55 -7.25 7.65 -9.10 7.65 -6.80 0 0.55 -0.20 1 -0.50 1 -0.25 0 -0.50 0.35 -0.50 0.75 0 0.40 -0.35 0.75 -0.75 0.75 -0.40 0 -0.75 0.45 -0.75 1 0 0.80 -0.35 1 -1.50 1 -1.40 0 -1.50 0.15 -1.50 1.75 0 1.60 -0.10 1.75 -1.55 1.75 l-1.55 0 0.95 -1.20z"/>
  <path d="M75.50 95.55 c0 -0.20 0.55 -1 1.25 -1.75 l1.25 -1.35 0 1.75 c0 1.60 -0.15 1.80 -1.25 1.80 -0.70 0 -1.25 -0.20 -1.25 -0.45z"/>
  <path d="M60 92.90 c0 -1.70 0.15 -1.90 1.25 -1.90 1.55 0 1.55 0.45 0 2.30 l-1.25 1.45 0 -1.85z"/>
  <path d="M83 92.80 c0 -0.80 0.30 -1.30 0.70 -1.30 0.40 0 0.80 -0.50 0.90 -1.10 0.10 -0.75 0.55 -1.20 1.30 -1.30 0.70 -0.10 1.10 -0.50 1.10 -1.15 0 -0.60 0.35 -0.95 1 -0.95 1.25 0 1.30 0.60 0 1.35 -0.50 0.35 -1.85 1.80 -3 3.20 -1.85 2.30 -2 2.45 -2 1.25z"/>
  <path d="M55.50 89.90 c0 -1.55 0.15 -1.90 1 -1.90 0.75 0 1 -0.35 1 -1.25 0 -1.05 0.25 -1.25 1.55 -1.25 l1.50 0 -1 1.40 c-0.55 0.75 -1.65 2.15 -2.50 3.10 l-1.50 1.75 -0.05 -1.85z"/>
  <path d="M57.75 90.50 c0.50 -0.55 1 -1 1.10 -1 0.05 0 0.15 0.45 0.15 1 0 0.70 -0.35 1 -1.10 1 -1 0 -1.05 -0.05 -0.15 -1z"/>
  <path d="M25.50 89.05 c0 -0.55 0.25 -1.15 0.50 -1.30 0.30 -0.20 0.50 0.25 0.50 0.95 0 0.70 -0.20 1.30 -0.50 1.30 -0.25 0 -0.50 -0.45 -0.50 -0.95z"/>
  <path d="M44.35 88.65 c-0.50 -0.45 -0.45 -3.65 0.05 -3.65 0.70 0.05 2.20 2.55 1.90 3.30 -0.30 0.75 -1.40 0.95 -1.95 0.35z"/>
  <path d="M59.75 88 c0.50 -0.55 1 -1 1.10 -1 0.05 0 0.15 0.45 0.15 1 0 0.70 -0.35 1 -1.10 1 -1 0 -1.05 -0.05 -0.15 -1z"/>
  <path d="M29 87 c0 -0.65 0.35 -1 1 -1 0.95 0 0.95 0.05 0.15 1 -0.50 0.55 -0.95 1 -1 1 -0.10 0 -0.15 -0.45 -0.15 -1z"/>
  <path d="M83.90 87.40 c0.45 -0.45 -0.65 -1.20 -5 -3.25 -3.05 -1.45 -5.45 -2.75 -5.30 -2.90 0.15 -0.15 2.90 0.90 6.10 2.35 4.20 1.90 5.80 2.90 5.80 3.55 0 0.55 -0.40 0.85 -1.10 0.85 -0.85 0 -0.95 -0.15 -0.50 -0.60z"/>
  <path d="M46.20 85.95 c-0.95 -1.05 -0.95 -1.05 0.30 -0.90 0.70 0.10 1.30 0.60 1.40 1.10 0.25 1.15 -0.55 1.10 -1.70 -0.20z"/>
  <path d="M62.50 83.10 c0 -0.30 -0.55 -0.60 -1.25 -0.70 -1.20 -0.15 -1.20 -0.25 1.50 -3.60 1.50 -1.90 2.75 -3.75 2.75 -4.10 0 -1.40 0.85 -0.65 1.40 1.25 0.80 2.50 0.75 3.70 -0.10 5.80 -0.50 1.20 -1.10 1.75 -1.75 1.75 -1.20 0 -1.30 -0.50 -0.40 -1.50 0.30 -0.40 0 -0.20 -0.75 0.45 -0.80 0.70 -1.40 1 -1.40 0.65z m3.90 -4.90 c-0.15 -1.30 -0.20 -1.25 -0.70 0.75 -0.50 1.90 -0.50 2.05 0.15 1.40 0.40 -0.40 0.65 -1.35 0.55 -2.15z"/>
  <path d="M78.15 37.75 c0.30 -0.95 0.70 -1.75 0.90 -1.75 0.20 0 0.10 0.80 -0.20 1.75 -0.30 0.95 -0.70 1.75 -0.90 1.75 -0.20 0 -0.10 -0.80 0.20 -1.75z"/>
  <path d="M51.75 35.40 c-1.10 -0.25 -3.40 -0.40 -5.15 -0.30 -2.90 0.20 -3.15 0.10 -3 -0.75 0.25 -1.55 2.60 -2.95 5.25 -3.20 2.25 -0.25 2.60 -0.10 5.05 1.80 1.40 1.15 2.60 2.30 2.60 2.55 0 0.60 -2.05 0.55 -4.75 -0.10z"/>
  <path d="M80 33 c0.60 -1.50 1.30 -2.95 1.55 -3.25 0.30 -0.25 0.05 0.75 -0.55 2.25 -0.60 1.50 -1.30 3 -1.55 3.25 -0.30 0.30 -0.05 -0.75 0.55 -2.25z"/>
  <path d="M24.50 33.30 c0 -2.85 3.55 -3.15 6.35 -0.60 l1.85 1.65 -4.10 0 c-3.85 0 -4.10 -0.05 -4.10 -1.05z"/>
  <path d="M22.35 21.35 c-1.90 -3.80 -2.95 -6.35 -2.65 -6.35 0.35 0 4.90 9.60 4.65 9.80 -0.10 0.10 -1 -1.45 -2 -3.45z"/>
  <path d="M19 12.50 c0 -0.80 0.10 -1.50 0.20 -1.50 0.10 0 0.30 0.70 0.40 1.50 0.15 0.85 0.05 1.50 -0.20 1.50 -0.20 0 -0.40 -0.65 -0.40 -1.50z"/>
 </g>
 <g fill="#5c255d">
  <path d="M20.50 98.65 c0 -1.45 1.45 -6.40 2.55 -8.75 0.35 -0.80 0.95 -1.40 1.35 -1.40 0.70 0 0.70 0.35 -0.15 2.75 -0.20 0.65 -0.05 0.60 0.45 -0.25 0.40 -0.70 0.75 -1.65 0.80 -2.10 0 -0.50 0.85 -1.30 2 -1.90 2.70 -1.35 3.15 -1.30 2.35 0.40 -0.40 0.75 -0.85 2.20 -1.05 3.25 -0.25 1.35 -0.60 1.85 -1.25 1.85 -0.70 0 -1.15 0.90 -2 3.75 l-1.15 3.75 -1.95 0 c-1.80 0 -1.95 -0.10 -1.95 -1.35z"/>
  <path d="M36.60 98.15 c0.10 -1.35 0.40 -1.95 1.05 -2.05 0.70 -0.15 0.85 0.20 0.85 1.85 0 1.75 -0.15 2.05 -1.05 2.05 -0.85 0 -1 -0.25 -0.85 -1.85z"/>
  <path d="M48.50 98.60 c0 -1 0.65 -2 2.20 -3.55 2.85 -2.80 3.85 -2.50 1.70 0.45 -2.40 3.40 -0.15 1.25 5.10 -4.75 6.70 -7.70 9 -10.95 8.95 -12.60 -0.05 -1.25 -0.10 -1.20 -0.80 0.70 -0.40 1.20 -1.70 3.20 -2.90 4.50 -2 2.15 -2.20 2.30 -2.25 1.25 0 -0.80 0.35 -1.30 1 -1.45 0.55 -0.15 1 -0.60 1 -1.05 0 -0.40 0.55 -1.50 1.25 -2.40 0.70 -0.90 1.25 -2.10 1.25 -2.70 0 -1.65 2 -1.10 2.95 0.85 0.45 0.95 1.20 1.65 1.75 1.65 0.55 0 0.80 0.25 0.65 0.65 -0.35 0.95 -8.85 12.80 -9.40 13.15 -0.25 0.15 -0.45 -0.45 -0.45 -1.25 0 -1.05 -0.25 -1.55 -0.75 -1.55 -0.45 0 -0.75 0.45 -0.75 1.15 0 1.40 -0.85 2.35 -2.10 2.35 -0.60 0 -0.90 0.40 -0.90 1.15 0 0.65 -0.80 1.90 -1.90 3 -1.50 1.45 -2.30 1.85 -3.75 1.85 -1.70 0 -1.85 -0.10 -1.85 -1.40z m14.50 -10.85 c0 -0.40 -0.20 -0.75 -0.50 -0.75 -0.25 0 -0.50 0.35 -0.50 0.75 0 0.40 0.25 0.75 0.50 0.75 0.30 0 0.50 -0.35 0.50 -0.75z"/>
  <path d="M55.50 98.75 c0 -1 0.25 -1.25 1.25 -1.25 1.40 0 1.45 0.15 0.75 1.55 -0.75 1.40 -2 1.20 -2 -0.30z"/>
  <path d="M73.50 99.75 c0 -0.15 0.55 -1.35 1.20 -2.65 1.35 -2.60 3.80 -5.35 7.50 -8.30 2.25 -1.80 2.35 -2 1.50 -2.65 -1.10 -0.80 -0.80 -0.80 2.20 -0.10 3.25 0.80 3.50 1.20 1.60 2.75 -0.85 0.75 -2.85 3.15 -4.35 5.30 -1.50 2.15 -2.95 4 -3.20 4.15 -0.25 0.20 -0.45 -0.50 -0.45 -1.45 0 -1 0.25 -1.80 0.50 -1.80 0.30 0 0.50 -0.35 0.50 -0.75 0 -0.40 0.25 -0.75 0.50 -0.75 0.30 0 0.50 -0.35 0.50 -0.75 0 -0.40 -0.20 -0.75 -0.50 -0.75 -0.25 0 -0.50 0.30 -0.50 0.70 0 0.35 -0.35 0.95 -0.75 1.30 -0.40 0.35 -0.75 1.40 -0.75 2.30 0 1.45 -0.15 1.70 -1.20 1.70 -0.80 0 -1.35 0.35 -1.55 1 -0.20 0.65 -0.75 1 -1.55 1 -0.65 0 -1.20 -0.10 -1.20 -0.25z"/>
  <path d="M82.55 96.65 c2.60 -4.35 5.60 -7.65 6.85 -7.65 1.10 0 1.05 0.10 -0.80 1.65 -1.15 0.85 -2.05 1.90 -2.05 2.25 -0.05 0.35 -0.40 0.75 -0.80 0.90 -0.40 0.20 -0.75 0.60 -0.75 1 0 0.40 -0.20 0.70 -0.50 0.70 -0.25 0 -0.50 0.35 -0.50 0.75 0 0.40 -0.20 0.75 -0.50 0.75 -0.25 0 -0.50 0.35 -0.50 0.75 0 0.40 -0.35 0.75 -0.80 0.75 -0.65 0 -0.60 -0.30 0.35 -1.85z"/>
  <path d="M37 92.15 c0 -1.85 1.45 -9.60 1.95 -10.50 0.25 -0.55 0.85 -1.30 1.35 -1.70 0.75 -0.60 0.80 -0.50 0.55 1.30 -0.20 1.10 -0.45 3.25 -0.60 4.75 -0.50 4.65 -1.25 7 -2.30 7 -0.55 0 -0.95 -0.35 -0.95 -0.85z"/>
  <path d="M54.60 91.55 c0.15 -1.30 1.60 -2.50 2.20 -1.90 0.25 0.20 -0.25 1 -1 1.75 l-1.40 1.35 0.20 -1.20z"/>
  <path d="M40.50 89.90 c0 -2 1.35 -10.45 1.75 -10.80 0.40 -0.40 0.30 1.10 -0.35 7.05 -0.30 2.95 -0.75 5.35 -1 5.35 -0.20 0 -0.40 -0.75 -0.40 -1.60z"/>
  <path d="M57.50 88.20 c0 -1.15 1.15 -2.40 2 -2.10 0.25 0.05 -0.05 0.85 -0.75 1.65 -1.10 1.35 -1.20 1.40 -1.25 0.45z"/>
  <path d="M69 65.30 c0 -0.40 0.55 -0.85 1.25 -1 1.55 -0.40 5.25 -3.65 5.25 -4.60 0 -0.40 0.35 -0.70 0.75 -0.70 2.35 0 -0.65 4.55 -4 6.05 -2.40 1.10 -3.25 1.20 -3.25 0.25z"/>
  <path d="M83.10 22.15 c0 -1.45 0.25 -2.65 0.50 -2.65 0.55 0 0.50 3.60 -0.10 4.50 -0.35 0.55 -0.50 0 -0.40 -1.85z"/>
  <path d="M83.05 16.15 c0 -1.55 0.10 -1.70 0.45 -0.90 0.60 1.40 0.60 2.75 0 2.75 -0.25 0 -0.50 -0.85 -0.45 -1.85z"/>
 </g>
 <g fill="#5f4560">
  <path d="M26 98.90 c0 -0.65 0.15 -2.35 0.30 -3.75 0.30 -2.20 0.50 -2.65 1.35 -2.65 0.85 0 0.95 0.25 0.65 2.40 -0.60 4.20 -0.85 5.10 -1.60 5.10 -0.40 0 -0.70 -0.50 -0.70 -1.10z"/>
  <path d="M48 99.50 c0 -0.25 -0.95 -0.50 -2.10 -0.50 l-2.05 0 1.15 -1.25 c0.95 -1 1.30 -1.10 2.15 -0.65 0.85 0.45 0.95 0.40 0.60 -0.40 -0.20 -0.55 -0.40 -1.35 -0.45 -1.80 0 -0.45 -0.20 -0.70 -0.45 -0.55 -0.20 0.15 -0.85 -0.15 -1.40 -0.65 -1.10 -1 -1.20 -0.75 -0.35 1.05 0.50 1.15 0.45 1.45 -0.95 2.70 l-1.55 1.40 0 -4.45 c0 -3.95 0.10 -4.40 0.95 -4.40 0.60 0 0.80 0.25 0.65 0.75 -0.35 0.90 0.60 1 1.10 0.15 0.30 -0.45 0.50 -0.25 0.70 0.60 0.20 0.90 0.70 1.30 1.65 1.40 1.10 0.15 1.35 0.40 1.35 1.65 0 0.80 0.25 1.45 0.50 1.45 0.30 0 0.50 -0.35 0.50 -0.75 0 -0.50 0.50 -0.75 1.50 -0.75 l1.50 0 -1.80 2.75 c-1.65 2.50 -3.20 3.55 -3.20 2.25z"/>
  <path d="M50.50 99.50 c0 -0.25 0.65 -1.20 1.50 -2.10 1.40 -1.55 1.45 -1.60 1.50 -0.50 0 0.60 -0.20 1.10 -0.50 1.10 -0.25 0 -0.50 0.30 -0.50 0.70 0 0.40 -0.35 0.85 -0.80 1 -1.05 0.40 -1.20 0.40 -1.20 -0.20z"/>
  <path d="M20.50 98.40 c0 -1.70 1.65 -7.90 2.10 -7.90 0.20 0 0.40 -0.45 0.40 -1 0 -0.65 0.35 -1 1 -1 1.10 0 1.20 0.40 0.55 2.10 -0.30 0.65 -1 2.90 -1.60 5.05 -0.65 2.35 -1.35 3.85 -1.75 3.85 -0.40 0 -0.70 -0.50 -0.70 -1.10z"/>
  <path d="M23 98.65 c0.05 -0.50 0.80 -3.15 1.70 -5.90 1.45 -4.30 1.70 -4.75 1.75 -3.10 0.05 1 -0.15 1.85 -0.45 1.85 -0.25 0 -0.50 0.50 -0.50 1.10 0 1.65 -1.55 6.90 -2.05 6.90 -0.25 0 -0.45 -0.40 -0.45 -0.85z"/>
  <path d="M36.80 97.65 c0.15 -2.50 0.20 -2.65 0.95 -2.65 0.55 0 0.75 0.55 0.75 2 0 1.60 -0.20 2 -0.90 2 -0.65 0 -0.85 -0.35 -0.80 -1.35z"/>
  <path d="M78.55 92.15 c1.55 -2 2.45 -2.15 2.45 -0.40 0 1.05 -0.25 1.25 -1.55 1.25 -1.45 0 -1.50 -0.10 -0.90 -0.85z"/>
  <path d="M87 90.60 c0 -1.70 3.65 -2.20 4.50 -0.60 0.50 0.95 0.40 1 -2 1 -1.35 0 -2.50 -0.20 -2.50 -0.40z"/>
  <path d="M39 88.20 c0 -2.05 0.65 -5.70 1.05 -5.70 0.50 0 0 4.95 -0.60 6 -0.35 0.60 -0.40 0.55 -0.45 -0.30z"/>
  <path d="M40.70 87.15 c0.70 -4.10 0.90 -4.65 1.60 -4.65 0.80 0 0.85 0.75 0.40 4.20 -0.25 1.85 -0.55 2.30 -1.30 2.30 -0.90 0 -0.95 -0.25 -0.70 -1.85z"/>
  <path d="M28.50 87.30 c0 -0.35 0.45 -0.80 0.95 -0.95 0.85 -0.20 0.90 -0.10 0.40 0.70 -0.70 1.10 -1.35 1.25 -1.35 0.25z"/>
  <path d="M48.90 87.40 c0.85 -0.85 0.75 -1.55 -0.15 -1.20 -0.50 0.20 -0.75 -0.05 -0.75 -0.70 0 -0.80 0.35 -1 1.75 -1 1.65 0 1.75 0.10 1.75 1.75 0 1.65 -0.10 1.75 -1.60 1.75 -1.25 0 -1.45 -0.15 -1 -0.60z"/>
  <path d="M85 87.05 c0 -0.25 -0.45 -0.65 -1.05 -0.80 -1.45 -0.50 -0.85 -0.85 0.75 -0.45 1.20 0.30 1.90 1.70 0.80 1.70 -0.25 0 -0.50 -0.20 -0.50 -0.45z"/>
  <path d="M64.35 77.90 c-0.10 -0.35 0.15 -1.05 0.55 -1.55 0.65 -0.75 0.70 -1.25 0.20 -3.40 -0.70 -2.90 -0.80 -8.35 -0.15 -5.70 0.25 0.85 0.70 2.95 1 4.75 0.35 1.80 1.05 4 1.55 4.90 1 1.70 0.35 2.25 -0.80 0.75 -0.65 -0.85 -0.65 -0.85 -0.70 0 0 0.95 -1.30 1.15 -1.65 0.25z"/>
  <path d="M66 66 c0 -0.25 0.95 -0.70 2.15 -1.05 1.15 -0.30 3.15 -1.05 4.45 -1.60 2.10 -1 2.40 -1.35 2.90 -3.35 0.30 -1.25 0.60 -5.75 0.65 -10 0.15 -7.45 0.20 -7.90 1.80 -11.90 0.90 -2.30 1.75 -4.10 1.85 -4 0.10 0.10 -0.35 1.75 -1 3.70 -2.20 6.45 -2.50 8.75 -1.80 13 0.35 2.35 0.45 5.15 0.25 7.15 -0.30 2.90 -0.55 3.50 -2.20 5.10 -2.30 2.30 -9.05 4.55 -9.05 2.95z"/>
  <path d="M24.50 33.65 c0 -0.80 0.10 -0.80 0.55 -0.15 0.40 0.55 0.45 0.40 0.20 -0.65 -0.30 -1.40 -0.25 -1.45 1.60 -1.15 1.05 0.15 2.05 0.25 2.30 0.30 1 0.05 0.15 1.45 -1.20 1.95 -2.30 0.80 -3.45 0.70 -3.45 -0.30z"/>
  <path d="M80.25 32.65 c2.45 -6.05 2.90 -8 2.85 -12.90 -0.05 -3.90 0.10 -4.70 0.50 -3.75 0.90 2.30 0.15 8.85 -1.60 13.40 -0.85 2.25 -1.70 4.10 -1.85 4.10 -0.15 0 -0.10 -0.40 0.10 -0.85z"/>
  <path d="M20 16.25 c-0.70 -1.85 -1.20 -4.05 -0.80 -3.70 0.40 0.35 1.80 4.95 1.50 4.95 -0.15 0 -0.45 -0.55 -0.70 -1.25z"/>
  <path d="M82.80 12.75 c-1.10 -5.70 -1.90 -9.05 -2.60 -10.35 -0.45 -0.85 -0.70 -1.60 -0.55 -1.70 0.10 -0.10 0.65 0.80 1.30 2.05 1.25 2.50 2.70 8.80 2.40 10.70 -0.10 1.10 -0.20 0.95 -0.55 -0.70z"/>
 </g>
 <g fill="#695b50">
  <path d="M81 99.70 c0 -0.65 2.20 -4.20 2.60 -4.20 0.70 0 0.45 3.05 -0.30 3.80 -0.75 0.70 -2.30 1 -2.30 0.40z"/>
  <path d="M79.50 98.35 c0 -0.45 0.25 -0.85 0.50 -0.85 0.30 0 0.50 -0.45 0.50 -1 0 -0.55 0.35 -1 0.80 -1 0.70 0 0.15 1.15 -1.65 3.45 -0.10 0.10 -0.15 -0.15 -0.15 -0.60z"/>
  <path d="M50 86 c0 -0.25 -0.35 -0.35 -0.75 -0.20 -0.45 0.20 -0.75 0 -0.75 -0.50 0 -0.65 0.55 -0.80 2.50 -0.80 2.15 0 2.50 0.15 2.50 1 0 0.80 -0.35 1 -1.75 1 -0.95 0 -1.75 -0.20 -1.75 -0.50z"/>
  <path d="M51.50 39.20 c0 -1.25 1.10 -1.60 2.45 -0.75 0.90 0.60 0.35 1.40 -1.20 1.65 -1.05 0.20 -1.25 0.05 -1.25 -0.90z"/>
  <path d="M31.35 39.20 c-0.45 -0.50 0.30 -2.20 0.95 -2.20 0.90 0 0.90 1.80 0 2.15 -0.40 0.15 -0.80 0.15 -0.95 0.05z"/>
  <path d="M43.60 38.40 c0.10 -0.95 0.45 -1.15 1.80 -1.15 0.85 0 1.60 0.25 1.60 0.50 -0.05 0.30 -0.50 0.50 -1.05 0.45 -0.65 0 -0.90 0.20 -0.75 0.65 0.15 0.40 -0.10 0.65 -0.75 0.65 -0.75 0 -1 -0.25 -0.85 -1.10z"/>
  <path d="M25.30 37.75 c-0.30 -0.80 1.40 -1.75 3.05 -1.75 0.65 0 0.60 0.25 -0.35 1.25 -1.35 1.45 -2.25 1.60 -2.70 0.50z"/>
 </g>
 <g fill="#7a5f4d">
  <path d="M32.60 58.90 c-0.95 -0.95 -0.70 -1.40 0.90 -1.40 1.15 0 1.50 0.20 1.50 1 0 1.15 -1.45 1.35 -2.40 0.40z"/>
  <path d="M37.50 58.55 c0 -0.95 0.30 -1.05 3.25 -1.05 3.30 0 4.40 0.70 1.90 1.20 -4.95 0.95 -5.15 0.95 -5.15 -0.15z"/>
  <path d="M44.15 39.65 c-0.90 -0.35 -0.80 -1.65 0.10 -1.65 0.40 0 0.75 0.10 0.75 0.20 0 0.10 0.15 0.55 0.30 1 0.30 0.80 0 0.95 -1.15 0.45z"/>
  <path d="M31.50 37.95 c0 -1 0.20 -1.45 0.65 -1.35 0.90 0.35 1 2.25 0.15 2.55 -0.60 0.25 -0.80 -0.05 -0.80 -1.20z"/>
 </g>
 <g fill="#773389">
  <path d="M21.55 98.40 c-0.05 -2.20 2.30 -9.90 2.95 -9.90 0.65 0 0.60 0.15 -0.05 1.85 -0.30 0.75 -1.10 3.30 -1.75 5.65 -0.90 3.45 -1.15 3.90 -1.15 2.40z"/>
  <path d="M23 99.15 c0 -0.50 0.70 -3.15 1.55 -5.95 1.30 -4.15 1.80 -5.20 2.95 -5.90 1.95 -1.10 2.65 -1.05 2 0.15 -0.25 0.55 -0.75 2.75 -1 4.90 -0.75 5.45 -0.90 6.15 -1.75 6.15 -0.45 0 -0.75 -0.50 -0.80 -1.10 -0.05 -0.80 -0.20 -0.55 -0.55 0.75 -0.35 1.30 -0.75 1.85 -1.45 1.85 -0.55 0 -0.95 -0.35 -0.95 -0.85z"/>
  <path d="M36.70 98.90 c0.20 -0.65 0.45 -1.75 0.60 -2.50 0.20 -0.95 0.65 -1.40 1.25 -1.40 0.80 0 0.95 0.40 0.95 2.50 0 2.45 0 2.50 -1.55 2.50 -1.40 0 -1.55 -0.15 -1.25 -1.10z"/>
  <path d="M40.40 97.65 c0.35 -3.25 0.60 -3.35 0.60 -0.25 0 1.45 -0.20 2.60 -0.45 2.60 -0.25 0 -0.30 -1.05 -0.15 -2.35z"/>
  <path d="M49 98.80 c0 -0.95 0.60 -2 1.90 -3.30 1 -1.05 2.10 -2.35 2.40 -2.85 0.30 -0.50 0.95 -1 1.45 -1.10 0.70 -0.10 0.40 0.50 -1.10 2.25 -1.10 1.35 -2.60 3.35 -3.30 4.45 -1.35 2 -1.35 2 -1.35 0.55z"/>
  <path d="M50.50 99.55 c0 -0.25 2.30 -3.15 5.15 -6.40 9.70 -11.25 11.50 -13.60 11.20 -14.95 -0.30 -1.55 0.05 -1.50 2.05 0.30 l1.60 1.50 -4.85 6.90 c-2.70 3.75 -5.80 8.25 -6.90 10 -1.10 1.70 -2.15 3.10 -2.35 3.10 -0.25 0 -0.40 -0.80 -0.40 -1.75 0 -0.95 0.25 -1.75 0.50 -1.75 0.30 0 0.50 -0.20 0.50 -0.50 0 -0.25 -0.35 -0.35 -0.75 -0.20 -0.40 0.20 -0.90 1.20 -1.05 2.25 -0.30 1.90 -0.35 1.95 -2.50 1.95 -1.20 0 -2.20 -0.20 -2.20 -0.45z m8.05 -6.05 c0.25 0 0.45 -0.20 0.45 -0.50 0 -0.25 -0.35 -0.50 -0.75 -0.50 -0.50 0 -0.75 0.45 -0.70 1.40 0.05 0.80 0.15 1 0.30 0.50 0.10 -0.50 0.45 -0.90 0.70 -0.90z"/>
  <path d="M74 99.50 c0 -0.90 1.90 -4.30 3.30 -6 1.10 -1.30 3.75 -3.50 7.45 -6.10 0.30 -0.25 0.25 -0.55 -0.25 -0.90 -0.65 -0.45 -0.65 -0.50 0 -0.50 0.40 0 1.60 0.25 2.65 0.55 2.15 0.60 2 1.70 -0.20 1.25 -0.85 -0.15 -1.45 -0.05 -1.45 0.25 0 0.30 0.25 0.35 0.55 0.15 1.05 -0.65 0.15 1.10 -3.30 6.40 l-3.50 5.35 -2.60 0 c-1.55 0.05 -2.65 -0.15 -2.65 -0.45z"/>
  <path d="M81.35 99.20 c0.95 -2.60 6.10 -9.90 6.60 -9.45 0.40 0.45 -1.10 2.75 -1.80 2.75 -0.35 0 -0.65 0.45 -0.65 1 0 0.55 -0.20 1 -0.50 1 -0.25 0 -0.50 0.35 -0.50 0.75 0 0.40 -0.20 0.75 -0.50 0.75 -0.25 0 -0.50 0.35 -0.50 0.75 0 0.40 -0.20 0.75 -0.50 0.75 -0.25 0 -0.50 0.30 -0.50 0.70 0 0.35 -0.35 0.95 -0.75 1.30 -0.65 0.55 -0.70 0.50 -0.40 -0.30z"/>
  <path d="M37 93.40 c0 -1.95 0.60 -3.40 1.30 -3.40 0.50 0 0.70 0.65 0.70 2.25 0 1.90 -0.15 2.25 -1 2.25 -0.70 0 -1 -0.35 -1 -1.10z"/>
  <path d="M56 90.20 c0 -1.15 1.15 -2.40 1.95 -2.10 0.25 0.05 -0.05 0.85 -0.75 1.65 -1.10 1.35 -1.20 1.40 -1.20 0.45z"/>
  <path d="M37.50 88.95 c0 -2.40 1.30 -7.55 2.05 -8.25 0.55 -0.50 1.05 -0.75 1.15 -0.65 0.10 0.10 -0.15 2.10 -0.50 4.45 -0.35 2.35 -0.65 4.40 -0.65 4.65 -0.05 0.55 -2.05 0.40 -2.05 -0.20z"/>
  <path d="M40.50 89.35 c0 -1 1.55 -10.05 1.75 -10.25 0.40 -0.40 0.30 0.70 -0.35 5.80 -0.35 2.50 -0.80 4.60 -1 4.60 -0.20 0 -0.40 -0.10 -0.40 -0.15z"/>
  <path d="M59.10 86.25 c0.10 -0.55 0.65 -1.20 1.30 -1.50 0.60 -0.25 1.10 -0.90 1.10 -1.40 0 -0.55 0.45 -1.05 1 -1.20 0.55 -0.15 1 -0.65 1 -1.15 0 -0.45 0.45 -1.25 1 -1.75 0.55 -0.50 1 -1.25 1.05 -1.70 0 -0.50 0.10 -0.60 0.30 -0.15 0.45 1.10 -1.75 4.80 -4.40 7.35 -1.85 1.80 -2.50 2.20 -2.35 1.50z"/>
  <path d="M72.05 64.15 c0 -0.25 0.90 -1.15 2 -2.10 1.75 -1.50 1.95 -1.55 1.95 -0.65 0 0.55 -0.60 1.50 -1.30 2.05 -1.30 1.05 -2.75 1.40 -2.65 0.70z"/>
 </g>
 <g fill="#764e7d">
  <path d="M20 99.20 c0 -0.40 0.25 -1.75 0.55 -3 0.45 -1.70 0.80 -2.20 1.55 -2.20 0.85 0 0.95 0.25 0.70 1.40 -0.15 0.75 -0.45 2.10 -0.60 3 -0.25 1.10 -0.60 1.60 -1.25 1.60 -0.55 0 -0.95 -0.35 -0.95 -0.80z"/>
  <path d="M48.50 98.25 c0 -1.60 0.10 -1.75 1.50 -1.75 l1.50 0 -1.10 1.75 c-1.45 2.20 -1.90 2.20 -1.90 0z"/>
  <path d="M23.60 98.25 c0 -0.55 0.20 -1.55 0.40 -2.25 l0.40 -1.25 0 1.25 c0 0.70 -0.15 1.70 -0.40 2.25 l-0.45 1 0.05 -1z"/>
  <path d="M26.20 96.40 c0.15 -1.45 0.30 -3.15 0.30 -3.75 0 -0.80 0.30 -1.15 1 -1.15 1.05 0 1.05 -0.05 0.25 5.25 -0.10 0.55 -0.20 1.30 -0.20 1.65 -0.05 0.30 -0.40 0.60 -0.85 0.60 -0.70 0 -0.80 -0.40 -0.50 -2.60z"/>
  <path d="M28 87.75 c0 -0.40 0.10 -0.75 0.20 -0.75 0.10 0 0.60 -0.15 1.05 -0.30 0.75 -0.30 0.75 -0.20 0.20 0.75 -0.80 1.25 -1.45 1.35 -1.45 0.30z"/>
  <path d="M85.25 86.75 c-0.80 -0.35 -1.15 -0.70 -0.75 -0.70 1.25 -0.05 3 0.55 3 1 0 0.60 -0.45 0.55 -2.25 -0.30z"/>
  <path d="M68.50 81.35 c0 -0.45 -0.25 -0.85 -0.55 -0.85 -0.25 0 -0.40 -0.15 -0.30 -0.40 0.15 -0.20 -0.15 -1.15 -0.70 -2.10 -0.75 -1.45 -0.90 -1.55 -0.95 -0.65 0 1.50 -0.85 1.90 -1.30 0.55 -0.20 -0.70 -0.05 -1.25 0.45 -1.65 0.70 -0.50 0.75 -0.85 0.10 -3.30 -0.40 -1.50 -0.70 -3.35 -0.70 -4.20 0.05 -1.45 0.05 -1.50 0.45 -0.25 0.20 0.70 0.70 2.65 1 4.40 0.65 3.10 2.65 6.55 3.90 6.60 0.85 0 0.75 0.35 -0.40 1.60 -0.85 0.95 -1 0.95 -1 0.25z"/>
  <path d="M66.50 66.10 c0 -0.25 0.95 -0.75 2.15 -1.10 6.50 -1.90 7.60 -3.70 7.55 -11.75 0 -4.30 0.05 -5.05 0.40 -3.50 0.25 1.10 0.40 4.15 0.30 6.80 -0.15 5.50 -0.60 6.25 -4.40 8.20 -2.50 1.25 -6 2.05 -6 1.35z"/>
  <path d="M76.05 46.20 c-0.05 -1.60 1.35 -6.95 1.75 -6.60 0.10 0.15 -0.05 0.95 -0.35 1.80 -0.30 0.85 -0.70 2.60 -0.95 3.95 -0.30 1.80 -0.40 2 -0.45 0.85z"/>
  <path d="M83.25 17.90 c-0.15 -2.55 -0.55 -5.95 -0.80 -7.60 -0.30 -1.60 -0.40 -3 -0.30 -3.15 0.15 -0.10 0.50 1.20 0.75 2.95 0.65 3.90 1.30 12.40 0.95 12.40 -0.15 0 -0.40 -2.10 -0.60 -4.60z"/>
 </g>
 <g fill="#776467">
  <path d="M40.20 99.20 c0.15 -0.45 0.30 -1 0.30 -1.25 0 -0.80 1.25 -0.45 2 0.55 0.70 0.95 0.75 0.95 2.25 -0.45 1.40 -1.40 1.55 -1.45 2.50 -0.70 0.70 0.55 0.80 0.85 0.40 1 -0.35 0.15 -0.65 0.55 -0.65 0.95 0 0.55 -0.80 0.70 -3.55 0.70 -3.05 0 -3.50 -0.10 -3.25 -0.80z"/>
  <path d="M81.35 99.15 c1.15 -3 5.90 -9.50 7.25 -9.95 0.50 -0.15 1.30 -0.15 1.80 0 0.95 0.35 5.35 7.35 5.85 9.45 0.30 1.15 0.20 1.35 -0.70 1.35 -0.80 0 -1.15 -0.40 -1.35 -1.50 -0.20 -0.80 -0.50 -1.50 -0.75 -1.50 -0.25 0 -0.45 -0.35 -0.45 -0.75 0 -0.40 -0.20 -0.75 -0.50 -0.75 -0.25 0 -0.50 -0.55 -0.50 -1.25 0 -0.80 -0.30 -1.25 -0.75 -1.25 -0.40 0 -0.75 -0.35 -0.75 -0.80 0 -0.60 -0.30 -0.75 -1.10 -0.50 -0.65 0.15 -1.45 0.30 -1.75 0.30 -0.35 0 -0.65 0.55 -0.65 1.25 0 0.80 -0.30 1.25 -0.75 1.25 -0.40 0 -0.75 0.45 -0.75 1 0 0.65 -0.35 1 -1 1 -0.80 0 -1 0.35 -1 1.75 0 1.55 -0.15 1.75 -1.25 1.75 -0.95 0 -1.15 -0.20 -0.90 -0.85z"/>
  <path d="M17.10 96.30 c4.15 -5.40 6.10 -7.55 6.85 -7.55 0.95 0 0.85 1.45 -0.25 3.15 -0.50 0.75 -1.20 1.10 -2.20 1.10 -1.40 0 -1.50 0.15 -1.50 1.75 0 1.20 -0.25 1.75 -0.75 1.75 -0.40 0 -0.75 0.45 -0.75 1 0 0.80 -0.35 1 -1.55 1 l-1.55 0 1.70 -2.20z"/>
  <path d="M42.80 95.65 c-0.55 -4.05 -0.50 -4.15 1.60 -3.95 1 0.10 2.60 0.20 3.50 0.25 1.50 0.05 1.60 0.15 1.60 1.80 0 1.20 -0.25 1.75 -0.75 1.75 -0.40 0 -0.75 0.30 -0.75 0.65 0 0.40 -0.15 0.40 -0.45 -0.10 -0.25 -0.40 -0.35 -1.05 -0.15 -1.45 0.20 -0.50 0.05 -0.65 -0.35 -0.40 -0.35 0.25 -1.05 0 -1.60 -0.50 -0.85 -0.75 -0.95 -0.75 -0.95 -0.05 0 0.45 0.25 0.95 0.50 1.10 0.85 0.55 0.55 1.60 -0.70 2.40 -1.15 0.80 -1.15 0.80 -1.50 -1.50z"/>
  <path d="M51.50 94.30 c0 -1.65 0.10 -1.80 1.55 -1.80 l1.50 0 -1.05 1.50 c-1.55 2.20 -2 2.25 -2 0.30z"/>
  <path d="M82 94.10 c0 -0.70 0.30 -1.10 0.80 -1.10 0.70 0 0.75 0.15 0.15 0.90 -0.35 0.45 -0.75 0.95 -0.80 1.05 -0.10 0.10 -0.15 -0.25 -0.15 -0.85z"/>
  <path d="M25.40 91.25 c0.10 -0.70 0.30 -1.25 0.40 -1.25 0.10 0 0.20 0.55 0.20 1.25 0 0.70 -0.20 1.25 -0.45 1.25 -0.20 0 -0.30 -0.55 -0.15 -1.25z"/>
  <path d="M83.50 91.75 c0 -0.40 0.35 -0.75 0.80 -0.75 0.70 0 0.70 0.15 0.20 0.75 -0.35 0.40 -0.70 0.75 -0.80 0.75 -0.10 0 -0.20 -0.35 -0.20 -0.75z"/>
  <path d="M55 90.25 c0 -1.40 0.20 -1.75 1 -1.75 0.75 0 1 -0.35 1 -1.25 0 -1 -0.25 -1.25 -1.25 -1.25 -2.10 0 -1.45 -1.35 1 -1.95 1.90 -0.45 2.70 -1.15 5.35 -4.30 1.70 -2.05 3.30 -3.75 3.50 -3.75 0.25 0 0.40 -0.40 0.40 -0.85 0.05 -0.50 0.35 -0.15 0.75 0.80 0.40 0.90 0.75 1.90 0.75 2.25 -0.05 0.30 -0.35 -0.10 -0.70 -0.95 l-0.65 -1.50 -0.30 2.05 c-0.40 2.50 -2.90 6.05 -4.60 6.50 -0.70 0.15 -1.25 0.50 -1.25 0.75 0 0.25 -0.50 0.45 -1.10 0.50 l-1.15 0.05 1.10 0.30 c1.10 0.35 1.05 0.45 -1.15 3.25 -1.25 1.55 -2.40 2.85 -2.50 2.85 -0.10 0 -0.20 -0.80 -0.20 -1.75z"/>
  <path d="M57 91.80 c0 -0.10 0.35 -0.45 0.75 -0.80 0.60 -0.50 0.75 -0.50 0.75 0.20 0 0.45 -0.35 0.80 -0.75 0.80 -0.40 0 -0.75 -0.10 -0.75 -0.20z"/>
  <path d="M39.10 88.25 c-0.05 -0.80 0.15 -2.40 0.35 -3.50 l0.45 -2 0 2 c0 1.10 -0.20 2.70 -0.40 3.50 l-0.40 1.50 0 -1.50z"/>
  <path d="M40.70 87.65 c0.70 -4.10 0.90 -4.65 1.60 -4.65 0.80 0 0.85 0.75 0.40 4.20 -0.25 1.85 -0.55 2.30 -1.30 2.30 -0.90 0 -0.95 -0.25 -0.70 -1.85z"/>
  <path d="M59 89.30 c0 -0.10 0.35 -0.45 0.75 -0.80 0.60 -0.50 0.75 -0.50 0.75 0.20 0 0.45 -0.35 0.80 -0.75 0.80 -0.40 0 -0.75 -0.10 -0.75 -0.20z"/>
  <path d="M43.50 86.50 c0 -0.80 0.25 -2 0.55 -2.70 l0.55 -1.20 1.75 1.05 c1.25 0.70 2.65 1 4.70 1 2.55 0 2.95 0.15 2.95 0.95 0 0.65 -0.40 0.90 -1.50 0.90 -0.80 0 -1.50 0.25 -1.50 0.50 0 0.30 -0.50 0.50 -1.10 0.50 -0.85 0 -0.95 -0.15 -0.50 -0.60 1.10 -1.10 0.60 -1.55 -0.70 -0.65 -1.25 0.80 -1.35 0.80 -2.50 -0.30 -1.35 -1.25 -1.60 -0.75 -0.40 0.95 0.75 1.05 0.70 1.10 -0.75 1.10 -1.40 0 -1.55 -0.15 -1.55 -1.50z"/>
  <path d="M79 84 c-1.50 -0.80 -2.50 -1.45 -2.25 -1.45 0.30 0 1.75 0.65 3.25 1.45 1.50 0.80 2.55 1.45 2.25 1.45 -0.25 0 -1.75 -0.65 -3.25 -1.45z"/>
  <path d="M64 83.60 c0 -0.25 0.70 -1.05 1.50 -1.85 1.50 -1.40 2.20 -1 0.75 0.45 -0.40 0.40 -0.75 0.95 -0.75 1.25 0 0.30 -0.35 0.55 -0.75 0.55 -0.40 0 -0.75 -0.20 -0.75 -0.40z"/>
  <path d="M41.50 81.90 c0 -1.50 0.65 -2.90 1.30 -2.90 0.45 0 0.70 0.60 0.70 1.75 0 1.40 -0.20 1.75 -1 1.75 -0.55 0 -1 -0.30 -1 -0.60z"/>
  <path d="M64.60 67.50 c0 -0.95 0.10 -1.35 0.25 -0.85 0.10 0.45 0.10 1.25 0 1.75 -0.15 0.45 -0.25 0.05 -0.25 -0.90z"/>
  <path d="M43.60 38.15 c0.20 -1.20 3.40 -1.60 3.40 -0.45 0 0.95 -1.30 1.05 -1.65 0.20 -0.15 -0.40 -0.30 -0.30 -0.30 0.25 -0.05 0.45 -0.40 0.85 -0.85 0.85 -0.45 0 -0.70 -0.35 -0.60 -0.85z"/>
 </g>
 <g fill="#8f6b50">
  <path d="M40 58.30 c0 -0.65 0.65 -0.80 3.65 -0.75 3.80 0.05 3.30 0.45 -1.30 1.15 -1.95 0.30 -2.35 0.25 -2.35 -0.40z"/>
 </g>
 <g fill="#887a70">
  <path d="M81.30 99.25 c0.20 -0.40 0.50 -0.75 0.75 -0.75 0.25 0 0.45 0.35 0.45 0.75 0 0.40 -0.35 0.75 -0.75 0.75 -0.45 0 -0.60 -0.30 -0.45 -0.75z"/>
  <path d="M46.60 85.70 c-0.60 -0.40 -1.10 -1.05 -1.10 -1.40 0 -0.55 0.50 -0.50 2.65 0.05 1.45 0.35 3.45 0.55 4.50 0.35 1.65 -0.25 1.85 -0.15 1.85 0.75 0 0.90 -0.30 1.05 -2.20 1.05 -1.30 0 -2.30 -0.25 -2.45 -0.60 -0.20 -0.50 -0.35 -0.50 -0.90 0 -0.85 0.75 -1 0.75 -2.35 -0.20z"/>
  <path d="M61 83.35 c0 -1.70 0.10 -1.85 1.50 -1.85 1.30 0 1.45 0.15 1.05 0.90 -0.25 0.45 -0.95 1.30 -1.50 1.80 -1.05 0.95 -1.05 0.95 -1.05 -0.85z"/>
  <path d="M63.55 84.15 c0.35 -0.50 0.75 -1 0.80 -1.10 0.10 -0.10 0.15 0.25 0.15 0.85 0 0.70 -0.30 1.10 -0.80 1.10 -0.70 0 -0.75 -0.15 -0.15 -0.85z"/>
  <path d="M32.90 58.95 c-1.85 -1.05 -0.80 -1.45 3.85 -1.45 3.70 0 4.75 0.15 4.75 0.70 0 1.20 -6.85 1.80 -8.60 0.75z"/>
  <path d="M43.70 39.30 c-0.75 -0.60 -0.80 -0.80 -0.25 -1.50 0.95 -1.10 1.40 -1 1.65 0.45 0.30 1.55 -0.15 1.95 -1.40 1.05z"/>
  <path d="M51.60 39.15 c0.20 -1.05 1.35 -1.35 2.40 -0.65 0.65 0.45 0.65 0.55 0 1 -1.25 0.80 -2.60 0.60 -2.40 -0.35z"/>
  <path d="M31.50 38.05 c0 -0.60 0.30 -1.05 0.80 -1.05 0.45 0 0.70 0.35 0.60 0.85 -0.25 1.25 -1.40 1.40 -1.40 0.20z"/>
  <path d="M25.50 37.55 c0 -0.60 0.45 -1.05 1.30 -1.25 1.80 -0.45 2.10 0 0.80 1.20 -1.35 1.25 -2.10 1.25 -2.10 0.05z"/>
  <path d="M45.50 37.75 c0 -0.40 0.35 -0.75 0.75 -0.75 0.40 0 0.75 0.35 0.75 0.75 0 0.40 -0.35 0.75 -0.75 0.75 -0.40 0 -0.75 -0.35 -0.75 -0.75z"/>
 </g>
 <g fill="#8c42ae">
  <path d="M23.50 98.90 c0 -0.65 0.65 -3.40 1.45 -6.15 1.30 -4.60 1.55 -5.05 3.05 -5.65 1.50 -0.60 1.60 -0.60 1.25 0.25 -0.20 0.50 -0.75 3.55 -1.15 6.80 l-0.85 5.85 -1.85 0 c-1.65 0 -1.90 -0.15 -1.90 -1.10z"/>
  <path d="M53.30 98.15 c0.20 -1.05 0.45 -2.15 0.65 -2.50 0.55 -1 9.75 -11.85 11.80 -13.90 2 -2 2.05 -2.10 1.35 -3.70 l-0.65 -1.70 1.80 1.95 1.80 1.90 -3.30 4.80 c-1.85 2.60 -4.85 7.05 -6.65 9.85 -3.25 4.95 -3.40 5.10 -5.25 5.10 l-1.90 0.05 0.35 -1.85z"/>
  <path d="M74 99.75 c0 -0.80 2.55 -5.15 3.50 -6 1.05 -0.90 1.05 -0.85 -0.15 1 -0.75 1.10 -1.55 2.75 -1.90 3.65 -0.30 0.85 -0.75 1.60 -1 1.60 -0.25 0 -0.45 -0.10 -0.45 -0.25z"/>
  <path d="M76.55 98.65 c0.80 -2.15 5.75 -9.35 6.90 -10 0.90 -0.55 1.10 -0.50 1.60 0.40 0.45 0.90 0.25 1.50 -1.50 3.95 -1.10 1.60 -2.65 3.80 -3.40 4.95 -1.05 1.60 -1.65 2.05 -2.75 2.05 -1.30 0 -1.35 -0.10 -0.85 -1.35z"/>
  <path d="M82 98.20 c0 -1 4.45 -7.40 4.90 -7 0.20 0.25 -4.35 7.30 -4.75 7.30 -0.10 0 -0.15 -0.15 -0.15 -0.30z"/>
  <path d="M37.35 96.20 c-0.50 -3 1.05 -14.30 2.10 -15.35 0.95 -0.95 1.05 -0.15 0.55 3.70 -0.25 2.05 -0.50 5.40 -0.50 7.45 0 2.05 -0.15 4.25 -0.30 4.90 -0.50 1.70 -1.55 1.30 -1.85 -0.70z"/>
  <path d="M40.65 94.25 c0 -2.20 0.10 -3.05 0.20 -1.85 0.10 1.15 0.10 2.95 0 4 -0.10 1 -0.20 0.05 -0.20 -2.15z"/>
  <path d="M22.05 96.75 c-0.05 -0.50 2 -7.85 2.30 -8.20 0.65 -0.85 0.35 0.85 -0.85 4.45 -0.80 2.35 -1.45 4.05 -1.45 3.75z"/>
  <path d="M52 95.15 c0 -0.75 4 -5.65 4.55 -5.65 0.70 0 0.05 0.95 -2.40 3.75 -1.20 1.30 -2.15 2.15 -2.15 1.90z"/>
  <path d="M57.50 88.45 c0 -0.80 1.35 -2.30 1.75 -1.90 0.10 0.10 -0.25 0.75 -0.75 1.45 -0.75 0.95 -1 1.05 -1 0.45z"/>
  <path d="M40.90 86.75 c0.10 -0.95 0.30 -1.75 0.40 -1.75 0.10 0 0.20 0.80 0.20 1.75 0 0.95 -0.20 1.75 -0.40 1.75 -0.20 0 -0.30 -0.80 -0.20 -1.75z"/>
  <path d="M86.25 87 c-0.40 -0.65 0.75 -0.65 1.75 0 0.60 0.40 0.55 0.50 -0.35 0.50 -0.60 0 -1.25 -0.20 -1.40 -0.50z"/>
  <path d="M60.50 84.90 c0 -0.50 0.45 -1.15 1 -1.50 0.55 -0.35 1 -0.90 1 -1.20 0 -0.30 0.55 -1.05 1.25 -1.70 2.50 -2.35 1 0.65 -1.85 3.75 -1.10 1.15 -1.40 1.30 -1.40 0.65z"/>
  <path d="M41.60 82.50 c0 -0.95 0.10 -1.35 0.25 -0.85 0.10 0.45 0.10 1.25 0 1.75 -0.15 0.45 -0.25 0.05 -0.25 -0.90z"/>
  <path d="M71 65.15 c0 -0.20 0.80 -0.90 1.80 -1.55 1.05 -0.70 1.70 -0.90 1.60 -0.50 -0.25 0.75 -3.40 2.70 -3.40 2.05z"/>
 </g>
 <g fill="#837d8d">
  <path d="M14 99.80 c0 -0.10 0.35 -0.45 0.75 -0.80 0.60 -0.50 0.75 -0.50 0.75 0.20 0 0.45 -0.35 0.80 -0.75 0.80 -0.40 0 -0.75 -0.10 -0.75 -0.20z"/>
  <path d="M41 98.50 c0 -1.25 0.20 -1.50 1.25 -1.50 1 0 1.25 -0.25 1.25 -1.20 0 -0.65 -0.25 -1.30 -0.55 -1.40 -0.40 -0.15 -0.45 -1.15 -0.20 -3.30 0.30 -2.60 0.50 -3.10 1.30 -3.10 0.50 0 0.95 -0.20 0.95 -0.50 0 -0.25 -0.55 -0.50 -1.25 -0.50 -1.10 0 -1.25 0.20 -1.25 1.75 0 1.45 -0.20 1.75 -1.05 1.75 -1 0 -1.05 -0.20 -0.70 -2.35 0.50 -3.70 0.80 -4.65 1.45 -4.65 0.35 0 0.30 -0.20 -0.15 -0.45 -0.85 -0.55 -0.25 -3.55 0.75 -3.55 0.40 0 0.70 0.30 0.70 0.70 0 1.15 2.10 3.40 3.85 4.10 1.85 0.80 2.05 1.25 0.85 2.25 -0.75 0.60 -0.95 0.55 -1.60 -0.45 -0.40 -0.60 -0.90 -1.10 -1.15 -1.10 -0.70 0 -0.50 1.10 0.40 2.10 0.75 0.85 0.75 1 -0.50 2.30 -1.85 1.95 -1.75 3.15 0.10 1.40 l1.45 -1.40 1.50 1.65 c1.90 2.10 2.70 1.55 0.90 -0.55 -1.55 -1.90 -1.60 -2.10 -0.30 -3.25 0.95 -0.85 1 -0.85 1.30 1.25 0.20 1.15 0.65 2.20 1 2.35 0.40 0.15 0.70 0.70 0.70 1.20 0 0.50 0.35 0.95 0.75 0.95 0.50 0 0.75 -0.50 0.75 -1.40 0 -1.60 0.80 -2.60 2.10 -2.60 0.60 0 0.90 -0.40 0.90 -1.20 0 -0.85 0.35 -1.30 1.15 -1.50 0.60 -0.10 -0.55 -0.10 -2.50 0.05 -3.05 0.20 -3.65 0.15 -3.65 -0.50 0 -0.75 0.65 -1 4.95 -1.65 2.20 -0.30 2.40 -0.45 7.25 -5.95 1.60 -1.80 1.75 -1.90 1.80 -0.85 0 1.95 -1.25 4.30 -3.85 7.10 -2.95 3.25 -7.10 8.15 -9.90 11.70 l-2 2.55 -0.15 -1.45 c-0.15 -1.10 -0.30 -1.30 -0.65 -0.75 -0.40 0.60 -0.60 0.55 -1.20 -0.25 -0.55 -0.75 -0.60 -1.15 -0.15 -2 0.50 -0.95 0.50 -1 -0.30 -0.35 -0.70 0.60 -0.95 0.55 -1.70 -0.15 -1.40 -1.20 -1.80 -0.95 -0.85 0.50 0.80 1.25 0.80 1.35 -0.45 2.65 -0.70 0.75 -1.30 1.75 -1.30 2.20 0 0.50 -0.40 0.85 -1 0.85 -0.80 0 -1 -0.35 -1 -1.50z"/>
  <path d="M43.50 99.60 c0 -0.15 0.45 -0.75 1 -1.35 1.35 -1.45 3.50 -1.15 3.50 0.50 0 1.05 -0.25 1.15 -2.25 1.15 -1.25 0 -2.25 -0.10 -2.25 -0.30z"/>
  <path d="M88.95 98.15 c-1.10 -3.50 -2.95 -5.40 -2.95 -3.15 0 0.55 -0.20 1 -0.50 1 -0.25 0 -0.50 0.35 -0.50 0.75 0 0.45 -0.45 0.75 -1.25 0.75 -0.70 0 -1.25 -0.20 -1.25 -0.45 0 -0.60 4.10 -6.05 5.40 -7.20 0.55 -0.50 1.45 -0.85 1.95 -0.75 1.35 0.25 5.35 6.40 6.40 9.80 0.30 1.05 0.20 1.10 -3.20 1.10 l-3.45 0 -0.65 -1.85z"/>
  <path d="M20.50 97.25 c0 -0.80 -0.30 -1.25 -0.75 -1.25 -0.40 0 -0.75 0.45 -0.75 1 0 0.80 -0.35 1 -1.55 1 l-1.55 0 1.70 -2.20 c4.65 -6.05 5.70 -7.25 6.55 -7.25 0.55 -0.05 0.85 0.20 0.70 0.60 -0.15 0.30 -0.90 2.55 -1.65 5 -0.80 2.65 -1.60 4.35 -2.05 4.35 -0.35 0 -0.65 -0.55 -0.65 -1.25z m0.95 -4.35 c0.05 -0.25 -0.15 -0.40 -0.45 -0.40 -0.25 0 -0.50 0.60 -0.45 1.40 0 1.20 0.05 1.25 0.45 0.35 0.25 -0.55 0.45 -1.15 0.45 -1.35z"/>
  <path d="M39.15 88.50 c0 -1.25 0.10 -1.75 0.20 -1.10 0.10 0.60 0.10 1.60 0 2.25 -0.10 0.60 -0.20 0.10 -0.20 -1.15z"/>
  <path d="M62.25 85.90 c0.85 -0.95 1.60 -1.65 1.70 -1.55 0.35 0.25 -1.70 2.80 -2.50 3.10 -0.35 0.10 0 -0.60 0.80 -1.55z"/>
 </g>
 <g fill="#91659e">
  <path d="M20 98.50 c0 -1.15 0.20 -1.50 1 -1.50 1 0 1.25 0.75 0.70 2.20 -0.55 1.40 -1.70 0.90 -1.70 -0.70z"/>
  <path d="M66.35 76.10 c-0.85 -2.15 -2.05 -8.05 -1.70 -8.45 0.15 -0.10 0.50 1.30 0.80 3.15 0.35 1.85 0.95 4.15 1.35 5.10 0.40 0.95 0.65 1.85 0.50 1.95 -0.10 0.10 -0.50 -0.70 -0.95 -1.75z"/>
  <path d="M71.50 64.55 c2.60 -1.40 4.05 -3.20 4.80 -5.90 0.40 -1.55 0.65 -1.95 0.65 -1.15 0.10 3 -0.95 5.05 -3.35 6.55 -1.25 0.80 -2.65 1.45 -3.05 1.45 -0.45 -0.05 0 -0.45 0.95 -0.95z"/>
 </g>
 <g fill="#a38e7a">
  <path d="M33.55 59.10 c-3 -0.90 -1.25 -1.35 5.60 -1.40 6.90 -0.05 7.05 -0.05 4.35 0.60 -3.55 0.85 -8.40 1.25 -9.95 0.80z"/>
  <path d="M51.60 39.15 c0.15 -0.60 0.60 -0.85 1.40 -0.75 1.55 0.15 1.90 0.55 1 1.10 -1.25 0.80 -2.60 0.60 -2.40 -0.35z"/>
  <path d="M43.55 38.80 c-0.40 -0.50 -0.40 -0.80 0.15 -1.25 0.70 -0.60 0.90 -0.45 1.45 1.10 0.40 1.05 -0.75 1.15 -1.60 0.15z"/>
  <path d="M31.50 38 c0 -0.65 0.25 -1 0.65 -0.85 0.30 0.10 0.60 0.50 0.60 0.85 0 0.35 -0.30 0.75 -0.60 0.90 -0.40 0.10 -0.65 -0.25 -0.65 -0.90z"/>
  <path d="M45.75 37.95 c-0.20 -0.30 -0.25 -0.65 -0.10 -0.80 0.35 -0.35 1.35 0.30 1.35 0.90 0 0.60 -0.85 0.60 -1.25 -0.10z"/>
  <path d="M26.50 37.25 c0 -0.40 0.10 -0.75 0.20 -0.75 0.10 0 0.55 -0.15 1 -0.30 1.15 -0.45 1 0.45 -0.20 1.20 -0.85 0.50 -1 0.50 -1 -0.15z"/>
 </g>
 <g fill="#a046d1">
  <path d="M37.20 95.15 c0.50 -7.30 1.55 -13.10 2.50 -14.05 0.80 -0.80 0.85 -0.75 0.60 0.40 -0.45 1.95 -1.30 12.40 -1.30 15.65 0 2.60 -0.10 2.85 -1.05 2.85 -1.05 0 -1.10 -0.10 -0.75 -4.85z"/>
  <path d="M53.80 98.90 c0.45 -1.50 2.80 -5.60 3.30 -5.80 0.20 -0.10 0.40 -0.50 0.40 -0.85 0 -0.40 1.50 -2.45 3.35 -4.60 1.80 -2.15 3.15 -3.50 3 -3 -0.20 0.50 -0.10 1.35 0.15 1.90 0.45 0.80 -0.15 2 -3.60 7.20 -3.65 5.50 -4.30 6.25 -5.55 6.25 -1.25 0 -1.35 -0.15 -1.05 -1.10z"/>
  <path d="M76.50 99.75 c0 -1.50 5.40 -8.75 6.50 -8.75 0.80 0 0.15 1.90 -1.70 4.70 -1.05 1.65 -2 3.25 -2.15 3.65 -0.25 0.60 -2.65 0.95 -2.65 0.40z"/>
  <path d="M40.65 91.25 c0 -1.35 0.10 -1.90 0.20 -1.10 0.10 0.75 0.10 1.85 0 2.50 -0.10 0.60 -0.20 0 -0.20 -1.40z"/>
  <path d="M56.30 89.95 c0.70 -1.30 5.90 -7.40 6.35 -7.40 0.35 -0.05 -4.30 5.75 -6.05 7.45 -0.65 0.65 -0.70 0.65 -0.30 -0.05z"/>
 </g>
 <g fill="#9d9dae">
  <path d="M14.50 99.70 c0 -0.20 0.75 -1.15 1.65 -2.20 0.85 -1 2.90 -3.45 4.55 -5.40 2.85 -3.50 4.15 -4.50 3.65 -2.70 -0.10 0.45 -0.85 3.05 -1.65 5.75 l-1.40 4.85 -3.40 0 c-1.85 0 -3.40 -0.15 -3.40 -0.30z"/>
  <path d="M43.50 99.75 c0 -0.15 0.50 -0.80 1.10 -1.50 0.75 -0.90 1.45 -1.20 2.15 -1.05 0.90 0.25 1 0 1.05 -1.95 0.05 -1.95 -0.05 -2.10 -0.85 -1.60 -0.70 0.45 -1.10 0.35 -1.90 -0.35 -1.25 -1.10 -1.30 -0.80 -0.30 1.15 0.65 1.35 0.65 1.50 -0.60 2.60 l-1.30 1.20 0.35 -1.35 c0.15 -0.80 0.10 -1.40 -0.15 -1.40 -0.20 0 -0.55 -0.90 -0.75 -2 -0.20 -1.30 -0.55 -2 -1.05 -2 -0.90 0 -0.90 0.40 0.05 -6.50 0.45 -3.35 1.10 -6.05 1.50 -6.50 0.60 -0.60 0.70 -0.40 0.70 1.80 0 2.40 0.05 2.50 1.75 3.15 0.95 0.35 1.75 0.85 1.75 1.10 0 0.25 0.60 0.45 1.35 0.45 1.30 0 1.30 0 0.40 1 l-0.90 1 -1.15 -1.05 c-1.65 -1.55 -2.50 -1 -1.15 0.75 l1.10 1.40 -1.35 1.20 c-1.60 1.55 -1.85 3.05 -0.30 2.10 0.55 -0.35 1 -0.80 1 -1 0 -0.90 1.40 -0.30 2.70 1.25 1.70 1.90 2.45 1.05 0.85 -0.95 -1.30 -1.65 -1.35 -2.80 -0.10 -3.90 0.90 -0.80 0.95 -0.75 1.25 1.45 0.40 2.40 0.45 2.45 3.75 2.25 l1.70 -0.10 -1.10 1.55 c-1.50 2.10 -1.85 2.30 -4.45 2.45 -0.95 0.10 -1.10 0.30 -0.80 1.25 0.15 0.60 0.50 1.15 0.75 1.25 0.20 0.10 0 0.80 -0.45 1.65 -0.90 1.55 -2 1.80 -3.65 0.85 -0.85 -0.50 -1.15 -0.50 -1.30 0 -0.20 0.55 -1.65 0.90 -1.65 0.35z"/>
  <path d="M81.50 99.45 c0 -0.80 2.10 -4.45 2.60 -4.45 0.60 0 0.50 2.90 -0.10 4.05 -0.55 1 -2.50 1.35 -2.50 0.40z"/>
  <path d="M87.50 97.45 c-0.35 -1.45 -1 -2.95 -1.50 -3.45 -0.80 -0.80 -0.80 -0.90 0.05 -2.05 l0.95 -1.20 1 1.25 c1.40 1.75 2.50 4.25 2.85 6.30 0.25 1.60 0.20 1.70 -1.25 1.70 -1.40 0 -1.55 -0.20 -2.10 -2.55z"/>
  <path d="M58 87.10 c0 -1.10 -0.10 -1.15 -3 -0.80 -2.50 0.25 -3 0.20 -3 -0.45 0 -0.80 1.40 -1.35 3.50 -1.35 0.70 0 2.95 -0.80 4.95 -1.75 2.05 -1 3.75 -1.70 3.80 -1.65 0.10 0.10 -1.30 1.70 -3.05 3.65 -2.60 2.85 -3.20 3.25 -3.20 2.35z"/>
 </g>
 <g fill="#bdaea1">
  <path d="M32.75 58.50 c-0.20 -0.30 -0.25 -0.60 -0.20 -0.65 0.10 -0.10 2.25 0 4.70 0.15 5.05 0.30 4.80 0.75 -0.55 0.95 -2.30 0.10 -3.70 -0.05 -3.95 -0.45z"/>
  <path d="M51.50 39.65 c0 -0.25 0.20 -0.70 0.45 -1.10 0.35 -0.55 0.65 -0.55 1.60 0 1.15 0.60 1.15 0.60 0.20 1 -1.30 0.50 -2.25 0.55 -2.25 0.10z"/>
  <path d="M43.65 38.75 c-0.40 -1.10 0.30 -1.65 0.85 -0.75 0.65 1 0.60 1.50 0 1.50 -0.30 0 -0.65 -0.35 -0.85 -0.75z"/>
  <path d="M31.60 38.30 c0.05 -0.50 0.40 -0.85 0.65 -0.85 0.75 0.05 0.60 1.20 -0.15 1.45 -0.45 0.15 -0.65 -0.10 -0.50 -0.60z"/>
  <path d="M25.75 38 c-0.45 -0.70 0.05 -1.35 1.25 -1.65 1.45 -0.40 1.60 0.25 0.25 1.30 -0.75 0.50 -1.30 0.65 -1.50 0.35z"/>
  <path d="M45.85 38.15 c-0.60 -0.55 -0.40 -1.15 0.40 -1.15 0.40 0 0.75 0.35 0.75 0.75 0 0.80 -0.60 1 -1.15 0.40z"/>
 </g>
 <g fill="#b0b4c8">
  <path d="M19.50 98.40 c0.50 -1.70 2.95 -5.65 3.30 -5.25 0.10 0.10 -0.20 1.70 -0.65 3.50 -0.75 2.85 -1.05 3.35 -2 3.35 -1 0 -1.05 -0.15 -0.65 -1.60z"/>
  <path d="M42.05 98.95 c-0.05 -0.75 0.25 -1.45 0.60 -1.60 0.45 -0.15 0.60 -0.85 0.45 -2.05 -0.20 -1.50 -0.40 -1.80 -1.40 -1.80 -0.85 0 -1.20 -0.30 -1.20 -1 0 -1.30 1.45 -12 1.80 -13.10 0.45 -1.45 1.20 -1.05 1.20 0.60 0 2 1.80 3.75 4.55 4.50 1.20 0.35 2.45 0.80 2.75 1.05 0.35 0.30 1.10 0.20 2 -0.30 0.80 -0.40 2.15 -0.75 2.95 -0.75 0.85 0 2.95 -0.70 4.65 -1.50 1.75 -0.85 3.35 -1.50 3.50 -1.50 0.15 0 -0.70 1.05 -1.95 2.40 -1.25 1.30 -3 3.30 -3.90 4.50 -0.90 1.15 -1.80 2 -2.05 1.85 -0.45 -0.25 -1.40 0.75 -1.45 1.50 0 0.30 -1.15 2 -2.55 3.85 -1.35 1.85 -2.50 3.60 -2.50 3.90 0 0.25 -0.35 0.50 -0.75 0.50 -0.40 0 -0.75 -0.35 -0.75 -0.75 0 -0.40 0.25 -0.75 0.50 -0.75 0.30 0 0.50 -0.65 0.50 -1.50 0 -1 0.25 -1.50 0.75 -1.50 0.40 0 0.75 -0.45 0.75 -1 0 -0.55 0.35 -1 0.75 -1 0.45 0 0.75 -0.45 0.75 -1.10 0 -0.85 -0.15 -0.95 -0.45 -0.45 -0.30 0.50 -0.75 0.20 -1.85 -1.20 -1.40 -1.85 -1.40 -1.90 -0.55 -3.35 1.05 -1.80 0.85 -2.20 -0.60 -1.35 -0.85 0.60 -1.15 0.50 -2.25 -0.50 -1.45 -1.35 -2.40 -0.50 -1.05 0.95 0.50 0.55 0.75 1.30 0.60 1.75 -0.35 0.85 -1.65 1 -2.15 0.20 -0.20 -0.40 -0.45 -0.35 -0.75 0.10 -0.60 1 -0.55 1.45 0.20 1.45 0.45 0 0.70 0.65 0.75 1.85 0.05 1 0.30 2.05 0.60 2.35 0.80 0.80 0.60 2.05 -0.55 3.10 -0.60 0.50 -1.25 1.40 -1.50 1.95 -0.35 0.90 -0.40 0.85 -0.40 -0.30z m15.45 -12.45 c0 -0.25 -0.35 -0.50 -0.75 -0.50 -0.40 0 -0.75 0.25 -0.75 0.50 0 0.30 0.35 0.50 0.75 0.50 0.40 0 0.75 -0.20 0.75 -0.50z"/>
  <path d="M43.50 99.80 c0 -0.50 2.40 -2.80 2.95 -2.80 0.30 0 0.55 0.45 0.55 1 0 0.65 -0.35 1 -1 1 -0.55 0 -1 0.25 -1 0.50 0 0.30 -0.35 0.50 -0.75 0.50 -0.40 0 -0.75 -0.10 -0.75 -0.20z"/>
  <path d="M81.50 99.75 c0 -0.70 2.60 -5.30 3.80 -6.70 1.65 -2 2.40 -1.50 3.50 2.40 0.45 1.55 0.90 3.20 1 3.70 0.25 0.75 -0.20 0.85 -4 0.85 -2.35 0 -4.30 -0.10 -4.30 -0.25z"/>
  <path d="M47.85 94.20 c0.25 -0.65 0.10 -0.75 -0.70 -0.50 -0.65 0.20 -1.35 0.05 -1.85 -0.50 -0.75 -0.75 -0.75 -0.90 0.45 -2.10 l1.30 -1.30 1.20 1.50 c1.50 1.80 1.65 3.70 0.25 3.70 -0.70 0 -0.90 -0.25 -0.65 -0.80z"/>
 </g>
 <g fill="#c1c6d8">
  <path d="M19.50 99.50 c0 -0.95 2.15 -4.75 2.35 -4.15 0.40 1.10 -0.85 4.65 -1.60 4.65 -0.40 0 -0.75 -0.25 -0.75 -0.50z"/>
  <path d="M40.50 97.15 c0 -4.60 1.60 -17.05 2.30 -18.05 0.60 -0.75 0.65 -0.65 0.70 1 0 2.25 2.05 4.15 5.05 4.65 3.50 0.60 8.95 -0.15 12.10 -1.70 1.55 -0.75 2.85 -1.30 2.85 -1.15 0 0.20 -4.85 5.80 -7.50 8.55 -0.95 1.05 -3 3.60 -4.50 5.70 -1.65 2.35 -3.05 3.85 -3.60 3.85 -0.50 0 -0.90 -0.20 -0.90 -0.50 0 -0.25 -0.45 -0.50 -1 -0.50 -1.10 0 -1.25 -0.35 -0.50 -1.50 0.40 -0.60 0.65 -0.65 1.45 -0.15 1.20 0.75 1.65 0.30 1 -0.90 -0.25 -0.50 -0.30 -1.55 -0.15 -2.30 0.35 -1.25 0.30 -1.35 -0.50 -0.70 -0.70 0.60 -0.95 0.55 -1.80 -0.20 -0.55 -0.50 -0.85 -1.10 -0.70 -1.30 0.45 -0.75 3.30 -0.50 4.25 0.35 1.60 1.45 2.10 0.25 0.65 -1.65 -1.30 -1.75 -1.35 -1.80 -0.45 -3.25 1 -1.75 0.75 -2.20 -0.75 -1.40 -0.90 0.50 -1.25 0.40 -2.05 -0.45 -1.60 -1.70 -2.70 -1.20 -3.20 1.60 -0.35 1.65 -0.25 1.85 0.70 1.85 1 0 1.05 0.05 0.30 1.20 -0.70 1.05 -0.70 1.40 0 3.55 0.80 2.35 0.80 2.35 -0.45 3.70 -0.70 0.75 -1.30 1.60 -1.30 1.95 0 0.35 -0.45 0.60 -1 0.60 -0.90 0 -1 -0.35 -1 -2.85z m13.25 -8.15 c0.65 -0.70 0.75 -1.20 0.40 -1.55 -0.65 -0.65 -2.95 1.15 -2.45 1.95 0.50 0.85 1 0.75 2.05 -0.40z"/>
  <path d="M87 98.75 c0 -1.45 -0.95 -1.65 -2.70 -0.50 -1.10 0.70 -1.20 0.70 -1.50 -0.05 -0.20 -0.60 0.30 -1.85 1.55 -3.60 1.75 -2.60 1.85 -2.65 2.30 -1.55 1.10 2.70 1.65 6.95 0.90 6.95 -0.30 0 -0.55 -0.55 -0.55 -1.25z"/>
 </g>
 <g fill="#d3daf1">
  <path d="M47.50 99.50 c0 -0.25 -0.55 -0.60 -1.25 -0.80 -1 -0.25 -1.15 -0.45 -0.70 -1 0.40 -0.50 0.75 -0.55 1.45 -0.05 1.25 0.75 1.90 0.05 1.10 -1.20 -0.45 -0.70 -0.50 -1.25 -0.05 -2 0.70 -1.30 0.20 -1.85 -1 -1.10 -0.75 0.50 -1.10 0.40 -1.75 -0.30 -0.75 -0.80 -0.70 -0.95 0.45 -2.05 l1.20 -1.15 1.30 1.60 c1.40 1.60 2.75 2.05 2.75 0.85 0 -0.35 -0.35 -0.95 -0.80 -1.30 -1.60 -1.35 -1.80 -2.45 -0.75 -3.80 0.60 -0.75 0.90 -1.50 0.75 -1.75 -0.15 -0.25 0.70 -0.45 1.90 -0.45 1.20 0 3.05 -0.15 4.15 -0.35 2 -0.30 2 -0.30 1.10 0.70 -0.50 0.55 -1.80 1.15 -2.90 1.30 -2.30 0.30 -3.95 1.55 -3.95 2.95 0 1.70 1.45 1.55 3.85 -0.45 1.35 -1.05 3.05 -2.20 3.80 -2.55 l1.45 -0.60 -1.15 1.60 c-0.65 0.85 -2.35 2.95 -3.80 4.60 -1.50 1.60 -3.40 4.05 -4.25 5.40 -1.40 2.15 -2.90 3.15 -2.90 1.90z"/>
  <path d="M42.50 97.60 c0 -0.25 -0.25 -2.35 -0.55 -4.65 -0.45 -3.25 -0.45 -5.30 0.05 -9.10 0.40 -2.70 0.85 -5 1.05 -5.10 0.20 -0.15 0.25 0.15 0.10 0.70 -0.45 1.80 1.20 3.95 3.80 4.90 2.35 0.80 2.40 0.90 1.50 1.55 -0.90 0.65 -1.15 0.60 -2.15 -0.35 -0.60 -0.60 -1.25 -1.05 -1.45 -1.05 -0.65 0 -0.35 1.70 0.50 2.60 0.75 0.85 0.75 1 -0.50 2.30 -1.55 1.60 -1.65 2.75 -0.60 4.80 0.40 0.75 0.75 1.55 0.75 1.75 -0.05 0.50 -2.50 2.15 -2.50 1.65z"/>
 </g>
 <g fill="#ece9e8">
  <path d="M47.50 85.50 c0.40 -0.25 1.10 -0.50 1.50 -0.50 0.65 0 0.65 0.05 0 0.50 -0.40 0.25 -1.10 0.50 -1.50 0.50 -0.65 0 -0.65 -0.05 0 -0.50z"/>
  <path d="M43.70 38.95 c-0.15 -0.30 -0.10 -0.75 0.20 -1.05 0.30 -0.30 0.55 -0.10 0.75 0.55 0.25 1.10 -0.35 1.45 -0.95 0.50z"/>
  <path d="M52 39 c0 -0.25 0.45 -0.50 1 -0.50 0.55 0 1 0.25 1 0.50 0 0.30 -0.45 0.50 -1 0.50 -0.55 0 -1 -0.20 -1 -0.50z"/>
 </g>
</svg>