<?xml version="1.0" encoding="utf-8"?>
<!DOCTYPE svg PUBLIC "-//W3C//DTD SVG 1.0//EN" "http://www.w3.org/TR/2001/REC-SVG-20010904/DTD/svg10.dtd">
<svg version="1.0" xmlns="http://www.w3.org/2000/svg" width="100px" height="100px" viewBox="0 0 100 100" preserveAspectRatio="xMidYMid meet">
 <g fill="#0b0704">
  <path d="M7.50 97.50 l0 -2.50 1.75 0 1.75 0 0 2.50 0 2.50 -1.75 0 -1.75 0 0 -2.50z"/>
  <path d="M36 98.85 c0 -0.60 0.35 -1.65 0.80 -2.25 0.70 -1.05 0.70 -1.10 -0.25 -1.10 -0.60 0 -1.05 -0.30 -1.05 -0.70 0 -0.35 -0.35 -0.95 -0.75 -1.30 -0.45 -0.35 -0.75 -1.45 -0.75 -2.55 0 -1.90 0.05 -1.95 1.70 -1.95 1.35 0 1.95 0.35 2.75 1.45 0.60 0.80 1.05 1.95 1.05 2.55 0 1 0.05 1 1.10 0.30 0.60 -0.45 1.95 -0.80 3 -0.80 1.85 0 1.90 0.05 1.90 1.75 0 1.45 -0.30 1.95 -1.75 2.85 -0.95 0.65 -1.75 1.55 -1.75 2.05 0 0.70 -0.50 0.85 -3 0.85 -2.80 0 -3 -0.10 -3 -1.15z"/>
  <path d="M0 89.05 c0 -0.55 0.25 -1.15 0.55 -1.30 0.30 -0.20 0.65 -0.75 0.85 -1.20 0.20 -0.45 1.45 -2.80 2.80 -5.15 l2.40 -4.30 2.50 -0.20 c1.45 -0.15 3.10 -0.70 3.90 -1.35 0.85 -0.60 2.05 -1.30 2.75 -1.55 1.15 -0.45 1.25 -0.35 1.25 0.75 0 1.05 -0.25 1.25 -1.50 1.25 -1.15 0 -1.50 0.20 -1.50 1 0 1 -2.35 1.95 -5 2.05 -1.10 0 -1.65 0.75 -4 5.50 -2.25 4.50 -2.95 5.45 -3.85 5.45 -0.80 0 -1.15 -0.30 -1.15 -0.95z"/>
  <path d="M82.50 80.60 c0 -1.75 0.45 -3.20 1.55 -5.25 1.45 -2.70 2.95 -3.75 2.95 -2.10 0 0.40 0.60 0.85 1.40 1.05 0.75 0.15 3.10 0.85 5.25 1.55 3 0.95 4.15 1.60 5.10 2.85 0.70 0.90 1.25 1.90 1.25 2.20 0 1.10 -2 0.60 -3.40 -0.85 -0.80 -0.90 -2.65 -1.85 -4.55 -2.50 -4.10 -1.35 -4.05 -1.35 -4.05 0.40 0 0.85 -0.45 2.30 -1.05 3.25 -0.85 1.50 -1.35 1.80 -2.75 1.80 -1.70 0 -1.70 0 -1.70 -2.40z"/>
  <path d="M50.50 79.75 c0 -1.60 0.10 -1.75 1.50 -1.75 0.85 0 1.50 -0.20 1.50 -0.50 0 -0.25 0.80 -0.50 1.75 -0.50 1.65 0 1.75 0.10 1.75 1.75 0 1.55 -0.15 1.75 -1.25 1.75 -0.70 0 -1.25 0.25 -1.25 0.50 0 0.30 -0.90 0.50 -2 0.50 -1.95 0 -2 -0.05 -2 -1.75z"/>
  <path d="M42 76.35 c0 -1.45 0.25 -1.80 1.85 -2.55 2.60 -1.25 6.65 -4 9.30 -6.30 1.60 -1.40 2.70 -2 3.80 -2 1.40 0 1.55 0.15 1.55 1.65 0 1.30 -0.45 2.10 -2.10 3.70 -4.15 3.95 -9.85 7.10 -12.75 7.15 -1.55 0 -1.65 -0.10 -1.65 -1.65z"/>
  <path d="M28.50 70 c0 -0.25 0.25 -0.50 0.55 -0.50 0.65 0 0.25 -5.45 -0.85 -10.75 -0.90 -4.40 -0.90 -4.25 0.25 -4.25 0.80 0 1.05 0.60 1.55 3.65 0.35 1.95 0.80 4.80 1.05 6.30 0.25 1.50 0.45 3.50 0.45 4.40 0 1.50 -0.15 1.65 -1.50 1.65 -0.80 0 -1.50 -0.20 -1.50 -0.50z"/>
  <path d="M68 66.30 c0 -4.20 0.40 -5.50 2.10 -6.45 0.80 -0.45 2.05 -0.85 2.70 -0.85 1 0 1.20 -0.25 1.20 -1.50 0 -0.85 0.35 -1.65 0.85 -1.90 1.25 -0.70 1.65 -7.10 0.45 -7.10 -0.50 0 -0.80 0.45 -0.80 1.25 0 1 -0.25 1.25 -1.25 1.25 -1 0 -1.25 0.25 -1.25 1.25 0 1.45 -1.30 2.25 -3.70 2.25 -1.65 0 -1.80 -0.10 -1.80 -1.50 0 -0.80 0.55 -2.75 1.25 -4.25 2.35 -5.40 3.50 -11.35 2.60 -14 -1.30 -3.90 -7.10 -10.10 -11.35 -12.10 -2.75 -1.35 -6.95 -2.60 -10.15 -3.10 -4.50 -0.65 -8.80 0.55 -11.35 3.20 -0.95 0.95 -2.10 1.75 -2.60 1.75 -0.70 0 -0.90 0.40 -0.90 1.90 0 1 -0.15 2.70 -0.30 3.75 -0.30 1.75 -0.25 1.85 0.95 1.85 0.70 0 1.60 0.35 2.05 0.75 0.40 0.40 1.15 0.75 1.70 0.75 1.85 0 2.75 2.20 2.35 6 -0.35 3.30 -0.40 3.40 -1.85 3.70 -0.85 0.15 -2.40 0.30 -3.45 0.30 -1.80 0 -1.95 -0.10 -2 -1.35 l0 -1.40 -0.50 1.25 c-0.30 0.65 -0.65 1.35 -0.85 1.50 -0.20 0.15 -0.60 0.70 -0.90 1.25 -0.30 0.55 -1 1.20 -1.60 1.50 -0.65 0.30 -1.10 0.95 -1.10 1.60 0 0.80 -0.30 1.15 -1 1.15 -1.50 0 -1.25 -1.50 0.65 -4 0.85 -1.20 1.95 -2.60 2.35 -3.15 0.90 -1.25 1.60 -10.85 1.50 -21.45 -0.05 -4.45 0.15 -8.05 0.50 -9.10 1.10 -3.30 8.15 -7.40 16.40 -9.50 2.55 -0.60 4.75 -1.30 4.95 -1.45 0.15 -0.20 0.85 -0.35 1.50 -0.35 1.65 0 1.60 1.85 -0.10 2.30 -0.80 0.20 -1.25 0.65 -1.25 1.25 0 0.70 -0.35 0.95 -1.45 0.95 -1 0 -1.50 0.30 -1.70 1 -0.15 0.60 -0.70 1 -1.30 1 -0.60 0 -1.05 0.20 -1.05 0.45 0 0.25 -1.20 0.50 -2.65 0.65 -1.55 0.15 -3.95 0.85 -5.90 1.80 -1.80 0.90 -3.65 1.60 -4.10 1.60 -0.45 0 -1.05 0.45 -1.35 0.95 -0.65 1.30 -0.65 1.55 0.25 1.55 0.50 0 0.75 0.50 0.75 1.50 0 0.85 0.25 1.50 0.50 1.50 0.30 0 0.50 -0.20 0.50 -0.50 0 -0.25 0.45 -0.50 1 -0.50 0.55 0 1 -0.20 1 -0.45 0 -1.10 4.45 -1.10 10.05 -0.05 12 2.30 18.80 5.80 23.90 12.30 2.90 3.70 5.20 11.15 3.65 11.80 -0.25 0.10 -0.60 1 -0.75 2.05 -0.20 1.35 -0.10 1.85 0.40 1.85 0.35 0 0.75 -0.25 0.85 -0.55 0.15 -0.40 1.25 -0.45 3.50 -0.20 3.75 0.40 4.45 1.25 3.10 3.85 -0.85 1.60 -1.50 1.80 -1.90 0.55 -0.15 -0.50 -0.20 -0.10 -0.10 0.85 0.30 2.95 -6.15 12.40 -9.80 14.30 -1.25 0.65 -1.40 1 -1.40 3.35 0 1.45 0.25 2.90 0.60 3.25 0.45 0.45 0.25 0.60 -1 0.60 l-1.60 0 0 -2.70z"/>
  <path d="M50 63.40 c0.05 -2.25 1.05 -3.40 2.95 -3.40 1.45 0 1.55 0.10 1.55 1.90 0 2.35 -0.70 3.10 -2.85 3.10 -1.55 0 -1.65 -0.10 -1.65 -1.60z"/>
  <path d="M34.65 61.90 c-1.45 -0.45 -1.65 -0.75 -1.65 -2.20 0 -1.55 0.10 -1.70 1.60 -1.70 0.85 0 2.35 0.25 3.25 0.60 1.40 0.50 1.65 0.85 1.65 2.25 0 1.55 -0.10 1.65 -1.60 1.60 -0.90 -0.05 -2.40 -0.30 -3.25 -0.55z"/>
  <path d="M50.35 46.65 c-0.20 -0.15 -0.35 -0.80 -0.35 -1.35 0 -0.95 -0.25 -1.05 -2.25 -0.90 l-2.25 0.20 0 -3.60 0 -3.55 1.80 -0.75 c2.75 -1.15 9.65 -1.95 11.35 -1.25 1.10 0.45 1.35 0.85 1.35 2.30 0 1.65 -0.10 1.75 -1.70 1.75 -2.10 0 -2.75 0.75 -1.05 1.20 1.05 0.25 1.25 0.60 1.25 2.05 0 1.55 -0.15 1.75 -1.25 1.75 -0.90 0 -1.25 0.25 -1.25 0.95 0 0.50 -0.35 1.10 -0.80 1.25 -1.05 0.40 -4.45 0.40 -4.85 -0.05z"/>
  <path d="M83.50 39.75 c0 -1.40 0.20 -1.75 1 -1.75 1.05 0 1.20 0.50 0.70 2.40 -0.50 1.80 -1.70 1.35 -1.70 -0.65z"/>
  <path d="M80.50 34.75 c0 -1.05 -0.25 -1.25 -1.50 -1.25 -1.50 0 -1.50 -0.05 -1.50 -2.75 0 -2.10 0.15 -2.75 0.75 -2.75 0.40 0 0.75 -0.20 0.75 -0.50 0 -0.25 0.90 -0.50 2 -0.50 l2 0 0 -3 c0 -1.65 -0.20 -3 -0.50 -3 -0.25 0 -0.55 -0.60 -0.55 -1.35 -0.05 -0.80 -0.15 -1.05 -0.30 -0.60 -0.20 0.80 -2.15 1.45 -4.45 1.45 -0.85 0 -1.15 -0.30 -1.30 -1.35 -0.15 -1.25 -0.35 -1.40 -2.25 -1.55 -1.20 -0.10 -2.15 -0.35 -2.15 -0.60 0 -0.25 -0.50 -0.60 -1.05 -0.75 -1 -0.35 -1.05 -0.60 -0.70 -3.40 0.15 -1.70 0.55 -3.45 0.80 -3.95 0.45 -0.80 0.25 -0.90 -1.40 -0.90 -1.05 0 -2.55 -0.35 -3.35 -0.75 -0.75 -0.40 -1.75 -0.75 -2.10 -0.75 -0.40 0 -0.70 -0.20 -0.70 -0.45 0 -0.30 -0.75 -0.55 -1.60 -0.65 -1.60 -0.15 -1.65 -0.25 -1.65 -2.35 0 -2.60 1 -3.60 2.85 -2.70 0.65 0.30 3.15 1.15 5.60 1.90 2.45 0.75 5.25 1.85 6.25 2.45 3.40 2.20 8.10 7.40 9.60 10.65 1.65 3.60 2.95 10.25 2.95 15.20 0 3.35 -0.05 3.45 -1.25 3.45 -0.90 0 -1.25 0.25 -1.25 1 0 0.85 -0.35 1 -2 1 -1.80 0 -2 -0.10 -2 -1.25z"/>
 </g>
 <g fill="#100f07">
  <path d="M7.50 98 c0 -1.95 0.05 -2 1.75 -2 1.70 0 1.75 0.05 1.75 2 0 1.95 -0.05 2 -1.75 2 -1.70 0 -1.75 -0.05 -1.75 -2z"/>
  <path d="M35.65 98.20 c0.20 -1.30 0 -2.35 -0.95 -4.05 -0.65 -1.25 -1.20 -3.05 -1.20 -3.95 0 -1.60 0.10 -1.70 1.75 -1.70 1.05 0 1.75 0.25 1.75 0.65 0 0.30 0.90 1.60 2 2.80 1.20 1.35 2 1.90 2 1.45 0 -1.15 2.20 -2.40 4.25 -2.40 1.80 0 1.80 0.05 1.65 1.85 -0.10 1.40 -0.45 2.05 -1.40 2.50 -0.65 0.30 -1.40 1.05 -1.60 1.60 -0.45 1.30 -2.75 1.40 -3.65 0.25 -0.50 -0.75 -0.75 -0.65 -2 1 -1.85 2.40 -3 2.40 -2.60 0z m8.15 -4.05 c-0.40 -0.40 -2.80 1.25 -2.80 1.90 0 0.30 0.70 0.05 1.55 -0.55 0.80 -0.60 1.40 -1.25 1.25 -1.35z m-6.85 -2.20 c-0.60 -0.85 -1.20 -1.40 -1.35 -1.25 -0.15 0.15 0.10 0.70 0.55 1.20 0.50 0.50 0.85 1.20 0.85 1.55 0 0.35 0.25 0.45 0.50 0.30 0.30 -0.20 0.10 -0.90 -0.55 -1.80z"/>
  <path d="M81 84.65 c0.05 -2.10 0.85 -5.75 1.30 -6.10 0.25 -0.15 0.70 -0.95 1 -1.80 0.30 -0.80 0.75 -1.90 0.95 -2.35 0.25 -0.70 0.10 -0.90 -0.70 -0.90 -0.60 0 -1.05 -0.30 -1.05 -0.70 0 -0.70 1.45 -1.30 3.45 -1.30 1.05 0 1.15 0.20 0.95 1.70 -0.10 1.15 0 1.60 0.40 1.45 1.15 -0.45 1.20 0.80 0.10 3.05 -0.60 1.25 -1.30 2.30 -1.50 2.30 -0.20 0 -0.40 0.80 -0.40 1.75 0 2.90 -0.90 4.25 -2.85 4.25 -1.45 0 -1.65 -0.15 -1.65 -1.35z m4.45 -4.95 c1.05 -1.75 1.50 -3.15 0.55 -1.70 -0.40 0.65 -0.50 0.65 -0.50 0.05 0 -1.25 -1.45 1.05 -1.50 2.35 0 1.50 0.25 1.40 1.45 -0.70z"/>
  <path d="M49.50 80.25 c0 -1.25 0.25 -1.75 0.75 -1.75 0.40 0 1.15 -0.20 1.65 -0.45 5.85 -3 10.75 -5.05 12 -5.05 1.50 0 1.60 0.15 1.60 1.70 0 1.55 -0.20 1.80 -3.35 3.45 -4.10 2.10 -9.05 3.85 -11.15 3.85 -1.40 0 -1.50 -0.15 -1.50 -1.75z"/>
  <path d="M5.50 79.70 c0 -0.15 0.25 -0.70 0.50 -1.25 0.75 -1.40 2 -1.20 2 0.30 0 1 -0.25 1.25 -1.25 1.25 -0.70 0 -1.25 -0.15 -1.25 -0.30z"/>
  <path d="M33.50 77.75 c0 -0.45 -0.45 -0.75 -1.25 -0.75 -1.10 0 -1.25 -0.20 -1.25 -1.75 0 -1.65 0.10 -1.75 1.75 -1.75 1.20 0 1.75 0.25 1.75 0.75 0 0.45 0.45 0.75 1.25 0.75 1.10 0 1.25 0.20 1.25 1.75 0 1.65 -0.10 1.75 -1.75 1.75 -1.20 0 -1.75 -0.25 -1.75 -0.75z"/>
  <path d="M13.20 75.60 c0.45 -0.55 4.35 -2.15 8.65 -3.65 5.65 -1.90 7.85 -2.90 8.05 -3.55 0.40 -1.65 1.60 -1 1.60 0.85 0 1.60 -0.15 1.75 -1.85 2.05 -1.05 0.20 -2 0.50 -2.15 0.70 -0.50 0.60 -12.25 4.50 -13.70 4.50 -1.40 0 -1.40 -0.05 -0.60 -0.90z"/>
  <path d="M72.10 71.50 l-4.10 -1.95 0 -3.80 c0 -3.40 0.10 -3.75 0.95 -3.75 0.90 0 1 0.35 0.90 2.90 l-0.10 2.85 3 1.60 c1.65 0.90 3.95 1.90 5.15 2.20 2.70 0.75 2.85 1.95 0.20 1.95 -1.20 0 -3.45 -0.75 -6 -2z"/>
  <path d="M71.50 60.15 c0 -1.75 1.80 -3.65 3.40 -3.65 0.90 0 1.10 -0.30 1.10 -1.55 0 -0.85 0.25 -1.95 0.50 -2.50 0.35 -0.65 0.35 -0.95 0 -0.95 -0.25 0 -0.50 -0.60 -0.50 -1.35 -0.05 -1.40 -0.05 -1.40 -1.90 0.75 -1.50 1.75 -2.15 2.10 -3.55 2.10 -1.50 0 -1.65 -0.10 -0.95 -0.60 0.45 -0.35 0.85 -1.30 0.90 -2.15 0.15 -2.25 0 -2.60 -0.55 -1.60 -0.25 0.45 -0.35 1.15 -0.15 1.50 0.20 0.30 0.15 0.45 -0.05 0.20 -0.25 -0.20 -0.70 0.30 -1.05 1.15 -0.85 2 -1.70 1.90 -1.70 -0.25 0 -0.95 0.25 -1.75 0.50 -1.75 0.30 0 0.50 -0.40 0.50 -0.90 0 -0.55 0.45 -2.20 0.95 -3.75 0.55 -1.55 1.15 -3.85 1.30 -5.10 0.25 -1.40 0.60 -2.25 1.05 -2.25 0.40 0 0.70 -0.20 0.70 -0.50 0 -0.25 -0.35 -0.50 -0.75 -0.50 -0.50 0 -0.75 -0.50 -0.75 -1.50 0 -0.80 -0.20 -1.50 -0.50 -1.50 -0.25 0 -0.50 -0.35 -0.50 -0.75 0 -0.40 -0.20 -0.75 -0.50 -0.75 -0.25 0 -0.50 -0.30 -0.50 -0.70 0 -0.40 -0.35 -0.80 -0.75 -1 -0.40 -0.15 -0.75 -0.50 -0.75 -0.85 0 -0.30 -0.55 -1 -1.25 -1.55 -0.70 -0.55 -1.25 -1.40 -1.25 -1.95 0 -0.65 -0.35 -0.95 -1.20 -0.95 -0.65 0 -1.30 -0.15 -1.40 -0.35 -0.05 -0.25 -1.60 -1.05 -3.40 -1.90 -1.80 -0.80 -3.35 -1.65 -3.50 -1.80 -0.15 -0.15 -1.15 -0.45 -2.25 -0.60 -1.10 -0.20 -2.05 -0.55 -2.15 -0.75 -0.05 -0.25 -1.15 -0.35 -2.35 -0.20 -1.50 0.15 -2.25 0.05 -2.25 -0.35 0 -0.30 -0.55 -0.55 -1.25 -0.55 -0.70 0 -1.25 -0.25 -1.25 -0.55 0 -0.55 2.55 -0.45 8.50 0.25 1.30 0.15 6.30 1.85 8.50 2.95 4.50 2.15 10.10 8.25 11.50 12.50 0.65 2.15 0.35 7.20 -0.75 10.90 -0.45 1.55 -0.50 2.55 -0.15 3 0.40 0.55 0.45 0.55 0.25 -0.10 -0.15 -0.45 0 -1.25 0.35 -1.75 0.90 -1.45 1.90 -4.65 2.05 -6.65 0.05 -1 0.25 -2.15 0.45 -2.55 0.50 -1.25 -1 -4.80 -3.30 -7.75 -4.45 -5.70 -12.35 -10.15 -20.70 -11.65 -1.40 -0.25 -2.90 -0.40 -3.35 -0.30 -0.45 0.05 -0.85 -0.15 -0.85 -0.45 0 -0.35 -0.25 -0.25 -0.50 0.15 -0.30 0.45 -0.50 0.55 -0.50 0.15 0 -0.35 -0.35 -0.50 -0.80 -0.30 -0.45 0.15 -1 0 -1.20 -0.35 -0.35 -0.55 -0.55 -0.55 -1.20 -0.05 -0.40 0.35 -1 0.50 -1.30 0.30 -0.25 -0.15 -0.50 -0.05 -0.50 0.20 0 0.30 -0.45 0.55 -1 0.55 -0.55 0 -1 0.25 -1 0.50 0 0.30 -0.45 0.50 -1 0.50 -0.55 0 -1 0.25 -1 0.50 0 0.30 -0.55 0.50 -1.20 0.50 -1.30 0 -2.05 1.70 -1.50 3.20 0.35 0.95 0.80 1 1.60 0.20 0.45 -0.45 0.60 -0.25 0.60 1 0 0.90 -0.20 1.60 -0.50 1.60 -0.25 0 -0.50 0.80 -0.50 1.75 0 1.50 -0.15 1.75 -1.10 1.75 -1.15 0 -1.15 0 -1.15 -8.45 0 -7.80 0.10 -8.60 1.05 -9.90 1.25 -1.75 5.50 -4.55 9.45 -6.30 6.15 -2.65 17.90 -4.70 19.50 -3.35 1.05 0.85 0.95 1.35 -0.30 1.65 -1.50 0.40 -0.90 1.60 0.80 1.65 0.80 0.05 1.55 0.30 1.65 0.65 0.10 0.30 0.45 0.55 0.80 0.55 0.35 0 1.35 0.35 2.20 0.80 1.65 0.80 3.45 0.45 1.90 -0.40 -0.45 -0.25 -0.65 -0.70 -0.50 -1 0.20 -0.35 0.10 -0.40 -0.25 -0.20 -0.30 0.20 -1.15 0 -1.85 -0.45 -0.65 -0.45 -1.40 -0.70 -1.60 -0.55 -0.70 0.40 -1.90 -0.60 -1.35 -1.15 0.60 -0.60 4.40 0.30 8.70 2.05 3.05 1.20 5.35 2.90 3.95 2.90 -0.45 0 -1.05 -0.35 -1.40 -0.75 -0.35 -0.45 -0.95 -0.70 -1.30 -0.55 -0.35 0.15 -0.75 0 -0.85 -0.35 -0.10 -0.35 -0.35 -0.50 -0.50 -0.35 -0.20 0.15 0 0.95 0.40 1.70 0.95 1.80 0.95 1.90 -0.25 3.25 -0.95 1.15 -0.95 1.15 0.15 2.75 0.60 0.85 1.30 1.70 1.60 1.90 0.85 0.60 0.90 -0.05 0.05 -1.30 -1.10 -1.75 -1 -3.15 0.25 -3.45 0.90 -0.25 1 -0.10 0.75 0.95 -0.50 2 1.60 6.05 3.75 7.20 0.55 0.30 0.80 0.25 0.80 -0.25 0 -0.40 -0.20 -0.60 -0.45 -0.45 -0.55 0.35 -2.90 -2.25 -2.90 -3.25 0 -0.80 1 -2.65 1 -1.85 0 0.25 0.40 0.10 0.85 -0.25 0.45 -0.40 0.70 -0.45 0.50 -0.10 -0.20 0.30 0.25 1.05 1 1.65 0.80 0.60 1 0.95 0.55 0.80 -0.50 -0.15 -0.90 -0.05 -0.90 0.20 0 0.30 0.15 0.50 0.40 0.55 0.20 0 0.75 0.10 1.25 0.20 1.35 0.25 1 -0.75 -1.15 -3.60 -1.10 -1.45 -1.75 -2.65 -1.50 -2.65 0.95 0 4.10 3.20 5.05 5.15 1.45 2.80 2.90 9 3.25 13.85 0.30 3.65 0.15 5.05 -1 9.75 -0.75 3.05 -2.05 6.85 -2.90 8.55 -2.20 4.45 -7.90 12.65 -9.75 14.10 l-1.65 1.25 0 -1.50z m7.35 -10.45 c-0.60 -0.65 -1.35 0.45 -1.30 1.95 l0 1.60 0.80 -1.60 c0.45 -0.90 0.70 -1.80 0.50 -1.95z m0.45 -3.10 c0.05 -1.30 -0.55 -1.45 -1 -0.30 -0.45 1.25 -0.35 1.80 0.35 1.60 0.30 -0.15 0.65 -0.70 0.65 -1.30z m6.45 -16.05 c0.35 -2.15 -0.10 -5.55 -0.80 -5.55 -0.20 0 -0.30 1.25 -0.20 2.75 0.10 1.80 0 2.65 -0.35 2.45 -0.25 -0.20 -0.25 0.20 0.10 0.80 0.40 0.75 0.40 1 0.05 0.80 -0.30 -0.20 -0.55 -0.10 -0.55 0.15 0 0.30 0.30 0.55 0.70 0.55 0.45 0 0.85 -0.75 1.05 -1.95z m-46.75 -22.90 c4.45 -2.05 6.25 -2.65 6.40 -2.15 0.10 0.25 0.55 0.50 1 0.50 0.70 0 0.70 -0.10 0.15 -0.45 -0.85 -0.55 -0.40 -1.35 0.95 -1.70 0.65 -0.15 1 0 1 0.50 0 0.40 0.25 0.55 0.50 0.40 0.30 -0.20 0.40 -0.55 0.25 -0.80 -0.20 -0.25 0.20 -0.65 0.85 -0.90 0.65 -0.30 0.90 -0.50 0.55 -0.50 -1.80 -0.10 -13.65 4.90 -13.65 5.75 0 0.15 0.15 0.20 0.40 0.10 0.20 -0.10 0.90 -0.45 1.60 -0.75z"/>
  <path d="M27.05 53.50 c-0.70 -3.35 -0.70 -3.50 0.40 -3.50 0.90 0 1.55 1.95 1.55 4.90 0 2.20 -1.40 1.15 -1.95 -1.40z"/>
  <path d="M26.85 47.05 c0.15 -0.55 0.70 -1.35 1.20 -1.85 0.90 -0.85 0.95 -0.80 0.95 0.95 0 1.60 -0.15 1.85 -1.20 1.85 -0.95 0 -1.15 -0.20 -0.95 -0.95z"/>
  <path d="M46.60 42.45 c0.15 -2.10 0.20 -2.20 2.65 -3.10 1.40 -0.50 4.10 -1 6 -1.10 1.95 -0.10 2.90 -0.05 2.10 0.10 -1.25 0.20 -1.35 0.35 -1.05 2.20 l0.35 2 -1.35 -0.55 c-1.75 -0.65 -6.30 -0.65 -6.30 0 0 0.30 0.55 0.40 1.25 0.20 0.90 -0.20 1.35 -0.05 1.55 0.50 0.45 1.15 0.20 1.30 -2.75 1.65 l-2.60 0.30 0.15 -2.20z"/>
  <path d="M54.90 42.90 c0.45 -0.45 0.75 -0.45 1.20 0 0.45 0.45 0.35 0.60 -0.60 0.60 -0.95 0 -1.05 -0.15 -0.60 -0.60z"/>
  <path d="M33.50 39.75 c0 -2.45 -0.15 -3.25 -0.70 -3.25 -0.85 0 -1.50 -3.90 -1.05 -6 0.45 -1.95 1.75 -2 1.75 -0.05 0 1.30 0.20 1.45 2.15 1.70 1.35 0.20 2.35 0.65 2.80 1.30 0.35 0.60 0.95 1.05 1.35 1.05 0.95 0 1.70 1.65 1.70 3.70 0 1.25 -0.20 1.80 -0.75 1.80 -0.50 0 -0.75 0.50 -0.75 1.50 l0 1.50 -3.25 0 -3.25 0 0 -3.25z m4.90 1.65 c0.85 -0.10 -0.75 -1.80 -2.65 -2.80 -1.40 -0.70 -1.45 -0.70 -0.80 0.05 0.35 0.50 0.55 1.40 0.40 2.15 -0.20 1.20 -0.10 1.25 1.10 1 0.70 -0.20 1.60 -0.35 1.95 -0.40z m0.35 -5.10 c-0.50 -0.75 -1.30 -1.30 -1.95 -1.25 -1 0 -1 0.05 -0.05 0.45 0.55 0.25 0.80 0.45 0.55 0.45 -0.20 0.05 0.10 0.50 0.75 1 1.50 1.25 1.75 1 0.70 -0.65z m-3.45 -1.90 c0.20 -0.35 0.15 -0.40 -0.20 -0.20 -0.35 0.20 -0.60 0.10 -0.60 -0.15 0 -0.75 -1.35 -0.70 -1.80 0.05 -0.25 0.40 -0.10 0.45 0.45 0.25 0.45 -0.15 0.95 -0.10 1.10 0.15 0.40 0.65 0.60 0.60 1.05 -0.10z"/>
  <path d="M48 37.30 c0 -0.95 0.40 -1.20 2.55 -1.70 1.40 -0.35 3.75 -0.60 5.25 -0.60 2.55 0 2.70 0.05 2.70 1.25 0 1.05 -0.15 1.15 -1.15 0.80 -1.15 -0.45 -5.85 0.10 -8.10 0.95 -1.10 0.40 -1.25 0.35 -1.25 -0.70z"/>
 </g>
 <g fill="#1d2212">
  <path d="M31.50 99.05 c0 -1.90 0.55 -2.55 2.30 -2.55 1.60 0 1.70 0.10 1.70 1.75 0 1.70 -0.05 1.75 -2 1.75 -1.65 0 -2 -0.15 -2 -0.95z"/>
  <path d="M75.15 97.90 c0.15 -1.20 0.50 -3.05 0.85 -4.15 0.30 -1.10 0.75 -3 1 -4.25 0.60 -2.85 8 -17.50 8.85 -17.50 1.40 0 1.15 1.50 -0.85 5.45 -1.10 2.25 -1.90 4.30 -1.70 4.60 0.40 0.70 1.80 -1.35 2 -2.90 0.15 -1.50 1.60 -4.65 2.15 -4.65 1 0 0.85 0.90 -0.70 4.05 -0.95 1.90 -1.75 3.90 -1.75 4.45 0 0.55 -0.90 3 -2 5.40 -1.10 2.45 -2.25 6.05 -2.60 8 l-0.60 3.60 -2.45 0 -2.45 0 0.25 -2.10z"/>
  <path d="M8 95.65 c0 -2.10 0.25 -5.15 0.60 -6.75 0.60 -2.85 0.65 -2.90 2.30 -2.90 l1.75 0 -0.30 3.15 c-0.15 1.70 -0.45 4.75 -0.65 6.75 -0.30 3 -0.50 3.60 -1.25 3.60 -0.65 0 -0.95 -0.45 -1.10 -1.60 l-0.20 -1.65 -0.05 1.65 c-0.05 0.85 -0.30 1.60 -0.60 1.60 -0.30 0 -0.50 -1.60 -0.50 -3.85z"/>
  <path d="M35.45 95.90 c-0.35 -0.90 -0.95 -1.95 -1.30 -2.30 -0.35 -0.40 -0.65 -1.85 -0.65 -3.40 l0 -2.75 1.90 0.15 c1.80 0.15 1.85 0.20 2 2.30 0.10 1.15 0.35 2.10 0.55 2.10 0.65 0 1.65 2.80 1.45 4.10 -0.10 0.90 -0.50 1.20 -1.70 1.30 -1.35 0.15 -1.65 -0.05 -2.25 -1.50z m2.50 -2.40 c-0.65 -1.10 -1.55 -2.40 -2.05 -2.85 -0.90 -0.80 -0.95 -0.80 -0.50 0.35 0.90 2.35 2.35 4.50 3 4.50 0.45 0 0.35 -0.60 -0.45 -2z"/>
  <path d="M41 97.25 c0 -0.10 1 -1.15 2.25 -2.30 2.75 -2.55 2.55 -3.25 -0.25 -1 -1.30 1.05 -2 1.35 -2 0.90 0 -0.40 0.35 -1 0.75 -1.35 0.40 -0.35 0.75 -1 0.75 -1.45 0 -1.10 0.95 -2.05 2.10 -2.05 0.50 0 0.90 -0.20 0.90 -0.50 0 -0.25 0.90 -0.50 2 -0.50 2.20 0 2.70 0.85 2.40 4.05 -0.15 1.50 -0.35 1.70 -1.70 1.85 -0.85 0.10 -2.10 0.70 -2.75 1.40 -0.75 0.80 -1.65 1.20 -2.80 1.20 -0.90 0 -1.65 -0.10 -1.65 -0.25z"/>
  <path d="M46.50 81.35 c0 -1.60 0.10 -1.65 3.35 -2.55 4.05 -1.05 11 -4.15 12.45 -5.55 0.60 -0.55 1.90 -1.70 2.90 -2.60 1 -0.90 1.80 -1.85 1.80 -2.15 0 -0.25 0.25 -0.50 0.50 -0.50 0.30 0 0.50 -0.35 0.50 -0.75 0 -0.40 0.35 -0.75 0.75 -0.75 0.40 0 0.75 0.35 0.75 0.75 0 0.40 1.15 1.30 2.50 2 2.95 1.50 3.20 2.25 0.75 2.25 -0.95 0 -1.75 -0.25 -1.75 -0.55 0 -0.30 -0.35 -0.20 -0.75 0.25 -0.40 0.40 -0.75 0.90 -0.75 1.15 0 0.70 -4.45 4.65 -5.25 4.65 -0.40 0 -0.75 0.20 -0.75 0.45 0 1.10 -12.50 5.55 -15.65 5.55 -1.20 0 -1.35 -0.20 -1.35 -1.65z m12.45 -3.90 c2.30 -1.05 4.10 -2.10 3.95 -2.25 -0.15 -0.15 -1.15 0.25 -2.20 0.85 -1.10 0.60 -3.50 1.75 -5.45 2.55 -1.90 0.80 -2.80 1.30 -2 1.15 0.85 -0.20 3.40 -1.20 5.70 -2.30z"/>
  <path d="M33.25 78.50 c-3 -1.75 -3.75 -2.70 -3.75 -4.85 0 -1.55 0.10 -1.65 1.70 -1.65 1.10 0 2 0.35 2.40 0.90 0.35 0.50 1.70 1.55 3.05 2.30 2.05 1.25 2.35 1.60 2.35 3.10 0 1.60 -0.10 1.70 -1.60 1.65 -0.90 -0.05 -2.75 -0.70 -4.15 -1.45z"/>
  <path d="M14.50 75.35 c0 -0.35 2.30 -1.45 5.25 -2.45 l5.25 -1.85 0 1.15 c0 0.90 -0.45 1.25 -2.65 1.95 -1.50 0.45 -3.05 0.85 -3.50 0.85 -0.50 0 -0.85 0.25 -0.85 0.50 0 0.30 -0.80 0.50 -1.75 0.50 -1.10 0 -1.75 -0.25 -1.75 -0.65z"/>
  <path d="M75.50 72.30 c0 -1.15 0.10 -1.20 1.75 -0.65 0.95 0.30 1.75 0.80 1.75 1.20 0 0.40 -0.65 0.65 -1.75 0.65 -1.50 0 -1.75 -0.15 -1.75 -1.20z"/>
  <path d="M25.60 71.40 c0.15 -0.35 1.10 -0.95 2.20 -1.35 1.05 -0.40 2.10 -1 2.30 -1.25 0.20 -0.30 0.40 0.15 0.40 1 0 1.20 -0.25 1.65 -1.10 1.90 -2 0.50 -4 0.35 -3.80 -0.30z"/>
  <path d="M82 45.25 c0 -1.25 0.95 -2.75 1.75 -2.75 0.65 0 0.65 0.25 0.10 1.60 -0.70 1.75 -1.85 2.45 -1.85 1.15z"/>
  <path d="M85.50 33.05 c0 -1.40 0.75 -2.45 1.35 -1.90 0.40 0.40 -0.35 3.35 -0.90 3.35 -0.25 0 -0.45 -0.65 -0.45 -1.45z"/>
  <path d="M33.15 14.25 c0 -1.35 0.10 -1.90 0.20 -1.10 0.10 0.75 0.10 1.85 0 2.50 -0.10 0.60 -0.20 0 -0.20 -1.40z"/>
  <path d="M43.10 4.40 c0.10 -0.30 0.95 -0.90 1.85 -1.25 1.30 -0.55 1.60 -0.55 1.45 -0.05 -0.10 0.30 -0.95 0.90 -1.85 1.25 -1.30 0.55 -1.60 0.55 -1.45 0.05z"/>
 </g>
 <g fill="#2e180b">
  <path d="M32.50 99.40 c0 -0.65 0.40 -0.90 1.25 -0.90 0.80 0 1.25 0.30 1.25 0.75 0 0.40 -0.35 0.75 -0.75 0.75 -0.40 0 -0.75 -0.30 -0.75 -0.60 0 -0.45 -0.20 -0.40 -0.50 0.10 -0.40 0.65 -0.50 0.60 -0.50 -0.10z"/>
  <path d="M38.50 99.55 c0 -0.70 1.30 -1.60 1.75 -1.15 0.20 0.20 0.25 -0.15 0.10 -0.75 -0.20 -0.95 -0.05 -1.15 0.95 -1.15 1.05 0 1.20 0.25 1.20 1.75 0 1.70 -0.05 1.75 -2 1.75 -1.10 0 -2 -0.20 -2 -0.45z"/>
  <path d="M38 97.25 c0 -0.40 0.35 -0.75 0.80 -0.75 0.70 0 0.70 0.15 0.20 0.75 -0.35 0.40 -0.70 0.75 -0.80 0.75 -0.10 0 -0.20 -0.35 -0.20 -0.75z"/>
  <path d="M36.15 79.85 c-2.30 -1.75 -3.05 -3.80 -1 -2.85 l1.10 0.55 -1.10 -0.85 c-1.80 -1.30 -1.35 -1.75 1.75 -1.65 3.35 0.10 7.70 -0.50 8.15 -1.15 0.15 -0.25 0.95 -0.40 1.75 -0.30 l1.45 0.15 -2 1.10 c-1.10 0.60 -1.75 1.10 -1.50 1.10 0.30 0 1.05 -0.30 1.75 -0.70 1.75 -1 2 -0.95 2 0.50 0 1 -0.25 1.25 -1.25 1.25 -0.70 0 -1.25 0.20 -1.25 0.50 0 0.25 -0.90 0.75 -2 1.05 -1.60 0.50 -2 0.85 -2 1.80 0 1.80 -3.15 1.55 -5.85 -0.50z"/>
  <path d="M55 69.15 c1.50 -1.55 1.65 -1.85 0.50 -0.75 -2.10 1.85 -2.50 1.95 -2.50 0.60 0 -0.55 0.15 -1 0.40 -1 0.20 0 0.80 -0.70 1.35 -1.50 0.75 -1.15 1.40 -1.50 2.65 -1.50 1.50 0 1.60 0.10 1.60 1.75 0 2.40 -2.20 4.75 -4.55 4.75 l-1.65 0 2.20 -2.35z"/>
  <path d="M49 64.50 l0 -1.50 -5.55 0 c-5.20 0 -9.45 -0.70 -9.45 -1.50 0 -0.20 -0.45 -0.50 -1 -0.65 -0.75 -0.20 -1 -0.70 -1 -2.10 l0 -1.90 2.25 0.25 c2.20 0.25 2.25 0.25 2.25 -1.15 0 -1.25 -0.20 -1.45 -1.40 -1.45 -1.65 0 -3.10 -2.05 -3.10 -4.45 0 -1.45 0.15 -1.55 1.75 -1.55 1.40 0 1.85 0.25 2.50 1.50 0.40 0.80 0.75 2.15 0.75 3 0 1.15 0.20 1.50 1 1.50 0.55 0 1 -0.30 1 -0.70 0 -0.65 2.05 -1.30 4.30 -1.30 1.05 0 1.20 0.25 1.20 1.70 0 1.65 -0.10 1.75 -2.25 2.10 -1.40 0.20 -2.25 0.55 -2.25 1 0 0.40 -0.50 0.70 -1.10 0.75 -0.75 0.05 -0.35 0.30 1.10 0.80 1.80 0.55 2.90 0.60 5.60 0.20 1.85 -0.30 4.60 -0.55 6.10 -0.55 l2.80 0 0 2.95 c0 2.55 -0.15 3.10 -1.10 3.75 -0.60 0.45 -1.85 0.80 -2.75 0.80 -1.50 0 -1.65 -0.15 -1.65 -1.50z"/>
  <path d="M69 61.75 c0 -1.65 0.10 -1.75 1.75 -1.75 2.05 0 2.30 0.80 0.50 1.60 -0.70 0.30 -1.25 0.85 -1.25 1.25 0 0.35 -0.20 0.65 -0.50 0.65 -0.25 0 -0.50 -0.80 -0.50 -1.75z"/>
  <path d="M75.50 53.25 c0 -1.40 0.20 -1.75 1 -1.75 0.60 0 1 0.35 1 0.85 0 0.75 0.10 0.70 0.75 -0.15 1 -1.30 0.95 0 -0.05 1.55 -0.45 0.70 -1.25 1.25 -1.75 1.25 -0.75 0 -0.95 -0.35 -0.95 -1.75z"/>
  <path d="M67.50 52.75 c0 -0.95 0.25 -1.75 0.55 -1.75 0.30 0 0.45 0.45 0.30 1 -0.50 1.90 0.90 1 4.75 -3.10 3.85 -4.15 3.90 -4.15 3.90 -2.55 0 2 -1.30 3.65 -2.85 3.65 -0.95 0 -1.15 0.25 -1.15 1.50 0 1.15 -0.20 1.50 -1 1.50 -0.55 0 -1 0.35 -1 0.75 0 0.50 -0.55 0.75 -1.75 0.75 -1.65 0 -1.75 -0.10 -1.75 -1.75z"/>
  <path d="M50 45.25 c0 -1.45 0.20 -1.75 1.05 -1.75 0.70 0 0.95 0.25 0.80 0.75 -0.20 0.40 -0.10 0.85 0.20 1 0.85 0.55 2.40 -0.30 2.55 -1.40 0.10 -0.85 0.45 -1.05 1.40 -1 l1.25 0.15 -1.35 -0.80 c-1.90 -1 -1.75 -1.70 0.35 -1.70 0.95 0 1.75 0.25 1.75 0.50 0 0.30 0.35 0.50 0.75 0.50 0.50 0 0.75 0.55 0.75 1.75 0 1.65 -0.10 1.75 -1.70 1.75 -0.95 0 -1.85 -0.30 -1.95 -0.60 -0.15 -0.35 -0.30 0.10 -0.30 1 l-0.05 1.60 -2.75 0 -2.75 0 0 -1.75z"/>
  <path d="M45.10 42.90 c0.15 -2.15 0.15 -2.15 2.30 -2.30 2.45 -0.20 2.65 0.30 0.75 1.55 l-1.40 0.90 1.40 -0.30 c1.35 -0.25 1.60 0.05 1.05 1.45 -0.20 0.55 -0.95 0.80 -2.30 0.80 l-1.95 0 0.15 -2.10z"/>
  <path d="M30.30 42.55 c0.70 -1.10 1.40 -2.90 1.55 -4 0.25 -2 0.35 -2.05 2.20 -2.05 1.60 0 1.95 0.15 1.95 1 0 0.70 -0.25 0.90 -0.80 0.65 -0.70 -0.25 -0.75 -0.15 -0.25 0.75 0.50 0.90 0.45 1.10 -0.25 1.10 -0.40 0 -1.05 0.70 -1.35 1.50 -0.30 0.85 -0.75 1.50 -0.95 1.50 -0.20 0 -0.40 0.35 -0.40 0.75 0 0.50 -0.50 0.75 -1.50 0.75 l-1.50 0 1.30 -1.95z"/>
  <path d="M37.50 42.75 c0 -0.80 0.30 -1.25 0.80 -1.25 0.70 0 0.70 -0.15 0.15 -0.80 -0.55 -0.70 -0.45 -0.75 1.10 -0.60 1.55 0.15 1.70 0.30 1.85 2.05 l0.15 1.85 -2 0 c-1.85 0 -2.05 -0.10 -2.05 -1.25z"/>
  <path d="M56.50 39 c0 -0.70 0.35 -1 1.15 -1 1.05 -0.05 1.10 -0.05 0.15 -0.75 -0.95 -0.70 -0.90 -0.75 0.60 -0.75 1.50 0 1.60 0.10 1.60 1.75 0 1.65 -0.10 1.75 -1.75 1.75 -1.40 0 -1.75 -0.20 -1.75 -1z"/>
  <path d="M69 31.25 c0 -2.15 0.50 -2.20 1.65 -0.30 1.10 1.90 1.10 2.05 -0.40 2.05 -1.10 0 -1.25 -0.20 -1.25 -1.75z"/>
  <path d="M32.25 23.95 c-0.20 -0.85 -0.20 -1.65 -0.05 -1.80 0.45 -0.45 1.75 1.40 1.80 2.50 0 1.45 -1.40 0.95 -1.75 -0.70z"/>
  <path d="M37.10 20.40 c0.15 -0.35 0.95 -0.90 1.80 -1.25 1.55 -0.65 1.60 -0.60 1.60 0.60 0 1.10 -0.20 1.25 -1.80 1.25 -1.15 0 -1.70 -0.20 -1.60 -0.60z"/>
  <path d="M76.25 7.40 c-2.10 -2.10 -2.25 -2.40 -1 -1.75 1.80 0.90 3.95 3.10 3.70 3.75 -0.10 0.30 -1.30 -0.60 -2.70 -2z"/>
 </g>
 <g fill="#2f1d0c">
  <path d="M32 99.05 c0 -1.90 0.55 -2.55 2.30 -2.55 1.60 0 1.70 0.10 1.70 1.75 0 1.35 -0.20 1.75 -0.90 1.75 -0.50 0 -1.15 -0.25 -1.50 -0.60 -0.45 -0.45 -0.60 -0.45 -0.60 0 0 0.35 -0.20 0.60 -0.50 0.60 -0.25 0 -0.50 -0.45 -0.50 -0.95z"/>
  <path d="M40.75 98.15 l-0.75 -1.80 -1.15 1.05 c-0.90 0.85 -1.20 0.90 -1.70 0.35 -0.35 -0.40 -0.65 -1.30 -0.65 -2 0 -0.70 -0.55 -1.90 -1.25 -2.65 -0.80 -0.85 -1.25 -1.90 -1.25 -2.95 0 -1.55 0.10 -1.65 1.70 -1.65 1.95 0 3.30 1.40 3.30 3.35 0 0.95 0.25 1.15 1.50 1.15 0.95 0 1.50 -0.25 1.50 -0.70 0 -0.65 2.05 -1.30 4.30 -1.30 1.05 0 1.20 0.25 1.20 1.75 0 1.05 -0.25 1.75 -0.60 1.75 -0.35 0 -1.20 0.15 -1.90 0.35 l-1.20 0.30 1.10 -1.35 c1.85 -2.40 0.60 -2.45 -1.80 -0.10 -2.30 2.30 -2.60 3.35 -0.60 2.30 0.90 -0.50 1.05 -0.45 0.90 0.05 -0.15 0.40 -0.75 0.80 -1.45 1 -1.15 0.35 -1.15 0.35 -0.05 0.40 0.85 0.05 1.10 0.35 1.10 1.30 0 1.90 -1.35 1.55 -2.25 -0.60z m-2.35 -3.80 c-0.30 -0.60 -1 -1.75 -1.60 -2.60 -0.55 -0.80 -1.05 -1.65 -1.05 -1.85 0 -0.15 -0.15 -0.50 -0.35 -0.70 -0.25 -0.20 -0.40 0.10 -0.40 0.70 0 1.60 2.60 6.05 3.35 5.75 0.50 -0.20 0.50 -0.50 0.05 -1.30z"/>
  <path d="M38.80 82.25 c-0.25 -1.30 -0.60 -1.75 -1.30 -1.75 -0.55 0 -1 -0.35 -1 -0.75 0 -0.40 -0.45 -0.75 -1 -0.75 -0.55 0 -1 -0.20 -1 -0.40 0 -0.20 -0.65 -0.65 -1.50 -0.95 -1 -0.35 -1.50 -0.90 -1.50 -1.55 0 -1 0.10 -1 2.25 0.25 1.25 0.65 2.25 1.05 2.25 0.80 0 -0.20 0.25 0 0.55 0.50 0.25 0.45 0.75 0.85 1.05 0.85 0.30 0 1 0.35 1.50 0.85 0.50 0.45 1.05 0.70 1.20 0.55 0.15 -0.15 -0.25 -0.75 -0.85 -1.35 l-1.15 -1.05 1.65 0 c2.20 0 6.10 -1.70 10.45 -4.60 3.65 -2.45 7.10 -5.45 7.10 -6.20 0 -0.25 -0.85 0.40 -1.85 1.35 -7.10 6.70 -14.75 10.05 -19.70 8.60 -1.25 -0.35 -2.80 -1.20 -3.45 -1.90 l-1.15 -1.25 1.50 0 c0.85 0 2.20 0.35 2.95 0.75 0.80 0.40 2.20 0.75 3.15 0.75 1.85 0 7.25 -2.20 8.75 -3.60 0.55 -0.50 1.30 -0.90 1.65 -0.90 0.35 0 0.65 -0.20 0.65 -0.50 0 -0.25 0.45 -0.50 1 -0.50 0.55 0 1 -0.30 1 -0.65 0 -0.80 1.85 -2.55 3.15 -3 0.45 -0.20 0.85 -0.55 0.85 -0.85 0 -0.25 0.90 -0.50 2.05 -0.50 l2 0 -0.15 1.85 c-0.10 1.50 -0.45 2.05 -1.50 2.55 -0.80 0.35 -1.40 0.85 -1.40 1.10 0 0.75 -1.65 2.50 -2.35 2.50 -0.35 0 -0.65 0.20 -0.65 0.45 0 0.75 -6.80 4.85 -9.25 5.55 l-2.25 0.65 0 2.40 c0 2.45 0 2.45 -1.70 2.45 -1.55 0 -1.70 -0.15 -2 -1.75z"/>
  <path d="M44.50 81.80 c0 -1.70 0.10 -1.75 3.40 -2.80 5.90 -1.95 14.25 -6.25 17.50 -9.05 0.85 -0.75 1.70 -1.95 1.90 -2.65 0.40 -1.75 2.20 -1.80 2.20 -0.10 0 0.65 0.35 1.30 0.75 1.50 0.95 0.35 0.95 1.05 0 2 -0.40 0.40 -0.75 0.95 -0.75 1.15 0 0.90 -3.35 3.65 -6.65 5.35 -5.35 2.85 -14.70 6.30 -17 6.30 -1.20 0 -1.35 -0.20 -1.35 -1.70z m11.75 -2.90 c3.40 -1.30 8.45 -4.15 9.30 -5.25 0.60 -0.80 0.60 -0.85 -0.05 -0.30 -1.50 1.15 -8.35 4.55 -11.35 5.65 -1.75 0.60 -3.15 1.20 -3.15 1.35 0 0.30 2.55 -0.40 5.25 -1.45z"/>
  <path d="M34.75 70.45 c-1.10 -0.25 -2.20 -0.70 -2.45 -0.95 -0.30 -0.30 -0.90 -0.50 -1.35 -0.50 -0.95 0 -1.15 -0.70 -1.95 -6.30 -0.25 -1.90 -0.90 -5.40 -1.50 -7.75 -1.30 -5.40 -1.25 -6.95 0.15 -8.85 0.60 -0.80 1.80 -2.40 2.60 -3.55 0.85 -1.10 1.65 -2 1.90 -2.05 0.20 0 0.35 0.80 0.35 1.75 0 1.60 -0.10 1.75 -1.50 1.75 -1.40 0 -1.50 0.15 -1.50 1.75 0 0.95 -0.20 1.75 -0.50 1.75 -0.75 0 -0.60 3.20 0.30 6.70 0.45 1.65 1.05 4.85 1.40 7.05 l0.55 4 2.25 0.30 c1.25 0.20 3.20 0.75 4.40 1.20 1.90 0.75 2.10 1.05 2.10 2.55 0 1.60 -0.10 1.70 -1.60 1.65 -0.90 -0.05 -2.55 -0.25 -3.65 -0.50z"/>
  <path d="M48 64.70 l0 -1.75 -3.50 0.35 c-3.35 0.30 -3.50 0.30 -3.50 -0.75 0 -0.95 0.30 -1.05 2.65 -1.10 2.90 -0.05 4.30 -0.25 4.75 -0.65 0.15 -0.15 -1.45 -0.15 -3.55 0 -2.50 0.25 -3.85 0.15 -3.85 -0.15 0 -0.30 1.15 -0.65 2.60 -0.75 1.45 -0.15 2.70 -0.55 2.80 -0.85 0.25 -0.70 2.55 -0.70 5.40 0 2.10 0.55 2.20 0.65 2.20 2.40 0 3.60 -1.30 5.05 -4.60 5.05 -1.25 0 -1.40 -0.15 -1.40 -1.80z m4.90 -3.15 c0.15 -1.50 0.10 -1.55 -1.85 -1.55 -1.15 0 -2.05 0.25 -2.05 0.55 0 0.35 0.55 0.40 1.50 0.20 2.05 -0.45 2.55 0.85 0.95 2.65 l-1.20 1.30 1.25 -0.80 c0.80 -0.50 1.30 -1.30 1.40 -2.35z"/>
  <path d="M68 63 c0 -1.65 0.15 -2 1 -2 0.55 0 1 -0.35 1 -0.75 0 -0.55 0.55 -0.75 1.80 -0.75 1.60 0 1.75 0.10 1.15 0.80 -0.35 0.45 -1.15 1 -1.75 1.20 -0.65 0.25 -1.25 1.05 -1.45 1.95 -0.50 2.35 -1.75 2 -1.75 -0.45z"/>
  <path d="M34.75 62.20 c-2.45 -0.90 -3.25 -1.90 -3.25 -4.05 0 -1.50 0.15 -1.65 1.55 -1.65 0.95 0 1.85 0.35 2.25 0.90 0.35 0.45 0.70 0.60 0.70 0.30 0 -0.30 -0.45 -0.95 -1 -1.45 -0.55 -0.50 -1 -1.20 -1 -1.60 0 -0.35 -0.20 -0.65 -0.50 -0.65 -0.25 0 -0.50 -0.30 -0.50 -0.70 0 -0.40 -0.35 -0.80 -0.75 -1 -0.50 -0.15 -0.75 -0.95 -0.75 -2.30 l0 -2 2 0 c1.10 0 2 0.25 2 0.50 0 0.30 0.20 0.80 0.50 1.15 0.25 0.35 1.05 1.35 1.80 2.20 1.25 1.60 1.30 1.60 2.50 0.80 1 -0.60 1.95 -0.70 4.70 -0.45 3.30 0.30 3.50 0.25 3.50 -0.70 0 -0.80 0.35 -1 1.75 -1 1.65 0 1.75 0.10 1.75 1.75 0 1.55 -0.15 1.75 -1.25 1.75 -0.90 0 -1.25 0.25 -1.25 1 0 0.85 -0.35 1 -2.55 1 -3.05 0 -6.45 0.90 -6.80 1.85 -0.15 0.35 -0.95 0.65 -1.85 0.70 l-1.55 0.05 1.65 0.50 c1.65 0.55 2.20 1.40 0.85 1.40 -0.40 0 -1.90 -0.45 -3.30 -0.95 -1.85 -0.70 -2.35 -0.80 -1.95 -0.25 0.35 0.35 1.80 1.05 3.30 1.55 3.05 0.95 3.65 2.15 1.10 2.10 -0.90 0 -2.55 -0.35 -3.65 -0.75z"/>
  <path d="M75.25 54.75 c0.15 -1.90 0.45 -4 0.60 -4.60 0.15 -0.70 0 -1.15 -0.30 -1.15 -0.30 0 -0.55 0.35 -0.55 0.75 0 0.40 -0.20 0.75 -0.50 0.75 -0.25 0 -0.50 0.30 -0.50 0.65 0 0.60 -2.15 2.85 -2.75 2.85 -0.15 0 -0.65 0.35 -1.05 0.75 -0.45 0.40 -1.55 0.75 -2.50 0.75 -1.60 0 -1.70 -0.10 -1.70 -1.70 0 -0.95 0.65 -3.40 1.50 -5.45 1.90 -4.75 3.15 -10.15 2.80 -12.10 -0.70 -3.95 -0.95 -4.75 -1.60 -4.75 -0.40 0 -0.70 -0.40 -0.70 -0.95 0 -0.50 -0.45 -1.05 -1 -1.20 -0.75 -0.20 -1 -0.70 -1 -2.05 0 -1.70 -0.05 -1.80 -1.75 -1.80 -0.95 0 -1.75 -0.20 -1.75 -0.50 0 -0.25 -0.35 -0.50 -0.75 -0.50 -0.45 0 -0.75 -0.45 -0.75 -1.25 0 -1.60 0.40 -1.55 2.80 0.20 4 2.95 8 8.45 8.45 11.75 0.40 2.65 -0.75 8.45 -2.65 13.70 -2.20 5.95 -1.60 5.75 5.65 -2.15 l2.75 -3 -0.05 2.25 c0 1.25 -0.20 3.45 -0.40 4.95 -0.35 2.40 -0.30 2.60 0.30 1.75 1.50 -2 5.15 -10.10 6.20 -13.80 0.65 -2.15 1.35 -3.90 1.55 -3.90 0.60 0 0.50 0.85 -0.55 4.75 -1.10 4.35 -2.25 6.75 -5.80 12.50 -4.10 6.60 -4.45 6.80 -4 2.50z"/>
  <path d="M57 46.25 c-0.35 -0.40 -1.15 -0.75 -1.75 -0.75 -1.05 0 -1.10 -0.15 -0.80 -1.35 0.30 -1.05 0.65 -1.35 1.50 -1.30 2.05 0.25 0.55 -0.75 -2 -1.30 -2.60 -0.55 -6.65 0 -7.25 1.05 -0.55 0.85 0.15 0.90 1.95 0.15 1.95 -0.80 3.35 -0.55 3.35 0.55 0 0.45 -0.60 0.70 -1.75 0.70 -1.45 0 -1.75 0.20 -1.75 1.05 0 0.85 -0.25 1 -1.85 0.85 l-1.90 -0.15 0.15 -4 c0.15 -4.40 0.65 -5.25 3.15 -5.25 0.75 0 1.45 -0.25 1.55 -0.55 0.10 -0.30 1.35 -0.70 2.80 -0.85 2.10 -0.20 2.60 -0.10 2.60 0.55 0 0.50 -0.85 0.95 -2.60 1.35 -3.15 0.75 -5.40 1.80 -5.40 2.55 0 0.30 0.35 0.45 0.75 0.25 1.80 -0.65 8.90 -1.90 9.80 -1.65 1.55 0.40 1.10 -0.70 -0.55 -1.30 -1.95 -0.75 -1.95 -1.85 0.05 -1.85 2.55 0 3.45 0.80 3.45 3 0 1.95 -0.05 2 -1.75 2 -0.95 0 -1.75 0.25 -1.75 0.50 0 0.30 0.45 0.50 1 0.50 0.55 0 1 0.20 1 0.45 0 0.25 0.45 0.65 1 0.80 0.80 0.25 1 0.75 1 2.55 0 2.15 0 2.20 -1.70 2.20 -0.90 0 -1.95 -0.35 -2.30 -0.75z"/>
  <path d="M37.50 44 c0 -0.25 -0.45 -0.50 -1 -0.50 -1.60 0 -1.15 -1.40 0.55 -1.75 1.10 -0.25 1.70 -0.15 2 0.30 0.20 0.35 0.50 0.55 0.70 0.40 0.40 -0.45 -4.10 -4.45 -5 -4.45 -0.75 0 -0.75 0.05 -0.05 0.80 0.45 0.40 0.80 1 0.80 1.25 0 0.60 -2.05 0.60 -2.95 0 -0.65 -0.40 -0.65 -0.60 0 -1.35 0.45 -0.55 0.45 -0.75 0.10 -0.50 -0.70 0.40 -0.80 -0.30 -0.35 -2.05 0.50 -1.90 3 -1.35 5.80 1.25 1.70 1.55 2.45 1.05 1.10 -0.75 -1.30 -1.75 -4.05 -3.15 -6.10 -3.15 l-1.70 0 0.35 -2.60 c0.40 -2.95 1 -4.40 1.85 -4.40 0.35 0 0.45 0.90 0.20 2.75 l-0.30 2.75 1.75 0 c0.95 0 1.75 0.25 1.75 0.50 0 0.30 0.45 0.50 1 0.50 0.60 0 1.60 0.55 2.25 1.20 1.10 1.15 1.20 1.60 1.20 5.75 l0 4.55 -2 0 c-1.05 0 -1.95 -0.20 -1.95 -0.50z"/>
  <path d="M85.65 32.20 c0.15 -1 0.45 -1.95 0.60 -2.10 0.60 -0.60 0.85 0.45 0.55 2.15 -0.45 2.35 -1.55 2.35 -1.15 -0.05z"/>
  <path d="M32.30 23.95 c-0.45 -2.25 -0.35 -3.45 0.20 -3.45 0.30 0 0.50 0.55 0.50 1.15 0 1.65 0.50 2 1.60 1 0.85 -0.75 0.90 -0.70 0.90 1 0 1.70 -0.10 1.85 -1.45 1.85 -1.20 0 -1.45 -0.25 -1.75 -1.55z"/>
  <path d="M85.10 21.30 c-0.35 -1.35 -1.20 -3.55 -1.90 -4.90 -1.25 -2.45 -1.25 -4 0.05 -2.25 0.95 1.30 2.85 7.60 2.65 8.65 -0.10 0.55 -0.45 -0.05 -0.80 -1.50z"/>
  <path d="M53.50 20.85 c-2.20 -0.80 -3.85 -1.05 -8.10 -1 -3.95 0 -5.40 -0.20 -5.40 -0.65 0 -0.95 4.65 -1.85 7.60 -1.50 3.85 0.50 7.35 1.35 9.80 2.35 4.50 1.95 1 2.70 -3.90 0.80z"/>
  <path d="M36.70 20.55 c0.50 -0.50 1.30 -1.05 1.85 -1.20 0.75 -0.20 0.95 0 0.95 0.95 0 1.05 -0.25 1.20 -1.85 1.20 -1.75 0 -1.80 -0.05 -0.95 -0.95z"/>
  <path d="M32 16.40 c0.05 -3.30 0.90 -6 2.30 -7.45 2.15 -2.25 3.10 -1.75 1 0.55 -1.45 1.65 -1.80 2.40 -1.80 4.15 0 2.50 -0.45 4.35 -1.05 4.35 -0.25 0 -0.45 -0.75 -0.45 -1.60z"/>
  <path d="M79 10.15 c-1.25 -1.50 -3.10 -3.35 -4.10 -4 -1.05 -0.70 -1.90 -1.35 -1.90 -1.50 0 -0.65 4.15 2.20 6.05 4.20 3.25 3.45 3.75 4.15 2.90 4.15 -0.40 -0.05 -1.70 -1.30 -2.95 -2.85z"/>
  <path d="M38 6.60 c0 -0.35 0.85 -0.90 3.15 -2 0.20 -0.10 0.35 0.05 0.35 0.35 0 0.30 -0.65 0.85 -1.50 1.30 -1.65 0.85 -2 0.90 -2 0.35z"/>
  <path d="M46 3.05 c0 -0.55 2.95 -1.30 3.35 -0.85 0.15 0.15 -0.30 0.50 -1.05 0.80 -1.70 0.60 -2.30 0.65 -2.30 0.05z"/>
 </g>
 <g fill="#283d0c">
  <path d="M8.20 97.30 c0.15 -1.50 0.55 -4.90 0.80 -7.65 0.80 -7.75 2.90 -13.70 5.15 -14.65 0.60 -0.25 4.40 -1.60 8.50 -3.05 4.60 -1.60 7.35 -2.85 7.35 -3.25 0 -0.40 0.35 -0.70 0.75 -0.70 0.45 0 0.75 0.45 0.75 1.25 0 0.70 0.20 1.25 0.50 1.25 0.25 0 0.65 0.75 0.90 1.65 0.30 1.20 1 1.95 2.90 3 l2.45 1.40 -1.90 -0.25 c-1.10 -0.15 -2.75 -0.85 -3.70 -1.60 -1.50 -1.15 -1.65 -1.20 -1.20 -0.30 0.30 0.55 2.05 1.85 3.90 2.85 4.15 2.25 5.15 3.10 5.15 4.40 0 0.55 0.15 0.90 0.30 0.70 0.50 -0.45 -0.20 -2.70 -1.10 -3.55 -0.70 -0.75 -0.70 -0.80 0.20 -0.80 1.85 0 2.25 1.20 2 6.35 -0.15 3.05 -0.05 4.30 0.20 3.35 0.25 -0.80 0.65 -2.15 0.90 -3 0.30 -0.85 0.50 -2 0.50 -2.60 0 -0.55 0.20 -1.20 0.50 -1.35 0.60 -0.35 10.20 -3.20 12.15 -3.60 0.75 -0.15 1.35 -0.45 1.35 -0.65 0 -0.25 0.80 -0.70 1.75 -1.05 0.95 -0.35 1.75 -0.80 1.75 -1 0 -0.20 0.50 -0.55 1.05 -0.70 1.15 -0.35 3.55 -2.90 5.10 -5.30 1 -1.50 2.55 -2.05 2.05 -0.70 -0.20 0.40 -0.05 0.75 0.30 0.75 0.35 0 2.30 0.80 4.35 1.75 3.05 1.40 4.35 1.75 6.90 1.75 2.60 0 3.20 0.15 3.40 0.90 0.20 0.80 0.25 0.80 0.30 0 0.10 -1.30 2.05 -1.20 2.05 0.15 0 0.55 -1.45 3.75 -3.25 7.10 -3.55 6.75 -4.65 9.55 -4.85 12.10 -0.05 0.95 -0.30 1.75 -0.55 1.75 -0.25 0 -0.35 0.30 -0.20 0.65 0.15 0.35 -0.05 1.20 -0.45 1.90 -0.35 0.65 -0.65 1.70 -0.70 2.35 0 0.85 -0.30 1.10 -1.25 1.10 -1.50 0 -1.55 -0.55 -0.45 -5.90 0.90 -4.45 2.35 -7.90 6.25 -14.90 l2.80 -5.10 -4.05 -0.20 c-2.30 -0.15 -4.70 -0.55 -5.50 -1 l-1.50 -0.80 -1.10 2.45 c-1.60 3.40 -3.35 5.50 -7.55 9 -4.70 3.90 -7.45 5.45 -9.75 5.45 l-1.90 0 0 -2.25 c0 -2.10 0.15 -2.40 2.25 -3.85 1.25 -0.85 2.15 -1.65 2.10 -1.75 -0.10 -0.05 -2.30 0.50 -4.90 1.25 l-4.70 1.40 -0.15 2.35 c-0.15 2.25 -0.10 2.35 1.15 2.35 1.45 0 2.25 1.50 2.25 4.20 0 2.20 -0.80 2.80 -3.80 2.80 -2.50 0 -2.65 0.05 -2.80 1.40 -0.10 1.05 -0.45 1.40 -1.50 1.50 -1.10 0.15 -1.50 -0.10 -1.95 -1.10 -0.60 -1.30 -0.35 -2.80 0.50 -2.80 0.25 0 0.35 0.45 0.20 1 -0.40 1.55 0.70 1.20 3 -0.95 1.50 -1.40 1.95 -2.15 1.55 -2.55 -0.35 -0.35 -0.85 -0.15 -1.65 0.70 -1.50 1.60 -2.55 1.15 -2.60 -1.15 l-0.05 -1.80 -0.45 1.65 c-0.35 1.10 -0.80 1.60 -1.45 1.60 -0.65 0 -0.90 0.25 -0.70 0.75 0.65 1.65 -0.30 0.60 -1.85 -2.10 -1.25 -2.20 -1.70 -2.65 -1.85 -1.95 -0.25 1.20 2.40 6.30 3.30 6.30 0.90 0 0.75 1.25 -0.25 2.10 -0.50 0.40 -1.55 1 -2.35 1.35 -1.20 0.50 -1.55 0.50 -1.90 -0.05 -0.40 -0.50 -0.55 -0.50 -0.75 0 -0.55 1.35 -1.65 0.60 -1.65 -1.15 0 -1.40 0.25 -1.85 1.50 -2.50 1.25 -0.65 1.45 -0.95 1 -1.75 -0.25 -0.50 -0.50 -2.30 -0.50 -4 l0 -3.10 2.25 0.20 c2.05 0.15 2.25 0.05 2.25 -0.95 0 -0.95 -0.25 -1.15 -1.70 -1.15 -2 0 -2.50 -0.55 -3.30 -3.50 -0.35 -1.25 -1.35 -3.10 -2.30 -4.10 -1.25 -1.40 -1.70 -2.35 -1.70 -3.60 l0 -1.75 -3.35 1.20 c-1.90 0.60 -3.80 1.30 -4.25 1.50 -0.90 0.35 -1.75 2.05 -5.65 10.85 -2.25 5.05 -3.40 8.65 -4 12.30 -0.25 1.65 -0.55 2.10 -1.35 2.10 -0.85 0 -0.95 -0.25 -0.70 -1.60 0.15 -0.90 0.40 -3.20 0.55 -5.15 0.35 -4.70 -0.50 -2.20 -1 2.90 -0.15 2.15 -0.55 3.85 -0.85 3.85 -0.35 0 -0.45 -0.95 -0.20 -2.70z m40.05 -5.75 c-0.50 -1.60 -1.10 -1.25 -0.85 0.50 0.15 1 0.40 1.35 0.70 1.05 0.30 -0.30 0.35 -0.95 0.15 -1.55z m11.15 -14.15 c3.80 -1.80 8.60 -5.45 8.60 -6.55 0 -0.25 -0.95 0.40 -2.10 1.35 -1.15 1 -2.25 1.80 -2.45 1.80 -0.20 0 -1.85 0.90 -3.75 2 -1.85 1.05 -5.05 2.55 -7.15 3.30 -2.10 0.75 -4 1.55 -4.25 1.75 -1.05 0.95 7.25 -1.80 11.10 -3.65z"/>
  <path d="M78.50 97.25 c0 -2.40 1.65 -7.55 3.75 -11.75 1.25 -2.45 2.35 -4.50 2.50 -4.50 0.10 0 -0.80 2.10 -2.05 4.65 -1.40 2.90 -2.40 5.85 -2.70 7.75 -0.45 3.20 -1.45 5.85 -1.50 3.85z"/>
  <path d="M85.25 79.30 c0.20 -1.75 1.65 -4.80 2.25 -4.80 0.65 0 0.60 0.70 -0.05 2.20 -0.35 0.70 -0.85 1.15 -1.10 0.95 -0.30 -0.20 -0.40 0 -0.20 0.45 0.15 0.45 0 1.20 -0.40 1.70 -0.55 0.80 -0.60 0.75 -0.50 -0.50z"/>
 </g>
 <g fill="#363227">
  <path d="M32 98.70 c0 -1.75 1.10 -2.70 3.10 -2.70 l1.65 0.05 -1.85 1 c-1.25 0.60 -1.90 1.35 -1.90 1.95 0 0.55 -0.20 1 -0.50 1 -0.25 0 -0.50 -0.60 -0.50 -1.30z"/>
  <path d="M33.90 99.40 c-0.30 -0.80 0.55 -1.65 2 -2 0.90 -0.25 1.10 -0.10 1.10 0.85 0 0.75 -0.35 1.25 -1.10 1.45 -1.60 0.40 -1.80 0.40 -2 -0.30z"/>
  <path d="M77.50 99.75 c0 -0.15 0.20 -0.65 0.45 -1.15 0.30 -0.45 0.65 -1.70 0.80 -2.70 0.20 -1.20 0.55 -1.90 1 -1.90 0.80 0 0.90 1.15 0.45 4.15 -0.30 1.55 -0.55 1.85 -1.50 1.85 -0.65 0 -1.20 -0.10 -1.20 -0.25z"/>
  <path d="M41 92 c0 -1.80 0.15 -2 1.20 -2 0.95 0 1.15 0.20 0.95 1 -0.35 1.35 0.25 1.25 0.85 -0.10 0.40 -1.05 0.45 -1.10 0.45 -0.15 0.05 1.45 -1.35 3.25 -2.50 3.25 -0.80 0 -0.95 -0.35 -0.95 -2z"/>
  <path d="M45.80 91.90 c-0.55 -2.10 -0.35 -2.40 1.45 -2.40 1.60 0 1.75 0.15 1.70 1.40 0 1.30 -0.05 1.30 -0.45 0.25 -0.70 -1.70 -1.55 -1.40 -1.15 0.35 0.20 1.15 0.10 1.50 -0.50 1.50 -0.40 0 -0.85 -0.50 -1.05 -1.10z"/>
  <path d="M79.50 92.25 c0 -1.25 1.40 -4.25 1.95 -4.25 0.60 0 0.70 2.10 0.25 3.90 -0.35 1.25 -2.20 1.55 -2.20 0.35z"/>
  <path d="M34.65 90.25 c0 -1.10 0.10 -1.50 0.20 -0.85 0.10 0.60 0.10 1.50 0 2 -0.15 0.45 -0.25 -0.05 -0.20 -1.15z"/>
  <path d="M36.75 91.15 c-0.75 -1.70 -0.60 -2.65 0.30 -2.65 0.75 0 0.90 0.35 0.85 1.75 -0.05 1.90 -0.55 2.25 -1.15 0.90z"/>
  <path d="M38.50 85 c0 -2.80 0.15 -3.50 0.75 -3.50 0.40 0 0.75 0.40 0.75 0.90 0.05 0.80 0.05 0.80 0.70 0 1.10 -1.45 1.30 -1.05 1.30 2.60 0 3.10 -0.10 3.50 -0.95 3.50 -0.60 0 -1.05 -0.40 -1.20 -1.10 l-0.20 -1.15 -0.10 1.15 c0 0.60 -0.25 1.10 -0.55 1.10 -0.30 0 -0.50 -1.50 -0.50 -3.50z"/>
  <path d="M42.50 86.55 c0 -2.10 0.50 -3.05 1.55 -3.05 1.10 0 1.15 0.55 0.35 2.85 -0.75 2.05 -1.90 2.20 -1.90 0.20z"/>
  <path d="M45.20 87.20 c0.15 -0.45 0.30 -1.45 0.30 -2.25 0 -0.80 0.25 -1.45 0.50 -1.45 0.55 0 0.70 2.45 0.20 3.70 -0.15 0.45 -0.55 0.80 -0.80 0.80 -0.30 0 -0.35 -0.35 -0.20 -0.80z"/>
  <path d="M46 82.50 c0 -0.25 0.35 -0.50 0.75 -0.50 0.40 0 0.75 -0.20 0.75 -0.50 0 -0.25 -0.35 -0.35 -0.75 -0.20 -0.50 0.20 -0.75 0 -0.75 -0.75 0 -0.85 0.30 -1.05 1.75 -1.05 1.95 0 2.15 0.30 0.90 1.30 -0.85 0.65 -0.85 0.65 0 0.70 0.45 0 0.85 0.35 0.85 0.75 0 0.50 -0.55 0.75 -1.75 0.75 -0.95 0 -1.75 -0.20 -1.75 -0.50z"/>
  <path d="M37 79.80 c0 -0.90 0.20 -1.15 0.90 -0.95 0.50 0.10 1.15 0.65 1.50 1.20 0.55 0.85 0.45 0.95 -0.90 0.95 -1.25 0 -1.50 -0.20 -1.50 -1.20z"/>
  <path d="M39.65 78.75 c-0.45 -0.50 -0.45 -0.80 -0.10 -1 0.70 -0.45 1.10 0 0.85 0.90 -0.10 0.65 -0.25 0.65 -0.75 0.10z"/>
  <path d="M67.25 72.50 c2.15 -2.20 2.35 -2.35 1.95 -1.25 -0.20 0.40 -0.50 0.75 -0.70 0.75 -0.20 0 -0.55 0.55 -0.70 1.25 -0.20 0.85 -0.65 1.25 -1.40 1.25 -1 0 -0.90 -0.20 0.85 -2z"/>
  <path d="M64.50 71.95 c0 -0.60 0.35 -0.95 1 -0.95 0.75 0 1 -0.35 1 -1.25 0 -0.70 0.25 -1.25 0.50 -1.25 0.30 0 0.50 -0.35 0.50 -0.75 0 -0.40 0.40 -0.75 0.90 -0.75 0.55 0 0.90 0.35 0.90 1 0 0.55 -0.20 1 -0.40 1 -0.20 0 -0.40 0.25 -0.40 0.55 0 0.30 -0.55 1 -1.25 1.55 -0.70 0.55 -1.15 1.15 -1.05 1.35 0.15 0.20 -0.20 0.40 -0.75 0.40 -0.65 0.05 -0.95 -0.25 -0.95 -0.90z"/>
  <path d="M77 54.05 c0 -0.30 0.20 -0.60 0.45 -0.75 0.90 -0.60 4.55 -7.80 5.75 -11.40 2.30 -6.75 2.95 -10.75 2.65 -15.65 -0.30 -5.05 0.30 -3.90 0.85 1.60 0.30 3 0.15 4.55 -1 9.25 -1.65 6.85 -2.10 8.05 -5.40 13.25 -2.35 3.80 -3.30 4.85 -3.30 3.70z"/>
  <path d="M50 45.35 c0 -0.45 -0.60 -0.55 -2 -0.45 -1.40 0.15 -2 0 -2 -0.45 0 -0.35 0.15 -0.50 0.30 -0.30 0.15 0.15 0.70 -0.15 1.25 -0.70 0.60 -0.60 1.65 -0.95 2.75 -0.95 1.75 0 1.80 0.05 1.55 1.45 -0.25 1.25 -0.15 1.50 0.80 1.70 0.65 0.15 0.35 0.25 -0.75 0.30 -1.25 0.05 -1.90 -0.15 -1.90 -0.60z"/>
  <path d="M55.35 45.15 c-0.20 -0.15 -0.35 -0.80 -0.35 -1.45 0 -1.40 1.40 -1.15 3.05 0.60 l1.10 1.20 -1.75 0 c-0.95 0 -1.90 -0.15 -2.05 -0.35z"/>
  <path d="M57.05 42.65 l-1.70 -1.15 1.60 0 c0.95 0 1.70 0.30 1.85 0.75 0.55 1.40 -0.05 1.55 -1.75 0.40z"/>
  <path d="M33.15 41.25 c0.30 -2.75 0.55 -3.10 1.60 -2.25 0.55 0.45 0.70 1.10 0.50 1.85 -0.20 0.90 -0.05 1.15 0.70 1.15 0.70 0 0.95 0.25 0.75 0.75 -0.20 0.45 -0.95 0.75 -2.05 0.75 l-1.80 0 0.30 -2.25z"/>
  <path d="M46 42.35 c0 -0.90 1.05 -1.35 2.90 -1.30 l1.35 0.05 -1.40 0.40 c-0.80 0.25 -1.75 0.70 -2.15 1.05 -0.55 0.45 -0.70 0.40 -0.70 -0.20z"/>
  <path d="M32.30 22.10 c-0.20 -0.90 -0.25 -1.80 -0.10 -1.95 0.55 -0.60 0.85 0.25 0.70 1.95 l-0.15 1.65 -0.45 -1.65z"/>
  <path d="M84.60 19.15 c-0.70 -2.40 -4.05 -7.70 -6.50 -10.35 l-1.85 -1.95 1.90 1.40 c1 0.75 2.65 2.45 3.60 3.75 1.70 2.30 3.95 7.70 3.60 8.65 -0.10 0.30 -0.40 -0.40 -0.75 -1.50z"/>
  <path d="M32.25 14.65 c0.45 -3.55 1.25 -5.25 3.35 -6.80 3.85 -2.90 11.90 -6 16.90 -6.50 3.05 -0.35 2.90 -0.30 -4.25 1.75 -4.55 1.25 -11.15 4.45 -13.15 6.35 -1.30 1.20 -1.60 1.85 -1.60 3.65 0 2.65 -0.45 4.40 -1.10 4.40 -0.35 0 -0.40 -1.05 -0.15 -2.85z"/>
  <path d="M35.65 9.65 c0.90 -1.45 13.30 -3.25 14.85 -2.15 0.55 0.35 0.25 0.50 -1.25 0.50 -1.10 0 -3.80 0.35 -6 0.75 -7.40 1.35 -7.90 1.40 -7.60 0.90z"/>
 </g>
 <g fill="#315610">
  <path d="M8.75 96.45 c0.10 -2.10 0.45 -4.35 0.70 -5 0.55 -1.35 0.30 1.65 -0.50 6.30 -0.35 2.15 -0.40 2 -0.20 -1.30z"/>
  <path d="M10.20 97.10 c0.50 -4.65 2.95 -11.50 6.90 -19.35 0.70 -1.35 1.15 -2.75 1.05 -3.05 -0.20 -0.60 2.75 -1.95 8.20 -3.75 2.10 -0.70 3.65 -1.50 3.65 -1.85 0 -0.40 0.40 -0.60 0.90 -0.50 0.60 0.10 0.95 0.80 1.15 2.30 0.15 1.35 0.75 2.60 1.70 3.60 0.80 0.85 1.25 1.50 1.10 1.50 -0.85 0 -2.95 -1.75 -3.60 -2.95 -0.70 -1.25 -0.70 -1.25 -0.75 -0.20 0 0.65 0.75 2 1.70 3 0.90 1.05 2 3 2.35 4.35 0.65 2.30 2 3.90 2.75 3.20 0.15 -0.20 -0.05 -0.70 -0.50 -1.15 -0.45 -0.45 -0.80 -1.25 -0.80 -1.80 0 -0.55 -0.25 -1.45 -0.50 -2 -0.75 -1.35 0.05 -1.20 2.45 0.60 l2.10 1.50 -0.25 4.05 c-0.30 4.85 0.10 4.80 0.75 -0.10 0.30 -2.35 0.25 -3.95 -0.05 -4.55 -0.45 -0.75 -0.40 -0.85 0.30 -0.60 0.70 0.25 0.80 1 0.55 5.35 -0.25 5.85 -0.55 6.70 -2.15 7.10 -0.95 0.25 -1.15 0.55 -0.95 1.40 0.30 1.15 -1.50 -2.40 -1.95 -3.80 -0.45 -1.50 -1.30 -1 -1.30 0.75 0 0.85 0.45 2.30 1 3.10 1.40 2.10 1.25 2.60 -1 3.75 -1.30 0.65 -2 1.35 -2 2 0 0.95 -0.35 1 -11.55 1 l-11.60 0 0.35 -2.90z m29.30 -7.45 c0 -0.45 -0.35 -0.35 -1 0.20 -0.70 0.60 -0.80 0.95 -0.40 1.25 0.65 0.35 1.40 -0.40 1.40 -1.45z"/>
  <path d="M40.75 98 c-0.90 -2 -0.90 -2.05 0.15 -3.15 0.65 -0.65 1.10 -1.80 1.10 -2.70 0 -0.80 0.35 -2.60 0.80 -3.95 0.45 -1.35 0.95 -3.55 1.15 -4.90 l0.30 -2.50 4.50 -1.35 c2.50 -0.75 4.90 -1.40 5.40 -1.40 0.50 -0.05 1.25 -0.40 1.65 -0.80 0.45 -0.40 1.25 -0.75 1.85 -0.75 0.95 0.05 0.90 0.15 -0.40 0.85 -0.80 0.45 -3.75 1.60 -6.45 2.60 -5.15 1.90 -5.40 2.05 -6.20 5.30 -0.65 2.60 -1.60 5.80 -1.95 6.75 -0.20 0.60 -0.15 0.65 0.40 0.10 0.85 -0.80 2 -4.20 2.40 -7.30 l0.30 -2.50 5.35 -1.60 c6.95 -2.05 12.35 -4.75 15.80 -7.90 l2.80 -2.55 -1.25 2.25 c-0.75 1.30 -2.35 2.95 -3.75 3.95 -1.35 0.90 -2.40 1.95 -2.30 2.25 0.10 0.70 -1.40 2.15 -5.50 5.20 -2.50 1.85 -3.75 3.60 -2.50 3.60 1.60 -0.05 10.75 -7.05 13.15 -10.10 1.95 -2.50 3.55 -5.90 3.30 -6.95 -0.35 -1.35 0.70 -1.20 3.80 0.40 2.25 1.20 3.20 1.40 7.05 1.40 3.05 0 4.55 0.20 4.65 0.60 0.15 0.35 -1.05 2.85 -2.60 5.60 -5.50 9.85 -6.85 13.20 -7.95 19.70 l-0.35 1.85 -16.90 0 -16.90 0 -0.90 -2z m4.85 -4.75 c0.55 -0.70 0.50 -1.75 -0.10 -1.75 -1 0 -4.60 4.05 -4.25 4.85 0.25 0.65 0.60 0.50 2.15 -0.90 1 -0.95 2 -1.90 2.20 -2.20z m2.85 0.05 c0.40 -0.45 0.40 -1.05 0.05 -2 -0.70 -1.90 -1.40 -1.60 -1.30 0.70 0.05 2.10 0.35 2.40 1.25 1.30z"/>
  <path d="M34.05 98.80 c0.45 -0.45 4 -2.80 4.20 -2.80 0.15 0 0.25 0.35 0.25 0.75 0 0.80 -2.45 2.25 -3.80 2.25 -0.50 0 -0.75 -0.10 -0.65 -0.20z"/>
  <path d="M85.10 78.75 c0.10 -0.25 0.60 -1.35 1.10 -2.35 0.45 -1.05 1.05 -1.90 1.30 -1.90 0.65 0 0.60 0.35 -0.05 1.65 -0.60 1.05 -2.80 3.55 -2.35 2.60z"/>
  <path d="M14.50 75.50 c0 -0.70 0.35 -1 1.10 -1 1 0 1.05 0.05 0.15 1 -0.50 0.55 -1 1 -1.10 1 -0.05 0 -0.15 -0.45 -0.15 -1z"/>
  <path d="M60.50 75.10 c0 -0.25 0.55 -0.70 1.25 -1 0.70 -0.35 2.40 -1.65 3.80 -2.90 2.75 -2.60 4.05 -2.65 1.55 -0.05 -1.70 1.75 -6.60 4.65 -6.60 3.95z"/>
 </g>
 <g fill="#533117">
  <path d="M34 99.25 c0 -0.80 2.70 -2.40 3.20 -1.90 0.15 0.20 0.30 -0.05 0.30 -0.50 0 -0.45 0.35 -0.85 0.75 -0.85 1.05 0 0.95 -0.55 -0.50 -3.05 -1.55 -2.75 -1.55 -3.20 -0.10 -2.20 0.65 0.40 1.35 0.60 1.50 0.40 0.20 -0.15 0.50 0.45 0.70 1.35 0.25 1.50 0.35 1.55 0.70 0.60 0.30 -0.75 0.80 -1 1.90 -1 1.95 0.05 1.95 0.50 -0.05 2.05 l-1.55 1.25 0.80 2.05 c1 2.50 0.35 3.15 -0.80 0.80 -0.45 -0.95 -1 -1.75 -1.20 -1.75 -0.25 0 -0.95 0.80 -1.65 1.75 -0.90 1.25 -1.65 1.75 -2.60 1.75 -0.90 0 -1.40 -0.25 -1.40 -0.75z"/>
  <path d="M38.65 99.40 c0.10 -0.35 0.50 -0.65 0.85 -0.65 0.35 0 0.75 0.30 0.90 0.65 0.10 0.35 -0.25 0.60 -0.90 0.60 -0.65 0 -1 -0.25 -0.85 -0.60z"/>
  <path d="M32.50 98.40 c0 -0.75 0.25 -1.50 0.55 -1.65 0.80 -0.55 0.85 -0.10 0.15 1.50 l-0.65 1.50 -0.05 -1.35z"/>
  <path d="M41.55 86.35 c-1.05 -0.50 -1.15 -0.80 -0.90 -2.95 0.30 -2.40 -0.35 -4.90 -1.25 -4.90 -0.25 0 -0.30 -0.20 -0.15 -0.50 0.15 -0.25 0.85 -0.50 1.50 -0.50 3.30 0 11.25 -4.65 15.75 -9.25 2.90 -3 1.90 -2.90 -1.55 0.15 -5.80 5.15 -11.35 8.10 -14.95 8.05 -1.25 -0.05 -1.85 -0.15 -1.35 -0.30 0.45 -0.10 0.85 -0.55 0.85 -0.95 0 -0.40 0.30 -0.70 0.65 -0.75 0.30 0 0.10 -0.25 -0.50 -0.55 -0.65 -0.30 -1.15 -0.70 -1.15 -0.90 0 -0.65 -5.20 -2.65 -6.80 -2.60 l-1.50 0.05 -0.65 -5.10 c-0.35 -2.80 -1.05 -6.80 -1.55 -8.85 -1.95 -7.90 -1.85 -9 1.15 -12.35 0.95 -1.05 2.10 -2.75 2.50 -3.75 0.55 -1.30 1.10 -1.90 1.80 -1.90 1.35 0 2.15 1.50 1.45 2.70 -0.50 0.90 -0.40 0.95 1.55 0.65 1.60 -0.20 2.15 -0.05 2.50 0.55 0.25 0.45 0.65 0.70 0.85 0.50 0.55 -0.55 -1.15 -2.85 -2.95 -3.95 -1 -0.60 -2.20 -0.95 -3.25 -0.80 -1.50 0.15 -1.60 0.05 -1.60 -1.55 0 -1.70 0 -1.70 1.90 -1.35 1.85 0.35 3.05 1.10 4.65 3 1.10 1.30 1.80 0.65 1.15 -1.10 -0.55 -1.65 -3.20 -3.25 -5.95 -3.65 -1.85 -0.25 -2 -0.35 -1.85 -1.75 0.30 -3.50 0.65 -4.75 1.45 -4.75 0.65 0 0.75 0.40 0.55 2.20 -0.25 2.20 -0.25 2.25 1.30 2.55 3 0.60 3.30 0.80 3.30 2.05 0 1 0.25 1.20 1.50 1.20 1.30 0 1.50 0.20 1.80 1.90 0.20 1 0.45 1.55 0.55 1.25 0.15 -0.35 0.60 -0.65 1 -0.65 0.45 0 2.40 -0.60 4.35 -1.30 1.95 -0.70 5.05 -1.40 6.95 -1.55 3.15 -0.30 3.35 -0.25 3.35 0.70 0 0.85 0.40 1.10 2.15 1.25 3.25 0.35 5.20 -0.65 6.40 -3.35 1.25 -2.75 0.75 -3.75 -1.85 -3.75 -1.35 0 -1.70 -0.20 -1.70 -1 0 -0.70 -0.55 -1.10 -2 -1.50 -1.10 -0.30 -2 -0.75 -2 -1 0 -0.30 -0.75 -0.50 -1.65 -0.50 -1.75 0 -4.50 -2.15 -5.10 -4 -0.20 -0.65 -1 -1 -2.75 -1.25 -2.05 -0.30 -2.50 -0.50 -2.50 -1.35 0 -0.95 0.20 -1 2.90 -0.65 3.70 0.45 9.15 2.35 12.55 4.40 2.85 1.70 6.90 6.15 8.55 9.35 1.85 3.60 0.95 10.90 -2.20 18.40 -0.70 1.70 -1.30 3.20 -1.30 3.35 0 0.95 3.55 -2 6.15 -5.10 1.65 -2 3.35 -3.75 3.75 -3.90 0.65 -0.25 0.65 1.30 -0.20 7.25 l-0.20 1.75 0.95 -1.10 c1.65 -1.95 1.60 -1.30 -0.05 1.50 -1.95 3.25 -4.10 5.60 -6.50 7.15 -1.75 1.10 -1.90 1.40 -1.90 3.45 0 4.05 -1.85 6.80 -6.25 9.25 -6.40 3.60 -8.45 4.55 -12.45 6 -5 1.70 -5.80 2.20 -5.80 3.55 0 1.30 -1.05 3.45 -1.70 3.40 -0.30 0 -1.10 -0.25 -1.75 -0.60z m-4.05 -17.55 c0 -0.10 -1 -0.55 -2.25 -1 -2.25 -0.75 -2.70 -0.15 -0.55 0.70 1.10 0.45 2.80 0.65 2.80 0.30z m4.90 -2.60 c0.75 -0.20 1.10 -0.70 1.10 -1.50 0 -1.10 -0.20 -1.20 -2.50 -1.20 -1.90 0 -2.50 -0.20 -2.50 -0.75 0 -0.55 -0.55 -0.75 -2 -0.75 -1.90 0 -2 0.10 -2 1.50 0 0.85 0.05 1.50 0.15 1.50 0.05 0 1 0.35 2.10 0.75 2.15 0.75 3.85 0.90 5.65 0.45z m9.75 -2.60 c0.45 -0.40 0.85 -1.40 0.85 -2.25 l0 -1.45 -3.10 0.30 c-1.75 0.15 -4.40 0.45 -5.95 0.60 -2.95 0.35 -7.60 -0.70 -9.85 -2.10 -1.10 -0.75 -1.15 -0.70 -0.65 0.20 1.35 2.55 11.45 3.55 17.70 1.80 1.35 -0.40 1.05 1.30 -0.50 2.95 -1.15 1.15 -1.20 1.35 -0.40 1.05 0.55 -0.20 1.40 -0.70 1.90 -1.10z m4.05 -8.40 c0.75 -2.10 1.25 -4.10 1.10 -4.50 -0.15 -0.40 -0.95 -0.70 -1.75 -0.70 -1.20 0 -1.60 -0.25 -1.85 -1.25 -0.35 -1.40 -0.95 -1.60 -1.95 -0.55 -0.60 0.55 -0.50 1.05 0.55 3.05 0.65 1.35 1.20 2.90 1.20 3.50 0 1.05 0.95 4.25 1.25 4.25 0.05 0 0.75 -1.70 1.45 -3.80z m-17.55 1.15 c0.35 -0.90 3.70 -1.85 6.90 -1.90 l2.70 -0.05 -2.65 -0.45 c-2.05 -0.35 -3 -0.30 -4.10 0.30 -2.90 1.50 -4.55 0.75 -6.80 -3.10 -0.80 -1.45 -1.70 -2.15 -1.70 -1.35 0 0.15 1 1.65 2.25 3.25 1.25 1.65 2.25 3.20 2.25 3.45 0 0.75 0.85 0.60 1.15 -0.15z m-7.65 -9.20 c0 -0.40 0.70 -0.65 1.70 -0.65 1.30 0 1.75 -0.25 1.95 -1.10 0.20 -0.60 0.25 -1.15 0.20 -1.20 -0.05 -0.05 -1.15 -0.20 -2.45 -0.30 l-2.40 -0.30 0 1.70 c0 0.95 -0.20 1.70 -0.45 1.70 -0.75 0 -1.15 2.75 -0.75 4.85 l0.35 1.90 0.95 -3 c0.50 -1.65 0.90 -3.30 0.90 -3.60z m8.20 5.55 c0.55 -0.20 0.80 -0.95 0.80 -2.10 0 -1.40 -0.15 -1.65 -0.60 -1.20 -0.35 0.35 -1.05 0.60 -1.55 0.60 -0.65 0 -0.85 0.25 -0.65 0.80 0.15 0.45 0.30 1.10 0.30 1.50 0 0.75 0.45 0.85 1.70 0.40z m15.50 -8.70 l0.60 -1.50 2.10 1.50 c1.25 0.90 2.10 1.25 2.10 0.85 0 -1 -3.90 -3.30 -6.25 -3.60 -3.70 -0.60 -8.35 1.35 -6.85 2.85 0.40 0.40 0.60 0.40 0.60 0.10 0 -0.70 2.25 -1.70 3.65 -1.65 1 0.05 1 0.10 -0.15 0.40 l-1.25 0.35 1.15 0.40 c0.60 0.20 1.10 0.70 1.10 1.10 0 0.40 0.50 0.70 1.25 0.70 0.95 0 1.45 -0.40 1.95 -1.50z m-3.90 -4.80 c2.80 -0.70 3.35 -0.75 3.80 -0.15 0.35 0.55 0.55 0.55 0.75 0.10 0.10 -0.35 1 -0.65 1.95 -0.65 0.95 0 1.70 -0.20 1.70 -0.50 0 -0.80 -1.85 -1.50 -4.10 -1.45 -2.50 0 -8 1.90 -8.30 2.85 -0.25 0.80 0.30 0.75 4.20 -0.20z"/>
  <path d="M47.75 82.05 c0.55 -0.30 2.90 -1.10 5.20 -1.80 2.30 -0.70 5.80 -2.10 7.75 -3.05 1.95 -0.95 3.10 -1.40 2.55 -0.95 -0.55 0.45 -2.80 1.70 -5 2.75 -3.45 1.65 -5.20 2.20 -10.50 3.30 l-1 0.20 1 -0.45z"/>
  <path d="M38.30 80.25 c-0.55 -0.40 -0.85 -0.85 -0.70 -1 0.15 -0.15 0.80 0.15 1.45 0.70 1.35 1.15 0.70 1.40 -0.75 0.30z"/>
  <path d="M34.15 75.70 c-2 -1 -2.10 -1.70 -0.25 -1.70 2.35 0 3.60 0.55 3.60 1.55 0 1.15 -1.20 1.20 -3.35 0.15z"/>
  <path d="M32.50 23.90 c0 -0.65 -0.15 -2 -0.30 -3 -0.25 -1.25 -0.15 -1.90 0.25 -1.90 0.30 0 0.55 0.90 0.55 2.15 0 1.20 0.15 2.30 0.30 2.50 0.15 0.15 1 -0.50 1.80 -1.45 1.75 -2 4.35 -3.45 7.05 -3.95 1.65 -0.30 1.85 -0.25 1.85 0.70 0 0.85 -0.40 1.05 -2.45 1.35 -1.85 0.25 -2.55 0.55 -2.70 1.25 -0.15 0.65 -0.70 0.95 -1.55 0.95 -1.05 0 -1.30 0.25 -1.30 1.25 0 1.10 -0.20 1.25 -1.75 1.25 -1.50 0 -1.75 -0.15 -1.75 -1.10z"/>
  <path d="M32.20 14.90 c0.35 -1.70 0.65 -2.20 1.05 -1.80 0.45 0.40 -0.35 3.40 -0.85 3.40 -0.30 0 -0.40 -0.65 -0.20 -1.60z"/>
 </g>
 <g fill="#373f41">
  <path d="M6 98.55 c0 -1.90 0.90 -6.55 1.45 -7.80 0.30 -0.55 1.10 -3.20 1.85 -5.85 1.20 -4.40 1.45 -4.90 2.50 -4.90 1.10 0 1.15 0.10 0.65 1.40 -1 2.55 -2.85 11.35 -3.20 15 -0.35 3.55 -0.35 3.60 -1.80 3.60 -1.25 0 -1.45 -0.20 -1.45 -1.45z"/>
  <path d="M78.70 96.40 c0.55 -4 0.85 -4.90 1.65 -4.90 0.65 0 0.75 0.45 0.45 2.65 -0.15 1.40 -0.30 3.10 -0.30 3.75 0 0.80 -0.30 1.10 -1.05 1.10 -1 0 -1.05 -0.15 -0.75 -2.60z"/>
  <path d="M0 89.75 c0 -0.70 0.20 -1.25 0.40 -1.25 0.25 0 0.70 -0.55 1 -1.25 1.15 -2.55 2.15 -0.55 1.30 2.65 -0.45 1.65 -2.70 1.55 -2.70 -0.15z"/>
  <path d="M80.55 89.15 c0.25 -0.75 1.45 -3.15 2.60 -5.35 1.15 -2.25 2.10 -4.45 2.15 -4.90 0.05 -0.45 0.45 -1.65 0.90 -2.65 0.95 -2 1.45 -2.05 7.30 -0.20 4.60 1.45 8.60 5.95 5.30 5.95 -1.20 0 -1.80 -0.80 -1.80 -2.50 0 -0.65 -0.55 -0.95 -2.35 -1.15 -1.30 -0.15 -2.45 -0.50 -2.55 -0.80 -0.35 -1.05 -2.40 -0.60 -3.10 0.70 -0.35 0.70 -0.85 1.25 -1.10 1.25 -0.20 0 -0.40 0.30 -0.40 0.70 0 0.40 -0.30 1.05 -0.60 1.40 -0.35 0.35 -1.55 2.50 -2.65 4.80 -1.60 3.35 -2.15 4.10 -3.10 4.10 -1 0 -1.10 -0.15 -0.60 -1.35z"/>
  <path d="M2.50 85.20 c0 -0.20 0.95 -1.95 2.05 -3.95 2.05 -3.55 2.15 -3.65 4.45 -3.95 1.30 -0.15 3.05 -0.85 4 -1.55 1.60 -1.20 3 -1.60 3 -0.90 0 0.15 -0.55 1.05 -1.25 1.95 -0.90 1.20 -1.75 1.70 -3.35 1.95 -3.45 0.50 -3.65 0.65 -4.35 2.50 -0.35 0.95 -0.80 1.75 -1.05 1.75 -0.20 0 -0.55 0.55 -0.70 1.25 -0.25 0.90 -0.65 1.25 -1.55 1.25 -0.70 0 -1.25 -0.15 -1.25 -0.30z"/>
 </g>
 <g fill="#644621">
  <path d="M35.35 99.65 c-0.60 -0.55 -0.40 -1.10 1 -2.40 1.60 -1.40 2.80 -1.65 2.55 -0.45 -0.20 1 -3.10 3.35 -3.55 2.85z"/>
  <path d="M41.05 98.45 c-0.65 -1.95 -0.65 -1.95 -0.10 -1.95 0.25 0 0.70 0.70 1 1.55 0.65 1.95 0.65 1.95 0.10 1.95 -0.25 0 -0.70 -0.70 -1 -1.55z"/>
  <path d="M39.30 95.70 c-0.45 -1.10 -0.40 -1.20 0.45 -1.20 0.40 0 0.75 -0.20 0.75 -0.50 0 -0.25 -0.55 -0.50 -1.15 -0.50 -1.10 0 -1.50 -0.50 -2.75 -3.15 -0.15 -0.25 0.35 -0.10 1.05 0.40 1.20 0.80 1.30 0.75 1.60 -0.30 0.35 -1 0.45 -1.05 1 -0.30 0.35 0.50 0.95 0.70 1.70 0.50 1 -0.25 1.10 -0.15 0.80 0.75 -0.25 0.85 -0.15 1.05 0.45 0.80 1.30 -0.50 0.95 0.15 -1.20 2.30 -2.25 2.25 -2.30 2.30 -2.70 1.20z"/>
  <path d="M45.70 93.40 c0.15 -0.65 0.30 -1.60 0.30 -2.15 0 -0.90 0.05 -0.90 0.85 -0.15 0.70 0.70 0.75 1.10 0.25 2.15 -0.75 1.55 -1.85 1.70 -1.40 0.15z"/>
  <path d="M41.90 86.80 c-1.10 -0.80 -1.15 -2.30 -0.10 -2.30 1.50 0 2.60 0.95 2.35 2 -0.30 1.15 -1.05 1.25 -2.25 0.30z"/>
  <path d="M34.15 75.55 c-2.40 -1.10 -3.75 -3.30 -3.90 -6.30 -0.05 -1.10 -0.25 -3.35 -0.40 -5 l-0.30 -3 0.60 3 c0.70 3.55 1.10 4.25 2.35 4.25 1.25 0 6.30 1.90 7.15 2.65 1.15 1.15 3.30 2.35 4.45 2.50 2 0.35 1.50 1.30 -1.15 2.05 -3.55 1.05 -4.05 1 -3.85 -0.30 0.10 -0.90 -0.40 -1.40 -2.85 -2.70 -1.65 -0.90 -3.10 -1.50 -3.20 -1.40 -0.45 0.40 1.65 2.20 3.25 2.80 1.10 0.40 1.70 0.95 1.70 1.50 0 1.15 -1.20 1.15 -3.85 -0.05z"/>
  <path d="M46 64.25 c0 -0.45 -0.45 -0.75 -1.25 -0.75 -2.05 0 -1.55 -1.40 0.65 -1.75 1 -0.20 2.25 -0.45 2.75 -0.60 0.45 -0.10 0.85 0 0.85 0.30 0 0.30 0.70 0.55 1.55 0.55 1.40 0 1.50 0.10 0.90 0.85 -0.75 0.90 -3.50 2.15 -4.70 2.15 -0.40 0 -0.75 -0.35 -0.75 -0.75z"/>
  <path d="M32.75 61.65 c-0.15 -1.05 -0.40 -2.30 -0.50 -2.75 -0.25 -1.25 0.50 -1.10 1.40 0.25 0.45 0.70 1.65 1.35 3.30 1.80 1.70 0.40 2.55 0.90 2.55 1.40 0 0.65 -0.45 0.75 -2.50 0.50 -1.45 -0.20 -2.50 -0.10 -2.50 0.15 0 0.30 -0.35 0.50 -0.75 0.50 -0.45 0 -0.80 -0.70 -1 -1.85z"/>
  <path d="M52.85 59.35 c-0.45 -1.45 -1.05 -3.55 -1.35 -4.75 -0.30 -1.20 -1.35 -3 -2.30 -4.05 -2.10 -2.35 -2.10 -2.85 -0.20 -3.20 1.90 -0.40 1.90 -0.90 -0.05 -2.05 -1.65 -1 -1.70 -1.95 -0.05 -2.20 0.80 -0.10 1.10 0.10 1.10 0.75 0 0.55 0.65 1.20 1.55 1.60 1.50 0.65 1.65 0.60 3.05 -0.90 l1.45 -1.55 1.50 1 c1.95 1.40 1.85 1.95 -0.55 2.30 -1.10 0.20 -2 0.55 -2 0.80 0 0.25 0.25 0.30 0.60 0.10 0.40 -0.25 0.45 -0.10 0.25 0.45 -0.25 0.70 0 0.85 1.30 0.90 0.90 0.05 1.90 0.05 2.25 0 0.95 -0.15 0.75 0.95 -1.15 6.50 -0.95 2.85 -1.75 5.20 -1.75 5.30 0 0.05 -0.65 0.45 -1.45 0.85 l-1.40 0.75 -0.80 -2.60z m3.05 -3.80 c0.70 -1.95 0.80 -3.90 0.25 -4.20 -0.25 -0.15 -1.15 -0.40 -2 -0.60 -1.55 -0.30 -1.65 -0.25 -1.65 0.95 0 0.70 0.20 1.30 0.50 1.30 0.25 0 0.60 1.35 0.80 3 0.30 2.60 0.40 2.90 0.95 2.15 0.30 -0.50 0.85 -1.65 1.15 -2.60z"/>
  <path d="M28.65 58.25 c-0.30 -1.25 -0.30 -2.25 -0.10 -2.25 0.25 0 0.45 -0.35 0.45 -0.75 0 -0.40 -0.30 -0.75 -0.70 -0.75 -0.65 0 -1.30 -1.40 -1.30 -2.85 0 -0.35 0.45 -0.65 1 -0.65 0.55 0 1 0.30 1.05 0.65 0.05 0.55 1.40 -3.95 1.45 -4.75 0 -0.20 -0.70 -0.40 -1.55 -0.50 l-1.60 -0.15 2.35 -2.55 c1.25 -1.45 2.30 -2.85 2.30 -3.15 0 -0.65 1.45 -0.70 2.45 -0.10 0.35 0.25 0.55 0.65 0.35 0.95 -0.45 0.75 0.75 1.05 2.10 0.55 0.70 -0.25 1.10 -0.25 1.10 0.10 0 0.30 0.25 0.35 0.55 0.15 0.35 -0.20 0.50 -0.05 0.35 0.35 -0.15 0.40 -0.70 0.75 -1.25 0.85 -0.75 0.10 -0.95 0.40 -0.80 1.15 0.15 0.50 0 1.25 -0.30 1.65 -0.65 0.80 -0.20 2.40 0.65 2.15 0.85 -0.25 2.80 -4.35 2.80 -5.90 0 -0.75 -0.35 -1.45 -0.75 -1.65 -0.40 -0.15 -0.75 -0.80 -0.75 -1.40 0.05 -1.05 0.10 -1.10 0.70 -0.25 0.60 0.75 0.70 0.80 1 0.10 0.80 -2.20 -2.85 -5.60 -6.35 -5.85 -1.35 -0.10 -1.85 -0.35 -1.85 -1 0 -0.70 0.45 -0.90 2 -0.90 1.45 0 2 0.20 2 0.75 0 0.50 0.55 0.75 1.75 0.75 1.55 0 1.75 0.15 1.75 1.25 0 0.70 0.25 1.25 0.50 1.25 0.30 0 0.50 -0.25 0.50 -0.55 0 -0.40 0.85 -0.45 2.90 -0.20 3.75 0.45 6 0.45 10.85 0 3.25 -0.30 4.20 -0.25 4.75 0.35 1.20 1.15 2.45 1.40 3.90 0.80 1.45 -0.65 4.10 -3.10 4.10 -3.85 0 -0.65 -1.30 -1.05 -3.30 -1.05 -1.90 0 -5.50 -1.55 -7.10 -3 -0.60 -0.55 -1.25 -1 -1.45 -1 -0.25 0 -1.20 -0.65 -2.15 -1.50 -0.95 -0.80 -1.95 -1.45 -2.15 -1.50 -0.50 0 -3.35 -3.10 -3.35 -3.60 0 -0.25 -0.55 -0.40 -1.25 -0.40 -0.90 0 -1.25 -0.25 -1.25 -1 0 -0.70 0.35 -1 1.05 -1 1.95 0 7.45 1.15 7.45 1.55 0 0.25 0.40 0.30 0.90 0.15 0.70 -0.25 0.75 -0.20 0.10 0.25 -0.60 0.40 -0.60 0.65 -0.10 1.15 0.45 0.45 0.60 0.45 0.60 0 0 -0.40 0.50 -0.55 1.40 -0.45 1 0.15 1.35 0.45 1.35 1.35 0 0.75 0.45 1.30 1.25 1.60 0.65 0.25 1.40 0.70 1.55 1 0.20 0.30 0.80 0.60 1.30 0.65 0.50 0 1.25 0.25 1.60 0.50 0.55 0.30 0.65 0.15 0.40 -0.80 -0.25 -1 -0.20 -1.05 0.30 -0.40 0.35 0.40 1 0.90 1.50 1.10 0.45 0.15 0.85 0.60 0.85 0.95 0 0.45 -0.15 0.45 -0.60 0 -0.35 -0.35 -0.80 -0.60 -1.05 -0.60 -0.25 0 -0.05 0.35 0.35 0.80 0.45 0.40 1 0.65 1.25 0.50 0.25 -0.20 1.15 0.50 1.95 1.50 1.40 1.70 1.45 1.85 0.75 3.35 -2.05 4.60 -2.40 5.05 -4.80 6 l-2.40 1 -3.05 -1.60 c-2.80 -1.50 -3.20 -1.55 -5.40 -1.10 -1.30 0.30 -3.85 1.05 -5.65 1.75 -1.80 0.65 -3.40 1.10 -3.50 0.95 -0.15 -0.15 -0.50 0.60 -0.80 1.65 -0.30 1.10 -0.85 3.10 -1.30 4.45 -0.95 3.15 -0.95 5.20 -0.05 5.55 0.40 0.15 0.85 0.65 1.05 1.10 0.15 0.45 0.15 0.70 0 0.50 -0.15 -0.15 -0.85 0.25 -1.55 0.95 -1.80 1.75 -4.65 1.50 -5.70 -0.60 -0.40 -0.80 -1.30 -2.25 -2 -3.15 l-1.20 -1.60 -1.20 3.85 c-0.65 2.15 -1.35 4.85 -1.55 6.05 -0.55 2.90 -0.80 2.95 -1.40 0.35z m10.35 -6.75 c0 -0.55 -0.20 -1 -0.50 -1 -0.25 0 -0.50 0.45 -0.50 1 0 0.55 0.25 1 0.50 1 0.30 0 0.50 -0.45 0.50 -1z m-5.30 -6.25 c0.15 -0.50 -0.05 -0.75 -0.65 -0.75 -0.55 0 -1.05 -0.30 -1.20 -0.60 -0.10 -0.35 -0.30 -0.05 -0.45 0.75 -0.20 1.15 -0.10 1.35 0.85 1.35 0.65 0 1.25 -0.35 1.45 -0.75z m23.30 -22 c-0.45 -0.55 -0.45 -0.75 -0.05 -0.75 0.35 0 0.50 -0.20 0.35 -0.45 -0.25 -0.40 -0.75 -0.40 -2.25 -0.10 -0.20 0.05 2.10 2 2.40 2.05 0.10 0 -0.10 -0.35 -0.45 -0.75z"/>
  <path d="M37 59.50 c-1 -0.30 -1.05 -0.40 -0.25 -0.40 0.55 0 1.45 0.15 2 0.40 1.25 0.55 -0.05 0.55 -1.75 0z"/>
  <path d="M75.30 56.50 c1.40 -1.80 3.10 -4.35 3.90 -5.65 0.75 -1.35 1.50 -2.30 1.65 -2.15 0.40 0.40 -4.95 8.25 -6.65 9.80 -0.80 0.75 -0.35 -0.10 1.10 -2z"/>
  <path d="M33.85 58.15 c-0.65 -0.60 -0.35 -2 0.55 -2.80 0.70 -0.65 1 -0.65 1.75 -0.15 1.15 0.90 1.05 1.30 -0.35 1.30 -0.95 0 -1.15 0.20 -0.95 1 0.25 0.95 -0.35 1.35 -1 0.65z"/>
  <path d="M39.30 57.55 c-0.85 -0.35 -0.85 -0.40 -0.10 -1.20 1.15 -1.10 2.15 -1.10 2.80 0.10 0.25 0.55 0.50 1.10 0.50 1.25 0 0.40 -2.05 0.30 -3.20 -0.15z"/>
  <path d="M44.60 52.20 c-0.90 -0.60 -1 -0.95 -0.60 -1.75 0.30 -0.50 0.95 -0.95 1.45 -0.95 1.10 0 3.25 2.25 2.80 2.95 -0.45 0.80 -2.35 0.65 -3.65 -0.25z"/>
  <path d="M82.55 43.90 c0.60 -1.45 1.50 -3.90 1.95 -5.40 0.50 -1.50 0.95 -2.40 0.95 -2 0.05 1.30 -1.40 7 -2.20 8.50 -1.30 2.50 -1.80 1.65 -0.70 -1.10z"/>
  <path d="M58 43 c-0.70 -0.55 -2.45 -1.35 -3.85 -1.75 -2.80 -0.80 -3.45 -1.90 -1.50 -2.45 2.40 -0.65 5.35 -0.20 5.35 0.80 0 0.30 0.55 1.15 1.25 2 2.05 2.40 1.25 3.35 -1.25 1.40z"/>
  <path d="M46 41.50 c0 -0.25 0.45 -0.70 1 -1 0.80 -0.40 1 -0.40 1 0.20 0 0.35 -0.35 0.85 -0.80 1 -1.05 0.40 -1.20 0.40 -1.20 -0.20z"/>
  <path d="M33 39 c0 -0.25 0.30 -0.50 0.70 -0.50 0.40 0 0.90 0.25 1.05 0.50 0.15 0.30 -0.15 0.50 -0.70 0.50 -0.60 0 -1.05 -0.20 -1.05 -0.50z"/>
  <path d="M34.15 37.65 c-2 -0.65 -2.75 -1.70 -1.75 -2.35 0.25 -0.15 1.25 0 2.25 0.30 1.45 0.45 1.85 0.85 1.85 1.75 0 0.65 -0.05 1.15 -0.10 1.10 -0.10 0 -1.10 -0.35 -2.25 -0.80z"/>
  <path d="M32.30 29.15 c0.50 -2.40 0.50 -3.10 0.05 -7.75 -0.25 -2.60 -0.20 -3.90 0.15 -3.90 0.30 0 0.50 1.25 0.50 2.90 0 1.60 0.15 3.05 0.30 3.20 0.15 0.15 1.30 -0.70 2.50 -1.90 3.05 -2.90 8.70 -4.75 8.70 -2.80 0 0.60 -0.85 1.10 -3.25 1.85 -1.80 0.50 -3.25 1.15 -3.25 1.40 0 0.30 -0.55 1 -1.25 1.65 -0.70 0.65 -1.25 1.40 -1.25 1.70 0 0.25 -0.20 0.50 -0.45 0.50 -0.25 0 -0.55 1.15 -0.75 2.50 -0.30 2.10 -0.50 2.50 -1.35 2.50 -0.95 0 -1 -0.20 -0.65 -1.85z"/>
  <path d="M86.10 28.50 c0 -0.95 0.10 -1.35 0.25 -0.85 0.10 0.45 0.10 1.25 0 1.75 -0.15 0.45 -0.25 0.05 -0.25 -0.90z"/>
  <path d="M32 16.55 c0 -0.20 0.25 -1.60 0.50 -3.10 0.65 -3.45 2.90 -5.80 7.70 -8.10 4.05 -1.95 6.05 -2.70 5.65 -2 -0.15 0.25 -1.85 1.10 -3.70 1.80 -3.45 1.40 -8.05 4.40 -8.40 5.50 -0.10 0.35 -0.30 1.90 -0.50 3.50 -0.20 1.55 -0.55 2.85 -0.80 2.85 -0.25 0 -0.45 -0.20 -0.45 -0.45z"/>
  <path d="M81.60 13.10 c-1.15 -1.80 -1.65 -2.85 -1.05 -2.30 1.10 1 3.70 5.15 3.40 5.40 -0.10 0.05 -1.15 -1.35 -2.35 -3.10z"/>
 </g>
 <g fill="#784c26">
  <path d="M35 99.35 c0 -0.75 2.65 -2.85 3.60 -2.85 0.30 0 -0.15 0.80 -1.10 1.75 -1.80 1.85 -2.50 2.15 -2.50 1.10z"/>
  <path d="M38.50 99.80 c0 -0.10 0.35 -0.45 0.75 -0.80 0.60 -0.50 0.75 -0.50 0.75 0.20 0 0.45 -0.35 0.80 -0.75 0.80 -0.40 0 -0.75 -0.10 -0.75 -0.20z"/>
  <path d="M41.50 99.35 c0 -0.35 -0.80 -1.85 -1.75 -3.35 -1.95 -3.05 -2.10 -3.50 -0.95 -3.50 0.40 0 1.10 -0.35 1.50 -0.75 0.45 -0.40 1.20 -0.75 1.75 -0.75 0.85 0 0.90 0.15 0.45 1.05 -0.55 0.95 -0.50 1 0.60 0.40 0.85 -0.45 0.65 -0.10 -0.75 1.50 -1.70 1.90 -1.85 2.25 -1.20 2.95 1 1.15 1.55 3.10 0.90 3.10 -0.30 0 -0.55 -0.30 -0.55 -0.65z"/>
  <path d="M35.15 75.80 c-1.90 -0.85 -2.15 -1.65 -0.55 -1.90 0.90 -0.10 0.65 -0.40 -1.35 -1.40 -2.95 -1.45 -3.40 -2 -2.65 -2.90 0.80 -0.95 3.45 -0.40 6.90 1.45 1.50 0.80 3.90 1.90 5.25 2.50 l2.50 1.05 -1.35 0.70 c-2.10 1.10 -6.85 1.35 -8.75 0.50z"/>
  <path d="M35.35 67.30 c-1.05 -0.40 -2.05 -0.85 -2.25 -1.05 -0.20 -0.15 -0.35 -2 -0.40 -4.10 l-0.10 -3.75 1.05 1 c0.60 0.55 1.70 1.15 2.40 1.35 1 0.25 1.25 0.55 1.10 1.30 -0.15 0.50 0 0.95 0.30 0.95 0.30 0 0.55 0.70 0.55 1.50 0 1.40 0.10 1.50 2 1.50 1.70 0 2.10 -0.20 2.50 -1.25 0.35 -0.95 0.85 -1.25 2 -1.25 0.85 0 1.90 0.35 2.30 0.75 0.70 0.65 0.65 0.75 -0.50 0.75 -1.75 0 -1.65 0.90 0.10 1.10 l1.35 0.15 -1.20 0.70 c-1.80 1 -8.90 1.25 -11.20 0.35z"/>
  <path d="M53.10 60.15 c-0.30 -0.80 -0.70 -2.30 -0.90 -3.40 -0.50 -2.90 -1.50 -4.95 -3.25 -7 -2.05 -2.35 -1.20 -2.75 3.30 -1.60 0.30 0.05 0.75 0.25 1 0.45 0.30 0.15 1.35 0.45 2.35 0.65 1.05 0.20 2.15 0.65 2.45 1.05 1.10 1.30 -0.50 7.95 -2.35 9.95 -1.45 1.60 -1.95 1.55 -2.60 -0.10z m2.05 -4.65 c0.40 -1.85 0 -2.85 -1.30 -3.55 -0.85 -0.50 -0.95 -0.45 -0.65 0.30 0.15 0.45 0.45 1.70 0.60 2.80 0.40 2.30 0.95 2.50 1.35 0.45z"/>
  <path d="M38 59.80 c-4.30 -1.20 -5.65 -2.75 -3.75 -4.30 1.05 -0.90 2.75 -0.15 2.75 1.25 0 1.70 0.90 2 1.55 0.55 0.70 -1.50 2.20 -1.95 3.10 -0.85 0.85 1 2.35 3.45 2.35 3.80 0 0.45 -3.65 0.20 -6 -0.45z"/>
  <path d="M28.35 56.90 c-1.95 -6.90 -2 -9.65 -0.20 -11.15 0.35 -0.25 1.25 -1.35 2 -2.40 1.25 -1.65 1.55 -1.80 2.20 -1.25 0.75 0.60 0.75 0.55 0.10 -0.45 -0.85 -1.40 -0.45 -1.80 1.25 -1.35 0.85 0.20 1.25 0.60 1.20 1.15 -0.15 0.80 0.30 0.85 2.85 0.45 0.65 -0.10 1 0.15 1 0.60 0 0.40 -0.50 0.80 -1.10 0.90 -0.65 0.10 -1.15 0.50 -1.15 0.95 0 0.45 -0.40 1.25 -0.85 1.75 -0.75 0.85 -0.75 0.95 0.10 1.55 0.70 0.55 0.80 0.85 0.30 1.75 -0.80 1.50 -1.35 1.40 -2.40 -0.40 -0.45 -0.80 -1 -1.50 -1.15 -1.50 -0.20 0 -0.95 2.70 -1.75 6 -0.75 3.30 -1.45 6 -1.55 6 -0.05 0 -0.45 -1.20 -0.85 -2.60z"/>
  <path d="M74.35 58 c1.20 -1.90 2.65 -3.60 2.65 -3.10 0 0.35 -0.70 1.30 -1.55 2.20 -0.90 0.90 -1.35 1.30 -1.10 0.90z"/>
  <path d="M36.55 53.45 c-1.45 -1.55 -1.30 -2.40 0.65 -4.65 2.15 -2.35 3.30 -5.60 3.30 -9.10 0 -2.35 -0.15 -2.75 -1.75 -4.15 -0.95 -0.80 -2.65 -1.80 -3.75 -2.10 -1.10 -0.35 -2 -0.90 -2 -1.25 0 -0.35 -0.25 -0.70 -0.55 -0.80 -0.85 -0.30 -0.05 -3.40 0.85 -3.40 0.45 0 0.70 0.55 0.70 1.65 0 1.50 0.15 1.65 2.40 2.25 1.30 0.35 4.25 0.70 6.60 0.80 2.35 0.10 6.05 0.30 8.30 0.40 2.25 0.05 4.35 0.40 4.75 0.70 0.40 0.30 1.30 0.70 2.05 0.80 l1.35 0.25 -0.85 -1.45 c-2.65 -4.55 -9.60 -9.45 -15.05 -10.65 -3.30 -0.75 -5.60 -1.80 -5.40 -2.50 0.10 -0.25 1.35 -0.90 2.85 -1.40 2.10 -0.70 3.40 -0.80 6.20 -0.55 1.95 0.20 3.15 0.50 2.65 0.65 -0.75 0.30 -0.70 0.50 0.60 1.95 0.85 0.85 1.70 1.60 1.90 1.60 0.20 0.05 1.20 0.70 2.15 1.50 0.95 0.85 1.90 1.50 2.15 1.50 0.20 0 0.85 0.45 1.45 1 1.90 1.75 5.40 3.10 7.20 2.75 0.90 -0.15 1.75 -0.55 1.85 -0.90 0.15 -0.40 0.50 -0.30 1.15 0.35 0.55 0.50 0.70 0.80 0.35 0.60 -0.30 -0.15 -0.70 -0.10 -0.85 0.15 -0.15 0.25 0.05 0.55 0.40 0.70 0.50 0.20 0.65 0.80 0.55 1.70 -0.10 0.75 -0.20 1.55 -0.20 1.80 -0.10 0.65 -2.75 3.10 -4.45 4 -2.20 1.15 -2.95 1.10 -5.35 -0.40 -2.40 -1.45 -2.85 -1.50 -7.20 -0.45 -3.15 0.75 -3.60 0.75 -6.30 0 -3.30 -1 -4.30 -0.45 -3 1.55 1 1.55 0.95 3.45 -0.30 7.45 -0.60 1.90 -1.20 4.60 -1.40 5.95 -0.25 2.25 -0.45 2.50 -1.65 2.65 -0.85 0.10 -1.65 -0.25 -2.35 -0.95z"/>
  <path d="M45.15 52.50 c-1.35 -0.55 -1.55 -2.25 -0.35 -2.70 1.15 -0.45 3.30 1.05 3.10 2.10 -0.20 1 -1.25 1.20 -2.75 0.60z"/>
  <path d="M49.50 45.70 l-1.75 -1.70 1.80 0 c1.40 0 1.90 0.25 2.10 1 0.15 0.55 0.60 1 1.05 1 0.95 0 2.85 -2 2.50 -2.60 -0.55 -0.85 1.10 -0.35 2.55 0.85 1.60 1.30 1.10 1.75 -0.55 0.50 -1.35 -1.05 -1.75 -0.90 -1.45 0.40 0.30 1 0.05 1.25 -1.65 1.75 -2.55 0.80 -2.55 0.80 -4.60 -1.20z"/>
  <path d="M57.05 42.40 c-2.85 -1.50 -5.90 -1.80 -8.90 -0.95 -2.25 0.65 -2.65 -0.30 -0.55 -1.15 2.25 -0.95 7.75 -1.90 8.80 -1.55 0.95 0.30 3.75 4.05 3.50 4.65 -0.10 0.25 -1.35 -0.20 -2.85 -1z"/>
  <path d="M38.20 39.95 c-1.40 -1.60 -3.65 -2.55 -5 -2.25 -1 0.25 -1.20 0.15 -1.20 -0.85 0 -1.65 0.30 -1.80 2.40 -1.30 2.45 0.55 7.10 5.45 5.20 5.45 -0.25 0 -0.85 -0.45 -1.40 -1.05z"/>
  <path d="M33.35 39.60 c-0.75 -0.10 -1.25 -0.40 -1.10 -0.65 0.40 -0.60 2.10 -0.55 2.50 0.10 0.45 0.70 0.25 0.75 -1.40 0.55z"/>
  <path d="M32.85 25.15 c-0.20 -0.15 -0.30 -1 -0.30 -1.85 0.05 -1.05 0.15 -1.25 0.30 -0.55 0.40 1.70 0.90 1.75 1.85 0.30 0.55 -0.80 1.40 -1.65 1.90 -2 0.80 -0.50 0.90 -0.40 0.90 0.95 0 1 -0.25 1.50 -0.75 1.50 -0.40 0 -0.75 0.45 -0.75 1 0 0.75 -0.35 1 -1.40 1 -0.80 0 -1.60 -0.15 -1.75 -0.35z"/>
  <path d="M32.20 18.70 c-0.15 -0.95 -0.10 -2.50 0.20 -3.35 0.45 -1.45 0.50 -1.25 0.55 1.80 0.05 3.70 -0.25 4.30 -0.75 1.55z"/>
 </g>
 <g fill="#517d22">
  <path d="M31.75 98.95 c0.45 -1.40 1.20 -2.45 1.80 -2.45 0.60 0 -0.85 3.20 -1.55 3.40 -0.40 0.15 -0.50 -0.15 -0.25 -0.95z"/>
  <path d="M45.65 93.80 c0.20 -0.50 0.35 -1.45 0.35 -2.20 0 -0.95 0.15 -1.15 0.55 -0.75 0.70 0.70 0.35 3.25 -0.50 3.55 -0.50 0.15 -0.60 0 -0.40 -0.60z"/>
  <path d="M34.05 92.30 c-0.70 -0.85 -0.55 -3.40 0.20 -3.65 0.30 -0.10 0.50 0.85 0.55 2.10 0 1.25 0 2.25 -0.05 2.25 -0.10 0 -0.40 -0.30 -0.70 -0.70z"/>
  <path d="M47.75 82 c0.55 -0.25 2.90 -1.05 5.25 -1.75 2.35 -0.75 6.35 -2.45 8.95 -3.80 3.20 -1.65 4.40 -2.10 3.75 -1.40 -2.10 2.35 -10.75 5.90 -17.45 7.15 -1.15 0.20 -1.25 0.15 -0.50 -0.20z"/>
  <path d="M37.65 79.95 c-0.90 -0.60 -1.65 -1.25 -1.65 -1.55 0 -0.50 2.80 1 3.60 2 0.80 0.90 -0.15 0.70 -1.95 -0.45z"/>
 </g>
 <g fill="#4b535a">
  <path d="M78.50 99.15 c0 -1.70 0.60 -3.15 1.30 -3.15 0.50 0 0.70 0.65 0.70 2 0 1.65 -0.15 2 -1 2 -0.60 0 -1 -0.35 -1 -0.85z"/>
  <path d="M85.20 94.40 c0.20 -3.10 0.45 -6.70 0.65 -8 0.25 -2.35 0.25 -2.40 -1.05 -2.40 -0.70 0 -1.30 -0.20 -1.30 -0.40 0 -0.20 1 -2.05 2.25 -4.05 1.25 -2 2.25 -3.85 2.25 -4.10 0 -0.25 0.45 -0.45 1 -0.45 0.65 0 1 0.35 1 1 0 0.55 -0.20 1 -0.50 1 -0.25 0 -0.50 0.45 -0.50 1 0 0.55 -0.20 1 -0.50 1 -0.25 0 -0.50 0.35 -0.50 0.75 0 0.40 -0.30 0.75 -0.70 0.75 -0.40 0 -0.80 0.65 -0.90 1.50 -0.20 1.40 -0.15 1.50 1.50 1.50 l1.75 0 -0.30 4.15 c-0.20 2.25 -0.35 5.95 -0.35 8.25 l0 4.10 -2.05 0 -2.10 0 0.35 -5.60z"/>
  <path d="M91.50 97.50 l0 -2.50 1.70 0 c1.50 0 1.70 0.20 2 1.55 0.60 3.15 0.45 3.45 -1.70 3.45 l-2 0 0 -2.50z"/>
  <path d="M6 96.90 c0 -1.20 0.45 -4.15 1 -6.60 0.55 -2.50 1 -4.55 1 -4.65 0 -0.10 -0.45 -0.15 -1 -0.15 -0.55 0 -1 -0.35 -1 -0.75 0 -0.40 -0.35 -0.75 -0.75 -0.75 -0.40 0 -0.75 0.45 -0.75 1 0 1.20 -1 3.50 -1.55 3.50 -0.20 0 -0.45 0.95 -0.55 2.15 -0.10 1.75 -0.35 2.15 -1.25 2.25 -1.05 0.15 -1.15 -0.05 -1.15 -1.90 0 -1.15 0.20 -1.95 0.45 -1.80 0.25 0.15 0.60 -0.30 0.80 -1.10 0.40 -1.65 3.80 -7.60 4.35 -7.60 0.20 0 0.40 0.30 0.40 0.65 0.05 0.30 0.50 -0.25 1.05 -1.30 1.05 -2 2.95 -3.10 4.70 -2.65 0.75 0.20 1.15 -0.05 1.50 -0.85 0.30 -0.60 1.05 -1.20 1.70 -1.25 l1.20 -0.20 -1 1.45 c-1.85 2.55 -3.05 5.45 -4.40 10.20 -0.70 2.60 -1.50 5.15 -1.80 5.70 -0.35 0.80 -1.45 5.70 -1.45 6.55 0 0.10 -0.35 0.20 -0.75 0.20 -0.55 0 -0.75 -0.55 -0.75 -2.10z"/>
  <path d="M98.15 96.65 c-0.50 -0.15 -0.65 -2.45 -0.65 -8.95 l0 -8.70 -1.25 0 c-0.90 0 -1.25 -0.25 -1.25 -1 0 -1.50 1.75 -1.25 2.95 0.40 0.60 0.75 1.25 1.60 1.55 1.95 0.30 0.35 0.50 3.95 0.50 8.65 0 8.15 -0.05 8.40 -1.85 7.65z"/>
  <path d="M79.25 93.65 c0.45 -2.60 1.60 -5.15 2.20 -5.15 0.70 0 0.70 1.95 -0.05 4.75 -0.45 1.65 -0.85 2.25 -1.55 2.25 -0.85 0 -0.90 -0.25 -0.60 -1.85z"/>
  <path d="M90.50 76.50 c0 -1.10 1 -1.30 2.55 -0.50 1.50 0.80 1.15 1.50 -0.80 1.50 -1.40 0 -1.75 -0.20 -1.75 -1z"/>
 </g>
 <g fill="#935131">
  <path d="M38.35 93.55 c-1.10 -1.85 -1.10 -1.90 0.40 -1.90 1.10 0 1.25 0.20 1.25 1.65 0 2.10 -0.50 2.15 -1.65 0.25z"/>
  <path d="M34.40 66.75 c-1.55 -0.90 -2 -2.95 -0.50 -2.40 0.75 0.30 0.75 0.20 -0.10 -0.75 -0.80 -0.95 -0.85 -1.10 -0.15 -1.10 0.45 0 1.40 0.25 2.20 0.55 0.75 0.30 3.35 0.55 5.75 0.55 3.30 -0.05 4.40 0.10 4.60 0.70 0.15 0.45 -0.05 0.70 -0.70 0.70 -1.15 0 -1.75 0.80 -0.90 1.15 1.55 0.55 -0.55 1.10 -4.50 1.25 -3.20 0.10 -4.70 -0.10 -5.70 -0.65z"/>
  <path d="M47.25 41 c-0.20 -0.30 -0.20 -0.50 -0.05 -0.50 0.10 0 0.55 -0.15 1 -0.30 0.45 -0.15 0.80 -0.10 0.80 0.20 0 0.70 -1.40 1.15 -1.75 0.60z"/>
  <path d="M32.50 36.45 c0 -0.80 0.25 -1 1.35 -0.85 0.85 0.10 1.45 0.50 1.55 1.05 0.15 0.65 -0.15 0.85 -1.35 0.85 -1.25 0 -1.55 -0.20 -1.55 -1.05z"/>
 </g>
 <g fill="#756043">
  <path d="M41.50 99 c-0.30 -0.55 -0.45 -1.30 -0.35 -1.65 0.15 -0.35 0.50 0.05 0.80 0.85 0.70 1.75 0.35 2.35 -0.45 0.80z"/>
  <path d="M45.85 93 c0.15 -0.55 0.45 -1 0.70 -1 0.25 0 0.45 0.45 0.45 1 0 0.55 -0.30 1 -0.70 1 -0.45 0 -0.60 -0.35 -0.45 -1z"/>
  <path d="M42 91.65 c0 -0.65 0.25 -1.15 0.50 -1.15 0.65 0 0.65 0.55 0 1.50 -0.40 0.60 -0.50 0.55 -0.50 -0.35z"/>
  <path d="M36.95 90.90 c-0.60 -1.15 -0.60 -1.15 0.50 -0.20 1.15 1.05 1.30 1.30 0.55 1.30 -0.25 0 -0.75 -0.50 -1.05 -1.10z"/>
  <path d="M40.50 85.50 c0 -0.65 0.35 -1 1 -1 0.65 0 1 0.35 1 1 0 0.65 -0.35 1 -1 1 -0.65 0 -1 -0.35 -1 -1z"/>
  <path d="M30.85 71.90 c-0.85 -1.75 -0.45 -2.75 0.85 -2.25 0.50 0.20 0.80 0.95 0.80 2.10 0 2.20 -0.65 2.25 -1.65 0.15z"/>
  <path d="M38.50 63.75 c0 -1.65 0.10 -1.75 1.75 -1.75 1.65 0 1.75 0.10 1.75 1.75 0 1.65 -0.10 1.75 -1.75 1.75 -1.65 0 -1.75 -0.10 -1.75 -1.75z"/>
  <path d="M45.50 62.95 c0 -1.30 0.15 -1.55 1 -1.30 0.55 0.15 1.15 0.05 1.30 -0.20 0.55 -0.90 2.20 -0.50 2.20 0.55 0 0.55 -0.20 1 -0.50 1 -0.25 0 -0.50 0.35 -0.50 0.75 0 0.50 -0.55 0.75 -1.75 0.75 -1.65 0 -1.75 -0.10 -1.75 -1.55z"/>
  <path d="M80.90 47.75 c2.55 -5.20 4.60 -11.60 5.10 -16 0.35 -3.25 0.35 -3.30 0.45 -1 0.05 3.15 -2.50 13.05 -4.20 16.15 -2.35 4.30 -3.35 4.90 -1.35 0.85z"/>
  <path d="M54.40 44.85 c0.45 -1 1.10 -1.80 1.35 -1.85 0.70 0 3.55 2.35 3.25 2.65 -0.15 0.15 -1.45 0.45 -2.85 0.65 l-2.60 0.30 0.85 -1.75z"/>
  <path d="M48.25 44.70 l-1 -0.75 1 -0.75 c0.90 -0.65 1 -0.65 1.15 0 0.10 0.45 0.10 1.10 0 1.50 -0.15 0.65 -0.30 0.65 -1.15 0z"/>
  <path d="M37.10 42.65 c0.10 -0.50 0.50 -0.90 0.90 -0.90 1.10 0 0.90 1.45 -0.15 1.65 -0.70 0.15 -0.90 -0.05 -0.75 -0.75z"/>
  <path d="M32.80 12.75 c0.15 -1.10 0.50 -2.20 0.70 -2.45 0.25 -0.25 0.25 0.40 -0.05 1.50 -0.75 2.85 -1 3.20 -0.65 0.95z"/>
  <path d="M35.95 8 c0.95 -0.80 2.75 -1.95 3.95 -2.50 3.75 -1.75 7.10 -3 7.10 -2.60 0 0.20 -1.65 0.95 -3.65 1.70 -1.95 0.75 -4.85 2.15 -6.35 3.15 -2.55 1.65 -2.60 1.65 -1.05 0.25z"/>
 </g>
 <g fill="#7e6041">
  <path d="M38.55 93.70 c-1.25 -2.10 -1.40 -3.10 -0.30 -2.20 0.50 0.45 0.75 0.45 0.75 0.05 0 -0.75 1.55 -0.65 2.60 0.15 0.70 0.50 0.75 0.75 0.25 1.30 -0.45 0.50 -0.45 0.55 0.05 0.30 0.95 -0.55 0.70 0.45 -0.30 1.35 -1.35 1.25 -1.90 1.05 -3.05 -0.95z"/>
  <path d="M31 72.05 c-0.80 -1.50 -0.60 -2.65 0.40 -2.45 0.55 0.10 0.90 0.70 1 1.80 0.20 1.75 -0.60 2.15 -1.40 0.65z"/>
  <path d="M38.50 64.55 c0 -0.55 -0.20 -1.15 -0.50 -1.30 -0.25 -0.15 -0.50 0.15 -0.50 0.75 0 0.85 -0.20 0.95 -1.35 0.70 -2.10 -0.50 -3.05 -1.70 -3.45 -4.20 l-0.35 -2.25 1.20 1.10 c0.65 0.60 2.80 1.50 4.70 2 3.35 0.90 3.50 1 3.65 2.55 0.15 1.55 0.10 1.60 -1.60 1.60 -1.45 0 -1.80 -0.20 -1.80 -0.95z"/>
  <path d="M45.50 64.30 c0 -0.45 -0.35 -0.80 -0.75 -0.80 -1.20 0 -0.90 -1.35 0.40 -1.70 1.60 -0.40 1.75 -0.40 2 0.60 0.20 0.75 0.25 0.75 0.30 0 0 -0.45 0.50 -0.95 1 -1.15 1.15 -0.35 3.55 0.15 3.55 0.75 0 0.80 -2.75 2.40 -4.65 2.75 -1.50 0.30 -1.85 0.20 -1.85 -0.45z"/>
  <path d="M54.20 45.55 c1.10 -1.25 3.80 -1.45 3.80 -0.30 0 0.40 -0.15 0.75 -0.35 0.75 -0.25 0.05 -1.30 0.15 -2.40 0.30 l-2 0.30 0.95 -1.05z"/>
  <path d="M33.85 42.45 c-1.60 -0.85 -1.90 -1.25 -1.75 -2.35 0.20 -1.65 1.90 -2.25 1.90 -0.65 0 0.60 0.25 1.05 0.55 1.05 0.30 0 0.40 0.35 0.25 0.75 -0.40 1.05 0.85 1.45 2.20 0.75 0.90 -0.50 1.20 -0.45 1.55 0.05 1.05 1.70 -1.80 1.95 -4.70 0.40z"/>
  <path d="M56.75 36.15 c-1.50 -0.30 -3.25 -1.25 -3.25 -1.75 0 -0.20 1.15 -0.40 2.50 -0.40 2.35 0 2.50 0.10 2.50 1.25 0 0.70 -0.15 1.20 -0.35 1.20 -0.25 -0.05 -0.85 -0.15 -1.40 -0.30z"/>
  <path d="M32.65 25.10 c-0.05 -2.35 0 -2.65 0.40 -1.60 0.50 1.20 0.55 1.20 1.25 0.30 0.65 -0.90 0.70 -0.75 0.70 1.60 0 2.35 -0.10 2.60 -1.10 2.60 -1.05 0 -1.15 -0.25 -1.25 -2.90z"/>
  <path d="M32.30 18.60 c-0.20 -0.90 -0.25 -1.80 -0.10 -1.95 0.55 -0.60 0.85 0.25 0.70 1.95 l-0.15 1.65 -0.45 -1.65z"/>
 </g>
 <g fill="#6f6651">
  <path d="M39.65 94 c0.15 -0.55 0 -1.15 -0.25 -1.35 -0.35 -0.15 -0.40 -0.05 -0.20 0.25 0.45 0.80 -0.35 0.75 -1.10 0 -0.90 -0.90 -0.80 -2.20 0.10 -1.45 0.55 0.45 0.85 -0.10 1.60 -3 1 -3.80 1.50 -4.35 3.15 -3.45 1.40 0.75 1.35 3.20 -0.10 6.10 -0.90 1.80 -1 2.25 -0.40 2 0.60 -0.20 0.60 0 -0.15 0.80 -1.25 1.45 -3 1.50 -2.65 0.10z"/>
  <path d="M14 76.15 c0 -0.55 0.35 -1.20 0.80 -1.35 1.35 -0.50 1.50 0.15 0.30 1.35 l-1.10 1.05 0 -1.05z"/>
  <path d="M56 44.45 c0 -1.45 0.10 -1.50 0.90 -0.90 1.95 1.55 2.10 2.45 0.35 2.45 -1.05 0 -1.25 -0.25 -1.25 -1.55z"/>
  <path d="M50 45 c0 -0.25 -0.45 -0.50 -0.95 -0.50 -1.40 0 -1.75 -0.85 -0.60 -1.45 1.20 -0.65 2.90 -0.70 3.25 -0.15 0.45 0.75 -0.30 2.60 -1 2.60 -0.40 0 -0.70 -0.20 -0.70 -0.50z"/>
  <path d="M33.50 40.25 c0 -1.90 0.65 -2.30 1.45 -0.85 0.30 0.55 0.30 1.20 0 1.75 -0.80 1.40 -1.45 1 -1.45 -0.90z"/>
  <path d="M85.95 32.90 c0.20 -1.40 0.30 -1.45 0.45 -0.45 0.10 0.65 0 1.35 -0.25 1.60 -0.30 0.30 -0.35 -0.15 -0.20 -1.15z"/>
  <path d="M38.30 6.45 c0.30 -0.50 3.75 -2.05 4 -1.80 0.10 0.10 -0.80 0.65 -2.05 1.20 -1.20 0.55 -2.10 0.80 -1.95 0.60z"/>
  <path d="M45.25 3.30 c0.85 -0.35 2.20 -0.80 3 -0.95 l1.50 -0.30 -1.50 0.65 c-0.80 0.35 -2.15 0.80 -3 0.95 l-1.50 0.30 1.50 -0.65z"/>
 </g>
 <g fill="#956330">
  <path d="M41.25 98.50 c-0.20 -0.60 -0.25 -1.20 -0.10 -1.35 0.15 -0.10 0.40 0.25 0.60 0.85 0.20 0.60 0.25 1.20 0.10 1.35 -0.15 0.10 -0.40 -0.25 -0.60 -0.85z"/>
  <path d="M36 98.60 c0 -0.65 1.75 -2.10 2.50 -2.10 0.45 0 0.25 0.45 -0.50 1.25 -1.20 1.25 -2 1.60 -2 0.85z"/>
  <path d="M38.55 93.70 c-1.55 -2.70 -1.85 -4 -0.55 -2.45 0.85 1.05 1.40 0.95 1.65 -0.35 l0.20 -1.15 0.40 1.15 c0.40 1.20 1.05 1.45 1.35 0.55 0.10 -0.35 0.50 -0.50 0.90 -0.35 0.55 0.15 0.35 0.60 -0.75 1.65 l-1.50 1.40 1.75 -0.90 1.75 -0.85 -1.75 1.90 c-0.95 1.05 -1.80 2 -1.80 2.10 -0.05 0.10 -0.80 -1.10 -1.65 -2.70z"/>
  <path d="M46 92.55 c0 -0.85 0.25 -1.55 0.50 -1.55 0.30 0 0.50 0.55 0.50 1.20 0 0.70 -0.20 1.40 -0.50 1.55 -0.30 0.20 -0.50 -0.35 -0.50 -1.20z"/>
  <path d="M34.15 75.25 c-1.70 -0.75 -2.90 -2.25 -3.40 -4.35 -0.25 -1 -0.15 -1.40 0.30 -1.40 1.15 0 9.05 4.15 9.30 4.90 0.65 1.60 -3.25 2.15 -6.20 0.85z"/>
  <path d="M33.75 63.50 c-0.90 -0.95 -0.85 -1 0.15 -1 0.60 0 1.10 0.10 1.10 0.20 0 0.10 0.15 0.55 0.30 1 0.45 1.10 -0.45 1 -1.55 -0.20z"/>
  <path d="M35.85 63.80 c-0.20 -0.50 -0.25 -1.05 -0.10 -1.20 0.45 -0.45 0.85 0.30 0.65 1.25 -0.15 0.85 -0.20 0.85 -0.55 -0.05z"/>
  <path d="M53.05 59.40 c-0.20 -0.65 -0.55 -2.05 -0.75 -3.15 -0.45 -2.30 -1.50 -4.55 -2.95 -6.10 -0.55 -0.65 -0.90 -1.30 -0.75 -1.45 0.15 -0.15 1.90 0.20 3.85 0.80 4.20 1.25 4.80 2 4.40 5.85 -0.45 4.30 -2.75 6.80 -3.80 4.05z"/>
  <path d="M28 55 c-0.40 -0.70 -0.70 -2.85 -0.70 -4.85 -0.05 -3.60 -0.05 -3.65 2.10 -5.75 1.35 -1.40 2.25 -1.95 2.50 -1.60 0.20 0.30 0.85 0.70 1.50 0.90 1.55 0.50 1.40 1.45 -0.20 1.15 -1.70 -0.30 -2.50 1.05 -3.10 5.40 -0.30 1.95 -0.70 4.05 -1 4.75 l-0.45 1.20 -0.65 -1.20z"/>
  <path d="M36.60 53.40 c-0.95 -0.95 -0.70 -2.15 0.90 -4.15 0.80 -1 2.10 -3.50 2.85 -5.55 2.30 -6.25 3.10 -3.95 0.90 2.60 -1.40 4.25 -3.05 7.70 -3.65 7.70 -0.20 0 -0.65 -0.25 -1 -0.60z"/>
  <path d="M44.75 51.50 c-0.15 -0.25 -0.15 -0.75 0 -1 0.35 -0.60 2.25 0.25 2.25 1 0 0.65 -1.85 0.65 -2.25 0z"/>
  <path d="M56 43.75 c-0.85 -0.50 -1 -0.70 -0.45 -0.75 0.45 0 1.10 0.35 1.45 0.75 0.75 0.90 0.60 0.90 -1 0z"/>
  <path d="M35 43 c-0.60 -0.40 -0.55 -0.50 0.35 -0.50 0.60 0 1.40 -0.15 1.85 -0.30 0.55 -0.20 0.80 -0.05 0.80 0.50 0 0.90 -1.80 1.10 -3 0.30z"/>
  <path d="M56.75 41.90 c-1.50 -0.65 -2.90 -0.90 -5.65 -0.80 -4.30 0.15 -4.55 -0.55 -0.55 -1.55 3.30 -0.85 4.60 -0.60 6.95 1.40 2.15 1.80 1.90 2.20 -0.75 0.95z"/>
  <path d="M32.25 41.50 c-0.20 -0.30 0.35 -0.50 1.25 -0.50 0.90 0 1.45 0.20 1.25 0.50 -0.15 0.30 -0.75 0.50 -1.25 0.50 -0.50 0 -1.10 -0.20 -1.25 -0.50z"/>
  <path d="M36.90 38.65 c-1 -0.70 -2.40 -1.30 -3.15 -1.35 -0.85 -0.05 -1.25 -0.35 -1.25 -0.90 0 -1.90 4.15 -0.50 5.70 1.85 0.50 0.75 0.80 1.40 0.70 1.50 -0.10 0.05 -1 -0.45 -2 -1.10z"/>
  <path d="M33.25 39 c-0.95 -0.40 -0.95 -0.45 0.10 -0.45 0.60 -0.05 1.25 0.20 1.40 0.45 0.35 0.60 -0.10 0.60 -1.50 0z"/>
  <path d="M58.35 36.55 c-3 -1.50 -7.90 -2.10 -16.65 -2.05 -2.10 0 -4.25 -0.30 -5.35 -0.75 -1 -0.40 -2.40 -0.75 -3.15 -0.75 -1.30 0 -1.30 -0.05 -1 -2.60 0.20 -1.45 0.55 -2.95 0.75 -3.35 0.25 -0.40 0.20 -1.35 -0.05 -2.15 -0.25 -0.75 -0.40 -1.65 -0.25 -2 0.15 -0.35 0.30 -0.15 0.30 0.50 0.05 1.55 0.45 1.40 2.45 -0.95 1 -1.15 2.55 -2.40 3.45 -2.75 1.90 -0.80 2.85 -0.90 2.40 -0.25 -0.40 0.70 0.55 1.15 3.75 1.80 3.60 0.75 10.50 4.75 12.75 7.40 2.30 2.65 4.50 7 4.10 8 -0.40 1.10 -1.20 1.05 -3.50 -0.10z"/>
  <path d="M32.25 18.10 c-0.15 -0.80 -0.05 -1.95 0.20 -2.65 0.40 -1 0.50 -0.80 0.50 1.45 0.05 2.90 -0.20 3.35 -0.70 1.20z"/>
 </g>
 <g fill="#606873">
  <path d="M0.60 97.50 c0.05 -1.40 0 -2.50 -0.20 -2.50 -0.60 0 -0.50 -3.40 0.10 -3.75 0.30 -0.15 0.50 -0.95 0.50 -1.70 0 -1.50 1.20 -3.50 1.75 -2.95 0.20 0.20 0.95 -0.80 1.70 -2.25 0.70 -1.45 1.10 -2.75 0.90 -2.90 -0.50 -0.35 0.95 -3.45 1.60 -3.45 0.25 0 0.60 0.30 0.70 0.65 0.15 0.35 0.30 0.25 0.30 -0.25 0.05 -0.60 0.45 -0.90 1.20 -0.90 0.60 0 2 -0.45 3.10 -1 3.05 -1.55 3.40 -1.30 1.75 1.40 -0.80 1.35 -1.80 3.35 -2.20 4.50 -0.40 1.10 -1.05 2.55 -1.45 3.20 -0.90 1.35 -2.85 10.10 -2.85 12.65 l0 1.75 -3.55 0 -3.55 0 0.20 -2.50z m8.35 -15.85 c0.60 -1.20 0.95 -2.15 0.80 -2.15 -0.25 0 -2.25 3.75 -2.25 4.30 0 0.55 0.30 0.10 1.45 -2.15z"/>
  <path d="M78.70 98.90 c0.15 -0.65 0.30 -1.30 0.30 -1.50 0 -0.25 0.35 -0.40 0.75 -0.40 0.50 0 0.75 0.50 0.75 1.50 0 1.20 -0.20 1.50 -1.05 1.50 -0.85 0 -1 -0.20 -0.75 -1.10z"/>
  <path d="M82.50 98.50 c0 -1.40 0.15 -1.50 1.75 -1.50 1.60 0 1.75 0.10 1.75 1.50 0 1.40 -0.15 1.50 -1.75 1.50 -1.60 0 -1.75 -0.10 -1.75 -1.50z"/>
  <path d="M90 99.25 c0 -0.40 0.25 -0.75 0.50 -0.75 0.30 0 0.50 -2.40 0.50 -6.15 0 -5.80 0.05 -6.25 1.15 -7.25 0.70 -0.65 1.80 -1.10 2.75 -1.10 1.50 0 1.55 0.10 1.75 2.40 0.15 2.10 0.20 2.05 0.25 -0.75 0.10 -2.75 0.20 -3.15 1.05 -3.15 0.90 0 1 0.50 1.25 6.40 0.10 3.50 0.35 7.40 0.55 8.75 l0.35 2.35 -3 0 -3 0 -0.50 -1.85 -0.50 -1.90 -0.05 1.90 c-0.05 1.70 -0.15 1.85 -1.55 1.85 -1 0 -1.50 -0.25 -1.50 -0.75z"/>
  <path d="M79 95.65 c0 -1.70 0.60 -3.15 1.30 -3.15 0.50 0 0.70 0.65 0.70 2 0 1.65 -0.15 2 -1 2 -0.60 0 -1 -0.35 -1 -0.85z"/>
  <path d="M85.20 91.15 c0.20 -3 0.55 -6.35 0.75 -7.50 0.25 -1.20 0.20 -2.15 0 -2.15 -0.25 0 -0.45 0.80 -0.45 1.75 0 1.55 -0.15 1.75 -1.25 1.75 -0.70 0 -1.25 -0.15 -1.25 -0.30 0 -0.80 5.65 -9.70 6.15 -9.70 0.35 0 1.10 0.15 1.75 0.30 1.35 0.40 1.45 1.70 0.15 1.70 -0.55 0 -1.15 0.25 -1.30 0.50 -0.15 0.30 -0.05 0.50 0.30 0.50 0.40 0 0.50 0.90 0.25 3.15 -0.15 1.70 -0.45 5.50 -0.60 8.50 -0.20 2.95 -0.50 5.35 -0.75 5.35 -0.25 0 -0.45 0.35 -0.45 0.75 0 0.40 -0.20 0.75 -0.50 0.75 -0.30 0 -0.55 -1.75 -0.60 -4.10 -0.05 -2.60 -0.15 -3.20 -0.25 -1.65 -0.25 4.35 -0.65 5.75 -1.50 5.75 -0.70 0 -0.75 -0.65 -0.45 -5.35z"/>
  <path d="M41.50 93.75 c0.35 -0.40 0.85 -0.75 1.10 -0.75 0.30 0 0.25 0.35 -0.10 0.75 -0.35 0.40 -0.85 0.75 -1.10 0.75 -0.30 0 -0.25 -0.35 0.10 -0.75z"/>
  <path d="M38.05 92.65 c-0.65 -1.40 -0.65 -1.40 0.40 -0.45 1.10 1 1.35 1.80 0.65 1.80 -0.25 0 -0.70 -0.60 -1.05 -1.35z"/>
  <path d="M39.70 93.10 c-0.65 -1.10 -0.30 -2.60 0.60 -2.60 0.40 0 0.70 -0.20 0.70 -0.50 0 -0.25 -0.20 -0.50 -0.50 -0.50 -0.65 0 -0.65 -0.75 0 -3.10 0.40 -1.40 0.75 -1.80 1.30 -1.55 0.65 0.25 0.75 0.75 0.50 2.50 -0.20 1.65 -0.10 2.15 0.45 2.15 1.05 0 0 2.75 -1.45 3.65 -1 0.70 -1.15 0.65 -1.60 -0.05z"/>
  <path d="M80.65 89.40 c0.95 -2.30 1.85 -2.40 1.85 -0.20 0 1.60 -0.15 1.80 -1.25 1.80 -1.20 0 -1.25 -0.05 -0.60 -1.60z"/>
  <path d="M96.50 79.50 c0 -0.80 -0.35 -1 -1.75 -1 -1.50 0 -1.75 -0.15 -1.75 -1.20 l0 -1.25 2.25 0.80 c3.20 1.05 4.95 3.65 2.50 3.65 -0.90 0 -1.25 -0.25 -1.25 -1z"/>
 </g>
 <g fill="#947553">
  <path d="M39 94.55 c-0.85 -1.65 -0.55 -2.40 0.45 -1.05 0.80 1 1.05 1.10 1.75 0.55 1 -0.85 1.05 -0.25 0.10 0.75 -1 0.95 -1.65 0.90 -2.30 -0.25z"/>
  <path d="M39.80 93.20 c-0.40 -1.10 -0.15 -1.30 1.20 -1.10 1.10 0.15 1.10 0.15 0.10 1.05 -0.90 0.85 -1 0.85 -1.30 0.05z"/>
  <path d="M41 85.55 c0 -0.70 0.25 -0.90 1 -0.70 0.55 0.15 1 0.60 1 0.95 0 0.40 -0.45 0.70 -1 0.70 -0.65 0 -1 -0.35 -1 -0.95z"/>
  <path d="M37.60 65.15 c-0.70 -0.15 -1.45 -0.85 -1.90 -1.80 -0.70 -1.55 -0.75 -1.55 -0.45 -0.20 0.25 1.25 0.20 1.35 -0.70 0.85 -1.30 -0.65 -1.35 -0.85 -1.75 -3.50 -0.35 -2.20 -0.35 -2.25 0.55 -1.20 0.50 0.55 1.55 1.20 2.35 1.40 0.80 0.20 1.50 0.80 1.65 1.30 0.30 1.20 1.15 1.35 1.15 0.20 0 -0.55 0.25 -0.70 0.80 -0.50 0.45 0.15 1.35 0.30 2 0.30 0.75 0 1.20 0.30 1.20 0.75 0 0.95 -0.10 0.95 2.25 -0.25 l2 -1 0.35 1.60 c0.15 0.90 0.30 1.70 0.25 1.75 -0.25 0.20 -8.75 0.50 -9.75 0.30z"/>
  <path d="M47.80 63.20 c-0.40 -1.60 -0.35 -1.65 1.90 -2.05 1.60 -0.25 1.80 -0.15 1.80 0.80 0 0.70 -0.30 1.05 -0.95 1.05 -0.50 0 -1.05 0.35 -1.25 0.75 -0.40 1.15 -1.15 0.90 -1.50 -0.55z"/>
  <path d="M81.25 47.55 c0.45 -0.95 1.40 -3.05 2.05 -4.75 0.85 -2.10 1.15 -2.55 0.95 -1.40 -0.25 1.75 -2.40 6.45 -3.35 7.35 -0.30 0.30 -0.15 -0.25 0.35 -1.20z"/>
  <path d="M54 46.10 c0 -0.70 1.15 -1.60 2.10 -1.60 1.30 0 1.10 1.35 -0.20 1.70 -1.55 0.40 -1.90 0.35 -1.90 -0.10z"/>
  <path d="M48.65 44.75 l-1.40 -1.25 2 0.10 c1.65 0.15 2.05 0.35 2.15 1.30 0.25 1.50 -0.95 1.45 -2.75 -0.15z"/>
  <path d="M35.90 43.10 c-0.70 -0.30 -0.50 -0.50 0.90 -0.90 1.50 -0.50 1.75 -0.45 1.60 0.25 -0.20 0.90 -1.20 1.15 -2.50 0.65z"/>
  <path d="M32.25 41.50 c-0.65 -1 0.20 -3 1.25 -3 0.75 0 1 0.35 1 1.25 0 0.70 0.05 1.40 0.15 1.65 0.20 0.60 -2.05 0.70 -2.40 0.10z"/>
  <path d="M32.65 20.75 c0 -2.20 0.10 -3.05 0.20 -1.85 0.10 1.15 0.10 2.95 0 4 -0.10 1 -0.20 0.05 -0.20 -2.15z"/>
 </g>
 <g fill="#6f7883">
  <path d="M0.15 96.65 c0.15 -1.90 0.35 -3.95 0.50 -4.65 0.20 -0.70 0.45 -2.10 0.60 -3.10 0.15 -1.10 0.60 -1.90 0.95 -1.90 0.80 0 1.45 -1.35 1.05 -2.05 -0.20 -0.25 0.35 -1.50 1.10 -2.80 0.75 -1.30 1.65 -2.85 1.90 -3.40 0.40 -0.70 1.25 -1.10 3.20 -1.35 1.70 -0.25 3.20 -0.85 4.15 -1.65 0.80 -0.70 1.70 -1.25 1.95 -1.25 0.55 0 0.40 0.25 -1.30 2.85 -3.55 5.20 -5.25 10.10 -7 20.30 -0.15 1.10 -0.60 1.85 -1 1.85 -0.90 0 -1.40 -2.55 -1 -5.15 0.50 -3.25 2.70 -10.35 4.05 -13.05 1.90 -3.80 1.05 -3.30 -1.35 0.80 -2.80 4.75 -4.80 9.95 -5.55 14.35 -0.50 2.95 -0.75 3.55 -1.55 3.55 -0.85 0 -0.90 -0.30 -0.70 -3.35z"/>
  <path d="M78.80 99.25 c0.20 -0.40 0.50 -0.75 0.75 -0.75 0.25 0 0.45 0.35 0.45 0.75 0 0.40 -0.35 0.75 -0.75 0.75 -0.45 0 -0.60 -0.30 -0.45 -0.75z"/>
  <path d="M82.50 97.90 c0 -3.60 0.40 -4.40 2.20 -4.40 1.10 0 1.35 -0.15 0.85 -0.45 -0.55 -0.35 -0.60 -1.25 -0.35 -4.35 0.20 -2.20 0.50 -4.45 0.65 -5.05 0.15 -0.70 0.05 -1.15 -0.30 -1.15 -0.30 0 -0.55 0.70 -0.55 1.50 0 1.40 -1.65 5.35 -2.45 6 -0.45 0.35 -1.55 4.80 -1.55 6.25 0 0.95 -0.25 1.25 -1.05 1.25 -0.95 0 -1 -0.20 -0.70 -2.60 0.65 -4.80 3.30 -10.25 9.60 -19.85 0.05 -0.10 2 0.45 4.35 1.15 5.85 1.90 5.80 1.75 5.45 11.60 -0.20 5.45 -0.50 8.25 -0.95 8.95 -0.40 0.55 -0.70 1.50 -0.70 2.10 0 0.90 -0.30 1.15 -1.25 1.15 -1 0 -1.25 -0.25 -1.35 -1.35 -0.10 -2.25 0.10 -3.35 0.65 -3.70 0.40 -0.20 0.45 -1.80 0.20 -4.90 l-0.35 -4.60 -1.25 1.15 c-1.20 1.10 -1.20 1.30 -1.05 7.20 l0.15 6.10 -1.85 0 c-1.70 0.05 -1.90 -0.10 -1.90 -1.20 0 -1.65 -0.90 -1.55 -1.15 0.20 -0.10 0.85 -0.20 0.55 -0.25 -0.90 -0.10 -3.10 0.75 -14.85 1.20 -17 0.20 -0.95 0.15 -1.60 -0.05 -1.40 -0.70 0.65 -1.70 7.45 -2.05 14.05 -0.30 5.60 -0.45 6.35 -1.25 6.35 -0.50 0 -1 -0.40 -1.10 -0.85 -0.20 -0.85 -0.25 -0.85 -0.30 0 0 0.45 -0.40 0.85 -0.80 0.85 -0.55 0 -0.75 -0.55 -0.75 -2.10z m7.95 -6.30 c-0.05 -2.95 -0.15 -4.95 -0.30 -4.45 -0.10 0.45 -0.55 0.85 -0.95 0.85 -0.50 0 -0.70 0.60 -0.70 2 0 1.10 0.25 2 0.50 2 0.30 0 0.50 1.25 0.50 2.80 0 1.70 0.20 2.65 0.50 2.45 0.30 -0.20 0.50 -2.55 0.45 -5.65z"/>
  <path d="M38.60 93.75 c-0.90 -2 -0.70 -2.15 0.65 -0.50 1.15 1.40 1.25 1.40 2.15 0.60 0.50 -0.45 1.15 -0.85 1.40 -0.85 0.85 0.05 -1.90 2 -2.80 2 -0.45 0 -1.10 -0.55 -1.40 -1.25z"/>
  <path d="M39.85 93.20 c-0.60 -0.60 -0.40 -2.75 0.50 -5.55 0.70 -2.15 1.05 -2.65 1.95 -2.65 1.55 0 1.85 0.65 1.45 3 -0.50 3 -2.90 6.20 -3.90 5.20z"/>
 </g>
 <g fill="#bf8141">
  <path d="M38.80 93.95 l-1.35 -2.70 1.50 1.70 c1.45 1.65 1.55 1.70 2.45 0.90 0.50 -0.45 1.15 -0.85 1.40 -0.85 0.25 0.05 0 0.40 -0.60 0.90 -0.55 0.45 -1.25 1.30 -1.55 1.80 -0.50 0.90 -0.70 0.70 -1.85 -1.75z"/>
  <path d="M46 93.40 c0 -0.35 0.25 -1 0.50 -1.40 0.40 -0.60 0.50 -0.55 0.50 0.35 0 0.60 -0.20 1.25 -0.50 1.40 -0.25 0.15 -0.50 0 -0.50 -0.35z"/>
  <path d="M32.65 16.50 c0 -1.25 0.10 -1.75 0.20 -1.10 0.10 0.60 0.10 1.60 0 2.25 -0.10 0.60 -0.20 0.10 -0.20 -1.15z"/>
 </g>
 <g fill="#7f8995">
  <path d="M79.20 96.40 c0.40 -4.05 1.70 -7.95 2.75 -8.30 0.55 -0.20 0.65 0.25 0.45 2.10 -0.25 1.95 -0.15 2.30 0.45 2.10 0.40 -0.15 0.90 -0.30 1.15 -0.30 0.25 0 0.60 -1.05 0.75 -2.35 0.15 -1.35 0.45 -3 0.55 -3.75 0.25 -1.15 0.10 -1.40 -0.75 -1.40 -0.60 0 -1.05 -0.15 -1.05 -0.35 0 -0.45 3.70 -6.50 4.90 -8 l0.85 -1.15 3.65 1.20 c2 0.65 4.10 1.60 4.60 2.10 1.10 1.10 1.50 2.85 0.75 3.20 -0.25 0.15 -0.55 -0.25 -0.65 -0.90 -0.20 -1.35 -1.65 -2.35 -4.35 -3.05 -1.10 -0.25 -2.50 -0.65 -3.10 -0.80 -0.95 -0.30 -1.15 -0.10 -1.60 1.60 -0.90 3.35 -2.05 12.40 -2.05 15.95 0 1.90 -0.15 3.95 -0.30 4.60 -0.55 1.95 -1.20 1.15 -1.25 -1.50 0 -1.95 -0.15 -2.40 -0.45 -1.65 -0.25 0.55 -0.45 1.75 -0.45 2.65 -0.05 1.60 -0.05 1.60 -2.60 1.60 l-2.60 0 0.35 -3.60z"/>
  <path d="M87.50 98.40 c0 -2.40 0.50 -3.90 1.30 -3.90 0.40 0 0.75 0.55 0.75 1.40 0.10 1.15 0.10 1.20 0.30 0.25 0.30 -1.60 1.95 -1.50 2.30 0.15 0.30 1.65 -1.50 3.70 -3.35 3.70 -1.15 0 -1.30 -0.20 -1.30 -1.60z"/>
  <path d="M5 98.55 c0 -4.10 2.95 -15 5 -18.25 0.55 -0.95 1 -1.85 1 -2.05 0 -0.90 -1.70 1.20 -3.60 4.40 -2.45 4.25 -3.95 7.90 -5.10 12.75 -0.65 2.45 -1.15 3.60 -1.65 3.60 -0.60 0 -0.70 -0.40 -0.45 -1.85 0.15 -1.05 0.50 -3.70 0.80 -5.85 0.50 -3.90 2.70 -8.95 4.80 -11 0.40 -0.45 0.65 -0.80 0.45 -0.80 -0.15 0 -0.05 -0.45 0.20 -0.95 0.35 -0.65 1.10 -0.95 2.15 -0.95 2.05 0 4.40 -0.90 5.15 -1.95 0.30 -0.45 0.85 -0.70 1.15 -0.60 0.30 0.10 -0.35 1.55 -1.60 3.45 -2.80 4.20 -4.05 7.75 -5.30 14.60 -0.55 3.05 -1 5.75 -1 6 0 0.20 -0.45 0.40 -1 0.40 -0.65 0 -1 -0.35 -1 -0.95z"/>
  <path d="M96.25 96 c-0.65 -1.05 -0.95 -14.85 -0.30 -14.25 0.65 0.65 1.70 13.80 1.10 14.40 -0.25 0.25 -0.60 0.20 -0.80 -0.15z"/>
  <path d="M88.20 88.15 c0.30 -4.80 0.95 -8.45 1.50 -9 0.15 -0.15 0.60 0 1.05 0.35 0.85 0.70 1 2.80 0.20 3.30 -0.40 0.20 -0.35 0.45 0.10 0.75 0.40 0.25 0.75 1.70 0.85 3.90 0.20 3.35 0.15 3.55 -0.85 3.55 -0.70 0 -1.05 0.30 -1.05 1 0 0.70 -0.35 1 -1.10 1 -1 0 -1.05 -0.10 -0.70 -4.85z"/>
  <path d="M41.50 85.50 c-0.60 -0.40 -0.55 -0.50 0.35 -0.50 0.60 0 1.25 0.25 1.40 0.50 0.40 0.65 -0.75 0.65 -1.75 0z"/>
 </g>
 <g fill="#aa8e68">
  <path d="M40.85 65.20 c-0.10 -0.10 -0.10 -0.85 0.05 -1.70 0.20 -1.45 0.25 -1.50 3.10 -1.50 2.70 0 2.90 0.10 3.10 1.25 0.25 1.25 -0.60 2.45 -1 1.35 -0.10 -0.40 -0.45 -0.40 -1.15 0.05 -0.80 0.50 -1.05 0.45 -1.45 -0.15 -0.25 -0.40 -0.50 -0.50 -0.50 -0.20 0 0.55 -1.75 1.30 -2.15 0.90z"/>
  <path d="M36.70 64.60 c-0.40 -0.25 -1.70 -3.20 -1.70 -3.85 0 -0.05 1.05 0.15 2.40 0.50 2.10 0.55 2.35 0.75 2.50 2.20 0.15 1.40 0.05 1.55 -1.25 1.55 -0.75 0 -1.65 -0.20 -1.95 -0.40z"/>
  <path d="M48 63.25 c0 -0.90 0.35 -1.40 1.30 -1.75 3.05 -1.15 3.80 0.25 1 1.95 -2.15 1.35 -2.30 1.30 -2.30 -0.20z"/>
  <path d="M33.70 63.40 c-0.55 -0.90 -1.10 -4.40 -0.70 -4.40 0.50 0 2 3.15 2 4.20 0 0.95 -0.80 1.05 -1.30 0.20z"/>
  <path d="M82.40 45 c0.75 -1.65 1.40 -2.80 1.50 -2.55 0.15 0.45 -2.25 5.55 -2.60 5.55 -0.15 0 0.40 -1.35 1.10 -3z"/>
  <path d="M54.25 46 c-0.15 -0.25 -0.05 -0.55 0.25 -0.75 0.25 -0.15 0.50 -0.75 0.50 -1.30 0 -1.25 1.10 -1.20 2.25 0.05 0.80 0.90 0.80 1 0.10 1 -0.50 0 -0.85 0.20 -0.85 0.45 0 0.60 -1.95 1.05 -2.25 0.55z"/>
  <path d="M49.75 45.30 c-1.05 -0.75 -0.60 -1.80 0.80 -1.80 0.60 0 0.95 0.35 0.95 0.95 0 1.35 -0.65 1.65 -1.75 0.85z"/>
  <path d="M32.65 41.65 c-0.90 -0.35 -0.80 -1.90 0.10 -2.65 1.15 -0.95 2.35 -0.20 2.15 1.35 -0.15 1.35 -1 1.85 -2.25 1.30z"/>
 </g>
 <g fill="#b6966f">
  <path d="M37.95 63.40 c-0.10 -1.55 -0.10 -1.55 -0.30 -0.25 -0.25 1.70 -1.05 1.75 -1.65 0.05 -0.90 -2.30 -0.70 -2.40 3.15 -1.35 1.30 0.35 1.20 3.15 -0.15 3.15 -0.80 0 -1 -0.35 -1.05 -1.60z"/>
  <path d="M42.15 64.65 c-0.80 -0.15 -1.15 -0.60 -1.15 -1.35 0 -1 0.25 -1.10 3 -1.15 l3 -0.10 0 1.45 c0 0.85 -0.20 1.50 -0.50 1.50 -0.25 0 -0.50 -0.45 -0.50 -0.95 0 -0.55 -0.20 -1.15 -0.50 -1.30 -0.30 -0.20 -0.50 0.25 -0.50 0.95 0 1.35 -0.35 1.45 -2.85 0.95z"/>
  <path d="M48 63.10 c0 -1.35 0.20 -1.50 1.90 -1.70 1 -0.15 1.95 -0.20 2.05 -0.10 0.35 0.30 -0.80 1.40 -2.40 2.35 l-1.55 0.90 0 -1.45z"/>
  <path d="M33.45 62.65 c-0.25 -0.75 -0.40 -1.80 -0.30 -2.35 0.15 -0.85 0.30 -0.70 1 0.80 1 2.15 1.05 2.90 0.35 2.90 -0.30 0 -0.75 -0.60 -1.05 -1.35z"/>
  <path d="M54.60 45 c0.35 -0.55 0.80 -1 1 -1 0.25 0 0.40 0.45 0.40 1 0 0.65 -0.35 1 -1 1 -0.90 0 -0.95 -0.10 -0.40 -1z"/>
  <path d="M36.50 42.50 c0.95 -0.65 1.50 -0.65 1.50 0 0 0.30 -0.50 0.50 -1.10 0.50 -0.95 0 -1 -0.10 -0.40 -0.50z"/>
 </g>
 <g fill="#909ba6">
  <path d="M5.30 97.15 c0.60 -5.80 4.10 -17.15 5.25 -17.15 0.65 0 0.60 0.20 -1 5.75 -0.80 2.75 -1.75 7.10 -2.10 9.65 -0.55 3.85 -0.80 4.60 -1.55 4.60 -0.80 0 -0.90 -0.30 -0.60 -2.85z"/>
  <path d="M81.80 99.20 c-0.15 -0.45 -0.30 -1.80 -0.30 -3.05 0 -2.05 -0.05 -2.15 -0.80 -1.40 -0.45 0.45 -0.90 0.75 -0.95 0.65 -0.10 -0.10 0.05 -1.30 0.30 -2.65 0.70 -3.90 7.30 -16.40 7.80 -14.85 0.15 0.30 -0.25 3.85 -0.80 7.80 -0.60 3.95 -1.05 8.80 -1.05 10.75 0 2.30 -0.20 3.55 -0.55 3.55 -0.40 0 -0.50 -1 -0.30 -3.25 0.30 -3.90 -0.70 -4.35 -1.25 -0.55 -0.40 2.90 -0.70 3.80 -1.35 3.80 -0.25 0 -0.60 -0.35 -0.75 -0.80z"/>
  <path d="M88.20 92.30 c0.20 -4.20 0.65 -8.85 0.95 -10.35 0.60 -2.50 0.65 -2.60 1.50 -1.75 0.60 0.65 0.85 1.75 0.90 4.20 0.05 1.85 0.15 5.45 0.25 8 0.15 5 -0.05 6.10 -1.10 6.10 -0.40 0 -0.70 0.35 -0.70 0.75 0 0.45 -0.45 0.75 -1.05 0.75 -1.10 0 -1.10 -0.05 -0.75 -7.70z"/>
  <path d="M0.20 97.65 c0.20 -0.80 0.65 -3.55 1 -6.15 0.55 -4.20 0.95 -5.25 3.10 -9 2.70 -4.70 3.15 -5.20 4.05 -4.45 0.35 0.30 0.90 0.35 1.25 0.15 0.30 -0.20 0.15 0.30 -0.40 1.10 -3.15 4.55 -6.60 12.50 -7.45 17.30 -0.20 1 -0.70 1.95 -1.10 2.10 -0.60 0.25 -0.70 0.05 -0.45 -1.05z"/>
  <path d="M96.30 95.15 c-0.50 -1.70 -0.85 -12.45 -0.35 -11.35 0.50 1.15 1.35 12.20 0.90 12.20 -0.15 0 -0.40 -0.40 -0.55 -0.85z"/>
  <path d="M97 78.75 c-0.65 -0.70 -0.95 -1.25 -0.65 -1.25 0.60 0 2.40 1.90 2.05 2.25 -0.10 0.15 -0.75 -0.30 -1.40 -1z"/>
 </g>
 <g fill="#c5ab88">
  <path d="M38.30 63.35 c-0.35 -1.75 -0.25 -2 0.90 -1.55 1 0.40 1.10 3.05 0.10 3.05 -0.40 0 -0.85 -0.70 -1 -1.50z"/>
  <path d="M41 63.80 c0 -1.15 0.15 -1.25 1.90 -1.10 1.40 0.15 1.85 0.40 1.85 1.10 0 0.75 -0.45 1 -1.85 1.10 -1.75 0.15 -1.90 0.05 -1.90 -1.10z"/>
  <path d="M36.35 64.15 c-0.55 -1 -0.80 -3.15 -0.40 -3.15 0.60 0 0.80 0.40 1.25 2.15 0.30 1.20 -0.30 1.95 -0.85 1z"/>
  <path d="M45.90 63.25 c-0.20 -0.85 -0.05 -1.25 0.40 -1.25 0.40 0 0.70 0.55 0.70 1.25 0 0.70 -0.20 1.25 -0.45 1.25 -0.25 0 -0.55 -0.55 -0.65 -1.25z"/>
  <path d="M48 63 c0 -1.25 0.20 -1.55 0.85 -1.40 1.30 0.25 1.40 1.75 0.20 2.40 -0.95 0.50 -1.05 0.40 -1.05 -1z"/>
  <path d="M34.15 63.40 c-0.30 -0.35 -0.65 -1.45 -0.85 -2.40 l-0.30 -1.75 1.05 2.15 c1 2.15 1.05 3.20 0.10 2z"/>
  <path d="M50.60 62.05 c0.20 -0.65 0.90 -0.80 0.95 -0.20 0 0.20 -0.25 0.45 -0.55 0.60 -0.35 0.10 -0.55 -0.10 -0.40 -0.40z"/>
  <path d="M55.70 45.60 c-0.90 -0.30 -1 -0.55 -0.65 -1.50 0.45 -1.20 0.90 -1.15 2.60 0.30 1.65 1.45 0.70 2 -1.95 1.20z"/>
  <path d="M36.75 42.50 c0.15 -0.25 0.65 -0.50 1.05 -0.50 0.40 0 0.70 0.25 0.70 0.50 0 0.30 -0.45 0.50 -1.05 0.50 -0.55 0 -0.85 -0.20 -0.70 -0.50z"/>
 </g>
 <g fill="#b8ac98">
  <path d="M48.45 44.55 l-1.20 -0.95 1.40 -0.55 c2.30 -0.90 2.95 -0.70 2.75 0.80 -0.20 1.75 -1.35 2 -2.95 0.70z"/>
  <path d="M55 44.90 c0.05 -1.75 0.85 -2 2.30 -0.70 l1.45 1.25 -1.85 0.05 c-1.20 0 -1.90 -0.25 -1.90 -0.60z"/>
  <path d="M32.85 41.65 c-0.80 -0.75 -0.25 -1.65 0.95 -1.65 1 0 1.25 0.20 1 0.80 -0.15 0.45 -0.30 0.90 -0.30 1 0 0.35 -1.30 0.25 -1.65 -0.15z"/>
 </g>
 <g fill="#ceb89c">
  <path d="M39.20 64.35 c-1.10 -1.30 -1.20 -2.35 -0.20 -2.35 0.80 0 1 0.35 1 1.50 0 1.65 -0.05 1.70 -0.80 0.85z"/>
  <path d="M41 64.20 c0 -0.85 1.10 -0.70 1.40 0.20 0.10 0.35 -0.15 0.60 -0.60 0.60 -0.45 0 -0.80 -0.35 -0.80 -0.80z"/>
  <path d="M46 63.25 c0 -0.70 0.25 -1.25 0.50 -1.25 0.30 0 0.50 0.55 0.50 1.25 0 0.70 -0.20 1.25 -0.50 1.25 -0.25 0 -0.50 -0.55 -0.50 -1.25z"/>
  <path d="M48 63 c0 -0.55 0.25 -1 0.50 -1 0.30 0 0.50 0.45 0.50 1 0 0.55 -0.20 1 -0.50 1 -0.25 0 -0.50 -0.45 -0.50 -1z"/>
  <path d="M54.50 45.75 c0 -0.10 0.25 -0.75 0.55 -1.45 l0.60 -1.25 1.45 1 c0.75 0.55 1.30 1.25 1.15 1.50 -0.30 0.45 -3.75 0.65 -3.75 0.20z"/>
  <path d="M32.15 40.70 c-0.40 -1.05 0.95 -2.30 2 -1.90 1.05 0.40 1.10 1.05 0.15 2 -0.95 0.90 -1.75 0.90 -2.15 -0.10z"/>
 </g>
 <g fill="#dbcbaf">
  <path d="M38.50 63.50 c0 -1 0.25 -1.50 0.75 -1.50 0.50 0 0.75 0.50 0.75 1.50 0 1 -0.25 1.50 -0.75 1.50 -0.50 0 -0.75 -0.50 -0.75 -1.50z"/>
  <path d="M55.10 44.75 c0.65 -1.45 0.80 -1.50 2.35 -0.45 1.35 0.95 0.70 1.70 -1.55 1.70 -1.30 0 -1.35 -0.10 -0.80 -1.25z"/>
  <path d="M48.80 44.75 c-1.15 -0.85 -0.70 -1.50 1.35 -2 1.40 -0.35 1.70 0.20 1.05 1.95 -0.40 1 -1.15 1 -2.40 0.05z"/>
  <path d="M32.55 41.30 c-0.85 -1 -0.15 -2.30 1.25 -2.30 1.30 0 1.65 1.35 0.60 2.40 -0.75 0.75 -1.15 0.75 -1.85 -0.10z"/>
 </g>
 <g fill="#f4f0de">
  <path d="M55 45.45 c0 -0.15 0.35 -0.60 0.80 -0.95 0.60 -0.55 0.90 -0.55 1.50 0.10 0.70 0.70 0.65 0.80 -0.75 1 -0.85 0.10 -1.55 0.05 -1.55 -0.15z"/>
  <path d="M48.95 44.55 l-1.20 -0.95 1.45 -0.60 c1.75 -0.65 2.55 -0.05 2.05 1.45 -0.40 1.30 -0.80 1.30 -2.30 0.10z"/>
  <path d="M33.15 41.65 c-0.35 -0.15 -0.65 -0.80 -0.65 -1.45 0 -0.85 0.25 -1.20 1 -1.20 0.55 0 1.15 0.35 1.35 0.80 0.35 0.90 -0.80 2.20 -1.70 1.85z"/>
 </g>
</svg>