<?xml version="1.0" encoding="utf-8"?>
<!DOCTYPE svg PUBLIC "-//W3C//DTD SVG 1.0//EN" "http://www.w3.org/TR/2001/REC-SVG-20010904/DTD/svg10.dtd">
<svg version="1.0" xmlns="http://www.w3.org/2000/svg" width="100px" height="100px" viewBox="0 0 100 100" preserveAspectRatio="xMidYMid meet">
 <g fill="#0f0707">
  <path d="M36.15 97.75 c0.20 -1.35 0.15 -2.25 -0.15 -2.25 -0.30 0 -0.50 -0.80 -0.50 -1.75 0 -1.60 0.10 -1.75 1.55 -1.75 0.85 0 1.85 0.35 2.30 0.75 0.65 0.70 0.90 0.65 2.15 -0.25 0.75 -0.55 2 -1 2.70 -1 1.05 0 1.30 -0.25 1.30 -1.25 0 -1.10 0.20 -1.25 1.65 -1.25 2.20 0 2.85 0.75 2.85 3.25 0 2.45 -0.65 3.25 -2.75 3.25 -0.95 0 -1.95 0.40 -2.50 1 -0.50 0.55 -1.30 1.10 -1.80 1.25 -0.55 0.20 -0.95 0.75 -0.95 1.30 0 0.85 -0.35 0.95 -3.05 0.95 l-3.10 0 0.30 -2.25z"/>
  <path d="M74.50 98.50 c0 -1.40 0.15 -1.50 1.75 -1.50 1.60 0 1.75 0.10 1.75 1.50 0 1.40 -0.15 1.50 -1.75 1.50 -1.60 0 -1.75 -0.10 -1.75 -1.50z"/>
  <path d="M75.50 95.55 c0 -0.50 0.15 -1.95 0.30 -3.25 0.30 -2.15 0.45 -2.30 1.80 -2.30 2 0 2.90 1.05 2.90 3.45 0 1.50 -0.20 2.05 -0.75 2.05 -0.40 0 -0.75 0.25 -0.75 0.50 0 0.30 -0.80 0.50 -1.75 0.50 -1.35 0 -1.75 -0.20 -1.75 -0.95z"/>
  <path d="M8.50 92.50 c0 -1.35 0.25 -2.50 0.50 -2.50 0.30 0 0.50 -0.80 0.50 -1.75 0 -0.95 0.25 -1.75 0.50 -1.75 0.30 0 0.50 -0.45 0.50 -1 0 -0.55 0.25 -1 0.50 -1 0.30 0 0.50 -0.45 0.50 -1 0 -0.55 0.25 -1 0.50 -1 0.30 0 0.50 -0.55 0.50 -1.25 0 -0.70 0.25 -1.25 0.50 -1.25 0.30 0 0.50 -0.45 0.50 -0.95 0 -0.85 -0.20 -0.95 -1.60 -0.50 -0.90 0.25 -2.20 0.45 -2.90 0.45 -1.05 0 -1.45 0.35 -1.95 1.75 -0.35 0.95 -0.90 2 -1.20 2.35 -0.35 0.35 -1.25 2.05 -2.10 3.75 -1.20 2.45 -1.75 3.15 -2.60 3.15 -0.80 0 -1.15 -0.30 -1.15 -1 0 -0.55 0.25 -1 0.50 -1 0.30 0 0.50 -0.25 0.50 -0.50 0 -0.60 4.35 -8.35 5.40 -9.60 0.45 -0.50 1.40 -0.90 2.15 -0.90 1.65 0 3.75 -0.75 4.70 -1.70 0.35 -0.35 3 -1.45 5.85 -2.45 2.85 -0.95 6.45 -2.25 8 -2.85 2.80 -1.05 2.80 -1.05 2.35 -2.65 -0.70 -2.45 -0.55 -3.35 0.50 -3.35 0.95 0 1.55 1.95 1.55 5.30 0 1.35 -0.25 1.60 -2.60 2.40 -8.45 2.90 -9.40 3.35 -9.40 4.55 0 0.65 -0.55 1.60 -1.25 2.15 -0.70 0.55 -1.25 1.35 -1.25 1.80 0 0.45 -0.20 0.80 -0.50 0.80 -0.25 0 -0.50 0.70 -0.50 1.50 0 0.85 -0.20 1.50 -0.50 1.50 -0.25 0 -0.50 0.45 -0.50 1 0 0.55 -0.20 1 -0.50 1 -0.25 0 -0.50 0.45 -0.50 1 0 0.55 -0.20 1 -0.50 1 -0.25 0 -0.50 0.70 -0.50 1.50 0 0.85 -0.20 1.50 -0.50 1.50 -0.25 0 -0.50 0.90 -0.50 2 0 1.95 -0.05 2 -1.75 2 l-1.75 0 0 -2.50z"/>
  <path d="M78 86.90 c0 -1.45 3.65 -8.40 4.60 -8.80 0.25 -0.10 0.40 -0.85 0.40 -1.65 0 -0.85 0.30 -1.60 0.75 -1.75 1.35 -0.55 0.80 -1.20 -1 -1.20 -1.20 0 -1.75 -0.25 -1.75 -0.75 0 -0.80 0.10 -0.85 3.50 -0.95 1.95 -0.05 2.25 0.10 2.50 1.20 0.20 0.85 0.70 1.30 1.50 1.40 0.70 0.10 3 0.75 5.15 1.45 2.95 1 4.20 1.70 5.15 2.90 1.50 2 1.50 2.75 0.05 2.75 -0.75 0 -1.45 -0.45 -1.85 -1.25 -0.45 -0.90 -1.65 -1.55 -4.45 -2.50 -4.75 -1.55 -5.35 -1.55 -5.75 0 -0.20 0.70 -0.55 1.25 -0.80 1.25 -0.30 0 -0.50 0.40 -0.50 0.95 0 1.25 -2.35 6.55 -2.95 6.55 -0.25 0 -0.55 0.45 -0.70 1 -0.20 0.75 -0.70 1 -2.05 1 -1.70 0 -1.80 -0.10 -1.80 -1.60z"/>
  <path d="M53 86.25 c0 -1.40 0.20 -1.80 1.20 -2.05 0.65 -0.15 1.30 -0.70 1.45 -1.25 0.20 -0.70 0.70 -0.95 2.05 -0.95 1.65 0 1.80 0.15 1.80 1.40 0 3.25 -1.45 4.60 -4.85 4.60 -1.55 0 -1.65 -0.10 -1.65 -1.75z"/>
  <path d="M34 81.75 c0 -2.25 0 -2.25 1.75 -2.25 1.75 0 1.75 0 1.75 2.25 0 2.25 0 2.25 -1.75 2.25 -1.75 0 -1.75 0 -1.75 -2.25z"/>
  <path d="M51 79.80 c0 -1.55 0.20 -1.75 2.40 -2.55 1.30 -0.45 3.95 -1.75 5.95 -2.80 2 -1.10 3.95 -1.95 4.40 -1.95 0.40 0 0.75 -0.25 0.75 -0.50 0 -0.90 2.15 -3.50 2.85 -3.50 0.45 0 0.65 -0.75 0.65 -2.35 0 -4.05 0.55 -6.15 1.50 -6.15 0.45 0 2.10 -1.35 3.65 -2.95 2.75 -2.90 2.85 -3.05 2.85 -5.75 0 -1.55 -0.20 -2.80 -0.45 -2.80 -0.60 0 -3.55 3.40 -3.55 4.10 0 0.95 -1.70 1.85 -3.60 1.90 -1.65 0 -1.90 -0.15 -1.90 -1.20 0 -0.65 0.90 -3.90 2 -7.20 1.25 -3.75 2.05 -7 2.05 -8.70 0.05 -2.45 -0.15 -3.10 -1.95 -5.70 -1.10 -1.65 -3 -3.90 -4.20 -5.05 -2.90 -2.85 -9.90 -6.05 -15.05 -6.95 -3.55 -0.65 -4.35 -0.60 -6.90 0.10 -4.10 1.15 -7.75 4.25 -8.10 6.95 -0.15 1.10 -0.45 2.75 -0.60 3.65 -0.35 1.45 -0.25 1.60 0.90 1.60 1.75 0 3.90 0.85 5.25 2.10 0.85 0.85 1.10 1.65 1.10 3.50 0 2.05 -0.15 2.40 -1 2.40 -0.65 0 -1 0.35 -1 0.95 0 2.15 -0.50 2.55 -3.10 2.55 l-2.55 0 0.35 -3.35 c0.40 -4.05 -0.05 -3.95 -0.70 0.15 -0.25 1.60 -0.70 3 -1 3.10 -0.25 0.10 -0.50 0.50 -0.50 0.85 0 0.35 -0.70 1.25 -1.55 2 -1.35 1.10 -1.55 1.60 -1.55 3.45 0.05 1.20 0.50 3.85 1.10 5.85 1.20 4.45 1.35 7.45 0.25 7.45 -0.40 0 -0.75 -0.10 -0.75 -0.20 0 -0.15 -0.35 -1.90 -0.80 -3.90 -0.45 -2 -1.10 -5.10 -1.50 -6.85 -0.80 -3.65 -0.25 -5.65 2.30 -8.30 2.05 -2.10 2.50 -3.70 2.50 -8.65 0 -2.40 0.25 -5.25 0.50 -6.30 0.25 -1.15 0.25 -4.05 0.05 -6.75 -0.25 -2.90 -0.20 -6.20 0.10 -8.45 0.45 -3.40 0.65 -3.80 2.55 -5.40 1.10 -0.95 3.20 -2.30 4.60 -2.95 3.60 -1.70 11.30 -4.25 12.90 -4.25 0.70 0 1.30 -0.20 1.30 -0.50 0 -0.30 1.90 -0.50 4.75 -0.50 2.60 0 4.75 0.20 4.75 0.40 0 0.20 1.05 0.65 2.40 1 7 1.85 9.65 3.20 13.35 6.85 5.95 5.85 7.90 10.85 7.95 20.50 0.05 5.10 -0.15 6.75 -1.30 10.85 -1.50 5.40 -2.30 7.15 -5.85 12.80 -3 4.70 -5.75 7.95 -7.90 9.25 -1.55 0.90 -1.65 1.15 -1.65 3.65 l0 2.75 4.10 1.95 c2.25 1.10 4.40 2 4.75 2 0.35 0 0.65 0.35 0.65 0.75 0 1.05 -2.75 0.95 -5.25 -0.15 l-1.95 -0.90 -1.40 2.90 c-1.25 2.70 -1.45 2.90 -3.10 2.90 -1.20 0 -1.80 -0.25 -1.90 -0.80 -0.10 -0.65 -0.50 -0.50 -2.05 0.70 -1.05 0.85 -2.55 1.65 -3.35 1.85 -0.75 0.15 -2.25 0.75 -3.30 1.30 -1.05 0.50 -2.90 0.95 -4.05 0.95 -2.10 0 -2.15 -0.05 -2.15 -1.70z m23.70 -52.60 c0.15 -0.45 0.30 -1.20 0.30 -1.70 0 -1.60 -6.50 -7.70 -12 -11.30 -2.90 -1.90 -5.45 -3.70 -5.75 -4 -1.35 -1.60 -11.75 -1.95 -11.75 -0.40 0 0.80 -3.80 1 -4.10 0.20 -0.10 -0.30 -1.20 -0.15 -2.75 0.35 -2.55 0.80 -2.65 0.90 -2.65 2.70 0 1.80 0.05 1.85 1.40 1.45 5.75 -1.75 12.20 -2 17.75 -0.65 2.85 0.70 3.65 1.10 4.30 2.20 0.65 1.20 6.30 4.95 7.40 4.95 0.20 0 1.85 1.60 3.65 3.50 1.80 1.90 3.40 3.45 3.55 3.50 0.20 0 0.50 -0.35 0.65 -0.80z"/>
  <path d="M32.65 78.15 c-0.35 -0.10 -0.65 -1 -0.65 -1.95 0 -1.75 0 -1.75 2.15 -1.60 2.05 0.15 2.10 0.20 2.25 2.05 0.15 1.80 0.10 1.85 -1.50 1.80 -0.90 0 -1.95 -0.15 -2.25 -0.30z"/>
  <path d="M50.10 63.15 c0.15 -1.80 0.25 -1.90 2.05 -2.05 l1.90 -0.15 -0.15 1.90 c-0.15 1.80 -0.25 1.90 -2.05 2.05 l-1.90 0.15 0.15 -1.90z"/>
  <path d="M50.40 45.15 c-0.10 -1.10 -0.45 -1.45 -1.50 -1.55 -1 -0.10 -1.40 -0.45 -1.40 -1.15 0 -0.65 -0.35 -0.95 -1.05 -0.95 -0.90 0 -1 -0.25 -0.85 -2.10 l0.15 -2.15 3.25 -1.10 c3.45 -1.20 7.60 -1.45 9.70 -0.65 1.10 0.40 1.30 0.80 1.30 2.55 l0 2.10 -2.60 -0.25 c-1.45 -0.15 -2.25 -0.15 -1.75 -0.05 0.95 0.25 1.20 2.55 0.40 4.05 -0.25 0.45 -0.60 1.25 -0.75 1.75 -0.20 0.65 -0.80 0.85 -2.50 0.85 -2.05 0 -2.25 -0.10 -2.40 -1.35z"/>
 </g>
 <g fill="#1e1010">
  <path d="M31.50 98.25 c0 -1.70 0.05 -1.75 2 -1.75 1.10 0 2 0.25 2 0.50 0 0.30 0.25 0.50 0.50 0.50 0.30 0 -0.05 -0.85 -0.75 -1.90 -0.80 -1.25 -1.35 -2.95 -1.55 -5 l-0.35 -3.10 1.85 0 c1.15 0 1.95 0.25 2.10 0.75 0.20 0.45 0.95 0.75 1.80 0.75 1.40 0 1.45 0.10 1.40 2.15 -0.15 2.95 -0.05 3.35 0.50 3.35 0.30 0 0.50 -0.55 0.50 -1.25 0 -0.80 0.30 -1.25 0.75 -1.25 0.45 0 0.90 -0.35 1.05 -0.75 0.20 -0.40 0.60 -0.75 1 -0.75 0.40 0 0.70 -0.45 0.70 -1 0 -0.80 0.35 -1 1.65 -1 2.55 0 3.85 1.20 3.85 3.55 0 1.40 -0.20 1.95 -0.75 1.95 -0.40 0 -0.75 0.25 -0.75 0.50 0 0.30 -0.70 0.50 -1.50 0.50 -0.90 0 -1.65 0.30 -1.80 0.75 -0.20 0.40 -0.75 0.75 -1.25 0.75 -0.50 0 -0.95 0.35 -0.95 0.75 0 0.40 -0.20 0.75 -0.50 0.75 -0.25 0 -0.50 0.45 -0.50 1 0 0.85 -0.35 1 -2 1 -1.45 0 -2 -0.20 -2 -0.75 0 -0.40 0.45 -0.75 1 -0.75 1.10 0 1.25 -0.35 0.55 -1.45 -0.30 -0.50 -0.75 -0.25 -1.85 1.15 -1.35 1.65 -1.65 1.80 -4.05 1.80 l-2.65 0 0 -1.75z m12.45 -4.30 l0.80 -1.20 -1.75 1.30 c-2 1.55 -2.90 3.15 -1 1.90 0.65 -0.40 1.55 -1.30 1.95 -2z m4.55 -1.70 c0 -0.35 -0.40 -0.95 -0.85 -1.30 -0.80 -0.65 -0.85 -0.60 -0.25 0.15 0.55 0.65 0.55 1.05 0.05 2 -0.55 1.05 -0.55 1.10 0.20 0.45 0.50 -0.35 0.85 -0.95 0.85 -1.30z"/>
  <path d="M74 99.30 c0 -1.30 2.35 -10.05 3.10 -11.55 0.40 -0.80 0.90 -2.10 1.10 -2.90 0.20 -0.75 0.70 -1.75 1.20 -2.25 0.75 -0.80 2.50 -4.25 4.20 -8.50 0.70 -1.70 2.15 -2.55 3.05 -1.65 0.35 0.35 0.30 0.75 -0.15 1.30 -0.50 0.65 -0.45 0.75 0.35 0.75 0.80 0 0.95 0.25 0.80 1.25 -0.15 0.65 -0.55 1.50 -0.95 1.80 -0.40 0.30 -0.70 0.90 -0.70 1.30 0 0.80 -1.95 4.75 -2.50 5.15 -0.20 0.15 -0.55 1.50 -0.75 3 -0.20 1.50 -0.90 3.90 -1.50 5.25 -0.65 1.40 -1.30 3.05 -1.50 3.75 -0.80 2.90 -1.50 4 -2.60 4 -0.85 0 -1.05 -0.20 -0.85 -0.85 0.25 -0.85 0.25 -0.85 -0.30 0 -0.65 1 -2 1.15 -2 0.15z m8 -15.35 c0.85 -1.50 0.30 -1.70 -0.70 -0.20 -0.45 0.70 -0.60 1.25 -0.35 1.25 0.30 0 0.75 -0.45 1.05 -1.05z"/>
  <path d="M8.25 94.15 c0.55 -6.25 3.15 -15.45 4.60 -16.30 0.40 -0.25 0.90 -1 1.15 -1.65 0.25 -0.65 1.10 -1.45 1.85 -1.75 0.80 -0.30 2.80 -1.10 4.55 -1.75 l3.10 -1.20 0 1.25 c0 1 -0.30 1.25 -1.75 1.55 -1.15 0.20 -1.75 0.60 -1.80 1.15 0 0.45 -0.45 1.50 -1 2.30 -3.05 4.85 -6.60 13.55 -7.20 17.90 -0.35 2.30 -0.40 2.35 -2.10 2.35 l-1.75 0 0.35 -3.85z"/>
  <path d="M52.50 86.90 c0 -1.15 0.50 -2 1.90 -3.35 1.05 -1 2.35 -2.05 2.85 -2.40 0.60 -0.35 0.05 -0.30 -1.25 0.15 -1.25 0.40 -3.65 0.90 -5.35 1.05 l-3.15 0.30 0 -1.70 c0.05 -1.70 0.05 -1.70 5.40 -3.85 2.95 -1.20 6.05 -2.45 6.90 -2.75 0.85 -0.35 1.95 -1 2.40 -1.50 0.50 -0.45 1.40 -1 2.10 -1.15 0.75 -0.20 1.20 -0.65 1.20 -1.25 0 -0.50 0.25 -0.95 0.50 -0.95 0.30 0 0.80 -0.55 1.10 -1.25 0.60 -1.30 2.40 -1.75 2.40 -0.60 0 0.35 0.70 0.90 1.50 1.20 1.15 0.45 1.50 0.90 1.50 1.85 0 2.50 -2.75 6.90 -6.40 10.30 -6.45 5.95 -8.90 7.50 -11.85 7.50 -1.65 0 -1.75 -0.10 -1.75 -1.60z m2.85 -7.65 c1 -0.40 1.70 -0.90 1.55 -1 -0.15 -0.15 -1.25 0.15 -2.45 0.70 -2.60 1.15 -1.75 1.40 0.90 0.30z m4.80 -1.95 c0.90 -0.40 2.30 -1.35 3.10 -2.05 1.30 -1.15 1 -1.10 -2 0.55 -1.90 1 -3.60 1.95 -3.70 2.05 -0.60 0.45 1.20 0.05 2.60 -0.55z m7.90 -6.40 c0.75 -1.40 0.25 -1.05 -1.05 0.75 -0.75 1 -0.85 1.35 -0.30 0.90 0.45 -0.40 1.10 -1.15 1.35 -1.65z"/>
  <path d="M35.15 84.65 c-0.35 -0.10 -0.65 -0.55 -0.65 -0.95 0 -0.40 -0.20 -0.70 -0.45 -0.70 -0.25 0 -0.60 -1 -0.75 -2.20 -0.35 -2.20 -1.65 -4.30 -2.75 -4.30 -0.30 0 -0.55 -0.85 -0.55 -2 0 -1.95 0.05 -2 1.75 -2 1.15 0 1.75 0.25 1.75 0.70 0 0.35 0.75 0.85 1.65 1.10 1.10 0.35 1.65 0.85 1.75 1.60 0.15 0.85 0.50 1.10 1.65 1.10 1.35 0 1.45 0.15 1.45 1.75 0 1.45 -0.20 1.75 -1.10 1.75 -0.85 0 -0.95 0.15 -0.50 0.60 0.35 0.35 0.60 1.35 0.60 2.25 0 1.55 -0.10 1.65 -1.60 1.60 -0.90 0 -1.95 -0.15 -2.25 -0.30z"/>
  <path d="M40.50 76.90 c0 -1.60 0.15 -1.80 1.90 -2.30 2.45 -0.75 7.10 -3.75 10.40 -6.75 1.90 -1.75 3 -2.35 4.15 -2.35 1.45 0 1.55 0.10 1.55 1.95 0 1.80 -0.25 2.10 -3.85 5 -4.75 3.75 -8.10 5.50 -11.55 5.90 l-2.60 0.30 0 -1.75z"/>
  <path d="M75.50 72.30 c0 -1.15 0.10 -1.20 1.75 -0.65 0.95 0.30 1.75 0.80 1.75 1.20 0 0.40 -0.65 0.65 -1.75 0.65 -1.50 0 -1.75 -0.15 -1.75 -1.20z"/>
  <path d="M26 71.35 c0 -0.40 0.90 -1 2.05 -1.35 1.65 -0.55 1.95 -0.85 1.75 -1.70 -0.95 -4.05 -0.95 -4.80 0.10 -4.80 0.85 0 1.10 0.45 1.40 2.85 0.25 2 0.15 2.90 -0.25 3.05 -0.30 0.10 -0.55 0.60 -0.55 1.10 0 1.05 -0.95 1.50 -3.05 1.50 -0.90 0 -1.45 -0.25 -1.45 -0.65z"/>
  <path d="M49.50 64 c0 -1.10 0.25 -2 0.50 -2 0.30 0 0.50 -0.80 0.50 -1.75 0 -1.70 0.05 -1.75 2 -1.75 l2 0 0 2.65 c0 3.40 -0.95 4.85 -3.30 4.85 -1.65 0 -1.70 -0.05 -1.70 -2z"/>
  <path d="M68 63.50 c0 -1.65 0.15 -2 1 -2 1.05 0 1.25 0.80 0.70 2.90 -0.55 1.95 -1.70 1.35 -1.70 -0.90z"/>
  <path d="M33.65 61.50 c-0.90 -0.35 -1.15 -0.85 -1.15 -2.25 0 -1.55 0.15 -1.75 1.35 -1.75 0.75 0 2.10 0.25 3 0.60 1.40 0.50 1.65 0.85 1.65 2.25 0 1.60 -0.10 1.65 -1.85 1.60 -1.05 0 -2.40 -0.20 -3 -0.45z"/>
  <path d="M28.80 60.40 c-0.50 -1.90 -0.35 -2.40 0.70 -2.40 0.80 0 1 0.35 1 1.75 0 2 -1.20 2.45 -1.70 0.65z"/>
  <path d="M36.50 55.50 c0 -1.95 0.05 -2 1.75 -2 1.70 0 1.75 0.05 1.75 2 0 1.95 -0.05 2 -1.75 2 -1.70 0 -1.75 -0.05 -1.75 -2z"/>
  <path d="M75.65 53.30 c0.15 -2.10 0.10 -3.80 -0.05 -3.80 -0.60 0.05 -2.10 1.35 -2.10 1.85 0 1.05 -2.65 3.15 -4.05 3.15 -2.35 0 -2.95 -0.45 -2.95 -2.30 0 -0.95 0.25 -1.70 0.50 -1.70 0.30 0 0.50 -0.35 0.50 -0.80 0 -0.45 0.25 -1.70 0.60 -2.75 0.45 -1.55 0.80 -1.95 1.70 -1.95 l1.15 0 -1.40 4 c-0.75 2.20 -1.20 4 -0.95 4 0.25 0 0.55 -0.35 0.70 -0.75 0.20 -0.40 0.55 -0.60 0.85 -0.40 0.30 0.15 0.35 0.05 0.15 -0.25 -0.20 -0.30 1 -1.95 2.70 -3.70 1.65 -1.75 3 -3.35 3 -3.55 0 -0.25 0.30 -0.35 0.65 -0.20 0.30 0.10 1.15 -0.20 1.80 -0.75 0.65 -0.50 1.30 -0.80 1.45 -0.65 0.15 0.15 -0.10 0.55 -0.60 0.90 -0.55 0.40 -1 1.85 -1.35 4.25 -0.65 4.75 -0.35 5.45 1.05 2.35 0.60 -1.35 1.45 -3.25 1.85 -4.20 0.85 -1.85 3.95 -10.75 4.75 -13.65 0.55 -2 1.40 -2.55 1.40 -0.90 0 1.75 -2.05 9.65 -3.35 12.85 -1.35 3.40 -6.85 12.30 -7.75 12.60 -0.40 0.15 -0.45 -0.95 -0.25 -3.65z"/>
  <path d="M27.30 54.90 c-0.50 -1.90 -0.35 -2.40 0.70 -2.40 0.80 0 1 0.35 1 1.75 0 2 -1.20 2.45 -1.70 0.65z"/>
  <path d="M43.50 54.25 l0 -1.75 3 0 3 0 0 1.75 0 1.75 -3 0 -3 0 0 -1.75z"/>
  <path d="M32 50.25 c0 -1.65 0.10 -1.75 1.75 -1.75 1.65 0 1.75 0.10 1.75 1.75 0 1.65 -0.10 1.75 -1.75 1.75 -1.65 0 -1.75 -0.10 -1.75 -1.75z"/>
  <path d="M26.85 47.05 c0.15 -0.55 0.70 -1.35 1.20 -1.85 0.90 -0.85 0.95 -0.80 0.95 0.95 0 1.60 -0.15 1.85 -1.20 1.85 -0.95 0 -1.15 -0.20 -0.95 -0.95z"/>
  <path d="M50.25 46.40 c-0.10 -0.35 -0.25 -1.10 -0.35 -1.60 -0.15 -0.90 -0.20 -0.95 -1 -0.15 -0.45 0.45 -1.50 0.85 -2.35 0.85 l-1.55 0 0 -3.75 c0 -3 0.15 -3.75 0.75 -3.75 0.40 0 0.75 -0.30 0.75 -0.70 0 -0.95 5.20 -2.30 8.90 -2.30 2.40 0 3.10 0.15 3.10 0.75 0 0.40 0.25 0.75 0.50 0.75 0.30 0 0.50 0.80 0.50 1.75 0 1.55 -0.15 1.75 -1.35 1.75 -1.20 0.05 -1.25 0.10 -0.50 0.55 0.55 0.30 0.85 1.10 0.85 2.20 0 1.55 -0.15 1.75 -1.25 1.75 -0.70 0 -1.25 0.20 -1.25 0.45 0 1.70 -5.20 3 -5.75 1.45z m3.55 -2.25 c0.15 -0.50 0.50 -1.30 0.75 -1.75 0.40 -0.80 0.15 -0.90 -2.65 -0.85 -2.25 0.05 -2.70 0.15 -1.65 0.40 1.15 0.25 1.55 0.60 1.65 1.70 0.20 1.50 1.45 1.85 1.90 0.50z m-2.65 -5.20 c1.95 -0.55 4.40 -0.95 5.45 -0.85 2.40 0.20 2.25 -0.70 -0.25 -1.30 -1.40 -0.35 -2.55 -0.20 -5.40 0.75 -2 0.65 -3.75 1.50 -3.85 1.85 -0.25 0.80 -0.05 0.80 4.05 -0.45z"/>
  <path d="M37.70 43.75 c-0.20 -0.40 -0.75 -0.75 -1.25 -0.75 -0.50 0 -0.95 -0.20 -0.95 -0.50 0 -0.25 0.30 -0.50 0.70 -0.50 1 0 1.50 -1.90 0.80 -2.75 -0.85 -1.05 -1.50 -0.95 -1.50 0.25 0 0.75 -0.35 1 -1.25 1 -0.90 0 -1.25 0.25 -1.25 1 0 0.70 -0.35 1 -1.20 1 -1.10 0 -1.15 -0.10 -0.75 -1.60 0.20 -0.90 0.55 -2.50 0.70 -3.50 0.45 -3.05 3.05 -3.15 6.20 -0.20 l1.70 1.55 -0.25 -1.35 c-0.25 -1.20 -0.10 -1.40 0.90 -1.40 1.05 0 1.20 0.25 1.20 2 0 1.55 -0.20 2 -0.85 2 -0.85 0.05 -0.85 0.05 0 0.55 0.55 0.30 0.85 1.10 0.85 2.20 0 1.65 -0.10 1.75 -1.75 1.75 -1.10 0 -1.90 -0.30 -2.05 -0.75z"/>
  <path d="M70 41.75 c0 -1.40 0.20 -1.75 1 -1.75 1.05 0 1.20 0.50 0.70 2.40 -0.50 1.80 -1.70 1.35 -1.70 -0.65z"/>
  <path d="M70.30 35.45 c-0.20 -2.25 -0.20 -4.20 -0.05 -4.35 0.50 -0.50 1.70 1.60 2 3.50 0.40 2.30 -0.10 4.90 -0.95 4.90 -0.45 0 -0.75 -1.30 -1 -4.05z"/>
  <path d="M81.20 34.75 c-0.20 -0.45 0.05 -1.50 0.45 -2.40 0.55 -1.05 0.85 -1.35 1 -0.85 0.15 0.40 0.40 1.15 0.55 1.70 0.55 1.65 -1.40 3.15 -2 1.55z"/>
  <path d="M31.85 34.65 c-0.20 -0.15 -0.35 -0.95 -0.35 -1.75 0 -1.55 0.35 -1.60 3.65 -1.10 1.35 0.25 1.85 0.55 1.85 1.25 0 0.55 0.25 0.95 0.50 0.95 0.30 0 0.50 0.20 0.50 0.45 0 0.30 -0.80 0.15 -1.75 -0.25 -2.35 -0.95 -4.45 -0.95 -4.05 0.05 0.30 0.80 0.15 0.95 -0.35 0.40z"/>
  <path d="M73.45 31.20 c-2.55 -3.70 -7.20 -8.15 -10.35 -9.85 -3.90 -2.15 -4.25 -2.40 -5.20 -3.90 -0.60 -0.95 -1.60 -1.45 -4.30 -2.10 -5.60 -1.35 -8.45 -1.15 -17.95 1.40 -1.10 0.30 -1.15 0.20 -1.15 -2.85 0 -2.20 -0.15 -2.95 -0.50 -2.40 -0.25 0.40 -0.50 1.45 -0.50 2.25 0 2.10 -0.50 3.75 -1.15 3.75 -0.60 0 -0.05 -6.20 0.70 -7.45 1.45 -2.25 8.35 -6 14.50 -7.75 3.20 -0.95 9.45 -1.80 9.45 -1.30 0 0.20 -1.20 0.50 -2.70 0.70 -5.10 0.60 -14.55 4.20 -17.80 6.80 l-1.25 1 2.25 -0.75 c3.85 -1.35 12.15 -1.95 16.90 -1.25 2.25 0.35 4.30 0.85 4.50 1.20 0.20 0.30 2.70 2.15 5.60 4 6.40 4.20 12.20 9.95 12.40 12.25 0.05 0.85 -0.15 2.30 -0.50 3.15 -0.35 0.90 -0.65 2.50 -0.65 3.50 0 1.05 -0.15 1.90 -0.35 1.90 -0.20 0 -1.05 -1.05 -1.95 -2.30z"/>
  <path d="M67 28.65 c-0.05 -1.85 -1.60 -3.65 -3.15 -3.65 -1.90 0 -2.85 -0.50 -2.85 -1.55 0 -0.75 -0.35 -0.95 -1.95 -0.95 -1.10 0 -2.30 -0.30 -2.65 -0.65 -0.75 -0.70 -4.10 -1.65 -7.80 -2.15 -2.10 -0.25 -2.60 -0.50 -2.60 -1.25 0 -1.10 0.10 -1.10 5.05 -0.25 7.15 1.30 14.50 5.55 18 10.45 l1 1.35 -1.50 0 c-1.35 0 -1.55 -0.20 -1.55 -1.35z"/>
  <path d="M85.85 25.85 c-0.55 -6.65 -3.05 -11.85 -8.05 -16.80 -2 -2 -3.95 -3.65 -4.35 -3.70 -0.40 -0.10 -1 -0.30 -1.35 -0.55 -0.35 -0.20 -2.15 -0.90 -4 -1.55 -3.60 -1.25 -3.30 -1.70 0.40 -0.55 9.25 2.85 15.45 9.45 17.40 18.55 0.85 3.95 1.20 8.25 0.70 8.25 -0.25 0 -0.60 -1.65 -0.75 -3.65z"/>
  <path d="M32.30 24.90 c-0.45 -1.80 -0.35 -3.90 0.20 -3.90 0.30 0 0.50 0.45 0.50 1 0 1.40 0.25 1.30 2.80 -0.95 2.85 -2.50 4.20 -2.90 4.20 -1.25 0 0.75 -0.30 1.20 -0.75 1.20 -0.40 0 -0.75 0.25 -0.75 0.50 0 0.30 -0.55 0.50 -1.25 0.50 -1 0 -1.25 0.25 -1.25 1.30 0 0.85 -0.30 1.40 -1 1.55 -0.55 0.15 -1 0.45 -1 0.70 0 0.95 -1.40 0.40 -1.70 -0.65z"/>
  <path d="M41.50 18.80 c0 -0.65 1.40 -1.30 2.90 -1.30 0.30 0 0.60 0.45 0.60 1 0 0.80 -0.35 1 -1.75 1 -1.15 0 -1.75 -0.25 -1.75 -0.70z"/>
 </g>
 <g fill="#331815">
  <path d="M31.50 98 c0 -1.95 0.05 -2 1.75 -2 2 0 2.20 -0.55 0.75 -2.10 -1.30 -1.40 -1.45 -5.65 -0.20 -6.10 1.25 -0.50 3.70 -0.35 3.70 0.20 0 0.30 0.70 0.50 1.50 0.50 1.35 0 1.50 0.15 1.50 1.65 0 0.90 -0.25 1.90 -0.60 2.25 -0.45 0.45 -0.40 0.60 0.25 0.60 0.55 0 0.85 -0.40 0.85 -1.10 0 -1.95 0.75 -2.55 2.70 -2.30 1.25 0.15 1.80 0 1.80 -0.45 0 -0.35 -0.45 -0.65 -1 -0.65 -0.85 0 -1 -0.35 -1 -2 l0 -2 2 0 2 0 0 2 c0 1.45 0.20 2 0.75 2 0.40 0 0.75 0.25 0.75 0.50 0 0.30 0.35 0.50 0.75 0.50 0.55 0 0.75 0.60 0.75 2.45 0 2.85 -1.10 4.05 -3.80 4.05 -0.95 0 -1.70 0.30 -1.90 0.75 -0.15 0.40 -0.60 0.75 -1.05 0.75 -0.45 0 -0.75 0.45 -0.75 1.25 0 0.90 -0.25 1.25 -1 1.25 -0.55 0 -1 -0.20 -1 -0.45 0 -0.25 -0.25 -1.10 -0.50 -1.85 l-0.55 -1.35 -1.25 1.20 c-0.70 0.65 -1.70 1.15 -2.25 1.05 -0.60 -0.10 -0.95 0.15 -0.95 0.60 0 0.50 -0.45 0.80 -1.05 0.80 -0.80 0 -1 -0.25 -0.80 -1 0.15 -0.55 0.05 -1 -0.20 -1 -0.25 0 -0.45 0.45 -0.45 1 0 0.55 -0.35 1 -0.75 1 -0.55 0 -0.75 -0.55 -0.75 -2z m12.45 -3.55 c1.15 -1.15 2 -2.15 1.85 -2.30 -0.10 -0.15 -0.55 0 -0.90 0.30 -0.35 0.30 -1.40 1.10 -2.25 1.85 -1.55 1.25 -2.10 2.20 -1.25 2.20 0.20 0 1.35 -0.90 2.55 -2.05z m-6.20 -1.10 c-1.25 -2.15 -2.25 -2.95 -2.25 -1.75 0 1.05 2.50 4.45 3.05 4.15 0.25 -0.20 -0.05 -1.20 -0.80 -2.40z m10.30 -2.40 c-1.45 -1.20 -2.05 -0.85 -0.85 0.50 0.55 0.60 0.70 1.05 0.35 1.30 -0.30 0.15 -0.55 0.55 -0.55 0.90 0 0.30 0.50 0.05 1.15 -0.55 l1.10 -1.15 -1.20 -1z"/>
  <path d="M38.50 99.25 c0 -0.40 0.45 -0.75 1 -0.75 0.55 0 1 0.35 1 0.75 0 0.40 -0.45 0.75 -1 0.75 -0.55 0 -1 -0.35 -1 -0.75z"/>
  <path d="M74.75 98.85 c-0.40 -1.55 0.70 -8.85 1.35 -8.85 0.20 0 0.40 -0.45 0.40 -1 0 -0.55 0.25 -1 0.50 -1 0.30 0 0.50 -0.55 0.50 -1.25 0 -0.70 0.25 -1.25 0.50 -1.25 0.30 0 0.50 -0.55 0.50 -1.25 0 -1.05 0.25 -1.25 1.45 -1.25 l1.45 0 -0.90 1.90 c-1.90 3.80 -3 6.95 -3.80 10.35 -1 4.55 -1.50 5.45 -1.95 3.60z"/>
  <path d="M76.50 99.40 c0 -0.35 0.35 -1.30 0.75 -2.10 0.40 -0.75 0.75 -1.70 0.75 -2.10 0 -0.35 0.25 -0.80 0.60 -1 0.35 -0.20 0.40 -0.15 0.20 0.20 -0.20 0.35 -0.10 0.60 0.15 0.60 0.30 0 0.55 1.05 0.55 2.50 0 2.45 -0.05 2.50 -1.50 2.50 -0.85 0 -1.50 -0.25 -1.50 -0.60z"/>
  <path d="M8 98 c0 -2.35 1.15 -8.50 1.60 -8.50 0.20 0 0.45 -1.05 0.45 -2.35 0.10 -3.85 0.60 -5.40 1.75 -5.55 1.20 -0.15 1.30 0.90 0.25 2.80 -0.30 0.60 -0.45 1.35 -0.30 1.60 0.15 0.25 0.05 0.55 -0.15 0.70 -0.60 0.35 -1.80 6.05 -1.45 6.90 0.15 0.35 0.30 0.10 0.30 -0.55 0.05 -1.45 1.85 -6.65 3.05 -8.80 0.45 -0.80 1 -2.05 1.15 -2.75 0.15 -0.70 1.10 -2.50 2.10 -4 2.15 -3.35 2.25 -4.10 0.25 -1.85 -0.80 0.95 -1.50 2 -1.50 2.30 0 0.30 -0.45 0.80 -1 1.15 -0.55 0.35 -1 0.90 -1 1.25 0 0.35 -0.25 0.65 -0.55 0.65 -0.80 0 -0.25 -4.40 0.60 -5.30 0.40 -0.35 2.20 -1.25 4.10 -1.90 3.25 -1.25 3.35 -1.25 3.35 -0.30 0 1.45 -1.60 4.50 -2.35 4.50 -0.35 0 -0.65 0.35 -0.65 0.75 0 0.90 -1.60 4.45 -2.10 4.65 -0.25 0.10 -0.40 0.75 -0.40 1.40 0 0.65 -0.20 1.20 -0.50 1.20 -0.25 0 -0.50 0.45 -0.50 1 0 0.55 -0.20 1 -0.50 1 -0.25 0 -0.50 0.45 -0.50 1 0 0.55 -0.20 1 -0.40 1 -0.25 0 -0.75 2.15 -1.10 4.75 l-0.70 4.75 -1.65 0 c-1.50 0 -1.65 -0.15 -1.65 -1.50z"/>
  <path d="M80.15 89.25 c0 -0.65 0.15 -1.10 0.40 -0.95 0.25 0.15 0.45 -0.35 0.45 -1.15 0 -0.75 0.25 -1.75 0.50 -2.15 0.35 -0.55 0.50 0.15 0.50 2.40 0 2.70 -0.10 3.10 -0.95 3.10 -0.65 0 -0.90 -0.35 -0.90 -1.25z"/>
  <path d="M53.50 86.75 c0 -1.40 0.20 -1.75 0.95 -1.75 0.65 0 1.05 -0.50 1.25 -1.70 0.35 -1.70 1.05 -2.30 2.85 -2.30 1.65 0 1.05 -0.90 -0.80 -1.10 -0.95 -0.10 -1.75 0 -1.75 0.20 0 0.20 -0.50 0.40 -1.05 0.40 -0.60 0 -1.45 0.45 -1.90 0.95 -0.60 0.70 -1.85 1.05 -4.70 1.30 l-3.85 0.35 0 -1.75 c0 -1.50 0.20 -1.80 1.40 -2 4.20 -0.90 6.60 -1.60 6.60 -1.95 0 -0.20 0.55 -0.40 1.20 -0.40 0.65 0 1.30 -0.20 1.40 -0.45 0.10 -0.25 2.10 -1.50 4.50 -2.75 2.35 -1.30 4.60 -2.65 4.90 -3.05 0.35 -0.40 1.05 -0.75 1.55 -0.75 0.60 0 0.95 -0.35 0.95 -0.95 0 -1.65 0.55 -2.55 1.55 -2.55 2.90 0 -1.15 5.70 -6 8.40 -1.80 1 -5.65 2.80 -8.55 4 -6.10 2.50 -3.75 2.45 2.75 -0.05 4.85 -1.85 6.15 -2.65 9.95 -6.30 1.65 -1.55 2.75 -2.35 2.55 -1.80 -0.20 0.55 -0.50 1.55 -0.65 2.25 -0.30 1.55 -2 3.50 -2.80 3.25 -0.85 -0.30 -2.45 1.10 -2.55 2.25 -0.05 0.90 -1 1.75 -5.25 4.70 -1.90 1.25 -4.40 3.80 -3.80 3.80 1.15 0 4.25 -2.05 8.80 -5.95 1.50 -1.25 2 -1.45 2 -0.85 0 0.45 -0.30 0.95 -0.70 1.10 -0.40 0.15 -0.90 0.95 -1.05 1.70 -0.25 1.25 -0.60 1.45 -2.15 1.60 -1.60 0.15 -1.85 0.35 -2 1.55 -0.10 0.95 -0.45 1.35 -1.15 1.35 -0.50 0 -0.95 0.25 -0.95 0.50 0 0.30 -0.80 0.50 -1.75 0.50 -1.65 0 -1.75 -0.10 -1.75 -1.75z"/>
  <path d="M34.55 84.40 c-1.05 -0.95 -1.15 -1.35 -0.85 -3.75 0.30 -2.55 0.25 -2.65 -0.85 -2.65 -1.35 0 -3.35 -2.05 -3.35 -3.50 0 -0.55 -0.20 -1 -0.50 -1 -0.25 0 -0.50 -0.50 -0.55 -1.10 0 -0.65 -0.15 -0.85 -0.30 -0.50 -0.10 0.30 -0.90 0.60 -1.70 0.60 -0.80 0 -1.45 0.25 -1.45 0.50 0 0.30 -0.80 0.50 -1.75 0.50 -0.95 0 -1.75 -0.20 -1.75 -0.50 0 -0.60 2.20 -1.75 4.25 -2.20 2.60 -0.60 4.25 -1.40 4.25 -2.10 0 -1.60 1.45 -0.60 1.80 1.20 0.20 1 0.75 2.20 1.25 2.60 0.45 0.40 1.35 1.15 1.90 1.65 2.20 1.80 7.25 0.95 12 -2.15 1.70 -1.10 3.40 -2 3.80 -2 0.40 0 0.75 -0.30 0.75 -0.65 0 -1 1.65 -2.35 2.90 -2.35 0.70 0 1.10 -0.35 1.20 -1.10 0.10 -0.95 0.50 -1.20 2.05 -1.30 l1.90 -0.15 -0.15 2.15 c-0.10 1.80 -0.35 2.20 -1.25 2.30 -0.70 0.10 -1.15 0.50 -1.15 1.05 0 0.95 -1.50 2.55 -2.35 2.55 -0.30 0 -0.65 0.35 -0.85 0.75 -0.15 0.40 -0.60 0.75 -1 0.75 -0.35 0 -0.80 0.30 -0.95 0.70 -0.35 0.90 -6.20 3.80 -7.70 3.80 -0.90 0 -1.15 0.30 -1.15 1.20 0 0.65 -0.15 1.90 -0.30 2.75 -0.30 1.30 -0.55 1.55 -1.75 1.55 -0.95 0 -1.45 0.25 -1.45 0.75 0 1.20 -3.55 1 -4.95 -0.35z m2.35 -1.75 c-0.45 -0.50 -1 -2.10 -1.25 -3.60 -0.35 -2.25 -0.60 -2.75 -1.65 -3.10 l-1.25 -0.45 1.10 0.90 c0.60 0.55 1.05 1.25 1.05 1.65 -0.15 2.20 0.20 3.55 1.10 4.45 1.25 1.25 1.95 1.35 0.90 0.15z m11.40 -8.20 c3.20 -2.05 8.70 -6.50 8.70 -7.05 0 -0.25 -1.35 0.75 -3 2.20 -1.65 1.45 -4.40 3.50 -6.10 4.55 -1.70 1 -2.85 1.85 -2.60 1.85 0.30 0 1.60 -0.70 3 -1.55z"/>
  <path d="M81.50 79.75 c0 -0.95 0.25 -1.75 0.50 -1.75 0.30 0 0.50 -0.45 0.50 -1 0 -0.55 0.25 -1 0.50 -1 0.30 0 0.50 -0.60 0.50 -1.30 0 -0.70 0.30 -1.60 0.70 -2 1.05 -1.05 2.30 -0.85 2.30 0.30 0 0.55 -0.15 1 -0.40 1 -0.45 0 -1.80 2.95 -1.45 3.30 0.10 0.15 0.50 -0.45 0.85 -1.30 0.60 -1.40 2.50 -2.20 2.50 -1 0 0.30 -0.20 0.50 -0.50 0.50 -0.25 0 -0.50 0.35 -0.50 0.75 0 0.40 -0.20 0.75 -0.50 0.75 -0.25 0 -0.50 0.55 -0.50 1.25 0 0.70 -0.20 1.25 -0.50 1.25 -0.25 0 -0.50 0.45 -0.50 1 0 0.65 -0.35 1 -1 1 -0.85 0 -0.95 -0.15 -0.50 -0.95 0.25 -0.55 0.50 -1.15 0.50 -1.40 -0.05 -0.20 -0.40 0.20 -0.80 1 -1 1.85 -1.70 1.70 -1.70 -0.40z"/>
  <path d="M67.35 76.90 c1.75 -1.95 3.85 -6.50 3.15 -6.90 -0.35 -0.20 -0.55 -0.65 -0.45 -0.95 0.25 -0.70 6.45 2.15 6.45 3 0 0.35 -0.70 0.50 -1.95 0.35 -2 -0.15 -3.05 0.45 -3.05 1.85 0 0.40 -0.20 0.75 -0.50 0.75 -0.25 0 -0.50 0.45 -0.50 1 0 0.65 -0.35 1 -0.95 1 -0.55 0 -1.15 0.25 -1.30 0.50 -0.15 0.30 -0.65 0.50 -1.10 0.50 -0.70 0 -0.65 -0.20 0.20 -1.10z"/>
  <path d="M33.90 70.15 c-1.65 -0.65 -1.90 -0.95 -1.90 -2.45 0 -1.55 0.10 -1.70 1.60 -1.70 0.85 0 2.75 0.40 4.25 0.85 2.50 0.80 2.65 0.95 2.65 2.50 0 1.65 0 1.65 -2.35 1.60 -1.35 0 -3.25 -0.35 -4.25 -0.80z"/>
  <path d="M29.30 65.40 c-0.50 -1.90 -0.35 -2.40 0.70 -2.40 0.80 0 1 0.35 1 1.75 0 2 -1.20 2.45 -1.70 0.65z"/>
  <path d="M48.60 64.50 c0.15 -1.90 0.10 -1.95 -1.10 -1.60 -2.35 0.60 -9.65 0.25 -12.20 -0.65 -2.95 -1 -4.25 -2.45 -4.30 -4.60 0 -1.55 0.10 -1.65 1.70 -1.65 0.95 0 1.90 0.25 2.05 0.50 0.15 0.30 0.60 0.50 0.90 0.50 0.35 0 0.20 -0.25 -0.25 -0.55 -0.55 -0.30 -0.90 -1.10 -0.90 -1.95 0 -1.15 -0.25 -1.50 -1 -1.50 -1.20 0 -2 -1.40 -2 -3.45 0 -1.40 0.15 -1.55 1.50 -1.55 1.90 0 3.50 1.35 3.50 3 0 1.70 1.90 2.60 3.55 1.70 0.75 -0.40 2.90 -0.65 5.60 -0.65 l4.35 0 0 1.50 c0 2.35 -1 3 -4.35 2.85 -1.95 -0.05 -3.45 0.20 -4.60 0.75 -0.95 0.45 -2.10 0.85 -2.65 0.85 -0.50 0 -0.90 0.20 -0.90 0.45 0 0.75 5.55 1.10 8.50 0.55 1.50 -0.25 3.90 -0.65 5.30 -0.80 l2.60 -0.35 0.35 3.20 c0.25 2.20 0.20 3.20 -0.20 3.35 -0.30 0.10 -0.55 0.50 -0.55 0.85 0 0.85 -1.10 1.25 -3.35 1.25 -1.75 0 -1.75 0 -1.55 -2z m4.40 -3.30 c0 -0.65 -0.25 -1.20 -0.55 -1.20 -0.30 0 -0.45 0.30 -0.30 0.70 0.15 0.35 -0.05 1.30 -0.45 2.05 -0.95 1.90 -0.85 2.20 0.30 0.80 0.55 -0.65 1 -1.70 1 -2.35z"/>
  <path d="M68 62.75 c0 -1.70 0.05 -1.75 1.90 -1.70 1 0.05 1.45 0.15 1 0.30 -0.45 0.10 -1 0.85 -1.15 1.70 -0.45 2.10 -1.75 1.90 -1.75 -0.30z"/>
  <path d="M27.80 56.40 c-0.50 -1.90 -0.35 -2.40 0.70 -2.40 0.80 0 1 0.35 1 1.75 0 2 -1.20 2.45 -1.70 0.65z"/>
  <path d="M75.15 53.70 c0.20 -2.10 0.90 -3.15 2.05 -3.20 0.20 0 0.30 0.70 0.20 1.50 -0.15 0.85 -0.05 1.35 0.15 1.15 0.70 -0.70 4.50 -7.75 4.70 -8.60 0.05 -0.45 0.50 -1.60 0.90 -2.55 0.95 -2.20 2.85 -8.95 2.85 -10.10 0 -0.50 0.25 -0.90 0.50 -0.90 0.65 0 0.65 0.80 0 3 -0.30 0.95 -0.85 3.35 -1.30 5.25 -0.90 4.30 -2.05 6.75 -5.65 12.35 -1.85 2.95 -3.10 4.40 -3.75 4.40 -0.80 0 -0.90 -0.30 -0.65 -2.30z"/>
  <path d="M66.50 53.70 c0 -1.55 1.45 -7.35 1.95 -7.70 0.40 -0.30 1.55 -4.70 1.55 -6 0 -0.70 0.35 -1 1.05 -1 0.95 0 1.05 0.20 0.75 2.15 -0.30 2.05 -2.75 9.55 -3.50 10.80 -0.65 1 0.10 1.30 1.45 0.55 0.70 -0.35 1.50 -1.30 1.85 -2.05 0.35 -0.75 1.15 -1.70 1.75 -2 0.65 -0.35 1.75 -1.40 2.45 -2.30 1.60 -2.10 2.20 -2.10 2.20 0 0 2.30 -0.50 3.85 -1.25 3.85 -0.40 0 -0.80 -0.50 -0.90 -1.10 -0.20 -1.05 -0.20 -1.05 -0.30 0.15 -0.05 1.25 -3.40 4.95 -4.55 4.95 -0.25 0 -0.50 0.25 -0.50 0.50 0 0.30 -0.90 0.50 -2 0.50 -1.80 0 -2 -0.10 -2 -1.30z"/>
  <path d="M26.70 50.65 c-0.35 -2 0.20 -4.20 1.20 -4.55 0.45 -0.15 0.60 0.70 0.60 3.10 0 2.55 -0.15 3.30 -0.75 3.30 -0.40 0 -0.85 -0.70 -1.05 -1.85z"/>
  <path d="M51.50 46 c0 -0.60 0.25 -0.85 0.70 -0.70 0.80 0.30 2.30 -1.05 2.30 -2.15 0 -0.55 0.35 -0.70 1.30 -0.50 0.90 0.15 1.10 0.05 0.75 -0.30 -0.30 -0.30 -1.85 -0.70 -3.40 -0.90 -3.05 -0.35 -6.20 0.60 -6.45 1.95 -0.05 0.35 0 0.40 0.15 0.10 0.40 -0.80 4.20 -1.65 4.80 -1.05 0.80 0.80 0 2.05 -1.40 2.05 -0.80 0 -1.25 0.30 -1.25 0.75 0 1.05 -3.90 1.05 -4.30 0 -0.15 -0.40 -0.10 -2.35 0.15 -4.35 l0.40 -3.65 1.90 -0.15 c2.20 -0.20 2.30 0.05 0.50 1.65 -1.20 1.05 -1.25 1.20 -0.50 1.25 0.55 0 2.50 -0.50 4.45 -1.05 2.15 -0.65 4.15 -0.95 5.20 -0.80 1.80 0.30 2.25 -0.30 0.85 -1.10 -0.75 -0.40 -0.55 -0.50 1 -0.55 1.80 0 1.85 0.05 1.85 1.75 0 1.60 -0.10 1.75 -1.50 1.75 l-1.50 0 2 1.80 c1.60 1.45 2 2.15 2 3.50 0 1.60 -0.10 1.70 -1.85 1.70 -1 0 -2.20 -0.35 -2.70 -0.75 -0.75 -0.70 -0.90 -0.70 -1.60 0 -0.45 0.40 -1.45 0.75 -2.30 0.75 -1.20 0 -1.55 -0.20 -1.55 -1z"/>
  <path d="M37.10 43.70 c-1.05 -1.25 -1.10 -1.35 -0.25 -1.95 0.50 -0.35 1.05 -0.55 1.25 -0.45 0.90 0.55 0.30 -0.70 -0.70 -1.65 -2.05 -1.80 -2.40 -1.85 -2.10 -0.15 0.30 1.35 0.20 1.50 -1 1.50 -0.95 0 -1.30 0.25 -1.30 1 0 0.55 -0.20 1 -0.50 1 -0.25 0 -0.50 0.35 -0.50 0.75 0 0.50 -0.50 0.75 -1.50 0.75 l-1.50 0 1.20 -1.85 c0.65 -1.05 1.35 -2.65 1.55 -3.50 0.20 -0.90 0.55 -1.65 0.85 -1.65 0.35 0 0.35 -0.20 0 -0.60 -0.30 -0.35 -0.65 -1.50 -0.85 -2.50 -0.30 -1.70 -0.25 -1.90 0.65 -1.90 0.60 0 1.20 0.25 1.40 0.55 0.20 0.40 -0.05 0.45 -0.80 0.20 -0.90 -0.30 -1.05 -0.15 -0.90 0.55 0.10 0.60 0.85 1.10 2.05 1.35 1 0.25 1.85 0.65 1.85 0.90 0 0.25 0.35 0.45 0.75 0.45 0.50 0 0.75 0.50 0.75 1.50 0 1.30 0.20 1.50 1.40 1.50 1.95 0 2.60 0.85 2.60 3.35 0 2.10 -0.05 2.15 -1.60 2.15 -1.15 0 -2 -0.40 -2.80 -1.30z"/>
  <path d="M70.35 35.90 c-0.20 -1.45 -0.55 -2.70 -0.85 -2.80 -0.25 -0.10 -0.50 -0.50 -0.50 -0.90 0 -0.40 -0.20 -0.70 -0.50 -0.70 -0.25 0 -0.50 -0.40 -0.50 -0.95 0 -0.50 -0.45 -1.05 -1 -1.20 -0.75 -0.20 -1 -0.70 -1 -2.05 0 -1.70 -0.05 -1.80 -1.75 -1.80 -1.20 0 -1.75 -0.25 -1.75 -0.75 0 -0.40 -0.45 -0.75 -1 -0.75 -1.45 0 -3.50 -1.05 -3.50 -1.85 0 -0.40 -0.55 -0.65 -1.45 -0.65 -0.80 0 -2.40 -0.35 -3.60 -0.80 -2.45 -0.85 -8.90 -1.10 -12.55 -0.50 -1.80 0.30 -2.40 0.65 -2.40 1.30 0 1.05 -1.55 2.50 -2.65 2.50 -0.65 0 -0.85 0.45 -0.85 1.75 0 1.35 -0.20 1.75 -0.85 1.75 -0.65 0 -0.95 -0.45 -1 -1.55 -0.25 -3.10 5.55 -7.40 10.85 -8.20 3 -0.45 10 0.80 14.05 2.50 6.05 2.55 8.25 4.20 11.75 8.90 2.35 3.20 3.40 6.10 2.90 8.10 -0.55 2.15 -1.55 1.45 -1.85 -1.35z"/>
  <path d="M86.05 27.65 c0.05 -2.85 0.05 -2.90 0.50 -0.90 0.55 2.75 0.55 3.75 -0.05 3.75 -0.30 0 -0.45 -1.25 -0.45 -2.85z"/>
  <path d="M83.50 16.55 c-1.25 -2.70 -2.75 -4.85 -5.20 -7.40 -4.50 -4.75 -3.80 -4.70 0.90 0.05 3 3 3.95 4.40 5.05 7.25 0.80 1.95 1.30 3.65 1.20 3.75 -0.10 0.10 -1 -1.55 -1.95 -3.65z"/>
  <path d="M32 15.70 c0 -2 1.25 -5.60 2.35 -6.80 1.50 -1.60 6.95 -4.55 7.80 -4.25 0.35 0.10 -0.05 0.50 -0.90 0.90 -2.15 0.95 -6.90 3.95 -6.65 4.20 0.10 0.15 1.30 -0.20 2.70 -0.70 1.35 -0.50 4.25 -1.05 6.45 -1.20 l4 -0.30 -4 0.70 c-2.20 0.40 -5.05 1.05 -6.35 1.50 -1.25 0.40 -2.70 0.60 -3.10 0.45 -0.65 -0.25 -0.80 0.10 -0.80 1.85 0 1.20 -0.15 2.70 -0.30 3.35 -0.35 1.25 -1.20 1.50 -1.20 0.30z"/>
  <path d="M44 4 c0 -0.20 0.70 -0.65 1.55 -0.95 1.95 -0.65 2.10 -0.70 1.75 -0.10 -0.40 0.65 -3.30 1.60 -3.30 1.05z"/>
  <path d="M52 1.50 c0.70 -0.20 1.70 -0.40 2.25 -0.40 0.80 0 0.75 0.10 -0.25 0.40 -0.70 0.20 -1.70 0.40 -2.25 0.40 -0.80 0 -0.75 -0.10 0.25 -0.40z"/>
 </g>
 <g fill="#451919">
  <path d="M8.20 96.90 c0.50 -4.40 1.60 -9.05 2.80 -11.65 0.55 -1.25 1.10 -2.25 1.20 -2.25 0.05 0 -0.40 1.95 -1.05 4.40 -0.60 2.40 -1.15 5.05 -1.10 5.85 0 1.10 0.25 0.65 0.75 -1.45 0.40 -1.60 1.35 -4.30 2.15 -6 0.80 -1.65 1.90 -4.05 2.40 -5.30 0.55 -1.25 1.60 -3.10 2.30 -4.20 0.75 -1.05 1.25 -2.10 1.10 -2.30 -0.15 -0.25 0.80 -0.80 2.10 -1.30 1.35 -0.50 2.65 -1 2.90 -1.20 0.30 -0.20 1.80 -0.65 3.40 -1 1.70 -0.40 2.85 -0.90 2.85 -1.35 0 -0.35 0.35 -0.65 0.75 -0.65 0.40 0 0.75 0.45 0.75 1 0 0.55 0.25 1 0.50 1 0.30 0 0.50 0.55 0.50 1.20 0 1.15 2.05 3.40 3.60 3.95 0.35 0.10 0.50 0.40 0.30 0.60 -0.50 0.50 -2.20 -0.15 -3.90 -1.60 -0.85 -0.65 -1.50 -1 -1.50 -0.75 0 0.55 2.85 3.10 3.45 3.10 0.20 0 0.35 0.90 0.40 2.05 0.15 2.75 0.45 3.60 1.70 4.35 1.40 0.90 1.90 0.25 0.55 -0.70 -0.85 -0.60 -1.10 -1.25 -1.10 -3.05 l0 -2.35 1.45 1.40 c1.05 1 1.85 1.35 2.85 1.20 1.30 -0.15 1.45 0.05 1.65 1.35 0.10 0.85 -0.10 3.35 -0.45 5.65 -0.55 3.75 -0.75 4.25 -1.95 4.75 -1.80 0.75 -1.75 0.75 -1.05 1.60 0.35 0.45 0.50 0.90 0.35 1.05 -0.15 0.20 -0.70 -0.50 -1.15 -1.50 -0.50 -1 -1.20 -1.80 -1.60 -1.80 -0.45 0 -0.55 -0.35 -0.35 -1.05 0.25 -0.75 0.15 -1 -0.30 -0.85 -1.25 0.40 -1.05 1.85 0.55 4.15 1 1.45 1.45 2.60 1.25 3.15 -0.25 0.70 -0.20 0.75 0.30 0.25 1.75 -1.75 1.90 0.05 0.20 2 -0.80 0.90 -1.70 1.35 -2.75 1.35 -1.35 0 -1.50 -0.10 -1.20 -1.25 0.20 -0.75 0.10 -1.25 -0.20 -1.25 -0.30 0 -0.60 0.50 -0.70 1.15 l-0.15 1.10 -12.45 0.15 -12.45 0.10 0.35 -3.10z"/>
  <path d="M40.85 98.25 c-1.05 -2.20 -1.05 -3.20 -0.10 -3.55 0.40 -0.20 0.75 -0.90 0.75 -1.70 0 -0.80 0.20 -2.50 0.50 -3.85 0.25 -1.30 0.75 -3.85 1.05 -5.60 0.45 -2.35 0.85 -3.25 1.55 -3.45 0.50 -0.10 0.90 -0.40 0.90 -0.65 0 -0.25 1.75 -0.45 3.90 -0.40 l3.85 0.05 -2.50 0.80 c-1.85 0.60 -2.20 0.85 -1.40 1 1.70 0.25 10.05 -2.75 13.15 -4.75 1.50 -1 3.60 -2.70 4.60 -3.85 1.30 -1.40 1.90 -1.80 1.90 -1.20 0 0.45 -0.20 1 -0.50 1.15 -0.25 0.15 -0.50 0.85 -0.50 1.50 0 1.05 -1.85 2.80 -2.40 2.30 -0.10 -0.10 -0.80 0.10 -1.60 0.45 -1.15 0.50 -1.45 0.85 -1.25 1.70 0.25 0.80 -0.25 1.45 -2.05 2.80 -3.45 2.60 -6.75 5.60 -6.50 5.90 0.45 0.40 3.50 -1.30 4.75 -2.60 0.70 -0.70 1.45 -1.30 1.75 -1.30 1.05 0 8.10 -7.70 9.30 -10.10 0.95 -1.95 1.05 -2.50 0.50 -3.15 -0.90 -1.10 -0.05 -0.95 3.65 0.75 2.85 1.30 3.95 1.50 7.55 1.50 4.45 0 5.40 0.45 4.15 1.90 -0.75 0.90 -2 4.15 -1.70 4.45 0.10 0.10 0.60 -0.75 1.10 -1.85 0.60 -1.35 1.20 -2 1.90 -2 0.90 0 0.95 0.10 0.25 0.90 -0.45 0.45 -0.95 1.40 -1.15 2.10 -0.65 2.25 -2.80 6.75 -3.75 7.75 -0.45 0.55 -1 1.35 -1.15 1.75 -0.20 0.60 -0.30 0.60 -0.30 -0.10 -0.05 -0.45 0.65 -2.30 1.45 -4.20 0.85 -1.85 1.40 -3.45 1.30 -3.60 -0.15 -0.10 -0.60 0.65 -1.05 1.70 -0.45 1.05 -1.20 2.40 -1.70 2.95 -0.50 0.55 -1.15 1.80 -1.50 2.75 -0.35 0.95 -1.05 2.65 -1.55 3.75 -0.50 1.10 -1.15 3.35 -1.50 5 -0.30 1.65 -0.70 3.40 -0.80 3.90 -0.25 0.80 -1.50 0.85 -17.15 0.85 l-16.85 0 -0.85 -1.75z m3.15 -3.55 c2.90 -2.65 2.55 -3.65 -0.50 -1.35 -1.35 1 -2.50 2.15 -2.50 2.50 0 1.10 0.90 0.75 3 -1.15z m4.90 -2.50 c0.05 -0.55 -0.35 -1.25 -0.95 -1.60 -1.25 -0.80 -1.85 -0.40 -0.95 0.65 0.50 0.60 0.50 1.05 0.05 2.10 -0.60 1.30 -0.60 1.30 0.55 0.55 0.65 -0.40 1.20 -1.20 1.30 -1.70z"/>
  <path d="M77.80 99.15 c-0.10 -0.50 -0.05 -1.80 0.20 -2.90 0.20 -1.10 0.40 -1.60 0.45 -1.10 0 0.45 0.30 0.85 0.55 0.85 0.30 0 0.50 0.90 0.50 2 0 2.10 -1.20 2.90 -1.70 1.15z"/>
  <path d="M12.85 80.70 c-1.05 -1.05 0.20 -5.50 1.65 -5.90 3.20 -0.85 3.55 -0.85 3.05 0.10 -0.30 0.55 -1.10 1.35 -1.80 1.80 -0.70 0.45 -1.15 1.05 -1 1.30 0.15 0.25 0 0.60 -0.30 0.75 -0.30 0.20 -0.70 0.80 -0.90 1.30 -0.20 0.55 -0.50 0.85 -0.70 0.65z"/>
  <path d="M53.50 77.75 c0 -1.10 0.20 -1.25 1.70 -1.25 0.95 0 1.90 0.25 2.05 0.50 0.15 0.30 0.20 0.50 0.10 0.50 -0.15 0 -1.05 0.35 -2.05 0.75 -1.80 0.75 -1.80 0.75 -1.80 -0.50z"/>
  <path d="M61.50 74.50 c0 -0.25 0.30 -0.50 0.65 -0.50 0.30 0 1.60 -1.15 2.85 -2.50 1.20 -1.40 2.50 -2.50 2.85 -2.50 0.35 0 0.65 -0.35 0.65 -0.75 0 -0.40 0.25 -0.75 0.50 -0.75 0.80 0 -0.75 2.55 -2.60 4.30 -1.90 1.85 -4.90 3.45 -4.90 2.70z"/>
  <path d="M39.10 62.50 c-3.85 -0.55 -5.60 -1.40 -5.60 -2.70 0 -0.65 0.15 -0.80 0.40 -0.50 0.70 1.10 9.10 3.15 9.10 2.25 0 -0.25 -1.25 -0.55 -2.75 -0.70 -2.60 -0.25 -6.75 -2.05 -6.75 -2.95 0 -0.70 2.75 -0.45 5.90 0.65 2.65 0.90 3.45 0.95 5.60 0.50 3.55 -0.75 6 -0.70 6 0.15 0 0.75 -1.50 1.30 -3.60 1.30 -0.75 0 -1.45 0.20 -1.65 0.45 -0.25 0.45 1.65 0.35 4.40 -0.20 0.50 -0.10 0.85 0.15 0.85 0.55 0 0.45 -0.60 0.70 -1.70 0.70 -0.95 0 -1.90 0.25 -2.05 0.50 -0.35 0.55 -4.20 0.55 -8.15 0z"/>
  <path d="M45.50 43.25 c0 -1.65 0.10 -1.75 1.65 -1.75 l1.60 0 -1.25 0.65 c-1.35 0.65 -1.65 1.90 -0.60 2.25 0.35 0.10 0.50 -0.10 0.30 -0.60 -0.20 -0.60 0 -0.80 0.75 -0.80 0.70 0 1.05 0.30 1.05 1 0 0.80 -0.35 1 -1.75 1 -1.65 0 -1.75 -0.10 -1.75 -1.75z"/>
  <path d="M31.50 40.90 c0 -1.50 0.65 -2.90 1.30 -2.90 0.45 0 0.70 0.60 0.70 1.75 0 1.40 -0.20 1.75 -1 1.75 -0.55 0 -1 -0.30 -1 -0.60z"/>
 </g>
 <g fill="#2b2531">
  <path d="M6.50 97.05 c0 -1.85 0.25 -3.25 0.70 -3.65 0.35 -0.40 1.05 -2.45 1.50 -4.60 0.50 -2.15 1.30 -5.15 1.85 -6.70 0.50 -1.50 0.95 -2.85 0.95 -2.95 0 -0.05 -1.25 -0.15 -2.75 -0.15 -1.50 0 -2.75 -0.20 -2.75 -0.45 0 -0.85 1.25 -1.40 3.40 -1.45 1.55 -0.05 2.10 0.15 2.10 0.70 0 0.70 0.10 0.70 0.75 0 0.40 -0.40 0.75 -1.10 0.75 -1.50 0 -0.50 0.45 -0.80 1.25 -0.80 0.70 0 1.25 0.10 1.25 0.20 0 0.10 -0.70 1.65 -1.50 3.50 -2.05 4.45 -3.85 11.55 -4.25 16.70 l-0.35 4.10 -1.45 0 c-1.45 0 -1.45 -0.05 -1.45 -2.95z"/>
  <path d="M78 97.50 c0 -1.40 0.20 -2.90 0.45 -3.40 0.95 -1.80 2.55 -6.25 2.55 -7.10 0 -0.50 1.15 -3.50 2.55 -6.70 1.90 -4.30 2.80 -5.80 3.45 -5.80 1.60 0 2.50 0.60 2.50 1.60 0 1 -6.35 12.55 -7.05 12.80 -0.25 0.10 -0.45 0.75 -0.45 1.40 0 0.65 -0.20 1.20 -0.45 1.20 -0.25 0 -0.55 1.20 -0.75 2.65 -0.65 5.25 -0.85 5.85 -1.85 5.85 -0.80 0 -0.95 -0.40 -0.95 -2.50z"/>
  <path d="M45.35 94.70 c-0.45 -0.50 0.20 -1.70 0.95 -1.70 0.80 0 0.80 0.10 0.40 1.20 -0.30 0.85 -0.80 1 -1.35 0.50z"/>
  <path d="M42 89.75 c0 -1.40 0.20 -1.75 1 -1.75 1.10 0 1.30 1 0.50 2.55 -0.80 1.50 -1.50 1.15 -1.50 -0.80z"/>
  <path d="M0 89.50 c0 -0.55 0.15 -1 0.40 -1 0.20 0 0.65 -0.65 1 -1.50 0.85 -1.85 1.60 -1.95 1.60 -0.10 0 2.55 -0.55 3.60 -1.80 3.60 -0.85 0 -1.20 -0.30 -1.20 -1z"/>
  <path d="M39.70 87.45 c0.15 -0.85 0.30 -1.90 0.30 -2.25 0 -0.40 0.45 -0.70 1 -0.70 0.75 0 1 0.35 1 1.45 0 2.15 -0.50 3.05 -1.60 3.05 -0.90 0 -1 -0.25 -0.70 -1.55z"/>
  <path d="M3 84.20 c0 -0.60 1.70 -3.20 2.10 -3.20 0.20 0 0.40 0.80 0.40 1.75 0 1.55 -0.15 1.75 -1.25 1.75 -0.70 0 -1.25 -0.15 -1.25 -0.30z"/>
  <path d="M97.50 80.75 c0 -0.80 -0.30 -1.25 -0.75 -1.25 -0.40 0 -0.75 -0.20 -0.75 -0.45 0 -0.25 -0.90 -0.55 -2 -0.75 -1.70 -0.25 -2 -0.50 -2 -1.50 l0 -1.25 2.90 1 c2.15 0.75 3.10 1.40 4 2.70 1.40 2.20 1.40 2.75 -0.15 2.75 -1 0 -1.25 -0.25 -1.25 -1.25z"/>
  <path d="M82.15 45.05 c0.05 -0.60 0.25 -1.05 0.45 -1.05 0.20 0 0.40 -0.40 0.40 -0.85 0.05 -0.95 1.35 -2.95 1.70 -2.60 0.10 0.10 -0.15 1.30 -0.65 2.65 -0.85 2.55 -2.05 3.65 -1.90 1.85z"/>
  <path d="M86 31.65 c0 -1.20 0.25 -2.15 0.50 -2.15 0.65 0 0.65 2.50 0 3.50 -0.35 0.55 -0.50 0.20 -0.50 -1.35z"/>
  <path d="M33.05 10.95 c-0.05 -0.85 2.30 -3.30 2.70 -2.85 0.20 0.15 -0.25 0.70 -0.90 1.25 -0.65 0.50 -1.30 1.25 -1.50 1.65 -0.25 0.65 -0.30 0.65 -0.30 -0.05z"/>
 </g>
 <g fill="#542e18">
  <path d="M32 99.10 c0 -0.65 0.35 -1.50 0.75 -1.95 1.15 -1.10 1.20 -0.65 0.15 1.35 -0.75 1.50 -0.90 1.60 -0.90 0.60z"/>
  <path d="M33.50 99.55 c0 -0.70 1.40 -1.65 1.95 -1.35 0.25 0.20 1.20 -0.40 2.10 -1.25 l1.55 -1.55 -1.30 -2.30 c-0.70 -1.30 -1.55 -2.30 -1.85 -2.20 -0.30 0.05 -0.40 -0.10 -0.20 -0.40 0.45 -0.75 1.30 -0.60 2.35 0.35 0.85 0.75 0.90 0.75 0.90 0 0 -0.50 0.35 -0.85 0.75 -0.85 0.50 0 0.75 0.50 0.75 1.30 0 1.25 0.10 1.30 2 1.05 1.10 -0.15 2 -0.10 2 0.05 0 0.20 -0.80 0.90 -1.75 1.55 -2 1.35 -2.10 1.75 -0.75 3.80 1.15 1.75 1.25 2.25 0.35 2.25 -0.35 0 -1.05 -0.80 -1.50 -1.75 -0.45 -0.95 -1 -1.75 -1.20 -1.75 -0.25 0 -0.95 0.80 -1.65 1.75 -1 1.35 -1.60 1.75 -2.85 1.75 -0.90 0 -1.65 -0.20 -1.65 -0.45z"/>
  <path d="M34 90.80 c0 -0.95 0.15 -1.85 0.40 -2 0.20 -0.10 0.35 0.65 0.35 1.75 0 1.05 -0.15 1.95 -0.35 1.95 -0.25 0 -0.40 -0.75 -0.40 -1.70z"/>
  <path d="M42.50 87.05 c0 -0.25 -0.50 -0.55 -1.10 -0.65 -1.25 -0.15 -1.40 -1.35 -0.65 -4 0.30 -1.25 0.25 -1.40 -0.85 -1.40 -1.20 0 -2.40 -0.80 -2.40 -1.65 0 -0.30 0.25 -0.25 0.65 0 0.30 0.30 1.25 0.65 2.10 0.80 l1.50 0.25 -1.40 -1 c-0.75 -0.55 -1.35 -1.15 -1.35 -1.40 0 -0.20 1.05 -0.55 2.40 -0.75 4.35 -0.65 8.90 -3.25 14.25 -8.20 3.75 -3.45 2.75 -3.45 -1.35 0.05 -8.75 7.45 -15.90 9.60 -20.90 6.20 -2.30 -1.50 -3.15 -3.70 -3.85 -9.50 -0.35 -2.80 -1.05 -6.80 -1.60 -8.95 -1.20 -4.80 -1.20 -4.85 0.05 -4.85 0.80 0 1 0.35 1.10 1.90 l0.05 1.85 0.20 -1.65 c0.15 -0.90 0.55 -1.80 0.95 -1.95 0.40 -0.15 0.70 -0.95 0.70 -1.90 0 -2.65 0.45 -3.25 2.30 -3.25 1.20 0 1.70 -0.25 1.70 -0.75 0 -0.40 -0.35 -0.75 -0.75 -0.75 -0.55 0 -0.75 -0.65 -0.80 -2.60 -0.05 -2.35 -0.10 -2.45 -0.40 -0.90 -0.25 1.55 -0.50 1.75 -1.90 1.90 -1.45 0.15 -1.65 0.35 -1.65 1.60 0 2.15 -0.50 3 -1.80 3 -1.05 0 -1.15 -0.10 -0.65 -1.35 0.25 -0.70 1.30 -2.20 2.25 -3.25 2.15 -2.35 2.70 -3.80 2.70 -6.70 0 -1.40 0.20 -2.20 0.65 -2.20 1.75 0 4.45 1.20 5.15 2.25 0.80 1.20 2.20 1.70 2.20 0.80 0 -0.80 -2.10 -3.05 -3.40 -3.75 -2.05 -1 -4.50 -1.35 -4.80 -0.65 -0.15 0.35 -0.15 -0.75 0 -2.40 0.30 -3.20 0.90 -4.75 1.80 -4.75 0.35 0 0.45 0.80 0.25 2.45 l-0.30 2.45 2 0.35 c1.10 0.20 2.30 0.65 2.65 1.05 0.40 0.40 0.95 0.70 1.25 0.70 1 0 2.05 2.25 2.10 4.50 0.05 1.25 0.20 2.90 0.40 3.70 l0.30 1.45 0.65 -1.85 c0.35 -1 1 -1.80 1.40 -1.80 0.40 0 0.70 -0.50 0.70 -1.20 0 -0.90 0.45 -1.35 2.20 -2 1.20 -0.45 3.30 -0.95 4.75 -1.15 2.05 -0.25 2.55 -0.15 2.55 0.45 0 0.50 -1.10 1.05 -3.20 1.60 -1.80 0.50 -3.65 1.20 -4.15 1.55 -1.65 1.20 -0.20 1.45 3.30 0.55 1.90 -0.50 4.65 -0.90 6.10 -0.90 l2.70 0.05 -1.20 -1 c-0.65 -0.50 -1.45 -0.95 -1.85 -0.95 -0.40 0 -0.70 -0.35 -0.70 -0.75 0 -0.50 0.50 -0.75 1.65 -0.75 1.70 0 3.85 1.15 3.85 2.10 0 0.75 1.55 1.85 2.60 1.90 0.55 0 1.55 -1.35 2.85 -3.85 1.70 -3.25 1.90 -3.95 1.30 -4.30 -0.40 -0.20 -0.75 -0.85 -0.75 -1.35 0 -0.55 -0.30 -1 -0.70 -1 -0.40 0 -1.35 -0.75 -2.20 -1.70 -0.80 -0.95 -1.95 -1.85 -2.55 -2.05 -0.70 -0.20 -1.05 -0.75 -1.05 -1.55 0 -1.50 0.15 -1.50 2.80 0.05 2.30 1.35 6.65 6.35 8 9.20 1.30 2.75 0.70 9.10 -1.50 15.30 -1 2.75 -1.80 5.15 -1.80 5.35 0 1.15 1.65 -0.10 5.60 -4.20 l4.45 -4.65 -0.35 4 c-0.20 2.20 -0.55 4.50 -0.75 5.15 -0.60 1.60 -0.10 1.35 1.05 -0.50 0.55 -0.90 1 -1.30 1 -0.90 0 0.40 -0.45 1.30 -1 2 -0.55 0.70 -1 1.50 -1 1.75 0 0.85 -5.20 5.75 -6.10 5.75 -1 0 -1.40 1.05 -1.40 3.80 0 4.45 -2.35 6.90 -10.70 11.15 -3.30 1.65 -7.25 3.30 -8.75 3.60 -4.10 0.85 -4.80 1.45 -5.50 4.65 -0.40 1.80 -0.90 2.80 -1.35 2.80 -0.40 0 -0.70 -0.20 -0.70 -0.45z m-2.10 -12.35 c1.15 -0.35 1.15 -0.35 0.10 -1.05 -0.55 -0.40 -1 -1.05 -1 -1.45 0 -0.45 -0.50 -0.70 -1.40 -0.70 -0.80 0 -2.50 -0.30 -3.75 -0.70 -2 -0.60 -2.35 -0.60 -2.35 0 0 0.40 0.25 0.70 0.50 0.70 0.30 0 0.50 0.45 0.50 1 0 0.60 0.35 1 0.90 1 0.45 0.05 1.40 0.35 2.10 0.75 1.35 0.80 2.65 0.90 4.40 0.45z m-2.90 -5.90 c-3.10 -1.15 -4.30 -1.30 -2.25 -0.30 1.10 0.55 2.45 0.95 3 0.95 0.65 0 0.35 -0.25 -0.75 -0.65z m6.10 -3.50 l0.20 -1.70 -3.30 -0.25 c-1.80 -0.20 -3.85 -0.45 -4.60 -0.65 -1.25 -0.30 -1.40 -0.20 -1.40 0.95 0 1.75 3.05 3.15 7.05 3.30 1.75 0.05 1.85 -0.05 2.05 -1.65z m8.40 -1.40 c1 -1.05 1.35 -3.60 0.60 -4.10 -0.20 -0.10 -2.15 0.10 -4.35 0.50 -2.20 0.35 -4.80 0.70 -5.80 0.70 -2 0 -7 -1.55 -8.85 -2.80 l-1.25 -0.80 0.95 1.25 c2.15 2.85 8.85 3.65 17.35 2.05 1.15 -0.25 1.35 -0.10 1.35 0.85 0 0.65 -0.50 1.65 -1.10 2.30 -0.60 0.65 -0.80 1.15 -0.50 1.15 0.30 0 1 -0.50 1.60 -1.10z m4.50 -7.10 c0 -0.60 0.55 -1.85 1.15 -2.80 0.65 -0.95 1.35 -2.30 1.50 -3 l0.30 -1.30 -3.45 0.20 c-3.45 0.20 -3.50 0.20 -3.50 -1.05 0 -0.85 -0.35 -1.30 -1.10 -1.55 -2.35 -0.60 -2.60 -0.30 -1.05 1.35 1.95 2 3.15 4.85 3.15 7.40 0 1.10 0.25 1.95 0.50 1.95 0.30 0 0.50 0.50 0.50 1.15 l0.05 1.10 0.95 -1.20 c0.55 -0.65 1 -1.65 1 -2.25z m-11 1.75 l1.20 -0.35 -1.15 -0.80 c-1.70 -1.20 -6.10 -0.20 -5.25 1.15 0.30 0.50 3.35 0.50 5.20 0z m-6.70 -3.45 c-1.10 -0.25 -1.50 0.15 -1.05 0.90 0.25 0.40 0.55 0.35 1.10 -0.10 0.75 -0.60 0.70 -0.65 -0.05 -0.80z m6.50 -0.50 c1.40 0.35 2 0.35 2.50 -0.20 0.55 -0.55 0.15 -0.65 -2.45 -0.65 -1.70 0 -3.60 0.30 -4.20 0.65 -1.75 0.95 -1.35 1.20 0.60 0.40 1.30 -0.55 2.15 -0.60 3.55 -0.20z m-5 -2.35 c0.50 -0.40 2 -0.75 3.35 -0.75 1.75 0 2.35 -0.20 2.35 -0.75 0 -0.40 -0.45 -0.75 -1 -0.75 -1.60 0 -3 -1.80 -3 -3.75 0 -2.30 -0.80 -2.25 -1.15 0.05 -0.40 2.25 -1.15 3.20 -2.65 3.20 -1.45 0 -1.60 1.25 -0.35 2.60 1 1.10 1.20 1.10 2.45 0.15z m-5.30 -0.90 c0 -0.10 -0.50 -0.60 -1.05 -1.15 -1.10 -0.95 -1.10 -0.95 -0.50 0.20 0.50 0.90 1.55 1.55 1.55 0.95z m18.90 -6.45 c0.35 -0.35 0.60 -1 0.60 -1.50 0 -1.35 1.25 -1.10 3.25 0.65 1 0.90 1.90 1.45 2.05 1.35 0.45 -0.50 -3.80 -3.90 -4.95 -3.95 -0.60 0 -2 -0.10 -3.10 -0.20 -3.25 -0.35 -7.30 2.30 -4.80 3.15 0.40 0.15 0.55 0 0.35 -0.30 -0.40 -0.70 3.05 -2.25 3.85 -1.75 0.30 0.20 0.15 0.45 -0.45 0.70 -0.85 0.35 -0.85 0.40 0.20 0.40 0.65 0.05 1 0.25 0.85 0.55 -0.75 1.25 1.05 2 2.15 0.90z m-15.95 -4.70 c-2.30 -2.35 -3.90 -3 -2.95 -1.20 0.30 0.60 0.40 1.50 0.20 2.10 -0.30 0.95 -0.15 1 1.45 0.70 1.55 -0.30 1.90 -0.15 2.40 0.80 0.40 0.80 0.70 0.95 0.85 0.50 0.10 -0.40 -0.75 -1.70 -1.95 -2.90z m20.05 0.85 c0 -0.25 -0.45 -0.55 -1 -0.70 -0.55 -0.15 -1 -0.05 -1 0.15 0 0.25 0.40 0.55 0.90 0.65 0.45 0.15 0.90 0.25 1 0.30 0.05 0 0.10 -0.15 0.10 -0.40z"/>
  <path d="M48.75 81.50 c0.15 -0.25 0.75 -0.50 1.25 -0.50 1.60 0 9.65 -3 12.20 -4.55 1.30 -0.85 2.75 -1.40 3.25 -1.30 0.85 0.20 0.75 0.20 -7.20 3.90 -5.50 2.55 -10.35 3.80 -9.50 2.45z"/>
  <path d="M32.40 23.75 c-0.10 -0.95 0 -1.75 0.20 -1.75 0.20 0 0.40 0.35 0.40 0.75 0 0.95 0.45 0.95 1.60 -0.10 0.85 -0.75 0.90 -0.70 0.90 1 0 1.70 -0.10 1.85 -1.45 1.85 -1.25 0 -1.45 -0.20 -1.65 -1.75z"/>
  <path d="M54.30 21.45 c-1.30 -0.55 -4.10 -1.20 -6.10 -1.50 -3.35 -0.50 -4 -0.45 -6.65 0.50 -1.60 0.55 -3.55 1.05 -4.30 1.05 -1.20 0 -1.30 -0.10 -0.70 -0.85 0.90 -1.05 3.40 -2.05 6.30 -2.60 4.35 -0.85 16.40 1.90 17.05 3.85 0.30 0.90 -2.70 0.65 -5.60 -0.45z"/>
 </g>
 <g fill="#532f30">
  <path d="M31.50 99.15 c0.05 -0.95 1.85 -3.45 2.25 -3.05 0.30 0.30 -1.40 3.85 -1.85 3.90 -0.25 0 -0.40 -0.40 -0.40 -0.85z"/>
  <path d="M34 99.30 c0 -0.40 0.35 -0.85 0.80 -1 0.50 -0.20 0.65 -0.10 0.40 0.35 -0.55 0.85 1.20 -0.50 2.90 -2.25 0.75 -0.75 1.65 -1.40 2 -1.40 0.80 0.05 3 4.35 2.45 4.75 -0.45 0.25 -2.05 -1.85 -2.05 -2.70 0 -0.25 -0.35 -0.55 -0.75 -0.75 -0.40 -0.15 -0.75 0 -0.75 0.35 0 0.90 -2.95 3.35 -4.05 3.35 -0.50 0 -0.95 -0.30 -0.95 -0.70z"/>
  <path d="M45.35 94.70 c-0.15 -0.15 -0.05 -0.85 0.25 -1.50 0.45 -0.90 0.40 -1.40 0 -1.80 -0.80 -0.80 -0.75 -1.40 0.05 -1.40 0.40 0 1 0.55 1.35 1.25 0.55 1 0.50 1.40 -0.20 2.50 -0.90 1.35 -1 1.40 -1.45 0.95z"/>
  <path d="M40.50 93 c0 -1 -0.25 -1.50 -0.75 -1.50 -0.80 0 -0.90 -0.60 -0.45 -2.35 0.45 -1.70 1.70 -1.45 1.70 0.35 0 1.20 0.20 1.50 1.05 1.50 0.75 0 0.95 0.25 0.75 0.80 -0.25 0.60 -0.05 0.70 0.85 0.45 1 -0.30 1 -0.20 -0.30 0.95 -1.90 1.75 -2.85 1.70 -2.85 -0.20z"/>
  <path d="M34.45 92.70 c-1.30 -1.40 -1.35 -2.95 -0.10 -4.20 0.65 -0.65 0.70 -0.55 0.40 1 -0.25 1.40 -0.10 2.10 0.75 3.15 1.35 1.70 0.55 1.75 -1.05 0.05z"/>
  <path d="M37.35 92.35 c-0.35 -0.95 0.40 -2.15 0.85 -1.40 0.20 0.30 0.15 0.55 -0.15 0.55 -0.30 0 -0.40 0.35 -0.25 0.75 0.20 0.40 0.20 0.75 0.05 0.75 -0.15 0 -0.35 -0.30 -0.50 -0.65z"/>
  <path d="M49 92 c0 -0.95 0.15 -1.05 0.60 -0.60 0.45 0.45 0.45 0.75 0 1.20 -0.45 0.45 -0.60 0.35 -0.60 -0.60z"/>
  <path d="M40.10 85.75 c-0.05 -1.90 -0.05 -1.90 1.10 -1.45 1.20 0.45 1.05 3.20 -0.10 3.20 -0.70 0 -0.95 -0.40 -1 -1.75z"/>
  <path d="M48.75 81.50 c0.15 -0.25 0.75 -0.50 1.25 -0.50 1.45 0 9.40 -2.95 12.25 -4.55 2.45 -1.35 4.55 -2 3.50 -1 -0.55 0.45 -4.60 2.60 -7.25 3.75 -5.05 2.25 -10.50 3.55 -9.75 2.30z"/>
  <path d="M37.60 79.85 c-1.45 -1.55 -1.40 -2.30 0.05 -1 0.60 0.55 1.55 1.25 2.10 1.55 1 0.55 1 0.55 -0.05 0.60 -0.55 0 -1.50 -0.50 -2.10 -1.15z"/>
  <path d="M12.50 78.25 c0 -0.95 0.25 -1.75 0.50 -1.75 0.30 0 0.50 -0.30 0.50 -0.70 0 -0.70 1.05 -1.30 2.30 -1.30 0.65 0 0.60 0.25 -0.15 1.40 -0.50 0.75 -1.25 1.95 -1.65 2.75 -0.90 1.85 -1.50 1.70 -1.50 -0.40z"/>
  <path d="M31.30 73.05 c-0.15 -0.20 -0.50 -1 -0.75 -1.75 -0.50 -1.20 -0.40 -1.30 0.70 -1.30 1.10 0 1.25 0.20 1.25 1.75 0 1.65 -0.60 2.30 -1.20 1.30z"/>
  <path d="M80 49.20 c1.60 -2.90 3.25 -6.55 3.75 -8.10 0.45 -1.55 1.15 -3.90 1.55 -5.20 0.40 -1.30 0.70 -4 0.75 -6 0.05 -3.10 0.10 -3.40 0.50 -1.90 0.45 1.90 0.20 5.50 -0.55 7.50 -0.25 0.70 -0.70 2.60 -1.05 4.25 -0.75 3.80 -2.30 7.35 -4.90 11.20 -3.20 4.65 -3.20 4.05 -0.05 -1.75z"/>
  <path d="M47.50 43.80 c0 -0.35 0.40 -0.80 0.90 -0.95 0.45 -0.10 1.25 -0.40 1.75 -0.60 0.70 -0.30 0.85 -0.10 0.85 0.95 0 1.15 -0.20 1.30 -1.75 1.30 -1.15 0 -1.75 -0.25 -1.75 -0.70z"/>
  <path d="M32.30 22.90 c-0.45 -1.80 -0.35 -4.40 0.20 -4.40 0.30 0 0.50 1.25 0.50 2.75 0 2.95 -0.20 3.45 -0.70 1.65z"/>
  <path d="M83.05 15.25 c-0.60 -1.25 -1.90 -3.20 -2.95 -4.35 -1.65 -1.85 -1.65 -2 -0.35 -0.95 1.70 1.30 2.95 3.05 4.05 5.50 1.10 2.55 0.50 2.40 -0.75 -0.20z"/>
  <path d="M32.20 14.90 c0.15 -0.65 0.45 -2 0.60 -3.05 0.35 -1.90 2.60 -4.25 5.60 -5.80 2.30 -1.20 0.95 0.25 -1.90 2.10 -2.75 1.75 -3 2.05 -3 3.75 0 2.40 -0.50 4.10 -1.10 4.10 -0.30 0 -0.40 -0.50 -0.20 -1.10z"/>
  <path d="M37.60 9 c0.45 -0.30 1.90 -0.60 3.25 -0.75 l2.40 -0.25 -2.75 0.75 c-3.25 0.85 -4.05 0.90 -2.90 0.25z"/>
  <path d="M40 5.55 c0 -0.60 8 -3.50 10.65 -3.80 1.60 -0.20 1.20 0 -1.65 0.90 -2.05 0.65 -4.95 1.70 -6.35 2.25 -1.45 0.60 -2.65 0.90 -2.65 0.65z"/>
 </g>
 <g fill="#693d1f">
  <path d="M34 99.20 c0 -0.50 0.30 -0.70 0.70 -0.55 0.40 0.15 1.55 -0.45 2.65 -1.40 l1.90 -1.65 -1.40 -2.60 c-1.55 -2.75 -1.40 -4.05 0.20 -2.05 0.90 1.10 0.95 1.10 0.95 0.15 0 -0.60 0.25 -1.20 0.55 -1.40 0.45 -0.25 0.50 0.30 0.35 2 -0.20 1.75 -0.10 2.30 0.40 2.30 0.40 0 0.70 -0.45 0.70 -1 0 -0.55 0.25 -1 0.50 -1 0.30 0 0.50 -0.35 0.50 -0.75 0 -0.40 0.35 -0.75 0.80 -0.75 0.75 0 0.75 0.10 -0.05 1.30 -0.80 1.25 -0.80 1.25 0.25 0.70 1.80 -0.95 1.65 -0.20 -0.20 1.25 -2 1.50 -2.20 2.45 -1 4.15 0.45 0.65 0.65 1.30 0.50 1.45 -0.35 0.40 -1.75 -1.35 -1.80 -2.15 0 -0.80 -1.50 -1.30 -1.50 -0.55 0 0.90 -2.95 3.35 -4.05 3.35 -0.55 0 -0.95 -0.35 -0.95 -0.80z"/>
  <path d="M38.65 99.40 c0.10 -0.35 0.50 -0.65 0.85 -0.65 0.35 0 0.75 0.30 0.90 0.65 0.10 0.35 -0.25 0.60 -0.90 0.60 -0.65 0 -1 -0.25 -0.85 -0.60z"/>
  <path d="M45.70 93.40 c0.15 -0.65 0.30 -1.30 0.30 -1.50 0 -0.60 1.50 -0.45 1.50 0.15 0 0.90 -1 2.45 -1.60 2.45 -0.30 0 -0.40 -0.45 -0.20 -1.10z"/>
  <path d="M42.50 86.55 c0 -0.25 -0.40 -0.35 -0.95 -0.20 -0.65 0.15 -1 -0.10 -1.20 -0.90 -0.40 -1.50 -0.20 -1.65 1.15 -0.95 0.60 0.35 1.55 0.45 2.10 0.35 0.70 -0.20 0.90 -0.10 0.70 0.50 -0.15 0.40 -0.30 0.95 -0.30 1.20 0 0.25 -0.35 0.45 -0.75 0.45 -0.40 0 -0.75 -0.20 -0.75 -0.45z"/>
  <path d="M33.85 75.45 c-1.95 -1.05 -3.35 -3.35 -3.65 -5.95 -0.60 -5.90 -1.30 -10.10 -2.15 -13.15 -2.05 -7.55 -1.85 -9.05 1.70 -12.85 1.80 -1.95 2.45 -3.80 2.30 -6.70 -0.10 -1.65 0 -1.90 0.70 -1.60 0.45 0.15 1.20 0.30 1.70 0.30 1.35 0 2.65 1.15 2.30 2.10 -0.25 0.70 -0.60 0.75 -1.85 0.30 -1.05 -0.40 -1.65 -0.35 -2.05 0.05 -0.40 0.40 -0.25 0.55 0.50 0.55 1.25 0 1.95 0.80 1.05 1.15 -0.40 0.15 -0.30 0.30 0.25 0.30 0.70 0.05 0.80 0.30 0.55 1.40 -0.35 1.35 -0.05 1.40 2.40 0.40 0.60 -0.25 1 -0.10 1.20 0.50 0.45 1.15 -0.70 1.80 -2.55 1.50 -1.30 -0.20 -1.35 -0.20 -0.40 0.25 0.90 0.35 1.10 0.75 0.85 1.90 -0.35 1.65 0.45 2.50 1.55 1.60 0.35 -0.30 0.85 -1.30 1.05 -2.15 0.15 -0.90 0.55 -1.90 0.85 -2.25 0.35 -0.45 0.10 -1.05 -1 -2.25 -1.55 -1.60 -1.80 -3.50 -0.35 -2.30 0.95 0.80 1.40 0.25 1 -1.30 -0.40 -1.50 -3.35 -3.55 -5.95 -4 -1 -0.20 -1.95 -0.50 -2.05 -0.70 -0.10 -0.15 0.05 -1.45 0.30 -2.80 0.30 -1.40 0.55 -3.85 0.55 -5.50 -0.05 -1.65 0.05 -2.40 0.20 -1.60 0.10 0.75 0.30 1.35 0.45 1.35 0.10 0 1 -0.90 2 -2 2.75 -3.05 6.30 -4.20 11.85 -3.80 8.05 0.55 15.35 3.75 19.85 8.65 2.95 3.25 5.95 8.50 3.80 6.70 -0.85 -0.70 -1.15 -0.30 -3.25 3.80 -0.85 1.70 -1.90 3.30 -2.40 3.55 -0.80 0.50 -3.25 -0.05 -4.45 -1 -0.95 -0.70 -1.15 1.30 -0.25 2.45 0.65 0.80 1.05 0.90 1.95 0.50 0.75 -0.35 1.30 -0.30 1.80 0.10 1 0.85 0.05 4.40 -1.75 6.30 -0.75 0.85 -1.55 2.20 -1.75 3 -0.20 0.85 -0.90 2.30 -1.55 3.25 -0.60 0.95 -1.15 2.25 -1.15 2.85 0 1.25 -2.85 4.80 -3.55 4.35 -0.25 -0.15 -0.50 0 -0.50 0.25 -0.05 0.30 -0.10 0.80 -0.15 1.15 0 0.30 -0.45 0.60 -0.90 0.70 -0.80 0.10 -0.80 0 -0.20 -1.25 0.85 -1.55 0.50 -4.05 -0.55 -4.05 -0.40 0 -1.15 -1 -1.65 -2.20 -0.85 -1.90 -1.15 -2.15 -2.25 -1.90 -0.85 0.15 -1.15 0.40 -0.80 0.80 0.20 0.30 0.50 1.25 0.65 2.15 0.20 1.60 0.20 1.60 -2.50 1.95 -5.70 0.70 -11.50 -0.90 -12.70 -3.55 -0.45 -1.05 -0.40 -1.45 0.35 -2.25 1.35 -1.50 0.25 -2.50 -1.25 -1.10 -0.95 0.90 -1.10 1.55 -1.15 6.20 0 3.55 0.20 5.60 0.70 6.65 0.85 1.80 3.45 3.20 6.80 3.60 1.85 0.20 2.60 0.55 2.95 1.35 0.35 0.85 0.80 1 2.35 0.90 1.05 -0.10 2.30 0.15 2.90 0.60 l1.05 0.70 -1.20 0.80 c-3.65 2.40 -9.30 2.95 -12.55 1.25z m2.75 -2.45 c-0.90 -0.80 -2.10 -1.50 -2.65 -1.50 -1.30 0 -0.80 0.80 1.25 2.05 2.40 1.50 3.25 1.15 1.40 -0.55z m19.30 -18.40 c0.25 -1.10 0.35 -2.25 0.15 -2.50 -0.35 -0.60 -3.10 -1.75 -3.35 -1.45 -0.15 0.10 0.15 1.15 0.55 2.35 0.40 1.15 0.75 3.05 0.75 4.20 l0.05 2.05 0.70 -1.30 c0.40 -0.75 0.90 -2.25 1.15 -3.35z m-17.40 2.65 c0.25 -0.70 0.75 -1.35 1.10 -1.45 0.35 -0.10 1.40 -0.40 2.30 -0.70 1 -0.30 2.20 -0.35 3.15 -0.10 1.75 0.50 4.60 -0.30 4.15 -1.15 -0.50 -0.85 0.40 0.10 1.70 1.85 0.70 0.90 1.10 1.15 1.10 0.65 0 -1.45 -1.85 -5.10 -3.25 -6.35 l-1.35 -1.25 0.35 1.25 c0.95 2.90 0.70 3.25 -2.10 3.10 -1.90 -0.10 -3 0.15 -4.35 0.95 -1.20 0.70 -2.15 0.90 -2.90 0.70 -1.60 -0.50 -2.90 -1.75 -2.90 -2.80 0 -1.25 -2.35 -3.55 -2.70 -2.70 -0.15 0.40 0.20 1.25 0.75 1.90 0.50 0.70 0.95 1.50 0.95 1.85 0 0.30 0.70 1.15 1.50 1.85 0.90 0.75 1.50 1.70 1.50 2.45 0 1.55 0.40 1.55 1 -0.05z m-8.85 -8.35 c0.25 -1.95 0.20 -2.40 -0.40 -2.40 -0.55 0 -0.75 0.60 -0.75 2.15 0 1.20 0.15 2.35 0.35 2.50 0.45 0.50 0.45 0.40 0.80 -2.25z m17.25 -0.85 c-0.05 -0.80 0.80 -2.55 1.25 -2.55 0.25 0 0.10 -0.45 -0.40 -1 -0.85 -0.95 -0.85 -1 0.05 -1.30 0.55 -0.15 1.35 -0.50 1.85 -0.75 1.30 -0.70 2.45 0.30 2.05 1.80 -0.35 1.45 0.80 1.95 2.25 0.90 0.75 -0.50 1 -1.05 0.80 -1.70 -0.30 -0.85 -0.20 -0.90 1.10 -0.40 1.50 0.55 3.15 1.85 3.15 2.45 0 0.20 -0.45 0.50 -1.05 0.65 -0.60 0.15 -0.90 0.50 -0.75 0.80 0.20 0.30 -0.25 0.65 -1.05 0.85 -2.35 0.50 -2.45 0.60 -0.80 0.65 1.15 0.05 2.15 -0.40 3.45 -1.55 l1.85 -1.60 -1.90 -1.65 c-3.55 -3.05 -7.55 -3.55 -11.70 -1.50 -1.55 0.75 -1.60 0.75 -1.30 -0.20 0.20 -0.50 0.10 -0.95 -0.15 -0.95 -0.55 0 -2.15 3.75 -1.95 4.55 0.25 1.35 3.40 3.70 3.25 2.50z m4.30 -8.85 c1.95 -0.55 3.90 -0.75 5.65 -0.55 2.90 0.30 3.35 -0.15 1.40 -1.45 -2.50 -1.65 -11.75 0.25 -11.75 2.40 0 0.70 0.25 0.90 0.90 0.70 0.45 -0.15 2.20 -0.60 3.80 -1.10z m13.35 -5.80 c1.20 -0.85 1.20 -0.85 -1.20 -0.90 -1.85 0 -2.95 -0.35 -4.60 -1.50 -1.20 -0.85 -2.35 -1.95 -2.50 -2.50 -0.15 -0.55 -0.85 -1.15 -1.55 -1.30 -0.70 -0.20 -2.25 -1.15 -3.50 -2.20 -2.15 -1.75 -5 -3 -6.95 -3 -0.50 0 -1.30 -0.35 -1.80 -0.80 -0.80 -0.70 -1 -0.70 -2.40 0 -0.80 0.45 -1.95 0.80 -2.55 0.80 -0.70 0 -1 0.30 -1 1.15 0 0.65 -0.40 1.60 -0.90 2.15 -0.50 0.55 -1.05 1.75 -1.20 2.70 -0.20 0.95 -0.45 2.15 -0.65 2.65 -0.30 0.65 -0.10 0.85 0.95 0.85 0.80 0 1.30 0.30 1.30 0.75 0 0.50 0.55 0.75 1.75 0.75 1.25 0 1.75 0.20 1.75 0.75 0 0.60 0.20 0.65 0.95 0.25 1.40 -0.70 4.05 -0.60 6.50 0.25 1.55 0.55 3.30 0.65 6.70 0.40 3.75 -0.25 4.80 -0.15 5.40 0.45 1.20 1.25 2.15 1.30 3.25 0.20 0.60 -0.60 1.60 -1.45 2.25 -1.90z"/>
  <path d="M37.25 68.10 c-1.35 -0.40 -3.10 -1.15 -3.85 -1.70 -1.40 -0.95 -1.85 -2.15 -0.95 -2.50 0.25 -0.10 0.25 -1.25 0 -2.85 -0.20 -1.50 -0.30 -2.85 -0.20 -3 0.15 -0.10 0.80 0.35 1.45 1.10 1.05 1.10 3.95 2.35 5.65 2.35 1.10 0 0.10 1.50 -1.05 1.55 -0.55 0 -0.75 0.15 -0.40 0.30 0.30 0.10 0.60 0.65 0.60 1.20 0 0.75 0.35 0.95 1.75 0.95 1.20 0 1.75 -0.25 1.75 -0.75 0 -0.40 0.20 -0.75 0.45 -0.75 0.25 0 0.35 -0.45 0.20 -0.95 -0.25 -1 0.15 -1.15 4.95 -1.80 2.15 -0.30 2.30 -0.25 2.05 0.75 -0.20 0.65 -0.05 1 0.50 1 0.80 0 1.50 -1.30 1.05 -2.05 -0.15 -0.25 0 -0.45 0.25 -0.45 1.10 0 0.50 1.95 -1 3.20 -1 0.85 -2.15 1.30 -3.20 1.30 -0.95 0 -1.80 0.20 -1.95 0.45 -0.15 0.25 0.75 0.30 1.95 0.15 3.55 -0.40 2.80 1.35 -1 2.30 -3.65 0.90 -6.45 1 -9 0.20z"/>
  <path d="M55 67.05 c0 -0.25 -0.15 -0.85 -0.35 -1.35 -0.25 -0.65 -0.15 -0.80 0.50 -0.55 0.45 0.15 0.85 0.10 0.85 -0.15 0 -0.30 0.45 -0.50 1 -0.50 0.85 0 0.90 0.15 0.45 0.95 -0.70 1.10 -2.45 2.25 -2.45 1.60z"/>
  <path d="M70.30 61.05 c-0.15 -0.25 0.25 -0.60 0.90 -0.75 1.10 -0.25 3.75 -2.90 6.15 -6.10 1 -1.30 1 -1.20 -0.15 0.85 -1.20 2.30 -5.20 6.45 -6.15 6.45 -0.25 0 -0.60 -0.20 -0.75 -0.45z"/>
  <path d="M73.10 56.40 c0.90 -1.35 1.40 -3.85 0.90 -4.15 -0.85 -0.50 -0.05 -3.25 1.50 -5.15 1.75 -2.20 2.75 -2.70 2.30 -1.20 -0.10 0.45 -0.40 2.25 -0.55 3.95 -0.40 3.40 -2.60 7.65 -4.05 7.65 -0.75 0 -0.75 -0.10 -0.10 -1.10z"/>
  <path d="M81.60 46.65 c1.10 -2.30 1.65 -3.15 2 -3.15 0.20 0 0 0.80 -0.45 1.75 -0.45 0.95 -1.05 1.75 -1.25 1.75 -0.25 0 -0.40 -0.15 -0.30 -0.35z"/>
  <path d="M32.05 15.65 c0 -0.50 0.20 -1.35 0.45 -1.90 0.35 -0.80 0.45 -0.65 0.45 0.90 0.05 1 -0.15 1.85 -0.45 1.85 -0.25 0 -0.50 -0.40 -0.45 -0.85z"/>
 </g>
 <g fill="#41414e">
  <path d="M6 97.90 c0 -3.90 1.60 -10.35 3.70 -15.05 1.65 -3.60 1.60 -3.85 -0.10 -3.85 -1.20 0 -1.60 0.35 -2.35 2 -0.60 1.30 -1.25 2 -1.85 2 -0.70 0 -0.90 0.40 -0.90 1.75 0 1.20 -0.25 1.75 -0.70 1.75 -0.50 0 -0.80 0.95 -1.05 3.25 -0.35 3 -0.45 3.25 -1.55 3.25 -1.05 0 -1.20 -0.25 -1.20 -1.95 0 -1.10 0.15 -2.05 0.40 -2.15 0.20 -0.05 1.55 -2.50 3.05 -5.40 2.80 -5.45 3.70 -6.60 4.85 -6.15 0.95 0.35 4.15 -0.80 5.25 -1.90 0.90 -0.90 2.70 -1.35 2.35 -0.55 -0.10 0.20 -0.75 1.50 -1.45 2.85 -1.55 2.90 -3.60 9.15 -4.45 13.65 -0.35 1.70 -0.80 3.10 -1 3.10 -0.20 0 -0.55 0.35 -0.70 0.80 -0.20 0.50 -0.10 0.65 0.30 0.40 0.40 -0.25 0.45 0 0.20 0.85 -0.20 0.65 -0.50 1.70 -0.65 2.35 -0.15 0.65 -0.65 1.10 -1.20 1.10 -0.80 0 -0.95 -0.40 -0.95 -2.10z"/>
  <path d="M78.85 95.80 c0.80 -5 1.50 -6.75 5.65 -14.05 1.70 -3.05 3.15 -5.85 3.25 -6.25 0.10 -0.90 2.15 -0.75 4.65 0.25 2.40 1 2.05 1.95 -0.60 1.65 l-2.15 -0.25 -1.45 2.65 c-0.80 1.50 -1.60 2.70 -1.75 2.70 -0.20 0 -0.50 0.55 -0.65 1.25 -0.20 0.70 -0.65 1.25 -1.05 1.25 -0.40 0 -0.75 0.40 -0.75 0.95 0 0.50 -0.65 2.35 -1.45 4.10 -0.85 1.90 -1.60 4.60 -1.80 6.60 -0.35 3 -0.50 3.35 -1.45 3.35 l-1.15 0 0.70 -4.20z"/>
  <path d="M85.50 99.25 c0 -0.45 0.45 -0.75 1.25 -0.75 0.80 0 1.25 0.30 1.25 0.75 0 0.45 -0.45 0.75 -1.25 0.75 -0.80 0 -1.25 -0.30 -1.25 -0.75z"/>
  <path d="M91.50 98.50 c0 -1.40 0.15 -1.50 1.75 -1.50 1.60 0 1.75 0.10 1.75 1.50 0 1.40 -0.15 1.50 -1.75 1.50 -1.60 0 -1.75 -0.10 -1.75 -1.50z"/>
  <path d="M40.50 93 c0 -0.60 -0.35 -1 -0.80 -1 -0.90 0 -0.75 -1.75 0.45 -5.65 0.70 -2.20 2 -2.35 2.25 -0.20 0.10 0.75 0.45 1.35 0.90 1.35 0.95 0 0.90 1.45 -0.20 3.55 -0.90 1.80 -0.90 1.80 0.10 1.60 1.05 -0.20 1.05 -0.20 0.10 0.55 -1.40 1.15 -2.80 1 -2.80 -0.20z"/>
  <path d="M97.50 88.15 c0 -3 -0.15 -6.65 -0.35 -8.15 l-0.30 -2.75 1.10 0.95 c0.55 0.55 1.05 1.25 1.05 1.65 0 0.35 0.25 0.65 0.50 0.65 0.30 0 0.50 2.50 0.50 6.50 l0 6.50 -1.25 0 -1.25 0 0 -5.35z"/>
  <path d="M36.25 7.50 c1.05 -0.80 2.10 -1.50 2.40 -1.50 0.65 0 0.50 0.15 -1.80 1.70 -2.55 1.75 -2.90 1.65 -0.60 -0.20z"/>
 </g>
 <g fill="#6f4848">
  <path d="M31.50 99.30 c0 -0.80 2 -3.45 2.35 -3.10 0.15 0.15 -0.10 0.60 -0.55 1.05 -0.45 0.45 -0.80 1.25 -0.80 1.80 0 0.50 -0.20 0.95 -0.50 0.95 -0.25 0 -0.50 -0.30 -0.50 -0.70z"/>
  <path d="M40.35 96.95 c-0.75 -1.10 -1.35 -2.70 -1.35 -3.50 0 -1.25 0.20 -1.45 1.45 -1.45 1.90 0 2.40 1.30 1 2.80 l-1.05 1.15 1.10 1.50 c0.60 0.85 0.85 1.55 0.60 1.55 -0.20 0 -1 -0.90 -1.75 -2.05z"/>
  <path d="M34.35 92.60 c-1.05 -1.15 -1.10 -2.60 -0.10 -3.90 0.85 -1.10 1 -0.60 0.20 0.85 -0.40 0.80 -0.35 1.30 0.30 2.30 1 1.50 0.75 2 -0.40 0.75z"/>
  <path d="M45.80 91.20 c-0.50 -1.25 -0.05 -1.35 0.95 -0.20 0.75 0.85 0.80 1 0.15 1 -0.45 0 -0.95 -0.35 -1.10 -0.80z"/>
  <path d="M49.25 81.50 c0.15 -0.25 0.75 -0.50 1.25 -0.50 1.55 0 8 -2.45 11.40 -4.35 1.75 -0.95 3.30 -1.65 3.40 -1.50 0.60 0.60 -7.85 4.60 -12.75 6.05 -3.20 0.95 -3.70 1 -3.30 0.30z"/>
  <path d="M37.10 79.35 c-1.25 -1.35 -1.50 -2.30 -0.30 -1.35 0.75 0.65 1.90 2.50 1.55 2.50 -0.10 0 -0.65 -0.50 -1.25 -1.15z"/>
  <path d="M33.85 64.15 c-0.20 -0.15 -0.35 -1.05 -0.35 -2 0 -1.75 0.50 -1.95 2.90 -1.35 0.85 0.25 1.10 0.70 1.10 2 0 1.60 -0.10 1.70 -1.65 1.70 -0.95 0 -1.85 -0.15 -2 -0.35z"/>
  <path d="M79.55 50.50 c0.45 -0.70 1.30 -2.25 1.90 -3.40 0.60 -1.20 1.25 -2.10 1.40 -1.95 0.35 0.40 -2.30 5.20 -3.30 6 -0.70 0.55 -0.70 0.45 0 -0.65z"/>
  <path d="M53.90 46.20 c-0.50 -0.45 0.50 -1.70 1.35 -1.70 0.40 0 0.75 -0.35 0.85 -0.75 0.10 -0.60 0.45 -0.50 1.65 0.45 0.85 0.65 1.35 1.35 1.20 1.50 -0.50 0.50 -4.70 0.90 -5.05 0.50z"/>
  <path d="M48.10 44.85 c-1.20 -1.25 -1 -1.85 0.50 -1.85 0.65 0 0.90 0.40 0.90 1.50 0 1.80 -0.05 1.80 -1.40 0.35z"/>
  <path d="M83 43.90 c0.10 -0.80 1.95 -5.50 2 -5 0 1.30 -1.15 5.10 -1.55 5.10 -0.25 0 -0.45 -0.05 -0.45 -0.10z"/>
  <path d="M58.25 43 c-0.15 -0.25 0.05 -0.50 0.45 -0.50 0.40 0 0.90 0.25 1.05 0.50 0.15 0.30 -0.05 0.50 -0.45 0.50 -0.40 0 -0.90 -0.20 -1.05 -0.50z"/>
  <path d="M33.50 41.80 c0 -0.40 -0.40 -0.80 -0.95 -0.90 -0.75 -0.10 -0.85 -0.40 -0.50 -1.25 0.25 -0.65 0.85 -1.15 1.35 -1.15 1.35 0 2.30 1.30 1.85 2.35 -0.25 0.50 -0.35 1.05 -0.35 1.30 0.05 0.20 -0.25 0.35 -0.65 0.35 -0.40 0 -0.75 -0.30 -0.75 -0.70z"/>
  <path d="M86.15 32.75 c0 -1.10 0.10 -1.50 0.20 -0.85 0.10 0.60 0.10 1.50 0 2 -0.15 0.45 -0.25 -0.05 -0.20 -1.15z"/>
  <path d="M32.30 20.45 c-0.45 -2.30 -0.35 -3.95 0.20 -3.95 0.30 0 0.50 1.25 0.50 2.75 0 3.10 -0.25 3.50 -0.70 1.20z"/>
  <path d="M82.75 14.50 c-0.45 -0.80 -0.65 -1.50 -0.55 -1.50 0.15 0 0.60 0.70 1.05 1.50 0.45 0.85 0.65 1.50 0.55 1.50 -0.15 0 -0.60 -0.65 -1.05 -1.50z"/>
  <path d="M32.85 12.75 c0.15 -1.10 0.35 -2.10 0.45 -2.20 0.40 -0.45 0.10 2.25 -0.30 3.20 -0.35 0.70 -0.40 0.40 -0.15 -1z"/>
  <path d="M36.70 7.25 c2.40 -1.70 9.15 -4.60 9.60 -4.10 0.15 0.15 -0.60 0.55 -1.65 0.85 -2.50 0.85 -8.50 3.85 -8.90 4.50 -0.15 0.25 -0.60 0.50 -0.90 0.50 -0.35 0 0.50 -0.80 1.85 -1.75z"/>
  <path d="M47.75 2.50 c0.55 -0.25 1.35 -0.45 1.75 -0.45 0.45 0 0.40 0.20 -0.25 0.45 -0.55 0.25 -1.35 0.45 -1.75 0.45 -0.45 0 -0.40 -0.20 0.25 -0.45z"/>
 </g>
 <g fill="#82532e">
  <path d="M38.50 99.50 c0 -0.25 0.30 -0.50 0.70 -0.50 0.40 0 0.90 0.25 1.05 0.50 0.15 0.30 -0.15 0.50 -0.70 0.50 -0.60 0 -1.05 -0.20 -1.05 -0.50z"/>
  <path d="M41.05 98.25 c-0.60 -1.10 -1.85 -3.30 -2.80 -4.95 -2.10 -3.45 -2.15 -3.85 -0.50 -2.30 1.05 1 1.40 1.10 2.50 0.60 1.75 -0.80 3.15 -0.80 2.35 0 -0.90 0.90 -0.70 1.35 0.55 1.05 0.85 -0.25 0.65 0.10 -0.90 1.50 l-2 1.75 1.15 1.55 c0.65 0.90 1.05 1.85 0.95 2.20 -0.10 0.35 -0.70 -0.30 -1.30 -1.40z"/>
  <path d="M45.75 92.50 c0 -2.15 0.30 -2.40 1.25 -1.25 0.55 0.65 0.55 1 0 2 -0.95 1.75 -1.30 1.55 -1.25 -0.75z"/>
  <path d="M41 85.95 c-0.75 -1.35 -0.50 -1.55 1.40 -1.15 1.10 0.25 1.60 0.60 1.60 1.25 0 1.35 -2.30 1.25 -3 -0.10z"/>
  <path d="M36.25 76.05 c-2.40 -0.60 -3.75 -1.50 -4.75 -3.20 -1.15 -1.90 -1.30 -3.30 -0.30 -3.65 1.15 -0.45 5.85 1.20 7.10 2.50 0.70 0.65 1.90 1.45 2.70 1.80 1.65 0.70 1.95 1.80 0.65 2.20 -2.05 0.55 -4 0.70 -5.40 0.35z"/>
  <path d="M63.80 75.75 c0.50 -0.40 1.20 -0.70 1.45 -0.70 0.30 0 0.05 0.30 -0.45 0.70 -0.55 0.40 -1.20 0.75 -1.50 0.75 -0.25 0 -0.05 -0.35 0.50 -0.75z"/>
  <path d="M33.90 66.60 c-1.50 -0.90 -1.85 -2.10 -0.70 -2.10 0.65 0 0.65 -0.20 0 -1.35 -0.75 -1.45 -0.95 -4.65 -0.30 -4.65 0.20 0 0.65 0.45 0.95 0.95 0.35 0.55 1.30 1.10 2.15 1.30 0.80 0.20 1.40 0.50 1.30 0.65 -0.10 0.20 0 0.80 0.25 1.35 0.35 0.95 0.40 0.95 0.40 -0.10 0.05 -0.65 0.35 -1.15 0.70 -1.15 1.45 0 2.85 0.65 2.85 1.30 0 0.40 0.50 0.70 1.25 0.70 0.75 0 1.25 -0.30 1.25 -0.70 0 -0.65 1.40 -1.30 2.85 -1.30 0.30 0 0.70 0.50 0.80 1.15 0.20 0.95 0.20 0.90 0.30 -0.25 0.05 -1.15 0.30 -1.40 1.25 -1.40 0.65 0 1.55 -0.15 2 -0.30 1.25 -0.45 1 1.45 -0.30 2.65 -0.65 0.60 -2.05 1.20 -3.15 1.40 -3.65 0.55 -4.30 0.80 -4 1.25 0.90 1.50 -7.60 2 -9.85 0.60z"/>
  <path d="M52.90 59.95 c-0.45 -0.75 -0.70 -1.80 -0.60 -2.30 0.35 -1.35 -1.60 -6.30 -3.05 -7.65 -1.95 -1.80 -1.65 -2.45 0.90 -1.90 7.80 1.75 8.25 2.15 7.60 6.30 -0.50 3.35 -1.65 5.90 -2.95 6.50 -0.95 0.40 -1.20 0.30 -1.90 -0.95z m1.90 -6.20 c-0.20 -0.70 -0.55 -1.25 -0.80 -1.25 -0.65 0 -0.65 0.60 0.05 2.35 0.65 1.60 1.20 0.75 0.75 -1.10z"/>
  <path d="M38 59.50 c-0.40 -0.25 -0.50 -0.50 -0.15 -0.50 0.30 0 0.80 -0.65 1.10 -1.50 0.55 -1.70 2.05 -2.05 2.05 -0.45 0 1.35 -0.90 2.95 -1.65 2.95 -0.35 0 -0.95 -0.25 -1.35 -0.50z"/>
  <path d="M35.05 58.55 c-0.75 -0.50 -0.40 -2.05 0.45 -2.05 0.75 0 1.25 1.45 0.70 2 -0.25 0.25 -0.75 0.25 -1.15 0.05z"/>
  <path d="M28.30 56.90 c-0.15 -0.65 -0.65 -2.70 -1.05 -4.55 -0.85 -3.90 -0.45 -5.45 2.10 -8.30 1.45 -1.55 1.60 -1.60 2.95 -0.90 0.80 0.40 2.10 0.85 2.85 1.05 1.80 0.40 1.50 1.50 -0.45 1.70 -2.10 0.25 -3.10 1.40 -3.50 4.05 -0.35 2.55 -1.65 7.05 -2.20 7.70 -0.20 0.25 -0.50 -0.10 -0.70 -0.75z"/>
  <path d="M75 57.85 c0 -0.25 0.45 -1 1 -1.70 0.55 -0.70 1 -1.05 1 -0.75 0 0.60 -1.95 3 -2 2.45z"/>
  <path d="M36.55 53.55 c-0.60 -0.60 -1.05 -1.35 -1.05 -1.70 0 -0.80 1.45 -2.90 2.55 -3.70 0.85 -0.65 2.45 -4.85 2.45 -6.50 0 -1.20 1.45 -3.25 2.05 -2.90 0.80 0.55 0.50 2.60 -1.25 7.90 -0.95 2.85 -1.80 5.75 -1.90 6.40 -0.20 1.55 -1.55 1.80 -2.85 0.50z"/>
  <path d="M45.65 52.40 c-1.35 -0.65 -1.85 -1.85 -0.95 -2.20 1.10 -0.40 2.80 0.70 2.80 1.80 0 1.10 -0.25 1.15 -1.85 0.40z"/>
  <path d="M34.35 50.20 c-0.20 -0.20 -0.35 -0.80 -0.35 -1.30 0 -1 1.25 -1.25 1.80 -0.35 0.40 0.65 -0.95 2.15 -1.45 1.65z"/>
  <path d="M50.40 46.45 c-1.05 -0.50 -2.10 -1.40 -2.40 -1.95 -0.45 -0.85 -0.30 -1.10 1.10 -1.70 1.40 -0.60 1.75 -0.55 2.40 0.05 0.60 0.55 0.65 0.75 0.10 1.10 -1.10 0.65 -0.85 1.15 1.25 2.40 1.70 1.05 1.80 1.15 0.65 1.15 -0.70 -0.05 -2.10 -0.50 -3.10 -1.05z"/>
  <path d="M53.75 46 c-0.15 -0.20 0.10 -0.65 0.50 -1 0.40 -0.35 0.75 -0.95 0.75 -1.35 0 -0.45 0.35 -0.65 0.90 -0.55 0.45 0.10 0.80 0.50 0.70 0.85 -0.05 0.35 0.10 0.50 0.35 0.35 0.50 -0.30 1.85 1.05 1.45 1.50 -0.50 0.45 -4.35 0.65 -4.65 0.20z"/>
  <path d="M82.80 44.40 c0.35 -1.25 1.70 -3.35 1.70 -2.75 0 0.70 -1.45 3.85 -1.75 3.85 -0.20 0 -0.15 -0.50 0.05 -1.10z"/>
  <path d="M33.40 42.65 c-2.10 -0.85 -2.15 -1 -1.30 -2.90 0.90 -2 2.65 -1.50 2.65 0.70 0 1.90 0.70 2.40 2.15 1.60 0.75 -0.40 1.15 -0.35 1.55 0.15 0.30 0.35 0.40 0.80 0.20 0.95 -0.55 0.60 -3.35 0.35 -5.25 -0.50z"/>
  <path d="M57.30 42.40 c-1.70 -1.30 -6.40 -1.80 -8.75 -1 -1.25 0.45 -1.55 0.40 -1.55 -0.15 0 -0.35 1.15 -1 2.65 -1.40 4.90 -1.45 4.95 -1.45 7.60 0.55 2.50 1.90 3.35 3.10 2.15 3.10 -0.35 0 -1.30 -0.50 -2.10 -1.10z"/>
  <path d="M37.95 39.70 c-1 -1.25 -3.50 -2.30 -4.75 -2.05 -1 0.15 -1.20 0 -1.20 -1.05 0 -1.15 0.10 -1.20 2.05 -0.95 2.10 0.30 5.45 2.85 5.45 4.20 0 0.90 -0.75 0.80 -1.55 -0.15z"/>
  <path d="M58.75 37.25 c-2.30 -1.40 -3.55 -1.50 -7.10 -0.60 -1.45 0.40 -2.80 0.55 -3 0.35 -0.20 -0.20 -1.60 -0.75 -3.10 -1.25 -2.60 -0.85 -2.70 -0.85 -4.05 0.15 l-1.40 1.05 -0.90 -1.05 c-1.15 -1.30 -4.55 -2.85 -6.15 -2.90 -1.15 0 -1.15 -0.10 -0.80 -2.60 0.20 -1.45 0.35 -4 0.35 -5.65 -0.05 -2.75 0.05 -2.85 0.70 -0.80 0.15 0.50 0.65 0.10 1.50 -1.15 0.85 -1.20 2.25 -2.35 3.85 -3.10 3.15 -1.45 4.40 -1.50 5.25 -0.20 0.35 0.55 1.10 1 1.65 1 2.15 0 4.95 1.20 7.15 3 1.25 1.05 2.80 2 3.50 2.20 0.70 0.15 1.40 0.75 1.55 1.30 0.15 0.55 1.30 1.70 2.55 2.55 1.95 1.30 2.50 1.45 4.40 1.20 1.95 -0.30 2.30 -0.20 2.80 0.75 0.70 1.25 -0.25 3.10 -2.10 4.05 -0.65 0.35 -1.65 1.15 -2.25 1.80 -1.40 1.45 -1.90 1.45 -4.40 -0.10z m-0.75 -4.75 c0 -0.25 -0.45 -0.70 -1 -1 -0.55 -0.30 -1.10 -1.05 -1.30 -1.70 -0.20 -0.85 -0.95 -1.45 -2.45 -2 -1.15 -0.45 -2.55 -1.30 -3 -1.80 -0.50 -0.55 -1.20 -1 -1.50 -1 -0.35 0 -1.15 -0.40 -1.80 -0.95 -0.65 -0.50 -2.10 -1.05 -3.20 -1.20 -1.10 -0.15 -2.55 -0.40 -3.25 -0.60 -1 -0.25 -1.60 0.05 -2.85 1.30 -0.90 0.85 -1.65 1.90 -1.65 2.35 0 0.40 -0.45 1.15 -1.05 1.65 -0.70 0.60 -0.95 1.35 -0.85 2.30 0.10 1.15 0.40 1.45 1.65 1.55 0.85 0.10 1.70 0.40 1.95 0.65 0.65 0.60 2.65 0.60 3.05 -0.05 0.45 -0.75 3.40 -0.60 5.30 0.25 1.95 0.80 11.95 1.05 11.95 0.25z"/>
  <path d="M44.65 18.15 c0.45 -0.10 1.25 -0.10 1.75 0 0.45 0.15 0.05 0.25 -0.90 0.25 -0.95 0 -1.35 -0.10 -0.85 -0.25z"/>
  <path d="M32.05 16.15 c0 -0.50 0.20 -1.35 0.45 -1.90 0.35 -0.80 0.45 -0.65 0.45 0.90 0.05 1 -0.15 1.85 -0.45 1.85 -0.25 0 -0.50 -0.40 -0.45 -0.85z"/>
 </g>
 <g fill="#5a6371">
  <path d="M1.35 99.65 c-0.20 -0.15 -0.35 -1.30 -0.35 -2.50 0 -1.15 -0.20 -2.15 -0.50 -2.15 -0.25 0 -0.50 -1.10 -0.50 -2.50 0 -1.35 0.25 -2.50 0.50 -2.50 0.30 0 0.50 -0.40 0.50 -0.90 0 -0.85 1.95 -5.05 3.50 -7.50 0.40 -0.60 1.05 -1.10 1.40 -1.10 0.40 0 0.55 -0.35 0.40 -0.85 -0.45 -1.45 0.30 -2 3.15 -2.30 1.95 -0.25 3.10 -0.70 4.05 -1.60 1.95 -1.85 2.80 -1.60 1.50 0.50 -1.15 1.85 -4.80 10.05 -5.55 12.50 -0.80 2.50 -1.95 8.40 -1.95 9.90 0 1.30 -0.05 1.35 -2.90 1.35 -1.60 0 -3.10 -0.15 -3.25 -0.35z"/>
  <path d="M78.65 98.90 c0.15 -0.65 0.45 -2.50 0.65 -4.15 0.40 -3.50 1.95 -7.20 5.85 -13.85 1.60 -2.65 2.85 -5.05 2.85 -5.35 0 -0.80 1.35 -0.65 5.50 0.65 5.30 1.70 5.50 2.05 5.50 9.60 0 3.80 0.20 6.20 0.50 6.20 0.30 0 0.50 1.65 0.50 4 l0 4 -8.75 -0.05 -8.75 0 0 -1.65 c0 -3.10 0.55 -4.80 1.55 -4.80 0.80 0 0.95 -0.40 1 -2.60 0 -1.45 0.20 -3.70 0.40 -5 0.20 -1.35 0.20 -2.40 -0.05 -2.40 -0.20 0 -0.40 0.45 -0.40 1 0 1 -1.30 4 -1.95 4.50 -0.60 0.45 -2.05 5.85 -2.05 7.65 0 2.45 -0.45 3.35 -1.60 3.35 -0.80 0 -0.95 -0.25 -0.75 -1.10z m12.65 -6.40 c0.35 -3.90 0.30 -5 -0.15 -5 -0.40 0 -0.65 -0.80 -0.70 -2.10 l-0.05 -2.15 -0.40 2 c-0.20 1.10 -0.50 4.30 -0.60 7.15 -0.15 4.40 -0.05 5.10 0.65 5.10 0.60 0 0.85 -0.95 1.25 -5z m5.45 -11.80 c-0.30 -2 -0.35 -2.10 -2.40 -2.35 -1.15 -0.15 -2.55 -0.45 -3.15 -0.60 -0.90 -0.30 -1 -0.15 -0.80 1.20 0.20 1.40 0.40 1.55 1.90 1.55 0.95 0 1.70 0.25 1.70 0.50 0 0.30 0.55 0.50 1.25 0.50 1.15 0 1.25 0.20 1.30 2.15 0.10 1.65 0.15 1.80 0.30 0.65 0.15 -0.85 0.10 -2.45 -0.10 -3.60z"/>
  <path d="M38.35 93.55 c-1.05 -1.80 -1.15 -2.90 -0.15 -2.10 0.55 0.45 0.80 0.10 1.30 -1.80 0.35 -1.35 0.85 -2.65 1.10 -2.95 0.20 -0.30 0.30 -0.95 0.10 -1.40 -0.35 -0.95 -0.30 -0.95 1.75 -0.25 1.30 0.45 1.55 0.80 1.55 2.15 0 0.90 -0.55 2.70 -1.25 4 -1.10 2.10 -1.15 2.25 -0.30 1.80 1.65 -0.85 1.70 -0.55 0.15 0.75 -1.95 1.65 -3.20 1.60 -4.25 -0.20z"/>
 </g>
 <g fill="#996636">
  <path d="M41.55 98.95 c-0.35 -0.60 -0.50 -1.15 -0.40 -1.30 0.15 -0.15 0.55 0.25 0.85 0.85 0.75 1.40 0.40 1.75 -0.45 0.45z"/>
  <path d="M37.75 97 c0.50 -0.55 1 -0.90 1.15 -0.75 0.35 0.30 -0.90 1.75 -1.55 1.75 -0.25 0 -0.10 -0.45 0.40 -1z"/>
  <path d="M39.60 95.80 c-0.70 -1.05 -2.60 -4.70 -2.60 -5.10 0 -0.20 0.55 0.15 1.25 0.80 l1.25 1.15 0 -1.05 c0 -0.60 0.25 -1.10 0.50 -1.10 0.30 0 0.50 0.35 0.50 0.75 0 0.90 0.85 1 1.15 0.15 0.10 -0.35 0.40 -0.45 0.65 -0.25 0.25 0.25 -0.20 0.95 -1.05 1.65 -1.75 1.40 -1.40 1.55 0.80 0.40 0.85 -0.40 1.60 -0.70 1.65 -0.60 0 0.10 -0.80 0.95 -1.80 1.95 -1.25 1.25 -2 1.65 -2.30 1.25z"/>
  <path d="M46.25 92.50 c0.20 -0.30 0.05 -0.85 -0.25 -1.25 -0.40 -0.50 -0.45 -0.75 -0.10 -0.75 0.70 0 1.70 1.75 1.25 2.20 -0.50 0.50 -1.25 0.35 -0.90 -0.20z"/>
  <path d="M36.75 75.50 c-3.55 -0.80 -6.20 -3.10 -5.55 -4.80 0.40 -1.05 1.30 -0.85 3.80 0.80 1.20 0.80 2.85 1.60 3.60 1.75 0.75 0.20 1.40 0.55 1.40 0.80 0 0.25 0 0.60 0.05 0.80 0.05 0.65 -1.75 1 -3.30 0.65z"/>
  <path d="M34.20 65.75 c-1.10 -0.85 -0.35 -0.95 1.60 -0.25 0.95 0.40 1.50 0.40 1.90 0 0.35 -0.35 0.15 -0.50 -0.60 -0.50 -0.85 0 -1.10 -0.30 -1.10 -1.25 0 -1.40 0.15 -1.45 1.55 -0.75 0.80 0.45 0.95 0.35 0.95 -0.55 0 -0.75 0.20 -0.95 0.80 -0.75 0.45 0.15 1.35 0.30 2 0.30 0.75 0 1.20 0.30 1.20 0.75 0 0.40 0.25 0.75 0.50 0.75 0.30 0 0.50 -0.30 0.50 -0.70 0 -0.65 2.85 -1.40 3.65 -0.95 0.20 0.10 0.40 0.70 0.40 1.30 0.05 0.85 0.15 0.75 0.40 -0.40 0.25 -1.15 0.65 -1.55 1.95 -1.80 2.05 -0.40 2.65 0.60 1.35 2.05 -1.15 1.25 -4 2.05 -8.20 2.25 -4.35 0.25 -4.50 0.30 -3.05 0.75 0.95 0.30 0.50 0.40 -1.80 0.45 -1.95 0.05 -3.35 -0.20 -4 -0.70z"/>
  <path d="M34.15 64.10 c-0.80 -0.50 -1.65 -2.85 -1.65 -4.45 l0 -1.30 1.15 1.05 c0.65 0.60 1.45 1.10 1.75 1.10 0.35 0 0.60 0.35 0.60 0.80 0 0.40 -0.25 0.60 -0.55 0.40 -0.40 -0.20 -0.45 0.15 -0.20 1.25 0.35 1.55 0.05 1.85 -1.10 1.15z"/>
  <path d="M53.35 59.65 c-0.10 -0.25 -0.50 -1.75 -0.85 -3.40 -0.40 -1.60 -1.45 -4.05 -2.35 -5.40 -0.90 -1.35 -1.65 -2.55 -1.65 -2.65 0 -0.10 0.95 0.25 2.15 0.75 1.15 0.55 2.80 1.25 3.70 1.55 2.60 0.95 3.15 4.45 1.30 8.15 -0.65 1.25 -1.85 1.80 -2.30 1z"/>
  <path d="M27.85 54.65 c-0.55 -0.85 -0.95 -5.20 -0.65 -6.75 0.20 -0.90 1.10 -2.55 2.05 -3.60 1.65 -1.85 1.80 -1.90 2.65 -1.15 0.50 0.45 1.65 1 2.50 1.15 2.55 0.50 1.85 1.25 -0.80 0.90 -2.25 -0.30 -2.45 -0.20 -3 1 -0.35 0.75 -0.60 2.40 -0.60 3.70 0 2.25 -1.55 5.70 -2.15 4.75z"/>
  <path d="M36.50 52.50 c-0.65 -1.20 0 -2.70 1.50 -3.50 0.60 -0.35 1.35 -1.85 2.05 -4.15 1.20 -4.15 2.80 -6.45 2.25 -3.20 -0.50 2.70 -2.75 9.40 -3.60 10.75 -0.90 1.35 -1.50 1.40 -2.20 0.10z"/>
  <path d="M44.75 51.50 c-0.60 -0.95 0.25 -1.50 1.25 -0.85 0.55 0.30 1 0.75 1 0.95 0 0.60 -1.90 0.50 -2.25 -0.10z"/>
  <path d="M50.25 46 c-0.60 -0.20 -1.35 -0.75 -1.70 -1.20 -0.60 -0.70 -0.45 -0.80 1.20 -0.80 1.45 0 1.80 0.15 1.55 0.75 -0.15 0.40 -0.05 0.75 0.20 0.75 0.30 0 0.50 0.25 0.50 0.50 0 0.60 -0.35 0.60 -1.75 0z"/>
  <path d="M57 45.30 c0 -0.40 -0.50 -1.10 -1.10 -1.50 -0.75 -0.55 -0.85 -0.80 -0.40 -0.80 0.75 0.05 3.50 2.20 3.50 2.75 0 0.15 -0.45 0.25 -1 0.25 -0.55 0 -1 -0.30 -1 -0.70z"/>
  <path d="M33.75 42.45 c-2.60 -1.40 -2.50 -1.25 -1.55 -2.70 0.90 -1.35 2 -1.65 2.60 -0.65 0.25 0.40 0.10 0.45 -0.45 0.25 -0.55 -0.20 -0.85 -0.05 -0.85 0.40 0 0.40 0.35 0.75 0.80 0.75 0.55 0 0.70 0.30 0.45 1 -0.25 0.80 -0.10 1 0.95 1 0.70 0 1.40 -0.25 1.55 -0.50 0.25 -0.40 0.55 -0.35 1.05 0.05 2 1.65 -1.60 1.95 -4.55 0.40z"/>
  <path d="M57.25 42.20 c-1.75 -1.10 -2.45 -1.25 -5.85 -1.10 -2.15 0.10 -3.90 0 -3.90 -0.15 0 -0.45 4.40 -1.95 5.70 -1.95 1.35 0 6.30 3.05 6.30 3.85 0 0.80 0.10 0.85 -2.25 -0.65z"/>
  <path d="M35.75 38 l-2.50 -1.50 1.65 0 c1.55 0 3.60 1.40 3.60 2.50 0 0.65 0.20 0.70 -2.75 -1z"/>
  <path d="M58.25 35.90 c-0.45 -1.10 -0.80 -1.15 -6 -1.20 -4.05 0 -6 -0.25 -7.45 -0.85 -1.80 -0.80 -2.05 -0.80 -2.85 -0.05 -0.65 0.60 -1.40 0.70 -3.15 0.45 -1.30 -0.20 -2.45 -0.55 -2.60 -0.80 -0.15 -0.25 -0.85 -0.45 -1.60 -0.45 -2.50 0 -2.90 -0.60 -2.20 -3.60 0.80 -3.35 0.80 -3.45 0.35 -4.65 -0.30 -0.95 -0.30 -0.95 0.40 -0.15 0.90 1.15 1.35 1.15 1.35 -0.05 0 -1.20 2.25 -3.45 4.35 -4.30 1.50 -0.65 1.85 -0.60 3.30 0.25 0.90 0.55 2.35 1 3.25 1 0.95 0 2.25 0.45 2.95 1 0.70 0.55 1.55 1 1.90 1 0.30 0 1 0.45 1.50 1 0.45 0.50 1.85 1.35 3.05 1.80 1.20 0.45 2.20 1.15 2.20 1.50 0 0.35 0.70 1.35 1.50 2.20 0.85 0.85 1.50 1.85 1.50 2.20 0 0.35 0.45 1.25 1 1.95 1.50 1.90 1.30 2.85 -0.65 2.85 -1.20 0 -1.75 -0.30 -2.10 -1.10z"/>
  <path d="M32.05 17.15 c0 -0.75 0.20 -1.85 0.45 -2.40 0.35 -0.80 0.45 -0.55 0.45 1.10 0.05 1.15 -0.15 2.25 -0.45 2.40 -0.30 0.20 -0.50 -0.30 -0.45 -1.10z"/>
 </g>
 <g fill="#936263">
  <path d="M46.50 91.80 c0 -0.40 -0.30 -0.85 -0.60 -0.95 -0.50 -0.20 -0.50 -0.30 -0.05 -0.30 0.35 -0.05 0.85 0.40 1.15 0.95 0.35 0.70 0.35 1 0 1 -0.25 0 -0.50 -0.30 -0.50 -0.70z"/>
  <path d="M33.85 91.65 c-0.55 -0.55 -0.40 -1.40 0.45 -2.45 0.70 -0.90 0.75 -0.90 0.20 0.20 -0.30 0.65 -0.45 1.50 -0.30 1.90 0.30 0.75 0.15 0.90 -0.35 0.35z"/>
  <path d="M41.60 87.25 c-0.50 -0.60 -0.50 -0.75 0 -0.75 0.30 0 0.15 -0.30 -0.40 -0.70 -1.35 -1 -0.65 -1.40 1.25 -0.75 1.10 0.40 1.50 0.80 1.35 1.30 -0.15 0.40 -0.30 0.95 -0.30 1.20 0 0.70 -1.15 0.50 -1.90 -0.30z"/>
  <path d="M58 78.75 c0.70 -0.40 1.50 -0.70 1.75 -0.70 0.30 0 -0.05 0.30 -0.75 0.70 -0.70 0.40 -1.45 0.70 -1.75 0.70 -0.25 0 0.05 -0.30 0.75 -0.70z"/>
  <path d="M37.65 65.15 c-0.70 -0.15 -1.20 -0.70 -1.40 -1.65 -0.20 -0.85 -0.55 -1.65 -0.85 -1.80 -0.35 -0.25 -0.45 0 -0.30 0.70 0.20 0.75 0.10 1.10 -0.40 1.10 -0.45 0 -0.70 -0.55 -0.70 -1.55 0 -1.50 0.05 -1.55 1.65 -1.25 0.85 0.20 1.70 0.55 1.75 0.80 0.10 0.30 0.75 0.50 1.40 0.50 1.05 0 1.20 0.25 1.20 1.75 0 1.75 -0.10 1.85 -2.35 1.40z"/>
  <path d="M44.50 64.05 c0 -1 2.05 -1.30 2.60 -0.40 0.65 1.05 0.45 1.30 -1.10 1.25 -1.05 -0.05 -1.50 -0.30 -1.50 -0.85z"/>
  <path d="M50.10 62.40 c0.10 -0.60 0.55 -1.20 1.05 -1.30 1.20 -0.25 1.10 1.25 -0.20 1.90 -0.90 0.50 -1 0.45 -0.85 -0.60z"/>
  <path d="M81.95 46.40 c1.05 -2.70 2.55 -5.60 2.55 -5.05 0 0.80 -2.35 6.15 -2.70 6.15 -0.15 0 -0.10 -0.50 0.15 -1.10z"/>
  <path d="M54 46 c0 -0.25 0.25 -0.60 0.50 -0.75 0.30 -0.15 0.50 -0.75 0.50 -1.30 0 -1.25 1.05 -1.20 2.15 0.05 1 1.20 1.10 2 0.25 2.05 -0.35 0 -1.25 0.10 -2 0.20 -0.80 0.10 -1.40 0 -1.40 -0.25z"/>
  <path d="M48.65 44.80 l-1.40 -1.20 1.45 -0.60 c1.95 -0.75 3.10 -0.45 2.90 0.75 -0.10 0.55 -0.20 1.30 -0.20 1.65 -0.10 0.95 -1.20 0.70 -2.75 -0.60z"/>
  <path d="M32.15 41.20 c-0.35 -0.90 0.35 -2.30 1.25 -2.60 0.40 -0.10 0.60 0.45 0.60 1.60 0 1.90 -1.25 2.55 -1.85 1z"/>
  <path d="M32.85 25.15 c-0.20 -0.15 -0.30 -1.35 -0.30 -2.60 l0.10 -2.30 0.35 2.50 c0.40 2.65 0.35 2.95 -0.15 2.40z"/>
  <path d="M32 17.65 c0 -0.65 0.25 -1.15 0.50 -1.15 0.65 0 0.65 0.55 0 1.50 -0.40 0.60 -0.50 0.55 -0.50 -0.35z"/>
 </g>
 <g fill="#a4754c">
  <path d="M36.75 98 c0.50 -0.55 1 -0.90 1.15 -0.75 0.35 0.30 -0.90 1.75 -1.55 1.75 -0.25 0 -0.10 -0.45 0.40 -1z"/>
  <path d="M38.55 93.45 c-1.10 -2.15 -1.30 -2.85 -0.60 -2.05 1.25 1.40 1.55 1.40 1.55 -0.20 0 -1.15 0.05 -1.20 0.80 -0.50 0.40 0.45 1.15 0.80 1.60 0.80 0.65 0.05 0.50 0.30 -0.50 1.15 -1.75 1.40 -1.85 2.25 -0.15 1.15 1.60 -1.05 2.30 -1 0.95 0.10 -0.55 0.45 -1.25 1.30 -1.55 1.80 -0.50 0.85 -0.70 0.60 -2.10 -2.25z"/>
  <path d="M45.90 94.20 c-0.15 -0.25 0 -1.10 0.35 -1.90 0.40 -0.95 0.70 -1.20 0.85 -0.70 0.35 0.80 -0.85 3.25 -1.20 2.60z"/>
  <path d="M42 86.95 c0 -0.30 -0.35 -0.85 -0.75 -1.30 -1.10 -1.05 -0.70 -1.25 1.10 -0.60 1.20 0.40 1.50 0.75 1.30 1.50 -0.30 1 -1.65 1.35 -1.65 0.40z"/>
  <path d="M37.50 65.05 c-0.95 -0.25 -1.30 -0.70 -1.40 -1.95 -0.10 -0.90 -0.40 -1.60 -0.70 -1.60 -0.30 0 -0.40 0.50 -0.20 1.20 0.15 0.70 0.10 1.35 -0.15 1.50 -0.80 0.50 -2 -1.45 -2.30 -3.70 l-0.30 -2.25 0.95 1.15 c0.55 0.60 1.15 1.10 1.35 1.10 0.20 0 1.55 0.35 3 0.75 2.20 0.65 2.60 0.95 2.40 1.75 -0.15 0.55 0 1 0.30 1 0.30 0 0.55 -0.45 0.55 -0.95 0 -0.80 0.45 -1 3 -1.15 2.55 -0.10 3 0 3 0.70 0 0.45 0.10 1.10 0.25 1.50 0.15 0.40 -0.15 0.65 -0.85 0.70 -0.65 0.05 -2.60 0.15 -4.40 0.30 -1.80 0.15 -3.80 0.15 -4.50 -0.05z"/>
  <path d="M48.10 62.90 c0.15 -1.45 0.35 -1.65 1.75 -1.70 2.25 -0.10 2.45 1.05 0.45 2.25 -2.20 1.40 -2.40 1.35 -2.20 -0.55z"/>
  <path d="M53 55.75 c-0.90 -2.35 -1.20 -4.05 -0.60 -3.50 0.95 0.90 2.15 4.15 1.60 4.50 -0.30 0.15 -0.70 -0.30 -1 -1z"/>
  <path d="M50.40 45.65 c-1.20 -0.30 -1.15 -1.65 0.05 -1.65 0.70 0 0.95 0.30 0.90 1 -0.05 0.55 -0.05 0.95 -0.10 0.95 0 -0.05 -0.40 -0.15 -0.85 -0.30z"/>
  <path d="M57 44.90 c0 -1 0.05 -1.05 1 -0.15 0.55 0.50 1 1 1 1.10 0 0.05 -0.45 0.15 -1 0.15 -0.70 0 -1 -0.35 -1 -1.10z"/>
  <path d="M35.25 43.15 c-0.55 -0.10 -1.50 -0.60 -2.15 -1.05 -1.05 -0.80 -1.10 -1.05 -0.55 -2.25 0.70 -1.55 1.70 -1.75 2.40 -0.45 0.35 0.70 0.30 1.25 -0.25 2 -0.70 1.05 -0.70 1.10 0.75 1.10 0.80 0 1.65 -0.25 1.80 -0.50 0.25 -0.40 0.55 -0.35 1.05 0.05 1.30 1.05 -0.35 1.65 -3.05 1.10z"/>
  <path d="M32.05 17.15 c0 -0.50 0.20 -1.35 0.45 -1.90 0.35 -0.85 0.45 -0.75 0.45 0.60 0.05 0.85 -0.15 1.75 -0.45 1.90 -0.25 0.15 -0.50 -0.10 -0.45 -0.60z"/>
 </g>
 <g fill="#737c88">
  <path d="M0 96.80 c0 -1.80 0.20 -3.35 0.45 -3.50 0.20 -0.15 0.55 -1.45 0.65 -2.90 0.15 -1.45 0.55 -2.70 0.85 -2.80 0.75 -0.25 2.70 -4.10 2.10 -4.10 -0.25 0 0.25 -1.30 1.15 -2.85 1.60 -2.90 1.60 -2.90 4.45 -3.30 2 -0.30 3.20 -0.75 4.10 -1.60 1.55 -1.60 2.80 -1.65 1.40 -0.10 -0.55 0.60 -1.45 2 -2 3.10 -0.50 1.10 -1.45 2.90 -2.05 4 -1.10 2.10 -2.80 8.20 -3.40 12.50 -0.20 1.40 -0.55 3 -0.75 3.65 -0.55 1.40 -2.45 1.50 -2.45 0.10 0 -2.80 2.15 -11.35 3.95 -15.70 2.50 -6 1.50 -5.45 -1.65 0.85 -2.60 5.20 -4.45 11.90 -4 14.30 0.30 1.45 0.25 1.55 -1.25 1.55 l-1.55 0 0 -3.20z"/>
  <path d="M79.30 96.65 c0.15 -1.90 0.50 -4.20 0.80 -5.15 1.20 -4.10 2.90 -6.45 2.90 -4 0 0.55 0.35 1 0.75 1 0.50 0 0.75 0.50 0.75 1.50 0 1.15 0.20 1.50 1 1.50 0.90 0 1 0.35 1 3.15 0 3.85 -0.40 5.35 -1.35 5.35 -0.65 0 -0.75 -0.50 -0.50 -2.60 0.20 -1.75 0.15 -2.20 -0.15 -1.40 -0.20 0.70 -0.40 1.85 -0.45 2.65 -0.05 1.30 -0.15 1.35 -2.55 1.35 l-2.55 0 0.35 -3.35z"/>
  <path d="M87.75 93.20 c0.15 -3.75 0.50 -8.25 0.80 -10 0.55 -3.15 0.30 -5.25 -0.30 -2.40 -0.15 0.80 -0.50 2.45 -0.75 3.70 -0.25 1.25 -0.55 3.10 -0.75 4.15 -0.20 1.20 -0.55 1.85 -1.05 1.85 -0.65 0 -0.75 -0.55 -0.60 -3 0.15 -2.60 0.05 -3 -0.70 -3 -1.25 0 -1.15 -0.30 1.35 -4.25 1.25 -1.90 2.40 -3.90 2.55 -4.35 0.40 -1.10 0.40 -1.10 3.95 0.10 1.60 0.55 3.30 1 3.80 1 0.50 0 1.30 0.60 1.80 1.35 0.75 1.10 0.85 2.65 0.90 10.70 0 5.20 -0.10 9.45 -0.20 9.45 -0.10 0 -0.50 -0.40 -0.85 -0.85 -0.60 -0.80 -0.65 -0.75 -0.70 0.75 0 1.40 -0.15 1.60 -1.30 1.60 -1.25 0 -1.30 -0.10 -0.90 -1.60 0.50 -2.20 0.65 -10 0.20 -13.15 -0.20 -1.35 -0.40 -1.95 -0.45 -1.35 0 0.65 -0.40 2.40 -0.85 3.85 -0.40 1.50 -0.80 4.85 -0.85 7.45 -0.05 3.25 -0.30 4.80 -0.70 4.80 -0.30 0 -0.70 -0.30 -0.85 -0.60 -0.25 -0.50 -0.35 -0.50 -0.60 0 -0.15 0.30 -0.95 0.60 -1.70 0.60 l-1.45 0 0.20 -6.80z m2.70 3.20 c-0.05 -0.35 -0.25 -1.20 -0.45 -1.90 -0.35 -1.10 -0.40 -1.05 -0.45 0.65 -0.05 1 0.20 1.85 0.45 1.85 0.30 0 0.50 -0.30 0.45 -0.60z"/>
  <path d="M38.80 93.90 c-1 -1.45 -1.05 -2.20 -0.05 -1.20 0.40 0.40 0.75 0.95 0.75 1.25 0 0.70 1.35 0.70 1.75 0.05 0.15 -0.25 0.60 -0.50 0.90 -0.50 0.80 0.05 -1.15 1.50 -1.95 1.50 -0.35 0 -1 -0.50 -1.40 -1.10z"/>
  <path d="M39.80 93.15 c-0.95 -0.95 0.15 -5.45 1.55 -6.50 0.50 -0.40 0.60 -0.65 0.25 -0.65 -0.35 0 -0.60 -0.25 -0.60 -0.55 0 -0.30 0.50 -0.45 1.15 -0.35 2.25 0.30 1.45 6.50 -1.10 7.85 -0.50 0.30 -1.05 0.35 -1.25 0.20z"/>
 </g>
 <g fill="#b48f6c">
  <path d="M41.25 65.05 c-0.15 -0.10 -0.25 -0.80 -0.25 -1.55 0 -1.25 0.10 -1.30 2.95 -1.40 2.75 -0.10 2.95 0 3.15 1.15 0.20 0.95 0.05 1.25 -0.60 1.25 -0.65 0 -0.85 -0.30 -0.65 -1 0.15 -0.55 0 -1 -0.30 -1 -0.30 0 -0.55 0.55 -0.55 1.20 0 1 -0.30 1.20 -1.75 1.40 -1 0.10 -1.90 0.10 -2 -0.05z"/>
  <path d="M36.35 64.65 c-0.20 -0.15 -0.35 -0.95 -0.35 -1.75 0 -0.75 -0.25 -1.40 -0.55 -1.40 -0.35 0 -0.45 0.50 -0.35 1.25 0.15 0.80 0.05 1.25 -0.35 1.25 -1 0 -1.60 -1.10 -1.95 -3.50 -0.30 -2.20 -0.30 -2.25 0.55 -1.15 0.55 0.65 2.05 1.40 3.65 1.80 1.75 0.45 2.80 1 2.90 1.55 0.10 0.45 -0.05 0.80 -0.35 0.80 -0.30 0 -0.55 0.35 -0.55 0.75 0 0.40 -0.25 0.75 -0.55 0.75 -0.30 0 -0.45 -0.30 -0.30 -0.60 0.10 -0.35 0.05 -1.10 -0.20 -1.65 -0.30 -0.80 -0.40 -0.70 -0.40 0.65 -0.05 1.50 -0.50 2 -1.20 1.25z"/>
  <path d="M48.20 63.80 c-0.60 -1.55 0 -2.50 1.65 -2.60 0.95 -0.05 1.70 0.20 1.85 0.60 0.35 0.95 -0.60 1.40 -1.45 0.70 -0.60 -0.50 -0.75 -0.45 -0.75 0.40 0 1.30 -0.90 1.95 -1.30 0.90z"/>
  <path d="M48.30 44.55 c-0.85 -0.90 -0.80 -0.95 1.20 -1.30 2.40 -0.40 2.50 -0.35 1.95 1.15 -0.50 1.35 -2 1.45 -3.15 0.15z"/>
  <path d="M55 44.65 c0 -0.25 0.25 -0.75 0.50 -1.15 0.40 -0.65 0.65 -0.60 1.60 0.40 l1.10 1.10 -1.60 0 c-0.85 0 -1.60 -0.15 -1.60 -0.35z"/>
  <path d="M32.60 41.40 c-0.60 -0.80 0.10 -2.90 1 -2.90 0.35 0 0.95 0.45 1.25 1 0.50 0.75 0.50 1.10 -0.15 1.75 -0.95 0.90 -1.40 0.95 -2.10 0.15z"/>
  <path d="M32.30 16.25 c0.40 -2.50 0.70 -2.90 0.70 -0.95 0 0.80 -0.25 1.80 -0.55 2.20 -0.35 0.55 -0.40 0.20 -0.15 -1.25z"/>
 </g>
 <g fill="#d2914c">
  <path d="M36.50 98.65 c0 -0.60 1.90 -2.40 2.25 -2.05 0.15 0.10 -0.30 0.75 -1 1.40 -0.70 0.65 -1.25 0.95 -1.25 0.65z"/>
  <path d="M38.55 93.60 c-1.10 -2.20 -1.10 -2.30 -0.10 -1.25 0.60 0.60 1.05 1.35 1.05 1.65 0 0.65 1.35 0.65 1.75 0 0.15 -0.25 0.55 -0.50 0.85 -0.50 0.30 0 -0.05 0.55 -0.80 1.25 -0.75 0.70 -1.40 1.25 -1.45 1.25 -0.05 0 -0.65 -1.10 -1.30 -2.40z"/>
  <path d="M36.25 42.50 c1.35 -0.60 1.75 -0.60 1.75 0 0 0.30 -0.60 0.50 -1.35 0.45 -1.25 0 -1.30 -0.05 -0.40 -0.45z"/>
 </g>
 <g fill="#8c98a3">
  <path d="M5.25 97.40 c0.75 -6.15 3.20 -14.80 4.80 -16.70 1.25 -1.50 1.20 -0.05 -0.10 3.90 -0.75 2.30 -1.80 6.70 -2.25 9.80 -0.80 4.75 -1.05 5.60 -1.80 5.60 -0.85 0 -0.90 -0.30 -0.65 -2.60z"/>
  <path d="M79.35 97.15 c0.30 -4.40 1.85 -8.90 4.70 -13.90 2.55 -4.50 3.75 -6.15 4.15 -5.70 0.10 0.10 -0.20 2.35 -0.70 4.95 -0.55 2.60 -0.95 5.90 -0.95 7.30 -0.05 4.70 -0.70 10.20 -1.20 10.20 -0.25 0 -0.40 -1.45 -0.25 -3.45 0.20 -3.90 -0.35 -4.30 -0.85 -0.65 -0.50 3.70 -0.70 4.10 -2.05 4.10 -0.85 0 -1.20 -0.25 -1.20 -1 0 -0.55 -0.20 -1 -0.50 -1 -0.25 0 -0.50 0.45 -0.50 1 0 0.55 -0.20 1 -0.40 1 -0.25 0 -0.35 -1.30 -0.25 -2.85z m2.80 -4.30 c0.40 -1.55 0.60 -2.75 0.35 -2.60 -0.40 0.25 -1.50 4.15 -1.50 5.30 0 1.15 0.40 0.20 1.15 -2.70z"/>
  <path d="M88 97.15 c0.05 -4.10 0.85 -14.65 1.25 -16.25 0.20 -0.80 0.50 -1.40 0.70 -1.40 1.30 0.05 1.55 1.25 1.85 10.20 0.25 8.30 0.20 9.40 -0.45 9.15 -0.45 -0.15 -0.90 0.05 -1.05 0.45 -0.15 0.40 -0.75 0.70 -1.30 0.70 -0.90 0 -1 -0.30 -1 -2.85z"/>
  <path d="M0.20 97.45 c0.20 -0.95 0.55 -3.60 0.85 -5.85 0.30 -2.85 0.90 -4.95 1.75 -6.50 0.70 -1.30 1.90 -3.45 2.65 -4.85 0.75 -1.35 1.75 -2.60 2.25 -2.65 0.55 -0.15 0.80 0 0.60 0.35 -0.45 0.75 -0.20 0.70 1.50 -0.20 1.95 -1 3.40 -1 3 0.05 -0.15 0.45 -0.30 0.90 -0.30 1 0 0.10 -0.45 -0.05 -1.05 -0.40 -0.90 -0.60 -1.15 -0.50 -2.25 0.85 -1.90 2.35 -4.70 8.50 -6.45 14.25 -0.90 2.85 -1.90 5.30 -2.25 5.40 -0.45 0.15 -0.55 -0.25 -0.30 -1.45z"/>
  <path d="M96.25 95.45 c-0.40 -1.20 -1.05 -13.95 -0.65 -13.95 0.20 0 0.50 0.75 0.65 1.65 1.05 5.75 1.05 15.10 0 12.30z"/>
  <path d="M42 85.75 c-1.20 -0.70 -1.20 -0.70 -0.15 -0.75 0.60 0 1.25 0.25 1.40 0.55 0.55 0.85 0.10 0.90 -1.25 0.20z"/>
  <path d="M97.85 80.65 c-0.55 -2.10 -1.05 -2.45 -5.15 -3.70 -1.90 -0.55 -3.65 -1.25 -3.95 -1.55 -0.55 -0.55 -0.50 -0.55 5.15 1.10 3.85 1.20 4.80 2.05 4.50 4.40 -0.20 1.35 -0.20 1.35 -0.55 -0.25z"/>
  <path d="M13.50 76 c0 -0.60 1.40 -1.25 1.80 -0.85 0.15 0.15 -0.20 0.50 -0.75 0.85 -0.75 0.35 -1.05 0.35 -1.05 0z"/>
 </g>
 <g fill="#c0a293">
  <path d="M38.10 63.50 c0 -1.15 0.20 -1.50 0.95 -1.50 0.70 0 0.95 0.35 0.95 1.50 0 1.15 -0.25 1.50 -0.90 1.50 -0.70 0 -0.95 -0.40 -1 -1.50z"/>
  <path d="M41 63.50 c0 -1.80 0.55 -1.95 1.30 -0.25 0.60 1.30 0.45 1.75 -0.65 1.75 -0.40 0 -0.65 -0.60 -0.65 -1.50z"/>
  <path d="M43.50 63.70 c0 -1.55 1.15 -1.40 1.40 0.20 0.10 0.75 -0.10 1.10 -0.60 1.10 -0.55 0 -0.80 -0.45 -0.80 -1.30z"/>
  <path d="M36.30 63.90 c-0.70 -2.30 -0.70 -2.95 0.05 -2.80 0.50 0.10 0.85 0.80 0.90 1.80 0.15 1.55 -0.60 2.25 -0.95 1z"/>
  <path d="M33.80 63.20 c-0.45 -1.20 -0.35 -1.40 0.45 -0.70 0.85 0.70 1 1.50 0.30 1.50 -0.25 0 -0.60 -0.35 -0.75 -0.80z"/>
  <path d="M48 62.75 c0 -0.80 0.30 -1.25 0.75 -1.25 0.45 0 0.75 0.45 0.75 1.25 0 0.80 -0.30 1.25 -0.75 1.25 -0.45 0 -0.75 -0.45 -0.75 -1.25z"/>
  <path d="M50.50 62.30 c0 -0.40 0.25 -0.90 0.50 -1.05 0.30 -0.15 0.50 0.05 0.50 0.45 0 0.40 -0.20 0.90 -0.50 1.05 -0.25 0.15 -0.50 -0.05 -0.50 -0.45z"/>
  <path d="M54.85 44.65 c0.45 -0.80 0.90 -1.45 0.90 -1.55 0.20 -0.25 2.75 2 2.75 2.45 0 0.25 -1 0.45 -2.25 0.45 l-2.25 0 0.85 -1.35z"/>
  <path d="M48.50 44.60 l-1.15 -0.90 1.55 -0.65 c2.25 -0.95 3.25 -0.45 2.50 1.20 -0.65 1.50 -1.40 1.55 -2.90 0.35z"/>
  <path d="M36.75 42.50 c0.15 -0.25 0.65 -0.50 1.05 -0.50 0.40 0 0.70 0.25 0.70 0.50 0 0.30 -0.45 0.50 -1.05 0.50 -0.55 0 -0.85 -0.20 -0.70 -0.50z"/>
  <path d="M32.85 41.65 c-0.20 -0.15 -0.35 -0.80 -0.35 -1.45 0 -1.45 1.45 -2 2.30 -0.85 0.50 0.75 0.50 1.05 -0.15 1.80 -0.85 0.90 -1.30 1.05 -1.80 0.50z"/>
 </g>
 <g fill="#9ca9b2">
  <path d="M5.65 96.65 c0.40 -3.95 1.90 -10 3.35 -13.40 1.45 -3.40 1.80 -2.45 0.55 1.60 -0.90 3.05 -1.90 7.80 -2.80 13.30 -0.15 1 -0.55 1.85 -0.85 1.85 -0.35 0 -0.45 -1.05 -0.25 -3.35z"/>
  <path d="M85.30 95.65 c0.45 -3.80 0.70 -4 0.70 -0.50 0 1.55 -0.25 2.95 -0.50 3.10 -0.35 0.20 -0.40 -0.65 -0.20 -2.60z"/>
  <path d="M1.05 95.50 c-0.15 -5.15 2.15 -12.65 4 -13.25 0.45 -0.15 1.20 -0.85 1.65 -1.50 0.45 -0.70 1.05 -1.25 1.30 -1.25 0.25 0 -0.50 1.65 -1.70 3.65 -1.95 3.35 -3.45 7.15 -4.75 11.85 -0.35 1.45 -0.45 1.50 -0.50 0.50z"/>
  <path d="M80.05 94.40 c-0.05 -0.80 0.20 -1.40 0.45 -1.40 0.60 0 0.60 0.40 0 1.75 -0.40 0.90 -0.45 0.85 -0.45 -0.35z"/>
  <path d="M95.95 89.75 c-0.15 -2.45 -0.25 -4.60 -0.15 -4.70 0.55 -0.65 0.75 0.80 0.60 4.75 l-0.15 4.45 -0.30 -4.50z"/>
  <path d="M82.50 86.65 c0 -0.60 4.75 -8.65 5.05 -8.65 0.45 0 -0.50 4.10 -1.10 4.85 -0.30 0.35 -0.80 0.55 -1.10 0.50 -0.30 -0.05 -0.95 0.75 -1.45 1.80 -0.85 1.70 -1.40 2.30 -1.40 1.50z"/>
  <path d="M98.05 79.90 c-0.05 -0.45 -0.55 -1.20 -1.15 -1.60 -0.60 -0.45 -0.90 -0.80 -0.60 -0.80 0.85 0 2.35 1.90 2.05 2.60 -0.20 0.45 -0.30 0.35 -0.30 -0.20z"/>
  <path d="M90.75 76.25 c-1.10 -0.40 -1.55 -0.65 -1 -0.65 0.55 0 1.80 0.30 2.75 0.65 2.25 0.85 0.90 0.85 -1.75 0z"/>
 </g>
 <g fill="#d6bcb6">
  <path d="M38.50 63.50 c0 -0.95 0.25 -1.50 0.70 -1.50 0.50 0 0.70 0.50 0.70 1.50 -0.05 0.90 -0.30 1.50 -0.75 1.50 -0.40 0 -0.65 -0.60 -0.65 -1.50z"/>
  <path d="M41.20 63.75 c0.15 -1.40 0.80 -2.35 0.80 -1.10 0 0.40 0.15 1.10 0.30 1.55 0.20 0.50 0.05 0.80 -0.45 0.80 -0.55 0 -0.75 -0.40 -0.65 -1.25z"/>
  <path d="M46 63.25 c0 -0.70 0.25 -1.25 0.50 -1.25 0.30 0 0.50 0.55 0.50 1.25 0 0.70 -0.20 1.25 -0.50 1.25 -0.25 0 -0.50 -0.55 -0.50 -1.25z"/>
  <path d="M48.50 62.75 c0 -0.70 0.25 -1.25 0.50 -1.25 0.30 0 0.50 0.55 0.50 1.25 0 0.70 -0.20 1.25 -0.50 1.25 -0.25 0 -0.50 -0.55 -0.50 -1.25z"/>
  <path d="M54.90 45.15 c0.25 -0.50 0.55 -1.20 0.65 -1.55 0.15 -0.50 0.55 -0.40 1.60 0.40 1.65 1.30 1.35 2 -0.95 2 -1.50 0 -1.65 -0.10 -1.30 -0.85z"/>
  <path d="M49.10 44.80 c-1.75 -1 -1.75 -1.15 -0.20 -1.70 1.85 -0.65 2.80 -0.05 2.35 1.35 -0.35 1.20 -0.55 1.20 -2.15 0.35z"/>
  <path d="M37 42.50 c0 -0.25 0.35 -0.50 0.75 -0.50 0.40 0 0.75 0.25 0.75 0.50 0 0.30 -0.35 0.50 -0.75 0.50 -0.40 0 -0.75 -0.20 -0.75 -0.50z"/>
  <path d="M33.15 41.65 c-0.35 -0.15 -0.65 -0.80 -0.65 -1.45 0 -1.40 1.70 -1.70 2.20 -0.35 0.40 0.95 -0.65 2.15 -1.55 1.80z"/>
 </g>
 <g fill="#dfd0d6">
  <path d="M38.65 63.50 c0 -0.95 0.25 -1.50 0.75 -1.50 0.45 0 0.60 0.30 0.40 0.80 -0.15 0.45 -0.30 1.10 -0.30 1.50 0 0.40 -0.20 0.70 -0.40 0.70 -0.25 0 -0.45 -0.65 -0.45 -1.50z"/>
  <path d="M46.35 63.80 c-0.20 -0.50 -0.25 -1.05 -0.10 -1.20 0.45 -0.45 0.85 0.30 0.65 1.25 -0.15 0.85 -0.20 0.85 -0.55 -0.05z"/>
  <path d="M48.50 62.75 c0 -0.70 0.20 -1.25 0.45 -1.25 0.20 0 0.30 0.55 0.15 1.25 -0.10 0.70 -0.30 1.25 -0.40 1.25 -0.10 0 -0.20 -0.55 -0.20 -1.25z"/>
  <path d="M55 45.65 c0 -0.25 0.20 -0.65 0.40 -0.95 0.45 -0.75 2.80 0.05 2.35 0.80 -0.35 0.60 -2.75 0.70 -2.75 0.15z"/>
  <path d="M49 44.45 l-1.25 -0.50 1.45 -0.80 c1.55 -0.80 2.65 -0.30 2.15 1.05 -0.35 0.90 -0.60 0.95 -2.35 0.25z"/>
  <path d="M32.60 40.40 c0.25 -1.70 1.90 -1.85 1.90 -0.20 0 1 -0.25 1.30 -1.05 1.30 -0.75 0 -1 -0.25 -0.85 -1.10z"/>
 </g>
 <g fill="#fcf4f3">
  <path d="M49.35 44.25 c-0.90 -0.65 -0.90 -0.70 0.15 -1.25 1.30 -0.70 2.20 -0.10 1.70 1.15 -0.35 1 -0.65 1.05 -1.85 0.10z"/>
  <path d="M32.50 40.90 c0 -0.35 0.20 -0.95 0.45 -1.35 0.60 -0.95 2.15 -0.30 1.95 0.80 -0.20 1.05 -2.40 1.55 -2.40 0.55z"/>
 </g>
</svg>