<?xml version="1.0" encoding="utf-8"?>
<!DOCTYPE svg PUBLIC "-//W3C//DTD SVG 1.0//EN" "http://www.w3.org/TR/2001/REC-SVG-20010904/DTD/svg10.dtd">
<svg version="1.0" xmlns="http://www.w3.org/2000/svg" width="100px" height="100px" viewBox="0 0 100 100" preserveAspectRatio="xMidYMid meet">
 <g fill="#0b0908">
  <path d="M35.50 98.80 c0 -0.65 0.35 -1.45 0.75 -1.80 0.65 -0.55 0.55 -0.90 -0.50 -2.70 -0.70 -1.20 -1.25 -2.85 -1.25 -3.70 0 -1.50 0.15 -1.60 1.70 -1.60 1.45 0 1.80 0.25 2.85 2.25 1.05 1.95 1.25 2.15 2 1.50 0.40 -0.40 1.25 -0.75 1.85 -0.75 0.65 0 1.10 -0.30 1.10 -0.75 0 -0.50 0.55 -0.75 1.75 -0.75 1.65 0 1.75 0.10 1.75 1.75 0 1.40 -0.20 1.75 -1 1.75 -0.65 0 -1 0.35 -1 0.90 0 0.60 -0.65 1.15 -1.75 1.60 -1.25 0.50 -1.75 1 -1.75 1.80 0 1.35 -0.85 1.70 -4.05 1.70 -2.25 0 -2.45 -0.10 -2.45 -1.20z"/>
  <path d="M78 90.55 c0 -2.45 0.45 -3.05 2.30 -3.05 1.55 0 1.70 0.15 1.70 1.45 0 2.45 -0.45 3.05 -2.30 3.05 -1.55 0 -1.70 -0.15 -1.70 -1.45z"/>
  <path d="M0 89.35 c0 -0.40 1.50 -3.30 3.35 -6.45 l3.30 -5.80 2.40 -0.20 c1.50 -0.15 3.15 -0.75 4.30 -1.55 1.05 -0.70 5.10 -2.35 9.05 -3.65 5.20 -1.75 7.10 -2.55 7.10 -3.15 0 -2.20 -1.15 -9.75 -2.05 -13.15 -1.15 -4.70 -1.20 -5.40 -0.05 -5.40 1 0 2.20 4.60 3.40 12.95 1.20 8.40 1.55 7.65 -4.65 9.70 -3 1 -6.90 2.35 -8.75 2.95 -1.85 0.65 -3.40 1.40 -3.40 1.75 0 0.65 -3 1.65 -5 1.65 -1 0 -1.45 0.45 -2.15 2.20 -0.50 1.15 -1.35 2.65 -1.85 3.20 -0.55 0.60 -1 1.35 -1.05 1.70 0 0.35 -0.40 1.35 -0.90 2.15 -0.90 1.60 -3.05 2.35 -3.05 1.10z"/>
  <path d="M47 80.90 c0 -1.60 0.10 -1.70 3.15 -2.55 4.25 -1.25 12.70 -5.50 14.85 -7.50 2.15 -2 3 -3.80 3 -6.25 0 -2.65 0.45 -3.90 1.50 -4.40 0.50 -0.25 2.10 -1.55 3.55 -2.95 2.55 -2.35 2.65 -2.60 2.85 -5.50 l0.25 -3 -2.70 2.90 c-2.50 2.60 -2.95 2.85 -4.85 2.85 -2 0 -2.10 -0.10 -2.10 -1.40 0 -0.80 0.80 -3.80 1.80 -6.65 1 -2.85 1.95 -6.60 2.05 -8.30 0.25 -2.70 0.10 -3.35 -1.05 -5.30 -4.15 -7.15 -11.95 -12.05 -21 -13.30 -2.45 -0.35 -3.65 -0.25 -6.05 0.50 -3.85 1.20 -7.45 4.50 -8 7.30 -0.95 5.05 -1 4.65 0.70 4.65 3.50 0 6.55 2.85 6.55 6.05 0 1.10 -0.20 1.95 -0.50 1.95 -0.25 0 -0.50 0.65 -0.50 1.45 0 1.20 -0.25 1.45 -1.55 1.75 -0.85 0.15 -2.45 0.30 -3.50 0.30 -1.70 0 -1.95 -0.15 -2 -1.10 l0 -1.15 -0.55 1.15 c-0.30 0.60 -0.75 1.10 -1 1.10 -0.20 0 -0.40 0.30 -0.40 0.70 0 0.40 -0.55 1.15 -1.20 1.65 -0.65 0.50 -1.30 1.45 -1.50 2.05 -0.45 1.35 -2.30 1.50 -2.30 0.20 0 -0.55 0.75 -1.90 1.65 -3.10 0.85 -1.20 1.95 -2.60 2.35 -3.15 0.90 -1.25 1.55 -10.70 1.45 -21.45 0 -4.25 0.20 -8.10 0.50 -9.05 1.10 -3.20 6.95 -6.80 14.80 -9.10 2.40 -0.70 4.75 -1.25 5.30 -1.25 0.50 0 1.05 -0.20 1.20 -0.50 0.40 -0.65 8.45 -0.65 9.65 -0.05 0.45 0.30 2.45 0.95 4.35 1.50 5 1.45 7.35 2.85 11.50 7 5.20 5.15 6.90 9.30 7.55 18.80 0.25 3.90 0.15 5.30 -1.05 10.25 -1.55 6.40 -2.10 7.70 -6.40 14.50 -3.25 5.15 -5.80 8.15 -7.95 9.30 -1.25 0.65 -1.40 1 -1.40 3.50 l0 2.75 3.65 1.65 c1.95 0.95 4.45 1.85 5.50 2 1.15 0.20 1.85 0.65 1.85 1.05 0 1.20 -3.60 0.90 -7.05 -0.45 -3 -1.25 -4.45 -1.25 -4.45 -0.05 0 1 -4.15 4.55 -6.95 6 -3.85 1.95 -11.20 4.25 -13.50 4.25 -2 0 -2.05 -0.05 -2.05 -1.60z m28.05 -56.05 c-0.55 -1.35 -3.90 -5 -6.20 -6.65 -9.90 -7.10 -13.35 -8.95 -18.25 -9.75 -3.85 -0.60 -5.30 -0.40 -10.95 1.45 l-4.15 1.35 0 1.90 c0 1 0.15 1.85 0.40 1.85 0.20 -0.05 1.80 -0.35 3.60 -0.75 3.70 -0.80 11.75 -0.95 14.75 -0.25 1.10 0.25 2.25 0.80 2.55 1.20 0.30 0.45 0.80 0.80 1.10 0.80 0.30 0 0.75 0.30 0.95 0.70 0.20 0.35 1.55 1.25 2.90 1.95 3.60 1.80 8.15 5.30 10.75 8.20 l2.25 2.50 0.35 -1.65 c0.20 -0.95 0.20 -2.20 -0.05 -2.85z"/>
  <path d="M97.25 80.50 c-0.40 -1.25 -1.90 -2 -7.15 -3.55 -2.75 -0.80 -4.20 -1.50 -4.40 -2.05 -0.15 -0.50 -0.80 -1.05 -1.50 -1.20 -1.55 -0.40 -1.55 -1.50 0 -1.90 1.55 -0.40 2.70 0.05 3.05 1.20 0.20 0.60 1.80 1.35 5.15 2.45 2.65 0.85 5.10 1.70 5.35 1.90 0.75 0.55 2.25 3 2.25 3.65 0 0.95 -2.40 0.55 -2.75 -0.50z"/>
  <path d="M33 76.25 c0 -1.65 0.10 -1.75 1.75 -1.75 1.65 0 1.75 0.10 1.75 1.75 0 1.65 -0.10 1.75 -1.75 1.75 -1.65 0 -1.75 -0.10 -1.75 -1.75z"/>
  <path d="M43.50 75.80 c0 -1.55 0.25 -1.85 2.80 -3.35 1.55 -0.85 4.15 -2.70 5.75 -4 2.05 -1.75 3.35 -2.45 4.45 -2.45 1.40 0 1.50 0.15 1.50 1.70 0 1.45 -0.40 2.10 -2.50 3.90 -3.75 3.25 -8.40 5.90 -10.35 5.90 -1.55 0 -1.65 -0.10 -1.65 -1.70z"/>
  <path d="M50 63.40 c0.05 -2.25 1.05 -3.40 2.95 -3.40 1.45 0 1.55 0.10 1.55 1.90 0 2.35 -0.70 3.10 -2.85 3.10 -1.55 0 -1.65 -0.10 -1.65 -1.60z"/>
  <path d="M50.65 46.65 c-0.35 -0.10 -0.65 -0.65 -0.65 -1.10 0 -0.80 -0.35 -0.85 -2.55 -0.65 l-2.55 0.25 0.35 -3.70 c0.20 -2.50 0.60 -3.90 1.15 -4.35 1.25 -0.95 4.05 -1.65 7.90 -1.95 4.45 -0.35 5.70 0.20 5.70 2.60 0 1.65 -0.10 1.75 -1.75 1.75 -0.95 0 -1.75 0.25 -1.75 0.50 0 0.30 0.25 0.50 0.50 0.50 0.80 0 0.60 3.35 -0.25 3.70 -0.40 0.15 -0.75 0.70 -0.75 1.25 0 0.50 -0.35 1.10 -0.80 1.25 -0.90 0.35 -3.65 0.35 -4.55 -0.05z"/>
 </g>
 <g fill="#11131d">
  <path d="M31.50 98.50 c0 -1.40 0.10 -1.50 2 -1.50 1.90 0 2 0.10 2 1.50 0 1.40 -0.10 1.50 -2 1.50 -1.90 0 -2 -0.10 -2 -1.50z"/>
  <path d="M75 97.85 c0 -5 2.20 -10.55 6.70 -17.05 1.70 -2.45 2.15 -2.80 3.60 -2.80 1.60 0 1.70 0.10 1.70 1.65 0 0.90 -0.20 1.85 -0.45 2.15 -0.90 1 -5.45 10.10 -5.75 11.55 -0.20 0.85 -0.80 2.40 -1.35 3.45 -0.50 1.05 -0.95 2.20 -0.95 2.55 0 0.40 -0.65 0.65 -1.75 0.65 -1.75 0 -1.75 0 -1.75 -2.15z"/>
  <path d="M34.85 95 c-0.75 -1.65 -1.35 -3.70 -1.35 -4.50 0 -1.40 0.10 -1.50 1.95 -1.50 1.85 0 2.10 0.15 3.40 2.45 1.05 1.90 1.50 2.35 2 1.95 0.35 -0.30 0.65 -1.15 0.65 -1.95 0 -1.45 0.05 -1.45 3 -1.45 3.30 0 3.45 0.20 2.70 3.85 -0.50 2.45 -6.15 5.40 -6.85 3.55 -0.15 -0.50 -0.45 -0.50 -1.30 0 -2 1.15 -2.75 0.75 -4.20 -2.40z m8.65 -0.60 c0.45 -0.15 0.50 -0.35 0.15 -0.55 -0.30 -0.20 -0.95 0.15 -1.45 0.80 -0.55 0.60 -0.60 0.85 -0.20 0.55 0.40 -0.30 1.10 -0.65 1.50 -0.80z"/>
  <path d="M0 89.30 c0 -0.40 0.20 -0.85 0.45 -1.05 0.30 -0.15 1.10 -1.50 1.85 -3 0.70 -1.50 1.50 -2.75 1.75 -2.75 0.25 0 0.45 0.80 0.45 1.75 0 0.95 -0.20 1.75 -0.50 1.75 -0.25 0 -0.50 0.45 -0.50 1 0 0.55 -0.20 1 -0.50 1 -0.25 0 -0.50 0.45 -0.50 1 0 0.75 -0.35 1 -1.25 1 -0.75 0 -1.25 -0.30 -1.25 -0.70z"/>
  <path d="M9 88.45 c0 -1.95 3.60 -11.60 4.85 -12.90 0.95 -1 3.80 -2.15 11.55 -4.65 2.95 -0.95 4.60 -1.75 4.60 -2.20 0 -0.40 0.30 -0.70 0.70 -0.70 0.70 0 1.30 1.45 1.30 3.40 0 0.60 0.25 1.10 0.55 1.10 0.30 0 1.30 0.60 2.25 1.30 1.35 1.05 1.70 1.65 1.70 3 0 1.55 -0.10 1.70 -1.55 1.70 -2.20 0 -4.95 -2.25 -4.95 -4.05 0 -0.90 -0.25 -1.45 -0.70 -1.45 -0.40 0 -0.80 -0.25 -0.90 -0.55 -0.10 -0.35 -1.95 0.15 -4.90 1.30 -2.60 1 -5.25 1.95 -5.85 2.10 -0.90 0.20 -1.15 0.60 -1.15 1.85 0 0.85 -0.95 3.95 -2.10 6.90 -2.05 5.35 -2.10 5.40 -3.75 5.40 -1.50 0 -1.65 -0.15 -1.65 -1.55z"/>
  <path d="M54.50 85.30 c0 -1.35 0.35 -1.95 1.80 -3.05 0.95 -0.75 1.70 -1.45 1.60 -1.55 -0.10 -0.05 -1.65 0.30 -3.40 0.80 -1.80 0.55 -4.20 1.20 -5.35 1.50 -1.60 0.40 -2.15 0.80 -2.15 1.50 0 0.80 -0.35 1 -1.75 1 -1.65 0 -1.75 -0.10 -1.75 -1.75 0 -0.95 0.25 -1.75 0.50 -1.75 0.30 0 0.50 -0.45 0.50 -0.95 0 -1 0.90 -1.55 2.60 -1.55 0.55 0 3 -0.65 5.50 -1.50 2.45 -0.80 4.70 -1.50 4.95 -1.50 0.30 0 0.85 -0.35 1.25 -0.75 0.45 -0.40 1.30 -0.75 2 -0.75 0.65 0 1.20 -0.25 1.20 -0.50 0 -0.30 0.85 -1.30 1.95 -2.25 1.05 -0.95 2.45 -2.55 3.10 -3.50 1.75 -2.55 3.20 -2.25 1.90 0.40 -0.50 1.05 -0.45 1.05 0.25 0.15 0.70 -0.90 0.90 -0.85 4.95 0.90 2.30 1 4.45 1.80 4.80 1.80 0.30 0 0.55 0.35 0.55 0.75 0 0.50 -0.50 0.75 -1.45 0.75 -1.75 0 -4.55 -0.95 -4.55 -1.55 0 -0.25 -0.55 -0.45 -1.25 -0.45 -0.95 0 -1.25 0.25 -1.25 1.05 0 1.70 -0.95 2.95 -2.25 2.95 -1.10 0 -1.25 0.25 -1.25 1.70 0 1.35 -0.45 2.10 -2.35 3.95 -4.25 4.10 -6.95 5.85 -8.85 5.85 -1.70 0 -1.80 -0.10 -1.80 -1.70z m0.60 -6.10 c5.35 -1.90 9 -4 11.20 -6.35 1.80 -1.95 1.80 -2 0.20 -0.50 -2.25 2 -7.45 4.85 -12.40 6.65 -2.10 0.80 -3.60 1.45 -3.25 1.50 0.30 0 2.25 -0.60 4.25 -1.30z"/>
  <path d="M98.50 80.75 c0 -0.40 -0.45 -0.75 -1 -0.75 -0.55 0 -1.15 -0.35 -1.30 -0.75 -0.20 -0.40 -0.75 -0.75 -1.25 -0.75 -0.60 0 -0.95 -0.35 -0.95 -1 0 -0.55 0.35 -1 0.75 -1 1.35 0 3.65 1.45 4 2.50 0.15 0.55 0.55 1 0.80 1 0.25 0 0.45 0.35 0.45 0.75 0 0.40 -0.35 0.75 -0.75 0.75 -0.40 0 -0.75 -0.35 -0.75 -0.75z"/>
  <path d="M5.50 79.50 c0 -1.05 1.95 -2.45 2.95 -2.15 1.20 0.30 1.45 1.65 0.30 1.65 -0.40 0 -0.75 0.25 -0.75 0.50 0 0.30 -0.55 0.50 -1.25 0.50 -0.70 0 -1.25 -0.20 -1.25 -0.50z"/>
  <path d="M85.50 75.25 c-0.25 -0.70 -0.70 -1.25 -1 -1.25 -0.25 0 -0.50 -0.45 -0.50 -1 0 -0.65 0.35 -1 0.95 -1 1 0 2.55 1.20 2.55 2 0 0.20 0.80 0.55 1.75 0.70 2.80 0.55 2.30 1.80 -0.75 1.80 -2.25 0 -2.60 -0.15 -3 -1.25z"/>
  <path d="M77.15 51.25 c0 -1.10 0.10 -1.50 0.20 -0.85 0.10 0.60 0.10 1.50 0 2 -0.15 0.45 -0.25 -0.05 -0.20 -1.15z"/>
  <path d="M78 52.80 c0 -0.10 1.10 -2.40 2.45 -5.15 2.70 -5.35 4.90 -12.85 5.40 -18 0.25 -2.75 0.40 -3.15 0.80 -2.10 1.25 3.30 -1.85 15.45 -5.50 21.60 -1.95 3.20 -3.15 4.60 -3.15 3.65z"/>
  <path d="M73.10 30.90 c-2.65 -3.90 -8.05 -8.35 -13.10 -10.90 -1.25 -0.60 -2.40 -1.40 -2.60 -1.70 -0.20 -0.30 -0.55 -0.55 -0.75 -0.55 -0.20 0 -0.90 -0.50 -1.50 -1.10 -1.95 -1.95 -10.10 -2.15 -16.15 -0.40 -1.50 0.45 -3.30 0.85 -3.95 0.90 -1.20 0.10 -1.25 -0.05 -1.20 -2.65 0.10 -2.70 0.05 -2.70 -0.35 -0.75 -0.25 1.10 -0.45 2.80 -0.45 3.70 -0.05 1.25 -0.20 1.60 -0.60 1.20 -0.35 -0.35 -0.40 -1.80 -0.15 -4.20 0.30 -3.50 0.45 -3.80 2.45 -5.75 3.25 -3.15 11.25 -6.55 17.55 -7.45 3.55 -0.50 2.20 0.35 -2.25 1.45 -4.40 1.10 -9.55 3.15 -12.45 5 -1.15 0.70 -2.10 1.40 -2.10 1.50 0 0.10 1.50 -0.35 3.35 -1.05 4.25 -1.55 8.40 -1.90 12.95 -1.20 5.15 0.80 8.50 2.55 18.60 9.80 2.95 2.10 6.05 5.80 6.40 7.55 0.55 2.85 -0.65 8.70 -1.75 8.70 -0.30 0 -1.15 -0.95 -1.95 -2.10z"/>
  <path d="M68.20 28.45 c-1.95 -2.05 -6.85 -5.55 -9.80 -7 -2.50 -1.20 -3.35 -2.30 -1.20 -1.45 4.75 1.80 8.50 4.45 11.35 8.05 1.85 2.35 1.70 2.55 -0.35 0.40z"/>
  <path d="M32.30 24.40 c-0.40 -1.65 -0.35 -2.40 0.20 -2.40 0.30 0 0.50 0.35 0.50 0.75 0 0.40 0.25 0.75 0.50 0.75 0.30 0 0.50 0.45 0.50 1 0 1.35 -1.30 1.25 -1.70 -0.10z"/>
  <path d="M85.15 21.95 c-0.85 -3.60 -3.25 -8.35 -5.65 -11.25 -2.60 -3.20 -2.55 -3.65 0.20 -1.15 3.45 3.15 6.90 10.90 6.25 14.15 -0.10 0.50 -0.50 -0.30 -0.80 -1.75z"/>
 </g>
 <g fill="#27170c">
  <path d="M32.10 98.65 c0.15 -1.20 0.40 -1.40 2.05 -1.55 1.75 -0.15 1.85 -0.10 1.85 1.35 0 1.50 -0.10 1.55 -2.05 1.55 -1.90 0 -2 -0.05 -1.85 -1.35z"/>
  <path d="M38.50 99.55 c0 -0.30 0.50 -0.85 1.10 -1.25 1.25 -0.90 0.80 -1.80 -0.50 -1 -1.25 0.80 -2.10 0.30 -2.05 -1.20 0.05 -0.90 0.15 -1.05 0.30 -0.45 0.20 0.70 0.40 0.80 0.95 0.30 0.60 -0.50 0.50 -0.95 -0.65 -3 -0.70 -1.35 -1.60 -2.45 -2 -2.45 -0.35 0 -0.65 -0.20 -0.65 -0.50 0 -0.25 0.80 -0.50 1.75 -0.50 1.65 0 1.75 0.10 1.75 1.75 0 1.65 0.10 1.75 1.75 1.75 1.25 0 1.75 -0.20 1.75 -0.75 0 -0.45 0.30 -0.75 0.65 -0.70 1.15 0.15 2.85 -0.65 2.85 -1.35 0 -0.45 0.60 -0.70 1.75 -0.70 1.65 0 1.75 0.10 1.75 1.75 0 1.20 -0.25 1.75 -0.75 1.75 -0.40 0 -0.75 0.35 -0.75 0.75 0 0.40 -0.30 0.75 -0.60 0.75 -0.35 0 -1.20 0.15 -1.90 0.30 -1.10 0.25 -1.15 0.20 -0.45 -0.40 0.95 -0.75 1.85 -3.20 1.05 -2.70 -1.25 0.75 -4.60 4 -4.60 4.45 0 0.25 0.55 0.10 1.25 -0.35 1.05 -0.70 1.25 -0.70 1.25 -0.10 0 0.40 -0.20 0.90 -0.50 1.05 -0.25 0.15 -0.50 0.95 -0.50 1.80 0 1.35 -0.10 1.45 -2 1.45 -1.10 0 -2 -0.20 -2 -0.45z"/>
  <path d="M35 91.90 c0 -0.95 0.10 -1 0.50 -0.40 0.65 0.95 0.65 1.50 0 1.50 -0.25 0 -0.50 -0.50 -0.50 -1.10z"/>
  <path d="M43 84.25 c0 -1.20 0.25 -1.75 0.75 -1.75 0.50 0 0.75 -0.50 0.75 -1.50 0 -1.05 0.25 -1.50 0.80 -1.50 1.75 0 10.15 -3.25 14.10 -5.45 2.30 -1.25 4.60 -2.50 5.15 -2.80 0.50 -0.25 0.95 -0.65 0.95 -0.85 0 -0.90 2.35 -3.85 3.15 -3.90 1.85 0 0.50 3.35 -2.50 6.05 -2.60 2.35 -8.20 5.20 -14.30 7.20 -6.05 2 -5.80 2.30 0.45 0.45 7.10 -2.05 12 -4.70 15.30 -8.30 2.75 -3.05 4.10 -3.65 2.85 -1.35 -0.75 1.40 -1.70 2.45 -2.30 2.45 -0.25 0 -0.65 0.50 -0.90 1.15 -0.70 1.55 -9.85 6 -15.85 7.70 -4.70 1.30 -4.90 1.40 -4.90 2.75 0 1.25 -0.15 1.40 -1.75 1.40 -1.65 0 -1.75 -0.10 -1.75 -1.75z"/>
  <path d="M38.50 83.80 c0 -1.40 -0.40 -2.10 -2.35 -3.80 -1.35 -1.15 -2.90 -2.35 -3.50 -2.65 -0.75 -0.30 -1.15 -0.95 -1.15 -1.75 0 -1.10 0.10 -1.15 0.90 -0.55 0.70 0.55 0.65 0.50 -0.10 -0.45 l-0.95 -1.10 1.70 0 c0.95 0.05 2.25 0.35 2.95 0.75 0.70 0.40 2 0.70 2.95 0.75 1.70 0 7.25 -2.20 8.45 -3.35 0.35 -0.35 0.95 -0.65 1.35 -0.65 0.35 0 0.75 -0.35 0.95 -0.75 0.15 -0.40 0.70 -0.75 1.25 -0.75 0.50 0 1.05 -0.45 1.20 -1.05 0.15 -0.55 0.75 -1.15 1.30 -1.30 0.55 -0.15 1.35 -0.80 1.80 -1.45 0.55 -0.90 1.25 -1.20 2.50 -1.20 1.70 0 1.75 0.05 1.75 1.90 0 1.50 -0.35 2.25 -1.65 3.50 -0.90 0.90 -2.05 1.60 -2.50 1.60 -0.45 0 -0.85 0.35 -0.85 0.75 0 0.45 -0.40 0.95 -0.85 1.10 -0.45 0.20 -1.25 0.75 -1.75 1.25 -0.50 0.50 -1.25 0.90 -1.65 0.90 -0.40 0 -0.75 0.20 -0.75 0.45 0 0.50 -4.10 2.30 -6.40 2.80 l-1.65 0.35 0.30 3.20 0.35 3.20 -1.80 0 c-1.70 0 -1.80 -0.10 -1.80 -1.70z m12.75 -11.55 c1.65 -1.20 3.55 -2.75 4.25 -3.55 0.70 -0.75 -0.15 -0.25 -1.80 1.15 -1.70 1.40 -4.35 3.25 -5.90 4.10 -1.55 0.90 -2.80 1.75 -2.80 1.85 0 0.40 3.25 -1.40 6.25 -3.55z"/>
  <path d="M28.50 71.25 c0 -0.80 0.30 -1.25 0.75 -1.25 0.40 0 0.75 -0.05 0.75 -0.15 0 -1.40 -1.70 -11.70 -2.50 -14.90 -1.30 -5.50 -1.25 -6.95 0.25 -9 3.35 -4.55 4.15 -6.10 4.45 -8.45 0.25 -1.75 0.55 -2.50 1.10 -2.50 1.25 0 3.90 1.30 4.90 2.45 0.55 0.55 1.15 1.05 1.40 1.05 0.85 0 0.35 -1.15 -1.30 -2.80 l-1.70 -1.70 1.95 0 c1.35 0 1.95 0.20 1.95 0.70 0 0.40 0.25 0.80 0.55 0.90 0.40 0.15 0.50 1.45 0.20 4.55 l-0.35 4.35 -1.70 0 c-0.95 0 -1.70 -0.20 -1.70 -0.50 0 -0.25 -0.45 -0.50 -1 -0.50 -1.75 0 -1.10 -1.45 0.80 -1.80 l1.75 -0.30 -1.30 -1.40 c-1.65 -1.75 -3.50 -2.40 -2.75 -1 0.70 1.30 0.65 1.50 -0.35 1.50 -0.55 0 -1.20 0.75 -1.75 2 -0.65 1.60 -1.10 2 -2.10 2 -1.10 0 -1.30 0.20 -1.30 1.50 0 0.85 -0.20 1.50 -0.50 1.50 -0.75 0 -0.60 3.35 0.25 6.50 0.70 2.60 2.75 15.60 2.75 17.60 0 0.70 -0.40 0.90 -1.75 0.90 -1.55 0 -1.75 -0.15 -1.75 -1.25z"/>
  <path d="M48.50 64.50 l0 -1.50 -5.60 0 c-3.95 -0.05 -6.40 -0.30 -8.15 -0.90 -2.45 -0.85 -2.50 -0.90 -2.65 -3.05 l-0.15 -2.15 1.95 0.20 1.95 0.15 -1.90 -2.60 c-1.40 -1.90 -1.95 -3.10 -1.95 -4.40 0 -1.80 0.05 -1.80 1.85 -1.65 1.50 0.15 2 0.45 2.90 2.10 1.20 2.10 2.50 3.10 3 2.30 0.15 -0.25 2.30 -0.50 4.80 -0.50 l4.45 0 0 1.70 0 1.65 -4.10 0.30 c-2.90 0.25 -4.25 0.55 -4.55 1.10 -0.20 0.40 -1 0.75 -1.75 0.80 -1.05 0.05 -0.80 0.25 1.15 0.80 2.10 0.65 3.05 0.70 5.90 0.20 1.85 -0.30 4.60 -0.55 6.10 -0.55 l2.75 0 0 2.90 c0 3.60 -0.85 4.60 -3.90 4.60 -2 0 -2.10 -0.05 -2.10 -1.50z"/>
  <path d="M68 63.20 c0 -2.30 1.50 -3.70 3.90 -3.70 1.70 0 1.75 0 0.85 1 -0.50 0.55 -1.30 1.10 -1.80 1.25 -0.50 0.15 -1.05 0.95 -1.20 1.75 -0.50 2.20 -1.75 1.95 -1.75 -0.30z"/>
  <path d="M75 57.25 c0 -0.55 0.15 -2.20 0.30 -3.60 0.30 -2.15 0.50 -2.65 1.25 -2.65 0.65 0 0.95 0.35 0.95 1.15 0.05 1 0.10 1 0.55 0.25 0.25 -0.50 0.70 -0.90 1 -0.90 0.55 0 -1.75 4.25 -3.15 5.75 -0.90 0.95 -0.90 0.95 -0.90 0z"/>
  <path d="M66.50 53.10 c0 -1.85 1.30 -6.60 2 -7.10 0.40 -0.35 2 -7.50 2 -9.10 0 -1.40 -1.45 -5 -2.10 -5.30 -0.25 -0.10 -0.40 -0.60 -0.40 -1.15 0 -0.50 -0.35 -0.95 -0.75 -0.95 -0.50 0 -0.75 -0.55 -0.75 -1.75 0 -0.95 0.10 -1.75 0.25 -1.75 0.65 0 4.80 6.35 5.25 8.10 0.75 2.70 -0.05 7.50 -2.25 13.90 -0.90 2.75 -1.55 5 -1.35 5 0.20 0 0.90 -0.35 1.50 -0.80 1.15 -0.80 1.15 -0.80 1 0.85 -0.15 1.60 -0.25 1.70 -2.25 1.85 l-2.15 0.15 0 -1.95z"/>
  <path d="M72.55 49.65 c1.20 -1.65 5.15 -5.65 5.55 -5.65 0.20 0 0.30 0.60 0.15 1.40 -0.10 0.75 -0.35 2.20 -0.50 3.25 -0.20 1.15 -0.55 1.85 -1 1.85 -0.40 0 -0.75 -0.25 -0.75 -0.60 0 -0.45 -0.15 -0.45 -0.60 0 -0.35 0.35 -1.25 0.60 -2.05 0.60 -1.30 0 -1.40 -0.10 -0.80 -0.85z"/>
  <path d="M50 45.25 c0 -1.40 0.20 -1.75 1 -1.75 0.60 0 0.85 0.25 0.70 0.70 -0.30 0.80 0.95 1.40 2.05 1 0.40 -0.20 0.75 -0.70 0.75 -1.25 0 -0.50 0.40 -1.10 0.85 -1.40 0.75 -0.40 0.70 -0.55 -0.60 -0.85 -2.40 -0.65 -5.60 -0.40 -7 0.50 -1.80 1.20 -1.30 1.45 1.10 0.60 1.10 -0.40 2.30 -0.55 2.60 -0.30 0.40 0.20 0.05 0.45 -0.95 0.70 -1 0.20 -1.70 0.65 -1.85 1.30 -0.20 0.75 -0.70 1 -1.95 1 -0.90 0 -1.80 -0.25 -1.95 -0.50 -0.15 -0.30 -0.15 -2.10 0.05 -4 0.25 -2.45 0.55 -3.50 1 -3.50 0.40 0 0.70 -0.20 0.70 -0.50 0 -0.25 0.65 -0.50 1.45 -0.50 0.80 0 1.55 -0.25 1.65 -0.50 0.10 -0.30 1.35 -0.65 2.80 -0.85 2.15 -0.25 2.60 -0.15 2.60 0.50 0 0.50 -0.85 0.95 -2.60 1.35 -3.05 0.75 -5.40 1.80 -5.40 2.50 0 0.65 0.50 0.65 2.40 -0.05 0.90 -0.30 3.35 -0.85 5.45 -1.20 l3.90 -0.65 -1.60 -0.65 c-2.20 -0.90 -2.15 -1.95 0.10 -1.95 0.95 0 1.75 0.25 1.75 0.50 0 0.30 0.35 0.50 0.75 0.50 0.55 0 0.75 0.55 0.75 2 0 2 0 2 -1.85 2 l-1.90 0 1.90 1.25 c1.65 1.15 1.85 1.55 1.85 3.35 l0 2.05 -2.50 -0.30 c-1.45 -0.20 -2.50 -0.10 -2.50 0.15 0 0.30 -1.25 0.50 -2.75 0.50 l-2.75 0 0 -1.75z"/>
  <path d="M31.75 30.90 c0.20 -1.45 0.55 -3.20 0.80 -3.80 0.25 -0.65 0.35 -1.40 0.15 -1.65 -0.15 -0.25 0.25 -0.45 0.85 -0.45 1 0 1.05 0.20 0.80 2.15 -0.15 1.15 -0.45 2.60 -0.65 3.25 -0.25 0.80 -0.10 1.10 0.50 1.10 0.45 0 0.80 0.40 0.80 1 0 0.80 -0.35 1 -1.80 1 l-1.80 0 0.35 -2.60z"/>
  <path d="M62.50 23.95 l0 -1.50 1.50 1.05 c2.20 1.55 2.25 2 0.30 2 -1.65 0 -1.80 -0.10 -1.80 -1.55z"/>
  <path d="M56 21.60 c0 -0.60 -7.90 -2.10 -11.10 -2.10 -2.20 0 -2.90 -0.20 -2.90 -0.70 0 -2 9.55 -1.25 15.40 1.25 2.55 1.10 2.70 1.95 0.35 1.95 -0.95 0 -1.75 -0.20 -1.75 -0.40z"/>
  <path d="M36.70 20.55 c0.50 -0.55 1.55 -1.20 2.35 -1.50 1.35 -0.45 1.45 -0.40 1.45 0.65 0 1.35 -0.85 1.80 -3.10 1.80 -1.50 0 -1.55 -0.05 -0.70 -0.95z"/>
  <path d="M32.15 14.70 c0.15 -1 0.45 -1.95 0.60 -2.10 0.60 -0.60 0.85 0.45 0.55 2.15 -0.45 2.35 -1.55 2.35 -1.15 -0.05z"/>
  <path d="M75.65 6.75 c-1.70 -1.70 -1.75 -1.80 -0.40 -0.95 1.85 1.10 2.95 2.15 2.60 2.50 -0.15 0.15 -1.15 -0.55 -2.20 -1.55z"/>
 </g>
 <g fill="#151e3b">
  <path d="M6.70 97.40 c0.55 -4.20 1.70 -8.15 4.35 -14.85 1.35 -3.45 2.45 -6.55 2.45 -6.90 0 -0.50 1.40 -1.15 3 -1.40 0.15 0 2.10 -0.75 4.40 -1.65 2.25 -0.90 5.25 -1.90 6.60 -2.20 1.45 -0.35 2.50 -0.85 2.50 -1.25 0 -1.45 1.30 -0.50 2.20 1.60 0.60 1.55 1.65 2.80 3.15 3.90 2.85 2.05 1.65 2.50 -1.75 0.65 l-2.35 -1.30 1.75 1.45 c0.95 0.80 1.90 1.40 2.05 1.25 0.20 -0.10 1.35 0.75 2.65 1.85 1.30 1.15 2.15 1.65 1.95 1.15 -0.25 -0.70 -0.15 -0.80 0.55 -0.55 0.50 0.20 1 0.35 1.10 0.35 0.45 0 0.15 8.70 -0.35 10.80 -0.50 1.85 -0.75 2.20 -1.80 2.20 -1.10 0 -1.20 0.10 -0.65 0.75 0.35 0.45 0.50 0.90 0.35 1.05 -0.15 0.15 -0.75 -0.60 -1.35 -1.75 -1.30 -2.60 -2.80 -2.95 -1.75 -0.40 1.30 3.05 2 4.20 2.65 3.95 1.05 -0.35 0.65 1.05 -0.75 2.50 -1.45 1.50 -4 2 -3.45 0.65 0.15 -0.45 0 -0.75 -0.50 -0.75 -0.50 0 -0.70 0.30 -0.50 0.75 0.25 0.65 -1.45 0.75 -13.30 0.75 l-13.55 0 0.35 -2.60z m7 -16.40 c0.15 -0.70 -0.15 -0.35 -0.65 0.75 -0.55 1.10 -1 2.25 -1 2.50 0 0.75 1.30 -1.85 1.65 -3.25z"/>
  <path d="M40.75 98.20 c-1.05 -2.50 -0.95 -3.45 0.40 -4.15 0.95 -0.50 1.10 -1 1.10 -3.70 0 -2.35 1.30 -8.65 2.05 -9.75 0.05 -0.05 2.15 -0.70 4.65 -1.35 2.55 -0.70 5.70 -1.70 7.05 -2.30 2.75 -1.20 4.60 -1.05 2.25 0.15 -0.80 0.45 -3.70 1.55 -6.40 2.45 -6 2.05 -5.70 2.45 0.45 0.70 7.10 -2.10 12 -4.75 15.25 -8.35 l2.85 -3.10 3.80 1.60 c3 1.30 4.45 1.60 7.25 1.60 4.20 0 5 0.25 5.60 1.85 0.30 0.80 0.75 1.15 1.20 0.95 2 -0.75 0.10 4.15 -3.50 8.95 -3.25 4.40 -5.05 8.05 -6.05 12.40 -0.50 2.10 -1.10 3.85 -1.30 3.85 -0.75 0 -0.40 -2.75 0.55 -4.65 0.50 -1 1.10 -2.45 1.30 -3.20 0.15 -0.80 1.45 -3.65 2.85 -6.40 1.40 -2.75 2.40 -4.90 2.25 -4.75 -1.10 1.10 -4.05 5.40 -5 7.35 -1.30 2.60 -2.85 8.15 -2.85 10.30 l0 1.35 -17.50 0 -17.50 0 -0.75 -1.80z m4.30 -4.35 c1.15 -1.05 1.30 -2.45 0.20 -2.05 -0.40 0.20 -0.75 0.45 -0.75 0.65 0 0.15 -0.80 0.85 -1.75 1.50 -2.30 1.55 -2.45 3.05 -0.20 1.70 0.85 -0.50 1.95 -1.30 2.50 -1.80z m13.70 -10 c2.90 -2.20 5.25 -4.40 6.50 -5.90 0.70 -0.90 0.55 -0.80 -0.75 0.35 -0.95 0.85 -3.25 2.70 -5.10 4.20 -1.90 1.45 -3.40 2.75 -3.40 2.85 0 0.40 0.75 0 2.75 -1.50z"/>
  <path d="M60.50 75.05 c0 -0.50 1.25 -1.05 2.40 -1.05 0.60 0.05 0.50 0.25 -0.40 0.75 -1.45 0.85 -2 0.90 -2 0.30z"/>
  <path d="M64 73.40 c0.05 -0.85 4.80 -6.25 5.20 -5.85 0.15 0.15 -0.30 1.20 -1.05 2.35 -1.60 2.35 -4.15 4.55 -4.15 3.50z"/>
  <path d="M78 52.75 c0 -0.25 2.35 -4.20 2.80 -4.70 0.10 -0.10 0.30 -0.10 0.45 0.05 0.35 0.35 -2.35 4.90 -2.85 4.90 -0.25 0 -0.40 -0.10 -0.40 -0.25z"/>
  <path d="M84.35 38.40 c0.70 -2.30 1.40 -5.70 1.60 -7.65 0.35 -3.15 0.40 -3.35 0.75 -1.75 0.20 0.95 0.15 2.75 -0.10 4 -1.20 5.65 -2.35 9.50 -2.85 9.50 -0.40 0 -0.20 -1.35 0.60 -4.10z"/>
  <path d="M32.30 23.90 c-0.45 -1.80 -0.35 -4.90 0.20 -4.90 0.30 0 0.50 1 0.50 2.25 0 1.25 0.25 2.25 0.50 2.25 0.30 0 0.50 0.35 0.50 0.75 0 1.20 -1.35 0.90 -1.70 -0.35z"/>
  <path d="M81.85 13.65 c-0.75 -1.25 -1.30 -2.40 -1.15 -2.50 0.25 -0.25 2.55 2.80 2.95 4 0.60 1.60 -0.40 0.80 -1.80 -1.50z"/>
  <path d="M44 4 c0 -0.35 1.05 -0.75 5.90 -2.25 0.30 -0.15 0.60 -0.05 0.60 0.15 0 0.20 -1.45 0.85 -3.25 1.45 -1.80 0.60 -3.25 0.85 -3.25 0.65z"/>
 </g>
 <g fill="#29252d">
  <path d="M32 99.25 c0 -0.40 0.20 -0.75 0.45 -0.75 0.25 0 0.55 0.35 0.75 0.75 0.15 0.45 0 0.75 -0.45 0.75 -0.40 0 -0.75 -0.35 -0.75 -0.75z"/>
  <path d="M34.10 99.40 c0.10 -0.30 1.05 -1.10 2.05 -1.75 1.65 -1.05 1.85 -1.05 1.85 -0.30 -0.05 1.45 -1.25 2.65 -2.70 2.65 -0.85 0 -1.30 -0.25 -1.20 -0.60z"/>
  <path d="M41.50 99.40 c0 -0.35 -0.45 -1.20 -1 -1.90 -1.15 -1.45 -1.30 -2.50 -0.35 -2.50 0.35 0 0.95 0.75 1.30 1.65 0.40 0.85 0.90 2 1.10 2.50 0.30 0.60 0.20 0.85 -0.30 0.85 -0.40 0 -0.75 -0.30 -0.75 -0.60z"/>
  <path d="M77 98.60 c0 -0.75 0.45 -2.20 0.95 -3.25 0.50 -1 1.10 -2.45 1.30 -3.20 0.15 -0.80 1.30 -3.30 2.50 -5.65 6.25 -12.35 6.10 -12.10 7.80 -11.65 0.95 0.25 1.35 1.65 0.45 1.65 -0.25 0 -0.95 0.95 -1.55 2.15 -0.60 1.15 -1.25 2.20 -1.40 2.35 -0.20 0.15 -0.75 1.20 -1.25 2.40 -0.65 1.35 -1.25 2.10 -1.90 2.10 -0.70 0 -0.90 0.40 -0.90 1.75 0 0.95 -0.20 1.75 -0.45 1.75 -0.25 0 -0.55 0.60 -0.65 1.40 -0.15 0.75 -0.50 2.35 -0.85 3.60 -0.30 1.25 -0.65 3.10 -0.80 4.15 -0.25 1.65 -0.45 1.85 -1.75 1.85 -1.30 0 -1.50 -0.20 -1.50 -1.40z"/>
  <path d="M45.35 94.70 c-0.15 -0.20 -0.10 -0.75 0.20 -1.25 0.25 -0.50 0.35 -1.50 0.15 -2.20 -0.25 -1 -0.15 -1.20 0.50 -0.95 1.20 0.45 1.45 2.10 0.60 3.45 -0.90 1.35 -1 1.40 -1.45 0.95z"/>
  <path d="M41 92.55 c0 -2.15 0.50 -3.05 1.60 -3.05 0.80 0 0.95 0.25 0.80 1.25 -0.15 0.65 -0.10 1.10 0.15 1 0.85 -0.55 1 0.85 0.15 1.50 -1.60 1.20 -2.70 0.95 -2.70 -0.70z"/>
  <path d="M37.10 91.75 c-0.30 -0.70 -0.80 -1.25 -1.10 -1.25 -0.30 0 -0.40 -0.20 -0.25 -0.50 0.20 -0.30 0.85 -0.25 1.70 0.25 1.35 0.65 1.45 0.65 1.70 -0.30 0.40 -1.55 1.35 -0.65 1.35 1.35 0 1.55 -0.15 1.70 -1.40 1.70 -1.05 0 -1.60 -0.35 -2 -1.25z"/>
  <path d="M34 90.25 c0 -0.95 0.15 -1.75 0.40 -1.75 0.20 0 0.35 0.80 0.35 1.75 0 0.95 -0.15 1.75 -0.35 1.75 -0.25 0 -0.40 -0.80 -0.40 -1.75z"/>
  <path d="M8.50 89.90 c0 -0.85 0.80 -3.90 1.80 -6.80 0.95 -2.85 1.65 -5.35 1.50 -5.50 -0.15 -0.15 -0.30 0.10 -0.30 0.55 0 0.65 -0.45 0.85 -1.75 0.85 -2.40 0 -2.35 -1.35 0 -1.80 0.95 -0.15 2.30 -0.75 2.95 -1.25 1 -0.80 3.85 -2.15 3.80 -1.80 0 0.05 -0.80 1.70 -1.75 3.60 -0.95 1.95 -2.45 5.80 -3.35 8.60 -1.65 5.15 -2.90 6.65 -2.90 3.55z"/>
  <path d="M0 89.75 c0 -0.80 1.50 -2.75 2.10 -2.75 0.25 0 0.40 0.80 0.40 1.75 0 1.55 -0.15 1.75 -1.25 1.75 -0.75 0 -1.25 -0.30 -1.25 -0.75z"/>
  <path d="M42.50 86.65 c0 -2.20 1.30 -6.20 2.15 -6.75 0.85 -0.55 3.85 -0.50 3.85 0.10 0 0.55 -1.75 1.55 -2.15 1.20 -0.20 -0.25 -1.40 2.40 -1.55 3.55 -0.55 3.85 -2.30 5.30 -2.30 1.90z"/>
  <path d="M40.05 84.40 c0.05 -2.20 -0.15 -3.20 -0.60 -3.35 -1 -0.30 -4.55 -4.10 -4.20 -4.45 0.15 -0.15 -0.25 -0.60 -0.85 -0.95 -1.10 -0.60 -1.10 -0.60 0.60 -0.60 0.95 0 2.25 0.35 2.90 0.85 l1.15 0.90 -1.90 -0.20 c-1.10 -0.10 -1.70 -0.05 -1.40 0.20 0.30 0.25 1.35 1.25 2.40 2.20 l1.90 1.75 -0.55 -1.45 c-0.70 -1.95 -0.25 -2.20 1.25 -0.80 1.15 1.05 1.25 1.55 1.25 5.10 0 3.55 -0.10 3.90 -1 3.90 -0.85 0 -0.95 -0.35 -0.95 -3.10z"/>
  <path d="M3 84.25 c0 -0.60 3.75 -6.75 4.10 -6.75 0.45 0 0.55 2.55 0.10 3.70 -0.15 0.45 -0.60 0.80 -1 0.80 -0.40 0 -0.70 0.50 -0.70 1.25 0 1 -0.25 1.25 -1.25 1.25 -0.70 0 -1.25 -0.10 -1.25 -0.25z"/>
  <path d="M97.50 80.25 c0 -2.05 0.55 -2.25 1.70 -0.50 1.10 1.70 1 2.25 -0.45 2.25 -1.10 0 -1.25 -0.20 -1.25 -1.75z"/>
  <path d="M31.65 73.80 c-1.45 -1.80 -1.50 -3.30 -0.15 -3.30 1.05 0 1.70 1.60 1.40 3.55 -0.15 1.20 -0.15 1.20 -1.25 -0.25z"/>
  <path d="M76.50 52.75 c0 -1.35 0.25 -2.25 0.55 -2.25 0.35 0 0.45 0.55 0.30 1.50 -0.20 0.85 -0.10 1.50 0.15 1.50 0.30 0 0.50 -0.30 0.50 -0.65 0 -0.40 0.50 -1.10 1.05 -1.65 l1.10 -0.95 -0.80 1.50 c-1 1.85 -2.10 3.25 -2.55 3.25 -0.15 0 -0.30 -1 -0.30 -2.25z"/>
  <path d="M82.55 43.90 c1.15 -3.05 1.95 -4.10 1.95 -2.60 -0.05 1.35 -1.85 5.20 -2.45 5.20 -0.30 0 -0.10 -1.15 0.50 -2.60z"/>
  <path d="M46 44.25 c0 -0.40 0.15 -0.70 0.40 -0.65 0.20 0.05 0.95 -0.20 1.65 -0.50 2.45 -1 3.95 -0.95 3.95 0.15 0 0.45 -0.45 0.75 -1.25 0.75 -0.70 0 -1.25 0.25 -1.25 0.50 0 0.30 -0.80 0.50 -1.75 0.50 -1.20 0 -1.75 -0.25 -1.75 -0.75z"/>
  <path d="M46 42.30 c0 -0.50 0.40 -0.80 1.10 -0.80 0.60 0 0.95 0.05 0.85 0.15 -0.10 0.05 -0.60 0.45 -1.05 0.80 -0.75 0.60 -0.90 0.55 -0.90 -0.15z"/>
  <path d="M49 41 c0 -0.30 0.85 -0.50 1.85 -0.50 2.15 0 2.05 0.25 -0.20 0.65 -0.95 0.20 -1.65 0.10 -1.65 -0.15z"/>
  <path d="M86.15 26.75 c0 -1.10 0.10 -1.50 0.20 -0.85 0.10 0.60 0.10 1.50 0 2 -0.15 0.45 -0.25 -0.05 -0.20 -1.15z"/>
  <path d="M85.10 21.35 c-0.80 -3.90 -3.20 -8.30 -6.45 -11.75 -2.70 -2.90 -3.35 -3.75 -1.80 -2.55 1.65 1.35 4.90 5.10 6.05 6.85 1.35 2.20 3.25 8.20 3 9.45 -0.10 0.50 -0.45 -0.40 -0.80 -2z"/>
  <path d="M32.50 13.15 c0.45 -2.60 1.15 -3.75 3.10 -5.25 2.75 -2.10 8.40 -4.75 8.40 -4 0 0.25 -1.40 1.10 -3.10 1.90 -3.85 1.80 -7.40 4.90 -7.40 6.45 0 1.45 -0.50 2.75 -1 2.75 -0.20 0 -0.20 -0.85 0 -1.85z"/>
  <path d="M38.45 8.70 c0.90 -0.40 1.80 -0.65 1.95 -0.50 0.40 0.45 0 0.65 -1.90 0.95 l-1.75 0.30 1.70 -0.75z"/>
  <path d="M49.25 2.05 c1.50 -0.60 5.15 -1.15 4.25 -0.60 -0.40 0.25 -1.75 0.60 -3 0.75 -1.45 0.20 -1.90 0.15 -1.25 -0.15z"/>
 </g>
 <g fill="#492b17">
  <path d="M34 99.50 c0 -0.25 0.60 -0.80 1.40 -1.25 1.50 -0.80 3.60 -2.50 3.60 -2.95 0 -0.15 -0.65 -1.40 -1.50 -2.80 -1 -1.70 -1.25 -2.50 -0.80 -2.50 0.35 0 0.95 0.35 1.30 0.75 0.35 0.40 0.80 0.60 1.05 0.45 0.25 -0.10 0.55 0.25 0.65 0.90 0.15 0.65 0.35 1.60 0.45 2.15 0.15 0.70 0.25 0.60 0.30 -0.35 0 -0.80 0.30 -1.40 0.55 -1.40 0.30 0 0.50 -0.45 0.50 -1 0 -0.65 0.35 -1 1 -1 0.90 0 0.95 0.15 0.50 1 -0.45 0.80 -0.40 0.90 0.25 0.70 1.30 -0.50 0.80 0.70 -0.75 1.90 -1.65 1.20 -1.90 2.45 -0.75 3.40 0.85 0.70 1 2.50 0.25 2.50 -0.25 0 -0.85 -0.85 -1.25 -1.85 l-0.80 -1.90 -1.75 1.90 c-1.60 1.75 -4.20 2.60 -4.20 1.35z"/>
  <path d="M38.65 99.40 c0.10 -0.35 0.50 -0.65 0.85 -0.65 0.35 0 0.75 0.30 0.90 0.65 0.10 0.35 -0.25 0.60 -0.90 0.60 -0.65 0 -1 -0.25 -0.85 -0.60z"/>
  <path d="M45.75 92.90 c0.45 -2.05 0.60 -2.25 1.35 -1.50 0.45 0.45 0.45 0.90 0 1.85 -0.85 1.85 -1.75 1.60 -1.35 -0.35z"/>
  <path d="M41.05 86.05 c-0.45 -0.30 -0.70 -1.20 -0.65 -2.45 0.05 -1.10 -0.25 -2.85 -0.70 -3.85 -0.40 -1 -0.70 -1.90 -0.60 -1.95 0.10 -0.05 1.40 -0.40 2.90 -0.75 1.50 -0.30 4.05 -1.35 5.75 -2.25 3.30 -1.90 9.80 -7.15 10.15 -8.25 0.15 -0.40 -1.55 0.80 -3.70 2.60 -2.20 1.85 -5.75 4.25 -8 5.40 -5 2.55 -8.80 2.80 -12.25 0.90 -2.70 -1.50 -3.05 -2.45 -1 -2.45 1 0 1.55 0.25 1.55 0.70 0 1.15 4.35 1.45 7.50 0.45 1.50 -0.45 3.05 -1.15 3.40 -1.50 0.35 -0.35 0.95 -0.65 1.35 -0.65 0.35 0 0.75 -0.15 0.85 -0.35 0.15 -0.45 4.70 -4.15 5.05 -4.15 0.10 0 1.15 -0.90 2.30 -2 1.15 -1.10 2.55 -2 3.05 -2 0.55 0 1.30 -0.60 1.70 -1.35 1.50 -3 4.30 -13.90 4.30 -16.85 0 -3.75 3.15 -11.30 4.75 -11.30 0.60 0 0.65 -0.20 0.10 -1.35 -0.30 -0.80 -0.85 -1.60 -1.20 -1.80 -0.35 -0.20 -0.65 -0.60 -0.65 -0.90 0 -0.25 -0.90 -1.25 -2 -2.25 -1.10 -1 -2 -2.10 -2 -2.45 0 -0.35 -0.50 -0.75 -1.10 -0.90 -0.65 -0.15 -2.95 -1.05 -5.15 -2.05 -2.20 -1 -5.05 -1.95 -6.35 -2.10 -1.90 -0.25 -2.40 -0.55 -2.40 -1.25 0 -0.55 0.35 -0.95 0.90 -0.95 2 0 7.45 1.65 10.95 3.25 4.30 2 8.55 6 10.85 10.20 1.30 2.45 1.40 2.95 1.20 6.75 -0.20 2.95 -0.75 5.50 -2.15 9.45 -1 2.95 -1.70 5.55 -1.50 5.75 0.20 0.20 2.40 -1.80 4.90 -4.40 2.45 -2.60 4.60 -4.50 4.70 -4.25 0.10 0.30 -0.05 2.35 -0.25 4.50 -0.25 2.20 -0.25 4.05 -0.05 4.15 1.30 0.50 -3.30 6.20 -6.65 8.25 -1.25 0.80 -1.40 1.15 -1.40 3.55 0 2.85 -1.50 5.80 -4 7.65 -3.60 2.75 -12.65 6.70 -19.30 8.45 -0.35 0.05 -0.95 1.25 -1.45 2.65 -0.85 2.60 -1.90 3.20 -3.70 2.10z m33.65 -30.90 c0.20 -1.60 0.50 -3.35 0.65 -3.90 0.20 -0.80 -0.10 -0.65 -1.45 0.65 l-1.75 1.65 0.80 2.25 c0.45 1.20 0.95 2.20 1.10 2.20 0.20 0 0.50 -1.30 0.65 -2.85z"/>
  <path d="M49.15 81.65 c0.20 -0.15 2.25 -0.90 4.55 -1.65 2.35 -0.75 6.20 -2.45 8.65 -3.75 2.40 -1.30 4.10 -2 3.70 -1.60 -1.05 1.30 -7.45 4.60 -11.65 6.05 -3.65 1.25 -5.95 1.65 -5.25 0.95z"/>
  <path d="M38.20 80.30 c-0.50 -0.40 -0.80 -0.85 -0.65 -1 0.15 -0.15 0.70 0.15 1.20 0.70 1.05 1.15 0.85 1.30 -0.55 0.30z"/>
  <path d="M30.30 70.65 c-0.15 -0.80 -0.55 -3.40 -0.85 -5.90 -0.30 -2.45 -0.95 -6.20 -1.50 -8.35 -1.20 -4.70 -1.20 -4.90 0 -4.90 0.75 0 1.05 0.50 1.30 2.10 0.30 1.65 0.45 1.90 0.85 1.25 0.25 -0.45 1.05 -0.85 1.75 -0.85 1.25 0 1.25 -0.05 0.50 -0.90 -0.55 -0.60 -0.85 -1.80 -0.85 -3.25 0 -2.30 0 -2.35 1.65 -2.35 0.90 0 1.90 0.25 2.25 0.60 0.45 0.45 0.60 0.25 0.60 -0.90 0 -1.50 1.05 -4.90 1.70 -5.55 0.20 -0.25 0.70 0.05 1.10 0.55 0.80 1.10 0.95 0.20 0.20 -1.20 -0.55 -1 -3.50 -3 -4.50 -3 -0.45 0 -0.35 0.30 0.25 1 0.90 1 0.85 1 -0.40 1 -1.20 0 -1.35 0.20 -1.35 1.75 0 1.60 -0.10 1.75 -1.50 1.75 -1.40 0 -1.50 0.15 -1.50 1.75 0 1.60 -0.10 1.75 -1.55 1.75 l-1.50 0 1 -1.40 c0.55 -0.80 1.35 -1.75 1.80 -2.10 1.45 -1.20 2.40 -3.70 2.30 -6.10 -0.05 -1.85 0.10 -2.40 0.70 -2.40 1.40 0 4.35 1.45 5.70 2.80 1.30 1.30 1.30 1.30 1.45 0.25 0.10 -0.60 0.45 -1 0.75 -0.90 0.35 0.10 0.65 1.60 0.75 3.75 0.10 2.75 -0.10 4.15 -0.85 5.85 -0.90 2 -1.20 2.25 -2.60 2.25 -1.20 0 -1.50 0.15 -1.25 0.80 0.15 0.45 0.30 1.05 0.30 1.35 0 0.35 0.45 0.90 1 1.25 0.85 0.50 1.30 0.50 2.50 -0.15 0.80 -0.40 2.45 -0.75 3.75 -0.75 2.25 0 2.25 0 2.25 -1.75 0 -1.65 0.10 -1.75 1.65 -1.75 2.85 0 4.60 2.55 5.35 7.85 0.25 1.85 0.70 3.45 1 3.55 0.85 0.30 0.60 4.40 -0.35 5.55 -0.95 1.15 -3.75 2 -6.50 2.05 -1.55 0 -1.65 -0.10 -1.65 -1.70 0 -1.50 0.25 -1.80 1.90 -2.50 l1.85 -0.80 -1.75 0.30 c-0.95 0.20 -1.80 0.50 -1.90 0.75 -0.50 1.30 -11.40 -0.10 -11.75 -1.50 -0.15 -0.45 -0.25 0.15 -0.30 1.30 -0.05 2 0 2.10 2.10 2.85 1.15 0.40 3 1 4.10 1.35 2.75 0.80 3.25 1.30 3.25 3.30 l0 1.75 -3.35 -0.35 c-1.80 -0.20 -4.35 -0.65 -5.60 -1.05 -1.25 -0.40 -2.35 -0.70 -2.40 -0.70 -0.10 0 -0.15 0.45 -0.15 1 0 1.50 -1.40 1.20 -1.70 -0.35z m21.80 -7 c0.50 -0.45 0.90 -1.50 0.90 -2.30 l0 -1.50 -3.10 0.45 c-5.85 0.80 -11.40 0.55 -14.05 -0.70 -1.50 -0.65 -2.35 -0.85 -2.25 -0.45 0.15 0.30 1.35 1 2.70 1.50 2 0.70 3.55 0.85 8.20 0.65 3.15 -0.10 6.10 -0.35 6.55 -0.55 1.45 -0.55 1.50 1.15 0.05 2.50 -0.80 0.75 -1.05 1.25 -0.65 1.25 0.40 0 1.15 -0.35 1.65 -0.85z m-3.25 -5.45 c0.65 -0.20 1 -0.55 0.80 -1 -0.20 -0.50 -1.20 -0.70 -3.60 -0.70 -3.40 0 -5.55 0.70 -5.95 1.95 -0.20 0.60 0.45 0.65 3.70 0.40 2.20 -0.20 4.45 -0.50 5.05 -0.65z m-9.85 -2.60 c0 -0.20 -0.70 -0.65 -1.55 -0.95 l-1.60 -0.60 1.15 1.20 c1.05 1.10 2 1.25 2 0.35z m8.25 -1.35 c0.30 -0.10 -0.90 -0.20 -2.60 -0.20 -1.70 -0.05 -3.20 0.15 -3.35 0.35 -0.25 0.40 4.80 0.25 5.95 -0.15z m-12.75 -3.50 c-0.35 -0.45 -0.75 -0.65 -0.90 -0.50 -0.15 0.10 0.05 0.55 0.40 1 0.35 0.45 0.75 0.65 0.90 0.50 0.15 -0.10 -0.05 -0.55 -0.40 -1z"/>
  <path d="M53.60 46.90 c0.10 -1.40 0.40 -1.70 1.65 -1.90 1.20 -0.20 1.30 -0.35 0.65 -0.60 -0.95 -0.40 -1.25 -1.90 -0.45 -1.90 0.25 0 1.15 0.60 2 1.30 0.85 0.70 1.55 1.05 1.55 0.75 0 -0.30 -0.95 -1.15 -2.10 -1.90 -1.70 -1.15 -2.65 -1.40 -5.15 -1.40 -2.10 0 -3.45 0.30 -4.40 0.90 -1.85 1.20 -1.25 2.10 0.70 1.05 0.85 -0.40 2 -0.65 2.60 -0.55 1.10 0.20 1.10 0.20 0 0.30 -0.95 0.05 -1.15 0.35 -1.15 1.80 0 1.75 0 1.75 -2.20 1.75 -3.05 0 -3.50 -0.70 -3.05 -4.85 0.35 -3.35 1.05 -4.65 2.45 -4.65 0.45 0 0.80 -0.20 0.80 -0.40 0 -0.60 3.50 -1.60 5.45 -1.60 2.70 0 1.80 1.30 -1.55 2.20 -3.30 0.90 -5.35 2.05 -4.75 2.65 0.20 0.20 1.95 -0.05 3.85 -0.55 3.20 -0.85 3.50 -0.85 4.25 -0.10 1.05 1 1.75 1.05 1.75 0.05 0 -0.45 0.45 -0.75 1.25 -0.75 1.45 0 1.60 -0.40 0.40 -1.30 -0.80 -0.60 -0.70 -0.65 1 -0.70 1.90 0 1.90 0 1.75 1.85 -0.10 1.45 -0.40 1.90 -1.25 2.15 -1.20 0.25 -1 0.90 0.60 1.80 0.70 0.40 1.05 1.15 1.15 2.55 0.20 2.95 -0.70 3.65 -4.70 3.65 l-3.25 0 0.15 -1.60z"/>
  <path d="M31.70 32.75 c-0.15 -0.40 -0.15 -0.95 0.05 -1.25 0.55 -0.85 1.75 -0.55 1.75 0.45 0 1.15 -1.45 1.80 -1.80 0.80z"/>
  <path d="M32.55 23.65 c0.05 -1.05 0.15 -1.50 0.30 -1 0.30 1.20 0.75 1.10 2.45 -0.70 1.50 -1.65 5.80 -3.95 7.35 -3.95 0.50 0 0.85 0.40 0.85 0.95 0 0.95 -1.25 1.55 -3.35 1.55 -0.70 0 -1.15 0.30 -1.15 0.75 0 0.50 -0.55 0.75 -1.75 0.75 -1.65 0 -1.75 0.10 -1.75 1.75 0 1.60 -0.10 1.75 -1.50 1.75 -1.40 0 -1.50 -0.10 -1.45 -1.85z"/>
 </g>
 <g fill="#423522">
  <path d="M31 72.55 c-0.80 -1.55 -0.60 -2.55 0.50 -2.55 0.80 0 1 0.35 1 1.75 0 1.95 -0.70 2.30 -1.50 0.80z"/>
  <path d="M52.80 63.25 c0.45 -0.70 0.65 -1.60 0.45 -2.25 -0.20 -0.55 -0.10 -1 0.20 -1 0.60 0 0.75 2.40 0.25 3.70 -0.15 0.45 -0.65 0.80 -1 0.80 -0.60 0 -0.60 -0.20 0.10 -1.25z"/>
  <path d="M50 62.55 c0 -1.20 0.20 -1.55 0.95 -1.55 1.80 0 1.75 1 -0.05 2.45 -0.80 0.60 -0.90 0.55 -0.90 -0.90z"/>
  <path d="M46 62.30 c0 -0.65 1.40 -1.30 2.90 -1.30 0.30 0 0.60 0.45 0.60 1 0 0.80 -0.35 1 -1.75 1 -1.15 0 -1.75 -0.25 -1.75 -0.70z"/>
  <path d="M46 60 c0 -0.30 0.85 -0.50 1.85 -0.50 2.15 0 2.05 0.25 -0.20 0.65 -0.95 0.20 -1.65 0.10 -1.65 -0.15z"/>
  <path d="M76 53.75 c0 -0.95 0.25 -1.75 0.55 -1.75 0.30 0 0.40 0.45 0.20 1.10 -0.30 0.85 -0.20 1 0.45 0.75 0.70 -0.30 0.75 -0.15 0.30 0.65 -0.80 1.55 -1.50 1.20 -1.50 -0.75z"/>
  <path d="M26.80 51.40 c-0.50 -1.90 -0.35 -2.40 0.70 -2.40 0.80 0 1 0.35 1 1.75 0 2 -1.20 2.45 -1.70 0.65z"/>
  <path d="M45.50 44.65 c0 -0.65 0.15 -0.70 0.60 -0.25 0.90 0.90 2.20 0.80 1.45 -0.10 -0.45 -0.55 -0.40 -0.75 0.25 -1 1.15 -0.45 1.20 -0.40 1.20 0.95 0 1.10 -0.20 1.25 -1.75 1.25 -1.30 0 -1.75 -0.20 -1.75 -0.85z"/>
  <path d="M55.35 45.15 c-0.55 -0.50 -0.40 -2.65 0.15 -2.65 0.25 0 1.20 0.65 2.10 1.50 l1.65 1.45 -1.80 0.05 c-1 0 -1.95 -0.15 -2.10 -0.35z"/>
  <path d="M50 43.55 c0 -0.75 0.30 -1.05 1.05 -1.05 0.70 0 0.95 0.25 0.85 0.85 -0.25 1.30 -1.90 1.45 -1.90 0.20z"/>
  <path d="M33.55 43.55 c-0.50 -0.30 -0.60 -1.05 -0.40 -2.55 0.30 -2.50 0.60 -2.85 1.60 -2 0.55 0.45 0.70 1.10 0.50 1.90 -0.30 1.15 -0.20 1.20 1.25 1 1.30 -0.20 1.50 -0.10 1.50 0.95 0 1 -0.25 1.15 -1.85 1.15 -1.05 0 -2.20 -0.20 -2.60 -0.45z"/>
  <path d="M57.50 42.75 c-0.35 -0.40 -1.35 -0.95 -2.20 -1.20 l-1.55 -0.45 1.65 -0.05 c2 -0.05 3.60 0.70 3.60 1.70 0 0.95 -0.70 0.95 -1.50 0z"/>
  <path d="M37.10 39.10 c-0.80 -0.60 -1.15 -1.30 -1 -2.10 0.15 -1.10 0.20 -1.10 2.05 0.70 1.75 1.80 1.85 1.85 1.85 0.70 0 -2.15 -3.45 -4.85 -6.50 -5.05 -1.65 -0.10 -2.05 -0.70 -1.65 -2.30 0.30 -1.15 1.65 -1.45 1.65 -0.35 0 0.40 0.80 0.80 1.95 1 1.10 0.15 2.30 0.65 2.75 1.05 0.40 0.40 0.85 0.75 1.05 0.75 0.20 0 0.65 0.30 1.05 0.70 0.75 0.80 0.85 1.85 0.40 4.25 -0.40 1.80 -1.75 2.05 -3.60 0.65z"/>
  <path d="M59.25 38.55 c0.15 -0.25 -0.40 -0.90 -1.25 -1.35 -1.95 -1.20 -1.90 -1.70 0.25 -1.70 1.65 0 1.75 0.10 1.75 1.75 0 0.95 -0.25 1.75 -0.55 1.75 -0.25 0 -0.40 -0.20 -0.20 -0.45z"/>
  <path d="M32 35.95 c0 -0.70 0.25 -0.95 0.85 -0.85 1.30 0.25 1.45 1.90 0.20 1.90 -0.75 0 -1.05 -0.30 -1.05 -1.05z"/>
  <path d="M32.80 25.90 c-0.15 -0.65 -0.25 -1.95 -0.25 -2.90 0.05 -1.60 0.10 -1.55 0.75 0.40 0.10 0.45 0.60 0.20 1.45 -0.75 l1.20 -1.40 0.05 1.80 c0 1.20 -0.25 1.95 -0.75 2.15 -0.40 0.15 -0.75 0.60 -0.75 1.05 0 1.15 -1.35 0.90 -1.70 -0.35z"/>
  <path d="M32.20 14.70 c0.15 -0.45 0.30 -1.20 0.30 -1.75 0 -0.50 0.20 -0.95 0.50 -0.95 0.25 0 0.40 0.50 0.30 1.15 -0.15 0.60 -0.25 1.40 -0.25 1.75 -0.05 0.30 -0.30 0.60 -0.60 0.60 -0.30 0 -0.40 -0.35 -0.25 -0.80z"/>
 </g>
 <g fill="#603b1f">
  <path d="M34 99.55 c0 -0.25 0.40 -0.60 0.90 -0.80 1.10 -0.35 4.10 -3.10 4.10 -3.75 0 -0.25 0.45 -0.50 1 -0.50 0.75 0 1 -0.35 1 -1.25 0 -1.05 0.20 -1.20 1.50 -1.10 1.90 0.15 1.90 0.50 0 1.85 -1.65 1.15 -1.95 2.50 -0.75 3.50 0.80 0.70 1.05 2.50 0.30 2.50 -0.25 0 -0.75 -0.80 -1.05 -1.75 -0.30 -0.95 -0.75 -1.75 -1 -1.75 -0.25 0 -1.20 0.80 -2.15 1.75 -1.55 1.60 -3.85 2.40 -3.85 1.30z"/>
  <path d="M45.75 92 c0 -1.90 0 -1.95 0.85 -1.10 0.55 0.55 0.75 1.25 0.60 2 -0.50 1.85 -1.45 1.25 -1.45 -0.90z"/>
  <path d="M37.30 91.75 c-1.10 -1.70 -1 -2 0.45 -1.05 1.20 0.80 1.25 0.80 1.25 -0.20 0 -0.55 0.25 -1 0.50 -1 0.30 0 0.50 0.80 0.50 1.75 0 1.40 -0.20 1.75 -0.95 1.75 -0.50 0 -1.30 -0.55 -1.75 -1.25z"/>
  <path d="M40.50 85.05 c0 -0.70 0.25 -0.90 1 -0.70 0.55 0.15 1 0.60 1 0.95 0 0.40 -0.45 0.70 -1 0.70 -0.65 0 -1 -0.35 -1 -0.95z"/>
  <path d="M34.65 75.75 c-1.70 -0.75 -3.65 -2.45 -3.65 -3.25 0 -0.75 2.50 -0.60 2.80 0.20 0.15 0.40 1.25 1 2.50 1.35 1.55 0.45 2.20 0.95 2.20 1.55 0 1.10 -1.55 1.15 -3.85 0.15z"/>
  <path d="M39.50 75.25 c0 -0.70 -0.20 -1.25 -0.45 -1.25 -0.20 0 -1.30 -0.60 -2.35 -1.30 -2.20 -1.50 -4.70 -2.40 -4.70 -1.65 0 0.25 -0.30 0.45 -0.70 0.45 -0.80 0 -1.10 -1.05 -1.55 -5.75 -0.20 -1.90 -0.65 -4.90 -1.05 -6.65 -0.65 -2.90 -0.60 -3.40 0.25 -6 0.55 -1.55 1.20 -3.80 1.50 -4.95 0.45 -1.70 0.80 -2.15 1.70 -2.15 0.60 0 1.40 -0.45 1.75 -1 0.55 -0.95 0.50 -1 -1.10 -1 -0.95 0 -1.85 -0.30 -1.95 -0.60 -0.15 -0.35 -0.30 0.20 -0.30 1.25 -0.05 1.20 -0.30 1.85 -0.75 1.85 -0.65 0 -1.30 2.05 -1.30 4.30 0 1.85 -1.40 1.50 -1.75 -0.45 -0.40 -2.10 0.20 -3.60 2.65 -6.40 1.15 -1.25 2.20 -2.90 2.40 -3.65 0.35 -1.55 1.30 -2.10 2.60 -1.55 0.80 0.40 0.80 0.40 0 0.60 -0.50 0.15 -0.90 0.45 -0.90 0.75 0 0.30 0.45 0.40 1 0.25 0.80 -0.20 0.90 -0.10 0.50 0.65 -0.60 1.15 0.65 1.75 2.10 0.95 1.70 -0.90 2.15 0.15 1.25 2.90 -1 3.05 -0.65 3.45 0.65 0.60 1.40 -3.10 1.25 -3.65 -1.10 -5.65 -1.60 -1.40 -2.50 -1.80 -4 -1.80 -1.70 0 -1.90 -0.15 -1.90 -1.20 0 -0.70 0.20 -1.35 0.45 -1.50 0.90 -0.55 3.80 0.75 5.65 2.55 l1.90 1.85 0 -1.40 c0 -1.35 -2.45 -4.30 -3.55 -4.30 -0.25 0 -0.45 -0.20 -0.45 -0.50 0 -0.25 0.80 -0.50 1.75 -0.50 1.40 0 1.75 0.20 1.75 1 0 0.90 0.35 1 2.95 1 1.65 0 3.50 0.20 4.15 0.45 0.80 0.30 2.15 0.20 3.90 -0.25 4.55 -1.15 9 -0.85 9 0.60 0 2 5.60 -0.25 6.85 -2.80 0.80 -1.60 0.45 -2 -1.90 -2 -1.40 0 -3.05 -0.55 -5.25 -1.80 -1.75 -1 -3.30 -2 -3.45 -2.25 -0.15 -0.20 -1.05 -0.80 -2 -1.25 -1.70 -0.80 -5.75 -4.55 -5.75 -5.30 0 -0.25 -0.45 -0.40 -1 -0.40 -0.65 0 -1 -0.35 -1 -1 0 -0.75 0.35 -1 1.40 -1 2.85 0.05 8.25 1.50 12.20 3.40 3.30 1.50 4.75 2.60 7.10 5.10 3.10 3.40 5.30 7.35 5.30 9.65 0 1.55 -0.75 1.80 -1.15 0.35 -0.15 -0.55 -0.50 -1 -0.80 -1 -1.40 0 -4.55 7.80 -4.55 11.30 0 5.50 -4.85 20.05 -7.05 21.25 -1.15 0.60 -1.20 0.10 -0.15 -1.10 0.45 -0.50 0.70 -1.15 0.65 -1.40 -0.10 -0.30 -2 0.95 -4.20 2.80 -5 4.15 -8.30 6.30 -11.40 7.35 -3.25 1.10 -3.85 1.05 -3.85 -0.45z m2.05 -5.45 c-0.30 -0.35 -1.95 -1.05 -3.70 -1.55 -1.70 -0.45 -3.70 -1.20 -4.45 -1.55 -1.50 -0.80 -1.65 -0.65 -0.90 0.75 0.45 0.85 4.35 2.20 8 2.75 0.70 0.10 1.35 0.20 1.45 0.25 0.10 0 -0.10 -0.25 -0.40 -0.65z m0.85 -3.60 c1.20 -0.35 1.50 -1.90 0.55 -3.20 -0.40 -0.55 -0.60 -0.60 -0.80 -0.10 -0.35 0.85 -3.65 0.80 -3.65 -0.10 0 -0.40 -0.55 -0.85 -1.20 -1 -0.65 -0.15 -1.55 -0.45 -2 -0.60 -0.65 -0.25 -0.80 0.05 -0.80 1.70 0 1.85 0.15 2.05 1.90 2.75 1.95 0.85 4.10 1.05 6 0.55z m7.65 -1.20 c1.15 0 3.45 -2.10 3.45 -3.15 0 -0.35 -0.30 -1.05 -0.65 -1.55 -0.65 -0.90 -0.90 -0.90 -5.45 -0.10 -6.95 1.15 -12.40 -0.05 -14.35 -3.20 -0.55 -0.95 -1.05 -1.35 -1.30 -1.05 -0.40 0.65 1.90 3.55 3.45 4.35 2.55 1.40 6.65 1.80 11.55 1.15 2.60 -0.35 4.90 -0.45 5.10 -0.25 0.60 0.55 -0.55 1.95 -2.65 3.20 -1.05 0.65 -1.55 1.05 -1.05 0.90 0.50 -0.15 1.35 -0.30 1.90 -0.30z m-18 -5.85 c-0.45 -0.75 -0.50 -0.65 -0.55 0.70 0 0.85 0.15 2 0.40 2.50 0.25 0.70 0.40 0.55 0.50 -0.70 0.10 -0.90 -0.05 -2.05 -0.35 -2.50z m18.95 3.10 c0.50 -0.60 0.45 -0.75 -0.40 -0.75 -1.75 0 -4.10 0.60 -4.10 1.05 0 0.75 3.85 0.50 4.50 -0.30z m5 -7.05 c0.55 -1.80 0.90 -3.45 0.75 -3.70 -0.30 -0.50 -4.80 -1.60 -5.15 -1.25 -0.15 0.15 0 0.25 0.30 0.25 0.35 0 0.60 0.70 0.60 1.50 0 0.85 0.20 1.50 0.45 1.50 0.25 0 0.60 0.95 0.80 2.15 0.65 3.80 0.95 3.75 2.25 -0.45z m-17.05 1.20 c0.75 -0.90 1.65 -1.15 5.10 -1.45 2.30 -0.15 4.65 -0.50 5.25 -0.70 0.85 -0.25 1.15 -0.05 1.70 1.25 0.85 2.10 1.20 1.55 0.50 -0.95 -0.50 -1.85 -2.85 -5.35 -3.35 -4.90 -0.10 0.10 0.05 0.85 0.35 1.60 0.70 1.85 -0.05 2.35 -2.80 2 -1.55 -0.20 -2.65 0 -4.40 0.85 -2.15 1.05 -2.45 1.05 -3.70 0.35 -0.75 -0.40 -1.75 -1.55 -2.20 -2.50 -0.45 -0.95 -1.15 -2.05 -1.60 -2.40 -1.70 -1.40 -0.80 1.05 1.45 3.95 1.25 1.60 2.25 3.15 2.25 3.45 0 0.85 0.50 0.65 1.45 -0.55z m-0.05 -5 c0.15 -1.10 0 -1.30 -0.80 -1.05 -0.70 0.15 -0.90 0.55 -0.70 1.45 0.30 1.55 1.30 1.30 1.50 -0.40z m20.30 -5.20 c0.45 -0.40 0.80 -0.95 0.80 -1.20 0 -0.80 -3.60 -3.10 -6 -3.80 -1.45 -0.45 -2.50 -1.05 -2.50 -1.45 0 -0.90 2.90 -1.45 5.55 -1.10 2.40 0.30 2.90 -0.30 1.20 -1.45 -1.75 -1.15 -6.35 -0.75 -9.50 0.80 -2.65 1.35 -3.80 2.90 -1.70 2.30 3.20 -0.90 3.95 -0.95 3.95 -0.15 0 0.45 -0.80 0.95 -2.20 1.30 -2.65 0.65 -3.70 1.70 -2.80 2.80 0.80 0.95 2.05 1 1.70 0.05 -0.30 -0.80 1.25 -1.85 2.65 -1.75 0.60 0.05 0.50 0.15 -0.35 0.40 l-1.25 0.35 1.40 0.35 c0.75 0.20 1.35 0.70 1.35 1.10 0 0.85 2.25 1.05 2.75 0.25 0.15 -0.25 0.60 -0.35 1 -0.20 0.40 0.20 0.75 -0.10 0.85 -0.75 0.15 -1.05 0.15 -1.05 1.65 0.15 1.70 1.40 1.50 1.80 -1.10 2.30 l-1.90 0.40 1.85 0.05 c1.05 0.05 2.15 -0.30 2.60 -0.75z"/>
  <path d="M71.25 60 c0.80 -1.55 0.80 -1.70 -0.40 -4.10 l-1.25 -2.55 1.85 -2.05 c1.05 -1.15 2.80 -3.05 3.95 -4.30 1.10 -1.25 2.15 -2.15 2.25 -2 0.15 0.15 -0.05 2.15 -0.35 4.50 -0.45 2.80 -0.50 4.35 -0.15 4.55 0.75 0.50 -1.40 3.65 -3.55 5.35 -3 2.35 -3.30 2.40 -2.35 0.60z"/>
  <path d="M32 29.95 c0 -1.45 1.25 -4.45 1.85 -4.45 0.70 0 0.85 1.90 0.35 3.90 -0.30 1.10 -2.20 1.60 -2.20 0.55z"/>
  <path d="M35.40 22.05 c3.45 -3.40 9.10 -5.30 9.10 -3.05 0 0.80 -0.35 1 -1.75 1 -0.95 0 -1.75 0.20 -1.75 0.50 0 0.25 -0.55 0.60 -1.25 0.80 -0.70 0.15 -1.25 0.50 -1.25 0.75 0 0.25 -0.45 0.45 -1 0.45 -0.65 0 -1 0.35 -1 1 0 0.80 -0.35 1 -1.80 1 l-1.80 0 2.50 -2.45z"/>
 </g>
 <g fill="#3a3e51">
  <path d="M6.15 96.80 c0.15 -1.75 1.40 -6.45 2.75 -10.50 2.65 -7.95 2.70 -7.70 -0.85 -7 -1.35 0.30 -1.55 0.50 -1.55 2 0 1.20 -0.25 1.70 -0.75 1.70 -0.45 0 -0.75 0.45 -0.75 1.25 0 1 -0.25 1.25 -1.30 1.25 -1.50 0 -1.55 0.10 1.05 -4.45 1.75 -3.10 2.15 -3.55 3.50 -3.55 1.65 0 5.45 -1.55 5.95 -2.45 0.20 -0.30 0.80 -0.55 1.35 -0.55 0.90 0 0.90 0.10 -0.25 1.90 -2.20 3.30 -5.75 14.30 -7 21.75 -0.30 1.45 -0.55 1.85 -1.40 1.85 -1 0 -1.05 -0.20 -0.75 -3.20z"/>
  <path d="M31.50 99.50 c0 -0.85 1.15 -3 1.65 -3 0.25 0 0.30 0.35 0.15 0.80 -0.15 0.45 -0.30 1.20 -0.30 1.75 0 0.50 -0.35 0.95 -0.75 0.95 -0.40 0 -0.75 -0.20 -0.75 -0.50z"/>
  <path d="M40.85 97.90 l-0.85 -2.05 1.25 1.15 c0.70 0.65 1.25 1.60 1.25 2.10 0 1.50 -0.70 1 -1.65 -1.20z"/>
  <path d="M85 98 c0 -1.95 0.05 -2 1.70 -2 1.80 0 2.30 0.60 2.30 2.80 0 1.05 -0.20 1.20 -2 1.20 l-2 0 0 -2z"/>
  <path d="M78.50 98.65 c0 -1.70 0.60 -3.15 1.30 -3.15 0.50 0 0.70 0.65 0.70 2 0 1.65 -0.15 2 -1 2 -0.60 0 -1 -0.35 -1 -0.85z"/>
  <path d="M79 94.40 c0 -1.50 0.65 -2.90 1.30 -2.90 0.45 0 0.70 0.60 0.70 1.75 0 1.40 -0.20 1.75 -1 1.75 -0.55 0 -1 -0.30 -1 -0.60z"/>
  <path d="M41 92.80 c0 -0.60 -0.50 -0.80 -1.75 -0.80 -1.35 0 -1.75 -0.20 -1.75 -0.85 0 -0.75 0.10 -0.80 0.50 -0.15 0.60 0.95 0.70 0.80 1.70 -3.10 0.60 -2.15 1.15 -3.40 1.60 -3.40 0.40 0 0.70 0.50 0.70 1.25 0 0.90 0.25 1.25 1 1.25 1.20 0 1.30 1.30 0.25 3.80 -0.65 1.65 -0.65 1.75 0.05 1.50 0.50 -0.20 0.70 -0.05 0.60 0.30 -0.35 1 -2.90 1.15 -2.90 0.20z"/>
  <path d="M33.70 91.75 c-0.30 -1.30 0.15 -4.05 0.60 -3.60 0.20 0.15 0.35 1.30 0.45 2.55 0.15 2.45 -0.50 3.10 -1.05 1.05z"/>
  <path d="M46 92.05 c0 -0.25 -0.15 -0.90 -0.35 -1.40 -0.30 -0.80 -0.25 -0.80 0.50 -0.20 0.95 0.75 1.15 2.05 0.35 2.05 -0.25 0 -0.50 -0.20 -0.50 -0.45z"/>
  <path d="M0 90.25 c0 -0.70 0.20 -1.25 0.40 -1.25 0.20 0 0.65 -0.65 0.95 -1.50 1.15 -3.05 2.10 -1.30 1.35 2.45 -0.25 1.20 -0.60 1.55 -1.50 1.55 -0.95 0 -1.20 -0.25 -1.20 -1.25z"/>
  <path d="M80.55 89.15 c0.85 -2.30 3.10 -6.15 3.55 -6.15 0.80 0 0.40 3 -0.70 5.25 -0.85 1.70 -1.40 2.25 -2.25 2.25 -1 0 -1.10 -0.15 -0.60 -1.35z"/>
  <path d="M98.50 85.25 c0 -3.45 -0.15 -4.25 -0.75 -4.25 -0.45 0 -0.75 -0.45 -0.75 -1.25 0 -1.05 -0.25 -1.25 -1.45 -1.25 -0.80 0 -2.40 -0.35 -3.55 -0.75 -1.95 -0.70 -2.20 -0.70 -2.80 0.10 -0.35 0.50 -0.70 1.05 -0.70 1.30 0 0.20 -0.35 0.35 -0.75 0.35 -0.45 0 -0.75 0.45 -0.75 1.25 0 1 -0.25 1.25 -1.25 1.25 -0.70 0 -1.25 -0.10 -1.25 -0.25 0 -0.10 0.80 -1.70 1.80 -3.50 2.05 -3.75 2.30 -3.80 7.25 -2.20 3.25 1.10 5.45 2.60 5.45 3.80 0 0.35 0.25 0.65 0.50 0.65 0.30 0 0.50 1.85 0.50 4.50 0 3.65 -0.15 4.50 -0.75 4.50 -0.60 0 -0.75 -0.80 -0.75 -4.25z"/>
  <path d="M49.15 81.65 c0.20 -0.15 2.25 -0.90 4.55 -1.65 2.35 -0.75 6.20 -2.45 8.65 -3.75 3.20 -1.70 4.10 -2.05 3.40 -1.25 -1.30 1.45 -7.65 4.60 -11.95 5.95 -3.40 1.05 -5.25 1.35 -4.65 0.70z"/>
  <path d="M37.40 79.55 c-0.90 -0.80 -1.50 -1.60 -1.35 -1.75 0.15 -0.15 1.05 0.50 1.95 1.45 2.05 2.10 1.65 2.30 -0.60 0.30z"/>
  <path d="M80.75 47.75 c3.05 -6.15 5.20 -13.50 5.30 -18 0.05 -2.35 0.15 -2.65 0.40 -1.50 0.50 1.95 0.25 3.85 -1.25 10.25 -1.25 5.15 -3.55 10.30 -5.90 13.25 -0.80 0.95 -0.25 -0.50 1.45 -4z"/>
  <path d="M32.30 20.90 c-0.45 -1.80 -0.35 -3.90 0.20 -3.90 0.30 0 0.50 1.15 0.50 2.50 0 2.70 -0.20 3.15 -0.70 1.40z"/>
  <path d="M83.20 15.95 c-0.50 -1.15 -1.60 -3.05 -2.40 -4.15 -1.45 -2.05 -1.45 -2.05 -0.10 -0.85 1.35 1.25 4.15 6.40 3.70 6.80 -0.15 0.15 -0.65 -0.70 -1.20 -1.80z"/>
  <path d="M32.55 13.60 c-0.10 -2.25 1.50 -4.55 4.45 -6.55 3.05 -2 9.80 -4.70 13.25 -5.25 1.20 -0.15 0.20 0.30 -2.35 1.20 -9.45 3.20 -13.45 5.75 -14.55 9.35 -0.50 1.55 -0.75 2 -0.80 1.25z"/>
 </g>
 <g fill="#734724">
  <path d="M34.50 99.60 c0 -0.25 1.05 -1.20 2.30 -2.10 1.55 -1.20 2.20 -2 2.05 -2.60 -0.20 -0.75 0.05 -0.90 1.45 -0.90 1.70 0 1.70 0 0.95 1.20 -0.55 0.80 -0.65 1.30 -0.30 1.55 0.30 0.15 0.55 0.55 0.55 0.85 0 0.35 -0.45 0.10 -1 -0.45 l-0.95 -1.05 -1.95 1.95 c-1.85 1.85 -3.10 2.45 -3.10 1.55z"/>
  <path d="M38.50 99.80 c0 -0.10 0.35 -0.45 0.75 -0.80 0.60 -0.50 0.75 -0.50 0.75 0.20 0 0.45 -0.35 0.80 -0.75 0.80 -0.40 0 -0.75 -0.10 -0.75 -0.20z"/>
  <path d="M36.40 76.15 c-1.30 -0.35 -1.10 -1.65 0.25 -1.65 0.90 -0.05 0.75 -0.25 -0.90 -1.25 -2.50 -1.55 -2.75 -1.55 -2.75 0.10 l0 1.35 -1.05 -1 c-0.55 -0.60 -1.15 -1.95 -1.30 -3.05 l-0.25 -2.05 2.65 0.50 c1.50 0.25 3.65 1.10 4.85 1.90 1.20 0.80 3.15 1.85 4.40 2.35 1.20 0.50 2.10 1.15 2.05 1.40 -0.40 1.20 -5.40 2.10 -7.95 1.40z"/>
  <path d="M46 64.05 c0 -0.80 0.30 -1.05 1.25 -1.05 0.70 0 1.25 -0.20 1.25 -0.50 0 -0.25 0.65 -0.50 1.45 -0.50 0.80 0 1.60 -0.30 1.75 -0.60 0.15 -0.35 0.25 -0.20 0.15 0.30 -0.15 1.20 -2.15 2.70 -4.20 3.10 -1.45 0.30 -1.65 0.20 -1.65 -0.75z"/>
  <path d="M32.85 61.65 c-0.15 -0.80 -0.25 -1.80 -0.25 -2.30 0.10 -1.55 1.90 0.60 1.90 2.25 0 1.85 -1.35 1.90 -1.65 0.05z"/>
  <path d="M53.10 60.15 c-0.25 -0.80 -0.90 -2.90 -1.35 -4.75 -0.55 -2.25 -1.40 -3.95 -2.55 -5.30 -0.95 -1.10 -1.70 -2.15 -1.70 -2.35 0 -0.20 0.70 -0.25 1.50 -0.15 2 0.30 2.30 -0.30 0.90 -1.60 -0.95 -0.90 -1 -1.10 -0.40 -1.50 1.10 -0.70 2 -0.60 2 0.20 0 0.90 1.45 1.45 2.25 0.80 0.65 -0.55 2.25 -0.15 2.25 0.55 0 0.25 -0.60 0.45 -1.35 0.45 -1.05 0 -1.20 0.15 -0.65 0.50 0.60 0.35 0.55 0.50 -0.25 0.80 -0.80 0.35 -0.45 0.55 1.75 1.20 2.55 0.75 2.75 0.90 2.90 2.45 0.25 2.40 -1.70 8.35 -3 9.30 -1.50 1 -1.70 0.95 -2.30 -0.60z m2.40 -4.60 c0.60 -2.35 0.35 -3.25 -1.30 -4 -1.40 -0.65 -2.80 -0.75 -1.90 -0.15 0.70 0.45 1.70 3.40 1.70 4.90 0 1.85 0.90 1.40 1.50 -0.75z"/>
  <path d="M36.75 59.35 c-3.15 -1.15 -3.90 -2.40 -2.20 -3.50 1.20 -0.75 2.45 -0.05 2.45 1.40 0 1.60 0.85 1.60 1.60 0 0.90 -1.95 2.65 -1.65 3.55 0.65 0.40 1 0.65 2 0.50 2.25 -0.40 0.65 -2.80 0.30 -5.90 -0.80z"/>
  <path d="M28.35 57 c-1.90 -6.85 -2.10 -10 -0.55 -10 0.50 0 0.70 0.65 0.70 2.10 0 2.60 0.25 2.35 0.65 -0.70 0.25 -1.90 0.15 -2.35 -0.45 -2.50 -0.60 -0.10 -0.30 -0.70 1.25 -2.50 1.15 -1.25 2.05 -2.55 2.05 -2.85 0 -0.65 1.45 -0.70 2.40 -0.10 0.35 0.20 0.60 0.70 0.50 1.10 -0.15 0.70 0.40 0.75 2.85 0.35 0.65 -0.10 1 0.15 1 0.60 0 0.40 -0.50 0.80 -1.10 0.90 -0.65 0.10 -1.15 0.50 -1.15 0.95 0 0.45 -0.35 1.20 -0.80 1.70 -0.70 0.80 -0.70 0.95 0.20 1.85 1 1 1 1 2.10 -0.15 0.60 -0.60 1.40 -2.20 1.80 -3.50 0.85 -2.95 0.85 -3.25 0.05 -3.25 -0.40 0 -1.10 -0.45 -1.65 -1.05 -1.40 -1.60 -3.65 -2.55 -5 -2.25 -1 0.25 -1.20 0.15 -1.20 -0.85 0 -1.65 0.30 -1.80 2.55 -1.25 1.35 0.35 2.60 1.25 3.95 2.80 l2 2.25 0 -1.55 c0 -2.15 -2.10 -4.40 -5.05 -5.45 -2.70 -1 -3.25 -2.15 -1 -2.15 1.65 0 4.55 0.95 4.55 1.50 0 0.20 1.50 0.35 3.40 0.35 1.85 -0.05 5.50 0.20 8.10 0.55 2.60 0.30 4.80 0.60 4.90 0.60 0.05 0 0.10 0.30 0.10 0.70 0 0.40 -0.70 0.85 -1.60 1.05 -0.90 0.15 -2.75 0.65 -4.05 1.10 -2.15 0.65 -2.55 0.65 -4.05 -0.05 -3.05 -1.45 -4.30 -0.85 -3.10 1.40 0.75 1.45 0.55 3 -1.20 8.70 -0.60 1.90 -0.85 3.70 -0.65 4.65 0.35 1.75 -0.35 2.45 -2.45 2.45 -1.45 0 -2.90 -1.55 -2.90 -3.10 0 -0.50 -0.20 -0.90 -0.50 -0.90 -0.25 0 -0.85 -0.70 -1.30 -1.60 -0.60 -1.15 -0.90 -1.40 -1.20 -0.85 -0.30 0.60 -1.95 6.55 -2.90 10.70 -0.35 1.35 -0.45 1.25 -1.25 -1.75z"/>
  <path d="M75.55 56.50 c1.45 -2.30 1.45 -2.25 1.45 -1.60 0 0.30 -0.60 1.20 -1.30 1.95 l-1.30 1.40 1.15 -1.75z"/>
  <path d="M44.75 52.20 c-0.75 -0.55 -0.85 -0.90 -0.45 -1.55 0.75 -1.25 1.40 -1.30 2.70 -0.25 2.20 1.80 0.05 3.55 -2.25 1.80z"/>
  <path d="M57.50 45 c-0.40 -0.25 -0.55 -0.60 -0.35 -0.80 0.20 -0.20 0.75 0 1.20 0.45 0.90 0.90 0.40 1.15 -0.85 0.35z"/>
  <path d="M57.05 42.40 c-2.85 -1.50 -5.85 -1.80 -8.95 -0.95 -1.25 0.40 -1.60 0.35 -1.60 -0.20 0 -0.75 3.95 -2.05 7.65 -2.55 2 -0.30 2.30 -0.20 3.75 1.35 1.45 1.55 2.45 3.35 2 3.65 -0.05 0.10 -1.35 -0.50 -2.85 -1.30z"/>
  <path d="M33.35 39.60 c-0.75 -0.10 -1.25 -0.40 -1.10 -0.65 0.40 -0.60 2.10 -0.55 2.50 0.10 0.45 0.70 0.25 0.75 -1.40 0.55z"/>
  <path d="M58.65 37.40 c-2.15 -1.50 -2.05 -2.05 0.35 -1.80 l1.95 0.15 -0.80 -1.25 c-0.45 -0.70 -1.70 -2.40 -2.85 -3.80 -2.45 -3.10 -9.35 -7.40 -13.25 -8.30 -1.45 -0.30 -2.75 -0.90 -2.90 -1.25 -0.15 -0.35 -0.70 -0.65 -1.20 -0.65 -0.50 0 -0.95 -0.20 -0.95 -0.50 0 -1 2.40 -1.70 6.05 -1.75 3.75 0 3.85 0.05 5.25 1.70 2.10 2.55 3.15 3.40 5 4.30 0.90 0.40 1.80 1 1.95 1.20 0.15 0.25 1.70 1.25 3.45 2.25 2.20 1.25 3.85 1.80 5.25 1.80 2.60 0 3.45 1.30 2.50 3.65 -0.85 2.20 -1.85 3.30 -4.05 4.40 -2.45 1.25 -3.80 1.20 -5.75 -0.15z"/>
  <path d="M32 30.40 c0 -1.50 0.65 -2.90 1.30 -2.90 0.45 0 0.70 0.60 0.70 1.75 0 1.40 -0.20 1.75 -1 1.75 -0.55 0 -1 -0.30 -1 -0.60z"/>
  <path d="M32.70 24.75 c-0.15 -0.65 -0.20 -1.50 -0.05 -1.85 0.20 -0.40 0.30 -0.35 0.30 0.25 0.05 1.25 0.45 1.10 2.75 -1.25 l2.05 -2.15 0.15 1.40 c0.20 1.55 -0.60 2.85 -1.70 2.85 -0.40 0 -0.70 0.45 -0.70 1 0 1.55 -2.40 1.35 -2.80 -0.25z"/>
 </g>
 <g fill="#76462a">
  <path d="M34.50 99.55 c0 -0.20 0.90 -1 2 -1.75 2.40 -1.60 2.70 -0.85 0.35 0.90 -1.80 1.35 -2.35 1.60 -2.35 0.85z"/>
  <path d="M41.50 99.30 c0 -0.35 -0.55 -1.50 -1.25 -2.50 -1.20 -1.75 -1.20 -1.80 -0.20 -1.80 0.55 0 0.85 0.25 0.70 0.50 -0.15 0.30 0.15 1.15 0.70 1.95 1.15 1.60 1.35 2.55 0.55 2.55 -0.25 0 -0.50 -0.30 -0.50 -0.70z"/>
  <path d="M41 92.75 c0 -1.40 0.20 -1.75 1 -1.75 0.70 0 0.90 0.25 0.65 0.85 -0.25 0.60 -0.10 0.75 0.50 0.50 1.30 -0.50 1 0.45 -0.40 1.35 -1.65 1.10 -1.75 1.05 -1.75 -0.95z"/>
  <path d="M45.65 93.45 c0.20 -0.65 0.35 -1.35 0.35 -1.55 0 -0.25 0.25 -0.40 0.55 -0.40 0.75 0 0.30 2.65 -0.50 2.90 -0.50 0.20 -0.60 -0.05 -0.40 -0.95z"/>
  <path d="M37.10 91.45 c-0.85 -1.35 -0.45 -1.75 0.65 -0.65 0.70 0.75 0.90 0.75 1.30 0.15 0.35 -0.55 0.45 -0.45 0.45 0.45 0 1.45 -1.50 1.50 -2.40 0.05z"/>
  <path d="M34.55 67 c-2.05 -0.95 -2.15 -1.10 -1.85 -2.55 0.15 -0.85 0.30 -1.90 0.30 -2.25 0 -0.40 0.35 -0.70 0.80 -0.70 1.15 0 2.20 1.25 2.20 2.70 0 1.05 0.30 1.30 1.70 1.55 2.05 0.40 3.80 -0.05 3.80 -1 0 -1.35 4.05 -1.75 5.30 -0.50 0.70 0.65 0.65 0.75 -0.50 0.75 -1.75 0 -1.65 0.90 0.10 1.10 l1.35 0.15 -1.20 0.70 c-0.70 0.40 -3.15 0.80 -5.50 0.90 -3.60 0.15 -4.65 0 -6.50 -0.85z"/>
  <path d="M37.25 61.50 c-1.25 -0.55 0.05 -0.55 1.75 0 1 0.30 1.05 0.40 0.25 0.40 -0.55 0 -1.45 -0.15 -2 -0.40z"/>
  <path d="M33.90 60.40 c-0.80 -0.25 -1.40 -0.85 -1.40 -1.25 0 -0.70 0.10 -0.75 0.90 -0.05 0.45 0.40 1.30 1 1.85 1.30 1.25 0.70 0.50 0.70 -1.35 0z"/>
  <path d="M35.15 58.75 c-1.85 -0.80 -1.80 -2.30 0.05 -2.20 0.85 0.05 0.90 0.10 0.15 0.30 -1.15 0.30 -0.85 1.35 0.45 1.55 0.50 0.10 1.15 0.40 1.45 0.65 0.65 0.65 -0.20 0.55 -2.10 -0.30z"/>
  <path d="M52.50 46.15 c0.40 -0.15 1.25 -0.75 1.90 -1.30 l1.10 -1 0 1.30 c0 1.25 -0.15 1.35 -1.85 1.30 -1.05 0 -1.55 -0.15 -1.15 -0.30z"/>
 </g>
 <g fill="#654e40">
  <path d="M41.60 99.15 c-0.90 -1.60 -0.75 -2.55 0.20 -1.25 0.40 0.60 0.70 1.40 0.55 1.75 -0.10 0.35 -0.40 0.15 -0.75 -0.50z"/>
  <path d="M40.50 94 c0 -0.25 -0.55 -0.50 -1.15 -0.50 -0.80 0 -1.40 -0.45 -1.75 -1.25 -0.80 -1.70 -0.75 -2 0.15 -1.25 0.65 0.55 0.90 0.50 1.50 -0.30 0.60 -0.75 0.80 -0.80 1.20 -0.25 0.25 0.40 0.80 0.55 1.50 0.30 1 -0.30 1.05 -0.20 0.75 1.10 -0.35 1.30 -0.30 1.35 0.60 0.65 0.60 -0.45 0.50 -0.20 -0.25 0.65 -1.20 1.35 -2.55 1.80 -2.55 0.85z"/>
  <path d="M45.65 93.80 c0.20 -0.50 0.35 -1.10 0.35 -1.35 0 -0.25 0.25 -0.45 0.55 -0.45 0.75 0 0.35 2.15 -0.50 2.40 -0.50 0.15 -0.60 0 -0.40 -0.60z"/>
  <path d="M41.90 86.65 c-1 -0.25 -1.25 -2.15 -0.25 -2.15 1.75 0.05 2.70 0.60 2.50 1.55 -0.25 0.95 -0.60 1.05 -2.25 0.60z"/>
  <path d="M33.30 62.55 c-0.55 -3.50 -0.50 -3.65 1.35 -2.60 0.85 0.55 2.35 1.10 3.25 1.30 1.90 0.40 2.20 1.75 0.35 1.75 -0.80 0 -1.25 0.30 -1.25 0.75 0 0.60 -0.45 0.75 -1.70 0.65 -1.55 -0.10 -1.75 -0.30 -2 -1.85z"/>
  <path d="M45.50 64 c0 -0.25 -0.45 -0.50 -1 -0.50 -1.50 0 -1.20 -1.40 0.40 -1.70 4.90 -0.95 5.10 -0.95 5.10 0.15 0 0.55 -0.20 1.05 -0.50 1.05 -0.25 0 -0.50 0.35 -0.50 0.75 0 0.50 -0.55 0.75 -1.75 0.75 -0.95 0 -1.75 -0.20 -1.75 -0.50z"/>
  <path d="M49.50 45.55 c-2 -1.05 -2.30 -2.20 -0.60 -2.45 0.60 -0.10 1.10 0.05 1.10 0.35 0 0.30 0.35 0.55 0.75 0.55 0.45 0 0.75 0.45 0.75 1.25 0 1.50 0.15 1.45 -2 0.30z"/>
  <path d="M53.05 46.20 c0.45 -0.15 1.10 -0.80 1.45 -1.45 0.70 -1.30 1.50 -1.65 1.50 -0.70 0 0.30 0.40 0.40 0.95 0.20 0.95 -0.30 2.45 1 1.85 1.60 -0.15 0.20 -1.70 0.40 -3.45 0.45 -1.70 0.10 -2.75 0.05 -2.30 -0.10z"/>
  <path d="M32.10 39.90 c0.25 -1.70 1.90 -1.85 1.90 -0.20 0 1 -0.25 1.30 -1.05 1.30 -0.75 0 -1 -0.25 -0.85 -1.10z"/>
  <path d="M32.80 25.20 c-0.15 -0.45 -0.30 -1.25 -0.25 -1.85 0 -1.05 0.05 -1.05 0.50 0.10 0.45 1.15 0.50 1.20 1.20 0.25 0.65 -0.90 0.70 -0.85 0.75 0.70 0 1.25 -0.20 1.60 -0.95 1.60 -0.50 0 -1.10 -0.35 -1.25 -0.80z"/>
  <path d="M32.05 15.65 c0 -0.50 0.20 -1.35 0.45 -1.90 0.35 -0.80 0.45 -0.65 0.45 0.90 0.05 1 -0.15 1.85 -0.45 1.85 -0.25 0 -0.50 -0.40 -0.45 -0.85z"/>
 </g>
 <g fill="#83522d">
  <path d="M37.75 97 c0.50 -0.55 1 -0.90 1.15 -0.75 0.35 0.30 -0.90 1.75 -1.55 1.75 -0.25 0 -0.10 -0.45 0.40 -1z"/>
  <path d="M39.05 94.95 c-1.30 -2.10 -1.30 -2.45 -0.05 -2.45 0.55 0 1 -0.20 1 -0.50 0 -0.25 0.60 -0.50 1.30 -0.50 1 0 1.25 0.20 1 0.80 -0.25 0.60 -0.10 0.75 0.55 0.50 0.55 -0.20 0.15 0.45 -0.85 1.55 -0.95 1.05 -1.80 1.95 -1.85 2.10 -0.05 0.10 -0.55 -0.60 -1.10 -1.50z"/>
  <path d="M46 92 c0 -0.55 0.25 -1 0.50 -1 0.30 0 0.50 0.45 0.50 1 0 0.55 -0.20 1 -0.50 1 -0.25 0 -0.50 -0.45 -0.50 -1z"/>
  <path d="M36.50 76.05 c-2.55 -0.50 -3.90 -1.40 -5 -3.20 -1.40 -2.25 -1.30 -3.35 0.30 -3.35 1.60 0 10.20 4.50 10.20 5.30 0 0.55 -2.65 1.80 -3.45 1.65 -0.15 -0.05 -1.10 -0.20 -2.05 -0.40z"/>
  <path d="M33.15 64 c0.05 -1.55 0.25 -2 0.95 -2 0.50 0 0.90 0.20 0.90 0.50 0 0.25 0.35 0.35 0.75 0.20 0.60 -0.25 0.75 0.10 0.75 1.50 0 1.70 -0.10 1.80 -1.70 1.80 -1.70 0 -1.75 -0.05 -1.65 -2z"/>
  <path d="M53.10 59.75 c-1 -2.15 -0.75 -3.25 0.65 -3.25 1.10 0 1.25 -0.20 1.25 -1.70 0 -1.25 -0.35 -1.95 -1.10 -2.50 -0.60 -0.45 -1.20 -0.65 -1.35 -0.45 -0.15 0.15 0 0.40 0.35 0.50 0.30 0.15 0.60 1 0.60 1.95 0 2.40 -1.20 2.20 -1.95 -0.30 -0.30 -1.10 -1.30 -2.80 -2.15 -3.80 -0.85 -0.95 -1.40 -1.85 -1.25 -2 0.30 -0.30 4.95 0.90 7.50 1.90 0.80 0.30 1.50 1.05 1.65 1.75 0.75 2.95 -1.10 8.70 -2.85 9.05 -0.45 0.05 -1.05 -0.45 -1.35 -1.15z"/>
  <path d="M27.90 54.85 c-1.10 -4 -1.10 -4.35 -0.15 -4.35 0.40 0 0.75 -0.35 0.75 -0.75 0 -0.40 -0.35 -0.75 -0.75 -0.75 -1.35 0 -0.80 -1.90 1.35 -4.35 1.15 -1.30 2.20 -2.40 2.35 -2.35 0.75 0.05 4 1.75 4.30 2.15 0.35 0.60 -1.30 1.55 -2.65 1.55 -1.45 0 -2.10 1.10 -2.40 4.05 -0.15 1.50 -0.60 3.50 -0.95 4.45 -0.40 0.95 -0.75 2.20 -0.85 2.70 -0.10 0.55 -0.55 -0.50 -1 -2.35z"/>
  <path d="M36.55 53.30 c-1.05 -1.10 -1.10 -1.30 -0.40 -2.65 0.40 -0.75 1.20 -1.85 1.80 -2.35 1.05 -0.95 3.05 -6.45 3.05 -8.35 0 -1.20 1.35 -1.25 1.70 -0.05 0.55 1.60 -3.30 13.50 -4.60 14.30 -0.25 0.15 -0.95 -0.25 -1.55 -0.90z"/>
  <path d="M45.15 52.15 c-0.80 -0.30 -0.85 -2.15 -0.10 -2.15 1 0 2.45 1.05 2.45 1.75 0 0.75 -1.15 0.90 -2.35 0.40z"/>
  <path d="M34.15 49.25 c-0.15 -0.45 -0.15 -0.90 0 -1.05 0.45 -0.45 1.35 0.30 1.35 1.10 0 0.95 -0.95 0.90 -1.35 -0.05z"/>
  <path d="M50.40 45.95 c-1.20 -0.65 -1.15 -1.45 0.10 -1.45 0.55 0 1 0.35 1 0.75 0 1.05 2.35 0.95 2.95 -0.10 0.45 -0.80 0.50 -0.80 0.55 0.25 0 0.95 -0.25 1.10 -1.85 1.10 -1.05 0 -2.30 -0.25 -2.75 -0.55z"/>
  <path d="M56.65 44.40 c-0.65 -0.30 -1.15 -0.75 -1.15 -1 0 -0.65 0.65 -0.45 2 0.60 1.35 1.05 0.90 1.25 -0.85 0.40z"/>
  <path d="M33.65 42.45 c-1.70 -1.05 -2.15 -2 -1 -1.90 1.10 0.05 2.40 0.75 2.40 1.20 0 0.50 0.50 0.50 2.70 0.15 0.65 -0.10 1 0.15 1 0.60 0 1.20 -3.25 1.20 -5.10 -0.05z"/>
  <path d="M57 42.20 c-1.25 -0.65 -2.50 -1.20 -2.85 -1.20 -0.35 0 -0.65 -0.45 -0.65 -1 0 -1.55 1.95 -1.25 4.20 0.65 2.60 2.20 2.20 3.10 -0.70 1.55z"/>
  <path d="M46.50 41.30 c0 -0.45 3.20 -1.80 4.25 -1.80 0.40 0 0.75 0.35 0.75 0.75 0 0.40 -0.40 0.75 -0.95 0.75 -0.50 0 -1.65 0.15 -2.50 0.30 -0.85 0.20 -1.55 0.15 -1.55 0z"/>
  <path d="M37.60 39.25 c-0.85 -0.70 -2.35 -1.45 -3.35 -1.60 -1.25 -0.20 -1.75 -0.55 -1.75 -1.20 0 -2 4.10 -0.60 6 2.05 1.45 2.05 1 2.35 -0.90 0.75z"/>
  <path d="M33 39 c-0.60 -0.40 -0.55 -0.50 0.35 -0.50 0.60 0 1.25 0.25 1.40 0.50 0.40 0.65 -0.75 0.65 -1.75 0z"/>
  <path d="M58.60 37 c-1.40 -0.65 -3.70 -1.05 -7 -1.25 -2.70 -0.15 -5.65 -0.45 -6.55 -0.75 -1.70 -0.50 -4.40 -0.20 -4.85 0.55 -0.15 0.25 -1.10 -0.10 -2.10 -0.80 -1 -0.65 -2.45 -1.35 -3.20 -1.50 -0.80 -0.20 -1.40 -0.65 -1.40 -1.05 0 -0.40 -0.35 -0.70 -0.80 -0.70 -0.70 0 -0.75 -0.30 -0.40 -1.85 0.25 -1.05 0.40 -3.25 0.40 -4.90 -0.05 -1.65 0.05 -2.40 0.15 -1.60 0.10 0.75 0.30 1.35 0.45 1.35 0.10 0 1.05 -0.95 2.10 -2.10 1.65 -1.85 4.95 -3.85 6.40 -3.90 0.35 0 0.70 0.40 0.80 0.90 0.20 0.60 1.10 1.10 2.90 1.50 4.30 1 10.85 5.20 13.70 8.80 3.15 4 4.20 6.10 3.50 7.20 -0.80 1.20 -1.65 1.25 -4.10 0.10z m-0.35 -3.85 c-2.15 -3.40 -3.40 -4.60 -7.35 -7 -2.45 -1.50 -5.50 -2.90 -7.20 -3.30 -1.60 -0.40 -3.15 -0.75 -3.45 -0.85 -0.25 -0.05 -1.35 -0.10 -2.35 -0.05 -1.80 0.05 -1.90 0.10 -1.90 1.80 0 0.95 -0.20 1.75 -0.40 1.75 -0.40 0 -1.60 4.30 -1.60 5.55 0 0.25 0.70 0.45 1.50 0.45 1.05 0 1.50 0.25 1.50 0.80 0 0.65 0.35 0.75 1.90 0.50 4.30 -0.80 6.55 -0.85 7.65 -0.30 0.65 0.35 2.90 0.60 5.40 0.55 2.95 0 4.70 0.20 5.55 0.70 1.70 1 1.75 0.95 0.75 -0.60z"/>
 </g>
 <g fill="#4f566b">
  <path d="M32 98.85 c0 -0.70 0.25 -1.45 0.50 -1.60 0.35 -0.20 0.40 0.15 0.20 1.10 -0.45 1.90 -0.70 2.10 -0.70 0.50z"/>
  <path d="M78.50 99.40 c0 -1.50 0.65 -2.90 1.30 -2.90 0.45 0 0.70 0.60 0.70 1.75 0 1.40 -0.20 1.75 -1 1.75 -0.55 0 -1 -0.30 -1 -0.60z"/>
  <path d="M85.20 98.75 c-0.15 -0.70 -0.05 -4.10 0.25 -7.50 0.30 -3.45 0.55 -6.50 0.55 -6.75 0 -0.30 0.80 -0.50 1.80 -0.50 l1.85 0 -0.30 3.40 c-0.20 1.85 -0.35 5.45 -0.35 8 0 3.45 -0.15 4.60 -0.65 4.60 -0.35 0 -0.90 -0.60 -1.20 -1.35 l-0.55 -1.40 -0.05 1.40 c-0.05 1.70 -0.95 1.75 -1.35 0.10z"/>
  <path d="M91.50 97.50 l0 -2.50 1.70 0 c1.50 0 1.70 0.20 2 1.55 0.60 3.15 0.45 3.45 -1.70 3.45 l-2 0 0 -2.50z"/>
  <path d="M6 96.65 c0 -1.05 0.55 -4.20 1.15 -7 1.10 -4.90 1.15 -5.15 0.25 -5.15 -0.70 0 -0.90 -0.40 -0.90 -1.75 0 -2.70 1.25 -4.75 2.90 -4.75 2.20 0 3.35 -0.50 3.85 -1.60 0.55 -1.25 2.05 -2.25 2.55 -1.80 0.15 0.20 -0.15 1 -0.70 1.80 -1.70 2.40 -5.95 14 -7.15 19.65 -0.65 3 -1.95 3.40 -1.95 0.60z"/>
  <path d="M98.15 96.65 c-0.50 -0.15 -0.65 -2.45 -0.65 -8.95 l0 -8.70 -1.25 0 c-0.95 0 -1.25 -0.25 -1.25 -1.05 0 -1.65 2.05 -1 3.45 1.15 1.05 1.65 1.20 2.45 1.40 9.85 0.20 8.30 0.15 8.50 -1.70 7.70z"/>
  <path d="M79.20 93.95 c0.40 -2.65 1.60 -5.45 2.25 -5.45 0.70 0 0.70 1.60 -0.05 4.85 -0.50 2.05 -0.85 2.65 -1.60 2.65 -0.80 0 -0.90 -0.25 -0.60 -2.05z"/>
  <path d="M39.50 93.65 c-1.30 -0.25 -2 -0.95 -2 -2.10 0 -0.50 0.15 -0.55 0.70 -0.10 0.50 0.45 0.80 -0.10 1.55 -2.70 0.55 -2 1.10 -3.25 1.55 -3.25 0.40 0 0.70 0.25 0.70 0.50 0 0.30 0.50 0.50 1.05 0.50 0.95 0 1.05 0.20 0.70 1.90 -0.15 1 -0.75 2.60 -1.30 3.50 l-0.95 1.65 1.15 -0.60 c1 -0.55 1.05 -0.55 0.40 0.20 -0.65 0.85 -1.20 0.90 -3.55 0.50z"/>
  <path d="M0 91.80 c0 -1 0.25 -1.80 0.50 -1.80 0.30 0 0.50 -0.40 0.50 -0.90 0 -1.20 2.45 -6.10 3.05 -6.10 0.25 0 0.45 0.80 0.45 1.75 0 0.95 -0.20 1.75 -0.50 1.75 -0.25 0 -0.50 0.45 -0.50 1 0 0.55 -0.20 1 -0.45 1 -0.30 0 -0.55 1.05 -0.65 2.40 -0.15 2 -0.30 2.35 -1.25 2.50 -1 0.15 -1.15 -0.05 -1.15 -1.60z"/>
  <path d="M33.70 91.30 c-0.15 -0.70 -0.05 -1.65 0.25 -2.15 0.40 -0.75 0.50 -0.50 0.55 1.25 0 2.35 -0.30 2.75 -0.80 0.90z"/>
  <path d="M83.50 83.60 c0 -0.20 1 -2.05 2.25 -4.05 1.25 -2 2.25 -3.85 2.25 -4.10 0 -0.25 0.45 -0.45 1 -0.45 0.65 0 1 0.35 1 1 0 0.55 -0.20 1 -0.50 1 -0.25 0 -0.50 0.45 -0.50 1 0 0.55 -0.20 1 -0.50 1 -0.25 0 -0.50 0.35 -0.50 0.75 0 0.40 -0.35 0.75 -0.75 0.75 -0.40 0 -0.75 0.45 -0.75 0.95 0 1.75 -0.60 2.55 -1.80 2.55 -0.65 0 -1.20 -0.20 -1.20 -0.40z"/>
  <path d="M49.65 81.70 c0.15 -0.15 2.25 -0.95 4.70 -1.80 2.40 -0.80 5.85 -2.25 7.60 -3.20 1.75 -0.95 3.25 -1.65 3.40 -1.55 0.40 0.40 -8.60 4.75 -12.05 5.80 -3.65 1.10 -4.15 1.20 -3.65 0.75z"/>
  <path d="M81.15 47.25 c2 -4 3.40 -5.80 2.30 -2.90 -0.55 1.40 -3.90 7.15 -4.20 7.15 -0.10 0 0.75 -1.90 1.90 -4.25z"/>
  <path d="M47.50 44 c0 -0.60 1.65 -1.50 2.70 -1.50 0.45 0 0.80 0.45 0.80 1 0 0.80 -0.35 1 -1.75 1 -0.95 0 -1.75 -0.20 -1.75 -0.50z"/>
  <path d="M84.25 39.65 c0.40 -1.35 0.75 -2.60 0.75 -2.85 0 -0.25 0.10 -0.35 0.25 -0.20 0.40 0.35 -0.85 5.40 -1.30 5.40 -0.25 0 -0.10 -1.05 0.30 -2.35z"/>
  <path d="M86.15 32 c0 -1.25 0.10 -1.75 0.20 -1.10 0.10 0.60 0.10 1.60 0 2.25 -0.10 0.60 -0.20 0.10 -0.20 -1.15z"/>
  <path d="M32.45 20.50 c-0.15 -1.80 -0.25 -3.35 -0.15 -3.45 0.55 -0.60 0.75 0.65 0.60 3.50 l-0.15 3.20 -0.30 -3.25z"/>
  <path d="M34.75 9.05 c1.45 -1.55 8.20 -5.20 10.75 -5.75 l1.25 -0.30 -1.25 0.55 c-0.70 0.35 -2.85 1.30 -4.80 2.20 -1.90 0.90 -4.40 2.35 -5.50 3.30 l-1.95 1.65 1.50 -1.65z"/>
 </g>
 <g fill="#945131">
  <path d="M41.55 99.10 c-0.30 -0.60 -0.55 -1.35 -0.55 -1.70 0.05 -0.35 0.40 0 0.80 0.75 0.45 0.80 0.65 1.55 0.55 1.70 -0.15 0.10 -0.50 -0.20 -0.80 -0.75z"/>
  <path d="M35.50 99.10 c0 -0.25 0.60 -0.85 1.30 -1.35 0.85 -0.55 1.25 -0.65 1.10 -0.20 -0.25 0.80 -2.40 2.20 -2.40 1.55z"/>
  <path d="M37.90 92.75 c-1.30 -2.15 -1.25 -3.10 0.10 -1.50 0.35 0.45 0.95 0.70 1.35 0.55 0.45 -0.20 0.65 0.20 0.65 1.45 0 0.95 -0.15 1.75 -0.40 1.75 -0.20 0 -0.95 -1 -1.70 -2.25z"/>
  <path d="M41.60 92.75 c-0.05 -1.35 0.15 -1.75 0.75 -1.75 0.65 0 0.70 0.15 0.25 0.60 -0.90 0.90 -0.75 1.55 0.25 1.20 0.75 -0.30 0.75 -0.20 -0.10 0.70 -0.50 0.55 -0.95 1 -1 1 -0.05 0 -0.10 -0.80 -0.15 -1.75z"/>
  <path d="M46 92.55 c0 -0.55 0.25 -1.15 0.50 -1.30 0.30 -0.20 0.50 0.25 0.50 0.95 0 0.70 -0.20 1.30 -0.50 1.30 -0.25 0 -0.50 -0.45 -0.50 -0.95z"/>
  <path d="M34.65 66.80 c-1.10 -0.50 -1.65 -1.10 -1.65 -1.80 0 -0.90 0.20 -1 1.15 -0.70 1.05 0.30 1.05 0.30 -0.15 -0.70 -1.50 -1.30 -1 -1.35 3.50 -0.40 1.80 0.40 4.35 0.60 5.65 0.45 1.90 -0.25 2.35 -0.15 2.35 0.50 0 0.40 -0.60 0.90 -1.35 1.10 -1.05 0.25 -1.20 0.40 -0.65 0.75 1.20 0.75 0.15 1.15 -3.60 1.35 -2.50 0.10 -4.15 -0.05 -5.25 -0.55z"/>
  <path d="M32.50 36.40 c0 -0.70 0.30 -0.95 1.10 -0.80 1.65 0.20 1.75 1.65 0.15 1.70 -0.95 0.10 -1.25 -0.15 -1.25 -0.90z"/>
 </g>
 <g fill="#6a5c55">
  <path d="M39.20 94.30 c-1.30 -1.45 -2.30 -4.10 -1.10 -2.90 0.85 0.85 1.40 0.75 1.40 -0.20 0 -0.60 0.30 -0.75 1.15 -0.50 0.60 0.15 1.40 0.30 1.75 0.30 0.45 0 0.40 0.35 -0.20 1.25 -0.80 1.20 -0.80 1.25 0.10 0.90 0.90 -0.30 0.90 -0.30 0 0.75 -1.05 1.25 -2.25 1.40 -3.10 0.40z"/>
  <path d="M41.40 87.15 c-1.05 -0.25 -1.25 -2.65 -0.25 -2.65 1.80 0.05 2.85 0.70 2.85 1.80 0 1.20 -0.55 1.40 -2.60 0.85z"/>
  <path d="M36.90 63.15 c-1.05 -0.15 -1.40 -0.50 -1.40 -1.35 0 -1.15 0 -1.15 3 -0.40 1.85 0.45 3 1 3 1.40 0 0.70 -1.55 0.80 -4.60 0.35z"/>
  <path d="M54.45 44.75 c0.95 -2.10 1.50 -2.15 3.35 -0.40 l1.45 1.35 -1.50 0.35 c-0.80 0.20 -2.10 0.35 -2.80 0.40 l-1.30 0.05 0.80 -1.75z"/>
  <path d="M48.85 45.10 c-1.55 -0.95 -1.50 -1.85 0.10 -1.80 0.55 0 1.05 -0.15 1.05 -0.40 0 -0.50 1.35 -0.55 1.65 0 0.45 0.65 -0.25 3.10 -0.85 3.10 -0.30 0 -1.15 -0.40 -1.95 -0.90z"/>
  <path d="M33.50 41.25 c0 -0.40 -0.35 -0.75 -0.80 -0.75 -0.55 0 -0.70 -0.25 -0.50 -0.80 0.15 -0.45 0.30 -0.90 0.30 -1 0 -0.10 0.45 -0.20 1 -0.20 1.25 0 2.05 1.50 1.45 2.65 -0.60 1.05 -1.45 1.10 -1.45 0.10z"/>
  <path d="M33.25 26.05 c0.15 -0.25 0.05 -0.60 -0.25 -0.80 -0.25 -0.15 -0.45 -0.90 -0.45 -1.65 0.10 -1.25 0.10 -1.25 0.30 -0.20 0.15 0.75 0.50 1.10 0.95 0.90 0.50 -0.20 0.70 0.10 0.70 0.95 0 0.80 -0.30 1.25 -0.80 1.25 -0.40 0 -0.65 -0.20 -0.45 -0.45z"/>
  <path d="M32 17.50 c0 -0.55 0.25 -1 0.50 -1 0.30 0 0.50 0.45 0.50 1 0 0.55 -0.20 1 -0.50 1 -0.25 0 -0.50 -0.45 -0.50 -1z"/>
 </g>
 <g fill="#785e49">
  <path d="M35 64.10 c-1.30 -0.65 -1.85 -1.30 -2.15 -2.75 -0.55 -2.25 -0.20 -2.80 1 -1.80 0.50 0.45 1.50 1 2.25 1.35 1.20 0.50 1.35 0.75 1.05 2.20 -0.15 0.90 -0.35 1.70 -0.35 1.75 -0.05 0.05 -0.85 -0.25 -1.80 -0.75z"/>
  <path d="M45.50 64.30 c0 -0.45 -0.35 -0.80 -0.75 -0.80 -0.40 0 -0.75 -0.35 -0.75 -0.75 0 -0.75 0.15 -0.80 2.50 -1 0.70 -0.10 1.50 -0.20 1.75 -0.25 1.20 -0.30 3.75 0.05 3.75 0.45 0 0.80 -2.70 2.45 -4.65 2.80 -1.50 0.30 -1.85 0.20 -1.85 -0.45z"/>
  <path d="M39 63.10 c0 -1.30 0.10 -1.40 1.75 -1.20 1.45 0.15 1.75 0.40 1.75 1.40 0 1.05 -0.25 1.20 -1.75 1.20 -1.60 0 -1.75 -0.15 -1.75 -1.40z"/>
  <path d="M54.30 45.45 c1 -1.15 1.20 -1.15 1.20 -0.25 0 0.35 -0.45 0.80 -1.05 0.95 -1 0.25 -1 0.25 -0.15 -0.70z"/>
  <path d="M49.85 45.65 c-0.70 -0.65 -0.30 -1.65 0.60 -1.65 0.70 0 0.95 0.30 0.90 1 -0.05 1 -0.85 1.35 -1.50 0.65z"/>
  <path d="M57 44.90 c0 -1 0.05 -1.05 1 -0.15 0.55 0.50 1 1 1 1.10 0 0.05 -0.45 0.15 -1 0.15 -0.70 0 -1 -0.35 -1 -1.10z"/>
  <path d="M34.40 42.70 c-1.65 -0.85 -1.85 -2.20 -0.35 -2.20 0.75 0 0.95 0.25 0.75 0.75 -0.40 1.05 0.85 1.45 2.15 0.75 1.35 -0.70 2.35 -0.20 1.50 0.80 -0.75 0.90 -2.30 0.85 -4.05 -0.10z"/>
  <path d="M32.05 16.15 c0 -0.50 0.20 -1.35 0.45 -1.90 0.35 -0.80 0.45 -0.65 0.45 0.90 0.05 1 -0.15 1.85 -0.45 1.85 -0.25 0 -0.50 -0.40 -0.45 -0.85z"/>
 </g>
 <g fill="#986432">
  <path d="M37 97.75 c0.65 -0.70 1.40 -1.25 1.65 -1.25 0.30 0 0 0.55 -0.65 1.25 -0.65 0.70 -1.40 1.25 -1.65 1.25 -0.30 0 0 -0.55 0.65 -1.25z"/>
  <path d="M39.50 95.55 c-0.30 -0.60 -0.35 -1.05 -0.15 -1.05 0.20 0 0.15 -0.20 -0.10 -0.40 -0.60 -0.40 -2.25 -2.90 -2.25 -3.40 0 -0.20 0.55 0.15 1.25 0.80 l1.25 1.15 0 -1.05 c0 -0.60 0.25 -1.10 0.50 -1.10 0.30 0 0.50 0.25 0.50 0.50 0 0.30 0.50 0.50 1.10 0.50 1.05 0 1.05 0 0.10 1.05 -0.95 1.10 -0.95 1.10 0.30 0.70 1.25 -0.35 1.25 -0.35 -0.25 1.30 -0.80 0.95 -1.55 1.75 -1.60 1.85 -0.05 0.10 -0.30 -0.30 -0.65 -0.85z"/>
  <path d="M45.75 93.50 c0.70 -2.30 1.20 -2.90 1.25 -1.45 0 0.75 -0.35 1.65 -0.80 2 -0.75 0.60 -0.80 0.55 -0.45 -0.55z"/>
  <path d="M34.10 75 c-1.95 -0.90 -3.60 -3.15 -3.60 -4.95 0 -0.65 2.15 0 5.80 1.85 3.80 1.95 4.65 2.85 3.25 3.55 -1.45 0.80 -3 0.65 -5.45 -0.45z"/>
  <path d="M32.50 59.40 c0 -1 0.05 -1.05 1 -0.15 0.55 0.50 1 1 1 1.10 0 0.05 -0.45 0.15 -1 0.15 -0.70 0 -1 -0.35 -1 -1.10z"/>
  <path d="M52.75 57.65 c-1.25 -4.40 -1.80 -5.75 -3.15 -7.60 -0.75 -1 -1 -1.60 -0.55 -1.45 0.40 0.15 1.95 0.65 3.50 1.10 1.55 0.40 3.10 1.15 3.50 1.60 1.55 1.85 0.10 9.20 -1.80 9.20 -0.45 0 -1 -1.05 -1.50 -2.85z"/>
  <path d="M27.80 54.70 c-0.20 -0.45 -0.45 -2.15 -0.65 -3.70 -0.30 -3.20 0.30 -4.85 2.80 -7.20 1.25 -1.20 1.55 -1.30 1.80 -0.65 0.20 0.40 -0.05 1.30 -0.50 2 -0.40 0.65 -1 2.95 -1.20 5.10 -0.45 4 -1.55 6.20 -2.25 4.45z"/>
  <path d="M36.60 53.40 c-0.95 -0.95 -0.70 -2 1.15 -4.35 1 -1.20 2.10 -3.40 2.50 -4.80 0.45 -1.45 1.10 -3 1.50 -3.55 0.70 -0.90 0.70 -0.90 0.75 0.10 0 2.40 -3.95 13.20 -4.85 13.20 -0.25 0 -0.70 -0.25 -1.05 -0.60z"/>
  <path d="M44.75 51.50 c-0.15 -0.25 -0.15 -0.75 0 -1 0.35 -0.60 2.25 0.25 2.25 1 0 0.65 -1.85 0.65 -2.25 0z"/>
  <path d="M56 43.75 c-0.85 -0.50 -1 -0.70 -0.45 -0.75 0.45 0 1.10 0.35 1.45 0.75 0.75 0.90 0.60 0.90 -1 0z"/>
  <path d="M33.90 42.50 c-2.30 -1.25 -2.35 -1.50 -0.40 -1.50 1.10 0 1.40 0.20 1.20 0.75 -0.35 0.90 1.35 1.05 2.90 0.20 0.85 -0.45 0.95 -0.40 0.80 0.40 -0.25 1.25 -2.25 1.35 -4.50 0.15z"/>
  <path d="M56.75 41.90 c-1.50 -0.65 -2.90 -0.90 -5.65 -0.80 -1.95 0.10 -3.60 0 -3.60 -0.20 0 -0.45 4.45 -1.90 5.85 -1.90 1.70 0 6.35 3.10 5.60 3.70 -0.10 0.10 -1.10 -0.25 -2.20 -0.80z"/>
  <path d="M38.25 39.55 c-0.55 -0.90 -4.30 -2.65 -5.05 -2.35 -0.45 0.15 -0.70 -0.10 -0.70 -0.70 0 -1.20 1.05 -1.30 3.15 -0.25 1.60 0.80 3.65 3.10 3.20 3.55 -0.15 0.15 -0.40 0 -0.60 -0.25z"/>
  <path d="M56.75 35.70 c-1.80 -1.15 -2.35 -1.25 -5.55 -0.95 -2.75 0.20 -4.10 0.10 -5.70 -0.55 -1.65 -0.65 -2.30 -0.70 -3.30 -0.25 -1.70 0.75 -4.20 0.65 -5.70 -0.20 -0.70 -0.40 -2 -0.70 -2.85 -0.75 -1.95 0 -2.05 -0.70 -0.95 -4.85 0.40 -1.40 0.60 -2.70 0.45 -2.80 -0.40 -0.45 4 -4.80 5.70 -5.60 1.60 -0.80 1.75 -0.80 2.35 0 0.35 0.45 2.05 1.15 3.80 1.55 4.10 0.95 11.15 5.20 13.15 7.95 1.60 2.20 3.85 6.40 3.85 7.25 0 0.95 -3.25 0.45 -5.25 -0.80z"/>
 </g>
 <g fill="#5d677a">
  <path d="M0.70 97.25 c0.20 -1.75 0.10 -2.75 -0.20 -2.75 -0.65 0 -0.65 -2.35 0 -2.75 0.30 -0.15 0.50 -1 0.50 -1.85 0 -0.85 0.65 -2.85 1.50 -4.45 2.15 -4.20 2.70 -5 3.35 -4.75 0.35 0.15 0.75 -0.20 0.90 -0.75 0.20 -0.50 0.55 -0.95 0.80 -0.95 0.25 0 0.45 -0.30 0.45 -0.70 0 -0.40 0.75 -0.80 1.80 -0.95 1 -0.20 2.70 -0.90 3.80 -1.65 1.05 -0.75 2 -1.25 2.15 -1.15 0.10 0.10 -0.55 1.45 -1.50 2.95 -0.95 1.50 -1.95 3.70 -2.30 4.85 -0.30 1.20 -0.75 2.15 -0.95 2.15 -0.90 0 -3.45 9.95 -3.50 13.65 l0 1.85 -3.55 0 -3.60 0 0.35 -2.75z m8.50 -16.10 c0.45 -0.90 0.70 -1.65 0.60 -1.65 -0.30 0 -1.80 2.75 -1.80 3.30 0 0.55 0.25 0.15 1.20 -1.65z"/>
  <path d="M78.70 99.20 c0.15 -0.45 0.30 -1 0.30 -1.25 0 -0.25 0.35 -0.45 0.75 -0.45 0.45 0 0.75 0.45 0.75 1.25 0 0.95 -0.25 1.25 -1.05 1.25 -0.75 0 -0.95 -0.20 -0.75 -0.80z"/>
  <path d="M82.50 98.50 c0 -1.40 0.15 -1.50 1.75 -1.50 1.60 0 1.75 0.10 1.75 1.50 0 1.40 -0.15 1.50 -1.75 1.50 -1.60 0 -1.75 -0.10 -1.75 -1.50z"/>
  <path d="M91 93.95 c0 -7.60 0.60 -8.95 3.85 -8.95 1.60 0 1.60 0 1.80 2.90 0.15 2.35 0.20 2.15 0.25 -1.25 0.10 -3.75 0.20 -4.15 1.05 -4.15 0.90 0 1 0.50 1.25 6.40 0.10 3.50 0.35 7.40 0.55 8.75 l0.35 2.35 -3 0 -3 0 -0.50 -1.85 -0.50 -1.90 -0.05 1.90 c-0.05 1.50 -0.25 1.85 -1.05 1.85 -0.95 0 -1 -0.35 -1 -6.05z"/>
  <path d="M79 95.90 c0 -1.50 0.65 -2.90 1.30 -2.90 0.45 0 0.70 0.60 0.70 1.75 0 1.40 -0.20 1.75 -1 1.75 -0.55 0 -1 -0.30 -1 -0.60z"/>
  <path d="M85.25 91.15 c0.20 -3 0.50 -6.35 0.75 -7.50 0.20 -1.20 0.20 -2.15 -0.05 -2.15 -0.25 0 -0.45 0.80 -0.45 1.75 0 1.55 -0.15 1.75 -1.25 1.75 -0.70 0 -1.25 -0.15 -1.25 -0.30 0 -0.20 1.25 -2.45 2.80 -5 2.85 -4.80 4.50 -6.10 4.10 -3.20 -0.15 0.85 0 1.50 0.25 1.50 0.25 0 0.30 1.25 0.15 2.90 -0.15 1.55 -0.40 5.40 -0.60 8.50 -0.20 3.05 -0.50 5.60 -0.75 5.60 -0.25 0 -0.45 0.35 -0.45 0.75 0 0.40 -0.20 0.75 -0.50 0.75 -0.25 0 -0.50 -0.95 -0.55 -2.10 l-0.05 -2.15 -0.50 2.15 c-0.30 1.35 -0.75 2.10 -1.25 2.10 -0.65 0 -0.70 -0.70 -0.40 -5.35z m2.10 -1.50 c-0.15 -0.50 -0.25 -0.10 -0.25 0.85 0 0.95 0.10 1.35 0.25 0.90 0.10 -0.50 0.10 -1.30 0 -1.75z"/>
  <path d="M41 92.10 c0 -0.65 -0.30 -1.10 -0.75 -1.10 -0.95 0 -0.95 -0.60 -0.05 -3.60 0.40 -1.25 0.60 -2.45 0.45 -2.60 -0.20 -0.15 -0.05 -0.30 0.25 -0.30 0.30 0 0.85 0.35 1.30 0.75 0.40 0.40 0.95 0.75 1.25 0.75 0.70 0 0.70 0.50 0 3.25 -0.30 1.20 -1 2.55 -1.50 3.05 -0.90 0.80 -0.95 0.80 -0.95 -0.20z"/>
  <path d="M96.50 79.50 c0 -0.80 -0.35 -1 -1.75 -1 -1.50 0 -1.75 -0.15 -1.75 -1.20 l0 -1.25 2.25 0.80 c3.20 1.05 4.95 3.65 2.50 3.65 -0.90 0 -1.25 -0.25 -1.25 -1z"/>
  <path d="M81.90 46 c0.75 -1.80 1.70 -3.80 2 -4.50 0.60 -1.25 0.60 -1.25 0.30 0.25 -0.30 1.60 -2.45 6.15 -3.25 7 -0.30 0.30 0.15 -0.95 0.95 -2.75z"/>
 </g>
 <g fill="#8b674e">
  <path d="M38.50 93.45 c-0.60 -1.15 -0.95 -2.15 -0.80 -2.30 0.15 -0.15 0.40 0.10 0.60 0.55 0.40 1 1.20 1.05 1.20 0.05 0 -0.95 1.20 -0.95 1.95 -0.05 0.40 0.50 0.45 0.80 0.05 1.05 -0.85 0.50 -0.55 1.25 0.35 0.90 0.60 -0.25 0.55 -0.05 -0.25 0.75 -1.50 1.50 -1.95 1.40 -3.10 -0.95z"/>
  <path d="M45.85 93.55 c0.15 -0.60 0.45 -1.05 0.70 -1.05 0.70 0 0.55 0.80 -0.25 1.45 -0.60 0.50 -0.65 0.40 -0.45 -0.40z"/>
  <path d="M40.85 85.45 c-0.20 -0.75 -0.10 -0.95 0.50 -0.75 0.40 0.15 0.95 0.30 1.20 0.30 0.25 0 0.45 0.35 0.45 0.75 0 1.15 -1.85 0.90 -2.15 -0.30z"/>
  <path d="M36.45 64.70 c-2.75 -0.80 -3.20 -1.30 -3.65 -3.80 -0.35 -1.95 0.15 -2.45 1.15 -1.20 0.30 0.40 1.25 0.95 2.05 1.30 0.85 0.35 1.50 0.95 1.50 1.30 0 0.40 0.25 0.70 0.50 0.70 0.30 0 0.50 -0.35 0.50 -0.80 0 -0.55 0.25 -0.70 0.80 -0.50 0.45 0.15 1.35 0.30 2 0.30 0.75 0 1.20 0.30 1.20 0.80 0 0.55 0.30 0.70 1.15 0.40 0.60 -0.20 1.20 -0.50 1.35 -0.70 0.15 -0.15 0.65 -0.45 1.15 -0.65 0.65 -0.25 0.85 -0.05 0.90 1.05 0.10 1.35 0.10 1.35 0.30 0.10 0.30 -1.40 0.95 -2 2.30 -2 1.10 0 1.10 1.30 -0.10 2.55 -1.65 1.80 -9 2.45 -13.10 1.15z"/>
  <path d="M36.60 43.05 c-1.15 -0.30 -1.10 -0.30 0.35 -0.90 1.25 -0.45 1.55 -0.45 1.55 0.10 0 0.95 -0.55 1.15 -1.90 0.80z"/>
  <path d="M32.90 41.95 c-1.35 -0.75 -1.05 -1.45 0.60 -1.45 1.60 0 1.65 0.05 1.20 1.20 -0.35 0.90 -0.60 0.95 -1.80 0.25z"/>
  <path d="M32.05 16.90 c0 -0.65 0.20 -1.60 0.45 -2.15 0.35 -0.75 0.45 -0.50 0.45 1.15 0.05 1.15 -0.15 2.10 -0.45 2.10 -0.25 0 -0.50 -0.50 -0.45 -1.10z"/>
 </g>
 <g fill="#6f7783">
  <path d="M0 96.55 c0 -1.95 0.25 -3.65 0.50 -3.80 0.30 -0.15 0.50 -1.05 0.50 -1.90 0 -2.30 0.50 -3.85 1.25 -3.85 0.75 0 1.30 -1.20 1 -2.10 -0.10 -0.35 0.65 -2.10 1.65 -3.90 1.90 -3.20 1.90 -3.25 4.55 -3.65 1.70 -0.20 3.20 -0.80 4.15 -1.60 2.40 -2.05 2.45 -1.45 0.15 2.30 -3.65 5.95 -4.75 9.40 -6.55 20.35 -0.20 1.30 -0.45 1.60 -1.50 1.60 -1 0 -1.20 -0.20 -1 -1.10 0.15 -0.65 0.35 -2.45 0.50 -4 0.35 -3.35 2.40 -10.10 4.10 -13.50 1.95 -4 0.55 -2.70 -1.90 1.75 -2.85 5.10 -4.10 8.60 -4.90 13.25 -0.50 3 -0.75 3.60 -1.55 3.60 -0.85 0 -0.95 -0.40 -0.95 -3.45z"/>
  <path d="M82.50 97.90 c0 -3.05 0.50 -4.40 1.50 -4.40 0.70 0 0.90 -0.70 1.20 -4.30 0.15 -2.40 0.45 -4.85 0.60 -5.50 0.20 -0.75 0.10 -1.20 -0.25 -1.20 -0.30 0 -0.55 0.80 -0.55 1.75 0 0.95 -0.20 1.75 -0.45 1.75 -0.25 0 -0.55 0.50 -0.70 1.15 -0.15 0.60 -0.85 2.45 -1.55 4.10 -0.70 1.65 -1.30 3.85 -1.30 4.90 0 1.55 -0.15 1.85 -1.05 1.85 -1 0 -1.05 -0.15 -0.70 -2.80 0.45 -3.65 1.30 -6.05 3.85 -10.70 1.65 -3 4.85 -8.25 5.75 -9.45 0.10 -0.15 2.05 0.40 4.40 1.15 5.75 1.95 5.75 1.85 5.40 11.35 -0.30 9.30 -1.10 12.60 -3.15 12.35 -1.20 -0.15 -1.25 -0.30 -1.30 -3.75 0 -2 0.15 -3.35 0.35 -3.05 0.70 1.10 0.85 0.20 0.45 -3.35 -0.20 -1.90 -0.40 -3.20 -0.45 -2.85 0 0.35 -0.25 0.50 -0.55 0.35 -0.45 -0.30 -0.70 0.40 -0.55 1.40 0 0.20 -0.20 0.35 -0.50 0.35 -0.35 0 -0.50 1.75 -0.35 5.50 l0.15 5.50 -1.85 0 c-1.70 0 -1.90 -0.15 -1.90 -1.25 0 -1.70 -0.90 -1.60 -1.15 0.15 -0.15 0.75 -0.15 -2 0 -6.15 0.10 -4.10 0.45 -8.70 0.75 -10.15 0.25 -1.50 0.40 -2.80 0.25 -2.90 -0.70 -0.70 -2.30 11.40 -2.35 17.45 0 2.50 -0.15 2.85 -0.95 2.85 -0.55 0 -1.10 -0.40 -1.20 -0.85 -0.20 -0.85 -0.25 -0.85 -0.30 0 0 0.45 -0.40 0.85 -0.80 0.85 -0.55 0 -0.75 -0.55 -0.75 -2.10z m7.95 -6.25 c-0.05 -3.25 -0.20 -5.40 -0.30 -4.75 -0.10 0.60 -0.55 1.10 -0.95 1.10 -0.50 0 -0.70 0.60 -0.70 2 0 1.10 0.25 2 0.50 2 0.30 0 0.50 1.25 0.50 2.75 0 1.50 0.25 2.75 0.50 2.75 0.30 0 0.45 -2.25 0.45 -5.85z"/>
  <path d="M38.60 93.75 c-0.95 -2.05 -0.70 -2.40 0.60 -0.90 1.10 1.25 1.30 1.30 2.60 0.75 l1.45 -0.65 -1.25 1.05 c-1.70 1.35 -2.70 1.25 -3.40 -0.25z"/>
  <path d="M39.85 93.20 c-0.60 -0.60 -0.40 -2.95 0.50 -5.65 0.65 -2.10 1 -2.55 1.95 -2.55 0.65 0 1.25 0.40 1.40 0.90 0.80 2.60 -2.45 8.70 -3.85 7.30z"/>
  <path d="M81.50 47.45 c0 -0.20 0.55 -1.55 1.20 -3 0.70 -1.50 1.25 -2.35 1.25 -1.95 0 0.70 -2.40 5.60 -2.45 4.95z"/>
  <path d="M48 44.25 c-0.50 -0.60 -0.45 -0.80 0.30 -1.05 0.55 -0.20 1.10 -0.45 1.35 -0.55 0.20 -0.10 0.35 0.35 0.35 1.05 0 1.45 -1 1.75 -2 0.55z"/>
 </g>
 <g fill="#c5773c">
  <path d="M37.25 97.50 c0.50 -0.55 1 -0.90 1.15 -0.75 0.35 0.30 -0.90 1.75 -1.55 1.75 -0.25 0 -0.10 -0.45 0.40 -1z"/>
  <path d="M38.50 93.65 c-1.80 -3.50 -1.75 -3.60 0.15 -1.40 1.60 1.85 1.80 1.95 3.10 1.35 l1.35 -0.65 -1.50 1.55 c-0.85 0.80 -1.60 1.50 -1.70 1.50 -0.10 0 -0.75 -1.05 -1.40 -2.35z"/>
  <path d="M46 93.40 c0 -0.35 0.25 -1 0.50 -1.40 0.40 -0.60 0.50 -0.55 0.50 0.35 0 0.60 -0.20 1.25 -0.50 1.40 -0.25 0.15 -0.50 0 -0.50 -0.35z"/>
 </g>
 <g fill="#9d826d">
  <path d="M37.70 64.95 c-1.05 -0.30 -1.70 -0.85 -1.90 -1.65 -0.15 -0.65 -0.45 -1.55 -0.60 -2 -0.25 -0.65 -0.05 -0.70 1.10 -0.35 0.80 0.25 2.10 0.60 2.85 0.80 1.10 0.20 1.35 0.50 1.10 1.20 -0.15 0.55 -0.05 1.10 0.25 1.30 0.30 0.20 0.50 -0.20 0.50 -0.95 0 -1.25 0.10 -1.30 3 -1.30 2.65 0 3 0.10 3 1 0 0.55 0.05 1.15 0.15 1.35 0.05 0.20 -0.55 0.40 -1.40 0.45 -0.80 0.05 -2.60 0.20 -4 0.35 -1.35 0.10 -3.20 0 -4.05 -0.20z"/>
  <path d="M47.85 63.15 c-0.30 -1.70 -0.35 -1.70 2.10 -2 2.65 -0.35 2.80 0.80 0.35 2.30 -2.10 1.35 -2.15 1.30 -2.45 -0.30z"/>
  <path d="M33.60 63.15 c-0.70 -1.35 -1.15 -4.15 -0.65 -4.15 0.55 0 2.05 3.10 2.05 4.20 0 1.05 -0.85 1 -1.40 -0.05z"/>
  <path d="M48.65 44.75 l-1.40 -1.20 1.85 -0.05 c2 0 2.55 0.45 2.10 1.70 -0.40 1.10 -0.90 1 -2.55 -0.45z"/>
  <path d="M32.20 41.25 c-0.40 -1 0.10 -2.20 1.05 -2.60 1.20 -0.40 1.85 0.50 1.45 2.05 -0.35 1.45 -2.05 1.80 -2.50 0.55z"/>
  <path d="M32.35 17.65 c-0.15 -0.25 -0.05 -1.30 0.15 -2.40 l0.40 -2 0.05 2.40 c0.05 2.25 -0.10 2.80 -0.60 2z"/>
 </g>
 <g fill="#7f8893">
  <path d="M79.25 96.40 c0.40 -4.15 1.65 -7.95 2.70 -8.30 0.55 -0.20 0.65 0.25 0.45 2.10 -0.25 1.95 -0.15 2.30 0.45 2.10 0.40 -0.15 0.90 -0.30 1.15 -0.30 0.25 0 0.55 -0.85 0.70 -1.85 0.85 -5.70 0.90 -6.65 0.35 -6.65 -0.30 0 -0.55 0.80 -0.55 1.75 0 1.55 -0.15 1.75 -1.25 1.75 -0.95 0 -1.15 -0.20 -0.90 -0.85 0.30 -0.75 2.95 -5.35 5.80 -9.90 0.30 -0.55 0.65 -1.10 0.70 -1.15 0.15 -0.40 7.45 2.15 8.35 2.85 1.30 1.10 1.90 2.95 1.35 3.95 -0.40 0.70 -0.55 0.55 -0.85 -0.75 -0.15 -0.90 -0.60 -1.85 -0.95 -2.15 -0.90 -0.75 -7.45 -2.50 -7.80 -2.10 -0.60 0.65 -2.05 10.40 -2.25 15.10 -0.30 5.95 -0.60 8 -1.20 8 -0.30 0 -0.50 -1.20 -0.55 -2.60 0 -1.95 -0.15 -2.40 -0.45 -1.65 -0.25 0.55 -0.45 1.75 -0.45 2.65 -0.05 1.60 -0.05 1.60 -2.60 1.60 l-2.55 0 0.35 -3.60z"/>
  <path d="M87.50 98.40 c0 -2.40 0.50 -3.90 1.30 -3.90 0.40 0 0.70 0.55 0.75 1.40 l0.05 1.35 0.55 -1.35 c0.70 -1.75 1.65 -1.80 2.05 -0.10 0.45 1.65 -0.05 3.20 -1 3.20 -0.40 0 -0.70 0.25 -0.70 0.50 0 0.30 -0.65 0.50 -1.50 0.50 -1.35 0 -1.50 -0.15 -1.50 -1.60z"/>
  <path d="M0 97.25 c0 -1.20 0.20 -2.30 0.45 -2.45 0.20 -0.15 0.55 -1.85 0.70 -3.80 0.25 -2.80 0.70 -4.25 2.10 -6.75 0.95 -1.75 2.10 -3.55 2.55 -3.95 0.40 -0.45 0.65 -0.80 0.45 -0.80 -0.15 0 -0.05 -0.45 0.25 -0.95 0.30 -0.65 1 -0.95 1.90 -0.95 1.90 0.05 3.60 -0.55 5.50 -2 0.85 -0.65 1.60 -1.05 1.60 -0.90 0 0.20 -0.90 1.70 -2.05 3.35 -3.10 4.60 -4.95 10.35 -6.20 19.10 -0.25 1.90 -0.50 2.35 -1.30 2.35 -1.15 0 -1.20 -0.55 -0.20 -6.05 0.80 -4.80 2.75 -10.75 4.25 -13.15 0.55 -0.95 1 -1.85 1 -2.05 0 -0.90 -1.70 1.20 -3.60 4.40 -2.45 4.20 -3.95 7.90 -5.10 12.70 -1.05 4.25 -2.30 5.30 -2.30 1.90z"/>
  <path d="M96.20 95.95 c-0.20 -0.40 -0.45 -3.95 -0.55 -7.95 -0.25 -9.10 0.60 -8.50 1.35 1 0.50 6.35 0.25 8.60 -0.80 6.95z"/>
  <path d="M88.20 88.15 c0.30 -4.80 0.95 -8.45 1.50 -9 0.60 -0.60 1.80 1.05 1.80 2.55 0 0.85 0.10 3.30 0.30 5.45 0.30 3.70 0.25 3.85 -0.75 3.85 -0.70 0 -1.05 0.30 -1.05 1 0 0.70 -0.35 1 -1.10 1 -1 0 -1.05 -0.10 -0.70 -4.85z"/>
  <path d="M41.25 85.50 c-0.15 -0.25 0.15 -0.50 0.70 -0.50 0.55 0 1.15 0.25 1.30 0.50 0.15 0.30 -0.15 0.50 -0.70 0.50 -0.55 0 -1.15 -0.20 -1.30 -0.50z"/>
  <path d="M82 46.45 c0 -0.20 0.45 -1.30 1 -2.50 0.55 -1.20 0.95 -1.85 0.95 -1.45 0 0.75 -1.90 4.55 -1.95 3.95z"/>
  <path d="M48.05 44.30 c-0.45 -0.55 -0.40 -0.75 0.25 -1 1.15 -0.45 1.20 -0.40 1.20 0.70 0 1.15 -0.65 1.30 -1.45 0.30z"/>
  <path d="M55 43.95 c0 -0.70 0.25 -0.95 0.85 -0.85 1.30 0.25 1.45 1.90 0.20 1.90 -0.75 0 -1.05 -0.30 -1.05 -1.05z"/>
 </g>
 <g fill="#ac8e6f">
  <path d="M48.10 63.10 c0.10 -1.05 0.50 -1.40 1.80 -1.65 0.90 -0.20 1.75 -0.15 1.85 0.10 0.35 0.50 -1.55 2.30 -2.80 2.60 -0.85 0.25 -1 0.05 -0.85 -1.05z"/>
  <path d="M34.05 63.55 c-0.65 -0.45 -1.70 -4.55 -1.10 -4.55 0.50 0 1.40 1.70 1.80 3.40 0.35 1.75 0.35 1.80 -0.70 1.15z"/>
  <path d="M35.85 62.80 c-0.20 -0.75 -0.30 -1.55 -0.10 -1.70 0.50 -0.50 0.80 0.30 0.65 1.75 l-0.15 1.40 -0.40 -1.45z"/>
  <path d="M41.50 63.15 c0 -0.70 0.50 -0.95 2.50 -1.05 2.30 -0.15 2.50 -0.05 2.50 0.95 0 1.10 0 1.10 -0.75 0.15 -0.65 -0.85 -0.70 -0.85 -0.75 -0.05 0 1.25 -3.50 1.25 -3.50 0z"/>
  <path d="M36.25 42.50 c1.35 -0.60 1.75 -0.60 1.75 0 0 0.30 -0.60 0.50 -1.35 0.45 -1.25 0 -1.30 -0.05 -0.40 -0.45z"/>
  <path d="M32.60 15.50 c0 -0.95 0.10 -1.35 0.25 -0.85 0.10 0.45 0.10 1.25 0 1.75 -0.15 0.45 -0.25 0.05 -0.25 -0.90z"/>
 </g>
 <g fill="#919aa5">
  <path d="M5.30 97.15 c0.65 -6.45 4.35 -17.65 5.80 -17.65 0.25 0 0.40 0.30 0.25 0.65 -1.40 3.70 -3.05 10.10 -3.75 14.50 -0.70 4.45 -1 5.35 -1.70 5.35 -0.80 0 -0.85 -0.35 -0.60 -2.85z"/>
  <path d="M81.65 96.95 l0.25 -3.05 -1.20 1.15 -1.25 1.15 0.35 -2.20 c0.20 -1.25 0.75 -3.35 1.25 -4.75 1.05 -2.75 5.10 -10.10 6.20 -11.25 0.65 -0.60 0.75 -0.60 0.75 0.25 0 0.55 -0.45 4.05 -1 7.75 -0.55 3.70 -1 8.40 -1 10.40 0 2.30 -0.20 3.60 -0.55 3.60 -0.40 0 -0.50 -1.05 -0.35 -3.25 0.25 -4.20 -0.70 -4.10 -1.25 0.15 -0.40 2.65 -0.60 3.10 -1.45 3.10 -0.95 0 -1 -0.20 -0.75 -3.05z"/>
  <path d="M88.20 92.90 c0.35 -7.55 1.15 -13.40 1.80 -13.40 1.05 0 1.40 1.95 1.75 9.50 l0.35 8.25 -1.30 1.40 c-0.70 0.75 -1.65 1.35 -2.10 1.35 -0.75 0 -0.80 -0.60 -0.50 -7.10z"/>
  <path d="M0.20 97.65 c0.20 -0.80 0.65 -3.55 1 -6.15 0.60 -4.50 1.80 -7.35 5.60 -13.40 0.05 -0.10 0.95 -0.25 2.05 -0.30 l1.90 -0.15 -1.25 1.35 c-2 2.20 -5.90 10.45 -7.10 15.15 -0.65 2.40 -1.45 4.45 -1.85 4.60 -0.50 0.20 -0.60 -0.05 -0.35 -1.10z"/>
  <path d="M96.35 95.30 c-0.15 -0.40 -0.40 -3.50 -0.55 -6.90 -0.35 -7.60 0.45 -5.90 0.95 2.10 0.35 5.15 0.25 6.50 -0.40 4.80z"/>
  <path d="M97.60 79.45 c-0.35 -0.55 -1.60 -1.45 -2.75 -2 -1.90 -0.85 -1 -0.85 1.40 0.05 1.25 0.50 2.40 1.80 2.15 2.50 -0.10 0.30 -0.45 0.05 -0.80 -0.55z"/>
  <path d="M37.65 64.65 c-0.35 -0.10 -0.65 -0.80 -0.65 -1.45 0 -1 0.25 -1.20 1.50 -1.20 1.35 0 1.50 0.15 1.50 1.50 0 1.50 -0.70 1.85 -2.35 1.15z"/>
 </g>
 <g fill="#a59f9e">
  <path d="M37.35 64.65 c-0.80 -0.20 -1.85 -2 -1.85 -3.20 0 -0.40 1.10 -0.30 3.65 0.40 0.55 0.15 0.85 0.70 0.85 1.70 0 1.50 -0.45 1.65 -2.65 1.10z"/>
  <path d="M41 63.45 c0 -1.20 0.15 -1.50 0.80 -1.25 0.45 0.15 1.20 0.30 1.75 0.30 0.70 0 0.95 0.35 0.95 1.25 0 1.10 -0.20 1.25 -1.75 1.25 -1.60 0 -1.75 -0.10 -1.75 -1.55z"/>
  <path d="M34.35 63.65 c-0.20 -0.15 -0.35 -0.80 -0.30 -1.35 0 -0.95 0.05 -0.95 0.50 0.15 0.50 1.20 0.40 1.80 -0.20 1.20z"/>
  <path d="M48.75 44.75 c-1 -0.75 -1 -0.75 -0.05 -1.50 0.55 -0.40 1.40 -0.75 1.95 -0.75 0.70 0 0.90 0.30 0.75 1.35 -0.20 1.65 -1.25 2 -2.65 0.90z"/>
  <path d="M54.85 44.50 c0.40 -1.50 1.10 -1.70 2.20 -0.70 1.10 1 0.55 1.70 -1.40 1.70 -0.80 0 -1 -0.25 -0.80 -1z"/>
  <path d="M32.60 41.40 c-0.80 -0.80 -0.75 -1.65 0.15 -2.40 0.55 -0.50 0.90 -0.45 1.50 0.20 0.95 0.95 0.80 2.50 -0.25 2.70 -0.45 0.05 -1.05 -0.15 -1.40 -0.50z"/>
 </g>
 <g fill="#b8a391">
  <path d="M38.40 64.35 c0.45 -0.50 0.35 -0.95 -0.20 -1.75 -0.75 -1.10 -0.45 -1.35 1 -0.80 0.50 0.20 0.80 0.90 0.80 1.75 0 1.15 -0.20 1.45 -1.05 1.45 -0.85 0 -0.95 -0.15 -0.55 -0.65z"/>
  <path d="M41 63.65 c0 -1.35 0.10 -1.40 3 -1.45 2.85 -0.05 3 0 3 1.10 0 1.50 -0.75 1.55 -1.25 0.10 l-0.40 -1.15 -0.20 1.15 c-0.30 1.55 -1.55 1.95 -2.45 0.80 -0.60 -0.85 -0.65 -0.85 -0.40 -0.05 0.20 0.55 0.05 0.85 -0.50 0.85 -0.55 0 -0.80 -0.45 -0.80 -1.35z"/>
  <path d="M48 63.10 c0 -1.35 0.20 -1.50 1.80 -1.70 2.25 -0.25 2.55 0.25 0.85 1.50 -2.55 1.75 -2.65 1.75 -2.65 0.20z"/>
  <path d="M34.15 63.40 c-0.70 -0.85 -1.40 -4.30 -0.75 -3.65 0.55 0.60 1.70 3.85 1.40 4.10 -0.10 0.10 -0.40 -0.10 -0.65 -0.45z"/>
  <path d="M54.60 45 c0.35 -0.55 0.80 -1 1 -1 0.25 0 0.40 0.45 0.40 1 0 0.65 -0.35 1 -1 1 -0.90 0 -0.95 -0.10 -0.40 -1z"/>
  <path d="M56.50 45 c0 -1.15 0.50 -1.30 1.40 -0.40 0.90 0.90 0.75 1.40 -0.40 1.40 -0.65 0 -1 -0.35 -1 -1z"/>
  <path d="M36.75 42.50 c0.15 -0.25 0.65 -0.50 1.05 -0.50 0.40 0 0.70 0.25 0.70 0.50 0 0.30 -0.45 0.50 -1.05 0.50 -0.55 0 -0.85 -0.20 -0.70 -0.50z"/>
  <path d="M32.55 41.05 c-0.70 -1.20 0.40 -2.75 1.60 -2.25 0.90 0.30 1.05 1.05 0.55 2.40 -0.40 1.10 -1.55 1 -2.15 -0.15z"/>
 </g>
 <g fill="#beb8b6">
  <path d="M38.65 64.40 c0.10 -0.35 0 -1.05 -0.25 -1.50 -0.35 -0.70 -0.20 -0.90 0.60 -0.90 0.80 0 1 0.30 1 1.50 0 1.05 -0.25 1.50 -0.80 1.50 -0.45 0 -0.70 -0.30 -0.55 -0.60z"/>
  <path d="M41.30 64.25 c0.20 -0.40 0.50 -0.60 0.75 -0.45 0.70 0.40 0.50 1.20 -0.30 1.20 -0.45 0 -0.60 -0.30 -0.45 -0.75z"/>
  <path d="M46 63.50 c0 -0.55 0.25 -1 0.50 -1 0.30 0 0.50 0.45 0.50 1 0 0.55 -0.20 1 -0.50 1 -0.25 0 -0.50 -0.45 -0.50 -1z"/>
  <path d="M54.50 45.65 c0.05 -0.25 0.30 -0.90 0.65 -1.55 l0.65 -1.15 1.35 1.05 c0.75 0.60 1.25 1.30 1.10 1.55 -0.35 0.55 -3.75 0.60 -3.75 0.10z"/>
  <path d="M48.80 44.75 c-1.30 -1 -0.40 -1.90 1.40 -1.45 0.90 0.20 1.25 0.55 1.10 1.05 -0.15 0.40 -0.30 0.85 -0.30 0.95 0 0.45 -1.30 0.10 -2.20 -0.55z"/>
  <path d="M32.60 41.40 c-0.80 -0.80 -0.75 -1.15 0.15 -2.10 0.95 -0.90 2.25 -0.55 2.25 0.65 0 0.85 -0.90 2.05 -1.50 2.05 -0.15 0 -0.55 -0.25 -0.90 -0.60z"/>
 </g>
 <g fill="#d7d3d3">
  <path d="M39.05 63.65 c-0.05 -0.90 0.20 -1.65 0.45 -1.65 0.60 0 0.60 0.85 0 2.25 -0.35 0.85 -0.45 0.75 -0.45 -0.60z"/>
  <path d="M55.10 44.75 c0.65 -1.50 1 -1.55 2.05 -0.35 1.05 1.10 0.65 1.60 -1.20 1.60 -1.35 0 -1.40 -0.10 -0.85 -1.25z"/>
  <path d="M48.95 44.55 l-1.20 -0.95 1.40 -0.55 c2.35 -0.90 2.85 -0.50 2.05 1.65 -0.40 1.05 -0.85 1 -2.25 -0.15z"/>
  <path d="M33.15 41.65 c-0.35 -0.15 -0.65 -0.80 -0.65 -1.45 0 -1.40 1.70 -1.70 2.20 -0.35 0.40 0.95 -0.65 2.15 -1.55 1.80z"/>
 </g>
 <g fill="#f3f3f4">
  <path d="M49 44.65 l-1.15 -0.80 1.35 -0.70 c1.40 -0.75 2.30 -0.50 2.30 0.55 0 1.35 -1.25 1.80 -2.50 0.95z"/>
  <path d="M32.70 40.75 c-0.20 -0.45 -0.10 -1.05 0.20 -1.35 0.75 -0.75 2.20 -0.05 2 0.95 -0.20 1.15 -1.80 1.45 -2.20 0.40z"/>
 </g>
</svg>