<?xml version="1.0" encoding="utf-8"?>
<!DOCTYPE svg PUBLIC "-//W3C//DTD SVG 1.0//EN" "http://www.w3.org/TR/2001/REC-SVG-20010904/DTD/svg10.dtd">
<svg version="1.0" xmlns="http://www.w3.org/2000/svg" width="100px" height="100px" viewBox="0 0 100 100" preserveAspectRatio="xMidYMid meet">
 <g fill="#220f12">
  <path d="M82 98.75 c0 -1.10 0.20 -1.25 2 -1.25 1.80 0 2 0.15 2 1.25 0 1.15 -0.20 1.25 -2 1.25 -1.80 0 -2 -0.10 -2 -1.25z"/>
  <path d="M90.20 99.15 c-2.05 -6.25 -4.20 -9.20 -7.45 -10.10 -0.95 -0.25 -3.10 -1.30 -4.75 -2.30 -2.75 -1.65 -3 -2 -3 -3.55 0 -1.50 0.15 -1.70 1.35 -1.70 0.75 0 3.05 0.90 5.15 1.95 2.10 1.10 6.40 2.65 9.75 3.55 8.95 2.35 8.75 2.30 8.75 4.55 0 2.25 -0.55 2.40 -4 1.20 -3.10 -1.10 -3.60 -1 -3.20 0.65 0.20 0.75 0.65 1.85 1 2.45 0.40 0.60 0.70 1.80 0.70 2.65 0 1.40 -0.10 1.50 -2 1.50 -1.50 0 -2.10 -0.25 -2.30 -0.85z"/>
  <path d="M16.50 95 c0 -1.95 0.05 -2 1.75 -2 1.70 0 1.75 0.05 1.75 2 0 1.95 -0.05 2 -1.75 2 -1.70 0 -1.75 -0.05 -1.75 -2z"/>
  <path d="M20 89.05 c0 -1.65 0.40 -2.35 3.15 -5.25 2.75 -2.90 3.30 -3.30 5 -3.30 1.75 0 1.85 0.10 1.85 1.65 0 2.25 -6.35 8.85 -8.55 8.85 -1.35 0 -1.45 -0.15 -1.45 -1.95z"/>
  <path d="M0 78.15 c0.05 -2.10 -0.20 -1.85 7.30 -6.40 5.65 -3.45 9.30 -4.60 16.40 -5.30 l6.20 -0.60 -1 -1.95 c-0.55 -1.10 -1.15 -3 -1.30 -4.30 -0.35 -3.30 -0.95 -3.70 -4.60 -3.30 -1.65 0.20 -3 0.50 -3 0.70 0 0.20 -1 0.65 -2.25 1 -1.25 0.35 -2.25 0.85 -2.25 1.05 0 0.25 -0.55 0.45 -1.25 0.45 -0.70 0 -1.25 0.15 -1.25 0.40 0 0.70 -3.10 2.10 -4.80 2.10 -1.50 0 -1.70 0.15 -1.70 1.25 0 0.80 -0.30 1.25 -0.75 1.25 -0.40 0 -0.75 0.25 -0.75 0.50 0 0.30 -0.55 0.50 -1.25 0.50 -1.10 0 -1.25 0.20 -1.25 1.75 0 1.55 -0.15 1.75 -1.25 1.75 -1 0 -1.25 -0.25 -1.25 -1.20 0 -1.60 8.35 -9 11.25 -10 5.40 -1.90 11.75 -3.45 14.10 -3.50 1.65 -0.05 2.65 -0.25 2.65 -0.65 0 -0.30 0.45 -0.45 1 -0.30 0.75 0.20 1 0.70 1 1.95 0 0.95 0.20 1.70 0.40 1.70 0.25 0 0.75 0.90 1.10 2.05 0.70 2 4.45 6.45 5.50 6.45 0.30 0 0.50 -1.40 0.50 -3.50 l0 -3.50 1.65 0 c0.90 0 1.90 0.25 2.20 0.55 0.45 0.45 0.95 0.30 1.95 -0.50 0.75 -0.60 2.05 -1.05 3 -1.05 1.60 0 1.70 0.10 1.70 1.75 0 1.55 0.15 1.75 1.25 1.75 0.70 0 1.25 -0.20 1.25 -0.50 0 -0.25 0.75 -0.50 1.70 -0.50 1.65 0 1.70 0 2.05 2.80 0.30 2.40 0.45 2.65 1.10 2.10 0.50 -0.40 0.55 -0.70 0.20 -0.80 -0.30 -0.10 -0.55 -0.95 -0.55 -1.90 0 -1.55 0.10 -1.70 1.50 -1.70 0.85 0 2.35 0.35 3.30 0.75 1.65 0.70 1.85 0.65 3.35 -0.40 0.85 -0.60 2 -1.65 2.55 -2.25 0.75 -0.95 1.35 -1.15 2.80 -1 1.75 0.15 1.90 0.05 3.15 -2.20 1.25 -2.25 1.30 -2.40 0.40 -2.40 -0.85 0 -1 -0.45 -1.25 -3.60 -0.15 -2 -0.40 -4.70 -0.55 -6 -0.30 -2.15 -0.25 -2.35 0.85 -2.55 0.80 -0.15 0.60 -0.25 -0.65 -0.30 -2.05 -0.05 -2.45 -0.65 -2.45 -3.35 0 -1.60 0.10 -1.70 1.70 -1.70 1.50 0 1.75 0.20 2.05 1.50 0.30 1.30 0.55 1.50 2.10 1.50 l1.80 0 -0.35 2.65 c-0.50 4.25 -0.80 8.65 -0.50 7.75 0.15 -0.50 0.75 -0.90 1.30 -0.90 0.55 0 2.40 -1.25 4.10 -2.75 1.70 -1.45 3.70 -2.95 4.45 -3.20 1.05 -0.40 1.35 -0.85 1.35 -2.05 0 -1 -0.25 -1.50 -0.75 -1.50 -0.45 0 -0.75 -0.45 -0.75 -1.25 0 -0.80 -0.30 -1.25 -0.75 -1.25 -0.45 0 -0.75 -0.45 -0.75 -1.25 0 -0.90 -0.25 -1.25 -0.90 -1.25 -1.50 0 -3.10 -2.10 -3.10 -4.05 l0.05 -1.70 2.90 3.20 c2.60 2.80 6.05 8.55 6.05 10.05 0 0.35 1.10 0.40 3.25 0.20 l3.25 -0.35 0 1.50 c0 1.40 -0.15 1.55 -2.10 1.75 -4 0.50 -10.65 5.30 -14.45 10.40 -1.95 2.65 -5.85 9.80 -6.80 12.45 l-0.80 2.35 -6.30 0.55 c-8.30 0.75 -16.30 2.70 -21.15 5.20 -2.35 1.20 -4.55 1.95 -5.60 1.95 -1.70 0 -1.80 -0.10 -1.80 -1.65 0 -1.35 0.30 -1.80 1.40 -2.35 l1.35 -0.65 -2.05 -0.90 c-3.05 -1.40 -9.65 -1.70 -14.15 -0.75 -4.35 0.90 -8 2.55 -14.50 6.45 -2.80 1.70 -5.30 2.85 -6.15 2.85 -1.30 0 -1.40 -0.15 -1.40 -1.85z m67.50 -13.45 c0.75 -1.95 0.60 -2.25 -0.65 -1.05 -0.65 0.60 -1.60 1.35 -2.15 1.70 -0.85 0.55 -0.80 0.60 0.70 0.60 1.30 0.05 1.70 -0.20 2.10 -1.25z"/>
  <path d="M70.50 78.25 c0 -1.65 0.10 -1.75 1.75 -1.75 1.65 0 1.75 0.10 1.75 1.75 0 1.65 -0.10 1.75 -1.75 1.75 -1.65 0 -1.75 -0.10 -1.75 -1.75z"/>
  <path d="M67.30 74.40 c-0.15 -0.65 -0.30 -1.75 -0.30 -2.50 0 -1.25 0.20 -1.40 1.70 -1.40 1.80 0 2.30 0.75 2.30 3.65 0 1.20 -0.20 1.35 -1.70 1.35 -1.30 0 -1.75 -0.25 -2 -1.10z"/>
  <path d="M27.15 50.65 c-0.35 -1.40 -1.10 -2.35 -3.15 -3.95 -3.55 -2.70 -4.45 -4.75 -4.50 -9.95 0 -2.20 -0.25 -4.90 -0.55 -6 -1.15 -4.35 -1.15 -4.25 0 -4.25 0.85 0 1.05 0.30 1.05 1.75 0 0.95 0.25 1.75 0.50 1.75 0.30 0 0.50 0.55 0.50 1.25 0 0.70 0.20 1.25 0.50 1.25 0.25 0 0.45 1.75 0.40 4.15 -0.10 6.05 0.30 7.20 2.50 7.50 1.05 0.15 4.10 0.75 6.85 1.35 5.60 1.20 7.45 1 11.45 -1.25 1.25 -0.70 3.05 -1.25 4.05 -1.25 1.80 0 1.80 0.05 1.65 1.80 -0.10 1.05 -0.50 2.05 -0.90 2.25 -2.05 1.10 -4.25 1.95 -4.85 1.95 -0.35 0 -1.25 0.35 -1.90 0.80 -1.20 0.80 -5.30 0.75 -9.85 -0.05 -1.85 -0.35 -1.90 -0.35 -1.90 1.20 0 2.20 -1.30 2 -1.85 -0.30z"/>
  <path d="M50.10 40.40 c0.10 -1.80 0.35 -2.20 1.30 -2.30 0.60 -0.10 1.10 -0.45 1.10 -0.80 0 -0.35 1 -1.70 2.20 -2.95 l2.20 -2.35 -1.50 -2.25 c-0.80 -1.20 -2.20 -2.65 -3.10 -3.20 -1.85 -1.15 -3.80 -4.35 -3.80 -6.25 0 -0.80 -0.30 -1.30 -0.70 -1.30 -0.85 0 -1.30 -1.10 -1.30 -3.05 0 -1.45 0.10 -1.50 1.90 -1.35 1.70 0.15 1.85 0.30 2 1.80 0.10 0.90 0.45 1.60 0.80 1.60 0.40 0 0.95 0.70 1.30 1.55 0.35 0.85 1.75 2.45 3.10 3.60 1.40 1.15 3.05 3 3.70 4.15 1.20 2.05 1.65 5.70 0.70 5.70 -0.25 0 -0.50 0.60 -0.50 1.40 0 0.80 -0.55 1.85 -1.30 2.55 -1.25 1.25 -1.30 1.25 -0.25 1.65 0.80 0.25 1.05 0.80 1.05 2.15 l0 1.75 -4.55 0 -4.50 0 0.15 -2.10z"/>
  <path d="M73.60 25.85 c-0.90 -0.90 -1.60 -2.05 -1.60 -2.50 0 -0.55 -0.40 -0.85 -1.25 -0.85 -0.70 0 -1.25 -0.20 -1.25 -0.50 0 -0.25 -0.35 -0.50 -0.75 -0.50 -0.40 0 -0.75 -0.45 -0.75 -1 0 -0.60 0.35 -1 0.85 -1 0.95 0 5.10 3.15 7.90 5.95 l1.95 2.05 -1.75 0 c-1.35 0 -2.15 -0.40 -3.35 -1.65z"/>
  <path d="M16.80 23.40 c-0.50 -1.90 -0.35 -2.40 0.70 -2.40 0.80 0 1 0.35 1 1.75 0 2 -1.20 2.45 -1.70 0.65z"/>
  <path d="M16.50 19.20 c0 -1.05 0.90 -2.70 1.50 -2.70 0.30 0 0.50 0.80 0.50 1.75 0 1.40 -0.20 1.75 -1 1.75 -0.55 0 -1 -0.35 -1 -0.80z"/>
  <path d="M65 15.75 c0 -1.40 -0.20 -1.75 -1 -1.75 -0.55 0 -1 -0.35 -1 -0.75 0 -0.40 -0.20 -0.75 -0.50 -0.75 -0.25 0 -0.50 -0.35 -0.50 -0.75 0 -0.40 -0.20 -0.75 -0.50 -0.75 -0.25 0 -0.50 -0.80 -0.50 -1.75 0 -1.40 -0.20 -1.75 -1 -1.75 -0.65 0 -1 -0.35 -1 -1 0 -0.55 -0.35 -1 -0.75 -1 -0.40 0 -0.75 -0.20 -0.75 -0.45 0 -0.60 -5.45 -2.05 -7.90 -2.05 -1.75 0 -2.10 -0.15 -2.10 -1 0 -0.85 0.35 -1 1.90 -1 2.65 0.05 7.95 1.25 8.95 2.05 1.35 1.05 1.85 1.80 5.30 7.45 4.05 6.70 4.15 7 2.60 7 -1.10 0 -1.25 -0.20 -1.25 -1.75z"/>
  <path d="M19.55 12.40 c2.10 -3 6.05 -7.40 6.65 -7.40 0.35 0 2.35 -0.90 4.50 -2 3.75 -1.95 4 -2 8.85 -2 4.60 0 4.95 0.05 4.95 1 0 0.90 -0.35 1 -3.95 1 -2.20 0 -4.05 0.20 -4.15 0.40 -0.20 0.50 -5.10 2.60 -6.05 2.60 -0.35 0 -1.40 0.65 -2.25 1.40 -0.85 0.80 -2.70 2.30 -4.05 3.40 -1.40 1.05 -2.50 2.25 -2.55 2.60 0 0.35 -0.65 0.60 -1.55 0.60 l-1.50 0 1.10 -1.60z"/>
 </g>
 <g fill="#381d20">
  <path d="M16 97.30 l0 -2.65 -3.85 -0.35 c-2.10 -0.15 -5 -0.30 -6.40 -0.30 -1.45 0 -3.35 -0.15 -4.20 -0.30 l-1.55 -0.30 0 -8.45 c0 -7.85 0.05 -8.50 1 -9.30 0.55 -0.50 1 -1.45 1 -2.15 0 -0.70 0.20 -2.05 0.50 -2.95 0.45 -1.60 0.15 -3.05 -0.35 -1.65 -0.40 1.05 -2.15 0.70 -2.15 -0.40 0 -0.55 0.25 -1 0.50 -1 0.30 0 0.50 -0.45 0.50 -0.95 0 -0.55 0.75 -1.55 1.60 -2.25 0.90 -0.65 2.80 -2.25 4.15 -3.55 1.70 -1.55 3.35 -2.50 5.25 -3.10 1.50 -0.40 4.10 -1.20 5.70 -1.70 3.70 -1.20 4.30 -1.20 4.30 -0.05 0 0.65 -0.75 1.15 -2.80 1.80 -3.15 1 -3.45 1.50 -0.45 0.80 1.10 -0.25 3.30 -0.50 4.95 -0.50 2.45 0 2.85 -0.15 2.60 -0.80 -0.15 -0.45 -0.30 -0.90 -0.30 -1 0 -0.10 -0.45 -0.20 -1 -0.20 -0.55 0 -1 -0.35 -1 -0.75 0 -0.75 0.80 -1 2.90 -0.80 1.10 0.10 1.15 0 0.80 -2.30 -0.35 -2.65 -1.45 -4.15 -4.30 -5.95 -2.10 -1.35 -2.50 -2.70 -0.85 -2.70 0.80 0 1 -0.20 0.70 -0.85 -0.15 -0.50 -0.50 -1.85 -0.75 -3.05 -0.55 -3.10 -1 -3.15 -1 -0.20 0 1.90 -0.20 2.60 -0.70 2.60 -0.90 0 -1.20 -1.60 -1.25 -6.60 -0.05 -3.30 0.05 -3.90 0.75 -3.90 0.65 0 0.75 -0.35 0.55 -1.35 -0.15 -0.80 -0.55 -3.35 -0.90 -5.75 -0.35 -2.45 -0.85 -4.40 -1.10 -4.40 -0.25 0 -0.30 0.85 -0.15 1.85 0.95 6 0.95 6.15 0.20 6.15 -0.80 0 -1.70 -2.50 -2.20 -6.15 -0.45 -3.15 1.20 -7.40 4.10 -10.70 1.20 -1.40 2.20 -2.75 2.20 -3 0 -0.85 2.80 -3.15 3.85 -3.15 0.60 0 1.25 -0.25 1.40 -0.50 0.20 -0.30 1.50 -1.10 2.90 -1.85 2.60 -1.30 5.65 -1.85 7.75 -1.30 1.35 0.30 1.50 1.65 0.15 1.65 -1.75 0 -7.05 3.10 -7.05 4.10 0 0.55 -1.10 2.25 -2.45 3.90 -1.35 1.60 -2.60 3.40 -2.75 3.90 -0.20 0.60 0.50 3 1.85 6.15 1.20 2.85 2.40 5.65 2.60 6.20 0.25 0.55 0.55 3.80 0.70 7.20 l0.30 6.25 1.55 0.90 c2.35 1.35 9 1.80 11.10 0.70 0.90 -0.45 1.60 -1.05 1.60 -1.30 0 -0.30 0.30 -0.50 0.65 -0.50 0.30 0 2.15 -1.60 4.05 -3.50 1.90 -1.95 3.75 -3.50 4.15 -3.50 1.15 0 1.30 -1.35 0.30 -3.05 -1.05 -1.90 -3 -3.95 -3.65 -3.95 -0.30 0 -0.50 -0.35 -0.50 -0.75 0 -0.40 -0.35 -0.75 -0.75 -0.75 -0.40 0 -0.75 -0.30 -0.75 -0.70 0 -0.40 -0.15 -0.80 -0.35 -0.90 -0.90 -0.40 -3.65 -6.55 -3.65 -8.20 0 -1.75 0.05 -1.75 1.90 -1.60 1.65 0.15 2 0.40 3.20 2.65 0.75 1.40 1.40 2.90 1.40 3.40 0 0.45 0.25 0.85 0.50 0.85 0.30 0 0.50 0.45 0.50 1 0 0.60 0.35 1 0.85 1 1.50 0 4.05 2.45 5.45 5.25 1.25 2.60 1.30 3.10 1.05 7.65 -0.35 6.65 -2.85 12.75 -5.95 14.80 -2.45 1.60 -9.05 3.40 -11.25 3.10 l-2.15 -0.30 0 3 c0 2.45 0.15 3.05 1 3.50 1.05 0.55 1.05 0.55 1.80 -1.90 0.10 -0.45 0.85 -0.60 2.05 -0.50 1.70 0.15 1.90 0.30 2.05 1.65 l0.15 1.50 3.70 -0.15 3.75 -0.20 0 -1.95 c0 -1.90 0.05 -1.95 1.75 -1.95 1.70 0 1.75 0.05 1.75 2 0 1.75 -0.15 2 -1.10 2.05 -0.85 0 -0.60 0.20 0.85 0.75 1.65 0.60 2.20 0.60 3.15 0.10 1.80 -0.95 6.80 -6.50 7.80 -8.60 1.15 -2.40 0.70 -6.75 -1 -10.30 -0.70 -1.50 -1.20 -3.40 -1.20 -4.75 0 -2.20 0 -2.25 1.70 -2.25 1.25 0 1.75 0.25 1.95 1 0.20 0.75 0.70 1 1.80 1 1.45 0 1.55 -0.10 1.55 -1.80 0 -1.75 0.05 -1.75 1.85 -1.60 1.60 0.15 2 0.45 3.05 2.40 0.70 1.25 1.40 2.90 1.60 3.75 0.30 1.50 1.35 2.10 2.80 1.55 0.65 -0.25 0.65 -0.50 -0.10 -1.90 -0.45 -0.90 -1.60 -2.70 -2.50 -4.05 -0.95 -1.30 -1.70 -2.80 -1.70 -3.35 0 -0.55 -0.30 -1 -0.65 -1 -0.35 0 -1.40 -0.75 -2.30 -1.70 -1.25 -1.25 -1.60 -2.05 -1.45 -3.10 0.15 -1.40 0.25 -1.35 4.35 2.80 4.30 4.45 6.70 7.95 7.60 11.15 0.40 1.55 0.70 1.85 1.35 1.55 0.45 -0.20 3.20 -0.45 6 -0.60 l5.20 -0.20 -0.20 1.15 c-0.15 1.05 -0.55 1.25 -4.15 1.75 -4.90 0.70 -7.35 1.70 -8.55 3.45 -0.55 0.70 -1.50 2 -2.15 2.80 -1.55 2 -5.55 10.20 -5.55 11.45 0 1.70 2.10 6.70 3.35 8.05 0.65 0.75 2.45 1.95 3.95 2.70 1.50 0.75 2.70 1.55 2.70 1.80 0 0.25 0.25 0.45 0.55 0.45 0.25 0 2.65 1.05 5.25 2.35 l4.70 2.30 0 4.50 0 4.45 -1.35 -0.25 c-4.35 -0.90 -6.95 -1.55 -7.15 -1.85 -0.15 -0.20 -1.05 -0.45 -2.05 -0.65 -3.45 -0.50 -11.30 -5.25 -11.75 -7.05 -0.15 -0.60 -0.70 -1.30 -1.30 -1.55 -1.50 -0.70 -4.40 -6.60 -4.45 -9 l-0.05 -2 -0.65 1.50 c-1.30 2.85 -0.55 5.75 2.30 8.80 0.75 0.80 1.70 2.15 2.05 2.95 0.35 0.85 0.90 1.50 1.25 1.50 0.35 0 0.80 0.30 1 0.65 1.05 1.70 10.45 5.20 20.05 7.45 1.55 0.35 2.10 0.70 2.10 1.45 0 1.05 -1.20 1.25 -3.10 0.50 -0.65 -0.25 -3.85 -1.20 -7.15 -2.05 -3.30 -0.90 -7.30 -2.25 -8.85 -3.05 -1.60 -0.80 -2.90 -1.35 -2.90 -1.25 0 0.40 5.20 3.15 6.55 3.50 2.20 0.50 4 2.30 5.30 5.40 0.70 1.60 1.40 2.80 1.50 2.70 0.45 -0.45 -0.95 -3.85 -2.20 -5.35 l-1.30 -1.50 1.95 0.30 c2 0.35 2.90 0.60 7.60 2.05 l2.60 0.80 0 3.95 0 3.95 -3.50 0 c-3 0 -3.50 -0.15 -3.50 -0.85 -0.05 -1 -1.50 -3.20 -1.50 -2.30 0 0.35 0.20 1.15 0.50 1.85 l0.50 1.30 -3.95 0 c-2.70 0 -4.05 -0.20 -4.25 -0.60 -0.25 -0.50 -0.35 -0.50 -0.60 0 -0.15 0.30 -0.65 0.60 -1.05 0.60 -0.55 0 -0.70 -0.35 -0.45 -1.25 0.30 -1.20 0.25 -1.25 -1.05 -0.95 -0.80 0.20 -1.60 0.55 -1.90 0.75 -0.25 0.25 -1.20 0.45 -2.05 0.45 -0.90 0 -1.80 0.25 -1.95 0.50 -0.20 0.30 -3.35 0.50 -7.80 0.50 l-7.45 0 0 -1.20 c0 -1 0.55 -1.40 4.40 -2.80 5.45 -2.05 10.50 -4.70 12 -6.30 1.50 -1.65 1.45 -3.50 -0.05 -3.90 -0.65 -0.15 -1.45 -0.80 -1.80 -1.50 -0.40 -0.65 -1.05 -1.30 -1.50 -1.45 -0.45 -0.10 -1.15 -0.85 -1.55 -1.65 -0.40 -0.80 -1.05 -1.75 -1.35 -2.10 -0.35 -0.35 -0.65 -1 -0.65 -1.40 0 -0.40 -0.20 -0.70 -0.45 -0.70 -0.75 0 -2.55 -3.90 -2.55 -5.45 l0 -1.45 -4.10 0.25 c-5.10 0.30 -17.60 3.15 -18.40 4.20 -0.15 0.20 -1.60 1 -3.25 1.85 -1.65 0.85 -3.75 2.10 -4.70 2.80 -0.95 0.70 -2.05 1.30 -2.40 1.30 -0.35 0 -0.65 0.15 -0.65 0.40 0 0.20 -1.45 1.90 -3.25 3.80 -2.65 2.80 -3.15 3.60 -2.65 4.15 1.10 1.35 6.10 3.45 9.65 4.10 1.95 0.35 4.20 0.95 5 1.30 0.85 0.35 2.85 0.90 4.50 1.25 1.65 0.30 3.55 0.75 4.25 1 0.70 0.25 2.30 0.55 3.65 0.75 2.05 0.25 2.35 0.45 2.35 1.55 l0 1.20 -6.60 0 c-4.50 0 -7.30 -0.25 -8.65 -0.75 -1.10 -0.40 -3.05 -0.70 -4.35 -0.75 -1.30 0 -2.45 -0.20 -2.60 -0.40 -0.10 -0.20 -3.10 -0.35 -6.60 -0.25 -4 0.05 -6.65 -0.10 -7.05 -0.45 -0.50 -0.40 -0.65 -0.20 -0.65 1.05 0 1.50 -0.10 1.55 -2 1.55 l-2 0 0 -2.70z m9.25 -11.75 c1.95 -2 3 -3.40 2.40 -3.10 -1.15 0.60 -6.15 6.05 -6.15 6.75 0 0.25 0.05 0.35 0.15 0.25 0.05 -0.15 1.70 -1.90 3.60 -3.90z m-4 -1.85 c0.85 -0.15 2.05 -0.85 2.75 -1.45 2.05 -1.85 5.15 -3.75 6.10 -3.75 0.50 0 0.90 -0.30 0.90 -0.70 0 -0.55 -0.45 -0.70 -1.85 -0.50 -2.55 0.35 -6.30 1.25 -6.90 1.70 -0.25 0.20 -1.35 0.65 -2.35 0.95 -2 0.65 -4.20 3.15 -3.60 4.10 0.30 0.50 1.65 0.45 4.95 -0.35z m-14.65 -8.35 c6.50 -3.85 9.60 -5.25 14 -6.15 5.05 -1.10 13.85 -0.70 17.15 0.75 2.50 1.10 4 1.35 3.55 0.60 -0.15 -0.25 0 -0.55 0.40 -0.70 0.85 -0.35 3.10 0.80 2.95 1.50 -0.05 0.30 0.90 0.25 2.50 -0.20 3.65 -0.90 4 -1.20 1.20 -0.90 -1.75 0.15 -2.75 0 -3.70 -0.60 -0.75 -0.50 -2 -0.80 -3 -0.70 -1.05 0.05 -2.35 -0.25 -3.45 -0.90 -0.95 -0.60 -2.10 -1.05 -2.50 -1.05 -1 0 -4.55 -3.65 -5.45 -5.60 -0.55 -1.20 -0.65 -1.30 -0.45 -0.40 0.20 0.70 1.05 2.25 2 3.45 1.85 2.45 1.60 3.80 -0.55 3.25 -0.65 -0.15 -3.70 0 -6.80 0.30 -7.65 0.80 -11.15 2.20 -19.95 7.90 -5.85 3.80 -4.60 3.45 2.10 -0.55z m33.90 -1.35 c1.65 -0.85 3 -1.60 3 -1.75 0 -0.30 -3.15 1.15 -5.25 2.35 -2.40 1.45 -1 1.05 2.25 -0.60z m14.60 -4.65 c3.25 -0.70 4.70 -1.65 1.65 -1.05 -2.55 0.45 -6.25 1.60 -5.25 1.60 0.40 0.05 2.05 -0.25 3.60 -0.55z m11.85 -1.65 c0.45 -0.40 -5.25 -0.10 -6.20 0.35 -0.65 0.30 0.20 0.35 2.50 0.15 1.95 -0.20 3.60 -0.40 3.70 -0.50z m-22.55 -0.60 c-1.35 -0.10 -2.45 -0.35 -2.45 -0.65 -0.25 -1.45 -0.05 -1.75 1.55 -2 1.65 -0.30 1.60 -0.30 -0.60 -0.40 -1.80 -0.05 -2.50 -0.30 -2.90 -1 -0.85 -1.65 -0.60 -2.20 0.60 -1.35 0.60 0.45 1.45 0.80 1.90 0.80 1 0 4.35 -2.80 3.95 -3.25 -0.20 -0.15 -1.15 0.40 -2.15 1.25 l-1.80 1.60 -1.75 -1.05 -1.75 -1 0 2.20 c0 1.70 0.20 2.25 0.75 2.25 0.45 0 0.90 0.40 1.10 0.90 0.65 1.90 1.55 2.40 3.75 2.10 l2.15 -0.25 -2.35 -0.15z m14.60 -2.15 c0 -0.20 0.70 -0.35 1.50 -0.35 0.85 0.05 1.80 -0.20 2.10 -0.50 0.40 -0.40 0.25 -0.45 -0.45 -0.30 -0.60 0.15 -1.70 -0.05 -2.55 -0.50 -1.95 -1 -2.65 -1 -1.40 -0.05 0.95 0.75 0.95 0.80 -0.75 2.55 l-1.70 1.85 1.65 -1.15 c0.85 -0.65 1.60 -1.35 1.60 -1.55z m14.65 -7.45 c2.10 -3.75 3.70 -5.85 6.30 -8.40 1.20 -1.15 2.10 -2.20 1.95 -2.35 -0.10 -0.15 -1.20 0.80 -2.40 2.05 -1.90 2 -2.25 2.20 -2.55 1.40 -0.25 -0.80 -0.35 -0.65 -0.65 0.60 -0.20 0.90 -1.05 2.65 -1.85 4 -2.10 3.30 -4.95 8.90 -4.95 9.75 0 0.40 0.60 -0.40 1.30 -1.80 0.70 -1.35 2 -3.75 2.85 -5.25z m-7.85 4.45 c0.20 -0.40 0.05 -0.40 -0.70 0 -0.60 0.30 -1.20 0.80 -1.40 1.10 -0.20 0.40 -0.05 0.40 0.70 0 0.60 -0.30 1.20 -0.80 1.40 -1.10z m-54.35 -3.30 c0.10 -0.10 0 -0.15 -0.30 -0.15 -0.30 0 -1.05 0.45 -1.70 1.05 l-1.20 1 1.50 -0.85 c0.85 -0.50 1.60 -0.95 1.70 -1.05z m23.10 -2.30 c-0.85 -0.85 -1.20 -0.05 -0.45 1.10 0.55 0.90 0.70 0.95 0.80 0.25 0.10 -0.45 -0.05 -1.05 -0.35 -1.35z m4.70 -8 c0.85 -0.65 0.65 -0.70 -1.55 -0.50 -1.35 0.15 -3.65 0.05 -5.05 -0.25 -1.45 -0.25 -2.65 -0.25 -2.65 -0.05 0 0.25 0.75 0.45 1.65 0.45 0.85 0 1.90 0.20 2.20 0.40 1.10 0.70 4.40 0.65 5.40 -0.05z m-9.85 -1.10 c0.10 -0.10 -0.80 -0.35 -2 -0.65 -1.20 -0.25 -2.60 -0.65 -3.15 -0.85 -0.55 -0.20 -0.20 0.20 0.75 0.90 1.20 0.90 2.15 1.20 3 1 0.70 -0.15 1.30 -0.35 1.40 -0.40z m13.35 -0.20 c0.15 -0.25 0.90 -0.60 1.70 -0.80 0.80 -0.15 1.75 -0.65 2.10 -1.05 0.85 -1 0.35 -0.90 -2.90 0.80 -1.55 0.85 -2.50 1.50 -2.05 1.50 0.45 0 0.95 -0.20 1.15 -0.45z m45 -3.50 c1.10 -0.60 1.75 -1.05 1.40 -1.05 -1.20 0 -4.95 1.90 -5.90 3.05 l-1 1.15 1.75 -1.05 c0.95 -0.60 2.65 -1.50 3.75 -2.10z m-33.80 -0.75 c1.80 -1.90 0.95 -1.60 -1.25 0.50 -1.10 0.95 -1.50 1.55 -0.95 1.30 0.55 -0.30 1.55 -1.10 2.20 -1.80z m19.55 0.25 c0 -0.20 -0.45 -0.35 -1 -0.35 -0.55 0 -1 0.05 -1 0.10 0 0.05 0.15 0.50 0.30 0.90 0.25 0.65 0.45 0.70 1 0.25 0.40 -0.30 0.70 -0.70 0.70 -0.90z m-16.35 -2.60 c-0.30 -0.30 -1.50 -0.50 -2.60 -0.35 -1.15 0.10 -2.05 0 -2.05 -0.25 0 -0.20 -0.20 -0.25 -0.50 -0.10 -1.25 0.75 -0.25 1.25 2.60 1.25 2.30 0 2.95 -0.15 2.55 -0.55z m0.70 -11.60 c-0.70 -1.20 -2.30 -3.05 -3.60 -4.05 -1.25 -1.05 -2.70 -2.70 -3.25 -3.70 -0.50 -1 -0.95 -1.65 -1 -1.40 -0.05 1.05 2.35 4.45 3.80 5.35 1.55 0.95 4.70 5.05 4.70 6.10 0 0.30 0.15 0.40 0.30 0.20 0.20 -0.15 -0.25 -1.30 -0.95 -2.50z m-31.10 -23.05 c0.30 -0.20 0.05 -0.20 -0.50 0.10 -0.55 0.30 -1.45 1.05 -2 1.70 -0.95 1.10 -0.95 1.10 0.50 -0.10 0.85 -0.70 1.75 -1.45 2 -1.70z m5.75 -2.55 c0.70 -0.40 1.05 -0.70 0.75 -0.70 -0.25 0 -1.05 0.30 -1.75 0.70 -0.70 0.40 -1 0.70 -0.75 0.70 0.30 0 1.05 -0.30 1.75 -0.70z"/>
  <path d="M65.35 33.15 c-0.20 -0.15 -0.35 -1.10 -0.35 -2 0 -1.65 0.05 -1.70 1.90 -1.55 1.75 0.15 1.85 0.25 2 2.05 0.15 1.80 0.10 1.85 -1.55 1.85 -0.90 0 -1.85 -0.15 -2 -0.35z"/>
  <path d="M70.70 23.55 c-0.55 -0.90 -1.55 -1.65 -2.75 -2 -1.60 -0.50 -2 -0.90 -2.45 -2.45 -0.25 -1 -0.50 -2.05 -0.50 -2.25 0 -0.25 -0.35 -0.75 -0.75 -1.15 -0.80 -0.80 -1.05 -4.20 -0.30 -4.20 0.55 0 3.55 5.65 3.55 6.70 0 0.45 0.75 1.10 1.70 1.50 1.80 0.75 5.80 4.10 5.80 4.85 0 0.25 -0.75 0.45 -1.70 0.45 -1.40 0 -1.90 -0.30 -2.60 -1.45z"/>
  <path d="M60.50 9.25 c0 -0.40 -0.20 -0.75 -0.50 -0.75 -0.25 0 -0.50 -0.80 -0.50 -1.75 0 -2.20 0.50 -2.20 1.75 -0.15 1.80 2.95 1.85 3.40 0.50 3.40 -0.80 0 -1.25 -0.30 -1.25 -0.75z"/>
  <path d="M53.50 2.80 c0 -1.15 0.10 -1.15 2 -0.70 1.10 0.30 2 0.80 2 1.20 0 0.50 -0.65 0.70 -2 0.70 -1.80 0 -2 -0.15 -2 -1.20z"/>
  <path d="M41.50 2.30 c0 -0.85 1.55 -1.30 4.50 -1.30 2.95 0 4.50 0.45 4.50 1.30 0 0.55 -1 0.70 -4.50 0.70 -3.50 0 -4.50 -0.15 -4.50 -0.70z"/>
 </g>
 <g fill="#4a2830">
  <path d="M0 89.15 c0 -6.80 0.20 -10.65 0.45 -10.35 0.30 0.25 0.55 3.20 0.60 6.60 0.05 3.35 0.30 6.25 0.55 6.40 0.20 0.15 0.40 -0.30 0.40 -1 0 -1.85 0.90 -2.05 1.10 -0.25 0.15 1.50 0.20 1.55 3.15 1.75 11 0.70 10 0.80 11.95 -1 1 -0.90 1.80 -1.90 1.80 -2.20 0 -0.35 0.25 -0.60 0.50 -0.60 0.65 0 0.65 0.80 0 2.05 -0.35 0.65 -0.35 0.95 0 0.95 0.25 0 0.50 0.50 0.50 1.15 0 0.60 0.30 1.65 0.65 2.30 0.60 1.25 0.70 1.25 7.10 1.15 4.20 -0.05 6.70 0.15 7.15 0.50 0.50 0.45 0.75 0.45 1 0 0.30 -0.40 1.05 -0.35 2.85 0.25 4.30 1.30 5.25 1.75 5.25 2.45 0 0.60 -2.30 0.70 -13.25 0.70 l-13.20 0 -0.30 -1.60 c-0.20 -1 0 -2.55 0.50 -3.85 1 -2.95 0.60 -3.25 -0.50 -0.35 -0.60 1.50 -0.75 2.85 -0.55 4.05 l0.35 1.75 -9.05 0 -9 0 0 -10.85z"/>
  <path d="M55.25 99.55 c-0.50 -0.50 -5.65 -1.60 -7.50 -1.60 -0.50 0 -1.20 -0.20 -1.50 -0.40 -0.25 -0.25 -1.35 -0.60 -2.45 -0.75 -1.05 -0.20 -2.50 -0.60 -3.25 -0.90 -1.50 -0.65 -1.25 -0.55 -5.80 -1.50 -6.30 -1.35 -10.80 -4.40 -10 -6.80 0.15 -0.55 1.70 -2.50 3.40 -4.30 1.70 -1.80 3 -3.30 2.85 -3.30 -0.45 0 -4.15 2.55 -5.50 3.75 -1.55 1.40 -3.35 1.85 -7.50 1.95 l-3.25 0.05 -0.15 -1.90 c-0.20 -2.15 1.25 -4.60 3.05 -5.15 0.60 -0.15 1.80 -0.60 2.60 -0.95 2.80 -1.20 3.50 -1.40 5.25 -1.60 0.95 -0.10 2.85 -0.40 4.15 -0.65 1.35 -0.30 2.65 -0.40 2.90 -0.25 0.25 0.15 0.90 0.05 1.50 -0.25 0.80 -0.45 1.20 -0.45 1.65 0 0.40 0.40 0.05 1 -1.45 2.30 -2.10 1.85 -1.55 1.80 1 -0.10 5.70 -4.15 17.35 -8 25.80 -8.40 2.45 -0.15 4.65 -0.35 4.90 -0.50 1 -0.65 2.05 0.35 2.05 1.90 0.05 0.85 0.30 2.05 0.70 2.70 0.55 1 0.60 0.80 0.40 -1.85 -0.25 -3.25 1 -7.55 2.85 -10 l0.95 -1.25 0.35 4.35 c0.30 3.45 0.70 4.95 2 7.45 0.90 1.75 2.10 3.35 2.65 3.65 0.60 0.25 1.15 0.95 1.30 1.55 0.50 1.85 8.50 6.60 11.90 7.10 1.05 0.10 1.90 0.40 1.90 0.60 0 0.20 1.05 0.55 2.30 0.75 4 0.60 4.70 1.10 4.70 3.60 0 1.15 -0.10 2.15 -0.25 2.15 -0.10 0 -1.50 -0.35 -3.10 -0.80 -1.60 -0.45 -4.70 -1.25 -6.90 -1.80 -4.20 -1.05 -11.75 -4.35 -13.40 -5.80 -0.95 -0.80 -0.95 -0.80 -0.35 0.20 0.35 0.60 1.40 1.45 2.30 1.95 1.35 0.70 1.55 1.05 1.20 1.80 -0.30 0.50 -0.50 1.45 -0.50 2.15 0 2.55 -4.05 5.30 -12.65 8.60 -2.50 0.95 -4.80 1.95 -5.05 2.25 -0.65 0.60 -5.45 0.60 -6.05 0z m13.15 -5.65 c0.35 -0.35 0.60 -1.90 0.60 -3.50 0 -2.75 0.05 -2.90 1.25 -2.90 0.90 0 1.25 -0.25 1.25 -1 0 -0.80 0.35 -1 1.50 -1 1.65 0 1.90 -0.55 0.75 -1.50 -0.40 -0.35 -0.75 -0.95 -0.75 -1.30 0 -0.40 -0.35 -0.70 -0.75 -0.70 -0.40 0 -0.75 -0.35 -0.75 -0.75 0 -0.40 -0.20 -0.75 -0.50 -0.75 -0.25 0 -0.50 -0.25 -0.50 -0.50 0 -0.30 -0.45 -1.05 -1.05 -1.65 -1.25 -1.35 -2.95 -4.55 -2.95 -5.60 0 -0.45 -0.45 -0.75 -1.25 -0.75 -0.70 0 -1.40 -0.35 -1.55 -0.75 -0.45 -1.10 -3.85 -0.95 -8.95 0.35 -3.40 0.85 -4.25 1.25 -4.25 2 0 0.65 -0.40 0.90 -1.50 0.90 -1 0 -1.50 0.25 -1.50 0.75 0 0.45 -0.45 0.75 -1.25 0.75 -0.90 0 -1.25 0.25 -1.25 0.95 0 0.95 -2.35 3.05 -3.45 3.05 -0.30 0 -0.55 0.20 -0.55 0.45 0 0.25 -1.25 0.60 -2.75 0.80 l-2.75 0.30 0 3.75 c0 2.05 0.15 3.70 0.40 3.70 0.20 0 1.25 -0.25 2.35 -0.50 2.60 -0.65 22.25 -1.55 25.60 -1.15 l2.55 0.30 0.35 3.40 c0.35 3.50 0.60 3.90 1.65 2.85z m-4.90 -0.75 c0 -0.50 -0.25 -1.25 -0.50 -1.65 -0.35 -0.55 -0.50 -0.35 -0.50 0.90 0 0.85 0.25 1.60 0.50 1.60 0.30 0 0.50 -0.40 0.50 -0.85z m-31.50 -8.65 c0 -1.10 -0.20 -2 -0.50 -2 -0.25 0 -0.50 0.90 -0.50 2 0 1.10 0.25 2 0.50 2 0.30 0 0.50 -0.90 0.50 -2z m-8.75 -2 c0.15 -0.25 -0.15 -0.50 -0.70 -0.50 -0.60 0 -1.05 0.25 -1.05 0.50 0 0.30 0.30 0.50 0.70 0.50 0.40 0 0.90 -0.20 1.05 -0.50z m2.25 -1.50 c0 -0.25 -0.35 -0.50 -0.75 -0.50 -0.40 0 -0.75 0.25 -0.75 0.50 0 0.30 0.35 0.50 0.75 0.50 0.40 0 0.75 -0.20 0.75 -0.50z m47.50 -2.20 c-1.60 -2.40 -2.75 -3.25 -1.30 -1.05 0.45 0.70 1.15 1.80 1.60 2.50 0.45 0.70 0.95 1.20 1.05 1.05 0.15 -0.15 -0.45 -1.25 -1.35 -2.50z m-44.95 0.70 c0.25 0 0.45 -0.35 0.45 -0.80 0 -1.15 -2.20 -0.70 -2.40 0.50 -0.15 0.70 0 0.85 0.65 0.60 0.45 -0.15 1.05 -0.30 1.30 -0.30z"/>
  <path d="M70.50 99.25 c0 -0.50 0.50 -0.75 1.45 -0.75 0.85 0 1.65 -0.20 1.80 -0.50 0.15 -0.25 1.10 -0.50 2.05 -0.50 1 0 1.85 -0.30 2 -0.70 0.15 -0.40 0.75 -0.65 1.35 -0.65 0.60 0 2.40 -0.25 4.05 -0.60 2.50 -0.55 3 -0.55 3.65 0.10 0.50 0.50 0.65 1.20 0.50 1.95 -0.25 1 -0.60 1.20 -1.75 1 -0.90 -0.10 -1.65 0.10 -2.05 0.60 -0.95 1.15 -13.05 1.20 -13.05 0.05z"/>
  <path d="M96.60 79.75 c-1.15 -0.65 -3.50 -1.80 -5.25 -2.60 -1.70 -0.75 -3.25 -1.60 -3.45 -1.90 -0.20 -0.25 -0.55 -0.50 -0.75 -0.50 -0.75 -0.05 -5 -2.75 -6 -3.85 -1.30 -1.50 -2.65 -4.95 -3.15 -8.30 -0.45 -2.55 -0.35 -2.85 1.95 -7.60 1.30 -2.70 2.95 -5.60 3.60 -6.45 0.65 -0.80 1.60 -2.10 2.15 -2.80 1.05 -1.55 3.50 -2.70 6.80 -3.25 l2.25 -0.40 -2.75 -0.10 -2.75 -0.10 2 -0.45 c1.10 -0.20 2.90 -0.40 4 -0.35 1.80 0 1.85 0.05 0.75 0.45 -0.90 0.30 -0.50 0.35 1.40 0.15 l2.60 -0.25 0 1.95 c0 1.80 -0.15 2 -1.55 2.30 -2.85 0.55 -4.95 0.35 -4.95 -0.45 0 -0.40 -0.35 -0.75 -0.75 -0.75 -0.50 0 -0.75 0.75 -0.85 2.90 -0.15 2.55 -0.25 2.85 -1.30 3 -0.80 0.15 -1.25 0.60 -1.45 1.65 -0.25 1.25 -0.50 1.45 -1.95 1.45 -1.40 0 -1.65 -0.20 -1.80 -1.30 -0.15 -1.10 -0.25 -1.15 -1 -0.60 -0.45 0.35 -1 1.25 -1.15 1.95 -0.35 1.30 -0.30 1.35 1.95 1.10 l2.30 -0.30 0 1.85 c0 1.45 -0.20 1.80 -1 1.80 -0.65 0 -1 0.35 -1 1 0 0.80 0.35 1 1.50 1 0.95 0 1.65 0.30 1.85 0.80 0.15 0.40 0.85 1 1.50 1.25 0.70 0.25 1.35 0.90 1.50 1.45 0.20 0.70 0.70 1 1.70 1 0.95 0 1.45 0.25 1.45 0.75 0 0.50 0.50 0.75 1.45 0.75 1.25 0 1.45 0.20 1.75 1.90 0.15 1 0.30 2.45 0.30 3.25 0 0.85 0.25 1.35 0.75 1.35 0.60 0 0.75 0.80 0.75 4.25 0 4.80 -0.10 4.90 -3.40 3z"/>
  <path d="M0 73.25 c0 -4.25 0.15 -4.90 1.30 -6.60 0.70 -1.05 2 -2.50 2.85 -3.20 1.65 -1.30 7.05 -4.60 8.35 -5.10 0.65 -0.25 0.65 -0.30 -0.05 -0.30 -0.40 -0.05 -1.85 0.65 -3.20 1.50 -1.35 0.85 -2.15 1.20 -1.75 0.70 1.10 -1.35 4.45 -2.85 5.55 -2.50 0.55 0.20 1.30 0.10 1.65 -0.20 1.30 -1.05 8 -3.05 10.30 -3.05 2 0 2.40 0.15 2.90 1.25 0.35 0.70 0.60 1.95 0.60 2.75 0 1.45 0 1.45 -2.45 1.15 -2.40 -0.25 -8.80 0.60 -9.80 1.35 -0.25 0.20 -2.05 0.75 -3.95 1.25 -1.90 0.45 -3.90 1.05 -4.50 1.30 -1.35 0.65 -4 7.75 -3.95 10.55 0.05 1.55 -0.25 2.10 -1.35 2.90 -2.30 1.65 -2.50 1.40 -2.50 -3.75z m25.40 -16.10 c-0.80 -0.10 -2 -0.10 -2.75 0 -0.80 0.10 -0.15 0.20 1.35 0.20 1.50 0 2.15 -0.10 1.40 -0.20z"/>
  <path d="M44.90 69.60 c-1.65 -1 -1.80 -1.60 -0.45 -1.60 1.15 0 8.10 -2.40 8.75 -3.05 1.10 -1 -0.40 -1.05 -2.40 0 -1.25 0.60 -3.50 1.35 -5.05 1.70 -2.60 0.55 -2.90 0.50 -3.55 -0.40 -0.65 -0.90 -0.55 -1 1.65 -1.55 3.30 -0.85 5.35 -1.65 5 -2 -0.15 -0.15 -0.70 -0.05 -1.25 0.25 -2.15 1.15 -2.55 0.70 -1.45 -1.50 1.30 -2.65 0.55 -3.50 -1.40 -1.45 -1.65 1.70 -2.85 1.90 -4.15 0.60 -1.25 -1.25 -0.90 -4.10 0.45 -4.10 0.70 0 0.95 0.40 1 1.40 0.10 1.20 0.10 1.20 0.30 0.20 0.30 -1.50 1.15 -1.80 3.90 -1.40 2.15 0.35 2.25 0.45 2.25 2.10 0 1.35 0.20 1.70 1 1.70 0.55 0 1 -0.20 1 -0.50 0 -0.25 1.20 -0.50 2.70 -0.50 l2.65 0 0.30 -2.95 c0.30 -3.75 0.50 -4.05 2.65 -4.05 1.35 0 1.70 0.20 1.70 1 0 0.75 0.35 1 1.25 1 0.75 0 1.25 -0.30 1.25 -0.70 0 -0.40 0.15 -1.05 0.30 -1.50 0.25 -0.65 -0.05 -0.80 -1.30 -0.80 l-1.65 0 0.30 -2.85 c0.15 -1.60 0.10 -3.80 -0.10 -4.90 -0.25 -1.10 -0.45 -1.55 -0.50 -1.05 -0.05 1.20 -2.45 5.30 -3.05 5.30 -0.30 0 -0.50 0.35 -0.50 0.75 0 0.45 -0.40 0.95 -0.85 1.10 -0.50 0.20 -1.20 0.65 -1.55 1 -0.35 0.35 -1.60 0.90 -2.75 1.20 -1.15 0.30 -2.45 0.85 -2.85 1.20 -0.40 0.35 -2.50 0.75 -4.60 0.85 l-3.90 0.25 -0.30 -1.70 c-0.40 -2.20 0.40 -3.15 1.65 -2.05 1.60 1.35 3.50 1.35 7.70 -0.10 4.45 -1.55 5.50 -2.30 7.20 -5.25 2.05 -3.50 2.90 -6.75 2.90 -10.85 0 -3.25 -0.25 -4.20 -1.35 -6.10 -0.75 -1.25 -2.30 -2.95 -3.50 -3.75 -1.65 -1.15 -2.55 -2.35 -3.95 -5.20 -0.95 -2.05 -2 -3.90 -2.30 -4.10 -0.85 -0.50 -0.70 -0.05 1.50 4.20 1.45 2.75 2.85 4.65 4.45 6 2.55 2.15 4.75 5.95 4.30 7.40 -0.15 0.50 -1.50 1.90 -2.90 3.15 -1.45 1.20 -3.40 3.05 -4.30 4.10 -0.95 1.05 -2 1.90 -2.40 1.90 -0.40 0 -0.70 0.20 -0.70 0.45 0 0.25 -0.80 0.90 -1.75 1.50 -1.45 0.85 -2.35 1 -5.20 0.80 -5.05 -0.35 -7.15 -0.75 -8.80 -1.70 l-1.50 -0.85 -0.30 -6.25 c-0.15 -3.40 -0.45 -6.65 -0.70 -7.20 -0.20 -0.55 -1.40 -3.30 -2.60 -6.15 -3.05 -7.30 -2.95 -8.55 1.25 -13.50 1.20 -1.45 2.10 -2.75 1.95 -2.90 -0.20 -0.20 -3.05 2.10 -5.95 4.95 -0.50 0.45 -1.15 0.85 -1.40 0.85 -0.25 0 -0.50 0.10 -0.50 0.25 0 0.15 -0.35 2 -0.80 4.05 -0.70 3.45 -0.70 4.20 0.05 8.60 0.45 2.65 0.95 5 1.05 5.20 0.10 0.20 0.45 2.20 0.75 4.50 0.65 5.65 1.15 6.90 3.45 9.15 1.10 1.10 2 2.15 2 2.35 0 0.65 -2.40 0.45 -4.35 -0.35 -1.65 -0.70 -1.75 -0.70 -1.10 0.10 0.65 0.85 0.65 0.85 -0.55 0.10 -2.35 -1.50 -3.05 -3.70 -2.80 -8.70 0.10 -2.65 0.05 -4.10 -0.20 -3.50 -0.40 0.90 -0.45 0.90 -0.45 -0.30 -0.05 -0.70 -0.60 -3.15 -1.30 -5.50 -1.55 -5.35 -1.65 -9.70 -0.20 -12.60 1.30 -2.55 7.05 -8.30 9.45 -9.40 0.95 -0.45 3.45 -1.65 5.50 -2.65 2.75 -1.35 4.40 -1.80 6.15 -1.80 2.65 0 2.65 0.05 2.05 4.70 -0.30 2.15 -0.45 2.30 -1.75 2.30 -0.95 0 -1.45 0.25 -1.45 0.75 0 0.45 -0.45 0.75 -1.25 0.75 -1.20 0 -1.25 0.15 -1.25 2.75 0 2.05 0.20 2.75 0.70 2.75 0.80 0 2.30 4.50 2.30 6.95 0 1.30 0.20 1.55 1.20 1.55 1.60 0 1.80 0.75 1.80 6.25 0 5.50 -0.20 6.25 -1.80 6.25 -1.05 0 -1.20 0.20 -1.20 2 0 1.80 0.10 2 1.30 2 0.85 0 1.40 0.30 1.55 1 0.35 1.35 1.15 1.25 3.55 -0.50 1.15 -0.85 2.40 -1.50 2.75 -1.50 0.40 0 1.10 -0.45 1.60 -1 0.50 -0.55 1.20 -1 1.60 -1 0.35 0 0.65 -0.30 0.65 -0.65 0 -0.75 2.05 -2.85 2.80 -2.85 0.85 0 1.70 -2 1.40 -3.25 -0.15 -0.70 -0.50 -1.25 -0.75 -1.25 -0.25 0 -0.45 -0.55 -0.45 -1.25 0 -1 -0.25 -1.25 -1.20 -1.25 -0.80 0 -1.30 -0.35 -1.45 -1.05 -0.15 -0.55 -0.75 -1.15 -1.30 -1.30 -0.60 -0.15 -1.05 -0.60 -1.05 -0.95 0 -0.40 -0.20 -0.70 -0.40 -0.70 -0.55 0 -1.60 -3.05 -1.60 -4.65 0 -1 -0.25 -1.35 -1 -1.35 -0.85 0 -1 -0.35 -1 -2 0 -1.95 0.05 -2 1.75 -2 1.40 0 1.75 0.20 1.75 1 0 0.60 0.35 1 0.80 1 0.45 0 1.30 0.60 1.85 1.40 0.60 0.75 1.95 2.30 2.95 3.40 1.05 1.15 1.90 2.45 1.90 2.90 0 0.55 0.45 0.80 1.45 0.80 1.10 0 1.95 0.55 3.55 2.40 2.10 2.35 2.10 2.40 1.80 5.30 -0.15 1.60 -0.55 3.20 -0.80 3.55 -0.55 0.70 -0.15 2.25 0.55 2.25 0.25 0 0.45 -0.55 0.45 -1.25 0 -1 0.25 -1.25 1.25 -1.25 1.10 0 1.20 -0.10 0.75 -1.30 -0.30 -0.70 -0.50 -1.95 -0.50 -2.75 0 -1.35 0.15 -1.45 1.80 -1.45 1.60 0 1.85 0.20 2.55 2 0.55 1.35 1.10 2 1.75 2 0.50 0 0.90 0.25 0.90 0.55 0 0.30 0.60 0.45 1.40 0.35 1.10 -0.10 1.40 -0.40 1.50 -1.75 0.15 -1.45 0.35 -1.65 1.65 -1.65 1.20 0 1.45 -0.20 1.45 -1.25 0 -0.70 0.20 -1.25 0.40 -1.25 0.60 0 5.30 5.05 6.80 7.25 1.35 2.10 1.65 3.05 0.75 2.45 -0.35 -0.20 -0.35 0.10 0.05 0.85 0.85 1.60 1.25 1.95 0.80 0.70 -0.25 -0.65 -0.20 -0.85 0.15 -0.50 0.25 0.30 0.55 1.20 0.65 2 0.15 1.40 0 1.55 -1.85 1.95 -1.10 0.20 -2.60 0.75 -3.40 1.15 -1.30 0.70 -1.35 0.65 -1.85 -0.60 -0.30 -0.70 -0.50 -1.65 -0.50 -2.05 0 -0.90 -2.45 -5.60 -3.10 -6 -0.35 -0.20 -0.40 0.85 -0.15 3.20 0.40 4 0 6.60 -1 6.60 -0.55 0 -0.55 0.35 0.10 1.90 0.60 1.55 0.65 2.35 0.15 4 -0.30 1.15 -0.80 2.10 -1.10 2.10 -0.30 0 -1 0.40 -1.55 0.90 -1 0.85 -1 0.80 -0.60 -0.40 0.25 -0.70 0.45 -3.15 0.55 -5.50 0.05 -2.35 0.25 -5.50 0.35 -7 l0.25 -2.75 -0.50 2.40 c-0.30 1.30 -0.70 2.35 -0.90 2.35 -0.15 0 -0.85 -1.45 -1.50 -3.25 -0.70 -1.85 -1.30 -3.05 -1.40 -2.80 -0.10 0.30 0.45 2.05 1.15 3.90 1.80 4.50 2.25 10.20 1 12.90 -1.10 2.25 -5.45 7.05 -8.10 8.90 l-1.90 1.35 -3 -1.25 c-3.20 -1.30 -7.90 -1.70 -8.55 -0.70 -0.25 0.45 0.35 0.50 2.20 0.25 2.55 -0.35 6.10 0.60 6.10 1.55 0 0.25 -1.05 1.45 -2.35 2.75 -2.35 2.25 -2.95 2.50 -8.90 3.65 -0.55 0.10 -1.60 -0.20 -2.35 -0.65z m26.15 -19.60 c0.25 0 0.45 -0.35 0.45 -0.75 0 -0.40 -0.20 -0.75 -0.45 -0.75 -0.30 0 -0.60 -0.75 -0.70 -1.60 -0.10 -0.90 -0.20 -0.05 -0.20 1.85 0 1.95 0.10 3 0.20 2.40 0.10 -0.65 0.45 -1.15 0.70 -1.15z m-3.15 -7.50 c0.90 0 1.10 -0.30 1.10 -1.45 0 -0.85 -0.20 -1.65 -0.50 -1.80 -0.25 -0.15 -0.50 0.15 -0.50 0.70 0 0.85 -0.30 1.05 -1.75 1.05 -1.45 0 -1.75 0.20 -1.75 1.05 0 0.85 0.20 1 1.15 0.75 0.60 -0.15 1.60 -0.30 2.25 -0.30z m17.10 -2.75 c0 -0.40 -0.35 -0.75 -0.75 -0.75 -0.45 0 -0.60 0.30 -0.45 0.75 0.20 0.40 0.50 0.75 0.75 0.75 0.25 0 0.45 -0.35 0.45 -0.75z m-2.35 -3.10 c-0.35 -0.10 -0.65 -0.55 -0.65 -0.95 0 -0.40 -0.20 -0.70 -0.50 -0.70 -0.55 0 -0.70 1.15 -0.15 1.65 0.15 0.20 0.65 0.35 1.10 0.30 0.50 0 0.60 -0.10 0.20 -0.30z m-1.65 -2.85 c0 -0.35 -0.45 -0.80 -1 -0.95 -0.95 -0.25 -1.40 0.60 -0.65 1.30 0.55 0.60 1.65 0.35 1.65 -0.35z m-49.70 -9.70 c-0.55 -0.50 -0.75 0.20 -0.40 1.40 l0.35 1.25 0.15 -1.15 c0.10 -0.65 0.05 -1.30 -0.10 -1.50z m-2.80 -8.35 c0 -0.40 -0.35 -0.75 -0.75 -0.75 -0.40 0 -0.75 0.35 -0.75 0.75 0 0.40 0.35 0.75 0.75 0.75 0.40 0 0.75 -0.35 0.75 -0.75z"/>
  <path d="M33.40 65 c-2.30 -2.30 -4.25 -6.40 -4.75 -10.15 -0.25 -1.60 -0.15 -1.80 0.55 -1.55 0.45 0.15 0.80 0.60 0.80 1 0 0.95 1.90 4.85 4.20 8.55 2.50 4.05 2.15 5.10 -0.80 2.15z"/>
  <path d="M33.60 60.30 c-0.85 -1.20 -1.70 -2.90 -1.85 -3.80 -0.15 -0.90 -0.40 -1.85 -0.60 -2.10 -0.30 -0.50 4.35 0 4.95 0.55 0.45 0.35 0.60 2.50 0.50 5.45 -0.15 2.75 -1 2.70 -3 -0.10z"/>
  <path d="M30 51 c-0.70 -0.55 -1.50 -1 -1.80 -1 -0.30 0 -0.85 -0.35 -1.25 -0.80 -0.50 -0.65 -0.50 -0.85 0.10 -1.25 0.95 -0.65 3.90 -0.15 4.65 0.75 0.30 0.40 1.15 0.80 1.85 0.90 1.15 0.15 1.25 0.30 0.90 1.30 -0.55 1.40 -2.70 1.45 -4.45 0.10z"/>
  <path d="M47.30 46.15 c-0.35 -0.90 -0.40 -0.85 2.60 -3.35 2.60 -2.15 3.10 -2.20 3.10 -0.55 0 0.90 0.25 1.25 1 1.25 0.75 0 1 -0.35 1 -1.25 0 -0.90 0.25 -1.25 1 -1.25 1.55 0 1.25 1.60 -0.60 3.35 -2.25 2.10 -3.50 2.65 -5.80 2.65 -1.40 0 -2.10 -0.25 -2.30 -0.85z m4.50 -1.90 c0.90 -0.70 0.90 -0.70 -0.40 -0.75 -0.90 0 -1.40 0.25 -1.40 0.75 0 0.95 0.55 0.95 1.80 0z"/>
  <path d="M72.40 25.60 c-0.65 -0.75 -2 -1.95 -3 -2.60 -1.05 -0.70 -1.90 -1.55 -1.90 -1.85 0 -0.35 -0.40 -0.65 -0.95 -0.65 -0.75 0 -1.05 -0.65 -1.60 -3 -0.40 -1.75 -0.90 -3 -1.30 -3 -0.35 0 -0.75 -0.55 -0.95 -1.20 -0.15 -0.70 -0.60 -1.35 -1 -1.50 -0.85 -0.35 -1 -4 -0.15 -3.70 0.90 0.30 4.80 7 5.40 9.30 0.45 1.65 0.85 2.15 2.25 2.60 1.65 0.55 7.80 5.70 7.80 6.55 0 0.25 -0.75 0.45 -1.70 0.45 -1.30 0 -2.05 -0.35 -2.90 -1.40z"/>
  <path d="M23.95 6.85 c0.70 -0.90 2.55 -2.10 2.55 -1.65 0 0.15 -0.75 0.75 -1.60 1.35 -1.20 0.85 -1.45 0.90 -0.95 0.30z"/>
  <path d="M56 5.50 c-0.70 -0.55 -1.55 -1 -1.85 -1 -0.35 0 -0.65 -0.20 -0.65 -0.50 0 -0.25 -0.35 -0.50 -0.75 -0.50 -0.45 0 -0.75 -0.45 -0.75 -1.05 0 -1.15 -0.15 -1.15 4.15 -0.05 2.10 0.55 4.35 2.35 4.35 3.45 0 1 -3.05 0.80 -4.50 -0.35z"/>
  <path d="M44 3.80 c0 -1.55 0.15 -1.70 1.90 -2 1 -0.15 2.50 -0.30 3.25 -0.30 1.25 0 1.40 0.15 1.25 1.40 -0.10 1.05 -0.45 1.40 -1.50 1.50 -0.80 0.10 -1.40 0.40 -1.40 0.65 0 0.25 -0.80 0.45 -1.75 0.45 -1.65 0 -1.75 -0.10 -1.75 -1.70z"/>
  <path d="M29.50 3.70 c0 -0.35 4.60 -2.25 5.05 -2.10 0.25 0.10 -0.80 0.65 -2.30 1.25 -1.50 0.55 -2.75 0.95 -2.75 0.85z"/>
 </g>
 <g fill="#573139">
  <path d="M0.05 94.90 c0.05 -3.35 0.20 -4.70 0.45 -3.90 0.60 1.85 0.60 9 0 9 -0.30 0 -0.50 -2 -0.45 -5.10z"/>
  <path d="M56 99.60 c0 -0.20 -0.75 -0.60 -1.60 -0.85 l-1.65 -0.50 -0.30 -4.75 -0.25 -4.75 -0.10 4.55 -0.10 4.55 -1.50 0 -1.50 0 0 -4.45 c0 -2.40 -0.20 -4.40 -0.40 -4.40 -0.25 0 -0.35 0.70 -0.20 1.50 0.10 0.85 0.05 2.75 -0.15 4.30 -0.25 2.20 -0.50 2.75 -1.15 2.60 -0.60 -0.10 -0.95 -0.85 -1.15 -2.40 l-0.30 -2.25 -0.05 1.95 -0.10 1.90 -1.85 -0.30 c-3.50 -0.65 -3.50 -0.65 -3.90 -3.55 -0.15 -1.50 -0.50 -2.75 -0.70 -2.75 -0.25 0 -0.25 0.95 -0.05 2.10 0.45 2.45 0.30 2.90 -1 2.90 -0.70 0 -1.05 -0.50 -1.30 -1.70 -0.15 -0.95 -0.15 -2 0.10 -2.35 0.20 -0.40 0.15 -0.50 -0.20 -0.25 -0.35 0.20 -0.60 1 -0.60 1.85 0 1.10 -0.25 1.45 -1 1.45 -0.55 0 -1 -0.20 -1 -0.40 0 -0.25 -0.60 -0.35 -1.35 -0.25 -2.35 0.30 -2.75 -0.35 -3 -5.15 -0.15 -2.45 -0.35 -4.55 -0.45 -4.65 -0.10 -0.10 -0.20 1.85 -0.20 4.40 l0 4.55 -1.15 -0.75 c-1.95 -1.25 -2.45 -2.90 -1.55 -5.05 1.85 -4.45 5.55 -7.55 15.45 -13 3.90 -2.10 14.50 -4.55 20.75 -4.75 l5.25 -0.20 0.25 2 c0.20 1.10 0.60 2.50 0.90 3.15 0.55 0.90 0.50 1.10 -0.15 1.10 -0.40 0 -0.75 -0.25 -0.75 -0.50 0 -0.30 -0.40 -0.70 -0.85 -0.85 -0.50 -0.20 -1.75 -0.85 -2.75 -1.50 -3.10 -1.90 -6 -1.60 -11.55 1.15 -2.50 1.30 -5.40 2.95 -6.40 3.75 -1 0.80 -1.95 1.45 -2.15 1.45 -0.15 0 -1.50 1.15 -2.95 2.50 -2.50 2.35 -5.40 6.65 -4.85 7.20 0.15 0.10 1.40 0 2.75 -0.20 3.35 -0.60 22.20 -1.40 26.10 -1.15 2.90 0.20 3.30 0.10 6.25 -1.70 2.85 -1.75 3 -1.90 1.75 -2.05 -0.75 -0.10 -1.35 -0.50 -1.35 -0.90 0 -0.40 -0.20 -0.70 -0.50 -0.70 -0.25 0 -0.50 -0.80 -0.50 -1.75 0 -0.95 0.25 -1.75 0.50 -1.75 0.30 0 0.50 0.20 0.50 0.45 0 0.25 1.05 1.60 2.30 3 1.25 1.40 2.20 2.70 2.05 2.90 -0.10 0.25 -0.05 1.55 0.15 2.90 l0.35 2.50 0.10 -2.60 c0.05 -2.75 0.30 -3.05 1.70 -2 0.65 0.50 0.75 0.95 0.40 2.50 -0.65 2.70 -1.70 4.10 -4.15 5.30 -1.20 0.60 -2.50 1.30 -2.90 1.50 -2.60 1.40 -3.95 1.95 -5.35 2.30 -0.90 0.15 -1.75 0.55 -1.90 0.80 -0.20 0.25 -0.80 0.45 -1.45 0.45 -0.60 0 -1.60 0.45 -2.20 1 -2.10 2 -2.20 1.75 -2.20 -7.75 0 -2.40 -0.05 -2.70 -0.35 -1.50 -0.25 0.85 -0.30 3.45 -0.20 5.90 l0.20 4.35 -1.30 0 c-0.70 0 -1.25 -0.20 -1.25 -0.40z m5.10 -7.20 c0.10 -2.15 0 -3.90 -0.15 -3.90 -0.65 0 -0.95 3.25 -0.60 6.45 0.40 3.65 0.55 3.20 0.75 -2.55z m-5.45 -0.30 c-0.25 -2.40 -0.45 -3.10 -1.10 -3.05 -0.50 0 -0.60 0.10 -0.15 0.30 0.30 0.10 0.60 1.05 0.60 2.05 0 1.85 0.50 4.30 0.80 4 0.05 -0.10 0 -1.55 -0.15 -3.30z m-21.85 -2.05 c0.05 -1.85 -0.10 -2.40 -0.65 -2.20 -0.75 0.30 -0.80 0.80 -0.35 3.10 0.50 2.30 0.95 1.90 1 -0.90z m12.85 -0.65 c0.40 -0.25 0.20 -0.40 -0.40 -0.40 -0.90 0 -1 0.25 -0.80 1.90 0.25 1.80 0.30 1.80 0.45 0.35 0.10 -0.80 0.45 -1.65 0.75 -1.85z m26.90 0.05 c-0.35 -2.20 -0.45 -2.35 -0.50 -0.95 -0.05 1.80 0.45 4.20 0.75 3.85 0.15 -0.10 0 -1.40 -0.25 -2.90z m-22.75 -0.35 c-0.55 -0.50 -0.70 0.15 -0.40 1.65 l0.35 1.50 0.15 -1.40 c0.10 -0.80 0.05 -1.55 -0.10 -1.75z m-16.95 -8.45 c-0.10 -0.80 -0.20 -0.15 -0.20 1.35 0 1.50 0.10 2.15 0.20 1.40 0.10 -0.80 0.10 -2 0 -2.75z m9.65 -4.45 c0 -0.15 -0.65 0.20 -1.50 0.80 -0.80 0.60 -1.50 1.20 -1.50 1.30 0 0.15 0.70 -0.20 1.50 -0.80 0.85 -0.60 1.50 -1.20 1.50 -1.30z"/>
  <path d="M15.20 83.55 c0.45 -2.85 1.55 -4.40 3.45 -4.85 0.90 -0.15 1.85 -0.50 2.10 -0.70 0.30 -0.20 1.10 -0.50 1.90 -0.70 1.15 -0.25 1.35 -0.15 1.40 0.80 0.05 1.10 0.05 1.10 0.40 -0.10 0.25 -0.95 0.80 -1.30 2.45 -1.60 1.15 -0.20 2.35 -0.50 2.60 -0.65 0.30 -0.15 0.50 0.05 0.50 0.45 0 0.45 0.25 0.80 0.50 0.80 0.30 0 0.50 -0.40 0.50 -0.85 0 -0.75 0.50 -0.90 2.50 -1 2.85 -0.05 3.15 0.40 1 1.70 -0.80 0.45 -1.50 1 -1.50 1.20 0 0.20 -1.20 1.10 -2.60 2 -1.45 0.90 -3.45 2.30 -4.45 3.05 -1 0.75 -2.40 1.40 -3.05 1.40 -0.65 0 -1.45 0.25 -1.80 0.60 -0.70 0.70 -1.40 0.15 -1.75 -1.35 -0.20 -0.75 -0.25 -0.65 -0.30 0.40 -0.05 1 -0.30 1.35 -1.05 1.35 -0.85 0 -1 -0.35 -1.10 -2.35 l-0.05 -2.40 -0.30 2.20 c-0.15 1.25 -0.60 2.30 -1 2.45 -0.55 0.20 -0.65 -0.20 -0.35 -1.85z"/>
  <path d="M97.25 79.50 c-0.75 -0.85 -0.85 -1.60 -0.65 -5.10 0.15 -2.30 0.15 -4.80 -0.05 -5.65 -0.20 -0.85 -0.35 0.80 -0.40 3.95 -0.05 2.95 -0.25 5.55 -0.40 5.70 -0.15 0.20 -0.70 0.05 -1.15 -0.25 -0.75 -0.45 -0.80 -1.25 -0.65 -5.60 0.10 -2.75 -0.05 -5.05 -0.25 -5.05 -0.25 0 -0.50 2.15 -0.55 4.80 -0.05 2.65 -0.20 4.95 -0.35 5.05 -0.10 0.15 -0.70 0 -1.25 -0.35 -0.90 -0.45 -1.05 -1.05 -1.15 -4.15 l-0.10 -3.60 -0.15 3.40 c-0.20 3.45 -0.35 3.70 -1.65 2.85 -0.60 -0.35 -0.75 -1.70 -0.75 -6.70 0 -4.45 -0.20 -6.45 -0.65 -6.90 -0.55 -0.55 -0.55 -0.40 -0.15 0.75 0.35 0.85 0.40 2.10 0.15 3.25 -0.25 1 -0.30 3.40 -0.20 5.35 l0.25 3.45 -1.20 -0.80 c-1.15 -0.70 -1.25 -1.20 -1.60 -7.45 -0.25 -3.70 -0.45 -7.45 -0.50 -8.35 -0.05 -1.20 -0.15 -1.45 -0.50 -0.80 -0.25 0.45 -0.20 2.05 0.10 3.90 0.65 3.70 0.75 11.30 0.15 11.30 -0.25 0 -0.80 -0.40 -1.25 -0.90 -0.65 -0.70 -0.85 -2.05 -0.95 -5.65 l-0.10 -4.70 -0.15 4.40 c-0.10 2.65 -0.40 4.25 -0.65 4.10 -0.30 -0.20 -0.50 -1.05 -0.50 -1.95 0 -0.90 -0.15 -1.80 -0.30 -1.95 -0.20 -0.20 -0.30 -2.30 -0.25 -4.70 0.10 -3.50 0.35 -4.95 1.35 -7 0.65 -1.40 1.20 -2.80 1.20 -3.05 0 -0.25 0.50 -0.80 1.15 -1.25 0.65 -0.40 1.55 -1.65 2.05 -2.70 1.20 -2.65 2.70 -3.45 8.45 -4.35 6.55 -1.05 6.35 -1.10 6.35 0.85 0 1.50 -0.20 1.75 -1.90 2.25 -1.80 0.55 -7.10 4.65 -8.40 6.55 -0.30 0.45 -0.95 1.90 -1.40 3.20 -0.80 2.35 -0.80 2.50 0.25 4.15 0.55 0.95 1.30 1.70 1.60 1.70 0.30 0 0.90 0.35 1.35 0.75 0.45 0.40 2.50 1.60 4.55 2.65 l3.70 1.95 0.15 3.90 c0.15 3.40 0.05 3.85 -0.65 3.55 -0.65 -0.25 -0.75 -0.10 -0.45 0.85 0.20 0.60 0.30 1.85 0.25 2.75 -0.05 0.85 0.15 1.60 0.45 1.60 0.25 0 0.50 0.25 0.50 0.50 0 0.85 -1.80 0.55 -2.75 -0.50z m-6.75 -13.70 c0 -0.65 -0.30 -1.40 -0.65 -1.70 -0.50 -0.45 -0.60 -0.20 -0.45 1.15 0.25 1.95 1.10 2.40 1.10 0.55z m-2.65 -18.90 c-0.10 -0.65 -0.20 -0.15 -0.20 1.10 0 1.25 0.10 1.75 0.20 1.15 0.10 -0.65 0.10 -1.65 0 -2.25z m2.65 -0.75 c0 -1.30 -0.10 -2.20 -0.20 -2.10 -0.40 0.45 -0.65 4.90 -0.25 4.65 0.25 -0.15 0.45 -1.30 0.45 -2.55z"/>
  <path d="M0 73 c0 -4.10 0.15 -5 0.75 -5 0.40 0 0.75 -0.30 0.75 -0.65 0 -1.75 7.70 -7.55 12 -9.05 3.20 -1.10 3.45 -1.05 3.05 0.85 -0.35 1.65 -1.75 2.45 -5.70 3.15 -2.60 0.45 -7.65 3.55 -8.80 5.40 -0.85 1.35 -1.05 2.50 -1.05 6 0 2.55 -0.20 4.30 -0.50 4.30 -0.30 0 -0.50 -2 -0.50 -5z"/>
  <path d="M2.15 71.50 c0 -1.25 0.10 -1.75 0.20 -1.10 0.10 0.60 0.10 1.60 0 2.25 -0.10 0.60 -0.20 0.10 -0.20 -1.15z"/>
  <path d="M69.30 72.75 c-0.15 -0.45 -0.25 -1.55 -0.25 -2.40 0.05 -1.35 0.15 -1.20 0.45 0.65 0.40 2.40 0.30 3.05 -0.20 1.75z"/>
  <path d="M45.05 69.55 c-1.30 -1 -1.10 -1.25 1.40 -1.80 0.90 -0.20 2.60 -0.75 3.75 -1.25 1.10 -0.45 2.45 -1 2.95 -1.20 0.75 -0.25 0.80 -0.45 0.30 -1.40 -0.40 -0.75 -0.70 -0.90 -0.85 -0.50 -0.45 1.40 -8.15 4.10 -9.85 3.40 -1.10 -0.40 -0.90 -1.80 0.25 -1.80 0.55 0 2.40 -0.55 4.15 -1.25 6.20 -2.55 13.35 -1.15 9.95 1.90 -1.25 1.15 -1.50 1.05 -1.75 -0.50 -0.15 -1.20 -0.20 -1.15 -0.30 0.35 -0.10 2.45 -0.50 2.90 -3.35 3.70 -4.40 1.25 -5.40 1.30 -6.65 0.35z"/>
  <path d="M78.60 62.50 c0 -0.95 0.10 -1.35 0.25 -0.85 0.10 0.45 0.10 1.25 0 1.75 -0.15 0.45 -0.25 0.05 -0.25 -0.90z"/>
  <path d="M45.50 63.15 c0.05 -0.25 0.35 -0.95 0.75 -1.65 1.05 -1.90 0.90 -2.85 -0.50 -3.10 -0.70 -0.15 -1.40 -0.05 -1.60 0.25 -0.15 0.30 -0.05 0.35 0.25 0.15 1.05 -0.65 0.65 0.50 -0.60 1.65 -2.60 2.45 -3.80 0.25 -3.80 -6.75 0 -2.10 0.15 -2.70 0.75 -2.70 0.45 0 0.90 0.35 1.05 0.75 0.40 1 4.35 1 5.15 0.05 0.35 -0.40 1.35 -0.90 2.20 -1.05 4.55 -1 8.55 -5.45 9.85 -11.05 0.35 -1.60 0.75 -2.55 0.90 -2.05 0.35 1.65 0.90 0.45 0.70 -1.60 -0.10 -1.15 -0.40 -1.95 -0.60 -1.80 -0.60 0.35 -1.15 -0.65 -0.75 -1.25 0.25 -0.40 0.55 -0.35 1.05 0.05 0.75 0.60 0.85 0.45 1.40 -2.15 0.25 -1.05 -0.10 -1.75 -2 -3.75 -2.10 -2.15 -2.10 -2.15 -0.45 -0.20 1.30 1.55 1.75 2.45 1.55 3.25 -0.15 0.55 -0.30 1.20 -0.30 1.45 0 1 -0.90 0.15 -1.45 -1.50 -0.40 -1.20 -2.10 -3.25 -4.45 -5.50 -2.70 -2.60 -3.65 -3.90 -3.50 -4.55 0.20 -0.65 -0.50 -1.75 -1.95 -3.40 -2.55 -2.80 -2.55 -2.80 0.10 2.50 1.30 2.65 2.65 4.50 4.15 5.75 2.50 2.05 4.60 5.30 4.60 7.10 0 0.85 -1.20 2.30 -4.35 5.20 -2.40 2.20 -4.55 3.95 -4.80 3.85 -0.20 -0.05 -1.20 0.50 -2.15 1.25 -0.95 0.70 -2.80 1.45 -4 1.65 -2.10 0.30 -2.30 0.25 -2.75 -0.80 -0.55 -1.50 -0.95 -1.55 -0.60 -0.15 0.25 0.90 0.10 1 -1.15 0.85 l-1.45 -0.15 0.15 -10.80 c0.05 -5.90 -0.05 -11.25 -0.25 -11.85 -0.20 -0.55 -0.45 4.25 -0.50 10.75 -0.05 6.50 -0.20 11.90 -0.35 12 -0.10 0.15 -0.70 0 -1.25 -0.35 -1 -0.50 -1.05 -0.95 -1.05 -7.05 0 -3.75 -0.20 -6.40 -0.45 -6.25 -0.25 0.20 -0.35 2.95 -0.20 6.40 0.30 5.60 0.25 6.05 -0.55 5.75 -0.50 -0.20 -1 -0.35 -1.10 -0.35 -0.10 0 -0.20 -1.85 -0.20 -4.10 0 -4.80 -0.95 -9.55 -2.50 -13.15 -0.65 -1.40 -1.10 -3.50 -1.10 -4.75 0 -1.80 -0.05 -2 -0.40 -1 l-0.35 1.25 -0.60 -1.50 c-1.55 -3.75 -1.20 -5.15 2.15 -9 1.55 -1.80 1.70 -1.90 1.45 -0.70 -0.10 0.70 0 2.05 0.25 3 0.45 1.55 0.50 1.40 0.55 -1.65 0.05 -3.35 0.75 -4.90 2.30 -4.90 0.60 0 0.70 1.95 0.60 11.30 -0.05 6.50 0.05 10.45 0.30 9.40 0.20 -1.05 0.30 -6.70 0.25 -12.55 -0.15 -11.10 -0.15 -11.15 1.95 -11.15 0.50 0 0.70 0.30 0.50 1 -0.15 0.55 -0.05 1.10 0.15 1.25 0.25 0.15 0.50 -0.45 0.60 -1.35 l0.15 -1.65 8.65 0 c6.75 0 8.75 0.15 9.05 0.70 0.25 0.40 0.80 0.55 1.45 0.35 1.35 -0.45 3.65 1.65 5.25 4.70 0.65 1.25 1.80 3.25 2.60 4.50 0.80 1.25 1.85 3.30 2.30 4.60 0.60 1.80 1.35 2.80 3 3.95 1.20 0.85 3.10 2.40 4.15 3.40 1.05 1 1.75 1.45 1.55 1.05 -0.20 -0.40 1 0.60 2.70 2.25 3 2.95 3.90 4 2.20 2.70 -0.50 -0.35 -0.25 0.05 0.55 0.95 1.60 1.70 2.35 2.15 1.25 0.75 -0.55 -0.75 -0.50 -0.70 0.45 0.05 1.15 1 1.50 1.60 0.60 1.05 -0.25 -0.15 -0.50 -0.20 -0.50 -0.05 0 0.50 3.15 5.30 3.40 5.10 0.10 -0.15 -0.30 -1.05 -0.90 -2 -0.60 -1 -0.95 -1.80 -0.85 -1.80 0.70 0 2.35 3.50 2 4.30 -0.20 0.60 -0.15 0.75 0.25 0.50 0.40 -0.20 0.50 -0.10 0.30 0.40 -0.15 0.40 -0.05 1.20 0.30 1.75 0.60 1.15 0.60 1.10 -2.15 1.30 -0.75 0.05 -1.65 0.35 -2 0.70 -0.30 0.30 -0.70 0.55 -0.95 0.55 -0.60 0 -1.90 -2.85 -1.90 -4.20 0 -0.70 -0.35 -1.45 -0.80 -1.70 -0.45 -0.25 -1.20 -1.65 -1.65 -3.10 l-0.90 -2.70 -0.30 2.40 c-0.20 1.30 -0.20 2.95 -0.05 3.60 0.45 1.75 -0.15 3.70 -1.20 3.70 -0.50 0 -0.65 0.15 -0.30 0.40 0.30 0.20 0.85 1.85 1.20 3.75 0.65 3.50 0.35 4.55 -1.80 6.75 -1 1 -1.10 0.75 -0.45 -1.75 0.35 -1.35 0.50 -2.50 0.30 -2.65 -0.45 -0.35 -0.75 -1.60 -0.60 -2.75 0.05 -0.55 0.15 -3 0.25 -5.50 l0.20 -4.50 -0.50 3.65 c-0.30 1.95 -0.70 3.60 -0.85 3.60 -0.60 0 -2.15 -5 -1.90 -5.95 0.10 -0.50 0 -1.25 -0.25 -1.60 -0.40 -0.55 -0.45 -0.50 -0.20 0.15 0.15 0.50 -0.05 1.05 -0.45 1.25 -0.60 0.35 -0.50 0.90 0.55 3.50 2.85 7.10 2.80 11.80 -0.20 16.15 l-1.85 2.70 -0.30 -3.20 -0.30 -3.25 -0.05 3.30 c-0.10 3.55 -0.40 4.15 -3.30 6.40 -2.95 2.35 -3.20 2.15 -2.90 -2.25 0.15 -2.25 0.05 -3.75 -0.20 -3.55 -0.25 0.15 -0.55 1.70 -0.60 3.45 -0.20 3.55 -0.25 3.65 -1.35 3.20 -0.70 -0.25 -0.80 -1 -0.65 -4.55 0.10 -2.80 0 -4.05 -0.35 -3.70 -0.25 0.30 -0.45 2.15 -0.40 4.20 l0.05 3.65 -1.55 -0.65 c-2.05 -0.85 -4.65 -0.60 -7.60 0.70 -2.55 1.10 -3.25 1.25 -3.25 0.70z m19.35 -7.50 c-0.10 -1.05 -0.20 -0.30 -0.20 1.60 0 1.95 0.10 2.75 0.20 1.90 0.10 -0.90 0.10 -2.50 0 -3.50z m-11.55 3.85 l2.70 0 0 -2.55 c0 -1.70 0.50 -3.65 1.45 -5.85 2.15 -5.05 2.45 -6.25 0.85 -3.95 -0.75 1 -1.65 1.85 -2.05 1.85 -0.40 0 -0.75 0.35 -0.75 0.75 0 0.40 -0.35 0.75 -0.75 0.75 -0.40 0 -0.75 0.25 -0.75 0.50 0 0.30 -0.55 0.50 -1.25 0.50 -0.70 0 -1.25 0.20 -1.25 0.45 0 0.25 -0.45 0.55 -1 0.70 -0.75 0.20 -1 0.70 -1 2.05 0 1.15 -0.30 1.95 -0.85 2.25 -0.50 0.30 -0.60 0.55 -0.25 0.55 0.30 0 0.60 0.60 0.60 1.30 0 1 0.20 1.25 0.80 1 0.45 -0.15 2 -0.30 3.50 -0.30z m15.05 -12.10 c-0.10 -0.90 -0.20 -0.30 -0.20 1.35 0 1.65 0.10 2.40 0.20 1.65 0.10 -0.75 0.10 -2.10 0 -3z m-5.40 -2.75 c-0.05 -2.15 -0.20 -3.40 -0.35 -2.75 -0.35 1.15 -0.15 6.60 0.20 6.60 0.10 0 0.20 -1.75 0.15 -3.85z m2.90 0.50 c-0.15 -0.50 -0.25 -0.10 -0.25 0.85 0 0.95 0.10 1.35 0.25 0.90 0.10 -0.50 0.10 -1.30 0 -1.75z m-19.35 -5.55 c3.95 -2.50 7.95 -6.50 8.30 -8.40 0.25 -1.25 0 -1.80 -1.25 -3.05 -0.80 -0.85 -1.85 -1.65 -2.30 -1.85 -0.50 -0.15 -0.95 -0.75 -1.10 -1.30 -0.15 -0.55 -0.50 -1 -0.75 -1 -0.30 0 -0.40 -0.90 -0.30 -2 0.15 -1.75 0.05 -2 -0.90 -2 -0.75 0 -1.30 -0.50 -1.75 -1.60 -0.35 -0.90 -0.95 -1.85 -1.30 -2.05 -0.35 -0.20 -0.65 -1.30 -0.65 -2.35 0 -1.90 0.10 -2 1.55 -2 1.65 0 4.45 1.70 4.45 2.65 0 0.35 0.45 0.90 1 1.25 0.55 0.35 1 0.80 1 1.10 0 0.60 5.15 5.45 7.05 6.60 0.80 0.50 2.20 1.90 3.05 3.15 1.45 2.10 1.75 2.25 3.75 2.25 1.80 0 2.40 0.25 3.65 1.65 1.40 1.50 1.45 1.55 1.50 0.50 0 -1.05 0.25 -1.15 2.55 -1.15 l2.50 0 -1.65 -2 c-0.90 -1.10 -1.85 -2 -2.10 -2 -0.75 0 -2.80 -2.10 -2.80 -2.85 0 -0.35 -0.45 -0.65 -1 -0.65 -0.55 0 -1 -0.20 -1 -0.50 0 -0.25 -0.35 -0.50 -0.75 -0.50 -0.45 0 -0.75 -0.45 -0.75 -1.25 0 -0.75 -0.30 -1.25 -0.75 -1.25 -1.05 0 -1.75 -1.60 -1.75 -3.95 0 -1.55 -0.20 -2.05 -0.80 -2.05 -0.90 0 -2.70 -1.80 -2.70 -2.70 0 -0.30 -0.40 -0.95 -0.85 -1.40 -0.50 -0.40 -1.40 -1.45 -2 -2.20 -1.25 -1.70 -5.95 -3.10 -7.50 -2.25 -0.50 0.30 -2.45 1.20 -4.40 2.10 -1.90 0.85 -4.65 2.10 -6.05 2.75 -1.40 0.65 -2.80 1.20 -3.10 1.20 -1.20 0 1.20 8.55 3.30 11.70 3.70 5.50 4 8.75 1.40 13.90 l-1.70 3.35 1.60 1.25 c0.85 0.65 1.80 1.05 2.05 0.90 0.30 -0.15 1.75 -1.05 3.25 -2z m35.70 1.30 c-0.15 -0.65 -0.55 -1.50 -0.80 -1.90 -0.40 -0.60 -0.40 -0.55 -0.20 0.15 0.15 0.50 0.30 1.35 0.30 1.90 0 0.50 0.25 0.95 0.55 0.95 0.30 0 0.40 -0.45 0.15 -1.10z m-42.20 -10.65 c0 -1.90 -0.20 -3.75 -0.40 -4.10 -0.20 -0.30 -0.35 1.55 -0.35 4.10 0 2.55 0.15 4.40 0.35 4.10 0.20 -0.35 0.40 -2.15 0.40 -4.10z m27.90 2.25 c-0.45 -1.35 -1.40 -2.50 -1.40 -1.75 0 0.45 1.50 3.25 1.75 3.25 0.10 0 -0.05 -0.70 -0.35 -1.50z m-12.90 -9.15 c0 -0.10 -0.85 -0.95 -1.85 -1.90 l-1.90 -1.70 1.70 1.90 c1.65 1.70 2.05 2.10 2.05 1.70z m-24.45 -5.85 c-0.35 -3.35 -0.45 -3.50 -0.50 -1.25 -0.05 2.65 0.55 7 0.80 5.75 0.10 -0.40 -0.05 -2.45 -0.30 -4.50z m9.15 -13.20 c0.25 -1.65 0.20 -2.30 -0.15 -2.05 -0.30 0.15 -0.55 1.35 -0.55 2.60 0 2.85 0.25 2.65 0.70 -0.55z m18.55 -0.30 c-0.50 -0.55 -1.15 -1 -1.45 -1 -0.30 0 0 0.45 0.70 1 1.60 1.25 1.90 1.25 0.75 0z"/>
  <path d="M35.50 61.75 c0 -0.25 -0.50 -1.05 -1.05 -1.75 -0.55 -0.70 -0.85 -0.90 -0.65 -0.50 0.20 0.40 0.15 0.60 -0.05 0.40 -0.25 -0.25 -0.80 -1.50 -1.30 -2.90 l-0.90 -2.50 1.35 0 c2.30 0 3.60 0.55 3.60 1.50 0 0.50 -0.30 1.05 -0.60 1.15 -0.50 0.20 -0.50 0.30 0 0.30 0.70 0.05 0.75 2.30 0.10 3.80 -0.25 0.55 -0.45 0.80 -0.50 0.50z"/>
  <path d="M7.80 59.95 c0.30 -0.55 4.20 -2.60 4.45 -2.35 0.10 0.10 -0.95 0.75 -2.30 1.45 -1.35 0.75 -2.30 1.15 -2.15 0.90z"/>
  <path d="M17.15 58.30 c0.20 -1.70 0.40 -2.05 1.25 -2 0.60 0 0.95 -0.15 0.85 -0.35 -0.40 -0.60 1.35 -0.80 5.10 -0.55 3.75 0.20 4.40 0.75 3.80 3.05 -0.20 0.85 -0.60 0.95 -3.10 0.75 -1.55 -0.10 -4.05 0.10 -5.45 0.50 l-2.65 0.65 0.20 -2.05z"/>
  <path d="M23.65 54.65 c0.75 -0.10 1.95 -0.10 2.75 0 0.75 0.10 0.10 0.20 -1.40 0.20 -1.50 0 -2.15 -0.10 -1.35 -0.20z"/>
  <path d="M32 51.30 c0 -1.50 0.65 -2.30 1.80 -2.30 1.40 0 1.40 0.05 0.60 1.75 -0.60 1.30 -2.40 1.75 -2.40 0.55z"/>
  <path d="M48.40 46.30 c-1.30 -1 -1.10 -1.30 0.85 -1.30 1.40 0 1.75 0.20 1.75 1 0 1.15 -1.30 1.30 -2.60 0.30z"/>
  <path d="M54.50 43.45 c0 -1.55 0.20 -1.85 1.25 -2.05 1.60 -0.35 1.65 0.60 0 2.45 l-1.20 1.40 -0.05 -1.80z"/>
  <path d="M50.25 42.70 c1.90 -1.70 2 -1.70 2.15 -0.70 0.30 1.90 -0.25 2.50 -2.25 2.50 l-1.90 -0.05 2 -1.75z"/>
  <path d="M90 41.80 c0 -0.10 0.90 -0.30 1.95 -0.40 1.10 -0.10 1.85 0 1.75 0.20 -0.25 0.40 -3.70 0.55 -3.70 0.20z"/>
  <path d="M17.05 18.40 c-0.05 -0.60 1.55 -4.45 1.75 -4.25 0.15 0.10 -0.20 1.20 -0.75 2.40 -0.55 1.20 -1 2.05 -1 1.85z"/>
 </g>
 <g fill="#1d4b74">
  <path d="M30 50.75 c-2.15 -1.45 -3.95 -2.90 -3.15 -2.55 0.30 0.20 0.65 0.05 0.75 -0.25 0.20 -0.60 6.30 0.25 7.05 1 0.60 0.60 -1.05 3.05 -2.10 3 -0.45 0 -1.60 -0.55 -2.55 -1.20z"/>
  <path d="M48.40 46.35 c-1.60 -0.60 -1.80 -1.25 -0.50 -1.65 2.55 -0.85 3.70 -1.40 3.15 -1.60 -0.45 -0.15 -0.35 -0.45 0.25 -1.15 0.60 -0.70 1.55 -0.95 3.30 -0.95 1.30 0 2.40 0.25 2.40 0.50 0 1.10 -1.75 3.10 -3.75 4.25 -2.25 1.35 -2.80 1.40 -4.85 0.60z"/>
 </g>
 <g fill="#643e4a">
  <path d="M34.80 89.75 c-0.60 -1.60 1.60 -7.75 2.80 -7.75 0.65 0 0.40 3.15 -0.35 4.50 -0.40 0.70 -0.70 1.40 -0.75 1.55 0 0.15 1.75 0 3.90 -0.35 5.55 -0.90 15.10 -0.90 15.10 0 0 0.90 -1.30 1.15 -7.25 1.25 -4.40 0.05 -8.45 0.50 -12.05 1.30 -0.70 0.15 -1.20 -0.05 -1.40 -0.50z"/>
  <path d="M68.40 88.75 c-0.15 -0.15 -2.90 -0.30 -6.10 -0.30 -5.45 -0.05 -5.80 -0.10 -5.80 -1.05 0 -0.95 0.30 -1 5.90 -0.85 6.40 0.15 7.55 -0.05 9.40 -1.80 1.10 -1.05 1.15 -1.20 0.45 -1.90 -0.40 -0.45 -0.75 -1 -0.75 -1.30 0 -0.30 -0.20 -0.55 -0.50 -0.55 -0.25 0 -0.60 -0.55 -0.80 -1.20 -0.15 -0.70 -0.60 -1.35 -1 -1.50 -0.40 -0.15 -0.70 -0.60 -0.70 -1.05 0 -0.40 -0.20 -0.75 -0.45 -0.75 -0.25 0 -0.75 -0.80 -1.10 -1.75 -0.35 -0.95 -0.95 -1.75 -1.25 -1.75 -0.35 0 -1 -0.35 -1.45 -0.80 -0.40 -0.45 -1.65 -0.90 -2.75 -1.05 -2.35 -0.35 -2.65 -1.45 -0.50 -1.90 1.05 -0.25 2.15 0 3.80 0.85 2.55 1.25 2.50 1.25 6.35 7.15 1.40 2.20 3.05 4.40 3.70 4.90 1.95 1.55 1.45 2.55 -2.25 4.80 -3.55 2.15 -3.75 2.20 -4.20 1.80z"/>
  <path d="M38.55 80.70 c2.50 -3 15.80 -11.20 18.20 -11.20 1.40 0 0.85 1.95 -0.60 2.30 -0.75 0.20 -1.70 0.65 -2.05 1.05 -0.35 0.35 -1.25 0.80 -2 1 -0.75 0.15 -1.45 0.45 -1.60 0.60 -0.70 0.85 -4.40 3.05 -5.15 3.05 -0.45 0 -0.85 0.35 -0.85 0.75 0 0.40 -0.45 0.75 -1 0.75 -0.55 0 -1 0.25 -1 0.55 0 1 -1.45 1.95 -3.05 1.95 -1.40 0 -1.50 -0.10 -0.90 -0.80z"/>
  <path d="M25 80.55 c0 -0.50 4 -3 4.55 -2.85 0.20 0 0.75 -0.30 1.25 -0.75 1.15 -0.95 4.25 -2.10 4.65 -1.65 0.30 0.30 -1.15 1.65 -4.65 4.25 -1.35 1 -2.55 1.45 -3.90 1.45 -1.05 0 -1.90 -0.20 -1.90 -0.45z"/>
  <path d="M0 76 c0 -0.80 0.25 -1.50 0.50 -1.50 0.30 0 0.50 0.70 0.50 1.50 0 0.85 -0.20 1.50 -0.50 1.50 -0.25 0 -0.50 -0.65 -0.50 -1.50z"/>
  <path d="M0 69 c0 -0.55 0.35 -1 0.75 -1 0.65 0 0.70 0.20 0.25 1 -0.30 0.55 -0.65 1 -0.75 1 -0.15 0 -0.25 -0.45 -0.25 -1z"/>
  <path d="M45.10 69.35 c-0.50 -0.60 0 -0.95 3.20 -2.05 4.20 -1.50 5.40 -1.50 5.60 -0.05 0.15 1.20 -1.60 1.95 -5.70 2.50 -1.90 0.25 -2.65 0.15 -3.10 -0.40z"/>
  <path d="M95.05 66.70 c-2.35 -1.20 -4.60 -2.50 -5 -2.90 -0.45 -0.35 -1.15 -0.75 -1.60 -0.95 -0.45 -0.15 -1.25 -1.20 -1.80 -2.35 -0.95 -1.85 -1 -2.30 -0.40 -4.40 0.90 -3.50 2.15 -5.95 3.55 -6.85 1.20 -0.75 1.20 -0.75 1.20 0.75 0 0.90 -0.30 1.65 -0.75 1.80 -0.40 0.20 -0.75 0.60 -0.75 0.95 0 0.35 -0.25 0.75 -0.55 0.85 -0.35 0.10 -0.60 1.45 -0.65 3.20 -0.05 3.10 0.75 4.70 2.35 4.70 0.40 0 1.10 0.45 1.60 1 0.50 0.55 1.20 1 1.60 1 0.40 0 1.05 0.35 1.45 0.75 0.45 0.40 1.20 0.75 1.75 0.75 0.55 0 1.10 0.35 1.25 0.75 0.20 0.40 0.60 0.75 1 0.75 0.40 0 0.70 0.50 0.70 1.25 0 0.70 -0.15 1.25 -0.35 1.20 -0.25 0 -2.30 -1 -4.60 -2.25z"/>
  <path d="M3.05 65.55 c1.60 -2.05 4.25 -4.15 6.95 -5.55 1.05 -0.55 1 -0.35 -0.50 1.20 -0.95 1.05 -2.55 2.35 -3.50 2.90 -0.95 0.60 -2.40 1.65 -3.20 2.35 -1.40 1.25 -1.35 1.20 0.25 -0.90z"/>
  <path d="M42.65 66.65 c-1.15 -0.40 -0.70 -1.65 0.55 -1.65 1.15 0 4.15 -1 5.85 -2 0.95 -0.50 2.95 -0.10 2.95 0.55 0 0.60 -3.40 2.25 -5.50 2.70 -0.95 0.15 -2.10 0.40 -2.50 0.50 -0.40 0.10 -1.05 0.05 -1.35 -0.10z"/>
  <path d="M46 63 c0 -0.20 0.35 -1.15 0.75 -2.10 0.80 -2 0.30 -2.90 -1.60 -2.90 -0.90 0 -1.25 0.35 -1.45 1.45 -0.35 1.75 -1.25 2.25 -2.50 1.30 -0.90 -0.65 -0.90 -0.70 -0.05 -1.60 0.45 -0.55 0.85 -1.20 0.85 -1.50 0 -0.30 0.30 -0.70 0.65 -0.80 0.30 -0.15 0.10 -0.30 -0.55 -0.30 -0.75 -0.05 -1.30 -0.50 -1.65 -1.40 -1.10 -2.90 0.40 -4.85 1.75 -2.25 0.80 1.55 3.15 2.80 4.65 2.50 0.65 -0.15 0.85 -0.55 0.75 -1.60 -0.20 -1.80 0.40 -2.50 2.90 -3.30 2.50 -0.85 5.50 -3.35 6.75 -5.70 1 -1.80 2.75 -2.50 2.75 -1.05 0 1.05 -1.40 3.75 -1.95 3.75 -0.25 0 -0.55 0.45 -0.70 1.05 -0.15 0.55 -0.75 1.15 -1.30 1.30 -0.60 0.15 -1.05 0.45 -1.05 0.70 0 0.25 -0.45 0.45 -1 0.45 -0.55 0 -1 0.20 -1 0.45 0 0.25 -0.65 0.70 -1.50 1 -1.30 0.40 -1.50 0.75 -1.50 2.25 0 0.95 -0.20 1.90 -0.50 2.05 -0.25 0.15 -0.50 0.85 -0.50 1.55 0 1.05 0.20 1.20 2 1.20 1.45 0 2 0.20 2 0.75 0 0.40 -0.30 0.75 -0.60 0.75 -0.35 0 -1.95 0.55 -3.50 1.20 -1.60 0.65 -2.90 1 -2.90 0.80z"/>
  <path d="M55.40 61.35 c-1.85 -0.70 -1.75 -1.65 0.20 -2.05 1.85 -0.35 1.70 -0.45 2.15 1.35 0.40 1.50 0 1.65 -2.35 0.70z"/>
  <path d="M33.85 58.50 c-1.35 -1.55 -2.15 -3.40 -1.65 -3.85 0.10 -0.15 1.10 -0.05 2.15 0.20 2.05 0.45 2.55 1.50 1.95 3.95 -0.40 1.60 -0.95 1.50 -2.45 -0.30z"/>
  <path d="M24.90 57.05 c-3 -0.45 -3.45 -0.90 -1.25 -1.30 2.45 -0.45 4.05 -0.15 4.25 0.90 0.10 0.45 0 0.80 -0.25 0.80 -0.20 -0.05 -1.45 -0.25 -2.75 -0.40z"/>
  <path d="M56 55.65 c0 -2.65 0.55 -3.65 1.85 -3.65 0.80 0 1.15 0.20 0.95 0.65 -0.10 0.30 -0.50 1.45 -0.85 2.50 -0.70 2.20 -1.95 2.50 -1.95 0.50z"/>
  <path d="M69 55.80 c0 -0.40 0.20 -1.30 0.50 -2.05 0.50 -1.35 0.45 -1.60 -1.65 -10.10 l-1.15 -4.55 1.25 -0.30 c1.65 -0.30 2.35 0.55 3.40 4.20 1.25 4.20 1.05 9.40 -0.40 11.65 -1.25 1.95 -1.95 2.35 -1.95 1.15z"/>
  <path d="M30.65 50.90 c-0.45 -0.50 -1.05 -0.90 -1.30 -0.90 -0.25 0 -0.80 -0.40 -1.20 -0.85 -0.40 -0.55 -0.55 -0.60 -0.35 -0.15 0.35 0.65 0.25 0.65 -0.45 0.05 -0.90 -0.70 -1.15 -1.30 -0.40 -0.85 0.25 0.20 0.55 0.05 0.65 -0.25 0.30 -0.95 2.90 0.05 2.90 1.10 0 0.60 0.35 0.95 1 0.95 0.55 0 1 -0.35 1 -0.75 0 -0.90 1.20 -1 1.90 -0.10 0.35 0.40 0.30 0.90 -0.20 1.55 -0.90 1.30 -2.50 1.35 -3.55 0.20z"/>
  <path d="M74.50 47.10 c0 -3.85 0.05 -4.10 1.05 -4.10 1 0 1.05 0.20 0.85 3.25 -0.15 2.20 -0.50 3.55 -1.05 4.10 -0.80 0.80 -0.85 0.60 -0.85 -3.25z"/>
  <path d="M92.25 47 c1.05 -1.15 4.70 -3 5.95 -3 0.60 0 0.80 0.35 0.70 1.15 -0.10 0.90 -0.50 1.15 -2 1.25 -1.25 0.10 -1.90 0.40 -1.90 0.90 0 0.50 -0.55 0.70 -1.85 0.70 -1.75 0 -1.80 0 -0.90 -1z"/>
  <path d="M48.80 46.25 c-1.15 -0.90 -0.80 -1.80 1.15 -3.20 l1.55 -1.10 0 1.25 c0 0.90 0.25 1.30 0.90 1.30 0.65 0.05 0.55 0.20 -0.40 0.75 -0.70 0.40 -0.95 0.70 -0.60 0.75 0.35 0 1.50 -0.85 2.50 -1.85 1.05 -1.05 1.25 -1.35 0.50 -0.70 -1.05 0.90 -1.40 1.05 -1.40 0.50 0 -0.80 2.15 -2.95 2.95 -2.95 2 0 0.30 3 -2.70 4.75 -2.40 1.40 -3.10 1.50 -4.45 0.50z"/>
  <path d="M21.25 43.95 c-0.45 -0.85 -0.75 -1.65 -0.65 -1.75 0.15 -0.10 0.60 0.60 1.05 1.55 1.05 2.15 0.65 2.35 -0.40 0.20z"/>
  <path d="M42 43.55 c-1.65 -0.70 -5 -3.20 -5 -3.80 0 -0.35 0.75 -1.75 1.65 -3.05 0.90 -1.35 1.90 -3.40 2.30 -4.55 0.65 -1.95 0.60 -2.35 -0.20 -4.25 -0.55 -1.20 -1.55 -3.05 -2.30 -4.15 -2.60 -3.90 -5.15 -14.75 -3.45 -14.75 0.35 0 1.80 -0.55 3.20 -1.20 1.40 -0.65 4.15 -1.90 6.05 -2.75 1.95 -0.90 4.35 -2.05 5.40 -2.55 1.90 -1 4.85 -1.45 3.45 -0.55 -0.45 0.25 0.05 0.60 1.65 1.05 1.25 0.35 2.90 1.10 3.60 1.65 l1.30 1 -0.65 -1.20 c-0.55 -1.10 -0.55 -1.15 0.25 -0.40 0.70 0.70 1.05 1.60 1.20 3.10 0.05 0.25 0.25 0.30 0.50 0.15 0.45 -0.30 1.05 0.70 1.35 2.15 0.05 0.40 0.35 0.85 0.55 1 0.95 0.65 2.65 3.50 2.65 4.40 0 0.50 0.30 1.35 0.65 1.90 1.40 2.05 1.40 2.75 0.10 2.75 -0.75 0 -1.25 -0.30 -1.25 -0.70 0 -0.40 -0.20 -0.80 -0.45 -0.90 -0.20 -0.05 -0.90 -1.15 -1.50 -2.40 -2.90 -6.10 -5.30 -9 -8.55 -10.35 -2.20 -0.95 -4.75 -0.95 -5.70 0 -0.40 0.40 -1.75 1.05 -3 1.40 -1.30 0.35 -2.30 0.85 -2.30 1.05 0 0.20 -0.35 0.40 -0.80 0.40 -0.40 0 -1.10 0.35 -1.50 0.75 -0.45 0.40 -1.20 0.75 -1.75 0.75 -0.50 0 -0.95 0.25 -0.95 0.50 0 0.30 -0.45 0.50 -1 0.50 -1.25 0 -1.35 1.90 -0.25 5 0.40 1.15 0.75 2.65 0.75 3.30 0 0.65 0.25 1.20 0.50 1.20 0.30 0 0.50 0.35 0.50 0.75 0 0.40 0.25 0.75 0.50 0.75 0.30 0 0.50 0.35 0.50 0.75 0 0.40 0.25 0.75 0.50 0.75 0.30 0 0.50 0.45 0.50 1 0 0.55 0.20 1 0.45 1 0.65 0 2.05 3.75 2.05 5.45 0 1.75 -2.75 8.05 -3.50 8.05 -0.25 0 -0.50 0.35 -0.50 0.75 0 0.40 0.35 0.75 0.75 0.75 0.40 0 0.75 0.35 0.75 0.75 0 0.85 2.25 1.05 2.75 0.25 0.15 -0.25 0.85 -0.50 1.55 -0.50 0.75 0 1.20 -0.30 1.20 -0.75 0 -0.45 0.45 -0.75 1.25 -0.75 0.70 0 1.25 -0.30 1.25 -0.65 0 -1.05 2.20 -2.85 3.40 -2.85 0.80 0 1.10 -0.30 1.10 -1 0 -0.60 0.30 -1.65 0.70 -2.40 0.35 -0.75 0.55 -2.15 0.40 -3.20 -0.15 -1.60 -0.40 -1.90 -1.35 -1.90 -1.70 0 -2.75 -0.50 -2.75 -1.30 0 -0.40 -0.25 -0.70 -0.50 -0.70 -0.75 0 -2.50 -4.30 -2.50 -6.05 0 -1.10 -0.25 -1.45 -1 -1.45 -0.65 0 -1 -0.35 -1 -1 0 -0.55 -0.35 -1 -0.75 -1 -0.55 0 -0.75 -0.55 -0.75 -2 0 -1.95 0.05 -2 1.75 -2 0.95 0 1.75 0.25 1.75 0.50 0 0.30 0.35 0.50 0.75 0.50 0.40 0 0.75 0.45 0.75 1 0 0.65 0.35 1 1 1 0.80 0 1 0.35 1 1.75 0 1.60 0.10 1.75 1.50 1.75 1.40 0 1.50 0.10 1.50 1.90 l-0.05 1.85 -1.75 -2 c-4.65 -5.20 -5.80 -6.35 -6.05 -6.05 -0.20 0.15 0.05 0.70 0.45 1.15 0.45 0.50 1.75 2.70 2.85 4.90 1.35 2.60 2.90 4.70 4.35 5.95 1.20 1.05 2.55 2.55 2.95 3.30 0.65 1.25 0.65 1.65 -0.25 3.60 -1.15 2.60 -4.70 6.10 -8.70 8.65 -3.55 2.20 -4.80 2.70 -5.80 2.30z"/>
  <path d="M74.10 38.10 c-0.05 -2.45 -0.30 -5 -0.60 -5.65 -0.40 -0.95 -0.45 -0.45 -0.25 2.20 0.15 1.85 0.10 3.35 -0.15 3.35 -0.25 0 -0.90 -0.85 -1.50 -1.85 -1.30 -2.25 -4.40 -5.65 -5.15 -5.65 -0.30 0 0 0.95 0.65 2.15 1.95 3.35 2.05 3.85 0.65 3.85 -0.80 0 -1.30 -0.35 -1.55 -1.10 -0.20 -0.65 -0.70 -1.50 -1.20 -1.90 -0.45 -0.40 -1.75 -2.15 -2.95 -3.85 l-2.10 -3.15 1.55 0 c1.35 0 1.50 0.15 1.50 1.50 0 1 0.25 1.50 0.75 1.50 0.40 0 0.75 -0.20 0.75 -0.50 0 -1.05 3.50 -0.50 4.85 0.70 1.35 1.30 2.15 1.30 2.15 0 0 -0.45 0.55 -0.70 1.75 -0.70 1.15 0 1.75 0.25 1.75 0.70 0 0.45 0.35 0.60 1 0.45 0.95 -0.25 0.95 -0.30 -0.15 -1.70 -0.60 -0.75 -1.50 -1.40 -2 -1.40 -1 -0.05 -1.50 -1 -1.25 -2.55 0.15 -1 0.25 -0.95 1.95 0.45 1 0.85 1.90 1.40 2.05 1.30 0.10 -0.15 1 0.55 1.90 1.50 0.95 0.95 1.55 1.75 1.30 1.75 -0.20 0 0.25 0.80 1 1.75 1.05 1.45 1.15 1.75 0.50 1.75 -0.70 0 -0.75 0.10 -0.20 0.70 0.45 0.50 0.75 0.55 1 0.10 0.45 -0.70 1.30 0.40 3.40 4.35 l1.55 2.85 -1.15 0 c-0.65 0 -1.45 0.25 -1.75 0.55 -0.75 0.75 -1.45 0.25 -1.85 -1.30 -0.45 -1.80 -5 -8.75 -5.75 -8.75 -0.65 0 -1.05 5.40 -0.45 7.05 0.65 1.95 0.15 3.95 -1.05 3.95 -0.80 0 -0.90 -0.50 -0.95 -4.40z m5.40 -8.75 c0 -0.10 -0.75 -0.80 -1.60 -1.65 l-1.65 -1.45 1.45 1.65 c1.40 1.50 1.80 1.85 1.80 1.45z"/>
  <path d="M17.75 26.25 c-0.45 -1.60 -0.70 -2.95 -0.60 -3.10 0.15 -0.10 0.65 1.05 1.10 2.60 0.45 1.60 0.70 2.95 0.60 3.10 -0.15 0.10 -0.65 -1.05 -1.10 -2.60z"/>
  <path d="M57.40 24.70 c-2.55 -1.65 -2.75 -2.20 -0.80 -2.20 2.20 0 3 0.60 2.80 2.10 l-0.15 1.25 -1.85 -1.15z"/>
  <path d="M68.50 21.45 l0 -1.50 1.50 1.05 c2.20 1.55 2.25 2 0.30 2 -1.65 0 -1.80 -0.10 -1.80 -1.55z"/>
 </g>
 <g fill="#7a4552">
  <path d="M35 88.25 c0 -5.10 6.25 -11.15 17.05 -16.60 3.90 -1.95 4.70 -2.15 7.95 -2.15 2.95 0 3.95 0.25 5.80 1.30 1.20 0.70 2.20 1.45 2.20 1.70 0 0.80 6.05 9.50 7 10 1.65 0.85 1.15 1.85 -1.85 3.85 l-2.90 1.90 -8.25 0.10 c-10.75 0.05 -18.60 0.50 -21.95 1.15 -4.60 0.85 -5.05 0.75 -5.05 -1.25z m13.75 -9.30 c0.30 -0.20 1.85 -0.70 3.50 -1.15 3.55 -0.95 6.05 -1.85 7.70 -2.75 1.10 -0.60 1.15 -0.70 0.30 -1.15 -1.65 -0.95 -7.40 0.50 -9.75 2.45 -3.05 2.50 -4.15 3.60 -3.25 3.35 0.55 -0.20 1.25 -0.55 1.50 -0.75z"/>
  <path d="M25.30 80.55 c-0.30 -0.50 3.90 -3.05 4.95 -3.05 0.40 0 0.75 -0.15 0.85 -0.35 0.25 -0.60 4 -2.25 4.30 -1.90 0.35 0.35 -1.80 2.25 -4.85 4.30 -2.20 1.40 -4.70 1.90 -5.25 1z"/>
  <path d="M45.10 69.40 c-0.90 -0.90 7.15 -3.70 8.20 -2.85 0.40 0.30 0.70 0.75 0.70 1 0 1.30 -7.85 2.90 -8.90 1.85z"/>
  <path d="M98.50 68.35 c-0.70 -0.30 -1.40 -0.80 -1.60 -1.10 -0.20 -0.25 -0.55 -0.50 -0.75 -0.50 -1 -0.10 -2.65 -0.85 -2.65 -1.30 0 -0.25 -0.40 -0.45 -0.90 -0.45 -0.55 0 -1.35 -0.45 -1.85 -1 -0.50 -0.55 -1.30 -1 -1.75 -1 -0.90 0 -3 -3.35 -3 -4.85 0 -0.55 0.35 -2.20 0.80 -3.70 0.65 -2.20 1.40 -3.30 4.25 -6.05 2.35 -2.30 3.90 -3.40 4.70 -3.40 0.65 0 1.35 -0.20 1.50 -0.50 0.15 -0.25 0.85 -0.50 1.50 -0.50 l1.20 0 0 12.50 c0.05 6.90 0 12.50 -0.05 12.45 -0.10 0 -0.70 -0.30 -1.40 -0.60z"/>
  <path d="M42.30 66.05 c-0.40 -0.60 -0.30 -0.65 3.45 -1.55 1.40 -0.35 2.70 -0.85 2.95 -1.05 0.80 -0.70 2.90 -0.55 2.70 0.20 -0.50 1.65 -8.30 3.70 -9.10 2.40z"/>
  <path d="M46 62.75 c0 -0.20 0.35 -1 0.80 -1.80 1 -2 0.60 -2.95 -1.25 -2.95 -1.10 0 -1.65 0.35 -2.15 1.35 -0.90 1.85 -1.90 2.05 -1.90 0.35 0 -0.75 -0.35 -2.70 -0.80 -4.30 -0.65 -2.20 -0.70 -3.10 -0.30 -3.50 0.45 -0.45 0.80 -0.35 1.35 0.40 0.40 0.50 0.75 1.30 0.75 1.70 0 0.50 0.85 1 2.30 1.40 2.85 0.75 3.75 0.25 3.40 -2.05 -0.25 -1.55 -0.15 -1.65 3.35 -3.35 2.95 -1.40 3.95 -2.25 5.35 -4.25 1.90 -2.85 2.30 -3.10 3.40 -2.20 1.20 1 0.65 4.75 -1.25 8.70 -1.45 3 -1.65 3.80 -1.45 6.60 0.15 2.75 0.10 3.15 -0.60 2.85 -0.40 -0.20 -1.85 -0.45 -3.20 -0.60 -2.20 -0.20 -3.15 0.05 -5.90 1.45 -1 0.50 -1.90 0.60 -1.90 0.20z m11.45 -12.10 c0.65 -1.40 0.65 -1.40 -0.40 -0.45 -1.10 1 -1.35 1.80 -0.65 1.80 0.25 0 0.70 -0.60 1.05 -1.35z"/>
  <path d="M33.55 57.90 c-1.90 -2.55 -2 -3.65 -0.40 -3.20 0.60 0.15 1.45 0.30 1.90 0.30 0.45 0 0.95 0.50 1.10 1.05 0.35 1.30 -0.10 3.95 -0.65 3.95 -0.25 0 -1.10 -0.95 -1.95 -2.10z"/>
  <path d="M26.75 57.25 c-0.25 -0.10 -1.15 -0.30 -2 -0.50 -1.30 -0.30 -1.35 -0.40 -0.60 -0.80 1.15 -0.65 3.85 -0.05 3.85 0.85 0 0.70 -0.25 0.80 -1.25 0.45z"/>
  <path d="M69.50 52.80 c0 -3.65 -1.20 -9.30 -3.20 -14.70 -2.15 -6.05 -4.65 -10.10 -7.60 -12.45 -1.95 -1.50 -6.45 -5.95 -10.35 -10.15 -2.60 -2.85 -3.75 -3.10 -1.65 -0.35 0.70 0.90 1.95 3.10 2.75 4.90 0.80 1.75 1.85 3.55 2.40 4 3.10 2.75 5.15 5.10 5.15 6 0 2.65 -5.15 9.05 -8.50 10.60 -0.40 0.20 -1.65 0.90 -2.75 1.60 -1.10 0.65 -2.40 1.20 -2.95 1.25 -1.10 0 -5.80 -2.95 -5.80 -3.65 0 -0.30 0.55 -1.25 1.25 -2.10 0.65 -0.90 1.80 -2.90 2.50 -4.50 l1.25 -2.85 -1.05 -2.35 c-0.55 -1.25 -1.65 -3.30 -2.45 -4.55 -1.95 -3.05 -3.50 -8.15 -3.50 -11.60 0 -2.55 0.10 -2.90 1 -2.90 0.55 0 1 -0.20 1 -0.50 0 -0.25 0.30 -0.50 0.70 -0.50 0.40 0 2 -0.65 3.60 -1.45 1.65 -0.80 4.55 -2.10 6.45 -2.95 l3.50 -1.55 3.10 1 c4.60 1.50 6.55 3.75 10.95 12.35 1.35 2.65 2.45 4.05 4.20 5.35 1.30 0.95 2.65 2.10 3 2.50 0.55 0.65 0.35 0.75 -1.25 0.75 -1.40 0 -1.90 -0.25 -2.10 -1 -0.15 -0.55 -0.70 -1 -1.20 -1 -0.60 0 -0.95 -0.35 -0.95 -0.95 0 -0.65 -0.45 -1 -1.50 -1.20 -1.30 -0.30 -1.80 -1 -4.35 -6.15 -2.50 -5 -3.10 -5.90 -4.55 -6.50 -1.80 -0.75 -3.70 -0.90 -4.25 -0.40 -0.15 0.15 1.75 2.35 4.20 4.90 4 4 8.80 10.40 12.35 16.35 1.30 2.20 2.10 2.15 2.10 -0.10 0 -1.20 0.20 -1.45 1.20 -1.45 0.90 0 1.30 -0.30 1.40 -1.10 0.15 -1 0.70 -0.65 4.40 3.10 3.85 3.90 8.50 10.40 8.50 11.90 0 0.35 -0.55 0.60 -1.20 0.60 -0.70 0 -1.40 0.25 -1.60 0.55 -0.35 0.60 -1.65 -1.25 -1.70 -2.35 0 -0.35 -1.05 -2.20 -2.35 -4.15 -1.50 -2.35 -2.60 -3.55 -3.10 -3.45 -0.50 0.15 -0.75 0.60 -0.70 1.35 0.10 0.60 -0.10 1.55 -0.35 2.10 -0.40 0.70 -0.30 1.60 0.25 3.30 0.95 2.85 0.60 10.75 -0.55 11.70 -0.80 0.65 -0.80 0.35 -0.95 -10.30 -0.10 -6.60 -0.65 -10.20 -1.25 -8.50 -0.20 0.55 -0.25 2.20 -0.10 3.65 0.10 1.40 0.10 2.60 -0.05 2.60 -0.15 0 -0.85 -0.95 -1.55 -2.15 -1.45 -2.50 -4.65 -5.70 -5.15 -5.20 -0.20 0.20 0.35 1.75 1.25 3.50 3.05 6.10 4.25 9.85 4.50 14.45 0.20 3.85 0.10 4.55 -0.90 6.10 -0.60 1 -1.20 1.80 -1.30 1.80 -0.10 0 -0.20 -1.45 -0.20 -3.20z m-19.30 -18.05 c0.40 -0.40 0.95 -0.75 1.15 -0.75 0.25 0 0.95 -0.65 1.55 -1.50 l1.10 -1.50 -1.75 -1.85 -1.70 -1.90 -0.05 2.25 c0 1.30 -0.45 3.05 -1 4.15 -1 1.90 -0.70 2.45 0.70 1.10z"/>
 </g>
 <g fill="#8b565c">
  <path d="M45.10 81.40 c-0.35 -0.35 -0.60 -1.10 -0.60 -1.70 0 -1 0.60 -1.65 4.50 -4.85 0.90 -0.75 4.45 -2.45 5.50 -2.60 4.30 -0.75 5.60 -0.75 7 0 3.10 1.60 1.20 4.35 -4.05 5.95 -1.75 0.55 -3.40 1.10 -3.70 1.25 -0.25 0.10 -1 0.30 -1.65 0.35 -0.65 0.10 -1.65 0.55 -2.15 1 -0.50 0.45 -0.95 0.65 -0.95 0.45 0 -0.25 -0.25 -0.20 -0.60 0.15 -0.35 0.35 -1.05 0.60 -1.65 0.60 -0.60 0 -1.30 -0.25 -1.65 -0.60z m7.65 -4.40 c0.85 0 2.35 -0.45 3.40 -1 1 -0.55 2.15 -1 2.55 -1 0.40 0 0.90 -0.25 1.10 -0.60 0.25 -0.40 -0.30 -0.50 -2.15 -0.25 -2.50 0.30 -5.80 1.80 -7.05 3.15 -0.40 0.45 -0.40 0.50 0 0.20 0.35 -0.30 1.30 -0.50 2.15 -0.50z"/>
  <path d="M40.85 60.65 c-0.20 -0.15 -0.35 -2.20 -0.35 -4.50 0 -5.10 0.70 -5.35 2.15 -0.75 0.80 2.50 0.90 3.40 0.45 4.35 -0.55 1.20 -1.55 1.60 -2.25 0.90z"/>
  <path d="M54.85 53.45 c-2.25 -1.20 -2.35 -2.40 -0.35 -3.85 0.80 -0.60 1.85 -1.80 2.25 -2.60 0.60 -1.15 1.10 -1.50 2.25 -1.50 1.35 0 1.50 0.15 1.50 1.55 0 1.95 -1.75 6.05 -2.90 6.80 -0.70 0.40 -1.30 0.30 -2.75 -0.40z"/>
  <path d="M98.30 52.05 c-1.15 -1.25 -0.85 -3.50 0.60 -4.45 l1.10 -0.70 0 3.05 c0 3.25 -0.30 3.65 -1.70 2.10z"/>
  <path d="M44.50 39.55 c0 -0.50 0.90 -2.55 2.05 -4.60 2.70 -4.90 2.85 -6.15 1.25 -9.35 -0.70 -1.40 -1.30 -2.80 -1.30 -3.10 0 -0.30 -0.80 -2.50 -1.75 -4.90 -1.50 -3.80 -1.65 -4.45 -1 -5.10 0.40 -0.40 0.75 -0.50 0.75 -0.20 0 0.30 0.45 1 1.05 1.65 1.30 1.35 4.45 7.50 4.45 8.65 0 0.50 1.45 2.45 3.20 4.45 2.20 2.40 3.15 3.80 2.90 4.40 -0.40 1.10 -2.75 4.05 -3.25 4.05 -0.45 0 -1.55 0.85 -2.70 2.10 -0.45 0.45 -1 0.75 -1.25 0.60 -0.20 -0.15 -0.65 0.30 -1 1 -0.70 1.60 -3.40 1.90 -3.40 0.35z m8.50 -8.30 c0 -0.35 -0.40 -1.15 -0.90 -1.80 l-0.95 -1.10 -0.30 2.40 c-0.20 1.30 -0.65 2.75 -1 3.20 -0.30 0.40 0.25 0.10 1.30 -0.65 1 -0.80 1.85 -1.70 1.85 -2.05z"/>
  <path d="M76.95 31.25 c-1.85 -1.80 -3.60 -3.25 -3.90 -3.25 -0.30 0 -0.55 0.65 -0.55 1.45 0 3.25 -3 3.40 -4.95 0.25 -4.35 -7 -8.55 -12.55 -12.55 -16.55 -2.50 -2.55 -4.90 -4.65 -5.25 -4.65 -0.45 0 -0.75 -0.50 -0.75 -1.15 0 -2.30 5.25 -3.30 9 -1.65 1.55 0.65 2.15 1.45 4.45 6.20 2.40 4.80 3.05 5.75 5.75 7.90 7.90 6.35 14 12.65 13.50 13.90 -0.50 1.35 -1.30 0.95 -4.75 -2.45z m-6.40 -5.25 c0.30 0 -0.65 -1.10 -2.10 -2.50 -3.40 -3.25 -4.65 -3.30 -2.20 -0.10 1 1.30 2.20 2.95 2.65 3.70 l0.85 1.40 0.15 -1.25 c0.10 -0.70 0.40 -1.25 0.65 -1.25z m-9.45 -10.85 c-1.10 -2.05 -2.60 -5.65 -2.60 -6.10 0 -0.30 -0.40 -0.55 -0.85 -0.55 -0.45 0 -1.20 -0.35 -1.70 -0.80 -0.50 -0.45 -1.30 -0.65 -1.80 -0.50 -0.80 0.25 -0.30 1 3.10 4.55 2.20 2.30 4.05 4.20 4.15 4.25 0.05 0 -0.05 -0.40 -0.30 -0.85z"/>
 </g>
 <g fill="#4c7495">
  <path d="M32.25 51.60 c-1.20 -0.25 -4.75 -3 -4.75 -3.65 0 -0.45 4.05 -0.05 5.90 0.60 0.90 0.35 1.10 0.70 0.85 1.60 -0.45 1.45 -0.80 1.70 -2 1.45z"/>
  <path d="M48.10 46.15 c-1.55 -0.30 -1.30 -0.70 1.90 -3.10 2.05 -1.55 3.20 -2.05 4.60 -2.05 1 0 2 0.20 2.15 0.50 0.15 0.25 -0.55 1.40 -1.60 2.50 -1.95 2.10 -4.15 2.80 -7.05 2.15z m5.80 -2 c1.05 -1.05 1.20 -1.30 0.35 -0.60 -0.80 0.75 -1.95 1.55 -2.50 1.85 -0.55 0.30 -0.70 0.60 -0.35 0.60 0.35 0 1.50 -0.85 2.50 -1.85z"/>
 </g>
 <g fill="#a16c6b">
  <path d="M45.55 80.80 c-0.80 -1 -0.10 -2.30 2.30 -4.20 3.75 -2.95 6.25 -4 10.50 -4.40 2.60 -0.25 4.75 1.20 3.85 2.60 -0.30 0.50 -0.85 1.05 -1.25 1.25 -3.55 1.70 -5.75 2.60 -6.90 2.70 -0.70 0.05 -1.95 0.40 -2.80 0.75 -0.80 0.30 -1.80 0.65 -2.15 0.70 -0.35 0.05 -0.90 0.40 -1.20 0.70 -0.80 0.80 -1.65 0.75 -2.35 -0.10z"/>
  <path d="M40.80 58.65 c-0.45 -2.85 -0.35 -6.65 0.15 -6.65 0.65 0 2.15 5.30 1.95 6.90 -0.25 2.15 -1.70 2 -2.10 -0.25z"/>
  <path d="M54.80 52.95 c-1.60 -1.30 -1.65 -2.10 -0.05 -2.95 0.65 -0.35 1.55 -1.40 2 -2.30 0.60 -1.25 1.15 -1.70 2 -1.70 1.60 0 1.90 0.65 1.25 2.95 -0.50 1.90 -2.65 5.05 -3.50 5.05 -0.20 0 -0.95 -0.45 -1.70 -1.05z"/>
  <path d="M98.50 51.25 c-0.65 -0.80 -0.30 -2.35 0.75 -3.25 0.65 -0.55 0.75 -0.30 0.75 1.70 0 2.35 -0.45 2.85 -1.50 1.55z"/>
  <path d="M45.30 39.60 c-0.15 -0.25 0.60 -2.20 1.70 -4.40 2.75 -5.65 2.80 -6.10 1.25 -9.75 -0.75 -1.75 -1.75 -4.45 -2.25 -6.05 -0.50 -1.55 -1.25 -3.35 -1.70 -3.95 -0.85 -1.20 -1.10 -2.95 -0.40 -2.95 0.55 0.05 3.15 4.35 3.90 6.45 1.35 3.85 2.55 5.95 4.25 7.45 1 0.90 2.15 2.30 2.60 3.20 1.05 2.15 0.30 3.55 -3.50 6.30 -1.60 1.15 -3.20 2.55 -3.55 3.10 -0.60 1 -1.85 1.35 -2.30 0.60z"/>
  <path d="M76.90 30.75 c-3.80 -3.80 -5.65 -4.35 -5.15 -1.55 0.30 1.50 0.20 1.75 -0.80 2.05 -0.90 0.30 -1.40 0.10 -2.15 -0.90 -2.15 -2.65 -5.70 -7.70 -6.95 -9.90 -0.75 -1.30 -3.60 -4.65 -6.35 -7.45 -4.50 -4.60 -5.95 -6.90 -4.50 -7.05 0.30 -0.05 0.70 -0.10 0.95 -0.15 0.25 0 0.65 -0.20 0.85 -0.45 0.50 -0.45 3.75 0.10 4.65 0.85 0.35 0.30 1.05 0.55 1.45 0.55 0.40 0 1 0.70 1.25 1.50 0.30 0.85 1.55 3.50 2.85 6 1.85 3.50 2.75 4.70 4.25 5.50 1 0.60 2.05 1.45 2.35 1.90 0.25 0.45 1.75 1.70 3.30 2.80 3.35 2.25 8.75 7.80 8.50 8.65 -0.45 1.25 -1.30 0.80 -4.50 -2.35z"/>
 </g>
 <g fill="#559ccb">
  <path d="M29.90 50.10 c-2.70 -1.95 -2.45 -2.55 0.75 -2 3.90 0.65 3.85 0.65 3.20 2.10 -0.75 1.60 -1.60 1.60 -3.95 -0.10z"/>
  <path d="M48 45.50 c-0.70 -0.20 -0.95 -0.40 -0.65 -0.45 0.35 -0.05 1.55 -0.90 2.70 -1.90 1.60 -1.45 2.45 -1.85 4.05 -1.85 1.35 -0.05 2.15 0.20 2.30 0.65 0.10 0.40 0 0.55 -0.25 0.40 -0.30 -0.20 -0.95 0.15 -1.45 0.70 -0.95 1.05 -4.35 3 -5.05 2.90 -0.20 -0.05 -0.95 -0.25 -1.65 -0.45z"/>
  <path d="M52.75 45.70 c0.30 -0.25 1.15 -1 2 -1.70 1.45 -1.20 1.45 -1.20 0.50 -0.10 -0.55 0.65 -1.45 1.40 -2 1.70 -0.55 0.30 -0.75 0.30 -0.50 0.10z"/>
 </g>
 <g fill="#5abcf7">
  <path d="M29.65 49.50 c-0.90 -0.55 -1.65 -1.10 -1.65 -1.30 0 -0.30 5.05 0.25 5.45 0.60 0.30 0.30 -1.05 1.70 -1.65 1.70 -0.30 0 -1.30 -0.45 -2.15 -1z"/>
  <path d="M48.50 45.15 c0 -1.05 3.95 -3.65 5.60 -3.65 l1.65 0 -1.80 1.75 c-1.70 1.70 -5.45 3 -5.45 1.90z"/>
 </g>
</svg>